  0
SECTION
  2
HEADER
  9
$ACADVER
  1
AC1015
  9
$ACADMAINTVER
 70
     6
  9
$DWGCODEPAGE
  3
ANSI_936
  9
$INSBASE
 10
0.0
 20
0.0
 30
0.0
  9
$EXTMIN
 10
0.0
 20
0.0
 30
0.0
  9
$EXTMAX
 10
297.0
 20
210.0
 30
0.0
  9
$LIMMIN
 10
0.0
 20
0.0
  9
$LIMMAX
 10
297.0
 20
210.0
  9
$ORTHOMODE
 70
     0
  9
$REGENMODE
 70
     1
  9
$FILLMODE
 70
     1
  9
$QTEXTMODE
 70
     0
  9
$MIRRTEXT
 70
     1
  9
$LTSCALE
 40
1.0
  9
$ATTMODE
 70
     1
  9
$TEXTSIZE
 40
3.5
  9
$TRACEWID
 40
1.0
  9
$TEXTSTYLE
  7
Standard
  9
$CLAYER
  8
0
  9
$CELTYPE
  6
ByLayer
  9
$CECOLOR
 62
   256
  9
$CELTSCALE
 40
1.0
  9
$DISPSILH
 70
     0
  9
$DIMSCALE
 40
1.0
  9
$DIMASZ
 40
4.08
  9
$DIMEXO
 40
0.0
  9
$DIMDLI
 40
3.75
  9
$DIMRND
 40
0.0
  9
$DIMDLE
 40
0.0
  9
$DIMEXE
 40
2.0
  9
$DIMTP
 40
0.0
  9
$DIMTM
 40
0.0
  9
$DIMTXT
 40
3.5
  9
$DIMCEN
 40
2.5
  9
$DIMTSZ
 40
0.0
  9
$DIMTOL
 70
     0
  9
$DIMLIM
 70
     0
  9
$DIMTIH
 70
     1
  9
$DIMTOH
 70
     1
  9
$DIMSE1
 70
     0
  9
$DIMSE2
 70
     0
  9
$DIMTAD
 70
     1
  9
$DIMZIN
 70
     0
  9
$DIMBLK
  1

  9
$DIMASO
 70
     1
  9
$DIMSHO
 70
     1
  9
$DIMPOST
  1

  9
$DIMAPOST
  1

  9
$DIMALT
 70
     0
  9
$DIMALTD
 70
     3
  9
$DIMALTF
 40
0.0393700787
  9
$DIMLFAC
 40
2.0
  9
$DIMTOFL
 70
     1
  9
$DIMTVP
 40
0.0
  9
$DIMTIX
 70
     0
  9
$DIMSOXD
 70
     0
  9
$DIMSAH
 70
     0
  9
$DIMBLK1
  1

  9
$DIMBLK2
  1

  9
$DIMSTYLE
  2
ISO-25
  9
$DIMCLRD
 70
     0
  9
$DIMCLRE
 70
     0
  9
$DIMCLRT
 70
     0
  9
$DIMTFAC
 40
1.0
  9
$DIMGAP
 40
1.524
  9
$DIMJUST
 70
     0
  9
$DIMSD1
 70
     0
  9
$DIMSD2
 70
     0
  9
$DIMTOLJ
 70
     0
  9
$DIMTZIN
 70
     0
  9
$DIMALTZ
 70
     0
  9
$DIMALTTZ
 70
     0
  9
$DIMUPT
 70
     0
  9
$DIMDEC
 70
     2
  9
$DIMTDEC
 70
     2
  9
$DIMALTU
 70
     2
  9
$DIMALTTD
 70
     3
  9
$DIMTXSTY
  7
Standard
  9
$DIMAUNIT
 70
     0
  9
$DIMADEC
 70
     2
  9
$DIMALTRND
 40
0.0
  9
$DIMAZIN
 70
     0
  9
$DIMDSEP
 70
    44
  9
$DIMATFIT
 70
     3
  9
$DIMFRAC
 70
     0
  9
$DIMLDRBLK
  1

  9
$DIMLUNIT
 70
     2
  9
$DIMLWD
 70
    -2
  9
$DIMLWE
 70
    -2
  9
$DIMTMOVE
 70
     0
  9
$LUNITS
 70
     2
  9
$LUPREC
 70
     2
  9
$SKETCHINC
 40
1.0
  9
$FILLETRAD
 40
0.0
  9
$AUNITS
 70
     0
  9
$AUPREC
 70
     2
  9
$MENU
  1
.
  9
$ELEVATION
 40
0.0
  9
$PELEVATION
 40
0.0
  9
$THICKNESS
 40
0.0
  9
$LIMCHECK
 70
     0
  9
$CHAMFERA
 40
0.0
  9
$CHAMFERB
 40
0.0
  9
$CHAMFERC
 40
0.0
  9
$CHAMFERD
 40
0.0
  9
$SKPOLY
 70
     0
  9
$TDCREATE
 40
2461215.126735868
  9
$TDUCREATE
 40
2461214.793402535
  9
$TDUPDATE
 40
2461215.126736459
  9
$TDUUPDATE
 40
2461214.793403125
  9
$TDINDWG
 40
0.0000000116
  9
$TDUSRTIMER
 40
0.0000000116
  9
$USRTIMER
 70
     1
  9
$ANGBASE
 50
0.0
  9
$ANGDIR
 70
     0
  9
$PDMODE
 70
     0
  9
$PDSIZE
 40
-1.0
  9
$PLINEWID
 40
0.0
  9
$SPLFRAME
 70
     0
  9
$SPLINETYPE
 70
     6
  9
$SPLINESEGS
 70
     8
  9
$HANDSEED
  5
17F
  9
$SURFTAB1
 70
     6
  9
$SURFTAB2
 70
     6
  9
$SURFTYPE
 70
     6
  9
$SURFU
 70
     6
  9
$SURFV
 70
     6
  9
$UCSBASE
  2

  9
$UCSNAME
  2

  9
$UCSORG
 10
0.0
 20
0.0
 30
0.0
  9
$UCSXDIR
 10
1.0
 20
0.0
 30
0.0
  9
$UCSYDIR
 10
0.0
 20
1.0
 30
0.0
  9
$UCSORTHOREF
  2

  9
$UCSORTHOVIEW
 70
     0
  9
$UCSORGTOP
 10
0.0
 20
0.0
 30
0.0
  9
$UCSORGBOTTOM
 10
0.0
 20
0.0
 30
0.0
  9
$UCSORGLEFT
 10
0.0
 20
0.0
 30
0.0
  9
$UCSORGRIGHT
 10
0.0
 20
0.0
 30
0.0
  9
$UCSORGFRONT
 10
0.0
 20
0.0
 30
0.0
  9
$UCSORGBACK
 10
0.0
 20
0.0
 30
0.0
  9
$PUCSBASE
  2

  9
$PUCSNAME
  2

  9
$PUCSORG
 10
0.0
 20
0.0
 30
0.0
  9
$PUCSXDIR
 10
1.0
 20
0.0
 30
0.0
  9
$PUCSYDIR
 10
0.0
 20
1.0
 30
0.0
  9
$PUCSORTHOREF
  2

  9
$PUCSORTHOVIEW
 70
     0
  9
$PUCSORGTOP
 10
0.0
 20
0.0
 30
0.0
  9
$PUCSORGBOTTOM
 10
0.0
 20
0.0
 30
0.0
  9
$PUCSORGLEFT
 10
0.0
 20
0.0
 30
0.0
  9
$PUCSORGRIGHT
 10
0.0
 20
0.0
 30
0.0
  9
$PUCSORGFRONT
 10
0.0
 20
0.0
 30
0.0
  9
$PUCSORGBACK
 10
0.0
 20
0.0
 30
0.0
  9
$USERI1
 70
     0
  9
$USERI2
 70
     0
  9
$USERI3
 70
     0
  9
$USERI4
 70
     0
  9
$USERI5
 70
     0
  9
$USERR1
 40
0.0
  9
$USERR2
 40
0.0
  9
$USERR3
 40
0.0
  9
$USERR4
 40
0.0
  9
$USERR5
 40
0.0
  9
$WORLDVIEW
 70
     1
  9
$SHADEDGE
 70
     3
  9
$SHADEDIF
 70
    70
  9
$TILEMODE
 70
     1
  9
$MAXACTVP
 70
    64
  9
$PINSBASE
 10
0.0
 20
0.0
 30
0.0
  9
$PLIMCHECK
 70
     0
  9
$PEXTMIN
 10
1.0000000000E+20
 20
1.0000000000E+20
 30
1.0000000000E+20
  9
$PEXTMAX
 10
-1.0000000000E+20
 20
-1.0000000000E+20
 30
-1.0000000000E+20
  9
$PLIMMIN
 10
0.0
 20
0.0
  9
$PLIMMAX
 10
420.0
 20
297.0
  9
$UNITMODE
 70
     0
  9
$VISRETAIN
 70
     1
  9
$PLINEGEN
 70
     0
  9
$PSLTSCALE
 70
     1
  9
$TREEDEPTH
 70
  3020
  9
$CMLSTYLE
  2
Standard
  9
$CMLJUST
 70
     0
  9
$CMLSCALE
 40
20.0
  9
$PROXYGRAPHICS
 70
     1
  9
$MEASUREMENT
 70
     1
  9
$CELWEIGHT
370
    -1
  9
$ENDCAPS
280
     0
  9
$JOINSTYLE
280
     0
  9
$LWDISPLAY
290
     1
  9
$INSUNITS
 70
     4
  9
$HYPERLINKBASE
  1

  9
$STYLESHEET
  1

  9
$XEDIT
290
     1
  9
$CEPSNTYPE
380
     0
  9
$PSTYLEMODE
290
     1
  9
$FINGERPRINTGUID
  2
{aa4630a1-c7b1-4876-b9d0-c552bef969ad}
  9
$VERSIONGUID
  2
{FAEB1C32-E019-11D5-929B-00C0DF256EC4}
  9
$EXTNAMES
290
     1
  9
$PSVPSCALE
 40
0.0
  9
$OLESTARTUP
290
     0
  0
ENDSEC
  0
SECTION
  2
CLASSES
  0
CLASS
  1
ACDBDICTIONARYWDFLT
  2
AcDbDictionaryWithDefault
  3
ObjectDBX Classes
 90
        0
280
     0
281
     0
  0
CLASS
  1
VISUALSTYLE
  2
AcDbVisualStyle
  3
ObjectDBX Classes
 90
     4095
280
     0
281
     0
  0
CLASS
  1
MATERIAL
  2
AcDbMaterial
  3
ObjectDBX Classes
 90
     1153
280
     0
281
     0
  0
CLASS
  1
SCALE
  2
AcDbScale
  3
ObjectDBX Classes
 90
     1153
280
     0
281
     0
  0
CLASS
  1
TABLESTYLE
  2
AcDbTableStyle
  3
ObjectDBX Classes
 90
     4095
280
     0
281
     0
  0
CLASS
  1
MLEADERSTYLE
  2
AcDbMLeaderStyle
  3
ACDB_MLEADERSTYLE_CLASS
 90
     4095
280
     0
281
     0
  0
CLASS
  1
SUN
  2
AcDbSun
  3
SCENEOE
 90
     1153
280
     0
281
     0
  0
CLASS
  1
ACDBPLACEHOLDER
  2
AcDbPlaceHolder
  3
ObjectDBX Classes
 90
        0
280
     0
281
     0
  0
CLASS
  1
LAYOUT
  2
AcDbLayout
  3
ObjectDBX Classes
 90
        0
280
     0
281
     0
  0
ENDSEC
  0
SECTION
  2
TABLES
  0
TABLE
  2
VPORT
  5
8
330
0
100
AcDbSymbolTable
 70
     1
  0
VPORT
  5
29
330
8
100
AcDbSymbolTableRecord
100
AcDbViewportTableRecord
  2
*Active
 70
     0
 10
0.0
 20
0.0
 11
1.0
 21
1.0
 12
148.5
 22
105.0
 13
0.0
 23
0.0
 14
10.0
 24
10.0
 15
10.0
 25
10.0
 16
0.0
 26
0.0
 36
1.0
 17
0.0
 27
0.0
 37
0.0
 40
210.0
 41
1.4142857143
 42
50.0
 43
0.0
 44
0.0
 50
0.0
 51
0.0
 71
     0
 72
  2000
 73
     1
 74
     3
 75
     0
 76
     0
 77
     0
 78
     0
281
     0
 65
     1
110
0.0
120
0.0
130
0.0
111
1.0
121
0.0
131
0.0
112
0.0
122
1.0
132
0.0
 79
     0
146
0.0
  0
ENDTAB
  0
TABLE
  2
LTYPE
  5
5
330
0
100
AcDbSymbolTable
 70
     6
  0
LTYPE
  5
14
330
5
100
AcDbSymbolTableRecord
100
AcDbLinetypeTableRecord
  2
ByBlock
 70
     0
  3

 72
    65
 73
     0
 40
0.0
  0
LTYPE
  5
15
330
5
100
AcDbSymbolTableRecord
100
AcDbLinetypeTableRecord
  2
ByLayer
 70
     0
  3

 72
    65
 73
     0
 40
0.0
  0
LTYPE
  5
16
330
5
100
AcDbSymbolTableRecord
100
AcDbLinetypeTableRecord
  2
Continuous
 70
     0
  3
Solid line
 72
    65
 73
     0
 40
0.0
  0
LTYPE
  5
5E
330
5
100
AcDbSymbolTableRecord
100
AcDbLinetypeTableRecord
  2
HIDDEN
 70
     0
  3
Hidden __ __ __ __ __ __ __ __ __ __ __ __ __ __
 72
    65
 73
     2
 40
1.905
 49
1.27
 74
     0
 49
-0.635
 74
     0
  0
LTYPE
  5
5F
330
5
100
AcDbSymbolTableRecord
100
AcDbLinetypeTableRecord
  2
PHANTOM
 70
     0
  3
Phantom ______  __  __  ______  __  __  ______
 72
    65
 73
     6
 40
12.7
 49
6.35
 74
     0
 49
-1.27
 74
     0
 49
1.27
 74
     0
 49
-1.27
 74
     0
 49
1.27
 74
     0
 49
-1.27
 74
     0
  0
LTYPE
  5
60
330
5
100
AcDbSymbolTableRecord
100
AcDbLinetypeTableRecord
  2
CENTER
 70
     0
  3
Center ____ _ ____ _ ____ _ ____ _ ____ _ ____
 72
    65
 73
     4
 40
10.16
 49
6.35
 74
     0
 49
-1.27
 74
     0
 49
1.27
 74
     0
 49
-1.27
 74
     0
  0
LTYPE
  5
61
330
5
100
AcDbSymbolTableRecord
100
AcDbLinetypeTableRecord
  2
CENTERX2
 70
     0
  3
Center (2x) ________  __  ________  __  _____
 72
    65
 73
     4
 40
20.32
 49
12.7
 74
     0
 49
-2.54
 74
     0
 49
2.54
 74
     0
 49
-2.54
 74
     0
  0
LTYPE
  5
62
330
5
100
AcDbSymbolTableRecord
100
AcDbLinetypeTableRecord
  2
DOT2
 70
     0
  3
Dot (.5x) ........................................
 72
    65
 73
     2
 40
0.635
 49
0.0
 74
     0
 49
-0.635
 74
     0
  0
ENDTAB
  0
TABLE
  2
LAYER
  5
2
330
0
100
AcDbSymbolTable
 70
    14
  0
LAYER
  5
10
330
2
100
AcDbSymbolTableRecord
100
AcDbLayerTableRecord
  2
0
 70
     0
 62
     7
  6
Continuous
370
    -3
390
F
  0
LAYER
  5
63
330
2
100
AcDbSymbolTableRecord
100
AcDbLayerTableRecord
  2
SLD-0
 70
     0
 62
     7
  6
Continuous
370
    -3
390
F
  0
LAYER
  5
64
330
2
100
AcDbSymbolTableRecord
100
AcDbLayerTableRecord
  2
5
 70
     0
 62
     7
  6
Continuous
370
    -3
390
F
  0
LAYER
  5
65
330
2
100
AcDbSymbolTableRecord
100
AcDbLayerTableRecord
  2
9
 70
     0
 62
     7
  6
Continuous
370
    -3
390
F
  0
LAYER
  5
66
330
2
100
AcDbSymbolTableRecord
100
AcDbLayerTableRecord
  2
10
 70
     0
 62
     7
  6
Continuous
370
    -3
390
F
  0
LAYER
  5
67
330
2
100
AcDbSymbolTableRecord
100
AcDbLayerTableRecord
  2
轮廓实线层
 70
     0
 62
     7
  6
Continuous
370
    50
390
F
  0
LAYER
  5
68
330
2
100
AcDbSymbolTableRecord
100
AcDbLayerTableRecord
  2
细线层
 70
     0
 62
     4
  6
Continuous
370
    25
390
F
  0
LAYER
  5
69
330
2
100
AcDbSymbolTableRecord
100
AcDbLayerTableRecord
  2
中心线层
 70
     0
 62
     1
  6
CENTERX2
370
    25
390
F
  0
LAYER
  5
6A
330
2
100
AcDbSymbolTableRecord
100
AcDbLayerTableRecord
  2
虚线层
 70
     0
 62
     6
  6
HIDDEN
370
    25
390
F
  0
LAYER
  5
6B
330
2
100
AcDbSymbolTableRecord
100
AcDbLayerTableRecord
  2
剖面线层
 70
     0
 62
     2
  6
Continuous
370
    25
390
F
  0
LAYER
  5
6C
330
2
100
AcDbSymbolTableRecord
100
AcDbLayerTableRecord
  2
文字层
 70
     0
 62
     3
  6
Continuous
370
    25
390
F
  0
LAYER
  5
6D
330
2
100
AcDbSymbolTableRecord
100
AcDbLayerTableRecord
  2
标注层
 70
     0
 62
     4
  6
Continuous
370
    25
390
F
  0
LAYER
  5
6E
330
2
100
AcDbSymbolTableRecord
100
AcDbLayerTableRecord
  2
符号标注层
 70
     0
 62
    31
  6
Continuous
370
    25
390
F
  0
LAYER
  5
6F
330
2
100
AcDbSymbolTableRecord
100
AcDbLayerTableRecord
  2
双点划线层
 70
     0
 62
     6
  6
PHANTOM
370
    25
390
F
  0
ENDTAB
  0
TABLE
  2
STYLE
  5
3
330
0
100
AcDbSymbolTable
 70
     1
  0
STYLE
  5
11
330
3
100
AcDbSymbolTableRecord
100
AcDbTextStyleTableRecord
  2
Standard
 70
     0
 40
0.0
 41
1.0
 50
0.0
 71
     0
 42
3.5
  3
txt
  4

  0
ENDTAB
  0
TABLE
  2
VIEW
  5
6
330
0
100
AcDbSymbolTable
 70
     0
  0
ENDTAB
  0
TABLE
  2
UCS
  5
7
330
0
100
AcDbSymbolTable
 70
     0
  0
ENDTAB
  0
TABLE
  2
APPID
  5
9
330
0
100
AcDbSymbolTable
 70
     1
  0
APPID
  5
12
330
9
100
AcDbSymbolTableRecord
100
AcDbRegAppTableRecord
  2
ACAD
 70
     0
  0
ENDTAB
  0
TABLE
  2
DIMSTYLE
  5
A
330
0
100
AcDbSymbolTable
 70
     1
100
AcDbDimStyleTable
  0
DIMSTYLE
105
27
330
A
100
AcDbSymbolTableRecord
100
AcDbDimStyleTableRecord
  2
ISO-25
 70
     0
 41
2.5
 42
0.625
 43
3.75
 44
1.25
 73
     0
 74
     0
 77
     1
 78
     8
140
2.5
141
2.5
143
0.0393700787
147
0.625
171
     3
172
     1
178
     0
271
     2
272
     2
274
     3
278
    44
283
     0
284
     8
340
11
  0
ENDTAB
  0
TABLE
  2
BLOCK_RECORD
  5
1
330
0
100
AcDbSymbolTable
 70
     1
  0
BLOCK_RECORD
  5
1F
330
1
100
AcDbSymbolTableRecord
100
AcDbBlockTableRecord
  2
*Model_Space
340
22
  0
BLOCK_RECORD
  5
1B
330
1
100
AcDbSymbolTableRecord
100
AcDbBlockTableRecord
  2
*Paper_Space
340
1E
  0
BLOCK_RECORD
  5
23
330
1
100
AcDbSymbolTableRecord
100
AcDbBlockTableRecord
  2
*Paper_Space0
340
26
  0
ENDTAB
  0
ENDSEC
  0
SECTION
  2
BLOCKS
  0
BLOCK
  5
20
330
1F
100
AcDbEntity
  8
0
100
AcDbBlockBegin
  2
*Model_Space
 70
     0
 10
0.0
 20
0.0
 30
0.0
  3
*Model_Space
  1

  0
ENDBLK
  5
21
330
1F
100
AcDbEntity
  8
0
100
AcDbBlockEnd
  0
BLOCK
  5
1C
330
1B
100
AcDbEntity
 67
     1
  8
0
100
AcDbBlockBegin
  2
*Paper_Space
 70
     0
 10
0.0
 20
0.0
 30
0.0
  3
*Paper_Space
  1

  0
ENDBLK
  5
1D
330
1B
100
AcDbEntity
 67
     1
  8
0
100
AcDbBlockEnd
  0
BLOCK
  5
24
330
23
100
AcDbEntity
  8
0
100
AcDbBlockBegin
  2
*Paper_Space0
 70
     0
 10
0.0
 20
0.0
 30
0.0
  3
*Paper_Space0
  1

  0
ENDBLK
  5
25
330
23
100
AcDbEntity
  8
0
100
AcDbBlockEnd
  0
ENDSEC
  0
SECTION
  2
ENTITIES
  0
SPLINE
  5
70
330
1F
100
AcDbEntity
  8
0
  6
Continuous
 62
     7
370
    25
100
AcDbSpline
210
0.0
220
0.0
230
1.0
 70
     8
 71
     3
 72
    11
 73
     7
 74
     0
 42
0.00000001
 43
0.00000001
 40
0.0
 40
0.0
 40
0.0
 40
0.0
 40
0.2517654263406193
 40
0.5101744712667418
 40
0.7630824669050663
 40
0.9999999999999999
 40
0.9999999999999999
 40
0.9999999999999999
 40
0.9999999999999999
 10
56.37046192182905
 20
42.46438732140735
 30
0.0
 10
56.48569377622892
 20
42.51945029293184
 30
0.0
 10
56.71919823808462
 20
42.63102924478473
 30
0.0
 10
56.96975704674672
 20
42.92158860091654
 30
0.0
 10
57.11952781467149
 20
43.26116470086261
 30
0.0
 10
57.12241277080564
 20
43.50189924749767
 30
0.0
 10
57.12380815885769
 20
43.61833710459957
 30
0.0
  0
SPLINE
  5
71
330
1F
100
AcDbEntity
  8
0
  6
Continuous
 62
     7
370
    25
100
AcDbSpline
210
0.0
220
0.0
230
1.0
 70
     8
 71
     3
 72
    11
 73
     7
 74
     0
 42
0.00000001
 43
0.00000001
 40
0.0
 40
0.0
 40
0.0
 40
0.0
 40
0.253110033269173
 40
0.5232869532490392
 40
0.7993180649957781
 40
1.0
 40
1.0
 40
1.0
 40
1.0
 10
108.8721462875023
 20
43.61833710459957
 30
0.0
 10
108.8738208433562
 20
43.50180596676745
 30
0.0
 10
108.8772828682295
 20
43.26088614511042
 30
0.0
 10
109.029209331016
 20
42.92228835749192
 30
0.0
 10
109.25700636225
 20
42.65226177099504
 30
0.0
 10
109.4604914587115
 20
42.55301821567996
 30
0.0
 10
109.546152598428
 20
42.51123964709856
 30
0.0
  0
SPLINE
  5
72
330
1F
100
AcDbEntity
  8
0
  6
Continuous
 62
     7
370
    25
100
AcDbSpline
210
0.0
220
0.0
230
1.0
 70
    24
 71
     3
 72
    12
 73
     8
 74
     0
 42
0.00000001
 43
0.00000001
 40
0.0
 40
0.0
 40
0.0
 40
0.0
 40
0.1641935404605342
 40
0.3293626696256799
 40
0.5003832561294485
 40
0.7480470596827881
 40
1.0
 40
1.0
 40
1.0
 40
1.0
 10
55.94272395659638
 20
42.38766254603421
 30
0.0
 10
55.94202053264455
 20
42.38766254603421
 30
0.0
 10
55.94060950520701
 20
42.38766254603421
 30
0.0
 10
55.92701152947412
 20
42.38766254603421
 30
0.0
 10
55.90237273848173
 20
42.38766254603422
 30
0.0
 10
55.8620792522093
 20
42.38766254603421
 30
0.0
 10
55.82027340845061
 20
42.38766254603421
 30
0.0
 10
55.79919103804035
 20
42.38766254603421
 30
0.0
  0
SPLINE
  5
73
330
1F
100
AcDbEntity
  8
0
  6
Continuous
 62
     7
370
    25
100
AcDbSpline
210
0.0
220
0.0
230
1.0
 70
    24
 71
     3
 72
    12
 73
     8
 74
     0
 42
0.00000001
 43
0.00000001
 40
0.0
 40
0.0
 40
0.0
 40
0.0
 40
0.1641580695303347
 40
0.3292915215430449
 40
0.5002751726679425
 40
0.7511411179593781
 40
1.0
 40
1.0
 40
1.0
 40
1.0
 10
55.79919103804035
 20
42.38766254603421
 30
0.0
 10
55.78445985037632
 20
42.38766254603422
 30
0.0
 10
55.75490994634844
 20
42.38766254603422
 30
0.0
 10
55.70514630022659
 20
42.38766254603421
 30
0.0
 10
55.64510728520215
 20
42.38766254603422
 30
0.0
 10
55.57467538556307
 20
42.38766254603421
 30
0.0
 10
55.52650305543738
 20
42.38766254603421
 30
0.0
 10
55.50251362852742
 20
42.38766254603421
 30
0.0
  0
SPLINE
  5
74
330
1F
100
AcDbEntity
  8
0
  6
Continuous
 62
     7
370
    25
100
AcDbSpline
210
0.0
220
0.0
230
1.0
 70
     8
 71
     3
 72
     9
 73
     5
 74
     0
 42
0.00000001
 43
0.00000001
 40
0.0
 40
0.0
 40
0.0
 40
0.0
 40
0.805592738444194
 40
1.0
 40
1.0
 40
1.0
 40
1.0
 10
57.17339851386491
 20
43.61833710459957
 30
0.0
 10
57.16467156409061
 20
43.43640579889313
 30
0.0
 10
57.15383860922665
 20
43.21057046420804
 30
0.0
 10
57.01476716373087
 20
43.04410857072539
 30
0.0
 10
56.98773066485143
 20
43.01174716986004
 30
0.0
  0
SPLINE
  5
75
330
1F
100
AcDbEntity
  8
0
  6
Continuous
 62
     7
370
    25
100
AcDbSpline
210
0.0
220
0.0
230
1.0
 70
     8
 71
     3
 72
     9
 73
     5
 74
     0
 42
0.00000001
 43
0.00000001
 40
0.0
 40
0.0
 40
0.0
 40
0.0
 40
0.5094066413262966
 40
1.0
 40
1.0
 40
1.0
 40
1.0
 10
56.7072894916311
 20
42.65772736677061
 30
0.0
 10
56.58919560728028
 20
42.57831083735145
 30
0.0
 10
56.35736925330234
 20
42.42241077053568
 30
0.0
 10
56.07919459601358
 20
42.39909909783886
 30
0.0
 10
55.94272395659638
 20
42.38766254603421
 30
0.0
  0
SPLINE
  5
76
330
1F
100
AcDbEntity
  8
0
  6
Continuous
 62
     7
370
    25
100
AcDbSpline
210
0.0
220
0.0
230
1.0
 70
    24
 71
     3
 72
    12
 73
     8
 74
     0
 42
0.00000001
 43
0.00000001
 40
0.0
 40
0.0
 40
0.0
 40
0.0
 40
0.1641935406105041
 40
0.3293626697877638
 40
0.5003832561452993
 40
0.7480470603259524
 40
1.0
 40
1.0
 40
1.0
 40
1.0
 10
110.497485970898
 20
42.38766254603421
 30
0.0
 10
110.4818655222272
 20
42.38766254603421
 30
0.0
 10
110.450531812884
 20
42.38766254603422
 30
0.0
 10
110.3993203344998
 20
42.38766254603421
 30
0.0
 10
110.339015486883
 20
42.38766254603422
 30
0.0
 10
110.269543827666
 20
42.38766254603421
 30
0.0
 10
110.2238510715533
 20
42.38766254603422
 30
0.0
 10
110.2008085607368
 20
42.38766254603421
 30
0.0
  0
SPLINE
  5
77
330
1F
100
AcDbEntity
  8
0
  6
Continuous
 62
     7
370
    25
100
AcDbSpline
210
0.0
220
0.0
230
1.0
 70
    24
 71
     3
 72
    12
 73
     8
 74
     0
 42
0.00000001
 43
0.00000001
 40
0.0
 40
0.0
 40
0.0
 40
0.0
 40
0.1641580416322571
 40
0.3292914638792849
 40
0.5002750820358913
 40
0.7511410381493124
 40
1.0
 40
1.0
 40
1.0
 40
1.0
 10
110.2008085607368
 20
42.38766254603421
 30
0.0
 10
110.1868289291443
 20
42.38766254603422
 30
0.0
 10
110.1587866029455
 20
42.38766254603422
 30
0.0
 10
110.1235158149273
 20
42.38766254603421
 30
0.0
 10
110.0899836419825
 20
42.38766254603422
 30
0.0
 10
110.0622627299537
 20
42.38766254603421
 30
0.0
 10
110.0589335491855
 20
42.38766254603421
 30
0.0
 10
110.0572756441261
 20
42.38766254603421
 30
0.0
  0
SPLINE
  5
78
330
1F
100
AcDbEntity
  8
0
  6
Continuous
 62
     7
370
    25
100
AcDbSpline
210
0.0
220
0.0
230
1.0
 70
     8
 71
     3
 72
    14
 73
    10
 74
     0
 42
0.00000001
 43
0.00000001
 40
0.0
 40
0.0
 40
0.0
 40
0.0
 40
0.25
 40
0.25
 40
0.5
 40
0.5
 40
0.75
 40
0.75
 40
1.0
 40
1.0
 40
1.0
 40
1.0
 10
110.0572756441262
 20
42.38766254603421
 30
0.0
 10
109.9122392564396
 20
42.38766254605659
 30
0.0
 10
109.7557631349274
 20
42.41409588348373
 30
0.0
 10
109.4527785647934
 20
42.53404471186293
 30
0.0
 10
109.3072093958946
 20
42.62796670124043
 30
0.0
 10
109.0669052407671
 20
42.86827085636801
 30
0.0
 10
108.9729832513896
 20
43.01384002526677
 30
0.0
 10
108.8530344230103
 20
43.31682459540077
 30
0.0
 10
108.8266010855832
 20
43.47330071691297
 30
0.0
 10
108.8266010855608
 20
43.61833710459957
 30
0.0
  0
SPLINE
  5
79
330
1F
100
AcDbEntity
  8
0
  6
Continuous
 62
     7
370
    25
100
AcDbSpline
210
0.0
220
0.0
230
1.0
 70
     8
 71
     3
 72
    18
 73
    14
 74
     0
 42
0.00000001
 43
0.00000001
 40
0.0
 40
0.0
 40
0.0
 40
0.0
 40
0.2499999999999999
 40
0.2499999999999999
 40
0.4999999999999998
 40
0.4999999999999998
 40
0.6249999999999998
 40
0.6249999999999998
 40
0.7499999999999999
 40
0.7499999999999999
 40
0.8749999999999999
 40
0.8749999999999999
 40
1.0
 40
1.0
 40
1.0
 40
1.0
 10
57.16495693899504
 20
48.76879156931912
 30
0.0
 10
57.14423737576033
 20
49.04791760977637
 30
0.0
 10
57.08667628576731
 20
49.32054124578567
 30
0.0
 10
56.89218226760226
 20
49.85741743947405
 30
0.0
 10
56.75262904989624
 20
50.12463571398607
 30
0.0
 10
56.47632802992133
 20
50.49739643669633
 30
0.0
 10
56.37157765413181
 20
50.61891359315658
 30
0.0
 10
56.13918575946651
 20
50.84774136151084
 30
0.0
 10
56.01259598697896
 20
50.95441165919849
 30
0.0
 10
55.734563880541
 20
51.15110006417433
 30
0.0
 10
55.58638868256914
 20
51.23840349265254
 30
0.0
 10
55.27997198663119
 20
51.38617633889378
 30
0.0
 10
55.12305830014835
 20
51.44574335093255
 30
0.0
 10
54.97234687926458
 20
51.49048664244594
 30
0.0
  0
LINE
  5
7A
330
1F
100
AcDbEntity
  8
0
  6
Continuous
 62
     7
370
    25
100
AcDbLine
 10
57.164932859
 20
45.464348943
 30
0.0
 11
57.1649328656
 21
48.7687451942
 31
0.0
  0
SPLINE
  5
7B
330
1F
100
AcDbEntity
  8
0
  6
Continuous
 62
     7
370
    25
100
AcDbSpline
210
0.0
220
0.0
230
1.0
 70
    24
 71
     3
 72
     8
 73
     4
 74
     0
 42
0.00000001
 43
0.00000001
 40
0.0
 40
0.0
 40
0.0
 40
0.0
 40
1.0
 40
1.0
 40
1.0
 40
1.0
 10
57.1649328544114
 20
45.46434894244759
 30
0.0
 10
57.1705688543942
 20
45.46434894244761
 30
0.0
 10
57.17339851077947
 20
45.46434894244761
 30
0.0
 10
57.17339851386491
 20
45.46434894244759
 30
0.0
  0
LINE
  5
7C
330
1F
100
AcDbEntity
  8
0
  6
Continuous
 62
     7
370
    25
100
AcDbLine
 10
57.1733985139
 20
45.4643489424
 30
0.0
 11
57.1733985139
 21
43.6183371046
 31
0.0
  0
LINE
  5
7D
330
1F
100
AcDbEntity
  8
0
  6
Continuous
 62
     7
370
    25
100
AcDbLine
 10
108.8266010856
 20
43.6183371046
 30
0.0
 11
108.8266010856
 21
45.4643489424
 31
0.0
  0
SPLINE
  5
7E
330
1F
100
AcDbEntity
  8
0
  6
Continuous
 62
     7
370
    25
100
AcDbSpline
210
0.0
220
0.0
230
1.0
 70
    24
 71
     3
 72
     8
 73
     4
 74
     0
 42
0.00000001
 43
0.00000001
 40
0.0
 40
0.0
 40
0.0
 40
0.0
 40
1.0
 40
1.0
 40
1.0
 40
1.0
 10
108.8266010855608
 20
45.46434894244759
 30
0.0
 10
108.8266052060735
 20
45.46434894244761
 30
0.0
 10
108.8294327735438
 20
45.46434894244761
 30
0.0
 10
108.8350605464713
 20
45.46434894244759
 30
0.0
  0
LINE
  5
7F
330
1F
100
AcDbEntity
  8
0
  6
Continuous
 62
     7
370
    25
100
AcDbLine
 10
108.8350667354
 20
48.7687451942
 30
0.0
 11
108.8350667339
 21
45.4643489424
 31
0.0
  0
SPLINE
  5
80
330
1F
100
AcDbEntity
  8
0
  6
Continuous
 62
     7
370
    25
100
AcDbSpline
210
0.0
220
0.0
230
1.0
 70
     8
 71
     3
 72
    20
 73
    16
 74
     0
 42
0.00000001
 43
0.00000001
 40
0.0
 40
0.0
 40
0.0
 40
0.0
 40
0.1250000000000001
 40
0.1250000000000001
 40
0.2500000000000002
 40
0.2500000000000002
 40
0.3750000000000002
 40
0.3750000000000002
 40
0.5000000000000003
 40
0.5000000000000003
 40
0.6250000000000004
 40
0.6250000000000004
 40
0.7500000000000004
 40
0.7500000000000004
 40
1.0
 40
1.0
 40
1.0
 40
1.0
 10
111.0276527201599
 20
51.49048664244556
 30
0.0
 10
110.87702765685
 20
51.44576898881727
 30
0.0
 10
110.7233515996665
 20
51.38762429171361
 30
0.0
 10
110.4147765975737
 20
51.23911849131206
 30
0.0
 10
110.2675662805903
 20
51.15247042883042
 30
0.0
 10
109.9885404518293
 20
50.955351160212
 30
0.0
 10
109.8617487877977
 20
50.8485163271029
 30
0.0
 10
109.6302742453735
 20
50.6208813845023
 30
0.0
 10
109.5249846674916
 20
50.49899117801935
 30
0.0
 10
109.3406363962019
 20
50.2506360975611
 30
0.0
 10
109.2603860358871
 20
50.12314856753046
 30
0.0
 10
109.1204197594748
 20
49.86151160029488
 30
0.0
 10
109.0605655809216
 20
49.72661181595779
 30
0.0
 10
108.9133370611475
 20
49.32131505288359
 30
0.0
 10
108.8557574008274
 20
49.04785263841487
 30
0.0
 10
108.8350426604262
 20
48.76879156927968
 30
0.0
  0
LINE
  5
81
330
1F
100
AcDbEntity
  8
0
  6
Continuous
 62
     7
370
    25
100
AcDbLine
 10
38.3880470517
 20
65.4628105191
 30
0.0
 11
37.3820196671
 21
65.4628105191
 31
0.0
  0
LINE
  5
82
330
1F
100
AcDbEntity
  8
0
  6
Continuous
 62
     7
370
    25
100
AcDbLine
 10
38.3880470517
 20
62.3861241227
 30
0.0
 11
38.3880470517
 21
65.4628105191
 31
0.0
  0
LINE
  5
83
330
1F
100
AcDbEntity
  8
0
  6
Continuous
 62
     7
370
    25
100
AcDbLine
 10
40.1212177314
 20
54.0669048604
 30
0.0
 11
38.3880470517
 21
62.3861241227
 31
0.0
  0
ARC
  5
84
330
1F
100
AcDbEntity
  8
0
  6
Continuous
 62
     7
370
    25
100
AcDbCircle
 10
43.1332334711
 20
54.6944081396
 30
0.0
 40
3.076686396417777
100
AcDbArc
 50
191.7682889321
 51
269.9999999999
  0
LINE
  5
85
330
1F
100
AcDbEntity
  8
0
  6
Continuous
 62
     7
370
    25
100
AcDbLine
 10
54.0967121175
 20
51.6177217432
 30
0.0
 11
43.1332334711
 21
51.6177217432
 31
0.0
  0
SPLINE
  5
86
330
1F
100
AcDbEntity
  8
0
  6
Continuous
 62
     7
370
    25
100
AcDbSpline
210
0.0
220
0.0
230
1.0
 70
     8
 71
     3
 72
     8
 73
     4
 74
     0
 42
0.00000001
 43
0.00000001
 40
0.0
 40
0.0
 40
0.0
 40
0.0
 40
1.0
 40
1.0
 40
1.0
 40
1.0
 10
54.97234687926556
 20
51.49048664245012
 30
0.0
 10
54.68702997450431
 20
51.57519168582728
 30
0.0
 10
54.39205320809311
 20
51.61772172287147
 30
0.0
 10
54.09671211745154
 20
51.61772174315136
 30
0.0
  0
LINE
  5
87
330
1F
100
AcDbEntity
  8
0
  6
Continuous
 62
     7
370
    25
100
AcDbLine
 10
55.5025136285
 20
42.387662546
 30
0.0
 11
42.0215516708
 21
42.387662546
 31
0.0
  0
LINE
  5
88
330
1F
100
AcDbEntity
  8
0
  6
Continuous
 62
     7
370
    25
100
AcDbLine
 10
110.4974859709
 20
42.387662546
 30
0.0
 11
123.9784479286
 21
42.387662546
 31
0.0
  0
LINE
  5
89
330
1F
100
AcDbEntity
  8
0
  6
Continuous
 62
     7
370
    25
100
AcDbLine
 10
122.8667661283
 20
51.6177217432
 30
0.0
 11
111.903287482
 21
51.6177217432
 31
0.0
  0
ARC
  5
8A
330
1F
100
AcDbEntity
  8
0
  6
Continuous
 62
     7
370
    25
100
AcDbCircle
 10
122.8667661283
 20
54.6944081396
 30
0.0
 40
3.076686396417912
100
AcDbArc
 50
270.0000000001
 51
348.2317110679
  0
LINE
  5
8B
330
1F
100
AcDbEntity
  8
0
  6
Continuous
 62
     7
370
    25
100
AcDbLine
 10
127.6119525477
 20
62.3861241227
 30
0.0
 11
125.8787818681
 21
54.0669048604
 31
0.0
  0
LINE
  5
8C
330
1F
100
AcDbEntity
  8
0
  6
Continuous
 62
     7
370
    25
100
AcDbLine
 10
127.6119525477
 20
62.3861241227
 30
0.0
 11
127.6119525477
 21
65.4628105191
 31
0.0
  0
LINE
  5
8D
330
1F
100
AcDbEntity
  8
0
  6
Continuous
 62
     7
370
    25
100
AcDbLine
 10
128.6179799324
 20
65.4628105191
 30
0.0
 11
127.6119525477
 21
65.4628105191
 31
0.0
  0
SPLINE
  5
8E
330
1F
100
AcDbEntity
  8
0
  6
Continuous
 62
     7
370
    25
100
AcDbSpline
210
0.0
220
0.0
230
1.0
 70
     8
 71
     3
 72
     8
 73
     4
 74
     0
 42
0.00000001
 43
0.00000001
 40
0.0
 40
0.0
 40
0.0
 40
0.0
 40
1.0
 40
1.0
 40
1.0
 40
1.0
 10
111.9032874819743
 20
51.61772174315136
 30
0.0
 10
111.6079465319885
 20
51.61772174315136
 30
0.0
 10
111.3129696929463
 20
51.57519170602254
 30
0.0
 10
111.0276527201601
 20
51.49048664245015
 30
0.0
  0
SPLINE
  5
8F
330
1F
100
AcDbEntity
  8
0
  6
Continuous
 62
     7
370
    25
100
AcDbSpline
210
0.0
220
0.0
230
1.0
 70
     8
 71
     3
 72
    20
 73
    16
 74
     0
 42
0.00000001
 43
0.00000001
 40
0.0
 40
0.0
 40
0.0
 40
0.0
 40
0.0509765259521616
 40
0.1032466681234312
 40
0.1568182518302713
 40
0.2116985440242689
 40
0.2678943023004118
 40
0.3254118189530116
 40
0.3842569606250575
 40
0.4444352040346539
 40
0.5059516682069607
 40
0.6228832482018998
 40
0.7537604575554414
 40
0.8565264345089779
 40
1.0
 40
1.0
 40
1.0
 40
1.0
 10
126.5873834217384
 20
43.83356545676966
 30
0.0
 10
126.5581755521418
 20
43.78838061016373
 30
0.0
 10
126.499018613482
 20
43.69686427446624
 30
0.0
 10
126.400254128466
 20
43.56448431298941
 30
0.0
 10
126.2925673435312
 20
43.43438501384986
 30
0.0
 10
126.1751353444212
 20
43.30780900064873
 30
0.0
 10
126.0480512923277
 20
43.18545712348582
 30
0.0
 10
125.9112328400575
 20
43.06823063785387
 30
0.0
 10
125.7647359017907
 20
42.957024395835
 30
0.0
 10
125.6086665171909
 20
42.85276368182775
 30
0.0
 10
125.3947830572099
 20
42.7282256350194
 30
0.0
 10
125.1044871485859
 20
42.59237251765354
 30
0.0
 10
124.7597646160352
 20
42.48178492517359
 30
0.0
 10
124.3789450418023
 20
42.40394621742305
 30
0.0
 10
124.1258916449004
 20
42.39365740827043
 30
0.0
 10
123.9784479291076
 20
42.38766254603535
 30
0.0
  0
SPLINE
  5
90
330
1F
100
AcDbEntity
  8
0
  6
Continuous
 62
     7
370
    25
100
AcDbSpline
210
0.0
220
0.0
230
1.0
 70
     8
 71
     3
 72
    20
 73
    16
 74
     0
 42
0.00000001
 43
0.00000001
 40
0.0
 40
0.0
 40
0.0
 40
0.0
 40
0.0523854750419287
 40
0.1002425158437351
 40
0.1435709334863672
 40
0.182370573352971
 40
0.2166413219980018
 40
0.2463831192455473
 40
0.3772406023113436
 40
0.494193612256153
 40
0.6039110323280095
 40
0.709315954462572
 40
0.8104405664256695
 40
0.9073213837371124
 40
1.0
 40
1.0
 40
1.0
 40
1.0
 10
42.0215516703181
 20
42.387662546034
 30
0.0
 10
41.96776564606502
 20
42.38847123936355
 30
0.0
 10
41.86484310152298
 20
42.39001871896232
 30
0.0
 10
41.71778449304951
 20
42.40169896428664
 30
0.0
 10
41.58522000605138
 20
42.41786398907713
 30
0.0
 10
41.46717901031194
 20
42.43732350760608
 30
0.0
 10
41.36357510678529
 20
42.45830104430738
 30
0.0
 10
41.16850005577295
 20
42.50436786743382
 30
0.0
 10
40.89550551229548
 20
42.59253601066648
 30
0.0
 10
40.5600404158933
 20
42.74930231134666
 30
0.0
 10
40.26603843641003
 20
42.93025524203577
 30
0.0
 10
40.0053447292094
 20
43.13271926353595
 30
0.0
 10
39.77663937890901
 20
43.35331735720136
 30
0.0
 10
39.57744812215032
 20
43.585427309235
 30
0.0
 10
39.46674191704088
 20
43.75208454118361
 30
0.0
 10
39.41261589594136
 20
43.83356590750741
 30
0.0
  0
SPLINE
  5
91
330
1F
100
AcDbEntity
  8
0
  6
Continuous
 62
     7
370
    25
100
AcDbSpline
210
0.0
220
0.0
230
1.0
 70
     8
 71
     3
 72
    11
 73
     7
 74
     0
 42
0.00000001
 43
0.00000001
 40
0.0
 40
0.0
 40
0.0
 40
0.0
 40
0.246332404765877
 40
0.4950885166353879
 40
0.7463006045041977
 40
1.0
 40
1.0
 40
1.0
 40
1.0
 10
127.0673216979112
 20
44.7276640323668
 30
0.0
 10
127.0319798465856
 20
44.65180210702643
 30
0.0
 10
126.9609484093511
 20
44.4993318377512
 30
0.0
 10
126.8445848742976
 20
44.27476403325961
 30
0.0
 10
126.7209282273877
 20
44.05180449517317
 30
0.0
 10
126.6320443110217
 20
43.90655032116846
 30
0.0
 10
126.5873834217485
 20
43.83356545678654
 30
0.0
  0
SPLINE
  5
92
330
1F
100
AcDbEntity
  8
0
  6
Continuous
 62
     7
370
    25
100
AcDbSpline
210
0.0
220
0.0
230
1.0
 70
     8
 71
     3
 72
     8
 73
     4
 74
     0
 42
0.00000001
 43
0.00000001
 40
0.0
 40
0.0
 40
0.0
 40
0.0
 40
1.0
 40
1.0
 40
1.0
 40
1.0
 10
38.93267790151167
 20
44.72766403236557
 30
0.0
 10
39.07331994081159
 20
44.41793134875573
 30
0.0
 10
39.23416572879266
 20
44.11911532439667
 30
0.0
 10
39.41263605325172
 20
43.83357850735755
 30
0.0
  0
LINE
  5
93
330
1F
100
AcDbEntity
  8
0
  6
Continuous
 62
     7
370
    25
100
AcDbLine
 10
36.7918215534
 20
49.4375479983
 30
0.0
 11
38.9326779015
 21
44.7276640324
 31
0.0
  0
LINE
  5
94
330
1F
100
AcDbEntity
  8
0
  6
Continuous
 62
     7
370
    25
100
AcDbLine
 10
129.2081780461
 20
49.4375479983
 30
0.0
 11
127.0673216979
 21
44.7276640324
 31
0.0
  0
SPLINE
  5
95
330
1F
100
AcDbEntity
  8
0
  6
Continuous
 62
     7
370
    25
100
AcDbSpline
210
0.0
220
0.0
230
1.0
 70
    24
 71
     3
 72
    22
 73
    18
 74
     0
 42
0.00000001
 43
0.00000001
 40
0.0
 40
0.0
 40
0.0
 40
0.0
 40
0.125
 40
0.125
 40
0.25
 40
0.25
 40
0.375
 40
0.375
 40
0.5
 40
0.5
 40
0.625
 40
0.625
 40
0.75
 40
0.75
 40
0.875
 40
0.875
 40
1.0
 40
1.0
 40
1.0
 40
1.0
 10
66.18651199070247
 20
45.46434894244759
 30
0.0
 10
67.14199076829058
 20
45.46434894244759
 30
0.0
 10
68.23983081998954
 20
45.46434894244759
 30
0.0
 10
70.6973537941383
 20
45.4643489424476
 30
0.0
 10
72.05707095474256
 20
45.4643489424476
 30
0.0
 10
74.97178294324753
 20
45.46434894244759
 30
0.0
 10
76.5262774891948
 20
45.4643489424476
 30
0.0
 10
79.72607004592638
 20
45.4643489424476
 30
0.0
 10
81.37047142406946
 20
45.46434894244761
 30
0.0
 10
84.6295281753566
 20
45.4643489424476
 30
0.0
 10
86.27392955349968
 20
45.4643489424476
 30
0.0
 10
89.47372211023122
 20
45.46434894244759
 30
0.0
 10
91.02821665617847
 20
45.4643489424476
 30
0.0
 10
93.9429286446834
 20
45.46434894244759
 30
0.0
 10
95.30264580528765
 20
45.46434894244759
 30
0.0
 10
97.76016877943636
 20
45.46434894244759
 30
0.0
 10
98.85800883113531
 20
45.46434894244759
 30
0.0
 10
99.81348760872339
 20
45.46434894244759
 30
0.0
  0
SPLINE
  5
96
330
1F
100
AcDbEntity
  8
0
  6
Continuous
 62
     7
370
    25
100
AcDbSpline
210
0.0
220
0.0
230
1.0
 70
     8
 71
     3
 72
    14
 73
    10
 74
     0
 42
0.00000001
 43
0.00000001
 40
0.0
 40
0.0
 40
0.0
 40
0.0
 40
0.2499999999999999
 40
0.2499999999999999
 40
0.4999999999999999
 40
0.4999999999999999
 40
0.7499999999999998
 40
0.7499999999999998
 40
1.0
 40
1.0
 40
1.0
 40
1.0
 10
67.11418656038342
 20
42.38766254603421
 30
0.0
 10
68.09969633828895
 20
42.38766254603421
 30
0.0
 10
69.20568505830182
 20
42.38766254603421
 30
0.0
 10
71.61064222058152
 20
42.38766254603421
 30
0.0
 10
72.90940113096933
 20
42.38766254603421
 30
0.0
 10
75.6388969633226
 20
42.38766254603421
 30
0.0
 10
77.07008420134329
 20
42.38766254603422
 30
0.0
 10
80.0012098586726
 20
42.38766254603421
 30
0.0
 10
81.50066712964473
 20
42.38766254697624
 30
0.0
 10
82.99999757553306
 20
42.38766254603421
 30
0.0
  0
SPLINE
  5
97
330
1F
100
AcDbEntity
  8
0
  6
Continuous
 62
     7
370
    25
100
AcDbSpline
210
0.0
220
0.0
230
1.0
 70
     8
 71
     3
 72
    14
 73
    10
 74
     0
 42
0.00000001
 43
0.00000001
 40
0.0
 40
0.0
 40
0.0
 40
0.0
 40
0.2500000000000001
 40
0.2500000000000001
 40
0.5000000000000001
 40
0.5000000000000001
 40
0.7500000000000001
 40
0.7500000000000001
 40
1.0
 40
1.0
 40
1.0
 40
1.0
 10
82.99999979971624
 20
42.38766254603421
 30
0.0
 10
84.4993308931761
 20
42.3876625477883
 30
0.0
 10
85.99878916730444
 20
42.38766254603421
 30
0.0
 10
88.92991505262331
 20
42.38766254603422
 30
0.0
 10
90.36110230548405
 20
42.38766254603421
 30
0.0
 10
93.09059847243017
 20
42.38766254603421
 30
0.0
 10
94.3893575862454
 20
42.38766254603421
 30
0.0
 10
96.79431481411962
 20
42.38766254603422
 30
0.0
 10
97.90030338299057
 20
42.38766254603422
 30
0.0
 10
98.88581303905505
 20
42.38766254603421
 30
0.0
  0
LINE
  5
98
330
1F
100
AcDbEntity
  8
0
  6
Continuous
 62
     7
370
    25
100
AcDbLine
 10
38.3880470517
 20
71.616183312
 30
0.0
 11
37.3820196671
 21
71.616183312
 31
0.0
  0
LINE
  5
99
330
1F
100
AcDbEntity
  8
0
  6
Continuous
 62
     7
370
    25
100
AcDbLine
 10
37.3820196671
 20
67.7703253164
 30
0.0
 11
38.3880470517
 21
67.7703253164
 31
0.0
  0
LINE
  5
9A
330
1F
100
AcDbEntity
  8
0
  6
Continuous
 62
     7
370
    25
100
AcDbLine
 10
38.3880470517
 20
67.7703253164
 30
0.0
 11
38.3880470517
 21
71.616183312
 31
0.0
  0
LINE
  5
9B
330
1F
100
AcDbEntity
  8
0
  6
Continuous
 62
     7
370
    25
100
AcDbLine
 10
127.6119525477
 20
71.616183312
 30
0.0
 11
127.6119525477
 21
67.7703253164
 31
0.0
  0
LINE
  5
9C
330
1F
100
AcDbEntity
  8
0
  6
Continuous
 62
     7
370
    25
100
AcDbLine
 10
127.6119525477
 20
67.7703253164
 30
0.0
 11
128.6179799324
 21
67.7703253164
 31
0.0
  0
LINE
  5
9D
330
1F
100
AcDbEntity
  8
0
  6
Continuous
 62
     7
370
    25
100
AcDbLine
 10
128.6179799324
 20
71.616183312
 30
0.0
 11
127.6119525477
 21
71.616183312
 31
0.0
  0
LINE
  5
9E
330
1F
100
AcDbEntity
  8
0
  6
Continuous
 62
     7
370
    25
100
AcDbLine
 10
132.9961537414
 20
62.3861241227
 30
0.0
 11
132.9961537414
 21
59.4371909349
 31
0.0
  0
LINE
  5
9F
330
1F
100
AcDbEntity
  8
0
  6
Continuous
 62
     7
370
    25
100
AcDbLine
 10
129.919467345
 20
67.7703253164
 30
0.0
 11
129.919467345
 21
65.4628105191
 31
0.0
  0
SPLINE
  5
A0
330
1F
100
AcDbEntity
  8
0
  6
Continuous
 62
     7
370
    25
100
AcDbSpline
210
0.0
220
0.0
230
1.0
 70
     8
 71
     3
 72
    20
 73
    16
 74
     0
 42
0.00000001
 43
0.00000001
 40
0.0
 40
0.0
 40
0.0
 40
0.0
 40
0.1249999999999998
 40
0.1249999999999998
 40
0.2499999999999996
 40
0.2499999999999996
 40
0.3749999999999994
 40
0.3749999999999994
 40
0.4999999999999992
 40
0.4999999999999992
 40
0.7499999999999996
 40
0.7499999999999996
 40
0.8749999999999998
 40
0.8749999999999998
 40
1.0
 40
1.0
 40
1.0
 40
1.0
 10
129.9194673450168
 20
71.61618331195845
 30
0.0
 10
130.1852328385808
 20
71.61618331195822
 30
0.0
 10
130.4326255853904
 20
71.58244083631499
 30
0.0
 10
130.8952778943984
 20
71.46706123701217
 30
0.0
 10
131.1119914622895
 20
71.38412750169704
 30
0.0
 10
131.5031908974805
 20
71.18635479826526
 30
0.0
 10
131.6791031498167
 20
71.07149059091091
 30
0.0
 10
131.9968930117487
 20
70.81800799447986
 30
0.0
 10
132.1392408586293
 20
70.67866954735607
 30
0.0
 10
132.5150847429935
 20
70.23613735459644
 30
0.0
 10
132.6946642836525
 20
69.91477084411058
 30
0.0
 10
132.8753822771987
 20
69.41147191908658
 30
0.0
 10
132.9205640680704
 20
69.2399987096494
 30
0.0
 10
132.981069322543
 20
68.89145946450988
 30
0.0
 10
132.9961537414289
 20
68.7144398492598
 30
0.0
 10
132.9961537414289
 20
68.5394969155454
 30
0.0
  0
LINE
  5
A1
330
1F
100
AcDbEntity
  8
0
  6
Continuous
 62
     7
370
    25
100
AcDbLine
 10
132.9961537414
 20
68.5394969155
 30
0.0
 11
132.9961537414
 21
65.4628105191
 31
0.0
  0
LINE
  5
A2
330
1F
100
AcDbEntity
  8
0
  6
Continuous
 62
     7
370
    25
100
AcDbLine
 10
132.9961537414
 20
62.3861241227
 30
0.0
 11
132.9961537414
 21
65.4628105191
 31
0.0
  0
LINE
  5
A3
330
1F
100
AcDbEntity
  8
0
  6
Continuous
 62
     7
370
    25
100
AcDbLine
 10
129.919467345
 20
65.4628105191
 30
0.0
 11
128.6179799324
 21
65.4628105191
 31
0.0
  0
LINE
  5
A4
330
1F
100
AcDbEntity
  8
0
  6
Continuous
 62
     7
370
    25
100
AcDbLine
 10
128.6179799324
 20
67.7703253164
 30
0.0
 11
129.919467345
 21
67.7703253164
 31
0.0
  0
SPLINE
  5
A5
330
1F
100
AcDbEntity
  8
0
  6
Continuous
 62
     7
370
    25
100
AcDbSpline
210
0.0
220
0.0
230
1.0
 70
    24
 71
     3
 72
     8
 73
     4
 74
     0
 42
0.00000001
 43
0.00000001
 40
0.0
 40
0.0
 40
0.0
 40
0.0
 40
1.0
 40
1.0
 40
1.0
 40
1.0
 10
129.9194673450168
 20
71.61618331196128
 30
0.0
 10
129.5137441810851
 20
71.61618331196128
 30
0.0
 10
129.0756610199891
 20
71.61618331196128
 30
0.0
 10
128.6179799323606
 20
71.61618331196128
 30
0.0
  0
LINE
  5
A6
330
1F
100
AcDbEntity
  8
0
  6
Continuous
 62
     7
370
    25
100
AcDbLine
 10
33.003845858
 20
62.3861241227
 30
0.0
 11
33.003845858
 21
59.4371909349
 31
0.0
  0
LINE
  5
A7
330
1F
100
AcDbEntity
  8
0
  6
Continuous
 62
     7
370
    25
100
AcDbLine
 10
33.003845858
 20
62.3861241227
 30
0.0
 11
33.003845858
 21
65.4628105191
 31
0.0
  0
LINE
  5
A8
330
1F
100
AcDbEntity
  8
0
  6
Continuous
 62
     7
370
    25
100
AcDbLine
 10
33.003845858
 20
68.5394969155
 30
0.0
 11
33.003845858
 21
65.4628105191
 31
0.0
  0
SPLINE
  5
A9
330
1F
100
AcDbEntity
  8
0
  6
Continuous
 62
     7
370
    25
100
AcDbSpline
210
0.0
220
0.0
230
1.0
 70
     8
 71
     3
 72
    20
 73
    16
 74
     0
 42
0.00000001
 43
0.00000001
 40
0.0
 40
0.0
 40
0.0
 40
0.0
 40
0.1249999999999998
 40
0.1249999999999998
 40
0.2499999999999997
 40
0.2499999999999997
 40
0.3749999999999995
 40
0.3749999999999995
 40
0.4999999999999993
 40
0.4999999999999993
 40
0.7499999999999994
 40
0.7499999999999994
 40
0.8749999999999997
 40
0.8749999999999997
 40
1.0
 40
1.0
 40
1.0
 40
1.0
 10
36.08053225440889
 20
71.61618331195847
 30
0.0
 10
35.81476676084492
 20
71.61618331195824
 30
0.0
 10
35.56737401403531
 20
71.582440836315
 30
0.0
 10
35.10472170502729
 20
71.46706123701217
 30
0.0
 10
34.88800813713623
 20
71.38412750169704
 30
0.0
 10
34.49680870194514
 20
71.18635479826527
 30
0.0
 10
34.32089644960902
 20
71.07149059091093
 30
0.0
 10
34.00310658767701
 20
70.81800799447987
 30
0.0
 10
33.86075874079643
 20
70.67866954735607
 30
0.0
 10
33.48491485643217
 20
70.23613735459644
 30
0.0
 10
33.30533531577322
 20
69.91477084411059
 30
0.0
 10
33.12461732222703
 20
69.41147191908658
 30
0.0
 10
33.07943553135529
 20
69.2399987096494
 30
0.0
 10
33.01893027688269
 20
68.89145946450986
 30
0.0
 10
33.00384585799678
 20
68.7144398492334
 30
0.0
 10
33.00384585799677
 20
68.53949691554544
 30
0.0
  0
LINE
  5
AA
330
1F
100
AcDbEntity
  8
0
  6
Continuous
 62
     7
370
    25
100
AcDbLine
 10
36.0805322544
 20
65.4628105191
 30
0.0
 11
36.0805322544
 21
67.7703253164
 31
0.0
  0
SPLINE
  5
AB
330
1F
100
AcDbEntity
  8
0
  6
Continuous
 62
     7
370
    25
100
AcDbSpline
210
0.0
220
0.0
230
1.0
 70
    24
 71
     3
 72
     8
 73
     4
 74
     0
 42
0.00000001
 43
0.00000001
 40
0.0
 40
0.0
 40
0.0
 40
0.0
 40
1.0
 40
1.0
 40
1.0
 40
1.0
 10
37.38201966706527
 20
71.61618331196128
 30
0.0
 10
36.92433837227292
 20
71.6161833119613
 30
0.0
 10
36.48625521108224
 20
71.6161833119613
 30
0.0
 10
36.0805322544089
 20
71.61618331196128
 30
0.0
  0
LINE
  5
AC
330
1F
100
AcDbEntity
  8
0
  6
Continuous
 62
     7
370
    25
100
AcDbLine
 10
36.0805322544
 20
67.7703253164
 30
0.0
 11
37.3820196671
 21
67.7703253164
 31
0.0
  0
LINE
  5
AD
330
1F
100
AcDbEntity
  8
0
  6
Continuous
 62
     7
370
    25
100
AcDbLine
 10
37.3820196671
 20
65.4628105191
 30
0.0
 11
36.0805322544
 21
65.4628105191
 31
0.0
  0
SPLINE
  5
AE
330
1F
100
AcDbEntity
  8
0
  6
Continuous
 62
     7
370
    25
100
AcDbSpline
210
0.0
220
0.0
230
1.0
 70
    24
 71
     3
 72
    12
 73
     8
 74
     0
 42
0.00000001
 43
0.00000001
 40
0.0
 40
0.0
 40
0.0
 40
0.0
 40
0.4999999999999996
 40
0.4999999999999996
 40
0.7499999999999998
 40
0.7499999999999998
 40
1.0
 40
1.0
 40
1.0
 40
1.0
 10
129.2081780460744
 20
49.43754799831829
 30
0.0
 10
129.7635938102113
 20
50.65946267941958
 30
0.0
 10
130.3136363507329
 20
51.86955626856722
 30
0.0
 10
131.1062040126605
 20
53.61320512480786
 30
0.0
 10
131.3650196315253
 20
54.18259948631021
 30
0.0
 10
131.8599845477921
 20
55.27152230209738
 30
0.0
 10
132.0965870198662
 20
55.79204774066063
 30
0.0
 10
132.3067181427966
 20
56.25433621110727
 30
0.0
  0
SPLINE
  5
AF
330
1F
100
AcDbEntity
  8
0
  6
Continuous
 62
     7
370
    25
100
AcDbSpline
210
0.0
220
0.0
230
1.0
 70
    24
 71
     3
 72
    12
 73
     8
 74
     0
 42
0.00000001
 43
0.00000001
 40
0.0
 40
0.0
 40
0.0
 40
0.0
 40
0.5000000000000004
 40
0.5000000000000004
 40
0.7500000000000002
 40
0.7500000000000002
 40
1.0
 40
1.0
 40
1.0
 40
1.0
 10
36.7918215533514
 20
49.43754799831819
 30
0.0
 10
36.23640578920497
 20
50.65946267944027
 30
0.0
 10
35.68636324873007
 20
51.86955626848508
 30
0.0
 10
34.89379558668158
 20
53.6132051249918
 30
0.0
 10
34.63497996817498
 20
54.18259948570629
 30
0.0
 10
34.14001505131885
 20
55.27152230278976
 30
0.0
 10
33.90341258005223
 20
55.79204773957639
 30
0.0
 10
33.69328145662912
 20
56.25433621110727
 30
0.0
  0
LINE
  5
B0
330
1F
100
AcDbEntity
  8
0
  6
Continuous
 62
     7
370
    25
100
AcDbLine
 10
104.2115714909
 20
45.4643489424
 30
0.0
 11
108.7728771867
 21
45.4643489424
 31
0.0
  0
LINE
  5
B1
330
1F
100
AcDbEntity
  8
0
  6
Continuous
 62
     7
370
    25
100
AcDbLine
 10
57.1915270361
 20
45.4643489424
 30
0.0
 11
61.7884281085
 21
45.4643489424
 31
0.0
  0
SPLINE
  5
B2
330
1F
100
AcDbEntity
  8
0
  6
Continuous
 62
     7
370
    25
100
AcDbSpline
210
0.0
220
0.0
230
1.0
 70
    24
 71
     3
 72
    13
 73
     9
 74
     0
 42
0.00000001
 43
0.00000001
 40
0.0
 40
0.0
 40
0.0
 40
0.0
 40
0.25
 40
0.25
 40
0.5
 40
0.75
 40
0.75
 40
1.0
 40
1.0
 40
1.0
 40
1.0
 10
110.0572756443072
 20
42.38766254603421
 30
0.0
 10
110.057552588454
 20
42.38766254603421
 30
0.0
 10
109.9054827070563
 20
42.38766254603421
 30
0.0
 10
109.3194698149365
 20
42.38766254603421
 30
0.0
 10
108.4531363501872
 20
42.38766254603421
 30
0.0
 10
107.1554863689832
 20
42.38766254603422
 30
0.0
 10
105.741847282956
 20
42.38766254603421
 30
0.0
 10
104.9767195691952
 20
42.38766254603421
 30
0.0
 10
104.2115714909361
 20
42.38766254603421
 30
0.0
  0
SPLINE
  5
B3
330
1F
100
AcDbEntity
  8
0
  6
Continuous
 62
     7
370
    25
100
AcDbSpline
210
0.0
220
0.0
230
1.0
 70
    24
 71
     3
 72
    13
 73
     9
 74
     0
 42
0.00000001
 43
0.00000001
 40
0.0
 40
0.0
 40
0.0
 40
0.0
 40
0.25
 40
0.25
 40
0.5
 40
0.75
 40
0.75
 40
1.0
 40
1.0
 40
1.0
 40
1.0
 10
61.78842810848943
 20
42.38766254603421
 30
0.0
 10
61.02328003023047
 20
42.38766254603421
 30
0.0
 10
60.25815231646961
 20
42.38766254603421
 30
0.0
 10
58.84451323044248
 20
42.38766254603421
 30
0.0
 10
57.54686324923868
 20
42.38766254603422
 30
0.0
 10
56.68052978448915
 20
42.38766254603421
 30
0.0
 10
56.09451689236936
 20
42.38766254603421
 30
0.0
 10
55.94244701097148
 20
42.38766254603422
 30
0.0
 10
55.9427239551185
 20
42.38766254603421
 30
0.0
  0
SPLINE
  5
B4
330
1F
100
AcDbEntity
  8
0
  6
Continuous
 62
     7
370
    25
100
AcDbSpline
210
0.0
220
0.0
230
1.0
 70
     8
 71
     3
 72
    19
 73
    15
 74
     0
 42
0.00000001
 43
0.00000001
 40
0.0
 40
0.0
 40
0.0
 40
0.0
 40
0.0807311312342639
 40
0.1562183948645248
 40
0.2264617908533184
 40
0.2914613355495684
 40
0.3512170661706852
 40
0.4057290474403342
 40
0.4549973817581645
 40
0.4990222254252613
 40
0.6357108773544677
 40
0.764764262195009
 40
0.8861906470703486
 40
1.0
 40
1.0
 40
1.0
 40
1.0
 10
132.9961537414078
 20
59.43719093492994
 30
0.0
 10
132.995301542833
 20
59.34995287446291
 30
0.0
 10
132.9936524999987
 20
59.1811432768653
 30
0.0
 10
132.9809667495622
 20
58.93650872104705
 30
0.0
 10
132.9626944835618
 20
58.70916953359588
 30
0.0
 10
132.9396389564097
 20
58.49919396883158
 30
0.0
 10
132.9133666099638
 20
58.30659315883941
 30
0.0
 10
132.8851182602114
 20
58.13131584386053
 30
0.0
 10
132.8560736075465
 20
57.97327684823211
 30
0.0
 10
132.8059185609835
 20
57.72785788021703
 30
0.0
 10
132.7254825325673
 20
57.39865498656687
 30
0.0
 10
132.6005515048297
 20
56.99129592195517
 30
0.0
 10
132.4630616628181
 20
56.61193392442771
 30
0.0
 10
132.3576953813127
 20
56.37093422507392
 30
0.0
 10
132.3067181427747
 20
56.25433621111725
 30
0.0
  0
SPLINE
  5
B5
330
1F
100
AcDbEntity
  8
0
  6
Continuous
 62
     7
370
    25
100
AcDbSpline
210
0.0
220
0.0
230
1.0
 70
     8
 71
     3
 72
    16
 73
    12
 74
     0
 42
0.00000001
 43
0.00000001
 40
0.0
 40
0.0
 40
0.0
 40
0.0
 40
0.0750289894382657
 40
0.1534435457965722
 40
0.235246940975924
 40
0.3204420535053842
 40
0.4090314283710624
 40
0.5010173259143852
 40
0.6300547030761451
 40
0.796383608715239
 40
1.0
 40
1.0
 40
1.0
 40
1.0
 10
33.69328145665104
 20
56.25433621111725
 30
0.0
 10
33.65926956903787
 20
56.3310927122367
 30
0.0
 10
33.58971106007126
 20
56.48806923268415
 30
0.0
 10
33.49395044003069
 20
56.73140861975924
 30
0.0
 10
33.40269557556422
 20
56.9871767501816
 30
0.0
 10
33.31785746248987
 20
57.25562114605778
 30
0.0
 10
33.24039252478008
 20
57.53663928728039
 30
0.0
 10
33.16304970270656
 20
57.86599829080065
 30
0.0
 10
33.08665814821868
 20
58.28012708233012
 30
0.0
 10
33.01896394270072
 20
58.81717675507059
 30
0.0
 10
33.00921283058515
 20
59.21708374777754
 30
0.0
 10
33.00384585801789
 20
59.43719093492552
 30
0.0
  0
SPLINE
  5
B6
330
1F
100
AcDbEntity
  8
0
  6
Continuous
 62
     7
370
    25
100
AcDbSpline
210
0.0
220
0.0
230
1.0
 70
    24
 71
     3
 72
    14
 73
    10
 74
     0
 42
0.00000001
 43
0.00000001
 40
0.0
 40
0.0
 40
0.0
 40
0.0
 40
0.25
 40
0.25
 40
0.5
 40
0.5
 40
0.75
 40
0.75
 40
1.0
 40
1.0
 40
1.0
 40
1.0
 10
99.81348760872339
 20
45.46434894244759
 30
0.0
 10
100.0227661187452
 20
45.46434894244759
 30
0.0
 10
100.2619628199803
 20
45.46434894244759
 30
0.0
 10
100.7895366146802
 20
45.4643489424476
 30
0.0
 10
101.077830274491
 20
45.4643489424476
 30
0.0
 10
101.6848426689109
 20
45.4643489424476
 30
0.0
 10
102.0033978111011
 20
45.46434894244759
 30
0.0
 10
102.6478977774168
 20
45.46434894244759
 30
0.0
 10
102.9736729610031
 20
45.46434894244759
 30
0.0
 10
103.2921402588636
 20
45.46434894244759
 30
0.0
  0
SPLINE
  5
B7
330
1F
100
AcDbEntity
  8
0
  6
Continuous
 62
     7
370
    25
100
AcDbSpline
210
0.0
220
0.0
230
1.0
 70
    24
 71
     3
 72
    14
 73
    10
 74
     0
 42
0.00000001
 43
0.00000001
 40
0.0
 40
0.0
 40
0.0
 40
0.0
 40
0.25
 40
0.25
 40
0.5
 40
0.5
 40
0.75
 40
0.75
 40
1.0
 40
1.0
 40
1.0
 40
1.0
 10
62.70785934056231
 20
45.46434894244759
 30
0.0
 10
63.02632663842275
 20
45.46434894244748
 30
0.0
 10
63.3521018220092
 20
45.46434894244739
 30
0.0
 10
63.9966017883249
 20
45.46434894244727
 30
0.0
 10
64.31515693051507
 20
45.46434894244724
 30
0.0
 10
64.92216932493491
 20
45.46434894244724
 30
0.0
 10
65.21046298474579
 20
45.46434894244727
 30
0.0
 10
65.73803677944562
 20
45.46434894244739
 30
0.0
 10
65.97723348068067
 20
45.46434894244748
 30
0.0
 10
66.18651199070247
 20
45.46434894244759
 30
0.0
  0
SPLINE
  5
B8
330
1F
100
AcDbEntity
  8
0
  6
Continuous
 62
     7
370
    25
100
AcDbSpline
210
0.0
220
0.0
230
1.0
 70
    24
 71
     3
 72
     8
 73
     4
 74
     0
 42
0.00000001
 43
0.00000001
 40
0.0
 40
0.0
 40
0.0
 40
0.0
 40
1.0
 40
1.0
 40
1.0
 40
1.0
 10
103.2921402593261
 20
42.38766254603421
 30
0.0
 10
101.6252821728333
 20
42.38766254603421
 30
0.0
 10
99.97476887399642
 20
42.38766254603421
 30
0.0
 10
98.88581303905505
 20
42.38766254603421
 30
0.0
  0
SPLINE
  5
B9
330
1F
100
AcDbEntity
  8
0
  6
Continuous
 62
     7
370
    25
100
AcDbSpline
210
0.0
220
0.0
230
1.0
 70
    24
 71
     3
 72
     8
 73
     4
 74
     0
 42
0.00000001
 43
0.00000001
 40
0.0
 40
0.0
 40
0.0
 40
0.0
 40
1.0
 40
1.0
 40
1.0
 40
1.0
 10
67.11418656038342
 20
42.38766254603421
 30
0.0
 10
66.0252307254293
 20
42.38766254603421
 30
0.0
 10
64.37471742659247
 20
42.38766254603421
 30
0.0
 10
62.70785934009957
 20
42.38766254603421
 30
0.0
  0
LINE
  5
BA
330
1F
100
AcDbEntity
  8
0
  6
Continuous
 62
     7
370
    25
100
AcDbLine
 10
104.2115714909
 20
42.387662546
 30
0.0
 11
103.2921402593
 21
42.387662546
 31
0.0
  0
LINE
  5
BB
330
1F
100
AcDbEntity
  8
0
  6
Continuous
 62
     7
370
    25
100
AcDbLine
 10
103.2921402589
 20
45.4643489424
 30
0.0
 11
104.2115714909
 21
45.4643489424
 31
0.0
  0
LINE
  5
BC
330
1F
100
AcDbEntity
  8
0
  6
Continuous
 62
     7
370
    25
100
AcDbLine
 10
62.7078593401
 20
42.387662546
 30
0.0
 11
61.7884281085
 21
42.387662546
 31
0.0
  0
LINE
  5
BD
330
1F
100
AcDbEntity
  8
0
  6
Continuous
 62
     7
370
    25
100
AcDbLine
 10
61.7884281085
 20
45.4643489424
 30
0.0
 11
62.7078593406
 21
45.4643489424
 31
0.0
  0
LINE
  5
BE
330
1F
100
AcDbEntity
  8
0
  6
HIDDEN
 62
     7
370
    18
100
AcDbLine
 10
121.4585797549
 20
45.4643489424
 30
0.0
 11
108.8350925918
 21
45.4643489424
 31
0.0
  0
LINE
  5
BF
330
1F
100
AcDbEntity
  8
0
  6
HIDDEN
 62
     7
370
    18
100
AcDbLine
 10
121.4585797549
 20
51.6177217432
 30
0.0
 11
121.4585797549
 21
45.4643489424
 31
0.0
  0
LINE
  5
C0
330
1F
100
AcDbEntity
  8
0
  6
HIDDEN
 62
     7
370
    18
100
AcDbLine
 10
44.5414198445
 20
45.4643489424
 30
0.0
 11
44.5414198445
 21
51.6177217432
 31
0.0
  0
SPLINE
  5
C1
330
1F
100
AcDbEntity
  8
0
  6
HIDDEN
 62
     7
370
    18
100
AcDbSpline
210
0.0
220
0.0
230
1.0
 70
    24
 71
     3
 72
    24
 73
    20
 74
     0
 42
0.00000001
 43
0.00000001
 40
0.0
 40
0.0
 40
0.0
 40
0.0
 40
0.001953125
 40
0.001953125
 40
0.00390625
 40
0.0078124999999999
 40
0.015625
 40
0.0312499999999999
 40
0.0624999999999999
 40
0.0624999999999999
 40
0.1249999999999999
 40
0.1249999999999999
 40
0.2499999999999999
 40
0.2499999999999999
 40
0.4999999999999998
 40
0.4999999999999998
 40
0.7499999999999997
 40
0.7499999999999997
 40
1.0
 40
1.0
 40
1.0
 40
1.0
 10
44.54141984454578
 20
45.46434894244759
 30
0.0
 10
44.54141971857573
 20
45.46434894244764
 30
0.0
 10
44.54143557924539
 20
45.46434894244759
 30
0.0
 10
44.54149950105638
 20
45.46434894244759
 30
0.0
 10
44.54164358721617
 20
45.4643489424476
 30
0.0
 10
44.54231754776791
 20
45.46434894244761
 30
0.0
 10
44.54501916097919
 20
45.4643489424476
 30
0.0
 10
44.55585793504947
 20
45.46434894244759
 30
0.0
 10
44.57453614828692
 20
45.46434894244759
 30
0.0
 10
44.62457593580037
 20
45.46434894244761
 30
0.0
 10
44.6748549555158
 20
45.4643489424476
 30
0.0
 10
44.87750056082307
 20
45.46434894244761
 30
0.0
 10
45.08181766928251
 20
45.46434894244761
 30
0.0
 10
45.9060017686745
 20
45.46434894244761
 30
0.0
 10
46.73949338190467
 20
45.46434894244761
 30
0.0
 10
48.93763791166245
 20
45.46434894244761
 30
0.0
 10
50.30175184413563
 20
45.46434894244761
 30
0.0
 10
53.45417329316194
 20
45.4643489424476
 30
0.0
 10
55.2413669378783
 20
45.4643489424476
 30
0.0
 10
57.1649328544114
 20
45.46434894244759
 30
0.0
  0
LWPOLYLINE
  5
C2
330
1F
100
AcDbEntity
  8
0
  6
HIDDEN
 62
     7
370
    18
100
AcDbPolyline
 90
        2
 70
   128
 43
0.0
 10
55.9427239551
 20
42.387662546
 10
55.9427239551
 20
42.387662546
  0
LWPOLYLINE
  5
C3
330
1F
100
AcDbEntity
  8
0
  6
HIDDEN
 62
     7
370
    18
100
AcDbPolyline
 90
        2
 70
   128
 43
0.0
 10
57.1733985139
 20
43.6183371046
 10
57.1733985139
 20
43.6183371046
  0
LWPOLYLINE
  5
C4
330
1F
100
AcDbEntity
  8
0
  6
HIDDEN
 62
     7
370
    18
100
AcDbPolyline
 90
        2
 70
   128
 43
0.0
 10
108.8266010856
 20
43.6183371046
 10
108.8266010856
 20
43.6183371046
  0
LWPOLYLINE
  5
C5
330
1F
100
AcDbEntity
  8
0
  6
HIDDEN
 62
     7
370
    18
100
AcDbPolyline
 90
        2
 70
   128
 43
0.0
 10
110.0572756441
 20
42.387662546
 10
110.0572756441
 20
42.387662546
  0
LWPOLYLINE
  5
C6
330
1F
100
AcDbEntity
  8
0
  6
HIDDEN
 62
     7
370
    18
100
AcDbPolyline
 90
        2
 70
   128
 43
0.0
 10
122.8667661283
 20
51.6177217432
 10
122.8667661283
 20
51.6177217432
  0
LWPOLYLINE
  5
C7
330
1F
100
AcDbEntity
  8
0
  6
HIDDEN
 62
     7
370
    18
100
AcDbPolyline
 90
        2
 70
   128
 43
0.0
 10
43.1332334711
 20
51.6177217432
 10
43.1332334711
 20
51.6177217432
  0
LWPOLYLINE
  5
C8
330
1F
100
AcDbEntity
  8
0
  6
HIDDEN
 62
     7
370
    18
100
AcDbPolyline
 90
        2
 70
   128
 43
0.0
 10
125.8787818681
 20
54.0669048604
 10
125.8787818681
 20
54.0669048604
  0
LWPOLYLINE
  5
C9
330
1F
100
AcDbEntity
  8
0
  6
HIDDEN
 62
     7
370
    18
100
AcDbPolyline
 90
        2
 70
   128
 43
0.0
 10
40.1212177314
 20
54.0669048604
 10
40.1212177314
 20
54.0669048604
  0
LWPOLYLINE
  5
CA
330
1F
100
AcDbEntity
  8
0
  6
HIDDEN
 62
     7
370
    18
100
AcDbPolyline
 90
        2
 70
   128
 43
0.0
 10
123.9784479291
 20
42.387662546
 10
123.9784479291
 20
42.387662546
  0
LWPOLYLINE
  5
CB
330
1F
100
AcDbEntity
  8
0
  6
HIDDEN
 62
     7
370
    18
100
AcDbPolyline
 90
        2
 70
   128
 43
0.0
 10
42.0215516708
 20
42.387662546
 10
42.0215516708
 20
42.387662546
  0
LINE
  5
CC
330
1F
100
AcDbEntity
  8
0
  6
HIDDEN
 62
     7
370
    18
100
AcDbLine
 10
39.4126149474
 20
43.8335684169
 30
0.0
 11
39.4126139213
 21
43.8335690666
 31
0.0
  0
LWPOLYLINE
  5
CD
330
1F
100
AcDbEntity
  8
0
  6
HIDDEN
 62
     7
370
    18
100
AcDbPolyline
 90
        2
 70
   128
 43
0.0
 10
38.9326779015
 20
44.7276640324
 10
38.9326779015
 20
44.7276640324
  0
LWPOLYLINE
  5
CE
330
1F
100
AcDbEntity
  8
0
  6
HIDDEN
 62
     7
370
    18
100
AcDbPolyline
 90
        2
 70
   128
 43
0.0
 10
127.0673216979
 20
44.7276640324
 10
127.0673216979
 20
44.7276640324
  0
LWPOLYLINE
  5
CF
330
1F
100
AcDbEntity
  8
0
  6
HIDDEN
 62
     7
370
    18
100
AcDbPolyline
 90
        2
 70
   128
 43
0.0
 10
129.919467345
 20
71.616183312
 10
129.919467345
 20
71.616183312
  0
LWPOLYLINE
  5
D0
330
1F
100
AcDbEntity
  8
0
  6
HIDDEN
 62
     7
370
    18
100
AcDbPolyline
 90
        2
 70
   128
 43
0.0
 10
36.0805322544
 20
71.616183312
 10
36.0805322544
 20
71.616183312
  0
LWPOLYLINE
  5
D1
330
1F
100
AcDbEntity
  8
0
  6
HIDDEN
 62
     7
370
    18
100
AcDbPolyline
 90
        2
 70
   128
 43
0.0
 10
132.3067181428
 20
56.2543362111
 10
132.3067181428
 20
56.2543362111
  0
LWPOLYLINE
  5
D2
330
1F
100
AcDbEntity
  8
0
  6
HIDDEN
 62
     7
370
    18
100
AcDbPolyline
 90
        2
 70
   128
 43
0.0
 10
33.6932814566
 20
56.2543362111
 10
33.6932814566
 20
56.2543362111
  0
LINE
  5
D3
330
1F
100
AcDbEntity
  8
0
  6
HIDDEN
 62
     7
370
    18
100
AcDbLine
 10
70.3086684145
 20
43.9260057442
 30
0.0
 11
68.7703251942
 21
42.387662546
 31
0.0
  0
LINE
  5
D4
330
1F
100
AcDbEntity
  8
0
  6
HIDDEN
 62
     7
370
    18
100
AcDbLine
 10
95.6913311849
 20
43.9260057442
 30
0.0
 11
97.2296743942
 21
42.387662546
 31
0.0
  0
SPLINE
  5
D5
330
1F
100
AcDbEntity
  8
0
  6
HIDDEN
 62
     7
370
    18
100
AcDbSpline
210
0.0
220
0.0
230
1.0
 70
     8
 71
     3
 72
    52
 73
    48
 74
     0
 42
0.00000001
 43
0.00000001
 40
0.0
 40
0.0
 40
0.0
 40
0.0
 40
0.0624999999999999
 40
0.0624999999999999
 40
0.0937499999999999
 40
0.0937499999999999
 40
0.1249999999999998
 40
0.1249999999999998
 40
0.1874999999999998
 40
0.1874999999999998
 40
0.2187499999999998
 40
0.2187499999999998
 40
0.2499999999999998
 40
0.2499999999999998
 40
0.3124999999999998
 40
0.3124999999999998
 40
0.3437499999999998
 40
0.3437499999999998
 40
0.3749999999999998
 40
0.3749999999999998
 40
0.4062499999999998
 40
0.4062499999999998
 40
0.4374999999999998
 40
0.4374999999999998
 40
0.4999999999999999
 40
0.4999999999999999
 40
0.5312499999999999
 40
0.5312499999999999
 40
0.5624999999999998
 40
0.5624999999999998
 40
0.6249999999999998
 40
0.6249999999999998
 40
0.6562499999999999
 40
0.6562499999999999
 40
0.6875
 40
0.6875
 40
0.7500000000000001
 40
0.7500000000000001
 40
0.8125000000000001
 40
0.8125000000000001
 40
0.8437500000000001
 40
0.8437500000000001
 40
0.875
 40
0.875
 40
0.9375000000000001
 40
0.9375000000000001
 40
1.0
 40
1.0
 40
1.0
 40
1.0
 10
95.69133118491797
 20
43.92600574424091
 30
0.0
 10
95.69133118491794
 20
43.92630919291532
 30
0.0
 10
95.60907462788967
 20
43.92573230184296
 30
0.0
 10
95.36735110394685
 20
43.92586811045287
 30
0.0
 10
95.26690684770188
 20
43.9260293285317
 30
0.0
 10
95.02537246638067
 20
43.92636310665039
 30
0.0
 10
94.88359974945169
 20
43.92651652890908
 30
0.0
 10
94.40591767868565
 20
43.92615798855145
 30
0.0
 10
94.01616519594862
 20
43.92539498001032
 30
0.0
 10
93.32555035149578
 20
43.92556313968454
 30
0.0
 10
93.07663620431279
 20
43.92579023360453
 30
0.0
 10
92.54591732598611
 20
43.92631981622832
 30
0.0
 10
92.26667064230894
 20
43.92661584665544
 30
0.0
 10
91.3885705717095
 20
43.9266155168638
 30
0.0
 10
90.74973912816786
 20
43.92562762896564
 30
0.0
 10
89.709435714561
 20
43.92544937379439
 30
0.0
 10
89.34898433925183
 20
43.92556259773599
 30
0.0
 10
88.6163767398091
 20
43.92597753944423
 30
0.0
 10
88.24230011742863
 20
43.92627717980557
 30
0.0
 10
87.47883680718037
 20
43.92651581504407
 30
0.0
 10
87.08945004591824
 20
43.92636747172052
 30
0.0
 10
86.29515840308709
 20
43.92603540771385
 30
0.0
 10
85.88807471303585
 20
43.92586994151775
 30
0.0
 10
84.65953444299461
 20
43.92573039563528
 30
0.0
 10
83.83616734590314
 20
43.92630072128812
 30
0.0
 10
82.59478052726936
 20
43.92586285340504
 30
0.0
 10
82.17992129248312
 20
43.92604089825421
 30
0.0
 10
81.34801096724892
 20
43.92584956430606
 30
0.0
 10
80.93348377893548
 20
43.92577753463004
 30
0.0
 10
79.71275832271643
 20
43.92591373911062
 30
0.0
 10
78.92166803222133
 20
43.92663120760932
 30
0.0
 10
77.76930904175647
 20
43.92628572153854
 30
0.0
 10
77.38893445769975
 20
43.92598112515795
 30
0.0
 10
76.65355817563315
 20
43.92556353636647
 30
0.0
 10
76.29791165872565
 20
43.92545118430994
 30
0.0
 10
75.26622775784003
 20
43.92561881475514
 30
0.0
 10
74.62510206600517
 20
43.92660626629824
 30
0.0
 10
73.43980565362405
 20
43.92662498987229
 30
0.0
 10
72.91327835440201
 20
43.92562917908445
 30
0.0
 10
72.22351254533878
 20
43.92544949126335
 30
0.0
 10
72.01008874925652
 20
43.92555725535901
 30
0.0
 10
71.61692933395554
 20
43.92596969863949
 30
0.0
 10
71.43666925514015
 20
43.92627491976219
 30
0.0
 10
70.95827438952088
 20
43.92663763763137
 30
0.0
 10
70.71798469023152
 20
43.92592085317795
 30
0.0
 10
70.39271720129587
 20
43.92572860692679
 30
0.0
 10
70.30866841450798
 20
43.92630919285677
 30
0.0
 10
70.30866841450796
 20
43.92600574424091
 30
0.0
  0
LWPOLYLINE
  5
D6
330
1F
100
AcDbEntity
  8
0
  6
HIDDEN
 62
     7
370
    18
100
AcDbPolyline
 90
        2
 70
   128
 43
0.0
 10
132.9961537414
 20
59.4371909349
 10
132.9961537414
 20
59.4371909349
  0
LWPOLYLINE
  5
D7
330
1F
100
AcDbEntity
  8
0
  6
HIDDEN
 62
     7
370
    18
100
AcDbPolyline
 90
        2
 70
   128
 43
0.0
 10
132.9961537414
 20
68.5394969155
 10
132.9961537414
 20
68.5394969155
  0
LWPOLYLINE
  5
D8
330
1F
100
AcDbEntity
  8
0
  6
HIDDEN
 62
     7
370
    18
100
AcDbPolyline
 90
        2
 70
   128
 43
0.0
 10
33.003845858
 20
59.4371909349
 10
33.003845858
 20
59.4371909349
  0
LWPOLYLINE
  5
D9
330
1F
100
AcDbEntity
  8
0
  6
HIDDEN
 62
     7
370
    18
100
AcDbPolyline
 90
        2
 70
   128
 43
0.0
 10
33.003845858
 20
68.5394969155
 10
33.003845858
 20
68.5394969155
  0
SPLINE
  5
DA
330
1F
100
AcDbEntity
  8
0
  6
HIDDEN
 62
     7
370
    18
100
AcDbSpline
210
0.0
220
0.0
230
1.0
 70
     8
 71
     3
 72
     9
 73
     5
 74
     0
 42
0.00000001
 43
0.00000001
 40
0.0
 40
0.0
 40
0.0
 40
0.0
 40
0.7630962009516142
 40
1.0
 40
1.0
 40
1.0
 40
1.0
 10
70.38138206103037
 20
43.92592395746827
 30
0.0
 10
70.3894529816809
 20
43.92582908624307
 30
0.0
 10
70.40002952581845
 20
43.92570476217346
 30
0.0
 10
70.54471412535702
 20
43.92587158947278
 30
0.0
 10
70.5789904566515
 20
43.92591111149376
 30
0.0
  0
LINE
  5
DB
330
1F
100
AcDbEntity
  8
0
  6
HIDDEN
 62
     7
370
    18
100
AcDbLine
 10
95.4017443363
 20
43.9260203603
 30
0.0
 11
95.6186175516
 21
43.9259239575
 31
0.0
  0
LWPOLYLINE
  5
DC
330
1F
100
AcDbEntity
  8
0
  6
HIDDEN
 62
     7
370
    18
100
AcDbPolyline
 90
        2
 70
   128
 43
0.0
 10
121.4585797549
 20
45.4643489424
 10
121.4585797549
 20
45.4643489424
  0
LWPOLYLINE
  5
DD
330
1F
100
AcDbEntity
  8
0
  6
HIDDEN
 62
     7
370
    18
100
AcDbPolyline
 90
        2
 70
   128
 43
0.0
 10
121.4585797549
 20
51.6177217432
 10
121.4585797549
 20
51.6177217432
  0
LWPOLYLINE
  5
DE
330
1F
100
AcDbEntity
  8
0
  6
HIDDEN
 62
     7
370
    18
100
AcDbPolyline
 90
        2
 70
   128
 43
0.0
 10
44.5414198445
 20
51.6177217432
 10
44.5414198445
 20
51.6177217432
  0
SPLINE
  5
DF
330
1F
100
AcDbEntity
  8
0
  6
HIDDEN
 62
     7
370
    18
100
AcDbSpline
210
0.0
220
0.0
230
1.0
 70
     8
 71
     3
 72
    11
 73
     7
 74
     0
 42
0.00000001
 43
0.00000001
 40
0.0
 40
0.0
 40
0.0
 40
0.0
 40
0.23470066609918
 40
0.4835039612403675
 40
0.7409585710160702
 40
0.9999999999999999
 40
0.9999999999999999
 40
0.9999999999999999
 40
0.9999999999999999
 10
57.26227140260424
 20
43.61833710459958
 30
0.0
 10
57.23951027277261
 20
43.5041872757084
 30
0.0
 10
57.19262034860318
 20
43.26902861441825
 30
0.0
 10
57.00621975732943
 20
42.93075416471842
 30
0.0
 10
56.73319037478756
 20
42.64033901213676
 30
0.0
 10
56.50733587458279
 20
42.52916800294907
 30
0.0
 10
56.39406168061996
 20
42.47341172425481
 30
0.0
  0
LINE
  5
E0
330
1F
100
AcDbEntity
  8
0
  6
HIDDEN
 62
     7
370
    18
100
AcDbLine
 10
70.5630061126
 20
43.9361401354
 30
0.0
 11
69.0443477205
 21
42.387662546
 31
0.0
  0
LINE
  5
E1
330
1F
100
AcDbEntity
  8
0
  6
HIDDEN
 62
     7
370
    18
100
AcDbLine
 10
96.955651871
 20
42.387662546
 30
0.0
 11
95.4369934869
 21
43.9361401354
 31
0.0
  0
LINE
  5
E2
330
1F
100
AcDbEntity
  8
0
  6
HIDDEN
 62
     7
370
    18
100
AcDbLine
 10
95.6913311849
 20
43.9260057442
 30
0.0
 11
95.6913311849
 21
45.4643489424
 31
0.0
  0
LINE
  5
E3
330
1F
100
AcDbEntity
  8
0
  6
HIDDEN
 62
     7
370
    18
100
AcDbLine
 10
70.3086684145
 20
45.4643489424
 30
0.0
 11
70.3086684145
 21
43.9260057442
 31
0.0
  0
LINE
  5
E4
330
1F
100
AcDbEntity
  8
0
  6
HIDDEN
 62
     7
370
    18
100
AcDbLine
 10
96.9556518687
 20
42.387662546
 30
0.0
 11
95.4369934869
 21
43.9361401353
 31
0.0
  0
SPLINE
  5
E5
330
1F
100
AcDbEntity
  8
0
  6
Continuous
 62
     7
370
    25
100
AcDbSpline
210
0.0
220
0.0
230
1.0
 70
     8
 71
     3
 72
    20
 73
    16
 74
     0
 42
0.00000001
 43
0.00000001
 40
0.0
 40
0.0
 40
0.0
 40
0.0
 40
0.1249999999999998
 40
0.1249999999999998
 40
0.2499999999999997
 40
0.2499999999999997
 40
0.3749999999999995
 40
0.3749999999999995
 40
0.4999999999999993
 40
0.4999999999999993
 40
0.7499999999999994
 40
0.7499999999999994
 40
0.8749999999999997
 40
0.8749999999999997
 40
1.0
 40
1.0
 40
1.0
 40
1.0
 10
36.08053225440889
 20
142.4423229217504
 30
0.0
 10
35.81476676084492
 20
142.6416470419234
 30
0.0
 10
35.56737401403531
 20
142.853901988308
 30
0.0
 10
35.10472170502729
 20
143.3033415928068
 30
0.0
 10
34.88800813713623
 20
143.5427067074389
 30
0.0
 10
34.49680870194514
 20
144.0310667653308
 30
0.0
 10
34.32089644960902
 20
144.2809766302777
 30
0.0
 10
34.00310658767701
 20
144.7925125339005
 30
0.0
 10
33.86075874079643
 20
145.0552741557676
 30
0.0
 10
33.48491485643217
 20
145.8542437894921
 30
0.0
 10
33.30533531577322
 20
146.3913557057815
 30
0.0
 10
33.12461732222703
 20
147.2095821157224
 30
0.0
 10
33.07943553135529
 20
147.4843988013041
 30
0.0
 10
33.01893027688269
 20
148.0391989744801
 30
0.0
 10
33.00384585799678
 20
148.3190863388753
 30
0.0
 10
33.00384585799677
 20
148.5956957145767
 30
0.0
  0
LINE
  5
E6
330
1F
100
AcDbEntity
  8
0
  6
Continuous
 62
     7
370
    25
100
AcDbLine
 10
33.003845858
 20
148.5956957146
 30
0.0
 11
33.003845858
 21
179.8953325227
 31
0.0
  0
ARC
  5
E7
330
1F
100
AcDbEntity
  8
0
  6
Continuous
 62
     7
370
    25
100
AcDbCircle
 10
36.0805322544
 20
179.8953325227
 30
0.0
 40
3.076686396413599
100
AcDbArc
 50
90.0
 51
180.0
  0
LINE
  5
E8
330
1F
100
AcDbEntity
  8
0
  6
Continuous
 62
     7
370
    25
100
AcDbLine
 10
38.3880470517
 20
141.1740659004
 30
0.0
 11
37.3820196671
 21
141.65430298
 31
0.0
  0
SPLINE
  5
E9
330
1F
100
AcDbEntity
  8
0
  6
Continuous
 62
     7
370
    25
100
AcDbSpline
210
0.0
220
0.0
230
1.0
 70
     8
 71
     3
 72
     8
 73
     4
 74
     0
 42
0.00000001
 43
0.00000001
 40
0.0
 40
0.0
 40
0.0
 40
0.0
 40
1.0
 40
1.0
 40
1.0
 40
1.0
 10
37.38201966706527
 20
141.6543029800412
 30
0.0
 10
36.92433837227292
 20
141.8727816793311
 30
0.0
 10
36.48625521108224
 20
142.1380307042453
 30
0.0
 10
36.0805322544089
 20
142.4423229217504
 30
0.0
  0
LINE
  5
EA
330
1F
100
AcDbEntity
  8
0
  6
Continuous
 62
     7
370
    25
100
AcDbLine
 10
38.3880470517
 20
182.9720189191
 30
0.0
 11
36.0805322544
 21
182.9720189191
 31
0.0
  0
LINE
  5
EB
330
1F
100
AcDbEntity
  8
0
  6
Continuous
 62
     7
370
    25
100
AcDbLine
 10
38.3880470517
 20
182.9720189191
 30
0.0
 11
38.3880470517
 21
141.1740659004
 31
0.0
  0
LINE
  5
EC
330
1F
100
AcDbEntity
  8
0
  6
Continuous
 62
     7
370
    25
100
AcDbLine
 10
128.6179799324
 20
141.65430298
 30
0.0
 11
127.6119525477
 21
141.1740659004
 31
0.0
  0
LINE
  5
ED
330
1F
100
AcDbEntity
  8
0
  6
Continuous
 62
     7
370
    25
100
AcDbLine
 10
127.6119525477
 20
182.9720189191
 30
0.0
 11
127.6119525477
 21
141.1740659004
 31
0.0
  0
LINE
  5
EE
330
1F
100
AcDbEntity
  8
0
  6
Continuous
 62
     7
370
    25
100
AcDbLine
 10
129.919467345
 20
182.9720189191
 30
0.0
 11
127.6119525477
 21
182.9720189191
 31
0.0
  0
SPLINE
  5
EF
330
1F
100
AcDbEntity
  8
0
  6
Continuous
 62
     7
370
    25
100
AcDbSpline
210
0.0
220
0.0
230
1.0
 70
     8
 71
     3
 72
     8
 73
     4
 74
     0
 42
0.00000001
 43
0.00000001
 40
0.0
 40
0.0
 40
0.0
 40
0.0
 40
1.0
 40
1.0
 40
1.0
 40
1.0
 10
129.9194673450168
 20
142.4423229217502
 30
0.0
 10
129.5137441810851
 20
142.1380305794064
 30
0.0
 10
129.0756610199891
 20
141.8727815545496
 30
0.0
 10
128.6179799323606
 20
141.6543029800412
 30
0.0
  0
LINE
  5
F0
330
1F
100
AcDbEntity
  8
0
  6
Continuous
 62
     7
370
    25
100
AcDbLine
 10
132.9961537414
 20
179.8953325227
 30
0.0
 11
132.9961537414
 21
148.5956957146
 31
0.0
  0
SPLINE
  5
F1
330
1F
100
AcDbEntity
  8
0
  6
Continuous
 62
     7
370
    25
100
AcDbSpline
210
0.0
220
0.0
230
1.0
 70
     8
 71
     3
 72
    20
 73
    16
 74
     0
 42
0.00000001
 43
0.00000001
 40
0.0
 40
0.0
 40
0.0
 40
0.0
 40
0.1249999999999998
 40
0.1249999999999998
 40
0.2499999999999996
 40
0.2499999999999996
 40
0.3749999999999994
 40
0.3749999999999994
 40
0.4999999999999992
 40
0.4999999999999992
 40
0.7499999999999996
 40
0.7499999999999996
 40
0.8749999999999998
 40
0.8749999999999998
 40
1.0
 40
1.0
 40
1.0
 40
1.0
 10
129.9194673450168
 20
142.4423229217503
 30
0.0
 10
130.1852328385808
 20
142.6416470419232
 30
0.0
 10
130.4326255853904
 20
142.8539019883079
 30
0.0
 10
130.8952778943984
 20
143.3033415928067
 30
0.0
 10
131.1119914622895
 20
143.5427067074388
 30
0.0
 10
131.5031908974805
 20
144.0310667653307
 30
0.0
 10
131.6791031498167
 20
144.2809766302776
 30
0.0
 10
131.9968930117487
 20
144.7925125339004
 30
0.0
 10
132.1392408586293
 20
145.0552741557675
 30
0.0
 10
132.5150847429935
 20
145.854243789492
 30
0.0
 10
132.6946642836525
 20
146.3913557057814
 30
0.0
 10
132.8753822771987
 20
147.2095821157223
 30
0.0
 10
132.9205640680704
 20
147.484398801304
 30
0.0
 10
132.981069322543
 20
148.03919897448
 30
0.0
 10
132.9961537414289
 20
148.3190863388919
 30
0.0
 10
132.9961537414289
 20
148.5956957145766
 30
0.0
  0
ARC
  5
F2
330
1F
100
AcDbEntity
  8
0
  6
Continuous
 62
     7
370
    25
100
AcDbCircle
 10
129.919467345
 20
179.8953325227
 30
0.0
 40
3.076686396413578
100
AcDbArc
 50
0.0
 51
90.0
  0
LINE
  5
F3
330
1F
100
AcDbEntity
  8
0
  6
Continuous
 62
     7
370
    25
100
AcDbLine
 10
40.1212177314
 20
140.3467198079
 30
0.0
 11
38.3880470517
 21
141.1740659004
 31
0.0
  0
LINE
  5
F4
330
1F
100
AcDbEntity
  8
0
  6
Continuous
 62
     7
370
    25
100
AcDbLine
 10
40.1212177314
 20
182.9720189191
 30
0.0
 11
38.3880470517
 21
182.9720189191
 31
0.0
  0
LINE
  5
F5
330
1F
100
AcDbEntity
  8
0
  6
Continuous
 62
     7
370
    25
100
AcDbLine
 10
127.6119525477
 20
141.1740659004
 30
0.0
 11
125.8787818681
 21
140.3467198079
 31
0.0
  0
LINE
  5
F6
330
1F
100
AcDbEntity
  8
0
  6
Continuous
 62
     7
370
    25
100
AcDbLine
 10
127.6119525477
 20
182.9720189191
 30
0.0
 11
125.8787818681
 21
182.9720189191
 31
0.0
  0
LINE
  5
F7
330
1F
100
AcDbEntity
  8
0
  6
Continuous
 62
     7
370
    25
100
AcDbLine
 10
125.8787818681
 20
140.3467198079
 30
0.0
 11
122.8667661283
 21
138.9089044316
 31
0.0
  0
LINE
  5
F8
330
1F
100
AcDbEntity
  8
0
  6
Continuous
 62
     7
370
    25
100
AcDbLine
 10
125.8787818681
 20
182.9720189191
 30
0.0
 11
122.8667661283
 21
182.9720189191
 31
0.0
  0
LINE
  5
F9
330
1F
100
AcDbEntity
  8
0
  6
Continuous
 62
     7
370
    25
100
AcDbLine
 10
43.1332334711
 20
138.9089044316
 30
0.0
 11
40.1212177314
 21
140.3467198079
 31
0.0
  0
LINE
  5
FA
330
1F
100
AcDbEntity
  8
0
  6
Continuous
 62
     7
370
    25
100
AcDbLine
 10
43.1332334711
 20
182.9720189191
 30
0.0
 11
40.1212177314
 21
182.9720189191
 31
0.0
  0
ARC
  5
FB
330
1F
100
AcDbEntity
  8
0
  6
Continuous
 62
     7
370
    25
100
AcDbCircle
 10
82.9999997997
 20
162.9732989413
 30
0.0
 40
38.45857995603534
100
AcDbArc
 50
318.7249040044
 51
0.0003849673
  0
LINE
  5
FC
330
1F
100
AcDbEntity
  8
0
  6
Continuous
 62
     7
370
    25
100
AcDbLine
 10
121.4585797549
 20
182.9720189191
 30
0.0
 11
121.4585797549
 21
162.9735573425
 31
0.0
  0
LINE
  5
FD
330
1F
100
AcDbEntity
  8
0
  6
Continuous
 62
     7
370
    25
100
AcDbLine
 10
122.8667661283
 20
138.9089044316
 30
0.0
 11
111.903287482
 21
133.6753799294
 31
0.0
  0
LINE
  5
FE
330
1F
100
AcDbEntity
  8
0
  6
Continuous
 62
     7
370
    25
100
AcDbLine
 10
122.8667661283
 20
182.9720189191
 30
0.0
 11
121.4585797549
 21
182.9720189191
 31
0.0
  0
SPLINE
  5
FF
330
1F
100
AcDbEntity
  8
0
  6
Continuous
 62
     7
370
    25
100
AcDbSpline
210
0.0
220
0.0
230
1.0
 70
     8
 71
     3
 72
    20
 73
    16
 74
     0
 42
0.00000001
 43
0.00000001
 40
0.0
 40
0.0
 40
0.0
 40
0.0
 40
0.1250000000000001
 40
0.1250000000000001
 40
0.2500000000000002
 40
0.2500000000000002
 40
0.3750000000000002
 40
0.3750000000000002
 40
0.5000000000000003
 40
0.5000000000000003
 40
0.6250000000000004
 40
0.6250000000000004
 40
0.7500000000000004
 40
0.7500000000000004
 40
1.0
 40
1.0
 40
1.0
 40
1.0
 10
111.0276527201599
 20
133.2573870524716
 30
0.0
 10
110.87702765685
 20
133.1854846951169
 30
0.0
 10
110.7233515996665
 20
133.1415794173806
 30
0.0
 10
110.4147765975737
 20
133.1002699259448
 30
0.0
 10
110.2675662805903
 20
133.1039282889494
 30
0.0
 10
109.9885404518293
 20
133.1474144304572
 30
0.0
 10
109.8617487877977
 20
133.1864615922173
 30
0.0
 10
109.6302742453735
 20
133.288189273115
 30
0.0
 10
109.5249846674916
 20
133.3516822728732
 30
0.0
 10
109.3406363962019
 20
133.4920979343848
 30
0.0
 10
109.2603860358871
 20
133.5694712113226
 30
0.0
 10
109.1204197594748
 20
133.734950499977
 30
0.0
 10
109.0605655809216
 20
133.8236216108255
 30
0.0
 10
108.9133370611475
 20
134.0961407473002
 30
0.0
 10
108.8557574008274
 20
134.287809906095
 30
0.0
 10
108.8350426604262
 20
134.4847282873932
 30
0.0
  0
SPLINE
  5
100
330
1F
100
AcDbEntity
  8
0
  6
Continuous
 62
     7
370
    25
100
AcDbSpline
210
0.0
220
0.0
230
1.0
 70
     8
 71
     3
 72
    18
 73
    14
 74
     0
 42
0.00000001
 43
0.00000001
 40
0.0
 40
0.0
 40
0.0
 40
0.0
 40
0.2499999999999994
 40
0.2499999999999994
 40
0.4999999999999989
 40
0.4999999999999989
 40
0.6249999999999991
 40
0.6249999999999991
 40
0.7499999999999994
 40
0.7499999999999994
 40
0.8749999999999997
 40
0.8749999999999997
 40
1.0
 40
1.0
 40
1.0
 40
1.0
 10
111.9035815932541
 20
137.6031327664514
 30
0.0
 10
111.5887871828362
 20
137.2444955416512
 30
0.0
 10
111.2726648306398
 20
136.8978245320654
 30
0.0
 10
110.640920448008
 20
136.2290760262046
 30
0.0
 10
110.3208743724846
 20
135.9029300310772
 30
0.0
 10
109.8773850171761
 20
135.4649055287827
 30
0.0
 10
109.7338699510872
 20
135.3255709740775
 30
0.0
 10
109.4663424211685
 20
135.0693676185669
 30
0.0
 10
109.3441105353916
 20
134.9541643508903
 30
0.0
 10
109.1286883643562
 20
134.7531694670918
 30
0.0
 10
109.0363432322752
 20
134.6681785072697
 30
0.0
 10
108.8991383832609
 20
134.5425824052458
 30
0.0
 10
108.8528372769304
 20
134.5006147719218
 30
0.0
 10
108.8350404181603
 20
134.4844757209807
 30
0.0
  0
SPLINE
  5
101
330
1F
100
AcDbEntity
  8
0
  6
Continuous
 62
     7
370
    25
100
AcDbSpline
210
0.0
220
0.0
230
1.0
 70
    24
 71
     3
 72
     8
 73
     4
 74
     0
 42
0.00000001
 43
0.00000001
 40
0.0
 40
0.0
 40
0.0
 40
0.0
 40
1.0
 40
1.0
 40
1.0
 40
1.0
 10
111.9032874819743
 20
133.6753799294349
 30
0.0
 10
111.6079465319885
 20
133.5343960183864
 30
0.0
 10
111.3129696929463
 20
133.3935859192826
 30
0.0
 10
111.0276527201601
 20
133.2573870524683
 30
0.0
  0
ARC
  5
102
330
1F
100
AcDbEntity
  8
0
  6
Continuous
 62
     7
370
    25
100
AcDbCircle
 10
82.9999997997
 20
162.9732989413
 30
0.0
 40
38.45857995603527
100
AcDbArc
 50
179.9996150327
 51
221.2750415113
  0
LINE
  5
103
330
1F
100
AcDbEntity
  8
0
  6
Continuous
 62
     7
370
    25
100
AcDbLine
 10
44.5414198445
 20
182.9720189191
 30
0.0
 11
44.5414198445
 21
162.9735573425
 31
0.0
  0
LINE
  5
104
330
1F
100
AcDbEntity
  8
0
  6
Continuous
 62
     7
370
    25
100
AcDbLine
 10
54.0967121175
 20
133.6753799294
 30
0.0
 11
43.1332334711
 21
138.9089044316
 31
0.0
  0
LINE
  5
105
330
1F
100
AcDbEntity
  8
0
  6
Continuous
 62
     7
370
    25
100
AcDbLine
 10
44.5414198445
 20
182.9720189191
 30
0.0
 11
43.1332334711
 21
182.9720189191
 31
0.0
  0
SPLINE
  5
106
330
1F
100
AcDbEntity
  8
0
  6
Continuous
 62
     7
370
    25
100
AcDbSpline
210
0.0
220
0.0
230
1.0
 70
     8
 71
     3
 72
    18
 73
    14
 74
     0
 42
0.00000001
 43
0.00000001
 40
0.0
 40
0.0
 40
0.0
 40
0.0
 40
0.2499999999999999
 40
0.2499999999999999
 40
0.4999999999999998
 40
0.4999999999999998
 40
0.6249999999999998
 40
0.6249999999999998
 40
0.7499999999999999
 40
0.7499999999999999
 40
0.8749999999999999
 40
0.8749999999999999
 40
1.0
 40
1.0
 40
1.0
 40
1.0
 10
57.16495693899504
 20
134.4847282874539
 30
0.0
 10
57.14423737576033
 20
134.2877640592778
 30
0.0
 10
57.08667628576731
 20
134.0967116834355
 30
0.0
 10
56.89218226760226
 20
133.7356185295035
 30
0.0
 10
56.75262904989624
 20
133.5634334018858
 30
0.0
 10
56.47632802992133
 20
133.3525358835247
 30
0.0
 10
56.37157765413181
 20
133.2891414179705
 30
0.0
 10
56.13918575946651
 20
133.1867360241616
 30
0.0
 10
56.01259598697896
 20
133.1477455893365
 30
0.0
 10
55.734563880541
 20
133.1041081529943
 30
0.0
 10
55.58638868256914
 20
133.100345095234
 30
0.0
 10
55.27997198663119
 20
133.1409065717749
 30
0.0
 10
55.12305830014835
 20
133.185443471476
 30
0.0
 10
54.97234687926458
 20
133.2573870524688
 30
0.0
  0
SPLINE
  5
107
330
1F
100
AcDbEntity
  8
0
  6
Continuous
 62
     7
370
    25
100
AcDbSpline
210
0.0
220
0.0
230
1.0
 70
     8
 71
     3
 72
    24
 73
    20
 74
     0
 42
0.00000001
 43
0.00000001
 40
0.0
 40
0.0
 40
0.0
 40
0.0
 40
0.1249999999999995
 40
0.1249999999999995
 40
0.1874999999999996
 40
0.1874999999999996
 40
0.2499999999999996
 40
0.2499999999999996
 40
0.3749999999999997
 40
0.3749999999999997
 40
0.4999999999999998
 40
0.4999999999999998
 40
0.6249999999999999
 40
0.6249999999999999
 40
0.7499999999999999
 40
0.7499999999999999
 40
0.875
 40
0.875
 40
1.0
 40
1.0
 40
1.0
 40
1.0
 10
57.16495918126535
 20
134.4844757209806
 30
0.0
 10
57.14717718222839
 20
134.5006012963982
 30
0.0
 10
57.10239125657948
 20
134.5411895085913
 30
0.0
 10
56.99976235181728
 20
134.6351237073271
 30
0.0
 10
56.95930967266909
 20
134.672264380932
 30
0.0
 10
56.86958805765893
 20
134.7550835180918
 30
0.0
 10
56.82011354532862
 20
134.8009490041995
 30
0.0
 10
56.65931227727127
 20
134.9509499101683
 30
0.0
 10
56.53473545634164
 20
135.0683570503476
 30
0.0
 10
56.26983651076828
 20
135.3219993470983
 30
0.0
 10
56.12829992790741
 20
135.4593426277986
 30
0.0
 10
55.8308756605998
 20
135.7529988045434
 30
0.0
 10
55.67692298536758
 20
135.9074346013271
 30
0.0
 10
55.36664910921632
 20
136.2242901991343
 30
0.0
 10
55.2093955581433
 20
136.3876240764302
 30
0.0
 10
54.89186657945483
 20
136.7235629615928
 30
0.0
 10
54.73100423669068
 20
136.8968293311808
 30
0.0
 10
54.41223486964567
 20
137.246696488336
 30
0.0
 10
54.25379724931956
 20
137.4238342738384
 30
0.0
 10
54.09639388093048
 20
137.6031602517481
 30
0.0
  0
SPLINE
  5
108
330
1F
100
AcDbEntity
  8
0
  6
Continuous
 62
     7
370
    25
100
AcDbSpline
210
0.0
220
0.0
230
1.0
 70
    24
 71
     3
 72
     8
 73
     4
 74
     0
 42
0.00000001
 43
0.00000001
 40
0.0
 40
0.0
 40
0.0
 40
0.0
 40
1.0
 40
1.0
 40
1.0
 40
1.0
 10
54.97234687926556
 20
133.2573870524683
 30
0.0
 10
54.68702997450431
 20
133.3935858868101
 30
0.0
 10
54.39205320809311
 20
133.5343959512428
 30
0.0
 10
54.09671211745154
 20
133.6753799294349
 30
0.0
  0
LINE
  5
109
330
1F
100
AcDbEntity
  8
0
  6
Continuous
 62
     7
370
    25
100
AcDbLine
 10
108.8266010856
 20
145.2826105631
 30
0.0
 11
108.8266010856
 21
134.6456655994
 31
0.0
  0
ARC
  5
10A
330
1F
100
AcDbEntity
  8
0
  6
Continuous
 62
     7
370
    25
100
AcDbCircle
 10
104.2115714909
 20
145.2826105631
 30
0.0
 40
4.615029594620268
100
AcDbArc
 50
0.0
 51
90.0
  0
LINE
  5
10B
330
1F
100
AcDbEntity
  8
0
  6
Continuous
 62
     7
370
    25
100
AcDbLine
 10
103.2921402589
 20
149.8976401578
 30
0.0
 11
104.2115714909
 21
149.8976401578
 31
0.0
  0
SPLINE
  5
10C
330
1F
100
AcDbEntity
  8
0
  6
Continuous
 62
     7
370
    25
100
AcDbSpline
210
0.0
220
0.0
230
1.0
 70
     8
 71
     3
 72
    14
 73
    10
 74
     0
 42
0.00000001
 43
0.00000001
 40
0.0
 40
0.0
 40
0.0
 40
0.0
 40
0.25
 40
0.25
 40
0.5
 40
0.5
 40
0.75
 40
0.75
 40
1.0
 40
1.0
 40
1.0
 40
1.0
 10
99.81348760872339
 20
148.3153442967434
 30
0.0
 10
100.0227661187452
 20
148.5553941354219
 30
0.0
 10
100.2619628199803
 20
148.7790560778157
 30
0.0
 10
100.7895366146802
 20
149.1741503031835
 30
0.0
 10
101.077830274491
 20
149.3454302673995
 30
0.0
 10
101.6848426689109
 20
149.6215352125834
 30
0.0
 10
102.0033978111011
 20
149.7262857820957
 30
0.0
 10
102.6478977774168
 20
149.8643196518238
 30
0.0
 10
102.9736729610031
 20
149.8976401577673
 30
0.0
 10
103.2921402588636
 20
149.8976401577674
 30
0.0
  0
SPLINE
  5
10D
330
1F
100
AcDbEntity
  8
0
  6
Continuous
 62
     7
370
    25
100
AcDbSpline
210
0.0
220
0.0
230
1.0
 70
     8
 71
     3
 72
    22
 73
    18
 74
     0
 42
0.00000001
 43
0.00000001
 40
0.0
 40
0.0
 40
0.0
 40
0.0
 40
0.125
 40
0.125
 40
0.25
 40
0.25
 40
0.375
 40
0.375
 40
0.5
 40
0.5
 40
0.625
 40
0.625
 40
0.75
 40
0.75
 40
0.875
 40
0.875
 40
1.0
 40
1.0
 40
1.0
 40
1.0
 10
66.18651199070247
 20
148.3153442967433
 30
0.0
 10
67.14199076829058
 20
147.2193764097543
 30
0.0
 10
68.23983081998954
 20
146.1782308941503
 30
0.0
 10
70.6973537941383
 20
144.3029794168359
 30
0.0
 10
72.05707095474256
 20
143.4696695558086
 30
0.0
 10
74.97178294324753
 20
142.100199572184
 30
0.0
 10
76.5262774891948
 20
141.5647857983403
 30
0.0
 10
79.72607004592638
 20
140.8483237041617
 30
0.0
 10
81.37047142406946
 20
140.6675809684613
 30
0.0
 10
84.6295281753566
 20
140.6675809684613
 30
0.0
 10
86.27392955349968
 20
140.8483237041617
 30
0.0
 10
89.47372211023122
 20
141.5647857983403
 30
0.0
 10
91.02821665617847
 20
142.100199572184
 30
0.0
 10
93.9429286446834
 20
143.4696695558087
 30
0.0
 10
95.30264580528765
 20
144.3029794168359
 30
0.0
 10
97.76016877943636
 20
146.1782308941504
 30
0.0
 10
98.85800883113531
 20
147.2193764097545
 30
0.0
 10
99.81348760872339
 20
148.3153442967435
 30
0.0
  0
SPLINE
  5
10E
330
1F
100
AcDbEntity
  8
0
  6
Continuous
 62
     7
370
    25
100
AcDbSpline
210
0.0
220
0.0
230
1.0
 70
     8
 71
     3
 72
    14
 73
    10
 74
     0
 42
0.00000001
 43
0.00000001
 40
0.0
 40
0.0
 40
0.0
 40
0.0
 40
0.25
 40
0.25
 40
0.5
 40
0.5
 40
0.75
 40
0.75
 40
1.0
 40
1.0
 40
1.0
 40
1.0
 10
62.70785934056231
 20
149.8976401577674
 30
0.0
 10
63.02632663842275
 20
149.8976401577673
 30
0.0
 10
63.3521018220092
 20
149.8643196518238
 30
0.0
 10
63.9966017883249
 20
149.7262857820957
 30
0.0
 10
64.31515693051507
 20
149.6215352125834
 30
0.0
 10
64.92216932493491
 20
149.3454302673994
 30
0.0
 10
65.21046298474579
 20
149.1741503031835
 30
0.0
 10
65.73803677944562
 20
148.7790560778155
 30
0.0
 10
65.97723348068067
 20
148.5553941354218
 30
0.0
 10
66.18651199070247
 20
148.3153442967433
 30
0.0
  0
LINE
  5
10F
330
1F
100
AcDbEntity
  8
0
  6
Continuous
 62
     7
370
    25
100
AcDbLine
 10
61.7884281085
 20
149.8976401578
 30
0.0
 11
62.7078593406
 21
149.8976401578
 31
0.0
  0
ARC
  5
110
330
1F
100
AcDbEntity
  8
0
  6
Continuous
 62
     7
370
    25
100
AcDbCircle
 10
61.7884281085
 20
145.2826105631
 30
0.0
 40
4.615029594620019
100
AcDbArc
 50
90.0
 51
180.0
  0
LINE
  5
111
330
1F
100
AcDbEntity
  8
0
  6
Continuous
 62
     7
370
    25
100
AcDbLine
 10
57.1733985139
 20
134.6456655994
 30
0.0
 11
57.1733985139
 21
145.2826105631
 31
0.0
  0
ARC
  5
112
330
1F
100
AcDbEntity
  8
0
  6
Continuous
 62
     7
370
    25
100
AcDbCircle
 10
51.8488669488
 20
180.5106690861
 30
0.0
 40
2.461350180332415
100
AcDbArc
 50
20.2883838528
 51
90.000006161
  0
ARC
  5
113
330
1F
100
AcDbEntity
  8
0
  6
Continuous
 62
     7
370
    25
100
AcDbCircle
 10
61.7884195979
 20
184.1851567739
 30
0.0
 40
8.135657257267857
100
AcDbArc
 50
200.2885571388
 51
202.4947797973
  0
ARC
  5
114
330
1F
100
AcDbEntity
  8
0
  6
Continuous
 62
     7
370
    25
100
AcDbCircle
 10
61.7884276748
 20
184.1851301739
 30
0.0
 40
8.135655086583704
100
AcDbArc
 50
202.4945849556
 51
339.7116341366
  0
ARC
  5
115
330
1F
100
AcDbEntity
  8
0
  6
Continuous
 62
     7
370
    25
100
AcDbCircle
 10
71.7279869654
 20
180.5106698093
 30
0.0
 40
2.461349109837244
100
AcDbArc
 50
90.0000000628
 51
159.7116340962
  0
LINE
  5
116
330
1F
100
AcDbEntity
  8
0
  6
Continuous
 62
     7
370
    25
100
AcDbLine
 10
94.2720126367
 20
182.9720189191
 30
0.0
 11
71.7279869627
 21
182.9720189191
 31
0.0
  0
ARC
  5
117
330
1F
100
AcDbEntity
  8
0
  6
Continuous
 62
     7
370
    25
100
AcDbCircle
 10
94.2720126413
 20
180.5106697896
 30
0.0
 40
2.461349135632514
100
AcDbArc
 50
20.288366394
 51
90.0000001072
  0
ARC
  5
118
330
1F
100
AcDbEntity
  8
0
  6
Continuous
 62
     7
370
    25
100
AcDbCircle
 10
104.2115726913
 20
184.1851275457
 30
0.0
 40
8.135654864963948
100
AcDbArc
 50
200.2883466303
 51
337.50543008
  0
ARC
  5
119
330
1F
100
AcDbEntity
  8
0
  6
Continuous
 62
     7
370
    25
100
AcDbCircle
 10
104.211580002
 20
184.1851567738
 30
0.0
 40
8.135657256769562
100
AcDbArc
 50
337.5052202025
 51
339.7114428611
  0
ARC
  5
11A
330
1F
100
AcDbEntity
  8
0
  6
Continuous
 62
     7
370
    25
100
AcDbCircle
 10
114.1511326506
 20
180.510668371
 30
0.0
 40
2.461350548193323
100
AcDbArc
 50
89.999993839
 51
159.711600533
  0
CIRCLE
  5
11B
330
1F
100
AcDbEntity
  8
0
  6
Continuous
 62
     7
370
    25
100
AcDbCircle
 10
82.9999997997
 20
162.9734390388
 30
0.0
 40
12.69133138520536
  0
SPLINE
  5
11C
330
1F
100
AcDbEntity
  8
0
  6
Continuous
 62
     7
370
    25
100
AcDbSpline
210
0.0
220
0.0
230
1.0
 70
     8
 71
     3
 72
     8
 73
     4
 74
     0
 42
0.00000001
 43
0.00000001
 40
0.0
 40
0.0
 40
0.0
 40
0.0
 40
1.0
 40
1.0
 40
1.0
 40
1.0
 10
108.8266010855608
 20
134.6456655993753
 30
0.0
 10
108.8266052060735
 20
134.5918894513041
 30
0.0
 10
108.8294327735438
 20
134.5380395001926
 30
0.0
 10
108.8350605464713
 20
134.4845583716126
 30
0.0
  0
SPLINE
  5
11D
330
1F
100
AcDbEntity
  8
0
  6
Continuous
 62
     7
370
    25
100
AcDbSpline
210
0.0
220
0.0
230
1.0
 70
     8
 71
     3
 72
     8
 73
     4
 74
     0
 42
0.00000001
 43
0.00000001
 40
0.0
 40
0.0
 40
0.0
 40
0.0
 40
1.0
 40
1.0
 40
1.0
 40
1.0
 10
57.1649328544114
 20
134.4844995954746
 30
0.0
 10
57.1705688543942
 20
134.5379996271103
 30
0.0
 10
57.17339851077947
 20
134.591869548825
 30
0.0
 10
57.17339851386491
 20
134.6456655993753
 30
0.0
  0
LINE
  5
11E
330
1F
100
AcDbEntity
  8
0
  6
Continuous
 62
     7
370
    25
100
AcDbLine
 10
51.8488666841
 20
182.9720189191
 30
0.0
 11
44.5414198445
 21
182.9720189191
 31
0.0
  0
LINE
  5
11F
330
1F
100
AcDbEntity
  8
0
  6
Continuous
 62
     7
370
    25
100
AcDbLine
 10
121.4585797549
 20
182.9720189191
 30
0.0
 11
114.1511329153
 21
182.9720189191
 31
0.0
  0
LWPOLYLINE
  5
120
330
1F
100
AcDbEntity
  8
0
  6
HIDDEN
 62
     7
370
    18
100
AcDbPolyline
 90
        2
 70
   128
 43
0.0
 10
129.919467345
 20
182.9720189191
 10
129.919467345
 20
182.9720189191
  0
LWPOLYLINE
  5
121
330
1F
100
AcDbEntity
  8
0
  6
HIDDEN
 62
     7
370
    18
100
AcDbPolyline
 90
        2
 70
   128
 43
0.0
 10
36.0805322544
 20
182.9720189191
 10
36.0805322544
 20
182.9720189191
  0
LWPOLYLINE
  5
122
330
1F
100
AcDbEntity
  8
0
  6
HIDDEN
 62
     7
370
    18
100
AcDbPolyline
 90
        2
 70
   128
 43
0.0
 10
132.9961537414
 20
148.5956957146
 10
132.9961537414
 20
148.5956957146
  0
LWPOLYLINE
  5
123
330
1F
100
AcDbEntity
  8
0
  6
HIDDEN
 62
     7
370
    18
100
AcDbPolyline
 90
        2
 70
   128
 43
0.0
 10
132.9961537414
 20
148.5956957146
 10
132.9961537414
 20
148.5956957146
  0
LWPOLYLINE
  5
124
330
1F
100
AcDbEntity
  8
0
  6
HIDDEN
 62
     7
370
    18
100
AcDbPolyline
 90
        2
 70
   128
 43
0.0
 10
132.9961537414
 20
179.8953325227
 10
132.9961537414
 20
179.8953325227
  0
LWPOLYLINE
  5
125
330
1F
100
AcDbEntity
  8
0
  6
HIDDEN
 62
     7
370
    18
100
AcDbPolyline
 90
        2
 70
   128
 43
0.0
 10
132.9961537414
 20
179.8953325227
 10
132.9961537414
 20
179.8953325227
  0
LWPOLYLINE
  5
126
330
1F
100
AcDbEntity
  8
0
  6
HIDDEN
 62
     7
370
    18
100
AcDbPolyline
 90
        2
 70
   128
 43
0.0
 10
33.003845858
 20
148.5956957146
 10
33.003845858
 20
148.5956957146
  0
LWPOLYLINE
  5
127
330
1F
100
AcDbEntity
  8
0
  6
HIDDEN
 62
     7
370
    18
100
AcDbPolyline
 90
        2
 70
   128
 43
0.0
 10
33.003845858
 20
148.5956957146
 10
33.003845858
 20
148.5956957146
  0
LWPOLYLINE
  5
128
330
1F
100
AcDbEntity
  8
0
  6
HIDDEN
 62
     7
370
    18
100
AcDbPolyline
 90
        2
 70
   128
 43
0.0
 10
33.003845858
 20
179.8953325227
 10
33.003845858
 20
179.8953325227
  0
LWPOLYLINE
  5
129
330
1F
100
AcDbEntity
  8
0
  6
HIDDEN
 62
     7
370
    18
100
AcDbPolyline
 90
        2
 70
   128
 43
0.0
 10
33.003845858
 20
179.8953325227
 10
33.003845858
 20
179.8953325227
  0
LINE
  5
12A
330
1F
100
AcDbEntity
  8
0
  6
HIDDEN
 62
     7
370
    18
100
AcDbLine
 10
36.0805322544
 20
182.9720189191
 30
0.0
 11
36.0805322544
 21
142.4423229218
 31
0.0
  0
LINE
  5
12B
330
1F
100
AcDbEntity
  8
0
  6
HIDDEN
 62
     7
370
    18
100
AcDbLine
 10
129.919467345
 20
182.9720189191
 30
0.0
 11
129.919467345
 21
142.4423229218
 31
0.0
  0
LWPOLYLINE
  5
12C
330
1F
100
AcDbEntity
  8
0
  6
HIDDEN
 62
     7
370
    18
100
AcDbPolyline
 90
        2
 70
   128
 43
0.0
 10
129.919467345
 20
182.9720189191
 10
129.919467345
 20
182.9720189191
  0
LWPOLYLINE
  5
12D
330
1F
100
AcDbEntity
  8
0
  6
HIDDEN
 62
     7
370
    18
100
AcDbPolyline
 90
        2
 70
   128
 43
0.0
 10
36.0805322544
 20
182.9720189191
 10
36.0805322544
 20
182.9720189191
  0
LWPOLYLINE
  5
12E
330
1F
100
AcDbEntity
  8
0
  6
HIDDEN
 62
     7
370
    18
100
AcDbPolyline
 90
        2
 70
   128
 43
0.0
 10
37.3820196671
 20
141.65430298
 10
37.3820196671
 20
141.65430298
  0
LWPOLYLINE
  5
12F
330
1F
100
AcDbEntity
  8
0
  6
HIDDEN
 62
     7
370
    18
100
AcDbPolyline
 90
        2
 70
   128
 43
0.0
 10
128.6179799324
 20
141.65430298
 10
128.6179799324
 20
141.65430298
  0
LWPOLYLINE
  5
130
330
1F
100
AcDbEntity
  8
0
  6
HIDDEN
 62
     7
370
    18
100
AcDbPolyline
 90
        2
 70
   128
 43
0.0
 10
54.9723468793
 20
133.2573870525
 10
54.9723468793
 20
133.2573870525
  0
LWPOLYLINE
  5
131
330
1F
100
AcDbEntity
  8
0
  6
HIDDEN
 62
     7
370
    18
100
AcDbPolyline
 90
        2
 70
   128
 43
0.0
 10
111.0276527202
 20
133.2573870525
 10
111.0276527202
 20
133.2573870525
  0
LWPOLYLINE
  5
132
330
1F
100
AcDbEntity
  8
0
  6
HIDDEN
 62
     7
370
    18
100
AcDbPolyline
 90
        2
 70
   128
 43
0.0
 10
44.5414198445
 20
162.9735573425
 10
44.5414198445
 20
162.9735573425
  0
LWPOLYLINE
  5
133
330
1F
100
AcDbEntity
  8
0
  6
HIDDEN
 62
     7
370
    18
100
AcDbPolyline
 90
        2
 70
   128
 43
0.0
 10
121.4585797549
 20
162.9735573425
 10
121.4585797549
 20
162.9735573425
  0
LWPOLYLINE
  5
134
330
1F
100
AcDbEntity
  8
0
  6
HIDDEN
 62
     7
370
    18
100
AcDbPolyline
 90
        2
 70
   128
 43
0.0
 10
103.2921402589
 20
149.8976401578
 10
103.2921402589
 20
149.8976401578
  0
LWPOLYLINE
  5
135
330
1F
100
AcDbEntity
  8
0
  6
HIDDEN
 62
     7
370
    18
100
AcDbPolyline
 90
        2
 70
   128
 43
0.0
 10
62.7078593406
 20
149.8976401578
 10
62.7078593406
 20
149.8976401578
  0
LWPOLYLINE
  5
136
330
1F
100
AcDbEntity
  8
0
  6
HIDDEN
 62
     7
370
    18
100
AcDbPolyline
 90
        2
 70
   128
 43
0.0
 10
104.2115714909
 20
149.8976401578
 10
104.2115714909
 20
149.8976401578
  0
LWPOLYLINE
  5
137
330
1F
100
AcDbEntity
  8
0
  6
HIDDEN
 62
     7
370
    18
100
AcDbPolyline
 90
        2
 70
   128
 43
0.0
 10
61.7884281085
 20
149.8976401578
 10
61.7884281085
 20
149.8976401578
  0
LWPOLYLINE
  5
138
330
1F
100
AcDbEntity
  8
0
  6
HIDDEN
 62
     7
370
    18
100
AcDbPolyline
 90
        2
 70
   128
 43
0.0
 10
57.1733985139
 20
145.2826105631
 10
57.1733985139
 20
145.2826105631
  0
LWPOLYLINE
  5
139
330
1F
100
AcDbEntity
  8
0
  6
HIDDEN
 62
     7
370
    18
100
AcDbPolyline
 90
        2
 70
   128
 43
0.0
 10
57.1733985139
 20
134.6456655994
 10
57.1733985139
 20
134.6456655994
  0
LWPOLYLINE
  5
13A
330
1F
100
AcDbEntity
  8
0
  6
HIDDEN
 62
     7
370
    18
100
AcDbPolyline
 90
        2
 70
   128
 43
0.0
 10
108.8266010856
 20
145.2826105631
 10
108.8266010856
 20
145.2826105631
  0
LWPOLYLINE
  5
13B
330
1F
100
AcDbEntity
  8
0
  6
HIDDEN
 62
     7
370
    18
100
AcDbPolyline
 90
        2
 70
   128
 43
0.0
 10
108.8266010856
 20
134.6456655994
 10
108.8266010856
 20
134.6456655994
  0
LINE
  5
13C
330
1F
100
AcDbEntity
  8
0
  6
HIDDEN
 62
     7
370
    18
100
AcDbLine
 10
96.5806583028
 20
181.3641308906
 30
0.0
 11
96.5806580982
 21
181.364130815
 31
0.0
  0
LINE
  5
13D
330
1F
100
AcDbEntity
  8
0
  6
HIDDEN
 62
     7
370
    18
100
AcDbLine
 10
111.8424864739
 20
181.3641311772
 30
0.0
 11
111.8424870512
 21
181.3641309638
 31
0.0
  0
LINE
  5
13E
330
1F
100
AcDbEntity
  8
0
  6
HIDDEN
 62
     7
370
    18
100
AcDbLine
 10
54.1575125632
 20
181.3641309694
 30
0.0
 11
54.1575131255
 21
181.3641311772
 31
0.0
  0
LINE
  5
13F
330
1F
100
AcDbEntity
  8
0
  6
HIDDEN
 62
     7
370
    18
100
AcDbLine
 10
69.4193415288
 20
181.3641308048
 30
0.0
 11
69.4193415186
 21
181.3641308086
 31
0.0
  0
SPLINE
  5
140
330
1F
100
AcDbEntity
  8
0
  6
HIDDEN
 62
     7
370
    18
100
AcDbSpline
210
0.0
220
0.0
230
1.0
 70
     8
 71
     3
 72
    17
 73
    13
 74
     0
 42
0.00000001
 43
0.00000001
 40
0.0
 40
0.0
 40
0.0
 40
0.0
 40
3.48679003298706
 40
7.26474946585047
 40
11.0427088987108
 40
14.5294989314911
 40
14.5294989314911
 40
14.52950241828112
 40
18.0162889644782
 40
21.7942483973416
 40
25.5722078302019
 40
29.0589978629823
 40
29.0589978629823
 40
29.0589978629823
 40
29.0589978629823
 10
97.22967439415265
 20
162.9734390389616
 30
0.0
 10
97.23032149217529
 20
161.1855574567503
 30
0.0
 10
96.51985946716594
 20
157.4605281928416
 30
0.0
 10
93.34632344035383
 20
152.6271153977533
 30
0.0
 10
88.51291064608623
 20
149.4535793716771
 30
0.0
 10
84.78788138169229
 20
148.7431173462561
 30
0.0
 10
82.99999980003052
 20
148.7437644333351
 30
0.0
 10
81.21211821766019
 20
148.7431173463398
 30
0.0
 10
77.48708895375177
 20
149.4535793713493
 30
0.0
 10
72.65367615866346
 20
152.6271153981614
 30
0.0
 10
69.48014013258728
 20
157.460528192429
 30
0.0
 10
68.76967810716613
 20
161.1855574568229
 30
0.0
 10
68.77032519424498
 20
162.9734390384847
 30
0.0
  0
SPLINE
  5
141
330
1F
100
AcDbEntity
  8
0
  6
HIDDEN
 62
     7
370
    18
100
AcDbSpline
210
0.0
220
0.0
230
1.0
 70
     8
 71
     3
 72
    17
 73
    13
 74
     0
 42
0.00000001
 43
0.00000001
 40
29.0589978629823
 40
29.0589978629823
 40
29.0589978629823
 40
29.0589978629823
 40
32.5457878959693
 40
36.3237473288296
 40
40.101706761693
 40
43.5884967944734
 40
43.5884967944734
 40
43.58850028126345
 40
47.0752868274605
 40
50.8532462603207
 40
54.6312056931842
 40
58.1179957259883
 40
58.1179957259883
 40
58.1179957259883
 40
58.1179957259883
 10
68.77032519426535
 20
162.9734390384847
 30
0.0
 10
68.76967810716525
 20
164.7613206207585
 30
0.0
 10
69.48014013250663
 20
168.4863498849665
 30
0.0
 10
72.65367615873656
 20
173.3197626794875
 30
0.0
 10
77.48708895355783
 20
176.4932987061367
 30
0.0
 10
81.21211821764153
 20
177.2037607312241
 30
0.0
 10
82.99999979939473
 20
177.2031136442497
 30
0.0
 10
84.78788138300484
 20
177.2037607313672
 30
0.0
 10
88.51291064307287
 20
176.4932987059726
 30
0.0
 10
93.34632344444871
 20
173.3197626798302
 30
0.0
 10
96.5198594593255
 20
168.4863498848483
 30
0.0
 10
97.2303215053627
 20
164.7613206210181
 30
0.0
 10
97.2296743941323
 20
162.9734390389616
 30
0.0
  0
LINE
  5
142
330
1F
100
AcDbEntity
  8
0
  6
Continuous
 62
     7
370
    25
100
AcDbLine
 10
198.1073224012
 20
51.1933114562
 30
0.0
 11
198.1073224012
 21
43.6183371046
 31
0.0
  0
SPLINE
  5
143
330
1F
100
AcDbEntity
  8
0
  6
Continuous
 62
     7
370
    25
100
AcDbSpline
210
0.0
220
0.0
230
1.0
 70
     8
 71
     3
 72
    15
 73
    11
 74
     0
 42
0.00000001
 43
0.00000001
 40
0.0
 40
0.0
 40
0.0
 40
0.0
 40
0.1150581840270685
 40
0.2363364783815742
 40
0.3629860829495957
 40
0.4947999192442119
 40
0.6287947986967743
 40
0.7601376909261296
 40
0.8846651854661437
 40
1.0
 40
1.0
 40
1.0
 40
1.0
 10
198.1078496333773
 20
43.61833710459957
 30
0.0
 10
198.1119301475854
 20
43.54275356713998
 30
0.0
 10
198.1203117709012
 20
43.38750040355261
 30
0.0
 10
198.1901456424755
 20
43.15554512541137
 30
0.0
 10
198.3058388298262
 20
42.93234823995464
 30
0.0
 10
198.4678666216919
 20
42.73687344333826
 30
0.0
 10
198.6692651350544
 20
42.57950733298699
 30
0.0
 10
198.8983318470418
 20
42.46790898286358
 30
0.0
 10
199.137916881002
 20
42.40003662343
 30
0.0
 10
199.2932971932523
 20
42.39168048938627
 30
0.0
 10
199.3680098880679
 20
42.38766254603421
 30
0.0
  0
LINE
  5
144
330
1F
100
AcDbEntity
  8
0
  6
Continuous
 62
     7
370
    25
100
AcDbLine
 10
207.4423229218
 20
65.4628105191
 30
0.0
 11
206.65430298
 21
65.4628105191
 31
0.0
  0
LINE
  5
145
330
1F
100
AcDbEntity
  8
0
  6
Continuous
 62
     7
370
    25
100
AcDbLine
 10
207.4423229218
 20
67.7703253164
 30
0.0
 11
207.4423229218
 21
65.4628105191
 31
0.0
  0
LINE
  5
146
330
1F
100
AcDbEntity
  8
0
  6
Continuous
 62
     7
370
    25
100
AcDbLine
 10
206.65430298
 20
67.7703253164
 30
0.0
 11
207.4423229218
 21
67.7703253164
 31
0.0
  0
SPLINE
  5
147
330
1F
100
AcDbEntity
  8
0
  6
Continuous
 62
     7
370
    25
100
AcDbSpline
210
0.0
220
0.0
230
1.0
 70
    24
 71
     3
 72
     8
 73
     4
 74
     0
 42
0.00000001
 43
0.00000001
 40
0.0
 40
0.0
 40
0.0
 40
0.0
 40
1.0
 40
1.0
 40
1.0
 40
1.0
 10
207.4423229217502
 20
71.61618331196128
 30
0.0
 10
207.1380305794064
 20
71.61618331196128
 30
0.0
 10
206.8727815545496
 20
71.61618331196128
 30
0.0
 10
206.6543029800412
 20
71.61618331196128
 30
0.0
  0
SPLINE
  5
148
330
1F
100
AcDbEntity
  8
0
  6
Continuous
 62
     7
370
    25
100
AcDbSpline
210
0.0
220
0.0
230
1.0
 70
     8
 71
     3
 72
    20
 73
    16
 74
     0
 42
0.00000001
 43
0.00000001
 40
0.0
 40
0.0
 40
0.0
 40
0.0
 40
0.1249999999999998
 40
0.1249999999999998
 40
0.2499999999999996
 40
0.2499999999999996
 40
0.3749999999999994
 40
0.3749999999999994
 40
0.4999999999999992
 40
0.4999999999999992
 40
0.7499999999999996
 40
0.7499999999999996
 40
0.8749999999999998
 40
0.8749999999999998
 40
1.0
 40
1.0
 40
1.0
 40
1.0
 10
207.4423229217503
 20
71.61618331195845
 30
0.0
 10
207.6416470419232
 20
71.61618331195822
 30
0.0
 10
207.8539019883079
 20
71.58244083631499
 30
0.0
 10
208.3033415928067
 20
71.46706123701217
 30
0.0
 10
208.5427067074388
 20
71.38412750169704
 30
0.0
 10
209.0310667653307
 20
71.18635479826526
 30
0.0
 10
209.2809766302776
 20
71.07149059091091
 30
0.0
 10
209.7925125339004
 20
70.81800799447986
 30
0.0
 10
210.0552741557675
 20
70.67866954735607
 30
0.0
 10
210.854243789492
 20
70.23613735459644
 30
0.0
 10
211.3913557057814
 20
69.91477084411058
 30
0.0
 10
212.2095821157223
 20
69.41147191908658
 30
0.0
 10
212.484398801304
 20
69.2399987096494
 30
0.0
 10
213.03919897448
 20
68.89145946450988
 30
0.0
 10
213.3190863388919
 20
68.7144398492598
 30
0.0
 10
213.5956957145766
 20
68.5394969155454
 30
0.0
  0
SPLINE
  5
149
330
1F
100
AcDbEntity
  8
0
  6
Continuous
 62
     7
370
    25
100
AcDbSpline
210
0.0
220
0.0
230
1.0
 70
     8
 71
     3
 72
    14
 73
    10
 74
     0
 42
0.00000001
 43
0.00000001
 40
0.0
 40
0.0
 40
0.0
 40
0.0
 40
0.5000000000000003
 40
0.5000000000000003
 40
0.75
 40
0.75
 40
0.875
 40
0.875
 40
1.0
 40
1.0
 40
1.0
 40
1.0
 10
246.8362170660199
 20
56.25433621110763
 30
0.0
 10
246.5454879380647
 20
56.77434763042154
 30
0.0
 10
246.2314191939726
 20
57.29742499710711
 30
0.0
 10
245.7416831109815
 20
58.09223913216577
 30
0.0
 10
245.5751898676188
 20
58.35885597015726
 30
0.0
 10
245.3218329937576
 20
58.76198834692914
 30
0.0
 10
245.2366644569991
 20
58.89707550808647
 30
0.0
 10
245.0661181662919
 20
59.16715537759597
 30
0.0
 10
244.979815940609
 20
59.30361078438816
 30
0.0
 10
244.8953325227295
 20
59.43719093492535
 30
0.0
  0
LINE
  5
14A
330
1F
100
AcDbEntity
  8
0
  6
Continuous
 62
     7
370
    25
100
AcDbLine
 10
247.9720189191
 20
71.616183312
 30
0.0
 11
244.8953325227
 21
68.5394969155
 31
0.0
  0
LINE
  5
14B
330
1F
100
AcDbEntity
  8
0
  6
Continuous
 62
     7
370
    25
100
AcDbLine
 10
247.9720189191
 20
71.616183312
 30
0.0
 11
207.4423229218
 21
71.616183312
 31
0.0
  0
LINE
  5
14C
330
1F
100
AcDbEntity
  8
0
  6
Continuous
 62
     7
370
    25
100
AcDbLine
 10
247.9720189191
 20
62.3861241227
 30
0.0
 11
247.9720189191
 21
51.002384456
 31
0.0
  0
ELLIPSE
  5
14D
330
1F
100
AcDbEntity
  8
0
  6
Continuous
 62
     7
370
    25
100
AcDbEllipse
 10
244.8953325227
 20
51.002384456
 30
0.0
 11
1.989519660128281E-13
 21
6.768710072109897
 31
0.0
210
0.0
220
0.0
230
1.0
 40
0.4545454545
 41
4.712388980384891
 42
5.600555129395104
  0
LINE
  5
14E
330
1F
100
AcDbEntity
  8
0
  6
Continuous
 62
     7
370
    25
100
AcDbLine
 10
247.9720189191
 20
71.616183312
 30
0.0
 11
247.9720189191
 21
67.7703253164
 31
0.0
  0
LINE
  5
14F
330
1F
100
AcDbEntity
  8
0
  6
Continuous
 62
     7
370
    25
100
AcDbLine
 10
247.9720189191
 20
65.4628105191
 30
0.0
 11
247.9720189191
 21
67.7703253164
 31
0.0
  0
LINE
  5
150
330
1F
100
AcDbEntity
  8
0
  6
Continuous
 62
     7
370
    25
100
AcDbLine
 10
247.9720189191
 20
62.3861241227
 30
0.0
 11
247.9720189191
 21
65.4628105191
 31
0.0
  0
LINE
  5
151
330
1F
100
AcDbEntity
  8
0
  6
Continuous
 62
     7
370
    25
100
AcDbLine
 10
247.9720189191
 20
44.7276640324
 30
0.0
 11
247.9720189191
 21
51.002384456
 31
0.0
  0
SPLINE
  5
152
330
1F
100
AcDbEntity
  8
0
  6
Continuous
 62
     7
370
    25
100
AcDbSpline
210
0.0
220
0.0
230
1.0
 70
     8
 71
     3
 72
     8
 73
     4
 74
     0
 42
0.00000001
 43
0.00000001
 40
0.0
 40
0.0
 40
0.0
 40
0.0
 40
1.0
 40
1.0
 40
1.0
 40
1.0
 10
198.6753799294349
 20
51.61772174315136
 30
0.0
 10
198.5343960183864
 20
51.61772174315136
 30
0.0
 10
198.3935859192826
 20
51.57519170602254
 30
0.0
 10
198.2573870524683
 20
51.49048664245015
 30
0.0
  0
LINE
  5
153
330
1F
100
AcDbEntity
  8
0
  6
Continuous
 62
     7
370
    25
100
AcDbLine
 10
203.9089044316
 20
51.6177217432
 30
0.0
 11
198.6753799294
 21
51.6177217432
 31
0.0
  0
ELLIPSE
  5
154
330
1F
100
AcDbEntity
  8
0
  6
Continuous
 62
     7
370
    25
100
AcDbEllipse
 10
203.9089044316
 20
54.6944081396
 30
0.0
 11
-8.526512829121202E-14
 21
3.076686396413479
 31
0.0
210
0.0
220
0.0
230
1.0
 40
0.4773598482
 41
3.141592653591003
 42
4.506993591193707
  0
LINE
  5
155
330
1F
100
AcDbEntity
  8
0
  6
Continuous
 62
     7
370
    25
100
AcDbLine
 10
206.1740659004
 20
62.3861241227
 30
0.0
 11
205.3467198079
 21
54.0669048604
 31
0.0
  0
LINE
  5
156
330
1F
100
AcDbEntity
  8
0
  6
Continuous
 62
     7
370
    25
100
AcDbLine
 10
206.1740659004
 20
62.3861241227
 30
0.0
 11
206.1740659004
 21
65.4628105191
 31
0.0
  0
LINE
  5
157
330
1F
100
AcDbEntity
  8
0
  6
Continuous
 62
     7
370
    25
100
AcDbLine
 10
206.65430298
 20
65.4628105191
 30
0.0
 11
206.1740659004
 21
65.4628105191
 31
0.0
  0
LINE
  5
158
330
1F
100
AcDbEntity
  8
0
  6
Continuous
 62
     7
370
    25
100
AcDbLine
 10
206.1740659004
 20
71.616183312
 30
0.0
 11
206.1740659004
 21
67.7703253164
 31
0.0
  0
LINE
  5
159
330
1F
100
AcDbEntity
  8
0
  6
Continuous
 62
     7
370
    25
100
AcDbLine
 10
206.65430298
 20
71.616183312
 30
0.0
 11
206.1740659004
 21
71.616183312
 31
0.0
  0
LINE
  5
15A
330
1F
100
AcDbEntity
  8
0
  6
Continuous
 62
     7
370
    25
100
AcDbLine
 10
206.1740659004
 20
67.7703253164
 30
0.0
 11
206.65430298
 21
67.7703253164
 31
0.0
  0
LINE
  5
15B
330
1F
100
AcDbEntity
  8
0
  6
Continuous
 62
     7
370
    25
100
AcDbLine
 10
247.9720189191
 20
43.8335690666
 30
0.0
 11
247.9720189191
 21
44.7276640324
 31
0.0
  0
LINE
  5
15C
330
1F
100
AcDbEntity
  8
0
  6
Continuous
 62
     7
370
    25
100
AcDbLine
 10
247.9720189191
 20
42.387662546
 30
0.0
 11
205.8032798437
 21
42.387662546
 31
0.0
  0
LINE
  5
15D
330
1F
100
AcDbEntity
  8
0
  6
Continuous
 62
     7
370
    25
100
AcDbLine
 10
247.9720189191
 20
42.387662546
 30
0.0
 11
247.9720189191
 21
43.8335690666
 31
0.0
  0
LINE
  5
15E
330
1F
100
AcDbEntity
  8
0
  6
Continuous
 62
     7
370
    25
100
AcDbLine
 10
199.3680098885
 20
42.387662546
 30
0.0
 11
205.8032798437
 21
42.387662546
 31
0.0
  0
SPLINE
  5
15F
330
1F
100
AcDbEntity
  8
0
  6
Continuous
 62
     7
370
    25
100
AcDbSpline
210
0.0
220
0.0
230
1.0
 70
     8
 71
     3
 72
     9
 73
     5
 74
     0
 42
0.00000001
 43
0.00000001
 40
0.0
 40
0.0
 40
0.0
 40
0.0
 40
0.6941051542640773
 40
1.0
 40
1.0
 40
1.0
 40
1.0
 10
198.2573870524699
 20
51.49048664244786
 30
0.0
 10
198.1948200684152
 20
51.43993594331724
 30
0.0
 10
198.1046795707249
 20
51.36710735413291
 30
0.0
 10
198.1188762248941
 20
51.23402167843458
 30
0.0
 10
198.1232189082312
 20
51.19331145619717
 30
0.0
  0
LWPOLYLINE
  5
160
330
1F
100
AcDbEntity
  8
0
  6
HIDDEN
 62
     7
370
    18
100
AcDbPolyline
 90
        2
 70
   128
 43
0.0
 10
247.9720189191
 20
71.616183312
 10
247.9720189191
 20
71.616183312
  0
LINE
  5
161
330
1F
100
AcDbEntity
  8
0
  6
HIDDEN
 62
     7
370
    18
100
AcDbLine
 10
207.4423229218
 20
65.4628105191
 30
0.0
 11
247.9720189191
 21
65.4628105191
 31
0.0
  0
LINE
  5
162
330
1F
100
AcDbEntity
  8
0
  6
HIDDEN
 62
     7
370
    18
100
AcDbLine
 10
247.9720189191
 20
67.7703253164
 30
0.0
 11
207.4423229218
 21
67.7703253164
 31
0.0
  0
LINE
  5
163
330
1F
100
AcDbEntity
  8
0
  6
HIDDEN
 62
     7
370
    18
100
AcDbLine
 10
247.9720189191
 20
62.3861241227
 30
0.0
 11
206.1740659004
 21
62.3861241227
 31
0.0
  0
LINE
  5
164
330
1F
100
AcDbEntity
  8
0
  6
HIDDEN
 62
     7
370
    18
100
AcDbLine
 10
247.9720189191
 20
51.6177217432
 30
0.0
 11
203.9089044316
 21
51.6177217432
 31
0.0
  0
LINE
  5
165
330
1F
100
AcDbEntity
  8
0
  6
HIDDEN
 62
     7
370
    18
100
AcDbLine
 10
227.9735573425
 20
45.4643489424
 30
0.0
 11
199.4845230347
 21
45.4643489424
 31
0.0
  0
LINE
  5
166
330
1F
100
AcDbEntity
  8
0
  6
HIDDEN
 62
     7
370
    18
100
AcDbLine
 10
227.9735573425
 20
45.4643489424
 30
0.0
 11
247.9720189191
 21
45.4643489424
 31
0.0
  0
SPLINE
  5
167
330
1F
100
AcDbEntity
  8
0
  6
HIDDEN
 62
     7
370
    18
100
AcDbSpline
210
0.0
220
0.0
230
1.0
 70
     8
 71
     3
 72
    13
 73
     9
 74
     0
 42
0.00000001
 43
0.00000001
 40
0.0
 40
0.0
 40
0.0
 40
0.0
 40
0.086389660925249
 40
0.3080673431416889
 40
0.462811035874062
 40
0.621872001539643
 40
0.8088244144453326
 40
1.0
 40
1.0
 40
1.0
 40
1.0
 10
198.1232189082312
 20
51.19331145619717
 30
0.0
 10
198.1215400443459
 20
51.14613011549365
 30
0.0
 10
198.1155531805121
 20
50.97788046477478
 30
0.0
 10
198.2813829835931
 20
50.62468802918389
 30
0.0
 10
198.5238929564287
 20
50.19167361959929
 30
0.0
 10
198.7986989256846
 20
49.76088425826267
 30
0.0
 10
199.1219458679608
 20
49.284210432279
 30
0.0
 10
199.3629037493152
 20
48.94187235144231
 30
0.0
 10
199.4847282750036
 20
48.76879158691786
 30
0.0
  0
SPLINE
  5
168
330
1F
100
AcDbEntity
  8
0
  6
HIDDEN
 62
     7
370
    18
100
AcDbSpline
210
0.0
220
0.0
230
1.0
 70
     8
 71
     3
 72
    18
 73
    14
 74
     0
 42
0.00000001
 43
0.00000001
 40
0.0
 40
0.0
 40
0.0
 40
0.0
 40
0.2499999999999994
 40
0.2499999999999994
 40
0.4999999999999989
 40
0.4999999999999989
 40
0.6249999999999991
 40
0.6249999999999991
 40
0.7499999999999994
 40
0.7499999999999994
 40
0.8749999999999997
 40
0.8749999999999997
 40
1.0
 40
1.0
 40
1.0
 40
1.0
 10
202.6031327664514
 20
51.61772172909063
 30
0.0
 10
202.2444955416512
 20
51.61775182139592
 30
0.0
 10
201.8978245320654
 20
51.57064244600707
 30
0.0
 10
201.2290760262046
 20
51.36639082452656
 30
0.0
 10
200.9029300310772
 20
51.20586164337572
 30
0.0
 10
200.4649055287827
 20
50.86408317224515
 30
0.0
 10
200.3255709740775
 20
50.73200045222904
 30
0.0
 10
200.0693676185669
 20
50.42995019061377
 30
0.0
 10
199.9541643508903
 20
50.26245088924192
 30
0.0
 10
199.7531694670918
 20
49.88797923955926
 30
0.0
 10
199.6681785072697
 20
49.68082917655842
 30
0.0
 10
199.5425824052458
 20
49.24359317217404
 30
0.0
 10
199.5006147719218
 20
49.00854582238934
 30
0.0
 10
199.4844757209807
 20
48.7687613602957
 30
0.0
  0
LINE
  5
169
330
1F
100
AcDbEntity
  8
0
  6
HIDDEN
 62
     7
370
    18
100
AcDbLine
 10
199.4844995872
 20
48.7687451942
 30
0.0
 11
199.4844995878
 21
45.4643489424
 31
0.0
  0
SPLINE
  5
16A
330
1F
100
AcDbEntity
  8
0
  6
HIDDEN
 62
     7
370
    18
100
AcDbSpline
210
0.0
220
0.0
230
1.0
 70
    24
 71
     3
 72
     8
 73
     4
 74
     0
 42
0.00000001
 43
0.00000001
 40
0.0
 40
0.0
 40
0.0
 40
0.0
 40
1.0
 40
1.0
 40
1.0
 40
1.0
 10
199.6456655993753
 20
45.46434894244759
 30
0.0
 10
199.5918894513041
 20
45.46434894244761
 30
0.0
 10
199.5380395001926
 20
45.46434894244761
 30
0.0
 10
199.4845583716126
 20
45.46434894244759
 30
0.0
  0
SPLINE
  5
16B
330
1F
100
AcDbEntity
  8
0
  6
HIDDEN
 62
     7
370
    18
100
AcDbSpline
210
0.0
220
0.0
230
1.0
 70
    24
 71
     3
 72
    12
 73
     8
 74
     0
 42
0.00000001
 43
0.00000001
 40
0.0
 40
0.0
 40
0.0
 40
0.0
 40
0.1641935406105041
 40
0.3293626697877638
 40
0.5003832561452993
 40
0.7480470603259524
 40
1.0
 40
1.0
 40
1.0
 40
1.0
 10
199.3680098884924
 20
42.38766254603421
 30
0.0
 10
199.3613327733815
 20
42.38766254603421
 30
0.0
 10
199.3479388697525
 20
42.38766254603422
 30
0.0
 10
199.3385604021849
 20
42.38766254603421
 30
0.0
 10
199.3370753870234
 20
42.38766254603422
 30
0.0
 10
199.3485613786589
 20
42.38766254603421
 30
0.0
 10
199.3730742983111
 20
42.38766254603422
 30
0.0
 10
199.3854359780233
 20
42.38766254603421
 30
0.0
  0
SPLINE
  5
16C
330
1F
100
AcDbEntity
  8
0
  6
HIDDEN
 62
     7
370
    18
100
AcDbSpline
210
0.0
220
0.0
230
1.0
 70
     8
 71
     3
 72
    14
 73
    10
 74
     0
 42
0.00000001
 43
0.00000001
 40
0.0
 40
0.0
 40
0.0
 40
0.0
 40
0.2500000000000009
 40
0.2500000000000009
 40
0.5000000000000018
 40
0.5000000000000018
 40
0.7500000000000009
 40
0.7500000000000009
 40
1.0
 40
1.0
 40
1.0
 40
1.0
 10
214.8976401577672
 20
43.61833710459957
 30
0.0
 10
214.8976401577779
 20
43.47330071696701
 30
0.0
 10
214.9240734951991
 20
43.3168245954737
 30
0.0
 10
215.0440223236068
 20
43.01384002532485
 30
0.0
 10
215.1379443130201
 20
42.86827085639426
 30
0.0
 10
215.3782484682354
 20
42.62796670121423
 30
0.0
 10
215.5238176371836
 20
42.53404471181862
 30
0.0
 10
215.8268022073636
 20
42.41409588344205
 30
0.0
 10
215.9832783288704
 20
42.38766254603421
 30
0.0
 10
216.1283147165136
 20
42.38766254603421
 30
0.0
  0
SPLINE
  5
16D
330
1F
100
AcDbEntity
  8
0
  6
HIDDEN
 62
     7
370
    18
100
AcDbSpline
210
0.0
220
0.0
230
1.0
 70
    24
 71
     3
 72
     8
 73
     4
 74
     0
 42
0.00000001
 43
0.00000001
 40
0.0
 40
0.0
 40
0.0
 40
0.0
 40
1.0
 40
1.0
 40
1.0
 40
1.0
 10
214.8087672676832
 20
43.61833710459957
 30
0.0
 10
214.8677523401692
 20
43.61833710459957
 30
0.0
 10
214.8977495590509
 20
43.61833710459957
 30
0.0
 10
214.8976401577674
 20
43.61833710459957
 30
0.0
  0
LINE
  5
16E
330
1F
100
AcDbEntity
  8
0
  6
HIDDEN
 62
     7
370
    18
100
AcDbLine
 10
214.8976401578
 20
43.6183371046
 30
0.0
 11
214.8976401578
 21
45.4643489424
 31
0.0
  0
LWPOLYLINE
  5
16F
330
1F
100
AcDbEntity
  8
0
  6
HIDDEN
 62
     7
370
    18
100
AcDbPolyline
 90
        2
 70
   128
 43
0.0
 10
214.8976401578
 20
43.6183371046
 10
214.8976401578
 20
43.6183371046
  0
SPLINE
  5
170
330
1F
100
AcDbEntity
  8
0
  6
HIDDEN
 62
     7
370
    18
100
AcDbSpline
210
0.0
220
0.0
230
1.0
 70
     8
 71
     3
 72
    17
 73
    13
 74
     0
 42
0.00000001
 43
0.00000001
 40
0.0
 40
0.0
 40
0.0
 40
0.0
 40
0.0741006837465475
 40
0.1799220990434033
 40
0.2888123328678961
 40
0.3946334610338392
 40
0.5035234391614827
 40
0.6093444324434654
 40
0.7182342066694857
 40
0.8240553104928428
 40
0.9329452150292412
 40
1.0
 40
1.0
 40
1.0
 40
1.0
 10
240.6244131745531
 20
43.92600283321737
 30
0.0
 10
240.6240646775097
 20
43.92594406018212
 30
0.0
 10
240.6232185001685
 20
43.92580135478
 30
0.0
 10
240.2059560478928
 20
43.92620482663143
 30
0.0
 10
239.4478379221897
 20
43.92625491787832
 30
0.0
 10
238.3417001537899
 20
43.92498861004199
 30
0.0
 10
236.9562022445311
 20
43.92744798230833
 30
0.0
 10
235.3009592078305
 20
43.92489966785498
 30
0.0
 10
233.4537939477279
 20
43.92640596685104
 30
0.0
 10
231.4336740298833
 20
43.92609635289638
 30
0.0
 10
229.5872671566933
 20
43.92586161111547
 30
0.0
 10
228.418768797879
 20
43.92596597125064
 30
0.0
 10
227.9734390388027
 20
43.92600574424091
 30
0.0
  0
SPLINE
  5
171
330
1F
100
AcDbEntity
  8
0
  6
HIDDEN
 62
     7
370
    18
100
AcDbSpline
210
0.0
220
0.0
230
1.0
 70
     8
 71
     3
 72
    17
 73
    13
 74
     0
 42
0.00000001
 43
0.00000001
 40
0.0
 40
0.0
 40
0.0
 40
0.0
 40
0.1058786850099868
 40
0.2148278027404475
 40
0.3207064952942533
 40
0.4296556140207061
 40
0.5355344607784349
 40
0.6444838159554348
 40
0.7503627139284299
 40
0.8593120747463192
 40
0.9651914094394557
 40
1.0
 40
1.0
 40
1.0
 40
1.0
 10
227.9734390388027
 20
43.92600574424091
 30
0.0
 10
227.2700756531895
 20
43.925838098308
 30
0.0
 10
225.8429516702546
 20
43.92549794478793
 30
0.0
 10
223.7717949822676
 20
43.92687126003037
 30
0.0
 10
221.8015271967531
 20
43.92535198701541
 30
0.0
 10
220.0235824613592
 20
43.9258575514881
 30
0.0
 10
218.4556410179167
 20
43.92692112239975
 30
0.0
 10
217.1726695409051
 20
43.92475558983429
 30
0.0
 10
216.179051623518
 20
43.92704481522197
 30
0.0
 10
215.5537215921888
 20
43.92547455552261
 30
0.0
 10
215.2655647075126
 20
43.92613896277911
 30
0.0
 10
215.3111791189813
 20
43.92602983362516
 30
0.0
 10
215.3224649018203
 20
43.92600283321251
 30
0.0
  0
LWPOLYLINE
  5
172
330
1F
100
AcDbEntity
  8
0
  6
HIDDEN
 62
     7
370
    18
100
AcDbPolyline
 90
        2
 70
   128
 43
0.0
 10
214.8976401578
 20
43.6183371046
 10
214.8976401578
 20
43.6183371046
  0
SPLINE
  5
173
330
1F
100
AcDbEntity
  8
0
  6
HIDDEN
 62
     7
370
    18
100
AcDbSpline
210
0.0
220
0.0
230
1.0
 70
    24
 71
     3
 72
    12
 73
     8
 74
     0
 42
0.00000001
 43
0.00000001
 40
0.0
 40
0.0
 40
0.0
 40
0.0
 40
0.1641580695303347
 40
0.3292915215430449
 40
0.5002751726679425
 40
0.7511411179593781
 40
1.0
 40
1.0
 40
1.0
 40
1.0
 10
199.3854359784146
 20
42.38766254603421
 30
0.0
 10
199.376977306616
 20
42.38766254603422
 30
0.0
 10
199.3600097038976
 20
42.38766254603422
 30
0.0
 10
199.3446815133732
 20
42.38766254603421
 30
0.0
 10
199.3361849253842
 20
42.38766254603422
 30
0.0
 10
199.3390889085138
 20
42.38766254603421
 30
0.0
 10
199.3583954089696
 20
42.38766254603421
 30
0.0
 10
199.3680098884926
 20
42.38766254603421
 30
0.0
  0
LWPOLYLINE
  5
174
330
1F
100
AcDbEntity
  8
0
  6
HIDDEN
 62
     7
370
    18
100
AcDbPolyline
 90
        2
 70
   128
 43
0.0
 10
247.9720189191
 20
71.616183312
 10
247.9720189191
 20
71.616183312
  0
LINE
  5
175
330
1F
100
AcDbEntity
  8
0
  6
HIDDEN
 62
     7
370
    18
100
AcDbLine
 10
241.0494745271
 20
45.4643489424
 30
0.0
 11
241.0494745271
 21
42.387662546
 31
0.0
  0
SPLINE
  5
176
330
1F
100
AcDbEntity
  8
0
  6
HIDDEN
 62
     7
370
    18
100
AcDbSpline
210
0.0
220
0.0
230
1.0
 70
     8
 71
     3
 72
    11
 73
     7
 74
     0
 42
0.00000001
 43
0.00000001
 40
0.0
 40
0.0
 40
0.0
 40
0.0
 40
0.2590414289839312
 40
0.5164960387596232
 40
0.7652993339008077
 40
0.9999999999999999
 40
0.9999999999999999
 40
0.9999999999999999
 40
0.9999999999999999
 10
215.6769769910117
 20
42.47341172425503
 30
0.0
 10
215.5637027970489
 20
42.52916800294931
 30
0.0
 10
215.3378482968442
 20
42.64033901213705
 30
0.0
 10
215.0648189143026
 20
42.93075416471869
 30
0.0
 10
214.878418323029
 20
43.2690286144184
 30
0.0
 10
214.8315283988596
 20
43.50418727570844
 30
0.0
 10
214.808767269028
 20
43.61833710459957
 30
0.0
  0
LINE
  5
177
330
1F
100
AcDbEntity
  8
0
  6
HIDDEN
 62
     7
370
    18
100
AcDbLine
 10
205.6675809685
 20
45.4643489424
 30
0.0
 11
205.6675809685
 21
43.6183371046
 31
0.0
  0
SPLINE
  5
178
330
1F
100
AcDbEntity
  8
0
  6
HIDDEN
 62
     7
370
    18
100
AcDbSpline
210
0.0
220
0.0
230
1.0
 70
     8
 71
     3
 72
    13
 73
     9
 74
     0
 42
0.00000001
 43
0.00000001
 40
0.0
 40
0.0
 40
0.0
 40
0.0
 40
0.2394568819879589
 40
0.368360672002845
 40
0.4999999760258949
 40
0.6316392837684783
 40
0.7605430842488888
 40
1.0
 40
1.0
 40
1.0
 40
1.0
 10
205.6675804515799
 20
43.61833710459957
 30
0.0
 10
205.6840197874188
 20
43.46352278893393
 30
0.0
 10
205.7093087026783
 20
43.22536924379121
 30
0.0
 10
205.862770938955
 20
42.93884834857714
 30
0.0
 10
206.0216040401037
 20
42.74168600018935
 30
0.0
 10
206.2187664633624
 20
42.5828529579212
 30
0.0
 10
206.5052874762487
 20
42.42939077828532
 30
0.0
 10
206.743441134265
 20
42.40410187465653
 30
0.0
 10
206.8982555265456
 20
42.38766254603421
 30
0.0
  0
LINE
  5
179
330
1F
100
AcDbEntity
  8
0
  6
HIDDEN
 62
     7
370
    18
100
AcDbLine
 10
242.2031145633
 20
42.387662546
 30
0.0
 11
240.6546368519
 21
43.9361401353
 31
0.0
  0
LINE
  5
17A
330
1F
100
AcDbEntity
  8
0
  6
HIDDEN
 62
     7
370
    18
100
AcDbLine
 10
215.2922412257
 20
43.9361401354
 30
0.0
 11
213.7437635143
 21
42.387662546
 31
0.0
  0
LINE
  5
17B
330
1F
100
AcDbEntity
  8
0
  6
HIDDEN
 62
     7
370
    18
100
AcDbLine
 10
240.664770424
 20
43.9260024919
 30
0.0
 11
240.664770424
 21
45.4643489424
 31
0.0
  0
LINE
  5
17C
330
1F
100
AcDbEntity
  8
0
  6
HIDDEN
 62
     7
370
    18
100
AcDbLine
 10
215.2821076536
 20
45.4643489424
 30
0.0
 11
215.2821076536
 21
43.9260024919
 31
0.0
  0
SPLINE
  5
17D
330
1F
100
AcDbEntity
  8
0
  6
HIDDEN
 62
     7
370
    18
100
AcDbSpline
210
0.0
220
0.0
230
1.0
 70
     8
 71
     3
 72
    14
 73
    10
 74
     0
 42
0.00000001
 43
0.00000001
 40
0.0
 40
0.0
 40
0.0
 40
0.0
 40
0.1783217745732659
 40
0.4090163103936894
 40
0.6345941501267096
 40
0.739147205725529
 40
0.8352561313891426
 40
0.9220946481286446
 40
1.0
 40
1.0
 40
1.0
 40
1.0
 10
198.368771927581
 20
42.8709728589134
 30
0.0
 10
198.4201221477328
 20
42.81381323124241
 30
0.0
 10
198.5379040486512
 20
42.68270630350228
 30
0.0
 10
198.793036940613
 20
42.55797520221316
 30
0.0
 10
199.0732120832391
 20
42.47307250825676
 30
0.0
 10
199.2976883973894
 20
42.42758951580599
 30
0.0
 10
199.4442840529545
 20
42.40456031791248
 30
0.0
 10
199.5666926443018
 20
42.39041288499237
 30
0.0
 10
199.6203104134038
 20
42.38854557431625
 30
0.0
 10
199.6456655978102
 20
42.38766254603421
 30
0.0
  0
ENDSEC
  0
SECTION
  2
OBJECTS
  0
DICTIONARY
  5
C
330
0
100
AcDbDictionary
281
     1
  3
ACAD_GROUP
350
D
  3
ACAD_LAYOUT
350
1A
  3
ACAD_MLINESTYLE
350
17
  3
ACAD_PLOTSETTINGS
350
19
  3
ACAD_PLOTSTYLENAME
350
E
  3
ACAD_SCALELIST
350
47
  3
DWGPROPS
350
17E
  0
DICTIONARY
  5
D
102
{ACAD_REACTORS
330
C
102
}
330
C
100
AcDbDictionary
281
     1
  0
DICTIONARY
  5
1A
102
{ACAD_REACTORS
330
C
102
}
330
C
100
AcDbDictionary
281
     1
  3
Layout1
350
1E
  3
Layout2
350
26
  3
Model
350
22
  0
DICTIONARY
  5
17
102
{ACAD_REACTORS
330
C
102
}
330
C
100
AcDbDictionary
281
     1
  3
Standard
350
18
  0
DICTIONARY
  5
19
102
{ACAD_REACTORS
330
C
102
}
330
C
100
AcDbDictionary
281
     1
  0
ACDBDICTIONARYWDFLT
  5
E
102
{ACAD_REACTORS
330
C
102
}
330
C
100
AcDbDictionary
281
     1
  3
Normal
350
F
100
AcDbDictionaryWithDefault
340
F
  0
DICTIONARY
  5
47
102
{ACAD_REACTORS
330
C
102
}
330
C
100
AcDbDictionary
281
     1
  3
A0
350
48
  3
A1
350
49
  3
A2
350
4A
  3
A3
350
4B
  3
A4
350
4C
  3
A5
350
4D
  3
A6
350
4E
  3
A7
350
4F
  3
A8
350
50
  3
A9
350
51
  3
B0
350
52
  3
B1
350
53
  3
B2
350
54
  3
B3
350
55
  3
B4
350
56
  3
B5
350
57
  3
B6
350
58
  0
XRECORD
  5
17E
102
{ACAD_REACTORS
330
C
102
}
330
C
100
AcDbXrecord
280
     1
  1
DWGPROPS COOKIE
  2

  3

  4

  6

  7

  8

  9

300
=
301
=
302
=
303
=
304
=
305
=
306
=
307
=
308
=
309
=
 40
0.0
 41
2461214.793402535
 42
2461214.793403125
  1

 90
        0
  0
LAYOUT
  5
1E
102
{ACAD_REACTORS
330
1A
102
}
330
1A
100
AcDbPlotSettings
  1

  2
none_device
  4

  6

 40
0.0
 41
0.0
 42
0.0
 43
0.0
 44
0.0
 45
0.0
 46
0.0
 47
0.0
 48
0.0
 49
0.0
140
0.0
141
0.0
142
1.0
143
1.0
 70
   688
 72
     1
 73
     0
 74
     5
  7

 75
    16
147
1.0
148
0.0
149
0.0
100
AcDbLayout
  1
Layout1
 70
     1
 71
     1
 10
0.0
 20
0.0
 11
420.0
 21
297.0
 12
0.0
 22
0.0
 32
0.0
 14
1.0000000000E+20
 24
1.0000000000E+20
 34
1.0000000000E+20
 15
-1.0000000000E+20
 25
-1.0000000000E+20
 35
-1.0000000000E+20
146
0.0
 13
0.0
 23
0.0
 33
0.0
 16
1.0
 26
0.0
 36
0.0
 17
0.0
 27
1.0
 37
0.0
 76
     0
330
1B
  0
LAYOUT
  5
26
102
{ACAD_REACTORS
330
1A
102
}
330
1A
100
AcDbPlotSettings
  1

  2
none_device
  4

  6

 40
0.0
 41
0.0
 42
0.0
 43
0.0
 44
0.0
 45
0.0
 46
0.0
 47
0.0
 48
0.0
 49
0.0
140
0.0
141
0.0
142
1.0
143
1.0
 70
   688
 72
     1
 73
     0
 74
     5
  7

 75
    16
147
1.0
148
0.0
149
0.0
100
AcDbLayout
  1
Layout2
 70
     1
 71
     2
 10
0.0
 20
0.0
 11
0.0
 21
0.0
 12
0.0
 22
0.0
 32
0.0
 14
0.0
 24
0.0
 34
0.0
 15
0.0
 25
0.0
 35
0.0
146
0.0
 13
0.0
 23
0.0
 33
0.0
 16
1.0
 26
0.0
 36
0.0
 17
0.0
 27
1.0
 37
0.0
 76
     0
330
23
  0
LAYOUT
  5
22
102
{ACAD_REACTORS
330
1A
102
}
330
1A
100
AcDbPlotSettings
  1

  2
none_device
  4
Letter_(8.50_x_11.00_Inches)
  6

 40
6.35
 41
6.35
 42
6.35000508
 43
6.35000508
 44
215.9
 45
279.4
 46
0.0
 47
0.0
 48
0.0
 49
0.0
140
0.0
141
0.0
142
1.0
143
1.0
 70
  1712
 72
     1
 73
     0
 74
     0
  7

 75
     0
147
1.0
148
0.0
149
0.0
100
AcDbLayout
  1
Model
 70
     1
 71
     0
 10
0.0
 20
0.0
 11
297.0
 21
210.0
 12
0.0
 22
0.0
 32
0.0
 14
0.0
 24
0.0
 34
0.0
 15
297.0
 25
210.0
 35
0.0
146
0.0
 13
0.0
 23
0.0
 33
0.0
 16
1.0
 26
0.0
 36
0.0
 17
0.0
 27
1.0
 37
0.0
 76
     0
330
1F
331
29
  0
MLINESTYLE
  5
18
102
{ACAD_REACTORS
330
17
102
}
330
17
100
AcDbMlineStyle
  2
Standard
 70
     0
  3

 62
   256
 51
90.0
 52
90.0
 71
     2
 49
0.5
 62
   256
  6
BYLAYER
 49
-0.5
 62
   256
  6
BYLAYER
  0
ACDBPLACEHOLDER
  5
F
102
{ACAD_REACTORS
330
E
102
}
330
E
  0
SCALE
  5
48
102
{ACAD_REACTORS
330
47
102
}
330
47
100
AcDbScale
 70
     0
300
1:1
140
1.0
141
1.0
290
     1
  0
SCALE
  5
49
102
{ACAD_REACTORS
330
47
102
}
330
47
100
AcDbScale
 70
     0
300
1:2
140
1.0
141
2.0
290
     0
  0
SCALE
  5
4A
102
{ACAD_REACTORS
330
47
102
}
330
47
100
AcDbScale
 70
     0
300
1:4
140
1.0
141
4.0
290
     0
  0
SCALE
  5
4B
102
{ACAD_REACTORS
330
47
102
}
330
47
100
AcDbScale
 70
     0
300
1:5
140
1.0
141
5.0
290
     0
  0
SCALE
  5
4C
102
{ACAD_REACTORS
330
47
102
}
330
47
100
AcDbScale
 70
     0
300
1:8
140
1.0
141
8.0
290
     0
  0
SCALE
  5
4D
102
{ACAD_REACTORS
330
47
102
}
330
47
100
AcDbScale
 70
     0
300
1:10
140
1.0
141
10.0
290
     0
  0
SCALE
  5
4E
102
{ACAD_REACTORS
330
47
102
}
330
47
100
AcDbScale
 70
     0
300
1:16
140
1.0
141
16.0
290
     0
  0
SCALE
  5
4F
102
{ACAD_REACTORS
330
47
102
}
330
47
100
AcDbScale
 70
     0
300
1:20
140
1.0
141
20.0
290
     0
  0
SCALE
  5
50
102
{ACAD_REACTORS
330
47
102
}
330
47
100
AcDbScale
 70
     0
300
1:30
140
1.0
141
30.0
290
     0
  0
SCALE
  5
51
102
{ACAD_REACTORS
330
47
102
}
330
47
100
AcDbScale
 70
     0
300
1:40
140
1.0
141
40.0
290
     0
  0
SCALE
  5
52
102
{ACAD_REACTORS
330
47
102
}
330
47
100
AcDbScale
 70
     0
300
1:50
140
1.0
141
50.0
290
     0
  0
SCALE
  5
53
102
{ACAD_REACTORS
330
47
102
}
330
47
100
AcDbScale
 70
     0
300
1:100
140
1.0
141
100.0
290
     0
  0
SCALE
  5
54
102
{ACAD_REACTORS
330
47
102
}
330
47
100
AcDbScale
 70
     0
300
2:1
140
2.0
141
1.0
290
     0
  0
SCALE
  5
55
102
{ACAD_REACTORS
330
47
102
}
330
47
100
AcDbScale
 70
     0
300
4:1
140
4.0
141
1.0
290
     0
  0
SCALE
  5
56
102
{ACAD_REACTORS
330
47
102
}
330
47
100
AcDbScale
 70
     0
300
8:1
140
8.0
141
1.0
290
     0
  0
SCALE
  5
57
102
{ACAD_REACTORS
330
47
102
}
330
47
100
AcDbScale
 70
     0
300
10:1
140
10.0
141
1.0
290
     0
  0
SCALE
  5
58
102
{ACAD_REACTORS
330
47
102
}
330
47
100
AcDbScale
 70
     0
300
100:1
140
100.0
141
1.0
290
     0
  0
ENDSEC
  0
EOF
