<?xml version="1.0" encoding="UTF-8"?>
<svg xmlns="http://www.w3.org/2000/svg" xmlns:xlink="http://www.w3.org/1999/xlink" width="841.89pt" height="595.276pt" viewBox="0 0 841.89 595.276" version="1.2">
<g id="surface1">
<path style="fill:none;stroke-width:0.51024;stroke-linecap:butt;stroke-linejoin:miter;stroke:rgb(0%,0%,0%);stroke-opacity:1;stroke-dasharray:3.60001,1.8;stroke-dashoffset:1.83923;stroke-miterlimit:10;" d="M 231.246369 149.938144 L 223.185796 163.900417 " transform="matrix(0.998785,0,0,-0.998785,0.456416,594.552879)"/>
<path style="fill:none;stroke-width:0.51024;stroke-linecap:butt;stroke-linejoin:miter;stroke:rgb(0%,0%,0%);stroke-opacity:1;stroke-dasharray:3.60001,1.8;stroke-dashoffset:1.1438;stroke-miterlimit:10;" d="M 205.672334 135.979782 L 223.185796 135.979782 " transform="matrix(0.998785,0,0,-0.998785,0.456416,594.552879)"/>
<path style="fill:none;stroke-width:0.51024;stroke-linecap:butt;stroke-linejoin:miter;stroke:rgb(0%,0%,0%);stroke-opacity:1;stroke-dasharray:3.60001,1.8;stroke-dashoffset:1.81271;stroke-miterlimit:10;" d="M 223.185796 163.900417 L 196.211622 163.900417 " transform="matrix(0.998785,0,0,-0.998785,0.456416,594.552879)"/>
<path style="fill:none;stroke-width:0.51024;stroke-linecap:butt;stroke-linejoin:miter;stroke:rgb(0%,0%,0%);stroke-opacity:1;stroke-dasharray:3.60001,1.8;stroke-dashoffset:1.83923;stroke-miterlimit:10;" d="M 223.185796 135.979782 L 231.246369 149.938144 " transform="matrix(0.998785,0,0,-0.998785,0.456416,594.552879)"/>
<path style="fill:none;stroke-width:0.51024;stroke-linecap:butt;stroke-linejoin:miter;stroke:rgb(0%,0%,0%);stroke-opacity:1;stroke-dasharray:3.60001,1.8;stroke-dashoffset:1.83923;stroke-miterlimit:10;" d="M 247.367515 163.900417 L 239.306942 149.938144 " transform="matrix(0.998785,0,0,-0.998785,0.456416,594.552879)"/>
<path style="fill:none;stroke-width:0.51024;stroke-linecap:butt;stroke-linejoin:miter;stroke:rgb(0%,0%,0%);stroke-opacity:1;stroke-dasharray:3.60001,1.8;stroke-dashoffset:1.83923;stroke-miterlimit:10;" d="M 263.488661 163.900417 L 247.367515 163.900417 " transform="matrix(0.998785,0,0,-0.998785,0.456416,594.552879)"/>
<path style="fill:none;stroke-width:0.51024;stroke-linecap:butt;stroke-linejoin:miter;stroke:rgb(0%,0%,0%);stroke-opacity:1;stroke-dasharray:3.60001,1.8;stroke-dashoffset:1.1438;stroke-miterlimit:10;" d="M 272.245392 148.737467 L 263.488661 163.900417 " transform="matrix(0.998785,0,0,-0.998785,0.456416,594.552879)"/>
<path style="fill:none;stroke-width:0.51024;stroke-linecap:butt;stroke-linejoin:miter;stroke:rgb(0%,0%,0%);stroke-opacity:1;stroke-dasharray:3.60001,1.8;stroke-dashoffset:1.81271;stroke-miterlimit:10;" d="M 239.306942 149.938144 L 252.792073 126.577735 " transform="matrix(0.998785,0,0,-0.998785,0.456416,594.552879)"/>
<path style="fill:none;stroke-width:0.51024;stroke-linecap:butt;stroke-linejoin:miter;stroke:rgb(0%,0%,0%);stroke-opacity:1;stroke-dasharray:3.60001,1.8;stroke-dashoffset:1.81271;stroke-miterlimit:10;" d="M 243.335273 170.881554 L 256.824315 194.241963 " transform="matrix(0.998785,0,0,-0.998785,0.456416,594.552879)"/>
<path style="fill:none;stroke-width:0.51024;stroke-linecap:butt;stroke-linejoin:miter;stroke:rgb(0%,0%,0%);stroke-opacity:1;stroke-dasharray:3.60001,1.8;stroke-dashoffset:1.83923;stroke-miterlimit:10;" d="M 219.153554 184.843828 L 227.214127 170.881554 " transform="matrix(0.998785,0,0,-0.998785,0.456416,594.552879)"/>
<path style="fill:none;stroke-width:0.51024;stroke-linecap:butt;stroke-linejoin:miter;stroke:rgb(0%,0%,0%);stroke-opacity:1;stroke-dasharray:3.60001,1.8;stroke-dashoffset:1.14381;stroke-miterlimit:10;" d="M 227.910285 200.010689 L 219.153554 184.843828 " transform="matrix(0.998785,0,0,-0.998785,0.456416,594.552879)"/>
<path style="fill:none;stroke-width:0.51024;stroke-linecap:butt;stroke-linejoin:miter;stroke:rgb(0%,0%,0%);stroke-opacity:1;stroke-dasharray:3.60001,1.8;stroke-dashoffset:1.83923;stroke-miterlimit:10;" d="M 227.214127 170.881554 L 243.335273 170.881554 " transform="matrix(0.998785,0,0,-0.998785,0.456416,594.552879)"/>
<path style="fill:none;stroke-width:0.51024;stroke-linecap:butt;stroke-linejoin:miter;stroke:rgb(0%,0%,0%);stroke-opacity:1;stroke-dasharray:3.60001,1.8;stroke-dashoffset:4.91936;stroke-miterlimit:10;" d="M 267.689076 156.625956 L 268.009778 159.688269 L 268.041066 162.770138 L 267.786851 165.840274 L 267.243222 168.8713 L 266.418 171.839749 L 265.315098 174.714335 L 263.950159 177.475502 L 262.331004 180.095872 L 260.473279 182.551981 L 258.396537 184.824273 L 256.112513 186.893192 L 253.644671 188.735274 " transform="matrix(0.998785,0,0,-0.998785,0.456416,594.552879)"/>
<path style="fill:none;stroke-width:0.51024;stroke-linecap:butt;stroke-linejoin:miter;stroke:rgb(0%,0%,0%);stroke-opacity:1;stroke-dasharray:3.60001,1.8;stroke-dashoffset:4.91936;stroke-miterlimit:10;" d="M 223.353969 192.118289 L 220.541959 190.866769 L 217.859013 189.353212 L 215.328595 187.597172 L 212.974172 185.610384 L 210.8153 183.412401 L 208.875443 181.018869 L 207.166336 178.457163 L 205.707533 175.746839 L 204.506855 172.907453 L 203.579948 169.970291 L 202.930722 166.95882 L 202.57091 163.900417 " transform="matrix(0.998785,0,0,-0.998785,0.456416,594.552879)"/>
<path style="fill:none;stroke-width:0.51024;stroke-linecap:butt;stroke-linejoin:miter;stroke:rgb(0%,0%,0%);stroke-opacity:1;stroke-dasharray:3.60001,1.8;stroke-dashoffset:4.91936;stroke-miterlimit:10;" d="M 214.784966 135.979782 L 217.276274 134.168988 L 219.927932 132.600677 L 222.712565 131.286581 L 225.610617 130.242343 L 228.59471 129.475787 L 231.633558 128.986912 L 234.707605 128.791362 L 237.785562 128.881315 L 240.843965 129.260682 L 243.851525 129.925552 L 246.784776 130.872014 L 249.612429 132.088336 " transform="matrix(0.998785,0,0,-0.998785,0.456416,594.552879)"/>
<path style="fill:none;stroke-width:0.51024;stroke-linecap:butt;stroke-linejoin:miter;stroke:rgb(0%,0%,0%);stroke-opacity:1;stroke-dasharray:3.60001,1.8;stroke-dashoffset:0.36414;stroke-miterlimit:10;" d="M 229.987027 152.053996 L 228.418715 152.18697 L 226.897336 152.570248 L 225.458088 153.20383 L 224.14008 154.06425 L 222.982424 155.128042 L 222.016407 156.36783 L 221.269405 157.752324 L 220.760975 159.238504 L 220.498938 160.787261 L 220.498938 162.359483 L 220.760975 163.91215 L 221.269405 165.398331 L 222.016407 166.782825 L 222.982424 168.022612 L 224.14008 169.086405 L 225.458088 169.946825 L 226.897336 170.576496 L 228.418715 170.963685 L 229.987027 171.092748 " transform="matrix(0.998785,0,0,-0.998785,0.456416,594.552879)"/>
<path style="fill:none;stroke-width:0.51024;stroke-linecap:butt;stroke-linejoin:miter;stroke:rgb(0%,0%,0%);stroke-opacity:1;stroke-dasharray:3.60001,1.8;stroke-dashoffset:1.91148;stroke-miterlimit:10;" d="M 240.562373 152.053996 L 229.987027 152.053996 " transform="matrix(0.998785,0,0,-0.998785,0.456416,594.552879)"/>
<path style="fill:none;stroke-width:0.51024;stroke-linecap:butt;stroke-linejoin:miter;stroke:rgb(0%,0%,0%);stroke-opacity:1;stroke-dasharray:3.60001,1.8;stroke-dashoffset:1.91148;stroke-miterlimit:10;" d="M 229.987027 171.092748 L 240.562373 171.092748 " transform="matrix(0.998785,0,0,-0.998785,0.456416,594.552879)"/>
<path style="fill:none;stroke-width:0.51024;stroke-linecap:butt;stroke-linejoin:miter;stroke:rgb(0%,0%,0%);stroke-opacity:1;stroke-dasharray:3.60001,1.8;stroke-dashoffset:0.36414;stroke-miterlimit:10;" d="M 240.562373 171.092748 L 242.130685 170.963685 L 243.655975 170.576496 L 245.095223 169.946825 L 246.40932 169.086405 L 247.566976 168.022612 L 248.532993 166.782825 L 249.279994 165.398331 L 249.792335 163.91215 L 250.050461 162.359483 L 250.050461 160.787261 L 249.792335 159.238504 L 249.279994 157.752324 L 248.532993 156.36783 L 247.566976 155.128042 L 246.40932 154.06425 L 245.095223 153.20383 L 243.655975 152.570248 L 242.130685 152.18697 L 240.562373 152.053996 " transform="matrix(0.998785,0,0,-0.998785,0.456416,594.552879)"/>
<path style="fill:none;stroke-width:0.51024;stroke-linecap:butt;stroke-linejoin:miter;stroke:rgb(0%,0%,0%);stroke-opacity:1;stroke-dasharray:3.60001,1.8;stroke-dashoffset:0.85052;stroke-miterlimit:10;" d="M 271.326307 176.806721 L 199.227004 176.806721 " transform="matrix(0.998785,0,0,-0.998785,0.456416,594.552879)"/>
<path style="fill:none;stroke-width:0.51024;stroke-linecap:butt;stroke-linejoin:miter;stroke:rgb(0%,0%,0%);stroke-opacity:1;stroke-dasharray:3.60001,1.8;stroke-dashoffset:0.85052;stroke-miterlimit:10;" d="M 271.326307 146.343934 L 199.227004 146.343934 " transform="matrix(0.998785,0,0,-0.998785,0.456416,594.552879)"/>
<path style="fill:none;stroke-width:0.51024;stroke-linecap:butt;stroke-linejoin:miter;stroke:rgb(0%,0%,0%);stroke-opacity:1;stroke-dasharray:3.60001,1.8;stroke-dashoffset:0.59955;stroke-miterlimit:10;" d="M 267.082871 138.776147 L 267.082871 184.374507 " transform="matrix(0.998785,0,0,-0.998785,0.456416,594.552879)"/>
<path style="fill:none;stroke-width:0.70866;stroke-linecap:round;stroke-linejoin:round;stroke:rgb(0%,0%,0%);stroke-opacity:1;stroke-miterlimit:10;" d="M 221.500155 153.598841 L 233.999714 146.398688 M 233.999714 146.398688 L 233.999714 143.899559 M 233.999714 143.899559 L 219.399947 152.398164 M 221.500155 153.598841 L 219.399947 152.398164 M 221.500155 169.500971 L 221.500155 153.598841 M 219.399947 152.398164 L 219.399947 170.701648 M 221.500155 169.500971 L 219.399947 170.701648 M 233.999714 176.701124 L 221.500155 169.500971 M 219.399947 170.701648 L 233.999714 179.098567 M 233.999714 179.098567 L 233.999714 176.701124 M 236.498843 146.398688 L 248.998402 153.598841 M 251.09861 152.398164 L 248.998402 153.598841 M 251.09861 152.398164 L 236.498843 143.899559 M 236.498843 143.899559 L 236.498843 146.398688 M 251.09861 170.701648 L 251.09861 152.398164 M 248.998402 153.598841 L 248.998402 169.500971 M 251.09861 170.701648 L 248.998402 169.500971 M 236.498843 179.098567 L 251.09861 170.701648 M 248.998402 169.500971 L 236.498843 176.701124 M 236.498843 176.701124 L 236.498843 179.098567 M 236.498843 132.999599 L 239.201345 133.19906 L 241.899935 133.801354 L 244.500751 134.501423 L 246.999881 135.498729 L 249.49901 136.801092 L 251.700904 138.20123 L 253.898886 139.898605 L 255.901319 141.799351 L 257.598693 143.801784 L 259.198293 146.101452 L 260.598431 148.401121 L 261.701333 150.90025 L 262.600864 153.501066 L 263.300933 156.101882 L 263.699855 158.800472 L 263.801541 161.499063 L 263.699855 164.201565 L 263.300933 166.900155 L 262.600864 169.598746 L 261.701333 172.199562 L 260.598431 174.600916 L 259.198293 176.99836 L 257.598693 179.200253 L 255.901319 181.300461 L 253.898886 183.099521 L 251.700904 184.800807 L 249.49901 186.29872 L 246.999881 187.499397 L 244.500751 188.500613 L 241.899935 189.298458 L 239.201345 189.799066 L 236.498843 190.100213 M 236.498843 200.60125 L 239.701953 200.401789 L 242.998927 199.901181 L 246.100351 199.099426 L 249.201774 198.09821 L 252.201512 196.799757 L 255.099564 195.301844 L 257.798154 193.498873 L 260.39897 191.500351 L 262.800325 189.298458 L 264.998307 186.901014 L 267.00074 184.401884 L 268.7998 181.699383 L 270.301624 178.801331 L 271.701763 175.801593 L 272.699068 172.801856 L 273.500823 169.598746 L 274.099206 166.399547 L 274.298667 163.200348 L 274.298667 159.899464 L 274.099206 156.700265 L 273.500823 153.39938 L 272.699068 150.301867 L 271.701763 147.200443 L 270.301624 144.200706 L 268.7998 141.400429 L 267.00074 138.701838 L 264.998307 136.101023 L 262.800325 133.699668 L 260.39897 131.501686 L 257.798154 129.499253 L 255.099564 127.801879 L 252.201512 126.300054 L 249.201774 125.001602 L 246.100351 123.8987 L 242.998927 123.198631 L 239.701953 122.701934 L 236.498843 122.400786 M 236.498843 190.100213 L 236.498843 200.60125 M 236.498843 122.400786 L 236.498843 132.999599 M 233.999714 122.400786 L 230.698829 122.701934 L 227.49963 123.198631 L 224.300431 123.8987 L 221.300694 125.001602 L 218.300956 126.300054 L 215.398993 127.801879 L 212.700402 129.499253 L 210.099587 131.501686 L 207.698232 133.699668 L 205.50025 136.101023 L 203.501728 138.701838 L 201.698757 141.400429 L 200.099157 144.200706 L 198.800705 147.200443 L 197.701714 150.301867 L 196.899959 153.39938 L 196.39935 156.700265 L 196.098203 159.899464 L 196.098203 163.200348 L 196.39935 166.399547 L 196.899959 169.598746 L 197.701714 172.801856 L 198.800705 175.801593 L 200.099157 178.801331 L 201.698757 181.699383 L 203.501728 184.401884 L 205.50025 186.901014 L 207.698232 189.298458 L 210.099587 191.500351 L 212.700402 193.498873 L 215.398993 195.301844 L 218.300956 196.799757 L 221.300694 198.09821 L 224.300431 199.099426 L 227.49963 199.901181 L 230.698829 200.401789 L 233.999714 200.60125 M 233.999714 200.60125 L 233.999714 190.100213 M 233.999714 190.100213 L 231.199437 189.799066 L 228.598621 189.298458 L 226.001717 188.500613 L 223.400901 187.499397 L 220.999546 186.29872 L 218.699878 184.800807 L 216.59967 183.099521 L 214.601149 181.300461 L 212.798177 179.200253 L 211.198578 176.99836 L 209.900126 174.600916 L 208.699448 172.199562 L 207.799918 169.598746 L 207.201535 166.900155 L 206.798702 164.201565 L 206.700927 161.499063 L 206.798702 158.800472 L 207.201535 156.101882 L 207.799918 153.501066 L 208.699448 150.90025 L 209.900126 148.401121 L 211.198578 146.101452 L 212.798177 143.801784 L 214.601149 141.799351 L 216.59967 139.898605 L 218.699878 138.20123 L 220.999546 136.801092 L 223.400901 135.498729 L 226.001717 134.501423 L 228.598621 133.801354 L 231.199437 133.19906 L 233.999714 132.999599 M 233.999714 132.999599 L 233.999714 122.400786 M 236.498843 179.098567 L 236.498843 190.100213 M 236.498843 132.999599 L 236.498843 143.899559 M 233.999714 190.100213 L 233.999714 179.098567 M 233.999714 143.899559 L 233.999714 132.999599 M 233.999714 122.400786 L 236.498843 122.400786 M 236.498843 146.398688 L 235.200391 145.600844 M 235.200391 145.600844 L 233.999714 146.398688 M 236.498843 200.60125 L 236.201607 200.60125 L 235.90046 200.699025 L 234.598097 200.699025 L 234.300861 200.60125 L 233.999714 200.60125 M 233.999714 176.701124 L 235.200391 177.401193 M 235.200391 177.401193 L 236.498843 176.701124 " transform="matrix(0.998785,0,0,-0.998785,0.456416,594.552879)"/>
<path style="fill:none;stroke-width:0.51024;stroke-linecap:butt;stroke-linejoin:miter;stroke:rgb(0%,0%,0%);stroke-opacity:1;stroke-dasharray:3.60001,1.8;stroke-dashoffset:4.94597;stroke-miterlimit:10;" d="M 205.672334 483.835939 L 205.672334 441.526731 " transform="matrix(0.998785,0,0,-0.998785,0.456416,594.552879)"/>
<path style="fill:none;stroke-width:0.51024;stroke-linecap:butt;stroke-linejoin:miter;stroke:rgb(0%,0%,0%);stroke-opacity:1;stroke-dasharray:3.60001,1.8;stroke-dashoffset:0.15849;stroke-miterlimit:10;" d="M 252.792073 441.526731 L 227.910285 441.526731 " transform="matrix(0.998785,0,0,-0.998785,0.456416,594.552879)"/>
<path style="fill:none;stroke-width:0.51024;stroke-linecap:butt;stroke-linejoin:miter;stroke:rgb(0%,0%,0%);stroke-opacity:1;stroke-dasharray:3.60001,1.8;stroke-dashoffset:4.94597;stroke-miterlimit:10;" d="M 252.792073 483.835939 L 252.792073 441.526731 " transform="matrix(0.998785,0,0,-0.998785,0.456416,594.552879)"/>
<path style="fill:none;stroke-width:0.51024;stroke-linecap:butt;stroke-linejoin:miter;stroke:rgb(0%,0%,0%);stroke-opacity:1;stroke-dasharray:3.60001,1.8;stroke-dashoffset:4.94597;stroke-miterlimit:10;" d="M 272.245392 483.835939 L 272.245392 441.526731 " transform="matrix(0.998785,0,0,-0.998785,0.456416,594.552879)"/>
<path style="fill:none;stroke-width:0.51024;stroke-linecap:butt;stroke-linejoin:miter;stroke:rgb(0%,0%,0%);stroke-opacity:1;stroke-dasharray:3.60001,1.8;stroke-dashoffset:4.94598;stroke-miterlimit:10;" d="M 272.245392 411.912632 L 272.245392 369.603423 " transform="matrix(0.998785,0,0,-0.998785,0.456416,594.552879)"/>
<path style="fill:none;stroke-width:0.51024;stroke-linecap:butt;stroke-linejoin:miter;stroke:rgb(0%,0%,0%);stroke-opacity:1;stroke-dasharray:3.60001,1.8;stroke-dashoffset:4.94598;stroke-miterlimit:10;" d="M 252.792073 411.912632 L 252.792073 369.603423 " transform="matrix(0.998785,0,0,-0.998785,0.456416,594.552879)"/>
<path style="fill:none;stroke-width:0.51024;stroke-linecap:butt;stroke-linejoin:miter;stroke:rgb(0%,0%,0%);stroke-opacity:1;stroke-dasharray:3.60001,1.8;stroke-dashoffset:0.15849;stroke-miterlimit:10;" d="M 227.910285 411.912632 L 252.792073 411.912632 " transform="matrix(0.998785,0,0,-0.998785,0.456416,594.552879)"/>
<path style="fill:none;stroke-width:0.51024;stroke-linecap:butt;stroke-linejoin:miter;stroke:rgb(0%,0%,0%);stroke-opacity:1;stroke-dasharray:3.60001,1.8;stroke-dashoffset:4.94598;stroke-miterlimit:10;" d="M 205.672334 411.912632 L 205.672334 369.603423 " transform="matrix(0.998785,0,0,-0.998785,0.456416,594.552879)"/>
<path style="fill:none;stroke-width:0.51024;stroke-linecap:butt;stroke-linejoin:miter;stroke:rgb(0%,0%,0%);stroke-opacity:1;stroke-dasharray:3.60001,1.8;stroke-dashoffset:0.1219;stroke-miterlimit:10;" d="M 227.910285 369.603423 L 219.153554 369.603423 " transform="matrix(0.998785,0,0,-0.998785,0.456416,594.552879)"/>
<path style="fill:none;stroke-width:0.51024;stroke-linecap:butt;stroke-linejoin:miter;stroke:rgb(0%,0%,0%);stroke-opacity:1;stroke-dasharray:3.60001,1.8;stroke-dashoffset:0.1219;stroke-miterlimit:10;" d="M 227.910285 483.835939 L 219.153554 483.835939 " transform="matrix(0.998785,0,0,-0.998785,0.456416,594.552879)"/>
<path style="fill:none;stroke-width:0.51024;stroke-linecap:butt;stroke-linejoin:miter;stroke:rgb(0%,0%,0%);stroke-opacity:1;stroke-dasharray:3.60001,1.8;stroke-dashoffset:0.59299;stroke-miterlimit:10;" d="M 272.245392 441.526731 L 270.004388 438.257134 L 267.689076 435.183087 " transform="matrix(0.998785,0,0,-0.998785,0.456416,594.552879)"/>
<path style="fill:none;stroke-width:0.51024;stroke-linecap:butt;stroke-linejoin:miter;stroke:rgb(0%,0%,0%);stroke-opacity:1;stroke-dasharray:3.60001,1.8;stroke-dashoffset:0.59299;stroke-miterlimit:10;" d="M 267.689076 418.260186 L 270.000477 415.19005 L 272.245392 411.912632 " transform="matrix(0.998785,0,0,-0.998785,0.456416,594.552879)"/>
<path style="fill:none;stroke-width:0.51024;stroke-linecap:butt;stroke-linejoin:miter;stroke:rgb(0%,0%,0%);stroke-opacity:1;stroke-dasharray:3.60001,1.8;stroke-dashoffset:1.43839;stroke-miterlimit:10;" d="M 267.689076 435.183087 L 267.689076 418.260186 " transform="matrix(0.998785,0,0,-0.998785,0.456416,594.552879)"/>
<path style="fill:none;stroke-width:0.51024;stroke-linecap:butt;stroke-linejoin:miter;stroke:rgb(0%,0%,0%);stroke-opacity:1;stroke-dasharray:3.60001,1.8;stroke-dashoffset:1.73853;stroke-miterlimit:10;" d="M 227.214127 483.835939 L 227.214127 440.513782 " transform="matrix(0.998785,0,0,-0.998785,0.456416,594.552879)"/>
<path style="fill:none;stroke-width:0.51024;stroke-linecap:butt;stroke-linejoin:miter;stroke:rgb(0%,0%,0%);stroke-opacity:1;stroke-dasharray:3.60001,1.8;stroke-dashoffset:1.73859;stroke-miterlimit:10;" d="M 227.214127 412.925581 L 227.214127 369.603423 " transform="matrix(0.998785,0,0,-0.998785,0.456416,594.552879)"/>
<path style="fill:none;stroke-width:0.51024;stroke-linecap:butt;stroke-linejoin:miter;stroke:rgb(0%,0%,0%);stroke-opacity:1;stroke-dasharray:3.60001,1.8;stroke-dashoffset:1.38411;stroke-miterlimit:10;" d="M 219.153554 483.835939 L 219.153554 369.603423 " transform="matrix(0.998785,0,0,-0.998785,0.456416,594.552879)"/>
<path style="fill:none;stroke-width:0.51024;stroke-linecap:butt;stroke-linejoin:miter;stroke:rgb(0%,0%,0%);stroke-opacity:1;stroke-dasharray:3.60001,1.8;stroke-dashoffset:0.32494;stroke-miterlimit:10;" d="M 249.025779 348.448819 L 235.2747 348.448819 " transform="matrix(0.998785,0,0,-0.998785,0.456416,594.552879)"/>
<path style="fill:none;stroke-width:0.51024;stroke-linecap:butt;stroke-linejoin:miter;stroke:rgb(0%,0%,0%);stroke-opacity:1;stroke-dasharray:3.60001,1.8;stroke-dashoffset:0.95956;stroke-miterlimit:10;" d="M 249.025779 308.255462 L 236.545775 308.255462 " transform="matrix(0.998785,0,0,-0.998785,0.456416,594.552879)"/>
<path style="fill:none;stroke-width:0.51024;stroke-linecap:butt;stroke-linejoin:miter;stroke:rgb(0%,0%,0%);stroke-opacity:1;stroke-dasharray:3.60001,1.8;stroke-dashoffset:2.02298;stroke-miterlimit:10;" d="M 235.2747 348.448819 L 235.2747 327.294215 " transform="matrix(0.998785,0,0,-0.998785,0.456416,594.552879)"/>
<path style="fill:none;stroke-width:0.51024;stroke-linecap:butt;stroke-linejoin:miter;stroke:rgb(0%,0%,0%);stroke-opacity:1;stroke-dasharray:3.60001,1.8;stroke-dashoffset:0.32494;stroke-miterlimit:10;" d="M 235.2747 348.448819 L 221.523621 348.448819 " transform="matrix(0.998785,0,0,-0.998785,0.456416,594.552879)"/>
<path style="fill:none;stroke-width:0.51024;stroke-linecap:butt;stroke-linejoin:miter;stroke:rgb(0%,0%,0%);stroke-opacity:1;stroke-dasharray:3.60001,1.8;stroke-dashoffset:0.95956;stroke-miterlimit:10;" d="M 234.007536 308.255462 L 221.523621 308.255462 " transform="matrix(0.998785,0,0,-0.998785,0.456416,594.552879)"/>
<path style="fill:none;stroke-width:0.51024;stroke-linecap:butt;stroke-linejoin:miter;stroke:rgb(0%,0%,0%);stroke-opacity:1;stroke-dasharray:3.60001,1.8;stroke-dashoffset:0.85052;stroke-miterlimit:10;" d="M 271.326307 532.488791 L 199.227004 532.488791 " transform="matrix(0.998785,0,0,-0.998785,0.456416,594.552879)"/>
<path style="fill:none;stroke-width:0.51024;stroke-linecap:butt;stroke-linejoin:miter;stroke:rgb(0%,0%,0%);stroke-opacity:1;stroke-dasharray:3.60001,1.8;stroke-dashoffset:0.85052;stroke-miterlimit:10;" d="M 271.326307 515.56589 L 199.227004 515.56589 " transform="matrix(0.998785,0,0,-0.998785,0.456416,594.552879)"/>
<path style="fill:none;stroke-width:0.51024;stroke-linecap:butt;stroke-linejoin:miter;stroke:rgb(0%,0%,0%);stroke-opacity:1;stroke-dasharray:3.60001,1.8;stroke-dashoffset:5.14035;stroke-miterlimit:10;" d="M 220.46765 494.411286 L 229.987027 494.411286 " transform="matrix(0.998785,0,0,-0.998785,0.456416,594.552879)"/>
<path style="fill:none;stroke-width:0.51024;stroke-linecap:butt;stroke-linejoin:miter;stroke:rgb(0%,0%,0%);stroke-opacity:1;stroke-dasharray:3.60001,1.8;stroke-dashoffset:5.14035;stroke-miterlimit:10;" d="M 240.562373 494.411286 L 250.081749 494.411286 " transform="matrix(0.998785,0,0,-0.998785,0.456416,594.552879)"/>
<path style="fill:none;stroke-width:0.51024;stroke-linecap:butt;stroke-linejoin:miter;stroke:rgb(0%,0%,0%);stroke-opacity:1;stroke-dasharray:3.60001,1.8;stroke-dashoffset:1.91148;stroke-miterlimit:10;" d="M 229.987027 494.411286 L 240.562373 494.411286 " transform="matrix(0.998785,0,0,-0.998785,0.456416,594.552879)"/>
<path style="fill:none;stroke-width:0.51024;stroke-linecap:butt;stroke-linejoin:miter;stroke:rgb(0%,0%,0%);stroke-opacity:1;stroke-dasharray:3.60001,1.8;stroke-dashoffset:1.49582;stroke-miterlimit:10;" d="M 221.523621 308.255462 L 219.41168 306.143522 " transform="matrix(0.998785,0,0,-0.998785,0.456416,594.552879)"/>
<path style="fill:none;stroke-width:0.51024;stroke-linecap:butt;stroke-linejoin:miter;stroke:rgb(0%,0%,0%);stroke-opacity:1;stroke-dasharray:3.60001,1.8;stroke-dashoffset:1.49582;stroke-miterlimit:10;" d="M 251.141631 306.143522 L 249.025779 308.255462 " transform="matrix(0.998785,0,0,-0.998785,0.456416,594.552879)"/>
<path style="fill:none;stroke-width:0.51024;stroke-linecap:butt;stroke-linejoin:miter;stroke:rgb(0%,0%,0%);stroke-opacity:1;stroke-dasharray:3.60001,1.8;stroke-dashoffset:0.60367;stroke-miterlimit:10;" d="M 249.025779 348.448819 L 249.025779 308.255462 " transform="matrix(0.998785,0,0,-0.998785,0.456416,594.552879)"/>
<path style="fill:none;stroke-width:0.51024;stroke-linecap:butt;stroke-linejoin:miter;stroke:rgb(0%,0%,0%);stroke-opacity:1;stroke-dasharray:3.60001,1.8;stroke-dashoffset:0.60367;stroke-miterlimit:10;" d="M 221.523621 348.448819 L 221.523621 308.255462 " transform="matrix(0.998785,0,0,-0.998785,0.456416,594.552879)"/>
<path style="fill:none;stroke-width:0.51024;stroke-linecap:butt;stroke-linejoin:miter;stroke:rgb(0%,0%,0%);stroke-opacity:1;stroke-dasharray:3.60001,1.8;stroke-dashoffset:1.38411;stroke-miterlimit:10;" d="M 247.367515 483.835939 L 247.367515 369.603423 " transform="matrix(0.998785,0,0,-0.998785,0.456416,594.552879)"/>
<path style="fill:none;stroke-width:0.51024;stroke-linecap:butt;stroke-linejoin:miter;stroke:rgb(0%,0%,0%);stroke-opacity:1;stroke-dasharray:3.60001,1.8;stroke-dashoffset:1.16768;stroke-miterlimit:10;" d="M 263.488661 483.835939 L 256.824315 483.835939 " transform="matrix(0.998785,0,0,-0.998785,0.456416,594.552879)"/>
<path style="fill:none;stroke-width:0.51024;stroke-linecap:butt;stroke-linejoin:miter;stroke:rgb(0%,0%,0%);stroke-opacity:1;stroke-dasharray:3.60001,1.8;stroke-dashoffset:1.12791;stroke-miterlimit:10;" d="M 219.153554 483.835939 L 196.211622 483.835939 " transform="matrix(0.998785,0,0,-0.998785,0.456416,594.552879)"/>
<path style="fill:none;stroke-width:0.51024;stroke-linecap:butt;stroke-linejoin:miter;stroke:rgb(0%,0%,0%);stroke-opacity:1;stroke-dasharray:3.60001,1.8;stroke-dashoffset:0.1219;stroke-miterlimit:10;" d="M 272.245392 483.835939 L 263.488661 483.835939 " transform="matrix(0.998785,0,0,-0.998785,0.456416,594.552879)"/>
<path style="fill:none;stroke-width:0.51024;stroke-linecap:butt;stroke-linejoin:miter;stroke:rgb(0%,0%,0%);stroke-opacity:1;stroke-dasharray:3.60001,1.8;stroke-dashoffset:1.38411;stroke-miterlimit:10;" d="M 263.488661 483.835939 L 263.488661 369.603423 " transform="matrix(0.998785,0,0,-0.998785,0.456416,594.552879)"/>
<path style="fill:none;stroke-width:0.51024;stroke-linecap:butt;stroke-linejoin:miter;stroke:rgb(0%,0%,0%);stroke-opacity:1;stroke-dasharray:3.60001,1.8;stroke-dashoffset:1.38411;stroke-miterlimit:10;" d="M 223.185796 483.835939 L 223.185796 369.603423 " transform="matrix(0.998785,0,0,-0.998785,0.456416,594.552879)"/>
<path style="fill:none;stroke-width:0.51024;stroke-linecap:butt;stroke-linejoin:miter;stroke:rgb(0%,0%,0%);stroke-opacity:1;stroke-dasharray:3.60001,1.8;stroke-dashoffset:0.1219;stroke-miterlimit:10;" d="M 272.245392 369.603423 L 263.488661 369.603423 " transform="matrix(0.998785,0,0,-0.998785,0.456416,594.552879)"/>
<path style="fill:none;stroke-width:0.51024;stroke-linecap:butt;stroke-linejoin:miter;stroke:rgb(0%,0%,0%);stroke-opacity:1;stroke-dasharray:3.60001,1.8;stroke-dashoffset:1.16768;stroke-miterlimit:10;" d="M 263.488661 369.603423 L 256.824315 369.603423 " transform="matrix(0.998785,0,0,-0.998785,0.456416,594.552879)"/>
<path style="fill:none;stroke-width:0.51024;stroke-linecap:butt;stroke-linejoin:miter;stroke:rgb(0%,0%,0%);stroke-opacity:1;stroke-dasharray:3.60001,1.8;stroke-dashoffset:1.12791;stroke-miterlimit:10;" d="M 219.153554 369.603423 L 196.211622 369.603423 " transform="matrix(0.998785,0,0,-0.998785,0.456416,594.552879)"/>
<path style="fill:none;stroke-width:0.51024;stroke-linecap:butt;stroke-linejoin:miter;stroke:rgb(0%,0%,0%);stroke-opacity:1;stroke-dasharray:3.60001,1.8;stroke-dashoffset:1.38411;stroke-miterlimit:10;" d="M 231.246369 483.835939 L 231.246369 369.603423 " transform="matrix(0.998785,0,0,-0.998785,0.456416,594.552879)"/>
<path style="fill:none;stroke-width:0.51024;stroke-linecap:butt;stroke-linejoin:miter;stroke:rgb(0%,0%,0%);stroke-opacity:1;stroke-dasharray:3.60001,1.8;stroke-dashoffset:0.95085;stroke-miterlimit:10;" d="M 249.612429 435.183087 L 251.395846 438.734276 L 252.792073 441.526731 " transform="matrix(0.998785,0,0,-0.998785,0.456416,594.552879)"/>
<path style="fill:none;stroke-width:0.51024;stroke-linecap:butt;stroke-linejoin:miter;stroke:rgb(0%,0%,0%);stroke-opacity:1;stroke-dasharray:3.60001,1.8;stroke-dashoffset:1.43839;stroke-miterlimit:10;" d="M 249.612429 418.260186 L 249.612429 435.183087 " transform="matrix(0.998785,0,0,-0.998785,0.456416,594.552879)"/>
<path style="fill:none;stroke-width:0.51024;stroke-linecap:butt;stroke-linejoin:miter;stroke:rgb(0%,0%,0%);stroke-opacity:1;stroke-dasharray:3.60001,1.8;stroke-dashoffset:0.95085;stroke-miterlimit:10;" d="M 252.792073 411.912632 L 251.012568 415.467731 L 249.612429 418.260186 " transform="matrix(0.998785,0,0,-0.998785,0.456416,594.552879)"/>
<path style="fill:none;stroke-width:0.51024;stroke-linecap:butt;stroke-linejoin:miter;stroke:rgb(0%,0%,0%);stroke-opacity:1;stroke-dasharray:3.60001,1.8;stroke-dashoffset:1.38411;stroke-miterlimit:10;" d="M 239.306942 483.835939 L 239.306942 369.603423 " transform="matrix(0.998785,0,0,-0.998785,0.456416,594.552879)"/>
<path style="fill:none;stroke-width:0.51024;stroke-linecap:butt;stroke-linejoin:miter;stroke:rgb(0%,0%,0%);stroke-opacity:1;stroke-dasharray:3.60001,1.8;stroke-dashoffset:1.6468;stroke-miterlimit:10;" d="M 205.672334 441.526731 L 210.154341 438.257134 L 214.784966 435.183087 " transform="matrix(0.998785,0,0,-0.998785,0.456416,594.552879)"/>
<path style="fill:none;stroke-width:0.51024;stroke-linecap:butt;stroke-linejoin:miter;stroke:rgb(0%,0%,0%);stroke-opacity:1;stroke-dasharray:3.60001,1.8;stroke-dashoffset:1.6468;stroke-miterlimit:10;" d="M 214.784966 418.260186 L 210.162163 415.19005 L 205.672334 411.912632 " transform="matrix(0.998785,0,0,-0.998785,0.456416,594.552879)"/>
<path style="fill:none;stroke-width:0.51024;stroke-linecap:butt;stroke-linejoin:miter;stroke:rgb(0%,0%,0%);stroke-opacity:1;stroke-dasharray:3.60001,1.8;stroke-dashoffset:1.43839;stroke-miterlimit:10;" d="M 214.784966 435.183087 L 214.784966 418.260186 " transform="matrix(0.998785,0,0,-0.998785,0.456416,594.552879)"/>
<path style="fill:none;stroke-width:0.51024;stroke-linecap:butt;stroke-linejoin:miter;stroke:rgb(0%,0%,0%);stroke-opacity:1;stroke-dasharray:3.60001,1.8;stroke-dashoffset:4.87056;stroke-miterlimit:10;" d="M 223.353969 435.183087 L 249.612429 435.183087 " transform="matrix(0.998785,0,0,-0.998785,0.456416,594.552879)"/>
<path style="fill:none;stroke-width:0.51024;stroke-linecap:butt;stroke-linejoin:miter;stroke:rgb(0%,0%,0%);stroke-opacity:1;stroke-dasharray:3.60001,1.8;stroke-dashoffset:4.87056;stroke-miterlimit:10;" d="M 223.353969 418.260186 L 249.612429 418.260186 " transform="matrix(0.998785,0,0,-0.998785,0.456416,594.552879)"/>
<path style="fill:none;stroke-width:0.51024;stroke-linecap:butt;stroke-linejoin:miter;stroke:rgb(0%,0%,0%);stroke-opacity:1;stroke-dasharray:3.60001,1.8;stroke-dashoffset:5.14931;stroke-miterlimit:10;" d="M 250.081749 532.488791 L 250.081749 579.792347 " transform="matrix(0.998785,0,0,-0.998785,0.456416,594.552879)"/>
<path style="fill:none;stroke-width:0.51024;stroke-linecap:butt;stroke-linejoin:miter;stroke:rgb(0%,0%,0%);stroke-opacity:1;stroke-dasharray:3.60001,1.8;stroke-dashoffset:0.19858;stroke-miterlimit:10;" d="M 220.46765 562.693451 L 220.46765 532.488791 " transform="matrix(0.998785,0,0,-0.998785,0.456416,594.552879)"/>
<path style="fill:none;stroke-width:0.51024;stroke-linecap:butt;stroke-linejoin:miter;stroke:rgb(0%,0%,0%);stroke-opacity:1;stroke-dasharray:3.60001,1.8;stroke-dashoffset:2.02299;stroke-miterlimit:10;" d="M 220.46765 515.56589 L 220.46765 494.411286 " transform="matrix(0.998785,0,0,-0.998785,0.456416,594.552879)"/>
<path style="fill:none;stroke-width:0.51024;stroke-linecap:butt;stroke-linejoin:miter;stroke:rgb(0%,0%,0%);stroke-opacity:1;stroke-dasharray:3.60001,1.8;stroke-dashoffset:2.02299;stroke-miterlimit:10;" d="M 250.081749 494.411286 L 250.081749 515.56589 " transform="matrix(0.998785,0,0,-0.998785,0.456416,594.552879)"/>
<path style="fill:none;stroke-width:0.70866;stroke-linecap:round;stroke-linejoin:round;stroke:rgb(0%,0%,0%);stroke-opacity:1;stroke-miterlimit:10;" d="M 196.098203 515.499403 L 196.098203 483.80074 M 196.098203 548.598204 L 196.098203 532.398838 M 274.400353 532.398838 L 274.400353 589.601138 M 274.400353 441.499354 L 274.400353 515.499403 M 196.098203 369.599512 L 196.098203 316.699314 M 274.400353 316.699314 L 274.400353 411.900899 M 196.098203 316.699314 L 206.700927 306.100501 M 263.801541 306.100501 L 274.400353 316.699314 M 267.998045 435.100956 L 274.400353 441.499354 M 274.400353 411.900899 L 267.998045 418.201521 M 267.998045 418.201521 L 267.998045 435.100956 M 196.098203 515.499403 L 199.199627 515.499403 M 199.199627 515.499403 L 199.199627 532.398838 M 199.199627 532.398838 L 196.098203 532.398838 M 256.800849 483.80074 L 256.800849 441.499354 M 256.800849 483.80074 L 227.898552 483.80074 M 227.898552 483.80074 L 227.898552 441.499354 M 196.199889 441.499354 L 227.898552 441.499354 M 196.199889 483.80074 L 196.199889 441.499354 M 196.199889 483.80074 L 196.098203 483.80074 M 256.800849 441.499354 L 274.400353 441.499354 M 267.00074 589.601138 L 264.599385 588.200999 L 261.799108 586.499714 L 258.400448 584.598967 L 254.501181 582.299299 L 249.999618 579.698483 L 245.20082 576.898207 L 239.901414 573.898469 L 234.398636 570.69927 L 228.798082 567.500071 L 223.299215 564.300872 L 217.999809 561.199449 L 213.099325 558.399172 L 208.801134 555.900042 L 205.101328 553.799835 L 202.10159 552.09855 L 199.700235 550.698411 L 197.99895 549.701106 L 196.899959 549.098812 L 196.301575 548.69989 L 196.098203 548.598204 M 267.00074 589.601138 L 274.400353 589.601138 M 274.400353 532.398838 L 271.29893 532.398838 M 271.29893 532.398838 L 271.29893 515.499403 M 271.29893 515.499403 L 274.400353 515.499403 M 236.498843 327.200351 L 236.498843 316.699314 M 236.498843 327.200351 L 233.999714 327.200351 M 233.999714 327.200351 L 233.999714 316.699314 M 196.098203 316.699314 L 233.999714 316.699314 M 236.498843 316.699314 L 274.400353 316.699314 M 196.199889 369.599512 L 196.098203 369.599512 M 196.199889 411.900899 L 196.199889 369.599512 M 227.898552 411.900899 L 196.199889 411.900899 M 227.898552 411.900899 L 227.898552 369.599512 M 256.800849 369.599512 L 227.898552 369.599512 M 256.800849 411.900899 L 256.800849 369.599512 M 274.400353 411.900899 L 256.800849 411.900899 M 233.999714 306.100501 L 206.700927 306.100501 M 233.999714 316.699314 L 233.999714 306.100501 M 263.801541 306.100501 L 236.498843 306.100501 M 236.498843 306.100501 L 236.498843 316.699314 M 223.299215 435.100956 L 202.500512 435.100956 M 202.500512 435.100956 L 199.000166 438.699077 L 196.199889 441.499354 M 227.898552 441.499354 L 225.598884 438.198469 L 223.299215 435.100956 M 196.199889 411.900899 L 202.500512 418.201521 M 223.299215 418.201521 L 202.500512 418.201521 M 223.299215 418.201521 L 225.598884 415.100097 L 227.898552 411.900899 M 243.300074 483.80074 L 243.300074 369.599512 M 253.60165 435.100956 L 256.800849 441.499354 M 253.60165 418.201521 L 253.60165 435.100956 M 256.800849 411.900899 L 255.001789 415.401244 L 253.60165 418.201521 M 267.998045 435.100956 L 253.60165 435.100956 M 267.998045 418.201521 L 253.60165 418.201521 M 202.500512 418.201521 L 202.500512 435.100956 M 223.299215 435.100956 L 223.299215 418.201521 M 227.198483 440.498138 L 227.198483 412.898204 " transform="matrix(0.998785,0,0,-0.998785,0.456416,594.552879)"/>
<path style="fill:none;stroke-width:0.51024;stroke-linecap:butt;stroke-linejoin:miter;stroke:rgb(0%,0%,0%);stroke-opacity:1;stroke-dasharray:3.60001,1.8;stroke-dashoffset:1.61641;stroke-miterlimit:10;" d="M 625.780322 194.241963 L 625.780322 200.010689 " transform="matrix(0.998785,0,0,-0.998785,0.456416,594.552879)"/>
<path style="fill:none;stroke-width:0.51024;stroke-linecap:butt;stroke-linejoin:miter;stroke:rgb(0%,0%,0%);stroke-opacity:1;stroke-dasharray:3.60001,1.8;stroke-dashoffset:5.2005;stroke-miterlimit:10;" d="M 625.780322 126.577735 L 625.780322 135.979782 " transform="matrix(0.998785,0,0,-0.998785,0.456416,594.552879)"/>
<path style="fill:none;stroke-width:0.51024;stroke-linecap:butt;stroke-linejoin:miter;stroke:rgb(0%,0%,0%);stroke-opacity:1;stroke-dasharray:3.60001,1.8;stroke-dashoffset:1.4408;stroke-miterlimit:10;" d="M 755.49258 200.659915 L 755.011527 200.699025 L 751.773218 200.174951 L 748.581841 198.833478 L 745.535172 196.701982 L 742.727073 193.862596 L 740.231854 190.432648 L 738.10427 186.556846 L 736.359963 182.387719 L 735.006757 178.073885 L 734.021185 173.740496 L 733.368048 169.500971 L 733.008235 165.425708 L 732.898727 161.573372 " transform="matrix(0.998785,0,0,-0.998785,0.456416,594.552879)"/>
<path style="fill:none;stroke-width:0.51024;stroke-linecap:butt;stroke-linejoin:miter;stroke:rgb(0%,0%,0%);stroke-opacity:1;stroke-dasharray:3.60001,1.8;stroke-dashoffset:1.44081;stroke-miterlimit:10;" d="M 732.898727 161.573372 L 733.008235 157.724947 L 733.368048 153.649684 L 734.021185 149.406248 L 735.006757 145.07677 L 736.359963 140.762936 L 738.10427 136.593809 L 740.231854 132.718007 L 742.727073 129.288059 L 745.535172 126.448672 L 748.581841 124.317177 L 751.773218 122.975704 L 755.011527 122.447718 L 755.49258 122.490739 " transform="matrix(0.998785,0,0,-0.998785,0.456416,594.552879)"/>
<path style="fill:none;stroke-width:0.51024;stroke-linecap:butt;stroke-linejoin:miter;stroke:rgb(0%,0%,0%);stroke-opacity:1;stroke-dasharray:3.60001,1.8;stroke-dashoffset:5.2005;stroke-miterlimit:10;" d="M 596.162312 135.979782 L 596.162312 126.577735 " transform="matrix(0.998785,0,0,-0.998785,0.456416,594.552879)"/>
<path style="fill:none;stroke-width:0.51024;stroke-linecap:butt;stroke-linejoin:miter;stroke:rgb(0%,0%,0%);stroke-opacity:1;stroke-dasharray:3.60001,1.8;stroke-dashoffset:1.61641;stroke-miterlimit:10;" d="M 596.162312 200.010689 L 596.162312 194.241963 " transform="matrix(0.998785,0,0,-0.998785,0.456416,594.552879)"/>
<path style="fill:none;stroke-width:0.51024;stroke-linecap:butt;stroke-linejoin:miter;stroke:rgb(0%,0%,0%);stroke-opacity:1;stroke-dasharray:3.60001,1.8;stroke-dashoffset:5.01692;stroke-miterlimit:10;" d="M 668.089531 148.737467 L 668.089531 163.900417 " transform="matrix(0.998785,0,0,-0.998785,0.456416,594.552879)"/>
<path style="fill:none;stroke-width:0.51024;stroke-linecap:butt;stroke-linejoin:miter;stroke:rgb(0%,0%,0%);stroke-opacity:1;stroke-dasharray:3.60001,1.8;stroke-dashoffset:5.01692;stroke-miterlimit:10;" d="M 553.857015 148.737467 L 553.857015 163.900417 " transform="matrix(0.998785,0,0,-0.998785,0.456416,594.552879)"/>
<path style="fill:none;stroke-width:0.51024;stroke-linecap:butt;stroke-linejoin:miter;stroke:rgb(0%,0%,0%);stroke-opacity:1;stroke-dasharray:3.60001,1.8;stroke-dashoffset:1.38411;stroke-miterlimit:10;" d="M 668.089531 163.900417 L 553.857015 163.900417 " transform="matrix(0.998785,0,0,-0.998785,0.456416,594.552879)"/>
<path style="fill:none;stroke-width:0.51024;stroke-linecap:butt;stroke-linejoin:miter;stroke:rgb(0%,0%,0%);stroke-opacity:1;stroke-dasharray:3.60001,1.8;stroke-dashoffset:0.91968;stroke-miterlimit:10;" d="M 668.089531 170.881554 L 668.089531 194.241963 " transform="matrix(0.998785,0,0,-0.998785,0.456416,594.552879)"/>
<path style="fill:none;stroke-width:0.51024;stroke-linecap:butt;stroke-linejoin:miter;stroke:rgb(0%,0%,0%);stroke-opacity:1;stroke-dasharray:3.60001,1.8;stroke-dashoffset:0.91968;stroke-miterlimit:10;" d="M 553.857015 170.881554 L 553.857015 194.241963 " transform="matrix(0.998785,0,0,-0.998785,0.456416,594.552879)"/>
<path style="fill:none;stroke-width:0.51024;stroke-linecap:butt;stroke-linejoin:miter;stroke:rgb(0%,0%,0%);stroke-opacity:1;stroke-dasharray:3.60001,1.8;stroke-dashoffset:1.73853;stroke-miterlimit:10;" d="M 668.089531 149.938144 L 624.763462 149.938144 " transform="matrix(0.998785,0,0,-0.998785,0.456416,594.552879)"/>
<path style="fill:none;stroke-width:0.51024;stroke-linecap:butt;stroke-linejoin:miter;stroke:rgb(0%,0%,0%);stroke-opacity:1;stroke-dasharray:3.60001,1.8;stroke-dashoffset:1.73859;stroke-miterlimit:10;" d="M 597.179173 149.938144 L 553.857015 149.938144 " transform="matrix(0.998785,0,0,-0.998785,0.456416,594.552879)"/>
<path style="fill:none;stroke-width:0.51024;stroke-linecap:butt;stroke-linejoin:miter;stroke:rgb(0%,0%,0%);stroke-opacity:1;stroke-dasharray:3.60001,1.8;stroke-dashoffset:1.94569;stroke-miterlimit:10;" d="M 619.432768 135.979782 L 619.432768 132.088336 " transform="matrix(0.998785,0,0,-0.998785,0.456416,594.552879)"/>
<path style="fill:none;stroke-width:0.51024;stroke-linecap:butt;stroke-linejoin:miter;stroke:rgb(0%,0%,0%);stroke-opacity:1;stroke-dasharray:3.60001,1.8;stroke-dashoffset:1.94569;stroke-miterlimit:10;" d="M 602.509867 135.979782 L 602.509867 132.088336 " transform="matrix(0.998785,0,0,-0.998785,0.456416,594.552879)"/>
<path style="fill:none;stroke-width:0.51024;stroke-linecap:butt;stroke-linejoin:miter;stroke:rgb(0%,0%,0%);stroke-opacity:1;stroke-dasharray:3.60001,1.8;stroke-dashoffset:1.22134;stroke-miterlimit:10;" d="M 490.393203 170.732936 L 492.509054 169.512704 " transform="matrix(0.998785,0,0,-0.998785,0.456416,594.552879)"/>
<path style="fill:none;stroke-width:0.51024;stroke-linecap:butt;stroke-linejoin:miter;stroke:rgb(0%,0%,0%);stroke-opacity:1;stroke-dasharray:3.60001,1.8;stroke-dashoffset:1.22134;stroke-miterlimit:10;" d="M 490.393203 152.413808 L 492.509054 153.637951 " transform="matrix(0.998785,0,0,-0.998785,0.456416,594.552879)"/>
<path style="fill:none;stroke-width:0.51024;stroke-linecap:butt;stroke-linejoin:miter;stroke:rgb(0%,0%,0%);stroke-opacity:1;stroke-dasharray:3.60001,1.8;stroke-dashoffset:5.19727;stroke-miterlimit:10;" d="M 758.547072 171.092748 L 716.742383 171.092748 " transform="matrix(0.998785,0,0,-0.998785,0.456416,594.552879)"/>
<path style="fill:none;stroke-width:0.51024;stroke-linecap:butt;stroke-linejoin:miter;stroke:rgb(0%,0%,0%);stroke-opacity:1;stroke-dasharray:3.60001,1.8;stroke-dashoffset:5.19727;stroke-miterlimit:10;" d="M 758.547072 152.053996 L 716.742383 152.053996 " transform="matrix(0.998785,0,0,-0.998785,0.456416,594.552879)"/>
<path style="fill:none;stroke-width:0.51024;stroke-linecap:butt;stroke-linejoin:miter;stroke:rgb(0%,0%,0%);stroke-opacity:1;stroke-dasharray:3.60001,1.8;stroke-dashoffset:1.20995;stroke-miterlimit:10;" d="M 764.042028 161.573372 L 763.928609 159.629604 L 763.557064 157.650638 L 762.911749 155.789002 L 762.027862 154.208957 L 760.921049 152.988725 L 759.724283 152.276923 L 758.547072 152.053996 " transform="matrix(0.998785,0,0,-0.998785,0.456416,594.552879)"/>
<path style="fill:none;stroke-width:0.51024;stroke-linecap:butt;stroke-linejoin:miter;stroke:rgb(0%,0%,0%);stroke-opacity:1;stroke-dasharray:3.60001,1.8;stroke-dashoffset:1.20941;stroke-miterlimit:10;" d="M 758.547072 171.092748 L 759.669529 170.893287 L 760.811541 170.247972 L 761.887066 169.137248 L 762.802241 167.604135 L 763.506221 165.683834 L 763.916876 163.614914 L 764.042028 161.573372 " transform="matrix(0.998785,0,0,-0.998785,0.456416,594.552879)"/>
<path style="fill:none;stroke-width:0.51024;stroke-linecap:butt;stroke-linejoin:miter;stroke:rgb(0%,0%,0%);stroke-opacity:1;stroke-dasharray:3.60001,1.8;stroke-dashoffset:2.02299;stroke-miterlimit:10;" d="M 699.819481 171.092748 L 678.664877 171.092748 " transform="matrix(0.998785,0,0,-0.998785,0.456416,594.552879)"/>
<path style="fill:none;stroke-width:0.51024;stroke-linecap:butt;stroke-linejoin:miter;stroke:rgb(0%,0%,0%);stroke-opacity:1;stroke-dasharray:3.60001,1.8;stroke-dashoffset:0.38069;stroke-miterlimit:10;" d="M 678.664877 171.092748 L 678.664877 152.053996 " transform="matrix(0.998785,0,0,-0.998785,0.456416,594.552879)"/>
<path style="fill:none;stroke-width:0.51024;stroke-linecap:butt;stroke-linejoin:miter;stroke:rgb(0%,0%,0%);stroke-opacity:1;stroke-dasharray:3.60001,1.8;stroke-dashoffset:2.02299;stroke-miterlimit:10;" d="M 699.819481 152.053996 L 678.664877 152.053996 " transform="matrix(0.998785,0,0,-0.998785,0.456416,594.552879)"/>
<path style="fill:none;stroke-width:0.51024;stroke-linecap:butt;stroke-linejoin:miter;stroke:rgb(0%,0%,0%);stroke-opacity:1;stroke-dasharray:3.60001,1.8;stroke-dashoffset:0.89708;stroke-miterlimit:10;" d="M 492.509054 169.512704 L 492.509054 176.720679 " transform="matrix(0.998785,0,0,-0.998785,0.456416,594.552879)"/>
<path style="fill:none;stroke-width:0.51024;stroke-linecap:butt;stroke-linejoin:miter;stroke:rgb(0%,0%,0%);stroke-opacity:1;stroke-dasharray:3.60001,1.8;stroke-dashoffset:0.89708;stroke-miterlimit:10;" d="M 492.509054 146.429976 L 492.509054 153.637951 " transform="matrix(0.998785,0,0,-0.998785,0.456416,594.552879)"/>
<path style="fill:none;stroke-width:0.51024;stroke-linecap:butt;stroke-linejoin:miter;stroke:rgb(0%,0%,0%);stroke-opacity:1;stroke-dasharray:3.60001,1.8;stroke-dashoffset:0.60368;stroke-miterlimit:10;" d="M 532.702411 153.637951 L 492.509054 153.637951 " transform="matrix(0.998785,0,0,-0.998785,0.456416,594.552879)"/>
<path style="fill:none;stroke-width:0.51024;stroke-linecap:butt;stroke-linejoin:miter;stroke:rgb(0%,0%,0%);stroke-opacity:1;stroke-dasharray:3.60001,1.8;stroke-dashoffset:0.60368;stroke-miterlimit:10;" d="M 532.702411 169.512704 L 492.509054 169.512704 " transform="matrix(0.998785,0,0,-0.998785,0.456416,594.552879)"/>
<path style="fill:none;stroke-width:0.51024;stroke-linecap:butt;stroke-linejoin:miter;stroke:rgb(0%,0%,0%);stroke-opacity:1;stroke-dasharray:3.60001,1.8;stroke-dashoffset:1.96136;stroke-miterlimit:10;" d="M 492.509054 153.637951 L 492.509054 169.512704 " transform="matrix(0.998785,0,0,-0.998785,0.456416,594.552879)"/>
<path style="fill:none;stroke-width:0.51024;stroke-linecap:butt;stroke-linejoin:miter;stroke:rgb(0%,0%,0%);stroke-opacity:1;stroke-dasharray:3.60001,1.8;stroke-dashoffset:1.96136;stroke-miterlimit:10;" d="M 532.702411 153.637951 L 532.702411 169.512704 " transform="matrix(0.998785,0,0,-0.998785,0.456416,594.552879)"/>
<path style="fill:none;stroke-width:0.51024;stroke-linecap:butt;stroke-linejoin:miter;stroke:rgb(0%,0%,0%);stroke-opacity:1;stroke-dasharray:3.60001,1.8;stroke-dashoffset:0.53069;stroke-miterlimit:10;" d="M 532.702411 145.698619 L 532.702411 153.637951 " transform="matrix(0.998785,0,0,-0.998785,0.456416,594.552879)"/>
<path style="fill:none;stroke-width:0.51024;stroke-linecap:butt;stroke-linejoin:miter;stroke:rgb(0%,0%,0%);stroke-opacity:1;stroke-dasharray:3.60001,1.8;stroke-dashoffset:0.53069;stroke-miterlimit:10;" d="M 532.702411 169.512704 L 532.702411 177.452036 " transform="matrix(0.998785,0,0,-0.998785,0.456416,594.552879)"/>
<path style="fill:none;stroke-width:0.51024;stroke-linecap:butt;stroke-linejoin:miter;stroke:rgb(0%,0%,0%);stroke-opacity:1;stroke-dasharray:3.60001,1.8;stroke-dashoffset:1.38411;stroke-miterlimit:10;" d="M 668.089531 170.881554 L 553.857015 170.881554 " transform="matrix(0.998785,0,0,-0.998785,0.456416,594.552879)"/>
<path style="fill:none;stroke-width:0.51024;stroke-linecap:butt;stroke-linejoin:miter;stroke:rgb(0%,0%,0%);stroke-opacity:1;stroke-dasharray:3.60001,1.8;stroke-dashoffset:0.38069;stroke-miterlimit:10;" d="M 492.509054 176.720679 L 511.547807 176.720679 " transform="matrix(0.998785,0,0,-0.998785,0.456416,594.552879)"/>
<path style="fill:none;stroke-width:0.51024;stroke-linecap:butt;stroke-linejoin:miter;stroke:rgb(0%,0%,0%);stroke-opacity:1;stroke-dasharray:3.60001,1.8;stroke-dashoffset:1.61568;stroke-miterlimit:10;" d="M 492.509054 176.720679 L 490.393203 179.161143 " transform="matrix(0.998785,0,0,-0.998785,0.456416,594.552879)"/>
<path style="fill:none;stroke-width:0.51024;stroke-linecap:butt;stroke-linejoin:miter;stroke:rgb(0%,0%,0%);stroke-opacity:1;stroke-dasharray:3.60001,1.8;stroke-dashoffset:0.38069;stroke-miterlimit:10;" d="M 511.547807 146.429976 L 492.509054 146.429976 " transform="matrix(0.998785,0,0,-0.998785,0.456416,594.552879)"/>
<path style="fill:none;stroke-width:0.51024;stroke-linecap:butt;stroke-linejoin:miter;stroke:rgb(0%,0%,0%);stroke-opacity:1;stroke-dasharray:3.60001,1.8;stroke-dashoffset:1.61568;stroke-miterlimit:10;" d="M 490.393203 143.989512 L 492.509054 146.429976 " transform="matrix(0.998785,0,0,-0.998785,0.456416,594.552879)"/>
<path style="fill:none;stroke-width:0.51024;stroke-linecap:butt;stroke-linejoin:miter;stroke:rgb(0%,0%,0%);stroke-opacity:1;stroke-dasharray:3.60001,1.8;stroke-dashoffset:0.61505;stroke-miterlimit:10;" d="M 511.547807 122.459451 L 511.547807 146.429976 " transform="matrix(0.998785,0,0,-0.998785,0.456416,594.552879)"/>
<path style="fill:none;stroke-width:0.51024;stroke-linecap:butt;stroke-linejoin:miter;stroke:rgb(0%,0%,0%);stroke-opacity:1;stroke-dasharray:3.60001,1.8;stroke-dashoffset:0.61505;stroke-miterlimit:10;" d="M 511.547807 176.720679 L 511.547807 200.691203 " transform="matrix(0.998785,0,0,-0.998785,0.456416,594.552879)"/>
<path style="fill:none;stroke-width:0.51024;stroke-linecap:butt;stroke-linejoin:miter;stroke:rgb(0%,0%,0%);stroke-opacity:1;stroke-dasharray:3.60001,1.8;stroke-dashoffset:2.02299;stroke-miterlimit:10;" d="M 532.702411 145.698619 L 511.547807 145.698619 " transform="matrix(0.998785,0,0,-0.998785,0.456416,594.552879)"/>
<path style="fill:none;stroke-width:0.51024;stroke-linecap:butt;stroke-linejoin:miter;stroke:rgb(0%,0%,0%);stroke-opacity:1;stroke-dasharray:3.60001,1.8;stroke-dashoffset:2.02299;stroke-miterlimit:10;" d="M 532.702411 177.452036 L 511.547807 177.452036 " transform="matrix(0.998785,0,0,-0.998785,0.456416,594.552879)"/>
<path style="fill:none;stroke-width:0.51024;stroke-linecap:butt;stroke-linejoin:miter;stroke:rgb(0%,0%,0%);stroke-opacity:1;stroke-dasharray:3.60001,1.8;stroke-dashoffset:0.6183;stroke-miterlimit:10;" d="M 752.441999 152.053996 L 751.448605 152.210436 L 750.326148 152.789264 L 749.145025 153.958653 L 748.300249 155.31577 L 747.592358 157.095276 L 747.115216 159.230682 L 746.947043 161.573372 L 747.115216 163.919973 L 747.592358 166.055379 L 748.300249 167.834884 L 749.145025 169.192002 L 750.326148 170.361391 L 751.448605 170.936308 L 752.441999 171.092748 " transform="matrix(0.998785,0,0,-0.998785,0.456416,594.552879)"/>
<path style="fill:none;stroke-width:0.51024;stroke-linecap:butt;stroke-linejoin:miter;stroke:rgb(0%,0%,0%);stroke-opacity:1;stroke-dasharray:3.60001,1.8;stroke-dashoffset:1.38411;stroke-miterlimit:10;" d="M 668.089531 184.843828 L 553.857015 184.843828 " transform="matrix(0.998785,0,0,-0.998785,0.456416,594.552879)"/>
<path style="fill:none;stroke-width:0.51024;stroke-linecap:butt;stroke-linejoin:miter;stroke:rgb(0%,0%,0%);stroke-opacity:1;stroke-dasharray:3.60001,1.8;stroke-dashoffset:1.69205;stroke-miterlimit:10;" d="M 602.509867 192.118289 L 602.509867 188.735274 " transform="matrix(0.998785,0,0,-0.998785,0.456416,594.552879)"/>
<path style="fill:none;stroke-width:0.51024;stroke-linecap:butt;stroke-linejoin:miter;stroke:rgb(0%,0%,0%);stroke-opacity:1;stroke-dasharray:3.60001,1.8;stroke-dashoffset:1.69205;stroke-miterlimit:10;" d="M 619.432768 192.118289 L 619.432768 188.735274 " transform="matrix(0.998785,0,0,-0.998785,0.456416,594.552879)"/>
<path style="fill:none;stroke-width:0.51024;stroke-linecap:butt;stroke-linejoin:miter;stroke:rgb(0%,0%,0%);stroke-opacity:1;stroke-dasharray:3.60001,1.8;stroke-dashoffset:1.38411;stroke-miterlimit:10;" d="M 668.089531 135.979782 L 553.857015 135.979782 " transform="matrix(0.998785,0,0,-0.998785,0.456416,594.552879)"/>
<path style="fill:none;stroke-width:0.70866;stroke-linecap:round;stroke-linejoin:round;stroke:rgb(0%,0%,0%);stroke-opacity:1;stroke-miterlimit:10;" d="M 755.398716 200.699025 L 667.999578 200.699025 M 625.698191 122.400786 L 755.398716 122.400786 M 553.79835 200.699025 L 511.500875 200.699025 M 511.500875 122.400786 L 596.099736 122.400786 M 619.40148 128.701409 L 625.698191 122.400786 M 596.099736 122.400786 L 602.498134 128.701409 M 602.498134 128.701409 L 619.40148 128.701409 M 667.999578 194.198942 L 625.698191 194.198942 M 667.999578 194.198942 L 667.999578 200.699025 M 667.999578 199.998956 L 625.698191 199.998956 M 625.698191 126.499515 L 625.698191 122.400786 M 667.999578 126.499515 L 625.698191 126.499515 M 667.999578 126.499515 L 667.999578 148.698357 M 667.999578 148.698357 L 625.698191 148.698357 M 625.698191 194.198942 L 625.698191 148.698357 M 773.799975 184.300198 L 772.399837 187.299936 L 770.800238 190.299674 L 768.801716 193.099951 L 766.498137 195.59908 L 763.999007 197.699288 L 761.19873 199.400573 L 758.101218 200.401789 L 755.398716 200.60125 M 755.398716 122.400786 L 758.101218 122.701934 L 761.19873 123.699239 L 763.999007 125.298838 L 766.498137 127.399046 L 768.801716 129.999861 L 770.800238 132.800138 L 772.399837 135.69819 L 773.799975 138.701838 M 716.699362 146.300913 L 716.699362 176.798899 M 716.699362 176.798899 L 699.799926 176.798899 M 699.799926 176.798899 L 699.799926 146.300913 M 699.799926 146.300913 L 716.699362 146.300913 M 773.799975 184.300198 L 773.799975 138.701838 M 619.40148 156.598579 L 619.40148 188.700075 M 619.40148 188.700075 L 622.901826 191.801498 L 625.698191 194.198942 M 625.698191 148.698357 L 622.498993 152.601536 L 619.40148 156.598579 M 602.498134 156.598579 L 599.400621 152.601536 L 596.099736 148.698357 M 596.099736 148.698357 L 596.099736 194.198942 M 596.099736 194.198942 L 599.701768 191.101429 L 602.498134 188.700075 M 602.498134 156.598579 L 602.498134 188.700075 M 511.500875 200.60125 L 500.898151 200.60125 M 511.500875 200.60125 L 511.500875 200.699025 M 511.500875 122.400786 L 511.500875 122.400786 M 511.500875 122.400786 L 500.898151 122.400786 M 500.898151 200.60125 L 500.898151 122.400786 M 596.099736 148.698357 L 553.79835 148.698357 M 553.79835 126.499515 L 553.79835 148.698357 M 596.099736 126.499515 L 553.79835 126.499515 M 596.099736 122.400786 L 596.099736 126.499515 M 596.099736 199.998956 L 553.79835 199.998956 M 553.79835 194.198942 L 553.79835 200.699025 M 596.099736 194.198942 L 553.79835 194.198942 M 490.299339 132.999599 L 490.299339 190.100213 M 490.299339 190.100213 L 496.298814 196.001913 L 500.898151 200.60125 M 500.898151 122.400786 L 490.299339 132.999599 M 602.498134 188.700075 L 619.40148 188.700075 M 619.40148 156.598579 L 602.498134 156.598579 M 624.700886 149.899034 L 597.100953 149.899034 M 619.40148 131.998383 L 622.901826 128.998645 L 625.698191 126.499515 M 602.498134 131.998383 L 619.40148 131.998383 M 596.099736 126.499515 L 599.701768 129.600939 L 602.498134 131.998383 M 619.40148 128.701409 L 619.40148 131.998383 M 602.498134 128.701409 L 602.498134 131.998383 M 625.698191 199.998956 L 622.498993 196.099688 L 619.40148 192.098734 M 602.498134 192.098734 L 599.400621 196.099688 L 596.099736 199.998956 M 619.40148 192.098734 L 602.498134 192.098734 " transform="matrix(0.998785,0,0,-0.998785,0.456416,594.552879)"/>
</g>
</svg>
