  0
SECTION
  2
HEADER
  9
$ACADVER
  1
AC1015
  9
$ACADMAINTVER
 70
     6
  9
$DWGCODEPAGE
  3
ANSI_936
  9
$INSBASE
 10
0.0
 20
0.0
 30
0.0
  9
$EXTMIN
 10
0.0
 20
0.0
 30
0.0
  9
$EXTMAX
 10
297.0
 20
210.0
 30
0.0
  9
$LIMMIN
 10
0.0
 20
0.0
  9
$LIMMAX
 10
297.0
 20
210.0
  9
$ORTHOMODE
 70
     0
  9
$REGENMODE
 70
     1
  9
$FILLMODE
 70
     1
  9
$QTEXTMODE
 70
     0
  9
$MIRRTEXT
 70
     1
  9
$LTSCALE
 40
1.0
  9
$ATTMODE
 70
     1
  9
$TEXTSIZE
 40
3.5
  9
$TRACEWID
 40
1.0
  9
$TEXTSTYLE
  7
Standard
  9
$CLAYER
  8
0
  9
$CELTYPE
  6
ByLayer
  9
$CECOLOR
 62
   256
  9
$CELTSCALE
 40
1.0
  9
$DISPSILH
 70
     0
  9
$DIMSCALE
 40
1.0
  9
$DIMASZ
 40
4.08
  9
$DIMEXO
 40
0.0
  9
$DIMDLI
 40
3.75
  9
$DIMRND
 40
0.0
  9
$DIMDLE
 40
0.0
  9
$DIMEXE
 40
2.0
  9
$DIMTP
 40
0.0
  9
$DIMTM
 40
0.0
  9
$DIMTXT
 40
3.5
  9
$DIMCEN
 40
2.5
  9
$DIMTSZ
 40
0.0
  9
$DIMTOL
 70
     0
  9
$DIMLIM
 70
     0
  9
$DIMTIH
 70
     1
  9
$DIMTOH
 70
     1
  9
$DIMSE1
 70
     0
  9
$DIMSE2
 70
     0
  9
$DIMTAD
 70
     1
  9
$DIMZIN
 70
     0
  9
$DIMBLK
  1

  9
$DIMASO
 70
     1
  9
$DIMSHO
 70
     1
  9
$DIMPOST
  1

  9
$DIMAPOST
  1

  9
$DIMALT
 70
     0
  9
$DIMALTD
 70
     3
  9
$DIMALTF
 40
0.0393700787
  9
$DIMLFAC
 40
2.0
  9
$DIMTOFL
 70
     1
  9
$DIMTVP
 40
0.0
  9
$DIMTIX
 70
     0
  9
$DIMSOXD
 70
     0
  9
$DIMSAH
 70
     0
  9
$DIMBLK1
  1

  9
$DIMBLK2
  1

  9
$DIMSTYLE
  2
ISO-25
  9
$DIMCLRD
 70
     0
  9
$DIMCLRE
 70
     0
  9
$DIMCLRT
 70
     0
  9
$DIMTFAC
 40
1.0
  9
$DIMGAP
 40
1.524
  9
$DIMJUST
 70
     0
  9
$DIMSD1
 70
     0
  9
$DIMSD2
 70
     0
  9
$DIMTOLJ
 70
     0
  9
$DIMTZIN
 70
     0
  9
$DIMALTZ
 70
     0
  9
$DIMALTTZ
 70
     0
  9
$DIMUPT
 70
     0
  9
$DIMDEC
 70
     2
  9
$DIMTDEC
 70
     2
  9
$DIMALTU
 70
     2
  9
$DIMALTTD
 70
     3
  9
$DIMTXSTY
  7
Standard
  9
$DIMAUNIT
 70
     0
  9
$DIMADEC
 70
     2
  9
$DIMALTRND
 40
0.0
  9
$DIMAZIN
 70
     0
  9
$DIMDSEP
 70
    44
  9
$DIMATFIT
 70
     3
  9
$DIMFRAC
 70
     0
  9
$DIMLDRBLK
  1

  9
$DIMLUNIT
 70
     2
  9
$DIMLWD
 70
    -2
  9
$DIMLWE
 70
    -2
  9
$DIMTMOVE
 70
     0
  9
$LUNITS
 70
     2
  9
$LUPREC
 70
     2
  9
$SKETCHINC
 40
1.0
  9
$FILLETRAD
 40
0.0
  9
$AUNITS
 70
     0
  9
$AUPREC
 70
     2
  9
$MENU
  1
.
  9
$ELEVATION
 40
0.0
  9
$PELEVATION
 40
0.0
  9
$THICKNESS
 40
0.0
  9
$LIMCHECK
 70
     0
  9
$CHAMFERA
 40
0.0
  9
$CHAMFERB
 40
0.0
  9
$CHAMFERC
 40
0.0
  9
$CHAMFERD
 40
0.0
  9
$SKPOLY
 70
     0
  9
$TDCREATE
 40
2461215.13841066
  9
$TDUCREATE
 40
2461214.805077327
  9
$TDUPDATE
 40
2461215.138410776
  9
$TDUUPDATE
 40
2461214.805077442
  9
$TDINDWG
 40
0.0000000116
  9
$TDUSRTIMER
 40
0.0000000116
  9
$USRTIMER
 70
     1
  9
$ANGBASE
 50
0.0
  9
$ANGDIR
 70
     0
  9
$PDMODE
 70
     0
  9
$PDSIZE
 40
-1.0
  9
$PLINEWID
 40
0.0
  9
$SPLFRAME
 70
     0
  9
$SPLINETYPE
 70
     6
  9
$SPLINESEGS
 70
     8
  9
$HANDSEED
  5
DA
  9
$SURFTAB1
 70
     6
  9
$SURFTAB2
 70
     6
  9
$SURFTYPE
 70
     6
  9
$SURFU
 70
     6
  9
$SURFV
 70
     6
  9
$UCSBASE
  2

  9
$UCSNAME
  2

  9
$UCSORG
 10
0.0
 20
0.0
 30
0.0
  9
$UCSXDIR
 10
1.0
 20
0.0
 30
0.0
  9
$UCSYDIR
 10
0.0
 20
1.0
 30
0.0
  9
$UCSORTHOREF
  2

  9
$UCSORTHOVIEW
 70
     0
  9
$UCSORGTOP
 10
0.0
 20
0.0
 30
0.0
  9
$UCSORGBOTTOM
 10
0.0
 20
0.0
 30
0.0
  9
$UCSORGLEFT
 10
0.0
 20
0.0
 30
0.0
  9
$UCSORGRIGHT
 10
0.0
 20
0.0
 30
0.0
  9
$UCSORGFRONT
 10
0.0
 20
0.0
 30
0.0
  9
$UCSORGBACK
 10
0.0
 20
0.0
 30
0.0
  9
$PUCSBASE
  2

  9
$PUCSNAME
  2

  9
$PUCSORG
 10
0.0
 20
0.0
 30
0.0
  9
$PUCSXDIR
 10
1.0
 20
0.0
 30
0.0
  9
$PUCSYDIR
 10
0.0
 20
1.0
 30
0.0
  9
$PUCSORTHOREF
  2

  9
$PUCSORTHOVIEW
 70
     0
  9
$PUCSORGTOP
 10
0.0
 20
0.0
 30
0.0
  9
$PUCSORGBOTTOM
 10
0.0
 20
0.0
 30
0.0
  9
$PUCSORGLEFT
 10
0.0
 20
0.0
 30
0.0
  9
$PUCSORGRIGHT
 10
0.0
 20
0.0
 30
0.0
  9
$PUCSORGFRONT
 10
0.0
 20
0.0
 30
0.0
  9
$PUCSORGBACK
 10
0.0
 20
0.0
 30
0.0
  9
$USERI1
 70
     0
  9
$USERI2
 70
     0
  9
$USERI3
 70
     0
  9
$USERI4
 70
     0
  9
$USERI5
 70
     0
  9
$USERR1
 40
0.0
  9
$USERR2
 40
0.0
  9
$USERR3
 40
0.0
  9
$USERR4
 40
0.0
  9
$USERR5
 40
0.0
  9
$WORLDVIEW
 70
     1
  9
$SHADEDGE
 70
     3
  9
$SHADEDIF
 70
    70
  9
$TILEMODE
 70
     1
  9
$MAXACTVP
 70
    64
  9
$PINSBASE
 10
0.0
 20
0.0
 30
0.0
  9
$PLIMCHECK
 70
     0
  9
$PEXTMIN
 10
1.0000000000E+20
 20
1.0000000000E+20
 30
1.0000000000E+20
  9
$PEXTMAX
 10
-1.0000000000E+20
 20
-1.0000000000E+20
 30
-1.0000000000E+20
  9
$PLIMMIN
 10
0.0
 20
0.0
  9
$PLIMMAX
 10
420.0
 20
297.0
  9
$UNITMODE
 70
     0
  9
$VISRETAIN
 70
     1
  9
$PLINEGEN
 70
     0
  9
$PSLTSCALE
 70
     1
  9
$TREEDEPTH
 70
  3020
  9
$CMLSTYLE
  2
Standard
  9
$CMLJUST
 70
     0
  9
$CMLSCALE
 40
20.0
  9
$PROXYGRAPHICS
 70
     1
  9
$MEASUREMENT
 70
     1
  9
$CELWEIGHT
370
    -1
  9
$ENDCAPS
280
     0
  9
$JOINSTYLE
280
     0
  9
$LWDISPLAY
290
     1
  9
$INSUNITS
 70
     4
  9
$HYPERLINKBASE
  1

  9
$STYLESHEET
  1

  9
$XEDIT
290
     1
  9
$CEPSNTYPE
380
     0
  9
$PSTYLEMODE
290
     1
  9
$FINGERPRINTGUID
  2
{ef98825e-d77e-4033-aa41-38e3e73c150f}
  9
$VERSIONGUID
  2
{FAEB1C32-E019-11D5-929B-00C0DF256EC4}
  9
$EXTNAMES
290
     1
  9
$PSVPSCALE
 40
0.0
  9
$OLESTARTUP
290
     0
  0
ENDSEC
  0
SECTION
  2
CLASSES
  0
CLASS
  1
ACDBDICTIONARYWDFLT
  2
AcDbDictionaryWithDefault
  3
ObjectDBX Classes
 90
        0
280
     0
281
     0
  0
CLASS
  1
VISUALSTYLE
  2
AcDbVisualStyle
  3
ObjectDBX Classes
 90
     4095
280
     0
281
     0
  0
CLASS
  1
MATERIAL
  2
AcDbMaterial
  3
ObjectDBX Classes
 90
     1153
280
     0
281
     0
  0
CLASS
  1
SCALE
  2
AcDbScale
  3
ObjectDBX Classes
 90
     1153
280
     0
281
     0
  0
CLASS
  1
TABLESTYLE
  2
AcDbTableStyle
  3
ObjectDBX Classes
 90
     4095
280
     0
281
     0
  0
CLASS
  1
MLEADERSTYLE
  2
AcDbMLeaderStyle
  3
ACDB_MLEADERSTYLE_CLASS
 90
     4095
280
     0
281
     0
  0
CLASS
  1
SUN
  2
AcDbSun
  3
SCENEOE
 90
     1153
280
     0
281
     0
  0
CLASS
  1
ACDBPLACEHOLDER
  2
AcDbPlaceHolder
  3
ObjectDBX Classes
 90
        0
280
     0
281
     0
  0
CLASS
  1
LAYOUT
  2
AcDbLayout
  3
ObjectDBX Classes
 90
        0
280
     0
281
     0
  0
ENDSEC
  0
SECTION
  2
TABLES
  0
TABLE
  2
VPORT
  5
8
330
0
100
AcDbSymbolTable
 70
     1
  0
VPORT
  5
29
330
8
100
AcDbSymbolTableRecord
100
AcDbViewportTableRecord
  2
*Active
 70
     0
 10
0.0
 20
0.0
 11
1.0
 21
1.0
 12
148.5
 22
105.0
 13
0.0
 23
0.0
 14
10.0
 24
10.0
 15
10.0
 25
10.0
 16
0.0
 26
0.0
 36
1.0
 17
0.0
 27
0.0
 37
0.0
 40
210.0
 41
1.4142857143
 42
50.0
 43
0.0
 44
0.0
 50
0.0
 51
0.0
 71
     0
 72
  2000
 73
     1
 74
     3
 75
     0
 76
     0
 77
     0
 78
     0
281
     0
 65
     1
110
0.0
120
0.0
130
0.0
111
1.0
121
0.0
131
0.0
112
0.0
122
1.0
132
0.0
 79
     0
146
0.0
  0
ENDTAB
  0
TABLE
  2
LTYPE
  5
5
330
0
100
AcDbSymbolTable
 70
     6
  0
LTYPE
  5
14
330
5
100
AcDbSymbolTableRecord
100
AcDbLinetypeTableRecord
  2
ByBlock
 70
     0
  3

 72
    65
 73
     0
 40
0.0
  0
LTYPE
  5
15
330
5
100
AcDbSymbolTableRecord
100
AcDbLinetypeTableRecord
  2
ByLayer
 70
     0
  3

 72
    65
 73
     0
 40
0.0
  0
LTYPE
  5
16
330
5
100
AcDbSymbolTableRecord
100
AcDbLinetypeTableRecord
  2
Continuous
 70
     0
  3
Solid line
 72
    65
 73
     0
 40
0.0
  0
LTYPE
  5
5E
330
5
100
AcDbSymbolTableRecord
100
AcDbLinetypeTableRecord
  2
HIDDEN
 70
     0
  3
Hidden __ __ __ __ __ __ __ __ __ __ __ __ __ __
 72
    65
 73
     2
 40
1.905
 49
1.27
 74
     0
 49
-0.635
 74
     0
  0
LTYPE
  5
5F
330
5
100
AcDbSymbolTableRecord
100
AcDbLinetypeTableRecord
  2
PHANTOM
 70
     0
  3
Phantom ______  __  __  ______  __  __  ______
 72
    65
 73
     6
 40
12.7
 49
6.35
 74
     0
 49
-1.27
 74
     0
 49
1.27
 74
     0
 49
-1.27
 74
     0
 49
1.27
 74
     0
 49
-1.27
 74
     0
  0
LTYPE
  5
60
330
5
100
AcDbSymbolTableRecord
100
AcDbLinetypeTableRecord
  2
CENTER
 70
     0
  3
Center ____ _ ____ _ ____ _ ____ _ ____ _ ____
 72
    65
 73
     4
 40
10.16
 49
6.35
 74
     0
 49
-1.27
 74
     0
 49
1.27
 74
     0
 49
-1.27
 74
     0
  0
LTYPE
  5
61
330
5
100
AcDbSymbolTableRecord
100
AcDbLinetypeTableRecord
  2
CENTERX2
 70
     0
  3
Center (2x) ________  __  ________  __  _____
 72
    65
 73
     4
 40
20.32
 49
12.7
 74
     0
 49
-2.54
 74
     0
 49
2.54
 74
     0
 49
-2.54
 74
     0
  0
LTYPE
  5
62
330
5
100
AcDbSymbolTableRecord
100
AcDbLinetypeTableRecord
  2
DOT2
 70
     0
  3
Dot (.5x) ........................................
 72
    65
 73
     2
 40
0.635
 49
0.0
 74
     0
 49
-0.635
 74
     0
  0
ENDTAB
  0
TABLE
  2
LAYER
  5
2
330
0
100
AcDbSymbolTable
 70
    14
  0
LAYER
  5
10
330
2
100
AcDbSymbolTableRecord
100
AcDbLayerTableRecord
  2
0
 70
     0
 62
     7
  6
Continuous
370
    -3
390
F
  0
LAYER
  5
63
330
2
100
AcDbSymbolTableRecord
100
AcDbLayerTableRecord
  2
SLD-0
 70
     0
 62
     7
  6
Continuous
370
    -3
390
F
  0
LAYER
  5
64
330
2
100
AcDbSymbolTableRecord
100
AcDbLayerTableRecord
  2
5
 70
     0
 62
     7
  6
Continuous
370
    -3
390
F
  0
LAYER
  5
65
330
2
100
AcDbSymbolTableRecord
100
AcDbLayerTableRecord
  2
9
 70
     0
 62
     7
  6
Continuous
370
    -3
390
F
  0
LAYER
  5
66
330
2
100
AcDbSymbolTableRecord
100
AcDbLayerTableRecord
  2
10
 70
     0
 62
     7
  6
Continuous
370
    -3
390
F
  0
LAYER
  5
67
330
2
100
AcDbSymbolTableRecord
100
AcDbLayerTableRecord
  2
轮廓实线层
 70
     0
 62
     7
  6
Continuous
370
    50
390
F
  0
LAYER
  5
68
330
2
100
AcDbSymbolTableRecord
100
AcDbLayerTableRecord
  2
细线层
 70
     0
 62
     4
  6
Continuous
370
    25
390
F
  0
LAYER
  5
69
330
2
100
AcDbSymbolTableRecord
100
AcDbLayerTableRecord
  2
中心线层
 70
     0
 62
     1
  6
CENTERX2
370
    25
390
F
  0
LAYER
  5
6A
330
2
100
AcDbSymbolTableRecord
100
AcDbLayerTableRecord
  2
虚线层
 70
     0
 62
     6
  6
HIDDEN
370
    25
390
F
  0
LAYER
  5
6B
330
2
100
AcDbSymbolTableRecord
100
AcDbLayerTableRecord
  2
剖面线层
 70
     0
 62
     2
  6
Continuous
370
    25
390
F
  0
LAYER
  5
6C
330
2
100
AcDbSymbolTableRecord
100
AcDbLayerTableRecord
  2
文字层
 70
     0
 62
     3
  6
Continuous
370
    25
390
F
  0
LAYER
  5
6D
330
2
100
AcDbSymbolTableRecord
100
AcDbLayerTableRecord
  2
标注层
 70
     0
 62
     4
  6
Continuous
370
    25
390
F
  0
LAYER
  5
6E
330
2
100
AcDbSymbolTableRecord
100
AcDbLayerTableRecord
  2
符号标注层
 70
     0
 62
    31
  6
Continuous
370
    25
390
F
  0
LAYER
  5
6F
330
2
100
AcDbSymbolTableRecord
100
AcDbLayerTableRecord
  2
双点划线层
 70
     0
 62
     6
  6
PHANTOM
370
    25
390
F
  0
ENDTAB
  0
TABLE
  2
STYLE
  5
3
330
0
100
AcDbSymbolTable
 70
     1
  0
STYLE
  5
11
330
3
100
AcDbSymbolTableRecord
100
AcDbTextStyleTableRecord
  2
Standard
 70
     0
 40
0.0
 41
1.0
 50
0.0
 71
     0
 42
3.5
  3
txt
  4

  0
ENDTAB
  0
TABLE
  2
VIEW
  5
6
330
0
100
AcDbSymbolTable
 70
     0
  0
ENDTAB
  0
TABLE
  2
UCS
  5
7
330
0
100
AcDbSymbolTable
 70
     0
  0
ENDTAB
  0
TABLE
  2
APPID
  5
9
330
0
100
AcDbSymbolTable
 70
     1
  0
APPID
  5
12
330
9
100
AcDbSymbolTableRecord
100
AcDbRegAppTableRecord
  2
ACAD
 70
     0
  0
ENDTAB
  0
TABLE
  2
DIMSTYLE
  5
A
330
0
100
AcDbSymbolTable
 70
     1
100
AcDbDimStyleTable
  0
DIMSTYLE
105
27
330
A
100
AcDbSymbolTableRecord
100
AcDbDimStyleTableRecord
  2
ISO-25
 70
     0
 41
2.5
 42
0.625
 43
3.75
 44
1.25
 73
     0
 74
     0
 77
     1
 78
     8
140
2.5
141
2.5
143
0.0393700787
147
0.625
171
     3
172
     1
178
     0
271
     2
272
     2
274
     3
278
    44
283
     0
284
     8
340
11
  0
ENDTAB
  0
TABLE
  2
BLOCK_RECORD
  5
1
330
0
100
AcDbSymbolTable
 70
     1
  0
BLOCK_RECORD
  5
1F
330
1
100
AcDbSymbolTableRecord
100
AcDbBlockTableRecord
  2
*Model_Space
340
22
  0
BLOCK_RECORD
  5
1B
330
1
100
AcDbSymbolTableRecord
100
AcDbBlockTableRecord
  2
*Paper_Space
340
1E
  0
BLOCK_RECORD
  5
23
330
1
100
AcDbSymbolTableRecord
100
AcDbBlockTableRecord
  2
*Paper_Space0
340
26
  0
ENDTAB
  0
ENDSEC
  0
SECTION
  2
BLOCKS
  0
BLOCK
  5
20
330
1F
100
AcDbEntity
  8
0
100
AcDbBlockBegin
  2
*Model_Space
 70
     0
 10
0.0
 20
0.0
 30
0.0
  3
*Model_Space
  1

  0
ENDBLK
  5
21
330
1F
100
AcDbEntity
  8
0
100
AcDbBlockEnd
  0
BLOCK
  5
1C
330
1B
100
AcDbEntity
 67
     1
  8
0
100
AcDbBlockBegin
  2
*Paper_Space
 70
     0
 10
0.0
 20
0.0
 30
0.0
  3
*Paper_Space
  1

  0
ENDBLK
  5
1D
330
1B
100
AcDbEntity
 67
     1
  8
0
100
AcDbBlockEnd
  0
BLOCK
  5
24
330
23
100
AcDbEntity
  8
0
100
AcDbBlockBegin
  2
*Paper_Space0
 70
     0
 10
0.0
 20
0.0
 30
0.0
  3
*Paper_Space0
  1

  0
ENDBLK
  5
25
330
23
100
AcDbEntity
  8
0
100
AcDbBlockEnd
  0
ENDSEC
  0
SECTION
  2
ENTITIES
  0
SPLINE
  5
70
330
1F
100
AcDbEntity
  8
0
  6
Continuous
 62
     7
370
    25
100
AcDbSpline
210
0.0
220
0.0
230
1.0
 70
     8
 71
     3
 72
    22
 73
    18
 74
     0
 42
0.00000001
 43
0.00000001
 40
0.0
 40
0.0
 40
0.0
 40
0.0
 40
0.0391422987097936
 40
0.1121227243267621
 40
0.1851318699682028
 40
0.2581683882185271
 40
0.3312405717880028
 40
0.4043550130260691
 40
0.4775156376641029
 40
0.5507225327519515
 40
0.6239705286689097
 40
0.6972475403046511
 40
0.7705243205747874
 40
0.8437653438157967
 40
0.9169235752275378
 40
0.985687243298035
 40
1.0
 40
1.0
 40
1.0
 40
1.0
 10
33.0
 20
34.17243071405632
 30
0.0
 10
33.0022017851159
 20
33.9037782397937
 30
0.0
 10
33.00850877662414
 20
33.13422590627389
 30
0.0
 10
33.07786958274134
 20
31.86578358233408
 30
0.0
 10
33.23191787824931
 20
30.37626009586517
 30
0.0
 10
33.46237546481048
 20
28.90422742322991
 30
0.0
 10
33.76706090824641
 20
27.45667989912761
 30
0.0
 10
34.14520406031836
 20
26.04041243473421
 30
0.0
 10
34.59530322090968
 20
24.6621470139942
 30
0.0
 10
35.11569067218489
 20
23.32850322422721
 30
0.0
 10
35.70437039502887
 20
22.04600119691492
 30
0.0
 10
36.35900105987595
 20
20.82107540456452
 30
0.0
 10
37.07690097822596
 20
19.66011483002391
 30
0.0
 10
37.85483293855182
 20
18.56910200770229
 30
0.0
 10
38.67345270628453
 20
17.57440868525195
 30
0.0
 10
39.30456531630842
 20
16.90582420368188
 30
0.0
 10
39.65208985552257
 20
16.5703960635505
 30
0.0
 10
39.7119628482682
 20
16.5126070894361
 30
0.0
  0
SPLINE
  5
71
330
1F
100
AcDbEntity
  8
0
  6
Continuous
 62
     7
370
    25
100
AcDbSpline
210
0.0
220
0.0
230
1.0
 70
     8
 71
     3
 72
    16
 73
    12
 74
     0
 42
0.00000001
 43
0.00000001
 40
0.0
 40
0.0
 40
0.0
 40
0.0
 40
0.1122756777680271
 40
0.2266162510084229
 40
0.3384820991537474
 40
0.4492584061530351
 40
0.5603937218489923
 40
0.6733663136001052
 40
0.7894880162745836
 40
0.9096070591783028
 40
1.0
 40
1.0
 40
1.0
 40
1.0
 10
35.66821038728794
 20
49.80244529014115
 30
0.0
 10
35.50526654620199
 20
49.79327203819569
 30
0.0
 10
35.17638211525603
 20
49.77475682629264
 30
0.0
 10
34.70376813535481
 20
49.62706107581669
 30
0.0
 10
34.26935050088894
 20
49.39980353375284
 30
0.0
 10
33.88827492850797
 20
49.09770810186762
 30
0.0
 10
33.56594206767355
 20
48.73179938109435
 30
0.0
 10
33.30700610174647
 20
48.30820892856662
 30
0.0
 10
33.11963988477781
 20
47.83340299194756
 30
0.0
 10
33.01622618408733
 20
47.36415060694345
 30
0.0
 10
33.00487440509716
 20
47.05581947062058
 30
0.0
 10
33.00000000000003
 20
46.9234234061976
 30
0.0
  0
LINE
  5
72
330
1F
100
AcDbEntity
  8
0
  6
Continuous
 62
     7
370
    25
100
AcDbLine
 10
33.0
 20
46.9234234062
 30
0.0
 11
33.0
 21
34.1724307141
 31
0.0
  0
SPLINE
  5
73
330
1F
100
AcDbEntity
  8
0
  6
Continuous
 62
     7
370
    25
100
AcDbSpline
210
0.0
220
0.0
230
1.0
 70
     8
 71
     3
 72
    16
 73
    12
 74
     0
 42
0.00000001
 43
0.00000001
 40
0.0
 40
0.0
 40
0.0
 40
0.0
 40
0.1005061983254604
 40
0.2316025008731947
 40
0.3503572034686911
 40
0.4669256129231809
 40
0.5813853978016049
 40
0.6943141802396192
 40
0.8063260510721649
 40
0.917906260254426
 40
1.0
 40
1.0
 40
1.0
 40
1.0
 10
133.0
 20
46.9234234061976
 30
0.0
 10
132.9939827036672
 20
47.07065086333709
 30
0.0
 10
132.9801166844326
 20
47.40991598169616
 30
0.0
 10
132.857631964114
 20
47.91111826020419
 30
0.0
 10
132.6449752425089
 20
48.40233220812217
 30
0.0
 10
132.3620039925826
 20
48.82707721186966
 30
0.0
 10
132.0138878272259
 20
49.18728265173478
 30
0.0
 10
131.6107472331869
 20
49.47380266056013
 30
0.0
 10
131.1648498448957
 20
49.67651524647817
 30
0.0
 10
130.731667606583
 20
49.78570350391134
 30
0.0
 10
130.4508299546635
 20
49.79746140008412
 30
0.0
 10
130.3317896127122
 20
49.80244529014115
 30
0.0
  0
LINE
  5
74
330
1F
100
AcDbEntity
  8
0
  6
Continuous
 62
     7
370
    25
100
AcDbLine
 10
133.0
 20
34.1724307141
 30
0.0
 11
133.0
 21
46.9234234062
 31
0.0
  0
SPLINE
  5
75
330
1F
100
AcDbEntity
  8
0
  6
Continuous
 62
     7
370
    25
100
AcDbSpline
210
0.0
220
0.0
230
1.0
 70
     8
 71
     3
 72
    22
 73
    18
 74
     0
 42
0.00000001
 43
0.00000001
 40
0.0
 40
0.0
 40
0.0
 40
0.0
 40
0.0398616729836339
 40
0.1122568786540954
 40
0.184798838935044
 40
0.2575390802229555
 40
0.3304187213510816
 40
0.4033878454933166
 40
0.4764068795727253
 40
0.5494436807871409
 40
0.6224768864867742
 40
0.6954972571971626
 40
0.7685015281818668
 40
0.8414910039129758
 40
0.9144703469635749
 40
0.9836201064063188
 40
1.0
 40
1.0
 40
1.0
 40
1.0
 10
126.2880371517317
 20
16.51260708943609
 30
0.0
 10
126.4538605884768
 20
16.67514510071765
 30
0.0
 10
126.9208460415042
 20
17.13287826752687
 30
0.0
 10
127.6496368786293
 20
17.95094971428258
 30
0.0
 10
128.4559661874873
 20
18.98666651809313
 30
0.0
 10
129.2055644141402
 20
20.09759366951131
 30
0.0
 10
129.8959245405597
 20
21.27697465129314
 30
0.0
 10
130.5234558695084
 20
22.51908230529522
 30
0.0
 10
131.0852757353462
 20
23.8174002817022
 30
0.0
 10
131.5788342595741
 20
25.16535068021354
 30
0.0
 10
132.0019954180389
 20
26.55619289728099
 30
0.0
 10
132.3530071856011
 20
27.98312789783214
 30
0.0
 10
132.6303930856078
 20
29.43929710224466
 30
0.0
 10
132.83323691788
 20
30.91779464729188
 30
0.0
 10
132.9577939495264
 20
32.38550331890898
 30
0.0
 10
132.9974900225393
 20
33.47300165132171
 30
0.0
 10
132.9995965720084
 20
34.06001167184917
 30
0.0
 10
133.0
 20
34.17243071405632
 30
0.0
  0
SPLINE
  5
76
330
1F
100
AcDbEntity
  8
0
  6
Continuous
 62
     7
370
    25
100
AcDbSpline
210
0.0
220
0.0
230
1.0
 70
     8
 71
     3
 72
    12
 73
     8
 74
     0
 42
0.00000001
 43
0.00000001
 40
0.0
 40
0.0
 40
0.0
 40
0.0
 40
0.2441595730276112
 40
0.4859934796242989
 40
0.7265121065699013
 40
0.9665689078813021
 40
1.0
 40
1.0
 40
1.0
 40
1.0
 10
43.96533882110362
 20
49.0417295859666
 30
0.0
 10
43.84268508083065
 20
49.15166630403989
 30
0.0
 10
43.59854590051902
 20
49.37049257201045
 30
0.0
 10
43.16480737948221
 20
49.60494487011126
 30
0.0
 10
42.70095910464303
 20
49.75713777505241
 30
0.0
 10
42.35500814027688
 20
49.80066457791384
 30
0.0
 10
42.17096878590915
 20
49.80225132640051
 30
0.0
 10
42.1484718609734
 20
49.80244529014115
 30
0.0
  0
SPLINE
  5
77
330
1F
100
AcDbEntity
  8
0
  6
Continuous
 62
     7
370
    25
100
AcDbSpline
210
0.0
220
0.0
230
1.0
 70
     8
 71
     3
 72
    11
 73
     7
 74
     0
 42
0.00000001
 43
0.00000001
 40
0.0
 40
0.0
 40
0.0
 40
0.0
 40
0.2417900752124754
 40
0.4880269838041331
 40
0.7289344748517372
 40
1.0
 40
1.0
 40
1.0
 40
1.0
 10
123.8515281390265
 20
49.80244529014115
 30
0.0
 10
123.6885197211994
 20
49.79333746203788
 30
0.0
 10
123.3595049491211
 20
49.77495430104861
 30
0.0
 10
122.8878751213673
 20
49.62626148857083
 30
0.0
 10
122.4301719297415
 20
49.3927032380091
 30
0.0
 10
122.171575677633
 20
49.16322661616493
 30
0.0
 10
122.0346611788964
 20
49.04172958596668
 30
0.0
  0
LINE
  5
78
330
1F
100
AcDbEntity
  8
0
  6
Continuous
 62
     7
370
    25
100
AcDbLine
 10
49.0822799139
 20
43.9450224454
 30
0.0
 11
43.9653388211
 21
49.041729586
 31
0.0
  0
LINE
  5
79
330
1F
100
AcDbEntity
  8
0
  6
Continuous
 62
     7
370
    25
100
AcDbLine
 10
122.0346611789
 20
49.041729586
 30
0.0
 11
116.9177200861
 21
43.9450224454
 31
0.0
  0
SPLINE
  5
7A
330
1F
100
AcDbEntity
  8
0
  6
Continuous
 62
     7
370
    25
100
AcDbSpline
210
0.0
220
0.0
230
1.0
 70
     8
 71
     3
 72
    13
 73
     9
 74
     0
 42
0.00000001
 43
0.00000001
 40
0.0
 40
0.0
 40
0.0
 40
0.0
 40
0.0643590698585705
 40
0.2676682977175176
 40
0.4674491126153055
 40
0.657709232948948
 40
0.839429828341039
 40
1.0
 40
1.0
 40
1.0
 40
1.0
 10
51.97380642061353
 20
42.61555615165904
 30
0.0
 10
51.91279450853886
 20
42.61225472965751
 30
0.0
 10
51.65904698419763
 20
42.59852417063703
 30
0.0
 10
51.21508938420997
 20
42.67648519558785
 30
0.0
 10
50.64218302004847
 20
42.85375554102006
 30
0.0
 10
50.08308462586828
 20
43.13918401101282
 30
0.0
 10
49.56111444548316
 20
43.49678099818656
 30
0.0
 10
49.23517813487854
 20
43.80189300225876
 30
0.0
 10
49.08227991388777
 20
43.94502244536692
 30
0.0
  0
SPLINE
  5
7B
330
1F
100
AcDbEntity
  8
0
  6
Continuous
 62
     7
370
    25
100
AcDbSpline
210
0.0
220
0.0
230
1.0
 70
     8
 71
     3
 72
    14
 73
    10
 74
     0
 42
0.00000001
 43
0.00000001
 40
0.0
 40
0.0
 40
0.0
 40
0.0
 40
0.0840034337213009
 40
0.2547193438478252
 40
0.4272999940644152
 40
0.6043550042907155
 40
0.7881848382407829
 40
0.9809099883801257
 40
1.0
 40
1.0
 40
1.0
 40
1.0
 10
116.9177200861122
 20
43.94502244536695
 30
0.0
 10
116.8380045208547
 20
43.86824221244197
 30
0.0
 10
116.5962870626828
 20
43.63542541335706
 30
0.0
 10
116.1797865193901
 20
43.3102454688746
 30
0.0
 10
115.6691493118119
 20
43.00229988778351
 30
0.0
 10
115.148698835964
 20
42.77761816839514
 30
0.0
 10
114.6162186981705
 20
42.64622101217212
 30
0.0
 10
114.2410741920627
 20
42.59038814501196
 30
0.0
 10
114.0396454154762
 20
42.60778455976899
 30
0.0
 10
114.0214914851642
 20
42.60935242562476
 30
0.0
  0
SPLINE
  5
7C
330
1F
100
AcDbEntity
  8
0
  6
Continuous
 62
     7
370
    25
100
AcDbSpline
210
0.0
220
0.0
230
1.0
 70
     8
 71
     3
 72
    15
 73
    11
 74
     0
 42
0.00000001
 43
0.00000001
 40
0.0
 40
0.0
 40
0.0
 40
0.0
 40
0.0803233783059845
 40
0.2224232728467905
 40
0.3636769101851152
 40
0.5035329506672869
 40
0.6419078021179447
 40
0.7788745061862402
 40
0.9146598278697815
 40
1.0
 40
1.0
 40
1.0
 40
1.0
 10
39.71196284826819
 20
16.51260708943615
 30
0.0
 10
39.85672471989128
 20
16.37848844219457
 30
0.0
 10
40.25758446893189
 20
16.00710082008014
 30
0.0
 10
40.95433486126073
 20
15.46869783393103
 30
0.0
 10
41.80805136570868
 20
14.93017224396355
 30
0.0
 10
42.69447710089299
 20
14.49442091270425
 30
0.0
 10
43.60375426886009
 20
14.16260312238595
 30
0.0
 10
44.52804635599799
 20
13.93847717374742
 30
0.0
 10
45.34641232992537
 20
13.82958391047902
 30
0.0
 10
45.85420086337096
 20
13.81882426840427
 30
0.0
 10
46.05017447140052
 20
13.81467174084682
 30
0.0
  0
SPLINE
  5
7D
330
1F
100
AcDbEntity
  8
0
  6
Continuous
 62
     7
370
    25
100
AcDbSpline
210
0.0
220
0.0
230
1.0
 70
     8
 71
     3
 72
    15
 73
    11
 74
     0
 42
0.00000001
 43
0.00000001
 40
0.0
 40
0.0
 40
0.0
 40
0.0
 40
0.0822942812737025
 40
0.2167880288735387
 40
0.3513427748960511
 40
0.4863839756049671
 40
0.6222960191216145
 40
0.7593560569668714
 40
0.8977084016369183
 40
1.0
 40
1.0
 40
1.0
 40
1.0
 10
119.9498255285993
 20
13.81467174084682
 30
0.0
 10
120.1388047154851
 20
13.81853978870058
 30
0.0
 10
120.6366330553039
 20
13.82872939673686
 30
0.0
 10
121.4398056913516
 20
13.93301207770377
 30
0.0
 10
122.3490145969432
 20
14.14917631060945
 30
0.0
 10
123.2386837856195
 20
14.46714519609135
 30
0.0
 10
124.1038411848388
 20
14.88257821931575
 30
0.0
 10
124.9382023695152
 20
15.39546494716551
 30
0.0
 10
125.6681087501114
 20
15.9427994003769
 30
0.0
 10
126.1031234889068
 20
16.34264354749432
 30
0.0
 10
126.2880371517317
 20
16.51260708943617
 30
0.0
  0
SPLINE
  5
7E
330
1F
100
AcDbEntity
  8
0
  6
Continuous
 62
     7
370
    25
100
AcDbSpline
210
0.0
220
0.0
230
1.0
 70
     8
 71
     3
 72
    16
 73
    12
 74
     0
 42
0.00000001
 43
0.00000001
 40
0.0
 40
0.0
 40
0.0
 40
0.0
 40
0.0607658683078124
 40
0.1802701360715915
 40
0.299471386336375
 40
0.4184219019985296
 40
0.5372755840545144
 40
0.6562315207122861
 40
0.7757268501508918
 40
0.8964551952660706
 40
1.0
 40
1.0
 40
1.0
 40
1.0
 10
53.91466977654693
 20
47.83249097395979
 30
0.0
 10
53.8722402977342
 20
47.68841193765127
 30
0.0
 10
53.74636753178813
 20
47.26098206289277
 30
0.0
 10
53.49401487797702
 20
46.58473264525902
 30
0.0
 10
53.14347967364886
 20
45.83193627682252
 30
0.0
 10
52.74716274826521
 20
45.14675377659934
 30
0.0
 10
52.31334826651742
 20
44.53599769696838
 30
0.0
 10
51.84942755172631
 20
44.00451683397811
 30
0.0
 10
51.36317428383413
 20
43.55876421732669
 30
0.0
 10
50.88756806461461
 20
43.20867740497257
 30
0.0
 10
50.57716572312331
 20
43.05061814270776
 30
0.0
 10
50.43385588036997
 20
42.97764366734764
 30
0.0
  0
SPLINE
  5
7F
330
1F
100
AcDbEntity
  8
0
  6
Continuous
 62
     7
370
    25
100
AcDbSpline
210
0.0
220
0.0
230
1.0
 70
     8
 71
     3
 72
    16
 73
    12
 74
     0
 42
0.00000001
 43
0.00000001
 40
0.0
 40
0.0
 40
0.0
 40
0.0
 40
0.0259423379306862
 40
0.1562631548402773
 40
0.2819103332518962
 40
0.4045054138818181
 40
0.5253872839235367
 40
0.6454171854661469
 40
0.7651175599125066
 40
0.884753427790049
 40
1.0
 40
1.0
 40
1.0
 40
1.0
 10
115.5725593916025
 20
42.97575188341861
 30
0.0
 10
115.5367825732021
 20
42.9908301193327
 30
0.0
 10
115.3212816215015
 20
43.08165357247163
 30
0.0
 10
114.9283403962983
 20
43.33800569806066
 30
0.0
 10
114.4078905959285
 20
43.75284783395806
 30
0.0
 10
113.9158978788038
 20
44.25886391945258
 30
0.0
 10
113.4573950058149
 20
44.84246302170881
 30
0.0
 10
113.0371047765791
 20
45.50120525577794
 30
0.0
 10
112.6623473503098
 20
46.22929447224843
 30
0.0
 10
112.3376364315466
 20
47.00578597479121
 30
0.0
 10
112.1683779704513
 20
47.56037722720731
 30
0.0
 10
112.0853302234529
 20
47.83249097395982
 30
0.0
  0
LINE
  5
80
330
1F
100
AcDbEntity
  8
0
  6
Continuous
 62
     7
370
    25
100
AcDbLine
 10
68.0877630932
 20
98.157967783
 30
0.0
 11
53.9146697765
 21
47.832490974
 31
0.0
  0
LINE
  5
81
330
1F
100
AcDbEntity
  8
0
  6
Continuous
 62
     7
370
    25
100
AcDbLine
 10
112.0853302235
 20
47.832490974
 30
0.0
 11
97.9122369068
 21
98.157967783
 31
0.0
  0
SPLINE
  5
82
330
1F
100
AcDbEntity
  8
0
  6
Continuous
 62
     7
370
    25
100
AcDbSpline
210
0.0
220
0.0
230
1.0
 70
     8
 71
     3
 72
    14
 73
    10
 74
     0
 42
0.00000001
 43
0.00000001
 40
0.0
 40
0.0
 40
0.0
 40
0.0
 40
0.1397224474515576
 40
0.2820145721018315
 40
0.4212270035012886
 40
0.5590835459090269
 40
0.6973868598237597
 40
0.8379765879661717
 40
1.0
 40
1.0
 40
1.0
 40
1.0
 10
70.63899976689792
 20
100.1853282591532
 30
0.0
 10
70.47605736908537
 20
100.1761545220097
 30
0.0
 10
70.14717585122987
 20
100.1576383307872
 30
0.0
 10
69.67453987578372
 20
100.0099499747488
 30
0.0
 10
69.24020412752604
 20
99.78266490427151
 30
0.0
 10
68.85882656576706
 20
99.48067099483602
 30
0.0
 10
68.53762849855258
 20
99.11438078041884
 30
0.0
 10
68.26345487274241
 20
98.67478942972102
 30
0.0
 10
68.14902857358791
 20
98.33818865930358
 30
0.0
 10
68.08776309316424
 20
98.15796778295798
 30
0.0
  0
SPLINE
  5
83
330
1F
100
AcDbEntity
  8
0
  6
Continuous
 62
     7
370
    25
100
AcDbSpline
210
0.0
220
0.0
230
1.0
 70
     8
 71
     3
 72
    15
 73
    11
 74
     0
 42
0.00000001
 43
0.00000001
 40
0.0
 40
0.0
 40
0.0
 40
0.0
 40
0.1331755156649491
 40
0.2793893469213573
 40
0.4227919108191217
 40
0.5639742553090017
 40
0.7037270073974723
 40
0.8427230931293189
 40
0.981457379470052
 40
1.0
 40
1.0
 40
1.0
 40
1.0
 10
97.91223690683539
 20
98.15796778295801
 30
0.0
 10
97.86322831985673
 20
98.30641275825072
 30
0.0
 10
97.76041304603457
 20
98.61783595412652
 30
0.0
 10
97.51116147347275
 20
99.04788219136579
 30
0.0
 10
97.18894574285902
 20
99.43544732589122
 30
0.0
 10
96.80601953803176
 20
99.7520333465344
 30
0.0
 10
96.37558878785188
 20
99.9896738774737
 30
0.0
 10
95.91060911498742
 20
100.1404121998975
 30
0.0
 10
95.5657340536732
 20
100.1836373438291
 30
0.0
 10
95.38259226898434
 20
100.1851499285567
 30
0.0
 10
95.36100023310169
 20
100.1853282591532
 30
0.0
  0
LINE
  5
84
330
1F
100
AcDbEntity
  8
0
  6
Continuous
 62
     7
370
    25
100
AcDbLine
 10
35.6682103873
 20
49.8024452901
 30
0.0
 11
38.7218742333
 21
49.8024452901
 31
0.0
  0
LINE
  5
85
330
1F
100
AcDbEntity
  8
0
  6
Continuous
 62
     7
370
    25
100
AcDbLine
 10
127.2781257667
 20
49.8024452901
 30
0.0
 11
130.3317896127
 21
49.8024452901
 31
0.0
  0
LINE
  5
86
330
1F
100
AcDbEntity
  8
0
  6
Continuous
 62
     7
370
    25
100
AcDbLine
 10
38.7218742333
 20
49.8024452901
 30
0.0
 11
42.148471861
 21
49.8024452901
 31
0.0
  0
LINE
  5
87
330
1F
100
AcDbEntity
  8
0
  6
Continuous
 62
     7
370
    25
100
AcDbLine
 10
123.851528139
 20
49.8024452901
 30
0.0
 11
127.2781257667
 21
49.8024452901
 31
0.0
  0
LINE
  5
88
330
1F
100
AcDbEntity
  8
0
  6
Continuous
 62
     7
370
    25
100
AcDbLine
 10
49.1038383174
 20
13.8146717408
 30
0.0
 11
46.0501744714
 21
13.8146717408
 31
0.0
  0
LINE
  5
89
330
1F
100
AcDbEntity
  8
0
  6
Continuous
 62
     7
370
    25
100
AcDbLine
 10
119.9498255286
 20
13.8146717408
 30
0.0
 11
116.8961616826
 21
13.8146717408
 31
0.0
  0
LINE
  5
8A
330
1F
100
AcDbEntity
  8
0
  6
Continuous
 62
     7
370
    25
100
AcDbLine
 10
78.419504231
 20
13.8146717408
 30
0.0
 11
49.1038383174
 21
13.8146717408
 31
0.0
  0
LINE
  5
8B
330
1F
100
AcDbEntity
  8
0
  6
Continuous
 62
     7
370
    25
100
AcDbLine
 10
116.8961616826
 20
13.8146717408
 30
0.0
 11
87.580495769
 21
13.8146717408
 31
0.0
  0
LINE
  5
8C
330
1F
100
AcDbEntity
  8
0
  6
Continuous
 62
     7
370
    25
100
AcDbLine
 10
70.6389997669
 20
100.1853282592
 30
0.0
 11
73.6926636129
 21
100.1853282592
 31
0.0
  0
LINE
  5
8D
330
1F
100
AcDbEntity
  8
0
  6
Continuous
 62
     7
370
    25
100
AcDbLine
 10
92.3073363871
 20
100.1853282592
 30
0.0
 11
95.3610002331
 21
100.1853282592
 31
0.0
  0
LINE
  5
8E
330
1F
100
AcDbEntity
  8
0
  6
Continuous
 62
     7
370
    25
100
AcDbLine
 10
73.6926636129
 20
100.1853282592
 30
0.0
 11
78.419504231
 21
100.1853282592
 31
0.0
  0
LINE
  5
8F
330
1F
100
AcDbEntity
  8
0
  6
Continuous
 62
     7
370
    25
100
AcDbLine
 10
87.580495769
 20
100.1853282592
 30
0.0
 11
92.3073363871
 21
100.1853282592
 31
0.0
  0
LINE
  5
90
330
1F
100
AcDbEntity
  8
0
  6
Continuous
 62
     7
370
    25
100
AcDbLine
 10
78.419504231
 20
100.1853282592
 30
0.0
 11
87.580495769
 21
100.1853282592
 31
0.0
  0
LINE
  5
91
330
1F
100
AcDbEntity
  8
0
  6
Continuous
 62
     7
370
    25
100
AcDbLine
 10
87.580495769
 20
13.8146717408
 30
0.0
 11
78.419504231
 21
13.8146717408
 31
0.0
  0
LINE
  5
92
330
1F
100
AcDbEntity
  8
0
  6
HIDDEN
 62
     7
370
    18
100
AcDbLine
 10
117.0992462801
 20
42.6048905803
 30
0.0
 11
117.0581656283
 21
42.6050859752
 31
0.0
  0
LINE
  5
93
330
1F
100
AcDbEntity
  8
0
  6
HIDDEN
 62
     7
370
    18
100
AcDbLine
 10
48.9007537199
 20
42.6048905803
 30
0.0
 11
51.9544175659
 21
42.6048905803
 31
0.0
  0
LINE
  5
94
330
1F
100
AcDbEntity
  8
0
  6
HIDDEN
 62
     7
370
    18
100
AcDbLine
 10
114.0455824341
 20
42.6048905803
 30
0.0
 11
117.0992462801
 21
42.6048905803
 31
0.0
  0
SPLINE
  5
95
330
1F
100
AcDbEntity
  8
0
  6
HIDDEN
 62
     7
370
    18
100
AcDbSpline
210
0.0
220
0.0
230
1.0
 70
     8
 71
     3
 72
    11
 73
     7
 74
     0
 42
0.00000001
 43
0.00000001
 40
0.0
 40
0.0
 40
0.0
 40
0.0
 40
0.052244452481578
 40
0.3925474292997265
 40
0.7472803431559544
 40
1.0
 40
1.0
 40
1.0
 40
1.0
 10
50.43385588036997
 20
42.97764366734764
 30
0.0
 10
50.40692836770377
 20
42.96271025956362
 30
0.0
 10
50.20460399884789
 20
42.85050560322484
 30
0.0
 10
49.82319106071232
 20
42.7298066035571
 30
0.0
 10
49.34576743663307
 20
42.61669779854174
 30
0.0
 10
49.04250399573131
 20
42.61579570295922
 30
0.0
 10
48.91633672537193
 20
42.61542040240564
 30
0.0
  0
SPLINE
  5
96
330
1F
100
AcDbEntity
  8
0
  6
HIDDEN
 62
     7
370
    18
100
AcDbSpline
210
0.0
220
0.0
230
1.0
 70
     8
 71
     3
 72
    10
 73
     6
 74
     0
 42
0.00000001
 43
0.00000001
 40
0.0
 40
0.0
 40
0.0
 40
0.0
 40
0.3466075175049417
 40
0.7357551560891712
 40
1.0
 40
1.0
 40
1.0
 40
1.0
 10
117.0685548193117
 20
42.60987597430112
 30
0.0
 10
116.897923894937
 20
42.61780810381872
 30
0.0
 10
116.5357200301718
 20
42.63464589554739
 30
0.0
 10
116.0374449775225
 20
42.76093491767691
 30
0.0
 10
115.7064288578425
 20
42.91389272190854
 30
0.0
 10
115.5725593916025
 20
42.97575188341861
 30
0.0
  0
ARC
  5
97
330
1F
100
AcDbEntity
  8
0
  6
Continuous
 62
     7
370
    25
100
AcDbCircle
 10
83.0
 20
175.6278033281
 30
0.0
 40
8.637065651830657
100
AcDbArc
 50
45.0
 51
135.0
  0
LINE
  5
98
330
1F
100
AcDbEntity
  8
0
  6
Continuous
 62
     7
370
    25
100
AcDbLine
 10
89.107327692
 20
181.7351310201
 30
0.0
 11
96.8878321561
 21
173.9546265559
 31
0.0
  0
LINE
  5
99
330
1F
100
AcDbEntity
  8
0
  6
Continuous
 62
     7
370
    25
100
AcDbLine
 10
69.1121678439
 20
173.9546265559
 30
0.0
 11
76.892672308
 21
181.7351310201
 31
0.0
  0
ARC
  5
9A
330
1F
100
AcDbEntity
  8
0
  6
Continuous
 62
     7
370
    25
100
AcDbCircle
 10
83.0
 20
169.5204756361
 30
0.0
 40
4.318532825915338
100
AcDbArc
 50
45.0
 51
135.0
  0
LINE
  5
9B
330
1F
100
AcDbEntity
  8
0
  6
Continuous
 62
     7
370
    25
100
AcDbLine
 10
96.8878321561
 20
173.9546265559
 30
0.0
 11
97.3606542017
 21
173.4818045103
 31
0.0
  0
LINE
  5
9C
330
1F
100
AcDbEntity
  8
0
  6
Continuous
 62
     7
370
    25
100
AcDbLine
 10
79.946336154
 20
172.5741394821
 30
0.0
 11
75.2194955359
 21
167.847298864
 31
0.0
  0
LINE
  5
9D
330
1F
100
AcDbEntity
  8
0
  6
Continuous
 62
     7
370
    25
100
AcDbLine
 10
90.7805044641
 20
167.847298864
 30
0.0
 11
86.053663846
 21
172.5741394821
 31
0.0
  0
LINE
  5
9E
330
1F
100
AcDbEntity
  8
0
  6
Continuous
 62
     7
370
    25
100
AcDbLine
 10
68.6393457983
 20
173.4818045103
 30
0.0
 11
69.1121678439
 21
173.9546265559
 31
0.0
  0
LINE
  5
9F
330
1F
100
AcDbEntity
  8
0
  6
Continuous
 62
     7
370
    25
100
AcDbLine
 10
91.2533265098
 20
167.3744768183
 30
0.0
 11
90.7805044641
 21
167.847298864
 31
0.0
  0
LINE
  5
A0
330
1F
100
AcDbEntity
  8
0
  6
Continuous
 62
     7
370
    25
100
AcDbLine
 10
75.2194955359
 20
167.847298864
 30
0.0
 11
74.7466734902
 21
167.3744768183
 31
0.0
  0
LINE
  5
A1
330
1F
100
AcDbEntity
  8
0
  6
Continuous
 62
     7
370
    25
100
AcDbLine
 10
54.4662524816
 20
159.3087111937
 30
0.0
 11
68.6393457983
 21
173.4818045103
 31
0.0
  0
LINE
  5
A2
330
1F
100
AcDbEntity
  8
0
  6
Continuous
 62
     7
370
    25
100
AcDbLine
 10
97.3606542017
 20
173.4818045103
 30
0.0
 11
111.5337475184
 21
159.3087111937
 31
0.0
  0
LINE
  5
A3
330
1F
100
AcDbEntity
  8
0
  6
Continuous
 62
     7
370
    25
100
AcDbLine
 10
74.7466734902
 20
167.3744768183
 30
0.0
 11
60.5735801736
 21
153.2013835017
 31
0.0
  0
LINE
  5
A4
330
1F
100
AcDbEntity
  8
0
  6
Continuous
 62
     7
370
    25
100
AcDbLine
 10
105.4264198264
 20
153.2013835017
 30
0.0
 11
91.2533265098
 21
167.3744768183
 31
0.0
  0
LINE
  5
A5
330
1F
100
AcDbEntity
  8
0
  6
Continuous
 62
     7
370
    25
100
AcDbLine
 10
128.1389611197
 20
142.7034975923
 30
0.0
 11
128.432023908
 21
142.410434804
 31
0.0
  0
LINE
  5
A6
330
1F
100
AcDbEntity
  8
0
  6
Continuous
 62
     7
370
    25
100
AcDbLine
 10
37.567976092
 20
142.410434804
 30
0.0
 11
37.8610388803
 21
142.7034975923
 31
0.0
  0
LINE
  5
A7
330
1F
100
AcDbEntity
  8
0
  6
Continuous
 62
     7
370
    25
100
AcDbLine
 10
34.1413784643
 20
138.9838371763
 30
0.0
 11
37.567976092
 21
142.410434804
 31
0.0
  0
LINE
  5
A8
330
1F
100
AcDbEntity
  8
0
  6
Continuous
 62
     7
370
    25
100
AcDbLine
 10
128.432023908
 20
142.410434804
 30
0.0
 11
131.8586215357
 21
138.9838371763
 31
0.0
  0
LINE
  5
A9
330
1F
100
AcDbEntity
  8
0
  6
Continuous
 62
     7
370
    25
100
AcDbLine
 10
43.9683665722
 20
136.5961699003
 30
0.0
 11
43.675303784
 21
136.3031071121
 31
0.0
  0
LINE
  5
AA
330
1F
100
AcDbEntity
  8
0
  6
Continuous
 62
     7
370
    25
100
AcDbLine
 10
122.324696216
 20
136.3031071121
 30
0.0
 11
122.0316334278
 21
136.5961699003
 31
0.0
  0
ARC
  5
AB
330
1F
100
AcDbEntity
  8
0
  6
Continuous
 62
     7
370
    25
100
AcDbCircle
 10
130.840733587
 20
136.948061279
 30
0.0
 40
2.159266412957714
100
AcDbArc
 50
315.0
 51
45.0
  0
LINE
  5
AC
330
1F
100
AcDbEntity
  8
0
  6
Continuous
 62
     7
370
    25
100
AcDbLine
 10
131.8586215357
 20
138.9838371763
 30
0.0
 11
132.36756551
 21
138.474893202
 31
0.0
  0
ARC
  5
AD
330
1F
100
AcDbEntity
  8
0
  6
Continuous
 62
     7
370
    25
100
AcDbCircle
 10
35.159266413
 20
136.948061279
 30
0.0
 40
2.159266412957654
100
AcDbArc
 50
135.0
 51
225.0
  0
LINE
  5
AE
330
1F
100
AcDbEntity
  8
0
  6
Continuous
 62
     7
370
    25
100
AcDbLine
 10
33.63243449
 20
138.474893202
 30
0.0
 11
34.1413784643
 21
138.9838371763
 31
0.0
  0
LINE
  5
AF
330
1F
100
AcDbEntity
  8
0
  6
Continuous
 62
     7
370
    25
100
AcDbLine
 10
125.7512938437
 20
132.8765094844
 30
0.0
 11
122.324696216
 21
136.3031071121
 31
0.0
  0
LINE
  5
B0
330
1F
100
AcDbEntity
  8
0
  6
Continuous
 62
     7
370
    25
100
AcDbLine
 10
43.675303784
 20
136.3031071121
 30
0.0
 11
40.2487061563
 21
132.8765094844
 31
0.0
  0
LINE
  5
B1
330
1F
100
AcDbEntity
  8
0
  6
Continuous
 62
     7
370
    25
100
AcDbLine
 10
132.36756551
 20
135.421229356
 30
0.0
 11
129.3139016641
 21
132.36756551
 31
0.0
  0
LINE
  5
B2
330
1F
100
AcDbEntity
  8
0
  6
Continuous
 62
     7
370
    25
100
AcDbLine
 10
36.6860983359
 20
132.36756551
 30
0.0
 11
33.63243449
 21
135.421229356
 31
0.0
  0
ARC
  5
B3
330
1F
100
AcDbEntity
  8
0
  6
Continuous
 62
     7
370
    25
100
AcDbCircle
 10
127.7870697411
 20
133.894397433
 30
0.0
 40
2.159266412957684
100
AcDbArc
 50
225.0
 51
315.0
  0
LINE
  5
B4
330
1F
100
AcDbEntity
  8
0
  6
Continuous
 62
     7
370
    25
100
AcDbLine
 10
126.2602378181
 20
132.36756551
 30
0.0
 11
125.7512938437
 21
132.8765094844
 31
0.0
  0
ARC
  5
B5
330
1F
100
AcDbEntity
  8
0
  6
Continuous
 62
     7
370
    25
100
AcDbCircle
 10
38.2129302589
 20
133.894397433
 30
0.0
 40
2.159266412957664
100
AcDbArc
 50
225.0
 51
315.0
  0
LINE
  5
B6
330
1F
100
AcDbEntity
  8
0
  6
Continuous
 62
     7
370
    25
100
AcDbLine
 10
40.2487061563
 20
132.8765094844
 30
0.0
 11
39.7397621819
 21
132.36756551
 31
0.0
  0
LINE
  5
B7
330
1F
100
AcDbEntity
  8
0
  6
Continuous
 62
     7
370
    25
100
AcDbLine
 10
37.8610388803
 20
142.7034975923
 30
0.0
 11
42.977979973
 21
147.8204386851
 31
0.0
  0
LINE
  5
B8
330
1F
100
AcDbEntity
  8
0
  6
Continuous
 62
     7
370
    25
100
AcDbLine
 10
123.022020027
 20
147.8204386851
 30
0.0
 11
128.1389611197
 21
142.7034975923
 31
0.0
  0
LINE
  5
B9
330
1F
100
AcDbEntity
  8
0
  6
Continuous
 62
     7
370
    25
100
AcDbLine
 10
49.085307665
 20
141.7131109931
 30
0.0
 11
43.9683665722
 21
136.5961699003
 31
0.0
  0
LINE
  5
BA
330
1F
100
AcDbEntity
  8
0
  6
Continuous
 62
     7
370
    25
100
AcDbLine
 10
122.0316334278
 20
136.5961699003
 30
0.0
 11
116.914692335
 21
141.7131109931
 31
0.0
  0
LINE
  5
BB
330
1F
100
AcDbEntity
  8
0
  6
Continuous
 62
     7
370
    25
100
AcDbLine
 10
111.5337475184
 20
159.3087111937
 30
0.0
 11
123.022020027
 21
147.8204386851
 31
0.0
  0
LINE
  5
BC
330
1F
100
AcDbEntity
  8
0
  6
Continuous
 62
     7
370
    25
100
AcDbLine
 10
42.977979973
 20
147.8204386851
 30
0.0
 11
54.4662524816
 21
159.3087111937
 31
0.0
  0
LINE
  5
BD
330
1F
100
AcDbEntity
  8
0
  6
Continuous
 62
     7
370
    25
100
AcDbLine
 10
116.914692335
 20
141.7131109931
 30
0.0
 11
105.4264198264
 21
153.2013835017
 31
0.0
  0
LINE
  5
BE
330
1F
100
AcDbEntity
  8
0
  6
Continuous
 62
     7
370
    25
100
AcDbLine
 10
60.5735801736
 20
153.2013835017
 30
0.0
 11
49.085307665
 21
141.7131109931
 31
0.0
  0
SPLINE
  5
BF
330
1F
100
AcDbEntity
  8
0
  6
Continuous
 62
     7
370
    25
100
AcDbSpline
210
0.0
220
0.0
230
1.0
 70
     8
 71
     3
 72
    22
 73
    18
 74
     0
 42
0.00000001
 43
0.00000001
 40
0.0
 40
0.0
 40
0.0
 40
0.0
 40
0.0391422987097938
 40
0.1121227243267739
 40
0.1851318699682148
 40
0.2581683882185372
 40
0.3312405717880149
 40
0.4043550130260843
 40
0.4775156376641216
 40
0.5507225327519741
 40
0.6239705286689274
 40
0.6972475403046706
 40
0.7705243205748039
 40
0.8437653438158208
 40
0.9169235752275607
 40
0.9856872432980524
 40
1.0
 40
1.0
 40
1.0
 40
1.0
 10
196.7351310200666
 20
34.17243071405632
 30
0.0
 10
196.7373328051825
 20
33.9037782397937
 30
0.0
 10
196.7436397966907
 20
33.13422590627381
 30
0.0
 10
196.8130006028079
 20
31.86578358233393
 30
0.0
 10
196.9670488983159
 20
30.37626009586494
 30
0.0
 10
197.1975064848771
 20
28.90422742322968
 30
0.0
 10
197.502191928313
 20
27.45667989912736
 30
0.0
 10
197.880335080385
 20
26.04041243473393
 30
0.0
 10
198.3304342409764
 20
24.66214701399383
 30
0.0
 10
198.8508216922516
 20
23.32850322422687
 30
0.0
 10
199.4395014150956
 20
22.04600119691456
 30
0.0
 10
200.0941320799427
 20
20.82107540456422
 30
0.0
 10
200.8120319982927
 20
19.66011483002361
 30
0.0
 10
201.5899639586187
 20
18.56910200770198
 30
0.0
 10
202.4085837263513
 20
17.57440868525167
 30
0.0
 10
203.0396963363752
 20
16.90582420368172
 30
0.0
 10
203.3872208755892
 20
16.57039606355043
 30
0.0
 10
203.4470938683347
 20
16.51260708943609
 30
0.0
  0
SPLINE
  5
C0
330
1F
100
AcDbEntity
  8
0
  6
Continuous
 62
     7
370
    25
100
AcDbSpline
210
0.0
220
0.0
230
1.0
 70
     8
 71
     3
 72
    16
 73
    12
 74
     0
 42
0.00000001
 43
0.00000001
 40
0.0
 40
0.0
 40
0.0
 40
0.0
 40
0.1122756777680276
 40
0.2266162510084246
 40
0.3384820991537471
 40
0.4492584061530329
 40
0.5603937218489938
 40
0.6733663136001066
 40
0.7894880162745888
 40
0.909607059178308
 40
1.0
 40
1.0
 40
1.0
 40
1.0
 10
199.4033414073544
 20
49.80244529014115
 30
0.0
 10
199.2403975662685
 20
49.79327203819569
 30
0.0
 10
198.9115131353225
 20
49.77475682629264
 30
0.0
 10
198.4388991554213
 20
49.6270610758167
 30
0.0
 10
198.0044815209555
 20
49.39980353375283
 30
0.0
 10
197.6234059485745
 20
49.09770810186761
 30
0.0
 10
197.3010730877401
 20
48.73179938109434
 30
0.0
 10
197.0421371218129
 20
48.30820892856661
 30
0.0
 10
196.8547709048443
 20
47.83340299194754
 30
0.0
 10
196.7513572041539
 20
47.36415060694343
 30
0.0
 10
196.7400054251637
 20
47.05581947062057
 30
0.0
 10
196.7351310200665
 20
46.92342340619759
 30
0.0
  0
LINE
  5
C1
330
1F
100
AcDbEntity
  8
0
  6
Continuous
 62
     7
370
    25
100
AcDbLine
 10
196.7351310201
 20
46.9234234062
 30
0.0
 11
196.7351310201
 21
34.1724307141
 31
0.0
  0
SPLINE
  5
C2
330
1F
100
AcDbEntity
  8
0
  6
Continuous
 62
     7
370
    25
100
AcDbSpline
210
0.0
220
0.0
230
1.0
 70
     8
 71
     3
 72
    12
 73
     8
 74
     0
 42
0.00000001
 43
0.00000001
 40
0.0
 40
0.0
 40
0.0
 40
0.0
 40
0.244159573027621
 40
0.4859934796243253
 40
0.7265121065699267
 40
0.9665689078813353
 40
1.0
 40
1.0
 40
1.0
 40
1.0
 10
207.70046984117
 20
49.04172958596671
 30
0.0
 10
207.5778161008971
 20
49.15166630404
 30
0.0
 10
207.3336769205854
 20
49.37049257201054
 30
0.0
 10
206.8999383995485
 20
49.60494487011132
 30
0.0
 10
206.4360901247094
 20
49.75713777505245
 30
0.0
 10
206.0901391603433
 20
49.80066457791384
 30
0.0
 10
205.9060998059755
 20
49.80225132640052
 30
0.0
 10
205.8836028810398
 20
49.80244529014115
 30
0.0
  0
LINE
  5
C3
330
1F
100
AcDbEntity
  8
0
  6
Continuous
 62
     7
370
    25
100
AcDbLine
 10
212.817410934
 20
43.9450224454
 30
0.0
 11
207.7004698412
 21
49.041729586
 31
0.0
  0
SPLINE
  5
C4
330
1F
100
AcDbEntity
  8
0
  6
Continuous
 62
     7
370
    25
100
AcDbSpline
210
0.0
220
0.0
230
1.0
 70
     8
 71
     3
 72
    13
 73
     9
 74
     0
 42
0.00000001
 43
0.00000001
 40
0.0
 40
0.0
 40
0.0
 40
0.0
 40
0.0643590698586424
 40
0.2676682977175739
 40
0.4674491126153509
 40
0.6577092329489765
 40
0.8394298283410656
 40
1.0
 40
1.0
 40
1.0
 40
1.0
 10
215.7089374406802
 20
42.61555615165906
 30
0.0
 10
215.6479255286055
 20
42.61225472965753
 30
0.0
 10
215.3941780042642
 20
42.59852417063705
 30
0.0
 10
214.9502204042765
 20
42.67648519558787
 30
0.0
 10
214.377314040115
 20
42.85375554102007
 30
0.0
 10
213.8182156459347
 20
43.13918401101284
 30
0.0
 10
213.2962454655496
 20
43.49678099818659
 30
0.0
 10
212.970309154945
 20
43.80189300225879
 30
0.0
 10
212.8174109339542
 20
43.94502244536694
 30
0.0
  0
SPLINE
  5
C5
330
1F
100
AcDbEntity
  8
0
  6
Continuous
 62
     7
370
    25
100
AcDbSpline
210
0.0
220
0.0
230
1.0
 70
     8
 71
     3
 72
    15
 73
    11
 74
     0
 42
0.00000001
 43
0.00000001
 40
0.0
 40
0.0
 40
0.0
 40
0.0
 40
0.0803233783059848
 40
0.2224232728467633
 40
0.3636769101850893
 40
0.5035329506672758
 40
0.641907802117934
 40
0.7788745061862408
 40
0.9146598278697745
 40
1.0
 40
1.0
 40
1.0
 40
1.0
 10
203.4470938683347
 20
16.51260708943612
 30
0.0
 10
203.5918557399578
 20
16.37848844219453
 30
0.0
 10
203.9927154889984
 20
16.00710082008014
 30
0.0
 10
204.6894658813272
 20
15.46869783393108
 30
0.0
 10
205.5431823857751
 20
14.9301722439636
 30
0.0
 10
206.4296081209594
 20
14.49442091270427
 30
0.0
 10
207.3388852889266
 20
14.16260312238594
 30
0.0
 10
208.2631773760645
 20
13.93847717374742
 30
0.0
 10
209.0815433499919
 20
13.82958391047903
 30
0.0
 10
209.5893318834375
 20
13.81882426840427
 30
0.0
 10
209.785305491467
 20
13.81467174084682
 30
0.0
  0
SPLINE
  5
C6
330
1F
100
AcDbEntity
  8
0
  6
Continuous
 62
     7
370
    25
100
AcDbSpline
210
0.0
220
0.0
230
1.0
 70
     8
 71
     3
 72
    16
 73
    12
 74
     0
 42
0.00000001
 43
0.00000001
 40
0.0
 40
0.0
 40
0.0
 40
0.0
 40
0.0607658683078112
 40
0.1802701360715809
 40
0.2994713863363652
 40
0.4184219019985148
 40
0.5372755840544999
 40
0.656231520712267
 40
0.7757268501508691
 40
0.8964551952660507
 40
1.0
 40
1.0
 40
1.0
 40
1.0
 10
217.6498007966134
 20
47.83249097395979
 30
0.0
 10
217.6073713178007
 20
47.68841193765127
 30
0.0
 10
217.4814985518546
 20
47.26098206289278
 30
0.0
 10
217.2291458980436
 20
46.58473264525905
 30
0.0
 10
216.8786106937154
 20
45.83193627682255
 30
0.0
 10
216.4822937683317
 20
45.14675377659935
 30
0.0
 10
216.0484792865839
 20
44.53599769696839
 30
0.0
 10
215.5845585717929
 20
44.00451683397813
 30
0.0
 10
215.0983053039007
 20
43.5587642173267
 30
0.0
 10
214.6226990846811
 20
43.20867740497254
 30
0.0
 10
214.3122967431897
 20
43.05061814270771
 30
0.0
 10
214.1689869004364
 20
42.97764366734759
 30
0.0
  0
LINE
  5
C7
330
1F
100
AcDbEntity
  8
0
  6
Continuous
 62
     7
370
    25
100
AcDbLine
 10
231.8228941132
 20
98.157967783
 30
0.0
 11
217.6498007966
 21
47.832490974
 31
0.0
  0
SPLINE
  5
C8
330
1F
100
AcDbEntity
  8
0
  6
Continuous
 62
     7
370
    25
100
AcDbSpline
210
0.0
220
0.0
230
1.0
 70
     8
 71
     3
 72
    14
 73
    10
 74
     0
 42
0.00000001
 43
0.00000001
 40
0.0
 40
0.0
 40
0.0
 40
0.0
 40
0.1397224474515593
 40
0.2820145721018339
 40
0.4212270035012918
 40
0.5590835459090429
 40
0.6973868598237752
 40
0.8379765879661845
 40
1.0
 40
1.0
 40
1.0
 40
1.0
 10
234.3741307869645
 20
100.1853282591532
 30
0.0
 10
234.2111883891519
 20
100.1761545220097
 30
0.0
 10
233.8823068712964
 20
100.1576383307872
 30
0.0
 10
233.4096708958502
 20
100.0099499747488
 30
0.0
 10
232.9753351475925
 20
99.7826649042715
 30
0.0
 10
232.5939575858336
 20
99.48067099483599
 30
0.0
 10
232.2727595186191
 20
99.11438078041883
 30
0.0
 10
231.9985858928089
 20
98.674789429721
 30
0.0
 10
231.8841595936544
 20
98.3381886593036
 30
0.0
 10
231.8228941132307
 20
98.15796778295804
 30
0.0
  0
ARC
  5
C9
330
1F
100
AcDbEntity
  8
0
  6
Continuous
 62
     7
370
    25
100
AcDbCircle
 10
247.105602567
 20
98.0260618462
 30
0.0
 40
2.159266412957663
100
AcDbArc
 50
0.0
 51
90.0
  0
LINE
  5
CA
330
1F
100
AcDbEntity
  8
0
  6
Continuous
 62
     7
370
    25
100
AcDbLine
 10
249.2648689799
 20
15.9739381538
 30
0.0
 11
249.2648689799
 21
98.0260618462
 31
0.0
  0
ARC
  5
CB
330
1F
100
AcDbEntity
  8
0
  6
Continuous
 62
     7
370
    25
100
AcDbCircle
 10
247.105602567
 20
15.9739381538
 30
0.0
 40
2.159266412957663
100
AcDbArc
 50
270.0
 51
0.0
  0
LINE
  5
CC
330
1F
100
AcDbEntity
  8
0
  6
Continuous
 62
     7
370
    25
100
AcDbLine
 10
199.4033414074
 20
49.8024452901
 30
0.0
 11
202.4570052533
 21
49.8024452901
 31
0.0
  0
LINE
  5
CD
330
1F
100
AcDbEntity
  8
0
  6
Continuous
 62
     7
370
    25
100
AcDbLine
 10
202.4570052533
 20
49.8024452901
 30
0.0
 11
205.883602881
 21
49.8024452901
 31
0.0
  0
LINE
  5
CE
330
1F
100
AcDbEntity
  8
0
  6
Continuous
 62
     7
370
    25
100
AcDbLine
 10
212.8389693374
 20
13.8146717408
 30
0.0
 11
209.7853054915
 21
13.8146717408
 31
0.0
  0
LINE
  5
CF
330
1F
100
AcDbEntity
  8
0
  6
Continuous
 62
     7
370
    25
100
AcDbLine
 10
245.2082990971
 20
13.8146717408
 30
0.0
 11
212.8389693374
 21
13.8146717408
 31
0.0
  0
LINE
  5
D0
330
1F
100
AcDbEntity
  8
0
  6
Continuous
 62
     7
370
    25
100
AcDbLine
 10
234.374130787
 20
100.1853282592
 30
0.0
 11
237.4277946329
 21
100.1853282592
 31
0.0
  0
LINE
  5
D1
330
1F
100
AcDbEntity
  8
0
  6
Continuous
 62
     7
370
    25
100
AcDbLine
 10
237.4277946329
 20
100.1853282592
 30
0.0
 11
245.2082990971
 21
100.1853282592
 31
0.0
  0
LINE
  5
D2
330
1F
100
AcDbEntity
  8
0
  6
Continuous
 62
     7
370
    25
100
AcDbLine
 10
245.2082990971
 20
100.1853282592
 30
0.0
 11
247.105602567
 21
100.1853282592
 31
0.0
  0
LINE
  5
D3
330
1F
100
AcDbEntity
  8
0
  6
Continuous
 62
     7
370
    25
100
AcDbLine
 10
247.105602567
 20
13.8146717408
 30
0.0
 11
245.2082990971
 21
13.8146717408
 31
0.0
  0
LINE
  5
D4
330
1F
100
AcDbEntity
  8
0
  6
HIDDEN
 62
     7
370
    18
100
AcDbLine
 10
212.6358847399
 20
42.6048905803
 30
0.0
 11
215.6895485859
 21
42.6048905803
 31
0.0
  0
SPLINE
  5
D5
330
1F
100
AcDbEntity
  8
0
  6
HIDDEN
 62
     7
370
    18
100
AcDbSpline
210
0.0
220
0.0
230
1.0
 70
     8
 71
     3
 72
    11
 73
     7
 74
     0
 42
0.00000001
 43
0.00000001
 40
0.0
 40
0.0
 40
0.0
 40
0.0
 40
0.0522444524815167
 40
0.3925474292996645
 40
0.7472803431558883
 40
0.9999999999999999
 40
0.9999999999999999
 40
0.9999999999999999
 40
0.9999999999999999
 10
214.1689869004364
 20
42.97764366734759
 30
0.0
 10
214.1420593877702
 20
42.96271025956358
 30
0.0
 10
213.9397350189144
 20
42.85050560322482
 30
0.0
 10
213.5583220807788
 20
42.72980660355708
 30
0.0
 10
213.0808984566996
 20
42.61669779854173
 30
0.0
 10
212.7776350157978
 20
42.6157957029592
 30
0.0
 10
212.6514677454384
 20
42.61542040240563
 30
0.0
  0
ARC
  5
D6
330
1F
100
AcDbEntity
  8
0
  6
HIDDEN
 62
     7
370
    18
100
AcDbCircle
 10
240.998274875
 20
98.0260618462
 30
0.0
 40
2.159266412957663
100
AcDbArc
 50
90.0
 51
180.0
  0
ARC
  5
D7
330
1F
100
AcDbEntity
  8
0
  6
HIDDEN
 62
     7
370
    18
100
AcDbCircle
 10
240.998274875
 20
15.9739381538
 30
0.0
 40
2.159266412957662
100
AcDbArc
 50
180.0
 51
270.0
  0
LINE
  5
D8
330
1F
100
AcDbEntity
  8
0
  6
HIDDEN
 62
     7
370
    18
100
AcDbLine
 10
238.8390084621
 20
15.9739381538
 30
0.0
 11
238.8390084621
 21
98.0260618462
 31
0.0
  0
ENDSEC
  0
SECTION
  2
OBJECTS
  0
DICTIONARY
  5
C
330
0
100
AcDbDictionary
281
     1
  3
ACAD_GROUP
350
D
  3
ACAD_LAYOUT
350
1A
  3
ACAD_MLINESTYLE
350
17
  3
ACAD_PLOTSETTINGS
350
19
  3
ACAD_PLOTSTYLENAME
350
E
  3
ACAD_SCALELIST
350
47
  3
DWGPROPS
350
D9
  0
DICTIONARY
  5
D
102
{ACAD_REACTORS
330
C
102
}
330
C
100
AcDbDictionary
281
     1
  0
DICTIONARY
  5
1A
102
{ACAD_REACTORS
330
C
102
}
330
C
100
AcDbDictionary
281
     1
  3
Layout1
350
1E
  3
Layout2
350
26
  3
Model
350
22
  0
DICTIONARY
  5
17
102
{ACAD_REACTORS
330
C
102
}
330
C
100
AcDbDictionary
281
     1
  3
Standard
350
18
  0
DICTIONARY
  5
19
102
{ACAD_REACTORS
330
C
102
}
330
C
100
AcDbDictionary
281
     1
  0
ACDBDICTIONARYWDFLT
  5
E
102
{ACAD_REACTORS
330
C
102
}
330
C
100
AcDbDictionary
281
     1
  3
Normal
350
F
100
AcDbDictionaryWithDefault
340
F
  0
DICTIONARY
  5
47
102
{ACAD_REACTORS
330
C
102
}
330
C
100
AcDbDictionary
281
     1
  3
A0
350
48
  3
A1
350
49
  3
A2
350
4A
  3
A3
350
4B
  3
A4
350
4C
  3
A5
350
4D
  3
A6
350
4E
  3
A7
350
4F
  3
A8
350
50
  3
A9
350
51
  3
B0
350
52
  3
B1
350
53
  3
B2
350
54
  3
B3
350
55
  3
B4
350
56
  3
B5
350
57
  3
B6
350
58
  0
XRECORD
  5
D9
102
{ACAD_REACTORS
330
C
102
}
330
C
100
AcDbXrecord
280
     1
  1
DWGPROPS COOKIE
  2

  3

  4

  6

  7

  8

  9

300
=
301
=
302
=
303
=
304
=
305
=
306
=
307
=
308
=
309
=
 40
0.0
 41
2461214.805077327
 42
2461214.805077442
  1

 90
        0
  0
LAYOUT
  5
1E
102
{ACAD_REACTORS
330
1A
102
}
330
1A
100
AcDbPlotSettings
  1

  2
none_device
  4

  6

 40
0.0
 41
0.0
 42
0.0
 43
0.0
 44
0.0
 45
0.0
 46
0.0
 47
0.0
 48
0.0
 49
0.0
140
0.0
141
0.0
142
1.0
143
1.0
 70
   688
 72
     1
 73
     0
 74
     5
  7

 75
    16
147
1.0
148
0.0
149
0.0
100
AcDbLayout
  1
Layout1
 70
     1
 71
     1
 10
0.0
 20
0.0
 11
420.0
 21
297.0
 12
0.0
 22
0.0
 32
0.0
 14
1.0000000000E+20
 24
1.0000000000E+20
 34
1.0000000000E+20
 15
-1.0000000000E+20
 25
-1.0000000000E+20
 35
-1.0000000000E+20
146
0.0
 13
0.0
 23
0.0
 33
0.0
 16
1.0
 26
0.0
 36
0.0
 17
0.0
 27
1.0
 37
0.0
 76
     0
330
1B
  0
LAYOUT
  5
26
102
{ACAD_REACTORS
330
1A
102
}
330
1A
100
AcDbPlotSettings
  1

  2
none_device
  4

  6

 40
0.0
 41
0.0
 42
0.0
 43
0.0
 44
0.0
 45
0.0
 46
0.0
 47
0.0
 48
0.0
 49
0.0
140
0.0
141
0.0
142
1.0
143
1.0
 70
   688
 72
     1
 73
     0
 74
     5
  7

 75
    16
147
1.0
148
0.0
149
0.0
100
AcDbLayout
  1
Layout2
 70
     1
 71
     2
 10
0.0
 20
0.0
 11
0.0
 21
0.0
 12
0.0
 22
0.0
 32
0.0
 14
0.0
 24
0.0
 34
0.0
 15
0.0
 25
0.0
 35
0.0
146
0.0
 13
0.0
 23
0.0
 33
0.0
 16
1.0
 26
0.0
 36
0.0
 17
0.0
 27
1.0
 37
0.0
 76
     0
330
23
  0
LAYOUT
  5
22
102
{ACAD_REACTORS
330
1A
102
}
330
1A
100
AcDbPlotSettings
  1

  2
none_device
  4
Letter_(8.50_x_11.00_Inches)
  6

 40
6.35
 41
6.35
 42
6.35000508
 43
6.35000508
 44
215.9
 45
279.4
 46
0.0
 47
0.0
 48
0.0
 49
0.0
140
0.0
141
0.0
142
1.0
143
1.0
 70
  1712
 72
     1
 73
     0
 74
     0
  7

 75
     0
147
1.0
148
0.0
149
0.0
100
AcDbLayout
  1
Model
 70
     1
 71
     0
 10
0.0
 20
0.0
 11
297.0
 21
210.0
 12
0.0
 22
0.0
 32
0.0
 14
0.0
 24
0.0
 34
0.0
 15
297.0
 25
210.0
 35
0.0
146
0.0
 13
0.0
 23
0.0
 33
0.0
 16
1.0
 26
0.0
 36
0.0
 17
0.0
 27
1.0
 37
0.0
 76
     0
330
1F
331
29
  0
MLINESTYLE
  5
18
102
{ACAD_REACTORS
330
17
102
}
330
17
100
AcDbMlineStyle
  2
Standard
 70
     0
  3

 62
   256
 51
90.0
 52
90.0
 71
     2
 49
0.5
 62
   256
  6
BYLAYER
 49
-0.5
 62
   256
  6
BYLAYER
  0
ACDBPLACEHOLDER
  5
F
102
{ACAD_REACTORS
330
E
102
}
330
E
  0
SCALE
  5
48
102
{ACAD_REACTORS
330
47
102
}
330
47
100
AcDbScale
 70
     0
300
1:1
140
1.0
141
1.0
290
     1
  0
SCALE
  5
49
102
{ACAD_REACTORS
330
47
102
}
330
47
100
AcDbScale
 70
     0
300
1:2
140
1.0
141
2.0
290
     0
  0
SCALE
  5
4A
102
{ACAD_REACTORS
330
47
102
}
330
47
100
AcDbScale
 70
     0
300
1:4
140
1.0
141
4.0
290
     0
  0
SCALE
  5
4B
102
{ACAD_REACTORS
330
47
102
}
330
47
100
AcDbScale
 70
     0
300
1:5
140
1.0
141
5.0
290
     0
  0
SCALE
  5
4C
102
{ACAD_REACTORS
330
47
102
}
330
47
100
AcDbScale
 70
     0
300
1:8
140
1.0
141
8.0
290
     0
  0
SCALE
  5
4D
102
{ACAD_REACTORS
330
47
102
}
330
47
100
AcDbScale
 70
     0
300
1:10
140
1.0
141
10.0
290
     0
  0
SCALE
  5
4E
102
{ACAD_REACTORS
330
47
102
}
330
47
100
AcDbScale
 70
     0
300
1:16
140
1.0
141
16.0
290
     0
  0
SCALE
  5
4F
102
{ACAD_REACTORS
330
47
102
}
330
47
100
AcDbScale
 70
     0
300
1:20
140
1.0
141
20.0
290
     0
  0
SCALE
  5
50
102
{ACAD_REACTORS
330
47
102
}
330
47
100
AcDbScale
 70
     0
300
1:30
140
1.0
141
30.0
290
     0
  0
SCALE
  5
51
102
{ACAD_REACTORS
330
47
102
}
330
47
100
AcDbScale
 70
     0
300
1:40
140
1.0
141
40.0
290
     0
  0
SCALE
  5
52
102
{ACAD_REACTORS
330
47
102
}
330
47
100
AcDbScale
 70
     0
300
1:50
140
1.0
141
50.0
290
     0
  0
SCALE
  5
53
102
{ACAD_REACTORS
330
47
102
}
330
47
100
AcDbScale
 70
     0
300
1:100
140
1.0
141
100.0
290
     0
  0
SCALE
  5
54
102
{ACAD_REACTORS
330
47
102
}
330
47
100
AcDbScale
 70
     0
300
2:1
140
2.0
141
1.0
290
     0
  0
SCALE
  5
55
102
{ACAD_REACTORS
330
47
102
}
330
47
100
AcDbScale
 70
     0
300
4:1
140
4.0
141
1.0
290
     0
  0
SCALE
  5
56
102
{ACAD_REACTORS
330
47
102
}
330
47
100
AcDbScale
 70
     0
300
8:1
140
8.0
141
1.0
290
     0
  0
SCALE
  5
57
102
{ACAD_REACTORS
330
47
102
}
330
47
100
AcDbScale
 70
     0
300
10:1
140
10.0
141
1.0
290
     0
  0
SCALE
  5
58
102
{ACAD_REACTORS
330
47
102
}
330
47
100
AcDbScale
 70
     0
300
100:1
140
100.0
141
1.0
290
     0
  0
ENDSEC
  0
EOF
