  0
SECTION
  2
HEADER
  9
$ACADVER
  1
AC1015
  9
$ACADMAINTVER
 70
     6
  9
$DWGCODEPAGE
  3
ANSI_936
  9
$INSBASE
 10
0.0
 20
0.0
 30
0.0
  9
$EXTMIN
 10
0.0
 20
0.0
 30
0.0
  9
$EXTMAX
 10
297.0
 20
210.0
 30
0.0
  9
$LIMMIN
 10
0.0
 20
0.0
  9
$LIMMAX
 10
297.0
 20
210.0
  9
$ORTHOMODE
 70
     0
  9
$REGENMODE
 70
     1
  9
$FILLMODE
 70
     1
  9
$QTEXTMODE
 70
     0
  9
$MIRRTEXT
 70
     1
  9
$LTSCALE
 40
1.0
  9
$ATTMODE
 70
     1
  9
$TEXTSIZE
 40
3.5
  9
$TRACEWID
 40
1.0
  9
$TEXTSTYLE
  7
Standard
  9
$CLAYER
  8
0
  9
$CELTYPE
  6
ByLayer
  9
$CECOLOR
 62
   256
  9
$CELTSCALE
 40
1.0
  9
$DISPSILH
 70
     0
  9
$DIMSCALE
 40
1.0
  9
$DIMASZ
 40
4.08
  9
$DIMEXO
 40
0.0
  9
$DIMDLI
 40
3.75
  9
$DIMRND
 40
0.0
  9
$DIMDLE
 40
0.0
  9
$DIMEXE
 40
2.0
  9
$DIMTP
 40
0.0
  9
$DIMTM
 40
0.0
  9
$DIMTXT
 40
3.5
  9
$DIMCEN
 40
2.5
  9
$DIMTSZ
 40
0.0
  9
$DIMTOL
 70
     0
  9
$DIMLIM
 70
     0
  9
$DIMTIH
 70
     1
  9
$DIMTOH
 70
     1
  9
$DIMSE1
 70
     0
  9
$DIMSE2
 70
     0
  9
$DIMTAD
 70
     1
  9
$DIMZIN
 70
     0
  9
$DIMBLK
  1

  9
$DIMASO
 70
     1
  9
$DIMSHO
 70
     1
  9
$DIMPOST
  1

  9
$DIMAPOST
  1

  9
$DIMALT
 70
     0
  9
$DIMALTD
 70
     3
  9
$DIMALTF
 40
0.0393700787
  9
$DIMLFAC
 40
2.0
  9
$DIMTOFL
 70
     1
  9
$DIMTVP
 40
0.0
  9
$DIMTIX
 70
     0
  9
$DIMSOXD
 70
     0
  9
$DIMSAH
 70
     0
  9
$DIMBLK1
  1

  9
$DIMBLK2
  1

  9
$DIMSTYLE
  2
ISO-25
  9
$DIMCLRD
 70
     0
  9
$DIMCLRE
 70
     0
  9
$DIMCLRT
 70
     0
  9
$DIMTFAC
 40
1.0
  9
$DIMGAP
 40
1.524
  9
$DIMJUST
 70
     0
  9
$DIMSD1
 70
     0
  9
$DIMSD2
 70
     0
  9
$DIMTOLJ
 70
     0
  9
$DIMTZIN
 70
     0
  9
$DIMALTZ
 70
     0
  9
$DIMALTTZ
 70
     0
  9
$DIMUPT
 70
     0
  9
$DIMDEC
 70
     2
  9
$DIMTDEC
 70
     2
  9
$DIMALTU
 70
     2
  9
$DIMALTTD
 70
     3
  9
$DIMTXSTY
  7
Standard
  9
$DIMAUNIT
 70
     0
  9
$DIMADEC
 70
     2
  9
$DIMALTRND
 40
0.0
  9
$DIMAZIN
 70
     0
  9
$DIMDSEP
 70
    44
  9
$DIMATFIT
 70
     3
  9
$DIMFRAC
 70
     0
  9
$DIMLDRBLK
  1

  9
$DIMLUNIT
 70
     2
  9
$DIMLWD
 70
    -2
  9
$DIMLWE
 70
    -2
  9
$DIMTMOVE
 70
     0
  9
$LUNITS
 70
     2
  9
$LUPREC
 70
     2
  9
$SKETCHINC
 40
1.0
  9
$FILLETRAD
 40
0.0
  9
$AUNITS
 70
     0
  9
$AUPREC
 70
     2
  9
$MENU
  1
.
  9
$ELEVATION
 40
0.0
  9
$PELEVATION
 40
0.0
  9
$THICKNESS
 40
0.0
  9
$LIMCHECK
 70
     0
  9
$CHAMFERA
 40
0.0
  9
$CHAMFERB
 40
0.0
  9
$CHAMFERC
 40
0.0
  9
$CHAMFERD
 40
0.0
  9
$SKPOLY
 70
     0
  9
$TDCREATE
 40
2461215.166482026
  9
$TDUCREATE
 40
2461214.833148693
  9
$TDUPDATE
 40
2461215.166482361
  9
$TDUUPDATE
 40
2461214.833149028
  9
$TDINDWG
 40
0.0000000116
  9
$TDUSRTIMER
 40
0.0000000116
  9
$USRTIMER
 70
     1
  9
$ANGBASE
 50
0.0
  9
$ANGDIR
 70
     0
  9
$PDMODE
 70
     0
  9
$PDSIZE
 40
-1.0
  9
$PLINEWID
 40
0.0
  9
$SPLFRAME
 70
     0
  9
$SPLINETYPE
 70
     6
  9
$SPLINESEGS
 70
     8
  9
$HANDSEED
  5
165
  9
$SURFTAB1
 70
     6
  9
$SURFTAB2
 70
     6
  9
$SURFTYPE
 70
     6
  9
$SURFU
 70
     6
  9
$SURFV
 70
     6
  9
$UCSBASE
  2

  9
$UCSNAME
  2

  9
$UCSORG
 10
0.0
 20
0.0
 30
0.0
  9
$UCSXDIR
 10
1.0
 20
0.0
 30
0.0
  9
$UCSYDIR
 10
0.0
 20
1.0
 30
0.0
  9
$UCSORTHOREF
  2

  9
$UCSORTHOVIEW
 70
     0
  9
$UCSORGTOP
 10
0.0
 20
0.0
 30
0.0
  9
$UCSORGBOTTOM
 10
0.0
 20
0.0
 30
0.0
  9
$UCSORGLEFT
 10
0.0
 20
0.0
 30
0.0
  9
$UCSORGRIGHT
 10
0.0
 20
0.0
 30
0.0
  9
$UCSORGFRONT
 10
0.0
 20
0.0
 30
0.0
  9
$UCSORGBACK
 10
0.0
 20
0.0
 30
0.0
  9
$PUCSBASE
  2

  9
$PUCSNAME
  2

  9
$PUCSORG
 10
0.0
 20
0.0
 30
0.0
  9
$PUCSXDIR
 10
1.0
 20
0.0
 30
0.0
  9
$PUCSYDIR
 10
0.0
 20
1.0
 30
0.0
  9
$PUCSORTHOREF
  2

  9
$PUCSORTHOVIEW
 70
     0
  9
$PUCSORGTOP
 10
0.0
 20
0.0
 30
0.0
  9
$PUCSORGBOTTOM
 10
0.0
 20
0.0
 30
0.0
  9
$PUCSORGLEFT
 10
0.0
 20
0.0
 30
0.0
  9
$PUCSORGRIGHT
 10
0.0
 20
0.0
 30
0.0
  9
$PUCSORGFRONT
 10
0.0
 20
0.0
 30
0.0
  9
$PUCSORGBACK
 10
0.0
 20
0.0
 30
0.0
  9
$USERI1
 70
     0
  9
$USERI2
 70
     0
  9
$USERI3
 70
     0
  9
$USERI4
 70
     0
  9
$USERI5
 70
     0
  9
$USERR1
 40
0.0
  9
$USERR2
 40
0.0
  9
$USERR3
 40
0.0
  9
$USERR4
 40
0.0
  9
$USERR5
 40
0.0
  9
$WORLDVIEW
 70
     1
  9
$SHADEDGE
 70
     3
  9
$SHADEDIF
 70
    70
  9
$TILEMODE
 70
     1
  9
$MAXACTVP
 70
    64
  9
$PINSBASE
 10
0.0
 20
0.0
 30
0.0
  9
$PLIMCHECK
 70
     0
  9
$PEXTMIN
 10
1.0000000000E+20
 20
1.0000000000E+20
 30
1.0000000000E+20
  9
$PEXTMAX
 10
-1.0000000000E+20
 20
-1.0000000000E+20
 30
-1.0000000000E+20
  9
$PLIMMIN
 10
0.0
 20
0.0
  9
$PLIMMAX
 10
420.0
 20
297.0
  9
$UNITMODE
 70
     0
  9
$VISRETAIN
 70
     1
  9
$PLINEGEN
 70
     0
  9
$PSLTSCALE
 70
     1
  9
$TREEDEPTH
 70
  3020
  9
$CMLSTYLE
  2
Standard
  9
$CMLJUST
 70
     0
  9
$CMLSCALE
 40
20.0
  9
$PROXYGRAPHICS
 70
     1
  9
$MEASUREMENT
 70
     1
  9
$CELWEIGHT
370
    -1
  9
$ENDCAPS
280
     0
  9
$JOINSTYLE
280
     0
  9
$LWDISPLAY
290
     1
  9
$INSUNITS
 70
     4
  9
$HYPERLINKBASE
  1

  9
$STYLESHEET
  1

  9
$XEDIT
290
     1
  9
$CEPSNTYPE
380
     0
  9
$PSTYLEMODE
290
     1
  9
$FINGERPRINTGUID
  2
{6c6760cb-286a-42b1-81fb-92e0331acfb5}
  9
$VERSIONGUID
  2
{FAEB1C32-E019-11D5-929B-00C0DF256EC4}
  9
$EXTNAMES
290
     1
  9
$PSVPSCALE
 40
0.0
  9
$OLESTARTUP
290
     0
  0
ENDSEC
  0
SECTION
  2
CLASSES
  0
CLASS
  1
ACDBDICTIONARYWDFLT
  2
AcDbDictionaryWithDefault
  3
ObjectDBX Classes
 90
        0
280
     0
281
     0
  0
CLASS
  1
VISUALSTYLE
  2
AcDbVisualStyle
  3
ObjectDBX Classes
 90
     4095
280
     0
281
     0
  0
CLASS
  1
MATERIAL
  2
AcDbMaterial
  3
ObjectDBX Classes
 90
     1153
280
     0
281
     0
  0
CLASS
  1
SCALE
  2
AcDbScale
  3
ObjectDBX Classes
 90
     1153
280
     0
281
     0
  0
CLASS
  1
TABLESTYLE
  2
AcDbTableStyle
  3
ObjectDBX Classes
 90
     4095
280
     0
281
     0
  0
CLASS
  1
MLEADERSTYLE
  2
AcDbMLeaderStyle
  3
ACDB_MLEADERSTYLE_CLASS
 90
     4095
280
     0
281
     0
  0
CLASS
  1
SUN
  2
AcDbSun
  3
SCENEOE
 90
     1153
280
     0
281
     0
  0
CLASS
  1
ACDBPLACEHOLDER
  2
AcDbPlaceHolder
  3
ObjectDBX Classes
 90
        0
280
     0
281
     0
  0
CLASS
  1
LAYOUT
  2
AcDbLayout
  3
ObjectDBX Classes
 90
        0
280
     0
281
     0
  0
ENDSEC
  0
SECTION
  2
TABLES
  0
TABLE
  2
VPORT
  5
8
330
0
100
AcDbSymbolTable
 70
     1
  0
VPORT
  5
29
330
8
100
AcDbSymbolTableRecord
100
AcDbViewportTableRecord
  2
*Active
 70
     0
 10
0.0
 20
0.0
 11
1.0
 21
1.0
 12
148.5
 22
105.0
 13
0.0
 23
0.0
 14
10.0
 24
10.0
 15
10.0
 25
10.0
 16
0.0
 26
0.0
 36
1.0
 17
0.0
 27
0.0
 37
0.0
 40
210.0
 41
1.4142857143
 42
50.0
 43
0.0
 44
0.0
 50
0.0
 51
0.0
 71
     0
 72
  2000
 73
     1
 74
     3
 75
     0
 76
     0
 77
     0
 78
     0
281
     0
 65
     1
110
0.0
120
0.0
130
0.0
111
1.0
121
0.0
131
0.0
112
0.0
122
1.0
132
0.0
 79
     0
146
0.0
  0
ENDTAB
  0
TABLE
  2
LTYPE
  5
5
330
0
100
AcDbSymbolTable
 70
     6
  0
LTYPE
  5
14
330
5
100
AcDbSymbolTableRecord
100
AcDbLinetypeTableRecord
  2
ByBlock
 70
     0
  3

 72
    65
 73
     0
 40
0.0
  0
LTYPE
  5
15
330
5
100
AcDbSymbolTableRecord
100
AcDbLinetypeTableRecord
  2
ByLayer
 70
     0
  3

 72
    65
 73
     0
 40
0.0
  0
LTYPE
  5
16
330
5
100
AcDbSymbolTableRecord
100
AcDbLinetypeTableRecord
  2
Continuous
 70
     0
  3
Solid line
 72
    65
 73
     0
 40
0.0
  0
LTYPE
  5
5E
330
5
100
AcDbSymbolTableRecord
100
AcDbLinetypeTableRecord
  2
HIDDEN
 70
     0
  3
Hidden __ __ __ __ __ __ __ __ __ __ __ __ __ __
 72
    65
 73
     2
 40
1.905
 49
1.27
 74
     0
 49
-0.635
 74
     0
  0
LTYPE
  5
5F
330
5
100
AcDbSymbolTableRecord
100
AcDbLinetypeTableRecord
  2
PHANTOM
 70
     0
  3
Phantom ______  __  __  ______  __  __  ______
 72
    65
 73
     6
 40
12.7
 49
6.35
 74
     0
 49
-1.27
 74
     0
 49
1.27
 74
     0
 49
-1.27
 74
     0
 49
1.27
 74
     0
 49
-1.27
 74
     0
  0
LTYPE
  5
60
330
5
100
AcDbSymbolTableRecord
100
AcDbLinetypeTableRecord
  2
CENTER
 70
     0
  3
Center ____ _ ____ _ ____ _ ____ _ ____ _ ____
 72
    65
 73
     4
 40
10.16
 49
6.35
 74
     0
 49
-1.27
 74
     0
 49
1.27
 74
     0
 49
-1.27
 74
     0
  0
LTYPE
  5
61
330
5
100
AcDbSymbolTableRecord
100
AcDbLinetypeTableRecord
  2
CENTERX2
 70
     0
  3
Center (2x) ________  __  ________  __  _____
 72
    65
 73
     4
 40
20.32
 49
12.7
 74
     0
 49
-2.54
 74
     0
 49
2.54
 74
     0
 49
-2.54
 74
     0
  0
LTYPE
  5
62
330
5
100
AcDbSymbolTableRecord
100
AcDbLinetypeTableRecord
  2
DOT2
 70
     0
  3
Dot (.5x) ........................................
 72
    65
 73
     2
 40
0.635
 49
0.0
 74
     0
 49
-0.635
 74
     0
  0
ENDTAB
  0
TABLE
  2
LAYER
  5
2
330
0
100
AcDbSymbolTable
 70
    14
  0
LAYER
  5
10
330
2
100
AcDbSymbolTableRecord
100
AcDbLayerTableRecord
  2
0
 70
     0
 62
     7
  6
Continuous
370
    -3
390
F
  0
LAYER
  5
63
330
2
100
AcDbSymbolTableRecord
100
AcDbLayerTableRecord
  2
SLD-0
 70
     0
 62
     7
  6
Continuous
370
    -3
390
F
  0
LAYER
  5
64
330
2
100
AcDbSymbolTableRecord
100
AcDbLayerTableRecord
  2
5
 70
     0
 62
     7
  6
Continuous
370
    -3
390
F
  0
LAYER
  5
65
330
2
100
AcDbSymbolTableRecord
100
AcDbLayerTableRecord
  2
9
 70
     0
 62
     7
  6
Continuous
370
    -3
390
F
  0
LAYER
  5
66
330
2
100
AcDbSymbolTableRecord
100
AcDbLayerTableRecord
  2
10
 70
     0
 62
     7
  6
Continuous
370
    -3
390
F
  0
LAYER
  5
67
330
2
100
AcDbSymbolTableRecord
100
AcDbLayerTableRecord
  2
轮廓实线层
 70
     0
 62
     7
  6
Continuous
370
    50
390
F
  0
LAYER
  5
68
330
2
100
AcDbSymbolTableRecord
100
AcDbLayerTableRecord
  2
细线层
 70
     0
 62
     4
  6
Continuous
370
    25
390
F
  0
LAYER
  5
69
330
2
100
AcDbSymbolTableRecord
100
AcDbLayerTableRecord
  2
中心线层
 70
     0
 62
     1
  6
CENTERX2
370
    25
390
F
  0
LAYER
  5
6A
330
2
100
AcDbSymbolTableRecord
100
AcDbLayerTableRecord
  2
虚线层
 70
     0
 62
     6
  6
HIDDEN
370
    25
390
F
  0
LAYER
  5
6B
330
2
100
AcDbSymbolTableRecord
100
AcDbLayerTableRecord
  2
剖面线层
 70
     0
 62
     2
  6
Continuous
370
    25
390
F
  0
LAYER
  5
6C
330
2
100
AcDbSymbolTableRecord
100
AcDbLayerTableRecord
  2
文字层
 70
     0
 62
     3
  6
Continuous
370
    25
390
F
  0
LAYER
  5
6D
330
2
100
AcDbSymbolTableRecord
100
AcDbLayerTableRecord
  2
标注层
 70
     0
 62
     4
  6
Continuous
370
    25
390
F
  0
LAYER
  5
6E
330
2
100
AcDbSymbolTableRecord
100
AcDbLayerTableRecord
  2
符号标注层
 70
     0
 62
    31
  6
Continuous
370
    25
390
F
  0
LAYER
  5
6F
330
2
100
AcDbSymbolTableRecord
100
AcDbLayerTableRecord
  2
双点划线层
 70
     0
 62
     6
  6
PHANTOM
370
    25
390
F
  0
ENDTAB
  0
TABLE
  2
STYLE
  5
3
330
0
100
AcDbSymbolTable
 70
     1
  0
STYLE
  5
11
330
3
100
AcDbSymbolTableRecord
100
AcDbTextStyleTableRecord
  2
Standard
 70
     0
 40
0.0
 41
1.0
 50
0.0
 71
     0
 42
3.5
  3
txt
  4

  0
ENDTAB
  0
TABLE
  2
VIEW
  5
6
330
0
100
AcDbSymbolTable
 70
     0
  0
ENDTAB
  0
TABLE
  2
UCS
  5
7
330
0
100
AcDbSymbolTable
 70
     0
  0
ENDTAB
  0
TABLE
  2
APPID
  5
9
330
0
100
AcDbSymbolTable
 70
     1
  0
APPID
  5
12
330
9
100
AcDbSymbolTableRecord
100
AcDbRegAppTableRecord
  2
ACAD
 70
     0
  0
ENDTAB
  0
TABLE
  2
DIMSTYLE
  5
A
330
0
100
AcDbSymbolTable
 70
     1
100
AcDbDimStyleTable
  0
DIMSTYLE
105
27
330
A
100
AcDbSymbolTableRecord
100
AcDbDimStyleTableRecord
  2
ISO-25
 70
     0
 41
2.5
 42
0.625
 43
3.75
 44
1.25
 73
     0
 74
     0
 77
     1
 78
     8
140
2.5
141
2.5
143
0.0393700787
147
0.625
171
     3
172
     1
178
     0
271
     2
272
     2
274
     3
278
    44
283
     0
284
     8
340
11
  0
ENDTAB
  0
TABLE
  2
BLOCK_RECORD
  5
1
330
0
100
AcDbSymbolTable
 70
    10
  0
BLOCK_RECORD
  5
1F
330
1
100
AcDbSymbolTableRecord
100
AcDbBlockTableRecord
  2
*Model_Space
340
22
  0
BLOCK_RECORD
  5
1B
330
1
100
AcDbSymbolTableRecord
100
AcDbBlockTableRecord
  2
*Paper_Space
340
1E
  0
BLOCK_RECORD
  5
23
330
1
100
AcDbSymbolTableRecord
100
AcDbBlockTableRecord
  2
*Paper_Space0
340
26
  0
BLOCK_RECORD
  5
A5
330
1
100
AcDbSymbolTableRecord
100
AcDbBlockTableRecord
  2
SW_CENTERMARKSYMBOL_0
340
0
102
{BLKREFS
331
B0
102
}
  0
BLOCK_RECORD
  5
B1
330
1
100
AcDbSymbolTableRecord
100
AcDbBlockTableRecord
  2
SW_CENTERMARKSYMBOL_1
340
0
102
{BLKREFS
331
BC
102
}
  0
BLOCK_RECORD
  5
BD
330
1
100
AcDbSymbolTableRecord
100
AcDbBlockTableRecord
  2
SW_CENTERMARKSYMBOL_2
340
0
102
{BLKREFS
331
C8
102
}
  0
BLOCK_RECORD
  5
FD
330
1
100
AcDbSymbolTableRecord
100
AcDbBlockTableRecord
  2
SW_CENTERMARKSYMBOL_3
340
0
102
{BLKREFS
331
108
102
}
  0
BLOCK_RECORD
  5
109
330
1
100
AcDbSymbolTableRecord
100
AcDbBlockTableRecord
  2
SW_CENTERMARKSYMBOL_4
340
0
102
{BLKREFS
331
114
102
}
  0
BLOCK_RECORD
  5
115
330
1
100
AcDbSymbolTableRecord
100
AcDbBlockTableRecord
  2
SW_CENTERMARKSYMBOL_5
340
0
102
{BLKREFS
331
120
102
}
  0
BLOCK_RECORD
  5
121
330
1
100
AcDbSymbolTableRecord
100
AcDbBlockTableRecord
  2
SW_CENTERMARKSYMBOL_6
340
0
102
{BLKREFS
331
12C
102
}
  0
BLOCK_RECORD
  5
14C
330
1
100
AcDbSymbolTableRecord
100
AcDbBlockTableRecord
  2
SW_CENTERMARKSYMBOL_7
340
0
102
{BLKREFS
331
157
102
}
  0
BLOCK_RECORD
  5
158
330
1
100
AcDbSymbolTableRecord
100
AcDbBlockTableRecord
  2
SW_CENTERMARKSYMBOL_8
340
0
102
{BLKREFS
331
163
102
}
  0
ENDTAB
  0
ENDSEC
  0
SECTION
  2
BLOCKS
  0
BLOCK
  5
20
330
1F
100
AcDbEntity
  8
0
100
AcDbBlockBegin
  2
*Model_Space
 70
     0
 10
0.0
 20
0.0
 30
0.0
  3
*Model_Space
  1

  0
ENDBLK
  5
21
330
1F
100
AcDbEntity
  8
0
100
AcDbBlockEnd
  0
BLOCK
  5
1C
330
1B
100
AcDbEntity
 67
     1
  8
0
100
AcDbBlockBegin
  2
*Paper_Space
 70
     0
 10
0.0
 20
0.0
 30
0.0
  3
*Paper_Space
  1

  0
ENDBLK
  5
1D
330
1B
100
AcDbEntity
 67
     1
  8
0
100
AcDbBlockEnd
  0
BLOCK
  5
24
330
23
100
AcDbEntity
  8
0
100
AcDbBlockBegin
  2
*Paper_Space0
 70
     0
 10
0.0
 20
0.0
 30
0.0
  3
*Paper_Space0
  1

  0
ENDBLK
  5
25
330
23
100
AcDbEntity
  8
0
100
AcDbBlockEnd
  0
BLOCK
  5
A6
330
A5
100
AcDbEntity
  8
0
100
AcDbBlockBegin
  2
SW_CENTERMARKSYMBOL_0
 70
     0
 10
0.0
 20
0.0
 30
0.0
  3
SW_CENTERMARKSYMBOL_0
  1

  0
LINE
  5
A8
330
A5
100
AcDbEntity
  8
10
 62
     0
100
AcDbLine
 10
0.0
 20
0.0
 30
0.0
 11
0.0
 21
2.5
 31
0.0
  0
LINE
  5
A9
330
A5
100
AcDbEntity
  8
10
 62
     0
100
AcDbLine
 10
0.0
 20
0.0
 30
0.0
 11
-2.5
 21
0.0
 31
0.0
  0
LINE
  5
AA
330
A5
100
AcDbEntity
  8
10
 62
     0
100
AcDbLine
 10
0.0
 20
0.0
 30
0.0
 11
0.0
 21
-2.5
 31
0.0
  0
LINE
  5
AB
330
A5
100
AcDbEntity
  8
10
 62
     0
100
AcDbLine
 10
0.0
 20
0.0
 30
0.0
 11
2.5
 21
0.0
 31
0.0
  0
LINE
  5
AC
330
A5
100
AcDbEntity
  8
10
 62
     0
100
AcDbLine
 10
0.0
 20
5.0
 30
0.0
 11
0.0
 21
5.1205450734
 31
0.0
  0
LINE
  5
AD
330
A5
100
AcDbEntity
  8
10
 62
     0
100
AcDbLine
 10
-5.0
 20
0.0
 30
0.0
 11
-5.1205450734
 21
0.0
 31
0.0
  0
LINE
  5
AE
330
A5
100
AcDbEntity
  8
10
 62
     0
100
AcDbLine
 10
0.0
 20
-5.0
 30
0.0
 11
0.0
 21
-5.1205450734
 31
0.0
  0
LINE
  5
AF
330
A5
100
AcDbEntity
  8
10
 62
     0
100
AcDbLine
 10
5.0
 20
0.0
 30
0.0
 11
5.1205450734
 21
0.0
 31
0.0
  0
ENDBLK
  5
A7
330
A5
100
AcDbEntity
  8
0
100
AcDbBlockEnd
  0
BLOCK
  5
B2
330
B1
100
AcDbEntity
  8
0
100
AcDbBlockBegin
  2
SW_CENTERMARKSYMBOL_1
 70
     0
 10
0.0
 20
0.0
 30
0.0
  3
SW_CENTERMARKSYMBOL_1
  1

  0
LINE
  5
B4
330
B1
100
AcDbEntity
  8
10
 62
     0
100
AcDbLine
 10
0.0
 20
0.0
 30
0.0
 11
0.0
 21
2.5
 31
0.0
  0
LINE
  5
B5
330
B1
100
AcDbEntity
  8
10
 62
     0
100
AcDbLine
 10
0.0
 20
0.0
 30
0.0
 11
-2.5
 21
0.0
 31
0.0
  0
LINE
  5
B6
330
B1
100
AcDbEntity
  8
10
 62
     0
100
AcDbLine
 10
0.0
 20
0.0
 30
0.0
 11
0.0
 21
-2.5
 31
0.0
  0
LINE
  5
B7
330
B1
100
AcDbEntity
  8
10
 62
     0
100
AcDbLine
 10
0.0
 20
0.0
 30
0.0
 11
2.5
 21
0.0
 31
0.0
  0
LINE
  5
B8
330
B1
100
AcDbEntity
  8
10
 62
     0
100
AcDbLine
 10
0.0
 20
5.0
 30
0.0
 11
0.0
 21
5.1205450734
 31
0.0
  0
LINE
  5
B9
330
B1
100
AcDbEntity
  8
10
 62
     0
100
AcDbLine
 10
-5.0
 20
0.0
 30
0.0
 11
-5.1205450734
 21
0.0
 31
0.0
  0
LINE
  5
BA
330
B1
100
AcDbEntity
  8
10
 62
     0
100
AcDbLine
 10
0.0
 20
-5.0
 30
0.0
 11
0.0
 21
-5.1205450734
 31
0.0
  0
LINE
  5
BB
330
B1
100
AcDbEntity
  8
10
 62
     0
100
AcDbLine
 10
5.0
 20
0.0
 30
0.0
 11
5.1205450734
 21
0.0
 31
0.0
  0
ENDBLK
  5
B3
330
B1
100
AcDbEntity
  8
0
100
AcDbBlockEnd
  0
BLOCK
  5
BE
330
BD
100
AcDbEntity
  8
0
100
AcDbBlockBegin
  2
SW_CENTERMARKSYMBOL_2
 70
     0
 10
0.0
 20
0.0
 30
0.0
  3
SW_CENTERMARKSYMBOL_2
  1

  0
LINE
  5
C0
330
BD
100
AcDbEntity
  8
10
 62
     0
100
AcDbLine
 10
0.0
 20
0.0
 30
0.0
 11
0.0
 21
2.5
 31
0.0
  0
LINE
  5
C1
330
BD
100
AcDbEntity
  8
10
 62
     0
100
AcDbLine
 10
0.0
 20
0.0
 30
0.0
 11
-2.5
 21
0.0
 31
0.0
  0
LINE
  5
C2
330
BD
100
AcDbEntity
  8
10
 62
     0
100
AcDbLine
 10
0.0
 20
0.0
 30
0.0
 11
0.0
 21
-2.5
 31
0.0
  0
LINE
  5
C3
330
BD
100
AcDbEntity
  8
10
 62
     0
100
AcDbLine
 10
0.0
 20
0.0
 30
0.0
 11
2.5
 21
0.0
 31
0.0
  0
LINE
  5
C4
330
BD
100
AcDbEntity
  8
10
 62
     0
100
AcDbLine
 10
0.0
 20
5.0
 30
0.0
 11
0.0
 21
5.1205450734
 31
0.0
  0
LINE
  5
C5
330
BD
100
AcDbEntity
  8
10
 62
     0
100
AcDbLine
 10
-5.0
 20
0.0
 30
0.0
 11
-5.1205450734
 21
0.0
 31
0.0
  0
LINE
  5
C6
330
BD
100
AcDbEntity
  8
10
 62
     0
100
AcDbLine
 10
0.0
 20
-5.0
 30
0.0
 11
0.0
 21
-5.1205450734
 31
0.0
  0
LINE
  5
C7
330
BD
100
AcDbEntity
  8
10
 62
     0
100
AcDbLine
 10
5.0
 20
0.0
 30
0.0
 11
5.1205450734
 21
0.0
 31
0.0
  0
ENDBLK
  5
BF
330
BD
100
AcDbEntity
  8
0
100
AcDbBlockEnd
  0
BLOCK
  5
FE
330
FD
100
AcDbEntity
  8
0
100
AcDbBlockBegin
  2
SW_CENTERMARKSYMBOL_3
 70
     0
 10
0.0
 20
0.0
 30
0.0
  3
SW_CENTERMARKSYMBOL_3
  1

  0
LINE
  5
100
330
FD
100
AcDbEntity
  8
10
 62
     0
100
AcDbLine
 10
0.0
 20
0.0
 30
0.0
 11
0.0
 21
2.5
 31
0.0
  0
LINE
  5
101
330
FD
100
AcDbEntity
  8
10
 62
     0
100
AcDbLine
 10
0.0
 20
0.0
 30
0.0
 11
-2.5
 21
0.0
 31
0.0
  0
LINE
  5
102
330
FD
100
AcDbEntity
  8
10
 62
     0
100
AcDbLine
 10
0.0
 20
0.0
 30
0.0
 11
0.0
 21
-2.5
 31
0.0
  0
LINE
  5
103
330
FD
100
AcDbEntity
  8
10
 62
     0
100
AcDbLine
 10
0.0
 20
0.0
 30
0.0
 11
2.5
 21
0.0
 31
0.0
  0
LINE
  5
104
330
FD
100
AcDbEntity
  8
10
 62
     0
100
AcDbLine
 10
0.0
 20
5.0
 30
0.0
 11
0.0
 21
10.6761006289
 31
0.0
  0
LINE
  5
105
330
FD
100
AcDbEntity
  8
10
 62
     0
100
AcDbLine
 10
-5.0
 20
0.0
 30
0.0
 11
-10.6761006289
 21
0.0
 31
0.0
  0
LINE
  5
106
330
FD
100
AcDbEntity
  8
10
 62
     0
100
AcDbLine
 10
0.0
 20
-5.0
 30
0.0
 11
0.0
 21
-10.6761006289
 31
0.0
  0
LINE
  5
107
330
FD
100
AcDbEntity
  8
10
 62
     0
100
AcDbLine
 10
5.0
 20
0.0
 30
0.0
 11
10.6761006289
 21
0.0
 31
0.0
  0
ENDBLK
  5
FF
330
FD
100
AcDbEntity
  8
0
100
AcDbBlockEnd
  0
BLOCK
  5
10A
330
109
100
AcDbEntity
  8
0
100
AcDbBlockBegin
  2
SW_CENTERMARKSYMBOL_4
 70
     0
 10
0.0
 20
0.0
 30
0.0
  3
SW_CENTERMARKSYMBOL_4
  1

  0
LINE
  5
10C
330
109
100
AcDbEntity
  8
10
 62
     0
100
AcDbLine
 10
0.0
 20
0.0
 30
0.0
 11
0.0
 21
2.5
 31
0.0
  0
LINE
  5
10D
330
109
100
AcDbEntity
  8
10
 62
     0
100
AcDbLine
 10
0.0
 20
0.0
 30
0.0
 11
-2.5
 21
0.0
 31
0.0
  0
LINE
  5
10E
330
109
100
AcDbEntity
  8
10
 62
     0
100
AcDbLine
 10
0.0
 20
0.0
 30
0.0
 11
0.0
 21
-2.5
 31
0.0
  0
LINE
  5
10F
330
109
100
AcDbEntity
  8
10
 62
     0
100
AcDbLine
 10
0.0
 20
0.0
 30
0.0
 11
2.5
 21
0.0
 31
0.0
  0
LINE
  5
110
330
109
100
AcDbEntity
  8
10
 62
     0
100
AcDbLine
 10
0.0
 20
5.0
 30
0.0
 11
0.0
 21
5.6446540881
 31
0.0
  0
LINE
  5
111
330
109
100
AcDbEntity
  8
10
 62
     0
100
AcDbLine
 10
-5.0
 20
0.0
 30
0.0
 11
-5.6446540881
 21
0.0
 31
0.0
  0
LINE
  5
112
330
109
100
AcDbEntity
  8
10
 62
     0
100
AcDbLine
 10
0.0
 20
-5.0
 30
0.0
 11
0.0
 21
-5.6446540881
 31
0.0
  0
LINE
  5
113
330
109
100
AcDbEntity
  8
10
 62
     0
100
AcDbLine
 10
5.0
 20
0.0
 30
0.0
 11
5.6446540881
 21
0.0
 31
0.0
  0
ENDBLK
  5
10B
330
109
100
AcDbEntity
  8
0
100
AcDbBlockEnd
  0
BLOCK
  5
116
330
115
100
AcDbEntity
  8
0
100
AcDbBlockBegin
  2
SW_CENTERMARKSYMBOL_5
 70
     0
 10
0.0
 20
0.0
 30
0.0
  3
SW_CENTERMARKSYMBOL_5
  1

  0
LINE
  5
118
330
115
100
AcDbEntity
  8
10
 62
     0
100
AcDbLine
 10
0.0
 20
0.0
 30
0.0
 11
0.0
 21
2.5
 31
0.0
  0
LINE
  5
119
330
115
100
AcDbEntity
  8
10
 62
     0
100
AcDbLine
 10
0.0
 20
0.0
 30
0.0
 11
-2.5
 21
0.0
 31
0.0
  0
LINE
  5
11A
330
115
100
AcDbEntity
  8
10
 62
     0
100
AcDbLine
 10
0.0
 20
0.0
 30
0.0
 11
0.0
 21
-2.5
 31
0.0
  0
LINE
  5
11B
330
115
100
AcDbEntity
  8
10
 62
     0
100
AcDbLine
 10
0.0
 20
0.0
 30
0.0
 11
2.5
 21
0.0
 31
0.0
  0
LINE
  5
11C
330
115
100
AcDbEntity
  8
10
 62
     0
100
AcDbLine
 10
0.0
 20
5.0
 30
0.0
 11
0.0
 21
5.1205450734
 31
0.0
  0
LINE
  5
11D
330
115
100
AcDbEntity
  8
10
 62
     0
100
AcDbLine
 10
-5.0
 20
0.0
 30
0.0
 11
-5.1205450734
 21
0.0
 31
0.0
  0
LINE
  5
11E
330
115
100
AcDbEntity
  8
10
 62
     0
100
AcDbLine
 10
0.0
 20
-5.0
 30
0.0
 11
0.0
 21
-5.1205450734
 31
0.0
  0
LINE
  5
11F
330
115
100
AcDbEntity
  8
10
 62
     0
100
AcDbLine
 10
5.0
 20
0.0
 30
0.0
 11
5.1205450734
 21
0.0
 31
0.0
  0
ENDBLK
  5
117
330
115
100
AcDbEntity
  8
0
100
AcDbBlockEnd
  0
BLOCK
  5
122
330
121
100
AcDbEntity
  8
0
100
AcDbBlockBegin
  2
SW_CENTERMARKSYMBOL_6
 70
     0
 10
0.0
 20
0.0
 30
0.0
  3
SW_CENTERMARKSYMBOL_6
  1

  0
LINE
  5
124
330
121
100
AcDbEntity
  8
10
 62
     0
100
AcDbLine
 10
0.0
 20
0.0
 30
0.0
 11
0.0
 21
2.5
 31
0.0
  0
LINE
  5
125
330
121
100
AcDbEntity
  8
10
 62
     0
100
AcDbLine
 10
0.0
 20
0.0
 30
0.0
 11
-2.5
 21
0.0
 31
0.0
  0
LINE
  5
126
330
121
100
AcDbEntity
  8
10
 62
     0
100
AcDbLine
 10
0.0
 20
0.0
 30
0.0
 11
0.0
 21
-2.5
 31
0.0
  0
LINE
  5
127
330
121
100
AcDbEntity
  8
10
 62
     0
100
AcDbLine
 10
0.0
 20
0.0
 30
0.0
 11
2.5
 21
0.0
 31
0.0
  0
LINE
  5
128
330
121
100
AcDbEntity
  8
10
 62
     0
100
AcDbLine
 10
0.0
 20
5.0
 30
0.0
 11
0.0
 21
5.1205450734
 31
0.0
  0
LINE
  5
129
330
121
100
AcDbEntity
  8
10
 62
     0
100
AcDbLine
 10
-5.0
 20
0.0
 30
0.0
 11
-5.1205450734
 21
0.0
 31
0.0
  0
LINE
  5
12A
330
121
100
AcDbEntity
  8
10
 62
     0
100
AcDbLine
 10
0.0
 20
-5.0
 30
0.0
 11
0.0
 21
-5.1205450734
 31
0.0
  0
LINE
  5
12B
330
121
100
AcDbEntity
  8
10
 62
     0
100
AcDbLine
 10
5.0
 20
0.0
 30
0.0
 11
5.1205450734
 21
0.0
 31
0.0
  0
ENDBLK
  5
123
330
121
100
AcDbEntity
  8
0
100
AcDbBlockEnd
  0
BLOCK
  5
14D
330
14C
100
AcDbEntity
  8
0
100
AcDbBlockBegin
  2
SW_CENTERMARKSYMBOL_7
 70
     0
 10
0.0
 20
0.0
 30
0.0
  3
SW_CENTERMARKSYMBOL_7
  1

  0
LINE
  5
14F
330
14C
100
AcDbEntity
  8
10
 62
     0
100
AcDbLine
 10
0.0
 20
0.0
 30
0.0
 11
0.0
 21
2.5
 31
0.0
  0
LINE
  5
150
330
14C
100
AcDbEntity
  8
10
 62
     0
100
AcDbLine
 10
0.0
 20
0.0
 30
0.0
 11
-2.5
 21
0.0
 31
0.0
  0
LINE
  5
151
330
14C
100
AcDbEntity
  8
10
 62
     0
100
AcDbLine
 10
0.0
 20
0.0
 30
0.0
 11
0.0
 21
-2.5
 31
0.0
  0
LINE
  5
152
330
14C
100
AcDbEntity
  8
10
 62
     0
100
AcDbLine
 10
0.0
 20
0.0
 30
0.0
 11
2.5
 21
0.0
 31
0.0
  0
LINE
  5
153
330
14C
100
AcDbEntity
  8
10
 62
     0
100
AcDbLine
 10
0.0
 20
5.0
 30
0.0
 11
0.0
 21
5.1205450734
 31
0.0
  0
LINE
  5
154
330
14C
100
AcDbEntity
  8
10
 62
     0
100
AcDbLine
 10
-5.0
 20
0.0
 30
0.0
 11
-5.1205450734
 21
0.0
 31
0.0
  0
LINE
  5
155
330
14C
100
AcDbEntity
  8
10
 62
     0
100
AcDbLine
 10
0.0
 20
-5.0
 30
0.0
 11
0.0
 21
-5.1205450734
 31
0.0
  0
LINE
  5
156
330
14C
100
AcDbEntity
  8
10
 62
     0
100
AcDbLine
 10
5.0
 20
0.0
 30
0.0
 11
5.1205450734
 21
0.0
 31
0.0
  0
ENDBLK
  5
14E
330
14C
100
AcDbEntity
  8
0
100
AcDbBlockEnd
  0
BLOCK
  5
159
330
158
100
AcDbEntity
  8
0
100
AcDbBlockBegin
  2
SW_CENTERMARKSYMBOL_8
 70
     0
 10
0.0
 20
0.0
 30
0.0
  3
SW_CENTERMARKSYMBOL_8
  1

  0
LINE
  5
15B
330
158
100
AcDbEntity
  8
10
 62
     0
100
AcDbLine
 10
0.0
 20
0.0
 30
0.0
 11
0.0
 21
2.5
 31
0.0
  0
LINE
  5
15C
330
158
100
AcDbEntity
  8
10
 62
     0
100
AcDbLine
 10
0.0
 20
0.0
 30
0.0
 11
-2.5
 21
0.0
 31
0.0
  0
LINE
  5
15D
330
158
100
AcDbEntity
  8
10
 62
     0
100
AcDbLine
 10
0.0
 20
0.0
 30
0.0
 11
0.0
 21
-2.5
 31
0.0
  0
LINE
  5
15E
330
158
100
AcDbEntity
  8
10
 62
     0
100
AcDbLine
 10
0.0
 20
0.0
 30
0.0
 11
2.5
 21
0.0
 31
0.0
  0
LINE
  5
15F
330
158
100
AcDbEntity
  8
10
 62
     0
100
AcDbLine
 10
0.0
 20
5.0
 30
0.0
 11
0.0
 21
5.1205450734
 31
0.0
  0
LINE
  5
160
330
158
100
AcDbEntity
  8
10
 62
     0
100
AcDbLine
 10
-5.0
 20
0.0
 30
0.0
 11
-5.1205450734
 21
0.0
 31
0.0
  0
LINE
  5
161
330
158
100
AcDbEntity
  8
10
 62
     0
100
AcDbLine
 10
0.0
 20
-5.0
 30
0.0
 11
0.0
 21
-5.1205450734
 31
0.0
  0
LINE
  5
162
330
158
100
AcDbEntity
  8
10
 62
     0
100
AcDbLine
 10
5.0
 20
0.0
 30
0.0
 11
5.1205450734
 21
0.0
 31
0.0
  0
ENDBLK
  5
15A
330
158
100
AcDbEntity
  8
0
100
AcDbBlockEnd
  0
ENDSEC
  0
SECTION
  2
ENTITIES
  0
LINE
  5
70
330
1F
100
AcDbEntity
  8
0
  6
Continuous
 62
     7
370
    25
100
AcDbLine
 10
46.9066768575
 20
52.0733752621
 30
0.0
 11
46.9067349442
 21
52.0733752621
 31
0.0
  0
LINE
  5
71
330
1F
100
AcDbEntity
  8
0
  6
Continuous
 62
     7
370
    25
100
AcDbLine
 10
33.0
 20
68.5303983229
 30
0.0
 11
33.0
 21
45.4696016771
 31
0.0
  0
LINE
  5
72
330
1F
100
AcDbEntity
  8
0
  6
Continuous
 62
     7
370
    25
100
AcDbLine
 10
33.0
 20
68.5303983229
 30
0.0
 11
133.0
 21
68.5303983229
 31
0.0
  0
LINE
  5
73
330
1F
100
AcDbEntity
  8
0
  6
Continuous
 62
     7
370
    25
100
AcDbLine
 10
133.0
 20
68.5303983229
 30
0.0
 11
133.0
 21
45.4696016771
 31
0.0
  0
LINE
  5
74
330
1F
100
AcDbEntity
  8
0
  6
Continuous
 62
     7
370
    25
100
AcDbLine
 10
33.0
 20
45.4696016771
 30
0.0
 11
133.0
 21
45.4696016771
 31
0.0
  0
CIRCLE
  5
75
330
1F
100
AcDbEntity
  8
0
  6
Continuous
 62
     7
370
    25
100
AcDbCircle
 10
117.1719077568
 20
50.2914046122
 30
0.0
 40
2.62054507337524
  0
CIRCLE
  5
76
330
1F
100
AcDbEntity
  8
0
  6
Continuous
 62
     7
370
    25
100
AcDbCircle
 10
48.8280922432
 20
50.2914046122
 30
0.0
 40
2.620545073375254
  0
LINE
  5
77
330
1F
100
AcDbEntity
  8
0
  6
HIDDEN
 62
     7
370
    18
100
AcDbLine
 10
113.0838574423
 20
57.3144654088
 30
0.0
 11
113.0838574423
 21
52.0733752621
 31
0.0
  0
LINE
  5
78
330
1F
100
AcDbEntity
  8
0
  6
HIDDEN
 62
     7
370
    18
100
AcDbLine
 10
50.819706499
 20
54.6939203354
 30
0.0
 11
50.819706499
 21
57.3144654088
 31
0.0
  0
LINE
  5
79
330
1F
100
AcDbEntity
  8
0
  6
HIDDEN
 62
     7
370
    18
100
AcDbLine
 10
50.819706499
 20
52.0733752621
 30
0.0
 11
50.819706499
 21
54.6939203354
 31
0.0
  0
SPLINE
  5
7A
330
1F
100
AcDbEntity
  8
0
  6
HIDDEN
 62
     7
370
    18
100
AcDbSpline
210
0.0
220
0.0
230
1.0
 70
    11
 71
     3
 72
    62
 73
    58
 74
     0
 42
0.00000001
 43
0.00000001
 40
0.0
 40
0.0
 40
0.0
 40
0.0
 40
0.0312500000000001
 40
0.0312500000000001
 40
0.0625000000000002
 40
0.0625000000000002
 40
0.0937500000000002
 40
0.0937500000000002
 40
0.1250000000000003
 40
0.1250000000000003
 40
0.1875000000000005
 40
0.1875000000000005
 40
0.2187500000000006
 40
0.2187500000000006
 40
0.2500000000000007
 40
0.2500000000000007
 40
0.2812500000000008
 40
0.2812500000000008
 40
0.312500000000001
 40
0.312500000000001
 40
0.3437500000000011
 40
0.3437500000000011
 40
0.3750000000000013
 40
0.3750000000000013
 40
0.4375000000000015
 40
0.4375000000000015
 40
0.4687500000000016
 40
0.4687500000000016
 40
0.5000000000000017
 40
0.5000000000000017
 40
0.5312500000000018
 40
0.5312500000000018
 40
0.5625000000000018
 40
0.5625000000000018
 40
0.5937500000000018
 40
0.5937500000000018
 40
0.6250000000000018
 40
0.6250000000000018
 40
0.6875000000000014
 40
0.6875000000000014
 40
0.7187500000000013
 40
0.7187500000000013
 40
0.7500000000000011
 40
0.7500000000000011
 40
0.781250000000001
 40
0.781250000000001
 40
0.8125000000000009
 40
0.8125000000000009
 40
0.8437500000000008
 40
0.8437500000000008
 40
0.8750000000000006
 40
0.8750000000000006
 40
0.9375000000000003
 40
0.9375000000000003
 40
0.9687500000000001
 40
0.9687500000000001
 40
1.0
 40
1.0
 40
1.0
 40
1.0
 10
80.27463312368974
 20
56.47589098532494
 30
0.0
 10
80.44891184651789
 20
56.47589098532494
 30
0.0
 10
80.62005879745095
 20
56.49310150803143
 30
0.0
 10
80.95641199214822
 20
56.56032737543707
 30
0.0
 10
81.12340843695131
 20
56.61122665888129
 30
0.0
 10
81.44015405566502
 20
56.74308817738769
 30
0.0
 10
81.59019372052202
 20
56.82361098475041
 30
0.0
 10
81.87410392988785
 20
57.01361906221862
 30
0.0
 10
82.00757295275498
 20
57.12338023783813
 30
0.0
 10
82.36742776450764
 20
57.48319086959111
 30
0.0
 10
82.56211880044133
 20
57.7732572121316
 30
0.0
 10
82.75887234958046
 20
58.24505713302909
 30
0.0
 10
82.80985483290799
 20
58.41097243980737
 30
0.0
 10
82.87798237678611
 20
58.75034047346441
 30
0.0
 10
82.89518763659291
 20
58.92229623182997
 30
0.0
 10
82.89516874984326
 20
59.27085987146596
 30
0.0
 10
82.87794882676684
 20
59.4419834252198
 30
0.0
 10
82.81072848186953
 20
59.77825419179391
 30
0.0
 10
82.75984456255651
 20
59.94518633887832
 30
0.0
 10
82.62806984368795
 20
60.26176371174063
 30
0.0
 10
82.54760667558647
 20
60.41173241917271
 30
0.0
 10
82.35770357826162
 20
60.69557043853948
 30
0.0
 10
82.24802437370795
 20
60.82899211776893
 30
0.0
 10
81.88832485367219
 20
61.18888047843249
 30
0.0
 10
81.59811755104407
 20
61.38376931916194
 30
0.0
 10
81.12610452657589
 20
61.58064919966187
 30
0.0
 10
80.9601094922523
 20
61.63165577185573
 30
0.0
 10
80.62069955993877
 20
61.69979059996653
 30
0.0
 10
80.44873578095124
 20
61.71699223800609
 30
0.0
 10
80.10019629998003
 20
61.7169700154918
 30
0.0
 10
79.92905797628512
 20
61.69975033196905
 30
0.0
 10
79.59272157163278
 20
61.63250861741776
 30
0.0
 10
79.42573357645547
 20
61.58160248275917
 30
0.0
 10
79.10900867774929
 20
61.44973209778891
 30
0.0
 10
78.95897853735542
 20
61.36920625467899
 30
0.0
 10
78.67508619229935
 20
61.17919407838266
 30
0.0
 10
78.54162715734181
 20
61.06943319113178
 30
0.0
 10
78.1817982639613
 20
60.70962614702026
 30
0.0
 10
77.98712168204014
 20
60.41956691930672
 30
0.0
 10
77.79038320319061
 20
59.94778244013698
 30
0.0
 10
77.73940461202432
 20
59.78187274994792
 30
0.0
 10
77.6712825099551
 20
59.44251790745473
 30
0.0
 10
77.65407861138557
 20
59.27056892684446
 30
0.0
 10
77.65409749693683
 20
58.9220192113354
 30
0.0
 10
77.67131605783888
 20
58.75090236952943
 30
0.0
 10
77.73853107132267
 20
58.41464455414632
 30
0.0
 10
77.78941087724941
 20
58.24771874054271
 30
0.0
 10
77.92117562496783
 20
57.93115132866552
 30
0.0
 10
78.001632735083
 20
57.78118700460644
 30
0.0
 10
78.19152122825206
 20
57.4973564259155
 30
0.0
 10
78.30119279421884
 20
57.36393655057498
 30
0.0
 10
78.6608671196276
 20
57.00405106594559
 30
0.0
 10
78.95105494484233
 20
56.8091591858913
 30
0.0
 10
79.42303889266519
 20
56.61226551323013
 30
0.0
 10
79.58902243991724
 20
56.56125309496005
 30
0.0
 10
79.9284162678466
 20
56.4931019352978
 30
0.0
 10
80.10035440086159
 20
56.47589098532494
 30
0.0
 10
80.27463312368974
 20
56.47589098532494
 30
0.0
  0
LINE
  5
7B
330
1F
100
AcDbEntity
  8
0
  6
HIDDEN
 62
     7
370
    18
100
AcDbLine
 10
100.819706499
 20
63.2893081761
 30
0.0
 11
95.5786163522
 21
63.2893081761
 31
0.0
  0
LINE
  5
7C
330
1F
100
AcDbEntity
  8
0
  6
HIDDEN
 62
     7
370
    18
100
AcDbLine
 10
64.9706498952
 20
63.2893081761
 30
0.0
 11
59.7295597484
 21
63.2893081761
 31
0.0
  0
LINE
  5
7D
330
1F
100
AcDbEntity
  8
0
  6
HIDDEN
 62
     7
370
    18
100
AcDbLine
 10
120.106918239
 20
66.8532494759
 30
0.0
 11
123.251572327
 21
66.8532494759
 31
0.0
  0
LINE
  5
7E
330
1F
100
AcDbEntity
  8
0
  6
HIDDEN
 62
     7
370
    18
100
AcDbLine
 10
125.3480083857
 20
66.8532494759
 30
0.0
 11
128.4926624738
 21
66.8532494759
 31
0.0
  0
LINE
  5
7F
330
1F
100
AcDbEntity
  8
0
  6
HIDDEN
 62
     7
370
    18
100
AcDbLine
 10
37.5073375262
 20
66.8532494759
 30
0.0
 11
43.7966457023
 21
66.8532494759
 31
0.0
  0
LINE
  5
80
330
1F
100
AcDbEntity
  8
0
  6
HIDDEN
 62
     7
370
    18
100
AcDbLine
 10
40.6519916143
 20
62.2410901468
 30
0.0
 11
43.7966457023
 21
62.2410901468
 31
0.0
  0
LINE
  5
81
330
1F
100
AcDbEntity
  8
0
  6
HIDDEN
 62
     7
370
    18
100
AcDbLine
 10
37.5073375262
 20
62.2410901468
 30
0.0
 11
40.6519916143
 21
62.2410901468
 31
0.0
  0
LINE
  5
82
330
1F
100
AcDbEntity
  8
0
  6
HIDDEN
 62
     7
370
    18
100
AcDbLine
 10
120.106918239
 20
62.2410901468
 30
0.0
 11
123.251572327
 21
62.2410901468
 31
0.0
  0
LINE
  5
83
330
1F
100
AcDbEntity
  8
0
  6
HIDDEN
 62
     7
370
    18
100
AcDbLine
 10
125.3480083857
 20
62.2410901468
 30
0.0
 11
128.4926624738
 21
62.2410901468
 31
0.0
  0
LINE
  5
84
330
1F
100
AcDbEntity
  8
0
  6
HIDDEN
 62
     7
370
    18
100
AcDbLine
 10
123.251572327
 20
62.2410901468
 30
0.0
 11
125.3480083857
 21
62.2410901468
 31
0.0
  0
LINE
  5
85
330
1F
100
AcDbEntity
  8
0
  6
HIDDEN
 62
     7
370
    18
100
AcDbLine
 10
123.251572327
 20
66.8532494759
 30
0.0
 11
125.3480083857
 21
66.8532494759
 31
0.0
  0
LINE
  5
86
330
1F
100
AcDbEntity
  8
0
  6
HIDDEN
 62
     7
370
    18
100
AcDbLine
 10
133.0
 20
51.7589098532
 30
0.0
 11
33.0
 21
51.7589098532
 31
0.0
  0
LINE
  5
87
330
1F
100
AcDbEntity
  8
0
  6
HIDDEN
 62
     7
370
    18
100
AcDbLine
 10
133.0
 20
57.3144654088
 30
0.0
 11
113.0838574423
 21
57.3144654088
 31
0.0
  0
LINE
  5
88
330
1F
100
AcDbEntity
  8
0
  6
HIDDEN
 62
     7
370
    18
100
AcDbLine
 10
119.0932650558
 20
52.0733752621
 30
0.0
 11
133.0
 21
52.0733752621
 31
0.0
  0
LINE
  5
89
330
1F
100
AcDbEntity
  8
0
  6
HIDDEN
 62
     7
370
    18
100
AcDbLine
 10
113.0838574423
 20
52.0733752621
 30
0.0
 11
115.2504923711
 21
52.0733752621
 31
0.0
  0
LINE
  5
8A
330
1F
100
AcDbEntity
  8
0
  6
HIDDEN
 62
     7
370
    18
100
AcDbLine
 10
50.819706499
 20
52.0733752621
 30
0.0
 11
52.3942888339
 21
54.6939203354
 31
0.0
  0
LINE
  5
8B
330
1F
100
AcDbEntity
  8
0
  6
HIDDEN
 62
     7
370
    18
100
AcDbLine
 10
52.3942888339
 20
54.6939203354
 30
0.0
 11
50.819706499
 21
57.3144654088
 31
0.0
  0
LINE
  5
8C
330
1F
100
AcDbEntity
  8
0
  6
HIDDEN
 62
     7
370
    18
100
AcDbLine
 10
50.7495076289
 20
52.0733752621
 30
0.0
 11
50.819706499
 21
52.0733752621
 31
0.0
  0
LINE
  5
8D
330
1F
100
AcDbEntity
  8
0
  6
HIDDEN
 62
     7
370
    18
100
AcDbLine
 10
33.0
 20
52.0733752621
 30
0.0
 11
46.9066768575
 21
52.0733752621
 31
0.0
  0
LINE
  5
8E
330
1F
100
AcDbEntity
  8
0
  6
HIDDEN
 62
     7
370
    18
100
AcDbLine
 10
50.819706499
 20
57.3144654088
 30
0.0
 11
33.0
 21
57.3144654088
 31
0.0
  0
LINE
  5
8F
330
1F
100
AcDbEntity
  8
0
  6
HIDDEN
 62
     7
370
    18
100
AcDbLine
 10
113.0838574423
 20
57.3144654088
 30
0.0
 11
111.5092751074
 21
54.6939203354
 31
0.0
  0
LINE
  5
90
330
1F
100
AcDbEntity
  8
0
  6
HIDDEN
 62
     7
370
    18
100
AcDbLine
 10
111.5092751074
 20
54.6939203354
 30
0.0
 11
113.0838574423
 21
52.0733752621
 31
0.0
  0
LINE
  5
91
330
1F
100
AcDbEntity
  8
0
  6
HIDDEN
 62
     7
370
    18
100
AcDbLine
 10
88.4507337526
 20
45.4696016771
 30
0.0
 11
88.4507337526
 21
68.5303983229
 31
0.0
  0
LINE
  5
92
330
1F
100
AcDbEntity
  8
0
  6
HIDDEN
 62
     7
370
    18
100
AcDbLine
 10
72.0985324948
 20
68.5303983229
 30
0.0
 11
72.0985324948
 21
45.4696016771
 31
0.0
  0
LINE
  5
93
330
1F
100
AcDbEntity
  8
0
  6
HIDDEN
 62
     7
370
    18
100
AcDbLine
 10
100.819706499
 20
45.4696016771
 30
0.0
 11
100.819706499
 21
63.2893081761
 31
0.0
  0
LINE
  5
94
330
1F
100
AcDbEntity
  8
0
  6
HIDDEN
 62
     7
370
    18
100
AcDbLine
 10
95.5786163522
 20
63.2893081761
 30
0.0
 11
95.5786163522
 21
45.4696016771
 31
0.0
  0
LINE
  5
95
330
1F
100
AcDbEntity
  8
0
  6
HIDDEN
 62
     7
370
    18
100
AcDbLine
 10
100.819706499
 20
63.2893081761
 30
0.0
 11
98.1991614256
 21
64.8638905111
 31
0.0
  0
LINE
  5
96
330
1F
100
AcDbEntity
  8
0
  6
HIDDEN
 62
     7
370
    18
100
AcDbLine
 10
98.1991614256
 20
64.8638905111
 30
0.0
 11
95.5786163522
 21
63.2893081761
 31
0.0
  0
LINE
  5
97
330
1F
100
AcDbEntity
  8
0
  6
HIDDEN
 62
     7
370
    18
100
AcDbLine
 10
64.9706498952
 20
45.4696016771
 30
0.0
 11
64.9706498952
 21
63.2893081761
 31
0.0
  0
LINE
  5
98
330
1F
100
AcDbEntity
  8
0
  6
HIDDEN
 62
     7
370
    18
100
AcDbLine
 10
59.7295597484
 20
63.2893081761
 30
0.0
 11
59.7295597484
 21
45.4696016771
 31
0.0
  0
LINE
  5
99
330
1F
100
AcDbEntity
  8
0
  6
HIDDEN
 62
     7
370
    18
100
AcDbLine
 10
64.9706498952
 20
63.2893081761
 30
0.0
 11
62.3501048218
 21
64.8638905111
 31
0.0
  0
LINE
  5
9A
330
1F
100
AcDbEntity
  8
0
  6
HIDDEN
 62
     7
370
    18
100
AcDbLine
 10
62.3501048218
 20
64.8638905111
 30
0.0
 11
59.7295597484
 21
63.2893081761
 31
0.0
  0
LINE
  5
9B
330
1F
100
AcDbEntity
  8
0
  6
HIDDEN
 62
     7
370
    18
100
AcDbLine
 10
118.429769392
 20
68.5303983229
 30
0.0
 11
120.106918239
 21
66.8532494759
 31
0.0
  0
LINE
  5
9C
330
1F
100
AcDbEntity
  8
0
  6
HIDDEN
 62
     7
370
    18
100
AcDbLine
 10
128.4926624738
 20
66.8532494759
 30
0.0
 11
130.1698113208
 21
68.5303983229
 31
0.0
  0
LINE
  5
9D
330
1F
100
AcDbEntity
  8
0
  6
HIDDEN
 62
     7
370
    18
100
AcDbLine
 10
35.8301886792
 20
68.5303983229
 30
0.0
 11
37.5073375262
 21
66.8532494759
 31
0.0
  0
LINE
  5
9E
330
1F
100
AcDbEntity
  8
0
  6
HIDDEN
 62
     7
370
    18
100
AcDbLine
 10
43.7966457023
 20
66.8532494759
 30
0.0
 11
45.4737945493
 21
68.5303983229
 31
0.0
  0
LINE
  5
9F
330
1F
100
AcDbEntity
  8
0
  6
HIDDEN
 62
     7
370
    18
100
AcDbLine
 10
46.9067349442
 20
52.0733752621
 30
0.0
 11
50.7495076289
 21
52.0733752621
 31
0.0
  0
LINE
  5
A0
330
1F
100
AcDbEntity
  8
0
  6
HIDDEN
 62
     7
370
    18
100
AcDbLine
 10
115.2504923711
 20
52.0733752621
 30
0.0
 11
119.0932650558
 21
52.0733752621
 31
0.0
  0
LINE
  5
A1
330
1F
100
AcDbEntity
  8
0
  6
HIDDEN
 62
     7
370
    18
100
AcDbLine
 10
37.5073375262
 20
66.8532494759
 30
0.0
 11
37.5073375262
 21
62.2410901468
 31
0.0
  0
LINE
  5
A2
330
1F
100
AcDbEntity
  8
0
  6
HIDDEN
 62
     7
370
    18
100
AcDbLine
 10
43.7966457023
 20
62.2410901468
 30
0.0
 11
43.7966457023
 21
66.8532494759
 31
0.0
  0
LINE
  5
A3
330
1F
100
AcDbEntity
  8
0
  6
HIDDEN
 62
     7
370
    18
100
AcDbLine
 10
120.106918239
 20
66.8532494759
 30
0.0
 11
120.106918239
 21
62.2410901468
 31
0.0
  0
LINE
  5
A4
330
1F
100
AcDbEntity
  8
0
  6
HIDDEN
 62
     7
370
    18
100
AcDbLine
 10
128.4926624738
 20
62.2410901468
 30
0.0
 11
128.4926624738
 21
66.8532494759
 31
0.0
  0
INSERT
  5
B0
330
1F
100
AcDbEntity
  8
10
100
AcDbBlockReference
  2
SW_CENTERMARKSYMBOL_0
 10
48.8280922432
 20
50.2914046122
 30
0.0
  0
INSERT
  5
BC
330
1F
100
AcDbEntity
  8
10
100
AcDbBlockReference
  2
SW_CENTERMARKSYMBOL_1
 10
117.1719077568
 20
50.2914046122
 30
0.0
  0
INSERT
  5
C8
330
1F
100
AcDbEntity
  8
10
100
AcDbBlockReference
  2
SW_CENTERMARKSYMBOL_2
 10
80.2746331237
 20
59.0964360587
 30
0.0
  0
LINE
  5
C9
330
1F
100
AcDbEntity
  8
0
  6
Continuous
 62
     7
370
    25
100
AcDbLine
 10
33.0
 20
141.6477987421
 30
0.0
 11
133.0
 21
141.6477987421
 31
0.0
  0
LINE
  5
CA
330
1F
100
AcDbEntity
  8
0
  6
Continuous
 62
     7
370
    25
100
AcDbLine
 10
33.0
 20
174.3522012579
 30
0.0
 11
33.0
 21
141.6477987421
 31
0.0
  0
ARC
  5
CB
330
1F
100
AcDbEntity
  8
0
  6
Continuous
 62
     7
370
    25
100
AcDbCircle
 10
125.3480083857
 20
165.7568134172
 30
0.0
 40
4.82180293501051
100
AcDbArc
 50
270.0
 51
90.0
  0
LINE
  5
CC
330
1F
100
AcDbEntity
  8
0
  6
Continuous
 62
     7
370
    25
100
AcDbLine
 10
123.251572327
 20
170.5786163522
 30
0.0
 11
125.3480083857
 21
170.5786163522
 31
0.0
  0
ARC
  5
CD
330
1F
100
AcDbEntity
  8
0
  6
Continuous
 62
     7
370
    25
100
AcDbCircle
 10
123.251572327
 20
165.7568134172
 30
0.0
 40
4.82180293501051
100
AcDbArc
 50
90.0
 51
270.0
  0
LINE
  5
CE
330
1F
100
AcDbEntity
  8
0
  6
Continuous
 62
     7
370
    25
100
AcDbLine
 10
125.3480083857
 20
160.9350104822
 30
0.0
 11
123.251572327
 21
160.9350104822
 31
0.0
  0
CIRCLE
  5
CF
330
1F
100
AcDbEntity
  8
0
  6
Continuous
 62
     7
370
    25
100
AcDbCircle
 10
40.6519916143
 20
165.7568134172
 30
0.0
 40
4.821802935010481
  0
CIRCLE
  5
D0
330
1F
100
AcDbEntity
  8
0
  6
Continuous
 62
     7
370
    25
100
AcDbCircle
 10
80.2746331237
 20
154.5408805031
 30
0.0
 40
8.176100628930811
  0
LINE
  5
D1
330
1F
100
AcDbEntity
  8
0
  6
Continuous
 62
     7
370
    25
100
AcDbLine
 10
133.0
 20
141.6477987421
 30
0.0
 11
133.0
 21
174.3522012579
 31
0.0
  0
LINE
  5
D2
330
1F
100
AcDbEntity
  8
0
  6
Continuous
 62
     7
370
    25
100
AcDbLine
 10
133.0
 20
174.3522012579
 30
0.0
 11
33.0
 21
174.3522012579
 31
0.0
  0
LINE
  5
D3
330
1F
100
AcDbEntity
  8
0
  6
Continuous
 62
     7
370
    25
100
AcDbLine
 10
125.3480083857
 20
168.9014675052
 30
0.0
 11
123.251572327
 21
168.9014675052
 31
0.0
  0
ARC
  5
D4
330
1F
100
AcDbEntity
  8
0
  6
Continuous
 62
     7
370
    25
100
AcDbCircle
 10
123.251572327
 20
165.7568134172
 30
0.0
 40
3.144654088050316
100
AcDbArc
 50
90.0
 51
270.0
  0
ARC
  5
D5
330
1F
100
AcDbEntity
  8
0
  6
Continuous
 62
     7
370
    25
100
AcDbCircle
 10
125.3480083857
 20
165.7568134172
 30
0.0
 40
3.144654088050316
100
AcDbArc
 50
270.0
 51
90.0
  0
CIRCLE
  5
D6
330
1F
100
AcDbEntity
  8
0
  6
Continuous
 62
     7
370
    25
100
AcDbCircle
 10
40.6519916143
 20
165.7568134172
 30
0.0
 40
3.144654088050316
  0
LINE
  5
D7
330
1F
100
AcDbEntity
  8
0
  6
Continuous
 62
     7
370
    25
100
AcDbLine
 10
123.251572327
 20
162.6121593291
 30
0.0
 11
125.3480083857
 21
162.6121593291
 31
0.0
  0
CIRCLE
  5
D8
330
1F
100
AcDbEntity
  8
0
  6
HIDDEN
 62
     7
370
    18
100
AcDbCircle
 10
62.3501048218
 20
154.5408805031
 30
0.0
 40
2.620545073375268
  0
CIRCLE
  5
D9
330
1F
100
AcDbEntity
  8
0
  6
HIDDEN
 62
     7
370
    18
100
AcDbCircle
 10
98.1991614256
 20
154.5408805031
 30
0.0
 40
2.620545073375268
  0
LINE
  5
DA
330
1F
100
AcDbEntity
  8
0
  6
HIDDEN
 62
     7
370
    18
100
AcDbLine
 10
50.819706499
 20
161.6687631027
 30
0.0
 11
50.819706499
 21
166.9098532495
 31
0.0
  0
LINE
  5
DB
330
1F
100
AcDbEntity
  8
0
  6
HIDDEN
 62
     7
370
    18
100
AcDbLine
 10
113.0838574423
 20
166.9098532495
 30
0.0
 11
113.0838574423
 21
161.6687631027
 31
0.0
  0
LINE
  5
DC
330
1F
100
AcDbEntity
  8
0
  6
HIDDEN
 62
     7
370
    18
100
AcDbLine
 10
50.819706499
 20
145.5262054507
 30
0.0
 11
50.819706499
 21
150.7672955975
 31
0.0
  0
SPLINE
  5
DD
330
1F
100
AcDbEntity
  8
0
  6
HIDDEN
 62
     7
370
    18
100
AcDbSpline
210
0.0
220
0.0
230
1.0
 70
    11
 71
     3
 72
    58
 73
    54
 74
     0
 42
0.00000001
 43
0.00000001
 40
0.0
 40
0.0
 40
0.0
 40
0.0
 40
0.0312500000000003
 40
0.0312500000000003
 40
0.0625000000000005
 40
0.0625000000000005
 40
0.0937500000000008
 40
0.0937500000000008
 40
0.1250000000000011
 40
0.1250000000000011
 40
0.1562500000000014
 40
0.1562500000000014
 40
0.1875000000000016
 40
0.1875000000000016
 40
0.2187500000000019
 40
0.2187500000000019
 40
0.2500000000000022
 40
0.2500000000000022
 40
0.3125000000000027
 40
0.3125000000000027
 40
0.3437500000000022
 40
0.3437500000000022
 40
0.3750000000000017
 40
0.3750000000000017
 40
0.4375000000000017
 40
0.4375000000000017
 40
0.5000000000000018
 40
0.5000000000000018
 40
0.5312500000000018
 40
0.5312500000000018
 40
0.5625000000000019
 40
0.5625000000000019
 40
0.5937500000000019
 40
0.5937500000000019
 40
0.625000000000002
 40
0.625000000000002
 40
0.656250000000002
 40
0.656250000000002
 40
0.6875000000000021
 40
0.6875000000000021
 40
0.7187500000000021
 40
0.7187500000000021
 40
0.7500000000000021
 40
0.7500000000000021
 40
0.8125000000000022
 40
0.8125000000000022
 40
0.8437500000000023
 40
0.8437500000000023
 40
0.8750000000000023
 40
0.8750000000000023
 40
0.9375000000000012
 40
0.9375000000000012
 40
1.0
 40
1.0
 40
1.0
 40
1.0
 10
50.74950762891227
 20
148.146750524109
 30
0.0
 10
50.74950762891227
 20
148.0109426548648
 30
0.0
 10
50.73992803267069
 20
147.8774749460619
 30
0.0
 10
50.70106696245332
 20
147.6151149844183
 30
0.0
 10
50.67118904928461
 20
147.4849276284235
 30
0.0
 10
50.59040176808481
 20
147.2406904587176
 30
0.0
 10
50.53955653303306
 20
147.125575503393
 30
0.0
 10
50.41218286293319
 20
146.9098325463664
 30
0.0
 10
50.33709971460718
 20
146.8122029528399
 30
0.0
 10
50.16501745275559
 20
146.6397447103753
 30
0.0
 10
50.06606749906035
 20
146.5634933588924
 30
0.0
 10
49.85211056291246
 20
146.4367594407332
 30
0.0
 10
49.73699305004198
 20
146.3854935813949
 30
0.0
 10
49.49021506293861
 20
146.3036414137999
 30
0.0
 10
49.36216231370905
 20
146.2742616989476
 30
0.0
 10
49.09962502477794
 20
146.2351260044206
 30
0.0
 10
48.96342934040789
 20
146.2253862877252
 30
0.0
 10
48.56063452499514
 20
146.2252334499346
 30
0.0
 10
48.29018599404122
 20
146.2629964907187
 30
0.0
 10
47.92464426623054
 20
146.3834137813776
 30
0.0
 10
47.80706230214469
 20
146.4352839418099
 30
0.0
 10
47.59259199420351
 20
146.5617401271447
 30
0.0
 10
47.49574437058138
 20
146.6358060868529
 30
0.0
 10
47.23490901631609
 20
146.8953055270807
 30
0.0
 10
47.10768952164659
 20
147.1151435636111
 30
0.0
 10
46.94484961378171
 20
147.6051630568517
 30
0.0
 10
46.90678348992009
 20
147.8739431206761
 30
0.0
 10
46.90662386632126
 20
148.2814941859085
 30
0.0
 10
46.91615848283327
 20
148.4150275753727
 30
0.0
 10
46.95493705304219
 20
148.6775023577435
 30
0.0
 10
46.98477765564439
 20
148.8077540549098
 30
0.0
 10
47.06550392025764
 20
149.052127702162
 30
0.0
 10
47.11632340031571
 20
149.1673098174307
 30
0.0
 10
47.24365746393352
 20
149.3831849456102
 30
0.0
 10
47.31873222351826
 20
149.4808837111159
 30
0.0
 10
47.49081168070596
 20
149.6534610236077
 30
0.0
 10
47.58977004380702
 20
149.7297670244309
 30
0.0
 10
47.8037620624266
 20
149.8565919321414
 30
0.0
 10
47.91890563550913
 20
149.9078947298115
 30
0.0
 10
48.16575434363121
 20
149.9898062012626
 30
0.0
 10
48.29384201399618
 20
150.0192052609336
 30
0.0
 10
48.55646681043911
 20
150.0583684576327
 30
0.0
 10
48.69270926185363
 20
150.0681146418034
 30
0.0
 10
49.09563533747727
 20
150.0682678332344
 30
0.0
 10
49.36617562401798
 20
150.0304808350041
 30
0.0
 10
49.73182112402765
 20
149.9099773905749
 30
0.0
 10
49.84943888869326
 20
149.8580652410689
 30
0.0
 10
50.06393311121546
 20
149.7315251076904
 30
0.0
 10
50.1607904615882
 20
149.6574074919108
 30
0.0
 10
50.42164174827122
 20
149.3977085794417
 30
0.0
 10
50.54881180755881
 20
149.1777250303187
 30
0.0
 10
50.71151688364422
 20
148.6874683043316
 30
0.0
 10
50.74950762891227
 20
148.4183662625973
 30
0.0
 10
50.74950762891227
 20
148.146750524109
 30
0.0
  0
LINE
  5
DE
330
1F
100
AcDbEntity
  8
0
  6
HIDDEN
 62
     7
370
    18
100
AcDbLine
 10
113.0838574423
 20
150.7672955975
 30
0.0
 11
113.0838574423
 21
145.5262054507
 31
0.0
  0
SPLINE
  5
DF
330
1F
100
AcDbEntity
  8
0
  6
HIDDEN
 62
     7
370
    18
100
AcDbSpline
210
0.0
220
0.0
230
1.0
 70
    11
 71
     3
 72
    58
 73
    54
 74
     0
 42
0.00000001
 43
0.00000001
 40
0.0
 40
0.0
 40
0.0
 40
0.0
 40
0.0312500000000005
 40
0.0312500000000005
 40
0.0625000000000011
 40
0.0625000000000011
 40
0.0937500000000016
 40
0.0937500000000016
 40
0.1250000000000021
 40
0.1250000000000021
 40
0.1562500000000027
 40
0.1562500000000027
 40
0.1875000000000032
 40
0.1875000000000032
 40
0.2187500000000037
 40
0.2187500000000037
 40
0.2500000000000043
 40
0.2500000000000043
 40
0.3125000000000037
 40
0.3125000000000037
 40
0.3437500000000034
 40
0.3437500000000034
 40
0.375000000000003
 40
0.375000000000003
 40
0.4375000000000024
 40
0.4375000000000024
 40
0.5000000000000018
 40
0.5000000000000018
 40
0.5312500000000016
 40
0.5312500000000016
 40
0.5625000000000013
 40
0.5625000000000013
 40
0.593750000000001
 40
0.593750000000001
 40
0.6250000000000008
 40
0.6250000000000008
 40
0.6562500000000006
 40
0.6562500000000006
 40
0.6875000000000003
 40
0.6875000000000003
 40
0.7187500000000001
 40
0.7187500000000001
 40
0.7499999999999998
 40
0.7499999999999998
 40
0.8124999999999992
 40
0.8124999999999992
 40
0.8437499999999998
 40
0.8437499999999998
 40
0.8750000000000003
 40
0.8750000000000003
 40
0.9375000000000001
 40
0.9375000000000001
 40
1.0
 40
1.0
 40
1.0
 40
1.0
 10
115.2504923710877
 20
148.146750524109
 30
0.0
 10
115.2504923710877
 20
148.2825583933532
 30
0.0
 10
115.2600719673293
 20
148.4160261021561
 30
0.0
 10
115.2989330375467
 20
148.6783860637998
 30
0.0
 10
115.3288109507154
 20
148.8085734197945
 30
0.0
 10
115.4095982319152
 20
149.0528105895005
 30
0.0
 10
115.460443466967
 20
149.167925544825
 30
0.0
 10
115.5878171370668
 20
149.3836685018516
 30
0.0
 10
115.6629002853928
 20
149.4812980953781
 30
0.0
 10
115.8349825472444
 20
149.6537563378427
 30
0.0
 10
115.9339325009396
 20
149.7300076893256
 30
0.0
 10
116.1478894370876
 20
149.8567416074848
 30
0.0
 10
116.263006949958
 20
149.9080074668231
 30
0.0
 10
116.5097849370614
 20
149.9898596344182
 30
0.0
 10
116.6378376862909
 20
150.0192393492704
 30
0.0
 10
116.9003749752221
 20
150.0583750437974
 30
0.0
 10
117.0365706595921
 20
150.0681147604928
 30
0.0
 10
117.4393654750049
 20
150.0682675982834
 30
0.0
 10
117.7098140059588
 20
150.0305045574993
 30
0.0
 10
118.0753557337695
 20
149.9100872668404
 30
0.0
 10
118.1929376978553
 20
149.8582171064081
 30
0.0
 10
118.4074080057965
 20
149.7317609210733
 30
0.0
 10
118.5042556294186
 20
149.6576949613651
 30
0.0
 10
118.7650909836839
 20
149.3981955211374
 30
0.0
 10
118.8923104783534
 20
149.1783574846069
 30
0.0
 10
119.0551503862183
 20
148.6883379913664
 30
0.0
 10
119.0932165100799
 20
148.419557927542
 30
0.0
 10
119.0933761336787
 20
148.0120068623095
 30
0.0
 10
119.0838415171667
 20
147.8784734728453
 30
0.0
 10
119.0450629469578
 20
147.6159986904746
 30
0.0
 10
119.0152223443556
 20
147.4857469933083
 30
0.0
 10
118.9344960797423
 20
147.241373346056
 30
0.0
 10
118.8836765996843
 20
147.1261912307874
 30
0.0
 10
118.7563425360665
 20
146.9103161026078
 30
0.0
 10
118.6812677764817
 20
146.8126173371022
 30
0.0
 10
118.5091883192941
 20
146.6400400246104
 30
0.0
 10
118.410229956193
 20
146.5637340237871
 30
0.0
 10
118.1962379375734
 20
146.4369091160767
 30
0.0
 10
118.0810943644909
 20
146.3856063184065
 30
0.0
 10
117.8342456563688
 20
146.3036948469554
 30
0.0
 10
117.7061579860038
 20
146.2742957872844
 30
0.0
 10
117.4435331895609
 20
146.2351325905853
 30
0.0
 10
117.3072907381464
 20
146.2253864064146
 30
0.0
 10
116.9043646625228
 20
146.2252332149836
 30
0.0
 10
116.633824375982
 20
146.263020213214
 30
0.0
 10
116.2681788759724
 20
146.3835236576431
 30
0.0
 10
116.1505611113067
 20
146.4354358071491
 30
0.0
 10
115.9360668887846
 20
146.5619759405276
 30
0.0
 10
115.8392095384118
 20
146.6360935563073
 30
0.0
 10
115.5783582517288
 20
146.8957924687764
 30
0.0
 10
115.4511881924412
 20
147.1157760178994
 30
0.0
 10
115.2884831163558
 20
147.6060327438865
 30
0.0
 10
115.2504923710877
 20
147.8751347856207
 30
0.0
 10
115.2504923710877
 20
148.146750524109
 30
0.0
  0
LINE
  5
E0
330
1F
100
AcDbEntity
  8
0
  6
HIDDEN
 62
     7
370
    18
100
AcDbLine
 10
51.4486373166
 20
161.5639412998
 30
0.0
 11
46.2075471698
 21
161.5639412998
 31
0.0
  0
LINE
  5
E1
330
1F
100
AcDbEntity
  8
0
  6
HIDDEN
 62
     7
370
    18
100
AcDbLine
 10
119.7924528302
 20
161.5639412998
 30
0.0
 11
114.5513626834
 21
161.5639412998
 31
0.0
  0
LINE
  5
E2
330
1F
100
AcDbEntity
  8
0
  6
HIDDEN
 62
     7
370
    18
100
AcDbLine
 10
33.0
 20
168.0628930818
 30
0.0
 11
133.0
 21
168.0628930818
 31
0.0
  0
LINE
  5
E3
330
1F
100
AcDbEntity
  8
0
  6
HIDDEN
 62
     7
370
    18
100
AcDbLine
 10
77.6540880503
 20
174.3522012579
 30
0.0
 11
77.6540880503
 21
162.2856442189
 31
0.0
  0
LINE
  5
E4
330
1F
100
AcDbEntity
  8
0
  6
HIDDEN
 62
     7
370
    18
100
AcDbLine
 10
82.8951781971
 20
162.2856442189
 30
0.0
 11
82.8951781971
 21
174.3522012579
 31
0.0
  0
LINE
  5
E5
330
1F
100
AcDbEntity
  8
0
  6
HIDDEN
 62
     7
370
    18
100
AcDbLine
 10
50.819706499
 20
161.6687631027
 30
0.0
 11
52.3942888339
 21
164.2893081761
 31
0.0
  0
LINE
  5
E6
330
1F
100
AcDbEntity
  8
0
  6
HIDDEN
 62
     7
370
    18
100
AcDbLine
 10
52.3942888339
 20
164.2893081761
 30
0.0
 11
50.819706499
 21
166.9098532495
 31
0.0
  0
LINE
  5
E7
330
1F
100
AcDbEntity
  8
0
  6
HIDDEN
 62
     7
370
    18
100
AcDbLine
 10
133.0
 20
166.9098532495
 30
0.0
 11
113.0838574423
 21
166.9098532495
 31
0.0
  0
LINE
  5
E8
330
1F
100
AcDbEntity
  8
0
  6
HIDDEN
 62
     7
370
    18
100
AcDbLine
 10
113.0838574423
 20
161.6687631027
 30
0.0
 11
133.0
 21
161.6687631027
 31
0.0
  0
LINE
  5
E9
330
1F
100
AcDbEntity
  8
0
  6
HIDDEN
 62
     7
370
    18
100
AcDbLine
 10
33.0
 20
161.6687631027
 30
0.0
 11
50.819706499
 21
161.6687631027
 31
0.0
  0
LINE
  5
EA
330
1F
100
AcDbEntity
  8
0
  6
HIDDEN
 62
     7
370
    18
100
AcDbLine
 10
50.819706499
 20
166.9098532495
 30
0.0
 11
33.0
 21
166.9098532495
 31
0.0
  0
LINE
  5
EB
330
1F
100
AcDbEntity
  8
0
  6
HIDDEN
 62
     7
370
    18
100
AcDbLine
 10
113.0838574423
 20
166.9098532495
 30
0.0
 11
111.5092751074
 21
164.2893081761
 31
0.0
  0
LINE
  5
EC
330
1F
100
AcDbEntity
  8
0
  6
HIDDEN
 62
     7
370
    18
100
AcDbLine
 10
111.5092751074
 20
164.2893081761
 30
0.0
 11
113.0838574423
 21
161.6687631027
 31
0.0
  0
LINE
  5
ED
330
1F
100
AcDbEntity
  8
0
  6
HIDDEN
 62
     7
370
    18
100
AcDbLine
 10
33.0
 20
145.5262054507
 30
0.0
 11
50.819706499
 21
145.5262054507
 31
0.0
  0
LINE
  5
EE
330
1F
100
AcDbEntity
  8
0
  6
HIDDEN
 62
     7
370
    18
100
AcDbLine
 10
50.819706499
 20
150.7672955975
 30
0.0
 11
33.0
 21
150.7672955975
 31
0.0
  0
LINE
  5
EF
330
1F
100
AcDbEntity
  8
0
  6
HIDDEN
 62
     7
370
    18
100
AcDbLine
 10
133.0
 20
150.7672955975
 30
0.0
 11
113.0838574423
 21
150.7672955975
 31
0.0
  0
LINE
  5
F0
330
1F
100
AcDbEntity
  8
0
  6
HIDDEN
 62
     7
370
    18
100
AcDbLine
 10
113.0838574423
 20
145.5262054507
 30
0.0
 11
133.0
 21
145.5262054507
 31
0.0
  0
LINE
  5
F1
330
1F
100
AcDbEntity
  8
0
  6
HIDDEN
 62
     7
370
    18
100
AcDbLine
 10
113.0838574423
 20
150.7672955975
 30
0.0
 11
111.5092751074
 21
148.1467505241
 31
0.0
  0
LINE
  5
F2
330
1F
100
AcDbEntity
  8
0
  6
HIDDEN
 62
     7
370
    18
100
AcDbLine
 10
111.5092751074
 20
148.1467505241
 30
0.0
 11
113.0838574423
 21
145.5262054507
 31
0.0
  0
LINE
  5
F3
330
1F
100
AcDbEntity
  8
0
  6
HIDDEN
 62
     7
370
    18
100
AcDbLine
 10
50.819706499
 20
145.5262054507
 30
0.0
 11
52.3942888339
 21
148.1467505241
 31
0.0
  0
LINE
  5
F4
330
1F
100
AcDbEntity
  8
0
  6
HIDDEN
 62
     7
370
    18
100
AcDbLine
 10
52.3942888339
 20
148.1467505241
 30
0.0
 11
50.819706499
 21
150.7672955975
 31
0.0
  0
LINE
  5
F5
330
1F
100
AcDbEntity
  8
0
  6
HIDDEN
 62
     7
370
    18
100
AcDbLine
 10
51.4486373166
 20
141.6477987421
 30
0.0
 11
51.4486373166
 21
161.5639412998
 31
0.0
  0
LINE
  5
F6
330
1F
100
AcDbEntity
  8
0
  6
HIDDEN
 62
     7
370
    18
100
AcDbLine
 10
46.2075471698
 20
161.5639412998
 30
0.0
 11
46.2075471698
 21
141.6477987421
 31
0.0
  0
LINE
  5
F7
330
1F
100
AcDbEntity
  8
0
  6
HIDDEN
 62
     7
370
    18
100
AcDbLine
 10
51.4486373166
 20
161.5639412998
 30
0.0
 11
48.8280922432
 21
163.1385236348
 31
0.0
  0
LINE
  5
F8
330
1F
100
AcDbEntity
  8
0
  6
HIDDEN
 62
     7
370
    18
100
AcDbLine
 10
48.8280922432
 20
163.1385236348
 30
0.0
 11
46.2075471698
 21
161.5639412998
 31
0.0
  0
LINE
  5
F9
330
1F
100
AcDbEntity
  8
0
  6
HIDDEN
 62
     7
370
    18
100
AcDbLine
 10
119.7924528302
 20
161.5639412998
 30
0.0
 11
117.1719077568
 21
163.1385236348
 31
0.0
  0
LINE
  5
FA
330
1F
100
AcDbEntity
  8
0
  6
HIDDEN
 62
     7
370
    18
100
AcDbLine
 10
117.1719077568
 20
163.1385236348
 30
0.0
 11
114.5513626834
 21
161.5639412998
 31
0.0
  0
LINE
  5
FB
330
1F
100
AcDbEntity
  8
0
  6
HIDDEN
 62
     7
370
    18
100
AcDbLine
 10
119.7924528302
 20
141.6477987421
 30
0.0
 11
119.7924528302
 21
161.5639412998
 31
0.0
  0
LINE
  5
FC
330
1F
100
AcDbEntity
  8
0
  6
HIDDEN
 62
     7
370
    18
100
AcDbLine
 10
114.5513626834
 20
161.5639412998
 30
0.0
 11
114.5513626834
 21
141.6477987421
 31
0.0
  0
INSERT
  5
108
330
1F
100
AcDbEntity
  8
10
100
AcDbBlockReference
  2
SW_CENTERMARKSYMBOL_3
 10
80.2746331237
 20
154.5408805031
 30
0.0
  0
INSERT
  5
114
330
1F
100
AcDbEntity
  8
10
100
AcDbBlockReference
  2
SW_CENTERMARKSYMBOL_4
 10
40.6519916143
 20
165.7568134172
 30
0.0
  0
INSERT
  5
120
330
1F
100
AcDbEntity
  8
10
100
AcDbBlockReference
  2
SW_CENTERMARKSYMBOL_5
 10
98.1991614256
 20
154.5408805031
 30
0.0
  0
INSERT
  5
12C
330
1F
100
AcDbEntity
  8
10
100
AcDbBlockReference
  2
SW_CENTERMARKSYMBOL_6
 10
62.3501048218
 20
154.5408805031
 30
0.0
  0
LINE
  5
12D
330
1F
100
AcDbEntity
  8
0
  6
Continuous
 62
     7
370
    25
100
AcDbLine
 10
206.6477987421
 20
68.5303983229
 30
0.0
 11
206.6477987421
 21
45.4696016771
 31
0.0
  0
LINE
  5
12E
330
1F
100
AcDbEntity
  8
0
  6
Continuous
 62
     7
370
    25
100
AcDbLine
 10
206.6477987421
 20
45.4696016771
 30
0.0
 11
233.0628930818
 21
45.4696016771
 31
0.0
  0
CIRCLE
  5
12F
330
1F
100
AcDbEntity
  8
0
  6
Continuous
 62
     7
370
    25
100
AcDbCircle
 10
213.1467505241
 20
54.6939203354
 30
0.0
 40
2.620545073375268
  0
CIRCLE
  5
130
330
1F
100
AcDbEntity
  8
0
  6
Continuous
 62
     7
370
    25
100
AcDbCircle
 10
229.2893081761
 20
54.6939203354
 30
0.0
 40
2.62054507337524
  0
LINE
  5
131
330
1F
100
AcDbEntity
  8
0
  6
Continuous
 62
     7
370
    25
100
AcDbLine
 10
206.6477987421
 20
68.5303983229
 30
0.0
 11
239.3522012579
 21
68.5303983229
 31
0.0
  0
LINE
  5
132
330
1F
100
AcDbEntity
  8
0
  6
Continuous
 62
     7
370
    25
100
AcDbLine
 10
233.0628930818
 20
45.4696016771
 30
0.0
 11
239.3522012579
 21
51.7589098532
 31
0.0
  0
LINE
  5
133
330
1F
100
AcDbEntity
  8
0
  6
Continuous
 62
     7
370
    25
100
AcDbLine
 10
239.3522012579
 20
68.5303983229
 30
0.0
 11
239.3522012579
 21
51.7589098532
 31
0.0
  0
LINE
  5
134
330
1F
100
AcDbEntity
  8
0
  6
HIDDEN
 62
     7
370
    18
100
AcDbLine
 10
227.6121593291
 20
66.8532494759
 30
0.0
 11
233.9014675052
 21
66.8532494759
 31
0.0
  0
LINE
  5
135
330
1F
100
AcDbEntity
  8
0
  6
HIDDEN
 62
     7
370
    18
100
AcDbLine
 10
233.9014675052
 20
66.8532494759
 30
0.0
 11
235.5786163522
 21
68.5303983229
 31
0.0
  0
LINE
  5
136
330
1F
100
AcDbEntity
  8
0
  6
HIDDEN
 62
     7
370
    18
100
AcDbLine
 10
225.9350104822
 20
68.5303983229
 30
0.0
 11
227.6121593291
 21
66.8532494759
 31
0.0
  0
LINE
  5
137
330
1F
100
AcDbEntity
  8
0
  6
HIDDEN
 62
     7
370
    18
100
AcDbLine
 10
233.9014675052
 20
62.2410901468
 30
0.0
 11
233.9014675052
 21
66.8532494759
 31
0.0
  0
LINE
  5
138
330
1F
100
AcDbEntity
  8
0
  6
HIDDEN
 62
     7
370
    18
100
AcDbLine
 10
227.6121593291
 20
62.2410901468
 30
0.0
 11
227.6121593291
 21
66.8532494759
 31
0.0
  0
LINE
  5
139
330
1F
100
AcDbEntity
  8
0
  6
HIDDEN
 62
     7
370
    18
100
AcDbLine
 10
227.6121593291
 20
62.2410901468
 30
0.0
 11
233.9014675052
 21
62.2410901468
 31
0.0
  0
LINE
  5
13A
330
1F
100
AcDbEntity
  8
0
  6
HIDDEN
 62
     7
370
    18
100
AcDbLine
 10
226.5639412998
 20
50.2914046122
 30
0.0
 11
226.5639412998
 21
52.9119496855
 31
0.0
  0
LINE
  5
13B
330
1F
100
AcDbEntity
  8
0
  6
HIDDEN
 62
     7
370
    18
100
AcDbLine
 10
226.5639412998
 20
47.6708595388
 30
0.0
 11
226.5639412998
 21
50.2914046122
 31
0.0
  0
LINE
  5
13C
330
1F
100
AcDbEntity
  8
0
  6
HIDDEN
 62
     7
370
    18
100
AcDbLine
 10
222.1614255765
 20
63.2893081761
 30
0.0
 11
216.9203354298
 21
63.2893081761
 31
0.0
  0
SPLINE
  5
13D
330
1F
100
AcDbEntity
  8
0
  6
HIDDEN
 62
     7
370
    18
100
AcDbSpline
210
0.0
220
0.0
230
1.0
 70
     8
 71
     3
 72
    18
 73
    14
 74
     0
 42
0.00000001
 43
0.00000001
 40
0.0
 40
0.0
 40
0.0
 40
0.0
 40
0.0972279298383497
 40
0.1943476573360959
 40
0.2943112211570938
 40
0.3968474716676181
 40
0.4688081260491693
 40
0.5658914413765861
 40
0.6628502954510477
 40
0.7629988795541156
 40
0.8654941649546259
 40
0.9376156821192165
 40
1.0
 40
1.0
 40
1.0
 40
1.0
 10
227.7169811320755
 20
56.47589098532494
 30
0.0
 10
227.707949401065
 20
56.503396202366
 30
0.0
 10
227.6898959902137
 20
56.55837602663394
 30
0.0
 10
227.5627682733121
 20
56.98542502137635
 30
0.0
 10
227.4130060590186
 20
57.62435942528019
 30
0.0
 10
227.3070461147524
 20
58.37218455159884
 30
0.0
 10
227.2735721168804
 20
59.16978642846372
 30
0.0
 10
227.3187251250388
 20
59.95476094829222
 30
0.0
 10
227.4444428014375
 20
60.72056860768175
 30
0.0
 10
227.5958285270169
 20
61.32647735841404
 30
0.0
 10
227.6947145937343
 20
61.64782620829959
 30
0.0
 10
227.7290300228851
 20
61.75513488302045
 30
0.0
 10
227.7016931658486
 20
61.66799572935527
 30
0.0
 10
227.6890142275807
 20
61.62758025845561
 30
0.0
  0
LINE
  5
13E
330
1F
100
AcDbEntity
  8
0
  6
HIDDEN
 62
     7
370
    18
100
AcDbLine
 10
226.5639412998
 20
47.6708595388
 30
0.0
 11
228.1385236348
 21
50.2914046122
 31
0.0
  0
LINE
  5
13F
330
1F
100
AcDbEntity
  8
0
  6
HIDDEN
 62
     7
370
    18
100
AcDbLine
 10
228.1385236348
 20
50.2914046122
 30
0.0
 11
226.5639412998
 21
52.9119496855
 31
0.0
  0
LINE
  5
140
330
1F
100
AcDbEntity
  8
0
  6
HIDDEN
 62
     7
370
    18
100
AcDbLine
 10
206.6477987421
 20
47.6708595388
 30
0.0
 11
226.5639412998
 21
47.6708595388
 31
0.0
  0
LINE
  5
141
330
1F
100
AcDbEntity
  8
0
  6
HIDDEN
 62
     7
370
    18
100
AcDbLine
 10
211.2404911229
 20
52.9119496855
 30
0.0
 11
206.6477987421
 21
52.9119496855
 31
0.0
  0
LINE
  5
142
330
1F
100
AcDbEntity
  8
0
  6
HIDDEN
 62
     7
370
    18
100
AcDbLine
 10
226.5639412998
 20
52.9119496855
 30
0.0
 11
215.0530294345
 21
52.9119496855
 31
0.0
  0
LINE
  5
143
330
1F
100
AcDbEntity
  8
0
  6
HIDDEN
 62
     7
370
    18
100
AcDbLine
 10
222.1614255765
 20
63.2893081761
 30
0.0
 11
219.5408805031
 21
64.8638905111
 31
0.0
  0
LINE
  5
144
330
1F
100
AcDbEntity
  8
0
  6
HIDDEN
 62
     7
370
    18
100
AcDbLine
 10
219.5408805031
 20
64.8638905111
 30
0.0
 11
216.9203354298
 21
63.2893081761
 31
0.0
  0
LINE
  5
145
330
1F
100
AcDbEntity
  8
0
  6
HIDDEN
 62
     7
370
    18
100
AcDbLine
 10
222.1614255765
 20
45.4696016771
 30
0.0
 11
222.1614255765
 21
63.2893081761
 31
0.0
  0
LINE
  5
146
330
1F
100
AcDbEntity
  8
0
  6
HIDDEN
 62
     7
370
    18
100
AcDbLine
 10
216.9203354298
 20
63.2893081761
 30
0.0
 11
216.9203354298
 21
45.4696016771
 31
0.0
  0
LINE
  5
147
330
1F
100
AcDbEntity
  8
0
  6
HIDDEN
 62
     7
370
    18
100
AcDbLine
 10
227.7169811321
 20
61.7169811321
 30
0.0
 11
227.7169811321
 21
68.5303983229
 31
0.0
  0
LINE
  5
148
330
1F
100
AcDbEntity
  8
0
  6
HIDDEN
 62
     7
370
    18
100
AcDbLine
 10
227.7169811321
 20
45.4696016771
 30
0.0
 11
227.7169811321
 21
56.4758909853
 31
0.0
  0
LINE
  5
149
330
1F
100
AcDbEntity
  8
0
  6
HIDDEN
 62
     7
370
    18
100
AcDbLine
 10
211.3647798742
 20
68.5303983229
 30
0.0
 11
211.3647798742
 21
45.4696016771
 31
0.0
  0
LINE
  5
14A
330
1F
100
AcDbEntity
  8
0
  6
HIDDEN
 62
     7
370
    18
100
AcDbLine
 10
239.3522012579
 20
61.7169811321
 30
0.0
 11
227.7169811321
 21
61.7169811321
 31
0.0
  0
LINE
  5
14B
330
1F
100
AcDbEntity
  8
0
  6
HIDDEN
 62
     7
370
    18
100
AcDbLine
 10
227.7169811321
 20
56.4758909853
 30
0.0
 11
239.3522012579
 21
56.4758909853
 31
0.0
  0
INSERT
  5
157
330
1F
100
AcDbEntity
  8
10
100
AcDbBlockReference
  2
SW_CENTERMARKSYMBOL_7
 10
229.2893081761
 20
54.6939203354
 30
0.0
  0
INSERT
  5
163
330
1F
100
AcDbEntity
  8
10
100
AcDbBlockReference
  2
SW_CENTERMARKSYMBOL_8
 10
213.1467505241
 20
54.6939203354
 30
0.0
  0
ENDSEC
  0
SECTION
  2
OBJECTS
  0
DICTIONARY
  5
C
330
0
100
AcDbDictionary
281
     1
  3
ACAD_GROUP
350
D
  3
ACAD_LAYOUT
350
1A
  3
ACAD_MLINESTYLE
350
17
  3
ACAD_PLOTSETTINGS
350
19
  3
ACAD_PLOTSTYLENAME
350
E
  3
ACAD_SCALELIST
350
47
  3
DWGPROPS
350
164
  0
DICTIONARY
  5
D
102
{ACAD_REACTORS
330
C
102
}
330
C
100
AcDbDictionary
281
     1
  0
DICTIONARY
  5
1A
102
{ACAD_REACTORS
330
C
102
}
330
C
100
AcDbDictionary
281
     1
  3
Layout1
350
1E
  3
Layout2
350
26
  3
Model
350
22
  0
DICTIONARY
  5
17
102
{ACAD_REACTORS
330
C
102
}
330
C
100
AcDbDictionary
281
     1
  3
Standard
350
18
  0
DICTIONARY
  5
19
102
{ACAD_REACTORS
330
C
102
}
330
C
100
AcDbDictionary
281
     1
  0
ACDBDICTIONARYWDFLT
  5
E
102
{ACAD_REACTORS
330
C
102
}
330
C
100
AcDbDictionary
281
     1
  3
Normal
350
F
100
AcDbDictionaryWithDefault
340
F
  0
DICTIONARY
  5
47
102
{ACAD_REACTORS
330
C
102
}
330
C
100
AcDbDictionary
281
     1
  3
A0
350
48
  3
A1
350
49
  3
A2
350
4A
  3
A3
350
4B
  3
A4
350
4C
  3
A5
350
4D
  3
A6
350
4E
  3
A7
350
4F
  3
A8
350
50
  3
A9
350
51
  3
B0
350
52
  3
B1
350
53
  3
B2
350
54
  3
B3
350
55
  3
B4
350
56
  3
B5
350
57
  3
B6
350
58
  0
XRECORD
  5
164
102
{ACAD_REACTORS
330
C
102
}
330
C
100
AcDbXrecord
280
     1
  1
DWGPROPS COOKIE
  2

  3

  4

  6

  7

  8

  9

300
=
301
=
302
=
303
=
304
=
305
=
306
=
307
=
308
=
309
=
 40
0.0
 41
2461214.833148693
 42
2461214.833149028
  1

 90
        0
  0
LAYOUT
  5
1E
102
{ACAD_REACTORS
330
1A
102
}
330
1A
100
AcDbPlotSettings
  1

  2
none_device
  4

  6

 40
0.0
 41
0.0
 42
0.0
 43
0.0
 44
0.0
 45
0.0
 46
0.0
 47
0.0
 48
0.0
 49
0.0
140
0.0
141
0.0
142
1.0
143
1.0
 70
   688
 72
     1
 73
     0
 74
     5
  7

 75
    16
147
1.0
148
0.0
149
0.0
100
AcDbLayout
  1
Layout1
 70
     1
 71
     1
 10
0.0
 20
0.0
 11
420.0
 21
297.0
 12
0.0
 22
0.0
 32
0.0
 14
1.0000000000E+20
 24
1.0000000000E+20
 34
1.0000000000E+20
 15
-1.0000000000E+20
 25
-1.0000000000E+20
 35
-1.0000000000E+20
146
0.0
 13
0.0
 23
0.0
 33
0.0
 16
1.0
 26
0.0
 36
0.0
 17
0.0
 27
1.0
 37
0.0
 76
     0
330
1B
  0
LAYOUT
  5
26
102
{ACAD_REACTORS
330
1A
102
}
330
1A
100
AcDbPlotSettings
  1

  2
none_device
  4

  6

 40
0.0
 41
0.0
 42
0.0
 43
0.0
 44
0.0
 45
0.0
 46
0.0
 47
0.0
 48
0.0
 49
0.0
140
0.0
141
0.0
142
1.0
143
1.0
 70
   688
 72
     1
 73
     0
 74
     5
  7

 75
    16
147
1.0
148
0.0
149
0.0
100
AcDbLayout
  1
Layout2
 70
     1
 71
     2
 10
0.0
 20
0.0
 11
0.0
 21
0.0
 12
0.0
 22
0.0
 32
0.0
 14
0.0
 24
0.0
 34
0.0
 15
0.0
 25
0.0
 35
0.0
146
0.0
 13
0.0
 23
0.0
 33
0.0
 16
1.0
 26
0.0
 36
0.0
 17
0.0
 27
1.0
 37
0.0
 76
     0
330
23
  0
LAYOUT
  5
22
102
{ACAD_REACTORS
330
1A
102
}
330
1A
100
AcDbPlotSettings
  1

  2
none_device
  4
Letter_(8.50_x_11.00_Inches)
  6

 40
6.35
 41
6.35
 42
6.35000508
 43
6.35000508
 44
215.9
 45
279.4
 46
0.0
 47
0.0
 48
0.0
 49
0.0
140
0.0
141
0.0
142
1.0
143
1.0
 70
  1712
 72
     1
 73
     0
 74
     0
  7

 75
     0
147
1.0
148
0.0
149
0.0
100
AcDbLayout
  1
Model
 70
     1
 71
     0
 10
0.0
 20
0.0
 11
297.0
 21
210.0
 12
0.0
 22
0.0
 32
0.0
 14
0.0
 24
0.0
 34
0.0
 15
297.0
 25
210.0
 35
0.0
146
0.0
 13
0.0
 23
0.0
 33
0.0
 16
1.0
 26
0.0
 36
0.0
 17
0.0
 27
1.0
 37
0.0
 76
     0
330
1F
331
29
  0
MLINESTYLE
  5
18
102
{ACAD_REACTORS
330
17
102
}
330
17
100
AcDbMlineStyle
  2
Standard
 70
     0
  3

 62
   256
 51
90.0
 52
90.0
 71
     2
 49
0.5
 62
   256
  6
BYLAYER
 49
-0.5
 62
   256
  6
BYLAYER
  0
ACDBPLACEHOLDER
  5
F
102
{ACAD_REACTORS
330
E
102
}
330
E
  0
SCALE
  5
48
102
{ACAD_REACTORS
330
47
102
}
330
47
100
AcDbScale
 70
     0
300
1:1
140
1.0
141
1.0
290
     1
  0
SCALE
  5
49
102
{ACAD_REACTORS
330
47
102
}
330
47
100
AcDbScale
 70
     0
300
1:2
140
1.0
141
2.0
290
     0
  0
SCALE
  5
4A
102
{ACAD_REACTORS
330
47
102
}
330
47
100
AcDbScale
 70
     0
300
1:4
140
1.0
141
4.0
290
     0
  0
SCALE
  5
4B
102
{ACAD_REACTORS
330
47
102
}
330
47
100
AcDbScale
 70
     0
300
1:5
140
1.0
141
5.0
290
     0
  0
SCALE
  5
4C
102
{ACAD_REACTORS
330
47
102
}
330
47
100
AcDbScale
 70
     0
300
1:8
140
1.0
141
8.0
290
     0
  0
SCALE
  5
4D
102
{ACAD_REACTORS
330
47
102
}
330
47
100
AcDbScale
 70
     0
300
1:10
140
1.0
141
10.0
290
     0
  0
SCALE
  5
4E
102
{ACAD_REACTORS
330
47
102
}
330
47
100
AcDbScale
 70
     0
300
1:16
140
1.0
141
16.0
290
     0
  0
SCALE
  5
4F
102
{ACAD_REACTORS
330
47
102
}
330
47
100
AcDbScale
 70
     0
300
1:20
140
1.0
141
20.0
290
     0
  0
SCALE
  5
50
102
{ACAD_REACTORS
330
47
102
}
330
47
100
AcDbScale
 70
     0
300
1:30
140
1.0
141
30.0
290
     0
  0
SCALE
  5
51
102
{ACAD_REACTORS
330
47
102
}
330
47
100
AcDbScale
 70
     0
300
1:40
140
1.0
141
40.0
290
     0
  0
SCALE
  5
52
102
{ACAD_REACTORS
330
47
102
}
330
47
100
AcDbScale
 70
     0
300
1:50
140
1.0
141
50.0
290
     0
  0
SCALE
  5
53
102
{ACAD_REACTORS
330
47
102
}
330
47
100
AcDbScale
 70
     0
300
1:100
140
1.0
141
100.0
290
     0
  0
SCALE
  5
54
102
{ACAD_REACTORS
330
47
102
}
330
47
100
AcDbScale
 70
     0
300
2:1
140
2.0
141
1.0
290
     0
  0
SCALE
  5
55
102
{ACAD_REACTORS
330
47
102
}
330
47
100
AcDbScale
 70
     0
300
4:1
140
4.0
141
1.0
290
     0
  0
SCALE
  5
56
102
{ACAD_REACTORS
330
47
102
}
330
47
100
AcDbScale
 70
     0
300
8:1
140
8.0
141
1.0
290
     0
  0
SCALE
  5
57
102
{ACAD_REACTORS
330
47
102
}
330
47
100
AcDbScale
 70
     0
300
10:1
140
10.0
141
1.0
290
     0
  0
SCALE
  5
58
102
{ACAD_REACTORS
330
47
102
}
330
47
100
AcDbScale
 70
     0
300
100:1
140
100.0
141
1.0
290
     0
  0
ENDSEC
  0
EOF
