  0
SECTION
  2
HEADER
  9
$ACADVER
  1
AC1015
  9
$ACADMAINTVER
 70
     6
  9
$DWGCODEPAGE
  3
ANSI_936
  9
$INSBASE
 10
0.0
 20
0.0
 30
0.0
  9
$EXTMIN
 10
0.0
 20
0.0
 30
0.0
  9
$EXTMAX
 10
297.0
 20
210.0
 30
0.0
  9
$LIMMIN
 10
0.0
 20
0.0
  9
$LIMMAX
 10
297.0
 20
210.0
  9
$ORTHOMODE
 70
     0
  9
$REGENMODE
 70
     1
  9
$FILLMODE
 70
     1
  9
$QTEXTMODE
 70
     0
  9
$MIRRTEXT
 70
     1
  9
$LTSCALE
 40
1.0
  9
$ATTMODE
 70
     1
  9
$TEXTSIZE
 40
3.5
  9
$TRACEWID
 40
1.0
  9
$TEXTSTYLE
  7
Standard
  9
$CLAYER
  8
0
  9
$CELTYPE
  6
ByLayer
  9
$CECOLOR
 62
   256
  9
$CELTSCALE
 40
1.0
  9
$DISPSILH
 70
     0
  9
$DIMSCALE
 40
1.0
  9
$DIMASZ
 40
4.08
  9
$DIMEXO
 40
0.0
  9
$DIMDLI
 40
3.75
  9
$DIMRND
 40
0.0
  9
$DIMDLE
 40
0.0
  9
$DIMEXE
 40
2.0
  9
$DIMTP
 40
0.0
  9
$DIMTM
 40
0.0
  9
$DIMTXT
 40
3.5
  9
$DIMCEN
 40
2.5
  9
$DIMTSZ
 40
0.0
  9
$DIMTOL
 70
     0
  9
$DIMLIM
 70
     0
  9
$DIMTIH
 70
     1
  9
$DIMTOH
 70
     1
  9
$DIMSE1
 70
     0
  9
$DIMSE2
 70
     0
  9
$DIMTAD
 70
     1
  9
$DIMZIN
 70
     0
  9
$DIMBLK
  1

  9
$DIMASO
 70
     1
  9
$DIMSHO
 70
     1
  9
$DIMPOST
  1

  9
$DIMAPOST
  1

  9
$DIMALT
 70
     0
  9
$DIMALTD
 70
     3
  9
$DIMALTF
 40
0.0393700787
  9
$DIMLFAC
 40
2.0
  9
$DIMTOFL
 70
     1
  9
$DIMTVP
 40
0.0
  9
$DIMTIX
 70
     0
  9
$DIMSOXD
 70
     0
  9
$DIMSAH
 70
     0
  9
$DIMBLK1
  1

  9
$DIMBLK2
  1

  9
$DIMSTYLE
  2
ISO-25
  9
$DIMCLRD
 70
     0
  9
$DIMCLRE
 70
     0
  9
$DIMCLRT
 70
     0
  9
$DIMTFAC
 40
1.0
  9
$DIMGAP
 40
1.524
  9
$DIMJUST
 70
     0
  9
$DIMSD1
 70
     0
  9
$DIMSD2
 70
     0
  9
$DIMTOLJ
 70
     0
  9
$DIMTZIN
 70
     0
  9
$DIMALTZ
 70
     0
  9
$DIMALTTZ
 70
     0
  9
$DIMUPT
 70
     0
  9
$DIMDEC
 70
     2
  9
$DIMTDEC
 70
     2
  9
$DIMALTU
 70
     2
  9
$DIMALTTD
 70
     3
  9
$DIMTXSTY
  7
Standard
  9
$DIMAUNIT
 70
     0
  9
$DIMADEC
 70
     2
  9
$DIMALTRND
 40
0.0
  9
$DIMAZIN
 70
     0
  9
$DIMDSEP
 70
    44
  9
$DIMATFIT
 70
     3
  9
$DIMFRAC
 70
     0
  9
$DIMLDRBLK
  1

  9
$DIMLUNIT
 70
     2
  9
$DIMLWD
 70
    -2
  9
$DIMLWE
 70
    -2
  9
$DIMTMOVE
 70
     0
  9
$LUNITS
 70
     2
  9
$LUPREC
 70
     2
  9
$SKETCHINC
 40
1.0
  9
$FILLETRAD
 40
0.0
  9
$AUNITS
 70
     0
  9
$AUPREC
 70
     2
  9
$MENU
  1
.
  9
$ELEVATION
 40
0.0
  9
$PELEVATION
 40
0.0
  9
$THICKNESS
 40
0.0
  9
$LIMCHECK
 70
     0
  9
$CHAMFERA
 40
0.0
  9
$CHAMFERB
 40
0.0
  9
$CHAMFERC
 40
0.0
  9
$CHAMFERD
 40
0.0
  9
$SKPOLY
 70
     0
  9
$TDCREATE
 40
2461215.173557685
  9
$TDUCREATE
 40
2461214.840224352
  9
$TDUPDATE
 40
2461215.173557963
  9
$TDUUPDATE
 40
2461214.84022463
  9
$TDINDWG
 40
0.0000000116
  9
$TDUSRTIMER
 40
0.0000000116
  9
$USRTIMER
 70
     1
  9
$ANGBASE
 50
0.0
  9
$ANGDIR
 70
     0
  9
$PDMODE
 70
     0
  9
$PDSIZE
 40
-1.0
  9
$PLINEWID
 40
0.0
  9
$SPLFRAME
 70
     0
  9
$SPLINETYPE
 70
     6
  9
$SPLINESEGS
 70
     8
  9
$HANDSEED
  5
E7
  9
$SURFTAB1
 70
     6
  9
$SURFTAB2
 70
     6
  9
$SURFTYPE
 70
     6
  9
$SURFU
 70
     6
  9
$SURFV
 70
     6
  9
$UCSBASE
  2

  9
$UCSNAME
  2

  9
$UCSORG
 10
0.0
 20
0.0
 30
0.0
  9
$UCSXDIR
 10
1.0
 20
0.0
 30
0.0
  9
$UCSYDIR
 10
0.0
 20
1.0
 30
0.0
  9
$UCSORTHOREF
  2

  9
$UCSORTHOVIEW
 70
     0
  9
$UCSORGTOP
 10
0.0
 20
0.0
 30
0.0
  9
$UCSORGBOTTOM
 10
0.0
 20
0.0
 30
0.0
  9
$UCSORGLEFT
 10
0.0
 20
0.0
 30
0.0
  9
$UCSORGRIGHT
 10
0.0
 20
0.0
 30
0.0
  9
$UCSORGFRONT
 10
0.0
 20
0.0
 30
0.0
  9
$UCSORGBACK
 10
0.0
 20
0.0
 30
0.0
  9
$PUCSBASE
  2

  9
$PUCSNAME
  2

  9
$PUCSORG
 10
0.0
 20
0.0
 30
0.0
  9
$PUCSXDIR
 10
1.0
 20
0.0
 30
0.0
  9
$PUCSYDIR
 10
0.0
 20
1.0
 30
0.0
  9
$PUCSORTHOREF
  2

  9
$PUCSORTHOVIEW
 70
     0
  9
$PUCSORGTOP
 10
0.0
 20
0.0
 30
0.0
  9
$PUCSORGBOTTOM
 10
0.0
 20
0.0
 30
0.0
  9
$PUCSORGLEFT
 10
0.0
 20
0.0
 30
0.0
  9
$PUCSORGRIGHT
 10
0.0
 20
0.0
 30
0.0
  9
$PUCSORGFRONT
 10
0.0
 20
0.0
 30
0.0
  9
$PUCSORGBACK
 10
0.0
 20
0.0
 30
0.0
  9
$USERI1
 70
     0
  9
$USERI2
 70
     0
  9
$USERI3
 70
     0
  9
$USERI4
 70
     0
  9
$USERI5
 70
     0
  9
$USERR1
 40
0.0
  9
$USERR2
 40
0.0
  9
$USERR3
 40
0.0
  9
$USERR4
 40
0.0
  9
$USERR5
 40
0.0
  9
$WORLDVIEW
 70
     1
  9
$SHADEDGE
 70
     3
  9
$SHADEDIF
 70
    70
  9
$TILEMODE
 70
     1
  9
$MAXACTVP
 70
    64
  9
$PINSBASE
 10
0.0
 20
0.0
 30
0.0
  9
$PLIMCHECK
 70
     0
  9
$PEXTMIN
 10
1.0000000000E+20
 20
1.0000000000E+20
 30
1.0000000000E+20
  9
$PEXTMAX
 10
-1.0000000000E+20
 20
-1.0000000000E+20
 30
-1.0000000000E+20
  9
$PLIMMIN
 10
0.0
 20
0.0
  9
$PLIMMAX
 10
420.0
 20
297.0
  9
$UNITMODE
 70
     0
  9
$VISRETAIN
 70
     1
  9
$PLINEGEN
 70
     0
  9
$PSLTSCALE
 70
     1
  9
$TREEDEPTH
 70
  3020
  9
$CMLSTYLE
  2
Standard
  9
$CMLJUST
 70
     0
  9
$CMLSCALE
 40
20.0
  9
$PROXYGRAPHICS
 70
     1
  9
$MEASUREMENT
 70
     1
  9
$CELWEIGHT
370
    -1
  9
$ENDCAPS
280
     0
  9
$JOINSTYLE
280
     0
  9
$LWDISPLAY
290
     1
  9
$INSUNITS
 70
     4
  9
$HYPERLINKBASE
  1

  9
$STYLESHEET
  1

  9
$XEDIT
290
     1
  9
$CEPSNTYPE
380
     0
  9
$PSTYLEMODE
290
     1
  9
$FINGERPRINTGUID
  2
{305bd7af-341b-4216-9bab-20a244614e94}
  9
$VERSIONGUID
  2
{FAEB1C32-E019-11D5-929B-00C0DF256EC4}
  9
$EXTNAMES
290
     1
  9
$PSVPSCALE
 40
0.0
  9
$OLESTARTUP
290
     0
  0
ENDSEC
  0
SECTION
  2
CLASSES
  0
CLASS
  1
ACDBDICTIONARYWDFLT
  2
AcDbDictionaryWithDefault
  3
ObjectDBX Classes
 90
        0
280
     0
281
     0
  0
CLASS
  1
VISUALSTYLE
  2
AcDbVisualStyle
  3
ObjectDBX Classes
 90
     4095
280
     0
281
     0
  0
CLASS
  1
MATERIAL
  2
AcDbMaterial
  3
ObjectDBX Classes
 90
     1153
280
     0
281
     0
  0
CLASS
  1
SCALE
  2
AcDbScale
  3
ObjectDBX Classes
 90
     1153
280
     0
281
     0
  0
CLASS
  1
TABLESTYLE
  2
AcDbTableStyle
  3
ObjectDBX Classes
 90
     4095
280
     0
281
     0
  0
CLASS
  1
MLEADERSTYLE
  2
AcDbMLeaderStyle
  3
ACDB_MLEADERSTYLE_CLASS
 90
     4095
280
     0
281
     0
  0
CLASS
  1
SUN
  2
AcDbSun
  3
SCENEOE
 90
     1153
280
     0
281
     0
  0
CLASS
  1
ACDBPLACEHOLDER
  2
AcDbPlaceHolder
  3
ObjectDBX Classes
 90
        0
280
     0
281
     0
  0
CLASS
  1
LAYOUT
  2
AcDbLayout
  3
ObjectDBX Classes
 90
        0
280
     0
281
     0
  0
ENDSEC
  0
SECTION
  2
TABLES
  0
TABLE
  2
VPORT
  5
8
330
0
100
AcDbSymbolTable
 70
     1
  0
VPORT
  5
29
330
8
100
AcDbSymbolTableRecord
100
AcDbViewportTableRecord
  2
*Active
 70
     0
 10
0.0
 20
0.0
 11
1.0
 21
1.0
 12
148.5
 22
105.0
 13
0.0
 23
0.0
 14
10.0
 24
10.0
 15
10.0
 25
10.0
 16
0.0
 26
0.0
 36
1.0
 17
0.0
 27
0.0
 37
0.0
 40
210.0
 41
1.4142857143
 42
50.0
 43
0.0
 44
0.0
 50
0.0
 51
0.0
 71
     0
 72
  2000
 73
     1
 74
     3
 75
     0
 76
     0
 77
     0
 78
     0
281
     0
 65
     1
110
0.0
120
0.0
130
0.0
111
1.0
121
0.0
131
0.0
112
0.0
122
1.0
132
0.0
 79
     0
146
0.0
  0
ENDTAB
  0
TABLE
  2
LTYPE
  5
5
330
0
100
AcDbSymbolTable
 70
     6
  0
LTYPE
  5
14
330
5
100
AcDbSymbolTableRecord
100
AcDbLinetypeTableRecord
  2
ByBlock
 70
     0
  3

 72
    65
 73
     0
 40
0.0
  0
LTYPE
  5
15
330
5
100
AcDbSymbolTableRecord
100
AcDbLinetypeTableRecord
  2
ByLayer
 70
     0
  3

 72
    65
 73
     0
 40
0.0
  0
LTYPE
  5
16
330
5
100
AcDbSymbolTableRecord
100
AcDbLinetypeTableRecord
  2
Continuous
 70
     0
  3
Solid line
 72
    65
 73
     0
 40
0.0
  0
LTYPE
  5
5E
330
5
100
AcDbSymbolTableRecord
100
AcDbLinetypeTableRecord
  2
HIDDEN
 70
     0
  3
Hidden __ __ __ __ __ __ __ __ __ __ __ __ __ __
 72
    65
 73
     2
 40
1.905
 49
1.27
 74
     0
 49
-0.635
 74
     0
  0
LTYPE
  5
5F
330
5
100
AcDbSymbolTableRecord
100
AcDbLinetypeTableRecord
  2
PHANTOM
 70
     0
  3
Phantom ______  __  __  ______  __  __  ______
 72
    65
 73
     6
 40
12.7
 49
6.35
 74
     0
 49
-1.27
 74
     0
 49
1.27
 74
     0
 49
-1.27
 74
     0
 49
1.27
 74
     0
 49
-1.27
 74
     0
  0
LTYPE
  5
60
330
5
100
AcDbSymbolTableRecord
100
AcDbLinetypeTableRecord
  2
CENTER
 70
     0
  3
Center ____ _ ____ _ ____ _ ____ _ ____ _ ____
 72
    65
 73
     4
 40
10.16
 49
6.35
 74
     0
 49
-1.27
 74
     0
 49
1.27
 74
     0
 49
-1.27
 74
     0
  0
LTYPE
  5
61
330
5
100
AcDbSymbolTableRecord
100
AcDbLinetypeTableRecord
  2
CENTERX2
 70
     0
  3
Center (2x) ________  __  ________  __  _____
 72
    65
 73
     4
 40
20.32
 49
12.7
 74
     0
 49
-2.54
 74
     0
 49
2.54
 74
     0
 49
-2.54
 74
     0
  0
LTYPE
  5
62
330
5
100
AcDbSymbolTableRecord
100
AcDbLinetypeTableRecord
  2
DOT2
 70
     0
  3
Dot (.5x) ........................................
 72
    65
 73
     2
 40
0.635
 49
0.0
 74
     0
 49
-0.635
 74
     0
  0
ENDTAB
  0
TABLE
  2
LAYER
  5
2
330
0
100
AcDbSymbolTable
 70
    14
  0
LAYER
  5
10
330
2
100
AcDbSymbolTableRecord
100
AcDbLayerTableRecord
  2
0
 70
     0
 62
     7
  6
Continuous
370
    -3
390
F
  0
LAYER
  5
63
330
2
100
AcDbSymbolTableRecord
100
AcDbLayerTableRecord
  2
SLD-0
 70
     0
 62
     7
  6
Continuous
370
    -3
390
F
  0
LAYER
  5
64
330
2
100
AcDbSymbolTableRecord
100
AcDbLayerTableRecord
  2
5
 70
     0
 62
     7
  6
Continuous
370
    -3
390
F
  0
LAYER
  5
65
330
2
100
AcDbSymbolTableRecord
100
AcDbLayerTableRecord
  2
9
 70
     0
 62
     7
  6
Continuous
370
    -3
390
F
  0
LAYER
  5
66
330
2
100
AcDbSymbolTableRecord
100
AcDbLayerTableRecord
  2
10
 70
     0
 62
     7
  6
Continuous
370
    -3
390
F
  0
LAYER
  5
67
330
2
100
AcDbSymbolTableRecord
100
AcDbLayerTableRecord
  2
轮廓实线层
 70
     0
 62
     7
  6
Continuous
370
    50
390
F
  0
LAYER
  5
68
330
2
100
AcDbSymbolTableRecord
100
AcDbLayerTableRecord
  2
细线层
 70
     0
 62
     4
  6
Continuous
370
    25
390
F
  0
LAYER
  5
69
330
2
100
AcDbSymbolTableRecord
100
AcDbLayerTableRecord
  2
中心线层
 70
     0
 62
     1
  6
CENTERX2
370
    25
390
F
  0
LAYER
  5
6A
330
2
100
AcDbSymbolTableRecord
100
AcDbLayerTableRecord
  2
虚线层
 70
     0
 62
     6
  6
HIDDEN
370
    25
390
F
  0
LAYER
  5
6B
330
2
100
AcDbSymbolTableRecord
100
AcDbLayerTableRecord
  2
剖面线层
 70
     0
 62
     2
  6
Continuous
370
    25
390
F
  0
LAYER
  5
6C
330
2
100
AcDbSymbolTableRecord
100
AcDbLayerTableRecord
  2
文字层
 70
     0
 62
     3
  6
Continuous
370
    25
390
F
  0
LAYER
  5
6D
330
2
100
AcDbSymbolTableRecord
100
AcDbLayerTableRecord
  2
标注层
 70
     0
 62
     4
  6
Continuous
370
    25
390
F
  0
LAYER
  5
6E
330
2
100
AcDbSymbolTableRecord
100
AcDbLayerTableRecord
  2
符号标注层
 70
     0
 62
    31
  6
Continuous
370
    25
390
F
  0
LAYER
  5
6F
330
2
100
AcDbSymbolTableRecord
100
AcDbLayerTableRecord
  2
双点划线层
 70
     0
 62
     6
  6
PHANTOM
370
    25
390
F
  0
ENDTAB
  0
TABLE
  2
STYLE
  5
3
330
0
100
AcDbSymbolTable
 70
     1
  0
STYLE
  5
11
330
3
100
AcDbSymbolTableRecord
100
AcDbTextStyleTableRecord
  2
Standard
 70
     0
 40
0.0
 41
1.0
 50
0.0
 71
     0
 42
3.5
  3
txt
  4

  0
ENDTAB
  0
TABLE
  2
VIEW
  5
6
330
0
100
AcDbSymbolTable
 70
     0
  0
ENDTAB
  0
TABLE
  2
UCS
  5
7
330
0
100
AcDbSymbolTable
 70
     0
  0
ENDTAB
  0
TABLE
  2
APPID
  5
9
330
0
100
AcDbSymbolTable
 70
     1
  0
APPID
  5
12
330
9
100
AcDbSymbolTableRecord
100
AcDbRegAppTableRecord
  2
ACAD
 70
     0
  0
ENDTAB
  0
TABLE
  2
DIMSTYLE
  5
A
330
0
100
AcDbSymbolTable
 70
     1
100
AcDbDimStyleTable
  0
DIMSTYLE
105
27
330
A
100
AcDbSymbolTableRecord
100
AcDbDimStyleTableRecord
  2
ISO-25
 70
     0
 41
2.5
 42
0.625
 43
3.75
 44
1.25
 73
     0
 74
     0
 77
     1
 78
     8
140
2.5
141
2.5
143
0.0393700787
147
0.625
171
     3
172
     1
178
     0
271
     2
272
     2
274
     3
278
    44
283
     0
284
     8
340
11
  0
ENDTAB
  0
TABLE
  2
BLOCK_RECORD
  5
1
330
0
100
AcDbSymbolTable
 70
     3
  0
BLOCK_RECORD
  5
1F
330
1
100
AcDbSymbolTableRecord
100
AcDbBlockTableRecord
  2
*Model_Space
340
22
  0
BLOCK_RECORD
  5
1B
330
1
100
AcDbSymbolTableRecord
100
AcDbBlockTableRecord
  2
*Paper_Space
340
1E
  0
BLOCK_RECORD
  5
23
330
1
100
AcDbSymbolTableRecord
100
AcDbBlockTableRecord
  2
*Paper_Space0
340
26
  0
BLOCK_RECORD
  5
AF
330
1
100
AcDbSymbolTableRecord
100
AcDbBlockTableRecord
  2
SW_CENTERMARKSYMBOL_0
340
0
102
{BLKREFS
331
BA
102
}
  0
BLOCK_RECORD
  5
BB
330
1
100
AcDbSymbolTableRecord
100
AcDbBlockTableRecord
  2
SW_CENTERMARKSYMBOL_1
340
0
102
{BLKREFS
331
C6
102
}
  0
ENDTAB
  0
ENDSEC
  0
SECTION
  2
BLOCKS
  0
BLOCK
  5
20
330
1F
100
AcDbEntity
  8
0
100
AcDbBlockBegin
  2
*Model_Space
 70
     0
 10
0.0
 20
0.0
 30
0.0
  3
*Model_Space
  1

  0
ENDBLK
  5
21
330
1F
100
AcDbEntity
  8
0
100
AcDbBlockEnd
  0
BLOCK
  5
1C
330
1B
100
AcDbEntity
 67
     1
  8
0
100
AcDbBlockBegin
  2
*Paper_Space
 70
     0
 10
0.0
 20
0.0
 30
0.0
  3
*Paper_Space
  1

  0
ENDBLK
  5
1D
330
1B
100
AcDbEntity
 67
     1
  8
0
100
AcDbBlockEnd
  0
BLOCK
  5
24
330
23
100
AcDbEntity
  8
0
100
AcDbBlockBegin
  2
*Paper_Space0
 70
     0
 10
0.0
 20
0.0
 30
0.0
  3
*Paper_Space0
  1

  0
ENDBLK
  5
25
330
23
100
AcDbEntity
  8
0
100
AcDbBlockEnd
  0
BLOCK
  5
B0
330
AF
100
AcDbEntity
  8
0
100
AcDbBlockBegin
  2
SW_CENTERMARKSYMBOL_0
 70
     0
 10
0.0
 20
0.0
 30
0.0
  3
SW_CENTERMARKSYMBOL_0
  1

  0
LINE
  5
B2
330
AF
100
AcDbEntity
  8
10
 62
     0
100
AcDbLine
 10
0.0
 20
0.0
 30
0.0
 11
0.0
 21
2.5
 31
0.0
  0
LINE
  5
B3
330
AF
100
AcDbEntity
  8
10
 62
     0
100
AcDbLine
 10
0.0
 20
0.0
 30
0.0
 11
-2.5
 21
0.0
 31
0.0
  0
LINE
  5
B4
330
AF
100
AcDbEntity
  8
10
 62
     0
100
AcDbLine
 10
0.0
 20
0.0
 30
0.0
 11
0.0
 21
-2.5
 31
0.0
  0
LINE
  5
B5
330
AF
100
AcDbEntity
  8
10
 62
     0
100
AcDbLine
 10
0.0
 20
0.0
 30
0.0
 11
2.5
 21
0.0
 31
0.0
  0
LINE
  5
B6
330
AF
100
AcDbEntity
  8
10
 62
     0
100
AcDbLine
 10
0.0
 20
2.5
 30
0.0
 11
0.0
 21
4.2412935323
 31
0.0
  0
LINE
  5
B7
330
AF
100
AcDbEntity
  8
10
 62
     0
100
AcDbLine
 10
-2.5
 20
0.0
 30
0.0
 11
-4.2412935323
 21
0.0
 31
0.0
  0
LINE
  5
B8
330
AF
100
AcDbEntity
  8
10
 62
     0
100
AcDbLine
 10
0.0
 20
-2.5
 30
0.0
 11
0.0
 21
-4.2412935323
 31
0.0
  0
LINE
  5
B9
330
AF
100
AcDbEntity
  8
10
 62
     0
100
AcDbLine
 10
2.5
 20
0.0
 30
0.0
 11
4.2412935323
 21
0.0
 31
0.0
  0
ENDBLK
  5
B1
330
AF
100
AcDbEntity
  8
0
100
AcDbBlockEnd
  0
BLOCK
  5
BC
330
BB
100
AcDbEntity
  8
0
100
AcDbBlockBegin
  2
SW_CENTERMARKSYMBOL_1
 70
     0
 10
0.0
 20
0.0
 30
0.0
  3
SW_CENTERMARKSYMBOL_1
  1

  0
LINE
  5
BE
330
BB
100
AcDbEntity
  8
10
 62
     0
100
AcDbLine
 10
0.0
 20
0.0
 30
0.0
 11
0.0
 21
2.5
 31
0.0
  0
LINE
  5
BF
330
BB
100
AcDbEntity
  8
10
 62
     0
100
AcDbLine
 10
0.0
 20
0.0
 30
0.0
 11
-2.5
 21
0.0
 31
0.0
  0
LINE
  5
C0
330
BB
100
AcDbEntity
  8
10
 62
     0
100
AcDbLine
 10
0.0
 20
0.0
 30
0.0
 11
0.0
 21
-2.5
 31
0.0
  0
LINE
  5
C1
330
BB
100
AcDbEntity
  8
10
 62
     0
100
AcDbLine
 10
0.0
 20
0.0
 30
0.0
 11
2.5
 21
0.0
 31
0.0
  0
LINE
  5
C2
330
BB
100
AcDbEntity
  8
10
 62
     0
100
AcDbLine
 10
0.0
 20
2.5
 30
0.0
 11
0.0
 21
4.2412935323
 31
0.0
  0
LINE
  5
C3
330
BB
100
AcDbEntity
  8
10
 62
     0
100
AcDbLine
 10
-2.5
 20
0.0
 30
0.0
 11
-4.2412935323
 21
0.0
 31
0.0
  0
LINE
  5
C4
330
BB
100
AcDbEntity
  8
10
 62
     0
100
AcDbLine
 10
0.0
 20
-2.5
 30
0.0
 11
0.0
 21
-4.2412935323
 31
0.0
  0
LINE
  5
C5
330
BB
100
AcDbEntity
  8
10
 62
     0
100
AcDbLine
 10
2.5
 20
0.0
 30
0.0
 11
4.2412935323
 21
0.0
 31
0.0
  0
ENDBLK
  5
BD
330
BB
100
AcDbEntity
  8
0
100
AcDbBlockEnd
  0
ENDSEC
  0
SECTION
  2
ENTITIES
  0
LINE
  5
70
330
1F
100
AcDbEntity
  8
0
  6
Continuous
 62
     7
370
    25
100
AcDbLine
 10
60.9340636154
 20
11.9751243781
 30
0.0
 11
60.9340636154
 21
7.0
 31
0.0
  0
LINE
  5
71
330
1F
100
AcDbEntity
  8
0
  6
Continuous
 62
     7
370
    25
100
AcDbLine
 10
60.9340636154
 20
11.9751243781
 30
0.0
 11
105.0659363846
 21
11.9751243781
 31
0.0
  0
LINE
  5
72
330
1F
100
AcDbEntity
  8
0
  6
Continuous
 62
     7
370
    25
100
AcDbLine
 10
105.0659363846
 20
11.9751243781
 30
0.0
 11
105.0659363846
 21
7.0
 31
0.0
  0
LINE
  5
73
330
1F
100
AcDbEntity
  8
0
  6
Continuous
 62
     7
370
    25
100
AcDbLine
 10
60.9340636154
 20
7.0
 30
0.0
 11
105.0659363846
 21
7.0
 31
0.0
  0
LINE
  5
74
330
1F
100
AcDbEntity
  8
0
  6
Continuous
 62
     7
370
    25
100
AcDbLine
 10
124.2935323383
 20
11.9751243781
 30
0.0
 11
124.2935323383
 21
7.0
 31
0.0
  0
SPLINE
  5
75
330
1F
100
AcDbEntity
  8
0
  6
Continuous
 62
     7
370
    25
100
AcDbSpline
210
0.0
220
0.0
230
1.0
 70
    24
 71
     3
 72
    15
 73
    11
 74
     0
 42
0.00000001
 43
0.00000001
 40
0.0
 40
0.0
 40
0.0
 40
0.0
 40
0.0680381209370956
 40
0.1660290315745627
 40
0.2897305583883869
 40
0.4211001779281079
 40
0.5593151944279676
 40
0.7030203959896325
 40
0.85053655172937
 40
1.0
 40
1.0
 40
1.0
 40
1.0
 10
105.187894223834
 20
11.97512437810944
 30
0.0
 10
105.4380565669361
 20
11.97512437810944
 30
0.0
 10
106.0485115734766
 20
11.97512437810944
 30
0.0
 10
107.5237082973381
 20
11.97512437810945
 30
0.0
 10
109.5540560992155
 20
11.97512437810944
 30
0.0
 10
112.0686824896219
 20
11.97512437810944
 30
0.0
 10
114.8685819369778
 20
11.97512437810946
 30
0.0
 10
117.8886591959162
 20
11.97512437810943
 30
0.0
 10
121.0544480258299
 20
11.97512437810944
 30
0.0
 10
123.2091281615409
 20
11.97512437810944
 30
0.0
 10
124.2935323383085
 20
11.97512437810944
 30
0.0
  0
SPLINE
  5
76
330
1F
100
AcDbEntity
  8
0
  6
Continuous
 62
     7
370
    25
100
AcDbSpline
210
0.0
220
0.0
230
1.0
 70
    24
 71
     3
 72
    15
 73
    11
 74
     0
 42
0.00000001
 43
0.00000001
 40
0.0
 40
0.0
 40
0.0
 40
0.0
 40
0.0680381209370956
 40
0.1660290315745627
 40
0.2897305583883869
 40
0.4211001779281079
 40
0.5593151944279676
 40
0.7030203959896325
 40
0.85053655172937
 40
1.0
 40
1.0
 40
1.0
 40
1.0
 10
105.187894223834
 20
6.999999999999992
 30
0.0
 10
105.4380565669361
 20
6.999999999999992
 30
0.0
 10
106.0485115734766
 20
6.999999999999979
 30
0.0
 10
107.5237082973381
 20
6.999999999999999
 30
0.0
 10
109.5540560992155
 20
6.999999999999999
 30
0.0
 10
112.0686824896219
 20
6.999999999999979
 30
0.0
 10
114.8685819369778
 20
7.000000000000013
 30
0.0
 10
117.8886591959162
 20
6.999999999999979
 30
0.0
 10
121.0544480258299
 20
6.999999999999986
 30
0.0
 10
123.2091281615409
 20
6.999999999999992
 30
0.0
 10
124.2935323383085
 20
6.999999999999992
 30
0.0
  0
LINE
  5
77
330
1F
100
AcDbEntity
  8
0
  6
Continuous
 62
     7
370
    25
100
AcDbLine
 10
41.7064676617
 20
11.9751243781
 30
0.0
 11
41.7064676617
 21
7.0
 31
0.0
  0
SPLINE
  5
78
330
1F
100
AcDbEntity
  8
0
  6
Continuous
 62
     7
370
    25
100
AcDbSpline
210
0.0
220
0.0
230
1.0
 70
    24
 71
     3
 72
    15
 73
    11
 74
     0
 42
0.00000001
 43
0.00000001
 40
0.0
 40
0.0
 40
0.0
 40
0.0
 40
0.0680381209370956
 40
0.1660290315745627
 40
0.2897305583883869
 40
0.4211001779281079
 40
0.5593151944279676
 40
0.7030203959896325
 40
0.85053655172937
 40
1.0
 40
1.0
 40
1.0
 40
1.0
 10
60.812105776166
 20
11.97512437810944
 30
0.0
 10
60.56194343306394
 20
11.97512437810944
 30
0.0
 10
59.95148842652345
 20
11.97512437810944
 30
0.0
 10
58.47629170266194
 20
11.97512437810945
 30
0.0
 10
56.44594390078446
 20
11.97512437810944
 30
0.0
 10
53.93131751037809
 20
11.97512437810944
 30
0.0
 10
51.13141806302216
 20
11.97512437810946
 30
0.0
 10
48.11134080408383
 20
11.97512437810943
 30
0.0
 10
44.94555197417012
 20
11.97512437810944
 30
0.0
 10
42.79087183845905
 20
11.97512437810944
 30
0.0
 10
41.70646766169154
 20
11.97512437810944
 30
0.0
  0
SPLINE
  5
79
330
1F
100
AcDbEntity
  8
0
  6
Continuous
 62
     7
370
    25
100
AcDbSpline
210
0.0
220
0.0
230
1.0
 70
    24
 71
     3
 72
    15
 73
    11
 74
     0
 42
0.00000001
 43
0.00000001
 40
0.0
 40
0.0
 40
0.0
 40
0.0
 40
0.0680381209370956
 40
0.1660290315745627
 40
0.2897305583883869
 40
0.4211001779281079
 40
0.5593151944279676
 40
0.7030203959896325
 40
0.85053655172937
 40
1.0
 40
1.0
 40
1.0
 40
1.0
 10
60.812105776166
 20
6.999999999999992
 30
0.0
 10
60.56194343306394
 20
6.999999999999992
 30
0.0
 10
59.95148842652345
 20
6.999999999999979
 30
0.0
 10
58.47629170266194
 20
6.999999999999999
 30
0.0
 10
56.44594390078446
 20
6.999999999999999
 30
0.0
 10
53.93131751037809
 20
6.999999999999979
 30
0.0
 10
51.13141806302216
 20
7.000000000000013
 30
0.0
 10
48.11134080408383
 20
6.999999999999979
 30
0.0
 10
44.94555197417012
 20
6.999999999999986
 30
0.0
 10
42.79087183845905
 20
6.999999999999992
 30
0.0
 10
41.70646766169154
 20
6.999999999999992
 30
0.0
  0
ARC
  5
7A
330
1F
100
AcDbEntity
  8
0
  6
Continuous
 62
     7
370
    25
100
AcDbCircle
 10
83.0
 20
65.4577114428
 30
0.0
 40
41.29353233830852
100
AcDbArc
 50
180.0
 51
245.228449667
  0
SPLINE
  5
7B
330
1F
100
AcDbEntity
  8
0
  6
Continuous
 62
     7
370
    25
100
AcDbSpline
210
0.0
220
0.0
230
1.0
 70
    24
 71
     3
 72
    16
 73
    12
 74
     0
 42
0.00000001
 43
0.00000001
 40
0.0
 40
0.0
 40
0.0
 40
0.0
 40
0.2500000000000001
 40
0.2500000000000001
 40
0.5000000000000001
 40
0.5000000000000001
 40
0.7500000000000002
 40
0.7500000000000002
 40
0.8750000000000001
 40
0.8750000000000001
 40
1.0
 40
1.0
 40
1.0
 40
1.0
 10
41.70646766169153
 20
38.72518572144099
 30
0.0
 10
41.70646766169152
 20
40.98378125612808
 30
0.0
 10
41.70646766169153
 20
43.21968251935686
 30
0.0
 10
41.70646766169153
 20
47.66897734032337
 30
0.0
 10
41.70646766169152
 20
49.88208096615489
 30
0.0
 10
41.70646766169152
 20
54.30747225417552
 30
0.0
 10
41.70646766169153
 20
56.51983815843784
 30
0.0
 10
41.70646766169151
 20
59.85683882313697
 30
0.0
 10
41.70646766169153
 20
60.97227420860924
 30
0.0
 10
41.70646766169152
 20
63.21195876945978
 30
0.0
 10
41.70646766169153
 20
64.33457038211705
 30
0.0
 10
41.70646766169153
 20
65.4577114430838
 30
0.0
  0
ARC
  5
7C
330
1F
100
AcDbEntity
  8
0
  6
Continuous
 62
     7
370
    25
100
AcDbCircle
 10
83.0
 20
65.4577114428
 30
0.0
 40
41.29353233830852
100
AcDbArc
 50
294.771550333
 51
0.0
  0
SPLINE
  5
7D
330
1F
100
AcDbEntity
  8
0
  6
Continuous
 62
     7
370
    25
100
AcDbSpline
210
0.0
220
0.0
230
1.0
 70
    24
 71
     3
 72
    16
 73
    12
 74
     0
 42
0.00000001
 43
0.00000001
 40
0.0
 40
0.0
 40
0.0
 40
0.0
 40
0.1250000000000001
 40
0.1250000000000001
 40
0.2500000000000001
 40
0.2500000000000001
 40
0.5000000000000001
 40
0.5000000000000001
 40
0.7500000000000001
 40
0.7500000000000001
 40
1.0
 40
1.0
 40
1.0
 40
1.0
 10
124.2935323383085
 20
65.45771144278606
 30
0.0
 10
124.2935323383085
 20
64.32840120632966
 30
0.0
 10
124.2935323383085
 20
63.20413174317016
 30
0.0
 10
124.2935323383085
 20
60.96445548302312
 30
0.0
 10
124.2935323383085
 20
59.8490201449262
 30
0.0
 10
124.2935323383085
 20
56.51200544433367
 30
0.0
 10
124.2935323383085
 20
54.29961095497512
 30
0.0
 10
124.2935323383085
 20
49.87413312499302
 30
0.0
 10
124.2935323383085
 20
47.66097217415113
 30
0.0
 10
124.2935323383085
 20
43.21154584083681
 30
0.0
 10
124.2935323383085
 20
40.97091345277772
 30
0.0
 10
124.2935323383085
 20
38.72518572144099
 30
0.0
  0
SPLINE
  5
7E
330
1F
100
AcDbEntity
  8
0
  6
Continuous
 62
     7
370
    25
100
AcDbSpline
210
0.0
220
0.0
230
1.0
 70
     8
 71
     3
 72
    32
 73
    28
 74
     0
 42
0.00000001
 43
0.00000001
 40
0.0
 40
0.0
 40
0.0
 40
0.0
 40
0.0001361285795714
 40
0.0002041928693571
 40
0.0002041928693571
 40
0.0002722571591428
 40
0.0002722571591428
 40
0.0005445143182855
 40
0.001089028636571
 40
0.001089028636571
 40
0.0016335429548565
 40
0.0016335429548565
 40
0.002178057273142
 40
0.002178057273142
 40
0.0023141858527134
 40
0.0023141858527134
 40
0.0023482179976062
 40
0.0023482179976062
 40
0.002382250142499
 40
0.0024503144322847
 40
0.0027225715914272
 40
0.0027225715914272
 40
0.0032670859097122
 40
0.0032670859097122
 40
0.0038116002279971
 40
0.0038116002279971
 40
0.0043561145462821
 40
0.0043561145462821
 40
0.0043561145462821
 40
0.0043561145462821
 10
66.61498171099561
 20
24.34277119435173
 30
0.0
 10
66.6112063678993
 20
24.3040615839169
 30
0.0
 10
66.60599773746189
 20
24.24562252684686
 30
0.0
 10
66.60149587992956
 20
24.18662012102288
 30
0.0
 10
66.59865459197592
 20
24.14715981855571
 30
0.0
 10
66.5973134286019
 20
24.127358565578
 30
0.0
 10
66.5910244801407
 20
24.02819827688685
 30
0.0
 10
66.57991513218498
 20
23.78852315867183
 30
0.0
 10
66.58121221164747
 20
23.54399244451949
 30
0.0
 10
66.59485339546846
 20
23.21399320808984
 30
0.0
 10
66.6076281822976
 20
23.04701405847452
 30
0.0
 10
66.64608846875534
 20
22.7094358169573
 30
0.0
 10
66.67177184006806
 20
22.53883629578716
 30
0.0
 10
66.71267804770208
 20
22.32353188657343
 30
0.0
 10
66.72129990785602
 20
22.28036825723671
 30
0.0
 10
66.73264089691801
 20
22.22628856211492
 30
0.0
 10
66.73493773443285
 20
22.21546435172894
 30
0.0
 10
66.73958067855223
 20
22.19383772230745
 30
0.0
 10
66.74662151246885
 20
22.16141831407781
 30
0.0
 10
66.7732778443584
 20
22.04277362121303
 30
0.0
 10
66.80005106014647
 20
21.93560436782756
 30
0.0
 10
66.86916282524069
 20
21.67975037210646
 30
0.0
 10
66.92170641534676
 20
21.51098270300447
 30
0.0
 10
67.03975417368807
 20
21.1772284882768
 30
0.0
 10
67.10525790524777
 20
21.01224150615302
 30
0.0
 10
67.24943394917105
 20
20.68627205912636
 30
0.0
 10
67.32810531956666
 20
20.5252890298781
 30
0.0
 10
67.41356790937891
 20
20.36645048796765
 30
0.0
  0
SPLINE
  5
7F
330
1F
100
AcDbEntity
  8
0
  6
Continuous
 62
     7
370
    25
100
AcDbSpline
210
0.0
220
0.0
230
1.0
 70
     8
 71
     3
 72
    47
 73
    43
 74
     0
 42
0.00000001
 43
0.00000001
 40
0.0
 40
0.0
 40
0.0
 40
0.0
 40
0.0001248042650948
 40
0.0002496085301897
 40
0.0003744127952845
 40
0.0004992170603793
 40
0.0004992170603793
 40
0.000530418126653
 40
0.000530418126653
 40
0.0005616191929267
 40
0.0006240213254741
 40
0.0007488255905689
 40
0.0007488255905689
 40
0.0009984341207585
 40
0.0009984341207585
 40
0.0010296351870323
 40
0.0010296351870323
 40
0.0010608362533059
 40
0.0010608362533059
 40
0.0011232383858533
 40
0.0012480426509481
 40
0.0012480426509481
 40
0.0014976511811377
 40
0.0014976511811377
 40
0.0017472597113272
 40
0.0017472597113272
 40
0.001872063976422
 40
0.001872063976422
 40
0.0019344661089693
 40
0.0019344661089693
 40
0.0019968682415167
 40
0.0022464767717062
 40
0.0022464767717062
 40
0.0024960853018958
 40
0.0024960853018958
 40
0.0027456938320853
 40
0.0027456938320853
 40
0.0029953023622749
 40
0.0029953023622749
 40
0.003494519422654
 40
0.003494519422654
 40
0.003993736483033
 40
0.003993736483033
 40
0.003993736483033
 40
0.003993736483033
 10
65.69795698717364
 20
27.96377699256815
 30
0.0
 10
65.73625550108468
 20
27.94610366634268
 30
0.0
 10
65.81044432634359
 20
27.90742338256367
 30
0.0
 10
65.91491263267193
 20
27.83996917018129
 30
0.0
 10
66.01285603950299
 20
27.76348265723303
 30
0.0
 10
66.07393212446328
 20
27.70665064381113
 30
0.0
 10
66.11081097640209
 20
27.66933978826277
 30
0.0
 10
66.11812707631931
 20
27.66178263313819
 30
0.0
 10
66.13260765487901
 20
27.64651348143044
 30
0.0
 10
66.15405855318507
 20
27.62342298937562
 30
0.0
 10
66.20226501089114
 20
27.56826836491492
 30
0.0
 10
66.24056184334906
 20
27.51890167393571
 30
0.0
 10
66.31343076184508
 20
27.41759151833502
 30
0.0
 10
66.35705702229144
 20
27.34662492425451
 30
0.0
 10
66.40123045109533
 20
27.26339346392367
 30
0.0
 10
66.40607018389981
 20
27.25409818692268
 30
0.0
 10
66.41561466142866
 20
27.23541424838169
 30
0.0
 10
66.42032272283483
 20
27.22601867673541
 30
0.0
 10
66.43420845060976
 20
27.19777334087044
 30
0.0
 10
66.4610508368195
 20
27.14100235858775
 30
0.0
 10
66.48525556618408
 20
27.08343556589999
 30
0.0
 10
66.53048126793841
 20
26.9673414056371
 30
0.0
 10
66.55639890728338
 20
26.88866820736367
 30
0.0
 10
66.6011388018006
 20
26.72918105450049
 30
0.0
 10
66.61995470604647
 20
26.64836518376546
 30
0.0
 10
66.6436308534
 20
26.52576928327542
 30
0.0
 10
66.65076301067981
 20
26.48467471529343
 30
0.0
 10
66.66040552167114
 20
26.42271433936815
 30
0.0
 10
66.66343911252389
 20
26.40203563361134
 30
0.0
 10
66.66915155204586
 20
26.36071112804566
 30
0.0
 10
66.68255355443165
 20
26.25741818088228
 30
0.0
 10
66.69181362805939
 20
26.15421153446437
 30
0.0
 10
66.70233585235394
 20
25.98917036726099
 30
0.0
 10
66.70544711482458
 20
25.90669457767681
 30
0.0
 10
66.70819882703991
 20
25.7418153159585
 30
0.0
 10
66.70783758220219
 20
25.65941187913243
 30
0.0
 10
66.7043591385799
 20
25.49466242821591
 30
0.0
 10
66.70124092060786
 20
25.41231643536108
 30
0.0
 10
66.68872071076856
 20
25.16534441395134
 30
0.0
 10
66.67616730569812
 20
25.00078404787511
 30
0.0
 10
66.647321776761
 20
24.67174121523213
 30
0.0
 10
66.63102417117165
 20
24.50725886288199
 30
0.0
 10
66.61498171099561
 20
24.34277119435173
 30
0.0
  0
SPLINE
  5
80
330
1F
100
AcDbEntity
  8
0
  6
Continuous
 62
     7
370
    25
100
AcDbSpline
210
0.0
220
0.0
230
1.0
 70
     8
 71
     3
 72
    34
 73
    30
 74
     0
 42
0.00000001
 43
0.00000001
 40
0.0
 40
0.0
 40
0.0
 40
0.0
 40
0.0005348625319956
 40
0.0005348625319956
 40
0.0010697250639913
 40
0.0010697250639913
 40
0.0016045875959869
 40
0.0016045875959869
 40
0.0018720188619847
 40
0.0018720188619847
 40
0.0019388766784842
 40
0.0019388766784842
 40
0.0020057344949836
 40
0.0020057344949836
 40
0.0021394501279825
 40
0.0026743126599781
 40
0.0026743126599781
 40
0.0032091751919738
 40
0.0032091751919738
 40
0.0037440377239694
 40
0.0037440377239694
 40
0.0038108955404689
 40
0.0038108955404689
 40
0.0038777533569683
 40
0.0040114689899672
 40
0.0040114689899672
 40
0.0041451846229662
 40
0.0041451846229662
 40
0.0042789002559651
 40
0.0042789002559651
 40
0.0042789002559651
 40
0.0042789002559651
 10
98.5864320906211
 20
20.36645048796765
 30
0.0
 10
98.67170816787136
 20
20.52494238249173
 30
0.0
 10
98.75022259594527
 20
20.68556942670824
 30
0.0
 10
98.89414141687652
 20
21.01081002006825
 30
0.0
 10
98.95954487677821
 20
21.17542412777602
 30
0.0
 10
99.07744803623721
 20
21.50841699192716
 30
0.0
 10
99.12994730197295
 20
21.67679618049303
 30
0.0
 10
99.19903516855334
 20
21.93205645645153
 30
0.0
 10
99.22045288496926
 20
22.01759211709731
 30
0.0
 10
99.2452019541014
 20
22.12506109970696
 30
0.0
 10
99.25005058703204
 20
22.14658237127652
 30
0.0
 10
99.25954516732786
 20
22.18967958960796
 30
0.0
 10
99.26419342577682
 20
22.21126657138148
 30
0.0
 10
99.27781780241095
 20
22.27603363397471
 30
0.0
 10
99.32099931703672
 20
22.49149993638934
 30
0.0
 10
99.3532699947399
 20
22.70477560209153
 30
0.0
 10
99.39200522756906
 20
23.04285063236516
 30
0.0
 10
99.4049219759388
 20
23.21030559712128
 30
0.0
 10
99.41876310899991
 20
23.54168028608825
 30
0.0
 10
99.41968592015195
 20
23.70560045004646
 30
0.0
 10
99.41442863566469
 20
23.88780218762735
 30
0.0
 10
99.41375690714915
 20
23.90801614867929
 30
0.0
 10
99.41224289953055
 20
23.94831424194069
 30
0.0
 10
99.4097153871816
 20
24.00859225078099
 30
0.0
 10
99.4064308175011
 20
24.06836258660676
 30
0.0
 10
99.40139990406796
 20
24.14760447152139
 30
0.0
 10
99.39855902125184
 20
24.18699238939193
 30
0.0
 10
99.39225238219503
 20
24.26525557193631
 30
0.0
 10
99.38878620143512
 20
24.30413777253422
 30
0.0
 10
99.38501828900439
 20
24.34277119435173
 30
0.0
  0
SPLINE
  5
81
330
1F
100
AcDbEntity
  8
0
  6
Continuous
 62
     7
370
    25
100
AcDbSpline
210
0.0
220
0.0
230
1.0
 70
     8
 71
     3
 72
    51
 73
    47
 74
     0
 42
0.00000001
 43
0.00000001
 40
0.0
 40
0.0
 40
0.0
 40
0.0
 40
0.0004989537322789
 40
0.0004989537322789
 40
0.0009979074645579
 40
0.0009979074645579
 40
0.0012473843306974
 40
0.0012473843306974
 40
0.0014968611968368
 40
0.0014968611968368
 40
0.0016215996299066
 40
0.0016215996299066
 40
0.0016839688464414
 40
0.0017463380629763
 40
0.0019958149291157
 40
0.0019958149291157
 40
0.0022452917952552
 40
0.0022452917952552
 40
0.0024947686613946
 40
0.0024947686613946
 40
0.0025259532696621
 40
0.0025259532696621
 40
0.0025571378779295
 40
0.0025571378779295
 40
0.0026195070944644
 40
0.0027442455275341
 40
0.0027442455275341
 40
0.0029937223936736
 40
0.0029937223936736
 40
0.0031184608267433
 40
0.0031184608267433
 40
0.0031808300432782
 40
0.0031808300432782
 40
0.0032431992598131
 40
0.0032431992598131
 40
0.0034926761259526
 40
0.0034926761259526
 40
0.0036174145590223
 40
0.0036174145590223
 40
0.0036797837755572
 40
0.0037109683838246
 40
0.0037109683838246
 40
0.0037421529920921
 40
0.0037421529920921
 40
0.0038668914251618
 40
0.0039916298582316
 40
0.0039916298582316
 40
0.0039916298582316
 40
0.0039916298582316
 10
99.38501828900439
 20
24.34277119435173
 30
0.0
 10
99.36893798090748
 20
24.5076469278173
 30
0.0
 10
99.3526016237798
 20
24.67250927327402
 30
0.0
 10
99.32369764829235
 20
25.0024310198369
 30
0.0
 10
99.31112301979523
 20
25.16749005440467
 30
0.0
 10
99.29862653064468
 20
25.41541143606208
 30
0.0
 10
99.29552589096946
 20
25.49810757466567
 30
0.0
 10
99.29211725876866
 20
25.66364587072208
 30
0.0
 10
99.29180811240957
 20
25.74648796784447
 30
0.0
 10
99.29399427370547
 20
25.87088966756984
 30
0.0
 10
99.29516536288837
 20
25.91238003090019
 30
0.0
 10
99.29766335447891
 20
25.97465433919422
 30
0.0
 10
99.29957708195514
 20
26.01620121814507
 30
0.0
 10
99.30686674295285
 20
26.14059619137661
 30
0.0
 10
99.31630875540877
 20
26.24372619456925
 30
0.0
 10
99.3365723171208
 20
26.4079188209985
 30
0.0
 10
99.34927924843971
 20
26.4896079224977
 30
0.0
 10
99.38086123428947
 20
26.65201075257303
 30
0.0
 10
99.39973085842965
 20
26.73272533986357
 30
0.0
 10
99.42516079422607
 20
26.82286484501492
 30
0.0
 10
99.42804495815086
 20
26.83287107664556
 30
0.0
 10
99.43393356607821
 20
26.85286451986994
 30
0.0
 10
99.43693884115693
 20
26.86285420103054
 30
0.0
 10
99.44611940084957
 20
26.89272879392238
 30
0.0
 10
99.4651573420205
 20
26.95216157608029
 30
0.0
 10
99.48629181457234
 20
27.01061426252476
 30
0.0
 10
99.53155620015643
 20
27.12611931371959
 30
0.0
 10
99.56571118160528
 20
27.2012626895996
 30
0.0
 10
99.62392680428619
 20
27.3107132394985
 30
0.0
 10
99.64449916845483
 20
27.34665112862527
 30
0.0
 10
99.67727677107732
 20
27.39966083340128
 30
0.0
 10
99.68852283303274
 20
27.41718104909959
 30
0.0
 10
99.71168837903544
 20
27.45190666617421
 30
0.0
 10
99.7236261649798
 20
27.46913546608835
 30
0.0
 10
99.7846205527422
 20
27.5538157902374
 30
0.0
 10
99.83784663577116
 20
27.61732771007631
 30
0.0
 10
99.92500241724558
 20
27.70560629584099
 30
0.0
 10
99.95527707181334
 20
27.73386447113531
 30
0.0
 10
100.002646791584
 20
27.77438158955482
 30
0.0
 10
100.0268215839506
 20
27.79417213691412
 30
0.0
 10
100.05175970332
 20
27.8132335101595
 30
0.0
 10
100.0685583315923
 20
27.82577562699054
 30
0.0
 10
100.0770281098909
 20
27.83195175665422
 30
0.0
 10
100.119659560697
 20
27.86230343162298
 30
0.0
 10
100.1898185605783
 20
27.90759031201342
 30
0.0
 10
100.2639504105977
 20
27.94619868686815
 30
0.0
 10
100.3020430128179
 20
27.96377699257949
 30
0.0
  0
ARC
  5
82
330
1F
100
AcDbEntity
  8
0
  6
Continuous
 62
     7
370
    25
100
AcDbCircle
 10
92.4527363184
 20
23.6666666667
 30
0.0
 40
6.965174129353266
100
AcDbArc
 50
270.0
 51
331.7176632467
  0
ARC
  5
83
330
1F
100
AcDbEntity
  8
0
  6
Continuous
 62
     7
370
    25
100
AcDbCircle
 10
73.5472636816
 20
23.6666666667
 30
0.0
 40
6.965174129353254
100
AcDbArc
 50
208.2823367533
 51
270.0
  0
LINE
  5
84
330
1F
100
AcDbEntity
  8
0
  6
Continuous
 62
     7
370
    25
100
AcDbLine
 10
124.2935323383
 20
11.9751243781
 30
0.0
 11
124.2935323383
 21
38.7251857518
 31
0.0
  0
LINE
  5
85
330
1F
100
AcDbEntity
  8
0
  6
Continuous
 62
     7
370
    25
100
AcDbLine
 10
41.7064676617
 20
11.9751243781
 30
0.0
 11
41.7064676617
 21
38.7251857518
 31
0.0
  0
LINE
  5
86
330
1F
100
AcDbEntity
  8
0
  6
Continuous
 62
     7
370
    25
100
AcDbLine
 10
73.5472636816
 20
16.7014925373
 30
0.0
 11
92.4527363184
 21
16.7014925373
 31
0.0
  0
LINE
  5
87
330
1F
100
AcDbEntity
  8
0
  6
Continuous
 62
     7
370
    25
100
AcDbLine
 10
92.4527363184
 20
30.631840796
 30
0.0
 11
73.5472636816
 21
30.631840796
 31
0.0
  0
ARC
  5
88
330
1F
100
AcDbEntity
  8
0
  6
Continuous
 62
     7
370
    25
100
AcDbCircle
 10
83.0
 20
65.4577114428
 30
0.0
 40
41.54228855721395
100
AcDbArc
 50
353.7266958104
 51
186.2733041896
  0
ARC
  5
89
330
1F
100
AcDbEntity
  8
0
  6
Continuous
 62
     7
370
    25
100
AcDbCircle
 10
92.4527363184
 20
23.6666666667
 30
0.0
 40
6.965174129353311
100
AcDbArc
 50
5.5704321224
 51
90.0
  0
ARC
  5
8A
330
1F
100
AcDbEntity
  8
0
  6
Continuous
 62
     7
370
    25
100
AcDbCircle
 10
73.5472636816
 20
23.6666666667
 30
0.0
 40
6.965174129353311
100
AcDbArc
 50
90.0
 51
174.4295678776
  0
ARC
  5
8B
330
1F
100
AcDbEntity
  8
0
  6
HIDDEN
 62
     7
370
    18
100
AcDbCircle
 10
86.7313432836
 20
9.9850746269
 30
0.0
 40
1.990049751243788
100
AcDbArc
 50
90.0
 51
180.0
  0
ARC
  5
8C
330
1F
100
AcDbEntity
  8
0
  6
HIDDEN
 62
     7
370
    18
100
AcDbCircle
 10
79.2686567164
 20
9.9850746269
 30
0.0
 40
1.990049751243783
100
AcDbArc
 50
0.0
 51
90.0
  0
LINE
  5
8D
330
1F
100
AcDbEntity
  8
0
  6
HIDDEN
 62
     7
370
    18
100
AcDbLine
 10
84.7412935323
 20
7.0
 30
0.0
 11
84.7412935323
 21
9.9850746269
 31
0.0
  0
LINE
  5
8E
330
1F
100
AcDbEntity
  8
0
  6
HIDDEN
 62
     7
370
    18
100
AcDbLine
 10
81.2587064677
 20
9.9850746269
 30
0.0
 11
81.2587064677
 21
7.0
 31
0.0
  0
LINE
  5
8F
330
1F
100
AcDbEntity
  8
0
  6
HIDDEN
 62
     7
370
    18
100
AcDbLine
 10
103.7189008366
 20
11.9751243781
 30
0.0
 11
103.7189008366
 21
7.0
 31
0.0
  0
LINE
  5
90
330
1F
100
AcDbEntity
  8
0
  6
HIDDEN
 62
     7
370
    18
100
AcDbLine
 10
62.2810991634
 20
7.0
 30
0.0
 11
62.2810991634
 21
11.9751243781
 31
0.0
  0
LINE
  5
91
330
1F
100
AcDbEntity
  8
0
  6
Continuous
 62
     7
370
    25
100
AcDbLine
 10
124.5422885572
 20
191.0746258056
 30
0.0
 11
124.5422885572
 21
196.0497501837
 31
0.0
  0
LINE
  5
92
330
1F
100
AcDbEntity
  8
0
  6
Continuous
 62
     7
370
    25
100
AcDbLine
 10
41.4577114428
 20
196.0497501837
 30
0.0
 11
41.4577114428
 21
191.0746258056
 31
0.0
  0
LINE
  5
93
330
1F
100
AcDbEntity
  8
0
  6
Continuous
 62
     7
370
    25
100
AcDbLine
 10
66.5820901189
 20
190.7265855127
 30
0.0
 11
66.6868052374
 21
191.0750015561
 31
0.0
  0
LINE
  5
94
330
1F
100
AcDbEntity
  8
0
  6
Continuous
 62
     7
370
    25
100
AcDbLine
 10
99.3131955539
 20
191.0749989232
 30
0.0
 11
99.4079130555
 21
190.7598477053
 31
0.0
  0
LINE
  5
95
330
1F
100
AcDbEntity
  8
0
  6
Continuous
 62
     7
370
    25
100
AcDbLine
 10
124.5422885572
 20
191.0746258056
 30
0.0
 11
41.4577114428
 21
191.0746258056
 31
0.0
  0
LINE
  5
96
330
1F
100
AcDbEntity
  8
0
  6
Continuous
 62
     7
370
    25
100
AcDbLine
 10
124.5422885572
 20
196.0497501837
 30
0.0
 11
41.4577114428
 21
196.0497501837
 31
0.0
  0
LINE
  5
97
330
1F
100
AcDbEntity
  8
0
  6
Continuous
 62
     7
370
    25
100
AcDbLine
 10
124.2935323383
 20
188.0895511788
 30
0.0
 11
100.338916597
 21
188.0895511788
 31
0.0
  0
SPLINE
  5
98
330
1F
100
AcDbEntity
  8
0
  6
Continuous
 62
     7
370
    25
100
AcDbSpline
210
0.0
220
0.0
230
1.0
 70
    24
 71
     3
 72
    16
 73
    12
 74
     0
 42
0.00000001
 43
0.00000001
 40
0.0
 40
0.0
 40
0.0
 40
0.0
 40
0.1250000000000001
 40
0.1250000000000001
 40
0.2500000000000001
 40
0.2500000000000001
 40
0.5000000000000001
 40
0.5000000000000001
 40
0.7500000000000001
 40
0.7500000000000001
 40
1.0
 40
1.0
 40
1.0
 40
1.0
 10
124.2935323383085
 20
191.0746257765051
 30
0.0
 10
124.2935323383085
 20
191.0746257765051
 30
0.0
 10
124.2935323383085
 20
191.0331312617261
 30
0.0
 10
124.2935323383085
 20
190.8771867527622
 30
0.0
 10
124.2935323383085
 20
190.7629717025859
 30
0.0
 10
124.2935323383085
 20
190.3438425423905
 30
0.0
 10
124.2935323383085
 20
189.9633206175224
 30
0.0
 10
124.2935323383085
 20
189.2079472368419
 30
0.0
 10
124.2935323383085
 20
188.8337346509333
 30
0.0
 10
124.2935323383085
 20
188.275499976344
 30
0.0
 10
124.2935323383085
 20
188.089551175392
 30
0.0
 10
124.2935323383085
 20
188.0895511787679
 30
0.0
  0
LINE
  5
99
330
1F
100
AcDbEntity
  8
0
  6
Continuous
 62
     7
370
    25
100
AcDbLine
 10
65.661083403
 20
188.0895511788
 30
0.0
 11
41.7064676617
 21
188.0895511788
 31
0.0
  0
SPLINE
  5
9A
330
1F
100
AcDbEntity
  8
0
  6
Continuous
 62
     7
370
    25
100
AcDbSpline
210
0.0
220
0.0
230
1.0
 70
    24
 71
     3
 72
    16
 73
    12
 74
     0
 42
0.00000001
 43
0.00000001
 40
0.0
 40
0.0
 40
0.0
 40
0.0
 40
0.2500000000000001
 40
0.2500000000000001
 40
0.5000000000000001
 40
0.5000000000000001
 40
0.7500000000000002
 40
0.7500000000000002
 40
0.8750000000000001
 40
0.8750000000000001
 40
1.0
 40
1.0
 40
1.0
 40
1.0
 10
41.70646766169153
 20
188.0895511787679
 30
0.0
 10
41.70646766169152
 20
188.0895511753727
 30
0.0
 10
41.70646766169153
 20
188.27629001561
 30
0.0
 10
41.70646766169153
 20
188.8349706415276
 30
0.0
 10
41.70646766169152
 20
189.2092983663733
 30
0.0
 10
41.70646766169152
 20
189.9646679290637
 30
0.0
 10
41.70646766169153
 20
190.3450659562119
 30
0.0
 10
41.70646766169151
 20
190.7638332835028
 30
0.0
 10
41.70646766169153
 20
190.8778991463606
 30
0.0
 10
41.70646766169152
 20
191.0335070753019
 30
0.0
 10
41.70646766169153
 20
191.0746257765122
 30
0.0
 10
41.70646766169153
 20
191.074625776505
 30
0.0
  0
LINE
  5
9B
330
1F
100
AcDbEntity
  8
0
  6
Continuous
 62
     7
370
    25
100
AcDbLine
 10
66.6037283783
 20
190.7985819622
 30
0.0
 11
66.6017178676
 21
190.7492642067
 31
0.0
  0
LINE
  5
9C
330
1F
100
AcDbEntity
  8
0
  6
Continuous
 62
     7
370
    25
100
AcDbLine
 10
73.5472636816
 20
188.0895511788
 30
0.0
 11
65.661083403
 21
188.0895511788
 31
0.0
  0
LINE
  5
9D
330
1F
100
AcDbEntity
  8
0
  6
Continuous
 62
     7
370
    25
100
AcDbLine
 10
100.338916597
 20
188.0895511788
 30
0.0
 11
92.4527363184
 21
188.0895511788
 31
0.0
  0
LINE
  5
9E
330
1F
100
AcDbEntity
  8
0
  6
Continuous
 62
     7
370
    25
100
AcDbLine
 10
92.4527363184
 20
188.0895511788
 30
0.0
 11
73.5472636816
 21
188.0895511788
 31
0.0
  0
SPLINE
  5
9F
330
1F
100
AcDbEntity
  8
0
  6
Continuous
 62
     7
370
    25
100
AcDbSpline
210
0.0
220
0.0
230
1.0
 70
     8
 71
     3
 72
     9
 73
     5
 74
     0
 42
0.00000001
 43
0.00000001
 40
0.0
 40
0.0
 40
0.0
 40
0.0
 40
0.448190437961029
 40
1.0
 40
1.0
 40
1.0
 40
1.0
 10
105.0659363846471
 20
142.0161862341675
 30
0.0
 10
103.8993693802542
 20
148.135320115449
 30
0.0
 10
101.2965316006264
 20
161.7882974282172
 30
0.0
 10
116.1160051367126
 20
172.7499414454076
 30
0.0
 10
124.2935323383085
 20
178.7986814297603
 30
0.0
  0
ARC
  5
A0
330
1F
100
AcDbEntity
  8
0
  6
Continuous
 62
     7
370
    25
100
AcDbCircle
 10
83.0
 20
142.0161862342
 30
0.0
 40
22.06593638464707
100
AcDbArc
 50
180.0
 51
0.0
  0
SPLINE
  5
A1
330
1F
100
AcDbEntity
  8
0
  6
Continuous
 62
     7
370
    25
100
AcDbSpline
210
0.0
220
0.0
230
1.0
 70
     8
 71
     3
 72
     9
 73
     5
 74
     0
 42
0.00000001
 43
0.00000001
 40
0.0
 40
0.0
 40
0.0
 40
0.0
 40
0.448190437961029
 40
1.0
 40
1.0
 40
1.0
 40
1.0
 10
60.93406361535293
 20
142.0161862341675
 30
0.0
 10
62.10063061974577
 20
148.135320115449
 30
0.0
 10
64.70346839937363
 20
161.7882974282172
 30
0.0
 10
49.88399486328736
 20
172.7499414454076
 30
0.0
 10
41.70646766169154
 20
178.7986814297603
 30
0.0
  0
LINE
  5
A2
330
1F
100
AcDbEntity
  8
0
  6
Continuous
 62
     7
370
    25
100
AcDbLine
 10
41.7064676617
 20
188.0895511788
 30
0.0
 11
41.7064676617
 21
178.7986814298
 31
0.0
  0
LINE
  5
A3
330
1F
100
AcDbEntity
  8
0
  6
Continuous
 62
     7
370
    25
100
AcDbLine
 10
124.2935323383
 20
188.0895511788
 30
0.0
 11
124.2935323383
 21
178.7986814298
 31
0.0
  0
CIRCLE
  5
A4
330
1F
100
AcDbEntity
  8
0
  6
Continuous
 62
     7
370
    25
100
AcDbCircle
 10
83.0
 20
179.0709126023
 30
0.0
 40
1.74129353233829
  0
CIRCLE
  5
A5
330
1F
100
AcDbEntity
  8
0
  6
Continuous
 62
     7
370
    25
100
AcDbCircle
 10
83.0
 20
142.0161862342
 30
0.0
 40
1.741293532338318
  0
LINE
  5
A6
330
1F
100
AcDbEntity
  8
0
  6
HIDDEN
 62
     7
370
    18
100
AcDbLine
 10
41.7064676617
 20
196.0497501837
 30
0.0
 11
41.7064676617
 21
191.0746258056
 31
0.0
  0
LINE
  5
A7
330
1F
100
AcDbEntity
  8
0
  6
HIDDEN
 62
     7
370
    18
100
AcDbLine
 10
124.2935323383
 20
196.0497501837
 30
0.0
 11
124.2935323383
 21
191.0746258056
 31
0.0
  0
LINE
  5
A8
330
1F
100
AcDbEntity
  8
0
  6
HIDDEN
 62
     7
370
    18
100
AcDbLine
 10
66.6059393139
 20
190.8528161319
 30
0.0
 11
66.6037283783
 21
190.7985819622
 31
0.0
  0
LINE
  5
A9
330
1F
100
AcDbEntity
  8
0
  6
HIDDEN
 62
     7
370
    18
100
AcDbLine
 10
99.4096994306
 20
190.7352869935
 30
0.0
 11
99.4014722199
 21
190.848402179
 31
0.0
  0
ARC
  5
AA
330
1F
100
AcDbEntity
  8
0
  6
HIDDEN
 62
     7
370
    18
100
AcDbCircle
 10
101.407960199
 20
194.0597004325
 30
0.0
 40
1.990049751243788
100
AcDbArc
 50
90.0
 51
180.0
  0
ARC
  5
AB
330
1F
100
AcDbEntity
  8
0
  6
HIDDEN
 62
     7
370
    18
100
AcDbCircle
 10
64.592039801
 20
194.0597004325
 30
0.0
 40
1.990049751243788
100
AcDbArc
 50
0.0
 51
90.0
  0
LINE
  5
AC
330
1F
100
AcDbEntity
  8
0
  6
HIDDEN
 62
     7
370
    18
100
AcDbLine
 10
66.5820895522
 20
194.0597004325
 30
0.0
 11
66.5820895522
 21
190.7251885411
 31
0.0
  0
LINE
  5
AD
330
1F
100
AcDbEntity
  8
0
  6
HIDDEN
 62
     7
370
    18
100
AcDbLine
 10
99.4179104478
 20
190.7251883234
 30
0.0
 11
99.4179104478
 21
194.0597004325
 31
0.0
  0
LINE
  5
AE
330
1F
100
AcDbEntity
  8
0
  6
HIDDEN
 62
     7
370
    18
100
AcDbLine
 10
99.4079130555
 20
190.7598477053
 30
0.0
 11
99.4179098811
 21
190.7265855127
 31
0.0
  0
INSERT
  5
BA
330
1F
100
AcDbEntity
  8
10
100
AcDbBlockReference
  2
SW_CENTERMARKSYMBOL_0
 10
83.0
 20
142.0161862342
 30
0.0
  0
INSERT
  5
C6
330
1F
100
AcDbEntity
  8
10
100
AcDbBlockReference
  2
SW_CENTERMARKSYMBOL_1
 10
83.0
 20
179.0709126023
 30
0.0
  0
LINE
  5
C7
330
1F
100
AcDbEntity
  8
0
  6
Continuous
 62
     7
370
    25
100
AcDbLine
 10
261.0497501837
 20
107.0
 30
0.0
 11
256.0746258056
 21
107.0
 31
0.0
  0
LINE
  5
C8
330
1F
100
AcDbEntity
  8
0
  6
Continuous
 62
     7
370
    25
100
AcDbLine
 10
184.9502498163
 20
11.9751243781
 30
0.0
 11
184.9502498163
 21
7.0
 31
0.0
  0
LINE
  5
C9
330
1F
100
AcDbEntity
  8
0
  6
Continuous
 62
     7
370
    25
100
AcDbLine
 10
256.0746258056
 20
60.9183364202
 30
0.0
 11
256.0746258056
 21
107.0
 31
0.0
  0
LINE
  5
CA
330
1F
100
AcDbEntity
  8
0
  6
Continuous
 62
     7
370
    25
100
AcDbLine
 10
261.0497501837
 20
60.9183364202
 30
0.0
 11
261.0497501837
 21
107.0
 31
0.0
  0
LINE
  5
CB
330
1F
100
AcDbEntity
  8
0
  6
Continuous
 62
     7
370
    25
100
AcDbLine
 10
261.0497501837
 20
60.9183364202
 30
0.0
 11
256.0746258056
 21
60.9183364202
 31
0.0
  0
LINE
  5
CC
330
1F
100
AcDbEntity
  8
0
  6
Continuous
 62
     7
370
    25
100
AcDbLine
 10
243.7986814298
 20
11.9751243781
 30
0.0
 11
243.7986814298
 21
7.0
 31
0.0
  0
LINE
  5
CD
330
1F
100
AcDbEntity
  8
0
  6
Continuous
 62
     7
370
    25
100
AcDbLine
 10
253.0895511788
 20
11.9751243781
 30
0.0
 11
243.7986814298
 21
11.9751243781
 31
0.0
  0
LINE
  5
CE
330
1F
100
AcDbEntity
  8
0
  6
Continuous
 62
     7
370
    25
100
AcDbLine
 10
253.0895511788
 20
11.9751243781
 30
0.0
 11
253.0895511788
 21
38.7251857518
 31
0.0
  0
SPLINE
  5
CF
330
1F
100
AcDbEntity
  8
0
  6
Continuous
 62
     7
370
    25
100
AcDbSpline
210
0.0
220
0.0
230
1.0
 70
     8
 71
     3
 72
    16
 73
    12
 74
     0
 42
0.00000001
 43
0.00000001
 40
0.0
 40
0.0
 40
0.0
 40
0.0
 40
0.1250000000000001
 40
0.1250000000000001
 40
0.2500000000000001
 40
0.2500000000000001
 40
0.5000000000000001
 40
0.5000000000000001
 40
0.7500000000000001
 40
0.7500000000000001
 40
1.0
 40
1.0
 40
1.0
 40
1.0
 10
256.074625776505
 20
65.45771144278606
 30
0.0
 10
256.074625776505
 20
64.32840120632966
 30
0.0
 10
256.0331312617261
 20
63.20413174317016
 30
0.0
 10
255.8771867527623
 20
60.96445548302312
 30
0.0
 10
255.7629717025859
 20
59.8490201449262
 30
0.0
 10
255.3438425423905
 20
56.51200544433367
 30
0.0
 10
254.9633206175224
 20
54.29961095497512
 30
0.0
 10
254.2079472368419
 20
49.87413312499302
 30
0.0
 10
253.8337346509332
 20
47.66097217415113
 30
0.0
 10
253.275499976344
 20
43.21154584083681
 30
0.0
 10
253.089551175392
 20
40.97091345277772
 30
0.0
 10
253.0895511787679
 20
38.72518572144099
 30
0.0
  0
LINE
  5
D0
330
1F
100
AcDbEntity
  8
0
  6
Continuous
 62
     7
370
    25
100
AcDbLine
 10
243.7986814298
 20
7.0
 30
0.0
 11
261.0497501837
 21
7.0
 31
0.0
  0
LINE
  5
D1
330
1F
100
AcDbEntity
  8
0
  6
Continuous
 62
     7
370
    25
100
AcDbLine
 10
261.0497501837
 20
7.0
 30
0.0
 11
261.0497501837
 21
60.9183364202
 31
0.0
  0
LINE
  5
D2
330
1F
100
AcDbEntity
  8
0
  6
Continuous
 62
     7
370
    25
100
AcDbLine
 10
207.0161862342
 20
11.9751243781
 30
0.0
 11
207.0161862342
 21
7.0
 31
0.0
  0
SPLINE
  5
D3
330
1F
100
AcDbEntity
  8
0
  6
Continuous
 62
     7
370
    25
100
AcDbSpline
210
0.0
220
0.0
230
1.0
 70
    24
 71
     3
 72
     9
 73
     5
 74
     0
 42
0.00000001
 43
0.00000001
 40
0.0
 40
0.0
 40
0.0
 40
0.0
 40
0.448190437961029
 40
1.0
 40
1.0
 40
1.0
 40
1.0
 10
207.0161862341675
 20
11.97512437810944
 30
0.0
 10
213.135320115449
 20
11.97512437810944
 30
0.0
 10
226.7882974282172
 20
11.97512437810944
 30
0.0
 10
237.7499414454076
 20
11.97512437810944
 30
0.0
 10
243.7986814297603
 20
11.97512437810944
 30
0.0
  0
SPLINE
  5
D4
330
1F
100
AcDbEntity
  8
0
  6
Continuous
 62
     7
370
    25
100
AcDbSpline
210
0.0
220
0.0
230
1.0
 70
    24
 71
     3
 72
     9
 73
     5
 74
     0
 42
0.00000001
 43
0.00000001
 40
0.0
 40
0.0
 40
0.0
 40
0.0
 40
0.448190437961029
 40
1.0
 40
1.0
 40
1.0
 40
1.0
 10
207.0161862341675
 20
6.999999999999992
 30
0.0
 10
213.135320115449
 20
6.999999999999992
 30
0.0
 10
226.7882974282172
 20
6.999999999999992
 30
0.0
 10
237.7499414454076
 20
6.999999999999992
 30
0.0
 10
243.7986814297603
 20
6.999999999999992
 30
0.0
  0
LINE
  5
D5
330
1F
100
AcDbEntity
  8
0
  6
Continuous
 62
     7
370
    25
100
AcDbLine
 10
184.9502498495
 20
11.9751243781
 30
0.0
 11
207.0161862342
 21
11.9751243781
 31
0.0
  0
LINE
  5
D6
330
1F
100
AcDbEntity
  8
0
  6
Continuous
 62
     7
370
    25
100
AcDbLine
 10
184.9502498495
 20
7.0
 30
0.0
 11
207.0161862342
 21
7.0
 31
0.0
  0
LWPOLYLINE
  5
D7
330
1F
100
AcDbEntity
  8
0
  6
HIDDEN
 62
     7
370
    18
100
AcDbPolyline
 90
       20
 70
   128
 43
0.0
 10
256.0746258056
 20
60.9183364202
 10
256.0746257912
 20
60.7667925303
 10
256.0746257913
 20
58.440333372
 10
256.0746257914
 20
56.1366056284
 10
256.0746257917
 20
53.8630717718
 10
256.0746257919
 20
51.6270964674
 10
256.0746257922
 20
49.4359227172
 10
256.0746257926
 20
47.296648397
 10
256.0746257929
 20
45.2162032647
 10
256.0746257934
 20
43.2013265128
 10
256.0746257938
 20
41.2585449377
 10
256.0746257943
 20
39.3941517979
 10
256.0746257949
 20
37.6141864278
 10
256.0746257955
 20
35.9244146749
 10
256.0746257961
 20
34.3303102219
 10
256.0746257967
 20
32.8370368564
 10
256.0746257974
 20
31.4494317435
 10
256.0746257981
 20
30.1719897567
 10
256.0746257988
 20
29.0088489178
 10
256.0746258056
 20
27.9637769926
  0
ARC
  5
D8
330
1F
100
AcDbEntity
  8
0
  6
HIDDEN
 62
     7
370
    18
100
AcDbCircle
 10
259.0597004325
 20
14.7114427861
 30
0.0
 40
1.990049751243816
100
AcDbArc
 50
0.0
 51
90.0
  0
ARC
  5
D9
330
1F
100
AcDbEntity
  8
0
  6
HIDDEN
 62
     7
370
    18
100
AcDbCircle
 10
259.0597004325
 20
32.6218905473
 30
0.0
 40
1.990049751243816
100
AcDbArc
 50
270.0
 51
0.0
  0
SPLINE
  5
DA
330
1F
100
AcDbEntity
  8
0
  6
HIDDEN
 62
     7
370
    18
100
AcDbSpline
210
0.0
220
0.0
230
1.0
 70
    24
 71
     3
 72
    51
 73
    47
 74
     0
 42
0.00000001
 43
0.00000001
 40
0.0
 40
0.0
 40
0.0
 40
0.0
 40
0.0004989537322789
 40
0.0004989537322789
 40
0.0009979074645579
 40
0.0009979074645579
 40
0.0012473843306974
 40
0.0012473843306974
 40
0.0014968611968368
 40
0.0014968611968368
 40
0.0016215996299066
 40
0.0016215996299066
 40
0.0016839688464414
 40
0.0017463380629763
 40
0.0019958149291157
 40
0.0019958149291157
 40
0.0022452917952552
 40
0.0022452917952552
 40
0.0024947686613946
 40
0.0024947686613946
 40
0.0025259532696621
 40
0.0025259532696621
 40
0.0025571378779295
 40
0.0025571378779295
 40
0.0026195070944644
 40
0.0027442455275341
 40
0.0027442455275341
 40
0.0029937223936736
 40
0.0029937223936736
 40
0.0031184608267433
 40
0.0031184608267433
 40
0.0031808300432782
 40
0.0031808300432782
 40
0.0032431992598131
 40
0.0032431992598131
 40
0.0034926761259526
 40
0.0034926761259526
 40
0.0036174145590223
 40
0.0036174145590223
 40
0.0036797837755572
 40
0.0037109683838246
 40
0.0037109683838246
 40
0.0037421529920921
 40
0.0037421529920921
 40
0.0038668914251618
 40
0.0039916298582316
 40
0.0039916298582316
 40
0.0039916298582316
 40
0.0039916298582316
 10
256.0746258056336
 20
24.34277119435173
 30
0.0
 10
256.0746258056336
 20
24.5076469278173
 30
0.0
 10
256.0746258056336
 20
24.67250927327402
 30
0.0
 10
256.0746258056336
 20
25.0024310198369
 30
0.0
 10
256.0746258056336
 20
25.16749005440467
 30
0.0
 10
256.0746258056336
 20
25.41541143606208
 30
0.0
 10
256.0746258056336
 20
25.49810757466567
 30
0.0
 10
256.0746258056336
 20
25.66364587072208
 30
0.0
 10
256.0746258056336
 20
25.74648796784447
 30
0.0
 10
256.0746258056336
 20
25.87088966756984
 30
0.0
 10
256.0746258056336
 20
25.91238003090019
 30
0.0
 10
256.0746258056336
 20
25.97465433919422
 30
0.0
 10
256.0746258056336
 20
26.01620121814507
 30
0.0
 10
256.0746258056336
 20
26.14059619137661
 30
0.0
 10
256.0746258056336
 20
26.24372619456925
 30
0.0
 10
256.0746258056336
 20
26.4079188209985
 30
0.0
 10
256.0746258056336
 20
26.4896079224977
 30
0.0
 10
256.0746258056336
 20
26.65201075257303
 30
0.0
 10
256.0746258056336
 20
26.73272533986357
 30
0.0
 10
256.0746258056336
 20
26.82286484501492
 30
0.0
 10
256.0746258056336
 20
26.83287107664556
 30
0.0
 10
256.0746258056336
 20
26.85286451986994
 30
0.0
 10
256.0746258056336
 20
26.86285420103054
 30
0.0
 10
256.0746258056336
 20
26.89272879392238
 30
0.0
 10
256.0746258056336
 20
26.95216157608029
 30
0.0
 10
256.0746258056336
 20
27.01061426252476
 30
0.0
 10
256.0746258056336
 20
27.12611931371959
 30
0.0
 10
256.0746258056336
 20
27.2012626895996
 30
0.0
 10
256.0746258056336
 20
27.3107132394985
 30
0.0
 10
256.0746258056336
 20
27.34665112862527
 30
0.0
 10
256.0746258056336
 20
27.39966083340128
 30
0.0
 10
256.0746258056336
 20
27.41718104909959
 30
0.0
 10
256.0746258056336
 20
27.45190666617421
 30
0.0
 10
256.0746258056336
 20
27.46913546608835
 30
0.0
 10
256.0746258056336
 20
27.5538157902374
 30
0.0
 10
256.0746258056336
 20
27.61732771007631
 30
0.0
 10
256.0746258056336
 20
27.70560629584099
 30
0.0
 10
256.0746258056336
 20
27.73386447113531
 30
0.0
 10
256.0746258056336
 20
27.77438158955482
 30
0.0
 10
256.0746258056336
 20
27.79417213691412
 30
0.0
 10
256.0746258056336
 20
27.8132335101595
 30
0.0
 10
256.0746258056336
 20
27.82577562699054
 30
0.0
 10
256.0746258056336
 20
27.83195175665422
 30
0.0
 10
256.0746258056336
 20
27.86230343162298
 30
0.0
 10
256.0746258056336
 20
27.90759031201342
 30
0.0
 10
256.0746258056336
 20
27.94619868686815
 30
0.0
 10
256.0746258056336
 20
27.96377699257949
 30
0.0
  0
ARC
  5
DB
330
1F
100
AcDbEntity
  8
0
  6
HIDDEN
 62
     7
370
    18
100
AcDbCircle
 10
255.07960093
 20
14.7114427861
 30
0.0
 40
1.990049751243788
100
AcDbArc
 50
90.0
 51
180.0
  0
LINE
  5
DC
330
1F
100
AcDbEntity
  8
0
  6
HIDDEN
 62
     7
370
    18
100
AcDbLine
 10
255.07960093
 20
16.7014925373
 30
0.0
 11
259.0597004325
 21
16.7014925373
 31
0.0
  0
LINE
  5
DD
330
1F
100
AcDbEntity
  8
0
  6
HIDDEN
 62
     7
370
    18
100
AcDbLine
 10
256.0746258056
 20
30.631840796
 30
0.0
 11
259.0597004325
 21
30.631840796
 31
0.0
  0
ARC
  5
DE
330
1F
100
AcDbEntity
  8
0
  6
HIDDEN
 62
     7
370
    18
100
AcDbCircle
 10
247.8022558859
 20
9.9850746269
 30
0.0
 40
1.990049751243783
100
AcDbArc
 50
90.0
 51
180.0
  0
ARC
  5
DF
330
1F
100
AcDbEntity
  8
0
  6
HIDDEN
 62
     7
370
    18
100
AcDbCircle
 10
240.3395693187
 20
9.9850746269
 30
0.0
 40
1.990049751243788
100
AcDbArc
 50
0.0
 51
90.0
  0
ARC
  5
E0
330
1F
100
AcDbEntity
  8
0
  6
HIDDEN
 62
     7
370
    18
100
AcDbCircle
 10
210.7475295177
 20
9.9850746269
 30
0.0
 40
1.990049751243783
100
AcDbArc
 50
90.0
 51
180.0
  0
ARC
  5
E1
330
1F
100
AcDbEntity
  8
0
  6
HIDDEN
 62
     7
370
    18
100
AcDbCircle
 10
203.2848429506
 20
9.9850746269
 30
0.0
 40
1.990049751243788
100
AcDbArc
 50
0.0
 51
90.0
  0
LINE
  5
E2
330
1F
100
AcDbEntity
  8
0
  6
HIDDEN
 62
     7
370
    18
100
AcDbLine
 10
245.8122061347
 20
7.0
 30
0.0
 11
245.8122061347
 21
9.9850746269
 31
0.0
  0
LINE
  5
E3
330
1F
100
AcDbEntity
  8
0
  6
HIDDEN
 62
     7
370
    18
100
AcDbLine
 10
242.32961907
 20
9.9850746269
 30
0.0
 11
242.32961907
 21
7.0
 31
0.0
  0
LINE
  5
E4
330
1F
100
AcDbEntity
  8
0
  6
HIDDEN
 62
     7
370
    18
100
AcDbLine
 10
208.7574797665
 20
7.0
 30
0.0
 11
208.7574797665
 21
9.9850746269
 31
0.0
  0
LINE
  5
E5
330
1F
100
AcDbEntity
  8
0
  6
HIDDEN
 62
     7
370
    18
100
AcDbLine
 10
205.2748927018
 20
9.9850746269
 30
0.0
 11
205.2748927018
 21
7.0
 31
0.0
  0
ENDSEC
  0
SECTION
  2
OBJECTS
  0
DICTIONARY
  5
C
330
0
100
AcDbDictionary
281
     1
  3
ACAD_GROUP
350
D
  3
ACAD_LAYOUT
350
1A
  3
ACAD_MLINESTYLE
350
17
  3
ACAD_PLOTSETTINGS
350
19
  3
ACAD_PLOTSTYLENAME
350
E
  3
ACAD_SCALELIST
350
47
  3
DWGPROPS
350
E6
  0
DICTIONARY
  5
D
102
{ACAD_REACTORS
330
C
102
}
330
C
100
AcDbDictionary
281
     1
  0
DICTIONARY
  5
1A
102
{ACAD_REACTORS
330
C
102
}
330
C
100
AcDbDictionary
281
     1
  3
Layout1
350
1E
  3
Layout2
350
26
  3
Model
350
22
  0
DICTIONARY
  5
17
102
{ACAD_REACTORS
330
C
102
}
330
C
100
AcDbDictionary
281
     1
  3
Standard
350
18
  0
DICTIONARY
  5
19
102
{ACAD_REACTORS
330
C
102
}
330
C
100
AcDbDictionary
281
     1
  0
ACDBDICTIONARYWDFLT
  5
E
102
{ACAD_REACTORS
330
C
102
}
330
C
100
AcDbDictionary
281
     1
  3
Normal
350
F
100
AcDbDictionaryWithDefault
340
F
  0
DICTIONARY
  5
47
102
{ACAD_REACTORS
330
C
102
}
330
C
100
AcDbDictionary
281
     1
  3
A0
350
48
  3
A1
350
49
  3
A2
350
4A
  3
A3
350
4B
  3
A4
350
4C
  3
A5
350
4D
  3
A6
350
4E
  3
A7
350
4F
  3
A8
350
50
  3
A9
350
51
  3
B0
350
52
  3
B1
350
53
  3
B2
350
54
  3
B3
350
55
  3
B4
350
56
  3
B5
350
57
  3
B6
350
58
  0
XRECORD
  5
E6
102
{ACAD_REACTORS
330
C
102
}
330
C
100
AcDbXrecord
280
     1
  1
DWGPROPS COOKIE
  2

  3

  4

  6

  7

  8

  9

300
=
301
=
302
=
303
=
304
=
305
=
306
=
307
=
308
=
309
=
 40
0.0
 41
2461214.840224352
 42
2461214.84022463
  1

 90
        0
  0
LAYOUT
  5
1E
102
{ACAD_REACTORS
330
1A
102
}
330
1A
100
AcDbPlotSettings
  1

  2
none_device
  4

  6

 40
0.0
 41
0.0
 42
0.0
 43
0.0
 44
0.0
 45
0.0
 46
0.0
 47
0.0
 48
0.0
 49
0.0
140
0.0
141
0.0
142
1.0
143
1.0
 70
   688
 72
     1
 73
     0
 74
     5
  7

 75
    16
147
1.0
148
0.0
149
0.0
100
AcDbLayout
  1
Layout1
 70
     1
 71
     1
 10
0.0
 20
0.0
 11
420.0
 21
297.0
 12
0.0
 22
0.0
 32
0.0
 14
1.0000000000E+20
 24
1.0000000000E+20
 34
1.0000000000E+20
 15
-1.0000000000E+20
 25
-1.0000000000E+20
 35
-1.0000000000E+20
146
0.0
 13
0.0
 23
0.0
 33
0.0
 16
1.0
 26
0.0
 36
0.0
 17
0.0
 27
1.0
 37
0.0
 76
     0
330
1B
  0
LAYOUT
  5
26
102
{ACAD_REACTORS
330
1A
102
}
330
1A
100
AcDbPlotSettings
  1

  2
none_device
  4

  6

 40
0.0
 41
0.0
 42
0.0
 43
0.0
 44
0.0
 45
0.0
 46
0.0
 47
0.0
 48
0.0
 49
0.0
140
0.0
141
0.0
142
1.0
143
1.0
 70
   688
 72
     1
 73
     0
 74
     5
  7

 75
    16
147
1.0
148
0.0
149
0.0
100
AcDbLayout
  1
Layout2
 70
     1
 71
     2
 10
0.0
 20
0.0
 11
0.0
 21
0.0
 12
0.0
 22
0.0
 32
0.0
 14
0.0
 24
0.0
 34
0.0
 15
0.0
 25
0.0
 35
0.0
146
0.0
 13
0.0
 23
0.0
 33
0.0
 16
1.0
 26
0.0
 36
0.0
 17
0.0
 27
1.0
 37
0.0
 76
     0
330
23
  0
LAYOUT
  5
22
102
{ACAD_REACTORS
330
1A
102
}
330
1A
100
AcDbPlotSettings
  1

  2
none_device
  4
Letter_(8.50_x_11.00_Inches)
  6

 40
6.35
 41
6.35
 42
6.35000508
 43
6.35000508
 44
215.9
 45
279.4
 46
0.0
 47
0.0
 48
0.0
 49
0.0
140
0.0
141
0.0
142
1.0
143
1.0
 70
  1712
 72
     1
 73
     0
 74
     0
  7

 75
     0
147
1.0
148
0.0
149
0.0
100
AcDbLayout
  1
Model
 70
     1
 71
     0
 10
0.0
 20
0.0
 11
297.0
 21
210.0
 12
0.0
 22
0.0
 32
0.0
 14
0.0
 24
0.0
 34
0.0
 15
297.0
 25
210.0
 35
0.0
146
0.0
 13
0.0
 23
0.0
 33
0.0
 16
1.0
 26
0.0
 36
0.0
 17
0.0
 27
1.0
 37
0.0
 76
     0
330
1F
331
29
  0
MLINESTYLE
  5
18
102
{ACAD_REACTORS
330
17
102
}
330
17
100
AcDbMlineStyle
  2
Standard
 70
     0
  3

 62
   256
 51
90.0
 52
90.0
 71
     2
 49
0.5
 62
   256
  6
BYLAYER
 49
-0.5
 62
   256
  6
BYLAYER
  0
ACDBPLACEHOLDER
  5
F
102
{ACAD_REACTORS
330
E
102
}
330
E
  0
SCALE
  5
48
102
{ACAD_REACTORS
330
47
102
}
330
47
100
AcDbScale
 70
     0
300
1:1
140
1.0
141
1.0
290
     1
  0
SCALE
  5
49
102
{ACAD_REACTORS
330
47
102
}
330
47
100
AcDbScale
 70
     0
300
1:2
140
1.0
141
2.0
290
     0
  0
SCALE
  5
4A
102
{ACAD_REACTORS
330
47
102
}
330
47
100
AcDbScale
 70
     0
300
1:4
140
1.0
141
4.0
290
     0
  0
SCALE
  5
4B
102
{ACAD_REACTORS
330
47
102
}
330
47
100
AcDbScale
 70
     0
300
1:5
140
1.0
141
5.0
290
     0
  0
SCALE
  5
4C
102
{ACAD_REACTORS
330
47
102
}
330
47
100
AcDbScale
 70
     0
300
1:8
140
1.0
141
8.0
290
     0
  0
SCALE
  5
4D
102
{ACAD_REACTORS
330
47
102
}
330
47
100
AcDbScale
 70
     0
300
1:10
140
1.0
141
10.0
290
     0
  0
SCALE
  5
4E
102
{ACAD_REACTORS
330
47
102
}
330
47
100
AcDbScale
 70
     0
300
1:16
140
1.0
141
16.0
290
     0
  0
SCALE
  5
4F
102
{ACAD_REACTORS
330
47
102
}
330
47
100
AcDbScale
 70
     0
300
1:20
140
1.0
141
20.0
290
     0
  0
SCALE
  5
50
102
{ACAD_REACTORS
330
47
102
}
330
47
100
AcDbScale
 70
     0
300
1:30
140
1.0
141
30.0
290
     0
  0
SCALE
  5
51
102
{ACAD_REACTORS
330
47
102
}
330
47
100
AcDbScale
 70
     0
300
1:40
140
1.0
141
40.0
290
     0
  0
SCALE
  5
52
102
{ACAD_REACTORS
330
47
102
}
330
47
100
AcDbScale
 70
     0
300
1:50
140
1.0
141
50.0
290
     0
  0
SCALE
  5
53
102
{ACAD_REACTORS
330
47
102
}
330
47
100
AcDbScale
 70
     0
300
1:100
140
1.0
141
100.0
290
     0
  0
SCALE
  5
54
102
{ACAD_REACTORS
330
47
102
}
330
47
100
AcDbScale
 70
     0
300
2:1
140
2.0
141
1.0
290
     0
  0
SCALE
  5
55
102
{ACAD_REACTORS
330
47
102
}
330
47
100
AcDbScale
 70
     0
300
4:1
140
4.0
141
1.0
290
     0
  0
SCALE
  5
56
102
{ACAD_REACTORS
330
47
102
}
330
47
100
AcDbScale
 70
     0
300
8:1
140
8.0
141
1.0
290
     0
  0
SCALE
  5
57
102
{ACAD_REACTORS
330
47
102
}
330
47
100
AcDbScale
 70
     0
300
10:1
140
10.0
141
1.0
290
     0
  0
SCALE
  5
58
102
{ACAD_REACTORS
330
47
102
}
330
47
100
AcDbScale
 70
     0
300
100:1
140
100.0
141
1.0
290
     0
  0
ENDSEC
  0
EOF
