  0
SECTION
  2
HEADER
  9
$ACADVER
  1
AC1015
  9
$ACADMAINTVER
 70
     6
  9
$DWGCODEPAGE
  3
ANSI_936
  9
$INSBASE
 10
0.0
 20
0.0
 30
0.0
  9
$EXTMIN
 10
0.0
 20
0.0
 30
0.0
  9
$EXTMAX
 10
297.0
 20
210.0
 30
0.0
  9
$LIMMIN
 10
0.0
 20
0.0
  9
$LIMMAX
 10
297.0
 20
210.0
  9
$ORTHOMODE
 70
     0
  9
$REGENMODE
 70
     1
  9
$FILLMODE
 70
     1
  9
$QTEXTMODE
 70
     0
  9
$MIRRTEXT
 70
     1
  9
$LTSCALE
 40
1.0
  9
$ATTMODE
 70
     1
  9
$TEXTSIZE
 40
3.5
  9
$TRACEWID
 40
1.0
  9
$TEXTSTYLE
  7
Standard
  9
$CLAYER
  8
0
  9
$CELTYPE
  6
ByLayer
  9
$CECOLOR
 62
   256
  9
$CELTSCALE
 40
1.0
  9
$DISPSILH
 70
     0
  9
$DIMSCALE
 40
1.0
  9
$DIMASZ
 40
4.08
  9
$DIMEXO
 40
0.0
  9
$DIMDLI
 40
3.75
  9
$DIMRND
 40
0.0
  9
$DIMDLE
 40
0.0
  9
$DIMEXE
 40
2.0
  9
$DIMTP
 40
0.0
  9
$DIMTM
 40
0.0
  9
$DIMTXT
 40
3.5
  9
$DIMCEN
 40
2.5
  9
$DIMTSZ
 40
0.0
  9
$DIMTOL
 70
     0
  9
$DIMLIM
 70
     0
  9
$DIMTIH
 70
     1
  9
$DIMTOH
 70
     1
  9
$DIMSE1
 70
     0
  9
$DIMSE2
 70
     0
  9
$DIMTAD
 70
     1
  9
$DIMZIN
 70
     0
  9
$DIMBLK
  1

  9
$DIMASO
 70
     1
  9
$DIMSHO
 70
     1
  9
$DIMPOST
  1

  9
$DIMAPOST
  1

  9
$DIMALT
 70
     0
  9
$DIMALTD
 70
     3
  9
$DIMALTF
 40
0.0393700787
  9
$DIMLFAC
 40
2.0
  9
$DIMTOFL
 70
     1
  9
$DIMTVP
 40
0.0
  9
$DIMTIX
 70
     0
  9
$DIMSOXD
 70
     0
  9
$DIMSAH
 70
     0
  9
$DIMBLK1
  1

  9
$DIMBLK2
  1

  9
$DIMSTYLE
  2
ISO-25
  9
$DIMCLRD
 70
     0
  9
$DIMCLRE
 70
     0
  9
$DIMCLRT
 70
     0
  9
$DIMTFAC
 40
1.0
  9
$DIMGAP
 40
1.524
  9
$DIMJUST
 70
     0
  9
$DIMSD1
 70
     0
  9
$DIMSD2
 70
     0
  9
$DIMTOLJ
 70
     0
  9
$DIMTZIN
 70
     0
  9
$DIMALTZ
 70
     0
  9
$DIMALTTZ
 70
     0
  9
$DIMUPT
 70
     0
  9
$DIMDEC
 70
     2
  9
$DIMTDEC
 70
     2
  9
$DIMALTU
 70
     2
  9
$DIMALTTD
 70
     3
  9
$DIMTXSTY
  7
Standard
  9
$DIMAUNIT
 70
     0
  9
$DIMADEC
 70
     2
  9
$DIMALTRND
 40
0.0
  9
$DIMAZIN
 70
     0
  9
$DIMDSEP
 70
    44
  9
$DIMATFIT
 70
     3
  9
$DIMFRAC
 70
     0
  9
$DIMLDRBLK
  1

  9
$DIMLUNIT
 70
     2
  9
$DIMLWD
 70
    -2
  9
$DIMLWE
 70
    -2
  9
$DIMTMOVE
 70
     0
  9
$LUNITS
 70
     2
  9
$LUPREC
 70
     2
  9
$SKETCHINC
 40
1.0
  9
$FILLETRAD
 40
0.0
  9
$AUNITS
 70
     0
  9
$AUPREC
 70
     2
  9
$MENU
  1
.
  9
$ELEVATION
 40
0.0
  9
$PELEVATION
 40
0.0
  9
$THICKNESS
 40
0.0
  9
$LIMCHECK
 70
     0
  9
$CHAMFERA
 40
0.0
  9
$CHAMFERB
 40
0.0
  9
$CHAMFERC
 40
0.0
  9
$CHAMFERD
 40
0.0
  9
$SKPOLY
 70
     0
  9
$TDCREATE
 40
2461215.193721713
  9
$TDUCREATE
 40
2461214.86038838
  9
$TDUPDATE
 40
2461215.19372198
  9
$TDUUPDATE
 40
2461214.860388646
  9
$TDINDWG
 40
0.0000000116
  9
$TDUSRTIMER
 40
0.0000000116
  9
$USRTIMER
 70
     1
  9
$ANGBASE
 50
0.0
  9
$ANGDIR
 70
     0
  9
$PDMODE
 70
     0
  9
$PDSIZE
 40
-1.0
  9
$PLINEWID
 40
0.0
  9
$SPLFRAME
 70
     0
  9
$SPLINETYPE
 70
     6
  9
$SPLINESEGS
 70
     8
  9
$HANDSEED
  5
11B
  9
$SURFTAB1
 70
     6
  9
$SURFTAB2
 70
     6
  9
$SURFTYPE
 70
     6
  9
$SURFU
 70
     6
  9
$SURFV
 70
     6
  9
$UCSBASE
  2

  9
$UCSNAME
  2

  9
$UCSORG
 10
0.0
 20
0.0
 30
0.0
  9
$UCSXDIR
 10
1.0
 20
0.0
 30
0.0
  9
$UCSYDIR
 10
0.0
 20
1.0
 30
0.0
  9
$UCSORTHOREF
  2

  9
$UCSORTHOVIEW
 70
     0
  9
$UCSORGTOP
 10
0.0
 20
0.0
 30
0.0
  9
$UCSORGBOTTOM
 10
0.0
 20
0.0
 30
0.0
  9
$UCSORGLEFT
 10
0.0
 20
0.0
 30
0.0
  9
$UCSORGRIGHT
 10
0.0
 20
0.0
 30
0.0
  9
$UCSORGFRONT
 10
0.0
 20
0.0
 30
0.0
  9
$UCSORGBACK
 10
0.0
 20
0.0
 30
0.0
  9
$PUCSBASE
  2

  9
$PUCSNAME
  2

  9
$PUCSORG
 10
0.0
 20
0.0
 30
0.0
  9
$PUCSXDIR
 10
1.0
 20
0.0
 30
0.0
  9
$PUCSYDIR
 10
0.0
 20
1.0
 30
0.0
  9
$PUCSORTHOREF
  2

  9
$PUCSORTHOVIEW
 70
     0
  9
$PUCSORGTOP
 10
0.0
 20
0.0
 30
0.0
  9
$PUCSORGBOTTOM
 10
0.0
 20
0.0
 30
0.0
  9
$PUCSORGLEFT
 10
0.0
 20
0.0
 30
0.0
  9
$PUCSORGRIGHT
 10
0.0
 20
0.0
 30
0.0
  9
$PUCSORGFRONT
 10
0.0
 20
0.0
 30
0.0
  9
$PUCSORGBACK
 10
0.0
 20
0.0
 30
0.0
  9
$USERI1
 70
     0
  9
$USERI2
 70
     0
  9
$USERI3
 70
     0
  9
$USERI4
 70
     0
  9
$USERI5
 70
     0
  9
$USERR1
 40
0.0
  9
$USERR2
 40
0.0
  9
$USERR3
 40
0.0
  9
$USERR4
 40
0.0
  9
$USERR5
 40
0.0
  9
$WORLDVIEW
 70
     1
  9
$SHADEDGE
 70
     3
  9
$SHADEDIF
 70
    70
  9
$TILEMODE
 70
     1
  9
$MAXACTVP
 70
    64
  9
$PINSBASE
 10
0.0
 20
0.0
 30
0.0
  9
$PLIMCHECK
 70
     0
  9
$PEXTMIN
 10
1.0000000000E+20
 20
1.0000000000E+20
 30
1.0000000000E+20
  9
$PEXTMAX
 10
-1.0000000000E+20
 20
-1.0000000000E+20
 30
-1.0000000000E+20
  9
$PLIMMIN
 10
0.0
 20
0.0
  9
$PLIMMAX
 10
420.0
 20
297.0
  9
$UNITMODE
 70
     0
  9
$VISRETAIN
 70
     1
  9
$PLINEGEN
 70
     0
  9
$PSLTSCALE
 70
     1
  9
$TREEDEPTH
 70
  3020
  9
$CMLSTYLE
  2
Standard
  9
$CMLJUST
 70
     0
  9
$CMLSCALE
 40
20.0
  9
$PROXYGRAPHICS
 70
     1
  9
$MEASUREMENT
 70
     1
  9
$CELWEIGHT
370
    -1
  9
$ENDCAPS
280
     0
  9
$JOINSTYLE
280
     0
  9
$LWDISPLAY
290
     1
  9
$INSUNITS
 70
     4
  9
$HYPERLINKBASE
  1

  9
$STYLESHEET
  1

  9
$XEDIT
290
     1
  9
$CEPSNTYPE
380
     0
  9
$PSTYLEMODE
290
     1
  9
$FINGERPRINTGUID
  2
{ec11451e-720b-4a5d-a647-2b102ce52ecf}
  9
$VERSIONGUID
  2
{FAEB1C32-E019-11D5-929B-00C0DF256EC4}
  9
$EXTNAMES
290
     1
  9
$PSVPSCALE
 40
0.0
  9
$OLESTARTUP
290
     0
  0
ENDSEC
  0
SECTION
  2
CLASSES
  0
CLASS
  1
ACDBDICTIONARYWDFLT
  2
AcDbDictionaryWithDefault
  3
ObjectDBX Classes
 90
        0
280
     0
281
     0
  0
CLASS
  1
VISUALSTYLE
  2
AcDbVisualStyle
  3
ObjectDBX Classes
 90
     4095
280
     0
281
     0
  0
CLASS
  1
MATERIAL
  2
AcDbMaterial
  3
ObjectDBX Classes
 90
     1153
280
     0
281
     0
  0
CLASS
  1
SCALE
  2
AcDbScale
  3
ObjectDBX Classes
 90
     1153
280
     0
281
     0
  0
CLASS
  1
TABLESTYLE
  2
AcDbTableStyle
  3
ObjectDBX Classes
 90
     4095
280
     0
281
     0
  0
CLASS
  1
MLEADERSTYLE
  2
AcDbMLeaderStyle
  3
ACDB_MLEADERSTYLE_CLASS
 90
     4095
280
     0
281
     0
  0
CLASS
  1
SUN
  2
AcDbSun
  3
SCENEOE
 90
     1153
280
     0
281
     0
  0
CLASS
  1
ACDBPLACEHOLDER
  2
AcDbPlaceHolder
  3
ObjectDBX Classes
 90
        0
280
     0
281
     0
  0
CLASS
  1
LAYOUT
  2
AcDbLayout
  3
ObjectDBX Classes
 90
        0
280
     0
281
     0
  0
ENDSEC
  0
SECTION
  2
TABLES
  0
TABLE
  2
VPORT
  5
8
330
0
100
AcDbSymbolTable
 70
     1
  0
VPORT
  5
29
330
8
100
AcDbSymbolTableRecord
100
AcDbViewportTableRecord
  2
*Active
 70
     0
 10
0.0
 20
0.0
 11
1.0
 21
1.0
 12
148.5
 22
105.0
 13
0.0
 23
0.0
 14
10.0
 24
10.0
 15
10.0
 25
10.0
 16
0.0
 26
0.0
 36
1.0
 17
0.0
 27
0.0
 37
0.0
 40
210.0
 41
1.4142857143
 42
50.0
 43
0.0
 44
0.0
 50
0.0
 51
0.0
 71
     0
 72
  2000
 73
     1
 74
     3
 75
     0
 76
     0
 77
     0
 78
     0
281
     0
 65
     1
110
0.0
120
0.0
130
0.0
111
1.0
121
0.0
131
0.0
112
0.0
122
1.0
132
0.0
 79
     0
146
0.0
  0
ENDTAB
  0
TABLE
  2
LTYPE
  5
5
330
0
100
AcDbSymbolTable
 70
     6
  0
LTYPE
  5
14
330
5
100
AcDbSymbolTableRecord
100
AcDbLinetypeTableRecord
  2
ByBlock
 70
     0
  3

 72
    65
 73
     0
 40
0.0
  0
LTYPE
  5
15
330
5
100
AcDbSymbolTableRecord
100
AcDbLinetypeTableRecord
  2
ByLayer
 70
     0
  3

 72
    65
 73
     0
 40
0.0
  0
LTYPE
  5
16
330
5
100
AcDbSymbolTableRecord
100
AcDbLinetypeTableRecord
  2
Continuous
 70
     0
  3
Solid line
 72
    65
 73
     0
 40
0.0
  0
LTYPE
  5
5E
330
5
100
AcDbSymbolTableRecord
100
AcDbLinetypeTableRecord
  2
HIDDEN
 70
     0
  3
Hidden __ __ __ __ __ __ __ __ __ __ __ __ __ __
 72
    65
 73
     2
 40
1.905
 49
1.27
 74
     0
 49
-0.635
 74
     0
  0
LTYPE
  5
5F
330
5
100
AcDbSymbolTableRecord
100
AcDbLinetypeTableRecord
  2
PHANTOM
 70
     0
  3
Phantom ______  __  __  ______  __  __  ______
 72
    65
 73
     6
 40
12.7
 49
6.35
 74
     0
 49
-1.27
 74
     0
 49
1.27
 74
     0
 49
-1.27
 74
     0
 49
1.27
 74
     0
 49
-1.27
 74
     0
  0
LTYPE
  5
60
330
5
100
AcDbSymbolTableRecord
100
AcDbLinetypeTableRecord
  2
CENTER
 70
     0
  3
Center ____ _ ____ _ ____ _ ____ _ ____ _ ____
 72
    65
 73
     4
 40
10.16
 49
6.35
 74
     0
 49
-1.27
 74
     0
 49
1.27
 74
     0
 49
-1.27
 74
     0
  0
LTYPE
  5
61
330
5
100
AcDbSymbolTableRecord
100
AcDbLinetypeTableRecord
  2
CENTERX2
 70
     0
  3
Center (2x) ________  __  ________  __  _____
 72
    65
 73
     4
 40
20.32
 49
12.7
 74
     0
 49
-2.54
 74
     0
 49
2.54
 74
     0
 49
-2.54
 74
     0
  0
LTYPE
  5
62
330
5
100
AcDbSymbolTableRecord
100
AcDbLinetypeTableRecord
  2
DOT2
 70
     0
  3
Dot (.5x) ........................................
 72
    65
 73
     2
 40
0.635
 49
0.0
 74
     0
 49
-0.635
 74
     0
  0
ENDTAB
  0
TABLE
  2
LAYER
  5
2
330
0
100
AcDbSymbolTable
 70
    14
  0
LAYER
  5
10
330
2
100
AcDbSymbolTableRecord
100
AcDbLayerTableRecord
  2
0
 70
     0
 62
     7
  6
Continuous
370
    -3
390
F
  0
LAYER
  5
63
330
2
100
AcDbSymbolTableRecord
100
AcDbLayerTableRecord
  2
SLD-0
 70
     0
 62
     7
  6
Continuous
370
    -3
390
F
  0
LAYER
  5
64
330
2
100
AcDbSymbolTableRecord
100
AcDbLayerTableRecord
  2
5
 70
     0
 62
     7
  6
Continuous
370
    -3
390
F
  0
LAYER
  5
65
330
2
100
AcDbSymbolTableRecord
100
AcDbLayerTableRecord
  2
9
 70
     0
 62
     7
  6
Continuous
370
    -3
390
F
  0
LAYER
  5
66
330
2
100
AcDbSymbolTableRecord
100
AcDbLayerTableRecord
  2
10
 70
     0
 62
     7
  6
Continuous
370
    -3
390
F
  0
LAYER
  5
67
330
2
100
AcDbSymbolTableRecord
100
AcDbLayerTableRecord
  2
轮廓实线层
 70
     0
 62
     7
  6
Continuous
370
    50
390
F
  0
LAYER
  5
68
330
2
100
AcDbSymbolTableRecord
100
AcDbLayerTableRecord
  2
细线层
 70
     0
 62
     4
  6
Continuous
370
    25
390
F
  0
LAYER
  5
69
330
2
100
AcDbSymbolTableRecord
100
AcDbLayerTableRecord
  2
中心线层
 70
     0
 62
     1
  6
CENTERX2
370
    25
390
F
  0
LAYER
  5
6A
330
2
100
AcDbSymbolTableRecord
100
AcDbLayerTableRecord
  2
虚线层
 70
     0
 62
     6
  6
HIDDEN
370
    25
390
F
  0
LAYER
  5
6B
330
2
100
AcDbSymbolTableRecord
100
AcDbLayerTableRecord
  2
剖面线层
 70
     0
 62
     2
  6
Continuous
370
    25
390
F
  0
LAYER
  5
6C
330
2
100
AcDbSymbolTableRecord
100
AcDbLayerTableRecord
  2
文字层
 70
     0
 62
     3
  6
Continuous
370
    25
390
F
  0
LAYER
  5
6D
330
2
100
AcDbSymbolTableRecord
100
AcDbLayerTableRecord
  2
标注层
 70
     0
 62
     4
  6
Continuous
370
    25
390
F
  0
LAYER
  5
6E
330
2
100
AcDbSymbolTableRecord
100
AcDbLayerTableRecord
  2
符号标注层
 70
     0
 62
    31
  6
Continuous
370
    25
390
F
  0
LAYER
  5
6F
330
2
100
AcDbSymbolTableRecord
100
AcDbLayerTableRecord
  2
双点划线层
 70
     0
 62
     6
  6
PHANTOM
370
    25
390
F
  0
ENDTAB
  0
TABLE
  2
STYLE
  5
3
330
0
100
AcDbSymbolTable
 70
     1
  0
STYLE
  5
11
330
3
100
AcDbSymbolTableRecord
100
AcDbTextStyleTableRecord
  2
Standard
 70
     0
 40
0.0
 41
1.0
 50
0.0
 71
     0
 42
3.5
  3
txt
  4

  0
ENDTAB
  0
TABLE
  2
VIEW
  5
6
330
0
100
AcDbSymbolTable
 70
     0
  0
ENDTAB
  0
TABLE
  2
UCS
  5
7
330
0
100
AcDbSymbolTable
 70
     0
  0
ENDTAB
  0
TABLE
  2
APPID
  5
9
330
0
100
AcDbSymbolTable
 70
     1
  0
APPID
  5
12
330
9
100
AcDbSymbolTableRecord
100
AcDbRegAppTableRecord
  2
ACAD
 70
     0
  0
ENDTAB
  0
TABLE
  2
DIMSTYLE
  5
A
330
0
100
AcDbSymbolTable
 70
     1
100
AcDbDimStyleTable
  0
DIMSTYLE
105
27
330
A
100
AcDbSymbolTableRecord
100
AcDbDimStyleTableRecord
  2
ISO-25
 70
     0
 41
2.5
 42
0.625
 43
3.75
 44
1.25
 73
     0
 74
     0
 77
     1
 78
     8
140
2.5
141
2.5
143
0.0393700787
147
0.625
171
     3
172
     1
178
     0
271
     2
272
     2
274
     3
278
    44
283
     0
284
     8
340
11
  0
ENDTAB
  0
TABLE
  2
BLOCK_RECORD
  5
1
330
0
100
AcDbSymbolTable
 70
     3
  0
BLOCK_RECORD
  5
1F
330
1
100
AcDbSymbolTableRecord
100
AcDbBlockTableRecord
  2
*Model_Space
340
22
  0
BLOCK_RECORD
  5
1B
330
1
100
AcDbSymbolTableRecord
100
AcDbBlockTableRecord
  2
*Paper_Space
340
1E
  0
BLOCK_RECORD
  5
23
330
1
100
AcDbSymbolTableRecord
100
AcDbBlockTableRecord
  2
*Paper_Space0
340
26
  0
BLOCK_RECORD
  5
CE
330
1
100
AcDbSymbolTableRecord
100
AcDbBlockTableRecord
  2
SW_CENTERMARKSYMBOL_0
340
0
102
{BLKREFS
331
D9
102
}
  0
BLOCK_RECORD
  5
DA
330
1
100
AcDbSymbolTableRecord
100
AcDbBlockTableRecord
  2
SW_CENTERMARKSYMBOL_1
340
0
102
{BLKREFS
331
E5
102
}
  0
ENDTAB
  0
ENDSEC
  0
SECTION
  2
BLOCKS
  0
BLOCK
  5
20
330
1F
100
AcDbEntity
  8
0
100
AcDbBlockBegin
  2
*Model_Space
 70
     0
 10
0.0
 20
0.0
 30
0.0
  3
*Model_Space
  1

  0
ENDBLK
  5
21
330
1F
100
AcDbEntity
  8
0
100
AcDbBlockEnd
  0
BLOCK
  5
1C
330
1B
100
AcDbEntity
 67
     1
  8
0
100
AcDbBlockBegin
  2
*Paper_Space
 70
     0
 10
0.0
 20
0.0
 30
0.0
  3
*Paper_Space
  1

  0
ENDBLK
  5
1D
330
1B
100
AcDbEntity
 67
     1
  8
0
100
AcDbBlockEnd
  0
BLOCK
  5
24
330
23
100
AcDbEntity
  8
0
100
AcDbBlockBegin
  2
*Paper_Space0
 70
     0
 10
0.0
 20
0.0
 30
0.0
  3
*Paper_Space0
  1

  0
ENDBLK
  5
25
330
23
100
AcDbEntity
  8
0
100
AcDbBlockEnd
  0
BLOCK
  5
CF
330
CE
100
AcDbEntity
  8
0
100
AcDbBlockBegin
  2
SW_CENTERMARKSYMBOL_0
 70
     0
 10
0.0
 20
0.0
 30
0.0
  3
SW_CENTERMARKSYMBOL_0
  1

  0
LINE
  5
D1
330
CE
100
AcDbEntity
  8
10
 62
     0
100
AcDbLine
 10
0.0
 20
0.0
 30
0.0
 11
0.0
 21
2.5
 31
0.0
  0
LINE
  5
D2
330
CE
100
AcDbEntity
  8
10
 62
     0
100
AcDbLine
 10
0.0
 20
0.0
 30
0.0
 11
-2.5
 21
0.0
 31
0.0
  0
LINE
  5
D3
330
CE
100
AcDbEntity
  8
10
 62
     0
100
AcDbLine
 10
0.0
 20
0.0
 30
0.0
 11
0.0
 21
-2.5
 31
0.0
  0
LINE
  5
D4
330
CE
100
AcDbEntity
  8
10
 62
     0
100
AcDbLine
 10
0.0
 20
0.0
 30
0.0
 11
2.5
 21
0.0
 31
0.0
  0
LINE
  5
D5
330
CE
100
AcDbEntity
  8
10
 62
     0
100
AcDbLine
 10
0.0
 20
5.0
 30
0.0
 11
0.0
 21
7.0220954635
 31
0.0
  0
LINE
  5
D6
330
CE
100
AcDbEntity
  8
10
 62
     0
100
AcDbLine
 10
-5.0
 20
0.0
 30
0.0
 11
-7.0220954635
 21
0.0
 31
0.0
  0
LINE
  5
D7
330
CE
100
AcDbEntity
  8
10
 62
     0
100
AcDbLine
 10
0.0
 20
-5.0
 30
0.0
 11
0.0
 21
-7.0220954635
 31
0.0
  0
LINE
  5
D8
330
CE
100
AcDbEntity
  8
10
 62
     0
100
AcDbLine
 10
5.0
 20
0.0
 30
0.0
 11
7.0220954635
 21
0.0
 31
0.0
  0
ENDBLK
  5
D0
330
CE
100
AcDbEntity
  8
0
100
AcDbBlockEnd
  0
BLOCK
  5
DB
330
DA
100
AcDbEntity
  8
0
100
AcDbBlockBegin
  2
SW_CENTERMARKSYMBOL_1
 70
     0
 10
0.0
 20
0.0
 30
0.0
  3
SW_CENTERMARKSYMBOL_1
  1

  0
LINE
  5
DD
330
DA
100
AcDbEntity
  8
10
 62
     0
100
AcDbLine
 10
0.0
 20
0.0
 30
0.0
 11
0.0
 21
2.5
 31
0.0
  0
LINE
  5
DE
330
DA
100
AcDbEntity
  8
10
 62
     0
100
AcDbLine
 10
0.0
 20
0.0
 30
0.0
 11
-2.5
 21
0.0
 31
0.0
  0
LINE
  5
DF
330
DA
100
AcDbEntity
  8
10
 62
     0
100
AcDbLine
 10
0.0
 20
0.0
 30
0.0
 11
0.0
 21
-2.5
 31
0.0
  0
LINE
  5
E0
330
DA
100
AcDbEntity
  8
10
 62
     0
100
AcDbLine
 10
0.0
 20
0.0
 30
0.0
 11
2.5
 21
0.0
 31
0.0
  0
LINE
  5
E1
330
DA
100
AcDbEntity
  8
10
 62
     0
100
AcDbLine
 10
0.0
 20
5.0
 30
0.0
 11
0.0
 21
7.0220954635
 31
0.0
  0
LINE
  5
E2
330
DA
100
AcDbEntity
  8
10
 62
     0
100
AcDbLine
 10
-5.0
 20
0.0
 30
0.0
 11
-7.0220954635
 21
0.0
 31
0.0
  0
LINE
  5
E3
330
DA
100
AcDbEntity
  8
10
 62
     0
100
AcDbLine
 10
0.0
 20
-5.0
 30
0.0
 11
0.0
 21
-7.0220954635
 31
0.0
  0
LINE
  5
E4
330
DA
100
AcDbEntity
  8
10
 62
     0
100
AcDbLine
 10
5.0
 20
0.0
 30
0.0
 11
7.0220954635
 21
0.0
 31
0.0
  0
ENDBLK
  5
DC
330
DA
100
AcDbEntity
  8
0
100
AcDbBlockEnd
  0
ENDSEC
  0
SECTION
  2
ENTITIES
  0
LINE
  5
70
330
1F
100
AcDbEntity
  8
0
  6
Continuous
 62
     7
370
    25
100
AcDbLine
 10
33.0
 20
47.1615207145
 30
0.0
 11
33.0
 21
40.4835425301
 31
0.0
  0
SPLINE
  5
71
330
1F
100
AcDbEntity
  8
0
  6
Continuous
 62
     7
370
    25
100
AcDbSpline
210
0.0
220
0.0
230
1.0
 70
     8
 71
     3
 72
    20
 73
    16
 74
     0
 42
0.00000001
 43
0.00000001
 40
0.0
 40
0.0
 40
0.0
 40
0.0
 40
0.1249999999999995
 40
0.1249999999999995
 40
0.2499999999999991
 40
0.2499999999999991
 40
0.3749999999999986
 40
0.3749999999999986
 40
0.4999999999999981
 40
0.4999999999999981
 40
0.6249999999999986
 40
0.6249999999999986
 40
0.7499999999999989
 40
0.7499999999999989
 40
1.0
 40
1.0
 40
1.0
 40
1.0
 10
56.62299182322694
 20
70.69471583644379
 30
0.0
 10
56.62299182322694
 20
70.87115411295582
 30
0.0
 10
56.62450147874422
 20
71.04464212146154
 30
0.0
 10
56.63041639482537
 20
71.38595935683033
 30
0.0
 10
56.63489347898196
 20
71.5555567459374
 30
0.0
 10
56.64658102846168
 20
71.87895774411693
 30
0.0
 10
56.65373289325699
 20
72.03234072652285
 30
0.0
 10
56.67062878408358
 20
72.32262438246205
 30
0.0
 10
56.68046216190333
 20
72.46005602917975
 30
0.0
 10
56.70194083768141
 20
72.70639864806455
 30
0.0
 10
56.71365997006632
 20
72.81694580087616
 30
0.0
 10
56.73910395237665
 20
73.01219745021346
 30
0.0
 10
56.75265054733759
 20
73.09517795965063
 30
0.0
 10
56.79465883478289
 20
73.29509238031599
 30
0.0
 10
56.82522050726124
 20
73.36590711021532
 30
0.0
 10
56.85597507539293
 20
73.36590711021533
 30
0.0
  0
LINE
  5
72
330
1F
100
AcDbEntity
  8
0
  6
Continuous
 62
     7
370
    25
100
AcDbLine
 10
56.8559750754
 20
73.3659071102
 30
0.0
 11
59.4950685719
 21
73.3659071102
 31
0.0
  0
SPLINE
  5
73
330
1F
100
AcDbEntity
  8
0
  6
Continuous
 62
     7
370
    25
100
AcDbSpline
210
0.0
220
0.0
230
1.0
 70
     8
 71
     3
 72
    22
 73
    18
 74
     0
 42
0.00000001
 43
0.00000001
 40
0.0
 40
0.0
 40
0.0
 40
0.0
 40
0.1249999999999996
 40
0.1249999999999996
 40
0.2499999999999991
 40
0.2499999999999991
 40
0.3749999999999987
 40
0.3749999999999987
 40
0.4999999999999982
 40
0.4999999999999982
 40
0.6249999999999987
 40
0.6249999999999987
 40
0.7499999999999991
 40
0.7499999999999991
 40
0.8749999999999996
 40
0.8749999999999996
 40
1.0
 40
1.0
 40
1.0
 40
1.0
 10
59.54223997128241
 20
70.69471583644379
 30
0.0
 10
59.54223997128241
 20
70.87110824227354
 30
0.0
 10
59.5419406087656
 20
71.04455378360821
 30
0.0
 10
59.54076636616536
 20
71.38579230931047
 30
0.0
 10
59.53987724419173
 20
71.55535049382989
 30
0.0
 10
59.53755159813783
 20
71.87871493538987
 30
0.0
 10
59.53612682181582
 20
72.03208576228343
 30
0.0
 10
59.53275245290612
 20
72.3223562656902
 30
0.0
 10
59.53078465572038
 20
72.45980265063572
 30
0.0
 10
59.52647296780428
 20
72.70618729924465
 30
0.0
 10
59.5241145337614
 20
72.81675643612543
 30
0.0
 10
59.51897570324488
 20
73.01205330685934
 30
0.0
 10
59.51623026087001
 20
73.09508212092022
 30
0.0
 10
59.5105331568541
 20
73.22841340416025
 30
0.0
 10
59.50754407484815
 20
73.27970906397712
 30
0.0
 10
59.50137389372365
 20
73.34864297223464
 30
0.0
 10
59.49820088969312
 20
73.36590711021532
 30
0.0
 10
59.49506857190806
 20
73.36590711021533
 30
0.0
  0
LINE
  5
74
330
1F
100
AcDbEntity
  8
0
  6
Continuous
 62
     7
370
    25
100
AcDbLine
 10
52.4010869583
 20
40.4835425301
 30
0.0
 11
59.5422399713
 21
40.4835425301
 31
0.0
  0
LINE
  5
75
330
1F
100
AcDbEntity
  8
0
  6
Continuous
 62
     7
370
    25
100
AcDbLine
 10
52.4010869583
 20
40.4835425301
 30
0.0
 11
52.4010869583
 21
47.1615207145
 31
0.0
  0
LINE
  5
76
330
1F
100
AcDbEntity
  8
0
  6
Continuous
 62
     7
370
    25
100
AcDbLine
 10
52.4010869583
 20
64.6845354705
 30
0.0
 11
52.4010869583
 21
47.1615207145
 31
0.0
  0
SPLINE
  5
77
330
1F
100
AcDbEntity
  8
0
  6
Continuous
 62
     7
370
    25
100
AcDbSpline
210
0.0
220
0.0
230
1.0
 70
     8
 71
     3
 72
    18
 73
    14
 74
     0
 42
0.00000001
 43
0.00000001
 40
0.0
 40
0.0
 40
0.0
 40
0.0
 40
0.1250000000000009
 40
0.1250000000000009
 40
0.2500000000000018
 40
0.2500000000000018
 40
0.3750000000000027
 40
0.3750000000000027
 40
0.5000000000000036
 40
0.5000000000000036
 40
0.7500000000000018
 40
0.7500000000000018
 40
1.0
 40
1.0
 40
1.0
 40
1.0
 10
52.40108695831295
 20
64.68453547045785
 30
0.0
 10
52.40108695831294
 20
64.81691792287623
 30
0.0
 10
52.4139313097069
 20
64.94707681932302
 30
0.0
 10
52.46425412504453
 20
65.20313257476218
 30
0.0
 10
52.50234781046356
 20
65.33036068372049
 30
0.0
 10
52.60176625724723
 20
65.57288242559325
 30
0.0
 10
52.66260377990943
 20
65.68789712960833
 30
0.0
 10
52.80636332973707
 20
65.9055643937881
 30
0.0
 10
52.89001621696177
 20
66.0085754680497
 30
0.0
 10
53.16418597714973
 20
66.28556857665076
 30
0.0
 10
53.38530420001045
 20
66.43476891252568
 30
0.0
 10
53.86289834543066
 20
66.63473109305914
 30
0.0
 10
54.12385579683284
 20
66.6879289257865
 30
0.0
 10
54.38685149969407
 20
66.6879289257865
 30
0.0
  0
LINE
  5
78
330
1F
100
AcDbEntity
  8
0
  6
Continuous
 62
     7
370
    25
100
AcDbLine
 10
56.6229918232
 20
66.6879289258
 30
0.0
 11
54.3868514997
 21
66.6879289258
 31
0.0
  0
LINE
  5
79
330
1F
100
AcDbEntity
  8
0
  6
Continuous
 62
     7
370
    25
100
AcDbLine
 10
59.5422399713
 20
70.6947158364
 30
0.0
 11
59.5422399713
 21
40.4835425301
 31
0.0
  0
LINE
  5
7A
330
1F
100
AcDbEntity
  8
0
  6
Continuous
 62
     7
370
    25
100
AcDbLine
 10
56.6229918232
 20
70.6947158364
 30
0.0
 11
56.6229918232
 21
66.6879289258
 31
0.0
  0
LINE
  5
7B
330
1F
100
AcDbEntity
  8
0
  6
Continuous
 62
     7
370
    25
100
AcDbLine
 10
59.5422399713
 20
40.4835425301
 30
0.0
 11
126.3220218156
 21
40.4835425301
 31
0.0
  0
LINE
  5
7C
330
1F
100
AcDbEntity
  8
0
  6
Continuous
 62
     7
370
    25
100
AcDbLine
 10
133.0
 20
40.4835425301
 30
0.0
 11
133.0
 21
70.6947158364
 31
0.0
  0
LINE
  5
7D
330
1F
100
AcDbEntity
  8
0
  6
Continuous
 62
     7
370
    25
100
AcDbLine
 10
126.3220218156
 20
40.4835425301
 30
0.0
 11
133.0
 21
40.4835425301
 31
0.0
  0
LINE
  5
7E
330
1F
100
AcDbEntity
  8
0
  6
Continuous
 62
     7
370
    25
100
AcDbLine
 10
126.3220218156
 20
73.3659071102
 30
0.0
 11
130.3288087262
 21
73.3659071102
 31
0.0
  0
ARC
  5
7F
330
1F
100
AcDbEntity
  8
0
  6
Continuous
 62
     7
370
    25
100
AcDbCircle
 10
130.3288087262
 20
70.6947158364
 30
0.0
 40
2.671191273771541
100
AcDbArc
 50
0.0
 51
90.0
  0
LINE
  5
80
330
1F
100
AcDbEntity
  8
0
  6
Continuous
 62
     7
370
    25
100
AcDbLine
 10
59.4950685719
 20
73.3659071102
 30
0.0
 11
126.3220218156
 21
73.3659071102
 31
0.0
  0
LINE
  5
81
330
1F
100
AcDbEntity
  8
0
  6
Continuous
 62
     7
370
    25
100
AcDbLine
 10
39.0959540357
 20
47.1615207145
 30
0.0
 11
52.4010869583
 21
47.1615207145
 31
0.0
  0
LINE
  5
82
330
1F
100
AcDbEntity
  8
0
  6
Continuous
 62
     7
370
    25
100
AcDbLine
 10
39.0959540357
 20
40.4835425301
 30
0.0
 11
52.4010869583
 21
40.4835425301
 31
0.0
  0
LINE
  5
83
330
1F
100
AcDbEntity
  8
0
  6
Continuous
 62
     7
370
    25
100
AcDbLine
 10
39.0959540357
 20
47.1615207145
 30
0.0
 11
33.0
 21
47.1615207145
 31
0.0
  0
LINE
  5
84
330
1F
100
AcDbEntity
  8
0
  6
Continuous
 62
     7
370
    25
100
AcDbLine
 10
33.0
 20
40.4835425301
 30
0.0
 11
39.0959540357
 21
40.4835425301
 31
0.0
  0
LINE
  5
85
330
1F
100
AcDbEntity
  8
0
  6
HIDDEN
 62
     7
370
    18
100
AcDbLine
 10
59.5422399713
 20
66.6879289258
 30
0.0
 11
56.6229918232
 21
66.6879289258
 31
0.0
  0
SPLINE
  5
86
330
1F
100
AcDbEntity
  8
0
  6
HIDDEN
 62
     7
370
    18
100
AcDbSpline
210
0.0
220
0.0
230
1.0
 70
     8
 71
     3
 72
    18
 73
    14
 74
     0
 42
0.00000001
 43
0.00000001
 40
0.0
 40
0.0
 40
0.0
 40
0.0
 40
0.125
 40
0.125
 40
0.25
 40
0.25
 40
0.375
 40
0.375
 40
0.5
 40
0.5
 40
0.75
 40
0.75
 40
1.0
 40
1.0
 40
1.0
 40
1.0
 10
57.30082137465641
 20
66.6879289257865
 30
0.0
 10
57.1690485628623
 20
66.6879289257865
 30
0.0
 10
57.03955816264788
 20
66.67494862410916
 30
0.0
 10
56.78494464259913
 20
66.62409894933754
 30
0.0
 10
56.65850441377041
 20
66.58561186021512
 30
0.0
 10
56.41753191670272
 20
66.48515451342499
 30
0.0
 10
56.30330481339158
 20
66.42368588314643
 30
0.0
 10
56.08720847364378
 20
66.278472348255
 30
0.0
 10
55.98495199419218
 20
66.19396552596045
 30
0.0
 10
55.71006676146747
 20
65.91706138040317
 30
0.0
 10
55.56211521512398
 20
65.69382916811789
 30
0.0
 10
55.36388856683688
 20
65.21213146769038
 30
0.0
 10
55.31120770189575
 20
64.94917684978594
 30
0.0
 10
55.31120770189575
 20
64.68453547045785
 30
0.0
  0
LINE
  5
87
330
1F
100
AcDbEntity
  8
0
  6
HIDDEN
 62
     7
370
    18
100
AcDbLine
 10
55.3112077019
 20
47.1615207145
 30
0.0
 11
52.4010869583
 21
47.1615207145
 31
0.0
  0
LINE
  5
88
330
1F
100
AcDbEntity
  8
0
  6
HIDDEN
 62
     7
370
    18
100
AcDbLine
 10
62.9427235131
 20
51.2812548467
 30
0.0
 11
64.5507236096
 21
73.3659071102
 31
0.0
  0
SPLINE
  5
89
330
1F
100
AcDbEntity
  8
0
  6
HIDDEN
 62
     7
370
    18
100
AcDbSpline
210
0.0
220
0.0
230
1.0
 70
    24
 71
     3
 72
    14
 73
    10
 74
     0
 42
0.00000001
 43
0.00000001
 40
0.0
 40
0.0
 40
0.0
 40
0.0
 40
0.25
 40
0.25
 40
0.5
 40
0.5
 40
0.75
 40
0.75
 40
1.0
 40
1.0
 40
1.0
 40
1.0
 10
62.94272351307858
 20
45.92862491514799
 30
0.0
 10
62.94272351307858
 20
46.75327182132253
 30
0.0
 10
62.9427235130786
 20
47.51402336776012
 30
0.0
 10
62.9427235130786
 20
48.85104114759638
 30
0.0
 10
62.9427235130786
 20
49.42693608791754
 30
0.0
 10
62.9427235130786
 20
50.35409546733381
 30
0.0
 10
62.9427235130786
 20
50.70518442693575
 30
0.0
 10
62.9427235130786
 20
51.1687202467705
 30
0.0
 10
62.94272351307858
 20
51.28125484674989
 30
0.0
 10
62.94272351307858
 20
51.28125484674989
 30
0.0
  0
SPLINE
  5
8A
330
1F
100
AcDbEntity
  8
0
  6
HIDDEN
 62
     7
370
    18
100
AcDbSpline
210
0.0
220
0.0
230
1.0
 70
     8
 71
     3
 72
    14
 73
    10
 74
     0
 42
0.00000001
 43
0.00000001
 40
0.0
 40
0.0
 40
0.0
 40
0.0
 40
0.25
 40
0.25
 40
0.5
 40
0.5
 40
0.75
 40
0.75
 40
1.0
 40
1.0
 40
1.0
 40
1.0
 10
64.27479289744505
 20
51.28125484674989
 30
0.0
 10
64.18965544652701
 20
51.2812548467499
 30
0.0
 10
64.09472716534859
 20
51.16872024677052
 30
0.0
 10
63.88919120209651
 20
50.70518442693578
 30
0.0
 10
63.77860907593382
 20
50.35409546733383
 30
0.0
 10
63.54787378514581
 20
49.42693608791756
 30
0.0
 10
63.42776429080283
 20
48.85104114759639
 30
0.0
 10
63.185209809604
 20
47.51402336776013
 30
0.0
 10
63.06280983265545
 20
46.75327182132254
 30
0.0
 10
62.94272351307858
 20
45.92862491514799
 30
0.0
  0
LINE
  5
8B
330
1F
100
AcDbEntity
  8
0
  6
HIDDEN
 62
     7
370
    18
100
AcDbLine
 10
128.2674470738
 20
51.2812548467
 30
0.0
 11
64.2747928974
 21
51.2812548467
 31
0.0
  0
LINE
  5
8C
330
1F
100
AcDbEntity
  8
0
  6
HIDDEN
 62
     7
370
    18
100
AcDbLine
 10
62.9427235131
 20
40.4835425301
 30
0.0
 11
62.9427235131
 21
45.9286249151
 31
0.0
  0
LINE
  5
8D
330
1F
100
AcDbEntity
  8
0
  6
HIDDEN
 62
     7
370
    18
100
AcDbLine
 10
127.9915163617
 20
73.3659071102
 30
0.0
 11
129.5995164582
 21
51.2812548467
 31
0.0
  0
SPLINE
  5
8E
330
1F
100
AcDbEntity
  8
0
  6
HIDDEN
 62
     7
370
    18
100
AcDbSpline
210
0.0
220
0.0
230
1.0
 70
    24
 71
     3
 72
    14
 73
    10
 74
     0
 42
0.00000001
 43
0.00000001
 40
0.0
 40
0.0
 40
0.0
 40
0.0
 40
0.25
 40
0.25
 40
0.5
 40
0.5
 40
0.75
 40
0.75
 40
1.0
 40
1.0
 40
1.0
 40
1.0
 10
129.599516458204
 20
51.28125484674989
 30
0.0
 10
129.5995164582041
 20
51.28125484674989
 30
0.0
 10
129.5995164582041
 20
51.1687202467705
 30
0.0
 10
129.5995164582041
 20
50.70518442693589
 30
0.0
 10
129.5995164582041
 20
50.35409546733408
 30
0.0
 10
129.5995164582041
 20
49.42693608791836
 30
0.0
 10
129.5995164582041
 20
48.85104114759761
 30
0.0
 10
129.5995164582041
 20
47.51402336776256
 30
0.0
 10
129.5995164582041
 20
46.75327182132575
 30
0.0
 10
129.599516458204
 20
45.92862491515223
 30
0.0
  0
SPLINE
  5
8F
330
1F
100
AcDbEntity
  8
0
  6
HIDDEN
 62
     7
370
    18
100
AcDbSpline
210
0.0
220
0.0
230
1.0
 70
     8
 71
     3
 72
    14
 73
    10
 74
     0
 42
0.00000001
 43
0.00000001
 40
0.0
 40
0.0
 40
0.0
 40
0.0
 40
0.2500000000000002
 40
0.2500000000000002
 40
0.5000000000000004
 40
0.5000000000000004
 40
0.7500000000000002
 40
0.7500000000000002
 40
1.0
 40
1.0
 40
1.0
 40
1.0
 10
129.599516458204
 20
45.92862491515223
 30
0.0
 10
129.4794301386272
 20
46.75327182132575
 30
0.0
 10
129.3570301616786
 20
47.51402336776257
 30
0.0
 10
129.1144756804798
 20
48.85104114759763
 30
0.0
 10
128.9943661861368
 20
49.42693608791838
 30
0.0
 10
128.7636308953489
 20
50.3540954673341
 30
0.0
 10
128.6530487691861
 20
50.7051844269359
 30
0.0
 10
128.4475128059341
 20
51.16872024677051
 30
0.0
 10
128.3525845247557
 20
51.28125484674989
 30
0.0
 10
128.2674470738377
 20
51.28125484674989
 30
0.0
  0
LINE
  5
90
330
1F
100
AcDbEntity
  8
0
  6
HIDDEN
 62
     7
370
    18
100
AcDbLine
 10
129.5995164582
 20
40.4835425301
 30
0.0
 11
129.5995164582
 21
45.9286249152
 31
0.0
  0
LINE
  5
91
330
1F
100
AcDbEntity
  8
0
  6
HIDDEN
 62
     7
370
    18
100
AcDbLine
 10
40.3490039523
 20
42.7971727672
 30
0.0
 11
49.3931948793
 21
42.7971727672
 31
0.0
  0
LINE
  5
92
330
1F
100
AcDbEntity
  8
0
  6
HIDDEN
 62
     7
370
    18
100
AcDbLine
 10
49.3931948793
 20
42.7971727672
 30
0.0
 11
50.8424350096
 21
42.7971727672
 31
0.0
  0
SPLINE
  5
93
330
1F
100
AcDbEntity
  8
0
  6
HIDDEN
 62
     7
370
    18
100
AcDbSpline
210
0.0
220
0.0
230
1.0
 70
     8
 71
     3
 72
    14
 73
    10
 74
     0
 42
0.00000001
 43
0.00000001
 40
0.0
 40
0.0
 40
0.0
 40
0.0
 40
0.2499999999999996
 40
0.2499999999999996
 40
0.4999999999999991
 40
0.4999999999999991
 40
0.7499999999999996
 40
0.7499999999999996
 40
1.0
 40
1.0
 40
1.0
 40
1.0
 10
59.30854101671838
 20
73.36590711021533
 30
0.0
 10
59.33608270263984
 20
73.36590711021532
 30
0.0
 10
59.36579673690889
 20
73.3085332905251
 30
0.0
 10
59.42333199413844
 20
73.04818317486813
 30
0.0
 10
59.45097485256849
 20
72.84432457005441
 30
0.0
 10
59.49660741192562
 20
72.32274202989352
 30
0.0
 10
59.51444272880903
 20
72.00678271224022
 30
0.0
 10
59.53722041247668
 20
71.34915171285361
 30
0.0
 10
59.54223997128276
 20
71.00951874703215
 30
0.0
 10
59.54223997128276
 20
70.69471583644379
 30
0.0
  0
LINE
  5
94
330
1F
100
AcDbEntity
  8
0
  6
HIDDEN
 62
     7
370
    18
100
AcDbLine
 10
55.3112077019
 20
64.6845354705
 30
0.0
 11
55.3112077019
 21
47.1615207145
 31
0.0
  0
LINE
  5
95
330
1F
100
AcDbEntity
  8
0
  6
HIDDEN
 62
     7
370
    18
100
AcDbLine
 10
55.3112077019
 20
40.4835425301
 30
0.0
 11
55.3112077019
 21
47.1615207145
 31
0.0
  0
LINE
  5
96
330
1F
100
AcDbEntity
  8
0
  6
HIDDEN
 62
     7
370
    18
100
AcDbLine
 10
49.3931948793
 20
40.4835425301
 30
0.0
 11
49.3931948793
 21
42.7971727672
 31
0.0
  0
LINE
  5
97
330
1F
100
AcDbEntity
  8
0
  6
HIDDEN
 62
     7
370
    18
100
AcDbLine
 10
40.3490039523
 20
42.7971727672
 30
0.0
 11
40.3490039523
 21
40.4835425301
 31
0.0
  0
LINE
  5
98
330
1F
100
AcDbEntity
  8
0
  6
HIDDEN
 62
     7
370
    18
100
AcDbLine
 10
47.3950596745
 20
42.7971727672
 30
0.0
 11
47.3950596745
 21
47.1615207145
 31
0.0
  0
LINE
  5
99
330
1F
100
AcDbEntity
  8
0
  6
HIDDEN
 62
     7
370
    18
100
AcDbLine
 10
42.3471391571
 20
47.1615207145
 30
0.0
 11
42.3471391571
 21
42.7971727672
 31
0.0
  0
LINE
  5
9A
330
1F
100
AcDbEntity
  8
0
  6
HIDDEN
 62
     7
370
    18
100
AcDbLine
 10
50.8424350096
 20
40.4835425301
 30
0.0
 11
50.8424350096
 21
42.7971727672
 31
0.0
  0
LINE
  5
9B
330
1F
100
AcDbEntity
  8
0
  6
HIDDEN
 62
     7
370
    18
100
AcDbLine
 10
41.7982440826
 20
42.7971727672
 30
0.0
 11
41.7982440826
 21
40.4835425301
 31
0.0
  0
LINE
  5
9C
330
1F
100
AcDbEntity
  8
0
  6
HIDDEN
 62
     7
370
    18
100
AcDbLine
 10
48.8442998048
 20
42.7971727672
 30
0.0
 11
48.8442998048
 21
47.1615207145
 31
0.0
  0
LINE
  5
9D
330
1F
100
AcDbEntity
  8
0
  6
HIDDEN
 62
     7
370
    18
100
AcDbLine
 10
43.7963792874
 20
47.1615207145
 30
0.0
 11
43.7963792874
 21
42.7971727672
 31
0.0
  0
SPLINE
  5
9E
330
1F
100
AcDbEntity
  8
0
  6
Continuous
 62
     7
370
    25
100
AcDbSpline
210
0.0
220
0.0
230
1.0
 70
     8
 71
     3
 72
    22
 73
    18
 74
     0
 42
0.00000001
 43
0.00000001
 40
0.0
 40
0.0
 40
0.0
 40
0.0
 40
0.1249999999999996
 40
0.1249999999999996
 40
0.2499999999999991
 40
0.2499999999999991
 40
0.3749999999999987
 40
0.3749999999999987
 40
0.4999999999999982
 40
0.4999999999999982
 40
0.6249999999999987
 40
0.6249999999999987
 40
0.7499999999999991
 40
0.7499999999999991
 40
0.8749999999999996
 40
0.8749999999999996
 40
1.0
 40
1.0
 40
1.0
 40
1.0
 10
59.54223997128241
 20
140.5891500766401
 30
0.0
 10
59.54223997128241
 20
140.5891500766401
 30
0.0
 10
59.5419406087656
 20
140.6064506383221
 30
0.0
 10
59.54076636616536
 20
140.6742369809707
 30
0.0
 10
59.53987724419173
 20
140.7255439131064
 30
0.0
 10
59.53755159813783
 20
140.8595006236332
 30
0.0
 10
59.53612682181582
 20
140.9414741381709
 30
0.0
 10
59.53275245290612
 20
141.1351378073061
 30
0.0
 10
59.53078465572038
 20
141.2478635821201
 30
0.0
 10
59.52647296780428
 20
141.4941078483401
 30
0.0
 10
59.5241145337614
 20
141.6284661560508
 30
0.0
 10
59.51897570324488
 20
141.9201846413379
 30
0.0
 10
59.51623026087001
 20
142.0755485059792
 30
0.0
 10
59.5105331568541
 20
142.3967042627312
 30
0.0
 10
59.50754407484815
 20
142.5646087742132
 30
0.0
 10
59.50137389372365
 20
142.9097638812412
 30
0.0
 10
59.49820088969312
 20
143.0864714393139
 30
0.0
 10
59.49506857190806
 20
143.2603413504117
 30
0.0
  0
ARC
  5
9F
330
1F
100
AcDbEntity
  8
0
  6
Continuous
 62
     7
370
    25
100
AcDbCircle
 10
58.3505016751
 20
175.0026066833
 30
0.0
 40
34.43408537749764
100
AcDbArc
 50
267.1243438166
 51
271.983360747
  0
SPLINE
  5
A0
330
1F
100
AcDbEntity
  8
0
  6
Continuous
 62
     7
370
    25
100
AcDbSpline
210
0.0
220
0.0
230
1.0
 70
    24
 71
     3
 72
    20
 73
    16
 74
     0
 42
0.00000001
 43
0.00000001
 40
0.0
 40
0.0
 40
0.0
 40
0.0
 40
0.1249999999999995
 40
0.1249999999999995
 40
0.2499999999999991
 40
0.2499999999999991
 40
0.3749999999999986
 40
0.3749999999999986
 40
0.4999999999999981
 40
0.4999999999999981
 40
0.6249999999999986
 40
0.6249999999999986
 40
0.7499999999999989
 40
0.7499999999999989
 40
1.0
 40
1.0
 40
1.0
 40
1.0
 10
56.62299182322694
 20
140.6118819817673
 30
0.0
 10
56.62299182322694
 20
140.6118819817673
 30
0.0
 10
56.62450147874422
 20
140.629137423289
 30
0.0
 10
56.63041639482537
 20
140.696745223463
 30
0.0
 10
56.63489347898196
 20
140.7479185295367
 30
0.0
 10
56.64658102846168
 20
140.8815078313808
 30
0.0
 10
56.65373289325699
 20
140.9632540200535
 30
0.0
 10
56.67062878408358
 20
141.1563749359033
 30
0.0
 10
56.68046216190333
 20
141.2687709586959
 30
0.0
 10
56.70194083768141
 20
141.5142733462333
 30
0.0
 10
56.71365997006632
 20
141.6482236423359
 30
0.0
 10
56.73910395237665
 20
141.9390496909334
 30
0.0
 10
56.75265054733759
 20
142.0938879798614
 30
0.0
 10
56.79465883478289
 20
142.5740449025106
 30
0.0
 10
56.82522050726124
 20
142.9233664173979
 30
0.0
 10
56.85597507539293
 20
143.274892739692
 30
0.0
  0
SPLINE
  5
A1
330
1F
100
AcDbEntity
  8
0
  6
Continuous
 62
     7
370
    25
100
AcDbSpline
210
0.0
220
0.0
230
1.0
 70
     8
 71
     3
 72
    14
 73
    10
 74
     0
 42
0.00000001
 43
0.00000001
 40
0.0
 40
0.0
 40
0.0
 40
0.0
 40
0.25
 40
0.25
 40
0.5
 40
0.5
 40
0.75
 40
0.75
 40
1.0
 40
1.0
 40
1.0
 40
1.0
 10
126.6594469773119
 20
144.5959369872974
 30
0.0
 10
126.8168462439818
 20
144.5959369872974
 30
0.0
 10
126.9864246878224
 20
144.6245440182851
 30
0.0
 10
127.3144441468578
 20
144.7542370550516
 30
0.0
 10
127.4718776947285
 20
144.8557563207723
 30
0.0
 10
127.7316970282034
 20
145.1155756542472
 30
0.0
 10
127.8332162939241
 20
145.2730092021179
 30
0.0
 10
127.9629093306906
 20
145.6010286611534
 30
0.0
 10
127.9915163616783
 20
145.7706071049939
 30
0.0
 10
127.9915163616783
 20
145.9280063716639
 30
0.0
  0
LINE
  5
A2
330
1F
100
AcDbEntity
  8
0
  6
Continuous
 62
     7
370
    25
100
AcDbLine
 10
127.9915163617
 20
145.9280063717
 30
0.0
 11
127.9915163617
 21
168.6401847038
 31
0.0
  0
SPLINE
  5
A3
330
1F
100
AcDbEntity
  8
0
  6
Continuous
 62
     7
370
    25
100
AcDbSpline
210
0.0
220
0.0
230
1.0
 70
     8
 71
     3
 72
    14
 73
    10
 74
     0
 42
0.00000001
 43
0.00000001
 40
0.0
 40
0.0
 40
0.0
 40
0.0
 40
0.25
 40
0.25
 40
0.5
 40
0.5
 40
0.75
 40
0.75
 40
1.0
 40
1.0
 40
1.0
 40
1.0
 10
127.9915163616783
 20
168.6401847037606
 30
0.0
 10
127.9915163616783
 20
168.7905356016219
 30
0.0
 10
127.9654777479499
 20
168.9512288587066
 30
0.0
 10
127.849144477443
 20
169.2629762710096
 30
0.0
 10
127.7585452318829
 20
169.4132720359386
 30
0.0
 10
127.5255741020875
 20
169.6676224620577
 30
0.0
 10
127.3838113954154
 20
169.7710120426735
 30
0.0
 10
127.0835268462677
 20
169.9141146371117
 30
0.0
 10
126.925786697013
 20
169.9540651538605
 30
0.0
 10
126.776076460709
 20
169.9671631023509
 30
0.0
  0
SPLINE
  5
A4
330
1F
100
AcDbEntity
  8
0
  6
Continuous
 62
     7
370
    25
100
AcDbSpline
210
0.0
220
0.0
230
1.0
 70
     8
 71
     3
 72
     8
 73
     4
 74
     0
 42
0.00000001
 43
0.00000001
 40
0.0
 40
0.0
 40
0.0
 40
0.0
 40
1.0
 40
1.0
 40
1.0
 40
1.0
 10
126.776076460709
 20
169.9671631023509
 30
0.0
 10
126.7373198594967
 20
169.9705538655938
 30
0.0
 10
126.6983694313416
 20
169.972254088127
 30
0.0
 10
126.6594469773119
 20
169.972254088127
 30
0.0
  0
LINE
  5
A5
330
1F
100
AcDbEntity
  8
0
  6
Continuous
 62
     7
370
    25
100
AcDbLine
 10
126.6594469773
 20
169.9722540881
 30
0.0
 11
65.882792994
 21
169.9722540881
 31
0.0
  0
LINE
  5
A6
330
1F
100
AcDbEntity
  8
0
  6
Continuous
 62
     7
370
    25
100
AcDbLine
 10
64.5507236096
 20
145.9280063717
 30
0.0
 11
64.5507236096
 21
168.6401847038
 31
0.0
  0
SPLINE
  5
A7
330
1F
100
AcDbEntity
  8
0
  6
Continuous
 62
     7
370
    25
100
AcDbSpline
210
0.0
220
0.0
230
1.0
 70
     8
 71
     3
 72
    14
 73
    10
 74
     0
 42
0.00000001
 43
0.00000001
 40
0.0
 40
0.0
 40
0.0
 40
0.0
 40
0.25
 40
0.25
 40
0.5
 40
0.5
 40
0.75
 40
0.75
 40
1.0
 40
1.0
 40
1.0
 40
1.0
 10
64.55072360960435
 20
145.9280063716639
 30
0.0
 10
64.55072360960435
 20
145.7706071049939
 30
0.0
 10
64.57933064059198
 20
145.6010286611534
 30
0.0
 10
64.70902367735856
 20
145.2730092021179
 30
0.0
 10
64.81054294307926
 20
145.1155756542472
 30
0.0
 10
65.07036227655416
 20
144.8557563207723
 30
0.0
 10
65.22779582442487
 20
144.7542370550516
 30
0.0
 10
65.55581528346036
 20
144.624544018285
 30
0.0
 10
65.72539372730088
 20
144.5959369872974
 30
0.0
 10
65.88279299397082
 20
144.5959369872974
 30
0.0
  0
LINE
  5
A8
330
1F
100
AcDbEntity
  8
0
  6
Continuous
 62
     7
370
    25
100
AcDbLine
 10
126.6594469773
 20
144.5959369873
 30
0.0
 11
65.882792994
 21
144.5959369873
 31
0.0
  0
SPLINE
  5
A9
330
1F
100
AcDbEntity
  8
0
  6
Continuous
 62
     7
370
    25
100
AcDbSpline
210
0.0
220
0.0
230
1.0
 70
     8
 71
     3
 72
     8
 73
     4
 74
     0
 42
0.00000001
 43
0.00000001
 40
0.0
 40
0.0
 40
0.0
 40
0.0
 40
1.0
 40
1.0
 40
1.0
 40
1.0
 10
64.55581459538044
 20
168.7568141871576
 30
0.0
 10
64.55242383213759
 20
168.7180575859453
 30
0.0
 10
64.55072360960439
 20
168.6791071577902
 30
0.0
 10
64.55072360960435
 20
168.6401847037606
 30
0.0
  0
SPLINE
  5
AA
330
1F
100
AcDbEntity
  8
0
  6
Continuous
 62
     7
370
    25
100
AcDbSpline
210
0.0
220
0.0
230
1.0
 70
     8
 71
     3
 72
    14
 73
    10
 74
     0
 42
0.00000001
 43
0.00000001
 40
0.0
 40
0.0
 40
0.0
 40
0.0
 40
0.25
 40
0.25
 40
0.5
 40
0.5
 40
0.75
 40
0.75
 40
1.0
 40
1.0
 40
1.0
 40
1.0
 10
65.88279299397082
 20
169.972254088127
 30
0.0
 10
65.73244209610941
 20
169.972254088127
 30
0.0
 10
65.5717488390248
 20
169.9462154743986
 30
0.0
 10
65.26000142672176
 20
169.8298822038917
 30
0.0
 10
65.10970566179274
 20
169.7392829583316
 30
0.0
 10
64.85535523567366
 20
169.5063118285362
 30
0.0
 10
64.75196565505782
 20
169.3645491218641
 30
0.0
 10
64.60886306061967
 20
169.0642645727164
 30
0.0
 10
64.56891254387084
 20
168.9065244234617
 30
0.0
 10
64.55581459538044
 20
168.7568141871576
 30
0.0
  0
LINE
  5
AB
330
1F
100
AcDbEntity
  8
0
  6
Continuous
 62
     7
370
    25
100
AcDbLine
 10
59.3085410167
 20
171.307849725
 30
0.0
 11
56.8559750754
 21
143.2748927397
 31
0.0
  0
LINE
  5
AC
330
1F
100
AcDbEntity
  8
0
  6
Continuous
 62
     7
370
    25
100
AcDbLine
 10
59.5422399713
 20
173.9790409988
 30
0.0
 11
126.3220218156
 21
173.9790409988
 31
0.0
  0
SPLINE
  5
AD
330
1F
100
AcDbEntity
  8
0
  6
Continuous
 62
     7
370
    25
100
AcDbSpline
210
0.0
220
0.0
230
1.0
 70
    24
 71
     3
 72
    14
 73
    10
 74
     0
 42
0.00000001
 43
0.00000001
 40
0.0
 40
0.0
 40
0.0
 40
0.0
 40
0.2499999999999996
 40
0.2499999999999996
 40
0.4999999999999991
 40
0.4999999999999991
 40
0.7499999999999996
 40
0.7499999999999996
 40
1.0
 40
1.0
 40
1.0
 40
1.0
 10
59.30854101671838
 20
171.3078497250127
 30
0.0
 10
59.33608270263984
 20
171.6226526356011
 30
0.0
 10
59.36579673690889
 20
171.9622856014226
 30
0.0
 10
59.42333199413844
 20
172.6199166008092
 30
0.0
 10
59.45097485256849
 20
172.9358759184625
 30
0.0
 10
59.49660741192562
 20
173.4574584586234
 30
0.0
 10
59.51444272880903
 20
173.6613170634371
 30
0.0
 10
59.53722041247668
 20
173.9216671790941
 30
0.0
 10
59.54223997128276
 20
173.9790409987843
 30
0.0
 10
59.54223997128276
 20
173.9790409987843
 30
0.0
  0
ARC
  5
AE
330
1F
100
AcDbEntity
  8
0
  6
Continuous
 62
     7
370
    25
100
AcDbCircle
 10
126.3220218156
 20
167.3010628144
 30
0.0
 40
6.677978184428866
100
AcDbArc
 50
0.0
 51
90.0
  0
LINE
  5
AF
330
1F
100
AcDbEntity
  8
0
  6
Continuous
 62
     7
370
    25
100
AcDbLine
 10
133.0
 20
167.3010628144
 30
0.0
 11
133.0
 21
147.2671282611
 31
0.0
  0
ARC
  5
B0
330
1F
100
AcDbEntity
  8
0
  6
Continuous
 62
     7
370
    25
100
AcDbCircle
 10
126.3220218156
 20
147.2671282611
 30
0.0
 40
6.677978184428824
100
AcDbArc
 50
270.0
 51
0.0
  0
LINE
  5
B1
330
1F
100
AcDbEntity
  8
0
  6
Continuous
 62
     7
370
    25
100
AcDbLine
 10
126.3220218156
 20
140.5891500766
 30
0.0
 11
59.5422399713
 21
140.5891500766
 31
0.0
  0
LINE
  5
B2
330
1F
100
AcDbEntity
  8
0
  6
Continuous
 62
     7
370
    25
100
AcDbLine
 10
55.3112077019
 20
174.3492083574
 30
0.0
 11
52.4010869583
 21
141.0863760509
 31
0.0
  0
SPLINE
  5
B3
330
1F
100
AcDbEntity
  8
0
  6
Continuous
 62
     7
370
    25
100
AcDbSpline
210
0.0
220
0.0
230
1.0
 70
     8
 71
     3
 72
    18
 73
    14
 74
     0
 42
0.00000001
 43
0.00000001
 40
0.0
 40
0.0
 40
0.0
 40
0.0
 40
0.125
 40
0.125
 40
0.25
 40
0.25
 40
0.375
 40
0.375
 40
0.5
 40
0.5
 40
0.75
 40
0.75
 40
1.0
 40
1.0
 40
1.0
 40
1.0
 10
57.30082137465641
 20
174.1042346746189
 30
0.0
 10
57.1690485628623
 20
174.1162645090208
 30
0.0
 10
57.03955816264788
 20
174.128913222335
 30
0.0
 10
56.78494464259913
 20
174.1553076389601
 30
0.0
 10
56.65850441377041
 20
174.1692105032528
 30
0.0
 10
56.41753191670272
 20
174.1970729873
 30
0.0
 10
56.30330481339158
 20
174.2109757903796
 30
0.0
 10
56.08720847364378
 20
174.2383385276504
 30
0.0
 10
55.98495199419218
 20
174.2518626866998
 30
0.0
 10
55.71006676146747
 20
174.2893427487467
 30
0.0
 10
55.56211521512398
 20
174.3111289333387
 30
0.0
 10
55.36388856683688
 20
174.3409174809387
 30
0.0
 10
55.31120770189575
 20
174.349208357368
 30
0.0
 10
55.31120770189575
 20
174.349208357368
 30
0.0
  0
SPLINE
  5
B4
330
1F
100
AcDbEntity
  8
0
  6
Continuous
 62
     7
370
    25
100
AcDbSpline
210
0.0
220
0.0
230
1.0
 70
     8
 71
     3
 72
    18
 73
    14
 74
     0
 42
0.00000001
 43
0.00000001
 40
0.0
 40
0.0
 40
0.0
 40
0.0
 40
0.1250000000000009
 40
0.1250000000000009
 40
0.2500000000000018
 40
0.2500000000000018
 40
0.3750000000000027
 40
0.3750000000000027
 40
0.5000000000000036
 40
0.5000000000000036
 40
0.7500000000000018
 40
0.7500000000000018
 40
1.0
 40
1.0
 40
1.0
 40
1.0
 10
52.40108695831295
 20
141.0863760508664
 30
0.0
 10
52.40108695831294
 20
141.0863760508664
 30
0.0
 10
52.4139313097069
 20
141.0841158500843
 30
0.0
 10
52.46425412504453
 20
141.0753465834088
 30
0.0
 10
52.50234781046356
 20
141.0687316425675
 30
0.0
 10
52.60176625724723
 20
141.051747784002
 30
0.0
 10
52.66260377990943
 20
141.0414618084575
 30
0.0
 10
52.80636332973707
 20
141.0176971838819
 30
0.0
 10
52.89001621696177
 20
141.004108266718
 30
0.0
 10
53.16418597714973
 20
140.9608293176813
 30
0.0
 10
53.38530420001045
 20
140.9275253359299
 30
0.0
 10
53.86289834543066
 20
140.8613446803792
 30
0.0
 10
54.12385579683284
 20
140.827882164957
 30
0.0
 10
54.38685149969407
 20
140.7974065951286
 30
0.0
  0
ARC
  5
B5
330
1F
100
AcDbEntity
  8
0
  6
Continuous
 62
     7
370
    25
100
AcDbCircle
 10
60.1969351224
 20
205.8277845646
 30
0.0
 40
31.85547193904209
100
AcDbArc
 50
264.7837992876
 51
268.8223715439
  0
ARC
  5
B6
330
1F
100
AcDbEntity
  8
0
  6
Continuous
 62
     7
370
    25
100
AcDbCircle
 10
58.3505016751
 20
175.0026066833
 30
0.0
 40
34.43408537749767
100
AcDbArc
 50
263.3901264171
 51
267.1243438166
  0
LINE
  5
B7
330
1F
100
AcDbEntity
  8
0
  6
Continuous
 62
     7
370
    25
100
AcDbLine
 10
55.3112077019
 20
174.3492083574
 30
0.0
 11
42.0060747793
 21
175.5132566548
 31
0.0
  0
LINE
  5
B8
330
1F
100
AcDbEntity
  8
0
  6
Continuous
 62
     7
370
    25
100
AcDbLine
 10
39.0959540357
 20
142.2504243483
 30
0.0
 11
52.4010869583
 21
141.0863760509
 31
0.0
  0
ARC
  5
B9
330
1F
100
AcDbEntity
  8
0
  6
Continuous
 62
     7
370
    25
100
AcDbCircle
 10
39.6779781844
 20
148.9029908096
 30
0.0
 40
6.677978184428872
100
AcDbArc
 50
175.0
 51
265.0
  0
LINE
  5
BA
330
1F
100
AcDbEntity
  8
0
  6
Continuous
 62
     7
370
    25
100
AcDbLine
 10
34.7714841693
 20
169.4427143422
 30
0.0
 11
33.0254117231
 21
149.4850149583
 31
0.0
  0
CIRCLE
  5
BB
330
1F
100
AcDbEntity
  8
0
  6
Continuous
 62
     7
370
    25
100
AcDbCircle
 10
44.8710994158
 20
151.8674299314
 30
0.0
 40
2.523960258681762
  0
CIRCLE
  5
BC
330
1F
100
AcDbEntity
  8
0
  6
Continuous
 62
     7
370
    25
100
AcDbCircle
 10
46.3203395461
 20
168.43232042
 30
0.0
 40
2.523960258681762
  0
ARC
  5
BD
330
1F
100
AcDbEntity
  8
0
  6
Continuous
 62
     7
370
    25
100
AcDbCircle
 10
41.4240506306
 20
168.8606901935
 30
0.0
 40
6.677978184428842
100
AcDbArc
 50
85.0
 51
175.0
  0
LINE
  5
BE
330
1F
100
AcDbEntity
  8
0
  6
HIDDEN
 62
     7
370
    18
100
AcDbLine
 10
128.2674470738
 20
171.5802541847
 30
0.0
 11
64.2747928974
 21
171.5802541847
 31
0.0
  0
SPLINE
  5
BF
330
1F
100
AcDbEntity
  8
0
  6
HIDDEN
 62
     7
370
    18
100
AcDbSpline
210
0.0
220
0.0
230
1.0
 70
    24
 71
     3
 72
    14
 73
    10
 74
     0
 42
0.00000001
 43
0.00000001
 40
0.0
 40
0.0
 40
0.0
 40
0.0
 40
0.25
 40
0.25
 40
0.5
 40
0.5
 40
0.75
 40
0.75
 40
1.0
 40
1.0
 40
1.0
 40
1.0
 10
128.3891675430108
 20
171.5802541846527
 30
0.0
 10
128.4715312942729
 20
171.5802541846527
 30
0.0
 10
128.5610464678297
 20
171.5802541846527
 30
0.0
 10
128.7512050668207
 20
171.5802541846527
 30
0.0
 10
128.8518321665222
 20
171.5802541846527
 30
0.0
 10
129.0597813536064
 20
171.5802541846527
 30
0.0
 10
129.1670790704828
 20
171.5802541846527
 30
0.0
 10
129.3833166241565
 20
171.5802541846527
 30
0.0
 10
129.4922315085141
 20
171.5802541846527
 30
0.0
 10
129.599516458204
 20
171.5802541846527
 30
0.0
  0
SPLINE
  5
C0
330
1F
100
AcDbEntity
  8
0
  6
HIDDEN
 62
     7
370
    18
100
AcDbSpline
210
0.0
220
0.0
230
1.0
 70
    24
 71
     3
 72
     8
 73
     4
 74
     0
 42
0.00000001
 43
0.00000001
 40
0.0
 40
0.0
 40
0.0
 40
0.0
 40
1.0
 40
1.0
 40
1.0
 40
1.0
 10
128.2674470738377
 20
171.5802541846527
 30
0.0
 10
128.3063695278673
 20
171.5802541846527
 30
0.0
 10
128.3470201785556
 20
171.5802541846527
 30
0.0
 10
128.3891675430108
 20
171.5802541846527
 30
0.0
  0
SPLINE
  5
C1
330
1F
100
AcDbEntity
  8
0
  6
HIDDEN
 62
     7
370
    18
100
AcDbSpline
210
0.0
220
0.0
230
1.0
 70
    24
 71
     3
 72
    14
 73
    10
 74
     0
 42
0.00000001
 43
0.00000001
 40
0.0
 40
0.0
 40
0.0
 40
0.0
 40
0.25
 40
0.25
 40
0.5
 40
0.5
 40
0.75
 40
0.75
 40
1.0
 40
1.0
 40
1.0
 40
1.0
 10
62.94272351307858
 20
171.5802541846527
 30
0.0
 10
63.06280983265545
 20
171.5802541846527
 30
0.0
 10
63.185209809604
 20
171.5802541846527
 30
0.0
 10
63.42776429080283
 20
171.5802541846527
 30
0.0
 10
63.5478737851458
 20
171.5802541846527
 30
0.0
 10
63.77860907593382
 20
171.5802541846527
 30
0.0
 10
63.88919120209651
 20
171.5802541846527
 30
0.0
 10
64.09472716534857
 20
171.5802541846527
 30
0.0
 10
64.18965544652701
 20
171.5802541846527
 30
0.0
 10
64.27479289744505
 20
171.5802541846527
 30
0.0
  0
SPLINE
  5
C2
330
1F
100
AcDbEntity
  8
0
  6
HIDDEN
 62
     7
370
    18
100
AcDbSpline
210
0.0
220
0.0
230
1.0
 70
    24
 71
     3
 72
    14
 73
    10
 74
     0
 42
0.00000001
 43
0.00000001
 40
0.0
 40
0.0
 40
0.0
 40
0.0
 40
0.25
 40
0.25
 40
0.5
 40
0.5
 40
0.75
 40
0.75
 40
1.0
 40
1.0
 40
1.0
 40
1.0
 10
62.94272351307858
 20
142.9879368907716
 30
0.0
 10
62.94272351307858
 20
143.1080232103485
 30
0.0
 10
62.9427235130786
 20
143.230423187297
 30
0.0
 10
62.9427235130786
 20
143.4729776684959
 30
0.0
 10
62.9427235130786
 20
143.5930871628388
 30
0.0
 10
62.9427235130786
 20
143.8238224536269
 30
0.0
 10
62.9427235130786
 20
143.9344045797895
 30
0.0
 10
62.9427235130786
 20
144.1399405430416
 30
0.0
 10
62.94272351307858
 20
144.23486882422
 30
0.0
 10
62.94272351307858
 20
144.3200062751381
 30
0.0
  0
LINE
  5
C3
330
1F
100
AcDbEntity
  8
0
  6
HIDDEN
 62
     7
370
    18
100
AcDbLine
 10
62.9427235131
 20
144.3200062751
 30
0.0
 11
62.9427235131
 21
170.2481848003
 31
0.0
  0
SPLINE
  5
C4
330
1F
100
AcDbEntity
  8
0
  6
HIDDEN
 62
     7
370
    18
100
AcDbSpline
210
0.0
220
0.0
230
1.0
 70
    24
 71
     3
 72
    14
 73
    10
 74
     0
 42
0.00000001
 43
0.00000001
 40
0.0
 40
0.0
 40
0.0
 40
0.0
 40
0.2499999999999996
 40
0.2499999999999996
 40
0.4999999999999991
 40
0.4999999999999991
 40
0.7499999999999996
 40
0.7499999999999996
 40
1.0
 40
1.0
 40
1.0
 40
1.0
 10
62.94272351307858
 20
170.3699052694595
 30
0.0
 10
62.94272351307858
 20
170.4522690207216
 30
0.0
 10
62.94272351307858
 20
170.5417841942784
 30
0.0
 10
62.9427235130786
 20
170.7319427932694
 30
0.0
 10
62.94272351307858
 20
170.8325698929709
 30
0.0
 10
62.94272351307858
 20
171.040519080055
 30
0.0
 10
62.94272351307858
 20
171.1478167969315
 30
0.0
 10
62.94272351307858
 20
171.3640543506051
 30
0.0
 10
62.94272351307858
 20
171.4729692349628
 30
0.0
 10
62.94272351307858
 20
171.5802541846527
 30
0.0
  0
SPLINE
  5
C5
330
1F
100
AcDbEntity
  8
0
  6
HIDDEN
 62
     7
370
    18
100
AcDbSpline
210
0.0
220
0.0
230
1.0
 70
    24
 71
     3
 72
     8
 73
     4
 74
     0
 42
0.00000001
 43
0.00000001
 40
0.0
 40
0.0
 40
0.0
 40
0.0
 40
1.0
 40
1.0
 40
1.0
 40
1.0
 10
62.94272351307858
 20
170.2481848002863
 30
0.0
 10
62.94272351307857
 20
170.287107254316
 30
0.0
 10
62.94272351307857
 20
170.3277579050043
 30
0.0
 10
62.94272351307858
 20
170.3699052694595
 30
0.0
  0
SPLINE
  5
C6
330
1F
100
AcDbEntity
  8
0
  6
HIDDEN
 62
     7
370
    18
100
AcDbSpline
210
0.0
220
0.0
230
1.0
 70
    24
 71
     3
 72
    14
 73
    10
 74
     0
 42
0.00000001
 43
0.00000001
 40
0.0
 40
0.0
 40
0.0
 40
0.0
 40
0.25
 40
0.25
 40
0.5
 40
0.5
 40
0.75
 40
0.75
 40
1.0
 40
1.0
 40
1.0
 40
1.0
 10
129.599516458204
 20
144.3200062751381
 30
0.0
 10
129.5995164582041
 20
144.23486882422
 30
0.0
 10
129.5995164582041
 20
144.1399405430416
 30
0.0
 10
129.5995164582041
 20
143.9344045797895
 30
0.0
 10
129.5995164582041
 20
143.8238224536269
 30
0.0
 10
129.5995164582041
 20
143.5930871628389
 30
0.0
 10
129.5995164582041
 20
143.4729776684959
 30
0.0
 10
129.5995164582041
 20
143.230423187297
 30
0.0
 10
129.5995164582041
 20
143.1080232103485
 30
0.0
 10
129.599516458204
 20
142.9879368907717
 30
0.0
  0
LINE
  5
C7
330
1F
100
AcDbEntity
  8
0
  6
HIDDEN
 62
     7
370
    18
100
AcDbLine
 10
129.5995164582
 20
144.3200062751
 30
0.0
 11
129.5995164582
 21
170.2481848003
 31
0.0
  0
SPLINE
  5
C8
330
1F
100
AcDbEntity
  8
0
  6
HIDDEN
 62
     7
370
    18
100
AcDbSpline
210
0.0
220
0.0
230
1.0
 70
    24
 71
     3
 72
    14
 73
    10
 74
     0
 42
0.00000001
 43
0.00000001
 40
0.0
 40
0.0
 40
0.0
 40
0.0
 40
0.2500000000000002
 40
0.2500000000000002
 40
0.5000000000000004
 40
0.5000000000000004
 40
0.7500000000000002
 40
0.7500000000000002
 40
1.0
 40
1.0
 40
1.0
 40
1.0
 10
129.599516458204
 20
171.5802541846527
 30
0.0
 10
129.5995164582041
 20
171.4601678650759
 30
0.0
 10
129.599516458204
 20
171.3377678881274
 30
0.0
 10
129.599516458204
 20
171.0952134069285
 30
0.0
 10
129.599516458204
 20
170.9751039125856
 30
0.0
 10
129.5995164582041
 20
170.7443686217976
 30
0.0
 10
129.5995164582041
 20
170.6337864956349
 30
0.0
 10
129.5995164582041
 20
170.4282505323828
 30
0.0
 10
129.599516458204
 20
170.3333222512044
 30
0.0
 10
129.599516458204
 20
170.2481848002863
 30
0.0
  0
LINE
  5
C9
330
1F
100
AcDbEntity
  8
0
  6
HIDDEN
 62
     7
370
    18
100
AcDbLine
 10
128.2674470738
 20
142.9879368908
 30
0.0
 11
64.2747928974
 21
142.9879368908
 31
0.0
  0
SPLINE
  5
CA
330
1F
100
AcDbEntity
  8
0
  6
HIDDEN
 62
     7
370
    18
100
AcDbSpline
210
0.0
220
0.0
230
1.0
 70
    24
 71
     3
 72
    14
 73
    10
 74
     0
 42
0.00000001
 43
0.00000001
 40
0.0
 40
0.0
 40
0.0
 40
0.0
 40
0.25
 40
0.25
 40
0.5
 40
0.5
 40
0.75
 40
0.75
 40
1.0
 40
1.0
 40
1.0
 40
1.0
 10
64.27479289744505
 20
142.9879368907716
 30
0.0
 10
64.18965544652701
 20
142.9879368907717
 30
0.0
 10
64.09472716534859
 20
142.9879368907717
 30
0.0
 10
63.88919120209651
 20
142.9879368907717
 30
0.0
 10
63.77860907593382
 20
142.9879368907717
 30
0.0
 10
63.54787378514581
 20
142.9879368907717
 30
0.0
 10
63.42776429080283
 20
142.9879368907717
 30
0.0
 10
63.185209809604
 20
142.9879368907717
 30
0.0
 10
63.06280983265545
 20
142.9879368907717
 30
0.0
 10
62.94272351307858
 20
142.9879368907716
 30
0.0
  0
SPLINE
  5
CB
330
1F
100
AcDbEntity
  8
0
  6
HIDDEN
 62
     7
370
    18
100
AcDbSpline
210
0.0
220
0.0
230
1.0
 70
    24
 71
     3
 72
    14
 73
    10
 74
     0
 42
0.00000001
 43
0.00000001
 40
0.0
 40
0.0
 40
0.0
 40
0.0
 40
0.2500000000000002
 40
0.2500000000000002
 40
0.5000000000000004
 40
0.5000000000000004
 40
0.7500000000000002
 40
0.7500000000000002
 40
1.0
 40
1.0
 40
1.0
 40
1.0
 10
129.599516458204
 20
142.9879368907717
 30
0.0
 10
129.4794301386272
 20
142.9879368907717
 30
0.0
 10
129.3570301616786
 20
142.9879368907717
 30
0.0
 10
129.1144756804798
 20
142.9879368907717
 30
0.0
 10
128.9943661861368
 20
142.9879368907717
 30
0.0
 10
128.7636308953489
 20
142.9879368907717
 30
0.0
 10
128.6530487691861
 20
142.9879368907717
 30
0.0
 10
128.4475128059341
 20
142.9879368907717
 30
0.0
 10
128.3525845247557
 20
142.9879368907717
 30
0.0
 10
128.2674470738377
 20
142.9879368907717
 30
0.0
  0
CIRCLE
  5
CC
330
1F
100
AcDbEntity
  8
0
  6
HIDDEN
 62
     7
370
    18
100
AcDbCircle
 10
46.3203395461
 20
168.43232042
 30
0.0
 40
4.52209546347149
  0
CIRCLE
  5
CD
330
1F
100
AcDbEntity
  8
0
  6
HIDDEN
 62
     7
370
    18
100
AcDbCircle
 10
44.8710994158
 20
151.8674299314
 30
0.0
 40
4.52209546347149
  0
INSERT
  5
D9
330
1F
100
AcDbEntity
  8
10
100
AcDbBlockReference
  2
SW_CENTERMARKSYMBOL_0
 10
46.3203395461
 20
168.43232042
 30
0.0
  0
INSERT
  5
E5
330
1F
100
AcDbEntity
  8
10
100
AcDbBlockReference
  2
SW_CENTERMARKSYMBOL_1
 10
44.8710994158
 20
151.8674299314
 30
0.0
  0
ARC
  5
E6
330
1F
100
AcDbEntity
  8
0
  6
Continuous
 62
     7
370
    25
100
AcDbCircle
 10
208.2397125796
 20
70.6947158364
 30
0.0
 40
2.671191273771541
100
AcDbArc
 50
90.0
 51
180.0
  0
LINE
  5
E7
330
1F
100
AcDbEntity
  8
0
  6
Continuous
 62
     7
370
    25
100
AcDbLine
 10
205.5685213058
 20
70.6947158364
 30
0.0
 11
205.5685213058
 21
40.4835425301
 31
0.0
  0
LINE
  5
E8
330
1F
100
AcDbEntity
  8
0
  6
Continuous
 62
     7
370
    25
100
AcDbLine
 10
240.5386683779
 20
40.4835425301
 30
0.0
 11
240.5386683779
 21
47.1615207145
 31
0.0
  0
LINE
  5
E9
330
1F
100
AcDbEntity
  8
0
  6
Continuous
 62
     7
370
    25
100
AcDbLine
 10
232.3010628144
 20
73.3659071102
 30
0.0
 11
236.307849725
 21
73.3659071102
 31
0.0
  0
ARC
  5
EA
330
1F
100
AcDbEntity
  8
0
  6
Continuous
 62
     7
370
    25
100
AcDbCircle
 10
236.307849725
 20
70.6947158364
 30
0.0
 40
2.671191273771569
100
AcDbArc
 50
0.0
 51
90.0
  0
LINE
  5
EB
330
1F
100
AcDbEntity
  8
0
  6
Continuous
 62
     7
370
    25
100
AcDbLine
 10
238.9790409988
 20
40.4835425301
 30
0.0
 11
238.9790409988
 21
70.6947158364
 31
0.0
  0
LINE
  5
EC
330
1F
100
AcDbEntity
  8
0
  6
Continuous
 62
     7
370
    25
100
AcDbLine
 10
232.3010628144
 20
40.4835425301
 30
0.0
 11
238.9790409988
 21
40.4835425301
 31
0.0
  0
LINE
  5
ED
330
1F
100
AcDbEntity
  8
0
  6
Continuous
 62
     7
370
    25
100
AcDbLine
 10
212.2671282611
 20
40.4835425301
 30
0.0
 11
232.3010628144
 21
40.4835425301
 31
0.0
  0
LINE
  5
EE
330
1F
100
AcDbEntity
  8
0
  6
Continuous
 62
     7
370
    25
100
AcDbLine
 10
212.2671282611
 20
73.3659071102
 30
0.0
 11
232.3010628144
 21
73.3659071102
 31
0.0
  0
LINE
  5
EF
330
1F
100
AcDbEntity
  8
0
  6
Continuous
 62
     7
370
    25
100
AcDbLine
 10
205.5891500766
 20
70.6947158364
 30
0.0
 11
205.5891500766
 21
40.4835425301
 31
0.0
  0
LINE
  5
F0
330
1F
100
AcDbEntity
  8
0
  6
Continuous
 62
     7
370
    25
100
AcDbLine
 10
205.5891500766
 20
40.4835425301
 30
0.0
 11
212.2671282611
 21
40.4835425301
 31
0.0
  0
LINE
  5
F1
330
1F
100
AcDbEntity
  8
0
  6
Continuous
 62
     7
370
    25
100
AcDbLine
 10
208.2603413504
 20
73.3659071102
 30
0.0
 11
212.2671282611
 21
73.3659071102
 31
0.0
  0
ARC
  5
F2
330
1F
100
AcDbEntity
  8
0
  6
Continuous
 62
     7
370
    25
100
AcDbCircle
 10
208.2603413504
 20
70.6947158364
 30
0.0
 40
2.671191273771541
100
AcDbArc
 50
90.0
 51
180.0
  0
LINE
  5
F3
330
1F
100
AcDbEntity
  8
0
  6
Continuous
 62
     7
370
    25
100
AcDbLine
 10
208.2397125796
 20
73.3659071102
 30
0.0
 11
208.2603413504
 21
73.3659071102
 31
0.0
  0
SPLINE
  5
F4
330
1F
100
AcDbEntity
  8
0
  6
Continuous
 62
     7
370
    25
100
AcDbSpline
210
0.0
220
0.0
230
1.0
 70
     8
 71
     3
 72
    18
 73
    14
 74
     0
 42
0.00000001
 43
0.00000001
 40
0.0
 40
0.0
 40
0.0
 40
0.0
 40
0.125
 40
0.125
 40
0.25
 40
0.25
 40
0.375
 40
0.375
 40
0.5
 40
0.5
 40
0.75
 40
0.75
 40
1.0
 40
1.0
 40
1.0
 40
1.0
 10
239.1042346746189
 20
66.6879289257865
 30
0.0
 10
239.1162645090208
 20
66.6879289257865
 30
0.0
 10
239.128913222335
 20
66.67494862410916
 30
0.0
 10
239.1553076389601
 20
66.62409894933754
 30
0.0
 10
239.1692105032528
 20
66.58561186021512
 30
0.0
 10
239.1970729873
 20
66.48515451342499
 30
0.0
 10
239.2109757903796
 20
66.42368588314643
 30
0.0
 10
239.2383385276504
 20
66.278472348255
 30
0.0
 10
239.2518626866998
 20
66.19396552596045
 30
0.0
 10
239.2893427487467
 20
65.91706138040317
 30
0.0
 10
239.3111289333387
 20
65.69382916811789
 30
0.0
 10
239.3409174809387
 20
65.21213146769038
 30
0.0
 10
239.349208357368
 20
64.94917684978594
 30
0.0
 10
239.349208357368
 20
64.68453547045785
 30
0.0
  0
LINE
  5
F5
330
1F
100
AcDbEntity
  8
0
  6
Continuous
 62
     7
370
    25
100
AcDbLine
 10
239.3492083574
 20
64.6845354705
 30
0.0
 11
239.3492083574
 21
47.1615207145
 31
0.0
  0
LINE
  5
F6
330
1F
100
AcDbEntity
  8
0
  6
Continuous
 62
     7
370
    25
100
AcDbLine
 10
239.3492083574
 20
40.4835425301
 30
0.0
 11
239.3492083574
 21
47.1615207145
 31
0.0
  0
LINE
  5
F7
330
1F
100
AcDbEntity
  8
0
  6
Continuous
 62
     7
370
    25
100
AcDbLine
 10
238.9790409988
 20
66.6879289258
 30
0.0
 11
239.1042346746
 21
66.6879289258
 31
0.0
  0
LINE
  5
F8
330
1F
100
AcDbEntity
  8
0
  6
Continuous
 62
     7
370
    25
100
AcDbLine
 10
238.9790409988
 20
40.4835425301
 30
0.0
 11
239.3492083574
 21
40.4835425301
 31
0.0
  0
LINE
  5
F9
330
1F
100
AcDbEntity
  8
0
  6
Continuous
 62
     7
370
    25
100
AcDbLine
 10
205.5685213058
 20
40.4835425301
 30
0.0
 11
205.5891500766
 21
40.4835425301
 31
0.0
  0
LINE
  5
FA
330
1F
100
AcDbEntity
  8
0
  6
Continuous
 62
     7
370
    25
100
AcDbLine
 10
239.3492083574
 20
47.1615207145
 30
0.0
 11
240.5132566548
 21
47.1615207145
 31
0.0
  0
LINE
  5
FB
330
1F
100
AcDbEntity
  8
0
  6
Continuous
 62
     7
370
    25
100
AcDbLine
 10
239.3492083574
 20
40.4835425301
 30
0.0
 11
240.5132566548
 21
40.4835425301
 31
0.0
  0
LINE
  5
FC
330
1F
100
AcDbEntity
  8
0
  6
Continuous
 62
     7
370
    25
100
AcDbLine
 10
240.5386683779
 20
47.1615207145
 30
0.0
 11
240.5132566548
 21
47.1615207145
 31
0.0
  0
LINE
  5
FD
330
1F
100
AcDbEntity
  8
0
  6
Continuous
 62
     7
370
    25
100
AcDbLine
 10
240.5132566548
 20
40.4835425301
 30
0.0
 11
240.5386683779
 21
40.4835425301
 31
0.0
  0
LINE
  5
FE
330
1F
100
AcDbEntity
  8
0
  6
HIDDEN
 62
     7
370
    18
100
AcDbLine
 10
236.5802541847
 20
40.4835425301
 30
0.0
 11
236.5802541847
 21
45.9286249152
 31
0.0
  0
LINE
  5
FF
330
1F
100
AcDbEntity
  8
0
  6
HIDDEN
 62
     7
370
    18
100
AcDbLine
 10
234.9722540881
 20
73.3659071102
 30
0.0
 11
236.5802541847
 21
51.2812548467
 31
0.0
  0
SPLINE
  5
100
330
1F
100
AcDbEntity
  8
0
  6
HIDDEN
 62
     7
370
    18
100
AcDbSpline
210
0.0
220
0.0
230
1.0
 70
    24
 71
     3
 72
     8
 73
     4
 74
     0
 42
0.00000001
 43
0.00000001
 40
0.0
 40
0.0
 40
0.0
 40
0.0
 40
1.0
 40
1.0
 40
1.0
 40
1.0
 10
236.5802541846527
 20
51.28125484674989
 30
0.0
 10
236.5802541846527
 20
51.2812548467499
 30
0.0
 10
236.5802541846527
 20
51.25790358980782
 30
0.0
 10
236.5802541846527
 20
51.2113340483704
 30
0.0
  0
SPLINE
  5
101
330
1F
100
AcDbEntity
  8
0
  6
HIDDEN
 62
     7
370
    18
100
AcDbSpline
210
0.0
220
0.0
230
1.0
 70
    24
 71
     3
 72
    14
 73
    10
 74
     0
 42
0.00000001
 43
0.00000001
 40
0.0
 40
0.0
 40
0.0
 40
0.0
 40
0.25
 40
0.25
 40
0.5
 40
0.5
 40
0.75
 40
0.75
 40
1.0
 40
1.0
 40
1.0
 40
1.0
 10
236.5802541846527
 20
51.2113340483704
 30
0.0
 10
236.5802541846527
 20
51.12032854477781
 30
0.0
 10
236.5802541846527
 20
50.93862581104818
 30
0.0
 10
236.5802541846527
 20
50.38960983423257
 30
0.0
 10
236.5802541846527
 20
50.0222749095966
 30
0.0
 10
236.5802541846527
 20
49.11465640714234
 30
0.0
 10
236.5802541846527
 20
48.5744791972431
 30
0.0
 10
236.5802541846527
 20
47.34973172416601
 30
0.0
 10
236.5802541846527
 20
46.66536330593996
 30
0.0
 10
236.5802541846527
 20
45.92862491515086
 30
0.0
  0
SPLINE
  5
102
330
1F
100
AcDbEntity
  8
0
  6
HIDDEN
 62
     7
370
    18
100
AcDbSpline
210
0.0
220
0.0
230
1.0
 70
     8
 71
     3
 72
    14
 73
    10
 74
     0
 42
0.00000001
 43
0.00000001
 40
0.0
 40
0.0
 40
0.0
 40
0.0
 40
0.2500000000000002
 40
0.2500000000000002
 40
0.5000000000000004
 40
0.5000000000000004
 40
0.7500000000000002
 40
0.7500000000000002
 40
1.0
 40
1.0
 40
1.0
 40
1.0
 10
236.5802541846527
 20
45.92862491515086
 30
0.0
 10
236.4601678650759
 20
46.75327182132468
 30
0.0
 10
236.3377678881274
 20
47.51402336776172
 30
0.0
 10
236.0952134069285
 20
48.85104114759713
 30
0.0
 10
235.9751039125856
 20
49.42693608791801
 30
0.0
 10
235.7443686217976
 20
50.3540954673339
 30
0.0
 10
235.6337864956349
 20
50.70518442693576
 30
0.0
 10
235.4282505323828
 20
51.16872024677045
 30
0.0
 10
235.3333222512044
 20
51.28125484674985
 30
0.0
 10
235.2481848002863
 20
51.28125484674989
 30
0.0
  0
LINE
  5
103
330
1F
100
AcDbEntity
  8
0
  6
HIDDEN
 62
     7
370
    18
100
AcDbLine
 10
209.3200062751
 20
51.2812548467
 30
0.0
 11
235.2481848003
 21
51.2812548467
 31
0.0
  0
LINE
  5
104
330
1F
100
AcDbEntity
  8
0
  6
HIDDEN
 62
     7
370
    18
100
AcDbLine
 10
207.9879368908
 20
51.2812548467
 30
0.0
 11
209.5959369873
 21
73.3659071102
 31
0.0
  0
SPLINE
  5
105
330
1F
100
AcDbEntity
  8
0
  6
HIDDEN
 62
     7
370
    18
100
AcDbSpline
210
0.0
220
0.0
230
1.0
 70
    24
 71
     3
 72
    14
 73
    10
 74
     0
 42
0.00000001
 43
0.00000001
 40
0.0
 40
0.0
 40
0.0
 40
0.0
 40
0.2500000000000002
 40
0.2500000000000002
 40
0.5000000000000004
 40
0.5000000000000004
 40
0.7500000000000002
 40
0.7500000000000002
 40
1.0
 40
1.0
 40
1.0
 40
1.0
 10
207.9879368907717
 20
45.92862491515223
 30
0.0
 10
207.9879368907717
 20
46.75327182132575
 30
0.0
 10
207.9879368907717
 20
47.51402336776257
 30
0.0
 10
207.9879368907717
 20
48.85104114759763
 30
0.0
 10
207.9879368907717
 20
49.42693608791838
 30
0.0
 10
207.9879368907717
 20
50.3540954673341
 30
0.0
 10
207.9879368907717
 20
50.7051844269359
 30
0.0
 10
207.9879368907717
 20
51.16872024677051
 30
0.0
 10
207.9879368907717
 20
51.28125484674989
 30
0.0
 10
207.9879368907717
 20
51.28125484674989
 30
0.0
  0
SPLINE
  5
106
330
1F
100
AcDbEntity
  8
0
  6
HIDDEN
 62
     7
370
    18
100
AcDbSpline
210
0.0
220
0.0
230
1.0
 70
     8
 71
     3
 72
    14
 73
    10
 74
     0
 42
0.00000001
 43
0.00000001
 40
0.0
 40
0.0
 40
0.0
 40
0.0
 40
0.25
 40
0.25
 40
0.5
 40
0.5
 40
0.75
 40
0.75
 40
1.0
 40
1.0
 40
1.0
 40
1.0
 10
209.3200062751381
 20
51.28125484674989
 30
0.0
 10
209.23486882422
 20
51.28125484674989
 30
0.0
 10
209.1399405430416
 20
51.1687202467705
 30
0.0
 10
208.9344045797895
 20
50.70518442693589
 30
0.0
 10
208.8238224536269
 20
50.35409546733408
 30
0.0
 10
208.5930871628389
 20
49.42693608791836
 30
0.0
 10
208.4729776684959
 20
48.85104114759761
 30
0.0
 10
208.2304231872971
 20
47.51402336776256
 30
0.0
 10
208.1080232103485
 20
46.75327182132575
 30
0.0
 10
207.9879368907717
 20
45.92862491515223
 30
0.0
  0
LINE
  5
107
330
1F
100
AcDbEntity
  8
0
  6
HIDDEN
 62
     7
370
    18
100
AcDbLine
 10
207.9879368908
 20
40.4835425301
 30
0.0
 11
207.9879368908
 21
45.9286249152
 31
0.0
  0
LINE
  5
108
330
1F
100
AcDbEntity
  8
0
  6
HIDDEN
 62
     7
370
    18
100
AcDbLine
 10
238.9790409988
 20
66.6879289258
 30
0.0
 11
205.6118819818
 21
66.6879289258
 31
0.0
  0
LINE
  5
109
330
1F
100
AcDbEntity
  8
0
  6
HIDDEN
 62
     7
370
    18
100
AcDbLine
 10
206.0863760509
 20
40.4835425301
 30
0.0
 11
206.0863760509
 21
47.1615207145
 31
0.0
  0
LINE
  5
10A
330
1F
100
AcDbEntity
  8
0
  6
HIDDEN
 62
     7
370
    18
100
AcDbLine
 10
206.0863760509
 20
64.6845354705
 30
0.0
 11
206.0863760509
 21
47.1615207145
 31
0.0
  0
SPLINE
  5
10B
330
1F
100
AcDbEntity
  8
0
  6
HIDDEN
 62
     7
370
    18
100
AcDbSpline
210
0.0
220
0.0
230
1.0
 70
     8
 71
     3
 72
    18
 73
    14
 74
     0
 42
0.00000001
 43
0.00000001
 40
0.0
 40
0.0
 40
0.0
 40
0.0
 40
0.1250000000000009
 40
0.1250000000000009
 40
0.2500000000000018
 40
0.2500000000000018
 40
0.3750000000000027
 40
0.3750000000000027
 40
0.5000000000000036
 40
0.5000000000000036
 40
0.7500000000000018
 40
0.7500000000000018
 40
1.0
 40
1.0
 40
1.0
 40
1.0
 10
206.0863760508664
 20
64.68453547045785
 30
0.0
 10
206.0863760508664
 20
64.81691792287623
 30
0.0
 10
206.0841158500843
 20
64.94707681932302
 30
0.0
 10
206.0753465834088
 20
65.20313257476218
 30
0.0
 10
206.0687316425675
 20
65.33036068372049
 30
0.0
 10
206.051747784002
 20
65.57288242559325
 30
0.0
 10
206.0414618084575
 20
65.68789712960833
 30
0.0
 10
206.017697183882
 20
65.9055643937881
 30
0.0
 10
206.004108266718
 20
66.0085754680497
 30
0.0
 10
205.9608293176813
 20
66.28556857665076
 30
0.0
 10
205.9275253359299
 20
66.43476891252568
 30
0.0
 10
205.8613446803792
 20
66.63473109305914
 30
0.0
 10
205.827882164957
 20
66.6879289257865
 30
0.0
 10
205.7974065951286
 20
66.6879289257865
 30
0.0
  0
LINE
  5
10C
330
1F
100
AcDbEntity
  8
0
  6
HIDDEN
 62
     7
370
    18
100
AcDbLine
 10
205.6118819818
 20
70.6947158364
 30
0.0
 11
205.6118819818
 21
66.6879289258
 31
0.0
  0
LINE
  5
10D
330
1F
100
AcDbEntity
  8
0
  6
HIDDEN
 62
     7
370
    18
100
AcDbLine
 10
239.3492083574
 20
47.1615207145
 30
0.0
 11
206.0863760509
 21
47.1615207145
 31
0.0
  0
LINE
  5
10E
330
1F
100
AcDbEntity
  8
0
  6
HIDDEN
 62
     7
370
    18
100
AcDbLine
 10
237.937207945
 20
42.7971727672
 30
0.0
 11
237.9544158835
 21
42.7971727672
 31
0.0
  0
LINE
  5
10F
330
1F
100
AcDbEntity
  8
0
  6
HIDDEN
 62
     7
370
    18
100
AcDbLine
 10
228.9102249566
 20
42.7971727672
 30
0.0
 11
237.937207945
 21
42.7971727672
 31
0.0
  0
LINE
  5
110
330
1F
100
AcDbEntity
  8
0
  6
HIDDEN
 62
     7
370
    18
100
AcDbLine
 10
221.3723174564
 20
42.7971727672
 30
0.0
 11
221.3895253949
 21
42.7971727672
 31
0.0
  0
LINE
  5
111
330
1F
100
AcDbEntity
  8
0
  6
HIDDEN
 62
     7
370
    18
100
AcDbLine
 10
212.3453344679
 20
42.7971727672
 30
0.0
 11
221.3723174564
 21
42.7971727672
 31
0.0
  0
LINE
  5
112
330
1F
100
AcDbEntity
  8
0
  6
HIDDEN
 62
     7
370
    18
100
AcDbLine
 10
237.9544158835
 20
40.4835425301
 30
0.0
 11
237.9544158835
 21
42.7971727672
 31
0.0
  0
LINE
  5
113
330
1F
100
AcDbEntity
  8
0
  6
HIDDEN
 62
     7
370
    18
100
AcDbLine
 10
228.9102249566
 20
42.7971727672
 30
0.0
 11
228.9102249566
 21
40.4835425301
 31
0.0
  0
LINE
  5
114
330
1F
100
AcDbEntity
  8
0
  6
HIDDEN
 62
     7
370
    18
100
AcDbLine
 10
221.3895253949
 20
40.4835425301
 30
0.0
 11
221.3895253949
 21
42.7971727672
 31
0.0
  0
LINE
  5
115
330
1F
100
AcDbEntity
  8
0
  6
HIDDEN
 62
     7
370
    18
100
AcDbLine
 10
212.3453344679
 20
42.7971727672
 30
0.0
 11
212.3453344679
 21
40.4835425301
 31
0.0
  0
LINE
  5
116
330
1F
100
AcDbEntity
  8
0
  6
HIDDEN
 62
     7
370
    18
100
AcDbLine
 10
235.9562806787
 20
42.7971727672
 30
0.0
 11
235.9562806787
 21
47.1615207145
 31
0.0
  0
LINE
  5
117
330
1F
100
AcDbEntity
  8
0
  6
HIDDEN
 62
     7
370
    18
100
AcDbLine
 10
230.9083601614
 20
47.1615207145
 30
0.0
 11
230.9083601614
 21
42.7971727672
 31
0.0
  0
LINE
  5
118
330
1F
100
AcDbEntity
  8
0
  6
HIDDEN
 62
     7
370
    18
100
AcDbLine
 10
219.3913901901
 20
42.7971727672
 30
0.0
 11
219.3913901901
 21
47.1615207145
 31
0.0
  0
LINE
  5
119
330
1F
100
AcDbEntity
  8
0
  6
HIDDEN
 62
     7
370
    18
100
AcDbLine
 10
214.3434696727
 20
47.1615207145
 30
0.0
 11
214.3434696727
 21
42.7971727672
 31
0.0
  0
ENDSEC
  0
SECTION
  2
OBJECTS
  0
DICTIONARY
  5
C
330
0
100
AcDbDictionary
281
     1
  3
ACAD_GROUP
350
D
  3
ACAD_LAYOUT
350
1A
  3
ACAD_MLINESTYLE
350
17
  3
ACAD_PLOTSETTINGS
350
19
  3
ACAD_PLOTSTYLENAME
350
E
  3
ACAD_SCALELIST
350
47
  3
DWGPROPS
350
11A
  0
DICTIONARY
  5
D
102
{ACAD_REACTORS
330
C
102
}
330
C
100
AcDbDictionary
281
     1
  0
DICTIONARY
  5
1A
102
{ACAD_REACTORS
330
C
102
}
330
C
100
AcDbDictionary
281
     1
  3
Layout1
350
1E
  3
Layout2
350
26
  3
Model
350
22
  0
DICTIONARY
  5
17
102
{ACAD_REACTORS
330
C
102
}
330
C
100
AcDbDictionary
281
     1
  3
Standard
350
18
  0
DICTIONARY
  5
19
102
{ACAD_REACTORS
330
C
102
}
330
C
100
AcDbDictionary
281
     1
  0
ACDBDICTIONARYWDFLT
  5
E
102
{ACAD_REACTORS
330
C
102
}
330
C
100
AcDbDictionary
281
     1
  3
Normal
350
F
100
AcDbDictionaryWithDefault
340
F
  0
DICTIONARY
  5
47
102
{ACAD_REACTORS
330
C
102
}
330
C
100
AcDbDictionary
281
     1
  3
A0
350
48
  3
A1
350
49
  3
A2
350
4A
  3
A3
350
4B
  3
A4
350
4C
  3
A5
350
4D
  3
A6
350
4E
  3
A7
350
4F
  3
A8
350
50
  3
A9
350
51
  3
B0
350
52
  3
B1
350
53
  3
B2
350
54
  3
B3
350
55
  3
B4
350
56
  3
B5
350
57
  3
B6
350
58
  0
XRECORD
  5
11A
102
{ACAD_REACTORS
330
C
102
}
330
C
100
AcDbXrecord
280
     1
  1
DWGPROPS COOKIE
  2

  3

  4

  6

  7

  8

  9

300
=
301
=
302
=
303
=
304
=
305
=
306
=
307
=
308
=
309
=
 40
0.0
 41
2461214.86038838
 42
2461214.860388646
  1

 90
        0
  0
LAYOUT
  5
1E
102
{ACAD_REACTORS
330
1A
102
}
330
1A
100
AcDbPlotSettings
  1

  2
none_device
  4

  6

 40
0.0
 41
0.0
 42
0.0
 43
0.0
 44
0.0
 45
0.0
 46
0.0
 47
0.0
 48
0.0
 49
0.0
140
0.0
141
0.0
142
1.0
143
1.0
 70
   688
 72
     1
 73
     0
 74
     5
  7

 75
    16
147
1.0
148
0.0
149
0.0
100
AcDbLayout
  1
Layout1
 70
     1
 71
     1
 10
0.0
 20
0.0
 11
420.0
 21
297.0
 12
0.0
 22
0.0
 32
0.0
 14
1.0000000000E+20
 24
1.0000000000E+20
 34
1.0000000000E+20
 15
-1.0000000000E+20
 25
-1.0000000000E+20
 35
-1.0000000000E+20
146
0.0
 13
0.0
 23
0.0
 33
0.0
 16
1.0
 26
0.0
 36
0.0
 17
0.0
 27
1.0
 37
0.0
 76
     0
330
1B
  0
LAYOUT
  5
26
102
{ACAD_REACTORS
330
1A
102
}
330
1A
100
AcDbPlotSettings
  1

  2
none_device
  4

  6

 40
0.0
 41
0.0
 42
0.0
 43
0.0
 44
0.0
 45
0.0
 46
0.0
 47
0.0
 48
0.0
 49
0.0
140
0.0
141
0.0
142
1.0
143
1.0
 70
   688
 72
     1
 73
     0
 74
     5
  7

 75
    16
147
1.0
148
0.0
149
0.0
100
AcDbLayout
  1
Layout2
 70
     1
 71
     2
 10
0.0
 20
0.0
 11
0.0
 21
0.0
 12
0.0
 22
0.0
 32
0.0
 14
0.0
 24
0.0
 34
0.0
 15
0.0
 25
0.0
 35
0.0
146
0.0
 13
0.0
 23
0.0
 33
0.0
 16
1.0
 26
0.0
 36
0.0
 17
0.0
 27
1.0
 37
0.0
 76
     0
330
23
  0
LAYOUT
  5
22
102
{ACAD_REACTORS
330
1A
102
}
330
1A
100
AcDbPlotSettings
  1

  2
none_device
  4
Letter_(8.50_x_11.00_Inches)
  6

 40
6.35
 41
6.35
 42
6.35000508
 43
6.35000508
 44
215.9
 45
279.4
 46
0.0
 47
0.0
 48
0.0
 49
0.0
140
0.0
141
0.0
142
1.0
143
1.0
 70
  1712
 72
     1
 73
     0
 74
     0
  7

 75
     0
147
1.0
148
0.0
149
0.0
100
AcDbLayout
  1
Model
 70
     1
 71
     0
 10
0.0
 20
0.0
 11
297.0
 21
210.0
 12
0.0
 22
0.0
 32
0.0
 14
0.0
 24
0.0
 34
0.0
 15
297.0
 25
210.0
 35
0.0
146
0.0
 13
0.0
 23
0.0
 33
0.0
 16
1.0
 26
0.0
 36
0.0
 17
0.0
 27
1.0
 37
0.0
 76
     0
330
1F
331
29
  0
MLINESTYLE
  5
18
102
{ACAD_REACTORS
330
17
102
}
330
17
100
AcDbMlineStyle
  2
Standard
 70
     0
  3

 62
   256
 51
90.0
 52
90.0
 71
     2
 49
0.5
 62
   256
  6
BYLAYER
 49
-0.5
 62
   256
  6
BYLAYER
  0
ACDBPLACEHOLDER
  5
F
102
{ACAD_REACTORS
330
E
102
}
330
E
  0
SCALE
  5
48
102
{ACAD_REACTORS
330
47
102
}
330
47
100
AcDbScale
 70
     0
300
1:1
140
1.0
141
1.0
290
     1
  0
SCALE
  5
49
102
{ACAD_REACTORS
330
47
102
}
330
47
100
AcDbScale
 70
     0
300
1:2
140
1.0
141
2.0
290
     0
  0
SCALE
  5
4A
102
{ACAD_REACTORS
330
47
102
}
330
47
100
AcDbScale
 70
     0
300
1:4
140
1.0
141
4.0
290
     0
  0
SCALE
  5
4B
102
{ACAD_REACTORS
330
47
102
}
330
47
100
AcDbScale
 70
     0
300
1:5
140
1.0
141
5.0
290
     0
  0
SCALE
  5
4C
102
{ACAD_REACTORS
330
47
102
}
330
47
100
AcDbScale
 70
     0
300
1:8
140
1.0
141
8.0
290
     0
  0
SCALE
  5
4D
102
{ACAD_REACTORS
330
47
102
}
330
47
100
AcDbScale
 70
     0
300
1:10
140
1.0
141
10.0
290
     0
  0
SCALE
  5
4E
102
{ACAD_REACTORS
330
47
102
}
330
47
100
AcDbScale
 70
     0
300
1:16
140
1.0
141
16.0
290
     0
  0
SCALE
  5
4F
102
{ACAD_REACTORS
330
47
102
}
330
47
100
AcDbScale
 70
     0
300
1:20
140
1.0
141
20.0
290
     0
  0
SCALE
  5
50
102
{ACAD_REACTORS
330
47
102
}
330
47
100
AcDbScale
 70
     0
300
1:30
140
1.0
141
30.0
290
     0
  0
SCALE
  5
51
102
{ACAD_REACTORS
330
47
102
}
330
47
100
AcDbScale
 70
     0
300
1:40
140
1.0
141
40.0
290
     0
  0
SCALE
  5
52
102
{ACAD_REACTORS
330
47
102
}
330
47
100
AcDbScale
 70
     0
300
1:50
140
1.0
141
50.0
290
     0
  0
SCALE
  5
53
102
{ACAD_REACTORS
330
47
102
}
330
47
100
AcDbScale
 70
     0
300
1:100
140
1.0
141
100.0
290
     0
  0
SCALE
  5
54
102
{ACAD_REACTORS
330
47
102
}
330
47
100
AcDbScale
 70
     0
300
2:1
140
2.0
141
1.0
290
     0
  0
SCALE
  5
55
102
{ACAD_REACTORS
330
47
102
}
330
47
100
AcDbScale
 70
     0
300
4:1
140
4.0
141
1.0
290
     0
  0
SCALE
  5
56
102
{ACAD_REACTORS
330
47
102
}
330
47
100
AcDbScale
 70
     0
300
8:1
140
8.0
141
1.0
290
     0
  0
SCALE
  5
57
102
{ACAD_REACTORS
330
47
102
}
330
47
100
AcDbScale
 70
     0
300
10:1
140
10.0
141
1.0
290
     0
  0
SCALE
  5
58
102
{ACAD_REACTORS
330
47
102
}
330
47
100
AcDbScale
 70
     0
300
100:1
140
100.0
141
1.0
290
     0
  0
ENDSEC
  0
EOF
