  0
SECTION
  2
HEADER
  9
$ACADVER
  1
AC1015
  9
$ACADMAINTVER
 70
     6
  9
$DWGCODEPAGE
  3
ANSI_936
  9
$INSBASE
 10
0.0
 20
0.0
 30
0.0
  9
$EXTMIN
 10
0.0
 20
0.0
 30
0.0
  9
$EXTMAX
 10
297.0
 20
210.0
 30
0.0
  9
$LIMMIN
 10
0.0
 20
0.0
  9
$LIMMAX
 10
297.0
 20
210.0
  9
$ORTHOMODE
 70
     0
  9
$REGENMODE
 70
     1
  9
$FILLMODE
 70
     1
  9
$QTEXTMODE
 70
     0
  9
$MIRRTEXT
 70
     1
  9
$LTSCALE
 40
1.0
  9
$ATTMODE
 70
     1
  9
$TEXTSIZE
 40
3.5
  9
$TRACEWID
 40
1.0
  9
$TEXTSTYLE
  7
Standard
  9
$CLAYER
  8
0
  9
$CELTYPE
  6
ByLayer
  9
$CECOLOR
 62
   256
  9
$CELTSCALE
 40
1.0
  9
$DISPSILH
 70
     0
  9
$DIMSCALE
 40
1.0
  9
$DIMASZ
 40
4.08
  9
$DIMEXO
 40
0.0
  9
$DIMDLI
 40
3.75
  9
$DIMRND
 40
0.0
  9
$DIMDLE
 40
0.0
  9
$DIMEXE
 40
2.0
  9
$DIMTP
 40
0.0
  9
$DIMTM
 40
0.0
  9
$DIMTXT
 40
3.5
  9
$DIMCEN
 40
2.5
  9
$DIMTSZ
 40
0.0
  9
$DIMTOL
 70
     0
  9
$DIMLIM
 70
     0
  9
$DIMTIH
 70
     1
  9
$DIMTOH
 70
     1
  9
$DIMSE1
 70
     0
  9
$DIMSE2
 70
     0
  9
$DIMTAD
 70
     1
  9
$DIMZIN
 70
     0
  9
$DIMBLK
  1

  9
$DIMASO
 70
     1
  9
$DIMSHO
 70
     1
  9
$DIMPOST
  1

  9
$DIMAPOST
  1

  9
$DIMALT
 70
     0
  9
$DIMALTD
 70
     3
  9
$DIMALTF
 40
0.0393700787
  9
$DIMLFAC
 40
2.0
  9
$DIMTOFL
 70
     1
  9
$DIMTVP
 40
0.0
  9
$DIMTIX
 70
     0
  9
$DIMSOXD
 70
     0
  9
$DIMSAH
 70
     0
  9
$DIMBLK1
  1

  9
$DIMBLK2
  1

  9
$DIMSTYLE
  2
ISO-25
  9
$DIMCLRD
 70
     0
  9
$DIMCLRE
 70
     0
  9
$DIMCLRT
 70
     0
  9
$DIMTFAC
 40
1.0
  9
$DIMGAP
 40
1.524
  9
$DIMJUST
 70
     0
  9
$DIMSD1
 70
     0
  9
$DIMSD2
 70
     0
  9
$DIMTOLJ
 70
     0
  9
$DIMTZIN
 70
     0
  9
$DIMALTZ
 70
     0
  9
$DIMALTTZ
 70
     0
  9
$DIMUPT
 70
     0
  9
$DIMDEC
 70
     2
  9
$DIMTDEC
 70
     2
  9
$DIMALTU
 70
     2
  9
$DIMALTTD
 70
     3
  9
$DIMTXSTY
  7
Standard
  9
$DIMAUNIT
 70
     0
  9
$DIMADEC
 70
     2
  9
$DIMALTRND
 40
0.0
  9
$DIMAZIN
 70
     0
  9
$DIMDSEP
 70
    44
  9
$DIMATFIT
 70
     3
  9
$DIMFRAC
 70
     0
  9
$DIMLDRBLK
  1

  9
$DIMLUNIT
 70
     2
  9
$DIMLWD
 70
    -2
  9
$DIMLWE
 70
    -2
  9
$DIMTMOVE
 70
     0
  9
$LUNITS
 70
     2
  9
$LUPREC
 70
     2
  9
$SKETCHINC
 40
1.0
  9
$FILLETRAD
 40
0.0
  9
$AUNITS
 70
     0
  9
$AUPREC
 70
     2
  9
$MENU
  1
.
  9
$ELEVATION
 40
0.0
  9
$PELEVATION
 40
0.0
  9
$THICKNESS
 40
0.0
  9
$LIMCHECK
 70
     0
  9
$CHAMFERA
 40
0.0
  9
$CHAMFERB
 40
0.0
  9
$CHAMFERC
 40
0.0
  9
$CHAMFERD
 40
0.0
  9
$SKPOLY
 70
     0
  9
$TDCREATE
 40
2461215.19353831
  9
$TDUCREATE
 40
2461214.860204977
  9
$TDUPDATE
 40
2461215.193538519
  9
$TDUUPDATE
 40
2461214.860205185
  9
$TDINDWG
 40
0.0000000116
  9
$TDUSRTIMER
 40
0.0000000116
  9
$USRTIMER
 70
     1
  9
$ANGBASE
 50
0.0
  9
$ANGDIR
 70
     0
  9
$PDMODE
 70
     0
  9
$PDSIZE
 40
-1.0
  9
$PLINEWID
 40
0.0
  9
$SPLFRAME
 70
     0
  9
$SPLINETYPE
 70
     6
  9
$SPLINESEGS
 70
     8
  9
$HANDSEED
  5
C2
  9
$SURFTAB1
 70
     6
  9
$SURFTAB2
 70
     6
  9
$SURFTYPE
 70
     6
  9
$SURFU
 70
     6
  9
$SURFV
 70
     6
  9
$UCSBASE
  2

  9
$UCSNAME
  2

  9
$UCSORG
 10
0.0
 20
0.0
 30
0.0
  9
$UCSXDIR
 10
1.0
 20
0.0
 30
0.0
  9
$UCSYDIR
 10
0.0
 20
1.0
 30
0.0
  9
$UCSORTHOREF
  2

  9
$UCSORTHOVIEW
 70
     0
  9
$UCSORGTOP
 10
0.0
 20
0.0
 30
0.0
  9
$UCSORGBOTTOM
 10
0.0
 20
0.0
 30
0.0
  9
$UCSORGLEFT
 10
0.0
 20
0.0
 30
0.0
  9
$UCSORGRIGHT
 10
0.0
 20
0.0
 30
0.0
  9
$UCSORGFRONT
 10
0.0
 20
0.0
 30
0.0
  9
$UCSORGBACK
 10
0.0
 20
0.0
 30
0.0
  9
$PUCSBASE
  2

  9
$PUCSNAME
  2

  9
$PUCSORG
 10
0.0
 20
0.0
 30
0.0
  9
$PUCSXDIR
 10
1.0
 20
0.0
 30
0.0
  9
$PUCSYDIR
 10
0.0
 20
1.0
 30
0.0
  9
$PUCSORTHOREF
  2

  9
$PUCSORTHOVIEW
 70
     0
  9
$PUCSORGTOP
 10
0.0
 20
0.0
 30
0.0
  9
$PUCSORGBOTTOM
 10
0.0
 20
0.0
 30
0.0
  9
$PUCSORGLEFT
 10
0.0
 20
0.0
 30
0.0
  9
$PUCSORGRIGHT
 10
0.0
 20
0.0
 30
0.0
  9
$PUCSORGFRONT
 10
0.0
 20
0.0
 30
0.0
  9
$PUCSORGBACK
 10
0.0
 20
0.0
 30
0.0
  9
$USERI1
 70
     0
  9
$USERI2
 70
     0
  9
$USERI3
 70
     0
  9
$USERI4
 70
     0
  9
$USERI5
 70
     0
  9
$USERR1
 40
0.0
  9
$USERR2
 40
0.0
  9
$USERR3
 40
0.0
  9
$USERR4
 40
0.0
  9
$USERR5
 40
0.0
  9
$WORLDVIEW
 70
     1
  9
$SHADEDGE
 70
     3
  9
$SHADEDIF
 70
    70
  9
$TILEMODE
 70
     1
  9
$MAXACTVP
 70
    64
  9
$PINSBASE
 10
0.0
 20
0.0
 30
0.0
  9
$PLIMCHECK
 70
     0
  9
$PEXTMIN
 10
1.0000000000E+20
 20
1.0000000000E+20
 30
1.0000000000E+20
  9
$PEXTMAX
 10
-1.0000000000E+20
 20
-1.0000000000E+20
 30
-1.0000000000E+20
  9
$PLIMMIN
 10
0.0
 20
0.0
  9
$PLIMMAX
 10
420.0
 20
297.0
  9
$UNITMODE
 70
     0
  9
$VISRETAIN
 70
     1
  9
$PLINEGEN
 70
     0
  9
$PSLTSCALE
 70
     1
  9
$TREEDEPTH
 70
  3020
  9
$CMLSTYLE
  2
Standard
  9
$CMLJUST
 70
     0
  9
$CMLSCALE
 40
20.0
  9
$PROXYGRAPHICS
 70
     1
  9
$MEASUREMENT
 70
     1
  9
$CELWEIGHT
370
    -1
  9
$ENDCAPS
280
     0
  9
$JOINSTYLE
280
     0
  9
$LWDISPLAY
290
     1
  9
$INSUNITS
 70
     4
  9
$HYPERLINKBASE
  1

  9
$STYLESHEET
  1

  9
$XEDIT
290
     1
  9
$CEPSNTYPE
380
     0
  9
$PSTYLEMODE
290
     1
  9
$FINGERPRINTGUID
  2
{8f3503db-d27c-4716-8257-eb768b78807a}
  9
$VERSIONGUID
  2
{FAEB1C32-E019-11D5-929B-00C0DF256EC4}
  9
$EXTNAMES
290
     1
  9
$PSVPSCALE
 40
0.0
  9
$OLESTARTUP
290
     0
  0
ENDSEC
  0
SECTION
  2
CLASSES
  0
CLASS
  1
ACDBDICTIONARYWDFLT
  2
AcDbDictionaryWithDefault
  3
ObjectDBX Classes
 90
        0
280
     0
281
     0
  0
CLASS
  1
VISUALSTYLE
  2
AcDbVisualStyle
  3
ObjectDBX Classes
 90
     4095
280
     0
281
     0
  0
CLASS
  1
MATERIAL
  2
AcDbMaterial
  3
ObjectDBX Classes
 90
     1153
280
     0
281
     0
  0
CLASS
  1
SCALE
  2
AcDbScale
  3
ObjectDBX Classes
 90
     1153
280
     0
281
     0
  0
CLASS
  1
TABLESTYLE
  2
AcDbTableStyle
  3
ObjectDBX Classes
 90
     4095
280
     0
281
     0
  0
CLASS
  1
MLEADERSTYLE
  2
AcDbMLeaderStyle
  3
ACDB_MLEADERSTYLE_CLASS
 90
     4095
280
     0
281
     0
  0
CLASS
  1
SUN
  2
AcDbSun
  3
SCENEOE
 90
     1153
280
     0
281
     0
  0
CLASS
  1
ACDBPLACEHOLDER
  2
AcDbPlaceHolder
  3
ObjectDBX Classes
 90
        0
280
     0
281
     0
  0
CLASS
  1
LAYOUT
  2
AcDbLayout
  3
ObjectDBX Classes
 90
        0
280
     0
281
     0
  0
ENDSEC
  0
SECTION
  2
TABLES
  0
TABLE
  2
VPORT
  5
8
330
0
100
AcDbSymbolTable
 70
     1
  0
VPORT
  5
29
330
8
100
AcDbSymbolTableRecord
100
AcDbViewportTableRecord
  2
*Active
 70
     0
 10
0.0
 20
0.0
 11
1.0
 21
1.0
 12
148.5
 22
105.0
 13
0.0
 23
0.0
 14
10.0
 24
10.0
 15
10.0
 25
10.0
 16
0.0
 26
0.0
 36
1.0
 17
0.0
 27
0.0
 37
0.0
 40
210.0
 41
1.4142857143
 42
50.0
 43
0.0
 44
0.0
 50
0.0
 51
0.0
 71
     0
 72
  2000
 73
     1
 74
     3
 75
     0
 76
     0
 77
     0
 78
     0
281
     0
 65
     1
110
0.0
120
0.0
130
0.0
111
1.0
121
0.0
131
0.0
112
0.0
122
1.0
132
0.0
 79
     0
146
0.0
  0
ENDTAB
  0
TABLE
  2
LTYPE
  5
5
330
0
100
AcDbSymbolTable
 70
     6
  0
LTYPE
  5
14
330
5
100
AcDbSymbolTableRecord
100
AcDbLinetypeTableRecord
  2
ByBlock
 70
     0
  3

 72
    65
 73
     0
 40
0.0
  0
LTYPE
  5
15
330
5
100
AcDbSymbolTableRecord
100
AcDbLinetypeTableRecord
  2
ByLayer
 70
     0
  3

 72
    65
 73
     0
 40
0.0
  0
LTYPE
  5
16
330
5
100
AcDbSymbolTableRecord
100
AcDbLinetypeTableRecord
  2
Continuous
 70
     0
  3
Solid line
 72
    65
 73
     0
 40
0.0
  0
LTYPE
  5
5E
330
5
100
AcDbSymbolTableRecord
100
AcDbLinetypeTableRecord
  2
HIDDEN
 70
     0
  3
Hidden __ __ __ __ __ __ __ __ __ __ __ __ __ __
 72
    65
 73
     2
 40
1.905
 49
1.27
 74
     0
 49
-0.635
 74
     0
  0
LTYPE
  5
5F
330
5
100
AcDbSymbolTableRecord
100
AcDbLinetypeTableRecord
  2
PHANTOM
 70
     0
  3
Phantom ______  __  __  ______  __  __  ______
 72
    65
 73
     6
 40
12.7
 49
6.35
 74
     0
 49
-1.27
 74
     0
 49
1.27
 74
     0
 49
-1.27
 74
     0
 49
1.27
 74
     0
 49
-1.27
 74
     0
  0
LTYPE
  5
60
330
5
100
AcDbSymbolTableRecord
100
AcDbLinetypeTableRecord
  2
CENTER
 70
     0
  3
Center ____ _ ____ _ ____ _ ____ _ ____ _ ____
 72
    65
 73
     4
 40
10.16
 49
6.35
 74
     0
 49
-1.27
 74
     0
 49
1.27
 74
     0
 49
-1.27
 74
     0
  0
LTYPE
  5
61
330
5
100
AcDbSymbolTableRecord
100
AcDbLinetypeTableRecord
  2
CENTERX2
 70
     0
  3
Center (2x) ________  __  ________  __  _____
 72
    65
 73
     4
 40
20.32
 49
12.7
 74
     0
 49
-2.54
 74
     0
 49
2.54
 74
     0
 49
-2.54
 74
     0
  0
LTYPE
  5
62
330
5
100
AcDbSymbolTableRecord
100
AcDbLinetypeTableRecord
  2
DOT2
 70
     0
  3
Dot (.5x) ........................................
 72
    65
 73
     2
 40
0.635
 49
0.0
 74
     0
 49
-0.635
 74
     0
  0
ENDTAB
  0
TABLE
  2
LAYER
  5
2
330
0
100
AcDbSymbolTable
 70
    14
  0
LAYER
  5
10
330
2
100
AcDbSymbolTableRecord
100
AcDbLayerTableRecord
  2
0
 70
     0
 62
     7
  6
Continuous
370
    -3
390
F
  0
LAYER
  5
63
330
2
100
AcDbSymbolTableRecord
100
AcDbLayerTableRecord
  2
SLD-0
 70
     0
 62
     7
  6
Continuous
370
    -3
390
F
  0
LAYER
  5
64
330
2
100
AcDbSymbolTableRecord
100
AcDbLayerTableRecord
  2
5
 70
     0
 62
     7
  6
Continuous
370
    -3
390
F
  0
LAYER
  5
65
330
2
100
AcDbSymbolTableRecord
100
AcDbLayerTableRecord
  2
9
 70
     0
 62
     7
  6
Continuous
370
    -3
390
F
  0
LAYER
  5
66
330
2
100
AcDbSymbolTableRecord
100
AcDbLayerTableRecord
  2
10
 70
     0
 62
     7
  6
Continuous
370
    -3
390
F
  0
LAYER
  5
67
330
2
100
AcDbSymbolTableRecord
100
AcDbLayerTableRecord
  2
轮廓实线层
 70
     0
 62
     7
  6
Continuous
370
    50
390
F
  0
LAYER
  5
68
330
2
100
AcDbSymbolTableRecord
100
AcDbLayerTableRecord
  2
细线层
 70
     0
 62
     4
  6
Continuous
370
    25
390
F
  0
LAYER
  5
69
330
2
100
AcDbSymbolTableRecord
100
AcDbLayerTableRecord
  2
中心线层
 70
     0
 62
     1
  6
CENTERX2
370
    25
390
F
  0
LAYER
  5
6A
330
2
100
AcDbSymbolTableRecord
100
AcDbLayerTableRecord
  2
虚线层
 70
     0
 62
     6
  6
HIDDEN
370
    25
390
F
  0
LAYER
  5
6B
330
2
100
AcDbSymbolTableRecord
100
AcDbLayerTableRecord
  2
剖面线层
 70
     0
 62
     2
  6
Continuous
370
    25
390
F
  0
LAYER
  5
6C
330
2
100
AcDbSymbolTableRecord
100
AcDbLayerTableRecord
  2
文字层
 70
     0
 62
     3
  6
Continuous
370
    25
390
F
  0
LAYER
  5
6D
330
2
100
AcDbSymbolTableRecord
100
AcDbLayerTableRecord
  2
标注层
 70
     0
 62
     4
  6
Continuous
370
    25
390
F
  0
LAYER
  5
6E
330
2
100
AcDbSymbolTableRecord
100
AcDbLayerTableRecord
  2
符号标注层
 70
     0
 62
    31
  6
Continuous
370
    25
390
F
  0
LAYER
  5
6F
330
2
100
AcDbSymbolTableRecord
100
AcDbLayerTableRecord
  2
双点划线层
 70
     0
 62
     6
  6
PHANTOM
370
    25
390
F
  0
ENDTAB
  0
TABLE
  2
STYLE
  5
3
330
0
100
AcDbSymbolTable
 70
     1
  0
STYLE
  5
11
330
3
100
AcDbSymbolTableRecord
100
AcDbTextStyleTableRecord
  2
Standard
 70
     0
 40
0.0
 41
1.0
 50
0.0
 71
     0
 42
3.5
  3
txt
  4

  0
ENDTAB
  0
TABLE
  2
VIEW
  5
6
330
0
100
AcDbSymbolTable
 70
     0
  0
ENDTAB
  0
TABLE
  2
UCS
  5
7
330
0
100
AcDbSymbolTable
 70
     0
  0
ENDTAB
  0
TABLE
  2
APPID
  5
9
330
0
100
AcDbSymbolTable
 70
     1
  0
APPID
  5
12
330
9
100
AcDbSymbolTableRecord
100
AcDbRegAppTableRecord
  2
ACAD
 70
     0
  0
ENDTAB
  0
TABLE
  2
DIMSTYLE
  5
A
330
0
100
AcDbSymbolTable
 70
     1
100
AcDbDimStyleTable
  0
DIMSTYLE
105
27
330
A
100
AcDbSymbolTableRecord
100
AcDbDimStyleTableRecord
  2
ISO-25
 70
     0
 41
2.5
 42
0.625
 43
3.75
 44
1.25
 73
     0
 74
     0
 77
     1
 78
     8
140
2.5
141
2.5
143
0.0393700787
147
0.625
171
     3
172
     1
178
     0
271
     2
272
     2
274
     3
278
    44
283
     0
284
     8
340
11
  0
ENDTAB
  0
TABLE
  2
BLOCK_RECORD
  5
1
330
0
100
AcDbSymbolTable
 70
     1
  0
BLOCK_RECORD
  5
1F
330
1
100
AcDbSymbolTableRecord
100
AcDbBlockTableRecord
  2
*Model_Space
340
22
  0
BLOCK_RECORD
  5
1B
330
1
100
AcDbSymbolTableRecord
100
AcDbBlockTableRecord
  2
*Paper_Space
340
1E
  0
BLOCK_RECORD
  5
23
330
1
100
AcDbSymbolTableRecord
100
AcDbBlockTableRecord
  2
*Paper_Space0
340
26
  0
ENDTAB
  0
ENDSEC
  0
SECTION
  2
BLOCKS
  0
BLOCK
  5
20
330
1F
100
AcDbEntity
  8
0
100
AcDbBlockBegin
  2
*Model_Space
 70
     0
 10
0.0
 20
0.0
 30
0.0
  3
*Model_Space
  1

  0
ENDBLK
  5
21
330
1F
100
AcDbEntity
  8
0
100
AcDbBlockEnd
  0
BLOCK
  5
1C
330
1B
100
AcDbEntity
 67
     1
  8
0
100
AcDbBlockBegin
  2
*Paper_Space
 70
     0
 10
0.0
 20
0.0
 30
0.0
  3
*Paper_Space
  1

  0
ENDBLK
  5
1D
330
1B
100
AcDbEntity
 67
     1
  8
0
100
AcDbBlockEnd
  0
BLOCK
  5
24
330
23
100
AcDbEntity
  8
0
100
AcDbBlockBegin
  2
*Paper_Space0
 70
     0
 10
0.0
 20
0.0
 30
0.0
  3
*Paper_Space0
  1

  0
ENDBLK
  5
25
330
23
100
AcDbEntity
  8
0
100
AcDbBlockEnd
  0
ENDSEC
  0
SECTION
  2
ENTITIES
  0
ARC
  5
70
330
1F
100
AcDbEntity
  8
0
  6
Continuous
 62
     7
370
    25
100
AcDbCircle
 10
124.3221983133
 20
90.4125317036
 30
0.0
 40
2.174852542802995
100
AcDbArc
 50
0.000000001
 51
92.125644973
  0
ARC
  5
71
330
1F
100
AcDbEntity
  8
0
  6
Continuous
 62
     7
370
    25
100
AcDbCircle
 10
41.6778016867
 20
90.4125317036
 30
0.0
 40
2.174852542804196
100
AcDbArc
 50
87.9358299671
 51
180.0
  0
SPLINE
  5
72
330
1F
100
AcDbEntity
  8
0
  6
Continuous
 62
     7
370
    25
100
AcDbSpline
210
0.0
220
0.0
230
1.0
 70
     8
 71
     3
 72
    26
 73
    22
 74
     0
 42
0.00000001
 43
0.00000001
 40
0.0
 40
0.0
 40
0.0
 40
0.0
 40
0.0407640177783037
 40
0.0844106628275847
 40
0.1309360797878983
 40
0.1803357896827343
 40
0.2326038922706926
 40
0.2877331930946467
 40
0.3457185170404916
 40
0.4065623077697944
 40
0.4573115379551927
 40
0.5099212460165657
 40
0.5644097486043972
 40
0.6207939997362801
 40
0.6790905851717579
 40
0.7291476868608164
 40
0.78055924411428
 40
0.8333387826103782
 40
0.8874968771838775
 40
0.9430447729515765
 40
0.9999999999999999
 40
0.9999999999999999
 40
0.9999999999999999
 40
0.9999999999999999
 10
124.0696390365774
 20
92.55026757030762
 30
0.0
 10
123.0542444849428
 20
92.51130700406293
 30
0.0
 10
120.951651762088
 20
92.43063077536685
 30
0.0
 10
117.5908164013137
 20
92.25714123539078
 30
0.0
 10
113.9330840491881
 20
92.0497572729789
 30
0.0
 10
109.9634930066653
 20
91.81809833372627
 30
0.0
 10
105.6809785552285
 20
91.57588230786178
 30
0.0
 10
101.0850625906633
 20
91.33700545249013
 30
0.0
 10
96.17992868474053
 20
91.12162314626084
 30
0.0
 10
91.34360688777937
 20
90.96628236384343
 30
0.0
 10
86.63009576591325
 20
90.88536669612792
 30
0.0
 10
82.08630068390536
 20
90.87257346449421
 30
0.0
 10
77.38345460003673
 20
90.92202137142964
 30
0.0
 10
72.5383124373833
 20
91.0350457350904
 30
0.0
 10
67.85974926402119
 20
91.2008474668255
 30
0.0
 10
63.37656353113141
 20
91.40788456554164
 30
0.0
 10
59.10993047941165
 20
91.64114530764583
 30
0.0
 10
54.806342211923
 20
91.89508397711815
 30
0.0
 10
50.48705985200952
 20
92.1484239614113
 30
0.0
 10
46.15888923804952
 20
92.38498645319629
 30
0.0
 10
43.35157619319733
 20
92.4947163180495
 30
0.0
 10
41.93036096055986
 20
92.55026757040827
 30
0.0
  0
ARC
  5
73
330
1F
100
AcDbEntity
  8
0
  6
Continuous
 62
     7
370
    25
100
AcDbCircle
 10
106.4132259473
 20
25.2871416742
 30
0.0
 40
2.174852542803009
100
AcDbArc
 50
90.0
 51
180.0
  0
LINE
  5
74
330
1F
100
AcDbEntity
  8
0
  6
Continuous
 62
     7
370
    25
100
AcDbLine
 10
104.2383734045
 20
25.2871416742
 30
0.0
 11
104.2383734045
 21
20.9374365886
 31
0.0
  0
ARC
  5
75
330
1F
100
AcDbEntity
  8
0
  6
Continuous
 62
     7
370
    25
100
AcDbCircle
 10
59.5867740527
 20
25.2871416742
 30
0.0
 40
2.174852542802995
100
AcDbArc
 50
0.0
 51
90.0
  0
LINE
  5
76
330
1F
100
AcDbEntity
  8
0
  6
Continuous
 62
     7
370
    25
100
AcDbLine
 10
61.7616265955
 20
20.9374365886
 30
0.0
 11
61.7616265955
 21
25.2871416742
 31
0.0
  0
LINE
  5
77
330
1F
100
AcDbEntity
  8
0
  6
Continuous
 62
     7
370
    25
100
AcDbLine
 10
60.2073101441
 20
20.9374365886
 30
0.0
 11
42.772991025
 21
20.9374365886
 31
0.0
  0
LINE
  5
78
330
1F
100
AcDbEntity
  8
0
  6
Continuous
 62
     7
370
    25
100
AcDbLine
 10
123.227008975
 20
20.9374365886
 30
0.0
 11
105.7926898559
 21
20.9374365886
 31
0.0
  0
SPLINE
  5
79
330
1F
100
AcDbEntity
  8
0
  6
Continuous
 62
     7
370
    25
100
AcDbSpline
210
0.0
220
0.0
230
1.0
 70
     8
 71
     3
 72
     9
 73
     5
 74
     0
 42
0.00000001
 43
0.00000001
 40
0.0
 40
0.0
 40
0.0
 40
0.0
 40
0.0928226405817608
 40
1.0
 40
1.0
 40
1.0
 40
1.0
 10
124.0698750434384
 20
92.54869079467306
 30
0.0
 10
124.0750607110348
 20
92.55155386762867
 30
0.0
 10
124.1309271199619
 20
92.58239842169064
 30
0.0
 10
124.1902453701864
 20
92.57829464886021
 30
0.0
 10
124.2440575437903
 20
92.57457179906024
 30
0.0
  0
SPLINE
  5
7A
330
1F
100
AcDbEntity
  8
0
  6
Continuous
 62
     7
370
    25
100
AcDbSpline
210
0.0
220
0.0
230
1.0
 70
     8
 71
     3
 72
     9
 73
     5
 74
     0
 42
0.00000001
 43
0.00000001
 40
0.0
 40
0.0
 40
0.0
 40
0.0
 40
0.9071983205195266
 40
1.0
 40
1.0
 40
1.0
 40
1.0
 10
41.75530643937422
 20
92.57463687791737
 30
0.0
 10
41.80936810514649
 20
92.5783726767175
 30
0.0
 10
41.86895999872642
 20
92.58249062834466
 30
0.0
 10
41.92507440182179
 20
92.55150297386176
 30
0.0
 10
41.93028191267209
 20
92.54862726748259
 30
0.0
  0
LINE
  5
7B
330
1F
100
AcDbEntity
  8
0
  6
Continuous
 62
     7
370
    25
100
AcDbLine
 10
39.5029491439
 20
90.4125317036
 30
0.0
 11
39.5029491439
 21
20.9374365886
 31
0.0
  0
LINE
  5
7C
330
1F
100
AcDbEntity
  8
0
  6
Continuous
 62
     7
370
    25
100
AcDbLine
 10
39.5029491439
 20
20.9374365886
 30
0.0
 11
42.772991025
 21
20.9374365886
 31
0.0
  0
LINE
  5
7D
330
1F
100
AcDbEntity
  8
0
  6
Continuous
 62
     7
370
    25
100
AcDbLine
 10
126.4970508561
 20
20.9374365886
 30
0.0
 11
126.4970508561
 21
90.4125317036
 31
0.0
  0
LINE
  5
7E
330
1F
100
AcDbEntity
  8
0
  6
Continuous
 62
     7
370
    25
100
AcDbLine
 10
123.227008975
 20
20.9374365886
 30
0.0
 11
126.4970508561
 21
20.9374365886
 31
0.0
  0
SPLINE
  5
7F
330
1F
100
AcDbEntity
  8
0
  6
Continuous
 62
     7
370
    25
100
AcDbSpline
210
0.0
220
0.0
230
1.0
 70
     8
 71
     3
 72
    12
 73
     8
 74
     0
 42
0.00000001
 43
0.00000001
 40
0.0
 40
0.0
 40
0.0
 40
0.0
 40
0.249999999999999
 40
0.249999999999999
 40
0.499999999999998
 40
0.499999999999998
 40
1.0
 40
1.0
 40
1.0
 40
1.0
 10
46.02750677234907
 20
27.21061497670948
 30
0.0
 10
46.02750677234907
 20
27.10152947945888
 30
0.0
 10
45.99167164081216
 20
26.969700120221
 30
0.0
 10
45.86964656445281
 20
26.67391709407679
 30
0.0
 10
45.78396600034927
 20
26.5127045380032
 30
0.0
 10
45.47753673171344
 20
26.01206692323051
 30
0.0
 10
45.20147544223796
 20
25.64610606880509
 30
0.0
 10
44.8902020236589
 20
25.28714167420338
 30
0.0
  0
SPLINE
  5
80
330
1F
100
AcDbEntity
  8
0
  6
Continuous
 62
     7
370
    25
100
AcDbSpline
210
0.0
220
0.0
230
1.0
 70
     8
 71
     3
 72
    22
 73
    18
 74
     0
 42
0.00000001
 43
0.00000001
 40
0.0
 40
0.0
 40
0.0
 40
0.0
 40
0.0690114463098195
 40
0.1342951462206169
 40
0.1958845005492916
 40
0.2537994902224576
 40
0.3080521358467126
 40
0.3586502263971404
 40
0.4055997813422095
 40
0.4489066302808611
 40
0.4885774278024782
 40
0.5246203748034504
 40
0.6331561493364956
 40
0.7346235263900109
 40
0.8293198216685307
 40
0.9176425441211603
 40
0.9999999999999999
 40
0.9999999999999999
 40
0.9999999999999999
 40
0.9999999999999999
 10
44.89020202365878
 20
88.14262236188387
 30
0.0
 10
44.9326926520663
 20
88.09091687059261
 30
0.0
 10
45.01537872024948
 20
87.99029882989552
 30
0.0
 10
45.12960307638661
 20
87.84360517398032
 30
0.0
 10
45.23323103504899
 20
87.70585556855778
 30
0.0
 10
45.32660667272558
 20
87.57721162499311
 30
0.0
 10
45.41053402915828
 20
87.45775538392911
 30
0.0
 10
45.48559976124005
 20
87.34745450606412
 30
0.0
 10
45.55235423523754
 20
87.24619632232711
 30
0.0
 10
45.61126209681352
 20
87.15379209216212
 30
0.0
 10
45.66277350614511
 20
87.07002432153938
 30
0.0
 10
45.73838429817263
 20
86.94144632237874
 30
0.0
 10
45.82852452775861
 20
86.77306975469637
 30
0.0
 10
45.91926200714861
 20
86.5746514795912
 30
0.0
 10
45.98178837631921
 20
86.40232333929909
 30
0.0
 10
46.02011924330863
 20
86.25483467348884
 30
0.0
 10
46.02502046664929
 20
86.17388728828854
 30
0.0
 10
46.027385429523
 20
86.13482814990283
 30
0.0
  0
LINE
  5
81
330
1F
100
AcDbEntity
  8
0
  6
Continuous
 62
     7
370
    25
100
AcDbLine
 10
46.0275067723
 20
27.2106149767
 30
0.0
 11
46.0275067723
 21
86.1342185108
 31
0.0
  0
SPLINE
  5
82
330
1F
100
AcDbEntity
  8
0
  6
Continuous
 62
     7
370
    25
100
AcDbSpline
210
0.0
220
0.0
230
1.0
 70
     8
 71
     3
 72
    12
 73
     8
 74
     0
 42
0.00000001
 43
0.00000001
 40
0.0
 40
0.0
 40
0.0
 40
0.0
 40
0.2500000000000016
 40
0.2500000000000016
 40
0.5000000000000031
 40
0.5000000000000031
 40
1.0
 40
1.0
 40
1.0
 40
1.0
 10
119.9724932276509
 20
27.21061497670949
 30
0.0
 10
119.9724932276509
 20
27.10152947945889
 30
0.0
 10
120.0083283591878
 20
26.969700120221
 30
0.0
 10
120.1303534355472
 20
26.67391709407679
 30
0.0
 10
120.2160339996507
 20
26.51270453800321
 30
0.0
 10
120.5224632682866
 20
26.01206692323052
 30
0.0
 10
120.7985245577742
 20
25.64610606881872
 30
0.0
 10
121.1097979763411
 20
25.28714167420338
 30
0.0
  0
LINE
  5
83
330
1F
100
AcDbEntity
  8
0
  6
Continuous
 62
     7
370
    25
100
AcDbLine
 10
119.9724932277
 20
86.1342185108
 30
0.0
 11
119.9724932277
 21
27.2106149767
 31
0.0
  0
SPLINE
  5
84
330
1F
100
AcDbEntity
  8
0
  6
Continuous
 62
     7
370
    25
100
AcDbSpline
210
0.0
220
0.0
230
1.0
 70
     8
 71
     3
 72
    23
 73
    19
 74
     0
 42
0.00000001
 43
0.00000001
 40
0.0
 40
0.0
 40
0.0
 40
0.0
 40
0.067852299889309
 40
0.1319635108961252
 40
0.192334483564175
 40
0.2489662585455109
 40
0.3018601190126747
 40
0.3510176629457253
 40
0.3964409050594597
 40
0.4381324242173827
 40
0.4760955829960989
 40
0.5103348661956018
 40
0.5349945414490332
 40
0.6416408277734389
 40
0.7412147518531077
 40
0.8339381071482007
 40
0.9200856448283697
 40
1.0
 40
1.0
 40
1.0
 40
1.0
 10
121.109797976341
 20
88.14262236188385
 30
0.0
 10
121.0678903385131
 20
88.09184894661759
 30
0.0
 10
120.9863856727883
 20
87.99310154749254
 30
0.0
 10
120.8729540356893
 20
87.84978596068801
 30
0.0
 10
120.770103506356
 20
87.71532570091695
 30
0.0
 10
120.6777223765384
 20
87.58975705367082
 30
0.0
 10
120.5951965257456
 20
87.47307026306801
 30
0.0
 10
120.5219545125154
 20
87.36526724390714
 30
0.0
 10
120.4573637468086
 20
87.26634447991533
 30
0.0
 10
120.4007747217396
 20
87.17630670425989
 30
0.0
 10
120.3515487337691
 20
87.09513154451044
 30
0.0
 10
120.3114414862141
 20
87.02700339606885
 30
0.0
 10
120.2454806648442
 20
86.91199916673185
 30
0.0
 10
120.1621851838627
 20
86.75538645880874
 30
0.0
 10
120.0749486880625
 20
86.56295855791898
 30
0.0
 10
120.0153531975631
 20
86.39562436670808
 30
0.0
 10
119.9792454958904
 20
86.25150350902094
 30
0.0
 10
119.9746869482506
 20
86.17232281998281
 30
0.0
 10
119.9724932276509
 20
86.13421851081313
 30
0.0
  0
LINE
  5
85
330
1F
100
AcDbEntity
  8
0
  6
Continuous
 62
     7
370
    25
100
AcDbLine
 10
119.9724932277
 20
27.461994217
 30
0.0
 11
106.4132259473
 21
27.461994217
 31
0.0
  0
LINE
  5
86
330
1F
100
AcDbEntity
  8
0
  6
Continuous
 62
     7
370
    25
100
AcDbLine
 10
59.5867740527
 20
27.461994217
 30
0.0
 11
46.0275067723
 21
27.461994217
 31
0.0
  0
LINE
  5
87
330
1F
100
AcDbEntity
  8
0
  6
Continuous
 62
     7
370
    25
100
AcDbLine
 10
104.2383734045
 20
20.9374365886
 30
0.0
 11
105.7926898559
 21
20.9374365886
 31
0.0
  0
LINE
  5
88
330
1F
100
AcDbEntity
  8
0
  6
Continuous
 62
     7
370
    25
100
AcDbLine
 10
60.2073101441
 20
20.9374365886
 30
0.0
 11
61.7616265955
 21
20.9374365886
 31
0.0
  0
LINE
  5
89
330
1F
100
AcDbEntity
  8
0
  6
Continuous
 62
     7
370
    25
100
AcDbLine
 10
83.0
 20
27.461994217
 30
0.0
 11
59.5867740527
 21
27.461994217
 31
0.0
  0
LINE
  5
8A
330
1F
100
AcDbEntity
  8
0
  6
Continuous
 62
     7
370
    25
100
AcDbLine
 10
106.4132259473
 20
27.461994217
 30
0.0
 11
83.0
 21
27.461994217
 31
0.0
  0
LINE
  5
8B
330
1F
100
AcDbEntity
  8
0
  6
Continuous
 62
     7
370
    25
100
AcDbLine
 10
104.2383734045
 20
20.9374365886
 30
0.0
 11
61.7616265955
 21
20.9374365886
 31
0.0
  0
ARC
  5
8C
330
1F
100
AcDbEntity
  8
0
  6
HIDDEN
 62
     7
370
    18
100
AcDbCircle
 10
112.3605093278
 20
25.2871416742
 30
0.0
 40
2.174852542802995
100
AcDbArc
 50
90.0
 51
180.0
  0
ARC
  5
8D
330
1F
100
AcDbEntity
  8
0
  6
HIDDEN
 62
     7
370
    18
100
AcDbCircle
 10
53.6394906722
 20
25.2871416742
 30
0.0
 40
2.174852542802995
100
AcDbArc
 50
0.0
 51
90.0
  0
LINE
  5
8E
330
1F
100
AcDbEntity
  8
0
  6
HIDDEN
 62
     7
370
    18
100
AcDbLine
 10
55.814343215
 20
25.2871416742
 30
0.0
 11
55.814343215
 21
20.9374365886
 31
0.0
  0
LINE
  5
8F
330
1F
100
AcDbEntity
  8
0
  6
HIDDEN
 62
     7
370
    18
100
AcDbLine
 10
110.185656785
 20
20.9374365886
 30
0.0
 11
110.185656785
 21
25.2871416742
 31
0.0
  0
ARC
  5
90
330
1F
100
AcDbEntity
  8
0
  6
Continuous
 62
     7
370
    25
100
AcDbCircle
 10
124.3221983133
 20
146.6461732585
 30
0.0
 40
2.174852542803006
100
AcDbArc
 50
239.7635635654
 51
0.0
  0
ARC
  5
91
330
1F
100
AcDbEntity
  8
0
  6
Continuous
 62
     7
370
    25
100
AcDbCircle
 10
41.6778016867
 20
146.6461732585
 30
0.0
 40
2.174852542803045
100
AcDbArc
 50
180.0
 51
300.2364364346
  0
LINE
  5
92
330
1F
100
AcDbEntity
  8
0
  6
Continuous
 62
     7
370
    25
100
AcDbLine
 10
124.3221983133
 20
207.9999603143
 30
0.0
 11
41.6778016867
 21
207.9999603143
 31
0.0
  0
LINE
  5
93
330
1F
100
AcDbEntity
  8
0
  6
Continuous
 62
     7
370
    25
100
AcDbLine
 10
39.5029491439
 20
205.8251077715
 30
0.0
 11
39.5029491439
 21
146.6461732585
 31
0.0
  0
ARC
  5
94
330
1F
100
AcDbEntity
  8
0
  6
Continuous
 62
     7
370
    25
100
AcDbCircle
 10
41.6778016867
 20
205.8251077715
 30
0.0
 40
2.174852542803023
100
AcDbArc
 50
90.0
 51
180.0
  0
ARC
  5
95
330
1F
100
AcDbEntity
  8
0
  6
Continuous
 62
     7
370
    25
100
AcDbCircle
 10
124.3221983133
 20
205.8251077715
 30
0.0
 40
2.174852542803023
100
AcDbArc
 50
0.0
 51
90.0
  0
LINE
  5
96
330
1F
100
AcDbEntity
  8
0
  6
Continuous
 62
     7
370
    25
100
AcDbLine
 10
126.4970508561
 20
146.6461732585
 30
0.0
 11
126.4970508561
 21
205.8251077715
 31
0.0
  0
SPLINE
  5
97
330
1F
100
AcDbEntity
  8
0
  6
Continuous
 62
     7
370
    25
100
AcDbSpline
210
0.0
220
0.0
230
1.0
 70
     8
 71
     3
 72
    11
 73
     7
 74
     0
 42
0.00000001
 43
0.00000001
 40
0.23625656165937
 40
0.23625656165937
 40
0.23625656165937
 40
0.23625656165937
 40
1.37502221933783
 40
2.51378787701629
 40
3.65255353469475
 40
4.22193636353398
 40
4.22193636353398
 40
4.22193636353398
 40
4.22193636353398
 10
42.77299102497334
 20
144.7671990979022
 30
0.0
 10
49.71265428308428
 20
148.8120898528612
 30
0.0
 10
64.79261008119586
 20
154.7859782765775
 30
0.0
 10
89.11979524395657
 20
156.6278937914591
 30
0.0
 10
108.9022167435198
 20
152.0677638227329
 30
0.0
 10
119.7571773459712
 20
146.7896444753817
 30
0.0
 10
123.2270089750267
 20
144.7671990979022
 30
0.0
  0
ARC
  5
98
330
1F
100
AcDbEntity
  8
0
  6
Continuous
 62
     7
370
    25
100
AcDbCircle
 10
83.0
 20
75.7512693536
 30
0.0
 40
79.88373307219616
100
AcDbArc
 50
68.9451922851
 51
73.4218256146
  0
LINE
  5
99
330
1F
100
AcDbEntity
  8
0
  6
Continuous
 62
     7
370
    25
100
AcDbLine
 10
120.8647901702
 20
146.0909343721
 30
0.0
 11
121.1097979763
 21
145.9584919717
 31
0.0
  0
SPLINE
  5
9A
330
1F
100
AcDbEntity
  8
0
  6
HIDDEN
 62
     7
370
    18
100
AcDbSpline
210
0.0
220
0.0
230
1.0
 70
     8
 71
     3
 72
    23
 73
    19
 74
     0
 42
0.00000001
 43
0.00000001
 40
0.0
 40
0.0
 40
0.0
 40
0.0
 40
0.067852299889309
 40
0.1319635108961252
 40
0.192334483564175
 40
0.2489662585455109
 40
0.3018601190126747
 40
0.3510176629457253
 40
0.3964409050594597
 40
0.4381324242173827
 40
0.4760955829960989
 40
0.5103348661956018
 40
0.5349945414490332
 40
0.6416408277734389
 40
0.7412147518531077
 40
0.8339381071482007
 40
0.9200856448283697
 40
1.0
 40
1.0
 40
1.0
 40
1.0
 10
121.109797976341
 20
145.9584919717165
 30
0.0
 10
121.0678903385131
 20
145.9822856647408
 30
0.0
 10
120.9863856727883
 20
146.0285611671748
 30
0.0
 10
120.8729540356893
 20
146.105975180225
 30
0.0
 10
120.770103506356
 20
146.1850889285026
 30
0.0
 10
120.6777223765384
 20
146.2652640835157
 30
0.0
 10
120.5951965257456
 20
146.3451244356348
 30
0.0
 10
120.5219545125154
 20
146.4236395872861
 30
0.0
 10
120.4573637468086
 20
146.4998519616781
 30
0.0
 10
120.4007747217396
 20
146.5729426117549
 30
0.0
 10
120.3515487337691
 20
146.6421779351473
 30
0.0
 10
120.3114414862141
 20
146.703300369759
 30
0.0
 10
120.2454806648442
 20
146.8109278587729
 30
0.0
 10
120.1621851838627
 20
146.9704199262966
 30
0.0
 10
120.0749486880625
 20
147.1957779912635
 30
0.0
 10
120.0153531975631
 20
147.4219299352897
 30
0.0
 10
119.9792454958904
 20
147.6447084163215
 30
0.0
 10
119.9746869482506
 20
147.7967378608609
 30
0.0
 10
119.9724932276509
 20
147.8698993479356
 30
0.0
  0
SPLINE
  5
9B
330
1F
100
AcDbEntity
  8
0
  6
HIDDEN
 62
     7
370
    18
100
AcDbSpline
210
0.0
220
0.0
230
1.0
 70
     8
 71
     3
 72
    22
 73
    18
 74
     0
 42
0.00000001
 43
0.00000001
 40
0.0
 40
0.0
 40
0.0
 40
0.0
 40
0.0690114463098195
 40
0.1342951462206169
 40
0.1958845005492916
 40
0.2537994902224576
 40
0.3080521358467126
 40
0.3586502263971404
 40
0.4055997813422095
 40
0.4489066302808611
 40
0.4885774278024782
 40
0.5246203748034504
 40
0.6331561493364956
 40
0.7346235263900109
 40
0.8293198216685307
 40
0.9176425441211603
 40
0.9999999999999999
 40
0.9999999999999999
 40
0.9999999999999999
 40
0.9999999999999999
 10
44.89020202365878
 20
145.9584919717165
 30
0.0
 10
44.9326926520663
 20
145.9827079965556
 30
0.0
 10
45.01537872024948
 20
146.0298319849743
 30
0.0
 10
45.12960307638661
 20
146.1090279694508
 30
0.0
 10
45.23323103504899
 20
146.1902995296408
 30
0.0
 10
45.32660667272558
 20
146.2730554621954
 30
0.0
 10
45.41053402915828
 20
146.3559085482312
 30
0.0
 10
45.48559976124005
 20
146.4378081934696
 30
0.0
 10
45.55235423523754
 20
146.5177537757662
 30
0.0
 10
45.61126209681352
 20
146.5948524004814
 30
0.0
 10
45.66277350614511
 20
146.668304467909
 30
0.0
 10
45.73838429817263
 20
146.7859841515274
 30
0.0
 10
45.82852452775861
 20
146.9535833492581
 30
0.0
 10
45.91926200714861
 20
147.1804330311028
 30
0.0
 10
45.98178837631921
 20
147.409945727911
 30
0.0
 10
46.02011924330863
 20
147.6383213785937
 30
0.0
 10
46.02502046664929
 20
147.7947275392347
 30
0.0
 10
46.027385429523
 20
147.8701974244908
 30
0.0
  0
SPLINE
  5
9C
330
1F
100
AcDbEntity
  8
0
  6
HIDDEN
 62
     7
370
    18
100
AcDbSpline
210
0.0
220
0.0
230
1.0
 70
    24
 71
     3
 72
     8
 73
     4
 74
     0
 42
0.00000001
 43
0.00000001
 40
0.0
 40
0.0
 40
0.0
 40
0.0
 40
1.0
 40
1.0
 40
1.0
 40
1.0
 10
46.02750677234908
 20
147.8702069694049
 30
0.0
 10
46.02750677234908
 20
148.1597237654352
 30
0.0
 10
46.02750677234905
 20
148.4647475768934
 30
0.0
 10
46.02750677234905
 20
148.7853273729013
 30
0.0
  0
SPLINE
  5
9D
330
1F
100
AcDbEntity
  8
0
  6
HIDDEN
 62
     7
370
    18
100
AcDbSpline
210
0.0
220
0.0
230
1.0
 70
    24
 71
     3
 72
     8
 73
     4
 74
     0
 42
0.00000001
 43
0.00000001
 40
0.0
 40
0.0
 40
0.0
 40
0.0
 40
1.0
 40
1.0
 40
1.0
 40
1.0
 10
119.972493227651
 20
148.785328725888
 30
0.0
 10
119.972493227651
 20
148.4647494111654
 30
0.0
 10
119.9724932276509
 20
148.1597240122489
 30
0.0
 10
119.9724932276509
 20
147.8702059487334
 30
0.0
  0
LINE
  5
9E
330
1F
100
AcDbEntity
  8
0
  6
HIDDEN
 62
     7
370
    18
100
AcDbLine
 10
119.9724932277
 20
201.4754026859
 30
0.0
 11
83.0
 21
201.4754026859
 31
0.0
  0
LINE
  5
9F
330
1F
100
AcDbEntity
  8
0
  6
HIDDEN
 62
     7
370
    18
100
AcDbLine
 10
83.0
 20
201.4754026859
 30
0.0
 11
46.0275067723
 21
201.4754026859
 31
0.0
  0
LINE
  5
A0
330
1F
100
AcDbEntity
  8
0
  6
HIDDEN
 62
     7
370
    18
100
AcDbLine
 10
119.9724932277
 20
201.4754026859
 30
0.0
 11
119.9724932277
 21
148.7852991327
 31
0.0
  0
LINE
  5
A1
330
1F
100
AcDbEntity
  8
0
  6
HIDDEN
 62
     7
370
    18
100
AcDbLine
 10
46.0275067723
 20
148.7852991327
 30
0.0
 11
46.0275067723
 21
201.4754026859
 31
0.0
  0
LINE
  5
A2
330
1F
100
AcDbEntity
  8
0
  6
HIDDEN
 62
     7
370
    18
100
AcDbLine
 10
119.9724932277
 20
148.9074801507
 30
0.0
 11
119.9724932277
 21
149.0086663703
 31
0.0
  0
LINE
  5
A3
330
1F
100
AcDbEntity
  8
0
  6
HIDDEN
 62
     7
370
    18
100
AcDbLine
 10
46.0275067723
 20
149.0086663703
 30
0.0
 11
46.0275067723
 21
148.8681280956
 31
0.0
  0
ARC
  5
A4
330
1F
100
AcDbEntity
  8
0
  6
HIDDEN
 62
     7
370
    18
100
AcDbCircle
 10
83.0
 20
172.1148933581
 30
0.0
 40
27.18565678503746
100
AcDbArc
 50
322.8862708696
 51
217.1137291304
  0
ARC
  5
A5
330
1F
100
AcDbEntity
  8
0
  6
HIDDEN
 62
     7
370
    18
100
AcDbCircle
 10
106.4132259473
 20
154.3987888559
 30
0.0
 40
2.174852542803042
100
AcDbArc
 50
142.8862708696
 51
253.4218256146
  0
ARC
  5
A6
330
1F
100
AcDbEntity
  8
0
  6
HIDDEN
 62
     7
370
    18
100
AcDbCircle
 10
59.5867740527
 20
154.3987888559
 30
0.0
 40
2.174852542803013
100
AcDbArc
 50
286.5781743854
 51
37.1137291304
  0
ARC
  5
A7
330
1F
100
AcDbEntity
  8
0
  6
Continuous
 62
     7
370
    25
100
AcDbCircle
 10
211.6461732585
 20
90.4125317036
 30
0.0
 40
2.174852542804103
100
AcDbArc
 50
86.9696629726
 51
180.0
  0
LINE
  5
A8
330
1F
100
AcDbEntity
  8
0
  6
Continuous
 62
     7
370
    25
100
AcDbLine
 10
209.4713207157
 20
90.4125317036
 30
0.0
 11
209.4713207157
 21
20.9374365886
 31
0.0
  0
LINE
  5
A9
330
1F
100
AcDbEntity
  8
0
  6
Continuous
 62
     7
370
    25
100
AcDbLine
 10
217.5649800729
 20
91.9672922188
 30
0.0
 11
217.3781248211
 21
91.9929714468
 31
0.0
  0
ARC
  5
AA
330
1F
100
AcDbEntity
  8
0
  6
Continuous
 62
     7
370
    25
100
AcDbCircle
 10
207.7543840303
 20
27.461994217
 30
0.0
 40
65.24557628408996
100
AcDbArc
 50
0.0
 51
86.4623072376
  0
LINE
  5
AB
330
1F
100
AcDbEntity
  8
0
  6
Continuous
 62
     7
370
    25
100
AcDbLine
 10
209.4713207157
 20
20.9374365886
 30
0.0
 11
211.6461732585
 21
20.9374365886
 31
0.0
  0
LINE
  5
AC
330
1F
100
AcDbEntity
  8
0
  6
Continuous
 62
     7
370
    25
100
AcDbLine
 10
272.9999603143
 20
20.9374365886
 30
0.0
 11
272.9999603143
 21
27.461994217
 31
0.0
  0
LINE
  5
AD
330
1F
100
AcDbEntity
  8
0
  6
Continuous
 62
     7
370
    25
100
AcDbLine
 10
270.8251077715
 20
20.9374365886
 30
0.0
 11
272.9999603143
 21
20.9374365886
 31
0.0
  0
LINE
  5
AE
330
1F
100
AcDbEntity
  8
0
  6
Continuous
 62
     7
370
    25
100
AcDbLine
 10
270.8251077715
 20
20.9374365886
 30
0.0
 11
211.6461732585
 21
20.9374365886
 31
0.0
  0
SPLINE
  5
AF
330
1F
100
AcDbEntity
  8
0
  6
HIDDEN
 62
     7
370
    18
100
AcDbSpline
210
0.0
220
0.0
230
1.0
 70
     8
 71
     3
 72
    10
 73
     6
 74
     0
 42
0.00000001
 43
0.00000001
 40
0.0
 40
0.0
 40
0.0
 40
0.0
 40
0.2357784289410373
 40
0.6420125361838271
 40
0.9999999999999999
 40
0.9999999999999999
 40
0.9999999999999999
 40
0.9999999999999999
 10
220.9374769659557
 20
91.35851428445721
 30
0.0
 10
221.1953532839808
 20
91.3055490820055
 30
0.0
 10
221.8975372356708
 20
91.16132755967097
 30
0.0
 10
222.6371790786812
 20
90.98789495996316
 30
0.0
 10
222.9422718221515
 20
90.9148268560381
 30
0.0
 10
223.0851876748306
 20
90.88059926262729
 30
0.0
  0
SPLINE
  5
B0
330
1F
100
AcDbEntity
  8
0
  6
HIDDEN
 62
     7
370
    18
100
AcDbSpline
210
0.0
220
0.0
230
1.0
 70
     8
 71
     3
 72
    23
 73
    19
 74
     0
 42
0.00000001
 43
0.00000001
 40
0.0
 40
0.0
 40
0.0
 40
0.0
 40
0.067852299889309
 40
0.1319635108961252
 40
0.192334483564175
 40
0.2489662585455109
 40
0.3018601190126747
 40
0.3510176629457253
 40
0.3964409050594597
 40
0.4381324242173827
 40
0.4760955829960989
 40
0.5103348661956018
 40
0.5349945414490332
 40
0.6416408277734389
 40
0.7412147518531077
 40
0.8339381071482007
 40
0.9200856448283697
 40
1.0
 40
1.0
 40
1.0
 40
1.0
 10
210.9584919717165
 20
88.14262236188385
 30
0.0
 10
210.9822856647408
 20
88.09184894661759
 30
0.0
 10
211.0285611671748
 20
87.99310154749254
 30
0.0
 10
211.105975180225
 20
87.84978596068801
 30
0.0
 10
211.1850889285026
 20
87.71532570091695
 30
0.0
 10
211.2652640835157
 20
87.58975705367082
 30
0.0
 10
211.3451244356348
 20
87.47307026306801
 30
0.0
 10
211.4236395872861
 20
87.36526724390714
 30
0.0
 10
211.4998519616781
 20
87.26634447991533
 30
0.0
 10
211.5729426117549
 20
87.17630670425989
 30
0.0
 10
211.6421779351473
 20
87.09513154451044
 30
0.0
 10
211.703300369759
 20
87.02700339606885
 30
0.0
 10
211.8109278587729
 20
86.91199916673185
 30
0.0
 10
211.9704199262966
 20
86.75538645880874
 30
0.0
 10
212.1957779912635
 20
86.56295855791898
 30
0.0
 10
212.4219299352897
 20
86.39562436670808
 30
0.0
 10
212.6447084163215
 20
86.25150350902094
 30
0.0
 10
212.7967378608609
 20
86.17232281998281
 30
0.0
 10
212.8698993479356
 20
86.13421851081313
 30
0.0
  0
SPLINE
  5
B1
330
1F
100
AcDbEntity
  8
0
  6
HIDDEN
 62
     7
370
    18
100
AcDbSpline
210
0.0
220
0.0
230
1.0
 70
     8
 71
     3
 72
     8
 73
     4
 74
     0
 42
0.00000001
 43
0.00000001
 40
0.0
 40
0.0
 40
0.0
 40
0.0
 40
1.0
 40
1.0
 40
1.0
 40
1.0
 10
213.785328725888
 20
85.87277730151419
 30
0.0
 10
213.4647494111654
 20
85.90587449775275
 30
0.0
 10
213.1597240122489
 20
85.99328480448345
 30
0.0
 10
212.8702059487334
 20
86.13484556641593
 30
0.0
  0
LINE
  5
B2
330
1F
100
AcDbEntity
  8
0
  6
HIDDEN
 62
     7
370
    18
100
AcDbLine
 10
213.7852096861
 20
85.8724998977
 30
0.0
 11
214.435250115
 21
85.7942532071
 31
0.0
  0
SPLINE
  5
B3
330
1F
100
AcDbEntity
  8
0
  6
HIDDEN
 62
     7
370
    18
100
AcDbSpline
210
0.0
220
0.0
230
1.0
 70
     8
 71
     3
 72
    14
 73
    10
 74
     0
 42
0.00000001
 43
0.00000001
 40
0.0
 40
0.0
 40
0.0
 40
0.0
 40
0.0747927355125714
 40
0.2578699941102935
 40
0.4398306060756718
 40
0.6212831288880166
 40
0.8028412564246048
 40
0.9851466878197809
 40
1.0
 40
1.0
 40
1.0
 40
1.0
 10
219.6249946253525
 20
84.96751328938491
 30
0.0
 10
219.7941315616542
 20
84.93328995913127
 30
0.0
 10
220.3772809874511
 20
84.81529494383389
 30
0.0
 10
221.0980493528865
 20
84.64754866282767
 30
0.0
 10
221.7827839341365
 20
84.48392887420108
 30
0.0
 10
222.1879325322924
 20
84.38164579679629
 30
0.0
 10
222.2976901208706
 20
84.35328552141691
 30
0.0
 10
222.2625059961114
 20
84.36318790228609
 30
0.0
 10
222.1136497491289
 20
84.40021407839544
 30
0.0
 10
222.1024353932941
 20
84.40300351264835
 30
0.0
  0
SPLINE
  5
B4
330
1F
100
AcDbEntity
  8
0
  6
HIDDEN
 62
     7
370
    18
100
AcDbSpline
210
0.0
220
0.0
230
1.0
 70
     8
 71
     3
 72
    10
 73
     6
 74
     0
 42
0.00000001
 43
0.00000001
 40
0.0
 40
0.0
 40
0.0
 40
0.0
 40
0.5
 40
0.5
 40
1.0
 40
1.0
 40
1.0
 40
1.0
 10
212.8698993479364
 20
27.21061497670949
 30
0.0
 10
213.0486676273721
 20
27.29456118590694
 30
0.0
 10
213.2334536157488
 20
27.35656770256003
 30
0.0
 10
213.61404784361
 20
27.44039520964182
 30
0.0
 10
213.8112834558699
 20
27.46199421700637
 30
0.0
 10
214.0086663703024
 20
27.46199421700637
 30
0.0
  0
SPLINE
  5
B5
330
1F
100
AcDbEntity
  8
0
  6
HIDDEN
 62
     7
370
    18
100
AcDbSpline
210
0.0
220
0.0
230
1.0
 70
     8
 71
     3
 72
    12
 73
     8
 74
     0
 42
0.00000001
 43
0.00000001
 40
0.0
 40
0.0
 40
0.0
 40
0.0
 40
0.2500000000000016
 40
0.2500000000000016
 40
0.5000000000000031
 40
0.5000000000000031
 40
1.0
 40
1.0
 40
1.0
 40
1.0
 10
212.8698993479364
 20
27.21061497670949
 30
0.0
 10
212.6375955090697
 20
27.10152947945889
 30
0.0
 10
212.4256727387086
 20
26.969700120221
 30
0.0
 10
212.0305694443984
 20
26.67391709407679
 30
0.0
 10
211.8522196712897
 20
26.51270453800321
 30
0.0
 10
211.3757927832792
 20
26.01206692323052
 30
0.0
 10
211.1274570248067
 20
25.64610606881872
 30
0.0
 10
210.9584919717164
 20
25.28714167420338
 30
0.0
  0
ARC
  5
B6
330
1F
100
AcDbEntity
  8
0
  6
HIDDEN
 62
     7
370
    18
100
AcDbCircle
 10
207.7543840303
 20
27.461994217
 30
0.0
 40
58.72101865568095
100
AcDbArc
 50
0.0
 51
84.105068776
  0
LINE
  5
B7
330
1F
100
AcDbEntity
  8
0
  6
HIDDEN
 62
     7
370
    18
100
AcDbLine
 10
214.0086663703
 20
27.461994217
 30
0.0
 11
266.4754026859
 21
27.461994217
 31
0.0
  0
SPLINE
  5
B8
330
1F
100
AcDbEntity
  8
0
  6
HIDDEN
 62
     7
370
    18
100
AcDbSpline
210
0.0
220
0.0
230
1.0
 70
     8
 71
     3
 72
    15
 73
    11
 74
     0
 42
0.00000001
 43
0.00000001
 40
0.0
 40
0.0
 40
0.0
 40
0.0
 40
0.0805280718238488
 40
0.1649895390573623
 40
0.2595085850033857
 40
0.3685357885122799
 40
0.4952333912176833
 40
0.6418117571586052
 40
0.8097191272964982
 40
1.0
 40
1.0
 40
1.0
 40
1.0
 10
220.6346090817808
 20
88.71022464228814
 30
0.0
 10
220.6522452679792
 20
88.91349834393911
 30
0.0
 10
220.6883790802723
 20
89.32997465559397
 30
0.0
 10
220.9426838567462
 20
89.86822175453297
 30
0.0
 10
221.2837088273003
 20
90.2929607200232
 30
0.0
 10
221.6822608007421
 20
90.60174953863128
 30
0.0
 10
222.0969578875295
 20
90.79678575731141
 30
0.0
 10
222.4928008170585
 20
90.89583132647336
 30
0.0
 10
222.8484184984564
 20
90.9182860351564
 30
0.0
 10
223.0111042737344
 20
90.88874412139236
 30
0.0
 10
223.0975280799733
 20
90.87305052662845
 30
0.0
  0
LINE
  5
B9
330
1F
100
AcDbEntity
  8
0
  6
HIDDEN
 62
     7
370
    18
100
AcDbLine
 10
212.7421701614
 20
92.5132841838
 30
0.0
 11
212.4754520529
 21
92.5366677827
 31
0.0
  0
LINE
  5
BA
330
1F
100
AcDbEntity
  8
0
  6
HIDDEN
 62
     7
370
    18
100
AcDbLine
 10
220.6350024258
 20
86.4699360372
 30
0.0
 11
220.6350024258
 21
88.710261217
 31
0.0
  0
LINE
  5
BB
330
1F
100
AcDbEntity
  8
0
  6
HIDDEN
 62
     7
370
    18
100
AcDbLine
 10
213.3410243508
 20
85.9355300959
 30
0.0
 11
214.8663712973
 21
85.7754915879
 31
0.0
  0
SPLINE
  5
BC
330
1F
100
AcDbEntity
  8
0
  6
HIDDEN
 62
     7
370
    18
100
AcDbSpline
210
0.0
220
0.0
230
1.0
 70
     8
 71
     3
 72
     9
 73
     5
 74
     0
 42
0.00000001
 43
0.00000001
 40
0.0
 40
0.0
 40
0.0
 40
0.0
 40
0.5327579430274797
 40
1.0
 40
1.0
 40
1.0
 40
1.0
 10
217.0337281904563
 20
85.46066884229903
 30
0.0
 10
217.6696517698628
 20
85.34952459273978
 30
0.0
 10
218.863296252745
 20
85.14090405312352
 30
0.0
 10
219.7090204079668
 20
84.95709118169825
 30
0.0
 10
220.104178301884
 20
84.87120607755548
 30
0.0
  0
SPLINE
  5
BD
330
1F
100
AcDbEntity
  8
0
  6
HIDDEN
 62
     7
370
    18
100
AcDbSpline
210
0.0
220
0.0
230
1.0
 70
     8
 71
     3
 72
    10
 73
     6
 74
     0
 42
0.00000001
 43
0.00000001
 40
0.0
 40
0.0
 40
0.0
 40
0.0
 40
0.2638615137401877
 40
0.711649820732575
 40
1.0
 40
1.0
 40
1.0
 40
1.0
 10
213.3597184024739
 20
85.93195124618066
 30
0.0
 10
213.8551889711912
 20
85.88191964518563
 30
0.0
 10
215.1915018589931
 20
85.74698151277522
 30
0.0
 10
216.7861820676286
 20
85.50328602586546
 30
0.0
 10
217.7471526714852
 20
85.32610436788048
 30
0.0
 10
218.123571037139
 20
85.25670117297017
 30
0.0
  0
SPLINE
  5
BE
330
1F
100
AcDbEntity
  8
0
  6
HIDDEN
 62
     7
370
    18
100
AcDbSpline
210
0.0
220
0.0
230
1.0
 70
     8
 71
     3
 72
    14
 73
    10
 74
     0
 42
0.00000001
 43
0.00000001
 40
0.0
 40
0.0
 40
0.0
 40
0.0
 40
0.2588535901579495
 40
0.4753350950499122
 40
0.6516997849504164
 40
0.7600329291630737
 40
0.8508418531661313
 40
0.9285919252942362
 40
1.0
 40
1.0
 40
1.0
 40
1.0
 10
222.1226289211991
 20
84.40305713319412
 30
0.0
 10
222.0385740656206
 20
84.4281469614434
 30
0.0
 10
221.8842234045327
 20
84.4742196308948
 30
0.0
 10
221.5608459420343
 20
84.6594013128226
 30
0.0
 10
221.2522791109848
 20
84.92177312939867
 30
0.0
 10
220.9940994790188
 20
85.24916855094337
 30
0.0
 10
220.8073924954838
 20
85.59682833709655
 30
0.0
 10
220.6654422141083
 20
86.00634438866744
 30
0.0
 10
220.6443577346869
 20
86.31983169964352
 30
0.0
 10
220.6342637363797
 20
86.46991083240735
 30
0.0
  0
ARC
  5
BF
330
1F
100
AcDbEntity
  8
0
  6
HIDDEN
 62
     7
370
    18
100
AcDbCircle
 10
266.4754026859
 20
25.2871416742
 30
0.0
 40
2.174852542802995
100
AcDbArc
 50
90.0
 51
180.0
  0
LINE
  5
C0
330
1F
100
AcDbEntity
  8
0
  6
HIDDEN
 62
     7
370
    18
100
AcDbLine
 10
264.3005501431
 20
20.9374365886
 30
0.0
 11
264.3005501431
 21
25.2871416742
 31
0.0
  0
ENDSEC
  0
SECTION
  2
OBJECTS
  0
DICTIONARY
  5
C
330
0
100
AcDbDictionary
281
     1
  3
ACAD_GROUP
350
D
  3
ACAD_LAYOUT
350
1A
  3
ACAD_MLINESTYLE
350
17
  3
ACAD_PLOTSETTINGS
350
19
  3
ACAD_PLOTSTYLENAME
350
E
  3
ACAD_SCALELIST
350
47
  3
DWGPROPS
350
C1
  0
DICTIONARY
  5
D
102
{ACAD_REACTORS
330
C
102
}
330
C
100
AcDbDictionary
281
     1
  0
DICTIONARY
  5
1A
102
{ACAD_REACTORS
330
C
102
}
330
C
100
AcDbDictionary
281
     1
  3
Layout1
350
1E
  3
Layout2
350
26
  3
Model
350
22
  0
DICTIONARY
  5
17
102
{ACAD_REACTORS
330
C
102
}
330
C
100
AcDbDictionary
281
     1
  3
Standard
350
18
  0
DICTIONARY
  5
19
102
{ACAD_REACTORS
330
C
102
}
330
C
100
AcDbDictionary
281
     1
  0
ACDBDICTIONARYWDFLT
  5
E
102
{ACAD_REACTORS
330
C
102
}
330
C
100
AcDbDictionary
281
     1
  3
Normal
350
F
100
AcDbDictionaryWithDefault
340
F
  0
DICTIONARY
  5
47
102
{ACAD_REACTORS
330
C
102
}
330
C
100
AcDbDictionary
281
     1
  3
A0
350
48
  3
A1
350
49
  3
A2
350
4A
  3
A3
350
4B
  3
A4
350
4C
  3
A5
350
4D
  3
A6
350
4E
  3
A7
350
4F
  3
A8
350
50
  3
A9
350
51
  3
B0
350
52
  3
B1
350
53
  3
B2
350
54
  3
B3
350
55
  3
B4
350
56
  3
B5
350
57
  3
B6
350
58
  0
XRECORD
  5
C1
102
{ACAD_REACTORS
330
C
102
}
330
C
100
AcDbXrecord
280
     1
  1
DWGPROPS COOKIE
  2

  3

  4

  6

  7

  8

  9

300
=
301
=
302
=
303
=
304
=
305
=
306
=
307
=
308
=
309
=
 40
0.0
 41
2461214.860204977
 42
2461214.860205185
  1

 90
        0
  0
LAYOUT
  5
1E
102
{ACAD_REACTORS
330
1A
102
}
330
1A
100
AcDbPlotSettings
  1

  2
none_device
  4

  6

 40
0.0
 41
0.0
 42
0.0
 43
0.0
 44
0.0
 45
0.0
 46
0.0
 47
0.0
 48
0.0
 49
0.0
140
0.0
141
0.0
142
1.0
143
1.0
 70
   688
 72
     1
 73
     0
 74
     5
  7

 75
    16
147
1.0
148
0.0
149
0.0
100
AcDbLayout
  1
Layout1
 70
     1
 71
     1
 10
0.0
 20
0.0
 11
420.0
 21
297.0
 12
0.0
 22
0.0
 32
0.0
 14
1.0000000000E+20
 24
1.0000000000E+20
 34
1.0000000000E+20
 15
-1.0000000000E+20
 25
-1.0000000000E+20
 35
-1.0000000000E+20
146
0.0
 13
0.0
 23
0.0
 33
0.0
 16
1.0
 26
0.0
 36
0.0
 17
0.0
 27
1.0
 37
0.0
 76
     0
330
1B
  0
LAYOUT
  5
26
102
{ACAD_REACTORS
330
1A
102
}
330
1A
100
AcDbPlotSettings
  1

  2
none_device
  4

  6

 40
0.0
 41
0.0
 42
0.0
 43
0.0
 44
0.0
 45
0.0
 46
0.0
 47
0.0
 48
0.0
 49
0.0
140
0.0
141
0.0
142
1.0
143
1.0
 70
   688
 72
     1
 73
     0
 74
     5
  7

 75
    16
147
1.0
148
0.0
149
0.0
100
AcDbLayout
  1
Layout2
 70
     1
 71
     2
 10
0.0
 20
0.0
 11
0.0
 21
0.0
 12
0.0
 22
0.0
 32
0.0
 14
0.0
 24
0.0
 34
0.0
 15
0.0
 25
0.0
 35
0.0
146
0.0
 13
0.0
 23
0.0
 33
0.0
 16
1.0
 26
0.0
 36
0.0
 17
0.0
 27
1.0
 37
0.0
 76
     0
330
23
  0
LAYOUT
  5
22
102
{ACAD_REACTORS
330
1A
102
}
330
1A
100
AcDbPlotSettings
  1

  2
none_device
  4
Letter_(8.50_x_11.00_Inches)
  6

 40
6.35
 41
6.35
 42
6.35000508
 43
6.35000508
 44
215.9
 45
279.4
 46
0.0
 47
0.0
 48
0.0
 49
0.0
140
0.0
141
0.0
142
1.0
143
1.0
 70
  1712
 72
     1
 73
     0
 74
     0
  7

 75
     0
147
1.0
148
0.0
149
0.0
100
AcDbLayout
  1
Model
 70
     1
 71
     0
 10
0.0
 20
0.0
 11
297.0
 21
210.0
 12
0.0
 22
0.0
 32
0.0
 14
0.0
 24
0.0
 34
0.0
 15
297.0
 25
210.0
 35
0.0
146
0.0
 13
0.0
 23
0.0
 33
0.0
 16
1.0
 26
0.0
 36
0.0
 17
0.0
 27
1.0
 37
0.0
 76
     0
330
1F
331
29
  0
MLINESTYLE
  5
18
102
{ACAD_REACTORS
330
17
102
}
330
17
100
AcDbMlineStyle
  2
Standard
 70
     0
  3

 62
   256
 51
90.0
 52
90.0
 71
     2
 49
0.5
 62
   256
  6
BYLAYER
 49
-0.5
 62
   256
  6
BYLAYER
  0
ACDBPLACEHOLDER
  5
F
102
{ACAD_REACTORS
330
E
102
}
330
E
  0
SCALE
  5
48
102
{ACAD_REACTORS
330
47
102
}
330
47
100
AcDbScale
 70
     0
300
1:1
140
1.0
141
1.0
290
     1
  0
SCALE
  5
49
102
{ACAD_REACTORS
330
47
102
}
330
47
100
AcDbScale
 70
     0
300
1:2
140
1.0
141
2.0
290
     0
  0
SCALE
  5
4A
102
{ACAD_REACTORS
330
47
102
}
330
47
100
AcDbScale
 70
     0
300
1:4
140
1.0
141
4.0
290
     0
  0
SCALE
  5
4B
102
{ACAD_REACTORS
330
47
102
}
330
47
100
AcDbScale
 70
     0
300
1:5
140
1.0
141
5.0
290
     0
  0
SCALE
  5
4C
102
{ACAD_REACTORS
330
47
102
}
330
47
100
AcDbScale
 70
     0
300
1:8
140
1.0
141
8.0
290
     0
  0
SCALE
  5
4D
102
{ACAD_REACTORS
330
47
102
}
330
47
100
AcDbScale
 70
     0
300
1:10
140
1.0
141
10.0
290
     0
  0
SCALE
  5
4E
102
{ACAD_REACTORS
330
47
102
}
330
47
100
AcDbScale
 70
     0
300
1:16
140
1.0
141
16.0
290
     0
  0
SCALE
  5
4F
102
{ACAD_REACTORS
330
47
102
}
330
47
100
AcDbScale
 70
     0
300
1:20
140
1.0
141
20.0
290
     0
  0
SCALE
  5
50
102
{ACAD_REACTORS
330
47
102
}
330
47
100
AcDbScale
 70
     0
300
1:30
140
1.0
141
30.0
290
     0
  0
SCALE
  5
51
102
{ACAD_REACTORS
330
47
102
}
330
47
100
AcDbScale
 70
     0
300
1:40
140
1.0
141
40.0
290
     0
  0
SCALE
  5
52
102
{ACAD_REACTORS
330
47
102
}
330
47
100
AcDbScale
 70
     0
300
1:50
140
1.0
141
50.0
290
     0
  0
SCALE
  5
53
102
{ACAD_REACTORS
330
47
102
}
330
47
100
AcDbScale
 70
     0
300
1:100
140
1.0
141
100.0
290
     0
  0
SCALE
  5
54
102
{ACAD_REACTORS
330
47
102
}
330
47
100
AcDbScale
 70
     0
300
2:1
140
2.0
141
1.0
290
     0
  0
SCALE
  5
55
102
{ACAD_REACTORS
330
47
102
}
330
47
100
AcDbScale
 70
     0
300
4:1
140
4.0
141
1.0
290
     0
  0
SCALE
  5
56
102
{ACAD_REACTORS
330
47
102
}
330
47
100
AcDbScale
 70
     0
300
8:1
140
8.0
141
1.0
290
     0
  0
SCALE
  5
57
102
{ACAD_REACTORS
330
47
102
}
330
47
100
AcDbScale
 70
     0
300
10:1
140
10.0
141
1.0
290
     0
  0
SCALE
  5
58
102
{ACAD_REACTORS
330
47
102
}
330
47
100
AcDbScale
 70
     0
300
100:1
140
100.0
141
1.0
290
     0
  0
ENDSEC
  0
EOF
