  0
SECTION
  2
HEADER
  9
$ACADVER
  1
AC1015
  9
$ACADMAINTVER
 70
     6
  9
$DWGCODEPAGE
  3
ANSI_936
  9
$INSBASE
 10
0.0
 20
0.0
 30
0.0
  9
$EXTMIN
 10
0.0
 20
0.0
 30
0.0
  9
$EXTMAX
 10
297.0
 20
210.0
 30
0.0
  9
$LIMMIN
 10
0.0
 20
0.0
  9
$LIMMAX
 10
297.0
 20
210.0
  9
$ORTHOMODE
 70
     0
  9
$REGENMODE
 70
     1
  9
$FILLMODE
 70
     1
  9
$QTEXTMODE
 70
     0
  9
$MIRRTEXT
 70
     1
  9
$LTSCALE
 40
1.0
  9
$ATTMODE
 70
     1
  9
$TEXTSIZE
 40
3.5
  9
$TRACEWID
 40
1.0
  9
$TEXTSTYLE
  7
Standard
  9
$CLAYER
  8
0
  9
$CELTYPE
  6
ByLayer
  9
$CECOLOR
 62
   256
  9
$CELTSCALE
 40
1.0
  9
$DISPSILH
 70
     0
  9
$DIMSCALE
 40
1.0
  9
$DIMASZ
 40
4.08
  9
$DIMEXO
 40
0.0
  9
$DIMDLI
 40
3.75
  9
$DIMRND
 40
0.0
  9
$DIMDLE
 40
0.0
  9
$DIMEXE
 40
2.0
  9
$DIMTP
 40
0.0
  9
$DIMTM
 40
0.0
  9
$DIMTXT
 40
3.5
  9
$DIMCEN
 40
2.5
  9
$DIMTSZ
 40
0.0
  9
$DIMTOL
 70
     0
  9
$DIMLIM
 70
     0
  9
$DIMTIH
 70
     1
  9
$DIMTOH
 70
     1
  9
$DIMSE1
 70
     0
  9
$DIMSE2
 70
     0
  9
$DIMTAD
 70
     1
  9
$DIMZIN
 70
     0
  9
$DIMBLK
  1

  9
$DIMASO
 70
     1
  9
$DIMSHO
 70
     1
  9
$DIMPOST
  1

  9
$DIMAPOST
  1

  9
$DIMALT
 70
     0
  9
$DIMALTD
 70
     3
  9
$DIMALTF
 40
0.0393700787
  9
$DIMLFAC
 40
2.0
  9
$DIMTOFL
 70
     1
  9
$DIMTVP
 40
0.0
  9
$DIMTIX
 70
     0
  9
$DIMSOXD
 70
     0
  9
$DIMSAH
 70
     0
  9
$DIMBLK1
  1

  9
$DIMBLK2
  1

  9
$DIMSTYLE
  2
ISO-25
  9
$DIMCLRD
 70
     0
  9
$DIMCLRE
 70
     0
  9
$DIMCLRT
 70
     0
  9
$DIMTFAC
 40
1.0
  9
$DIMGAP
 40
1.524
  9
$DIMJUST
 70
     0
  9
$DIMSD1
 70
     0
  9
$DIMSD2
 70
     0
  9
$DIMTOLJ
 70
     0
  9
$DIMTZIN
 70
     0
  9
$DIMALTZ
 70
     0
  9
$DIMALTTZ
 70
     0
  9
$DIMUPT
 70
     0
  9
$DIMDEC
 70
     2
  9
$DIMTDEC
 70
     2
  9
$DIMALTU
 70
     2
  9
$DIMALTTD
 70
     3
  9
$DIMTXSTY
  7
Standard
  9
$DIMAUNIT
 70
     0
  9
$DIMADEC
 70
     2
  9
$DIMALTRND
 40
0.0
  9
$DIMAZIN
 70
     0
  9
$DIMDSEP
 70
    44
  9
$DIMATFIT
 70
     3
  9
$DIMFRAC
 70
     0
  9
$DIMLDRBLK
  1

  9
$DIMLUNIT
 70
     2
  9
$DIMLWD
 70
    -2
  9
$DIMLWE
 70
    -2
  9
$DIMTMOVE
 70
     0
  9
$LUNITS
 70
     2
  9
$LUPREC
 70
     2
  9
$SKETCHINC
 40
1.0
  9
$FILLETRAD
 40
0.0
  9
$AUNITS
 70
     0
  9
$AUPREC
 70
     2
  9
$MENU
  1
.
  9
$ELEVATION
 40
0.0
  9
$PELEVATION
 40
0.0
  9
$THICKNESS
 40
0.0
  9
$LIMCHECK
 70
     0
  9
$CHAMFERA
 40
0.0
  9
$CHAMFERB
 40
0.0
  9
$CHAMFERC
 40
0.0
  9
$CHAMFERD
 40
0.0
  9
$SKPOLY
 70
     0
  9
$TDCREATE
 40
2461215.229729792
  9
$TDUCREATE
 40
2461214.896396458
  9
$TDUPDATE
 40
2461215.229730012
  9
$TDUUPDATE
 40
2461214.896396679
  9
$TDINDWG
 40
0.0000000116
  9
$TDUSRTIMER
 40
0.0000000116
  9
$USRTIMER
 70
     1
  9
$ANGBASE
 50
0.0
  9
$ANGDIR
 70
     0
  9
$PDMODE
 70
     0
  9
$PDSIZE
 40
-1.0
  9
$PLINEWID
 40
0.0
  9
$SPLFRAME
 70
     0
  9
$SPLINETYPE
 70
     6
  9
$SPLINESEGS
 70
     8
  9
$HANDSEED
  5
120
  9
$SURFTAB1
 70
     6
  9
$SURFTAB2
 70
     6
  9
$SURFTYPE
 70
     6
  9
$SURFU
 70
     6
  9
$SURFV
 70
     6
  9
$UCSBASE
  2

  9
$UCSNAME
  2

  9
$UCSORG
 10
0.0
 20
0.0
 30
0.0
  9
$UCSXDIR
 10
1.0
 20
0.0
 30
0.0
  9
$UCSYDIR
 10
0.0
 20
1.0
 30
0.0
  9
$UCSORTHOREF
  2

  9
$UCSORTHOVIEW
 70
     0
  9
$UCSORGTOP
 10
0.0
 20
0.0
 30
0.0
  9
$UCSORGBOTTOM
 10
0.0
 20
0.0
 30
0.0
  9
$UCSORGLEFT
 10
0.0
 20
0.0
 30
0.0
  9
$UCSORGRIGHT
 10
0.0
 20
0.0
 30
0.0
  9
$UCSORGFRONT
 10
0.0
 20
0.0
 30
0.0
  9
$UCSORGBACK
 10
0.0
 20
0.0
 30
0.0
  9
$PUCSBASE
  2

  9
$PUCSNAME
  2

  9
$PUCSORG
 10
0.0
 20
0.0
 30
0.0
  9
$PUCSXDIR
 10
1.0
 20
0.0
 30
0.0
  9
$PUCSYDIR
 10
0.0
 20
1.0
 30
0.0
  9
$PUCSORTHOREF
  2

  9
$PUCSORTHOVIEW
 70
     0
  9
$PUCSORGTOP
 10
0.0
 20
0.0
 30
0.0
  9
$PUCSORGBOTTOM
 10
0.0
 20
0.0
 30
0.0
  9
$PUCSORGLEFT
 10
0.0
 20
0.0
 30
0.0
  9
$PUCSORGRIGHT
 10
0.0
 20
0.0
 30
0.0
  9
$PUCSORGFRONT
 10
0.0
 20
0.0
 30
0.0
  9
$PUCSORGBACK
 10
0.0
 20
0.0
 30
0.0
  9
$USERI1
 70
     0
  9
$USERI2
 70
     0
  9
$USERI3
 70
     0
  9
$USERI4
 70
     0
  9
$USERI5
 70
     0
  9
$USERR1
 40
0.0
  9
$USERR2
 40
0.0
  9
$USERR3
 40
0.0
  9
$USERR4
 40
0.0
  9
$USERR5
 40
0.0
  9
$WORLDVIEW
 70
     1
  9
$SHADEDGE
 70
     3
  9
$SHADEDIF
 70
    70
  9
$TILEMODE
 70
     1
  9
$MAXACTVP
 70
    64
  9
$PINSBASE
 10
0.0
 20
0.0
 30
0.0
  9
$PLIMCHECK
 70
     0
  9
$PEXTMIN
 10
1.0000000000E+20
 20
1.0000000000E+20
 30
1.0000000000E+20
  9
$PEXTMAX
 10
-1.0000000000E+20
 20
-1.0000000000E+20
 30
-1.0000000000E+20
  9
$PLIMMIN
 10
0.0
 20
0.0
  9
$PLIMMAX
 10
420.0
 20
297.0
  9
$UNITMODE
 70
     0
  9
$VISRETAIN
 70
     1
  9
$PLINEGEN
 70
     0
  9
$PSLTSCALE
 70
     1
  9
$TREEDEPTH
 70
  3020
  9
$CMLSTYLE
  2
Standard
  9
$CMLJUST
 70
     0
  9
$CMLSCALE
 40
20.0
  9
$PROXYGRAPHICS
 70
     1
  9
$MEASUREMENT
 70
     1
  9
$CELWEIGHT
370
    -1
  9
$ENDCAPS
280
     0
  9
$JOINSTYLE
280
     0
  9
$LWDISPLAY
290
     1
  9
$INSUNITS
 70
     4
  9
$HYPERLINKBASE
  1

  9
$STYLESHEET
  1

  9
$XEDIT
290
     1
  9
$CEPSNTYPE
380
     0
  9
$PSTYLEMODE
290
     1
  9
$FINGERPRINTGUID
  2
{735eb9fd-29d8-4bc8-9cc0-f95fc1ac3e04}
  9
$VERSIONGUID
  2
{FAEB1C32-E019-11D5-929B-00C0DF256EC4}
  9
$EXTNAMES
290
     1
  9
$PSVPSCALE
 40
0.0
  9
$OLESTARTUP
290
     0
  0
ENDSEC
  0
SECTION
  2
CLASSES
  0
CLASS
  1
ACDBDICTIONARYWDFLT
  2
AcDbDictionaryWithDefault
  3
ObjectDBX Classes
 90
        0
280
     0
281
     0
  0
CLASS
  1
VISUALSTYLE
  2
AcDbVisualStyle
  3
ObjectDBX Classes
 90
     4095
280
     0
281
     0
  0
CLASS
  1
MATERIAL
  2
AcDbMaterial
  3
ObjectDBX Classes
 90
     1153
280
     0
281
     0
  0
CLASS
  1
SCALE
  2
AcDbScale
  3
ObjectDBX Classes
 90
     1153
280
     0
281
     0
  0
CLASS
  1
TABLESTYLE
  2
AcDbTableStyle
  3
ObjectDBX Classes
 90
     4095
280
     0
281
     0
  0
CLASS
  1
MLEADERSTYLE
  2
AcDbMLeaderStyle
  3
ACDB_MLEADERSTYLE_CLASS
 90
     4095
280
     0
281
     0
  0
CLASS
  1
SUN
  2
AcDbSun
  3
SCENEOE
 90
     1153
280
     0
281
     0
  0
CLASS
  1
ACDBPLACEHOLDER
  2
AcDbPlaceHolder
  3
ObjectDBX Classes
 90
        0
280
     0
281
     0
  0
CLASS
  1
LAYOUT
  2
AcDbLayout
  3
ObjectDBX Classes
 90
        0
280
     0
281
     0
  0
ENDSEC
  0
SECTION
  2
TABLES
  0
TABLE
  2
VPORT
  5
8
330
0
100
AcDbSymbolTable
 70
     1
  0
VPORT
  5
29
330
8
100
AcDbSymbolTableRecord
100
AcDbViewportTableRecord
  2
*Active
 70
     0
 10
0.0
 20
0.0
 11
1.0
 21
1.0
 12
148.5
 22
105.0
 13
0.0
 23
0.0
 14
10.0
 24
10.0
 15
10.0
 25
10.0
 16
0.0
 26
0.0
 36
1.0
 17
0.0
 27
0.0
 37
0.0
 40
210.0
 41
1.4142857143
 42
50.0
 43
0.0
 44
0.0
 50
0.0
 51
0.0
 71
     0
 72
  2000
 73
     1
 74
     3
 75
     0
 76
     0
 77
     0
 78
     0
281
     0
 65
     1
110
0.0
120
0.0
130
0.0
111
1.0
121
0.0
131
0.0
112
0.0
122
1.0
132
0.0
 79
     0
146
0.0
  0
ENDTAB
  0
TABLE
  2
LTYPE
  5
5
330
0
100
AcDbSymbolTable
 70
     6
  0
LTYPE
  5
14
330
5
100
AcDbSymbolTableRecord
100
AcDbLinetypeTableRecord
  2
ByBlock
 70
     0
  3

 72
    65
 73
     0
 40
0.0
  0
LTYPE
  5
15
330
5
100
AcDbSymbolTableRecord
100
AcDbLinetypeTableRecord
  2
ByLayer
 70
     0
  3

 72
    65
 73
     0
 40
0.0
  0
LTYPE
  5
16
330
5
100
AcDbSymbolTableRecord
100
AcDbLinetypeTableRecord
  2
Continuous
 70
     0
  3
Solid line
 72
    65
 73
     0
 40
0.0
  0
LTYPE
  5
5E
330
5
100
AcDbSymbolTableRecord
100
AcDbLinetypeTableRecord
  2
HIDDEN
 70
     0
  3
Hidden __ __ __ __ __ __ __ __ __ __ __ __ __ __
 72
    65
 73
     2
 40
1.905
 49
1.27
 74
     0
 49
-0.635
 74
     0
  0
LTYPE
  5
5F
330
5
100
AcDbSymbolTableRecord
100
AcDbLinetypeTableRecord
  2
PHANTOM
 70
     0
  3
Phantom ______  __  __  ______  __  __  ______
 72
    65
 73
     6
 40
12.7
 49
6.35
 74
     0
 49
-1.27
 74
     0
 49
1.27
 74
     0
 49
-1.27
 74
     0
 49
1.27
 74
     0
 49
-1.27
 74
     0
  0
LTYPE
  5
60
330
5
100
AcDbSymbolTableRecord
100
AcDbLinetypeTableRecord
  2
CENTER
 70
     0
  3
Center ____ _ ____ _ ____ _ ____ _ ____ _ ____
 72
    65
 73
     4
 40
10.16
 49
6.35
 74
     0
 49
-1.27
 74
     0
 49
1.27
 74
     0
 49
-1.27
 74
     0
  0
LTYPE
  5
61
330
5
100
AcDbSymbolTableRecord
100
AcDbLinetypeTableRecord
  2
CENTERX2
 70
     0
  3
Center (2x) ________  __  ________  __  _____
 72
    65
 73
     4
 40
20.32
 49
12.7
 74
     0
 49
-2.54
 74
     0
 49
2.54
 74
     0
 49
-2.54
 74
     0
  0
LTYPE
  5
62
330
5
100
AcDbSymbolTableRecord
100
AcDbLinetypeTableRecord
  2
DOT2
 70
     0
  3
Dot (.5x) ........................................
 72
    65
 73
     2
 40
0.635
 49
0.0
 74
     0
 49
-0.635
 74
     0
  0
ENDTAB
  0
TABLE
  2
LAYER
  5
2
330
0
100
AcDbSymbolTable
 70
    14
  0
LAYER
  5
10
330
2
100
AcDbSymbolTableRecord
100
AcDbLayerTableRecord
  2
0
 70
     0
 62
     7
  6
Continuous
370
    -3
390
F
  0
LAYER
  5
63
330
2
100
AcDbSymbolTableRecord
100
AcDbLayerTableRecord
  2
SLD-0
 70
     0
 62
     7
  6
Continuous
370
    -3
390
F
  0
LAYER
  5
64
330
2
100
AcDbSymbolTableRecord
100
AcDbLayerTableRecord
  2
5
 70
     0
 62
     7
  6
Continuous
370
    -3
390
F
  0
LAYER
  5
65
330
2
100
AcDbSymbolTableRecord
100
AcDbLayerTableRecord
  2
9
 70
     0
 62
     7
  6
Continuous
370
    -3
390
F
  0
LAYER
  5
66
330
2
100
AcDbSymbolTableRecord
100
AcDbLayerTableRecord
  2
10
 70
     0
 62
     7
  6
Continuous
370
    -3
390
F
  0
LAYER
  5
67
330
2
100
AcDbSymbolTableRecord
100
AcDbLayerTableRecord
  2
轮廓实线层
 70
     0
 62
     7
  6
Continuous
370
    50
390
F
  0
LAYER
  5
68
330
2
100
AcDbSymbolTableRecord
100
AcDbLayerTableRecord
  2
细线层
 70
     0
 62
     4
  6
Continuous
370
    25
390
F
  0
LAYER
  5
69
330
2
100
AcDbSymbolTableRecord
100
AcDbLayerTableRecord
  2
中心线层
 70
     0
 62
     1
  6
CENTERX2
370
    25
390
F
  0
LAYER
  5
6A
330
2
100
AcDbSymbolTableRecord
100
AcDbLayerTableRecord
  2
虚线层
 70
     0
 62
     6
  6
HIDDEN
370
    25
390
F
  0
LAYER
  5
6B
330
2
100
AcDbSymbolTableRecord
100
AcDbLayerTableRecord
  2
剖面线层
 70
     0
 62
     2
  6
Continuous
370
    25
390
F
  0
LAYER
  5
6C
330
2
100
AcDbSymbolTableRecord
100
AcDbLayerTableRecord
  2
文字层
 70
     0
 62
     3
  6
Continuous
370
    25
390
F
  0
LAYER
  5
6D
330
2
100
AcDbSymbolTableRecord
100
AcDbLayerTableRecord
  2
标注层
 70
     0
 62
     4
  6
Continuous
370
    25
390
F
  0
LAYER
  5
6E
330
2
100
AcDbSymbolTableRecord
100
AcDbLayerTableRecord
  2
符号标注层
 70
     0
 62
    31
  6
Continuous
370
    25
390
F
  0
LAYER
  5
6F
330
2
100
AcDbSymbolTableRecord
100
AcDbLayerTableRecord
  2
双点划线层
 70
     0
 62
     6
  6
PHANTOM
370
    25
390
F
  0
ENDTAB
  0
TABLE
  2
STYLE
  5
3
330
0
100
AcDbSymbolTable
 70
     1
  0
STYLE
  5
11
330
3
100
AcDbSymbolTableRecord
100
AcDbTextStyleTableRecord
  2
Standard
 70
     0
 40
0.0
 41
1.0
 50
0.0
 71
     0
 42
3.5
  3
txt
  4

  0
ENDTAB
  0
TABLE
  2
VIEW
  5
6
330
0
100
AcDbSymbolTable
 70
     0
  0
ENDTAB
  0
TABLE
  2
UCS
  5
7
330
0
100
AcDbSymbolTable
 70
     0
  0
ENDTAB
  0
TABLE
  2
APPID
  5
9
330
0
100
AcDbSymbolTable
 70
     1
  0
APPID
  5
12
330
9
100
AcDbSymbolTableRecord
100
AcDbRegAppTableRecord
  2
ACAD
 70
     0
  0
ENDTAB
  0
TABLE
  2
DIMSTYLE
  5
A
330
0
100
AcDbSymbolTable
 70
     1
100
AcDbDimStyleTable
  0
DIMSTYLE
105
27
330
A
100
AcDbSymbolTableRecord
100
AcDbDimStyleTableRecord
  2
ISO-25
 70
     0
 41
2.5
 42
0.625
 43
3.75
 44
1.25
 73
     0
 74
     0
 77
     1
 78
     8
140
2.5
141
2.5
143
0.0393700787
147
0.625
171
     3
172
     1
178
     0
271
     2
272
     2
274
     3
278
    44
283
     0
284
     8
340
11
  0
ENDTAB
  0
TABLE
  2
BLOCK_RECORD
  5
1
330
0
100
AcDbSymbolTable
 70
     3
  0
BLOCK_RECORD
  5
1F
330
1
100
AcDbSymbolTableRecord
100
AcDbBlockTableRecord
  2
*Model_Space
340
22
  0
BLOCK_RECORD
  5
1B
330
1
100
AcDbSymbolTableRecord
100
AcDbBlockTableRecord
  2
*Paper_Space
340
1E
  0
BLOCK_RECORD
  5
23
330
1
100
AcDbSymbolTableRecord
100
AcDbBlockTableRecord
  2
*Paper_Space0
340
26
  0
BLOCK_RECORD
  5
9A
330
1
100
AcDbSymbolTableRecord
100
AcDbBlockTableRecord
  2
SW_CENTERMARKSYMBOL_0
340
0
102
{BLKREFS
331
A5
102
}
  0
BLOCK_RECORD
  5
DA
330
1
100
AcDbSymbolTableRecord
100
AcDbBlockTableRecord
  2
SW_CENTERMARKSYMBOL_1
340
0
102
{BLKREFS
331
E5
102
}
  0
ENDTAB
  0
ENDSEC
  0
SECTION
  2
BLOCKS
  0
BLOCK
  5
20
330
1F
100
AcDbEntity
  8
0
100
AcDbBlockBegin
  2
*Model_Space
 70
     0
 10
0.0
 20
0.0
 30
0.0
  3
*Model_Space
  1

  0
ENDBLK
  5
21
330
1F
100
AcDbEntity
  8
0
100
AcDbBlockEnd
  0
BLOCK
  5
1C
330
1B
100
AcDbEntity
 67
     1
  8
0
100
AcDbBlockBegin
  2
*Paper_Space
 70
     0
 10
0.0
 20
0.0
 30
0.0
  3
*Paper_Space
  1

  0
ENDBLK
  5
1D
330
1B
100
AcDbEntity
 67
     1
  8
0
100
AcDbBlockEnd
  0
BLOCK
  5
24
330
23
100
AcDbEntity
  8
0
100
AcDbBlockBegin
  2
*Paper_Space0
 70
     0
 10
0.0
 20
0.0
 30
0.0
  3
*Paper_Space0
  1

  0
ENDBLK
  5
25
330
23
100
AcDbEntity
  8
0
100
AcDbBlockEnd
  0
BLOCK
  5
9B
330
9A
100
AcDbEntity
  8
0
100
AcDbBlockBegin
  2
SW_CENTERMARKSYMBOL_0
 70
     0
 10
0.0
 20
0.0
 30
0.0
  3
SW_CENTERMARKSYMBOL_0
  1

  0
LINE
  5
9D
330
9A
100
AcDbEntity
  8
10
 62
     0
100
AcDbLine
 10
0.0
 20
0.0
 30
0.0
 11
0.0
 21
2.5
 31
0.0
  0
LINE
  5
9E
330
9A
100
AcDbEntity
  8
10
 62
     0
100
AcDbLine
 10
0.0
 20
0.0
 30
0.0
 11
-2.5
 21
0.0
 31
0.0
  0
LINE
  5
9F
330
9A
100
AcDbEntity
  8
10
 62
     0
100
AcDbLine
 10
0.0
 20
0.0
 30
0.0
 11
0.0
 21
-2.5
 31
0.0
  0
LINE
  5
A0
330
9A
100
AcDbEntity
  8
10
 62
     0
100
AcDbLine
 10
0.0
 20
0.0
 30
0.0
 11
2.5
 21
0.0
 31
0.0
  0
LINE
  5
A1
330
9A
100
AcDbEntity
  8
10
 62
     0
100
AcDbLine
 10
0.0
 20
5.0
 30
0.0
 11
0.0
 21
6.7216053666
 31
0.0
  0
LINE
  5
A2
330
9A
100
AcDbEntity
  8
10
 62
     0
100
AcDbLine
 10
-5.0
 20
0.0
 30
0.0
 11
-6.7216053666
 21
0.0
 31
0.0
  0
LINE
  5
A3
330
9A
100
AcDbEntity
  8
10
 62
     0
100
AcDbLine
 10
0.0
 20
-5.0
 30
0.0
 11
0.0
 21
-6.7216053666
 31
0.0
  0
LINE
  5
A4
330
9A
100
AcDbEntity
  8
10
 62
     0
100
AcDbLine
 10
5.0
 20
0.0
 30
0.0
 11
6.7216053666
 21
0.0
 31
0.0
  0
ENDBLK
  5
9C
330
9A
100
AcDbEntity
  8
0
100
AcDbBlockEnd
  0
BLOCK
  5
DB
330
DA
100
AcDbEntity
  8
0
100
AcDbBlockBegin
  2
SW_CENTERMARKSYMBOL_1
 70
     0
 10
0.0
 20
0.0
 30
0.0
  3
SW_CENTERMARKSYMBOL_1
  1

  0
LINE
  5
DD
330
DA
100
AcDbEntity
  8
10
 62
     0
100
AcDbLine
 10
0.0
 20
0.0
 30
0.0
 11
0.0
 21
2.5
 31
0.0
  0
LINE
  5
DE
330
DA
100
AcDbEntity
  8
10
 62
     0
100
AcDbLine
 10
0.0
 20
0.0
 30
0.0
 11
-2.5
 21
0.0
 31
0.0
  0
LINE
  5
DF
330
DA
100
AcDbEntity
  8
10
 62
     0
100
AcDbLine
 10
0.0
 20
0.0
 30
0.0
 11
0.0
 21
-2.5
 31
0.0
  0
LINE
  5
E0
330
DA
100
AcDbEntity
  8
10
 62
     0
100
AcDbLine
 10
0.0
 20
0.0
 30
0.0
 11
2.5
 21
0.0
 31
0.0
  0
LINE
  5
E1
330
DA
100
AcDbEntity
  8
10
 62
     0
100
AcDbLine
 10
0.0
 20
5.0
 30
0.0
 11
0.0
 21
9.5552856812
 31
0.0
  0
LINE
  5
E2
330
DA
100
AcDbEntity
  8
10
 62
     0
100
AcDbLine
 10
-5.0
 20
0.0
 30
0.0
 11
-9.5552856812
 21
0.0
 31
0.0
  0
LINE
  5
E3
330
DA
100
AcDbEntity
  8
10
 62
     0
100
AcDbLine
 10
0.0
 20
-5.0
 30
0.0
 11
0.0
 21
-9.5552856812
 31
0.0
  0
LINE
  5
E4
330
DA
100
AcDbEntity
  8
10
 62
     0
100
AcDbLine
 10
5.0
 20
0.0
 30
0.0
 11
9.5552856812
 21
0.0
 31
0.0
  0
ENDBLK
  5
DC
330
DA
100
AcDbEntity
  8
0
100
AcDbBlockEnd
  0
ENDSEC
  0
SECTION
  2
ENTITIES
  0
LINE
  5
70
330
1F
100
AcDbEntity
  8
0
  6
Continuous
 62
     7
370
    25
100
AcDbLine
 10
62.2767561649
 20
62.7743106346
 30
0.0
 11
62.5696669685
 21
62.7693149982
 31
0.0
  0
SPLINE
  5
71
330
1F
100
AcDbEntity
  8
0
  6
Continuous
 62
     7
370
    25
100
AcDbSpline
210
0.0
220
0.0
230
1.0
 70
     8
 71
     3
 72
    19
 73
    15
 74
     0
 42
0.00000001
 43
0.00000001
 40
0.0
 40
0.0
 40
0.0
 40
0.0
 40
0.100549032181283
 40
0.1877799734051952
 40
0.2576990933095257
 40
0.3114114053161794
 40
0.3504730134581235
 40
0.4223146889768428
 40
0.504278145171826
 40
0.5529589183906207
 40
0.6147662476143133
 40
0.7193839596067026
 40
0.8490120009904842
 40
1.0
 40
1.0
 40
1.0
 40
1.0
 10
62.67569954136756
 20
62.76490842879141
 30
0.0
 10
62.93274859143497
 20
62.74725306783602
 30
0.0
 10
63.41279959479479
 20
62.71428086374074
 30
0.0
 10
64.11440114832412
 20
62.57832504596468
 30
0.0
 10
64.68731932980296
 20
62.40251999233715
 30
0.0
 10
65.12034264108857
 20
62.21593629545537
 30
0.0
 10
65.53944201376844
 20
61.98629016813907
 30
0.0
 10
65.99479569882628
 20
61.65630110815311
 30
0.0
 10
66.39332681129584
 20
61.21920125909126
 30
0.0
 10
66.69745450418081
 20
60.751286928981
 30
0.0
 10
66.97213038127938
 20
60.18930005304356
 30
0.0
 10
67.22550733201061
 20
59.36431698204699
 30
0.0
 10
67.37734110401928
 20
58.25272401298735
 30
0.0
 10
67.37963777476023
 20
57.43824031928395
 30
0.0
 10
67.38087351922826
 20
57.0
 30
0.0
  0
LINE
  5
72
330
1F
100
AcDbEntity
  8
0
  6
Continuous
 62
     7
370
    25
100
AcDbLine
 10
67.3800460994
 20
57.0
 30
0.0
 11
67.3800460994
 21
54.7496476463
 31
0.0
  0
LINE
  5
73
330
1F
100
AcDbEntity
  8
0
  6
Continuous
 62
     7
370
    25
100
AcDbLine
 10
33.0
 20
72.9706759281
 30
0.0
 11
33.0
 21
62.7830210502
 31
0.0
  0
LINE
  5
74
330
1F
100
AcDbEntity
  8
0
  6
Continuous
 62
     7
370
    25
100
AcDbLine
 10
34.15660421
 20
74.3490631506
 30
0.0
 11
33.0
 21
72.9706759281
 31
0.0
  0
SPLINE
  5
75
330
1F
100
AcDbEntity
  8
0
  6
Continuous
 62
     7
370
    25
100
AcDbSpline
210
0.0
220
0.0
230
1.0
 70
     8
 71
     3
 72
    20
 73
    16
 74
     0
 42
0.00000001
 43
0.00000001
 40
0.0
 40
0.0
 40
0.0
 40
0.0
 40
0.0718476468956846
 40
0.1252035799395026
 40
0.1901069564372102
 40
0.250512277092078
 40
0.3803246862150229
 40
0.499871560836416
 40
0.6150227243512746
 40
0.7495834615482584
 40
0.8088817293972821
 40
0.864518133760962
 40
0.9166875798821141
 40
0.9582807779927992
 40
1.0
 40
1.0
 40
1.0
 40
1.0
 10
61.69562699868752
 20
62.78302105019662
 30
0.0
 10
61.93667643413768
 20
62.78204211715054
 30
0.0
 10
62.35673545575844
 20
62.7803362029392
 30
0.0
 10
62.99427627467531
 20
62.7570153095518
 30
0.0
 10
63.59134038750992
 20
62.69693602833326
 30
0.0
 10
64.43447405171092
 20
62.54707520920535
 30
0.0
 10
65.43035090575333
 20
62.21725197126859
 30
0.0
 10
66.46683453192084
 20
61.53599868882328
 30
0.0
 10
67.26703405862905
 20
60.57248264404237
 30
0.0
 10
67.74762909706133
 20
59.64806164084619
 30
0.0
 10
68.06467105271217
 20
58.87335217163373
 30
0.0
 10
68.24961418156667
 20
58.34370449962003
 30
0.0
 10
68.38391147280642
 20
57.86047291287476
 30
0.0
 10
68.47870238445262
 20
57.41555965653987
 30
0.0
 10
68.51731517614223
 20
57.13865950469625
 30
0.0
 10
68.53665077612287
 20
57.0
 30
0.0
  0
LINE
  5
76
330
1F
100
AcDbEntity
  8
0
  6
Continuous
 62
     7
370
    25
100
AcDbLine
 10
109.8679157992
 20
39.6509368494
 30
0.0
 11
133.0
 21
39.6509368494
 31
0.0
  0
LINE
  5
77
330
1F
100
AcDbEntity
  8
0
  6
Continuous
 62
     7
370
    25
100
AcDbLine
 10
109.8679157992
 20
39.6509368494
 30
0.0
 11
68.5366503094
 21
54.3464979124
 31
0.0
  0
LINE
  5
78
330
1F
100
AcDbEntity
  8
0
  6
Continuous
 62
     7
370
    25
100
AcDbLine
 10
57.8207263474
 20
62.7830210502
 30
0.0
 11
61.6956269987
 21
62.7830210502
 31
0.0
  0
LINE
  5
79
330
1F
100
AcDbEntity
  8
0
  6
Continuous
 62
     7
370
    25
100
AcDbLine
 10
133.0
 20
72.9706759281
 30
0.0
 11
57.8207263474
 21
72.9706759281
 31
0.0
  0
LINE
  5
7A
330
1F
100
AcDbEntity
  8
0
  6
Continuous
 62
     7
370
    25
100
AcDbLine
 10
133.0
 20
39.6509368494
 30
0.0
 11
133.0
 21
72.9706759281
 31
0.0
  0
CIRCLE
  5
7B
330
1F
100
AcDbEntity
  8
0
  6
Continuous
 62
     7
370
    25
100
AcDbCircle
 10
115.6509368494
 20
57.578302105
 30
0.0
 40
4.22160536664353
  0
SPLINE
  5
7C
330
1F
100
AcDbEntity
  8
0
  6
Continuous
 62
     7
370
    25
100
AcDbSpline
210
0.0
220
0.0
230
1.0
 70
    24
 71
     3
 72
    12
 73
     8
 74
     0
 42
0.00000001
 43
0.00000001
 40
0.0
 40
0.0
 40
0.0
 40
0.0
 40
0.1768436366079314
 40
0.3857359802988807
 40
0.6207284174713059
 40
0.8688179462410006
 40
0.9999999999999999
 40
0.9999999999999999
 40
0.9999999999999999
 40
0.9999999999999999
 10
68.5366503094152
 20
54.34649791244954
 30
0.0
 10
68.43299934631489
 20
54.38335158821854
 30
0.0
 10
68.20691314594421
 20
54.46373779279479
 30
0.0
 10
67.86640539163699
 20
54.58480721654846
 30
0.0
 10
67.56754783751485
 20
54.69106768023634
 30
0.0
 10
67.38820126955862
 20
54.75483534884298
 30
0.0
 10
67.39904207617249
 20
54.75098083982472
 30
0.0
 10
67.40279168289634
 20
54.74964764632291
 30
0.0
  0
LINE
  5
7D
330
1F
100
AcDbEntity
  8
0
  6
Continuous
 62
     7
370
    25
100
AcDbLine
 10
57.8207263474
 20
72.9706759281
 30
0.0
 11
33.0
 21
72.9706759281
 31
0.0
  0
LINE
  5
7E
330
1F
100
AcDbEntity
  8
0
  6
Continuous
 62
     7
370
    25
100
AcDbLine
 10
33.0
 20
62.7830210502
 30
0.0
 11
57.8207263474
 21
62.7830210502
 31
0.0
  0
LINE
  5
7F
330
1F
100
AcDbEntity
  8
0
  6
Continuous
 62
     7
370
    25
100
AcDbLine
 10
34.15660421
 20
74.3490631506
 30
0.0
 11
57.8207263474
 21
74.3490631506
 31
0.0
  0
LINE
  5
80
330
1F
100
AcDbEntity
  8
0
  6
Continuous
 62
     7
370
    25
100
AcDbLine
 10
57.8207263474
 20
74.3490631506
 30
0.0
 11
133.0
 21
74.3490631506
 31
0.0
  0
LINE
  5
81
330
1F
100
AcDbEntity
  8
0
  6
Continuous
 62
     7
370
    25
100
AcDbLine
 10
133.0
 20
74.3490631506
 30
0.0
 11
133.0
 21
72.9706759281
 31
0.0
  0
CIRCLE
  5
82
330
1F
100
AcDbEntity
  8
0
  6
Continuous
 62
     7
370
    25
100
AcDbCircle
 10
115.6509368494
 20
57.578302105
 30
0.0
 40
2.197547999074715
  0
SPLINE
  5
83
330
1F
100
AcDbEntity
  8
0
  6
HIDDEN
 62
     7
370
    18
100
AcDbSpline
210
0.0
220
0.0
230
1.0
 70
    24
 71
     3
 72
    20
 73
    16
 74
     0
 42
0.00000001
 43
0.00000001
 40
0.0
 40
0.0
 40
0.0
 40
0.0
 40
0.1249999999999999
 40
0.1249999999999999
 40
0.2499999999999997
 40
0.2499999999999997
 40
0.3749999999999996
 40
0.3749999999999996
 40
0.4999999999999994
 40
0.4999999999999994
 40
0.6249999999999993
 40
0.6249999999999993
 40
0.7499999999999991
 40
0.7499999999999991
 40
1.0
 40
1.0
 40
1.0
 40
1.0
 10
65.67398139704531
 20
62.78302105019662
 30
0.0
 10
65.32890162599836
 20
62.78302105019662
 30
0.0
 10
64.99949046951556
 20
62.78302105019662
 30
0.0
 10
64.37200538567836
 20
62.78302105019662
 30
0.0
 10
64.07268306931778
 20
62.78302105019662
 30
0.0
 10
63.51036922174946
 20
62.78302105019662
 30
0.0
 10
63.25472049434639
 20
62.78302105019662
 30
0.0
 10
62.79443943230248
 20
62.78302105019663
 30
0.0
 10
62.58894896441205
 20
62.78302105019663
 30
0.0
 10
62.23241695439174
 20
62.78302105019663
 30
0.0
 10
62.08336394439848
 20
62.78302105019662
 30
0.0
 10
61.84368391444571
 20
62.78302105019662
 30
0.0
 10
61.75266243224429
 20
62.78302105019663
 30
0.0
 10
61.56960374414219
 20
62.78302105019662
 30
0.0
 10
61.57093178719015
 20
62.78302105019662
 30
0.0
 10
61.69562699868752
 20
62.78302105019662
 30
0.0
  0
SPLINE
  5
84
330
1F
100
AcDbEntity
  8
0
  6
HIDDEN
 62
     7
370
    18
100
AcDbSpline
210
0.0
220
0.0
230
1.0
 70
    24
 71
     3
 72
     8
 73
     4
 74
     0
 42
0.00000001
 43
0.00000001
 40
0.0
 40
0.0
 40
0.0
 40
0.0
 40
1.0
 40
1.0
 40
1.0
 40
1.0
 10
71.48598398241091
 20
62.78302105019662
 30
0.0
 10
69.80855220576908
 20
62.78302105019662
 30
0.0
 10
67.87121801064718
 20
62.78302105019662
 30
0.0
 10
65.67398139704531
 20
62.78302105019662
 30
0.0
  0
LINE
  5
85
330
1F
100
AcDbEntity
  8
0
  6
HIDDEN
 62
     7
370
    18
100
AcDbLine
 10
109.8679157992
 20
48.9037705297
 30
0.0
 11
133.0
 21
48.9037705297
 31
0.0
  0
LINE
  5
86
330
1F
100
AcDbEntity
  8
0
  6
HIDDEN
 62
     7
370
    18
100
AcDbLine
 10
109.8679157992
 20
66.2528336803
 30
0.0
 11
109.8679157992
 21
48.9037705297
 31
0.0
  0
LINE
  5
87
330
1F
100
AcDbEntity
  8
0
  6
HIDDEN
 62
     7
370
    18
100
AcDbLine
 10
109.8679157992
 20
66.2528336803
 30
0.0
 11
133.0
 21
66.2528336803
 31
0.0
  0
SPLINE
  5
88
330
1F
100
AcDbEntity
  8
0
  6
HIDDEN
 62
     7
370
    18
100
AcDbSpline
210
0.0
220
0.0
230
1.0
 70
     8
 71
     3
 72
    10
 73
     6
 74
     0
 42
0.00000001
 43
0.00000001
 40
0.0
 40
0.0
 40
0.0
 40
0.0
 40
0.5
 40
0.5
 40
1.0
 40
1.0
 40
1.0
 40
1.0
 10
78.80600218374595
 20
56.83286213062236
 30
0.0
 10
78.12212335714086
 20
55.92687470664477
 30
0.0
 10
77.34979407311893
 20
55.10188354301995
 30
0.0
 10
75.653110696019
 20
53.6468490468544
 30
0.0
 10
74.72887982397484
 20
53.01691138568243
 30
0.0
 10
73.74662454597132
 20
52.49406262834071
 30
0.0
  0
LINE
  5
89
330
1F
100
AcDbEntity
  8
0
  6
HIDDEN
 62
     7
370
    18
100
AcDbLine
 10
109.8679157992
 20
39.6509368494
 30
0.0
 11
110.8654203335
 21
45.4339578996
 31
0.0
  0
LINE
  5
8A
330
1F
100
AcDbEntity
  8
0
  6
HIDDEN
 62
     7
370
    18
100
AcDbLine
 10
82.4056332094
 20
73.1924589406
 30
0.0
 11
91.6584668897
 21
73.1924589406
 31
0.0
  0
LINE
  5
8B
330
1F
100
AcDbEntity
  8
0
  6
HIDDEN
 62
     7
370
    18
100
AcDbLine
 10
91.6584668897
 20
73.1924589406
 30
0.0
 11
133.0
 21
73.1924589406
 31
0.0
  0
LINE
  5
8C
330
1F
100
AcDbEntity
  8
0
  6
HIDDEN
 62
     7
370
    18
100
AcDbLine
 10
133.0
 20
45.4339578996
 30
0.0
 11
110.8654203335
 21
45.4339578996
 31
0.0
  0
LINE
  5
8D
330
1F
100
AcDbEntity
  8
0
  6
HIDDEN
 62
     7
370
    18
100
AcDbLine
 10
110.8654203335
 20
45.4339578996
 30
0.0
 11
78.8060021837
 21
56.8328621306
 31
0.0
  0
SPLINE
  5
8E
330
1F
100
AcDbEntity
  8
0
  6
HIDDEN
 62
     7
370
    18
100
AcDbSpline
210
0.0
220
0.0
230
1.0
 70
     8
 71
     3
 72
    30
 73
    26
 74
     0
 42
0.00000001
 43
0.00000001
 40
0.0
 40
0.0
 40
0.0
 40
0.0
 40
0.125
 40
0.125
 40
0.1874999999999999
 40
0.1874999999999999
 40
0.2499999999999998
 40
0.2499999999999998
 40
0.3124999999999998
 40
0.3124999999999998
 40
0.3749999999999998
 40
0.3749999999999998
 40
0.4374999999999998
 40
0.4374999999999998
 40
0.4999999999999998
 40
0.4999999999999998
 40
0.5624999999999998
 40
0.5624999999999998
 40
0.6249999999999998
 40
0.6249999999999998
 40
0.7499999999999998
 40
0.7499999999999998
 40
0.8749999999999999
 40
0.8749999999999999
 40
1.0
 40
1.0
 40
1.0
 40
1.0
 10
78.80592194953387
 20
57.0
 30
0.0
 10
78.80592194953296
 20
57.45858032451961
 30
0.0
 10
78.80321670433375
 20
57.91693022440382
 30
0.0
 10
78.73679867091033
 20
58.59914342320647
 30
0.0
 10
78.70482304929988
 20
58.82570999835652
 30
0.0
 10
78.61459373630537
 20
59.27660486184618
 30
0.0
 10
78.5561630200084
 20
59.50086145063505
 30
0.0
 10
78.41006716624285
 20
59.93493614913814
 30
0.0
 10
78.32224033319231
 20
60.14609684777756
 30
0.0
 10
78.11101648948458
 20
60.55427420058975
 30
0.0
 10
77.98677406558927
 20
60.75150262151487
 30
0.0
 10
77.70843959218676
 20
61.1129370997508
 30
0.0
 10
77.5533518836751
 20
61.2792911717866
 30
0.0
 10
77.21077209516476
 20
61.58276466707363
 30
0.0
 10
77.0218513384061
 20
61.72025691671153
 30
0.0
 10
76.63056707189693
 20
61.95837584359658
 30
0.0
 10
76.42658685590574
 20
62.06090251371842
 30
0.0
 10
76.00553472392438
 20
62.23999756389654
 30
0.0
 10
75.78726512522805
 20
62.31685786369822
 30
0.0
 10
75.12673669580128
 20
62.51304457640499
 30
0.0
 10
74.67928280711529
 20
62.59942277748797
 30
0.0
 10
73.77578350816675
 20
62.71844838526292
 30
0.0
 10
73.31919405213792
 20
62.75026409837442
 30
0.0
 10
72.40282260146577
 20
62.78268675268132
 30
0.0
 10
71.94440572542584
 20
62.7830210501965
 30
0.0
 10
71.48598398241091
 20
62.78302105019662
 30
0.0
  0
LINE
  5
8F
330
1F
100
AcDbEntity
  8
0
  6
HIDDEN
 62
     7
370
    18
100
AcDbLine
 10
78.8060021837
 20
56.8328621306
 30
0.0
 11
78.8060021837
 21
57.0
 31
0.0
  0
LINE
  5
90
330
1F
100
AcDbEntity
  8
0
  6
HIDDEN
 62
     7
370
    18
100
AcDbLine
 10
71.4859839824
 20
62.7830210502
 30
0.0
 11
91.6584668897
 21
62.7830210502
 31
0.0
  0
LINE
  5
91
330
1F
100
AcDbEntity
  8
0
  6
HIDDEN
 62
     7
370
    18
100
AcDbLine
 10
64.8760120287
 20
69.1443442054
 30
0.0
 11
50.7654406662
 21
69.1443442054
 31
0.0
  0
LINE
  5
92
330
1F
100
AcDbEntity
  8
0
  6
HIDDEN
 62
     7
370
    18
100
AcDbLine
 10
81.0272459869
 20
74.3490631506
 30
0.0
 11
82.4056332094
 21
73.1924589406
 31
0.0
  0
LINE
  5
93
330
1F
100
AcDbEntity
  8
0
  6
HIDDEN
 62
     7
370
    18
100
AcDbLine
 10
82.4056332094
 20
73.1924589406
 30
0.0
 11
82.4056332094
 21
62.7830210502
 31
0.0
  0
LINE
  5
94
330
1F
100
AcDbEntity
  8
0
  6
HIDDEN
 62
     7
370
    18
100
AcDbLine
 10
64.8760120287
 20
62.7830210502
 30
0.0
 11
64.8760120287
 21
69.1443442054
 31
0.0
  0
LINE
  5
95
330
1F
100
AcDbEntity
  8
0
  6
HIDDEN
 62
     7
370
    18
100
AcDbLine
 10
50.7654406662
 20
69.1443442054
 30
0.0
 11
50.7654406662
 21
62.7830210502
 31
0.0
  0
LINE
  5
96
330
1F
100
AcDbEntity
  8
0
  6
HIDDEN
 62
     7
370
    18
100
AcDbLine
 10
82.6414526949
 20
73.1924589406
 30
0.0
 11
81.2630654724
 21
74.3490631506
 31
0.0
  0
LINE
  5
97
330
1F
100
AcDbEntity
  8
0
  6
HIDDEN
 62
     7
370
    18
100
AcDbLine
 10
82.6414526949
 20
62.7830210502
 30
0.0
 11
82.6414526949
 21
73.1924589406
 31
0.0
  0
LINE
  5
98
330
1F
100
AcDbEntity
  8
0
  6
HIDDEN
 62
     7
370
    18
100
AcDbLine
 10
60.7122368725
 20
69.1443442054
 30
0.0
 11
60.7122368725
 21
74.3490631506
 31
0.0
  0
LINE
  5
99
330
1F
100
AcDbEntity
  8
0
  6
HIDDEN
 62
     7
370
    18
100
AcDbLine
 10
54.9292158223
 20
74.3490631506
 30
0.0
 11
54.9292158223
 21
69.1443442054
 31
0.0
  0
INSERT
  5
A5
330
1F
100
AcDbEntity
  8
10
100
AcDbBlockReference
  2
SW_CENTERMARKSYMBOL_0
 10
115.6509368494
 20
57.578302105
 30
0.0
  0
ARC
  5
A6
330
1F
100
AcDbEntity
  8
0
  6
Continuous
 62
     7
370
    25
100
AcDbCircle
 10
57.8207263474
 20
157.9998365566
 30
0.0
 40
23.6641221374046
100
AcDbArc
 50
90.0
 51
270.0
  0
ARC
  5
A7
330
1F
100
AcDbEntity
  8
0
  6
Continuous
 62
     7
370
    25
100
AcDbCircle
 10
57.8207263474
 20
157.9998365566
 30
0.0
 40
24.82072634744392
100
AcDbArc
 50
90.0
 51
270.0
  0
LINE
  5
A8
330
1F
100
AcDbEntity
  8
0
  6
Continuous
 62
     7
370
    25
100
AcDbLine
 10
133.0
 20
181.663958694
 30
0.0
 11
57.8207263474
 21
181.663958694
 31
0.0
  0
LINE
  5
A9
330
1F
100
AcDbEntity
  8
0
  6
Continuous
 62
     7
370
    25
100
AcDbLine
 10
57.8207263474
 20
182.8205629041
 30
0.0
 11
133.0
 21
182.8205629041
 31
0.0
  0
LINE
  5
AA
330
1F
100
AcDbEntity
  8
0
  6
Continuous
 62
     7
370
    25
100
AcDbLine
 10
133.0
 20
182.8205629041
 30
0.0
 11
133.0
 21
181.663958694
 31
0.0
  0
LINE
  5
AB
330
1F
100
AcDbEntity
  8
0
  6
Continuous
 62
     7
370
    25
100
AcDbLine
 10
91.6584668897
 20
172.6329080262
 30
0.0
 11
133.0
 21
172.6329080262
 31
0.0
  0
ARC
  5
AC
330
1F
100
AcDbEntity
  8
0
  6
Continuous
 62
     7
370
    25
100
AcDbCircle
 10
91.6584668897
 20
162.0016871234
 30
0.0
 40
10.63122090283859
100
AcDbArc
 50
90.0
 51
186.7448067703
  0
ARC
  5
AD
330
1F
100
AcDbEntity
  8
0
  6
Continuous
 62
     7
370
    25
100
AcDbCircle
 10
57.8207263474
 20
157.9998365566
 30
0.0
 40
23.44233912491994
100
AcDbArc
 50
353.2551932297
 51
6.7448067703
  0
ARC
  5
AE
330
1F
100
AcDbEntity
  8
0
  6
Continuous
 62
     7
370
    25
100
AcDbCircle
 10
91.6584668897
 20
153.9979859899
 30
0.0
 40
10.63122090283858
100
AcDbArc
 50
173.2551932297
 51
270.0
  0
LINE
  5
AF
330
1F
100
AcDbEntity
  8
0
  6
Continuous
 62
     7
370
    25
100
AcDbLine
 10
133.0
 20
143.3667650871
 30
0.0
 11
91.6584668897
 21
143.3667650871
 31
0.0
  0
LINE
  5
B0
330
1F
100
AcDbEntity
  8
0
  6
Continuous
 62
     7
370
    25
100
AcDbLine
 10
133.0
 20
134.3357144192
 30
0.0
 11
133.0
 21
143.3667650871
 31
0.0
  0
LINE
  5
B1
330
1F
100
AcDbEntity
  8
0
  6
Continuous
 62
     7
370
    25
100
AcDbLine
 10
57.8207263474
 20
134.3357144192
 30
0.0
 11
133.0
 21
134.3357144192
 31
0.0
  0
CIRCLE
  5
B2
330
1F
100
AcDbEntity
  8
0
  6
Continuous
 62
     7
370
    25
100
AcDbCircle
 10
57.8207263474
 20
157.9998365566
 30
0.0
 40
2.891510525098312
  0
LINE
  5
B3
330
1F
100
AcDbEntity
  8
0
  6
Continuous
 62
     7
370
    25
100
AcDbLine
 10
133.0
 20
181.663958694
 30
0.0
 11
133.0
 21
172.6329080262
 31
0.0
  0
LINE
  5
B4
330
1F
100
AcDbEntity
  8
0
  6
Continuous
 62
     7
370
    25
100
AcDbLine
 10
133.0
 20
171.2545208037
 30
0.0
 11
91.6584668897
 21
171.2545208037
 31
0.0
  0
LINE
  5
B5
330
1F
100
AcDbEntity
  8
0
  6
Continuous
 62
     7
370
    25
100
AcDbLine
 10
133.0
 20
172.6329080262
 30
0.0
 11
133.0
 21
171.2545208037
 31
0.0
  0
ARC
  5
B6
330
1F
100
AcDbEntity
  8
0
  6
Continuous
 62
     7
370
    25
100
AcDbCircle
 10
91.6584668897
 20
162.0016871234
 30
0.0
 40
9.252833680314614
100
AcDbArc
 50
90.0
 51
186.7448067703
  0
ARC
  5
B7
330
1F
100
AcDbEntity
  8
0
  6
Continuous
 62
     7
370
    25
100
AcDbCircle
 10
57.8207263474
 20
157.9998365566
 30
0.0
 40
24.82072634744392
100
AcDbArc
 50
353.2551932297
 51
6.7448067703
  0
ARC
  5
B8
330
1F
100
AcDbEntity
  8
0
  6
Continuous
 62
     7
370
    25
100
AcDbCircle
 10
91.6584668897
 20
153.9979859899
 30
0.0
 40
9.252833680314609
100
AcDbArc
 50
173.2551932297
 51
270.0
  0
LINE
  5
B9
330
1F
100
AcDbEntity
  8
0
  6
Continuous
 62
     7
370
    25
100
AcDbLine
 10
91.6584668897
 20
144.7451523096
 30
0.0
 11
133.0
 21
144.7451523096
 31
0.0
  0
LINE
  5
BA
330
1F
100
AcDbEntity
  8
0
  6
Continuous
 62
     7
370
    25
100
AcDbLine
 10
133.0
 20
144.7451523096
 30
0.0
 11
133.0
 21
143.3667650871
 31
0.0
  0
LINE
  5
BB
330
1F
100
AcDbEntity
  8
0
  6
Continuous
 62
     7
370
    25
100
AcDbLine
 10
133.0
 20
133.1791102092
 30
0.0
 11
57.8207263474
 21
133.1791102092
 31
0.0
  0
LINE
  5
BC
330
1F
100
AcDbEntity
  8
0
  6
Continuous
 62
     7
370
    25
100
AcDbLine
 10
133.0
 20
134.3357144192
 30
0.0
 11
133.0
 21
133.1791102092
 31
0.0
  0
CIRCLE
  5
BD
330
1F
100
AcDbEntity
  8
0
  6
HIDDEN
 62
     7
370
    18
100
AcDbCircle
 10
57.8207263474
 20
157.9998365566
 30
0.0
 40
7.055285681239894
  0
LINE
  5
BE
330
1F
100
AcDbEntity
  8
0
  6
HIDDEN
 62
     7
370
    18
100
AcDbLine
 10
109.8679157992
 20
180.0399438852
 30
0.0
 11
133.0
 21
180.0399438852
 31
0.0
  0
LINE
  5
BF
330
1F
100
AcDbEntity
  8
0
  6
HIDDEN
 62
     7
370
    18
100
AcDbLine
 10
109.8679157992
 20
180.0399438852
 30
0.0
 11
109.8679157992
 21
174.256922835
 31
0.0
  0
LINE
  5
C0
330
1F
100
AcDbEntity
  8
0
  6
HIDDEN
 62
     7
370
    18
100
AcDbLine
 10
109.8679157992
 20
174.256922835
 30
0.0
 11
133.0
 21
174.256922835
 31
0.0
  0
LINE
  5
C1
330
1F
100
AcDbEntity
  8
0
  6
HIDDEN
 62
     7
370
    18
100
AcDbLine
 10
109.8679157992
 20
141.7427502783
 30
0.0
 11
109.8679157992
 21
135.9597292281
 31
0.0
  0
LINE
  5
C2
330
1F
100
AcDbEntity
  8
0
  6
HIDDEN
 62
     7
370
    18
100
AcDbLine
 10
109.8679157992
 20
141.7427502783
 30
0.0
 11
133.0
 21
141.7427502783
 31
0.0
  0
LINE
  5
C3
330
1F
100
AcDbEntity
  8
0
  6
HIDDEN
 62
     7
370
    18
100
AcDbLine
 10
109.8679157992
 20
135.9597292281
 30
0.0
 11
133.0
 21
135.9597292281
 31
0.0
  0
LINE
  5
C4
330
1F
100
AcDbEntity
  8
0
  6
HIDDEN
 62
     7
370
    18
100
AcDbLine
 10
71.4859839824
 20
144.7451523063
 30
0.0
 11
91.6584668897
 21
144.7451523096
 31
0.0
  0
LINE
  5
C5
330
1F
100
AcDbEntity
  8
0
  6
HIDDEN
 62
     7
370
    18
100
AcDbLine
 10
91.6584668897
 20
171.2545208037
 30
0.0
 11
71.4859839824
 21
171.2545208037
 31
0.0
  0
SPLINE
  5
C6
330
1F
100
AcDbEntity
  8
0
  6
HIDDEN
 62
     7
370
    18
100
AcDbSpline
210
0.0
220
0.0
230
1.0
 70
     8
 71
     3
 72
    10
 73
     6
 74
     0
 42
0.00000001
 43
0.00000001
 40
0.0
 40
0.0
 40
0.0
 40
0.0
 40
0.5
 40
0.5
 40
1.0
 40
1.0
 40
1.0
 40
1.0
 10
78.8060021867922
 20
171.2545207988711
 30
0.0
 10
77.51975971489426
 20
173.2909444945084
 30
0.0
 10
75.93517110757917
 20
175.1385876374943
 30
0.0
 10
72.30191276941022
 20
178.3016871469619
 30
0.0
 10
70.2536762408188
 20
179.6167663693663
 30
0.0
 10
68.0595388240202
 20
180.6103468446532
 30
0.0
  0
SPLINE
  5
C7
330
1F
100
AcDbEntity
  8
0
  6
HIDDEN
 62
     7
370
    18
100
AcDbSpline
210
0.0
220
0.0
230
1.0
 70
     8
 71
     3
 72
    10
 73
     6
 74
     0
 42
0.00000001
 43
0.00000001
 40
0.0
 40
0.0
 40
0.0
 40
0.0
 40
0.5
 40
0.5
 40
1.0
 40
1.0
 40
1.0
 40
1.0
 10
68.05953882402022
 20
135.3893262686334
 30
0.0
 10
70.25367298735982
 20
136.3829052706428
 30
0.0
 10
72.30190669931314
 20
137.6979820602851
 30
0.0
 10
75.93516101552628
 20
140.8610753111379
 30
0.0
 10
77.51974842056742
 20
142.7087146312496
 30
0.0
 10
78.80599074337027
 20
144.7451341968103
 30
0.0
  0
SPLINE
  5
C8
330
1F
100
AcDbEntity
  8
0
  6
HIDDEN
 62
     7
370
    18
100
AcDbSpline
210
0.0
220
0.0
230
1.0
 70
     8
 71
     3
 72
    14
 73
    10
 74
     0
 42
0.00000001
 43
0.00000001
 40
0.0
 40
0.0
 40
0.0
 40
0.0
 40
0.25
 40
0.25
 40
0.5
 40
0.5
 40
0.75
 40
0.75
 40
1.0
 40
1.0
 40
1.0
 40
1.0
 10
68.05953882402022
 20
180.6103468446532
 30
0.0
 10
67.82103760011928
 20
180.7183483570406
 30
0.0
 10
67.62138031360351
 20
180.909928658885
 30
0.0
 10
67.385874573783
 20
181.3776098413505
 30
0.0
 10
67.35084274921823
 20
181.6520890124752
 30
0.0
 10
67.4613319556313
 20
182.1639295903772
 30
0.0
 10
67.6064698593805
 20
182.3995161625941
 30
0.0
 10
68.01392791429869
 20
182.7284030358547
 30
0.0
 10
68.27483518288464
 20
182.8205629040872
 30
0.0
 10
68.5366503094152
 20
182.8205629040872
 30
0.0
  0
SPLINE
  5
C9
330
1F
100
AcDbEntity
  8
0
  6
HIDDEN
 62
     7
370
    18
100
AcDbSpline
210
0.0
220
0.0
230
1.0
 70
     8
 71
     3
 72
    14
 73
    10
 74
     0
 42
0.00000001
 43
0.00000001
 40
0.0
 40
0.0
 40
0.0
 40
0.0
 40
0.25
 40
0.25
 40
0.5
 40
0.5
 40
0.75
 40
0.75
 40
1.0
 40
1.0
 40
1.0
 40
1.0
 10
68.53665077618503
 20
133.1791102091995
 30
0.0
 10
68.27483561075701
 20
133.1791101035389
 30
0.0
 10
68.01392826674915
 20
133.2712698947848
 30
0.0
 10
67.60647005174908
 20
133.6001566935795
 30
0.0
 10
67.46133206472535
 20
133.835743267905
 30
0.0
 10
67.35084273861553
 20
134.3475838995554
 30
0.0
 10
67.38587452739824
 20
134.6220631210903
 30
0.0
 10
67.62138025502207
 20
135.0897443967993
 30
0.0
 10
67.82103756468551
 20
135.2813247402004
 30
0.0
 10
68.05953882402022
 20
135.3893262686334
 30
0.0
  0
LINE
  5
CA
330
1F
100
AcDbEntity
  8
0
  6
HIDDEN
 62
     7
370
    18
100
AcDbLine
 10
109.8679157992
 20
177.0375418539
 30
0.0
 11
73.746624546
 21
177.0375418539
 31
0.0
  0
LINE
  5
CB
330
1F
100
AcDbEntity
  8
0
  6
HIDDEN
 62
     7
370
    18
100
AcDbLine
 10
73.746624546
 20
138.9621312594
 30
0.0
 11
109.8679157992
 21
138.9621312594
 31
0.0
  0
LINE
  5
CC
330
1F
100
AcDbEntity
  8
0
  6
HIDDEN
 62
     7
370
    18
100
AcDbLine
 10
110.8654203335
 20
171.2545208037
 30
0.0
 11
109.8679157992
 21
177.0375418539
 31
0.0
  0
LINE
  5
CD
330
1F
100
AcDbEntity
  8
0
  6
HIDDEN
 62
     7
370
    18
100
AcDbLine
 10
109.8679157992
 20
138.9621312594
 30
0.0
 11
110.8654203335
 21
144.7451523096
 31
0.0
  0
LINE
  5
CE
330
1F
100
AcDbEntity
  8
0
  6
HIDDEN
 62
     7
370
    18
100
AcDbLine
 10
133.0
 20
177.0375418539
 30
0.0
 11
109.8679157992
 21
177.0375418539
 31
0.0
  0
LINE
  5
CF
330
1F
100
AcDbEntity
  8
0
  6
HIDDEN
 62
     7
370
    18
100
AcDbLine
 10
109.8679157992
 20
182.8205629041
 30
0.0
 11
109.8679157992
 21
180.0399438852
 31
0.0
  0
LINE
  5
D0
330
1F
100
AcDbEntity
  8
0
  6
HIDDEN
 62
     7
370
    18
100
AcDbLine
 10
109.8679157992
 20
138.9621312594
 30
0.0
 11
133.0
 21
138.9621312594
 31
0.0
  0
LINE
  5
D1
330
1F
100
AcDbEntity
  8
0
  6
HIDDEN
 62
     7
370
    18
100
AcDbLine
 10
109.8679157992
 20
133.1791102092
 30
0.0
 11
109.8679157992
 21
135.9597292281
 31
0.0
  0
LINE
  5
D2
330
1F
100
AcDbEntity
  8
0
  6
HIDDEN
 62
     7
370
    18
100
AcDbLine
 10
111.4293314828
 20
182.8205629041
 30
0.0
 11
111.4293314828
 21
180.0399438852
 31
0.0
  0
LINE
  5
D3
330
1F
100
AcDbEntity
  8
0
  6
HIDDEN
 62
     7
370
    18
100
AcDbLine
 10
119.8725422161
 20
180.0399438852
 30
0.0
 11
119.8725422161
 21
182.8205629041
 31
0.0
  0
LINE
  5
D4
330
1F
100
AcDbEntity
  8
0
  6
HIDDEN
 62
     7
370
    18
100
AcDbLine
 10
119.8725422161
 20
133.1791102092
 30
0.0
 11
119.8725422161
 21
135.9597292281
 31
0.0
  0
LINE
  5
D5
330
1F
100
AcDbEntity
  8
0
  6
HIDDEN
 62
     7
370
    18
100
AcDbLine
 10
111.4293314828
 20
135.9597292281
 30
0.0
 11
111.4293314828
 21
133.1791102092
 31
0.0
  0
LINE
  5
D6
330
1F
100
AcDbEntity
  8
0
  6
HIDDEN
 62
     7
370
    18
100
AcDbLine
 10
113.4533888503
 20
174.256922835
 30
0.0
 11
113.4533888503
 21
171.2545208037
 31
0.0
  0
LINE
  5
D7
330
1F
100
AcDbEntity
  8
0
  6
HIDDEN
 62
     7
370
    18
100
AcDbLine
 10
117.8484848485
 20
171.2545208037
 30
0.0
 11
117.8484848485
 21
174.256922835
 31
0.0
  0
LINE
  5
D8
330
1F
100
AcDbEntity
  8
0
  6
HIDDEN
 62
     7
370
    18
100
AcDbLine
 10
117.8484848485
 20
141.7427502783
 30
0.0
 11
117.8484848485
 21
144.7451523096
 31
0.0
  0
LINE
  5
D9
330
1F
100
AcDbEntity
  8
0
  6
HIDDEN
 62
     7
370
    18
100
AcDbLine
 10
113.4533888503
 20
144.7451523096
 30
0.0
 11
113.4533888503
 21
141.7427502783
 31
0.0
  0
INSERT
  5
E5
330
1F
100
AcDbEntity
  8
10
100
AcDbBlockReference
  2
SW_CENTERMARKSYMBOL_1
 10
57.8207263474
 20
157.9998365566
 30
0.0
  0
LINE
  5
E6
330
1F
100
AcDbEntity
  8
0
  6
Continuous
 62
     7
370
    25
100
AcDbLine
 10
236.2545208037
 20
45.4339578996
 30
0.0
 11
242.0375418539
 21
39.6509368494
 31
0.0
  0
LINE
  5
E7
330
1F
100
AcDbEntity
  8
0
  6
Continuous
 62
     7
370
    25
100
AcDbLine
 10
236.2545208037
 20
45.4339578996
 30
0.0
 11
236.2545208037
 21
73.1924589406
 31
0.0
  0
LINE
  5
E8
330
1F
100
AcDbEntity
  8
0
  6
Continuous
 62
     7
370
    25
100
AcDbLine
 10
237.6329080262
 20
74.3490631506
 30
0.0
 11
236.2545208037
 21
73.1924589406
 31
0.0
  0
LINE
  5
E9
330
1F
100
AcDbEntity
  8
0
  6
Continuous
 62
     7
370
    25
100
AcDbLine
 10
239.256922835
 20
66.2528336803
 30
0.0
 11
239.256922835
 21
48.9037705297
 31
0.0
  0
LINE
  5
EA
330
1F
100
AcDbEntity
  8
0
  6
Continuous
 62
     7
370
    25
100
AcDbLine
 10
239.256922835
 20
48.9037705297
 30
0.0
 11
245.0399438852
 21
48.9037705297
 31
0.0
  0
LINE
  5
EB
330
1F
100
AcDbEntity
  8
0
  6
Continuous
 62
     7
370
    25
100
AcDbLine
 10
245.0399438852
 20
48.9037705297
 30
0.0
 11
245.0399438852
 21
66.2528336803
 31
0.0
  0
LINE
  5
EC
330
1F
100
AcDbEntity
  8
0
  6
Continuous
 62
     7
370
    25
100
AcDbLine
 10
245.0399438852
 20
66.2528336803
 30
0.0
 11
239.256922835
 21
66.2528336803
 31
0.0
  0
LINE
  5
ED
330
1F
100
AcDbEntity
  8
0
  6
Continuous
 62
     7
370
    25
100
AcDbLine
 10
247.8205629041
 20
39.6509368494
 30
0.0
 11
242.0375418539
 21
39.6509368494
 31
0.0
  0
LINE
  5
EE
330
1F
100
AcDbEntity
  8
0
  6
Continuous
 62
     7
370
    25
100
AcDbLine
 10
247.8205629041
 20
72.9706759281
 30
0.0
 11
246.663958694
 21
74.3490631506
 31
0.0
  0
LINE
  5
EF
330
1F
100
AcDbEntity
  8
0
  6
Continuous
 62
     7
370
    25
100
AcDbLine
 10
246.663958694
 20
74.3490631506
 30
0.0
 11
237.6329080262
 21
74.3490631506
 31
0.0
  0
LINE
  5
F0
330
1F
100
AcDbEntity
  8
0
  6
Continuous
 62
     7
370
    25
100
AcDbLine
 10
247.8205629041
 20
39.6509368494
 30
0.0
 11
247.8205629041
 21
72.9706759281
 31
0.0
  0
LINE
  5
F1
330
1F
100
AcDbEntity
  8
0
  6
Continuous
 62
     7
370
    25
100
AcDbLine
 10
209.7451523096
 20
73.1924589406
 30
0.0
 11
208.3667650871
 21
74.3490631506
 31
0.0
  0
LINE
  5
F2
330
1F
100
AcDbEntity
  8
0
  6
Continuous
 62
     7
370
    25
100
AcDbLine
 10
198.1791102092
 20
39.6509368494
 30
0.0
 11
203.9621312594
 21
39.6509368494
 31
0.0
  0
LINE
  5
F3
330
1F
100
AcDbEntity
  8
0
  6
Continuous
 62
     7
370
    25
100
AcDbLine
 10
198.1791102092
 20
39.6509368494
 30
0.0
 11
198.1791102092
 21
72.9706759281
 31
0.0
  0
LINE
  5
F4
330
1F
100
AcDbEntity
  8
0
  6
Continuous
 62
     7
370
    25
100
AcDbLine
 10
199.3357144192
 20
74.3490631506
 30
0.0
 11
198.1791102092
 21
72.9706759281
 31
0.0
  0
LINE
  5
F5
330
1F
100
AcDbEntity
  8
0
  6
Continuous
 62
     7
370
    25
100
AcDbLine
 10
206.7427502783
 20
66.2528336803
 30
0.0
 11
200.9597292281
 21
66.2528336803
 31
0.0
  0
LINE
  5
F6
330
1F
100
AcDbEntity
  8
0
  6
Continuous
 62
     7
370
    25
100
AcDbLine
 10
200.9597292281
 20
66.2528336803
 30
0.0
 11
200.9597292281
 21
48.9037705297
 31
0.0
  0
LINE
  5
F7
330
1F
100
AcDbEntity
  8
0
  6
Continuous
 62
     7
370
    25
100
AcDbLine
 10
200.9597292281
 20
48.9037705297
 30
0.0
 11
206.7427502783
 21
48.9037705297
 31
0.0
  0
LINE
  5
F8
330
1F
100
AcDbEntity
  8
0
  6
Continuous
 62
     7
370
    25
100
AcDbLine
 10
206.7427502783
 20
48.9037705297
 30
0.0
 11
206.7427502783
 21
66.2528336803
 31
0.0
  0
LINE
  5
F9
330
1F
100
AcDbEntity
  8
0
  6
Continuous
 62
     7
370
    25
100
AcDbLine
 10
209.7451523096
 20
45.4339578996
 30
0.0
 11
209.7451523096
 21
73.1924589406
 31
0.0
  0
LINE
  5
FA
330
1F
100
AcDbEntity
  8
0
  6
Continuous
 62
     7
370
    25
100
AcDbLine
 10
203.9621312594
 20
39.6509368494
 30
0.0
 11
209.7451523096
 21
45.4339578996
 31
0.0
  0
LINE
  5
FB
330
1F
100
AcDbEntity
  8
0
  6
Continuous
 62
     7
370
    25
100
AcDbLine
 10
199.3357144192
 20
74.3490631506
 30
0.0
 11
208.3667650871
 21
74.3490631506
 31
0.0
  0
LINE
  5
FC
330
1F
100
AcDbEntity
  8
0
  6
Continuous
 62
     7
370
    25
100
AcDbLine
 10
236.2545208037
 20
73.1924589406
 30
0.0
 11
225.9149659919
 21
73.1924589406
 31
0.0
  0
LINE
  5
FD
330
1F
100
AcDbEntity
  8
0
  6
Continuous
 62
     7
370
    25
100
AcDbLine
 10
225.7530780153
 20
74.3490631506
 30
0.0
 11
237.6329080262
 21
74.3490631506
 31
0.0
  0
LINE
  5
FE
330
1F
100
AcDbEntity
  8
0
  6
Continuous
 62
     7
370
    25
100
AcDbLine
 10
236.2545208037
 20
62.7830210502
 30
0.0
 11
225.9149659919
 21
62.7830210502
 31
0.0
  0
LINE
  5
FF
330
1F
100
AcDbEntity
  8
0
  6
Continuous
 62
     7
370
    25
100
AcDbLine
 10
220.0847071214
 20
73.1924589406
 30
0.0
 11
209.7451523096
 21
73.1924589406
 31
0.0
  0
LINE
  5
100
330
1F
100
AcDbEntity
  8
0
  6
Continuous
 62
     7
370
    25
100
AcDbLine
 10
220.0847071214
 20
62.7830210502
 30
0.0
 11
209.7451523096
 21
62.7830210502
 31
0.0
  0
LINE
  5
101
330
1F
100
AcDbEntity
  8
0
  6
Continuous
 62
     7
370
    25
100
AcDbLine
 10
208.3667650871
 20
74.3490631506
 30
0.0
 11
220.246595098
 21
74.3490631506
 31
0.0
  0
LINE
  5
102
330
1F
100
AcDbEntity
  8
0
  6
Continuous
 62
     7
370
    25
100
AcDbLine
 10
225.9149659919
 20
73.1924589406
 30
0.0
 11
220.0847071214
 21
73.1924589406
 31
0.0
  0
LINE
  5
103
330
1F
100
AcDbEntity
  8
0
  6
Continuous
 62
     7
370
    25
100
AcDbLine
 10
220.246595098
 20
74.3490631506
 30
0.0
 11
225.7530780153
 21
74.3490631506
 31
0.0
  0
LINE
  5
104
330
1F
100
AcDbEntity
  8
0
  6
Continuous
 62
     7
370
    25
100
AcDbLine
 10
220.0847071214
 20
62.7830210502
 30
0.0
 11
225.9149659919
 21
62.7830210502
 31
0.0
  0
LINE
  5
105
330
1F
100
AcDbEntity
  8
0
  6
HIDDEN
 62
     7
370
    18
100
AcDbLine
 10
242.0375418539
 20
39.6509368494
 30
0.0
 11
242.0375418539
 21
52.4940626283
 31
0.0
  0
LINE
  5
106
330
1F
100
AcDbEntity
  8
0
  6
HIDDEN
 62
     7
370
    18
100
AcDbLine
 10
203.9621312594
 20
52.4940626283
 30
0.0
 11
203.9621312594
 21
39.6509368494
 31
0.0
  0
SPLINE
  5
107
330
1F
100
AcDbEntity
  8
0
  6
HIDDEN
 62
     7
370
    18
100
AcDbSpline
210
0.0
220
0.0
230
1.0
 70
    24
 71
     3
 72
     8
 73
     4
 74
     0
 42
0.00000001
 43
0.00000001
 40
0.0
 40
0.0
 40
0.0
 40
0.0
 40
1.0
 40
1.0
 40
1.0
 40
1.0
 10
240.3422875976798
 20
62.78302105019662
 30
0.0
 10
239.3473037000539
 20
62.78302105019662
 30
0.0
 10
237.9847147708988
 20
62.78302105019662
 30
0.0
 10
236.254520803694
 20
62.78302105019662
 30
0.0
  0
SPLINE
  5
108
330
1F
100
AcDbEntity
  8
0
  6
HIDDEN
 62
     7
370
    18
100
AcDbSpline
210
0.0
220
0.0
230
1.0
 70
    24
 71
     3
 72
     8
 73
     4
 74
     0
 42
0.00000001
 43
0.00000001
 40
0.0
 40
0.0
 40
0.0
 40
0.0
 40
1.0
 40
1.0
 40
1.0
 40
1.0
 10
209.7451523030719
 20
62.78302105019662
 30
0.0
 10
208.0149583423792
 20
62.78302105019662
 30
0.0
 10
206.6523694132242
 20
62.78302105019662
 30
0.0
 10
205.6573855156068
 20
62.78302105019662
 30
0.0
  0
SPLINE
  5
109
330
1F
100
AcDbEntity
  8
0
  6
HIDDEN
 62
     7
370
    18
100
AcDbSpline
210
0.0
220
0.0
230
1.0
 70
     8
 71
     3
 72
    10
 73
     6
 74
     0
 42
0.00000001
 43
0.00000001
 40
0.0
 40
0.0
 40
0.0
 40
0.0
 40
0.5
 40
0.5
 40
1.0
 40
1.0
 40
1.0
 40
1.0
 10
245.6103468446532
 20
54.51613755170108
 30
0.0
 10
245.1485934913452
 20
54.15357887605159
 30
0.0
 10
244.6154090187811
 20
53.80050329557222
 30
0.0
 10
243.4189736265681
 20
53.12336530167953
 30
0.0
 10
242.7557732810639
 20
52.79933151135373
 30
0.0
 10
242.0375418538906
 20
52.49406262834071
 30
0.0
  0
SPLINE
  5
10A
330
1F
100
AcDbEntity
  8
0
  6
HIDDEN
 62
     7
370
    18
100
AcDbSpline
210
0.0
220
0.0
230
1.0
 70
     8
 71
     3
 72
    10
 73
     6
 74
     0
 42
0.00000001
 43
0.00000001
 40
0.0
 40
0.0
 40
0.0
 40
0.0
 40
0.4999999999999998
 40
0.4999999999999998
 40
1.0
 40
1.0
 40
1.0
 40
1.0
 10
242.0375418538906
 20
52.49406262834071
 30
0.0
 10
241.2158410596929
 20
53.01691138568243
 30
0.0
 10
240.3126782640967
 20
53.64684904685438
 30
0.0
 10
238.373318052669
 20
55.10188354301992
 30
0.0
 10
237.3372614821909
 20
55.92687470664472
 30
0.0
 10
236.254520803694
 20
56.83286213062232
 30
0.0
  0
SPLINE
  5
10B
330
1F
100
AcDbEntity
  8
0
  6
HIDDEN
 62
     7
370
    18
100
AcDbSpline
210
0.0
220
0.0
230
1.0
 70
     8
 71
     3
 72
    10
 73
     6
 74
     0
 42
0.00000001
 43
0.00000001
 40
0.0
 40
0.0
 40
0.0
 40
0.0
 40
0.5
 40
0.5
 40
1.0
 40
1.0
 40
1.0
 40
1.0
 10
203.962131259396
 20
52.49406262834071
 30
0.0
 10
203.2438998322227
 20
52.79933151135372
 30
0.0
 10
202.5806994867185
 20
53.12336530167953
 30
0.0
 10
201.3842640945055
 20
53.80050329557222
 30
0.0
 10
200.8510796219414
 20
54.15357887605159
 30
0.0
 10
200.3893262686334
 20
54.51613755170109
 30
0.0
  0
SPLINE
  5
10C
330
1F
100
AcDbEntity
  8
0
  6
HIDDEN
 62
     7
370
    18
100
AcDbSpline
210
0.0
220
0.0
230
1.0
 70
     8
 71
     3
 72
    10
 73
     6
 74
     0
 42
0.00000001
 43
0.00000001
 40
0.0
 40
0.0
 40
0.0
 40
0.0
 40
0.5
 40
0.5
 40
1.0
 40
1.0
 40
1.0
 40
1.0
 10
209.7451523095926
 20
56.83286213062236
 30
0.0
 10
208.6624116310956
 20
55.92687470664477
 30
0.0
 10
207.6263550606176
 20
55.10188354301995
 30
0.0
 10
205.6869948491898
 20
53.6468490468544
 30
0.0
 10
204.7838320535937
 20
53.01691138568243
 30
0.0
 10
203.962131259396
 20
52.49406262834071
 30
0.0
  0
SPLINE
  5
10D
330
1F
100
AcDbEntity
  8
0
  6
HIDDEN
 62
     7
370
    18
100
AcDbSpline
210
0.0
220
0.0
230
1.0
 70
    24
 71
     3
 72
    16
 73
    12
 74
     0
 42
0.00000001
 43
0.00000001
 40
0.0
 40
0.0
 40
0.0
 40
0.0
 40
0.1249999999999996
 40
0.1249999999999996
 40
0.2499999999999992
 40
0.2499999999999992
 40
0.4999999999999994
 40
0.4999999999999994
 40
0.7499999999999997
 40
0.7499999999999997
 40
1.0
 40
1.0
 40
1.0
 40
1.0
 10
247.8205629040872
 20
62.78302105019662
 30
0.0
 10
247.4447964570362
 20
62.78302105019662
 30
0.0
 10
247.0678823267517
 20
62.78302105019662
 30
0.0
 10
246.3117587015969
 20
62.78302105019662
 30
0.0
 10
245.9342143459208
 20
62.78302105019663
 30
0.0
 10
244.7881473968482
 20
62.78302105019662
 30
0.0
 10
244.0734362882625
 20
62.78302105019662
 30
0.0
 10
242.7348957733393
 20
62.78302105019662
 30
0.0
 10
242.1370025417956
 20
62.78302105019662
 30
0.0
 10
241.0765364706103
 20
62.78302105019663
 30
0.0
 10
240.6550425011026
 20
62.78302105019662
 30
0.0
 10
240.3422875976798
 20
62.78302105019662
 30
0.0
  0
SPLINE
  5
10E
330
1F
100
AcDbEntity
  8
0
  6
HIDDEN
 62
     7
370
    18
100
AcDbSpline
210
0.0
220
0.0
230
1.0
 70
    24
 71
     3
 72
    20
 73
    16
 74
     0
 42
0.00000001
 43
0.00000001
 40
0.0
 40
0.0
 40
0.0
 40
0.0
 40
0.1249999999999999
 40
0.1249999999999999
 40
0.2499999999999997
 40
0.2499999999999997
 40
0.3749999999999996
 40
0.3749999999999996
 40
0.4999999999999994
 40
0.4999999999999994
 40
0.6249999999999993
 40
0.6249999999999993
 40
0.7499999999999991
 40
0.7499999999999991
 40
1.0
 40
1.0
 40
1.0
 40
1.0
 10
205.6573855156068
 20
62.78302105019662
 30
0.0
 10
205.5011215914302
 20
62.78302105019662
 30
0.0
 10
205.3176161369649
 20
62.78302105019662
 30
0.0
 10
204.896122167457
 20
62.78302105019662
 30
0.0
 10
204.6569611876706
 20
62.78302105019662
 30
0.0
 10
204.1288460264952
 20
62.78302105019662
 30
0.0
 10
203.847034192485
 20
62.78302105019662
 30
0.0
 10
203.2479020176191
 20
62.78302105019663
 30
0.0
 10
202.9289764288432
 20
62.78302105019663
 30
0.0
 10
202.2620377361279
 20
62.78302105019663
 30
0.0
 10
201.9163008963855
 20
62.78302105019662
 30
0.0
 10
201.2002922301316
 20
62.78302105019662
 30
0.0
 10
200.8275633538192
 20
62.78302105019663
 30
0.0
 10
199.6873165435323
 20
62.78302105019662
 30
0.0
 10
198.9311929183774
 20
62.78302105019662
 30
0.0
 10
198.1791102091994
 20
62.78302105019662
 30
0.0
  0
SPLINE
  5
10F
330
1F
100
AcDbEntity
  8
0
  6
HIDDEN
 62
     7
370
    18
100
AcDbSpline
210
0.0
220
0.0
230
1.0
 70
     8
 71
     3
 72
    22
 73
    18
 74
     0
 42
0.00000001
 43
0.00000001
 40
0.0
 40
0.0
 40
0.0
 40
0.0
 40
0.1249999999999999
 40
0.1249999999999999
 40
0.2499999999999997
 40
0.2499999999999997
 40
0.3749999999999996
 40
0.3749999999999996
 40
0.4999999999999997
 40
0.4999999999999997
 40
0.6249999999999998
 40
0.6249999999999998
 40
0.7499999999999998
 40
0.7499999999999998
 40
0.8749999999999999
 40
0.8749999999999999
 40
1.0
 40
1.0
 40
1.0
 40
1.0
 10
245.6103468446532
 20
54.51613755170108
 30
0.0
 10
245.6492109440472
 20
54.54665279605321
 30
0.0
 10
245.7024941780135
 20
54.57864185969873
 30
0.0
 10
245.848273558053
 20
54.64084906670188
 30
0.0
 10
245.9411590846154
 20
54.67104768648453
 30
0.0
 10
246.1686549309515
 20
54.72115131323518
 30
0.0
 10
246.3035482759655
 20
54.74085857886253
 30
0.0
 10
246.5974263546404
 20
54.76048113679517
 30
0.0
 10
246.755917034316
 20
54.7601493165877
 30
0.0
 10
247.0601015685364
 20
54.73680238883791
 30
0.0
 10
247.204864070922
 20
54.71385876491531
 30
0.0
 10
247.4498073133278
 20
54.6528803159425
 30
0.0
 10
247.5498246899707
 20
54.61514306184045
 30
0.0
 10
247.6989331412473
 20
54.53613410842959
 30
0.0
 10
247.7485114552596
 20
54.4950010307154
 30
0.0
 10
247.8091376575656
 20
54.41695167634428
 30
0.0
 10
247.8205629040872
 20
54.37999607413815
 30
0.0
 10
247.8205629040872
 20
54.34649791244954
 30
0.0
  0
SPLINE
  5
110
330
1F
100
AcDbEntity
  8
0
  6
HIDDEN
 62
     7
370
    18
100
AcDbSpline
210
0.0
220
0.0
230
1.0
 70
     8
 71
     3
 72
    22
 73
    18
 74
     0
 42
0.00000001
 43
0.00000001
 40
0.0
 40
0.0
 40
0.0
 40
0.0
 40
0.1249999999999999
 40
0.1249999999999999
 40
0.2499999999999998
 40
0.2499999999999998
 40
0.3749999999999998
 40
0.3749999999999998
 40
0.4999999999999997
 40
0.4999999999999997
 40
0.6249999999999996
 40
0.6249999999999996
 40
0.7499999999999997
 40
0.7499999999999997
 40
0.8749999999999999
 40
0.8749999999999999
 40
1.0
 40
1.0
 40
1.0
 40
1.0
 10
198.1791102091994
 20
54.34649791244954
 30
0.0
 10
198.1791102091994
 20
54.37999607413815
 30
0.0
 10
198.190535455721
 20
54.41695167634428
 30
0.0
 10
198.251161658027
 20
54.4950010307154
 30
0.0
 10
198.3007399720393
 20
54.53613410842958
 30
0.0
 10
198.4498484233159
 20
54.61514306184045
 30
0.0
 10
198.5498657999588
 20
54.6528803159425
 30
0.0
 10
198.7948090423646
 20
54.71385876491531
 30
0.0
 10
198.9395715447502
 20
54.73680238883791
 30
0.0
 10
199.2437560789705
 20
54.7601493165877
 30
0.0
 10
199.4022467586462
 20
54.76048113679517
 30
0.0
 10
199.696124837321
 20
54.74085857886253
 30
0.0
 10
199.8310181823351
 20
54.72115131323518
 30
0.0
 10
200.0585140286712
 20
54.67104768648453
 30
0.0
 10
200.1513995552336
 20
54.64084906670189
 30
0.0
 10
200.2971789352731
 20
54.57864185969875
 30
0.0
 10
200.3504621692394
 20
54.54665279605322
 30
0.0
 10
200.3893262686334
 20
54.51613755170109
 30
0.0
  0
LINE
  5
111
330
1F
100
AcDbEntity
  8
0
  6
HIDDEN
 62
     7
370
    18
100
AcDbLine
 10
230.0551222379
 20
69.1443442054
 30
0.0
 11
215.9445508754
 21
69.1443442054
 31
0.0
  0
LINE
  5
112
330
1F
100
AcDbEntity
  8
0
  6
HIDDEN
 62
     7
370
    18
100
AcDbLine
 10
198.1791102092
 20
72.9706759281
 30
0.0
 11
247.8205629041
 21
72.9706759281
 31
0.0
  0
LINE
  5
113
330
1F
100
AcDbEntity
  8
0
  6
HIDDEN
 62
     7
370
    18
100
AcDbLine
 10
247.8205629041
 20
61.7999074717
 30
0.0
 11
245.0399438852
 21
61.7999074717
 31
0.0
  0
LINE
  5
114
330
1F
100
AcDbEntity
  8
0
  6
HIDDEN
 62
     7
370
    18
100
AcDbLine
 10
245.0399438852
 20
53.3566967384
 30
0.0
 11
247.8205629041
 21
53.3566967384
 31
0.0
  0
LINE
  5
115
330
1F
100
AcDbEntity
  8
0
  6
HIDDEN
 62
     7
370
    18
100
AcDbLine
 10
198.1791102092
 20
53.3566967384
 30
0.0
 11
200.9597292281
 21
53.3566967384
 31
0.0
  0
LINE
  5
116
330
1F
100
AcDbEntity
  8
0
  6
HIDDEN
 62
     7
370
    18
100
AcDbLine
 10
200.9597292281
 20
61.7999074717
 30
0.0
 11
198.1791102092
 21
61.7999074717
 31
0.0
  0
LINE
  5
117
330
1F
100
AcDbEntity
  8
0
  6
HIDDEN
 62
     7
370
    18
100
AcDbLine
 10
239.256922835
 20
59.7758501041
 30
0.0
 11
236.2545208037
 21
59.7758501041
 31
0.0
  0
LINE
  5
118
330
1F
100
AcDbEntity
  8
0
  6
HIDDEN
 62
     7
370
    18
100
AcDbLine
 10
236.2545208037
 20
55.3807541059
 30
0.0
 11
239.256922835
 21
55.3807541059
 31
0.0
  0
LINE
  5
119
330
1F
100
AcDbEntity
  8
0
  6
HIDDEN
 62
     7
370
    18
100
AcDbLine
 10
206.7427502783
 20
55.3807541059
 30
0.0
 11
209.7451523096
 21
55.3807541059
 31
0.0
  0
LINE
  5
11A
330
1F
100
AcDbEntity
  8
0
  6
HIDDEN
 62
     7
370
    18
100
AcDbLine
 10
209.7451523096
 20
59.7758501041
 30
0.0
 11
206.7427502783
 21
59.7758501041
 31
0.0
  0
LINE
  5
11B
330
1F
100
AcDbEntity
  8
0
  6
HIDDEN
 62
     7
370
    18
100
AcDbLine
 10
230.0551222379
 20
62.7830210502
 30
0.0
 11
230.0551222379
 21
69.1443442054
 31
0.0
  0
LINE
  5
11C
330
1F
100
AcDbEntity
  8
0
  6
HIDDEN
 62
     7
370
    18
100
AcDbLine
 10
215.9445508754
 20
69.1443442054
 30
0.0
 11
215.9445508754
 21
62.7830210502
 31
0.0
  0
LINE
  5
11D
330
1F
100
AcDbEntity
  8
0
  6
HIDDEN
 62
     7
370
    18
100
AcDbLine
 10
225.8913470817
 20
69.1443442054
 30
0.0
 11
225.8913470817
 21
74.3490631506
 31
0.0
  0
LINE
  5
11E
330
1F
100
AcDbEntity
  8
0
  6
HIDDEN
 62
     7
370
    18
100
AcDbLine
 10
220.1083260315
 20
74.3490631506
 30
0.0
 11
220.1083260315
 21
69.1443442054
 31
0.0
  0
ENDSEC
  0
SECTION
  2
OBJECTS
  0
DICTIONARY
  5
C
330
0
100
AcDbDictionary
281
     1
  3
ACAD_GROUP
350
D
  3
ACAD_LAYOUT
350
1A
  3
ACAD_MLINESTYLE
350
17
  3
ACAD_PLOTSETTINGS
350
19
  3
ACAD_PLOTSTYLENAME
350
E
  3
ACAD_SCALELIST
350
47
  3
DWGPROPS
350
11F
  0
DICTIONARY
  5
D
102
{ACAD_REACTORS
330
C
102
}
330
C
100
AcDbDictionary
281
     1
  0
DICTIONARY
  5
1A
102
{ACAD_REACTORS
330
C
102
}
330
C
100
AcDbDictionary
281
     1
  3
Layout1
350
1E
  3
Layout2
350
26
  3
Model
350
22
  0
DICTIONARY
  5
17
102
{ACAD_REACTORS
330
C
102
}
330
C
100
AcDbDictionary
281
     1
  3
Standard
350
18
  0
DICTIONARY
  5
19
102
{ACAD_REACTORS
330
C
102
}
330
C
100
AcDbDictionary
281
     1
  0
ACDBDICTIONARYWDFLT
  5
E
102
{ACAD_REACTORS
330
C
102
}
330
C
100
AcDbDictionary
281
     1
  3
Normal
350
F
100
AcDbDictionaryWithDefault
340
F
  0
DICTIONARY
  5
47
102
{ACAD_REACTORS
330
C
102
}
330
C
100
AcDbDictionary
281
     1
  3
A0
350
48
  3
A1
350
49
  3
A2
350
4A
  3
A3
350
4B
  3
A4
350
4C
  3
A5
350
4D
  3
A6
350
4E
  3
A7
350
4F
  3
A8
350
50
  3
A9
350
51
  3
B0
350
52
  3
B1
350
53
  3
B2
350
54
  3
B3
350
55
  3
B4
350
56
  3
B5
350
57
  3
B6
350
58
  0
XRECORD
  5
11F
102
{ACAD_REACTORS
330
C
102
}
330
C
100
AcDbXrecord
280
     1
  1
DWGPROPS COOKIE
  2

  3

  4

  6

  7

  8

  9

300
=
301
=
302
=
303
=
304
=
305
=
306
=
307
=
308
=
309
=
 40
0.0
 41
2461214.896396458
 42
2461214.896396679
  1

 90
        0
  0
LAYOUT
  5
1E
102
{ACAD_REACTORS
330
1A
102
}
330
1A
100
AcDbPlotSettings
  1

  2
none_device
  4

  6

 40
0.0
 41
0.0
 42
0.0
 43
0.0
 44
0.0
 45
0.0
 46
0.0
 47
0.0
 48
0.0
 49
0.0
140
0.0
141
0.0
142
1.0
143
1.0
 70
   688
 72
     1
 73
     0
 74
     5
  7

 75
    16
147
1.0
148
0.0
149
0.0
100
AcDbLayout
  1
Layout1
 70
     1
 71
     1
 10
0.0
 20
0.0
 11
420.0
 21
297.0
 12
0.0
 22
0.0
 32
0.0
 14
1.0000000000E+20
 24
1.0000000000E+20
 34
1.0000000000E+20
 15
-1.0000000000E+20
 25
-1.0000000000E+20
 35
-1.0000000000E+20
146
0.0
 13
0.0
 23
0.0
 33
0.0
 16
1.0
 26
0.0
 36
0.0
 17
0.0
 27
1.0
 37
0.0
 76
     0
330
1B
  0
LAYOUT
  5
26
102
{ACAD_REACTORS
330
1A
102
}
330
1A
100
AcDbPlotSettings
  1

  2
none_device
  4

  6

 40
0.0
 41
0.0
 42
0.0
 43
0.0
 44
0.0
 45
0.0
 46
0.0
 47
0.0
 48
0.0
 49
0.0
140
0.0
141
0.0
142
1.0
143
1.0
 70
   688
 72
     1
 73
     0
 74
     5
  7

 75
    16
147
1.0
148
0.0
149
0.0
100
AcDbLayout
  1
Layout2
 70
     1
 71
     2
 10
0.0
 20
0.0
 11
0.0
 21
0.0
 12
0.0
 22
0.0
 32
0.0
 14
0.0
 24
0.0
 34
0.0
 15
0.0
 25
0.0
 35
0.0
146
0.0
 13
0.0
 23
0.0
 33
0.0
 16
1.0
 26
0.0
 36
0.0
 17
0.0
 27
1.0
 37
0.0
 76
     0
330
23
  0
LAYOUT
  5
22
102
{ACAD_REACTORS
330
1A
102
}
330
1A
100
AcDbPlotSettings
  1

  2
none_device
  4
Letter_(8.50_x_11.00_Inches)
  6

 40
6.35
 41
6.35
 42
6.35000508
 43
6.35000508
 44
215.9
 45
279.4
 46
0.0
 47
0.0
 48
0.0
 49
0.0
140
0.0
141
0.0
142
1.0
143
1.0
 70
  1712
 72
     1
 73
     0
 74
     0
  7

 75
     0
147
1.0
148
0.0
149
0.0
100
AcDbLayout
  1
Model
 70
     1
 71
     0
 10
0.0
 20
0.0
 11
297.0
 21
210.0
 12
0.0
 22
0.0
 32
0.0
 14
0.0
 24
0.0
 34
0.0
 15
297.0
 25
210.0
 35
0.0
146
0.0
 13
0.0
 23
0.0
 33
0.0
 16
1.0
 26
0.0
 36
0.0
 17
0.0
 27
1.0
 37
0.0
 76
     0
330
1F
331
29
  0
MLINESTYLE
  5
18
102
{ACAD_REACTORS
330
17
102
}
330
17
100
AcDbMlineStyle
  2
Standard
 70
     0
  3

 62
   256
 51
90.0
 52
90.0
 71
     2
 49
0.5
 62
   256
  6
BYLAYER
 49
-0.5
 62
   256
  6
BYLAYER
  0
ACDBPLACEHOLDER
  5
F
102
{ACAD_REACTORS
330
E
102
}
330
E
  0
SCALE
  5
48
102
{ACAD_REACTORS
330
47
102
}
330
47
100
AcDbScale
 70
     0
300
1:1
140
1.0
141
1.0
290
     1
  0
SCALE
  5
49
102
{ACAD_REACTORS
330
47
102
}
330
47
100
AcDbScale
 70
     0
300
1:2
140
1.0
141
2.0
290
     0
  0
SCALE
  5
4A
102
{ACAD_REACTORS
330
47
102
}
330
47
100
AcDbScale
 70
     0
300
1:4
140
1.0
141
4.0
290
     0
  0
SCALE
  5
4B
102
{ACAD_REACTORS
330
47
102
}
330
47
100
AcDbScale
 70
     0
300
1:5
140
1.0
141
5.0
290
     0
  0
SCALE
  5
4C
102
{ACAD_REACTORS
330
47
102
}
330
47
100
AcDbScale
 70
     0
300
1:8
140
1.0
141
8.0
290
     0
  0
SCALE
  5
4D
102
{ACAD_REACTORS
330
47
102
}
330
47
100
AcDbScale
 70
     0
300
1:10
140
1.0
141
10.0
290
     0
  0
SCALE
  5
4E
102
{ACAD_REACTORS
330
47
102
}
330
47
100
AcDbScale
 70
     0
300
1:16
140
1.0
141
16.0
290
     0
  0
SCALE
  5
4F
102
{ACAD_REACTORS
330
47
102
}
330
47
100
AcDbScale
 70
     0
300
1:20
140
1.0
141
20.0
290
     0
  0
SCALE
  5
50
102
{ACAD_REACTORS
330
47
102
}
330
47
100
AcDbScale
 70
     0
300
1:30
140
1.0
141
30.0
290
     0
  0
SCALE
  5
51
102
{ACAD_REACTORS
330
47
102
}
330
47
100
AcDbScale
 70
     0
300
1:40
140
1.0
141
40.0
290
     0
  0
SCALE
  5
52
102
{ACAD_REACTORS
330
47
102
}
330
47
100
AcDbScale
 70
     0
300
1:50
140
1.0
141
50.0
290
     0
  0
SCALE
  5
53
102
{ACAD_REACTORS
330
47
102
}
330
47
100
AcDbScale
 70
     0
300
1:100
140
1.0
141
100.0
290
     0
  0
SCALE
  5
54
102
{ACAD_REACTORS
330
47
102
}
330
47
100
AcDbScale
 70
     0
300
2:1
140
2.0
141
1.0
290
     0
  0
SCALE
  5
55
102
{ACAD_REACTORS
330
47
102
}
330
47
100
AcDbScale
 70
     0
300
4:1
140
4.0
141
1.0
290
     0
  0
SCALE
  5
56
102
{ACAD_REACTORS
330
47
102
}
330
47
100
AcDbScale
 70
     0
300
8:1
140
8.0
141
1.0
290
     0
  0
SCALE
  5
57
102
{ACAD_REACTORS
330
47
102
}
330
47
100
AcDbScale
 70
     0
300
10:1
140
10.0
141
1.0
290
     0
  0
SCALE
  5
58
102
{ACAD_REACTORS
330
47
102
}
330
47
100
AcDbScale
 70
     0
300
100:1
140
100.0
141
1.0
290
     0
  0
ENDSEC
  0
EOF
