  0
SECTION
  2
HEADER
  9
$ACADVER
  1
AC1015
  9
$ACADMAINTVER
 70
     6
  9
$DWGCODEPAGE
  3
ANSI_936
  9
$INSBASE
 10
0.0
 20
0.0
 30
0.0
  9
$EXTMIN
 10
0.0
 20
0.0
 30
0.0
  9
$EXTMAX
 10
297.0
 20
210.0
 30
0.0
  9
$LIMMIN
 10
0.0
 20
0.0
  9
$LIMMAX
 10
297.0
 20
210.0
  9
$ORTHOMODE
 70
     0
  9
$REGENMODE
 70
     1
  9
$FILLMODE
 70
     1
  9
$QTEXTMODE
 70
     0
  9
$MIRRTEXT
 70
     1
  9
$LTSCALE
 40
1.0
  9
$ATTMODE
 70
     1
  9
$TEXTSIZE
 40
3.5
  9
$TRACEWID
 40
1.0
  9
$TEXTSTYLE
  7
Standard
  9
$CLAYER
  8
0
  9
$CELTYPE
  6
ByLayer
  9
$CECOLOR
 62
   256
  9
$CELTSCALE
 40
1.0
  9
$DISPSILH
 70
     0
  9
$DIMSCALE
 40
1.0
  9
$DIMASZ
 40
4.08
  9
$DIMEXO
 40
0.0
  9
$DIMDLI
 40
3.75
  9
$DIMRND
 40
0.0
  9
$DIMDLE
 40
0.0
  9
$DIMEXE
 40
2.0
  9
$DIMTP
 40
0.0
  9
$DIMTM
 40
0.0
  9
$DIMTXT
 40
3.5
  9
$DIMCEN
 40
2.5
  9
$DIMTSZ
 40
0.0
  9
$DIMTOL
 70
     0
  9
$DIMLIM
 70
     0
  9
$DIMTIH
 70
     1
  9
$DIMTOH
 70
     1
  9
$DIMSE1
 70
     0
  9
$DIMSE2
 70
     0
  9
$DIMTAD
 70
     1
  9
$DIMZIN
 70
     0
  9
$DIMBLK
  1

  9
$DIMASO
 70
     1
  9
$DIMSHO
 70
     1
  9
$DIMPOST
  1

  9
$DIMAPOST
  1

  9
$DIMALT
 70
     0
  9
$DIMALTD
 70
     3
  9
$DIMALTF
 40
0.0393700787
  9
$DIMLFAC
 40
2.0
  9
$DIMTOFL
 70
     1
  9
$DIMTVP
 40
0.0
  9
$DIMTIX
 70
     0
  9
$DIMSOXD
 70
     0
  9
$DIMSAH
 70
     0
  9
$DIMBLK1
  1

  9
$DIMBLK2
  1

  9
$DIMSTYLE
  2
ISO-25
  9
$DIMCLRD
 70
     0
  9
$DIMCLRE
 70
     0
  9
$DIMCLRT
 70
     0
  9
$DIMTFAC
 40
1.0
  9
$DIMGAP
 40
1.524
  9
$DIMJUST
 70
     0
  9
$DIMSD1
 70
     0
  9
$DIMSD2
 70
     0
  9
$DIMTOLJ
 70
     0
  9
$DIMTZIN
 70
     0
  9
$DIMALTZ
 70
     0
  9
$DIMALTTZ
 70
     0
  9
$DIMUPT
 70
     0
  9
$DIMDEC
 70
     2
  9
$DIMTDEC
 70
     2
  9
$DIMALTU
 70
     2
  9
$DIMALTTD
 70
     3
  9
$DIMTXSTY
  7
Standard
  9
$DIMAUNIT
 70
     0
  9
$DIMADEC
 70
     2
  9
$DIMALTRND
 40
0.0
  9
$DIMAZIN
 70
     0
  9
$DIMDSEP
 70
    44
  9
$DIMATFIT
 70
     3
  9
$DIMFRAC
 70
     0
  9
$DIMLDRBLK
  1

  9
$DIMLUNIT
 70
     2
  9
$DIMLWD
 70
    -2
  9
$DIMLWE
 70
    -2
  9
$DIMTMOVE
 70
     0
  9
$LUNITS
 70
     2
  9
$LUPREC
 70
     2
  9
$SKETCHINC
 40
1.0
  9
$FILLETRAD
 40
0.0
  9
$AUNITS
 70
     0
  9
$AUPREC
 70
     2
  9
$MENU
  1
.
  9
$ELEVATION
 40
0.0
  9
$PELEVATION
 40
0.0
  9
$THICKNESS
 40
0.0
  9
$LIMCHECK
 70
     0
  9
$CHAMFERA
 40
0.0
  9
$CHAMFERB
 40
0.0
  9
$CHAMFERC
 40
0.0
  9
$CHAMFERD
 40
0.0
  9
$SKPOLY
 70
     0
  9
$TDCREATE
 40
2461215.283539653
  9
$TDUCREATE
 40
2461214.95020632
  9
$TDUPDATE
 40
2461215.283540035
  9
$TDUUPDATE
 40
2461214.950206701
  9
$TDINDWG
 40
0.0000000116
  9
$TDUSRTIMER
 40
0.0000000116
  9
$USRTIMER
 70
     1
  9
$ANGBASE
 50
0.0
  9
$ANGDIR
 70
     0
  9
$PDMODE
 70
     0
  9
$PDSIZE
 40
-1.0
  9
$PLINEWID
 40
0.0
  9
$SPLFRAME
 70
     0
  9
$SPLINETYPE
 70
     6
  9
$SPLINESEGS
 70
     8
  9
$HANDSEED
  5
12A
  9
$SURFTAB1
 70
     6
  9
$SURFTAB2
 70
     6
  9
$SURFTYPE
 70
     6
  9
$SURFU
 70
     6
  9
$SURFV
 70
     6
  9
$UCSBASE
  2

  9
$UCSNAME
  2

  9
$UCSORG
 10
0.0
 20
0.0
 30
0.0
  9
$UCSXDIR
 10
1.0
 20
0.0
 30
0.0
  9
$UCSYDIR
 10
0.0
 20
1.0
 30
0.0
  9
$UCSORTHOREF
  2

  9
$UCSORTHOVIEW
 70
     0
  9
$UCSORGTOP
 10
0.0
 20
0.0
 30
0.0
  9
$UCSORGBOTTOM
 10
0.0
 20
0.0
 30
0.0
  9
$UCSORGLEFT
 10
0.0
 20
0.0
 30
0.0
  9
$UCSORGRIGHT
 10
0.0
 20
0.0
 30
0.0
  9
$UCSORGFRONT
 10
0.0
 20
0.0
 30
0.0
  9
$UCSORGBACK
 10
0.0
 20
0.0
 30
0.0
  9
$PUCSBASE
  2

  9
$PUCSNAME
  2

  9
$PUCSORG
 10
0.0
 20
0.0
 30
0.0
  9
$PUCSXDIR
 10
1.0
 20
0.0
 30
0.0
  9
$PUCSYDIR
 10
0.0
 20
1.0
 30
0.0
  9
$PUCSORTHOREF
  2

  9
$PUCSORTHOVIEW
 70
     0
  9
$PUCSORGTOP
 10
0.0
 20
0.0
 30
0.0
  9
$PUCSORGBOTTOM
 10
0.0
 20
0.0
 30
0.0
  9
$PUCSORGLEFT
 10
0.0
 20
0.0
 30
0.0
  9
$PUCSORGRIGHT
 10
0.0
 20
0.0
 30
0.0
  9
$PUCSORGFRONT
 10
0.0
 20
0.0
 30
0.0
  9
$PUCSORGBACK
 10
0.0
 20
0.0
 30
0.0
  9
$USERI1
 70
     0
  9
$USERI2
 70
     0
  9
$USERI3
 70
     0
  9
$USERI4
 70
     0
  9
$USERI5
 70
     0
  9
$USERR1
 40
0.0
  9
$USERR2
 40
0.0
  9
$USERR3
 40
0.0
  9
$USERR4
 40
0.0
  9
$USERR5
 40
0.0
  9
$WORLDVIEW
 70
     1
  9
$SHADEDGE
 70
     3
  9
$SHADEDIF
 70
    70
  9
$TILEMODE
 70
     1
  9
$MAXACTVP
 70
    64
  9
$PINSBASE
 10
0.0
 20
0.0
 30
0.0
  9
$PLIMCHECK
 70
     0
  9
$PEXTMIN
 10
1.0000000000E+20
 20
1.0000000000E+20
 30
1.0000000000E+20
  9
$PEXTMAX
 10
-1.0000000000E+20
 20
-1.0000000000E+20
 30
-1.0000000000E+20
  9
$PLIMMIN
 10
0.0
 20
0.0
  9
$PLIMMAX
 10
420.0
 20
297.0
  9
$UNITMODE
 70
     0
  9
$VISRETAIN
 70
     1
  9
$PLINEGEN
 70
     0
  9
$PSLTSCALE
 70
     1
  9
$TREEDEPTH
 70
  3020
  9
$CMLSTYLE
  2
Standard
  9
$CMLJUST
 70
     0
  9
$CMLSCALE
 40
20.0
  9
$PROXYGRAPHICS
 70
     1
  9
$MEASUREMENT
 70
     1
  9
$CELWEIGHT
370
    -1
  9
$ENDCAPS
280
     0
  9
$JOINSTYLE
280
     0
  9
$LWDISPLAY
290
     1
  9
$INSUNITS
 70
     4
  9
$HYPERLINKBASE
  1

  9
$STYLESHEET
  1

  9
$XEDIT
290
     1
  9
$CEPSNTYPE
380
     0
  9
$PSTYLEMODE
290
     1
  9
$FINGERPRINTGUID
  2
{cba53457-713d-4cde-bc95-1db9aa2d8578}
  9
$VERSIONGUID
  2
{FAEB1C32-E019-11D5-929B-00C0DF256EC4}
  9
$EXTNAMES
290
     1
  9
$PSVPSCALE
 40
0.0
  9
$OLESTARTUP
290
     0
  0
ENDSEC
  0
SECTION
  2
CLASSES
  0
CLASS
  1
ACDBDICTIONARYWDFLT
  2
AcDbDictionaryWithDefault
  3
ObjectDBX Classes
 90
        0
280
     0
281
     0
  0
CLASS
  1
VISUALSTYLE
  2
AcDbVisualStyle
  3
ObjectDBX Classes
 90
     4095
280
     0
281
     0
  0
CLASS
  1
MATERIAL
  2
AcDbMaterial
  3
ObjectDBX Classes
 90
     1153
280
     0
281
     0
  0
CLASS
  1
SCALE
  2
AcDbScale
  3
ObjectDBX Classes
 90
     1153
280
     0
281
     0
  0
CLASS
  1
TABLESTYLE
  2
AcDbTableStyle
  3
ObjectDBX Classes
 90
     4095
280
     0
281
     0
  0
CLASS
  1
MLEADERSTYLE
  2
AcDbMLeaderStyle
  3
ACDB_MLEADERSTYLE_CLASS
 90
     4095
280
     0
281
     0
  0
CLASS
  1
SUN
  2
AcDbSun
  3
SCENEOE
 90
     1153
280
     0
281
     0
  0
CLASS
  1
ACDBPLACEHOLDER
  2
AcDbPlaceHolder
  3
ObjectDBX Classes
 90
        0
280
     0
281
     0
  0
CLASS
  1
LAYOUT
  2
AcDbLayout
  3
ObjectDBX Classes
 90
        0
280
     0
281
     0
  0
ENDSEC
  0
SECTION
  2
TABLES
  0
TABLE
  2
VPORT
  5
8
330
0
100
AcDbSymbolTable
 70
     1
  0
VPORT
  5
29
330
8
100
AcDbSymbolTableRecord
100
AcDbViewportTableRecord
  2
*Active
 70
     0
 10
0.0
 20
0.0
 11
1.0
 21
1.0
 12
148.5
 22
105.0
 13
0.0
 23
0.0
 14
10.0
 24
10.0
 15
10.0
 25
10.0
 16
0.0
 26
0.0
 36
1.0
 17
0.0
 27
0.0
 37
0.0
 40
210.0
 41
1.4142857143
 42
50.0
 43
0.0
 44
0.0
 50
0.0
 51
0.0
 71
     0
 72
  2000
 73
     1
 74
     3
 75
     0
 76
     0
 77
     0
 78
     0
281
     0
 65
     1
110
0.0
120
0.0
130
0.0
111
1.0
121
0.0
131
0.0
112
0.0
122
1.0
132
0.0
 79
     0
146
0.0
  0
ENDTAB
  0
TABLE
  2
LTYPE
  5
5
330
0
100
AcDbSymbolTable
 70
     6
  0
LTYPE
  5
14
330
5
100
AcDbSymbolTableRecord
100
AcDbLinetypeTableRecord
  2
ByBlock
 70
     0
  3

 72
    65
 73
     0
 40
0.0
  0
LTYPE
  5
15
330
5
100
AcDbSymbolTableRecord
100
AcDbLinetypeTableRecord
  2
ByLayer
 70
     0
  3

 72
    65
 73
     0
 40
0.0
  0
LTYPE
  5
16
330
5
100
AcDbSymbolTableRecord
100
AcDbLinetypeTableRecord
  2
Continuous
 70
     0
  3
Solid line
 72
    65
 73
     0
 40
0.0
  0
LTYPE
  5
5E
330
5
100
AcDbSymbolTableRecord
100
AcDbLinetypeTableRecord
  2
HIDDEN
 70
     0
  3
Hidden __ __ __ __ __ __ __ __ __ __ __ __ __ __
 72
    65
 73
     2
 40
1.905
 49
1.27
 74
     0
 49
-0.635
 74
     0
  0
LTYPE
  5
5F
330
5
100
AcDbSymbolTableRecord
100
AcDbLinetypeTableRecord
  2
PHANTOM
 70
     0
  3
Phantom ______  __  __  ______  __  __  ______
 72
    65
 73
     6
 40
12.7
 49
6.35
 74
     0
 49
-1.27
 74
     0
 49
1.27
 74
     0
 49
-1.27
 74
     0
 49
1.27
 74
     0
 49
-1.27
 74
     0
  0
LTYPE
  5
60
330
5
100
AcDbSymbolTableRecord
100
AcDbLinetypeTableRecord
  2
CENTER
 70
     0
  3
Center ____ _ ____ _ ____ _ ____ _ ____ _ ____
 72
    65
 73
     4
 40
10.16
 49
6.35
 74
     0
 49
-1.27
 74
     0
 49
1.27
 74
     0
 49
-1.27
 74
     0
  0
LTYPE
  5
61
330
5
100
AcDbSymbolTableRecord
100
AcDbLinetypeTableRecord
  2
CENTERX2
 70
     0
  3
Center (2x) ________  __  ________  __  _____
 72
    65
 73
     4
 40
20.32
 49
12.7
 74
     0
 49
-2.54
 74
     0
 49
2.54
 74
     0
 49
-2.54
 74
     0
  0
LTYPE
  5
62
330
5
100
AcDbSymbolTableRecord
100
AcDbLinetypeTableRecord
  2
DOT2
 70
     0
  3
Dot (.5x) ........................................
 72
    65
 73
     2
 40
0.635
 49
0.0
 74
     0
 49
-0.635
 74
     0
  0
ENDTAB
  0
TABLE
  2
LAYER
  5
2
330
0
100
AcDbSymbolTable
 70
    14
  0
LAYER
  5
10
330
2
100
AcDbSymbolTableRecord
100
AcDbLayerTableRecord
  2
0
 70
     0
 62
     7
  6
Continuous
370
    -3
390
F
  0
LAYER
  5
63
330
2
100
AcDbSymbolTableRecord
100
AcDbLayerTableRecord
  2
SLD-0
 70
     0
 62
     7
  6
Continuous
370
    -3
390
F
  0
LAYER
  5
64
330
2
100
AcDbSymbolTableRecord
100
AcDbLayerTableRecord
  2
5
 70
     0
 62
     7
  6
Continuous
370
    -3
390
F
  0
LAYER
  5
65
330
2
100
AcDbSymbolTableRecord
100
AcDbLayerTableRecord
  2
9
 70
     0
 62
     7
  6
Continuous
370
    -3
390
F
  0
LAYER
  5
66
330
2
100
AcDbSymbolTableRecord
100
AcDbLayerTableRecord
  2
10
 70
     0
 62
     7
  6
Continuous
370
    -3
390
F
  0
LAYER
  5
67
330
2
100
AcDbSymbolTableRecord
100
AcDbLayerTableRecord
  2
轮廓实线层
 70
     0
 62
     7
  6
Continuous
370
    50
390
F
  0
LAYER
  5
68
330
2
100
AcDbSymbolTableRecord
100
AcDbLayerTableRecord
  2
细线层
 70
     0
 62
     4
  6
Continuous
370
    25
390
F
  0
LAYER
  5
69
330
2
100
AcDbSymbolTableRecord
100
AcDbLayerTableRecord
  2
中心线层
 70
     0
 62
     1
  6
CENTERX2
370
    25
390
F
  0
LAYER
  5
6A
330
2
100
AcDbSymbolTableRecord
100
AcDbLayerTableRecord
  2
虚线层
 70
     0
 62
     6
  6
HIDDEN
370
    25
390
F
  0
LAYER
  5
6B
330
2
100
AcDbSymbolTableRecord
100
AcDbLayerTableRecord
  2
剖面线层
 70
     0
 62
     2
  6
Continuous
370
    25
390
F
  0
LAYER
  5
6C
330
2
100
AcDbSymbolTableRecord
100
AcDbLayerTableRecord
  2
文字层
 70
     0
 62
     3
  6
Continuous
370
    25
390
F
  0
LAYER
  5
6D
330
2
100
AcDbSymbolTableRecord
100
AcDbLayerTableRecord
  2
标注层
 70
     0
 62
     4
  6
Continuous
370
    25
390
F
  0
LAYER
  5
6E
330
2
100
AcDbSymbolTableRecord
100
AcDbLayerTableRecord
  2
符号标注层
 70
     0
 62
    31
  6
Continuous
370
    25
390
F
  0
LAYER
  5
6F
330
2
100
AcDbSymbolTableRecord
100
AcDbLayerTableRecord
  2
双点划线层
 70
     0
 62
     6
  6
PHANTOM
370
    25
390
F
  0
ENDTAB
  0
TABLE
  2
STYLE
  5
3
330
0
100
AcDbSymbolTable
 70
     1
  0
STYLE
  5
11
330
3
100
AcDbSymbolTableRecord
100
AcDbTextStyleTableRecord
  2
Standard
 70
     0
 40
0.0
 41
1.0
 50
0.0
 71
     0
 42
3.5
  3
txt
  4

  0
ENDTAB
  0
TABLE
  2
VIEW
  5
6
330
0
100
AcDbSymbolTable
 70
     0
  0
ENDTAB
  0
TABLE
  2
UCS
  5
7
330
0
100
AcDbSymbolTable
 70
     0
  0
ENDTAB
  0
TABLE
  2
APPID
  5
9
330
0
100
AcDbSymbolTable
 70
     1
  0
APPID
  5
12
330
9
100
AcDbSymbolTableRecord
100
AcDbRegAppTableRecord
  2
ACAD
 70
     0
  0
ENDTAB
  0
TABLE
  2
DIMSTYLE
  5
A
330
0
100
AcDbSymbolTable
 70
     1
100
AcDbDimStyleTable
  0
DIMSTYLE
105
27
330
A
100
AcDbSymbolTableRecord
100
AcDbDimStyleTableRecord
  2
ISO-25
 70
     0
 41
2.5
 42
0.625
 43
3.75
 44
1.25
 73
     0
 74
     0
 77
     1
 78
     8
140
2.5
141
2.5
143
0.0393700787
147
0.625
171
     3
172
     1
178
     0
271
     2
272
     2
274
     3
278
    44
283
     0
284
     8
340
11
  0
ENDTAB
  0
TABLE
  2
BLOCK_RECORD
  5
1
330
0
100
AcDbSymbolTable
 70
     5
  0
BLOCK_RECORD
  5
1F
330
1
100
AcDbSymbolTableRecord
100
AcDbBlockTableRecord
  2
*Model_Space
340
22
  0
BLOCK_RECORD
  5
1B
330
1
100
AcDbSymbolTableRecord
100
AcDbBlockTableRecord
  2
*Paper_Space
340
1E
  0
BLOCK_RECORD
  5
23
330
1
100
AcDbSymbolTableRecord
100
AcDbBlockTableRecord
  2
*Paper_Space0
340
26
  0
BLOCK_RECORD
  5
E0
330
1
100
AcDbSymbolTableRecord
100
AcDbBlockTableRecord
  2
SW_CENTERMARKSYMBOL_0
340
0
102
{BLKREFS
331
EB
102
}
  0
BLOCK_RECORD
  5
EC
330
1
100
AcDbSymbolTableRecord
100
AcDbBlockTableRecord
  2
SW_CENTERMARKSYMBOL_1
340
0
102
{BLKREFS
331
F7
102
}
  0
BLOCK_RECORD
  5
F8
330
1
100
AcDbSymbolTableRecord
100
AcDbBlockTableRecord
  2
SW_CENTERMARKSYMBOL_2
340
0
102
{BLKREFS
331
103
102
}
  0
BLOCK_RECORD
  5
104
330
1
100
AcDbSymbolTableRecord
100
AcDbBlockTableRecord
  2
SW_CENTERMARKSYMBOL_3
340
0
102
{BLKREFS
331
10F
102
}
  0
ENDTAB
  0
ENDSEC
  0
SECTION
  2
BLOCKS
  0
BLOCK
  5
20
330
1F
100
AcDbEntity
  8
0
100
AcDbBlockBegin
  2
*Model_Space
 70
     0
 10
0.0
 20
0.0
 30
0.0
  3
*Model_Space
  1

  0
ENDBLK
  5
21
330
1F
100
AcDbEntity
  8
0
100
AcDbBlockEnd
  0
BLOCK
  5
1C
330
1B
100
AcDbEntity
 67
     1
  8
0
100
AcDbBlockBegin
  2
*Paper_Space
 70
     0
 10
0.0
 20
0.0
 30
0.0
  3
*Paper_Space
  1

  0
ENDBLK
  5
1D
330
1B
100
AcDbEntity
 67
     1
  8
0
100
AcDbBlockEnd
  0
BLOCK
  5
24
330
23
100
AcDbEntity
  8
0
100
AcDbBlockBegin
  2
*Paper_Space0
 70
     0
 10
0.0
 20
0.0
 30
0.0
  3
*Paper_Space0
  1

  0
ENDBLK
  5
25
330
23
100
AcDbEntity
  8
0
100
AcDbBlockEnd
  0
BLOCK
  5
E1
330
E0
100
AcDbEntity
  8
0
100
AcDbBlockBegin
  2
SW_CENTERMARKSYMBOL_0
 70
     0
 10
0.0
 20
0.0
 30
0.0
  3
SW_CENTERMARKSYMBOL_0
  1

  0
LINE
  5
E3
330
E0
100
AcDbEntity
  8
10
 62
     0
100
AcDbLine
 10
0.0
 20
0.0
 30
0.0
 11
0.0
 21
2.5
 31
0.0
  0
LINE
  5
E4
330
E0
100
AcDbEntity
  8
10
 62
     0
100
AcDbLine
 10
0.0
 20
0.0
 30
0.0
 11
-2.5
 21
0.0
 31
0.0
  0
LINE
  5
E5
330
E0
100
AcDbEntity
  8
10
 62
     0
100
AcDbLine
 10
0.0
 20
0.0
 30
0.0
 11
0.0
 21
-2.5
 31
0.0
  0
LINE
  5
E6
330
E0
100
AcDbEntity
  8
10
 62
     0
100
AcDbLine
 10
0.0
 20
0.0
 30
0.0
 11
2.5
 21
0.0
 31
0.0
  0
LINE
  5
E7
330
E0
100
AcDbEntity
  8
10
 62
     0
100
AcDbLine
 10
0.0
 20
2.5
 30
0.0
 11
0.0
 21
3.7096769234
 31
0.0
  0
LINE
  5
E8
330
E0
100
AcDbEntity
  8
10
 62
     0
100
AcDbLine
 10
-2.5
 20
0.0
 30
0.0
 11
-3.7096769234
 21
0.0
 31
0.0
  0
LINE
  5
E9
330
E0
100
AcDbEntity
  8
10
 62
     0
100
AcDbLine
 10
0.0
 20
-2.5
 30
0.0
 11
0.0
 21
-3.7096769234
 31
0.0
  0
LINE
  5
EA
330
E0
100
AcDbEntity
  8
10
 62
     0
100
AcDbLine
 10
2.5
 20
0.0
 30
0.0
 11
3.7096769234
 21
0.0
 31
0.0
  0
ENDBLK
  5
E2
330
E0
100
AcDbEntity
  8
0
100
AcDbBlockEnd
  0
BLOCK
  5
ED
330
EC
100
AcDbEntity
  8
0
100
AcDbBlockBegin
  2
SW_CENTERMARKSYMBOL_1
 70
     0
 10
0.0
 20
0.0
 30
0.0
  3
SW_CENTERMARKSYMBOL_1
  1

  0
LINE
  5
EF
330
EC
100
AcDbEntity
  8
10
 62
     0
100
AcDbLine
 10
0.0
 20
0.0
 30
0.0
 11
0.0
 21
2.5
 31
0.0
  0
LINE
  5
F0
330
EC
100
AcDbEntity
  8
10
 62
     0
100
AcDbLine
 10
0.0
 20
0.0
 30
0.0
 11
-2.5
 21
0.0
 31
0.0
  0
LINE
  5
F1
330
EC
100
AcDbEntity
  8
10
 62
     0
100
AcDbLine
 10
0.0
 20
0.0
 30
0.0
 11
0.0
 21
-2.5
 31
0.0
  0
LINE
  5
F2
330
EC
100
AcDbEntity
  8
10
 62
     0
100
AcDbLine
 10
0.0
 20
0.0
 30
0.0
 11
2.5
 21
0.0
 31
0.0
  0
LINE
  5
F3
330
EC
100
AcDbEntity
  8
10
 62
     0
100
AcDbLine
 10
0.0
 20
2.5
 30
0.0
 11
0.0
 21
3.7096769234
 31
0.0
  0
LINE
  5
F4
330
EC
100
AcDbEntity
  8
10
 62
     0
100
AcDbLine
 10
-2.5
 20
0.0
 30
0.0
 11
-3.7096769234
 21
0.0
 31
0.0
  0
LINE
  5
F5
330
EC
100
AcDbEntity
  8
10
 62
     0
100
AcDbLine
 10
0.0
 20
-2.5
 30
0.0
 11
0.0
 21
-3.7096769234
 31
0.0
  0
LINE
  5
F6
330
EC
100
AcDbEntity
  8
10
 62
     0
100
AcDbLine
 10
2.5
 20
0.0
 30
0.0
 11
3.7096769234
 21
0.0
 31
0.0
  0
ENDBLK
  5
EE
330
EC
100
AcDbEntity
  8
0
100
AcDbBlockEnd
  0
BLOCK
  5
F9
330
F8
100
AcDbEntity
  8
0
100
AcDbBlockBegin
  2
SW_CENTERMARKSYMBOL_2
 70
     0
 10
0.0
 20
0.0
 30
0.0
  3
SW_CENTERMARKSYMBOL_2
  1

  0
LINE
  5
FB
330
F8
100
AcDbEntity
  8
10
 62
     0
100
AcDbLine
 10
0.0
 20
0.0
 30
0.0
 11
0.0
 21
2.5
 31
0.0
  0
LINE
  5
FC
330
F8
100
AcDbEntity
  8
10
 62
     0
100
AcDbLine
 10
0.0
 20
0.0
 30
0.0
 11
-2.5
 21
0.0
 31
0.0
  0
LINE
  5
FD
330
F8
100
AcDbEntity
  8
10
 62
     0
100
AcDbLine
 10
0.0
 20
0.0
 30
0.0
 11
0.0
 21
-2.5
 31
0.0
  0
LINE
  5
FE
330
F8
100
AcDbEntity
  8
10
 62
     0
100
AcDbLine
 10
0.0
 20
0.0
 30
0.0
 11
2.5
 21
0.0
 31
0.0
  0
LINE
  5
FF
330
F8
100
AcDbEntity
  8
10
 62
     0
100
AcDbLine
 10
0.0
 20
2.5
 30
0.0
 11
0.0
 21
3.7096769234
 31
0.0
  0
LINE
  5
100
330
F8
100
AcDbEntity
  8
10
 62
     0
100
AcDbLine
 10
-2.5
 20
0.0
 30
0.0
 11
-3.7096769234
 21
0.0
 31
0.0
  0
LINE
  5
101
330
F8
100
AcDbEntity
  8
10
 62
     0
100
AcDbLine
 10
0.0
 20
-2.5
 30
0.0
 11
0.0
 21
-3.7096769234
 31
0.0
  0
LINE
  5
102
330
F8
100
AcDbEntity
  8
10
 62
     0
100
AcDbLine
 10
2.5
 20
0.0
 30
0.0
 11
3.7096769234
 21
0.0
 31
0.0
  0
ENDBLK
  5
FA
330
F8
100
AcDbEntity
  8
0
100
AcDbBlockEnd
  0
BLOCK
  5
105
330
104
100
AcDbEntity
  8
0
100
AcDbBlockBegin
  2
SW_CENTERMARKSYMBOL_3
 70
     0
 10
0.0
 20
0.0
 30
0.0
  3
SW_CENTERMARKSYMBOL_3
  1

  0
LINE
  5
107
330
104
100
AcDbEntity
  8
10
 62
     0
100
AcDbLine
 10
0.0
 20
0.0
 30
0.0
 11
0.0
 21
2.5
 31
0.0
  0
LINE
  5
108
330
104
100
AcDbEntity
  8
10
 62
     0
100
AcDbLine
 10
0.0
 20
0.0
 30
0.0
 11
-2.5
 21
0.0
 31
0.0
  0
LINE
  5
109
330
104
100
AcDbEntity
  8
10
 62
     0
100
AcDbLine
 10
0.0
 20
0.0
 30
0.0
 11
0.0
 21
-2.5
 31
0.0
  0
LINE
  5
10A
330
104
100
AcDbEntity
  8
10
 62
     0
100
AcDbLine
 10
0.0
 20
0.0
 30
0.0
 11
2.5
 21
0.0
 31
0.0
  0
LINE
  5
10B
330
104
100
AcDbEntity
  8
10
 62
     0
100
AcDbLine
 10
0.0
 20
2.5
 30
0.0
 11
0.0
 21
3.7096769234
 31
0.0
  0
LINE
  5
10C
330
104
100
AcDbEntity
  8
10
 62
     0
100
AcDbLine
 10
-2.5
 20
0.0
 30
0.0
 11
-3.7096769234
 21
0.0
 31
0.0
  0
LINE
  5
10D
330
104
100
AcDbEntity
  8
10
 62
     0
100
AcDbLine
 10
0.0
 20
-2.5
 30
0.0
 11
0.0
 21
-3.7096769234
 31
0.0
  0
LINE
  5
10E
330
104
100
AcDbEntity
  8
10
 62
     0
100
AcDbLine
 10
2.5
 20
0.0
 30
0.0
 11
3.7096769234
 21
0.0
 31
0.0
  0
ENDBLK
  5
106
330
104
100
AcDbEntity
  8
0
100
AcDbBlockEnd
  0
ENDSEC
  0
SECTION
  2
ENTITIES
  0
LINE
  5
70
330
1F
100
AcDbEntity
  8
0
  6
Continuous
 62
     7
370
    25
100
AcDbLine
 10
132.9999798387
 20
58.1870523004
 30
0.0
 11
132.9999798387
 21
59.799954865
 31
0.0
  0
LINE
  5
71
330
1F
100
AcDbEntity
  8
0
  6
Continuous
 62
     7
370
    25
100
AcDbLine
 10
33.0000201613
 20
59.799954865
 30
0.0
 11
33.0000201613
 21
58.1870523004
 31
0.0
  0
LINE
  5
72
330
1F
100
AcDbEntity
  8
0
  6
Continuous
 62
     7
370
    25
100
AcDbLine
 10
47.838724092
 20
59.799954865
 30
0.0
 11
37.5161476786
 21
59.799954865
 31
0.0
  0
LINE
  5
73
330
1F
100
AcDbEntity
  8
0
  6
Continuous
 62
     7
370
    25
100
AcDbLine
 10
47.5161435791
 20
59.4773743521
 30
0.0
 11
47.838724092
 21
59.799954865
 31
0.0
  0
LINE
  5
74
330
1F
100
AcDbEntity
  8
0
  6
Continuous
 62
     7
370
    25
100
AcDbLine
 10
37.8387281915
 20
59.4773743521
 30
0.0
 11
47.5161435791
 21
59.4773743521
 31
0.0
  0
LINE
  5
75
330
1F
100
AcDbEntity
  8
0
  6
Continuous
 62
     7
370
    25
100
AcDbLine
 10
37.5161476786
 20
59.799954865
 30
0.0
 11
37.8387281915
 21
59.4773743521
 31
0.0
  0
LINE
  5
76
330
1F
100
AcDbEntity
  8
0
  6
Continuous
 62
     7
370
    25
100
AcDbLine
 10
118.161275908
 20
59.799954865
 30
0.0
 11
118.4838564209
 21
59.4773743521
 31
0.0
  0
LINE
  5
77
330
1F
100
AcDbEntity
  8
0
  6
Continuous
 62
     7
370
    25
100
AcDbLine
 10
118.4838564209
 20
59.4773743521
 30
0.0
 11
118.4838564209
 21
55.7676984536
 31
0.0
  0
LINE
  5
78
330
1F
100
AcDbEntity
  8
0
  6
Continuous
 62
     7
370
    25
100
AcDbLine
 10
118.4838564209
 20
55.7676984536
 30
0.0
 11
116.0645025741
 21
55.7676984536
 31
0.0
  0
ARC
  5
79
330
1F
100
AcDbEntity
  8
0
  6
Continuous
 62
     7
370
    25
100
AcDbCircle
 10
112.6430195516
 20
54.5580215301
 30
0.0
 40
3.629030770323887
100
AcDbArc
 50
19.4712206345
 51
90.0
  0
LINE
  5
7A
330
1F
100
AcDbEntity
  8
0
  6
Continuous
 62
     7
370
    25
100
AcDbLine
 10
112.6430195516
 20
58.1870523004
 30
0.0
 11
53.3569804484
 21
58.1870523004
 31
0.0
  0
ARC
  5
7B
330
1F
100
AcDbEntity
  8
0
  6
Continuous
 62
     7
370
    25
100
AcDbCircle
 10
53.3569804484
 20
54.5580215301
 30
0.0
 40
3.6290307703239
100
AcDbArc
 50
90.0
 51
160.5287793655
  0
LINE
  5
7C
330
1F
100
AcDbEntity
  8
0
  6
Continuous
 62
     7
370
    25
100
AcDbLine
 10
49.9354974259
 20
55.7676984536
 30
0.0
 11
47.5161435791
 21
55.7676984536
 31
0.0
  0
LINE
  5
7D
330
1F
100
AcDbEntity
  8
0
  6
Continuous
 62
     7
370
    25
100
AcDbLine
 10
47.5161435791
 20
59.4773743521
 30
0.0
 11
47.5161435791
 21
55.7676984536
 31
0.0
  0
LINE
  5
7E
330
1F
100
AcDbEntity
  8
0
  6
Continuous
 62
     7
370
    25
100
AcDbLine
 10
47.838724092
 20
59.799954865
 30
0.0
 11
118.161275908
 21
59.799954865
 31
0.0
  0
LINE
  5
7F
330
1F
100
AcDbEntity
  8
0
  6
Continuous
 62
     7
370
    25
100
AcDbLine
 10
35.4193743446
 20
59.799954865
 30
0.0
 11
35.4193743446
 21
55.7676984536
 31
0.0
  0
LINE
  5
80
330
1F
100
AcDbEntity
  8
0
  6
Continuous
 62
     7
370
    25
100
AcDbLine
 10
33.9677618303
 20
58.1870523004
 30
0.0
 11
33.9677618261
 21
57.8631140605
 31
0.0
  0
LINE
  5
81
330
1F
100
AcDbEntity
  8
0
  6
Continuous
 62
     7
370
    25
100
AcDbLine
 10
35.4193743446
 20
59.799954865
 30
0.0
 11
33.9677618303
 21
59.799954865
 31
0.0
  0
SPLINE
  5
82
330
1F
100
AcDbEntity
  8
0
  6
Continuous
 62
     7
370
    25
100
AcDbSpline
210
0.0
220
0.0
230
1.0
 70
     8
 71
     3
 72
    18
 73
    14
 74
     0
 42
0.00000001
 43
0.00000001
 40
0.0
 40
0.0
 40
0.0
 40
0.0
 40
0.1250000000000003
 40
0.1250000000000003
 40
0.2500000000000007
 40
0.2500000000000007
 40
0.5000000000000013
 40
0.5000000000000013
 40
0.6250000000000017
 40
0.6250000000000017
 40
0.750000000000002
 40
0.750000000000002
 40
1.0
 40
1.0
 40
1.0
 40
1.0
 10
35.4193743446424
 20
55.76769845355033
 30
0.0
 10
35.41937433408319
 20
55.76769848341629
 30
0.0
 10
35.40718970200118
 20
55.82085384758333
 30
0.0
 10
35.36749675668782
 20
55.9700540687554
 30
0.0
 10
35.34008230563512
 20
56.0646814416262
 30
0.0
 10
35.23997844818297
 20
56.36214668899859
 30
0.0
 10
35.15031077149174
 20
56.57729927930994
 30
0.0
 10
34.97642758673897
 20
56.8889882514482
 30
0.0
 10
34.91178114427865
 20
56.99164107048339
 30
0.0
 10
34.76682226831743
 20
57.19188391118491
 30
0.0
 10
34.68608924304067
 20
57.28982158959569
 30
0.0
 10
34.42182818473908
 20
57.56625939300871
 30
0.0
 10
34.21579291068169
 20
57.72973715674897
 30
0.0
 10
33.96776182611915
 20
57.86311406047745
 30
0.0
  0
LINE
  5
83
330
1F
100
AcDbEntity
  8
0
  6
Continuous
 62
     7
370
    25
100
AcDbLine
 10
132.0322381711
 20
57.863114059
 30
0.0
 11
132.0322381697
 21
58.1870523004
 31
0.0
  0
SPLINE
  5
84
330
1F
100
AcDbEntity
  8
0
  6
Continuous
 62
     7
370
    25
100
AcDbSpline
210
0.0
220
0.0
230
1.0
 70
     8
 71
     3
 72
    18
 73
    14
 74
     0
 42
0.00000001
 43
0.00000001
 40
0.0
 40
0.0
 40
0.0
 40
0.0
 40
0.1250000000000004
 40
0.1250000000000004
 40
0.2500000000000008
 40
0.2500000000000008
 40
0.5000000000000014
 40
0.5000000000000014
 40
0.6250000000000018
 40
0.6250000000000018
 40
0.750000000000002
 40
0.750000000000002
 40
1.0
 40
1.0
 40
1.0
 40
1.0
 10
130.5806256553576
 20
55.76769845355033
 30
0.0
 10
130.5806256659168
 20
55.7676984834163
 30
0.0
 10
130.5928102979754
 20
55.82085384748036
 30
0.0
 10
130.6325032432215
 20
55.97005406842907
 30
0.0
 10
130.6599176942277
 20
56.06468144117082
 30
0.0
 10
130.7600215515155
 20
56.3621466881976
 30
0.0
 10
130.8496892280556
 20
56.57729927829492
 30
0.0
 10
131.0235724124868
 20
56.88898825016211
 30
0.0
 10
131.0882188548237
 20
56.99164106911501
 30
0.0
 10
131.2331777304948
 20
57.19188390967257
 30
0.0
 10
131.3139107556108
 20
57.28982158803202
 30
0.0
 10
131.5781718134031
 20
57.5662593913712
 30
0.0
 10
131.7842070870579
 20
57.7297371551327
 30
0.0
 10
132.0322381711068
 20
57.86311405898574
 30
0.0
  0
LINE
  5
85
330
1F
100
AcDbEntity
  8
0
  6
Continuous
 62
     7
370
    25
100
AcDbLine
 10
130.5806256554
 20
59.799954865
 30
0.0
 11
130.5806256554
 21
55.7676984536
 31
0.0
  0
LINE
  5
86
330
1F
100
AcDbEntity
  8
0
  6
Continuous
 62
     7
370
    25
100
AcDbLine
 10
132.0322381697
 20
59.799954865
 30
0.0
 11
130.5806256554
 21
59.799954865
 31
0.0
  0
LINE
  5
87
330
1F
100
AcDbEntity
  8
0
  6
Continuous
 62
     7
370
    25
100
AcDbLine
 10
128.1612718085
 20
59.4773743521
 30
0.0
 11
128.1612718085
 21
55.7676984536
 31
0.0
  0
LINE
  5
88
330
1F
100
AcDbEntity
  8
0
  6
Continuous
 62
     7
370
    25
100
AcDbLine
 10
128.1612718085
 20
59.4773743521
 30
0.0
 11
128.4838523214
 21
59.799954865
 31
0.0
  0
LINE
  5
89
330
1F
100
AcDbEntity
  8
0
  6
Continuous
 62
     7
370
    25
100
AcDbLine
 10
130.5806256554
 20
55.7676984536
 30
0.0
 11
128.1612718085
 21
55.7676984536
 31
0.0
  0
LINE
  5
8A
330
1F
100
AcDbEntity
  8
0
  6
Continuous
 62
     7
370
    25
100
AcDbLine
 10
128.4838523214
 20
59.799954865
 30
0.0
 11
130.5806256554
 21
59.799954865
 31
0.0
  0
LINE
  5
8B
330
1F
100
AcDbEntity
  8
0
  6
Continuous
 62
     7
370
    25
100
AcDbLine
 10
37.8387281915
 20
59.4773743521
 30
0.0
 11
37.8387281915
 21
55.7676984536
 31
0.0
  0
LINE
  5
8C
330
1F
100
AcDbEntity
  8
0
  6
Continuous
 62
     7
370
    25
100
AcDbLine
 10
47.5161435791
 20
55.7676984536
 30
0.0
 11
37.8387281915
 21
55.7676984536
 31
0.0
  0
LINE
  5
8D
330
1F
100
AcDbEntity
  8
0
  6
Continuous
 62
     7
370
    25
100
AcDbLine
 10
118.4838564209
 20
59.4773743521
 30
0.0
 11
128.1612718085
 21
59.4773743521
 31
0.0
  0
LINE
  5
8E
330
1F
100
AcDbEntity
  8
0
  6
Continuous
 62
     7
370
    25
100
AcDbLine
 10
128.1612718085
 20
55.7676984536
 30
0.0
 11
118.4838564209
 21
55.7676984536
 31
0.0
  0
LINE
  5
8F
330
1F
100
AcDbEntity
  8
0
  6
Continuous
 62
     7
370
    25
100
AcDbLine
 10
37.8387281915
 20
55.7676984536
 30
0.0
 11
35.4193743446
 21
55.7676984536
 31
0.0
  0
LINE
  5
90
330
1F
100
AcDbEntity
  8
0
  6
Continuous
 62
     7
370
    25
100
AcDbLine
 10
37.5161476786
 20
59.799954865
 30
0.0
 11
35.4193743446
 21
59.799954865
 31
0.0
  0
LINE
  5
91
330
1F
100
AcDbEntity
  8
0
  6
Continuous
 62
     7
370
    25
100
AcDbLine
 10
128.4838523214
 20
59.799954865
 30
0.0
 11
118.161275908
 21
59.799954865
 31
0.0
  0
LINE
  5
92
330
1F
100
AcDbEntity
  8
0
  6
Continuous
 62
     7
370
    25
100
AcDbLine
 10
132.9999798387
 20
58.1870523004
 30
0.0
 11
132.0322381697
 21
58.1870523004
 31
0.0
  0
LINE
  5
93
330
1F
100
AcDbEntity
  8
0
  6
Continuous
 62
     7
370
    25
100
AcDbLine
 10
132.0322381697
 20
59.799954865
 30
0.0
 11
132.9999798387
 21
59.799954865
 31
0.0
  0
LINE
  5
94
330
1F
100
AcDbEntity
  8
0
  6
Continuous
 62
     7
370
    25
100
AcDbLine
 10
33.9677618303
 20
58.1870523004
 30
0.0
 11
33.0000201613
 21
58.1870523004
 31
0.0
  0
LINE
  5
95
330
1F
100
AcDbEntity
  8
0
  6
Continuous
 62
     7
370
    25
100
AcDbLine
 10
33.0000201613
 20
59.799954865
 30
0.0
 11
33.9677618303
 21
59.799954865
 31
0.0
  0
SPLINE
  5
96
330
1F
100
AcDbEntity
  8
0
  6
HIDDEN
 62
     7
370
    18
100
AcDbSpline
210
0.0
220
0.0
230
1.0
 70
     8
 71
     3
 72
    22
 73
    18
 74
     0
 42
0.00000001
 43
0.00000001
 40
0.0
 40
0.0
 40
0.0
 40
0.0
 40
0.1250000000000001
 40
0.1250000000000001
 40
0.2500000000000001
 40
0.2500000000000001
 40
0.3750000000000001
 40
0.3750000000000001
 40
0.5000000000000001
 40
0.5000000000000001
 40
0.6250000000000001
 40
0.6250000000000001
 40
0.7500000000000001
 40
0.7500000000000001
 40
0.875
 40
0.875
 40
1.0
 40
1.0
 40
1.0
 40
1.0
 10
113.662100564653
 20
58.18705230043295
 30
0.0
 10
113.6867375325623
 20
58.18705230043295
 30
0.0
 10
113.7371914803558
 20
58.18217861135052
 30
0.0
 10
113.8879509851488
 20
58.15198810957099
 30
0.0
 10
113.9883561584888
 20
58.12640225203927
 30
0.0
 10
114.2252078867616
 20
58.04551469667776
 30
0.0
 10
114.3649318307302
 20
57.98876665029334
 30
0.0
 10
114.6597180348987
 20
57.84170103310191
 30
0.0
 10
114.8185707541845
 20
57.74943518968552
 30
0.0
 10
115.1331084646763
 20
57.53350481118801
 30
0.0
 10
115.2901820471732
 20
57.4091580989348
 30
0.0
 10
115.5896365800299
 20
57.13422858141608
 30
0.0
 10
115.7299515573059
 20
56.98599544853985
 30
0.0
 10
115.9903488911775
 20
56.66842823329837
 30
0.0
 10
116.1110288659513
 20
56.49790300798403
 30
0.0
 10
116.3234058090533
 20
56.14405194697243
 30
0.0
 10
116.4159875955222
 20
55.96001596449459
 30
0.0
 10
116.4932581307338
 20
55.76769845355035
 30
0.0
  0
LINE
  5
97
330
1F
100
AcDbEntity
  8
0
  6
HIDDEN
 62
     7
370
    18
100
AcDbLine
 10
112.6430195516
 20
58.1870523004
 30
0.0
 11
113.6621005647
 21
58.1870523004
 31
0.0
  0
SPLINE
  5
98
330
1F
100
AcDbEntity
  8
0
  6
HIDDEN
 62
     7
370
    18
100
AcDbSpline
210
0.0
220
0.0
230
1.0
 70
     8
 71
     3
 72
    20
 73
    16
 74
     0
 42
0.00000001
 43
0.00000001
 40
0.0
 40
0.0
 40
0.0
 40
0.0
 40
0.2500000000000025
 40
0.2500000000000025
 40
0.3750000000000024
 40
0.3750000000000024
 40
0.5000000000000023
 40
0.5000000000000023
 40
0.6250000000000023
 40
0.6250000000000023
 40
0.7500000000000023
 40
0.7500000000000023
 40
0.8750000000000012
 40
0.8750000000000012
 40
1.0
 40
1.0
 40
1.0
 40
1.0
 10
49.50674186926617
 20
55.76769845355035
 30
0.0
 10
49.66131639415046
 20
56.15241673975992
 30
0.0
 10
49.87425780131356
 20
56.50267722699247
 30
0.0
 10
50.26869431374986
 20
56.98465543924852
 30
0.0
 10
50.40946793178822
 20
57.13323427502156
 30
0.0
 10
50.70675772869216
 20
57.40651838676607
 30
0.0
 10
50.86531266873868
 20
57.53227838465096
 30
0.0
 10
51.17888081571105
 20
57.74782636036613
 30
0.0
 10
51.33734148288135
 20
57.84011481455747
 30
0.0
 10
51.63384674910842
 20
57.98827487915467
 30
0.0
 10
51.77004619623167
 20
58.04375168440126
 30
0.0
 10
52.01067370249964
 20
58.12620982647732
 30
0.0
 10
52.10996143907567
 20
58.15149183403518
 30
0.0
 10
52.26165036135105
 20
58.18202325137482
 30
0.0
 10
52.31324211242539
 20
58.18705230043295
 30
0.0
 10
52.33789943534703
 20
58.18705230043295
 30
0.0
  0
LINE
  5
99
330
1F
100
AcDbEntity
  8
0
  6
HIDDEN
 62
     7
370
    18
100
AcDbLine
 10
52.3378994353
 20
58.1870523004
 30
0.0
 11
53.3569804484
 21
58.1870523004
 31
0.0
  0
LINE
  5
9A
330
1F
100
AcDbEntity
  8
0
  6
HIDDEN
 62
     7
370
    18
100
AcDbLine
 10
53.9677534048
 20
58.1870523004
 30
0.0
 11
53.9677534048
 21
59.799954865
 31
0.0
  0
LINE
  5
9B
330
1F
100
AcDbEntity
  8
0
  6
HIDDEN
 62
     7
370
    18
100
AcDbLine
 10
112.0322465952
 20
59.799954865
 30
0.0
 11
112.0322465952
 21
58.1870523004
 31
0.0
  0
SPLINE
  5
9C
330
1F
100
AcDbEntity
  8
0
  6
HIDDEN
 62
     7
370
    18
100
AcDbSpline
210
0.0
220
0.0
230
1.0
 70
     8
 71
     3
 72
    18
 73
    14
 74
     0
 42
0.00000001
 43
0.00000001
 40
0.0
 40
0.0
 40
0.0
 40
0.0
 40
0.125
 40
0.125
 40
0.25
 40
0.25
 40
0.375
 40
0.375
 40
0.5
 40
0.5
 40
0.75
 40
0.75
 40
1.0
 40
1.0
 40
1.0
 40
1.0
 10
130.580626009927
 20
58.16323445995059
 30
0.0
 10
130.4007160346171
 20
58.1485871761869
 30
0.0
 10
130.2250303362053
 20
58.12620377708512
 30
0.0
 10
129.8827741364468
 20
58.0587919090269
 30
0.0
 10
129.7159735651848
 20
58.01316293112227
 30
0.0
 10
129.4106330470804
 20
57.89726006180287
 30
0.0
 10
129.2680104347105
 20
57.82552349122779
 30
0.0
 10
129.013990926546
 20
57.6568142745345
 30
0.0
 10
128.9029378809558
 20
57.56073908456847
 30
0.0
 10
128.6105126049724
 20
57.23551834883456
 30
0.0
 10
128.4792808167966
 20
56.98100233057873
 30
0.0
 10
128.2960498310046
 20
56.4080030003789
 30
0.0
 10
128.2470239799178
 20
56.10051742807355
 30
0.0
 10
128.2178194083921
 20
55.76769845355035
 30
0.0
  0
LINE
  5
9D
330
1F
100
AcDbEntity
  8
0
  6
HIDDEN
 62
     7
370
    18
100
AcDbLine
 10
128.161272181
 20
58.1870523004
 30
0.0
 11
132.0322381697
 21
58.1870523004
 31
0.0
  0
SPLINE
  5
9E
330
1F
100
AcDbEntity
  8
0
  6
HIDDEN
 62
     7
370
    18
100
AcDbSpline
210
0.0
220
0.0
230
1.0
 70
     8
 71
     3
 72
    14
 73
    10
 74
     0
 42
0.00000001
 43
0.00000001
 40
0.0
 40
0.0
 40
0.0
 40
0.0
 40
0.25
 40
0.25
 40
0.5
 40
0.5
 40
0.75
 40
0.75
 40
1.0
 40
1.0
 40
1.0
 40
1.0
 10
130.151870039982
 20
55.76769845355036
 30
0.0
 10
130.2442748402696
 20
55.99768337873211
 30
0.0
 10
130.3580839559056
 20
56.2149563824415
 30
0.0
 10
130.6224386966472
 20
56.62818320710133
 30
0.0
 10
130.7752034156646
 20
56.82619524798511
 30
0.0
 10
131.1064752739476
 20
57.18779508597384
 30
0.0
 10
131.2853753365464
 20
57.35228696377371
 30
0.0
 10
131.6601875918595
 20
57.6434147233003
 30
0.0
 10
131.8487978292424
 20
57.76447035492829
 30
0.0
 10
132.0322381711069
 20
57.86311405898574
 30
0.0
  0
SPLINE
  5
9F
330
1F
100
AcDbEntity
  8
0
  6
HIDDEN
 62
     7
370
    18
100
AcDbSpline
210
0.0
220
0.0
230
1.0
 70
     8
 71
     3
 72
    18
 73
    14
 74
     0
 42
0.00000001
 43
0.00000001
 40
0.0
 40
0.0
 40
0.0
 40
0.0
 40
0.249999999999999
 40
0.249999999999999
 40
0.3749999999999985
 40
0.3749999999999985
 40
0.499999999999998
 40
0.499999999999998
 40
0.6249999999999974
 40
0.6249999999999974
 40
0.7499999999999968
 40
0.7499999999999968
 40
1.0
 40
1.0
 40
1.0
 40
1.0
 10
37.78218059160788
 20
55.76769845355035
 30
0.0
 10
37.75296971318943
 20
56.10058930221724
 30
0.0
 10
37.7039325685249
 20
56.40729820573414
 30
0.0
 10
37.56752183866972
 20
56.83501703812864
 30
0.0
 10
37.51118395244276
 20
56.97172286685433
 30
0.0
 10
37.37404407060639
 20
57.22494323882482
 30
0.0
 10
37.29298800545797
 20
57.34264629037312
 30
0.0
 10
37.09812929966336
 20
57.55974404210516
 30
0.0
 10
36.98650714459448
 20
57.65633512995473
 30
0.0
 10
36.73401112385253
 20
57.82432772988111
 30
0.0
 10
36.59054267592249
 20
57.89672611678694
 30
0.0
 10
36.13249895404353
 20
58.07085489953462
 30
0.0
 10
35.77945214379153
 20
58.1339188709431
 30
0.0
 10
35.4193739900652
 20
58.16323445995121
 30
0.0
  0
LINE
  5
A0
330
1F
100
AcDbEntity
  8
0
  6
HIDDEN
 62
     7
370
    18
100
AcDbLine
 10
33.9677618303
 20
58.1870523004
 30
0.0
 11
37.838727819
 21
58.1870523004
 31
0.0
  0
SPLINE
  5
A1
330
1F
100
AcDbEntity
  8
0
  6
HIDDEN
 62
     7
370
    18
100
AcDbSpline
210
0.0
220
0.0
230
1.0
 70
     8
 71
     3
 72
    14
 73
    10
 74
     0
 42
0.00000001
 43
0.00000001
 40
0.0
 40
0.0
 40
0.0
 40
0.0
 40
0.25
 40
0.25
 40
0.5
 40
0.5
 40
0.75
 40
0.75
 40
1.0
 40
1.0
 40
1.0
 40
1.0
 10
33.96776182611914
 20
57.86311406047746
 30
0.0
 10
34.15123122363975
 20
57.76445473215134
 30
0.0
 10
34.33945368300207
 20
57.643594522083
 30
0.0
 10
34.71279992015579
 20
57.35380255308506
 30
0.0
 10
34.89335170300964
 20
57.18802214333702
 30
0.0
 10
35.22558580837566
 20
56.82529550544585
 30
0.0
 10
35.37786441786892
 20
56.62773937721707
 30
0.0
 10
35.64190966459078
 20
56.21493633647862
 30
0.0
 10
35.75569651493596
 20
55.99775467233241
 30
0.0
 10
35.84812996001793
 20
55.76769845355033
 30
0.0
  0
SPLINE
  5
A2
330
1F
100
AcDbEntity
  8
0
  6
HIDDEN
 62
     7
370
    18
100
AcDbSpline
210
0.0
220
0.0
230
1.0
 70
     8
 71
     3
 72
    18
 73
    14
 74
     0
 42
0.00000001
 43
0.00000001
 40
0.0
 40
0.0
 40
0.0
 40
0.0
 40
0.2500000000000001
 40
0.2500000000000001
 40
0.3750000000000001
 40
0.3750000000000001
 40
0.5000000000000001
 40
0.5000000000000001
 40
0.6250000000000001
 40
0.6250000000000001
 40
0.7500000000000002
 40
0.7500000000000002
 40
1.0
 40
1.0
 40
1.0
 40
1.0
 10
118.4273095264128
 20
55.76769845355035
 30
0.0
 10
118.3980986218828
 20
56.10058926500142
 30
0.0
 10
118.3490614500289
 20
56.40729813965679
 30
0.0
 10
118.2126506929747
 20
56.8350169314322
 30
0.0
 10
118.1563127989551
 20
56.97172274988466
 30
0.0
 10
118.0191729087523
 20
57.22494310215404
 30
0.0
 10
117.9381168428752
 20
57.34264614454492
 30
0.0
 10
117.7432581475942
 20
57.55974388067753
 30
0.0
 10
117.631635997409
 20
57.65633496796929
 30
0.0
 10
117.379140004734
 20
57.824327566335
 30
0.0
 10
117.2356715758622
 20
57.89672595678649
 30
0.0
 10
116.7776279146192
 20
58.07085476362932
 30
0.0
 10
116.4245811650161
 20
58.13391876531356
 30
0.0
 10
116.0645030668043
 20
58.16323439096706
 30
0.0
  0
LINE
  5
A3
330
1F
100
AcDbEntity
  8
0
  6
HIDDEN
 62
     7
370
    18
100
AcDbLine
 10
116.0645030668
 20
58.1870523004
 30
0.0
 11
116.0645030668
 21
58.163234391
 31
0.0
  0
LINE
  5
A4
330
1F
100
AcDbEntity
  8
0
  6
HIDDEN
 62
     7
370
    18
100
AcDbLine
 10
113.6621005647
 20
58.1870523004
 30
0.0
 11
118.4838568956
 21
58.1870523004
 31
0.0
  0
SPLINE
  5
A5
330
1F
100
AcDbEntity
  8
0
  6
HIDDEN
 62
     7
370
    18
100
AcDbSpline
210
0.0
220
0.0
230
1.0
 70
     8
 71
     3
 72
    18
 73
    14
 74
     0
 42
0.00000001
 43
0.00000001
 40
0.0
 40
0.0
 40
0.0
 40
0.0
 40
0.1250000000000001
 40
0.1250000000000001
 40
0.2500000000000001
 40
0.2500000000000001
 40
0.3750000000000002
 40
0.3750000000000002
 40
0.5000000000000002
 40
0.5000000000000002
 40
0.7500000000000001
 40
0.7500000000000001
 40
1.0
 40
1.0
 40
1.0
 40
1.0
 10
49.93549693319572
 20
58.16323439096706
 30
0.0
 10
49.75558698598345
 20
58.1485870889234
 30
0.0
 10
49.57990131553844
 20
58.12620367287844
 30
0.0
 10
49.23764517174477
 20
58.058791776852
 30
0.0
 10
49.07084462564752
 20
58.01316278743045
 30
0.0
 10
48.76550415149942
 20
57.89725990376517
 30
0.0
 10
48.6228815602794
 20
57.82552333161685
 30
0.0
 10
48.36886207594031
 20
57.65681411453576
 30
0.0
 10
48.25780903904423
 20
57.56073892870439
 30
0.0
 10
47.9653837792136
 20
57.23551822012675
 30
0.0
 10
47.83415197916494
 20
56.98100222900716
 30
0.0
 10
47.65092094948489
 20
56.40800293816752
 30
0.0
 10
47.60189507118655
 20
56.10051739049729
 30
0.0
 10
47.57269047358723
 20
55.76769845355034
 30
0.0
  0
LINE
  5
A6
330
1F
100
AcDbEntity
  8
0
  6
HIDDEN
 62
     7
370
    18
100
AcDbLine
 10
49.9354969332
 20
58.1870523004
 30
0.0
 11
49.9354969332
 21
58.163234391
 31
0.0
  0
LINE
  5
A7
330
1F
100
AcDbEntity
  8
0
  6
HIDDEN
 62
     7
370
    18
100
AcDbLine
 10
47.5161431044
 20
58.1870523004
 30
0.0
 11
52.3378994353
 21
58.1870523004
 31
0.0
  0
SPLINE
  5
A8
330
1F
100
AcDbEntity
  8
0
  6
HIDDEN
 62
     7
370
    18
100
AcDbSpline
210
0.0
220
0.0
230
1.0
 70
     8
 71
     3
 72
    18
 73
    14
 74
     0
 42
0.00000001
 43
0.00000001
 40
0.0
 40
0.0
 40
0.0
 40
0.0
 40
0.1249999999999994
 40
0.1249999999999994
 40
0.2499999999999988
 40
0.2499999999999988
 40
0.3749999999999982
 40
0.3749999999999982
 40
0.4999999999999976
 40
0.4999999999999976
 40
0.7499999999999988
 40
0.7499999999999988
 40
1.0
 40
1.0
 40
1.0
 40
1.0
 10
42.67743588529017
 20
55.76769845355035
 30
0.0
 10
43.00241134850807
 20
55.76769845355035
 30
0.0
 10
43.31214210336727
 20
55.83110513539571
 30
0.0
 10
43.91640051821715
 20
56.02115209967148
 30
0.0
 10
44.21165902368713
 20
56.14621969530255
 30
0.0
 10
44.79571054492547
 20
56.41088835235283
 30
0.0
 10
45.08488289124346
 20
56.55131576641418
 30
0.0
 10
45.66425594961171
 20
56.82925386007233
 30
0.0
 10
45.95434862230992
 20
56.9670709696598
 30
0.0
 10
46.83124117421122
 20
57.36176162008057
 30
0.0
 10
47.42465409707373
 20
57.59987870904925
 30
0.0
 10
48.64786522027441
 20
57.97291400600142
 30
0.0
 10
49.27703110522616
 20
58.10962563827175
 30
0.0
 10
49.93549693319572
 20
58.16323439096706
 30
0.0
  0
SPLINE
  5
A9
330
1F
100
AcDbEntity
  8
0
  6
HIDDEN
 62
     7
370
    18
100
AcDbSpline
210
0.0
220
0.0
230
1.0
 70
     8
 71
     3
 72
    18
 73
    14
 74
     0
 42
0.00000001
 43
0.00000001
 40
0.0
 40
0.0
 40
0.0
 40
0.0
 40
0.125
 40
0.125
 40
0.25
 40
0.25
 40
0.375
 40
0.375
 40
0.5
 40
0.5
 40
0.75
 40
0.75
 40
1.0
 40
1.0
 40
1.0
 40
1.0
 10
123.3225641147098
 20
55.76769845355035
 30
0.0
 10
123.6475396132645
 20
55.76769845355035
 30
0.0
 10
123.9572704001289
 20
55.83110514925236
 30
0.0
 10
124.5615288774099
 20
56.02115214781004
 30
0.0
 10
124.8567874131135
 20
56.14621976338795
 30
0.0
 10
125.4408389958604
 20
56.41088845715784
 30
0.0
 10
125.7300113736407
 20
56.55131588847976
 30
0.0
 10
126.3093844965683
 20
56.82925401169523
 30
0.0
 10
126.5994772023538
 20
56.96707113364132
 30
0.0
 10
127.4763698561902
 20
57.3617618114481
 30
0.0
 10
128.0697828504802
 20
57.59987890602034
 30
0.0
 10
129.2929941262121
 20
57.972914175141
 30
0.0
 10
129.9221600919078
 20
58.10962577519818
 30
0.0
 10
130.580626009927
 20
58.16323445995058
 30
0.0
  0
SPLINE
  5
AA
330
1F
100
AcDbEntity
  8
0
  6
HIDDEN
 62
     7
370
    18
100
AcDbSpline
210
0.0
220
0.0
230
1.0
 70
     8
 71
     3
 72
    18
 73
    14
 74
     0
 42
0.00000001
 43
0.00000001
 40
0.0
 40
0.0
 40
0.0
 40
0.0
 40
0.125
 40
0.125
 40
0.25
 40
0.25
 40
0.375
 40
0.375
 40
0.5
 40
0.5
 40
0.75
 40
0.75
 40
1.0
 40
1.0
 40
1.0
 40
1.0
 10
123.3225641147098
 20
55.76769845355035
 30
0.0
 10
122.9975886514919
 20
55.76769845355035
 30
0.0
 10
122.6878578966327
 20
55.83110513539571
 30
0.0
 10
122.0835994817828
 20
56.02115209967149
 30
0.0
 10
121.7883409763129
 20
56.14621969530256
 30
0.0
 10
121.2042894550745
 20
56.41088835235283
 30
0.0
 10
120.9151171087565
 20
56.55131576641418
 30
0.0
 10
120.3357440503883
 20
56.82925386007233
 30
0.0
 10
120.0456513776901
 20
56.9670709696598
 30
0.0
 10
119.1687588257888
 20
57.36176162008057
 30
0.0
 10
118.5753459029263
 20
57.59987870904925
 30
0.0
 10
117.3521347797256
 20
57.97291400600142
 30
0.0
 10
116.7229688947738
 20
58.10962563827175
 30
0.0
 10
116.0645030668043
 20
58.16323439096706
 30
0.0
  0
SPLINE
  5
AB
330
1F
100
AcDbEntity
  8
0
  6
HIDDEN
 62
     7
370
    18
100
AcDbSpline
210
0.0
220
0.0
230
1.0
 70
     8
 71
     3
 72
    18
 73
    14
 74
     0
 42
0.00000001
 43
0.00000001
 40
0.0
 40
0.0
 40
0.0
 40
0.0
 40
0.125
 40
0.125
 40
0.25
 40
0.25
 40
0.375
 40
0.375
 40
0.5
 40
0.5
 40
0.75
 40
0.75
 40
1.0
 40
1.0
 40
1.0
 40
1.0
 10
42.67743588529017
 20
55.76769845355035
 30
0.0
 10
42.35246038673521
 20
55.76769845355035
 30
0.0
 10
42.0427295998705
 20
55.83110514925249
 30
0.0
 10
41.4384711225889
 20
56.02115214781048
 30
0.0
 10
41.14321258688501
 20
56.14621976338857
 30
0.0
 10
40.55916100413761
 20
56.4108884571588
 30
0.0
 10
40.26998862635696
 20
56.55131588848087
 30
0.0
 10
39.69061550342877
 20
56.82925401169661
 30
0.0
 10
39.40052279764299
 20
56.96707113364282
 30
0.0
 10
38.52363014380563
 20
57.36176181144985
 30
0.0
 10
37.93021714951502
 20
57.59987890602214
 30
0.0
 10
36.7070058737817
 20
57.97291417514255
 30
0.0
 10
36.07783990808523
 20
58.10962577519943
 30
0.0
 10
35.41937399006522
 20
58.16323445995121
 30
0.0
  0
LINE
  5
AC
330
1F
100
AcDbEntity
  8
0
  6
HIDDEN
 62
     7
370
    18
100
AcDbLine
 10
49.9354969332
 20
58.1870523004
 30
0.0
 11
49.9354969332
 21
58.163234391
 31
0.0
  0
LINE
  5
AD
330
1F
100
AcDbEntity
  8
0
  6
HIDDEN
 62
     7
370
    18
100
AcDbLine
 10
116.0645030668
 20
58.1870523004
 30
0.0
 11
116.0645030668
 21
58.163234391
 31
0.0
  0
LINE
  5
AE
330
1F
100
AcDbEntity
  8
0
  6
HIDDEN
 62
     7
370
    18
100
AcDbLine
 10
36.6290509136
 20
58.1870523004
 30
0.0
 11
36.6290509136
 21
59.799954865
 31
0.0
  0
LINE
  5
AF
330
1F
100
AcDbEntity
  8
0
  6
HIDDEN
 62
     7
370
    18
100
AcDbLine
 10
34.2096970667
 20
59.799954865
 30
0.0
 11
34.2096970667
 21
58.1870523004
 31
0.0
  0
LINE
  5
B0
330
1F
100
AcDbEntity
  8
0
  6
HIDDEN
 62
     7
370
    18
100
AcDbLine
 10
51.1451738567
 20
58.1870523004
 30
0.0
 11
51.1451738567
 21
59.799954865
 31
0.0
  0
LINE
  5
B1
330
1F
100
AcDbEntity
  8
0
  6
HIDDEN
 62
     7
370
    18
100
AcDbLine
 10
48.7258200098
 20
59.799954865
 30
0.0
 11
48.7258200098
 21
58.1870523004
 31
0.0
  0
LINE
  5
B2
330
1F
100
AcDbEntity
  8
0
  6
HIDDEN
 62
     7
370
    18
100
AcDbLine
 10
117.2741799902
 20
58.1870523004
 30
0.0
 11
117.2741799902
 21
59.799954865
 31
0.0
  0
LINE
  5
B3
330
1F
100
AcDbEntity
  8
0
  6
HIDDEN
 62
     7
370
    18
100
AcDbLine
 10
114.8548261433
 20
59.799954865
 30
0.0
 11
114.8548261433
 21
58.1870523004
 31
0.0
  0
LINE
  5
B4
330
1F
100
AcDbEntity
  8
0
  6
HIDDEN
 62
     7
370
    18
100
AcDbLine
 10
131.7903029333
 20
58.1870523004
 30
0.0
 11
131.7903029333
 21
59.799954865
 31
0.0
  0
LINE
  5
B5
330
1F
100
AcDbEntity
  8
0
  6
HIDDEN
 62
     7
370
    18
100
AcDbLine
 10
129.3709490864
 20
59.799954865
 30
0.0
 11
129.3709490864
 21
58.1870523004
 31
0.0
  0
LINE
  5
B6
330
1F
100
AcDbEntity
  8
0
  6
Continuous
 62
     7
370
    25
100
AcDbLine
 10
37.5161476786
 20
154.1958083167
 30
0.0
 11
35.4193743446
 21
154.1958083167
 31
0.0
  0
ARC
  5
B7
330
1F
100
AcDbEntity
  8
0
  6
Continuous
 62
     7
370
    25
100
AcDbCircle
 10
31.7903435743
 20
154.1958080914
 30
0.0
 40
3.62903077032389
100
AcDbArc
 50
0.0000035574
 51
53.1301064238
  0
ARC
  5
B8
330
1F
100
AcDbEntity
  8
0
  6
Continuous
 62
     7
370
    25
100
AcDbCircle
 10
134.2096564257
 20
154.1958080914
 30
0.0
 40
3.629030770323872
100
AcDbArc
 50
126.8698935762
 51
179.9999964426
  0
LINE
  5
B9
330
1F
100
AcDbEntity
  8
0
  6
Continuous
 62
     7
370
    25
100
AcDbLine
 10
128.4838523214
 20
154.1958083167
 30
0.0
 11
130.5806256554
 21
154.1958083167
 31
0.0
  0
ARC
  5
BA
330
1F
100
AcDbEntity
  8
0
  6
Continuous
 62
     7
370
    25
100
AcDbCircle
 10
123.3225641147
 20
154.1958083167
 30
0.0
 40
5.161288206682869
100
AcDbArc
 50
0.0
 51
180.0
  0
LINE
  5
BB
330
1F
100
AcDbEntity
  8
0
  6
Continuous
 62
     7
370
    25
100
AcDbLine
 10
47.838724092
 20
154.1958083167
 30
0.0
 11
118.161275908
 21
154.1958083167
 31
0.0
  0
ARC
  5
BC
330
1F
100
AcDbEntity
  8
0
  6
Continuous
 62
     7
370
    25
100
AcDbCircle
 10
42.6774358853
 20
154.1958083167
 30
0.0
 40
5.161288206682869
100
AcDbArc
 50
0.0
 51
180.0
  0
ARC
  5
BD
330
1F
100
AcDbEntity
  8
0
  6
Continuous
 62
     7
370
    25
100
AcDbCircle
 10
55.1774303282
 20
158.6312904535
 30
0.0
 40
1.209676923441293
100
AcDbArc
 50
90.0
 51
180.0
  0
LINE
  5
BE
330
1F
100
AcDbEntity
  8
0
  6
Continuous
 62
     7
370
    25
100
AcDbLine
 10
53.9677534048
 20
157.0183878288
 30
0.0
 11
53.9677534048
 21
158.6312904535
 31
0.0
  0
ARC
  5
BF
330
1F
100
AcDbEntity
  8
0
  6
Continuous
 62
     7
370
    25
100
AcDbCircle
 10
55.1774303282
 20
157.0183878288
 30
0.0
 40
1.209676923441279
100
AcDbArc
 50
180.0
 51
270.0
  0
LINE
  5
C0
330
1F
100
AcDbEntity
  8
0
  6
Continuous
 62
     7
370
    25
100
AcDbLine
 10
110.8225696718
 20
155.8087109053
 30
0.0
 11
55.1774303282
 21
155.8087109053
 31
0.0
  0
ARC
  5
C1
330
1F
100
AcDbEntity
  8
0
  6
Continuous
 62
     7
370
    25
100
AcDbCircle
 10
110.8225696718
 20
157.0183878288
 30
0.0
 40
1.209676923441293
100
AcDbArc
 50
270.0
 51
0.0
  0
LINE
  5
C2
330
1F
100
AcDbEntity
  8
0
  6
Continuous
 62
     7
370
    25
100
AcDbLine
 10
112.0322465952
 20
158.6312904535
 30
0.0
 11
112.0322465952
 21
157.0183878288
 31
0.0
  0
ARC
  5
C3
330
1F
100
AcDbEntity
  8
0
  6
Continuous
 62
     7
370
    25
100
AcDbCircle
 10
110.8225696718
 20
158.6312904535
 30
0.0
 40
1.209676923441293
100
AcDbArc
 50
0.0
 51
90.0
  0
LINE
  5
C4
330
1F
100
AcDbEntity
  8
0
  6
Continuous
 62
     7
370
    25
100
AcDbLine
 10
55.1774303282
 20
159.8409673769
 30
0.0
 11
110.8225696718
 21
159.8409673769
 31
0.0
  0
CIRCLE
  5
C5
330
1F
100
AcDbEntity
  8
0
  6
Continuous
 62
     7
370
    25
100
AcDbCircle
 10
116.0645030668
 20
159.0345160285
 30
0.0
 40
1.209676923441293
  0
CIRCLE
  5
C6
330
1F
100
AcDbEntity
  8
0
  6
Continuous
 62
     7
370
    25
100
AcDbCircle
 10
49.9354969332
 20
159.0345160285
 30
0.0
 40
1.209676923441293
  0
CIRCLE
  5
C7
330
1F
100
AcDbEntity
  8
0
  6
Continuous
 62
     7
370
    25
100
AcDbCircle
 10
130.5806260099
 20
159.0345160285
 30
0.0
 40
1.209676923441265
  0
CIRCLE
  5
C8
330
1F
100
AcDbEntity
  8
0
  6
Continuous
 62
     7
370
    25
100
AcDbCircle
 10
35.4193739901
 20
159.0345160285
 30
0.0
 40
1.209676923441293
  0
ARC
  5
C9
330
1F
100
AcDbEntity
  8
0
  6
Continuous
 62
     7
370
    25
100
AcDbCircle
 10
35.4193739901
 20
159.0345160285
 30
0.0
 40
2.419353828857024
100
AcDbArc
 50
89.9999916046
 51
233.1301064238
  0
ARC
  5
CA
330
1F
100
AcDbEntity
  8
0
  6
Continuous
 62
     7
370
    25
100
AcDbCircle
 10
130.5806260099
 20
159.0345160285
 30
0.0
 40
2.419353828857004
100
AcDbArc
 50
306.8698935762
 51
90.0000083954
  0
LINE
  5
CB
330
1F
100
AcDbEntity
  8
0
  6
Continuous
 62
     7
370
    25
100
AcDbLine
 10
35.4193743446
 20
161.4538698574
 30
0.0
 11
130.5806256554
 21
161.4538698574
 31
0.0
  0
LINE
  5
CC
330
1F
100
AcDbEntity
  8
0
  6
Continuous
 62
     7
370
    25
100
AcDbLine
 10
128.1612718085
 20
154.1958083167
 30
0.0
 11
128.4838523214
 21
154.1958083167
 31
0.0
  0
ARC
  5
CD
330
1F
100
AcDbEntity
  8
0
  6
Continuous
 62
     7
370
    25
100
AcDbCircle
 10
123.3225641147
 20
154.1958083167
 30
0.0
 40
4.838707693765201
100
AcDbArc
 50
0.0
 51
180.0
  0
LINE
  5
CE
330
1F
100
AcDbEntity
  8
0
  6
Continuous
 62
     7
370
    25
100
AcDbLine
 10
118.161275908
 20
154.1958083167
 30
0.0
 11
118.4838564209
 21
154.1958083167
 31
0.0
  0
LINE
  5
CF
330
1F
100
AcDbEntity
  8
0
  6
Continuous
 62
     7
370
    25
100
AcDbLine
 10
47.5161435791
 20
154.1958083167
 30
0.0
 11
47.838724092
 21
154.1958083167
 31
0.0
  0
ARC
  5
D0
330
1F
100
AcDbEntity
  8
0
  6
Continuous
 62
     7
370
    25
100
AcDbCircle
 10
42.6774358853
 20
154.1958083167
 30
0.0
 40
4.838707693765187
100
AcDbArc
 50
0.0
 51
180.0
  0
LINE
  5
D1
330
1F
100
AcDbEntity
  8
0
  6
Continuous
 62
     7
370
    25
100
AcDbLine
 10
37.5161476786
 20
154.1958083167
 30
0.0
 11
37.8387281915
 21
154.1958083167
 31
0.0
  0
ARC
  5
D2
330
1F
100
AcDbEntity
  8
0
  6
HIDDEN
 62
     7
370
    18
100
AcDbCircle
 10
130.5806260099
 20
159.0345160285
 30
0.0
 40
2.419353828857027
100
AcDbArc
 50
89.9999999984
 51
306.8698935762
  0
ARC
  5
D3
330
1F
100
AcDbEntity
  8
0
  6
HIDDEN
 62
     7
370
    18
100
AcDbCircle
 10
35.4193739901
 20
159.0345160285
 30
0.0
 40
2.419353828857008
100
AcDbArc
 50
233.1301064238
 51
90.0000000017
  0
ARC
  5
D4
330
1F
100
AcDbEntity
  8
0
  6
HIDDEN
 62
     7
370
    18
100
AcDbCircle
 10
116.0645030668
 20
159.0345160285
 30
0.0
 40
2.419353828857006
100
AcDbArc
 50
90.0
 51
105.8333950355
  0
ARC
  5
D5
330
1F
100
AcDbEntity
  8
0
  6
HIDDEN
 62
     7
370
    18
100
AcDbCircle
 10
49.9354969332
 20
159.0345160285
 30
0.0
 40
2.41935382885701
100
AcDbArc
 50
74.1666049645
 51
90.0
  0
ARC
  5
D6
330
1F
100
AcDbEntity
  8
0
  6
HIDDEN
 62
     7
370
    18
100
AcDbCircle
 10
116.0645030668
 20
159.0345160285
 30
0.0
 40
2.419353828857007
100
AcDbArc
 50
186.7864661252
 51
90.0
  0
ARC
  5
D7
330
1F
100
AcDbEntity
  8
0
  6
HIDDEN
 62
     7
370
    18
100
AcDbCircle
 10
49.9354969332
 20
159.0345160285
 30
0.0
 40
2.419353828857007
100
AcDbArc
 50
90.0
 51
353.2135338748
  0
ARC
  5
D8
330
1F
100
AcDbEntity
  8
0
  6
HIDDEN
 62
     7
370
    18
100
AcDbCircle
 10
42.6774358853
 20
154.1958083167
 30
0.0
 40
7.258061540647782
100
AcDbArc
 50
160.2078178234
 51
180.0
  0
ARC
  5
D9
330
1F
100
AcDbEntity
  8
0
  6
HIDDEN
 62
     7
370
    18
100
AcDbCircle
 10
42.6774358853
 20
154.1958083167
 30
0.0
 40
7.258061540647766
100
AcDbArc
 50
0.0
 51
19.7921808081
  0
ARC
  5
DA
330
1F
100
AcDbEntity
  8
0
  6
HIDDEN
 62
     7
370
    18
100
AcDbCircle
 10
42.6774358853
 20
154.1958083167
 30
0.0
 40
7.258061540647765
100
AcDbArc
 50
47.5879580311
 51
90.0
  0
ARC
  5
DB
330
1F
100
AcDbEntity
  8
0
  6
HIDDEN
 62
     7
370
    18
100
AcDbCircle
 10
42.6774358853
 20
154.1958083167
 30
0.0
 40
7.258061540647767
100
AcDbArc
 50
90.0
 51
132.4120495109
  0
ARC
  5
DC
330
1F
100
AcDbEntity
  8
0
  6
HIDDEN
 62
     7
370
    18
100
AcDbCircle
 10
123.3225641147
 20
154.1958083167
 30
0.0
 40
7.258061540647773
100
AcDbArc
 50
0.0
 51
19.7921821766
  0
ARC
  5
DD
330
1F
100
AcDbEntity
  8
0
  6
HIDDEN
 62
     7
370
    18
100
AcDbCircle
 10
123.3225641147
 20
154.1958083167
 30
0.0
 40
7.258061540647773
100
AcDbArc
 50
160.2078191919
 51
180.0
  0
ARC
  5
DE
330
1F
100
AcDbEntity
  8
0
  6
HIDDEN
 62
     7
370
    18
100
AcDbCircle
 10
123.3225641147
 20
154.1958083167
 30
0.0
 40
7.258061540647765
100
AcDbArc
 50
90.0
 51
132.4120419689
  0
ARC
  5
DF
330
1F
100
AcDbEntity
  8
0
  6
HIDDEN
 62
     7
370
    18
100
AcDbCircle
 10
123.3225641147
 20
154.1958083167
 30
0.0
 40
7.258061540647772
100
AcDbArc
 50
47.5879504891
 51
90.0
  0
INSERT
  5
EB
330
1F
100
AcDbEntity
  8
10
100
AcDbBlockReference
  2
SW_CENTERMARKSYMBOL_0
 10
130.5806260099
 20
159.0345160285
 30
0.0
  0
INSERT
  5
F7
330
1F
100
AcDbEntity
  8
10
100
AcDbBlockReference
  2
SW_CENTERMARKSYMBOL_1
 10
35.4193739901
 20
159.0345160285
 30
0.0
  0
INSERT
  5
103
330
1F
100
AcDbEntity
  8
10
100
AcDbBlockReference
  2
SW_CENTERMARKSYMBOL_2
 10
49.9354969332
 20
159.0345160285
 30
0.0
  0
INSERT
  5
10F
330
1F
100
AcDbEntity
  8
10
100
AcDbBlockReference
  2
SW_CENTERMARKSYMBOL_3
 10
116.0645030668
 20
159.0345160285
 30
0.0
  0
LINE
  5
110
330
1F
100
AcDbEntity
  8
0
  6
Continuous
 62
     7
370
    25
100
AcDbLine
 10
222.0990328623
 20
59.799954865
 30
0.0
 11
226.4538698574
 21
59.799954865
 31
0.0
  0
LINE
  5
111
330
1F
100
AcDbEntity
  8
0
  6
Continuous
 62
     7
370
    25
100
AcDbLine
 10
226.4538698574
 20
59.799954865
 30
0.0
 11
226.4538698574
 21
58.16323446
 31
0.0
  0
LINE
  5
112
330
1F
100
AcDbEntity
  8
0
  6
Continuous
 62
     7
370
    25
100
AcDbLine
 10
226.4538698574
 20
58.1870523004
 30
0.0
 11
222.0990328623
 21
58.1870523004
 31
0.0
  0
LINE
  5
113
330
1F
100
AcDbEntity
  8
0
  6
Continuous
 62
     7
370
    25
100
AcDbLine
 10
222.0990328634
 20
57.863114059
 30
0.0
 11
222.0990328623
 21
58.1870523004
 31
0.0
  0
SPLINE
  5
114
330
1F
100
AcDbEntity
  8
0
  6
Continuous
 62
     7
370
    25
100
AcDbSpline
210
0.0
220
0.0
230
1.0
 70
     8
 71
     3
 72
    18
 73
    14
 74
     0
 42
0.00000001
 43
0.00000001
 40
0.0
 40
0.0
 40
0.0
 40
0.0
 40
0.1250000000000004
 40
0.1250000000000004
 40
0.2500000000000008
 40
0.2500000000000008
 40
0.5000000000000014
 40
0.5000000000000014
 40
0.6250000000000018
 40
0.6250000000000018
 40
0.750000000000002
 40
0.750000000000002
 40
1.0
 40
1.0
 40
1.0
 40
1.0
 10
219.1958083167171
 20
55.76769845355033
 30
0.0
 10
219.3658762958263
 20
55.7676984834163
 30
0.0
 10
219.5285244694899
 20
55.82085384748036
 30
0.0
 10
219.8252929672838
 20
55.97005406842907
 30
0.0
 10
219.9622511061108
 20
56.06468144117082
 30
0.0
 10
220.3545772938732
 20
56.3621466881976
 30
0.0
 10
220.5912894221722
 20
56.57729927829492
 30
0.0
 10
220.9380634797513
 20
56.88898825016211
 30
0.0
 10
221.0517046081844
 20
56.99164106911501
 30
0.0
 10
221.276264523742
 20
57.19188390967257
 30
0.0
 10
221.387576793842
 20
57.28982158803202
 30
0.0
 10
221.7102598929773
 20
57.5662593913712
 30
0.0
 10
221.9130095780492
 20
57.7297371551327
 30
0.0
 10
222.099032863371
 20
57.86311405898574
 30
0.0
  0
LINE
  5
115
330
1F
100
AcDbEntity
  8
0
  6
Continuous
 62
     7
370
    25
100
AcDbLine
 10
219.1958083167
 20
59.799954865
 30
0.0
 11
219.1958083167
 21
55.7676984536
 31
0.0
  0
LINE
  5
116
330
1F
100
AcDbEntity
  8
0
  6
Continuous
 62
     7
370
    25
100
AcDbLine
 10
222.0990328623
 20
59.799954865
 30
0.0
 11
219.1958083167
 21
59.799954865
 31
0.0
  0
LINE
  5
117
330
1F
100
AcDbEntity
  8
0
  6
Continuous
 62
     7
370
    25
100
AcDbLine
 10
221.6534571742
 20
55.7676984536
 30
0.0
 11
219.1958083167
 21
55.7676984536
 31
0.0
  0
SPLINE
  5
118
330
1F
100
AcDbEntity
  8
0
  6
Continuous
 62
     7
370
    25
100
AcDbSpline
210
0.0
220
0.0
230
1.0
 70
     8
 71
     3
 72
    14
 73
    10
 74
     0
 42
0.00000001
 43
0.00000001
 40
0.0
 40
0.0
 40
0.0
 40
0.0
 40
0.25
 40
0.25
 40
0.5
 40
0.5
 40
0.75
 40
0.75
 40
1.0
 40
1.0
 40
1.0
 40
1.0
 10
221.6534571742376
 20
55.76769845355036
 30
0.0
 10
221.6368178922234
 20
55.99768337873211
 30
0.0
 10
221.6217907544797
 20
56.2149563824415
 30
0.0
 10
221.6119100116457
 20
56.62818320710133
 30
0.0
 10
221.6171890320583
 20
56.82619524798511
 30
0.0
 10
221.6670674596741
 20
57.18779508597384
 30
0.0
 10
221.711317829288
 20
57.35228696377371
 30
0.0
 10
221.8600118834222
 20
57.6434147233003
 30
0.0
 10
221.961452627123
 20
57.76447035492829
 30
0.0
 10
222.099032863371
 20
57.86311405898574
 30
0.0
  0
LINE
  5
119
330
1F
100
AcDbEntity
  8
0
  6
Continuous
 62
     7
370
    25
100
AcDbLine
 10
224.5545332525
 20
55.7676984536
 30
0.0
 11
221.6534571742
 21
55.7676984536
 31
0.0
  0
SPLINE
  5
11A
330
1F
100
AcDbEntity
  8
0
  6
Continuous
 62
     7
370
    25
100
AcDbSpline
210
0.0
220
0.0
230
1.0
 70
     8
 71
     3
 72
    18
 73
    14
 74
     0
 42
0.00000001
 43
0.00000001
 40
0.0
 40
0.0
 40
0.0
 40
0.0
 40
0.125
 40
0.125
 40
0.25
 40
0.25
 40
0.375
 40
0.375
 40
0.5
 40
0.5
 40
0.75
 40
0.75
 40
1.0
 40
1.0
 40
1.0
 40
1.0
 10
226.4538698573649
 20
58.16323445995059
 30
0.0
 10
226.4538698573698
 20
58.1485871761869
 30
0.0
 10
226.4340090215378
 20
58.12620377708512
 30
0.0
 10
226.357664252254
 20
58.0587919090269
 30
0.0
 10
226.3003412113054
 20
58.01316293112227
 30
0.0
 10
226.1588286411259
 20
57.89726006180287
 30
0.0
 10
226.0729683049163
 20
57.82552349122779
 30
0.0
 10
225.8848948672998
 20
57.6568142745345
 30
0.0
 10
225.7835779466746
 20
57.56073908456847
 30
0.0
 10
225.4677831111074
 20
57.23551834883456
 30
0.0
 10
225.2529866956231
 20
56.98100233057873
 30
0.0
 10
224.8597639125023
 20
56.4080030003789
 30
0.0
 10
224.6872303079337
 20
56.10051742807355
 30
0.0
 10
224.5545332525116
 20
55.76769845355035
 30
0.0
  0
LINE
  5
11B
330
1F
100
AcDbEntity
  8
0
  6
Continuous
 62
     7
370
    25
100
AcDbLine
 10
226.4538698574
 20
55.7676984536
 30
0.0
 11
224.5545332525
 21
55.7676984536
 31
0.0
  0
SPLINE
  5
11C
330
1F
100
AcDbEntity
  8
0
  6
Continuous
 62
     7
370
    25
100
AcDbSpline
210
0.0
220
0.0
230
1.0
 70
    24
 71
     3
 72
    18
 73
    14
 74
     0
 42
0.00000001
 43
0.00000001
 40
0.0
 40
0.0
 40
0.0
 40
0.0
 40
0.125
 40
0.125
 40
0.25
 40
0.25
 40
0.375
 40
0.375
 40
0.5
 40
0.5
 40
0.75
 40
0.75
 40
1.0
 40
1.0
 40
1.0
 40
1.0
 10
226.4538698573648
 20
55.76769845355035
 30
0.0
 10
226.4538698573648
 20
55.76769845355035
 30
0.0
 10
226.4538698573648
 20
55.83110514925236
 30
0.0
 10
226.4538698573648
 20
56.02115214781004
 30
0.0
 10
226.4538698573648
 20
56.14621976338795
 30
0.0
 10
226.4538698573648
 20
56.41088845715784
 30
0.0
 10
226.4538698573648
 20
56.55131588847976
 30
0.0
 10
226.4538698573648
 20
56.82925401169523
 30
0.0
 10
226.4538698573648
 20
56.96707113364132
 30
0.0
 10
226.4538698573648
 20
57.3617618114481
 30
0.0
 10
226.4538698573648
 20
57.59987890602034
 30
0.0
 10
226.4538698573648
 20
57.972914175141
 30
0.0
 10
226.4538698573648
 20
58.10962577519818
 30
0.0
 10
226.4538698573648
 20
58.16323445995058
 30
0.0
  0
LINE
  5
11D
330
1F
100
AcDbEntity
  8
0
  6
HIDDEN
 62
     7
370
    18
100
AcDbLine
 10
221.6151621997
 20
58.1870523004
 30
0.0
 11
222.0990328623
 21
58.1870523004
 31
0.0
  0
LINE
  5
11E
330
1F
100
AcDbEntity
  8
0
  6
HIDDEN
 62
     7
370
    18
100
AcDbLine
 10
224.0345160105
 20
59.4773743521
 30
0.0
 11
219.1958083167
 21
59.4773743521
 31
0.0
  0
SPLINE
  5
11F
330
1F
100
AcDbEntity
  8
0
  6
HIDDEN
 62
     7
370
    18
100
AcDbSpline
210
0.0
220
0.0
230
1.0
 70
     8
 71
     3
 72
    10
 73
     6
 74
     0
 42
0.00000001
 43
0.00000001
 40
0.0
 40
0.0
 40
0.0
 40
0.0
 40
0.3602472340599847
 40
0.7212018407824672
 40
1.0
 40
1.0
 40
1.0
 40
1.0
 10
223.7486223995695
 20
58.18705230043295
 30
0.0
 10
223.4987189093774
 20
58.18191003660105
 30
0.0
 10
222.9984212246087
 20
58.17161541171371
 30
0.0
 10
222.3949686916168
 20
58.0622456462565
 30
0.0
 10
222.1507862598454
 20
57.87808030524972
 30
0.0
 10
222.0443738828843
 20
57.79782280454333
 30
0.0
  0
SPLINE
  5
120
330
1F
100
AcDbEntity
  8
0
  6
HIDDEN
 62
     7
370
    18
100
AcDbSpline
210
0.0
220
0.0
230
1.0
 70
     8
 71
     3
 72
     9
 73
     5
 74
     0
 42
0.00000001
 43
0.00000001
 40
0.0
 40
0.0
 40
0.0
 40
0.0
 40
0.956974246626279
 40
1.0
 40
1.0
 40
1.0
 40
1.0
 10
221.6226103929814
 20
56.6960530144441
 30
0.0
 10
221.617787691215
 20
56.65405752774562
 30
0.0
 10
221.6127481598135
 20
56.61017391557264
 30
0.0
 10
221.6153770549182
 20
56.55778318825718
 30
0.0
 10
221.6154901651107
 20
56.55552903774463
 30
0.0
  0
LINE
  5
121
330
1F
100
AcDbEntity
  8
0
  6
HIDDEN
 62
     7
370
    18
100
AcDbLine
 10
219.1958083167
 20
58.1870523004
 30
0.0
 11
221.6151621997
 21
58.1870523004
 31
0.0
  0
LINE
  5
122
330
1F
100
AcDbEntity
  8
0
  6
HIDDEN
 62
     7
370
    18
100
AcDbLine
 10
224.8409673769
 20
59.799954865
 30
0.0
 11
224.8409673769
 21
58.1870523004
 31
0.0
  0
LINE
  5
123
330
1F
100
AcDbEntity
  8
0
  6
HIDDEN
 62
     7
370
    18
100
AcDbLine
 10
220.8087109053
 20
58.1870523004
 30
0.0
 11
220.8087109053
 21
59.799954865
 31
0.0
  0
LINE
  5
124
330
1F
100
AcDbEntity
  8
0
  6
HIDDEN
 62
     7
370
    18
100
AcDbLine
 10
221.6151621997
 20
58.1870523004
 30
0.0
 11
221.6151621997
 21
56.5370181247
 31
0.0
  0
LINE
  5
125
330
1F
100
AcDbEntity
  8
0
  6
HIDDEN
 62
     7
370
    18
100
AcDbLine
 10
225.2441929519
 20
58.1870523004
 30
0.0
 11
225.2441929519
 21
59.799954865
 31
0.0
  0
LINE
  5
126
330
1F
100
AcDbEntity
  8
0
  6
HIDDEN
 62
     7
370
    18
100
AcDbLine
 10
222.8248391051
 20
59.799954865
 30
0.0
 11
222.8248391051
 21
58.1870523004
 31
0.0
  0
LINE
  5
127
330
1F
100
AcDbEntity
  8
0
  6
HIDDEN
 62
     7
370
    18
100
AcDbLine
 10
224.0345160105
 20
59.4773743521
 30
0.0
 11
224.3570965234
 21
59.799954865
 31
0.0
  0
LINE
  5
128
330
1F
100
AcDbEntity
  8
0
  6
HIDDEN
 62
     7
370
    18
100
AcDbLine
 10
224.0345160105
 20
55.7676984536
 30
0.0
 11
224.0345160105
 21
59.4773743521
 31
0.0
  0
ENDSEC
  0
SECTION
  2
OBJECTS
  0
DICTIONARY
  5
C
330
0
100
AcDbDictionary
281
     1
  3
ACAD_GROUP
350
D
  3
ACAD_LAYOUT
350
1A
  3
ACAD_MLINESTYLE
350
17
  3
ACAD_PLOTSETTINGS
350
19
  3
ACAD_PLOTSTYLENAME
350
E
  3
ACAD_SCALELIST
350
47
  3
DWGPROPS
350
129
  0
DICTIONARY
  5
D
102
{ACAD_REACTORS
330
C
102
}
330
C
100
AcDbDictionary
281
     1
  0
DICTIONARY
  5
1A
102
{ACAD_REACTORS
330
C
102
}
330
C
100
AcDbDictionary
281
     1
  3
Layout1
350
1E
  3
Layout2
350
26
  3
Model
350
22
  0
DICTIONARY
  5
17
102
{ACAD_REACTORS
330
C
102
}
330
C
100
AcDbDictionary
281
     1
  3
Standard
350
18
  0
DICTIONARY
  5
19
102
{ACAD_REACTORS
330
C
102
}
330
C
100
AcDbDictionary
281
     1
  0
ACDBDICTIONARYWDFLT
  5
E
102
{ACAD_REACTORS
330
C
102
}
330
C
100
AcDbDictionary
281
     1
  3
Normal
350
F
100
AcDbDictionaryWithDefault
340
F
  0
DICTIONARY
  5
47
102
{ACAD_REACTORS
330
C
102
}
330
C
100
AcDbDictionary
281
     1
  3
A0
350
48
  3
A1
350
49
  3
A2
350
4A
  3
A3
350
4B
  3
A4
350
4C
  3
A5
350
4D
  3
A6
350
4E
  3
A7
350
4F
  3
A8
350
50
  3
A9
350
51
  3
B0
350
52
  3
B1
350
53
  3
B2
350
54
  3
B3
350
55
  3
B4
350
56
  3
B5
350
57
  3
B6
350
58
  0
XRECORD
  5
129
102
{ACAD_REACTORS
330
C
102
}
330
C
100
AcDbXrecord
280
     1
  1
DWGPROPS COOKIE
  2

  3

  4

  6

  7

  8

  9

300
=
301
=
302
=
303
=
304
=
305
=
306
=
307
=
308
=
309
=
 40
0.0
 41
2461214.95020632
 42
2461214.950206701
  1

 90
        0
  0
LAYOUT
  5
1E
102
{ACAD_REACTORS
330
1A
102
}
330
1A
100
AcDbPlotSettings
  1

  2
none_device
  4

  6

 40
0.0
 41
0.0
 42
0.0
 43
0.0
 44
0.0
 45
0.0
 46
0.0
 47
0.0
 48
0.0
 49
0.0
140
0.0
141
0.0
142
1.0
143
1.0
 70
   688
 72
     1
 73
     0
 74
     5
  7

 75
    16
147
1.0
148
0.0
149
0.0
100
AcDbLayout
  1
Layout1
 70
     1
 71
     1
 10
0.0
 20
0.0
 11
420.0
 21
297.0
 12
0.0
 22
0.0
 32
0.0
 14
1.0000000000E+20
 24
1.0000000000E+20
 34
1.0000000000E+20
 15
-1.0000000000E+20
 25
-1.0000000000E+20
 35
-1.0000000000E+20
146
0.0
 13
0.0
 23
0.0
 33
0.0
 16
1.0
 26
0.0
 36
0.0
 17
0.0
 27
1.0
 37
0.0
 76
     0
330
1B
  0
LAYOUT
  5
26
102
{ACAD_REACTORS
330
1A
102
}
330
1A
100
AcDbPlotSettings
  1

  2
none_device
  4

  6

 40
0.0
 41
0.0
 42
0.0
 43
0.0
 44
0.0
 45
0.0
 46
0.0
 47
0.0
 48
0.0
 49
0.0
140
0.0
141
0.0
142
1.0
143
1.0
 70
   688
 72
     1
 73
     0
 74
     5
  7

 75
    16
147
1.0
148
0.0
149
0.0
100
AcDbLayout
  1
Layout2
 70
     1
 71
     2
 10
0.0
 20
0.0
 11
0.0
 21
0.0
 12
0.0
 22
0.0
 32
0.0
 14
0.0
 24
0.0
 34
0.0
 15
0.0
 25
0.0
 35
0.0
146
0.0
 13
0.0
 23
0.0
 33
0.0
 16
1.0
 26
0.0
 36
0.0
 17
0.0
 27
1.0
 37
0.0
 76
     0
330
23
  0
LAYOUT
  5
22
102
{ACAD_REACTORS
330
1A
102
}
330
1A
100
AcDbPlotSettings
  1

  2
none_device
  4
Letter_(8.50_x_11.00_Inches)
  6

 40
6.35
 41
6.35
 42
6.35000508
 43
6.35000508
 44
215.9
 45
279.4
 46
0.0
 47
0.0
 48
0.0
 49
0.0
140
0.0
141
0.0
142
1.0
143
1.0
 70
  1712
 72
     1
 73
     0
 74
     0
  7

 75
     0
147
1.0
148
0.0
149
0.0
100
AcDbLayout
  1
Model
 70
     1
 71
     0
 10
0.0
 20
0.0
 11
297.0
 21
210.0
 12
0.0
 22
0.0
 32
0.0
 14
0.0
 24
0.0
 34
0.0
 15
297.0
 25
210.0
 35
0.0
146
0.0
 13
0.0
 23
0.0
 33
0.0
 16
1.0
 26
0.0
 36
0.0
 17
0.0
 27
1.0
 37
0.0
 76
     0
330
1F
331
29
  0
MLINESTYLE
  5
18
102
{ACAD_REACTORS
330
17
102
}
330
17
100
AcDbMlineStyle
  2
Standard
 70
     0
  3

 62
   256
 51
90.0
 52
90.0
 71
     2
 49
0.5
 62
   256
  6
BYLAYER
 49
-0.5
 62
   256
  6
BYLAYER
  0
ACDBPLACEHOLDER
  5
F
102
{ACAD_REACTORS
330
E
102
}
330
E
  0
SCALE
  5
48
102
{ACAD_REACTORS
330
47
102
}
330
47
100
AcDbScale
 70
     0
300
1:1
140
1.0
141
1.0
290
     1
  0
SCALE
  5
49
102
{ACAD_REACTORS
330
47
102
}
330
47
100
AcDbScale
 70
     0
300
1:2
140
1.0
141
2.0
290
     0
  0
SCALE
  5
4A
102
{ACAD_REACTORS
330
47
102
}
330
47
100
AcDbScale
 70
     0
300
1:4
140
1.0
141
4.0
290
     0
  0
SCALE
  5
4B
102
{ACAD_REACTORS
330
47
102
}
330
47
100
AcDbScale
 70
     0
300
1:5
140
1.0
141
5.0
290
     0
  0
SCALE
  5
4C
102
{ACAD_REACTORS
330
47
102
}
330
47
100
AcDbScale
 70
     0
300
1:8
140
1.0
141
8.0
290
     0
  0
SCALE
  5
4D
102
{ACAD_REACTORS
330
47
102
}
330
47
100
AcDbScale
 70
     0
300
1:10
140
1.0
141
10.0
290
     0
  0
SCALE
  5
4E
102
{ACAD_REACTORS
330
47
102
}
330
47
100
AcDbScale
 70
     0
300
1:16
140
1.0
141
16.0
290
     0
  0
SCALE
  5
4F
102
{ACAD_REACTORS
330
47
102
}
330
47
100
AcDbScale
 70
     0
300
1:20
140
1.0
141
20.0
290
     0
  0
SCALE
  5
50
102
{ACAD_REACTORS
330
47
102
}
330
47
100
AcDbScale
 70
     0
300
1:30
140
1.0
141
30.0
290
     0
  0
SCALE
  5
51
102
{ACAD_REACTORS
330
47
102
}
330
47
100
AcDbScale
 70
     0
300
1:40
140
1.0
141
40.0
290
     0
  0
SCALE
  5
52
102
{ACAD_REACTORS
330
47
102
}
330
47
100
AcDbScale
 70
     0
300
1:50
140
1.0
141
50.0
290
     0
  0
SCALE
  5
53
102
{ACAD_REACTORS
330
47
102
}
330
47
100
AcDbScale
 70
     0
300
1:100
140
1.0
141
100.0
290
     0
  0
SCALE
  5
54
102
{ACAD_REACTORS
330
47
102
}
330
47
100
AcDbScale
 70
     0
300
2:1
140
2.0
141
1.0
290
     0
  0
SCALE
  5
55
102
{ACAD_REACTORS
330
47
102
}
330
47
100
AcDbScale
 70
     0
300
4:1
140
4.0
141
1.0
290
     0
  0
SCALE
  5
56
102
{ACAD_REACTORS
330
47
102
}
330
47
100
AcDbScale
 70
     0
300
8:1
140
8.0
141
1.0
290
     0
  0
SCALE
  5
57
102
{ACAD_REACTORS
330
47
102
}
330
47
100
AcDbScale
 70
     0
300
10:1
140
10.0
141
1.0
290
     0
  0
SCALE
  5
58
102
{ACAD_REACTORS
330
47
102
}
330
47
100
AcDbScale
 70
     0
300
100:1
140
100.0
141
1.0
290
     0
  0
ENDSEC
  0
EOF
