  0
SECTION
  2
HEADER
  9
$ACADVER
  1
AC1015
  9
$ACADMAINTVER
 70
     6
  9
$DWGCODEPAGE
  3
ANSI_936
  9
$INSBASE
 10
0.0
 20
0.0
 30
0.0
  9
$EXTMIN
 10
0.0
 20
0.0
 30
0.0
  9
$EXTMAX
 10
297.0
 20
210.0
 30
0.0
  9
$LIMMIN
 10
0.0
 20
0.0
  9
$LIMMAX
 10
297.0
 20
210.0
  9
$ORTHOMODE
 70
     0
  9
$REGENMODE
 70
     1
  9
$FILLMODE
 70
     1
  9
$QTEXTMODE
 70
     0
  9
$MIRRTEXT
 70
     1
  9
$LTSCALE
 40
1.0
  9
$ATTMODE
 70
     1
  9
$TEXTSIZE
 40
3.5
  9
$TRACEWID
 40
1.0
  9
$TEXTSTYLE
  7
Standard
  9
$CLAYER
  8
0
  9
$CELTYPE
  6
ByLayer
  9
$CECOLOR
 62
   256
  9
$CELTSCALE
 40
1.0
  9
$DISPSILH
 70
     0
  9
$DIMSCALE
 40
1.0
  9
$DIMASZ
 40
4.08
  9
$DIMEXO
 40
0.0
  9
$DIMDLI
 40
3.75
  9
$DIMRND
 40
0.0
  9
$DIMDLE
 40
0.0
  9
$DIMEXE
 40
2.0
  9
$DIMTP
 40
0.0
  9
$DIMTM
 40
0.0
  9
$DIMTXT
 40
3.5
  9
$DIMCEN
 40
2.5
  9
$DIMTSZ
 40
0.0
  9
$DIMTOL
 70
     0
  9
$DIMLIM
 70
     0
  9
$DIMTIH
 70
     1
  9
$DIMTOH
 70
     1
  9
$DIMSE1
 70
     0
  9
$DIMSE2
 70
     0
  9
$DIMTAD
 70
     1
  9
$DIMZIN
 70
     0
  9
$DIMBLK
  1

  9
$DIMASO
 70
     1
  9
$DIMSHO
 70
     1
  9
$DIMPOST
  1

  9
$DIMAPOST
  1

  9
$DIMALT
 70
     0
  9
$DIMALTD
 70
     3
  9
$DIMALTF
 40
0.0393700787
  9
$DIMLFAC
 40
2.0
  9
$DIMTOFL
 70
     1
  9
$DIMTVP
 40
0.0
  9
$DIMTIX
 70
     0
  9
$DIMSOXD
 70
     0
  9
$DIMSAH
 70
     0
  9
$DIMBLK1
  1

  9
$DIMBLK2
  1

  9
$DIMSTYLE
  2
ISO-25
  9
$DIMCLRD
 70
     0
  9
$DIMCLRE
 70
     0
  9
$DIMCLRT
 70
     0
  9
$DIMTFAC
 40
1.0
  9
$DIMGAP
 40
1.524
  9
$DIMJUST
 70
     0
  9
$DIMSD1
 70
     0
  9
$DIMSD2
 70
     0
  9
$DIMTOLJ
 70
     0
  9
$DIMTZIN
 70
     0
  9
$DIMALTZ
 70
     0
  9
$DIMALTTZ
 70
     0
  9
$DIMUPT
 70
     0
  9
$DIMDEC
 70
     2
  9
$DIMTDEC
 70
     2
  9
$DIMALTU
 70
     2
  9
$DIMALTTD
 70
     3
  9
$DIMTXSTY
  7
Standard
  9
$DIMAUNIT
 70
     0
  9
$DIMADEC
 70
     2
  9
$DIMALTRND
 40
0.0
  9
$DIMAZIN
 70
     0
  9
$DIMDSEP
 70
    44
  9
$DIMATFIT
 70
     3
  9
$DIMFRAC
 70
     0
  9
$DIMLDRBLK
  1

  9
$DIMLUNIT
 70
     2
  9
$DIMLWD
 70
    -2
  9
$DIMLWE
 70
    -2
  9
$DIMTMOVE
 70
     0
  9
$LUNITS
 70
     2
  9
$LUPREC
 70
     2
  9
$SKETCHINC
 40
1.0
  9
$FILLETRAD
 40
0.0
  9
$AUNITS
 70
     0
  9
$AUPREC
 70
     2
  9
$MENU
  1
.
  9
$ELEVATION
 40
0.0
  9
$PELEVATION
 40
0.0
  9
$THICKNESS
 40
0.0
  9
$LIMCHECK
 70
     0
  9
$CHAMFERA
 40
0.0
  9
$CHAMFERB
 40
0.0
  9
$CHAMFERC
 40
0.0
  9
$CHAMFERD
 40
0.0
  9
$SKPOLY
 70
     0
  9
$TDCREATE
 40
2461215.291368507
  9
$TDUCREATE
 40
2461214.958035174
  9
$TDUPDATE
 40
2461215.291368866
  9
$TDUUPDATE
 40
2461214.958035533
  9
$TDINDWG
 40
0.0000000116
  9
$TDUSRTIMER
 40
0.0000000116
  9
$USRTIMER
 70
     1
  9
$ANGBASE
 50
0.0
  9
$ANGDIR
 70
     0
  9
$PDMODE
 70
     0
  9
$PDSIZE
 40
-1.0
  9
$PLINEWID
 40
0.0
  9
$SPLFRAME
 70
     0
  9
$SPLINETYPE
 70
     6
  9
$SPLINESEGS
 70
     8
  9
$HANDSEED
  5
E2
  9
$SURFTAB1
 70
     6
  9
$SURFTAB2
 70
     6
  9
$SURFTYPE
 70
     6
  9
$SURFU
 70
     6
  9
$SURFV
 70
     6
  9
$UCSBASE
  2

  9
$UCSNAME
  2

  9
$UCSORG
 10
0.0
 20
0.0
 30
0.0
  9
$UCSXDIR
 10
1.0
 20
0.0
 30
0.0
  9
$UCSYDIR
 10
0.0
 20
1.0
 30
0.0
  9
$UCSORTHOREF
  2

  9
$UCSORTHOVIEW
 70
     0
  9
$UCSORGTOP
 10
0.0
 20
0.0
 30
0.0
  9
$UCSORGBOTTOM
 10
0.0
 20
0.0
 30
0.0
  9
$UCSORGLEFT
 10
0.0
 20
0.0
 30
0.0
  9
$UCSORGRIGHT
 10
0.0
 20
0.0
 30
0.0
  9
$UCSORGFRONT
 10
0.0
 20
0.0
 30
0.0
  9
$UCSORGBACK
 10
0.0
 20
0.0
 30
0.0
  9
$PUCSBASE
  2

  9
$PUCSNAME
  2

  9
$PUCSORG
 10
0.0
 20
0.0
 30
0.0
  9
$PUCSXDIR
 10
1.0
 20
0.0
 30
0.0
  9
$PUCSYDIR
 10
0.0
 20
1.0
 30
0.0
  9
$PUCSORTHOREF
  2

  9
$PUCSORTHOVIEW
 70
     0
  9
$PUCSORGTOP
 10
0.0
 20
0.0
 30
0.0
  9
$PUCSORGBOTTOM
 10
0.0
 20
0.0
 30
0.0
  9
$PUCSORGLEFT
 10
0.0
 20
0.0
 30
0.0
  9
$PUCSORGRIGHT
 10
0.0
 20
0.0
 30
0.0
  9
$PUCSORGFRONT
 10
0.0
 20
0.0
 30
0.0
  9
$PUCSORGBACK
 10
0.0
 20
0.0
 30
0.0
  9
$USERI1
 70
     0
  9
$USERI2
 70
     0
  9
$USERI3
 70
     0
  9
$USERI4
 70
     0
  9
$USERI5
 70
     0
  9
$USERR1
 40
0.0
  9
$USERR2
 40
0.0
  9
$USERR3
 40
0.0
  9
$USERR4
 40
0.0
  9
$USERR5
 40
0.0
  9
$WORLDVIEW
 70
     1
  9
$SHADEDGE
 70
     3
  9
$SHADEDIF
 70
    70
  9
$TILEMODE
 70
     1
  9
$MAXACTVP
 70
    64
  9
$PINSBASE
 10
0.0
 20
0.0
 30
0.0
  9
$PLIMCHECK
 70
     0
  9
$PEXTMIN
 10
1.0000000000E+20
 20
1.0000000000E+20
 30
1.0000000000E+20
  9
$PEXTMAX
 10
-1.0000000000E+20
 20
-1.0000000000E+20
 30
-1.0000000000E+20
  9
$PLIMMIN
 10
0.0
 20
0.0
  9
$PLIMMAX
 10
420.0
 20
297.0
  9
$UNITMODE
 70
     0
  9
$VISRETAIN
 70
     1
  9
$PLINEGEN
 70
     0
  9
$PSLTSCALE
 70
     1
  9
$TREEDEPTH
 70
  3020
  9
$CMLSTYLE
  2
Standard
  9
$CMLJUST
 70
     0
  9
$CMLSCALE
 40
20.0
  9
$PROXYGRAPHICS
 70
     1
  9
$MEASUREMENT
 70
     1
  9
$CELWEIGHT
370
    -1
  9
$ENDCAPS
280
     0
  9
$JOINSTYLE
280
     0
  9
$LWDISPLAY
290
     1
  9
$INSUNITS
 70
     4
  9
$HYPERLINKBASE
  1

  9
$STYLESHEET
  1

  9
$XEDIT
290
     1
  9
$CEPSNTYPE
380
     0
  9
$PSTYLEMODE
290
     1
  9
$FINGERPRINTGUID
  2
{339f38f5-75c6-461a-bd27-144bae6ae77d}
  9
$VERSIONGUID
  2
{FAEB1C32-E019-11D5-929B-00C0DF256EC4}
  9
$EXTNAMES
290
     1
  9
$PSVPSCALE
 40
0.0
  9
$OLESTARTUP
290
     0
  0
ENDSEC
  0
SECTION
  2
CLASSES
  0
CLASS
  1
ACDBDICTIONARYWDFLT
  2
AcDbDictionaryWithDefault
  3
ObjectDBX Classes
 90
        0
280
     0
281
     0
  0
CLASS
  1
VISUALSTYLE
  2
AcDbVisualStyle
  3
ObjectDBX Classes
 90
     4095
280
     0
281
     0
  0
CLASS
  1
MATERIAL
  2
AcDbMaterial
  3
ObjectDBX Classes
 90
     1153
280
     0
281
     0
  0
CLASS
  1
SCALE
  2
AcDbScale
  3
ObjectDBX Classes
 90
     1153
280
     0
281
     0
  0
CLASS
  1
TABLESTYLE
  2
AcDbTableStyle
  3
ObjectDBX Classes
 90
     4095
280
     0
281
     0
  0
CLASS
  1
MLEADERSTYLE
  2
AcDbMLeaderStyle
  3
ACDB_MLEADERSTYLE_CLASS
 90
     4095
280
     0
281
     0
  0
CLASS
  1
SUN
  2
AcDbSun
  3
SCENEOE
 90
     1153
280
     0
281
     0
  0
CLASS
  1
ACDBPLACEHOLDER
  2
AcDbPlaceHolder
  3
ObjectDBX Classes
 90
        0
280
     0
281
     0
  0
CLASS
  1
LAYOUT
  2
AcDbLayout
  3
ObjectDBX Classes
 90
        0
280
     0
281
     0
  0
ENDSEC
  0
SECTION
  2
TABLES
  0
TABLE
  2
VPORT
  5
8
330
0
100
AcDbSymbolTable
 70
     1
  0
VPORT
  5
29
330
8
100
AcDbSymbolTableRecord
100
AcDbViewportTableRecord
  2
*Active
 70
     0
 10
0.0
 20
0.0
 11
1.0
 21
1.0
 12
148.5
 22
105.0
 13
0.0
 23
0.0
 14
10.0
 24
10.0
 15
10.0
 25
10.0
 16
0.0
 26
0.0
 36
1.0
 17
0.0
 27
0.0
 37
0.0
 40
210.0
 41
1.4142857143
 42
50.0
 43
0.0
 44
0.0
 50
0.0
 51
0.0
 71
     0
 72
  2000
 73
     1
 74
     3
 75
     0
 76
     0
 77
     0
 78
     0
281
     0
 65
     1
110
0.0
120
0.0
130
0.0
111
1.0
121
0.0
131
0.0
112
0.0
122
1.0
132
0.0
 79
     0
146
0.0
  0
ENDTAB
  0
TABLE
  2
LTYPE
  5
5
330
0
100
AcDbSymbolTable
 70
     6
  0
LTYPE
  5
14
330
5
100
AcDbSymbolTableRecord
100
AcDbLinetypeTableRecord
  2
ByBlock
 70
     0
  3

 72
    65
 73
     0
 40
0.0
  0
LTYPE
  5
15
330
5
100
AcDbSymbolTableRecord
100
AcDbLinetypeTableRecord
  2
ByLayer
 70
     0
  3

 72
    65
 73
     0
 40
0.0
  0
LTYPE
  5
16
330
5
100
AcDbSymbolTableRecord
100
AcDbLinetypeTableRecord
  2
Continuous
 70
     0
  3
Solid line
 72
    65
 73
     0
 40
0.0
  0
LTYPE
  5
5E
330
5
100
AcDbSymbolTableRecord
100
AcDbLinetypeTableRecord
  2
HIDDEN
 70
     0
  3
Hidden __ __ __ __ __ __ __ __ __ __ __ __ __ __
 72
    65
 73
     2
 40
1.905
 49
1.27
 74
     0
 49
-0.635
 74
     0
  0
LTYPE
  5
5F
330
5
100
AcDbSymbolTableRecord
100
AcDbLinetypeTableRecord
  2
PHANTOM
 70
     0
  3
Phantom ______  __  __  ______  __  __  ______
 72
    65
 73
     6
 40
12.7
 49
6.35
 74
     0
 49
-1.27
 74
     0
 49
1.27
 74
     0
 49
-1.27
 74
     0
 49
1.27
 74
     0
 49
-1.27
 74
     0
  0
LTYPE
  5
60
330
5
100
AcDbSymbolTableRecord
100
AcDbLinetypeTableRecord
  2
CENTER
 70
     0
  3
Center ____ _ ____ _ ____ _ ____ _ ____ _ ____
 72
    65
 73
     4
 40
10.16
 49
6.35
 74
     0
 49
-1.27
 74
     0
 49
1.27
 74
     0
 49
-1.27
 74
     0
  0
LTYPE
  5
61
330
5
100
AcDbSymbolTableRecord
100
AcDbLinetypeTableRecord
  2
CENTERX2
 70
     0
  3
Center (2x) ________  __  ________  __  _____
 72
    65
 73
     4
 40
20.32
 49
12.7
 74
     0
 49
-2.54
 74
     0
 49
2.54
 74
     0
 49
-2.54
 74
     0
  0
LTYPE
  5
62
330
5
100
AcDbSymbolTableRecord
100
AcDbLinetypeTableRecord
  2
DOT2
 70
     0
  3
Dot (.5x) ........................................
 72
    65
 73
     2
 40
0.635
 49
0.0
 74
     0
 49
-0.635
 74
     0
  0
ENDTAB
  0
TABLE
  2
LAYER
  5
2
330
0
100
AcDbSymbolTable
 70
    14
  0
LAYER
  5
10
330
2
100
AcDbSymbolTableRecord
100
AcDbLayerTableRecord
  2
0
 70
     0
 62
     7
  6
Continuous
370
    -3
390
F
  0
LAYER
  5
63
330
2
100
AcDbSymbolTableRecord
100
AcDbLayerTableRecord
  2
SLD-0
 70
     0
 62
     7
  6
Continuous
370
    -3
390
F
  0
LAYER
  5
64
330
2
100
AcDbSymbolTableRecord
100
AcDbLayerTableRecord
  2
5
 70
     0
 62
     7
  6
Continuous
370
    -3
390
F
  0
LAYER
  5
65
330
2
100
AcDbSymbolTableRecord
100
AcDbLayerTableRecord
  2
9
 70
     0
 62
     7
  6
Continuous
370
    -3
390
F
  0
LAYER
  5
66
330
2
100
AcDbSymbolTableRecord
100
AcDbLayerTableRecord
  2
10
 70
     0
 62
     7
  6
Continuous
370
    -3
390
F
  0
LAYER
  5
67
330
2
100
AcDbSymbolTableRecord
100
AcDbLayerTableRecord
  2
轮廓实线层
 70
     0
 62
     7
  6
Continuous
370
    50
390
F
  0
LAYER
  5
68
330
2
100
AcDbSymbolTableRecord
100
AcDbLayerTableRecord
  2
细线层
 70
     0
 62
     4
  6
Continuous
370
    25
390
F
  0
LAYER
  5
69
330
2
100
AcDbSymbolTableRecord
100
AcDbLayerTableRecord
  2
中心线层
 70
     0
 62
     1
  6
CENTERX2
370
    25
390
F
  0
LAYER
  5
6A
330
2
100
AcDbSymbolTableRecord
100
AcDbLayerTableRecord
  2
虚线层
 70
     0
 62
     6
  6
HIDDEN
370
    25
390
F
  0
LAYER
  5
6B
330
2
100
AcDbSymbolTableRecord
100
AcDbLayerTableRecord
  2
剖面线层
 70
     0
 62
     2
  6
Continuous
370
    25
390
F
  0
LAYER
  5
6C
330
2
100
AcDbSymbolTableRecord
100
AcDbLayerTableRecord
  2
文字层
 70
     0
 62
     3
  6
Continuous
370
    25
390
F
  0
LAYER
  5
6D
330
2
100
AcDbSymbolTableRecord
100
AcDbLayerTableRecord
  2
标注层
 70
     0
 62
     4
  6
Continuous
370
    25
390
F
  0
LAYER
  5
6E
330
2
100
AcDbSymbolTableRecord
100
AcDbLayerTableRecord
  2
符号标注层
 70
     0
 62
    31
  6
Continuous
370
    25
390
F
  0
LAYER
  5
6F
330
2
100
AcDbSymbolTableRecord
100
AcDbLayerTableRecord
  2
双点划线层
 70
     0
 62
     6
  6
PHANTOM
370
    25
390
F
  0
ENDTAB
  0
TABLE
  2
STYLE
  5
3
330
0
100
AcDbSymbolTable
 70
     1
  0
STYLE
  5
11
330
3
100
AcDbSymbolTableRecord
100
AcDbTextStyleTableRecord
  2
Standard
 70
     0
 40
0.0
 41
1.0
 50
0.0
 71
     0
 42
3.5
  3
txt
  4

  0
ENDTAB
  0
TABLE
  2
VIEW
  5
6
330
0
100
AcDbSymbolTable
 70
     0
  0
ENDTAB
  0
TABLE
  2
UCS
  5
7
330
0
100
AcDbSymbolTable
 70
     0
  0
ENDTAB
  0
TABLE
  2
APPID
  5
9
330
0
100
AcDbSymbolTable
 70
     1
  0
APPID
  5
12
330
9
100
AcDbSymbolTableRecord
100
AcDbRegAppTableRecord
  2
ACAD
 70
     0
  0
ENDTAB
  0
TABLE
  2
DIMSTYLE
  5
A
330
0
100
AcDbSymbolTable
 70
     1
100
AcDbDimStyleTable
  0
DIMSTYLE
105
27
330
A
100
AcDbSymbolTableRecord
100
AcDbDimStyleTableRecord
  2
ISO-25
 70
     0
 41
2.5
 42
0.625
 43
3.75
 44
1.25
 73
     0
 74
     0
 77
     1
 78
     8
140
2.5
141
2.5
143
0.0393700787
147
0.625
171
     3
172
     1
178
     0
271
     2
272
     2
274
     3
278
    44
283
     0
284
     8
340
11
  0
ENDTAB
  0
TABLE
  2
BLOCK_RECORD
  5
1
330
0
100
AcDbSymbolTable
 70
     1
  0
BLOCK_RECORD
  5
1F
330
1
100
AcDbSymbolTableRecord
100
AcDbBlockTableRecord
  2
*Model_Space
340
22
  0
BLOCK_RECORD
  5
1B
330
1
100
AcDbSymbolTableRecord
100
AcDbBlockTableRecord
  2
*Paper_Space
340
1E
  0
BLOCK_RECORD
  5
23
330
1
100
AcDbSymbolTableRecord
100
AcDbBlockTableRecord
  2
*Paper_Space0
340
26
  0
ENDTAB
  0
ENDSEC
  0
SECTION
  2
BLOCKS
  0
BLOCK
  5
20
330
1F
100
AcDbEntity
  8
0
100
AcDbBlockBegin
  2
*Model_Space
 70
     0
 10
0.0
 20
0.0
 30
0.0
  3
*Model_Space
  1

  0
ENDBLK
  5
21
330
1F
100
AcDbEntity
  8
0
100
AcDbBlockEnd
  0
BLOCK
  5
1C
330
1B
100
AcDbEntity
 67
     1
  8
0
100
AcDbBlockBegin
  2
*Paper_Space
 70
     0
 10
0.0
 20
0.0
 30
0.0
  3
*Paper_Space
  1

  0
ENDBLK
  5
1D
330
1B
100
AcDbEntity
 67
     1
  8
0
100
AcDbBlockEnd
  0
BLOCK
  5
24
330
23
100
AcDbEntity
  8
0
100
AcDbBlockBegin
  2
*Paper_Space0
 70
     0
 10
0.0
 20
0.0
 30
0.0
  3
*Paper_Space0
  1

  0
ENDBLK
  5
25
330
23
100
AcDbEntity
  8
0
100
AcDbBlockEnd
  0
ENDSEC
  0
SECTION
  2
ENTITIES
  0
LINE
  5
70
330
1F
100
AcDbEntity
  8
0
  6
Continuous
 62
     7
370
    25
100
AcDbLine
 10
86.8531486684
 20
60.8906273836
 30
0.0
 11
124.2275106266
 21
60.8906273836
 31
0.0
  0
LINE
  5
71
330
1F
100
AcDbEntity
  8
0
  6
Continuous
 62
     7
370
    25
100
AcDbLine
 10
86.8531486684
 20
53.0340336438
 30
0.0
 11
124.2275106266
 21
53.0340336438
 31
0.0
  0
SPLINE
  5
72
330
1F
100
AcDbEntity
  8
0
  6
Continuous
 62
     7
370
    25
100
AcDbSpline
210
0.0
220
0.0
230
1.0
 70
     8
 71
     3
 72
    24
 73
    20
 74
     0
 42
0.00000001
 43
0.00000001
 40
0.0
 40
0.0
 40
0.0
 40
0.0
 40
0.0338424463943124
 40
0.0689197351616516
 40
0.1052842832670227
 40
0.1429731264237449
 40
0.1820163026223247
 40
0.2224442928748711
 40
0.2642946168290619
 40
0.3076176734131394
 40
0.3524818779617502
 40
0.3989745499635901
 40
0.4471375503827169
 40
0.4969446869305386
 40
0.6052923667492519
 40
0.7482866339248272
 40
0.8740076946704513
 40
0.9572842001112908
 40
1.0
 40
1.0
 40
1.0
 40
1.0
 10
86.8531486683634
 20
60.89062738358062
 30
0.0
 10
86.82167883791648
 20
60.88991574201079
 30
0.0
 10
86.75759090660347
 20
60.88846649251058
 30
0.0
 10
86.66071763191083
 20
60.87721214733408
 30
0.0
 10
86.56222166364138
 20
60.85940144935797
 30
0.0
 10
86.46290181476216
 20
60.83431270069771
 30
0.0
 10
86.3635692249844
 20
60.80214840436258
 30
0.0
 10
86.26505319861278
 20
60.76284728829557
 30
0.0
 10
86.16819842151895
 20
60.71642074222663
 30
0.0
 10
86.07387153580771
 20
60.6628597057252
 30
0.0
 10
85.98293966124653
 20
60.60215859232554
 30
0.0
 10
85.89640752706428
 20
60.53436331273947
 30
0.0
 10
85.81497688447983
 20
60.45952614349134
 30
0.0
 10
85.710392606143
 20
60.34623808837492
 30
0.0
 10
85.58338949195259
 20
60.16815863030531
 30
0.0
 10
85.4708615748975
 20
59.9326101057774
 30
0.0
 10
85.41249651128376
 20
59.70549670654536
 30
0.0
 10
85.39311903599554
 20
59.54038619273071
 30
0.0
 10
85.39167689226889
 20
59.45695333001933
 30
0.0
 10
85.39118795508598
 20
59.42866667030309
 30
0.0
  0
LINE
  5
73
330
1F
100
AcDbEntity
  8
0
  6
Continuous
 62
     7
370
    25
100
AcDbLine
 10
85.3911879551
 20
59.4286666703
 30
0.0
 11
85.3911879551
 21
54.495994357
 31
0.0
  0
SPLINE
  5
74
330
1F
100
AcDbEntity
  8
0
  6
Continuous
 62
     7
370
    25
100
AcDbSpline
210
0.0
220
0.0
230
1.0
 70
     8
 71
     3
 72
    21
 73
    17
 74
     0
 42
0.00000001
 43
0.00000001
 40
0.0
 40
0.0
 40
0.0
 40
0.0
 40
0.0333739290897949
 40
0.0673485785606752
 40
0.1019459589616829
 40
0.1372048881004164
 40
0.1731826645952383
 40
0.2099554166926928
 40
0.2476163129434044
 40
0.3626377797077771
 40
0.4972985116852545
 40
0.6100773923334749
 40
0.7484798351586208
 40
0.8760167680783166
 40
0.9591855453530461
 40
1.0
 40
1.0
 40
1.0
 40
1.0
 10
86.8531486683634
 20
53.03403364376048
 30
0.0
 10
86.82210702793101
 20
53.03461559916033
 30
0.0
 10
86.75946500715823
 20
53.03578998497684
 30
0.0
 10
86.66543726887753
 20
53.04520081439368
 30
0.0
 10
86.57122257198206
 20
53.06029594722457
 30
0.0
 10
86.47749274456899
 20
53.08171924136442
 30
0.0
 10
86.38488159177109
 20
53.10937616296033
 30
0.0
 10
86.29397474277732
 20
53.14333450421818
 30
0.0
 10
86.14552493187199
 20
53.21090891715846
 30
0.0
 10
85.94529408563032
 20
53.33834704230399
 30
0.0
 10
85.74273584809359
 20
53.53088371876258
 30
0.0
 10
85.58235019649645
 20
53.75866314910105
 30
0.0
 10
85.47308160840865
 20
53.99674203294182
 30
0.0
 10
85.41361066965128
 20
54.22392131777032
 30
0.0
 10
85.39320485269181
 20
54.38868626050922
 30
0.0
 10
85.39168746801954
 20
54.46941800435845
 30
0.0
 10
85.39118795508598
 20
54.49599435703801
 30
0.0
  0
LINE
  5
75
330
1F
100
AcDbEntity
  8
0
  6
Continuous
 62
     7
370
    25
100
AcDbLine
 10
128.3625599633
 20
53.0340336438
 30
0.0
 11
128.3625599633
 21
60.8906273836
 31
0.0
  0
LINE
  5
76
330
1F
100
AcDbEntity
  8
0
  6
Continuous
 62
     7
370
    25
100
AcDbLine
 10
124.2275106266
 20
60.8906273836
 30
0.0
 11
128.3625599633
 21
60.8906273836
 31
0.0
  0
LINE
  5
77
330
1F
100
AcDbEntity
  8
0
  6
Continuous
 62
     7
370
    25
100
AcDbLine
 10
124.2275106266
 20
53.0340336438
 30
0.0
 11
128.3625599633
 21
53.0340336438
 31
0.0
  0
LINE
  5
78
330
1F
100
AcDbEntity
  8
0
  6
Continuous
 62
     7
370
    25
100
AcDbLine
 10
55.9991981877
 20
60.6863443647
 30
0.0
 11
55.9991981877
 21
53.2383166627
 31
0.0
  0
SPLINE
  5
79
330
1F
100
AcDbEntity
  8
0
  6
Continuous
 62
     7
370
    25
100
AcDbSpline
210
0.0
220
0.0
230
1.0
 70
     8
 71
     3
 72
    10
 73
     6
 74
     0
 42
0.00000001
 43
0.00000001
 40
0.0
 40
0.0
 40
0.0
 40
0.0
 40
0.5
 40
0.5
 40
1.0
 40
1.0
 40
1.0
 40
1.0
 10
55.99919818767489
 20
60.68634436465641
 30
0.0
 10
55.99919818767489
 20
60.73680921814676
 30
0.0
 10
56.02090622381134
 20
60.78727478149801
 30
0.0
 10
56.10744172916092
 20
60.86394754271364
 30
0.0
 10
56.17305426185855
 20
60.89062738358062
 30
0.0
 10
56.26159437027563
 20
60.89062738358062
 30
0.0
  0
SPLINE
  5
7A
330
1F
100
AcDbEntity
  8
0
  6
Continuous
 62
     7
370
    25
100
AcDbSpline
210
0.0
220
0.0
230
1.0
 70
     8
 71
     3
 72
    10
 73
     6
 74
     0
 42
0.00000001
 43
0.00000001
 40
0.0
 40
0.0
 40
0.0
 40
0.0
 40
0.5
 40
0.5
 40
1.0
 40
1.0
 40
1.0
 40
1.0
 10
56.26159437027563
 20
53.03403364376048
 30
0.0
 10
56.17334199588958
 20
53.03403364376049
 30
0.0
 10
56.10840074259289
 20
53.06016703376581
 30
0.0
 10
56.02118646057895
 20
53.13683897545461
 30
0.0
 10
55.99919818767489
 20
53.18795351032819
 30
0.0
 10
55.99919818767489
 20
53.2383166626847
 30
0.0
  0
LINE
  5
7B
330
1F
100
AcDbEntity
  8
0
  6
Continuous
 62
     7
370
    25
100
AcDbLine
 10
60.1342475244
 20
60.8906273836
 30
0.0
 11
56.2615943703
 21
60.8906273836
 31
0.0
  0
LINE
  5
7C
330
1F
100
AcDbEntity
  8
0
  6
Continuous
 62
     7
370
    25
100
AcDbLine
 10
56.2615943703
 20
53.0340336438
 30
0.0
 11
60.1342475244
 21
53.0340336438
 31
0.0
  0
LINE
  5
7D
330
1F
100
AcDbEntity
  8
0
  6
Continuous
 62
     7
370
    25
100
AcDbLine
 10
60.1342475244
 20
60.8906273836
 30
0.0
 11
86.8531486684
 21
60.8906273836
 31
0.0
  0
LINE
  5
7E
330
1F
100
AcDbEntity
  8
0
  6
Continuous
 62
     7
370
    25
100
AcDbLine
 10
86.8531486684
 20
53.0340336438
 30
0.0
 11
60.1342475244
 21
53.0340336438
 31
0.0
  0
SPLINE
  5
7F
330
1F
100
AcDbEntity
  8
0
  6
Continuous
 62
     7
370
    25
100
AcDbSpline
210
0.0
220
0.0
230
1.0
 70
    24
 71
     3
 72
    18
 73
    14
 74
     0
 42
0.00000001
 43
0.00000001
 40
0.0
 40
0.0
 40
0.0
 40
0.0
 40
0.1250000000000001
 40
0.1250000000000001
 40
0.2500000000000001
 40
0.2500000000000001
 40
0.3750000000000002
 40
0.3750000000000002
 40
0.5000000000000002
 40
0.5000000000000002
 40
0.7500000000000001
 40
0.7500000000000001
 40
1.0
 40
1.0
 40
1.0
 40
1.0
 10
41.08601470958595
 20
55.10155831213421
 30
0.0
 10
41.08601470958595
 20
54.96504180660082
 30
0.0
 10
41.08601470958596
 20
54.83080554648377
 30
0.0
 10
41.08601470958595
 20
54.56670693188767
 30
0.0
 10
41.08601470958595
 20
54.43547891193161
 30
0.0
 10
41.08601470958595
 20
54.18520676668281
 30
0.0
 10
41.08601470958595
 20
54.06650239806315
 30
0.0
 10
41.08601470958595
 20
53.84183964767809
 30
0.0
 10
41.08601470958595
 20
53.73545525978633
 30
0.0
 10
41.08601470958595
 20
53.44939380634142
 30
0.0
 10
41.08601470958595
 20
53.29532573453111
 30
0.0
 10
41.08601470958595
 20
53.08889331950198
 30
0.0
 10
41.08601470958596
 20
53.03403364376048
 30
0.0
 10
41.08601470958595
 20
53.03403364376048
 30
0.0
  0
LINE
  5
80
330
1F
100
AcDbEntity
  8
0
  6
Continuous
 62
     7
370
    25
100
AcDbLine
 10
41.0860147096
 20
53.0340336438
 30
0.0
 11
56.2615943703
 21
53.0340336438
 31
0.0
  0
SPLINE
  5
81
330
1F
100
AcDbEntity
  8
0
  6
Continuous
 62
     7
370
    25
100
AcDbSpline
210
0.0
220
0.0
230
1.0
 70
    24
 71
     3
 72
    18
 73
    14
 74
     0
 42
0.00000001
 43
0.00000001
 40
0.0
 40
0.0
 40
0.0
 40
0.0
 40
0.125
 40
0.125
 40
0.25
 40
0.25
 40
0.375
 40
0.375
 40
0.5
 40
0.5
 40
0.75
 40
0.75
 40
1.0
 40
1.0
 40
1.0
 40
1.0
 10
41.08601470958595
 20
60.89062738358062
 30
0.0
 10
41.08601470958595
 20
60.89062738358063
 30
0.0
 10
41.08601470958595
 20
60.87724039067961
 30
0.0
 10
41.08601470958595
 20
60.82478767030918
 30
0.0
 10
41.08601470958595
 20
60.78508723145848
 30
0.0
 10
41.08601470958595
 20
60.68142768088713
 30
0.0
 10
41.08601470958595
 20
60.617993472567
 30
0.0
 10
41.08601470958595
 20
60.46812771435692
 30
0.0
 10
41.08601470958595
 20
60.38089087966662
 30
0.0
 10
41.08601470958594
 20
60.09503259060718
 30
0.0
 10
41.08601470958595
 20
59.86459643010632
 30
0.0
 10
41.08601470958595
 20
59.3674442252369
 30
0.0
 10
41.08601470958595
 20
59.09613599032654
 30
0.0
 10
41.08601470958595
 20
58.8231027152069
 30
0.0
  0
LINE
  5
82
330
1F
100
AcDbEntity
  8
0
  6
Continuous
 62
     7
370
    25
100
AcDbLine
 10
56.2615943703
 20
60.8906273836
 30
0.0
 11
41.0860147096
 21
60.8906273836
 31
0.0
  0
LINE
  5
83
330
1F
100
AcDbEntity
  8
0
  6
Continuous
 62
     7
370
    25
100
AcDbLine
 10
41.0860147096
 20
55.1015583121
 30
0.0
 11
41.0860147096
 21
58.8231027152
 31
0.0
  0
LWPOLYLINE
  5
84
330
1F
100
AcDbEntity
  8
0
  6
HIDDEN
 62
     7
370
    18
100
AcDbPolyline
 90
        2
 70
   128
 43
0.0
 10
86.8531486684
 20
53.0340336438
 10
86.8531486684
 20
53.0340336438
  0
LWPOLYLINE
  5
85
330
1F
100
AcDbEntity
  8
0
  6
HIDDEN
 62
     7
370
    18
100
AcDbPolyline
 90
        2
 70
   128
 43
0.0
 10
86.8531486684
 20
60.8906273836
 10
86.8531486684
 20
60.8906273836
  0
LWPOLYLINE
  5
86
330
1F
100
AcDbEntity
  8
0
  6
HIDDEN
 62
     7
370
    18
100
AcDbPolyline
 90
        2
 70
   128
 43
0.0
 10
85.3911879551
 20
59.4286666703
 10
85.3911879551
 20
59.4286666703
  0
LWPOLYLINE
  5
87
330
1F
100
AcDbEntity
  8
0
  6
HIDDEN
 62
     7
370
    18
100
AcDbPolyline
 90
        2
 70
   128
 43
0.0
 10
85.3911879551
 20
54.495994357
 10
85.3911879551
 20
54.495994357
  0
LINE
  5
88
330
1F
100
AcDbEntity
  8
0
  6
HIDDEN
 62
     7
370
    18
100
AcDbLine
 10
122.1599885615
 20
53.0340336438
 30
0.0
 11
122.1599885615
 21
60.8906273836
 31
0.0
  0
SPLINE
  5
89
330
1F
100
AcDbEntity
  8
0
  6
HIDDEN
 62
     7
370
    18
100
AcDbSpline
210
0.0
220
0.0
230
1.0
 70
     8
 71
     3
 72
    12
 73
     8
 74
     0
 42
0.00000001
 43
0.00000001
 40
-0.225859288312784
 40
-0.225859288312784
 40
-0.225859288312784
 40
-0.225859288312784
 40
-0.216207045347428
 40
-0.216207045347428
 40
-0.183285816766527
 40
-0.183285816766527
 40
-0.177850234359985
 40
-0.177850234359985
 40
-0.177850234359985
 40
-0.177850234359985
 10
56.21850836549885
 20
54.1748644829585
 30
0.0
 10
56.19645105346548
 20
54.23042074835977
 30
0.0
 10
56.17610211874332
 20
54.28780259876302
 30
0.0
 10
56.09479864996285
 20
54.54867481486115
 30
0.0
 10
56.05594945949554
 20
54.76550584998967
 30
0.0
 10
56.04464925784354
 20
55.02749032980357
 30
0.0
 10
56.04385409548922
 20
55.06456714188937
 30
0.0
 10
56.04385409548922
 20
55.10155831213421
 30
0.0
  0
SPLINE
  5
8A
330
1F
100
AcDbEntity
  8
0
  6
HIDDEN
 62
     7
370
    18
100
AcDbSpline
210
0.0
220
0.0
230
1.0
 70
     8
 71
     3
 72
     8
 73
     4
 74
     0
 42
0.00000001
 43
0.00000001
 40
0.0
 40
0.0
 40
0.0
 40
0.0
 40
1.0
 40
1.0
 40
1.0
 40
1.0
 10
56.21850836593999
 20
54.17486448303723
 30
0.0
 10
56.07509155402577
 20
54.46089749802275
 30
0.0
 10
55.99919818767489
 20
54.78020193430533
 30
0.0
 10
55.99919818767489
 20
55.10155831213421
 30
0.0
  0
SPLINE
  5
8B
330
1F
100
AcDbEntity
  8
0
  6
HIDDEN
 62
     7
370
    18
100
AcDbSpline
210
0.0
220
0.0
230
1.0
 70
     8
 71
     3
 72
     8
 73
     4
 74
     0
 42
0.00000001
 43
0.00000001
 40
0.0
 40
0.0
 40
0.0
 40
0.0
 40
1.0
 40
1.0
 40
1.0
 40
1.0
 10
56.21850836372193
 20
59.74979653988014
 30
0.0
 10
56.07509155322025
 20
59.46376352600318
 30
0.0
 10
55.99919818767489
 20
59.14445909137912
 30
0.0
 10
55.99919818767489
 20
58.8231027152069
 30
0.0
  0
SPLINE
  5
8C
330
1F
100
AcDbEntity
  8
0
  6
HIDDEN
 62
     7
370
    18
100
AcDbSpline
210
0.0
220
0.0
230
1.0
 70
     8
 71
     3
 72
    10
 73
     6
 74
     0
 42
0.00000001
 43
0.00000001
 40
0.129801281597944
 40
0.129801281597944
 40
0.129801281597944
 40
0.129801281597944
 40
0.152268707148176
 40
0.152268707148176
 40
0.177850234326939
 40
0.177850234326939
 40
0.177850234326939
 40
0.177850234326939
 10
56.218508363712
 20
59.74979653988202
 30
0.0
 10
56.16720979447782
 20
59.62058963834492
 30
0.0
 10
56.12539688465093
 20
59.48213404920706
 30
0.0
 10
56.06148117118898
 20
59.16938951721148
 30
0.0
 10
56.04385409548922
 20
58.99719457076149
 30
0.0
 10
56.04385409548922
 20
58.8231027152069
 30
0.0
  0
SPLINE
  5
8D
330
1F
100
AcDbEntity
  8
0
  6
HIDDEN
 62
     7
370
    18
100
AcDbSpline
210
0.0
220
0.0
230
1.0
 70
     8
 71
     3
 72
    18
 73
    14
 74
     0
 42
0.00000001
 43
0.00000001
 40
0.0
 40
0.0
 40
0.0
 40
0.0
 40
0.1250000000000009
 40
0.1250000000000009
 40
0.2500000000000018
 40
0.2500000000000018
 40
0.3750000000000028
 40
0.3750000000000028
 40
0.5000000000000037
 40
0.5000000000000037
 40
0.7500000000000018
 40
0.7500000000000018
 40
1.0
 40
1.0
 40
1.0
 40
1.0
 10
62.54934913381288
 20
60.89062738358062
 30
0.0
 10
62.64640080604154
 20
60.89062738358062
 30
0.0
 10
62.74187895887652
 20
60.88122826376518
 30
0.0
 10
62.92989678292037
 20
60.84487756117137
 30
0.0
 10
63.02341272958225
 20
60.81743910516644
 30
0.0
 10
63.20181438499979
 20
60.74482542687123
 30
0.0
 10
63.28623741785236
 20
60.69986250093299
 30
0.0
 10
63.44642591179412
 20
60.59425144388639
 30
0.0
 10
63.5226291028838
 20
60.53304499733098
 30
0.0
 10
63.72827991019156
 20
60.33229730206836
 30
0.0
 10
63.83783796897194
 20
60.16860869725397
 30
0.0
 10
63.98558548019894
 20
59.81498323019198
 30
0.0
 10
64.0279597995921
 20
59.62289129047598
 30
0.0
 10
64.02795913567181
 20
59.428666670334
 30
0.0
  0
LINE
  5
8E
330
1F
100
AcDbEntity
  8
0
  6
HIDDEN
 62
     7
370
    18
100
AcDbLine
 10
64.027968177
 20
55.1015583121
 30
0.0
 11
64.027968177
 21
59.4286666703
 31
0.0
  0
LINE
  5
8F
330
1F
100
AcDbEntity
  8
0
  6
HIDDEN
 62
     7
370
    18
100
AcDbLine
 10
109.5433964112
 20
58.823414935
 30
0.0
 11
109.5433964112
 21
54.495994357
 31
0.0
  0
SPLINE
  5
90
330
1F
100
AcDbEntity
  8
0
  6
HIDDEN
 62
     7
370
    18
100
AcDbSpline
210
0.0
220
0.0
230
1.0
 70
     8
 71
     3
 72
    14
 73
    10
 74
     0
 42
0.00000001
 43
0.00000001
 40
-0.157559058981837
 40
-0.157559058981837
 40
-0.157559058981837
 40
-0.157559058981837
 40
-0.0900337479896209
 40
-0.0900337479896209
 40
-0.0900337479896209
 40
-0.0450168739948105
 40
-0.0450168739948105
 40
-0.0450168739948105
 40
0.0
 40
0.0
 40
0.0
 40
0.0
 10
109.5433964112326
 20
58.8234149350062
 30
0.0
 10
109.5433964112326
 20
59.24105491801769
 30
0.0
 10
109.6876420126026
 20
59.72251455424786
 30
0.0
 10
109.9874053445564
 20
60.1035710940886
 30
0.0
 10
110.187247565859
 20
60.35760878731575
 30
0.0
 10
110.4562087785322
 20
60.56702288214759
 30
0.0
 10
110.7424424381838
 20
60.70027753121381
 30
0.0
 10
111.0286760978357
 20
60.83353218028004
 30
0.0
 10
111.332182204466
 20
60.89062738358062
 30
0.0
 10
111.6106088598069
 20
60.89062738358062
 30
0.0
  0
SPLINE
  5
91
330
1F
100
AcDbEntity
  8
0
  6
HIDDEN
 62
     7
370
    18
100
AcDbSpline
210
0.0
220
0.0
230
1.0
 70
     8
 71
     3
 72
    14
 73
    10
 74
     0
 42
0.00000001
 43
0.00000001
 40
-0.111427905927749
 40
-0.111427905927749
 40
-0.111427905927749
 40
-0.111427905927749
 40
-0.0795913613769634
 40
-0.0795913613769634
 40
-0.0795913613769634
 40
-0.047754816826178
 40
-0.047754816826178
 40
-0.047754816826178
 40
0.0
 40
0.0
 40
0.0
 40
0.0
 10
117.3999901510527
 20
54.49599435703801
 30
0.0
 10
117.3999901510527
 20
54.29908724576432
 30
0.0
 10
117.3595041619864
 20
54.08416152791086
 30
0.0
 10
117.2652448571935
 20
53.88167133821779
 30
0.0
 10
117.1709855524004
 20
53.67918114852471
 30
0.0
 10
117.0229529318807
 20
53.48912648699203
 30
0.0
 10
116.8433311361426
 20
53.34789195392322
 30
0.0
 10
116.5738984425349
 20
53.13604015432
 30
0.0
 10
116.2333901046858
 20
53.03403364376048
 30
0.0
 10
115.9380294377751
 20
53.03403364376048
 30
0.0
  0
ARC
  5
92
330
1F
100
AcDbEntity
  8
0
  6
HIDDEN
 62
     7
370
    18
100
AcDbCircle
 10
115.3324654827
 20
58.8231027152
 30
0.0
 40
2.067524668373721
100
AcDbArc
 50
0.0
 51
90.0
  0
LINE
  5
93
330
1F
100
AcDbEntity
  8
0
  6
HIDDEN
 62
     7
370
    18
100
AcDbLine
 10
117.3999901511
 20
54.495994357
 30
0.0
 11
117.3999901511
 21
58.8231027152
 31
0.0
  0
SPLINE
  5
94
330
1F
100
AcDbEntity
  8
0
  6
HIDDEN
 62
     7
370
    18
100
AcDbSpline
210
0.0
220
0.0
230
1.0
 70
     8
 71
     3
 72
    14
 73
    10
 74
     0
 42
0.00000001
 43
0.00000001
 40
-0.111427905927749
 40
-0.111427905927749
 40
-0.111427905927749
 40
-0.111427905927749
 40
-0.0636730891015706
 40
-0.0636730891015706
 40
-0.0636730891015706
 40
-0.0318365445507853
 40
-0.0318365445507853
 40
-0.0318365445507853
 40
0.0
 40
0.0
 40
0.0
 40
0.0
 10
111.00535712451
 20
53.03403364376048
 30
0.0
 10
110.7099964575996
 20
53.03403364376048
 30
0.0
 10
110.3695021779349
 20
53.1360177825781
 30
0.0
 10
110.1000716733229
 20
53.34786785550086
 30
0.0
 10
109.920451336915
 20
53.48910123744937
 30
0.0
 10
109.7724149005304
 20
53.67916392344461
 30
0.0
 10
109.6781511691099
 20
53.88166042552335
 30
0.0
 10
109.5838874376893
 20
54.08415692760209
 30
0.0
 10
109.5433964112326
 20
54.29908724576432
 30
0.0
 10
109.5433964112326
 20
54.49599435703801
 30
0.0
  0
LINE
  5
95
330
1F
100
AcDbEntity
  8
0
  6
HIDDEN
 62
     7
370
    18
100
AcDbLine
 10
56.0438540955
 20
58.8231027152
 30
0.0
 11
56.0438540955
 21
55.1015583121
 31
0.0
  0
SPLINE
  5
96
330
1F
100
AcDbEntity
  8
0
  6
HIDDEN
 62
     7
370
    18
100
AcDbSpline
210
0.0
220
0.0
230
1.0
 70
     8
 71
     3
 72
    18
 73
    14
 74
     0
 42
0.00000001
 43
0.00000001
 40
0.0
 40
0.0
 40
0.0
 40
0.0
 40
0.1249999999999994
 40
0.1249999999999994
 40
0.2499999999999989
 40
0.2499999999999989
 40
0.3749999999999983
 40
0.3749999999999983
 40
0.4999999999999978
 40
0.4999999999999978
 40
0.7499999999999989
 40
0.7499999999999989
 40
1.0
 40
1.0
 40
1.0
 40
1.0
 10
64.02796817701925
 20
55.10155831213421
 30
0.0
 10
64.02796817701925
 20
54.96422489326901
 30
0.0
 10
64.0142765212413
 20
54.82922799407314
 30
0.0
 10
63.96065778714487
 20
54.56371134452258
 30
0.0
 10
63.92005129770663
 20
54.43178367159299
 30
0.0
 10
63.81432747476662
 20
54.18078839649089
 30
0.0
 10
63.74967030622267
 20
54.06182655825014
 30
0.0
 10
63.59700268162871
 20
53.83684303215435
 30
0.0
 10
63.50837889987721
 20
53.7306686407221
 30
0.0
 10
63.21844463495552
 20
53.44552064172325
 30
0.0
 10
62.98528317338986
 20
53.2925422167676
 30
0.0
 10
62.4837724473214
 20
53.08807732071793
 30
0.0
 10
62.21077997379843
 20
53.0340336437605
 30
0.0
 10
61.93620267317969
 20
53.03403364376048
 30
0.0
  0
ARC
  5
97
330
1F
100
AcDbEntity
  8
0
  6
HIDDEN
 62
     7
370
    18
100
AcDbCircle
 10
58.4855457783
 20
55.1015583121
 30
0.0
 40
2.067524668373729
100
AcDbArc
 50
180.0
 51
270.0
  0
ARC
  5
98
330
1F
100
AcDbEntity
  8
0
  6
HIDDEN
 62
     7
370
    18
100
AcDbCircle
 10
58.4855457783
 20
58.8231027152
 30
0.0
 40
2.067524668373721
100
AcDbArc
 50
90.0
 51
180.0
  0
SPLINE
  5
99
330
1F
100
AcDbEntity
  8
0
  6
HIDDEN
 62
     7
370
    18
100
AcDbSpline
210
0.0
220
0.0
230
1.0
 70
     8
 71
     3
 72
    16
 73
    12
 74
     0
 42
0.00000001
 43
0.00000001
 40
0.0
 40
0.0
 40
0.0
 40
0.0
 40
0.0617351081006771
 40
0.0930794378335435
 40
0.1253062727142153
 40
0.1604069792115955
 40
0.2014588356517189
 40
0.3102031022991711
 40
0.5072692220605561
 40
0.7448502915701537
 40
1.0
 40
1.0
 40
1.0
 40
1.0
 10
64.27381959929852
 20
59.42866667030309
 30
0.0
 10
64.26869014440977
 20
59.51962975962139
 30
0.0
 10
64.26095634767522
 20
59.65677689482267
 30
0.0
 10
64.21326851337639
 20
59.84447804994675
 30
0.0
 10
64.16332461191152
 20
59.98752668922288
 30
0.0
 10
64.09769190270711
 20
60.12758803945592
 30
0.0
 10
63.98175545707918
 20
60.31879210996077
 30
0.0
 10
63.77286529766781
 20
60.54330199161519
 30
0.0
 10
63.45214514147557
 20
60.7428537564078
 30
0.0
 10
63.03522532905669
 20
60.86954533926635
 30
0.0
 10
62.71511247676531
 20
60.88343495436509
 30
0.0
 10
62.54934913381288
 20
60.89062738358062
 30
0.0
  0
LINE
  5
9A
330
1F
100
AcDbEntity
  8
0
  6
HIDDEN
 62
     7
370
    18
100
AcDbLine
 10
64.2746148497
 20
55.1015583121
 30
0.0
 11
64.2746148497
 21
59.4286666703
 31
0.0
  0
LINE
  5
9B
330
1F
100
AcDbEntity
  8
0
  6
HIDDEN
 62
     7
370
    18
100
AcDbLine
 10
56.4180211099
 20
55.1015583121
 30
0.0
 11
56.4180211099
 21
58.8231027152
 31
0.0
  0
ARC
  5
9C
330
1F
100
AcDbEntity
  8
0
  6
HIDDEN
 62
     7
370
    18
100
AcDbCircle
 10
62.2070901814
 20
55.1015583121
 30
0.0
 40
2.067524668373729
100
AcDbArc
 50
270.0
 51
0.0
  0
SPLINE
  5
9D
330
1F
100
AcDbEntity
  8
0
  6
Continuous
 62
     7
370
    25
100
AcDbSpline
210
0.0
220
0.0
230
1.0
 70
     8
 71
     3
 72
    10
 73
     6
 74
     0
 42
0.00000001
 43
0.00000001
 40
0.0
 40
0.0
 40
0.0
 40
0.0
 40
0.5
 40
0.5
 40
1.0
 40
1.0
 40
1.0
 40
1.0
 10
55.99919818767489
 20
177.4136680182151
 30
0.0
 10
55.99919818767489
 20
177.1674423514447
 30
0.0
 10
56.02090622381134
 20
176.9246914108348
 30
0.0
 10
56.10744172916092
 20
176.4423236585124
 30
0.0
 10
56.17305426185855
 20
176.2006657932219
 30
0.0
 10
56.26159437027563
 20
175.9641196178459
 30
0.0
  0
SPLINE
  5
9E
330
1F
100
AcDbEntity
  8
0
  6
Continuous
 62
     7
370
    25
100
AcDbSpline
210
0.0
220
0.0
230
1.0
 70
    24
 71
     3
 72
    18
 73
    14
 74
     0
 42
0.00000001
 43
0.00000001
 40
0.0
 40
0.0
 40
0.0
 40
0.0
 40
0.0624999999999999
 40
0.0624999999999999
 40
0.1249999999999998
 40
0.1249999999999998
 40
0.2499999999999998
 40
0.2499999999999998
 40
0.4999999999999999
 40
0.4999999999999999
 40
0.7499999999999999
 40
0.7499999999999999
 40
1.0
 40
1.0
 40
1.0
 40
1.0
 10
55.99919818767489
 20
180.9414711492365
 30
0.0
 10
55.99919818767489
 20
180.9414711492365
 30
0.0
 10
55.99919818767489
 20
180.9157768729369
 30
0.0
 10
55.99919818767487
 20
180.8351237250043
 30
0.0
 10
55.99919818767488
 20
180.7805892018149
 30
0.0
 10
55.99919818767489
 20
180.6018568091692
 30
0.0
 10
55.99919818767488
 20
180.4606088221689
 30
0.0
 10
55.99919818767489
 20
180.0246012822861
 30
0.0
 10
55.99919818767489
 20
179.7138246876333
 30
0.0
 10
55.99919818767489
 20
179.0772498632752
 30
0.0
 10
55.99919818767489
 20
178.7496144095604
 30
0.0
 10
55.99919818767488
 20
178.0880791494766
 30
0.0
 10
55.99919818767488
 20
177.7530562871244
 30
0.0
 10
55.99919818767489
 20
177.4136680182151
 30
0.0
  0
SPLINE
  5
9F
330
1F
100
AcDbEntity
  8
0
  6
Continuous
 62
     7
370
    25
100
AcDbSpline
210
0.0
220
0.0
230
1.0
 70
     8
 71
     3
 72
     8
 73
     4
 74
     0
 42
0.00000001
 43
0.00000001
 40
0.0
 40
0.0
 40
0.0
 40
0.0
 40
1.0
 40
1.0
 40
1.0
 40
1.0
 10
56.21850836372193
 20
180.9159025318053
 30
0.0
 10
56.07509155322025
 20
180.9325637106948
 30
0.0
 10
55.99919818767489
 20
180.9414711492366
 30
0.0
 10
55.99919818767489
 20
180.9414711492366
 30
0.0
  0
SPLINE
  5
A0
330
1F
100
AcDbEntity
  8
0
  6
Continuous
 62
     7
370
    25
100
AcDbSpline
210
0.0
220
0.0
230
1.0
 70
     8
 71
     3
 72
    10
 73
     6
 74
     0
 42
0.00000001
 43
0.00000001
 40
0.129801281597944
 40
0.129801281597944
 40
0.129801281597944
 40
0.129801281597944
 40
0.152268707148176
 40
0.152268707148176
 40
0.177850234326939
 40
0.177850234326939
 40
0.177850234326939
 40
0.177850234326939
 10
56.218508363712
 20
180.915902531759
 30
0.0
 10
56.16720979447782
 20
180.9806868077492
 30
0.0
 10
56.12539688465093
 20
181.0331709727492
 30
0.0
 10
56.06148117118898
 20
181.1132406627798
 30
0.0
 10
56.04385409548922
 20
181.135212707807
 30
0.0
 10
56.04385409548922
 20
181.135212707807
 30
0.0
  0
ARC
  5
A1
330
1F
100
AcDbEntity
  8
0
  6
Continuous
 62
     7
370
    25
100
AcDbCircle
 10
40.9115860971
 20
184.5210644517
 30
0.0
 40
15.50643501280393
100
AcDbArc
 50
347.3877789696
 51
89.3554782843
  0
SPLINE
  5
A2
330
1F
100
AcDbEntity
  8
0
  6
Continuous
 62
     7
370
    25
100
AcDbSpline
210
0.0
220
0.0
230
1.0
 70
    24
 71
     3
 72
    18
 73
    14
 74
     0
 42
0.00000001
 43
0.00000001
 40
0.0
 40
0.0
 40
0.0
 40
0.0
 40
0.125
 40
0.125
 40
0.25
 40
0.25
 40
0.375
 40
0.375
 40
0.5
 40
0.5
 40
0.75
 40
0.75
 40
1.0
 40
1.0
 40
1.0
 40
1.0
 10
41.08601470958595
 20
202.0941584745051
 30
0.0
 10
41.08601470958595
 20
201.9576420428189
 30
0.0
 10
41.08601470958595
 20
201.823405441178
 30
0.0
 10
41.08601470958595
 20
201.5593053746437
 30
0.0
 10
41.08601470958595
 20
201.4280766578791
 30
0.0
 10
41.08601470958595
 20
201.1777969904867
 30
0.0
 10
41.08601470958595
 20
201.0590882110951
 30
0.0
 10
41.08601470958595
 20
200.8344155362764
 30
0.0
 10
41.08601470958595
 20
200.7280230877307
 30
0.0
 10
41.08601470958594
 20
200.4419362135515
 30
0.0
 10
41.08601470958595
 20
200.2878493755229
 30
0.0
 10
41.08601470958595
 20
200.0813876239175
 30
0.0
 10
41.08601470958595
 20
200.0265183781432
 30
0.0
 10
41.08601470958595
 20
200.0265183781432
 30
0.0
  0
LINE
  5
A3
330
1F
100
AcDbEntity
  8
0
  6
Continuous
 62
     7
370
    25
100
AcDbLine
 10
120.0924638931
 20
114.2371580093
 30
0.0
 11
86.8531486684
 21
114.2371580093
 31
0.0
  0
ARC
  5
A4
330
1F
100
AcDbEntity
  8
0
  6
Continuous
 62
     7
370
    25
100
AcDbCircle
 10
120.0924638931
 20
116.3046826777
 30
0.0
 40
2.067524668373721
100
AcDbArc
 50
270.0
 51
0.0
  0
LINE
  5
A5
330
1F
100
AcDbEntity
  8
0
  6
Continuous
 62
     7
370
    25
100
AcDbLine
 10
122.1599885615
 20
173.2786186815
 30
0.0
 11
122.1599885615
 21
116.3046826777
 31
0.0
  0
LINE
  5
A6
330
1F
100
AcDbEntity
  8
0
  6
Continuous
 62
     7
370
    25
100
AcDbLine
 10
60.1342475244
 20
173.2786186815
 30
0.0
 11
122.1599885615
 21
173.2786186815
 31
0.0
  0
LINE
  5
A7
330
1F
100
AcDbEntity
  8
0
  6
Continuous
 62
     7
370
    25
100
AcDbLine
 10
115.3324654827
 20
197.660651675
 30
0.0
 11
111.6106088598
 21
197.660651675
 31
0.0
  0
LINE
  5
A8
330
1F
100
AcDbEntity
  8
0
  6
Continuous
 62
     7
370
    25
100
AcDbLine
 10
128.3625602406
 20
181.1352127078
 30
0.0
 11
115.3324654827
 21
181.1352127078
 31
0.0
  0
LINE
  5
A9
330
1F
100
AcDbEntity
  8
0
  6
Continuous
 62
     7
370
    25
100
AcDbLine
 10
128.3625599633
 20
112.169633341
 30
0.0
 11
128.3625602406
 21
181.1352127078
 31
0.0
  0
ARC
  5
AA
330
1F
100
AcDbEntity
  8
0
  6
Continuous
 62
     7
370
    25
100
AcDbCircle
 10
124.2275106266
 20
112.169633341
 30
0.0
 40
4.135049336747457
100
AcDbArc
 50
270.0
 51
0.0
  0
LINE
  5
AB
330
1F
100
AcDbEntity
  8
0
  6
Continuous
 62
     7
370
    25
100
AcDbLine
 10
86.8531486684
 20
108.0345840042
 30
0.0
 11
124.2275106266
 21
108.0345840042
 31
0.0
  0
LINE
  5
AC
330
1F
100
AcDbEntity
  8
0
  6
Continuous
 62
     7
370
    25
100
AcDbLine
 10
111.6106088598
 20
181.1352127078
 30
0.0
 11
62.5493491338
 21
181.1352127078
 31
0.0
  0
LINE
  5
AD
330
1F
100
AcDbEntity
  8
0
  6
Continuous
 62
     7
370
    25
100
AcDbLine
 10
41.0860147096
 20
206.4214378725
 30
0.0
 11
41.0860147096
 21
202.0941584745
 31
0.0
  0
ARC
  5
AE
330
1F
100
AcDbEntity
  8
0
  6
Continuous
 62
     7
370
    25
100
AcDbCircle
 10
60.1342475244
 20
177.4136680182
 30
0.0
 40
4.135049336747457
100
AcDbArc
 50
200.5210606795
 51
270.0
  0
SPLINE
  5
AF
330
1F
100
AcDbEntity
  8
0
  6
Continuous
 62
     7
370
    25
100
AcDbSpline
210
0.0
220
0.0
230
1.0
 70
     8
 71
     3
 72
    24
 73
    20
 74
     0
 42
0.00000001
 43
0.00000001
 40
0.0
 40
0.0
 40
0.0
 40
0.0
 40
0.0338424463943124
 40
0.0689197351616516
 40
0.1052842832670227
 40
0.1429731264237449
 40
0.1820163026223247
 40
0.2224442928748711
 40
0.2642946168290619
 40
0.3076176734131394
 40
0.3524818779617502
 40
0.3989745499635901
 40
0.4471375503827169
 40
0.4969446869305386
 40
0.6052923667492519
 40
0.7482866339248272
 40
0.8740076946704513
 40
0.9572842001112908
 40
1.0
 40
1.0
 40
1.0
 40
1.0
 10
86.8531486683634
 20
108.0345840042274
 30
0.0
 10
86.82167883791648
 20
108.0352540739253
 30
0.0
 10
86.75759090660347
 20
108.0366186628081
 30
0.0
 10
86.66071763191083
 20
108.047328022293
 30
0.0
 10
86.56222166364138
 20
108.0644365210164
 30
0.0
 10
86.46290181476216
 20
108.0887381459527
 30
0.0
 10
86.3635692249844
 20
108.1201577455314
 30
0.0
 10
86.26505319861278
 20
108.1588702695748
 30
0.0
 10
86.16819842151895
 20
108.2049817228166
 30
0.0
 10
86.07387153580771
 20
108.2586259191053
 30
0.0
 10
85.98293966124653
 20
108.319906197921
 30
0.0
 10
85.89640752706428
 20
108.3889876418092
 30
0.0
 10
85.81497688447983
 20
108.4653879383878
 30
0.0
 10
85.710392606143
 20
108.5796984755257
 30
0.0
 10
85.58338949195259
 20
108.7558074911248
 30
0.0
 10
85.4708615748975
 20
108.9920299562745
 30
0.0
 10
85.41249651128376
 20
109.2214212200563
 30
0.0
 10
85.39311903599554
 20
109.3864788641615
 30
0.0
 10
85.39167689226889
 20
109.4686767560935
 30
0.0
 10
85.39118795508598
 20
109.4965447175048
 30
0.0
  0
LINE
  5
B0
330
1F
100
AcDbEntity
  8
0
  6
Continuous
 62
     7
370
    25
100
AcDbLine
 10
85.3911879551
 20
112.7751972961
 30
0.0
 11
85.3911879551
 21
109.4965447175
 31
0.0
  0
SPLINE
  5
B1
330
1F
100
AcDbEntity
  8
0
  6
Continuous
 62
     7
370
    25
100
AcDbSpline
210
0.0
220
0.0
230
1.0
 70
     8
 71
     3
 72
    18
 73
    14
 74
     0
 42
0.00000001
 43
0.00000001
 40
0.0
 40
0.0
 40
0.0
 40
0.0
 40
0.0408734450404501
 40
0.1240564759861413
 40
0.2515600613642387
 40
0.3899400383603571
 40
0.5027788834160385
 40
0.637412816825108
 40
0.7525013204834329
 40
0.8177752696311685
 40
0.8805494337162739
 40
0.9412174557012052
 40
1.0
 40
1.0
 40
1.0
 40
1.0
 10
85.39118795508598
 20
112.7751972960705
 30
0.0
 10
85.39168876307792
 20
112.801808505192
 30
0.0
 10
85.3932087835843
 20
112.8825771514872
 30
0.0
 10
85.41362881041348
 20
113.0473418775393
 30
0.0
 10
85.47309040248014
 20
113.2744511477352
 30
0.0
 10
85.58233981477989
 20
113.5124981569696
 30
0.0
 10
85.74268165779887
 20
113.7402487082691
 30
0.0
 10
85.94528930656175
 20
113.932821134843
 30
0.0
 10
86.16463737061947
 20
114.0724931869714
 30
0.0
 10
86.35915535489164
 20
114.1554215300616
 30
0.0
 10
86.52201987638948
 20
114.2024093114723
 30
0.0
 10
86.68729687060261
 20
114.2316725132849
 30
0.0
 10
86.79844956886923
 20
114.2353488538309
 30
0.0
 10
86.8531486683634
 20
114.2371580093479
 30
0.0
  0
SPLINE
  5
B2
330
1F
100
AcDbEntity
  8
0
  6
Continuous
 62
     7
370
    25
100
AcDbSpline
210
0.0
220
0.0
230
1.0
 70
     8
 71
     3
 72
    11
 73
     7
 74
     0
 42
0.00000001
 43
0.00000001
 40
-0.0000015520537294
 40
-0.0000015520537294
 40
-0.0000015520537294
 40
-0.0000015520537294
 40
0.379426067972202
 40
0.7691867502603751
 40
1.28886765997794
 40
1.8085485696955
 40
1.8085485696955
 40
1.8085485696955
 40
1.8085485696955
 10
64.02795932536738
 20
181.1352140036127
 30
0.0
 10
64.43320236180112
 20
183.9034194515287
 30
0.0
 10
64.23664771248372
 20
189.6443844327495
 30
0.0
 10
60.51225931725072
 20
198.5442969163558
 30
0.0
 10
52.53963756808
 20
205.8831305696945
 30
0.0
 10
44.91668153416722
 20
207.8548414573698
 30
0.0
 10
41.08601470958595
 20
207.8834420523303
 30
0.0
  0
SPLINE
  5
B3
330
1F
100
AcDbEntity
  8
0
  6
Continuous
 62
     7
370
    25
100
AcDbSpline
210
0.0
220
0.0
230
1.0
 70
    24
 71
     3
 72
    16
 73
    12
 74
     0
 42
0.00000001
 43
0.00000001
 40
0.0
 40
0.0
 40
0.0
 40
0.0
 40
0.2500000000000058
 40
0.2500000000000058
 40
0.3750000000000069
 40
0.3750000000000069
 40
0.5000000000000081
 40
0.5000000000000081
 40
0.750000000000004
 40
0.750000000000004
 40
1.0
 40
1.0
 40
1.0
 40
1.0
 10
41.08601470958595
 20
207.8834420523303
 30
0.0
 10
41.08601470958595
 20
207.8834420523303
 30
0.0
 10
41.08601470958597
 20
207.84278324872
 30
0.0
 10
41.08601470958595
 20
207.7337987014696
 30
0.0
 10
41.08601470958593
 20
207.6896720758954
 30
0.0
 10
41.08601470958593
 20
207.5847150764835
 30
0.0
 10
41.08601470958594
 20
207.5228609720124
 30
0.0
 10
41.08601470958594
 20
207.3198980963944
 30
0.0
 10
41.0860147095859
 20
207.1575255677834
 30
0.0
 10
41.08601470958591
 20
206.8063530079332
 30
0.0
 10
41.08601470958595
 20
206.6144373447291
 30
0.0
 10
41.08601470958595
 20
206.4214378725245
 30
0.0
  0
LINE
  5
B4
330
1F
100
AcDbEntity
  8
0
  6
Continuous
 62
     7
370
    25
100
AcDbLine
 10
117.3999901511
 20
181.1352127078
 30
0.0
 11
117.3999901511
 21
197.660651675
 31
0.0
  0
LINE
  5
B5
330
1F
100
AcDbEntity
  8
0
  6
Continuous
 62
     7
370
    25
100
AcDbLine
 10
117.3999901511
 20
197.660651675
 30
0.0
 11
115.3324654827
 21
197.660651675
 31
0.0
  0
LINE
  5
B6
330
1F
100
AcDbEntity
  8
0
  6
Continuous
 62
     7
370
    25
100
AcDbLine
 10
109.5433964112
 20
197.660651675
 30
0.0
 11
109.5433964112
 21
181.1352127078
 31
0.0
  0
SPLINE
  5
B7
330
1F
100
AcDbEntity
  8
0
  6
Continuous
 62
     7
370
    25
100
AcDbSpline
210
0.0
220
0.0
230
1.0
 70
    24
 71
     3
 72
    14
 73
    10
 74
     0
 42
0.00000001
 43
0.00000001
 40
0.0
 40
0.0
 40
0.0
 40
0.0
 40
0.0450168739948104
 40
0.0450168739948104
 40
0.0450168739948104
 40
0.0900337479896208
 40
0.0900337479896208
 40
0.0900337479896208
 40
0.157559058981836
 40
0.157559058981836
 40
0.157559058981836
 40
0.157559058981836
 10
111.6106088598069
 20
197.6606516749596
 30
0.0
 10
111.332182204466
 20
197.6606516749596
 30
0.0
 10
111.0286760978357
 20
197.6606516749596
 30
0.0
 10
110.7424424381838
 20
197.6606516749596
 30
0.0
 10
110.4562087785322
 20
197.6606516749596
 30
0.0
 10
110.187247565859
 20
197.6606516749596
 30
0.0
 10
109.9874053445564
 20
197.6606516749596
 30
0.0
 10
109.6876420126026
 20
197.6606516749596
 30
0.0
 10
109.5433964112326
 20
197.6606516749596
 30
0.0
 10
109.5433964112326
 20
197.6606516749596
 30
0.0
  0
LINE
  5
B8
330
1F
100
AcDbEntity
  8
0
  6
Continuous
 62
     7
370
    25
100
AcDbLine
 10
55.9991981877
 20
181.1352127078
 30
0.0
 11
56.2185083637
 21
180.9159025318
 31
0.0
  0
LINE
  5
B9
330
1F
100
AcDbEntity
  8
0
  6
Continuous
 62
     7
370
    25
100
AcDbLine
 10
56.0438540955
 20
181.1352127078
 30
0.0
 11
55.9991981877
 21
181.1352127078
 31
0.0
  0
LINE
  5
BA
330
1F
100
AcDbEntity
  8
0
  6
Continuous
 62
     7
370
    25
100
AcDbLine
 10
55.9991981877
 20
181.1352127078
 30
0.0
 11
55.9991981877
 21
180.9414711492
 31
0.0
  0
LWPOLYLINE
  5
BB
330
1F
100
AcDbEntity
  8
0
  6
HIDDEN
 62
     7
370
    18
100
AcDbPolyline
 90
        2
 70
   128
 43
0.0
 10
86.8531486684
 20
108.0345840042
 10
86.8531486684
 20
108.0345840042
  0
LWPOLYLINE
  5
BC
330
1F
100
AcDbEntity
  8
0
  6
HIDDEN
 62
     7
370
    18
100
AcDbPolyline
 90
        2
 70
   128
 43
0.0
 10
86.8531486684
 20
114.2371580093
 10
86.8531486684
 20
114.2371580093
  0
LWPOLYLINE
  5
BD
330
1F
100
AcDbEntity
  8
0
  6
HIDDEN
 62
     7
370
    18
100
AcDbPolyline
 90
        2
 70
   128
 43
0.0
 10
85.3911879551
 20
112.7751972961
 10
85.3911879551
 20
112.7751972961
  0
LWPOLYLINE
  5
BE
330
1F
100
AcDbEntity
  8
0
  6
HIDDEN
 62
     7
370
    18
100
AcDbPolyline
 90
        2
 70
   128
 43
0.0
 10
85.3911879551
 20
109.4965447175
 10
85.3911879551
 20
109.4965447175
  0
SPLINE
  5
BF
330
1F
100
AcDbEntity
  8
0
  6
HIDDEN
 62
     7
370
    18
100
AcDbSpline
210
0.0
220
0.0
230
1.0
 70
    24
 71
     3
 72
     9
 73
     5
 74
     0
 42
0.00000001
 43
0.00000001
 40
0.0
 40
0.0
 40
0.0
 40
0.0
 40
0.1451554411046841
 40
1.0
 40
1.0
 40
1.0
 40
1.0
 10
62.49458607007745
 20
181.135212707807
 30
0.0
 10
62.46937586809828
 20
181.135212707807
 30
0.0
 10
62.29569858953884
 20
181.135212707807
 30
0.0
 10
62.10188401104213
 20
181.135212707807
 30
0.0
 10
61.93620267317963
 20
181.135212707807
 30
0.0
  0
LINE
  5
C0
330
1F
100
AcDbEntity
  8
0
  6
Continuous
 62
     7
370
    25
100
AcDbLine
 10
246.1352127078
 20
53.0340336438
 30
0.0
 11
246.1352127078
 21
60.8906273836
 31
0.0
  0
LINE
  5
C1
330
1F
100
AcDbEntity
  8
0
  6
Continuous
 62
     7
370
    25
100
AcDbLine
 10
177.169633341
 20
60.8906273836
 30
0.0
 11
246.1352127078
 21
60.8906273836
 31
0.0
  0
LINE
  5
C2
330
1F
100
AcDbEntity
  8
0
  6
Continuous
 62
     7
370
    25
100
AcDbLine
 10
177.169633341
 20
53.0340336438
 30
0.0
 11
246.1352127078
 21
53.0340336438
 31
0.0
  0
LINE
  5
C3
330
1F
100
AcDbEntity
  8
0
  6
Continuous
 62
     7
370
    25
100
AcDbLine
 10
173.0345840042
 20
53.0340336438
 30
0.0
 11
173.0345840042
 21
60.8906273836
 31
0.0
  0
LINE
  5
C4
330
1F
100
AcDbEntity
  8
0
  6
Continuous
 62
     7
370
    25
100
AcDbLine
 10
173.0345840042
 20
60.8906273836
 30
0.0
 11
177.169633341
 21
60.8906273836
 31
0.0
  0
LINE
  5
C5
330
1F
100
AcDbEntity
  8
0
  6
Continuous
 62
     7
370
    25
100
AcDbLine
 10
173.0345840042
 20
53.0340336438
 30
0.0
 11
177.169633341
 21
53.0340336438
 31
0.0
  0
LINE
  5
C6
330
1F
100
AcDbEntity
  8
0
  6
Continuous
 62
     7
370
    25
100
AcDbLine
 10
262.660651675
 20
58.8231027152
 30
0.0
 11
262.660651675
 21
60.8906273836
 31
0.0
  0
LINE
  5
C7
330
1F
100
AcDbEntity
  8
0
  6
Continuous
 62
     7
370
    25
100
AcDbLine
 10
262.660651675
 20
60.8906273836
 30
0.0
 11
246.1352127078
 21
60.8906273836
 31
0.0
  0
SPLINE
  5
C8
330
1F
100
AcDbEntity
  8
0
  6
Continuous
 62
     7
370
    25
100
AcDbSpline
210
0.0
220
0.0
230
1.0
 70
    24
 71
     3
 72
    14
 73
    10
 74
     0
 42
0.00000001
 43
0.00000001
 40
0.0
 40
0.0
 40
0.0
 40
0.0
 40
0.047754816826178
 40
0.047754816826178
 40
0.047754816826178
 40
0.0795913613769634
 40
0.0795913613769634
 40
0.0795913613769634
 40
0.111427905927749
 40
0.111427905927749
 40
0.111427905927749
 40
0.111427905927749
 10
262.6606516749596
 20
53.03403364376048
 30
0.0
 10
262.6606516749596
 20
53.03403364376048
 30
0.0
 10
262.6606516749596
 20
53.13604015432
 30
0.0
 10
262.6606516749596
 20
53.34789195392322
 30
0.0
 10
262.6606516749596
 20
53.48912648699203
 30
0.0
 10
262.6606516749596
 20
53.67918114852471
 30
0.0
 10
262.6606516749596
 20
53.88167133821779
 30
0.0
 10
262.6606516749596
 20
54.08416152791086
 30
0.0
 10
262.6606516749596
 20
54.29908724576432
 30
0.0
 10
262.6606516749596
 20
54.49599435703801
 30
0.0
  0
LINE
  5
C9
330
1F
100
AcDbEntity
  8
0
  6
Continuous
 62
     7
370
    25
100
AcDbLine
 10
246.1352127078
 20
53.0340336438
 30
0.0
 11
262.660651675
 21
53.0340336438
 31
0.0
  0
LINE
  5
CA
330
1F
100
AcDbEntity
  8
0
  6
Continuous
 62
     7
370
    25
100
AcDbLine
 10
262.660651675
 20
54.495994357
 30
0.0
 11
262.660651675
 21
58.8231027152
 31
0.0
  0
SPLINE
  5
CB
330
1F
100
AcDbEntity
  8
0
  6
Continuous
 62
     7
370
    25
100
AcDbSpline
210
0.0
220
0.0
230
1.0
 70
     8
 71
     3
 72
    16
 73
    12
 74
     0
 42
0.00000001
 43
0.00000001
 40
0.0
 40
0.0
 40
0.0
 40
0.0
 40
0.2500000000000058
 40
0.2500000000000058
 40
0.3750000000000069
 40
0.3750000000000069
 40
0.5000000000000081
 40
0.5000000000000081
 40
0.750000000000004
 40
0.750000000000004
 40
1.0
 40
1.0
 40
1.0
 40
1.0
 10
272.8834420523303
 20
59.42866667030309
 30
0.0
 10
272.8834420523303
 20
59.62189475726928
 30
0.0
 10
272.84278324872
 20
59.81042260321041
 30
0.0
 10
272.7337987014696
 20
60.07627434178573
 30
0.0
 10
272.6896720758954
 20
60.16055048879313
 30
0.0
 10
272.5847150764836
 20
60.31980443613816
 30
0.0
 10
272.5228609720124
 20
60.39503516788857
 30
0.0
 10
272.3198980963945
 20
60.59683821545721
 30
0.0
 10
272.1575255677834
 20
60.70665619624551
 30
0.0
 10
271.8063530079332
 20
60.85244851969492
 30
0.0
 10
271.6144373447292
 20
60.89062737754831
 30
0.0
 10
271.4214378725245
 20
60.89062738358062
 30
0.0
  0
SPLINE
  5
CC
330
1F
100
AcDbEntity
  8
0
  6
Continuous
 62
     7
370
    25
100
AcDbSpline
210
0.0
220
0.0
230
1.0
 70
    24
 71
     3
 72
    14
 73
    10
 74
     0
 42
0.00000001
 43
0.00000001
 40
0.0
 40
0.0
 40
0.0
 40
0.0
 40
0.1504476558541741
 40
0.3007618508269255
 40
0.4509670604235588
 40
0.6011198042154573
 40
0.7513462848733545
 40
0.9016310081539486
 40
1.0
 40
1.0
 40
1.0
 40
1.0
 10
271.4214378725246
 20
60.89062738358062
 30
0.0
 10
271.3728729621895
 20
60.89062738358062
 30
0.0
 10
271.275786223053
 20
60.89062738358062
 30
0.0
 10
270.609630877859
 20
60.89062738358062
 30
0.0
 10
269.5800726630506
 20
60.89062738358062
 30
0.0
 10
268.1637243676021
 20
60.89062738358062
 30
0.0
 10
266.3840764703005
 20
60.89062738358062
 30
0.0
 10
264.5644525183437
 20
60.89062738358062
 30
0.0
 10
263.2395604650457
 20
60.89062738358062
 30
0.0
 10
262.7154247386948
 20
60.89062738358062
 30
0.0
  0
LINE
  5
CD
330
1F
100
AcDbEntity
  8
0
  6
Continuous
 62
     7
370
    25
100
AcDbLine
 10
272.8834420523
 20
55.1015583121
 30
0.0
 11
272.8834420523
 21
59.4286666703
 31
0.0
  0
SPLINE
  5
CE
330
1F
100
AcDbEntity
  8
0
  6
Continuous
 62
     7
370
    25
100
AcDbSpline
210
0.0
220
0.0
230
1.0
 70
     8
 71
     3
 72
    18
 73
    14
 74
     0
 42
0.00000001
 43
0.00000001
 40
0.0
 40
0.0
 40
0.0
 40
0.0
 40
0.1250000000000001
 40
0.1250000000000001
 40
0.2500000000000001
 40
0.2500000000000001
 40
0.3750000000000001
 40
0.3750000000000001
 40
0.5000000000000001
 40
0.5000000000000001
 40
0.75
 40
0.75
 40
1.0
 40
1.0
 40
1.0
 40
1.0
 10
270.8158541632909
 20
53.03403364376048
 30
0.0
 10
270.9523689668447
 20
53.03403364376049
 30
0.0
 10
271.0866039295661
 20
53.0474207385747
 30
0.0
 10
271.3507006576038
 20
53.09987409293385
 30
0.0
 10
271.4819277532172
 20
53.13957514043786
 30
0.0
 10
271.7322030503233
 20
53.24323598532668
 30
0.0
 10
271.8509095519288
 20
53.30667101202898
 30
0.0
 10
272.075577467947
 20
53.45653878175308
 30
0.0
 10
272.1819669390684
 20
53.54377647908196
 30
0.0
 10
272.4680446219024
 20
53.82963666200396
 30
0.0
 10
272.6221248271182
 20
54.06007341714533
 30
0.0
 10
272.8285762776709
 20
54.55722318157898
 30
0.0
 10
272.8834420523302
 20
54.82852846010425
 30
0.0
 10
272.8834420523302
 20
55.10155831213421
 30
0.0
  0
LINE
  5
CF
330
1F
100
AcDbEntity
  8
0
  6
Continuous
 62
     7
370
    25
100
AcDbLine
 10
262.6846658697
 20
53.0340336438
 30
0.0
 11
270.8158541633
 21
53.0340336438
 31
0.0
  0
LINE
  5
D0
330
1F
100
AcDbEntity
  8
0
  6
HIDDEN
 62
     7
370
    18
100
AcDbLine
 10
238.2786186815
 20
53.0340336438
 30
0.0
 11
238.2786186815
 21
60.8906273836
 31
0.0
  0
LINE
  5
D1
330
1F
100
AcDbEntity
  8
0
  6
HIDDEN
 62
     7
370
    18
100
AcDbLine
 10
179.2371580093
 20
53.0340336438
 30
0.0
 11
179.2371580093
 21
60.8906273836
 31
0.0
  0
SPLINE
  5
D2
330
1F
100
AcDbEntity
  8
0
  6
HIDDEN
 62
     7
370
    18
100
AcDbSpline
210
0.0
220
0.0
230
1.0
 70
     8
 71
     3
 72
    21
 73
    17
 74
     0
 42
0.00000001
 43
0.00000001
 40
0.0
 40
0.0
 40
0.0
 40
0.0
 40
0.0333739290897949
 40
0.0673485785606752
 40
0.1019459589616829
 40
0.1372048881004164
 40
0.1731826645952383
 40
0.2099554166926928
 40
0.2476163129434044
 40
0.3626377797077771
 40
0.4972985116852545
 40
0.6100773923334749
 40
0.7484798351586208
 40
0.8760167680783166
 40
0.9591855453530461
 40
1.0
 40
1.0
 40
1.0
 40
1.0
 10
173.0345840042274
 20
53.03403364376048
 30
0.0
 10
173.0351862455712
 20
53.03461559916033
 30
0.0
 10
173.0364015684164
 20
53.03578998497684
 30
0.0
 10
173.0460331581642
 20
53.04520081439368
 30
0.0
 10
173.0613495858041
 20
53.06029594722457
 30
0.0
 10
173.0829460593243
 20
53.08171924136442
 30
0.0
 10
173.1106613507158
 20
53.10937616296033
 30
0.0
 10
173.1445521874284
 20
53.14333450421818
 30
0.0
 10
173.2115913395844
 20
53.21090891715846
 30
0.0
 10
173.3390809280928
 20
53.33834704230399
 30
0.0
 10
173.5314521109387
 20
53.53088371876258
 30
0.0
 10
173.7595060140778
 20
53.75866314910105
 30
0.0
 10
173.9968285613797
 20
53.99674203294182
 30
0.0
 10
174.2219722100697
 20
54.22392131777032
 30
0.0
 10
174.3871514203028
 20
54.38868626050922
 30
0.0
 10
174.4694519272904
 20
54.46941800435845
 30
0.0
 10
174.4965447063526
 20
54.49599435703801
 30
0.0
  0
SPLINE
  5
D3
330
1F
100
AcDbEntity
  8
0
  6
HIDDEN
 62
     7
370
    18
100
AcDbSpline
210
0.0
220
0.0
230
1.0
 70
     8
 71
     3
 72
    24
 73
    20
 74
     0
 42
0.00000001
 43
0.00000001
 40
0.0
 40
0.0
 40
0.0
 40
0.0
 40
0.0338424463943124
 40
0.0689197351616516
 40
0.1052842832670227
 40
0.1429731264237449
 40
0.1820163026223247
 40
0.2224442928748711
 40
0.2642946168290619
 40
0.3076176734131394
 40
0.3524818779617502
 40
0.3989745499635901
 40
0.4471375503827169
 40
0.4969446869305386
 40
0.6052923667492519
 40
0.7482866339248272
 40
0.8740076946704513
 40
0.9572842001112908
 40
1.0
 40
1.0
 40
1.0
 40
1.0
 10
173.0345840042274
 20
60.89062738358062
 30
0.0
 10
173.0352540739253
 20
60.88991574201079
 30
0.0
 10
173.0366186628081
 20
60.88846649251058
 30
0.0
 10
173.047328022293
 20
60.87721214733408
 30
0.0
 10
173.0644365210164
 20
60.85940144935797
 30
0.0
 10
173.0887381459527
 20
60.83431270069771
 30
0.0
 10
173.1201577455314
 20
60.80214840436258
 30
0.0
 10
173.1588702695748
 20
60.76284728829557
 30
0.0
 10
173.2049817228166
 20
60.71642074222663
 30
0.0
 10
173.2586259191053
 20
60.6628597057252
 30
0.0
 10
173.3199061979209
 20
60.60215859232554
 30
0.0
 10
173.3889876418092
 20
60.53436331273947
 30
0.0
 10
173.4653879383878
 20
60.45952614349134
 30
0.0
 10
173.5796984755257
 20
60.34623808837492
 30
0.0
 10
173.7558074911248
 20
60.16815863030531
 30
0.0
 10
173.9920299562746
 20
59.9326101057774
 30
0.0
 10
174.2214212200563
 20
59.70549670654536
 30
0.0
 10
174.3864788641615
 20
59.54038619273071
 30
0.0
 10
174.4686767560935
 20
59.45695333001933
 30
0.0
 10
174.4965447175048
 20
59.42866667030309
 30
0.0
  0
SPLINE
  5
D4
330
1F
100
AcDbEntity
  8
0
  6
HIDDEN
 62
     7
370
    18
100
AcDbSpline
210
0.0
220
0.0
230
1.0
 70
     8
 71
     3
 72
    18
 73
    14
 74
     0
 42
0.00000001
 43
0.00000001
 40
0.0
 40
0.0
 40
0.0
 40
0.0
 40
0.0408734450404501
 40
0.1240564759861413
 40
0.2515600613642387
 40
0.3899400383603571
 40
0.5027788834160385
 40
0.637412816825108
 40
0.7525013204834329
 40
0.8177752696311685
 40
0.8805494337162739
 40
0.9412174557012052
 40
1.0
 40
1.0
 40
1.0
 40
1.0
 10
177.7751972960705
 20
59.42866667030309
 30
0.0
 10
177.801808505192
 20
59.45579353856484
 30
0.0
 10
177.8825771514872
 20
59.53812728062552
 30
0.0
 10
178.0473418775393
 20
59.70330440820711
 30
0.0
 10
178.2744511477352
 20
59.92838766268184
 30
0.0
 10
178.5124981569696
 20
60.16567481906873
 30
0.0
 10
178.7402487082691
 20
60.39369675604966
 30
0.0
 10
178.932821134843
 20
60.5861308616683
 30
0.0
 10
179.0724931869714
 20
60.72576014738134
 30
0.0
 10
179.1554215300616
 20
60.80809180523828
 30
0.0
 10
179.2024093114723
 20
60.85525943673986
 30
0.0
 10
179.2316725132849
 20
60.88495700362818
 30
0.0
 10
179.2353488538309
 20
60.88875725204526
 30
0.0
 10
179.2371580093479
 20
60.89062738358062
 30
0.0
  0
SPLINE
  5
D5
330
1F
100
AcDbEntity
  8
0
  6
HIDDEN
 62
     7
370
    18
100
AcDbSpline
210
0.0
220
0.0
230
1.0
 70
     8
 71
     3
 72
    18
 73
    14
 74
     0
 42
0.00000001
 43
0.00000001
 40
0.0
 40
0.0
 40
0.0
 40
0.0
 40
0.0408679334038523
 40
0.1240510809890999
 40
0.2515606085803288
 40
0.3899410169302616
 40
0.5027822595060641
 40
0.637416311166934
 40
0.7525044621575477
 40
0.8177775138964974
 40
0.8805508954450182
 40
0.941218183871942
 40
0.9999999999999999
 40
0.9999999999999999
 40
0.9999999999999999
 40
0.9999999999999999
 10
177.7751973072231
 20
54.49599435703801
 30
0.0
 10
177.8023205681031
 20
54.46938677393644
 30
0.0
 10
177.8846508831417
 20
54.38862175424143
 30
0.0
 10
178.0498284099436
 20
54.22385638363142
 30
0.0
 10
178.2749158771276
 20
53.99674208699211
 30
0.0
 10
178.5122083780635
 20
53.75868902220592
 30
0.0
 10
178.7402316247021
 20
53.5309373945509
 30
0.0
 10
178.932666162761
 20
53.3383658759308
 30
0.0
 10
179.0722941037666
 20
53.19869606377419
 30
0.0
 10
179.1546243441385
 20
53.11576925775298
 30
0.0
 10
179.2017908699662
 20
53.06878220299993
 30
0.0
 10
179.2314877553364
 20
53.03951917441206
 30
0.0
 10
179.2352879195373
 20
53.03584281050265
 30
0.0
 10
179.2371580093479
 20
53.03403364376048
 30
0.0
  0
SPLINE
  5
D6
330
1F
100
AcDbEntity
  8
0
  6
HIDDEN
 62
     7
370
    18
100
AcDbSpline
210
0.0
220
0.0
230
1.0
 70
     8
 71
     3
 72
    10
 73
     6
 74
     0
 42
0.00000001
 43
0.00000001
 40
0.0
 40
0.0
 40
0.0
 40
0.0
 40
0.5
 40
0.5
 40
1.0
 40
1.0
 40
1.0
 40
1.0
 10
242.4136680182151
 20
60.68634436465641
 30
0.0
 10
242.1674423514447
 20
60.73680921814676
 30
0.0
 10
241.9246914108348
 20
60.78727478149801
 30
0.0
 10
241.4423236585124
 20
60.86394754271364
 30
0.0
 10
241.2006657932219
 20
60.89062738358062
 30
0.0
 10
240.9641196178459
 20
60.89062738358062
 30
0.0
  0
SPLINE
  5
D7
330
1F
100
AcDbEntity
  8
0
  6
HIDDEN
 62
     7
370
    18
100
AcDbSpline
210
0.0
220
0.0
230
1.0
 70
     8
 71
     3
 72
    10
 73
     6
 74
     0
 42
0.00000001
 43
0.00000001
 40
0.0
 40
0.0
 40
0.0
 40
0.0
 40
0.5
 40
0.5
 40
1.0
 40
1.0
 40
1.0
 40
1.0
 10
240.9641196178459
 20
53.03403364376048
 30
0.0
 10
241.1998970751146
 20
53.03403364376049
 30
0.0
 10
241.4381647885287
 20
53.06016703376581
 30
0.0
 10
241.9219592151716
 20
53.13683897545461
 30
0.0
 10
242.1679385666867
 20
53.18795351032819
 30
0.0
 10
242.4136680182151
 20
53.2383166626847
 30
0.0
  0
SPLINE
  5
D8
330
1F
100
AcDbEntity
  8
0
  6
HIDDEN
 62
     7
370
    18
100
AcDbSpline
210
0.0
220
0.0
230
1.0
 70
     8
 71
     3
 72
    18
 73
    14
 74
     0
 42
0.00000001
 43
0.00000001
 40
0.0
 40
0.0
 40
0.0
 40
0.0
 40
0.0624999999999999
 40
0.0624999999999999
 40
0.1249999999999998
 40
0.1249999999999998
 40
0.2499999999999998
 40
0.2499999999999998
 40
0.4999999999999999
 40
0.4999999999999999
 40
0.7499999999999999
 40
0.7499999999999999
 40
1.0
 40
1.0
 40
1.0
 40
1.0
 10
245.9414711492365
 20
58.8231027152069
 30
0.0
 10
245.9414711492365
 20
58.91165406167685
 30
0.0
 10
245.9157768729369
 20
58.99753095934761
 30
0.0
 10
245.8351237250043
 20
59.15199962640663
 30
0.0
 10
245.7805892018149
 20
59.22208800966389
 30
0.0
 10
245.6018568091692
 20
59.41233049875207
 30
0.0
 10
245.4606088221689
 20
59.51741792550839
 30
0.0
 10
245.0246012822861
 20
59.80105170396389
 30
0.0
 10
244.7138246876333
 20
59.94949226938975
 30
0.0
 10
244.0772498632752
 20
60.21600226207355
 30
0.0
 10
243.7496144095604
 20
60.33140624007851
 30
0.0
 10
243.0880791494766
 20
60.53172964993552
 30
0.0
 10
242.7530562871244
 20
60.61678549416376
 30
0.0
 10
242.4136680182151
 20
60.68634436465641
 30
0.0
  0
SPLINE
  5
D9
330
1F
100
AcDbEntity
  8
0
  6
HIDDEN
 62
     7
370
    18
100
AcDbSpline
210
0.0
220
0.0
230
1.0
 70
     8
 71
     3
 72
     8
 73
     4
 74
     0
 42
0.00000001
 43
0.00000001
 40
0.0
 40
0.0
 40
0.0
 40
0.0
 40
1.0
 40
1.0
 40
1.0
 40
1.0
 10
245.9159025318053
 20
59.74979653988014
 30
0.0
 10
245.9325637106948
 20
59.46376352600318
 30
0.0
 10
245.9414711492366
 20
59.14445909137912
 30
0.0
 10
245.9414711492366
 20
58.8231027152069
 30
0.0
  0
SPLINE
  5
DA
330
1F
100
AcDbEntity
  8
0
  6
HIDDEN
 62
     7
370
    18
100
AcDbSpline
210
0.0
220
0.0
230
1.0
 70
     8
 71
     3
 72
    10
 73
     6
 74
     0
 42
0.00000001
 43
0.00000001
 40
0.129801281597944
 40
0.129801281597944
 40
0.129801281597944
 40
0.129801281597944
 40
0.152268707148176
 40
0.152268707148176
 40
0.177850234326939
 40
0.177850234326939
 40
0.177850234326939
 40
0.177850234326939
 10
245.9159025317591
 20
59.74979653988202
 30
0.0
 10
245.9806868077492
 20
59.62058963834492
 30
0.0
 10
246.0331709727492
 20
59.48213404920706
 30
0.0
 10
246.1132406627798
 20
59.16938951721148
 30
0.0
 10
246.135212707807
 20
58.99719457076149
 30
0.0
 10
246.135212707807
 20
58.8231027152069
 30
0.0
  0
SPLINE
  5
DB
330
1F
100
AcDbEntity
  8
0
  6
HIDDEN
 62
     7
370
    18
100
AcDbSpline
210
0.0
220
0.0
230
1.0
 70
     8
 71
     3
 72
    18
 73
    14
 74
     0
 42
0.00000001
 43
0.00000001
 40
0.0
 40
0.0
 40
0.0
 40
0.0
 40
0.125
 40
0.125
 40
0.25
 40
0.25
 40
0.375
 40
0.375
 40
0.5
 40
0.5
 40
0.75
 40
0.75
 40
1.0
 40
1.0
 40
1.0
 40
1.0
 10
267.0941584745051
 20
60.89062738358062
 30
0.0
 10
266.957642042819
 20
60.89062738358063
 30
0.0
 10
266.8234054411781
 20
60.87724039067961
 30
0.0
 10
266.5593053746437
 20
60.82478767030918
 30
0.0
 10
266.4280766578791
 20
60.78508723145848
 30
0.0
 10
266.1777969904867
 20
60.68142768088713
 30
0.0
 10
266.0590882110951
 20
60.617993472567
 30
0.0
 10
265.8344155362764
 20
60.46812771435692
 30
0.0
 10
265.7280230877307
 20
60.38089087966662
 30
0.0
 10
265.4419362135516
 20
60.09503259060718
 30
0.0
 10
265.2878493755229
 20
59.86459643010632
 30
0.0
 10
265.0813876239175
 20
59.3674442252369
 30
0.0
 10
265.0265183781432
 20
59.09613599032654
 30
0.0
 10
265.0265183781432
 20
58.8231027152069
 30
0.0
  0
SPLINE
  5
DC
330
1F
100
AcDbEntity
  8
0
  6
HIDDEN
 62
     7
370
    18
100
AcDbSpline
210
0.0
220
0.0
230
1.0
 70
     8
 71
     3
 72
    12
 73
     8
 74
     0
 42
0.00000001
 43
0.00000001
 40
-0.225859288312784
 40
-0.225859288312784
 40
-0.225859288312784
 40
-0.225859288312784
 40
-0.216207045347428
 40
-0.216207045347428
 40
-0.183285816766527
 40
-0.183285816766527
 40
-0.177850234359985
 40
-0.177850234359985
 40
-0.177850234359985
 40
-0.177850234359985
 10
245.9159025295024
 20
54.1748644829585
 30
0.0
 10
245.9437584134359
 20
54.23042074835977
 30
0.0
 10
245.9693966438536
 20
54.28780259876302
 30
0.0
 10
246.071665602349
 20
54.54867481486115
 30
0.0
 10
246.1201097708066
 20
54.76550584998967
 30
0.0
 10
246.1342200456394
 20
55.02749032980357
 30
0.0
 10
246.135212707807
 20
55.06456714188937
 30
0.0
 10
246.135212707807
 20
55.10155831213421
 30
0.0
  0
SPLINE
  5
DD
330
1F
100
AcDbEntity
  8
0
  6
HIDDEN
 62
     7
370
    18
100
AcDbSpline
210
0.0
220
0.0
230
1.0
 70
     8
 71
     3
 72
     8
 73
     4
 74
     0
 42
0.00000001
 43
0.00000001
 40
0.0
 40
0.0
 40
0.0
 40
0.0
 40
1.0
 40
1.0
 40
1.0
 40
1.0
 10
245.9159025315476
 20
54.17486448303723
 30
0.0
 10
245.9325637106
 20
54.46089749802275
 30
0.0
 10
245.9414711492366
 20
54.78020193430533
 30
0.0
 10
245.9414711492366
 20
55.10155831213421
 30
0.0
  0
SPLINE
  5
DE
330
1F
100
AcDbEntity
  8
0
  6
HIDDEN
 62
     7
370
    18
100
AcDbSpline
210
0.0
220
0.0
230
1.0
 70
     8
 71
     3
 72
    18
 73
    14
 74
     0
 42
0.00000001
 43
0.00000001
 40
0.0
 40
0.0
 40
0.0
 40
0.0
 40
0.2499999999999999
 40
0.2499999999999999
 40
0.4999999999999999
 40
0.4999999999999999
 40
0.7499999999999998
 40
0.7499999999999998
 40
0.8749999999999998
 40
0.8749999999999998
 40
0.9374999999999999
 40
0.9374999999999999
 40
1.0
 40
1.0
 40
1.0
 40
1.0
 10
242.4136680182151
 20
53.2383166626847
 30
0.0
 10
242.7531332988472
 20
53.3078913170124
 30
0.0
 10
243.0884656699479
 20
53.39301792376758
 30
0.0
 10
243.7510394917031
 20
53.59371690651664
 30
0.0
 10
244.0781330240836
 20
53.70893173051321
 30
0.0
 10
244.7170442428542
 20
53.97661406928907
 30
0.0
 10
245.0315528354974
 20
54.12736122415732
 30
0.0
 10
245.4654063590183
 20
54.41076024626947
 30
0.0
 10
245.6054631303449
 20
54.51542067588774
 30
0.0
 10
245.7828932199213
 20
54.70541272242067
 30
0.0
 10
245.8367031856933
 20
54.77513592395284
 30
0.0
 10
245.9161382835867
 20
54.9283863096513
 30
0.0
 10
245.9414711492365
 20
55.01381701042138
 30
0.0
 10
245.9414711492365
 20
55.10155831213421
 30
0.0
  0
SPLINE
  5
DF
330
1F
100
AcDbEntity
  8
0
  6
HIDDEN
 62
     7
370
    18
100
AcDbSpline
210
0.0
220
0.0
230
1.0
 70
     8
 71
     3
 72
    18
 73
    14
 74
     0
 42
0.00000001
 43
0.00000001
 40
0.0
 40
0.0
 40
0.0
 40
0.0
 40
0.1250000000000001
 40
0.1250000000000001
 40
0.2500000000000001
 40
0.2500000000000001
 40
0.3750000000000002
 40
0.3750000000000002
 40
0.5000000000000002
 40
0.5000000000000002
 40
0.7500000000000001
 40
0.7500000000000001
 40
1.0
 40
1.0
 40
1.0
 40
1.0
 10
265.0265183781432
 20
55.10155831213421
 30
0.0
 10
265.0265183781432
 20
54.96504180660082
 30
0.0
 10
265.0399075400197
 20
54.83080554648377
 30
0.0
 10
265.0923685952012
 20
54.56670693188767
 30
0.0
 10
265.1320756200496
 20
54.43547891193161
 30
0.0
 10
265.2357493987285
 20
54.18520676668281
 30
0.0
 10
265.2991919201966
 20
54.06650239806315
 30
0.0
 10
265.4490763478117
 20
53.84183964767809
 30
0.0
 10
265.5363217981401
 20
53.73545525978633
 30
0.0
 10
265.8222029342748
 20
53.44939380634142
 30
0.0
 10
266.0526521728685
 20
53.29532573453111
 30
0.0
 10
266.5498167933183
 20
53.08889331950198
 30
0.0
 10
266.8211258915719
 20
53.03403364376048
 30
0.0
 10
267.0941584745051
 20
53.03403364376048
 30
0.0
  0
LINE
  5
E0
330
1F
100
AcDbEntity
  8
0
  6
HIDDEN
 62
     7
370
    18
100
AcDbLine
 10
265.0265183781
 20
55.1015583121
 30
0.0
 11
265.0265183781
 21
58.8231027152
 31
0.0
  0
ENDSEC
  0
SECTION
  2
OBJECTS
  0
DICTIONARY
  5
C
330
0
100
AcDbDictionary
281
     1
  3
ACAD_GROUP
350
D
  3
ACAD_LAYOUT
350
1A
  3
ACAD_MLINESTYLE
350
17
  3
ACAD_PLOTSETTINGS
350
19
  3
ACAD_PLOTSTYLENAME
350
E
  3
ACAD_SCALELIST
350
47
  3
DWGPROPS
350
E1
  0
DICTIONARY
  5
D
102
{ACAD_REACTORS
330
C
102
}
330
C
100
AcDbDictionary
281
     1
  0
DICTIONARY
  5
1A
102
{ACAD_REACTORS
330
C
102
}
330
C
100
AcDbDictionary
281
     1
  3
Layout1
350
1E
  3
Layout2
350
26
  3
Model
350
22
  0
DICTIONARY
  5
17
102
{ACAD_REACTORS
330
C
102
}
330
C
100
AcDbDictionary
281
     1
  3
Standard
350
18
  0
DICTIONARY
  5
19
102
{ACAD_REACTORS
330
C
102
}
330
C
100
AcDbDictionary
281
     1
  0
ACDBDICTIONARYWDFLT
  5
E
102
{ACAD_REACTORS
330
C
102
}
330
C
100
AcDbDictionary
281
     1
  3
Normal
350
F
100
AcDbDictionaryWithDefault
340
F
  0
DICTIONARY
  5
47
102
{ACAD_REACTORS
330
C
102
}
330
C
100
AcDbDictionary
281
     1
  3
A0
350
48
  3
A1
350
49
  3
A2
350
4A
  3
A3
350
4B
  3
A4
350
4C
  3
A5
350
4D
  3
A6
350
4E
  3
A7
350
4F
  3
A8
350
50
  3
A9
350
51
  3
B0
350
52
  3
B1
350
53
  3
B2
350
54
  3
B3
350
55
  3
B4
350
56
  3
B5
350
57
  3
B6
350
58
  0
XRECORD
  5
E1
102
{ACAD_REACTORS
330
C
102
}
330
C
100
AcDbXrecord
280
     1
  1
DWGPROPS COOKIE
  2

  3

  4

  6

  7

  8

  9

300
=
301
=
302
=
303
=
304
=
305
=
306
=
307
=
308
=
309
=
 40
0.0
 41
2461214.958035174
 42
2461214.958035533
  1

 90
        0
  0
LAYOUT
  5
1E
102
{ACAD_REACTORS
330
1A
102
}
330
1A
100
AcDbPlotSettings
  1

  2
none_device
  4

  6

 40
0.0
 41
0.0
 42
0.0
 43
0.0
 44
0.0
 45
0.0
 46
0.0
 47
0.0
 48
0.0
 49
0.0
140
0.0
141
0.0
142
1.0
143
1.0
 70
   688
 72
     1
 73
     0
 74
     5
  7

 75
    16
147
1.0
148
0.0
149
0.0
100
AcDbLayout
  1
Layout1
 70
     1
 71
     1
 10
0.0
 20
0.0
 11
420.0
 21
297.0
 12
0.0
 22
0.0
 32
0.0
 14
1.0000000000E+20
 24
1.0000000000E+20
 34
1.0000000000E+20
 15
-1.0000000000E+20
 25
-1.0000000000E+20
 35
-1.0000000000E+20
146
0.0
 13
0.0
 23
0.0
 33
0.0
 16
1.0
 26
0.0
 36
0.0
 17
0.0
 27
1.0
 37
0.0
 76
     0
330
1B
  0
LAYOUT
  5
26
102
{ACAD_REACTORS
330
1A
102
}
330
1A
100
AcDbPlotSettings
  1

  2
none_device
  4

  6

 40
0.0
 41
0.0
 42
0.0
 43
0.0
 44
0.0
 45
0.0
 46
0.0
 47
0.0
 48
0.0
 49
0.0
140
0.0
141
0.0
142
1.0
143
1.0
 70
   688
 72
     1
 73
     0
 74
     5
  7

 75
    16
147
1.0
148
0.0
149
0.0
100
AcDbLayout
  1
Layout2
 70
     1
 71
     2
 10
0.0
 20
0.0
 11
0.0
 21
0.0
 12
0.0
 22
0.0
 32
0.0
 14
0.0
 24
0.0
 34
0.0
 15
0.0
 25
0.0
 35
0.0
146
0.0
 13
0.0
 23
0.0
 33
0.0
 16
1.0
 26
0.0
 36
0.0
 17
0.0
 27
1.0
 37
0.0
 76
     0
330
23
  0
LAYOUT
  5
22
102
{ACAD_REACTORS
330
1A
102
}
330
1A
100
AcDbPlotSettings
  1

  2
none_device
  4
Letter_(8.50_x_11.00_Inches)
  6

 40
6.35
 41
6.35
 42
6.35000508
 43
6.35000508
 44
215.9
 45
279.4
 46
0.0
 47
0.0
 48
0.0
 49
0.0
140
0.0
141
0.0
142
1.0
143
1.0
 70
  1712
 72
     1
 73
     0
 74
     0
  7

 75
     0
147
1.0
148
0.0
149
0.0
100
AcDbLayout
  1
Model
 70
     1
 71
     0
 10
0.0
 20
0.0
 11
297.0
 21
210.0
 12
0.0
 22
0.0
 32
0.0
 14
0.0
 24
0.0
 34
0.0
 15
297.0
 25
210.0
 35
0.0
146
0.0
 13
0.0
 23
0.0
 33
0.0
 16
1.0
 26
0.0
 36
0.0
 17
0.0
 27
1.0
 37
0.0
 76
     0
330
1F
331
29
  0
MLINESTYLE
  5
18
102
{ACAD_REACTORS
330
17
102
}
330
17
100
AcDbMlineStyle
  2
Standard
 70
     0
  3

 62
   256
 51
90.0
 52
90.0
 71
     2
 49
0.5
 62
   256
  6
BYLAYER
 49
-0.5
 62
   256
  6
BYLAYER
  0
ACDBPLACEHOLDER
  5
F
102
{ACAD_REACTORS
330
E
102
}
330
E
  0
SCALE
  5
48
102
{ACAD_REACTORS
330
47
102
}
330
47
100
AcDbScale
 70
     0
300
1:1
140
1.0
141
1.0
290
     1
  0
SCALE
  5
49
102
{ACAD_REACTORS
330
47
102
}
330
47
100
AcDbScale
 70
     0
300
1:2
140
1.0
141
2.0
290
     0
  0
SCALE
  5
4A
102
{ACAD_REACTORS
330
47
102
}
330
47
100
AcDbScale
 70
     0
300
1:4
140
1.0
141
4.0
290
     0
  0
SCALE
  5
4B
102
{ACAD_REACTORS
330
47
102
}
330
47
100
AcDbScale
 70
     0
300
1:5
140
1.0
141
5.0
290
     0
  0
SCALE
  5
4C
102
{ACAD_REACTORS
330
47
102
}
330
47
100
AcDbScale
 70
     0
300
1:8
140
1.0
141
8.0
290
     0
  0
SCALE
  5
4D
102
{ACAD_REACTORS
330
47
102
}
330
47
100
AcDbScale
 70
     0
300
1:10
140
1.0
141
10.0
290
     0
  0
SCALE
  5
4E
102
{ACAD_REACTORS
330
47
102
}
330
47
100
AcDbScale
 70
     0
300
1:16
140
1.0
141
16.0
290
     0
  0
SCALE
  5
4F
102
{ACAD_REACTORS
330
47
102
}
330
47
100
AcDbScale
 70
     0
300
1:20
140
1.0
141
20.0
290
     0
  0
SCALE
  5
50
102
{ACAD_REACTORS
330
47
102
}
330
47
100
AcDbScale
 70
     0
300
1:30
140
1.0
141
30.0
290
     0
  0
SCALE
  5
51
102
{ACAD_REACTORS
330
47
102
}
330
47
100
AcDbScale
 70
     0
300
1:40
140
1.0
141
40.0
290
     0
  0
SCALE
  5
52
102
{ACAD_REACTORS
330
47
102
}
330
47
100
AcDbScale
 70
     0
300
1:50
140
1.0
141
50.0
290
     0
  0
SCALE
  5
53
102
{ACAD_REACTORS
330
47
102
}
330
47
100
AcDbScale
 70
     0
300
1:100
140
1.0
141
100.0
290
     0
  0
SCALE
  5
54
102
{ACAD_REACTORS
330
47
102
}
330
47
100
AcDbScale
 70
     0
300
2:1
140
2.0
141
1.0
290
     0
  0
SCALE
  5
55
102
{ACAD_REACTORS
330
47
102
}
330
47
100
AcDbScale
 70
     0
300
4:1
140
4.0
141
1.0
290
     0
  0
SCALE
  5
56
102
{ACAD_REACTORS
330
47
102
}
330
47
100
AcDbScale
 70
     0
300
8:1
140
8.0
141
1.0
290
     0
  0
SCALE
  5
57
102
{ACAD_REACTORS
330
47
102
}
330
47
100
AcDbScale
 70
     0
300
10:1
140
10.0
141
1.0
290
     0
  0
SCALE
  5
58
102
{ACAD_REACTORS
330
47
102
}
330
47
100
AcDbScale
 70
     0
300
100:1
140
100.0
141
1.0
290
     0
  0
ENDSEC
  0
EOF
