  0
SECTION
  2
HEADER
  9
$ACADVER
  1
AC1015
  9
$ACADMAINTVER
 70
     6
  9
$DWGCODEPAGE
  3
ANSI_936
  9
$INSBASE
 10
0.0
 20
0.0
 30
0.0
  9
$EXTMIN
 10
0.0
 20
0.0
 30
0.0
  9
$EXTMAX
 10
297.0
 20
210.0
 30
0.0
  9
$LIMMIN
 10
0.0
 20
0.0
  9
$LIMMAX
 10
297.0
 20
210.0
  9
$ORTHOMODE
 70
     0
  9
$REGENMODE
 70
     1
  9
$FILLMODE
 70
     1
  9
$QTEXTMODE
 70
     0
  9
$MIRRTEXT
 70
     1
  9
$LTSCALE
 40
1.0
  9
$ATTMODE
 70
     1
  9
$TEXTSIZE
 40
3.5
  9
$TRACEWID
 40
1.0
  9
$TEXTSTYLE
  7
Standard
  9
$CLAYER
  8
0
  9
$CELTYPE
  6
ByLayer
  9
$CECOLOR
 62
   256
  9
$CELTSCALE
 40
1.0
  9
$DISPSILH
 70
     0
  9
$DIMSCALE
 40
1.0
  9
$DIMASZ
 40
4.08
  9
$DIMEXO
 40
0.0
  9
$DIMDLI
 40
3.75
  9
$DIMRND
 40
0.0
  9
$DIMDLE
 40
0.0
  9
$DIMEXE
 40
2.0
  9
$DIMTP
 40
0.0
  9
$DIMTM
 40
0.0
  9
$DIMTXT
 40
3.5
  9
$DIMCEN
 40
2.5
  9
$DIMTSZ
 40
0.0
  9
$DIMTOL
 70
     0
  9
$DIMLIM
 70
     0
  9
$DIMTIH
 70
     1
  9
$DIMTOH
 70
     1
  9
$DIMSE1
 70
     0
  9
$DIMSE2
 70
     0
  9
$DIMTAD
 70
     1
  9
$DIMZIN
 70
     0
  9
$DIMBLK
  1

  9
$DIMASO
 70
     1
  9
$DIMSHO
 70
     1
  9
$DIMPOST
  1

  9
$DIMAPOST
  1

  9
$DIMALT
 70
     0
  9
$DIMALTD
 70
     3
  9
$DIMALTF
 40
0.0393700787
  9
$DIMLFAC
 40
2.0
  9
$DIMTOFL
 70
     1
  9
$DIMTVP
 40
0.0
  9
$DIMTIX
 70
     0
  9
$DIMSOXD
 70
     0
  9
$DIMSAH
 70
     0
  9
$DIMBLK1
  1

  9
$DIMBLK2
  1

  9
$DIMSTYLE
  2
ISO-25
  9
$DIMCLRD
 70
     0
  9
$DIMCLRE
 70
     0
  9
$DIMCLRT
 70
     0
  9
$DIMTFAC
 40
1.0
  9
$DIMGAP
 40
1.524
  9
$DIMJUST
 70
     0
  9
$DIMSD1
 70
     0
  9
$DIMSD2
 70
     0
  9
$DIMTOLJ
 70
     0
  9
$DIMTZIN
 70
     0
  9
$DIMALTZ
 70
     0
  9
$DIMALTTZ
 70
     0
  9
$DIMUPT
 70
     0
  9
$DIMDEC
 70
     2
  9
$DIMTDEC
 70
     2
  9
$DIMALTU
 70
     2
  9
$DIMALTTD
 70
     3
  9
$DIMTXSTY
  7
Standard
  9
$DIMAUNIT
 70
     0
  9
$DIMADEC
 70
     2
  9
$DIMALTRND
 40
0.0
  9
$DIMAZIN
 70
     0
  9
$DIMDSEP
 70
    44
  9
$DIMATFIT
 70
     3
  9
$DIMFRAC
 70
     0
  9
$DIMLDRBLK
  1

  9
$DIMLUNIT
 70
     2
  9
$DIMLWD
 70
    -2
  9
$DIMLWE
 70
    -2
  9
$DIMTMOVE
 70
     0
  9
$LUNITS
 70
     2
  9
$LUPREC
 70
     2
  9
$SKETCHINC
 40
1.0
  9
$FILLETRAD
 40
0.0
  9
$AUNITS
 70
     0
  9
$AUPREC
 70
     2
  9
$MENU
  1
.
  9
$ELEVATION
 40
0.0
  9
$PELEVATION
 40
0.0
  9
$THICKNESS
 40
0.0
  9
$LIMCHECK
 70
     0
  9
$CHAMFERA
 40
0.0
  9
$CHAMFERB
 40
0.0
  9
$CHAMFERC
 40
0.0
  9
$CHAMFERD
 40
0.0
  9
$SKPOLY
 70
     0
  9
$TDCREATE
 40
2461215.305000487
  9
$TDUCREATE
 40
2461214.971667153
  9
$TDUPDATE
 40
2461215.305000776
  9
$TDUUPDATE
 40
2461214.971667442
  9
$TDINDWG
 40
0.0000000116
  9
$TDUSRTIMER
 40
0.0000000116
  9
$USRTIMER
 70
     1
  9
$ANGBASE
 50
0.0
  9
$ANGDIR
 70
     0
  9
$PDMODE
 70
     0
  9
$PDSIZE
 40
-1.0
  9
$PLINEWID
 40
0.0
  9
$SPLFRAME
 70
     0
  9
$SPLINETYPE
 70
     6
  9
$SPLINESEGS
 70
     8
  9
$HANDSEED
  5
16C
  9
$SURFTAB1
 70
     6
  9
$SURFTAB2
 70
     6
  9
$SURFTYPE
 70
     6
  9
$SURFU
 70
     6
  9
$SURFV
 70
     6
  9
$UCSBASE
  2

  9
$UCSNAME
  2

  9
$UCSORG
 10
0.0
 20
0.0
 30
0.0
  9
$UCSXDIR
 10
1.0
 20
0.0
 30
0.0
  9
$UCSYDIR
 10
0.0
 20
1.0
 30
0.0
  9
$UCSORTHOREF
  2

  9
$UCSORTHOVIEW
 70
     0
  9
$UCSORGTOP
 10
0.0
 20
0.0
 30
0.0
  9
$UCSORGBOTTOM
 10
0.0
 20
0.0
 30
0.0
  9
$UCSORGLEFT
 10
0.0
 20
0.0
 30
0.0
  9
$UCSORGRIGHT
 10
0.0
 20
0.0
 30
0.0
  9
$UCSORGFRONT
 10
0.0
 20
0.0
 30
0.0
  9
$UCSORGBACK
 10
0.0
 20
0.0
 30
0.0
  9
$PUCSBASE
  2

  9
$PUCSNAME
  2

  9
$PUCSORG
 10
0.0
 20
0.0
 30
0.0
  9
$PUCSXDIR
 10
1.0
 20
0.0
 30
0.0
  9
$PUCSYDIR
 10
0.0
 20
1.0
 30
0.0
  9
$PUCSORTHOREF
  2

  9
$PUCSORTHOVIEW
 70
     0
  9
$PUCSORGTOP
 10
0.0
 20
0.0
 30
0.0
  9
$PUCSORGBOTTOM
 10
0.0
 20
0.0
 30
0.0
  9
$PUCSORGLEFT
 10
0.0
 20
0.0
 30
0.0
  9
$PUCSORGRIGHT
 10
0.0
 20
0.0
 30
0.0
  9
$PUCSORGFRONT
 10
0.0
 20
0.0
 30
0.0
  9
$PUCSORGBACK
 10
0.0
 20
0.0
 30
0.0
  9
$USERI1
 70
     0
  9
$USERI2
 70
     0
  9
$USERI3
 70
     0
  9
$USERI4
 70
     0
  9
$USERI5
 70
     0
  9
$USERR1
 40
0.0
  9
$USERR2
 40
0.0
  9
$USERR3
 40
0.0
  9
$USERR4
 40
0.0
  9
$USERR5
 40
0.0
  9
$WORLDVIEW
 70
     1
  9
$SHADEDGE
 70
     3
  9
$SHADEDIF
 70
    70
  9
$TILEMODE
 70
     1
  9
$MAXACTVP
 70
    64
  9
$PINSBASE
 10
0.0
 20
0.0
 30
0.0
  9
$PLIMCHECK
 70
     0
  9
$PEXTMIN
 10
1.0000000000E+20
 20
1.0000000000E+20
 30
1.0000000000E+20
  9
$PEXTMAX
 10
-1.0000000000E+20
 20
-1.0000000000E+20
 30
-1.0000000000E+20
  9
$PLIMMIN
 10
0.0
 20
0.0
  9
$PLIMMAX
 10
420.0
 20
297.0
  9
$UNITMODE
 70
     0
  9
$VISRETAIN
 70
     1
  9
$PLINEGEN
 70
     0
  9
$PSLTSCALE
 70
     1
  9
$TREEDEPTH
 70
  3020
  9
$CMLSTYLE
  2
Standard
  9
$CMLJUST
 70
     0
  9
$CMLSCALE
 40
20.0
  9
$PROXYGRAPHICS
 70
     1
  9
$MEASUREMENT
 70
     1
  9
$CELWEIGHT
370
    -1
  9
$ENDCAPS
280
     0
  9
$JOINSTYLE
280
     0
  9
$LWDISPLAY
290
     1
  9
$INSUNITS
 70
     4
  9
$HYPERLINKBASE
  1

  9
$STYLESHEET
  1

  9
$XEDIT
290
     1
  9
$CEPSNTYPE
380
     0
  9
$PSTYLEMODE
290
     1
  9
$FINGERPRINTGUID
  2
{ab2de34b-1bde-48f7-a4b7-8b8a415443b1}
  9
$VERSIONGUID
  2
{FAEB1C32-E019-11D5-929B-00C0DF256EC4}
  9
$EXTNAMES
290
     1
  9
$PSVPSCALE
 40
0.0
  9
$OLESTARTUP
290
     0
  0
ENDSEC
  0
SECTION
  2
CLASSES
  0
CLASS
  1
ACDBDICTIONARYWDFLT
  2
AcDbDictionaryWithDefault
  3
ObjectDBX Classes
 90
        0
280
     0
281
     0
  0
CLASS
  1
VISUALSTYLE
  2
AcDbVisualStyle
  3
ObjectDBX Classes
 90
     4095
280
     0
281
     0
  0
CLASS
  1
MATERIAL
  2
AcDbMaterial
  3
ObjectDBX Classes
 90
     1153
280
     0
281
     0
  0
CLASS
  1
SCALE
  2
AcDbScale
  3
ObjectDBX Classes
 90
     1153
280
     0
281
     0
  0
CLASS
  1
TABLESTYLE
  2
AcDbTableStyle
  3
ObjectDBX Classes
 90
     4095
280
     0
281
     0
  0
CLASS
  1
MLEADERSTYLE
  2
AcDbMLeaderStyle
  3
ACDB_MLEADERSTYLE_CLASS
 90
     4095
280
     0
281
     0
  0
CLASS
  1
SUN
  2
AcDbSun
  3
SCENEOE
 90
     1153
280
     0
281
     0
  0
CLASS
  1
ACDBPLACEHOLDER
  2
AcDbPlaceHolder
  3
ObjectDBX Classes
 90
        0
280
     0
281
     0
  0
CLASS
  1
LAYOUT
  2
AcDbLayout
  3
ObjectDBX Classes
 90
        0
280
     0
281
     0
  0
ENDSEC
  0
SECTION
  2
TABLES
  0
TABLE
  2
VPORT
  5
8
330
0
100
AcDbSymbolTable
 70
     1
  0
VPORT
  5
29
330
8
100
AcDbSymbolTableRecord
100
AcDbViewportTableRecord
  2
*Active
 70
     0
 10
0.0
 20
0.0
 11
1.0
 21
1.0
 12
148.5
 22
105.0
 13
0.0
 23
0.0
 14
10.0
 24
10.0
 15
10.0
 25
10.0
 16
0.0
 26
0.0
 36
1.0
 17
0.0
 27
0.0
 37
0.0
 40
210.0
 41
1.4142857143
 42
50.0
 43
0.0
 44
0.0
 50
0.0
 51
0.0
 71
     0
 72
  2000
 73
     1
 74
     3
 75
     0
 76
     0
 77
     0
 78
     0
281
     0
 65
     1
110
0.0
120
0.0
130
0.0
111
1.0
121
0.0
131
0.0
112
0.0
122
1.0
132
0.0
 79
     0
146
0.0
  0
ENDTAB
  0
TABLE
  2
LTYPE
  5
5
330
0
100
AcDbSymbolTable
 70
     6
  0
LTYPE
  5
14
330
5
100
AcDbSymbolTableRecord
100
AcDbLinetypeTableRecord
  2
ByBlock
 70
     0
  3

 72
    65
 73
     0
 40
0.0
  0
LTYPE
  5
15
330
5
100
AcDbSymbolTableRecord
100
AcDbLinetypeTableRecord
  2
ByLayer
 70
     0
  3

 72
    65
 73
     0
 40
0.0
  0
LTYPE
  5
16
330
5
100
AcDbSymbolTableRecord
100
AcDbLinetypeTableRecord
  2
Continuous
 70
     0
  3
Solid line
 72
    65
 73
     0
 40
0.0
  0
LTYPE
  5
5E
330
5
100
AcDbSymbolTableRecord
100
AcDbLinetypeTableRecord
  2
HIDDEN
 70
     0
  3
Hidden __ __ __ __ __ __ __ __ __ __ __ __ __ __
 72
    65
 73
     2
 40
1.905
 49
1.27
 74
     0
 49
-0.635
 74
     0
  0
LTYPE
  5
5F
330
5
100
AcDbSymbolTableRecord
100
AcDbLinetypeTableRecord
  2
PHANTOM
 70
     0
  3
Phantom ______  __  __  ______  __  __  ______
 72
    65
 73
     6
 40
12.7
 49
6.35
 74
     0
 49
-1.27
 74
     0
 49
1.27
 74
     0
 49
-1.27
 74
     0
 49
1.27
 74
     0
 49
-1.27
 74
     0
  0
LTYPE
  5
60
330
5
100
AcDbSymbolTableRecord
100
AcDbLinetypeTableRecord
  2
CENTER
 70
     0
  3
Center ____ _ ____ _ ____ _ ____ _ ____ _ ____
 72
    65
 73
     4
 40
10.16
 49
6.35
 74
     0
 49
-1.27
 74
     0
 49
1.27
 74
     0
 49
-1.27
 74
     0
  0
LTYPE
  5
61
330
5
100
AcDbSymbolTableRecord
100
AcDbLinetypeTableRecord
  2
CENTERX2
 70
     0
  3
Center (2x) ________  __  ________  __  _____
 72
    65
 73
     4
 40
20.32
 49
12.7
 74
     0
 49
-2.54
 74
     0
 49
2.54
 74
     0
 49
-2.54
 74
     0
  0
LTYPE
  5
62
330
5
100
AcDbSymbolTableRecord
100
AcDbLinetypeTableRecord
  2
DOT2
 70
     0
  3
Dot (.5x) ........................................
 72
    65
 73
     2
 40
0.635
 49
0.0
 74
     0
 49
-0.635
 74
     0
  0
ENDTAB
  0
TABLE
  2
LAYER
  5
2
330
0
100
AcDbSymbolTable
 70
    14
  0
LAYER
  5
10
330
2
100
AcDbSymbolTableRecord
100
AcDbLayerTableRecord
  2
0
 70
     0
 62
     7
  6
Continuous
370
    -3
390
F
  0
LAYER
  5
63
330
2
100
AcDbSymbolTableRecord
100
AcDbLayerTableRecord
  2
SLD-0
 70
     0
 62
     7
  6
Continuous
370
    -3
390
F
  0
LAYER
  5
64
330
2
100
AcDbSymbolTableRecord
100
AcDbLayerTableRecord
  2
5
 70
     0
 62
     7
  6
Continuous
370
    -3
390
F
  0
LAYER
  5
65
330
2
100
AcDbSymbolTableRecord
100
AcDbLayerTableRecord
  2
9
 70
     0
 62
     7
  6
Continuous
370
    -3
390
F
  0
LAYER
  5
66
330
2
100
AcDbSymbolTableRecord
100
AcDbLayerTableRecord
  2
10
 70
     0
 62
     7
  6
Continuous
370
    -3
390
F
  0
LAYER
  5
67
330
2
100
AcDbSymbolTableRecord
100
AcDbLayerTableRecord
  2
轮廓实线层
 70
     0
 62
     7
  6
Continuous
370
    50
390
F
  0
LAYER
  5
68
330
2
100
AcDbSymbolTableRecord
100
AcDbLayerTableRecord
  2
细线层
 70
     0
 62
     4
  6
Continuous
370
    25
390
F
  0
LAYER
  5
69
330
2
100
AcDbSymbolTableRecord
100
AcDbLayerTableRecord
  2
中心线层
 70
     0
 62
     1
  6
CENTERX2
370
    25
390
F
  0
LAYER
  5
6A
330
2
100
AcDbSymbolTableRecord
100
AcDbLayerTableRecord
  2
虚线层
 70
     0
 62
     6
  6
HIDDEN
370
    25
390
F
  0
LAYER
  5
6B
330
2
100
AcDbSymbolTableRecord
100
AcDbLayerTableRecord
  2
剖面线层
 70
     0
 62
     2
  6
Continuous
370
    25
390
F
  0
LAYER
  5
6C
330
2
100
AcDbSymbolTableRecord
100
AcDbLayerTableRecord
  2
文字层
 70
     0
 62
     3
  6
Continuous
370
    25
390
F
  0
LAYER
  5
6D
330
2
100
AcDbSymbolTableRecord
100
AcDbLayerTableRecord
  2
标注层
 70
     0
 62
     4
  6
Continuous
370
    25
390
F
  0
LAYER
  5
6E
330
2
100
AcDbSymbolTableRecord
100
AcDbLayerTableRecord
  2
符号标注层
 70
     0
 62
    31
  6
Continuous
370
    25
390
F
  0
LAYER
  5
6F
330
2
100
AcDbSymbolTableRecord
100
AcDbLayerTableRecord
  2
双点划线层
 70
     0
 62
     6
  6
PHANTOM
370
    25
390
F
  0
ENDTAB
  0
TABLE
  2
STYLE
  5
3
330
0
100
AcDbSymbolTable
 70
     1
  0
STYLE
  5
11
330
3
100
AcDbSymbolTableRecord
100
AcDbTextStyleTableRecord
  2
Standard
 70
     0
 40
0.0
 41
1.0
 50
0.0
 71
     0
 42
3.5
  3
txt
  4

  0
ENDTAB
  0
TABLE
  2
VIEW
  5
6
330
0
100
AcDbSymbolTable
 70
     0
  0
ENDTAB
  0
TABLE
  2
UCS
  5
7
330
0
100
AcDbSymbolTable
 70
     0
  0
ENDTAB
  0
TABLE
  2
APPID
  5
9
330
0
100
AcDbSymbolTable
 70
     1
  0
APPID
  5
12
330
9
100
AcDbSymbolTableRecord
100
AcDbRegAppTableRecord
  2
ACAD
 70
     0
  0
ENDTAB
  0
TABLE
  2
DIMSTYLE
  5
A
330
0
100
AcDbSymbolTable
 70
     1
100
AcDbDimStyleTable
  0
DIMSTYLE
105
27
330
A
100
AcDbSymbolTableRecord
100
AcDbDimStyleTableRecord
  2
ISO-25
 70
     0
 41
2.5
 42
0.625
 43
3.75
 44
1.25
 73
     0
 74
     0
 77
     1
 78
     8
140
2.5
141
2.5
143
0.0393700787
147
0.625
171
     3
172
     1
178
     0
271
     2
272
     2
274
     3
278
    44
283
     0
284
     8
340
11
  0
ENDTAB
  0
TABLE
  2
BLOCK_RECORD
  5
1
330
0
100
AcDbSymbolTable
 70
     5
  0
BLOCK_RECORD
  5
1F
330
1
100
AcDbSymbolTableRecord
100
AcDbBlockTableRecord
  2
*Model_Space
340
22
  0
BLOCK_RECORD
  5
1B
330
1
100
AcDbSymbolTableRecord
100
AcDbBlockTableRecord
  2
*Paper_Space
340
1E
  0
BLOCK_RECORD
  5
23
330
1
100
AcDbSymbolTableRecord
100
AcDbBlockTableRecord
  2
*Paper_Space0
340
26
  0
BLOCK_RECORD
  5
90
330
1
100
AcDbSymbolTableRecord
100
AcDbBlockTableRecord
  2
SW_CENTERMARKSYMBOL_0
340
0
102
{BLKREFS
331
9B
102
}
  0
BLOCK_RECORD
  5
9C
330
1
100
AcDbSymbolTableRecord
100
AcDbBlockTableRecord
  2
SW_CENTERMARKSYMBOL_1
340
0
102
{BLKREFS
331
A7
102
}
  0
BLOCK_RECORD
  5
A8
330
1
100
AcDbSymbolTableRecord
100
AcDbBlockTableRecord
  2
SW_CENTERMARKSYMBOL_2
340
0
102
{BLKREFS
331
B3
102
}
  0
BLOCK_RECORD
  5
B4
330
1
100
AcDbSymbolTableRecord
100
AcDbBlockTableRecord
  2
SW_CENTERMARKSYMBOL_3
340
0
102
{BLKREFS
331
BF
102
}
  0
ENDTAB
  0
ENDSEC
  0
SECTION
  2
BLOCKS
  0
BLOCK
  5
20
330
1F
100
AcDbEntity
  8
0
100
AcDbBlockBegin
  2
*Model_Space
 70
     0
 10
0.0
 20
0.0
 30
0.0
  3
*Model_Space
  1

  0
ENDBLK
  5
21
330
1F
100
AcDbEntity
  8
0
100
AcDbBlockEnd
  0
BLOCK
  5
1C
330
1B
100
AcDbEntity
 67
     1
  8
0
100
AcDbBlockBegin
  2
*Paper_Space
 70
     0
 10
0.0
 20
0.0
 30
0.0
  3
*Paper_Space
  1

  0
ENDBLK
  5
1D
330
1B
100
AcDbEntity
 67
     1
  8
0
100
AcDbBlockEnd
  0
BLOCK
  5
24
330
23
100
AcDbEntity
  8
0
100
AcDbBlockBegin
  2
*Paper_Space0
 70
     0
 10
0.0
 20
0.0
 30
0.0
  3
*Paper_Space0
  1

  0
ENDBLK
  5
25
330
23
100
AcDbEntity
  8
0
100
AcDbBlockEnd
  0
BLOCK
  5
91
330
90
100
AcDbEntity
  8
0
100
AcDbBlockBegin
  2
SW_CENTERMARKSYMBOL_0
 70
     0
 10
0.0
 20
0.0
 30
0.0
  3
SW_CENTERMARKSYMBOL_0
  1

  0
LINE
  5
93
330
90
100
AcDbEntity
  8
10
 62
     0
100
AcDbLine
 10
0.0
 20
0.0
 30
0.0
 11
0.0
 21
2.5
 31
0.0
  0
LINE
  5
94
330
90
100
AcDbEntity
  8
10
 62
     0
100
AcDbLine
 10
0.0
 20
0.0
 30
0.0
 11
-2.5
 21
0.0
 31
0.0
  0
LINE
  5
95
330
90
100
AcDbEntity
  8
10
 62
     0
100
AcDbLine
 10
0.0
 20
0.0
 30
0.0
 11
0.0
 21
-2.5
 31
0.0
  0
LINE
  5
96
330
90
100
AcDbEntity
  8
10
 62
     0
100
AcDbLine
 10
0.0
 20
0.0
 30
0.0
 11
2.5
 21
0.0
 31
0.0
  0
LINE
  5
97
330
90
100
AcDbEntity
  8
10
 62
     0
100
AcDbLine
 10
0.0
 20
5.0
 30
0.0
 11
0.0
 21
5.9862385321
 31
0.0
  0
LINE
  5
98
330
90
100
AcDbEntity
  8
10
 62
     0
100
AcDbLine
 10
-5.0
 20
0.0
 30
0.0
 11
-5.9862385321
 21
0.0
 31
0.0
  0
LINE
  5
99
330
90
100
AcDbEntity
  8
10
 62
     0
100
AcDbLine
 10
0.0
 20
-5.0
 30
0.0
 11
0.0
 21
-5.9862385321
 31
0.0
  0
LINE
  5
9A
330
90
100
AcDbEntity
  8
10
 62
     0
100
AcDbLine
 10
5.0
 20
0.0
 30
0.0
 11
5.9862385321
 21
0.0
 31
0.0
  0
ENDBLK
  5
92
330
90
100
AcDbEntity
  8
0
100
AcDbBlockEnd
  0
BLOCK
  5
9D
330
9C
100
AcDbEntity
  8
0
100
AcDbBlockBegin
  2
SW_CENTERMARKSYMBOL_1
 70
     0
 10
0.0
 20
0.0
 30
0.0
  3
SW_CENTERMARKSYMBOL_1
  1

  0
LINE
  5
9F
330
9C
100
AcDbEntity
  8
10
 62
     0
100
AcDbLine
 10
0.0
 20
0.0
 30
0.0
 11
0.0
 21
2.5
 31
0.0
  0
LINE
  5
A0
330
9C
100
AcDbEntity
  8
10
 62
     0
100
AcDbLine
 10
0.0
 20
0.0
 30
0.0
 11
-2.5
 21
0.0
 31
0.0
  0
LINE
  5
A1
330
9C
100
AcDbEntity
  8
10
 62
     0
100
AcDbLine
 10
0.0
 20
0.0
 30
0.0
 11
0.0
 21
-2.5
 31
0.0
  0
LINE
  5
A2
330
9C
100
AcDbEntity
  8
10
 62
     0
100
AcDbLine
 10
0.0
 20
0.0
 30
0.0
 11
2.5
 21
0.0
 31
0.0
  0
LINE
  5
A3
330
9C
100
AcDbEntity
  8
10
 62
     0
100
AcDbLine
 10
0.0
 20
5.0
 30
0.0
 11
0.0
 21
5.9862385321
 31
0.0
  0
LINE
  5
A4
330
9C
100
AcDbEntity
  8
10
 62
     0
100
AcDbLine
 10
-5.0
 20
0.0
 30
0.0
 11
-5.9862385321
 21
0.0
 31
0.0
  0
LINE
  5
A5
330
9C
100
AcDbEntity
  8
10
 62
     0
100
AcDbLine
 10
0.0
 20
-5.0
 30
0.0
 11
0.0
 21
-5.9862385321
 31
0.0
  0
LINE
  5
A6
330
9C
100
AcDbEntity
  8
10
 62
     0
100
AcDbLine
 10
5.0
 20
0.0
 30
0.0
 11
5.9862385321
 21
0.0
 31
0.0
  0
ENDBLK
  5
9E
330
9C
100
AcDbEntity
  8
0
100
AcDbBlockEnd
  0
BLOCK
  5
A9
330
A8
100
AcDbEntity
  8
0
100
AcDbBlockBegin
  2
SW_CENTERMARKSYMBOL_2
 70
     0
 10
0.0
 20
0.0
 30
0.0
  3
SW_CENTERMARKSYMBOL_2
  1

  0
LINE
  5
AB
330
A8
100
AcDbEntity
  8
10
 62
     0
100
AcDbLine
 10
0.0
 20
0.0
 30
0.0
 11
0.0
 21
2.5
 31
0.0
  0
LINE
  5
AC
330
A8
100
AcDbEntity
  8
10
 62
     0
100
AcDbLine
 10
0.0
 20
0.0
 30
0.0
 11
-2.5
 21
0.0
 31
0.0
  0
LINE
  5
AD
330
A8
100
AcDbEntity
  8
10
 62
     0
100
AcDbLine
 10
0.0
 20
0.0
 30
0.0
 11
0.0
 21
-2.5
 31
0.0
  0
LINE
  5
AE
330
A8
100
AcDbEntity
  8
10
 62
     0
100
AcDbLine
 10
0.0
 20
0.0
 30
0.0
 11
2.5
 21
0.0
 31
0.0
  0
LINE
  5
AF
330
A8
100
AcDbEntity
  8
10
 62
     0
100
AcDbLine
 10
0.0
 20
5.0
 30
0.0
 11
0.0
 21
5.9862385321
 31
0.0
  0
LINE
  5
B0
330
A8
100
AcDbEntity
  8
10
 62
     0
100
AcDbLine
 10
-5.0
 20
0.0
 30
0.0
 11
-5.9862385321
 21
0.0
 31
0.0
  0
LINE
  5
B1
330
A8
100
AcDbEntity
  8
10
 62
     0
100
AcDbLine
 10
0.0
 20
-5.0
 30
0.0
 11
0.0
 21
-5.9862385321
 31
0.0
  0
LINE
  5
B2
330
A8
100
AcDbEntity
  8
10
 62
     0
100
AcDbLine
 10
5.0
 20
0.0
 30
0.0
 11
5.9862385321
 21
0.0
 31
0.0
  0
ENDBLK
  5
AA
330
A8
100
AcDbEntity
  8
0
100
AcDbBlockEnd
  0
BLOCK
  5
B5
330
B4
100
AcDbEntity
  8
0
100
AcDbBlockBegin
  2
SW_CENTERMARKSYMBOL_3
 70
     0
 10
0.0
 20
0.0
 30
0.0
  3
SW_CENTERMARKSYMBOL_3
  1

  0
LINE
  5
B7
330
B4
100
AcDbEntity
  8
10
 62
     0
100
AcDbLine
 10
0.0
 20
0.0
 30
0.0
 11
0.0
 21
2.5
 31
0.0
  0
LINE
  5
B8
330
B4
100
AcDbEntity
  8
10
 62
     0
100
AcDbLine
 10
0.0
 20
0.0
 30
0.0
 11
-2.5
 21
0.0
 31
0.0
  0
LINE
  5
B9
330
B4
100
AcDbEntity
  8
10
 62
     0
100
AcDbLine
 10
0.0
 20
0.0
 30
0.0
 11
0.0
 21
-2.5
 31
0.0
  0
LINE
  5
BA
330
B4
100
AcDbEntity
  8
10
 62
     0
100
AcDbLine
 10
0.0
 20
0.0
 30
0.0
 11
2.5
 21
0.0
 31
0.0
  0
LINE
  5
BB
330
B4
100
AcDbEntity
  8
10
 62
     0
100
AcDbLine
 10
0.0
 20
5.0
 30
0.0
 11
0.0
 21
5.9862385321
 31
0.0
  0
LINE
  5
BC
330
B4
100
AcDbEntity
  8
10
 62
     0
100
AcDbLine
 10
-5.0
 20
0.0
 30
0.0
 11
-5.9862385321
 21
0.0
 31
0.0
  0
LINE
  5
BD
330
B4
100
AcDbEntity
  8
10
 62
     0
100
AcDbLine
 10
0.0
 20
-5.0
 30
0.0
 11
0.0
 21
-5.9862385321
 31
0.0
  0
LINE
  5
BE
330
B4
100
AcDbEntity
  8
10
 62
     0
100
AcDbLine
 10
5.0
 20
0.0
 30
0.0
 11
5.9862385321
 21
0.0
 31
0.0
  0
ENDBLK
  5
B6
330
B4
100
AcDbEntity
  8
0
100
AcDbBlockEnd
  0
ENDSEC
  0
SECTION
  2
ENTITIES
  0
CIRCLE
  5
70
330
1F
100
AcDbEntity
  8
0
  6
Continuous
 62
     7
370
    25
100
AcDbCircle
 10
116.0275229358
 20
27.457966765
 30
0.0
 40
2.11009174311927
  0
CIRCLE
  5
71
330
1F
100
AcDbEntity
  8
0
  6
Continuous
 62
     7
370
    25
100
AcDbCircle
 10
49.9724770642
 20
92.3211009174
 30
0.0
 40
2.11009174311927
  0
CIRCLE
  5
72
330
1F
100
AcDbEntity
  8
0
  6
Continuous
 62
     7
370
    25
100
AcDbCircle
 10
116.0275229358
 20
27.457966765
 30
0.0
 40
3.486238532110093
  0
CIRCLE
  5
73
330
1F
100
AcDbEntity
  8
0
  6
Continuous
 62
     7
370
    25
100
AcDbCircle
 10
49.9724770642
 20
21.6788990826
 30
0.0
 40
2.11009174311927
  0
CIRCLE
  5
74
330
1F
100
AcDbEntity
  8
0
  6
Continuous
 62
     7
370
    25
100
AcDbCircle
 10
49.9724770642
 20
21.6788990826
 30
0.0
 40
3.486238532110093
  0
CIRCLE
  5
75
330
1F
100
AcDbEntity
  8
0
  6
Continuous
 62
     7
370
    25
100
AcDbCircle
 10
115.7761635437
 20
86.5640243323
 30
0.0
 40
2.11009174311927
  0
CIRCLE
  5
76
330
1F
100
AcDbEntity
  8
0
  6
Continuous
 62
     7
370
    25
100
AcDbCircle
 10
115.7761635437
 20
86.5640243323
 30
0.0
 40
3.486238532110107
  0
CIRCLE
  5
77
330
1F
100
AcDbEntity
  8
0
  6
Continuous
 62
     7
370
    25
100
AcDbCircle
 10
49.9724770642
 20
92.3211009174
 30
0.0
 40
3.486238532110093
  0
ARC
  5
78
330
1F
100
AcDbEntity
  8
0
  6
Continuous
 62
     7
370
    25
100
AcDbCircle
 10
88.6002296965
 20
154.8900064627
 30
0.0
 40
65.13761467893065
100
AcDbArc
 50
238.3103360327
 51
291.6896639673
  0
ARC
  5
79
330
1F
100
AcDbEntity
  8
0
  6
Continuous
 62
     7
370
    25
100
AcDbCircle
 10
-46.6647468771
 20
57.0
 30
0.0
 40
101.8348623853213
100
AcDbArc
 50
344.5853200593
 51
15.4146799407
  0
ARC
  5
7A
330
1F
100
AcDbEntity
  8
0
  6
Continuous
 62
     7
370
    25
100
AcDbCircle
 10
49.9724770642
 20
92.3211009174
 30
0.0
 40
8.394495412844046
100
AcDbArc
 50
280.5318750529
 51
338.7885637736
  0
ARC
  5
7B
330
1F
100
AcDbEntity
  8
0
  6
Continuous
 62
     7
370
    25
100
AcDbCircle
 10
88.6002296965
 20
154.8900064627
 30
0.0
 40
72.47706422021486
100
AcDbArc
 50
244.8500190631
 51
285.1499809369
  0
ARC
  5
7C
330
1F
100
AcDbEntity
  8
0
  6
Continuous
 62
     7
370
    25
100
AcDbCircle
 10
49.9724770642
 20
21.6788990826
 30
0.0
 40
8.39449541284404
100
AcDbArc
 50
159.9225396736
 51
301.7997431293
  0
ARC
  5
7D
330
1F
100
AcDbEntity
  8
0
  6
Continuous
 62
     7
370
    25
100
AcDbCircle
 10
88.7203684544
 20
-40.815677701
 30
0.0
 40
65.13761467889984
100
AcDbArc
 50
68.2002568707
 51
121.7997431293
  0
ARC
  5
7E
330
1F
100
AcDbEntity
  8
0
  6
Continuous
 62
     7
370
    25
100
AcDbCircle
 10
115.7761635437
 20
86.5640243323
 30
0.0
 40
8.394495412843991
100
AcDbArc
 50
191.2114362264
 51
257.8104062317
  0
ARC
  5
7F
330
1F
100
AcDbEntity
  8
0
  6
Continuous
 62
     7
370
    25
100
AcDbCircle
 10
186.2283922149
 20
57.3100721463
 30
0.0
 40
75.22935779816625
100
AcDbArc
 50
163.7520944246
 51
196.7352243404
  0
ARC
  5
80
330
1F
100
AcDbEntity
  8
0
  6
Continuous
 62
     7
370
    25
100
AcDbCircle
 10
115.7761635437
 20
86.5640243323
 30
0.0
 40
8.394495412844064
100
AcDbArc
 50
337.4502581528
 51
111.6896639673
  0
ARC
  5
81
330
1F
100
AcDbEntity
  8
0
  6
Continuous
 62
     7
370
    25
100
AcDbCircle
 10
-46.6647468771
 20
57.0
 30
0.0
 40
94.49541284403685
100
AcDbArc
 50
339.9225396736
 51
20.0774603264
  0
ARC
  5
82
330
1F
100
AcDbEntity
  8
0
  6
Continuous
 62
     7
370
    25
100
AcDbCircle
 10
88.7203684544
 20
-40.815677701
 30
0.0
 40
72.47706422018415
100
AcDbArc
 50
74.7399399011
 51
115.2600600989
  0
ARC
  5
83
330
1F
100
AcDbEntity
  8
0
  6
Continuous
 62
     7
370
    25
100
AcDbCircle
 10
116.0275229358
 20
27.457966765
 30
0.0
 40
8.394495412844043
100
AcDbArc
 50
248.2002568707
 51
23.0370606122
  0
ARC
  5
84
330
1F
100
AcDbEntity
  8
0
  6
Continuous
 62
     7
370
    25
100
AcDbCircle
 10
49.9724770642
 20
21.6788990826
 30
0.0
 40
8.394495412844046
100
AcDbArc
 50
21.3215153884
 51
79.4681249471
  0
ARC
  5
85
330
1F
100
AcDbEntity
  8
0
  6
Continuous
 62
     7
370
    25
100
AcDbCircle
 10
186.2283922149
 20
57.3100721463
 30
0.0
 40
67.88990825688185
100
AcDbArc
 50
157.4502581528
 51
203.0370606122
  0
ARC
  5
86
330
1F
100
AcDbEntity
  8
0
  6
Continuous
 62
     7
370
    25
100
AcDbCircle
 10
116.0275229358
 20
27.457966765
 30
0.0
 40
8.39449541284403
100
AcDbArc
 50
102.6769125333
 51
168.6784846116
  0
ARC
  5
87
330
1F
100
AcDbEntity
  8
0
  6
Continuous
 62
     7
370
    25
100
AcDbCircle
 10
49.9724770642
 20
92.3211009174
 30
0.0
 40
8.394495412844027
100
AcDbArc
 50
58.3103360327
 51
200.0774603264
  0
ARC
  5
88
330
1F
100
AcDbEntity
  8
0
  6
Continuous
 62
     7
370
    25
100
AcDbCircle
 10
49.9724770642
 20
92.3211009174
 30
0.0
 40
12.98165137614677
100
AcDbArc
 50
12.5774515771
 51
246.9715275373
  0
ARC
  5
89
330
1F
100
AcDbEntity
  8
0
  6
Continuous
 62
     7
370
    25
100
AcDbCircle
 10
116.0275229358
 20
27.457966765
 30
0.0
 40
12.98165137614679
100
AcDbArc
 50
202.4673724151
 51
68.9180268627
  0
ARC
  5
8A
330
1F
100
AcDbEntity
  8
0
  6
Continuous
 62
     7
370
    25
100
AcDbCircle
 10
115.7761635437
 20
86.5640243323
 30
0.0
 40
12.98165137614682
100
AcDbArc
 50
291.5692919023
 51
157.4225484229
  0
ARC
  5
8B
330
1F
100
AcDbEntity
  8
0
  6
Continuous
 62
     7
370
    25
100
AcDbCircle
 10
49.9724770642
 20
21.6788990826
 30
0.0
 40
12.98165137614678
100
AcDbArc
 50
113.0284724627
 51
347.5326275849
  0
ARC
  5
8C
330
1F
100
AcDbEntity
  8
0
  6
Continuous
 62
     7
370
    25
100
AcDbCircle
 10
115.7761635437
 20
86.5640243323
 30
0.0
 40
12.98165137614682
100
AcDbArc
 50
191.9622476133
 51
256.9938103607
  0
ARC
  5
8D
330
1F
100
AcDbEntity
  8
0
  6
Continuous
 62
     7
370
    25
100
AcDbCircle
 10
49.9724770642
 20
21.6788990826
 30
0.0
 40
12.9816513761468
100
AcDbArc
 50
22.0723267753
 51
78.1984733707
  0
ARC
  5
8E
330
1F
100
AcDbEntity
  8
0
  6
Continuous
 62
     7
370
    25
100
AcDbCircle
 10
49.9724770642
 20
92.3211009174
 30
0.0
 40
12.98165137614681
100
AcDbArc
 50
281.8015266293
 51
338.0377523867
  0
ARC
  5
8F
330
1F
100
AcDbEntity
  8
0
  6
Continuous
 62
     7
370
    25
100
AcDbCircle
 10
116.0275229358
 20
27.457966765
 30
0.0
 40
12.98165137614681
100
AcDbArc
 50
103.4935084043
 51
167.9276732247
  0
INSERT
  5
9B
330
1F
100
AcDbEntity
  8
10
100
AcDbBlockReference
  2
SW_CENTERMARKSYMBOL_0
 10
116.0275229358
 20
27.457966765
 30
0.0
  0
INSERT
  5
A7
330
1F
100
AcDbEntity
  8
10
100
AcDbBlockReference
  2
SW_CENTERMARKSYMBOL_1
 10
49.9724770642
 20
21.6788990826
 30
0.0
  0
INSERT
  5
B3
330
1F
100
AcDbEntity
  8
10
100
AcDbBlockReference
  2
SW_CENTERMARKSYMBOL_2
 10
115.7761635437
 20
86.5640243323
 30
0.0
  0
INSERT
  5
BF
330
1F
100
AcDbEntity
  8
10
100
AcDbBlockReference
  2
SW_CENTERMARKSYMBOL_3
 10
49.9724770642
 20
92.3211009174
 30
0.0
  0
LINE
  5
C0
330
1F
100
AcDbEntity
  8
0
  6
Continuous
 62
     7
370
    25
100
AcDbLine
 10
36.9908256881
 20
208.0
 30
0.0
 11
36.9908256881
 21
202.495412844
 31
0.0
  0
ARC
  5
C1
330
1F
100
AcDbEntity
  8
0
  6
Continuous
 62
     7
370
    25
100
AcDbCircle
 10
38.8256880734
 20
202.495412844
 30
0.0
 40
1.834862385321102
100
AcDbArc
 50
180.0
 51
270.0
  0
LINE
  5
C2
330
1F
100
AcDbEntity
  8
0
  6
Continuous
 62
     7
370
    25
100
AcDbLine
 10
41.5779816514
 20
200.6605504587
 30
0.0
 11
41.5779816514
 21
116.2568807339
 31
0.0
  0
LINE
  5
C3
330
1F
100
AcDbEntity
  8
0
  6
Continuous
 62
     7
370
    25
100
AcDbLine
 10
128.7578149198
 20
202.495412844
 30
0.0
 11
128.7578149198
 21
208.0
 31
0.0
  0
ARC
  5
C4
330
1F
100
AcDbEntity
  8
0
  6
Continuous
 62
     7
370
    25
100
AcDbCircle
 10
126.9229525345
 20
202.495412844
 30
0.0
 40
1.834862385321102
100
AcDbArc
 50
270.0
 51
0.0
  0
LINE
  5
C5
330
1F
100
AcDbEntity
  8
0
  6
Continuous
 62
     7
370
    25
100
AcDbLine
 10
53.4587155963
 20
111.7809322286
 30
0.0
 11
53.4587155963
 21
116.2568807339
 31
0.0
  0
LINE
  5
C6
330
1F
100
AcDbEntity
  8
0
  6
Continuous
 62
     7
370
    25
100
AcDbLine
 10
46.4862385321
 20
116.2568807339
 30
0.0
 11
46.4862385321
 21
111.7809322286
 31
0.0
  0
LINE
  5
C7
330
1F
100
AcDbEntity
  8
0
  6
Continuous
 62
     7
370
    25
100
AcDbLine
 10
46.4862385321
 20
111.7809322286
 30
0.0
 11
47.8623853211
 21
108.0
 31
0.0
  0
LINE
  5
C8
330
1F
100
AcDbEntity
  8
0
  6
Continuous
 62
     7
370
    25
100
AcDbLine
 10
52.0825688073
 20
108.0
 30
0.0
 11
53.4587155963
 21
111.7809322286
 31
0.0
  0
LINE
  5
C9
330
1F
100
AcDbEntity
  8
0
  6
Continuous
 62
     7
370
    25
100
AcDbLine
 10
124.1706589565
 20
116.2568807339
 30
0.0
 11
124.1706589565
 21
200.6605504587
 31
0.0
  0
LINE
  5
CA
330
1F
100
AcDbEntity
  8
0
  6
Continuous
 62
     7
370
    25
100
AcDbLine
 10
119.2624020758
 20
111.7809322286
 30
0.0
 11
119.2624020758
 21
116.2568807339
 31
0.0
  0
LINE
  5
CB
330
1F
100
AcDbEntity
  8
0
  6
Continuous
 62
     7
370
    25
100
AcDbLine
 10
112.2899250116
 20
116.2568807339
 30
0.0
 11
112.2899250116
 21
111.7809322286
 31
0.0
  0
LINE
  5
CC
330
1F
100
AcDbEntity
  8
0
  6
Continuous
 62
     7
370
    25
100
AcDbLine
 10
112.2899250116
 20
111.7809322286
 30
0.0
 11
113.6660718006
 21
108.0
 31
0.0
  0
LINE
  5
CD
330
1F
100
AcDbEntity
  8
0
  6
Continuous
 62
     7
370
    25
100
AcDbLine
 10
117.8862552868
 20
108.0
 30
0.0
 11
119.2624020758
 21
111.7809322286
 31
0.0
  0
ARC
  5
CE
330
1F
100
AcDbEntity
  8
0
  6
Continuous
 62
     7
370
    25
100
AcDbCircle
 10
127.1743119266
 20
202.495412844
 30
0.0
 40
1.834862385321088
100
AcDbArc
 50
270.0
 51
0.0
  0
LINE
  5
CF
330
1F
100
AcDbEntity
  8
0
  6
Continuous
 62
     7
370
    25
100
AcDbLine
 10
129.0091743119
 20
202.495412844
 30
0.0
 11
129.0091743119
 21
208.0
 31
0.0
  0
LINE
  5
D0
330
1F
100
AcDbEntity
  8
0
  6
Continuous
 62
     7
370
    25
100
AcDbLine
 10
119.5137614679
 20
111.7809322286
 30
0.0
 11
119.5137614679
 21
116.2568807339
 31
0.0
  0
LINE
  5
D1
330
1F
100
AcDbEntity
  8
0
  6
Continuous
 62
     7
370
    25
100
AcDbLine
 10
118.1376146789
 20
108.0
 30
0.0
 11
119.5137614679
 21
111.7809322286
 31
0.0
  0
LINE
  5
D2
330
1F
100
AcDbEntity
  8
0
  6
Continuous
 62
     7
370
    25
100
AcDbLine
 10
124.4220183486
 20
116.2568807339
 30
0.0
 11
124.4220183486
 21
200.6605504587
 31
0.0
  0
LINE
  5
D3
330
1F
100
AcDbEntity
  8
0
  6
Continuous
 62
     7
370
    25
100
AcDbLine
 10
36.9908256881
 20
208.0
 30
0.0
 11
62.6426017207
 21
208.0
 31
0.0
  0
LINE
  5
D4
330
1F
100
AcDbEntity
  8
0
  6
Continuous
 62
     7
370
    25
100
AcDbLine
 10
62.6426017207
 20
208.0
 30
0.0
 11
62.6426017207
 21
202.495412844
 31
0.0
  0
LINE
  5
D5
330
1F
100
AcDbEntity
  8
0
  6
Continuous
 62
     7
370
    25
100
AcDbLine
 10
38.8256880734
 20
200.6605504587
 30
0.0
 11
60.4394334222
 21
200.6605504587
 31
0.0
  0
SPLINE
  5
D6
330
1F
100
AcDbEntity
  8
0
  6
Continuous
 62
     7
370
    25
100
AcDbSpline
210
0.0
220
0.0
230
1.0
 70
     8
 71
     3
 72
    18
 73
    14
 74
     0
 42
0.00000001
 43
0.00000001
 40
-1.6201066648509
 40
-1.6201066648509
 40
-1.6201066648509
 40
-1.6201066648509
 40
-1.54700484728813
 40
-1.54700484728813
 40
-1.4780651809732
 40
-1.4780651809732
 40
-1.38918206688914
 40
-1.38918206688914
 40
-1.3150028294011
 40
-1.3150028294011
 40
-1.24633401327929
 40
-1.24633401327929
 40
-1.2392156027893
 40
-1.2392156027893
 40
-1.2392156027893
 40
-1.2392156027893
 10
60.43943342223423
 20
200.6605504587156
 30
0.0
 10
60.64101482609671
 20
200.6605504587156
 30
0.0
 10
60.84363175779222
 20
200.6804570646211
 30
0.0
 10
61.22946164348716
 20
200.764690916468
 30
0.0
 10
61.41189446342625
 20
200.826208131026
 30
0.0
 10
61.80559285670378
 20
201.0183535975445
 30
0.0
 10
62.00941308018002
 20
201.1636451020587
 30
0.0
 10
62.3215715299701
 20
201.4994258293684
 30
0.0
 10
62.43724864601607
 20
201.6755525022473
 30
0.0
 10
62.59221361965442
 20
202.0504863896632
 30
0.0
 10
62.63425923567709
 20
202.2412821295594
 30
0.0
 10
62.64223005965505
 20
202.4553295270028
 30
0.0
 10
62.64260172069093
 20
202.4753947186751
 30
0.0
 10
62.64260172069093
 20
202.4954128440367
 30
0.0
  0
LINE
  5
D7
330
1F
100
AcDbEntity
  8
0
  6
Continuous
 62
     7
370
    25
100
AcDbLine
 10
54.3822579324
 20
116.2568807339
 30
0.0
 11
41.5779816514
 21
116.2568807339
 31
0.0
  0
LINE
  5
D8
330
1F
100
AcDbEntity
  8
0
  6
Continuous
 62
     7
370
    25
100
AcDbLine
 10
103.7894079777
 20
202.495412844
 30
0.0
 11
103.7894079777
 21
208.0
 31
0.0
  0
LINE
  5
D9
330
1F
100
AcDbEntity
  8
0
  6
Continuous
 62
     7
370
    25
100
AcDbLine
 10
103.7894079777
 20
208.0
 30
0.0
 11
128.7578149198
 21
208.0
 31
0.0
  0
LINE
  5
DA
330
1F
100
AcDbEntity
  8
0
  6
Continuous
 62
     7
370
    25
100
AcDbLine
 10
106.1338589239
 20
200.6605504587
 30
0.0
 11
126.9229525345
 21
200.6605504587
 31
0.0
  0
SPLINE
  5
DB
330
1F
100
AcDbEntity
  8
0
  6
Continuous
 62
     7
370
    25
100
AcDbSpline
210
0.0
220
0.0
230
1.0
 70
     8
 71
     3
 72
    18
 73
    14
 74
     0
 42
0.00000001
 43
0.00000001
 40
0.0
 40
0.0
 40
0.0
 40
0.0
 40
0.1250000000000012
 40
0.1250000000000012
 40
0.2500000000000023
 40
0.2500000000000023
 40
0.3750000000000035
 40
0.3750000000000035
 40
0.5000000000000047
 40
0.5000000000000047
 40
0.7500000000000023
 40
0.7500000000000023
 40
1.0
 40
1.0
 40
1.0
 40
1.0
 10
103.7894079777077
 20
202.4954128440367
 30
0.0
 10
103.7894079777077
 20
202.3530861688509
 30
0.0
 10
103.8090352289067
 20
202.2143617913361
 30
0.0
 10
103.8850942777178
 20
201.9436724687996
 30
0.0
 10
103.9417936373933
 20
201.8130940070345
 30
0.0
 10
104.0835584743359
 20
201.5730340541722
 30
0.0
 10
104.1702310750032
 20
201.4608644959634
 30
0.0
 10
104.3628267292271
 20
201.261537480291
 30
0.0
 10
104.4702630700855
 20
201.1724394197848
 30
0.0
 10
104.8131760253904
 20
200.9398850555209
 30
0.0
 10
105.0660334285495
 20
200.8317607029766
 30
0.0
 10
105.5933115962484
 20
200.6915265087389
 30
0.0
 10
105.8617548227635
 20
200.6605504587156
 30
0.0
 10
106.1338589239246
 20
200.6605504587156
 30
0.0
  0
LINE
  5
DC
330
1F
100
AcDbEntity
  8
0
  6
Continuous
 62
     7
370
    25
100
AcDbLine
 10
54.3822579324
 20
116.2568807339
 30
0.0
 11
112.6737331669
 21
116.2568807339
 31
0.0
  0
LINE
  5
DD
330
1F
100
AcDbEntity
  8
0
  6
Continuous
 62
     7
370
    25
100
AcDbLine
 10
62.6426017207
 20
208.0
 30
0.0
 11
103.7894079777
 21
208.0
 31
0.0
  0
LINE
  5
DE
330
1F
100
AcDbEntity
  8
0
  6
Continuous
 62
     7
370
    25
100
AcDbLine
 10
53.4587155963
 20
111.7809322286
 30
0.0
 11
46.4862385321
 21
111.7809322286
 31
0.0
  0
LINE
  5
DF
330
1F
100
AcDbEntity
  8
0
  6
Continuous
 62
     7
370
    25
100
AcDbLine
 10
47.8623853211
 20
108.0
 30
0.0
 11
52.0825688073
 21
108.0
 31
0.0
  0
LINE
  5
E0
330
1F
100
AcDbEntity
  8
0
  6
Continuous
 62
     7
370
    25
100
AcDbLine
 10
124.1706589565
 20
116.2568807339
 30
0.0
 11
112.6737331669
 21
116.2568807339
 31
0.0
  0
LINE
  5
E1
330
1F
100
AcDbEntity
  8
0
  6
Continuous
 62
     7
370
    25
100
AcDbLine
 10
119.2624020758
 20
111.7809322286
 30
0.0
 11
112.2899250116
 21
111.7809322286
 31
0.0
  0
LINE
  5
E2
330
1F
100
AcDbEntity
  8
0
  6
Continuous
 62
     7
370
    25
100
AcDbLine
 10
113.6660718006
 20
108.0
 30
0.0
 11
117.8862552868
 21
108.0
 31
0.0
  0
LINE
  5
E3
330
1F
100
AcDbEntity
  8
0
  6
Continuous
 62
     7
370
    25
100
AcDbLine
 10
126.9229525345
 20
200.6605504587
 30
0.0
 11
127.1743119266
 21
200.6605504587
 31
0.0
  0
LINE
  5
E4
330
1F
100
AcDbEntity
  8
0
  6
Continuous
 62
     7
370
    25
100
AcDbLine
 10
128.7578149198
 20
208.0
 30
0.0
 11
129.0091743119
 21
208.0
 31
0.0
  0
LINE
  5
E5
330
1F
100
AcDbEntity
  8
0
  6
Continuous
 62
     7
370
    25
100
AcDbLine
 10
119.5137614679
 20
111.7809322286
 30
0.0
 11
119.2624020758
 21
111.7809322286
 31
0.0
  0
LINE
  5
E6
330
1F
100
AcDbEntity
  8
0
  6
Continuous
 62
     7
370
    25
100
AcDbLine
 10
117.8862552868
 20
108.0
 30
0.0
 11
118.1376146789
 21
108.0
 31
0.0
  0
LINE
  5
E7
330
1F
100
AcDbEntity
  8
0
  6
Continuous
 62
     7
370
    25
100
AcDbLine
 10
124.4220183486
 20
116.2568807339
 30
0.0
 11
124.1706589565
 21
116.2568807339
 31
0.0
  0
LINE
  5
E8
330
1F
100
AcDbEntity
  8
0
  6
HIDDEN
 62
     7
370
    18
100
AcDbLine
 10
44.8942041496
 20
202.495412844
 30
0.0
 11
44.8942041496
 21
208.0
 31
0.0
  0
SPLINE
  5
E9
330
1F
100
AcDbEntity
  8
0
  6
HIDDEN
 62
     7
370
    18
100
AcDbSpline
210
0.0
220
0.0
230
1.0
 70
     8
 71
     3
 72
    20
 73
    16
 74
     0
 42
0.00000001
 43
0.00000001
 40
0.0
 40
0.0
 40
0.0
 40
0.0
 40
0.1249999999999996
 40
0.1249999999999996
 40
0.2499999999999993
 40
0.2499999999999993
 40
0.3749999999999989
 40
0.3749999999999989
 40
0.4999999999999986
 40
0.4999999999999986
 40
0.6249999999999982
 40
0.6249999999999982
 40
0.7499999999999978
 40
0.7499999999999978
 40
1.0
 40
1.0
 40
1.0
 40
1.0
 10
44.8942041496173
 20
202.4954128440367
 30
0.0
 10
44.89420414961729
 20
202.3515717481265
 30
0.0
 10
44.8890271798844
 20
202.2114906735169
 30
0.0
 10
44.86891340761844
 20
201.9383625462522
 30
0.0
 10
44.8539460466798
 20
201.8071742743893
 30
0.0
 10
44.81637408366597
 20
201.5662388530432
 30
0.0
 10
44.79338451322128
 20
201.4541287539255
 30
0.0
 10
44.74208968954957
 20
201.255400563045
 30
0.0
 10
44.71328991713611
 20
201.1666088569108
 30
0.0
 10
44.65193867997271
 20
201.0130901735563
 30
0.0
 10
44.61955545240335
 20
200.948393647747
 30
0.0
 10
44.55172554296934
 20
200.8393001269377
 30
0.0
 10
44.51599595330669
 20
200.7947365988863
 30
0.0
 10
44.4068312871261
 20
200.6910965661277
 30
0.0
 10
44.33146228902685
 20
200.6605504587156
 30
0.0
 10
44.25367688489777
 20
200.6605504587156
 30
0.0
  0
LINE
  5
EA
330
1F
100
AcDbEntity
  8
0
  6
HIDDEN
 62
     7
370
    18
100
AcDbLine
 10
120.5485584393
 20
208.0
 30
0.0
 11
120.5485584393
 21
202.495412844
 31
0.0
  0
SPLINE
  5
EB
330
1F
100
AcDbEntity
  8
0
  6
HIDDEN
 62
     7
370
    18
100
AcDbSpline
210
0.0
220
0.0
230
1.0
 70
     8
 71
     3
 72
    18
 73
    14
 74
     0
 42
0.00000001
 43
0.00000001
 40
-1.62204742159427
 40
-1.62204742159427
 40
-1.62204742159427
 40
-1.62204742159427
 40
-1.54843262588302
 40
-1.54843262588302
 40
-1.47904495667028
 40
-1.47904495667028
 40
-1.39016900818871
 40
-1.39016900818871
 40
-1.31609114193326
 40
-1.31609114193326
 40
-1.24754636307076
 40
-1.24754636307076
 40
-1.24065000266004
 40
-1.24065000266004
 40
-1.24065000266004
 40
-1.24065000266004
 10
121.2047646420282
 20
200.6605504587156
 30
0.0
 10
121.1400420203024
 20
200.6605504587156
 30
0.0
 10
121.0762348545621
 20
200.680648317121
 30
0.0
 10
120.9570676118252
 20
200.7657182538065
 30
0.0
 10
120.9018073875517
 20
200.8278333764929
 30
0.0
 10
120.7849684260007
 20
201.0211792597417
 30
0.0
 10
120.7261336692036
 20
201.16675457839
 30
0.0
 10
120.6374548072399
 20
201.5027158414248
 30
0.0
 10
120.6051972211741
 20
201.6787122263064
 30
0.0
 10
120.5622695586552
 20
202.0531554355533
 30
0.0
 10
120.5507792648455
 20
202.2435862999552
 30
0.0
 10
120.5486548497718
 20
202.456590141284
 30
0.0
 10
120.5485584392919
 20
202.476023829906
 30
0.0
 10
120.5485584392919
 20
202.4954128440367
 30
0.0
  0
LINE
  5
EC
330
1F
100
AcDbEntity
  8
0
  6
HIDDEN
 62
     7
370
    18
100
AcDbLine
 10
60.4394334222
 20
200.6605504587
 30
0.0
 11
62.0120562683
 21
200.6605504587
 31
0.0
  0
LINE
  5
ED
330
1F
100
AcDbEntity
  8
0
  6
HIDDEN
 62
     7
370
    18
100
AcDbLine
 10
57.7982588646
 20
116.2568807339
 30
0.0
 11
57.7982588646
 21
200.6605504587
 31
0.0
  0
LINE
  5
EE
330
1F
100
AcDbEntity
  8
0
  6
HIDDEN
 62
     7
370
    18
100
AcDbLine
 10
62.0120562683
 20
200.6605504587
 30
0.0
 11
62.0120562683
 21
208.0
 31
0.0
  0
LINE
  5
EF
330
1F
100
AcDbEntity
  8
0
  6
HIDDEN
 62
     7
370
    18
100
AcDbLine
 10
107.5418656033
 20
116.2568807339
 30
0.0
 11
107.5418656033
 21
200.6605504587
 31
0.0
  0
LINE
  5
F0
330
1F
100
AcDbEntity
  8
0
  6
HIDDEN
 62
     7
370
    18
100
AcDbLine
 10
103.0764167483
 20
200.6605504587
 30
0.0
 11
106.1338589239
 21
200.6605504587
 31
0.0
  0
LINE
  5
F1
330
1F
100
AcDbEntity
  8
0
  6
HIDDEN
 62
     7
370
    18
100
AcDbLine
 10
52.6275120988
 20
208.0
 30
0.0
 11
52.6275120988
 21
200.6605504587
 31
0.0
  0
LINE
  5
F2
330
1F
100
AcDbEntity
  8
0
  6
HIDDEN
 62
     7
370
    18
100
AcDbLine
 10
51.5068439739
 20
116.2568807339
 30
0.0
 11
51.5068439739
 21
200.6605504587
 31
0.0
  0
LINE
  5
F3
330
1F
100
AcDbEntity
  8
0
  6
HIDDEN
 62
     7
370
    18
100
AcDbLine
 10
103.0764167483
 20
208.0
 30
0.0
 11
103.0764167483
 21
200.6605504587
 31
0.0
  0
LINE
  5
F4
330
1F
100
AcDbEntity
  8
0
  6
HIDDEN
 62
     7
370
    18
100
AcDbLine
 10
120.6970652157
 20
202.495412844
 30
0.0
 11
120.6970652157
 21
208.0
 31
0.0
  0
SPLINE
  5
F5
330
1F
100
AcDbEntity
  8
0
  6
HIDDEN
 62
     7
370
    18
100
AcDbSpline
210
0.0
220
0.0
230
1.0
 70
     8
 71
     3
 72
    18
 73
    14
 74
     0
 42
0.00000001
 43
0.00000001
 40
0.0
 40
0.0
 40
0.0
 40
0.0
 40
0.1249999999999999
 40
0.1249999999999999
 40
0.2499999999999998
 40
0.2499999999999998
 40
0.3749999999999997
 40
0.3749999999999997
 40
0.4999999999999996
 40
0.4999999999999996
 40
0.7499999999999998
 40
0.7499999999999998
 40
1.0
 40
1.0
 40
1.0
 40
1.0
 10
120.6970652157463
 20
202.4954128440367
 30
0.0
 10
120.6970652157463
 20
202.3528950700502
 30
0.0
 10
120.7023557243488
 20
202.2139991968158
 30
0.0
 10
120.7229580026533
 20
201.9430011091852
 30
0.0
 10
120.738341763665
 20
201.8123431182514
 30
0.0
 10
120.7770950073085
 20
201.5721705219982
 30
0.0
 10
120.8009045988611
 20
201.4600041833046
 30
0.0
 10
120.8542991680659
 20
201.2607529561014
 30
0.0
 10
120.8843185776755
 20
201.1716881782534
 30
0.0
 10
120.9810720189351
 20
200.9394274266153
 30
0.0
 10
121.0537404341768
 20
200.8314396843052
 30
0.0
 10
121.2088240080338
 20
200.6914707589364
 30
0.0
 10
121.2894902462819
 20
200.6605504587156
 30
0.0
 10
121.3731246274753
 20
200.6605504587156
 30
0.0
  0
LINE
  5
F6
330
1F
100
AcDbEntity
  8
0
  6
HIDDEN
 62
     7
370
    18
100
AcDbLine
 10
114.1853249565
 20
116.2568807339
 30
0.0
 11
114.1853249565
 21
200.6605504587
 31
0.0
  0
LINE
  5
F7
330
1F
100
AcDbEntity
  8
0
  6
HIDDEN
 62
     7
370
    18
100
AcDbLine
 10
112.9984468049
 20
208.0
 30
0.0
 11
112.9984468049
 21
200.6605504587
 31
0.0
  0
LINE
  5
F8
330
1F
100
AcDbEntity
  8
0
  6
HIDDEN
 62
     7
370
    18
100
AcDbLine
 10
112.8545609376
 20
200.6605504587
 30
0.0
 11
112.8545609376
 21
208.0
 31
0.0
  0
LINE
  5
F9
330
1F
100
AcDbEntity
  8
0
  6
HIDDEN
 62
     7
370
    18
100
AcDbLine
 10
114.0036887395
 20
116.2568807339
 30
0.0
 11
114.0036887395
 21
200.6605504587
 31
0.0
  0
LINE
  5
FA
330
1F
100
AcDbEntity
  8
0
  6
HIDDEN
 62
     7
370
    18
100
AcDbLine
 10
103.3329690083
 20
200.6605504587
 30
0.0
 11
103.3329690083
 21
208.0
 31
0.0
  0
SPLINE
  5
FB
330
1F
100
AcDbEntity
  8
0
  6
HIDDEN
 62
     7
370
    18
100
AcDbSpline
210
0.0
220
0.0
230
1.0
 70
     8
 71
     3
 72
    18
 73
    14
 74
     0
 42
0.00000001
 43
0.00000001
 40
-1.62010666485256
 40
-1.62010666485256
 40
-1.62010666485256
 40
-1.62010666485256
 40
-1.54700484728983
 40
-1.54700484728983
 40
-1.47806518097491
 40
-1.47806518097491
 40
-1.38918206689083
 40
-1.38918206689083
 40
-1.31500282940274
 40
-1.31500282940274
 40
-1.24633401328082
 40
-1.24633401328082
 40
-1.23921560279081
 40
-1.23921560279081
 40
-1.23921560279081
 40
-1.23921560279081
 10
106.3744914231666
 20
200.6605504587156
 30
0.0
 10
106.1593057295913
 20
200.6605504587156
 30
0.0
 10
105.9432374559571
 20
200.6804570646211
 30
0.0
 10
105.5321990726705
 20
200.764690916468
 30
0.0
 10
105.3380365576473
 20
200.826208131026
 30
0.0
 10
104.9193666639212
 20
201.0183535975444
 30
0.0
 10
104.7028843492702
 20
201.1636451020587
 30
0.0
 10
104.3715727186183
 20
201.4994258293684
 30
0.0
 10
104.2489012867242
 20
201.6755525022473
 30
0.0
 10
104.0846083475475
 20
202.0504863896632
 30
0.0
 10
104.0400549998418
 20
202.2412821295596
 30
0.0
 10
104.0316077560344
 20
202.4553295270028
 30
0.0
 10
104.0312138827917
 20
202.4753947186751
 30
0.0
 10
104.0312138827917
 20
202.4954128440367
 30
0.0
  0
LINE
  5
FC
330
1F
100
AcDbEntity
  8
0
  6
HIDDEN
 62
     7
370
    18
100
AcDbLine
 10
104.0312138828
 20
208.0
 30
0.0
 11
104.0312138828
 21
202.495412844
 31
0.0
  0
LINE
  5
FD
330
1F
100
AcDbEntity
  8
0
  6
HIDDEN
 62
     7
370
    18
100
AcDbLine
 10
107.7963759352
 20
116.2568807339
 30
0.0
 11
107.7963759352
 21
200.6605504587
 31
0.0
  0
LINE
  5
FE
330
1F
100
AcDbEntity
  8
0
  6
HIDDEN
 62
     7
370
    18
100
AcDbLine
 10
62.0027062608
 20
208.0
 30
0.0
 11
62.0027062608
 21
200.6605504587
 31
0.0
  0
LINE
  5
FF
330
1F
100
AcDbEntity
  8
0
  6
HIDDEN
 62
     7
370
    18
100
AcDbLine
 10
62.6480094467
 20
202.495412844
 30
0.0
 11
62.6480094467
 21
208.0
 31
0.0
  0
LINE
  5
100
330
1F
100
AcDbEntity
  8
0
  6
HIDDEN
 62
     7
370
    18
100
AcDbLine
 10
57.792409189
 20
116.2568807339
 30
0.0
 11
57.792409189
 21
200.6605504587
 31
0.0
  0
LINE
  5
101
330
1F
100
AcDbEntity
  8
0
  6
HIDDEN
 62
     7
370
    18
100
AcDbLine
 10
47.8306659669
 20
116.2568807339
 30
0.0
 11
47.8306659669
 21
208.0
 31
0.0
  0
LINE
  5
102
330
1F
100
AcDbEntity
  8
0
  6
HIDDEN
 62
     7
370
    18
100
AcDbLine
 10
55.1701155082
 20
116.2568807339
 30
0.0
 11
55.1701155082
 21
208.0
 31
0.0
  0
LINE
  5
103
330
1F
100
AcDbEntity
  8
0
  6
HIDDEN
 62
     7
370
    18
100
AcDbLine
 10
118.3384839581
 20
208.0
 30
0.0
 11
118.3384839581
 21
116.2568807339
 31
0.0
  0
LINE
  5
104
330
1F
100
AcDbEntity
  8
0
  6
HIDDEN
 62
     7
370
    18
100
AcDbLine
 10
110.9990344168
 20
208.0
 30
0.0
 11
110.9990344168
 21
116.2568807339
 31
0.0
  0
LINE
  5
105
330
1F
100
AcDbEntity
  8
0
  6
HIDDEN
 62
     7
370
    18
100
AcDbLine
 10
112.5412844037
 20
116.2568807339
 30
0.0
 11
112.5412844037
 21
111.7809322286
 31
0.0
  0
LINE
  5
106
330
1F
100
AcDbEntity
  8
0
  6
HIDDEN
 62
     7
370
    18
100
AcDbLine
 10
112.5412844037
 20
111.7809322286
 30
0.0
 11
113.9174311927
 21
108.0
 31
0.0
  0
LINE
  5
107
330
1F
100
AcDbEntity
  8
0
  6
Continuous
 62
     7
370
    25
100
AcDbLine
 10
267.495412844
 20
14.4763153889
 30
0.0
 11
273.0
 21
14.4763153889
 31
0.0
  0
ARC
  5
108
330
1F
100
AcDbEntity
  8
0
  6
Continuous
 62
     7
370
    25
100
AcDbCircle
 10
267.495412844
 20
16.3111777742
 30
0.0
 40
1.834862385321117
100
AcDbArc
 50
180.0
 51
270.0
  0
LINE
  5
109
330
1F
100
AcDbEntity
  8
0
  6
Continuous
 62
     7
370
    25
100
AcDbLine
 10
273.0
 20
99.5456757084
 30
0.0
 11
267.495412844
 21
99.5456757084
 31
0.0
  0
ARC
  5
10A
330
1F
100
AcDbEntity
  8
0
  6
Continuous
 62
     7
370
    25
100
AcDbCircle
 10
267.495412844
 20
97.7108133231
 30
0.0
 40
1.834862385321117
100
AcDbArc
 50
90.0
 51
180.0
  0
LINE
  5
10B
330
1F
100
AcDbEntity
  8
0
  6
Continuous
 62
     7
370
    25
100
AcDbLine
 10
181.2568807339
 20
19.0634713522
 30
0.0
 11
265.6605504587
 21
19.0634713522
 31
0.0
  0
LINE
  5
10C
330
1F
100
AcDbEntity
  8
0
  6
Continuous
 62
     7
370
    25
100
AcDbLine
 10
265.6605504587
 20
94.9585197451
 30
0.0
 11
181.2568807339
 21
94.9585197451
 31
0.0
  0
LINE
  5
10D
330
1F
100
AcDbEntity
  8
0
  6
Continuous
 62
     7
370
    25
100
AcDbLine
 10
176.7809322286
 20
23.9717282329
 30
0.0
 11
181.2568807339
 21
23.9717282329
 31
0.0
  0
LINE
  5
10E
330
1F
100
AcDbEntity
  8
0
  6
Continuous
 62
     7
370
    25
100
AcDbLine
 10
181.2568807339
 20
30.9442052971
 30
0.0
 11
176.7809322286
 21
30.9442052971
 31
0.0
  0
LINE
  5
10F
330
1F
100
AcDbEntity
  8
0
  6
Continuous
 62
     7
370
    25
100
AcDbLine
 10
176.7809322286
 20
30.9442052971
 30
0.0
 11
173.0
 21
29.5680585081
 31
0.0
  0
LINE
  5
110
330
1F
100
AcDbEntity
  8
0
  6
Continuous
 62
     7
370
    25
100
AcDbLine
 10
173.0
 20
25.3478750219
 30
0.0
 11
176.7809322286
 21
23.9717282329
 31
0.0
  0
LINE
  5
111
330
1F
100
AcDbEntity
  8
0
  6
Continuous
 62
     7
370
    25
100
AcDbLine
 10
176.7809322286
 20
83.0777858002
 30
0.0
 11
181.2568807339
 21
83.0777858002
 31
0.0
  0
LINE
  5
112
330
1F
100
AcDbEntity
  8
0
  6
Continuous
 62
     7
370
    25
100
AcDbLine
 10
181.2568807339
 20
90.0502628644
 30
0.0
 11
176.7809322286
 21
90.0502628644
 31
0.0
  0
LINE
  5
113
330
1F
100
AcDbEntity
  8
0
  6
Continuous
 62
     7
370
    25
100
AcDbLine
 10
176.7809322286
 20
90.0502628644
 30
0.0
 11
173.0
 21
88.6741160754
 31
0.0
  0
LINE
  5
114
330
1F
100
AcDbEntity
  8
0
  6
Continuous
 62
     7
370
    25
100
AcDbLine
 10
173.0
 20
84.4539325891
 30
0.0
 11
176.7809322286
 21
83.0777858002
 31
0.0
  0
ARC
  5
115
330
1F
100
AcDbEntity
  8
0
  6
Continuous
 62
     7
370
    25
100
AcDbCircle
 10
267.495412844
 20
10.5321100917
 30
0.0
 40
1.834862385321117
100
AcDbArc
 50
180.0
 51
270.0
  0
LINE
  5
116
330
1F
100
AcDbEntity
  8
0
  6
Continuous
 62
     7
370
    25
100
AcDbLine
 10
267.495412844
 20
8.6972477064
 30
0.0
 11
273.0
 21
8.6972477064
 31
0.0
  0
LINE
  5
117
330
1F
100
AcDbEntity
  8
0
  6
Continuous
 62
     7
370
    25
100
AcDbLine
 10
273.0
 20
105.3027522936
 30
0.0
 11
267.495412844
 21
105.3027522936
 31
0.0
  0
ARC
  5
118
330
1F
100
AcDbEntity
  8
0
  6
Continuous
 62
     7
370
    25
100
AcDbCircle
 10
267.495412844
 20
103.4678899083
 30
0.0
 40
1.834862385321117
100
AcDbArc
 50
90.0
 51
180.0
  0
LINE
  5
119
330
1F
100
AcDbEntity
  8
0
  6
Continuous
 62
     7
370
    25
100
AcDbLine
 10
181.2568807339
 20
13.2844036697
 30
0.0
 11
265.6605504587
 21
13.2844036697
 31
0.0
  0
LINE
  5
11A
330
1F
100
AcDbEntity
  8
0
  6
Continuous
 62
     7
370
    25
100
AcDbLine
 10
265.6605504587
 20
100.7155963303
 30
0.0
 11
181.2568807339
 21
100.7155963303
 31
0.0
  0
LINE
  5
11B
330
1F
100
AcDbEntity
  8
0
  6
Continuous
 62
     7
370
    25
100
AcDbLine
 10
176.7809322286
 20
18.1926605505
 30
0.0
 11
181.2568807339
 21
18.1926605505
 31
0.0
  0
LINE
  5
11C
330
1F
100
AcDbEntity
  8
0
  6
Continuous
 62
     7
370
    25
100
AcDbLine
 10
181.2568807339
 20
95.8073394495
 30
0.0
 11
176.7809322286
 21
95.8073394495
 31
0.0
  0
LINE
  5
11D
330
1F
100
AcDbEntity
  8
0
  6
Continuous
 62
     7
370
    25
100
AcDbLine
 10
176.7809322286
 20
95.8073394495
 30
0.0
 11
173.0
 21
94.4311926606
 31
0.0
  0
LINE
  5
11E
330
1F
100
AcDbEntity
  8
0
  6
Continuous
 62
     7
370
    25
100
AcDbLine
 10
173.0
 20
90.2110091743
 30
0.0
 11
175.1112895427
 21
89.4425626248
 31
0.0
  0
LINE
  5
11F
330
1F
100
AcDbEntity
  8
0
  6
Continuous
 62
     7
370
    25
100
AcDbLine
 10
175.1414995643
 20
24.5684329238
 30
0.0
 11
173.0
 21
23.7889908257
 31
0.0
  0
LINE
  5
120
330
1F
100
AcDbEntity
  8
0
  6
Continuous
 62
     7
370
    25
100
AcDbLine
 10
173.0
 20
19.5688073394
 30
0.0
 11
176.7809322286
 21
18.1926605505
 31
0.0
  0
LINE
  5
121
330
1F
100
AcDbEntity
  8
0
  6
Continuous
 62
     7
370
    25
100
AcDbLine
 10
267.495412844
 20
39.570714073
 30
0.0
 11
273.0
 21
39.570714073
 31
0.0
  0
LINE
  5
122
330
1F
100
AcDbEntity
  8
0
  6
Continuous
 62
     7
370
    25
100
AcDbLine
 10
273.0
 20
39.570714073
 30
0.0
 11
273.0
 21
14.4763153889
 31
0.0
  0
LINE
  5
123
330
1F
100
AcDbEntity
  8
0
  6
Continuous
 62
     7
370
    25
100
AcDbLine
 10
265.6605504587
 20
37.2393494566
 30
0.0
 11
265.6605504587
 21
16.3111777742
 31
0.0
  0
SPLINE
  5
124
330
1F
100
AcDbEntity
  8
0
  6
Continuous
 62
     7
370
    25
100
AcDbSpline
210
0.0
220
0.0
230
1.0
 70
     8
 71
     3
 72
    18
 73
    14
 74
     0
 42
0.00000001
 43
0.00000001
 40
0.0
 40
0.0
 40
0.0
 40
0.0
 40
0.1249999999999999
 40
0.1249999999999999
 40
0.2499999999999998
 40
0.2499999999999998
 40
0.3749999999999997
 40
0.3749999999999997
 40
0.4999999999999996
 40
0.4999999999999996
 40
0.7499999999999998
 40
0.7499999999999998
 40
1.0
 40
1.0
 40
1.0
 40
1.0
 10
267.4954128440367
 20
39.57071407301346
 30
0.0
 10
267.3528950700502
 20
39.57071407301345
 30
0.0
 10
267.2139991968158
 20
39.55113836274381
 30
0.0
 10
266.9430011091852
 20
39.47529499729113
 30
0.0
 10
266.8123431182514
 20
39.41878100575757
 30
0.0
 10
266.5721705219982
 20
39.27752655161228
 30
0.0
 10
266.4600041833046
 20
39.19120328433704
 30
0.0
 10
266.2607529561014
 20
38.99948769664876
 30
0.0
 10
266.1716881782534
 20
38.89253583232644
 30
0.0
 10
265.9394274266152
 20
38.55153565187697
 30
0.0
 10
265.8314396843052
 20
38.30010043135841
 30
0.0
 10
265.6914707589364
 20
37.77625507092862
 30
0.0
 10
265.6605504587156
 20
37.50960032181231
 30
0.0
 10
265.6605504587156
 20
37.23934945662578
 30
0.0
  0
LINE
  5
125
330
1F
100
AcDbEntity
  8
0
  6
Continuous
 62
     7
370
    25
100
AcDbLine
 10
273.0
 20
74.4914306005
 30
0.0
 11
267.495412844
 21
74.4914306005
 31
0.0
  0
LINE
  5
126
330
1F
100
AcDbEntity
  8
0
  6
Continuous
 62
     7
370
    25
100
AcDbLine
 10
273.0
 20
99.5456757084
 30
0.0
 11
273.0
 21
74.4914306005
 31
0.0
  0
LINE
  5
127
330
1F
100
AcDbEntity
  8
0
  6
Continuous
 62
     7
370
    25
100
AcDbLine
 10
265.6605504587
 20
97.7108133231
 30
0.0
 11
265.6605504587
 21
76.8284609217
 31
0.0
  0
SPLINE
  5
128
330
1F
100
AcDbEntity
  8
0
  6
Continuous
 62
     7
370
    25
100
AcDbSpline
210
0.0
220
0.0
230
1.0
 70
     8
 71
     3
 72
    18
 73
    14
 74
     0
 42
0.00000001
 43
0.00000001
 40
-1.62204742159427
 40
-1.62204742159427
 40
-1.62204742159427
 40
-1.62204742159427
 40
-1.54843262588302
 40
-1.54843262588302
 40
-1.47904495667028
 40
-1.47904495667028
 40
-1.39016900818871
 40
-1.39016900818871
 40
-1.31609114193326
 40
-1.31609114193326
 40
-1.24754636307076
 40
-1.24754636307076
 40
-1.24065000266004
 40
-1.24065000266004
 40
-1.24065000266004
 40
-1.24065000266004
 10
265.6605504587156
 20
76.82846092170927
 30
0.0
 10
265.6605504587156
 20
76.61284375683616
 30
0.0
 10
265.680648317121
 20
76.3963164834676
 30
0.0
 10
265.7657182538065
 20
75.98457575689761
 30
0.0
 10
265.8278333764929
 20
75.79014477851486
 30
0.0
 10
266.0211792597417
 20
75.3726631932243
 30
0.0
 10
266.16675457839
 20
75.15743352845486
 30
0.0
 10
266.5027158414248
 20
74.82842162621752
 30
0.0
 10
266.6787122263064
 20
74.70672605073192
 30
0.0
 10
267.0531554355533
 20
74.5439493690577
 30
0.0
 10
267.2435862999552
 20
74.49991968691936
 30
0.0
 10
267.456590141284
 20
74.4917991654322
 30
0.0
 10
267.476023829906
 20
74.49143060050606
 30
0.0
 10
267.4954128440367
 20
74.49143060050606
 30
0.0
  0
LINE
  5
129
330
1F
100
AcDbEntity
  8
0
  6
Continuous
 62
     7
370
    25
100
AcDbLine
 10
181.2568807339
 20
19.0634713522
 30
0.0
 11
181.2568807339
 21
30.7429549098
 31
0.0
  0
LINE
  5
12A
330
1F
100
AcDbEntity
  8
0
  6
Continuous
 62
     7
370
    25
100
AcDbLine
 10
181.2568807339
 20
83.3448582168
 30
0.0
 11
181.2568807339
 21
94.9585197451
 31
0.0
  0
LINE
  5
12B
330
1F
100
AcDbEntity
  8
0
  6
Continuous
 62
     7
370
    25
100
AcDbLine
 10
181.2568807339
 20
83.3448582168
 30
0.0
 11
181.2568807339
 21
30.7429549098
 31
0.0
  0
LINE
  5
12C
330
1F
100
AcDbEntity
  8
0
  6
Continuous
 62
     7
370
    25
100
AcDbLine
 10
273.0
 20
74.4914306005
 30
0.0
 11
273.0
 21
39.570714073
 31
0.0
  0
LINE
  5
12D
330
1F
100
AcDbEntity
  8
0
  6
Continuous
 62
     7
370
    25
100
AcDbLine
 10
176.7809322286
 20
27.457966765
 30
0.0
 11
176.7809322286
 21
30.9442052971
 31
0.0
  0
LINE
  5
12E
330
1F
100
AcDbEntity
  8
0
  6
Continuous
 62
     7
370
    25
100
AcDbLine
 10
176.7809322286
 20
23.9717282329
 30
0.0
 11
176.7809322286
 21
27.457966765
 31
0.0
  0
LINE
  5
12F
330
1F
100
AcDbEntity
  8
0
  6
Continuous
 62
     7
370
    25
100
AcDbLine
 10
173.0
 20
27.457966765
 30
0.0
 11
173.0
 21
25.3478750219
 31
0.0
  0
LINE
  5
130
330
1F
100
AcDbEntity
  8
0
  6
Continuous
 62
     7
370
    25
100
AcDbLine
 10
173.0
 20
29.5680585081
 30
0.0
 11
173.0
 21
27.457966765
 31
0.0
  0
LINE
  5
131
330
1F
100
AcDbEntity
  8
0
  6
Continuous
 62
     7
370
    25
100
AcDbLine
 10
176.7809322286
 20
86.5640243323
 30
0.0
 11
176.7809322286
 21
90.0502628644
 31
0.0
  0
LINE
  5
132
330
1F
100
AcDbEntity
  8
0
  6
Continuous
 62
     7
370
    25
100
AcDbLine
 10
176.7809322286
 20
83.0777858002
 30
0.0
 11
176.7809322286
 21
86.5640243323
 31
0.0
  0
LINE
  5
133
330
1F
100
AcDbEntity
  8
0
  6
Continuous
 62
     7
370
    25
100
AcDbLine
 10
173.0
 20
86.5640243323
 30
0.0
 11
173.0
 21
84.4539325891
 31
0.0
  0
LINE
  5
134
330
1F
100
AcDbEntity
  8
0
  6
Continuous
 62
     7
370
    25
100
AcDbLine
 10
173.0
 20
88.6741160754
 30
0.0
 11
173.0
 21
86.5640243323
 31
0.0
  0
LINE
  5
135
330
1F
100
AcDbEntity
  8
0
  6
Continuous
 62
     7
370
    25
100
AcDbLine
 10
181.2568807339
 20
19.0634713522
 30
0.0
 11
181.2568807339
 21
14.5444589382
 31
0.0
  0
LINE
  5
136
330
1F
100
AcDbEntity
  8
0
  6
Continuous
 62
     7
370
    25
100
AcDbLine
 10
181.2568807339
 20
99.4640265037
 30
0.0
 11
181.2568807339
 21
94.9585197451
 31
0.0
  0
LINE
  5
137
330
1F
100
AcDbEntity
  8
0
  6
Continuous
 62
     7
370
    25
100
AcDbLine
 10
265.6605504587
 20
16.3111777742
 30
0.0
 11
265.6605504587
 21
10.5321100917
 31
0.0
  0
LINE
  5
138
330
1F
100
AcDbEntity
  8
0
  6
Continuous
 62
     7
370
    25
100
AcDbLine
 10
273.0
 20
14.4763153889
 30
0.0
 11
273.0
 21
8.6972477064
 31
0.0
  0
LINE
  5
139
330
1F
100
AcDbEntity
  8
0
  6
Continuous
 62
     7
370
    25
100
AcDbLine
 10
273.0
 20
105.3027522936
 30
0.0
 11
273.0
 21
99.5456757084
 31
0.0
  0
LINE
  5
13A
330
1F
100
AcDbEntity
  8
0
  6
Continuous
 62
     7
370
    25
100
AcDbLine
 10
265.6605504587
 20
103.4678899083
 30
0.0
 11
265.6605504587
 21
97.7108133231
 31
0.0
  0
LINE
  5
13B
330
1F
100
AcDbEntity
  8
0
  6
Continuous
 62
     7
370
    25
100
AcDbLine
 10
181.2568807339
 20
13.2844036697
 30
0.0
 11
181.2568807339
 21
14.5444589382
 31
0.0
  0
LINE
  5
13C
330
1F
100
AcDbEntity
  8
0
  6
Continuous
 62
     7
370
    25
100
AcDbLine
 10
181.2568807339
 20
99.4640265037
 30
0.0
 11
181.2568807339
 21
100.7155963303
 31
0.0
  0
LINE
  5
13D
330
1F
100
AcDbEntity
  8
0
  6
Continuous
 62
     7
370
    25
100
AcDbLine
 10
176.7809322286
 20
21.6788990826
 30
0.0
 11
176.7809322286
 21
23.9717282329
 31
0.0
  0
LINE
  5
13E
330
1F
100
AcDbEntity
  8
0
  6
Continuous
 62
     7
370
    25
100
AcDbLine
 10
176.7809322286
 20
18.1926605505
 30
0.0
 11
176.7809322286
 21
21.6788990826
 31
0.0
  0
LINE
  5
13F
330
1F
100
AcDbEntity
  8
0
  6
Continuous
 62
     7
370
    25
100
AcDbLine
 10
176.7809322286
 20
92.3211009174
 30
0.0
 11
176.7809322286
 21
95.8073394495
 31
0.0
  0
LINE
  5
140
330
1F
100
AcDbEntity
  8
0
  6
Continuous
 62
     7
370
    25
100
AcDbLine
 10
176.7809322286
 20
90.0502628644
 30
0.0
 11
176.7809322286
 21
92.3211009174
 31
0.0
  0
LINE
  5
141
330
1F
100
AcDbEntity
  8
0
  6
Continuous
 62
     7
370
    25
100
AcDbLine
 10
173.0
 20
92.3211009174
 30
0.0
 11
173.0
 21
90.2110091743
 31
0.0
  0
LINE
  5
142
330
1F
100
AcDbEntity
  8
0
  6
Continuous
 62
     7
370
    25
100
AcDbLine
 10
173.0
 20
94.4311926606
 30
0.0
 11
173.0
 21
92.3211009174
 31
0.0
  0
LINE
  5
143
330
1F
100
AcDbEntity
  8
0
  6
Continuous
 62
     7
370
    25
100
AcDbLine
 10
173.0
 20
21.6788990826
 30
0.0
 11
173.0
 21
19.5688073394
 31
0.0
  0
LINE
  5
144
330
1F
100
AcDbEntity
  8
0
  6
Continuous
 62
     7
370
    25
100
AcDbLine
 10
173.0
 20
23.7889908257
 30
0.0
 11
173.0
 21
21.6788990826
 31
0.0
  0
LINE
  5
145
330
1F
100
AcDbEntity
  8
0
  6
HIDDEN
 62
     7
370
    18
100
AcDbLine
 10
273.0
 20
22.4969344574
 30
0.0
 11
267.495412844
 21
22.4969344574
 31
0.0
  0
SPLINE
  5
146
330
1F
100
AcDbEntity
  8
0
  6
HIDDEN
 62
     7
370
    18
100
AcDbSpline
210
0.0
220
0.0
230
1.0
 70
     8
 71
     3
 72
    18
 73
    14
 74
     0
 42
0.00000001
 43
0.00000001
 40
-1.62010666485256
 40
-1.62010666485256
 40
-1.62010666485256
 40
-1.62010666485256
 40
-1.54700484728983
 40
-1.54700484728983
 40
-1.47806518097491
 40
-1.47806518097491
 40
-1.38918206689083
 40
-1.38918206689083
 40
-1.31500282940274
 40
-1.31500282940274
 40
-1.24633401328082
 40
-1.24633401328082
 40
-1.23921560279081
 40
-1.23921560279081
 40
-1.23921560279081
 40
-1.23921560279081
 10
265.6605504587156
 20
21.88392985963962
 30
0.0
 10
265.6605504587156
 20
21.94451898999141
 30
0.0
 10
265.6804570646211
 20
22.00414126330821
 30
0.0
 10
265.764690916468
 20
22.11534731473134
 30
0.0
 10
265.826208131026
 20
22.16684108508539
 30
0.0
 10
266.0183535975444
 20
22.27600700293983
 30
0.0
 10
266.1636451020587
 20
22.33099826184198
 30
0.0
 10
266.4994258293685
 20
22.41384694952887
 30
0.0
 10
266.6755525022473
 20
22.4439557656274
 30
0.0
 10
267.0504863896632
 20
22.48405047784212
 30
0.0
 10
267.2412821295596
 20
22.49479625245782
 30
0.0
 10
267.4553295270028
 20
22.4968392112896
 30
0.0
 10
267.4753947186751
 20
22.49693445741946
 30
0.0
 10
267.4954128440367
 20
22.49693445741946
 30
0.0
  0
LINE
  5
147
330
1F
100
AcDbEntity
  8
0
  6
HIDDEN
 62
     7
370
    18
100
AcDbLine
 10
267.495412844
 20
91.5480953042
 30
0.0
 11
273.0
 21
91.5480953042
 31
0.0
  0
SPLINE
  5
148
330
1F
100
AcDbEntity
  8
0
  6
HIDDEN
 62
     7
370
    18
100
AcDbSpline
210
0.0
220
0.0
230
1.0
 70
     8
 71
     3
 72
    18
 73
    14
 74
     0
 42
0.00000001
 43
0.00000001
 40
0.0
 40
0.0
 40
0.0
 40
0.0
 40
0.1250000000000012
 40
0.1250000000000012
 40
0.2500000000000023
 40
0.2500000000000023
 40
0.3750000000000035
 40
0.3750000000000035
 40
0.5000000000000047
 40
0.5000000000000047
 40
0.7500000000000023
 40
0.7500000000000023
 40
1.0
 40
1.0
 40
1.0
 40
1.0
 10
267.4954128440367
 20
91.5480953042284
 30
0.0
 10
267.3530861688509
 20
91.5480953042284
 30
0.0
 10
267.2143617913361
 20
91.55279299052391
 30
0.0
 10
266.9436724687996
 20
91.57110493340623
 30
0.0
 10
266.8130940070345
 20
91.58478879302804
 30
0.0
 10
266.5730340541722
 20
91.6193126280778
 30
0.0
 10
266.4608644959634
 20
91.64054997679999
 30
0.0
 10
266.2615374802909
 20
91.68827212358386
 30
0.0
 10
266.1724394197848
 20
91.71513179362078
 30
0.0
 10
265.9398850555209
 20
91.80193446752165
 30
0.0
 10
265.8317607029766
 20
91.8673076339712
 30
0.0
 10
265.6915265087389
 20
92.00742995896988
 30
0.0
 10
265.6605504587155
 20
92.08054522587683
 30
0.0
 10
265.6605504587156
 20
92.15659676594274
 30
0.0
  0
LINE
  5
149
330
1F
100
AcDbEntity
  8
0
  6
HIDDEN
 62
     7
370
    18
100
AcDbLine
 10
181.2568807339
 20
35.647830002
 30
0.0
 11
265.6605504587
 21
35.647830002
 31
0.0
  0
LINE
  5
14A
330
1F
100
AcDbEntity
  8
0
  6
HIDDEN
 62
     7
370
    18
100
AcDbLine
 10
265.6605504587
 20
40.0812773548
 30
0.0
 11
265.6605504587
 21
37.2393494566
 31
0.0
  0
LINE
  5
14B
330
1F
100
AcDbEntity
  8
0
  6
HIDDEN
 62
     7
370
    18
100
AcDbLine
 10
181.2568807339
 20
78.3587890337
 30
0.0
 11
265.6605504587
 21
78.3587890337
 31
0.0
  0
LINE
  5
14C
330
1F
100
AcDbEntity
  8
0
  6
HIDDEN
 62
     7
370
    18
100
AcDbLine
 10
265.6605504587
 20
76.8284609217
 30
0.0
 11
265.6605504587
 21
73.9154073856
 31
0.0
  0
LINE
  5
14D
330
1F
100
AcDbEntity
  8
0
  6
HIDDEN
 62
     7
370
    18
100
AcDbLine
 10
273.0
 20
40.0812773548
 30
0.0
 11
265.6605504587
 21
40.0812773548
 31
0.0
  0
LINE
  5
14E
330
1F
100
AcDbEntity
  8
0
  6
HIDDEN
 62
     7
370
    18
100
AcDbLine
 10
267.495412844
 20
18.8763732089
 30
0.0
 11
273.0
 21
18.8763732089
 31
0.0
  0
SPLINE
  5
14F
330
1F
100
AcDbEntity
  8
0
  6
HIDDEN
 62
     7
370
    18
100
AcDbSpline
210
0.0
220
0.0
230
1.0
 70
     8
 71
     3
 72
    18
 73
    14
 74
     0
 42
0.00000001
 43
0.00000001
 40
0.0
 40
0.0
 40
0.0
 40
0.0
 40
0.1250000000000003
 40
0.1250000000000003
 40
0.2500000000000006
 40
0.2500000000000006
 40
0.3750000000000008
 40
0.3750000000000008
 40
0.5000000000000011
 40
0.5000000000000011
 40
0.7500000000000006
 40
0.7500000000000006
 40
1.0
 40
1.0
 40
1.0
 40
1.0
 10
267.4954128440367
 20
18.87637320888519
 30
0.0
 10
267.3530861688509
 20
18.87637320888519
 30
0.0
 10
267.2143617913361
 20
18.86830310083705
 30
0.0
 10
266.9436724687997
 20
18.83692410131051
 30
0.0
 10
266.8130940070345
 20
18.8134997197501
 30
0.0
 10
266.5730340541722
 20
18.75462657295306
 30
0.0
 10
266.4608644959634
 20
18.71850449040954
 30
0.0
 10
266.261537480291
 20
18.63771513391967
 30
0.0
 10
266.1724394197848
 20
18.59241316657242
 30
0.0
 10
265.9398850555209
 20
18.44676342729573
 30
0.0
 10
265.8317607029766
 20
18.33801878851584
 30
0.0
 10
265.6915265087389
 20
18.1075138757512
 30
0.0
 10
265.6605504587156
 20
17.98841141935206
 30
0.0
 10
265.6605504587156
 20
17.86577565370551
 30
0.0
  0
LINE
  5
150
330
1F
100
AcDbEntity
  8
0
  6
HIDDEN
 62
     7
370
    18
100
AcDbLine
 10
265.6605504587
 20
73.9154073856
 30
0.0
 11
273.0
 21
73.9154073856
 31
0.0
  0
SPLINE
  5
151
330
1F
100
AcDbEntity
  8
0
  6
HIDDEN
 62
     7
370
    18
100
AcDbSpline
210
0.0
220
0.0
230
1.0
 70
     8
 71
     3
 72
    18
 73
    14
 74
     0
 42
0.00000001
 43
0.00000001
 40
-1.6201066648509
 40
-1.6201066648509
 40
-1.6201066648509
 40
-1.6201066648509
 40
-1.54700484728813
 40
-1.54700484728813
 40
-1.4780651809732
 40
-1.4780651809732
 40
-1.38918206688914
 40
-1.38918206688914
 40
-1.3150028294011
 40
-1.3150028294011
 40
-1.24633401327929
 40
-1.24633401327929
 40
-1.2392156027893
 40
-1.2392156027893
 40
-1.2392156027893
 40
-1.2392156027893
 10
265.6605504587156
 20
96.15434098367054
 30
0.0
 10
265.6605504587156
 20
96.05769284321688
 30
0.0
 10
265.6804570646211
 20
95.96184560362688
 30
0.0
 10
265.764690916468
 20
95.78169389613421
 30
0.0
 10
265.826208131026
 20
95.69761680749228
 30
0.0
 10
266.0183535975445
 20
95.51816416007696
 30
0.0
 10
266.1636451020587
 20
95.42680800202292
 30
0.0
 10
266.4994258293684
 20
95.2882857876265
 30
0.0
 10
266.6755525022473
 20
95.23755487167706
 30
0.0
 10
267.0504863896632
 20
95.1698377190776
 30
0.0
 10
267.2412821295595
 20
95.1515993354553
 30
0.0
 10
267.4553295270028
 20
95.14813587276
 30
0.0
 10
267.4753947186751
 20
95.14797439201504
 30
0.0
 10
267.4954128440367
 20
95.14797439201504
 30
0.0
  0
LINE
  5
152
330
1F
100
AcDbEntity
  8
0
  6
HIDDEN
 62
     7
370
    18
100
AcDbLine
 10
273.0
 20
95.147974392
 30
0.0
 11
267.495412844
 21
95.147974392
 31
0.0
  0
LINE
  5
153
330
1F
100
AcDbEntity
  8
0
  6
HIDDEN
 62
     7
370
    18
100
AcDbLine
 10
181.2568807339
 20
24.7311465825
 30
0.0
 11
265.6605504587
 21
24.7311465825
 31
0.0
  0
LINE
  5
154
330
1F
100
AcDbEntity
  8
0
  6
HIDDEN
 62
     7
370
    18
100
AcDbLine
 10
273.0
 20
26.5571014081
 30
0.0
 11
265.6605504587
 21
26.5571014081
 31
0.0
  0
LINE
  5
155
330
1F
100
AcDbEntity
  8
0
  6
HIDDEN
 62
     7
370
    18
100
AcDbLine
 10
265.6605504587
 20
30.1730308591
 30
0.0
 11
273.0
 21
30.1730308591
 31
0.0
  0
LINE
  5
156
330
1F
100
AcDbEntity
  8
0
  6
HIDDEN
 62
     7
370
    18
100
AcDbLine
 10
181.2568807339
 20
29.1059268041
 30
0.0
 11
265.6605504587
 21
29.1059268041
 31
0.0
  0
LINE
  5
157
330
1F
100
AcDbEntity
  8
0
  6
HIDDEN
 62
     7
370
    18
100
AcDbLine
 10
181.2568807339
 20
89.2838830377
 30
0.0
 11
265.6605504587
 21
89.2838830377
 31
0.0
  0
LINE
  5
158
330
1F
100
AcDbEntity
  8
0
  6
HIDDEN
 62
     7
370
    18
100
AcDbLine
 10
265.6605504587
 20
87.4660205843
 30
0.0
 11
273.0
 21
87.4660205843
 31
0.0
  0
LINE
  5
159
330
1F
100
AcDbEntity
  8
0
  6
HIDDEN
 62
     7
370
    18
100
AcDbLine
 10
273.0
 20
83.8733545673
 30
0.0
 11
265.6605504587
 21
83.8733545673
 31
0.0
  0
LINE
  5
15A
330
1F
100
AcDbEntity
  8
0
  6
HIDDEN
 62
     7
370
    18
100
AcDbLine
 10
181.2568807339
 20
84.9318813652
 30
0.0
 11
265.6605504587
 21
84.9318813652
 31
0.0
  0
SPLINE
  5
15B
330
1F
100
AcDbEntity
  8
0
  6
HIDDEN
 62
     7
370
    18
100
AcDbSpline
210
0.0
220
0.0
230
1.0
 70
     8
 71
     3
 72
    18
 73
    14
 74
     0
 42
0.00000001
 43
0.00000001
 40
-1.63450040005153
 40
-1.63450040005153
 40
-1.63450040005153
 40
-1.63450040005153
 40
-1.55731901720911
 40
-1.55731901720911
 40
-1.48494931415095
 40
-1.48494931415095
 40
-1.39660266076378
 40
-1.39660266076378
 40
-1.32383685687374
 40
-1.32383685687374
 40
-1.25691113611637
 40
-1.25691113611637
 40
-1.2515946030085
 40
-1.2515946030085
 40
-1.2515946030085
 40
-1.2515946030085
 10
265.6605504587156
 20
31.24687845728404
 30
0.0
 10
265.6605504587156
 20
31.47397262142018
 30
0.0
 10
265.6819849598521
 20
31.70204758611587
 30
0.0
 10
265.7728364476684
 20
32.13384089914899
 30
0.0
 10
265.8390553148085
 20
32.33733385348101
 30
0.0
 10
266.0406481618102
 20
32.76153259765459
 30
0.0
 10
266.1879586029852
 20
32.97572989355834
 30
0.0
 10
266.5250266271645
 20
33.30033845554183
 30
0.0
 10
266.6999978843659
 20
33.4195884057378
 30
0.0
 10
267.0710243332846
 20
33.57753780864329
 30
0.0
 10
267.2589307018509
 20
33.61959438169862
 30
0.0
 10
267.4651379906708
 20
33.6258221696144
 30
0.0
 10
267.4802891695602
 20
33.62605006749513
 30
0.0
 10
267.4954128440367
 20
33.62605006749513
 30
0.0
  0
LINE
  5
15C
330
1F
100
AcDbEntity
  8
0
  6
HIDDEN
 62
     7
370
    18
100
AcDbLine
 10
273.0
 20
33.6260500675
 30
0.0
 11
267.495412844
 21
33.6260500675
 31
0.0
  0
LINE
  5
15D
330
1F
100
AcDbEntity
  8
0
  6
HIDDEN
 62
     7
370
    18
100
AcDbLine
 10
267.495412844
 20
80.3739499325
 30
0.0
 11
273.0
 21
80.3739499325
 31
0.0
  0
SPLINE
  5
15E
330
1F
100
AcDbEntity
  8
0
  6
HIDDEN
 62
     7
370
    18
100
AcDbSpline
210
0.0
220
0.0
230
1.0
 70
     8
 71
     3
 72
    20
 73
    16
 74
     0
 42
0.00000001
 43
0.00000001
 40
0.0
 40
0.0
 40
0.0
 40
0.0
 40
0.1249999999999996
 40
0.1249999999999996
 40
0.2499999999999993
 40
0.2499999999999993
 40
0.3749999999999989
 40
0.3749999999999989
 40
0.4999999999999986
 40
0.4999999999999986
 40
0.6249999999999982
 40
0.6249999999999982
 40
0.7499999999999978
 40
0.7499999999999978
 40
1.0
 40
1.0
 40
1.0
 40
1.0
 10
267.4954128440367
 20
80.37394993250493
 30
0.0
 10
267.3515717481264
 20
80.37394993250493
 30
0.0
 10
267.2114906735169
 20
80.39425461795086
 30
0.0
 10
266.9383625462522
 20
80.4728295714135
 30
0.0
 10
266.8071742743893
 20
80.53120375549123
 30
0.0
 10
266.5662388530432
 20
80.6768497148851
 30
0.0
 10
266.4541287539255
 20
80.76559625066521
 30
0.0
 10
266.255400563045
 20
80.96212827435659
 30
0.0
 10
266.1666088569108
 20
81.07180513335945
 30
0.0
 10
266.0130901735563
 20
81.30350488340952
 30
0.0
 10
265.948393647747
 20
81.42491016702748
 30
0.0
 10
265.8393001269377
 20
81.67701861429506
 30
0.0
 10
265.7947365988863
 20
81.80875231505053
 30
0.0
 10
265.6910965661277
 20
82.20767191023673
 30
0.0
 10
265.6605504587156
 20
82.47850914967543
 30
0.0
 10
265.6605504587156
 20
82.75312154271592
 30
0.0
  0
LINE
  5
15F
330
1F
100
AcDbEntity
  8
0
  6
HIDDEN
 62
     7
370
    18
100
AcDbLine
 10
273.0
 20
79.6138564712
 30
0.0
 11
265.6605504587
 21
79.6138564712
 31
0.0
  0
LINE
  5
160
330
1F
100
AcDbEntity
  8
0
  6
HIDDEN
 62
     7
370
    18
100
AcDbLine
 10
265.6605504587
 20
34.3861435288
 30
0.0
 11
273.0
 21
34.3861435288
 31
0.0
  0
LINE
  5
161
330
1F
100
AcDbEntity
  8
0
  6
HIDDEN
 62
     7
370
    18
100
AcDbLine
 10
181.2568807339
 20
84.0680244351
 30
0.0
 11
265.6605504587
 21
84.0680244351
 31
0.0
  0
LINE
  5
162
330
1F
100
AcDbEntity
  8
0
  6
HIDDEN
 62
     7
370
    18
100
AcDbLine
 10
181.2568807339
 20
29.9319755649
 30
0.0
 11
265.6605504587
 21
29.9319755649
 31
0.0
  0
LINE
  5
163
330
1F
100
AcDbEntity
  8
0
  6
HIDDEN
 62
     7
370
    18
100
AcDbLine
 10
273.0
 20
24.3219369779
 30
0.0
 11
181.2568807339
 21
24.3219369779
 31
0.0
  0
LINE
  5
164
330
1F
100
AcDbEntity
  8
0
  6
HIDDEN
 62
     7
370
    18
100
AcDbLine
 10
181.2568807339
 20
89.7523917837
 30
0.0
 11
273.0
 21
89.7523917837
 31
0.0
  0
LINE
  5
165
330
1F
100
AcDbEntity
  8
0
  6
HIDDEN
 62
     7
370
    18
100
AcDbLine
 10
273.0
 20
31.6613865192
 30
0.0
 11
181.2568807339
 21
31.6613865192
 31
0.0
  0
LINE
  5
166
330
1F
100
AcDbEntity
  8
0
  6
HIDDEN
 62
     7
370
    18
100
AcDbLine
 10
181.2568807339
 20
82.4129422424
 30
0.0
 11
273.0
 21
82.4129422424
 31
0.0
  0
LINE
  5
167
330
1F
100
AcDbEntity
  8
0
  6
HIDDEN
 62
     7
370
    18
100
AcDbLine
 10
181.2568807339
 20
25.1651376147
 30
0.0
 11
176.7809322286
 21
25.1651376147
 31
0.0
  0
LINE
  5
168
330
1F
100
AcDbEntity
  8
0
  6
HIDDEN
 62
     7
370
    18
100
AcDbLine
 10
176.7809322286
 20
88.8348623853
 30
0.0
 11
181.2568807339
 21
88.8348623853
 31
0.0
  0
LINE
  5
169
330
1F
100
AcDbEntity
  8
0
  6
HIDDEN
 62
     7
370
    18
100
AcDbLine
 10
175.1112895427
 20
89.4425626248
 30
0.0
 11
176.7809322286
 21
88.8348623853
 31
0.0
  0
LINE
  5
16A
330
1F
100
AcDbEntity
  8
0
  6
HIDDEN
 62
     7
370
    18
100
AcDbLine
 10
176.7809322286
 20
25.1651376147
 30
0.0
 11
175.1414995643
 21
24.5684329238
 31
0.0
  0
ENDSEC
  0
SECTION
  2
OBJECTS
  0
DICTIONARY
  5
C
330
0
100
AcDbDictionary
281
     1
  3
ACAD_GROUP
350
D
  3
ACAD_LAYOUT
350
1A
  3
ACAD_MLINESTYLE
350
17
  3
ACAD_PLOTSETTINGS
350
19
  3
ACAD_PLOTSTYLENAME
350
E
  3
ACAD_SCALELIST
350
47
  3
DWGPROPS
350
16B
  0
DICTIONARY
  5
D
102
{ACAD_REACTORS
330
C
102
}
330
C
100
AcDbDictionary
281
     1
  0
DICTIONARY
  5
1A
102
{ACAD_REACTORS
330
C
102
}
330
C
100
AcDbDictionary
281
     1
  3
Layout1
350
1E
  3
Layout2
350
26
  3
Model
350
22
  0
DICTIONARY
  5
17
102
{ACAD_REACTORS
330
C
102
}
330
C
100
AcDbDictionary
281
     1
  3
Standard
350
18
  0
DICTIONARY
  5
19
102
{ACAD_REACTORS
330
C
102
}
330
C
100
AcDbDictionary
281
     1
  0
ACDBDICTIONARYWDFLT
  5
E
102
{ACAD_REACTORS
330
C
102
}
330
C
100
AcDbDictionary
281
     1
  3
Normal
350
F
100
AcDbDictionaryWithDefault
340
F
  0
DICTIONARY
  5
47
102
{ACAD_REACTORS
330
C
102
}
330
C
100
AcDbDictionary
281
     1
  3
A0
350
48
  3
A1
350
49
  3
A2
350
4A
  3
A3
350
4B
  3
A4
350
4C
  3
A5
350
4D
  3
A6
350
4E
  3
A7
350
4F
  3
A8
350
50
  3
A9
350
51
  3
B0
350
52
  3
B1
350
53
  3
B2
350
54
  3
B3
350
55
  3
B4
350
56
  3
B5
350
57
  3
B6
350
58
  0
XRECORD
  5
16B
102
{ACAD_REACTORS
330
C
102
}
330
C
100
AcDbXrecord
280
     1
  1
DWGPROPS COOKIE
  2

  3

  4

  6

  7

  8

  9

300
=
301
=
302
=
303
=
304
=
305
=
306
=
307
=
308
=
309
=
 40
0.0
 41
2461214.971667153
 42
2461214.971667442
  1

 90
        0
  0
LAYOUT
  5
1E
102
{ACAD_REACTORS
330
1A
102
}
330
1A
100
AcDbPlotSettings
  1

  2
none_device
  4

  6

 40
0.0
 41
0.0
 42
0.0
 43
0.0
 44
0.0
 45
0.0
 46
0.0
 47
0.0
 48
0.0
 49
0.0
140
0.0
141
0.0
142
1.0
143
1.0
 70
   688
 72
     1
 73
     0
 74
     5
  7

 75
    16
147
1.0
148
0.0
149
0.0
100
AcDbLayout
  1
Layout1
 70
     1
 71
     1
 10
0.0
 20
0.0
 11
420.0
 21
297.0
 12
0.0
 22
0.0
 32
0.0
 14
1.0000000000E+20
 24
1.0000000000E+20
 34
1.0000000000E+20
 15
-1.0000000000E+20
 25
-1.0000000000E+20
 35
-1.0000000000E+20
146
0.0
 13
0.0
 23
0.0
 33
0.0
 16
1.0
 26
0.0
 36
0.0
 17
0.0
 27
1.0
 37
0.0
 76
     0
330
1B
  0
LAYOUT
  5
26
102
{ACAD_REACTORS
330
1A
102
}
330
1A
100
AcDbPlotSettings
  1

  2
none_device
  4

  6

 40
0.0
 41
0.0
 42
0.0
 43
0.0
 44
0.0
 45
0.0
 46
0.0
 47
0.0
 48
0.0
 49
0.0
140
0.0
141
0.0
142
1.0
143
1.0
 70
   688
 72
     1
 73
     0
 74
     5
  7

 75
    16
147
1.0
148
0.0
149
0.0
100
AcDbLayout
  1
Layout2
 70
     1
 71
     2
 10
0.0
 20
0.0
 11
0.0
 21
0.0
 12
0.0
 22
0.0
 32
0.0
 14
0.0
 24
0.0
 34
0.0
 15
0.0
 25
0.0
 35
0.0
146
0.0
 13
0.0
 23
0.0
 33
0.0
 16
1.0
 26
0.0
 36
0.0
 17
0.0
 27
1.0
 37
0.0
 76
     0
330
23
  0
LAYOUT
  5
22
102
{ACAD_REACTORS
330
1A
102
}
330
1A
100
AcDbPlotSettings
  1

  2
none_device
  4
Letter_(8.50_x_11.00_Inches)
  6

 40
6.35
 41
6.35
 42
6.35000508
 43
6.35000508
 44
215.9
 45
279.4
 46
0.0
 47
0.0
 48
0.0
 49
0.0
140
0.0
141
0.0
142
1.0
143
1.0
 70
  1712
 72
     1
 73
     0
 74
     0
  7

 75
     0
147
1.0
148
0.0
149
0.0
100
AcDbLayout
  1
Model
 70
     1
 71
     0
 10
0.0
 20
0.0
 11
297.0
 21
210.0
 12
0.0
 22
0.0
 32
0.0
 14
0.0
 24
0.0
 34
0.0
 15
297.0
 25
210.0
 35
0.0
146
0.0
 13
0.0
 23
0.0
 33
0.0
 16
1.0
 26
0.0
 36
0.0
 17
0.0
 27
1.0
 37
0.0
 76
     0
330
1F
331
29
  0
MLINESTYLE
  5
18
102
{ACAD_REACTORS
330
17
102
}
330
17
100
AcDbMlineStyle
  2
Standard
 70
     0
  3

 62
   256
 51
90.0
 52
90.0
 71
     2
 49
0.5
 62
   256
  6
BYLAYER
 49
-0.5
 62
   256
  6
BYLAYER
  0
ACDBPLACEHOLDER
  5
F
102
{ACAD_REACTORS
330
E
102
}
330
E
  0
SCALE
  5
48
102
{ACAD_REACTORS
330
47
102
}
330
47
100
AcDbScale
 70
     0
300
1:1
140
1.0
141
1.0
290
     1
  0
SCALE
  5
49
102
{ACAD_REACTORS
330
47
102
}
330
47
100
AcDbScale
 70
     0
300
1:2
140
1.0
141
2.0
290
     0
  0
SCALE
  5
4A
102
{ACAD_REACTORS
330
47
102
}
330
47
100
AcDbScale
 70
     0
300
1:4
140
1.0
141
4.0
290
     0
  0
SCALE
  5
4B
102
{ACAD_REACTORS
330
47
102
}
330
47
100
AcDbScale
 70
     0
300
1:5
140
1.0
141
5.0
290
     0
  0
SCALE
  5
4C
102
{ACAD_REACTORS
330
47
102
}
330
47
100
AcDbScale
 70
     0
300
1:8
140
1.0
141
8.0
290
     0
  0
SCALE
  5
4D
102
{ACAD_REACTORS
330
47
102
}
330
47
100
AcDbScale
 70
     0
300
1:10
140
1.0
141
10.0
290
     0
  0
SCALE
  5
4E
102
{ACAD_REACTORS
330
47
102
}
330
47
100
AcDbScale
 70
     0
300
1:16
140
1.0
141
16.0
290
     0
  0
SCALE
  5
4F
102
{ACAD_REACTORS
330
47
102
}
330
47
100
AcDbScale
 70
     0
300
1:20
140
1.0
141
20.0
290
     0
  0
SCALE
  5
50
102
{ACAD_REACTORS
330
47
102
}
330
47
100
AcDbScale
 70
     0
300
1:30
140
1.0
141
30.0
290
     0
  0
SCALE
  5
51
102
{ACAD_REACTORS
330
47
102
}
330
47
100
AcDbScale
 70
     0
300
1:40
140
1.0
141
40.0
290
     0
  0
SCALE
  5
52
102
{ACAD_REACTORS
330
47
102
}
330
47
100
AcDbScale
 70
     0
300
1:50
140
1.0
141
50.0
290
     0
  0
SCALE
  5
53
102
{ACAD_REACTORS
330
47
102
}
330
47
100
AcDbScale
 70
     0
300
1:100
140
1.0
141
100.0
290
     0
  0
SCALE
  5
54
102
{ACAD_REACTORS
330
47
102
}
330
47
100
AcDbScale
 70
     0
300
2:1
140
2.0
141
1.0
290
     0
  0
SCALE
  5
55
102
{ACAD_REACTORS
330
47
102
}
330
47
100
AcDbScale
 70
     0
300
4:1
140
4.0
141
1.0
290
     0
  0
SCALE
  5
56
102
{ACAD_REACTORS
330
47
102
}
330
47
100
AcDbScale
 70
     0
300
8:1
140
8.0
141
1.0
290
     0
  0
SCALE
  5
57
102
{ACAD_REACTORS
330
47
102
}
330
47
100
AcDbScale
 70
     0
300
10:1
140
10.0
141
1.0
290
     0
  0
SCALE
  5
58
102
{ACAD_REACTORS
330
47
102
}
330
47
100
AcDbScale
 70
     0
300
100:1
140
100.0
141
1.0
290
     0
  0
ENDSEC
  0
EOF
