  0
SECTION
  2
HEADER
  9
$ACADVER
  1
AC1015
  9
$ACADMAINTVER
 70
     6
  9
$DWGCODEPAGE
  3
ANSI_936
  9
$INSBASE
 10
0.0
 20
0.0
 30
0.0
  9
$EXTMIN
 10
0.0
 20
0.0
 30
0.0
  9
$EXTMAX
 10
297.0
 20
210.0
 30
0.0
  9
$LIMMIN
 10
0.0
 20
0.0
  9
$LIMMAX
 10
297.0
 20
210.0
  9
$ORTHOMODE
 70
     0
  9
$REGENMODE
 70
     1
  9
$FILLMODE
 70
     1
  9
$QTEXTMODE
 70
     0
  9
$MIRRTEXT
 70
     1
  9
$LTSCALE
 40
1.0
  9
$ATTMODE
 70
     1
  9
$TEXTSIZE
 40
3.5
  9
$TRACEWID
 40
1.0
  9
$TEXTSTYLE
  7
Standard
  9
$CLAYER
  8
0
  9
$CELTYPE
  6
ByLayer
  9
$CECOLOR
 62
   256
  9
$CELTSCALE
 40
1.0
  9
$DISPSILH
 70
     0
  9
$DIMSCALE
 40
1.0
  9
$DIMASZ
 40
4.08
  9
$DIMEXO
 40
0.0
  9
$DIMDLI
 40
3.75
  9
$DIMRND
 40
0.0
  9
$DIMDLE
 40
0.0
  9
$DIMEXE
 40
2.0
  9
$DIMTP
 40
0.0
  9
$DIMTM
 40
0.0
  9
$DIMTXT
 40
3.5
  9
$DIMCEN
 40
2.5
  9
$DIMTSZ
 40
0.0
  9
$DIMTOL
 70
     0
  9
$DIMLIM
 70
     0
  9
$DIMTIH
 70
     1
  9
$DIMTOH
 70
     1
  9
$DIMSE1
 70
     0
  9
$DIMSE2
 70
     0
  9
$DIMTAD
 70
     1
  9
$DIMZIN
 70
     0
  9
$DIMBLK
  1

  9
$DIMASO
 70
     1
  9
$DIMSHO
 70
     1
  9
$DIMPOST
  1

  9
$DIMAPOST
  1

  9
$DIMALT
 70
     0
  9
$DIMALTD
 70
     3
  9
$DIMALTF
 40
0.0393700787
  9
$DIMLFAC
 40
2.0
  9
$DIMTOFL
 70
     1
  9
$DIMTVP
 40
0.0
  9
$DIMTIX
 70
     0
  9
$DIMSOXD
 70
     0
  9
$DIMSAH
 70
     0
  9
$DIMBLK1
  1

  9
$DIMBLK2
  1

  9
$DIMSTYLE
  2
ISO-25
  9
$DIMCLRD
 70
     0
  9
$DIMCLRE
 70
     0
  9
$DIMCLRT
 70
     0
  9
$DIMTFAC
 40
1.0
  9
$DIMGAP
 40
1.524
  9
$DIMJUST
 70
     0
  9
$DIMSD1
 70
     0
  9
$DIMSD2
 70
     0
  9
$DIMTOLJ
 70
     0
  9
$DIMTZIN
 70
     0
  9
$DIMALTZ
 70
     0
  9
$DIMALTTZ
 70
     0
  9
$DIMUPT
 70
     0
  9
$DIMDEC
 70
     2
  9
$DIMTDEC
 70
     2
  9
$DIMALTU
 70
     2
  9
$DIMALTTD
 70
     3
  9
$DIMTXSTY
  7
Standard
  9
$DIMAUNIT
 70
     0
  9
$DIMADEC
 70
     2
  9
$DIMALTRND
 40
0.0
  9
$DIMAZIN
 70
     0
  9
$DIMDSEP
 70
    44
  9
$DIMATFIT
 70
     3
  9
$DIMFRAC
 70
     0
  9
$DIMLDRBLK
  1

  9
$DIMLUNIT
 70
     2
  9
$DIMLWD
 70
    -2
  9
$DIMLWE
 70
    -2
  9
$DIMTMOVE
 70
     0
  9
$LUNITS
 70
     2
  9
$LUPREC
 70
     2
  9
$SKETCHINC
 40
1.0
  9
$FILLETRAD
 40
0.0
  9
$AUNITS
 70
     0
  9
$AUPREC
 70
     2
  9
$MENU
  1
.
  9
$ELEVATION
 40
0.0
  9
$PELEVATION
 40
0.0
  9
$THICKNESS
 40
0.0
  9
$LIMCHECK
 70
     0
  9
$CHAMFERA
 40
0.0
  9
$CHAMFERB
 40
0.0
  9
$CHAMFERC
 40
0.0
  9
$CHAMFERD
 40
0.0
  9
$SKPOLY
 70
     0
  9
$TDCREATE
 40
2461215.322569526
  9
$TDUCREATE
 40
2461214.989236193
  9
$TDUPDATE
 40
2461215.322569815
  9
$TDUUPDATE
 40
2461214.989236482
  9
$TDINDWG
 40
0.0000000116
  9
$TDUSRTIMER
 40
0.0000000116
  9
$USRTIMER
 70
     1
  9
$ANGBASE
 50
0.0
  9
$ANGDIR
 70
     0
  9
$PDMODE
 70
     0
  9
$PDSIZE
 40
-1.0
  9
$PLINEWID
 40
0.0
  9
$SPLFRAME
 70
     0
  9
$SPLINETYPE
 70
     6
  9
$SPLINESEGS
 70
     8
  9
$HANDSEED
  5
DB
  9
$SURFTAB1
 70
     6
  9
$SURFTAB2
 70
     6
  9
$SURFTYPE
 70
     6
  9
$SURFU
 70
     6
  9
$SURFV
 70
     6
  9
$UCSBASE
  2

  9
$UCSNAME
  2

  9
$UCSORG
 10
0.0
 20
0.0
 30
0.0
  9
$UCSXDIR
 10
1.0
 20
0.0
 30
0.0
  9
$UCSYDIR
 10
0.0
 20
1.0
 30
0.0
  9
$UCSORTHOREF
  2

  9
$UCSORTHOVIEW
 70
     0
  9
$UCSORGTOP
 10
0.0
 20
0.0
 30
0.0
  9
$UCSORGBOTTOM
 10
0.0
 20
0.0
 30
0.0
  9
$UCSORGLEFT
 10
0.0
 20
0.0
 30
0.0
  9
$UCSORGRIGHT
 10
0.0
 20
0.0
 30
0.0
  9
$UCSORGFRONT
 10
0.0
 20
0.0
 30
0.0
  9
$UCSORGBACK
 10
0.0
 20
0.0
 30
0.0
  9
$PUCSBASE
  2

  9
$PUCSNAME
  2

  9
$PUCSORG
 10
0.0
 20
0.0
 30
0.0
  9
$PUCSXDIR
 10
1.0
 20
0.0
 30
0.0
  9
$PUCSYDIR
 10
0.0
 20
1.0
 30
0.0
  9
$PUCSORTHOREF
  2

  9
$PUCSORTHOVIEW
 70
     0
  9
$PUCSORGTOP
 10
0.0
 20
0.0
 30
0.0
  9
$PUCSORGBOTTOM
 10
0.0
 20
0.0
 30
0.0
  9
$PUCSORGLEFT
 10
0.0
 20
0.0
 30
0.0
  9
$PUCSORGRIGHT
 10
0.0
 20
0.0
 30
0.0
  9
$PUCSORGFRONT
 10
0.0
 20
0.0
 30
0.0
  9
$PUCSORGBACK
 10
0.0
 20
0.0
 30
0.0
  9
$USERI1
 70
     0
  9
$USERI2
 70
     0
  9
$USERI3
 70
     0
  9
$USERI4
 70
     0
  9
$USERI5
 70
     0
  9
$USERR1
 40
0.0
  9
$USERR2
 40
0.0
  9
$USERR3
 40
0.0
  9
$USERR4
 40
0.0
  9
$USERR5
 40
0.0
  9
$WORLDVIEW
 70
     1
  9
$SHADEDGE
 70
     3
  9
$SHADEDIF
 70
    70
  9
$TILEMODE
 70
     1
  9
$MAXACTVP
 70
    64
  9
$PINSBASE
 10
0.0
 20
0.0
 30
0.0
  9
$PLIMCHECK
 70
     0
  9
$PEXTMIN
 10
1.0000000000E+20
 20
1.0000000000E+20
 30
1.0000000000E+20
  9
$PEXTMAX
 10
-1.0000000000E+20
 20
-1.0000000000E+20
 30
-1.0000000000E+20
  9
$PLIMMIN
 10
0.0
 20
0.0
  9
$PLIMMAX
 10
420.0
 20
297.0
  9
$UNITMODE
 70
     0
  9
$VISRETAIN
 70
     1
  9
$PLINEGEN
 70
     0
  9
$PSLTSCALE
 70
     1
  9
$TREEDEPTH
 70
  3020
  9
$CMLSTYLE
  2
Standard
  9
$CMLJUST
 70
     0
  9
$CMLSCALE
 40
20.0
  9
$PROXYGRAPHICS
 70
     1
  9
$MEASUREMENT
 70
     1
  9
$CELWEIGHT
370
    -1
  9
$ENDCAPS
280
     0
  9
$JOINSTYLE
280
     0
  9
$LWDISPLAY
290
     1
  9
$INSUNITS
 70
     4
  9
$HYPERLINKBASE
  1

  9
$STYLESHEET
  1

  9
$XEDIT
290
     1
  9
$CEPSNTYPE
380
     0
  9
$PSTYLEMODE
290
     1
  9
$FINGERPRINTGUID
  2
{7945b187-eb00-4d43-ab34-928769770abb}
  9
$VERSIONGUID
  2
{FAEB1C32-E019-11D5-929B-00C0DF256EC4}
  9
$EXTNAMES
290
     1
  9
$PSVPSCALE
 40
0.0
  9
$OLESTARTUP
290
     0
  0
ENDSEC
  0
SECTION
  2
CLASSES
  0
CLASS
  1
ACDBDICTIONARYWDFLT
  2
AcDbDictionaryWithDefault
  3
ObjectDBX Classes
 90
        0
280
     0
281
     0
  0
CLASS
  1
VISUALSTYLE
  2
AcDbVisualStyle
  3
ObjectDBX Classes
 90
     4095
280
     0
281
     0
  0
CLASS
  1
MATERIAL
  2
AcDbMaterial
  3
ObjectDBX Classes
 90
     1153
280
     0
281
     0
  0
CLASS
  1
SCALE
  2
AcDbScale
  3
ObjectDBX Classes
 90
     1153
280
     0
281
     0
  0
CLASS
  1
TABLESTYLE
  2
AcDbTableStyle
  3
ObjectDBX Classes
 90
     4095
280
     0
281
     0
  0
CLASS
  1
MLEADERSTYLE
  2
AcDbMLeaderStyle
  3
ACDB_MLEADERSTYLE_CLASS
 90
     4095
280
     0
281
     0
  0
CLASS
  1
SUN
  2
AcDbSun
  3
SCENEOE
 90
     1153
280
     0
281
     0
  0
CLASS
  1
ACDBPLACEHOLDER
  2
AcDbPlaceHolder
  3
ObjectDBX Classes
 90
        0
280
     0
281
     0
  0
CLASS
  1
LAYOUT
  2
AcDbLayout
  3
ObjectDBX Classes
 90
        0
280
     0
281
     0
  0
ENDSEC
  0
SECTION
  2
TABLES
  0
TABLE
  2
VPORT
  5
8
330
0
100
AcDbSymbolTable
 70
     1
  0
VPORT
  5
29
330
8
100
AcDbSymbolTableRecord
100
AcDbViewportTableRecord
  2
*Active
 70
     0
 10
0.0
 20
0.0
 11
1.0
 21
1.0
 12
148.5
 22
105.0
 13
0.0
 23
0.0
 14
10.0
 24
10.0
 15
10.0
 25
10.0
 16
0.0
 26
0.0
 36
1.0
 17
0.0
 27
0.0
 37
0.0
 40
210.0
 41
1.4142857143
 42
50.0
 43
0.0
 44
0.0
 50
0.0
 51
0.0
 71
     0
 72
  2000
 73
     1
 74
     3
 75
     0
 76
     0
 77
     0
 78
     0
281
     0
 65
     1
110
0.0
120
0.0
130
0.0
111
1.0
121
0.0
131
0.0
112
0.0
122
1.0
132
0.0
 79
     0
146
0.0
  0
ENDTAB
  0
TABLE
  2
LTYPE
  5
5
330
0
100
AcDbSymbolTable
 70
     6
  0
LTYPE
  5
14
330
5
100
AcDbSymbolTableRecord
100
AcDbLinetypeTableRecord
  2
ByBlock
 70
     0
  3

 72
    65
 73
     0
 40
0.0
  0
LTYPE
  5
15
330
5
100
AcDbSymbolTableRecord
100
AcDbLinetypeTableRecord
  2
ByLayer
 70
     0
  3

 72
    65
 73
     0
 40
0.0
  0
LTYPE
  5
16
330
5
100
AcDbSymbolTableRecord
100
AcDbLinetypeTableRecord
  2
Continuous
 70
     0
  3
Solid line
 72
    65
 73
     0
 40
0.0
  0
LTYPE
  5
5E
330
5
100
AcDbSymbolTableRecord
100
AcDbLinetypeTableRecord
  2
HIDDEN
 70
     0
  3
Hidden __ __ __ __ __ __ __ __ __ __ __ __ __ __
 72
    65
 73
     2
 40
1.905
 49
1.27
 74
     0
 49
-0.635
 74
     0
  0
LTYPE
  5
5F
330
5
100
AcDbSymbolTableRecord
100
AcDbLinetypeTableRecord
  2
PHANTOM
 70
     0
  3
Phantom ______  __  __  ______  __  __  ______
 72
    65
 73
     6
 40
12.7
 49
6.35
 74
     0
 49
-1.27
 74
     0
 49
1.27
 74
     0
 49
-1.27
 74
     0
 49
1.27
 74
     0
 49
-1.27
 74
     0
  0
LTYPE
  5
60
330
5
100
AcDbSymbolTableRecord
100
AcDbLinetypeTableRecord
  2
CENTER
 70
     0
  3
Center ____ _ ____ _ ____ _ ____ _ ____ _ ____
 72
    65
 73
     4
 40
10.16
 49
6.35
 74
     0
 49
-1.27
 74
     0
 49
1.27
 74
     0
 49
-1.27
 74
     0
  0
LTYPE
  5
61
330
5
100
AcDbSymbolTableRecord
100
AcDbLinetypeTableRecord
  2
CENTERX2
 70
     0
  3
Center (2x) ________  __  ________  __  _____
 72
    65
 73
     4
 40
20.32
 49
12.7
 74
     0
 49
-2.54
 74
     0
 49
2.54
 74
     0
 49
-2.54
 74
     0
  0
LTYPE
  5
62
330
5
100
AcDbSymbolTableRecord
100
AcDbLinetypeTableRecord
  2
DOT2
 70
     0
  3
Dot (.5x) ........................................
 72
    65
 73
     2
 40
0.635
 49
0.0
 74
     0
 49
-0.635
 74
     0
  0
ENDTAB
  0
TABLE
  2
LAYER
  5
2
330
0
100
AcDbSymbolTable
 70
    14
  0
LAYER
  5
10
330
2
100
AcDbSymbolTableRecord
100
AcDbLayerTableRecord
  2
0
 70
     0
 62
     7
  6
Continuous
370
    -3
390
F
  0
LAYER
  5
63
330
2
100
AcDbSymbolTableRecord
100
AcDbLayerTableRecord
  2
SLD-0
 70
     0
 62
     7
  6
Continuous
370
    -3
390
F
  0
LAYER
  5
64
330
2
100
AcDbSymbolTableRecord
100
AcDbLayerTableRecord
  2
5
 70
     0
 62
     7
  6
Continuous
370
    -3
390
F
  0
LAYER
  5
65
330
2
100
AcDbSymbolTableRecord
100
AcDbLayerTableRecord
  2
9
 70
     0
 62
     7
  6
Continuous
370
    -3
390
F
  0
LAYER
  5
66
330
2
100
AcDbSymbolTableRecord
100
AcDbLayerTableRecord
  2
10
 70
     0
 62
     7
  6
Continuous
370
    -3
390
F
  0
LAYER
  5
67
330
2
100
AcDbSymbolTableRecord
100
AcDbLayerTableRecord
  2
轮廓实线层
 70
     0
 62
     7
  6
Continuous
370
    50
390
F
  0
LAYER
  5
68
330
2
100
AcDbSymbolTableRecord
100
AcDbLayerTableRecord
  2
细线层
 70
     0
 62
     4
  6
Continuous
370
    25
390
F
  0
LAYER
  5
69
330
2
100
AcDbSymbolTableRecord
100
AcDbLayerTableRecord
  2
中心线层
 70
     0
 62
     1
  6
CENTERX2
370
    25
390
F
  0
LAYER
  5
6A
330
2
100
AcDbSymbolTableRecord
100
AcDbLayerTableRecord
  2
虚线层
 70
     0
 62
     6
  6
HIDDEN
370
    25
390
F
  0
LAYER
  5
6B
330
2
100
AcDbSymbolTableRecord
100
AcDbLayerTableRecord
  2
剖面线层
 70
     0
 62
     2
  6
Continuous
370
    25
390
F
  0
LAYER
  5
6C
330
2
100
AcDbSymbolTableRecord
100
AcDbLayerTableRecord
  2
文字层
 70
     0
 62
     3
  6
Continuous
370
    25
390
F
  0
LAYER
  5
6D
330
2
100
AcDbSymbolTableRecord
100
AcDbLayerTableRecord
  2
标注层
 70
     0
 62
     4
  6
Continuous
370
    25
390
F
  0
LAYER
  5
6E
330
2
100
AcDbSymbolTableRecord
100
AcDbLayerTableRecord
  2
符号标注层
 70
     0
 62
    31
  6
Continuous
370
    25
390
F
  0
LAYER
  5
6F
330
2
100
AcDbSymbolTableRecord
100
AcDbLayerTableRecord
  2
双点划线层
 70
     0
 62
     6
  6
PHANTOM
370
    25
390
F
  0
ENDTAB
  0
TABLE
  2
STYLE
  5
3
330
0
100
AcDbSymbolTable
 70
     1
  0
STYLE
  5
11
330
3
100
AcDbSymbolTableRecord
100
AcDbTextStyleTableRecord
  2
Standard
 70
     0
 40
0.0
 41
1.0
 50
0.0
 71
     0
 42
3.5
  3
txt
  4

  0
ENDTAB
  0
TABLE
  2
VIEW
  5
6
330
0
100
AcDbSymbolTable
 70
     0
  0
ENDTAB
  0
TABLE
  2
UCS
  5
7
330
0
100
AcDbSymbolTable
 70
     0
  0
ENDTAB
  0
TABLE
  2
APPID
  5
9
330
0
100
AcDbSymbolTable
 70
     1
  0
APPID
  5
12
330
9
100
AcDbSymbolTableRecord
100
AcDbRegAppTableRecord
  2
ACAD
 70
     0
  0
ENDTAB
  0
TABLE
  2
DIMSTYLE
  5
A
330
0
100
AcDbSymbolTable
 70
     1
100
AcDbDimStyleTable
  0
DIMSTYLE
105
27
330
A
100
AcDbSymbolTableRecord
100
AcDbDimStyleTableRecord
  2
ISO-25
 70
     0
 41
2.5
 42
0.625
 43
3.75
 44
1.25
 73
     0
 74
     0
 77
     1
 78
     8
140
2.5
141
2.5
143
0.0393700787
147
0.625
171
     3
172
     1
178
     0
271
     2
272
     2
274
     3
278
    44
283
     0
284
     8
340
11
  0
ENDTAB
  0
TABLE
  2
BLOCK_RECORD
  5
1
330
0
100
AcDbSymbolTable
 70
     3
  0
BLOCK_RECORD
  5
1F
330
1
100
AcDbSymbolTableRecord
100
AcDbBlockTableRecord
  2
*Model_Space
340
22
  0
BLOCK_RECORD
  5
1B
330
1
100
AcDbSymbolTableRecord
100
AcDbBlockTableRecord
  2
*Paper_Space
340
1E
  0
BLOCK_RECORD
  5
23
330
1
100
AcDbSymbolTableRecord
100
AcDbBlockTableRecord
  2
*Paper_Space0
340
26
  0
BLOCK_RECORD
  5
83
330
1
100
AcDbSymbolTableRecord
100
AcDbBlockTableRecord
  2
SW_CENTERMARKSYMBOL_0
340
0
102
{BLKREFS
331
8E
102
}
  0
BLOCK_RECORD
  5
CE
330
1
100
AcDbSymbolTableRecord
100
AcDbBlockTableRecord
  2
SW_CENTERMARKSYMBOL_1
340
0
102
{BLKREFS
331
D9
102
}
  0
ENDTAB
  0
ENDSEC
  0
SECTION
  2
BLOCKS
  0
BLOCK
  5
20
330
1F
100
AcDbEntity
  8
0
100
AcDbBlockBegin
  2
*Model_Space
 70
     0
 10
0.0
 20
0.0
 30
0.0
  3
*Model_Space
  1

  0
ENDBLK
  5
21
330
1F
100
AcDbEntity
  8
0
100
AcDbBlockEnd
  0
BLOCK
  5
1C
330
1B
100
AcDbEntity
 67
     1
  8
0
100
AcDbBlockBegin
  2
*Paper_Space
 70
     0
 10
0.0
 20
0.0
 30
0.0
  3
*Paper_Space
  1

  0
ENDBLK
  5
1D
330
1B
100
AcDbEntity
 67
     1
  8
0
100
AcDbBlockEnd
  0
BLOCK
  5
24
330
23
100
AcDbEntity
  8
0
100
AcDbBlockBegin
  2
*Paper_Space0
 70
     0
 10
0.0
 20
0.0
 30
0.0
  3
*Paper_Space0
  1

  0
ENDBLK
  5
25
330
23
100
AcDbEntity
  8
0
100
AcDbBlockEnd
  0
BLOCK
  5
84
330
83
100
AcDbEntity
  8
0
100
AcDbBlockBegin
  2
SW_CENTERMARKSYMBOL_0
 70
     0
 10
0.0
 20
0.0
 30
0.0
  3
SW_CENTERMARKSYMBOL_0
  1

  0
LINE
  5
86
330
83
100
AcDbEntity
  8
10
 62
     0
100
AcDbLine
 10
0.0
 20
0.0
 30
0.0
 11
0.0
 21
2.5
 31
0.0
  0
LINE
  5
87
330
83
100
AcDbEntity
  8
10
 62
     0
100
AcDbLine
 10
0.0
 20
0.0
 30
0.0
 11
-2.5
 21
0.0
 31
0.0
  0
LINE
  5
88
330
83
100
AcDbEntity
  8
10
 62
     0
100
AcDbLine
 10
0.0
 20
0.0
 30
0.0
 11
0.0
 21
-2.5
 31
0.0
  0
LINE
  5
89
330
83
100
AcDbEntity
  8
10
 62
     0
100
AcDbLine
 10
0.0
 20
0.0
 30
0.0
 11
2.5
 21
0.0
 31
0.0
  0
LINE
  5
8A
330
83
100
AcDbEntity
  8
10
 62
     0
100
AcDbLine
 10
0.0
 20
5.0
 30
0.0
 11
0.0
 21
45.3571122449
 31
0.0
  0
LINE
  5
8B
330
83
100
AcDbEntity
  8
10
 62
     0
100
AcDbLine
 10
-5.0
 20
0.0
 30
0.0
 11
-45.3571122449
 21
0.0
 31
0.0
  0
LINE
  5
8C
330
83
100
AcDbEntity
  8
10
 62
     0
100
AcDbLine
 10
0.0
 20
-5.0
 30
0.0
 11
0.0
 21
-45.3571122449
 31
0.0
  0
LINE
  5
8D
330
83
100
AcDbEntity
  8
10
 62
     0
100
AcDbLine
 10
5.0
 20
0.0
 30
0.0
 11
45.3571122449
 21
0.0
 31
0.0
  0
ENDBLK
  5
85
330
83
100
AcDbEntity
  8
0
100
AcDbBlockEnd
  0
BLOCK
  5
CF
330
CE
100
AcDbEntity
  8
0
100
AcDbBlockBegin
  2
SW_CENTERMARKSYMBOL_1
 70
     0
 10
0.0
 20
0.0
 30
0.0
  3
SW_CENTERMARKSYMBOL_1
  1

  0
LINE
  5
D1
330
CE
100
AcDbEntity
  8
10
 62
     0
100
AcDbLine
 10
0.0
 20
0.0
 30
0.0
 11
0.0
 21
2.5
 31
0.0
  0
LINE
  5
D2
330
CE
100
AcDbEntity
  8
10
 62
     0
100
AcDbLine
 10
0.0
 20
0.0
 30
0.0
 11
-2.5
 21
0.0
 31
0.0
  0
LINE
  5
D3
330
CE
100
AcDbEntity
  8
10
 62
     0
100
AcDbLine
 10
0.0
 20
0.0
 30
0.0
 11
0.0
 21
-2.5
 31
0.0
  0
LINE
  5
D4
330
CE
100
AcDbEntity
  8
10
 62
     0
100
AcDbLine
 10
0.0
 20
0.0
 30
0.0
 11
2.5
 21
0.0
 31
0.0
  0
LINE
  5
D5
330
CE
100
AcDbEntity
  8
10
 62
     0
100
AcDbLine
 10
0.0
 20
5.0
 30
0.0
 11
0.0
 21
9.6428520408
 31
0.0
  0
LINE
  5
D6
330
CE
100
AcDbEntity
  8
10
 62
     0
100
AcDbLine
 10
-5.0
 20
0.0
 30
0.0
 11
-9.6428520408
 21
0.0
 31
0.0
  0
LINE
  5
D7
330
CE
100
AcDbEntity
  8
10
 62
     0
100
AcDbLine
 10
0.0
 20
-5.0
 30
0.0
 11
0.0
 21
-9.6428520408
 31
0.0
  0
LINE
  5
D8
330
CE
100
AcDbEntity
  8
10
 62
     0
100
AcDbLine
 10
5.0
 20
0.0
 30
0.0
 11
9.6428520408
 21
0.0
 31
0.0
  0
ENDBLK
  5
D0
330
CE
100
AcDbEntity
  8
0
100
AcDbBlockEnd
  0
ENDSEC
  0
SECTION
  2
ENTITIES
  0
LINE
  5
70
330
1F
100
AcDbEntity
  8
0
  6
Continuous
 62
     7
370
    25
100
AcDbLine
 10
118.2933766787
 20
29.8571747449
 30
0.0
 11
47.7073190094
 21
29.8571747449
 31
0.0
  0
LINE
  5
71
330
1F
100
AcDbEntity
  8
0
  6
Continuous
 62
     7
370
    25
100
AcDbLine
 10
44.4285989796
 20
7.0000482143
 30
0.0
 11
121.5714010204
 21
7.0000482143
 31
0.0
  0
ARC
  5
72
330
1F
100
AcDbEntity
  8
0
  6
Continuous
 62
     7
370
    25
100
AcDbCircle
 10
64.91586704
 20
111.3526522481
 30
0.0
 40
14.28570408164014
100
AcDbArc
 50
287.5418558797
 51
327.5571338615
  0
ARC
  5
73
330
1F
100
AcDbEntity
  8
0
  6
Continuous
 62
     7
370
    25
100
AcDbCircle
 10
83.0
 20
99.8571247449
 30
0.0
 40
7.142852040819855
100
AcDbArc
 50
32.4428661385
 51
147.5571338615
  0
ARC
  5
74
330
1F
100
AcDbEntity
  8
0
  6
Continuous
 62
     7
370
    25
100
AcDbCircle
 10
101.08413296
 20
111.3526522481
 30
0.0
 40
14.28570408164011
100
AcDbArc
 50
212.4428661385
 51
252.4581441203
  0
ARC
  5
75
330
1F
100
AcDbEntity
  8
0
  6
Continuous
 62
     7
370
    25
100
AcDbCircle
 10
83.0
 20
54.1428716837
 30
0.0
 40
45.71425306124754
100
AcDbArc
 50
84.6206210089
 51
95.3793789911
  0
LINE
  5
76
330
1F
100
AcDbEntity
  8
0
  6
Continuous
 62
     7
370
    25
100
AcDbLine
 10
78.7142887755
 20
102.9999796429
 30
0.0
 11
87.2857112245
 21
102.9999796429
 31
0.0
  0
LINE
  5
77
330
1F
100
AcDbEntity
  8
0
  6
Continuous
 62
     7
370
    25
100
AcDbLine
 10
78.7142887755
 20
99.6557886661
 30
0.0
 11
78.7142887755
 21
102.9999796429
 31
0.0
  0
CIRCLE
  5
78
330
1F
100
AcDbEntity
  8
0
  6
Continuous
 62
     7
370
    25
100
AcDbCircle
 10
83.0
 20
54.1428716837
 30
0.0
 40
42.85711224491983
  0
ARC
  5
79
330
1F
100
AcDbEntity
  8
0
  6
Continuous
 62
     7
370
    25
100
AcDbCircle
 10
83.0
 20
54.1428716837
 30
0.0
 40
45.71425306124762
100
AcDbArc
 50
107.5418558797
 51
72.4581441203
  0
LINE
  5
7A
330
1F
100
AcDbEntity
  8
0
  6
Continuous
 62
     7
370
    25
100
AcDbLine
 10
87.2857112245
 20
102.9999796429
 30
0.0
 11
87.2857112245
 21
99.6557886661
 31
0.0
  0
SPLINE
  5
7B
330
1F
100
AcDbEntity
  8
0
  6
Continuous
 62
     7
370
    25
100
AcDbSpline
210
0.0
220
0.0
230
1.0
 70
    24
 71
     3
 72
    30
 73
    26
 74
     0
 42
0.00000001
 43
0.00000001
 40
0.0
 40
0.0
 40
0.0
 40
0.0
 40
0.125
 40
0.125
 40
0.2499999999999999
 40
0.2499999999999999
 40
0.3749999999999999
 40
0.3749999999999999
 40
0.4999999999999999
 40
0.4999999999999999
 40
0.6249999999999999
 40
0.6249999999999999
 40
0.6874999999999999
 40
0.6874999999999999
 40
0.7499999999999998
 40
0.7499999999999998
 40
0.8124999999999998
 40
0.8124999999999998
 40
0.8749999999999998
 40
0.8749999999999998
 40
0.9062499999999998
 40
0.9062499999999998
 40
0.9374999999999998
 40
0.9374999999999998
 40
1.0
 40
1.0
 40
1.0
 40
1.0
 10
44.42859897957217
 20
18.16643909704826
 30
0.0
 10
44.42859897957216
 20
18.74830989716003
 30
0.0
 10
44.42859897957215
 20
19.32625420947446
 30
0.0
 10
44.42859897957215
 20
20.47613251390431
 30
0.0
 10
44.42859897957215
 20
21.04807803391669
 30
0.0
 10
44.42859897957216
 20
22.18642916073257
 30
0.0
 10
44.42859897957216
 20
22.752747437952
 30
0.0
 10
44.42859897957214
 20
23.8793430236978
 30
0.0
 10
44.42859897957217
 20
24.43972974412007
 30
0.0
 10
44.42859897957216
 20
25.55171647398188
 30
0.0
 10
44.4285989795723
 20
26.09997436669836
 30
0.0
 10
44.42859897957229
 20
26.8916122677648
 30
0.0
 10
44.42859897957213
 20
27.1512413704932
 30
0.0
 10
44.42859897957213
 20
27.64788601329843
 30
0.0
 10
44.42859897957214
 20
27.88588837031214
 30
0.0
 10
44.42859897957212
 20
28.33420230721259
 30
0.0
 10
44.42859897957214
 20
28.54674389607392
 30
0.0
 10
44.42859897957214
 20
28.92114401031663
 30
0.0
 10
44.42859897957222
 20
29.08267461514082
 30
0.0
 10
44.42859897957223
 20
29.2805992099253
 30
0.0
 10
44.42859897957089
 20
29.33895634977158
 30
0.0
 10
44.4285989795709
 20
29.43740777791953
 30
0.0
 10
44.42859897957215
 20
29.47801150387497
 30
0.0
 10
44.42859897957215
 20
29.57495927297932
 30
0.0
 10
44.42859897957217
 20
29.60634147634942
 30
0.0
 10
44.42859897957217
 20
29.60642645611984
 30
0.0
  0
SPLINE
  5
7C
330
1F
100
AcDbEntity
  8
0
  6
Continuous
 62
     7
370
    25
100
AcDbSpline
210
0.0
220
0.0
230
1.0
 70
    24
 71
     3
 72
    30
 73
    26
 74
     0
 42
0.00000001
 43
0.00000001
 40
0.0
 40
0.0
 40
0.0
 40
0.0
 40
0.1249999999999998
 40
0.1249999999999998
 40
0.2499999999999997
 40
0.2499999999999997
 40
0.3749999999999995
 40
0.3749999999999995
 40
0.4999999999999993
 40
0.4999999999999993
 40
0.6249999999999991
 40
0.6249999999999991
 40
0.6874999999999994
 40
0.6874999999999994
 40
0.7499999999999994
 40
0.7499999999999994
 40
0.8124999999999994
 40
0.8124999999999994
 40
0.8749999999999994
 40
0.8749999999999994
 40
0.9062499999999996
 40
0.9062499999999996
 40
0.9374999999999997
 40
0.9374999999999997
 40
1.0
 40
1.0
 40
1.0
 40
1.0
 10
121.5714010204278
 20
18.16645289236184
 30
0.0
 10
121.5714010204278
 20
18.74812855632817
 30
0.0
 10
121.5714010204278
 20
19.3259163705261
 30
0.0
 10
121.5714010204278
 20
20.47553717713179
 30
0.0
 10
121.5714010204278
 20
21.04738595557197
 30
0.0
 10
121.5714010204278
 20
22.18559667983456
 30
0.0
 10
121.5714010204279
 20
22.75187008301846
 30
0.0
 10
121.5714010204279
 20
23.87840770985031
 30
0.0
 10
121.5714010204278
 20
24.43878095847709
 30
0.0
 10
121.5714010204278
 20
25.55077024739049
 30
0.0
 10
121.5714010204278
 20
26.09777371817578
 30
0.0
 10
121.5714010204278
 20
26.8847716114013
 30
0.0
 10
121.5714010204277
 20
27.14177080220838
 30
0.0
 10
121.5714010204276
 20
27.64107540706264
 30
0.0
 10
121.5714010204278
 20
27.88427185249374
 30
0.0
 10
121.5714010204279
 20
28.33558231300502
 30
0.0
 10
121.5714010204278
 20
28.5453193615277
 30
0.0
 10
121.5714010204278
 20
28.92273462628258
 30
0.0
 10
121.5714010204279
 20
29.08420413637659
 30
0.0
 10
121.5714010204278
 20
29.27977605776302
 30
0.0
 10
121.5714010204278
 20
29.33733338703375
 30
0.0
 10
121.5714010204278
 20
29.43653204226398
 30
0.0
 10
121.5714010204287
 20
29.47807299703197
 30
0.0
 10
121.5714010204287
 20
29.5756146495845
 30
0.0
 10
121.5714010204278
 20
29.60634578803759
 30
0.0
 10
121.5714010204278
 20
29.60643944387467
 30
0.0
  0
LINE
  5
7D
330
1F
100
AcDbEntity
  8
0
  6
Continuous
 62
     7
370
    25
100
AcDbLine
 10
121.5714010204
 20
18.1664391109
 30
0.0
 11
121.5714010204
 21
7.0000482143
 31
0.0
  0
LINE
  5
7E
330
1F
100
AcDbEntity
  8
0
  6
Continuous
 62
     7
370
    25
100
AcDbLine
 10
44.4285989796
 20
7.0000482143
 30
0.0
 11
44.4285989796
 21
18.1664390857
 31
0.0
  0
SPLINE
  5
7F
330
1F
100
AcDbEntity
  8
0
  6
HIDDEN
 62
     7
370
    18
100
AcDbSpline
210
0.0
220
0.0
230
1.0
 70
     8
 71
     3
 72
     9
 73
     5
 74
     0
 42
0.00000001
 43
0.00000001
 40
0.0
 40
0.0
 40
0.0
 40
0.0
 40
0.6238319751585382
 40
1.0
 40
1.0
 40
1.0
 40
1.0
 10
47.88050712958353
 20
29.57962087075184
 30
0.0
 10
47.80965332721966
 20
29.6816413194963
 30
0.0
 10
47.69607498371478
 20
29.84517966444652
 30
0.0
 10
47.70424551629468
 20
29.83350867490071
 30
0.0
 10
47.70731900939716
 20
29.82911842181532
 30
0.0
  0
SPLINE
  5
80
330
1F
100
AcDbEntity
  8
0
  6
HIDDEN
 62
     7
370
    18
100
AcDbSpline
210
0.0
220
0.0
230
1.0
 70
     8
 71
     3
 72
     9
 73
     5
 74
     0
 42
0.00000001
 43
0.00000001
 40
0.0
 40
0.0
 40
0.0
 40
0.0
 40
0.3548103569913117
 40
1.0
 40
1.0
 40
1.0
 40
1.0
 10
118.2933766787129
 20
29.83012696709722
 30
0.0
 10
118.2966151105757
 20
29.83476607432032
 30
0.0
 10
118.3057423296631
 20
29.8478409666725
 30
0.0
 10
118.1925338250763
 20
29.68480803180048
 30
0.0
 10
118.1194928704164
 20
29.57962087075174
 30
0.0
  0
LINE
  5
81
330
1F
100
AcDbEntity
  8
0
  6
HIDDEN
 62
     7
370
    18
100
AcDbLine
 10
121.5714010204
 20
25.5714635204
 30
0.0
 11
44.4285989796
 21
25.5714635204
 31
0.0
  0
LINE
  5
82
330
1F
100
AcDbEntity
  8
0
  6
HIDDEN
 62
     7
370
    18
100
AcDbLine
 10
44.4285989796
 20
11.2857594388
 30
0.0
 11
121.5714010204
 21
11.2857594388
 31
0.0
  0
INSERT
  5
8E
330
1F
100
AcDbEntity
  8
10
100
AcDbBlockReference
  2
SW_CENTERMARKSYMBOL_0
 10
83.0
 20
54.1428716837
 30
0.0
  0
LINE
  5
8F
330
1F
100
AcDbEntity
  8
0
  6
Continuous
 62
     7
370
    25
100
AcDbLine
 10
128.7142530612
 20
117.2857308673
 30
0.0
 11
128.7142530612
 21
177.1989028873
 31
0.0
  0
LINE
  5
90
330
1F
100
AcDbEntity
  8
0
  6
Continuous
 62
     7
370
    25
100
AcDbLine
 10
37.2857469388
 20
177.1989028873
 30
0.0
 11
37.2857469388
 21
117.2857308673
 31
0.0
  0
LINE
  5
91
330
1F
100
AcDbEntity
  8
0
  6
Continuous
 62
     7
370
    25
100
AcDbLine
 10
121.5714010204
 20
198.7142441327
 30
0.0
 11
44.4285989796
 21
198.7142441327
 31
0.0
  0
LINE
  5
92
330
1F
100
AcDbEntity
  8
0
  6
Continuous
 62
     7
370
    25
100
AcDbLine
 10
59.3098398476
 20
175.8571176021
 30
0.0
 11
106.6901601526
 21
175.857117602
 31
0.0
  0
ELLIPSE
  5
93
330
1F
100
AcDbEntity
  8
0
  6
Continuous
 62
     7
370
    25
100
AcDbEllipse
 10
83.0
 20
177.1989028873
 30
0.0
 11
45.71425306124777
 21
0.0
 31
0.0
210
0.0
220
0.0
230
1.0
 40
0.1245565844
 41
5.018552122395292
 42
6.557654800717337
  0
ELLIPSE
  5
94
330
1F
100
AcDbEntity
  8
0
  6
Continuous
 62
     7
370
    25
100
AcDbEllipse
 10
101.08413296
 20
170.0730480278
 30
0.0
 11
14.28570408163993
 21
0.0
 31
0.0
210
0.0
220
0.0
230
1.0
 40
0.1245565844
 41
1.876959468805484
 42
2.575357820688984
  0
ELLIPSE
  5
95
330
1F
100
AcDbEntity
  8
0
  6
Continuous
 62
     7
370
    25
100
AcDbEllipse
 10
83.0
 20
171.5048916691
 30
0.0
 11
7.142852040819974
 21
0.0
 31
0.0
210
0.0
220
0.0
230
1.0
 40
0.1245565844
 41
3.707827486490655
 42
5.716950474278885
  0
ELLIPSE
  5
96
330
1F
100
AcDbEntity
  8
0
  6
Continuous
 62
     7
370
    25
100
AcDbEllipse
 10
64.91586704
 20
170.0730480278
 30
0.0
 11
14.28570408163995
 21
0.0
 31
0.0
210
0.0
220
0.0
230
1.0
 40
0.1245565844
 41
0.5662348329008132
 42
1.264633184784303
  0
ELLIPSE
  5
97
330
1F
100
AcDbEntity
  8
0
  6
Continuous
 62
     7
370
    25
100
AcDbEllipse
 10
83.0
 20
177.1989028873
 30
0.0
 11
45.71425306124777
 21
0.0
 31
0.0
210
0.0
220
0.0
230
1.0
 40
0.1245565844
 41
2.867123160052043
 42
4.406225838374113
  0
ELLIPSE
  5
98
330
1F
100
AcDbEntity
  8
0
  6
Continuous
 62
     7
370
    25
100
AcDbEllipse
 10
83.0
 20
177.1989028873
 30
0.0
 11
42.85711224491983
 21
0.0
 31
0.0
210
0.0
220
0.0
230
1.0
 40
0.1245565844
 41
2.848300438814733
 42
6.57647752195465
  0
LINE
  5
99
330
1F
100
AcDbEntity
  8
0
  6
Continuous
 62
     7
370
    25
100
AcDbLine
 10
78.7142887755
 20
171.1134283979
 30
0.0
 11
78.7142887755
 21
171.5299694034
 31
0.0
  0
LINE
  5
9A
330
1F
100
AcDbEntity
  8
0
  6
Continuous
 62
     7
370
    25
100
AcDbLine
 10
87.2857112245
 20
171.1134283979
 30
0.0
 11
78.7142887755
 21
171.1134283979
 31
0.0
  0
LINE
  5
9B
330
1F
100
AcDbEntity
  8
0
  6
Continuous
 62
     7
370
    25
100
AcDbLine
 10
87.2857112245
 20
171.5299694034
 30
0.0
 11
87.2857112245
 21
171.1134283979
 31
0.0
  0
ELLIPSE
  5
9C
330
1F
100
AcDbEntity
  8
0
  6
Continuous
 62
     7
370
    25
100
AcDbEllipse
 10
83.0
 20
177.1989028873
 30
0.0
 11
45.71425306124777
 21
0.0
 31
0.0
210
0.0
220
0.0
230
1.0
 40
0.1245565844
 41
4.618501105277176
 42
4.806276855492209
  0
LINE
  5
9D
330
1F
100
AcDbEntity
  8
0
  6
Continuous
 62
     7
370
    25
100
AcDbLine
 10
89.02804432
 20
117.2857308673
 30
0.0
 11
76.97195568
 21
117.2857308673
 31
0.0
  0
LINE
  5
9E
330
1F
100
AcDbEntity
  8
0
  6
Continuous
 62
     7
370
    25
100
AcDbLine
 10
69.2216129828
 20
117.2857308673
 30
0.0
 11
76.97195568
 21
117.2857308673
 31
0.0
  0
LINE
  5
9F
330
1F
100
AcDbEntity
  8
0
  6
Continuous
 62
     7
370
    25
100
AcDbLine
 10
89.02804432
 20
117.2857308673
 30
0.0
 11
96.7783870172
 21
117.2857308673
 31
0.0
  0
SPLINE
  5
A0
330
1F
100
AcDbEntity
  8
0
  6
Continuous
 62
     7
370
    25
100
AcDbSpline
210
0.0
220
0.0
230
1.0
 70
     8
 71
     3
 72
    26
 73
    22
 74
     0
 42
0.00000001
 43
0.00000001
 40
0.0
 40
0.0
 40
0.0
 40
0.0
 40
0.1249999999999994
 40
0.1249999999999994
 40
0.2499999999999988
 40
0.2499999999999988
 40
0.3124999999999984
 40
0.3124999999999984
 40
0.3749999999999979
 40
0.3749999999999979
 40
0.4999999999999974
 40
0.4999999999999974
 40
0.5624999999999977
 40
0.5624999999999977
 40
0.624999999999998
 40
0.624999999999998
 40
0.7499999999999986
 40
0.7499999999999986
 40
0.8749999999999992
 40
0.8749999999999992
 40
1.0
 40
1.0
 40
1.0
 40
1.0
 10
38.99687167787972
 20
178.7421867679322
 30
0.0
 10
39.20342402039103
 20
178.8335562658112
 30
0.0
 10
39.42365638656813
 20
178.9796582253154
 30
0.0
 10
39.88776572387379
 20
179.3729898107264
 30
0.0
 10
40.13166118590877
 20
179.620257322364
 30
0.0
 10
40.51238307883158
 20
180.0669276368194
 30
0.0
 10
40.64228742504525
 20
180.2292283566929
 30
0.0
 10
40.90312510596267
 20
180.5753259749265
 30
0.0
 10
41.03415909730689
 20
180.7591477827529
 30
0.0
 10
41.42795296451888
 20
181.3422851749006
 30
0.0
 10
41.6914569863571
 20
181.7730495887959
 30
0.0
 10
42.08288178242249
 20
182.4836791918208
 30
0.0
 10
42.21270715585162
 20
182.7313573737908
 30
0.0
 10
42.4699829821767
 20
183.2492892500629
 30
0.0
 10
42.59708242025432
 20
183.5189745833877
 30
0.0
 10
42.96693249515398
 20
184.3494341142837
 30
0.0
 10
43.20032752479715
 20
184.9353867137751
 30
0.0
 10
43.63111858320081
 20
186.1752891862158
 30
0.0
 10
43.82858120251327
 20
186.8291734832883
 30
0.0
 10
44.17428039186068
 20
188.2146137990283
 30
0.0
 10
44.31865065405221
 20
188.9314940743872
 30
0.0
 10
44.4285989795721
 20
189.6722383152176
 30
0.0
  0
SPLINE
  5
A1
330
1F
100
AcDbEntity
  8
0
  6
Continuous
 62
     7
370
    25
100
AcDbSpline
210
0.0
220
0.0
230
1.0
 70
     8
 71
     3
 72
    26
 73
    22
 74
     0
 42
0.00000001
 43
0.00000001
 40
0.0
 40
0.0
 40
0.0
 40
0.0
 40
0.1249999999999993
 40
0.1249999999999993
 40
0.2499999999999986
 40
0.2499999999999986
 40
0.3124999999999983
 40
0.3124999999999983
 40
0.3749999999999982
 40
0.3749999999999982
 40
0.4999999999999974
 40
0.4999999999999974
 40
0.5624999999999977
 40
0.5624999999999977
 40
0.6249999999999978
 40
0.6249999999999978
 40
0.7499999999999986
 40
0.7499999999999986
 40
0.8749999999999992
 40
0.8749999999999992
 40
1.0
 40
1.0
 40
1.0
 40
1.0
 10
127.0031283221203
 20
178.7421867679322
 30
0.0
 10
126.796575979609
 20
178.8335562658112
 30
0.0
 10
126.5763436134319
 20
178.9796582253153
 30
0.0
 10
126.1122342761262
 20
179.3729898107264
 30
0.0
 10
125.8683388140912
 20
179.620257322364
 30
0.0
 10
125.4876169211684
 20
180.0669276368194
 30
0.0
 10
125.3577125749548
 20
180.2292283566929
 30
0.0
 10
125.0968748940373
 20
180.5753259749264
 30
0.0
 10
124.9658409026931
 20
180.7591477827529
 30
0.0
 10
124.5720470354812
 20
181.3422851749006
 30
0.0
 10
124.3085430136429
 20
181.7730495887958
 30
0.0
 10
123.9171182175775
 20
182.4836791918207
 30
0.0
 10
123.7872928441484
 20
182.7313573737907
 30
0.0
 10
123.5300170178233
 20
183.2492892500628
 30
0.0
 10
123.4029175797457
 20
183.5189745833876
 30
0.0
 10
123.033067504846
 20
184.3494341142836
 30
0.0
 10
122.7996724752029
 20
184.935386713775
 30
0.0
 10
122.3688814167992
 20
186.1752891862157
 30
0.0
 10
122.1714187974868
 20
186.8291734832882
 30
0.0
 10
121.8257196081393
 20
188.2146137990281
 30
0.0
 10
121.6813493459478
 20
188.9314940743872
 30
0.0
 10
121.5714010204279
 20
189.6722383152176
 30
0.0
  0
LINE
  5
A2
330
1F
100
AcDbEntity
  8
0
  6
Continuous
 62
     7
370
    25
100
AcDbLine
 10
69.2216129828
 20
117.2857308673
 30
0.0
 11
37.2857469388
 21
117.2857308673
 31
0.0
  0
LINE
  5
A3
330
1F
100
AcDbEntity
  8
0
  6
Continuous
 62
     7
370
    25
100
AcDbLine
 10
128.7142530612
 20
117.2857308673
 30
0.0
 11
96.7783870172
 21
117.2857308673
 31
0.0
  0
SPLINE
  5
A4
330
1F
100
AcDbEntity
  8
0
  6
Continuous
 62
     7
370
    25
100
AcDbSpline
210
0.0
220
0.0
230
1.0
 70
     8
 71
     3
 72
    24
 73
    20
 74
     0
 42
0.00000001
 43
0.00000001
 40
0.0
 40
0.0
 40
0.0
 40
0.0
 40
0.1250000000000004
 40
0.1250000000000004
 40
0.2500000000000008
 40
0.2500000000000008
 40
0.3750000000000012
 40
0.3750000000000012
 40
0.5000000000000016
 40
0.5000000000000016
 40
0.5625000000000014
 40
0.5625000000000014
 40
0.6250000000000012
 40
0.6250000000000012
 40
0.7500000000000009
 40
0.7500000000000009
 40
0.8750000000000004
 40
0.8750000000000004
 40
1.0
 40
1.0
 40
1.0
 40
1.0
 10
118.1194928704164
 20
189.7890881189009
 30
0.0
 10
118.2375371523372
 20
189.037309407184
 30
0.0
 10
118.3930566735862
 20
188.3181068744599
 30
0.0
 10
118.7630920817975
 20
186.9363063330248
 30
0.0
 10
118.9776723180294
 20
186.2737580854214
 30
0.0
 10
119.4543430322226
 20
185.0019514052129
 30
0.0
 10
119.7118318672228
 20
184.4051444190874
 30
0.0
 10
120.2478961889099
 20
183.2915226117138
 30
0.0
 10
120.527254021083
 20
182.7728611382377
 30
0.0
 10
120.9563438870574
 20
182.0502576158887
 30
0.0
 10
121.1006687498695
 20
181.8194324958853
 30
0.0
 10
121.3876268659841
 20
181.3823841493209
 30
0.0
 10
121.5307279750273
 20
181.17536544732
 30
0.0
 10
121.9575761272503
 20
180.5880550710202
 30
0.0
 10
122.2388446854656
 20
180.2412717611276
 30
0.0
 10
122.7886881698123
 20
179.6389798835187
 30
0.0
 10
123.0579782803492
 20
179.3834671017134
 30
0.0
 10
123.5645592456321
 20
178.9822759266092
 30
0.0
 10
123.8037129625435
 20
178.8342770759918
 30
0.0
 10
124.0269964676776
 20
178.7421867679322
 30
0.0
  0
SPLINE
  5
A5
330
1F
100
AcDbEntity
  8
0
  6
Continuous
 62
     7
370
    25
100
AcDbSpline
210
0.0
220
0.0
230
1.0
 70
     8
 71
     3
 72
    26
 73
    22
 74
     0
 42
0.00000001
 43
0.00000001
 40
0.0
 40
0.0
 40
0.0
 40
0.0
 40
0.1250000000000007
 40
0.1250000000000007
 40
0.2500000000000013
 40
0.2500000000000013
 40
0.3125000000000012
 40
0.3125000000000012
 40
0.3750000000000011
 40
0.3750000000000011
 40
0.5000000000000009
 40
0.5000000000000009
 40
0.5625000000000008
 40
0.5625000000000008
 40
0.6250000000000007
 40
0.6250000000000007
 40
0.7500000000000004
 40
0.7500000000000004
 40
0.8750000000000002
 40
0.8750000000000002
 40
1.0
 40
1.0
 40
1.0
 40
1.0
 10
41.97300353232234
 20
178.7421867679322
 30
0.0
 10
42.19657663248298
 20
178.8343965156037
 30
0.0
 10
42.43509874850695
 20
178.9822417666501
 30
0.0
 10
42.93804672737505
 20
179.3800844003202
 30
0.0
 10
43.2024933430674
 20
179.6301256398432
 30
0.0
 10
43.61556427610832
 20
180.0814084543114
 30
0.0
 10
43.75654194975574
 20
180.24532217142
 30
0.0
 10
44.03968104639429
 20
180.594681890062
 30
0.0
 10
44.18197963110659
 20
180.7801880670587
 30
0.0
 10
44.60983330800731
 20
181.3685399638102
 30
0.0
 10
44.89640590478188
 20
181.8029838875031
 30
0.0
 10
45.32258077005579
 20
182.519637962272
 30
0.0
 10
45.46401252666629
 20
182.7694112151264
 30
0.0
 10
45.74445312274359
 20
183.2917839041664
 30
0.0
 10
45.88298355490331
 20
183.5636223072977
 30
0.0
 10
46.28641058883262
 20
184.4010801321949
 30
0.0
 10
46.54133097542461
 20
184.9922526011666
 30
0.0
 10
47.0120901470427
 20
186.2446561246304
 30
0.0
 10
47.22801340377093
 20
186.9058039399488
 30
0.0
 10
47.60534437903988
 20
188.3094986918782
 30
0.0
 10
47.76237488220402
 20
189.0367491889489
 30
0.0
 10
47.8805071295836
 20
189.7890881189009
 30
0.0
  0
SPLINE
  5
A6
330
1F
100
AcDbEntity
  8
0
  6
Continuous
 62
     7
370
    25
100
AcDbSpline
210
0.0
220
0.0
230
1.0
 70
     8
 71
     3
 72
    34
 73
    30
 74
     0
 42
0.00000001
 43
0.00000001
 40
0.0
 40
0.0
 40
0.0
 40
0.0
 40
0.1249999999999998
 40
0.1249999999999998
 40
0.1874999999999997
 40
0.1874999999999997
 40
0.2499999999999996
 40
0.2499999999999996
 40
0.2812499999999997
 40
0.2812499999999997
 40
0.3124999999999997
 40
0.3124999999999997
 40
0.3749999999999997
 40
0.3749999999999997
 40
0.4374999999999998
 40
0.4374999999999998
 40
0.4999999999999998
 40
0.4999999999999998
 40
0.5624999999999998
 40
0.5624999999999998
 40
0.6249999999999998
 40
0.6249999999999998
 40
0.7499999999999992
 40
0.7499999999999992
 40
0.8124999999999994
 40
0.8124999999999994
 40
0.8749999999999996
 40
0.8749999999999996
 40
1.0
 40
1.0
 40
1.0
 40
1.0
 10
47.88050712958346
 20
189.789088118901
 30
0.0
 10
47.72195940095295
 20
188.7793585052678
 30
0.0
 10
47.66175172040346
 20
187.7529219481679
 30
0.0
 10
47.71612809891658
 20
186.1878809778166
 30
0.0
 10
47.75870215052414
 20
185.6731948065792
 30
0.0
 10
47.89063135949656
 20
184.6669654465134
 30
0.0
 10
47.9800573824155
 20
184.1737580631252
 30
0.0
 10
48.15118807598203
 20
183.4488789044387
 30
0.0
 10
48.21433752372492
 20
183.2104158836305
 30
0.0
 10
48.35100947017398
 20
182.7463508709256
 30
0.0
 10
48.42475716966794
 20
182.5197561582815
 30
0.0
 10
48.66220249799834
 20
181.8556791165715
 30
0.0
 10
48.84203082334876
 20
181.4338469204566
 30
0.0
 10
49.24651817222703
 20
180.6303822348137
 30
0.0
 10
49.47130489129367
 20
180.2499047324127
 30
0.0
 10
49.95134624849977
 20
179.550765104492
 30
0.0
 10
50.20808231497595
 20
179.2288214929442
 30
0.0
 10
50.75470338951487
 20
178.6343874187556
 30
0.0
 10
51.04460040621159
 20
178.3619295605218
 30
0.0
 10
51.6581359245594
 20
177.862653449789
 30
0.0
 10
51.98140497446285
 20
177.636658319986
 30
0.0
 10
52.97778371950654
 20
177.0352169125505
 30
0.0
 10
53.68498864339455
 20
176.729037426301
 30
0.0
 10
54.80818334947449
 20
176.3785417914653
 30
0.0
 10
55.19384401226097
 20
176.2798639026625
 30
0.0
 10
55.98219077264012
 20
176.1159796662336
 30
0.0
 10
56.38289911748268
 20
176.0510806440584
 30
0.0
 10
57.60435103146869
 20
175.8999846938347
 30
0.0
 10
58.44439335592057
 20
175.8571176020746
 30
0.0
 10
59.30983984683737
 20
175.85711760205
 30
0.0
  0
SPLINE
  5
A7
330
1F
100
AcDbEntity
  8
0
  6
Continuous
 62
     7
370
    25
100
AcDbSpline
210
0.0
220
0.0
230
1.0
 70
     8
 71
     3
 72
    32
 73
    28
 74
     0
 42
0.00000001
 43
0.00000001
 40
0.0
 40
0.0
 40
0.0
 40
0.0
 40
0.1249999999999993
 40
0.1249999999999993
 40
0.2499999999999985
 40
0.2499999999999985
 40
0.3124999999999984
 40
0.3124999999999984
 40
0.3749999999999984
 40
0.3749999999999984
 40
0.4999999999999979
 40
0.4999999999999979
 40
0.5624999999999981
 40
0.5624999999999981
 40
0.6249999999999982
 40
0.6249999999999982
 40
0.6874999999999984
 40
0.6874999999999984
 40
0.7187499999999984
 40
0.7187499999999984
 40
0.7499999999999984
 40
0.7499999999999984
 40
0.8124999999999989
 40
0.8124999999999989
 40
0.8749999999999993
 40
0.8749999999999993
 40
1.0
 40
1.0
 40
1.0
 40
1.0
 10
106.6901601532232
 20
175.8571176021696
 30
0.0
 10
107.5549619078003
 20
175.8571176021889
 30
0.0
 10
108.3910396123227
 20
175.9000106914351
 30
0.0
 10
110.0051158848324
 20
176.0984913719647
 30
0.0
 10
110.7831348379242
 20
176.2537564625653
 30
0.0
 10
111.9052085523025
 20
176.5998793818535
 30
0.0
 10
112.2717295184297
 20
176.734239183908
 30
0.0
 10
112.9893322445778
 20
177.0480649215071
 30
0.0
 10
113.3370675046589
 20
177.2262920133245
 30
0.0
 10
114.3363447026769
 20
177.8264894326891
 30
0.0
 10
114.9487948213966
 20
178.3147484095201
 30
0.0
 10
115.7839874311321
 20
179.218847211974
 30
0.0
 10
116.0444522041813
 20
179.5449919055261
 30
0.0
 10
116.5281744470563
 20
180.2488037957198
 30
0.0
 10
116.7527505559491
 20
180.6292109686299
 30
0.0
 10
117.156069555242
 20
181.4297940682596
 30
0.0
 10
117.3358989495415
 20
181.8509163046402
 30
0.0
 10
117.5738141785405
 20
182.5154911575395
 30
0.0
 10
117.6477971615391
 20
182.7425133113652
 30
0.0
 10
117.7850295853675
 20
183.2080552777672
 30
0.0
 10
117.8484098117218
 20
183.4473446552207
 30
0.0
 10
118.0192426174794
 20
184.1704571568362
 30
0.0
 10
118.1086959475545
 20
184.6629212813848
 30
0.0
 10
118.2408431863131
 20
185.6686498203786
 30
0.0
 10
118.2836188073372
 20
186.1838168768558
 30
0.0
 10
118.3383858695812
 20
187.7504738121363
 30
0.0
 10
118.2782398798741
 20
188.7780893621886
 30
0.0
 10
118.1194928704165
 20
189.789088118901
 30
0.0
  0
LINE
  5
A8
330
1F
100
AcDbEntity
  8
0
  6
Continuous
 62
     7
370
    25
100
AcDbLine
 10
44.4285989796
 20
189.6722383152
 30
0.0
 11
44.4285989796
 21
189.7890881189
 31
0.0
  0
LINE
  5
A9
330
1F
100
AcDbEntity
  8
0
  6
Continuous
 62
     7
370
    25
100
AcDbLine
 10
121.5714010204
 20
189.6722383152
 30
0.0
 11
121.5714010204
 21
189.7890881189
 31
0.0
  0
LINE
  5
AA
330
1F
100
AcDbEntity
  8
0
  6
Continuous
 62
     7
370
    25
100
AcDbLine
 10
121.5714010204
 20
198.7142441327
 30
0.0
 11
121.5714010204
 21
189.7890881189
 31
0.0
  0
LINE
  5
AB
330
1F
100
AcDbEntity
  8
0
  6
Continuous
 62
     7
370
    25
100
AcDbLine
 10
44.4285989796
 20
189.7890881189
 30
0.0
 11
44.4285989796
 21
198.7142441327
 31
0.0
  0
LINE
  5
AC
330
1F
100
AcDbEntity
  8
0
  6
HIDDEN
 62
     7
370
    18
100
AcDbLine
 10
78.7142887755
 20
117.2857308673
 30
0.0
 11
78.7142887755
 21
171.1134283979
 31
0.0
  0
LINE
  5
AD
330
1F
100
AcDbEntity
  8
0
  6
HIDDEN
 62
     7
370
    18
100
AcDbLine
 10
87.2857112245
 20
117.2857308673
 30
0.0
 11
87.2857112245
 21
171.1134283979
 31
0.0
  0
LINE
  5
AE
330
1F
100
AcDbEntity
  8
0
  6
HIDDEN
 62
     7
370
    18
100
AcDbLine
 10
44.4285989796
 20
189.6722383152
 30
0.0
 11
44.4285989796
 21
170.2280089558
 31
0.0
  0
LINE
  5
AF
330
1F
100
AcDbEntity
  8
0
  6
HIDDEN
 62
     7
370
    18
100
AcDbLine
 10
121.5714010204
 20
170.228008906
 30
0.0
 11
121.5714010204
 21
189.6722383152
 31
0.0
  0
SPLINE
  5
B0
330
1F
100
AcDbEntity
  8
0
  6
HIDDEN
 62
     7
370
    18
100
AcDbSpline
210
0.0
220
0.0
230
1.0
 70
     8
 71
     3
 72
    30
 73
    26
 74
     0
 42
0.00000001
 43
0.00000001
 40
0.0
 40
0.0
 40
0.0
 40
0.0
 40
0.1249999999999998
 40
0.1249999999999998
 40
0.1874999999999997
 40
0.1874999999999997
 40
0.2499999999999996
 40
0.2499999999999996
 40
0.3749999999999994
 40
0.3749999999999994
 40
0.4374999999999993
 40
0.4374999999999993
 40
0.4999999999999992
 40
0.4999999999999992
 40
0.624999999999999
 40
0.624999999999999
 40
0.6874999999999989
 40
0.6874999999999989
 40
0.7187499999999989
 40
0.7187499999999989
 40
0.749999999999999
 40
0.749999999999999
 40
0.8749999999999996
 40
0.8749999999999996
 40
1.0
 40
1.0
 40
1.0
 40
1.0
 10
59.30983984683737
 20
175.85711760205
 30
0.0
 10
61.08385999124589
 20
175.8571176019996
 30
0.0
 10
62.91324890036687
 20
176.0334680994264
 30
0.0
 10
65.74768721004054
 20
176.406483360303
 30
0.0
 10
66.70759552459369
 20
176.5498105629253
 30
0.0
 10
68.65958309957603
 20
176.8541605306445
 30
0.0
 10
69.6542757591293
 20
177.0156402999386
 30
0.0
 10
72.65330539562537
 20
177.4908462535819
 30
0.0
 10
74.68182783957005
 20
177.7960738488
 30
0.0
 10
77.78070356371717
 20
178.1255859321035
 30
0.0
 10
78.8230418684739
 20
178.2141332452668
 30
0.0
 10
80.92858107013302
 20
178.3341713351273
 30
0.0
 10
81.99507369802876
 20
178.3652092307085
 30
0.0
 10
85.1576709840727
 20
178.3622980890761
 30
0.0
 10
87.2378714585736
 20
178.2311085174811
 30
0.0
 10
90.32174951700091
 20
177.9014259306856
 30
0.0
 10
91.34368496831317
 20
177.7702575819723
 30
0.0
 10
92.86848995057245
 20
177.5544538770282
 30
0.0
 10
93.37540881039793
 20
177.4793659610468
 30
0.0
 10
94.38670164029114
 20
177.3252349525547
 30
0.0
 10
94.89164161972631
 20
177.2460991137845
 30
0.0
 10
97.39185676446439
 20
176.8496451805197
 30
0.0
 10
99.32783660887085
 20
176.5278689876922
 30
0.0
 10
103.0895292168212
 20
176.0333806743651
 30
0.0
 10
104.9149853110416
 20
175.8571176021297
 30
0.0
 10
106.6901601532232
 20
175.8571176021696
 30
0.0
  0
LINE
  5
B1
330
1F
100
AcDbEntity
  8
0
  6
HIDDEN
 62
     7
370
    18
100
AcDbLine
 10
125.8571122449
 20
117.2857308673
 30
0.0
 11
125.8571122449
 21
177.1989028873
 31
0.0
  0
LINE
  5
B2
330
1F
100
AcDbEntity
  8
0
  6
HIDDEN
 62
     7
370
    18
100
AcDbLine
 10
40.1428877551
 20
177.1989028873
 30
0.0
 11
40.1428877551
 21
117.2857308673
 31
0.0
  0
LINE
  5
B3
330
1F
100
AcDbEntity
  8
0
  6
HIDDEN
 62
     7
370
    18
100
AcDbLine
 10
121.5714010204
 20
194.4285329082
 30
0.0
 11
44.4285989796
 21
194.4285329082
 31
0.0
  0
LINE
  5
B4
330
1F
100
AcDbEntity
  8
0
  6
HIDDEN
 62
     7
370
    18
100
AcDbLine
 10
44.4285989796
 20
180.1428288265
 30
0.0
 11
121.5714010204
 21
180.1428288265
 31
0.0
  0
LINE
  5
B5
330
1F
100
AcDbEntity
  8
0
  6
Continuous
 62
     7
370
    25
100
AcDbLine
 10
182.2857308673
 20
8.4286186224
 30
0.0
 11
245.1360177529
 21
8.4286186224
 31
0.0
  0
SPLINE
  5
B6
330
1F
100
AcDbEntity
  8
0
  6
Continuous
 62
     7
370
    25
100
AcDbSpline
210
0.0
220
0.0
230
1.0
 70
     8
 71
     3
 72
    23
 73
    19
 74
     0
 42
0.00000001
 43
0.00000001
 40
0.0
 40
0.0
 40
0.0
 40
0.0
 40
0.0813959969178832
 40
0.1554211781848716
 40
0.2219561817777769
 40
0.2812792693500775
 40
0.3432538440271828
 40
0.3954593726364536
 40
0.4381264421468307
 40
0.4719061265902251
 40
0.5089026427376849
 40
0.5668144525740534
 40
0.6373311643333416
 40
0.7199101828137547
 40
0.8138449845030824
 40
0.8823851770373539
 40
0.955210858467128
 40
1.0
 40
1.0
 40
1.0
 40
1.0
 10
246.5633882020327
 20
8.532819147371287
 30
0.0
 10
246.3631822882086
 20
8.651600148990239
 30
0.0
 10
245.9809001099155
 20
8.878405936948337
 30
0.0
 10
245.3834264456628
 20
9.295913487250527
 30
0.0
 10
244.8374605801637
 20
9.727750181007417
 30
0.0
 10
244.3224673488502
 20
10.1851763120894
 30
0.0
 10
243.8555998011656
 20
10.65078748533723
 30
0.0
 10
243.4536285130075
 20
11.1017876777799
 30
0.0
 10
243.1439425142579
 20
11.48853333776342
 30
0.0
 10
242.9082310651186
 20
11.81650114426101
 30
0.0
 10
242.6464466504085
 20
12.20602750985389
 30
0.0
 10
242.3118675523847
 20
12.75166763522057
 30
0.0
 10
241.9113738036302
 20
13.51143935903003
 30
0.0
 10
241.4941046004317
 20
14.49339929487667
 30
0.0
 10
241.1580677834507
 20
15.57441328576615
 30
0.0
 10
240.9345710109282
 20
16.71725303822282
 30
0.0
 10
240.8152349806928
 20
17.67965297008991
 30
0.0
 10
240.828676765819
 20
18.34936609708998
 30
0.0
 10
240.8337955595332
 20
18.60440092413006
 30
0.0
  0
SPLINE
  5
B7
330
1F
100
AcDbEntity
  8
0
  6
Continuous
 62
     7
370
    25
100
AcDbSpline
210
0.0
220
0.0
230
1.0
 70
     8
 71
     3
 72
    12
 73
     8
 74
     0
 42
0.00000001
 43
0.00000001
 40
0.0
 40
0.0
 40
0.0
 40
0.0
 40
0.0961305931057831
 40
0.1930772852754019
 40
0.4050337957857514
 40
0.6672361704087464
 40
1.0
 40
1.0
 40
1.0
 40
1.0
 10
245.1197107939139
 20
8.429282115081648
 30
0.0
 10
245.2660174714749
 20
8.426888754465892
 30
0.0
 10
245.5598728946913
 20
8.422081714839443
 30
0.0
 10
246.1319378629113
 20
8.369012901784538
 30
0.0
 10
246.7870819623591
 20
8.250626332790633
 30
0.0
 10
247.3793510422434
 20
8.08307617293709
 30
0.0
 10
247.6080640840416
 20
7.991276893681329
 30
0.0
 10
247.7359829929262
 20
7.939933675356503
 30
0.0
  0
LINE
  5
B8
330
1F
100
AcDbEntity
  8
0
  6
Continuous
 62
     7
370
    25
100
AcDbLine
 10
235.6152024163
 20
106.9999767857
 30
0.0
 11
182.2857308673
 21
106.9999767857
 31
0.0
  0
LINE
  5
B9
330
1F
100
AcDbEntity
  8
0
  6
Continuous
 62
     7
370
    25
100
AcDbLine
 10
182.2857308673
 20
8.4286186224
 30
0.0
 11
182.2857308673
 21
97.7312759232
 31
0.0
  0
LINE
  5
BA
330
1F
100
AcDbEntity
  8
0
  6
Continuous
 62
     7
370
    25
100
AcDbLine
 10
236.7696801372
 20
97.7312759232
 30
0.0
 11
243.7421867679
 21
41.752648489
 31
0.0
  0
SPLINE
  5
BB
330
1F
100
AcDbEntity
  8
0
  6
Continuous
 62
     7
370
    25
100
AcDbSpline
210
0.0
220
0.0
230
1.0
 70
     8
 71
     3
 72
    26
 73
    22
 74
     0
 42
0.00000001
 43
0.00000001
 40
0.0
 40
0.0
 40
0.0
 40
0.0
 40
0.1249999999999993
 40
0.1249999999999993
 40
0.2499999999999986
 40
0.2499999999999986
 40
0.3124999999999983
 40
0.3124999999999983
 40
0.3749999999999982
 40
0.3749999999999982
 40
0.4999999999999974
 40
0.4999999999999974
 40
0.5624999999999977
 40
0.5624999999999977
 40
0.6249999999999978
 40
0.6249999999999978
 40
0.7499999999999986
 40
0.7499999999999986
 40
0.8749999999999992
 40
0.8749999999999992
 40
1.0
 40
1.0
 40
1.0
 40
1.0
 10
243.7421867679322
 20
41.75264848895831
 30
0.0
 10
243.8335562658112
 20
41.01909033670189
 30
0.0
 10
243.9796582253153
 20
40.30710711356937
 30
0.0
 10
244.3729898107264
 20
38.92244594469872
 30
0.0
 10
244.620257322364
 20
38.24978601914964
 30
0.0
 10
245.0669276368194
 20
37.26927487606193
 30
0.0
 10
245.2292283566929
 20
36.94598143435037
 30
0.0
 10
245.5753259749264
 20
36.31699237897954
 30
0.0
 10
245.7591477827529
 20
36.01093461884907
 30
0.0
 10
246.3422851749006
 20
35.11705017689514
 30
0.0
 10
246.7730495887958
 20
34.55336754625079
 30
0.0
 10
247.4836791918207
 20
33.75487923604135
 30
0.0
 10
247.7313573737907
 20
33.49659189320754
 30
0.0
 10
248.2492892500628
 20
32.9960079144174
 30
0.0
 10
248.5189745833877
 20
32.75443678406523
 30
0.0
 10
249.3494341142836
 20
32.06531989569527
 30
0.0
 10
249.935386713775
 20
31.64921852919666
 30
0.0
 10
251.1752891862157
 20
30.90347544888868
 30
0.0
 10
251.8291734832881
 20
30.57376836290405
 30
0.0
 10
253.2146137990281
 20
30.00853558625102
 30
0.0
 10
253.9314940743872
 20
29.77920800950421
 30
0.0
 10
254.6722383152176
 20
29.60636915643439
 30
0.0
  0
LINE
  5
BC
330
1F
100
AcDbEntity
  8
0
  6
Continuous
 62
     7
370
    25
100
AcDbLine
 10
235.228008906
 20
29.6063691564
 30
0.0
 11
254.6722383152
 21
29.6063691564
 31
0.0
  0
SPLINE
  5
BD
330
1F
100
AcDbEntity
  8
0
  6
Continuous
 62
     7
370
    25
100
AcDbSpline
210
0.0
220
0.0
230
1.0
 70
     8
 71
     3
 72
    30
 73
    26
 74
     0
 42
0.00000001
 43
0.00000001
 40
0.0
 40
0.0
 40
0.0
 40
0.0
 40
0.1249999999999998
 40
0.1249999999999998
 40
0.2499999999999997
 40
0.2499999999999997
 40
0.3749999999999995
 40
0.3749999999999995
 40
0.4999999999999993
 40
0.4999999999999993
 40
0.6249999999999991
 40
0.6249999999999991
 40
0.6874999999999994
 40
0.6874999999999994
 40
0.7499999999999994
 40
0.7499999999999994
 40
0.8124999999999994
 40
0.8124999999999994
 40
0.8749999999999994
 40
0.8749999999999994
 40
0.9062499999999996
 40
0.9062499999999996
 40
0.9374999999999997
 40
0.9374999999999997
 40
1.0
 40
1.0
 40
1.0
 40
1.0
 10
240.8607097731268
 20
18.16645289236184
 30
0.0
 10
240.8469982700505
 20
18.74812855632817
 30
0.0
 10
240.8094616109916
 20
19.3259163705261
 30
0.0
 10
240.6978965129818
 20
20.47553717713179
 30
0.0
 10
240.6239648125131
 20
21.04738595557197
 30
0.0
 10
240.4424775189984
 20
22.18559667983456
 30
0.0
 10
240.3343793272669
 20
22.75187008301846
 30
0.0
 10
240.0813580538772
 20
23.87840770985031
 30
0.0
 10
239.9371030888597
 20
24.43878095847709
 30
0.0
 10
239.5949280567487
 20
25.55077024739049
 30
0.0
 10
239.3986085477373
 20
26.09777371817578
 30
0.0
 10
239.0342957088665
 20
26.8847716114013
 30
0.0
 10
238.9011316754094
 20
27.14177080220838
 30
0.0
 10
238.602496992808
 20
27.64107540706264
 30
0.0
 10
238.4360220158948
 20
27.88427185249374
 30
0.0
 10
238.0688190162473
 20
28.33558231300502
 30
0.0
 10
237.867370687175
 20
28.5453193615277
 30
0.0
 10
237.4173193469897
 20
28.92273462628258
 30
0.0
 10
237.1754345693632
 20
29.08420413637659
 30
0.0
 10
236.7886564869871
 20
29.27977605776302
 30
0.0
 10
236.6555706025846
 20
29.33733338703375
 30
0.0
 10
236.3807252326084
 20
29.43653204226398
 30
0.0
 10
236.2387200086948
 20
29.47807299703197
 30
0.0
 10
235.8118460805212
 20
29.5756146495845
 30
0.0
 10
235.5221924806146
 20
29.60634578803759
 30
0.0
 10
235.2280089284526
 20
29.60643944387467
 30
0.0
  0
CIRCLE
  5
BE
330
1F
100
AcDbEntity
  8
0
  6
Continuous
 62
     7
370
    25
100
AcDbCircle
 10
252.2856808674
 20
18.4286114796
 30
0.0
 40
7.142852040820003
  0
ARC
  5
BF
330
1F
100
AcDbEntity
  8
0
  6
Continuous
 62
     7
370
    25
100
AcDbCircle
 10
252.2856808674
 20
18.4286114796
 30
0.0
 40
11.42856326531196
100
AcDbArc
 50
181.3144861423
 51
77.3468592956
  0
ARC
  5
C0
330
1F
100
AcDbEntity
  8
0
  6
Continuous
 62
     7
370
    25
100
AcDbCircle
 10
257.9183471833
 20
43.5183826097
 30
0.0
 40
14.28570408163997
100
AcDbArc
 50
256.8660855104
 51
257.3468592956
  0
LINE
  5
C1
330
1F
100
AcDbEntity
  8
0
  6
Continuous
 62
     7
370
    25
100
AcDbLine
 10
182.2857308673
 20
103.688967246
 30
0.0
 11
182.2857308673
 21
97.7312759232
 31
0.0
  0
LINE
  5
C2
330
1F
100
AcDbEntity
  8
0
  6
Continuous
 62
     7
370
    25
100
AcDbLine
 10
236.7696801372
 20
97.7312759232
 30
0.0
 11
236.0276104553
 21
103.688967246
 31
0.0
  0
LINE
  5
C3
330
1F
100
AcDbEntity
  8
0
  6
Continuous
 62
     7
370
    25
100
AcDbLine
 10
182.2857308673
 20
103.688967246
 30
0.0
 11
182.2857308673
 21
106.9999767857
 31
0.0
  0
LINE
  5
C4
330
1F
100
AcDbEntity
  8
0
  6
Continuous
 62
     7
370
    25
100
AcDbLine
 10
235.6152024163
 20
106.9999767857
 30
0.0
 11
236.0276104553
 21
103.688967246
 31
0.0
  0
SPLINE
  5
C5
330
1F
100
AcDbEntity
  8
0
  6
HIDDEN
 62
     7
370
    18
100
AcDbSpline
210
0.0
220
0.0
230
1.0
 70
     8
 71
     3
 72
    10
 73
     6
 74
     0
 42
0.00000001
 43
0.00000001
 40
0.0
 40
0.0
 40
0.0
 40
0.0
 40
0.4365889797867479
 40
0.7072788708240587
 40
1.0
 40
1.0
 40
1.0
 40
1.0
 10
247.7204064807497
 20
7.951533405536552
 30
0.0
 10
247.7984093210678
 20
7.918386292011754
 30
0.0
 10
247.9247747663161
 20
7.864687609474341
 30
0.0
 10
247.85099002994
 20
7.894956401116648
 30
0.0
 10
247.7086276208886
 20
7.957015547167525
 30
0.0
 10
247.6346629953582
 20
7.989258479335994
 30
0.0
  0
SPLINE
  5
C6
330
1F
100
AcDbEntity
  8
0
  6
HIDDEN
 62
     7
370
    18
100
AcDbSpline
210
0.0
220
0.0
230
1.0
 70
     8
 71
     3
 72
     9
 73
     5
 74
     0
 42
0.00000001
 43
0.00000001
 40
0.0
 40
0.0
 40
0.0
 40
0.0
 40
0.5002491404223639
 40
0.9999999999999999
 40
0.9999999999999999
 40
0.9999999999999999
 40
0.9999999999999999
 10
243.3378061161046
 20
11.31801057859549
 30
0.0
 10
243.345995320026
 20
11.30701139425721
 30
0.0
 10
243.3623655708863
 20
11.28502398148724
 30
0.0
 10
243.2857915063687
 20
11.38495402592846
 30
0.0
 10
243.2475235518047
 20
11.43489415153558
 30
0.0
  0
SPLINE
  5
C7
330
1F
100
AcDbEntity
  8
0
  6
HIDDEN
 62
     7
370
    18
100
AcDbSpline
210
0.0
220
0.0
230
1.0
 70
     8
 71
     3
 72
    21
 73
    17
 74
     0
 42
0.00000001
 43
0.00000001
 40
0.0
 40
0.0
 40
0.0
 40
0.0
 40
0.0443558017772134
 40
0.1192142116628651
 40
0.1940538696493078
 40
0.2712529255613099
 40
0.3484139635821204
 40
0.434644963472956
 40
0.5229294069432571
 40
0.6139229264791782
 40
0.6784969507648271
 40
0.7447839867638943
 40
0.8094045678246583
 40
0.8760977480280526
 40
0.9371430578721778
 40
1.0
 40
1.0
 40
1.0
 40
1.0
 10
240.9035667550281
 20
17.83104758701949
 30
0.0
 10
240.8837721242247
 20
18.02670348034792
 30
0.0
 10
240.8305704862915
 20
18.55256395734924
 30
0.0
 10
240.8960624856761
 20
19.53314116870703
 30
0.0
 10
241.0643189700723
 20
20.71809927671475
 30
0.0
 10
241.3955399354764
 20
21.98247181185349
 30
0.0
 10
241.9321689374909
 20
23.34973979061281
 30
0.0
 10
242.7404045547014
 20
24.79774148737783
 30
0.0
 10
243.9061646795109
 20
26.28400085276077
 30
0.0
 10
245.2943541441684
 20
27.53226592486426
 30
0.0
 10
246.7949554255113
 20
28.49459110232595
 30
0.0
 10
248.2743557655918
 20
29.1725807198356
 30
0.0
 10
249.8934052183178
 20
29.64747461177033
 30
0.0
 10
251.5444766653682
 20
29.87091497488002
 30
0.0
 10
253.2064274067606
 20
29.86774378946737
 30
0.0
 10
254.2564170861814
 20
29.67659347611506
 30
0.0
 10
254.7890881189009
 20
29.57962087075174
 30
0.0
  0
LINE
  5
C8
330
1F
100
AcDbEntity
  8
0
  6
HIDDEN
 62
     7
370
    18
100
AcDbLine
 10
236.5299694034
 20
99.6557886661
 30
0.0
 11
182.2857308673
 21
99.6557886661
 31
0.0
  0
LINE
  5
C9
330
1F
100
AcDbEntity
  8
0
  6
HIDDEN
 62
     7
370
    18
100
AcDbLine
 10
182.2857308673
 20
102.9999796429
 30
0.0
 11
236.1134283979
 21
102.9999796429
 31
0.0
  0
LINE
  5
CA
330
1F
100
AcDbEntity
  8
0
  6
HIDDEN
 62
     7
370
    18
100
AcDbLine
 10
240.8337955595
 20
18.6044009241
 30
0.0
 11
240.8350219369
 21
18.9793792319
 31
0.0
  0
LINE
  5
CB
330
1F
100
AcDbEntity
  8
0
  6
HIDDEN
 62
     7
370
    18
100
AcDbLine
 10
182.2857308673
 20
11.2857594388
 30
0.0
 11
243.3378061161
 21
11.2857594388
 31
0.0
  0
LINE
  5
CC
330
1F
100
AcDbEntity
  8
0
  6
HIDDEN
 62
     7
370
    18
100
AcDbLine
 10
236.8607673702
 20
96.9999839286
 30
0.0
 11
182.2857308673
 21
96.9999839286
 31
0.0
  0
LINE
  5
CD
330
1F
100
AcDbEntity
  8
0
  6
HIDDEN
 62
     7
370
    18
100
AcDbLine
 10
236.5048916691
 20
99.8571247449
 30
0.0
 11
182.2857308673
 21
99.8571247449
 31
0.0
  0
INSERT
  5
D9
330
1F
100
AcDbEntity
  8
10
100
AcDbBlockReference
  2
SW_CENTERMARKSYMBOL_1
 10
252.2856808674
 20
18.4286114796
 30
0.0
  0
ENDSEC
  0
SECTION
  2
OBJECTS
  0
DICTIONARY
  5
C
330
0
100
AcDbDictionary
281
     1
  3
ACAD_GROUP
350
D
  3
ACAD_LAYOUT
350
1A
  3
ACAD_MLINESTYLE
350
17
  3
ACAD_PLOTSETTINGS
350
19
  3
ACAD_PLOTSTYLENAME
350
E
  3
ACAD_SCALELIST
350
47
  3
DWGPROPS
350
DA
  0
DICTIONARY
  5
D
102
{ACAD_REACTORS
330
C
102
}
330
C
100
AcDbDictionary
281
     1
  0
DICTIONARY
  5
1A
102
{ACAD_REACTORS
330
C
102
}
330
C
100
AcDbDictionary
281
     1
  3
Layout1
350
1E
  3
Layout2
350
26
  3
Model
350
22
  0
DICTIONARY
  5
17
102
{ACAD_REACTORS
330
C
102
}
330
C
100
AcDbDictionary
281
     1
  3
Standard
350
18
  0
DICTIONARY
  5
19
102
{ACAD_REACTORS
330
C
102
}
330
C
100
AcDbDictionary
281
     1
  0
ACDBDICTIONARYWDFLT
  5
E
102
{ACAD_REACTORS
330
C
102
}
330
C
100
AcDbDictionary
281
     1
  3
Normal
350
F
100
AcDbDictionaryWithDefault
340
F
  0
DICTIONARY
  5
47
102
{ACAD_REACTORS
330
C
102
}
330
C
100
AcDbDictionary
281
     1
  3
A0
350
48
  3
A1
350
49
  3
A2
350
4A
  3
A3
350
4B
  3
A4
350
4C
  3
A5
350
4D
  3
A6
350
4E
  3
A7
350
4F
  3
A8
350
50
  3
A9
350
51
  3
B0
350
52
  3
B1
350
53
  3
B2
350
54
  3
B3
350
55
  3
B4
350
56
  3
B5
350
57
  3
B6
350
58
  0
XRECORD
  5
DA
102
{ACAD_REACTORS
330
C
102
}
330
C
100
AcDbXrecord
280
     1
  1
DWGPROPS COOKIE
  2

  3

  4

  6

  7

  8

  9

300
=
301
=
302
=
303
=
304
=
305
=
306
=
307
=
308
=
309
=
 40
0.0
 41
2461214.989236193
 42
2461214.989236482
  1

 90
        0
  0
LAYOUT
  5
1E
102
{ACAD_REACTORS
330
1A
102
}
330
1A
100
AcDbPlotSettings
  1

  2
none_device
  4

  6

 40
0.0
 41
0.0
 42
0.0
 43
0.0
 44
0.0
 45
0.0
 46
0.0
 47
0.0
 48
0.0
 49
0.0
140
0.0
141
0.0
142
1.0
143
1.0
 70
   688
 72
     1
 73
     0
 74
     5
  7

 75
    16
147
1.0
148
0.0
149
0.0
100
AcDbLayout
  1
Layout1
 70
     1
 71
     1
 10
0.0
 20
0.0
 11
420.0
 21
297.0
 12
0.0
 22
0.0
 32
0.0
 14
1.0000000000E+20
 24
1.0000000000E+20
 34
1.0000000000E+20
 15
-1.0000000000E+20
 25
-1.0000000000E+20
 35
-1.0000000000E+20
146
0.0
 13
0.0
 23
0.0
 33
0.0
 16
1.0
 26
0.0
 36
0.0
 17
0.0
 27
1.0
 37
0.0
 76
     0
330
1B
  0
LAYOUT
  5
26
102
{ACAD_REACTORS
330
1A
102
}
330
1A
100
AcDbPlotSettings
  1

  2
none_device
  4

  6

 40
0.0
 41
0.0
 42
0.0
 43
0.0
 44
0.0
 45
0.0
 46
0.0
 47
0.0
 48
0.0
 49
0.0
140
0.0
141
0.0
142
1.0
143
1.0
 70
   688
 72
     1
 73
     0
 74
     5
  7

 75
    16
147
1.0
148
0.0
149
0.0
100
AcDbLayout
  1
Layout2
 70
     1
 71
     2
 10
0.0
 20
0.0
 11
0.0
 21
0.0
 12
0.0
 22
0.0
 32
0.0
 14
0.0
 24
0.0
 34
0.0
 15
0.0
 25
0.0
 35
0.0
146
0.0
 13
0.0
 23
0.0
 33
0.0
 16
1.0
 26
0.0
 36
0.0
 17
0.0
 27
1.0
 37
0.0
 76
     0
330
23
  0
LAYOUT
  5
22
102
{ACAD_REACTORS
330
1A
102
}
330
1A
100
AcDbPlotSettings
  1

  2
none_device
  4
Letter_(8.50_x_11.00_Inches)
  6

 40
6.35
 41
6.35
 42
6.35000508
 43
6.35000508
 44
215.9
 45
279.4
 46
0.0
 47
0.0
 48
0.0
 49
0.0
140
0.0
141
0.0
142
1.0
143
1.0
 70
  1712
 72
     1
 73
     0
 74
     0
  7

 75
     0
147
1.0
148
0.0
149
0.0
100
AcDbLayout
  1
Model
 70
     1
 71
     0
 10
0.0
 20
0.0
 11
297.0
 21
210.0
 12
0.0
 22
0.0
 32
0.0
 14
0.0
 24
0.0
 34
0.0
 15
297.0
 25
210.0
 35
0.0
146
0.0
 13
0.0
 23
0.0
 33
0.0
 16
1.0
 26
0.0
 36
0.0
 17
0.0
 27
1.0
 37
0.0
 76
     0
330
1F
331
29
  0
MLINESTYLE
  5
18
102
{ACAD_REACTORS
330
17
102
}
330
17
100
AcDbMlineStyle
  2
Standard
 70
     0
  3

 62
   256
 51
90.0
 52
90.0
 71
     2
 49
0.5
 62
   256
  6
BYLAYER
 49
-0.5
 62
   256
  6
BYLAYER
  0
ACDBPLACEHOLDER
  5
F
102
{ACAD_REACTORS
330
E
102
}
330
E
  0
SCALE
  5
48
102
{ACAD_REACTORS
330
47
102
}
330
47
100
AcDbScale
 70
     0
300
1:1
140
1.0
141
1.0
290
     1
  0
SCALE
  5
49
102
{ACAD_REACTORS
330
47
102
}
330
47
100
AcDbScale
 70
     0
300
1:2
140
1.0
141
2.0
290
     0
  0
SCALE
  5
4A
102
{ACAD_REACTORS
330
47
102
}
330
47
100
AcDbScale
 70
     0
300
1:4
140
1.0
141
4.0
290
     0
  0
SCALE
  5
4B
102
{ACAD_REACTORS
330
47
102
}
330
47
100
AcDbScale
 70
     0
300
1:5
140
1.0
141
5.0
290
     0
  0
SCALE
  5
4C
102
{ACAD_REACTORS
330
47
102
}
330
47
100
AcDbScale
 70
     0
300
1:8
140
1.0
141
8.0
290
     0
  0
SCALE
  5
4D
102
{ACAD_REACTORS
330
47
102
}
330
47
100
AcDbScale
 70
     0
300
1:10
140
1.0
141
10.0
290
     0
  0
SCALE
  5
4E
102
{ACAD_REACTORS
330
47
102
}
330
47
100
AcDbScale
 70
     0
300
1:16
140
1.0
141
16.0
290
     0
  0
SCALE
  5
4F
102
{ACAD_REACTORS
330
47
102
}
330
47
100
AcDbScale
 70
     0
300
1:20
140
1.0
141
20.0
290
     0
  0
SCALE
  5
50
102
{ACAD_REACTORS
330
47
102
}
330
47
100
AcDbScale
 70
     0
300
1:30
140
1.0
141
30.0
290
     0
  0
SCALE
  5
51
102
{ACAD_REACTORS
330
47
102
}
330
47
100
AcDbScale
 70
     0
300
1:40
140
1.0
141
40.0
290
     0
  0
SCALE
  5
52
102
{ACAD_REACTORS
330
47
102
}
330
47
100
AcDbScale
 70
     0
300
1:50
140
1.0
141
50.0
290
     0
  0
SCALE
  5
53
102
{ACAD_REACTORS
330
47
102
}
330
47
100
AcDbScale
 70
     0
300
1:100
140
1.0
141
100.0
290
     0
  0
SCALE
  5
54
102
{ACAD_REACTORS
330
47
102
}
330
47
100
AcDbScale
 70
     0
300
2:1
140
2.0
141
1.0
290
     0
  0
SCALE
  5
55
102
{ACAD_REACTORS
330
47
102
}
330
47
100
AcDbScale
 70
     0
300
4:1
140
4.0
141
1.0
290
     0
  0
SCALE
  5
56
102
{ACAD_REACTORS
330
47
102
}
330
47
100
AcDbScale
 70
     0
300
8:1
140
8.0
141
1.0
290
     0
  0
SCALE
  5
57
102
{ACAD_REACTORS
330
47
102
}
330
47
100
AcDbScale
 70
     0
300
10:1
140
10.0
141
1.0
290
     0
  0
SCALE
  5
58
102
{ACAD_REACTORS
330
47
102
}
330
47
100
AcDbScale
 70
     0
300
100:1
140
100.0
141
1.0
290
     0
  0
ENDSEC
  0
EOF
