  0
SECTION
  2
HEADER
  9
$ACADVER
  1
AC1015
  9
$ACADMAINTVER
 70
     6
  9
$DWGCODEPAGE
  3
ANSI_936
  9
$INSBASE
 10
0.0
 20
0.0
 30
0.0
  9
$EXTMIN
 10
0.0
 20
0.0
 30
0.0
  9
$EXTMAX
 10
297.0
 20
210.0
 30
0.0
  9
$LIMMIN
 10
0.0
 20
0.0
  9
$LIMMAX
 10
297.0
 20
210.0
  9
$ORTHOMODE
 70
     0
  9
$REGENMODE
 70
     1
  9
$FILLMODE
 70
     1
  9
$QTEXTMODE
 70
     0
  9
$MIRRTEXT
 70
     1
  9
$LTSCALE
 40
1.0
  9
$ATTMODE
 70
     1
  9
$TEXTSIZE
 40
3.5
  9
$TRACEWID
 40
1.0
  9
$TEXTSTYLE
  7
Standard
  9
$CLAYER
  8
0
  9
$CELTYPE
  6
ByLayer
  9
$CECOLOR
 62
   256
  9
$CELTSCALE
 40
1.0
  9
$DISPSILH
 70
     0
  9
$DIMSCALE
 40
1.0
  9
$DIMASZ
 40
4.08
  9
$DIMEXO
 40
0.0
  9
$DIMDLI
 40
3.75
  9
$DIMRND
 40
0.0
  9
$DIMDLE
 40
0.0
  9
$DIMEXE
 40
2.0
  9
$DIMTP
 40
0.0
  9
$DIMTM
 40
0.0
  9
$DIMTXT
 40
3.5
  9
$DIMCEN
 40
2.5
  9
$DIMTSZ
 40
0.0
  9
$DIMTOL
 70
     0
  9
$DIMLIM
 70
     0
  9
$DIMTIH
 70
     1
  9
$DIMTOH
 70
     1
  9
$DIMSE1
 70
     0
  9
$DIMSE2
 70
     0
  9
$DIMTAD
 70
     1
  9
$DIMZIN
 70
     0
  9
$DIMBLK
  1

  9
$DIMASO
 70
     1
  9
$DIMSHO
 70
     1
  9
$DIMPOST
  1

  9
$DIMAPOST
  1

  9
$DIMALT
 70
     0
  9
$DIMALTD
 70
     3
  9
$DIMALTF
 40
0.0393700787
  9
$DIMLFAC
 40
2.0
  9
$DIMTOFL
 70
     1
  9
$DIMTVP
 40
0.0
  9
$DIMTIX
 70
     0
  9
$DIMSOXD
 70
     0
  9
$DIMSAH
 70
     0
  9
$DIMBLK1
  1

  9
$DIMBLK2
  1

  9
$DIMSTYLE
  2
ISO-25
  9
$DIMCLRD
 70
     0
  9
$DIMCLRE
 70
     0
  9
$DIMCLRT
 70
     0
  9
$DIMTFAC
 40
1.0
  9
$DIMGAP
 40
1.524
  9
$DIMJUST
 70
     0
  9
$DIMSD1
 70
     0
  9
$DIMSD2
 70
     0
  9
$DIMTOLJ
 70
     0
  9
$DIMTZIN
 70
     0
  9
$DIMALTZ
 70
     0
  9
$DIMALTTZ
 70
     0
  9
$DIMUPT
 70
     0
  9
$DIMDEC
 70
     2
  9
$DIMTDEC
 70
     2
  9
$DIMALTU
 70
     2
  9
$DIMALTTD
 70
     3
  9
$DIMTXSTY
  7
Standard
  9
$DIMAUNIT
 70
     0
  9
$DIMADEC
 70
     2
  9
$DIMALTRND
 40
0.0
  9
$DIMAZIN
 70
     0
  9
$DIMDSEP
 70
    44
  9
$DIMATFIT
 70
     3
  9
$DIMFRAC
 70
     0
  9
$DIMLDRBLK
  1

  9
$DIMLUNIT
 70
     2
  9
$DIMLWD
 70
    -2
  9
$DIMLWE
 70
    -2
  9
$DIMTMOVE
 70
     0
  9
$LUNITS
 70
     2
  9
$LUPREC
 70
     2
  9
$SKETCHINC
 40
1.0
  9
$FILLETRAD
 40
0.0
  9
$AUNITS
 70
     0
  9
$AUPREC
 70
     2
  9
$MENU
  1
.
  9
$ELEVATION
 40
0.0
  9
$PELEVATION
 40
0.0
  9
$THICKNESS
 40
0.0
  9
$LIMCHECK
 70
     0
  9
$CHAMFERA
 40
0.0
  9
$CHAMFERB
 40
0.0
  9
$CHAMFERC
 40
0.0
  9
$CHAMFERD
 40
0.0
  9
$SKPOLY
 70
     0
  9
$TDCREATE
 40
2461215.327187061
  9
$TDUCREATE
 40
2461214.993853727
  9
$TDUPDATE
 40
2461215.327187408
  9
$TDUUPDATE
 40
2461214.993854075
  9
$TDINDWG
 40
0.0000000116
  9
$TDUSRTIMER
 40
0.0000000116
  9
$USRTIMER
 70
     1
  9
$ANGBASE
 50
0.0
  9
$ANGDIR
 70
     0
  9
$PDMODE
 70
     0
  9
$PDSIZE
 40
-1.0
  9
$PLINEWID
 40
0.0
  9
$SPLFRAME
 70
     0
  9
$SPLINETYPE
 70
     6
  9
$SPLINESEGS
 70
     8
  9
$HANDSEED
  5
FB
  9
$SURFTAB1
 70
     6
  9
$SURFTAB2
 70
     6
  9
$SURFTYPE
 70
     6
  9
$SURFU
 70
     6
  9
$SURFV
 70
     6
  9
$UCSBASE
  2

  9
$UCSNAME
  2

  9
$UCSORG
 10
0.0
 20
0.0
 30
0.0
  9
$UCSXDIR
 10
1.0
 20
0.0
 30
0.0
  9
$UCSYDIR
 10
0.0
 20
1.0
 30
0.0
  9
$UCSORTHOREF
  2

  9
$UCSORTHOVIEW
 70
     0
  9
$UCSORGTOP
 10
0.0
 20
0.0
 30
0.0
  9
$UCSORGBOTTOM
 10
0.0
 20
0.0
 30
0.0
  9
$UCSORGLEFT
 10
0.0
 20
0.0
 30
0.0
  9
$UCSORGRIGHT
 10
0.0
 20
0.0
 30
0.0
  9
$UCSORGFRONT
 10
0.0
 20
0.0
 30
0.0
  9
$UCSORGBACK
 10
0.0
 20
0.0
 30
0.0
  9
$PUCSBASE
  2

  9
$PUCSNAME
  2

  9
$PUCSORG
 10
0.0
 20
0.0
 30
0.0
  9
$PUCSXDIR
 10
1.0
 20
0.0
 30
0.0
  9
$PUCSYDIR
 10
0.0
 20
1.0
 30
0.0
  9
$PUCSORTHOREF
  2

  9
$PUCSORTHOVIEW
 70
     0
  9
$PUCSORGTOP
 10
0.0
 20
0.0
 30
0.0
  9
$PUCSORGBOTTOM
 10
0.0
 20
0.0
 30
0.0
  9
$PUCSORGLEFT
 10
0.0
 20
0.0
 30
0.0
  9
$PUCSORGRIGHT
 10
0.0
 20
0.0
 30
0.0
  9
$PUCSORGFRONT
 10
0.0
 20
0.0
 30
0.0
  9
$PUCSORGBACK
 10
0.0
 20
0.0
 30
0.0
  9
$USERI1
 70
     0
  9
$USERI2
 70
     0
  9
$USERI3
 70
     0
  9
$USERI4
 70
     0
  9
$USERI5
 70
     0
  9
$USERR1
 40
0.0
  9
$USERR2
 40
0.0
  9
$USERR3
 40
0.0
  9
$USERR4
 40
0.0
  9
$USERR5
 40
0.0
  9
$WORLDVIEW
 70
     1
  9
$SHADEDGE
 70
     3
  9
$SHADEDIF
 70
    70
  9
$TILEMODE
 70
     1
  9
$MAXACTVP
 70
    64
  9
$PINSBASE
 10
0.0
 20
0.0
 30
0.0
  9
$PLIMCHECK
 70
     0
  9
$PEXTMIN
 10
1.0000000000E+20
 20
1.0000000000E+20
 30
1.0000000000E+20
  9
$PEXTMAX
 10
-1.0000000000E+20
 20
-1.0000000000E+20
 30
-1.0000000000E+20
  9
$PLIMMIN
 10
0.0
 20
0.0
  9
$PLIMMAX
 10
420.0
 20
297.0
  9
$UNITMODE
 70
     0
  9
$VISRETAIN
 70
     1
  9
$PLINEGEN
 70
     0
  9
$PSLTSCALE
 70
     1
  9
$TREEDEPTH
 70
  3020
  9
$CMLSTYLE
  2
Standard
  9
$CMLJUST
 70
     0
  9
$CMLSCALE
 40
20.0
  9
$PROXYGRAPHICS
 70
     1
  9
$MEASUREMENT
 70
     1
  9
$CELWEIGHT
370
    -1
  9
$ENDCAPS
280
     0
  9
$JOINSTYLE
280
     0
  9
$LWDISPLAY
290
     1
  9
$INSUNITS
 70
     4
  9
$HYPERLINKBASE
  1

  9
$STYLESHEET
  1

  9
$XEDIT
290
     1
  9
$CEPSNTYPE
380
     0
  9
$PSTYLEMODE
290
     1
  9
$FINGERPRINTGUID
  2
{14b8a6d4-8d18-4a14-bda0-d8d201262a2f}
  9
$VERSIONGUID
  2
{FAEB1C32-E019-11D5-929B-00C0DF256EC4}
  9
$EXTNAMES
290
     1
  9
$PSVPSCALE
 40
0.0
  9
$OLESTARTUP
290
     0
  0
ENDSEC
  0
SECTION
  2
CLASSES
  0
CLASS
  1
ACDBDICTIONARYWDFLT
  2
AcDbDictionaryWithDefault
  3
ObjectDBX Classes
 90
        0
280
     0
281
     0
  0
CLASS
  1
VISUALSTYLE
  2
AcDbVisualStyle
  3
ObjectDBX Classes
 90
     4095
280
     0
281
     0
  0
CLASS
  1
MATERIAL
  2
AcDbMaterial
  3
ObjectDBX Classes
 90
     1153
280
     0
281
     0
  0
CLASS
  1
SCALE
  2
AcDbScale
  3
ObjectDBX Classes
 90
     1153
280
     0
281
     0
  0
CLASS
  1
TABLESTYLE
  2
AcDbTableStyle
  3
ObjectDBX Classes
 90
     4095
280
     0
281
     0
  0
CLASS
  1
MLEADERSTYLE
  2
AcDbMLeaderStyle
  3
ACDB_MLEADERSTYLE_CLASS
 90
     4095
280
     0
281
     0
  0
CLASS
  1
SUN
  2
AcDbSun
  3
SCENEOE
 90
     1153
280
     0
281
     0
  0
CLASS
  1
ACDBPLACEHOLDER
  2
AcDbPlaceHolder
  3
ObjectDBX Classes
 90
        0
280
     0
281
     0
  0
CLASS
  1
LAYOUT
  2
AcDbLayout
  3
ObjectDBX Classes
 90
        0
280
     0
281
     0
  0
ENDSEC
  0
SECTION
  2
TABLES
  0
TABLE
  2
VPORT
  5
8
330
0
100
AcDbSymbolTable
 70
     1
  0
VPORT
  5
29
330
8
100
AcDbSymbolTableRecord
100
AcDbViewportTableRecord
  2
*Active
 70
     0
 10
0.0
 20
0.0
 11
1.0
 21
1.0
 12
148.5
 22
105.0
 13
0.0
 23
0.0
 14
10.0
 24
10.0
 15
10.0
 25
10.0
 16
0.0
 26
0.0
 36
1.0
 17
0.0
 27
0.0
 37
0.0
 40
210.0
 41
1.4142857143
 42
50.0
 43
0.0
 44
0.0
 50
0.0
 51
0.0
 71
     0
 72
  2000
 73
     1
 74
     3
 75
     0
 76
     0
 77
     0
 78
     0
281
     0
 65
     1
110
0.0
120
0.0
130
0.0
111
1.0
121
0.0
131
0.0
112
0.0
122
1.0
132
0.0
 79
     0
146
0.0
  0
ENDTAB
  0
TABLE
  2
LTYPE
  5
5
330
0
100
AcDbSymbolTable
 70
     6
  0
LTYPE
  5
14
330
5
100
AcDbSymbolTableRecord
100
AcDbLinetypeTableRecord
  2
ByBlock
 70
     0
  3

 72
    65
 73
     0
 40
0.0
  0
LTYPE
  5
15
330
5
100
AcDbSymbolTableRecord
100
AcDbLinetypeTableRecord
  2
ByLayer
 70
     0
  3

 72
    65
 73
     0
 40
0.0
  0
LTYPE
  5
16
330
5
100
AcDbSymbolTableRecord
100
AcDbLinetypeTableRecord
  2
Continuous
 70
     0
  3
Solid line
 72
    65
 73
     0
 40
0.0
  0
LTYPE
  5
5E
330
5
100
AcDbSymbolTableRecord
100
AcDbLinetypeTableRecord
  2
HIDDEN
 70
     0
  3
Hidden __ __ __ __ __ __ __ __ __ __ __ __ __ __
 72
    65
 73
     2
 40
1.905
 49
1.27
 74
     0
 49
-0.635
 74
     0
  0
LTYPE
  5
5F
330
5
100
AcDbSymbolTableRecord
100
AcDbLinetypeTableRecord
  2
PHANTOM
 70
     0
  3
Phantom ______  __  __  ______  __  __  ______
 72
    65
 73
     6
 40
12.7
 49
6.35
 74
     0
 49
-1.27
 74
     0
 49
1.27
 74
     0
 49
-1.27
 74
     0
 49
1.27
 74
     0
 49
-1.27
 74
     0
  0
LTYPE
  5
60
330
5
100
AcDbSymbolTableRecord
100
AcDbLinetypeTableRecord
  2
CENTER
 70
     0
  3
Center ____ _ ____ _ ____ _ ____ _ ____ _ ____
 72
    65
 73
     4
 40
10.16
 49
6.35
 74
     0
 49
-1.27
 74
     0
 49
1.27
 74
     0
 49
-1.27
 74
     0
  0
LTYPE
  5
61
330
5
100
AcDbSymbolTableRecord
100
AcDbLinetypeTableRecord
  2
CENTERX2
 70
     0
  3
Center (2x) ________  __  ________  __  _____
 72
    65
 73
     4
 40
20.32
 49
12.7
 74
     0
 49
-2.54
 74
     0
 49
2.54
 74
     0
 49
-2.54
 74
     0
  0
LTYPE
  5
62
330
5
100
AcDbSymbolTableRecord
100
AcDbLinetypeTableRecord
  2
DOT2
 70
     0
  3
Dot (.5x) ........................................
 72
    65
 73
     2
 40
0.635
 49
0.0
 74
     0
 49
-0.635
 74
     0
  0
ENDTAB
  0
TABLE
  2
LAYER
  5
2
330
0
100
AcDbSymbolTable
 70
    14
  0
LAYER
  5
10
330
2
100
AcDbSymbolTableRecord
100
AcDbLayerTableRecord
  2
0
 70
     0
 62
     7
  6
Continuous
370
    -3
390
F
  0
LAYER
  5
63
330
2
100
AcDbSymbolTableRecord
100
AcDbLayerTableRecord
  2
SLD-0
 70
     0
 62
     7
  6
Continuous
370
    -3
390
F
  0
LAYER
  5
64
330
2
100
AcDbSymbolTableRecord
100
AcDbLayerTableRecord
  2
5
 70
     0
 62
     7
  6
Continuous
370
    -3
390
F
  0
LAYER
  5
65
330
2
100
AcDbSymbolTableRecord
100
AcDbLayerTableRecord
  2
9
 70
     0
 62
     7
  6
Continuous
370
    -3
390
F
  0
LAYER
  5
66
330
2
100
AcDbSymbolTableRecord
100
AcDbLayerTableRecord
  2
10
 70
     0
 62
     7
  6
Continuous
370
    -3
390
F
  0
LAYER
  5
67
330
2
100
AcDbSymbolTableRecord
100
AcDbLayerTableRecord
  2
轮廓实线层
 70
     0
 62
     7
  6
Continuous
370
    50
390
F
  0
LAYER
  5
68
330
2
100
AcDbSymbolTableRecord
100
AcDbLayerTableRecord
  2
细线层
 70
     0
 62
     4
  6
Continuous
370
    25
390
F
  0
LAYER
  5
69
330
2
100
AcDbSymbolTableRecord
100
AcDbLayerTableRecord
  2
中心线层
 70
     0
 62
     1
  6
CENTERX2
370
    25
390
F
  0
LAYER
  5
6A
330
2
100
AcDbSymbolTableRecord
100
AcDbLayerTableRecord
  2
虚线层
 70
     0
 62
     6
  6
HIDDEN
370
    25
390
F
  0
LAYER
  5
6B
330
2
100
AcDbSymbolTableRecord
100
AcDbLayerTableRecord
  2
剖面线层
 70
     0
 62
     2
  6
Continuous
370
    25
390
F
  0
LAYER
  5
6C
330
2
100
AcDbSymbolTableRecord
100
AcDbLayerTableRecord
  2
文字层
 70
     0
 62
     3
  6
Continuous
370
    25
390
F
  0
LAYER
  5
6D
330
2
100
AcDbSymbolTableRecord
100
AcDbLayerTableRecord
  2
标注层
 70
     0
 62
     4
  6
Continuous
370
    25
390
F
  0
LAYER
  5
6E
330
2
100
AcDbSymbolTableRecord
100
AcDbLayerTableRecord
  2
符号标注层
 70
     0
 62
    31
  6
Continuous
370
    25
390
F
  0
LAYER
  5
6F
330
2
100
AcDbSymbolTableRecord
100
AcDbLayerTableRecord
  2
双点划线层
 70
     0
 62
     6
  6
PHANTOM
370
    25
390
F
  0
ENDTAB
  0
TABLE
  2
STYLE
  5
3
330
0
100
AcDbSymbolTable
 70
     1
  0
STYLE
  5
11
330
3
100
AcDbSymbolTableRecord
100
AcDbTextStyleTableRecord
  2
Standard
 70
     0
 40
0.0
 41
1.0
 50
0.0
 71
     0
 42
3.5
  3
txt
  4

  0
ENDTAB
  0
TABLE
  2
VIEW
  5
6
330
0
100
AcDbSymbolTable
 70
     0
  0
ENDTAB
  0
TABLE
  2
UCS
  5
7
330
0
100
AcDbSymbolTable
 70
     0
  0
ENDTAB
  0
TABLE
  2
APPID
  5
9
330
0
100
AcDbSymbolTable
 70
     1
  0
APPID
  5
12
330
9
100
AcDbSymbolTableRecord
100
AcDbRegAppTableRecord
  2
ACAD
 70
     0
  0
ENDTAB
  0
TABLE
  2
DIMSTYLE
  5
A
330
0
100
AcDbSymbolTable
 70
     1
100
AcDbDimStyleTable
  0
DIMSTYLE
105
27
330
A
100
AcDbSymbolTableRecord
100
AcDbDimStyleTableRecord
  2
ISO-25
 70
     0
 41
2.5
 42
0.625
 43
3.75
 44
1.25
 73
     0
 74
     0
 77
     1
 78
     8
140
2.5
141
2.5
143
0.0393700787
147
0.625
171
     3
172
     1
178
     0
271
     2
272
     2
274
     3
278
    44
283
     0
284
     8
340
11
  0
ENDTAB
  0
TABLE
  2
BLOCK_RECORD
  5
1
330
0
100
AcDbSymbolTable
 70
     1
  0
BLOCK_RECORD
  5
1F
330
1
100
AcDbSymbolTableRecord
100
AcDbBlockTableRecord
  2
*Model_Space
340
22
  0
BLOCK_RECORD
  5
1B
330
1
100
AcDbSymbolTableRecord
100
AcDbBlockTableRecord
  2
*Paper_Space
340
1E
  0
BLOCK_RECORD
  5
23
330
1
100
AcDbSymbolTableRecord
100
AcDbBlockTableRecord
  2
*Paper_Space0
340
26
  0
ENDTAB
  0
ENDSEC
  0
SECTION
  2
BLOCKS
  0
BLOCK
  5
20
330
1F
100
AcDbEntity
  8
0
100
AcDbBlockBegin
  2
*Model_Space
 70
     0
 10
0.0
 20
0.0
 30
0.0
  3
*Model_Space
  1

  0
ENDBLK
  5
21
330
1F
100
AcDbEntity
  8
0
100
AcDbBlockEnd
  0
BLOCK
  5
1C
330
1B
100
AcDbEntity
 67
     1
  8
0
100
AcDbBlockBegin
  2
*Paper_Space
 70
     0
 10
0.0
 20
0.0
 30
0.0
  3
*Paper_Space
  1

  0
ENDBLK
  5
1D
330
1B
100
AcDbEntity
 67
     1
  8
0
100
AcDbBlockEnd
  0
BLOCK
  5
24
330
23
100
AcDbEntity
  8
0
100
AcDbBlockBegin
  2
*Paper_Space0
 70
     0
 10
0.0
 20
0.0
 30
0.0
  3
*Paper_Space0
  1

  0
ENDBLK
  5
25
330
23
100
AcDbEntity
  8
0
100
AcDbBlockEnd
  0
ENDSEC
  0
SECTION
  2
ENTITIES
  0
LINE
  5
70
330
1F
100
AcDbEntity
  8
0
  6
Continuous
 62
     7
370
    25
100
AcDbLine
 10
132.342408452
 20
41.2587162573
 30
0.0
 11
132.342408452
 21
72.7412837427
 31
0.0
  0
LINE
  5
71
330
1F
100
AcDbEntity
  8
0
  6
Continuous
 62
     7
370
    25
100
AcDbLine
 10
33.6656664077
 20
72.7412837427
 30
0.0
 11
33.6656664077
 21
41.2587162573
 31
0.0
  0
ARC
  5
72
330
1F
100
AcDbEntity
  8
0
  6
Continuous
 62
     7
370
    25
100
AcDbCircle
 10
34.4152513479
 20
72.7412837427
 30
0.0
 40
0.7495849401279884
100
AcDbArc
 50
90.0
 51
180.0
  0
ARC
  5
73
330
1F
100
AcDbEntity
  8
0
  6
Continuous
 62
     7
370
    25
100
AcDbCircle
 10
34.4152513479
 20
41.2587162573
 30
0.0
 40
0.7495849401279884
100
AcDbArc
 50
180.0
 51
270.0
  0
ARC
  5
74
330
1F
100
AcDbEntity
  8
0
  6
Continuous
 62
     7
370
    25
100
AcDbCircle
 10
131.5928235118
 20
41.2587162573
 30
0.0
 40
0.7495849401279884
100
AcDbArc
 50
270.0
 51
0.0
  0
ARC
  5
75
330
1F
100
AcDbEntity
  8
0
  6
Continuous
 62
     7
370
    25
100
AcDbCircle
 10
131.5928235118
 20
72.7412837427
 30
0.0
 40
0.7495849401279884
100
AcDbArc
 50
0.0
 51
90.0
  0
ELLIPSE
  5
76
330
1F
100
AcDbEntity
  8
0
  6
Continuous
 62
     7
370
    25
100
AcDbEllipse
 10
112.8973946073
 20
69.747340207
 30
0.0
 11
3.344218774232004
 21
3.950080022557231
 31
0.0
210
0.0
220
0.0
230
1.0
 40
0.6287882206
 41
1.06901473103646
 42
1.127963358320732
  0
LINE
  5
77
330
1F
100
AcDbEntity
  8
0
  6
Continuous
 62
     7
370
    25
100
AcDbLine
 10
112.3283417822
 20
73.4908686828
 30
0.0
 11
124.0738012311
 21
73.4908686828
 31
0.0
  0
SPLINE
  5
78
330
1F
100
AcDbEntity
  8
0
  6
Continuous
 62
     7
370
    25
100
AcDbSpline
210
0.0
220
0.0
230
1.0
 70
     8
 71
     3
 72
    17
 73
    13
 74
     0
 42
0.00000001
 43
0.00000001
 40
0.0
 40
0.0
 40
0.0
 40
0.0
 40
0.073269486848797
 40
0.1416519739751853
 40
0.2052626038450287
 40
0.2642568212010488
 40
0.3893006815648786
 40
0.5032936322633498
 40
0.6225820312430306
 40
0.7469850755221019
 40
0.8651290560543609
 40
1.0
 40
1.0
 40
1.0
 40
1.0
 10
124.0738012311424
 20
73.49086868281574
 30
0.0
 10
124.1052775795866
 20
73.4901773734044
 30
0.0
 10
124.1661308362751
 20
73.48884086421135
 30
0.0
 10
124.2530863938505
 20
73.47797233421647
 30
0.0
 10
124.3323111908969
 20
73.46153458619428
 30
0.0
 10
124.4316644725017
 20
73.4312384225353
 30
0.0
 10
124.542993315384
 20
73.37712365805183
 30
0.0
 10
124.6507201938356
 20
73.28169700301234
 30
0.0
 10
124.7178038508706
 20
73.1600061976158
 30
0.0
 10
124.7353063432323
 20
73.02288800343116
 30
0.0
 10
124.7103185783978
 20
72.87940673201761
 30
0.0
 10
124.6659234636775
 20
72.78931018414391
 30
0.0
 10
124.642258412925
 20
72.74128374268776
 30
0.0
  0
SPLINE
  5
79
330
1F
100
AcDbEntity
  8
0
  6
Continuous
 62
     7
370
    25
100
AcDbSpline
210
0.0
220
0.0
230
1.0
 70
     8
 71
     3
 72
    20
 73
    16
 74
     0
 42
0.00000001
 43
0.00000001
 40
0.0
 40
0.0
 40
0.0
 40
0.0
 40
0.1250000000000006
 40
0.1250000000000006
 40
0.1875000000000006
 40
0.1875000000000006
 40
0.2500000000000006
 40
0.2500000000000006
 40
0.3750000000000006
 40
0.3750000000000006
 40
0.5000000000000006
 40
0.5000000000000006
 40
0.7500000000000003
 40
0.7500000000000003
 40
1.0
 40
1.0
 40
1.0
 40
1.0
 10
124.6422584129259
 20
72.74128374268939
 30
0.0
 10
124.3289969082157
 20
72.18283681952052
 30
0.0
 10
123.9552814654849
 20
71.69921152187169
 30
0.0
 10
123.3217987697922
 20
71.04717390902933
 30
0.0
 10
123.0970241103957
 20
70.84160453960098
 30
0.0
 10
122.6308114545538
 20
70.45810194128515
 30
0.0
 10
122.3893362042269
 20
70.27984635454699
 30
0.0
 10
121.6416847115154
 20
69.77838345864393
 30
0.0
 10
121.1123422965168
 20
69.48824937161984
 30
0.0
 10
119.9984150266735
 20
68.96955739641804
 30
0.0
 10
119.4119270009696
 20
68.7409606354151
 30
0.0
 10
117.6176683596508
 20
68.12800290254528
 30
0.0
 10
116.36253632781
 20
67.811341367458
 30
0.0
 10
113.7823709626004
 20
67.1633653270747
 30
0.0
 10
112.45194800523
 20
66.82870124299835
 30
0.0
 10
111.1511136841169
 20
66.370689729994
 30
0.0
  0
SPLINE
  5
7A
330
1F
100
AcDbEntity
  8
0
  6
Continuous
 62
     7
370
    25
100
AcDbSpline
210
0.0
220
0.0
230
1.0
 70
     8
 71
     3
 72
     8
 73
     4
 74
     0
 42
0.00000001
 43
0.00000001
 40
0.0
 40
0.0
 40
0.0
 40
0.0
 40
1.0
 40
1.0
 40
1.0
 40
1.0
 10
111.151113684117
 20
66.37068972999403
 30
0.0
 10
111.1385559811503
 20
66.36493344663982
 30
0.0
 10
111.1260089667274
 20
66.3591702100032
 30
0.0
 10
111.1134726846514
 20
66.35340010002197
 30
0.0
  0
LINE
  5
7B
330
1F
100
AcDbEntity
  8
0
  6
Continuous
 62
     7
370
    25
100
AcDbLine
 10
111.1134726847
 20
66.3534001
 30
0.0
 11
104.7444712326
 21
63.4219218016
 31
0.0
  0
LINE
  5
7C
330
1F
100
AcDbEntity
  8
0
  6
Continuous
 62
     7
370
    25
100
AcDbLine
 10
104.7444712326
 20
63.4219218016
 30
0.0
 11
102.7900848336
 21
67.6680694941
 31
0.0
  0
LINE
  5
7D
330
1F
100
AcDbEntity
  8
0
  6
Continuous
 62
     7
370
    25
100
AcDbLine
 10
102.7900848336
 20
67.6680694941
 30
0.0
 11
110.6266646389
 21
71.2750342288
 31
0.0
  0
SPLINE
  5
7E
330
1F
100
AcDbEntity
  8
0
  6
Continuous
 62
     7
370
    25
100
AcDbSpline
210
0.0
220
0.0
230
1.0
 70
     8
 71
     3
 72
    14
 73
    10
 74
     0
 42
0.00000001
 43
0.00000001
 40
0.0
 40
0.0
 40
0.0
 40
0.0
 40
0.25
 40
0.25
 40
0.5
 40
0.5
 40
0.75
 40
0.75
 40
1.0
 40
1.0
 40
1.0
 40
1.0
 10
110.626664638932
 20
71.2750342288293
 30
0.0
 10
110.7254569795201
 20
71.32050565863915
 30
0.0
 10
110.8104774564447
 20
71.38444311365481
 30
0.0
 10
110.962051863653
 20
71.52597282671488
 30
0.0
 10
111.0266932606128
 20
71.60205752379623
 30
0.0
 10
111.1420036770049
 20
71.75935054231766
 30
0.0
 10
111.1915580389017
 20
71.83960135601659
 30
0.0
 10
111.2747615207174
 20
71.99721561768136
 30
0.0
 10
111.308872087295
 20
72.07525059877857
 30
0.0
 10
111.3340230188786
 20
72.1517099753472
 30
0.0
  0
ELLIPSE
  5
7F
330
1F
100
AcDbEntity
  8
0
  6
Continuous
 62
     7
370
    25
100
AcDbEllipse
 10
112.1516989525
 20
69.4041167605
 30
0.0
 11
0.2068725777824199
 21
4.086069460968518
 31
0.0
210
0.0
220
0.0
230
1.0
 40
0.3111070761
 41
0.6310210573625443
 42
0.8491724893005075
  0
SPLINE
  5
80
330
1F
100
AcDbEntity
  8
0
  6
Continuous
 62
     7
370
    25
100
AcDbSpline
210
0.0
220
0.0
230
1.0
 70
     8
 71
     3
 72
    14
 73
    10
 74
     0
 42
0.00000001
 43
0.00000001
 40
0.0
 40
0.0
 40
0.0
 40
0.0
 40
0.25
 40
0.25
 40
0.5
 40
0.5
 40
0.75
 40
0.75
 40
1.0
 40
1.0
 40
1.0
 40
1.0
 10
111.5687609127848
 20
72.74128374268778
 30
0.0
 10
111.6276561455149
 20
72.86224277748218
 30
0.0
 10
111.6625723474907
 20
72.96286449620185
 30
0.0
 10
111.7221090353662
 20
73.12702777399505
 30
0.0
 10
111.7458571898942
 20
73.18932087908654
 30
0.0
 10
111.8051383758123
 20
73.28008274253706
 30
0.0
 10
111.8408474292307
 20
73.30924404790946
 30
0.0
 10
111.9416674958718
 20
73.34264479026976
 30
0.0
 10
112.0067588603998
 20
73.34682628408028
 30
0.0
 10
112.0862119987507
 20
73.33992462203251
 30
0.0
  0
LINE
  5
81
330
1F
100
AcDbEntity
  8
0
  6
Continuous
 62
     7
370
    25
100
AcDbLine
 10
111.1511136841
 20
41.2587162573
 30
0.0
 11
111.1511136841
 21
66.37068973
 31
0.0
  0
SPLINE
  5
82
330
1F
100
AcDbEntity
  8
0
  6
Continuous
 62
     7
370
    25
100
AcDbSpline
210
0.0
220
0.0
230
1.0
 70
     8
 71
     3
 72
    16
 73
    12
 74
     0
 42
0.00000001
 43
0.00000001
 40
-0.0788196815619768
 40
-0.0788196815619768
 40
-0.0788196815619768
 40
-0.0788196815619768
 40
-0.0784810136942996
 40
-0.0784810136942996
 40
-0.0585851652946545
 40
-0.0585851652946545
 40
-0.0390429017143868
 40
-0.0390429017143868
 40
-0.0195172722350597
 40
-0.0195172722350597
 40
0.0
 40
0.0
 40
0.0
 40
0.0
 10
54.88786676484107
 20
73.49086868281574
 30
0.0
 10
54.88779720772136
 20
73.49086868281574
 30
0.0
 10
54.88772765475684
 20
73.49086296046917
 30
0.0
 10
54.88357236691312
 20
73.49017917572873
 30
0.0
 10
54.87954646942353
 20
73.46976462132271
 30
0.0
 10
54.87214342515945
 20
73.3925080429572
 30
0.0
 10
54.86882625297393
 20
73.33705534824101
 30
0.0
 10
54.86325694009584
 20
73.19808229598631
 30
0.0
 10
54.86105680508338
 20
73.11591351228594
 30
0.0
 10
54.85805903245316
 20
72.93541148830667
 30
0.0
 10
54.8572893437599
 20
72.83881609828634
 30
0.0
 10
54.8572893437599
 20
72.74128374268776
 30
0.0
  0
LINE
  5
83
330
1F
100
AcDbEntity
  8
0
  6
Continuous
 62
     7
370
    25
100
AcDbLine
 10
110.6266646389
 20
73.4908686828
 30
0.0
 11
54.8878667648
 21
73.4908686828
 31
0.0
  0
LINE
  5
84
330
1F
100
AcDbEntity
  8
0
  6
Continuous
 62
     7
370
    25
100
AcDbLine
 10
100.3197782528
 20
73.0351179928
 30
0.0
 11
100.4550221735
 21
72.7412837427
 31
0.0
  0
LINE
  5
85
330
1F
100
AcDbEntity
  8
0
  6
Continuous
 62
     7
370
    25
100
AcDbLine
 10
99.6813867741
 20
72.7412837427
 30
0.0
 11
100.3197782528
 21
73.0351179928
 31
0.0
  0
LINE
  5
86
330
1F
100
AcDbEntity
  8
0
  6
Continuous
 62
     7
370
    25
100
AcDbLine
 10
74.5306075807
 20
43.0112378977
 30
0.0
 11
67.6356080201
 21
57.9914825877
 31
0.0
  0
LINE
  5
87
330
1F
100
AcDbEntity
  8
0
  6
Continuous
 62
     7
370
    25
100
AcDbLine
 10
104.7444712326
 20
63.4219218016
 30
0.0
 11
107.2147778134
 21
58.0548733028
 31
0.0
  0
LINE
  5
88
330
1F
100
AcDbEntity
  8
0
  6
Continuous
 62
     7
370
    25
100
AcDbLine
 10
54.8572893438
 20
41.2587162573
 30
0.0
 11
54.8572893438
 21
72.7412837427
 31
0.0
  0
LINE
  5
89
330
1F
100
AcDbEntity
  8
0
  6
Continuous
 62
     7
370
    25
100
AcDbLine
 10
107.2147778134
 20
58.0548733028
 30
0.0
 11
74.5306075807
 21
43.0112378977
 31
0.0
  0
LINE
  5
8A
330
1F
100
AcDbEntity
  8
0
  6
Continuous
 62
     7
370
    25
100
AcDbLine
 10
67.6356080201
 20
57.9914825877
 30
0.0
 11
99.6813867741
 21
72.7412837427
 31
0.0
  0
LINE
  5
8B
330
1F
100
AcDbEntity
  8
0
  6
Continuous
 62
     7
370
    25
100
AcDbLine
 10
100.4550221735
 20
72.7412837427
 30
0.0
 11
102.7900848336
 21
67.6680694941
 31
0.0
  0
LINE
  5
8C
330
1F
100
AcDbEntity
  8
0
  6
Continuous
 62
     7
370
    25
100
AcDbLine
 10
54.8878667648
 20
73.4908686828
 30
0.0
 11
34.4152513479
 21
73.4908686828
 31
0.0
  0
SPLINE
  5
8D
330
1F
100
AcDbEntity
  8
0
  6
Continuous
 62
     7
370
    25
100
AcDbSpline
210
0.0
220
0.0
230
1.0
 70
     8
 71
     3
 72
    16
 73
    12
 74
     0
 42
0.00000001
 43
0.00000001
 40
-0.0003337051006803
 40
-0.0003337051006803
 40
-0.0003337051006803
 40
-0.0003337051006803
 40
0.0
 40
0.0
 40
0.0199006757574652
 40
0.0199006757574652
 40
0.0394432620778243
 40
0.0394432620778243
 40
0.0589697511547423
 40
0.0589697511547423
 40
0.0784882195089361
 40
0.0784882195089361
 40
0.0784882195089361
 40
0.0784882195089361
 10
111.1202187632548
 20
40.50913131718424
 30
0.0
 10
111.1202875162073
 20
40.50913131718424
 30
0.0
 10
111.1203562684415
 20
40.50913687271758
 30
0.0
 10
111.1245249824657
 20
40.50981059274221
 30
0.0
 10
111.1285771821293
 20
40.53022392776873
 30
0.0
 10
111.136046607813
 20
40.60748621732368
 30
0.0
 10
111.1394028434323
 20
40.66293723611893
 30
0.0
 10
111.1450473067216
 20
40.80190871908425
 30
0.0
 10
111.1472825036206
 20
40.8840781776583
 30
0.0
 10
111.1503300043069
 20
41.06458323148313
 30
0.0
 10
111.1511136841172
 20
41.16118134752816
 30
0.0
 10
111.1511136841172
 20
41.25871625731223
 30
0.0
  0
LINE
  5
8E
330
1F
100
AcDbEntity
  8
0
  6
Continuous
 62
     7
370
    25
100
AcDbLine
 10
111.1134726847
 20
40.5091313172
 30
0.0
 11
111.1202187633
 21
40.5091313172
 31
0.0
  0
SPLINE
  5
8F
330
1F
100
AcDbEntity
  8
0
  6
Continuous
 62
     7
370
    25
100
AcDbSpline
210
0.0
220
0.0
230
1.0
 70
     8
 71
     3
 72
    16
 73
    12
 74
     0
 42
0.00000001
 43
0.00000001
 40
-0.0003386798555364
 40
-0.0003386798555364
 40
-0.0003386798555364
 40
-0.0003386798555364
 40
0.0
 40
0.0
 40
0.0198965526579702
 40
0.0198965526579702
 40
0.0394395079809213
 40
0.0394395079809213
 40
0.0589658286141341
 40
0.0589658286141341
 40
0.0784837917072549
 40
0.0784837917072549
 40
0.0784837917072549
 40
0.0784837917072549
 10
54.88786676484111
 20
40.50913131718424
 30
0.0
 10
54.8877972077214
 20
40.50913131718424
 30
0.0
 10
54.88772765474886
 20
40.50913703953082
 30
0.0
 10
54.88357236702426
 20
40.50982082427126
 30
0.0
 10
54.87954646942377
 20
40.53023537867789
 30
0.0
 10
54.87214342515962
 20
40.60749195704294
 30
0.0
 10
54.86882625297388
 20
40.66294465175915
 30
0.0
 10
54.86325694009584
 20
40.80191770401381
 30
0.0
 10
54.86105680508338
 20
40.8840864877142
 30
0.0
 10
54.85805903245316
 20
41.06458851169332
 30
0.0
 10
54.85728934375998
 20
41.16118390171365
 30
0.0
 10
54.85728934375998
 20
41.25871625731223
 30
0.0
  0
LINE
  5
90
330
1F
100
AcDbEntity
  8
0
  6
Continuous
 62
     7
370
    25
100
AcDbLine
 10
54.8878667648
 20
40.5091313172
 30
0.0
 11
111.1134726847
 21
40.5091313172
 31
0.0
  0
LINE
  5
91
330
1F
100
AcDbEntity
  8
0
  6
Continuous
 62
     7
370
    25
100
AcDbLine
 10
34.4152513479
 20
40.5091313172
 30
0.0
 11
54.8878667648
 21
40.5091313172
 31
0.0
  0
LINE
  5
92
330
1F
100
AcDbEntity
  8
0
  6
Continuous
 62
     7
370
    25
100
AcDbLine
 10
111.1202187633
 20
40.5091313172
 30
0.0
 11
131.5928235118
 21
40.5091313172
 31
0.0
  0
LINE
  5
93
330
1F
100
AcDbEntity
  8
0
  6
Continuous
 62
     7
370
    25
100
AcDbLine
 10
111.721060875
 20
73.4908686828
 30
0.0
 11
110.6266646389
 21
73.4908686828
 31
0.0
  0
ELLIPSE
  5
94
330
1F
100
AcDbEntity
  8
0
  6
Continuous
 62
     7
370
    25
100
AcDbEllipse
 10
111.721060875
 20
72.7412837427
 30
0.0
 11
0.0
 21
0.7495849401279884
 31
0.0
210
0.0
220
0.0
230
1.0
 40
0.8094374742
 41
5.637404014860087
 42
6.283185307179586
  0
LINE
  5
95
330
1F
100
AcDbEntity
  8
0
  6
Continuous
 62
     7
370
    25
100
AcDbLine
 10
112.3283417822
 20
73.4908686828
 30
0.0
 11
111.721060875
 21
73.4908686828
 31
0.0
  0
LINE
  5
96
330
1F
100
AcDbEntity
  8
0
  6
Continuous
 62
     7
370
    25
100
AcDbLine
 10
131.5928235118
 20
73.4908686828
 30
0.0
 11
124.0738012311
 21
73.4908686828
 31
0.0
  0
SPLINE
  5
97
330
1F
100
AcDbEntity
  8
0
  6
HIDDEN
 62
     7
370
    18
100
AcDbSpline
210
0.0
220
0.0
230
1.0
 70
     8
 71
     3
 72
    30
 73
    26
 74
     0
 42
0.00000001
 43
0.00000001
 40
0.0
 40
0.0
 40
0.0
 40
0.0
 40
0.1249999999999997
 40
0.1249999999999997
 40
0.1874999999999997
 40
0.1874999999999997
 40
0.2499999999999997
 40
0.2499999999999997
 40
0.3749999999999996
 40
0.3749999999999996
 40
0.4374999999999995
 40
0.4374999999999995
 40
0.4999999999999993
 40
0.4999999999999993
 40
0.5624999999999994
 40
0.5624999999999994
 40
0.6249999999999994
 40
0.6249999999999994
 40
0.7499999999999996
 40
0.7499999999999996
 40
0.8124999999999997
 40
0.8124999999999997
 40
0.8749999999999998
 40
0.8749999999999998
 40
1.0
 40
1.0
 40
1.0
 40
1.0
 10
129.029010722792
 20
40.50913131718425
 30
0.0
 10
128.9071983649155
 20
40.50913131718424
 30
0.0
 10
128.7450522948233
 20
40.55822836813714
 30
0.0
 10
128.4460409376088
 20
40.72055930285998
 30
0.0
 10
128.3370534250368
 20
40.7895090764803
 30
0.0
 10
128.1010794692634
 20
40.96065588599964
 30
0.0
 10
127.9743210855581
 20
41.06286145741991
 30
0.0
 10
127.5792149396755
 20
41.41498199494002
 30
0.0
 10
127.2931970806054
 20
41.71196973739884
 30
0.0
 10
126.8447923931875
 20
42.25999701654025
 30
0.0
 10
126.6912003499738
 20
42.46123371966309
 30
0.0
 10
126.3875629022058
 20
42.88998629229852
 30
0.0
 10
126.2369377362201
 20
43.11803997629123
 30
0.0
 10
125.940842534133
 20
43.60126662088306
 30
0.0
 10
125.7953662020126
 20
43.8564380888448
 30
0.0
 10
125.5123970476221
 20
44.39437074879912
 30
0.0
 10
125.3742303961301
 20
44.67879480434043
 30
0.0
 10
124.9840603880932
 20
45.55700299126246
 30
0.0
 10
124.7544042966158
 20
46.17796446402587
 30
0.0
 10
124.4674999093522
 20
47.16196686580175
 30
0.0
 10
124.3811051908714
 20
47.50078742772961
 30
0.0
 10
124.2324870510371
 20
48.18456795705732
 30
0.0
 10
124.1700580134276
 20
48.52960521332529
 30
0.0
 10
124.0191486780826
 20
49.57391126738793
 30
0.0
 10
123.9668600949669
 20
50.28227620567063
 30
0.0
 10
123.9668600949669
 20
51.00332047897609
 30
0.0
  0
LINE
  5
98
330
1F
100
AcDbEntity
  8
0
  6
HIDDEN
 62
     7
370
    18
100
AcDbLine
 10
123.966860095
 20
62.996679521
 30
0.0
 11
123.966860095
 21
51.003320479
 31
0.0
  0
SPLINE
  5
99
330
1F
100
AcDbEntity
  8
0
  6
HIDDEN
 62
     7
370
    18
100
AcDbSpline
210
0.0
220
0.0
230
1.0
 70
     8
 71
     3
 72
    30
 73
    26
 74
     0
 42
0.00000001
 43
0.00000001
 40
0.0
 40
0.0
 40
0.0
 40
0.0
 40
0.125
 40
0.125
 40
0.1875000000000001
 40
0.1875000000000001
 40
0.2500000000000002
 40
0.2500000000000002
 40
0.3750000000000004
 40
0.3750000000000004
 40
0.4375000000000003
 40
0.4375000000000003
 40
0.5000000000000001
 40
0.5000000000000001
 40
0.5624999999999999
 40
0.5624999999999999
 40
0.6249999999999997
 40
0.6249999999999997
 40
0.7499999999999993
 40
0.7499999999999993
 40
0.8124999999999993
 40
0.8124999999999993
 40
0.8749999999999996
 40
0.8749999999999996
 40
1.0
 40
1.0
 40
1.0
 40
1.0
 10
123.9668600949669
 20
62.99667952102391
 30
0.0
 10
123.9668600949669
 20
63.71764364859643
 30
0.0
 10
124.0191383985186
 20
64.4261282661323
 30
0.0
 10
124.1701350703951
 20
65.47087265370405
 30
0.0
 10
124.232610092827
 20
65.81609958500152
 30
0.0
 10
124.3813731745555
 20
66.50034384106071
 30
0.0
 10
124.4677150572771
 20
66.838796257408
 30
0.0
 10
124.7542335196574
 20
67.8213993330187
 30
0.0
 10
124.9834021080966
 20
68.44112232932795
 30
0.0
 10
125.3723641550514
 20
69.31719943697556
 30
0.0
 10
125.5104816606572
 20
69.60180955766779
 30
0.0
 10
125.7937743646676
 20
70.14071207280492
 30
0.0
 10
125.9391948466139
 20
70.39588710023624
 30
0.0
 10
126.2346802004611
 20
70.87843092340768
 30
0.0
 10
126.3847514205429
 20
71.10579702881267
 30
0.0
 10
126.6867624276706
 20
71.53274055633906
 30
0.0
 10
126.8394328982552
 20
71.73319142017746
 30
0.0
 10
127.2909630482373
 20
72.28581149352087
 30
0.0
 10
127.5778275878431
 20
72.58362596721476
 30
0.0
 10
127.9728514997738
 20
72.93590601457689
 30
0.0
 10
128.0989586470533
 20
73.03770865640017
 30
0.0
 10
128.3358120062785
 20
73.20968644909262
 30
0.0
 10
128.4451269397633
 20
73.27890024019584
 30
0.0
 10
128.7448693585885
 20
73.44176038256396
 30
0.0
 10
128.9071682364753
 20
73.49086868281573
 30
0.0
 10
129.029010722792
 20
73.49086868281573
 30
0.0
  0
LINE
  5
9A
330
1F
100
AcDbEntity
  8
0
  6
HIDDEN
 62
     7
370
    18
100
AcDbLine
 10
42.0412147647
 20
51.003320479
 30
0.0
 11
42.0412147647
 21
62.996679521
 31
0.0
  0
SPLINE
  5
9B
330
1F
100
AcDbEntity
  8
0
  6
HIDDEN
 62
     7
370
    18
100
AcDbSpline
210
0.0
220
0.0
230
1.0
 70
     8
 71
     3
 72
    30
 73
    26
 74
     0
 42
0.00000001
 43
0.00000001
 40
0.0
 40
0.0
 40
0.0
 40
0.0
 40
0.1249999999999999
 40
0.1249999999999999
 40
0.1874999999999999
 40
0.1874999999999999
 40
0.2499999999999998
 40
0.2499999999999998
 40
0.3750000000000004
 40
0.3750000000000004
 40
0.4375000000000003
 40
0.4375000000000003
 40
0.5000000000000002
 40
0.5000000000000002
 40
0.5625000000000001
 40
0.5625000000000001
 40
0.6250000000000001
 40
0.6250000000000001
 40
0.75
 40
0.75
 40
0.8124999999999999
 40
0.8124999999999999
 40
0.8749999999999999
 40
0.8749999999999999
 40
1.0
 40
1.0
 40
1.0
 40
1.0
 10
42.04121476473679
 20
51.00332047897609
 30
0.0
 10
42.04121476473679
 20
50.28235635140356
 30
0.0
 10
41.98893646118505
 20
49.5738717338677
 30
0.0
 10
41.83793978930862
 20
48.52912734629594
 30
0.0
 10
41.77546476687665
 20
48.18390041499847
 30
0.0
 10
41.62670168514816
 20
47.4996561589393
 30
0.0
 10
41.54035980242661
 20
47.16120374259199
 30
0.0
 10
41.25384134004621
 20
46.1786006669813
 30
0.0
 10
41.02467275160709
 20
45.55887767067205
 30
0.0
 10
40.63571070465228
 20
44.68280056302444
 30
0.0
 10
40.49759319904649
 20
44.39819044233222
 30
0.0
 10
40.21430049503606
 20
43.85928792719508
 30
0.0
 10
40.06888001308975
 20
43.60411289976375
 30
0.0
 10
39.77339465924253
 20
43.12156907659233
 30
0.0
 10
39.62332343916076
 20
42.89420297118732
 30
0.0
 10
39.32131243203304
 20
42.46725944366094
 30
0.0
 10
39.16864196144844
 20
42.26680857982253
 30
0.0
 10
38.71711181146633
 20
41.71418850647912
 30
0.0
 10
38.43024727186051
 20
41.41637403278524
 30
0.0
 10
38.03522335992987
 20
41.06409398542311
 30
0.0
 10
37.90911621265031
 20
40.96229134359982
 30
0.0
 10
37.67226285342514
 20
40.79031355090737
 30
0.0
 10
37.56294791994034
 20
40.72109975980415
 30
0.0
 10
37.26320550111512
 20
40.55823961743603
 30
0.0
 10
37.10090662322843
 20
40.50913131718424
 30
0.0
 10
36.97906413691164
 20
40.50913131718425
 30
0.0
  0
SPLINE
  5
9C
330
1F
100
AcDbEntity
  8
0
  6
HIDDEN
 62
     7
370
    18
100
AcDbSpline
210
0.0
220
0.0
230
1.0
 70
     8
 71
     3
 72
    30
 73
    26
 74
     0
 42
0.00000001
 43
0.00000001
 40
0.0
 40
0.0
 40
0.0
 40
0.0
 40
0.1250000000000007
 40
0.1250000000000007
 40
0.1875000000000009
 40
0.1875000000000009
 40
0.2500000000000011
 40
0.2500000000000011
 40
0.3750000000000015
 40
0.3750000000000015
 40
0.4375000000000014
 40
0.4375000000000014
 40
0.5000000000000014
 40
0.5000000000000014
 40
0.5625000000000012
 40
0.5625000000000012
 40
0.625000000000001
 40
0.625000000000001
 40
0.7500000000000007
 40
0.7500000000000007
 40
0.8125000000000006
 40
0.8125000000000006
 40
0.8750000000000004
 40
0.8750000000000004
 40
1.0
 40
1.0
 40
1.0
 40
1.0
 10
36.97906413691164
 20
73.49086868281573
 30
0.0
 10
37.10087649478812
 20
73.49086868281574
 30
0.0
 10
37.26302256488037
 20
73.44177163186286
 30
0.0
 10
37.56203392209485
 20
73.27944069714002
 30
0.0
 10
37.67102143466688
 20
73.2104909235197
 30
0.0
 10
37.90699539044027
 20
73.03934411400036
 30
0.0
 10
38.03375377414562
 20
72.93713854258007
 30
0.0
 10
38.42885992002819
 20
72.58501800505998
 30
0.0
 10
38.71487777909829
 20
72.28803026260115
 30
0.0
 10
39.16328246651616
 20
71.74000298345975
 30
0.0
 10
39.31687450972986
 20
71.5387662803369
 30
0.0
 10
39.62051195749788
 20
71.11001370770147
 30
0.0
 10
39.77113712348361
 20
70.88196002370877
 30
0.0
 10
40.06723232557071
 20
70.39873337911692
 30
0.0
 10
40.2127086576911
 20
70.1435619111552
 30
0.0
 10
40.49567781208155
 20
69.60562925120087
 30
0.0
 10
40.63384446357358
 20
69.32120519565956
 30
0.0
 10
41.02401447161042
 20
68.44299700873754
 30
0.0
 10
41.25367056308786
 20
67.82203553597412
 30
0.0
 10
41.54057495035151
 20
66.83803313419824
 30
0.0
 10
41.6269696688323
 20
66.49921257227037
 30
0.0
 10
41.77558780866659
 20
65.81543204294267
 30
0.0
 10
41.83801684627603
 20
65.4703947866747
 30
0.0
 10
41.98892618162102
 20
64.42608873261204
 30
0.0
 10
42.04121476473679
 20
63.71772379432936
 30
0.0
 10
42.0412147647368
 20
62.99667952102391
 30
0.0
  0
LINE
  5
9D
330
1F
100
AcDbEntity
  8
0
  6
HIDDEN
 62
     7
370
    18
100
AcDbLine
 10
111.8702328393
 20
73.317917628
 30
0.0
 11
102.2315735855
 21
68.8815046924
 31
0.0
  0
LINE
  5
9E
330
1F
100
AcDbEntity
  8
0
  6
HIDDEN
 62
     7
370
    18
100
AcDbLine
 10
105.3029824807
 20
62.2084866032
 30
0.0
 11
120.4665861362
 21
69.1878813132
 31
0.0
  0
LINE
  5
9F
330
1F
100
AcDbEntity
  8
0
  6
HIDDEN
 62
     7
370
    18
100
AcDbLine
 10
129.2909074828
 20
40.5091313172
 30
0.0
 11
129.2909074828
 21
73.4908686828
 31
0.0
  0
LINE
  5
A0
330
1F
100
AcDbEntity
  8
0
  6
HIDDEN
 62
     7
370
    18
100
AcDbLine
 10
36.7171673769
 20
73.4908686828
 30
0.0
 11
36.7171673769
 21
40.5091313172
 31
0.0
  0
LINE
  5
A1
330
1F
100
AcDbEntity
  8
0
  6
Continuous
 62
     7
370
    25
100
AcDbLine
 10
42.0412147647
 20
176.2019732359
 30
0.0
 11
40.4608337006
 21
177.7823543
 31
0.0
  0
SPLINE
  5
A2
330
1F
100
AcDbEntity
  8
0
  6
Continuous
 62
     7
370
    25
100
AcDbSpline
210
0.0
220
0.0
230
1.0
 70
     8
 71
     3
 72
    30
 73
    26
 74
     0
 42
0.00000001
 43
0.00000001
 40
0.0
 40
0.0
 40
0.0
 40
0.0
 40
0.1250000000000007
 40
0.1250000000000007
 40
0.1875000000000009
 40
0.1875000000000009
 40
0.2500000000000011
 40
0.2500000000000011
 40
0.3750000000000015
 40
0.3750000000000015
 40
0.4375000000000014
 40
0.4375000000000014
 40
0.5000000000000014
 40
0.5000000000000014
 40
0.5625000000000012
 40
0.5625000000000012
 40
0.625000000000001
 40
0.625000000000001
 40
0.7500000000000007
 40
0.7500000000000007
 40
0.8125000000000006
 40
0.8125000000000006
 40
0.8750000000000004
 40
0.8750000000000004
 40
1.0
 40
1.0
 40
1.0
 40
1.0
 10
36.97906413691164
 20
166.4230992249828
 30
0.0
 10
37.10087649478812
 20
167.1329136403174
 30
0.0
 10
37.26302256488037
 20
167.8253396334768
 30
0.0
 10
37.56203392209485
 20
168.837202289448
 30
0.0
 10
37.67102143466688
 20
169.1700144570206
 30
0.0
 10
37.90699539044027
 20
169.826392596618
 30
0.0
 10
38.03375377414562
 20
170.1489015798902
 30
0.0
 10
38.42885992002819
 20
171.0785235420673
 30
0.0
 10
38.71487777909829
 20
171.6560009136301
 30
0.0
 10
39.16328246651616
 20
172.4611644315802
 30
0.0
 10
39.31687450972986
 20
172.7206669637858
 30
0.0
 10
39.62051195749788
 20
173.2077780897592
 30
0.0
 10
39.77113712348361
 20
173.4366065681385
 30
0.0
 10
40.06723232557071
 20
173.8669726322617
 30
0.0
 10
40.2127086576911
 20
174.068507602722
 30
0.0
 10
40.49567781208155
 20
174.445688931914
 30
0.0
 10
40.63384446357358
 20
174.6221244513899
 30
0.0
 10
41.02401447161042
 20
175.1043045980427
 30
0.0
 10
41.25367056308786
 20
175.3662795875177
 30
0.0
 10
41.54057495035151
 20
175.681845873536
 30
0.0
 10
41.6269696688323
 20
175.7743949575618
 30
0.0
 10
41.77558780866659
 20
175.9312034768919
 30
0.0
 10
41.83801684627603
 20
175.9957159459859
 30
0.0
 10
41.98892618162102
 20
176.1502811256857
 30
0.0
 10
42.04121476473679
 20
176.2019732358725
 30
0.0
 10
42.0412147647368
 20
176.2019732358725
 30
0.0
  0
SPLINE
  5
A3
330
1F
100
AcDbEntity
  8
0
  6
Continuous
 62
     7
370
    25
100
AcDbSpline
210
0.0
220
0.0
230
1.0
 70
     8
 71
     3
 72
    30
 73
    26
 74
     0
 42
0.00000001
 43
0.00000001
 40
0.0
 40
0.0
 40
0.0
 40
0.0
 40
0.125
 40
0.125
 40
0.1875000000000001
 40
0.1875000000000001
 40
0.2500000000000002
 40
0.2500000000000002
 40
0.3750000000000004
 40
0.3750000000000004
 40
0.4375000000000003
 40
0.4375000000000003
 40
0.5000000000000001
 40
0.5000000000000001
 40
0.5624999999999999
 40
0.5624999999999999
 40
0.6249999999999997
 40
0.6249999999999997
 40
0.7499999999999993
 40
0.7499999999999993
 40
0.8124999999999993
 40
0.8124999999999993
 40
0.8749999999999996
 40
0.8749999999999996
 40
1.0
 40
1.0
 40
1.0
 40
1.0
 10
123.9668600949669
 20
176.2019732358724
 30
0.0
 10
123.9668600949669
 20
176.2019732358725
 30
0.0
 10
124.0191383985186
 20
176.1502924328669
 30
0.0
 10
124.1701350703951
 20
175.9956366327066
 30
0.0
 10
124.232610092827
 20
175.9310761088135
 30
0.0
 10
124.3813731745555
 20
175.7741097442029
 30
0.0
 10
124.4677150572771
 20
175.6816107245982
 30
0.0
 10
124.7542335196574
 20
175.3664644383999
 30
0.0
 10
124.9834021080966
 20
175.1050340140482
 30
0.0
 10
125.3723641550514
 20
174.6244724855871
 30
0.0
 10
125.5104816606572
 20
174.4481784319781
 30
0.0
 10
125.7937743646676
 20
174.0706922448863
 30
0.0
 10
125.9391948466139
 20
173.8692798095059
 30
0.0
 10
126.2346802004611
 20
173.4399743718089
 30
0.0
 10
126.3847514205429
 20
173.2120827393638
 30
0.0
 10
126.6867624276706
 20
172.7279873084844
 30
0.0
 10
126.8394328982552
 20
172.4704736074324
 30
0.0
 10
127.2909630482373
 20
171.6606278970373
 30
0.0
 10
127.5778275878431
 20
171.0814379372089
 30
0.0
 10
127.9728514997738
 20
170.1525327600517
 30
0.0
 10
128.0989586470533
 20
169.832007270207
 30
0.0
 10
128.3358120062785
 20
169.173748080691
 30
0.0
 10
128.4451269397633
 20
168.8401329609241
 30
0.0
 10
128.7448693585885
 20
167.8262817110694
 30
0.0
 10
128.9071682364753
 20
167.1330892021537
 30
0.0
 10
129.029010722792
 20
166.4230992249828
 30
0.0
  0
LINE
  5
A4
330
1F
100
AcDbEntity
  8
0
  6
Continuous
 62
     7
370
    25
100
AcDbLine
 10
125.5472411591
 20
177.7823543
 30
0.0
 11
123.966860095
 21
176.2019732359
 31
0.0
  0
ELLIPSE
  5
A5
330
1F
100
AcDbEntity
  8
0
  6
Continuous
 62
     7
370
    25
100
AcDbEllipse
 10
121.0306761366
 20
139.5492639765
 30
0.0
 11
8.784685605374932
 21
0.0
 31
0.0
210
0.0
220
0.0
230
1.0
 40
0.4181101489
 41
1.217052204739158
 42
3.004559124543254
  0
SPLINE
  5
A6
330
1F
100
AcDbEntity
  8
0
  6
Continuous
 62
     7
370
    25
100
AcDbSpline
210
0.0
220
0.0
230
1.0
 70
     8
 71
     3
 72
    17
 73
    13
 74
     0
 42
0.00000001
 43
0.00000001
 40
0.0
 40
0.0
 40
0.0
 40
0.0
 40
0.073269486848797
 40
0.1416519739751853
 40
0.2052626038450287
 40
0.2642568212010488
 40
0.3893006815648786
 40
0.5032936322633498
 40
0.6225820312430306
 40
0.7469850755221019
 40
0.8651290560543609
 40
1.0
 40
1.0
 40
1.0
 40
1.0
 10
124.0738012311424
 20
142.9948084912039
 30
0.0
 10
124.1052775795866
 20
142.989651646239
 30
0.0
 10
124.1661308362751
 20
142.9796819125862
 30
0.0
 10
124.2530863938505
 20
142.9615651857701
 30
0.0
 10
124.3323111908969
 20
142.9421042408957
 30
0.0
 10
124.4316644725017
 20
142.9129869978891
 30
0.0
 10
124.542993315384
 20
142.8697057704211
 30
0.0
 10
124.6507201938356
 20
142.8045054005313
 30
0.0
 10
124.7178038508706
 20
142.7280480968824
 30
0.0
 10
124.7353063432323
 20
142.6478650495221
 30
0.0
 10
124.7103185783978
 20
142.5678611246878
 30
0.0
 10
124.6659234636775
 20
142.5217750438895
 30
0.0
 10
124.642258412925
 20
142.4972086147239
 30
0.0
  0
SPLINE
  5
A7
330
1F
100
AcDbEntity
  8
0
  6
Continuous
 62
     7
370
    25
100
AcDbSpline
210
0.0
220
0.0
230
1.0
 70
     8
 71
     3
 72
     8
 73
     4
 74
     0
 42
0.00000001
 43
0.00000001
 40
0.0
 40
0.0
 40
0.0
 40
0.0
 40
1.0
 40
1.0
 40
1.0
 40
1.0
 10
111.151113684117
 20
136.7158595024921
 30
0.0
 10
111.1385559811503
 20
136.7158417542344
 30
0.0
 10
111.1260089667274
 20
136.7158329028095
 30
0.0
 10
111.1134726846514
 20
136.7158329028095
 30
0.0
  0
LINE
  5
A8
330
1F
100
AcDbEntity
  8
0
  6
Continuous
 62
     7
370
    25
100
AcDbLine
 10
111.1134726847
 20
136.7158329028
 30
0.0
 11
110.6266646389
 21
136.7158329028
 31
0.0
  0
SPLINE
  5
A9
330
1F
100
AcDbEntity
  8
0
  6
Continuous
 62
     7
370
    25
100
AcDbSpline
210
0.0
220
0.0
230
1.0
 70
     8
 71
     3
 72
    14
 73
    10
 74
     0
 42
0.00000001
 43
0.00000001
 40
0.0
 40
0.0
 40
0.0
 40
0.0
 40
0.25
 40
0.25
 40
0.5
 40
0.5
 40
0.75
 40
0.75
 40
1.0
 40
1.0
 40
1.0
 40
1.0
 10
111.5687609127848
 20
137.8868173216924
 30
0.0
 10
111.6276561455149
 20
138.0547771664218
 30
0.0
 10
111.6625723474907
 20
138.2386466771916
 30
0.0
 10
111.7221090353662
 20
138.6282617176342
 30
0.0
 10
111.7458571898942
 20
138.8319419528522
 30
0.0
 10
111.8051383758123
 20
139.2408457531346
 30
0.0
 10
111.8408474292307
 20
139.4475275887639
 30
0.0
 10
111.9416674958718
 20
139.8608578901479
 30
0.0
 10
112.0067588603998
 20
140.0655910722587
 30
0.0
 10
112.0862119987507
 20
140.2645006254177
 30
0.0
  0
SPLINE
  5
AA
330
1F
100
AcDbEntity
  8
0
  6
Continuous
 62
     7
370
    25
100
AcDbSpline
210
0.0
220
0.0
230
1.0
 70
     8
 71
     3
 72
    20
 73
    16
 74
     0
 42
0.00000001
 43
0.00000001
 40
0.0
 40
0.0
 40
0.0
 40
0.0
 40
0.1250000000000006
 40
0.1250000000000006
 40
0.1875000000000006
 40
0.1875000000000006
 40
0.2500000000000006
 40
0.2500000000000006
 40
0.3750000000000006
 40
0.3750000000000006
 40
0.5000000000000006
 40
0.5000000000000006
 40
0.7500000000000003
 40
0.7500000000000003
 40
1.0
 40
1.0
 40
1.0
 40
1.0
 10
124.6422584129259
 20
142.4972086147247
 30
0.0
 10
124.3289969082157
 20
142.2175265571946
 30
0.0
 10
123.9552814654849
 20
141.899588185735
 30
0.0
 10
123.3217987697922
 20
141.4017788459003
 30
0.0
 10
123.0970241103957
 20
141.2312151622121
 30
0.0
 10
122.6308114545538
 20
140.8915469541187
 30
0.0
 10
122.3893362042269
 20
140.7223259642787
 30
0.0
 10
121.6416847115154
 20
140.2202962760209
 30
0.0
 10
121.1123422965168
 20
139.8932440000513
 30
0.0
 10
119.9984150266735
 20
139.2692479737784
 30
0.0
 10
119.4119270009696
 20
138.9717267481647
 30
0.0
 10
117.6176683596508
 20
138.1576378326366
 30
0.0
 10
116.36253632781
 20
137.7122241573735
 30
0.0
 10
113.7823709626004
 20
137.0434949827827
 30
0.0
 10
112.45194800523
 20
136.8213080230921
 30
0.0
 10
111.1511136841169
 20
136.715859502492
 30
0.0
  0
LINE
  5
AB
330
1F
100
AcDbEntity
  8
0
  6
Continuous
 62
     7
370
    25
100
AcDbLine
 10
111.3340230189
 20
137.2173821504
 30
0.0
 11
111.5687609128
 21
137.8868173217
 31
0.0
  0
ARC
  5
AC
330
1F
100
AcDbEntity
  8
0
  6
Continuous
 62
     7
370
    25
100
AcDbCircle
 10
54.8946021751
 20
163.3485858256
 30
0.0
 40
21.17577455861569
100
AcDbArc
 50
165.9147056557
 51
179.1633607806
  0
LINE
  5
AD
330
1F
100
AcDbEntity
  8
0
  6
Continuous
 62
     7
370
    25
100
AcDbLine
 10
111.1134726847
 20
145.1711510275
 30
0.0
 11
54.8946021751
 21
145.1711510275
 31
0.0
  0
LINE
  5
AE
330
1F
100
AcDbEntity
  8
0
  6
Continuous
 62
     7
370
    25
100
AcDbLine
 10
112.3283417822
 20
140.0510097381
 30
0.0
 11
111.721060875
 21
140.5864619981
 31
0.0
  0
ARC
  5
AF
330
1F
100
AcDbEntity
  8
0
  6
Continuous
 62
     7
370
    25
100
AcDbCircle
 10
111.1134726847
 20
163.3485858256
 30
0.0
 40
18.17743479810375
100
AcDbArc
 50
270.0
 51
9.737763297
  0
ARC
  5
B0
330
1F
100
AcDbEntity
  8
0
  6
Continuous
 62
     7
370
    25
100
AcDbCircle
 10
54.8946021751
 20
163.3485858256
 30
0.0
 40
18.17743479810375
100
AcDbArc
 50
170.262236703
 51
270.0
  0
ARC
  5
B1
330
1F
100
AcDbEntity
  8
0
  6
Continuous
 62
     7
370
    25
100
AcDbCircle
 10
111.1134726847
 20
163.3485858256
 30
0.0
 40
21.17577455861567
100
AcDbArc
 50
0.8366392194
 51
14.0852943443
  0
SPLINE
  5
B2
330
1F
100
AcDbEntity
  8
0
  6
Continuous
 62
     7
370
    25
100
AcDbSpline
210
0.0
220
0.0
230
1.0
 70
     8
 71
     3
 72
    11
 73
     7
 74
     0
 42
0.00000001
 43
0.00000001
 40
0.0000000000000004
 40
0.0000000000000004
 40
0.0000000000000004
 40
0.0000000000000004
 40
0.301166578066343
 40
0.602333156132686
 40
0.752916445165857
 40
1.0540830232322
 40
1.0540830232322
 40
1.0540830232322
 40
1.0540830232322
 10
39.38166664512802
 20
177.762546398617
 30
0.0
 10
39.38166664512802
 20
177.762546398617
 30
0.0
 10
38.86590615735513
 20
177.2402917767033
 30
0.0
 10
37.26710241670512
 20
175.2068134678155
 30
0.0
 10
35.57566389924961
 20
172.2263319951673
 30
0.0
 10
34.73519443145933
 20
170.0153707893986
 30
0.0
 10
34.35548765294309
 20
168.502050951567
 30
0.0
  0
SPLINE
  5
B3
330
1F
100
AcDbEntity
  8
0
  6
Continuous
 62
     7
370
    25
100
AcDbSpline
210
0.0
220
0.0
230
1.0
 70
     8
 71
     3
 72
    10
 73
     6
 74
     0
 42
0.00000001
 43
0.00000001
 40
0.0
 40
0.0
 40
0.0
 40
0.0
 40
0.5
 40
0.5
 40
1.0
 40
1.0
 40
1.0
 40
1.0
 10
39.38166664512801
 20
177.762546398617
 30
0.0
 10
39.51836557019399
 20
177.9096677675711
 30
0.0
 10
39.71624823275699
 20
177.9980908995834
 30
0.0
 10
40.11783364247944
 20
178.0054619216641
 30
0.0
 10
40.31882790262893
 20
177.9243600979803
 30
0.0
 10
40.46083370060408
 20
177.7823543000051
 30
0.0
  0
SPLINE
  5
B4
330
1F
100
AcDbEntity
  8
0
  6
Continuous
 62
     7
370
    25
100
AcDbSpline
210
0.0
220
0.0
230
1.0
 70
     8
 71
     3
 72
    11
 73
     7
 74
     0
 42
0.00000001
 43
0.00000001
 40
0.0
 40
0.0
 40
0.0
 40
0.0
 40
0.15058167314147
 40
0.45174501942441
 40
0.752908365707351
 40
1.05407171199029
 40
1.05407171199029
 40
1.05407171199029
 40
1.05407171199029
 10
131.6525872067604
 20
168.5020509515672
 30
0.0
 10
131.462735854797
 20
169.2587027508537
 30
0.0
 10
130.7720923935021
 20
171.501077732785
 30
0.0
 10
129.0674020772062
 20
174.8022787653005
 30
0.0
 10
127.1396593887943
 20
177.2398163992308
 30
0.0
 10
126.6264082145756
 20
177.762546398617
 30
0.0
 10
126.6264082145756
 20
177.762546398617
 30
0.0
  0
SPLINE
  5
B5
330
1F
100
AcDbEntity
  8
0
  6
Continuous
 62
     7
370
    25
100
AcDbSpline
210
0.0
220
0.0
230
1.0
 70
     8
 71
     3
 72
    10
 73
     6
 74
     0
 42
0.00000001
 43
0.00000001
 40
0.0
 40
0.0
 40
0.0
 40
0.0
 40
0.285714285714286
 40
0.571428571428571
 40
1.0
 40
1.0
 40
1.0
 40
1.0
 10
126.6264082145756
 20
177.762546398617
 30
0.0
 10
126.5482945431094
 20
177.846615752305
 30
0.0
 10
126.3529951304745
 20
177.977809940667
 30
0.0
 10
125.9439583559883
 20
178.0331507368466
 30
0.0
 10
125.6689604145068
 20
177.9040735554124
 30
0.0
 10
125.5472411590995
 20
177.7823543000051
 30
0.0
  0
ARC
  5
B6
330
1F
100
AcDbEntity
  8
0
  6
Continuous
 62
     7
370
    25
100
AcDbCircle
 10
109.2884157605
 20
159.6944785964
 30
0.0
 40
23.05399269145797
100
AcDbArc
 50
311.7587003928
 51
0.8366392194
  0
LINE
  5
B7
330
1F
100
AcDbEntity
  8
0
  6
Continuous
 62
     7
370
    25
100
AcDbLine
 10
132.3399506912
 20
160.0311035483
 30
0.0
 11
132.2869897172
 21
163.6577858062
 31
0.0
  0
LINE
  5
B8
330
1F
100
AcDbEntity
  8
0
  6
Continuous
 62
     7
370
    25
100
AcDbLine
 10
33.7210851425
 20
163.6577858062
 30
0.0
 11
33.6681241685
 21
160.0311035483
 31
0.0
  0
SPLINE
  5
B9
330
1F
100
AcDbEntity
  8
0
  6
Continuous
 62
     7
370
    25
100
AcDbSpline
210
0.0
220
0.0
230
1.0
 70
     8
 71
     3
 72
    16
 73
    12
 74
     0
 42
0.00000001
 43
0.00000001
 40
-0.0788196815619768
 40
-0.0788196815619768
 40
-0.0788196815619768
 40
-0.0788196815619768
 40
-0.0784810136942996
 40
-0.0784810136942996
 40
-0.0585851652946545
 40
-0.0585851652946545
 40
-0.0390429017143868
 40
-0.0390429017143868
 40
-0.0195172722350597
 40
-0.0195172722350597
 40
0.0
 40
0.0
 40
0.0
 40
0.0
 10
54.88786676484107
 20
137.4654178429375
 30
0.0
 10
54.88779720772136
 20
137.4637268107488
 30
0.0
 10
54.88772765475684
 20
137.4620357832068
 30
0.0
 10
54.88357236691312
 20
137.3610033385624
 30
0.0
 10
54.87954646942353
 20
137.2627728347553
 30
0.0
 10
54.87214342515945
 20
137.0816098972965
 30
0.0
 10
54.86882625297393
 20
137.0001616978571
 30
0.0
 10
54.86325694009584
 20
136.8631505000019
 30
0.0
 10
54.86105680508338
 20
136.8088748706538
 30
0.0
 10
54.85805903245316
 20
136.734868453302
 30
0.0
 10
54.8572893437599
 20
136.7158329028095
 30
0.0
 10
54.8572893437599
 20
136.7158329028095
 30
0.0
  0
ARC
  5
BA
330
1F
100
AcDbEntity
  8
0
  6
Continuous
 62
     7
370
    25
100
AcDbCircle
 10
56.7196590992
 20
159.6944785964
 30
0.0
 40
23.053992691458
100
AcDbArc
 50
179.1633607806
 51
265.3664283266
  0
ARC
  5
BB
330
1F
100
AcDbEntity
  8
0
  6
Continuous
 62
     7
370
    25
100
AcDbCircle
 10
110.6266646389
 20
137.4654178429
 30
0.0
 40
0.7495849401280396
100
AcDbArc
 50
270.0
 51
340.6767481703
  0
ELLIPSE
  5
BC
330
1F
100
AcDbEntity
  8
0
  6
Continuous
 62
     7
370
    25
100
AcDbEllipse
 10
99.6813867741
 20
137.4654178429
 30
0.0
 11
1.62856657497943
 21
0.0
 31
0.0
210
0.0
220
0.0
230
1.0
 40
0.4602728262
 41
4.712388980384696
 42
5.115189146340605
  0
LINE
  5
BD
330
1F
100
AcDbEntity
  8
0
  6
Continuous
 62
     7
370
    25
100
AcDbLine
 10
54.8572893438
 20
136.7158329028
 30
0.0
 11
99.6813867741
 21
136.7158329028
 31
0.0
  0
LINE
  5
BE
330
1F
100
AcDbEntity
  8
0
  6
Continuous
 62
     7
370
    25
100
AcDbLine
 10
100.4550221735
 20
136.7158329028
 30
0.0
 11
110.6266646389
 21
136.7158329028
 31
0.0
  0
ELLIPSE
  5
BF
330
1F
100
AcDbEntity
  8
0
  6
Continuous
 62
     7
370
    25
100
AcDbEllipse
 10
100.4550221735
 20
137.4654178429
 30
0.0
 11
0.0
 21
0.7495849401279884
 31
0.0
210
0.0
220
0.0
230
1.0
 40
0.4602728262
 41
2.738792487633881
 42
3.141592653589793
  0
LINE
  5
C0
330
1F
100
AcDbEntity
  8
0
  6
Continuous
 62
     7
370
    25
100
AcDbLine
 10
100.4550221735
 20
136.7158329028
 30
0.0
 11
99.6813867741
 21
136.7158329028
 31
0.0
  0
LWPOLYLINE
  5
C1
330
1F
100
AcDbEntity
  8
0
  6
HIDDEN
 62
     7
370
    18
100
AcDbPolyline
 90
       31
 70
   128
 43
0.0
 10
104.7444712326
 20
136.7158329028
 10
104.9242316141
 20
137.1339326807
 10
105.0731484382
 20
137.6164234685
 10
105.1872516885
 20
138.1504424061
 10
105.2634994537
 20
138.7217529291
 10
105.2998590228
 20
139.3151243067
 10
105.2953610755
 20
139.9147376808
 10
105.2501255241
 20
140.5046077866
 10
105.1653583159
 20
141.0690091077
 10
105.0433192843
 20
141.5928951073
 10
104.887261903
 20
142.0622993583
 10
104.7013465503
 20
142.464707878
 10
104.490529597
 20
142.7893927422
 10
104.2604312728
 20
143.0276980841
 10
104.0171858348
 20
143.1732708532
 10
103.7672780331
 20
143.2222301831
 10
103.5173702314
 20
143.1732708532
 10
103.2741247934
 20
143.0276980841
 10
103.0440264692
 20
142.7893927422
 10
102.8332095159
 20
142.464707878
 10
102.6472941632
 20
142.0622993583
 10
102.4912367819
 20
141.5928951073
 10
102.3691977503
 20
141.0690091077
 10
102.2844305421
 20
140.5046077866
 10
102.2391949907
 20
139.9147376808
 10
102.2346970434
 20
139.3151243067
 10
102.2710566125
 20
138.7217529291
 10
102.3473043777
 20
138.1504424061
 10
102.461407628
 20
137.6164234685
 10
102.6103244521
 20
137.1339326807
 10
102.7900848336
 20
136.7158329028
  0
LINE
  5
C2
330
1F
100
AcDbEntity
  8
0
  6
HIDDEN
 62
     7
370
    18
100
AcDbLine
 10
100.3197782528
 20
144.4215660873
 30
0.0
 11
107.2147778134
 21
144.4215660873
 31
0.0
  0
LINE
  5
C3
330
1F
100
AcDbEntity
  8
0
  6
HIDDEN
 62
     7
370
    18
100
AcDbLine
 10
100.3197782528
 20
136.775824473
 30
0.0
 11
100.3197782528
 21
144.4215660873
 31
0.0
  0
LINE
  5
C4
330
1F
100
AcDbEntity
  8
0
  6
HIDDEN
 62
     7
370
    18
100
AcDbLine
 10
67.6356080201
 20
144.4215660873
 30
0.0
 11
100.3197782528
 21
144.4215660873
 31
0.0
  0
LINE
  5
C5
330
1F
100
AcDbEntity
  8
0
  6
HIDDEN
 62
     7
370
    18
100
AcDbLine
 10
74.5306075807
 20
136.7158329028
 30
0.0
 11
74.5306075807
 21
144.4215660873
 31
0.0
  0
LINE
  5
C6
330
1F
100
AcDbEntity
  8
0
  6
HIDDEN
 62
     7
370
    18
100
AcDbLine
 10
107.2147778134
 20
136.7158329028
 30
0.0
 11
107.2147778134
 21
144.4215660873
 31
0.0
  0
LINE
  5
C7
330
1F
100
AcDbEntity
  8
0
  6
HIDDEN
 62
     7
370
    18
100
AcDbLine
 10
67.6356080201
 20
136.7158329028
 30
0.0
 11
67.6356080201
 21
144.4215660873
 31
0.0
  0
SPLINE
  5
C8
330
1F
100
AcDbEntity
  8
0
  6
HIDDEN
 62
     7
370
    18
100
AcDbSpline
210
0.0
220
0.0
230
1.0
 70
     8
 71
     3
 72
    16
 73
    12
 74
     0
 42
0.00000001
 43
0.00000001
 40
-0.0003337051006803
 40
-0.0003337051006803
 40
-0.0003337051006803
 40
-0.0003337051006803
 40
0.0
 40
0.0
 40
0.0199006757574652
 40
0.0199006757574652
 40
0.0394432620778243
 40
0.0394432620778243
 40
0.0589697511547423
 40
0.0589697511547423
 40
0.0784882195089361
 40
0.0784882195089361
 40
0.0784882195089361
 40
0.0784882195089361
 10
111.1202187632548
 20
137.4654187220721
 30
0.0
 10
111.1202875162073
 20
137.4637525378505
 30
0.0
 10
111.1203562684415
 20
137.462086358207
 30
0.0
 10
111.1245249824657
 20
137.361058658663
 30
0.0
 10
111.1285771821293
 20
137.2628074184035
 30
0.0
 10
111.136046607813
 20
137.0816292489841
 30
0.0
 10
111.1394028434323
 20
137.0001839763053
 30
0.0
 10
111.1450473067216
 20
136.8631756871891
 30
0.0
 10
111.1472825036206
 20
136.8089009240994
 30
0.0
 10
111.1503300043069
 20
136.7348949482565
 30
0.0
 10
111.1511136841172
 20
136.7158595024921
 30
0.0
 10
111.1511136841172
 20
136.7158595024921
 30
0.0
  0
LINE
  5
C9
330
1F
100
AcDbEntity
  8
0
  6
HIDDEN
 62
     7
370
    18
100
AcDbLine
 10
121.0306761366
 20
143.2222301831
 30
0.0
 11
103.7672780331
 21
143.2222301831
 31
0.0
  0
SPLINE
  5
CA
330
1F
100
AcDbEntity
  8
0
  6
HIDDEN
 62
     7
370
    18
100
AcDbSpline
210
0.0
220
0.0
230
1.0
 70
     8
 71
     3
 72
    12
 73
     8
 74
     0
 42
0.00000001
 43
0.00000001
 40
0.0
 40
0.0
 40
0.0
 40
0.0
 40
0.1707897193230578
 40
0.3732409457887504
 40
0.6072319332982692
 40
0.8724915095743566
 40
1.0
 40
1.0
 40
1.0
 40
1.0
 10
131.6385153913657
 20
168.4985201951745
 30
0.0
 10
131.5658599280671
 20
168.7742152985595
 30
0.0
 10
131.4070799151612
 20
169.3767146852005
 30
0.0
 10
131.0995243760542
 20
170.3394930705811
 30
0.0
 10
130.6928320618876
 20
171.413014543557
 30
0.0
 10
130.289321932865
 20
172.3393586664243
 30
0.0
 10
130.0147793753025
 20
172.8596805630931
 30
0.0
 10
129.9256516940061
 20
173.0285982150213
 30
0.0
  0
SPLINE
  5
CB
330
1F
100
AcDbEntity
  8
0
  6
Continuous
 62
     7
370
    25
100
AcDbSpline
210
0.0
220
0.0
230
1.0
 70
     8
 71
     3
 72
    26
 73
    22
 74
     0
 42
0.00000001
 43
0.00000001
 40
0.0
 40
0.0
 40
0.0
 40
0.0
 40
0.0834725375435846
 40
0.1575923041159363
 40
0.2223502633721647
 40
0.2777176446772501
 40
0.3236502138643455
 40
0.3600634388233159
 40
0.3910847461191569
 40
0.4171961009213138
 40
0.447744669775213
 40
0.4827361466595332
 40
0.5221702791613669
 40
0.5954693647447766
 40
0.6657318854404248
 40
0.7307896411126952
 40
0.776362832311535
 40
0.8327248412430687
 40
0.8805253039236677
 40
0.9363298410472883
 40
1.0
 40
1.0
 40
1.0
 40
1.0
 10
243.0017524488224
 20
62.99667952102391
 30
0.0
 10
242.9891909905049
 20
63.45340628902582
 30
0.0
 10
242.9654755360862
 20
64.31568537911897
 30
0.0
 10
242.7882006969394
 20
65.51335213376686
 30
0.0
 10
242.5525330441947
 20
66.53115213266223
 30
0.0
 10
242.2842089576907
 20
67.37156362319966
 30
0.0
 10
242.0160465186504
 20
68.04244323165766
 30
0.0
 10
241.7647248476256
 20
68.57493860732157
 30
0.0
 10
241.5365444691067
 20
69.00049039297008
 30
0.0
 10
241.305689372998
 20
69.38816769520288
 30
0.0
 10
241.0477224297948
 20
69.77961553079946
 30
0.0
 10
240.7300799163203
 20
70.20889114489334
 30
0.0
 10
240.248289674405
 20
70.77991682463023
 30
0.0
 10
239.5857225014557
 20
71.42089413588808
 30
0.0
 10
238.7437020649582
 20
72.03851266967679
 30
0.0
 10
237.9534904756782
 20
72.48215597072517
 30
0.0
 10
237.188958929042
 20
72.8195606986831
 30
0.0
 10
236.4656211867201
 20
73.07005854288772
 30
0.0
 10
235.6611300594328
 20
73.27367582220451
 30
0.0
 10
234.7943766965266
 20
73.4223759764484
 30
0.0
 10
234.1589569762419
 20
73.4606912427348
 30
0.0
 10
233.8203306735948
 20
73.48111011949187
 30
0.0
  0
SPLINE
  5
CC
330
1F
100
AcDbEntity
  8
0
  6
Continuous
 62
     7
370
    25
100
AcDbSpline
210
0.0
220
0.0
230
1.0
 70
     8
 71
     3
 72
    20
 73
    16
 74
     0
 42
0.00000001
 43
0.00000001
 40
0.0
 40
0.0
 40
0.0
 40
0.0
 40
0.0876818489250705
 40
0.1582766999314168
 40
0.2113678127314916
 40
0.2511618093643866
 40
0.3332895939292706
 40
0.4213244244625951
 40
0.4857156819342847
 40
0.5628464503785457
 40
0.6531259538644782
 40
0.7292657649299892
 40
0.8124533309348373
 40
0.9026945070344893
 40
1.0
 40
1.0
 40
1.0
 40
1.0
 10
233.8203288366456
 20
40.51889003174637
 30
0.0
 10
234.2861423437603
 20
40.55097870401835
 30
0.0
 10
235.1269939634907
 20
40.60890276942816
 30
0.0
 10
236.2043171036655
 20
40.85126314580204
 30
0.0
 10
237.0022283638975
 20
41.11121882832279
 30
0.0
 10
237.8152454764225
 20
41.44623322203792
 30
0.0
 10
238.7415943443372
 20
41.94574775622423
 30
0.0
 10
239.6775172264901
 20
42.65386577974198
 30
0.0
 10
240.4873477030734
 20
43.47409380176338
 30
0.0
 10
241.2019214601129
 20
44.40576627848997
 30
0.0
 10
241.8231445714712
 20
45.49655047484137
 30
0.0
 10
242.3255808961313
 20
46.70799918368257
 30
0.0
 10
242.6940485090359
 20
47.9922341166452
 30
0.0
 10
242.9512504279908
 20
49.44367874007283
 30
0.0
 10
242.9845047903159
 20
50.47054689154154
 30
0.0
 10
243.0017582671994
 20
51.00332047897609
 30
0.0
  0
LINE
  5
CD
330
1F
100
AcDbEntity
  8
0
  6
Continuous
 62
     7
370
    25
100
AcDbLine
 10
243.0019026459
 20
51.003320479
 30
0.0
 11
243.0019026459
 21
62.996679521
 31
0.0
  0
SPLINE
  5
CE
330
1F
100
AcDbEntity
  8
0
  6
Continuous
 62
     7
370
    25
100
AcDbSpline
210
0.0
220
0.0
230
1.0
 70
     8
 71
     3
 72
     9
 73
     5
 74
     0
 42
0.00000001
 43
0.00000001
 40
0.0
 40
0.0
 40
0.0
 40
0.0
 40
0.0676189878852801
 40
1.0
 40
1.0
 40
1.0
 40
1.0
 10
242.9149274416101
 20
49.47988508185383
 30
0.0
 10
242.9200772561769
 20
49.51367708863062
 30
0.0
 10
242.9962365529638
 20
50.01341847538608
 30
0.0
 10
242.9991110766371
 20
50.52568908733268
 30
0.0
 10
243.0017912279289
 20
51.00332047897609
 30
0.0
  0
LINE
  5
CF
330
1F
100
AcDbEntity
  8
0
  6
Continuous
 62
     7
370
    25
100
AcDbLine
 10
233.3196274073
 20
40.5091313172
 30
0.0
 11
233.8359899813
 21
40.5381367002
 31
0.0
  0
LINE
  5
D0
330
1F
100
AcDbEntity
  8
0
  6
Continuous
 62
     7
370
    25
100
AcDbLine
 10
234.2427844645
 20
73.4389769014
 30
0.0
 11
233.3196274073
 21
73.4908686828
 31
0.0
  0
LINE
  5
D1
330
1F
100
AcDbEntity
  8
0
  6
Continuous
 62
     7
370
    25
100
AcDbLine
 10
225.0201584163
 20
73.4908686828
 30
0.0
 11
207.9948084912
 21
73.4908686828
 31
0.0
  0
SPLINE
  5
D2
330
1F
100
AcDbEntity
  8
0
  6
Continuous
 62
     7
370
    25
100
AcDbSpline
210
0.0
220
0.0
230
1.0
 70
     8
 71
     3
 72
    17
 73
    13
 74
     0
 42
0.00000001
 43
0.00000001
 40
0.0
 40
0.0
 40
0.0
 40
0.0
 40
0.073269486848797
 40
0.1416519739751853
 40
0.2052626038450287
 40
0.2642568212010488
 40
0.3893006815648786
 40
0.5032936322633498
 40
0.6225820312430306
 40
0.7469850755221019
 40
0.8651290560543609
 40
1.0
 40
1.0
 40
1.0
 40
1.0
 10
207.9948084912039
 20
73.49086868281574
 30
0.0
 10
207.989651646239
 20
73.4901773734044
 30
0.0
 10
207.9796819125862
 20
73.48884086421135
 30
0.0
 10
207.9615651857701
 20
73.47797233421647
 30
0.0
 10
207.9421042408957
 20
73.46153458619428
 30
0.0
 10
207.9129869978891
 20
73.4312384225353
 30
0.0
 10
207.8697057704211
 20
73.37712365805183
 30
0.0
 10
207.8045054005313
 20
73.28169700301234
 30
0.0
 10
207.7280480968824
 20
73.1600061976158
 30
0.0
 10
207.6478650495221
 20
73.02288800343116
 30
0.0
 10
207.5678611246878
 20
72.87940673201761
 30
0.0
 10
207.5217750438895
 20
72.78931018414391
 30
0.0
 10
207.4972086147239
 20
72.74128374268776
 30
0.0
  0
LINE
  5
D3
330
1F
100
AcDbEntity
  8
0
  6
Continuous
 62
     7
370
    25
100
AcDbLine
 10
201.7158595025
 20
41.2587162573
 30
0.0
 11
201.7158595025
 21
66.37068973
 31
0.0
  0
SPLINE
  5
D4
330
1F
100
AcDbEntity
  8
0
  6
Continuous
 62
     7
370
    25
100
AcDbSpline
210
0.0
220
0.0
230
1.0
 70
     8
 71
     3
 72
    20
 73
    16
 74
     0
 42
0.00000001
 43
0.00000001
 40
0.0
 40
0.0
 40
0.0
 40
0.0
 40
0.1250000000000006
 40
0.1250000000000006
 40
0.1875000000000006
 40
0.1875000000000006
 40
0.2500000000000006
 40
0.2500000000000006
 40
0.3750000000000006
 40
0.3750000000000006
 40
0.5000000000000006
 40
0.5000000000000006
 40
0.7500000000000003
 40
0.7500000000000003
 40
1.0
 40
1.0
 40
1.0
 40
1.0
 10
207.4972086147247
 20
72.74128374268939
 30
0.0
 10
207.2175265571946
 20
72.18283681952052
 30
0.0
 10
206.899588185735
 20
71.69921152187169
 30
0.0
 10
206.4017788459003
 20
71.04717390902933
 30
0.0
 10
206.2312151622121
 20
70.84160453960098
 30
0.0
 10
205.8915469541187
 20
70.45810194128515
 30
0.0
 10
205.7223259642787
 20
70.27984635454699
 30
0.0
 10
205.2202962760209
 20
69.77838345864393
 30
0.0
 10
204.8932440000513
 20
69.48824937161984
 30
0.0
 10
204.2692479737784
 20
68.96955739641804
 30
0.0
 10
203.9717267481647
 20
68.7409606354151
 30
0.0
 10
203.1576378326366
 20
68.12800290254528
 30
0.0
 10
202.7122241573735
 20
67.811341367458
 30
0.0
 10
202.0434949827827
 20
67.1633653270747
 30
0.0
 10
201.8213080230921
 20
66.82870124299835
 30
0.0
 10
201.715859502492
 20
66.370689729994
 30
0.0
  0
SPLINE
  5
D5
330
1F
100
AcDbEntity
  8
0
  6
Continuous
 62
     7
370
    25
100
AcDbSpline
210
0.0
220
0.0
230
1.0
 70
     8
 71
     3
 72
    16
 73
    12
 74
     0
 42
0.00000001
 43
0.00000001
 40
-0.0003337051006803
 40
-0.0003337051006803
 40
-0.0003337051006803
 40
-0.0003337051006803
 40
0.0
 40
0.0
 40
0.0199006757574652
 40
0.0199006757574652
 40
0.0394432620778243
 40
0.0394432620778243
 40
0.0589697511547423
 40
0.0589697511547423
 40
0.0784882195089361
 40
0.0784882195089361
 40
0.0784882195089361
 40
0.0784882195089361
 10
202.4654187220722
 20
40.50913131718424
 30
0.0
 10
202.4637525378506
 20
40.50913131718424
 30
0.0
 10
202.4620863582071
 20
40.50913687271758
 30
0.0
 10
202.361058658663
 20
40.50981059274221
 30
0.0
 10
202.2628074184035
 20
40.53022392776873
 30
0.0
 10
202.0816292489841
 20
40.60748621732368
 30
0.0
 10
202.0001839763053
 20
40.66293723611893
 30
0.0
 10
201.8631756871891
 20
40.80190871908425
 30
0.0
 10
201.8089009240994
 20
40.8840781776583
 30
0.0
 10
201.7348949482565
 20
41.06458323148313
 30
0.0
 10
201.7158595024921
 20
41.16118134752816
 30
0.0
 10
201.7158595024921
 20
41.25871625731223
 30
0.0
  0
LINE
  5
D6
330
1F
100
AcDbEntity
  8
0
  6
Continuous
 62
     7
370
    25
100
AcDbLine
 10
202.4654187221
 20
40.5091313172
 30
0.0
 11
225.0201584163
 21
40.5091313172
 31
0.0
  0
LINE
  5
D7
330
1F
100
AcDbEntity
  8
0
  6
Continuous
 62
     7
370
    25
100
AcDbLine
 10
225.0201584163
 20
40.5091313172
 30
0.0
 11
228.6468406741
 21
40.5091313172
 31
0.0
  0
LINE
  5
D8
330
1F
100
AcDbEntity
  8
0
  6
Continuous
 62
     7
370
    25
100
AcDbLine
 10
228.6468406741
 20
73.4908686828
 30
0.0
 11
225.0201584163
 21
73.4908686828
 31
0.0
  0
LINE
  5
D9
330
1F
100
AcDbEntity
  8
0
  6
Continuous
 62
     7
370
    25
100
AcDbLine
 10
233.3196274073
 20
73.4908686828
 30
0.0
 11
228.6468406741
 21
73.4908686828
 31
0.0
  0
LINE
  5
DA
330
1F
100
AcDbEntity
  8
0
  6
Continuous
 62
     7
370
    25
100
AcDbLine
 10
228.6468406741
 20
40.5091313172
 30
0.0
 11
233.3196274073
 21
40.5091313172
 31
0.0
  0
ELLIPSE
  5
DB
330
1F
100
AcDbEntity
  8
0
  6
Continuous
 62
     7
370
    25
100
AcDbEllipse
 10
204.5492639765
 20
69.747340207
 30
0.0
 11
-2.664733029008403
 21
4.173763642672654
 31
0.0
210
0.0
220
0.0
230
1.0
 40
0.6056454422
 41
5.275444089057417
 42
5.334392716341711
  0
SPLINE
  5
DC
330
1F
100
AcDbEntity
  8
0
  6
Continuous
 62
     7
370
    25
100
AcDbSpline
210
0.0
220
0.0
230
1.0
 70
     8
 71
     3
 72
     8
 73
     4
 74
     0
 42
0.00000001
 43
0.00000001
 40
0.0
 40
0.0
 40
0.0
 40
0.0
 40
1.0
 40
1.0
 40
1.0
 40
1.0
 10
201.7158595024921
 20
66.37068972999403
 30
0.0
 10
201.7158417542344
 20
66.36493344663982
 30
0.0
 10
201.7158329028095
 20
66.3591702100032
 30
0.0
 10
201.7158329028095
 20
66.35340010002197
 30
0.0
  0
ARC
  5
DD
330
1F
100
AcDbEntity
  8
0
  6
Continuous
 62
     7
370
    25
100
AcDbCircle
 10
204.4873577537
 20
65.093612963
 30
0.0
 40
3.782747206689598
100
AcDbArc
 50
95.8376939314
 51
137.1111320701
  0
LINE
  5
DE
330
1F
100
AcDbEntity
  8
0
  6
Continuous
 62
     7
370
    25
100
AcDbLine
 10
201.7158329028
 20
67.6680694941
 30
0.0
 11
201.7158329028
 21
71.2750342288
 31
0.0
  0
SPLINE
  5
DF
330
1F
100
AcDbEntity
  8
0
  6
Continuous
 62
     7
370
    25
100
AcDbSpline
210
0.0
220
0.0
230
1.0
 70
     8
 71
     3
 72
    14
 73
    10
 74
     0
 42
0.00000001
 43
0.00000001
 40
0.0
 40
0.0
 40
0.0
 40
0.0
 40
0.25
 40
0.25
 40
0.5
 40
0.5
 40
0.75
 40
0.75
 40
1.0
 40
1.0
 40
1.0
 40
1.0
 10
201.7158329028095
 20
71.2750342288293
 30
0.0
 10
201.7158329028095
 20
71.32050565863915
 30
0.0
 10
201.7342428124223
 20
71.38444311365481
 30
0.0
 10
201.7901997399331
 20
71.52597282671488
 30
0.0
 10
201.827331074927
 20
71.60205752379623
 30
0.0
 10
201.9162336320282
 20
71.75935054231766
 30
0.0
 10
201.9676382095661
 20
71.83960135601659
 30
0.0
 10
202.0821952593796
 20
71.99721561768136
 30
0.0
 10
202.1456556902204
 20
72.07525059877857
 30
0.0
 10
202.2173821503725
 20
72.1517099753472
 30
0.0
  0
ELLIPSE
  5
E0
330
1F
100
AcDbEntity
  8
0
  6
Continuous
 62
     7
370
    25
100
AcDbEllipse
 10
204.5492639765
 20
69.4041167605
 30
0.0
 11
1.90257334284783
 21
3.765686203722921
 31
0.0
210
0.0
220
0.0
230
1.0
 40
0.8343228699
 41
1.014201680134939
 42
1.232353112072909
  0
SPLINE
  5
E1
330
1F
100
AcDbEntity
  8
0
  6
Continuous
 62
     7
370
    25
100
AcDbSpline
210
0.0
220
0.0
230
1.0
 70
     8
 71
     3
 72
    14
 73
    10
 74
     0
 42
0.00000001
 43
0.00000001
 40
0.0
 40
0.0
 40
0.0
 40
0.0
 40
0.25
 40
0.25
 40
0.5
 40
0.5
 40
0.75
 40
0.75
 40
1.0
 40
1.0
 40
1.0
 40
1.0
 10
202.8868173216924
 20
72.74128374268778
 30
0.0
 10
203.0547771664218
 20
72.86224277748218
 30
0.0
 10
203.2386466771916
 20
72.96286449620185
 30
0.0
 10
203.6282617176342
 20
73.12702777399505
 30
0.0
 10
203.8319419528522
 20
73.18932087908654
 30
0.0
 10
204.2408457531346
 20
73.28008274253706
 30
0.0
 10
204.4475275887639
 20
73.30924404790946
 30
0.0
 10
204.8608578901479
 20
73.34264479026976
 30
0.0
 10
205.0655910722587
 20
73.34682628408028
 30
0.0
 10
205.2645006254177
 20
73.33992462203251
 30
0.0
  0
LINE
  5
E2
330
1F
100
AcDbEntity
  8
0
  6
Continuous
 62
     7
370
    25
100
AcDbLine
 10
205.0510097381
 20
73.4908686828
 30
0.0
 11
207.9948084912
 21
73.4908686828
 31
0.0
  0
LINE
  5
E3
330
1F
100
AcDbEntity
  8
0
  6
Continuous
 62
     7
370
    25
100
AcDbLine
 10
205.0510097381
 20
73.4908686828
 30
0.0
 11
202.4654178429
 21
73.4908686828
 31
0.0
  0
LINE
  5
E4
330
1F
100
AcDbEntity
  8
0
  6
Continuous
 62
     7
370
    25
100
AcDbLine
 10
201.7158329028
 20
72.7412837427
 30
0.0
 11
201.7158329028
 21
71.2750342288
 31
0.0
  0
ARC
  5
E5
330
1F
100
AcDbEntity
  8
0
  6
Continuous
 62
     7
370
    25
100
AcDbCircle
 10
202.4654178429
 20
72.7412837427
 30
0.0
 40
0.7495849401279884
100
AcDbArc
 50
90.0
 51
180.0
  0
ARC
  5
E6
330
1F
100
AcDbEntity
  8
0
  6
Continuous
 62
     7
370
    25
100
AcDbCircle
 10
202.4654178429
 20
41.2587162573
 30
0.0
 40
0.7495849401279884
100
AcDbArc
 50
180.0
 51
270.0
  0
LINE
  5
E7
330
1F
100
AcDbEntity
  8
0
  6
Continuous
 62
     7
370
    25
100
AcDbLine
 10
201.7158329028
 20
41.2587162573
 30
0.0
 11
201.7158329028
 21
66.3534001
 31
0.0
  0
LINE
  5
E8
330
1F
100
AcDbEntity
  8
0
  6
Continuous
 62
     7
370
    25
100
AcDbLine
 10
201.7158329028
 20
66.3534001
 30
0.0
 11
201.7158329028
 21
67.6680694941
 31
0.0
  0
LINE
  5
E9
330
1F
100
AcDbEntity
  8
0
  6
Continuous
 62
     7
370
    25
100
AcDbLine
 10
234.2568529869
 20
40.5612787462
 30
0.0
 11
233.3196274073
 21
40.5091313172
 31
0.0
  0
SPLINE
  5
EA
330
1F
100
AcDbEntity
  8
0
  6
HIDDEN
 62
     7
370
    18
100
AcDbSpline
210
0.0
220
0.0
230
1.0
 70
     8
 71
     3
 72
    30
 73
    26
 74
     0
 42
0.00000001
 43
0.00000001
 40
0.0
 40
0.0
 40
0.0
 40
0.0
 40
0.1249999999999997
 40
0.1249999999999997
 40
0.1874999999999997
 40
0.1874999999999997
 40
0.2499999999999997
 40
0.2499999999999997
 40
0.3749999999999996
 40
0.3749999999999996
 40
0.4374999999999995
 40
0.4374999999999995
 40
0.4999999999999993
 40
0.4999999999999993
 40
0.5624999999999994
 40
0.5624999999999994
 40
0.6249999999999994
 40
0.6249999999999994
 40
0.7499999999999996
 40
0.7499999999999996
 40
0.8124999999999997
 40
0.8124999999999997
 40
0.8749999999999998
 40
0.8749999999999998
 40
1.0
 40
1.0
 40
1.0
 40
1.0
 10
231.4230992249828
 20
40.50913131718425
 30
0.0
 10
232.1329136403174
 20
40.50913131718424
 30
0.0
 10
232.8253396334768
 20
40.55822836813714
 30
0.0
 10
233.837202289448
 20
40.72055930285998
 30
0.0
 10
234.1700144570206
 20
40.7895090764803
 30
0.0
 10
234.8263925966179
 20
40.96065588599964
 30
0.0
 10
235.1489015798901
 20
41.06286145741991
 30
0.0
 10
236.0785235420672
 20
41.41498199494002
 30
0.0
 10
236.6560009136301
 20
41.71196973739884
 30
0.0
 10
237.4611644315801
 20
42.25999701654025
 30
0.0
 10
237.7206669637858
 20
42.46123371966309
 30
0.0
 10
238.2077780897592
 20
42.88998629229852
 30
0.0
 10
238.4366065681385
 20
43.11803997629123
 30
0.0
 10
238.8669726322617
 20
43.60126662088306
 30
0.0
 10
239.068507602722
 20
43.8564380888448
 30
0.0
 10
239.445688931914
 20
44.39437074879912
 30
0.0
 10
239.6221244513899
 20
44.67879480434043
 30
0.0
 10
240.1043045980427
 20
45.55700299126246
 30
0.0
 10
240.3662795875176
 20
46.17796446402587
 30
0.0
 10
240.681845873536
 20
47.16196686580175
 30
0.0
 10
240.7743949575618
 20
47.50078742772961
 30
0.0
 10
240.9312034768919
 20
48.18456795705732
 30
0.0
 10
240.9957159459859
 20
48.52960521332529
 30
0.0
 10
241.1502811256857
 20
49.57391126738793
 30
0.0
 10
241.2019732358725
 20
50.28227620567063
 30
0.0
 10
241.2019732358724
 20
51.00332047897609
 30
0.0
  0
SPLINE
  5
EB
330
1F
100
AcDbEntity
  8
0
  6
HIDDEN
 62
     7
370
    18
100
AcDbSpline
210
0.0
220
0.0
230
1.0
 70
     8
 71
     3
 72
    30
 73
    26
 74
     0
 42
0.00000001
 43
0.00000001
 40
0.0
 40
0.0
 40
0.0
 40
0.0
 40
0.125
 40
0.125
 40
0.1875000000000001
 40
0.1875000000000001
 40
0.2500000000000002
 40
0.2500000000000002
 40
0.3750000000000004
 40
0.3750000000000004
 40
0.4375000000000003
 40
0.4375000000000003
 40
0.5000000000000001
 40
0.5000000000000001
 40
0.5624999999999999
 40
0.5624999999999999
 40
0.6249999999999997
 40
0.6249999999999997
 40
0.7499999999999993
 40
0.7499999999999993
 40
0.8124999999999993
 40
0.8124999999999993
 40
0.8749999999999996
 40
0.8749999999999996
 40
1.0
 40
1.0
 40
1.0
 40
1.0
 10
241.2019732358724
 20
62.99667952102391
 30
0.0
 10
241.2019732358725
 20
63.71764364859643
 30
0.0
 10
241.1502924328669
 20
64.4261282661323
 30
0.0
 10
240.9956366327066
 20
65.47087265370405
 30
0.0
 10
240.9310761088135
 20
65.81609958500152
 30
0.0
 10
240.7741097442029
 20
66.50034384106071
 30
0.0
 10
240.6816107245982
 20
66.838796257408
 30
0.0
 10
240.3664644383999
 20
67.8213993330187
 30
0.0
 10
240.1050340140482
 20
68.44112232932795
 30
0.0
 10
239.6244724855871
 20
69.31719943697556
 30
0.0
 10
239.4481784319781
 20
69.60180955766779
 30
0.0
 10
239.0706922448863
 20
70.14071207280492
 30
0.0
 10
238.8692798095059
 20
70.39588710023624
 30
0.0
 10
238.4399743718089
 20
70.87843092340768
 30
0.0
 10
238.2120827393638
 20
71.10579702881267
 30
0.0
 10
237.7279873084844
 20
71.53274055633906
 30
0.0
 10
237.4704736074324
 20
71.73319142017746
 30
0.0
 10
236.6606278970373
 20
72.28581149352087
 30
0.0
 10
236.0814379372089
 20
72.58362596721476
 30
0.0
 10
235.1525327600517
 20
72.93590601457689
 30
0.0
 10
234.832007270207
 20
73.03770865640017
 30
0.0
 10
234.173748080691
 20
73.20968644909262
 30
0.0
 10
233.8401329609242
 20
73.27890024019584
 30
0.0
 10
232.8262817110694
 20
73.44176038256396
 30
0.0
 10
232.1330892021537
 20
73.49086868281573
 30
0.0
 10
231.4230992249828
 20
73.49086868281573
 30
0.0
  0
LINE
  5
EC
330
1F
100
AcDbEntity
  8
0
  6
HIDDEN
 62
     7
370
    18
100
AcDbLine
 10
210.1711510275
 20
40.5091313172
 30
0.0
 11
210.1711510275
 21
73.4908686828
 31
0.0
  0
LINE
  5
ED
330
1F
100
AcDbEntity
  8
0
  6
HIDDEN
 62
     7
370
    18
100
AcDbLine
 10
241.2019732359
 20
62.996679521
 30
0.0
 11
241.2019732359
 21
51.003320479
 31
0.0
  0
LWPOLYLINE
  5
EE
330
1F
100
AcDbEntity
  8
0
  6
HIDDEN
 62
     7
370
    18
100
AcDbPolyline
 90
       27
 70
   128
 43
0.0
 10
201.7158329028
 20
63.4219218016
 10
202.1339326807
 20
63.0313699999
 10
202.6164234685
 20
62.7078296655
 10
203.1504424061
 20
62.4599261531
 10
203.7217529291
 20
62.2942683935
 10
204.3151243067
 20
62.2152727044
 10
204.9147376808
 20
62.2250450545
 10
205.5046077866
 20
62.3233249201
 10
206.0690091077
 20
62.5074922299
 10
206.5928951073
 20
62.7726372148
 10
207.0622993583
 20
63.1116912985
 10
207.464707878
 20
63.5156155411
 10
207.7893927422
 20
63.9736416102
 10
208.0276980841
 20
64.4735588573
 10
208.1732708532
 20
65.0020398453
 10
208.2222301831
 20
65.5449956478
 10
208.1732708532
 20
66.0879514503
 10
208.0276980841
 20
66.6164324383
 10
207.7893927422
 20
67.1163496855
 10
207.464707878
 20
67.5743757545
 10
207.0622993583
 20
67.9782999971
 10
206.5928951073
 20
68.3173540809
 10
206.0690091077
 20
68.5824990658
 10
205.5046077866
 20
68.7666663756
 10
204.9147376808
 20
68.8649462411
 10
204.3151243067
 20
68.8747185913
 10
204.1026115448
 20
68.8567428816
  0
ELLIPSE
  5
EF
330
1F
100
AcDbEntity
  8
0
  6
HIDDEN
 62
     7
370
    18
100
AcDbEllipse
 10
205.5864619981
 20
72.7412837427
 30
0.0
 11
0.0
 21
0.7495849401279884
 31
0.0
210
0.0
220
0.0
230
1.0
 40
0.7136979275
 41
0.0
 42
0.645781292319434
  0
LINE
  5
F0
330
1F
100
AcDbEntity
  8
0
  6
HIDDEN
 62
     7
370
    18
100
AcDbLine
 10
201.7158329028
 20
58.0548733028
 30
0.0
 11
209.4215660873
 21
58.0548733028
 31
0.0
  0
LINE
  5
F1
330
1F
100
AcDbEntity
  8
0
  6
HIDDEN
 62
     7
370
    18
100
AcDbLine
 10
209.4215660873
 20
73.0351179928
 30
0.0
 11
209.4215660873
 21
58.0548733028
 31
0.0
  0
LINE
  5
F2
330
1F
100
AcDbEntity
  8
0
  6
HIDDEN
 62
     7
370
    18
100
AcDbLine
 10
209.4215660873
 20
58.0548733028
 30
0.0
 11
209.4215660873
 21
43.0112378977
 31
0.0
  0
LINE
  5
F3
330
1F
100
AcDbEntity
  8
0
  6
HIDDEN
 62
     7
370
    18
100
AcDbLine
 10
201.7158329028
 20
57.9914825877
 30
0.0
 11
209.4215660873
 21
57.9914825877
 31
0.0
  0
LINE
  5
F4
330
1F
100
AcDbEntity
  8
0
  6
HIDDEN
 62
     7
370
    18
100
AcDbLine
 10
201.775824473
 20
73.0351179928
 30
0.0
 11
209.4215660873
 21
73.0351179928
 31
0.0
  0
LINE
  5
F5
330
1F
100
AcDbEntity
  8
0
  6
HIDDEN
 62
     7
370
    18
100
AcDbLine
 10
201.7158329028
 20
43.0112378977
 30
0.0
 11
209.4215660873
 21
43.0112378977
 31
0.0
  0
SPLINE
  5
F6
330
1F
100
AcDbEntity
  8
0
  6
HIDDEN
 62
     7
370
    18
100
AcDbSpline
210
0.0
220
0.0
230
1.0
 70
     8
 71
     3
 72
    24
 73
    20
 74
     0
 42
0.00000001
 43
0.00000001
 40
0.0
 40
0.0
 40
0.0
 40
0.0
 40
0.0922510490736786
 40
0.1726876817389686
 40
0.2015631905859952
 40
0.2285461410482353
 40
0.2536367615854717
 40
0.2768353503846528
 40
0.3023463033333004
 40
0.3856076467202161
 40
0.4627317623851271
 40
0.5107658374500272
 40
0.5560982685553343
 40
0.6017075150358601
 40
0.680251700286898
 40
0.7562969306322361
 40
0.8299911231931829
 40
0.9014968376241366
 40
1.0
 40
1.0
 40
1.0
 40
1.0
 10
242.7823543000051
 20
51.00332047897609
 30
0.0
 10
242.771165684812
 20
50.56847627314187
 30
0.0
 10
242.7502213590946
 20
49.75447753191175
 30
0.0
 10
242.6213603769071
 20
48.81809869442482
 30
0.0
 10
242.5034882186194
 20
48.19628233018334
 30
0.0
 10
242.422592234722
 20
47.83079817069557
 30
0.0
 10
242.3382231639646
 20
47.49474363744891
 30
0.0
 10
242.2470141848934
 20
47.16906557357152
 30
0.0
 10
242.0681721552295
 20
46.5942297576125
 30
0.0
 10
241.7677343126886
 20
45.80951155853047
 30
0.0
 10
241.3525755435279
 20
44.98342444163926
 30
0.0
 10
240.9637471580217
 20
44.3481384191414
 30
0.0
 10
240.6169096469355
 20
43.8569413615548
 30
0.0
 10
240.158292173957
 20
43.29211227161575
 30
0.0
 10
239.5597528350297
 20
42.68345659635135
 30
0.0
 10
238.8026236111625
 20
42.08014645347184
 30
0.0
 10
238.0036341165421
 20
41.58821972630454
 30
0.0
 10
237.0645042923428
 20
41.13892185194565
 30
0.0
 10
236.3553952030918
 20
40.93381713508445
 30
0.0
 10
235.9445373168883
 20
40.81497943902703
 30
0.0
  0
LINE
  5
F7
330
1F
100
AcDbEntity
  8
0
  6
HIDDEN
 62
     7
370
    18
100
AcDbLine
 10
208.2222301831
 20
65.5449956478
 30
0.0
 11
208.2222301831
 21
73.4908686828
 31
0.0
  0
SPLINE
  5
F8
330
1F
100
AcDbEntity
  8
0
  6
HIDDEN
 62
     7
370
    18
100
AcDbSpline
210
0.0
220
0.0
230
1.0
 70
     8
 71
     3
 72
    10
 73
     6
 74
     0
 42
0.00000001
 43
0.00000001
 40
0.0
 40
0.0
 40
0.0
 40
0.0
 40
0.2346852839374826
 40
0.5809616981568395
 40
1.0
 40
1.0
 40
1.0
 40
1.0
 10
236.6926471257199
 20
72.97739098446677
 30
0.0
 10
236.4437662001961
 20
73.05249801870728
 30
0.0
 10
235.8276632954666
 20
73.2384249307991
 30
0.0
 10
234.7156959896242
 20
73.43092622588583
 30
0.0
 10
233.836555691334
 20
73.46014574723068
 30
0.0
 10
233.3551936451777
 20
73.47614452309118
 30
0.0
  0
LINE
  5
F9
330
1F
100
AcDbEntity
  8
0
  6
HIDDEN
 62
     7
370
    18
100
AcDbLine
 10
233.3551938942
 20
40.5238530345
 30
0.0
 11
234.2568529869
 21
40.5612787462
 31
0.0
  0
ENDSEC
  0
SECTION
  2
OBJECTS
  0
DICTIONARY
  5
C
330
0
100
AcDbDictionary
281
     1
  3
ACAD_GROUP
350
D
  3
ACAD_LAYOUT
350
1A
  3
ACAD_MLINESTYLE
350
17
  3
ACAD_PLOTSETTINGS
350
19
  3
ACAD_PLOTSTYLENAME
350
E
  3
ACAD_SCALELIST
350
47
  3
DWGPROPS
350
FA
  0
DICTIONARY
  5
D
102
{ACAD_REACTORS
330
C
102
}
330
C
100
AcDbDictionary
281
     1
  0
DICTIONARY
  5
1A
102
{ACAD_REACTORS
330
C
102
}
330
C
100
AcDbDictionary
281
     1
  3
Layout1
350
1E
  3
Layout2
350
26
  3
Model
350
22
  0
DICTIONARY
  5
17
102
{ACAD_REACTORS
330
C
102
}
330
C
100
AcDbDictionary
281
     1
  3
Standard
350
18
  0
DICTIONARY
  5
19
102
{ACAD_REACTORS
330
C
102
}
330
C
100
AcDbDictionary
281
     1
  0
ACDBDICTIONARYWDFLT
  5
E
102
{ACAD_REACTORS
330
C
102
}
330
C
100
AcDbDictionary
281
     1
  3
Normal
350
F
100
AcDbDictionaryWithDefault
340
F
  0
DICTIONARY
  5
47
102
{ACAD_REACTORS
330
C
102
}
330
C
100
AcDbDictionary
281
     1
  3
A0
350
48
  3
A1
350
49
  3
A2
350
4A
  3
A3
350
4B
  3
A4
350
4C
  3
A5
350
4D
  3
A6
350
4E
  3
A7
350
4F
  3
A8
350
50
  3
A9
350
51
  3
B0
350
52
  3
B1
350
53
  3
B2
350
54
  3
B3
350
55
  3
B4
350
56
  3
B5
350
57
  3
B6
350
58
  0
XRECORD
  5
FA
102
{ACAD_REACTORS
330
C
102
}
330
C
100
AcDbXrecord
280
     1
  1
DWGPROPS COOKIE
  2

  3

  4

  6

  7

  8

  9

300
=
301
=
302
=
303
=
304
=
305
=
306
=
307
=
308
=
309
=
 40
0.0
 41
2461214.993853727
 42
2461214.993854075
  1

 90
        0
  0
LAYOUT
  5
1E
102
{ACAD_REACTORS
330
1A
102
}
330
1A
100
AcDbPlotSettings
  1

  2
none_device
  4

  6

 40
0.0
 41
0.0
 42
0.0
 43
0.0
 44
0.0
 45
0.0
 46
0.0
 47
0.0
 48
0.0
 49
0.0
140
0.0
141
0.0
142
1.0
143
1.0
 70
   688
 72
     1
 73
     0
 74
     5
  7

 75
    16
147
1.0
148
0.0
149
0.0
100
AcDbLayout
  1
Layout1
 70
     1
 71
     1
 10
0.0
 20
0.0
 11
420.0
 21
297.0
 12
0.0
 22
0.0
 32
0.0
 14
1.0000000000E+20
 24
1.0000000000E+20
 34
1.0000000000E+20
 15
-1.0000000000E+20
 25
-1.0000000000E+20
 35
-1.0000000000E+20
146
0.0
 13
0.0
 23
0.0
 33
0.0
 16
1.0
 26
0.0
 36
0.0
 17
0.0
 27
1.0
 37
0.0
 76
     0
330
1B
  0
LAYOUT
  5
26
102
{ACAD_REACTORS
330
1A
102
}
330
1A
100
AcDbPlotSettings
  1

  2
none_device
  4

  6

 40
0.0
 41
0.0
 42
0.0
 43
0.0
 44
0.0
 45
0.0
 46
0.0
 47
0.0
 48
0.0
 49
0.0
140
0.0
141
0.0
142
1.0
143
1.0
 70
   688
 72
     1
 73
     0
 74
     5
  7

 75
    16
147
1.0
148
0.0
149
0.0
100
AcDbLayout
  1
Layout2
 70
     1
 71
     2
 10
0.0
 20
0.0
 11
0.0
 21
0.0
 12
0.0
 22
0.0
 32
0.0
 14
0.0
 24
0.0
 34
0.0
 15
0.0
 25
0.0
 35
0.0
146
0.0
 13
0.0
 23
0.0
 33
0.0
 16
1.0
 26
0.0
 36
0.0
 17
0.0
 27
1.0
 37
0.0
 76
     0
330
23
  0
LAYOUT
  5
22
102
{ACAD_REACTORS
330
1A
102
}
330
1A
100
AcDbPlotSettings
  1

  2
none_device
  4
Letter_(8.50_x_11.00_Inches)
  6

 40
6.35
 41
6.35
 42
6.35000508
 43
6.35000508
 44
215.9
 45
279.4
 46
0.0
 47
0.0
 48
0.0
 49
0.0
140
0.0
141
0.0
142
1.0
143
1.0
 70
  1712
 72
     1
 73
     0
 74
     0
  7

 75
     0
147
1.0
148
0.0
149
0.0
100
AcDbLayout
  1
Model
 70
     1
 71
     0
 10
0.0
 20
0.0
 11
297.0
 21
210.0
 12
0.0
 22
0.0
 32
0.0
 14
0.0
 24
0.0
 34
0.0
 15
297.0
 25
210.0
 35
0.0
146
0.0
 13
0.0
 23
0.0
 33
0.0
 16
1.0
 26
0.0
 36
0.0
 17
0.0
 27
1.0
 37
0.0
 76
     0
330
1F
331
29
  0
MLINESTYLE
  5
18
102
{ACAD_REACTORS
330
17
102
}
330
17
100
AcDbMlineStyle
  2
Standard
 70
     0
  3

 62
   256
 51
90.0
 52
90.0
 71
     2
 49
0.5
 62
   256
  6
BYLAYER
 49
-0.5
 62
   256
  6
BYLAYER
  0
ACDBPLACEHOLDER
  5
F
102
{ACAD_REACTORS
330
E
102
}
330
E
  0
SCALE
  5
48
102
{ACAD_REACTORS
330
47
102
}
330
47
100
AcDbScale
 70
     0
300
1:1
140
1.0
141
1.0
290
     1
  0
SCALE
  5
49
102
{ACAD_REACTORS
330
47
102
}
330
47
100
AcDbScale
 70
     0
300
1:2
140
1.0
141
2.0
290
     0
  0
SCALE
  5
4A
102
{ACAD_REACTORS
330
47
102
}
330
47
100
AcDbScale
 70
     0
300
1:4
140
1.0
141
4.0
290
     0
  0
SCALE
  5
4B
102
{ACAD_REACTORS
330
47
102
}
330
47
100
AcDbScale
 70
     0
300
1:5
140
1.0
141
5.0
290
     0
  0
SCALE
  5
4C
102
{ACAD_REACTORS
330
47
102
}
330
47
100
AcDbScale
 70
     0
300
1:8
140
1.0
141
8.0
290
     0
  0
SCALE
  5
4D
102
{ACAD_REACTORS
330
47
102
}
330
47
100
AcDbScale
 70
     0
300
1:10
140
1.0
141
10.0
290
     0
  0
SCALE
  5
4E
102
{ACAD_REACTORS
330
47
102
}
330
47
100
AcDbScale
 70
     0
300
1:16
140
1.0
141
16.0
290
     0
  0
SCALE
  5
4F
102
{ACAD_REACTORS
330
47
102
}
330
47
100
AcDbScale
 70
     0
300
1:20
140
1.0
141
20.0
290
     0
  0
SCALE
  5
50
102
{ACAD_REACTORS
330
47
102
}
330
47
100
AcDbScale
 70
     0
300
1:30
140
1.0
141
30.0
290
     0
  0
SCALE
  5
51
102
{ACAD_REACTORS
330
47
102
}
330
47
100
AcDbScale
 70
     0
300
1:40
140
1.0
141
40.0
290
     0
  0
SCALE
  5
52
102
{ACAD_REACTORS
330
47
102
}
330
47
100
AcDbScale
 70
     0
300
1:50
140
1.0
141
50.0
290
     0
  0
SCALE
  5
53
102
{ACAD_REACTORS
330
47
102
}
330
47
100
AcDbScale
 70
     0
300
1:100
140
1.0
141
100.0
290
     0
  0
SCALE
  5
54
102
{ACAD_REACTORS
330
47
102
}
330
47
100
AcDbScale
 70
     0
300
2:1
140
2.0
141
1.0
290
     0
  0
SCALE
  5
55
102
{ACAD_REACTORS
330
47
102
}
330
47
100
AcDbScale
 70
     0
300
4:1
140
4.0
141
1.0
290
     0
  0
SCALE
  5
56
102
{ACAD_REACTORS
330
47
102
}
330
47
100
AcDbScale
 70
     0
300
8:1
140
8.0
141
1.0
290
     0
  0
SCALE
  5
57
102
{ACAD_REACTORS
330
47
102
}
330
47
100
AcDbScale
 70
     0
300
10:1
140
10.0
141
1.0
290
     0
  0
SCALE
  5
58
102
{ACAD_REACTORS
330
47
102
}
330
47
100
AcDbScale
 70
     0
300
100:1
140
100.0
141
1.0
290
     0
  0
ENDSEC
  0
EOF
