  0
SECTION
  2
HEADER
  9
$ACADVER
  1
AC1015
  9
$ACADMAINTVER
 70
     6
  9
$DWGCODEPAGE
  3
ANSI_936
  9
$INSBASE
 10
0.0
 20
0.0
 30
0.0
  9
$EXTMIN
 10
0.0
 20
0.0
 30
0.0
  9
$EXTMAX
 10
297.0
 20
210.0
 30
0.0
  9
$LIMMIN
 10
0.0
 20
0.0
  9
$LIMMAX
 10
297.0
 20
210.0
  9
$ORTHOMODE
 70
     0
  9
$REGENMODE
 70
     1
  9
$FILLMODE
 70
     1
  9
$QTEXTMODE
 70
     0
  9
$MIRRTEXT
 70
     1
  9
$LTSCALE
 40
1.0
  9
$ATTMODE
 70
     1
  9
$TEXTSIZE
 40
3.5
  9
$TRACEWID
 40
1.0
  9
$TEXTSTYLE
  7
Standard
  9
$CLAYER
  8
0
  9
$CELTYPE
  6
ByLayer
  9
$CECOLOR
 62
   256
  9
$CELTSCALE
 40
1.0
  9
$DISPSILH
 70
     0
  9
$DIMSCALE
 40
1.0
  9
$DIMASZ
 40
4.08
  9
$DIMEXO
 40
0.0
  9
$DIMDLI
 40
3.75
  9
$DIMRND
 40
0.0
  9
$DIMDLE
 40
0.0
  9
$DIMEXE
 40
2.0
  9
$DIMTP
 40
0.0
  9
$DIMTM
 40
0.0
  9
$DIMTXT
 40
3.5
  9
$DIMCEN
 40
2.5
  9
$DIMTSZ
 40
0.0
  9
$DIMTOL
 70
     0
  9
$DIMLIM
 70
     0
  9
$DIMTIH
 70
     1
  9
$DIMTOH
 70
     1
  9
$DIMSE1
 70
     0
  9
$DIMSE2
 70
     0
  9
$DIMTAD
 70
     1
  9
$DIMZIN
 70
     0
  9
$DIMBLK
  1

  9
$DIMASO
 70
     1
  9
$DIMSHO
 70
     1
  9
$DIMPOST
  1

  9
$DIMAPOST
  1

  9
$DIMALT
 70
     0
  9
$DIMALTD
 70
     3
  9
$DIMALTF
 40
0.0393700787
  9
$DIMLFAC
 40
2.0
  9
$DIMTOFL
 70
     1
  9
$DIMTVP
 40
0.0
  9
$DIMTIX
 70
     0
  9
$DIMSOXD
 70
     0
  9
$DIMSAH
 70
     0
  9
$DIMBLK1
  1

  9
$DIMBLK2
  1

  9
$DIMSTYLE
  2
ISO-25
  9
$DIMCLRD
 70
     0
  9
$DIMCLRE
 70
     0
  9
$DIMCLRT
 70
     0
  9
$DIMTFAC
 40
1.0
  9
$DIMGAP
 40
1.524
  9
$DIMJUST
 70
     0
  9
$DIMSD1
 70
     0
  9
$DIMSD2
 70
     0
  9
$DIMTOLJ
 70
     0
  9
$DIMTZIN
 70
     0
  9
$DIMALTZ
 70
     0
  9
$DIMALTTZ
 70
     0
  9
$DIMUPT
 70
     0
  9
$DIMDEC
 70
     2
  9
$DIMTDEC
 70
     2
  9
$DIMALTU
 70
     2
  9
$DIMALTTD
 70
     3
  9
$DIMTXSTY
  7
Standard
  9
$DIMAUNIT
 70
     0
  9
$DIMADEC
 70
     2
  9
$DIMALTRND
 40
0.0
  9
$DIMAZIN
 70
     0
  9
$DIMDSEP
 70
    44
  9
$DIMATFIT
 70
     3
  9
$DIMFRAC
 70
     0
  9
$DIMLDRBLK
  1

  9
$DIMLUNIT
 70
     2
  9
$DIMLWD
 70
    -2
  9
$DIMLWE
 70
    -2
  9
$DIMTMOVE
 70
     0
  9
$LUNITS
 70
     2
  9
$LUPREC
 70
     2
  9
$SKETCHINC
 40
1.0
  9
$FILLETRAD
 40
0.0
  9
$AUNITS
 70
     0
  9
$AUPREC
 70
     2
  9
$MENU
  1
.
  9
$ELEVATION
 40
0.0
  9
$PELEVATION
 40
0.0
  9
$THICKNESS
 40
0.0
  9
$LIMCHECK
 70
     0
  9
$CHAMFERA
 40
0.0
  9
$CHAMFERB
 40
0.0
  9
$CHAMFERC
 40
0.0
  9
$CHAMFERD
 40
0.0
  9
$SKPOLY
 70
     0
  9
$TDCREATE
 40
2461215.346597987
  9
$TDUCREATE
 40
2461215.013264653
  9
$TDUPDATE
 40
2461215.34659838
  9
$TDUUPDATE
 40
2461215.013265047
  9
$TDINDWG
 40
0.0000000116
  9
$TDUSRTIMER
 40
0.0000000116
  9
$USRTIMER
 70
     1
  9
$ANGBASE
 50
0.0
  9
$ANGDIR
 70
     0
  9
$PDMODE
 70
     0
  9
$PDSIZE
 40
-1.0
  9
$PLINEWID
 40
0.0
  9
$SPLFRAME
 70
     0
  9
$SPLINETYPE
 70
     6
  9
$SPLINESEGS
 70
     8
  9
$HANDSEED
  5
2E4
  9
$SURFTAB1
 70
     6
  9
$SURFTAB2
 70
     6
  9
$SURFTYPE
 70
     6
  9
$SURFU
 70
     6
  9
$SURFV
 70
     6
  9
$UCSBASE
  2

  9
$UCSNAME
  2

  9
$UCSORG
 10
0.0
 20
0.0
 30
0.0
  9
$UCSXDIR
 10
1.0
 20
0.0
 30
0.0
  9
$UCSYDIR
 10
0.0
 20
1.0
 30
0.0
  9
$UCSORTHOREF
  2

  9
$UCSORTHOVIEW
 70
     0
  9
$UCSORGTOP
 10
0.0
 20
0.0
 30
0.0
  9
$UCSORGBOTTOM
 10
0.0
 20
0.0
 30
0.0
  9
$UCSORGLEFT
 10
0.0
 20
0.0
 30
0.0
  9
$UCSORGRIGHT
 10
0.0
 20
0.0
 30
0.0
  9
$UCSORGFRONT
 10
0.0
 20
0.0
 30
0.0
  9
$UCSORGBACK
 10
0.0
 20
0.0
 30
0.0
  9
$PUCSBASE
  2

  9
$PUCSNAME
  2

  9
$PUCSORG
 10
0.0
 20
0.0
 30
0.0
  9
$PUCSXDIR
 10
1.0
 20
0.0
 30
0.0
  9
$PUCSYDIR
 10
0.0
 20
1.0
 30
0.0
  9
$PUCSORTHOREF
  2

  9
$PUCSORTHOVIEW
 70
     0
  9
$PUCSORGTOP
 10
0.0
 20
0.0
 30
0.0
  9
$PUCSORGBOTTOM
 10
0.0
 20
0.0
 30
0.0
  9
$PUCSORGLEFT
 10
0.0
 20
0.0
 30
0.0
  9
$PUCSORGRIGHT
 10
0.0
 20
0.0
 30
0.0
  9
$PUCSORGFRONT
 10
0.0
 20
0.0
 30
0.0
  9
$PUCSORGBACK
 10
0.0
 20
0.0
 30
0.0
  9
$USERI1
 70
     0
  9
$USERI2
 70
     0
  9
$USERI3
 70
     0
  9
$USERI4
 70
     0
  9
$USERI5
 70
     0
  9
$USERR1
 40
0.0
  9
$USERR2
 40
0.0
  9
$USERR3
 40
0.0
  9
$USERR4
 40
0.0
  9
$USERR5
 40
0.0
  9
$WORLDVIEW
 70
     1
  9
$SHADEDGE
 70
     3
  9
$SHADEDIF
 70
    70
  9
$TILEMODE
 70
     1
  9
$MAXACTVP
 70
    64
  9
$PINSBASE
 10
0.0
 20
0.0
 30
0.0
  9
$PLIMCHECK
 70
     0
  9
$PEXTMIN
 10
1.0000000000E+20
 20
1.0000000000E+20
 30
1.0000000000E+20
  9
$PEXTMAX
 10
-1.0000000000E+20
 20
-1.0000000000E+20
 30
-1.0000000000E+20
  9
$PLIMMIN
 10
0.0
 20
0.0
  9
$PLIMMAX
 10
420.0
 20
297.0
  9
$UNITMODE
 70
     0
  9
$VISRETAIN
 70
     1
  9
$PLINEGEN
 70
     0
  9
$PSLTSCALE
 70
     1
  9
$TREEDEPTH
 70
  3020
  9
$CMLSTYLE
  2
Standard
  9
$CMLJUST
 70
     0
  9
$CMLSCALE
 40
20.0
  9
$PROXYGRAPHICS
 70
     1
  9
$MEASUREMENT
 70
     1
  9
$CELWEIGHT
370
    -1
  9
$ENDCAPS
280
     0
  9
$JOINSTYLE
280
     0
  9
$LWDISPLAY
290
     1
  9
$INSUNITS
 70
     4
  9
$HYPERLINKBASE
  1

  9
$STYLESHEET
  1

  9
$XEDIT
290
     1
  9
$CEPSNTYPE
380
     0
  9
$PSTYLEMODE
290
     1
  9
$FINGERPRINTGUID
  2
{01521114-7286-433a-b798-1b206cc62144}
  9
$VERSIONGUID
  2
{FAEB1C32-E019-11D5-929B-00C0DF256EC4}
  9
$EXTNAMES
290
     1
  9
$PSVPSCALE
 40
0.0
  9
$OLESTARTUP
290
     0
  0
ENDSEC
  0
SECTION
  2
CLASSES
  0
CLASS
  1
ACDBDICTIONARYWDFLT
  2
AcDbDictionaryWithDefault
  3
ObjectDBX Classes
 90
        0
280
     0
281
     0
  0
CLASS
  1
VISUALSTYLE
  2
AcDbVisualStyle
  3
ObjectDBX Classes
 90
     4095
280
     0
281
     0
  0
CLASS
  1
MATERIAL
  2
AcDbMaterial
  3
ObjectDBX Classes
 90
     1153
280
     0
281
     0
  0
CLASS
  1
SCALE
  2
AcDbScale
  3
ObjectDBX Classes
 90
     1153
280
     0
281
     0
  0
CLASS
  1
TABLESTYLE
  2
AcDbTableStyle
  3
ObjectDBX Classes
 90
     4095
280
     0
281
     0
  0
CLASS
  1
MLEADERSTYLE
  2
AcDbMLeaderStyle
  3
ACDB_MLEADERSTYLE_CLASS
 90
     4095
280
     0
281
     0
  0
CLASS
  1
SUN
  2
AcDbSun
  3
SCENEOE
 90
     1153
280
     0
281
     0
  0
CLASS
  1
ACDBPLACEHOLDER
  2
AcDbPlaceHolder
  3
ObjectDBX Classes
 90
        0
280
     0
281
     0
  0
CLASS
  1
LAYOUT
  2
AcDbLayout
  3
ObjectDBX Classes
 90
        0
280
     0
281
     0
  0
ENDSEC
  0
SECTION
  2
TABLES
  0
TABLE
  2
VPORT
  5
8
330
0
100
AcDbSymbolTable
 70
     1
  0
VPORT
  5
29
330
8
100
AcDbSymbolTableRecord
100
AcDbViewportTableRecord
  2
*Active
 70
     0
 10
0.0
 20
0.0
 11
1.0
 21
1.0
 12
148.5
 22
105.0
 13
0.0
 23
0.0
 14
10.0
 24
10.0
 15
10.0
 25
10.0
 16
0.0
 26
0.0
 36
1.0
 17
0.0
 27
0.0
 37
0.0
 40
210.0
 41
1.4142857143
 42
50.0
 43
0.0
 44
0.0
 50
0.0
 51
0.0
 71
     0
 72
  2000
 73
     1
 74
     3
 75
     0
 76
     0
 77
     0
 78
     0
281
     0
 65
     1
110
0.0
120
0.0
130
0.0
111
1.0
121
0.0
131
0.0
112
0.0
122
1.0
132
0.0
 79
     0
146
0.0
  0
ENDTAB
  0
TABLE
  2
LTYPE
  5
5
330
0
100
AcDbSymbolTable
 70
     6
  0
LTYPE
  5
14
330
5
100
AcDbSymbolTableRecord
100
AcDbLinetypeTableRecord
  2
ByBlock
 70
     0
  3

 72
    65
 73
     0
 40
0.0
  0
LTYPE
  5
15
330
5
100
AcDbSymbolTableRecord
100
AcDbLinetypeTableRecord
  2
ByLayer
 70
     0
  3

 72
    65
 73
     0
 40
0.0
  0
LTYPE
  5
16
330
5
100
AcDbSymbolTableRecord
100
AcDbLinetypeTableRecord
  2
Continuous
 70
     0
  3
Solid line
 72
    65
 73
     0
 40
0.0
  0
LTYPE
  5
5E
330
5
100
AcDbSymbolTableRecord
100
AcDbLinetypeTableRecord
  2
HIDDEN
 70
     0
  3
Hidden __ __ __ __ __ __ __ __ __ __ __ __ __ __
 72
    65
 73
     2
 40
1.905
 49
1.27
 74
     0
 49
-0.635
 74
     0
  0
LTYPE
  5
5F
330
5
100
AcDbSymbolTableRecord
100
AcDbLinetypeTableRecord
  2
PHANTOM
 70
     0
  3
Phantom ______  __  __  ______  __  __  ______
 72
    65
 73
     6
 40
12.7
 49
6.35
 74
     0
 49
-1.27
 74
     0
 49
1.27
 74
     0
 49
-1.27
 74
     0
 49
1.27
 74
     0
 49
-1.27
 74
     0
  0
LTYPE
  5
60
330
5
100
AcDbSymbolTableRecord
100
AcDbLinetypeTableRecord
  2
CENTER
 70
     0
  3
Center ____ _ ____ _ ____ _ ____ _ ____ _ ____
 72
    65
 73
     4
 40
10.16
 49
6.35
 74
     0
 49
-1.27
 74
     0
 49
1.27
 74
     0
 49
-1.27
 74
     0
  0
LTYPE
  5
61
330
5
100
AcDbSymbolTableRecord
100
AcDbLinetypeTableRecord
  2
CENTERX2
 70
     0
  3
Center (2x) ________  __  ________  __  _____
 72
    65
 73
     4
 40
20.32
 49
12.7
 74
     0
 49
-2.54
 74
     0
 49
2.54
 74
     0
 49
-2.54
 74
     0
  0
LTYPE
  5
62
330
5
100
AcDbSymbolTableRecord
100
AcDbLinetypeTableRecord
  2
DOT2
 70
     0
  3
Dot (.5x) ........................................
 72
    65
 73
     2
 40
0.635
 49
0.0
 74
     0
 49
-0.635
 74
     0
  0
ENDTAB
  0
TABLE
  2
LAYER
  5
2
330
0
100
AcDbSymbolTable
 70
    14
  0
LAYER
  5
10
330
2
100
AcDbSymbolTableRecord
100
AcDbLayerTableRecord
  2
0
 70
     0
 62
     7
  6
Continuous
370
    -3
390
F
  0
LAYER
  5
63
330
2
100
AcDbSymbolTableRecord
100
AcDbLayerTableRecord
  2
SLD-0
 70
     0
 62
     7
  6
Continuous
370
    -3
390
F
  0
LAYER
  5
64
330
2
100
AcDbSymbolTableRecord
100
AcDbLayerTableRecord
  2
5
 70
     0
 62
     7
  6
Continuous
370
    -3
390
F
  0
LAYER
  5
65
330
2
100
AcDbSymbolTableRecord
100
AcDbLayerTableRecord
  2
9
 70
     0
 62
     7
  6
Continuous
370
    -3
390
F
  0
LAYER
  5
66
330
2
100
AcDbSymbolTableRecord
100
AcDbLayerTableRecord
  2
10
 70
     0
 62
     7
  6
Continuous
370
    -3
390
F
  0
LAYER
  5
67
330
2
100
AcDbSymbolTableRecord
100
AcDbLayerTableRecord
  2
轮廓实线层
 70
     0
 62
     7
  6
Continuous
370
    50
390
F
  0
LAYER
  5
68
330
2
100
AcDbSymbolTableRecord
100
AcDbLayerTableRecord
  2
细线层
 70
     0
 62
     4
  6
Continuous
370
    25
390
F
  0
LAYER
  5
69
330
2
100
AcDbSymbolTableRecord
100
AcDbLayerTableRecord
  2
中心线层
 70
     0
 62
     1
  6
CENTERX2
370
    25
390
F
  0
LAYER
  5
6A
330
2
100
AcDbSymbolTableRecord
100
AcDbLayerTableRecord
  2
虚线层
 70
     0
 62
     6
  6
HIDDEN
370
    25
390
F
  0
LAYER
  5
6B
330
2
100
AcDbSymbolTableRecord
100
AcDbLayerTableRecord
  2
剖面线层
 70
     0
 62
     2
  6
Continuous
370
    25
390
F
  0
LAYER
  5
6C
330
2
100
AcDbSymbolTableRecord
100
AcDbLayerTableRecord
  2
文字层
 70
     0
 62
     3
  6
Continuous
370
    25
390
F
  0
LAYER
  5
6D
330
2
100
AcDbSymbolTableRecord
100
AcDbLayerTableRecord
  2
标注层
 70
     0
 62
     4
  6
Continuous
370
    25
390
F
  0
LAYER
  5
6E
330
2
100
AcDbSymbolTableRecord
100
AcDbLayerTableRecord
  2
符号标注层
 70
     0
 62
    31
  6
Continuous
370
    25
390
F
  0
LAYER
  5
6F
330
2
100
AcDbSymbolTableRecord
100
AcDbLayerTableRecord
  2
双点划线层
 70
     0
 62
     6
  6
PHANTOM
370
    25
390
F
  0
ENDTAB
  0
TABLE
  2
STYLE
  5
3
330
0
100
AcDbSymbolTable
 70
     1
  0
STYLE
  5
11
330
3
100
AcDbSymbolTableRecord
100
AcDbTextStyleTableRecord
  2
Standard
 70
     0
 40
0.0
 41
1.0
 50
0.0
 71
     0
 42
3.5
  3
txt
  4

  0
ENDTAB
  0
TABLE
  2
VIEW
  5
6
330
0
100
AcDbSymbolTable
 70
     0
  0
ENDTAB
  0
TABLE
  2
UCS
  5
7
330
0
100
AcDbSymbolTable
 70
     0
  0
ENDTAB
  0
TABLE
  2
APPID
  5
9
330
0
100
AcDbSymbolTable
 70
     1
  0
APPID
  5
12
330
9
100
AcDbSymbolTableRecord
100
AcDbRegAppTableRecord
  2
ACAD
 70
     0
  0
ENDTAB
  0
TABLE
  2
DIMSTYLE
  5
A
330
0
100
AcDbSymbolTable
 70
     1
100
AcDbDimStyleTable
  0
DIMSTYLE
105
27
330
A
100
AcDbSymbolTableRecord
100
AcDbDimStyleTableRecord
  2
ISO-25
 70
     0
 41
2.5
 42
0.625
 43
3.75
 44
1.25
 73
     0
 74
     0
 77
     1
 78
     8
140
2.5
141
2.5
143
0.0393700787
147
0.625
171
     3
172
     1
178
     0
271
     2
272
     2
274
     3
278
    44
283
     0
284
     8
340
11
  0
ENDTAB
  0
TABLE
  2
BLOCK_RECORD
  5
1
330
0
100
AcDbSymbolTable
 70
     8
  0
BLOCK_RECORD
  5
1F
330
1
100
AcDbSymbolTableRecord
100
AcDbBlockTableRecord
  2
*Model_Space
340
22
  0
BLOCK_RECORD
  5
1B
330
1
100
AcDbSymbolTableRecord
100
AcDbBlockTableRecord
  2
*Paper_Space
340
1E
  0
BLOCK_RECORD
  5
23
330
1
100
AcDbSymbolTableRecord
100
AcDbBlockTableRecord
  2
*Paper_Space0
340
26
  0
BLOCK_RECORD
  5
114
330
1
100
AcDbSymbolTableRecord
100
AcDbBlockTableRecord
  2
SW_CENTERMARKSYMBOL_0
340
0
102
{BLKREFS
331
11F
102
}
  0
BLOCK_RECORD
  5
120
330
1
100
AcDbSymbolTableRecord
100
AcDbBlockTableRecord
  2
SW_CENTERMARKSYMBOL_1
340
0
102
{BLKREFS
331
12B
102
}
  0
BLOCK_RECORD
  5
12C
330
1
100
AcDbSymbolTableRecord
100
AcDbBlockTableRecord
  2
SW_CENTERMARKSYMBOL_2
340
0
102
{BLKREFS
331
137
102
}
  0
BLOCK_RECORD
  5
138
330
1
100
AcDbSymbolTableRecord
100
AcDbBlockTableRecord
  2
SW_CENTERMARKSYMBOL_3
340
0
102
{BLKREFS
331
143
102
}
  0
BLOCK_RECORD
  5
144
330
1
100
AcDbSymbolTableRecord
100
AcDbBlockTableRecord
  2
SW_CENTERMARKSYMBOL_4
340
0
102
{BLKREFS
331
14F
102
}
  0
BLOCK_RECORD
  5
150
330
1
100
AcDbSymbolTableRecord
100
AcDbBlockTableRecord
  2
SW_CENTERMARKSYMBOL_5
340
0
102
{BLKREFS
331
15B
102
}
  0
BLOCK_RECORD
  5
15C
330
1
100
AcDbSymbolTableRecord
100
AcDbBlockTableRecord
  2
SW_CENTERMARKSYMBOL_6
340
0
102
{BLKREFS
331
167
102
}
  0
ENDTAB
  0
ENDSEC
  0
SECTION
  2
BLOCKS
  0
BLOCK
  5
20
330
1F
100
AcDbEntity
  8
0
100
AcDbBlockBegin
  2
*Model_Space
 70
     0
 10
0.0
 20
0.0
 30
0.0
  3
*Model_Space
  1

  0
ENDBLK
  5
21
330
1F
100
AcDbEntity
  8
0
100
AcDbBlockEnd
  0
BLOCK
  5
1C
330
1B
100
AcDbEntity
 67
     1
  8
0
100
AcDbBlockBegin
  2
*Paper_Space
 70
     0
 10
0.0
 20
0.0
 30
0.0
  3
*Paper_Space
  1

  0
ENDBLK
  5
1D
330
1B
100
AcDbEntity
 67
     1
  8
0
100
AcDbBlockEnd
  0
BLOCK
  5
24
330
23
100
AcDbEntity
  8
0
100
AcDbBlockBegin
  2
*Paper_Space0
 70
     0
 10
0.0
 20
0.0
 30
0.0
  3
*Paper_Space0
  1

  0
ENDBLK
  5
25
330
23
100
AcDbEntity
  8
0
100
AcDbBlockEnd
  0
BLOCK
  5
115
330
114
100
AcDbEntity
  8
0
100
AcDbBlockBegin
  2
SW_CENTERMARKSYMBOL_0
 70
     0
 10
0.0
 20
0.0
 30
0.0
  3
SW_CENTERMARKSYMBOL_0
  1

  0
LINE
  5
117
330
114
100
AcDbEntity
  8
10
 62
     0
100
AcDbLine
 10
0.0
 20
0.0
 30
0.0
 11
0.0
 21
2.5
 31
0.0
  0
LINE
  5
118
330
114
100
AcDbEntity
  8
10
 62
     0
100
AcDbLine
 10
0.0
 20
0.0
 30
0.0
 11
-2.5
 21
0.0
 31
0.0
  0
LINE
  5
119
330
114
100
AcDbEntity
  8
10
 62
     0
100
AcDbLine
 10
0.0
 20
0.0
 30
0.0
 11
0.0
 21
-2.5
 31
0.0
  0
LINE
  5
11A
330
114
100
AcDbEntity
  8
10
 62
     0
100
AcDbLine
 10
0.0
 20
0.0
 30
0.0
 11
2.5
 21
0.0
 31
0.0
  0
LINE
  5
11B
330
114
100
AcDbEntity
  8
10
 62
     0
100
AcDbLine
 10
0.0
 20
5.0
 30
0.0
 11
0.0
 21
40.0
 31
0.0
  0
LINE
  5
11C
330
114
100
AcDbEntity
  8
10
 62
     0
100
AcDbLine
 10
-5.0
 20
0.0
 30
0.0
 11
-40.0
 21
0.0
 31
0.0
  0
LINE
  5
11D
330
114
100
AcDbEntity
  8
10
 62
     0
100
AcDbLine
 10
0.0
 20
-5.0
 30
0.0
 11
0.0
 21
-40.0
 31
0.0
  0
LINE
  5
11E
330
114
100
AcDbEntity
  8
10
 62
     0
100
AcDbLine
 10
5.0
 20
0.0
 30
0.0
 11
40.0
 21
0.0
 31
0.0
  0
ENDBLK
  5
116
330
114
100
AcDbEntity
  8
0
100
AcDbBlockEnd
  0
BLOCK
  5
121
330
120
100
AcDbEntity
  8
0
100
AcDbBlockBegin
  2
SW_CENTERMARKSYMBOL_1
 70
     0
 10
0.0
 20
0.0
 30
0.0
  3
SW_CENTERMARKSYMBOL_1
  1

  0
LINE
  5
123
330
120
100
AcDbEntity
  8
10
 62
     0
100
AcDbLine
 10
0.0
 20
0.0
 30
0.0
 11
0.0
 21
2.5
 31
0.0
  0
LINE
  5
124
330
120
100
AcDbEntity
  8
10
 62
     0
100
AcDbLine
 10
0.0
 20
0.0
 30
0.0
 11
-2.5
 21
0.0
 31
0.0
  0
LINE
  5
125
330
120
100
AcDbEntity
  8
10
 62
     0
100
AcDbLine
 10
0.0
 20
0.0
 30
0.0
 11
0.0
 21
-2.5
 31
0.0
  0
LINE
  5
126
330
120
100
AcDbEntity
  8
10
 62
     0
100
AcDbLine
 10
0.0
 20
0.0
 30
0.0
 11
2.5
 21
0.0
 31
0.0
  0
LINE
  5
127
330
120
100
AcDbEntity
  8
10
 62
     0
100
AcDbLine
 10
0.0
 20
5.0
 30
0.0
 11
0.0
 21
5.0833333333
 31
0.0
  0
LINE
  5
128
330
120
100
AcDbEntity
  8
10
 62
     0
100
AcDbLine
 10
-5.0
 20
0.0
 30
0.0
 11
-5.0833333333
 21
0.0
 31
0.0
  0
LINE
  5
129
330
120
100
AcDbEntity
  8
10
 62
     0
100
AcDbLine
 10
0.0
 20
-5.0
 30
0.0
 11
0.0
 21
-5.0833333333
 31
0.0
  0
LINE
  5
12A
330
120
100
AcDbEntity
  8
10
 62
     0
100
AcDbLine
 10
5.0
 20
0.0
 30
0.0
 11
5.0833333333
 21
0.0
 31
0.0
  0
ENDBLK
  5
122
330
120
100
AcDbEntity
  8
0
100
AcDbBlockEnd
  0
BLOCK
  5
12D
330
12C
100
AcDbEntity
  8
0
100
AcDbBlockBegin
  2
SW_CENTERMARKSYMBOL_2
 70
     0
 10
0.0
 20
0.0
 30
0.0
  3
SW_CENTERMARKSYMBOL_2
  1

  0
LINE
  5
12F
330
12C
100
AcDbEntity
  8
10
 62
     0
100
AcDbLine
 10
0.0
 20
0.0
 30
0.0
 11
0.0
 21
2.5
 31
0.0
  0
LINE
  5
130
330
12C
100
AcDbEntity
  8
10
 62
     0
100
AcDbLine
 10
0.0
 20
0.0
 30
0.0
 11
-2.5
 21
0.0
 31
0.0
  0
LINE
  5
131
330
12C
100
AcDbEntity
  8
10
 62
     0
100
AcDbLine
 10
0.0
 20
0.0
 30
0.0
 11
0.0
 21
-2.5
 31
0.0
  0
LINE
  5
132
330
12C
100
AcDbEntity
  8
10
 62
     0
100
AcDbLine
 10
0.0
 20
0.0
 30
0.0
 11
2.5
 21
0.0
 31
0.0
  0
LINE
  5
133
330
12C
100
AcDbEntity
  8
10
 62
     0
100
AcDbLine
 10
0.0
 20
5.0
 30
0.0
 11
0.0
 21
7.5
 31
0.0
  0
LINE
  5
134
330
12C
100
AcDbEntity
  8
10
 62
     0
100
AcDbLine
 10
-5.0
 20
0.0
 30
0.0
 11
-7.5
 21
0.0
 31
0.0
  0
LINE
  5
135
330
12C
100
AcDbEntity
  8
10
 62
     0
100
AcDbLine
 10
0.0
 20
-5.0
 30
0.0
 11
0.0
 21
-7.5
 31
0.0
  0
LINE
  5
136
330
12C
100
AcDbEntity
  8
10
 62
     0
100
AcDbLine
 10
5.0
 20
0.0
 30
0.0
 11
7.5
 21
0.0
 31
0.0
  0
ENDBLK
  5
12E
330
12C
100
AcDbEntity
  8
0
100
AcDbBlockEnd
  0
BLOCK
  5
139
330
138
100
AcDbEntity
  8
0
100
AcDbBlockBegin
  2
SW_CENTERMARKSYMBOL_3
 70
     0
 10
0.0
 20
0.0
 30
0.0
  3
SW_CENTERMARKSYMBOL_3
  1

  0
LINE
  5
13B
330
138
100
AcDbEntity
  8
10
 62
     0
100
AcDbLine
 10
0.0
 20
0.0
 30
0.0
 11
0.0
 21
2.5
 31
0.0
  0
LINE
  5
13C
330
138
100
AcDbEntity
  8
10
 62
     0
100
AcDbLine
 10
0.0
 20
0.0
 30
0.0
 11
-2.5
 21
0.0
 31
0.0
  0
LINE
  5
13D
330
138
100
AcDbEntity
  8
10
 62
     0
100
AcDbLine
 10
0.0
 20
0.0
 30
0.0
 11
0.0
 21
-2.5
 31
0.0
  0
LINE
  5
13E
330
138
100
AcDbEntity
  8
10
 62
     0
100
AcDbLine
 10
0.0
 20
0.0
 30
0.0
 11
2.5
 21
0.0
 31
0.0
  0
LINE
  5
13F
330
138
100
AcDbEntity
  8
10
 62
     0
100
AcDbLine
 10
0.0
 20
5.0
 30
0.0
 11
0.0
 21
7.5
 31
0.0
  0
LINE
  5
140
330
138
100
AcDbEntity
  8
10
 62
     0
100
AcDbLine
 10
-5.0
 20
0.0
 30
0.0
 11
-7.5
 21
0.0
 31
0.0
  0
LINE
  5
141
330
138
100
AcDbEntity
  8
10
 62
     0
100
AcDbLine
 10
0.0
 20
-5.0
 30
0.0
 11
0.0
 21
-7.5
 31
0.0
  0
LINE
  5
142
330
138
100
AcDbEntity
  8
10
 62
     0
100
AcDbLine
 10
5.0
 20
0.0
 30
0.0
 11
7.5
 21
0.0
 31
0.0
  0
ENDBLK
  5
13A
330
138
100
AcDbEntity
  8
0
100
AcDbBlockEnd
  0
BLOCK
  5
145
330
144
100
AcDbEntity
  8
0
100
AcDbBlockBegin
  2
SW_CENTERMARKSYMBOL_4
 70
     0
 10
0.0
 20
0.0
 30
0.0
  3
SW_CENTERMARKSYMBOL_4
  1

  0
LINE
  5
147
330
144
100
AcDbEntity
  8
10
 62
     0
100
AcDbLine
 10
0.0
 20
0.0
 30
0.0
 11
0.0
 21
2.5
 31
0.0
  0
LINE
  5
148
330
144
100
AcDbEntity
  8
10
 62
     0
100
AcDbLine
 10
0.0
 20
0.0
 30
0.0
 11
-2.5
 21
0.0
 31
0.0
  0
LINE
  5
149
330
144
100
AcDbEntity
  8
10
 62
     0
100
AcDbLine
 10
0.0
 20
0.0
 30
0.0
 11
0.0
 21
-2.5
 31
0.0
  0
LINE
  5
14A
330
144
100
AcDbEntity
  8
10
 62
     0
100
AcDbLine
 10
0.0
 20
0.0
 30
0.0
 11
2.5
 21
0.0
 31
0.0
  0
LINE
  5
14B
330
144
100
AcDbEntity
  8
10
 62
     0
100
AcDbLine
 10
0.0
 20
2.5
 30
0.0
 11
0.0
 21
3.4166666667
 31
0.0
  0
LINE
  5
14C
330
144
100
AcDbEntity
  8
10
 62
     0
100
AcDbLine
 10
-2.5
 20
0.0
 30
0.0
 11
-3.4166666667
 21
0.0
 31
0.0
  0
LINE
  5
14D
330
144
100
AcDbEntity
  8
10
 62
     0
100
AcDbLine
 10
0.0
 20
-2.5
 30
0.0
 11
0.0
 21
-3.4166666667
 31
0.0
  0
LINE
  5
14E
330
144
100
AcDbEntity
  8
10
 62
     0
100
AcDbLine
 10
2.5
 20
0.0
 30
0.0
 11
3.4166666667
 21
0.0
 31
0.0
  0
ENDBLK
  5
146
330
144
100
AcDbEntity
  8
0
100
AcDbBlockEnd
  0
BLOCK
  5
151
330
150
100
AcDbEntity
  8
0
100
AcDbBlockBegin
  2
SW_CENTERMARKSYMBOL_5
 70
     0
 10
0.0
 20
0.0
 30
0.0
  3
SW_CENTERMARKSYMBOL_5
  1

  0
LINE
  5
153
330
150
100
AcDbEntity
  8
10
 62
     0
100
AcDbLine
 10
0.0
 20
0.0
 30
0.0
 11
0.0
 21
2.5
 31
0.0
  0
LINE
  5
154
330
150
100
AcDbEntity
  8
10
 62
     0
100
AcDbLine
 10
0.0
 20
0.0
 30
0.0
 11
-2.5
 21
0.0
 31
0.0
  0
LINE
  5
155
330
150
100
AcDbEntity
  8
10
 62
     0
100
AcDbLine
 10
0.0
 20
0.0
 30
0.0
 11
0.0
 21
-2.5
 31
0.0
  0
LINE
  5
156
330
150
100
AcDbEntity
  8
10
 62
     0
100
AcDbLine
 10
0.0
 20
0.0
 30
0.0
 11
2.5
 21
0.0
 31
0.0
  0
LINE
  5
157
330
150
100
AcDbEntity
  8
10
 62
     0
100
AcDbLine
 10
0.0
 20
2.5
 30
0.0
 11
0.0
 21
3.4166666667
 31
0.0
  0
LINE
  5
158
330
150
100
AcDbEntity
  8
10
 62
     0
100
AcDbLine
 10
-2.5
 20
0.0
 30
0.0
 11
-3.4166666667
 21
0.0
 31
0.0
  0
LINE
  5
159
330
150
100
AcDbEntity
  8
10
 62
     0
100
AcDbLine
 10
0.0
 20
-2.5
 30
0.0
 11
0.0
 21
-3.4166666667
 31
0.0
  0
LINE
  5
15A
330
150
100
AcDbEntity
  8
10
 62
     0
100
AcDbLine
 10
2.5
 20
0.0
 30
0.0
 11
3.4166666667
 21
0.0
 31
0.0
  0
ENDBLK
  5
152
330
150
100
AcDbEntity
  8
0
100
AcDbBlockEnd
  0
BLOCK
  5
15D
330
15C
100
AcDbEntity
  8
0
100
AcDbBlockBegin
  2
SW_CENTERMARKSYMBOL_6
 70
     0
 10
0.0
 20
0.0
 30
0.0
  3
SW_CENTERMARKSYMBOL_6
  1

  0
LINE
  5
15F
330
15C
100
AcDbEntity
  8
10
 62
     0
100
AcDbLine
 10
0.0
 20
0.0
 30
0.0
 11
0.0
 21
2.5
 31
0.0
  0
LINE
  5
160
330
15C
100
AcDbEntity
  8
10
 62
     0
100
AcDbLine
 10
0.0
 20
0.0
 30
0.0
 11
-2.5
 21
0.0
 31
0.0
  0
LINE
  5
161
330
15C
100
AcDbEntity
  8
10
 62
     0
100
AcDbLine
 10
0.0
 20
0.0
 30
0.0
 11
0.0
 21
-2.5
 31
0.0
  0
LINE
  5
162
330
15C
100
AcDbEntity
  8
10
 62
     0
100
AcDbLine
 10
0.0
 20
0.0
 30
0.0
 11
2.5
 21
0.0
 31
0.0
  0
LINE
  5
163
330
15C
100
AcDbEntity
  8
10
 62
     0
100
AcDbLine
 10
0.0
 20
2.5
 30
0.0
 11
0.0
 21
3.5
 31
0.0
  0
LINE
  5
164
330
15C
100
AcDbEntity
  8
10
 62
     0
100
AcDbLine
 10
-2.5
 20
0.0
 30
0.0
 11
-3.5
 21
0.0
 31
0.0
  0
LINE
  5
165
330
15C
100
AcDbEntity
  8
10
 62
     0
100
AcDbLine
 10
0.0
 20
-2.5
 30
0.0
 11
0.0
 21
-3.5
 31
0.0
  0
LINE
  5
166
330
15C
100
AcDbEntity
  8
10
 62
     0
100
AcDbLine
 10
2.5
 20
0.0
 30
0.0
 11
3.5
 21
0.0
 31
0.0
  0
ENDBLK
  5
15E
330
15C
100
AcDbEntity
  8
0
100
AcDbBlockEnd
  0
ENDSEC
  0
SECTION
  2
ENTITIES
  0
CIRCLE
  5
70
330
1F
100
AcDbEntity
  8
0
  6
Continuous
 62
     7
370
    25
100
AcDbCircle
 10
83.0
 20
69.5
 30
0.0
 40
1.666666666666671
  0
LINE
  5
71
330
1F
100
AcDbEntity
  8
0
  6
Continuous
 62
     7
370
    25
100
AcDbLine
 10
92.2584516452
 20
8.6666666667
 30
0.0
 11
92.2584516452
 21
27.9687097264
 31
0.0
  0
ARC
  5
72
330
1F
100
AcDbEntity
  8
0
  6
Continuous
 62
     7
370
    25
100
AcDbCircle
 10
90.5917849786
 20
8.6666666667
 30
0.0
 40
1.666666666666671
100
AcDbArc
 50
270.0
 51
0.0
  0
LINE
  5
73
330
1F
100
AcDbEntity
  8
0
  6
Continuous
 62
     7
370
    25
100
AcDbLine
 10
90.5917849786
 20
7.0
 30
0.0
 11
63.1666666667
 21
7.0
 31
0.0
  0
ARC
  5
74
330
1F
100
AcDbEntity
  8
0
  6
Continuous
 62
     7
370
    25
100
AcDbCircle
 10
63.1666666667
 20
8.6666666667
 30
0.0
 40
1.666666666666671
100
AcDbArc
 50
180.0
 51
270.0
  0
LINE
  5
75
330
1F
100
AcDbEntity
  8
0
  6
Continuous
 62
     7
370
    25
100
AcDbLine
 10
61.5
 20
8.6666666667
 30
0.0
 11
61.5
 21
35.7475718299
 31
0.0
  0
LINE
  5
76
330
1F
100
AcDbEntity
  8
0
  6
Continuous
 62
     7
370
    25
100
AcDbLine
 10
61.5
 20
76.5426681062
 30
0.0
 11
61.5
 21
77.0
 31
0.0
  0
ARC
  5
77
330
1F
100
AcDbEntity
  8
0
  6
Continuous
 62
     7
370
    25
100
AcDbCircle
 10
63.1666666667
 20
77.0
 30
0.0
 40
1.666666666666723
100
AcDbArc
 50
131.6238830189
 51
180.0
  0
LINE
  5
78
330
1F
100
AcDbEntity
  8
0
  6
Continuous
 62
     7
370
    25
100
AcDbLine
 10
76.8781666198
 20
78.2458687939
 30
0.0
 11
76.6111538101
 21
78.2458687939
 31
0.0
  0
LINE
  5
79
330
1F
100
AcDbEntity
  8
0
  6
Continuous
 62
     7
370
    25
100
AcDbLine
 10
71.8971086022
 20
78.2458687939
 30
0.0
 11
62.0596035581
 21
78.2458687939
 31
0.0
  0
CIRCLE
  5
7A
330
1F
100
AcDbEntity
  8
0
  6
Continuous
 62
     7
370
    25
100
AcDbCircle
 10
69.529065947
 20
43.271435008
 30
0.0
 40
2.166666666666671
  0
ARC
  5
7B
330
1F
100
AcDbEntity
  8
0
  6
Continuous
 62
     7
370
    25
100
AcDbCircle
 10
69.6666666667
 20
57.0
 30
0.0
 40
2.166666666666672
100
AcDbArc
 50
74.8193253765
 51
195.1806746235
  0
LINE
  5
7C
330
1F
100
AcDbEntity
  8
0
  6
Continuous
 62
     7
370
    25
100
AcDbLine
 10
71.4763107294
 20
78.6666666667
 30
0.0
 11
63.1666666667
 21
78.6666666667
 31
0.0
  0
ARC
  5
7D
330
1F
100
AcDbEntity
  8
0
  6
Continuous
 62
     7
370
    25
100
AcDbCircle
 10
63.1666666667
 20
77.0
 30
0.0
 40
1.666666666666723
100
AcDbArc
 50
90.0
 51
131.6238830189
  0
ARC
  5
7E
330
1F
100
AcDbEntity
  8
0
  6
Continuous
 62
     7
370
    25
100
AcDbCircle
 10
75.7711035113
 20
77.0
 30
0.0
 40
1.666666666666666
100
AcDbArc
 50
48.3761169812
 51
72.7508756657
  0
LINE
  5
7F
330
1F
100
AcDbEntity
  8
0
  6
Continuous
 62
     7
370
    25
100
AcDbLine
 10
76.1903559373
 20
78.6666666667
 30
0.0
 11
81.3333333333
 21
78.6666666667
 31
0.0
  0
LINE
  5
80
330
1F
100
AcDbEntity
  8
0
  6
Continuous
 62
     7
370
    25
100
AcDbLine
 10
84.6666666667
 20
78.6666666667
 30
0.0
 11
89.8096440627
 21
78.6666666667
 31
0.0
  0
LINE
  5
81
330
1F
100
AcDbEntity
  8
0
  6
Continuous
 62
     7
370
    25
100
AcDbLine
 10
102.2702067819
 20
7.0
 30
0.0
 11
90.5917849786
 21
7.0
 31
0.0
  0
LINE
  5
82
330
1F
100
AcDbEntity
  8
0
  6
Continuous
 62
     7
370
    25
100
AcDbLine
 10
100.6035401152
 20
27.9687097264
 30
0.0
 11
92.2584516452
 21
27.9687097264
 31
0.0
  0
LINE
  5
83
330
1F
100
AcDbEntity
  8
0
  6
Continuous
 62
     7
370
    25
100
AcDbLine
 10
92.2584516452
 20
27.9687097264
 30
0.0
 11
92.2584516452
 21
33.1608878324
 31
0.0
  0
LINE
  5
84
330
1F
100
AcDbEntity
  8
0
  6
Continuous
 62
     7
370
    25
100
AcDbLine
 10
94.5236892706
 20
78.6666666667
 30
0.0
 11
100.6035401152
 21
78.6666666667
 31
0.0
  0
LINE
  5
85
330
1F
100
AcDbEntity
  8
0
  6
Continuous
 62
     7
370
    25
100
AcDbLine
 10
100.6035401152
 20
27.9687097264
 30
0.0
 11
100.6035401152
 21
34.0809051632
 31
0.0
  0
LINE
  5
86
330
1F
100
AcDbEntity
  8
0
  6
Continuous
 62
     7
370
    25
100
AcDbLine
 10
100.6035401152
 20
77.8952463597
 30
0.0
 11
100.6035401152
 21
78.6666666667
 31
0.0
  0
CIRCLE
  5
87
330
1F
100
AcDbEntity
  8
0
  6
Continuous
 62
     7
370
    25
100
AcDbCircle
 10
97.3725032685
 20
32.1018742664
 30
0.0
 40
1.0
  0
LINE
  5
88
330
1F
100
AcDbEntity
  8
0
  6
Continuous
 62
     7
370
    25
100
AcDbLine
 10
104.5
 20
78.6666666667
 30
0.0
 11
100.6035401152
 21
78.6666666667
 31
0.0
  0
LINE
  5
89
330
1F
100
AcDbEntity
  8
0
  6
Continuous
 62
     7
370
    25
100
AcDbLine
 10
100.6035401152
 20
78.2458687939
 30
0.0
 11
104.5
 21
78.2458687939
 31
0.0
  0
LINE
  5
8A
330
1F
100
AcDbEntity
  8
0
  6
Continuous
 62
     7
370
    25
100
AcDbLine
 10
104.5
 20
78.2458687939
 30
0.0
 11
104.5
 21
78.6666666667
 31
0.0
  0
LINE
  5
8B
330
1F
100
AcDbEntity
  8
0
  6
Continuous
 62
     7
370
    25
100
AcDbLine
 10
100.6035401152
 20
27.9687097264
 30
0.0
 11
100.6035401152
 21
8.6666666667
 31
0.0
  0
LINE
  5
8C
330
1F
100
AcDbEntity
  8
0
  6
Continuous
 62
     7
370
    25
100
AcDbLine
 10
104.5
 20
7.0
 30
0.0
 11
102.2702067819
 21
7.0
 31
0.0
  0
LINE
  5
8D
330
1F
100
AcDbEntity
  8
0
  6
Continuous
 62
     7
370
    25
100
AcDbLine
 10
104.5
 20
78.2458687939
 30
0.0
 11
104.5
 21
77.285076074
 31
0.0
  0
LINE
  5
8E
330
1F
100
AcDbEntity
  8
0
  6
Continuous
 62
     7
370
    25
100
AcDbLine
 10
104.5
 20
35.0210886726
 30
0.0
 11
104.5
 21
7.0
 31
0.0
  0
ARC
  5
8F
330
1F
100
AcDbEntity
  8
0
  6
Continuous
 62
     7
370
    25
100
AcDbCircle
 10
102.2702067819
 20
8.6666666667
 30
0.0
 40
1.666666666666671
100
AcDbArc
 50
180.0
 51
270.0
  0
LINE
  5
90
330
1F
100
AcDbEntity
  8
0
  6
Continuous
 62
     7
370
    25
100
AcDbLine
 10
61.5
 20
76.5426681062
 30
0.0
 11
61.5
 21
73.6301326457
 31
0.0
  0
ELLIPSE
  5
91
330
1F
100
AcDbEntity
  8
0
  6
Continuous
 62
     7
370
    25
100
AcDbEllipse
 10
63.1666666667
 20
76.5426681062
 30
0.0
 11
0.0
 21
1.703200687627174
 31
0.0
210
0.0
220
0.0
230
1.0
 40
0.978549785
 41
0.0
 42
1.570796326794897
  0
ELLIPSE
  5
92
330
1F
100
AcDbEntity
  8
0
  6
Continuous
 62
     7
370
    25
100
AcDbEllipse
 10
63.1666666667
 20
73.6301326457
 30
0.0
 11
0.0
 21
1.703200687627174
 31
0.0
210
0.0
220
0.0
230
1.0
 40
0.978549785
 41
0.0
 42
1.570796326794897
  0
ELLIPSE
  5
93
330
1F
100
AcDbEntity
  8
0
  6
Continuous
 62
     7
370
    25
100
AcDbEllipse
 10
103.0
 20
73.6301326457
 30
0.0
 11
0.0
 21
1.703200687627188
 31
0.0
210
0.0
220
0.0
230
1.0
 40
0.978549785
 41
4.712388980384704
 42
6.283185307179586
  0
LINE
  5
94
330
1F
100
AcDbEntity
  8
0
  6
Continuous
 62
     7
370
    25
100
AcDbLine
 10
104.6666666667
 20
35.7475718299
 30
0.0
 11
104.6666666667
 21
38.8927205463
 31
0.0
  0
LINE
  5
95
330
1F
100
AcDbEntity
  8
0
  6
Continuous
 62
     7
370
    25
100
AcDbLine
 10
104.6666666667
 20
45.2759302438
 30
0.0
 11
104.6666666667
 21
45.4763107294
 31
0.0
  0
LINE
  5
96
330
1F
100
AcDbEntity
  8
0
  6
Continuous
 62
     7
370
    25
100
AcDbLine
 10
104.6666666667
 20
50.1903559373
 30
0.0
 11
104.6666666667
 21
67.8333333333
 31
0.0
  0
LINE
  5
97
330
1F
100
AcDbEntity
  8
0
  6
Continuous
 62
     7
370
    25
100
AcDbLine
 10
104.6666666667
 20
71.1666666667
 30
0.0
 11
104.6666666667
 21
73.6301326457
 31
0.0
  0
ARC
  5
98
330
1F
100
AcDbEntity
  8
0
  6
Continuous
 62
     7
370
    25
100
AcDbCircle
 10
103.0
 20
35.7475718299
 30
0.0
 40
1.666666666666679
100
AcDbArc
 50
270.0
 51
0.0
  0
LINE
  5
99
330
1F
100
AcDbEntity
  8
0
  6
Continuous
 62
     7
370
    25
100
AcDbLine
 10
63.1666666667
 20
34.0809051632
 30
0.0
 11
70.6818134069
 21
34.0809051632
 31
0.0
  0
LINE
  5
9A
330
1F
100
AcDbEntity
  8
0
  6
Continuous
 62
     7
370
    25
100
AcDbLine
 10
95.3181865931
 20
34.0809051632
 30
0.0
 11
103.0
 21
34.0809051632
 31
0.0
  0
ARC
  5
9B
330
1F
100
AcDbEntity
  8
0
  6
Continuous
 62
     7
370
    25
100
AcDbCircle
 10
63.1666666667
 20
35.7475718299
 30
0.0
 40
1.666666666666679
100
AcDbArc
 50
180.0
 51
270.0
  0
LINE
  5
9C
330
1F
100
AcDbEntity
  8
0
  6
Continuous
 62
     7
370
    25
100
AcDbLine
 10
61.5
 20
35.7475718299
 30
0.0
 11
61.5
 21
38.7754170085
 31
0.0
  0
LINE
  5
9D
330
1F
100
AcDbEntity
  8
0
  6
Continuous
 62
     7
370
    25
100
AcDbLine
 10
61.5
 20
45.1278847861
 30
0.0
 11
61.5
 21
45.642977396
 31
0.0
  0
LINE
  5
9E
330
1F
100
AcDbEntity
  8
0
  6
Continuous
 62
     7
370
    25
100
AcDbLine
 10
61.5
 20
50.357022604
 30
0.0
 11
61.5
 21
67.8333333333
 31
0.0
  0
LINE
  5
9F
330
1F
100
AcDbEntity
  8
0
  6
Continuous
 62
     7
370
    25
100
AcDbLine
 10
61.5
 20
71.1666666667
 30
0.0
 11
61.5
 21
73.6301326457
 31
0.0
  0
LINE
  5
A0
330
1F
100
AcDbEntity
  8
0
  6
Continuous
 62
     7
370
    25
100
AcDbLine
 10
63.1666666667
 20
75.3333333333
 30
0.0
 11
74.8096440627
 21
75.3333333333
 31
0.0
  0
LINE
  5
A1
330
1F
100
AcDbEntity
  8
0
  6
Continuous
 62
     7
370
    25
100
AcDbLine
 10
91.1903559373
 20
75.3333333333
 30
0.0
 11
103.0
 21
75.3333333333
 31
0.0
  0
ARC
  5
A2
330
1F
100
AcDbEntity
  8
0
  6
Continuous
 62
     7
370
    25
100
AcDbCircle
 10
69.6666666667
 20
57.0
 30
0.0
 40
5.000000000000002
100
AcDbArc
 50
251.8197033282
 51
0.0
  0
ARC
  5
A3
330
1F
100
AcDbEntity
  8
0
  6
Continuous
 62
     7
370
    25
100
AcDbCircle
 10
69.6666666667
 20
57.0
 30
0.0
 40
4.999999999999996
100
AcDbArc
 50
57.4438186319
 51
212.5561813681
  0
ARC
  5
A4
330
1F
100
AcDbEntity
  8
0
  6
Continuous
 62
     7
370
    25
100
AcDbCircle
 10
69.6666666667
 20
57.0
 30
0.0
 40
4.999999999999993
100
AcDbArc
 50
0.0
 51
18.1802966718
  0
ARC
  5
A5
330
1F
100
AcDbEntity
  8
0
  6
Continuous
 62
     7
370
    25
100
AcDbCircle
 10
69.529065947
 20
43.271435008
 30
0.0
 40
5.0
100
AcDbArc
 50
299.5235852432
 51
0.0
  0
ARC
  5
A6
330
1F
100
AcDbEntity
  8
0
  6
Continuous
 62
     7
370
    25
100
AcDbCircle
 10
69.529065947
 20
43.271435008
 30
0.0
 40
5.000000000000002
100
AcDbArc
 50
0.0
 51
186.1065470934
  0
LINE
  5
A7
330
1F
100
AcDbEntity
  8
0
  6
Continuous
 62
     7
370
    25
100
AcDbLine
 10
104.6666666667
 20
73.6301326457
 30
0.0
 11
104.6666666667
 21
76.5426681062
 31
0.0
  0
ELLIPSE
  5
A8
330
1F
100
AcDbEntity
  8
0
  6
Continuous
 62
     7
370
    25
100
AcDbEllipse
 10
103.0
 20
76.5426681062
 30
0.0
 11
0.0
 21
1.703200687627188
 31
0.0
210
0.0
220
0.0
230
1.0
 40
0.978549785
 41
4.712388980384704
 42
6.283185307179586
  0
LINE
  5
A9
330
1F
100
AcDbEntity
  8
0
  6
Continuous
 62
     7
370
    25
100
AcDbLine
 10
81.3333333333
 20
78.2458687939
 30
0.0
 11
76.6111538101
 21
78.2458687939
 31
0.0
  0
LINE
  5
AA
330
1F
100
AcDbEntity
  8
0
  6
Continuous
 62
     7
370
    25
100
AcDbLine
 10
71.8971086022
 20
78.2458687939
 30
0.0
 11
63.1666666667
 21
78.2458687939
 31
0.0
  0
LINE
  5
AB
330
1F
100
AcDbEntity
  8
0
  6
Continuous
 62
     7
370
    25
100
AcDbLine
 10
103.0
 20
78.2458687939
 30
0.0
 11
100.6035401152
 21
78.2458687939
 31
0.0
  0
LINE
  5
AC
330
1F
100
AcDbEntity
  8
0
  6
Continuous
 62
     7
370
    25
100
AcDbLine
 10
89.3888461899
 20
78.2458687939
 30
0.0
 11
84.6666666667
 21
78.2458687939
 31
0.0
  0
ARC
  5
AD
330
1F
100
AcDbEntity
  8
0
  6
Continuous
 62
     7
370
    25
100
AcDbCircle
 10
69.6666666667
 20
57.0
 30
0.0
 40
2.666666666666678
100
AcDbArc
 50
68.8303017851
 51
201.1696982149
  0
ARC
  5
AE
330
1F
100
AcDbEntity
  8
0
  6
Continuous
 62
     7
370
    25
100
AcDbCircle
 10
69.6666666667
 20
57.0
 30
0.0
 40
2.666666666666659
100
AcDbArc
 50
282.776106152
 51
347.223893848
  0
CIRCLE
  5
AF
330
1F
100
AcDbEntity
  8
0
  6
Continuous
 62
     7
370
    25
100
AcDbCircle
 10
69.529065947
 20
43.271435008
 30
0.0
 40
2.666666666666671
  0
ARC
  5
B0
330
1F
100
AcDbEntity
  8
0
  6
Continuous
 62
     7
370
    25
100
AcDbCircle
 10
83.0
 20
69.5
 30
0.0
 40
32.49999999999999
100
AcDbArc
 50
317.9395344864
 51
357.0604655136
  0
ARC
  5
B1
330
1F
100
AcDbEntity
  8
0
  6
Continuous
 62
     7
370
    25
100
AcDbCircle
 10
83.0
 20
69.5
 30
0.0
 40
32.50000000000001
100
AcDbArc
 50
137.9395344864
 51
177.0604655136
  0
ARC
  5
B2
330
1F
100
AcDbEntity
  8
0
  6
Continuous
 62
     7
370
    25
100
AcDbCircle
 10
83.0
 20
69.5
 30
0.0
 40
32.5
100
AcDbArc
 50
272.9395344864
 51
312.0604655136
  0
ARC
  5
B3
330
1F
100
AcDbEntity
  8
0
  6
Continuous
 62
     7
370
    25
100
AcDbCircle
 10
83.0
 20
69.5
 30
0.0
 40
32.50000000000004
100
AcDbArc
 50
92.9395344864
 51
132.0604655136
  0
ARC
  5
B4
330
1F
100
AcDbEntity
  8
0
  6
Continuous
 62
     7
370
    25
100
AcDbCircle
 10
83.0
 20
69.5
 30
0.0
 40
32.50000000000004
100
AcDbArc
 50
47.9395344864
 51
87.0604655136
  0
ARC
  5
B5
330
1F
100
AcDbEntity
  8
0
  6
Continuous
 62
     7
370
    25
100
AcDbCircle
 10
83.0
 20
69.5
 30
0.0
 40
32.5
100
AcDbArc
 50
182.9395344864
 51
222.0604655136
  0
ARC
  5
B6
330
1F
100
AcDbEntity
  8
0
  6
Continuous
 62
     7
370
    25
100
AcDbCircle
 10
83.0
 20
69.5
 30
0.0
 40
32.49999999999999
100
AcDbArc
 50
227.9395344864
 51
267.0604655136
  0
ARC
  5
B7
330
1F
100
AcDbEntity
  8
0
  6
Continuous
 62
     7
370
    25
100
AcDbCircle
 10
83.0
 20
69.5
 30
0.0
 40
32.49999999999999
100
AcDbArc
 50
2.9395344864
 51
42.0604655136
  0
CIRCLE
  5
B8
330
1F
100
AcDbEntity
  8
0
  6
Continuous
 62
     7
370
    25
100
AcDbCircle
 10
83.0
 20
69.5
 30
0.0
 40
37.5
  0
CIRCLE
  5
B9
330
1F
100
AcDbEntity
  8
0
  6
Continuous
 62
     7
370
    25
100
AcDbCircle
 10
83.0
 20
69.5
 30
0.0
 40
2.166666666666671
  0
ARC
  5
BA
330
1F
100
AcDbEntity
  8
0
  6
Continuous
 62
     7
370
    25
100
AcDbCircle
 10
83.0
 20
69.5
 30
0.0
 40
8.333333333333393
100
AcDbArc
 50
11.5369590328
 51
33.4630409672
  0
ARC
  5
BB
330
1F
100
AcDbEntity
  8
0
  6
Continuous
 62
     7
370
    25
100
AcDbCircle
 10
83.0
 20
69.5
 30
0.0
 40
8.3333333333333
100
AcDbArc
 50
56.5369590328
 51
78.4630409672
  0
ARC
  5
BC
330
1F
100
AcDbEntity
  8
0
  6
Continuous
 62
     7
370
    25
100
AcDbCircle
 10
83.0
 20
69.5
 30
0.0
 40
8.333333333333295
100
AcDbArc
 50
101.5369590328
 51
123.4630409672
  0
ARC
  5
BD
330
1F
100
AcDbEntity
  8
0
  6
Continuous
 62
     7
370
    25
100
AcDbCircle
 10
83.0
 20
69.5
 30
0.0
 40
8.333333333333407
100
AcDbArc
 50
146.5369590328
 51
168.4630409672
  0
ARC
  5
BE
330
1F
100
AcDbEntity
  8
0
  6
Continuous
 62
     7
370
    25
100
AcDbCircle
 10
83.0
 20
69.5
 30
0.0
 40
8.333333333333407
100
AcDbArc
 50
191.5369590328
 51
213.4630409672
  0
ARC
  5
BF
330
1F
100
AcDbEntity
  8
0
  6
Continuous
 62
     7
370
    25
100
AcDbCircle
 10
83.0
 20
69.5
 30
0.0
 40
8.3333333333334
100
AcDbArc
 50
236.5369590328
 51
258.4630409672
  0
ARC
  5
C0
330
1F
100
AcDbEntity
  8
0
  6
Continuous
 62
     7
370
    25
100
AcDbCircle
 10
83.0
 20
69.5
 30
0.0
 40
8.3333333333334
100
AcDbArc
 50
281.5369590328
 51
303.4630409672
  0
ARC
  5
C1
330
1F
100
AcDbEntity
  8
0
  6
Continuous
 62
     7
370
    25
100
AcDbCircle
 10
83.0
 20
69.5
 30
0.0
 40
8.333333333333265
100
AcDbArc
 50
326.5369590328
 51
348.4630409672
  0
LINE
  5
C2
330
1F
100
AcDbEntity
  8
0
  6
Continuous
 62
     7
370
    25
100
AcDbLine
 10
91.1649658093
 20
71.1666666667
 30
0.0
 11
117.7934380787
 21
71.1666666667
 31
0.0
  0
LINE
  5
C3
330
1F
100
AcDbEntity
  8
0
  6
Continuous
 62
     7
370
    25
100
AcDbLine
 10
84.6666666667
 20
61.3350341907
 30
0.0
 11
84.6666666667
 21
34.7065619213
 31
0.0
  0
LINE
  5
C4
330
1F
100
AcDbEntity
  8
0
  6
Continuous
 62
     7
370
    25
100
AcDbLine
 10
81.3333333333
 20
77.6649658093
 30
0.0
 11
81.3333333333
 21
104.2934380787
 31
0.0
  0
LINE
  5
C5
330
1F
100
AcDbEntity
  8
0
  6
Continuous
 62
     7
370
    25
100
AcDbLine
 10
76.0479860061
 20
74.0949913899
 30
0.0
 11
57.2188126918
 21
92.9241647042
 31
0.0
  0
LINE
  5
C6
330
1F
100
AcDbEntity
  8
0
  6
Continuous
 62
     7
370
    25
100
AcDbLine
 10
89.9520139939
 20
64.9050086101
 30
0.0
 11
108.7811873082
 21
46.0758352958
 31
0.0
  0
LINE
  5
C7
330
1F
100
AcDbEntity
  8
0
  6
Continuous
 62
     7
370
    25
100
AcDbLine
 10
87.5949913899
 20
76.4520139939
 30
0.0
 11
106.4241647042
 21
95.2811873082
 31
0.0
  0
LINE
  5
C8
330
1F
100
AcDbEntity
  8
0
  6
Continuous
 62
     7
370
    25
100
AcDbLine
 10
78.4050086101
 20
62.5479860061
 30
0.0
 11
59.5758352958
 21
43.7188126918
 31
0.0
  0
LINE
  5
C9
330
1F
100
AcDbEntity
  8
0
  6
Continuous
 62
     7
370
    25
100
AcDbLine
 10
74.8350341907
 20
67.8333333333
 30
0.0
 11
48.2065619213
 21
67.8333333333
 31
0.0
  0
LINE
  5
CA
330
1F
100
AcDbEntity
  8
0
  6
Continuous
 62
     7
370
    25
100
AcDbLine
 10
108.7811873082
 20
92.9241647042
 30
0.0
 11
89.9520139939
 21
74.0949913899
 31
0.0
  0
LINE
  5
CB
330
1F
100
AcDbEntity
  8
0
  6
Continuous
 62
     7
370
    25
100
AcDbLine
 10
81.3333333333
 20
34.7065619213
 30
0.0
 11
81.3333333333
 21
61.3350341907
 31
0.0
  0
LINE
  5
CC
330
1F
100
AcDbEntity
  8
0
  6
Continuous
 62
     7
370
    25
100
AcDbLine
 10
48.2065619213
 20
71.1666666667
 30
0.0
 11
74.8350341907
 21
71.1666666667
 31
0.0
  0
LINE
  5
CD
330
1F
100
AcDbEntity
  8
0
  6
Continuous
 62
     7
370
    25
100
AcDbLine
 10
84.6666666667
 20
104.2934380787
 30
0.0
 11
84.6666666667
 21
77.6649658093
 31
0.0
  0
LINE
  5
CE
330
1F
100
AcDbEntity
  8
0
  6
Continuous
 62
     7
370
    25
100
AcDbLine
 10
106.4241647042
 20
43.7188126918
 30
0.0
 11
87.5949913899
 21
62.5479860061
 31
0.0
  0
LINE
  5
CF
330
1F
100
AcDbEntity
  8
0
  6
Continuous
 62
     7
370
    25
100
AcDbLine
 10
59.5758352958
 20
95.2811873082
 30
0.0
 11
78.4050086101
 21
76.4520139939
 31
0.0
  0
LINE
  5
D0
330
1F
100
AcDbEntity
  8
0
  6
Continuous
 62
     7
370
    25
100
AcDbLine
 10
57.2188126918
 20
46.0758352958
 30
0.0
 11
76.0479860061
 21
64.9050086101
 31
0.0
  0
LINE
  5
D1
330
1F
100
AcDbEntity
  8
0
  6
Continuous
 62
     7
370
    25
100
AcDbLine
 10
117.7934380787
 20
67.8333333333
 30
0.0
 11
91.1649658093
 21
67.8333333333
 31
0.0
  0
CIRCLE
  5
D2
330
1F
100
AcDbEntity
  8
0
  6
Continuous
 62
     7
370
    25
100
AcDbCircle
 10
83.0
 20
69.5
 30
0.0
 40
1.749999999999986
  0
CIRCLE
  5
D3
330
1F
100
AcDbEntity
  8
0
  6
HIDDEN
 62
     7
370
    18
100
AcDbCircle
 10
89.3327313696
 20
56.2631271797
 30
0.0
 40
12.08333333333333
  0
CIRCLE
  5
D4
330
1F
100
AcDbEntity
  8
0
  6
HIDDEN
 62
     7
370
    18
100
AcDbCircle
 10
89.3327313696
 20
56.2631271797
 30
0.0
 40
1.666666666666671
  0
CIRCLE
  5
D5
330
1F
100
AcDbEntity
  8
0
  6
HIDDEN
 62
     7
370
    18
100
AcDbCircle
 10
89.3327313696
 20
56.2631271797
 30
0.0
 40
4.583333333333325
  0
LINE
  5
D6
330
1F
100
AcDbEntity
  8
0
  6
HIDDEN
 62
     7
370
    18
100
AcDbLine
 10
76.6111538101
 20
78.2458687939
 30
0.0
 11
71.8971086022
 21
78.2458687939
 31
0.0
  0
ARC
  5
D7
330
1F
100
AcDbEntity
  8
0
  6
HIDDEN
 62
     7
370
    18
100
AcDbCircle
 10
75.7711035113
 20
77.0
 30
0.0
 40
1.666666666666666
100
AcDbArc
 50
313.9455195623
 51
48.3761169813
  0
ARC
  5
D8
330
1F
100
AcDbEntity
  8
0
  6
HIDDEN
 62
     7
370
    18
100
AcDbCircle
 10
69.6666666667
 20
57.0
 30
0.0
 40
2.166666666666672
100
AcDbArc
 50
195.1806746235
 51
0.0
  0
ARC
  5
D9
330
1F
100
AcDbEntity
  8
0
  6
HIDDEN
 62
     7
370
    18
100
AcDbCircle
 10
69.6666666667
 20
57.0
 30
0.0
 40
2.166666666666663
100
AcDbArc
 50
0.0
 51
74.8193253765
  0
LINE
  5
DA
330
1F
100
AcDbEntity
  8
0
  6
HIDDEN
 62
     7
370
    18
100
AcDbLine
 10
75.7711035113
 20
78.6666666667
 30
0.0
 11
71.4763107294
 21
78.6666666667
 31
0.0
  0
ARC
  5
DB
330
1F
100
AcDbEntity
  8
0
  6
HIDDEN
 62
     7
370
    18
100
AcDbCircle
 10
75.7711035113
 20
77.0
 30
0.0
 40
1.666666666666666
100
AcDbArc
 50
72.7508756657
 51
90.0
  0
ARC
  5
DC
330
1F
100
AcDbEntity
  8
0
  6
HIDDEN
 62
     7
370
    18
100
AcDbCircle
 10
82.2493980362
 20
59.110411888
 30
0.0
 40
1.666666666666751
100
AcDbArc
 50
0.0
 51
85.8678116176
  0
LINE
  5
DD
330
1F
100
AcDbEntity
  8
0
  6
HIDDEN
 62
     7
370
    18
100
AcDbLine
 10
83.9160647029
 20
56.2631271797
 30
0.0
 11
83.9160647029
 21
59.110411888
 31
0.0
  0
ARC
  5
DE
330
1F
100
AcDbEntity
  8
0
  6
HIDDEN
 62
     7
370
    18
100
AcDbCircle
 10
89.3327313696
 20
56.2631271797
 30
0.0
 40
5.416666666666671
100
AcDbArc
 50
180.0
 51
280.2386579319
  0
ARC
  5
DF
330
1F
100
AcDbEntity
  8
0
  6
HIDDEN
 62
     7
370
    18
100
AcDbCircle
 10
90.5917849786
 20
49.2925895304
 30
0.0
 40
1.666666666666751
100
AcDbArc
 50
0.0
 51
100.2386579319
  0
ARC
  5
E0
330
1F
100
AcDbEntity
  8
0
  6
HIDDEN
 62
     7
370
    18
100
AcDbCircle
 10
83.0
 20
69.5
 30
0.0
 40
8.750000000000066
100
AcDbArc
 50
234.7066145723
 51
265.8678116176
  0
LINE
  5
E1
330
1F
100
AcDbEntity
  8
0
  6
HIDDEN
 62
     7
370
    18
100
AcDbLine
 10
75.7711035113
 20
78.6666666667
 30
0.0
 11
76.1903559373
 21
78.6666666667
 31
0.0
  0
LINE
  5
E2
330
1F
100
AcDbEntity
  8
0
  6
HIDDEN
 62
     7
370
    18
100
AcDbLine
 10
81.3333333333
 20
78.6666666667
 30
0.0
 11
84.6666666667
 21
78.6666666667
 31
0.0
  0
LINE
  5
E3
330
1F
100
AcDbEntity
  8
0
  6
HIDDEN
 62
     7
370
    18
100
AcDbLine
 10
89.8096440627
 20
78.6666666667
 30
0.0
 11
92.2584516452
 21
78.6666666667
 31
0.0
  0
ARC
  5
E4
330
1F
100
AcDbEntity
  8
0
  6
HIDDEN
 62
     7
370
    18
100
AcDbCircle
 10
89.3327313696
 20
56.2631271797
 30
0.0
 40
5.416666666666721
100
AcDbArc
 50
57.3073085811
 51
180.0
  0
ARC
  5
E5
330
1F
100
AcDbEntity
  8
0
  6
HIDDEN
 62
     7
370
    18
100
AcDbCircle
 10
102.8333333333
 20
77.0
 30
0.0
 40
1.666666666666671
100
AcDbArc
 50
0.0
 51
90.0
  0
ARC
  5
E6
330
1F
100
AcDbEntity
  8
0
  6
HIDDEN
 62
     7
370
    18
100
AcDbCircle
 10
102.8333333333
 20
8.6666666667
 30
0.0
 40
1.666666666666671
100
AcDbArc
 50
270.0
 51
0.0
  0
ARC
  5
E7
330
1F
100
AcDbEntity
  8
0
  6
HIDDEN
 62
     7
370
    18
100
AcDbCircle
 10
89.1214222387
 20
56.7162810732
 30
0.0
 40
2.583333333333415
100
AcDbArc
 50
19.4465558043
 51
210.5534441957
  0
LINE
  5
E8
330
1F
100
AcDbEntity
  8
0
  6
HIDDEN
 62
     7
370
    18
100
AcDbLine
 10
92.2584516452
 20
33.1608878324
 30
0.0
 11
92.2584516452
 21
78.6666666667
 31
0.0
  0
LINE
  5
E9
330
1F
100
AcDbEntity
  8
0
  6
HIDDEN
 62
     7
370
    18
100
AcDbLine
 10
92.2584516452
 20
78.6666666667
 30
0.0
 11
94.5236892706
 21
78.6666666667
 31
0.0
  0
LINE
  5
EA
330
1F
100
AcDbEntity
  8
0
  6
HIDDEN
 62
     7
370
    18
100
AcDbLine
 10
100.6035401152
 20
34.0809051632
 30
0.0
 11
100.6035401152
 21
77.8952463597
 31
0.0
  0
LINE
  5
EB
330
1F
100
AcDbEntity
  8
0
  6
HIDDEN
 62
     7
370
    18
100
AcDbLine
 10
100.6035401152
 20
35.2652157825
 30
0.0
 11
92.2584516452
 21
35.2652157825
 31
0.0
  0
CIRCLE
  5
EC
330
1F
100
AcDbEntity
  8
0
  6
HIDDEN
 62
     7
370
    18
100
AcDbCircle
 10
83.0
 20
69.5
 30
0.0
 40
5.0
  0
LINE
  5
ED
330
1F
100
AcDbEntity
  8
0
  6
HIDDEN
 62
     7
370
    18
100
AcDbLine
 10
104.5
 20
77.285076074
 30
0.0
 11
104.5
 21
35.0210886726
 31
0.0
  0
ARC
  5
EE
330
1F
100
AcDbEntity
  8
0
  6
HIDDEN
 62
     7
370
    18
100
AcDbCircle
 10
89.1214222387
 20
56.7162810732
 30
0.0
 40
12.91666666666672
100
AcDbArc
 50
332.7401181258
 51
27.2598818742
  0
LINE
  5
EF
330
1F
100
AcDbEntity
  8
0
  6
HIDDEN
 62
     7
370
    18
100
AcDbLine
 10
104.6666666667
 20
38.8927205463
 30
0.0
 11
104.6666666667
 21
45.2759302438
 31
0.0
  0
LINE
  5
F0
330
1F
100
AcDbEntity
  8
0
  6
HIDDEN
 62
     7
370
    18
100
AcDbLine
 10
104.6666666667
 20
45.4763107294
 30
0.0
 11
104.6666666667
 21
50.1903559373
 31
0.0
  0
LINE
  5
F1
330
1F
100
AcDbEntity
  8
0
  6
HIDDEN
 62
     7
370
    18
100
AcDbLine
 10
104.6666666667
 20
67.8333333333
 30
0.0
 11
104.6666666667
 21
71.1666666667
 31
0.0
  0
LINE
  5
F2
330
1F
100
AcDbEntity
  8
0
  6
HIDDEN
 62
     7
370
    18
100
AcDbLine
 10
70.6818134069
 20
34.0809051632
 30
0.0
 11
95.3181865931
 21
34.0809051632
 31
0.0
  0
LINE
  5
F3
330
1F
100
AcDbEntity
  8
0
  6
HIDDEN
 62
     7
370
    18
100
AcDbLine
 10
61.5
 20
38.7754170085
 30
0.0
 11
61.5
 21
45.1278847861
 31
0.0
  0
LINE
  5
F4
330
1F
100
AcDbEntity
  8
0
  6
HIDDEN
 62
     7
370
    18
100
AcDbLine
 10
61.5
 20
45.642977396
 30
0.0
 11
61.5
 21
50.357022604
 31
0.0
  0
LINE
  5
F5
330
1F
100
AcDbEntity
  8
0
  6
HIDDEN
 62
     7
370
    18
100
AcDbLine
 10
61.5
 20
67.8333333333
 30
0.0
 11
61.5
 21
71.1666666667
 31
0.0
  0
LINE
  5
F6
330
1F
100
AcDbEntity
  8
0
  6
HIDDEN
 62
     7
370
    18
100
AcDbLine
 10
74.8096440627
 20
75.3333333333
 30
0.0
 11
91.1903559373
 21
75.3333333333
 31
0.0
  0
CIRCLE
  5
F7
330
1F
100
AcDbEntity
  8
0
  6
HIDDEN
 62
     7
370
    18
100
AcDbCircle
 10
83.0
 20
69.5
 30
0.0
 40
2.583333333333329
  0
ARC
  5
F8
330
1F
100
AcDbEntity
  8
0
  6
HIDDEN
 62
     7
370
    18
100
AcDbCircle
 10
69.6666666667
 20
57.0
 30
0.0
 40
5.000000000000002
100
AcDbArc
 50
212.5561813681
 51
251.8197033282
  0
ARC
  5
F9
330
1F
100
AcDbEntity
  8
0
  6
HIDDEN
 62
     7
370
    18
100
AcDbCircle
 10
69.6666666667
 20
57.0
 30
0.0
 40
4.999999999999996
100
AcDbArc
 50
18.1802966718
 51
57.4438186319
  0
CIRCLE
  5
FA
330
1F
100
AcDbEntity
  8
0
  6
HIDDEN
 62
     7
370
    18
100
AcDbCircle
 10
102.5700198406
 20
69.954390549
 30
0.0
 40
0.9166666666666572
  0
ARC
  5
FB
330
1F
100
AcDbEntity
  8
0
  6
HIDDEN
 62
     7
370
    18
100
AcDbCircle
 10
69.529065947
 20
43.271435008
 30
0.0
 40
5.000000000000002
100
AcDbArc
 50
186.1065470934
 51
299.5235852432
  0
CIRCLE
  5
FC
330
1F
100
AcDbEntity
  8
0
  6
HIDDEN
 62
     7
370
    18
100
AcDbCircle
 10
102.4403432377
 20
41.8932389812
 30
0.0
 40
0.9166666666666572
  0
LINE
  5
FD
330
1F
100
AcDbEntity
  8
0
  6
HIDDEN
 62
     7
370
    18
100
AcDbLine
 10
82.7311523844
 20
78.2458687939
 30
0.0
 11
81.3333333333
 21
78.2458687939
 31
0.0
  0
LINE
  5
FE
330
1F
100
AcDbEntity
  8
0
  6
HIDDEN
 62
     7
370
    18
100
AcDbLine
 10
76.6111538101
 20
78.2458687939
 30
0.0
 11
71.8971086022
 21
78.2458687939
 31
0.0
  0
ARC
  5
FF
330
1F
100
AcDbEntity
  8
0
  6
HIDDEN
 62
     7
370
    18
100
AcDbCircle
 10
83.0
 20
69.5
 30
0.0
 40
8.749999999999883
100
AcDbArc
 50
91.7607152465
 51
94.7389170983
  0
LINE
  5
100
330
1F
100
AcDbEntity
  8
0
  6
HIDDEN
 62
     7
370
    18
100
AcDbLine
 10
83.7228850754
 20
78.2200881399
 30
0.0
 11
82.2771149246
 21
78.2200881399
 31
0.0
  0
ARC
  5
101
330
1F
100
AcDbEntity
  8
0
  6
HIDDEN
 62
     7
370
    18
100
AcDbCircle
 10
83.0
 20
69.5
 30
0.0
 40
8.749999999999886
100
AcDbArc
 50
85.2610829017
 51
88.2392847535
  0
LINE
  5
102
330
1F
100
AcDbEntity
  8
0
  6
HIDDEN
 62
     7
370
    18
100
AcDbLine
 10
100.6035401152
 20
78.2458687939
 30
0.0
 11
89.3888461899
 21
78.2458687939
 31
0.0
  0
LINE
  5
103
330
1F
100
AcDbEntity
  8
0
  6
HIDDEN
 62
     7
370
    18
100
AcDbLine
 10
84.6666666667
 20
78.2458687939
 30
0.0
 11
83.2688476156
 21
78.2458687939
 31
0.0
  0
CIRCLE
  5
104
330
1F
100
AcDbEntity
  8
0
  6
HIDDEN
 62
     7
370
    18
100
AcDbCircle
 10
89.3327313696
 20
56.2631271797
 30
0.0
 40
2.583333333333343
  0
CIRCLE
  5
105
330
1F
100
AcDbEntity
  8
0
  6
HIDDEN
 62
     7
370
    18
100
AcDbCircle
 10
83.0
 20
69.5
 30
0.0
 40
5.416666666666671
  0
ARC
  5
106
330
1F
100
AcDbEntity
  8
0
  6
HIDDEN
 62
     7
370
    18
100
AcDbCircle
 10
89.3327313696
 20
56.2631271797
 30
0.0
 40
12.9166666666667
100
AcDbArc
 50
137.0161289753
 51
94.1182652832
  0
ARC
  5
107
330
1F
100
AcDbEntity
  8
0
  6
HIDDEN
 62
     7
370
    18
100
AcDbCircle
 10
69.6666666667
 20
57.0
 30
0.0
 40
2.666666666666662
100
AcDbArc
 50
0.0
 51
68.8303017851
  0
ARC
  5
108
330
1F
100
AcDbEntity
  8
0
  6
HIDDEN
 62
     7
370
    18
100
AcDbCircle
 10
69.6666666667
 20
57.0
 30
0.0
 40
2.666666666666678
100
AcDbArc
 50
201.1696982149
 51
282.776106152
  0
LWPOLYLINE
  5
109
330
1F
100
AcDbEntity
  8
0
  6
HIDDEN
 62
     7
370
    18
100
AcDbPolyline
 90
        3
 70
   128
 43
0.0
 10
72.2673110962
 20
56.4102884922
 10
72.27874651
 20
56.4632039464
 10
72.3333333333
 20
57.0
  0
ARC
  5
10A
330
1F
100
AcDbEntity
  8
0
  6
HIDDEN
 62
     7
370
    18
100
AcDbCircle
 10
83.0
 20
69.5
 30
0.0
 40
8.750000000000032
100
AcDbArc
 50
356.4277796863
 51
85.2610829017
  0
ARC
  5
10B
330
1F
100
AcDbEntity
  8
0
  6
HIDDEN
 62
     7
370
    18
100
AcDbCircle
 10
83.0
 20
69.5
 30
0.0
 40
8.750000000000066
100
AcDbArc
 50
94.7389170983
 51
234.7066145723
  0
ARC
  5
10C
330
1F
100
AcDbEntity
  8
0
  6
HIDDEN
 62
     7
370
    18
100
AcDbCircle
 10
83.0
 20
69.5
 30
0.0
 40
8.333333333333373
100
AcDbArc
 50
33.4630409672
 51
56.5369590328
  0
ARC
  5
10D
330
1F
100
AcDbEntity
  8
0
  6
HIDDEN
 62
     7
370
    18
100
AcDbCircle
 10
83.0
 20
69.5
 30
0.0
 40
8.333333333333295
100
AcDbArc
 50
78.4630409672
 51
101.5369590328
  0
ARC
  5
10E
330
1F
100
AcDbEntity
  8
0
  6
HIDDEN
 62
     7
370
    18
100
AcDbCircle
 10
83.0
 20
69.5
 30
0.0
 40
8.333333333333298
100
AcDbArc
 50
123.4630409672
 51
146.5369590328
  0
ARC
  5
10F
330
1F
100
AcDbEntity
  8
0
  6
HIDDEN
 62
     7
370
    18
100
AcDbCircle
 10
83.0
 20
69.5
 30
0.0
 40
8.333333333333407
100
AcDbArc
 50
168.4630409672
 51
191.5369590328
  0
ARC
  5
110
330
1F
100
AcDbEntity
  8
0
  6
HIDDEN
 62
     7
370
    18
100
AcDbCircle
 10
83.0
 20
69.5
 30
0.0
 40
8.333333333333329
100
AcDbArc
 50
213.4630409672
 51
236.5369590328
  0
ARC
  5
111
330
1F
100
AcDbEntity
  8
0
  6
HIDDEN
 62
     7
370
    18
100
AcDbCircle
 10
83.0
 20
69.5
 30
0.0
 40
8.3333333333334
100
AcDbArc
 50
258.4630409672
 51
281.5369590328
  0
ARC
  5
112
330
1F
100
AcDbEntity
  8
0
  6
HIDDEN
 62
     7
370
    18
100
AcDbCircle
 10
83.0
 20
69.5
 30
0.0
 40
8.333333333333332
100
AcDbArc
 50
303.4630409672
 51
326.5369590328
  0
ARC
  5
113
330
1F
100
AcDbEntity
  8
0
  6
HIDDEN
 62
     7
370
    18
100
AcDbCircle
 10
83.0
 20
69.5
 30
0.0
 40
8.333333333333393
100
AcDbArc
 50
348.4630409672
 51
11.5369590328
  0
INSERT
  5
11F
330
1F
100
AcDbEntity
  8
10
100
AcDbBlockReference
  2
SW_CENTERMARKSYMBOL_0
 10
83.0
 20
69.5
 30
0.0
  0
INSERT
  5
12B
330
1F
100
AcDbEntity
  8
10
100
AcDbBlockReference
  2
SW_CENTERMARKSYMBOL_1
 10
89.3327313696
 20
56.2631271797
 30
0.0
  0
INSERT
  5
137
330
1F
100
AcDbEntity
  8
10
100
AcDbBlockReference
  2
SW_CENTERMARKSYMBOL_2
 10
69.6666666667
 20
57.0
 30
0.0
  0
INSERT
  5
143
330
1F
100
AcDbEntity
  8
10
100
AcDbBlockReference
  2
SW_CENTERMARKSYMBOL_3
 10
69.529065947
 20
43.271435008
 30
0.0
  0
INSERT
  5
14F
330
1F
100
AcDbEntity
  8
10
100
AcDbBlockReference
  2
SW_CENTERMARKSYMBOL_4
 10
102.5700198406
 20
69.954390549
 30
0.0
  0
INSERT
  5
15B
330
1F
100
AcDbEntity
  8
10
100
AcDbBlockReference
  2
SW_CENTERMARKSYMBOL_5
 10
102.4403432377
 20
41.8932389812
 30
0.0
  0
INSERT
  5
167
330
1F
100
AcDbEntity
  8
10
100
AcDbBlockReference
  2
SW_CENTERMARKSYMBOL_6
 10
97.3725032685
 20
32.1018742664
 30
0.0
  0
LINE
  5
168
330
1F
100
AcDbEntity
  8
0
  6
Continuous
 62
     7
370
    25
100
AcDbLine
 10
81.3333333333
 20
171.7296089285
 30
0.0
 11
81.3333333333
 21
171.3962755952
 31
0.0
  0
LINE
  5
169
330
1F
100
AcDbEntity
  8
0
  6
Continuous
 62
     7
370
    25
100
AcDbLine
 10
81.3333333333
 20
153.1486958036
 30
0.0
 11
81.3333333333
 21
146.3153624703
 31
0.0
  0
LINE
  5
16A
330
1F
100
AcDbEntity
  8
0
  6
Continuous
 62
     7
370
    25
100
AcDbLine
 10
84.6666666667
 20
146.3153624703
 30
0.0
 11
84.6666666667
 21
153.1486958036
 31
0.0
  0
LINE
  5
16B
330
1F
100
AcDbEntity
  8
0
  6
Continuous
 62
     7
370
    25
100
AcDbLine
 10
84.6666666667
 20
171.3962755952
 30
0.0
 11
84.6666666667
 21
171.7296089285
 31
0.0
  0
LINE
  5
16C
330
1F
100
AcDbEntity
  8
0
  6
Continuous
 62
     7
370
    25
100
AcDbLine
 10
84.7493980362
 20
171.7296089285
 30
0.0
 11
84.7493980362
 21
171.3962755952
 31
0.0
  0
LINE
  5
16D
330
1F
100
AcDbEntity
  8
0
  6
Continuous
 62
     7
370
    25
100
AcDbLine
 10
77.437770178
 20
166.9832392412
 30
0.0
 11
77.437770178
 21
171.7296089285
 31
0.0
  0
LINE
  5
16E
330
1F
100
AcDbEntity
  8
0
  6
Continuous
 62
     7
370
    25
100
AcDbLine
 10
91.3333333333
 20
168.0629422618
 30
0.0
 11
91.3333333333
 21
171.3962755952
 31
0.0
  0
LINE
  5
16F
330
1F
100
AcDbEntity
  8
0
  6
Continuous
 62
     7
370
    25
100
AcDbLine
 10
88.0
 20
166.9832392412
 30
0.0
 11
88.0
 21
168.0629422618
 31
0.0
  0
LINE
  5
170
330
1F
100
AcDbEntity
  8
0
  6
Continuous
 62
     7
370
    25
100
AcDbLine
 10
78.0
 20
168.0629422618
 30
0.0
 11
78.0
 21
166.9832392412
 31
0.0
  0
ARC
  5
171
330
1F
100
AcDbEntity
  8
0
  6
Continuous
 62
     7
370
    25
100
AcDbCircle
 10
47.8333333333
 20
142.3153624703
 30
0.0
 40
2.333333333333343
100
AcDbArc
 50
90.0
 51
180.0
  0
ARC
  5
172
330
1F
100
AcDbEntity
  8
0
  6
Continuous
 62
     7
370
    25
100
AcDbCircle
 10
118.1666666667
 20
142.3153624703
 30
0.0
 40
2.333333333333343
100
AcDbArc
 50
0.0
 51
90.0
  0
ARC
  5
173
330
1F
100
AcDbEntity
  8
0
  6
Continuous
 62
     7
370
    25
100
AcDbCircle
 10
47.8333333333
 20
141.982029137
 30
0.0
 40
2.333333333333329
100
AcDbArc
 50
180.0
 51
270.0
  0
ARC
  5
174
330
1F
100
AcDbEntity
  8
0
  6
Continuous
 62
     7
370
    25
100
AcDbCircle
 10
118.1666666667
 20
141.982029137
 30
0.0
 40
2.333333333333329
100
AcDbArc
 50
270.0
 51
0.0
  0
LINE
  5
175
330
1F
100
AcDbEntity
  8
0
  6
Continuous
 62
     7
370
    25
100
AcDbLine
 10
120.5
 20
141.982029137
 30
0.0
 11
120.5
 21
142.3153624703
 31
0.0
  0
LINE
  5
176
330
1F
100
AcDbEntity
  8
0
  6
Continuous
 62
     7
370
    25
100
AcDbLine
 10
45.5
 20
142.3153624703
 30
0.0
 11
45.5
 21
141.982029137
 31
0.0
  0
LINE
  5
177
330
1F
100
AcDbEntity
  8
0
  6
Continuous
 62
     7
370
    25
100
AcDbLine
 10
91.3333333333
 20
144.6486958036
 30
0.0
 11
91.3333333333
 21
146.3153624703
 31
0.0
  0
LINE
  5
178
330
1F
100
AcDbEntity
  8
0
  6
Continuous
 62
     7
370
    25
100
AcDbLine
 10
74.6666666667
 20
146.3153624703
 30
0.0
 11
74.6666666667
 21
144.6486958036
 31
0.0
  0
LINE
  5
179
330
1F
100
AcDbEntity
  8
0
  6
Continuous
 62
     7
370
    25
100
AcDbLine
 10
92.2584516452
 20
166.9844493454
 30
0.0
 11
88.0
 21
166.9844493454
 31
0.0
  0
LINE
  5
17A
330
1F
100
AcDbEntity
  8
0
  6
Continuous
 62
     7
370
    25
100
AcDbLine
 10
78.0
 20
166.9844493454
 30
0.0
 11
77.9445702442
 21
166.9844493454
 31
0.0
  0
LINE
  5
17B
330
1F
100
AcDbEntity
  8
0
  6
Continuous
 62
     7
370
    25
100
AcDbLine
 10
104.5
 20
174.3177826787
 30
0.0
 11
104.5
 21
176.4832392412
 31
0.0
  0
LINE
  5
17C
330
1F
100
AcDbEntity
  8
0
  6
Continuous
 62
     7
370
    25
100
AcDbLine
 10
104.5
 20
176.4832392412
 30
0.0
 11
102.8333333333
 21
176.4832392412
 31
0.0
  0
LINE
  5
17D
330
1F
100
AcDbEntity
  8
0
  6
Continuous
 62
     7
370
    25
100
AcDbLine
 10
61.5
 20
176.4832392412
 30
0.0
 11
61.5
 21
166.9832392412
 31
0.0
  0
ELLIPSE
  5
17E
330
1F
100
AcDbEntity
  8
0
  6
Continuous
 62
     7
370
    25
100
AcDbEllipse
 10
63.1666666667
 20
161.0653624703
 30
0.0
 11
1.421085471520200E-14
 21
7.916666666655175
 31
0.0
210
0.0
220
0.0
230
1.0
 40
0.2105263158
 41
0.0000000000000085
 42
0.7264738061454036
  0
LINE
  5
17F
330
1F
100
AcDbEntity
  8
0
  6
Continuous
 62
     7
370
    25
100
AcDbLine
 10
61.5
 20
166.9832392412
 30
0.0
 11
62.0596035581
 21
166.9832392412
 31
0.0
  0
LINE
  5
180
330
1F
100
AcDbEntity
  8
0
  6
Continuous
 62
     7
370
    25
100
AcDbLine
 10
63.1666666667
 20
176.4832392412
 30
0.0
 11
61.5
 21
176.4832392412
 31
0.0
  0
LINE
  5
181
330
1F
100
AcDbEntity
  8
0
  6
Continuous
 62
     7
370
    25
100
AcDbLine
 10
75.7711035113
 20
168.982029137
 30
0.0
 11
63.1666666667
 21
168.982029137
 31
0.0
  0
LINE
  5
182
330
1F
100
AcDbEntity
  8
0
  6
Continuous
 62
     7
370
    25
100
AcDbLine
 10
92.2584516452
 20
174.3177826787
 30
0.0
 11
102.8333333333
 21
174.3177826787
 31
0.0
  0
LINE
  5
183
330
1F
100
AcDbEntity
  8
0
  6
Continuous
 62
     7
370
    25
100
AcDbLine
 10
92.2584516452
 20
171.7296089285
 30
0.0
 11
92.2584516452
 21
174.3177826787
 31
0.0
  0
LINE
  5
184
330
1F
100
AcDbEntity
  8
0
  6
Continuous
 62
     7
370
    25
100
AcDbLine
 10
75.7711035113
 20
171.7296089285
 30
0.0
 11
92.2584516452
 21
171.7296089285
 31
0.0
  0
LINE
  5
185
330
1F
100
AcDbEntity
  8
0
  6
Continuous
 62
     7
370
    25
100
AcDbLine
 10
102.8333333333
 20
176.4832392412
 30
0.0
 11
63.1666666667
 21
176.4832392412
 31
0.0
  0
ELLIPSE
  5
186
330
1F
100
AcDbEntity
  8
0
  6
Continuous
 62
     7
370
    25
100
AcDbEllipse
 10
75.7711035113
 20
161.0653624703
 30
0.0
 11
0.0
 21
7.916666666655118
 31
0.0
210
0.0
220
0.0
230
1.0
 40
0.2105263158
 41
5.556711501036078
 42
6.283185307179586
  0
LINE
  5
187
330
1F
100
AcDbEntity
  8
0
  6
Continuous
 62
     7
370
    25
100
AcDbLine
 10
76.8781666198
 20
166.9832392412
 30
0.0
 11
62.0596035581
 21
166.9832392412
 31
0.0
  0
LINE
  5
188
330
1F
100
AcDbEntity
  8
0
  6
Continuous
 62
     7
370
    25
100
AcDbLine
 10
77.9445702442
 20
168.0629422618
 30
0.0
 11
77.9445702442
 21
166.9832392412
 31
0.0
  0
LINE
  5
189
330
1F
100
AcDbEntity
  8
0
  6
Continuous
 62
     7
370
    25
100
AcDbLine
 10
92.2584516452
 20
165.3177826787
 30
0.0
 11
100.6035401152
 21
165.3177826787
 31
0.0
  0
LINE
  5
18A
330
1F
100
AcDbEntity
  8
0
  6
Continuous
 62
     7
370
    25
100
AcDbLine
 10
100.6035401152
 20
174.3177826787
 30
0.0
 11
92.2584516452
 21
174.3177826787
 31
0.0
  0
LINE
  5
18B
330
1F
100
AcDbEntity
  8
0
  6
Continuous
 62
     7
370
    25
100
AcDbLine
 10
92.2584516452
 20
174.3177826787
 30
0.0
 11
92.2584516452
 21
165.3177826787
 31
0.0
  0
LINE
  5
18C
330
1F
100
AcDbEntity
  8
0
  6
Continuous
 62
     7
370
    25
100
AcDbLine
 10
100.6035401152
 20
165.3177826787
 30
0.0
 11
100.6035401152
 21
174.3177826787
 31
0.0
  0
LINE
  5
18D
330
1F
100
AcDbEntity
  8
0
  6
Continuous
 62
     7
370
    25
100
AcDbLine
 10
91.3333333333
 20
171.3962755952
 30
0.0
 11
77.437770178
 21
171.3962755952
 31
0.0
  0
LINE
  5
18E
330
1F
100
AcDbEntity
  8
0
  6
Continuous
 62
     7
370
    25
100
AcDbLine
 10
77.437770178
 20
168.0629422618
 30
0.0
 11
91.3333333333
 21
168.0629422618
 31
0.0
  0
LINE
  5
18F
330
1F
100
AcDbEntity
  8
0
  6
Continuous
 62
     7
370
    25
100
AcDbLine
 10
104.5
 20
168.982029137
 30
0.0
 11
100.6035401152
 21
168.982029137
 31
0.0
  0
LINE
  5
190
330
1F
100
AcDbEntity
  8
0
  6
Continuous
 62
     7
370
    25
100
AcDbLine
 10
100.6035401152
 20
174.3177826787
 30
0.0
 11
100.6035401152
 21
168.982029137
 31
0.0
  0
LINE
  5
191
330
1F
100
AcDbEntity
  8
0
  6
Continuous
 62
     7
370
    25
100
AcDbLine
 10
104.5
 20
174.3177826787
 30
0.0
 11
100.6035401152
 21
174.3177826787
 31
0.0
  0
LINE
  5
192
330
1F
100
AcDbEntity
  8
0
  6
Continuous
 62
     7
370
    25
100
AcDbLine
 10
104.5
 20
168.982029137
 30
0.0
 11
104.5
 21
174.3177826787
 31
0.0
  0
LINE
  5
193
330
1F
100
AcDbEntity
  8
0
  6
Continuous
 62
     7
370
    25
100
AcDbLine
 10
100.6035401152
 20
166.9832392412
 30
0.0
 11
104.5
 21
166.9832392412
 31
0.0
  0
LINE
  5
194
330
1F
100
AcDbEntity
  8
0
  6
Continuous
 62
     7
370
    25
100
AcDbLine
 10
104.5
 20
166.9832392412
 30
0.0
 11
104.5
 21
168.982029137
 31
0.0
  0
LINE
  5
195
330
1F
100
AcDbEntity
  8
0
  6
Continuous
 62
     7
370
    25
100
AcDbLine
 10
104.6666666667
 20
153.1486958036
 30
0.0
 11
104.6666666667
 21
166.9832392412
 31
0.0
  0
LINE
  5
196
330
1F
100
AcDbEntity
  8
0
  6
Continuous
 62
     7
370
    25
100
AcDbLine
 10
103.0
 20
153.1486958036
 30
0.0
 11
104.6666666667
 21
153.1486958036
 31
0.0
  0
LINE
  5
197
330
1F
100
AcDbEntity
  8
0
  6
Continuous
 62
     7
370
    25
100
AcDbLine
 10
104.6666666667
 20
166.9832392412
 30
0.0
 11
104.5
 21
166.9832392412
 31
0.0
  0
LINE
  5
198
330
1F
100
AcDbEntity
  8
0
  6
Continuous
 62
     7
370
    25
100
AcDbLine
 10
63.1666666667
 20
153.1486958036
 30
0.0
 11
103.0
 21
153.1486958036
 31
0.0
  0
ELLIPSE
  5
199
330
1F
100
AcDbEntity
  8
0
  6
Continuous
 62
     7
370
    25
100
AcDbEllipse
 10
83.0
 20
125.4403624704
 30
0.0
 11
-1.421085471520200E-14
 21
41.56249999988891
 31
0.0
210
0.0
220
0.0
230
1.0
 40
0.2105263158
 41
0.030730278241074
 42
0.0827097063445391
  0
LINE
  5
19A
330
1F
100
AcDbEntity
  8
0
  6
Continuous
 62
     7
370
    25
100
AcDbLine
 10
83.7228850754
 20
166.8607811349
 30
0.0
 11
82.2771149246
 21
166.8607811349
 31
0.0
  0
ELLIPSE
  5
19B
330
1F
100
AcDbEntity
  8
0
  6
Continuous
 62
     7
370
    25
100
AcDbEllipse
 10
83.0
 20
125.4403624704
 30
0.0
 11
-1.421085471520200E-14
 21
41.56249999988891
 31
0.0
210
0.0
220
0.0
230
1.0
 40
0.2105263158
 41
6.200475600835149
 42
6.252455028938616
  0
LINE
  5
19C
330
1F
100
AcDbEntity
  8
0
  6
Continuous
 62
     7
370
    25
100
AcDbLine
 10
82.7311523844
 20
166.9832392412
 30
0.0
 11
63.1666666667
 21
166.9832392412
 31
0.0
  0
LINE
  5
19D
330
1F
100
AcDbEntity
  8
0
  6
Continuous
 62
     7
370
    25
100
AcDbLine
 10
103.0
 20
166.9832392412
 30
0.0
 11
100.6035401152
 21
166.9832392412
 31
0.0
  0
LINE
  5
19E
330
1F
100
AcDbEntity
  8
0
  6
Continuous
 62
     7
370
    25
100
AcDbLine
 10
92.2584516452
 20
166.9832392412
 30
0.0
 11
83.2688476156
 21
166.9832392412
 31
0.0
  0
LINE
  5
19F
330
1F
100
AcDbEntity
  8
0
  6
Continuous
 62
     7
370
    25
100
AcDbLine
 10
61.5
 20
166.9832392412
 30
0.0
 11
61.5
 21
153.1486958036
 31
0.0
  0
LINE
  5
1A0
330
1F
100
AcDbEntity
  8
0
  6
Continuous
 62
     7
370
    25
100
AcDbLine
 10
61.5
 20
153.1486958036
 30
0.0
 11
63.1666666667
 21
153.1486958036
 31
0.0
  0
LINE
  5
1A1
330
1F
100
AcDbEntity
  8
0
  6
Continuous
 62
     7
370
    25
100
AcDbLine
 10
118.1666666654
 20
144.6486958036
 30
0.0
 11
47.8333333333
 21
144.6486958036
 31
0.0
  0
LINE
  5
1A2
330
1F
100
AcDbEntity
  8
0
  6
Continuous
 62
     7
370
    25
100
AcDbLine
 10
47.8333333333
 20
139.6486958036
 30
0.0
 11
118.1666666667
 21
139.6486958036
 31
0.0
  0
LINE
  5
1A3
330
1F
100
AcDbEntity
  8
0
  6
Continuous
 62
     7
370
    25
100
AcDbLine
 10
91.3333333333
 20
146.3153624703
 30
0.0
 11
74.6666666667
 21
146.3153624703
 31
0.0
  0
LINE
  5
1A4
330
1F
100
AcDbEntity
  8
0
  6
HIDDEN
 62
     7
370
    18
100
AcDbLine
 10
81.3333333333
 20
142.1486958036
 30
0.0
 11
84.6666666667
 21
142.1486958036
 31
0.0
  0
LINE
  5
1A5
330
1F
100
AcDbEntity
  8
0
  6
HIDDEN
 62
     7
370
    18
100
AcDbLine
 10
84.6666666667
 20
174.3177826787
 30
0.0
 11
81.3333333333
 21
174.3177826787
 31
0.0
  0
LINE
  5
1A6
330
1F
100
AcDbEntity
  8
0
  6
HIDDEN
 62
     7
370
    18
100
AcDbLine
 10
101.4160647029
 20
166.9844493454
 30
0.0
 11
92.2584516452
 21
166.9844493454
 31
0.0
  0
LINE
  5
1A7
330
1F
100
AcDbEntity
  8
0
  6
HIDDEN
 62
     7
370
    18
100
AcDbLine
 10
88.0
 20
166.9844493454
 30
0.0
 11
78.0
 21
166.9844493454
 31
0.0
  0
LINE
  5
1A8
330
1F
100
AcDbEntity
  8
0
  6
HIDDEN
 62
     7
370
    18
100
AcDbLine
 10
77.9445702442
 20
166.9844493454
 30
0.0
 11
77.2493980362
 21
166.9844493454
 31
0.0
  0
LINE
  5
1A9
330
1F
100
AcDbEntity
  8
0
  6
HIDDEN
 62
     7
370
    18
100
AcDbLine
 10
77.2493980362
 20
163.6511160121
 30
0.0
 11
101.4160647029
 21
163.6511160121
 31
0.0
  0
LINE
  5
1AA
330
1F
100
AcDbEntity
  8
0
  6
HIDDEN
 62
     7
370
    18
100
AcDbLine
 10
93.9160647029
 20
173.6511160121
 30
0.0
 11
84.7493980362
 21
173.6511160121
 31
0.0
  0
LINE
  5
1AB
330
1F
100
AcDbEntity
  8
0
  6
HIDDEN
 62
     7
370
    18
100
AcDbLine
 10
82.3694943504
 20
168.3177826787
 30
0.0
 11
77.9445702442
 21
168.3177826787
 31
0.0
  0
LINE
  5
1AC
330
1F
100
AcDbEntity
  8
0
  6
HIDDEN
 62
     7
370
    18
100
AcDbLine
 10
77.9445702442
 20
168.3177826787
 30
0.0
 11
77.9445702442
 21
168.0629422618
 31
0.0
  0
LINE
  5
1AD
330
1F
100
AcDbEntity
  8
0
  6
HIDDEN
 62
     7
370
    18
100
AcDbLine
 10
75.7711035113
 20
171.7296089285
 30
0.0
 11
74.25
 21
171.7296089285
 31
0.0
  0
LINE
  5
1AE
330
1F
100
AcDbEntity
  8
0
  6
HIDDEN
 62
     7
370
    18
100
AcDbLine
 10
77.9445702442
 20
168.3177826787
 30
0.0
 11
76.4160647029
 21
168.3177826787
 31
0.0
  0
LINE
  5
1AF
330
1F
100
AcDbEntity
  8
0
  6
HIDDEN
 62
     7
370
    18
100
AcDbLine
 10
83.2688476156
 20
166.9832392412
 30
0.0
 11
82.7311523844
 21
166.9832392412
 31
0.0
  0
LINE
  5
1B0
330
1F
100
AcDbEntity
  8
0
  6
HIDDEN
 62
     7
370
    18
100
AcDbLine
 10
83.9160647029
 20
168.3177826787
 30
0.0
 11
90.2955370706
 21
168.3177826787
 31
0.0
  0
LINE
  5
1B1
330
1F
100
AcDbEntity
  8
0
  6
HIDDEN
 62
     7
370
    18
100
AcDbLine
 10
92.2584516452
 20
174.3177826787
 30
0.0
 11
84.6666666667
 21
174.3177826787
 31
0.0
  0
LINE
  5
1B2
330
1F
100
AcDbEntity
  8
0
  6
HIDDEN
 62
     7
370
    18
100
AcDbLine
 10
83.9160647029
 20
168.3177826787
 30
0.0
 11
83.9160647029
 21
171.7296089285
 31
0.0
  0
LINE
  5
1B3
330
1F
100
AcDbEntity
  8
0
  6
HIDDEN
 62
     7
370
    18
100
AcDbLine
 10
82.3694943504
 20
168.3177826787
 30
0.0
 11
83.9160647029
 21
168.3177826787
 31
0.0
  0
SPLINE
  5
1B4
330
1F
100
AcDbEntity
  8
0
  6
HIDDEN
 62
     7
370
    18
100
AcDbSpline
210
0.0
220
0.0
230
1.0
 70
    24
 71
     3
 72
    30
 73
    26
 74
     0
 42
0.00000001
 43
0.00000001
 40
0.0
 40
0.0
 40
0.0
 40
0.0
 40
0.018006015301311
 40
0.0358747091925903
 40
0.053662305952531
 40
0.0714257999324062
 40
0.0892224170552384
 40
0.1071090653277658
 40
0.1251418004114501
 40
0.1875657385935807
 40
0.2500997203513814
 40
0.3125236585334024
 40
0.3750576402913155
 40
0.4374815784732969
 40
0.5000155602312503
 40
0.5624394984133947
 40
0.6249734801711925
 40
0.6873974183533713
 40
0.7499314001111225
 40
0.8123553382931934
 40
0.8748893200510578
 40
0.9062995740932074
 40
0.9374172718042022
 40
0.9685487644021878
 40
1.0
 40
1.0
 40
1.0
 40
1.0
 10
72.33333333333333
 20
166.9844493454149
 30
0.0
 10
72.33254349450701
 20
166.9844493454149
 30
0.0
 10
72.33096984049588
 20
166.9844493454149
 30
0.0
 10
72.31808772565445
 20
166.9844493454149
 30
0.0
 10
72.29747656408023
 20
166.9844493454149
 30
0.0
 10
72.26839682407844
 20
166.9844493454149
 30
0.0
 10
72.23105157219698
 20
166.9844493454149
 30
0.0
 10
72.18536982947515
 20
166.9844493454149
 30
0.0
 10
72.08744050058166
 20
166.9844493454149
 30
0.0
 10
71.89907980794206
 20
166.9844493454149
 30
0.0
 10
71.56432453947211
 20
166.9844493454149
 30
0.0
 10
71.15841765838456
 20
166.9844493454149
 30
0.0
 10
70.6938317194091
 20
166.9844493454149
 30
0.0
 10
70.19061088547524
 20
166.9844493454149
 30
0.0
 10
69.66697280057122
 20
166.9844493454149
 30
0.0
 10
69.14303548242249
 20
166.9844493454149
 30
0.0
 10
68.64006828207627
 20
166.9844493454149
 30
0.0
 10
68.17517702450105
 20
166.9844493454149
 30
0.0
 10
67.76945768264689
 20
166.9844493454149
 30
0.0
 10
67.43437103340764
 20
166.9844493454149
 30
0.0
 10
67.22855140754304
 20
166.9844493454149
 30
0.0
 10
67.1102163159059
 20
166.9844493454149
 30
0.0
 10
67.04676979193403
 20
166.9844493454149
 30
0.0
 10
67.00719642929295
 20
166.9844493454149
 30
0.0
 10
67.00240696641963
 20
166.9844493454149
 30
0.0
 10
67.0
 20
166.9844493454149
 30
0.0
  0
LINE
  5
1B5
330
1F
100
AcDbEntity
  8
0
  6
HIDDEN
 62
     7
370
    18
100
AcDbLine
 10
91.5573827303
 20
176.4832392412
 30
0.0
 11
91.5573827303
 21
176.3279319093
 31
0.0
  0
LINE
  5
1B6
330
1F
100
AcDbEntity
  8
0
  6
HIDDEN
 62
     7
370
    18
100
AcDbLine
 10
86.8967708779
 20
176.3279319093
 30
0.0
 11
86.8967708779
 21
176.4832392412
 31
0.0
  0
LINE
  5
1B7
330
1F
100
AcDbEntity
  8
0
  6
HIDDEN
 62
     7
370
    18
100
AcDbLine
 10
86.5380889054
 20
176.3279319093
 30
0.0
 11
91.5573827303
 21
176.3279319093
 31
0.0
  0
LINE
  5
1B8
330
1F
100
AcDbEntity
  8
0
  6
HIDDEN
 62
     7
370
    18
100
AcDbLine
 10
90.2955370706
 20
168.3177826787
 30
0.0
 11
92.2584516452
 21
168.3177826787
 31
0.0
  0
LINE
  5
1B9
330
1F
100
AcDbEntity
  8
0
  6
HIDDEN
 62
     7
370
    18
100
AcDbLine
 10
103.3570099044
 20
176.3279319093
 30
0.0
 11
101.5236765711
 21
176.3279319093
 31
0.0
  0
LINE
  5
1BA
330
1F
100
AcDbEntity
  8
0
  6
HIDDEN
 62
     7
370
    18
100
AcDbLine
 10
100.6035401152
 20
169.8177826787
 30
0.0
 11
92.2584516452
 21
169.8177826787
 31
0.0
  0
LINE
  5
1BB
330
1F
100
AcDbEntity
  8
0
  6
HIDDEN
 62
     7
370
    18
100
AcDbLine
 10
77.437770178
 20
171.3962755952
 30
0.0
 11
74.6666666667
 21
171.3962755952
 31
0.0
  0
LINE
  5
1BC
330
1F
100
AcDbEntity
  8
0
  6
HIDDEN
 62
     7
370
    18
100
AcDbLine
 10
74.6666666667
 20
168.0629422618
 30
0.0
 11
77.437770178
 21
168.0629422618
 31
0.0
  0
LINE
  5
1BD
330
1F
100
AcDbEntity
  8
0
  6
HIDDEN
 62
     7
370
    18
100
AcDbLine
 10
78.0
 20
161.3962755952
 30
0.0
 11
88.0
 21
161.3962755952
 31
0.0
  0
LINE
  5
1BE
330
1F
100
AcDbEntity
  8
0
  6
HIDDEN
 62
     7
370
    18
100
AcDbLine
 10
102.0380889054
 20
168.3177826787
 30
0.0
 11
100.6035401152
 21
168.3177826787
 31
0.0
  0
LINE
  5
1BF
330
1F
100
AcDbEntity
  8
0
  6
HIDDEN
 62
     7
370
    18
100
AcDbLine
 10
100.6035401152
 20
166.9832392412
 30
0.0
 11
92.2584516452
 21
166.9832392412
 31
0.0
  0
LINE
  5
1C0
330
1F
100
AcDbEntity
  8
0
  6
HIDDEN
 62
     7
370
    18
100
AcDbLine
 10
83.7228850754
 20
166.8607811349
 30
0.0
 11
91.75
 21
166.8607811349
 31
0.0
  0
LINE
  5
1C1
330
1F
100
AcDbEntity
  8
0
  6
HIDDEN
 62
     7
370
    18
100
AcDbLine
 10
91.7329992305
 20
166.9832392412
 30
0.0
 11
91.7329992305
 21
166.8607811349
 31
0.0
  0
LINE
  5
1C2
330
1F
100
AcDbEntity
  8
0
  6
HIDDEN
 62
     7
370
    18
100
AcDbLine
 10
77.9445702442
 20
166.8607811349
 30
0.0
 11
77.9445702442
 21
166.9832392412
 31
0.0
  0
LINE
  5
1C3
330
1F
100
AcDbEntity
  8
0
  6
HIDDEN
 62
     7
370
    18
100
AcDbLine
 10
74.25
 20
166.8607811349
 30
0.0
 11
82.2771149246
 21
166.8607811349
 31
0.0
  0
LINE
  5
1C4
330
1F
100
AcDbEntity
  8
0
  6
HIDDEN
 62
     7
370
    18
100
AcDbLine
 10
77.5833333333
 20
161.0794786421
 30
0.0
 11
88.4166666667
 21
161.0794786421
 31
0.0
  0
LINE
  5
1C5
330
1F
100
AcDbEntity
  8
0
  6
HIDDEN
 62
     7
370
    18
100
AcDbLine
 10
79.8835999574
 20
166.8607811349
 30
0.0
 11
79.8835999574
 21
163.3177826787
 31
0.0
  0
LINE
  5
1C6
330
1F
100
AcDbEntity
  8
0
  6
HIDDEN
 62
     7
370
    18
100
AcDbLine
 10
79.8835999574
 20
163.3177826787
 30
0.0
 11
88.4051156031
 21
163.3177826787
 31
0.0
  0
LINE
  5
1C7
330
1F
100
AcDbEntity
  8
0
  6
HIDDEN
 62
     7
370
    18
100
AcDbLine
 10
88.4051156031
 20
163.3177826787
 30
0.0
 11
88.4051156031
 21
166.8607811349
 31
0.0
  0
LINE
  5
1C8
330
1F
100
AcDbEntity
  8
0
  6
HIDDEN
 62
     7
370
    18
100
AcDbLine
 10
88.4051156031
 20
163.3177826787
 30
0.0
 11
102.2493980362
 21
163.3177826787
 31
0.0
  0
LINE
  5
1C9
330
1F
100
AcDbEntity
  8
0
  6
HIDDEN
 62
     7
370
    18
100
AcDbLine
 10
76.4160647029
 20
163.3177826787
 30
0.0
 11
79.8835999574
 21
163.3177826787
 31
0.0
  0
LINE
  5
1CA
330
1F
100
AcDbEntity
  8
0
  6
HIDDEN
 62
     7
370
    18
100
AcDbLine
 10
82.7311523844
 20
166.9832392412
 30
0.0
 11
83.2688476156
 21
166.9832392412
 31
0.0
  0
LINE
  5
1CB
330
1F
100
AcDbEntity
  8
0
  6
HIDDEN
 62
     7
370
    18
100
AcDbLine
 10
74.6666666667
 20
163.6511160121
 30
0.0
 11
64.6666666667
 21
163.6511160121
 31
0.0
  0
LINE
  5
1CC
330
1F
100
AcDbEntity
  8
0
  6
HIDDEN
 62
     7
370
    18
100
AcDbLine
 10
86.7493980362
 20
155.1745079388
 30
0.0
 11
91.9160647029
 21
155.1745079388
 31
0.0
  0
LINE
  5
1CD
330
1F
100
AcDbEntity
  8
0
  6
HIDDEN
 62
     7
370
    18
100
AcDbLine
 10
64.6666666667
 20
163.6511160121
 30
0.0
 11
64.529065947
 21
163.6511160121
 31
0.0
  0
SPLINE
  5
1CE
330
1F
100
AcDbEntity
  8
0
  6
HIDDEN
 62
     7
370
    18
100
AcDbSpline
210
0.0
220
0.0
230
1.0
 70
     8
 71
     3
 72
    20
 73
    16
 74
     0
 42
0.00000001
 43
0.00000001
 40
0.0
 40
0.0
 40
0.0
 40
0.0
 40
0.1249999999999995
 40
0.1249999999999995
 40
0.2499999999999989
 40
0.2499999999999989
 40
0.3749999999999984
 40
0.3749999999999984
 40
0.4999999999999979
 40
0.4999999999999979
 40
0.6249999999999973
 40
0.6249999999999973
 40
0.7499999999999969
 40
0.7499999999999969
 40
1.0
 40
1.0
 40
1.0
 40
1.0
 10
61.2277790454436
 20
142.3153624702962
 30
0.0
 10
61.2277790454436
 20
142.4695206117765
 30
0.0
 10
61.21706842822541
 20
142.6210984227734
 30
0.0
 10
61.17510546291111
 20
142.9193052679335
 30
0.0
 10
61.14334240083816
 20
143.0674812301598
 30
0.0
 10
61.06043732376942
 20
143.350001343196
 30
0.0
 10
61.00970811576962
 20
143.4839910784907
 30
0.0
 10
60.88986923086111
 20
143.7375653885099
 30
0.0
 10
60.82013320840456
 20
143.8575997754999
 30
0.0
 10
60.66782596823519
 20
144.0727498678957
 30
0.0
 10
60.5847272193143
 20
144.1692989809426
 30
0.0
 10
60.40431217298857
 20
144.3398257410709
 30
0.0
 10
60.30828783752525
 20
144.4122765351987
 30
0.0
 10
60.01048126323368
 20
144.5868547593203
 30
0.0
 10
59.79384031561758
 20
144.6486958036296
 30
0.0
 10
59.57583529576502
 20
144.6486958036296
 30
0.0
  0
SPLINE
  5
1CF
330
1F
100
AcDbEntity
  8
0
  6
HIDDEN
 62
     7
370
    18
100
AcDbSpline
210
0.0
220
0.0
230
1.0
 70
    24
 71
     3
 72
    20
 73
    16
 74
     0
 42
0.00000001
 43
0.00000001
 40
0.0
 40
0.0
 40
0.0
 40
0.0
 40
0.1250000000000004
 40
0.1250000000000004
 40
0.2500000000000009
 40
0.2500000000000009
 40
0.3750000000000013
 40
0.3750000000000013
 40
0.5000000000000018
 40
0.5000000000000018
 40
0.6250000000000022
 40
0.6250000000000022
 40
0.7500000000000027
 40
0.7500000000000027
 40
1.0
 40
1.0
 40
1.0
 40
1.0
 10
81.33333333333333
 20
144.6486958036296
 30
0.0
 10
81.33333333333333
 20
144.6486958036296
 30
0.0
 10
81.33333333333333
 20
144.6336033101553
 30
0.0
 10
81.33333333333333
 20
144.5744671090885
 30
0.0
 10
81.33333333333333
 20
144.5297115691232
 30
0.0
 10
81.33333333333333
 20
144.4128200649868
 30
0.0
 10
81.33333333333333
 20
144.3412845907027
 30
0.0
 10
81.33333333333333
 20
144.172269949971
 30
0.0
 10
81.33333333333333
 20
144.0738617521856
 30
0.0
 10
81.33333333333333
 20
143.8588440558342
 30
0.0
 10
81.33333333333333
 20
143.7415168361998
 30
0.0
 10
81.33333333333333
 20
143.4867624288347
 30
0.0
 10
81.33333333333333
 20
143.3509704669522
 30
0.0
 10
81.33333333333333
 20
142.9300399311935
 30
0.0
 10
81.33333333333333
 20
142.6236853500855
 30
0.0
 10
81.33333333333333
 20
142.3153624702962
 30
0.0
  0
SPLINE
  5
1D0
330
1F
100
AcDbEntity
  8
0
  6
HIDDEN
 62
     7
370
    18
100
AcDbSpline
210
0.0
220
0.0
230
1.0
 70
     8
 71
     3
 72
    20
 73
    16
 74
     0
 42
0.00000001
 43
0.00000001
 40
0.0
 40
0.0
 40
0.0
 40
0.0
 40
0.1250000000000001
 40
0.1250000000000001
 40
0.2500000000000003
 40
0.2500000000000003
 40
0.3750000000000004
 40
0.3750000000000004
 40
0.5000000000000006
 40
0.5000000000000006
 40
0.6250000000000007
 40
0.6250000000000007
 40
0.7500000000000009
 40
0.7500000000000009
 40
1.0
 40
1.0
 40
1.0
 40
1.0
 10
104.7722209545585
 20
141.9820291369629
 30
0.0
 10
104.7722209545585
 20
141.8278709954827
 30
0.0
 10
104.7829315717767
 20
141.6762931844858
 30
0.0
 10
104.824894537091
 20
141.3780863393257
 30
0.0
 10
104.856657599164
 20
141.2299103770994
 30
0.0
 10
104.9395626762327
 20
140.9473902640631
 30
0.0
 10
104.9902918842325
 20
140.8134005287684
 30
0.0
 10
105.110130769141
 20
140.5598262187492
 30
0.0
 10
105.1798667915975
 20
140.4397918317593
 30
0.0
 10
105.3321740317669
 20
140.2246417393635
 30
0.0
 10
105.4152727806878
 20
140.1280926263165
 30
0.0
 10
105.5956878270135
 20
139.9575658661883
 30
0.0
 10
105.6917121624768
 20
139.8851150720604
 30
0.0
 10
105.9895187367684
 20
139.7105368479388
 30
0.0
 10
106.2061596843845
 20
139.6486958036296
 30
0.0
 10
106.424164704237
 20
139.6486958036296
 30
0.0
  0
SPLINE
  5
1D1
330
1F
100
AcDbEntity
  8
0
  6
HIDDEN
 62
     7
370
    18
100
AcDbSpline
210
0.0
220
0.0
230
1.0
 70
    24
 71
     3
 72
    20
 73
    16
 74
     0
 42
0.00000001
 43
0.00000001
 40
0.0
 40
0.0
 40
0.0
 40
0.0
 40
0.1249999999999999
 40
0.1249999999999999
 40
0.2499999999999999
 40
0.2499999999999999
 40
0.3749999999999998
 40
0.3749999999999998
 40
0.4999999999999998
 40
0.4999999999999998
 40
0.6249999999999998
 40
0.6249999999999998
 40
0.7499999999999997
 40
0.7499999999999997
 40
1.0
 40
1.0
 40
1.0
 40
1.0
 10
84.66666666666667
 20
139.6486958036296
 30
0.0
 10
84.66666666666667
 20
139.6486958036296
 30
0.0
 10
84.66666666666667
 20
139.6637882971038
 30
0.0
 10
84.66666666666667
 20
139.7229244981706
 30
0.0
 10
84.66666666666667
 20
139.767680038136
 30
0.0
 10
84.66666666666667
 20
139.8845715422723
 30
0.0
 10
84.66666666666667
 20
139.9561070165564
 30
0.0
 10
84.66666666666667
 20
140.1251216572881
 30
0.0
 10
84.66666666666667
 20
140.2235298550736
 30
0.0
 10
84.66666666666667
 20
140.438547551425
 30
0.0
 10
84.66666666666667
 20
140.5558747710593
 30
0.0
 10
84.66666666666667
 20
140.8106291784244
 30
0.0
 10
84.66666666666667
 20
140.9464211403069
 30
0.0
 10
84.66666666666667
 20
141.3673516760656
 30
0.0
 10
84.66666666666667
 20
141.6737062571736
 30
0.0
 10
84.66666666666667
 20
141.9820291369629
 30
0.0
  0
SPLINE
  5
1D2
330
1F
100
AcDbEntity
  8
0
  6
HIDDEN
 62
     7
370
    18
100
AcDbSpline
210
0.0
220
0.0
230
1.0
 70
     8
 71
     3
 72
    20
 73
    16
 74
     0
 42
0.00000001
 43
0.00000001
 40
0.0
 40
0.0
 40
0.0
 40
0.0
 40
0.1249999999999998
 40
0.1249999999999998
 40
0.2499999999999996
 40
0.2499999999999996
 40
0.3749999999999994
 40
0.3749999999999994
 40
0.4999999999999992
 40
0.4999999999999992
 40
0.624999999999999
 40
0.624999999999999
 40
0.7499999999999989
 40
0.7499999999999989
 40
1.0
 40
1.0
 40
1.0
 40
1.0
 10
106.424164704237
 20
144.6486958036296
 30
0.0
 10
106.3151597930011
 20
144.6486958036296
 30
0.0
 10
106.2079720253316
 20
144.6336033101553
 30
0.0
 10
105.9970822302758
 20
144.5744671090885
 30
0.0
 10
105.8922935754427
 20
144.5297115691231
 30
0.0
 10
105.6923894691617
 20
144.4128200649868
 30
0.0
 10
105.5975670215276
 20
144.3412845907027
 30
0.0
 10
105.4180889505804
 20
144.172269949971
 30
0.0
 10
105.3330705305996
 20
144.0738617521856
 30
0.0
 10
105.1806394406334
 20
143.8588440558342
 30
0.0
 10
105.1122273854383
 20
143.7415168361998
 30
0.0
 10
104.9913784188327
 20
143.4867624288347
 30
0.0
 10
104.9399514625128
 20
143.3509704669522
 30
0.0
 10
104.8161189988601
 20
142.9300399311935
 30
0.0
 10
104.7722209545585
 20
142.6236853500855
 30
0.0
 10
104.7722209545585
 20
142.3153624702962
 30
0.0
  0
SPLINE
  5
1D3
330
1F
100
AcDbEntity
  8
0
  6
HIDDEN
 62
     7
370
    18
100
AcDbSpline
210
0.0
220
0.0
230
1.0
 70
    24
 71
     3
 72
    20
 73
    16
 74
     0
 42
0.00000001
 43
0.00000001
 40
0.0
 40
0.0
 40
0.0
 40
0.0
 40
0.1250000000000007
 40
0.1250000000000007
 40
0.2500000000000013
 40
0.2500000000000013
 40
0.375000000000002
 40
0.375000000000002
 40
0.5000000000000027
 40
0.5000000000000027
 40
0.6250000000000033
 40
0.6250000000000033
 40
0.750000000000004
 40
0.750000000000004
 40
1.0
 40
1.0
 40
1.0
 40
1.0
 10
84.66666666666667
 20
142.3153624702962
 30
0.0
 10
84.66666666666667
 20
142.4695206117765
 30
0.0
 10
84.66666666666667
 20
142.6210984227734
 30
0.0
 10
84.66666666666667
 20
142.9193052679335
 30
0.0
 10
84.66666666666667
 20
143.0674812301598
 30
0.0
 10
84.66666666666667
 20
143.350001343196
 30
0.0
 10
84.66666666666667
 20
143.4839910784907
 30
0.0
 10
84.66666666666667
 20
143.7375653885099
 30
0.0
 10
84.66666666666667
 20
143.8575997754999
 30
0.0
 10
84.66666666666667
 20
144.0727498678956
 30
0.0
 10
84.66666666666667
 20
144.1692989809426
 30
0.0
 10
84.66666666666667
 20
144.3398257410709
 30
0.0
 10
84.66666666666667
 20
144.4122765351987
 30
0.0
 10
84.66666666666667
 20
144.5868547593203
 30
0.0
 10
84.66666666666667
 20
144.6486958036296
 30
0.0
 10
84.66666666666667
 20
144.6486958036296
 30
0.0
  0
SPLINE
  5
1D4
330
1F
100
AcDbEntity
  8
0
  6
HIDDEN
 62
     7
370
    18
100
AcDbSpline
210
0.0
220
0.0
230
1.0
 70
     8
 71
     3
 72
    20
 73
    16
 74
     0
 42
0.00000001
 43
0.00000001
 40
0.0
 40
0.0
 40
0.0
 40
0.0
 40
0.125
 40
0.125
 40
0.25
 40
0.25
 40
0.375
 40
0.375
 40
0.5
 40
0.5
 40
0.625
 40
0.625
 40
0.75
 40
0.75
 40
1.0
 40
1.0
 40
1.0
 40
1.0
 10
59.57583529576502
 20
139.6486958036296
 30
0.0
 10
59.68484020700093
 20
139.6486958036296
 30
0.0
 10
59.79202797467042
 20
139.6637882971038
 30
0.0
 10
60.0029177697263
 20
139.7229244981706
 30
0.0
 10
60.10770642455942
 20
139.767680038136
 30
0.0
 10
60.30761053084039
 20
139.8845715422723
 30
0.0
 10
60.40243297847446
 20
139.9561070165564
 30
0.0
 10
60.58191104942171
 20
140.1251216572881
 30
0.0
 10
60.66692946940247
 20
140.2235298550736
 30
0.0
 10
60.8193605593687
 20
140.438547551425
 30
0.0
 10
60.88777261456375
 20
140.5558747710593
 30
0.0
 10
61.00862158116936
 20
140.8106291784244
 30
0.0
 10
61.06004853748934
 20
140.9464211403069
 30
0.0
 10
61.18388100114198
 20
141.3673516760656
 30
0.0
 10
61.2277790454436
 20
141.6737062571736
 30
0.0
 10
61.2277790454436
 20
141.9820291369629
 30
0.0
  0
SPLINE
  5
1D5
330
1F
100
AcDbEntity
  8
0
  6
HIDDEN
 62
     7
370
    18
100
AcDbSpline
210
0.0
220
0.0
230
1.0
 70
    24
 71
     3
 72
    20
 73
    16
 74
     0
 42
0.00000001
 43
0.00000001
 40
0.0
 40
0.0
 40
0.0
 40
0.0
 40
0.1249999999999993
 40
0.1249999999999993
 40
0.2499999999999987
 40
0.2499999999999987
 40
0.374999999999998
 40
0.374999999999998
 40
0.4999999999999973
 40
0.4999999999999973
 40
0.6249999999999967
 40
0.6249999999999967
 40
0.749999999999996
 40
0.749999999999996
 40
1.0
 40
1.0
 40
1.0
 40
1.0
 10
81.33333333333333
 20
141.9820291369629
 30
0.0
 10
81.33333333333333
 20
141.8278709954827
 30
0.0
 10
81.33333333333333
 20
141.6762931844858
 30
0.0
 10
81.33333333333333
 20
141.3780863393257
 30
0.0
 10
81.33333333333333
 20
141.2299103770994
 30
0.0
 10
81.33333333333333
 20
140.9473902640631
 30
0.0
 10
81.33333333333333
 20
140.8134005287684
 30
0.0
 10
81.33333333333333
 20
140.5598262187492
 30
0.0
 10
81.33333333333333
 20
140.4397918317592
 30
0.0
 10
81.33333333333333
 20
140.2246417393635
 30
0.0
 10
81.33333333333333
 20
140.1280926263165
 30
0.0
 10
81.33333333333333
 20
139.9575658661883
 30
0.0
 10
81.33333333333333
 20
139.8851150720604
 30
0.0
 10
81.33333333333333
 20
139.7105368479388
 30
0.0
 10
81.33333333333333
 20
139.6486958036296
 30
0.0
 10
81.33333333333333
 20
139.6486958036296
 30
0.0
  0
LINE
  5
1D6
330
1F
100
AcDbEntity
  8
0
  6
HIDDEN
 62
     7
370
    18
100
AcDbLine
 10
84.6666666667
 20
142.3153624703
 30
0.0
 11
84.6666666667
 21
141.982029137
 31
0.0
  0
LINE
  5
1D7
330
1F
100
AcDbEntity
  8
0
  6
HIDDEN
 62
     7
370
    18
100
AcDbLine
 10
81.3333333333
 20
141.982029137
 30
0.0
 11
81.3333333333
 21
142.3153624703
 31
0.0
  0
LINE
  5
1D8
330
1F
100
AcDbEntity
  8
0
  6
HIDDEN
 62
     7
370
    18
100
AcDbLine
 10
78.4050086101
 20
144.6486958036
 30
0.0
 11
78.4050086101
 21
139.6486958036
 31
0.0
  0
LINE
  5
1D9
330
1F
100
AcDbEntity
  8
0
  6
HIDDEN
 62
     7
370
    18
100
AcDbLine
 10
61.2277790454
 20
142.3153624703
 30
0.0
 11
61.2277790454
 21
141.982029137
 31
0.0
  0
LINE
  5
1DA
330
1F
100
AcDbEntity
  8
0
  6
HIDDEN
 62
     7
370
    18
100
AcDbLine
 10
87.5949913899
 20
139.6486958036
 30
0.0
 11
87.5949913899
 21
144.6486958036
 31
0.0
  0
LINE
  5
1DB
330
1F
100
AcDbEntity
  8
0
  6
HIDDEN
 62
     7
370
    18
100
AcDbLine
 10
104.7722209546
 20
141.982029137
 30
0.0
 11
104.7722209546
 21
142.3153624703
 31
0.0
  0
SPLINE
  5
1DC
330
1F
100
AcDbEntity
  8
0
  6
HIDDEN
 62
     7
370
    18
100
AcDbSpline
210
0.0
220
0.0
230
1.0
 70
     8
 71
     3
 72
    20
 73
    16
 74
     0
 42
0.00000001
 43
0.00000001
 40
0.0
 40
0.0
 40
0.0
 40
0.0
 40
0.1250000000000007
 40
0.1250000000000007
 40
0.2500000000000014
 40
0.2500000000000014
 40
0.3750000000000022
 40
0.3750000000000022
 40
0.5000000000000029
 40
0.5000000000000029
 40
0.6250000000000036
 40
0.6250000000000036
 40
0.7500000000000043
 40
0.7500000000000043
 40
1.0
 40
1.0
 40
1.0
 40
1.0
 10
50.54276317641593
 20
142.3153624702962
 30
0.0
 10
50.54276317641593
 20
142.4695206117765
 30
0.0
 10
50.52761607628459
 20
142.6210984227733
 30
0.0
 10
50.46827148161971
 20
142.9193052679335
 30
0.0
 10
50.42335172845365
 20
143.0674812301597
 30
0.0
 10
50.30610624407344
 20
143.350001343196
 30
0.0
 10
50.23436431011169
 20
143.4839910784907
 30
0.0
 10
50.06488653377439
 20
143.7375653885099
 30
0.0
 10
49.96626490503041
 20
143.8575997754999
 30
0.0
 10
49.75086994033526
 20
144.0727498678956
 30
0.0
 10
49.6333505625951
 20
144.1692989809426
 30
0.0
 10
49.3782051572251
 20
144.3398257410709
 30
0.0
 10
49.24240623969501
 20
144.4122765351987
 30
0.0
 10
48.82124414336801
 20
144.5868547593203
 30
0.0
 10
48.51486757708397
 20
144.6486958036296
 30
0.0
 10
48.20656192134306
 20
144.6486958036296
 30
0.0
  0
SPLINE
  5
1DD
330
1F
100
AcDbEntity
  8
0
  6
HIDDEN
 62
     7
370
    18
100
AcDbSpline
210
0.0
220
0.0
230
1.0
 70
     8
 71
     3
 72
    20
 73
    16
 74
     0
 42
0.00000001
 43
0.00000001
 40
0.0
 40
0.0
 40
0.0
 40
0.0
 40
0.1249999999999998
 40
0.1249999999999998
 40
0.2499999999999997
 40
0.2499999999999997
 40
0.3749999999999995
 40
0.3749999999999995
 40
0.4999999999999993
 40
0.4999999999999993
 40
0.6249999999999991
 40
0.6249999999999991
 40
0.749999999999999
 40
0.749999999999999
 40
1.0
 40
1.0
 40
1.0
 40
1.0
 10
57.21881269180985
 20
144.6486958036296
 30
0.0
 10
57.32781760304577
 20
144.6486958036296
 30
0.0
 10
57.43500537071526
 20
144.6336033101553
 30
0.0
 10
57.64589516577115
 20
144.5744671090885
 30
0.0
 10
57.75068382060426
 20
144.5297115691232
 30
0.0
 10
57.95058792688523
 20
144.4128200649868
 30
0.0
 10
58.0454103745193
 20
144.3412845907027
 30
0.0
 10
58.22488844546655
 20
144.172269949971
 30
0.0
 10
58.30990686544732
 20
144.0738617521856
 30
0.0
 10
58.46233795541355
 20
143.8588440558342
 30
0.0
 10
58.53075001060861
 20
143.7415168361998
 30
0.0
 10
58.65159897721421
 20
143.4867624288347
 30
0.0
 10
58.70302593353416
 20
143.3509704669522
 30
0.0
 10
58.82685839718683
 20
142.9300399311935
 30
0.0
 10
58.87075644148844
 20
142.6236853500856
 30
0.0
 10
58.87075644148844
 20
142.3153624702962
 30
0.0
  0
SPLINE
  5
1DE
330
1F
100
AcDbEntity
  8
0
  6
HIDDEN
 62
     7
370
    18
100
AcDbSpline
210
0.0
220
0.0
230
1.0
 70
     8
 71
     3
 72
    20
 73
    16
 74
     0
 42
0.00000001
 43
0.00000001
 40
0.0
 40
0.0
 40
0.0
 40
0.0
 40
0.125
 40
0.125
 40
0.25
 40
0.25
 40
0.375
 40
0.375
 40
0.5
 40
0.5
 40
0.625
 40
0.625
 40
0.75
 40
0.75
 40
1.0
 40
1.0
 40
1.0
 40
1.0
 10
115.4572368235841
 20
141.9820291369629
 30
0.0
 10
115.4572368235841
 20
141.8278709954827
 30
0.0
 10
115.4723839237154
 20
141.6762931844858
 30
0.0
 10
115.5317285183803
 20
141.3780863393257
 30
0.0
 10
115.5766482715463
 20
141.2299103770994
 30
0.0
 10
115.6938937559265
 20
140.9473902640631
 30
0.0
 10
115.7656356898883
 20
140.8134005287684
 30
0.0
 10
115.9351134662256
 20
140.5598262187492
 30
0.0
 10
116.0337350949696
 20
140.4397918317593
 30
0.0
 10
116.2491300596647
 20
140.2246417393635
 30
0.0
 10
116.3666494374049
 20
140.1280926263165
 30
0.0
 10
116.6217948427749
 20
139.9575658661883
 30
0.0
 10
116.757593760305
 20
139.8851150720604
 30
0.0
 10
117.178755856632
 20
139.7105368479388
 30
0.0
 10
117.4851324229159
 20
139.6486958036296
 30
0.0
 10
117.7934380786568
 20
139.6486958036296
 30
0.0
  0
SPLINE
  5
1DF
330
1F
100
AcDbEntity
  8
0
  6
HIDDEN
 62
     7
370
    18
100
AcDbSpline
210
0.0
220
0.0
230
1.0
 70
     8
 71
     3
 72
    20
 73
    16
 74
     0
 42
0.00000001
 43
0.00000001
 40
0.0
 40
0.0
 40
0.0
 40
0.0
 40
0.1249999999999998
 40
0.1249999999999998
 40
0.2499999999999996
 40
0.2499999999999996
 40
0.3749999999999994
 40
0.3749999999999994
 40
0.4999999999999992
 40
0.4999999999999992
 40
0.624999999999999
 40
0.624999999999999
 40
0.7499999999999989
 40
0.7499999999999989
 40
1.0
 40
1.0
 40
1.0
 40
1.0
 10
108.7811873081914
 20
139.6486958036296
 30
0.0
 10
108.6721823969554
 20
139.6486958036296
 30
0.0
 10
108.5649946292859
 20
139.6637882971038
 30
0.0
 10
108.3541048342301
 20
139.7229244981706
 30
0.0
 10
108.249316179397
 20
139.767680038136
 30
0.0
 10
108.049412073116
 20
139.8845715422723
 30
0.0
 10
107.954589625482
 20
139.9561070165564
 30
0.0
 10
107.7751115545347
 20
140.1251216572881
 30
0.0
 10
107.6900931345539
 20
140.2235298550736
 30
0.0
 10
107.5376620445877
 20
140.438547551425
 30
0.0
 10
107.4692499893927
 20
140.5558747710593
 30
0.0
 10
107.3484010227871
 20
140.8106291784244
 30
0.0
 10
107.2969740664671
 20
140.9464211403069
 30
0.0
 10
107.1731416028145
 20
141.3673516760657
 30
0.0
 10
107.1292435585129
 20
141.6737062571736
 30
0.0
 10
107.1292435585129
 20
141.9820291369629
 30
0.0
  0
SPLINE
  5
1E0
330
1F
100
AcDbEntity
  8
0
  6
HIDDEN
 62
     7
370
    18
100
AcDbSpline
210
0.0
220
0.0
230
1.0
 70
     8
 71
     3
 72
    20
 73
    16
 74
     0
 42
0.00000001
 43
0.00000001
 40
0.0
 40
0.0
 40
0.0
 40
0.0
 40
0.125
 40
0.125
 40
0.25
 40
0.25
 40
0.375
 40
0.375
 40
0.5
 40
0.5
 40
0.625
 40
0.625
 40
0.75
 40
0.75
 40
1.0
 40
1.0
 40
1.0
 40
1.0
 10
48.20656192134307
 20
139.6486958036296
 30
0.0
 10
48.36071814517817
 20
139.6486958036296
 30
0.0
 10
48.51230453993685
 20
139.6637882971038
 30
0.0
 10
48.81054774827096
 20
139.7229244981706
 30
0.0
 10
48.95874128511878
 20
139.767680038136
 30
0.0
 10
49.24144838339539
 20
139.8845715422723
 30
0.0
 10
49.3755475748569
 20
139.9561070165564
 30
0.0
 10
49.62936789693907
 20
140.1251216572881
 30
0.0
 10
49.7496020995274
 20
140.2235298550736
 30
0.0
 10
49.96517221428496
 20
140.438547551425
 30
0.0
 10
50.06192147057161
 20
140.5558747710593
 30
0.0
 10
50.23282771814402
 20
140.8106291784244
 30
0.0
 10
50.3055564172433
 20
140.9464211403069
 30
0.0
 10
50.48068196680295
 20
141.3673516760656
 30
0.0
 10
50.54276317641593
 20
141.6737062571736
 30
0.0
 10
50.54276317641593
 20
141.9820291369629
 30
0.0
  0
SPLINE
  5
1E1
330
1F
100
AcDbEntity
  8
0
  6
HIDDEN
 62
     7
370
    18
100
AcDbSpline
210
0.0
220
0.0
230
1.0
 70
     8
 71
     3
 72
    20
 73
    16
 74
     0
 42
0.00000001
 43
0.00000001
 40
0.0
 40
0.0
 40
0.0
 40
0.0
 40
0.1250000000000005
 40
0.1250000000000005
 40
0.2500000000000009
 40
0.2500000000000009
 40
0.3750000000000014
 40
0.3750000000000014
 40
0.5000000000000019
 40
0.5000000000000019
 40
0.6250000000000023
 40
0.6250000000000023
 40
0.7500000000000029
 40
0.7500000000000029
 40
1.0
 40
1.0
 40
1.0
 40
1.0
 10
58.87075644148844
 20
141.9820291369629
 30
0.0
 10
58.87075644148842
 20
141.8278709954827
 30
0.0
 10
58.86004582427025
 20
141.6762931844858
 30
0.0
 10
58.81808285895594
 20
141.3780863393257
 30
0.0
 10
58.78631979688301
 20
141.2299103770994
 30
0.0
 10
58.70341471981426
 20
140.9473902640631
 30
0.0
 10
58.65268551181446
 20
140.8134005287684
 30
0.0
 10
58.53284662690595
 20
140.5598262187492
 30
0.0
 10
58.4631106044494
 20
140.4397918317592
 30
0.0
 10
58.31080336428002
 20
140.2246417393635
 30
0.0
 10
58.22770461535913
 20
140.1280926263165
 30
0.0
 10
58.0472895690334
 20
139.9575658661883
 30
0.0
 10
57.95126523357008
 20
139.8851150720604
 30
0.0
 10
57.65345865927852
 20
139.7105368479388
 30
0.0
 10
57.43681771166243
 20
139.6486958036296
 30
0.0
 10
57.21881269180987
 20
139.6486958036296
 30
0.0
  0
SPLINE
  5
1E2
330
1F
100
AcDbEntity
  8
0
  6
HIDDEN
 62
     7
370
    18
100
AcDbSpline
210
0.0
220
0.0
230
1.0
 70
     8
 71
     3
 72
    20
 73
    16
 74
     0
 42
0.00000001
 43
0.00000001
 40
0.0
 40
0.0
 40
0.0
 40
0.0
 40
0.125
 40
0.125
 40
0.25
 40
0.25
 40
0.375
 40
0.375
 40
0.5
 40
0.5
 40
0.625
 40
0.625
 40
0.75
 40
0.75
 40
1.0
 40
1.0
 40
1.0
 40
1.0
 10
117.7934380786568
 20
144.6486958036296
 30
0.0
 10
117.6392818548217
 20
144.6486958036296
 30
0.0
 10
117.4876954600631
 20
144.6336033101553
 30
0.0
 10
117.189452251729
 20
144.5744671090885
 30
0.0
 10
117.0412587148811
 20
144.5297115691231
 30
0.0
 10
116.7585516166046
 20
144.4128200649867
 30
0.0
 10
116.624452425143
 20
144.3412845907027
 30
0.0
 10
116.3706321030609
 20
144.172269949971
 30
0.0
 10
116.2503979004726
 20
144.0738617521855
 30
0.0
 10
116.034827785715
 20
143.8588440558341
 30
0.0
 10
115.9380785294284
 20
143.7415168361998
 30
0.0
 10
115.767172281856
 20
143.4867624288347
 30
0.0
 10
115.6944435827567
 20
143.3509704669522
 30
0.0
 10
115.5193180331971
 20
142.9300399311935
 30
0.0
 10
115.4572368235841
 20
142.6236853500855
 30
0.0
 10
115.4572368235841
 20
142.3153624702962
 30
0.0
  0
SPLINE
  5
1E3
330
1F
100
AcDbEntity
  8
0
  6
HIDDEN
 62
     7
370
    18
100
AcDbSpline
210
0.0
220
0.0
230
1.0
 70
     8
 71
     3
 72
    20
 73
    16
 74
     0
 42
0.00000001
 43
0.00000001
 40
0.0
 40
0.0
 40
0.0
 40
0.0
 40
0.1249999999999995
 40
0.1249999999999995
 40
0.2499999999999989
 40
0.2499999999999989
 40
0.3749999999999984
 40
0.3749999999999984
 40
0.4999999999999979
 40
0.4999999999999979
 40
0.6249999999999973
 40
0.6249999999999973
 40
0.7499999999999969
 40
0.7499999999999969
 40
1.0
 40
1.0
 40
1.0
 40
1.0
 10
107.1292435585129
 20
142.3153624702962
 30
0.0
 10
107.1292435585129
 20
142.4695206117765
 30
0.0
 10
107.139954175731
 20
142.6210984227733
 30
0.0
 10
107.1819171410454
 20
142.9193052679335
 30
0.0
 10
107.2136802031183
 20
143.0674812301597
 30
0.0
 10
107.296585280187
 20
143.350001343196
 30
0.0
 10
107.3473144881868
 20
143.4839910784907
 30
0.0
 10
107.4671533730953
 20
143.7375653885099
 30
0.0
 10
107.5368893955519
 20
143.8575997754999
 30
0.0
 10
107.6891966357212
 20
144.0727498678956
 30
0.0
 10
107.7722953846421
 20
144.1692989809426
 30
0.0
 10
107.9527104309679
 20
144.3398257410708
 30
0.0
 10
108.0487347664312
 20
144.4122765351987
 30
0.0
 10
108.3465413407227
 20
144.5868547593203
 30
0.0
 10
108.5631822883388
 20
144.6486958036296
 30
0.0
 10
108.7811873081913
 20
144.6486958036296
 30
0.0
  0
LINE
  5
1E4
330
1F
100
AcDbEntity
  8
0
  6
HIDDEN
 62
     7
370
    18
100
AcDbLine
 10
58.8707564415
 20
141.982029137
 30
0.0
 11
58.8707564415
 21
142.3153624703
 31
0.0
  0
LINE
  5
1E5
330
1F
100
AcDbEntity
  8
0
  6
HIDDEN
 62
     7
370
    18
100
AcDbLine
 10
107.1292435585
 20
142.3153624703
 30
0.0
 11
107.1292435585
 21
141.982029137
 31
0.0
  0
LINE
  5
1E6
330
1F
100
AcDbEntity
  8
0
  6
HIDDEN
 62
     7
370
    18
100
AcDbLine
 10
91.1649658093
 20
139.6486958036
 30
0.0
 11
91.1649658093
 21
144.6486958036
 31
0.0
  0
LINE
  5
1E7
330
1F
100
AcDbEntity
  8
0
  6
HIDDEN
 62
     7
370
    18
100
AcDbLine
 10
74.8350341907
 20
144.6486958036
 30
0.0
 11
74.8350341907
 21
139.6486958036
 31
0.0
  0
LINE
  5
1E8
330
1F
100
AcDbEntity
  8
0
  6
HIDDEN
 62
     7
370
    18
100
AcDbLine
 10
89.9520139939
 20
144.6486958036
 30
0.0
 11
89.9520139939
 21
139.6486958036
 31
0.0
  0
LINE
  5
1E9
330
1F
100
AcDbEntity
  8
0
  6
HIDDEN
 62
     7
370
    18
100
AcDbLine
 10
76.0479860061
 20
139.6486958036
 30
0.0
 11
76.0479860061
 21
144.6486958036
 31
0.0
  0
LINE
  5
1EA
330
1F
100
AcDbEntity
  8
0
  6
HIDDEN
 62
     7
370
    18
100
AcDbLine
 10
85.1666666667
 20
139.6774459479
 30
0.0
 11
80.8333333333
 21
139.6774459479
 31
0.0
  0
LINE
  5
1EB
330
1F
100
AcDbEntity
  8
0
  6
HIDDEN
 62
     7
370
    18
100
AcDbLine
 10
50.5427631764
 20
142.3153624703
 30
0.0
 11
50.5427631764
 21
141.982029137
 31
0.0
  0
LINE
  5
1EC
330
1F
100
AcDbEntity
  8
0
  6
HIDDEN
 62
     7
370
    18
100
AcDbLine
 10
115.4572368236
 20
141.982029137
 30
0.0
 11
115.4572368236
 21
142.3153624703
 31
0.0
  0
LINE
  5
1ED
330
1F
100
AcDbEntity
  8
0
  6
HIDDEN
 62
     7
370
    18
100
AcDbLine
 10
81.3333333333
 20
174.3177826787
 30
0.0
 11
81.3333333333
 21
171.7296089285
 31
0.0
  0
LINE
  5
1EE
330
1F
100
AcDbEntity
  8
0
  6
HIDDEN
 62
     7
370
    18
100
AcDbLine
 10
81.3333333333
 20
171.3962755952
 30
0.0
 11
81.3333333333
 21
153.1486958036
 31
0.0
  0
LINE
  5
1EF
330
1F
100
AcDbEntity
  8
0
  6
HIDDEN
 62
     7
370
    18
100
AcDbLine
 10
81.3333333333
 20
146.3153624703
 30
0.0
 11
81.3333333333
 21
144.7014655841
 31
0.0
  0
LINE
  5
1F0
330
1F
100
AcDbEntity
  8
0
  6
HIDDEN
 62
     7
370
    18
100
AcDbLine
 10
84.6666666667
 20
144.7014655841
 30
0.0
 11
84.6666666667
 21
146.3153624703
 31
0.0
  0
LINE
  5
1F1
330
1F
100
AcDbEntity
  8
0
  6
HIDDEN
 62
     7
370
    18
100
AcDbLine
 10
84.6666666667
 20
153.1486958036
 30
0.0
 11
84.6666666667
 21
171.3962755952
 31
0.0
  0
LINE
  5
1F2
330
1F
100
AcDbEntity
  8
0
  6
HIDDEN
 62
     7
370
    18
100
AcDbLine
 10
84.6666666667
 20
171.7296089285
 30
0.0
 11
84.6666666667
 21
174.3177826787
 31
0.0
  0
LINE
  5
1F3
330
1F
100
AcDbEntity
  8
0
  6
HIDDEN
 62
     7
370
    18
100
AcDbLine
 10
101.4160647029
 20
163.6511160121
 30
0.0
 11
101.4160647029
 21
166.9844493454
 31
0.0
  0
LINE
  5
1F4
330
1F
100
AcDbEntity
  8
0
  6
HIDDEN
 62
     7
370
    18
100
AcDbLine
 10
77.2493980362
 20
166.9844493454
 30
0.0
 11
77.2493980362
 21
163.6511160121
 31
0.0
  0
LINE
  5
1F5
330
1F
100
AcDbEntity
  8
0
  6
HIDDEN
 62
     7
370
    18
100
AcDbLine
 10
93.9160647029
 20
166.9844493454
 30
0.0
 11
93.9160647029
 21
173.6511160121
 31
0.0
  0
LINE
  5
1F6
330
1F
100
AcDbEntity
  8
0
  6
HIDDEN
 62
     7
370
    18
100
AcDbLine
 10
84.7493980362
 20
173.6511160121
 30
0.0
 11
84.7493980362
 21
171.7296089285
 31
0.0
  0
LINE
  5
1F7
330
1F
100
AcDbEntity
  8
0
  6
HIDDEN
 62
     7
370
    18
100
AcDbLine
 10
84.7493980362
 20
171.3962755952
 30
0.0
 11
84.7493980362
 21
166.9844493454
 31
0.0
  0
LINE
  5
1F8
330
1F
100
AcDbEntity
  8
0
  6
HIDDEN
 62
     7
370
    18
100
AcDbLine
 10
90.9993980362
 20
163.6511160121
 30
0.0
 11
90.9993980362
 21
173.6511160121
 31
0.0
  0
LINE
  5
1F9
330
1F
100
AcDbEntity
  8
0
  6
HIDDEN
 62
     7
370
    18
100
AcDbLine
 10
87.6660647029
 20
173.6511160121
 30
0.0
 11
87.6660647029
 21
163.6511160121
 31
0.0
  0
LINE
  5
1FA
330
1F
100
AcDbEntity
  8
0
  6
HIDDEN
 62
     7
370
    18
100
AcDbLine
 10
74.25
 20
171.7296089285
 30
0.0
 11
74.25
 21
166.9832392412
 31
0.0
  0
LINE
  5
1FB
330
1F
100
AcDbEntity
  8
0
  6
HIDDEN
 62
     7
370
    18
100
AcDbLine
 10
85.5833333333
 20
171.7296089285
 30
0.0
 11
85.5833333333
 21
176.4832392412
 31
0.0
  0
LINE
  5
1FC
330
1F
100
AcDbEntity
  8
0
  6
HIDDEN
 62
     7
370
    18
100
AcDbLine
 10
80.4166666667
 20
176.4832392412
 30
0.0
 11
80.4166666667
 21
171.7296089285
 31
0.0
  0
LINE
  5
1FD
330
1F
100
AcDbEntity
  8
0
  6
HIDDEN
 62
     7
370
    18
100
AcDbLine
 10
103.4866865072
 20
174.3177826787
 30
0.0
 11
103.4866865072
 21
176.4832392412
 31
0.0
  0
LINE
  5
1FE
330
1F
100
AcDbEntity
  8
0
  6
HIDDEN
 62
     7
370
    18
100
AcDbLine
 10
101.6533531739
 20
176.4832392412
 30
0.0
 11
101.6533531739
 21
174.3177826787
 31
0.0
  0
LINE
  5
1FF
330
1F
100
AcDbEntity
  8
0
  6
HIDDEN
 62
     7
370
    18
100
AcDbLine
 10
76.4160647029
 20
168.3177826787
 30
0.0
 11
76.4160647029
 21
166.9832392412
 31
0.0
  0
LINE
  5
200
330
1F
100
AcDbEntity
  8
0
  6
HIDDEN
 62
     7
370
    18
100
AcDbLine
 10
83.9160647029
 20
174.3177826787
 30
0.0
 11
83.9160647029
 21
171.7296089285
 31
0.0
  0
LINE
  5
201
330
1F
100
AcDbEntity
  8
0
  6
HIDDEN
 62
     7
370
    18
100
AcDbLine
 10
86.5380889054
 20
176.4832392412
 30
0.0
 11
86.5380889054
 21
176.3279319093
 31
0.0
  0
LINE
  5
202
330
1F
100
AcDbEntity
  8
0
  6
HIDDEN
 62
     7
370
    18
100
AcDbLine
 10
71.8333333333
 20
166.9844493454
 30
0.0
 11
71.8333333333
 21
176.4832392412
 31
0.0
  0
LINE
  5
203
330
1F
100
AcDbEntity
  8
0
  6
HIDDEN
 62
     7
370
    18
100
AcDbLine
 10
67.5
 20
176.4832392412
 30
0.0
 11
67.5
 21
166.9844493454
 31
0.0
  0
LINE
  5
204
330
1F
100
AcDbEntity
  8
0
  6
HIDDEN
 62
     7
370
    18
100
AcDbLine
 10
91.9160647029
 20
174.3177826787
 30
0.0
 11
91.9160647029
 21
176.4832392412
 31
0.0
  0
LINE
  5
205
330
1F
100
AcDbEntity
  8
0
  6
HIDDEN
 62
     7
370
    18
100
AcDbLine
 10
86.7493980362
 20
176.3279319093
 30
0.0
 11
86.7493980362
 21
174.3177826787
 31
0.0
  0
LINE
  5
206
330
1F
100
AcDbEntity
  8
0
  6
HIDDEN
 62
     7
370
    18
100
AcDbLine
 10
71.6957326136
 20
166.9832392412
 30
0.0
 11
71.6957326136
 21
176.4832392412
 31
0.0
  0
LINE
  5
207
330
1F
100
AcDbEntity
  8
0
  6
HIDDEN
 62
     7
370
    18
100
AcDbLine
 10
67.3623992803
 20
176.4832392412
 30
0.0
 11
67.3623992803
 21
166.9832392412
 31
0.0
  0
LINE
  5
208
330
1F
100
AcDbEntity
  8
0
  6
HIDDEN
 62
     7
370
    18
100
AcDbLine
 10
103.3570099044
 20
174.3177826787
 30
0.0
 11
103.3570099044
 21
176.3279319093
 31
0.0
  0
LINE
  5
209
330
1F
100
AcDbEntity
  8
0
  6
HIDDEN
 62
     7
370
    18
100
AcDbLine
 10
101.5236765711
 20
176.3279319093
 30
0.0
 11
101.5236765711
 21
174.3177826787
 31
0.0
  0
LINE
  5
20A
330
1F
100
AcDbEntity
  8
0
  6
HIDDEN
 62
     7
370
    18
100
AcDbLine
 10
98.3725032685
 20
165.3177826787
 30
0.0
 11
98.3725032685
 21
169.8177826787
 31
0.0
  0
LINE
  5
20B
330
1F
100
AcDbEntity
  8
0
  6
HIDDEN
 62
     7
370
    18
100
AcDbLine
 10
96.3725032685
 20
169.8177826787
 30
0.0
 11
96.3725032685
 21
165.3177826787
 31
0.0
  0
LINE
  5
20C
330
1F
100
AcDbEntity
  8
0
  6
HIDDEN
 62
     7
370
    18
100
AcDbLine
 10
74.6666666667
 20
171.3962755952
 30
0.0
 11
74.6666666667
 21
168.0629422618
 31
0.0
  0
LINE
  5
20D
330
1F
100
AcDbEntity
  8
0
  6
HIDDEN
 62
     7
370
    18
100
AcDbLine
 10
88.0
 20
161.3962755952
 30
0.0
 11
88.0
 21
166.9832392412
 31
0.0
  0
LINE
  5
20E
330
1F
100
AcDbEntity
  8
0
  6
HIDDEN
 62
     7
370
    18
100
AcDbLine
 10
78.0
 20
166.9832392412
 30
0.0
 11
78.0
 21
161.3962755952
 31
0.0
  0
LINE
  5
20F
330
1F
100
AcDbEntity
  8
0
  6
HIDDEN
 62
     7
370
    18
100
AcDbLine
 10
103.4866865072
 20
166.9832392412
 30
0.0
 11
103.4866865072
 21
174.3177826787
 31
0.0
  0
LINE
  5
210
330
1F
100
AcDbEntity
  8
0
  6
HIDDEN
 62
     7
370
    18
100
AcDbLine
 10
101.6533531739
 20
174.3177826787
 30
0.0
 11
101.6533531739
 21
166.9832392412
 31
0.0
  0
LINE
  5
211
330
1F
100
AcDbEntity
  8
0
  6
HIDDEN
 62
     7
370
    18
100
AcDbLine
 10
102.0380889054
 20
166.9832392412
 30
0.0
 11
102.0380889054
 21
168.3177826787
 31
0.0
  0
LINE
  5
212
330
1F
100
AcDbEntity
  8
0
  6
HIDDEN
 62
     7
370
    18
100
AcDbLine
 10
103.3570099044
 20
166.9832392412
 30
0.0
 11
103.3570099044
 21
174.3177826787
 31
0.0
  0
LINE
  5
213
330
1F
100
AcDbEntity
  8
0
  6
HIDDEN
 62
     7
370
    18
100
AcDbLine
 10
101.5236765711
 20
174.3177826787
 30
0.0
 11
101.5236765711
 21
166.9832392412
 31
0.0
  0
LINE
  5
214
330
1F
100
AcDbEntity
  8
0
  6
HIDDEN
 62
     7
370
    18
100
AcDbLine
 10
91.75
 20
166.8607811349
 30
0.0
 11
91.75
 21
166.9832392412
 31
0.0
  0
LINE
  5
215
330
1F
100
AcDbEntity
  8
0
  6
HIDDEN
 62
     7
370
    18
100
AcDbLine
 10
74.25
 20
166.9832392412
 30
0.0
 11
74.25
 21
166.8607811349
 31
0.0
  0
LINE
  5
216
330
1F
100
AcDbEntity
  8
0
  6
HIDDEN
 62
     7
370
    18
100
AcDbLine
 10
88.4166666667
 20
161.0794786421
 30
0.0
 11
88.4166666667
 21
166.8607811349
 31
0.0
  0
LINE
  5
217
330
1F
100
AcDbEntity
  8
0
  6
HIDDEN
 62
     7
370
    18
100
AcDbLine
 10
77.5833333333
 20
166.8607811349
 30
0.0
 11
77.5833333333
 21
161.0794786421
 31
0.0
  0
LINE
  5
218
330
1F
100
AcDbEntity
  8
0
  6
HIDDEN
 62
     7
370
    18
100
AcDbLine
 10
85.5833333333
 20
153.1486958036
 30
0.0
 11
85.5833333333
 21
161.0794786421
 31
0.0
  0
LINE
  5
219
330
1F
100
AcDbEntity
  8
0
  6
HIDDEN
 62
     7
370
    18
100
AcDbLine
 10
80.4166666667
 20
161.0794786421
 30
0.0
 11
80.4166666667
 21
153.1486958036
 31
0.0
  0
LINE
  5
21A
330
1F
100
AcDbEntity
  8
0
  6
HIDDEN
 62
     7
370
    18
100
AcDbLine
 10
103.4866865072
 20
153.1486958036
 30
0.0
 11
103.4866865072
 21
166.9832392412
 31
0.0
  0
LINE
  5
21B
330
1F
100
AcDbEntity
  8
0
  6
HIDDEN
 62
     7
370
    18
100
AcDbLine
 10
101.6533531739
 20
166.9832392412
 30
0.0
 11
101.6533531739
 21
153.1486958036
 31
0.0
  0
LINE
  5
21C
330
1F
100
AcDbEntity
  8
0
  6
HIDDEN
 62
     7
370
    18
100
AcDbLine
 10
102.2493980362
 20
163.3177826787
 30
0.0
 11
102.2493980362
 21
166.9832392412
 31
0.0
  0
LINE
  5
21D
330
1F
100
AcDbEntity
  8
0
  6
HIDDEN
 62
     7
370
    18
100
AcDbLine
 10
76.4160647029
 20
166.9832392412
 30
0.0
 11
76.4160647029
 21
163.3177826787
 31
0.0
  0
LINE
  5
21E
330
1F
100
AcDbEntity
  8
0
  6
HIDDEN
 62
     7
370
    18
100
AcDbLine
 10
74.6666666667
 20
153.1486958036
 30
0.0
 11
74.6666666667
 21
163.6511160121
 31
0.0
  0
LINE
  5
21F
330
1F
100
AcDbEntity
  8
0
  6
HIDDEN
 62
     7
370
    18
100
AcDbLine
 10
64.6666666667
 20
163.6511160121
 30
0.0
 11
64.6666666667
 21
153.1486958036
 31
0.0
  0
LINE
  5
220
330
1F
100
AcDbEntity
  8
0
  6
HIDDEN
 62
     7
370
    18
100
AcDbLine
 10
72.3333333333
 20
163.6511160121
 30
0.0
 11
72.3333333333
 21
166.9832392412
 31
0.0
  0
LINE
  5
221
330
1F
100
AcDbEntity
  8
0
  6
HIDDEN
 62
     7
370
    18
100
AcDbLine
 10
67.0
 20
166.9832392412
 30
0.0
 11
67.0
 21
163.6511160121
 31
0.0
  0
LINE
  5
222
330
1F
100
AcDbEntity
  8
0
  6
HIDDEN
 62
     7
370
    18
100
AcDbLine
 10
91.9160647029
 20
155.1745079388
 30
0.0
 11
91.9160647029
 21
163.3177826787
 31
0.0
  0
LINE
  5
223
330
1F
100
AcDbEntity
  8
0
  6
HIDDEN
 62
     7
370
    18
100
AcDbLine
 10
86.7493980362
 20
163.3177826787
 30
0.0
 11
86.7493980362
 21
155.1745079388
 31
0.0
  0
LINE
  5
224
330
1F
100
AcDbEntity
  8
0
  6
HIDDEN
 62
     7
370
    18
100
AcDbLine
 10
74.529065947
 20
153.1486958036
 30
0.0
 11
74.529065947
 21
163.6511160121
 31
0.0
  0
LINE
  5
225
330
1F
100
AcDbEntity
  8
0
  6
HIDDEN
 62
     7
370
    18
100
AcDbLine
 10
64.529065947
 20
163.6511160121
 30
0.0
 11
64.529065947
 21
153.1486958036
 31
0.0
  0
LINE
  5
226
330
1F
100
AcDbEntity
  8
0
  6
HIDDEN
 62
     7
370
    18
100
AcDbLine
 10
72.1957326136
 20
163.6511160121
 30
0.0
 11
72.1957326136
 21
166.9832392412
 31
0.0
  0
LINE
  5
227
330
1F
100
AcDbEntity
  8
0
  6
HIDDEN
 62
     7
370
    18
100
AcDbLine
 10
66.8623992803
 20
166.9832392412
 30
0.0
 11
66.8623992803
 21
163.6511160121
 31
0.0
  0
LINE
  5
228
330
1F
100
AcDbEntity
  8
0
  6
HIDDEN
 62
     7
370
    18
100
AcDbLine
 10
103.3570099044
 20
153.1486958036
 30
0.0
 11
103.3570099044
 21
166.9832392412
 31
0.0
  0
LINE
  5
229
330
1F
100
AcDbEntity
  8
0
  6
HIDDEN
 62
     7
370
    18
100
AcDbLine
 10
101.5236765711
 20
166.9832392412
 30
0.0
 11
101.5236765711
 21
153.1486958036
 31
0.0
  0
ARC
  5
22A
330
1F
100
AcDbEntity
  8
0
  6
HIDDEN
 62
     7
370
    18
100
AcDbCircle
 10
85.5833333333
 20
145.482029137
 30
0.0
 40
0.8333333333333428
100
AcDbArc
 50
90.0
 51
180.0
  0
ARC
  5
22B
330
1F
100
AcDbEntity
  8
0
  6
HIDDEN
 62
     7
370
    18
100
AcDbCircle
 10
80.4166666667
 20
145.482029137
 30
0.0
 40
0.8333333333333428
100
AcDbArc
 50
0.0
 51
90.0
  0
LINE
  5
22C
330
1F
100
AcDbEntity
  8
0
  6
HIDDEN
 62
     7
370
    18
100
AcDbLine
 10
85.1666666667
 20
139.6486958036
 30
0.0
 11
85.1666666667
 21
139.6774459479
 31
0.0
  0
LINE
  5
22D
330
1F
100
AcDbEntity
  8
0
  6
HIDDEN
 62
     7
370
    18
100
AcDbLine
 10
80.8333333333
 20
139.6774459479
 30
0.0
 11
80.8333333333
 21
139.6486958036
 31
0.0
  0
LINE
  5
22E
330
1F
100
AcDbEntity
  8
0
  6
HIDDEN
 62
     7
370
    18
100
AcDbLine
 10
84.75
 20
139.6774459479
 30
0.0
 11
84.75
 21
145.482029137
 31
0.0
  0
LINE
  5
22F
330
1F
100
AcDbEntity
  8
0
  6
HIDDEN
 62
     7
370
    18
100
AcDbLine
 10
81.25
 20
145.482029137
 30
0.0
 11
81.25
 21
139.6774459479
 31
0.0
  0
LINE
  5
230
330
1F
100
AcDbEntity
  8
0
  6
Continuous
 62
     7
370
    25
100
AcDbLine
 10
218.1486958036
 20
71.1666666667
 30
0.0
 11
211.3153624703
 21
71.1666666667
 31
0.0
  0
LINE
  5
231
330
1F
100
AcDbEntity
  8
0
  6
Continuous
 62
     7
370
    25
100
AcDbLine
 10
211.3153624703
 20
67.8333333333
 30
0.0
 11
218.1486958036
 21
67.8333333333
 31
0.0
  0
ARC
  5
232
330
1F
100
AcDbEntity
  8
0
  6
Continuous
 62
     7
370
    25
100
AcDbCircle
 10
207.3153624703
 20
104.6666666667
 30
0.0
 40
2.333333333333343
100
AcDbArc
 50
0.0
 51
90.0
  0
ARC
  5
233
330
1F
100
AcDbEntity
  8
0
  6
Continuous
 62
     7
370
    25
100
AcDbCircle
 10
207.3153624703
 20
34.3333333333
 30
0.0
 40
2.333333333333343
100
AcDbArc
 50
270.0
 51
0.0
  0
ARC
  5
234
330
1F
100
AcDbEntity
  8
0
  6
Continuous
 62
     7
370
    25
100
AcDbCircle
 10
206.982029137
 20
104.6666666667
 30
0.0
 40
2.333333333333329
100
AcDbArc
 50
90.0
 51
180.0
  0
ARC
  5
235
330
1F
100
AcDbEntity
  8
0
  6
Continuous
 62
     7
370
    25
100
AcDbCircle
 10
206.982029137
 20
34.3333333333
 30
0.0
 40
2.333333333333329
100
AcDbArc
 50
180.0
 51
270.0
  0
LINE
  5
236
330
1F
100
AcDbEntity
  8
0
  6
Continuous
 62
     7
370
    25
100
AcDbLine
 10
206.982029137
 20
32.0
 30
0.0
 11
207.3153624703
 21
32.0
 31
0.0
  0
LINE
  5
237
330
1F
100
AcDbEntity
  8
0
  6
Continuous
 62
     7
370
    25
100
AcDbLine
 10
207.3153624703
 20
107.0
 30
0.0
 11
206.982029137
 21
107.0
 31
0.0
  0
LINE
  5
238
330
1F
100
AcDbEntity
  8
0
  6
Continuous
 62
     7
370
    25
100
AcDbLine
 10
209.6486958036
 20
61.1666666667
 30
0.0
 11
211.3153624703
 21
61.1666666667
 31
0.0
  0
LINE
  5
239
330
1F
100
AcDbEntity
  8
0
  6
Continuous
 62
     7
370
    25
100
AcDbLine
 10
211.3153624703
 20
77.8333333333
 30
0.0
 11
209.6486958036
 21
77.8333333333
 31
0.0
  0
LINE
  5
23A
330
1F
100
AcDbEntity
  8
0
  6
Continuous
 62
     7
370
    25
100
AcDbLine
 10
241.4832392412
 20
78.6666666667
 30
0.0
 11
239.3177826787
 21
78.6666666667
 31
0.0
  0
LINE
  5
23B
330
1F
100
AcDbEntity
  8
0
  6
Continuous
 62
     7
370
    25
100
AcDbLine
 10
241.4832392412
 20
77.0
 30
0.0
 11
241.4832392412
 21
78.6666666667
 31
0.0
  0
LINE
  5
23C
330
1F
100
AcDbEntity
  8
0
  6
Continuous
 62
     7
370
    25
100
AcDbLine
 10
239.3177826787
 20
7.0
 30
0.0
 11
241.4832392412
 21
7.0
 31
0.0
  0
LINE
  5
23D
330
1F
100
AcDbEntity
  8
0
  6
Continuous
 62
     7
370
    25
100
AcDbLine
 10
241.4832392412
 20
7.0
 30
0.0
 11
241.4832392412
 21
8.6666666667
 31
0.0
  0
LINE
  5
23E
330
1F
100
AcDbEntity
  8
0
  6
Continuous
 62
     7
370
    25
100
AcDbLine
 10
239.3177826787
 20
77.0
 30
0.0
 11
239.3177826787
 21
8.6666666667
 31
0.0
  0
LINE
  5
23F
330
1F
100
AcDbEntity
  8
0
  6
Continuous
 62
     7
370
    25
100
AcDbLine
 10
241.4832392412
 20
8.6666666667
 30
0.0
 11
241.4832392412
 21
77.0
 31
0.0
  0
LINE
  5
240
330
1F
100
AcDbEntity
  8
0
  6
Continuous
 62
     7
370
    25
100
AcDbLine
 10
231.9832392412
 20
27.9687097264
 30
0.0
 11
230.3177826787
 21
27.9687097264
 31
0.0
  0
LINE
  5
241
330
1F
100
AcDbEntity
  8
0
  6
Continuous
 62
     7
370
    25
100
AcDbLine
 10
230.3177826787
 20
27.9687097264
 30
0.0
 11
230.3177826787
 21
34.0809051632
 31
0.0
  0
LINE
  5
242
330
1F
100
AcDbEntity
  8
0
  6
Continuous
 62
     7
370
    25
100
AcDbLine
 10
230.3177826787
 20
77.8952463597
 30
0.0
 11
230.3177826787
 21
78.6666666667
 31
0.0
  0
LINE
  5
243
330
1F
100
AcDbEntity
  8
0
  6
Continuous
 62
     7
370
    25
100
AcDbLine
 10
230.3177826787
 20
78.6666666667
 30
0.0
 11
233.982029137
 21
78.6666666667
 31
0.0
  0
LINE
  5
244
330
1F
100
AcDbEntity
  8
0
  6
Continuous
 62
     7
370
    25
100
AcDbLine
 10
231.9832392412
 20
78.2458687939
 30
0.0
 11
231.9832392412
 21
77.285076074
 31
0.0
  0
LINE
  5
245
330
1F
100
AcDbEntity
  8
0
  6
Continuous
 62
     7
370
    25
100
AcDbLine
 10
231.9832392412
 20
35.0210886726
 30
0.0
 11
231.9832392412
 21
7.0
 31
0.0
  0
LINE
  5
246
330
1F
100
AcDbEntity
  8
0
  6
Continuous
 62
     7
370
    25
100
AcDbLine
 10
231.9832392412
 20
78.2458687939
 30
0.0
 11
233.982029137
 21
78.6666666667
 31
0.0
  0
LINE
  5
247
330
1F
100
AcDbEntity
  8
0
  6
Continuous
 62
     7
370
    25
100
AcDbLine
 10
233.982029137
 20
78.6666666667
 30
0.0
 11
239.3177826787
 21
78.6666666667
 31
0.0
  0
LINE
  5
248
330
1F
100
AcDbEntity
  8
0
  6
Continuous
 62
     7
370
    25
100
AcDbLine
 10
239.3177826787
 20
7.0
 30
0.0
 11
231.9832392412
 21
7.0
 31
0.0
  0
LINE
  5
249
330
1F
100
AcDbEntity
  8
0
  6
Continuous
 62
     7
370
    25
100
AcDbLine
 10
239.3177826787
 20
7.0
 30
0.0
 11
239.3177826787
 21
78.6666666667
 31
0.0
  0
LINE
  5
24A
330
1F
100
AcDbEntity
  8
0
  6
Continuous
 62
     7
370
    25
100
AcDbLine
 10
218.1486958036
 20
75.3333333333
 30
0.0
 11
218.1486958036
 21
73.6301326457
 31
0.0
  0
LINE
  5
24B
330
1F
100
AcDbEntity
  8
0
  6
Continuous
 62
     7
370
    25
100
AcDbLine
 10
231.9832392412
 20
78.2458687939
 30
0.0
 11
218.1486958036
 21
75.3333333333
 31
0.0
  0
LINE
  5
24C
330
1F
100
AcDbEntity
  8
0
  6
Continuous
 62
     7
370
    25
100
AcDbLine
 10
231.9832392412
 20
76.5426681062
 30
0.0
 11
231.9832392412
 21
77.285076074
 31
0.0
  0
LINE
  5
24D
330
1F
100
AcDbEntity
  8
0
  6
Continuous
 62
     7
370
    25
100
AcDbLine
 10
218.1486958036
 20
34.0809051632
 30
0.0
 11
231.9832392412
 21
34.0809051632
 31
0.0
  0
LINE
  5
24E
330
1F
100
AcDbEntity
  8
0
  6
Continuous
 62
     7
370
    25
100
AcDbLine
 10
218.1486958036
 20
35.7475718299
 30
0.0
 11
218.1486958036
 21
34.0809051632
 31
0.0
  0
LINE
  5
24F
330
1F
100
AcDbEntity
  8
0
  6
Continuous
 62
     7
370
    25
100
AcDbLine
 10
231.9832392412
 20
35.0210886726
 30
0.0
 11
231.9832392412
 21
35.7475718299
 31
0.0
  0
LINE
  5
250
330
1F
100
AcDbEntity
  8
0
  6
Continuous
 62
     7
370
    25
100
AcDbLine
 10
218.1486958036
 20
35.7475718299
 30
0.0
 11
218.1486958036
 21
73.6301326457
 31
0.0
  0
LINE
  5
251
330
1F
100
AcDbEntity
  8
0
  6
Continuous
 62
     7
370
    25
100
AcDbLine
 10
231.9832392412
 20
35.7475718299
 30
0.0
 11
231.9832392412
 21
76.5426681062
 31
0.0
  0
LINE
  5
252
330
1F
100
AcDbEntity
  8
0
  6
Continuous
 62
     7
370
    25
100
AcDbLine
 10
209.6486958036
 20
34.3333333333
 30
0.0
 11
209.6486958036
 21
104.6666666667
 31
0.0
  0
LINE
  5
253
330
1F
100
AcDbEntity
  8
0
  6
Continuous
 62
     7
370
    25
100
AcDbLine
 10
204.6486958036
 20
104.6666666667
 30
0.0
 11
204.6486958036
 21
34.3333333333
 31
0.0
  0
LINE
  5
254
330
1F
100
AcDbEntity
  8
0
  6
Continuous
 62
     7
370
    25
100
AcDbLine
 10
211.3153624703
 20
69.5
 30
0.0
 11
211.3153624703
 21
77.8333333333
 31
0.0
  0
LINE
  5
255
330
1F
100
AcDbEntity
  8
0
  6
Continuous
 62
     7
370
    25
100
AcDbLine
 10
211.3153624703
 20
61.1666666667
 30
0.0
 11
211.3153624703
 21
69.5
 31
0.0
  0
LINE
  5
256
330
1F
100
AcDbEntity
  8
0
  6
HIDDEN
 62
     7
370
    18
100
AcDbLine
 10
207.1486958036
 20
69.5
 30
0.0
 11
207.1486958036
 21
67.8333333333
 31
0.0
  0
LINE
  5
257
330
1F
100
AcDbEntity
  8
0
  6
HIDDEN
 62
     7
370
    18
100
AcDbLine
 10
207.1486958036
 20
71.1666666667
 30
0.0
 11
207.1486958036
 21
69.5
 31
0.0
  0
LINE
  5
258
330
1F
100
AcDbEntity
  8
0
  6
HIDDEN
 62
     7
370
    18
100
AcDbLine
 10
228.6511160121
 20
68.346460513
 30
0.0
 11
228.6511160121
 21
44.1797938464
 31
0.0
  0
LINE
  5
259
330
1F
100
AcDbEntity
  8
0
  6
HIDDEN
 62
     7
370
    18
100
AcDbLine
 10
231.9844493454
 20
44.1797938464
 30
0.0
 11
231.9844493454
 21
68.346460513
 31
0.0
  0
LINE
  5
25A
330
1F
100
AcDbEntity
  8
0
  6
HIDDEN
 62
     7
370
    18
100
AcDbLine
 10
238.6511160121
 20
51.6797938464
 30
0.0
 11
238.6511160121
 21
60.846460513
 31
0.0
  0
LINE
  5
25B
330
1F
100
AcDbEntity
  8
0
  6
HIDDEN
 62
     7
370
    18
100
AcDbLine
 10
241.3279319093
 20
41.8932389812
 30
0.0
 11
241.3279319093
 21
42.8099056479
 31
0.0
  0
LINE
  5
25C
330
1F
100
AcDbEntity
  8
0
  6
HIDDEN
 62
     7
370
    18
100
AcDbLine
 10
241.3279319093
 20
40.9765723145
 30
0.0
 11
241.3279319093
 21
41.8932389812
 31
0.0
  0
LINE
  5
25D
330
1F
100
AcDbEntity
  8
0
  6
HIDDEN
 62
     7
370
    18
100
AcDbLine
 10
233.3177826787
 20
50.8000959132
 30
0.0
 11
233.3177826787
 21
49.2925895304
 31
0.0
  0
LINE
  5
25E
330
1F
100
AcDbEntity
  8
0
  6
HIDDEN
 62
     7
370
    18
100
AcDbLine
 10
236.7296089285
 20
60.8216838204
 30
0.0
 11
239.3177826787
 21
60.8216838204
 31
0.0
  0
LINE
  5
25F
330
1F
100
AcDbEntity
  8
0
  6
HIDDEN
 62
     7
370
    18
100
AcDbLine
 10
236.7296089285
 20
60.8216838204
 30
0.0
 11
236.7296089285
 21
56.2631271797
 31
0.0
  0
LINE
  5
260
330
1F
100
AcDbEntity
  8
0
  6
HIDDEN
 62
     7
370
    18
100
AcDbLine
 10
233.3177826787
 20
43.6821717849
 30
0.0
 11
231.9832392412
 21
43.6821717849
 31
0.0
  0
LINE
  5
261
330
1F
100
AcDbEntity
  8
0
  6
HIDDEN
 62
     7
370
    18
100
AcDbLine
 10
233.3177826787
 20
49.2925895304
 30
0.0
 11
233.3177826787
 21
43.6821717849
 31
0.0
  0
LINE
  5
262
330
1F
100
AcDbEntity
  8
0
  6
HIDDEN
 62
     7
370
    18
100
AcDbLine
 10
236.7296089285
 20
78.6666666667
 30
0.0
 11
236.7296089285
 21
60.8216838204
 31
0.0
  0
LINE
  5
263
330
1F
100
AcDbEntity
  8
0
  6
HIDDEN
 62
     7
370
    18
100
AcDbLine
 10
233.3177826787
 20
62.3582124097
 30
0.0
 11
231.9832392412
 21
62.3582124097
 31
0.0
  0
LINE
  5
264
330
1F
100
AcDbEntity
  8
0
  6
HIDDEN
 62
     7
370
    18
100
AcDbLine
 10
233.3177826787
 20
43.346460513
 30
0.0
 11
233.3177826787
 21
43.6821717849
 31
0.0
  0
LINE
  5
265
330
1F
100
AcDbEntity
  8
0
  6
HIDDEN
 62
     7
370
    18
100
AcDbLine
 10
241.4832392412
 20
57.5763436257
 30
0.0
 11
241.3279319093
 21
57.5763436257
 31
0.0
  0
LINE
  5
266
330
1F
100
AcDbEntity
  8
0
  6
HIDDEN
 62
     7
370
    18
100
AcDbLine
 10
241.3279319093
 20
57.5763436257
 30
0.0
 11
241.3279319093
 21
55.4030646272
 31
0.0
  0
LINE
  5
267
330
1F
100
AcDbEntity
  8
0
  6
HIDDEN
 62
     7
370
    18
100
AcDbLine
 10
241.3279319093
 20
55.4030646272
 30
0.0
 11
241.4832392412
 21
55.4030646272
 31
0.0
  0
LINE
  5
268
330
1F
100
AcDbEntity
  8
0
  6
HIDDEN
 62
     7
370
    18
100
AcDbLine
 10
241.3279319093
 20
59.2996144066
 30
0.0
 11
241.3279319093
 21
57.5763436257
 31
0.0
  0
LINE
  5
269
330
1F
100
AcDbEntity
  8
0
  6
HIDDEN
 62
     7
370
    18
100
AcDbLine
 10
234.8177826787
 20
27.9687097264
 30
0.0
 11
231.9832392412
 21
27.9687097264
 31
0.0
  0
LINE
  5
26A
330
1F
100
AcDbEntity
  8
0
  6
HIDDEN
 62
     7
370
    18
100
AcDbLine
 10
230.3177826787
 20
34.0809051632
 30
0.0
 11
230.3177826787
 21
77.8952463597
 31
0.0
  0
LINE
  5
26B
330
1F
100
AcDbEntity
  8
0
  6
HIDDEN
 62
     7
370
    18
100
AcDbLine
 10
234.8177826787
 20
27.9687097264
 30
0.0
 11
234.8177826787
 21
35.2652157825
 31
0.0
  0
LINE
  5
26C
330
1F
100
AcDbEntity
  8
0
  6
HIDDEN
 62
     7
370
    18
100
AcDbLine
 10
234.8177826787
 20
35.2652157825
 30
0.0
 11
239.3177826787
 21
35.2652157825
 31
0.0
  0
LINE
  5
26D
330
1F
100
AcDbEntity
  8
0
  6
HIDDEN
 62
     7
370
    18
100
AcDbLine
 10
236.3962755952
 20
69.5
 30
0.0
 11
236.3962755952
 21
77.8333333333
 31
0.0
  0
LINE
  5
26E
330
1F
100
AcDbEntity
  8
0
  6
HIDDEN
 62
     7
370
    18
100
AcDbLine
 10
236.3962755952
 20
61.1666666667
 30
0.0
 11
236.3962755952
 21
69.5
 31
0.0
  0
LINE
  5
26F
330
1F
100
AcDbEntity
  8
0
  6
HIDDEN
 62
     7
370
    18
100
AcDbLine
 10
233.0629422618
 20
69.5
 30
0.0
 11
233.0629422618
 21
61.1666666667
 31
0.0
  0
LINE
  5
270
330
1F
100
AcDbEntity
  8
0
  6
HIDDEN
 62
     7
370
    18
100
AcDbLine
 10
233.0629422618
 20
77.8333333333
 30
0.0
 11
233.0629422618
 21
69.5
 31
0.0
  0
LINE
  5
271
330
1F
100
AcDbEntity
  8
0
  6
HIDDEN
 62
     7
370
    18
100
AcDbLine
 10
226.3962755952
 20
69.5
 30
0.0
 11
226.3962755952
 21
64.5
 31
0.0
  0
LINE
  5
272
330
1F
100
AcDbEntity
  8
0
  6
HIDDEN
 62
     7
370
    18
100
AcDbLine
 10
226.3962755952
 20
74.5
 30
0.0
 11
226.3962755952
 21
69.5
 31
0.0
  0
LINE
  5
273
330
1F
100
AcDbEntity
  8
0
  6
HIDDEN
 62
     7
370
    18
100
AcDbLine
 10
233.3177826787
 20
50.8000959132
 30
0.0
 11
233.3177826787
 21
62.6324662333
 31
0.0
  0
LINE
  5
274
330
1F
100
AcDbEntity
  8
0
  6
HIDDEN
 62
     7
370
    18
100
AcDbLine
 10
233.3177826787
 20
62.6324662333
 30
0.0
 11
231.9832392412
 21
62.6324662333
 31
0.0
  0
LINE
  5
275
330
1F
100
AcDbEntity
  8
0
  6
HIDDEN
 62
     7
370
    18
100
AcDbLine
 10
231.9832392412
 20
50.8000959132
 30
0.0
 11
233.3177826787
 21
50.8000959132
 31
0.0
  0
LINE
  5
276
330
1F
100
AcDbEntity
  8
0
  6
HIDDEN
 62
     7
370
    18
100
AcDbLine
 10
231.8607811349
 20
65.0696130471
 30
0.0
 11
228.3177826787
 21
65.0696130471
 31
0.0
  0
LINE
  5
277
330
1F
100
AcDbEntity
  8
0
  6
HIDDEN
 62
     7
370
    18
100
AcDbLine
 10
231.8607811349
 20
65.0696130471
 30
0.0
 11
231.8607811349
 21
62.3582124097
 31
0.0
  0
LINE
  5
278
330
1F
100
AcDbEntity
  8
0
  6
HIDDEN
 62
     7
370
    18
100
AcDbLine
 10
231.8607811349
 20
62.3582124097
 30
0.0
 11
231.9832392412
 21
62.3582124097
 31
0.0
  0
LINE
  5
279
330
1F
100
AcDbEntity
  8
0
  6
HIDDEN
 62
     7
370
    18
100
AcDbLine
 10
231.9832392412
 20
68.9548170583
 30
0.0
 11
231.8607811349
 21
68.9548170583
 31
0.0
  0
LINE
  5
27A
330
1F
100
AcDbEntity
  8
0
  6
HIDDEN
 62
     7
370
    18
100
AcDbLine
 10
228.3177826787
 20
69.1464422332
 30
0.0
 11
231.8607811349
 21
69.1464422332
 31
0.0
  0
LINE
  5
27B
330
1F
100
AcDbEntity
  8
0
  6
HIDDEN
 62
     7
370
    18
100
AcDbLine
 10
228.3177826787
 20
69.1797938464
 30
0.0
 11
228.3177826787
 21
43.346460513
 31
0.0
  0
LINE
  5
27C
330
1F
100
AcDbEntity
  8
0
  6
HIDDEN
 62
     7
370
    18
100
AcDbLine
 10
220.1745079388
 20
56.2631271797
 30
0.0
 11
220.1745079388
 21
53.6797938464
 31
0.0
  0
LINE
  5
27D
330
1F
100
AcDbEntity
  8
0
  6
HIDDEN
 62
     7
370
    18
100
AcDbLine
 10
220.1745079388
 20
58.846460513
 30
0.0
 11
220.1745079388
 21
56.2631271797
 31
0.0
  0
LINE
  5
27E
330
1F
100
AcDbEntity
  8
0
  6
HIDDEN
 62
     7
370
    18
100
AcDbLine
 10
231.8607811349
 20
78.2200881399
 30
0.0
 11
231.8607811349
 21
68.9548170583
 31
0.0
  0
LINE
  5
27F
330
1F
100
AcDbEntity
  8
0
  6
HIDDEN
 62
     7
370
    18
100
AcDbLine
 10
226.0794786421
 20
69.5
 30
0.0
 11
226.0794786421
 21
64.0833333333
 31
0.0
  0
LINE
  5
280
330
1F
100
AcDbEntity
  8
0
  6
HIDDEN
 62
     7
370
    18
100
AcDbLine
 10
226.0794786421
 20
74.9166666667
 30
0.0
 11
226.0794786421
 21
69.5
 31
0.0
  0
LINE
  5
281
330
1F
100
AcDbEntity
  8
0
  6
HIDDEN
 62
     7
370
    18
100
AcDbLine
 10
231.8607811349
 20
68.9548170583
 30
0.0
 11
231.8607811349
 21
65.0696130471
 31
0.0
  0
LINE
  5
282
330
1F
100
AcDbEntity
  8
0
  6
HIDDEN
 62
     7
370
    18
100
AcDbLine
 10
228.6511160121
 20
43.271435008
 30
0.0
 11
228.6511160121
 21
44.1797938464
 31
0.0
  0
LINE
  5
283
330
1F
100
AcDbEntity
  8
0
  6
HIDDEN
 62
     7
370
    18
100
AcDbLine
 10
228.6511160121
 20
38.271435008
 30
0.0
 11
228.6511160121
 21
43.271435008
 31
0.0
  0
SPLINE
  5
284
330
1F
100
AcDbEntity
  8
0
  6
HIDDEN
 62
     7
370
    18
100
AcDbSpline
210
0.0
220
0.0
230
1.0
 70
     8
 71
     3
 72
    20
 73
    16
 74
     0
 42
0.00000001
 43
0.00000001
 40
0.0
 40
0.0
 40
0.0
 40
0.0
 40
0.1249999999999998
 40
0.1249999999999998
 40
0.2499999999999995
 40
0.2499999999999995
 40
0.3749999999999992
 40
0.3749999999999992
 40
0.499999999999999
 40
0.499999999999999
 40
0.6249999999999988
 40
0.6249999999999988
 40
0.7499999999999984
 40
0.7499999999999984
 40
1.0
 40
1.0
 40
1.0
 40
1.0
 10
206.9820291369629
 20
47.72777904544125
 30
0.0
 10
206.8278709954827
 20
47.72777904544125
 30
0.0
 10
206.6762931844858
 20
47.71706842822307
 30
0.0
 10
206.3780863393257
 20
47.67510546290876
 30
0.0
 10
206.2299103770994
 20
47.64334240083583
 30
0.0
 10
205.9473902640631
 20
47.56043732376709
 30
0.0
 10
205.8134005287684
 20
47.50970811576728
 30
0.0
 10
205.5598262187492
 20
47.38986923085878
 30
0.0
 10
205.4397918317593
 20
47.32013320840223
 30
0.0
 10
205.2246417393635
 20
47.16782596823285
 30
0.0
 10
205.1280926263165
 20
47.08472721931197
 30
0.0
 10
204.9575658661883
 20
46.90431217298625
 30
0.0
 10
204.8851150720604
 20
46.80828783752293
 30
0.0
 10
204.7105368479388
 20
46.51048126323138
 30
0.0
 10
204.6486958036296
 20
46.29384031561529
 30
0.0
 10
204.6486958036296
 20
46.07583529576273
 30
0.0
  0
SPLINE
  5
285
330
1F
100
AcDbEntity
  8
0
  6
HIDDEN
 62
     7
370
    18
100
AcDbSpline
210
0.0
220
0.0
230
1.0
 70
    24
 71
     3
 72
    20
 73
    16
 74
     0
 42
0.00000001
 43
0.00000001
 40
0.0
 40
0.0
 40
0.0
 40
0.0
 40
0.1250000000000003
 40
0.1250000000000003
 40
0.2500000000000006
 40
0.2500000000000006
 40
0.3750000000000008
 40
0.3750000000000008
 40
0.5000000000000011
 40
0.5000000000000011
 40
0.6250000000000013
 40
0.6250000000000013
 40
0.7500000000000017
 40
0.7500000000000017
 40
1.0
 40
1.0
 40
1.0
 40
1.0
 10
204.6486958036296
 20
67.83333333333333
 30
0.0
 10
204.6486958036296
 20
67.83333333333333
 30
0.0
 10
204.6637882971038
 20
67.83333333333333
 30
0.0
 10
204.7229244981706
 20
67.83333333333333
 30
0.0
 10
204.767680038136
 20
67.83333333333333
 30
0.0
 10
204.8845715422724
 20
67.83333333333333
 30
0.0
 10
204.9561070165565
 20
67.83333333333333
 30
0.0
 10
205.1251216572882
 20
67.83333333333333
 30
0.0
 10
205.2235298550737
 20
67.83333333333333
 30
0.0
 10
205.438547551425
 20
67.83333333333333
 30
0.0
 10
205.5558747710594
 20
67.83333333333333
 30
0.0
 10
205.8106291784245
 20
67.83333333333333
 30
0.0
 10
205.9464211403069
 20
67.83333333333333
 30
0.0
 10
206.3673516760657
 20
67.83333333333333
 30
0.0
 10
206.6737062571736
 20
67.83333333333333
 30
0.0
 10
206.9820291369629
 20
67.83333333333333
 30
0.0
  0
SPLINE
  5
286
330
1F
100
AcDbEntity
  8
0
  6
HIDDEN
 62
     7
370
    18
100
AcDbSpline
210
0.0
220
0.0
230
1.0
 70
     8
 71
     3
 72
    20
 73
    16
 74
     0
 42
0.00000001
 43
0.00000001
 40
0.0
 40
0.0
 40
0.0
 40
0.0
 40
0.1249999999999995
 40
0.1249999999999995
 40
0.2499999999999989
 40
0.2499999999999989
 40
0.3749999999999984
 40
0.3749999999999984
 40
0.4999999999999979
 40
0.4999999999999979
 40
0.6249999999999973
 40
0.6249999999999973
 40
0.7499999999999969
 40
0.7499999999999969
 40
1.0
 40
1.0
 40
1.0
 40
1.0
 10
207.3153624702962
 20
91.27222095455487
 30
0.0
 10
207.4695206117765
 20
91.27222095455488
 30
0.0
 10
207.6210984227733
 20
91.28293157177306
 30
0.0
 10
207.9193052679335
 20
91.32489453708736
 30
0.0
 10
208.0674812301597
 20
91.35665759916031
 30
0.0
 10
208.350001343196
 20
91.43956267622906
 30
0.0
 10
208.4839910784907
 20
91.49029188422885
 30
0.0
 10
208.7375653885099
 20
91.61013076913734
 30
0.0
 10
208.8575997754999
 20
91.67986679159391
 30
0.0
 10
209.0727498678956
 20
91.83217403176327
 30
0.0
 10
209.1692989809426
 20
91.91527278068416
 30
0.0
 10
209.3398257410708
 20
92.09568782700988
 30
0.0
 10
209.4122765351987
 20
92.19171216247322
 30
0.0
 10
209.5868547593203
 20
92.4895187367648
 30
0.0
 10
209.6486958036296
 20
92.70615968438084
 30
0.0
 10
209.6486958036296
 20
92.92416470423339
 30
0.0
  0
SPLINE
  5
287
330
1F
100
AcDbEntity
  8
0
  6
HIDDEN
 62
     7
370
    18
100
AcDbSpline
210
0.0
220
0.0
230
1.0
 70
    24
 71
     3
 72
    20
 73
    16
 74
     0
 42
0.00000001
 43
0.00000001
 40
0.0
 40
0.0
 40
0.0
 40
0.0
 40
0.125
 40
0.125
 40
0.25
 40
0.25
 40
0.375
 40
0.375
 40
0.5
 40
0.5
 40
0.625
 40
0.625
 40
0.75
 40
0.75
 40
1.0
 40
1.0
 40
1.0
 40
1.0
 10
209.6486958036296
 20
71.16666666666667
 30
0.0
 10
209.6486958036296
 20
71.16666666666667
 30
0.0
 10
209.6336033101553
 20
71.16666666666667
 30
0.0
 10
209.5744671090885
 20
71.16666666666667
 30
0.0
 10
209.5297115691231
 20
71.16666666666667
 30
0.0
 10
209.4128200649867
 20
71.16666666666667
 30
0.0
 10
209.3412845907027
 20
71.16666666666667
 30
0.0
 10
209.172269949971
 20
71.16666666666667
 30
0.0
 10
209.0738617521855
 20
71.16666666666667
 30
0.0
 10
208.8588440558341
 20
71.16666666666667
 30
0.0
 10
208.7415168361998
 20
71.16666666666667
 30
0.0
 10
208.4867624288347
 20
71.16666666666667
 30
0.0
 10
208.3509704669522
 20
71.16666666666667
 30
0.0
 10
207.9300399311935
 20
71.16666666666667
 30
0.0
 10
207.6236853500855
 20
71.16666666666667
 30
0.0
 10
207.3153624702962
 20
71.16666666666667
 30
0.0
  0
SPLINE
  5
288
330
1F
100
AcDbEntity
  8
0
  6
HIDDEN
 62
     7
370
    18
100
AcDbSpline
210
0.0
220
0.0
230
1.0
 70
     8
 71
     3
 72
    20
 73
    16
 74
     0
 42
0.00000001
 43
0.00000001
 40
0.0
 40
0.0
 40
0.0
 40
0.0
 40
0.1249999999999999
 40
0.1249999999999999
 40
0.2499999999999998
 40
0.2499999999999998
 40
0.3749999999999998
 40
0.3749999999999998
 40
0.4999999999999997
 40
0.4999999999999997
 40
0.6249999999999996
 40
0.6249999999999996
 40
0.7499999999999996
 40
0.7499999999999996
 40
1.0
 40
1.0
 40
1.0
 40
1.0
 10
209.6486958036296
 20
46.07583529576281
 30
0.0
 10
209.6486958036296
 20
46.18484020699872
 30
0.0
 10
209.6336033101553
 20
46.29202797466822
 30
0.0
 10
209.5744671090885
 20
46.50291776972408
 30
0.0
 10
209.5297115691231
 20
46.60770642455719
 30
0.0
 10
209.4128200649867
 20
46.80761053083814
 30
0.0
 10
209.3412845907026
 20
46.9024329784722
 30
0.0
 10
209.172269949971
 20
47.08191104941942
 30
0.0
 10
209.0738617521855
 20
47.16692946940019
 30
0.0
 10
208.8588440558341
 20
47.31936055936641
 30
0.0
 10
208.7415168361998
 20
47.38777261456145
 30
0.0
 10
208.4867624288346
 20
47.50862158116706
 30
0.0
 10
208.3509704669522
 20
47.56004853748701
 30
0.0
 10
207.9300399311935
 20
47.68388100113965
 30
0.0
 10
207.6236853500855
 20
47.72777904544125
 30
0.0
 10
207.3153624702962
 20
47.72777904544125
 30
0.0
  0
SPLINE
  5
289
330
1F
100
AcDbEntity
  8
0
  6
HIDDEN
 62
     7
370
    18
100
AcDbSpline
210
0.0
220
0.0
230
1.0
 70
    24
 71
     3
 72
    20
 73
    16
 74
     0
 42
0.00000001
 43
0.00000001
 40
0.0
 40
0.0
 40
0.0
 40
0.0
 40
0.1250000000000001
 40
0.1250000000000001
 40
0.2500000000000002
 40
0.2500000000000002
 40
0.3750000000000002
 40
0.3750000000000002
 40
0.5000000000000003
 40
0.5000000000000003
 40
0.6250000000000004
 40
0.6250000000000004
 40
0.7500000000000004
 40
0.7500000000000004
 40
1.0
 40
1.0
 40
1.0
 40
1.0
 10
207.3153624702962
 20
67.83333333333333
 30
0.0
 10
207.4695206117765
 20
67.83333333333333
 30
0.0
 10
207.6210984227733
 20
67.83333333333333
 30
0.0
 10
207.9193052679335
 20
67.83333333333333
 30
0.0
 10
208.0674812301597
 20
67.83333333333333
 30
0.0
 10
208.350001343196
 20
67.83333333333334
 30
0.0
 10
208.4839910784907
 20
67.83333333333333
 30
0.0
 10
208.7375653885099
 20
67.83333333333333
 30
0.0
 10
208.8575997754999
 20
67.83333333333333
 30
0.0
 10
209.0727498678956
 20
67.83333333333333
 30
0.0
 10
209.1692989809426
 20
67.83333333333333
 30
0.0
 10
209.3398257410708
 20
67.83333333333333
 30
0.0
 10
209.4122765351987
 20
67.83333333333333
 30
0.0
 10
209.5868547593203
 20
67.83333333333333
 30
0.0
 10
209.6486958036296
 20
67.83333333333333
 30
0.0
 10
209.6486958036296
 20
67.83333333333333
 30
0.0
  0
SPLINE
  5
28A
330
1F
100
AcDbEntity
  8
0
  6
HIDDEN
 62
     7
370
    18
100
AcDbSpline
210
0.0
220
0.0
230
1.0
 70
     8
 71
     3
 72
    20
 73
    16
 74
     0
 42
0.00000001
 43
0.00000001
 40
0.0
 40
0.0
 40
0.0
 40
0.0
 40
0.1249999999999998
 40
0.1249999999999998
 40
0.2499999999999996
 40
0.2499999999999996
 40
0.3749999999999994
 40
0.3749999999999994
 40
0.4999999999999992
 40
0.4999999999999992
 40
0.624999999999999
 40
0.624999999999999
 40
0.7499999999999989
 40
0.7499999999999989
 40
1.0
 40
1.0
 40
1.0
 40
1.0
 10
204.6486958036296
 20
92.92416470423339
 30
0.0
 10
204.6486958036296
 20
92.8151597929975
 30
0.0
 10
204.6637882971038
 20
92.70797202532802
 30
0.0
 10
204.7229244981706
 20
92.49708223027214
 30
0.0
 10
204.767680038136
 20
92.39229357543903
 30
0.0
 10
204.8845715422723
 20
92.19238946915806
 30
0.0
 10
204.9561070165564
 20
92.097567021524
 30
0.0
 10
205.1251216572881
 20
91.91808895057673
 30
0.0
 10
205.2235298550736
 20
91.83307053059598
 30
0.0
 10
205.438547551425
 20
91.68063944062975
 30
0.0
 10
205.5558747710593
 20
91.61222738543471
 30
0.0
 10
205.8106291784245
 20
91.49137841882911
 30
0.0
 10
205.9464211403069
 20
91.43995146250913
 30
0.0
 10
206.3673516760657
 20
91.3161189988565
 30
0.0
 10
206.6737062571736
 20
91.2722209545549
 30
0.0
 10
206.9820291369629
 20
91.27222095455487
 30
0.0
  0
SPLINE
  5
28B
330
1F
100
AcDbEntity
  8
0
  6
HIDDEN
 62
     7
370
    18
100
AcDbSpline
210
0.0
220
0.0
230
1.0
 70
    24
 71
     3
 72
    20
 73
    16
 74
     0
 42
0.00000001
 43
0.00000001
 40
0.0
 40
0.0
 40
0.0
 40
0.0
 40
0.125
 40
0.125
 40
0.25
 40
0.25
 40
0.375
 40
0.375
 40
0.5
 40
0.5
 40
0.625
 40
0.625
 40
0.75
 40
0.75
 40
1.0
 40
1.0
 40
1.0
 40
1.0
 10
206.9820291369629
 20
71.16666666666667
 30
0.0
 10
206.8278709954827
 20
71.16666666666667
 30
0.0
 10
206.6762931844858
 20
71.16666666666667
 30
0.0
 10
206.3780863393257
 20
71.16666666666667
 30
0.0
 10
206.2299103770994
 20
71.16666666666667
 30
0.0
 10
205.9473902640631
 20
71.16666666666667
 30
0.0
 10
205.8134005287684
 20
71.16666666666667
 30
0.0
 10
205.5598262187492
 20
71.16666666666667
 30
0.0
 10
205.4397918317593
 20
71.16666666666667
 30
0.0
 10
205.2246417393635
 20
71.16666666666667
 30
0.0
 10
205.1280926263165
 20
71.16666666666667
 30
0.0
 10
204.9575658661883
 20
71.16666666666667
 30
0.0
 10
204.8851150720604
 20
71.16666666666667
 30
0.0
 10
204.7105368479388
 20
71.16666666666667
 30
0.0
 10
204.6486958036296
 20
71.16666666666667
 30
0.0
 10
204.6486958036296
 20
71.16666666666667
 30
0.0
  0
LINE
  5
28C
330
1F
100
AcDbEntity
  8
0
  6
HIDDEN
 62
     7
370
    18
100
AcDbLine
 10
207.3153624703
 20
67.8333333333
 30
0.0
 11
206.982029137
 21
67.8333333333
 31
0.0
  0
LINE
  5
28D
330
1F
100
AcDbEntity
  8
0
  6
HIDDEN
 62
     7
370
    18
100
AcDbLine
 10
206.982029137
 20
71.1666666667
 30
0.0
 11
207.3153624703
 21
71.1666666667
 31
0.0
  0
LINE
  5
28E
330
1F
100
AcDbEntity
  8
0
  6
HIDDEN
 62
     7
370
    18
100
AcDbLine
 10
209.6486958036
 20
74.0949913899
 30
0.0
 11
204.6486958036
 21
74.0949913899
 31
0.0
  0
LINE
  5
28F
330
1F
100
AcDbEntity
  8
0
  6
HIDDEN
 62
     7
370
    18
100
AcDbLine
 10
207.3153624703
 20
91.2722209546
 30
0.0
 11
206.982029137
 21
91.2722209546
 31
0.0
  0
LINE
  5
290
330
1F
100
AcDbEntity
  8
0
  6
HIDDEN
 62
     7
370
    18
100
AcDbLine
 10
204.6486958036
 20
64.9050086101
 30
0.0
 11
209.6486958036
 21
64.9050086101
 31
0.0
  0
LINE
  5
291
330
1F
100
AcDbEntity
  8
0
  6
HIDDEN
 62
     7
370
    18
100
AcDbLine
 10
206.982029137
 20
47.7277790454
 30
0.0
 11
207.3153624703
 21
47.7277790454
 31
0.0
  0
SPLINE
  5
292
330
1F
100
AcDbEntity
  8
0
  6
HIDDEN
 62
     7
370
    18
100
AcDbSpline
210
0.0
220
0.0
230
1.0
 70
     8
 71
     3
 72
    20
 73
    16
 74
     0
 42
0.00000001
 43
0.00000001
 40
0.0
 40
0.0
 40
0.0
 40
0.0
 40
0.1250000000000007
 40
0.1250000000000007
 40
0.2500000000000013
 40
0.2500000000000013
 40
0.375000000000002
 40
0.375000000000002
 40
0.5000000000000027
 40
0.5000000000000027
 40
0.6250000000000033
 40
0.6250000000000033
 40
0.750000000000004
 40
0.750000000000004
 40
1.0
 40
1.0
 40
1.0
 40
1.0
 10
207.3153624702962
 20
101.9572368235839
 30
0.0
 10
207.4695206117765
 20
101.9572368235839
 30
0.0
 10
207.6210984227734
 20
101.9723839237153
 30
0.0
 10
207.9193052679335
 20
102.0317285183801
 30
0.0
 10
208.0674812301598
 20
102.0766482715462
 30
0.0
 10
208.350001343196
 20
102.1938937559264
 30
0.0
 10
208.4839910784907
 20
102.2656356898882
 30
0.0
 10
208.7375653885099
 20
102.4351134662254
 30
0.0
 10
208.8575997754999
 20
102.5337350949695
 30
0.0
 10
209.0727498678956
 20
102.7491300596646
 30
0.0
 10
209.1692989809426
 20
102.8666494374048
 30
0.0
 10
209.3398257410709
 20
103.1217948427748
 30
0.0
 10
209.4122765351987
 20
103.2575937603049
 30
0.0
 10
209.5868547593203
 20
103.6787558566319
 30
0.0
 10
209.6486958036296
 20
103.9851324229159
 30
0.0
 10
209.6486958036296
 20
104.2934380786568
 30
0.0
  0
SPLINE
  5
293
330
1F
100
AcDbEntity
  8
0
  6
HIDDEN
 62
     7
370
    18
100
AcDbSpline
210
0.0
220
0.0
230
1.0
 70
     8
 71
     3
 72
    20
 73
    16
 74
     0
 42
0.00000001
 43
0.00000001
 40
0.0
 40
0.0
 40
0.0
 40
0.0
 40
0.1249999999999998
 40
0.1249999999999998
 40
0.2499999999999996
 40
0.2499999999999996
 40
0.3749999999999994
 40
0.3749999999999994
 40
0.4999999999999992
 40
0.4999999999999992
 40
0.624999999999999
 40
0.624999999999999
 40
0.7499999999999989
 40
0.7499999999999989
 40
1.0
 40
1.0
 40
1.0
 40
1.0
 10
209.6486958036296
 20
95.2811873081881
 30
0.0
 10
209.6486958036296
 20
95.17218239695218
 30
0.0
 10
209.6336033101553
 20
95.0649946292827
 30
0.0
 10
209.5744671090885
 20
94.85410483422682
 30
0.0
 10
209.5297115691231
 20
94.7493161793937
 30
0.0
 10
209.4128200649868
 20
94.54941207311275
 30
0.0
 10
209.3412845907027
 20
94.45458962547868
 30
0.0
 10
209.172269949971
 20
94.27511155453143
 30
0.0
 10
209.0738617521856
 20
94.19009313455066
 30
0.0
 10
208.8588440558342
 20
94.03766204458441
 30
0.0
 10
208.7415168361998
 20
93.96924998938938
 30
0.0
 10
208.4867624288347
 20
93.84840102278379
 30
0.0
 10
208.3509704669522
 20
93.79697406646382
 30
0.0
 10
207.9300399311935
 20
93.67314160281117
 30
0.0
 10
207.6236853500855
 20
93.62924355850957
 30
0.0
 10
207.3153624702962
 20
93.62924355850954
 30
0.0
  0
SPLINE
  5
294
330
1F
100
AcDbEntity
  8
0
  6
HIDDEN
 62
     7
370
    18
100
AcDbSpline
210
0.0
220
0.0
230
1.0
 70
     8
 71
     3
 72
    20
 73
    16
 74
     0
 42
0.00000001
 43
0.00000001
 40
0.0
 40
0.0
 40
0.0
 40
0.0
 40
0.1250000000000002
 40
0.1250000000000002
 40
0.2500000000000004
 40
0.2500000000000004
 40
0.3750000000000006
 40
0.3750000000000006
 40
0.5000000000000008
 40
0.5000000000000008
 40
0.625000000000001
 40
0.625000000000001
 40
0.7500000000000011
 40
0.7500000000000011
 40
1.0
 40
1.0
 40
1.0
 40
1.0
 10
206.9820291369629
 20
37.04276317641576
 30
0.0
 10
206.8278709954827
 20
37.04276317641575
 30
0.0
 10
206.6762931844858
 20
37.02761607628442
 30
0.0
 10
206.3780863393257
 20
36.96827148161954
 30
0.0
 10
206.2299103770994
 20
36.9233517284535
 30
0.0
 10
205.9473902640631
 20
36.80610624407328
 30
0.0
 10
205.8134005287684
 20
36.73436431011152
 30
0.0
 10
205.5598262187492
 20
36.56488653377424
 30
0.0
 10
205.4397918317593
 20
36.46626490503024
 30
0.0
 10
205.2246417393635
 20
36.25086994033511
 30
0.0
 10
205.1280926263165
 20
36.13335056259493
 30
0.0
 10
204.9575658661883
 20
35.87820515722495
 30
0.0
 10
204.8851150720604
 20
35.74240623969487
 30
0.0
 10
204.7105368479388
 20
35.32124414336788
 30
0.0
 10
204.6486958036296
 20
35.01486757708391
 30
0.0
 10
204.6486958036296
 20
34.706561921343
 30
0.0
  0
SPLINE
  5
295
330
1F
100
AcDbEntity
  8
0
  6
HIDDEN
 62
     7
370
    18
100
AcDbSpline
210
0.0
220
0.0
230
1.0
 70
     8
 71
     3
 72
    20
 73
    16
 74
     0
 42
0.00000001
 43
0.00000001
 40
0.0
 40
0.0
 40
0.0
 40
0.0
 40
0.1250000000000003
 40
0.1250000000000003
 40
0.2500000000000007
 40
0.2500000000000007
 40
0.375000000000001
 40
0.375000000000001
 40
0.5000000000000013
 40
0.5000000000000013
 40
0.6250000000000017
 40
0.6250000000000017
 40
0.750000000000002
 40
0.750000000000002
 40
1.0
 40
1.0
 40
1.0
 40
1.0
 10
204.6486958036296
 20
43.7188126918084
 30
0.0
 10
204.6486958036296
 20
43.82781760304432
 30
0.0
 10
204.6637882971038
 20
43.93500537071379
 30
0.0
 10
204.7229244981706
 20
44.14589516576967
 30
0.0
 10
204.767680038136
 20
44.25068382060279
 30
0.0
 10
204.8845715422723
 20
44.45058792688373
 30
0.0
 10
204.9561070165564
 20
44.54541037451781
 30
0.0
 10
205.1251216572881
 20
44.72488844546506
 30
0.0
 10
205.2235298550736
 20
44.80990686544583
 30
0.0
 10
205.438547551425
 20
44.96233795541206
 30
0.0
 10
205.5558747710593
 20
45.03075001060711
 30
0.0
 10
205.8106291784244
 20
45.15159897721271
 30
0.0
 10
205.9464211403069
 20
45.20302593353269
 30
0.0
 10
206.3673516760656
 20
45.32685839718533
 30
0.0
 10
206.6737062571736
 20
45.37075644148693
 30
0.0
 10
206.9820291369629
 20
45.37075644148693
 30
0.0
  0
SPLINE
  5
296
330
1F
100
AcDbEntity
  8
0
  6
HIDDEN
 62
     7
370
    18
100
AcDbSpline
210
0.0
220
0.0
230
1.0
 70
     8
 71
     3
 72
    20
 73
    16
 74
     0
 42
0.00000001
 43
0.00000001
 40
0.0
 40
0.0
 40
0.0
 40
0.0
 40
0.1249999999999999
 40
0.1249999999999999
 40
0.2499999999999999
 40
0.2499999999999999
 40
0.3749999999999998
 40
0.3749999999999998
 40
0.4999999999999998
 40
0.4999999999999998
 40
0.6249999999999998
 40
0.6249999999999998
 40
0.7499999999999997
 40
0.7499999999999997
 40
1.0
 40
1.0
 40
1.0
 40
1.0
 10
204.6486958036296
 20
104.2934380786568
 30
0.0
 10
204.6486958036296
 20
104.1392818548217
 30
0.0
 10
204.6637882971038
 20
103.987695460063
 30
0.0
 10
204.7229244981706
 20
103.6894522517289
 30
0.0
 10
204.767680038136
 20
103.5412587148811
 30
0.0
 10
204.8845715422723
 20
103.2585516166045
 30
0.0
 10
204.9561070165564
 20
103.1244524251429
 30
0.0
 10
205.1251216572881
 20
102.8706321030608
 30
0.0
 10
205.2235298550736
 20
102.7503979004725
 30
0.0
 10
205.438547551425
 20
102.5348277857149
 30
0.0
 10
205.5558747710593
 20
102.4380785294283
 30
0.0
 10
205.8106291784244
 20
102.2671722818558
 30
0.0
 10
205.9464211403069
 20
102.1944435827566
 30
0.0
 10
206.3673516760656
 20
102.0193180331969
 30
0.0
 10
206.6737062571736
 20
101.9572368235839
 30
0.0
 10
206.9820291369629
 20
101.9572368235839
 30
0.0
  0
SPLINE
  5
297
330
1F
100
AcDbEntity
  8
0
  6
HIDDEN
 62
     7
370
    18
100
AcDbSpline
210
0.0
220
0.0
230
1.0
 70
     8
 71
     3
 72
    20
 73
    16
 74
     0
 42
0.00000001
 43
0.00000001
 40
0.0
 40
0.0
 40
0.0
 40
0.0
 40
0.1250000000000001
 40
0.1250000000000001
 40
0.2500000000000003
 40
0.2500000000000003
 40
0.3750000000000004
 40
0.3750000000000004
 40
0.5000000000000006
 40
0.5000000000000006
 40
0.6250000000000007
 40
0.6250000000000007
 40
0.7500000000000009
 40
0.7500000000000009
 40
1.0
 40
1.0
 40
1.0
 40
1.0
 10
206.9820291369629
 20
93.62924355850954
 30
0.0
 10
206.8278709954827
 20
93.62924355850956
 30
0.0
 10
206.6762931844858
 20
93.63995417572774
 30
0.0
 10
206.3780863393257
 20
93.68191714104205
 30
0.0
 10
206.2299103770994
 20
93.71368020311499
 30
0.0
 10
205.9473902640631
 20
93.79658528018373
 30
0.0
 10
205.8134005287684
 20
93.84731448818353
 30
0.0
 10
205.5598262187492
 20
93.96715337309203
 30
0.0
 10
205.4397918317593
 20
94.03688939554858
 30
0.0
 10
205.2246417393635
 20
94.18919663571795
 30
0.0
 10
205.1280926263165
 20
94.27229538463884
 30
0.0
 10
204.9575658661883
 20
94.45271043096456
 30
0.0
 10
204.8851150720604
 20
94.54873476642788
 30
0.0
 10
204.7105368479388
 20
94.84654134071944
 30
0.0
 10
204.6486958036296
 20
95.06318228833551
 30
0.0
 10
204.6486958036296
 20
95.2811873081881
 30
0.0
  0
SPLINE
  5
298
330
1F
100
AcDbEntity
  8
0
  6
HIDDEN
 62
     7
370
    18
100
AcDbSpline
210
0.0
220
0.0
230
1.0
 70
     8
 71
     3
 72
    20
 73
    16
 74
     0
 42
0.00000001
 43
0.00000001
 40
0.0
 40
0.0
 40
0.0
 40
0.0
 40
0.1249999999999997
 40
0.1249999999999997
 40
0.2499999999999994
 40
0.2499999999999994
 40
0.3749999999999991
 40
0.3749999999999991
 40
0.4999999999999988
 40
0.4999999999999988
 40
0.6249999999999984
 40
0.6249999999999984
 40
0.7499999999999982
 40
0.7499999999999982
 40
1.0
 40
1.0
 40
1.0
 40
1.0
 10
209.6486958036296
 20
34.706561921343
 30
0.0
 10
209.6486958036296
 20
34.86071814517809
 30
0.0
 10
209.6336033101553
 20
35.01230453993681
 30
0.0
 10
209.5744671090885
 20
35.31054774827088
 30
0.0
 10
209.5297115691231
 20
35.45874128511871
 30
0.0
 10
209.4128200649867
 20
35.74144838339529
 30
0.0
 10
209.3412845907026
 20
35.8755475748568
 30
0.0
 10
209.172269949971
 20
36.12936789693894
 30
0.0
 10
209.0738617521855
 20
36.24960209952728
 30
0.0
 10
208.8588440558341
 20
36.46517221428481
 30
0.0
 10
208.7415168361998
 20
36.56192147057146
 30
0.0
 10
208.4867624288346
 20
36.73282771814389
 30
0.0
 10
208.3509704669522
 20
36.80555641724313
 30
0.0
 10
207.9300399311935
 20
36.98068196680277
 30
0.0
 10
207.6236853500855
 20
37.04276317641575
 30
0.0
 10
207.3153624702962
 20
37.04276317641575
 30
0.0
  0
SPLINE
  5
299
330
1F
100
AcDbEntity
  8
0
  6
HIDDEN
 62
     7
370
    18
100
AcDbSpline
210
0.0
220
0.0
230
1.0
 70
     8
 71
     3
 72
    20
 73
    16
 74
     0
 42
0.00000001
 43
0.00000001
 40
0.0
 40
0.0
 40
0.0
 40
0.0
 40
0.1249999999999999
 40
0.1249999999999999
 40
0.2499999999999999
 40
0.2499999999999999
 40
0.3749999999999998
 40
0.3749999999999998
 40
0.4999999999999998
 40
0.4999999999999998
 40
0.6249999999999998
 40
0.6249999999999998
 40
0.7499999999999997
 40
0.7499999999999997
 40
1.0
 40
1.0
 40
1.0
 40
1.0
 10
207.3153624702962
 20
45.37075644148693
 30
0.0
 10
207.4695206117765
 20
45.37075644148693
 30
0.0
 10
207.6210984227734
 20
45.36004582426875
 30
0.0
 10
207.9193052679335
 20
45.31808285895445
 30
0.0
 10
208.0674812301598
 20
45.28631979688151
 30
0.0
 10
208.350001343196
 20
45.20341471981276
 30
0.0
 10
208.4839910784907
 20
45.15268551181296
 30
0.0
 10
208.7375653885099
 20
45.03284662690446
 30
0.0
 10
208.8575997754999
 20
44.96311060444791
 30
0.0
 10
209.0727498678956
 20
44.81080336427853
 30
0.0
 10
209.1692989809426
 20
44.72770461535764
 30
0.0
 10
209.3398257410709
 20
44.54728956903192
 30
0.0
 10
209.4122765351987
 20
44.4512652335686
 30
0.0
 10
209.5868547593203
 20
44.15345865927704
 30
0.0
 10
209.6486958036296
 20
43.93681771166096
 30
0.0
 10
209.6486958036296
 20
43.7188126918084
 30
0.0
  0
LINE
  5
29A
330
1F
100
AcDbEntity
  8
0
  6
HIDDEN
 62
     7
370
    18
100
AcDbLine
 10
206.982029137
 20
93.6292435585
 30
0.0
 11
207.3153624703
 21
93.6292435585
 31
0.0
  0
LINE
  5
29B
330
1F
100
AcDbEntity
  8
0
  6
HIDDEN
 62
     7
370
    18
100
AcDbLine
 10
207.3153624703
 20
45.3707564415
 30
0.0
 11
206.982029137
 21
45.3707564415
 31
0.0
  0
LINE
  5
29C
330
1F
100
AcDbEntity
  8
0
  6
HIDDEN
 62
     7
370
    18
100
AcDbLine
 10
209.6486958036
 20
77.6649658093
 30
0.0
 11
204.6486958036
 21
77.6649658093
 31
0.0
  0
LINE
  5
29D
330
1F
100
AcDbEntity
  8
0
  6
HIDDEN
 62
     7
370
    18
100
AcDbLine
 10
204.6486958036
 20
61.3350341907
 30
0.0
 11
209.6486958036
 21
61.3350341907
 31
0.0
  0
LINE
  5
29E
330
1F
100
AcDbEntity
  8
0
  6
HIDDEN
 62
     7
370
    18
100
AcDbLine
 10
209.6486958036
 20
62.5479860061
 30
0.0
 11
204.6486958036
 21
62.5479860061
 31
0.0
  0
LINE
  5
29F
330
1F
100
AcDbEntity
  8
0
  6
HIDDEN
 62
     7
370
    18
100
AcDbLine
 10
204.6486958036
 20
76.4520139939
 30
0.0
 11
209.6486958036
 21
76.4520139939
 31
0.0
  0
LINE
  5
2A0
330
1F
100
AcDbEntity
  8
0
  6
HIDDEN
 62
     7
370
    18
100
AcDbLine
 10
204.6774459479
 20
69.5
 30
0.0
 11
204.6774459479
 21
71.6666666667
 31
0.0
  0
LINE
  5
2A1
330
1F
100
AcDbEntity
  8
0
  6
HIDDEN
 62
     7
370
    18
100
AcDbLine
 10
204.6774459479
 20
67.3333333333
 30
0.0
 11
204.6774459479
 21
69.5
 31
0.0
  0
LINE
  5
2A2
330
1F
100
AcDbEntity
  8
0
  6
HIDDEN
 62
     7
370
    18
100
AcDbLine
 10
206.982029137
 20
37.0427631764
 30
0.0
 11
207.3153624703
 21
37.0427631764
 31
0.0
  0
LINE
  5
2A3
330
1F
100
AcDbEntity
  8
0
  6
HIDDEN
 62
     7
370
    18
100
AcDbLine
 10
207.3153624703
 20
101.9572368236
 30
0.0
 11
206.982029137
 21
101.9572368236
 31
0.0
  0
LINE
  5
2A4
330
1F
100
AcDbEntity
  8
0
  6
HIDDEN
 62
     7
370
    18
100
AcDbLine
 10
239.3177826787
 20
71.1666666667
 30
0.0
 11
218.1486958036
 21
71.1666666667
 31
0.0
  0
LINE
  5
2A5
330
1F
100
AcDbEntity
  8
0
  6
HIDDEN
 62
     7
370
    18
100
AcDbLine
 10
211.3153624703
 20
71.1666666667
 30
0.0
 11
209.7014655841
 21
71.1666666667
 31
0.0
  0
LINE
  5
2A6
330
1F
100
AcDbEntity
  8
0
  6
HIDDEN
 62
     7
370
    18
100
AcDbLine
 10
209.7014655841
 20
67.8333333333
 30
0.0
 11
211.3153624703
 21
67.8333333333
 31
0.0
  0
LINE
  5
2A7
330
1F
100
AcDbEntity
  8
0
  6
HIDDEN
 62
     7
370
    18
100
AcDbLine
 10
218.1486958036
 20
67.8333333333
 30
0.0
 11
239.3177826787
 21
67.8333333333
 31
0.0
  0
LINE
  5
2A8
330
1F
100
AcDbEntity
  8
0
  6
HIDDEN
 62
     7
370
    18
100
AcDbLine
 10
228.6511160121
 20
44.1797938464
 30
0.0
 11
231.9844493454
 21
44.1797938464
 31
0.0
  0
LINE
  5
2A9
330
1F
100
AcDbEntity
  8
0
  6
HIDDEN
 62
     7
370
    18
100
AcDbLine
 10
231.9844493454
 20
68.346460513
 30
0.0
 11
228.6511160121
 21
68.346460513
 31
0.0
  0
LINE
  5
2AA
330
1F
100
AcDbEntity
  8
0
  6
HIDDEN
 62
     7
370
    18
100
AcDbLine
 10
231.9844493454
 20
51.6797938464
 30
0.0
 11
238.6511160121
 21
51.6797938464
 31
0.0
  0
LINE
  5
2AB
330
1F
100
AcDbEntity
  8
0
  6
HIDDEN
 62
     7
370
    18
100
AcDbLine
 10
238.6511160121
 20
60.846460513
 30
0.0
 11
231.9844493454
 21
60.846460513
 31
0.0
  0
LINE
  5
2AC
330
1F
100
AcDbEntity
  8
0
  6
HIDDEN
 62
     7
370
    18
100
AcDbLine
 10
228.6511160121
 20
54.596460513
 30
0.0
 11
238.6511160121
 21
54.596460513
 31
0.0
  0
LINE
  5
2AD
330
1F
100
AcDbEntity
  8
0
  6
HIDDEN
 62
     7
370
    18
100
AcDbLine
 10
238.6511160121
 20
57.9297938464
 30
0.0
 11
228.6511160121
 21
57.9297938464
 31
0.0
  0
LINE
  5
2AE
330
1F
100
AcDbEntity
  8
0
  6
HIDDEN
 62
     7
370
    18
100
AcDbLine
 10
239.3177826787
 20
69.0377238824
 30
0.0
 11
241.4832392412
 21
69.0377238824
 31
0.0
  0
LINE
  5
2AF
330
1F
100
AcDbEntity
  8
0
  6
HIDDEN
 62
     7
370
    18
100
AcDbLine
 10
241.4832392412
 20
70.8710572157
 30
0.0
 11
239.3177826787
 21
70.8710572157
 31
0.0
  0
LINE
  5
2B0
330
1F
100
AcDbEntity
  8
0
  6
HIDDEN
 62
     7
370
    18
100
AcDbLine
 10
239.3177826787
 20
40.9765723145
 30
0.0
 11
241.3279319093
 21
40.9765723145
 31
0.0
  0
LINE
  5
2B1
330
1F
100
AcDbEntity
  8
0
  6
HIDDEN
 62
     7
370
    18
100
AcDbLine
 10
241.3279319093
 20
42.8099056479
 30
0.0
 11
239.3177826787
 21
42.8099056479
 31
0.0
  0
LINE
  5
2B2
330
1F
100
AcDbEntity
  8
0
  6
HIDDEN
 62
     7
370
    18
100
AcDbLine
 10
239.3177826787
 20
50.959256197
 30
0.0
 11
233.3177826787
 21
50.959256197
 31
0.0
  0
LINE
  5
2B3
330
1F
100
AcDbEntity
  8
0
  6
HIDDEN
 62
     7
370
    18
100
AcDbLine
 10
233.3177826787
 20
50.846460513
 30
0.0
 11
239.3177826787
 21
50.846460513
 31
0.0
  0
LINE
  5
2B4
330
1F
100
AcDbEntity
  8
0
  6
HIDDEN
 62
     7
370
    18
100
AcDbLine
 10
239.3177826787
 20
61.6797938464
 30
0.0
 11
236.7296089285
 21
61.6797938464
 31
0.0
  0
LINE
  5
2B5
330
1F
100
AcDbEntity
  8
0
  6
HIDDEN
 62
     7
370
    18
100
AcDbLine
 10
231.9832392412
 20
43.346460513
 30
0.0
 11
233.3177826787
 21
43.346460513
 31
0.0
  0
LINE
  5
2B6
330
1F
100
AcDbEntity
  8
0
  6
HIDDEN
 62
     7
370
    18
100
AcDbLine
 10
239.3177826787
 20
53.6797938464
 30
0.0
 11
241.4832392412
 21
53.6797938464
 31
0.0
  0
LINE
  5
2B7
330
1F
100
AcDbEntity
  8
0
  6
HIDDEN
 62
     7
370
    18
100
AcDbLine
 10
241.3279319093
 20
58.846460513
 30
0.0
 11
239.3177826787
 21
58.846460513
 31
0.0
  0
LINE
  5
2B8
330
1F
100
AcDbEntity
  8
0
  6
HIDDEN
 62
     7
370
    18
100
AcDbLine
 10
241.4832392412
 20
59.2996144066
 30
0.0
 11
241.3279319093
 21
59.2996144066
 31
0.0
  0
LINE
  5
2B9
330
1F
100
AcDbEntity
  8
0
  6
HIDDEN
 62
     7
370
    18
100
AcDbLine
 10
236.7296089285
 20
66.9166666667
 30
0.0
 11
241.4832392412
 21
66.9166666667
 31
0.0
  0
LINE
  5
2BA
330
1F
100
AcDbEntity
  8
0
  6
HIDDEN
 62
     7
370
    18
100
AcDbLine
 10
241.4832392412
 20
72.0833333333
 30
0.0
 11
236.7296089285
 21
72.0833333333
 31
0.0
  0
LINE
  5
2BB
330
1F
100
AcDbEntity
  8
0
  6
HIDDEN
 62
     7
370
    18
100
AcDbLine
 10
231.9844493454
 20
54.8333333333
 30
0.0
 11
241.4832392412
 21
54.8333333333
 31
0.0
  0
LINE
  5
2BC
330
1F
100
AcDbEntity
  8
0
  6
HIDDEN
 62
     7
370
    18
100
AcDbLine
 10
241.4832392412
 20
59.1666666667
 30
0.0
 11
231.9844493454
 21
59.1666666667
 31
0.0
  0
LINE
  5
2BD
330
1F
100
AcDbEntity
  8
0
  6
HIDDEN
 62
     7
370
    18
100
AcDbLine
 10
231.9832392412
 20
41.1047683413
 30
0.0
 11
241.4832392412
 21
41.1047683413
 31
0.0
  0
LINE
  5
2BE
330
1F
100
AcDbEntity
  8
0
  6
HIDDEN
 62
     7
370
    18
100
AcDbLine
 10
241.4832392412
 20
45.4381016747
 30
0.0
 11
231.9832392412
 21
45.4381016747
 31
0.0
  0
LINE
  5
2BF
330
1F
100
AcDbEntity
  8
0
  6
HIDDEN
 62
     7
370
    18
100
AcDbLine
 10
230.3177826787
 20
31.1018742664
 30
0.0
 11
234.8177826787
 21
31.1018742664
 31
0.0
  0
LINE
  5
2C0
330
1F
100
AcDbEntity
  8
0
  6
HIDDEN
 62
     7
370
    18
100
AcDbLine
 10
234.8177826787
 20
33.1018742664
 30
0.0
 11
230.3177826787
 21
33.1018742664
 31
0.0
  0
LINE
  5
2C1
330
1F
100
AcDbEntity
  8
0
  6
HIDDEN
 62
     7
370
    18
100
AcDbLine
 10
233.0629422618
 20
61.1666666667
 30
0.0
 11
236.3962755952
 21
61.1666666667
 31
0.0
  0
LINE
  5
2C2
330
1F
100
AcDbEntity
  8
0
  6
HIDDEN
 62
     7
370
    18
100
AcDbLine
 10
236.3962755952
 20
77.8333333333
 30
0.0
 11
233.0629422618
 21
77.8333333333
 31
0.0
  0
LINE
  5
2C3
330
1F
100
AcDbEntity
  8
0
  6
HIDDEN
 62
     7
370
    18
100
AcDbLine
 10
226.3962755952
 20
64.5
 30
0.0
 11
233.0629422618
 21
64.5
 31
0.0
  0
LINE
  5
2C4
330
1F
100
AcDbEntity
  8
0
  6
HIDDEN
 62
     7
370
    18
100
AcDbLine
 10
233.0629422618
 20
74.5
 30
0.0
 11
226.3962755952
 21
74.5
 31
0.0
  0
LINE
  5
2C5
330
1F
100
AcDbEntity
  8
0
  6
HIDDEN
 62
     7
370
    18
100
AcDbLine
 10
231.9832392412
 20
69.0377238824
 30
0.0
 11
239.3177826787
 21
69.0377238824
 31
0.0
  0
LINE
  5
2C6
330
1F
100
AcDbEntity
  8
0
  6
HIDDEN
 62
     7
370
    18
100
AcDbLine
 10
239.3177826787
 20
70.8710572157
 30
0.0
 11
231.9832392412
 21
70.8710572157
 31
0.0
  0
LINE
  5
2C7
330
1F
100
AcDbEntity
  8
0
  6
HIDDEN
 62
     7
370
    18
100
AcDbLine
 10
231.9832392412
 20
40.9765723145
 30
0.0
 11
239.3177826787
 21
40.9765723145
 31
0.0
  0
LINE
  5
2C8
330
1F
100
AcDbEntity
  8
0
  6
HIDDEN
 62
     7
370
    18
100
AcDbLine
 10
239.3177826787
 20
42.8099056479
 30
0.0
 11
231.9832392412
 21
42.8099056479
 31
0.0
  0
LINE
  5
2C9
330
1F
100
AcDbEntity
  8
0
  6
HIDDEN
 62
     7
370
    18
100
AcDbLine
 10
218.1486958036
 20
69.0377238824
 30
0.0
 11
231.9832392412
 21
69.0377238824
 31
0.0
  0
LINE
  5
2CA
330
1F
100
AcDbEntity
  8
0
  6
HIDDEN
 62
     7
370
    18
100
AcDbLine
 10
231.9832392412
 20
70.8710572157
 30
0.0
 11
218.1486958036
 21
70.8710572157
 31
0.0
  0
LINE
  5
2CB
330
1F
100
AcDbEntity
  8
0
  6
HIDDEN
 62
     7
370
    18
100
AcDbLine
 10
218.1486958036
 20
40.9765723145
 30
0.0
 11
231.9832392412
 21
40.9765723145
 31
0.0
  0
LINE
  5
2CC
330
1F
100
AcDbEntity
  8
0
  6
HIDDEN
 62
     7
370
    18
100
AcDbLine
 10
231.9832392412
 20
42.8099056479
 30
0.0
 11
218.1486958036
 21
42.8099056479
 31
0.0
  0
LINE
  5
2CD
330
1F
100
AcDbEntity
  8
0
  6
HIDDEN
 62
     7
370
    18
100
AcDbLine
 10
228.3177826787
 20
43.346460513
 30
0.0
 11
231.9832392412
 21
43.346460513
 31
0.0
  0
LINE
  5
2CE
330
1F
100
AcDbEntity
  8
0
  6
HIDDEN
 62
     7
370
    18
100
AcDbLine
 10
231.8607811349
 20
69.1797938464
 30
0.0
 11
228.3177826787
 21
69.1797938464
 31
0.0
  0
LINE
  5
2CF
330
1F
100
AcDbEntity
  8
0
  6
HIDDEN
 62
     7
370
    18
100
AcDbLine
 10
220.1745079388
 20
53.6797938464
 30
0.0
 11
228.3177826787
 21
53.6797938464
 31
0.0
  0
LINE
  5
2D0
330
1F
100
AcDbEntity
  8
0
  6
HIDDEN
 62
     7
370
    18
100
AcDbLine
 10
228.3177826787
 20
58.846460513
 30
0.0
 11
220.1745079388
 21
58.846460513
 31
0.0
  0
LINE
  5
2D1
330
1F
100
AcDbEntity
  8
0
  6
HIDDEN
 62
     7
370
    18
100
AcDbLine
 10
226.0794786421
 20
64.0833333333
 30
0.0
 11
228.3177826787
 21
64.0833333333
 31
0.0
  0
LINE
  5
2D2
330
1F
100
AcDbEntity
  8
0
  6
HIDDEN
 62
     7
370
    18
100
AcDbLine
 10
231.8607811349
 20
74.9166666667
 30
0.0
 11
226.0794786421
 21
74.9166666667
 31
0.0
  0
LINE
  5
2D3
330
1F
100
AcDbEntity
  8
0
  6
HIDDEN
 62
     7
370
    18
100
AcDbLine
 10
218.1486958036
 20
66.9166666667
 30
0.0
 11
226.0794786421
 21
66.9166666667
 31
0.0
  0
LINE
  5
2D4
330
1F
100
AcDbEntity
  8
0
  6
HIDDEN
 62
     7
370
    18
100
AcDbLine
 10
226.0794786421
 20
72.0833333333
 30
0.0
 11
218.1486958036
 21
72.0833333333
 31
0.0
  0
LINE
  5
2D5
330
1F
100
AcDbEntity
  8
0
  6
HIDDEN
 62
     7
370
    18
100
AcDbLine
 10
218.1486958036
 20
52.0
 30
0.0
 11
228.6511160121
 21
52.0
 31
0.0
  0
LINE
  5
2D6
330
1F
100
AcDbEntity
  8
0
  6
HIDDEN
 62
     7
370
    18
100
AcDbLine
 10
228.6511160121
 20
62.0
 30
0.0
 11
218.1486958036
 21
62.0
 31
0.0
  0
LINE
  5
2D7
330
1F
100
AcDbEntity
  8
0
  6
HIDDEN
 62
     7
370
    18
100
AcDbLine
 10
218.1486958036
 20
38.271435008
 30
0.0
 11
228.6511160121
 21
38.271435008
 31
0.0
  0
LINE
  5
2D8
330
1F
100
AcDbEntity
  8
0
  6
HIDDEN
 62
     7
370
    18
100
AcDbLine
 10
228.6511160121
 20
48.271435008
 30
0.0
 11
218.1486958036
 21
48.271435008
 31
0.0
  0
LINE
  5
2D9
330
1F
100
AcDbEntity
  8
0
  6
HIDDEN
 62
     7
370
    18
100
AcDbLine
 10
228.6511160121
 20
54.3333333333
 30
0.0
 11
231.9832392412
 21
54.3333333333
 31
0.0
  0
LINE
  5
2DA
330
1F
100
AcDbEntity
  8
0
  6
HIDDEN
 62
     7
370
    18
100
AcDbLine
 10
231.9832392412
 20
59.6666666667
 30
0.0
 11
228.6511160121
 21
59.6666666667
 31
0.0
  0
LINE
  5
2DB
330
1F
100
AcDbEntity
  8
0
  6
HIDDEN
 62
     7
370
    18
100
AcDbLine
 10
228.6511160121
 20
40.6047683413
 30
0.0
 11
231.9832392412
 21
40.6047683413
 31
0.0
  0
LINE
  5
2DC
330
1F
100
AcDbEntity
  8
0
  6
HIDDEN
 62
     7
370
    18
100
AcDbLine
 10
231.9832392412
 20
45.9381016747
 30
0.0
 11
228.6511160121
 21
45.9381016747
 31
0.0
  0
ARC
  5
2DD
330
1F
100
AcDbEntity
  8
0
  6
HIDDEN
 62
     7
370
    18
100
AcDbCircle
 10
210.482029137
 20
66.9166666667
 30
0.0
 40
0.8333333333333428
100
AcDbArc
 50
0.0
 51
90.0
  0
ARC
  5
2DE
330
1F
100
AcDbEntity
  8
0
  6
HIDDEN
 62
     7
370
    18
100
AcDbCircle
 10
210.482029137
 20
72.0833333333
 30
0.0
 40
0.8333333333333428
100
AcDbArc
 50
270.0
 51
0.0
  0
LINE
  5
2DF
330
1F
100
AcDbEntity
  8
0
  6
HIDDEN
 62
     7
370
    18
100
AcDbLine
 10
204.6486958036
 20
67.3333333333
 30
0.0
 11
204.6774459479
 21
67.3333333333
 31
0.0
  0
LINE
  5
2E0
330
1F
100
AcDbEntity
  8
0
  6
HIDDEN
 62
     7
370
    18
100
AcDbLine
 10
204.6774459479
 20
71.6666666667
 30
0.0
 11
204.6486958036
 21
71.6666666667
 31
0.0
  0
LINE
  5
2E1
330
1F
100
AcDbEntity
  8
0
  6
HIDDEN
 62
     7
370
    18
100
AcDbLine
 10
204.6774459479
 20
67.75
 30
0.0
 11
210.482029137
 21
67.75
 31
0.0
  0
LINE
  5
2E2
330
1F
100
AcDbEntity
  8
0
  6
HIDDEN
 62
     7
370
    18
100
AcDbLine
 10
210.482029137
 20
71.25
 30
0.0
 11
204.6774459479
 21
71.25
 31
0.0
  0
ENDSEC
  0
SECTION
  2
OBJECTS
  0
DICTIONARY
  5
C
330
0
100
AcDbDictionary
281
     1
  3
ACAD_GROUP
350
D
  3
ACAD_LAYOUT
350
1A
  3
ACAD_MLINESTYLE
350
17
  3
ACAD_PLOTSETTINGS
350
19
  3
ACAD_PLOTSTYLENAME
350
E
  3
ACAD_SCALELIST
350
47
  3
DWGPROPS
350
2E3
  0
DICTIONARY
  5
D
102
{ACAD_REACTORS
330
C
102
}
330
C
100
AcDbDictionary
281
     1
  0
DICTIONARY
  5
1A
102
{ACAD_REACTORS
330
C
102
}
330
C
100
AcDbDictionary
281
     1
  3
Layout1
350
1E
  3
Layout2
350
26
  3
Model
350
22
  0
DICTIONARY
  5
17
102
{ACAD_REACTORS
330
C
102
}
330
C
100
AcDbDictionary
281
     1
  3
Standard
350
18
  0
DICTIONARY
  5
19
102
{ACAD_REACTORS
330
C
102
}
330
C
100
AcDbDictionary
281
     1
  0
ACDBDICTIONARYWDFLT
  5
E
102
{ACAD_REACTORS
330
C
102
}
330
C
100
AcDbDictionary
281
     1
  3
Normal
350
F
100
AcDbDictionaryWithDefault
340
F
  0
DICTIONARY
  5
47
102
{ACAD_REACTORS
330
C
102
}
330
C
100
AcDbDictionary
281
     1
  3
A0
350
48
  3
A1
350
49
  3
A2
350
4A
  3
A3
350
4B
  3
A4
350
4C
  3
A5
350
4D
  3
A6
350
4E
  3
A7
350
4F
  3
A8
350
50
  3
A9
350
51
  3
B0
350
52
  3
B1
350
53
  3
B2
350
54
  3
B3
350
55
  3
B4
350
56
  3
B5
350
57
  3
B6
350
58
  0
XRECORD
  5
2E3
102
{ACAD_REACTORS
330
C
102
}
330
C
100
AcDbXrecord
280
     1
  1
DWGPROPS COOKIE
  2

  3

  4

  6

  7

  8

  9

300
=
301
=
302
=
303
=
304
=
305
=
306
=
307
=
308
=
309
=
 40
0.0
 41
2461215.013264653
 42
2461215.013265047
  1

 90
        0
  0
LAYOUT
  5
1E
102
{ACAD_REACTORS
330
1A
102
}
330
1A
100
AcDbPlotSettings
  1

  2
none_device
  4

  6

 40
0.0
 41
0.0
 42
0.0
 43
0.0
 44
0.0
 45
0.0
 46
0.0
 47
0.0
 48
0.0
 49
0.0
140
0.0
141
0.0
142
1.0
143
1.0
 70
   688
 72
     1
 73
     0
 74
     5
  7

 75
    16
147
1.0
148
0.0
149
0.0
100
AcDbLayout
  1
Layout1
 70
     1
 71
     1
 10
0.0
 20
0.0
 11
420.0
 21
297.0
 12
0.0
 22
0.0
 32
0.0
 14
1.0000000000E+20
 24
1.0000000000E+20
 34
1.0000000000E+20
 15
-1.0000000000E+20
 25
-1.0000000000E+20
 35
-1.0000000000E+20
146
0.0
 13
0.0
 23
0.0
 33
0.0
 16
1.0
 26
0.0
 36
0.0
 17
0.0
 27
1.0
 37
0.0
 76
     0
330
1B
  0
LAYOUT
  5
26
102
{ACAD_REACTORS
330
1A
102
}
330
1A
100
AcDbPlotSettings
  1

  2
none_device
  4

  6

 40
0.0
 41
0.0
 42
0.0
 43
0.0
 44
0.0
 45
0.0
 46
0.0
 47
0.0
 48
0.0
 49
0.0
140
0.0
141
0.0
142
1.0
143
1.0
 70
   688
 72
     1
 73
     0
 74
     5
  7

 75
    16
147
1.0
148
0.0
149
0.0
100
AcDbLayout
  1
Layout2
 70
     1
 71
     2
 10
0.0
 20
0.0
 11
0.0
 21
0.0
 12
0.0
 22
0.0
 32
0.0
 14
0.0
 24
0.0
 34
0.0
 15
0.0
 25
0.0
 35
0.0
146
0.0
 13
0.0
 23
0.0
 33
0.0
 16
1.0
 26
0.0
 36
0.0
 17
0.0
 27
1.0
 37
0.0
 76
     0
330
23
  0
LAYOUT
  5
22
102
{ACAD_REACTORS
330
1A
102
}
330
1A
100
AcDbPlotSettings
  1

  2
none_device
  4
Letter_(8.50_x_11.00_Inches)
  6

 40
6.35
 41
6.35
 42
6.35000508
 43
6.35000508
 44
215.9
 45
279.4
 46
0.0
 47
0.0
 48
0.0
 49
0.0
140
0.0
141
0.0
142
1.0
143
1.0
 70
  1712
 72
     1
 73
     0
 74
     0
  7

 75
     0
147
1.0
148
0.0
149
0.0
100
AcDbLayout
  1
Model
 70
     1
 71
     0
 10
0.0
 20
0.0
 11
297.0
 21
210.0
 12
0.0
 22
0.0
 32
0.0
 14
0.0
 24
0.0
 34
0.0
 15
297.0
 25
210.0
 35
0.0
146
0.0
 13
0.0
 23
0.0
 33
0.0
 16
1.0
 26
0.0
 36
0.0
 17
0.0
 27
1.0
 37
0.0
 76
     0
330
1F
331
29
  0
MLINESTYLE
  5
18
102
{ACAD_REACTORS
330
17
102
}
330
17
100
AcDbMlineStyle
  2
Standard
 70
     0
  3

 62
   256
 51
90.0
 52
90.0
 71
     2
 49
0.5
 62
   256
  6
BYLAYER
 49
-0.5
 62
   256
  6
BYLAYER
  0
ACDBPLACEHOLDER
  5
F
102
{ACAD_REACTORS
330
E
102
}
330
E
  0
SCALE
  5
48
102
{ACAD_REACTORS
330
47
102
}
330
47
100
AcDbScale
 70
     0
300
1:1
140
1.0
141
1.0
290
     1
  0
SCALE
  5
49
102
{ACAD_REACTORS
330
47
102
}
330
47
100
AcDbScale
 70
     0
300
1:2
140
1.0
141
2.0
290
     0
  0
SCALE
  5
4A
102
{ACAD_REACTORS
330
47
102
}
330
47
100
AcDbScale
 70
     0
300
1:4
140
1.0
141
4.0
290
     0
  0
SCALE
  5
4B
102
{ACAD_REACTORS
330
47
102
}
330
47
100
AcDbScale
 70
     0
300
1:5
140
1.0
141
5.0
290
     0
  0
SCALE
  5
4C
102
{ACAD_REACTORS
330
47
102
}
330
47
100
AcDbScale
 70
     0
300
1:8
140
1.0
141
8.0
290
     0
  0
SCALE
  5
4D
102
{ACAD_REACTORS
330
47
102
}
330
47
100
AcDbScale
 70
     0
300
1:10
140
1.0
141
10.0
290
     0
  0
SCALE
  5
4E
102
{ACAD_REACTORS
330
47
102
}
330
47
100
AcDbScale
 70
     0
300
1:16
140
1.0
141
16.0
290
     0
  0
SCALE
  5
4F
102
{ACAD_REACTORS
330
47
102
}
330
47
100
AcDbScale
 70
     0
300
1:20
140
1.0
141
20.0
290
     0
  0
SCALE
  5
50
102
{ACAD_REACTORS
330
47
102
}
330
47
100
AcDbScale
 70
     0
300
1:30
140
1.0
141
30.0
290
     0
  0
SCALE
  5
51
102
{ACAD_REACTORS
330
47
102
}
330
47
100
AcDbScale
 70
     0
300
1:40
140
1.0
141
40.0
290
     0
  0
SCALE
  5
52
102
{ACAD_REACTORS
330
47
102
}
330
47
100
AcDbScale
 70
     0
300
1:50
140
1.0
141
50.0
290
     0
  0
SCALE
  5
53
102
{ACAD_REACTORS
330
47
102
}
330
47
100
AcDbScale
 70
     0
300
1:100
140
1.0
141
100.0
290
     0
  0
SCALE
  5
54
102
{ACAD_REACTORS
330
47
102
}
330
47
100
AcDbScale
 70
     0
300
2:1
140
2.0
141
1.0
290
     0
  0
SCALE
  5
55
102
{ACAD_REACTORS
330
47
102
}
330
47
100
AcDbScale
 70
     0
300
4:1
140
4.0
141
1.0
290
     0
  0
SCALE
  5
56
102
{ACAD_REACTORS
330
47
102
}
330
47
100
AcDbScale
 70
     0
300
8:1
140
8.0
141
1.0
290
     0
  0
SCALE
  5
57
102
{ACAD_REACTORS
330
47
102
}
330
47
100
AcDbScale
 70
     0
300
10:1
140
10.0
141
1.0
290
     0
  0
SCALE
  5
58
102
{ACAD_REACTORS
330
47
102
}
330
47
100
AcDbScale
 70
     0
300
100:1
140
100.0
141
1.0
290
     0
  0
ENDSEC
  0
EOF
