  0
SECTION
  2
HEADER
  9
$ACADVER
  1
AC1015
  9
$ACADMAINTVER
 70
     6
  9
$DWGCODEPAGE
  3
ANSI_936
  9
$INSBASE
 10
0.0
 20
0.0
 30
0.0
  9
$EXTMIN
 10
0.0
 20
0.0
 30
0.0
  9
$EXTMAX
 10
297.0
 20
210.0
 30
0.0
  9
$LIMMIN
 10
0.0
 20
0.0
  9
$LIMMAX
 10
297.0
 20
210.0
  9
$ORTHOMODE
 70
     0
  9
$REGENMODE
 70
     1
  9
$FILLMODE
 70
     1
  9
$QTEXTMODE
 70
     0
  9
$MIRRTEXT
 70
     1
  9
$LTSCALE
 40
1.0
  9
$ATTMODE
 70
     1
  9
$TEXTSIZE
 40
3.5
  9
$TRACEWID
 40
1.0
  9
$TEXTSTYLE
  7
Standard
  9
$CLAYER
  8
0
  9
$CELTYPE
  6
ByLayer
  9
$CECOLOR
 62
   256
  9
$CELTSCALE
 40
1.0
  9
$DISPSILH
 70
     0
  9
$DIMSCALE
 40
1.0
  9
$DIMASZ
 40
4.08
  9
$DIMEXO
 40
0.0
  9
$DIMDLI
 40
3.75
  9
$DIMRND
 40
0.0
  9
$DIMDLE
 40
0.0
  9
$DIMEXE
 40
2.0
  9
$DIMTP
 40
0.0
  9
$DIMTM
 40
0.0
  9
$DIMTXT
 40
3.5
  9
$DIMCEN
 40
2.5
  9
$DIMTSZ
 40
0.0
  9
$DIMTOL
 70
     0
  9
$DIMLIM
 70
     0
  9
$DIMTIH
 70
     1
  9
$DIMTOH
 70
     1
  9
$DIMSE1
 70
     0
  9
$DIMSE2
 70
     0
  9
$DIMTAD
 70
     1
  9
$DIMZIN
 70
     0
  9
$DIMBLK
  1

  9
$DIMASO
 70
     1
  9
$DIMSHO
 70
     1
  9
$DIMPOST
  1

  9
$DIMAPOST
  1

  9
$DIMALT
 70
     0
  9
$DIMALTD
 70
     3
  9
$DIMALTF
 40
0.0393700787
  9
$DIMLFAC
 40
2.0
  9
$DIMTOFL
 70
     1
  9
$DIMTVP
 40
0.0
  9
$DIMTIX
 70
     0
  9
$DIMSOXD
 70
     0
  9
$DIMSAH
 70
     0
  9
$DIMBLK1
  1

  9
$DIMBLK2
  1

  9
$DIMSTYLE
  2
ISO-25
  9
$DIMCLRD
 70
     0
  9
$DIMCLRE
 70
     0
  9
$DIMCLRT
 70
     0
  9
$DIMTFAC
 40
1.0
  9
$DIMGAP
 40
1.524
  9
$DIMJUST
 70
     0
  9
$DIMSD1
 70
     0
  9
$DIMSD2
 70
     0
  9
$DIMTOLJ
 70
     0
  9
$DIMTZIN
 70
     0
  9
$DIMALTZ
 70
     0
  9
$DIMALTTZ
 70
     0
  9
$DIMUPT
 70
     0
  9
$DIMDEC
 70
     2
  9
$DIMTDEC
 70
     2
  9
$DIMALTU
 70
     2
  9
$DIMALTTD
 70
     3
  9
$DIMTXSTY
  7
Standard
  9
$DIMAUNIT
 70
     0
  9
$DIMADEC
 70
     2
  9
$DIMALTRND
 40
0.0
  9
$DIMAZIN
 70
     0
  9
$DIMDSEP
 70
    44
  9
$DIMATFIT
 70
     3
  9
$DIMFRAC
 70
     0
  9
$DIMLDRBLK
  1

  9
$DIMLUNIT
 70
     2
  9
$DIMLWD
 70
    -2
  9
$DIMLWE
 70
    -2
  9
$DIMTMOVE
 70
     0
  9
$LUNITS
 70
     2
  9
$LUPREC
 70
     2
  9
$SKETCHINC
 40
1.0
  9
$FILLETRAD
 40
0.0
  9
$AUNITS
 70
     0
  9
$AUPREC
 70
     2
  9
$MENU
  1
.
  9
$ELEVATION
 40
0.0
  9
$PELEVATION
 40
0.0
  9
$THICKNESS
 40
0.0
  9
$LIMCHECK
 70
     0
  9
$CHAMFERA
 40
0.0
  9
$CHAMFERB
 40
0.0
  9
$CHAMFERC
 40
0.0
  9
$CHAMFERD
 40
0.0
  9
$SKPOLY
 70
     0
  9
$TDCREATE
 40
2461215.36211669
  9
$TDUCREATE
 40
2461215.028783357
  9
$TDUPDATE
 40
2461215.362117211
  9
$TDUUPDATE
 40
2461215.028783878
  9
$TDINDWG
 40
0.0000000116
  9
$TDUSRTIMER
 40
0.0000000116
  9
$USRTIMER
 70
     1
  9
$ANGBASE
 50
0.0
  9
$ANGDIR
 70
     0
  9
$PDMODE
 70
     0
  9
$PDSIZE
 40
-1.0
  9
$PLINEWID
 40
0.0
  9
$SPLFRAME
 70
     0
  9
$SPLINETYPE
 70
     6
  9
$SPLINESEGS
 70
     8
  9
$HANDSEED
  5
1C6
  9
$SURFTAB1
 70
     6
  9
$SURFTAB2
 70
     6
  9
$SURFTYPE
 70
     6
  9
$SURFU
 70
     6
  9
$SURFV
 70
     6
  9
$UCSBASE
  2

  9
$UCSNAME
  2

  9
$UCSORG
 10
0.0
 20
0.0
 30
0.0
  9
$UCSXDIR
 10
1.0
 20
0.0
 30
0.0
  9
$UCSYDIR
 10
0.0
 20
1.0
 30
0.0
  9
$UCSORTHOREF
  2

  9
$UCSORTHOVIEW
 70
     0
  9
$UCSORGTOP
 10
0.0
 20
0.0
 30
0.0
  9
$UCSORGBOTTOM
 10
0.0
 20
0.0
 30
0.0
  9
$UCSORGLEFT
 10
0.0
 20
0.0
 30
0.0
  9
$UCSORGRIGHT
 10
0.0
 20
0.0
 30
0.0
  9
$UCSORGFRONT
 10
0.0
 20
0.0
 30
0.0
  9
$UCSORGBACK
 10
0.0
 20
0.0
 30
0.0
  9
$PUCSBASE
  2

  9
$PUCSNAME
  2

  9
$PUCSORG
 10
0.0
 20
0.0
 30
0.0
  9
$PUCSXDIR
 10
1.0
 20
0.0
 30
0.0
  9
$PUCSYDIR
 10
0.0
 20
1.0
 30
0.0
  9
$PUCSORTHOREF
  2

  9
$PUCSORTHOVIEW
 70
     0
  9
$PUCSORGTOP
 10
0.0
 20
0.0
 30
0.0
  9
$PUCSORGBOTTOM
 10
0.0
 20
0.0
 30
0.0
  9
$PUCSORGLEFT
 10
0.0
 20
0.0
 30
0.0
  9
$PUCSORGRIGHT
 10
0.0
 20
0.0
 30
0.0
  9
$PUCSORGFRONT
 10
0.0
 20
0.0
 30
0.0
  9
$PUCSORGBACK
 10
0.0
 20
0.0
 30
0.0
  9
$USERI1
 70
     0
  9
$USERI2
 70
     0
  9
$USERI3
 70
     0
  9
$USERI4
 70
     0
  9
$USERI5
 70
     0
  9
$USERR1
 40
0.0
  9
$USERR2
 40
0.0
  9
$USERR3
 40
0.0
  9
$USERR4
 40
0.0
  9
$USERR5
 40
0.0
  9
$WORLDVIEW
 70
     1
  9
$SHADEDGE
 70
     3
  9
$SHADEDIF
 70
    70
  9
$TILEMODE
 70
     1
  9
$MAXACTVP
 70
    64
  9
$PINSBASE
 10
0.0
 20
0.0
 30
0.0
  9
$PLIMCHECK
 70
     0
  9
$PEXTMIN
 10
1.0000000000E+20
 20
1.0000000000E+20
 30
1.0000000000E+20
  9
$PEXTMAX
 10
-1.0000000000E+20
 20
-1.0000000000E+20
 30
-1.0000000000E+20
  9
$PLIMMIN
 10
0.0
 20
0.0
  9
$PLIMMAX
 10
420.0
 20
297.0
  9
$UNITMODE
 70
     0
  9
$VISRETAIN
 70
     1
  9
$PLINEGEN
 70
     0
  9
$PSLTSCALE
 70
     1
  9
$TREEDEPTH
 70
  3020
  9
$CMLSTYLE
  2
Standard
  9
$CMLJUST
 70
     0
  9
$CMLSCALE
 40
20.0
  9
$PROXYGRAPHICS
 70
     1
  9
$MEASUREMENT
 70
     1
  9
$CELWEIGHT
370
    -1
  9
$ENDCAPS
280
     0
  9
$JOINSTYLE
280
     0
  9
$LWDISPLAY
290
     1
  9
$INSUNITS
 70
     4
  9
$HYPERLINKBASE
  1

  9
$STYLESHEET
  1

  9
$XEDIT
290
     1
  9
$CEPSNTYPE
380
     0
  9
$PSTYLEMODE
290
     1
  9
$FINGERPRINTGUID
  2
{0c04fdef-36d9-4865-8939-8cb024053292}
  9
$VERSIONGUID
  2
{FAEB1C32-E019-11D5-929B-00C0DF256EC4}
  9
$EXTNAMES
290
     1
  9
$PSVPSCALE
 40
0.0
  9
$OLESTARTUP
290
     0
  0
ENDSEC
  0
SECTION
  2
CLASSES
  0
CLASS
  1
ACDBDICTIONARYWDFLT
  2
AcDbDictionaryWithDefault
  3
ObjectDBX Classes
 90
        0
280
     0
281
     0
  0
CLASS
  1
VISUALSTYLE
  2
AcDbVisualStyle
  3
ObjectDBX Classes
 90
     4095
280
     0
281
     0
  0
CLASS
  1
MATERIAL
  2
AcDbMaterial
  3
ObjectDBX Classes
 90
     1153
280
     0
281
     0
  0
CLASS
  1
SCALE
  2
AcDbScale
  3
ObjectDBX Classes
 90
     1153
280
     0
281
     0
  0
CLASS
  1
TABLESTYLE
  2
AcDbTableStyle
  3
ObjectDBX Classes
 90
     4095
280
     0
281
     0
  0
CLASS
  1
MLEADERSTYLE
  2
AcDbMLeaderStyle
  3
ACDB_MLEADERSTYLE_CLASS
 90
     4095
280
     0
281
     0
  0
CLASS
  1
SUN
  2
AcDbSun
  3
SCENEOE
 90
     1153
280
     0
281
     0
  0
CLASS
  1
ACDBPLACEHOLDER
  2
AcDbPlaceHolder
  3
ObjectDBX Classes
 90
        0
280
     0
281
     0
  0
CLASS
  1
LAYOUT
  2
AcDbLayout
  3
ObjectDBX Classes
 90
        0
280
     0
281
     0
  0
ENDSEC
  0
SECTION
  2
TABLES
  0
TABLE
  2
VPORT
  5
8
330
0
100
AcDbSymbolTable
 70
     1
  0
VPORT
  5
29
330
8
100
AcDbSymbolTableRecord
100
AcDbViewportTableRecord
  2
*Active
 70
     0
 10
0.0
 20
0.0
 11
1.0
 21
1.0
 12
148.5
 22
105.0
 13
0.0
 23
0.0
 14
10.0
 24
10.0
 15
10.0
 25
10.0
 16
0.0
 26
0.0
 36
1.0
 17
0.0
 27
0.0
 37
0.0
 40
210.0
 41
1.4142857143
 42
50.0
 43
0.0
 44
0.0
 50
0.0
 51
0.0
 71
     0
 72
  2000
 73
     1
 74
     3
 75
     0
 76
     0
 77
     0
 78
     0
281
     0
 65
     1
110
0.0
120
0.0
130
0.0
111
1.0
121
0.0
131
0.0
112
0.0
122
1.0
132
0.0
 79
     0
146
0.0
  0
ENDTAB
  0
TABLE
  2
LTYPE
  5
5
330
0
100
AcDbSymbolTable
 70
     6
  0
LTYPE
  5
14
330
5
100
AcDbSymbolTableRecord
100
AcDbLinetypeTableRecord
  2
ByBlock
 70
     0
  3

 72
    65
 73
     0
 40
0.0
  0
LTYPE
  5
15
330
5
100
AcDbSymbolTableRecord
100
AcDbLinetypeTableRecord
  2
ByLayer
 70
     0
  3

 72
    65
 73
     0
 40
0.0
  0
LTYPE
  5
16
330
5
100
AcDbSymbolTableRecord
100
AcDbLinetypeTableRecord
  2
Continuous
 70
     0
  3
Solid line
 72
    65
 73
     0
 40
0.0
  0
LTYPE
  5
5E
330
5
100
AcDbSymbolTableRecord
100
AcDbLinetypeTableRecord
  2
HIDDEN
 70
     0
  3
Hidden __ __ __ __ __ __ __ __ __ __ __ __ __ __
 72
    65
 73
     2
 40
1.905
 49
1.27
 74
     0
 49
-0.635
 74
     0
  0
LTYPE
  5
5F
330
5
100
AcDbSymbolTableRecord
100
AcDbLinetypeTableRecord
  2
PHANTOM
 70
     0
  3
Phantom ______  __  __  ______  __  __  ______
 72
    65
 73
     6
 40
12.7
 49
6.35
 74
     0
 49
-1.27
 74
     0
 49
1.27
 74
     0
 49
-1.27
 74
     0
 49
1.27
 74
     0
 49
-1.27
 74
     0
  0
LTYPE
  5
60
330
5
100
AcDbSymbolTableRecord
100
AcDbLinetypeTableRecord
  2
CENTER
 70
     0
  3
Center ____ _ ____ _ ____ _ ____ _ ____ _ ____
 72
    65
 73
     4
 40
10.16
 49
6.35
 74
     0
 49
-1.27
 74
     0
 49
1.27
 74
     0
 49
-1.27
 74
     0
  0
LTYPE
  5
61
330
5
100
AcDbSymbolTableRecord
100
AcDbLinetypeTableRecord
  2
CENTERX2
 70
     0
  3
Center (2x) ________  __  ________  __  _____
 72
    65
 73
     4
 40
20.32
 49
12.7
 74
     0
 49
-2.54
 74
     0
 49
2.54
 74
     0
 49
-2.54
 74
     0
  0
LTYPE
  5
62
330
5
100
AcDbSymbolTableRecord
100
AcDbLinetypeTableRecord
  2
DOT2
 70
     0
  3
Dot (.5x) ........................................
 72
    65
 73
     2
 40
0.635
 49
0.0
 74
     0
 49
-0.635
 74
     0
  0
ENDTAB
  0
TABLE
  2
LAYER
  5
2
330
0
100
AcDbSymbolTable
 70
    14
  0
LAYER
  5
10
330
2
100
AcDbSymbolTableRecord
100
AcDbLayerTableRecord
  2
0
 70
     0
 62
     7
  6
Continuous
370
    -3
390
F
  0
LAYER
  5
63
330
2
100
AcDbSymbolTableRecord
100
AcDbLayerTableRecord
  2
SLD-0
 70
     0
 62
     7
  6
Continuous
370
    -3
390
F
  0
LAYER
  5
64
330
2
100
AcDbSymbolTableRecord
100
AcDbLayerTableRecord
  2
5
 70
     0
 62
     7
  6
Continuous
370
    -3
390
F
  0
LAYER
  5
65
330
2
100
AcDbSymbolTableRecord
100
AcDbLayerTableRecord
  2
9
 70
     0
 62
     7
  6
Continuous
370
    -3
390
F
  0
LAYER
  5
66
330
2
100
AcDbSymbolTableRecord
100
AcDbLayerTableRecord
  2
10
 70
     0
 62
     7
  6
Continuous
370
    -3
390
F
  0
LAYER
  5
67
330
2
100
AcDbSymbolTableRecord
100
AcDbLayerTableRecord
  2
轮廓实线层
 70
     0
 62
     7
  6
Continuous
370
    50
390
F
  0
LAYER
  5
68
330
2
100
AcDbSymbolTableRecord
100
AcDbLayerTableRecord
  2
细线层
 70
     0
 62
     4
  6
Continuous
370
    25
390
F
  0
LAYER
  5
69
330
2
100
AcDbSymbolTableRecord
100
AcDbLayerTableRecord
  2
中心线层
 70
     0
 62
     1
  6
CENTERX2
370
    25
390
F
  0
LAYER
  5
6A
330
2
100
AcDbSymbolTableRecord
100
AcDbLayerTableRecord
  2
虚线层
 70
     0
 62
     6
  6
HIDDEN
370
    25
390
F
  0
LAYER
  5
6B
330
2
100
AcDbSymbolTableRecord
100
AcDbLayerTableRecord
  2
剖面线层
 70
     0
 62
     2
  6
Continuous
370
    25
390
F
  0
LAYER
  5
6C
330
2
100
AcDbSymbolTableRecord
100
AcDbLayerTableRecord
  2
文字层
 70
     0
 62
     3
  6
Continuous
370
    25
390
F
  0
LAYER
  5
6D
330
2
100
AcDbSymbolTableRecord
100
AcDbLayerTableRecord
  2
标注层
 70
     0
 62
     4
  6
Continuous
370
    25
390
F
  0
LAYER
  5
6E
330
2
100
AcDbSymbolTableRecord
100
AcDbLayerTableRecord
  2
符号标注层
 70
     0
 62
    31
  6
Continuous
370
    25
390
F
  0
LAYER
  5
6F
330
2
100
AcDbSymbolTableRecord
100
AcDbLayerTableRecord
  2
双点划线层
 70
     0
 62
     6
  6
PHANTOM
370
    25
390
F
  0
ENDTAB
  0
TABLE
  2
STYLE
  5
3
330
0
100
AcDbSymbolTable
 70
     1
  0
STYLE
  5
11
330
3
100
AcDbSymbolTableRecord
100
AcDbTextStyleTableRecord
  2
Standard
 70
     0
 40
0.0
 41
1.0
 50
0.0
 71
     0
 42
3.5
  3
txt
  4

  0
ENDTAB
  0
TABLE
  2
VIEW
  5
6
330
0
100
AcDbSymbolTable
 70
     0
  0
ENDTAB
  0
TABLE
  2
UCS
  5
7
330
0
100
AcDbSymbolTable
 70
     0
  0
ENDTAB
  0
TABLE
  2
APPID
  5
9
330
0
100
AcDbSymbolTable
 70
     1
  0
APPID
  5
12
330
9
100
AcDbSymbolTableRecord
100
AcDbRegAppTableRecord
  2
ACAD
 70
     0
  0
ENDTAB
  0
TABLE
  2
DIMSTYLE
  5
A
330
0
100
AcDbSymbolTable
 70
     1
100
AcDbDimStyleTable
  0
DIMSTYLE
105
27
330
A
100
AcDbSymbolTableRecord
100
AcDbDimStyleTableRecord
  2
ISO-25
 70
     0
 41
2.5
 42
0.625
 43
3.75
 44
1.25
 73
     0
 74
     0
 77
     1
 78
     8
140
2.5
141
2.5
143
0.0393700787
147
0.625
171
     3
172
     1
178
     0
271
     2
272
     2
274
     3
278
    44
283
     0
284
     8
340
11
  0
ENDTAB
  0
TABLE
  2
BLOCK_RECORD
  5
1
330
0
100
AcDbSymbolTable
 70
     4
  0
BLOCK_RECORD
  5
1F
330
1
100
AcDbSymbolTableRecord
100
AcDbBlockTableRecord
  2
*Model_Space
340
22
  0
BLOCK_RECORD
  5
1B
330
1
100
AcDbSymbolTableRecord
100
AcDbBlockTableRecord
  2
*Paper_Space
340
1E
  0
BLOCK_RECORD
  5
23
330
1
100
AcDbSymbolTableRecord
100
AcDbBlockTableRecord
  2
*Paper_Space0
340
26
  0
BLOCK_RECORD
  5
E7
330
1
100
AcDbSymbolTableRecord
100
AcDbBlockTableRecord
  2
SW_CENTERMARKSYMBOL_0
340
0
102
{BLKREFS
331
F2
102
}
  0
BLOCK_RECORD
  5
133
330
1
100
AcDbSymbolTableRecord
100
AcDbBlockTableRecord
  2
SW_CENTERMARKSYMBOL_1
340
0
102
{BLKREFS
331
13E
102
}
  0
BLOCK_RECORD
  5
13F
330
1
100
AcDbSymbolTableRecord
100
AcDbBlockTableRecord
  2
SW_CENTERMARKSYMBOL_2
340
0
102
{BLKREFS
331
14A
102
}
  0
ENDTAB
  0
ENDSEC
  0
SECTION
  2
BLOCKS
  0
BLOCK
  5
20
330
1F
100
AcDbEntity
  8
0
100
AcDbBlockBegin
  2
*Model_Space
 70
     0
 10
0.0
 20
0.0
 30
0.0
  3
*Model_Space
  1

  0
ENDBLK
  5
21
330
1F
100
AcDbEntity
  8
0
100
AcDbBlockEnd
  0
BLOCK
  5
1C
330
1B
100
AcDbEntity
 67
     1
  8
0
100
AcDbBlockBegin
  2
*Paper_Space
 70
     0
 10
0.0
 20
0.0
 30
0.0
  3
*Paper_Space
  1

  0
ENDBLK
  5
1D
330
1B
100
AcDbEntity
 67
     1
  8
0
100
AcDbBlockEnd
  0
BLOCK
  5
24
330
23
100
AcDbEntity
  8
0
100
AcDbBlockBegin
  2
*Paper_Space0
 70
     0
 10
0.0
 20
0.0
 30
0.0
  3
*Paper_Space0
  1

  0
ENDBLK
  5
25
330
23
100
AcDbEntity
  8
0
100
AcDbBlockEnd
  0
BLOCK
  5
E8
330
E7
100
AcDbEntity
  8
0
100
AcDbBlockBegin
  2
SW_CENTERMARKSYMBOL_0
 70
     0
 10
0.0
 20
0.0
 30
0.0
  3
SW_CENTERMARKSYMBOL_0
  1

  0
LINE
  5
EA
330
E7
100
AcDbEntity
  8
10
 62
     0
100
AcDbLine
 10
0.0
 20
0.0
 30
0.0
 11
0.0
 21
2.5
 31
0.0
  0
LINE
  5
EB
330
E7
100
AcDbEntity
  8
10
 62
     0
100
AcDbLine
 10
0.0
 20
0.0
 30
0.0
 11
-2.5
 21
0.0
 31
0.0
  0
LINE
  5
EC
330
E7
100
AcDbEntity
  8
10
 62
     0
100
AcDbLine
 10
0.0
 20
0.0
 30
0.0
 11
0.0
 21
-2.5
 31
0.0
  0
LINE
  5
ED
330
E7
100
AcDbEntity
  8
10
 62
     0
100
AcDbLine
 10
0.0
 20
0.0
 30
0.0
 11
2.5
 21
0.0
 31
0.0
  0
LINE
  5
EE
330
E7
100
AcDbEntity
  8
10
 62
     0
100
AcDbLine
 10
0.0
 20
5.0
 30
0.0
 11
0.0
 21
19.1676808052
 31
0.0
  0
LINE
  5
EF
330
E7
100
AcDbEntity
  8
10
 62
     0
100
AcDbLine
 10
-5.0
 20
0.0
 30
0.0
 11
-19.1676808052
 21
0.0
 31
0.0
  0
LINE
  5
F0
330
E7
100
AcDbEntity
  8
10
 62
     0
100
AcDbLine
 10
0.0
 20
-5.0
 30
0.0
 11
0.0
 21
-19.1676808052
 31
0.0
  0
LINE
  5
F1
330
E7
100
AcDbEntity
  8
10
 62
     0
100
AcDbLine
 10
5.0
 20
0.0
 30
0.0
 11
19.1676808052
 21
0.0
 31
0.0
  0
ENDBLK
  5
E9
330
E7
100
AcDbEntity
  8
0
100
AcDbBlockEnd
  0
BLOCK
  5
134
330
133
100
AcDbEntity
  8
0
100
AcDbBlockBegin
  2
SW_CENTERMARKSYMBOL_1
 70
     0
 10
0.0
 20
0.0
 30
0.0
  3
SW_CENTERMARKSYMBOL_1
  1

  0
LINE
  5
136
330
133
100
AcDbEntity
  8
10
 62
     0
100
AcDbLine
 10
0.0
 20
0.0
 30
0.0
 11
0.0
 21
2.5
 31
0.0
  0
LINE
  5
137
330
133
100
AcDbEntity
  8
10
 62
     0
100
AcDbLine
 10
0.0
 20
0.0
 30
0.0
 11
-2.5
 21
0.0
 31
0.0
  0
LINE
  5
138
330
133
100
AcDbEntity
  8
10
 62
     0
100
AcDbLine
 10
0.0
 20
0.0
 30
0.0
 11
0.0
 21
-2.5
 31
0.0
  0
LINE
  5
139
330
133
100
AcDbEntity
  8
10
 62
     0
100
AcDbLine
 10
0.0
 20
0.0
 30
0.0
 11
2.5
 21
0.0
 31
0.0
  0
LINE
  5
13A
330
133
100
AcDbEntity
  8
10
 62
     0
100
AcDbLine
 10
0.0
 20
5.0
 30
0.0
 11
0.0
 21
10.5326172555
 31
0.0
  0
LINE
  5
13B
330
133
100
AcDbEntity
  8
10
 62
     0
100
AcDbLine
 10
-5.0
 20
0.0
 30
0.0
 11
-10.5326172555
 21
0.0
 31
0.0
  0
LINE
  5
13C
330
133
100
AcDbEntity
  8
10
 62
     0
100
AcDbLine
 10
0.0
 20
-5.0
 30
0.0
 11
0.0
 21
-10.5326172555
 31
0.0
  0
LINE
  5
13D
330
133
100
AcDbEntity
  8
10
 62
     0
100
AcDbLine
 10
5.0
 20
0.0
 30
0.0
 11
10.5326172555
 21
0.0
 31
0.0
  0
ENDBLK
  5
135
330
133
100
AcDbEntity
  8
0
100
AcDbBlockEnd
  0
BLOCK
  5
140
330
13F
100
AcDbEntity
  8
0
100
AcDbBlockBegin
  2
SW_CENTERMARKSYMBOL_2
 70
     0
 10
0.0
 20
0.0
 30
0.0
  3
SW_CENTERMARKSYMBOL_2
  1

  0
LINE
  5
142
330
13F
100
AcDbEntity
  8
10
 62
     0
100
AcDbLine
 10
0.0
 20
0.0
 30
0.0
 11
0.0
 21
2.5
 31
0.0
  0
LINE
  5
143
330
13F
100
AcDbEntity
  8
10
 62
     0
100
AcDbLine
 10
0.0
 20
0.0
 30
0.0
 11
-2.5
 21
0.0
 31
0.0
  0
LINE
  5
144
330
13F
100
AcDbEntity
  8
10
 62
     0
100
AcDbLine
 10
0.0
 20
0.0
 30
0.0
 11
0.0
 21
-2.5
 31
0.0
  0
LINE
  5
145
330
13F
100
AcDbEntity
  8
10
 62
     0
100
AcDbLine
 10
0.0
 20
0.0
 30
0.0
 11
2.5
 21
0.0
 31
0.0
  0
LINE
  5
146
330
13F
100
AcDbEntity
  8
10
 62
     0
100
AcDbLine
 10
0.0
 20
5.0
 30
0.0
 11
0.0
 21
5.5122314708
 31
0.0
  0
LINE
  5
147
330
13F
100
AcDbEntity
  8
10
 62
     0
100
AcDbLine
 10
-5.0
 20
0.0
 30
0.0
 11
-5.5122314708
 21
0.0
 31
0.0
  0
LINE
  5
148
330
13F
100
AcDbEntity
  8
10
 62
     0
100
AcDbLine
 10
0.0
 20
-5.0
 30
0.0
 11
0.0
 21
-5.5122314708
 31
0.0
  0
LINE
  5
149
330
13F
100
AcDbEntity
  8
10
 62
     0
100
AcDbLine
 10
5.0
 20
0.0
 30
0.0
 11
5.5122314708
 21
0.0
 31
0.0
  0
ENDBLK
  5
141
330
13F
100
AcDbEntity
  8
0
100
AcDbBlockEnd
  0
ENDSEC
  0
SECTION
  2
ENTITIES
  0
LINE
  5
70
330
1F
100
AcDbEntity
  8
0
  6
Continuous
 62
     7
370
    25
100
AcDbLine
 10
133.0
 20
65.0326172555
 30
0.0
 11
131.9959228431
 21
66.0366944125
 31
0.0
  0
LINE
  5
71
330
1F
100
AcDbEntity
  8
0
  6
Continuous
 62
     7
370
    25
100
AcDbLine
 10
133.0
 20
48.9673827445
 30
0.0
 11
133.0
 21
65.0326172555
 31
0.0
  0
LINE
  5
72
330
1F
100
AcDbEntity
  8
0
  6
Continuous
 62
     7
370
    25
100
AcDbLine
 10
131.9959228431
 20
47.9633055875
 30
0.0
 11
133.0
 21
48.9673827445
 31
0.0
  0
LINE
  5
73
330
1F
100
AcDbEntity
  8
0
  6
Continuous
 62
     7
370
    25
100
AcDbLine
 10
63.1223147082
 20
81.0978517666
 30
0.0
 11
59.1060060804
 21
85.1141603943
 31
0.0
  0
LINE
  5
74
330
1F
100
AcDbEntity
  8
0
  6
Continuous
 62
     7
370
    25
100
AcDbLine
 10
51.0733888249
 20
85.1141603943
 30
0.0
 11
47.0570801972
 21
81.0978517666
 31
0.0
  0
LINE
  5
75
330
1F
100
AcDbEntity
  8
0
  6
Continuous
 62
     7
370
    25
100
AcDbLine
 10
63.1223147082
 20
77.5774583848
 30
0.0
 11
63.1223147082
 21
81.0978517666
 31
0.0
  0
LINE
  5
76
330
1F
100
AcDbEntity
  8
0
  6
Continuous
 62
     7
370
    25
100
AcDbLine
 10
47.0570801972
 20
81.0978517666
 30
0.0
 11
47.0570801972
 21
77.5866228504
 31
0.0
  0
LINE
  5
77
330
1F
100
AcDbEntity
  8
0
  6
Continuous
 62
     7
370
    25
100
AcDbLine
 10
47.0570801972
 20
36.4225416152
 30
0.0
 11
47.0570801972
 21
32.9021482334
 31
0.0
  0
LINE
  5
78
330
1F
100
AcDbEntity
  8
0
  6
Continuous
 62
     7
370
    25
100
AcDbLine
 10
63.1223147082
 20
32.9021482334
 30
0.0
 11
63.1223147082
 21
36.4178935535
 31
0.0
  0
LINE
  5
79
330
1F
100
AcDbEntity
  8
0
  6
Continuous
 62
     7
370
    25
100
AcDbLine
 10
47.0570801972
 20
32.9021482334
 30
0.0
 11
51.0733888249
 21
28.8858396057
 31
0.0
  0
LINE
  5
7A
330
1F
100
AcDbEntity
  8
0
  6
Continuous
 62
     7
370
    25
100
AcDbLine
 10
59.1060060804
 20
28.8858396057
 30
0.0
 11
63.1223147082
 21
32.9021482334
 31
0.0
  0
LINE
  5
7B
330
1F
100
AcDbEntity
  8
0
  6
Continuous
 62
     7
370
    25
100
AcDbLine
 10
111.0911543581
 20
65.0326172555
 30
0.0
 11
124.6067659521
 21
65.0326172555
 31
0.0
  0
LINE
  5
7C
330
1F
100
AcDbEntity
  8
0
  6
Continuous
 62
     7
370
    25
100
AcDbLine
 10
124.6067659521
 20
48.9673827445
 30
0.0
 11
111.0911543581
 21
48.9673827445
 31
0.0
  0
LINE
  5
7D
330
1F
100
AcDbEntity
  8
0
  6
Continuous
 62
     7
370
    25
100
AcDbLine
 10
111.8154734902
 20
47.9633055875
 30
0.0
 11
123.9795239248
 21
47.9633055875
 31
0.0
  0
LINE
  5
7E
330
1F
100
AcDbEntity
  8
0
  6
Continuous
 62
     7
370
    25
100
AcDbLine
 10
123.9795239248
 20
66.0366944125
 30
0.0
 11
111.8154734902
 21
66.0366944125
 31
0.0
  0
LINE
  5
7F
330
1F
100
AcDbEntity
  8
0
  6
Continuous
 62
     7
370
    25
100
AcDbLine
 10
129.2316487036
 20
48.9673827445
 30
0.0
 11
124.6067659521
 21
48.9673827445
 31
0.0
  0
LINE
  5
80
330
1F
100
AcDbEntity
  8
0
  6
Continuous
 62
     7
370
    25
100
AcDbLine
 10
123.9795239248
 20
47.9633055875
 30
0.0
 11
128.6044066763
 21
47.9633055875
 31
0.0
  0
LINE
  5
81
330
1F
100
AcDbEntity
  8
0
  6
Continuous
 62
     7
370
    25
100
AcDbLine
 10
124.6067659521
 20
65.0326172555
 30
0.0
 11
129.2316487036
 21
65.0326172555
 31
0.0
  0
LINE
  5
82
330
1F
100
AcDbEntity
  8
0
  6
Continuous
 62
     7
370
    25
100
AcDbLine
 10
128.6044066763
 20
66.0366944125
 30
0.0
 11
123.9795239248
 21
66.0366944125
 31
0.0
  0
LINE
  5
83
330
1F
100
AcDbEntity
  8
0
  6
Continuous
 62
     7
370
    25
100
AcDbLine
 10
108.1925011311
 20
65.0326172555
 30
0.0
 11
111.0911543581
 21
65.0326172555
 31
0.0
  0
LINE
  5
84
330
1F
100
AcDbEntity
  8
0
  6
Continuous
 62
     7
370
    25
100
AcDbLine
 10
111.0911543581
 20
48.9673827445
 30
0.0
 11
108.1925011311
 21
48.9673827445
 31
0.0
  0
LINE
  5
85
330
1F
100
AcDbEntity
  8
0
  6
Continuous
 62
     7
370
    25
100
AcDbLine
 10
108.9168202632
 20
47.9633055875
 30
0.0
 11
111.8154734902
 21
47.9633055875
 31
0.0
  0
LINE
  5
86
330
1F
100
AcDbEntity
  8
0
  6
Continuous
 62
     7
370
    25
100
AcDbLine
 10
111.8154734902
 20
66.0366944125
 30
0.0
 11
108.9168202632
 21
66.0366944125
 31
0.0
  0
LINE
  5
87
330
1F
100
AcDbEntity
  8
0
  6
Continuous
 62
     7
370
    25
100
AcDbLine
 10
129.2316487036
 20
65.0326172555
 30
0.0
 11
133.0
 21
65.0326172555
 31
0.0
  0
LINE
  5
88
330
1F
100
AcDbEntity
  8
0
  6
Continuous
 62
     7
370
    25
100
AcDbLine
 10
131.9959228431
 20
66.0366944125
 30
0.0
 11
128.6044066763
 21
66.0366944125
 31
0.0
  0
LINE
  5
89
330
1F
100
AcDbEntity
  8
0
  6
Continuous
 62
     7
370
    25
100
AcDbLine
 10
133.0
 20
48.9673827445
 30
0.0
 11
129.2316487036
 21
48.9673827445
 31
0.0
  0
LINE
  5
8A
330
1F
100
AcDbEntity
  8
0
  6
Continuous
 62
     7
370
    25
100
AcDbLine
 10
128.6044066763
 20
47.9633055875
 30
0.0
 11
131.9959228431
 21
47.9633055875
 31
0.0
  0
LINE
  5
8B
330
1F
100
AcDbEntity
  8
0
  6
Continuous
 62
     7
370
    25
100
AcDbLine
 10
105.3949208827
 20
48.9673827445
 30
0.0
 11
106.3989980397
 21
47.9633055875
 31
0.0
  0
LINE
  5
8C
330
1F
100
AcDbEntity
  8
0
  6
Continuous
 62
     7
370
    25
100
AcDbLine
 10
108.1925011311
 20
48.9673827445
 30
0.0
 11
105.3949208827
 21
48.9673827445
 31
0.0
  0
LINE
  5
8D
330
1F
100
AcDbEntity
  8
0
  6
Continuous
 62
     7
370
    25
100
AcDbLine
 10
106.3989980397
 20
47.9633055875
 30
0.0
 11
108.9168202632
 21
47.9633055875
 31
0.0
  0
LINE
  5
8E
330
1F
100
AcDbEntity
  8
0
  6
Continuous
 62
     7
370
    25
100
AcDbLine
 10
105.3949208827
 20
65.0326172555
 30
0.0
 11
105.3949208827
 21
48.9673827445
 31
0.0
  0
LINE
  5
8F
330
1F
100
AcDbEntity
  8
0
  6
Continuous
 62
     7
370
    25
100
AcDbLine
 10
105.3949208827
 20
65.0326172555
 30
0.0
 11
108.1925011311
 21
65.0326172555
 31
0.0
  0
LINE
  5
90
330
1F
100
AcDbEntity
  8
0
  6
Continuous
 62
     7
370
    25
100
AcDbLine
 10
105.3949208827
 20
65.0326172555
 30
0.0
 11
106.3989980397
 21
66.0366944125
 31
0.0
  0
LINE
  5
91
330
1F
100
AcDbEntity
  8
0
  6
Continuous
 62
     7
370
    25
100
AcDbLine
 10
108.9168202632
 20
66.0366944125
 30
0.0
 11
106.3989980397
 21
66.0366944125
 31
0.0
  0
LINE
  5
92
330
1F
100
AcDbEntity
  8
0
  6
Continuous
 62
     7
370
    25
100
AcDbLine
 10
105.3949208828
 20
48.9673827445
 30
0.0
 11
103.4195624254
 21
48.9673827445
 31
0.0
  0
LINE
  5
93
330
1F
100
AcDbEntity
  8
0
  6
Continuous
 62
     7
370
    25
100
AcDbLine
 10
104.2261037366
 20
47.9633055875
 30
0.0
 11
106.3989980397
 21
47.9633055875
 31
0.0
  0
LINE
  5
94
330
1F
100
AcDbEntity
  8
0
  6
Continuous
 62
     7
370
    25
100
AcDbLine
 10
103.4195624254
 20
65.0326172555
 30
0.0
 11
105.3949208828
 21
65.0326172555
 31
0.0
  0
LINE
  5
95
330
1F
100
AcDbEntity
  8
0
  6
Continuous
 62
     7
370
    25
100
AcDbLine
 10
106.3989980397
 20
66.0366944125
 30
0.0
 11
104.2261037366
 21
66.0366944125
 31
0.0
  0
LINE
  5
96
330
1F
100
AcDbEntity
  8
0
  6
Continuous
 62
     7
370
    25
100
AcDbLine
 10
92.4376751973
 20
65.0326172555
 30
0.0
 11
103.4195624254
 21
65.0326172555
 31
0.0
  0
LINE
  5
97
330
1F
100
AcDbEntity
  8
0
  6
Continuous
 62
     7
370
    25
100
AcDbLine
 10
104.2261037366
 20
66.0366944125
 30
0.0
 11
93.2442165085
 21
66.0366944125
 31
0.0
  0
LINE
  5
98
330
1F
100
AcDbEntity
  8
0
  6
Continuous
 62
     7
370
    25
100
AcDbLine
 10
103.4195624254
 20
48.9673827445
 30
0.0
 11
92.4376751973
 21
48.9673827445
 31
0.0
  0
LINE
  5
99
330
1F
100
AcDbEntity
  8
0
  6
Continuous
 62
     7
370
    25
100
AcDbLine
 10
93.2442165085
 20
47.9633055875
 30
0.0
 11
104.2261037366
 21
47.9633055875
 31
0.0
  0
LINE
  5
9A
330
1F
100
AcDbEntity
  8
0
  6
Continuous
 62
     7
370
    25
100
AcDbLine
 10
92.4376751973
 20
48.9673827445
 30
0.0
 11
91.2026628551
 21
48.9673827445
 31
0.0
  0
LINE
  5
9B
330
1F
100
AcDbEntity
  8
0
  6
Continuous
 62
     7
370
    25
100
AcDbLine
 10
91.9577453187
 20
47.9633055875
 30
0.0
 11
93.2442165085
 21
47.9633055875
 31
0.0
  0
LINE
  5
9C
330
1F
100
AcDbEntity
  8
0
  6
Continuous
 62
     7
370
    25
100
AcDbLine
 10
91.2026628551
 20
65.0326172555
 30
0.0
 11
92.4376751973
 21
65.0326172555
 31
0.0
  0
LINE
  5
9D
330
1F
100
AcDbEntity
  8
0
  6
Continuous
 62
     7
370
    25
100
AcDbLine
 10
93.2442165085
 20
66.0366944125
 30
0.0
 11
91.9577453187
 21
66.0366944125
 31
0.0
  0
SPLINE
  5
9E
330
1F
100
AcDbEntity
  8
0
  6
Continuous
 62
     7
370
    25
100
AcDbSpline
210
0.0
220
0.0
230
1.0
 70
     8
 71
     3
 72
     8
 73
     4
 74
     0
 42
0.00000001
 43
0.00000001
 40
0.0
 40
0.0
 40
0.0
 40
0.0
 40
1.0
 40
1.0
 40
1.0
 40
1.0
 10
73.08068371927365
 20
71.32928072094458
 30
0.0
 10
75.15932373146899
 20
70.22792640674596
 30
0.0
 10
77.23616510445812
 20
69.1303382181584
 30
0.0
 10
79.26203193893738
 20
68.0623230700735
 30
0.0
  0
SPLINE
  5
9F
330
1F
100
AcDbEntity
  8
0
  6
Continuous
 62
     7
370
    25
100
AcDbSpline
210
0.0
220
0.0
230
1.0
 70
     8
 71
     3
 72
     8
 73
     4
 74
     0
 42
0.00000001
 43
0.00000001
 40
0.0
 40
0.0
 40
0.0
 40
0.0
 40
1.0
 40
1.0
 40
1.0
 40
1.0
 10
79.26203193893807
 20
68.06232307007294
 30
0.0
 10
79.3352170460537
 20
68.02374067083355
 30
0.0
 10
79.40831600627476
 20
67.98520716681983
 30
0.0
 10
79.48132554216221
 20
67.94672426462795
 30
0.0
  0
SPLINE
  5
A0
330
1F
100
AcDbEntity
  8
0
  6
Continuous
 62
     7
370
    25
100
AcDbSpline
210
0.0
220
0.0
230
1.0
 70
     8
 71
     3
 72
    18
 73
    14
 74
     0
 42
0.00000001
 43
0.00000001
 40
0.0
 40
0.0
 40
0.0
 40
0.0
 40
0.1250000000000001
 40
0.1250000000000001
 40
0.2500000000000002
 40
0.2500000000000002
 40
0.5000000000000003
 40
0.5000000000000003
 40
0.6250000000000002
 40
0.6250000000000002
 40
0.7500000000000002
 40
0.7500000000000002
 40
1.0
 40
1.0
 40
1.0
 40
1.0
 10
79.48132554216221
 20
67.94672426462795
 30
0.0
 10
79.96312823944704
 20
67.69276886209012
 30
0.0
 10
80.44772042883938
 20
67.45716711213919
 30
0.0
 10
81.42079112828979
 20
67.02075833999852
 30
0.0
 10
81.91098722027016
 20
66.8193387252287
 30
0.0
 10
83.37088767974248
 20
66.27087073575223
 30
0.0
 10
84.32837605192407
 20
65.98005310575832
 30
0.0
 10
85.7331672067234
 20
65.6403323383234
 30
0.0
 10
86.19606893102264
 20
65.5426967721556
 30
0.0
 10
87.1093434595205
 20
65.37460476883237
 30
0.0
 10
87.55773313919134
 20
65.30457772338809
 30
0.0
 10
88.8637201020025
 20
65.13267040669886
 30
0.0
 10
89.687853754012
 20
65.06704937101631
 30
0.0
 10
90.46350804677117
 20
65.04373388651594
 30
0.0
  0
SPLINE
  5
A1
330
1F
100
AcDbEntity
  8
0
  6
Continuous
 62
     7
370
    25
100
AcDbSpline
210
0.0
220
0.0
230
1.0
 70
     8
 71
     3
 72
     8
 73
     4
 74
     0
 42
0.00000001
 43
0.00000001
 40
0.0
 40
0.0
 40
0.0
 40
0.0
 40
1.0
 40
1.0
 40
1.0
 40
1.0
 10
90.46350804677118
 20
65.04373388651594
 30
0.0
 10
90.71582848710308
 20
65.03614935643522
 30
0.0
 10
90.96228597307883
 20
65.03261725551899
 30
0.0
 10
91.2026628550802
 20
65.03261725551901
 30
0.0
  0
SPLINE
  5
A2
330
1F
100
AcDbEntity
  8
0
  6
Continuous
 62
     7
370
    25
100
AcDbSpline
210
0.0
220
0.0
230
1.0
 70
     8
 71
     3
 72
     8
 73
     4
 74
     0
 42
0.00000001
 43
0.00000001
 40
0.0
 40
0.0
 40
0.0
 40
0.0
 40
1.0
 40
1.0
 40
1.0
 40
1.0
 10
91.2026628550802
 20
48.96738274448239
 30
0.0
 10
90.96251131173817
 20
48.96738274448239
 30
0.0
 10
90.71606257651501
 20
48.96385768008758
 30
0.0
 10
90.46350804676904
 20
48.95626611348529
 30
0.0
  0
SPLINE
  5
A3
330
1F
100
AcDbEntity
  8
0
  6
Continuous
 62
     7
370
    25
100
AcDbSpline
210
0.0
220
0.0
230
1.0
 70
     8
 71
     3
 72
    18
 73
    14
 74
     0
 42
0.00000001
 43
0.00000001
 40
0.0
 40
0.0
 40
0.0
 40
0.0
 40
0.1250000000000001
 40
0.1250000000000001
 40
0.2500000000000002
 40
0.2500000000000002
 40
0.5000000000000002
 40
0.5000000000000002
 40
0.6250000000000002
 40
0.6250000000000002
 40
0.7500000000000002
 40
0.7500000000000002
 40
1.0
 40
1.0
 40
1.0
 40
1.0
 10
90.46350804676906
 20
48.95626611348529
 30
0.0
 10
90.0756965516651
 20
48.94460884169857
 30
0.0
 10
89.67502336662083
 20
48.92219207105729
 30
0.0
 10
88.8483005025643
 20
48.85471096541078
 30
0.0
 10
88.42095779262725
 20
48.80945843676268
 30
0.0
 10
87.11204223651913
 20
48.63688895644565
 30
0.0
 10
86.20459721777706
 20
48.47395795094171
 30
0.0
 10
84.79872473080215
 20
48.13365181646906
 30
0.0
 10
84.32269474044006
 20
48.00377861732794
 30
0.0
 10
83.35693512311741
 20
47.70656144537044
 30
0.0
 10
82.8706199334058
 20
47.54051360502508
 30
0.0
 10
81.41539051516762
 20
46.99298060466264
 30
0.0
 10
80.4449802015336
 20
46.56121250763904
 30
0.0
 10
79.48132554216221
 20
46.05327573537266
 30
0.0
  0
SPLINE
  5
A4
330
1F
100
AcDbEntity
  8
0
  6
Continuous
 62
     7
370
    25
100
AcDbSpline
210
0.0
220
0.0
230
1.0
 70
     8
 71
     3
 72
     8
 73
     4
 74
     0
 42
0.00000001
 43
0.00000001
 40
0.0
 40
0.0
 40
0.0
 40
0.0
 40
1.0
 40
1.0
 40
1.0
 40
1.0
 10
79.48132554216221
 20
46.05327573537266
 30
0.0
 10
79.40831600627472
 20
46.01479283318075
 30
0.0
 10
79.33521704605364
 20
45.97625932916703
 30
0.0
 10
79.262031938938
 20
45.93767692992763
 30
0.0
  0
SPLINE
  5
A5
330
1F
100
AcDbEntity
  8
0
  6
Continuous
 62
     7
370
    25
100
AcDbSpline
210
0.0
220
0.0
230
1.0
 70
     8
 71
     3
 72
     8
 73
     4
 74
     0
 42
0.00000001
 43
0.00000001
 40
0.0
 40
0.0
 40
0.0
 40
0.0
 40
1.0
 40
1.0
 40
1.0
 40
1.0
 10
79.262031938938
 20
45.93767692992763
 30
0.0
 10
77.23614950238564
 20
44.86965355659783
 30
0.0
 10
75.15933196353973
 20
43.77207795496518
 30
0.0
 10
73.08068371927361
 20
42.6707192790557
 30
0.0
  0
SPLINE
  5
A6
330
1F
100
AcDbEntity
  8
0
  6
Continuous
 62
     7
370
    25
100
AcDbSpline
210
0.0
220
0.0
230
1.0
 70
     8
 71
     3
 72
    18
 73
    14
 74
     0
 42
0.00000001
 43
0.00000001
 40
0.0
 40
0.0
 40
0.0
 40
0.0
 40
0.1249999999999999
 40
0.1249999999999999
 40
0.2499999999999999
 40
0.2499999999999999
 40
0.5
 40
0.5
 40
0.6249999999999999
 40
0.6249999999999999
 40
0.7499999999999999
 40
0.7499999999999999
 40
1.0
 40
1.0
 40
1.0
 40
1.0
 10
91.20266285507988
 20
66.03669441245873
 30
0.0
 10
90.81212717062496
 20
66.03669441245871
 30
0.0
 10
90.4078479603865
 20
66.04618804507817
 30
0.0
 10
89.57399448586884
 20
66.08817082536221
 30
0.0
 10
89.14317387774214
 20
66.12079824254488
 30
0.0
 10
87.82512903602503
 20
66.25821427420283
 30
0.0
 10
86.91333329969866
 20
66.4018775195859
 30
0.0
 10
85.5001835595651
 20
66.71615485638887
 30
0.0
 10
85.02132740218327
 20
66.83746807937699
 30
0.0
 10
84.04834495811141
 20
67.11762867490542
 30
0.0
 10
83.55880607727565
 20
67.27524907732011
 30
0.0
 10
82.09263602390135
 20
67.80089279361972
 30
0.0
 10
81.11491451255782
 20
68.22248295963882
 30
0.0
 10
80.14377673861676
 20
68.72409317993026
 30
0.0
  0
SPLINE
  5
A7
330
1F
100
AcDbEntity
  8
0
  6
Continuous
 62
     7
370
    25
100
AcDbSpline
210
0.0
220
0.0
230
1.0
 70
     8
 71
     3
 72
    18
 73
    14
 74
     0
 42
0.00000001
 43
0.00000001
 40
0.0
 40
0.0
 40
0.0
 40
0.0
 40
0.1249999999999999
 40
0.1249999999999999
 40
0.2499999999999998
 40
0.2499999999999998
 40
0.4999999999999998
 40
0.4999999999999998
 40
0.6249999999999998
 40
0.6249999999999998
 40
0.7499999999999998
 40
0.7499999999999998
 40
1.0
 40
1.0
 40
1.0
 40
1.0
 10
80.14377673861684
 20
45.27590682007025
 30
0.0
 10
80.62926955795083
 20
45.52667263990627
 30
0.0
 10
81.11756083335004
 20
45.75798543436866
 30
0.0
 10
82.09829857109773
 20
46.18367001798998
 30
0.0
 10
82.59247847288827
 20
46.37861425729624
 30
0.0
 10
84.06344480270623
 20
46.90504709034379
 30
0.0
 10
85.0280176445602
 20
47.17877060671637
 30
0.0
 10
86.44044287801434
 20
47.49298757864125
 30
0.0
 10
86.90577820758219
 20
47.58168913796833
 30
0.0
 10
87.8246545537634
 20
47.72990636447882
 30
0.0
 10
88.27476596482963
 20
47.78883005235009
 30
0.0
 10
89.58922933374181
 20
47.92536851353548
 30
0.0
 10
90.42154601649531
 20
47.96330558754213
 30
0.0
 10
91.20266285507773
 20
47.96330558754225
 30
0.0
  0
SPLINE
  5
A8
330
1F
100
AcDbEntity
  8
0
  6
Continuous
 62
     7
370
    25
100
AcDbSpline
210
0.0
220
0.0
230
1.0
 70
    24
 71
     3
 72
     8
 73
     4
 74
     0
 42
0.00000001
 43
0.00000001
 40
0.0
 40
0.0
 40
0.0
 40
0.0
 40
1.0
 40
1.0
 40
1.0
 40
1.0
 10
91.20266285507773
 20
47.96330558754251
 30
0.0
 10
91.4603531154288
 20
47.96330558754254
 30
0.0
 10
91.71203553875908
 20
47.96330558754256
 30
0.0
 10
91.95774531869044
 20
47.96330558754258
 30
0.0
  0
SPLINE
  5
A9
330
1F
100
AcDbEntity
  8
0
  6
Continuous
 62
     7
370
    25
100
AcDbSpline
210
0.0
220
0.0
230
1.0
 70
    24
 71
     3
 72
     8
 73
     4
 74
     0
 42
0.00000001
 43
0.00000001
 40
0.0
 40
0.0
 40
0.0
 40
0.0
 40
1.0
 40
1.0
 40
1.0
 40
1.0
 10
91.95774531869041
 20
66.03669441245876
 30
0.0
 10
91.71180498470294
 20
66.03669441245874
 30
0.0
 10
91.4601142657769
 20
66.03669441245871
 30
0.0
 10
91.20266285507986
 20
66.0366944124587
 30
0.0
  0
LINE
  5
AA
330
1F
100
AcDbEntity
  8
0
  6
Continuous
 62
     7
370
    25
100
AcDbLine
 10
47.0570801972
 20
81.0978517666
 30
0.0
 11
63.1223147082
 21
81.0978517666
 31
0.0
  0
LINE
  5
AB
330
1F
100
AcDbEntity
  8
0
  6
Continuous
 62
     7
370
    25
100
AcDbLine
 10
51.0733888249
 20
85.1141603943
 30
0.0
 11
59.1060060804
 21
85.1141603943
 31
0.0
  0
SPLINE
  5
AC
330
1F
100
AcDbEntity
  8
0
  6
Continuous
 62
     7
370
    25
100
AcDbSpline
210
0.0
220
0.0
230
1.0
 70
     8
 71
     3
 72
    20
 73
    16
 74
     0
 42
0.00000001
 43
0.00000001
 40
0.0
 40
0.0
 40
0.0
 40
0.0
 40
0.25
 40
0.25
 40
0.375
 40
0.375
 40
0.5
 40
0.5
 40
0.625
 40
0.625
 40
0.75
 40
0.75
 40
0.875
 40
0.875
 40
1.0
 40
1.0
 40
1.0
 40
1.0
 10
51.65574133644184
 20
69.59320585711674
 30
0.0
 10
52.23469727377056
 20
69.75107743521824
 30
0.0
 10
52.84128692679163
 20
69.87389103296232
 30
0.0
 10
53.79618377302506
 20
69.99271309972957
 30
0.0
 10
54.12372440450976
 20
70.02128250737715
 30
0.0
 10
54.77413420451782
 20
70.05324947678243
 30
0.0
 10
55.0992590176667
 20
70.05704870439867
 30
0.0
 10
55.74934962875691
 20
70.0403784952414
 30
0.0
 10
56.07551448971253
 20
70.01978377177217
 30
0.0
 10
56.72251571290024
 20
69.95455553939581
 30
0.0
 10
57.03819749935356
 20
69.91054956645749
 30
0.0
 10
57.65503704377847
 20
69.80226446071863
 30
0.0
 10
57.95619045374369
 20
69.7379749829343
 30
0.0
 10
58.54444973398407
 20
69.59116656493057
 30
0.0
 10
58.83095498377381
 20
69.50869477585914
 30
0.0
 10
59.10600608043111
 20
69.41974852299961
 30
0.0
  0
LINE
  5
AD
330
1F
100
AcDbEntity
  8
0
  6
Continuous
 62
     7
370
    25
100
AcDbLine
 10
63.1223147082
 20
32.9021482334
 30
0.0
 11
47.0570801972
 21
32.9021482334
 31
0.0
  0
SPLINE
  5
AE
330
1F
100
AcDbEntity
  8
0
  6
Continuous
 62
     7
370
    25
100
AcDbSpline
210
0.0
220
0.0
230
1.0
 70
     8
 71
     3
 72
    20
 73
    16
 74
     0
 42
0.00000001
 43
0.00000001
 40
0.0
 40
0.0
 40
0.0
 40
0.0
 40
0.250000000000001
 40
0.250000000000001
 40
0.3750000000000008
 40
0.3750000000000008
 40
0.5000000000000007
 40
0.5000000000000007
 40
0.6250000000000004
 40
0.6250000000000004
 40
0.7500000000000003
 40
0.7500000000000003
 40
0.8750000000000001
 40
0.8750000000000001
 40
1.0
 40
1.0
 40
1.0
 40
1.0
 10
59.10600608043108
 20
44.58025147700164
 30
0.0
 10
58.55593264266955
 20
44.40236827027733
 30
0.0
 10
57.97300752636053
 20
44.25392206858201
 30
0.0
 10
57.04445722451543
 20
44.09036888931284
 30
0.0
 10
56.72366580695446
 20
44.04565289500601
 30
0.0
 10
56.08173096788065
 20
43.98075151922504
 30
0.0
 10
55.7588791013255
 20
43.96011442192997
 30
0.0
 10
55.10939278903496
 20
43.94297001375219
 30
0.0
 10
54.78275883848574
 20
43.9464597084405
 30
0.0
 10
54.12555112217183
 20
43.97849673387804
 30
0.0
 10
53.80207004153038
 20
44.0067334534382
 30
0.0
 10
53.16794422991787
 20
44.08528651302108
 30
0.0
 10
52.85674091357858
 20
44.13563820243911
 30
0.0
 10
52.24570242231434
 20
44.25678252436531
 30
0.0
 10
51.94543424521085
 20
44.32779974327067
 30
0.0
 10
51.65574133644184
 20
44.40679414288454
 30
0.0
  0
LINE
  5
AF
330
1F
100
AcDbEntity
  8
0
  6
Continuous
 62
     7
370
    25
100
AcDbLine
 10
59.1060060804
 20
28.8858396057
 30
0.0
 11
51.0733888249
 21
28.8858396057
 31
0.0
  0
ARC
  5
B0
330
1F
100
AcDbEntity
  8
0
  6
Continuous
 62
     7
370
    25
100
AcDbCircle
 10
55.0896974527
 20
57.0
 30
0.0
 40
22.08969745267538
100
AcDbArc
 50
98.9431914793
 51
261.0568085207
  0
ARC
  5
B1
330
1F
100
AcDbEntity
  8
0
  6
Continuous
 62
     7
370
    25
100
AcDbCircle
 10
55.0896974527
 20
57.0
 30
0.0
 40
13.05300304021728
100
AcDbArc
 50
105.2527701996
 51
254.7472298004
  0
LINE
  5
B2
330
1F
100
AcDbEntity
  8
0
  6
Continuous
 62
     7
370
    25
100
AcDbLine
 10
65.4333171485
 20
76.5183058983
 30
0.0
 11
72.8940446142
 21
72.5645340924
 31
0.0
  0
LINE
  5
B3
330
1F
100
AcDbEntity
  8
0
  6
Continuous
 62
     7
370
    25
100
AcDbLine
 10
72.8940446142
 20
72.5645340924
 30
0.0
 11
71.1549319637
 21
72.3498105005
 31
0.0
  0
LINE
  5
B4
330
1F
100
AcDbEntity
  8
0
  6
Continuous
 62
     7
370
    25
100
AcDbLine
 10
71.1549319637
 20
41.6501894995
 30
0.0
 11
71.1549319637
 21
72.3498105005
 31
0.0
  0
LINE
  5
B5
330
1F
100
AcDbEntity
  8
0
  6
Continuous
 62
     7
370
    25
100
AcDbLine
 10
71.1549319637
 20
41.6501894995
 30
0.0
 11
72.8940446142
 21
41.4354659076
 31
0.0
  0
LINE
  5
B6
330
1F
100
AcDbEntity
  8
0
  6
Continuous
 62
     7
370
    25
100
AcDbLine
 10
72.8940446142
 20
41.4354659076
 30
0.0
 11
65.4333171485
 21
37.4816941017
 31
0.0
  0
ARC
  5
B7
330
1F
100
AcDbEntity
  8
0
  6
Continuous
 62
     7
370
    25
100
AcDbCircle
 10
55.0896974527
 20
57.0
 30
0.0
 40
22.08969745267525
100
AcDbArc
 50
62.0788909902
 51
79.5243183036
  0
ARC
  5
B8
330
1F
100
AcDbEntity
  8
0
  6
Continuous
 62
     7
370
    25
100
AcDbCircle
 10
55.0896974527
 20
57.0
 30
0.0
 40
22.08969745267563
100
AcDbArc
 50
280.4756816964
 51
297.9211090098
  0
ARC
  5
B9
330
1F
100
AcDbEntity
  8
0
  6
Continuous
 62
     7
370
    25
100
AcDbCircle
 10
55.0896974527
 20
57.0
 30
0.0
 40
13.05300304021732
100
AcDbArc
 50
287.9202131394
 51
72.0797868606
  0
LINE
  5
BA
330
1F
100
AcDbEntity
  8
0
  6
Continuous
 62
     7
370
    25
100
AcDbLine
 10
51.7918580386
 20
46.3958803459
 30
0.0
 11
51.7918580386
 21
44.3704654256
 31
0.0
  0
SPLINE
  5
BB
330
1F
100
AcDbEntity
  8
0
  6
Continuous
 62
     7
370
    25
100
AcDbSpline
210
0.0
220
0.0
230
1.0
 70
     8
 71
     3
 72
    38
 73
    34
 74
     0
 42
0.00000001
 43
0.00000001
 40
0.0
 40
0.0
 40
0.0
 40
0.0
 40
0.0625
 40
0.0625
 40
0.125
 40
0.125
 40
0.1875
 40
0.1875
 40
0.25
 40
0.25
 40
0.3125
 40
0.3125
 40
0.375
 40
0.375
 40
0.4375
 40
0.4375
 40
0.5
 40
0.5
 40
0.5625
 40
0.5625
 40
0.625
 40
0.625
 40
0.6875
 40
0.6875
 40
0.75
 40
0.75
 40
0.8125
 40
0.8125
 40
0.875
 40
0.875
 40
0.9375
 40
0.9375
 40
1.0
 40
1.0
 40
1.0
 40
1.0
 10
58.38753686673505
 20
46.39588034587113
 30
0.0
 10
58.36750284135344
 20
46.38964984294577
 30
0.0
 10
58.32876570154715
 20
46.37761743736788
 30
0.0
 10
58.21579674927064
 20
46.3438244376518
 30
0.0
 10
58.14069124504773
 20
46.32181709884883
 30
0.0
 10
57.95725992469043
 20
46.27110263537659
 30
0.0
 10
57.85014930395727
 20
46.24273157465971
 30
0.0
 10
57.60579659641686
 20
46.18296882241098
 30
0.0
 10
57.46696909107494
 20
46.15126594340769
 30
0.0
 10
57.16754954500878
 20
46.0899595896353
 30
0.0
 10
57.00667406632294
 20
46.06022270166486
 30
0.0
 10
56.66213280239408
 20
46.00541161546301
 30
0.0
 10
56.47721680636385
 20
45.98028592974853
 30
0.0
 10
56.09886212297989
 20
45.93921816438061
 30
0.0
 10
55.90380014732904
 20
45.92295498606372
 30
0.0
 10
55.50147022601271
 20
45.90071476979931
 30
0.0
 10
55.29482611949084
 20
45.89493205541146
 30
0.0
 10
54.88732945337021
 20
45.89488140465242
 30
0.0
 10
54.68422766105033
 20
45.90045962722566
 30
0.0
 10
54.27935421414738
 20
45.92265618144225
 30
0.0
 10
54.08253694056474
 20
45.93903590546343
 30
0.0
 10
53.70422253736096
 20
45.98002911724281
 30
0.0
 10
53.52050372129233
 20
46.00493252569469
 30
0.0
 10
53.17396935864503
 20
46.05998795243438
 30
0.0
 10
53.01284125129641
 20
46.08977323216864
 30
0.0
 10
52.71387206465661
 20
46.15095241358232
 30
0.0
 10
52.57493107107848
 20
46.18265482849637
 30
0.0
 10
52.32989329968586
 20
46.24256129226829
 30
0.0
 10
52.22295180289481
 20
46.27088755239529
 30
0.0
 10
52.04021175404525
 20
46.32138953291525
 30
0.0
 10
51.96433158833756
 20
46.34360732773359
 30
0.0
 10
51.85067861681744
 20
46.3776003863318
 30
0.0
 10
51.81189197643648
 20
46.38964987017681
 30
0.0
 10
51.79185803861322
 20
46.39588034587187
 30
0.0
  0
LINE
  5
BC
330
1F
100
AcDbEntity
  8
0
  6
Continuous
 62
     7
370
    25
100
AcDbLine
 10
58.3875368667
 20
44.3704654256
 30
0.0
 11
58.3875368667
 21
46.3958803459
 31
0.0
  0
LINE
  5
BD
330
1F
100
AcDbEntity
  8
0
  6
Continuous
 62
     7
370
    25
100
AcDbLine
 10
58.3875368667
 20
67.6041196541
 30
0.0
 11
58.3875368667
 21
69.6295345744
 31
0.0
  0
SPLINE
  5
BE
330
1F
100
AcDbEntity
  8
0
  6
Continuous
 62
     7
370
    25
100
AcDbSpline
210
0.0
220
0.0
230
1.0
 70
     8
 71
     3
 72
    38
 73
    34
 74
     0
 42
0.00000001
 43
0.00000001
 40
0.0
 40
0.0
 40
0.0
 40
0.0
 40
0.0625
 40
0.0625
 40
0.125
 40
0.125
 40
0.1875
 40
0.1875
 40
0.25
 40
0.25
 40
0.3125
 40
0.3125
 40
0.375
 40
0.375
 40
0.4375
 40
0.4375
 40
0.5
 40
0.5
 40
0.5625
 40
0.5625
 40
0.625
 40
0.625
 40
0.6875
 40
0.6875
 40
0.75
 40
0.75
 40
0.8125
 40
0.8125
 40
0.875
 40
0.875
 40
0.9375
 40
0.9375
 40
1.0
 40
1.0
 40
1.0
 40
1.0
 10
51.79185803861322
 20
67.6041196541286
 30
0.0
 10
51.81189206399482
 20
67.61035015705393
 30
0.0
 10
51.85062920380111
 20
67.62238256263181
 30
0.0
 10
51.96359815607762
 20
67.65617556234787
 30
0.0
 10
52.03870366030052
 20
67.67818290115085
 30
0.0
 10
52.22213498065781
 20
67.7288973646231
 30
0.0
 10
52.32924560139099
 20
67.75726842533999
 30
0.0
 10
52.57359830893139
 20
67.81703117758872
 30
0.0
 10
52.71242581427331
 20
67.84873405659204
 30
0.0
 10
53.01184536033947
 20
67.91004041036447
 30
0.0
 10
53.1727208390253
 20
67.93977729833492
 30
0.0
 10
53.51726210295414
 20
67.99458838453683
 30
0.0
 10
53.70217809898436
 20
68.01971407025135
 30
0.0
 10
54.08053278236831
 20
68.06078183561934
 30
0.0
 10
54.27559475801917
 20
68.07704501393626
 30
0.0
 10
54.67792467933549
 20
68.09928523020075
 30
0.0
 10
54.88456878585736
 20
68.10506794458864
 30
0.0
 10
55.29206545197797
 20
68.10511859534778
 30
0.0
 10
55.49516724429786
 20
68.09954037277456
 30
0.0
 10
55.90004069120081
 20
68.07734381855809
 30
0.0
 10
56.09685796478345
 20
68.06096409453696
 30
0.0
 10
56.47517236798724
 20
68.01997088275769
 30
0.0
 10
56.65889118405588
 20
67.99506747430584
 30
0.0
 10
57.00542554670319
 20
67.94001204756626
 30
0.0
 10
57.16655365405182
 20
67.91022676783206
 30
0.0
 10
57.46552284069163
 20
67.84904758641846
 30
0.0
 10
57.60446383426976
 20
67.81734517150447
 30
0.0
 10
57.84950160566239
 20
67.75743870773263
 30
0.0
 10
57.95644310245344
 20
67.72911244760569
 30
0.0
 10
58.13918315130301
 20
67.6786104670858
 30
0.0
 10
58.2150633170107
 20
67.65639267226749
 30
0.0
 10
58.32871628853081
 20
67.62239961366934
 30
0.0
 10
58.36750292891177
 20
67.61035012982437
 30
0.0
 10
58.38753686673504
 20
67.60411965412933
 30
0.0
  0
LINE
  5
BF
330
1F
100
AcDbEntity
  8
0
  6
Continuous
 62
     7
370
    25
100
AcDbLine
 10
51.7918580386
 20
69.6295345744
 30
0.0
 11
51.7918580386
 21
67.6041196541
 31
0.0
  0
SPLINE
  5
C0
330
1F
100
AcDbEntity
  8
0
  6
Continuous
 62
     7
370
    25
100
AcDbSpline
210
0.0
220
0.0
230
1.0
 70
    24
 71
     3
 72
     8
 73
     4
 74
     0
 42
0.00000001
 43
0.00000001
 40
-1.55128755109365
 40
-1.55128755109365
 40
-1.55128755109365
 40
-1.55128755109365
 40
-1.292468365514
 40
-1.292468365514
 40
-1.292468365514
 40
-1.292468365514
 10
73.56606648241888
 20
41.79160022931818
 30
0.0
 10
75.71229310661361
 20
42.92898131645617
 30
0.0
 10
77.85304937139637
 20
44.06346341647657
 30
0.0
 10
79.91871413481665
 20
45.15815118513809
 30
0.0
  0
SPLINE
  5
C1
330
1F
100
AcDbEntity
  8
0
  6
Continuous
 62
     7
370
    25
100
AcDbSpline
210
0.0
220
0.0
230
1.0
 70
    24
 71
     3
 72
     8
 73
     4
 74
     0
 42
0.00000001
 43
0.00000001
 40
1.29246836551384
 40
1.29246836551384
 40
1.29246836551384
 40
1.29246836551384
 40
1.55128755109345
 40
1.55128755109345
 40
1.55128755109345
 40
1.55128755109345
 10
79.91871413481665
 20
68.84184881486243
 30
0.0
 10
77.8530493713967
 20
69.93653658352369
 30
0.0
 10
75.71229310661434
 20
71.07101868354384
 30
0.0
 10
73.56606648242001
 20
72.20839977068162
 30
0.0
  0
SPLINE
  5
C2
330
1F
100
AcDbEntity
  8
0
  6
Continuous
 62
     7
370
    25
100
AcDbSpline
210
0.0
220
0.0
230
1.0
 70
     8
 71
     3
 72
     8
 73
     4
 74
     0
 42
0.00000001
 43
0.00000001
 40
0.0
 40
0.0
 40
0.0
 40
0.0
 40
1.0
 40
1.0
 40
1.0
 40
1.0
 10
79.91871413481665
 20
45.15815118513809
 30
0.0
 10
79.99362565136539
 20
45.19785013435231
 30
0.0
 10
80.06864828587429
 20
45.23710161576098
 30
0.0
 10
80.1437767386168
 20
45.27590682007035
 30
0.0
  0
SPLINE
  5
C3
330
1F
100
AcDbEntity
  8
0
  6
Continuous
 62
     7
370
    25
100
AcDbSpline
210
0.0
220
0.0
230
1.0
 70
     8
 71
     3
 72
     8
 73
     4
 74
     0
 42
0.00000001
 43
0.00000001
 40
0.0
 40
0.0
 40
0.0
 40
0.0
 40
1.0
 40
1.0
 40
1.0
 40
1.0
 10
80.14377673861672
 20
68.72409317993018
 30
0.0
 10
80.06864828587426
 20
68.76289838423955
 30
0.0
 10
79.99362565136538
 20
68.8021498656482
 30
0.0
 10
79.91871413481665
 20
68.8418488148624
 30
0.0
  0
LINE
  5
C4
330
1F
100
AcDbEntity
  8
0
  6
Continuous
 62
     7
370
    25
100
AcDbLine
 10
71.1549319637
 20
72.3498105005
 30
0.0
 11
72.6105191968
 21
71.5784299897
 31
0.0
  0
LINE
  5
C5
330
1F
100
AcDbEntity
  8
0
  6
Continuous
 62
     7
370
    25
100
AcDbLine
 10
73.0806837284
 20
72.4656257123
 30
0.0
 11
72.8940446142
 21
72.5645340924
 31
0.0
  0
LWPOLYLINE
  5
C6
330
1F
100
AcDbEntity
  8
0
  6
Continuous
 62
     7
370
    25
100
AcDbPolyline
 90
        3
 70
   128
 43
0.0
 10
73.0806837269
 20
42.6707192786
 10
72.8173751086
 20
42.5311924479
 10
72.6105191968
 20
42.4215700103
  0
SPLINE
  5
C7
330
1F
100
AcDbEntity
  8
0
  6
Continuous
 62
     7
370
    25
100
AcDbSpline
210
0.0
220
0.0
230
1.0
 70
    24
 71
     3
 72
     8
 73
     4
 74
     0
 42
0.00000001
 43
0.00000001
 40
-1.570796326795
 40
-1.570796326795
 40
-1.570796326795
 40
-1.570796326795
 40
-1.55128755109254
 40
-1.55128755109254
 40
-1.55128755109254
 40
-1.55128755109254
 10
73.08068372843432
 20
41.53437428766717
 30
0.0
 10
73.24248803047875
 20
41.62012159453973
 30
0.0
 10
73.40429233218693
 20
41.70586890123408
 30
0.0
 10
73.56606648244667
 20
41.79160022933292
 30
0.0
  0
LWPOLYLINE
  5
C8
330
1F
100
AcDbEntity
  8
0
  6
Continuous
 62
     7
370
    25
100
AcDbPolyline
 90
        3
 70
   128
 43
0.0
 10
72.6105191968
 20
71.5784299897
 10
72.8737933771
 20
71.4389097199
 10
73.0806837223
 20
71.3292807238
  0
LINE
  5
C9
330
1F
100
AcDbEntity
  8
0
  6
Continuous
 62
     7
370
    25
100
AcDbLine
 10
72.6105191968
 20
42.4215700103
 30
0.0
 11
71.1549319637
 21
41.6501894995
 31
0.0
  0
LINE
  5
CA
330
1F
100
AcDbEntity
  8
0
  6
Continuous
 62
     7
370
    25
100
AcDbLine
 10
72.8940446142
 20
41.4354659076
 30
0.0
 11
73.0806837284
 21
41.5343742877
 31
0.0
  0
SPLINE
  5
CB
330
1F
100
AcDbEntity
  8
0
  6
Continuous
 62
     7
370
    25
100
AcDbSpline
210
0.0
220
0.0
230
1.0
 70
    24
 71
     3
 72
     8
 73
     4
 74
     0
 42
0.00000001
 43
0.00000001
 40
1.55128755109234
 40
1.55128755109234
 40
1.55128755109234
 40
1.55128755109234
 40
1.5707963267948
 40
1.5707963267948
 40
1.5707963267948
 40
1.5707963267948
 10
73.56606648244752
 20
72.20839977066703
 30
0.0
 10
73.40429233218788
 20
72.29413109876579
 30
0.0
 10
73.24248803047986
 20
72.37987840546009
 30
0.0
 10
73.08068372843553
 20
72.46562571233258
 30
0.0
  0
ARC
  5
CC
330
1F
100
AcDbEntity
  8
0
  6
Continuous
 62
     7
370
    25
100
AcDbCircle
 10
55.0896974527
 20
57.0
 30
0.0
 40
11.10509335575407
100
AcDbArc
 50
107.2754878726
 51
252.7245121274
  0
ARC
  5
CD
330
1F
100
AcDbEntity
  8
0
  6
Continuous
 62
     7
370
    25
100
AcDbCircle
 10
55.0896974527
 20
57.0
 30
0.0
 40
11.10509335575405
100
AcDbArc
 50
287.2754878725
 51
72.7245121275
  0
CIRCLE
  5
CE
330
1F
100
AcDbEntity
  8
0
  6
Continuous
 62
     7
370
    25
100
AcDbCircle
 10
55.0896974527
 20
57.0
 30
0.0
 40
9.03669441245809
  0
SPLINE
  5
CF
330
1F
100
AcDbEntity
  8
0
  6
HIDDEN
 62
     7
370
    18
100
AcDbSpline
210
0.0
220
0.0
230
1.0
 70
     8
 71
     3
 72
    12
 73
     8
 74
     0
 42
0.00000001
 43
0.00000001
 40
0.0
 40
0.0
 40
0.0
 40
0.0
 40
0.1009490436843187
 40
0.3951689243744307
 40
0.6725736372256269
 40
0.9573392591122131
 40
1.0
 40
1.0
 40
1.0
 40
1.0
 10
47.0806116625955
 20
77.58662285043998
 30
0.0
 10
47.07435411358563
 20
77.58417664794622
 30
0.0
 10
47.04985869667818
 20
77.5746008939521
 30
0.0
 10
47.22035553506284
 20
77.64184050890438
 30
0.0
 10
47.60030296355913
 20
77.78119714768118
 30
0.0
 10
47.96616570323745
 20
77.91540443692143
 30
0.0
 10
48.24880431562381
 20
78.0025375011084
 30
0.0
 10
48.28562961125894
 20
78.0138901638645
 30
0.0
  0
SPLINE
  5
D0
330
1F
100
AcDbEntity
  8
0
  6
HIDDEN
 62
     7
370
    18
100
AcDbSpline
210
0.0
220
0.0
230
1.0
 70
     8
 71
     3
 72
    14
 73
    10
 74
     0
 42
0.00000001
 43
0.00000001
 40
0.0
 40
0.0
 40
0.0
 40
0.0
 40
0.14365932644214
 40
0.3011243261995338
 40
0.4636943896239504
 40
0.6126547751788634
 40
0.7660290642738811
 40
0.9138697285977003
 40
1.0
 40
1.0
 40
1.0
 40
1.0
 10
51.10941880734731
 20
78.72384331584918
 30
0.0
 10
51.46743142070004
 20
78.78618724280145
 30
0.0
 10
52.21786168956391
 20
78.91686635331293
 30
0.0
 10
53.49531573589324
 20
79.04496465217807
 30
0.0
 10
54.82725327788891
 20
79.10180405614744
 30
0.0
 10
56.1583427587147
 20
79.07666037123568
 30
0.0
 10
57.4110623290775
 20
78.9776291399439
 30
0.0
 10
58.44840653068521
 20
78.84385386743637
 30
0.0
 10
59.00824871486393
 20
78.73435751243
 30
0.0
 10
59.2143399505814
 20
78.69404929745879
 30
0.0
  0
SPLINE
  5
D1
330
1F
100
AcDbEntity
  8
0
  6
HIDDEN
 62
     7
370
    18
100
AcDbSpline
210
0.0
220
0.0
230
1.0
 70
     8
 71
     3
 72
    11
 73
     7
 74
     0
 42
0.00000001
 43
0.00000001
 40
0.0
 40
0.0
 40
0.0
 40
0.0
 40
0.1471507636076223
 40
0.4722270308204397
 40
0.7330532257813216
 40
1.0
 40
1.0
 40
1.0
 40
1.0
 10
61.95043830344228
 20
77.99399369739935
 30
0.0
 10
62.06456210168712
 20
77.95726538277125
 30
0.0
 10
62.43080106008501
 20
77.83939917169197
 30
0.0
 10
62.79191755871068
 20
77.70357363053664
 30
0.0
 10
63.07490561226071
 20
77.59633711953714
 30
0.0
 10
63.10638996826652
 20
77.58379976157794
 30
0.0
 10
63.12231470819243
 20
77.57745838477412
 30
0.0
  0
SPLINE
  5
D2
330
1F
100
AcDbEntity
  8
0
  6
HIDDEN
 62
     7
370
    18
100
AcDbSpline
210
0.0
220
0.0
230
1.0
 70
     8
 71
     3
 72
     9
 73
     5
 74
     0
 42
0.00000001
 43
0.00000001
 40
0.0
 40
0.0
 40
0.0
 40
0.0
 40
0.4867725185165792
 40
1.0
 40
1.0
 40
1.0
 40
1.0
 10
63.1103527441961
 20
36.41789355354372
 30
0.0
 10
63.10360033291604
 20
36.41508630206408
 30
0.0
 10
63.08972853238666
 20
36.40931923146569
 30
0.0
 10
62.8992092117478
 20
36.33732304920833
 30
0.0
 10
62.80142946064237
 20
36.30037262991195
 30
0.0
  0
SPLINE
  5
D3
330
1F
100
AcDbEntity
  8
0
  6
HIDDEN
 62
     7
370
    18
100
AcDbSpline
210
0.0
220
0.0
230
1.0
 70
     8
 71
     3
 72
    14
 73
    10
 74
     0
 42
0.00000001
 43
0.00000001
 40
0.0
 40
0.0
 40
0.0
 40
0.0
 40
0.1299187773229336
 40
0.2970639102262908
 40
0.4533323623918374
 40
0.6146209124806382
 40
0.7632919535587782
 40
0.9162264364083493
 40
1.0
 40
1.0
 40
1.0
 40
1.0
 10
59.5821551407512
 20
35.3771128861482
 30
0.0
 10
59.27725301295784
 20
35.31535512631503
 30
0.0
 10
58.58008344143798
 20
35.17414380951472
 30
0.0
 10
57.37521422114711
 20
35.0163397087149
 30
0.0
 10
56.03004876082703
 20
34.91649527042241
 30
0.0
 10
54.70088653173836
 20
34.90015109169297
 30
0.0
 10
53.40023661564864
 20
34.96451745883146
 30
0.0
 10
52.34345144821904
 20
35.06957017945899
 30
0.0
 10
51.75255680238261
 20
35.16908740120029
 30
0.0
 10
51.54343273189505
 20
35.20430763316683
 30
0.0
  0
SPLINE
  5
D4
330
1F
100
AcDbEntity
  8
0
  6
HIDDEN
 62
     7
370
    18
100
AcDbSpline
210
0.0
220
0.0
230
1.0
 70
     8
 71
     3
 72
    11
 73
     7
 74
     0
 42
0.00000001
 43
0.00000001
 40
0.0
 40
0.0
 40
0.0
 40
0.0
 40
0.1598781519466855
 40
0.4213532489910614
 40
0.6911351789850683
 40
1.0
 40
1.0
 40
1.0
 40
1.0
 10
48.72367784240723
 20
35.85146287346749
 30
0.0
 10
48.55404303053588
 20
35.90241519126162
 30
0.0
 10
48.10697644730556
 20
36.03669823359592
 30
0.0
 10
47.59207423519067
 20
36.22039028116313
 30
0.0
 10
47.14660402994144
 20
36.38674997177537
 30
0.0
 10
47.08823557975759
 20
36.41008568800667
 30
0.0
 10
47.05708019715583
 20
36.42254161522733
 30
0.0
  0
LINE
  5
D5
330
1F
100
AcDbEntity
  8
0
  6
HIDDEN
 62
     7
370
    18
100
AcDbLine
 10
51.7918580386
 20
44.3704654256
 30
0.0
 11
51.8133849113
 21
44.3649107795
 31
0.0
  0
SPLINE
  5
D6
330
1F
100
AcDbEntity
  8
0
  6
HIDDEN
 62
     7
370
    18
100
AcDbSpline
210
0.0
220
0.0
230
1.0
 70
     8
 71
     3
 72
     8
 73
     4
 74
     0
 42
0.00000001
 43
0.00000001
 40
0.0
 40
0.0
 40
0.0
 40
0.0
 40
1.0
 40
1.0
 40
1.0
 40
1.0
 10
58.40315207057544
 20
44.37455320144947
 30
0.0
 10
58.40315207057544
 20
44.37455320144947
 30
0.0
 10
58.39807117043065
 20
44.37321615574056
 30
0.0
 10
58.38753686673509
 20
44.37046542555949
 30
0.0
  0
LINE
  5
D7
330
1F
100
AcDbEntity
  8
0
  6
HIDDEN
 62
     7
370
    18
100
AcDbLine
 10
51.79813468
 20
69.6311695351
 30
0.0
 11
51.7918580386
 21
69.6295345744
 31
0.0
  0
SPLINE
  5
D8
330
1F
100
AcDbEntity
  8
0
  6
HIDDEN
 62
     7
370
    18
100
AcDbSpline
210
0.0
220
0.0
230
1.0
 70
     8
 71
     3
 72
     8
 73
     4
 74
     0
 42
0.00000001
 43
0.00000001
 40
0.0
 40
0.0
 40
0.0
 40
0.0
 40
1.0
 40
1.0
 40
1.0
 40
1.0
 10
58.38753686673509
 20
69.62953457444097
 30
0.0
 10
58.39807117043065
 20
69.62678384425992
 30
0.0
 10
58.40315207057544
 20
69.62544679855102
 30
0.0
 10
58.40315207057544
 20
69.62544679855105
 30
0.0
  0
CIRCLE
  5
D9
330
1F
100
AcDbEntity
  8
0
  6
HIDDEN
 62
     7
370
    18
100
AcDbCircle
 10
55.0896974527
 20
57.0
 30
0.0
 40
16.66768080520048
  0
LINE
  5
DA
330
1F
100
AcDbEntity
  8
0
  6
HIDDEN
 62
     7
370
    18
100
AcDbLine
 10
85.3133834731
 20
48.2504449946
 30
0.0
 11
86.4561983329
 21
48.491857919
 31
0.0
  0
LINE
  5
DB
330
1F
100
AcDbEntity
  8
0
  6
HIDDEN
 62
     7
370
    18
100
AcDbLine
 10
88.7468782369
 20
48.8361130677
 30
0.0
 11
91.2026628551
 21
48.9673827445
 31
0.0
  0
LINE
  5
DC
330
1F
100
AcDbEntity
  8
0
  6
HIDDEN
 62
     7
370
    18
100
AcDbLine
 10
91.2026628551
 20
65.0326172555
 30
0.0
 11
90.0414415406
 21
65.0721365784
 31
0.0
  0
LINE
  5
DD
330
1F
100
AcDbEntity
  8
0
  6
HIDDEN
 62
     7
370
    18
100
AcDbLine
 10
87.5072501427
 20
65.3302722251
 30
0.0
 11
85.3133834731
 21
65.7495550054
 31
0.0
  0
SPLINE
  5
DE
330
1F
100
AcDbEntity
  8
0
  6
HIDDEN
 62
     7
370
    18
100
AcDbSpline
210
0.0
220
0.0
230
1.0
 70
     8
 71
     3
 72
     8
 73
     4
 74
     0
 42
0.00000001
 43
0.00000001
 40
0.0
 40
0.0
 40
0.0
 40
0.0
 40
1.0
 40
1.0
 40
1.0
 40
1.0
 10
85.31338626834652
 20
65.74955431515139
 30
0.0
 10
84.86734289296484
 20
66.20646697648974
 30
0.0
 10
84.42786113451437
 20
66.66985418292688
 30
0.0
 10
83.99544923501543
 20
67.13970911506192
 30
0.0
  0
SPLINE
  5
DF
330
1F
100
AcDbEntity
  8
0
  6
HIDDEN
 62
     7
370
    18
100
AcDbSpline
210
0.0
220
0.0
230
1.0
 70
     8
 71
     3
 72
     8
 73
     4
 74
     0
 42
0.00000001
 43
0.00000001
 40
0.0
 40
0.0
 40
0.0
 40
0.0
 40
1.0
 40
1.0
 40
1.0
 40
1.0
 10
83.99544923501642
 20
46.86029088493613
 30
0.0
 10
84.42786115071891
 20
47.33014583467786
 30
0.0
 10
84.86734287767419
 20
47.79353300784411
 30
0.0
 10
85.31338626834739
 20
48.25044568484662
 30
0.0
  0
LINE
  5
E0
330
1F
100
AcDbEntity
  8
0
  6
HIDDEN
 62
     7
370
    18
100
AcDbLine
 10
85.313377744
 20
65.7495029438
 30
0.0
 11
85.313377744
 21
48.2504970562
 31
0.0
  0
LINE
  5
E1
330
1F
100
AcDbEntity
  8
0
  6
HIDDEN
 62
     7
370
    18
100
AcDbLine
 10
114.4316152952
 20
66.0366944125
 30
0.0
 11
114.4316152952
 21
47.9633055875
 31
0.0
  0
LINE
  5
E2
330
1F
100
AcDbEntity
  8
0
  6
HIDDEN
 62
     7
370
    18
100
AcDbLine
 10
120.4560782368
 20
47.9633055875
 30
0.0
 11
120.4560782368
 21
66.0366944125
 31
0.0
  0
LINE
  5
E3
330
1F
100
AcDbEntity
  8
0
  6
HIDDEN
 62
     7
370
    18
100
AcDbLine
 10
58.4031520706
 20
28.8858396057
 30
0.0
 11
58.4031520706
 21
44.3745532014
 31
0.0
  0
LINE
  5
E4
330
1F
100
AcDbEntity
  8
0
  6
HIDDEN
 62
     7
370
    18
100
AcDbLine
 10
51.7762428348
 20
44.3649107795
 30
0.0
 11
51.7762428348
 21
28.8858396057
 31
0.0
  0
LINE
  5
E5
330
1F
100
AcDbEntity
  8
0
  6
HIDDEN
 62
     7
370
    18
100
AcDbLine
 10
58.4031520706
 20
69.6254398971
 30
0.0
 11
58.4031520706
 21
85.1141603943
 31
0.0
  0
LINE
  5
E6
330
1F
100
AcDbEntity
  8
0
  6
HIDDEN
 62
     7
370
    18
100
AcDbLine
 10
51.7762428348
 20
85.1141603943
 30
0.0
 11
51.7762428348
 21
69.6311695351
 31
0.0
  0
INSERT
  5
F2
330
1F
100
AcDbEntity
  8
10
100
AcDbBlockReference
  2
SW_CENTERMARKSYMBOL_0
 10
55.0896974527
 20
57.0
 30
0.0
  0
LINE
  5
F3
330
1F
100
AcDbEntity
  8
0
  6
Continuous
 62
     7
370
    25
100
AcDbLine
 10
33.0
 20
193.3833000535
 30
0.0
 11
33.0
 21
169.5206186928
 31
0.0
  0
CIRCLE
  5
F4
330
1F
100
AcDbEntity
  8
0
  6
Continuous
 62
     7
370
    25
100
AcDbCircle
 10
55.0896974527
 20
167.9600664398
 30
0.0
 40
8.032617255518304
  0
CIRCLE
  5
F5
330
1F
100
AcDbEntity
  8
0
  6
Continuous
 62
     7
370
    25
100
AcDbCircle
 10
55.0896974527
 20
167.9600664398
 30
0.0
 40
4.016308627759152
  0
CIRCLE
  5
F6
330
1F
100
AcDbEntity
  8
0
  6
Continuous
 62
     7
370
    25
100
AcDbCircle
 10
55.0896974527
 20
167.9600664398
 30
0.0
 40
3.313454617901293
  0
LINE
  5
F7
330
1F
100
AcDbEntity
  8
0
  6
Continuous
 62
     7
370
    25
100
AcDbLine
 10
33.0
 20
193.3833000535
 30
0.0
 11
65.4333171485
 21
193.3833000535
 31
0.0
  0
LINE
  5
F8
330
1F
100
AcDbEntity
  8
0
  6
Continuous
 62
     7
370
    25
100
AcDbLine
 10
59.1060060804
 20
161.0036158376
 30
0.0
 11
65.4333171485
 21
164.656690586
 31
0.0
  0
LINE
  5
F9
330
1F
100
AcDbEntity
  8
0
  6
Continuous
 62
     7
370
    25
100
AcDbLine
 10
33.0
 20
169.5206186928
 30
0.0
 11
51.6557413364
 21
160.6984629415
 31
0.0
  0
SPLINE
  5
FA
330
1F
100
AcDbEntity
  8
0
  6
Continuous
 62
     7
370
    25
100
AcDbSpline
210
0.0
220
0.0
230
1.0
 70
     8
 71
     3
 72
     8
 73
     4
 74
     0
 42
0.00000001
 43
0.00000001
 40
1.29246836551384
 40
1.29246836551384
 40
1.29246836551384
 40
1.29246836551384
 40
1.55128755109345
 40
1.55128755109345
 40
1.55128755109345
 40
1.55128755109345
 10
79.91871413481665
 20
168.0062155308979
 30
0.0
 10
77.8530493713967
 20
168.5964686993198
 30
0.0
 10
75.71229310661434
 20
168.9175332653142
 30
0.0
 10
73.56606648242001
 20
168.9594088317711
 30
0.0
  0
SPLINE
  5
FB
330
1F
100
AcDbEntity
  8
0
  6
Continuous
 62
     7
370
    25
100
AcDbSpline
210
0.0
220
0.0
230
1.0
 70
     8
 71
     3
 72
     8
 73
     4
 74
     0
 42
0.00000001
 43
0.00000001
 40
1.55128755109234
 40
1.55128755109234
 40
1.55128755109234
 40
1.55128755109234
 40
1.5707963267948
 40
1.5707963267948
 40
1.5707963267948
 40
1.5707963267948
 10
73.56606648244752
 20
168.9594088317705
 30
0.0
 10
73.40429233218788
 20
168.9625652478284
 30
0.0
 10
73.24248803047986
 20
168.9641435966906
 30
0.0
 10
73.08068372843553
 20
168.9641435966906
 30
0.0
  0
LINE
  5
FC
330
1F
100
AcDbEntity
  8
0
  6
Continuous
 62
     7
370
    25
100
AcDbLine
 10
73.0806837284
 20
168.9641435967
 30
0.0
 11
72.8940446142
 21
168.9641435967
 31
0.0
  0
LINE
  5
FD
330
1F
100
AcDbEntity
  8
0
  6
Continuous
 62
     7
370
    25
100
AcDbLine
 10
65.4333171485
 20
164.656690586
 30
0.0
 11
72.8940446142
 21
168.9641435967
 31
0.0
  0
LINE
  5
FE
330
1F
100
AcDbEntity
  8
0
  6
Continuous
 62
     7
370
    25
100
AcDbLine
 10
79.918714096
 20
193.3833000535
 30
0.0
 11
65.4333171485
 21
193.3833000535
 31
0.0
  0
LINE
  5
FF
330
1F
100
AcDbEntity
  8
0
  6
Continuous
 62
     7
370
    25
100
AcDbLine
 10
71.1549319637
 20
167.9600664398
 30
0.0
 11
72.6105191968
 21
167.9600664398
 31
0.0
  0
LINE
  5
100
330
1F
100
AcDbEntity
  8
0
  6
Continuous
 62
     7
370
    25
100
AcDbLine
 10
72.6105191968
 20
167.9600664398
 30
0.0
 11
73.0806837223
 21
167.9600664405
 31
0.0
  0
SPLINE
  5
101
330
1F
100
AcDbEntity
  8
0
  6
Continuous
 62
     7
370
    25
100
AcDbSpline
210
0.0
220
0.0
230
1.0
 70
     8
 71
     3
 72
     8
 73
     4
 74
     0
 42
0.00000001
 43
0.00000001
 40
0.0
 40
0.0
 40
0.0
 40
0.0
 40
1.0
 40
1.0
 40
1.0
 40
1.0
 10
73.08068371927365
 20
167.9600664397508
 30
0.0
 10
75.15932373146899
 20
167.9600664405411
 30
0.0
 10
77.23616510445812
 20
167.6914327137995
 30
0.0
 10
79.26203193893738
 20
167.1537881293493
 30
0.0
  0
SPLINE
  5
102
330
1F
100
AcDbEntity
  8
0
  6
Continuous
 62
     7
370
    25
100
AcDbSpline
210
0.0
220
0.0
230
1.0
 70
     8
 71
     3
 72
     8
 73
     4
 74
     0
 42
0.00000001
 43
0.00000001
 40
0.0
 40
0.0
 40
0.0
 40
0.0
 40
1.0
 40
1.0
 40
1.0
 40
1.0
 10
83.99544923501547
 20
193.3833000534653
 30
0.0
 10
86.1153350047482
 20
190.9973135135777
 30
0.0
 10
88.27992640244172
 20
188.571591906556
 30
0.0
 10
90.45510756358927
 20
186.1442600594561
 30
0.0
  0
SPLINE
  5
103
330
1F
100
AcDbEntity
  8
0
  6
Continuous
 62
     7
370
    25
100
AcDbSpline
210
0.0
220
0.0
230
1.0
 70
     8
 71
     3
 72
     8
 73
     4
 74
     0
 42
0.00000001
 43
0.00000001
 40
0.0
 40
0.0
 40
0.0
 40
0.0
 40
1.0
 40
1.0
 40
1.0
 40
1.0
 10
90.45510756358952
 20
186.1442600594563
 30
0.0
 10
90.70424278022092
 20
185.8662446663639
 30
0.0
 10
90.95346113271057
 20
185.5883038088685
 30
0.0
 10
91.20266285508006
 20
185.3103480416103
 30
0.0
  0
SPLINE
  5
104
330
1F
100
AcDbEntity
  8
0
  6
Continuous
 62
     7
370
    25
100
AcDbSpline
210
0.0
220
0.0
230
1.0
 70
     8
 71
     3
 72
    18
 73
    14
 74
     0
 42
0.00000001
 43
0.00000001
 40
0.0
 40
0.0
 40
0.0
 40
0.0
 40
0.1249999999999999
 40
0.1249999999999999
 40
0.2499999999999999
 40
0.2499999999999999
 40
0.5
 40
0.5
 40
0.6249999999999999
 40
0.6249999999999999
 40
0.7499999999999999
 40
0.7499999999999999
 40
1.0
 40
1.0
 40
1.0
 40
1.0
 10
91.20266285507988
 20
161.231663056052
 30
0.0
 10
90.81212717062496
 20
161.6389417684623
 30
0.0
 10
90.4078479603865
 20
162.0309616930159
 30
0.0
 10
89.57399448586884
 20
162.7866608944446
 30
0.0
 10
89.14317387774214
 20
163.1512803462297
 30
0.0
 10
87.82512903602503
 20
164.1954760166907
 30
0.0
 10
86.91333329969866
 20
164.8263301404263
 30
0.0
 10
85.5001835595651
 20
165.6751546194201
 30
0.0
 10
85.02132740218327
 20
165.9414770375588
 30
0.0
 10
84.04834495811141
 20
166.4401384288183
 30
0.0
 10
83.55880607727565
 20
166.6704032839698
 30
0.0
 10
82.09263602390135
 20
167.3049159242054
 30
0.0
 10
81.11491451255782
 20
167.6551390631153
 30
0.0
 10
80.14377673861676
 20
167.9409424007304
 30
0.0
  0
SPLINE
  5
105
330
1F
100
AcDbEntity
  8
0
  6
Continuous
 62
     7
370
    25
100
AcDbSpline
210
0.0
220
0.0
230
1.0
 70
     8
 71
     3
 72
     8
 73
     4
 74
     0
 42
0.00000001
 43
0.00000001
 40
0.0
 40
0.0
 40
0.0
 40
0.0
 40
1.0
 40
1.0
 40
1.0
 40
1.0
 10
80.14377673861672
 20
167.9409424007304
 30
0.0
 10
80.06864828587426
 20
167.9630525102531
 30
0.0
 10
79.99362565136538
 20
167.9848099472163
 30
0.0
 10
79.91871413481665
 20
168.0062155308979
 30
0.0
  0
LINE
  5
106
330
1F
100
AcDbEntity
  8
0
  6
Continuous
 62
     7
370
    25
100
AcDbLine
 10
79.918714096
 20
193.3833000535
 30
0.0
 11
83.995449235
 21
193.3833000535
 31
0.0
  0
SPLINE
  5
107
330
1F
100
AcDbEntity
  8
0
  6
Continuous
 62
     7
370
    25
100
AcDbSpline
210
0.0
220
0.0
230
1.0
 70
     8
 71
     3
 72
    18
 73
    14
 74
     0
 42
0.00000001
 43
0.00000001
 40
0.0
 40
0.0
 40
0.0
 40
0.0
 40
0.1250000000000001
 40
0.1250000000000001
 40
0.2500000000000002
 40
0.2500000000000002
 40
0.5000000000000003
 40
0.5000000000000003
 40
0.6250000000000002
 40
0.6250000000000002
 40
0.7500000000000002
 40
0.7500000000000002
 40
1.0
 40
1.0
 40
1.0
 40
1.0
 10
79.48132554216221
 20
167.0944819782873
 30
0.0
 10
79.96312823944704
 20
166.9617421793814
 30
0.0
 10
80.44772042883938
 20
166.8121183080557
 30
0.0
 10
81.42079112828979
 20
166.4766771950722
 30
0.0
 10
81.91098722027016
 20
166.2901132136252
 30
0.0
 10
83.37088767974248
 20
165.6780780332087
 30
0.0
 10
84.32837605192407
 20
165.2017130780526
 30
0.0
 10
85.7331672067234
 20
164.378444842198
 30
0.0
 10
86.19606893102264
 20
164.0859264138142
 30
0.0
 10
87.1093434595205
 20
163.4634531985876
 30
0.0
 10
87.55773313919134
 20
163.1346982371119
 30
0.0
 10
88.8637201020025
 20
162.1058632390296
 30
0.0
 10
89.687853754012
 20
161.3597190031781
 30
0.0
 10
90.46350804677117
 20
160.5518485361876
 30
0.0
  0
SPLINE
  5
108
330
1F
100
AcDbEntity
  8
0
  6
Continuous
 62
     7
370
    25
100
AcDbSpline
210
0.0
220
0.0
230
1.0
 70
     8
 71
     3
 72
     8
 73
     4
 74
     0
 42
0.00000001
 43
0.00000001
 40
0.0
 40
0.0
 40
0.0
 40
0.0
 40
1.0
 40
1.0
 40
1.0
 40
1.0
 10
79.26203193893807
 20
167.1537881293488
 30
0.0
 10
79.3352170460537
 20
167.1343655415294
 30
0.0
 10
79.40831600627476
 20
167.1145965836362
 30
0.0
 10
79.48132554216221
 20
167.0944819782873
 30
0.0
  0
SPLINE
  5
109
330
1F
100
AcDbEntity
  8
0
  6
Continuous
 62
     7
370
    25
100
AcDbSpline
210
0.0
220
0.0
230
1.0
 70
    24
 71
     3
 72
     8
 73
     4
 74
     0
 42
0.00000001
 43
0.00000001
 40
0.0
 40
0.0
 40
0.0
 40
0.0
 40
1.0
 40
1.0
 40
1.0
 40
1.0
 10
91.20266285507994
 20
186.8144820449304
 30
0.0
 10
89.22082805607268
 20
189.0249900899769
 30
0.0
 10
87.23914684862946
 20
191.2353268213559
 30
0.0
 10
85.3133834731296
 20
193.3832936632596
 30
0.0
  0
SPLINE
  5
10A
330
1F
100
AcDbEntity
  8
0
  6
Continuous
 62
     7
370
    25
100
AcDbSpline
210
0.0
220
0.0
230
1.0
 70
     8
 71
     3
 72
     8
 73
     4
 74
     0
 42
0.00000001
 43
0.00000001
 40
0.0
 40
0.0
 40
0.0
 40
0.0
 40
1.0
 40
1.0
 40
1.0
 40
1.0
 10
85.31338626834652
 20
193.3832905455177
 30
0.0
 10
84.86734289296484
 20
193.3832959542654
 30
0.0
 10
84.42786113451437
 20
193.3833000534652
 30
0.0
 10
83.99544923501543
 20
193.3833000534653
 30
0.0
  0
LINE
  5
10B
330
1F
100
AcDbEntity
  8
0
  6
Continuous
 62
     7
370
    25
100
AcDbLine
 10
91.9502680222
 20
185.9806147432
 30
0.0
 11
91.2026628551
 21
186.8144820449
 31
0.0
  0
LINE
  5
10C
330
1F
100
AcDbEntity
  8
0
  6
Continuous
 62
     7
370
    25
100
AcDbLine
 10
91.2026628551
 20
185.3103480416
 30
0.0
 11
129.6876749346
 21
142.3847576452
 31
0.0
  0
ARC
  5
10D
330
1F
100
AcDbEntity
  8
0
  6
Continuous
 62
     7
370
    25
100
AcDbCircle
 10
122.9592284306
 20
136.3523573313
 30
0.0
 40
9.036694412458194
100
AcDbArc
 50
308.6598082541
 51
41.8778695379
  0
LINE
  5
10E
330
1F
100
AcDbEntity
  8
0
  6
Continuous
 62
     7
370
    25
100
AcDbLine
 10
128.6044066763
 20
129.2958845242
 30
0.0
 11
123.9795239248
 21
125.595978323
 31
0.0
  0
ARC
  5
10F
330
1F
100
AcDbEntity
  8
0
  6
Continuous
 62
     7
370
    25
100
AcDbCircle
 10
118.3343456791
 20
132.6524511301
 30
0.0
 40
9.036694412458184
100
AcDbArc
 50
223.8316350622
 51
308.6598082541
  0
LINE
  5
110
330
1F
100
AcDbEntity
  8
0
  6
Continuous
 62
     7
370
    25
100
AcDbLine
 10
111.8154734902
 20
126.3941645205
 30
0.0
 11
108.9168202632
 21
129.4135132792
 31
0.0
  0
ARC
  5
111
330
1F
100
AcDbEntity
  8
0
  6
Continuous
 62
     7
370
    25
100
AcDbCircle
 10
115.4356924521
 20
135.6717998889
 30
0.0
 40
9.036694412458075
100
AcDbArc
 50
179.9999999993
 51
223.8316350622
  0
LINE
  5
112
330
1F
100
AcDbEntity
  8
0
  6
Continuous
 62
     7
370
    25
100
AcDbLine
 10
106.3989980397
 20
135.671799889
 30
0.0
 11
106.3989980397
 21
137.4244812914
 31
0.0
  0
ARC
  5
113
330
1F
100
AcDbEntity
  8
0
  6
Continuous
 62
     7
370
    25
100
AcDbCircle
 10
95.3541493134
 20
137.4244812916
 30
0.0
 40
11.04484872633766
100
AcDbArc
 50
359.9999999993
 51
36.556850152
  0
LINE
  5
114
330
1F
100
AcDbEntity
  8
0
  6
Continuous
 62
     7
370
    25
100
AcDbLine
 10
104.2261037366
 20
144.0030151784
 30
0.0
 11
93.2442165085
 21
158.8134280523
 31
0.0
  0
ARC
  5
115
330
1F
100
AcDbEntity
  8
0
  6
Continuous
 62
     7
370
    25
100
AcDbCircle
 10
73.0806837284
 20
143.8622146732
 30
0.0
 40
25.10192892349476
100
AcDbArc
 50
36.556850152
 51
41.2346543212
  0
SPLINE
  5
116
330
1F
100
AcDbEntity
  8
0
  6
Continuous
 62
     7
370
    25
100
AcDbSpline
210
0.0
220
0.0
230
1.0
 70
     8
 71
     3
 72
     8
 73
     4
 74
     0
 42
0.00000001
 43
0.00000001
 40
0.0
 40
0.0
 40
0.0
 40
0.0
 40
1.0
 40
1.0
 40
1.0
 40
1.0
 10
91.95774531869041
 20
160.408011160458
 30
0.0
 10
91.71180498470294
 20
160.6886039282818
 30
0.0
 10
91.4601142657769
 20
160.9631742002815
 30
0.0
 10
91.20266285507986
 20
161.231663056052
 30
0.0
  0
CIRCLE
  5
117
330
1F
100
AcDbEntity
  8
0
  6
Continuous
 62
     7
370
    25
100
AcDbCircle
 10
117.443846766
 20
135.146824951
 30
0.0
 40
3.012231470819358
  0
LINE
  5
118
330
1F
100
AcDbEntity
  8
0
  6
Continuous
 62
     7
370
    25
100
AcDbLine
 10
124.6067659521
 20
124.8119257889
 30
0.0
 11
129.2316487036
 21
128.51183199
 31
0.0
  0
ARC
  5
119
330
1F
100
AcDbEntity
  8
0
  6
Continuous
 62
     7
370
    25
100
AcDbCircle
 10
118.3343456791
 20
132.6524511301
 30
0.0
 40
10.04077156939778
100
AcDbArc
 50
223.8316350622
 51
308.6598082541
  0
LINE
  5
11A
330
1F
100
AcDbEntity
  8
0
  6
Continuous
 62
     7
370
    25
100
AcDbLine
 10
108.1925011311
 20
128.7181481004
 30
0.0
 11
111.0911543581
 21
125.6987993416
 31
0.0
  0
ARC
  5
11B
330
1F
100
AcDbEntity
  8
0
  6
Continuous
 62
     7
370
    25
100
AcDbCircle
 10
122.9592284306
 20
136.3523573313
 30
0.0
 40
10.04077156939791
100
AcDbArc
 50
308.6598082541
 51
41.8778695379
  0
ARC
  5
11C
330
1F
100
AcDbEntity
  8
0
  6
Continuous
 62
     7
370
    25
100
AcDbCircle
 10
115.4356924521
 20
135.6717998889
 30
0.0
 40
10.04077156939786
100
AcDbArc
 50
179.9999999993
 51
223.8316350622
  0
LINE
  5
11D
330
1F
100
AcDbEntity
  8
0
  6
Continuous
 62
     7
370
    25
100
AcDbLine
 10
105.3949208828
 20
137.4244812915
 30
0.0
 11
105.3949208827
 21
135.671799889
 31
0.0
  0
ARC
  5
11E
330
1F
100
AcDbEntity
  8
0
  6
Continuous
 62
     7
370
    25
100
AcDbCircle
 10
95.3541493134
 20
137.4244812916
 30
0.0
 40
10.04077156939786
100
AcDbArc
 50
359.9999999993
 51
36.556850152
  0
LINE
  5
11F
330
1F
100
AcDbEntity
  8
0
  6
Continuous
 62
     7
370
    25
100
AcDbLine
 10
130.4352801017
 20
143.0550243468
 30
0.0
 11
91.9502680222
 21
185.9806147432
 31
0.0
  0
LINE
  5
120
330
1F
100
AcDbEntity
  8
0
  6
Continuous
 62
     7
370
    25
100
AcDbLine
 10
92.4376751973
 20
158.2153795171
 30
0.0
 11
103.4195624254
 21
143.4049666432
 31
0.0
  0
ARC
  5
121
330
1F
100
AcDbEntity
  8
0
  6
Continuous
 62
     7
370
    25
100
AcDbCircle
 10
73.0806837284
 20
143.8622146732
 30
0.0
 40
24.09785176655496
100
AcDbArc
 50
36.556850152
 51
41.2346543212
  0
SPLINE
  5
122
330
1F
100
AcDbEntity
  8
0
  6
Continuous
 62
     7
370
    25
100
AcDbSpline
210
0.0
220
0.0
230
1.0
 70
     8
 71
     3
 72
     8
 73
     4
 74
     0
 42
0.00000001
 43
0.00000001
 40
0.0
 40
0.0
 40
0.0
 40
0.0
 40
1.0
 40
1.0
 40
1.0
 40
1.0
 10
90.46350804677118
 20
160.5518485361876
 30
0.0
 10
90.71582848710308
 20
160.2890481702706
 30
0.0
 10
90.96228597307883
 20
160.0204247390705
 30
0.0
 10
91.2026628550802
 20
159.7461793009675
 30
0.0
  0
SPLINE
  5
123
330
1F
100
AcDbEntity
  8
0
  6
HIDDEN
 62
     7
370
    18
100
AcDbSpline
210
0.0
220
0.0
230
1.0
 70
     8
 71
     3
 72
     9
 73
     5
 74
     0
 42
0.00000001
 43
0.00000001
 40
0.0
 40
0.0
 40
0.0
 40
0.0
 40
0.147617642694239
 40
1.0
 40
1.0
 40
1.0
 40
1.0
 10
50.42733332984798
 20
161.4374604168663
 30
0.0
 10
50.48166858932144
 20
161.3925793803947
 30
0.0
 10
50.8497496566096
 20
161.0885436591054
 30
0.0
 10
51.28486051622927
 20
160.8779603980183
 30
0.0
 10
51.65574133644122
 20
160.6984629415238
 30
0.0
  0
LINE
  5
124
330
1F
100
AcDbEntity
  8
0
  6
HIDDEN
 62
     7
370
    18
100
AcDbLine
 10
71.7573782579
 20
183.8445670625
 30
0.0
 11
38.4220166475
 21
183.8445670625
 31
0.0
  0
LINE
  5
125
330
1F
100
AcDbEntity
  8
0
  6
HIDDEN
 62
     7
370
    18
100
AcDbLine
 10
42.0366944125
 20
168.28137113
 30
0.0
 11
51.7918580386
 21
168.28137113
 31
0.0
  0
LINE
  5
126
330
1F
100
AcDbEntity
  8
0
  6
HIDDEN
 62
     7
370
    18
100
AcDbLine
 10
51.7918580386
 20
168.28137113
 30
0.0
 11
51.8495823277
 21
167.4265181908
 31
0.0
  0
LINE
  5
127
330
1F
100
AcDbEntity
  8
0
  6
HIDDEN
 62
     7
370
    18
100
AcDbLine
 10
58.3682215066
 20
167.6703227162
 30
0.0
 11
58.4031520706
 21
167.9600664398
 31
0.0
  0
SPLINE
  5
128
330
1F
100
AcDbEntity
  8
0
  6
HIDDEN
 62
     7
370
    18
100
AcDbSpline
210
0.0
220
0.0
230
1.0
 70
     8
 71
     3
 72
     8
 73
     4
 74
     0
 42
0.00000001
 43
0.00000001
 40
0.0
 40
0.0
 40
0.0
 40
0.0
 40
1.0
 40
1.0
 40
1.0
 40
1.0
 10
58.40315207057544
 20
167.9600664397508
 30
0.0
 10
58.40315207057544
 20
168.0657922617289
 30
0.0
 10
58.39807117043065
 20
168.1732480835794
 30
0.0
 10
58.38753686673509
 20
168.2813711299715
 30
0.0
  0
LINE
  5
129
330
1F
100
AcDbEntity
  8
0
  6
HIDDEN
 62
     7
370
    18
100
AcDbLine
 10
58.3875368667
 20
168.28137113
 30
0.0
 11
68.1427004929
 21
168.28137113
 31
0.0
  0
LINE
  5
12A
330
1F
100
AcDbEntity
  8
0
  6
HIDDEN
 62
     7
370
    18
100
AcDbLine
 10
43.9846040969
 20
180.5311124446
 30
0.0
 11
66.1947908084
 21
180.5311124446
 31
0.0
  0
LINE
  5
12B
330
1F
100
AcDbEntity
  8
0
  6
HIDDEN
 62
     7
370
    18
100
AcDbLine
 10
71.7573782579
 20
183.8445670625
 30
0.0
 11
71.7573782579
 21
193.3833000535
 31
0.0
  0
LINE
  5
12C
330
1F
100
AcDbEntity
  8
0
  6
HIDDEN
 62
     7
370
    18
100
AcDbLine
 10
38.4220166475
 20
193.3833000535
 30
0.0
 11
38.4220166475
 21
183.8445670625
 31
0.0
  0
LINE
  5
12D
330
1F
100
AcDbEntity
  8
0
  6
HIDDEN
 62
     7
370
    18
100
AcDbLine
 10
42.0366944125
 20
168.28137113
 30
0.0
 11
42.0366944125
 21
165.2472358159
 31
0.0
  0
LINE
  5
12E
330
1F
100
AcDbEntity
  8
0
  6
HIDDEN
 62
     7
370
    18
100
AcDbLine
 10
68.1427004929
 20
166.2209537892
 30
0.0
 11
68.1427004929
 21
168.28137113
 31
0.0
  0
LINE
  5
12F
330
1F
100
AcDbEntity
  8
0
  6
HIDDEN
 62
     7
370
    18
100
AcDbLine
 10
66.1947908084
 20
168.28137113
 30
0.0
 11
66.1947908084
 21
180.5311124446
 31
0.0
  0
LINE
  5
130
330
1F
100
AcDbEntity
  8
0
  6
HIDDEN
 62
     7
370
    18
100
AcDbLine
 10
43.9846040969
 20
180.5311124446
 30
0.0
 11
43.9846040969
 21
168.28137113
 31
0.0
  0
LINE
  5
131
330
1F
100
AcDbEntity
  8
0
  6
HIDDEN
 62
     7
370
    18
100
AcDbLine
 10
64.1263918651
 20
180.5311124446
 30
0.0
 11
64.1263918651
 21
183.8445670625
 31
0.0
  0
LINE
  5
132
330
1F
100
AcDbEntity
  8
0
  6
HIDDEN
 62
     7
370
    18
100
AcDbLine
 10
46.0530030402
 20
183.8445670625
 30
0.0
 11
46.0530030402
 21
180.5311124446
 31
0.0
  0
INSERT
  5
13E
330
1F
100
AcDbEntity
  8
10
100
AcDbBlockReference
  2
SW_CENTERMARKSYMBOL_1
 10
55.0896974527
 20
167.9600664398
 30
0.0
  0
INSERT
  5
14A
330
1F
100
AcDbEntity
  8
10
100
AcDbBlockReference
  2
SW_CENTERMARKSYMBOL_2
 10
117.443846766
 20
135.146824951
 30
0.0
  0
LINE
  5
14B
330
1F
100
AcDbEntity
  8
0
  6
Continuous
 62
     7
370
    25
100
AcDbLine
 10
187.6116795608
 20
65.0326172555
 30
0.0
 11
187.6116795608
 21
48.9673827445
 31
0.0
  0
LINE
  5
14C
330
1F
100
AcDbEntity
  8
0
  6
Continuous
 62
     7
370
    25
100
AcDbLine
 10
188.6157567177
 20
66.0366944125
 30
0.0
 11
187.6116795608
 21
65.0326172555
 31
0.0
  0
LINE
  5
14D
330
1F
100
AcDbEntity
  8
0
  6
Continuous
 62
     7
370
    25
100
AcDbLine
 10
187.6116795608
 20
48.9673827445
 30
0.0
 11
188.6157567177
 21
47.9633055875
 31
0.0
  0
LINE
  5
14E
330
1F
100
AcDbEntity
  8
0
  6
Continuous
 62
     7
370
    25
100
AcDbLine
 10
240.9677465225
 20
34.9103025473
 30
0.0
 11
258.3833000535
 21
34.9103025473
 31
0.0
  0
LINE
  5
14F
330
1F
100
AcDbEntity
  8
0
  6
Continuous
 62
     7
370
    25
100
AcDbLine
 10
258.3833000535
 20
79.0896974527
 30
0.0
 11
240.978136945
 21
79.0896974527
 31
0.0
  0
LINE
  5
150
330
1F
100
AcDbEntity
  8
0
  6
Continuous
 62
     7
370
    25
100
AcDbLine
 10
240.9926836953
 20
81.0978517666
 30
0.0
 11
236.9763750675
 21
85.1141603943
 31
0.0
  0
LINE
  5
151
330
1F
100
AcDbEntity
  8
0
  6
Continuous
 62
     7
370
    25
100
AcDbLine
 10
228.943757812
 20
85.1141603943
 30
0.0
 11
224.9274491842
 21
81.0978517666
 31
0.0
  0
LINE
  5
152
330
1F
100
AcDbEntity
  8
0
  6
Continuous
 62
     7
370
    25
100
AcDbLine
 10
224.9274491842
 20
43.9620300777
 30
0.0
 11
224.9274491842
 21
32.9021482334
 31
0.0
  0
LINE
  5
153
330
1F
100
AcDbEntity
  8
0
  6
Continuous
 62
     7
370
    25
100
AcDbLine
 10
240.9926836953
 20
32.9021482334
 30
0.0
 11
240.9926836953
 21
34.9193413462
 31
0.0
  0
LINE
  5
154
330
1F
100
AcDbEntity
  8
0
  6
Continuous
 62
     7
370
    25
100
AcDbLine
 10
224.9274491842
 20
32.9021482334
 30
0.0
 11
228.943757812
 21
28.8858396057
 31
0.0
  0
LINE
  5
155
330
1F
100
AcDbEntity
  8
0
  6
Continuous
 62
     7
370
    25
100
AcDbLine
 10
236.9763750675
 20
28.8858396057
 30
0.0
 11
240.9926836953
 21
32.9021482334
 31
0.0
  0
LINE
  5
156
330
1F
100
AcDbEntity
  8
0
  6
Continuous
 62
     7
370
    25
100
AcDbLine
 10
240.9926836953
 20
79.0844364117
 30
0.0
 11
240.9926836953
 21
81.0978517666
 31
0.0
  0
LINE
  5
157
330
1F
100
AcDbEntity
  8
0
  6
Continuous
 62
     7
370
    25
100
AcDbLine
 10
224.9274491842
 20
81.0978517666
 30
0.0
 11
224.9274491842
 21
70.0527813541
 31
0.0
  0
LINE
  5
158
330
1F
100
AcDbEntity
  8
0
  6
Continuous
 62
     7
370
    25
100
AcDbLine
 10
193.51183199
 20
65.0326172555
 30
0.0
 11
208.0550243468
 21
65.0326172555
 31
0.0
  0
LINE
  5
159
330
1F
100
AcDbEntity
  8
0
  6
Continuous
 62
     7
370
    25
100
AcDbLine
 10
208.0550243468
 20
48.9673827445
 30
0.0
 11
193.51183199
 21
48.9673827445
 31
0.0
  0
LINE
  5
15A
330
1F
100
AcDbEntity
  8
0
  6
Continuous
 62
     7
370
    25
100
AcDbLine
 10
194.2958845242
 20
47.9633055875
 30
0.0
 11
207.3847576452
 21
47.9633055875
 31
0.0
  0
LINE
  5
15B
330
1F
100
AcDbEntity
  8
0
  6
Continuous
 62
     7
370
    25
100
AcDbLine
 10
207.3847576452
 20
66.0366944125
 30
0.0
 11
194.2958845242
 21
66.0366944125
 31
0.0
  0
LINE
  5
15C
330
1F
100
AcDbEntity
  8
0
  6
Continuous
 62
     7
370
    25
100
AcDbLine
 10
208.0550243468
 20
65.0326172555
 30
0.0
 11
250.9806147432
 21
65.0326172555
 31
0.0
  0
LINE
  5
15D
330
1F
100
AcDbEntity
  8
0
  6
Continuous
 62
     7
370
    25
100
AcDbLine
 10
250.9806147432
 20
65.0326172555
 30
0.0
 11
251.8144820449
 21
65.0326172555
 31
0.0
  0
SPLINE
  5
15E
330
1F
100
AcDbEntity
  8
0
  6
Continuous
 62
     7
370
    25
100
AcDbSpline
210
0.0
220
0.0
230
1.0
 70
     8
 71
     3
 72
     8
 73
     4
 74
     0
 42
0.00000001
 43
0.00000001
 40
0.0
 40
0.0
 40
0.0
 40
0.0
 40
1.0
 40
1.0
 40
1.0
 40
1.0
 10
251.8144820449304
 20
65.03261725551754
 30
0.0
 10
254.0249900899769
 20
65.03261725551744
 30
0.0
 10
256.2353268213559
 20
65.273985609001
 30
0.0
 10
258.3832936632596
 20
65.7495550054331
 30
0.0
  0
LINE
  5
15F
330
1F
100
AcDbEntity
  8
0
  6
Continuous
 62
     7
370
    25
100
AcDbLine
 10
258.3833000535
 20
65.7495029438
 30
0.0
 11
258.3833000535
 21
48.2504970562
 31
0.0
  0
SPLINE
  5
160
330
1F
100
AcDbEntity
  8
0
  6
Continuous
 62
     7
370
    25
100
AcDbSpline
210
0.0
220
0.0
230
1.0
 70
     8
 71
     3
 72
     8
 73
     4
 74
     0
 42
0.00000001
 43
0.00000001
 40
0.0
 40
0.0
 40
0.0
 40
0.0
 40
1.0
 40
1.0
 40
1.0
 40
1.0
 10
258.3832936632587
 20
48.25044499456489
 30
0.0
 10
256.2353268213552
 20
48.7260143909971
 30
0.0
 10
254.0249900899763
 20
48.96738274448084
 30
0.0
 10
251.8144820449299
 20
48.96738274448094
 30
0.0
  0
LINE
  5
161
330
1F
100
AcDbEntity
  8
0
  6
Continuous
 62
     7
370
    25
100
AcDbLine
 10
251.8144820449
 20
48.9673827445
 30
0.0
 11
250.9806147432
 21
48.9673827445
 31
0.0
  0
LINE
  5
162
330
1F
100
AcDbEntity
  8
0
  6
Continuous
 62
     7
370
    25
100
AcDbLine
 10
250.9806147432
 20
48.9673827445
 30
0.0
 11
208.0550243468
 21
48.9673827445
 31
0.0
  0
LINE
  5
163
330
1F
100
AcDbEntity
  8
0
  6
Continuous
 62
     7
370
    25
100
AcDbLine
 10
250.3103480416
 20
66.0366944125
 30
0.0
 11
207.3847576452
 21
66.0366944125
 31
0.0
  0
LINE
  5
164
330
1F
100
AcDbEntity
  8
0
  6
Continuous
 62
     7
370
    25
100
AcDbLine
 10
207.3847576452
 20
47.9633055875
 30
0.0
 11
250.3103480416
 21
47.9633055875
 31
0.0
  0
LINE
  5
165
330
1F
100
AcDbEntity
  8
0
  6
Continuous
 62
     7
370
    25
100
AcDbLine
 10
189.8119257889
 20
65.0326172555
 30
0.0
 11
193.51183199
 21
65.0326172555
 31
0.0
  0
LINE
  5
166
330
1F
100
AcDbEntity
  8
0
  6
Continuous
 62
     7
370
    25
100
AcDbLine
 10
194.2958845242
 20
66.0366944125
 30
0.0
 11
190.595978323
 21
66.0366944125
 31
0.0
  0
LINE
  5
167
330
1F
100
AcDbEntity
  8
0
  6
Continuous
 62
     7
370
    25
100
AcDbLine
 10
193.51183199
 20
48.9673827445
 30
0.0
 11
189.8119257889
 21
48.9673827445
 31
0.0
  0
LINE
  5
168
330
1F
100
AcDbEntity
  8
0
  6
Continuous
 62
     7
370
    25
100
AcDbLine
 10
190.595978323
 20
47.9633055875
 30
0.0
 11
194.2958845242
 21
47.9633055875
 31
0.0
  0
LINE
  5
169
330
1F
100
AcDbEntity
  8
0
  6
Continuous
 62
     7
370
    25
100
AcDbLine
 10
187.6116795608
 20
65.0326172555
 30
0.0
 11
189.8119257889
 21
65.0326172555
 31
0.0
  0
LINE
  5
16A
330
1F
100
AcDbEntity
  8
0
  6
Continuous
 62
     7
370
    25
100
AcDbLine
 10
189.8119257889
 20
48.9673827445
 30
0.0
 11
187.6116795608
 21
48.9673827445
 31
0.0
  0
LINE
  5
16B
330
1F
100
AcDbEntity
  8
0
  6
Continuous
 62
     7
370
    25
100
AcDbLine
 10
190.595978323
 20
66.0366944125
 30
0.0
 11
188.6157567177
 21
66.0366944125
 31
0.0
  0
LINE
  5
16C
330
1F
100
AcDbEntity
  8
0
  6
Continuous
 62
     7
370
    25
100
AcDbLine
 10
188.6157567177
 20
47.9633055875
 30
0.0
 11
190.595978323
 21
47.9633055875
 31
0.0
  0
SPLINE
  5
16D
330
1F
100
AcDbEntity
  8
0
  6
Continuous
 62
     7
370
    25
100
AcDbSpline
210
0.0
220
0.0
230
1.0
 70
     8
 71
     3
 72
     8
 73
     4
 74
     0
 42
0.00000001
 43
0.00000001
 40
0.0
 40
0.0
 40
0.0
 40
0.0
 40
1.0
 40
1.0
 40
1.0
 40
1.0
 10
232.9600664397508
 20
71.32928072094458
 30
0.0
 10
232.9600664405411
 20
70.22792640674596
 30
0.0
 10
232.6914327137995
 20
69.1303382181584
 30
0.0
 10
232.1537881293493
 20
68.0623230700735
 30
0.0
  0
SPLINE
  5
16E
330
1F
100
AcDbEntity
  8
0
  6
Continuous
 62
     7
370
    25
100
AcDbSpline
210
0.0
220
0.0
230
1.0
 70
     8
 71
     3
 72
     8
 73
     4
 74
     0
 42
0.00000001
 43
0.00000001
 40
0.0
 40
0.0
 40
0.0
 40
0.0
 40
1.0
 40
1.0
 40
1.0
 40
1.0
 10
232.1537881293488
 20
68.06232307007294
 30
0.0
 10
232.1343655415294
 20
68.02374067083355
 30
0.0
 10
232.1145965836362
 20
67.98520716681983
 30
0.0
 10
232.0944819782873
 20
67.94672426462795
 30
0.0
  0
LINE
  5
16F
330
1F
100
AcDbEntity
  8
0
  6
Continuous
 62
     7
370
    25
100
AcDbLine
 10
232.0944819857
 20
67.9467242714
 30
0.0
 11
231.7576200197
 21
67.4014800528
 31
0.0
  0
LINE
  5
170
330
1F
100
AcDbEntity
  8
0
  6
Continuous
 62
     7
370
    25
100
AcDbLine
 10
231.6146221991
 20
46.7453292532
 30
0.0
 11
232.0944819783
 21
46.0532757354
 31
0.0
  0
SPLINE
  5
171
330
1F
100
AcDbEntity
  8
0
  6
Continuous
 62
     7
370
    25
100
AcDbSpline
210
0.0
220
0.0
230
1.0
 70
     8
 71
     3
 72
     8
 73
     4
 74
     0
 42
0.00000001
 43
0.00000001
 40
0.0
 40
0.0
 40
0.0
 40
0.0
 40
1.0
 40
1.0
 40
1.0
 40
1.0
 10
232.0944819782872
 20
46.05327573537266
 30
0.0
 10
232.114596583636
 20
46.01479283318075
 30
0.0
 10
232.1343655415292
 20
45.97625932916703
 30
0.0
 10
232.1537881293486
 20
45.93767692992763
 30
0.0
  0
SPLINE
  5
172
330
1F
100
AcDbEntity
  8
0
  6
Continuous
 62
     7
370
    25
100
AcDbSpline
210
0.0
220
0.0
230
1.0
 70
     8
 71
     3
 72
     8
 73
     4
 74
     0
 42
0.00000001
 43
0.00000001
 40
0.0
 40
0.0
 40
0.0
 40
0.0
 40
1.0
 40
1.0
 40
1.0
 40
1.0
 10
232.1537881293486
 20
45.93767692992763
 30
0.0
 10
232.6914368544314
 20
44.86965355659783
 30
0.0
 10
232.9600664405413
 20
43.77207795496518
 30
0.0
 10
232.9600664397512
 20
42.6707192790557
 30
0.0
  0
SPLINE
  5
173
330
1F
100
AcDbEntity
  8
0
  6
Continuous
 62
     7
370
    25
100
AcDbSpline
210
0.0
220
0.0
230
1.0
 70
     8
 71
     3
 72
     8
 73
     4
 74
     0
 42
0.00000001
 43
0.00000001
 40
0.0
 40
0.0
 40
0.0
 40
0.0
 40
1.0
 40
1.0
 40
1.0
 40
1.0
 10
250.3103480416093
 20
47.96330558754123
 30
0.0
 10
250.5883038088676
 20
47.96330558754121
 30
0.0
 10
250.8662446663629
 20
47.95943990333875
 30
0.0
 10
251.1442600594552
 20
47.9517075946435
 30
0.0
  0
SPLINE
  5
174
330
1F
100
AcDbEntity
  8
0
  6
Continuous
 62
     7
370
    25
100
AcDbSpline
210
0.0
220
0.0
230
1.0
 70
     8
 71
     3
 72
     8
 73
     4
 74
     0
 42
0.00000001
 43
0.00000001
 40
0.0
 40
0.0
 40
0.0
 40
0.0
 40
1.0
 40
1.0
 40
1.0
 40
1.0
 10
251.1442600594563
 20
66.04829240535504
 30
0.0
 10
250.8662446663639
 20
66.04056009665982
 30
0.0
 10
250.5883038088685
 20
66.0366944124574
 30
0.0
 10
250.3103480416103
 20
66.03669441245741
 30
0.0
  0
SPLINE
  5
175
330
1F
100
AcDbEntity
  8
0
  6
Continuous
 62
     7
370
    25
100
AcDbSpline
210
0.0
220
0.0
230
1.0
 70
     8
 71
     3
 72
     8
 73
     4
 74
     0
 42
0.00000001
 43
0.00000001
 40
0.0
 40
0.0
 40
0.0
 40
0.0
 40
1.0
 40
1.0
 40
1.0
 40
1.0
 10
251.1442600594556
 20
47.95170759464378
 30
0.0
 10
253.5715944578897
 20
47.88419730801363
 30
0.0
 10
255.9973084744446
 20
47.52472272316949
 30
0.0
 10
258.3833000534644
 20
46.86029088493643
 30
0.0
  0
SPLINE
  5
176
330
1F
100
AcDbEntity
  8
0
  6
Continuous
 62
     7
370
    25
100
AcDbSpline
210
0.0
220
0.0
230
1.0
 70
     8
 71
     3
 72
     8
 73
     4
 74
     0
 42
0.00000001
 43
0.00000001
 40
0.0
 40
0.0
 40
0.0
 40
0.0
 40
1.0
 40
1.0
 40
1.0
 40
1.0
 10
258.3833000534642
 20
46.86029088493613
 30
0.0
 10
258.3833000534642
 20
47.33014583467786
 30
0.0
 10
258.3832959542646
 20
47.79353300784411
 30
0.0
 10
258.3832905455167
 20
48.25044568484662
 30
0.0
  0
SPLINE
  5
177
330
1F
100
AcDbEntity
  8
0
  6
Continuous
 62
     7
370
    25
100
AcDbSpline
210
0.0
220
0.0
230
1.0
 70
     8
 71
     3
 72
     8
 73
     4
 74
     0
 42
0.00000001
 43
0.00000001
 40
0.0
 40
0.0
 40
0.0
 40
0.0
 40
1.0
 40
1.0
 40
1.0
 40
1.0
 10
258.3833000534653
 20
67.13970911506183
 30
0.0
 10
255.9973135135777
 20
66.4752786800861
 30
0.0
 10
253.571591906556
 20
66.11580262102586
 30
0.0
 10
251.1442600594561
 20
66.04829240535496
 30
0.0
  0
SPLINE
  5
178
330
1F
100
AcDbEntity
  8
0
  6
Continuous
 62
     7
370
    25
100
AcDbSpline
210
0.0
220
0.0
230
1.0
 70
     8
 71
     3
 72
     8
 73
     4
 74
     0
 42
0.00000001
 43
0.00000001
 40
0.0
 40
0.0
 40
0.0
 40
0.0
 40
1.0
 40
1.0
 40
1.0
 40
1.0
 10
258.3832905455177
 20
65.74955431515139
 30
0.0
 10
258.3832959542654
 20
66.20646697648974
 30
0.0
 10
258.3833000534653
 20
66.66985418292688
 30
0.0
 10
258.3833000534653
 20
67.13970911506192
 30
0.0
  0
SPLINE
  5
179
330
1F
100
AcDbEntity
  8
0
  6
Continuous
 62
     7
370
    25
100
AcDbSpline
210
0.0
220
0.0
230
1.0
 70
     8
 71
     3
 72
    18
 73
    14
 74
     0
 42
0.00000001
 43
0.00000001
 40
0.0
 40
0.0
 40
0.0
 40
0.0
 40
0.1249999999999999
 40
0.1249999999999999
 40
0.2499999999999998
 40
0.2499999999999998
 40
0.4999999999999998
 40
0.4999999999999998
 40
0.6249999999999998
 40
0.6249999999999998
 40
0.7499999999999998
 40
0.7499999999999998
 40
1.0
 40
1.0
 40
1.0
 40
1.0
 10
232.94094240073
 20
45.27590682007025
 30
0.0
 10
232.7980631184313
 20
45.52667263990627
 30
0.0
 10
232.6383615732676
 20
45.75798543436866
 30
0.0
 10
232.2837123552156
 20
46.18367001798998
 30
0.0
 10
232.0879800932349
 20
46.37861425729624
 30
0.0
 10
231.4503786656811
 20
46.90504709034379
 30
0.0
 10
230.9584099846228
 20
47.17877060671637
 30
0.0
 10
230.1106879840339
 20
47.49298757864125
 30
0.0
 10
229.8103169639886
 20
47.58168913796833
 30
0.0
 10
229.1738336950851
 20
47.72990636447882
 30
0.0
 10
228.8400213155663
 20
47.78883005235009
 30
0.0
 10
227.7975360726372
 20
47.92536851353548
 30
0.0
 10
227.0462678999202
 20
47.96330558754213
 30
0.0
 10
226.2316630560537
 20
47.96330558754225
 30
0.0
  0
LINE
  5
17A
330
1F
100
AcDbEntity
  8
0
  6
Continuous
 62
     7
370
    25
100
AcDbLine
 10
258.3833000535
 20
45.1581511646
 30
0.0
 11
258.3833000535
 21
46.8602908849
 31
0.0
  0
SPLINE
  5
17B
330
1F
100
AcDbEntity
  8
0
  6
Continuous
 62
     7
370
    25
100
AcDbSpline
210
0.0
220
0.0
230
1.0
 70
     8
 71
     3
 72
     8
 73
     4
 74
     0
 42
0.00000001
 43
0.00000001
 40
0.0
 40
0.0
 40
0.0
 40
0.0
 40
1.0
 40
1.0
 40
1.0
 40
1.0
 10
233.0062155308977
 20
45.15815118513809
 30
0.0
 10
232.9848099472161
 20
45.19785013435231
 30
0.0
 10
232.963052510253
 20
45.23710161576098
 30
0.0
 10
232.94094240073
 20
45.27590682007035
 30
0.0
  0
LINE
  5
17C
330
1F
100
AcDbEntity
  8
0
  6
Continuous
 62
     7
370
    25
100
AcDbLine
 10
258.3833000535
 20
68.8418488354
 30
0.0
 11
258.3833000535
 21
67.1397091151
 31
0.0
  0
SPLINE
  5
17D
330
1F
100
AcDbEntity
  8
0
  6
Continuous
 62
     7
370
    25
100
AcDbSpline
210
0.0
220
0.0
230
1.0
 70
     8
 71
     3
 72
    18
 73
    14
 74
     0
 42
0.00000001
 43
0.00000001
 40
0.0
 40
0.0
 40
0.0
 40
0.0
 40
0.1249999999999999
 40
0.1249999999999999
 40
0.2499999999999999
 40
0.2499999999999999
 40
0.5
 40
0.5
 40
0.6249999999999999
 40
0.6249999999999999
 40
0.7499999999999999
 40
0.7499999999999999
 40
1.0
 40
1.0
 40
1.0
 40
1.0
 10
226.231663056052
 20
66.03669441245873
 30
0.0
 10
226.6389417684623
 20
66.03669441245871
 30
0.0
 10
227.0309616930159
 20
66.04618804507817
 30
0.0
 10
227.7866608944446
 20
66.08817082536221
 30
0.0
 10
228.1512803462297
 20
66.12079824254488
 30
0.0
 10
229.1954760166907
 20
66.25821427420283
 30
0.0
 10
229.8263301404263
 20
66.4018775195859
 30
0.0
 10
230.6751546194201
 20
66.71615485638887
 30
0.0
 10
230.9414770375588
 20
66.83746807937699
 30
0.0
 10
231.4401384288183
 20
67.11762867490542
 30
0.0
 10
231.6704032839698
 20
67.27524907732011
 30
0.0
 10
232.3049159242054
 20
67.80089279361972
 30
0.0
 10
232.6551390631154
 20
68.22248295963882
 30
0.0
 10
232.9409424007304
 20
68.72409317993026
 30
0.0
  0
SPLINE
  5
17E
330
1F
100
AcDbEntity
  8
0
  6
Continuous
 62
     7
370
    25
100
AcDbSpline
210
0.0
220
0.0
230
1.0
 70
     8
 71
     3
 72
     8
 73
     4
 74
     0
 42
0.00000001
 43
0.00000001
 40
0.0
 40
0.0
 40
0.0
 40
0.0
 40
1.0
 40
1.0
 40
1.0
 40
1.0
 10
232.9409424007304
 20
68.72409317993018
 30
0.0
 10
232.9630525102531
 20
68.76289838423955
 30
0.0
 10
232.9848099472163
 20
68.8021498656482
 30
0.0
 10
233.0062155308979
 20
68.8418488148624
 30
0.0
  0
LINE
  5
17F
330
1F
100
AcDbEntity
  8
0
  6
Continuous
 62
     7
370
    25
100
AcDbLine
 10
233.9641435967
 20
41.4354659076
 30
0.0
 11
233.9641435967
 21
41.5343742877
 31
0.0
  0
SPLINE
  5
180
330
1F
100
AcDbEntity
  8
0
  6
Continuous
 62
     7
370
    25
100
AcDbSpline
210
0.0
220
0.0
230
1.0
 70
     8
 71
     3
 72
     8
 73
     4
 74
     0
 42
0.00000001
 43
0.00000001
 40
-1.570796326795
 40
-1.570796326795
 40
-1.570796326795
 40
-1.570796326795
 40
-1.55128755109254
 40
-1.55128755109254
 40
-1.55128755109254
 40
-1.55128755109254
 10
233.9641435966906
 20
41.53437428766717
 30
0.0
 10
233.9641435966906
 20
41.62012159453973
 30
0.0
 10
233.9625652478284
 20
41.70586890123408
 30
0.0
 10
233.9594088317705
 20
41.79160022933292
 30
0.0
  0
SPLINE
  5
181
330
1F
100
AcDbEntity
  8
0
  6
Continuous
 62
     7
370
    25
100
AcDbSpline
210
0.0
220
0.0
230
1.0
 70
     8
 71
     3
 72
     8
 73
     4
 74
     0
 42
0.00000001
 43
0.00000001
 40
-1.55128755109365
 40
-1.55128755109365
 40
-1.55128755109365
 40
-1.55128755109365
 40
-1.292468365514
 40
-1.292468365514
 40
-1.292468365514
 40
-1.292468365514
 10
233.9594088317711
 20
41.79160022931818
 30
0.0
 10
233.9175332653142
 20
42.92898131645617
 30
0.0
 10
233.5964686993198
 20
44.06346341647657
 30
0.0
 10
233.0062155308977
 20
45.15815118513809
 30
0.0
  0
LINE
  5
182
330
1F
100
AcDbEntity
  8
0
  6
Continuous
 62
     7
370
    25
100
AcDbLine
 10
233.9641435967
 20
41.4354659076
 30
0.0
 11
229.656690586
 21
37.4816941017
 31
0.0
  0
LINE
  5
183
330
1F
100
AcDbEntity
  8
0
  6
Continuous
 62
     7
370
    25
100
AcDbLine
 10
258.3833000535
 20
37.4816941017
 30
0.0
 11
258.3833000535
 21
45.1581511646
 31
0.0
  0
SPLINE
  5
184
330
1F
100
AcDbEntity
  8
0
  6
Continuous
 62
     7
370
    25
100
AcDbSpline
210
0.0
220
0.0
230
1.0
 70
     8
 71
     3
 72
     8
 73
     4
 74
     0
 42
0.00000001
 43
0.00000001
 40
1.29246836551384
 40
1.29246836551384
 40
1.29246836551384
 40
1.29246836551384
 40
1.55128755109345
 40
1.55128755109345
 40
1.55128755109345
 40
1.55128755109345
 10
233.0062155308979
 20
68.84184881486243
 30
0.0
 10
233.5964686993198
 20
69.93653658352369
 30
0.0
 10
233.9175332653142
 20
71.07101868354384
 30
0.0
 10
233.9594088317711
 20
72.20839977068162
 30
0.0
  0
SPLINE
  5
185
330
1F
100
AcDbEntity
  8
0
  6
Continuous
 62
     7
370
    25
100
AcDbSpline
210
0.0
220
0.0
230
1.0
 70
     8
 71
     3
 72
     8
 73
     4
 74
     0
 42
0.00000001
 43
0.00000001
 40
1.55128755109234
 40
1.55128755109234
 40
1.55128755109234
 40
1.55128755109234
 40
1.5707963267948
 40
1.5707963267948
 40
1.5707963267948
 40
1.5707963267948
 10
233.9594088317705
 20
72.20839977066703
 30
0.0
 10
233.9625652478284
 20
72.29413109876579
 30
0.0
 10
233.9641435966906
 20
72.37987840546009
 30
0.0
 10
233.9641435966906
 20
72.46562571233258
 30
0.0
  0
LINE
  5
186
330
1F
100
AcDbEntity
  8
0
  6
Continuous
 62
     7
370
    25
100
AcDbLine
 10
233.9641435967
 20
72.4656257123
 30
0.0
 11
233.9641435967
 21
72.5645340924
 31
0.0
  0
LINE
  5
187
330
1F
100
AcDbEntity
  8
0
  6
Continuous
 62
     7
370
    25
100
AcDbLine
 10
229.656690586
 20
76.5183058983
 30
0.0
 11
233.9641435967
 21
72.5645340924
 31
0.0
  0
LINE
  5
188
330
1F
100
AcDbEntity
  8
0
  6
Continuous
 62
     7
370
    25
100
AcDbLine
 10
258.3833000535
 20
68.8418488354
 30
0.0
 11
258.3833000535
 21
76.5183058983
 31
0.0
  0
LINE
  5
189
330
1F
100
AcDbEntity
  8
0
  6
Continuous
 62
     7
370
    25
100
AcDbLine
 10
232.9600664398
 20
71.5784299897
 30
0.0
 11
232.9600664405
 21
71.3292807238
 31
0.0
  0
LINE
  5
18A
330
1F
100
AcDbEntity
  8
0
  6
Continuous
 62
     7
370
    25
100
AcDbLine
 10
232.9600664405
 20
42.6707192786
 30
0.0
 11
232.9600664398
 21
42.4215700103
 31
0.0
  0
LINE
  5
18B
330
1F
100
AcDbEntity
  8
0
  6
Continuous
 62
     7
370
    25
100
AcDbLine
 10
232.9600664398
 20
72.3498105005
 30
0.0
 11
232.9600664398
 21
71.5784299897
 31
0.0
  0
LINE
  5
18C
330
1F
100
AcDbEntity
  8
0
  6
Continuous
 62
     7
370
    25
100
AcDbLine
 10
233.9641435967
 20
72.5645340924
 30
0.0
 11
232.9600664398
 21
72.3498105005
 31
0.0
  0
LINE
  5
18D
330
1F
100
AcDbEntity
  8
0
  6
Continuous
 62
     7
370
    25
100
AcDbLine
 10
232.9600664398
 20
42.4215700103
 30
0.0
 11
232.9600664398
 21
41.6501894995
 31
0.0
  0
LINE
  5
18E
330
1F
100
AcDbEntity
  8
0
  6
Continuous
 62
     7
370
    25
100
AcDbLine
 10
232.9600664398
 20
41.6501894995
 30
0.0
 11
233.9641435967
 21
41.4354659076
 31
0.0
  0
ELLIPSE
  5
18F
330
1F
100
AcDbEntity
  8
0
  6
Continuous
 62
     7
370
    25
100
AcDbEllipse
 10
223.6847989702
 20
57.0
 30
0.0
 11
-1.705302565824240E-13
 21
22.08969745267532
 31
0.0
210
0.0
220
0.0
230
1.0
 40
0.5773502692
 41
5.795870024150885
 42
6.100350170186841
  0
ELLIPSE
  5
190
330
1F
100
AcDbEntity
  8
0
  6
Continuous
 62
     7
370
    25
100
AcDbEllipse
 10
223.6847989702
 20
57.0
 30
0.0
 11
-1.705302565824240E-13
 21
22.08969745267532
 31
0.0
210
0.0
220
0.0
230
1.0
 40
0.5773502692
 41
3.324427790582558
 42
3.628907936618499
  0
ELLIPSE
  5
191
330
1F
100
AcDbEntity
  8
0
  6
Continuous
 62
     7
370
    25
100
AcDbEllipse
 10
223.6847989702
 20
57.0
 30
0.0
 11
-1.136868377216160E-13
 21
13.05300304021725
 31
0.0
210
0.0
220
0.0
230
1.0
 40
0.5773502692
 41
5.50531959912348
 42
5.970418585238323
  0
ELLIPSE
  5
192
330
1F
100
AcDbEntity
  8
0
  6
Continuous
 62
     7
370
    25
100
AcDbEllipse
 10
223.6847989702
 20
57.0
 30
0.0
 11
-1.136868377216160E-13
 21
13.05300304021725
 31
0.0
210
0.0
220
0.0
230
1.0
 40
0.5773502692
 41
3.454359375531059
 42
3.9230167565405
  0
SPLINE
  5
193
330
1F
100
AcDbEntity
  8
0
  6
Continuous
 62
     7
370
    25
100
AcDbSpline
210
0.0
220
0.0
230
1.0
 70
     8
 71
     3
 72
    11
 73
     7
 74
     0
 42
0.00000001
 43
0.00000001
 40
0.0
 40
0.0
 40
0.0
 40
0.0
 40
0.2850424289133654
 40
0.5775584551475696
 40
0.8628423831012942
 40
1.0
 40
1.0
 40
1.0
 40
1.0
 10
226.0036158375934
 20
44.58025147700169
 30
0.0
 10
225.8213495020343
 20
44.47633268323736
 30
0.0
 10
225.4520379451822
 20
44.26577042337968
 30
0.0
 10
225.10854802642
 20
44.05794907097166
 30
0.0
 10
224.9301501556123
 20
43.94870108319045
 30
0.0
 10
224.9465706555086
 20
43.95876334952361
 30
0.0
 10
224.9519020360546
 20
43.96203034939064
 30
0.0
  0
ELLIPSE
  5
194
330
1F
100
AcDbEntity
  8
0
  6
Continuous
 62
     7
370
    25
100
AcDbEllipse
 10
224.0745716603
 20
57.0
 30
0.0
 11
-2.842170943040400E-14
 21
13.05300304021724
 31
0.0
210
0.0
220
0.0
230
1.0
 40
0.4728922637
 41
3.407803713623731
 42
3.931805542875497
  0
ELLIPSE
  5
195
330
1F
100
AcDbEntity
  8
0
  6
Continuous
 62
     7
370
    25
100
AcDbEllipse
 10
224.0745716603
 20
57.0
 30
0.0
 11
-2.842170943040400E-14
 21
13.05300304021724
 31
0.0
210
0.0
220
0.0
230
1.0
 40
0.4728922637
 41
5.49273204644011
 42
6.016974247145694
  0
SPLINE
  5
196
330
1F
100
AcDbEntity
  8
0
  6
Continuous
 62
     7
370
    25
100
AcDbSpline
210
0.0
220
0.0
230
1.0
 70
     8
 71
     3
 72
    12
 73
     8
 74
     0
 42
0.00000001
 43
0.00000001
 40
0.0
 40
0.0
 40
0.0
 40
0.0
 40
0.0011597405471164
 40
0.288086270253661
 40
0.5561884912001286
 40
0.8312468947157162
 40
1.0
 40
1.0
 40
1.0
 40
1.0
 10
224.927811844792
 20
70.0527806121062
 30
0.0
 10
224.9276910113973
 20
70.0528547219096
 30
0.0
 10
224.8976752961734
 20
70.07126402638916
 30
0.0
 10
225.0012526550608
 20
70.00740566836821
 30
0.0
 10
225.2473537291489
 20
69.85798457342096
 30
0.0
 10
225.6025903079838
 20
69.64673270200927
 30
0.0
 10
225.893138833431
 20
69.48227953471266
 30
0.0
 10
226.0036158375934
 20
69.41974852299964
 30
0.0
  0
SPLINE
  5
197
330
1F
100
AcDbEntity
  8
0
  6
Continuous
 62
     7
370
    25
100
AcDbSpline
210
0.0
220
0.0
230
1.0
 70
     8
 71
     3
 72
    24
 73
    20
 74
     0
 42
0.00000001
 43
0.00000001
 40
0.0
 40
0.0
 40
0.0
 40
0.0
 40
0.0495973022206746
 40
0.1114459553508536
 40
0.1710631572968359
 40
0.2322593767153286
 40
0.2947709906397421
 40
0.3589546821586096
 40
0.4238993317617689
 40
0.4908393568417117
 40
0.5445489437699913
 40
0.5995188864065898
 40
0.6600352975520728
 40
0.7223896171245013
 40
0.7828844225158337
 40
0.8450009950823874
 40
0.9080659742129571
 40
0.9728452273837791
 40
1.0
 40
1.0
 40
1.0
 40
1.0
 10
240.9781369449691
 20
79.08442416777325
 30
0.0
 10
240.9706160009586
 20
79.0816669512772
 30
0.0
 10
240.9537163158374
 20
79.07547144037736
 30
0.0
 10
240.6811186416838
 20
78.97738392577179
 30
0.0
 10
240.217165900603
 20
78.81763480041644
 30
0.0
 10
239.565755671822
 20
78.60789066325788
 30
0.0
 10
238.7296617286533
 20
78.36486087451692
 30
0.0
 10
237.7198182111871
 20
78.1118641138085
 30
0.0
 10
236.5478678437607
 20
77.87592430576215
 30
0.0
 10
235.3308815000509
 20
77.7015223033057
 30
0.0
 10
234.1180787230784
 20
77.59947493377004
 30
0.0
 10
232.9208663595228
 20
77.56519163460293
 30
0.0
 10
231.662171203224
 20
77.60489391587296
 30
0.0
 10
230.4027650753028
 20
77.72373247169564
 30
0.0
 10
229.2070572047411
 20
77.90682874172806
 30
0.0
 10
228.1087909833926
 20
78.13338650135427
 30
0.0
 10
227.1198768015281
 20
78.38410151371163
 30
0.0
 10
226.4345706161167
 20
78.58498744870784
 30
0.0
 10
226.1018826702055
 20
78.69037999521075
 30
0.0
 10
226.0036158375934
 20
78.72151004321235
 30
0.0
  0
SPLINE
  5
198
330
1F
100
AcDbEntity
  8
0
  6
Continuous
 62
     7
370
    25
100
AcDbSpline
210
0.0
220
0.0
230
1.0
 70
     8
 71
     3
 72
    23
 73
    19
 74
     0
 42
0.00000001
 43
0.00000001
 40
0.0
 40
0.0
 40
0.0
 40
0.0
 40
0.0647211125576961
 40
0.1313275665132151
 40
0.1960429266418684
 40
0.2626790655034821
 40
0.3263623951439822
 40
0.3921429886481384
 40
0.4519027394265111
 40
0.5134387465902555
 40
0.5727082175799506
 40
0.6335181072343601
 40
0.6962421851041521
 40
0.7606518690708091
 40
0.8256237458457141
 40
0.8926103087076179
 40
0.9552378367276668
 40
1.0
 40
1.0
 40
1.0
 40
1.0
 10
226.0036158375934
 20
35.27848995678899
 30
0.0
 10
226.2485363550874
 20
35.35511851206498
 30
0.0
 10
226.7455119829858
 20
35.51060783065245
 30
0.0
 10
227.71763180608
 20
35.77324357640114
 30
0.0
 10
228.8386313811043
 20
36.02455116660061
 30
0.0
 10
230.0725701798004
 20
36.2340235532342
 30
0.0
 10
231.4039639943276
 20
36.37846091623127
 30
0.0
 10
232.7402112496769
 20
36.43592825666864
 30
0.0
 10
234.0661862394657
 20
36.40605642180733
 30
0.0
 10
235.3143718504729
 20
36.30018912437232
 30
0.0
 10
236.5028311582366
 20
36.1298085547791
 30
0.0
 10
237.60473647227
 20
35.91330919888831
 30
0.0
 10
238.6132045513075
 20
35.66667167943757
 30
0.0
 10
239.4892060570614
 20
35.41599901031218
 30
0.0
 10
240.2035712296704
 20
35.1873636161091
 30
0.0
 10
240.6950993555495
 20
35.01774336701591
 30
0.0
 10
240.9645566009985
 20
34.92056958744709
 30
0.0
 10
240.9668080667204
 20
34.91970869429105
 30
0.0
 10
240.967746522498
 20
34.91934985686871
 30
0.0
  0
LINE
  5
199
330
1F
100
AcDbEntity
  8
0
  6
Continuous
 62
     7
370
    25
100
AcDbLine
 10
258.3833000535
 20
37.4816941017
 30
0.0
 11
258.3833000535
 21
34.9103025473
 31
0.0
  0
LINE
  5
19A
330
1F
100
AcDbEntity
  8
0
  6
Continuous
 62
     7
370
    25
100
AcDbLine
 10
258.3833000535
 20
79.0896974527
 30
0.0
 11
258.3833000535
 21
76.5183058983
 31
0.0
  0
LINE
  5
19B
330
1F
100
AcDbEntity
  8
0
  6
Continuous
 62
     7
370
    25
100
AcDbLine
 10
224.9274491842
 20
81.0978517666
 30
0.0
 11
240.9926836953
 21
81.0978517666
 31
0.0
  0
LINE
  5
19C
330
1F
100
AcDbEntity
  8
0
  6
Continuous
 62
     7
370
    25
100
AcDbLine
 10
232.9600664398
 20
85.1141603943
 30
0.0
 11
236.9763750675
 21
85.1141603943
 31
0.0
  0
LINE
  5
19D
330
1F
100
AcDbEntity
  8
0
  6
Continuous
 62
     7
370
    25
100
AcDbLine
 10
228.943757812
 20
85.1141603943
 30
0.0
 11
232.9600664398
 21
85.1141603943
 31
0.0
  0
LINE
  5
19E
330
1F
100
AcDbEntity
  8
0
  6
Continuous
 62
     7
370
    25
100
AcDbLine
 10
232.9600664398
 20
32.9021482334
 30
0.0
 11
224.9274491842
 21
32.9021482334
 31
0.0
  0
LINE
  5
19F
330
1F
100
AcDbEntity
  8
0
  6
Continuous
 62
     7
370
    25
100
AcDbLine
 10
240.9926836953
 20
32.9021482334
 30
0.0
 11
232.9600664398
 21
32.9021482334
 31
0.0
  0
LINE
  5
1A0
330
1F
100
AcDbEntity
  8
0
  6
Continuous
 62
     7
370
    25
100
AcDbLine
 10
232.9600664398
 20
28.8858396057
 30
0.0
 11
228.943757812
 21
28.8858396057
 31
0.0
  0
LINE
  5
1A1
330
1F
100
AcDbEntity
  8
0
  6
Continuous
 62
     7
370
    25
100
AcDbLine
 10
236.9763750675
 20
28.8858396057
 30
0.0
 11
232.9600664398
 21
28.8858396057
 31
0.0
  0
LINE
  5
1A2
330
1F
100
AcDbEntity
  8
0
  6
HIDDEN
 62
     7
370
    18
100
AcDbLine
 10
232.9600664405
 20
71.3292807238
 30
0.0
 11
232.9600664405
 21
42.6707192786
 31
0.0
  0
SPLINE
  5
1A3
330
1F
100
AcDbEntity
  8
0
  6
HIDDEN
 62
     7
370
    18
100
AcDbSpline
210
0.0
220
0.0
230
1.0
 70
     8
 71
     3
 72
    15
 73
    11
 74
     0
 42
0.00000001
 43
0.00000001
 40
0.0
 40
0.0
 40
0.0
 40
0.0
 40
0.0123258904838445
 40
0.1310605878277475
 40
0.2491006318176646
 40
0.3678618070678342
 40
0.4888393549887315
 40
0.6105446272619032
 40
0.8039874422378758
 40
1.0
 40
1.0
 40
1.0
 40
1.0
 10
231.7576200196914
 20
67.40148005277655
 30
0.0
 10
231.7446414076341
 20
67.38017598036858
 30
0.0
 10
231.6066404633895
 20
67.15365082532429
 30
0.0
 10
231.2708095343753
 20
66.79548295982029
 30
0.0
 10
230.7410372454656
 20
66.33185929786002
 30
0.0
 10
230.1186112975366
 20
65.95073991480291
 30
0.0
 10
229.4102156063568
 20
65.64198863658689
 30
0.0
 10
228.4564634284616
 20
65.35701529928438
 30
0.0
 10
227.2078306071774
 20
65.12989558029714
 30
0.0
 10
226.106265378568
 20
65.07258051175252
 30
0.0
 10
225.5518485361877
 20
65.04373388651595
 30
0.0
  0
SPLINE
  5
1A4
330
1F
100
AcDbEntity
  8
0
  6
HIDDEN
 62
     7
370
    18
100
AcDbSpline
210
0.0
220
0.0
230
1.0
 70
     8
 71
     3
 72
    14
 73
    10
 74
     0
 42
0.00000001
 43
0.00000001
 40
0.0
 40
0.0
 40
0.0
 40
0.0
 40
0.1210676560407624
 40
0.2426923634808785
 40
0.4852873292102649
 40
0.6089459017768555
 40
0.733347749632075
 40
0.9376433715207378
 40
1.0
 40
1.0
 40
1.0
 40
1.0
 10
225.5518485361893
 20
48.95626611348529
 30
0.0
 10
225.8859971310094
 20
48.94201546263599
 30
0.0
 10
226.555831791089
 20
48.91344859144296
 30
0.0
 10
227.791191285922
 20
48.77630825603082
 30
0.0
 10
228.9051559089117
 20
48.53797323531524
 30
0.0
 10
229.8738104193287
 20
48.17048526699112
 30
0.0
 10
230.6604758958407
 20
47.7307823817635
 30
0.0
 10
231.2651513351659
 20
47.27924661629655
 30
0.0
 10
231.54838743697
 20
46.84652192243014
 30
0.0
 10
231.6146221990909
 20
46.74532925320646
 30
0.0
  0
ELLIPSE
  5
1A5
330
1F
100
AcDbEntity
  8
0
  6
HIDDEN
 62
     7
370
    18
100
AcDbEllipse
 10
223.6847989702
 20
57.0
 30
0.0
 11
-1.136868377216160E-13
 21
13.05300304021725
 31
0.0
210
0.0
220
0.0
230
1.0
 40
0.5773502692
 41
3.9230167565405
 42
5.50531959912348
  0
LINE
  5
1A6
330
1F
100
AcDbEntity
  8
0
  6
HIDDEN
 62
     7
370
    18
100
AcDbLine
 10
248.8445670625
 20
57.0
 30
0.0
 11
248.8445670625
 21
73.6676808052
 31
0.0
  0
LINE
  5
1A7
330
1F
100
AcDbEntity
  8
0
  6
HIDDEN
 62
     7
370
    18
100
AcDbLine
 10
248.8445670625
 20
40.3323191948
 30
0.0
 11
248.8445670625
 21
57.0
 31
0.0
  0
ELLIPSE
  5
1A8
330
1F
100
AcDbEntity
  8
0
  6
HIDDEN
 62
     7
370
    18
100
AcDbEllipse
 10
224.0745716603
 20
57.0
 30
0.0
 11
-2.842170943040400E-14
 21
13.05300304021724
 31
0.0
210
0.0
220
0.0
230
1.0
 40
0.4728922637
 41
3.931805542875497
 42
5.49273204644011
  0
SPLINE
  5
1A9
330
1F
100
AcDbEntity
  8
0
  6
HIDDEN
 62
     7
370
    18
100
AcDbSpline
210
0.0
220
0.0
230
1.0
 70
     8
 71
     3
 72
    12
 73
     8
 74
     0
 42
0.00000001
 43
0.00000001
 40
0.0
 40
0.0
 40
0.0
 40
0.0
 40
0.2100929333318403
 40
0.4200189553134431
 40
0.6342457023538723
 40
0.8514972311951025
 40
1.0
 40
1.0
 40
1.0
 40
1.0
 10
232.9600664397508
 20
69.62543989707964
 30
0.0
 10
232.5944091783406
 20
69.6349658640034
 30
0.0
 10
231.8633851571865
 20
69.65401022980961
 30
0.0
 10
230.8826553167287
 20
69.78684880783818
 30
0.0
 10
230.1338564989915
 20
69.93277798079012
 30
0.0
 10
229.6935584790297
 20
70.04094909231958
 30
0.0
 10
229.6879829351581
 20
70.04253013842622
 30
0.0
 10
229.6857191648951
 20
70.04317207134663
 30
0.0
  0
LINE
  5
1AA
330
1F
100
AcDbEntity
  8
0
  6
HIDDEN
 62
     7
370
    18
100
AcDbLine
 10
232.8070903535
 20
69.6319511755
 30
0.0
 11
233.28137113
 21
69.6295345744
 31
0.0
  0
LINE
  5
1AB
330
1F
100
AcDbEntity
  8
0
  6
HIDDEN
 62
     7
370
    18
100
AcDbLine
 10
233.28137113
 20
44.3704654256
 30
0.0
 11
232.2546931328
 21
44.3525768035
 31
0.0
  0
SPLINE
  5
1AC
330
1F
100
AcDbEntity
  8
0
  6
HIDDEN
 62
     7
370
    18
100
AcDbSpline
210
0.0
220
0.0
230
1.0
 70
     8
 71
     3
 72
    12
 73
     8
 74
     0
 42
0.00000001
 43
0.00000001
 40
0.0
 40
0.0
 40
0.0
 40
0.0
 40
0.2081595431941468
 40
0.4165041234732064
 40
0.6303443128271521
 40
0.8474957408749437
 40
1.0
 40
1.0
 40
1.0
 40
1.0
 10
229.6469990521663
 20
43.94709280051138
 30
0.0
 10
229.6816447561867
 20
43.95609234743868
 30
0.0
 10
229.7509669614706
 20
43.97409944116635
 30
0.0
 10
230.294843647104
 20
44.1022634663004
 30
0.0
 10
231.1087252249428
 20
44.24991164382533
 30
0.0
 10
232.0527138598298
 20
44.35742863998421
 30
0.0
 10
232.6950611785331
 20
44.36955172905078
 30
0.0
 10
232.9600664397508
 20
44.37455320144944
 30
0.0
  0
SPLINE
  5
1AD
330
1F
100
AcDbEntity
  8
0
  6
HIDDEN
 62
     7
370
    18
100
AcDbSpline
210
0.0
220
0.0
230
1.0
 70
     8
 71
     3
 72
     8
 73
     4
 74
     0
 42
0.00000001
 43
0.00000001
 40
0.0
 40
0.0
 40
0.0
 40
0.0
 40
1.0
 40
1.0
 40
1.0
 40
1.0
 10
232.9600664397508
 20
44.37455320144947
 30
0.0
 10
233.0657922617289
 20
44.37455320144947
 30
0.0
 10
233.1732480835794
 20
44.37321615574056
 30
0.0
 10
233.2813711299715
 20
44.37046542555949
 30
0.0
  0
LINE
  5
1AE
330
1F
100
AcDbEntity
  8
0
  6
HIDDEN
 62
     7
370
    18
100
AcDbLine
 10
233.28137113
 20
69.6295345744
 30
0.0
 11
233.28137113
 21
44.3704654256
 31
0.0
  0
SPLINE
  5
1AF
330
1F
100
AcDbEntity
  8
0
  6
HIDDEN
 62
     7
370
    18
100
AcDbSpline
210
0.0
220
0.0
230
1.0
 70
     8
 71
     3
 72
     8
 73
     4
 74
     0
 42
0.00000001
 43
0.00000001
 40
0.0
 40
0.0
 40
0.0
 40
0.0
 40
1.0
 40
1.0
 40
1.0
 40
1.0
 10
233.2813711299715
 20
69.62953457444097
 30
0.0
 10
233.1732480835794
 20
69.62678384425992
 30
0.0
 10
233.0657922617289
 20
69.62544679855102
 30
0.0
 10
232.9600664397508
 20
69.62544679855105
 30
0.0
  0
SPLINE
  5
1B0
330
1F
100
AcDbEntity
  8
0
  6
HIDDEN
 62
     7
370
    18
100
AcDbSpline
210
0.0
220
0.0
230
1.0
 70
     8
 71
     3
 72
    12
 73
     8
 74
     0
 42
0.00000001
 43
0.00000001
 40
0.0
 40
0.0
 40
0.0
 40
0.0
 40
0.2242320806030356
 40
0.4481867781144913
 40
0.6785820268981261
 40
0.9098843407899013
 40
1.0
 40
1.0
 40
1.0
 40
1.0
 10
233.2813711299708
 20
46.39588034587113
 30
0.0
 10
233.6425489355234
 20
46.37368830037953
 30
0.0
 10
234.3644577567846
 20
46.32933166174914
 30
0.0
 10
235.2896343436038
 20
46.15548042778392
 30
0.0
 10
235.949132272772
 20
45.99168496943344
 30
0.0
 10
236.2789972125358
 20
45.89327481007428
 30
0.0
 10
236.2407743180831
 20
45.90460790509304
 30
0.0
 10
236.2300578005925
 20
45.90778535443931
 30
0.0
  0
SPLINE
  5
1B1
330
1F
100
AcDbEntity
  8
0
  6
HIDDEN
 62
     7
370
    18
100
AcDbSpline
210
0.0
220
0.0
230
1.0
 70
     8
 71
     3
 72
    12
 73
     8
 74
     0
 42
0.00000001
 43
0.00000001
 40
0.0
 40
0.0
 40
0.0
 40
0.0
 40
0.1327783584310763
 40
0.3511846083341259
 40
0.5750328680965244
 40
0.8066857939131409
 40
1.0
 40
1.0
 40
1.0
 40
1.0
 10
236.2300578005924
 20
68.09221464556083
 30
0.0
 10
236.2346184601171
 20
68.09353366153685
 30
0.0
 10
236.2466809185469
 20
68.09702231823063
 30
0.0
 10
235.8727302097613
 20
67.98761118454908
 30
0.0
 10
235.1869807451794
 20
67.8220020183886
 30
0.0
 10
234.2775611039622
 20
67.66102921867734
 30
0.0
 10
233.592843694483
 20
67.62191321607817
 30
0.0
 10
233.2813711299708
 20
67.60411965412933
 30
0.0
  0
LINE
  5
1B2
330
1F
100
AcDbEntity
  8
0
  6
HIDDEN
 62
     7
370
    18
100
AcDbLine
 10
245.5311124446
 20
57.0
 30
0.0
 11
245.5311124446
 21
45.8949066442
 31
0.0
  0
LINE
  5
1B3
330
1F
100
AcDbEntity
  8
0
  6
HIDDEN
 62
     7
370
    18
100
AcDbLine
 10
245.5311124446
 20
68.1050933558
 30
0.0
 11
245.5311124446
 21
57.0
 31
0.0
  0
LINE
  5
1B4
330
1F
100
AcDbEntity
  8
0
  6
HIDDEN
 62
     7
370
    18
100
AcDbLine
 10
225.6984629415
 20
78.8211520993
 30
0.0
 11
226.3357890793
 21
78.6179556873
 31
0.0
  0
ELLIPSE
  5
1B5
330
1F
100
AcDbEntity
  8
0
  6
HIDDEN
 62
     7
370
    18
100
AcDbEllipse
 10
224.0745716603
 20
57.0
 30
0.0
 11
-5.684341886080801E-14
 21
22.08969745267533
 31
0.0
210
0.0
220
0.0
230
1.0
 40
0.4728922637
 41
3.297680790539982
 42
6.127097170229443
  0
LINE
  5
1B6
330
1F
100
AcDbEntity
  8
0
  6
HIDDEN
 62
     7
370
    18
100
AcDbLine
 10
226.1209383178
 20
35.314170642
 30
0.0
 11
225.6984629415
 21
35.1788479007
 31
0.0
  0
LINE
  5
1B7
330
1F
100
AcDbEntity
  8
0
  6
HIDDEN
 62
     7
370
    18
100
AcDbLine
 10
197.1345934802
 20
66.0366944125
 30
0.0
 11
197.1345934802
 21
47.9633055875
 31
0.0
  0
LINE
  5
1B8
330
1F
100
AcDbEntity
  8
0
  6
HIDDEN
 62
     7
370
    18
100
AcDbLine
 10
203.1590564218
 20
47.9633055875
 30
0.0
 11
203.1590564218
 21
66.0366944125
 31
0.0
  0
LINE
  5
1B9
330
1F
100
AcDbEntity
  8
0
  6
HIDDEN
 62
     7
370
    18
100
AcDbLine
 10
231.2636367065
 20
66.8046539316
 30
0.0
 11
232.1864256722
 21
67.7276231192
 31
0.0
  0
LINE
  5
1BA
330
1F
100
AcDbEntity
  8
0
  6
HIDDEN
 62
     7
370
    18
100
AcDbLine
 10
232.1809496233
 20
46.2770139749
 30
0.0
 11
231.2643681579
 21
47.1937188694
 31
0.0
  0
LINE
  5
1BB
330
1F
100
AcDbEntity
  8
0
  6
HIDDEN
 62
     7
370
    18
100
AcDbLine
 10
248.8445670625
 20
40.3323191948
 30
0.0
 11
258.3833000535
 21
40.3323191948
 31
0.0
  0
LINE
  5
1BC
330
1F
100
AcDbEntity
  8
0
  6
HIDDEN
 62
     7
370
    18
100
AcDbLine
 10
258.3833000535
 20
73.6676808052
 30
0.0
 11
248.8445670625
 21
73.6676808052
 31
0.0
  0
LINE
  5
1BD
330
1F
100
AcDbEntity
  8
0
  6
HIDDEN
 62
     7
370
    18
100
AcDbLine
 10
229.6857191649
 20
70.0530030402
 30
0.0
 11
224.9274491842
 21
70.0530030402
 31
0.0
  0
LINE
  5
1BE
330
1F
100
AcDbEntity
  8
0
  6
HIDDEN
 62
     7
370
    18
100
AcDbLine
 10
224.9274491842
 20
43.9469969598
 30
0.0
 11
229.6469990522
 21
43.9469969598
 31
0.0
  0
LINE
  5
1BF
330
1F
100
AcDbEntity
  8
0
  6
HIDDEN
 62
     7
370
    18
100
AcDbLine
 10
236.2300578006
 20
45.8949066442
 30
0.0
 11
245.5311124446
 21
45.8949066442
 31
0.0
  0
LINE
  5
1C0
330
1F
100
AcDbEntity
  8
0
  6
HIDDEN
 62
     7
370
    18
100
AcDbLine
 10
245.5311124446
 20
68.1050933558
 30
0.0
 11
236.2300578006
 21
68.1050933558
 31
0.0
  0
LINE
  5
1C1
330
1F
100
AcDbEntity
  8
0
  6
HIDDEN
 62
     7
370
    18
100
AcDbLine
 10
236.2735210577
 20
28.8858396057
 30
0.0
 11
236.2735210577
 21
45.9077734921
 31
0.0
  0
LINE
  5
1C2
330
1F
100
AcDbEntity
  8
0
  6
HIDDEN
 62
     7
370
    18
100
AcDbLine
 10
229.6466118218
 20
43.9470904109
 30
0.0
 11
229.6466118218
 21
28.8858396057
 31
0.0
  0
LINE
  5
1C3
330
1F
100
AcDbEntity
  8
0
  6
HIDDEN
 62
     7
370
    18
100
AcDbLine
 10
236.2735210577
 20
68.0922265079
 30
0.0
 11
236.2735210577
 21
85.1141603943
 31
0.0
  0
LINE
  5
1C4
330
1F
100
AcDbEntity
  8
0
  6
HIDDEN
 62
     7
370
    18
100
AcDbLine
 10
229.6466118218
 20
85.1141603943
 30
0.0
 11
229.6466118218
 21
70.0432130667
 31
0.0
  0
ENDSEC
  0
SECTION
  2
OBJECTS
  0
DICTIONARY
  5
C
330
0
100
AcDbDictionary
281
     1
  3
ACAD_GROUP
350
D
  3
ACAD_LAYOUT
350
1A
  3
ACAD_MLINESTYLE
350
17
  3
ACAD_PLOTSETTINGS
350
19
  3
ACAD_PLOTSTYLENAME
350
E
  3
ACAD_SCALELIST
350
47
  3
DWGPROPS
350
1C5
  0
DICTIONARY
  5
D
102
{ACAD_REACTORS
330
C
102
}
330
C
100
AcDbDictionary
281
     1
  0
DICTIONARY
  5
1A
102
{ACAD_REACTORS
330
C
102
}
330
C
100
AcDbDictionary
281
     1
  3
Layout1
350
1E
  3
Layout2
350
26
  3
Model
350
22
  0
DICTIONARY
  5
17
102
{ACAD_REACTORS
330
C
102
}
330
C
100
AcDbDictionary
281
     1
  3
Standard
350
18
  0
DICTIONARY
  5
19
102
{ACAD_REACTORS
330
C
102
}
330
C
100
AcDbDictionary
281
     1
  0
ACDBDICTIONARYWDFLT
  5
E
102
{ACAD_REACTORS
330
C
102
}
330
C
100
AcDbDictionary
281
     1
  3
Normal
350
F
100
AcDbDictionaryWithDefault
340
F
  0
DICTIONARY
  5
47
102
{ACAD_REACTORS
330
C
102
}
330
C
100
AcDbDictionary
281
     1
  3
A0
350
48
  3
A1
350
49
  3
A2
350
4A
  3
A3
350
4B
  3
A4
350
4C
  3
A5
350
4D
  3
A6
350
4E
  3
A7
350
4F
  3
A8
350
50
  3
A9
350
51
  3
B0
350
52
  3
B1
350
53
  3
B2
350
54
  3
B3
350
55
  3
B4
350
56
  3
B5
350
57
  3
B6
350
58
  0
XRECORD
  5
1C5
102
{ACAD_REACTORS
330
C
102
}
330
C
100
AcDbXrecord
280
     1
  1
DWGPROPS COOKIE
  2

  3

  4

  6

  7

  8

  9

300
=
301
=
302
=
303
=
304
=
305
=
306
=
307
=
308
=
309
=
 40
0.0
 41
2461215.028783357
 42
2461215.028783878
  1

 90
        0
  0
LAYOUT
  5
1E
102
{ACAD_REACTORS
330
1A
102
}
330
1A
100
AcDbPlotSettings
  1

  2
none_device
  4

  6

 40
0.0
 41
0.0
 42
0.0
 43
0.0
 44
0.0
 45
0.0
 46
0.0
 47
0.0
 48
0.0
 49
0.0
140
0.0
141
0.0
142
1.0
143
1.0
 70
   688
 72
     1
 73
     0
 74
     5
  7

 75
    16
147
1.0
148
0.0
149
0.0
100
AcDbLayout
  1
Layout1
 70
     1
 71
     1
 10
0.0
 20
0.0
 11
420.0
 21
297.0
 12
0.0
 22
0.0
 32
0.0
 14
1.0000000000E+20
 24
1.0000000000E+20
 34
1.0000000000E+20
 15
-1.0000000000E+20
 25
-1.0000000000E+20
 35
-1.0000000000E+20
146
0.0
 13
0.0
 23
0.0
 33
0.0
 16
1.0
 26
0.0
 36
0.0
 17
0.0
 27
1.0
 37
0.0
 76
     0
330
1B
  0
LAYOUT
  5
26
102
{ACAD_REACTORS
330
1A
102
}
330
1A
100
AcDbPlotSettings
  1

  2
none_device
  4

  6

 40
0.0
 41
0.0
 42
0.0
 43
0.0
 44
0.0
 45
0.0
 46
0.0
 47
0.0
 48
0.0
 49
0.0
140
0.0
141
0.0
142
1.0
143
1.0
 70
   688
 72
     1
 73
     0
 74
     5
  7

 75
    16
147
1.0
148
0.0
149
0.0
100
AcDbLayout
  1
Layout2
 70
     1
 71
     2
 10
0.0
 20
0.0
 11
0.0
 21
0.0
 12
0.0
 22
0.0
 32
0.0
 14
0.0
 24
0.0
 34
0.0
 15
0.0
 25
0.0
 35
0.0
146
0.0
 13
0.0
 23
0.0
 33
0.0
 16
1.0
 26
0.0
 36
0.0
 17
0.0
 27
1.0
 37
0.0
 76
     0
330
23
  0
LAYOUT
  5
22
102
{ACAD_REACTORS
330
1A
102
}
330
1A
100
AcDbPlotSettings
  1

  2
none_device
  4
Letter_(8.50_x_11.00_Inches)
  6

 40
6.35
 41
6.35
 42
6.35000508
 43
6.35000508
 44
215.9
 45
279.4
 46
0.0
 47
0.0
 48
0.0
 49
0.0
140
0.0
141
0.0
142
1.0
143
1.0
 70
  1712
 72
     1
 73
     0
 74
     0
  7

 75
     0
147
1.0
148
0.0
149
0.0
100
AcDbLayout
  1
Model
 70
     1
 71
     0
 10
0.0
 20
0.0
 11
297.0
 21
210.0
 12
0.0
 22
0.0
 32
0.0
 14
0.0
 24
0.0
 34
0.0
 15
297.0
 25
210.0
 35
0.0
146
0.0
 13
0.0
 23
0.0
 33
0.0
 16
1.0
 26
0.0
 36
0.0
 17
0.0
 27
1.0
 37
0.0
 76
     0
330
1F
331
29
  0
MLINESTYLE
  5
18
102
{ACAD_REACTORS
330
17
102
}
330
17
100
AcDbMlineStyle
  2
Standard
 70
     0
  3

 62
   256
 51
90.0
 52
90.0
 71
     2
 49
0.5
 62
   256
  6
BYLAYER
 49
-0.5
 62
   256
  6
BYLAYER
  0
ACDBPLACEHOLDER
  5
F
102
{ACAD_REACTORS
330
E
102
}
330
E
  0
SCALE
  5
48
102
{ACAD_REACTORS
330
47
102
}
330
47
100
AcDbScale
 70
     0
300
1:1
140
1.0
141
1.0
290
     1
  0
SCALE
  5
49
102
{ACAD_REACTORS
330
47
102
}
330
47
100
AcDbScale
 70
     0
300
1:2
140
1.0
141
2.0
290
     0
  0
SCALE
  5
4A
102
{ACAD_REACTORS
330
47
102
}
330
47
100
AcDbScale
 70
     0
300
1:4
140
1.0
141
4.0
290
     0
  0
SCALE
  5
4B
102
{ACAD_REACTORS
330
47
102
}
330
47
100
AcDbScale
 70
     0
300
1:5
140
1.0
141
5.0
290
     0
  0
SCALE
  5
4C
102
{ACAD_REACTORS
330
47
102
}
330
47
100
AcDbScale
 70
     0
300
1:8
140
1.0
141
8.0
290
     0
  0
SCALE
  5
4D
102
{ACAD_REACTORS
330
47
102
}
330
47
100
AcDbScale
 70
     0
300
1:10
140
1.0
141
10.0
290
     0
  0
SCALE
  5
4E
102
{ACAD_REACTORS
330
47
102
}
330
47
100
AcDbScale
 70
     0
300
1:16
140
1.0
141
16.0
290
     0
  0
SCALE
  5
4F
102
{ACAD_REACTORS
330
47
102
}
330
47
100
AcDbScale
 70
     0
300
1:20
140
1.0
141
20.0
290
     0
  0
SCALE
  5
50
102
{ACAD_REACTORS
330
47
102
}
330
47
100
AcDbScale
 70
     0
300
1:30
140
1.0
141
30.0
290
     0
  0
SCALE
  5
51
102
{ACAD_REACTORS
330
47
102
}
330
47
100
AcDbScale
 70
     0
300
1:40
140
1.0
141
40.0
290
     0
  0
SCALE
  5
52
102
{ACAD_REACTORS
330
47
102
}
330
47
100
AcDbScale
 70
     0
300
1:50
140
1.0
141
50.0
290
     0
  0
SCALE
  5
53
102
{ACAD_REACTORS
330
47
102
}
330
47
100
AcDbScale
 70
     0
300
1:100
140
1.0
141
100.0
290
     0
  0
SCALE
  5
54
102
{ACAD_REACTORS
330
47
102
}
330
47
100
AcDbScale
 70
     0
300
2:1
140
2.0
141
1.0
290
     0
  0
SCALE
  5
55
102
{ACAD_REACTORS
330
47
102
}
330
47
100
AcDbScale
 70
     0
300
4:1
140
4.0
141
1.0
290
     0
  0
SCALE
  5
56
102
{ACAD_REACTORS
330
47
102
}
330
47
100
AcDbScale
 70
     0
300
8:1
140
8.0
141
1.0
290
     0
  0
SCALE
  5
57
102
{ACAD_REACTORS
330
47
102
}
330
47
100
AcDbScale
 70
     0
300
10:1
140
10.0
141
1.0
290
     0
  0
SCALE
  5
58
102
{ACAD_REACTORS
330
47
102
}
330
47
100
AcDbScale
 70
     0
300
100:1
140
100.0
141
1.0
290
     0
  0
ENDSEC
  0
EOF
