  0
SECTION
  2
HEADER
  9
$ACADVER
  1
AC1015
  9
$ACADMAINTVER
 70
     6
  9
$DWGCODEPAGE
  3
ANSI_936
  9
$INSBASE
 10
0.0
 20
0.0
 30
0.0
  9
$EXTMIN
 10
0.0
 20
0.0
 30
0.0
  9
$EXTMAX
 10
297.0
 20
210.0
 30
0.0
  9
$LIMMIN
 10
0.0
 20
0.0
  9
$LIMMAX
 10
297.0
 20
210.0
  9
$ORTHOMODE
 70
     0
  9
$REGENMODE
 70
     1
  9
$FILLMODE
 70
     1
  9
$QTEXTMODE
 70
     0
  9
$MIRRTEXT
 70
     1
  9
$LTSCALE
 40
1.0
  9
$ATTMODE
 70
     1
  9
$TEXTSIZE
 40
3.5
  9
$TRACEWID
 40
1.0
  9
$TEXTSTYLE
  7
Standard
  9
$CLAYER
  8
0
  9
$CELTYPE
  6
ByLayer
  9
$CECOLOR
 62
   256
  9
$CELTSCALE
 40
1.0
  9
$DISPSILH
 70
     0
  9
$DIMSCALE
 40
1.0
  9
$DIMASZ
 40
4.08
  9
$DIMEXO
 40
0.0
  9
$DIMDLI
 40
3.75
  9
$DIMRND
 40
0.0
  9
$DIMDLE
 40
0.0
  9
$DIMEXE
 40
2.0
  9
$DIMTP
 40
0.0
  9
$DIMTM
 40
0.0
  9
$DIMTXT
 40
3.5
  9
$DIMCEN
 40
2.5
  9
$DIMTSZ
 40
0.0
  9
$DIMTOL
 70
     0
  9
$DIMLIM
 70
     0
  9
$DIMTIH
 70
     1
  9
$DIMTOH
 70
     1
  9
$DIMSE1
 70
     0
  9
$DIMSE2
 70
     0
  9
$DIMTAD
 70
     1
  9
$DIMZIN
 70
     0
  9
$DIMBLK
  1

  9
$DIMASO
 70
     1
  9
$DIMSHO
 70
     1
  9
$DIMPOST
  1

  9
$DIMAPOST
  1

  9
$DIMALT
 70
     0
  9
$DIMALTD
 70
     3
  9
$DIMALTF
 40
0.0393700787
  9
$DIMLFAC
 40
2.0
  9
$DIMTOFL
 70
     1
  9
$DIMTVP
 40
0.0
  9
$DIMTIX
 70
     0
  9
$DIMSOXD
 70
     0
  9
$DIMSAH
 70
     0
  9
$DIMBLK1
  1

  9
$DIMBLK2
  1

  9
$DIMSTYLE
  2
ISO-25
  9
$DIMCLRD
 70
     0
  9
$DIMCLRE
 70
     0
  9
$DIMCLRT
 70
     0
  9
$DIMTFAC
 40
1.0
  9
$DIMGAP
 40
1.524
  9
$DIMJUST
 70
     0
  9
$DIMSD1
 70
     0
  9
$DIMSD2
 70
     0
  9
$DIMTOLJ
 70
     0
  9
$DIMTZIN
 70
     0
  9
$DIMALTZ
 70
     0
  9
$DIMALTTZ
 70
     0
  9
$DIMUPT
 70
     0
  9
$DIMDEC
 70
     2
  9
$DIMTDEC
 70
     2
  9
$DIMALTU
 70
     2
  9
$DIMALTTD
 70
     3
  9
$DIMTXSTY
  7
Standard
  9
$DIMAUNIT
 70
     0
  9
$DIMADEC
 70
     2
  9
$DIMALTRND
 40
0.0
  9
$DIMAZIN
 70
     0
  9
$DIMDSEP
 70
    44
  9
$DIMATFIT
 70
     3
  9
$DIMFRAC
 70
     0
  9
$DIMLDRBLK
  1

  9
$DIMLUNIT
 70
     2
  9
$DIMLWD
 70
    -2
  9
$DIMLWE
 70
    -2
  9
$DIMTMOVE
 70
     0
  9
$LUNITS
 70
     2
  9
$LUPREC
 70
     2
  9
$SKETCHINC
 40
1.0
  9
$FILLETRAD
 40
0.0
  9
$AUNITS
 70
     0
  9
$AUPREC
 70
     2
  9
$MENU
  1
.
  9
$ELEVATION
 40
0.0
  9
$PELEVATION
 40
0.0
  9
$THICKNESS
 40
0.0
  9
$LIMCHECK
 70
     0
  9
$CHAMFERA
 40
0.0
  9
$CHAMFERB
 40
0.0
  9
$CHAMFERC
 40
0.0
  9
$CHAMFERD
 40
0.0
  9
$SKPOLY
 70
     0
  9
$TDCREATE
 40
2461215.366063241
  9
$TDUCREATE
 40
2461215.032729908
  9
$TDUPDATE
 40
2461215.366063565
  9
$TDUUPDATE
 40
2461215.032730232
  9
$TDINDWG
 40
0.0000000116
  9
$TDUSRTIMER
 40
0.0000000116
  9
$USRTIMER
 70
     1
  9
$ANGBASE
 50
0.0
  9
$ANGDIR
 70
     0
  9
$PDMODE
 70
     0
  9
$PDSIZE
 40
-1.0
  9
$PLINEWID
 40
0.0
  9
$SPLFRAME
 70
     0
  9
$SPLINETYPE
 70
     6
  9
$SPLINESEGS
 70
     8
  9
$HANDSEED
  5
EA
  9
$SURFTAB1
 70
     6
  9
$SURFTAB2
 70
     6
  9
$SURFTYPE
 70
     6
  9
$SURFU
 70
     6
  9
$SURFV
 70
     6
  9
$UCSBASE
  2

  9
$UCSNAME
  2

  9
$UCSORG
 10
0.0
 20
0.0
 30
0.0
  9
$UCSXDIR
 10
1.0
 20
0.0
 30
0.0
  9
$UCSYDIR
 10
0.0
 20
1.0
 30
0.0
  9
$UCSORTHOREF
  2

  9
$UCSORTHOVIEW
 70
     0
  9
$UCSORGTOP
 10
0.0
 20
0.0
 30
0.0
  9
$UCSORGBOTTOM
 10
0.0
 20
0.0
 30
0.0
  9
$UCSORGLEFT
 10
0.0
 20
0.0
 30
0.0
  9
$UCSORGRIGHT
 10
0.0
 20
0.0
 30
0.0
  9
$UCSORGFRONT
 10
0.0
 20
0.0
 30
0.0
  9
$UCSORGBACK
 10
0.0
 20
0.0
 30
0.0
  9
$PUCSBASE
  2

  9
$PUCSNAME
  2

  9
$PUCSORG
 10
0.0
 20
0.0
 30
0.0
  9
$PUCSXDIR
 10
1.0
 20
0.0
 30
0.0
  9
$PUCSYDIR
 10
0.0
 20
1.0
 30
0.0
  9
$PUCSORTHOREF
  2

  9
$PUCSORTHOVIEW
 70
     0
  9
$PUCSORGTOP
 10
0.0
 20
0.0
 30
0.0
  9
$PUCSORGBOTTOM
 10
0.0
 20
0.0
 30
0.0
  9
$PUCSORGLEFT
 10
0.0
 20
0.0
 30
0.0
  9
$PUCSORGRIGHT
 10
0.0
 20
0.0
 30
0.0
  9
$PUCSORGFRONT
 10
0.0
 20
0.0
 30
0.0
  9
$PUCSORGBACK
 10
0.0
 20
0.0
 30
0.0
  9
$USERI1
 70
     0
  9
$USERI2
 70
     0
  9
$USERI3
 70
     0
  9
$USERI4
 70
     0
  9
$USERI5
 70
     0
  9
$USERR1
 40
0.0
  9
$USERR2
 40
0.0
  9
$USERR3
 40
0.0
  9
$USERR4
 40
0.0
  9
$USERR5
 40
0.0
  9
$WORLDVIEW
 70
     1
  9
$SHADEDGE
 70
     3
  9
$SHADEDIF
 70
    70
  9
$TILEMODE
 70
     1
  9
$MAXACTVP
 70
    64
  9
$PINSBASE
 10
0.0
 20
0.0
 30
0.0
  9
$PLIMCHECK
 70
     0
  9
$PEXTMIN
 10
1.0000000000E+20
 20
1.0000000000E+20
 30
1.0000000000E+20
  9
$PEXTMAX
 10
-1.0000000000E+20
 20
-1.0000000000E+20
 30
-1.0000000000E+20
  9
$PLIMMIN
 10
0.0
 20
0.0
  9
$PLIMMAX
 10
420.0
 20
297.0
  9
$UNITMODE
 70
     0
  9
$VISRETAIN
 70
     1
  9
$PLINEGEN
 70
     0
  9
$PSLTSCALE
 70
     1
  9
$TREEDEPTH
 70
  3020
  9
$CMLSTYLE
  2
Standard
  9
$CMLJUST
 70
     0
  9
$CMLSCALE
 40
20.0
  9
$PROXYGRAPHICS
 70
     1
  9
$MEASUREMENT
 70
     1
  9
$CELWEIGHT
370
    -1
  9
$ENDCAPS
280
     0
  9
$JOINSTYLE
280
     0
  9
$LWDISPLAY
290
     1
  9
$INSUNITS
 70
     4
  9
$HYPERLINKBASE
  1

  9
$STYLESHEET
  1

  9
$XEDIT
290
     1
  9
$CEPSNTYPE
380
     0
  9
$PSTYLEMODE
290
     1
  9
$FINGERPRINTGUID
  2
{5d7caa31-fb0e-4940-ae6e-3ca9620e843c}
  9
$VERSIONGUID
  2
{FAEB1C32-E019-11D5-929B-00C0DF256EC4}
  9
$EXTNAMES
290
     1
  9
$PSVPSCALE
 40
0.0
  9
$OLESTARTUP
290
     0
  0
ENDSEC
  0
SECTION
  2
CLASSES
  0
CLASS
  1
ACDBDICTIONARYWDFLT
  2
AcDbDictionaryWithDefault
  3
ObjectDBX Classes
 90
        0
280
     0
281
     0
  0
CLASS
  1
VISUALSTYLE
  2
AcDbVisualStyle
  3
ObjectDBX Classes
 90
     4095
280
     0
281
     0
  0
CLASS
  1
MATERIAL
  2
AcDbMaterial
  3
ObjectDBX Classes
 90
     1153
280
     0
281
     0
  0
CLASS
  1
SCALE
  2
AcDbScale
  3
ObjectDBX Classes
 90
     1153
280
     0
281
     0
  0
CLASS
  1
TABLESTYLE
  2
AcDbTableStyle
  3
ObjectDBX Classes
 90
     4095
280
     0
281
     0
  0
CLASS
  1
MLEADERSTYLE
  2
AcDbMLeaderStyle
  3
ACDB_MLEADERSTYLE_CLASS
 90
     4095
280
     0
281
     0
  0
CLASS
  1
SUN
  2
AcDbSun
  3
SCENEOE
 90
     1153
280
     0
281
     0
  0
CLASS
  1
ACDBPLACEHOLDER
  2
AcDbPlaceHolder
  3
ObjectDBX Classes
 90
        0
280
     0
281
     0
  0
CLASS
  1
LAYOUT
  2
AcDbLayout
  3
ObjectDBX Classes
 90
        0
280
     0
281
     0
  0
ENDSEC
  0
SECTION
  2
TABLES
  0
TABLE
  2
VPORT
  5
8
330
0
100
AcDbSymbolTable
 70
     1
  0
VPORT
  5
29
330
8
100
AcDbSymbolTableRecord
100
AcDbViewportTableRecord
  2
*Active
 70
     0
 10
0.0
 20
0.0
 11
1.0
 21
1.0
 12
148.5
 22
105.0
 13
0.0
 23
0.0
 14
10.0
 24
10.0
 15
10.0
 25
10.0
 16
0.0
 26
0.0
 36
1.0
 17
0.0
 27
0.0
 37
0.0
 40
210.0
 41
1.4142857143
 42
50.0
 43
0.0
 44
0.0
 50
0.0
 51
0.0
 71
     0
 72
  2000
 73
     1
 74
     3
 75
     0
 76
     0
 77
     0
 78
     0
281
     0
 65
     1
110
0.0
120
0.0
130
0.0
111
1.0
121
0.0
131
0.0
112
0.0
122
1.0
132
0.0
 79
     0
146
0.0
  0
ENDTAB
  0
TABLE
  2
LTYPE
  5
5
330
0
100
AcDbSymbolTable
 70
     6
  0
LTYPE
  5
14
330
5
100
AcDbSymbolTableRecord
100
AcDbLinetypeTableRecord
  2
ByBlock
 70
     0
  3

 72
    65
 73
     0
 40
0.0
  0
LTYPE
  5
15
330
5
100
AcDbSymbolTableRecord
100
AcDbLinetypeTableRecord
  2
ByLayer
 70
     0
  3

 72
    65
 73
     0
 40
0.0
  0
LTYPE
  5
16
330
5
100
AcDbSymbolTableRecord
100
AcDbLinetypeTableRecord
  2
Continuous
 70
     0
  3
Solid line
 72
    65
 73
     0
 40
0.0
  0
LTYPE
  5
5E
330
5
100
AcDbSymbolTableRecord
100
AcDbLinetypeTableRecord
  2
HIDDEN
 70
     0
  3
Hidden __ __ __ __ __ __ __ __ __ __ __ __ __ __
 72
    65
 73
     2
 40
1.905
 49
1.27
 74
     0
 49
-0.635
 74
     0
  0
LTYPE
  5
5F
330
5
100
AcDbSymbolTableRecord
100
AcDbLinetypeTableRecord
  2
PHANTOM
 70
     0
  3
Phantom ______  __  __  ______  __  __  ______
 72
    65
 73
     6
 40
12.7
 49
6.35
 74
     0
 49
-1.27
 74
     0
 49
1.27
 74
     0
 49
-1.27
 74
     0
 49
1.27
 74
     0
 49
-1.27
 74
     0
  0
LTYPE
  5
60
330
5
100
AcDbSymbolTableRecord
100
AcDbLinetypeTableRecord
  2
CENTER
 70
     0
  3
Center ____ _ ____ _ ____ _ ____ _ ____ _ ____
 72
    65
 73
     4
 40
10.16
 49
6.35
 74
     0
 49
-1.27
 74
     0
 49
1.27
 74
     0
 49
-1.27
 74
     0
  0
LTYPE
  5
61
330
5
100
AcDbSymbolTableRecord
100
AcDbLinetypeTableRecord
  2
CENTERX2
 70
     0
  3
Center (2x) ________  __  ________  __  _____
 72
    65
 73
     4
 40
20.32
 49
12.7
 74
     0
 49
-2.54
 74
     0
 49
2.54
 74
     0
 49
-2.54
 74
     0
  0
LTYPE
  5
62
330
5
100
AcDbSymbolTableRecord
100
AcDbLinetypeTableRecord
  2
DOT2
 70
     0
  3
Dot (.5x) ........................................
 72
    65
 73
     2
 40
0.635
 49
0.0
 74
     0
 49
-0.635
 74
     0
  0
ENDTAB
  0
TABLE
  2
LAYER
  5
2
330
0
100
AcDbSymbolTable
 70
    14
  0
LAYER
  5
10
330
2
100
AcDbSymbolTableRecord
100
AcDbLayerTableRecord
  2
0
 70
     0
 62
     7
  6
Continuous
370
    -3
390
F
  0
LAYER
  5
63
330
2
100
AcDbSymbolTableRecord
100
AcDbLayerTableRecord
  2
SLD-0
 70
     0
 62
     7
  6
Continuous
370
    -3
390
F
  0
LAYER
  5
64
330
2
100
AcDbSymbolTableRecord
100
AcDbLayerTableRecord
  2
5
 70
     0
 62
     7
  6
Continuous
370
    -3
390
F
  0
LAYER
  5
65
330
2
100
AcDbSymbolTableRecord
100
AcDbLayerTableRecord
  2
9
 70
     0
 62
     7
  6
Continuous
370
    -3
390
F
  0
LAYER
  5
66
330
2
100
AcDbSymbolTableRecord
100
AcDbLayerTableRecord
  2
10
 70
     0
 62
     7
  6
Continuous
370
    -3
390
F
  0
LAYER
  5
67
330
2
100
AcDbSymbolTableRecord
100
AcDbLayerTableRecord
  2
轮廓实线层
 70
     0
 62
     7
  6
Continuous
370
    50
390
F
  0
LAYER
  5
68
330
2
100
AcDbSymbolTableRecord
100
AcDbLayerTableRecord
  2
细线层
 70
     0
 62
     4
  6
Continuous
370
    25
390
F
  0
LAYER
  5
69
330
2
100
AcDbSymbolTableRecord
100
AcDbLayerTableRecord
  2
中心线层
 70
     0
 62
     1
  6
CENTERX2
370
    25
390
F
  0
LAYER
  5
6A
330
2
100
AcDbSymbolTableRecord
100
AcDbLayerTableRecord
  2
虚线层
 70
     0
 62
     6
  6
HIDDEN
370
    25
390
F
  0
LAYER
  5
6B
330
2
100
AcDbSymbolTableRecord
100
AcDbLayerTableRecord
  2
剖面线层
 70
     0
 62
     2
  6
Continuous
370
    25
390
F
  0
LAYER
  5
6C
330
2
100
AcDbSymbolTableRecord
100
AcDbLayerTableRecord
  2
文字层
 70
     0
 62
     3
  6
Continuous
370
    25
390
F
  0
LAYER
  5
6D
330
2
100
AcDbSymbolTableRecord
100
AcDbLayerTableRecord
  2
标注层
 70
     0
 62
     4
  6
Continuous
370
    25
390
F
  0
LAYER
  5
6E
330
2
100
AcDbSymbolTableRecord
100
AcDbLayerTableRecord
  2
符号标注层
 70
     0
 62
    31
  6
Continuous
370
    25
390
F
  0
LAYER
  5
6F
330
2
100
AcDbSymbolTableRecord
100
AcDbLayerTableRecord
  2
双点划线层
 70
     0
 62
     6
  6
PHANTOM
370
    25
390
F
  0
ENDTAB
  0
TABLE
  2
STYLE
  5
3
330
0
100
AcDbSymbolTable
 70
     1
  0
STYLE
  5
11
330
3
100
AcDbSymbolTableRecord
100
AcDbTextStyleTableRecord
  2
Standard
 70
     0
 40
0.0
 41
1.0
 50
0.0
 71
     0
 42
3.5
  3
txt
  4

  0
ENDTAB
  0
TABLE
  2
VIEW
  5
6
330
0
100
AcDbSymbolTable
 70
     0
  0
ENDTAB
  0
TABLE
  2
UCS
  5
7
330
0
100
AcDbSymbolTable
 70
     0
  0
ENDTAB
  0
TABLE
  2
APPID
  5
9
330
0
100
AcDbSymbolTable
 70
     1
  0
APPID
  5
12
330
9
100
AcDbSymbolTableRecord
100
AcDbRegAppTableRecord
  2
ACAD
 70
     0
  0
ENDTAB
  0
TABLE
  2
DIMSTYLE
  5
A
330
0
100
AcDbSymbolTable
 70
     1
100
AcDbDimStyleTable
  0
DIMSTYLE
105
27
330
A
100
AcDbSymbolTableRecord
100
AcDbDimStyleTableRecord
  2
ISO-25
 70
     0
 41
2.5
 42
0.625
 43
3.75
 44
1.25
 73
     0
 74
     0
 77
     1
 78
     8
140
2.5
141
2.5
143
0.0393700787
147
0.625
171
     3
172
     1
178
     0
271
     2
272
     2
274
     3
278
    44
283
     0
284
     8
340
11
  0
ENDTAB
  0
TABLE
  2
BLOCK_RECORD
  5
1
330
0
100
AcDbSymbolTable
 70
     1
  0
BLOCK_RECORD
  5
1F
330
1
100
AcDbSymbolTableRecord
100
AcDbBlockTableRecord
  2
*Model_Space
340
22
  0
BLOCK_RECORD
  5
1B
330
1
100
AcDbSymbolTableRecord
100
AcDbBlockTableRecord
  2
*Paper_Space
340
1E
  0
BLOCK_RECORD
  5
23
330
1
100
AcDbSymbolTableRecord
100
AcDbBlockTableRecord
  2
*Paper_Space0
340
26
  0
ENDTAB
  0
ENDSEC
  0
SECTION
  2
BLOCKS
  0
BLOCK
  5
20
330
1F
100
AcDbEntity
  8
0
100
AcDbBlockBegin
  2
*Model_Space
 70
     0
 10
0.0
 20
0.0
 30
0.0
  3
*Model_Space
  1

  0
ENDBLK
  5
21
330
1F
100
AcDbEntity
  8
0
100
AcDbBlockEnd
  0
BLOCK
  5
1C
330
1B
100
AcDbEntity
 67
     1
  8
0
100
AcDbBlockBegin
  2
*Paper_Space
 70
     0
 10
0.0
 20
0.0
 30
0.0
  3
*Paper_Space
  1

  0
ENDBLK
  5
1D
330
1B
100
AcDbEntity
 67
     1
  8
0
100
AcDbBlockEnd
  0
BLOCK
  5
24
330
23
100
AcDbEntity
  8
0
100
AcDbBlockBegin
  2
*Paper_Space0
 70
     0
 10
0.0
 20
0.0
 30
0.0
  3
*Paper_Space0
  1

  0
ENDBLK
  5
25
330
23
100
AcDbEntity
  8
0
100
AcDbBlockEnd
  0
ENDSEC
  0
SECTION
  2
ENTITIES
  0
LINE
  5
70
330
1F
100
AcDbEntity
  8
0
  6
Continuous
 62
     7
370
    25
100
AcDbLine
 10
34.8123218794
 20
82.6901202473
 30
0.0
 11
33.0813026294
 21
82.6901202473
 31
0.0
  0
LINE
  5
71
330
1F
100
AcDbEntity
  8
0
  6
Continuous
 62
     7
370
    25
100
AcDbLine
 10
69.6949713145
 20
82.6901202473
 30
0.0
 11
68.3130583669
 21
82.6901202473
 31
0.0
  0
LINE
  5
72
330
1F
100
AcDbEntity
  8
0
  6
Continuous
 62
     7
370
    25
100
AcDbLine
 10
90.4236655287
 20
82.6901202473
 30
0.0
 11
89.0417525811
 21
82.6901202473
 31
0.0
  0
LINE
  5
73
330
1F
100
AcDbEntity
  8
0
  6
Continuous
 62
     7
370
    25
100
AcDbLine
 10
111.1523597429
 20
82.6901202473
 30
0.0
 11
109.7704467953
 21
82.6901202473
 31
0.0
  0
LINE
  5
74
330
1F
100
AcDbEntity
  8
0
  6
Continuous
 62
     7
370
    25
100
AcDbLine
 10
132.9186973706
 20
82.6901202473
 30
0.0
 11
131.1876781206
 21
82.6901202473
 31
0.0
  0
LINE
  5
75
330
1F
100
AcDbEntity
  8
0
  6
Continuous
 62
     7
370
    25
100
AcDbLine
 10
35.4182151365
 20
78.6936274523
 30
0.0
 11
130.5817848635
 21
78.6936274523
 31
0.0
  0
SPLINE
  5
76
330
1F
100
AcDbEntity
  8
0
  6
Continuous
 62
     7
370
    25
100
AcDbSpline
210
0.0
220
0.0
230
1.0
 70
     8
 71
     3
 72
    18
 73
    14
 74
     0
 42
0.00000001
 43
0.00000001
 40
0.0
 40
0.0
 40
0.0
 40
0.0
 40
0.1250000000000011
 40
0.1250000000000011
 40
0.2500000000000022
 40
0.2500000000000022
 40
0.3750000000000033
 40
0.3750000000000033
 40
0.5000000000000044
 40
0.5000000000000044
 40
0.7500000000000022
 40
0.7500000000000022
 40
1.0
 40
1.0
 40
1.0
 40
1.0
 10
35.41821513650393
 20
78.69362745230174
 30
0.0
 10
35.27895676319021
 20
78.69362745230174
 30
0.0
 10
35.14216947444693
 20
78.69865011470226
 30
0.0
 10
34.87326175744154
 20
78.71812979707306
 30
0.0
 10
34.73971952125922
 20
78.73283647939486
 30
0.0
 10
34.48600678851263
 20
78.7707197808436
 30
0.0
 10
34.36576160793798
 20
78.79375525812064
 30
0.0
 10
34.13819038627613
 20
78.84761423797202
 30
0.0
 10
34.03095689658243
 20
78.87857090914355
 30
0.0
 10
33.74187342807838
 20
78.97890135492446
 30
0.0
 10
33.58546824578119
 20
79.05827982194205
 30
0.0
 10
33.37166026820097
 20
79.22568556423491
 30
0.0
 10
33.31151841001842
 20
79.3153779939932
 30
0.0
 10
33.30538705097079
 20
79.40413671544502
 30
0.0
  0
SPLINE
  5
77
330
1F
100
AcDbEntity
  8
0
  6
Continuous
 62
     7
370
    25
100
AcDbSpline
210
0.0
220
0.0
230
1.0
 70
    24
 71
     3
 72
    12
 73
     8
 74
     0
 42
0.00000001
 43
0.00000001
 40
0.0
 40
0.0
 40
0.0
 40
0.0
 40
0.1210403200120692
 40
0.3426394340821041
 40
0.5633632548103522
 40
0.7826602379814527
 40
1.0
 40
1.0
 40
1.0
 40
1.0
 10
33.08130262944909
 20
82.64802548413935
 30
0.0
 10
33.08082164635918
 20
82.65498828696478
 30
0.0
 10
33.07946008540403
 20
82.67469850269698
 30
0.0
 10
33.10212518780335
 20
82.34659416320198
 30
0.0
 10
33.14718971530297
 20
81.69423147939845
 30
0.0
 10
33.21329286923947
 20
80.73730963193721
 30
0.0
 10
33.27478086356167
 20
79.84719771412972
 30
0.0
 10
33.3053870509708
 20
79.40413671544503
 30
0.0
  0
SPLINE
  5
78
330
1F
100
AcDbEntity
  8
0
  6
Continuous
 62
     7
370
    25
100
AcDbSpline
210
0.0
220
0.0
230
1.0
 70
    24
 71
     3
 72
    12
 73
     8
 74
     0
 42
0.00000001
 43
0.00000001
 40
0.0
 40
0.0
 40
0.0
 40
0.0
 40
0.2213116968357205
 40
0.4446425612208988
 40
0.6694320778607439
 40
0.895097294445421
 40
1.0
 40
1.0
 40
1.0
 40
1.0
 10
132.6946129490292
 20
79.40413671544503
 30
0.0
 10
132.7257394775422
 20
79.85473027106244
 30
0.0
 10
132.7882765217104
 20
80.76002843425927
 30
0.0
 10
132.8550078540245
 20
81.72604391156845
 30
0.0
 10
132.8997609847938
 20
82.37389875699056
 30
0.0
 10
132.9212945110875
 20
82.68562218524123
 30
0.0
 10
132.9193230087723
 20
82.65708234220209
 30
0.0
 10
132.9186973705508
 20
82.64802548413935
 30
0.0
  0
SPLINE
  5
79
330
1F
100
AcDbEntity
  8
0
  6
Continuous
 62
     7
370
    25
100
AcDbSpline
210
0.0
220
0.0
230
1.0
 70
     8
 71
     3
 72
    20
 73
    16
 74
     0
 42
0.00000001
 43
0.00000001
 40
0.0
 40
0.0
 40
0.0
 40
0.0
 40
0.1250000000000006
 40
0.1250000000000006
 40
0.2500000000000013
 40
0.2500000000000013
 40
0.3750000000000019
 40
0.3750000000000019
 40
0.5000000000000026
 40
0.5000000000000026
 40
0.6250000000000032
 40
0.6250000000000032
 40
0.7500000000000038
 40
0.7500000000000038
 40
1.0
 40
1.0
 40
1.0
 40
1.0
 10
132.6946129490292
 20
79.40413671544502
 30
0.0
 10
132.6915454216686
 20
79.35973060508283
 30
0.0
 10
132.6752867565116
 20
79.31570278843772
 30
0.0
 10
132.6177530080269
 20
79.22841067093984
 30
0.0
 10
132.5759440107188
 20
79.18475539818354
 30
0.0
 10
132.4683400623598
 20
79.10031723251177
 30
0.0
 10
132.4032993236471
 20
79.0599038265615
 30
0.0
 10
132.2510848159849
 20
78.98283352349188
 30
0.0
 10
132.1627958481063
 20
78.94585155314046
 30
0.0
 10
131.9696980358133
 20
78.87876247155303
 30
0.0
 10
131.8647169989091
 20
78.84840318723202
 30
0.0
 10
131.6375361963874
 20
78.79443759921799
 30
0.0
 10
131.5147754511688
 20
78.77087555120929
 30
0.0
 10
131.1361936294078
 20
78.71423108705525
 30
0.0
 10
130.8604458161275
 20
78.69362745230174
 30
0.0
 10
130.581784863496
 20
78.69362745230174
 30
0.0
  0
LINE
  5
7A
330
1F
100
AcDbEntity
  8
0
  6
Continuous
 62
     7
370
    25
100
AcDbLine
 10
113.2252291643
 20
79.2946939391
 30
0.0
 11
128.8917981545
 21
79.2946939391
 31
0.0
  0
SPLINE
  5
7B
330
1F
100
AcDbEntity
  8
0
  6
Continuous
 62
     7
370
    25
100
AcDbSpline
210
0.0
220
0.0
230
1.0
 70
     8
 71
     3
 72
    20
 73
    16
 74
     0
 42
0.00000001
 43
0.00000001
 40
0.0
 40
0.0
 40
0.0
 40
0.0
 40
0.1250000000000008
 40
0.1250000000000008
 40
0.2500000000000016
 40
0.2500000000000016
 40
0.3750000000000023
 40
0.3750000000000023
 40
0.5000000000000031
 40
0.5000000000000031
 40
0.6250000000000039
 40
0.6250000000000039
 40
0.7500000000000047
 40
0.7500000000000047
 40
1.0
 40
1.0
 40
1.0
 40
1.0
 10
131.0004163736134
 20
79.94426037452428
 30
0.0
 10
130.9976169784654
 20
79.90373579714424
 30
0.0
 10
130.9815641988699
 20
79.86351677863885
 30
0.0
 10
130.924300562551
 20
79.78370566096024
 30
0.0
 10
130.8825271434546
 20
79.74373929080484
 30
0.0
 10
130.7749981292142
 20
79.66649245031577
 30
0.0
 10
130.7099448821126
 20
79.62950001516501
 30
0.0
 10
130.557604261891
 20
79.55892904873313
 30
0.0
 10
130.469242410973
 20
79.52507630585556
 30
0.0
 10
130.276242458234
 20
79.4637330891045
 30
0.0
 10
130.1712989270335
 20
79.43596641688926
 30
0.0
 10
129.944168164339
 20
79.38661325535448
 30
0.0
 10
129.8217631636099
 20
79.36513154181982
 30
0.0
 10
129.4442352292275
 20
79.31346211651189
 30
0.0
 10
129.1693148901079
 20
79.2946939391176
 30
0.0
 10
128.8917981544699
 20
79.29469393911761
 30
0.0
  0
SPLINE
  5
7C
330
1F
100
AcDbEntity
  8
0
  6
Continuous
 62
     7
370
    25
100
AcDbSpline
210
0.0
220
0.0
230
1.0
 70
    24
 71
     3
 72
    12
 73
     8
 74
     0
 42
0.00000001
 43
0.00000001
 40
0.0
 40
0.0
 40
0.0
 40
0.0
 40
0.2217571956032766
 40
0.4452011035813057
 40
0.6698603782825123
 40
0.8952480444725645
 40
1.0
 40
1.0
 40
1.0
 40
1.0
 10
131.0004163736134
 20
79.94426037452426
 30
0.0
 10
131.0265042447347
 20
80.32191336599415
 30
0.0
 10
131.0788784145184
 20
81.08009182381501
 30
0.0
 10
131.1346095811881
 20
81.88686680798737
 30
0.0
 10
131.1719142517168
 20
82.42689632421104
 30
0.0
 10
131.1898390421541
 20
82.68637900482747
 30
0.0
 10
131.1881986198744
 20
82.66263193944546
 30
0.0
 10
131.1876781205754
 20
82.65509709244995
 30
0.0
  0
LINE
  5
7D
330
1F
100
AcDbEntity
  8
0
  6
Continuous
 62
     7
370
    25
100
AcDbLine
 10
111.1523597429
 20
79.9484406949
 30
0.0
 11
111.1523597429
 21
82.6901202473
 31
0.0
  0
SPLINE
  5
7E
330
1F
100
AcDbEntity
  8
0
  6
Continuous
 62
     7
370
    25
100
AcDbSpline
210
0.0
220
0.0
230
1.0
 70
     8
 71
     3
 72
    20
 73
    16
 74
     0
 42
0.00000001
 43
0.00000001
 40
0.0
 40
0.0
 40
0.0
 40
0.0
 40
0.1250000000000002
 40
0.1250000000000002
 40
0.2500000000000003
 40
0.2500000000000003
 40
0.3750000000000005
 40
0.3750000000000005
 40
0.5000000000000007
 40
0.5000000000000007
 40
0.7500000000000018
 40
0.7500000000000018
 40
0.8750000000000009
 40
0.8750000000000009
 40
1.0
 40
1.0
 40
1.0
 40
1.0
 10
113.2252291642898
 20
79.29469393911761
 30
0.0
 10
113.0867593236884
 20
79.2946939391176
 30
0.0
 10
112.950708328348
 20
79.29927279808047
 30
0.0
 10
112.6832293048209
 20
79.31713056242695
 30
0.0
 10
112.5503634761132
 20
79.33064398288353
 30
0.0
 10
112.2982743942703
 20
79.36552189030768
 30
0.0
 10
112.1788891984445
 20
79.38676322551969
 30
0.0
 10
111.9532491610296
 20
79.43652767976207
 30
0.0
 10
111.8472222745585
 20
79.4651466024356
 30
0.0
 10
111.562459150205
 20
79.55789814057614
 30
0.0
 10
111.4100639599161
 20
79.63127414005533
 30
0.0
 10
111.2572293580314
 20
79.74689539935378
 30
0.0
 10
111.2179262516846
 20
79.78696542024983
 30
0.0
 10
111.1655538532734
 20
79.86764058770781
 30
0.0
 10
111.1523597428721
 20
79.90802723849728
 30
0.0
 10
111.1523597428721
 20
79.94844069486545
 30
0.0
  0
LINE
  5
7F
330
1F
100
AcDbEntity
  8
0
  6
Continuous
 62
     7
370
    25
100
AcDbLine
 10
92.4965349501
 20
79.2946939391
 30
0.0
 11
107.6975773738
 21
79.2946939391
 31
0.0
  0
SPLINE
  5
80
330
1F
100
AcDbEntity
  8
0
  6
Continuous
 62
     7
370
    25
100
AcDbSpline
210
0.0
220
0.0
230
1.0
 70
     8
 71
     3
 72
    20
 73
    16
 74
     0
 42
0.00000001
 43
0.00000001
 40
0.0
 40
0.0
 40
0.0
 40
0.0
 40
0.1249999999999996
 40
0.1249999999999996
 40
0.2499999999999993
 40
0.2499999999999993
 40
0.3749999999999989
 40
0.3749999999999989
 40
0.4999999999999986
 40
0.4999999999999986
 40
0.6249999999999982
 40
0.6249999999999982
 40
0.7499999999999978
 40
0.7499999999999978
 40
1.0
 40
1.0
 40
1.0
 40
1.0
 10
109.7704467952602
 20
79.94844069486545
 30
0.0
 10
109.7704467952602
 20
79.90801048845245
 30
0.0
 10
109.7572436875035
 20
79.86779951248685
 30
0.0
 10
109.7055595536766
 20
79.78784121011716
 30
0.0
 10
109.6665247845777
 20
79.74770538850903
 30
0.0
 10
109.5641104996728
 20
79.67004272743308
 30
0.0
 10
109.5013961292618
 20
79.63278319786706
 30
0.0
 10
109.3531345596657
 20
79.56158665995918
 30
0.0
 10
109.2665189635872
 20
79.5273773307878
 30
0.0
 10
109.0764645101457
 20
79.46539324154483
 30
0.0
 10
108.9726719119628
 20
79.43731176332489
 30
0.0
 10
108.7471085895037
 20
79.38737254775161
 30
0.0
 10
108.6254659724943
 20
79.36569214354274
 30
0.0
 10
108.2494079532647
 20
79.31354008812765
 30
0.0
 10
107.9746360426904
 20
79.2946939391176
 30
0.0
 10
107.6975773738425
 20
79.2946939391176
 30
0.0
  0
LINE
  5
81
330
1F
100
AcDbEntity
  8
0
  6
Continuous
 62
     7
370
    25
100
AcDbLine
 10
109.7704467953
 20
79.9484406949
 30
0.0
 11
109.7704467953
 21
82.6901202473
 31
0.0
  0
LINE
  5
82
330
1F
100
AcDbEntity
  8
0
  6
Continuous
 62
     7
370
    25
100
AcDbLine
 10
90.4236655287
 20
79.9484406949
 30
0.0
 11
90.4236655287
 21
82.6901202473
 31
0.0
  0
SPLINE
  5
83
330
1F
100
AcDbEntity
  8
0
  6
Continuous
 62
     7
370
    25
100
AcDbSpline
210
0.0
220
0.0
230
1.0
 70
     8
 71
     3
 72
    20
 73
    16
 74
     0
 42
0.00000001
 43
0.00000001
 40
0.0
 40
0.0
 40
0.0
 40
0.0
 40
0.1250000000000007
 40
0.1250000000000007
 40
0.2500000000000014
 40
0.2500000000000014
 40
0.3750000000000022
 40
0.3750000000000022
 40
0.5000000000000029
 40
0.5000000000000029
 40
0.7500000000000029
 40
0.7500000000000029
 40
0.8750000000000014
 40
0.8750000000000014
 40
1.0
 40
1.0
 40
1.0
 40
1.0
 10
92.49653495011233
 20
79.29469393911761
 30
0.0
 10
92.35806510951097
 20
79.29469393911761
 30
0.0
 10
92.22201411417053
 20
79.29927279808047
 30
0.0
 10
91.95453509064343
 20
79.31713056242695
 30
0.0
 10
91.82166926193577
 20
79.33064398288353
 30
0.0
 10
91.56958018009281
 20
79.36552189030768
 30
0.0
 10
91.45019498426696
 20
79.38676322551969
 30
0.0
 10
91.22455494685217
 20
79.43652767976205
 30
0.0
 10
91.11852806038098
 20
79.4651466024356
 30
0.0
 10
90.83376493602749
 20
79.55789814057614
 30
0.0
 10
90.68136974573858
 20
79.63127414005533
 30
0.0
 10
90.5285351438539
 20
79.74689539935378
 30
0.0
 10
90.4892320375071
 20
79.78696542024983
 30
0.0
 10
90.4368596390959
 20
79.86764058770783
 30
0.0
 10
90.42366552869458
 20
79.9080272384973
 30
0.0
 10
90.42366552869458
 20
79.94844069486545
 30
0.0
  0
LINE
  5
84
330
1F
100
AcDbEntity
  8
0
  6
Continuous
 62
     7
370
    25
100
AcDbLine
 10
71.7678407359
 20
79.2946939391
 30
0.0
 11
86.9688831597
 21
79.2946939391
 31
0.0
  0
SPLINE
  5
85
330
1F
100
AcDbEntity
  8
0
  6
Continuous
 62
     7
370
    25
100
AcDbSpline
210
0.0
220
0.0
230
1.0
 70
     8
 71
     3
 72
    20
 73
    16
 74
     0
 42
0.00000001
 43
0.00000001
 40
0.0
 40
0.0
 40
0.0
 40
0.0
 40
0.125
 40
0.125
 40
0.25
 40
0.25
 40
0.375
 40
0.375
 40
0.5
 40
0.5
 40
0.625
 40
0.625
 40
0.75
 40
0.75
 40
1.0
 40
1.0
 40
1.0
 40
1.0
 10
89.04175258108275
 20
79.94844069486545
 30
0.0
 10
89.04175258108275
 20
79.90801048845245
 30
0.0
 10
89.02854947332605
 20
79.86779951248685
 30
0.0
 10
88.9768653394991
 20
79.78784121011716
 30
0.0
 10
88.93783057040027
 20
79.74770538850903
 30
0.0
 10
88.83541628549528
 20
79.67004272743308
 30
0.0
 10
88.77270191508433
 20
79.63278319786706
 30
0.0
 10
88.62444034548822
 20
79.56158665995918
 30
0.0
 10
88.53782474940976
 20
79.5273773307878
 30
0.0
 10
88.34777029596817
 20
79.46539324154483
 30
0.0
 10
88.24397769778533
 20
79.43731176332489
 30
0.0
 10
88.01841437532619
 20
79.3873725477516
 30
0.0
 10
87.89677175831677
 20
79.36569214354274
 30
0.0
 10
87.52071373908727
 20
79.31354008812765
 30
0.0
 10
87.2459418285129
 20
79.2946939391176
 30
0.0
 10
86.968883159665
 20
79.2946939391176
 30
0.0
  0
LINE
  5
86
330
1F
100
AcDbEntity
  8
0
  6
Continuous
 62
     7
370
    25
100
AcDbLine
 10
89.0417525811
 20
79.9484406949
 30
0.0
 11
89.0417525811
 21
82.6901202473
 31
0.0
  0
LINE
  5
87
330
1F
100
AcDbEntity
  8
0
  6
Continuous
 62
     7
370
    25
100
AcDbLine
 10
69.6949713145
 20
79.9484406949
 30
0.0
 11
69.6949713145
 21
82.6901202473
 31
0.0
  0
SPLINE
  5
88
330
1F
100
AcDbEntity
  8
0
  6
Continuous
 62
     7
370
    25
100
AcDbSpline
210
0.0
220
0.0
230
1.0
 70
     8
 71
     3
 72
    20
 73
    16
 74
     0
 42
0.00000001
 43
0.00000001
 40
0.0
 40
0.0
 40
0.0
 40
0.0
 40
0.1250000000000007
 40
0.1250000000000007
 40
0.2500000000000014
 40
0.2500000000000014
 40
0.3750000000000022
 40
0.3750000000000022
 40
0.5000000000000029
 40
0.5000000000000029
 40
0.7500000000000029
 40
0.7500000000000029
 40
0.8750000000000014
 40
0.8750000000000014
 40
1.0
 40
1.0
 40
1.0
 40
1.0
 10
71.76784073593484
 20
79.29469393911761
 30
0.0
 10
71.62937089533347
 20
79.29469393911761
 30
0.0
 10
71.49331989999305
 20
79.29927279808047
 30
0.0
 10
71.22584087646592
 20
79.31713056242695
 30
0.0
 10
71.09297504775826
 20
79.33064398288353
 30
0.0
 10
70.8408859659153
 20
79.36552189030768
 30
0.0
 10
70.72150077008946
 20
79.38676322551969
 30
0.0
 10
70.49586073267466
 20
79.43652767976207
 30
0.0
 10
70.38983384620349
 20
79.4651466024356
 30
0.0
 10
70.10507072184998
 20
79.55789814057613
 30
0.0
 10
69.9526755315611
 20
79.63127414005534
 30
0.0
 10
69.79984092967639
 20
79.74689539935379
 30
0.0
 10
69.7605378233296
 20
79.78696542024983
 30
0.0
 10
69.70816542491839
 20
79.86764058770783
 30
0.0
 10
69.69497131451709
 20
79.9080272384973
 30
0.0
 10
69.69497131451709
 20
79.94844069486545
 30
0.0
  0
SPLINE
  5
89
330
1F
100
AcDbEntity
  8
0
  6
Continuous
 62
     7
370
    25
100
AcDbSpline
210
0.0
220
0.0
230
1.0
 70
    24
 71
     3
 72
    12
 73
     8
 74
     0
 42
0.00000001
 43
0.00000001
 40
0.0
 40
0.0
 40
0.0
 40
0.0
 40
0.120866589492044
 40
0.3421992435145818
 40
0.5628038004580833
 40
0.7822194188864292
 40
1.0
 40
1.0
 40
1.0
 40
1.0
 10
34.81232187942462
 20
82.65509709244994
 30
0.0
 10
34.81192174596197
 20
82.66088950067136
 30
0.0
 10
34.81078888229134
 20
82.67728905095092
 30
0.0
 10
34.82965649347059
 20
82.40415791768902
 30
0.0
 10
34.86722338995114
 20
81.86033236863793
 30
0.0
 10
34.92243394460881
 20
81.06109386311704
 30
0.0
 10
34.97393126278146
 20
80.3156088762367
 30
0.0
 10
34.9995836263866
 20
79.9442603745243
 30
0.0
  0
SPLINE
  5
8A
330
1F
100
AcDbEntity
  8
0
  6
Continuous
 62
     7
370
    25
100
AcDbSpline
210
0.0
220
0.0
230
1.0
 70
     8
 71
     3
 72
    18
 73
    14
 74
     0
 42
0.00000001
 43
0.00000001
 40
0.0
 40
0.0
 40
0.0
 40
0.0
 40
0.1249999999999995
 40
0.1249999999999995
 40
0.2499999999999989
 40
0.2499999999999989
 40
0.3749999999999984
 40
0.3749999999999984
 40
0.4999999999999979
 40
0.4999999999999979
 40
0.7499999999999989
 40
0.7499999999999989
 40
1.0
 40
1.0
 40
1.0
 40
1.0
 10
37.10820184553005
 20
79.29469393911761
 30
0.0
 10
36.96949415759944
 20
79.29469393911761
 30
0.0
 10
36.83321514485078
 20
79.2992664257125
 30
0.0
 10
36.5652540994529
 20
79.31701566728583
 30
0.0
 10
36.43216385314143
 20
79.33041575541411
 30
0.0
 10
36.17900075388843
 20
79.36499012493124
 30
0.0
 10
36.0589760758342
 20
79.38602248957697
 30
0.0
 10
35.83176548898675
 20
79.43521059939494
 30
0.0
 10
35.72450356477842
 20
79.4635299414924
 30
0.0
 10
35.43537338062791
 20
79.55532579797831
 30
0.0
 10
35.27881362470493
 20
79.62800648393322
 30
0.0
 10
35.06507450114938
 20
79.78121102877076
 30
0.0
 10
35.00517982487658
 20
79.86324873924005
 30
0.0
 10
34.99958362638657
 20
79.94426037452428
 30
0.0
  0
LINE
  5
8B
330
1F
100
AcDbEntity
  8
0
  6
Continuous
 62
     7
370
    25
100
AcDbLine
 10
37.1082018455
 20
79.2946939391
 30
0.0
 11
66.2401889455
 21
79.2946939391
 31
0.0
  0
SPLINE
  5
8C
330
1F
100
AcDbEntity
  8
0
  6
Continuous
 62
     7
370
    25
100
AcDbSpline
210
0.0
220
0.0
230
1.0
 70
     8
 71
     3
 72
    20
 73
    16
 74
     0
 42
0.00000001
 43
0.00000001
 40
0.0
 40
0.0
 40
0.0
 40
0.0
 40
0.1249999999999999
 40
0.1249999999999999
 40
0.2499999999999998
 40
0.2499999999999998
 40
0.3749999999999997
 40
0.3749999999999997
 40
0.4999999999999996
 40
0.4999999999999996
 40
0.6249999999999994
 40
0.6249999999999994
 40
0.7500000000000007
 40
0.7500000000000007
 40
1.0
 40
1.0
 40
1.0
 40
1.0
 10
68.31305836690525
 20
79.94844069486545
 30
0.0
 10
68.31305836690525
 20
79.90801048845245
 30
0.0
 10
68.29985525914854
 20
79.86779951248685
 30
0.0
 10
68.24817112532159
 20
79.78784121011716
 30
0.0
 10
68.20913635622276
 20
79.74770538850903
 30
0.0
 10
68.10672207131778
 20
79.67004272743308
 30
0.0
 10
68.0440077009068
 20
79.63278319786706
 30
0.0
 10
67.89574613131072
 20
79.56158665995919
 30
0.0
 10
67.80913053523227
 20
79.5273773307878
 30
0.0
 10
67.61907608179067
 20
79.46539324154483
 30
0.0
 10
67.51528348360783
 20
79.43731176332489
 30
0.0
 10
67.28972016114868
 20
79.38737254775161
 30
0.0
 10
67.16807754413925
 20
79.36569214354274
 30
0.0
 10
66.79201952490975
 20
79.31354008812764
 30
0.0
 10
66.51724761433539
 20
79.2946939391176
 30
0.0
 10
66.2401889454875
 20
79.2946939391176
 30
0.0
  0
LINE
  5
8D
330
1F
100
AcDbEntity
  8
0
  6
Continuous
 62
     7
370
    25
100
AcDbLine
 10
68.3130583669
 20
79.9484406949
 30
0.0
 11
68.3130583669
 21
82.6901202473
 31
0.0
  0
LINE
  5
8E
330
1F
100
AcDbEntity
  8
0
  6
Continuous
 62
     7
370
    25
100
AcDbLine
 10
132.694612949
 20
79.4041367154
 30
0.0
 11
129.5162897894
 21
33.3941252614
 31
0.0
  0
LINE
  5
8F
330
1F
100
AcDbEntity
  8
0
  6
Continuous
 62
     7
370
    25
100
AcDbLine
 10
36.4837102106
 20
33.3941252614
 30
0.0
 11
33.305387051
 21
79.4041367154
 31
0.0
  0
SPLINE
  5
90
330
1F
100
AcDbEntity
  8
0
  6
Continuous
 62
     7
370
    25
100
AcDbSpline
210
0.0
220
0.0
230
1.0
 70
     8
 71
     3
 72
     8
 73
     4
 74
     0
 42
0.00000001
 43
0.00000001
 40
0.0
 40
0.0
 40
0.0
 40
0.0
 40
1.0
 40
1.0
 40
1.0
 40
1.0
 10
129.5162897893737
 20
33.39412526138466
 30
0.0
 10
129.5139569274471
 20
33.36035430778017
 30
0.0
 10
129.5111273530142
 20
33.32661400212898
 30
0.0
 10
129.5078028995177
 20
33.2929262066969
 30
0.0
  0
SPLINE
  5
91
330
1F
100
AcDbEntity
  8
0
  6
Continuous
 62
     7
370
    25
100
AcDbSpline
210
0.0
220
0.0
230
1.0
 70
     8
 71
     3
 72
     8
 73
     4
 74
     0
 42
0.00000001
 43
0.00000001
 40
0.0
 40
0.0
 40
0.0
 40
0.0
 40
1.0
 40
1.0
 40
1.0
 40
1.0
 10
36.49219710048227
 20
33.29292620669726
 30
0.0
 10
36.48887264698573
 20
33.32661400212922
 30
0.0
 10
36.48604307255284
 20
33.3603543077803
 30
0.0
 10
36.48371021062626
 20
33.39412526138466
 30
0.0
  0
LINE
  5
92
330
1F
100
AcDbEntity
  8
0
  6
Continuous
 62
     7
370
    25
100
AcDbLine
 10
126.069720976
 20
30.177428238
 30
0.0
 11
39.930279024
 21
30.177428238
 31
0.0
  0
SPLINE
  5
93
330
1F
100
AcDbEntity
  8
0
  6
Continuous
 62
     7
370
    25
100
AcDbSpline
210
0.0
220
0.0
230
1.0
 70
     8
 71
     3
 72
    22
 73
    18
 74
     0
 42
0.00000001
 43
0.00000001
 40
0.0
 40
0.0
 40
0.0
 40
0.0
 40
0.032678471307893
 40
0.0655548881365714
 40
0.0986420180768523
 40
0.131952386417273
 40
0.1654982683811725
 40
0.1992916825374882
 40
0.2333443853546863
 40
0.357131888873894
 40
0.4887533235736823
 40
0.6122829399205658
 40
0.7510846672616076
 40
0.8110979327761653
 40
0.878466361647998
 40
0.9291012740302065
 40
1.0
 40
1.0
 40
1.0
 40
1.0
 10
129.5078028995176
 20
33.2929262066969
 30
0.0
 10
129.5013166320284
 20
33.23567991522419
 30
0.0
 10
129.488304807342
 20
33.12084057043452
 30
0.0
 10
129.4578192955748
 20
32.94979564428586
 30
0.0
 10
129.4191909890621
 20
32.77958572189085
 30
0.0
 10
129.3716012707475
 20
32.61076335268487
 30
0.0
 10
129.3152661631662
 20
32.44377658144185
 30
0.0
 10
129.2501427758691
 20
32.27909580824508
 30
0.0
 10
129.1117015957978
 20
31.97551782428398
 30
0.0
 10
128.8496396488567
 20
31.54572190430445
 30
0.0
 10
128.4121336096301
 20
31.06524895045052
 30
0.0
 10
127.8805621205115
 20
30.66539200217368
 30
0.0
 10
127.3961845304427
 20
30.42893690868792
 30
0.0
 10
126.978183911715
 20
30.29397321906541
 30
0.0
 10
126.6922349086397
 20
30.23014266515798
 30
0.0
 10
126.3851346881739
 20
30.18642029317749
 30
0.0
 10
126.185930275935
 20
30.18074122155327
 30
0.0
 10
126.0697209759683
 20
30.17742823801794
 30
0.0
  0
SPLINE
  5
94
330
1F
100
AcDbEntity
  8
0
  6
Continuous
 62
     7
370
    25
100
AcDbSpline
210
0.0
220
0.0
230
1.0
 70
     8
 71
     3
 72
    21
 73
    17
 74
     0
 42
0.00000001
 43
0.00000001
 40
0.0
 40
0.0
 40
0.0
 40
0.0
 40
0.0379917634603498
 40
0.0709165538644468
 40
0.0987740363642163
 40
0.1215639538826338
 40
0.1889289174247077
 40
0.2489497112946249
 40
0.3877501533411878
 40
0.5112894237844056
 40
0.6429093854318281
 40
0.7667065077447193
 40
0.8261129675298148
 40
0.8847539071126781
 40
0.942693927387446
 40
1.0
 40
1.0
 40
1.0
 40
1.0
 10
39.93027902403161
 20
30.17742823801794
 30
0.0
 10
39.86803226853744
 20
30.1783888518264
 30
0.0
 10
39.75184062627541
 20
30.18018196208731
 30
0.0
 10
39.59039048957456
 20
30.19318366882715
 30
0.0
 10
39.45432855291139
 20
30.2095961714358
 30
0.0
 10
39.26306539040832
 20
30.2398615710052
 30
0.0
 10
39.0218186460747
 20
30.29405496863438
 30
0.0
 10
38.60383726948025
 20
30.42887521544493
 30
0.0
 10
38.11944226732834
 20
30.66540591167809
 30
0.0
 10
37.58788989698508
 20
31.06522454202072
 30
0.0
 10
37.15033136724927
 20
31.54574176523134
 30
0.0
 10
36.8654453090671
 20
32.0130788719494
 30
0.0
 10
36.69758915626976
 20
32.40023775590937
 30
0.0
 10
36.60115119130911
 20
32.69325398317627
 30
0.0
 10
36.52975862734103
 20
32.99096222263105
 30
0.0
 10
36.50467160973789
 20
33.19264134532131
 30
0.0
 10
36.49219710048228
 20
33.29292620669727
 30
0.0
  0
LINE
  5
95
330
1F
100
AcDbEntity
  8
0
  6
HIDDEN
 62
     7
370
    18
100
AcDbLine
 10
127.7930053827
 20
33.5131679342
 30
0.0
 11
131.0004163736
 21
79.9442603745
 31
0.0
  0
LINE
  5
96
330
1F
100
AcDbEntity
  8
0
  6
HIDDEN
 62
     7
370
    18
100
AcDbLine
 10
109.7704467953
 20
33.977688844
 30
0.0
 11
109.7704467953
 21
79.9484406949
 31
0.0
  0
LINE
  5
97
330
1F
100
AcDbEntity
  8
0
  6
HIDDEN
 62
     7
370
    18
100
AcDbLine
 10
68.3130583669
 20
33.977688844
 30
0.0
 11
68.3130583669
 21
79.9484406949
 31
0.0
  0
LINE
  5
98
330
1F
100
AcDbEntity
  8
0
  6
HIDDEN
 62
     7
370
    18
100
AcDbLine
 10
89.0417525811
 20
33.977688844
 30
0.0
 11
89.0417525811
 21
79.9484406949
 31
0.0
  0
LINE
  5
99
330
1F
100
AcDbEntity
  8
0
  6
HIDDEN
 62
     7
370
    18
100
AcDbLine
 10
34.9995836264
 20
79.9442603745
 30
0.0
 11
38.2069946173
 21
33.5131679342
 31
0.0
  0
LINE
  5
9A
330
1F
100
AcDbEntity
  8
0
  6
HIDDEN
 62
     7
370
    18
100
AcDbLine
 10
90.4236655287
 20
79.9484406949
 30
0.0
 11
90.4236655287
 21
33.977688844
 31
0.0
  0
LINE
  5
9B
330
1F
100
AcDbEntity
  8
0
  6
HIDDEN
 62
     7
370
    18
100
AcDbLine
 10
111.1523597429
 20
79.9484406949
 30
0.0
 11
111.1523597429
 21
33.977688844
 31
0.0
  0
LINE
  5
9C
330
1F
100
AcDbEntity
  8
0
  6
HIDDEN
 62
     7
370
    18
100
AcDbLine
 10
69.6949713145
 20
79.9484406949
 30
0.0
 11
69.6949713145
 21
33.977688844
 31
0.0
  0
LINE
  5
9D
330
1F
100
AcDbEntity
  8
0
  6
HIDDEN
 62
     7
370
    18
100
AcDbLine
 10
125.725763167
 20
31.9048194225
 30
0.0
 11
113.2252291643
 21
31.9048194225
 31
0.0
  0
LINE
  5
9E
330
1F
100
AcDbEntity
  8
0
  6
HIDDEN
 62
     7
370
    18
100
AcDbLine
 10
66.2401889455
 20
31.9048194225
 30
0.0
 11
40.274236833
 21
31.9048194225
 31
0.0
  0
LINE
  5
9F
330
1F
100
AcDbEntity
  8
0
  6
HIDDEN
 62
     7
370
    18
100
AcDbLine
 10
86.9688831597
 20
31.9048194225
 30
0.0
 11
71.7678407359
 21
31.9048194225
 31
0.0
  0
LINE
  5
A0
330
1F
100
AcDbEntity
  8
0
  6
HIDDEN
 62
     7
370
    18
100
AcDbLine
 10
107.6975773738
 20
31.9048194225
 30
0.0
 11
92.4965349501
 21
31.9048194225
 31
0.0
  0
SPLINE
  5
A1
330
1F
100
AcDbEntity
  8
0
  6
HIDDEN
 62
     7
370
    18
100
AcDbSpline
210
0.0
220
0.0
230
1.0
 70
    24
 71
     3
 72
    14
 73
    10
 74
     0
 42
0.00000001
 43
0.00000001
 40
0.0
 40
0.0
 40
0.0
 40
0.0
 40
0.25
 40
0.25
 40
0.5
 40
0.5
 40
0.75
 40
0.75
 40
1.0
 40
1.0
 40
1.0
 40
1.0
 10
126.0697209759683
 20
31.90481942253273
 30
0.0
 10
126.0697209759683
 20
31.90481942253273
 30
0.0
 10
126.0623345683101
 20
31.90481942253274
 30
0.0
 10
126.0288562156933
 20
31.90481942253273
 30
0.0
 10
126.0026528857163
 20
31.90481942253273
 30
0.0
 10
125.9355847954642
 20
31.90481942253274
 30
0.0
 10
125.8949428052257
 20
31.90481942253273
 30
0.0
 10
125.8102386353112
 20
31.90481942253274
 30
0.0
 10
125.7664359238239
 20
31.90481942253273
 30
0.0
 10
125.725763167045
 20
31.90481942253273
 30
0.0
  0
ARC
  5
A2
330
1F
100
AcDbEntity
  8
0
  6
HIDDEN
 62
     7
370
    18
100
AcDbCircle
 10
126.069720976
 20
33.632210607
 30
0.0
 40
1.727391184514828
100
AcDbArc
 50
270.0
 51
356.0483455186
  0
SPLINE
  5
A3
330
1F
100
AcDbEntity
  8
0
  6
HIDDEN
 62
     7
370
    18
100
AcDbSpline
210
0.0
220
0.0
230
1.0
 70
    24
 71
     3
 72
    14
 73
    10
 74
     0
 42
0.00000001
 43
0.00000001
 40
0.0
 40
0.0
 40
0.0
 40
0.0
 40
0.25
 40
0.25
 40
0.5
 40
0.5
 40
0.75
 40
0.75
 40
1.0
 40
1.0
 40
1.0
 40
1.0
 10
40.2742368329549
 20
31.90481942253273
 30
0.0
 10
40.23356407617603
 20
31.90481942253273
 30
0.0
 10
40.18976136468876
 20
31.90481942253273
 30
0.0
 10
40.10505719477425
 20
31.90481942253273
 30
0.0
 10
40.06441520453573
 20
31.90481942253273
 30
0.0
 10
39.99734711428367
 20
31.90481942253273
 30
0.0
 10
39.97114378430671
 20
31.90481942253273
 30
0.0
 10
39.93766543168983
 20
31.90481942253273
 30
0.0
 10
39.93027902403161
 20
31.90481942253273
 30
0.0
 10
39.93027902403161
 20
31.90481942253273
 30
0.0
  0
ARC
  5
A4
330
1F
100
AcDbEntity
  8
0
  6
HIDDEN
 62
     7
370
    18
100
AcDbCircle
 10
39.930279024
 20
33.632210607
 30
0.0
 40
1.727391184514786
100
AcDbArc
 50
183.9516544814
 51
270.0
  0
SPLINE
  5
A5
330
1F
100
AcDbEntity
  8
0
  6
HIDDEN
 62
     7
370
    18
100
AcDbSpline
210
0.0
220
0.0
230
1.0
 70
     8
 71
     3
 72
    21
 73
    17
 74
     0
 42
0.00000001
 43
0.00000001
 40
0.0
 40
0.0
 40
0.0
 40
0.0
 40
0.0442682352710803
 40
0.0852778760543859
 40
0.123028700018193
 40
0.1575205155295402
 40
0.1887531659213912
 40
0.2167265362448936
 40
0.2414405644733757
 40
0.3785235390377394
 40
0.5018625767518337
 40
0.6345324287939569
 40
0.761147870200912
 40
0.841445855759894
 40
0.92105413081488
 40
1.0
 40
1.0
 40
1.0
 40
1.0
 10
69.69497131451709
 20
33.97768884395048
 30
0.0
 10
69.69591803655119
 20
33.92995274779121
 30
0.0
 10
69.69774179220325
 20
33.83799441995945
 30
0.0
 10
69.71164249730992
 20
33.70592137789485
 30
0.0
 10
69.73130167315487
 20
33.58532587516637
 30
0.0
 10
69.75558424939825
 20
33.47632532069858
 30
0.0
 10
69.78257601055732
 20
33.37887022163132
 30
0.0
 10
69.81077561846938
 20
33.29277500382548
 30
0.0
 10
69.88248031688238
 20
33.1008690453959
 30
0.0
 10
70.02717452445683
 20
32.82566979711682
 30
0.0
 10
70.29920947811141
 20
32.49503830109008
 30
0.0
 10
70.62419674471064
 20
32.23156449498717
 30
0.0
 10
70.95468768447935
 20
32.06061773245878
 30
0.0
 10
71.25226276627308
 20
31.96467012008353
 30
0.0
 10
71.50872365910854
 20
31.91416271191634
 30
0.0
 10
71.68170927616883
 20
31.90792516594217
 30
0.0
 10
71.76784073593484
 20
31.90481942253273
 30
0.0
  0
SPLINE
  5
A6
330
1F
100
AcDbEntity
  8
0
  6
HIDDEN
 62
     7
370
    18
100
AcDbSpline
210
0.0
220
0.0
230
1.0
 70
     8
 71
     3
 72
    21
 73
    17
 74
     0
 42
0.00000001
 43
0.00000001
 40
0.0
 40
0.0
 40
0.0
 40
0.0
 40
0.04426823527108
 40
0.0852778760543854
 40
0.1230287000181923
 40
0.1575205155295394
 40
0.1887531659213901
 40
0.2167265362448925
 40
0.2414405644733744
 40
0.3785235390377375
 40
0.5018625767518309
 40
0.634532428785951
 40
0.7611478702009065
 40
0.841445855753503
 40
0.9210541308084877
 40
0.9999999999999999
 40
0.9999999999999999
 40
0.9999999999999999
 40
0.9999999999999999
 10
90.42366552869458
 20
33.97768884395049
 30
0.0
 10
90.42461225072869
 20
33.92995274779122
 30
0.0
 10
90.42643600638074
 20
33.83799441995946
 30
0.0
 10
90.4403367114874
 20
33.70592137789482
 30
0.0
 10
90.45999588733237
 20
33.58532587516638
 30
0.0
 10
90.48427846357573
 20
33.47632532069856
 30
0.0
 10
90.51127022473482
 20
33.37887022163133
 30
0.0
 10
90.53946983264687
 20
33.29277500382548
 30
0.0
 10
90.61117453105987
 20
33.10086904539592
 30
0.0
 10
90.75586873863432
 20
32.82566979711683
 30
0.0
 10
91.0279036922834
 20
32.49503830109681
 30
0.0
 10
91.35289095888064
 20
32.23156449499208
 30
0.0
 10
91.68338189864238
 20
32.06061773246466
 30
0.0
 10
91.98095698043707
 20
31.96467012008743
 30
0.0
 10
92.23741787327207
 20
31.91416271191754
 30
0.0
 10
92.41040349033935
 20
31.90792516594266
 30
0.0
 10
92.49653495011233
 20
31.90481942253273
 30
0.0
  0
SPLINE
  5
A7
330
1F
100
AcDbEntity
  8
0
  6
HIDDEN
 62
     7
370
    18
100
AcDbSpline
210
0.0
220
0.0
230
1.0
 70
     8
 71
     3
 72
    21
 73
    17
 74
     0
 42
0.00000001
 43
0.00000001
 40
0.0
 40
0.0
 40
0.0
 40
0.0
 40
0.0442682352710814
 40
0.0852778760543862
 40
0.1230287000181926
 40
0.1575205155295403
 40
0.1887531659213895
 40
0.2167265362448903
 40
0.2414405644733707
 40
0.3785235390271654
 40
0.5018625767518322
 40
0.634532428781926
 40
0.7611478702009128
 40
0.8414458557567016
 40
0.9210541308116857
 40
0.9999999999999999
 40
0.9999999999999999
 40
0.9999999999999999
 40
0.9999999999999999
 10
111.1523597428721
 20
33.97768884395049
 30
0.0
 10
111.1533064649062
 20
33.92995274779122
 30
0.0
 10
111.1551302205582
 20
33.83799441995946
 30
0.0
 10
111.1690309256649
 20
33.70592137789482
 30
0.0
 10
111.1886901015099
 20
33.58532587516635
 30
0.0
 10
111.2129726777532
 20
33.47632532069856
 30
0.0
 10
111.2399644389123
 20
33.37887022163132
 30
0.0
 10
111.2681640468244
 20
33.29277500382548
 30
0.0
 10
111.3398687452334
 20
33.1008690454066
 30
0.0
 10
111.4845629528053
 20
32.82566979712668
 30
0.0
 10
111.7565979064492
 20
32.49503830110743
 30
0.0
 10
112.0815851730542
 20
32.23156449499467
 30
0.0
 10
112.4120761128188
 20
32.06061773246438
 30
0.0
 10
112.7096511946213
 20
31.9646701200855
 30
0.0
 10
112.9661120874565
 20
31.91416271191694
 30
0.0
 10
113.1390977045203
 20
31.90792516594242
 30
0.0
 10
113.2252291642898
 20
31.90481942253273
 30
0.0
  0
SPLINE
  5
A8
330
1F
100
AcDbEntity
  8
0
  6
HIDDEN
 62
     7
370
    18
100
AcDbSpline
210
0.0
220
0.0
230
1.0
 70
     8
 71
     3
 72
    20
 73
    16
 74
     0
 42
0.00000001
 43
0.00000001
 40
0.0
 40
0.0
 40
0.0
 40
0.0
 40
0.0394095738810567
 40
0.0789825196403678
 40
0.1187223155449059
 40
0.1586323962272849
 40
0.1987161525367658
 40
0.238976931430527
 40
0.3655853154739779
 40
0.4982670546424094
 40
0.6215991202786498
 40
0.7586939125208553
 40
0.8214055537387603
 40
0.9018456608157761
 40
0.9999999999999999
 40
0.9999999999999999
 40
0.9999999999999999
 40
0.9999999999999999
 10
66.2401889454875
 20
31.90481942253273
 30
0.0
 10
66.28316403305732
 20
31.9055915469009
 30
0.0
 10
66.36929236086601
 20
31.90713899646881
 30
0.0
 10
66.49824268917176
 20
31.91967794599383
 30
0.0
 10
66.62670312094174
 20
31.93975909704298
 30
0.0
 10
66.75415033460327
 20
31.96813449373962
 30
0.0
 10
66.88006974596364
 20
32.00459787010112
 30
0.0
 10
67.09221603745739
 20
32.08088444476751
 30
0.0
 10
67.38385365873802
 20
32.2315149896606
 30
0.0
 10
67.70880907852101
 20
32.49502799438851
 30
0.0
 10
67.98081087498078
 20
32.82568476067249
 30
0.0
 10
68.14496004722503
 20
33.13744463453353
 30
0.0
 10
68.24195622525792
 20
33.42411356730337
 30
0.0
 10
68.30001659716834
 20
33.67901472302327
 30
0.0
 10
68.30843284962155
 20
33.87175825811666
 30
0.0
 10
68.31305836690525
 20
33.97768884395049
 30
0.0
  0
SPLINE
  5
A9
330
1F
100
AcDbEntity
  8
0
  6
HIDDEN
 62
     7
370
    18
100
AcDbSpline
210
0.0
220
0.0
230
1.0
 70
     8
 71
     3
 72
    20
 73
    16
 74
     0
 42
0.00000001
 43
0.00000001
 40
0.0
 40
0.0
 40
0.0
 40
0.0
 40
0.0394095738790528
 40
0.0789825196371613
 40
0.118722315541296
 40
0.1586323962240732
 40
0.1987161525347516
 40
0.2389769314305069
 40
0.3655853154699472
 40
0.4982670546423718
 40
0.6215991202964023
 40
0.7586939125208179
 40
0.8214055537670849
 40
0.9018456608440977
 40
1.0
 40
1.0
 40
1.0
 40
1.0
 10
107.6975773738425
 20
31.90481942253273
 30
0.0
 10
107.7405524614101
 20
31.90559154690083
 30
0.0
 10
107.8266807892153
 20
31.90713899646859
 30
0.0
 10
107.9556311175172
 20
31.9196779459927
 30
0.0
 10
108.084091549286
 20
31.93975909704094
 30
0.0
 10
108.2115387629489
 20
31.96813449373716
 30
0.0
 10
108.3374581743132
 20
32.00459787009926
 30
0.0
 10
108.5496044658064
 20
32.08088444476503
 30
0.0
 10
108.8412420870893
 20
32.23151498965817
 30
0.0
 10
109.1661975068883
 20
32.49502799439727
 30
0.0
 10
109.4381993033469
 20
32.82568476068941
 30
0.0
 10
109.6023484756005
 20
33.13744463457899
 30
0.0
 10
109.6993446536307
 20
33.42411356736208
 30
0.0
 10
109.7574050255295
 20
33.67901472308457
 30
0.0
 10
109.7658212779791
 20
33.87175825814727
 30
0.0
 10
109.7704467952602
 20
33.97768884395048
 30
0.0
  0
SPLINE
  5
AA
330
1F
100
AcDbEntity
  8
0
  6
HIDDEN
 62
     7
370
    18
100
AcDbSpline
210
0.0
220
0.0
230
1.0
 70
     8
 71
     3
 72
    20
 73
    16
 74
     0
 42
0.00000001
 43
0.00000001
 40
0.0
 40
0.0
 40
0.0
 40
0.0
 40
0.0394095738770553
 40
0.0789825196339665
 40
0.1187223155377043
 40
0.1586323962208841
 40
0.1987161525327639
 40
0.2389769314305207
 40
0.3655853154659681
 40
0.4982670546424064
 40
0.6215991202786477
 40
0.7586939125208538
 40
0.8214055537387648
 40
0.9018456608157809
 40
1.0
 40
1.0
 40
1.0
 40
1.0
 10
86.968883159665
 20
31.90481942253273
 30
0.0
 10
87.01185824723044
 20
31.90559154690074
 30
0.0
 10
87.09798657503217
 20
31.90713899646838
 30
0.0
 10
87.2269369033302
 20
31.91967794599155
 30
0.0
 10
87.35539733509779
 20
31.9397590970389
 30
0.0
 10
87.48284454876216
 20
31.96813449373474
 30
0.0
 10
87.6087639601304
 20
32.00459787009739
 30
0.0
 10
87.82091025162285
 20
32.08088444476257
 30
0.0
 10
88.11254787290802
 20
32.23151498965565
 30
0.0
 10
88.43750329269301
 20
32.49502799438179
 30
0.0
 10
88.70950508915827
 20
32.82568476067248
 30
0.0
 10
88.87365426140254
 20
33.13744463453354
 30
0.0
 10
88.97065043943542
 20
33.42411356730337
 30
0.0
 10
89.02871081134585
 20
33.67901472302327
 30
0.0
 10
89.03712706379906
 20
33.87175825811666
 30
0.0
 10
89.04175258108275
 20
33.97768884395048
 30
0.0
  0
SPLINE
  5
AB
330
1F
100
AcDbEntity
  8
0
  6
HIDDEN
 62
     7
370
    18
100
AcDbSpline
210
0.0
220
0.0
230
1.0
 70
     8
 71
     3
 72
    14
 73
    10
 74
     0
 42
0.00000001
 43
0.00000001
 40
0.0
 40
0.0
 40
0.0
 40
0.0
 40
0.2253309175901002
 40
0.3463364116609981
 40
0.4731524599312489
 40
0.6047838688543388
 40
0.7388566576553997
 40
0.8718214633675987
 40
1.0
 40
1.0
 40
1.0
 40
1.0
 10
111.1523597428721
 20
33.97768884395048
 30
0.0
 10
111.1754783064427
 20
33.74468756471106
 30
0.0
 10
111.211011825036
 20
33.38656171217714
 30
0.0
 10
111.4366289076821
 20
32.92300616329103
 30
0.0
 10
111.6813667980596
 20
32.5870271389177
 30
0.0
 10
112.0035337868822
 20
32.2938637159648
 30
0.0
 10
112.3856173613954
 20
32.07166303426875
 30
0.0
 10
112.8013698434551
 20
31.93054884174414
 30
0.0
 10
113.0856796798751
 20
31.91329045763506
 30
0.0
 10
113.2252291642898
 20
31.90481942253273
 30
0.0
  0
LINE
  5
AC
330
1F
100
AcDbEntity
  8
0
  6
Continuous
 62
     7
370
    25
100
AcDbLine
 10
35.4182151365
 20
135.9383053377
 30
0.0
 11
130.5817848635
 21
135.9383053377
 31
0.0
  0
SPLINE
  5
AD
330
1F
100
AcDbEntity
  8
0
  6
Continuous
 62
     7
370
    25
100
AcDbSpline
210
0.0
220
0.0
230
1.0
 70
     8
 71
     3
 72
    18
 73
    14
 74
     0
 42
0.00000001
 43
0.00000001
 40
0.0
 40
0.0
 40
0.0
 40
0.0
 40
0.1250000000000011
 40
0.1250000000000011
 40
0.2500000000000022
 40
0.2500000000000022
 40
0.3750000000000033
 40
0.3750000000000033
 40
0.5000000000000044
 40
0.5000000000000044
 40
0.7500000000000022
 40
0.7500000000000022
 40
1.0
 40
1.0
 40
1.0
 40
1.0
 10
35.41821513650393
 20
135.938305337653
 30
0.0
 10
35.27895676319021
 20
135.938305337653
 30
0.0
 10
35.14216947444693
 20
135.95170072279
 30
0.0
 10
34.87326175744154
 20
136.0038090483341
 30
0.0
 10
34.73971952125922
 20
136.0431932044159
 30
0.0
 10
34.48600678851263
 20
136.1451449523661
 30
0.0
 10
34.36576160793798
 20
136.207331879135
 30
0.0
 10
34.13819038627613
 20
136.353691895257
 30
0.0
 10
34.03095689658243
 20
136.4382445827086
 30
0.0
 10
33.74187342807838
 20
136.7144884854532
 30
0.0
 10
33.58546824578119
 20
136.9358851239449
 30
0.0
 10
33.37166026820097
 20
137.4129137973812
 30
0.0
 10
33.31151841001842
 20
137.6733355534157
 30
0.0
 10
33.30538705097079
 20
137.9370304953684
 30
0.0
  0
SPLINE
  5
AE
330
1F
100
AcDbEntity
  8
0
  6
Continuous
 62
     7
370
    25
100
AcDbSpline
210
0.0
220
0.0
230
1.0
 70
     8
 71
     3
 72
    14
 73
    10
 74
     0
 42
0.00000001
 43
0.00000001
 40
0.0
 40
0.0
 40
0.0
 40
0.0
 40
0.2499999999999999
 40
0.2499999999999999
 40
0.4999999999999999
 40
0.4999999999999999
 40
0.7499999999999999
 40
0.7499999999999999
 40
1.0
 40
1.0
 40
1.0
 40
1.0
 10
33.30538705097033
 20
178.0629695046317
 30
0.0
 10
33.23169962447277
 20
174.8938512876266
 30
0.0
 10
33.17460798814861
 20
171.5971746381788
 30
0.0
 10
33.09794588123252
 20
164.8667484012674
 30
0.0
 10
33.07839476752244
 20
161.4335265692663
 30
0.0
 10
33.07839476752251
 20
154.5664734307338
 30
0.0
 10
33.09794588123266
 20
151.1332515987327
 30
0.0
 10
33.17460798814886
 20
144.4028253618213
 30
0.0
 10
33.23169962447315
 20
141.1061487123734
 30
0.0
 10
33.30538705097081
 20
137.9370304953684
 30
0.0
  0
SPLINE
  5
AF
330
1F
100
AcDbEntity
  8
0
  6
Continuous
 62
     7
370
    25
100
AcDbSpline
210
0.0
220
0.0
230
1.0
 70
     8
 71
     3
 72
    20
 73
    16
 74
     0
 42
0.00000001
 43
0.00000001
 40
0.0
 40
0.0
 40
0.0
 40
0.0
 40
0.1249999999999999
 40
0.1249999999999999
 40
0.2499999999999997
 40
0.2499999999999997
 40
0.3749999999999996
 40
0.3749999999999996
 40
0.4999999999999994
 40
0.4999999999999994
 40
0.6249999999999993
 40
0.6249999999999993
 40
0.7499999999999991
 40
0.7499999999999991
 40
1.0
 40
1.0
 40
1.0
 40
1.0
 10
33.3053870509708
 20
178.0629695046317
 30
0.0
 10
33.30845457833134
 20
178.1948964466016
 30
0.0
 10
33.32471324348838
 20
178.3242522123881
 30
0.0
 10
33.38224699197309
 20
178.5781034327399
 30
0.0
 10
33.42405598928111
 20
178.7037078765321
 30
0.0
 10
33.53165993764011
 20
178.9443379349005
 30
0.0
 10
33.59670067635282
 20
179.0583397307869
 30
0.0
 10
33.74891518401509
 20
179.2739815829208
 30
0.0
 10
33.83720415189364
 20
179.3765049394115
 30
0.0
 10
34.03030196418665
 20
179.5612318869611
 30
0.0
 10
34.13528300109088
 20
179.6441563925721
 30
0.0
 10
34.36246380361254
 20
179.790821440678
 30
0.0
 10
34.48522454883116
 20
179.8544342946216
 30
0.0
 10
34.86380637059221
 20
180.006880788744
 30
0.0
 10
35.13955418387247
 20
180.061694662347
 30
0.0
 10
35.41821513650393
 20
180.061694662347
 30
0.0
  0
LINE
  5
B0
330
1F
100
AcDbEntity
  8
0
  6
Continuous
 62
     7
370
    25
100
AcDbLine
 10
35.4182151365
 20
180.0616946623
 30
0.0
 11
130.5817848635
 21
180.0616946623
 31
0.0
  0
SPLINE
  5
B1
330
1F
100
AcDbEntity
  8
0
  6
Continuous
 62
     7
370
    25
100
AcDbSpline
210
0.0
220
0.0
230
1.0
 70
     8
 71
     3
 72
    18
 73
    14
 74
     0
 42
0.00000001
 43
0.00000001
 40
0.0
 40
0.0
 40
0.0
 40
0.0
 40
0.1250000000000004
 40
0.1250000000000004
 40
0.2500000000000008
 40
0.2500000000000008
 40
0.3750000000000012
 40
0.3750000000000012
 40
0.5000000000000016
 40
0.5000000000000016
 40
0.7500000000000008
 40
0.7500000000000008
 40
1.0
 40
1.0
 40
1.0
 40
1.0
 10
130.581784863496
 20
180.061694662347
 30
0.0
 10
130.7210432368097
 20
180.061694662347
 30
0.0
 10
130.857830525553
 20
180.04829927721
 30
0.0
 10
131.1267382425584
 20
179.9961909516659
 30
0.0
 10
131.2602804787407
 20
179.9568067955841
 30
0.0
 10
131.5139932114873
 20
179.854855047634
 30
0.0
 10
131.6342383920619
 20
179.792668120865
 30
0.0
 10
131.8618096137238
 20
179.646308104743
 30
0.0
 10
131.9690431034175
 20
179.5617554172914
 30
0.0
 10
132.2581265719215
 20
179.2855115145468
 30
0.0
 10
132.4145317542188
 20
179.0641148760551
 30
0.0
 10
132.628339731799
 20
178.5870862026188
 30
0.0
 10
132.6884815899815
 20
178.3266644465842
 30
0.0
 10
132.6946129490292
 20
178.0629695046316
 30
0.0
  0
SPLINE
  5
B2
330
1F
100
AcDbEntity
  8
0
  6
Continuous
 62
     7
370
    25
100
AcDbSpline
210
0.0
220
0.0
230
1.0
 70
     8
 71
     3
 72
    14
 73
    10
 74
     0
 42
0.00000001
 43
0.00000001
 40
0.0
 40
0.0
 40
0.0
 40
0.0
 40
0.2499999999999999
 40
0.2499999999999999
 40
0.4999999999999999
 40
0.4999999999999999
 40
0.7499999999999999
 40
0.7499999999999999
 40
1.0
 40
1.0
 40
1.0
 40
1.0
 10
132.6946129490291
 20
137.9370304953684
 30
0.0
 10
132.7683003755268
 20
141.1061487123734
 30
0.0
 10
132.8253920118511
 20
144.4028253618213
 30
0.0
 10
132.9020541187673
 20
151.1332515987327
 30
0.0
 10
132.9216052324774
 20
154.5664734307338
 30
0.0
 10
132.9216052324774
 20
161.4335265692662
 30
0.0
 10
132.9020541187674
 20
164.8667484012673
 30
0.0
 10
132.8253920118511
 20
171.5971746381787
 30
0.0
 10
132.7683003755268
 20
174.8938512876266
 30
0.0
 10
132.6946129490292
 20
178.0629695046316
 30
0.0
  0
SPLINE
  5
B3
330
1F
100
AcDbEntity
  8
0
  6
Continuous
 62
     7
370
    25
100
AcDbSpline
210
0.0
220
0.0
230
1.0
 70
     8
 71
     3
 72
    20
 73
    16
 74
     0
 42
0.00000001
 43
0.00000001
 40
0.0
 40
0.0
 40
0.0
 40
0.0
 40
0.1250000000000006
 40
0.1250000000000006
 40
0.2500000000000013
 40
0.2500000000000013
 40
0.3750000000000019
 40
0.3750000000000019
 40
0.5000000000000026
 40
0.5000000000000026
 40
0.6250000000000032
 40
0.6250000000000032
 40
0.7500000000000038
 40
0.7500000000000038
 40
1.0
 40
1.0
 40
1.0
 40
1.0
 10
132.6946129490292
 20
137.9370304953684
 30
0.0
 10
132.6915454216686
 20
137.8051035533985
 30
0.0
 10
132.6752867565116
 20
137.675747787612
 30
0.0
 10
132.6177530080269
 20
137.4218965672602
 30
0.0
 10
132.5759440107188
 20
137.296292123468
 30
0.0
 10
132.4683400623598
 20
137.0556620650995
 30
0.0
 10
132.4032993236471
 20
136.9416602692131
 30
0.0
 10
132.2510848159849
 20
136.7260184170792
 30
0.0
 10
132.1627958481063
 20
136.6234950605886
 30
0.0
 10
131.9696980358133
 20
136.4387681130389
 30
0.0
 10
131.8647169989091
 20
136.3558436074279
 30
0.0
 10
131.6375361963874
 20
136.209178559322
 30
0.0
 10
131.5147754511688
 20
136.1455657053785
 30
0.0
 10
131.1361936294078
 20
135.993119211256
 30
0.0
 10
130.8604458161275
 20
135.938305337653
 30
0.0
 10
130.581784863496
 20
135.938305337653
 30
0.0
  0
LINE
  5
B4
330
1F
100
AcDbEntity
  8
0
  6
Continuous
 62
     7
370
    25
100
AcDbLine
 10
113.2252291643
 20
137.6147715343
 30
0.0
 11
128.8917981545
 21
137.6147715343
 31
0.0
  0
SPLINE
  5
B5
330
1F
100
AcDbEntity
  8
0
  6
Continuous
 62
     7
370
    25
100
AcDbSpline
210
0.0
220
0.0
230
1.0
 70
     8
 71
     3
 72
    20
 73
    16
 74
     0
 42
0.00000001
 43
0.00000001
 40
0.0
 40
0.0
 40
0.0
 40
0.0
 40
0.1250000000000008
 40
0.1250000000000008
 40
0.2500000000000016
 40
0.2500000000000016
 40
0.3750000000000023
 40
0.3750000000000023
 40
0.5000000000000031
 40
0.5000000000000031
 40
0.6250000000000039
 40
0.6250000000000039
 40
0.7500000000000047
 40
0.7500000000000047
 40
1.0
 40
1.0
 40
1.0
 40
1.0
 10
131.0004163736134
 20
139.6195107868565
 30
0.0
 10
130.9976169784654
 20
139.4869041980839
 30
0.0
 10
130.9815641988699
 20
139.3568650508244
 30
0.0
 10
130.924300562551
 20
139.1016457478096
 30
0.0
 10
130.8825271434546
 20
138.975300696867
 30
0.0
 10
130.7749981292142
 20
138.7335953429808
 30
0.0
 10
130.7099448821126
 20
138.6191032147181
 30
0.0
 10
130.557604261891
 20
138.4025813779847
 30
0.0
 10
130.469242410973
 20
138.2997385891807
 30
0.0
 10
130.276242458234
 20
138.1147251854072
 30
0.0
 10
130.1712989270335
 20
138.0316930830651
 30
0.0
 10
129.944168164339
 20
137.884895674096
 30
0.0
 10
129.8217631636099
 20
137.82144869007
 30
0.0
 10
129.4442352292275
 20
137.6693484452891
 30
0.0
 10
129.1693148901079
 20
137.6147715342987
 30
0.0
 10
128.8917981544699
 20
137.6147715342987
 30
0.0
  0
SPLINE
  5
B6
330
1F
100
AcDbEntity
  8
0
  6
Continuous
 62
     7
370
    25
100
AcDbSpline
210
0.0
220
0.0
230
1.0
 70
     8
 71
     3
 72
    14
 73
    10
 74
     0
 42
0.00000001
 43
0.00000001
 40
0.0
 40
0.0
 40
0.0
 40
0.0
 40
0.2500000000000001
 40
0.2500000000000001
 40
0.5000000000000001
 40
0.5000000000000001
 40
0.7500000000000001
 40
0.7500000000000001
 40
1.0
 40
1.0
 40
1.0
 40
1.0
 10
131.0004163736134
 20
139.6195107868565
 30
0.0
 10
131.0622631539649
 20
142.5491759950489
 30
0.0
 10
131.1099264821991
 20
145.5769364307074
 30
0.0
 10
131.1738492948753
 20
151.7366284846378
 30
0.0
 10
131.1900974832437
 20
154.8682178318713
 30
0.0
 10
131.1900974832436
 20
161.1317821681286
 30
0.0
 10
131.1738492948752
 20
164.2633715153622
 30
0.0
 10
131.1099264821991
 20
170.4230635692926
 30
0.0
 10
131.0622631539649
 20
173.4508240049511
 30
0.0
 10
131.0004163736134
 20
176.3804892131435
 30
0.0
  0
SPLINE
  5
B7
330
1F
100
AcDbEntity
  8
0
  6
Continuous
 62
     7
370
    25
100
AcDbSpline
210
0.0
220
0.0
230
1.0
 70
     8
 71
     3
 72
    18
 73
    14
 74
     0
 42
0.00000001
 43
0.00000001
 40
0.0
 40
0.0
 40
0.0
 40
0.0
 40
0.1250000000000004
 40
0.1250000000000004
 40
0.2500000000000007
 40
0.2500000000000007
 40
0.3750000000000011
 40
0.3750000000000011
 40
0.5000000000000014
 40
0.5000000000000014
 40
0.7500000000000007
 40
0.7500000000000007
 40
1.0
 40
1.0
 40
1.0
 40
1.0
 10
128.8917981544699
 20
178.3852284657013
 30
0.0
 10
129.0305058424005
 20
178.3852284657013
 30
0.0
 10
129.1667848551492
 20
178.371896863848
 30
0.0
 10
129.4347459005471
 20
178.319982442204
 30
0.0
 10
129.5678361468585
 20
178.280743106642
 30
0.0
 10
129.8209992461115
 20
178.1789692883358
 30
0.0
 10
129.9410239241657
 20
178.1168532698133
 30
0.0
 10
130.1682345110132
 20
177.9705630648497
 30
0.0
 10
130.2754964352215
 20
177.8858831859797
 30
0.0
 10
130.564626619372
 20
177.6090364273789
 30
0.0
 10
130.721186375295
 20
177.3868052770206
 30
0.0
 10
130.9349254988506
 20
176.9074720587872
 30
0.0
 10
130.9948201751233
 20
176.6455796175462
 30
0.0
 10
131.0004163736134
 20
176.3804892131435
 30
0.0
  0
LINE
  5
B8
330
1F
100
AcDbEntity
  8
0
  6
Continuous
 62
     7
370
    25
100
AcDbLine
 10
128.8917981545
 20
178.3852284657
 30
0.0
 11
113.2252291643
 21
178.3852284657
 31
0.0
  0
SPLINE
  5
B9
330
1F
100
AcDbEntity
  8
0
  6
Continuous
 62
     7
370
    25
100
AcDbSpline
210
0.0
220
0.0
230
1.0
 70
     8
 71
     3
 72
    20
 73
    16
 74
     0
 42
0.00000001
 43
0.00000001
 40
0.0
 40
0.0
 40
0.0
 40
0.0
 40
0.1249999999999999
 40
0.1249999999999999
 40
0.2499999999999997
 40
0.2499999999999997
 40
0.3749999999999996
 40
0.3749999999999996
 40
0.4999999999999994
 40
0.4999999999999994
 40
0.6249999999999993
 40
0.6249999999999993
 40
0.7499999999999991
 40
0.7499999999999991
 40
1.0
 40
1.0
 40
1.0
 40
1.0
 10
111.1523597428721
 20
176.3668045861314
 30
0.0
 10
111.1523597428721
 20
176.4992101430336
 30
0.0
 10
111.1655628506288
 20
176.6293336110398
 30
0.0
 10
111.2172469844557
 20
176.8852250744128
 30
0.0
 10
111.2562817535545
 20
177.0122030746339
 30
0.0
 10
111.3586960384595
 20
177.2553741843584
 30
0.0
 10
111.4214104088705
 20
177.3707646124909
 30
0.0
 10
111.5696719784666
 20
177.5893188711369
 30
0.0
 10
111.6562875745451
 20
177.6932891079861
 30
0.0
 10
111.8463420279866
 20
177.880298058774
 30
0.0
 10
111.9501346261695
 20
177.9642920958071
 30
0.0
 10
112.1756979486286
 20
178.112858506886
 30
0.0
 10
112.2973405656381
 20
178.1768976976565
 30
0.0
 10
112.6733985848676
 20
178.3304286308863
 30
0.0
 10
112.9481704954419
 20
178.3852284657013
 30
0.0
 10
113.2252291642898
 20
178.3852284657013
 30
0.0
  0
LINE
  5
BA
330
1F
100
AcDbEntity
  8
0
  6
Continuous
 62
     7
370
    25
100
AcDbLine
 10
111.1523597429
 20
139.6331954139
 30
0.0
 11
111.1523597429
 21
176.3668045861
 31
0.0
  0
SPLINE
  5
BB
330
1F
100
AcDbEntity
  8
0
  6
Continuous
 62
     7
370
    25
100
AcDbSpline
210
0.0
220
0.0
230
1.0
 70
     8
 71
     3
 72
    20
 73
    16
 74
     0
 42
0.00000001
 43
0.00000001
 40
0.0
 40
0.0
 40
0.0
 40
0.0
 40
0.1250000000000002
 40
0.1250000000000002
 40
0.2500000000000003
 40
0.2500000000000003
 40
0.3750000000000005
 40
0.3750000000000005
 40
0.5000000000000007
 40
0.5000000000000007
 40
0.7500000000000018
 40
0.7500000000000018
 40
0.8750000000000009
 40
0.8750000000000009
 40
1.0
 40
1.0
 40
1.0
 40
1.0
 10
113.2252291642898
 20
137.6147715342987
 30
0.0
 10
113.0867593236884
 20
137.6147715342987
 30
0.0
 10
112.950708328348
 20
137.6281215211805
 30
0.0
 10
112.6832293048209
 20
137.6803538675423
 30
0.0
 10
112.5503634761132
 20
137.7199255766643
 30
0.0
 10
112.2982743942703
 20
137.8225992277683
 30
0.0
 10
112.1788891984445
 20
137.8853374326241
 30
0.0
 10
111.9532491610296
 20
138.0333668979001
 30
0.0
 10
111.8472222745585
 20
138.1189629203808
 30
0.0
 10
111.562459150205
 20
138.3987835064216
 30
0.0
 10
111.4100639599161
 20
138.6232593825763
 30
0.0
 10
111.2572293580314
 20
138.985249533518
 30
0.0
 10
111.2179262516846
 20
139.1119847114711
 30
0.0
 10
111.1655538532734
 20
139.370145354444
 30
0.0
 10
111.1523597428721
 20
139.5008447119674
 30
0.0
 10
111.1523597428721
 20
139.6331954138686
 30
0.0
  0
LINE
  5
BC
330
1F
100
AcDbEntity
  8
0
  6
Continuous
 62
     7
370
    25
100
AcDbLine
 10
92.4965349501
 20
137.6147715343
 30
0.0
 11
107.6975773738
 21
137.6147715343
 31
0.0
  0
SPLINE
  5
BD
330
1F
100
AcDbEntity
  8
0
  6
Continuous
 62
     7
370
    25
100
AcDbSpline
210
0.0
220
0.0
230
1.0
 70
     8
 71
     3
 72
    20
 73
    16
 74
     0
 42
0.00000001
 43
0.00000001
 40
0.0
 40
0.0
 40
0.0
 40
0.0
 40
0.1249999999999996
 40
0.1249999999999996
 40
0.2499999999999993
 40
0.2499999999999993
 40
0.3749999999999989
 40
0.3749999999999989
 40
0.4999999999999986
 40
0.4999999999999986
 40
0.6249999999999982
 40
0.6249999999999982
 40
0.7499999999999978
 40
0.7499999999999978
 40
1.0
 40
1.0
 40
1.0
 40
1.0
 10
109.7704467952602
 20
139.6331954138686
 30
0.0
 10
109.7704467952602
 20
139.5007898569663
 30
0.0
 10
109.7572436875035
 20
139.3706663889602
 30
0.0
 10
109.7055595536766
 20
139.1147749255872
 30
0.0
 10
109.6665247845777
 20
138.9877969253662
 30
0.0
 10
109.5641104996728
 20
138.7446258156416
 30
0.0
 10
109.5013961292618
 20
138.6292353875091
 30
0.0
 10
109.3531345596657
 20
138.4106811288631
 30
0.0
 10
109.2665189635872
 20
138.3067108920139
 30
0.0
 10
109.0764645101457
 20
138.119701941226
 30
0.0
 10
108.9726719119628
 20
138.0357079041929
 30
0.0
 10
108.7471085895037
 20
137.887141493114
 30
0.0
 10
108.6254659724943
 20
137.8231023023435
 30
0.0
 10
108.2494079532647
 20
137.6695713691137
 30
0.0
 10
107.9746360426904
 20
137.6147715342987
 30
0.0
 10
107.6975773738425
 20
137.6147715342987
 30
0.0
  0
LINE
  5
BE
330
1F
100
AcDbEntity
  8
0
  6
Continuous
 62
     7
370
    25
100
AcDbLine
 10
109.7704467953
 20
139.6331954139
 30
0.0
 11
109.7704467953
 21
176.3668045861
 31
0.0
  0
SPLINE
  5
BF
330
1F
100
AcDbEntity
  8
0
  6
Continuous
 62
     7
370
    25
100
AcDbSpline
210
0.0
220
0.0
230
1.0
 70
     8
 71
     3
 72
    20
 73
    16
 74
     0
 42
0.00000001
 43
0.00000001
 40
0.0
 40
0.0
 40
0.0
 40
0.0
 40
0.125
 40
0.125
 40
0.25
 40
0.25
 40
0.375
 40
0.375
 40
0.5
 40
0.5
 40
0.75
 40
0.75
 40
0.875
 40
0.875
 40
1.0
 40
1.0
 40
1.0
 40
1.0
 10
107.6975773738425
 20
178.3852284657014
 30
0.0
 10
107.8360472144438
 20
178.3852284657014
 30
0.0
 10
107.9720982097843
 20
178.3718784788195
 30
0.0
 10
108.2395772333114
 20
178.3196461324577
 30
0.0
 10
108.3724430620191
 20
178.2800744233357
 30
0.0
 10
108.624532143862
 20
178.1774007722317
 30
0.0
 10
108.7439173396879
 20
178.1146625673759
 30
0.0
 10
108.9695573771027
 20
177.9666331020999
 30
0.0
 10
109.0755842635738
 20
177.8810370796193
 30
0.0
 10
109.3603473879273
 20
177.6012164935784
 30
0.0
 10
109.5127425782162
 20
177.3767406174237
 30
0.0
 10
109.6655771801009
 20
177.014750466482
 30
0.0
 10
109.7048802864477
 20
176.8880152885289
 30
0.0
 10
109.7572526848589
 20
176.629854645556
 30
0.0
 10
109.7704467952602
 20
176.4991552880326
 30
0.0
 10
109.7704467952602
 20
176.3668045861314
 30
0.0
  0
LINE
  5
C0
330
1F
100
AcDbEntity
  8
0
  6
Continuous
 62
     7
370
    25
100
AcDbLine
 10
107.6975773738
 20
178.3852284657
 30
0.0
 11
92.4965349501
 21
178.3852284657
 31
0.0
  0
SPLINE
  5
C1
330
1F
100
AcDbEntity
  8
0
  6
Continuous
 62
     7
370
    25
100
AcDbSpline
210
0.0
220
0.0
230
1.0
 70
     8
 71
     3
 72
    20
 73
    16
 74
     0
 42
0.00000001
 43
0.00000001
 40
0.0
 40
0.0
 40
0.0
 40
0.0
 40
0.1250000000000002
 40
0.1250000000000002
 40
0.2500000000000005
 40
0.2500000000000005
 40
0.3750000000000008
 40
0.3750000000000008
 40
0.500000000000001
 40
0.500000000000001
 40
0.6250000000000012
 40
0.6250000000000012
 40
0.7500000000000016
 40
0.7500000000000016
 40
1.0
 40
1.0
 40
1.0
 40
1.0
 10
90.42366552869458
 20
176.3668045861314
 30
0.0
 10
90.42366552869458
 20
176.4992101430336
 30
0.0
 10
90.4368686364513
 20
176.6293336110398
 30
0.0
 10
90.48855277027825
 20
176.8852250744128
 30
0.0
 10
90.52758753937708
 20
177.0122030746339
 30
0.0
 10
90.63000182428206
 20
177.2553741843584
 30
0.0
 10
90.69271619469302
 20
177.3707646124909
 30
0.0
 10
90.84097776428911
 20
177.5893188711369
 30
0.0
 10
90.92759336036757
 20
177.6932891079861
 30
0.0
 10
91.11764781380917
 20
177.8802980587739
 30
0.0
 10
91.221440411992
 20
177.9642920958071
 30
0.0
 10
91.44700373445116
 20
178.112858506886
 30
0.0
 10
91.56864635146057
 20
178.1768976976565
 30
0.0
 10
91.94470437069008
 20
178.3304286308863
 30
0.0
 10
92.21947628126443
 20
178.3852284657013
 30
0.0
 10
92.49653495011233
 20
178.3852284657013
 30
0.0
  0
LINE
  5
C2
330
1F
100
AcDbEntity
  8
0
  6
Continuous
 62
     7
370
    25
100
AcDbLine
 10
90.4236655287
 20
139.6331954139
 30
0.0
 11
90.4236655287
 21
176.3668045861
 31
0.0
  0
SPLINE
  5
C3
330
1F
100
AcDbEntity
  8
0
  6
Continuous
 62
     7
370
    25
100
AcDbSpline
210
0.0
220
0.0
230
1.0
 70
     8
 71
     3
 72
    20
 73
    16
 74
     0
 42
0.00000001
 43
0.00000001
 40
0.0
 40
0.0
 40
0.0
 40
0.0
 40
0.1250000000000007
 40
0.1250000000000007
 40
0.2500000000000014
 40
0.2500000000000014
 40
0.3750000000000022
 40
0.3750000000000022
 40
0.5000000000000029
 40
0.5000000000000029
 40
0.7500000000000029
 40
0.7500000000000029
 40
0.8750000000000014
 40
0.8750000000000014
 40
1.0
 40
1.0
 40
1.0
 40
1.0
 10
92.49653495011233
 20
137.6147715342987
 30
0.0
 10
92.35806510951097
 20
137.6147715342987
 30
0.0
 10
92.22201411417053
 20
137.6281215211805
 30
0.0
 10
91.95453509064343
 20
137.6803538675423
 30
0.0
 10
91.82166926193577
 20
137.7199255766643
 30
0.0
 10
91.56958018009281
 20
137.8225992277683
 30
0.0
 10
91.45019498426696
 20
137.8853374326241
 30
0.0
 10
91.22455494685217
 20
138.0333668979001
 30
0.0
 10
91.11852806038098
 20
138.1189629203808
 30
0.0
 10
90.83376493602749
 20
138.3987835064216
 30
0.0
 10
90.68136974573858
 20
138.6232593825763
 30
0.0
 10
90.5285351438539
 20
138.985249533518
 30
0.0
 10
90.4892320375071
 20
139.1119847114711
 30
0.0
 10
90.4368596390959
 20
139.370145354444
 30
0.0
 10
90.42366552869458
 20
139.5008447119674
 30
0.0
 10
90.42366552869458
 20
139.6331954138686
 30
0.0
  0
LINE
  5
C4
330
1F
100
AcDbEntity
  8
0
  6
Continuous
 62
     7
370
    25
100
AcDbLine
 10
71.7678407359
 20
137.6147715343
 30
0.0
 11
86.9688831597
 21
137.6147715343
 31
0.0
  0
SPLINE
  5
C5
330
1F
100
AcDbEntity
  8
0
  6
Continuous
 62
     7
370
    25
100
AcDbSpline
210
0.0
220
0.0
230
1.0
 70
     8
 71
     3
 72
    20
 73
    16
 74
     0
 42
0.00000001
 43
0.00000001
 40
0.0
 40
0.0
 40
0.0
 40
0.0
 40
0.125
 40
0.125
 40
0.25
 40
0.25
 40
0.375
 40
0.375
 40
0.5
 40
0.5
 40
0.625
 40
0.625
 40
0.75
 40
0.75
 40
1.0
 40
1.0
 40
1.0
 40
1.0
 10
89.04175258108275
 20
139.6331954138686
 30
0.0
 10
89.04175258108275
 20
139.5007898569663
 30
0.0
 10
89.02854947332605
 20
139.3706663889602
 30
0.0
 10
88.9768653394991
 20
139.1147749255872
 30
0.0
 10
88.93783057040027
 20
138.9877969253662
 30
0.0
 10
88.83541628549528
 20
138.7446258156416
 30
0.0
 10
88.77270191508433
 20
138.6292353875091
 30
0.0
 10
88.62444034548822
 20
138.4106811288631
 30
0.0
 10
88.53782474940976
 20
138.3067108920139
 30
0.0
 10
88.34777029596817
 20
138.119701941226
 30
0.0
 10
88.24397769778533
 20
138.0357079041929
 30
0.0
 10
88.01841437532619
 20
137.887141493114
 30
0.0
 10
87.89677175831677
 20
137.8231023023435
 30
0.0
 10
87.52071373908727
 20
137.6695713691137
 30
0.0
 10
87.2459418285129
 20
137.6147715342987
 30
0.0
 10
86.968883159665
 20
137.6147715342987
 30
0.0
  0
LINE
  5
C6
330
1F
100
AcDbEntity
  8
0
  6
Continuous
 62
     7
370
    25
100
AcDbLine
 10
89.0417525811
 20
139.6331954139
 30
0.0
 11
89.0417525811
 21
176.3668045861
 31
0.0
  0
SPLINE
  5
C7
330
1F
100
AcDbEntity
  8
0
  6
Continuous
 62
     7
370
    25
100
AcDbSpline
210
0.0
220
0.0
230
1.0
 70
     8
 71
     3
 72
    20
 73
    16
 74
     0
 42
0.00000001
 43
0.00000001
 40
0.0
 40
0.0
 40
0.0
 40
0.0
 40
0.125
 40
0.125
 40
0.25
 40
0.25
 40
0.375
 40
0.375
 40
0.5
 40
0.5
 40
0.75
 40
0.75
 40
0.875
 40
0.875
 40
1.0
 40
1.0
 40
1.0
 40
1.0
 10
86.968883159665
 20
178.3852284657014
 30
0.0
 10
87.10735300026636
 20
178.3852284657014
 30
0.0
 10
87.24340399560678
 20
178.3718784788195
 30
0.0
 10
87.5108830191339
 20
178.3196461324577
 30
0.0
 10
87.64374884784156
 20
178.2800744233357
 30
0.0
 10
87.89583792968455
 20
178.1774007722317
 30
0.0
 10
88.01522312551039
 20
178.1146625673759
 30
0.0
 10
88.2408631629252
 20
177.9666331020999
 30
0.0
 10
88.34689004939636
 20
177.8810370796193
 30
0.0
 10
88.63165317374985
 20
177.6012164935784
 30
0.0
 10
88.78404836403877
 20
177.3767406174237
 30
0.0
 10
88.93688296592344
 20
177.014750466482
 30
0.0
 10
88.97618607227024
 20
176.8880152885289
 30
0.0
 10
89.02855847068145
 20
176.629854645556
 30
0.0
 10
89.04175258108275
 20
176.4991552880326
 30
0.0
 10
89.04175258108275
 20
176.3668045861314
 30
0.0
  0
LINE
  5
C8
330
1F
100
AcDbEntity
  8
0
  6
Continuous
 62
     7
370
    25
100
AcDbLine
 10
86.9688831597
 20
178.3852284657
 30
0.0
 11
71.7678407359
 21
178.3852284657
 31
0.0
  0
SPLINE
  5
C9
330
1F
100
AcDbEntity
  8
0
  6
Continuous
 62
     7
370
    25
100
AcDbSpline
210
0.0
220
0.0
230
1.0
 70
     8
 71
     3
 72
    20
 73
    16
 74
     0
 42
0.00000001
 43
0.00000001
 40
0.0
 40
0.0
 40
0.0
 40
0.0
 40
0.1249999999999999
 40
0.1249999999999999
 40
0.2499999999999997
 40
0.2499999999999997
 40
0.3749999999999996
 40
0.3749999999999996
 40
0.4999999999999994
 40
0.4999999999999994
 40
0.6249999999999993
 40
0.6249999999999993
 40
0.7499999999999991
 40
0.7499999999999991
 40
1.0
 40
1.0
 40
1.0
 40
1.0
 10
69.69497131451709
 20
176.3668045861314
 30
0.0
 10
69.69497131451708
 20
176.4992101430336
 30
0.0
 10
69.7081744222738
 20
176.6293336110398
 30
0.0
 10
69.75985855610074
 20
176.8852250744128
 30
0.0
 10
69.79889332519957
 20
177.0122030746339
 30
0.0
 10
69.90130761010457
 20
177.2553741843584
 30
0.0
 10
69.96402198051553
 20
177.3707646124909
 30
0.0
 10
70.11228355011161
 20
177.5893188711369
 30
0.0
 10
70.19889914619007
 20
177.6932891079861
 30
0.0
 10
70.38895359963165
 20
177.880298058774
 30
0.0
 10
70.4927461978145
 20
177.9642920958071
 30
0.0
 10
70.71830952027365
 20
178.112858506886
 30
0.0
 10
70.83995213728308
 20
178.1768976976565
 30
0.0
 10
71.21601015651258
 20
178.3304286308863
 30
0.0
 10
71.49078206708693
 20
178.3852284657013
 30
0.0
 10
71.76784073593483
 20
178.3852284657013
 30
0.0
  0
LINE
  5
CA
330
1F
100
AcDbEntity
  8
0
  6
Continuous
 62
     7
370
    25
100
AcDbLine
 10
69.6949713145
 20
139.6331954139
 30
0.0
 11
69.6949713145
 21
176.3668045861
 31
0.0
  0
SPLINE
  5
CB
330
1F
100
AcDbEntity
  8
0
  6
Continuous
 62
     7
370
    25
100
AcDbSpline
210
0.0
220
0.0
230
1.0
 70
     8
 71
     3
 72
    20
 73
    16
 74
     0
 42
0.00000001
 43
0.00000001
 40
0.0
 40
0.0
 40
0.0
 40
0.0
 40
0.1250000000000007
 40
0.1250000000000007
 40
0.2500000000000014
 40
0.2500000000000014
 40
0.3750000000000022
 40
0.3750000000000022
 40
0.5000000000000029
 40
0.5000000000000029
 40
0.7500000000000029
 40
0.7500000000000029
 40
0.8750000000000014
 40
0.8750000000000014
 40
1.0
 40
1.0
 40
1.0
 40
1.0
 10
71.76784073593484
 20
137.6147715342987
 30
0.0
 10
71.62937089533347
 20
137.6147715342987
 30
0.0
 10
71.49331989999305
 20
137.6281215211805
 30
0.0
 10
71.22584087646592
 20
137.6803538675423
 30
0.0
 10
71.09297504775826
 20
137.7199255766643
 30
0.0
 10
70.8408859659153
 20
137.8225992277683
 30
0.0
 10
70.72150077008946
 20
137.8853374326241
 30
0.0
 10
70.49586073267466
 20
138.0333668979001
 30
0.0
 10
70.38983384620349
 20
138.1189629203808
 30
0.0
 10
70.10507072184998
 20
138.3987835064216
 30
0.0
 10
69.9526755315611
 20
138.6232593825763
 30
0.0
 10
69.79984092967639
 20
138.985249533518
 30
0.0
 10
69.7605378233296
 20
139.1119847114711
 30
0.0
 10
69.70816542491839
 20
139.370145354444
 30
0.0
 10
69.69497131451709
 20
139.5008447119674
 30
0.0
 10
69.69497131451709
 20
139.6331954138686
 30
0.0
  0
SPLINE
  5
CC
330
1F
100
AcDbEntity
  8
0
  6
Continuous
 62
     7
370
    25
100
AcDbSpline
210
0.0
220
0.0
230
1.0
 70
     8
 71
     3
 72
    20
 73
    16
 74
     0
 42
0.00000001
 43
0.00000001
 40
0.0
 40
0.0
 40
0.0
 40
0.0
 40
0.1250000000000014
 40
0.1250000000000014
 40
0.2500000000000028
 40
0.2500000000000028
 40
0.3750000000000042
 40
0.3750000000000042
 40
0.5000000000000042
 40
0.5000000000000042
 40
0.7500000000000022
 40
0.7500000000000022
 40
0.8750000000000011
 40
0.8750000000000011
 40
1.0
 40
1.0
 40
1.0
 40
1.0
 10
66.2401889454875
 20
178.3852284657014
 30
0.0
 10
66.37865878608885
 20
178.3852284657014
 30
0.0
 10
66.51470978142929
 20
178.3718784788195
 30
0.0
 10
66.7821888049564
 20
178.3196461324577
 30
0.0
 10
66.91505463366407
 20
178.2800744233357
 30
0.0
 10
67.16714371550702
 20
178.1774007722317
 30
0.0
 10
67.28652891133288
 20
178.1146625673759
 30
0.0
 10
67.51216894874767
 20
177.9666331020999
 30
0.0
 10
67.61819583521886
 20
177.8810370796193
 30
0.0
 10
67.90295895957235
 20
177.6012164935784
 30
0.0
 10
68.05535414986126
 20
177.3767406174237
 30
0.0
 10
68.20818875174595
 20
177.014750466482
 30
0.0
 10
68.24749185809274
 20
176.8880152885289
 30
0.0
 10
68.29986425650395
 20
176.629854645556
 30
0.0
 10
68.31305836690525
 20
176.4991552880326
 30
0.0
 10
68.31305836690525
 20
176.3668045861314
 30
0.0
  0
LINE
  5
CD
330
1F
100
AcDbEntity
  8
0
  6
Continuous
 62
     7
370
    25
100
AcDbLine
 10
66.2401889455
 20
178.3852284657
 30
0.0
 11
37.1082018455
 21
178.3852284657
 31
0.0
  0
SPLINE
  5
CE
330
1F
100
AcDbEntity
  8
0
  6
Continuous
 62
     7
370
    25
100
AcDbSpline
210
0.0
220
0.0
230
1.0
 70
     8
 71
     3
 72
    20
 73
    16
 74
     0
 42
0.00000001
 43
0.00000001
 40
0.0
 40
0.0
 40
0.0
 40
0.0
 40
0.1250000000000008
 40
0.1250000000000008
 40
0.2500000000000016
 40
0.2500000000000016
 40
0.3750000000000023
 40
0.3750000000000023
 40
0.5000000000000031
 40
0.5000000000000031
 40
0.6250000000000039
 40
0.6250000000000039
 40
0.7500000000000047
 40
0.7500000000000047
 40
1.0
 40
1.0
 40
1.0
 40
1.0
 10
34.99958362638657
 20
176.3804892131435
 30
0.0
 10
35.00238302153452
 20
176.5130958019161
 30
0.0
 10
35.01843580112999
 20
176.6431349491756
 30
0.0
 10
35.0756994374489
 20
176.8983542521904
 30
0.0
 10
35.11747285654535
 20
177.024699303133
 30
0.0
 10
35.22500187078575
 20
177.2664046570192
 30
0.0
 10
35.29005511788738
 20
177.380896785282
 30
0.0
 10
35.442395738109
 20
177.5974186220153
 30
0.0
 10
35.53075758902693
 20
177.7002614108193
 30
0.0
 10
35.72375754176594
 20
177.8852748145929
 30
0.0
 10
35.82870107296644
 20
177.9683069169349
 30
0.0
 10
36.05583183566096
 20
178.115104325904
 30
0.0
 10
36.17823683639001
 20
178.17855130993
 30
0.0
 10
36.55576477077243
 20
178.3306515547109
 30
0.0
 10
36.83068510989201
 20
178.3852284657013
 30
0.0
 10
37.10820184553004
 20
178.3852284657013
 30
0.0
  0
SPLINE
  5
CF
330
1F
100
AcDbEntity
  8
0
  6
Continuous
 62
     7
370
    25
100
AcDbSpline
210
0.0
220
0.0
230
1.0
 70
     8
 71
     3
 72
    14
 73
    10
 74
     0
 42
0.00000001
 43
0.00000001
 40
0.0
 40
0.0
 40
0.0
 40
0.0
 40
0.25
 40
0.25
 40
0.5
 40
0.5
 40
0.75
 40
0.75
 40
1.0
 40
1.0
 40
1.0
 40
1.0
 10
34.99958362638662
 20
176.3804892131435
 30
0.0
 10
34.93773684603512
 20
173.4508240049511
 30
0.0
 10
34.89007351780087
 20
170.4230635692926
 30
0.0
 10
34.82615070512476
 20
164.2633715153622
 30
0.0
 10
34.80990251675629
 20
161.1317821681287
 30
0.0
 10
34.8099025167563
 20
154.8682178318713
 30
0.0
 10
34.82615070512474
 20
151.7366284846378
 30
0.0
 10
34.89007351780086
 20
145.5769364307074
 30
0.0
 10
34.93773684603512
 20
142.5491759950489
 30
0.0
 10
34.99958362638662
 20
139.6195107868565
 30
0.0
  0
SPLINE
  5
D0
330
1F
100
AcDbEntity
  8
0
  6
Continuous
 62
     7
370
    25
100
AcDbSpline
210
0.0
220
0.0
230
1.0
 70
     8
 71
     3
 72
    18
 73
    14
 74
     0
 42
0.00000001
 43
0.00000001
 40
0.0
 40
0.0
 40
0.0
 40
0.0
 40
0.1249999999999995
 40
0.1249999999999995
 40
0.2499999999999989
 40
0.2499999999999989
 40
0.3749999999999984
 40
0.3749999999999984
 40
0.4999999999999979
 40
0.4999999999999979
 40
0.7499999999999989
 40
0.7499999999999989
 40
1.0
 40
1.0
 40
1.0
 40
1.0
 10
37.10820184553005
 20
137.6147715342987
 30
0.0
 10
36.96949415759944
 20
137.6147715342987
 30
0.0
 10
36.83321514485078
 20
137.628103136152
 30
0.0
 10
36.5652540994529
 20
137.680017557796
 30
0.0
 10
36.43216385314143
 20
137.7192568933579
 30
0.0
 10
36.17900075388843
 20
137.8210307116642
 30
0.0
 10
36.0589760758342
 20
137.8831467301867
 30
0.0
 10
35.83176548898675
 20
138.0294369351503
 30
0.0
 10
35.72450356477842
 20
138.1141168140203
 30
0.0
 10
35.43537338062791
 20
138.3909635726211
 30
0.0
 10
35.27881362470493
 20
138.6131947229794
 30
0.0
 10
35.06507450114938
 20
139.0925279412128
 30
0.0
 10
35.00517982487658
 20
139.3544203824538
 30
0.0
 10
34.99958362638657
 20
139.6195107868565
 30
0.0
  0
LINE
  5
D1
330
1F
100
AcDbEntity
  8
0
  6
Continuous
 62
     7
370
    25
100
AcDbLine
 10
37.1082018455
 20
137.6147715343
 30
0.0
 11
66.2401889455
 21
137.6147715343
 31
0.0
  0
SPLINE
  5
D2
330
1F
100
AcDbEntity
  8
0
  6
Continuous
 62
     7
370
    25
100
AcDbSpline
210
0.0
220
0.0
230
1.0
 70
     8
 71
     3
 72
    20
 73
    16
 74
     0
 42
0.00000001
 43
0.00000001
 40
0.0
 40
0.0
 40
0.0
 40
0.0
 40
0.1249999999999999
 40
0.1249999999999999
 40
0.2499999999999998
 40
0.2499999999999998
 40
0.3749999999999997
 40
0.3749999999999997
 40
0.4999999999999996
 40
0.4999999999999996
 40
0.6249999999999994
 40
0.6249999999999994
 40
0.7500000000000007
 40
0.7500000000000007
 40
1.0
 40
1.0
 40
1.0
 40
1.0
 10
68.31305836690525
 20
139.6331954138686
 30
0.0
 10
68.31305836690525
 20
139.5007898569663
 30
0.0
 10
68.29985525914854
 20
139.3706663889602
 30
0.0
 10
68.24817112532159
 20
139.1147749255872
 30
0.0
 10
68.20913635622276
 20
138.9877969253662
 30
0.0
 10
68.10672207131778
 20
138.7446258156416
 30
0.0
 10
68.0440077009068
 20
138.6292353875091
 30
0.0
 10
67.89574613131072
 20
138.4106811288631
 30
0.0
 10
67.80913053523227
 20
138.3067108920139
 30
0.0
 10
67.61907608179067
 20
138.119701941226
 30
0.0
 10
67.51528348360783
 20
138.0357079041929
 30
0.0
 10
67.28972016114868
 20
137.887141493114
 30
0.0
 10
67.16807754413925
 20
137.8231023023435
 30
0.0
 10
66.79201952490975
 20
137.6695713691137
 30
0.0
 10
66.51724761433539
 20
137.6147715342987
 30
0.0
 10
66.2401889454875
 20
137.6147715342987
 30
0.0
  0
LINE
  5
D3
330
1F
100
AcDbEntity
  8
0
  6
Continuous
 62
     7
370
    25
100
AcDbLine
 10
68.3130583669
 20
139.6331954139
 30
0.0
 11
68.3130583669
 21
176.3668045861
 31
0.0
  0
SPLINE
  5
D4
330
1F
100
AcDbEntity
  8
0
  6
Continuous
 62
     7
370
    25
100
AcDbSpline
210
0.0
220
0.0
230
1.0
 70
     8
 71
     3
 72
    14
 73
    10
 74
     0
 42
0.00000001
 43
0.00000001
 40
0.0
 40
0.0
 40
0.0
 40
0.0
 40
0.2499999999999999
 40
0.2499999999999999
 40
0.4999999999999999
 40
0.4999999999999999
 40
0.7499999999999999
 40
0.7499999999999999
 40
1.0
 40
1.0
 40
1.0
 40
1.0
 10
202.9370304953684
 20
79.40413671544503
 30
0.0
 10
206.1061487123734
 20
80.47084993712522
 30
0.0
 10
209.4028253618213
 20
81.29731933915293
 30
0.0
 10
216.1332515987327
 20
82.40709460117796
 30
0.0
 10
219.5664734307338
 20
82.69012024726756
 30
0.0
 10
226.4335265692662
 20
82.69012024726756
 30
0.0
 10
229.8667484012673
 20
82.40709460117796
 30
0.0
 10
236.5971746381787
 20
81.29731933915295
 30
0.0
 10
239.8938512876266
 20
80.47084993712522
 30
0.0
 10
243.0629695046316
 20
79.40413671544503
 30
0.0
  0
LINE
  5
D5
330
1F
100
AcDbEntity
  8
0
  6
Continuous
 62
     7
370
    25
100
AcDbLine
 10
205.4146429979
 20
33.3334058286
 30
0.0
 11
200.9383053377
 21
78.6936274523
 31
0.0
  0
SPLINE
  5
D6
330
1F
100
AcDbEntity
  8
0
  6
Continuous
 62
     7
370
    25
100
AcDbSpline
210
0.0
220
0.0
230
1.0
 70
     8
 71
     3
 72
    20
 73
    16
 74
     0
 42
0.00000001
 43
0.00000001
 40
0.0
 40
0.0
 40
0.0
 40
0.0
 40
0.1250000000000006
 40
0.1250000000000006
 40
0.2500000000000013
 40
0.2500000000000013
 40
0.3750000000000019
 40
0.3750000000000019
 40
0.5000000000000026
 40
0.5000000000000026
 40
0.6250000000000032
 40
0.6250000000000032
 40
0.7500000000000038
 40
0.7500000000000038
 40
1.0
 40
1.0
 40
1.0
 40
1.0
 10
202.9370304953684
 20
79.40413671544502
 30
0.0
 10
202.8051035533985
 20
79.35973060508283
 30
0.0
 10
202.675747787612
 20
79.31570278843772
 30
0.0
 10
202.4218965672602
 20
79.22841067093984
 30
0.0
 10
202.296292123468
 20
79.18475539818354
 30
0.0
 10
202.0556620650995
 20
79.10031723251177
 30
0.0
 10
201.9416602692131
 20
79.0599038265615
 30
0.0
 10
201.7260184170792
 20
78.98283352349188
 30
0.0
 10
201.6234950605886
 20
78.94585155314046
 30
0.0
 10
201.4387681130389
 20
78.87876247155303
 30
0.0
 10
201.3558436074279
 20
78.84840318723202
 30
0.0
 10
201.209178559322
 20
78.79443759921799
 30
0.0
 10
201.1455657053785
 20
78.77087555120929
 30
0.0
 10
200.993119211256
 20
78.71423108705525
 30
0.0
 10
200.938305337653
 20
78.69362745230174
 30
0.0
 10
200.938305337653
 20
78.69362745230174
 30
0.0
  0
LINE
  5
D7
330
1F
100
AcDbEntity
  8
0
  6
Continuous
 62
     7
370
    25
100
AcDbLine
 10
245.0616946623
 20
78.6936274523
 30
0.0
 11
240.5853570021
 21
33.3334058286
 31
0.0
  0
SPLINE
  5
D8
330
1F
100
AcDbEntity
  8
0
  6
Continuous
 62
     7
370
    25
100
AcDbSpline
210
0.0
220
0.0
230
1.0
 70
     8
 71
     3
 72
    18
 73
    14
 74
     0
 42
0.00000001
 43
0.00000001
 40
0.0
 40
0.0
 40
0.0
 40
0.0
 40
0.1250000000000004
 40
0.1250000000000004
 40
0.2500000000000008
 40
0.2500000000000008
 40
0.3750000000000012
 40
0.3750000000000012
 40
0.5000000000000016
 40
0.5000000000000016
 40
0.7500000000000008
 40
0.7500000000000008
 40
1.0
 40
1.0
 40
1.0
 40
1.0
 10
245.061694662347
 20
78.69362745230174
 30
0.0
 10
245.061694662347
 20
78.69362745230174
 30
0.0
 10
245.04829927721
 20
78.69865011470226
 30
0.0
 10
244.9961909516659
 20
78.71812979707306
 30
0.0
 10
244.9568067955841
 20
78.73283647939486
 30
0.0
 10
244.854855047634
 20
78.77071978084362
 30
0.0
 10
244.792668120865
 20
78.79375525812065
 30
0.0
 10
244.646308104743
 20
78.84761423797204
 30
0.0
 10
244.5617554172914
 20
78.87857090914355
 30
0.0
 10
244.2855115145468
 20
78.97890135492446
 30
0.0
 10
244.0641148760552
 20
79.05827982194207
 30
0.0
 10
243.5870862026188
 20
79.22568556423491
 30
0.0
 10
243.3266644465842
 20
79.31537799399318
 30
0.0
 10
243.0629695046316
 20
79.40413671544502
 30
0.0
  0
SPLINE
  5
D9
330
1F
100
AcDbEntity
  8
0
  6
Continuous
 62
     7
370
    25
100
AcDbSpline
210
0.0
220
0.0
230
1.0
 70
    24
 71
     3
 72
     8
 73
     4
 74
     0
 42
0.00000001
 43
0.00000001
 40
0.0
 40
0.0
 40
0.0
 40
0.0
 40
1.0
 40
1.0
 40
1.0
 40
1.0
 10
240.5853570021105
 20
33.33340582857222
 30
0.0
 10
240.5840239381525
 20
33.31989744713048
 30
0.0
 10
240.582692083982
 20
33.30640132487004
 30
0.0
 10
240.5813623025834
 20
33.29292620669726
 30
0.0
  0
SPLINE
  5
DA
330
1F
100
AcDbEntity
  8
0
  6
Continuous
 62
     7
370
    25
100
AcDbSpline
210
0.0
220
0.0
230
1.0
 70
    24
 71
     3
 72
     8
 73
     4
 74
     0
 42
0.00000001
 43
0.00000001
 40
0.0
 40
0.0
 40
0.0
 40
0.0
 40
1.0
 40
1.0
 40
1.0
 40
1.0
 10
205.4186376974166
 20
33.29292620669726
 30
0.0
 10
205.417307916018
 20
33.30640132487004
 30
0.0
 10
205.4159760618475
 20
33.31989744713047
 30
0.0
 10
205.4146429978895
 20
33.33340582857222
 30
0.0
  0
LINE
  5
DB
330
1F
100
AcDbEntity
  8
0
  6
Continuous
 62
     7
370
    25
100
AcDbLine
 10
237.143280379
 20
30.177428238
 30
0.0
 11
208.856719621
 21
30.177428238
 31
0.0
  0
SPLINE
  5
DC
330
1F
100
AcDbEntity
  8
0
  6
Continuous
 62
     7
370
    25
100
AcDbSpline
210
0.0
220
0.0
230
1.0
 70
     8
 71
     3
 72
    22
 73
    18
 74
     0
 42
0.00000001
 43
0.00000001
 40
0.0
 40
0.0
 40
0.0
 40
0.0
 40
0.0326784712866886
 40
0.0655548881012341
 40
0.0986420180344527
 40
0.1319523863748669
 40
0.1654982683457984
 40
0.1992916825161599
 40
0.2333443853543848
 40
0.3571318889674863
 40
0.4887533235740242
 40
0.6122829401904003
 40
0.7510846672619806
 40
0.811097932613592
 40
0.8784663616482978
 40
0.929101273523578
 40
1.0
 40
1.0
 40
1.0
 40
1.0
 10
240.5813623025834
 20
33.29292620669727
 30
0.0
 10
240.5748760350989
 20
33.23567991526166
 30
0.0
 10
240.5618642104206
 20
33.12084057053382
 30
0.0
 10
240.5313786986742
 20
32.94979564445752
 30
0.0
 10
240.4927503921799
 20
32.77958572209675
 30
0.0
 10
240.4451606738763
 20
32.61076335288774
 30
0.0
 10
240.388825566293
 20
32.44377658160601
 30
0.0
 10
240.3237021789755
 20
32.27909580833688
 30
0.0
 10
240.1852609988146
 20
31.97551782416535
 30
0.0
 10
239.9231990518075
 20
31.54572190415285
 30
0.0
 10
239.4856930122619
 20
31.06524895001936
 30
0.0
 10
238.9541215231893
 20
30.66539200193854
 30
0.0
 10
238.4697439333225
 20
30.42893690866881
 30
0.0
 10
238.0517433150521
 20
30.29397321913881
 30
0.0
 10
237.7657943127824
 20
30.23014266537688
 30
0.0
 10
237.4586940920701
 20
30.18642029325537
 30
0.0
 10
237.2594896798314
 20
30.18074122159692
 30
0.0
 10
237.1432803790341
 20
30.17742823801794
 30
0.0
  0
SPLINE
  5
DD
330
1F
100
AcDbEntity
  8
0
  6
Continuous
 62
     7
370
    25
100
AcDbSpline
210
0.0
220
0.0
230
1.0
 70
     8
 71
     3
 72
    21
 73
    17
 74
     0
 42
0.00000001
 43
0.00000001
 40
0.0
 40
0.0
 40
0.0
 40
0.0
 40
0.0379917633537232
 40
0.0709165537222691
 40
0.0987740362575731
 40
0.1215639538826183
 40
0.1889289171911962
 40
0.248949711294611
 40
0.3877501531690605
 40
0.5112894237844852
 40
0.6429093854381425
 40
0.7667065077451009
 40
0.8261129675696544
 40
0.8847539071657019
 40
0.9426939274272161
 40
0.9999999999999999
 40
0.9999999999999999
 40
0.9999999999999999
 40
0.9999999999999999
 10
208.856719620966
 20
30.17742823801794
 30
0.0
 10
208.7944728656465
 20
30.17838885182114
 30
0.0
 10
208.6782812236174
 20
30.18018196207367
 30
0.0
 10
208.5168310870887
 20
30.19318366876987
 30
0.0
 10
208.3807691502487
 20
30.20959617137554
 30
0.0
 10
208.1895059878931
 20
30.23986157090675
 30
0.0
 10
207.9482592433813
 20
30.29405496853379
 30
0.0
 10
207.5302778670349
 20
30.42887521518716
 30
0.0
 10
207.0458828645211
 20
30.66540591152199
 30
0.0
 10
206.5143304941056
 20
31.06522454181268
 30
0.0
 10
206.0767719641861
 20
31.54574176522881
 30
0.0
 10
205.7918859059617
 20
32.01307887201608
 30
0.0
 10
205.6240297531413
 20
32.40023775606252
 30
0.0
 10
205.5275917881797
 20
32.69325398340219
 30
0.0
 10
205.4561992242501
 20
32.99096222279316
 30
0.0
 10
205.4311122066619
 20
33.19264134539083
 30
0.0
 10
205.4186376974166
 20
33.29292620669727
 30
0.0
  0
LINE
  5
DE
330
1F
100
AcDbEntity
  8
0
  6
HIDDEN
 62
     7
370
    18
100
AcDbLine
 10
202.6147715343
 20
79.2946939391
 30
0.0
 11
207.1376786592
 21
33.4625684069
 31
0.0
  0
LINE
  5
DF
330
1F
100
AcDbEntity
  8
0
  6
HIDDEN
 62
     7
370
    18
100
AcDbLine
 10
238.7812518004
 20
33.4466329227
 30
0.0
 11
238.8623213408
 21
33.4625684069
 31
0.0
  0
LINE
  5
E0
330
1F
100
AcDbEntity
  8
0
  6
HIDDEN
 62
     7
370
    18
100
AcDbLine
 10
238.8623213408
 20
33.4625684069
 30
0.0
 11
243.3852284657
 21
79.2946939391
 31
0.0
  0
LINE
  5
E1
330
1F
100
AcDbEntity
  8
0
  6
HIDDEN
 62
     7
370
    18
100
AcDbLine
 10
236.7984735118
 20
31.9048194225
 30
0.0
 11
209.2015264882
 21
31.9048194225
 31
0.0
  0
ARC
  5
E2
330
1F
100
AcDbEntity
  8
0
  6
HIDDEN
 62
     7
370
    18
100
AcDbCircle
 10
208.856719621
 20
33.632210607
 30
0.0
 40
1.72739118451481
100
AcDbArc
 50
185.6359406983
 51
270.0
  0
SPLINE
  5
E3
330
1F
100
AcDbEntity
  8
0
  6
HIDDEN
 62
     7
370
    18
100
AcDbSpline
210
0.0
220
0.0
230
1.0
 70
    24
 71
     3
 72
    14
 73
    10
 74
     0
 42
0.00000001
 43
0.00000001
 40
0.0
 40
0.0
 40
0.0
 40
0.0
 40
0.25
 40
0.25
 40
0.5
 40
0.5
 40
0.75
 40
0.75
 40
1.0
 40
1.0
 40
1.0
 40
1.0
 10
209.2015264882027
 20
31.90481942253273
 30
0.0
 10
209.1607533309055
 20
31.90481942253273
 30
0.0
 10
209.1168424926208
 20
31.90481942253274
 30
0.0
 10
209.0319292308416
 20
31.90481942253273
 30
0.0
 10
208.9911869160319
 20
31.90481942253273
 30
0.0
 10
208.9239532684989
 20
31.90481942253274
 30
0.0
 10
208.8976852557191
 20
31.90481942253273
 30
0.0
 10
208.8641242619385
 20
31.90481942253274
 30
0.0
 10
208.856719620966
 20
31.90481942253273
 30
0.0
 10
208.856719620966
 20
31.90481942253273
 30
0.0
  0
SPLINE
  5
E4
330
1F
100
AcDbEntity
  8
0
  6
HIDDEN
 62
     7
370
    18
100
AcDbSpline
210
0.0
220
0.0
230
1.0
 70
    24
 71
     3
 72
    14
 73
    10
 74
     0
 42
0.00000001
 43
0.00000001
 40
0.0
 40
0.0
 40
0.0
 40
0.0
 40
0.25
 40
0.25
 40
0.5
 40
0.5
 40
0.75
 40
0.75
 40
1.0
 40
1.0
 40
1.0
 40
1.0
 10
237.1432803790341
 20
31.90481942253273
 30
0.0
 10
237.1432803790341
 20
31.90481942253273
 30
0.0
 10
237.1358757380616
 20
31.90481942253273
 30
0.0
 10
237.102314744281
 20
31.90481942253274
 30
0.0
 10
237.0760467315011
 20
31.90481942253273
 30
0.0
 10
237.0088130839681
 20
31.90481942253273
 30
0.0
 10
236.9680707691584
 20
31.90481942253273
 30
0.0
 10
236.8831575073792
 20
31.90481942253273
 30
0.0
 10
236.8392466690945
 20
31.90481942253273
 30
0.0
 10
236.7984735117973
 20
31.90481942253273
 30
0.0
  0
ARC
  5
E5
330
1F
100
AcDbEntity
  8
0
  6
HIDDEN
 62
     7
370
    18
100
AcDbCircle
 10
237.143280379
 20
33.632210607
 30
0.0
 40
1.72739118451479
100
AcDbArc
 50
270.0
 51
291.6075335354
  0
ARC
  5
E6
330
1F
100
AcDbEntity
  8
0
  6
HIDDEN
 62
     7
370
    18
100
AcDbCircle
 10
237.143280379
 20
33.632210607
 30
0.0
 40
1.72739118451481
100
AcDbArc
 50
331.5259435323
 51
354.3640593017
  0
SPLINE
  5
E7
330
1F
100
AcDbEntity
  8
0
  6
HIDDEN
 62
     7
370
    18
100
AcDbSpline
210
0.0
220
0.0
230
1.0
 70
     8
 71
     3
 72
    11
 73
     7
 74
     0
 42
0.00000001
 43
0.00000001
 40
0.0
 40
0.0
 40
0.0
 40
0.0
 40
0.2366596647320285
 40
0.4881493106670908
 40
0.7459322128600803
 40
1.0
 40
1.0
 40
1.0
 40
1.0
 10
207.1794229629718
 20
33.4429077885253
 30
0.0
 10
207.2002588058603
 20
33.2958638479798
 30
0.0
 10
207.2432361436113
 20
32.99256164269552
 30
0.0
 10
207.4709185486199
 20
32.57687967670456
 30
0.0
 10
207.8090397689679
 20
32.22190606040123
 30
0.0
 10
208.1077619477144
 20
32.08204584561081
 30
0.0
 10
208.256038944318
 20
32.01262330497298
 30
0.0
  0
SPLINE
  5
E8
330
1F
100
AcDbEntity
  8
0
  6
HIDDEN
 62
     7
370
    18
100
AcDbSpline
210
0.0
220
0.0
230
1.0
 70
     8
 71
     3
 72
    11
 73
     7
 74
     0
 42
0.00000001
 43
0.00000001
 40
0.0
 40
0.0
 40
0.0
 40
0.0
 40
0.2540677871399374
 40
0.5118506893329169
 40
0.7633403352679687
 40
0.9999999999999999
 40
0.9999999999999999
 40
0.9999999999999999
 40
0.9999999999999999
 10
237.7439610556838
 20
32.01262330497363
 30
0.0
 10
237.8922380522871
 20
32.08204584561155
 30
0.0
 10
238.1909602310332
 20
32.22190606040212
 30
0.0
 10
238.5290814513806
 20
32.57687967670525
 30
0.0
 10
238.7567638563889
 20
32.99256164269589
 30
0.0
 10
238.7997411941399
 20
33.29586384797982
 30
0.0
 10
238.8205770370284
 20
33.44290778852518
 30
0.0
  0
ENDSEC
  0
SECTION
  2
OBJECTS
  0
DICTIONARY
  5
C
330
0
100
AcDbDictionary
281
     1
  3
ACAD_GROUP
350
D
  3
ACAD_LAYOUT
350
1A
  3
ACAD_MLINESTYLE
350
17
  3
ACAD_PLOTSETTINGS
350
19
  3
ACAD_PLOTSTYLENAME
350
E
  3
ACAD_SCALELIST
350
47
  3
DWGPROPS
350
E9
  0
DICTIONARY
  5
D
102
{ACAD_REACTORS
330
C
102
}
330
C
100
AcDbDictionary
281
     1
  0
DICTIONARY
  5
1A
102
{ACAD_REACTORS
330
C
102
}
330
C
100
AcDbDictionary
281
     1
  3
Layout1
350
1E
  3
Layout2
350
26
  3
Model
350
22
  0
DICTIONARY
  5
17
102
{ACAD_REACTORS
330
C
102
}
330
C
100
AcDbDictionary
281
     1
  3
Standard
350
18
  0
DICTIONARY
  5
19
102
{ACAD_REACTORS
330
C
102
}
330
C
100
AcDbDictionary
281
     1
  0
ACDBDICTIONARYWDFLT
  5
E
102
{ACAD_REACTORS
330
C
102
}
330
C
100
AcDbDictionary
281
     1
  3
Normal
350
F
100
AcDbDictionaryWithDefault
340
F
  0
DICTIONARY
  5
47
102
{ACAD_REACTORS
330
C
102
}
330
C
100
AcDbDictionary
281
     1
  3
A0
350
48
  3
A1
350
49
  3
A2
350
4A
  3
A3
350
4B
  3
A4
350
4C
  3
A5
350
4D
  3
A6
350
4E
  3
A7
350
4F
  3
A8
350
50
  3
A9
350
51
  3
B0
350
52
  3
B1
350
53
  3
B2
350
54
  3
B3
350
55
  3
B4
350
56
  3
B5
350
57
  3
B6
350
58
  0
XRECORD
  5
E9
102
{ACAD_REACTORS
330
C
102
}
330
C
100
AcDbXrecord
280
     1
  1
DWGPROPS COOKIE
  2

  3

  4

  6

  7

  8

  9

300
=
301
=
302
=
303
=
304
=
305
=
306
=
307
=
308
=
309
=
 40
0.0
 41
2461215.032729908
 42
2461215.032730232
  1

 90
        0
  0
LAYOUT
  5
1E
102
{ACAD_REACTORS
330
1A
102
}
330
1A
100
AcDbPlotSettings
  1

  2
none_device
  4

  6

 40
0.0
 41
0.0
 42
0.0
 43
0.0
 44
0.0
 45
0.0
 46
0.0
 47
0.0
 48
0.0
 49
0.0
140
0.0
141
0.0
142
1.0
143
1.0
 70
   688
 72
     1
 73
     0
 74
     5
  7

 75
    16
147
1.0
148
0.0
149
0.0
100
AcDbLayout
  1
Layout1
 70
     1
 71
     1
 10
0.0
 20
0.0
 11
420.0
 21
297.0
 12
0.0
 22
0.0
 32
0.0
 14
1.0000000000E+20
 24
1.0000000000E+20
 34
1.0000000000E+20
 15
-1.0000000000E+20
 25
-1.0000000000E+20
 35
-1.0000000000E+20
146
0.0
 13
0.0
 23
0.0
 33
0.0
 16
1.0
 26
0.0
 36
0.0
 17
0.0
 27
1.0
 37
0.0
 76
     0
330
1B
  0
LAYOUT
  5
26
102
{ACAD_REACTORS
330
1A
102
}
330
1A
100
AcDbPlotSettings
  1

  2
none_device
  4

  6

 40
0.0
 41
0.0
 42
0.0
 43
0.0
 44
0.0
 45
0.0
 46
0.0
 47
0.0
 48
0.0
 49
0.0
140
0.0
141
0.0
142
1.0
143
1.0
 70
   688
 72
     1
 73
     0
 74
     5
  7

 75
    16
147
1.0
148
0.0
149
0.0
100
AcDbLayout
  1
Layout2
 70
     1
 71
     2
 10
0.0
 20
0.0
 11
0.0
 21
0.0
 12
0.0
 22
0.0
 32
0.0
 14
0.0
 24
0.0
 34
0.0
 15
0.0
 25
0.0
 35
0.0
146
0.0
 13
0.0
 23
0.0
 33
0.0
 16
1.0
 26
0.0
 36
0.0
 17
0.0
 27
1.0
 37
0.0
 76
     0
330
23
  0
LAYOUT
  5
22
102
{ACAD_REACTORS
330
1A
102
}
330
1A
100
AcDbPlotSettings
  1

  2
none_device
  4
Letter_(8.50_x_11.00_Inches)
  6

 40
6.35
 41
6.35
 42
6.35000508
 43
6.35000508
 44
215.9
 45
279.4
 46
0.0
 47
0.0
 48
0.0
 49
0.0
140
0.0
141
0.0
142
1.0
143
1.0
 70
  1712
 72
     1
 73
     0
 74
     0
  7

 75
     0
147
1.0
148
0.0
149
0.0
100
AcDbLayout
  1
Model
 70
     1
 71
     0
 10
0.0
 20
0.0
 11
297.0
 21
210.0
 12
0.0
 22
0.0
 32
0.0
 14
0.0
 24
0.0
 34
0.0
 15
297.0
 25
210.0
 35
0.0
146
0.0
 13
0.0
 23
0.0
 33
0.0
 16
1.0
 26
0.0
 36
0.0
 17
0.0
 27
1.0
 37
0.0
 76
     0
330
1F
331
29
  0
MLINESTYLE
  5
18
102
{ACAD_REACTORS
330
17
102
}
330
17
100
AcDbMlineStyle
  2
Standard
 70
     0
  3

 62
   256
 51
90.0
 52
90.0
 71
     2
 49
0.5
 62
   256
  6
BYLAYER
 49
-0.5
 62
   256
  6
BYLAYER
  0
ACDBPLACEHOLDER
  5
F
102
{ACAD_REACTORS
330
E
102
}
330
E
  0
SCALE
  5
48
102
{ACAD_REACTORS
330
47
102
}
330
47
100
AcDbScale
 70
     0
300
1:1
140
1.0
141
1.0
290
     1
  0
SCALE
  5
49
102
{ACAD_REACTORS
330
47
102
}
330
47
100
AcDbScale
 70
     0
300
1:2
140
1.0
141
2.0
290
     0
  0
SCALE
  5
4A
102
{ACAD_REACTORS
330
47
102
}
330
47
100
AcDbScale
 70
     0
300
1:4
140
1.0
141
4.0
290
     0
  0
SCALE
  5
4B
102
{ACAD_REACTORS
330
47
102
}
330
47
100
AcDbScale
 70
     0
300
1:5
140
1.0
141
5.0
290
     0
  0
SCALE
  5
4C
102
{ACAD_REACTORS
330
47
102
}
330
47
100
AcDbScale
 70
     0
300
1:8
140
1.0
141
8.0
290
     0
  0
SCALE
  5
4D
102
{ACAD_REACTORS
330
47
102
}
330
47
100
AcDbScale
 70
     0
300
1:10
140
1.0
141
10.0
290
     0
  0
SCALE
  5
4E
102
{ACAD_REACTORS
330
47
102
}
330
47
100
AcDbScale
 70
     0
300
1:16
140
1.0
141
16.0
290
     0
  0
SCALE
  5
4F
102
{ACAD_REACTORS
330
47
102
}
330
47
100
AcDbScale
 70
     0
300
1:20
140
1.0
141
20.0
290
     0
  0
SCALE
  5
50
102
{ACAD_REACTORS
330
47
102
}
330
47
100
AcDbScale
 70
     0
300
1:30
140
1.0
141
30.0
290
     0
  0
SCALE
  5
51
102
{ACAD_REACTORS
330
47
102
}
330
47
100
AcDbScale
 70
     0
300
1:40
140
1.0
141
40.0
290
     0
  0
SCALE
  5
52
102
{ACAD_REACTORS
330
47
102
}
330
47
100
AcDbScale
 70
     0
300
1:50
140
1.0
141
50.0
290
     0
  0
SCALE
  5
53
102
{ACAD_REACTORS
330
47
102
}
330
47
100
AcDbScale
 70
     0
300
1:100
140
1.0
141
100.0
290
     0
  0
SCALE
  5
54
102
{ACAD_REACTORS
330
47
102
}
330
47
100
AcDbScale
 70
     0
300
2:1
140
2.0
141
1.0
290
     0
  0
SCALE
  5
55
102
{ACAD_REACTORS
330
47
102
}
330
47
100
AcDbScale
 70
     0
300
4:1
140
4.0
141
1.0
290
     0
  0
SCALE
  5
56
102
{ACAD_REACTORS
330
47
102
}
330
47
100
AcDbScale
 70
     0
300
8:1
140
8.0
141
1.0
290
     0
  0
SCALE
  5
57
102
{ACAD_REACTORS
330
47
102
}
330
47
100
AcDbScale
 70
     0
300
10:1
140
10.0
141
1.0
290
     0
  0
SCALE
  5
58
102
{ACAD_REACTORS
330
47
102
}
330
47
100
AcDbScale
 70
     0
300
100:1
140
100.0
141
1.0
290
     0
  0
ENDSEC
  0
EOF
