  0
SECTION
  2
HEADER
  9
$ACADVER
  1
AC1015
  9
$ACADMAINTVER
 70
     6
  9
$DWGCODEPAGE
  3
ANSI_936
  9
$INSBASE
 10
0.0
 20
0.0
 30
0.0
  9
$EXTMIN
 10
0.0
 20
0.0
 30
0.0
  9
$EXTMAX
 10
297.0
 20
210.0
 30
0.0
  9
$LIMMIN
 10
0.0
 20
0.0
  9
$LIMMAX
 10
297.0
 20
210.0
  9
$ORTHOMODE
 70
     0
  9
$REGENMODE
 70
     1
  9
$FILLMODE
 70
     1
  9
$QTEXTMODE
 70
     0
  9
$MIRRTEXT
 70
     1
  9
$LTSCALE
 40
1.0
  9
$ATTMODE
 70
     1
  9
$TEXTSIZE
 40
3.5
  9
$TRACEWID
 40
1.0
  9
$TEXTSTYLE
  7
Standard
  9
$CLAYER
  8
0
  9
$CELTYPE
  6
ByLayer
  9
$CECOLOR
 62
   256
  9
$CELTSCALE
 40
1.0
  9
$DISPSILH
 70
     0
  9
$DIMSCALE
 40
1.0
  9
$DIMASZ
 40
4.08
  9
$DIMEXO
 40
0.0
  9
$DIMDLI
 40
3.75
  9
$DIMRND
 40
0.0
  9
$DIMDLE
 40
0.0
  9
$DIMEXE
 40
2.0
  9
$DIMTP
 40
0.0
  9
$DIMTM
 40
0.0
  9
$DIMTXT
 40
3.5
  9
$DIMCEN
 40
2.5
  9
$DIMTSZ
 40
0.0
  9
$DIMTOL
 70
     0
  9
$DIMLIM
 70
     0
  9
$DIMTIH
 70
     1
  9
$DIMTOH
 70
     1
  9
$DIMSE1
 70
     0
  9
$DIMSE2
 70
     0
  9
$DIMTAD
 70
     1
  9
$DIMZIN
 70
     0
  9
$DIMBLK
  1

  9
$DIMASO
 70
     1
  9
$DIMSHO
 70
     1
  9
$DIMPOST
  1

  9
$DIMAPOST
  1

  9
$DIMALT
 70
     0
  9
$DIMALTD
 70
     3
  9
$DIMALTF
 40
0.0393700787
  9
$DIMLFAC
 40
2.0
  9
$DIMTOFL
 70
     1
  9
$DIMTVP
 40
0.0
  9
$DIMTIX
 70
     0
  9
$DIMSOXD
 70
     0
  9
$DIMSAH
 70
     0
  9
$DIMBLK1
  1

  9
$DIMBLK2
  1

  9
$DIMSTYLE
  2
ISO-25
  9
$DIMCLRD
 70
     0
  9
$DIMCLRE
 70
     0
  9
$DIMCLRT
 70
     0
  9
$DIMTFAC
 40
1.0
  9
$DIMGAP
 40
1.524
  9
$DIMJUST
 70
     0
  9
$DIMSD1
 70
     0
  9
$DIMSD2
 70
     0
  9
$DIMTOLJ
 70
     0
  9
$DIMTZIN
 70
     0
  9
$DIMALTZ
 70
     0
  9
$DIMALTTZ
 70
     0
  9
$DIMUPT
 70
     0
  9
$DIMDEC
 70
     2
  9
$DIMTDEC
 70
     2
  9
$DIMALTU
 70
     2
  9
$DIMALTTD
 70
     3
  9
$DIMTXSTY
  7
Standard
  9
$DIMAUNIT
 70
     0
  9
$DIMADEC
 70
     2
  9
$DIMALTRND
 40
0.0
  9
$DIMAZIN
 70
     0
  9
$DIMDSEP
 70
    44
  9
$DIMATFIT
 70
     3
  9
$DIMFRAC
 70
     0
  9
$DIMLDRBLK
  1

  9
$DIMLUNIT
 70
     2
  9
$DIMLWD
 70
    -2
  9
$DIMLWE
 70
    -2
  9
$DIMTMOVE
 70
     0
  9
$LUNITS
 70
     2
  9
$LUPREC
 70
     2
  9
$SKETCHINC
 40
1.0
  9
$FILLETRAD
 40
0.0
  9
$AUNITS
 70
     0
  9
$AUPREC
 70
     2
  9
$MENU
  1
.
  9
$ELEVATION
 40
0.0
  9
$PELEVATION
 40
0.0
  9
$THICKNESS
 40
0.0
  9
$LIMCHECK
 70
     0
  9
$CHAMFERA
 40
0.0
  9
$CHAMFERB
 40
0.0
  9
$CHAMFERC
 40
0.0
  9
$CHAMFERD
 40
0.0
  9
$SKPOLY
 70
     0
  9
$TDCREATE
 40
2461215.391316296
  9
$TDUCREATE
 40
2461215.057982963
  9
$TDUPDATE
 40
2461215.391316632
  9
$TDUUPDATE
 40
2461215.057983299
  9
$TDINDWG
 40
0.0000000116
  9
$TDUSRTIMER
 40
0.0000000116
  9
$USRTIMER
 70
     1
  9
$ANGBASE
 50
0.0
  9
$ANGDIR
 70
     0
  9
$PDMODE
 70
     0
  9
$PDSIZE
 40
-1.0
  9
$PLINEWID
 40
0.0
  9
$SPLFRAME
 70
     0
  9
$SPLINETYPE
 70
     6
  9
$SPLINESEGS
 70
     8
  9
$HANDSEED
  5
F4
  9
$SURFTAB1
 70
     6
  9
$SURFTAB2
 70
     6
  9
$SURFTYPE
 70
     6
  9
$SURFU
 70
     6
  9
$SURFV
 70
     6
  9
$UCSBASE
  2

  9
$UCSNAME
  2

  9
$UCSORG
 10
0.0
 20
0.0
 30
0.0
  9
$UCSXDIR
 10
1.0
 20
0.0
 30
0.0
  9
$UCSYDIR
 10
0.0
 20
1.0
 30
0.0
  9
$UCSORTHOREF
  2

  9
$UCSORTHOVIEW
 70
     0
  9
$UCSORGTOP
 10
0.0
 20
0.0
 30
0.0
  9
$UCSORGBOTTOM
 10
0.0
 20
0.0
 30
0.0
  9
$UCSORGLEFT
 10
0.0
 20
0.0
 30
0.0
  9
$UCSORGRIGHT
 10
0.0
 20
0.0
 30
0.0
  9
$UCSORGFRONT
 10
0.0
 20
0.0
 30
0.0
  9
$UCSORGBACK
 10
0.0
 20
0.0
 30
0.0
  9
$PUCSBASE
  2

  9
$PUCSNAME
  2

  9
$PUCSORG
 10
0.0
 20
0.0
 30
0.0
  9
$PUCSXDIR
 10
1.0
 20
0.0
 30
0.0
  9
$PUCSYDIR
 10
0.0
 20
1.0
 30
0.0
  9
$PUCSORTHOREF
  2

  9
$PUCSORTHOVIEW
 70
     0
  9
$PUCSORGTOP
 10
0.0
 20
0.0
 30
0.0
  9
$PUCSORGBOTTOM
 10
0.0
 20
0.0
 30
0.0
  9
$PUCSORGLEFT
 10
0.0
 20
0.0
 30
0.0
  9
$PUCSORGRIGHT
 10
0.0
 20
0.0
 30
0.0
  9
$PUCSORGFRONT
 10
0.0
 20
0.0
 30
0.0
  9
$PUCSORGBACK
 10
0.0
 20
0.0
 30
0.0
  9
$USERI1
 70
     0
  9
$USERI2
 70
     0
  9
$USERI3
 70
     0
  9
$USERI4
 70
     0
  9
$USERI5
 70
     0
  9
$USERR1
 40
0.0
  9
$USERR2
 40
0.0
  9
$USERR3
 40
0.0
  9
$USERR4
 40
0.0
  9
$USERR5
 40
0.0
  9
$WORLDVIEW
 70
     1
  9
$SHADEDGE
 70
     3
  9
$SHADEDIF
 70
    70
  9
$TILEMODE
 70
     1
  9
$MAXACTVP
 70
    64
  9
$PINSBASE
 10
0.0
 20
0.0
 30
0.0
  9
$PLIMCHECK
 70
     0
  9
$PEXTMIN
 10
1.0000000000E+20
 20
1.0000000000E+20
 30
1.0000000000E+20
  9
$PEXTMAX
 10
-1.0000000000E+20
 20
-1.0000000000E+20
 30
-1.0000000000E+20
  9
$PLIMMIN
 10
0.0
 20
0.0
  9
$PLIMMAX
 10
420.0
 20
297.0
  9
$UNITMODE
 70
     0
  9
$VISRETAIN
 70
     1
  9
$PLINEGEN
 70
     0
  9
$PSLTSCALE
 70
     1
  9
$TREEDEPTH
 70
  3020
  9
$CMLSTYLE
  2
Standard
  9
$CMLJUST
 70
     0
  9
$CMLSCALE
 40
20.0
  9
$PROXYGRAPHICS
 70
     1
  9
$MEASUREMENT
 70
     1
  9
$CELWEIGHT
370
    -1
  9
$ENDCAPS
280
     0
  9
$JOINSTYLE
280
     0
  9
$LWDISPLAY
290
     1
  9
$INSUNITS
 70
     4
  9
$HYPERLINKBASE
  1

  9
$STYLESHEET
  1

  9
$XEDIT
290
     1
  9
$CEPSNTYPE
380
     0
  9
$PSTYLEMODE
290
     1
  9
$FINGERPRINTGUID
  2
{c4048e49-7848-4cb5-8dc4-14ff18bc018a}
  9
$VERSIONGUID
  2
{FAEB1C32-E019-11D5-929B-00C0DF256EC4}
  9
$EXTNAMES
290
     1
  9
$PSVPSCALE
 40
0.0
  9
$OLESTARTUP
290
     0
  0
ENDSEC
  0
SECTION
  2
CLASSES
  0
CLASS
  1
ACDBDICTIONARYWDFLT
  2
AcDbDictionaryWithDefault
  3
ObjectDBX Classes
 90
        0
280
     0
281
     0
  0
CLASS
  1
VISUALSTYLE
  2
AcDbVisualStyle
  3
ObjectDBX Classes
 90
     4095
280
     0
281
     0
  0
CLASS
  1
MATERIAL
  2
AcDbMaterial
  3
ObjectDBX Classes
 90
     1153
280
     0
281
     0
  0
CLASS
  1
SCALE
  2
AcDbScale
  3
ObjectDBX Classes
 90
     1153
280
     0
281
     0
  0
CLASS
  1
TABLESTYLE
  2
AcDbTableStyle
  3
ObjectDBX Classes
 90
     4095
280
     0
281
     0
  0
CLASS
  1
MLEADERSTYLE
  2
AcDbMLeaderStyle
  3
ACDB_MLEADERSTYLE_CLASS
 90
     4095
280
     0
281
     0
  0
CLASS
  1
SUN
  2
AcDbSun
  3
SCENEOE
 90
     1153
280
     0
281
     0
  0
CLASS
  1
ACDBPLACEHOLDER
  2
AcDbPlaceHolder
  3
ObjectDBX Classes
 90
        0
280
     0
281
     0
  0
CLASS
  1
LAYOUT
  2
AcDbLayout
  3
ObjectDBX Classes
 90
        0
280
     0
281
     0
  0
ENDSEC
  0
SECTION
  2
TABLES
  0
TABLE
  2
VPORT
  5
8
330
0
100
AcDbSymbolTable
 70
     1
  0
VPORT
  5
29
330
8
100
AcDbSymbolTableRecord
100
AcDbViewportTableRecord
  2
*Active
 70
     0
 10
0.0
 20
0.0
 11
1.0
 21
1.0
 12
148.5
 22
105.0
 13
0.0
 23
0.0
 14
10.0
 24
10.0
 15
10.0
 25
10.0
 16
0.0
 26
0.0
 36
1.0
 17
0.0
 27
0.0
 37
0.0
 40
210.0
 41
1.4142857143
 42
50.0
 43
0.0
 44
0.0
 50
0.0
 51
0.0
 71
     0
 72
  2000
 73
     1
 74
     3
 75
     0
 76
     0
 77
     0
 78
     0
281
     0
 65
     1
110
0.0
120
0.0
130
0.0
111
1.0
121
0.0
131
0.0
112
0.0
122
1.0
132
0.0
 79
     0
146
0.0
  0
ENDTAB
  0
TABLE
  2
LTYPE
  5
5
330
0
100
AcDbSymbolTable
 70
     6
  0
LTYPE
  5
14
330
5
100
AcDbSymbolTableRecord
100
AcDbLinetypeTableRecord
  2
ByBlock
 70
     0
  3

 72
    65
 73
     0
 40
0.0
  0
LTYPE
  5
15
330
5
100
AcDbSymbolTableRecord
100
AcDbLinetypeTableRecord
  2
ByLayer
 70
     0
  3

 72
    65
 73
     0
 40
0.0
  0
LTYPE
  5
16
330
5
100
AcDbSymbolTableRecord
100
AcDbLinetypeTableRecord
  2
Continuous
 70
     0
  3
Solid line
 72
    65
 73
     0
 40
0.0
  0
LTYPE
  5
5E
330
5
100
AcDbSymbolTableRecord
100
AcDbLinetypeTableRecord
  2
HIDDEN
 70
     0
  3
Hidden __ __ __ __ __ __ __ __ __ __ __ __ __ __
 72
    65
 73
     2
 40
1.905
 49
1.27
 74
     0
 49
-0.635
 74
     0
  0
LTYPE
  5
5F
330
5
100
AcDbSymbolTableRecord
100
AcDbLinetypeTableRecord
  2
PHANTOM
 70
     0
  3
Phantom ______  __  __  ______  __  __  ______
 72
    65
 73
     6
 40
12.7
 49
6.35
 74
     0
 49
-1.27
 74
     0
 49
1.27
 74
     0
 49
-1.27
 74
     0
 49
1.27
 74
     0
 49
-1.27
 74
     0
  0
LTYPE
  5
60
330
5
100
AcDbSymbolTableRecord
100
AcDbLinetypeTableRecord
  2
CENTER
 70
     0
  3
Center ____ _ ____ _ ____ _ ____ _ ____ _ ____
 72
    65
 73
     4
 40
10.16
 49
6.35
 74
     0
 49
-1.27
 74
     0
 49
1.27
 74
     0
 49
-1.27
 74
     0
  0
LTYPE
  5
61
330
5
100
AcDbSymbolTableRecord
100
AcDbLinetypeTableRecord
  2
CENTERX2
 70
     0
  3
Center (2x) ________  __  ________  __  _____
 72
    65
 73
     4
 40
20.32
 49
12.7
 74
     0
 49
-2.54
 74
     0
 49
2.54
 74
     0
 49
-2.54
 74
     0
  0
LTYPE
  5
62
330
5
100
AcDbSymbolTableRecord
100
AcDbLinetypeTableRecord
  2
DOT2
 70
     0
  3
Dot (.5x) ........................................
 72
    65
 73
     2
 40
0.635
 49
0.0
 74
     0
 49
-0.635
 74
     0
  0
ENDTAB
  0
TABLE
  2
LAYER
  5
2
330
0
100
AcDbSymbolTable
 70
    14
  0
LAYER
  5
10
330
2
100
AcDbSymbolTableRecord
100
AcDbLayerTableRecord
  2
0
 70
     0
 62
     7
  6
Continuous
370
    -3
390
F
  0
LAYER
  5
63
330
2
100
AcDbSymbolTableRecord
100
AcDbLayerTableRecord
  2
SLD-0
 70
     0
 62
     7
  6
Continuous
370
    -3
390
F
  0
LAYER
  5
64
330
2
100
AcDbSymbolTableRecord
100
AcDbLayerTableRecord
  2
5
 70
     0
 62
     7
  6
Continuous
370
    -3
390
F
  0
LAYER
  5
65
330
2
100
AcDbSymbolTableRecord
100
AcDbLayerTableRecord
  2
9
 70
     0
 62
     7
  6
Continuous
370
    -3
390
F
  0
LAYER
  5
66
330
2
100
AcDbSymbolTableRecord
100
AcDbLayerTableRecord
  2
10
 70
     0
 62
     7
  6
Continuous
370
    -3
390
F
  0
LAYER
  5
67
330
2
100
AcDbSymbolTableRecord
100
AcDbLayerTableRecord
  2
轮廓实线层
 70
     0
 62
     7
  6
Continuous
370
    50
390
F
  0
LAYER
  5
68
330
2
100
AcDbSymbolTableRecord
100
AcDbLayerTableRecord
  2
细线层
 70
     0
 62
     4
  6
Continuous
370
    25
390
F
  0
LAYER
  5
69
330
2
100
AcDbSymbolTableRecord
100
AcDbLayerTableRecord
  2
中心线层
 70
     0
 62
     1
  6
CENTERX2
370
    25
390
F
  0
LAYER
  5
6A
330
2
100
AcDbSymbolTableRecord
100
AcDbLayerTableRecord
  2
虚线层
 70
     0
 62
     6
  6
HIDDEN
370
    25
390
F
  0
LAYER
  5
6B
330
2
100
AcDbSymbolTableRecord
100
AcDbLayerTableRecord
  2
剖面线层
 70
     0
 62
     2
  6
Continuous
370
    25
390
F
  0
LAYER
  5
6C
330
2
100
AcDbSymbolTableRecord
100
AcDbLayerTableRecord
  2
文字层
 70
     0
 62
     3
  6
Continuous
370
    25
390
F
  0
LAYER
  5
6D
330
2
100
AcDbSymbolTableRecord
100
AcDbLayerTableRecord
  2
标注层
 70
     0
 62
     4
  6
Continuous
370
    25
390
F
  0
LAYER
  5
6E
330
2
100
AcDbSymbolTableRecord
100
AcDbLayerTableRecord
  2
符号标注层
 70
     0
 62
    31
  6
Continuous
370
    25
390
F
  0
LAYER
  5
6F
330
2
100
AcDbSymbolTableRecord
100
AcDbLayerTableRecord
  2
双点划线层
 70
     0
 62
     6
  6
PHANTOM
370
    25
390
F
  0
ENDTAB
  0
TABLE
  2
STYLE
  5
3
330
0
100
AcDbSymbolTable
 70
     1
  0
STYLE
  5
11
330
3
100
AcDbSymbolTableRecord
100
AcDbTextStyleTableRecord
  2
Standard
 70
     0
 40
0.0
 41
1.0
 50
0.0
 71
     0
 42
3.5
  3
txt
  4

  0
ENDTAB
  0
TABLE
  2
VIEW
  5
6
330
0
100
AcDbSymbolTable
 70
     0
  0
ENDTAB
  0
TABLE
  2
UCS
  5
7
330
0
100
AcDbSymbolTable
 70
     0
  0
ENDTAB
  0
TABLE
  2
APPID
  5
9
330
0
100
AcDbSymbolTable
 70
     1
  0
APPID
  5
12
330
9
100
AcDbSymbolTableRecord
100
AcDbRegAppTableRecord
  2
ACAD
 70
     0
  0
ENDTAB
  0
TABLE
  2
DIMSTYLE
  5
A
330
0
100
AcDbSymbolTable
 70
     1
100
AcDbDimStyleTable
  0
DIMSTYLE
105
27
330
A
100
AcDbSymbolTableRecord
100
AcDbDimStyleTableRecord
  2
ISO-25
 70
     0
 41
2.5
 42
0.625
 43
3.75
 44
1.25
 73
     0
 74
     0
 77
     1
 78
     8
140
2.5
141
2.5
143
0.0393700787
147
0.625
171
     3
172
     1
178
     0
271
     2
272
     2
274
     3
278
    44
283
     0
284
     8
340
11
  0
ENDTAB
  0
TABLE
  2
BLOCK_RECORD
  5
1
330
0
100
AcDbSymbolTable
 70
     1
  0
BLOCK_RECORD
  5
1F
330
1
100
AcDbSymbolTableRecord
100
AcDbBlockTableRecord
  2
*Model_Space
340
22
  0
BLOCK_RECORD
  5
1B
330
1
100
AcDbSymbolTableRecord
100
AcDbBlockTableRecord
  2
*Paper_Space
340
1E
  0
BLOCK_RECORD
  5
23
330
1
100
AcDbSymbolTableRecord
100
AcDbBlockTableRecord
  2
*Paper_Space0
340
26
  0
ENDTAB
  0
ENDSEC
  0
SECTION
  2
BLOCKS
  0
BLOCK
  5
20
330
1F
100
AcDbEntity
  8
0
100
AcDbBlockBegin
  2
*Model_Space
 70
     0
 10
0.0
 20
0.0
 30
0.0
  3
*Model_Space
  1

  0
ENDBLK
  5
21
330
1F
100
AcDbEntity
  8
0
100
AcDbBlockEnd
  0
BLOCK
  5
1C
330
1B
100
AcDbEntity
 67
     1
  8
0
100
AcDbBlockBegin
  2
*Paper_Space
 70
     0
 10
0.0
 20
0.0
 30
0.0
  3
*Paper_Space
  1

  0
ENDBLK
  5
1D
330
1B
100
AcDbEntity
 67
     1
  8
0
100
AcDbBlockEnd
  0
BLOCK
  5
24
330
23
100
AcDbEntity
  8
0
100
AcDbBlockBegin
  2
*Paper_Space0
 70
     0
 10
0.0
 20
0.0
 30
0.0
  3
*Paper_Space0
  1

  0
ENDBLK
  5
25
330
23
100
AcDbEntity
  8
0
100
AcDbBlockEnd
  0
ENDSEC
  0
SECTION
  2
ENTITIES
  0
LINE
  5
70
330
1F
100
AcDbEntity
  8
0
  6
Continuous
 62
     7
370
    25
100
AcDbLine
 10
126.8727149345
 20
29.5172996013
 30
0.0
 11
130.1415696885
 21
29.5172996013
 31
0.0
  0
LINE
  5
71
330
1F
100
AcDbEntity
  8
0
  6
Continuous
 62
     7
370
    25
100
AcDbLine
 10
35.5443496143
 20
29.5172996013
 30
0.0
 11
38.8143473047
 21
29.5172996013
 31
0.0
  0
SPLINE
  5
72
330
1F
100
AcDbEntity
  8
0
  6
Continuous
 62
     7
370
    25
100
AcDbSpline
210
0.0
220
0.0
230
1.0
 70
     8
 71
     3
 72
    13
 73
     9
 74
     0
 42
0.00000001
 43
0.00000001
 40
0.0
 40
0.0
 40
0.0
 40
0.0
 40
0.158035289137392
 40
0.3155376701263342
 40
0.4851847971265183
 40
0.7372054562084911
 40
0.9928153147235013
 40
1.0
 40
1.0
 40
1.0
 40
1.0
 10
131.8846387185224
 20
31.69691708278891
 30
0.0
 10
131.8707115416356
 20
31.49029187143923
 30
0.0
 10
131.8429041514617
 20
31.0777382061502
 30
0.0
 10
131.6337431604144
 20
30.52372507369695
 30
0.0
 10
131.2878975835542
 20
29.99857309251144
 30
0.0
 10
130.781630610166
 20
29.63973029912398
 30
0.0
 10
130.3586043292849
 20
29.46937329113356
 30
0.0
 10
130.147345412792
 20
29.520085140006
 30
0.0
 10
130.1415696885134
 20
29.52147157927023
 30
0.0
  0
SPLINE
  5
73
330
1F
100
AcDbEntity
  8
0
  6
Continuous
 62
     7
370
    25
100
AcDbSpline
210
0.0
220
0.0
230
1.0
 70
     8
 71
     3
 72
    22
 73
    18
 74
     0
 42
0.00000001
 43
0.00000001
 40
0.0
 40
0.0
 40
0.0
 40
0.0
 40
0.125
 40
0.125
 40
0.25
 40
0.25
 40
0.375
 40
0.375
 40
0.5
 40
0.5
 40
0.625
 40
0.625
 40
0.75
 40
0.75
 40
0.875
 40
0.875
 40
1.0
 40
1.0
 40
1.0
 40
1.0
 10
126.2239268226364
 20
29.67319305619941
 30
0.0
 10
126.3483013735774
 20
29.6110057807289
 30
0.0
 10
126.4744183687999
 20
29.56843410679823
 30
0.0
 10
126.7297812563378
 20
29.51851438088538
 30
0.0
 10
126.8601097224593
 20
29.51133406483515
 30
0.0
 10
127.1187172718351
 20
29.53324047537967
 30
0.0
 10
127.2459687021939
 20
29.56189693931341
 30
0.0
 10
127.4962685959207
 20
29.65546412078073
 30
0.0
 10
127.620637696298
 20
29.72136365692093
 30
0.0
 10
127.8567076407416
 20
29.89051302832803
 30
0.0
 10
127.9683930679206
 20
29.99306419885489
 30
0.0
 10
128.176786031423
 20
30.24057112572151
 30
0.0
 10
128.2719312107225
 20
30.38438478366972
 30
0.0
 10
128.4328985347362
 20
30.70807115329581
 30
0.0
 10
128.4996573000723
 20
30.89096421381007
 30
0.0
 10
128.5903845512541
 20
31.27848647799331
 30
0.0
 10
128.6152124963197
 20
31.4870774503419
 30
0.0
 10
128.6152124963197
 20
31.69691708278891
 30
0.0
  0
SPLINE
  5
74
330
1F
100
AcDbEntity
  8
0
  6
Continuous
 62
     7
370
    25
100
AcDbSpline
210
0.0
220
0.0
230
1.0
 70
     8
 71
     3
 72
    15
 73
    11
 74
     0
 42
0.00000001
 43
0.00000001
 40
0.7045736902556153
 40
0.7045736902556153
 40
0.7045736902556153
 40
0.7045736902556153
 40
0.71351903017338
 40
0.722464370108788
 40
0.731409710044195
 40
0.740355049979603
 40
0.7493003899150109
 40
0.7582457298504189
 40
0.767191069785827
 40
0.7761364097047748
 40
0.7761364097047748
 40
0.7761364097047748
 40
0.7761364097047748
 10
47.96936568517555
 20
91.8611034332059
 30
0.0
 10
47.43054489319307
 20
91.8611034332059
 30
0.0
 10
46.30134489113605
 20
91.78152054943232
 30
0.0
 10
44.47869542677339
 20
91.34895223243049
 30
0.0
 10
42.58927365241627
 20
90.52169492562903
 30
0.0
 10
40.74883208778979
 20
89.23526424004422
 30
0.0
 10
39.12908348715577
 20
87.48769903694388
 30
0.0
 10
37.91279942579407
 20
85.3867086198074
 30
0.0
 10
37.2078544717661
 20
83.1330195384675
 30
0.0
 10
37.07127827459011
 20
81.66554057176492
 30
0.0
 10
37.07127827459011
 20
80.96301602190333
 30
0.0
  0
LINE
  5
75
330
1F
100
AcDbEntity
  8
0
  6
Continuous
 62
     7
370
    25
100
AcDbLine
 10
47.969365682
 20
91.8611034331
 30
0.0
 11
117.717125089
 21
91.8611034331
 31
0.0
  0
SPLINE
  5
76
330
1F
100
AcDbEntity
  8
0
  6
Continuous
 62
     7
370
    25
100
AcDbSpline
210
0.0
220
0.0
230
1.0
 70
     8
 71
     3
 72
    15
 73
    11
 74
     0
 42
0.00000001
 43
0.00000001
 40
0.2238635902954945
 40
0.2238635902954945
 40
0.2238635902954945
 40
0.2238635902954945
 40
0.232808930214174
 40
0.2417542701495815
 40
0.250699610084989
 40
0.259644950020397
 40
0.268590289955805
 40
0.2775356298912125
 40
0.2864809698266205
 40
0.2954263097441865
 40
0.2954263097441865
 40
0.2954263097441865
 40
0.2954263097441865
 10
128.6152124963196
 20
80.96301602183986
 30
0.0
 10
128.6152124963196
 20
81.6655405717003
 30
0.0
 10
128.4786362991438
 20
83.13301953840025
 30
0.0
 10
127.7736913451172
 20
85.3867086197358
 30
0.0
 10
126.5574072837579
 20
87.48769903686846
 30
0.0
 10
124.9376586831271
 20
89.23526423996536
 30
0.0
 10
123.097217118504
 20
90.52169492554818
 30
0.0
 10
121.2077953441504
 20
91.34895223234804
 30
0.0
 10
119.3851458797907
 20
91.78152054934958
 30
0.0
 10
118.2559458777353
 20
91.86110343312316
 30
0.0
 10
117.7171250857535
 20
91.86110343312316
 30
0.0
  0
LINE
  5
77
330
1F
100
AcDbEntity
  8
0
  6
Continuous
 62
     7
370
    25
100
AcDbLine
 10
128.6152124963
 20
80.9630160258
 30
0.0
 11
128.6152124963
 21
31.6969170828
 31
0.0
  0
LINE
  5
78
330
1F
100
AcDbEntity
  8
0
  6
Continuous
 62
     7
370
    25
100
AcDbLine
 10
126.2239268226
 20
29.6731930562
 30
0.0
 11
109.9235818105
 21
37.8233655623
 31
0.0
  0
LINE
  5
79
330
1F
100
AcDbEntity
  8
0
  6
Continuous
 62
     7
370
    25
100
AcDbLine
 10
39.4625639483
 20
29.6731930562
 30
0.0
 11
55.7629089605
 21
37.8233655623
 31
0.0
  0
SPLINE
  5
7A
330
1F
100
AcDbEntity
  8
0
  6
Continuous
 62
     7
370
    25
100
AcDbSpline
210
0.0
220
0.0
230
1.0
 70
     8
 71
     3
 72
    20
 73
    16
 74
     0
 42
0.00000001
 43
0.00000001
 40
0.0
 40
0.0
 40
0.0
 40
0.0
 40
0.1249999999999998
 40
0.1249999999999998
 40
0.2499999999999997
 40
0.2499999999999997
 40
0.4999999999999998
 40
0.4999999999999998
 40
0.6249999999999998
 40
0.6249999999999998
 40
0.7499999999999999
 40
0.7499999999999999
 40
0.8749999999999999
 40
0.8749999999999999
 40
1.0
 40
1.0
 40
1.0
 40
1.0
 10
37.07127827464512
 20
31.69691708278892
 30
0.0
 10
37.07127827464512
 20
31.48725935985786
 30
0.0
 10
37.0949970950776
 20
31.28442350368124
 30
0.0
 10
37.18634645384801
 20
30.89186549161609
 30
0.0
 10
37.25145017548923
 20
30.71295933661753
 30
0.0
 10
37.49497757136545
 20
30.22152751569134
 30
0.0
 10
37.71172060818311
 20
29.97543983835647
 30
0.0
 10
38.06393938706431
 20
29.72257002470191
 30
0.0
 10
38.18820625287623
 20
29.65635067773689
 30
0.0
 10
38.43996042867851
 20
29.56197528170959
 30
0.0
 10
38.56758347233438
 20
29.5332749147599
 30
0.0
 10
38.82617830679878
 20
29.51133292435595
 30
0.0
 10
38.95660498554312
 20
29.51849815352399
 30
0.0
 10
39.2120883441531
 20
29.56843301813065
 30
0.0
 10
39.33822052363205
 20
29.6110213438512
 30
0.0
 10
39.46256394832852
 20
29.67319305619944
 30
0.0
  0
LINE
  5
7B
330
1F
100
AcDbEntity
  8
0
  6
Continuous
 62
     7
370
    25
100
AcDbLine
 10
37.0712782746
 20
80.9630160258
 30
0.0
 11
37.0712782746
 21
31.6969170828
 31
0.0
  0
SPLINE
  5
7C
330
1F
100
AcDbEntity
  8
0
  6
Continuous
 62
     7
370
    25
100
AcDbSpline
210
0.0
220
0.0
230
1.0
 70
     8
 71
     3
 72
    13
 73
     9
 74
     0
 42
0.00000001
 43
0.00000001
 40
0.0
 40
0.0
 40
0.0
 40
0.0
 40
0.0141412502079251
 40
0.3136079035098814
 40
0.5524113246879961
 40
0.7411991339570668
 40
0.9001977994660795
 40
0.9999999999999999
 40
0.9999999999999999
 40
0.9999999999999999
 40
0.9999999999999999
 10
35.54434961428387
 20
29.52551225969592
 30
0.0
 10
35.53298177412312
 20
29.52280313316473
 30
0.0
 10
35.28087927485105
 20
29.46272333263095
 30
0.0
 10
34.82606239377822
 20
29.67025760060926
 30
0.0
 10
34.30003944321269
 20
30.10854444213637
 30
0.0
 10
33.97394455061547
 20
30.68504303145885
 30
0.0
 10
33.82191898922449
 20
31.22970917171989
 30
0.0
 10
33.80743684698406
 20
31.56688925542912
 30
0.0
 10
33.80185205244246
 20
31.69691708278891
 30
0.0
  0
LINE
  5
7D
330
1F
100
AcDbEntity
  8
0
  6
Continuous
 62
     7
370
    25
100
AcDbLine
 10
131.8846387185
 20
80.9630160258
 30
0.0
 11
131.8846387185
 21
31.6969170828
 31
0.0
  0
SPLINE
  5
7E
330
1F
100
AcDbEntity
  8
0
  6
Continuous
 62
     7
370
    25
100
AcDbSpline
210
0.0
220
0.0
230
1.0
 70
     8
 71
     3
 72
    11
 73
     7
 74
     0
 42
0.00000001
 43
0.00000001
 40
0.6886867865080756
 40
0.6886867865080756
 40
0.6886867865080756
 40
0.6886867865080756
 40
0.7148954248247682
 40
0.7411040631791622
 40
0.7673127015335552
 40
0.7935213398434636
 40
0.7935213398434636
 40
0.7935213398434636
 40
0.7935213398434636
 10
131.8846387185226
 20
80.96301601673008
 30
0.0
 10
131.8846387185226
 20
83.06039665711765
 30
0.0
 10
130.9472886252386
 20
87.08294523479046
 30
0.0
 10
127.4807673397706
 20
91.72277142543703
 30
0.0
 10
122.7952843851003
 20
94.53793860554185
 30
0.0
 10
119.3839351850867
 20
95.13052965532631
 30
0.0
 10
117.7171250804902
 20
95.13052965532631
 30
0.0
  0
LINE
  5
7F
330
1F
100
AcDbEntity
  8
0
  6
Continuous
 62
     7
370
    25
100
AcDbLine
 10
47.969365682
 20
95.1305296553
 30
0.0
 11
117.717125089
 21
95.1305296553
 31
0.0
  0
SPLINE
  5
80
330
1F
100
AcDbEntity
  8
0
  6
Continuous
 62
     7
370
    25
100
AcDbSpline
210
0.0
220
0.0
230
1.0
 70
     8
 71
     3
 72
    11
 73
     7
 74
     0
 42
0.00000001
 43
0.00000001
 40
0.2064786601565377
 40
0.2064786601565377
 40
0.2064786601565377
 40
0.2064786601565377
 40
0.2326872984664456
 40
0.2588959368208386
 40
0.2851045751752316
 40
0.3113132134919234
 40
0.3113132134919234
 40
0.3113132134919234
 40
0.3113132134919234
 10
47.96936569047477
 20
95.13052965532604
 30
0.0
 10
46.30255558587824
 20
95.13052965532604
 30
0.0
 10
42.89120638586469
 20
94.5379386055415
 30
0.0
 10
38.20572343119419
 20
91.72277142543689
 30
0.0
 10
34.73920214572644
 20
87.08294523479007
 30
0.0
 10
33.80185205244246
 20
83.06039665711742
 30
0.0
 10
33.80185205244246
 20
80.96301601672987
 30
0.0
  0
LINE
  5
81
330
1F
100
AcDbEntity
  8
0
  6
Continuous
 62
     7
370
    25
100
AcDbLine
 10
33.8018520524
 20
80.9630160258
 30
0.0
 11
33.8018520524
 21
31.6969170828
 31
0.0
  0
SPLINE
  5
82
330
1F
100
AcDbEntity
  8
0
  6
Continuous
 62
     7
370
    25
100
AcDbSpline
210
0.0
220
0.0
230
1.0
 70
     8
 71
     3
 72
    30
 73
    26
 74
     0
 42
0.00000001
 43
0.00000001
 40
0.0
 40
0.0
 40
0.0
 40
0.0
 40
0.0119467830193523
 40
0.0240094159094368
 40
0.0362951674601848
 40
0.0489056139744328
 40
0.0619347399085446
 40
0.0775480850771986
 40
0.0931456698114197
 40
0.1241829781415976
 40
0.1874009320506116
 40
0.2492651070729004
 40
0.3306326429387971
 40
0.4126391442561738
 40
0.498397755876261
 40
0.6157659684259
 40
0.7487183858290593
 40
0.8089939606277593
 40
0.8734522501818448
 40
0.8967199894384402
 40
0.9175563549420641
 40
0.9361195596355667
 40
0.9591384739392612
 40
0.9801202725288662
 40
1.0
 40
1.0
 40
1.0
 40
1.0
 10
62.13687931153222
 20
59.16684121109675
 30
0.0
 10
62.11320531951831
 20
59.1666921606492
 30
0.0
 10
62.06562776499355
 20
59.16639261438799
 30
0.0
 10
61.99440668884054
 20
59.16397469753444
 30
0.0
 10
61.92325486152728
 20
59.16011855570351
 30
0.0
 10
61.85221052524307
 20
59.1546827503722
 30
0.0
 10
61.77756621033799
 20
59.14733841499189
 30
0.0
 10
61.7008475514004
 20
59.13797378819234
 30
0.0
 10
61.59314964861076
 20
59.12212609185858
 30
0.0
 10
61.39798109146094
 20
59.08588209132895
 30
0.0
 10
61.11407145003236
 20
59.00971149981206
 30
0.0
 10
60.73782707969996
 20
58.86266096012864
 30
0.0
 10
60.34281630657715
 20
58.64519518165275
 30
0.0
 10
59.95394911899464
 20
58.34728115645064
 30
0.0
 10
59.58571545391804
 20
57.96651235252248
 30
0.0
 10
59.26550195382372
 20
57.49817232837107
 30
0.0
 10
59.07901610450912
 20
57.0781652588973
 30
0.0
 10
58.97608666768921
 20
56.74503208936481
 30
0.0
 10
58.93432651066369
 20
56.56267392292997
 30
0.0
 10
58.91006878379337
 20
56.42606564264897
 30
0.0
 10
58.8969679099066
 20
56.33859573213037
 30
0.0
 10
58.8852931716771
 20
56.24346509980234
 30
0.0
 10
58.87562122522708
 20
56.13745489653184
 30
0.0
 10
58.86874550841402
 20
56.01799614129216
 30
0.0
 10
58.86787607926939
 20
55.93687944358418
 30
0.0
 10
58.86745308932954
 20
55.89741498889408
 30
0.0
  0
SPLINE
  5
83
330
1F
100
AcDbEntity
  8
0
  6
Continuous
 62
     7
370
    25
100
AcDbSpline
210
0.0
220
0.0
230
1.0
 70
     8
 71
     3
 72
    29
 73
    25
 74
     0
 42
0.00000001
 43
0.00000001
 40
0.0
 40
0.0
 40
0.0
 40
0.0
 40
0.0117348272865085
 40
0.0237071859623743
 40
0.0361362647172651
 40
0.0492183154257459
 40
0.0631219670466508
 40
0.0920347876766892
 40
0.1259556819340464
 40
0.1588595689780537
 40
0.1906940547495999
 40
0.2214751013117914
 40
0.2512203666915818
 40
0.3836152683755558
 40
0.5005857705126565
 40
0.6274161439457607
 40
0.7491721828712525
 40
0.8110150419239891
 40
0.8742347906614906
 40
0.9055254329098614
 40
0.9212690815723584
 40
0.9370212453080645
 40
0.9694042414462771
 40
1.0
 40
1.0
 40
1.0
 40
1.0
 10
106.8190376816353
 20
55.89741498889408
 30
0.0
 10
106.8188933186145
 20
55.92066067447057
 30
0.0
 10
106.8186016704378
 20
55.96762257491697
 30
0.0
 10
106.8162552068161
 20
56.03773745840381
 30
0.0
 10
106.8125236979857
 20
56.10768629981141
 30
0.0
 10
106.8072721561859
 20
56.17742705944977
 30
0.0
 10
106.7982959278067
 20
56.27025829027892
 30
0.0
 10
106.7833623194935
 20
56.38507244175887
 30
0.0
 10
106.7623781136949
 20
56.50769500667664
 30
0.0
 10
106.7371488075215
 20
56.62805358524147
 30
0.0
 10
106.7070860070043
 20
56.74865920405637
 30
0.0
 10
106.6728745182226
 20
56.86662389586013
 30
0.0
 10
106.5900212695326
 20
57.11691810962626
 30
0.0
 10
106.4226730603834
 20
57.4946290205834
 30
0.0
 10
106.0668147459207
 20
58.01755063216173
 30
0.0
 10
105.5689090045571
 20
58.5043282664104
 30
0.0
 10
105.0300054367452
 20
58.83019347139149
 30
0.0
 10
104.5809832115276
 20
59.00683554820578
 30
0.0
 10
104.2966691883111
 20
59.08401126552852
 30
0.0
 10
104.1007988789957
 20
59.1208694120763
 30
0.0
 10
103.9920742689253
 20
59.13711837262572
 30
0.0
 10
103.881669127446
 20
59.15073684093714
 30
0.0
 10
103.7352602037817
 20
59.163789673732
 30
0.0
 10
103.6103124340986
 20
59.1658434597092
 30
0.0
 10
103.5496114594326
 20
59.16684121109675
 30
0.0
  0
LINE
  5
84
330
1F
100
AcDbEntity
  8
0
  6
Continuous
 62
     7
370
    25
100
AcDbLine
 10
103.5496114594
 20
59.1668412111
 30
0.0
 11
62.1368793115
 21
59.1668412111
 31
0.0
  0
ELLIPSE
  5
85
330
1F
100
AcDbEntity
  8
0
  6
Continuous
 62
     7
370
    25
100
AcDbEllipse
 10
120.9865513112
 20
47.983402626
 30
0.0
 11
-1.563194018672220E-13
 21
24.53885342329627
 31
0.0
210
0.0
220
0.0
230
1.0
 40
0.5773502692
 41
1.570796326794896
 42
1.929201357742479
  0
LINE
  5
86
330
1F
100
AcDbEntity
  8
0
  6
Continuous
 62
     7
370
    25
100
AcDbLine
 10
106.8190376816
 20
47.983402626
 30
0.0
 11
106.8190376816
 21
55.8974149889
 31
0.0
  0
ELLIPSE
  5
87
330
1F
100
AcDbEntity
  8
0
  6
Continuous
 62
     7
370
    25
100
AcDbEllipse
 10
120.9865513112
 20
41.3635158025
 30
0.0
 11
14.16751362954491
 21
-2.131628207280301E-14
 31
0.0
210
0.0
220
0.0
230
1.0
 40
0.4
 41
3.499997684537413
 42
3.816333595813376
  0
LINE
  5
88
330
1F
100
AcDbEntity
  8
0
  6
Continuous
 62
     7
370
    25
100
AcDbLine
 10
58.8674530893
 20
55.8974149889
 30
0.0
 11
58.8674530893
 21
47.983402626
 31
0.0
  0
ELLIPSE
  5
89
330
1F
100
AcDbEntity
  8
0
  6
Continuous
 62
     7
370
    25
100
AcDbEllipse
 10
44.6999394598
 20
47.983402626
 30
0.0
 11
8.526512829121202E-14
 21
24.53885342329607
 31
0.0
210
0.0
220
0.0
230
1.0
 40
0.5773502692
 41
4.353983949437122
 42
4.712388980384703
  0
ELLIPSE
  5
8A
330
1F
100
AcDbEntity
  8
0
  6
Continuous
 62
     7
370
    25
100
AcDbEllipse
 10
44.6999394598
 20
41.3635158025
 30
0.0
 11
14.16751362954477
 21
1.421085471520200E-14
 31
0.0
210
0.0
220
0.0
230
1.0
 40
0.4
 41
5.608444364956052
 42
5.924780276232036
  0
ARC
  5
8B
330
1F
100
AcDbEntity
  8
0
  6
Continuous
 62
     7
370
    25
100
AcDbCircle
 10
59.9572618301
 20
22.1133440261
 30
0.0
 40
4.359234962936888
100
AcDbArc
 50
180.0
 51
270.0
  0
LINE
  5
8C
330
1F
100
AcDbEntity
  8
0
  6
Continuous
 62
     7
370
    25
100
AcDbLine
 10
60.5021662004
 20
21.0235352854
 30
0.0
 11
59.9572618301
 21
21.0235352854
 31
0.0
  0
ARC
  5
8D
330
1F
100
AcDbEntity
  8
0
  6
Continuous
 62
     7
370
    25
100
AcDbCircle
 10
59.9572618301
 20
22.1133440261
 30
0.0
 40
1.089808740734227
100
AcDbArc
 50
180.0
 51
270.0
  0
LINE
  5
8E
330
1F
100
AcDbEntity
  8
0
  6
Continuous
 62
     7
370
    25
100
AcDbLine
 10
59.9572618301
 20
17.7541090632
 30
0.0
 11
62.1368793115
 21
17.7541090632
 31
0.0
  0
LINE
  5
8F
330
1F
100
AcDbEntity
  8
0
  6
Continuous
 62
     7
370
    25
100
AcDbLine
 10
62.1368793115
 20
17.7541090632
 30
0.0
 11
62.1368793115
 21
19.3888221743
 31
0.0
  0
LINE
  5
90
330
1F
100
AcDbEntity
  8
0
  6
Continuous
 62
     7
370
    25
100
AcDbLine
 10
62.1368793115
 20
19.3888221743
 30
0.0
 11
60.5021662004
 21
21.0235352854
 31
0.0
  0
LINE
  5
91
330
1F
100
AcDbEntity
  8
0
  6
Continuous
 62
     7
370
    25
100
AcDbLine
 10
58.8674530893
 20
22.1133440261
 30
0.0
 11
58.8674530893
 21
47.982067873
 31
0.0
  0
LINE
  5
92
330
1F
100
AcDbEntity
  8
0
  6
Continuous
 62
     7
370
    25
100
AcDbLine
 10
55.5980268671
 20
37.7409245156
 30
0.0
 11
55.5980268671
 21
22.1133440261
 31
0.0
  0
LINE
  5
93
330
1F
100
AcDbEntity
  8
0
  6
Continuous
 62
     7
370
    25
100
AcDbLine
 10
105.7292289409
 20
21.0235352854
 30
0.0
 11
105.1843245705
 21
21.0235352854
 31
0.0
  0
LINE
  5
94
330
1F
100
AcDbEntity
  8
0
  6
Continuous
 62
     7
370
    25
100
AcDbLine
 10
103.5496114594
 20
19.3888221743
 30
0.0
 11
103.5496114594
 21
17.7541090632
 31
0.0
  0
LINE
  5
95
330
1F
100
AcDbEntity
  8
0
  6
Continuous
 62
     7
370
    25
100
AcDbLine
 10
103.5496114594
 20
17.7541090632
 30
0.0
 11
105.7292289409
 21
17.7541090632
 31
0.0
  0
LINE
  5
96
330
1F
100
AcDbEntity
  8
0
  6
Continuous
 62
     7
370
    25
100
AcDbLine
 10
105.1843245705
 20
21.0235352854
 30
0.0
 11
103.5496114594
 21
19.3888221743
 31
0.0
  0
ARC
  5
97
330
1F
100
AcDbEntity
  8
0
  6
Continuous
 62
     7
370
    25
100
AcDbCircle
 10
105.7292289409
 20
22.1133440261
 30
0.0
 40
1.089808740734227
100
AcDbArc
 50
270.0
 51
0.0
  0
ARC
  5
98
330
1F
100
AcDbEntity
  8
0
  6
Continuous
 62
     7
370
    25
100
AcDbCircle
 10
105.7292289409
 20
22.1133440261
 30
0.0
 40
4.359234962936885
100
AcDbArc
 50
270.0
 51
0.0
  0
LINE
  5
99
330
1F
100
AcDbEntity
  8
0
  6
Continuous
 62
     7
370
    25
100
AcDbLine
 10
106.8190376816
 20
47.9823450719
 30
0.0
 11
106.8190376816
 21
22.1133440261
 31
0.0
  0
LINE
  5
9A
330
1F
100
AcDbEntity
  8
0
  6
Continuous
 62
     7
370
    25
100
AcDbLine
 10
110.0884639038
 20
22.1133440261
 30
0.0
 11
110.0884639038
 21
37.7409245156
 31
0.0
  0
LINE
  5
9B
330
1F
100
AcDbEntity
  8
0
  6
HIDDEN
 62
     7
370
    18
100
AcDbLine
 10
130.1415696885
 20
29.5214715793
 30
0.0
 11
129.4933530448
 21
29.6731930562
 31
0.0
  0
LINE
  5
9C
330
1F
100
AcDbEntity
  8
0
  6
HIDDEN
 62
     7
370
    18
100
AcDbLine
 10
36.1931377261
 20
29.6731930562
 30
0.0
 11
35.5443496143
 21
29.5255122597
 31
0.0
  0
LINE
  5
9D
330
1F
100
AcDbEntity
  8
0
  6
HIDDEN
 62
     7
370
    18
100
AcDbLine
 10
129.4933530448
 20
29.6731930562
 30
0.0
 11
112.4765747722
 21
38.1815821925
 31
0.0
  0
LINE
  5
9E
330
1F
100
AcDbEntity
  8
0
  6
HIDDEN
 62
     7
370
    18
100
AcDbLine
 10
53.2099159988
 20
38.1815821925
 30
0.0
 11
36.1931377261
 21
29.6731930562
 31
0.0
  0
SPLINE
  5
9F
330
1F
100
AcDbEntity
  8
0
  6
HIDDEN
 62
     7
370
    18
100
AcDbSpline
210
0.0
220
0.0
230
1.0
 70
     8
 71
     3
 72
    28
 73
    24
 74
     0
 42
0.00000001
 43
0.00000001
 40
0.0
 40
0.0
 40
0.0
 40
0.0
 40
0.0122936513963121
 40
0.0246452600044369
 40
0.0371074910685293
 40
0.0497316254275111
 40
0.0625670035234096
 40
0.0780464421589736
 40
0.0940458844175308
 40
0.1097786038326714
 40
0.1254421651619937
 40
0.1886959908489332
 40
0.2509860310913798
 40
0.3758415291626502
 40
0.5002669863961237
 40
0.6249793341428799
 40
0.7492103959930387
 40
0.8116820469583531
 40
0.8744053014807659
 40
0.9058900706629328
 40
0.937067780438742
 40
0.9697218646410933
 40
1.0
 40
1.0
 40
1.0
 40
1.0
 10
55.59802686712688
 20
55.89741498889408
 30
0.0
 10
55.59827426838095
 20
55.94059486017846
 30
0.0
 10
55.59877023723802
 20
56.02715817000853
 30
0.0
 10
55.60277875728388
 20
56.15687506305529
 30
0.0
 10
55.609175945342
 20
56.28652105053508
 30
0.0
 10
55.61819952833206
 20
56.41605068272163
 30
0.0
 10
55.63049280011642
 20
56.55336873055951
 30
0.0
 10
55.64670393072256
 20
56.69869493303487
 30
0.0
 10
55.66694501767921
 20
56.84825158586528
 30
0.0
 10
55.69040741009308
 20
56.99605712345656
 30
0.0
 10
55.74448474915187
 20
57.29286634357691
 30
0.0
 10
55.85186605039041
 20
57.73601886803791
 30
0.0
 10
56.11972463213609
 20
58.51459679961106
 30
0.0
 10
56.60097342695729
 20
59.45553799151633
 30
0.0
 10
57.4069487492844
 20
60.47497155902057
 30
0.0
 10
58.41162255768584
 20
61.32515378296817
 30
0.0
 10
59.37979534457688
 20
61.85477958959221
 30
0.0
 10
60.20131447075712
 20
62.1547184483461
 30
0.0
 10
60.73103988903322
 20
62.28984334388721
 30
0.0
 10
61.15902768308159
 20
62.36549850315109
 30
0.0
 10
61.48429233258106
 20
62.40620119752197
 30
0.0
 10
61.80927183077825
 20
62.43159375437027
 30
0.0
 10
62.0304604093045
 20
62.4347492512974
 30
0.0
 10
62.1368793115322
 20
62.43626743329941
 30
0.0
  0
SPLINE
  5
A0
330
1F
100
AcDbEntity
  8
0
  6
HIDDEN
 62
     7
370
    18
100
AcDbSpline
210
0.0
220
0.0
230
1.0
 70
     8
 71
     3
 72
    29
 73
    25
 74
     0
 42
0.00000001
 43
0.00000001
 40
0.0
 40
0.0
 40
0.0
 40
0.0
 40
0.014867128023969
 40
0.0302600387742253
 40
0.0462226756573551
 40
0.0627944502027158
 40
0.0834378608413982
 40
0.1042098114361319
 40
0.1251163253465031
 40
0.1878504728686933
 40
0.2503646933784651
 40
0.3746573202523776
 40
0.4994599713497878
 40
0.6237652363620172
 40
0.7485162836983332
 40
0.8106076388914536
 40
0.8736795630169344
 40
0.8893755115099132
 40
0.9051399741634393
 40
0.921359793718205
 40
0.9366044497982984
 40
0.9581646084929264
 40
0.979214334650756
 40
1.0
 40
1.0
 40
1.0
 40
1.0
 10
103.5496114594326
 20
62.43626743329941
 30
0.0
 10
103.6018288044256
 20
62.43590481517232
 30
0.0
 10
103.708110184503
 20
62.43516675476358
 30
0.0
 10
103.869809773893
 20
62.42906277268644
 30
0.0
 10
104.0363742471959
 20
62.41886946695805
 30
0.0
 10
104.2190720875203
 20
62.40284967088381
 30
0.0
 10
104.4171394896576
 20
62.37964375696331
 30
0.0
 10
104.6301725221793
 20
62.34757599775469
 30
0.0
 10
104.9859495625102
 20
62.28192305935621
 30
0.0
 10
105.4803486462839
 20
62.15621736625346
 30
0.0
 10
106.3023856092189
 20
61.8567992136724
 30
0.0
 10
107.2715755265461
 20
61.32748465880956
 30
0.0
 10
108.2768425857514
 20
60.47774719919833
 30
0.0
 10
109.083150805493
 20
59.45909154659275
 30
0.0
 10
109.5644863898781
 20
58.51967436435129
 30
0.0
 10
109.8326025750817
 20
57.74272799967225
 30
0.0
 10
109.9402806389766
 20
57.30067269778819
 30
0.0
 10
109.9946866201826
 20
57.00423736196171
 30
0.0
 10
110.0184895814457
 20
56.85548147844329
 30
0.0
 10
110.0388702663257
 20
56.70603251607256
 30
0.0
 10
110.0584398030285
 20
56.53252092754492
 30
0.0
 10
110.0747970644661
 20
56.33718049744748
 30
0.0
 10
110.0863245463505
 20
56.11744400661166
 30
0.0
 10
110.0877537917602
 20
55.97044872161906
 30
0.0
 10
110.088463903838
 20
55.89741498889407
 30
0.0
  0
LINE
  5
A1
330
1F
100
AcDbEntity
  8
0
  6
HIDDEN
 62
     7
370
    18
100
AcDbLine
 10
62.1368793115
 20
62.4362674333
 30
0.0
 11
103.5496114594
 21
62.4362674333
 31
0.0
  0
ELLIPSE
  5
A2
330
1F
100
AcDbEntity
  8
0
  6
HIDDEN
 62
     7
370
    18
100
AcDbEllipse
 10
44.6999394598
 20
45.9969953184
 30
0.0
 11
-4.334310688136611E-13
 21
18.87604109484329
 31
0.0
210
0.0
220
0.0
230
1.0
 40
0.5773502692
 41
4.353983949437112
 42
4.712388980384671
  0
LINE
  5
A3
330
1F
100
AcDbEntity
  8
0
  6
HIDDEN
 62
     7
370
    18
100
AcDbLine
 10
55.5980268671
 20
45.9969953184
 30
0.0
 11
55.5980268671
 21
55.8974149889
 31
0.0
  0
ELLIPSE
  5
A4
330
1F
100
AcDbEntity
  8
0
  6
HIDDEN
 62
     7
370
    18
100
AcDbEllipse
 10
44.6999394598
 20
40.904774685
 30
0.0
 11
10.8980874073421
 21
-2.842170943040401E-14
 31
0.0
210
0.0
220
0.0
230
1.0
 40
0.4
 41
5.608444364956054
 42
5.924780276232049
  0
LINE
  5
A5
330
1F
100
AcDbEntity
  8
0
  6
HIDDEN
 62
     7
370
    18
100
AcDbLine
 10
110.0884639038
 20
55.8974149889
 30
0.0
 11
110.0884639038
 21
45.9969953184
 31
0.0
  0
ELLIPSE
  5
A6
330
1F
100
AcDbEntity
  8
0
  6
HIDDEN
 62
     7
370
    18
100
AcDbEllipse
 10
120.9865513112
 20
45.9969953184
 30
0.0
 11
1.065814103640150E-12
 21
18.87604109484363
 31
0.0
210
0.0
220
0.0
230
1.0
 40
0.5773502692
 41
1.570796326794958
 42
1.929201357742491
  0
ELLIPSE
  5
A7
330
1F
100
AcDbEntity
  8
0
  6
HIDDEN
 62
     7
370
    18
100
AcDbEllipse
 10
120.9865513112
 20
40.904774685
 30
0.0
 11
10.89808740734213
 21
7.105427357601002E-14
 31
0.0
210
0.0
220
0.0
230
1.0
 40
0.4
 41
3.499997684537369
 42
3.816333595813364
  0
LINE
  5
A8
330
1F
100
AcDbEntity
  8
0
  6
HIDDEN
 62
     7
370
    18
100
AcDbLine
 10
57.9672138476
 20
39.3756376267
 30
0.0
 11
54.9055351427
 21
39.3756376267
 31
0.0
  0
LINE
  5
A9
330
1F
100
AcDbEntity
  8
0
  6
HIDDEN
 62
     7
370
    18
100
AcDbLine
 10
107.7192769233
 20
39.3756376267
 30
0.0
 11
110.7809556282
 21
39.3756376267
 31
0.0
  0
LINE
  5
AA
330
1F
100
AcDbEntity
  8
0
  6
HIDDEN
 62
     7
370
    18
100
AcDbLine
 10
106.8190376816
 20
48.8136581741
 30
0.0
 11
110.0884639038
 21
48.8136581741
 31
0.0
  0
LINE
  5
AB
330
1F
100
AcDbEntity
  8
0
  6
HIDDEN
 62
     7
370
    18
100
AcDbLine
 10
58.8674530893
 20
48.8136581741
 30
0.0
 11
55.5980268671
 21
48.8136581741
 31
0.0
  0
LINE
  5
AC
330
1F
100
AcDbEntity
  8
0
  6
HIDDEN
 62
     7
370
    18
100
AcDbLine
 10
55.5980268671
 20
45.9955113298
 30
0.0
 11
55.5980268671
 21
37.7409245156
 31
0.0
  0
LINE
  5
AD
330
1F
100
AcDbEntity
  8
0
  6
HIDDEN
 62
     7
370
    18
100
AcDbLine
 10
110.0884639038
 20
37.7409245156
 30
0.0
 11
110.0884639038
 21
45.9369297646
 31
0.0
  0
LINE
  5
AE
330
1F
100
AcDbEntity
  8
0
  6
Continuous
 62
     7
370
    25
100
AcDbLine
 10
53.2099159988
 20
144.0019186372
 30
0.0
 11
33.8018520524
 21
119.7418387043
 31
0.0
  0
LINE
  5
AF
330
1F
100
AcDbEntity
  8
0
  6
Continuous
 62
     7
370
    25
100
AcDbLine
 10
131.8846387185
 20
119.7418387043
 30
0.0
 11
112.4447769764
 21
144.041665882
 31
0.0
  0
SPLINE
  5
B0
330
1F
100
AcDbEntity
  8
0
  6
Continuous
 62
     7
370
    25
100
AcDbSpline
210
0.0
220
0.0
230
1.0
 70
    24
 71
     3
 72
    11
 73
     7
 74
     0
 42
0.00000001
 43
0.00000001
 40
0.6886867865080756
 40
0.6886867865080756
 40
0.6886867865080756
 40
0.6886867865080756
 40
0.7148954248247682
 40
0.7411040631791622
 40
0.7673127015335552
 40
0.7935213398434636
 40
0.7935213398434636
 40
0.7935213398434636
 40
0.7935213398434636
 10
131.8846387185226
 20
119.7418387042736
 30
0.0
 10
131.8846387185226
 20
119.7418387042736
 30
0.0
 10
130.9472886252386
 20
119.7418387042736
 30
0.0
 10
127.4807673397706
 20
119.7418387042737
 30
0.0
 10
122.7952843851003
 20
119.7418387042736
 30
0.0
 10
119.3839351850867
 20
119.7418387042736
 30
0.0
 10
117.7171250804902
 20
119.7418387042736
 30
0.0
  0
LINE
  5
B1
330
1F
100
AcDbEntity
  8
0
  6
Continuous
 62
     7
370
    25
100
AcDbLine
 10
47.969365682
 20
119.7418387043
 30
0.0
 11
117.717125089
 21
119.7418387043
 31
0.0
  0
SPLINE
  5
B2
330
1F
100
AcDbEntity
  8
0
  6
Continuous
 62
     7
370
    25
100
AcDbSpline
210
0.0
220
0.0
230
1.0
 70
    24
 71
     3
 72
    11
 73
     7
 74
     0
 42
0.00000001
 43
0.00000001
 40
0.2064786601565377
 40
0.2064786601565377
 40
0.2064786601565377
 40
0.2064786601565377
 40
0.2326872984664456
 40
0.2588959368208386
 40
0.2851045751752316
 40
0.3113132134919234
 40
0.3113132134919234
 40
0.3113132134919234
 40
0.3113132134919234
 10
47.96936569047477
 20
119.7418387042738
 30
0.0
 10
46.30255558587824
 20
119.7418387042738
 30
0.0
 10
42.89120638586469
 20
119.7418387042738
 30
0.0
 10
38.20572343119419
 20
119.7418387042738
 30
0.0
 10
34.73920214572644
 20
119.7418387042738
 30
0.0
 10
33.80185205244246
 20
119.7418387042738
 30
0.0
 10
33.80185205244246
 20
119.7418387042738
 30
0.0
  0
ARC
  5
B3
330
1F
100
AcDbEntity
  8
0
  6
Continuous
 62
     7
370
    25
100
AcDbCircle
 10
44.6999394598
 20
150.8098998684
 30
0.0
 40
10.89808740734222
100
AcDbArc
 50
321.3401917459
 51
0.0
  0
ARC
  5
B4
330
1F
100
AcDbEntity
  8
0
  6
Continuous
 62
     7
370
    25
100
AcDbCircle
 10
120.9865513112
 20
150.8098998684
 30
0.0
 40
10.89808740734222
100
AcDbArc
 50
180.0
 51
218.6598082541
  0
LINE
  5
B5
330
1F
100
AcDbEntity
  8
0
  6
Continuous
 62
     7
370
    25
100
AcDbLine
 10
103.5496114594
 20
196.2581340505
 30
0.0
 11
62.1368793115
 21
196.2581340505
 31
0.0
  0
LINE
  5
B6
330
1F
100
AcDbEntity
  8
0
  6
Continuous
 62
     7
370
    25
100
AcDbLine
 10
103.5496114594
 20
196.2581340505
 30
0.0
 11
110.0884639038
 21
196.2581340505
 31
0.0
  0
LINE
  5
B7
330
1F
100
AcDbEntity
  8
0
  6
Continuous
 62
     7
370
    25
100
AcDbLine
 10
110.0884639038
 20
196.2581340505
 30
0.0
 11
110.0884639038
 21
150.8098998684
 31
0.0
  0
LINE
  5
B8
330
1F
100
AcDbEntity
  8
0
  6
Continuous
 62
     7
370
    25
100
AcDbLine
 10
55.5980268671
 20
196.2581340505
 30
0.0
 11
62.1368793115
 21
196.2581340505
 31
0.0
  0
LINE
  5
B9
330
1F
100
AcDbEntity
  8
0
  6
Continuous
 62
     7
370
    25
100
AcDbLine
 10
55.5980268671
 20
150.8098998684
 30
0.0
 11
55.5980268671
 21
196.2581340505
 31
0.0
  0
LWPOLYLINE
  5
BA
330
1F
100
AcDbEntity
  8
0
  6
HIDDEN
 62
     7
370
    18
100
AcDbPolyline
 90
        2
 70
   128
 43
0.0
 10
53.2099159988
 20
144.0019186372
 10
53.2099159988
 20
144.0019186372
  0
LWPOLYLINE
  5
BB
330
1F
100
AcDbEntity
  8
0
  6
HIDDEN
 62
     7
370
    18
100
AcDbPolyline
 90
        2
 70
   128
 43
0.0
 10
112.4765747722
 20
144.0019186372
 10
112.4765747722
 20
144.0019186372
  0
ARC
  5
BC
330
1F
100
AcDbEntity
  8
0
  6
HIDDEN
 62
     7
370
    18
100
AcDbCircle
 10
44.6999394598
 20
151.9567526621
 30
0.0
 40
14.16751362954489
100
AcDbArc
 50
321.3401917459
 51
0.0
  0
ARC
  5
BD
330
1F
100
AcDbEntity
  8
0
  6
HIDDEN
 62
     7
370
    18
100
AcDbCircle
 10
120.9865513112
 20
151.9567526621
 30
0.0
 40
14.16751362954489
100
AcDbArc
 50
180.0
 51
218.6598082541
  0
LINE
  5
BE
330
1F
100
AcDbEntity
  8
0
  6
HIDDEN
 62
     7
370
    18
100
AcDbLine
 10
58.8674530893
 20
196.2581340505
 30
0.0
 11
58.8674530893
 21
151.9567526621
 31
0.0
  0
LINE
  5
BF
330
1F
100
AcDbEntity
  8
0
  6
HIDDEN
 62
     7
370
    18
100
AcDbLine
 10
106.8190376816
 20
151.9567526621
 30
0.0
 11
106.8190376816
 21
196.2581340505
 31
0.0
  0
LWPOLYLINE
  5
C0
330
1F
100
AcDbEntity
  8
0
  6
HIDDEN
 62
     7
370
    18
100
AcDbPolyline
 90
        2
 70
   128
 43
0.0
 10
110.0884639038
 20
150.8098998684
 10
110.0884639038
 20
150.8098998684
  0
LWPOLYLINE
  5
C1
330
1F
100
AcDbEntity
  8
0
  6
HIDDEN
 62
     7
370
    18
100
AcDbPolyline
 90
        2
 70
   128
 43
0.0
 10
55.5980268671
 20
150.8098998684
 10
55.5980268671
 20
150.8098998684
  0
LWPOLYLINE
  5
C2
330
1F
100
AcDbEntity
  8
0
  6
HIDDEN
 62
     7
370
    18
100
AcDbPolyline
 90
        2
 70
   128
 43
0.0
 10
58.8674530893
 20
151.9567526621
 10
58.8674530893
 20
151.9567526621
  0
LWPOLYLINE
  5
C3
330
1F
100
AcDbEntity
  8
0
  6
HIDDEN
 62
     7
370
    18
100
AcDbPolyline
 90
        2
 70
   128
 43
0.0
 10
55.7629089605
 20
143.1063770615
 10
55.7629089605
 20
143.1063770615
  0
LWPOLYLINE
  5
C4
330
1F
100
AcDbEntity
  8
0
  6
HIDDEN
 62
     7
370
    18
100
AcDbPolyline
 90
        2
 70
   128
 43
0.0
 10
106.8190376816
 20
151.9567526621
 10
106.8190376816
 20
151.9567526621
  0
LWPOLYLINE
  5
C5
330
1F
100
AcDbEntity
  8
0
  6
HIDDEN
 62
     7
370
    18
100
AcDbPolyline
 90
        2
 70
   128
 43
0.0
 10
109.9235818105
 20
143.1063770615
 10
109.9235818105
 20
143.1063770615
  0
LINE
  5
C6
330
1F
100
AcDbEntity
  8
0
  6
HIDDEN
 62
     7
370
    18
100
AcDbLine
 10
55.5980268671
 20
174.232275741
 30
0.0
 11
58.8674530893
 21
174.232275741
 31
0.0
  0
LINE
  5
C7
330
1F
100
AcDbEntity
  8
0
  6
HIDDEN
 62
     7
370
    18
100
AcDbLine
 10
106.8190376816
 20
174.232275741
 30
0.0
 11
110.0884639038
 21
174.232275741
 31
0.0
  0
LINE
  5
C8
330
1F
100
AcDbEntity
  8
0
  6
HIDDEN
 62
     7
370
    18
100
AcDbLine
 10
58.8674530893
 20
152.4361009263
 30
0.0
 11
55.5980268671
 21
152.4361009263
 31
0.0
  0
LINE
  5
C9
330
1F
100
AcDbEntity
  8
0
  6
HIDDEN
 62
     7
370
    18
100
AcDbLine
 10
106.8190376816
 20
152.4361009263
 30
0.0
 11
110.0884639038
 21
152.4361009263
 31
0.0
  0
LINE
  5
CA
330
1F
100
AcDbEntity
  8
0
  6
HIDDEN
 62
     7
370
    18
100
AcDbLine
 10
107.7192769233
 20
146.9870572226
 30
0.0
 11
110.7809556282
 21
146.9870572226
 31
0.0
  0
LINE
  5
CB
330
1F
100
AcDbEntity
  8
0
  6
HIDDEN
 62
     7
370
    18
100
AcDbLine
 10
126.2239268226
 20
122.7309457964
 30
0.0
 11
109.9235818105
 21
143.1063770615
 31
0.0
  0
LINE
  5
CC
330
1F
100
AcDbEntity
  8
0
  6
HIDDEN
 62
     7
370
    18
100
AcDbLine
 10
57.9672138476
 20
146.9870572226
 30
0.0
 11
54.9055351427
 21
146.9870572226
 31
0.0
  0
LINE
  5
CD
330
1F
100
AcDbEntity
  8
0
  6
HIDDEN
 62
     7
370
    18
100
AcDbLine
 10
39.4625639483
 20
122.7309457964
 30
0.0
 11
55.7629089605
 21
143.1063770615
 31
0.0
  0
SPLINE
  5
CE
330
1F
100
AcDbEntity
  8
0
  6
HIDDEN
 62
     7
370
    18
100
AcDbSpline
210
0.0
220
0.0
230
1.0
 70
    24
 71
     3
 72
    22
 73
    18
 74
     0
 42
0.00000001
 43
0.00000001
 40
0.0
 40
0.0
 40
0.0
 40
0.0
 40
0.125
 40
0.125
 40
0.25
 40
0.25
 40
0.375
 40
0.375
 40
0.5
 40
0.5
 40
0.625
 40
0.625
 40
0.75
 40
0.75
 40
0.875
 40
0.875
 40
1.0
 40
1.0
 40
1.0
 40
1.0
 10
126.2239268226364
 20
122.730945796378
 30
0.0
 10
126.3483013735774
 20
122.5754776077017
 30
0.0
 10
126.4744183687999
 20
122.4178313636737
 30
0.0
 10
126.7297812563378
 20
122.0986277542512
 30
0.0
 10
126.8601097224593
 20
121.9357171715994
 30
0.0
 10
127.1187172718351
 20
121.6124577348796
 30
0.0
 10
127.2459687021939
 20
121.4533934469311
 30
0.0
 10
127.4962685959207
 20
121.1405185797727
 30
0.0
 10
127.620637696298
 20
120.9850572043009
 30
0.0
 10
127.8567076407416
 20
120.6899697737464
 30
0.0
 10
127.9683930679206
 20
120.5503629897727
 30
0.0
 10
128.176786031423
 20
120.2898717853947
 30
0.0
 10
128.2719312107225
 20
120.1709403112703
 30
0.0
 10
128.4328985347362
 20
119.9697311562531
 30
0.0
 10
128.4996573000723
 20
119.8862826995831
 30
0.0
 10
128.5903845512541
 20
119.7728736356058
 30
0.0
 10
128.6152124963197
 20
119.7418387042738
 30
0.0
 10
128.6152124963197
 20
119.7418387042738
 30
0.0
  0
SPLINE
  5
CF
330
1F
100
AcDbEntity
  8
0
  6
HIDDEN
 62
     7
370
    18
100
AcDbSpline
210
0.0
220
0.0
230
1.0
 70
    24
 71
     3
 72
    20
 73
    16
 74
     0
 42
0.00000001
 43
0.00000001
 40
0.0
 40
0.0
 40
0.0
 40
0.0
 40
0.1249999999999998
 40
0.1249999999999998
 40
0.2499999999999997
 40
0.2499999999999997
 40
0.4999999999999998
 40
0.4999999999999998
 40
0.6249999999999998
 40
0.6249999999999998
 40
0.7499999999999999
 40
0.7499999999999999
 40
0.8749999999999999
 40
0.8749999999999999
 40
1.0
 40
1.0
 40
1.0
 40
1.0
 10
37.07127827464512
 20
119.7418387042738
 30
0.0
 10
37.07127827464512
 20
119.7418387042738
 30
0.0
 10
37.0949970950776
 20
119.7714872298144
 30
0.0
 10
37.18634645384801
 20
119.8856739282775
 30
0.0
 10
37.25145017548923
 20
119.967053580329
 30
0.0
 10
37.49497757136545
 20
120.2714628251743
 30
0.0
 10
37.71172060818311
 20
120.5423916211963
 30
0.0
 10
38.06393938706431
 20
120.9826650947978
 30
0.0
 10
38.18820625287623
 20
121.1379986770627
 30
0.0
 10
38.43996042867851
 20
121.4526913968156
 30
0.0
 10
38.56758347233438
 20
121.6122202013854
 30
0.0
 10
38.82617830679878
 20
121.9354637444659
 30
0.0
 10
38.95660498554312
 20
122.0984970928963
 30
0.0
 10
39.2120883441531
 20
122.4178512911588
 30
0.0
 10
39.33822052363205
 20
122.5755165155075
 30
0.0
 10
39.46256394832852
 20
122.7309457963781
 30
0.0
  0
LINE
  5
D0
330
1F
100
AcDbEntity
  8
0
  6
HIDDEN
 62
     7
370
    18
100
AcDbLine
 10
59.9572618301
 20
174.232275741
 30
0.0
 11
58.8674530893
 21
174.232275741
 31
0.0
  0
LINE
  5
D1
330
1F
100
AcDbEntity
  8
0
  6
HIDDEN
 62
     7
370
    18
100
AcDbLine
 10
106.8190376816
 20
174.232275741
 30
0.0
 11
105.7292289409
 21
174.232275741
 31
0.0
  0
LINE
  5
D2
330
1F
100
AcDbEntity
  8
0
  6
HIDDEN
 62
     7
370
    18
100
AcDbLine
 10
60.5021662004
 20
174.232275741
 30
0.0
 11
60.5021662004
 21
196.2581340505
 31
0.0
  0
LINE
  5
D3
330
1F
100
AcDbEntity
  8
0
  6
HIDDEN
 62
     7
370
    18
100
AcDbLine
 10
62.1368793115
 20
196.2581340505
 30
0.0
 11
62.1368793115
 21
174.232275741
 31
0.0
  0
LINE
  5
D4
330
1F
100
AcDbEntity
  8
0
  6
HIDDEN
 62
     7
370
    18
100
AcDbLine
 10
62.1368793115
 20
174.232275741
 30
0.0
 11
60.5021662004
 21
174.232275741
 31
0.0
  0
LINE
  5
D5
330
1F
100
AcDbEntity
  8
0
  6
HIDDEN
 62
     7
370
    18
100
AcDbLine
 10
103.5496114594
 20
174.232275741
 30
0.0
 11
103.5496114594
 21
196.2581340505
 31
0.0
  0
LINE
  5
D6
330
1F
100
AcDbEntity
  8
0
  6
HIDDEN
 62
     7
370
    18
100
AcDbLine
 10
105.1843245705
 20
196.2581340505
 30
0.0
 11
105.1843245705
 21
174.232275741
 31
0.0
  0
LINE
  5
D7
330
1F
100
AcDbEntity
  8
0
  6
HIDDEN
 62
     7
370
    18
100
AcDbLine
 10
105.1843245705
 20
174.232275741
 30
0.0
 11
103.5496114594
 21
174.232275741
 31
0.0
  0
LINE
  5
D8
330
1F
100
AcDbEntity
  8
0
  6
HIDDEN
 62
     7
370
    18
100
AcDbLine
 10
60.5021662004
 20
174.232275741
 30
0.0
 11
59.9572618301
 21
174.232275741
 31
0.0
  0
LINE
  5
D9
330
1F
100
AcDbEntity
  8
0
  6
HIDDEN
 62
     7
370
    18
100
AcDbLine
 10
105.7292289409
 20
174.232275741
 30
0.0
 11
105.1843245705
 21
174.232275741
 31
0.0
  0
LINE
  5
DA
330
1F
100
AcDbEntity
  8
0
  6
Continuous
 62
     7
370
    25
100
AcDbLine
 10
208.7193056701
 20
66.3575692963
 30
0.0
 11
184.7418387043
 21
95.1305296553
 31
0.0
  0
LINE
  5
DB
330
1F
100
AcDbEntity
  8
0
  6
Continuous
 62
     7
370
    25
100
AcDbLine
 10
187.7309457964
 20
29.6731930562
 30
0.0
 11
209.0019186372
 21
38.1815821925
 31
0.0
  0
SPLINE
  5
DC
330
1F
100
AcDbEntity
  8
0
  6
Continuous
 62
     7
370
    25
100
AcDbSpline
210
0.0
220
0.0
230
1.0
 70
     8
 71
     3
 72
    20
 73
    16
 74
     0
 42
0.00000001
 43
0.00000001
 40
0.0
 40
0.0
 40
0.0
 40
0.0
 40
0.1249999999999993
 40
0.1249999999999993
 40
0.2499999999999986
 40
0.2499999999999986
 40
0.4999999999999976
 40
0.4999999999999976
 40
0.6249999999999981
 40
0.6249999999999981
 40
0.7499999999999988
 40
0.7499999999999988
 40
0.8749999999999993
 40
0.8749999999999993
 40
1.0
 40
1.0
 40
1.0
 40
1.0
 10
184.7418387042738
 20
31.69691708278891
 30
0.0
 10
184.7418387042738
 20
31.48725935985784
 30
0.0
 10
184.7714872298145
 20
31.28442350368125
 30
0.0
 10
184.8856739282774
 20
30.89186549161609
 30
0.0
 10
184.967053580329
 20
30.71295933661754
 30
0.0
 10
185.2714628251743
 20
30.22152751569137
 30
0.0
 10
185.5423916211963
 20
29.97543983835652
 30
0.0
 10
185.9826650947978
 20
29.72257002470197
 30
0.0
 10
186.1379986770627
 20
29.65635067773693
 30
0.0
 10
186.4526913968156
 20
29.56197528170965
 30
0.0
 10
186.6122202013854
 20
29.53327491475996
 30
0.0
 10
186.9354637444659
 20
29.51133292435602
 30
0.0
 10
187.0984970928963
 20
29.51849815352404
 30
0.0
 10
187.4178512911588
 20
29.5684330181307
 30
0.0
 10
187.5755165155075
 20
29.6110213438512
 30
0.0
 10
187.7309457963781
 20
29.67319305619943
 30
0.0
  0
LINE
  5
DD
330
1F
100
AcDbEntity
  8
0
  6
Continuous
 62
     7
370
    25
100
AcDbLine
 10
184.7418387043
 20
80.9630160258
 30
0.0
 11
184.7418387043
 21
31.6969170828
 31
0.0
  0
SPLINE
  5
DE
330
1F
100
AcDbEntity
  8
0
  6
Continuous
 62
     7
370
    25
100
AcDbSpline
210
0.0
220
0.0
230
1.0
 70
    24
 71
     3
 72
    11
 73
     7
 74
     0
 42
0.00000001
 43
0.00000001
 40
0.6886867865080756
 40
0.6886867865080756
 40
0.6886867865080756
 40
0.6886867865080756
 40
0.7148954248247682
 40
0.7411040631791622
 40
0.7673127015335552
 40
0.7935213398434636
 40
0.7935213398434636
 40
0.7935213398434636
 40
0.7935213398434636
 10
184.7418387042736
 20
80.96301601673008
 30
0.0
 10
184.7418387042736
 20
83.06039665711765
 30
0.0
 10
184.7418387042736
 20
87.08294523479046
 30
0.0
 10
184.7418387042737
 20
91.72277142543703
 30
0.0
 10
184.7418387042736
 20
94.53793860554185
 30
0.0
 10
184.7418387042736
 20
95.13052965532631
 30
0.0
 10
184.7418387042736
 20
95.13052965532631
 30
0.0
  0
ARC
  5
DF
330
1F
100
AcDbEntity
  8
0
  6
Continuous
 62
     7
370
    25
100
AcDbCircle
 10
217.0914483234
 20
73.3343548406
 30
0.0
 40
10.89808740734223
100
AcDbArc
 50
219.8055710923
 51
270.0
  0
LINE
  5
E0
330
1F
100
AcDbEntity
  8
0
  6
Continuous
 62
     7
370
    25
100
AcDbLine
 10
215.8098998684
 20
45.9969953184
 30
0.0
 11
211.9870572226
 21
39.3756376267
 31
0.0
  0
LINE
  5
E1
330
1F
100
AcDbEntity
  8
0
  6
Continuous
 62
     7
370
    25
100
AcDbLine
 10
211.9870572226
 20
39.3756376267
 30
0.0
 11
209.0019186372
 21
38.1815821925
 31
0.0
  0
LINE
  5
E2
330
1F
100
AcDbEntity
  8
0
  6
Continuous
 62
     7
370
    25
100
AcDbLine
 10
261.2581340505
 20
62.4362674333
 30
0.0
 11
261.2581340505
 21
55.8974149889
 31
0.0
  0
LINE
  5
E3
330
1F
100
AcDbEntity
  8
0
  6
Continuous
 62
     7
370
    25
100
AcDbLine
 10
217.0914483234
 20
62.4362674333
 30
0.0
 11
261.2581340505
 21
62.4362674333
 31
0.0
  0
LINE
  5
E4
330
1F
100
AcDbEntity
  8
0
  6
Continuous
 62
     7
370
    25
100
AcDbLine
 10
261.2581340505
 20
22.1133440261
 30
0.0
 11
261.2581340505
 21
55.8974149889
 31
0.0
  0
LINE
  5
E5
330
1F
100
AcDbEntity
  8
0
  6
Continuous
 62
     7
370
    25
100
AcDbLine
 10
239.232275741
 20
22.1133440261
 30
0.0
 11
239.232275741
 21
48.8136581741
 31
0.0
  0
LINE
  5
E6
330
1F
100
AcDbEntity
  8
0
  6
Continuous
 62
     7
370
    25
100
AcDbLine
 10
217.4361009263
 20
48.8136581741
 30
0.0
 11
239.232275741
 21
48.8136581741
 31
0.0
  0
LINE
  5
E7
330
1F
100
AcDbEntity
  8
0
  6
Continuous
 62
     7
370
    25
100
AcDbLine
 10
215.8098998684
 20
45.9969953184
 30
0.0
 11
217.4361009263
 21
48.8136581741
 31
0.0
  0
LINE
  5
E8
330
1F
100
AcDbEntity
  8
0
  6
Continuous
 62
     7
370
    25
100
AcDbLine
 10
261.2581340505
 20
17.7541090632
 30
0.0
 11
239.232275741
 21
17.7541090632
 31
0.0
  0
LINE
  5
E9
330
1F
100
AcDbEntity
  8
0
  6
Continuous
 62
     7
370
    25
100
AcDbLine
 10
239.232275741
 20
17.7541090632
 30
0.0
 11
239.232275741
 21
22.1133440261
 31
0.0
  0
LINE
  5
EA
330
1F
100
AcDbEntity
  8
0
  6
Continuous
 62
     7
370
    25
100
AcDbLine
 10
261.2581340505
 20
22.1133440261
 30
0.0
 11
261.2581340505
 21
17.7541090632
 31
0.0
  0
LWPOLYLINE
  5
EB
330
1F
100
AcDbEntity
  8
0
  6
HIDDEN
 62
     7
370
    18
100
AcDbPolyline
 90
        2
 70
   128
 43
0.0
 10
207.7389802044
 20
64.264533633
 10
207.7389802044
 20
64.264533633
  0
ARC
  5
EC
330
1F
100
AcDbEntity
  8
0
  6
HIDDEN
 62
     7
370
    18
100
AcDbCircle
 10
218.6227656536
 20
73.3343548406
 30
0.0
 40
14.16751362954487
100
AcDbArc
 50
219.8055710923
 51
270.0
  0
LINE
  5
ED
330
1F
100
AcDbEntity
  8
0
  6
HIDDEN
 62
     7
370
    18
100
AcDbLine
 10
261.2581340505
 20
59.1668412111
 30
0.0
 11
218.6227656536
 21
59.1668412111
 31
0.0
  0
LINE
  5
EE
330
1F
100
AcDbEntity
  8
0
  6
HIDDEN
 62
     7
370
    18
100
AcDbLine
 10
239.232275741
 20
21.0235352854
 30
0.0
 11
261.2581340505
 21
21.0235352854
 31
0.0
  0
LWPOLYLINE
  5
EF
330
1F
100
AcDbEntity
  8
0
  6
HIDDEN
 62
     7
370
    18
100
AcDbPolyline
 90
        2
 70
   128
 43
0.0
 10
217.0914483234
 20
62.4362674333
 10
217.0914483234
 20
62.4362674333
  0
LWPOLYLINE
  5
F0
330
1F
100
AcDbEntity
  8
0
  6
HIDDEN
 62
     7
370
    18
100
AcDbPolyline
 90
        2
 70
   128
 43
0.0
 10
218.6227656536
 20
59.1668412111
 10
218.6227656536
 20
59.1668412111
  0
LINE
  5
F1
330
1F
100
AcDbEntity
  8
0
  6
HIDDEN
 62
     7
370
    18
100
AcDbLine
 10
239.232275741
 20
19.3888221743
 30
0.0
 11
261.2581340505
 21
19.3888221743
 31
0.0
  0
LINE
  5
F2
330
1F
100
AcDbEntity
  8
0
  6
HIDDEN
 62
     7
370
    18
100
AcDbLine
 10
207.7389802044
 20
64.264533633
 30
0.0
 11
184.7418387043
 21
91.8611034331
 31
0.0
  0
ENDSEC
  0
SECTION
  2
OBJECTS
  0
DICTIONARY
  5
C
330
0
100
AcDbDictionary
281
     1
  3
ACAD_GROUP
350
D
  3
ACAD_LAYOUT
350
1A
  3
ACAD_MLINESTYLE
350
17
  3
ACAD_PLOTSETTINGS
350
19
  3
ACAD_PLOTSTYLENAME
350
E
  3
ACAD_SCALELIST
350
47
  3
DWGPROPS
350
F3
  0
DICTIONARY
  5
D
102
{ACAD_REACTORS
330
C
102
}
330
C
100
AcDbDictionary
281
     1
  0
DICTIONARY
  5
1A
102
{ACAD_REACTORS
330
C
102
}
330
C
100
AcDbDictionary
281
     1
  3
Layout1
350
1E
  3
Layout2
350
26
  3
Model
350
22
  0
DICTIONARY
  5
17
102
{ACAD_REACTORS
330
C
102
}
330
C
100
AcDbDictionary
281
     1
  3
Standard
350
18
  0
DICTIONARY
  5
19
102
{ACAD_REACTORS
330
C
102
}
330
C
100
AcDbDictionary
281
     1
  0
ACDBDICTIONARYWDFLT
  5
E
102
{ACAD_REACTORS
330
C
102
}
330
C
100
AcDbDictionary
281
     1
  3
Normal
350
F
100
AcDbDictionaryWithDefault
340
F
  0
DICTIONARY
  5
47
102
{ACAD_REACTORS
330
C
102
}
330
C
100
AcDbDictionary
281
     1
  3
A0
350
48
  3
A1
350
49
  3
A2
350
4A
  3
A3
350
4B
  3
A4
350
4C
  3
A5
350
4D
  3
A6
350
4E
  3
A7
350
4F
  3
A8
350
50
  3
A9
350
51
  3
B0
350
52
  3
B1
350
53
  3
B2
350
54
  3
B3
350
55
  3
B4
350
56
  3
B5
350
57
  3
B6
350
58
  0
XRECORD
  5
F3
102
{ACAD_REACTORS
330
C
102
}
330
C
100
AcDbXrecord
280
     1
  1
DWGPROPS COOKIE
  2

  3

  4

  6

  7

  8

  9

300
=
301
=
302
=
303
=
304
=
305
=
306
=
307
=
308
=
309
=
 40
0.0
 41
2461215.057982963
 42
2461215.057983299
  1

 90
        0
  0
LAYOUT
  5
1E
102
{ACAD_REACTORS
330
1A
102
}
330
1A
100
AcDbPlotSettings
  1

  2
none_device
  4

  6

 40
0.0
 41
0.0
 42
0.0
 43
0.0
 44
0.0
 45
0.0
 46
0.0
 47
0.0
 48
0.0
 49
0.0
140
0.0
141
0.0
142
1.0
143
1.0
 70
   688
 72
     1
 73
     0
 74
     5
  7

 75
    16
147
1.0
148
0.0
149
0.0
100
AcDbLayout
  1
Layout1
 70
     1
 71
     1
 10
0.0
 20
0.0
 11
420.0
 21
297.0
 12
0.0
 22
0.0
 32
0.0
 14
1.0000000000E+20
 24
1.0000000000E+20
 34
1.0000000000E+20
 15
-1.0000000000E+20
 25
-1.0000000000E+20
 35
-1.0000000000E+20
146
0.0
 13
0.0
 23
0.0
 33
0.0
 16
1.0
 26
0.0
 36
0.0
 17
0.0
 27
1.0
 37
0.0
 76
     0
330
1B
  0
LAYOUT
  5
26
102
{ACAD_REACTORS
330
1A
102
}
330
1A
100
AcDbPlotSettings
  1

  2
none_device
  4

  6

 40
0.0
 41
0.0
 42
0.0
 43
0.0
 44
0.0
 45
0.0
 46
0.0
 47
0.0
 48
0.0
 49
0.0
140
0.0
141
0.0
142
1.0
143
1.0
 70
   688
 72
     1
 73
     0
 74
     5
  7

 75
    16
147
1.0
148
0.0
149
0.0
100
AcDbLayout
  1
Layout2
 70
     1
 71
     2
 10
0.0
 20
0.0
 11
0.0
 21
0.0
 12
0.0
 22
0.0
 32
0.0
 14
0.0
 24
0.0
 34
0.0
 15
0.0
 25
0.0
 35
0.0
146
0.0
 13
0.0
 23
0.0
 33
0.0
 16
1.0
 26
0.0
 36
0.0
 17
0.0
 27
1.0
 37
0.0
 76
     0
330
23
  0
LAYOUT
  5
22
102
{ACAD_REACTORS
330
1A
102
}
330
1A
100
AcDbPlotSettings
  1

  2
none_device
  4
Letter_(8.50_x_11.00_Inches)
  6

 40
6.35
 41
6.35
 42
6.35000508
 43
6.35000508
 44
215.9
 45
279.4
 46
0.0
 47
0.0
 48
0.0
 49
0.0
140
0.0
141
0.0
142
1.0
143
1.0
 70
  1712
 72
     1
 73
     0
 74
     0
  7

 75
     0
147
1.0
148
0.0
149
0.0
100
AcDbLayout
  1
Model
 70
     1
 71
     0
 10
0.0
 20
0.0
 11
297.0
 21
210.0
 12
0.0
 22
0.0
 32
0.0
 14
0.0
 24
0.0
 34
0.0
 15
297.0
 25
210.0
 35
0.0
146
0.0
 13
0.0
 23
0.0
 33
0.0
 16
1.0
 26
0.0
 36
0.0
 17
0.0
 27
1.0
 37
0.0
 76
     0
330
1F
331
29
  0
MLINESTYLE
  5
18
102
{ACAD_REACTORS
330
17
102
}
330
17
100
AcDbMlineStyle
  2
Standard
 70
     0
  3

 62
   256
 51
90.0
 52
90.0
 71
     2
 49
0.5
 62
   256
  6
BYLAYER
 49
-0.5
 62
   256
  6
BYLAYER
  0
ACDBPLACEHOLDER
  5
F
102
{ACAD_REACTORS
330
E
102
}
330
E
  0
SCALE
  5
48
102
{ACAD_REACTORS
330
47
102
}
330
47
100
AcDbScale
 70
     0
300
1:1
140
1.0
141
1.0
290
     1
  0
SCALE
  5
49
102
{ACAD_REACTORS
330
47
102
}
330
47
100
AcDbScale
 70
     0
300
1:2
140
1.0
141
2.0
290
     0
  0
SCALE
  5
4A
102
{ACAD_REACTORS
330
47
102
}
330
47
100
AcDbScale
 70
     0
300
1:4
140
1.0
141
4.0
290
     0
  0
SCALE
  5
4B
102
{ACAD_REACTORS
330
47
102
}
330
47
100
AcDbScale
 70
     0
300
1:5
140
1.0
141
5.0
290
     0
  0
SCALE
  5
4C
102
{ACAD_REACTORS
330
47
102
}
330
47
100
AcDbScale
 70
     0
300
1:8
140
1.0
141
8.0
290
     0
  0
SCALE
  5
4D
102
{ACAD_REACTORS
330
47
102
}
330
47
100
AcDbScale
 70
     0
300
1:10
140
1.0
141
10.0
290
     0
  0
SCALE
  5
4E
102
{ACAD_REACTORS
330
47
102
}
330
47
100
AcDbScale
 70
     0
300
1:16
140
1.0
141
16.0
290
     0
  0
SCALE
  5
4F
102
{ACAD_REACTORS
330
47
102
}
330
47
100
AcDbScale
 70
     0
300
1:20
140
1.0
141
20.0
290
     0
  0
SCALE
  5
50
102
{ACAD_REACTORS
330
47
102
}
330
47
100
AcDbScale
 70
     0
300
1:30
140
1.0
141
30.0
290
     0
  0
SCALE
  5
51
102
{ACAD_REACTORS
330
47
102
}
330
47
100
AcDbScale
 70
     0
300
1:40
140
1.0
141
40.0
290
     0
  0
SCALE
  5
52
102
{ACAD_REACTORS
330
47
102
}
330
47
100
AcDbScale
 70
     0
300
1:50
140
1.0
141
50.0
290
     0
  0
SCALE
  5
53
102
{ACAD_REACTORS
330
47
102
}
330
47
100
AcDbScale
 70
     0
300
1:100
140
1.0
141
100.0
290
     0
  0
SCALE
  5
54
102
{ACAD_REACTORS
330
47
102
}
330
47
100
AcDbScale
 70
     0
300
2:1
140
2.0
141
1.0
290
     0
  0
SCALE
  5
55
102
{ACAD_REACTORS
330
47
102
}
330
47
100
AcDbScale
 70
     0
300
4:1
140
4.0
141
1.0
290
     0
  0
SCALE
  5
56
102
{ACAD_REACTORS
330
47
102
}
330
47
100
AcDbScale
 70
     0
300
8:1
140
8.0
141
1.0
290
     0
  0
SCALE
  5
57
102
{ACAD_REACTORS
330
47
102
}
330
47
100
AcDbScale
 70
     0
300
10:1
140
10.0
141
1.0
290
     0
  0
SCALE
  5
58
102
{ACAD_REACTORS
330
47
102
}
330
47
100
AcDbScale
 70
     0
300
100:1
140
100.0
141
1.0
290
     0
  0
ENDSEC
  0
EOF
