  0
SECTION
  2
HEADER
  9
$ACADVER
  1
AC1015
  9
$ACADMAINTVER
 70
     6
  9
$DWGCODEPAGE
  3
ANSI_936
  9
$INSBASE
 10
0.0
 20
0.0
 30
0.0
  9
$EXTMIN
 10
0.0
 20
0.0
 30
0.0
  9
$EXTMAX
 10
297.0
 20
210.0
 30
0.0
  9
$LIMMIN
 10
0.0
 20
0.0
  9
$LIMMAX
 10
297.0
 20
210.0
  9
$ORTHOMODE
 70
     0
  9
$REGENMODE
 70
     1
  9
$FILLMODE
 70
     1
  9
$QTEXTMODE
 70
     0
  9
$MIRRTEXT
 70
     1
  9
$LTSCALE
 40
1.0
  9
$ATTMODE
 70
     1
  9
$TEXTSIZE
 40
3.5
  9
$TRACEWID
 40
1.0
  9
$TEXTSTYLE
  7
Standard
  9
$CLAYER
  8
0
  9
$CELTYPE
  6
ByLayer
  9
$CECOLOR
 62
   256
  9
$CELTSCALE
 40
1.0
  9
$DISPSILH
 70
     0
  9
$DIMSCALE
 40
1.0
  9
$DIMASZ
 40
4.08
  9
$DIMEXO
 40
0.0
  9
$DIMDLI
 40
3.75
  9
$DIMRND
 40
0.0
  9
$DIMDLE
 40
0.0
  9
$DIMEXE
 40
2.0
  9
$DIMTP
 40
0.0
  9
$DIMTM
 40
0.0
  9
$DIMTXT
 40
3.5
  9
$DIMCEN
 40
2.5
  9
$DIMTSZ
 40
0.0
  9
$DIMTOL
 70
     0
  9
$DIMLIM
 70
     0
  9
$DIMTIH
 70
     1
  9
$DIMTOH
 70
     1
  9
$DIMSE1
 70
     0
  9
$DIMSE2
 70
     0
  9
$DIMTAD
 70
     1
  9
$DIMZIN
 70
     0
  9
$DIMBLK
  1

  9
$DIMASO
 70
     1
  9
$DIMSHO
 70
     1
  9
$DIMPOST
  1

  9
$DIMAPOST
  1

  9
$DIMALT
 70
     0
  9
$DIMALTD
 70
     3
  9
$DIMALTF
 40
0.0393700787
  9
$DIMLFAC
 40
2.0
  9
$DIMTOFL
 70
     1
  9
$DIMTVP
 40
0.0
  9
$DIMTIX
 70
     0
  9
$DIMSOXD
 70
     0
  9
$DIMSAH
 70
     0
  9
$DIMBLK1
  1

  9
$DIMBLK2
  1

  9
$DIMSTYLE
  2
ISO-25
  9
$DIMCLRD
 70
     0
  9
$DIMCLRE
 70
     0
  9
$DIMCLRT
 70
     0
  9
$DIMTFAC
 40
1.0
  9
$DIMGAP
 40
1.524
  9
$DIMJUST
 70
     0
  9
$DIMSD1
 70
     0
  9
$DIMSD2
 70
     0
  9
$DIMTOLJ
 70
     0
  9
$DIMTZIN
 70
     0
  9
$DIMALTZ
 70
     0
  9
$DIMALTTZ
 70
     0
  9
$DIMUPT
 70
     0
  9
$DIMDEC
 70
     2
  9
$DIMTDEC
 70
     2
  9
$DIMALTU
 70
     2
  9
$DIMALTTD
 70
     3
  9
$DIMTXSTY
  7
Standard
  9
$DIMAUNIT
 70
     0
  9
$DIMADEC
 70
     2
  9
$DIMALTRND
 40
0.0
  9
$DIMAZIN
 70
     0
  9
$DIMDSEP
 70
    44
  9
$DIMATFIT
 70
     3
  9
$DIMFRAC
 70
     0
  9
$DIMLDRBLK
  1

  9
$DIMLUNIT
 70
     2
  9
$DIMLWD
 70
    -2
  9
$DIMLWE
 70
    -2
  9
$DIMTMOVE
 70
     0
  9
$LUNITS
 70
     2
  9
$LUPREC
 70
     2
  9
$SKETCHINC
 40
1.0
  9
$FILLETRAD
 40
0.0
  9
$AUNITS
 70
     0
  9
$AUPREC
 70
     2
  9
$MENU
  1
.
  9
$ELEVATION
 40
0.0
  9
$PELEVATION
 40
0.0
  9
$THICKNESS
 40
0.0
  9
$LIMCHECK
 70
     0
  9
$CHAMFERA
 40
0.0
  9
$CHAMFERB
 40
0.0
  9
$CHAMFERC
 40
0.0
  9
$CHAMFERD
 40
0.0
  9
$SKPOLY
 70
     0
  9
$TDCREATE
 40
2461215.408784653
  9
$TDUCREATE
 40
2461215.07545132
  9
$TDUPDATE
 40
2461215.408784954
  9
$TDUUPDATE
 40
2461215.075451621
  9
$TDINDWG
 40
0.0000000116
  9
$TDUSRTIMER
 40
0.0000000116
  9
$USRTIMER
 70
     1
  9
$ANGBASE
 50
0.0
  9
$ANGDIR
 70
     0
  9
$PDMODE
 70
     0
  9
$PDSIZE
 40
-1.0
  9
$PLINEWID
 40
0.0
  9
$SPLFRAME
 70
     0
  9
$SPLINETYPE
 70
     6
  9
$SPLINESEGS
 70
     8
  9
$HANDSEED
  5
89
  9
$SURFTAB1
 70
     6
  9
$SURFTAB2
 70
     6
  9
$SURFTYPE
 70
     6
  9
$SURFU
 70
     6
  9
$SURFV
 70
     6
  9
$UCSBASE
  2

  9
$UCSNAME
  2

  9
$UCSORG
 10
0.0
 20
0.0
 30
0.0
  9
$UCSXDIR
 10
1.0
 20
0.0
 30
0.0
  9
$UCSYDIR
 10
0.0
 20
1.0
 30
0.0
  9
$UCSORTHOREF
  2

  9
$UCSORTHOVIEW
 70
     0
  9
$UCSORGTOP
 10
0.0
 20
0.0
 30
0.0
  9
$UCSORGBOTTOM
 10
0.0
 20
0.0
 30
0.0
  9
$UCSORGLEFT
 10
0.0
 20
0.0
 30
0.0
  9
$UCSORGRIGHT
 10
0.0
 20
0.0
 30
0.0
  9
$UCSORGFRONT
 10
0.0
 20
0.0
 30
0.0
  9
$UCSORGBACK
 10
0.0
 20
0.0
 30
0.0
  9
$PUCSBASE
  2

  9
$PUCSNAME
  2

  9
$PUCSORG
 10
0.0
 20
0.0
 30
0.0
  9
$PUCSXDIR
 10
1.0
 20
0.0
 30
0.0
  9
$PUCSYDIR
 10
0.0
 20
1.0
 30
0.0
  9
$PUCSORTHOREF
  2

  9
$PUCSORTHOVIEW
 70
     0
  9
$PUCSORGTOP
 10
0.0
 20
0.0
 30
0.0
  9
$PUCSORGBOTTOM
 10
0.0
 20
0.0
 30
0.0
  9
$PUCSORGLEFT
 10
0.0
 20
0.0
 30
0.0
  9
$PUCSORGRIGHT
 10
0.0
 20
0.0
 30
0.0
  9
$PUCSORGFRONT
 10
0.0
 20
0.0
 30
0.0
  9
$PUCSORGBACK
 10
0.0
 20
0.0
 30
0.0
  9
$USERI1
 70
     0
  9
$USERI2
 70
     0
  9
$USERI3
 70
     0
  9
$USERI4
 70
     0
  9
$USERI5
 70
     0
  9
$USERR1
 40
0.0
  9
$USERR2
 40
0.0
  9
$USERR3
 40
0.0
  9
$USERR4
 40
0.0
  9
$USERR5
 40
0.0
  9
$WORLDVIEW
 70
     1
  9
$SHADEDGE
 70
     3
  9
$SHADEDIF
 70
    70
  9
$TILEMODE
 70
     1
  9
$MAXACTVP
 70
    64
  9
$PINSBASE
 10
0.0
 20
0.0
 30
0.0
  9
$PLIMCHECK
 70
     0
  9
$PEXTMIN
 10
1.0000000000E+20
 20
1.0000000000E+20
 30
1.0000000000E+20
  9
$PEXTMAX
 10
-1.0000000000E+20
 20
-1.0000000000E+20
 30
-1.0000000000E+20
  9
$PLIMMIN
 10
0.0
 20
0.0
  9
$PLIMMAX
 10
420.0
 20
297.0
  9
$UNITMODE
 70
     0
  9
$VISRETAIN
 70
     1
  9
$PLINEGEN
 70
     0
  9
$PSLTSCALE
 70
     1
  9
$TREEDEPTH
 70
  3020
  9
$CMLSTYLE
  2
Standard
  9
$CMLJUST
 70
     0
  9
$CMLSCALE
 40
20.0
  9
$PROXYGRAPHICS
 70
     1
  9
$MEASUREMENT
 70
     1
  9
$CELWEIGHT
370
    -1
  9
$ENDCAPS
280
     0
  9
$JOINSTYLE
280
     0
  9
$LWDISPLAY
290
     1
  9
$INSUNITS
 70
     4
  9
$HYPERLINKBASE
  1

  9
$STYLESHEET
  1

  9
$XEDIT
290
     1
  9
$CEPSNTYPE
380
     0
  9
$PSTYLEMODE
290
     1
  9
$FINGERPRINTGUID
  2
{ad4b454a-5391-4371-8dbf-19ed934902eb}
  9
$VERSIONGUID
  2
{FAEB1C32-E019-11D5-929B-00C0DF256EC4}
  9
$EXTNAMES
290
     1
  9
$PSVPSCALE
 40
0.0
  9
$OLESTARTUP
290
     0
  0
ENDSEC
  0
SECTION
  2
CLASSES
  0
CLASS
  1
ACDBDICTIONARYWDFLT
  2
AcDbDictionaryWithDefault
  3
ObjectDBX Classes
 90
        0
280
     0
281
     0
  0
CLASS
  1
VISUALSTYLE
  2
AcDbVisualStyle
  3
ObjectDBX Classes
 90
     4095
280
     0
281
     0
  0
CLASS
  1
MATERIAL
  2
AcDbMaterial
  3
ObjectDBX Classes
 90
     1153
280
     0
281
     0
  0
CLASS
  1
SCALE
  2
AcDbScale
  3
ObjectDBX Classes
 90
     1153
280
     0
281
     0
  0
CLASS
  1
TABLESTYLE
  2
AcDbTableStyle
  3
ObjectDBX Classes
 90
     4095
280
     0
281
     0
  0
CLASS
  1
MLEADERSTYLE
  2
AcDbMLeaderStyle
  3
ACDB_MLEADERSTYLE_CLASS
 90
     4095
280
     0
281
     0
  0
CLASS
  1
SUN
  2
AcDbSun
  3
SCENEOE
 90
     1153
280
     0
281
     0
  0
CLASS
  1
ACDBPLACEHOLDER
  2
AcDbPlaceHolder
  3
ObjectDBX Classes
 90
        0
280
     0
281
     0
  0
CLASS
  1
LAYOUT
  2
AcDbLayout
  3
ObjectDBX Classes
 90
        0
280
     0
281
     0
  0
ENDSEC
  0
SECTION
  2
TABLES
  0
TABLE
  2
VPORT
  5
8
330
0
100
AcDbSymbolTable
 70
     1
  0
VPORT
  5
29
330
8
100
AcDbSymbolTableRecord
100
AcDbViewportTableRecord
  2
*Active
 70
     0
 10
0.0
 20
0.0
 11
1.0
 21
1.0
 12
148.5
 22
105.0
 13
0.0
 23
0.0
 14
10.0
 24
10.0
 15
10.0
 25
10.0
 16
0.0
 26
0.0
 36
1.0
 17
0.0
 27
0.0
 37
0.0
 40
210.0
 41
1.4142857143
 42
50.0
 43
0.0
 44
0.0
 50
0.0
 51
0.0
 71
     0
 72
  2000
 73
     1
 74
     3
 75
     0
 76
     0
 77
     0
 78
     0
281
     0
 65
     1
110
0.0
120
0.0
130
0.0
111
1.0
121
0.0
131
0.0
112
0.0
122
1.0
132
0.0
 79
     0
146
0.0
  0
ENDTAB
  0
TABLE
  2
LTYPE
  5
5
330
0
100
AcDbSymbolTable
 70
     6
  0
LTYPE
  5
14
330
5
100
AcDbSymbolTableRecord
100
AcDbLinetypeTableRecord
  2
ByBlock
 70
     0
  3

 72
    65
 73
     0
 40
0.0
  0
LTYPE
  5
15
330
5
100
AcDbSymbolTableRecord
100
AcDbLinetypeTableRecord
  2
ByLayer
 70
     0
  3

 72
    65
 73
     0
 40
0.0
  0
LTYPE
  5
16
330
5
100
AcDbSymbolTableRecord
100
AcDbLinetypeTableRecord
  2
Continuous
 70
     0
  3
Solid line
 72
    65
 73
     0
 40
0.0
  0
LTYPE
  5
5E
330
5
100
AcDbSymbolTableRecord
100
AcDbLinetypeTableRecord
  2
HIDDEN
 70
     0
  3
Hidden __ __ __ __ __ __ __ __ __ __ __ __ __ __
 72
    65
 73
     2
 40
1.905
 49
1.27
 74
     0
 49
-0.635
 74
     0
  0
LTYPE
  5
5F
330
5
100
AcDbSymbolTableRecord
100
AcDbLinetypeTableRecord
  2
PHANTOM
 70
     0
  3
Phantom ______  __  __  ______  __  __  ______
 72
    65
 73
     6
 40
12.7
 49
6.35
 74
     0
 49
-1.27
 74
     0
 49
1.27
 74
     0
 49
-1.27
 74
     0
 49
1.27
 74
     0
 49
-1.27
 74
     0
  0
LTYPE
  5
60
330
5
100
AcDbSymbolTableRecord
100
AcDbLinetypeTableRecord
  2
CENTER
 70
     0
  3
Center ____ _ ____ _ ____ _ ____ _ ____ _ ____
 72
    65
 73
     4
 40
10.16
 49
6.35
 74
     0
 49
-1.27
 74
     0
 49
1.27
 74
     0
 49
-1.27
 74
     0
  0
LTYPE
  5
61
330
5
100
AcDbSymbolTableRecord
100
AcDbLinetypeTableRecord
  2
CENTERX2
 70
     0
  3
Center (2x) ________  __  ________  __  _____
 72
    65
 73
     4
 40
20.32
 49
12.7
 74
     0
 49
-2.54
 74
     0
 49
2.54
 74
     0
 49
-2.54
 74
     0
  0
LTYPE
  5
62
330
5
100
AcDbSymbolTableRecord
100
AcDbLinetypeTableRecord
  2
DOT2
 70
     0
  3
Dot (.5x) ........................................
 72
    65
 73
     2
 40
0.635
 49
0.0
 74
     0
 49
-0.635
 74
     0
  0
ENDTAB
  0
TABLE
  2
LAYER
  5
2
330
0
100
AcDbSymbolTable
 70
    14
  0
LAYER
  5
10
330
2
100
AcDbSymbolTableRecord
100
AcDbLayerTableRecord
  2
0
 70
     0
 62
     7
  6
Continuous
370
    -3
390
F
  0
LAYER
  5
63
330
2
100
AcDbSymbolTableRecord
100
AcDbLayerTableRecord
  2
SLD-0
 70
     0
 62
     7
  6
Continuous
370
    -3
390
F
  0
LAYER
  5
64
330
2
100
AcDbSymbolTableRecord
100
AcDbLayerTableRecord
  2
5
 70
     0
 62
     7
  6
Continuous
370
    -3
390
F
  0
LAYER
  5
65
330
2
100
AcDbSymbolTableRecord
100
AcDbLayerTableRecord
  2
9
 70
     0
 62
     7
  6
Continuous
370
    -3
390
F
  0
LAYER
  5
66
330
2
100
AcDbSymbolTableRecord
100
AcDbLayerTableRecord
  2
10
 70
     0
 62
     7
  6
Continuous
370
    -3
390
F
  0
LAYER
  5
67
330
2
100
AcDbSymbolTableRecord
100
AcDbLayerTableRecord
  2
轮廓实线层
 70
     0
 62
     7
  6
Continuous
370
    50
390
F
  0
LAYER
  5
68
330
2
100
AcDbSymbolTableRecord
100
AcDbLayerTableRecord
  2
细线层
 70
     0
 62
     4
  6
Continuous
370
    25
390
F
  0
LAYER
  5
69
330
2
100
AcDbSymbolTableRecord
100
AcDbLayerTableRecord
  2
中心线层
 70
     0
 62
     1
  6
CENTERX2
370
    25
390
F
  0
LAYER
  5
6A
330
2
100
AcDbSymbolTableRecord
100
AcDbLayerTableRecord
  2
虚线层
 70
     0
 62
     6
  6
HIDDEN
370
    25
390
F
  0
LAYER
  5
6B
330
2
100
AcDbSymbolTableRecord
100
AcDbLayerTableRecord
  2
剖面线层
 70
     0
 62
     2
  6
Continuous
370
    25
390
F
  0
LAYER
  5
6C
330
2
100
AcDbSymbolTableRecord
100
AcDbLayerTableRecord
  2
文字层
 70
     0
 62
     3
  6
Continuous
370
    25
390
F
  0
LAYER
  5
6D
330
2
100
AcDbSymbolTableRecord
100
AcDbLayerTableRecord
  2
标注层
 70
     0
 62
     4
  6
Continuous
370
    25
390
F
  0
LAYER
  5
6E
330
2
100
AcDbSymbolTableRecord
100
AcDbLayerTableRecord
  2
符号标注层
 70
     0
 62
    31
  6
Continuous
370
    25
390
F
  0
LAYER
  5
6F
330
2
100
AcDbSymbolTableRecord
100
AcDbLayerTableRecord
  2
双点划线层
 70
     0
 62
     6
  6
PHANTOM
370
    25
390
F
  0
ENDTAB
  0
TABLE
  2
STYLE
  5
3
330
0
100
AcDbSymbolTable
 70
     1
  0
STYLE
  5
11
330
3
100
AcDbSymbolTableRecord
100
AcDbTextStyleTableRecord
  2
Standard
 70
     0
 40
0.0
 41
1.0
 50
0.0
 71
     0
 42
3.5
  3
txt
  4

  0
ENDTAB
  0
TABLE
  2
VIEW
  5
6
330
0
100
AcDbSymbolTable
 70
     0
  0
ENDTAB
  0
TABLE
  2
UCS
  5
7
330
0
100
AcDbSymbolTable
 70
     0
  0
ENDTAB
  0
TABLE
  2
APPID
  5
9
330
0
100
AcDbSymbolTable
 70
     1
  0
APPID
  5
12
330
9
100
AcDbSymbolTableRecord
100
AcDbRegAppTableRecord
  2
ACAD
 70
     0
  0
ENDTAB
  0
TABLE
  2
DIMSTYLE
  5
A
330
0
100
AcDbSymbolTable
 70
     1
100
AcDbDimStyleTable
  0
DIMSTYLE
105
27
330
A
100
AcDbSymbolTableRecord
100
AcDbDimStyleTableRecord
  2
ISO-25
 70
     0
 41
2.5
 42
0.625
 43
3.75
 44
1.25
 73
     0
 74
     0
 77
     1
 78
     8
140
2.5
141
2.5
143
0.0393700787
147
0.625
171
     3
172
     1
178
     0
271
     2
272
     2
274
     3
278
    44
283
     0
284
     8
340
11
  0
ENDTAB
  0
TABLE
  2
BLOCK_RECORD
  5
1
330
0
100
AcDbSymbolTable
 70
     1
  0
BLOCK_RECORD
  5
1F
330
1
100
AcDbSymbolTableRecord
100
AcDbBlockTableRecord
  2
*Model_Space
340
22
  0
BLOCK_RECORD
  5
1B
330
1
100
AcDbSymbolTableRecord
100
AcDbBlockTableRecord
  2
*Paper_Space
340
1E
  0
BLOCK_RECORD
  5
23
330
1
100
AcDbSymbolTableRecord
100
AcDbBlockTableRecord
  2
*Paper_Space0
340
26
  0
ENDTAB
  0
ENDSEC
  0
SECTION
  2
BLOCKS
  0
BLOCK
  5
20
330
1F
100
AcDbEntity
  8
0
100
AcDbBlockBegin
  2
*Model_Space
 70
     0
 10
0.0
 20
0.0
 30
0.0
  3
*Model_Space
  1

  0
ENDBLK
  5
21
330
1F
100
AcDbEntity
  8
0
100
AcDbBlockEnd
  0
BLOCK
  5
1C
330
1B
100
AcDbEntity
 67
     1
  8
0
100
AcDbBlockBegin
  2
*Paper_Space
 70
     0
 10
0.0
 20
0.0
 30
0.0
  3
*Paper_Space
  1

  0
ENDBLK
  5
1D
330
1B
100
AcDbEntity
 67
     1
  8
0
100
AcDbBlockEnd
  0
BLOCK
  5
24
330
23
100
AcDbEntity
  8
0
100
AcDbBlockBegin
  2
*Paper_Space0
 70
     0
 10
0.0
 20
0.0
 30
0.0
  3
*Paper_Space0
  1

  0
ENDBLK
  5
25
330
23
100
AcDbEntity
  8
0
100
AcDbBlockEnd
  0
ENDSEC
  0
SECTION
  2
ENTITIES
  0
LINE
  5
70
330
1F
100
AcDbEntity
  8
0
  6
Continuous
 62
     7
370
    25
100
AcDbLine
 10
129.3314570675
 20
79.4393959827
 30
0.0
 11
93.4995870502
 21
79.4393959827
 31
0.0
  0
SPLINE
  5
71
330
1F
100
AcDbEntity
  8
0
  6
Continuous
 62
     7
370
    25
100
AcDbSpline
210
0.0
220
0.0
230
1.0
 70
     8
 71
     3
 72
    11
 73
     7
 74
     0
 42
0.00000001
 43
0.00000001
 40
0.0
 40
0.0
 40
0.0
 40
0.0
 40
0.285714285714286
 40
0.571428571428571
 40
0.857142857142857
 40
1.0
 40
1.0
 40
1.0
 40
1.0
 10
36.66854293252557
 20
79.4393959826559
 30
0.0
 10
36.66854293252557
 20
66.4130578115846
 30
0.0
 10
49.96754067795482
 20
40.48899852130223
 30
0.0
 10
94.83490092459468
 20
30.85961428014716
 30
0.0
 10
124.7589038092574
 20
53.30071172532924
 30
0.0
 10
129.3314570674744
 20
72.92622689712003
 30
0.0
 10
129.3314570674744
 20
79.4393959826559
 30
0.0
  0
LINE
  5
72
330
1F
100
AcDbEntity
  8
0
  6
Continuous
 62
     7
370
    25
100
AcDbLine
 10
72.5004273704
 20
79.4393959826
 30
0.0
 11
36.6685429325
 21
79.4393959827
 31
0.0
  0
SPLINE
  5
73
330
1F
100
AcDbEntity
  8
0
  6
Continuous
 62
     7
370
    25
100
AcDbSpline
210
0.0
220
0.0
230
1.0
 70
     8
 71
     3
 72
    56
 73
    52
 74
     0
 42
0.00000001
 43
0.00000001
 40
0.0
 40
0.0
 40
0.0
 40
0.0
 40
0.1250000000000001
 40
0.1250000000000001
 40
0.1875000000000003
 40
0.1875000000000003
 40
0.2500000000000004
 40
0.2500000000000004
 40
0.3125000000000005
 40
0.3125000000000005
 40
0.3750000000000007
 40
0.3750000000000007
 40
0.4062500000000007
 40
0.4062500000000007
 40
0.4375000000000008
 40
0.4375000000000008
 40
0.4531250000000008
 40
0.4531250000000008
 40
0.4609375000000008
 40
0.4609375000000008
 40
0.4687500000000008
 40
0.4687500000000008
 40
0.4843750000000009
 40
0.4843750000000009
 40
0.4921875000000009
 40
0.4921875000000009
 40
0.5000000000000009
 40
0.5000000000000009
 40
0.5156250000000009
 40
0.5156250000000009
 40
0.5312500000000009
 40
0.5312500000000009
 40
0.5468750000000009
 40
0.5468750000000009
 40
0.562500000000001
 40
0.562500000000001
 40
0.5937500000000009
 40
0.5937500000000009
 40
0.6250000000000008
 40
0.6250000000000008
 40
0.6875000000000008
 40
0.6875000000000008
 40
0.7500000000000006
 40
0.7500000000000006
 40
0.7812500000000006
 40
0.7812500000000006
 40
0.8125000000000004
 40
0.8125000000000004
 40
0.8750000000000003
 40
0.8750000000000003
 40
1.0
 40
1.0
 40
1.0
 40
1.0
 10
93.49959358765553
 20
79.4393306937897
 30
0.0
 10
93.49964058886425
 20
76.74710764994275
 30
0.0
 10
93.3652581953737
 20
74.07195832814803
 30
0.0
 10
92.94519175148955
 20
70.08698487027179
 30
0.0
 10
92.76832481086272
 20
68.76333999884562
 30
0.0
 10
92.32961846764096
 20
66.12684251017983
 30
0.0
 10
92.06804772072692
 20
64.81395577129268
 30
0.0
 10
91.43819286507598
 20
62.20173583426811
 30
0.0
 10
91.07043829841238
 20
60.90136206268598
 30
0.0
 10
90.18278431067645
 20
58.32391539536644
 30
0.0
 10
89.670410406993
 20
57.06139723170666
 30
0.0
 10
88.72533335156388
 20
55.23510132182621
 30
0.0
 10
88.38005877571912
 20
54.63806749677457
 30
0.0
 10
87.61357177177615
 20
53.49852594350962
 30
0.0
 10
87.19251221777141
 20
52.95315415927135
 30
0.0
 10
86.46384238341497
 20
52.19773301781093
 30
0.0
 10
86.20504761134278
 20
51.95765527322797
 30
0.0
 10
85.79258408327341
 20
51.62833640674924
 30
0.0
 10
85.65074571646055
 20
51.52343184552585
 30
0.0
 10
85.35679188130942
 20
51.32512317239469
 30
0.0
 10
85.20386777039313
 20
51.23131657152291
 30
0.0
 10
84.73516519349575
 20
50.97525949457093
 30
0.0
 10
84.4086193565746
 20
50.83701538768813
 30
0.0
 10
83.89161594872184
 20
50.69233318544879
 30
0.0
 10
83.71322456489527
 20
50.65444294904263
 30
0.0
 10
83.3531858761335
 20
50.60414289462661
 30
0.0
 10
83.1730370424035
 20
50.59173676330273
 30
0.0
 10
82.63220195563474
 20
50.59276162401638
 30
0.0
 10
82.26675025332645
 20
50.64663330497313
 30
0.0
 10
81.57463260548747
 20
50.84314656108921
 30
0.0
 10
81.24014045734161
 20
50.98676922939474
 30
0.0
 10
80.61696350276272
 20
51.33133616538303
 30
0.0
 10
80.32698860598451
 20
51.53151381561081
 30
0.0
 10
79.7783866691042
 20
51.97232621785484
 30
0.0
 10
79.5192532340687
 20
52.21411040251341
 30
0.0
 10
78.79515172450661
 20
52.96835737931363
 30
0.0
 10
78.37460981357675
 20
53.51435677634615
 30
0.0
 10
77.60780162895446
 20
54.65791066564283
 30
0.0
 10
77.26248743875075
 20
55.25720601524829
 30
0.0
 10
76.32483773270555
 20
57.07349787246037
 30
0.0
 10
75.81845582837133
 20
58.32263283573144
 30
0.0
 10
74.94141343670759
 20
60.86465828879444
 30
0.0
 10
74.57339614647235
 20
62.15840092471848
 30
0.0
 10
74.09785226530921
 20
64.12367209648765
 30
0.0
 10
73.9522619720809
 20
64.78349535461587
 30
0.0
 10
73.68565928748839
 20
66.10365563254089
 30
0.0
 10
73.56443369958855
 20
66.7648296556079
 30
0.0
 10
73.23328568480862
 20
68.75129834662755
 30
0.0
 10
73.05564302249387
 20
70.07951708211213
 30
0.0
 10
72.63431682512469
 20
74.07428275416446
 30
0.0
 10
72.50046108045854
 20
76.7507784583363
 30
0.0
 10
72.50042218233405
 20
79.43939598252356
 30
0.0
  0
LINE
  5
74
330
1F
100
AcDbEntity
  8
0
  6
HIDDEN
 62
     7
370
    18
100
AcDbLine
 10
93.3629434907
 20
75.0556569168
 30
0.0
 11
93.4710223057
 21
77.3136786647
 31
0.0
  0
SPLINE
  5
75
330
1F
100
AcDbEntity
  8
0
  6
HIDDEN
 62
     7
370
    18
100
AcDbSpline
210
0.0
220
0.0
230
1.0
 70
     8
 71
     3
 72
     9
 73
     5
 74
     0
 42
0.00000001
 43
0.00000001
 40
0.0
 40
0.0
 40
0.0
 40
0.0
 40
0.4997734405998858
 40
1.0
 40
1.0
 40
1.0
 40
1.0
 10
93.4710223057212
 20
77.3136786646783
 30
0.0
 10
93.47935073342747
 20
77.66774022530146
 30
0.0
 10
93.4960151397958
 20
78.37618435590224
 30
0.0
 10
93.49840041065261
 20
79.08479800722135
 30
0.0
 10
93.49959358648653
 20
79.43926537596464
 30
0.0
  0
LINE
  5
76
330
1F
100
AcDbEntity
  8
0
  6
HIDDEN
 62
     7
370
    18
100
AcDbLine
 10
93.4995921536
 20
36.9822065072
 30
0.0
 11
93.4995921536
 21
79.4229259574
 31
0.0
  0
LINE
  5
77
330
1F
100
AcDbEntity
  8
0
  6
HIDDEN
 62
     7
370
    18
100
AcDbLine
 10
72.5004241336
 20
79.4027568963
 30
0.0
 11
72.5004241336
 21
37.0896174263
 31
0.0
  0
SPLINE
  5
78
330
1F
100
AcDbEntity
  8
0
  6
Continuous
 62
     7
370
    25
100
AcDbSpline
210
0.0
220
0.0
230
1.0
 70
     8
 71
     3
 72
    60
 73
    56
 74
     0
 42
0.00000001
 43
0.00000001
 40
0.0
 40
0.0
 40
0.0
 40
0.0
 40
0.125
 40
0.125
 40
0.1875
 40
0.1875
 40
0.25
 40
0.25
 40
0.3125
 40
0.3125
 40
0.34375
 40
0.34375
 40
0.375
 40
0.375
 40
0.40625
 40
0.40625
 40
0.4375
 40
0.4375
 40
0.453125
 40
0.453125
 40
0.46875
 40
0.46875
 40
0.484375
 40
0.484375
 40
0.5
 40
0.5
 40
0.515625
 40
0.515625
 40
0.5234375
 40
0.5234375
 40
0.53125
 40
0.53125
 40
0.5390625
 40
0.5390625
 40
0.546875
 40
0.546875
 40
0.5625
 40
0.5625
 40
0.578125
 40
0.578125
 40
0.59375
 40
0.59375
 40
0.625
 40
0.625
 40
0.65625
 40
0.65625
 40
0.6875
 40
0.6875
 40
0.75
 40
0.75
 40
0.8125
 40
0.8125
 40
0.875
 40
0.875
 40
1.0
 40
1.0
 40
1.0
 40
1.0
 10
72.50042218233403
 20
158.0310753842746
 30
0.0
 10
72.50038452710587
 20
158.9783840575183
 30
0.0
 10
72.62610758035532
 20
159.9198791731536
 30
0.0
 10
73.01793192528368
 20
161.3227266539686
 30
0.0
 10
73.18277986435508
 20
161.7887596718382
 30
0.0
 10
73.59052770883056
 20
162.7172175885693
 30
0.0
 10
73.83323754207052
 20
163.179651273923
 30
0.0
 10
74.41486187416152
 20
164.1000713782902
 30
0.0
 10
74.75317730837394
 20
164.5580854903474
 30
0.0
 10
75.3607484636054
 20
165.2404794142068
 30
0.0
 10
75.58017805830161
 20
165.4670588386478
 30
0.0
 10
76.05676491690838
 20
165.9139085779252
 30
0.0
 10
76.31422360029595
 20
166.1346667147752
 30
0.0
 10
76.87894345940164
 20
166.5692532635331
 30
0.0
 10
77.18725459289885
 20
166.7838807271851
 30
0.0
 10
77.86721952503889
 20
167.1991832844836
 30
0.0
 10
78.23765882444249
 20
167.3996822605066
 30
0.0
 10
78.86312354238112
 20
167.6840379505977
 30
0.0
 10
79.08338899769367
 20
167.7760574888697
 30
0.0
 10
79.55535021659296
 20
167.9527156576882
 30
0.0
 10
79.80605510241435
 20
168.0368960143436
 30
0.0
 10
80.33788554020369
 20
168.1913309566517
 30
0.0
 10
80.62232560458376
 20
168.2624980792372
 30
0.0
 10
81.22479487487209
 20
168.384046433441
 30
0.0
 10
81.53911084721659
 20
168.433842164749
 30
0.0
 10
82.20103740637497
 20
168.5054912913033
 30
0.0
 10
82.55357023941397
 20
168.5269349476585
 30
0.0
 10
83.07627674678061
 20
168.5318114626657
 30
0.0
 10
83.25063336611915
 20
168.5291034945577
 30
0.0
 10
83.59959043730952
 20
168.5149634101153
 30
0.0
 10
83.77381357162515
 20
168.5034676696587
 30
0.0
 10
84.112238241128
 20
168.472948170739
 30
0.0
 10
84.27781735017756
 20
168.4538847300532
 30
0.0
 10
84.60245628993204
 20
168.408932695533
 30
0.0
 10
84.76236421261305
 20
168.3828680174553
 30
0.0
 10
85.22495372544911
 20
168.2969851495785
 30
0.0
 10
85.5118629777946
 20
168.2296380338361
 30
0.0
 10
86.05471795228085
 20
168.0803988627376
 30
0.0
 10
86.31195465467253
 20
167.9978939710905
 30
0.0
 10
86.79353918536503
 20
167.8247290474623
 30
0.0
 10
87.01828468738533
 20
167.7340925064811
 30
0.0
 10
87.6564990140244
 20
167.4530821842766
 30
0.0
 10
88.03452767919565
 20
167.2537547462207
 30
0.0
 10
88.72860688828081
 20
166.8394416214582
 30
0.0
 10
89.03983517904595
 20
166.6269318648804
 30
0.0
 10
89.60974606465028
 20
166.1968325808439
 30
0.0
 10
89.86886377000738
 20
165.9787509562102
 30
0.0
 10
90.5875529731918
 20
165.3176220444009
 30
0.0
 10
90.98936099717467
 20
164.8677963831948
 30
0.0
 10
91.68728997867383
 20
163.9557429938877
 30
0.0
 10
91.98308155607138
 20
163.4922675462269
 30
0.0
 10
92.48612001023292
 20
162.5625100070859
 30
0.0
 10
92.69358304656078
 20
162.0959712088822
 30
0.0
 10
93.20547874341695
 20
160.6921914441572
 30
0.0
 10
93.40111715126656
 20
159.7508511315173
 30
0.0
 10
93.4710223057212
 20
158.804773214531
 30
0.0
  0
LINE
  5
79
330
1F
100
AcDbEntity
  8
0
  6
Continuous
 62
     7
370
    25
100
AcDbLine
 10
72.5004273704
 20
158.0310753843
 30
0.0
 11
36.6685429325
 21
158.0310753843
 31
0.0
  0
SPLINE
  5
7A
330
1F
100
AcDbEntity
  8
0
  6
Continuous
 62
     7
370
    25
100
AcDbSpline
210
0.0
220
0.0
230
1.0
 70
     8
 71
     3
 72
    81
 73
    77
 74
     0
 42
0.00000001
 43
0.00000001
 40
0.0
 40
0.0
 40
0.0
 40
0.0
 40
0.001953125
 40
0.001953125
 40
0.00390625
 40
0.0078125
 40
0.0156249999999999
 40
0.0156249999999999
 40
0.0312499999999998
 40
0.0312499999999998
 40
0.0624999999999998
 40
0.0624999999999998
 40
0.1249999999999996
 40
0.1249999999999996
 40
0.1874999999999995
 40
0.1874999999999995
 40
0.2187499999999995
 40
0.2187499999999995
 40
0.2343749999999994
 40
0.2343749999999994
 40
0.2499999999999994
 40
0.2499999999999994
 40
0.3124999999999995
 40
0.3124999999999995
 40
0.3437499999999995
 40
0.3437499999999995
 40
0.3749999999999995
 40
0.3749999999999995
 40
0.4374999999999995
 40
0.4374999999999995
 40
0.4531249999999995
 40
0.4531249999999995
 40
0.4687499999999995
 40
0.4687499999999995
 40
0.4999999999999995
 40
0.4999999999999995
 40
0.5312499999999994
 40
0.5312499999999994
 40
0.5468749999999994
 40
0.5468749999999994
 40
0.5624999999999994
 40
0.5624999999999994
 40
0.6249999999999993
 40
0.6249999999999993
 40
0.6562499999999993
 40
0.6562499999999993
 40
0.6718749999999993
 40
0.6718749999999993
 40
0.6874999999999993
 40
0.6874999999999993
 40
0.7499999999999992
 40
0.7499999999999992
 40
0.7656249999999992
 40
0.7656249999999992
 40
0.7812499999999992
 40
0.7812499999999992
 40
0.8124999999999993
 40
0.8124999999999993
 40
0.8749999999999994
 40
0.8749999999999994
 40
0.8906249999999994
 40
0.8906249999999994
 40
0.9062499999999996
 40
0.9062499999999996
 40
0.9374999999999997
 40
0.9374999999999997
 40
0.9687499999999998
 40
0.9687499999999998
 40
0.9843749999999999
 40
0.9843749999999999
 40
0.9921874999999999
 40
0.9921874999999999
 40
0.99609375
 40
0.998046875
 40
0.998046875
 40
1.0
 40
1.0
 40
1.0
 40
1.0
 10
36.66854293252557
 20
158.0310753843235
 30
0.0
 10
36.66854535199158
 20
158.0631797301603
 30
0.0
 10
36.66886020743704
 20
158.0965590928158
 30
0.0
 10
36.6701258918617
 20
158.1619924970561
 30
0.0
 10
36.67297084754833
 20
158.2600768152455
 30
0.0
 10
36.686193126323
 20
158.4884825539863
 30
0.0
 10
36.70867714633639
 20
158.6834837983744
 30
0.0
 10
36.76818876281682
 20
159.072475334142
 30
0.0
 10
36.82724191604186
 20
159.330455969626
 30
0.0
 10
37.06043666426296
 20
160.1005027513994
 30
0.0
 10
37.29044109345402
 20
160.6086857606544
 30
0.0
 10
38.19409242394551
 20
162.1183843819174
 30
0.0
 10
39.07872404080881
 20
163.1052340254978
 30
0.0
 10
41.42397414828304
 20
165.0388953161537
 30
0.0
 10
42.84547907146197
 20
165.9534180086322
 30
0.0
 10
45.33965701039811
 20
167.2478115926164
 30
0.0
 10
46.23202791469016
 20
167.6663127610612
 30
0.0
 10
47.66624244573711
 20
168.2737285554306
 30
0.0
 10
48.16138781978175
 20
168.4732165104095
 30
0.0
 10
49.17980965627283
 20
168.8632204413995
 30
0.0
 10
49.70107476597623
 20
169.0530105466778
 30
0.0
 10
52.36735270599227
 20
169.9760395099972
 30
0.0
 10
54.69339053614588
 20
170.6310087472011
 30
0.0
 10
58.47305994139806
 20
171.4878106613933
 30
0.0
 10
59.78254911667469
 20
171.7531040411918
 30
0.0
 10
62.48974549487623
 20
172.2408385976647
 30
0.0
 10
63.86823193316232
 20
172.4599155301993
 30
0.0
 10
68.07414461656988
 20
173.0469701033042
 30
0.0
 10
70.97114105747083
 20
173.3456512179887
 30
0.0
 10
74.70907413223773
 20
173.6027741041228
 30
0.0
 10
75.46405448135029
 20
173.648367849206
 30
0.0
 10
76.97124657551433
 20
173.726802480639
 30
0.0
 10
77.72492421309916
 20
173.7597685261644
 30
0.0
 10
79.98619927578342
 20
173.8401137112916
 30
0.0
 10
81.4940380808192
 20
173.8689988945009
 30
0.0
 10
84.51036490904423
 20
173.8770277107395
 30
0.0
 10
86.0188528645772
 20
173.8561765274327
 30
0.0
 10
88.28209460194837
 20
173.7858397775099
 30
0.0
 10
89.03659368637561
 20
173.7558685205014
 30
0.0
 10
90.54576874196323
 20
173.6823733658766
 30
0.0
 10
91.30263342854083
 20
173.6386801469692
 30
0.0
 10
95.04685941847261
 20
173.3876292545592
 30
0.0
 10
97.93052509236497
 20
173.0817961968206
 30
0.0
 10
102.1043162922798
 20
172.4804687172239
 30
0.0
 10
103.4701166700527
 20
172.2560951981694
 30
0.0
 10
105.4805955370152
 20
171.8836133191317
 30
0.0
 10
106.145618224314
 20
171.7531630612973
 30
0.0
 10
107.449658932244
 20
171.4829074581525
 30
0.0
 10
108.0901007239072
 20
171.3428663655475
 30
0.0
 10
111.2357470180547
 20
170.6186588871261
 30
0.0
 10
113.5734501011608
 20
169.9634143138521
 30
0.0
 10
116.2707824413095
 20
169.0489675922032
 30
0.0
 10
116.7988720208919
 20
168.8612505358888
 30
0.0
 10
117.8316942688135
 20
168.4759050629749
 30
0.0
 10
118.3344497311279
 20
168.2789740886831
 30
0.0
 10
119.7924481246977
 20
167.6791969814664
 30
0.0
 10
120.7015695734032
 20
167.2659177599387
 30
0.0
 10
123.2397236647271
 20
165.9856732500369
 30
0.0
 10
124.6796403660476
 20
165.0783212574858
 30
0.0
 10
126.136833502479
 20
163.8709452937129
 30
0.0
 10
126.4109717206029
 20
163.626018767253
 30
0.0
 10
126.9195068998267
 20
163.1348277188025
 30
0.0
 10
127.1548017748418
 20
162.8878452498689
 30
0.0
 10
127.8055329841716
 20
162.1428660142188
 30
0.0
 10
128.1660000778394
 20
161.6408508822315
 30
0.0
 10
128.7448652003126
 20
160.6264350755494
 30
0.0
 10
128.96325928097
 20
160.1140341122378
 30
0.0
 10
129.1833467340487
 20
159.3375739266258
 30
0.0
 10
129.2387466214227
 20
159.0774407617357
 30
0.0
 10
129.2943511973474
 20
158.6852310543374
 30
0.0
 10
129.3082591196165
 20
158.5544468890172
 30
0.0
 10
129.322173702308
 20
158.3582201660016
 30
0.0
 10
129.3273941263514
 20
158.2600924443405
 30
0.0
 10
129.3300058930547
 20
158.1619431546486
 30
0.0
 10
129.3311668142784
 20
158.0965054973792
 30
0.0
 10
129.3314548491233
 20
158.063179730162
 30
0.0
 10
129.3314570674744
 20
158.0310753843236
 30
0.0
  0
LINE
  5
7B
330
1F
100
AcDbEntity
  8
0
  6
Continuous
 62
     7
370
    25
100
AcDbLine
 10
129.3314570675
 20
158.0310753843
 30
0.0
 11
93.4995870502
 21
158.0310753843
 31
0.0
  0
SPLINE
  5
7C
330
1F
100
AcDbEntity
  8
0
  6
Continuous
 62
     7
370
    25
100
AcDbSpline
210
0.0
220
0.0
230
1.0
 70
     8
 71
     3
 72
     9
 73
     5
 74
     0
 42
0.00000001
 43
0.00000001
 40
0.0
 40
0.0
 40
0.0
 40
0.0
 40
0.4997734405998858
 40
1.0
 40
1.0
 40
1.0
 40
1.0
 10
93.4710223057212
 20
158.8047732145306
 30
0.0
 10
93.47935073342747
 20
158.6759053453659
 30
0.0
 10
93.4960151397958
 20
158.4180527691866
 30
0.0
 10
93.49840041065261
 20
158.1601384925118
 30
0.0
 10
93.49959358648653
 20
158.0311229212706
 30
0.0
  0
SPLINE
  5
7D
330
1F
100
AcDbEntity
  8
0
  6
Continuous
 62
     7
370
    25
100
AcDbSpline
210
0.0
220
0.0
230
1.0
 70
     8
 71
     3
 72
    11
 73
     7
 74
     0
 42
0.00000001
 43
0.00000001
 40
0.0
 40
0.0
 40
0.0
 40
0.0
 40
0.285714285714286
 40
0.571428571428571
 40
0.857142857142857
 40
1.0
 40
1.0
 40
1.0
 40
1.0
 10
36.66854293252557
 20
158.0310753843243
 30
0.0
 10
36.66854293252557
 20
153.2898760294764
 30
0.0
 10
49.96754067795482
 20
143.8542900982814
 30
0.0
 10
94.83490092459468
 20
140.349480860861
 30
0.0
 10
124.7589038092574
 20
148.5173723536045
 30
0.0
 10
129.3314570674744
 20
155.6604757068998
 30
0.0
 10
129.3314570674744
 20
158.0310753843243
 30
0.0
  0
SPLINE
  5
7E
330
1F
100
AcDbEntity
  8
0
  6
Continuous
 62
     7
370
    25
100
AcDbSpline
210
0.0
220
0.0
230
1.0
 70
     8
 71
     3
 72
    56
 73
    52
 74
     0
 42
0.00000001
 43
0.00000001
 40
0.0
 40
0.0
 40
0.0
 40
0.0
 40
0.1250000000000001
 40
0.1250000000000001
 40
0.1875000000000003
 40
0.1875000000000003
 40
0.2500000000000004
 40
0.2500000000000004
 40
0.3125000000000005
 40
0.3125000000000005
 40
0.3750000000000007
 40
0.3750000000000007
 40
0.4062500000000007
 40
0.4062500000000007
 40
0.4375000000000008
 40
0.4375000000000008
 40
0.4531250000000008
 40
0.4531250000000008
 40
0.4609375000000008
 40
0.4609375000000008
 40
0.4687500000000008
 40
0.4687500000000008
 40
0.4843750000000009
 40
0.4843750000000009
 40
0.4921875000000009
 40
0.4921875000000009
 40
0.5000000000000009
 40
0.5000000000000009
 40
0.5156250000000009
 40
0.5156250000000009
 40
0.5312500000000009
 40
0.5312500000000009
 40
0.5468750000000009
 40
0.5468750000000009
 40
0.562500000000001
 40
0.562500000000001
 40
0.5937500000000009
 40
0.5937500000000009
 40
0.6250000000000008
 40
0.6250000000000008
 40
0.6875000000000008
 40
0.6875000000000008
 40
0.7500000000000006
 40
0.7500000000000006
 40
0.7812500000000006
 40
0.7812500000000006
 40
0.8125000000000004
 40
0.8125000000000004
 40
0.8750000000000003
 40
0.8750000000000003
 40
1.0
 40
1.0
 40
1.0
 40
1.0
 10
93.49959358765553
 20
158.0310516211201
 30
0.0
 10
93.49964058886425
 20
157.0511625691543
 30
0.0
 10
93.3652581953737
 20
156.0774878438036
 30
0.0
 10
92.94519175148955
 20
154.6270761207958
 30
0.0
 10
92.76832481086272
 20
154.1453087868575
 30
0.0
 10
92.32961846764096
 20
153.1857021782656
 30
0.0
 10
92.06804772072692
 20
152.7078504843478
 30
0.0
 10
91.43819286507598
 20
151.7570801819141
 30
0.0
 10
91.07043829841238
 20
151.2837828356378
 30
0.0
 10
90.18278431067645
 20
150.3456689683248
 30
0.0
 10
89.670410406993
 20
149.8861499365323
 30
0.0
 10
88.72533335156388
 20
149.2214325863737
 30
0.0
 10
88.38005877571912
 20
149.0041300452048
 30
0.0
 10
87.61357177177615
 20
148.5893708391069
 30
0.0
 10
87.19251221777141
 20
148.3908717430355
 30
0.0
 10
86.46384238341497
 20
148.1159209332085
 30
0.0
 10
86.20504761134278
 20
148.0285397802705
 30
0.0
 10
85.79258408327341
 20
147.90867751529
 30
0.0
 10
85.65074571646055
 20
147.8704953775659
 30
0.0
 10
85.35679188130942
 20
147.7983169233493
 30
0.0
 10
85.20386777039313
 20
147.7641741128543
 30
0.0
 10
84.73516519349575
 20
147.6709769585706
 30
0.0
 10
84.4086193565746
 20
147.6206602186026
 30
0.0
 10
83.89161594872184
 20
147.5680002035593
 30
0.0
 10
83.71322456489527
 20
147.5542092853382
 30
0.0
 10
83.3531858761335
 20
147.5359015627488
 30
0.0
 10
83.1730370424035
 20
147.5313861002245
 30
0.0
 10
82.63220195563474
 20
147.5317591190185
 30
0.0
 10
82.26675025332645
 20
147.5513668073567
 30
0.0
 10
81.57463260548747
 20
147.6228917832217
 30
0.0
 10
81.24014045734161
 20
147.6751661594508
 30
0.0
 10
80.61696350276272
 20
147.8005782678628
 30
0.0
 10
80.32698860598451
 20
147.8734369741111
 30
0.0
 10
79.7783866691042
 20
148.0338795674233
 30
0.0
 10
79.5192532340687
 20
148.1218818137553
 30
0.0
 10
78.79515172450661
 20
148.3964052625959
 30
0.0
 10
78.37460981357675
 20
148.595132791043
 30
0.0
 10
77.60780162895446
 20
149.0113523680263
 30
0.0
 10
77.26248743875075
 20
149.229478036817
 30
0.0
 10
76.32483773270555
 20
149.8905542095823
 30
0.0
 10
75.81845582837133
 20
150.345202154794
 30
0.0
 10
74.94141343670759
 20
151.270423754456
 30
0.0
 10
74.57339614647235
 20
151.7413075647337
 30
0.0
 10
74.09785226530921
 20
152.4566077735191
 30
0.0
 10
73.9522619720809
 20
152.6967637993541
 30
0.0
 10
73.68565928748839
 20
153.1772628449794
 30
0.0
 10
73.56443369958855
 20
153.4179105090458
 30
0.0
 10
73.23328568480862
 20
154.1409259838787
 30
0.0
 10
73.05564302249387
 20
154.6243580681898
 30
0.0
 10
72.63431682512469
 20
156.0783338656853
 30
0.0
 10
72.50046108045854
 20
157.0524986341454
 30
0.0
 10
72.50042218233405
 20
158.0310753842761
 30
0.0
  0
LINE
  5
7F
330
1F
100
AcDbEntity
  8
0
  6
Continuous
 62
     7
370
    25
100
AcDbLine
 10
233.4959266735
 20
35.9126995241
 30
0.0
 11
238.8681756024
 21
35.9126995241
 31
0.0
  0
LINE
  5
80
330
1F
100
AcDbEntity
  8
0
  6
Continuous
 62
     7
370
    25
100
AcDbLine
 10
207.1886534775
 20
35.9126995241
 30
0.0
 11
212.551948396
 21
35.9126995241
 31
0.0
  0
SPLINE
  5
81
330
1F
100
AcDbEntity
  8
0
  6
Continuous
 62
     7
370
    25
100
AcDbSpline
210
0.0
220
0.0
230
1.0
 70
     8
 71
     3
 72
    16
 73
    12
 74
     0
 42
0.00000001
 43
0.00000001
 40
0.0
 40
0.0
 40
0.0
 40
0.0
 40
0.1123978358522323
 40
0.2281091876162009
 40
0.3404911032328037
 40
0.4560427674203577
 40
0.5700276333002091
 40
0.6872969327732746
 40
0.8014929864531025
 40
0.9191225922938088
 40
1.0
 40
1.0
 40
1.0
 40
1.0
 10
223.8040092289723
 20
36.98061434355024
 30
0.0
 10
224.3771966267379
 20
36.96541240556084
 30
0.0
 10
225.5404691280702
 20
36.93456037270216
 30
0.0
 10
227.1991404388676
 20
36.81547874220092
 30
0.0
 10
228.7546983199437
 20
36.65781393759958
 30
0.0
 10
230.1428016659825
 20
36.47627187252823
 30
0.0
 10
231.3493737720208
 20
36.29027440050128
 30
0.0
 10
232.3204207723994
 20
36.1230773589724
 30
0.0
 10
233.0259704002751
 20
35.99500264687507
 30
0.0
 10
233.4359343865315
 20
35.92085807488899
 30
0.0
 10
233.478559847413
 20
35.91932063130312
 30
0.0
 10
233.4959266734852
 20
35.91869423302379
 30
0.0
  0
SPLINE
  5
82
330
1F
100
AcDbEntity
  8
0
  6
Continuous
 62
     7
370
    25
100
AcDbSpline
210
0.0
220
0.0
230
1.0
 70
     8
 71
     3
 72
    18
 73
    14
 74
     0
 42
0.00000001
 43
0.00000001
 40
0.0
 40
0.0
 40
0.0
 40
0.0
 40
0.0109359991707491
 40
0.1120814170560266
 40
0.2161592693731609
 40
0.3174411346333097
 40
0.4215552185395235
 40
0.5247371517245705
 40
0.6308592618443094
 40
0.7348241630597504
 40
0.8419005862662151
 40
0.920276097547544
 40
1.0
 40
1.0
 40
1.0
 40
1.0
 10
212.5519483959579
 20
35.91569151554341
 30
0.0
 10
212.5494206806465
 20
35.91470750583007
 30
0.0
 10
212.5235145051253
 20
35.90462253770352
 30
0.0
 10
212.7499369303038
 20
35.94352579254797
 30
0.0
 10
213.2372911203488
 20
36.03156080440011
 30
0.0
 10
214.0274811871074
 20
36.17366185558814
 30
0.0
 10
215.0512834025137
 20
36.34487838308949
 30
0.0
 10
216.3145434776743
 20
36.53170474210861
 30
0.0
 10
217.7666548910921
 20
36.70959404773936
 30
0.0
 10
219.389683996454
 20
36.85951247171232
 30
0.0
 10
220.9705337152672
 20
36.9505706021585
 30
0.0
 10
222.4607970149348
 20
36.99128953747311
 30
0.0
 10
223.3537332794056
 20
36.9841929166381
 30
0.0
 10
223.8040092289723
 20
36.98061434355024
 30
0.0
  0
SPLINE
  5
83
330
1F
100
AcDbEntity
  8
0
  6
Continuous
 62
     7
370
    25
100
AcDbSpline
210
0.0
220
0.0
230
1.0
 70
     8
 71
     3
 72
    28
 73
    24
 74
     0
 42
0.00000001
 43
0.00000001
 40
0.0
 40
0.0
 40
0.0
 40
0.0
 40
0.0510122301804827
 40
0.1073978357792075
 40
0.1608021780943607
 40
0.2142091295464933
 40
0.2693009250902164
 40
0.3243962298782208
 40
0.376049424686596
 40
0.4277035695834792
 40
0.4806659245404235
 40
0.5336273726318589
 40
0.5887182788132455
 40
0.6438058567728762
 40
0.6817215424932661
 40
0.7196733507797499
 40
0.7575878848653743
 40
0.8095786317908845
 40
0.8615721787793457
 40
0.9149990015172152
 40
0.9684266392665668
 40
0.999969141896829
 40
1.0
 40
1.0
 40
1.0
 40
1.0
 10
238.8681756023751
 20
35.92732074392009
 30
0.0
 10
238.8606839305116
 20
35.94790394319912
 30
0.0
 10
238.8449114512127
 20
35.99123847392165
 30
0.0
 10
238.6712940774725
 20
36.46824828789786
 30
0.0
 10
238.383658094021
 20
37.25852165745322
 30
0.0
 10
237.981618934746
 20
38.36311516929768
 30
0.0
 10
237.4644120353829
 20
39.78412944648365
 30
0.0
 10
236.8487507805182
 20
41.47564484225716
 30
0.0
 10
236.153394717359
 20
43.38611992426767
 30
0.0
 10
235.3846031051019
 20
45.49835751920999
 30
0.0
 10
234.5295050750443
 20
47.84772004821307
 30
0.0
 10
233.5787997705719
 20
50.45976140480637
 30
0.0
 10
232.5408421145492
 20
53.31152662707861
 30
0.0
 10
231.5353026147629
 20
56.07422369711076
 30
0.0
 10
230.6029221815361
 20
58.635917883743
 30
0.0
 10
229.7648552884431
 20
60.93848774850695
 30
0.0
 10
228.7951989807513
 20
63.60259655852577
 30
0.0
 10
227.6869879316681
 20
66.64738139185118
 30
0.0
 10
226.4271706198358
 20
70.10870100883352
 30
0.0
 10
225.1332724821948
 20
73.66365692475166
 30
0.0
 10
223.993855754629
 20
76.7941786561464
 30
0.0
 10
223.2920041984401
 20
78.7224999567906
 30
0.0
 10
223.0313301531033
 20
79.43869601118494
 30
0.0
 10
223.0310753843236
 20
79.43939598265531
 30
0.0
  0
SPLINE
  5
84
330
1F
100
AcDbEntity
  8
0
  6
Continuous
 62
     7
370
    25
100
AcDbSpline
210
0.0
220
0.0
230
1.0
 70
    24
 71
     3
 72
    28
 73
    24
 74
     0
 42
0.00000001
 43
0.00000001
 40
0.0
 40
0.0
 40
0.0
 40
0.0
 40
0.0537226232545676
 40
0.1101469991792795
 40
0.1634884299567841
 40
0.2168327387157209
 40
0.2718520669712808
 40
0.3268748346190136
 40
0.3785756086245181
 40
0.430277293250086
 40
0.4832906170946435
 40
0.5363029817045983
 40
0.5913951619566269
 40
0.646483961160275
 40
0.6844032595147663
 40
0.7223588409206206
 40
0.7602772485055157
 40
0.8122290759703396
 40
0.864183645675955
 40
0.917565534692926
 40
0.9709481783156895
 40
0.9999691420818773
 40
1.0
 40
1.0
 40
1.0
 40
1.0
 10
207.1914761608529
 20
35.92045478295832
 30
0.0
 10
207.2010273433999
 20
35.94669644133511
 30
0.0
 10
207.2206100449217
 20
36.00049947157797
 30
0.0
 10
207.4021941134559
 20
36.49939759960816
 30
0.0
 10
207.6959021883298
 20
37.30635390323568
 30
0.0
 10
208.1029627414905
 20
38.42474358139562
 30
0.0
 10
208.6246121022592
 20
39.85796342098044
 30
0.0
 10
209.2444965514154
 20
41.56108194770825
 30
0.0
 10
209.944152080577
 20
43.48336971547634
 30
0.0
 10
210.7176337255795
 20
45.60849306948346
 30
0.0
 10
211.5773730963258
 20
47.97060757722518
 30
0.0
 10
212.5324178440763
 20
50.59457145623865
 30
0.0
 10
213.57425796045
 20
53.45700365065731
 30
0.0
 10
214.5827783918744
 20
56.22789076305458
 30
0.0
 10
215.5176091014141
 20
58.79631702852756
 30
0.0
 10
216.357645130477
 20
61.10429704990607
 30
0.0
 10
217.3289023263745
 20
63.7728042641183
 30
0.0
 10
218.4381538711803
 20
66.82044783596278
 30
0.0
 10
219.6983050384689
 20
70.28268471320449
 30
0.0
 10
220.9920171874737
 20
73.8371296298037
 30
0.0
 10
222.1103237934477
 20
76.90965177795204
 30
0.0
 10
222.7909649044919
 20
78.77969786096298
 30
0.0
 10
223.0308206172379
 20
79.4386960158399
 30
0.0
 10
223.0310753843236
 20
79.43939598265531
 30
0.0
  0
SPLINE
  5
85
330
1F
100
AcDbEntity
  8
0
  6
HIDDEN
 62
     7
370
    18
100
AcDbSpline
210
0.0
220
0.0
230
1.0
 70
     8
 71
     3
 72
    52
 73
    48
 74
     0
 42
0.00000001
 43
0.00000001
 40
0.0
 40
0.0
 40
0.0
 40
0.0
 40
0.03125
 40
0.03125
 40
0.0625000000000001
 40
0.0625000000000001
 40
0.1250000000000002
 40
0.1250000000000002
 40
0.1562500000000002
 40
0.1562500000000002
 40
0.1875000000000002
 40
0.1875000000000002
 40
0.2500000000000003
 40
0.2500000000000003
 40
0.2812500000000003
 40
0.2812500000000003
 40
0.3125000000000003
 40
0.3125000000000003
 40
0.3750000000000003
 40
0.3750000000000003
 40
0.4062500000000003
 40
0.4062500000000003
 40
0.4375000000000003
 40
0.4375000000000003
 40
0.5000000000000003
 40
0.5000000000000003
 40
0.5625000000000003
 40
0.5625000000000003
 40
0.5937500000000003
 40
0.5937500000000003
 40
0.6250000000000003
 40
0.6250000000000003
 40
0.6875000000000003
 40
0.6875000000000003
 40
0.7500000000000003
 40
0.7500000000000003
 40
0.8125000000000003
 40
0.8125000000000003
 40
0.8437500000000002
 40
0.8437500000000002
 40
0.8750000000000001
 40
0.8750000000000001
 40
0.9375000000000001
 40
0.9375000000000001
 40
0.9687500000000001
 40
0.9687500000000001
 40
1.0
 40
1.0
 40
1.0
 40
1.0
 10
233.5299821558226
 20
35.91505145849445
 30
0.0
 10
233.52629414307
 20
35.91824786642399
 30
0.0
 10
233.5072009444209
 20
35.92469622376161
 30
0.0
 10
233.4378365654032
 20
35.9440389416927
 30
0.0
 10
233.387233865341
 20
35.9570129711587
 30
0.0
 10
233.1892092105271
 20
36.00495457207273
 30
0.0
 10
232.9979632352832
 20
36.04846971516442
 30
0.0
 10
232.6252782941559
 20
36.12748800368127
 30
0.0
 10
232.48665197788
 20
36.15612272504974
 30
0.0
 10
232.179928315899
 20
36.21739722590318
 30
0.0
 10
232.0118616566108
 20
36.25001382456463
 30
0.0
 10
231.4739233867155
 20
36.3506629840767
 30
0.0
 10
231.0675607191784
 20
36.42212480027897
 30
0.0
 10
230.3865037271241
 20
36.53069892788809
 30
0.0
 10
230.1465036208006
 20
36.56726112349047
 30
0.0
 10
229.6460436408112
 20
36.6392919421579
 30
0.0
 10
229.387397333202
 20
36.67451112269774
 30
0.0
 10
228.5868214079125
 20
36.77654016606851
 30
0.0
 10
228.0204764936975
 20
36.83974101797928
 30
0.0
 10
227.1203876985237
 20
36.92230571841444
 30
0.0
 10
226.8108022019644
 20
36.94783113620635
 30
0.0
 10
226.1874276140555
 20
36.99300555431849
 30
0.0
 10
225.8722166770198
 20
37.0128063312504
 30
0.0
 10
224.9161481289494
 20
37.06320809309861
 30
0.0
 10
224.2649457539555
 20
37.08481660987736
 30
0.0
 10
222.9334943962771
 20
37.10061167740928
 30
0.0
 10
222.273586610776
 20
37.09451955407966
 30
0.0
 10
221.2962562007157
 20
37.06574904118418
 30
0.0
 10
220.9723430692881
 20
37.05288648376674
 30
0.0
 10
220.3283011607245
 20
37.02084662831389
 30
0.0
 10
220.0066539573461
 20
37.00154340415362
 30
0.0
 10
219.0657070429947
 20
36.93590621471714
 30
0.0
 10
218.46619292425
 20
36.88179548698868
 30
0.0
 10
217.3210575235978
 20
36.7588025437476
 30
0.0
 10
216.7714397948924
 20
36.68920755049547
 30
0.0
 10
215.767700046629
 20
36.54696445844408
 30
0.0
 10
215.3088887967868
 20
36.47394384116129
 30
0.0
 10
214.6853900266497
 20
36.36687794963646
 30
0.0
 10
214.487502529532
 20
36.33142383263102
 30
0.0
 10
214.120588416253
 20
36.26342774157555
 30
0.0
 10
213.951126251898
 20
36.23082701320382
 30
0.0
 10
213.4837444546501
 20
36.13828603895573
 30
0.0
 10
213.2264519758465
 20
36.08358870757772
 30
0.0
 10
212.9249260250274
 20
36.01634749245697
 30
0.0
 10
212.8391242801141
 20
35.99652158837576
 30
0.0
 10
212.6995067256148
 20
35.9631273337855
 30
0.0
 10
212.6451556021931
 20
35.94943869285337
 30
0.0
 10
212.6060731889386
 20
35.93887719119056
 30
0.0
  0
LINE
  5
86
330
1F
100
AcDbEntity
  8
0
  6
HIDDEN
 62
     7
370
    18
100
AcDbLine
 10
233.5306414888
 20
35.9159830213
 30
0.0
 11
233.5306414888
 21
50.5957764906
 31
0.0
  0
LINE
  5
87
330
1F
100
AcDbEntity
  8
0
  6
HIDDEN
 62
     7
370
    18
100
AcDbLine
 10
212.5315093496
 20
50.5957792137
 30
0.0
 11
212.5315093496
 21
35.9209554503
 31
0.0
  0
ENDSEC
  0
SECTION
  2
OBJECTS
  0
DICTIONARY
  5
C
330
0
100
AcDbDictionary
281
     1
  3
ACAD_GROUP
350
D
  3
ACAD_LAYOUT
350
1A
  3
ACAD_MLINESTYLE
350
17
  3
ACAD_PLOTSETTINGS
350
19
  3
ACAD_PLOTSTYLENAME
350
E
  3
ACAD_SCALELIST
350
47
  3
DWGPROPS
350
88
  0
DICTIONARY
  5
D
102
{ACAD_REACTORS
330
C
102
}
330
C
100
AcDbDictionary
281
     1
  0
DICTIONARY
  5
1A
102
{ACAD_REACTORS
330
C
102
}
330
C
100
AcDbDictionary
281
     1
  3
Layout1
350
1E
  3
Layout2
350
26
  3
Model
350
22
  0
DICTIONARY
  5
17
102
{ACAD_REACTORS
330
C
102
}
330
C
100
AcDbDictionary
281
     1
  3
Standard
350
18
  0
DICTIONARY
  5
19
102
{ACAD_REACTORS
330
C
102
}
330
C
100
AcDbDictionary
281
     1
  0
ACDBDICTIONARYWDFLT
  5
E
102
{ACAD_REACTORS
330
C
102
}
330
C
100
AcDbDictionary
281
     1
  3
Normal
350
F
100
AcDbDictionaryWithDefault
340
F
  0
DICTIONARY
  5
47
102
{ACAD_REACTORS
330
C
102
}
330
C
100
AcDbDictionary
281
     1
  3
A0
350
48
  3
A1
350
49
  3
A2
350
4A
  3
A3
350
4B
  3
A4
350
4C
  3
A5
350
4D
  3
A6
350
4E
  3
A7
350
4F
  3
A8
350
50
  3
A9
350
51
  3
B0
350
52
  3
B1
350
53
  3
B2
350
54
  3
B3
350
55
  3
B4
350
56
  3
B5
350
57
  3
B6
350
58
  0
XRECORD
  5
88
102
{ACAD_REACTORS
330
C
102
}
330
C
100
AcDbXrecord
280
     1
  1
DWGPROPS COOKIE
  2

  3

  4

  6

  7

  8

  9

300
=
301
=
302
=
303
=
304
=
305
=
306
=
307
=
308
=
309
=
 40
0.0
 41
2461215.07545132
 42
2461215.075451621
  1

 90
        0
  0
LAYOUT
  5
1E
102
{ACAD_REACTORS
330
1A
102
}
330
1A
100
AcDbPlotSettings
  1

  2
none_device
  4

  6

 40
0.0
 41
0.0
 42
0.0
 43
0.0
 44
0.0
 45
0.0
 46
0.0
 47
0.0
 48
0.0
 49
0.0
140
0.0
141
0.0
142
1.0
143
1.0
 70
   688
 72
     1
 73
     0
 74
     5
  7

 75
    16
147
1.0
148
0.0
149
0.0
100
AcDbLayout
  1
Layout1
 70
     1
 71
     1
 10
0.0
 20
0.0
 11
420.0
 21
297.0
 12
0.0
 22
0.0
 32
0.0
 14
1.0000000000E+20
 24
1.0000000000E+20
 34
1.0000000000E+20
 15
-1.0000000000E+20
 25
-1.0000000000E+20
 35
-1.0000000000E+20
146
0.0
 13
0.0
 23
0.0
 33
0.0
 16
1.0
 26
0.0
 36
0.0
 17
0.0
 27
1.0
 37
0.0
 76
     0
330
1B
  0
LAYOUT
  5
26
102
{ACAD_REACTORS
330
1A
102
}
330
1A
100
AcDbPlotSettings
  1

  2
none_device
  4

  6

 40
0.0
 41
0.0
 42
0.0
 43
0.0
 44
0.0
 45
0.0
 46
0.0
 47
0.0
 48
0.0
 49
0.0
140
0.0
141
0.0
142
1.0
143
1.0
 70
   688
 72
     1
 73
     0
 74
     5
  7

 75
    16
147
1.0
148
0.0
149
0.0
100
AcDbLayout
  1
Layout2
 70
     1
 71
     2
 10
0.0
 20
0.0
 11
0.0
 21
0.0
 12
0.0
 22
0.0
 32
0.0
 14
0.0
 24
0.0
 34
0.0
 15
0.0
 25
0.0
 35
0.0
146
0.0
 13
0.0
 23
0.0
 33
0.0
 16
1.0
 26
0.0
 36
0.0
 17
0.0
 27
1.0
 37
0.0
 76
     0
330
23
  0
LAYOUT
  5
22
102
{ACAD_REACTORS
330
1A
102
}
330
1A
100
AcDbPlotSettings
  1

  2
none_device
  4
Letter_(8.50_x_11.00_Inches)
  6

 40
6.35
 41
6.35
 42
6.35000508
 43
6.35000508
 44
215.9
 45
279.4
 46
0.0
 47
0.0
 48
0.0
 49
0.0
140
0.0
141
0.0
142
1.0
143
1.0
 70
  1712
 72
     1
 73
     0
 74
     0
  7

 75
     0
147
1.0
148
0.0
149
0.0
100
AcDbLayout
  1
Model
 70
     1
 71
     0
 10
0.0
 20
0.0
 11
297.0
 21
210.0
 12
0.0
 22
0.0
 32
0.0
 14
0.0
 24
0.0
 34
0.0
 15
297.0
 25
210.0
 35
0.0
146
0.0
 13
0.0
 23
0.0
 33
0.0
 16
1.0
 26
0.0
 36
0.0
 17
0.0
 27
1.0
 37
0.0
 76
     0
330
1F
331
29
  0
MLINESTYLE
  5
18
102
{ACAD_REACTORS
330
17
102
}
330
17
100
AcDbMlineStyle
  2
Standard
 70
     0
  3

 62
   256
 51
90.0
 52
90.0
 71
     2
 49
0.5
 62
   256
  6
BYLAYER
 49
-0.5
 62
   256
  6
BYLAYER
  0
ACDBPLACEHOLDER
  5
F
102
{ACAD_REACTORS
330
E
102
}
330
E
  0
SCALE
  5
48
102
{ACAD_REACTORS
330
47
102
}
330
47
100
AcDbScale
 70
     0
300
1:1
140
1.0
141
1.0
290
     1
  0
SCALE
  5
49
102
{ACAD_REACTORS
330
47
102
}
330
47
100
AcDbScale
 70
     0
300
1:2
140
1.0
141
2.0
290
     0
  0
SCALE
  5
4A
102
{ACAD_REACTORS
330
47
102
}
330
47
100
AcDbScale
 70
     0
300
1:4
140
1.0
141
4.0
290
     0
  0
SCALE
  5
4B
102
{ACAD_REACTORS
330
47
102
}
330
47
100
AcDbScale
 70
     0
300
1:5
140
1.0
141
5.0
290
     0
  0
SCALE
  5
4C
102
{ACAD_REACTORS
330
47
102
}
330
47
100
AcDbScale
 70
     0
300
1:8
140
1.0
141
8.0
290
     0
  0
SCALE
  5
4D
102
{ACAD_REACTORS
330
47
102
}
330
47
100
AcDbScale
 70
     0
300
1:10
140
1.0
141
10.0
290
     0
  0
SCALE
  5
4E
102
{ACAD_REACTORS
330
47
102
}
330
47
100
AcDbScale
 70
     0
300
1:16
140
1.0
141
16.0
290
     0
  0
SCALE
  5
4F
102
{ACAD_REACTORS
330
47
102
}
330
47
100
AcDbScale
 70
     0
300
1:20
140
1.0
141
20.0
290
     0
  0
SCALE
  5
50
102
{ACAD_REACTORS
330
47
102
}
330
47
100
AcDbScale
 70
     0
300
1:30
140
1.0
141
30.0
290
     0
  0
SCALE
  5
51
102
{ACAD_REACTORS
330
47
102
}
330
47
100
AcDbScale
 70
     0
300
1:40
140
1.0
141
40.0
290
     0
  0
SCALE
  5
52
102
{ACAD_REACTORS
330
47
102
}
330
47
100
AcDbScale
 70
     0
300
1:50
140
1.0
141
50.0
290
     0
  0
SCALE
  5
53
102
{ACAD_REACTORS
330
47
102
}
330
47
100
AcDbScale
 70
     0
300
1:100
140
1.0
141
100.0
290
     0
  0
SCALE
  5
54
102
{ACAD_REACTORS
330
47
102
}
330
47
100
AcDbScale
 70
     0
300
2:1
140
2.0
141
1.0
290
     0
  0
SCALE
  5
55
102
{ACAD_REACTORS
330
47
102
}
330
47
100
AcDbScale
 70
     0
300
4:1
140
4.0
141
1.0
290
     0
  0
SCALE
  5
56
102
{ACAD_REACTORS
330
47
102
}
330
47
100
AcDbScale
 70
     0
300
8:1
140
8.0
141
1.0
290
     0
  0
SCALE
  5
57
102
{ACAD_REACTORS
330
47
102
}
330
47
100
AcDbScale
 70
     0
300
10:1
140
10.0
141
1.0
290
     0
  0
SCALE
  5
58
102
{ACAD_REACTORS
330
47
102
}
330
47
100
AcDbScale
 70
     0
300
100:1
140
100.0
141
1.0
290
     0
  0
ENDSEC
  0
EOF
