  0
SECTION
  2
HEADER
  9
$ACADVER
  1
AC1015
  9
$ACADMAINTVER
 70
     6
  9
$DWGCODEPAGE
  3
ANSI_936
  9
$INSBASE
 10
0.0
 20
0.0
 30
0.0
  9
$EXTMIN
 10
0.0
 20
0.0
 30
0.0
  9
$EXTMAX
 10
297.0
 20
210.0
 30
0.0
  9
$LIMMIN
 10
0.0
 20
0.0
  9
$LIMMAX
 10
297.0
 20
210.0
  9
$ORTHOMODE
 70
     0
  9
$REGENMODE
 70
     1
  9
$FILLMODE
 70
     1
  9
$QTEXTMODE
 70
     0
  9
$MIRRTEXT
 70
     1
  9
$LTSCALE
 40
1.0
  9
$ATTMODE
 70
     1
  9
$TEXTSIZE
 40
3.5
  9
$TRACEWID
 40
1.0
  9
$TEXTSTYLE
  7
Standard
  9
$CLAYER
  8
0
  9
$CELTYPE
  6
ByLayer
  9
$CECOLOR
 62
   256
  9
$CELTSCALE
 40
1.0
  9
$DISPSILH
 70
     0
  9
$DIMSCALE
 40
1.0
  9
$DIMASZ
 40
4.08
  9
$DIMEXO
 40
0.0
  9
$DIMDLI
 40
3.75
  9
$DIMRND
 40
0.0
  9
$DIMDLE
 40
0.0
  9
$DIMEXE
 40
2.0
  9
$DIMTP
 40
0.0
  9
$DIMTM
 40
0.0
  9
$DIMTXT
 40
3.5
  9
$DIMCEN
 40
2.5
  9
$DIMTSZ
 40
0.0
  9
$DIMTOL
 70
     0
  9
$DIMLIM
 70
     0
  9
$DIMTIH
 70
     1
  9
$DIMTOH
 70
     1
  9
$DIMSE1
 70
     0
  9
$DIMSE2
 70
     0
  9
$DIMTAD
 70
     1
  9
$DIMZIN
 70
     0
  9
$DIMBLK
  1

  9
$DIMASO
 70
     1
  9
$DIMSHO
 70
     1
  9
$DIMPOST
  1

  9
$DIMAPOST
  1

  9
$DIMALT
 70
     0
  9
$DIMALTD
 70
     3
  9
$DIMALTF
 40
0.0393700787
  9
$DIMLFAC
 40
2.0
  9
$DIMTOFL
 70
     1
  9
$DIMTVP
 40
0.0
  9
$DIMTIX
 70
     0
  9
$DIMSOXD
 70
     0
  9
$DIMSAH
 70
     0
  9
$DIMBLK1
  1

  9
$DIMBLK2
  1

  9
$DIMSTYLE
  2
ISO-25
  9
$DIMCLRD
 70
     0
  9
$DIMCLRE
 70
     0
  9
$DIMCLRT
 70
     0
  9
$DIMTFAC
 40
1.0
  9
$DIMGAP
 40
1.524
  9
$DIMJUST
 70
     0
  9
$DIMSD1
 70
     0
  9
$DIMSD2
 70
     0
  9
$DIMTOLJ
 70
     0
  9
$DIMTZIN
 70
     0
  9
$DIMALTZ
 70
     0
  9
$DIMALTTZ
 70
     0
  9
$DIMUPT
 70
     0
  9
$DIMDEC
 70
     2
  9
$DIMTDEC
 70
     2
  9
$DIMALTU
 70
     2
  9
$DIMALTTD
 70
     3
  9
$DIMTXSTY
  7
Standard
  9
$DIMAUNIT
 70
     0
  9
$DIMADEC
 70
     2
  9
$DIMALTRND
 40
0.0
  9
$DIMAZIN
 70
     0
  9
$DIMDSEP
 70
    44
  9
$DIMATFIT
 70
     3
  9
$DIMFRAC
 70
     0
  9
$DIMLDRBLK
  1

  9
$DIMLUNIT
 70
     2
  9
$DIMLWD
 70
    -2
  9
$DIMLWE
 70
    -2
  9
$DIMTMOVE
 70
     0
  9
$LUNITS
 70
     2
  9
$LUPREC
 70
     2
  9
$SKETCHINC
 40
1.0
  9
$FILLETRAD
 40
0.0
  9
$AUNITS
 70
     0
  9
$AUPREC
 70
     2
  9
$MENU
  1
.
  9
$ELEVATION
 40
0.0
  9
$PELEVATION
 40
0.0
  9
$THICKNESS
 40
0.0
  9
$LIMCHECK
 70
     0
  9
$CHAMFERA
 40
0.0
  9
$CHAMFERB
 40
0.0
  9
$CHAMFERC
 40
0.0
  9
$CHAMFERD
 40
0.0
  9
$SKPOLY
 70
     0
  9
$TDCREATE
 40
2461215.407908646
  9
$TDUCREATE
 40
2461215.074575313
  9
$TDUPDATE
 40
2461215.407908959
  9
$TDUUPDATE
 40
2461215.074575625
  9
$TDINDWG
 40
0.0000000116
  9
$TDUSRTIMER
 40
0.0000000116
  9
$USRTIMER
 70
     1
  9
$ANGBASE
 50
0.0
  9
$ANGDIR
 70
     0
  9
$PDMODE
 70
     0
  9
$PDSIZE
 40
-1.0
  9
$PLINEWID
 40
0.0
  9
$SPLFRAME
 70
     0
  9
$SPLINETYPE
 70
     6
  9
$SPLINESEGS
 70
     8
  9
$HANDSEED
  5
D0
  9
$SURFTAB1
 70
     6
  9
$SURFTAB2
 70
     6
  9
$SURFTYPE
 70
     6
  9
$SURFU
 70
     6
  9
$SURFV
 70
     6
  9
$UCSBASE
  2

  9
$UCSNAME
  2

  9
$UCSORG
 10
0.0
 20
0.0
 30
0.0
  9
$UCSXDIR
 10
1.0
 20
0.0
 30
0.0
  9
$UCSYDIR
 10
0.0
 20
1.0
 30
0.0
  9
$UCSORTHOREF
  2

  9
$UCSORTHOVIEW
 70
     0
  9
$UCSORGTOP
 10
0.0
 20
0.0
 30
0.0
  9
$UCSORGBOTTOM
 10
0.0
 20
0.0
 30
0.0
  9
$UCSORGLEFT
 10
0.0
 20
0.0
 30
0.0
  9
$UCSORGRIGHT
 10
0.0
 20
0.0
 30
0.0
  9
$UCSORGFRONT
 10
0.0
 20
0.0
 30
0.0
  9
$UCSORGBACK
 10
0.0
 20
0.0
 30
0.0
  9
$PUCSBASE
  2

  9
$PUCSNAME
  2

  9
$PUCSORG
 10
0.0
 20
0.0
 30
0.0
  9
$PUCSXDIR
 10
1.0
 20
0.0
 30
0.0
  9
$PUCSYDIR
 10
0.0
 20
1.0
 30
0.0
  9
$PUCSORTHOREF
  2

  9
$PUCSORTHOVIEW
 70
     0
  9
$PUCSORGTOP
 10
0.0
 20
0.0
 30
0.0
  9
$PUCSORGBOTTOM
 10
0.0
 20
0.0
 30
0.0
  9
$PUCSORGLEFT
 10
0.0
 20
0.0
 30
0.0
  9
$PUCSORGRIGHT
 10
0.0
 20
0.0
 30
0.0
  9
$PUCSORGFRONT
 10
0.0
 20
0.0
 30
0.0
  9
$PUCSORGBACK
 10
0.0
 20
0.0
 30
0.0
  9
$USERI1
 70
     0
  9
$USERI2
 70
     0
  9
$USERI3
 70
     0
  9
$USERI4
 70
     0
  9
$USERI5
 70
     0
  9
$USERR1
 40
0.0
  9
$USERR2
 40
0.0
  9
$USERR3
 40
0.0
  9
$USERR4
 40
0.0
  9
$USERR5
 40
0.0
  9
$WORLDVIEW
 70
     1
  9
$SHADEDGE
 70
     3
  9
$SHADEDIF
 70
    70
  9
$TILEMODE
 70
     1
  9
$MAXACTVP
 70
    64
  9
$PINSBASE
 10
0.0
 20
0.0
 30
0.0
  9
$PLIMCHECK
 70
     0
  9
$PEXTMIN
 10
1.0000000000E+20
 20
1.0000000000E+20
 30
1.0000000000E+20
  9
$PEXTMAX
 10
-1.0000000000E+20
 20
-1.0000000000E+20
 30
-1.0000000000E+20
  9
$PLIMMIN
 10
0.0
 20
0.0
  9
$PLIMMAX
 10
420.0
 20
297.0
  9
$UNITMODE
 70
     0
  9
$VISRETAIN
 70
     1
  9
$PLINEGEN
 70
     0
  9
$PSLTSCALE
 70
     1
  9
$TREEDEPTH
 70
  3020
  9
$CMLSTYLE
  2
Standard
  9
$CMLJUST
 70
     0
  9
$CMLSCALE
 40
20.0
  9
$PROXYGRAPHICS
 70
     1
  9
$MEASUREMENT
 70
     1
  9
$CELWEIGHT
370
    -1
  9
$ENDCAPS
280
     0
  9
$JOINSTYLE
280
     0
  9
$LWDISPLAY
290
     1
  9
$INSUNITS
 70
     4
  9
$HYPERLINKBASE
  1

  9
$STYLESHEET
  1

  9
$XEDIT
290
     1
  9
$CEPSNTYPE
380
     0
  9
$PSTYLEMODE
290
     1
  9
$FINGERPRINTGUID
  2
{9688672d-699f-49ef-b0e8-4e426f77a0f0}
  9
$VERSIONGUID
  2
{FAEB1C32-E019-11D5-929B-00C0DF256EC4}
  9
$EXTNAMES
290
     1
  9
$PSVPSCALE
 40
0.0
  9
$OLESTARTUP
290
     0
  0
ENDSEC
  0
SECTION
  2
CLASSES
  0
CLASS
  1
ACDBDICTIONARYWDFLT
  2
AcDbDictionaryWithDefault
  3
ObjectDBX Classes
 90
        0
280
     0
281
     0
  0
CLASS
  1
VISUALSTYLE
  2
AcDbVisualStyle
  3
ObjectDBX Classes
 90
     4095
280
     0
281
     0
  0
CLASS
  1
MATERIAL
  2
AcDbMaterial
  3
ObjectDBX Classes
 90
     1153
280
     0
281
     0
  0
CLASS
  1
SCALE
  2
AcDbScale
  3
ObjectDBX Classes
 90
     1153
280
     0
281
     0
  0
CLASS
  1
TABLESTYLE
  2
AcDbTableStyle
  3
ObjectDBX Classes
 90
     4095
280
     0
281
     0
  0
CLASS
  1
MLEADERSTYLE
  2
AcDbMLeaderStyle
  3
ACDB_MLEADERSTYLE_CLASS
 90
     4095
280
     0
281
     0
  0
CLASS
  1
SUN
  2
AcDbSun
  3
SCENEOE
 90
     1153
280
     0
281
     0
  0
CLASS
  1
ACDBPLACEHOLDER
  2
AcDbPlaceHolder
  3
ObjectDBX Classes
 90
        0
280
     0
281
     0
  0
CLASS
  1
LAYOUT
  2
AcDbLayout
  3
ObjectDBX Classes
 90
        0
280
     0
281
     0
  0
ENDSEC
  0
SECTION
  2
TABLES
  0
TABLE
  2
VPORT
  5
8
330
0
100
AcDbSymbolTable
 70
     1
  0
VPORT
  5
29
330
8
100
AcDbSymbolTableRecord
100
AcDbViewportTableRecord
  2
*Active
 70
     0
 10
0.0
 20
0.0
 11
1.0
 21
1.0
 12
148.5
 22
105.0
 13
0.0
 23
0.0
 14
10.0
 24
10.0
 15
10.0
 25
10.0
 16
0.0
 26
0.0
 36
1.0
 17
0.0
 27
0.0
 37
0.0
 40
210.0
 41
1.4142857143
 42
50.0
 43
0.0
 44
0.0
 50
0.0
 51
0.0
 71
     0
 72
  2000
 73
     1
 74
     3
 75
     0
 76
     0
 77
     0
 78
     0
281
     0
 65
     1
110
0.0
120
0.0
130
0.0
111
1.0
121
0.0
131
0.0
112
0.0
122
1.0
132
0.0
 79
     0
146
0.0
  0
ENDTAB
  0
TABLE
  2
LTYPE
  5
5
330
0
100
AcDbSymbolTable
 70
     6
  0
LTYPE
  5
14
330
5
100
AcDbSymbolTableRecord
100
AcDbLinetypeTableRecord
  2
ByBlock
 70
     0
  3

 72
    65
 73
     0
 40
0.0
  0
LTYPE
  5
15
330
5
100
AcDbSymbolTableRecord
100
AcDbLinetypeTableRecord
  2
ByLayer
 70
     0
  3

 72
    65
 73
     0
 40
0.0
  0
LTYPE
  5
16
330
5
100
AcDbSymbolTableRecord
100
AcDbLinetypeTableRecord
  2
Continuous
 70
     0
  3
Solid line
 72
    65
 73
     0
 40
0.0
  0
LTYPE
  5
5E
330
5
100
AcDbSymbolTableRecord
100
AcDbLinetypeTableRecord
  2
HIDDEN
 70
     0
  3
Hidden __ __ __ __ __ __ __ __ __ __ __ __ __ __
 72
    65
 73
     2
 40
1.905
 49
1.27
 74
     0
 49
-0.635
 74
     0
  0
LTYPE
  5
5F
330
5
100
AcDbSymbolTableRecord
100
AcDbLinetypeTableRecord
  2
PHANTOM
 70
     0
  3
Phantom ______  __  __  ______  __  __  ______
 72
    65
 73
     6
 40
12.7
 49
6.35
 74
     0
 49
-1.27
 74
     0
 49
1.27
 74
     0
 49
-1.27
 74
     0
 49
1.27
 74
     0
 49
-1.27
 74
     0
  0
LTYPE
  5
60
330
5
100
AcDbSymbolTableRecord
100
AcDbLinetypeTableRecord
  2
CENTER
 70
     0
  3
Center ____ _ ____ _ ____ _ ____ _ ____ _ ____
 72
    65
 73
     4
 40
10.16
 49
6.35
 74
     0
 49
-1.27
 74
     0
 49
1.27
 74
     0
 49
-1.27
 74
     0
  0
LTYPE
  5
61
330
5
100
AcDbSymbolTableRecord
100
AcDbLinetypeTableRecord
  2
CENTERX2
 70
     0
  3
Center (2x) ________  __  ________  __  _____
 72
    65
 73
     4
 40
20.32
 49
12.7
 74
     0
 49
-2.54
 74
     0
 49
2.54
 74
     0
 49
-2.54
 74
     0
  0
LTYPE
  5
62
330
5
100
AcDbSymbolTableRecord
100
AcDbLinetypeTableRecord
  2
DOT2
 70
     0
  3
Dot (.5x) ........................................
 72
    65
 73
     2
 40
0.635
 49
0.0
 74
     0
 49
-0.635
 74
     0
  0
ENDTAB
  0
TABLE
  2
LAYER
  5
2
330
0
100
AcDbSymbolTable
 70
    14
  0
LAYER
  5
10
330
2
100
AcDbSymbolTableRecord
100
AcDbLayerTableRecord
  2
0
 70
     0
 62
     7
  6
Continuous
370
    -3
390
F
  0
LAYER
  5
63
330
2
100
AcDbSymbolTableRecord
100
AcDbLayerTableRecord
  2
SLD-0
 70
     0
 62
     7
  6
Continuous
370
    -3
390
F
  0
LAYER
  5
64
330
2
100
AcDbSymbolTableRecord
100
AcDbLayerTableRecord
  2
5
 70
     0
 62
     7
  6
Continuous
370
    -3
390
F
  0
LAYER
  5
65
330
2
100
AcDbSymbolTableRecord
100
AcDbLayerTableRecord
  2
9
 70
     0
 62
     7
  6
Continuous
370
    -3
390
F
  0
LAYER
  5
66
330
2
100
AcDbSymbolTableRecord
100
AcDbLayerTableRecord
  2
10
 70
     0
 62
     7
  6
Continuous
370
    -3
390
F
  0
LAYER
  5
67
330
2
100
AcDbSymbolTableRecord
100
AcDbLayerTableRecord
  2
轮廓实线层
 70
     0
 62
     7
  6
Continuous
370
    50
390
F
  0
LAYER
  5
68
330
2
100
AcDbSymbolTableRecord
100
AcDbLayerTableRecord
  2
细线层
 70
     0
 62
     4
  6
Continuous
370
    25
390
F
  0
LAYER
  5
69
330
2
100
AcDbSymbolTableRecord
100
AcDbLayerTableRecord
  2
中心线层
 70
     0
 62
     1
  6
CENTERX2
370
    25
390
F
  0
LAYER
  5
6A
330
2
100
AcDbSymbolTableRecord
100
AcDbLayerTableRecord
  2
虚线层
 70
     0
 62
     6
  6
HIDDEN
370
    25
390
F
  0
LAYER
  5
6B
330
2
100
AcDbSymbolTableRecord
100
AcDbLayerTableRecord
  2
剖面线层
 70
     0
 62
     2
  6
Continuous
370
    25
390
F
  0
LAYER
  5
6C
330
2
100
AcDbSymbolTableRecord
100
AcDbLayerTableRecord
  2
文字层
 70
     0
 62
     3
  6
Continuous
370
    25
390
F
  0
LAYER
  5
6D
330
2
100
AcDbSymbolTableRecord
100
AcDbLayerTableRecord
  2
标注层
 70
     0
 62
     4
  6
Continuous
370
    25
390
F
  0
LAYER
  5
6E
330
2
100
AcDbSymbolTableRecord
100
AcDbLayerTableRecord
  2
符号标注层
 70
     0
 62
    31
  6
Continuous
370
    25
390
F
  0
LAYER
  5
6F
330
2
100
AcDbSymbolTableRecord
100
AcDbLayerTableRecord
  2
双点划线层
 70
     0
 62
     6
  6
PHANTOM
370
    25
390
F
  0
ENDTAB
  0
TABLE
  2
STYLE
  5
3
330
0
100
AcDbSymbolTable
 70
     1
  0
STYLE
  5
11
330
3
100
AcDbSymbolTableRecord
100
AcDbTextStyleTableRecord
  2
Standard
 70
     0
 40
0.0
 41
1.0
 50
0.0
 71
     0
 42
3.5
  3
txt
  4

  0
ENDTAB
  0
TABLE
  2
VIEW
  5
6
330
0
100
AcDbSymbolTable
 70
     0
  0
ENDTAB
  0
TABLE
  2
UCS
  5
7
330
0
100
AcDbSymbolTable
 70
     0
  0
ENDTAB
  0
TABLE
  2
APPID
  5
9
330
0
100
AcDbSymbolTable
 70
     1
  0
APPID
  5
12
330
9
100
AcDbSymbolTableRecord
100
AcDbRegAppTableRecord
  2
ACAD
 70
     0
  0
ENDTAB
  0
TABLE
  2
DIMSTYLE
  5
A
330
0
100
AcDbSymbolTable
 70
     1
100
AcDbDimStyleTable
  0
DIMSTYLE
105
27
330
A
100
AcDbSymbolTableRecord
100
AcDbDimStyleTableRecord
  2
ISO-25
 70
     0
 41
2.5
 42
0.625
 43
3.75
 44
1.25
 73
     0
 74
     0
 77
     1
 78
     8
140
2.5
141
2.5
143
0.0393700787
147
0.625
171
     3
172
     1
178
     0
271
     2
272
     2
274
     3
278
    44
283
     0
284
     8
340
11
  0
ENDTAB
  0
TABLE
  2
BLOCK_RECORD
  5
1
330
0
100
AcDbSymbolTable
 70
     1
  0
BLOCK_RECORD
  5
1F
330
1
100
AcDbSymbolTableRecord
100
AcDbBlockTableRecord
  2
*Model_Space
340
22
  0
BLOCK_RECORD
  5
1B
330
1
100
AcDbSymbolTableRecord
100
AcDbBlockTableRecord
  2
*Paper_Space
340
1E
  0
BLOCK_RECORD
  5
23
330
1
100
AcDbSymbolTableRecord
100
AcDbBlockTableRecord
  2
*Paper_Space0
340
26
  0
ENDTAB
  0
ENDSEC
  0
SECTION
  2
BLOCKS
  0
BLOCK
  5
20
330
1F
100
AcDbEntity
  8
0
100
AcDbBlockBegin
  2
*Model_Space
 70
     0
 10
0.0
 20
0.0
 30
0.0
  3
*Model_Space
  1

  0
ENDBLK
  5
21
330
1F
100
AcDbEntity
  8
0
100
AcDbBlockEnd
  0
BLOCK
  5
1C
330
1B
100
AcDbEntity
 67
     1
  8
0
100
AcDbBlockBegin
  2
*Paper_Space
 70
     0
 10
0.0
 20
0.0
 30
0.0
  3
*Paper_Space
  1

  0
ENDBLK
  5
1D
330
1B
100
AcDbEntity
 67
     1
  8
0
100
AcDbBlockEnd
  0
BLOCK
  5
24
330
23
100
AcDbEntity
  8
0
100
AcDbBlockBegin
  2
*Paper_Space0
 70
     0
 10
0.0
 20
0.0
 30
0.0
  3
*Paper_Space0
  1

  0
ENDBLK
  5
25
330
23
100
AcDbEntity
  8
0
100
AcDbBlockEnd
  0
ENDSEC
  0
SECTION
  2
ENTITIES
  0
LINE
  5
70
330
1F
100
AcDbEntity
  8
0
  6
Continuous
 62
     7
370
    25
100
AcDbLine
 10
90.8055163083
 20
45.4940807911
 30
0.0
 11
73.5299317643
 21
45.4940807911
 31
0.0
  0
LINE
  5
71
330
1F
100
AcDbEntity
  8
0
  6
Continuous
 62
     7
370
    25
100
AcDbLine
 10
69.0919343552
 20
45.4940807911
 30
0.0
 11
69.0919343552
 21
68.5059192089
 31
0.0
  0
LINE
  5
72
330
1F
100
AcDbEntity
  8
0
  6
Continuous
 62
     7
370
    25
100
AcDbLine
 10
90.8055163083
 20
68.5059192089
 30
0.0
 11
73.5299317643
 21
68.5059192089
 31
0.0
  0
ARC
  5
73
330
1F
100
AcDbEntity
  8
0
  6
Continuous
 62
     7
370
    25
100
AcDbCircle
 10
282.248949917
 20
57.0
 30
0.0
 40
191.7888798881503
100
AcDbArc
 50
176.5606102945
 51
183.4393897055
  0
LINE
  5
74
330
1F
100
AcDbEntity
  8
0
  6
Continuous
 62
     7
370
    25
100
AcDbLine
 10
73.5299317643
 20
49.9320782002
 30
0.0
 11
69.0919343552
 21
45.4940807911
 31
0.0
  0
LINE
  5
75
330
1F
100
AcDbEntity
  8
0
  6
Continuous
 62
     7
370
    25
100
AcDbLine
 10
73.5299317643
 20
45.4940807911
 30
0.0
 11
73.5299317643
 21
49.9320782002
 31
0.0
  0
LINE
  5
76
330
1F
100
AcDbEntity
  8
0
  6
Continuous
 62
     7
370
    25
100
AcDbLine
 10
73.5299317643
 20
64.0679217998
 30
0.0
 11
69.0919343552
 21
68.5059192089
 31
0.0
  0
LINE
  5
77
330
1F
100
AcDbEntity
  8
0
  6
Continuous
 62
     7
370
    25
100
AcDbLine
 10
73.5299317643
 20
68.5059192089
 30
0.0
 11
73.5299317643
 21
64.0679217998
 31
0.0
  0
SPLINE
  5
78
330
1F
100
AcDbEntity
  8
0
  6
Continuous
 62
     7
370
    25
100
AcDbSpline
210
0.0
220
0.0
230
1.0
 70
     8
 71
     3
 72
     8
 73
     4
 74
     0
 42
0.00000001
 43
0.00000001
 40
-0.639852520498515
 40
-0.639852520498515
 40
-0.639852520498515
 40
-0.639852520498515
 40
-0.604446469100038
 40
-0.604446469100038
 40
-0.604446469100038
 40
-0.604446469100038
 10
87.13346145558262
 20
39.50639705551639
 30
0.0
 10
87.15118684940701
 20
39.30869627967465
 30
0.0
 10
87.16908801509098
 20
39.11243185897406
 30
0.0
 10
87.1869926380949
 20
38.91926981454017
 30
0.0
  0
ARC
  5
79
330
1F
100
AcDbEntity
  8
0
  6
Continuous
 62
     7
370
    25
100
AcDbCircle
 10
80.5849180313
 20
38.9192698145
 30
0.0
 40
6.574810976530877
100
AcDbArc
 50
5.1233083274
 51
90.0
  0
SPLINE
  5
7A
330
1F
100
AcDbEntity
  8
0
  6
Continuous
 62
     7
370
    25
100
AcDbSpline
210
0.0
220
0.0
230
1.0
 70
     8
 71
     3
 72
    26
 73
    22
 74
     0
 42
0.00000001
 43
0.00000001
 40
0.0
 40
0.0
 40
0.0
 40
0.0
 40
0.125000000000001
 40
0.125000000000001
 40
0.1875000000000012
 40
0.1875000000000012
 40
0.2500000000000014
 40
0.2500000000000014
 40
0.3750000000000016
 40
0.3750000000000016
 40
0.5000000000000018
 40
0.5000000000000018
 40
0.6250000000000019
 40
0.6250000000000019
 40
0.6875000000000018
 40
0.6875000000000018
 40
0.7500000000000016
 40
0.7500000000000016
 40
0.8750000000000009
 40
0.8750000000000009
 40
1.0
 40
1.0
 40
1.0
 40
1.0
 10
90.80551630827325
 20
45.49408079107105
 30
0.0
 10
90.80551630827325
 20
45.49408079107105
 30
0.0
 10
90.80806966125195
 20
45.45137057901221
 30
0.0
 10
90.81569541775794
 20
45.32587146575005
 30
0.0
 10
90.81887697590179
 20
45.27372315909869
 30
0.0
 10
90.82659957531794
 20
45.14832566892016
 30
0.0
 10
90.83116238901582
 20
45.07473599969651
 30
0.0
 10
90.84671357529459
 20
44.82684135026653
 30
0.0
 10
90.85960499697094
 20
44.62460501324301
 30
0.0
 10
90.89109336787341
 20
44.14688804530241
 30
0.0
 10
90.9098710240001
 20
43.86897430027399
 30
0.0
 10
90.95247924406964
 20
43.26219611330827
 30
0.0
 10
90.9764407392951
 20
42.93118798574384
 30
0.0
 10
91.01709406172881
 20
42.39232385484489
 30
0.0
 10
91.03142231870217
 20
42.2058211590094
 30
0.0
 10
91.06112650330472
 20
41.82677467646769
 30
0.0
 10
91.07657535889084
 20
41.63325339628339
 30
0.0
 10
91.12480631023541
 20
41.04089081959922
 30
0.0
 10
91.15969144788426
 20
40.62774776242971
 30
0.0
 10
91.23418631553722
 20
39.7803765463805
 30
0.0
 10
91.27325572586487
 20
39.35211867697377
 30
0.0
 10
91.3142447303787
 20
38.91926981454021
 30
0.0
  0
SPLINE
  5
7B
330
1F
100
AcDbEntity
  8
0
  6
Continuous
 62
     7
370
    25
100
AcDbSpline
210
0.0
220
0.0
230
1.0
 70
     8
 71
     3
 72
     8
 73
     4
 74
     0
 42
0.00000001
 43
0.00000001
 40
-0.639852520498515
 40
-0.639852520498515
 40
-0.639852520498515
 40
-0.639852520498515
 40
-0.604446469100038
 40
-0.604446469100038
 40
-0.604446469100038
 40
-0.604446469100038
 10
87.13346145558262
 20
74.49360294448361
 30
0.0
 10
87.15118684940701
 20
74.69130372032535
 30
0.0
 10
87.16908801509098
 20
74.88756814102595
 30
0.0
 10
87.1869926380949
 20
75.08073018546
 30
0.0
  0
ARC
  5
7C
330
1F
100
AcDbEntity
  8
0
  6
Continuous
 62
     7
370
    25
100
AcDbCircle
 10
80.5849180313
 20
75.0807301855
 30
0.0
 40
6.57481097653087
100
AcDbArc
 50
270.0
 51
354.8766916726
  0
SPLINE
  5
7D
330
1F
100
AcDbEntity
  8
0
  6
Continuous
 62
     7
370
    25
100
AcDbSpline
210
0.0
220
0.0
230
1.0
 70
     8
 71
     3
 72
    26
 73
    22
 74
     0
 42
0.00000001
 43
0.00000001
 40
0.0
 40
0.0
 40
0.0
 40
0.0
 40
0.1249999999999996
 40
0.1249999999999996
 40
0.1874999999999996
 40
0.1874999999999996
 40
0.2499999999999996
 40
0.2499999999999996
 40
0.3749999999999996
 40
0.3749999999999996
 40
0.4999999999999996
 40
0.4999999999999996
 40
0.6249999999999996
 40
0.6249999999999996
 40
0.6874999999999999
 40
0.6874999999999999
 40
0.7500000000000001
 40
0.7500000000000001
 40
0.875
 40
0.875
 40
1.0
 40
1.0
 40
1.0
 40
1.0
 10
90.80551630827325
 20
68.50591920892913
 30
0.0
 10
90.80551630827325
 20
68.50591920892913
 30
0.0
 10
90.80806966125195
 20
68.54862942098796
 30
0.0
 10
90.81569541775794
 20
68.67412853425012
 30
0.0
 10
90.81887697590179
 20
68.72627684090146
 30
0.0
 10
90.82659957531794
 20
68.85167433108
 30
0.0
 10
90.83116238901582
 20
68.92526400030366
 30
0.0
 10
90.84671357529459
 20
69.17315864973364
 30
0.0
 10
90.85960499697094
 20
69.37539498675716
 30
0.0
 10
90.89109336787341
 20
69.85311195469777
 30
0.0
 10
90.9098710240001
 20
70.13102569972618
 30
0.0
 10
90.95247924406964
 20
70.73780388669192
 30
0.0
 10
90.9764407392951
 20
71.06881201425634
 30
0.0
 10
91.01709406172881
 20
71.60767614515528
 30
0.0
 10
91.03142231870217
 20
71.79417884099078
 30
0.0
 10
91.06112650330472
 20
72.17322532353249
 30
0.0
 10
91.07657535889084
 20
72.36674660371678
 30
0.0
 10
91.12480631023541
 20
72.95910918040097
 30
0.0
 10
91.15969144788426
 20
73.37225223757048
 30
0.0
 10
91.23418631553722
 20
74.21962345361968
 30
0.0
 10
91.27325572586487
 20
74.64788132302641
 30
0.0
 10
91.3142447303787
 20
75.08073018545997
 30
0.0
  0
LINE
  5
7E
330
1F
100
AcDbEntity
  8
0
  6
Continuous
 62
     7
370
    25
100
AcDbLine
 10
96.9080656448
 20
7.6874147305
 30
0.0
 11
94.5321246396
 21
7.0552617446
 31
0.0
  0
ARC
  5
7F
330
1F
100
AcDbEntity
  8
0
  6
Continuous
 62
     7
370
    25
100
AcDbCircle
 10
94.1094972601
 20
8.6437027441
 30
0.0
 40
1.643702744132784
100
AcDbArc
 50
194.4143688944
 51
284.8991884784
  0
ARC
  5
80
330
1F
100
AcDbEntity
  8
0
  6
Continuous
 62
     7
370
    25
100
AcDbCircle
 10
282.248949917
 20
57.0
 30
0.0
 40
195.8981367484815
100
AcDbArc
 50
185.2957421211
 51
194.4143688944
  0
ARC
  5
81
330
1F
100
AcDbEntity
  8
0
  6
Continuous
 62
     7
370
    25
100
AcDbCircle
 10
282.248949917
 20
57.0
 30
0.0
 40
191.7888798881499
100
AcDbArc
 50
185.4095431403
 51
194.8991884784
  0
LINE
  5
82
330
1F
100
AcDbEntity
  8
0
  6
Continuous
 62
     7
370
    25
100
AcDbLine
 10
96.9080656448
 20
106.3125852695
 30
0.0
 11
94.5321246396
 21
106.9447382554
 31
0.0
  0
ARC
  5
83
330
1F
100
AcDbEntity
  8
0
  6
Continuous
 62
     7
370
    25
100
AcDbCircle
 10
94.1094972601
 20
105.3562972559
 30
0.0
 40
1.643702744132932
100
AcDbArc
 50
75.1008115216
 51
165.5856311056
  0
ARC
  5
84
330
1F
100
AcDbEntity
  8
0
  6
Continuous
 62
     7
370
    25
100
AcDbCircle
 10
282.248949917
 20
57.0
 30
0.0
 40
195.8981367484815
100
AcDbArc
 50
165.5856311056
 51
174.7042578789
  0
ARC
  5
85
330
1F
100
AcDbEntity
  8
0
  6
Continuous
 62
     7
370
    25
100
AcDbCircle
 10
282.248949917
 20
57.0
 30
0.0
 40
191.7888798881499
100
AcDbArc
 50
165.1008115216
 51
174.5904568597
  0
LINE
  5
86
330
1F
100
AcDbEntity
  8
0
  6
HIDDEN
 62
     7
370
    18
100
AcDbLine
 10
91.2605184923
 20
39.4959001756
 30
0.0
 11
87.1915905511
 21
38.8392105031
 31
0.0
  0
LINE
  5
87
330
1F
100
AcDbEntity
  8
0
  6
HIDDEN
 62
     7
370
    18
100
AcDbLine
 10
87.1915905511
 20
75.1607894969
 30
0.0
 11
91.2605184923
 21
74.5040998244
 31
0.0
  0
LINE
  5
88
330
1F
100
AcDbEntity
  8
0
  6
HIDDEN
 62
     7
370
    18
100
AcDbLine
 10
92.1146217402
 20
9.8249562456
 30
0.0
 11
96.1312013984
 21
10.7006948121
 31
0.0
  0
LINE
  5
89
330
1F
100
AcDbEntity
  8
0
  6
HIDDEN
 62
     7
370
    18
100
AcDbLine
 10
96.1312013984
 20
103.2993051879
 30
0.0
 11
92.1146217402
 21
104.1750437544
 31
0.0
  0
LINE
  5
8A
330
1F
100
AcDbEntity
  8
0
  6
Continuous
 62
     7
370
    25
100
AcDbLine
 10
92.517537024
 20
155.5344458838
 30
0.0
 11
94.5321246396
 21
155.5344458838
 31
0.0
  0
LINE
  5
8B
330
1F
100
AcDbEntity
  8
0
  6
Continuous
 62
     7
370
    25
100
AcDbLine
 10
94.5321246396
 20
194.983311743
 30
0.0
 11
92.517537024
 21
194.983311743
 31
0.0
  0
LINE
  5
8C
330
1F
100
AcDbEntity
  8
0
  6
Continuous
 62
     7
370
    25
100
AcDbLine
 10
96.9080656448
 20
194.983311743
 30
0.0
 11
96.9080656448
 21
155.5344458838
 31
0.0
  0
LINE
  5
8D
330
1F
100
AcDbEntity
  8
0
  6
Continuous
 62
     7
370
    25
100
AcDbLine
 10
96.9080656448
 20
155.5344458838
 30
0.0
 11
94.5321246396
 21
155.5344458838
 31
0.0
  0
LINE
  5
8E
330
1F
100
AcDbEntity
  8
0
  6
Continuous
 62
     7
370
    25
100
AcDbLine
 10
94.5321246396
 20
194.983311743
 30
0.0
 11
96.9080656448
 21
194.983311743
 31
0.0
  0
LINE
  5
8F
330
1F
100
AcDbEntity
  8
0
  6
Continuous
 62
     7
370
    25
100
AcDbLine
 10
90.8055163083
 20
148.9596349073
 30
0.0
 11
90.8055163083
 21
121.016688257
 31
0.0
  0
SPLINE
  5
90
330
1F
100
AcDbEntity
  8
0
  6
Continuous
 62
     7
370
    25
100
AcDbSpline
210
0.0
220
0.0
230
1.0
 70
     8
 71
     3
 72
    26
 73
    22
 74
     0
 42
0.00000001
 43
0.00000001
 40
0.0
 40
0.0
 40
0.0
 40
0.0
 40
0.1249999999999996
 40
0.1249999999999996
 40
0.1874999999999996
 40
0.1874999999999996
 40
0.2499999999999996
 40
0.2499999999999996
 40
0.3749999999999996
 40
0.3749999999999996
 40
0.4999999999999996
 40
0.4999999999999996
 40
0.6249999999999996
 40
0.6249999999999996
 40
0.6874999999999999
 40
0.6874999999999999
 40
0.7500000000000001
 40
0.7500000000000001
 40
0.875
 40
0.875
 40
1.0
 40
1.0
 40
1.0
 40
1.0
 10
90.80551630827325
 20
148.95963490727
 30
0.0
 10
90.80551630827325
 20
149.3944564518161
 30
0.0
 10
90.80806966125195
 20
149.8219898952893
 30
0.0
 10
90.81569541775794
 20
150.4528056765367
 30
0.0
 10
90.81887697590179
 20
150.661317160382
 30
0.0
 10
90.82659957531794
 20
151.0747384417907
 30
0.0
 10
90.83116238901582
 20
151.2801663221508
 30
0.0
 10
90.84671357529459
 20
151.8776308694243
 30
0.0
 10
90.85960499697094
 20
152.2554034967664
 30
0.0
 10
90.89109336787341
 20
152.9702393453156
 30
0.0
 10
90.9098710240001
 20
153.3084778671806
 30
0.0
 10
90.95247924406964
 20
153.9145315509475
 30
0.0
 10
90.9764407392951
 20
154.1864237341015
 30
0.0
 10
91.01709406172881
 20
154.5464678544001
 30
0.0
 10
91.03142231870217
 20
154.6581330552954
 30
0.0
 10
91.06112650330472
 20
154.8605430035506
 30
0.0
 10
91.07657535889084
 20
154.9519727497238
 30
0.0
 10
91.12480631023541
 20
155.1973897100706
 30
0.0
 10
91.15969144788426
 20
155.3232721367096
 30
0.0
 10
91.23418631553722
 20
155.4921130651144
 30
0.0
 10
91.27325572586487
 20
155.5344458838009
 30
0.0
 10
91.3142447303787
 20
155.5344458838009
 30
0.0
  0
SPLINE
  5
91
330
1F
100
AcDbEntity
  8
0
  6
Continuous
 62
     7
370
    25
100
AcDbSpline
210
0.0
220
0.0
230
1.0
 70
     8
 71
     3
 72
    16
 73
    12
 74
     0
 42
0.00000001
 43
0.00000001
 40
0.0
 40
0.0
 40
0.0
 40
0.0
 40
0.0432646965872496
 40
0.1698617169981516
 40
0.2964336862214301
 40
0.4228102955564
 40
0.5051946882899925
 40
0.6312330498752187
 40
0.7572660216259274
 40
0.8834508838914175
 40
1.0
 40
1.0
 40
1.0
 40
1.0
 10
91.51344441236755
 20
172.0937877942881
 30
0.0
 10
91.50012091524853
 20
172.1103543920437
 30
0.0
 10
91.44781147416667
 20
172.1753965849068
 30
0.0
 10
91.37316247151793
 20
172.6602302892966
 30
0.0
 10
91.30119636496028
 20
173.4819571136851
 30
0.0
 10
91.26665389948255
 20
174.410069989734
 30
0.0
 10
91.25681151238724
 20
175.3851913717602
 30
0.0
 10
91.27187141828409
 20
176.3678570286085
 30
0.0
 10
91.32270062144036
 20
177.3433346123034
 30
0.0
 10
91.4005105009256
 20
178.0961575681527
 30
0.0
 10
91.47011187689147
 20
178.322916007377
 30
0.0
 10
91.50353109122273
 20
178.4317944422742
 30
0.0
  0
SPLINE
  5
92
330
1F
100
AcDbEntity
  8
0
  6
Continuous
 62
     7
370
    25
100
AcDbSpline
210
0.0
220
0.0
230
1.0
 70
     8
 71
     3
 72
     8
 73
     4
 74
     0
 42
0.00000001
 43
0.00000001
 40
-0.639852520498515
 40
-0.639852520498515
 40
-0.639852520498515
 40
-0.639852520498515
 40
-0.604446469100038
 40
-0.604446469100038
 40
-0.604446469100038
 40
-0.604446469100038
 10
87.13346145558262
 20
155.5081783315755
 30
0.0
 10
87.15118684940701
 20
155.5259037253826
 30
0.0
 10
87.16908801509098
 20
155.5344458838009
 30
0.0
 10
87.1869926380949
 20
155.5344458838009
 30
0.0
  0
SPLINE
  5
93
330
1F
100
AcDbEntity
  8
0
  6
Continuous
 62
     7
370
    25
100
AcDbSpline
210
0.0
220
0.0
230
1.0
 70
     8
 71
     3
 72
    38
 73
    34
 74
     0
 42
0.00000001
 43
0.00000001
 40
0.0
 40
0.0
 40
0.0
 40
0.0
 40
0.0625
 40
0.0625
 40
0.125
 40
0.125
 40
0.1875
 40
0.1875
 40
0.25
 40
0.25
 40
0.3125
 40
0.3125
 40
0.375
 40
0.375
 40
0.4375
 40
0.4375
 40
0.5
 40
0.5
 40
0.5625
 40
0.5625
 40
0.625
 40
0.625
 40
0.6875
 40
0.6875
 40
0.75
 40
0.75
 40
0.8125
 40
0.8125
 40
0.875
 40
0.875
 40
0.9375
 40
0.9375
 40
1.0
 40
1.0
 40
1.0
 40
1.0
 10
91.35078834415074
 20
178.546284301659
 30
0.0
 10
91.39954336820844
 20
178.546284301659
 30
0.0
 10
91.44783527332137
 20
178.5249765578207
 30
0.0
 10
91.54349220644879
 20
178.4414936407457
 30
0.0
 10
91.59136094681362
 20
178.3783066369054
 30
0.0
 10
91.68322844692564
 20
178.2133391181703
 30
0.0
 10
91.727095493582
 20
178.112389930251
 30
0.0
 10
91.81056701821946
 20
177.8738931547987
 30
0.0
 10
91.85033408320255
 20
177.7350732566232
 30
0.0
 10
91.92193339529632
 20
177.4318257040848
 30
0.0
 10
91.95423352383878
 20
177.2663616643375
 30
0.0
 10
92.01146709107876
 20
176.9070896113016
 30
0.0
 10
92.0359001884662
 20
176.7157574700791
 30
0.0
 10
92.07520337021802
 20
176.3202340740011
 30
0.0
 10
92.09037861814942
 20
176.113136991002
 30
0.0
 10
92.11071106718016
 20
175.6887938634518
 30
0.0
 10
92.1157528319901
 20
175.4754994023216
 30
0.0
 10
92.11582300672066
 20
175.0467248388101
 30
0.0
 10
92.11068908029982
 20
174.8289683830109
 30
0.0
 10
92.09053050972429
 20
174.4073301325655
 30
0.0
 10
92.07562138492237
 20
174.2024035623269
 30
0.0
 10
92.0362041398386
 20
173.8043977800078
 30
0.0
 10
92.01159529869396
 20
173.6118437752925
 30
0.0
 10
91.95495177298515
 20
173.2555391608885
 30
0.0
 10
91.9227193907305
 20
173.0894759348699
 30
0.0
 10
91.85033237755954
 20
172.7824644099271
 30
0.0
 10
91.81123461352772
 20
172.64610190386
 30
0.0
 10
91.72809331555807
 20
172.4078952748895
 30
0.0
 10
91.68348182357111
 20
172.3049476390616
 30
0.0
 10
91.5915623172636
 20
172.1397388198447
 30
0.0
 10
91.54457683247901
 20
172.0774988548619
 30
0.0
 10
91.44869105932483
 20
171.9932454357563
 30
0.0
 10
91.39954333906475
 20
171.9714733251281
 30
0.0
 10
91.35078834415071
 20
171.9714733251281
 30
0.0
  0
LINE
  5
94
330
1F
100
AcDbEntity
  8
0
  6
Continuous
 62
     7
370
    25
100
AcDbLine
 10
87.5272161567
 20
178.5462843017
 30
0.0
 11
91.3507883442
 21
178.5462843017
 31
0.0
  0
SPLINE
  5
95
330
1F
100
AcDbEntity
  8
0
  6
Continuous
 62
     7
370
    25
100
AcDbSpline
210
0.0
220
0.0
230
1.0
 70
     8
 71
     3
 72
    38
 73
    34
 74
     0
 42
0.00000001
 43
0.00000001
 40
0.0
 40
0.0
 40
0.0
 40
0.0
 40
0.0625
 40
0.0625
 40
0.125
 40
0.125
 40
0.1875
 40
0.1875
 40
0.25
 40
0.25
 40
0.3125
 40
0.3125
 40
0.375
 40
0.375
 40
0.4375
 40
0.4375
 40
0.5
 40
0.5
 40
0.5625
 40
0.5625
 40
0.625
 40
0.625
 40
0.6875
 40
0.6875
 40
0.75
 40
0.75
 40
0.8125
 40
0.8125
 40
0.875
 40
0.875
 40
0.9375
 40
0.9375
 40
1.0
 40
1.0
 40
1.0
 40
1.0
 10
87.52721615670404
 20
171.9714733251281
 30
0.0
 10
87.5034333622252
 20
171.9714733251281
 30
0.0
 10
87.48040661494386
 20
171.9927607958941
 30
0.0
 10
87.43576362490394
 20
172.076154035927
 30
0.0
 10
87.4139262146097
 20
172.1392637088373
 30
0.0
 10
87.37286033898442
 20
172.3040749259835
 30
0.0
 10
87.35368245580328
 20
172.4049311455815
 30
0.0
 10
87.3178422460466
 20
172.6432139997538
 30
0.0
 10
87.30111444412377
 20
172.7819479108245
 30
0.0
 10
87.27144764964956
 20
173.0850766819523
 30
0.0
 10
87.25830721329417
 20
173.2504847145518
 30
0.0
 10
87.23528853736912
 20
173.6096561954236
 30
0.0
 10
87.22560326324982
 20
173.8011086064919
 30
0.0
 10
87.21014010394467
 20
174.1967635027681
 30
0.0
 10
87.20423851960663
 20
174.4038518330257
 30
0.0
 10
87.19634489939538
 20
174.8285767294179
 30
0.0
 10
87.19440213570438
 20
175.0420381134471
 30
0.0
 10
87.19437411550314
 20
175.4710982363423
 30
0.0
 10
87.19635155071333
 20
175.6889995995349
 30
0.0
 10
87.20417382353243
 20
176.1109599484771
 30
0.0
 10
87.20997290496936
 20
176.3159986664479
 30
0.0
 10
87.22547784046729
 20
176.7141437912165
 30
0.0
 10
87.23522817838601
 20
176.9067471255671
 30
0.0
 10
87.258011656465
 20
177.2630673032943
 30
0.0
 10
87.27112061785972
 20
177.429101185716
 30
0.0
 10
87.30111019109164
 20
177.7360018636672
 30
0.0
 10
87.31755367179075
 20
177.8722606974346
 30
0.0
 10
87.35324818126347
 20
178.1102962654942
 30
0.0
 10
87.37274944773034
 20
178.2131564694567
 30
0.0
 10
87.4138303433254
 20
178.3781899338969
 30
0.0
 10
87.43526229321921
 20
178.4403661611079
 30
0.0
 10
87.48000106806806
 20
178.5245341711132
 30
0.0
 10
87.50343340398913
 20
178.546284301659
 30
0.0
 10
87.52721615670407
 20
178.546284301659
 30
0.0
  0
LINE
  5
96
330
1F
100
AcDbEntity
  8
0
  6
Continuous
 62
     7
370
    25
100
AcDbLine
 10
91.3507883442
 20
171.9714733251
 30
0.0
 11
87.5272161567
 21
171.9714733251
 31
0.0
  0
LINE
  5
97
330
1F
100
AcDbEntity
  8
0
  6
Continuous
 62
     7
370
    25
100
AcDbLine
 10
92.517537024
 20
155.5344458838
 30
0.0
 11
87.1869926381
 21
155.5344458838
 31
0.0
  0
LINE
  5
98
330
1F
100
AcDbEntity
  8
0
  6
Continuous
 62
     7
370
    25
100
AcDbLine
 10
87.1334614555
 20
194.983311743
 30
0.0
 11
92.517537024
 21
194.983311743
 31
0.0
  0
LINE
  5
99
330
1F
100
AcDbEntity
  8
0
  6
Continuous
 62
     7
370
    25
100
AcDbLine
 10
80.5849180313
 20
148.9596349073
 30
0.0
 11
87.1334614556
 21
155.5081783316
 31
0.0
  0
LINE
  5
9A
330
1F
100
AcDbEntity
  8
0
  6
Continuous
 62
     7
370
    25
100
AcDbLine
 10
87.1334614555
 20
194.983311743
 30
0.0
 11
80.5849180313
 21
194.983311743
 31
0.0
  0
LINE
  5
9B
330
1F
100
AcDbEntity
  8
0
  6
Continuous
 62
     7
370
    25
100
AcDbLine
 10
90.8055163083
 20
121.016688257
 30
0.0
 11
73.5299317643
 21
121.016688257
 31
0.0
  0
LINE
  5
9C
330
1F
100
AcDbEntity
  8
0
  6
Continuous
 62
     7
370
    25
100
AcDbLine
 10
73.5299317643
 20
194.983311743
 30
0.0
 11
73.5299317643
 21
121.016688257
 31
0.0
  0
LINE
  5
9D
330
1F
100
AcDbEntity
  8
0
  6
Continuous
 62
     7
370
    25
100
AcDbLine
 10
73.5299317643
 20
194.983311743
 30
0.0
 11
80.5849180313
 21
194.983311743
 31
0.0
  0
LINE
  5
9E
330
1F
100
AcDbEntity
  8
0
  6
Continuous
 62
     7
370
    25
100
AcDbLine
 10
73.5299317643
 20
121.016688257
 30
0.0
 11
69.0919343552
 21
121.016688257
 31
0.0
  0
LINE
  5
9F
330
1F
100
AcDbEntity
  8
0
  6
Continuous
 62
     7
370
    25
100
AcDbLine
 10
69.0919343552
 20
121.016688257
 30
0.0
 11
69.0919343552
 21
194.983311743
 31
0.0
  0
LINE
  5
A0
330
1F
100
AcDbEntity
  8
0
  6
Continuous
 62
     7
370
    25
100
AcDbLine
 10
69.0919343552
 20
194.983311743
 30
0.0
 11
73.5299317643
 21
194.983311743
 31
0.0
  0
SPLINE
  5
A1
330
1F
100
AcDbEntity
  8
0
  6
HIDDEN
 62
     7
370
    18
100
AcDbSpline
210
0.0
220
0.0
230
1.0
 70
     8
 71
     3
 72
    38
 73
    34
 74
     0
 42
0.00000001
 43
0.00000001
 40
0.0
 40
0.0
 40
0.0
 40
0.0
 40
0.0624999999999995
 40
0.0624999999999995
 40
0.124999999999999
 40
0.124999999999999
 40
0.1874999999999985
 40
0.1874999999999985
 40
0.249999999999998
 40
0.249999999999998
 40
0.3124999999999975
 40
0.3124999999999975
 40
0.374999999999997
 40
0.374999999999997
 40
0.4374999999999965
 40
0.4374999999999965
 40
0.499999999999996
 40
0.499999999999996
 40
0.5624999999999964
 40
0.5624999999999964
 40
0.624999999999997
 40
0.624999999999997
 40
0.6874999999999974
 40
0.6874999999999974
 40
0.749999999999998
 40
0.749999999999998
 40
0.8124999999999984
 40
0.8124999999999984
 40
0.874999999999999
 40
0.874999999999999
 40
0.9374999999999994
 40
0.9374999999999994
 40
1.0
 40
1.0
 40
1.0
 40
1.0
 10
95.36600617106475
 20
171.9714733251281
 30
0.0
 10
95.41481466331506
 20
171.9714733251281
 30
0.0
 10
95.46316665359807
 20
171.9927811132482
 30
0.0
 10
95.55895563168814
 20
172.0762639802843
 30
0.0
 10
95.60689719487033
 20
172.1394508708073
 30
0.0
 10
95.69891603091057
 20
172.304417970869
 30
0.0
 10
95.74286117549549
 20
172.4053668344822
 30
0.0
 10
95.82649016947063
 20
172.6438627053528
 30
0.0
 10
95.86633705833853
 20
172.7826820666405
 30
0.0
 10
95.93808634200704
 20
173.0859286612856
 30
0.0
 10
95.9704574561079
 20
173.2513922268143
 30
0.0
 10
96.02782049419692
 20
173.6106635255241
 30
0.0
 10
96.05231100628448
 20
173.8019958654606
 30
0.0
 10
96.09170802267872
 20
174.1975195734676
 30
0.0
 10
96.10692043070233
 20
174.4046166829615
 30
0.0
 10
96.12730302529027
 20
174.8289616050774
 30
0.0
 10
96.13235741275498
 20
175.0422569127805
 30
0.0
 10
96.13242777816247
 20
175.471033068694
 30
0.0
 10
96.1272810154714
 20
175.6887903846125
 30
0.0
 10
96.10707277439425
 20
176.110430183115
 30
0.0
 10
96.09212711167862
 20
176.3153572877538
 30
0.0
 10
96.05261572016349
 20
176.7133637508317
 30
0.0
 10
96.02794911549742
 20
176.9059176238383
 30
0.0
 10
95.97117737464855
 20
177.2622218761675
 30
0.0
 10
95.93887403985612
 20
177.4282848443729
 30
0.0
 10
95.8663352492582
 20
177.7352958263219
 30
0.0
 10
95.82715914153941
 20
177.8716573278425
 30
0.0
 10
95.74386083644664
 20
178.1098631859202
 30
0.0
 10
95.69916978452035
 20
178.2128106340348
 30
0.0
 10
95.60709893939695
 20
178.3780188162502
 30
0.0
 10
95.56004191006932
 20
178.4402587095913
 30
0.0
 10
95.46402355298393
 20
178.5245121409548
 30
0.0
 10
95.41481463289027
 20
178.546284301659
 30
0.0
 10
95.36600617106478
 20
178.546284301659
 30
0.0
  0
LINE
  5
A2
330
1F
100
AcDbEntity
  8
0
  6
HIDDEN
 62
     7
370
    18
100
AcDbLine
 10
91.5892403277
 20
171.9714733251
 30
0.0
 11
91.5134444124
 21
172.0937877943
 31
0.0
  0
SPLINE
  5
A3
330
1F
100
AcDbEntity
  8
0
  6
HIDDEN
 62
     7
370
    18
100
AcDbSpline
210
0.0
220
0.0
230
1.0
 70
     8
 71
     3
 72
     9
 73
     5
 74
     0
 42
0.00000001
 43
0.00000001
 40
0.0
 40
0.0
 40
0.0
 40
0.0
 40
0.1055945056905934
 40
1.0
 40
1.0
 40
1.0
 40
1.0
 10
91.50353109122273
 20
178.4317944422742
 30
0.0
 10
91.50623147584855
 20
178.443206025365
 30
0.0
 10
91.5318046305138
 20
178.551275881994
 30
0.0
 10
91.56212321716862
 20
178.5486409760301
 30
0.0
 10
91.58924032765236
 20
178.546284301659
 30
0.0
  0
LINE
  5
A4
330
1F
100
AcDbEntity
  8
0
  6
HIDDEN
 62
     7
370
    18
100
AcDbLine
 10
95.3660061711
 20
171.9714733251
 30
0.0
 11
91.3507883442
 21
171.9714733251
 31
0.0
  0
LINE
  5
A5
330
1F
100
AcDbEntity
  8
0
  6
HIDDEN
 62
     7
370
    18
100
AcDbLine
 10
95.3660061711
 20
178.5462843017
 30
0.0
 11
91.3507883442
 21
178.5462843017
 31
0.0
  0
LINE
  5
A6
330
1F
100
AcDbEntity
  8
0
  6
HIDDEN
 62
     7
370
    18
100
AcDbLine
 10
90.4600700289
 20
194.983311743
 30
0.0
 11
90.4600700289
 21
121.016688257
 31
0.0
  0
LINE
  5
A7
330
1F
100
AcDbEntity
  8
0
  6
Continuous
 62
     7
370
    25
100
AcDbLine
 10
259.983311743
 20
107.0
 30
0.0
 11
220.5344458838
 21
107.0
 31
0.0
  0
LINE
  5
A8
330
1F
100
AcDbEntity
  8
0
  6
Continuous
 62
     7
370
    25
100
AcDbLine
 10
220.5344458838
 20
7.0
 30
0.0
 11
259.983311743
 21
7.0
 31
0.0
  0
LINE
  5
A9
330
1F
100
AcDbEntity
  8
0
  6
Continuous
 62
     7
370
    25
100
AcDbLine
 10
259.983311743
 20
7.6874147305
 30
0.0
 11
220.5344458838
 21
7.6874147305
 31
0.0
  0
LINE
  5
AA
330
1F
100
AcDbEntity
  8
0
  6
Continuous
 62
     7
370
    25
100
AcDbLine
 10
220.5344458838
 20
38.9192698145
 30
0.0
 11
220.5344458838
 21
7.6874147305
 31
0.0
  0
SPLINE
  5
AB
330
1F
100
AcDbEntity
  8
0
  6
Continuous
 62
     7
370
    25
100
AcDbSpline
210
0.0
220
0.0
230
1.0
 70
     8
 71
     3
 72
    26
 73
    22
 74
     0
 42
0.00000001
 43
0.00000001
 40
0.0
 40
0.0
 40
0.0
 40
0.0
 40
0.125000000000001
 40
0.125000000000001
 40
0.1875000000000012
 40
0.1875000000000012
 40
0.2500000000000014
 40
0.2500000000000014
 40
0.3750000000000016
 40
0.3750000000000016
 40
0.5000000000000018
 40
0.5000000000000018
 40
0.6250000000000019
 40
0.6250000000000019
 40
0.6875000000000018
 40
0.6875000000000018
 40
0.7500000000000016
 40
0.7500000000000016
 40
0.8750000000000009
 40
0.8750000000000009
 40
1.0
 40
1.0
 40
1.0
 40
1.0
 10
213.95963490727
 20
45.49408079107105
 30
0.0
 10
214.3944564518161
 20
45.49408079107105
 30
0.0
 10
214.8219898952892
 20
45.45137057901221
 30
0.0
 10
215.4528056765367
 20
45.32587146575005
 30
0.0
 10
215.661317160382
 20
45.27372315909869
 30
0.0
 10
216.0747384417907
 20
45.14832566892016
 30
0.0
 10
216.2801663221508
 20
45.07473599969651
 30
0.0
 10
216.8776308694243
 20
44.82684135026653
 30
0.0
 10
217.2554034967664
 20
44.62460501324301
 30
0.0
 10
217.9702393453156
 20
44.14688804530241
 30
0.0
 10
218.3084778671806
 20
43.86897430027399
 30
0.0
 10
218.9145315509475
 20
43.26219611330827
 30
0.0
 10
219.1864237341015
 20
42.93118798574384
 30
0.0
 10
219.5464678544001
 20
42.39232385484489
 30
0.0
 10
219.6581330552954
 20
42.2058211590094
 30
0.0
 10
219.8605430035506
 20
41.82677467646769
 30
0.0
 10
219.9519727497238
 20
41.63325339628339
 30
0.0
 10
220.1973897100706
 20
41.04089081959922
 30
0.0
 10
220.3232721367096
 20
40.62774776242971
 30
0.0
 10
220.4921130651144
 20
39.7803765463805
 30
0.0
 10
220.5344458838009
 20
39.35211867697377
 30
0.0
 10
220.5344458838009
 20
38.91926981454021
 30
0.0
  0
LINE
  5
AC
330
1F
100
AcDbEntity
  8
0
  6
Continuous
 62
     7
370
    25
100
AcDbLine
 10
213.9596349073
 20
45.4940807911
 30
0.0
 11
186.016688257
 21
45.4940807911
 31
0.0
  0
LINE
  5
AD
330
1F
100
AcDbEntity
  8
0
  6
Continuous
 62
     7
370
    25
100
AcDbLine
 10
186.016688257
 20
45.4940807911
 30
0.0
 11
186.016688257
 21
68.5059192089
 31
0.0
  0
LINE
  5
AE
330
1F
100
AcDbEntity
  8
0
  6
Continuous
 62
     7
370
    25
100
AcDbLine
 10
213.9596349073
 20
68.5059192089
 30
0.0
 11
186.016688257
 21
68.5059192089
 31
0.0
  0
SPLINE
  5
AF
330
1F
100
AcDbEntity
  8
0
  6
Continuous
 62
     7
370
    25
100
AcDbSpline
210
0.0
220
0.0
230
1.0
 70
     8
 71
     3
 72
    26
 73
    22
 74
     0
 42
0.00000001
 43
0.00000001
 40
0.0
 40
0.0
 40
0.0
 40
0.0
 40
0.1249999999999996
 40
0.1249999999999996
 40
0.1874999999999996
 40
0.1874999999999996
 40
0.2499999999999996
 40
0.2499999999999996
 40
0.3749999999999996
 40
0.3749999999999996
 40
0.4999999999999996
 40
0.4999999999999996
 40
0.6249999999999996
 40
0.6249999999999996
 40
0.6874999999999999
 40
0.6874999999999999
 40
0.7500000000000001
 40
0.7500000000000001
 40
0.875
 40
0.875
 40
1.0
 40
1.0
 40
1.0
 40
1.0
 10
213.95963490727
 20
68.50591920892913
 30
0.0
 10
214.3944564518161
 20
68.50591920892913
 30
0.0
 10
214.8219898952893
 20
68.54862942098796
 30
0.0
 10
215.4528056765367
 20
68.67412853425012
 30
0.0
 10
215.661317160382
 20
68.72627684090146
 30
0.0
 10
216.0747384417907
 20
68.85167433108
 30
0.0
 10
216.2801663221508
 20
68.92526400030366
 30
0.0
 10
216.8776308694243
 20
69.17315864973364
 30
0.0
 10
217.2554034967664
 20
69.37539498675716
 30
0.0
 10
217.9702393453156
 20
69.85311195469777
 30
0.0
 10
218.3084778671806
 20
70.13102569972618
 30
0.0
 10
218.9145315509475
 20
70.73780388669192
 30
0.0
 10
219.1864237341015
 20
71.06881201425634
 30
0.0
 10
219.5464678544001
 20
71.60767614515528
 30
0.0
 10
219.6581330552954
 20
71.79417884099078
 30
0.0
 10
219.8605430035506
 20
72.17322532353249
 30
0.0
 10
219.9519727497238
 20
72.36674660371678
 30
0.0
 10
220.1973897100706
 20
72.95910918040097
 30
0.0
 10
220.3232721367096
 20
73.37225223757048
 30
0.0
 10
220.4921130651144
 20
74.21962345361968
 30
0.0
 10
220.5344458838009
 20
74.64788132302641
 30
0.0
 10
220.5344458838009
 20
75.08073018545997
 30
0.0
  0
LINE
  5
B0
330
1F
100
AcDbEntity
  8
0
  6
Continuous
 62
     7
370
    25
100
AcDbLine
 10
220.5344458838
 20
75.0807301855
 30
0.0
 11
220.5344458838
 21
106.3125852695
 31
0.0
  0
LINE
  5
B1
330
1F
100
AcDbEntity
  8
0
  6
Continuous
 62
     7
370
    25
100
AcDbLine
 10
259.983311743
 20
106.3125852695
 30
0.0
 11
220.5344458838
 21
106.3125852695
 31
0.0
  0
SPLINE
  5
B2
330
1F
100
AcDbEntity
  8
0
  6
Continuous
 62
     7
370
    25
100
AcDbSpline
210
0.0
220
0.0
230
1.0
 70
     8
 71
     3
 72
    38
 73
    34
 74
     0
 42
0.00000001
 43
0.00000001
 40
0.0
 40
0.0
 40
0.0
 40
0.0
 40
0.0625000000000006
 40
0.0625000000000006
 40
0.1250000000000011
 40
0.1250000000000011
 40
0.1875000000000017
 40
0.1875000000000017
 40
0.2500000000000023
 40
0.2500000000000023
 40
0.3125000000000028
 40
0.3125000000000028
 40
0.3750000000000034
 40
0.3750000000000034
 40
0.4375000000000031
 40
0.4375000000000031
 40
0.5000000000000027
 40
0.5000000000000027
 40
0.5625000000000023
 40
0.5625000000000023
 40
0.625000000000002
 40
0.625000000000002
 40
0.6875000000000017
 40
0.6875000000000017
 40
0.7500000000000013
 40
0.7500000000000013
 40
0.8125000000000011
 40
0.8125000000000011
 40
0.8750000000000008
 40
0.8750000000000008
 40
0.9375000000000004
 40
0.9375000000000004
 40
1.0
 40
1.0
 40
1.0
 40
1.0
 10
236.9714733251281
 20
36.21900897341439
 30
0.0
 10
236.9714733251281
 20
36.43497330305006
 30
0.0
 10
236.9927398908882
 20
36.64737639318133
 30
0.0
 10
237.0760502630204
 20
37.06534989106591
 30
0.0
 10
237.1390948271421
 20
37.27307181168935
 30
0.0
 10
237.3037494685722
 20
37.66944199593323
 30
0.0
 10
237.4045104180756
 20
37.85749666618034
 30
0.0
 10
237.6425642296438
 20
38.21351197415861
 30
0.0
 10
237.7811732781845
 20
38.38220476857074
 30
0.0
 10
238.0840451762468
 20
38.68472799891687
 30
0.0
 10
238.2493127927711
 20
38.82053453486066
 30
0.0
 10
238.6081719007655
 20
39.06047921742589
 30
0.0
 10
238.7995099879703
 20
39.16263895727119
 30
0.0
 10
239.1948916709528
 20
39.32663289618826
 30
0.0
 10
239.4015646533971
 20
39.38973505192382
 30
0.0
 10
239.8266555023488
 20
39.47460114380504
 30
0.0
 10
240.0415463074304
 20
39.49589489833764
 30
0.0
 10
240.4760513481271
 20
39.4959054509567
 30
0.0
 10
240.6896644995437
 20
39.4746244564263
 30
0.0
 10
241.1099035923494
 20
39.39124957106662
 30
0.0
 10
241.3187146697279
 20
39.32813799465153
 30
0.0
 10
241.7167839525099
 20
39.16345976542944
 30
0.0
 10
241.9055670140988
 20
39.06270560684604
 30
0.0
 10
242.2628276663698
 20
38.82473873660534
 30
0.0
 10
242.431911534219
 20
38.68630371634625
 30
0.0
 10
242.7349731207981
 20
38.38403476818763
 30
0.0
 10
242.8709774117745
 20
38.21914316755993
 30
0.0
 10
243.1111992371399
 20
37.86121600520076
 30
0.0
 10
243.213226790806
 20
37.67081722348909
 30
0.0
 10
243.377172856929
 20
37.27715730261858
 30
0.0
 10
243.4402807517308
 20
37.07126553330469
 30
0.0
 10
243.5250152530888
 20
36.64860978629103
 30
0.0
 10
243.546284301659
 20
36.43497237712766
 30
0.0
 10
243.546284301659
 20
36.21900897341439
 30
0.0
  0
LINE
  5
B3
330
1F
100
AcDbEntity
  8
0
  6
Continuous
 62
     7
370
    25
100
AcDbLine
 10
236.9714733251
 20
36.2190089734
 30
0.0
 11
236.9714733251
 21
13.8984943929
 31
0.0
  0
SPLINE
  5
B4
330
1F
100
AcDbEntity
  8
0
  6
Continuous
 62
     7
370
    25
100
AcDbSpline
210
0.0
220
0.0
230
1.0
 70
     8
 71
     3
 72
    38
 73
    34
 74
     0
 42
0.00000001
 43
0.00000001
 40
0.0
 40
0.0
 40
0.0
 40
0.0
 40
0.0625
 40
0.0625
 40
0.125
 40
0.125
 40
0.1875
 40
0.1875
 40
0.25
 40
0.25
 40
0.3125
 40
0.3125
 40
0.375
 40
0.375
 40
0.4375
 40
0.4375
 40
0.5
 40
0.5
 40
0.5625
 40
0.5625
 40
0.625
 40
0.625
 40
0.6875
 40
0.6875
 40
0.75
 40
0.75
 40
0.8125
 40
0.8125
 40
0.875
 40
0.875
 40
0.9375
 40
0.9375
 40
1.0
 40
1.0
 40
1.0
 40
1.0
 10
236.9714733251281
 20
13.89849439294247
 30
0.0
 10
236.9714733251281
 20
13.68686664158973
 30
0.0
 10
236.9927811132482
 20
13.47885857980059
 30
0.0
 10
237.0762639802844
 20
13.06977562554701
 30
0.0
 10
237.1394508708074
 20
12.86658598767555
 30
0.0
 10
237.3044179708691
 20
12.47923030974913
 30
0.0
 10
237.4053668344822
 20
12.29557915131332
 30
0.0
 10
237.6438627053529
 20
11.94810899916364
 30
0.0
 10
237.7826820666406
 20
11.7836414913396
 30
0.0
 10
238.0859286612857
 20
11.48890721213401
 30
0.0
 10
238.2513922268144
 20
11.3566856420257
 30
0.0
 10
238.6106635255242
 20
11.12321005585582
 30
0.0
 10
238.8019958654608
 20
11.02399717183662
 30
0.0
 10
239.1975195734677
 20
10.86473726094303
 30
0.0
 10
239.4046166829617
 20
10.80345148793562
 30
0.0
 10
239.8289616050775
 20
10.72140025861907
 30
0.0
 10
240.0422569127806
 20
10.70109673683749
 30
0.0
 10
240.4710330686941
 20
10.70081387641385
 30
0.0
 10
240.6887903846126
 20
10.72148910612717
 30
0.0
 10
241.1104301831151
 20
10.80283797600104
 30
0.0
 10
241.3153572877538
 20
10.86304583711821
 30
0.0
 10
241.7133637508317
 20
11.02276271827938
 30
0.0
 10
241.9059176238383
 20
11.12269120654802
 30
0.0
 10
242.2622218761675
 20
11.35375088462422
 30
0.0
 10
242.4282848443729
 20
11.48567712434186
 30
0.0
 10
242.7352958263218
 20
11.7836433379154
 30
0.0
 10
242.8716573278424
 20
11.9453437676997
 30
0.0
 10
243.1098631859201
 20
12.29141166179351
 30
0.0
 10
243.2128106340348
 20
12.47816656595226
 30
0.0
 10
243.3780188162502
 20
12.86573232215359
 30
0.0
 10
243.4402587095912
 20
13.06515721874753
 30
0.0
 10
243.5245121409548
 20
13.47517873416713
 30
0.0
 10
243.546284301659
 20
13.68686677350808
 30
0.0
 10
243.546284301659
 20
13.89849439294247
 30
0.0
  0
LINE
  5
B5
330
1F
100
AcDbEntity
  8
0
  6
Continuous
 62
     7
370
    25
100
AcDbLine
 10
243.5462843017
 20
13.8984943929
 30
0.0
 11
243.5462843017
 21
36.2190089734
 31
0.0
  0
SPLINE
  5
B6
330
1F
100
AcDbEntity
  8
0
  6
Continuous
 62
     7
370
    25
100
AcDbSpline
210
0.0
220
0.0
230
1.0
 70
     8
 71
     3
 72
    38
 73
    34
 74
     0
 42
0.00000001
 43
0.00000001
 40
0.0
 40
0.0
 40
0.0
 40
0.0
 40
0.0624999999999995
 40
0.0624999999999995
 40
0.124999999999999
 40
0.124999999999999
 40
0.1874999999999985
 40
0.1874999999999985
 40
0.249999999999998
 40
0.249999999999998
 40
0.3124999999999975
 40
0.3124999999999975
 40
0.374999999999997
 40
0.374999999999997
 40
0.4374999999999965
 40
0.4374999999999965
 40
0.499999999999996
 40
0.499999999999996
 40
0.5624999999999964
 40
0.5624999999999964
 40
0.624999999999997
 40
0.624999999999997
 40
0.6874999999999974
 40
0.6874999999999974
 40
0.749999999999998
 40
0.749999999999998
 40
0.8124999999999984
 40
0.8124999999999984
 40
0.874999999999999
 40
0.874999999999999
 40
0.9374999999999994
 40
0.9374999999999994
 40
1.0
 40
1.0
 40
1.0
 40
1.0
 10
236.9714733251281
 20
100.1015056070575
 30
0.0
 10
236.9714733251281
 20
100.3131333584103
 30
0.0
 10
236.9927811132482
 20
100.5211414201994
 30
0.0
 10
237.0762639802843
 20
100.930224374453
 30
0.0
 10
237.1394508708073
 20
101.1334140123245
 30
0.0
 10
237.304417970869
 20
101.5207696902509
 30
0.0
 10
237.4053668344822
 20
101.7044208486867
 30
0.0
 10
237.6438627053528
 20
102.0518910008364
 30
0.0
 10
237.7826820666405
 20
102.2163585086604
 30
0.0
 10
238.0859286612856
 20
102.5110927878661
 30
0.0
 10
238.2513922268143
 20
102.6433143579744
 30
0.0
 10
238.6106635255241
 20
102.8767899441443
 30
0.0
 10
238.8019958654606
 20
102.9760028281635
 30
0.0
 10
239.1975195734676
 20
103.1352627390571
 30
0.0
 10
239.4046166829615
 20
103.1965485120645
 30
0.0
 10
239.8289616050774
 20
103.2785997413811
 30
0.0
 10
240.0422569127805
 20
103.2989032631627
 30
0.0
 10
240.471033068694
 20
103.2991861235863
 30
0.0
 10
240.6887903846125
 20
103.278510893873
 30
0.0
 10
241.110430183115
 20
103.1971620239991
 30
0.0
 10
241.3153572877538
 20
103.136954162882
 30
0.0
 10
241.7133637508317
 20
102.9772372817208
 30
0.0
 10
241.9059176238383
 20
102.8773087934522
 30
0.0
 10
242.2622218761675
 20
102.646249115376
 30
0.0
 10
242.4282848443729
 20
102.5143228756583
 30
0.0
 10
242.7352958263219
 20
102.2163566620848
 30
0.0
 10
242.8716573278425
 20
102.0546562323005
 30
0.0
 10
243.1098631859202
 20
101.7085883382066
 30
0.0
 10
243.2128106340348
 20
101.5218334340479
 30
0.0
 10
243.3780188162502
 20
101.1342676778466
 30
0.0
 10
243.4402587095913
 20
100.9348427812526
 30
0.0
 10
243.5245121409548
 20
100.5248212658329
 30
0.0
 10
243.546284301659
 20
100.3131332264919
 30
0.0
 10
243.546284301659
 20
100.1015056070575
 30
0.0
  0
LINE
  5
B7
330
1F
100
AcDbEntity
  8
0
  6
Continuous
 62
     7
370
    25
100
AcDbLine
 10
236.9714733251
 20
77.7809910266
 30
0.0
 11
236.9714733251
 21
100.1015056071
 31
0.0
  0
SPLINE
  5
B8
330
1F
100
AcDbEntity
  8
0
  6
Continuous
 62
     7
370
    25
100
AcDbSpline
210
0.0
220
0.0
230
1.0
 70
     8
 71
     3
 72
    38
 73
    34
 74
     0
 42
0.00000001
 43
0.00000001
 40
0.0
 40
0.0
 40
0.0
 40
0.0
 40
0.0625
 40
0.0625
 40
0.125
 40
0.125
 40
0.1875
 40
0.1875
 40
0.25
 40
0.25
 40
0.3125
 40
0.3125
 40
0.375
 40
0.375
 40
0.4375
 40
0.4375
 40
0.5
 40
0.5
 40
0.5625
 40
0.5625
 40
0.625
 40
0.625
 40
0.6875
 40
0.6875
 40
0.75
 40
0.75
 40
0.8125
 40
0.8125
 40
0.875
 40
0.875
 40
0.9375
 40
0.9375
 40
1.0
 40
1.0
 40
1.0
 40
1.0
 10
236.9714733251281
 20
77.78099102658578
 30
0.0
 10
236.9714733251281
 20
77.56502669695008
 30
0.0
 10
236.9927398908882
 20
77.35262360681877
 30
0.0
 10
237.0760502630204
 20
76.93465010893419
 30
0.0
 10
237.1390948271421
 20
76.72692818831075
 30
0.0
 10
237.3037494685722
 20
76.33055800406687
 30
0.0
 10
237.4045104180756
 20
76.14250333381977
 30
0.0
 10
237.6425642296438
 20
75.7864880258415
 30
0.0
 10
237.7811732781845
 20
75.61779523142937
 30
0.0
 10
238.0840451762469
 20
75.31527200108323
 30
0.0
 10
238.2493127927711
 20
75.17946546513946
 30
0.0
 10
238.6081719007655
 20
74.9395207825742
 30
0.0
 10
238.7995099879703
 20
74.83736104272892
 30
0.0
 10
239.1948916709528
 20
74.67336710381184
 30
0.0
 10
239.4015646533971
 20
74.61026494807628
 30
0.0
 10
239.8266555023488
 20
74.52539885619505
 30
0.0
 10
240.0415463074304
 20
74.50410510166246
 30
0.0
 10
240.4760513481271
 20
74.50409454904339
 30
0.0
 10
240.6896644995437
 20
74.52537554357379
 30
0.0
 10
241.1099035923494
 20
74.60875042893349
 30
0.0
 10
241.3187146697279
 20
74.67186200534856
 30
0.0
 10
241.71678395251
 20
74.83654023457065
 30
0.0
 10
241.9055670140988
 20
74.93729439315405
 30
0.0
 10
242.2628276663698
 20
75.17526126339475
 30
0.0
 10
242.431911534219
 20
75.31369628365385
 30
0.0
 10
242.7349731207981
 20
75.61596523181245
 30
0.0
 10
242.8709774117745
 20
75.78085683244016
 30
0.0
 10
243.1111992371399
 20
76.13878399479934
 30
0.0
 10
243.213226790806
 20
76.329182776511
 30
0.0
 10
243.377172856929
 20
76.72284269738151
 30
0.0
 10
243.4402807517308
 20
76.9287344666954
 30
0.0
 10
243.5250152530888
 20
77.35139021370905
 30
0.0
 10
243.546284301659
 20
77.5650276228725
 30
0.0
 10
243.546284301659
 20
77.78099102658578
 30
0.0
  0
LINE
  5
B9
330
1F
100
AcDbEntity
  8
0
  6
Continuous
 62
     7
370
    25
100
AcDbLine
 10
243.5462843017
 20
100.1015056071
 30
0.0
 11
243.5462843017
 21
77.7809910266
 31
0.0
  0
LINE
  5
BA
330
1F
100
AcDbEntity
  8
0
  6
Continuous
 62
     7
370
    25
100
AcDbLine
 10
259.983311743
 20
106.3125852695
 30
0.0
 11
259.983311743
 21
7.6874147305
 31
0.0
  0
LINE
  5
BB
330
1F
100
AcDbEntity
  8
0
  6
Continuous
 62
     7
370
    25
100
AcDbLine
 10
220.5344458838
 20
7.6874147305
 30
0.0
 11
220.5344458838
 21
7.0552617446
 31
0.0
  0
LINE
  5
BC
330
1F
100
AcDbEntity
  8
0
  6
Continuous
 62
     7
370
    25
100
AcDbLine
 10
259.983311743
 20
7.0552617446
 30
0.0
 11
259.983311743
 21
7.6874147305
 31
0.0
  0
LINE
  5
BD
330
1F
100
AcDbEntity
  8
0
  6
Continuous
 62
     7
370
    25
100
AcDbLine
 10
220.5344458838
 20
106.3125852695
 30
0.0
 11
220.5344458838
 21
106.9447382554
 31
0.0
  0
LINE
  5
BE
330
1F
100
AcDbEntity
  8
0
  6
Continuous
 62
     7
370
    25
100
AcDbLine
 10
259.983311743
 20
106.9447382554
 30
0.0
 11
259.983311743
 21
106.3125852695
 31
0.0
  0
LINE
  5
BF
330
1F
100
AcDbEntity
  8
0
  6
Continuous
 62
     7
370
    25
100
AcDbLine
 10
220.5344458838
 20
107.0
 30
0.0
 11
220.5344458838
 21
106.9447382554
 31
0.0
  0
LINE
  5
C0
330
1F
100
AcDbEntity
  8
0
  6
Continuous
 62
     7
370
    25
100
AcDbLine
 10
259.983311743
 20
106.9447382554
 30
0.0
 11
259.983311743
 21
107.0
 31
0.0
  0
LINE
  5
C1
330
1F
100
AcDbEntity
  8
0
  6
Continuous
 62
     7
370
    25
100
AcDbLine
 10
220.5344458838
 20
7.0
 30
0.0
 11
220.5344458838
 21
7.0552617446
 31
0.0
  0
LINE
  5
C2
330
1F
100
AcDbEntity
  8
0
  6
Continuous
 62
     7
370
    25
100
AcDbLine
 10
259.983311743
 20
7.0552617446
 30
0.0
 11
259.983311743
 21
7.0
 31
0.0
  0
SPLINE
  5
C3
330
1F
100
AcDbEntity
  8
0
  6
Continuous
 62
     7
370
    25
100
AcDbSpline
210
0.0
220
0.0
230
1.0
 70
     8
 71
     3
 72
    38
 73
    34
 74
     0
 42
0.00000001
 43
0.00000001
 40
0.0
 40
0.0
 40
0.0
 40
0.0
 40
0.0625
 40
0.0625
 40
0.125
 40
0.125
 40
0.1875
 40
0.1875
 40
0.25
 40
0.25
 40
0.3125
 40
0.3125
 40
0.375
 40
0.375
 40
0.4375
 40
0.4375
 40
0.5
 40
0.5
 40
0.5625
 40
0.5625
 40
0.625
 40
0.625
 40
0.6875
 40
0.6875
 40
0.75
 40
0.75
 40
0.8125
 40
0.8125
 40
0.875
 40
0.875
 40
0.9375
 40
0.9375
 40
1.0
 40
1.0
 40
1.0
 40
1.0
 10
236.9714733251281
 20
78.43656649049142
 30
0.0
 10
236.9714733251281
 20
78.22053250124974
 30
0.0
 10
236.9927607958941
 20
78.00806324848531
 30
0.0
 10
237.076154035927
 20
77.58996425879252
 30
0.0
 10
237.1392637088373
 20
77.38217934894902
 30
0.0
 10
237.3040749259835
 20
76.98573008185993
 30
0.0
 10
237.4049311455815
 20
76.79764426084023
 30
0.0
 10
237.6432139997538
 20
76.441585820744
 30
0.0
 10
237.7819479108245
 20
76.2728959815572
 30
0.0
 10
238.0850766819523
 20
75.9704160381605
 30
0.0
 10
238.2504847145518
 20
75.83464238487686
 30
0.0
 10
238.6096561954236
 20
75.59479419302971
 30
0.0
 10
238.8011086064919
 20
75.49272855300714
 30
0.0
 10
239.1967635027681
 20
75.3289229381009
 30
0.0
 10
239.4038518330257
 20
75.26587904996272
 30
0.0
 10
239.8285767294179
 20
75.1813931646246
 30
0.0
 10
240.0420381134471
 20
75.16048929335135
 30
0.0
 10
240.4710982363423
 20
75.16018833706791
 30
0.0
 10
240.6889995995349
 20
75.18146363162006
 30
0.0
 10
241.1109599484771
 20
75.26518732115733
 30
0.0
 10
241.3159986664479
 20
75.32714471020215
 30
0.0
 10
241.7141437912165
 20
75.49140682430554
 30
0.0
 10
241.9067471255671
 20
75.59415330564917
 30
0.0
 10
242.2630673032943
 20
75.83157454319155
 30
0.0
 10
242.429101185716
 20
75.96706794146338
 30
0.0
 10
242.7360018636672
 20
76.27286617766862
 30
0.0
 10
242.8722606974346
 20
76.43868582996902
 30
0.0
 10
243.1102962654942
 20
76.79336236817397
 30
0.0
 10
243.2131564694567
 20
76.98464960344185
 30
0.0
 10
243.3781899338969
 20
77.38126369544452
 30
0.0
 10
243.4403661611079
 20
77.5852253785847
 30
0.0
 10
243.5245341711132
 20
78.00430798063353
 30
0.0
 10
243.546284301659
 20
78.22053288061751
 30
0.0
 10
243.546284301659
 20
78.43656649049142
 30
0.0
  0
SPLINE
  5
C4
330
1F
100
AcDbEntity
  8
0
  6
Continuous
 62
     7
370
    25
100
AcDbSpline
210
0.0
220
0.0
230
1.0
 70
     8
 71
     3
 72
    38
 73
    34
 74
     0
 42
0.00000001
 43
0.00000001
 40
0.0
 40
0.0
 40
0.0
 40
0.0
 40
0.0625
 40
0.0625
 40
0.125
 40
0.125
 40
0.1875
 40
0.1875
 40
0.25
 40
0.25
 40
0.3125
 40
0.3125
 40
0.375
 40
0.375
 40
0.4375
 40
0.4375
 40
0.5
 40
0.5
 40
0.5625
 40
0.5625
 40
0.625
 40
0.625
 40
0.6875
 40
0.6875
 40
0.75
 40
0.75
 40
0.8125
 40
0.8125
 40
0.875
 40
0.875
 40
0.9375
 40
0.9375
 40
1.0
 40
1.0
 40
1.0
 40
1.0
 10
236.9714733251281
 20
35.56343350950859
 30
0.0
 10
236.9714733251281
 20
35.77946749875026
 30
0.0
 10
236.9927607958941
 20
35.99193675151469
 30
0.0
 10
237.0761540359269
 20
36.41003574120749
 30
0.0
 10
237.1392637088373
 20
36.617820651051
 30
0.0
 10
237.3040749259834
 20
37.01426991814009
 30
0.0
 10
237.4049311455814
 20
37.20235573915978
 30
0.0
 10
237.6432139997538
 20
37.55841417925604
 30
0.0
 10
237.7819479108244
 20
37.72710401844284
 30
0.0
 10
238.0850766819522
 20
38.02958396183956
 30
0.0
 10
238.2504847145518
 20
38.16535761512319
 30
0.0
 10
238.6096561954236
 20
38.40520580697035
 30
0.0
 10
238.8011086064919
 20
38.50727144699294
 30
0.0
 10
239.196763502768
 20
38.67107706189919
 30
0.0
 10
239.4038518330256
 20
38.73412095003737
 30
0.0
 10
239.8285767294178
 20
38.81860683537549
 30
0.0
 10
240.0420381134471
 20
38.83951070664875
 30
0.0
 10
240.4710982363423
 20
38.83981166293218
 30
0.0
 10
240.6889995995349
 20
38.81853636838004
 30
0.0
 10
241.1109599484771
 20
38.73481267884278
 30
0.0
 10
241.3159986664478
 20
38.67285528979796
 30
0.0
 10
241.7141437912164
 20
38.50859317569456
 30
0.0
 10
241.906747125567
 20
38.40584669435094
 30
0.0
 10
242.2630673032942
 20
38.16842545680854
 30
0.0
 10
242.429101185716
 20
38.03293205853672
 30
0.0
 10
242.7360018636671
 20
37.72713382233145
 30
0.0
 10
242.8722606974346
 20
37.56131417003107
 30
0.0
 10
243.1102962654942
 20
37.20663763182612
 30
0.0
 10
243.2131564694567
 20
37.01535039655823
 30
0.0
 10
243.3781899338969
 20
36.61873630455558
 30
0.0
 10
243.4403661611078
 20
36.41477462141539
 30
0.0
 10
243.5245341711132
 20
35.99569201936656
 30
0.0
 10
243.546284301659
 20
35.7794671193825
 30
0.0
 10
243.546284301659
 20
35.56343350950859
 30
0.0
  0
LINE
  5
C5
330
1F
100
AcDbEntity
  8
0
  6
HIDDEN
 62
     7
370
    18
100
AcDbLine
 10
236.9714733251
 20
100.1015056071
 30
0.0
 11
236.9714733251
 21
100.9769472522
 31
0.0
  0
LINE
  5
C6
330
1F
100
AcDbEntity
  8
0
  6
HIDDEN
 62
     7
370
    18
100
AcDbLine
 10
243.5462843017
 20
100.1015056071
 30
0.0
 11
243.5462843017
 21
100.9769472522
 31
0.0
  0
SPLINE
  5
C7
330
1F
100
AcDbEntity
  8
0
  6
HIDDEN
 62
     7
370
    18
100
AcDbSpline
210
0.0
220
0.0
230
1.0
 70
     8
 71
     3
 72
    38
 73
    34
 74
     0
 42
0.00000001
 43
0.00000001
 40
0.0
 40
0.0
 40
0.0
 40
0.0
 40
0.0625
 40
0.0625
 40
0.125
 40
0.125
 40
0.1875
 40
0.1875
 40
0.25
 40
0.25
 40
0.3125
 40
0.3125
 40
0.375
 40
0.375
 40
0.4375
 40
0.4375
 40
0.5
 40
0.5
 40
0.5625
 40
0.5625
 40
0.625
 40
0.625
 40
0.6875
 40
0.6875
 40
0.75
 40
0.75
 40
0.8125
 40
0.8125
 40
0.875
 40
0.875
 40
0.9375
 40
0.9375
 40
1.0
 40
1.0
 40
1.0
 40
1.0
 10
243.546284301659
 20
100.9769472522068
 30
0.0
 10
243.546284301659
 20
101.1885864186701
 30
0.0
 10
243.5249765578207
 20
101.3966075616191
 30
0.0
 10
243.4414936407457
 20
101.8057196310893
 30
0.0
 10
243.3783066369054
 20
102.008925527501
 30
0.0
 10
243.2133391181703
 20
102.3963149347467
 30
0.0
 10
243.112389930251
 20
102.5799835502008
 30
0.0
 10
242.8738931547987
 20
102.9274888522343
 30
0.0
 10
242.7350732566232
 20
103.0919740696167
 30
0.0
 10
242.4318257040848
 20
103.3867412846315
 30
0.0
 10
242.2663616643375
 20
103.518978323458
 30
0.0
 10
241.9070896113016
 20
103.7524818535802
 30
0.0
 10
241.7157574700791
 20
103.8517067263242
 30
0.0
 10
241.3202340740011
 20
104.010986317663
 30
0.0
 10
241.113136991002
 20
104.072279846702
 30
0.0
 10
240.6887938634518
 20
104.1543412155777
 30
0.0
 10
240.4754994023216
 20
104.1746472988521
 30
0.0
 10
240.0467248388101
 20
104.1749301309279
 30
0.0
 10
239.8289683830109
 20
104.1542522359391
 30
0.0
 10
239.4073301325655
 20
104.0728931176132
 30
0.0
 10
239.2024035623269
 20
104.0126776935707
 30
0.0
 10
238.8043977800078
 20
103.8529411328901
 30
0.0
 10
238.6118437752925
 20
103.7530003506759
 30
0.0
 10
238.2555391608885
 20
103.5219131627999
 30
0.0
 10
238.0894759348699
 20
103.3899716103788
 30
0.0
 10
237.7824644099271
 20
103.0919725268979
 30
0.0
 10
237.64610190386
 20
102.9302541514098
 30
0.0
 10
237.4078952748895
 20
102.5841513716364
 30
0.0
 10
237.3049476390616
 20
102.397379027793
 30
0.0
 10
237.1397388198447
 20
102.0097790030637
 30
0.0
 10
237.0774988548619
 20
101.8103381134502
 30
0.0
 10
236.9932454357563
 20
101.400287558146
 30
0.0
 10
236.9714733251281
 20
101.1885862921612
 30
0.0
 10
236.9714733251281
 20
100.9769472522068
 30
0.0
  0
LINE
  5
C8
330
1F
100
AcDbEntity
  8
0
  6
HIDDEN
 62
     7
370
    18
100
AcDbLine
 10
243.5462843017
 20
13.8984943929
 30
0.0
 11
243.5462843017
 21
13.0230527478
 31
0.0
  0
LINE
  5
C9
330
1F
100
AcDbEntity
  8
0
  6
HIDDEN
 62
     7
370
    18
100
AcDbLine
 10
236.9714733251
 20
13.8984943929
 30
0.0
 11
236.9714733251
 21
13.0230527478
 31
0.0
  0
SPLINE
  5
CA
330
1F
100
AcDbEntity
  8
0
  6
HIDDEN
 62
     7
370
    18
100
AcDbSpline
210
0.0
220
0.0
230
1.0
 70
     8
 71
     3
 72
    38
 73
    34
 74
     0
 42
0.00000001
 43
0.00000001
 40
0.0
 40
0.0
 40
0.0
 40
0.0
 40
0.0625
 40
0.0625
 40
0.125
 40
0.125
 40
0.1875
 40
0.1875
 40
0.25
 40
0.25
 40
0.3125
 40
0.3125
 40
0.375
 40
0.375
 40
0.4375
 40
0.4375
 40
0.5
 40
0.5
 40
0.5625
 40
0.5625
 40
0.625
 40
0.625
 40
0.6875
 40
0.6875
 40
0.75
 40
0.75
 40
0.8125
 40
0.8125
 40
0.875
 40
0.875
 40
0.9375
 40
0.9375
 40
1.0
 40
1.0
 40
1.0
 40
1.0
 10
243.546284301659
 20
13.02305274779324
 30
0.0
 10
243.546284301659
 20
12.81141358132996
 30
0.0
 10
243.5249765578207
 20
12.603392438381
 30
0.0
 10
243.4414936407457
 20
12.19428036891085
 30
0.0
 10
243.3783066369054
 20
11.99107447249916
 30
0.0
 10
243.2133391181703
 20
11.60368506525342
 30
0.0
 10
243.1123899302509
 20
11.42001644979935
 30
0.0
 10
242.8738931547986
 20
11.07251114776581
 30
0.0
 10
242.7350732566231
 20
10.90802593038347
 30
0.0
 10
242.4318257040848
 20
10.61325871536862
 30
0.0
 10
242.2663616643375
 20
10.48102167654217
 30
0.0
 10
241.9070896113015
 20
10.24751814642
 30
0.0
 10
241.7157574700791
 20
10.14829327367598
 30
0.0
 10
241.3202340740011
 20
9.98901368233722
 30
0.0
 10
241.113136991002
 20
9.92772015329816
 30
0.0
 10
240.6887938634518
 20
9.845658784422513
 30
0.0
 10
240.4754994023216
 20
9.825352701148052
 30
0.0
 10
240.0467248388101
 20
9.825069869072264
 30
0.0
 10
239.8289683830109
 20
9.845747764061102
 30
0.0
 10
239.4073301325655
 20
9.927106882386996
 30
0.0
 10
239.2024035623269
 20
9.987322306429437
 30
0.0
 10
238.8043977800078
 20
10.14705886711006
 30
0.0
 10
238.6118437752926
 20
10.24699964932423
 30
0.0
 10
238.2555391608885
 20
10.47808683720022
 30
0.0
 10
238.08947593487
 20
10.61002838962133
 30
0.0
 10
237.7824644099271
 20
10.90802747310227
 30
0.0
 10
237.6461019038601
 20
11.06974584859033
 30
0.0
 10
237.4078952748895
 20
11.41584862836378
 30
0.0
 10
237.3049476390617
 20
11.60262097220714
 30
0.0
 10
237.1397388198447
 20
11.99022099693639
 30
0.0
 10
237.0774988548619
 20
12.18966188654987
 30
0.0
 10
236.9932454357563
 20
12.59971244185412
 30
0.0
 10
236.9714733251281
 20
12.8114137078388
 30
0.0
 10
236.9714733251281
 20
13.02305274779324
 30
0.0
  0
LINE
  5
CB
330
1F
100
AcDbEntity
  8
0
  6
HIDDEN
 62
     7
370
    18
100
AcDbLine
 10
213.9596349073
 20
68.5059192089
 30
0.0
 11
259.983311743
 21
68.5059192089
 31
0.0
  0
LINE
  5
CC
330
1F
100
AcDbEntity
  8
0
  6
HIDDEN
 62
     7
370
    18
100
AcDbLine
 10
213.9596349073
 20
45.4940807911
 30
0.0
 11
259.983311743
 21
45.4940807911
 31
0.0
  0
LINE
  5
CD
330
1F
100
AcDbEntity
  8
0
  6
HIDDEN
 62
     7
370
    18
100
AcDbLine
 10
259.983311743
 20
64.0679217998
 30
0.0
 11
186.016688257
 21
64.0679217998
 31
0.0
  0
LINE
  5
CE
330
1F
100
AcDbEntity
  8
0
  6
HIDDEN
 62
     7
370
    18
100
AcDbLine
 10
259.983311743
 20
49.9320782002
 30
0.0
 11
186.016688257
 21
49.9320782002
 31
0.0
  0
ENDSEC
  0
SECTION
  2
OBJECTS
  0
DICTIONARY
  5
C
330
0
100
AcDbDictionary
281
     1
  3
ACAD_GROUP
350
D
  3
ACAD_LAYOUT
350
1A
  3
ACAD_MLINESTYLE
350
17
  3
ACAD_PLOTSETTINGS
350
19
  3
ACAD_PLOTSTYLENAME
350
E
  3
ACAD_SCALELIST
350
47
  3
DWGPROPS
350
CF
  0
DICTIONARY
  5
D
102
{ACAD_REACTORS
330
C
102
}
330
C
100
AcDbDictionary
281
     1
  0
DICTIONARY
  5
1A
102
{ACAD_REACTORS
330
C
102
}
330
C
100
AcDbDictionary
281
     1
  3
Layout1
350
1E
  3
Layout2
350
26
  3
Model
350
22
  0
DICTIONARY
  5
17
102
{ACAD_REACTORS
330
C
102
}
330
C
100
AcDbDictionary
281
     1
  3
Standard
350
18
  0
DICTIONARY
  5
19
102
{ACAD_REACTORS
330
C
102
}
330
C
100
AcDbDictionary
281
     1
  0
ACDBDICTIONARYWDFLT
  5
E
102
{ACAD_REACTORS
330
C
102
}
330
C
100
AcDbDictionary
281
     1
  3
Normal
350
F
100
AcDbDictionaryWithDefault
340
F
  0
DICTIONARY
  5
47
102
{ACAD_REACTORS
330
C
102
}
330
C
100
AcDbDictionary
281
     1
  3
A0
350
48
  3
A1
350
49
  3
A2
350
4A
  3
A3
350
4B
  3
A4
350
4C
  3
A5
350
4D
  3
A6
350
4E
  3
A7
350
4F
  3
A8
350
50
  3
A9
350
51
  3
B0
350
52
  3
B1
350
53
  3
B2
350
54
  3
B3
350
55
  3
B4
350
56
  3
B5
350
57
  3
B6
350
58
  0
XRECORD
  5
CF
102
{ACAD_REACTORS
330
C
102
}
330
C
100
AcDbXrecord
280
     1
  1
DWGPROPS COOKIE
  2

  3

  4

  6

  7

  8

  9

300
=
301
=
302
=
303
=
304
=
305
=
306
=
307
=
308
=
309
=
 40
0.0
 41
2461215.074575313
 42
2461215.074575625
  1

 90
        0
  0
LAYOUT
  5
1E
102
{ACAD_REACTORS
330
1A
102
}
330
1A
100
AcDbPlotSettings
  1

  2
none_device
  4

  6

 40
0.0
 41
0.0
 42
0.0
 43
0.0
 44
0.0
 45
0.0
 46
0.0
 47
0.0
 48
0.0
 49
0.0
140
0.0
141
0.0
142
1.0
143
1.0
 70
   688
 72
     1
 73
     0
 74
     5
  7

 75
    16
147
1.0
148
0.0
149
0.0
100
AcDbLayout
  1
Layout1
 70
     1
 71
     1
 10
0.0
 20
0.0
 11
420.0
 21
297.0
 12
0.0
 22
0.0
 32
0.0
 14
1.0000000000E+20
 24
1.0000000000E+20
 34
1.0000000000E+20
 15
-1.0000000000E+20
 25
-1.0000000000E+20
 35
-1.0000000000E+20
146
0.0
 13
0.0
 23
0.0
 33
0.0
 16
1.0
 26
0.0
 36
0.0
 17
0.0
 27
1.0
 37
0.0
 76
     0
330
1B
  0
LAYOUT
  5
26
102
{ACAD_REACTORS
330
1A
102
}
330
1A
100
AcDbPlotSettings
  1

  2
none_device
  4

  6

 40
0.0
 41
0.0
 42
0.0
 43
0.0
 44
0.0
 45
0.0
 46
0.0
 47
0.0
 48
0.0
 49
0.0
140
0.0
141
0.0
142
1.0
143
1.0
 70
   688
 72
     1
 73
     0
 74
     5
  7

 75
    16
147
1.0
148
0.0
149
0.0
100
AcDbLayout
  1
Layout2
 70
     1
 71
     2
 10
0.0
 20
0.0
 11
0.0
 21
0.0
 12
0.0
 22
0.0
 32
0.0
 14
0.0
 24
0.0
 34
0.0
 15
0.0
 25
0.0
 35
0.0
146
0.0
 13
0.0
 23
0.0
 33
0.0
 16
1.0
 26
0.0
 36
0.0
 17
0.0
 27
1.0
 37
0.0
 76
     0
330
23
  0
LAYOUT
  5
22
102
{ACAD_REACTORS
330
1A
102
}
330
1A
100
AcDbPlotSettings
  1

  2
none_device
  4
Letter_(8.50_x_11.00_Inches)
  6

 40
6.35
 41
6.35
 42
6.35000508
 43
6.35000508
 44
215.9
 45
279.4
 46
0.0
 47
0.0
 48
0.0
 49
0.0
140
0.0
141
0.0
142
1.0
143
1.0
 70
  1712
 72
     1
 73
     0
 74
     0
  7

 75
     0
147
1.0
148
0.0
149
0.0
100
AcDbLayout
  1
Model
 70
     1
 71
     0
 10
0.0
 20
0.0
 11
297.0
 21
210.0
 12
0.0
 22
0.0
 32
0.0
 14
0.0
 24
0.0
 34
0.0
 15
297.0
 25
210.0
 35
0.0
146
0.0
 13
0.0
 23
0.0
 33
0.0
 16
1.0
 26
0.0
 36
0.0
 17
0.0
 27
1.0
 37
0.0
 76
     0
330
1F
331
29
  0
MLINESTYLE
  5
18
102
{ACAD_REACTORS
330
17
102
}
330
17
100
AcDbMlineStyle
  2
Standard
 70
     0
  3

 62
   256
 51
90.0
 52
90.0
 71
     2
 49
0.5
 62
   256
  6
BYLAYER
 49
-0.5
 62
   256
  6
BYLAYER
  0
ACDBPLACEHOLDER
  5
F
102
{ACAD_REACTORS
330
E
102
}
330
E
  0
SCALE
  5
48
102
{ACAD_REACTORS
330
47
102
}
330
47
100
AcDbScale
 70
     0
300
1:1
140
1.0
141
1.0
290
     1
  0
SCALE
  5
49
102
{ACAD_REACTORS
330
47
102
}
330
47
100
AcDbScale
 70
     0
300
1:2
140
1.0
141
2.0
290
     0
  0
SCALE
  5
4A
102
{ACAD_REACTORS
330
47
102
}
330
47
100
AcDbScale
 70
     0
300
1:4
140
1.0
141
4.0
290
     0
  0
SCALE
  5
4B
102
{ACAD_REACTORS
330
47
102
}
330
47
100
AcDbScale
 70
     0
300
1:5
140
1.0
141
5.0
290
     0
  0
SCALE
  5
4C
102
{ACAD_REACTORS
330
47
102
}
330
47
100
AcDbScale
 70
     0
300
1:8
140
1.0
141
8.0
290
     0
  0
SCALE
  5
4D
102
{ACAD_REACTORS
330
47
102
}
330
47
100
AcDbScale
 70
     0
300
1:10
140
1.0
141
10.0
290
     0
  0
SCALE
  5
4E
102
{ACAD_REACTORS
330
47
102
}
330
47
100
AcDbScale
 70
     0
300
1:16
140
1.0
141
16.0
290
     0
  0
SCALE
  5
4F
102
{ACAD_REACTORS
330
47
102
}
330
47
100
AcDbScale
 70
     0
300
1:20
140
1.0
141
20.0
290
     0
  0
SCALE
  5
50
102
{ACAD_REACTORS
330
47
102
}
330
47
100
AcDbScale
 70
     0
300
1:30
140
1.0
141
30.0
290
     0
  0
SCALE
  5
51
102
{ACAD_REACTORS
330
47
102
}
330
47
100
AcDbScale
 70
     0
300
1:40
140
1.0
141
40.0
290
     0
  0
SCALE
  5
52
102
{ACAD_REACTORS
330
47
102
}
330
47
100
AcDbScale
 70
     0
300
1:50
140
1.0
141
50.0
290
     0
  0
SCALE
  5
53
102
{ACAD_REACTORS
330
47
102
}
330
47
100
AcDbScale
 70
     0
300
1:100
140
1.0
141
100.0
290
     0
  0
SCALE
  5
54
102
{ACAD_REACTORS
330
47
102
}
330
47
100
AcDbScale
 70
     0
300
2:1
140
2.0
141
1.0
290
     0
  0
SCALE
  5
55
102
{ACAD_REACTORS
330
47
102
}
330
47
100
AcDbScale
 70
     0
300
4:1
140
4.0
141
1.0
290
     0
  0
SCALE
  5
56
102
{ACAD_REACTORS
330
47
102
}
330
47
100
AcDbScale
 70
     0
300
8:1
140
8.0
141
1.0
290
     0
  0
SCALE
  5
57
102
{ACAD_REACTORS
330
47
102
}
330
47
100
AcDbScale
 70
     0
300
10:1
140
10.0
141
1.0
290
     0
  0
SCALE
  5
58
102
{ACAD_REACTORS
330
47
102
}
330
47
100
AcDbScale
 70
     0
300
100:1
140
100.0
141
1.0
290
     0
  0
ENDSEC
  0
EOF
