  0
SECTION
  2
HEADER
  9
$ACADVER
  1
AC1015
  9
$ACADMAINTVER
 70
     6
  9
$DWGCODEPAGE
  3
ANSI_936
  9
$INSBASE
 10
0.0
 20
0.0
 30
0.0
  9
$EXTMIN
 10
0.0
 20
0.0
 30
0.0
  9
$EXTMAX
 10
297.0
 20
210.0
 30
0.0
  9
$LIMMIN
 10
0.0
 20
0.0
  9
$LIMMAX
 10
297.0
 20
210.0
  9
$ORTHOMODE
 70
     0
  9
$REGENMODE
 70
     1
  9
$FILLMODE
 70
     1
  9
$QTEXTMODE
 70
     0
  9
$MIRRTEXT
 70
     1
  9
$LTSCALE
 40
1.0
  9
$ATTMODE
 70
     1
  9
$TEXTSIZE
 40
3.5
  9
$TRACEWID
 40
1.0
  9
$TEXTSTYLE
  7
Standard
  9
$CLAYER
  8
0
  9
$CELTYPE
  6
ByLayer
  9
$CECOLOR
 62
   256
  9
$CELTSCALE
 40
1.0
  9
$DISPSILH
 70
     0
  9
$DIMSCALE
 40
1.0
  9
$DIMASZ
 40
4.08
  9
$DIMEXO
 40
0.0
  9
$DIMDLI
 40
3.75
  9
$DIMRND
 40
0.0
  9
$DIMDLE
 40
0.0
  9
$DIMEXE
 40
2.0
  9
$DIMTP
 40
0.0
  9
$DIMTM
 40
0.0
  9
$DIMTXT
 40
3.5
  9
$DIMCEN
 40
2.5
  9
$DIMTSZ
 40
0.0
  9
$DIMTOL
 70
     0
  9
$DIMLIM
 70
     0
  9
$DIMTIH
 70
     1
  9
$DIMTOH
 70
     1
  9
$DIMSE1
 70
     0
  9
$DIMSE2
 70
     0
  9
$DIMTAD
 70
     1
  9
$DIMZIN
 70
     0
  9
$DIMBLK
  1

  9
$DIMASO
 70
     1
  9
$DIMSHO
 70
     1
  9
$DIMPOST
  1

  9
$DIMAPOST
  1

  9
$DIMALT
 70
     0
  9
$DIMALTD
 70
     3
  9
$DIMALTF
 40
0.0393700787
  9
$DIMLFAC
 40
2.0
  9
$DIMTOFL
 70
     1
  9
$DIMTVP
 40
0.0
  9
$DIMTIX
 70
     0
  9
$DIMSOXD
 70
     0
  9
$DIMSAH
 70
     0
  9
$DIMBLK1
  1

  9
$DIMBLK2
  1

  9
$DIMSTYLE
  2
ISO-25
  9
$DIMCLRD
 70
     0
  9
$DIMCLRE
 70
     0
  9
$DIMCLRT
 70
     0
  9
$DIMTFAC
 40
1.0
  9
$DIMGAP
 40
1.524
  9
$DIMJUST
 70
     0
  9
$DIMSD1
 70
     0
  9
$DIMSD2
 70
     0
  9
$DIMTOLJ
 70
     0
  9
$DIMTZIN
 70
     0
  9
$DIMALTZ
 70
     0
  9
$DIMALTTZ
 70
     0
  9
$DIMUPT
 70
     0
  9
$DIMDEC
 70
     2
  9
$DIMTDEC
 70
     2
  9
$DIMALTU
 70
     2
  9
$DIMALTTD
 70
     3
  9
$DIMTXSTY
  7
Standard
  9
$DIMAUNIT
 70
     0
  9
$DIMADEC
 70
     2
  9
$DIMALTRND
 40
0.0
  9
$DIMAZIN
 70
     0
  9
$DIMDSEP
 70
    44
  9
$DIMATFIT
 70
     3
  9
$DIMFRAC
 70
     0
  9
$DIMLDRBLK
  1

  9
$DIMLUNIT
 70
     2
  9
$DIMLWD
 70
    -2
  9
$DIMLWE
 70
    -2
  9
$DIMTMOVE
 70
     0
  9
$LUNITS
 70
     2
  9
$LUPREC
 70
     2
  9
$SKETCHINC
 40
1.0
  9
$FILLETRAD
 40
0.0
  9
$AUNITS
 70
     0
  9
$AUPREC
 70
     2
  9
$MENU
  1
.
  9
$ELEVATION
 40
0.0
  9
$PELEVATION
 40
0.0
  9
$THICKNESS
 40
0.0
  9
$LIMCHECK
 70
     0
  9
$CHAMFERA
 40
0.0
  9
$CHAMFERB
 40
0.0
  9
$CHAMFERC
 40
0.0
  9
$CHAMFERD
 40
0.0
  9
$SKPOLY
 70
     0
  9
$TDCREATE
 40
2461215.441779873
  9
$TDUCREATE
 40
2461215.10844654
  9
$TDUPDATE
 40
2461215.441780359
  9
$TDUUPDATE
 40
2461215.108447026
  9
$TDINDWG
 40
0.0000000116
  9
$TDUSRTIMER
 40
0.0000000116
  9
$USRTIMER
 70
     1
  9
$ANGBASE
 50
0.0
  9
$ANGDIR
 70
     0
  9
$PDMODE
 70
     0
  9
$PDSIZE
 40
-1.0
  9
$PLINEWID
 40
0.0
  9
$SPLFRAME
 70
     0
  9
$SPLINETYPE
 70
     6
  9
$SPLINESEGS
 70
     8
  9
$HANDSEED
  5
12D
  9
$SURFTAB1
 70
     6
  9
$SURFTAB2
 70
     6
  9
$SURFTYPE
 70
     6
  9
$SURFU
 70
     6
  9
$SURFV
 70
     6
  9
$UCSBASE
  2

  9
$UCSNAME
  2

  9
$UCSORG
 10
0.0
 20
0.0
 30
0.0
  9
$UCSXDIR
 10
1.0
 20
0.0
 30
0.0
  9
$UCSYDIR
 10
0.0
 20
1.0
 30
0.0
  9
$UCSORTHOREF
  2

  9
$UCSORTHOVIEW
 70
     0
  9
$UCSORGTOP
 10
0.0
 20
0.0
 30
0.0
  9
$UCSORGBOTTOM
 10
0.0
 20
0.0
 30
0.0
  9
$UCSORGLEFT
 10
0.0
 20
0.0
 30
0.0
  9
$UCSORGRIGHT
 10
0.0
 20
0.0
 30
0.0
  9
$UCSORGFRONT
 10
0.0
 20
0.0
 30
0.0
  9
$UCSORGBACK
 10
0.0
 20
0.0
 30
0.0
  9
$PUCSBASE
  2

  9
$PUCSNAME
  2

  9
$PUCSORG
 10
0.0
 20
0.0
 30
0.0
  9
$PUCSXDIR
 10
1.0
 20
0.0
 30
0.0
  9
$PUCSYDIR
 10
0.0
 20
1.0
 30
0.0
  9
$PUCSORTHOREF
  2

  9
$PUCSORTHOVIEW
 70
     0
  9
$PUCSORGTOP
 10
0.0
 20
0.0
 30
0.0
  9
$PUCSORGBOTTOM
 10
0.0
 20
0.0
 30
0.0
  9
$PUCSORGLEFT
 10
0.0
 20
0.0
 30
0.0
  9
$PUCSORGRIGHT
 10
0.0
 20
0.0
 30
0.0
  9
$PUCSORGFRONT
 10
0.0
 20
0.0
 30
0.0
  9
$PUCSORGBACK
 10
0.0
 20
0.0
 30
0.0
  9
$USERI1
 70
     0
  9
$USERI2
 70
     0
  9
$USERI3
 70
     0
  9
$USERI4
 70
     0
  9
$USERI5
 70
     0
  9
$USERR1
 40
0.0
  9
$USERR2
 40
0.0
  9
$USERR3
 40
0.0
  9
$USERR4
 40
0.0
  9
$USERR5
 40
0.0
  9
$WORLDVIEW
 70
     1
  9
$SHADEDGE
 70
     3
  9
$SHADEDIF
 70
    70
  9
$TILEMODE
 70
     1
  9
$MAXACTVP
 70
    64
  9
$PINSBASE
 10
0.0
 20
0.0
 30
0.0
  9
$PLIMCHECK
 70
     0
  9
$PEXTMIN
 10
1.0000000000E+20
 20
1.0000000000E+20
 30
1.0000000000E+20
  9
$PEXTMAX
 10
-1.0000000000E+20
 20
-1.0000000000E+20
 30
-1.0000000000E+20
  9
$PLIMMIN
 10
0.0
 20
0.0
  9
$PLIMMAX
 10
420.0
 20
297.0
  9
$UNITMODE
 70
     0
  9
$VISRETAIN
 70
     1
  9
$PLINEGEN
 70
     0
  9
$PSLTSCALE
 70
     1
  9
$TREEDEPTH
 70
  3020
  9
$CMLSTYLE
  2
Standard
  9
$CMLJUST
 70
     0
  9
$CMLSCALE
 40
20.0
  9
$PROXYGRAPHICS
 70
     1
  9
$MEASUREMENT
 70
     1
  9
$CELWEIGHT
370
    -1
  9
$ENDCAPS
280
     0
  9
$JOINSTYLE
280
     0
  9
$LWDISPLAY
290
     1
  9
$INSUNITS
 70
     4
  9
$HYPERLINKBASE
  1

  9
$STYLESHEET
  1

  9
$XEDIT
290
     1
  9
$CEPSNTYPE
380
     0
  9
$PSTYLEMODE
290
     1
  9
$FINGERPRINTGUID
  2
{d7af9f1a-fa3f-4d0d-a8f7-9499098b69d1}
  9
$VERSIONGUID
  2
{FAEB1C32-E019-11D5-929B-00C0DF256EC4}
  9
$EXTNAMES
290
     1
  9
$PSVPSCALE
 40
0.0
  9
$OLESTARTUP
290
     0
  0
ENDSEC
  0
SECTION
  2
CLASSES
  0
CLASS
  1
ACDBDICTIONARYWDFLT
  2
AcDbDictionaryWithDefault
  3
ObjectDBX Classes
 90
        0
280
     0
281
     0
  0
CLASS
  1
VISUALSTYLE
  2
AcDbVisualStyle
  3
ObjectDBX Classes
 90
     4095
280
     0
281
     0
  0
CLASS
  1
MATERIAL
  2
AcDbMaterial
  3
ObjectDBX Classes
 90
     1153
280
     0
281
     0
  0
CLASS
  1
SCALE
  2
AcDbScale
  3
ObjectDBX Classes
 90
     1153
280
     0
281
     0
  0
CLASS
  1
TABLESTYLE
  2
AcDbTableStyle
  3
ObjectDBX Classes
 90
     4095
280
     0
281
     0
  0
CLASS
  1
MLEADERSTYLE
  2
AcDbMLeaderStyle
  3
ACDB_MLEADERSTYLE_CLASS
 90
     4095
280
     0
281
     0
  0
CLASS
  1
SUN
  2
AcDbSun
  3
SCENEOE
 90
     1153
280
     0
281
     0
  0
CLASS
  1
ACDBPLACEHOLDER
  2
AcDbPlaceHolder
  3
ObjectDBX Classes
 90
        0
280
     0
281
     0
  0
CLASS
  1
LAYOUT
  2
AcDbLayout
  3
ObjectDBX Classes
 90
        0
280
     0
281
     0
  0
ENDSEC
  0
SECTION
  2
TABLES
  0
TABLE
  2
VPORT
  5
8
330
0
100
AcDbSymbolTable
 70
     1
  0
VPORT
  5
29
330
8
100
AcDbSymbolTableRecord
100
AcDbViewportTableRecord
  2
*Active
 70
     0
 10
0.0
 20
0.0
 11
1.0
 21
1.0
 12
148.5
 22
105.0
 13
0.0
 23
0.0
 14
10.0
 24
10.0
 15
10.0
 25
10.0
 16
0.0
 26
0.0
 36
1.0
 17
0.0
 27
0.0
 37
0.0
 40
210.0
 41
1.4142857143
 42
50.0
 43
0.0
 44
0.0
 50
0.0
 51
0.0
 71
     0
 72
  2000
 73
     1
 74
     3
 75
     0
 76
     0
 77
     0
 78
     0
281
     0
 65
     1
110
0.0
120
0.0
130
0.0
111
1.0
121
0.0
131
0.0
112
0.0
122
1.0
132
0.0
 79
     0
146
0.0
  0
ENDTAB
  0
TABLE
  2
LTYPE
  5
5
330
0
100
AcDbSymbolTable
 70
     6
  0
LTYPE
  5
14
330
5
100
AcDbSymbolTableRecord
100
AcDbLinetypeTableRecord
  2
ByBlock
 70
     0
  3

 72
    65
 73
     0
 40
0.0
  0
LTYPE
  5
15
330
5
100
AcDbSymbolTableRecord
100
AcDbLinetypeTableRecord
  2
ByLayer
 70
     0
  3

 72
    65
 73
     0
 40
0.0
  0
LTYPE
  5
16
330
5
100
AcDbSymbolTableRecord
100
AcDbLinetypeTableRecord
  2
Continuous
 70
     0
  3
Solid line
 72
    65
 73
     0
 40
0.0
  0
LTYPE
  5
5E
330
5
100
AcDbSymbolTableRecord
100
AcDbLinetypeTableRecord
  2
HIDDEN
 70
     0
  3
Hidden __ __ __ __ __ __ __ __ __ __ __ __ __ __
 72
    65
 73
     2
 40
1.905
 49
1.27
 74
     0
 49
-0.635
 74
     0
  0
LTYPE
  5
5F
330
5
100
AcDbSymbolTableRecord
100
AcDbLinetypeTableRecord
  2
PHANTOM
 70
     0
  3
Phantom ______  __  __  ______  __  __  ______
 72
    65
 73
     6
 40
12.7
 49
6.35
 74
     0
 49
-1.27
 74
     0
 49
1.27
 74
     0
 49
-1.27
 74
     0
 49
1.27
 74
     0
 49
-1.27
 74
     0
  0
LTYPE
  5
60
330
5
100
AcDbSymbolTableRecord
100
AcDbLinetypeTableRecord
  2
CENTER
 70
     0
  3
Center ____ _ ____ _ ____ _ ____ _ ____ _ ____
 72
    65
 73
     4
 40
10.16
 49
6.35
 74
     0
 49
-1.27
 74
     0
 49
1.27
 74
     0
 49
-1.27
 74
     0
  0
LTYPE
  5
61
330
5
100
AcDbSymbolTableRecord
100
AcDbLinetypeTableRecord
  2
CENTERX2
 70
     0
  3
Center (2x) ________  __  ________  __  _____
 72
    65
 73
     4
 40
20.32
 49
12.7
 74
     0
 49
-2.54
 74
     0
 49
2.54
 74
     0
 49
-2.54
 74
     0
  0
LTYPE
  5
62
330
5
100
AcDbSymbolTableRecord
100
AcDbLinetypeTableRecord
  2
DOT2
 70
     0
  3
Dot (.5x) ........................................
 72
    65
 73
     2
 40
0.635
 49
0.0
 74
     0
 49
-0.635
 74
     0
  0
ENDTAB
  0
TABLE
  2
LAYER
  5
2
330
0
100
AcDbSymbolTable
 70
    14
  0
LAYER
  5
10
330
2
100
AcDbSymbolTableRecord
100
AcDbLayerTableRecord
  2
0
 70
     0
 62
     7
  6
Continuous
370
    -3
390
F
  0
LAYER
  5
63
330
2
100
AcDbSymbolTableRecord
100
AcDbLayerTableRecord
  2
SLD-0
 70
     0
 62
     7
  6
Continuous
370
    -3
390
F
  0
LAYER
  5
64
330
2
100
AcDbSymbolTableRecord
100
AcDbLayerTableRecord
  2
5
 70
     0
 62
     7
  6
Continuous
370
    -3
390
F
  0
LAYER
  5
65
330
2
100
AcDbSymbolTableRecord
100
AcDbLayerTableRecord
  2
9
 70
     0
 62
     7
  6
Continuous
370
    -3
390
F
  0
LAYER
  5
66
330
2
100
AcDbSymbolTableRecord
100
AcDbLayerTableRecord
  2
10
 70
     0
 62
     7
  6
Continuous
370
    -3
390
F
  0
LAYER
  5
67
330
2
100
AcDbSymbolTableRecord
100
AcDbLayerTableRecord
  2
轮廓实线层
 70
     0
 62
     7
  6
Continuous
370
    50
390
F
  0
LAYER
  5
68
330
2
100
AcDbSymbolTableRecord
100
AcDbLayerTableRecord
  2
细线层
 70
     0
 62
     4
  6
Continuous
370
    25
390
F
  0
LAYER
  5
69
330
2
100
AcDbSymbolTableRecord
100
AcDbLayerTableRecord
  2
中心线层
 70
     0
 62
     1
  6
CENTERX2
370
    25
390
F
  0
LAYER
  5
6A
330
2
100
AcDbSymbolTableRecord
100
AcDbLayerTableRecord
  2
虚线层
 70
     0
 62
     6
  6
HIDDEN
370
    25
390
F
  0
LAYER
  5
6B
330
2
100
AcDbSymbolTableRecord
100
AcDbLayerTableRecord
  2
剖面线层
 70
     0
 62
     2
  6
Continuous
370
    25
390
F
  0
LAYER
  5
6C
330
2
100
AcDbSymbolTableRecord
100
AcDbLayerTableRecord
  2
文字层
 70
     0
 62
     3
  6
Continuous
370
    25
390
F
  0
LAYER
  5
6D
330
2
100
AcDbSymbolTableRecord
100
AcDbLayerTableRecord
  2
标注层
 70
     0
 62
     4
  6
Continuous
370
    25
390
F
  0
LAYER
  5
6E
330
2
100
AcDbSymbolTableRecord
100
AcDbLayerTableRecord
  2
符号标注层
 70
     0
 62
    31
  6
Continuous
370
    25
390
F
  0
LAYER
  5
6F
330
2
100
AcDbSymbolTableRecord
100
AcDbLayerTableRecord
  2
双点划线层
 70
     0
 62
     6
  6
PHANTOM
370
    25
390
F
  0
ENDTAB
  0
TABLE
  2
STYLE
  5
3
330
0
100
AcDbSymbolTable
 70
     1
  0
STYLE
  5
11
330
3
100
AcDbSymbolTableRecord
100
AcDbTextStyleTableRecord
  2
Standard
 70
     0
 40
0.0
 41
1.0
 50
0.0
 71
     0
 42
3.5
  3
txt
  4

  0
ENDTAB
  0
TABLE
  2
VIEW
  5
6
330
0
100
AcDbSymbolTable
 70
     0
  0
ENDTAB
  0
TABLE
  2
UCS
  5
7
330
0
100
AcDbSymbolTable
 70
     0
  0
ENDTAB
  0
TABLE
  2
APPID
  5
9
330
0
100
AcDbSymbolTable
 70
     1
  0
APPID
  5
12
330
9
100
AcDbSymbolTableRecord
100
AcDbRegAppTableRecord
  2
ACAD
 70
     0
  0
ENDTAB
  0
TABLE
  2
DIMSTYLE
  5
A
330
0
100
AcDbSymbolTable
 70
     1
100
AcDbDimStyleTable
  0
DIMSTYLE
105
27
330
A
100
AcDbSymbolTableRecord
100
AcDbDimStyleTableRecord
  2
ISO-25
 70
     0
 41
2.5
 42
0.625
 43
3.75
 44
1.25
 73
     0
 74
     0
 77
     1
 78
     8
140
2.5
141
2.5
143
0.0393700787
147
0.625
171
     3
172
     1
178
     0
271
     2
272
     2
274
     3
278
    44
283
     0
284
     8
340
11
  0
ENDTAB
  0
TABLE
  2
BLOCK_RECORD
  5
1
330
0
100
AcDbSymbolTable
 70
     6
  0
BLOCK_RECORD
  5
1F
330
1
100
AcDbSymbolTableRecord
100
AcDbBlockTableRecord
  2
*Model_Space
340
22
  0
BLOCK_RECORD
  5
1B
330
1
100
AcDbSymbolTableRecord
100
AcDbBlockTableRecord
  2
*Paper_Space
340
1E
  0
BLOCK_RECORD
  5
23
330
1
100
AcDbSymbolTableRecord
100
AcDbBlockTableRecord
  2
*Paper_Space0
340
26
  0
BLOCK_RECORD
  5
F0
330
1
100
AcDbSymbolTableRecord
100
AcDbBlockTableRecord
  2
SW_CENTERMARKSYMBOL_0
340
0
102
{BLKREFS
331
FB
102
}
  0
BLOCK_RECORD
  5
FC
330
1
100
AcDbSymbolTableRecord
100
AcDbBlockTableRecord
  2
SW_CENTERMARKSYMBOL_1
340
0
102
{BLKREFS
331
107
102
}
  0
BLOCK_RECORD
  5
108
330
1
100
AcDbSymbolTableRecord
100
AcDbBlockTableRecord
  2
SW_CENTERMARKSYMBOL_2
340
0
102
{BLKREFS
331
113
102
}
  0
BLOCK_RECORD
  5
114
330
1
100
AcDbSymbolTableRecord
100
AcDbBlockTableRecord
  2
SW_CENTERMARKSYMBOL_3
340
0
102
{BLKREFS
331
11F
102
}
  0
BLOCK_RECORD
  5
120
330
1
100
AcDbSymbolTableRecord
100
AcDbBlockTableRecord
  2
SW_CENTERMARKSYMBOL_4
340
0
102
{BLKREFS
331
12B
102
}
  0
ENDTAB
  0
ENDSEC
  0
SECTION
  2
BLOCKS
  0
BLOCK
  5
20
330
1F
100
AcDbEntity
  8
0
100
AcDbBlockBegin
  2
*Model_Space
 70
     0
 10
0.0
 20
0.0
 30
0.0
  3
*Model_Space
  1

  0
ENDBLK
  5
21
330
1F
100
AcDbEntity
  8
0
100
AcDbBlockEnd
  0
BLOCK
  5
1C
330
1B
100
AcDbEntity
 67
     1
  8
0
100
AcDbBlockBegin
  2
*Paper_Space
 70
     0
 10
0.0
 20
0.0
 30
0.0
  3
*Paper_Space
  1

  0
ENDBLK
  5
1D
330
1B
100
AcDbEntity
 67
     1
  8
0
100
AcDbBlockEnd
  0
BLOCK
  5
24
330
23
100
AcDbEntity
  8
0
100
AcDbBlockBegin
  2
*Paper_Space0
 70
     0
 10
0.0
 20
0.0
 30
0.0
  3
*Paper_Space0
  1

  0
ENDBLK
  5
25
330
23
100
AcDbEntity
  8
0
100
AcDbBlockEnd
  0
BLOCK
  5
F1
330
F0
100
AcDbEntity
  8
0
100
AcDbBlockBegin
  2
SW_CENTERMARKSYMBOL_0
 70
     0
 10
0.0
 20
0.0
 30
0.0
  3
SW_CENTERMARKSYMBOL_0
  1

  0
LINE
  5
F3
330
F0
100
AcDbEntity
  8
10
 62
     0
100
AcDbLine
 10
0.0
 20
0.0
 30
0.0
 11
0.0
 21
2.5
 31
0.0
  0
LINE
  5
F4
330
F0
100
AcDbEntity
  8
10
 62
     0
100
AcDbLine
 10
0.0
 20
0.0
 30
0.0
 11
-2.5
 21
0.0
 31
0.0
  0
LINE
  5
F5
330
F0
100
AcDbEntity
  8
10
 62
     0
100
AcDbLine
 10
0.0
 20
0.0
 30
0.0
 11
0.0
 21
-2.5
 31
0.0
  0
LINE
  5
F6
330
F0
100
AcDbEntity
  8
10
 62
     0
100
AcDbLine
 10
0.0
 20
0.0
 30
0.0
 11
2.5
 21
0.0
 31
0.0
  0
LINE
  5
F7
330
F0
100
AcDbEntity
  8
10
 62
     0
100
AcDbLine
 10
0.0
 20
5.0
 30
0.0
 11
0.0
 21
5.7656023222
 31
0.0
  0
LINE
  5
F8
330
F0
100
AcDbEntity
  8
10
 62
     0
100
AcDbLine
 10
-5.0
 20
0.0
 30
0.0
 11
-5.7656023222
 21
0.0
 31
0.0
  0
LINE
  5
F9
330
F0
100
AcDbEntity
  8
10
 62
     0
100
AcDbLine
 10
0.0
 20
-5.0
 30
0.0
 11
0.0
 21
-5.7656023222
 31
0.0
  0
LINE
  5
FA
330
F0
100
AcDbEntity
  8
10
 62
     0
100
AcDbLine
 10
5.0
 20
0.0
 30
0.0
 11
5.7656023222
 21
0.0
 31
0.0
  0
ENDBLK
  5
F2
330
F0
100
AcDbEntity
  8
0
100
AcDbBlockEnd
  0
BLOCK
  5
FD
330
FC
100
AcDbEntity
  8
0
100
AcDbBlockBegin
  2
SW_CENTERMARKSYMBOL_1
 70
     0
 10
0.0
 20
0.0
 30
0.0
  3
SW_CENTERMARKSYMBOL_1
  1

  0
LINE
  5
FF
330
FC
100
AcDbEntity
  8
10
 62
     0
100
AcDbLine
 10
0.0
 20
0.0
 30
0.0
 11
0.0
 21
2.5
 31
0.0
  0
LINE
  5
100
330
FC
100
AcDbEntity
  8
10
 62
     0
100
AcDbLine
 10
0.0
 20
0.0
 30
0.0
 11
-2.5
 21
0.0
 31
0.0
  0
LINE
  5
101
330
FC
100
AcDbEntity
  8
10
 62
     0
100
AcDbLine
 10
0.0
 20
0.0
 30
0.0
 11
0.0
 21
-2.5
 31
0.0
  0
LINE
  5
102
330
FC
100
AcDbEntity
  8
10
 62
     0
100
AcDbLine
 10
0.0
 20
0.0
 30
0.0
 11
2.5
 21
0.0
 31
0.0
  0
LINE
  5
103
330
FC
100
AcDbEntity
  8
10
 62
     0
100
AcDbLine
 10
0.0
 20
5.0
 30
0.0
 11
0.0
 21
5.7656023222
 31
0.0
  0
LINE
  5
104
330
FC
100
AcDbEntity
  8
10
 62
     0
100
AcDbLine
 10
-5.0
 20
0.0
 30
0.0
 11
-5.7656023222
 21
0.0
 31
0.0
  0
LINE
  5
105
330
FC
100
AcDbEntity
  8
10
 62
     0
100
AcDbLine
 10
0.0
 20
-5.0
 30
0.0
 11
0.0
 21
-5.7656023222
 31
0.0
  0
LINE
  5
106
330
FC
100
AcDbEntity
  8
10
 62
     0
100
AcDbLine
 10
5.0
 20
0.0
 30
0.0
 11
5.7656023222
 21
0.0
 31
0.0
  0
ENDBLK
  5
FE
330
FC
100
AcDbEntity
  8
0
100
AcDbBlockEnd
  0
BLOCK
  5
109
330
108
100
AcDbEntity
  8
0
100
AcDbBlockBegin
  2
SW_CENTERMARKSYMBOL_2
 70
     0
 10
0.0
 20
0.0
 30
0.0
  3
SW_CENTERMARKSYMBOL_2
  1

  0
LINE
  5
10B
330
108
100
AcDbEntity
  8
10
 62
     0
100
AcDbLine
 10
0.0
 20
0.0
 30
0.0
 11
0.0
 21
2.5
 31
0.0
  0
LINE
  5
10C
330
108
100
AcDbEntity
  8
10
 62
     0
100
AcDbLine
 10
0.0
 20
0.0
 30
0.0
 11
-2.5
 21
0.0
 31
0.0
  0
LINE
  5
10D
330
108
100
AcDbEntity
  8
10
 62
     0
100
AcDbLine
 10
0.0
 20
0.0
 30
0.0
 11
0.0
 21
-2.5
 31
0.0
  0
LINE
  5
10E
330
108
100
AcDbEntity
  8
10
 62
     0
100
AcDbLine
 10
0.0
 20
0.0
 30
0.0
 11
2.5
 21
0.0
 31
0.0
  0
LINE
  5
10F
330
108
100
AcDbEntity
  8
10
 62
     0
100
AcDbLine
 10
0.0
 20
5.0
 30
0.0
 11
0.0
 21
11.5711175617
 31
0.0
  0
LINE
  5
110
330
108
100
AcDbEntity
  8
10
 62
     0
100
AcDbLine
 10
-5.0
 20
0.0
 30
0.0
 11
-11.5711175617
 21
0.0
 31
0.0
  0
LINE
  5
111
330
108
100
AcDbEntity
  8
10
 62
     0
100
AcDbLine
 10
0.0
 20
-5.0
 30
0.0
 11
0.0
 21
-11.5711175617
 31
0.0
  0
LINE
  5
112
330
108
100
AcDbEntity
  8
10
 62
     0
100
AcDbLine
 10
5.0
 20
0.0
 30
0.0
 11
11.5711175617
 21
0.0
 31
0.0
  0
ENDBLK
  5
10A
330
108
100
AcDbEntity
  8
0
100
AcDbBlockEnd
  0
BLOCK
  5
115
330
114
100
AcDbEntity
  8
0
100
AcDbBlockBegin
  2
SW_CENTERMARKSYMBOL_3
 70
     0
 10
0.0
 20
0.0
 30
0.0
  3
SW_CENTERMARKSYMBOL_3
  1

  0
LINE
  5
117
330
114
100
AcDbEntity
  8
10
 62
     0
100
AcDbLine
 10
0.0
 20
0.0
 30
0.0
 11
0.0
 21
2.5
 31
0.0
  0
LINE
  5
118
330
114
100
AcDbEntity
  8
10
 62
     0
100
AcDbLine
 10
0.0
 20
0.0
 30
0.0
 11
-2.5
 21
0.0
 31
0.0
  0
LINE
  5
119
330
114
100
AcDbEntity
  8
10
 62
     0
100
AcDbLine
 10
0.0
 20
0.0
 30
0.0
 11
0.0
 21
-2.5
 31
0.0
  0
LINE
  5
11A
330
114
100
AcDbEntity
  8
10
 62
     0
100
AcDbLine
 10
0.0
 20
0.0
 30
0.0
 11
2.5
 21
0.0
 31
0.0
  0
LINE
  5
11B
330
114
100
AcDbEntity
  8
10
 62
     0
100
AcDbLine
 10
0.0
 20
5.0
 30
0.0
 11
0.0
 21
5.7656023222
 31
0.0
  0
LINE
  5
11C
330
114
100
AcDbEntity
  8
10
 62
     0
100
AcDbLine
 10
-5.0
 20
0.0
 30
0.0
 11
-5.7656023222
 21
0.0
 31
0.0
  0
LINE
  5
11D
330
114
100
AcDbEntity
  8
10
 62
     0
100
AcDbLine
 10
0.0
 20
-5.0
 30
0.0
 11
0.0
 21
-5.7656023222
 31
0.0
  0
LINE
  5
11E
330
114
100
AcDbEntity
  8
10
 62
     0
100
AcDbLine
 10
5.0
 20
0.0
 30
0.0
 11
5.7656023222
 21
0.0
 31
0.0
  0
ENDBLK
  5
116
330
114
100
AcDbEntity
  8
0
100
AcDbBlockEnd
  0
BLOCK
  5
121
330
120
100
AcDbEntity
  8
0
100
AcDbBlockBegin
  2
SW_CENTERMARKSYMBOL_4
 70
     0
 10
0.0
 20
0.0
 30
0.0
  3
SW_CENTERMARKSYMBOL_4
  1

  0
LINE
  5
123
330
120
100
AcDbEntity
  8
10
 62
     0
100
AcDbLine
 10
0.0
 20
0.0
 30
0.0
 11
0.0
 21
2.5
 31
0.0
  0
LINE
  5
124
330
120
100
AcDbEntity
  8
10
 62
     0
100
AcDbLine
 10
0.0
 20
0.0
 30
0.0
 11
-2.5
 21
0.0
 31
0.0
  0
LINE
  5
125
330
120
100
AcDbEntity
  8
10
 62
     0
100
AcDbLine
 10
0.0
 20
0.0
 30
0.0
 11
0.0
 21
-2.5
 31
0.0
  0
LINE
  5
126
330
120
100
AcDbEntity
  8
10
 62
     0
100
AcDbLine
 10
0.0
 20
0.0
 30
0.0
 11
2.5
 21
0.0
 31
0.0
  0
LINE
  5
127
330
120
100
AcDbEntity
  8
10
 62
     0
100
AcDbLine
 10
0.0
 20
5.0
 30
0.0
 11
0.0
 21
5.7656023222
 31
0.0
  0
LINE
  5
128
330
120
100
AcDbEntity
  8
10
 62
     0
100
AcDbLine
 10
-5.0
 20
0.0
 30
0.0
 11
-5.7656023222
 21
0.0
 31
0.0
  0
LINE
  5
129
330
120
100
AcDbEntity
  8
10
 62
     0
100
AcDbLine
 10
0.0
 20
-5.0
 30
0.0
 11
0.0
 21
-5.7656023222
 31
0.0
  0
LINE
  5
12A
330
120
100
AcDbEntity
  8
10
 62
     0
100
AcDbLine
 10
5.0
 20
0.0
 30
0.0
 11
5.7656023222
 21
0.0
 31
0.0
  0
ENDBLK
  5
122
330
120
100
AcDbEntity
  8
0
100
AcDbBlockEnd
  0
ENDSEC
  0
SECTION
  2
ENTITIES
  0
LWPOLYLINE
  5
70
330
1F
100
AcDbEntity
  8
0
  6
Continuous
 62
     7
370
    25
100
AcDbPolyline
 90
        3
 70
   128
 43
0.0
 10
55.1530071463
 20
85.4999417106
 10
55.1530092662
 20
58.1551943622
 10
55.1530071063
 20
28.4963008621
  0
LWPOLYLINE
  5
71
330
1F
100
AcDbEntity
  8
0
  6
Continuous
 62
     7
370
    25
100
AcDbPolyline
 90
        3
 70
   128
 43
0.0
 10
55.1529896225
 20
85.4998486378
 10
55.1529918707
 20
60.5135950851
 10
55.1529894898
 20
28.4940399477
  0
SPLINE
  5
72
330
1F
100
AcDbEntity
  8
0
  6
Continuous
 62
     7
370
    25
100
AcDbSpline
210
0.0
220
0.0
230
1.0
 70
     8
 71
     3
 72
    28
 73
    24
 74
     0
 42
0.00000001
 43
0.00000001
 40
0.0
 40
0.0
 40
0.0
 40
0.0
 40
0.1250000000000006
 40
0.1250000000000006
 40
0.1875000000000002
 40
0.1875000000000002
 40
0.2499999999999999
 40
0.2499999999999999
 40
0.3749999999999993
 40
0.3749999999999993
 40
0.4374999999999995
 40
0.4374999999999995
 40
0.4999999999999997
 40
0.4999999999999997
 40
0.6249999999999996
 40
0.6249999999999996
 40
0.7499999999999994
 40
0.7499999999999994
 40
0.8749999999999994
 40
0.8749999999999994
 40
0.9374999999999997
 40
0.9374999999999997
 40
1.0
 40
1.0
 40
1.0
 40
1.0
 10
105.1196300113703
 20
11.71617641796083
 30
0.0
 10
105.1196300113703
 20
12.42525358374744
 30
0.0
 10
105.0534131247714
 20
13.12296006482587
 30
0.0
 10
104.8611543276634
 20
14.15356096462495
 30
0.0
 10
104.7814436869302
 20
14.49441152471103
 30
0.0
 10
104.5902683286241
 20
15.17065955735151
 30
0.0
 10
104.4780795103748
 20
15.50778020434695
 30
0.0
 10
104.0979954018009
 20
16.49462896655958
 30
0.0
 10
103.787218801681
 20
17.12059524729499
 30
0.0
 10
103.2384775939016
 20
18.01358946084752
 30
0.0
 10
103.0417330377397
 20
18.3035570856334
 30
0.0
 10
102.6198893559009
 20
18.86771126755463
 30
0.0
 10
102.394769457857
 20
19.14156399536534
 30
0.0
 10
101.6903917299155
 20
19.9222709301408
 30
0.0
 10
101.177755691952
 20
20.39418874386222
 30
0.0
 10
100.0667605186593
 20
21.2413217006475
 30
0.0
 10
99.46374810916181
 20
21.61875995201599
 30
0.0
 10
98.21837341107626
 20
22.25032082244142
 30
0.0
 10
97.57191252750823
 20
22.50866068329507
 30
0.0
 10
96.56592092786713
 20
22.80843201925709
 30
0.0
 10
96.22325459317868
 20
22.89381901704796
 30
0.0
 10
95.53284282471975
 20
23.03192514568496
 30
0.0
 10
95.18494657553946
 20
23.0848335920926
 30
0.0
 10
94.83428289155032
 20
23.12113171986571
 30
0.0
  0
SPLINE
  5
73
330
1F
100
AcDbEntity
  8
0
  6
Continuous
 62
     7
370
    25
100
AcDbSpline
210
0.0
220
0.0
230
1.0
 70
     8
 71
     3
 72
     9
 73
     5
 74
     0
 42
0.00000001
 43
0.00000001
 40
0.116964744148817
 40
0.116964744148817
 40
0.116964744148817
 40
0.116964744148817
 40
0.495408425227896
 40
0.7471151761964144
 40
0.7471151761964144
 40
0.7471151761964144
 40
0.7471151761964144
 10
94.83396617233983
 20
23.12116449970394
 30
0.0
 10
78.95275208820922
 20
24.76460905699857
 30
0.0
 10
60.44631486516745
 20
27.10705127811353
 30
0.0
 10
55.15674689815583
 20
28.25761695575429
 30
0.0
 10
55.15265944245277
 20
28.50084429613262
 30
0.0
  0
SPLINE
  5
74
330
1F
100
AcDbEntity
  8
0
  6
Continuous
 62
     7
370
    25
100
AcDbSpline
210
0.0
220
0.0
230
1.0
 70
     8
 71
     3
 72
    14
 73
    10
 74
     0
 42
0.00000001
 43
0.00000001
 40
0.0
 40
0.0
 40
0.0
 40
0.0
 40
0.2500000000000001
 40
0.2500000000000001
 40
0.5
 40
0.5
 40
0.75
 40
0.75
 40
1.0
 40
1.0
 40
1.0
 40
1.0
 10
94.83428624842186
 20
90.87883550029612
 30
0.0
 10
88.22378335799199
 20
90.19156662530253
 30
0.0
 10
82.439205689853
 20
89.55289233637073
 30
0.0
 10
72.52190079815679
 20
88.38244052100032
 30
0.0
 10
68.38917357459955
 20
87.84899334935307
 30
0.0
 10
61.77556957206683
 20
86.91526730903472
 30
0.0
 10
59.29469279309131
 20
86.51555323309896
 30
0.0
 10
55.98478967972194
 20
85.88379098051747
 30
0.0
 10
55.15576334532805
 20
85.65195147009159
 30
0.0
 10
55.15266223322502
 20
85.49915580372415
 30
0.0
  0
SPLINE
  5
75
330
1F
100
AcDbEntity
  8
0
  6
Continuous
 62
     7
370
    25
100
AcDbSpline
210
0.0
220
0.0
230
1.0
 70
     8
 71
     3
 72
    28
 73
    24
 74
     0
 42
0.00000001
 43
0.00000001
 40
0.0
 40
0.0
 40
0.0
 40
0.0
 40
0.1250000000000004
 40
0.1250000000000004
 40
0.1875000000000008
 40
0.1875000000000008
 40
0.2500000000000012
 40
0.2500000000000012
 40
0.3750000000000018
 40
0.3750000000000018
 40
0.4375000000000021
 40
0.4375000000000021
 40
0.5000000000000024
 40
0.5000000000000024
 40
0.6250000000000018
 40
0.6250000000000018
 40
0.6875000000000014
 40
0.6875000000000014
 40
0.750000000000001
 40
0.750000000000001
 40
0.8750000000000006
 40
0.8750000000000006
 40
1.0
 40
1.0
 40
1.0
 40
1.0
 10
94.83428289155032
 20
90.87886828013437
 30
0.0
 10
95.53591305532717
 20
90.95149587919299
 30
0.0
 10
96.21940949322233
 20
91.08930999165275
 30
0.0
 10
97.21964912742845
 20
91.38589182137972
 30
0.0
 10
97.5488575208129
 20
91.49986314309541
 30
0.0
 10
98.19880639675216
 20
91.7582295754243
 30
0.0
 10
98.52110735124427
 20
91.90345401953604
 30
0.0
 10
99.46194382160355
 20
92.37985936101363
 30
0.0
 10
100.0529838474525
 20
92.74959376853106
 30
0.0
 10
100.8853747820246
 20
93.3822139680173
 30
0.0
 10
101.1537325505316
 20
93.60620235437567
 30
0.0
 10
101.6713817138674
 20
94.08163581601734
 30
0.0
 10
101.9212419930585
 20
94.33385332118132
 30
0.0
 10
102.6271839942762
 20
95.11559257742546
 30
0.0
 10
103.0454918892222
 20
95.67433907731852
 30
0.0
 10
103.5961836901042
 20
96.5676013006391
 30
0.0
 10
103.7668441670594
 20
96.87462370897492
 30
0.0
 10
104.0812699589849
 20
97.50798540847546
 30
0.0
 10
104.2234615700369
 20
97.83157444029996
 30
0.0
 10
104.6019124630603
 20
98.81291856967619
 30
0.0
 10
104.7927717613639
 20
99.48502673507507
 30
0.0
 10
105.0520775770603
 20
100.8648612235066
 30
0.0
 10
105.1196300113703
 20
101.5747568009512
 30
0.0
 10
105.1196300113703
 20
102.2838235820392
 30
0.0
  0
LINE
  5
76
330
1F
100
AcDbEntity
  8
0
  6
Continuous
 62
     7
370
    25
100
AcDbLine
 10
110.9251452508
 20
107.0
 30
0.0
 11
105.1196300114
 21
107.0
 31
0.0
  0
LINE
  5
77
330
1F
100
AcDbEntity
  8
0
  6
Continuous
 62
     7
370
    25
100
AcDbLine
 10
110.9251452508
 20
101.1944847605
 30
0.0
 11
110.9251452508
 21
107.0
 31
0.0
  0
LINE
  5
78
330
1F
100
AcDbEntity
  8
0
  6
Continuous
 62
     7
370
    25
100
AcDbLine
 10
105.1196300114
 20
107.0
 30
0.0
 11
105.1196300114
 21
101.1944847605
 31
0.0
  0
LINE
  5
79
330
1F
100
AcDbEntity
  8
0
  6
Continuous
 62
     7
370
    25
100
AcDbLine
 10
105.1196300114
 20
101.1944847605
 30
0.0
 11
105.1196300114
 21
12.8055152395
 31
0.0
  0
LINE
  5
7A
330
1F
100
AcDbEntity
  8
0
  6
Continuous
 62
     7
370
    25
100
AcDbLine
 10
110.9251452508
 20
12.8055152395
 30
0.0
 11
110.9251452508
 21
101.1944847605
 31
0.0
  0
LINE
  5
7B
330
1F
100
AcDbEntity
  8
0
  6
Continuous
 62
     7
370
    25
100
AcDbLine
 10
105.1196300114
 20
7.0
 30
0.0
 11
110.9251452508
 21
7.0
 31
0.0
  0
LINE
  5
7C
330
1F
100
AcDbEntity
  8
0
  6
Continuous
 62
     7
370
    25
100
AcDbLine
 10
105.1196300114
 20
12.8055152395
 30
0.0
 11
105.1196300114
 21
7.0
 31
0.0
  0
LINE
  5
7D
330
1F
100
AcDbEntity
  8
0
  6
Continuous
 62
     7
370
    25
100
AcDbLine
 10
110.9251452508
 20
7.0
 30
0.0
 11
110.9251452508
 21
12.8055152395
 31
0.0
  0
SPLINE
  5
7E
330
1F
100
AcDbEntity
  8
0
  6
HIDDEN
 62
     7
370
    18
100
AcDbSpline
210
0.0
220
0.0
230
1.0
 70
     8
 71
     3
 72
     9
 73
     5
 74
     0
 42
0.00000001
 43
0.00000001
 40
0.7471151761964144
 40
0.7471151761964144
 40
0.7471151761964144
 40
0.7471151761964144
 40
0.747704212613948
 40
1.0
 40
1.0
 40
1.0
 40
1.0
 10
55.15265944245277
 20
28.50084429613262
 30
0.0
 10
55.15264987711432
 20
28.50141348929359
 30
0.0
 10
55.15350127370141
 20
28.74527054218539
 30
0.0
 10
57.28291146856204
 20
28.77068214804066
 30
0.0
 10
61.5260160781336
 20
28.77068214804066
 30
0.0
  0
LINE
  5
7F
330
1F
100
AcDbEntity
  8
0
  6
HIDDEN
 62
     7
370
    18
100
AcDbLine
 10
61.5260160781
 20
28.770682148
 30
0.0
 11
61.5260160781
 21
85.229317852
 31
0.0
  0
SPLINE
  5
80
330
1F
100
AcDbEntity
  8
0
  6
HIDDEN
 62
     7
370
    18
100
AcDbSpline
210
0.0
220
0.0
230
1.0
 70
     8
 71
     3
 72
     9
 73
     5
 74
     0
 42
0.00000001
 43
0.00000001
 40
0.7470633879072124
 40
0.7470633879072124
 40
0.7470633879072124
 40
0.7470633879072124
 40
0.862852281381471
 40
1.0
 40
1.0
 40
1.0
 40
1.0
 10
55.15266223322502
 20
85.49930634754625
 30
0.0
 10
55.15038276226515
 20
85.38715208660143
 30
0.0
 10
56.12021051817578
 20
85.23291807305411
 30
0.0
 10
59.21946897684534
 20
85.22946714620076
 30
0.0
 10
61.5260160781336
 20
85.22946714620076
 30
0.0
  0
LWPOLYLINE
  5
81
330
1F
100
AcDbEntity
  8
0
  6
HIDDEN
 62
     7
370
    18
100
AcDbPolyline
 90
        2
 70
   128
 43
0.0
 10
94.8339661723
 20
23.1211644997
 10
94.8339661723
 20
23.1211644997
  0
LWPOLYLINE
  5
82
330
1F
100
AcDbEntity
  8
0
  6
HIDDEN
 62
     7
370
    18
100
AcDbPolyline
 90
        2
 70
   128
 43
0.0
 10
94.8339661723
 20
90.8788355003
 10
94.8339661723
 20
90.8788355003
  0
LINE
  5
83
330
1F
100
AcDbEntity
  8
0
  6
HIDDEN
 62
     7
370
    18
100
AcDbLine
 10
90.6058419127
 20
88.1320754717
 30
0.0
 11
110.9251452508
 21
88.1320754717
 31
0.0
  0
LINE
  5
84
330
1F
100
AcDbEntity
  8
0
  6
HIDDEN
 62
     7
370
    18
100
AcDbLine
 10
90.6058419127
 20
25.8679245283
 30
0.0
 11
90.6058419127
 21
88.1320754717
 31
0.0
  0
LINE
  5
85
330
1F
100
AcDbEntity
  8
0
  6
HIDDEN
 62
     7
370
    18
100
AcDbLine
 10
90.6058419127
 20
25.8679245283
 30
0.0
 11
110.9251452508
 21
25.8679245283
 31
0.0
  0
LINE
  5
86
330
1F
100
AcDbEntity
  8
0
  6
HIDDEN
 62
     7
370
    18
100
AcDbLine
 10
90.6058419127
 20
80.8751814224
 30
0.0
 11
66.2705768144
 21
80.8751814224
 31
0.0
  0
LINE
  5
87
330
1F
100
AcDbEntity
  8
0
  6
HIDDEN
 62
     7
370
    18
100
AcDbLine
 10
90.6058419127
 20
33.1248185776
 30
0.0
 11
66.2705768144
 21
33.1248185776
 31
0.0
  0
LINE
  5
88
330
1F
100
AcDbEntity
  8
0
  6
HIDDEN
 62
     7
370
    18
100
AcDbLine
 10
66.2705768144
 20
33.1248185776
 30
0.0
 11
66.2705768144
 21
80.8751814224
 31
0.0
  0
LINE
  5
89
330
1F
100
AcDbEntity
  8
0
  6
HIDDEN
 62
     7
370
    18
100
AcDbLine
 10
99.6105062942
 20
92.4862119013
 30
0.0
 11
105.1196300114
 21
92.4862119013
 31
0.0
  0
LINE
  5
8A
330
1F
100
AcDbEntity
  8
0
  6
HIDDEN
 62
     7
370
    18
100
AcDbLine
 10
105.1196300114
 20
21.5137880987
 30
0.0
 11
99.6105276297
 21
21.5137880987
 31
0.0
  0
LINE
  5
8B
330
1F
100
AcDbEntity
  8
0
  6
HIDDEN
 62
     7
370
    18
100
AcDbLine
 10
105.1196300114
 20
10.9912917271
 30
0.0
 11
110.9251452508
 21
10.9912917271
 31
0.0
  0
LINE
  5
8C
330
1F
100
AcDbEntity
  8
0
  6
HIDDEN
 62
     7
370
    18
100
AcDbLine
 10
110.9251452508
 20
17.5224963716
 30
0.0
 11
105.1196300114
 21
17.5224963716
 31
0.0
  0
LINE
  5
8D
330
1F
100
AcDbEntity
  8
0
  6
HIDDEN
 62
     7
370
    18
100
AcDbLine
 10
105.1196300114
 20
96.4775036284
 30
0.0
 11
110.9251452508
 21
96.4775036284
 31
0.0
  0
LINE
  5
8E
330
1F
100
AcDbEntity
  8
0
  6
HIDDEN
 62
     7
370
    18
100
AcDbLine
 10
110.9251452508
 20
103.0087082729
 30
0.0
 11
105.1196300114
 21
103.0087082729
 31
0.0
  0
LINE
  5
8F
330
1F
100
AcDbEntity
  8
0
  6
HIDDEN
 62
     7
370
    18
100
AcDbLine
 10
66.2705768144
 20
66.0711175617
 30
0.0
 11
61.5260160781
 21
66.0711175617
 31
0.0
  0
LINE
  5
90
330
1F
100
AcDbEntity
  8
0
  6
HIDDEN
 62
     7
370
    18
100
AcDbLine
 10
61.5260160781
 20
47.9288824383
 30
0.0
 11
66.2705768144
 21
47.9288824383
 31
0.0
  0
LINE
  5
91
330
1F
100
AcDbEntity
  8
0
  6
HIDDEN
 62
     7
370
    18
100
AcDbLine
 10
106.5710088212
 20
25.8679245283
 30
0.0
 11
106.5710088212
 21
7.0
 31
0.0
  0
LWPOLYLINE
  5
92
330
1F
100
AcDbEntity
  8
0
  6
Continuous
 62
     7
370
    25
100
AcDbPolyline
 90
        3
 70
   128
 43
0.0
 10
55.1528420309
 20
176.1897066978
 10
55.1528464099
 20
159.728767729
 10
55.1528420309
 20
139.8102894861
  0
LINE
  5
93
330
1F
100
AcDbEntity
  8
0
  6
Continuous
 62
     7
370
    25
100
AcDbLine
 10
110.9251452508
 20
183.1814204431
 30
0.0
 11
105.1196300114
 21
183.1814204431
 31
0.0
  0
LINE
  5
94
330
1F
100
AcDbEntity
  8
0
  6
Continuous
 62
     7
370
    25
100
AcDbLine
 10
105.1196300114
 20
183.1814204431
 30
0.0
 11
105.1196300114
 21
177.3759052037
 31
0.0
  0
LINE
  5
95
330
1F
100
AcDbEntity
  8
0
  6
Continuous
 62
     7
370
    25
100
AcDbLine
 10
110.9251452508
 20
177.3759052037
 30
0.0
 11
110.9251452508
 21
183.1814204431
 31
0.0
  0
LINE
  5
96
330
1F
100
AcDbEntity
  8
0
  6
Continuous
 62
     7
370
    25
100
AcDbLine
 10
105.1196300114
 20
138.6240909802
 30
0.0
 11
105.1196300114
 21
177.3759052037
 31
0.0
  0
LINE
  5
97
330
1F
100
AcDbEntity
  8
0
  6
Continuous
 62
     7
370
    25
100
AcDbLine
 10
110.9251452508
 20
177.3759052037
 30
0.0
 11
110.9251452508
 21
138.6240909802
 31
0.0
  0
LINE
  5
98
330
1F
100
AcDbEntity
  8
0
  6
Continuous
 62
     7
370
    25
100
AcDbLine
 10
105.1196300114
 20
132.8185757407
 30
0.0
 11
110.9251452508
 21
132.8185757407
 31
0.0
  0
LINE
  5
99
330
1F
100
AcDbEntity
  8
0
  6
Continuous
 62
     7
370
    25
100
AcDbLine
 10
105.1196300114
 20
138.6240909802
 30
0.0
 11
105.1196300114
 21
132.8185757407
 31
0.0
  0
LINE
  5
9A
330
1F
100
AcDbEntity
  8
0
  6
Continuous
 62
     7
370
    25
100
AcDbLine
 10
110.9251452508
 20
132.8185757407
 30
0.0
 11
110.9251452508
 21
138.6240909802
 31
0.0
  0
SPLINE
  5
9B
330
1F
100
AcDbEntity
  8
0
  6
Continuous
 62
     7
370
    25
100
AcDbSpline
210
0.0
220
0.0
230
1.0
 70
     8
 71
     3
 72
    62
 73
    58
 74
     0
 42
0.00000001
 43
0.00000001
 40
0.0
 40
0.0
 40
0.0
 40
0.0
 40
0.0625000000000004
 40
0.0625000000000004
 40
0.0937500000000005
 40
0.0937500000000005
 40
0.1250000000000007
 40
0.1250000000000007
 40
0.1562500000000009
 40
0.1562500000000009
 40
0.1875000000000011
 40
0.1875000000000011
 40
0.2187500000000012
 40
0.2187500000000012
 40
0.2500000000000014
 40
0.2500000000000014
 40
0.3125000000000015
 40
0.3125000000000015
 40
0.3437500000000017
 40
0.3437500000000017
 40
0.3750000000000018
 40
0.3750000000000018
 40
0.4062500000000021
 40
0.4062500000000021
 40
0.4375000000000022
 40
0.4375000000000022
 40
0.4687500000000024
 40
0.4687500000000024
 40
0.5000000000000026
 40
0.5000000000000026
 40
0.5156250000000027
 40
0.5156250000000027
 40
0.5312500000000028
 40
0.5312500000000028
 40
0.5625000000000028
 40
0.5625000000000028
 40
0.6250000000000027
 40
0.6250000000000027
 40
0.6562500000000024
 40
0.6562500000000024
 40
0.6875000000000023
 40
0.6875000000000023
 40
0.7500000000000019
 40
0.7500000000000019
 40
0.8125000000000016
 40
0.8125000000000016
 40
0.8437500000000013
 40
0.8437500000000013
 40
0.875000000000001
 40
0.875000000000001
 40
0.9062500000000008
 40
0.9062500000000008
 40
0.9375000000000006
 40
0.9375000000000006
 40
0.9687500000000002
 40
0.9687500000000002
 40
1.0
 40
1.0
 40
1.0
 40
1.0
 10
105.1196300113703
 20
135.4732821079149
 30
0.0
 10
105.1196300113703
 20
135.2483567715397
 30
0.0
 10
105.0717476025318
 20
135.1078824336984
 30
0.0
 10
104.9174353548777
 20
135.0171942704139
 30
0.0
 10
104.8522066865698
 20
135.007766050651
 30
0.0
 10
104.6980961812744
 20
135.0281745762149
 30
0.0
 10
104.6088306304865
 20
135.0577247701063
 30
0.0
 10
104.4063189807846
 20
135.1532413060846
 30
0.0
 10
104.292377853305
 20
135.2197896656106
 30
0.0
 10
104.0473010789408
 20
135.383653075365
 30
0.0
 10
103.9156324973522
 20
135.4810962899503
 30
0.0
 10
103.6360906580399
 20
135.7044766153759
 30
0.0
 10
103.4874324195571
 20
135.8311373878037
 30
0.0
 10
103.1793128136187
 20
136.1085811664192
 30
0.0
 10
103.0206678024023
 20
136.258542089944
 30
0.0
 10
102.5340383307415
 20
136.7398272942821
 30
0.0
 10
102.1951333091955
 20
137.1018467977638
 30
0.0
 10
101.678086671286
 20
137.7100397574325
 30
0.0
 10
101.5056332338858
 20
137.9223585961348
 30
0.0
 10
101.1677558629523
 20
138.3628044015837
 30
0.0
 10
101.0016935394709
 20
138.5915996974914
 30
0.0
 10
100.6807453206922
 20
139.0696368473897
 30
0.0
 10
100.5257895434892
 20
139.3188186576754
 30
0.0
 10
100.235448807735
 20
139.8439068566331
 30
0.0
 10
100.09911735269
 20
140.1222918449149
 30
0.0
 10
99.86764478811507
 20
140.6978541074178
 30
0.0
 10
99.77167194193007
 20
140.995937143315
 30
0.0
 10
99.63678745908267
 20
141.6198350090976
 30
0.0
 10
99.60059466523057
 20
141.937088280363
 30
0.0
 10
99.59878423168722
 20
142.4127128706992
 30
0.0
 10
99.60678700069973
 20
142.5716540471121
 30
0.0
 10
99.64008776374874
 20
142.8903431135891
 30
0.0
 10
99.66545423465686
 20
143.0495398687721
 30
0.0
 10
99.76324701660079
 20
143.5155117987886
 30
0.0
 10
99.85771629248461
 20
143.815476104298
 30
0.0
 10
100.2043336485382
 20
144.6880771104002
 30
0.0
 10
100.5043616845524
 20
145.2073800083009
 30
0.0
 10
100.9909792212224
 20
145.9351431869231
 30
0.0
 10
101.1601187415687
 20
146.1686360370277
 30
0.0
 10
101.4993636439934
 20
146.6115572813791
 30
0.0
 10
101.6703789136959
 20
146.8222931530905
 30
0.0
 10
102.1825620331878
 20
147.4257873508309
 30
0.0
 10
102.5235757797645
 20
147.7912346113087
 30
0.0
 10
103.1817845235013
 20
148.4428885766008
 30
0.0
 10
103.4899354102032
 20
148.7200252595741
 30
0.0
 10
103.9097575115886
 20
149.0561789982972
 30
0.0
 10
104.0433186181551
 20
149.1552730347317
 30
0.0
 10
104.2902487368834
 20
149.3206928021645
 30
0.0
 10
104.4027587610579
 20
149.3865280862352
 30
0.0
 10
104.6052408715275
 20
149.4826218624136
 30
0.0
 10
104.695219204582
 20
149.5128995625707
 30
0.0
 10
104.8513412886098
 20
149.5341560686814
 30
0.0
 10
104.916542606032
 20
149.5246873725064
 30
0.0
 10
105.019080310923
 20
149.4652035401822
 30
0.0
 10
105.0570055510217
 20
149.4153083827714
 30
0.0
 10
105.1073208189144
 20
149.2736788433804
 30
0.0
 10
105.1196300113703
 20
149.1812365752328
 30
0.0
 10
105.1196300113703
 20
149.0684673086967
 30
0.0
  0
SPLINE
  5
9C
330
1F
100
AcDbEntity
  8
0
  6
Continuous
 62
     7
370
    25
100
AcDbSpline
210
0.0
220
0.0
230
1.0
 70
     8
 71
     3
 72
    28
 73
    24
 74
     0
 42
0.00000001
 43
0.00000001
 40
0.0
 40
0.0
 40
0.0
 40
0.0
 40
0.1250000000000004
 40
0.1250000000000004
 40
0.1875000000000008
 40
0.1875000000000008
 40
0.2500000000000012
 40
0.2500000000000012
 40
0.3750000000000018
 40
0.3750000000000018
 40
0.4375000000000021
 40
0.4375000000000021
 40
0.5000000000000024
 40
0.5000000000000024
 40
0.6250000000000018
 40
0.6250000000000018
 40
0.6875000000000014
 40
0.6875000000000014
 40
0.750000000000001
 40
0.750000000000001
 40
0.8750000000000006
 40
0.8750000000000006
 40
1.0
 40
1.0
 40
1.0
 40
1.0
 10
94.83428289155032
 20
134.4290325758385
 30
0.0
 10
95.53591305532717
 20
134.3561206220979
 30
0.0
 10
96.21940949322233
 20
134.2855110725916
 30
0.0
 10
97.21964912742845
 20
134.1826988418686
 30
0.0
 10
97.5488575208129
 20
134.1489493009955
 30
0.0
 10
98.19880639675216
 20
134.0824805259012
 30
0.0
 10
98.52110735124427
 20
134.0496026853766
 30
0.0
 10
99.46194382160355
 20
133.9538483064307
 30
0.0
 10
100.0529838474525
 20
133.8939908745489
 30
0.0
 10
100.8853747820246
 20
133.8100011562109
 30
0.0
 10
101.1537325505316
 20
133.7829788987018
 30
0.0
 10
101.6713817138674
 20
133.7309454807524
 30
0.0
 10
101.9212419930585
 20
133.7058777102607
 30
0.0
 10
102.6271839942762
 20
133.6351623777479
 30
0.0
 10
103.0454918892222
 20
133.5934107467874
 30
0.0
 10
103.5961836901042
 20
133.538561652986
 30
0.0
 10
103.7668441670594
 20
133.5215863433447
 30
0.0
 10
104.0812699589849
 20
133.4903409585912
 30
0.0
 10
104.2234615700369
 20
133.4762272537735
 30
0.0
 10
104.6019124630603
 20
133.4386903333818
 30
0.0
 10
104.7927717613639
 20
133.4197989915867
 30
0.0
 10
105.0520775770603
 20
133.3941440898203
 30
0.0
 10
105.1196300113703
 20
133.3874690408826
 30
0.0
 10
105.1196300113703
 20
133.3874690408826
 30
0.0
  0
SPLINE
  5
9D
330
1F
100
AcDbEntity
  8
0
  6
Continuous
 62
     7
370
    25
100
AcDbSpline
210
0.0
220
0.0
230
1.0
 70
     8
 71
     3
 72
    28
 73
    24
 74
     0
 42
0.00000001
 43
0.00000001
 40
0.0
 40
0.0
 40
0.0
 40
0.0
 40
0.124999999999999
 40
0.124999999999999
 40
0.1874999999999991
 40
0.1874999999999991
 40
0.2499999999999992
 40
0.2499999999999992
 40
0.3749999999999994
 40
0.3749999999999994
 40
0.4374999999999997
 40
0.4374999999999997
 40
0.5
 40
0.5
 40
0.6250000000000002
 40
0.6250000000000002
 40
0.7500000000000002
 40
0.7500000000000002
 40
0.8750000000000001
 40
0.8750000000000001
 40
0.9375000000000001
 40
0.9375000000000001
 40
1.0
 40
1.0
 40
1.0
 40
1.0
 10
105.1196300113703
 20
182.6125271429333
 30
0.0
 10
105.1196300113703
 20
182.6125271429334
 30
0.0
 10
105.0534124763087
 20
182.6059839555829
 30
0.0
 10
104.8611519529455
 20
182.5869628603131
 30
0.0
 10
104.7814406147908
 20
182.5790742668619
 30
0.0
 10
104.5902636945707
 20
182.560140967827
 30
0.0
 10
104.4780740063037
 20
182.5490244487515
 30
0.0
 10
104.0979874075439
 20
182.5113280796292
 30
0.0
 10
103.7872091602097
 20
182.4804663068114
 30
0.0
 10
103.2384657306057
 20
182.4258212537427
 30
0.0
 10
103.0417204703922
 20
182.4062070711261
 30
0.0
 10
102.6198754859197
 20
182.3640885118013
 30
0.0
 10
102.3947552097615
 20
182.3415815788422
 30
0.0
 10
101.6903763116176
 20
182.2710410169843
 30
0.0
 10
101.1777395876554
 20
182.2195542422479
 30
0.0
 10
100.0667427770159
 20
182.1074999465453
 30
0.0
 10
99.4637293882106
 20
182.0464550638132
 30
0.0
 10
98.218351605918
 20
181.9197690150877
 30
0.0
 10
97.57188855615756
 20
181.8537189836601
 30
0.0
 10
96.5658921993275
 20
181.7503824034038
 30
0.0
 10
96.22322394659533
 20
181.7150933806542
 30
0.0
 10
95.53280761081211
 20
181.643794061596
 30
0.0
 10
95.1849089445318
 20
181.6077690916634
 30
0.0
 10
94.83424270204205
 20
181.5713527133532
 30
0.0
  0
SPLINE
  5
9E
330
1F
100
AcDbEntity
  8
0
  6
Continuous
 62
     7
370
    25
100
AcDbSpline
210
0.0
220
0.0
230
1.0
 70
     8
 71
     3
 72
    62
 73
    58
 74
     0
 42
0.00000001
 43
0.00000001
 40
0.0
 40
0.0
 40
0.0
 40
0.0
 40
0.0625000000000015
 40
0.0625000000000015
 40
0.0937500000000019
 40
0.0937500000000019
 40
0.1250000000000023
 40
0.1250000000000023
 40
0.1562500000000027
 40
0.1562500000000027
 40
0.1875000000000031
 40
0.1875000000000031
 40
0.2187500000000034
 40
0.2187500000000034
 40
0.2500000000000038
 40
0.2500000000000038
 40
0.3125000000000042
 40
0.3125000000000042
 40
0.3437500000000042
 40
0.3437500000000042
 40
0.3750000000000042
 40
0.3750000000000042
 40
0.4062500000000042
 40
0.4062500000000042
 40
0.4375000000000043
 40
0.4375000000000043
 40
0.4687500000000043
 40
0.4687500000000043
 40
0.5000000000000043
 40
0.5000000000000043
 40
0.5156250000000044
 40
0.5156250000000044
 40
0.5312500000000047
 40
0.5312500000000047
 40
0.5625000000000047
 40
0.5625000000000047
 40
0.6250000000000043
 40
0.6250000000000043
 40
0.6562500000000041
 40
0.6562500000000041
 40
0.6875000000000038
 40
0.6875000000000038
 40
0.7500000000000033
 40
0.7500000000000033
 40
0.8125000000000028
 40
0.8125000000000028
 40
0.8437500000000023
 40
0.8437500000000023
 40
0.8750000000000019
 40
0.8750000000000019
 40
0.9062500000000014
 40
0.9062500000000014
 40
0.9375000000000009
 40
0.9375000000000009
 40
0.9687500000000004
 40
0.9687500000000004
 40
1.0
 40
1.0
 40
1.0
 40
1.0
 10
105.1196300113703
 20
164.5008583053023
 30
0.0
 10
105.1196300113703
 20
164.2759329689271
 30
0.0
 10
105.0717476025318
 20
164.135458631086
 30
0.0
 10
104.9174353548777
 20
164.0447704678014
 30
0.0
 10
104.8522066865698
 20
164.0353422480385
 30
0.0
 10
104.6980961812744
 20
164.0557507736025
 30
0.0
 10
104.6088306304865
 20
164.0853009674939
 30
0.0
 10
104.4063189807847
 20
164.1808175034721
 30
0.0
 10
104.2923778533051
 20
164.2473658629981
 30
0.0
 10
104.0473010789408
 20
164.4112292727526
 30
0.0
 10
103.9156324973522
 20
164.5086724873379
 30
0.0
 10
103.6360906580399
 20
164.7320528127634
 30
0.0
 10
103.4874324195571
 20
164.8587135851912
 30
0.0
 10
103.1793128136187
 20
165.1361573638067
 30
0.0
 10
103.0206678024024
 20
165.2861182873315
 30
0.0
 10
102.5340383307415
 20
165.7674034916697
 30
0.0
 10
102.1951333091956
 20
166.1294229951513
 30
0.0
 10
101.6780866712861
 20
166.7376159548199
 30
0.0
 10
101.5056332338859
 20
166.9499347935223
 30
0.0
 10
101.1677558629524
 20
167.3903805989711
 30
0.0
 10
101.001693539471
 20
167.6191758948789
 30
0.0
 10
100.6807453206923
 20
168.0972130447772
 30
0.0
 10
100.5257895434892
 20
168.3463948550629
 30
0.0
 10
100.2354488077351
 20
168.8714830540206
 30
0.0
 10
100.09911735269
 20
169.1498680423024
 30
0.0
 10
99.86764478811507
 20
169.7254303048052
 30
0.0
 10
99.77167194193011
 20
170.0235133407024
 30
0.0
 10
99.63678745908268
 20
170.647411206485
 30
0.0
 10
99.60059466523057
 20
170.9646644777505
 30
0.0
 10
99.59878423168722
 20
171.4402890680866
 30
0.0
 10
99.60678700069973
 20
171.5992302444996
 30
0.0
 10
99.6400877637487
 20
171.9179193109764
 30
0.0
 10
99.66545423465685
 20
172.0771160661597
 30
0.0
 10
99.76324701660077
 20
172.5430879961761
 30
0.0
 10
99.85771629248461
 20
172.8430523016854
 30
0.0
 10
100.2043336485382
 20
173.7156533077877
 30
0.0
 10
100.5043616845524
 20
174.2349562056884
 30
0.0
 10
100.9909792212224
 20
174.9627193843106
 30
0.0
 10
101.1601187415687
 20
175.1962122344152
 30
0.0
 10
101.4993636439934
 20
175.6391334787667
 30
0.0
 10
101.6703789136959
 20
175.8498693504781
 30
0.0
 10
102.1825620331878
 20
176.4533635482184
 30
0.0
 10
102.5235757797645
 20
176.8188108086962
 30
0.0
 10
103.1817845235013
 20
177.4704647739883
 30
0.0
 10
103.4899354102032
 20
177.7476014569617
 30
0.0
 10
103.9097575115886
 20
178.0837551956848
 30
0.0
 10
104.0433186181551
 20
178.1828492321193
 30
0.0
 10
104.2902487368834
 20
178.3482689995521
 30
0.0
 10
104.4027587610579
 20
178.4141042836227
 30
0.0
 10
104.6052408715275
 20
178.5101980598012
 30
0.0
 10
104.695219204582
 20
178.5404757599583
 30
0.0
 10
104.8513412886098
 20
178.5617322660689
 30
0.0
 10
104.9165426060321
 20
178.552263569894
 30
0.0
 10
105.019080310923
 20
178.4927797375697
 30
0.0
 10
105.0570055510217
 20
178.4428845801589
 30
0.0
 10
105.1073208189144
 20
178.3012550407679
 30
0.0
 10
105.1196300113703
 20
178.2088127726206
 30
0.0
 10
105.1196300113703
 20
178.0960435060846
 30
0.0
  0
SPLINE
  5
9F
330
1F
100
AcDbEntity
  8
0
  6
Continuous
 62
     7
370
    25
100
AcDbSpline
210
0.0
220
0.0
230
1.0
 70
     8
 71
     3
 72
     9
 73
     5
 74
     0
 42
0.00000001
 43
0.00000001
 40
0.116964744148817
 40
0.116964744148817
 40
0.116964744148817
 40
0.116964744148817
 40
0.495408425227895
 40
0.7471172888402514
 40
0.7471172888402514
 40
0.7471172888402514
 40
0.7471172888402514
 10
94.83396617233983
 20
181.5740440421307
 30
0.0
 10
78.95275208820922
 20
179.9305994848376
 30
0.0
 10
60.44625282044201
 20
177.5881216811503
 30
0.0
 10
55.15671143066799
 20
176.4375877733143
 30
0.0
 10
55.15265933997694
 20
176.1943642482716
 30
0.0
  0
SPLINE
  5
A0
330
1F
100
AcDbEntity
  8
0
  6
Continuous
 62
     7
370
    25
100
AcDbSpline
210
0.0
220
0.0
230
1.0
 70
     8
 71
     3
 72
    14
 73
    10
 74
     0
 42
0.00000001
 43
0.00000001
 40
0.0
 40
0.0
 40
0.0
 40
0.0
 40
0.2500000000000001
 40
0.2500000000000001
 40
0.5
 40
0.5
 40
0.75
 40
0.75
 40
1.0
 40
1.0
 40
1.0
 40
1.0
 10
94.83428624842186
 20
134.4290322269994
 30
0.0
 10
88.22378335799199
 20
135.1159819862649
 30
0.0
 10
82.439205689853
 20
135.7543572266209
 30
0.0
 10
72.52190079815679
 20
136.9242448964199
 30
0.0
 10
68.38917357459955
 20
137.4574269326129
 30
0.0
 10
61.77556957206683
 20
138.390650191022
 30
0.0
 10
59.29469279309131
 20
138.7901266604223
 30
0.0
 10
55.98478967972194
 20
139.4214321134113
 30
0.0
 10
55.15576334532805
 20
139.6530522712658
 30
0.0
 10
55.15266223322502
 20
139.8056320157463
 30
0.0
  0
LWPOLYLINE
  5
A1
330
1F
100
AcDbEntity
  8
0
  6
HIDDEN
 62
     7
370
    18
100
AcDbPolyline
 90
        2
 70
   128
 43
0.0
 10
105.1196300114
 20
133.3874690409
 10
105.1196300114
 20
133.3874690409
  0
LWPOLYLINE
  5
A2
330
1F
100
AcDbEntity
  8
0
  6
HIDDEN
 62
     7
370
    18
100
AcDbPolyline
 90
        2
 70
   128
 43
0.0
 10
105.1196300114
 20
133.3874690409
 10
105.1196300114
 20
133.3874690409
  0
LWPOLYLINE
  5
A3
330
1F
100
AcDbEntity
  8
0
  6
HIDDEN
 62
     7
370
    18
100
AcDbPolyline
 90
        2
 70
   128
 43
0.0
 10
105.1196300114
 20
182.6125271429
 10
105.1196300114
 20
182.6125271429
  0
LWPOLYLINE
  5
A4
330
1F
100
AcDbEntity
  8
0
  6
HIDDEN
 62
     7
370
    18
100
AcDbPolyline
 90
        2
 70
   128
 43
0.0
 10
105.1196300114
 20
182.6125271429
 10
105.1196300114
 20
182.6125271429
  0
LINE
  5
A5
330
1F
100
AcDbEntity
  8
0
  6
HIDDEN
 62
     7
370
    18
100
AcDbLine
 10
61.5260160781
 20
140.07546979
 30
0.0
 11
61.5260160781
 21
175.9245263938
 31
0.0
  0
SPLINE
  5
A6
330
1F
100
AcDbEntity
  8
0
  6
HIDDEN
 62
     7
370
    18
100
AcDbSpline
210
0.0
220
0.0
230
1.0
 70
     8
 71
     3
 72
     9
 73
     5
 74
     0
 42
0.00000001
 43
0.00000001
 40
0.74711728884024
 40
0.74711728884024
 40
0.74711728884024
 40
0.74711728884024
 40
0.747704212613948
 40
1.0
 40
1.0
 40
1.0
 40
1.0
 10
55.15265933997694
 20
176.1943642482716
 30
0.0
 10
55.15264989148822
 20
176.1937971102411
 30
0.0
 10
55.15351906316467
 20
175.9499461304254
 30
0.0
 10
57.28291146856204
 20
175.9245263937941
 30
0.0
 10
61.5260160781336
 20
175.9245263937941
 30
0.0
  0
SPLINE
  5
A7
330
1F
100
AcDbEntity
  8
0
  6
HIDDEN
 62
     7
370
    18
100
AcDbSpline
210
0.0
220
0.0
230
1.0
 70
     8
 71
     3
 72
     9
 73
     5
 74
     0
 42
0.00000001
 43
0.00000001
 40
0.7470633879072124
 40
0.7470633879072124
 40
0.7470633879072124
 40
0.7470633879072124
 40
0.862852281381471
 40
1.0
 40
1.0
 40
1.0
 40
1.0
 10
55.15266223322502
 20
139.8056320157464
 30
0.0
 10
55.15038276226515
 20
139.9177856835527
 30
0.0
 10
56.12021051817578
 20
140.0720188814189
 30
0.0
 10
59.21946897684534
 20
140.0754697900204
 30
0.0
 10
61.5260160781336
 20
140.0754697900204
 30
0.0
  0
LINE
  5
A8
330
1F
100
AcDbEntity
  8
0
  6
HIDDEN
 62
     7
370
    18
100
AcDbLine
 10
90.6058419127
 20
137.1727121703
 30
0.0
 11
90.6058419127
 21
178.8272840135
 31
0.0
  0
LINE
  5
A9
330
1F
100
AcDbEntity
  8
0
  6
HIDDEN
 62
     7
370
    18
100
AcDbLine
 10
90.6058419127
 20
178.8272840135
 30
0.0
 11
110.9251452508
 21
178.8272840135
 31
0.0
  0
LINE
  5
AA
330
1F
100
AcDbEntity
  8
0
  6
HIDDEN
 62
     7
370
    18
100
AcDbLine
 10
90.6058419127
 20
137.1727121703
 30
0.0
 11
110.9251452508
 21
137.1727121703
 31
0.0
  0
LINE
  5
AB
330
1F
100
AcDbEntity
  8
0
  6
HIDDEN
 62
     7
370
    18
100
AcDbLine
 10
66.2705768144
 20
144.4296062196
 30
0.0
 11
66.2705768144
 21
171.5703899642
 31
0.0
  0
LINE
  5
AC
330
1F
100
AcDbEntity
  8
0
  6
HIDDEN
 62
     7
370
    18
100
AcDbLine
 10
90.6058419127
 20
171.5703899642
 30
0.0
 11
66.2705768144
 21
171.5703899642
 31
0.0
  0
LINE
  5
AD
330
1F
100
AcDbEntity
  8
0
  6
HIDDEN
 62
     7
370
    18
100
AcDbLine
 10
90.6058419127
 20
144.4296062196
 30
0.0
 11
66.2705768144
 21
144.4296062196
 31
0.0
  0
ARC
  5
AE
330
1F
100
AcDbEntity
  8
0
  6
HIDDEN
 62
     7
370
    18
100
AcDbCircle
 10
110.9251452508
 20
157.9999980919
 30
0.0
 40
4.354136429608133
100
AcDbArc
 50
90.0
 51
270.0
  0
LINE
  5
AF
330
1F
100
AcDbEntity
  8
0
  6
HIDDEN
 62
     7
370
    18
100
AcDbLine
 10
105.1196300114
 20
168.0328485835
 30
0.0
 11
110.9251452508
 21
168.0328485835
 31
0.0
  0
LINE
  5
B0
330
1F
100
AcDbEntity
  8
0
  6
HIDDEN
 62
     7
370
    18
100
AcDbLine
 10
110.9251452508
 20
174.5640532279
 30
0.0
 11
105.1196300114
 21
174.5640532279
 31
0.0
  0
LINE
  5
B1
330
1F
100
AcDbEntity
  8
0
  6
HIDDEN
 62
     7
370
    18
100
AcDbLine
 10
105.1196300114
 20
139.0052723861
 30
0.0
 11
110.9251452508
 21
139.0052723861
 31
0.0
  0
LINE
  5
B2
330
1F
100
AcDbEntity
  8
0
  6
HIDDEN
 62
     7
370
    18
100
AcDbLine
 10
110.9251452508
 20
145.5364770305
 30
0.0
 11
105.1196300114
 21
145.5364770305
 31
0.0
  0
LINE
  5
B3
330
1F
100
AcDbEntity
  8
0
  6
HIDDEN
 62
     7
370
    18
100
AcDbLine
 10
104.820495962
 20
164.0415568563
 30
0.0
 11
105.1196300114
 21
164.0415568563
 31
0.0
  0
LINE
  5
B4
330
1F
100
AcDbEntity
  8
0
  6
HIDDEN
 62
     7
370
    18
100
AcDbLine
 10
105.1196300114
 20
178.555344955
 30
0.0
 11
104.8292926525
 21
178.555344955
 31
0.0
  0
LINE
  5
B5
330
1F
100
AcDbEntity
  8
0
  6
HIDDEN
 62
     7
370
    18
100
AcDbLine
 10
104.820495962
 20
135.013980659
 30
0.0
 11
105.1196300114
 21
135.013980659
 31
0.0
  0
LINE
  5
B6
330
1F
100
AcDbEntity
  8
0
  6
HIDDEN
 62
     7
370
    18
100
AcDbLine
 10
105.1196300114
 20
149.5277687576
 30
0.0
 11
104.8292926525
 21
149.5277687576
 31
0.0
  0
LINE
  5
B7
330
1F
100
AcDbEntity
  8
0
  6
HIDDEN
 62
     7
370
    18
100
AcDbLine
 10
66.2705768144
 20
167.0711156536
 30
0.0
 11
61.5260160781
 21
167.0711156536
 31
0.0
  0
LINE
  5
B8
330
1F
100
AcDbEntity
  8
0
  6
HIDDEN
 62
     7
370
    18
100
AcDbLine
 10
61.5260160781
 20
148.9288805302
 30
0.0
 11
66.2705768144
 21
148.9288805302
 31
0.0
  0
LINE
  5
B9
330
1F
100
AcDbEntity
  8
0
  6
HIDDEN
 62
     7
370
    18
100
AcDbLine
 10
104.8292926525
 20
178.555344955
 30
0.0
 11
104.8204989355
 21
178.555344955
 31
0.0
  0
LINE
  5
BA
330
1F
100
AcDbEntity
  8
0
  6
HIDDEN
 62
     7
370
    18
100
AcDbLine
 10
104.8292926525
 20
149.5277687576
 30
0.0
 11
104.8204989355
 21
149.5277687576
 31
0.0
  0
LINE
  5
BB
330
1F
100
AcDbEntity
  8
0
  6
Continuous
 62
     7
370
    25
100
AcDbLine
 10
243.8272840135
 20
25.8679245283
 30
0.0
 11
227.3541345215
 21
25.8679245283
 31
0.0
  0
LINE
  5
BC
330
1F
100
AcDbEntity
  8
0
  6
Continuous
 62
     7
370
    25
100
AcDbLine
 10
243.8272840135
 20
88.1320754717
 30
0.0
 11
243.8272840135
 21
25.8679245283
 31
0.0
  0
LINE
  5
BD
330
1F
100
AcDbEntity
  8
0
  6
Continuous
 62
     7
370
    25
100
AcDbLine
 10
202.1727121703
 20
88.1320754717
 30
0.0
 11
243.8272840135
 21
88.1320754717
 31
0.0
  0
LINE
  5
BE
330
1F
100
AcDbEntity
  8
0
  6
Continuous
 62
     7
370
    25
100
AcDbLine
 10
202.1727121703
 20
25.8679245283
 30
0.0
 11
202.1727121703
 21
88.1320754717
 31
0.0
  0
LINE
  5
BF
330
1F
100
AcDbEntity
  8
0
  6
Continuous
 62
     7
370
    25
100
AcDbLine
 10
218.6458616623
 20
25.8679245283
 30
0.0
 11
202.1727121703
 21
25.8679245283
 31
0.0
  0
LINE
  5
C0
330
1F
100
AcDbEntity
  8
0
  6
Continuous
 62
     7
370
    25
100
AcDbLine
 10
218.6458616623
 20
7.0
 30
0.0
 11
218.6458616623
 21
25.8679245283
 31
0.0
  0
LINE
  5
C1
330
1F
100
AcDbEntity
  8
0
  6
Continuous
 62
     7
370
    25
100
AcDbLine
 10
218.6458616623
 20
7.0
 30
0.0
 11
203.6240909802
 21
7.0
 31
0.0
  0
ARC
  5
C2
330
1F
100
AcDbEntity
  8
0
  6
Continuous
 62
     7
370
    25
100
AcDbCircle
 10
203.6240909802
 20
12.8055152395
 30
0.0
 40
5.805515239477512
100
AcDbArc
 50
180.0
 51
270.0
  0
LINE
  5
C3
330
1F
100
AcDbEntity
  8
0
  6
Continuous
 62
     7
370
    25
100
AcDbLine
 10
197.8185757407
 20
12.8055152395
 30
0.0
 11
197.8185757407
 21
101.1944847605
 31
0.0
  0
ARC
  5
C4
330
1F
100
AcDbEntity
  8
0
  6
Continuous
 62
     7
370
    25
100
AcDbCircle
 10
203.6240909802
 20
101.1944847605
 30
0.0
 40
5.805515239477515
100
AcDbArc
 50
90.0
 51
180.0
  0
LINE
  5
C5
330
1F
100
AcDbEntity
  8
0
  6
Continuous
 62
     7
370
    25
100
AcDbLine
 10
242.3759052037
 20
107.0
 30
0.0
 11
203.6240909802
 21
107.0
 31
0.0
  0
ARC
  5
C6
330
1F
100
AcDbEntity
  8
0
  6
Continuous
 62
     7
370
    25
100
AcDbCircle
 10
242.3759052037
 20
101.1944847605
 30
0.0
 40
5.805515239477515
100
AcDbArc
 50
0.0
 51
90.0
  0
LINE
  5
C7
330
1F
100
AcDbEntity
  8
0
  6
Continuous
 62
     7
370
    25
100
AcDbLine
 10
248.1814204431
 20
101.1944847605
 30
0.0
 11
248.1814204431
 21
12.8055152395
 31
0.0
  0
ARC
  5
C8
330
1F
100
AcDbEntity
  8
0
  6
Continuous
 62
     7
370
    25
100
AcDbCircle
 10
242.3759052037
 20
12.8055152395
 30
0.0
 40
5.805515239477512
100
AcDbArc
 50
270.0
 51
0.0
  0
LINE
  5
C9
330
1F
100
AcDbEntity
  8
0
  6
Continuous
 62
     7
370
    25
100
AcDbLine
 10
242.3759052037
 20
7.0
 30
0.0
 11
227.3541345215
 21
7.0
 31
0.0
  0
LINE
  5
CA
330
1F
100
AcDbEntity
  8
0
  6
Continuous
 62
     7
370
    25
100
AcDbLine
 10
227.3541345215
 20
25.8679245283
 30
0.0
 11
227.3541345215
 21
7.0
 31
0.0
  0
CIRCLE
  5
CB
330
1F
100
AcDbEntity
  8
0
  6
Continuous
 62
     7
370
    25
100
AcDbCircle
 10
207.2708747083
 20
14.2568940493
 30
0.0
 40
3.265602322206096
  0
CIRCLE
  5
CC
330
1F
100
AcDbEntity
  8
0
  6
Continuous
 62
     7
370
    25
100
AcDbCircle
 10
236.2984509057
 20
14.2568940493
 30
0.0
 40
3.265602322206096
  0
CIRCLE
  5
CD
330
1F
100
AcDbEntity
  8
0
  6
Continuous
 62
     7
370
    25
100
AcDbCircle
 10
207.2708747083
 20
99.7431059507
 30
0.0
 40
3.265602322206092
  0
CIRCLE
  5
CE
330
1F
100
AcDbEntity
  8
0
  6
Continuous
 62
     7
370
    25
100
AcDbCircle
 10
236.2984509057
 20
99.7431059507
 30
0.0
 40
3.265602322206092
  0
LINE
  5
CF
330
1F
100
AcDbEntity
  8
0
  6
Continuous
 62
     7
370
    25
100
AcDbLine
 10
227.3541345215
 20
7.0
 30
0.0
 11
218.6458616623
 21
7.0
 31
0.0
  0
LINE
  5
D0
330
1F
100
AcDbEntity
  8
0
  6
Continuous
 62
     7
370
    25
100
AcDbLine
 10
218.6458616623
 20
25.8679245283
 30
0.0
 11
227.3541345215
 21
25.8679245283
 31
0.0
  0
LINE
  5
D1
330
1F
100
AcDbEntity
  8
0
  6
Continuous
 62
     7
370
    25
100
AcDbLine
 10
236.5703899642
 20
80.8751814224
 30
0.0
 11
236.5703899642
 21
33.1248185776
 31
0.0
  0
LINE
  5
D2
330
1F
100
AcDbEntity
  8
0
  6
Continuous
 62
     7
370
    25
100
AcDbLine
 10
209.4296062196
 20
80.8751814224
 30
0.0
 11
236.5703899642
 21
80.8751814224
 31
0.0
  0
LINE
  5
D3
330
1F
100
AcDbEntity
  8
0
  6
Continuous
 62
     7
370
    25
100
AcDbLine
 10
209.4296062196
 20
33.1248185776
 30
0.0
 11
209.4296062196
 21
80.8751814224
 31
0.0
  0
LINE
  5
D4
330
1F
100
AcDbEntity
  8
0
  6
Continuous
 62
     7
370
    25
100
AcDbLine
 10
236.5703899642
 20
33.1248185776
 30
0.0
 11
209.4296062196
 21
33.1248185776
 31
0.0
  0
CIRCLE
  5
D5
330
1F
100
AcDbEntity
  8
0
  6
Continuous
 62
     7
370
    25
100
AcDbCircle
 10
222.9999980919
 20
57.0
 30
0.0
 40
9.071117561683607
  0
SPLINE
  5
D6
330
1F
100
AcDbEntity
  8
0
  6
HIDDEN
 62
     7
370
    18
100
AcDbSpline
210
0.0
220
0.0
230
1.0
 70
     8
 71
     3
 72
    28
 73
    24
 74
     0
 42
0.00000001
 43
0.00000001
 40
0.0
 40
0.0
 40
0.0
 40
0.0
 40
0.1249999999999987
 40
0.1249999999999987
 40
0.1874999999999981
 40
0.1874999999999981
 40
0.2499999999999974
 40
0.2499999999999974
 40
0.3749999999999967
 40
0.3749999999999967
 40
0.4374999999999963
 40
0.4374999999999963
 40
0.4999999999999959
 40
0.4999999999999959
 40
0.624999999999996
 40
0.624999999999996
 40
0.6874999999999967
 40
0.6874999999999967
 40
0.7499999999999972
 40
0.7499999999999972
 40
0.8749999999999986
 40
0.8749999999999986
 40
1.0
 40
1.0
 40
1.0
 40
1.0
 10
246.5713527133529
 20
23.121135879914
 30
0.0
 10
246.6442169859744
 20
23.04851027098989
 30
0.0
 10
246.7147831669972
 20
22.91069806306155
 30
0.0
 10
246.817537154178
 20
22.61411882639025
 30
0.0
 10
246.851268413049
 20
22.50014832184493
 30
0.0
 10
246.9177029166023
 20
22.24178336764382
 30
0.0
 10
246.9505646993635
 20
22.09655957051463
 30
0.0
 10
247.046274896587
 20
21.62015602588911
 30
0.0
 10
247.1061082773923
 20
21.25042241188679
 30
0.0
 10
247.1900686752311
 20
20.61780236985955
 30
0.0
 10
247.2170822856121
 20
20.39381386138743
 30
0.0
 10
247.2691004290979
 20
19.91837971114344
 30
0.0
 10
247.2941615533389
 20
19.66616174880258
 30
0.0
 10
247.3648598715044
 20
18.88442102087035
 30
0.0
 10
247.4066038868849
 20
18.32567312896356
 30
0.0
 10
247.4614450269271
 20
17.43240842255139
 30
0.0
 10
247.4784182693097
 20
17.12538511788444
 30
0.0
 10
247.5096603880513
 20
16.4920214966801
 30
0.0
 10
247.5237728696675
 20
16.16843234841187
 30
0.0
 10
247.5613070971605
 20
15.18708665383036
 30
0.0
 10
247.5801978185267
 20
14.51497724652532
 30
0.0
 10
247.6058521034516
 20
13.13513998527643
 30
0.0
 10
247.6125271429333
 20
12.42524377719282
 30
0.0
 10
247.6125271429333
 20
11.71617641796083
 30
0.0
  0
SPLINE
  5
D7
330
1F
100
AcDbEntity
  8
0
  6
HIDDEN
 62
     7
370
    18
100
AcDbSpline
210
0.0
220
0.0
230
1.0
 70
     8
 71
     3
 72
    28
 73
    24
 74
     0
 42
0.00000001
 43
0.00000001
 40
0.0
 40
0.0
 40
0.0
 40
0.0
 40
0.124999999999999
 40
0.124999999999999
 40
0.1874999999999991
 40
0.1874999999999991
 40
0.2499999999999992
 40
0.2499999999999992
 40
0.3749999999999994
 40
0.3749999999999994
 40
0.4374999999999997
 40
0.4374999999999997
 40
0.5
 40
0.5
 40
0.6250000000000002
 40
0.6250000000000002
 40
0.7500000000000002
 40
0.7500000000000002
 40
0.8750000000000001
 40
0.8750000000000001
 40
0.9375000000000001
 40
0.9375000000000001
 40
1.0
 40
1.0
 40
1.0
 40
1.0
 10
247.6125271429333
 20
102.2838235820399
 30
0.0
 10
247.6125271429334
 20
101.5747465681781
 30
0.0
 10
247.6059839555829
 20
100.8770404092385
 30
0.0
 10
247.5869628603131
 20
99.84644019669092
 30
0.0
 10
247.5790742668619
 20
99.50558989904164
 30
0.0
 10
247.560140967827
 20
98.82934244194689
 30
0.0
 10
247.5490244487515
 20
98.49222212171274
 30
0.0
 10
247.5113280796292
 20
97.50537471820498
 30
0.0
 10
247.4804663068114
 20
96.87940925934339
 30
0.0
 10
247.4258212537427
 20
95.98641592368085
 30
0.0
 10
247.4062070711261
 20
95.69644853483568
 30
0.0
 10
247.3640885118013
 20
95.13229467188589
 30
0.0
 10
247.3415815788422
 20
94.85844229206288
 30
0.0
 10
247.2710410169843
 20
94.07773564177083
 30
0.0
 10
247.219554242248
 20
93.60581718077849
 30
0.0
 10
247.1074999465453
 20
92.7586814870752
 30
0.0
 10
247.0464550638132
 20
92.38124124448815
 30
0.0
 10
246.9197690150877
 20
91.74967661740921
 30
0.0
 10
246.8537189836601
 20
91.49133494366075
 30
0.0
 10
246.7503824034038
 20
91.19156225860014
 30
0.0
 10
246.7150933806542
 20
91.10617502153949
 30
0.0
 10
246.643794061596
 20
90.96806913695998
 30
0.0
 10
246.6077690916634
 20
90.9151612183002
 30
0.0
 10
246.5713527133532
 20
90.87886412008596
 30
0.0
  0
SPLINE
  5
D8
330
1F
100
AcDbEntity
  8
0
  6
HIDDEN
 62
     7
370
    18
100
AcDbSpline
210
0.0
220
0.0
230
1.0
 70
     8
 71
     3
 72
    28
 73
    24
 74
     0
 42
0.00000001
 43
0.00000001
 40
0.0
 40
0.0
 40
0.0
 40
0.0
 40
0.1250000000000004
 40
0.1250000000000004
 40
0.1875000000000008
 40
0.1875000000000008
 40
0.2500000000000012
 40
0.2500000000000012
 40
0.3750000000000018
 40
0.3750000000000018
 40
0.4375000000000021
 40
0.4375000000000021
 40
0.5000000000000024
 40
0.5000000000000024
 40
0.6250000000000018
 40
0.6250000000000018
 40
0.6875000000000014
 40
0.6875000000000014
 40
0.750000000000001
 40
0.750000000000001
 40
0.8750000000000006
 40
0.8750000000000006
 40
1.0
 40
1.0
 40
1.0
 40
1.0
 10
199.4290325758385
 20
90.87886828013437
 30
0.0
 10
199.3561206220979
 20
90.95149587919299
 30
0.0
 10
199.2855110725916
 20
91.08930999165275
 30
0.0
 10
199.1826988418686
 20
91.38589182137972
 30
0.0
 10
199.1489493009955
 20
91.49986314309541
 30
0.0
 10
199.0824805259012
 20
91.7582295754243
 30
0.0
 10
199.0496026853766
 20
91.90345401953604
 30
0.0
 10
198.9538483064307
 20
92.37985936101363
 30
0.0
 10
198.8939908745489
 20
92.74959376853106
 30
0.0
 10
198.8100011562109
 20
93.3822139680173
 30
0.0
 10
198.7829788987018
 20
93.60620235437567
 30
0.0
 10
198.7309454807524
 20
94.08163581601734
 30
0.0
 10
198.7058777102607
 20
94.33385332118132
 30
0.0
 10
198.6351623777479
 20
95.11559257742546
 30
0.0
 10
198.5934107467874
 20
95.67433907731852
 30
0.0
 10
198.538561652986
 20
96.5676013006391
 30
0.0
 10
198.5215863433447
 20
96.87462370897492
 30
0.0
 10
198.4903409585912
 20
97.50798540847546
 30
0.0
 10
198.4762272537735
 20
97.83157444029996
 30
0.0
 10
198.4386903333818
 20
98.81291856967619
 30
0.0
 10
198.4197989915867
 20
99.48502673507507
 30
0.0
 10
198.3941440898203
 20
100.8648612235066
 30
0.0
 10
198.3874690408826
 20
101.5747568009512
 30
0.0
 10
198.3874690408826
 20
102.2838235820392
 30
0.0
  0
SPLINE
  5
D9
330
1F
100
AcDbEntity
  8
0
  6
HIDDEN
 62
     7
370
    18
100
AcDbSpline
210
0.0
220
0.0
230
1.0
 70
     8
 71
     3
 72
    28
 73
    24
 74
     0
 42
0.00000001
 43
0.00000001
 40
0.0
 40
0.0
 40
0.0
 40
0.0
 40
0.1250000000000006
 40
0.1250000000000006
 40
0.1875000000000002
 40
0.1875000000000002
 40
0.2499999999999999
 40
0.2499999999999999
 40
0.3749999999999993
 40
0.3749999999999993
 40
0.4374999999999995
 40
0.4374999999999995
 40
0.4999999999999997
 40
0.4999999999999997
 40
0.6249999999999996
 40
0.6249999999999996
 40
0.7499999999999994
 40
0.7499999999999994
 40
0.8749999999999994
 40
0.8749999999999994
 40
0.9374999999999997
 40
0.9374999999999997
 40
1.0
 40
1.0
 40
1.0
 40
1.0
 10
198.3874690408826
 20
11.71617641796083
 30
0.0
 10
198.3874690408826
 20
12.42525358374744
 30
0.0
 10
198.3940121123583
 20
13.12296006482587
 30
0.0
 10
198.4130333594244
 20
14.15356096462495
 30
0.0
 10
198.4209220673717
 20
14.49441152471103
 30
0.0
 10
198.4398559245266
 20
15.17065955735151
 30
0.0
 10
198.4509728916206
 20
15.50778020434695
 30
0.0
 10
198.4886715088718
 20
16.49462896655958
 30
0.0
 10
198.5195359433406
 20
17.12059524729499
 30
0.0
 10
198.5741886029309
 20
18.01358946084752
 30
0.0
 10
198.5938059277994
 20
18.3035570856334
 30
0.0
 10
198.6359323750293
 20
18.86771126755463
 30
0.0
 10
198.6584440851614
 20
19.14156399536534
 30
0.0
 10
198.7290016085659
 20
19.9222709301408
 30
0.0
 10
198.7805032885539
 20
20.39418874386222
 30
0.0
 10
198.8925969995074
 20
21.2413217006475
 30
0.0
 10
198.953666677769
 20
21.61875995201599
 30
0.0
 10
199.0804116887258
 20
22.25032082244142
 30
0.0
 10
199.1464959697877
 20
22.50866068329507
 30
0.0
 10
199.2498913658237
 20
22.80843201925709
 30
0.0
 10
199.285201305753
 20
22.89381901704796
 30
0.0
 10
199.3565444394613
 20
23.03192514568496
 30
0.0
 10
199.3925923319245
 20
23.0848335920926
 30
0.0
 10
199.4290325758386
 20
23.12113171986571
 30
0.0
  0
ARC
  5
DA
330
1F
100
AcDbEntity
  8
0
  6
HIDDEN
 62
     7
370
    18
100
AcDbCircle
 10
207.2708747083
 20
14.2568940493
 30
0.0
 40
7.256894049339245
100
AcDbArc
 50
339.5059022336
 51
200.4940977665
  0
ARC
  5
DB
330
1F
100
AcDbEntity
  8
0
  6
HIDDEN
 62
     7
370
    18
100
AcDbCircle
 10
236.2984509057
 20
14.2568940493
 30
0.0
 40
7.256894049338212
100
AcDbArc
 50
339.5059022336
 51
200.4940977664
  0
ARC
  5
DC
330
1F
100
AcDbEntity
  8
0
  6
HIDDEN
 62
     7
370
    18
100
AcDbCircle
 10
207.2708747083
 20
99.7431059507
 30
0.0
 40
7.256894049339272
100
AcDbArc
 50
159.5059022336
 51
20.4940977665
  0
ARC
  5
DD
330
1F
100
AcDbEntity
  8
0
  6
HIDDEN
 62
     7
370
    18
100
AcDbCircle
 10
236.2984509057
 20
99.7431059507
 30
0.0
 40
7.256894049339139
100
AcDbArc
 50
159.5059022336
 51
20.4940977665
  0
LINE
  5
DE
330
1F
100
AcDbEntity
  8
0
  6
HIDDEN
 62
     7
370
    18
100
AcDbLine
 10
198.3874690409
 20
22.0826813989
 30
0.0
 11
198.3874690409
 21
11.716176418
 31
0.0
  0
LINE
  5
DF
330
1F
100
AcDbEntity
  8
0
  6
HIDDEN
 62
     7
370
    18
100
AcDbLine
 10
198.3874690409
 20
102.283823582
 30
0.0
 11
198.3874690409
 21
91.9173186011
 31
0.0
  0
LINE
  5
E0
330
1F
100
AcDbEntity
  8
0
  6
HIDDEN
 62
     7
370
    18
100
AcDbLine
 10
198.3874690409
 20
91.9173186011
 30
0.0
 11
198.3874690409
 21
22.0826813989
 31
0.0
  0
LINE
  5
E1
330
1F
100
AcDbEntity
  8
0
  6
HIDDEN
 62
     7
370
    18
100
AcDbLine
 10
247.6125271429
 20
91.9173186011
 30
0.0
 11
247.6125271429
 21
102.283823582
 31
0.0
  0
LINE
  5
E2
330
1F
100
AcDbEntity
  8
0
  6
HIDDEN
 62
     7
370
    18
100
AcDbLine
 10
247.6125271429
 20
11.716176418
 30
0.0
 11
247.6125271429
 21
22.0826813989
 31
0.0
  0
LINE
  5
E3
330
1F
100
AcDbEntity
  8
0
  6
HIDDEN
 62
     7
370
    18
100
AcDbLine
 10
247.6125271429
 20
22.0826813989
 30
0.0
 11
247.6125271429
 21
91.9173186011
 31
0.0
  0
SPLINE
  5
E4
330
1F
100
AcDbEntity
  8
0
  6
HIDDEN
 62
     7
370
    18
100
AcDbSpline
210
0.0
220
0.0
230
1.0
 70
    24
 71
     3
 72
     9
 73
     5
 74
     0
 42
0.00000001
 43
0.00000001
 40
0.7470633879072124
 40
0.7470633879072124
 40
0.7470633879072124
 40
0.7470633879072124
 40
0.862852281381471
 40
1.0
 40
1.0
 40
1.0
 40
1.0
 10
204.8056320157464
 20
85.49930634754625
 30
0.0
 10
204.9177856835527
 20
85.38715208660143
 30
0.0
 10
205.0720188814189
 20
85.23291807305411
 30
0.0
 10
205.0754697900204
 20
85.22946714620076
 30
0.0
 10
205.0754697900204
 20
85.22946714620076
 30
0.0
  0
SPLINE
  5
E5
330
1F
100
AcDbEntity
  8
0
  6
HIDDEN
 62
     7
370
    18
100
AcDbSpline
210
0.0
220
0.0
230
1.0
 70
     8
 71
     3
 72
    14
 73
    10
 74
     0
 42
0.00000001
 43
0.00000001
 40
0.0
 40
0.0
 40
0.0
 40
0.0
 40
0.2500000000000001
 40
0.2500000000000001
 40
0.5
 40
0.5
 40
0.75
 40
0.75
 40
1.0
 40
1.0
 40
1.0
 40
1.0
 10
199.4290322269994
 20
90.87883550029612
 30
0.0
 10
200.1159819862649
 20
90.19156662530253
 30
0.0
 10
200.7543572266209
 20
89.55289233637073
 30
0.0
 10
201.9242448964199
 20
88.38244052100032
 30
0.0
 10
202.4574269326129
 20
87.84899334935307
 30
0.0
 10
203.390650191022
 20
86.91526730903472
 30
0.0
 10
203.7901266604223
 20
86.51555323309896
 30
0.0
 10
204.4214321134113
 20
85.88379098051747
 30
0.0
 10
204.6530522712658
 20
85.65195147009159
 30
0.0
 10
204.8056320157463
 20
85.49915580372415
 30
0.0
  0
SPLINE
  5
E6
330
1F
100
AcDbEntity
  8
0
  6
HIDDEN
 62
     7
370
    18
100
AcDbSpline
210
0.0
220
0.0
230
1.0
 70
    24
 71
     3
 72
     9
 73
     5
 74
     0
 42
0.00000001
 43
0.00000001
 40
0.116964744148817
 40
0.116964744148817
 40
0.116964744148817
 40
0.116964744148817
 40
0.495408425227895
 40
0.7471172888402514
 40
0.7471172888402514
 40
0.7471172888402514
 40
0.7471172888402514
 10
246.5740440421307
 20
90.87883550029608
 30
0.0
 10
244.9305994848376
 20
89.23539094300142
 30
0.0
 10
242.5881216811503
 20
86.89291313931571
 30
0.0
 10
241.4375877733143
 20
85.74237923147966
 30
0.0
 10
241.1943642482716
 20
85.49915570643691
 30
0.0
  0
SPLINE
  5
E7
330
1F
100
AcDbEntity
  8
0
  6
HIDDEN
 62
     7
370
    18
100
AcDbSpline
210
0.0
220
0.0
230
1.0
 70
    24
 71
     3
 72
     9
 73
     5
 74
     0
 42
0.00000001
 43
0.00000001
 40
0.74711728884024
 40
0.74711728884024
 40
0.74711728884024
 40
0.74711728884024
 40
0.747704212613948
 40
1.0
 40
1.0
 40
1.0
 40
1.0
 10
241.1943642482716
 20
85.49915570643692
 30
0.0
 10
241.1937971102411
 20
85.49858856840642
 30
0.0
 10
240.9499461304254
 20
85.2547375885907
 30
0.0
 10
240.9245263937941
 20
85.22931785195935
 30
0.0
 10
240.9245263937941
 20
85.22931785195935
 30
0.0
  0
SPLINE
  5
E8
330
1F
100
AcDbEntity
  8
0
  6
HIDDEN
 62
     7
370
    18
100
AcDbSpline
210
0.0
220
0.0
230
1.0
 70
    24
 71
     3
 72
     9
 73
     5
 74
     0
 42
0.00000001
 43
0.00000001
 40
0.116964744148817
 40
0.116964744148817
 40
0.116964744148817
 40
0.116964744148817
 40
0.495408425227896
 40
0.7471151761964144
 40
0.7471151761964144
 40
0.7471151761964144
 40
0.7471151761964144
 10
199.4259521416852
 20
23.12116449970394
 30
0.0
 10
201.0693966989784
 20
24.76460905699857
 30
0.0
 10
203.4118389200948
 20
27.10705127811353
 30
0.0
 10
204.5624045977345
 20
28.25761695575429
 30
0.0
 10
204.8056319381126
 20
28.50084429613262
 30
0.0
  0
SPLINE
  5
E9
330
1F
100
AcDbEntity
  8
0
  6
HIDDEN
 62
     7
370
    18
100
AcDbSpline
210
0.0
220
0.0
230
1.0
 70
    24
 71
     3
 72
     9
 73
     5
 74
     0
 42
0.00000001
 43
0.00000001
 40
0.7471151761964144
 40
0.7471151761964144
 40
0.7471151761964144
 40
0.7471151761964144
 40
0.747704212613948
 40
1.0
 40
1.0
 40
1.0
 40
1.0
 10
204.8056319381126
 20
28.50084429613262
 30
0.0
 10
204.8062011312736
 20
28.50141348929359
 30
0.0
 10
205.0500581841652
 20
28.74527054218539
 30
0.0
 10
205.0754697900204
 20
28.77068214804066
 30
0.0
 10
205.0754697900204
 20
28.77068214804066
 30
0.0
  0
SPLINE
  5
EA
330
1F
100
AcDbEntity
  8
0
  6
HIDDEN
 62
     7
370
    18
100
AcDbSpline
210
0.0
220
0.0
230
1.0
 70
    24
 71
     3
 72
     9
 73
     5
 74
     0
 42
0.00000001
 43
0.00000001
 40
0.7478546116815842
 40
0.7478546116815842
 40
0.7478546116815842
 40
0.7478546116815842
 40
0.862852281381471
 40
1.0
 40
1.0
 40
1.0
 40
1.0
 10
241.1943651735952
 20
28.50084419627575
 30
0.0
 10
241.0820643968533
 20
28.61314496975476
 30
0.0
 10
240.9214039762831
 20
28.77380538565672
 30
0.0
 10
240.9245263937941
 20
28.77068296823593
 30
0.0
 10
240.9245263937941
 20
28.77068296823593
 30
0.0
  0
SPLINE
  5
EB
330
1F
100
AcDbEntity
  8
0
  6
HIDDEN
 62
     7
370
    18
100
AcDbSpline
210
0.0
220
0.0
230
1.0
 70
     8
 71
     3
 72
    14
 73
    10
 74
     0
 42
0.00000001
 43
0.00000001
 40
0.0
 40
0.0
 40
0.0
 40
0.0
 40
0.25
 40
0.25
 40
0.5
 40
0.5
 40
0.75
 40
0.75
 40
1.0
 40
1.0
 40
1.0
 40
1.0
 10
246.5713530177132
 20
23.12116449970388
 30
0.0
 10
245.883996831142
 20
23.8087996219491
 30
0.0
 10
245.2455536026767
 20
24.4475042196902
 30
0.0
 10
244.0741929249544
 20
25.61935802784325
 30
0.0
 10
243.5391775668918
 20
26.15460518888176
 30
0.0
 10
242.6032900450039
 20
27.09093218054109
 30
0.0
 10
242.203123732807
 20
27.49130611605041
 30
0.0
 10
241.5758277205836
 20
28.11900123186584
 30
0.0
 10
241.3483893195494
 20
28.34663132814201
 30
0.0
 10
241.1943651735952
 20
28.50084419627573
 30
0.0
  0
LINE
  5
EC
330
1F
100
AcDbEntity
  8
0
  6
HIDDEN
 62
     7
370
    18
100
AcDbLine
 10
240.9245263938
 20
28.770682148
 30
0.0
 11
205.07546979
 21
28.770682148
 31
0.0
  0
LINE
  5
ED
330
1F
100
AcDbEntity
  8
0
  6
HIDDEN
 62
     7
370
    18
100
AcDbLine
 10
205.07546979
 20
85.229317852
 30
0.0
 11
240.9245263938
 21
85.229317852
 31
0.0
  0
LINE
  5
EE
330
1F
100
AcDbEntity
  8
0
  6
HIDDEN
 62
     7
370
    18
100
AcDbLine
 10
205.07546979
 20
28.770682148
 30
0.0
 11
205.07546979
 21
85.229317852
 31
0.0
  0
LINE
  5
EF
330
1F
100
AcDbEntity
  8
0
  6
HIDDEN
 62
     7
370
    18
100
AcDbLine
 10
240.9245263938
 20
85.229317852
 30
0.0
 11
240.9245263938
 21
28.770682148
 31
0.0
  0
INSERT
  5
FB
330
1F
100
AcDbEntity
  8
10
100
AcDbBlockReference
  2
SW_CENTERMARKSYMBOL_0
 10
207.2708747083
 20
99.7431059507
 30
0.0
  0
INSERT
  5
107
330
1F
100
AcDbEntity
  8
10
100
AcDbBlockReference
  2
SW_CENTERMARKSYMBOL_1
 10
236.2984509057
 20
99.7431059507
 30
0.0
  0
INSERT
  5
113
330
1F
100
AcDbEntity
  8
10
100
AcDbBlockReference
  2
SW_CENTERMARKSYMBOL_2
 10
222.9999980919
 20
57.0
 30
0.0
  0
INSERT
  5
11F
330
1F
100
AcDbEntity
  8
10
100
AcDbBlockReference
  2
SW_CENTERMARKSYMBOL_3
 10
236.2984509057
 20
14.2568940493
 30
0.0
  0
INSERT
  5
12B
330
1F
100
AcDbEntity
  8
10
100
AcDbBlockReference
  2
SW_CENTERMARKSYMBOL_4
 10
207.2708747083
 20
14.2568940493
 30
0.0
  0
ENDSEC
  0
SECTION
  2
OBJECTS
  0
DICTIONARY
  5
C
330
0
100
AcDbDictionary
281
     1
  3
ACAD_GROUP
350
D
  3
ACAD_LAYOUT
350
1A
  3
ACAD_MLINESTYLE
350
17
  3
ACAD_PLOTSETTINGS
350
19
  3
ACAD_PLOTSTYLENAME
350
E
  3
ACAD_SCALELIST
350
47
  3
DWGPROPS
350
12C
  0
DICTIONARY
  5
D
102
{ACAD_REACTORS
330
C
102
}
330
C
100
AcDbDictionary
281
     1
  0
DICTIONARY
  5
1A
102
{ACAD_REACTORS
330
C
102
}
330
C
100
AcDbDictionary
281
     1
  3
Layout1
350
1E
  3
Layout2
350
26
  3
Model
350
22
  0
DICTIONARY
  5
17
102
{ACAD_REACTORS
330
C
102
}
330
C
100
AcDbDictionary
281
     1
  3
Standard
350
18
  0
DICTIONARY
  5
19
102
{ACAD_REACTORS
330
C
102
}
330
C
100
AcDbDictionary
281
     1
  0
ACDBDICTIONARYWDFLT
  5
E
102
{ACAD_REACTORS
330
C
102
}
330
C
100
AcDbDictionary
281
     1
  3
Normal
350
F
100
AcDbDictionaryWithDefault
340
F
  0
DICTIONARY
  5
47
102
{ACAD_REACTORS
330
C
102
}
330
C
100
AcDbDictionary
281
     1
  3
A0
350
48
  3
A1
350
49
  3
A2
350
4A
  3
A3
350
4B
  3
A4
350
4C
  3
A5
350
4D
  3
A6
350
4E
  3
A7
350
4F
  3
A8
350
50
  3
A9
350
51
  3
B0
350
52
  3
B1
350
53
  3
B2
350
54
  3
B3
350
55
  3
B4
350
56
  3
B5
350
57
  3
B6
350
58
  0
XRECORD
  5
12C
102
{ACAD_REACTORS
330
C
102
}
330
C
100
AcDbXrecord
280
     1
  1
DWGPROPS COOKIE
  2

  3

  4

  6

  7

  8

  9

300
=
301
=
302
=
303
=
304
=
305
=
306
=
307
=
308
=
309
=
 40
0.0
 41
2461215.10844654
 42
2461215.108447026
  1

 90
        0
  0
LAYOUT
  5
1E
102
{ACAD_REACTORS
330
1A
102
}
330
1A
100
AcDbPlotSettings
  1

  2
none_device
  4

  6

 40
0.0
 41
0.0
 42
0.0
 43
0.0
 44
0.0
 45
0.0
 46
0.0
 47
0.0
 48
0.0
 49
0.0
140
0.0
141
0.0
142
1.0
143
1.0
 70
   688
 72
     1
 73
     0
 74
     5
  7

 75
    16
147
1.0
148
0.0
149
0.0
100
AcDbLayout
  1
Layout1
 70
     1
 71
     1
 10
0.0
 20
0.0
 11
420.0
 21
297.0
 12
0.0
 22
0.0
 32
0.0
 14
1.0000000000E+20
 24
1.0000000000E+20
 34
1.0000000000E+20
 15
-1.0000000000E+20
 25
-1.0000000000E+20
 35
-1.0000000000E+20
146
0.0
 13
0.0
 23
0.0
 33
0.0
 16
1.0
 26
0.0
 36
0.0
 17
0.0
 27
1.0
 37
0.0
 76
     0
330
1B
  0
LAYOUT
  5
26
102
{ACAD_REACTORS
330
1A
102
}
330
1A
100
AcDbPlotSettings
  1

  2
none_device
  4

  6

 40
0.0
 41
0.0
 42
0.0
 43
0.0
 44
0.0
 45
0.0
 46
0.0
 47
0.0
 48
0.0
 49
0.0
140
0.0
141
0.0
142
1.0
143
1.0
 70
   688
 72
     1
 73
     0
 74
     5
  7

 75
    16
147
1.0
148
0.0
149
0.0
100
AcDbLayout
  1
Layout2
 70
     1
 71
     2
 10
0.0
 20
0.0
 11
0.0
 21
0.0
 12
0.0
 22
0.0
 32
0.0
 14
0.0
 24
0.0
 34
0.0
 15
0.0
 25
0.0
 35
0.0
146
0.0
 13
0.0
 23
0.0
 33
0.0
 16
1.0
 26
0.0
 36
0.0
 17
0.0
 27
1.0
 37
0.0
 76
     0
330
23
  0
LAYOUT
  5
22
102
{ACAD_REACTORS
330
1A
102
}
330
1A
100
AcDbPlotSettings
  1

  2
none_device
  4
Letter_(8.50_x_11.00_Inches)
  6

 40
6.35
 41
6.35
 42
6.35000508
 43
6.35000508
 44
215.9
 45
279.4
 46
0.0
 47
0.0
 48
0.0
 49
0.0
140
0.0
141
0.0
142
1.0
143
1.0
 70
  1712
 72
     1
 73
     0
 74
     0
  7

 75
     0
147
1.0
148
0.0
149
0.0
100
AcDbLayout
  1
Model
 70
     1
 71
     0
 10
0.0
 20
0.0
 11
297.0
 21
210.0
 12
0.0
 22
0.0
 32
0.0
 14
0.0
 24
0.0
 34
0.0
 15
297.0
 25
210.0
 35
0.0
146
0.0
 13
0.0
 23
0.0
 33
0.0
 16
1.0
 26
0.0
 36
0.0
 17
0.0
 27
1.0
 37
0.0
 76
     0
330
1F
331
29
  0
MLINESTYLE
  5
18
102
{ACAD_REACTORS
330
17
102
}
330
17
100
AcDbMlineStyle
  2
Standard
 70
     0
  3

 62
   256
 51
90.0
 52
90.0
 71
     2
 49
0.5
 62
   256
  6
BYLAYER
 49
-0.5
 62
   256
  6
BYLAYER
  0
ACDBPLACEHOLDER
  5
F
102
{ACAD_REACTORS
330
E
102
}
330
E
  0
SCALE
  5
48
102
{ACAD_REACTORS
330
47
102
}
330
47
100
AcDbScale
 70
     0
300
1:1
140
1.0
141
1.0
290
     1
  0
SCALE
  5
49
102
{ACAD_REACTORS
330
47
102
}
330
47
100
AcDbScale
 70
     0
300
1:2
140
1.0
141
2.0
290
     0
  0
SCALE
  5
4A
102
{ACAD_REACTORS
330
47
102
}
330
47
100
AcDbScale
 70
     0
300
1:4
140
1.0
141
4.0
290
     0
  0
SCALE
  5
4B
102
{ACAD_REACTORS
330
47
102
}
330
47
100
AcDbScale
 70
     0
300
1:5
140
1.0
141
5.0
290
     0
  0
SCALE
  5
4C
102
{ACAD_REACTORS
330
47
102
}
330
47
100
AcDbScale
 70
     0
300
1:8
140
1.0
141
8.0
290
     0
  0
SCALE
  5
4D
102
{ACAD_REACTORS
330
47
102
}
330
47
100
AcDbScale
 70
     0
300
1:10
140
1.0
141
10.0
290
     0
  0
SCALE
  5
4E
102
{ACAD_REACTORS
330
47
102
}
330
47
100
AcDbScale
 70
     0
300
1:16
140
1.0
141
16.0
290
     0
  0
SCALE
  5
4F
102
{ACAD_REACTORS
330
47
102
}
330
47
100
AcDbScale
 70
     0
300
1:20
140
1.0
141
20.0
290
     0
  0
SCALE
  5
50
102
{ACAD_REACTORS
330
47
102
}
330
47
100
AcDbScale
 70
     0
300
1:30
140
1.0
141
30.0
290
     0
  0
SCALE
  5
51
102
{ACAD_REACTORS
330
47
102
}
330
47
100
AcDbScale
 70
     0
300
1:40
140
1.0
141
40.0
290
     0
  0
SCALE
  5
52
102
{ACAD_REACTORS
330
47
102
}
330
47
100
AcDbScale
 70
     0
300
1:50
140
1.0
141
50.0
290
     0
  0
SCALE
  5
53
102
{ACAD_REACTORS
330
47
102
}
330
47
100
AcDbScale
 70
     0
300
1:100
140
1.0
141
100.0
290
     0
  0
SCALE
  5
54
102
{ACAD_REACTORS
330
47
102
}
330
47
100
AcDbScale
 70
     0
300
2:1
140
2.0
141
1.0
290
     0
  0
SCALE
  5
55
102
{ACAD_REACTORS
330
47
102
}
330
47
100
AcDbScale
 70
     0
300
4:1
140
4.0
141
1.0
290
     0
  0
SCALE
  5
56
102
{ACAD_REACTORS
330
47
102
}
330
47
100
AcDbScale
 70
     0
300
8:1
140
8.0
141
1.0
290
     0
  0
SCALE
  5
57
102
{ACAD_REACTORS
330
47
102
}
330
47
100
AcDbScale
 70
     0
300
10:1
140
10.0
141
1.0
290
     0
  0
SCALE
  5
58
102
{ACAD_REACTORS
330
47
102
}
330
47
100
AcDbScale
 70
     0
300
100:1
140
100.0
141
1.0
290
     0
  0
ENDSEC
  0
EOF
