  0
SECTION
  2
HEADER
  9
$ACADVER
  1
AC1015
  9
$ACADMAINTVER
 70
     6
  9
$DWGCODEPAGE
  3
ANSI_936
  9
$INSBASE
 10
0.0
 20
0.0
 30
0.0
  9
$EXTMIN
 10
0.0
 20
0.0
 30
0.0
  9
$EXTMAX
 10
297.0
 20
210.0
 30
0.0
  9
$LIMMIN
 10
0.0
 20
0.0
  9
$LIMMAX
 10
297.0
 20
210.0
  9
$ORTHOMODE
 70
     0
  9
$REGENMODE
 70
     1
  9
$FILLMODE
 70
     1
  9
$QTEXTMODE
 70
     0
  9
$MIRRTEXT
 70
     1
  9
$LTSCALE
 40
1.0
  9
$ATTMODE
 70
     1
  9
$TEXTSIZE
 40
3.5
  9
$TRACEWID
 40
1.0
  9
$TEXTSTYLE
  7
Standard
  9
$CLAYER
  8
0
  9
$CELTYPE
  6
ByLayer
  9
$CECOLOR
 62
   256
  9
$CELTSCALE
 40
1.0
  9
$DISPSILH
 70
     0
  9
$DIMSCALE
 40
1.0
  9
$DIMASZ
 40
4.08
  9
$DIMEXO
 40
0.0
  9
$DIMDLI
 40
3.75
  9
$DIMRND
 40
0.0
  9
$DIMDLE
 40
0.0
  9
$DIMEXE
 40
2.0
  9
$DIMTP
 40
0.0
  9
$DIMTM
 40
0.0
  9
$DIMTXT
 40
3.5
  9
$DIMCEN
 40
2.5
  9
$DIMTSZ
 40
0.0
  9
$DIMTOL
 70
     0
  9
$DIMLIM
 70
     0
  9
$DIMTIH
 70
     1
  9
$DIMTOH
 70
     1
  9
$DIMSE1
 70
     0
  9
$DIMSE2
 70
     0
  9
$DIMTAD
 70
     1
  9
$DIMZIN
 70
     0
  9
$DIMBLK
  1

  9
$DIMASO
 70
     1
  9
$DIMSHO
 70
     1
  9
$DIMPOST
  1

  9
$DIMAPOST
  1

  9
$DIMALT
 70
     0
  9
$DIMALTD
 70
     3
  9
$DIMALTF
 40
0.0393700787
  9
$DIMLFAC
 40
2.0
  9
$DIMTOFL
 70
     1
  9
$DIMTVP
 40
0.0
  9
$DIMTIX
 70
     0
  9
$DIMSOXD
 70
     0
  9
$DIMSAH
 70
     0
  9
$DIMBLK1
  1

  9
$DIMBLK2
  1

  9
$DIMSTYLE
  2
ISO-25
  9
$DIMCLRD
 70
     0
  9
$DIMCLRE
 70
     0
  9
$DIMCLRT
 70
     0
  9
$DIMTFAC
 40
1.0
  9
$DIMGAP
 40
1.524
  9
$DIMJUST
 70
     0
  9
$DIMSD1
 70
     0
  9
$DIMSD2
 70
     0
  9
$DIMTOLJ
 70
     0
  9
$DIMTZIN
 70
     0
  9
$DIMALTZ
 70
     0
  9
$DIMALTTZ
 70
     0
  9
$DIMUPT
 70
     0
  9
$DIMDEC
 70
     2
  9
$DIMTDEC
 70
     2
  9
$DIMALTU
 70
     2
  9
$DIMALTTD
 70
     3
  9
$DIMTXSTY
  7
Standard
  9
$DIMAUNIT
 70
     0
  9
$DIMADEC
 70
     2
  9
$DIMALTRND
 40
0.0
  9
$DIMAZIN
 70
     0
  9
$DIMDSEP
 70
    44
  9
$DIMATFIT
 70
     3
  9
$DIMFRAC
 70
     0
  9
$DIMLDRBLK
  1

  9
$DIMLUNIT
 70
     2
  9
$DIMLWD
 70
    -2
  9
$DIMLWE
 70
    -2
  9
$DIMTMOVE
 70
     0
  9
$LUNITS
 70
     2
  9
$LUPREC
 70
     2
  9
$SKETCHINC
 40
1.0
  9
$FILLETRAD
 40
0.0
  9
$AUNITS
 70
     0
  9
$AUPREC
 70
     2
  9
$MENU
  1
.
  9
$ELEVATION
 40
0.0
  9
$PELEVATION
 40
0.0
  9
$THICKNESS
 40
0.0
  9
$LIMCHECK
 70
     0
  9
$CHAMFERA
 40
0.0
  9
$CHAMFERB
 40
0.0
  9
$CHAMFERC
 40
0.0
  9
$CHAMFERD
 40
0.0
  9
$SKPOLY
 70
     0
  9
$TDCREATE
 40
2461215.444380996
  9
$TDUCREATE
 40
2461215.111047662
  9
$TDUPDATE
 40
2461215.444381412
  9
$TDUUPDATE
 40
2461215.111048079
  9
$TDINDWG
 40
0.0000000116
  9
$TDUSRTIMER
 40
0.0000000116
  9
$USRTIMER
 70
     1
  9
$ANGBASE
 50
0.0
  9
$ANGDIR
 70
     0
  9
$PDMODE
 70
     0
  9
$PDSIZE
 40
-1.0
  9
$PLINEWID
 40
0.0
  9
$SPLFRAME
 70
     0
  9
$SPLINETYPE
 70
     6
  9
$SPLINESEGS
 70
     8
  9
$HANDSEED
  5
EB
  9
$SURFTAB1
 70
     6
  9
$SURFTAB2
 70
     6
  9
$SURFTYPE
 70
     6
  9
$SURFU
 70
     6
  9
$SURFV
 70
     6
  9
$UCSBASE
  2

  9
$UCSNAME
  2

  9
$UCSORG
 10
0.0
 20
0.0
 30
0.0
  9
$UCSXDIR
 10
1.0
 20
0.0
 30
0.0
  9
$UCSYDIR
 10
0.0
 20
1.0
 30
0.0
  9
$UCSORTHOREF
  2

  9
$UCSORTHOVIEW
 70
     0
  9
$UCSORGTOP
 10
0.0
 20
0.0
 30
0.0
  9
$UCSORGBOTTOM
 10
0.0
 20
0.0
 30
0.0
  9
$UCSORGLEFT
 10
0.0
 20
0.0
 30
0.0
  9
$UCSORGRIGHT
 10
0.0
 20
0.0
 30
0.0
  9
$UCSORGFRONT
 10
0.0
 20
0.0
 30
0.0
  9
$UCSORGBACK
 10
0.0
 20
0.0
 30
0.0
  9
$PUCSBASE
  2

  9
$PUCSNAME
  2

  9
$PUCSORG
 10
0.0
 20
0.0
 30
0.0
  9
$PUCSXDIR
 10
1.0
 20
0.0
 30
0.0
  9
$PUCSYDIR
 10
0.0
 20
1.0
 30
0.0
  9
$PUCSORTHOREF
  2

  9
$PUCSORTHOVIEW
 70
     0
  9
$PUCSORGTOP
 10
0.0
 20
0.0
 30
0.0
  9
$PUCSORGBOTTOM
 10
0.0
 20
0.0
 30
0.0
  9
$PUCSORGLEFT
 10
0.0
 20
0.0
 30
0.0
  9
$PUCSORGRIGHT
 10
0.0
 20
0.0
 30
0.0
  9
$PUCSORGFRONT
 10
0.0
 20
0.0
 30
0.0
  9
$PUCSORGBACK
 10
0.0
 20
0.0
 30
0.0
  9
$USERI1
 70
     0
  9
$USERI2
 70
     0
  9
$USERI3
 70
     0
  9
$USERI4
 70
     0
  9
$USERI5
 70
     0
  9
$USERR1
 40
0.0
  9
$USERR2
 40
0.0
  9
$USERR3
 40
0.0
  9
$USERR4
 40
0.0
  9
$USERR5
 40
0.0
  9
$WORLDVIEW
 70
     1
  9
$SHADEDGE
 70
     3
  9
$SHADEDIF
 70
    70
  9
$TILEMODE
 70
     1
  9
$MAXACTVP
 70
    64
  9
$PINSBASE
 10
0.0
 20
0.0
 30
0.0
  9
$PLIMCHECK
 70
     0
  9
$PEXTMIN
 10
1.0000000000E+20
 20
1.0000000000E+20
 30
1.0000000000E+20
  9
$PEXTMAX
 10
-1.0000000000E+20
 20
-1.0000000000E+20
 30
-1.0000000000E+20
  9
$PLIMMIN
 10
0.0
 20
0.0
  9
$PLIMMAX
 10
420.0
 20
297.0
  9
$UNITMODE
 70
     0
  9
$VISRETAIN
 70
     1
  9
$PLINEGEN
 70
     0
  9
$PSLTSCALE
 70
     1
  9
$TREEDEPTH
 70
  3020
  9
$CMLSTYLE
  2
Standard
  9
$CMLJUST
 70
     0
  9
$CMLSCALE
 40
20.0
  9
$PROXYGRAPHICS
 70
     1
  9
$MEASUREMENT
 70
     1
  9
$CELWEIGHT
370
    -1
  9
$ENDCAPS
280
     0
  9
$JOINSTYLE
280
     0
  9
$LWDISPLAY
290
     1
  9
$INSUNITS
 70
     4
  9
$HYPERLINKBASE
  1

  9
$STYLESHEET
  1

  9
$XEDIT
290
     1
  9
$CEPSNTYPE
380
     0
  9
$PSTYLEMODE
290
     1
  9
$FINGERPRINTGUID
  2
{73eaea94-9f76-45f9-9e8d-1abaf8e242a8}
  9
$VERSIONGUID
  2
{FAEB1C32-E019-11D5-929B-00C0DF256EC4}
  9
$EXTNAMES
290
     1
  9
$PSVPSCALE
 40
0.0
  9
$OLESTARTUP
290
     0
  0
ENDSEC
  0
SECTION
  2
CLASSES
  0
CLASS
  1
ACDBDICTIONARYWDFLT
  2
AcDbDictionaryWithDefault
  3
ObjectDBX Classes
 90
        0
280
     0
281
     0
  0
CLASS
  1
VISUALSTYLE
  2
AcDbVisualStyle
  3
ObjectDBX Classes
 90
     4095
280
     0
281
     0
  0
CLASS
  1
MATERIAL
  2
AcDbMaterial
  3
ObjectDBX Classes
 90
     1153
280
     0
281
     0
  0
CLASS
  1
SCALE
  2
AcDbScale
  3
ObjectDBX Classes
 90
     1153
280
     0
281
     0
  0
CLASS
  1
TABLESTYLE
  2
AcDbTableStyle
  3
ObjectDBX Classes
 90
     4095
280
     0
281
     0
  0
CLASS
  1
MLEADERSTYLE
  2
AcDbMLeaderStyle
  3
ACDB_MLEADERSTYLE_CLASS
 90
     4095
280
     0
281
     0
  0
CLASS
  1
SUN
  2
AcDbSun
  3
SCENEOE
 90
     1153
280
     0
281
     0
  0
CLASS
  1
ACDBPLACEHOLDER
  2
AcDbPlaceHolder
  3
ObjectDBX Classes
 90
        0
280
     0
281
     0
  0
CLASS
  1
LAYOUT
  2
AcDbLayout
  3
ObjectDBX Classes
 90
        0
280
     0
281
     0
  0
ENDSEC
  0
SECTION
  2
TABLES
  0
TABLE
  2
VPORT
  5
8
330
0
100
AcDbSymbolTable
 70
     1
  0
VPORT
  5
29
330
8
100
AcDbSymbolTableRecord
100
AcDbViewportTableRecord
  2
*Active
 70
     0
 10
0.0
 20
0.0
 11
1.0
 21
1.0
 12
148.5
 22
105.0
 13
0.0
 23
0.0
 14
10.0
 24
10.0
 15
10.0
 25
10.0
 16
0.0
 26
0.0
 36
1.0
 17
0.0
 27
0.0
 37
0.0
 40
210.0
 41
1.4142857143
 42
50.0
 43
0.0
 44
0.0
 50
0.0
 51
0.0
 71
     0
 72
  2000
 73
     1
 74
     3
 75
     0
 76
     0
 77
     0
 78
     0
281
     0
 65
     1
110
0.0
120
0.0
130
0.0
111
1.0
121
0.0
131
0.0
112
0.0
122
1.0
132
0.0
 79
     0
146
0.0
  0
ENDTAB
  0
TABLE
  2
LTYPE
  5
5
330
0
100
AcDbSymbolTable
 70
     6
  0
LTYPE
  5
14
330
5
100
AcDbSymbolTableRecord
100
AcDbLinetypeTableRecord
  2
ByBlock
 70
     0
  3

 72
    65
 73
     0
 40
0.0
  0
LTYPE
  5
15
330
5
100
AcDbSymbolTableRecord
100
AcDbLinetypeTableRecord
  2
ByLayer
 70
     0
  3

 72
    65
 73
     0
 40
0.0
  0
LTYPE
  5
16
330
5
100
AcDbSymbolTableRecord
100
AcDbLinetypeTableRecord
  2
Continuous
 70
     0
  3
Solid line
 72
    65
 73
     0
 40
0.0
  0
LTYPE
  5
5E
330
5
100
AcDbSymbolTableRecord
100
AcDbLinetypeTableRecord
  2
HIDDEN
 70
     0
  3
Hidden __ __ __ __ __ __ __ __ __ __ __ __ __ __
 72
    65
 73
     2
 40
1.905
 49
1.27
 74
     0
 49
-0.635
 74
     0
  0
LTYPE
  5
5F
330
5
100
AcDbSymbolTableRecord
100
AcDbLinetypeTableRecord
  2
PHANTOM
 70
     0
  3
Phantom ______  __  __  ______  __  __  ______
 72
    65
 73
     6
 40
12.7
 49
6.35
 74
     0
 49
-1.27
 74
     0
 49
1.27
 74
     0
 49
-1.27
 74
     0
 49
1.27
 74
     0
 49
-1.27
 74
     0
  0
LTYPE
  5
60
330
5
100
AcDbSymbolTableRecord
100
AcDbLinetypeTableRecord
  2
CENTER
 70
     0
  3
Center ____ _ ____ _ ____ _ ____ _ ____ _ ____
 72
    65
 73
     4
 40
10.16
 49
6.35
 74
     0
 49
-1.27
 74
     0
 49
1.27
 74
     0
 49
-1.27
 74
     0
  0
LTYPE
  5
61
330
5
100
AcDbSymbolTableRecord
100
AcDbLinetypeTableRecord
  2
CENTERX2
 70
     0
  3
Center (2x) ________  __  ________  __  _____
 72
    65
 73
     4
 40
20.32
 49
12.7
 74
     0
 49
-2.54
 74
     0
 49
2.54
 74
     0
 49
-2.54
 74
     0
  0
LTYPE
  5
62
330
5
100
AcDbSymbolTableRecord
100
AcDbLinetypeTableRecord
  2
DOT2
 70
     0
  3
Dot (.5x) ........................................
 72
    65
 73
     2
 40
0.635
 49
0.0
 74
     0
 49
-0.635
 74
     0
  0
ENDTAB
  0
TABLE
  2
LAYER
  5
2
330
0
100
AcDbSymbolTable
 70
    14
  0
LAYER
  5
10
330
2
100
AcDbSymbolTableRecord
100
AcDbLayerTableRecord
  2
0
 70
     0
 62
     7
  6
Continuous
370
    -3
390
F
  0
LAYER
  5
63
330
2
100
AcDbSymbolTableRecord
100
AcDbLayerTableRecord
  2
SLD-0
 70
     0
 62
     7
  6
Continuous
370
    -3
390
F
  0
LAYER
  5
64
330
2
100
AcDbSymbolTableRecord
100
AcDbLayerTableRecord
  2
5
 70
     0
 62
     7
  6
Continuous
370
    -3
390
F
  0
LAYER
  5
65
330
2
100
AcDbSymbolTableRecord
100
AcDbLayerTableRecord
  2
9
 70
     0
 62
     7
  6
Continuous
370
    -3
390
F
  0
LAYER
  5
66
330
2
100
AcDbSymbolTableRecord
100
AcDbLayerTableRecord
  2
10
 70
     0
 62
     7
  6
Continuous
370
    -3
390
F
  0
LAYER
  5
67
330
2
100
AcDbSymbolTableRecord
100
AcDbLayerTableRecord
  2
轮廓实线层
 70
     0
 62
     7
  6
Continuous
370
    50
390
F
  0
LAYER
  5
68
330
2
100
AcDbSymbolTableRecord
100
AcDbLayerTableRecord
  2
细线层
 70
     0
 62
     4
  6
Continuous
370
    25
390
F
  0
LAYER
  5
69
330
2
100
AcDbSymbolTableRecord
100
AcDbLayerTableRecord
  2
中心线层
 70
     0
 62
     1
  6
CENTERX2
370
    25
390
F
  0
LAYER
  5
6A
330
2
100
AcDbSymbolTableRecord
100
AcDbLayerTableRecord
  2
虚线层
 70
     0
 62
     6
  6
HIDDEN
370
    25
390
F
  0
LAYER
  5
6B
330
2
100
AcDbSymbolTableRecord
100
AcDbLayerTableRecord
  2
剖面线层
 70
     0
 62
     2
  6
Continuous
370
    25
390
F
  0
LAYER
  5
6C
330
2
100
AcDbSymbolTableRecord
100
AcDbLayerTableRecord
  2
文字层
 70
     0
 62
     3
  6
Continuous
370
    25
390
F
  0
LAYER
  5
6D
330
2
100
AcDbSymbolTableRecord
100
AcDbLayerTableRecord
  2
标注层
 70
     0
 62
     4
  6
Continuous
370
    25
390
F
  0
LAYER
  5
6E
330
2
100
AcDbSymbolTableRecord
100
AcDbLayerTableRecord
  2
符号标注层
 70
     0
 62
    31
  6
Continuous
370
    25
390
F
  0
LAYER
  5
6F
330
2
100
AcDbSymbolTableRecord
100
AcDbLayerTableRecord
  2
双点划线层
 70
     0
 62
     6
  6
PHANTOM
370
    25
390
F
  0
ENDTAB
  0
TABLE
  2
STYLE
  5
3
330
0
100
AcDbSymbolTable
 70
     1
  0
STYLE
  5
11
330
3
100
AcDbSymbolTableRecord
100
AcDbTextStyleTableRecord
  2
Standard
 70
     0
 40
0.0
 41
1.0
 50
0.0
 71
     0
 42
3.5
  3
txt
  4

  0
ENDTAB
  0
TABLE
  2
VIEW
  5
6
330
0
100
AcDbSymbolTable
 70
     0
  0
ENDTAB
  0
TABLE
  2
UCS
  5
7
330
0
100
AcDbSymbolTable
 70
     0
  0
ENDTAB
  0
TABLE
  2
APPID
  5
9
330
0
100
AcDbSymbolTable
 70
     1
  0
APPID
  5
12
330
9
100
AcDbSymbolTableRecord
100
AcDbRegAppTableRecord
  2
ACAD
 70
     0
  0
ENDTAB
  0
TABLE
  2
DIMSTYLE
  5
A
330
0
100
AcDbSymbolTable
 70
     1
100
AcDbDimStyleTable
  0
DIMSTYLE
105
27
330
A
100
AcDbSymbolTableRecord
100
AcDbDimStyleTableRecord
  2
ISO-25
 70
     0
 41
2.5
 42
0.625
 43
3.75
 44
1.25
 73
     0
 74
     0
 77
     1
 78
     8
140
2.5
141
2.5
143
0.0393700787
147
0.625
171
     3
172
     1
178
     0
271
     2
272
     2
274
     3
278
    44
283
     0
284
     8
340
11
  0
ENDTAB
  0
TABLE
  2
BLOCK_RECORD
  5
1
330
0
100
AcDbSymbolTable
 70
     2
  0
BLOCK_RECORD
  5
1F
330
1
100
AcDbSymbolTableRecord
100
AcDbBlockTableRecord
  2
*Model_Space
340
22
  0
BLOCK_RECORD
  5
1B
330
1
100
AcDbSymbolTableRecord
100
AcDbBlockTableRecord
  2
*Paper_Space
340
1E
  0
BLOCK_RECORD
  5
23
330
1
100
AcDbSymbolTableRecord
100
AcDbBlockTableRecord
  2
*Paper_Space0
340
26
  0
BLOCK_RECORD
  5
97
330
1
100
AcDbSymbolTableRecord
100
AcDbBlockTableRecord
  2
SW_CENTERMARKSYMBOL_0
340
0
102
{BLKREFS
331
A2
102
}
  0
ENDTAB
  0
ENDSEC
  0
SECTION
  2
BLOCKS
  0
BLOCK
  5
20
330
1F
100
AcDbEntity
  8
0
100
AcDbBlockBegin
  2
*Model_Space
 70
     0
 10
0.0
 20
0.0
 30
0.0
  3
*Model_Space
  1

  0
ENDBLK
  5
21
330
1F
100
AcDbEntity
  8
0
100
AcDbBlockEnd
  0
BLOCK
  5
1C
330
1B
100
AcDbEntity
 67
     1
  8
0
100
AcDbBlockBegin
  2
*Paper_Space
 70
     0
 10
0.0
 20
0.0
 30
0.0
  3
*Paper_Space
  1

  0
ENDBLK
  5
1D
330
1B
100
AcDbEntity
 67
     1
  8
0
100
AcDbBlockEnd
  0
BLOCK
  5
24
330
23
100
AcDbEntity
  8
0
100
AcDbBlockBegin
  2
*Paper_Space0
 70
     0
 10
0.0
 20
0.0
 30
0.0
  3
*Paper_Space0
  1

  0
ENDBLK
  5
25
330
23
100
AcDbEntity
  8
0
100
AcDbBlockEnd
  0
BLOCK
  5
98
330
97
100
AcDbEntity
  8
0
100
AcDbBlockBegin
  2
SW_CENTERMARKSYMBOL_0
 70
     0
 10
0.0
 20
0.0
 30
0.0
  3
SW_CENTERMARKSYMBOL_0
  1

  0
LINE
  5
9A
330
97
100
AcDbEntity
  8
10
 62
     0
100
AcDbLine
 10
0.0
 20
0.0
 30
0.0
 11
0.0
 21
2.5
 31
0.0
  0
LINE
  5
9B
330
97
100
AcDbEntity
  8
10
 62
     0
100
AcDbLine
 10
0.0
 20
0.0
 30
0.0
 11
-2.5
 21
0.0
 31
0.0
  0
LINE
  5
9C
330
97
100
AcDbEntity
  8
10
 62
     0
100
AcDbLine
 10
0.0
 20
0.0
 30
0.0
 11
0.0
 21
-2.5
 31
0.0
  0
LINE
  5
9D
330
97
100
AcDbEntity
  8
10
 62
     0
100
AcDbLine
 10
0.0
 20
0.0
 30
0.0
 11
2.5
 21
0.0
 31
0.0
  0
LINE
  5
9E
330
97
100
AcDbEntity
  8
10
 62
     0
100
AcDbLine
 10
0.0
 20
5.0
 30
0.0
 11
0.0
 21
52.5
 31
0.0
  0
LINE
  5
9F
330
97
100
AcDbEntity
  8
10
 62
     0
100
AcDbLine
 10
-5.0
 20
0.0
 30
0.0
 11
-52.5
 21
0.0
 31
0.0
  0
LINE
  5
A0
330
97
100
AcDbEntity
  8
10
 62
     0
100
AcDbLine
 10
0.0
 20
-5.0
 30
0.0
 11
0.0
 21
-52.5
 31
0.0
  0
LINE
  5
A1
330
97
100
AcDbEntity
  8
10
 62
     0
100
AcDbLine
 10
5.0
 20
0.0
 30
0.0
 11
52.5
 21
0.0
 31
0.0
  0
ENDBLK
  5
99
330
97
100
AcDbEntity
  8
0
100
AcDbBlockEnd
  0
ENDSEC
  0
SECTION
  2
ENTITIES
  0
ARC
  5
70
330
1F
100
AcDbEntity
  8
0
  6
Continuous
 62
     7
370
    25
100
AcDbCircle
 10
66.2916935976
 20
45.5
 30
0.0
 40
5.000000000000012
100
AcDbArc
 50
90.0000000001
 51
214.5388749284
  0
ARC
  5
71
330
1F
100
AcDbEntity
  8
0
  6
Continuous
 62
     7
370
    25
100
AcDbCircle
 10
66.2916935976
 20
68.5
 30
0.0
 40
5.000000000000019
100
AcDbArc
 50
145.4611250716
 51
270.0
  0
ARC
  5
72
330
1F
100
AcDbEntity
  8
0
  6
Continuous
 62
     7
370
    25
100
AcDbCircle
 10
99.7083064024
 20
45.5
 30
0.0
 40
5.000000000000003
100
AcDbArc
 50
325.4611250716
 51
0.0
  0
ARC
  5
73
330
1F
100
AcDbEntity
  8
0
  6
Continuous
 62
     7
370
    25
100
AcDbCircle
 10
99.7083064024
 20
45.5
 30
0.0
 40
5.0
100
AcDbArc
 50
0.0
 51
90.0000000002
  0
ARC
  5
74
330
1F
100
AcDbEntity
  8
0
  6
Continuous
 62
     7
370
    25
100
AcDbCircle
 10
99.7083064024
 20
68.5
 30
0.0
 40
5.0
100
AcDbArc
 50
270.0000000001
 51
0.0
  0
ARC
  5
75
330
1F
100
AcDbEntity
  8
0
  6
Continuous
 62
     7
370
    25
100
AcDbCircle
 10
99.7083064024
 20
68.5
 30
0.0
 40
5.000000000000006
100
AcDbArc
 50
0.0
 51
34.5388749284
  0
ARC
  5
76
330
1F
100
AcDbEntity
  8
0
  6
Continuous
 62
     7
370
    25
100
AcDbCircle
 10
83.0
 20
57.0
 30
0.0
 40
25.28342926720401
100
AcDbArc
 50
34.5388749284
 51
145.4611250716
  0
ARC
  5
77
330
1F
100
AcDbEntity
  8
0
  6
Continuous
 62
     7
370
    25
100
AcDbCircle
 10
83.0
 20
57.0
 30
0.0
 40
25.28342926720401
100
AcDbArc
 50
214.5388749284
 51
325.4611250716
  0
ARC
  5
78
330
1F
100
AcDbEntity
  8
0
  6
Continuous
 62
     7
370
    25
100
AcDbCircle
 10
83.0
 20
57.0
 30
0.0
 40
23.76160926804721
100
AcDbArc
 50
37.7852742696
 51
142.2147257304
  0
LINE
  5
79
330
1F
100
AcDbEntity
  8
0
  6
Continuous
 62
     7
370
    25
100
AcDbLine
 10
97.8335812457
 20
68.5
 30
0.0
 11
101.779097087
 21
71.5588319451
 31
0.0
  0
ARC
  5
7A
330
1F
100
AcDbEntity
  8
0
  6
Continuous
 62
     7
370
    25
100
AcDbCircle
 10
83.0
 20
57.0
 30
0.0
 40
18.76926030967001
100
AcDbArc
 50
37.7852742696
 51
142.2147257304
  0
LINE
  5
7B
330
1F
100
AcDbEntity
  8
0
  6
Continuous
 62
     7
370
    25
100
AcDbLine
 10
64.220902913
 20
71.5588319451
 30
0.0
 11
68.1664187543
 21
68.5
 31
0.0
  0
SPLINE
  5
7C
330
1F
100
AcDbEntity
  8
0
  6
Continuous
 62
     7
370
    25
100
AcDbSpline
210
0.0
220
0.0
230
1.0
 70
     8
 71
     3
 72
    32
 73
    28
 74
     0
 42
0.00000001
 43
0.00000001
 40
0.0
 40
0.0
 40
0.0
 40
0.0
 40
0.1250000000000007
 40
0.1250000000000007
 40
0.1875000000000008
 40
0.1875000000000008
 40
0.250000000000001
 40
0.250000000000001
 40
0.3125000000000012
 40
0.3125000000000012
 40
0.3750000000000013
 40
0.3750000000000013
 40
0.4375000000000015
 40
0.4375000000000015
 40
0.5000000000000017
 40
0.5000000000000017
 40
0.5625000000000018
 40
0.5625000000000018
 40
0.6250000000000019
 40
0.6250000000000019
 40
0.7500000000000013
 40
0.7500000000000013
 40
0.8750000000000008
 40
0.8750000000000008
 40
0.9375000000000004
 40
0.9375000000000004
 40
1.0
 40
1.0
 40
1.0
 40
1.0
 10
101.7790970869565
 20
71.5588319451118
 30
0.0
 10
102.0650461395573
 20
71.18818153206601
 30
0.0
 10
102.2926122258934
 20
70.7867857920071
 30
0.0
 10
102.5499258815031
 20
70.13952437824638
 30
0.0
 10
102.6214333200677
 20
69.91524419158131
 30
0.0
 10
102.7313795126458
 20
69.46496508177812
 30
0.0
 10
102.7705879466744
 20
69.23737023357167
 30
0.0
 10
102.8176873531171
 20
68.77730526045761
 30
0.0
 10
102.8255136241164
 20
68.543457564302
 30
0.0
 10
102.8083666708485
 20
68.07703226271828
 30
0.0
 10
102.7836864812253
 20
67.84681453808338
 30
0.0
 10
102.7028558934296
 20
67.39214696507852
 30
0.0
 10
102.6466133389291
 20
67.16768569835355
 30
0.0
 10
102.5024398144641
 20
66.72477293961954
 30
0.0
 10
102.4144177404857
 20
66.50734911240986
 30
0.0
 10
102.2114885370219
 20
66.09178073876102
 30
0.0
 10
102.096083243894
 20
65.89195399458376
 30
0.0
 10
101.8373030706468
 20
65.50824903276293
 30
0.0
 10
101.6926211636198
 20
65.32302902320342
 30
0.0
 10
101.2256620453015
 20
64.80476800595463
 30
0.0
 10
100.872488737385
 20
64.50779793596949
 30
0.0
 10
100.0819911449187
 20
64.01224124033214
 30
0.0
 10
99.6498557045836
 20
63.82006437970875
 30
0.0
 10
98.98372987001312
 20
63.62910317289145
 30
0.0
 10
98.75826001606328
 20
63.58113047446559
 30
0.0
 10
98.3005616418347
 20
63.51656330096177
 30
0.0
 10
98.0672691429137
 20
63.5
 30
0.0
 10
97.8335812456788
 20
63.5
 30
0.0
  0
LINE
  5
7D
330
1F
100
AcDbEntity
  8
0
  6
Continuous
 62
     7
370
    25
100
AcDbLine
 10
97.8335812457
 20
68.5
 30
0.0
 11
97.8335812457
 21
63.5
 31
0.0
  0
LINE
  5
7E
330
1F
100
AcDbEntity
  8
0
  6
Continuous
 62
     7
370
    25
100
AcDbLine
 10
68.1664187543
 20
63.5
 30
0.0
 11
68.1664187543
 21
68.5
 31
0.0
  0
SPLINE
  5
7F
330
1F
100
AcDbEntity
  8
0
  6
Continuous
 62
     7
370
    25
100
AcDbSpline
210
0.0
220
0.0
230
1.0
 70
     8
 71
     3
 72
    32
 73
    28
 74
     0
 42
0.00000001
 43
0.00000001
 40
0.0
 40
0.0
 40
0.0
 40
0.0
 40
0.1249999999999996
 40
0.1249999999999996
 40
0.1874999999999994
 40
0.1874999999999994
 40
0.2499999999999993
 40
0.2499999999999993
 40
0.3124999999999992
 40
0.3124999999999992
 40
0.3749999999999993
 40
0.3749999999999993
 40
0.4374999999999993
 40
0.4374999999999993
 40
0.4999999999999993
 40
0.4999999999999993
 40
0.5624999999999993
 40
0.5624999999999993
 40
0.6249999999999993
 40
0.6249999999999993
 40
0.7499999999999996
 40
0.7499999999999996
 40
0.8749999999999998
 40
0.8749999999999998
 40
0.9374999999999999
 40
0.9374999999999999
 40
1.0
 40
1.0
 40
1.0
 40
1.0
 10
68.16641875432121
 20
63.5
 30
0.0
 10
67.69898863996528
 20
63.5
 30
0.0
 10
67.24341317335958
 20
63.56457935766481
 30
0.0
 10
66.57553037358817
 20
63.75597237949778
 30
0.0
 10
66.35487534545732
 20
63.83633537142816
 30
0.0
 10
65.9323310661379
 20
64.02451060815517
 30
0.0
 10
65.72870753163262
 20
64.13268996459198
 30
0.0
 10
65.33668359934896
 20
64.37702588597388
 30
0.0
 10
65.14722505714528
 20
64.5140869340238
 30
0.0
 10
64.78943770634282
 20
64.81342085290105
 30
0.0
 10
64.62275884052538
 20
64.97403946516422
 30
0.0
 10
64.31332349513511
 20
65.3165356568478
 30
0.0
 10
64.17061509560632
 20
65.49842193867285
 30
0.0
 10
63.90913860134974
 20
65.88394736291342
 30
0.0
 10
63.79133891989525
 20
66.08689116914451
 30
0.0
 10
63.58745448282264
 20
66.50221024605284
 30
0.0
 10
63.50035170294241
 20
66.71600686814764
 30
0.0
 10
63.35592134780671
 20
67.15590464906185
 30
0.0
 10
63.29833676721184
 20
67.38386429406015
 30
0.0
 10
63.17527872282082
 20
68.07081292922314
 30
0.0
 10
63.15709162642815
 20
68.53237572077333
 30
0.0
 10
63.24947511219624
 20
69.46284146299364
 30
0.0
 10
63.36203398449039
 20
69.92328762912709
 30
0.0
 10
63.61886661226329
 20
70.56823734504596
 30
0.0
 10
63.7189900144601
 20
70.77628871570352
 30
0.0
 10
63.9481836694808
 20
71.17852217467514
 30
0.0
 10
64.07794090150367
 20
71.37352296036387
 30
0.0
 10
64.22090291304345
 20
71.55883194511179
 30
0.0
  0
LINE
  5
80
330
1F
100
AcDbEntity
  8
0
  6
Continuous
 62
     7
370
    25
100
AcDbLine
 10
68.1664187543
 20
45.5
 30
0.0
 11
64.220902913
 21
42.4411680549
 31
0.0
  0
SPLINE
  5
81
330
1F
100
AcDbEntity
  8
0
  6
Continuous
 62
     7
370
    25
100
AcDbSpline
210
0.0
220
0.0
230
1.0
 70
     8
 71
     3
 72
    32
 73
    28
 74
     0
 42
0.00000001
 43
0.00000001
 40
0.0
 40
0.0
 40
0.0
 40
0.0
 40
0.1250000000000001
 40
0.1250000000000001
 40
0.1875000000000001
 40
0.1875000000000001
 40
0.2500000000000001
 40
0.2500000000000001
 40
0.3125000000000001
 40
0.3125000000000001
 40
0.3750000000000002
 40
0.3750000000000002
 40
0.4375000000000002
 40
0.4375000000000002
 40
0.5000000000000002
 40
0.5000000000000002
 40
0.5625000000000002
 40
0.5625000000000002
 40
0.6250000000000002
 40
0.6250000000000002
 40
0.7500000000000002
 40
0.7500000000000002
 40
0.8750000000000001
 40
0.8750000000000001
 40
0.9375000000000001
 40
0.9375000000000001
 40
1.0
 40
1.0
 40
1.0
 40
1.0
 10
64.22090291304085
 20
42.44116805488884
 30
0.0
 10
63.93495386044008
 20
42.81181846793465
 30
0.0
 10
63.7073877741044
 20
43.21321420799359
 30
0.0
 10
63.45007411849531
 20
43.86047562175431
 30
0.0
 10
63.3785666799309
 20
44.08475580841928
 30
0.0
 10
63.2686204873533
 20
44.53503491822236
 30
0.0
 10
63.22941205332486
 20
44.76262976642879
 30
0.0
 10
63.18231264688242
 20
45.22269473954289
 30
0.0
 10
63.17448637588333
 20
45.45654243569864
 30
0.0
 10
63.19163332915146
 20
45.92296773728222
 30
0.0
 10
63.21631351877477
 20
46.15318546191708
 30
0.0
 10
63.29714410657047
 20
46.60785303492187
 30
0.0
 10
63.35338666107106
 20
46.83231430164688
 30
0.0
 10
63.49756018553611
 20
47.27522706038096
 30
0.0
 10
63.58558225951442
 20
47.49265088759051
 30
0.0
 10
63.78851146297828
 20
47.90821926123925
 30
0.0
 10
63.90391675610617
 20
48.10804600541649
 30
0.0
 10
64.16269692935337
 20
48.49175096723731
 30
0.0
 10
64.30737883638041
 20
48.67697097679687
 30
0.0
 10
64.77433795469858
 20
49.19523199404545
 30
0.0
 10
65.12751126261514
 20
49.49220206403058
 30
0.0
 10
65.91800885508167
 20
49.98775875966802
 30
0.0
 10
66.35014429541656
 20
50.17993562029128
 30
0.0
 10
67.01627012998686
 20
50.37089682710853
 30
0.0
 10
67.24173998393668
 20
50.4188695255344
 30
0.0
 10
67.69943835816527
 20
50.48343669903824
 30
0.0
 10
67.9327308570864
 20
50.5
 30
0.0
 10
68.16641875432121
 20
50.5
 30
0.0
  0
LINE
  5
82
330
1F
100
AcDbEntity
  8
0
  6
Continuous
 62
     7
370
    25
100
AcDbLine
 10
68.1664187543
 20
45.5
 30
0.0
 11
68.1664187543
 21
50.5
 31
0.0
  0
ARC
  5
83
330
1F
100
AcDbEntity
  8
0
  6
Continuous
 62
     7
370
    25
100
AcDbCircle
 10
83.0
 20
57.0
 30
0.0
 40
23.7616092680472
100
AcDbArc
 50
217.7852742696
 51
322.2147257304
  0
ARC
  5
84
330
1F
100
AcDbEntity
  8
0
  6
Continuous
 62
     7
370
    25
100
AcDbCircle
 10
83.0
 20
57.0
 30
0.0
 40
18.76926030967001
100
AcDbArc
 50
217.7852742696
 51
322.2147257304
  0
LINE
  5
85
330
1F
100
AcDbEntity
  8
0
  6
Continuous
 62
     7
370
    25
100
AcDbLine
 10
101.779097087
 20
42.4411680549
 30
0.0
 11
97.8335812457
 21
45.5
 31
0.0
  0
LINE
  5
86
330
1F
100
AcDbEntity
  8
0
  6
Continuous
 62
     7
370
    25
100
AcDbLine
 10
97.8335812457
 20
50.5
 30
0.0
 11
97.8335812457
 21
45.5
 31
0.0
  0
SPLINE
  5
87
330
1F
100
AcDbEntity
  8
0
  6
Continuous
 62
     7
370
    25
100
AcDbSpline
210
0.0
220
0.0
230
1.0
 70
     8
 71
     3
 72
    32
 73
    28
 74
     0
 42
0.00000001
 43
0.00000001
 40
0.0
 40
0.0
 40
0.0
 40
0.0
 40
0.1249999999999989
 40
0.1249999999999989
 40
0.1874999999999989
 40
0.1874999999999989
 40
0.2499999999999989
 40
0.2499999999999989
 40
0.3124999999999988
 40
0.3124999999999988
 40
0.3749999999999989
 40
0.3749999999999989
 40
0.4374999999999991
 40
0.4374999999999991
 40
0.4999999999999992
 40
0.4999999999999992
 40
0.5624999999999993
 40
0.5624999999999993
 40
0.6249999999999994
 40
0.6249999999999994
 40
0.7499999999999996
 40
0.7499999999999996
 40
0.8749999999999998
 40
0.8749999999999998
 40
0.9374999999999999
 40
0.9374999999999999
 40
1.0
 40
1.0
 40
1.0
 40
1.0
 10
97.8335812456788
 20
50.5
 30
0.0
 10
98.30101160226766
 20
50.5
 30
0.0
 10
98.75658539935569
 20
50.43542064792349
 30
0.0
 10
99.42446757420073
 20
50.24402746851247
 30
0.0
 10
99.64512237894903
 20
50.1636644622198
 30
0.0
 10
100.0676665460237
 20
49.97548926598382
 30
0.0
 10
100.2712902698616
 20
49.86730991916779
 30
0.0
 10
100.6633148873406
 20
49.62297394431694
 30
0.0
 10
100.8527741018729
 20
49.48591267088952
 30
0.0
 10
101.2105617387517
 20
49.1865791039947
 30
0.0
 10
101.37724083072
 20
49.02596060756988
 30
0.0
 10
101.6866765113323
 20
48.68346440102464
 30
0.0
 10
101.8293849783098
 20
48.50157797666334
 30
0.0
 10
102.0908615141467
 20
48.11605201086759
 30
0.0
 10
102.2086607396684
 20
47.91310860332048
 30
0.0
 10
102.4125448480832
 20
47.49778975598193
 30
0.0
 10
102.4996476115498
 20
47.28399312045625
 30
0.0
 10
102.6440781279757
 20
46.84409500850663
 30
0.0
 10
102.7016628546259
 20
46.61613502362761
 30
0.0
 10
102.8247210760535
 20
45.92918727392082
 30
0.0
 10
102.8429084294034
 20
45.46762449414668
 30
0.0
 10
102.7505247590559
 20
44.53715758768945
 30
0.0
 10
102.6379659694885
 20
44.07671232672729
 30
0.0
 10
102.3811335686601
 20
43.43176307357231
 30
0.0
 10
102.2810102113998
 20
43.22371171611051
 30
0.0
 10
102.0518164797801
 20
42.82147805184541
 30
0.0
 10
101.9220590768124
 20
42.62647701152907
 30
0.0
 10
101.7790970869566
 20
42.44116805488821
 30
0.0
  0
LINE
  5
88
330
1F
100
AcDbEntity
  8
0
  6
Continuous
 62
     7
370
    25
100
AcDbLine
 10
68.1664187543
 20
68.5
 30
0.0
 11
97.8335812457
 21
68.5
 31
0.0
  0
LINE
  5
89
330
1F
100
AcDbEntity
  8
0
  6
Continuous
 62
     7
370
    25
100
AcDbLine
 10
97.8335812457
 20
63.5
 30
0.0
 11
68.1664187543
 21
63.5
 31
0.0
  0
LINE
  5
8A
330
1F
100
AcDbEntity
  8
0
  6
Continuous
 62
     7
370
    25
100
AcDbLine
 10
97.8335812457
 20
45.5
 30
0.0
 11
68.1664187543
 21
45.5
 31
0.0
  0
LINE
  5
8B
330
1F
100
AcDbEntity
  8
0
  6
Continuous
 62
     7
370
    25
100
AcDbLine
 10
68.1664187543
 20
50.5
 30
0.0
 11
97.8335812457
 21
50.5
 31
0.0
  0
SPLINE
  5
8C
330
1F
100
AcDbEntity
  8
0
  6
Continuous
 62
     7
370
    25
100
AcDbSpline
210
0.0
220
0.0
230
1.0
 70
    24
 71
     3
 72
     8
 73
     4
 74
     0
 42
0.00000001
 43
0.00000001
 40
0.0
 40
0.0
 40
0.0
 40
0.0
 40
1.0
 40
1.0
 40
1.0
 40
1.0
 10
97.8335812456788
 20
50.5
 30
0.0
 10
98.47215224111851
 20
50.5
 30
0.0
 10
99.0955307490064
 20
50.5
 30
0.0
 10
99.7083064024355
 20
50.5
 30
0.0
  0
SPLINE
  5
8D
330
1F
100
AcDbEntity
  8
0
  6
Continuous
 62
     7
370
    25
100
AcDbSpline
210
0.0
220
0.0
230
1.0
 70
    24
 71
     3
 72
     8
 73
     4
 74
     0
 42
0.00000001
 43
0.00000001
 40
0.0
 40
0.0
 40
0.0
 40
0.0
 40
1.0
 40
1.0
 40
1.0
 40
1.0
 10
68.16641875432121
 20
63.5
 30
0.0
 10
67.5278477588815
 20
63.5
 30
0.0
 10
66.9044692509935
 20
63.5
 30
0.0
 10
66.2916935975644
 20
63.5
 30
0.0
  0
SPLINE
  5
8E
330
1F
100
AcDbEntity
  8
0
  6
Continuous
 62
     7
370
    25
100
AcDbSpline
210
0.0
220
0.0
230
1.0
 70
    24
 71
     3
 72
     8
 73
     4
 74
     0
 42
0.00000001
 43
0.00000001
 40
0.0
 40
0.0
 40
0.0
 40
0.0
 40
1.0
 40
1.0
 40
1.0
 40
1.0
 10
99.70830640243561
 20
63.5
 30
0.0
 10
99.09553074900651
 20
63.5
 30
0.0
 10
98.47215224111851
 20
63.5
 30
0.0
 10
97.8335812456788
 20
63.5
 30
0.0
  0
SPLINE
  5
8F
330
1F
100
AcDbEntity
  8
0
  6
Continuous
 62
     7
370
    25
100
AcDbSpline
210
0.0
220
0.0
230
1.0
 70
    24
 71
     3
 72
     8
 73
     4
 74
     0
 42
0.00000001
 43
0.00000001
 40
0.0
 40
0.0
 40
0.0
 40
0.0
 40
1.0
 40
1.0
 40
1.0
 40
1.0
 10
66.2916935975646
 20
50.5
 30
0.0
 10
66.90446925099361
 20
50.5
 30
0.0
 10
67.5278477588815
 20
50.5
 30
0.0
 10
68.16641875432121
 20
50.5
 30
0.0
  0
CIRCLE
  5
90
330
1F
100
AcDbEntity
  8
0
  6
Continuous
 62
     7
370
    25
100
AcDbCircle
 10
83.0
 20
57.0
 30
0.0
 40
50.0
  0
ARC
  5
91
330
1F
100
AcDbEntity
  8
0
  6
HIDDEN
 62
     7
370
    18
100
AcDbCircle
 10
68.5086232538
 20
68.5
 30
0.0
 40
5.0
100
AcDbArc
 50
141.5653491823
 51
270.0
  0
ARC
  5
92
330
1F
100
AcDbEntity
  8
0
  6
HIDDEN
 62
     7
370
    18
100
AcDbCircle
 10
97.4913767462
 20
45.5
 30
0.0
 40
5.0
100
AcDbArc
 50
321.5653491823
 51
90.0
  0
ARC
  5
93
330
1F
100
AcDbEntity
  8
0
  6
HIDDEN
 62
     7
370
    18
100
AcDbCircle
 10
97.4913767462
 20
68.5
 30
0.0
 40
5.0
100
AcDbArc
 50
270.0
 51
38.4346508177
  0
ARC
  5
94
330
1F
100
AcDbEntity
  8
0
  6
HIDDEN
 62
     7
370
    18
100
AcDbCircle
 10
68.5086232538
 20
45.5
 30
0.0
 40
5.0
100
AcDbArc
 50
90.0
 51
218.4346508177
  0
ARC
  5
95
330
1F
100
AcDbEntity
  8
0
  6
HIDDEN
 62
     7
370
    18
100
AcDbCircle
 10
83.0
 20
57.0
 30
0.0
 40
23.49999999999994
100
AcDbArc
 50
38.4346508177
 51
141.5653491823
  0
ARC
  5
96
330
1F
100
AcDbEntity
  8
0
  6
HIDDEN
 62
     7
370
    18
100
AcDbCircle
 10
83.0
 20
57.0
 30
0.0
 40
23.49999999999994
100
AcDbArc
 50
218.4346508177
 51
321.5653491823
  0
INSERT
  5
A2
330
1F
100
AcDbEntity
  8
10
100
AcDbBlockReference
  2
SW_CENTERMARKSYMBOL_0
 10
83.0
 20
57.0
 30
0.0
  0
LINE
  5
A3
330
1F
100
AcDbEntity
  8
0
  6
Continuous
 62
     7
370
    25
100
AcDbLine
 10
33.0
 20
199.2500125
 30
0.0
 11
33.0
 21
189.2500125
 31
0.0
  0
LINE
  5
A4
330
1F
100
AcDbEntity
  8
0
  6
Continuous
 62
     7
370
    25
100
AcDbLine
 10
133.0
 20
189.2500125
 30
0.0
 11
133.0
 21
199.2500125
 31
0.0
  0
LINE
  5
A5
330
1F
100
AcDbEntity
  8
0
  6
Continuous
 62
     7
370
    25
100
AcDbLine
 10
63.1348785722
 20
121.4412943498
 30
0.0
 11
68.1664187543
 21
116.7500125
 31
0.0
  0
SPLINE
  5
A6
330
1F
100
AcDbEntity
  8
0
  6
Continuous
 62
     7
370
    25
100
AcDbSpline
210
0.0
220
0.0
230
1.0
 70
     8
 71
     3
 72
    11
 73
     7
 74
     0
 42
0.00000001
 43
0.00000001
 40
0.0
 40
0.0
 40
0.0
 40
0.0
 40
0.2934883046530242
 40
0.55766745504385
 40
0.7924349091203144
 40
1.0
 40
1.0
 40
1.0
 40
1.0
 10
97.83358124567881
 20
116.7500125
 30
0.0
 10
98.32795632951498
 20
117.2100039307708
 30
0.0
 10
99.26733582256139
 20
118.0840498347232
 30
0.0
 10
100.5931797471641
 20
119.3242341591531
 30
0.0
 10
101.7901688105832
 20
120.4348421485293
 30
0.0
 10
102.5303195157133
 20
121.1180631559904
 30
0.0
 10
102.8776361446315
 20
121.4386654542424
 30
0.0
  0
LINE
  5
A7
330
1F
100
AcDbEntity
  8
0
  6
Continuous
 62
     7
370
    25
100
AcDbLine
 10
63.5086378006
 20
164.5489402067
 30
0.0
 11
63.4751989895
 21
164.112848213
 31
0.0
  0
LINE
  5
A8
330
1F
100
AcDbEntity
  8
0
  6
Continuous
 62
     7
370
    25
100
AcDbLine
 10
102.5248010105
 20
164.112848213
 30
0.0
 11
102.4913621994
 21
164.5489402067
 31
0.0
  0
LINE
  5
A9
330
1F
100
AcDbEntity
  8
0
  6
Continuous
 62
     7
370
    25
100
AcDbLine
 10
63.5086232538
 20
189.2500125
 30
0.0
 11
63.5086232538
 21
164.5489402067
 31
0.0
  0
LINE
  5
AA
330
1F
100
AcDbEntity
  8
0
  6
Continuous
 62
     7
370
    25
100
AcDbLine
 10
102.4913767462
 20
164.5489402067
 30
0.0
 11
102.4913767462
 21
189.2500125
 31
0.0
  0
LINE
  5
AB
330
1F
100
AcDbEntity
  8
0
  6
Continuous
 62
     7
370
    25
100
AcDbLine
 10
63.4751989895
 20
164.112848213
 30
0.0
 11
61.3441170985
 21
149.8099210202
 31
0.0
  0
LINE
  5
AC
330
1F
100
AcDbEntity
  8
0
  6
Continuous
 62
     7
370
    25
100
AcDbLine
 10
104.6558829015
 20
149.8099210202
 30
0.0
 11
102.5248010105
 21
164.112848213
 31
0.0
  0
LINE
  5
AD
330
1F
100
AcDbEntity
  8
0
  6
Continuous
 62
     7
370
    25
100
AcDbLine
 10
61.3031500829
 20
148.7537674357
 30
0.0
 11
63.1788447549
 21
121.4020983847
 31
0.0
  0
LINE
  5
AE
330
1F
100
AcDbEntity
  8
0
  6
Continuous
 62
     7
370
    25
100
AcDbLine
 10
102.8200615465
 20
121.3860981526
 30
0.0
 11
104.6968499171
 21
148.7537674357
 31
0.0
  0
ARC
  5
AF
330
1F
100
AcDbEntity
  8
0
  6
Continuous
 62
     7
370
    25
100
AcDbCircle
 10
99.7083064024
 20
149.0891742333
 30
0.0
 40
5.000000000000014
100
AcDbArc
 50
356.1534836576
 51
8.2883591555
  0
ARC
  5
B0
330
1F
100
AcDbEntity
  8
0
  6
Continuous
 62
     7
370
    25
100
AcDbCircle
 10
66.2916935976
 20
149.0891742333
 30
0.0
 40
5.000000000000048
100
AcDbArc
 50
171.7116408445
 51
183.8465163424
  0
LINE
  5
B1
330
1F
100
AcDbEntity
  8
0
  6
Continuous
 62
     7
370
    25
100
AcDbLine
 10
133.0
 20
199.2500125
 30
0.0
 11
33.0
 21
199.2500125
 31
0.0
  0
LINE
  5
B2
330
1F
100
AcDbEntity
  8
0
  6
Continuous
 62
     7
370
    25
100
AcDbLine
 10
133.0
 20
189.2500125
 30
0.0
 11
33.0
 21
189.2500125
 31
0.0
  0
LINE
  5
B3
330
1F
100
AcDbEntity
  8
0
  6
Continuous
 62
     7
370
    25
100
AcDbLine
 10
64.220902913
 20
121.4735131731
 30
0.0
 11
101.779097087
 21
121.4735131731
 31
0.0
  0
LINE
  5
B4
330
1F
100
AcDbEntity
  8
0
  6
Continuous
 62
     7
370
    25
100
AcDbLine
 10
97.8335812457
 20
116.7500125
 30
0.0
 11
101.779097087
 21
121.4735131731
 31
0.0
  0
LINE
  5
B5
330
1F
100
AcDbEntity
  8
0
  6
Continuous
 62
     7
370
    25
100
AcDbLine
 10
97.8335812457
 20
116.7500125
 30
0.0
 11
68.1664187543
 21
116.7500125
 31
0.0
  0
LINE
  5
B6
330
1F
100
AcDbEntity
  8
0
  6
Continuous
 62
     7
370
    25
100
AcDbLine
 10
64.220902913
 20
121.4735131731
 30
0.0
 11
68.1664187543
 21
116.7500125
 31
0.0
  0
SPLINE
  5
B7
330
1F
100
AcDbEntity
  8
0
  6
Continuous
 62
     7
370
    25
100
AcDbSpline
210
0.0
220
0.0
230
1.0
 70
     8
 71
     3
 72
    12
 73
     8
 74
     0
 42
0.00000001
 43
0.00000001
 40
0.0
 40
0.0
 40
0.0
 40
0.0
 40
0.169232246201567
 40
0.4219179902436489
 40
0.6743504398609611
 40
0.9340899057318266
 40
1.0
 40
1.0
 40
1.0
 40
1.0
 10
63.19505499073114
 20
121.4032014773007
 30
0.0
 10
63.19468986243113
 20
121.4031227785674
 30
0.0
 10
63.19377955011193
 20
121.4029265723942
 30
0.0
 10
63.35125728047105
 20
121.42276729772
 30
0.0
 10
63.64388249481021
 20
121.4432116483131
 30
0.0
 10
63.96404824535565
 20
121.4567680727594
 30
0.0
 10
64.17766731619383
 20
121.4706945191919
 30
0.0
 10
64.22090291304345
 20
121.4735131730749
 30
0.0
  0
SPLINE
  5
B8
330
1F
100
AcDbEntity
  8
0
  6
Continuous
 62
     7
370
    25
100
AcDbSpline
210
0.0
220
0.0
230
1.0
 70
     8
 71
     3
 72
    11
 73
     7
 74
     0
 42
0.00000001
 43
0.00000001
 40
0.0
 40
0.0
 40
0.0
 40
0.0
 40
0.2591842983694282
 40
0.5258552882857211
 40
0.785494408292141
 40
1.0
 40
1.0
 40
1.0
 40
1.0
 10
101.7790970869565
 20
121.473513173075
 30
0.0
 10
101.9373149601469
 20
121.4604308124399
 30
0.0
 10
102.258320923247
 20
121.4338881994555
 30
0.0
 10
102.5796279580239
 20
121.3958412518754
 30
0.0
 10
102.7796758361536
 20
121.3779596092101
 30
0.0
 10
102.79910769283
 20
121.3835383426205
 30
0.0
 10
102.8078987682366
 20
121.3860621913139
 30
0.0
  0
LINE
  5
B9
330
1F
100
AcDbEntity
  8
0
  6
Continuous
 62
     7
370
    25
100
AcDbLine
 10
61.3031382536
 20
148.7537666403
 30
0.0
 11
61.3031617151
 21
148.7537682178
 31
0.0
  0
LINE
  5
BA
330
1F
100
AcDbEntity
  8
0
  6
Continuous
 62
     7
370
    25
100
AcDbLine
 10
61.3441050016
 20
149.8099227825
 30
0.0
 11
61.3441288364
 21
149.8099193103
 31
0.0
  0
LINE
  5
BB
330
1F
100
AcDbEntity
  8
0
  6
HIDDEN
 62
     7
370
    18
100
AcDbLine
 10
68.1664187543
 20
121.7500125
 30
0.0
 11
68.1664187543
 21
116.7500125
 31
0.0
  0
SPLINE
  5
BC
330
1F
100
AcDbEntity
  8
0
  6
HIDDEN
 62
     7
370
    18
100
AcDbSpline
210
0.0
220
0.0
230
1.0
 70
     8
 71
     3
 72
    22
 73
    18
 74
     0
 42
0.00000001
 43
0.00000001
 40
0.0
 40
0.0
 40
0.0
 40
0.0
 40
0.1250000000000001
 40
0.1250000000000001
 40
0.2500000000000002
 40
0.2500000000000002
 40
0.3750000000000003
 40
0.3750000000000003
 40
0.5000000000000004
 40
0.5000000000000004
 40
0.6250000000000003
 40
0.6250000000000003
 40
0.7500000000000002
 40
0.7500000000000002
 40
0.8750000000000001
 40
0.8750000000000001
 40
1.0
 40
1.0
 40
1.0
 40
1.0
 10
68.16641875432121
 20
121.7500125
 30
0.0
 10
67.8490439431088
 20
121.7277710681537
 30
0.0
 10
67.53720409424979
 20
121.7005711426745
 30
0.0
 10
66.92329448329691
 20
121.6467375493616
 30
0.0
 10
66.61840396304696
 20
121.6198860488475
 30
0.0
 10
66.03266130697462
 20
121.5742389819544
 30
0.0
 10
65.7540218501495
 20
121.5556435164282
 30
0.0
 10
65.22474528947197
 20
121.5258822671151
 30
0.0
 10
64.97206622470524
 20
121.5145912162949
 30
0.0
 10
64.51474023671474
 20
121.4925935032429
 30
0.0
 10
64.30835837941436
 20
121.4782738243358
 30
0.0
 10
63.93950478883351
 20
121.4573844817971
 30
0.0
 10
63.77765167308551
 20
121.4509493839519
 30
0.0
 10
63.51272748387701
 20
121.436566797685
 30
0.0
 10
63.40745009719475
 20
121.4287953146972
 30
0.0
 10
63.25279263479962
 20
121.4131943585769
 30
0.0
 10
63.2051846654312
 20
121.4056327603704
 30
0.0
 10
63.1870729117314
 20
121.4022413229445
 30
0.0
  0
SPLINE
  5
BD
330
1F
100
AcDbEntity
  8
0
  6
HIDDEN
 62
     7
370
    18
100
AcDbSpline
210
0.0
220
0.0
230
1.0
 70
     8
 71
     3
 72
    24
 73
    20
 74
     0
 42
0.00000001
 43
0.00000001
 40
0.0
 40
0.0
 40
0.0
 40
0.0
 40
0.1249999999999997
 40
0.1249999999999997
 40
0.1874999999999995
 40
0.1874999999999995
 40
0.2499999999999993
 40
0.2499999999999993
 40
0.3749999999999995
 40
0.3749999999999995
 40
0.4999999999999998
 40
0.4999999999999998
 40
0.625
 40
0.625
 40
0.7500000000000002
 40
0.7500000000000002
 40
0.8750000000000004
 40
0.8750000000000004
 40
1.0
 40
1.0
 40
1.0
 40
1.0
 10
102.8198400667129
 20
121.387066441659
 30
0.0
 10
102.8152857410726
 20
121.3925178256819
 30
0.0
 10
102.7792159253513
 20
121.4010084214999
 30
0.0
 10
102.679228855323
 20
121.410796799106
 30
0.0
 10
102.6381807555008
 20
121.4133625197779
 30
0.0
 10
102.5407206785013
 20
121.4227445533772
 30
0.0
 10
102.4839439389618
 20
121.4285926304681
 30
0.0
 10
102.2935092739927
 20
121.4466882141389
 30
0.0
 10
102.1391961489536
 20
121.4592888671343
 30
0.0
 10
101.7762906754831
 20
121.4831348250738
 30
0.0
 10
101.5655748773639
 20
121.4946199922924
 30
0.0
 10
101.1064528171659
 20
121.5212096500785
 30
0.0
 10
100.8567117568153
 20
121.5373872212513
 30
0.0
 10
100.316320546138
 20
121.5788795242716
 30
0.0
 10
100.027356015905
 20
121.6026201218456
 30
0.0
 10
99.42459974684964
 20
121.6482294844546
 30
0.0
 10
99.11487808063906
 20
121.6696409616128
 30
0.0
 10
98.483687196878
 20
121.7092900015092
 30
0.0
 10
98.15966939321511
 20
121.7271604428953
 30
0.0
 10
97.8335812456788
 20
121.7500125
 30
0.0
  0
LINE
  5
BE
330
1F
100
AcDbEntity
  8
0
  6
HIDDEN
 62
     7
370
    18
100
AcDbLine
 10
97.8335812457
 20
116.7500125
 30
0.0
 11
97.8335812457
 21
121.7500125
 31
0.0
  0
LINE
  5
BF
330
1F
100
AcDbEntity
  8
0
  6
HIDDEN
 62
     7
370
    18
100
AcDbLine
 10
97.8335812457
 20
121.7500125
 30
0.0
 11
68.1664187543
 21
121.7500125
 31
0.0
  0
LINE
  5
C0
330
1F
100
AcDbEntity
  8
0
  6
HIDDEN
 62
     7
370
    18
100
AcDbLine
 10
61.3031617151
 20
148.7537682178
 30
0.0
 11
66.2916935976
 21
149.0891742333
 31
0.0
  0
SPLINE
  5
C1
330
1F
100
AcDbEntity
  8
0
  6
HIDDEN
 62
     7
370
    18
100
AcDbSpline
210
0.0
220
0.0
230
1.0
 70
     8
 71
     3
 72
    11
 73
     7
 74
     0
 42
0.00000001
 43
0.00000001
 40
0.0
 40
0.0
 40
0.0
 40
0.0
 40
0.1614474984372316
 40
0.5218702770308906
 40
0.8715762083965162
 40
1.0
 40
1.0
 40
1.0
 40
1.0
 10
102.2611844252902
 20
121.4480054189122
 30
0.0
 10
102.3226372609007
 20
121.4450124312812
 30
0.0
 10
102.5212802169996
 20
121.4353377611918
 30
0.0
 10
102.7076374000932
 20
121.4190429168237
 30
0.0
 10
102.8273963074308
 20
121.4001829965057
 30
0.0
 10
102.8095522787949
 20
121.4025795410759
 30
0.0
 10
102.8047594418203
 20
121.4032232436646
 30
0.0
  0
LINE
  5
C2
330
1F
100
AcDbEntity
  8
0
  6
HIDDEN
 62
     7
370
    18
100
AcDbLine
 10
61.3441288364
 20
149.8099193103
 30
0.0
 11
66.2916935976
 21
149.0891742333
 31
0.0
  0
LINE
  5
C3
330
1F
100
AcDbEntity
  8
0
  6
Continuous
 62
     7
370
    25
100
AcDbLine
 10
264.2500125
 20
107.0
 30
0.0
 11
254.2500125
 21
107.0
 31
0.0
  0
LINE
  5
C4
330
1F
100
AcDbEntity
  8
0
  6
Continuous
 62
     7
370
    25
100
AcDbLine
 10
254.2500125
 20
7.0
 30
0.0
 11
264.2500125
 21
7.0
 31
0.0
  0
ARC
  5
C5
330
1F
100
AcDbEntity
  8
0
  6
Continuous
 62
     7
370
    25
100
AcDbCircle
 10
214.0891742333
 20
77.2834292672
 30
0.0
 40
5.000000000000009
100
AcDbArc
 50
83.1572265874
 51
93.170066013
  0
ARC
  5
C6
330
1F
100
AcDbEntity
  8
0
  6
Continuous
 62
     7
370
    25
100
AcDbCircle
 10
214.0891742333
 20
36.7165707328
 30
0.0
 40
5.000000000000004
100
AcDbArc
 50
266.829933987
 51
276.8427734126
  0
LINE
  5
C7
330
1F
100
AcDbEntity
  8
0
  6
Continuous
 62
     7
370
    25
100
AcDbLine
 10
213.8126749063
 20
82.2757782256
 30
0.0
 11
186.4735131731
 21
80.761609268
 31
0.0
  0
LINE
  5
C8
330
1F
100
AcDbEntity
  8
0
  6
Continuous
 62
     7
370
    25
100
AcDbLine
 10
186.4735131731
 20
33.238390732
 30
0.0
 11
213.8126749063
 21
31.7242217744
 31
0.0
  0
LINE
  5
C9
330
1F
100
AcDbEntity
  8
0
  6
Continuous
 62
     7
370
    25
100
AcDbLine
 10
214.6849003363
 20
31.7521865404
 30
0.0
 11
228.9532141036
 21
33.4643841924
 31
0.0
  0
LINE
  5
CA
330
1F
100
AcDbEntity
  8
0
  6
Continuous
 62
     7
370
    25
100
AcDbLine
 10
228.9532141036
 20
80.5356158076
 30
0.0
 11
214.6849003363
 21
82.2478134596
 31
0.0
  0
SPLINE
  5
CB
330
1F
100
AcDbEntity
  8
0
  6
Continuous
 62
     7
370
    25
100
AcDbSpline
210
0.0
220
0.0
230
1.0
 70
     8
 71
     3
 72
     9
 73
     5
 74
     0
 42
0.00000001
 43
0.00000001
 40
0.0
 40
0.0
 40
0.0
 40
0.0
 40
0.5000537661099209
 40
1.0
 40
1.0
 40
1.0
 40
1.0
 10
181.7500125
 20
68.5
 30
0.0
 10
182.5869748257182
 20
67.66125448004497
 30
0.0
 10
184.2607194956749
 20
65.98394380507516
 30
0.0
 10
185.9337973038567
 20
64.30725239559698
 30
0.0
 10
186.7702462530623
 20
63.46899684003252
 30
0.0
  0
SPLINE
  5
CC
330
1F
100
AcDbEntity
  8
0
  6
Continuous
 62
     7
370
    25
100
AcDbSpline
210
0.0
220
0.0
230
1.0
 70
     8
 71
     3
 72
     9
 73
     5
 74
     0
 42
0.00000001
 43
0.00000001
 40
0.0
 40
0.0
 40
0.0
 40
0.0
 40
0.4997357793403718
 40
0.9999999999999999
 40
0.9999999999999999
 40
0.9999999999999999
 40
0.9999999999999999
 10
186.7651432499455
 20
50.52969378045656
 30
0.0
 10
185.9304644889874
 20
49.69249209807998
 30
0.0
 10
184.260224343165
 20
48.01720344157905
 30
0.0
 10
182.5870445068417
 20
46.339363360535
 30
0.0
 10
181.7500125
 20
45.5
 30
0.0
  0
LINE
  5
CD
330
1F
100
AcDbEntity
  8
0
  6
Continuous
 62
     7
370
    25
100
AcDbLine
 10
186.4735131731
 20
80.761609268
 30
0.0
 11
181.7500125
 21
75.7692603097
 31
0.0
  0
LINE
  5
CE
330
1F
100
AcDbEntity
  8
0
  6
Continuous
 62
     7
370
    25
100
AcDbLine
 10
181.7500125
 20
38.2307396903
 30
0.0
 11
186.4735131731
 21
33.238390732
 31
0.0
  0
ARC
  5
CF
330
1F
100
AcDbEntity
  8
0
  6
Continuous
 62
     7
370
    25
100
AcDbCircle
 10
229.5489402067
 20
85.5
 30
0.0
 40
5.0
100
AcDbArc
 50
263.1572265874
 51
270.0
  0
ARC
  5
D0
330
1F
100
AcDbEntity
  8
0
  6
Continuous
 62
     7
370
    25
100
AcDbCircle
 10
229.5489402067
 20
28.5
 30
0.0
 40
5.0
100
AcDbArc
 50
90.0
 51
96.8427734126
  0
LINE
  5
D1
330
1F
100
AcDbEntity
  8
0
  6
Continuous
 62
     7
370
    25
100
AcDbLine
 10
254.2500125
 20
80.5
 30
0.0
 11
229.5489402067
 21
80.5
 31
0.0
  0
LINE
  5
D2
330
1F
100
AcDbEntity
  8
0
  6
Continuous
 62
     7
370
    25
100
AcDbLine
 10
229.5489402067
 20
33.5
 30
0.0
 11
254.2500125
 21
33.5
 31
0.0
  0
LINE
  5
D3
330
1F
100
AcDbEntity
  8
0
  6
Continuous
 62
     7
370
    25
100
AcDbLine
 10
264.2500125
 20
57.0
 30
0.0
 11
264.2500125
 21
107.0
 31
0.0
  0
LINE
  5
D4
330
1F
100
AcDbEntity
  8
0
  6
Continuous
 62
     7
370
    25
100
AcDbLine
 10
264.2500125
 20
7.0
 30
0.0
 11
264.2500125
 21
57.0
 31
0.0
  0
LINE
  5
D5
330
1F
100
AcDbEntity
  8
0
  6
Continuous
 62
     7
370
    25
100
AcDbLine
 10
254.2500125
 20
57.0
 30
0.0
 11
254.2500125
 21
107.0
 31
0.0
  0
LINE
  5
D6
330
1F
100
AcDbEntity
  8
0
  6
Continuous
 62
     7
370
    25
100
AcDbLine
 10
254.2500125
 20
7.0
 30
0.0
 11
254.2500125
 21
57.0
 31
0.0
  0
SPLINE
  5
D7
330
1F
100
AcDbEntity
  8
0
  6
Continuous
 62
     7
370
    25
100
AcDbSpline
210
0.0
220
0.0
230
1.0
 70
     8
 71
     3
 72
    21
 73
    17
 74
     0
 42
0.00000001
 43
0.00000001
 40
0.0
 40
0.0
 40
0.0
 40
0.0
 40
0.0391386653884158
 40
0.1185073351263491
 40
0.1958187068239881
 40
0.2753858442580329
 40
0.3525340656418989
 40
0.4319067722968226
 40
0.5093101461396384
 40
0.5889653702380839
 40
0.666252117874224
 40
0.7457758962771134
 40
0.8230993407559615
 40
0.9003451956156278
 40
0.9798270423276872
 40
1.0
 40
1.0
 40
1.0
 40
1.0
 10
186.7173119234209
 20
50.4662777500634
 30
0.0
 10
186.7062410361426
 20
50.45802968529021
 30
0.0
 10
186.6727196747006
 20
50.4330555026879
 30
0.0
 10
186.6103087762682
 20
50.24053875019528
 30
0.0
 10
186.5535872377924
 20
49.9009189703877
 30
0.0
 10
186.5174056598424
 20
49.43332469814482
 30
0.0
 10
186.4895375537224
 20
48.85228247504789
 30
0.0
 10
186.4556580191315
 20
48.18154335505776
 30
0.0
 10
186.4398970644663
 20
47.42789486668183
 30
0.0
 10
186.4179563303708
 20
46.62601173906285
 30
0.0
 10
186.3982368739954
 20
45.7853098182765
 30
0.0
 10
186.4021757061684
 20
44.94445087994088
 30
0.0
 10
186.4222583433393
 20
44.11957617690549
 30
0.0
 10
186.4433560700117
 20
43.33390886394159
 30
0.0
 10
186.45675972731
 20
42.78358970912384
 30
0.0
 10
186.4706927369216
 20
42.49881460872863
 30
0.0
 10
186.4735131730749
 20
42.44116805488821
 30
0.0
  0
SPLINE
  5
D8
330
1F
100
AcDbEntity
  8
0
  6
Continuous
 62
     7
370
    25
100
AcDbSpline
210
0.0
220
0.0
230
1.0
 70
    24
 71
     3
 72
     8
 73
     4
 74
     0
 42
0.00000001
 43
0.00000001
 40
0.0
 40
0.0
 40
0.0
 40
0.0
 40
1.0
 40
1.0
 40
1.0
 40
1.0
 10
186.7500125
 20
50.5
 30
0.0
 10
195.8621214020463
 20
50.5
 30
0.0
 10
204.9752921230626
 20
50.5
 30
0.0
 10
214.0891742332515
 20
50.5
 30
0.0
  0
SPLINE
  5
D9
330
1F
100
AcDbEntity
  8
0
  6
Continuous
 62
     7
370
    25
100
AcDbSpline
210
0.0
220
0.0
230
1.0
 70
    24
 71
     3
 72
     8
 73
     4
 74
     0
 42
0.00000001
 43
0.00000001
 40
0.0
 40
0.0
 40
0.0
 40
0.0
 40
1.0
 40
1.0
 40
1.0
 40
1.0
 10
214.0891742332532
 20
63.5
 30
0.0
 10
204.9752921230637
 20
63.5
 30
0.0
 10
195.8621214020469
 20
63.5
 30
0.0
 10
186.7500125
 20
63.5
 30
0.0
  0
SPLINE
  5
DA
330
1F
100
AcDbEntity
  8
0
  6
Continuous
 62
     7
370
    25
100
AcDbSpline
210
0.0
220
0.0
230
1.0
 70
     8
 71
     3
 72
    20
 73
    16
 74
     0
 42
0.00000001
 43
0.00000001
 40
0.0
 40
0.0
 40
0.0
 40
0.0
 40
0.0765101971056315
 40
0.1552304364457784
 40
0.2318748951301902
 40
0.3107540317949405
 40
0.3872485554644133
 40
0.4659503494000722
 40
0.5426685025063065
 40
0.6216169633213644
 40
0.6982436391811566
 40
0.777089432907121
 40
0.8537356597515844
 40
0.9303076755574532
 40
1.0
 40
1.0
 40
1.0
 40
1.0
 10
186.473513173075
 20
71.5588319451118
 30
0.0
 10
186.4604565929761
 20
71.33214260642585
 30
0.0
 10
186.4339662857501
 20
70.8722158736108
 30
0.0
 10
186.3955219098693
 20
70.09560419794006
 30
0.0
 10
186.3778629662415
 20
69.27213715168344
 30
0.0
 10
186.3845949689477
 20
68.432809651615
 30
0.0
 10
186.4054288013171
 20
67.588876264825
 30
0.0
 10
186.4218338433042
 20
66.77769693689704
 30
0.0
 10
186.4574526650186
 20
66.00736946777127
 30
0.0
 10
186.4874334658352
 20
65.31375864426036
 30
0.0
 10
186.5188201484564
 20
64.70515034806097
 30
0.0
 10
186.5686197062209
 20
64.20817794175231
 30
0.0
 10
186.6298234821062
 20
63.83600552724563
 30
0.0
 10
186.6829603451025
 20
63.59018086110531
 30
0.0
 10
186.7147176075875
 20
63.540660043065
 30
0.0
 10
186.7298493713294
 20
63.51706426495761
 30
0.0
  0
SPLINE
  5
DB
330
1F
100
AcDbEntity
  8
0
  6
Continuous
 62
     7
370
    25
100
AcDbSpline
210
0.0
220
0.0
230
1.0
 70
     8
 71
     3
 72
     8
 73
     4
 74
     0
 42
0.00000001
 43
0.00000001
 40
0.0
 40
0.0
 40
0.0
 40
0.0
 40
1.0
 40
1.0
 40
1.0
 40
1.0
 10
186.7358664751848
 20
63.50451283215154
 30
0.0
 10
186.740389901655
 20
63.50150430411809
 30
0.0
 10
186.745061048013
 20
63.5
 30
0.0
 10
186.7500124999999
 20
63.5
 30
0.0
  0
SPLINE
  5
DC
330
1F
100
AcDbEntity
  8
0
  6
Continuous
 62
     7
370
    25
100
AcDbSpline
210
0.0
220
0.0
230
1.0
 70
    24
 71
     3
 72
     8
 73
     4
 74
     0
 42
0.00000001
 43
0.00000001
 40
0.0
 40
0.0
 40
0.0
 40
0.0
 40
0.0014425875934959
 40
0.0014425875934959
 40
0.0014425875934959
 40
0.0014425875934959
 10
214.0891742332515
 20
50.5
 30
0.0
 10
218.847578646501
 20
50.5
 30
0.0
 10
223.6040459906975
 20
50.5
 30
0.0
 10
228.3574880005296
 20
50.5
 30
0.0
  0
SPLINE
  5
DD
330
1F
100
AcDbEntity
  8
0
  6
Continuous
 62
     7
370
    25
100
AcDbSpline
210
0.0
220
0.0
230
1.0
 70
    24
 71
     3
 72
     8
 73
     4
 74
     0
 42
0.00000001
 43
0.00000001
 40
0.0
 40
0.0
 40
0.0
 40
0.0
 40
0.0014425864147772
 40
0.0014425864147772
 40
0.0014425864147772
 40
0.0014425864147772
 10
228.3574880005296
 20
63.5
 30
0.0
 10
223.6040459906981
 20
63.5
 30
0.0
 10
218.8475786465021
 20
63.5
 30
0.0
 10
214.0891742332532
 20
63.5
 30
0.0
  0
LINE
  5
DE
330
1F
100
AcDbEntity
  8
0
  6
Continuous
 62
     7
370
    25
100
AcDbLine
 10
186.4735131731
 20
80.761609268
 30
0.0
 11
186.4735131731
 21
71.5588319451
 31
0.0
  0
LINE
  5
DF
330
1F
100
AcDbEntity
  8
0
  6
Continuous
 62
     7
370
    25
100
AcDbLine
 10
186.4735131731
 20
42.4411680549
 30
0.0
 11
186.4735131731
 21
33.238390732
 31
0.0
  0
SPLINE
  5
E0
330
1F
100
AcDbEntity
  8
0
  6
Continuous
 62
     7
370
    25
100
AcDbSpline
210
0.0
220
0.0
230
1.0
 70
    24
 71
     3
 72
     8
 73
     4
 74
     0
 42
0.00000001
 43
0.00000001
 40
0.0
 40
0.0
 40
0.0
 40
0.0
 40
0.0001194909102851
 40
0.0001194909102851
 40
0.0001194909102851
 40
0.0001194909102851
 10
228.3574880005296
 20
63.5
 30
0.0
 10
228.7523464954493
 20
63.5
 30
0.0
 10
229.1494815302446
 20
63.5
 30
0.0
 10
229.5489402067139
 20
63.5
 30
0.0
  0
SPLINE
  5
E1
330
1F
100
AcDbEntity
  8
0
  6
Continuous
 62
     7
370
    25
100
AcDbSpline
210
0.0
220
0.0
230
1.0
 70
    24
 71
     3
 72
     8
 73
     4
 74
     0
 42
0.00000001
 43
0.00000001
 40
0.0
 40
0.0
 40
0.0
 40
0.0
 40
0.0001194909102851
 40
0.0001194909102851
 40
0.0001194909102851
 40
0.0001194909102851
 10
229.5489402067139
 20
50.5
 30
0.0
 10
229.1494815302446
 20
50.5
 30
0.0
 10
228.7523464954493
 20
50.5
 30
0.0
 10
228.3574880005296
 20
50.5
 30
0.0
  0
LINE
  5
E2
330
1F
100
AcDbEntity
  8
0
  6
Continuous
 62
     7
370
    25
100
AcDbLine
 10
181.7500125
 20
68.5
 30
0.0
 11
186.4735131731
 21
71.5588319451
 31
0.0
  0
LINE
  5
E3
330
1F
100
AcDbEntity
  8
0
  6
Continuous
 62
     7
370
    25
100
AcDbLine
 10
186.4735131731
 20
42.4411680549
 30
0.0
 11
181.7500125
 21
45.5
 31
0.0
  0
LINE
  5
E4
330
1F
100
AcDbEntity
  8
0
  6
Continuous
 62
     7
370
    25
100
AcDbLine
 10
254.2500125
 20
63.5
 30
0.0
 11
229.5489402067
 21
63.5
 31
0.0
  0
LINE
  5
E5
330
1F
100
AcDbEntity
  8
0
  6
Continuous
 62
     7
370
    25
100
AcDbLine
 10
229.5489402067
 20
50.5
 30
0.0
 11
254.2500125
 21
50.5
 31
0.0
  0
LINE
  5
E6
330
1F
100
AcDbEntity
  8
0
  6
Continuous
 62
     7
370
    25
100
AcDbLine
 10
181.7500125
 20
68.5
 30
0.0
 11
181.7500125
 21
75.7692603097
 31
0.0
  0
LINE
  5
E7
330
1F
100
AcDbEntity
  8
0
  6
Continuous
 62
     7
370
    25
100
AcDbLine
 10
181.7500125
 20
38.2307396903
 30
0.0
 11
181.7500125
 21
45.5
 31
0.0
  0
LINE
  5
E8
330
1F
100
AcDbEntity
  8
0
  6
HIDDEN
 62
     7
370
    18
100
AcDbLine
 10
181.7500125
 20
68.5
 30
0.0
 11
186.7500125
 21
63.5
 31
0.0
  0
LINE
  5
E9
330
1F
100
AcDbEntity
  8
0
  6
HIDDEN
 62
     7
370
    18
100
AcDbLine
 10
186.7500125
 20
50.5
 30
0.0
 11
181.7500125
 21
45.5
 31
0.0
  0
ENDSEC
  0
SECTION
  2
OBJECTS
  0
DICTIONARY
  5
C
330
0
100
AcDbDictionary
281
     1
  3
ACAD_GROUP
350
D
  3
ACAD_LAYOUT
350
1A
  3
ACAD_MLINESTYLE
350
17
  3
ACAD_PLOTSETTINGS
350
19
  3
ACAD_PLOTSTYLENAME
350
E
  3
ACAD_SCALELIST
350
47
  3
DWGPROPS
350
EA
  0
DICTIONARY
  5
D
102
{ACAD_REACTORS
330
C
102
}
330
C
100
AcDbDictionary
281
     1
  0
DICTIONARY
  5
1A
102
{ACAD_REACTORS
330
C
102
}
330
C
100
AcDbDictionary
281
     1
  3
Layout1
350
1E
  3
Layout2
350
26
  3
Model
350
22
  0
DICTIONARY
  5
17
102
{ACAD_REACTORS
330
C
102
}
330
C
100
AcDbDictionary
281
     1
  3
Standard
350
18
  0
DICTIONARY
  5
19
102
{ACAD_REACTORS
330
C
102
}
330
C
100
AcDbDictionary
281
     1
  0
ACDBDICTIONARYWDFLT
  5
E
102
{ACAD_REACTORS
330
C
102
}
330
C
100
AcDbDictionary
281
     1
  3
Normal
350
F
100
AcDbDictionaryWithDefault
340
F
  0
DICTIONARY
  5
47
102
{ACAD_REACTORS
330
C
102
}
330
C
100
AcDbDictionary
281
     1
  3
A0
350
48
  3
A1
350
49
  3
A2
350
4A
  3
A3
350
4B
  3
A4
350
4C
  3
A5
350
4D
  3
A6
350
4E
  3
A7
350
4F
  3
A8
350
50
  3
A9
350
51
  3
B0
350
52
  3
B1
350
53
  3
B2
350
54
  3
B3
350
55
  3
B4
350
56
  3
B5
350
57
  3
B6
350
58
  0
XRECORD
  5
EA
102
{ACAD_REACTORS
330
C
102
}
330
C
100
AcDbXrecord
280
     1
  1
DWGPROPS COOKIE
  2

  3

  4

  6

  7

  8

  9

300
=
301
=
302
=
303
=
304
=
305
=
306
=
307
=
308
=
309
=
 40
0.0
 41
2461215.111047662
 42
2461215.111048079
  1

 90
        0
  0
LAYOUT
  5
1E
102
{ACAD_REACTORS
330
1A
102
}
330
1A
100
AcDbPlotSettings
  1

  2
none_device
  4

  6

 40
0.0
 41
0.0
 42
0.0
 43
0.0
 44
0.0
 45
0.0
 46
0.0
 47
0.0
 48
0.0
 49
0.0
140
0.0
141
0.0
142
1.0
143
1.0
 70
   688
 72
     1
 73
     0
 74
     5
  7

 75
    16
147
1.0
148
0.0
149
0.0
100
AcDbLayout
  1
Layout1
 70
     1
 71
     1
 10
0.0
 20
0.0
 11
420.0
 21
297.0
 12
0.0
 22
0.0
 32
0.0
 14
1.0000000000E+20
 24
1.0000000000E+20
 34
1.0000000000E+20
 15
-1.0000000000E+20
 25
-1.0000000000E+20
 35
-1.0000000000E+20
146
0.0
 13
0.0
 23
0.0
 33
0.0
 16
1.0
 26
0.0
 36
0.0
 17
0.0
 27
1.0
 37
0.0
 76
     0
330
1B
  0
LAYOUT
  5
26
102
{ACAD_REACTORS
330
1A
102
}
330
1A
100
AcDbPlotSettings
  1

  2
none_device
  4

  6

 40
0.0
 41
0.0
 42
0.0
 43
0.0
 44
0.0
 45
0.0
 46
0.0
 47
0.0
 48
0.0
 49
0.0
140
0.0
141
0.0
142
1.0
143
1.0
 70
   688
 72
     1
 73
     0
 74
     5
  7

 75
    16
147
1.0
148
0.0
149
0.0
100
AcDbLayout
  1
Layout2
 70
     1
 71
     2
 10
0.0
 20
0.0
 11
0.0
 21
0.0
 12
0.0
 22
0.0
 32
0.0
 14
0.0
 24
0.0
 34
0.0
 15
0.0
 25
0.0
 35
0.0
146
0.0
 13
0.0
 23
0.0
 33
0.0
 16
1.0
 26
0.0
 36
0.0
 17
0.0
 27
1.0
 37
0.0
 76
     0
330
23
  0
LAYOUT
  5
22
102
{ACAD_REACTORS
330
1A
102
}
330
1A
100
AcDbPlotSettings
  1

  2
none_device
  4
Letter_(8.50_x_11.00_Inches)
  6

 40
6.35
 41
6.35
 42
6.35000508
 43
6.35000508
 44
215.9
 45
279.4
 46
0.0
 47
0.0
 48
0.0
 49
0.0
140
0.0
141
0.0
142
1.0
143
1.0
 70
  1712
 72
     1
 73
     0
 74
     0
  7

 75
     0
147
1.0
148
0.0
149
0.0
100
AcDbLayout
  1
Model
 70
     1
 71
     0
 10
0.0
 20
0.0
 11
297.0
 21
210.0
 12
0.0
 22
0.0
 32
0.0
 14
0.0
 24
0.0
 34
0.0
 15
297.0
 25
210.0
 35
0.0
146
0.0
 13
0.0
 23
0.0
 33
0.0
 16
1.0
 26
0.0
 36
0.0
 17
0.0
 27
1.0
 37
0.0
 76
     0
330
1F
331
29
  0
MLINESTYLE
  5
18
102
{ACAD_REACTORS
330
17
102
}
330
17
100
AcDbMlineStyle
  2
Standard
 70
     0
  3

 62
   256
 51
90.0
 52
90.0
 71
     2
 49
0.5
 62
   256
  6
BYLAYER
 49
-0.5
 62
   256
  6
BYLAYER
  0
ACDBPLACEHOLDER
  5
F
102
{ACAD_REACTORS
330
E
102
}
330
E
  0
SCALE
  5
48
102
{ACAD_REACTORS
330
47
102
}
330
47
100
AcDbScale
 70
     0
300
1:1
140
1.0
141
1.0
290
     1
  0
SCALE
  5
49
102
{ACAD_REACTORS
330
47
102
}
330
47
100
AcDbScale
 70
     0
300
1:2
140
1.0
141
2.0
290
     0
  0
SCALE
  5
4A
102
{ACAD_REACTORS
330
47
102
}
330
47
100
AcDbScale
 70
     0
300
1:4
140
1.0
141
4.0
290
     0
  0
SCALE
  5
4B
102
{ACAD_REACTORS
330
47
102
}
330
47
100
AcDbScale
 70
     0
300
1:5
140
1.0
141
5.0
290
     0
  0
SCALE
  5
4C
102
{ACAD_REACTORS
330
47
102
}
330
47
100
AcDbScale
 70
     0
300
1:8
140
1.0
141
8.0
290
     0
  0
SCALE
  5
4D
102
{ACAD_REACTORS
330
47
102
}
330
47
100
AcDbScale
 70
     0
300
1:10
140
1.0
141
10.0
290
     0
  0
SCALE
  5
4E
102
{ACAD_REACTORS
330
47
102
}
330
47
100
AcDbScale
 70
     0
300
1:16
140
1.0
141
16.0
290
     0
  0
SCALE
  5
4F
102
{ACAD_REACTORS
330
47
102
}
330
47
100
AcDbScale
 70
     0
300
1:20
140
1.0
141
20.0
290
     0
  0
SCALE
  5
50
102
{ACAD_REACTORS
330
47
102
}
330
47
100
AcDbScale
 70
     0
300
1:30
140
1.0
141
30.0
290
     0
  0
SCALE
  5
51
102
{ACAD_REACTORS
330
47
102
}
330
47
100
AcDbScale
 70
     0
300
1:40
140
1.0
141
40.0
290
     0
  0
SCALE
  5
52
102
{ACAD_REACTORS
330
47
102
}
330
47
100
AcDbScale
 70
     0
300
1:50
140
1.0
141
50.0
290
     0
  0
SCALE
  5
53
102
{ACAD_REACTORS
330
47
102
}
330
47
100
AcDbScale
 70
     0
300
1:100
140
1.0
141
100.0
290
     0
  0
SCALE
  5
54
102
{ACAD_REACTORS
330
47
102
}
330
47
100
AcDbScale
 70
     0
300
2:1
140
2.0
141
1.0
290
     0
  0
SCALE
  5
55
102
{ACAD_REACTORS
330
47
102
}
330
47
100
AcDbScale
 70
     0
300
4:1
140
4.0
141
1.0
290
     0
  0
SCALE
  5
56
102
{ACAD_REACTORS
330
47
102
}
330
47
100
AcDbScale
 70
     0
300
8:1
140
8.0
141
1.0
290
     0
  0
SCALE
  5
57
102
{ACAD_REACTORS
330
47
102
}
330
47
100
AcDbScale
 70
     0
300
10:1
140
10.0
141
1.0
290
     0
  0
SCALE
  5
58
102
{ACAD_REACTORS
330
47
102
}
330
47
100
AcDbScale
 70
     0
300
100:1
140
100.0
141
1.0
290
     0
  0
ENDSEC
  0
EOF
