  0
SECTION
  2
HEADER
  9
$ACADVER
  1
AC1015
  9
$ACADMAINTVER
 70
     6
  9
$DWGCODEPAGE
  3
ANSI_936
  9
$INSBASE
 10
0.0
 20
0.0
 30
0.0
  9
$EXTMIN
 10
0.0
 20
0.0
 30
0.0
  9
$EXTMAX
 10
297.0
 20
210.0
 30
0.0
  9
$LIMMIN
 10
0.0
 20
0.0
  9
$LIMMAX
 10
297.0
 20
210.0
  9
$ORTHOMODE
 70
     0
  9
$REGENMODE
 70
     1
  9
$FILLMODE
 70
     1
  9
$QTEXTMODE
 70
     0
  9
$MIRRTEXT
 70
     1
  9
$LTSCALE
 40
1.0
  9
$ATTMODE
 70
     1
  9
$TEXTSIZE
 40
3.5
  9
$TRACEWID
 40
1.0
  9
$TEXTSTYLE
  7
Standard
  9
$CLAYER
  8
0
  9
$CELTYPE
  6
ByLayer
  9
$CECOLOR
 62
   256
  9
$CELTSCALE
 40
1.0
  9
$DISPSILH
 70
     0
  9
$DIMSCALE
 40
1.0
  9
$DIMASZ
 40
4.08
  9
$DIMEXO
 40
0.0
  9
$DIMDLI
 40
3.75
  9
$DIMRND
 40
0.0
  9
$DIMDLE
 40
0.0
  9
$DIMEXE
 40
2.0
  9
$DIMTP
 40
0.0
  9
$DIMTM
 40
0.0
  9
$DIMTXT
 40
3.5
  9
$DIMCEN
 40
2.5
  9
$DIMTSZ
 40
0.0
  9
$DIMTOL
 70
     0
  9
$DIMLIM
 70
     0
  9
$DIMTIH
 70
     1
  9
$DIMTOH
 70
     1
  9
$DIMSE1
 70
     0
  9
$DIMSE2
 70
     0
  9
$DIMTAD
 70
     1
  9
$DIMZIN
 70
     0
  9
$DIMBLK
  1

  9
$DIMASO
 70
     1
  9
$DIMSHO
 70
     1
  9
$DIMPOST
  1

  9
$DIMAPOST
  1

  9
$DIMALT
 70
     0
  9
$DIMALTD
 70
     3
  9
$DIMALTF
 40
0.0393700787
  9
$DIMLFAC
 40
2.0
  9
$DIMTOFL
 70
     1
  9
$DIMTVP
 40
0.0
  9
$DIMTIX
 70
     0
  9
$DIMSOXD
 70
     0
  9
$DIMSAH
 70
     0
  9
$DIMBLK1
  1

  9
$DIMBLK2
  1

  9
$DIMSTYLE
  2
ISO-25
  9
$DIMCLRD
 70
     0
  9
$DIMCLRE
 70
     0
  9
$DIMCLRT
 70
     0
  9
$DIMTFAC
 40
1.0
  9
$DIMGAP
 40
1.524
  9
$DIMJUST
 70
     0
  9
$DIMSD1
 70
     0
  9
$DIMSD2
 70
     0
  9
$DIMTOLJ
 70
     0
  9
$DIMTZIN
 70
     0
  9
$DIMALTZ
 70
     0
  9
$DIMALTTZ
 70
     0
  9
$DIMUPT
 70
     0
  9
$DIMDEC
 70
     2
  9
$DIMTDEC
 70
     2
  9
$DIMALTU
 70
     2
  9
$DIMALTTD
 70
     3
  9
$DIMTXSTY
  7
Standard
  9
$DIMAUNIT
 70
     0
  9
$DIMADEC
 70
     2
  9
$DIMALTRND
 40
0.0
  9
$DIMAZIN
 70
     0
  9
$DIMDSEP
 70
    44
  9
$DIMATFIT
 70
     3
  9
$DIMFRAC
 70
     0
  9
$DIMLDRBLK
  1

  9
$DIMLUNIT
 70
     2
  9
$DIMLWD
 70
    -2
  9
$DIMLWE
 70
    -2
  9
$DIMTMOVE
 70
     0
  9
$LUNITS
 70
     2
  9
$LUPREC
 70
     2
  9
$SKETCHINC
 40
1.0
  9
$FILLETRAD
 40
0.0
  9
$AUNITS
 70
     0
  9
$AUPREC
 70
     2
  9
$MENU
  1
.
  9
$ELEVATION
 40
0.0
  9
$PELEVATION
 40
0.0
  9
$THICKNESS
 40
0.0
  9
$LIMCHECK
 70
     0
  9
$CHAMFERA
 40
0.0
  9
$CHAMFERB
 40
0.0
  9
$CHAMFERC
 40
0.0
  9
$CHAMFERD
 40
0.0
  9
$SKPOLY
 70
     0
  9
$TDCREATE
 40
2461215.46316669
  9
$TDUCREATE
 40
2461215.129833357
  9
$TDUPDATE
 40
2461215.463167095
  9
$TDUUPDATE
 40
2461215.129833762
  9
$TDINDWG
 40
0.0000000116
  9
$TDUSRTIMER
 40
0.0000000116
  9
$USRTIMER
 70
     1
  9
$ANGBASE
 50
0.0
  9
$ANGDIR
 70
     0
  9
$PDMODE
 70
     0
  9
$PDSIZE
 40
-1.0
  9
$PLINEWID
 40
0.0
  9
$SPLFRAME
 70
     0
  9
$SPLINETYPE
 70
     6
  9
$SPLINESEGS
 70
     8
  9
$HANDSEED
  5
159
  9
$SURFTAB1
 70
     6
  9
$SURFTAB2
 70
     6
  9
$SURFTYPE
 70
     6
  9
$SURFU
 70
     6
  9
$SURFV
 70
     6
  9
$UCSBASE
  2

  9
$UCSNAME
  2

  9
$UCSORG
 10
0.0
 20
0.0
 30
0.0
  9
$UCSXDIR
 10
1.0
 20
0.0
 30
0.0
  9
$UCSYDIR
 10
0.0
 20
1.0
 30
0.0
  9
$UCSORTHOREF
  2

  9
$UCSORTHOVIEW
 70
     0
  9
$UCSORGTOP
 10
0.0
 20
0.0
 30
0.0
  9
$UCSORGBOTTOM
 10
0.0
 20
0.0
 30
0.0
  9
$UCSORGLEFT
 10
0.0
 20
0.0
 30
0.0
  9
$UCSORGRIGHT
 10
0.0
 20
0.0
 30
0.0
  9
$UCSORGFRONT
 10
0.0
 20
0.0
 30
0.0
  9
$UCSORGBACK
 10
0.0
 20
0.0
 30
0.0
  9
$PUCSBASE
  2

  9
$PUCSNAME
  2

  9
$PUCSORG
 10
0.0
 20
0.0
 30
0.0
  9
$PUCSXDIR
 10
1.0
 20
0.0
 30
0.0
  9
$PUCSYDIR
 10
0.0
 20
1.0
 30
0.0
  9
$PUCSORTHOREF
  2

  9
$PUCSORTHOVIEW
 70
     0
  9
$PUCSORGTOP
 10
0.0
 20
0.0
 30
0.0
  9
$PUCSORGBOTTOM
 10
0.0
 20
0.0
 30
0.0
  9
$PUCSORGLEFT
 10
0.0
 20
0.0
 30
0.0
  9
$PUCSORGRIGHT
 10
0.0
 20
0.0
 30
0.0
  9
$PUCSORGFRONT
 10
0.0
 20
0.0
 30
0.0
  9
$PUCSORGBACK
 10
0.0
 20
0.0
 30
0.0
  9
$USERI1
 70
     0
  9
$USERI2
 70
     0
  9
$USERI3
 70
     0
  9
$USERI4
 70
     0
  9
$USERI5
 70
     0
  9
$USERR1
 40
0.0
  9
$USERR2
 40
0.0
  9
$USERR3
 40
0.0
  9
$USERR4
 40
0.0
  9
$USERR5
 40
0.0
  9
$WORLDVIEW
 70
     1
  9
$SHADEDGE
 70
     3
  9
$SHADEDIF
 70
    70
  9
$TILEMODE
 70
     1
  9
$MAXACTVP
 70
    64
  9
$PINSBASE
 10
0.0
 20
0.0
 30
0.0
  9
$PLIMCHECK
 70
     0
  9
$PEXTMIN
 10
1.0000000000E+20
 20
1.0000000000E+20
 30
1.0000000000E+20
  9
$PEXTMAX
 10
-1.0000000000E+20
 20
-1.0000000000E+20
 30
-1.0000000000E+20
  9
$PLIMMIN
 10
0.0
 20
0.0
  9
$PLIMMAX
 10
420.0
 20
297.0
  9
$UNITMODE
 70
     0
  9
$VISRETAIN
 70
     1
  9
$PLINEGEN
 70
     0
  9
$PSLTSCALE
 70
     1
  9
$TREEDEPTH
 70
  3020
  9
$CMLSTYLE
  2
Standard
  9
$CMLJUST
 70
     0
  9
$CMLSCALE
 40
20.0
  9
$PROXYGRAPHICS
 70
     1
  9
$MEASUREMENT
 70
     1
  9
$CELWEIGHT
370
    -1
  9
$ENDCAPS
280
     0
  9
$JOINSTYLE
280
     0
  9
$LWDISPLAY
290
     1
  9
$INSUNITS
 70
     4
  9
$HYPERLINKBASE
  1

  9
$STYLESHEET
  1

  9
$XEDIT
290
     1
  9
$CEPSNTYPE
380
     0
  9
$PSTYLEMODE
290
     1
  9
$FINGERPRINTGUID
  2
{4a281dd7-3453-43a6-8329-15f504888c04}
  9
$VERSIONGUID
  2
{FAEB1C32-E019-11D5-929B-00C0DF256EC4}
  9
$EXTNAMES
290
     1
  9
$PSVPSCALE
 40
0.0
  9
$OLESTARTUP
290
     0
  0
ENDSEC
  0
SECTION
  2
CLASSES
  0
CLASS
  1
ACDBDICTIONARYWDFLT
  2
AcDbDictionaryWithDefault
  3
ObjectDBX Classes
 90
        0
280
     0
281
     0
  0
CLASS
  1
VISUALSTYLE
  2
AcDbVisualStyle
  3
ObjectDBX Classes
 90
     4095
280
     0
281
     0
  0
CLASS
  1
MATERIAL
  2
AcDbMaterial
  3
ObjectDBX Classes
 90
     1153
280
     0
281
     0
  0
CLASS
  1
SCALE
  2
AcDbScale
  3
ObjectDBX Classes
 90
     1153
280
     0
281
     0
  0
CLASS
  1
TABLESTYLE
  2
AcDbTableStyle
  3
ObjectDBX Classes
 90
     4095
280
     0
281
     0
  0
CLASS
  1
MLEADERSTYLE
  2
AcDbMLeaderStyle
  3
ACDB_MLEADERSTYLE_CLASS
 90
     4095
280
     0
281
     0
  0
CLASS
  1
SUN
  2
AcDbSun
  3
SCENEOE
 90
     1153
280
     0
281
     0
  0
CLASS
  1
ACDBPLACEHOLDER
  2
AcDbPlaceHolder
  3
ObjectDBX Classes
 90
        0
280
     0
281
     0
  0
CLASS
  1
LAYOUT
  2
AcDbLayout
  3
ObjectDBX Classes
 90
        0
280
     0
281
     0
  0
ENDSEC
  0
SECTION
  2
TABLES
  0
TABLE
  2
VPORT
  5
8
330
0
100
AcDbSymbolTable
 70
     1
  0
VPORT
  5
29
330
8
100
AcDbSymbolTableRecord
100
AcDbViewportTableRecord
  2
*Active
 70
     0
 10
0.0
 20
0.0
 11
1.0
 21
1.0
 12
148.5
 22
105.0
 13
0.0
 23
0.0
 14
10.0
 24
10.0
 15
10.0
 25
10.0
 16
0.0
 26
0.0
 36
1.0
 17
0.0
 27
0.0
 37
0.0
 40
210.0
 41
1.4142857143
 42
50.0
 43
0.0
 44
0.0
 50
0.0
 51
0.0
 71
     0
 72
  2000
 73
     1
 74
     3
 75
     0
 76
     0
 77
     0
 78
     0
281
     0
 65
     1
110
0.0
120
0.0
130
0.0
111
1.0
121
0.0
131
0.0
112
0.0
122
1.0
132
0.0
 79
     0
146
0.0
  0
ENDTAB
  0
TABLE
  2
LTYPE
  5
5
330
0
100
AcDbSymbolTable
 70
     6
  0
LTYPE
  5
14
330
5
100
AcDbSymbolTableRecord
100
AcDbLinetypeTableRecord
  2
ByBlock
 70
     0
  3

 72
    65
 73
     0
 40
0.0
  0
LTYPE
  5
15
330
5
100
AcDbSymbolTableRecord
100
AcDbLinetypeTableRecord
  2
ByLayer
 70
     0
  3

 72
    65
 73
     0
 40
0.0
  0
LTYPE
  5
16
330
5
100
AcDbSymbolTableRecord
100
AcDbLinetypeTableRecord
  2
Continuous
 70
     0
  3
Solid line
 72
    65
 73
     0
 40
0.0
  0
LTYPE
  5
5E
330
5
100
AcDbSymbolTableRecord
100
AcDbLinetypeTableRecord
  2
HIDDEN
 70
     0
  3
Hidden __ __ __ __ __ __ __ __ __ __ __ __ __ __
 72
    65
 73
     2
 40
1.905
 49
1.27
 74
     0
 49
-0.635
 74
     0
  0
LTYPE
  5
5F
330
5
100
AcDbSymbolTableRecord
100
AcDbLinetypeTableRecord
  2
PHANTOM
 70
     0
  3
Phantom ______  __  __  ______  __  __  ______
 72
    65
 73
     6
 40
12.7
 49
6.35
 74
     0
 49
-1.27
 74
     0
 49
1.27
 74
     0
 49
-1.27
 74
     0
 49
1.27
 74
     0
 49
-1.27
 74
     0
  0
LTYPE
  5
60
330
5
100
AcDbSymbolTableRecord
100
AcDbLinetypeTableRecord
  2
CENTER
 70
     0
  3
Center ____ _ ____ _ ____ _ ____ _ ____ _ ____
 72
    65
 73
     4
 40
10.16
 49
6.35
 74
     0
 49
-1.27
 74
     0
 49
1.27
 74
     0
 49
-1.27
 74
     0
  0
LTYPE
  5
61
330
5
100
AcDbSymbolTableRecord
100
AcDbLinetypeTableRecord
  2
CENTERX2
 70
     0
  3
Center (2x) ________  __  ________  __  _____
 72
    65
 73
     4
 40
20.32
 49
12.7
 74
     0
 49
-2.54
 74
     0
 49
2.54
 74
     0
 49
-2.54
 74
     0
  0
LTYPE
  5
62
330
5
100
AcDbSymbolTableRecord
100
AcDbLinetypeTableRecord
  2
DOT2
 70
     0
  3
Dot (.5x) ........................................
 72
    65
 73
     2
 40
0.635
 49
0.0
 74
     0
 49
-0.635
 74
     0
  0
ENDTAB
  0
TABLE
  2
LAYER
  5
2
330
0
100
AcDbSymbolTable
 70
    14
  0
LAYER
  5
10
330
2
100
AcDbSymbolTableRecord
100
AcDbLayerTableRecord
  2
0
 70
     0
 62
     7
  6
Continuous
370
    -3
390
F
  0
LAYER
  5
63
330
2
100
AcDbSymbolTableRecord
100
AcDbLayerTableRecord
  2
SLD-0
 70
     0
 62
     7
  6
Continuous
370
    -3
390
F
  0
LAYER
  5
64
330
2
100
AcDbSymbolTableRecord
100
AcDbLayerTableRecord
  2
5
 70
     0
 62
     7
  6
Continuous
370
    -3
390
F
  0
LAYER
  5
65
330
2
100
AcDbSymbolTableRecord
100
AcDbLayerTableRecord
  2
9
 70
     0
 62
     7
  6
Continuous
370
    -3
390
F
  0
LAYER
  5
66
330
2
100
AcDbSymbolTableRecord
100
AcDbLayerTableRecord
  2
10
 70
     0
 62
     7
  6
Continuous
370
    -3
390
F
  0
LAYER
  5
67
330
2
100
AcDbSymbolTableRecord
100
AcDbLayerTableRecord
  2
轮廓实线层
 70
     0
 62
     7
  6
Continuous
370
    50
390
F
  0
LAYER
  5
68
330
2
100
AcDbSymbolTableRecord
100
AcDbLayerTableRecord
  2
细线层
 70
     0
 62
     4
  6
Continuous
370
    25
390
F
  0
LAYER
  5
69
330
2
100
AcDbSymbolTableRecord
100
AcDbLayerTableRecord
  2
中心线层
 70
     0
 62
     1
  6
CENTERX2
370
    25
390
F
  0
LAYER
  5
6A
330
2
100
AcDbSymbolTableRecord
100
AcDbLayerTableRecord
  2
虚线层
 70
     0
 62
     6
  6
HIDDEN
370
    25
390
F
  0
LAYER
  5
6B
330
2
100
AcDbSymbolTableRecord
100
AcDbLayerTableRecord
  2
剖面线层
 70
     0
 62
     2
  6
Continuous
370
    25
390
F
  0
LAYER
  5
6C
330
2
100
AcDbSymbolTableRecord
100
AcDbLayerTableRecord
  2
文字层
 70
     0
 62
     3
  6
Continuous
370
    25
390
F
  0
LAYER
  5
6D
330
2
100
AcDbSymbolTableRecord
100
AcDbLayerTableRecord
  2
标注层
 70
     0
 62
     4
  6
Continuous
370
    25
390
F
  0
LAYER
  5
6E
330
2
100
AcDbSymbolTableRecord
100
AcDbLayerTableRecord
  2
符号标注层
 70
     0
 62
    31
  6
Continuous
370
    25
390
F
  0
LAYER
  5
6F
330
2
100
AcDbSymbolTableRecord
100
AcDbLayerTableRecord
  2
双点划线层
 70
     0
 62
     6
  6
PHANTOM
370
    25
390
F
  0
ENDTAB
  0
TABLE
  2
STYLE
  5
3
330
0
100
AcDbSymbolTable
 70
     1
  0
STYLE
  5
11
330
3
100
AcDbSymbolTableRecord
100
AcDbTextStyleTableRecord
  2
Standard
 70
     0
 40
0.0
 41
1.0
 50
0.0
 71
     0
 42
3.5
  3
txt
  4

  0
ENDTAB
  0
TABLE
  2
VIEW
  5
6
330
0
100
AcDbSymbolTable
 70
     0
  0
ENDTAB
  0
TABLE
  2
UCS
  5
7
330
0
100
AcDbSymbolTable
 70
     0
  0
ENDTAB
  0
TABLE
  2
APPID
  5
9
330
0
100
AcDbSymbolTable
 70
     1
  0
APPID
  5
12
330
9
100
AcDbSymbolTableRecord
100
AcDbRegAppTableRecord
  2
ACAD
 70
     0
  0
ENDTAB
  0
TABLE
  2
DIMSTYLE
  5
A
330
0
100
AcDbSymbolTable
 70
     1
100
AcDbDimStyleTable
  0
DIMSTYLE
105
27
330
A
100
AcDbSymbolTableRecord
100
AcDbDimStyleTableRecord
  2
ISO-25
 70
     0
 41
2.5
 42
0.625
 43
3.75
 44
1.25
 73
     0
 74
     0
 77
     1
 78
     8
140
2.5
141
2.5
143
0.0393700787
147
0.625
171
     3
172
     1
178
     0
271
     2
272
     2
274
     3
278
    44
283
     0
284
     8
340
11
  0
ENDTAB
  0
TABLE
  2
BLOCK_RECORD
  5
1
330
0
100
AcDbSymbolTable
 70
     5
  0
BLOCK_RECORD
  5
1F
330
1
100
AcDbSymbolTableRecord
100
AcDbBlockTableRecord
  2
*Model_Space
340
22
  0
BLOCK_RECORD
  5
1B
330
1
100
AcDbSymbolTableRecord
100
AcDbBlockTableRecord
  2
*Paper_Space
340
1E
  0
BLOCK_RECORD
  5
23
330
1
100
AcDbSymbolTableRecord
100
AcDbBlockTableRecord
  2
*Paper_Space0
340
26
  0
BLOCK_RECORD
  5
109
330
1
100
AcDbSymbolTableRecord
100
AcDbBlockTableRecord
  2
SW_CENTERMARKSYMBOL_0
340
0
102
{BLKREFS
331
114
102
}
  0
BLOCK_RECORD
  5
115
330
1
100
AcDbSymbolTableRecord
100
AcDbBlockTableRecord
  2
SW_CENTERMARKSYMBOL_1
340
0
102
{BLKREFS
331
120
102
}
  0
BLOCK_RECORD
  5
121
330
1
100
AcDbSymbolTableRecord
100
AcDbBlockTableRecord
  2
SW_CENTERMARKSYMBOL_2
340
0
102
{BLKREFS
331
12C
102
}
  0
BLOCK_RECORD
  5
12D
330
1
100
AcDbSymbolTableRecord
100
AcDbBlockTableRecord
  2
SW_CENTERMARKSYMBOL_3
340
0
102
{BLKREFS
331
138
102
}
  0
ENDTAB
  0
ENDSEC
  0
SECTION
  2
BLOCKS
  0
BLOCK
  5
20
330
1F
100
AcDbEntity
  8
0
100
AcDbBlockBegin
  2
*Model_Space
 70
     0
 10
0.0
 20
0.0
 30
0.0
  3
*Model_Space
  1

  0
ENDBLK
  5
21
330
1F
100
AcDbEntity
  8
0
100
AcDbBlockEnd
  0
BLOCK
  5
1C
330
1B
100
AcDbEntity
 67
     1
  8
0
100
AcDbBlockBegin
  2
*Paper_Space
 70
     0
 10
0.0
 20
0.0
 30
0.0
  3
*Paper_Space
  1

  0
ENDBLK
  5
1D
330
1B
100
AcDbEntity
 67
     1
  8
0
100
AcDbBlockEnd
  0
BLOCK
  5
24
330
23
100
AcDbEntity
  8
0
100
AcDbBlockBegin
  2
*Paper_Space0
 70
     0
 10
0.0
 20
0.0
 30
0.0
  3
*Paper_Space0
  1

  0
ENDBLK
  5
25
330
23
100
AcDbEntity
  8
0
100
AcDbBlockEnd
  0
BLOCK
  5
10A
330
109
100
AcDbEntity
  8
0
100
AcDbBlockBegin
  2
SW_CENTERMARKSYMBOL_0
 70
     0
 10
0.0
 20
0.0
 30
0.0
  3
SW_CENTERMARKSYMBOL_0
  1

  0
LINE
  5
10C
330
109
100
AcDbEntity
  8
10
 62
     0
100
AcDbLine
 10
0.0
 20
0.0
 30
0.0
 11
0.0
 21
2.5
 31
0.0
  0
LINE
  5
10D
330
109
100
AcDbEntity
  8
10
 62
     0
100
AcDbLine
 10
0.0
 20
0.0
 30
0.0
 11
-2.5
 21
0.0
 31
0.0
  0
LINE
  5
10E
330
109
100
AcDbEntity
  8
10
 62
     0
100
AcDbLine
 10
0.0
 20
0.0
 30
0.0
 11
0.0
 21
-2.5
 31
0.0
  0
LINE
  5
10F
330
109
100
AcDbEntity
  8
10
 62
     0
100
AcDbLine
 10
0.0
 20
0.0
 30
0.0
 11
2.5
 21
0.0
 31
0.0
  0
LINE
  5
110
330
109
100
AcDbEntity
  8
10
 62
     0
100
AcDbLine
 10
0.0
 20
2.5
 30
0.0
 11
0.0
 21
4.5454545455
 31
0.0
  0
LINE
  5
111
330
109
100
AcDbEntity
  8
10
 62
     0
100
AcDbLine
 10
-2.5
 20
0.0
 30
0.0
 11
-4.5454545455
 21
0.0
 31
0.0
  0
LINE
  5
112
330
109
100
AcDbEntity
  8
10
 62
     0
100
AcDbLine
 10
0.0
 20
-2.5
 30
0.0
 11
0.0
 21
-4.5454545455
 31
0.0
  0
LINE
  5
113
330
109
100
AcDbEntity
  8
10
 62
     0
100
AcDbLine
 10
2.5
 20
0.0
 30
0.0
 11
4.5454545455
 21
0.0
 31
0.0
  0
ENDBLK
  5
10B
330
109
100
AcDbEntity
  8
0
100
AcDbBlockEnd
  0
BLOCK
  5
116
330
115
100
AcDbEntity
  8
0
100
AcDbBlockBegin
  2
SW_CENTERMARKSYMBOL_1
 70
     0
 10
0.0
 20
0.0
 30
0.0
  3
SW_CENTERMARKSYMBOL_1
  1

  0
LINE
  5
118
330
115
100
AcDbEntity
  8
10
 62
     0
100
AcDbLine
 10
0.0
 20
0.0
 30
0.0
 11
0.0
 21
2.5
 31
0.0
  0
LINE
  5
119
330
115
100
AcDbEntity
  8
10
 62
     0
100
AcDbLine
 10
0.0
 20
0.0
 30
0.0
 11
-2.5
 21
0.0
 31
0.0
  0
LINE
  5
11A
330
115
100
AcDbEntity
  8
10
 62
     0
100
AcDbLine
 10
0.0
 20
0.0
 30
0.0
 11
0.0
 21
-2.5
 31
0.0
  0
LINE
  5
11B
330
115
100
AcDbEntity
  8
10
 62
     0
100
AcDbLine
 10
0.0
 20
0.0
 30
0.0
 11
2.5
 21
0.0
 31
0.0
  0
LINE
  5
11C
330
115
100
AcDbEntity
  8
10
 62
     0
100
AcDbLine
 10
0.0
 20
2.5
 30
0.0
 11
0.0
 21
4.5454545455
 31
0.0
  0
LINE
  5
11D
330
115
100
AcDbEntity
  8
10
 62
     0
100
AcDbLine
 10
-2.5
 20
0.0
 30
0.0
 11
-4.5454545455
 21
0.0
 31
0.0
  0
LINE
  5
11E
330
115
100
AcDbEntity
  8
10
 62
     0
100
AcDbLine
 10
0.0
 20
-2.5
 30
0.0
 11
0.0
 21
-4.5454545455
 31
0.0
  0
LINE
  5
11F
330
115
100
AcDbEntity
  8
10
 62
     0
100
AcDbLine
 10
2.5
 20
0.0
 30
0.0
 11
4.5454545455
 21
0.0
 31
0.0
  0
ENDBLK
  5
117
330
115
100
AcDbEntity
  8
0
100
AcDbBlockEnd
  0
BLOCK
  5
122
330
121
100
AcDbEntity
  8
0
100
AcDbBlockBegin
  2
SW_CENTERMARKSYMBOL_2
 70
     0
 10
0.0
 20
0.0
 30
0.0
  3
SW_CENTERMARKSYMBOL_2
  1

  0
LINE
  5
124
330
121
100
AcDbEntity
  8
10
 62
     0
100
AcDbLine
 10
0.0
 20
0.0
 30
0.0
 11
0.0
 21
2.5
 31
0.0
  0
LINE
  5
125
330
121
100
AcDbEntity
  8
10
 62
     0
100
AcDbLine
 10
0.0
 20
0.0
 30
0.0
 11
-2.5
 21
0.0
 31
0.0
  0
LINE
  5
126
330
121
100
AcDbEntity
  8
10
 62
     0
100
AcDbLine
 10
0.0
 20
0.0
 30
0.0
 11
0.0
 21
-2.5
 31
0.0
  0
LINE
  5
127
330
121
100
AcDbEntity
  8
10
 62
     0
100
AcDbLine
 10
0.0
 20
0.0
 30
0.0
 11
2.5
 21
0.0
 31
0.0
  0
LINE
  5
128
330
121
100
AcDbEntity
  8
10
 62
     0
100
AcDbLine
 10
0.0
 20
2.5
 30
0.0
 11
0.0
 21
4.5454545455
 31
0.0
  0
LINE
  5
129
330
121
100
AcDbEntity
  8
10
 62
     0
100
AcDbLine
 10
-2.5
 20
0.0
 30
0.0
 11
-4.5454545455
 21
0.0
 31
0.0
  0
LINE
  5
12A
330
121
100
AcDbEntity
  8
10
 62
     0
100
AcDbLine
 10
0.0
 20
-2.5
 30
0.0
 11
0.0
 21
-4.5454545455
 31
0.0
  0
LINE
  5
12B
330
121
100
AcDbEntity
  8
10
 62
     0
100
AcDbLine
 10
2.5
 20
0.0
 30
0.0
 11
4.5454545455
 21
0.0
 31
0.0
  0
ENDBLK
  5
123
330
121
100
AcDbEntity
  8
0
100
AcDbBlockEnd
  0
BLOCK
  5
12E
330
12D
100
AcDbEntity
  8
0
100
AcDbBlockBegin
  2
SW_CENTERMARKSYMBOL_3
 70
     0
 10
0.0
 20
0.0
 30
0.0
  3
SW_CENTERMARKSYMBOL_3
  1

  0
LINE
  5
130
330
12D
100
AcDbEntity
  8
10
 62
     0
100
AcDbLine
 10
0.0
 20
0.0
 30
0.0
 11
0.0
 21
2.5
 31
0.0
  0
LINE
  5
131
330
12D
100
AcDbEntity
  8
10
 62
     0
100
AcDbLine
 10
0.0
 20
0.0
 30
0.0
 11
-2.5
 21
0.0
 31
0.0
  0
LINE
  5
132
330
12D
100
AcDbEntity
  8
10
 62
     0
100
AcDbLine
 10
0.0
 20
0.0
 30
0.0
 11
0.0
 21
-2.5
 31
0.0
  0
LINE
  5
133
330
12D
100
AcDbEntity
  8
10
 62
     0
100
AcDbLine
 10
0.0
 20
0.0
 30
0.0
 11
2.5
 21
0.0
 31
0.0
  0
LINE
  5
134
330
12D
100
AcDbEntity
  8
10
 62
     0
100
AcDbLine
 10
0.0
 20
2.5
 30
0.0
 11
0.0
 21
4.5454545455
 31
0.0
  0
LINE
  5
135
330
12D
100
AcDbEntity
  8
10
 62
     0
100
AcDbLine
 10
-2.5
 20
0.0
 30
0.0
 11
-4.5454545455
 21
0.0
 31
0.0
  0
LINE
  5
136
330
12D
100
AcDbEntity
  8
10
 62
     0
100
AcDbLine
 10
0.0
 20
-2.5
 30
0.0
 11
0.0
 21
-4.5454545455
 31
0.0
  0
LINE
  5
137
330
12D
100
AcDbEntity
  8
10
 62
     0
100
AcDbLine
 10
2.5
 20
0.0
 30
0.0
 11
4.5454545455
 21
0.0
 31
0.0
  0
ENDBLK
  5
12F
330
12D
100
AcDbEntity
  8
0
100
AcDbBlockEnd
  0
ENDSEC
  0
SECTION
  2
ENTITIES
  0
LINE
  5
70
330
1F
100
AcDbEntity
  8
0
  6
Continuous
 62
     7
370
    25
100
AcDbLine
 10
132.6989330534
 20
81.8105549268
 30
0.0
 11
119.6647033103
 21
81.8105549268
 31
0.0
  0
LINE
  5
71
330
1F
100
AcDbEntity
  8
0
  6
Continuous
 62
     7
370
    25
100
AcDbLine
 10
46.3352966897
 20
81.8105549268
 30
0.0
 11
33.3010669466
 21
81.8105549268
 31
0.0
  0
LINE
  5
72
330
1F
100
AcDbEntity
  8
0
  6
Continuous
 62
     7
370
    25
100
AcDbLine
 10
119.3636363636
 20
35.8258087095
 30
0.0
 11
120.2727272727
 21
36.7348996186
 31
0.0
  0
LINE
  5
73
330
1F
100
AcDbEntity
  8
0
  6
Continuous
 62
     7
370
    25
100
AcDbLine
 10
133.0
 20
36.7348996186
 30
0.0
 11
120.2727272727
 21
36.7348996186
 31
0.0
  0
LINE
  5
74
330
1F
100
AcDbEntity
  8
0
  6
Continuous
 62
     7
370
    25
100
AcDbLine
 10
133.0
 20
35.8258087095
 30
0.0
 11
133.0
 21
36.7348996186
 31
0.0
  0
LINE
  5
75
330
1F
100
AcDbEntity
  8
0
  6
Continuous
 62
     7
370
    25
100
AcDbLine
 10
119.3636363636
 20
35.8258087095
 30
0.0
 11
133.0
 21
35.8258087095
 31
0.0
  0
LINE
  5
76
330
1F
100
AcDbEntity
  8
0
  6
Continuous
 62
     7
370
    25
100
AcDbLine
 10
46.6363636364
 20
35.8258087095
 30
0.0
 11
46.6363636364
 21
32.1894450732
 31
0.0
  0
LINE
  5
77
330
1F
100
AcDbEntity
  8
0
  6
Continuous
 62
     7
370
    25
100
AcDbLine
 10
33.0
 20
32.1894450732
 30
0.0
 11
33.0
 21
35.8258087095
 31
0.0
  0
LINE
  5
78
330
1F
100
AcDbEntity
  8
0
  6
Continuous
 62
     7
370
    25
100
AcDbLine
 10
33.0
 20
35.8258087095
 30
0.0
 11
46.6363636364
 21
35.8258087095
 31
0.0
  0
LINE
  5
79
330
1F
100
AcDbEntity
  8
0
  6
Continuous
 62
     7
370
    25
100
AcDbLine
 10
46.6363636364
 20
32.1894450732
 30
0.0
 11
33.0
 21
32.1894450732
 31
0.0
  0
LINE
  5
7A
330
1F
100
AcDbEntity
  8
0
  6
Continuous
 62
     7
370
    25
100
AcDbLine
 10
33.0
 20
36.7348996186
 30
0.0
 11
33.0
 21
35.8258087095
 31
0.0
  0
LINE
  5
7B
330
1F
100
AcDbEntity
  8
0
  6
Continuous
 62
     7
370
    25
100
AcDbLine
 10
45.7272727273
 20
36.7348996186
 30
0.0
 11
33.0
 21
36.7348996186
 31
0.0
  0
LINE
  5
7C
330
1F
100
AcDbEntity
  8
0
  6
Continuous
 62
     7
370
    25
100
AcDbLine
 10
45.7272727273
 20
36.7348996186
 30
0.0
 11
46.6363636364
 21
35.8258087095
 31
0.0
  0
LINE
  5
7D
330
1F
100
AcDbEntity
  8
0
  6
Continuous
 62
     7
370
    25
100
AcDbLine
 10
119.3636363636
 20
35.8258087095
 30
0.0
 11
119.3636363636
 21
32.1894450732
 31
0.0
  0
LINE
  5
7E
330
1F
100
AcDbEntity
  8
0
  6
Continuous
 62
     7
370
    25
100
AcDbLine
 10
133.0
 20
35.8258087095
 30
0.0
 11
133.0
 21
32.1894450732
 31
0.0
  0
LINE
  5
7F
330
1F
100
AcDbEntity
  8
0
  6
Continuous
 62
     7
370
    25
100
AcDbLine
 10
119.3636363636
 20
32.1894450732
 30
0.0
 11
133.0
 21
32.1894450732
 31
0.0
  0
SPLINE
  5
80
330
1F
100
AcDbEntity
  8
0
  6
Continuous
 62
     7
370
    25
100
AcDbSpline
210
0.0
220
0.0
230
1.0
 70
     8
 71
     3
 72
    46
 73
    42
 74
     0
 42
0.00000001
 43
0.00000001
 40
0.0
 40
0.0
 40
0.0
 40
0.0
 40
0.0312500000000001
 40
0.0312500000000001
 40
0.0625000000000003
 40
0.0625000000000003
 40
0.0937500000000004
 40
0.0937500000000004
 40
0.1250000000000006
 40
0.1250000000000006
 40
0.1875000000000007
 40
0.1875000000000007
 40
0.2187500000000007
 40
0.2187500000000007
 40
0.2500000000000007
 40
0.2500000000000007
 40
0.3125000000000007
 40
0.3125000000000007
 40
0.3750000000000007
 40
0.3750000000000007
 40
0.4375000000000007
 40
0.4375000000000007
 40
0.5000000000000007
 40
0.5000000000000007
 40
0.6250000000000007
 40
0.6250000000000007
 40
0.6875000000000006
 40
0.6875000000000006
 40
0.7500000000000006
 40
0.7500000000000006
 40
0.8125000000000004
 40
0.8125000000000004
 40
0.8750000000000004
 40
0.8750000000000004
 40
0.9062500000000003
 40
0.9062500000000003
 40
0.9375000000000002
 40
0.9375000000000002
 40
0.9687500000000002
 40
0.9687500000000002
 40
1.0
 40
1.0
 40
1.0
 40
1.0
 10
46.63636363636365
 20
35.82580870951469
 30
0.0
 10
46.63636363636365
 20
35.82580870951468
 30
0.0
 10
46.6393796998146
 20
35.82515000079317
 30
0.0
 10
46.66936182715511
 20
35.82485495950177
 30
0.0
 10
46.69592643277151
 20
35.82500878160186
 30
0.0
 10
46.77908399028151
 20
35.82514524633275
 30
0.0
 10
46.83560866714862
 20
35.82522103314936
 30
0.0
 10
46.97876564542683
 20
35.82647201627437
 30
0.0
 10
47.06538204395755
 20
35.8266701144547
 30
0.0
 10
47.36376231212514
 20
35.82255188289671
 30
0.0
 10
47.61371056064665
 20
35.82016369270921
 30
0.0
 10
48.05203422863968
 20
35.82531001686707
 30
0.0
 10
48.20932254313152
 20
35.82741359421659
 30
0.0
 10
48.54111044874126
 20
35.82894253204958
 30
0.0
 10
48.71567439094737
 20
35.82836568664656
 30
0.0
 10
49.26182659398755
 20
35.8246816187083
 30
0.0
 10
49.65537523791961
 20
35.82189774281015
 30
0.0
 10
50.48950042459217
 20
35.82268813197471
 30
0.0
 10
50.93024697948834
 20
35.82514168282542
 30
0.0
 10
51.8540728984169
 20
35.82732767434504
 30
0.0
 10
52.33745938422491
 20
35.8268635426731
 30
0.0
 10
53.34370084729852
 20
35.82518383514752
 30
0.0
 10
53.86517284683625
 20
35.82465613709852
 30
0.0
 10
55.46895489852094
 20
35.8261556711572
 30
0.0
 10
56.59427634289817
 20
35.82643839084896
 30
0.0
 10
58.38171135332308
 20
35.8260751108341
 30
0.0
 10
58.99406293860371
 20
35.82602677834281
 30
0.0
 10
60.25653205744671
 20
35.82538819252294
 30
0.0
 10
60.90852724188544
 20
35.82488261677279
 30
0.0
 10
62.23663655586723
 20
35.82569042378145
 30
0.0
 10
62.91523988344139
 20
35.826520485877
 30
0.0
 10
64.30699618556747
 20
35.8241875141387
 30
0.0
 10
65.01983496180527
 20
35.82465588614583
 30
0.0
 10
66.12131873203624
 20
35.82610452309651
 30
0.0
 10
66.49499462792095
 20
35.82664816170902
 30
0.0
 10
67.24316898258128
 20
35.82625226581042
 30
0.0
 10
67.61881538159491
 20
35.8253353624063
 30
0.0
 10
68.3729798593885
 20
35.82417853673374
 30
0.0
 10
68.75150994052119
 20
35.82394632882821
 30
0.0
 10
69.5108148920112
 20
35.82457202614524
 30
0.0
 10
69.89162967659294
 20
35.8258087095147
 30
0.0
 10
70.2727272727273
 20
35.82580870951469
 30
0.0
  0
SPLINE
  5
81
330
1F
100
AcDbEntity
  8
0
  6
Continuous
 62
     7
370
    25
100
AcDbSpline
210
0.0
220
0.0
230
1.0
 70
    24
 71
     3
 72
    26
 73
    22
 74
     0
 42
0.00000001
 43
0.00000001
 40
0.0
 40
0.0
 40
0.0
 40
0.0
 40
0.311882446668628
 40
0.311882446668628
 40
0.311882446668628
 40
0.623764893337256
 40
0.623764893337256
 40
0.623764893337256
 40
0.935647340005885
 40
0.935647340005885
 40
0.935647340005885
 40
1.24752978667451
 40
1.24752978667451
 40
1.24752978667451
 40
1.55941223334314
 40
1.55941223334314
 40
1.55941223334314
 40
1.87129468001177
 40
1.87129468001177
 40
1.87129468001177
 40
2.1831771266804
 40
2.1831771266804
 40
2.1831771266804
 40
2.1831771266804
 10
46.63636363636365
 20
32.18944507315106
 30
0.0
 10
46.63636363636365
 20
32.18944507315106
 30
0.0
 10
46.64924920764857
 20
32.18944507315106
 30
0.0
 10
46.91453867463339
 20
32.18944507315106
 30
0.0
 10
47.17982814161811
 20
32.18944507315106
 30
0.0
 10
47.69752150430274
 20
32.18944507315106
 30
0.0
 10
48.55141379581675
 20
32.18944507315106
 30
0.0
 10
49.40530608733075
 20
32.18944507315106
 30
0.0
 10
50.5953973076742
 20
32.18944507315106
 30
0.0
 10
52.04641359815602
 20
32.18944507315106
 30
0.0
 10
53.49742988863792
 20
32.18944507315106
 30
0.0
 10
55.2093712492582
 20
32.18944507315106
 30
0.0
 10
56.96490225566819
 20
32.18944507315106
 30
0.0
 10
58.7204332620782
 20
32.18944507315106
 30
0.0
 10
60.51955391427794
 20
32.18944507315106
 30
0.0
 10
62.20220324428475
 20
32.18944507315106
 30
0.0
 10
63.88485257429156
 20
32.18944507315106
 30
0.0
 10
65.45103058210547
 20
32.18944507315106
 30
0.0
 10
66.81335084542448
 20
32.18944507315106
 30
0.0
 10
68.17567110874347
 20
32.18944507315106
 30
0.0
 10
69.33413362756755
 20
32.18944507315106
 30
0.0
 10
70.2727272727273
 20
32.18944507315106
 30
0.0
  0
SPLINE
  5
82
330
1F
100
AcDbEntity
  8
0
  6
Continuous
 62
     7
370
    25
100
AcDbSpline
210
0.0
220
0.0
230
1.0
 70
     8
 71
     3
 72
    12
 73
     8
 74
     0
 42
0.00000001
 43
0.00000001
 40
0.0
 40
0.0
 40
0.0
 40
0.0
 40
0.4999999999999998
 40
0.4999999999999998
 40
0.7499999999999999
 40
0.7499999999999999
 40
1.0
 40
1.0
 40
1.0
 40
1.0
 10
56.68128834982561
 20
36.7355399391331
 30
0.0
 10
56.33007641383768
 20
36.61733065147001
 30
0.0
 10
55.94489931188194
 20
36.55541216370462
 30
0.0
 10
55.30975748618787
 20
36.55505415990784
 30
0.0
 10
55.08709351701702
 20
36.57056332045336
 30
0.0
 10
54.63210485567375
 20
36.63155301179613
 30
0.0
 10
54.39925039438355
 20
36.67684950901313
 30
0.0
 10
54.16150656206399
 20
36.73573870175328
 30
0.0
  0
SPLINE
  5
83
330
1F
100
AcDbEntity
  8
0
  6
Continuous
 62
     7
370
    25
100
AcDbSpline
210
0.0
220
0.0
230
1.0
 70
    24
 71
     3
 72
    24
 73
    20
 74
     0
 42
0.00000001
 43
0.00000001
 40
0.0
 40
0.0
 40
0.0
 40
0.0
 40
0.2499999999999987
 40
0.2499999999999987
 40
0.3749999999999984
 40
0.3749999999999984
 40
0.4999999999999982
 40
0.4999999999999982
 40
0.5624999999999984
 40
0.5624999999999984
 40
0.6249999999999987
 40
0.6249999999999987
 40
0.6874999999999989
 40
0.6874999999999989
 40
0.7499999999999991
 40
0.7499999999999991
 40
0.8749999999999996
 40
0.8749999999999996
 40
1.0
 40
1.0
 40
1.0
 40
1.0
 10
70.2727272727273
 20
36.7348996186056
 30
0.0
 10
69.6357937458201
 20
36.7348996186056
 30
0.0
 10
68.81529165339303
 20
36.7348996186056
 30
0.0
 10
67.35281264614557
 20
36.7348996186056
 30
0.0
 10
66.82482972788186
 20
36.7348996186056
 30
0.0
 10
65.6842885259132
 20
36.7348996186056
 30
0.0
 10
65.07201249473775
 20
36.7348996186056
 30
0.0
 10
64.10182840304012
 20
36.7348996186056
 30
0.0
 10
63.76973241818352
 20
36.7348996186056
 30
0.0
 10
63.09046425082353
 20
36.7348996186056
 30
0.0
 10
62.74397079452589
 20
36.7348996186056
 30
0.0
 10
62.05629415145954
 20
36.7348996186056
 30
0.0
 10
61.71686376698074
 20
36.7348996186056
 30
0.0
 10
61.04977310982018
 20
36.7348996186056
 30
0.0
 10
60.72095250132666
 20
36.7348996186056
 30
0.0
 10
59.7415717211236
 20
36.7348996186056
 30
0.0
 10
59.09956693332781
 20
36.7348996186056
 30
0.0
 10
57.85693010911642
 20
36.7348996186056
 30
0.0
 10
57.25932959641342
 20
36.7348996186056
 30
0.0
 10
56.68192165533907
 20
36.7348996186056
 30
0.0
  0
SPLINE
  5
84
330
1F
100
AcDbEntity
  8
0
  6
Continuous
 62
     7
370
    25
100
AcDbSpline
210
0.0
220
0.0
230
1.0
 70
    24
 71
     3
 72
    26
 73
    22
 74
     0
 42
0.00000001
 43
0.00000001
 40
0.0
 40
0.0
 40
0.0
 40
0.0
 40
0.0624999999999998
 40
0.0624999999999998
 40
0.1249999999999997
 40
0.1249999999999997
 40
0.2499999999999994
 40
0.2499999999999994
 40
0.3124999999999994
 40
0.3124999999999994
 40
0.3749999999999994
 40
0.3749999999999994
 40
0.4374999999999994
 40
0.4374999999999994
 40
0.4999999999999994
 40
0.4999999999999994
 40
0.6249999999999996
 40
0.6249999999999996
 40
0.7499999999999997
 40
0.7499999999999997
 40
1.0
 40
1.0
 40
1.0
 40
1.0
 10
54.16184414505304
 20
36.7348996186056
 30
0.0
 10
53.77803463401697
 20
36.7348996186056
 30
0.0
 10
53.3983457980214
 20
36.7348996186056
 30
0.0
 10
52.64817988069895
 20
36.7348996186056
 30
0.0
 10
52.27730316792327
 20
36.7348996186056
 30
0.0
 10
51.1858798487562
 20
36.7348996186056
 30
0.0
 10
50.48802613515493
 20
36.7348996186056
 30
0.0
 10
49.52075535992063
 20
36.7348996186056
 30
0.0
 10
49.21108198797072
 20
36.7348996186056
 30
0.0
 10
48.62047736571682
 20
36.7348996186056
 30
0.0
 10
48.33872230340808
 20
36.7348996186056
 30
0.0
 10
47.81237486800086
 20
36.7348996186056
 30
0.0
 10
47.56850308601697
 20
36.7348996186056
 30
0.0
 10
47.13501573866429
 20
36.7348996186056
 30
0.0
 10
46.94697059270495
 20
36.7348996186056
 30
0.0
 10
46.47476846062414
 20
36.7348996186056
 30
0.0
 10
46.27360274571033
 20
36.7348996186056
 30
0.0
 10
45.98627973938005
 20
36.7348996186056
 30
0.0
 10
45.90255425970778
 20
36.7348996186056
 30
0.0
 10
45.73014485564515
 20
36.7348996186056
 30
0.0
 10
45.72727272727274
 20
36.7348996186056
 30
0.0
 10
45.72727272727275
 20
36.7348996186056
 30
0.0
  0
SPLINE
  5
85
330
1F
100
AcDbEntity
  8
0
  6
Continuous
 62
     7
370
    25
100
AcDbSpline
210
0.0
220
0.0
230
1.0
 70
     8
 71
     3
 72
    46
 73
    42
 74
     0
 42
0.00000001
 43
0.00000001
 40
0.0
 40
0.0
 40
0.0
 40
0.0
 40
0.0312499999999999
 40
0.0312499999999999
 40
0.0624999999999998
 40
0.0624999999999998
 40
0.0937499999999996
 40
0.0937499999999996
 40
0.1249999999999995
 40
0.1249999999999995
 40
0.1874999999999995
 40
0.1874999999999995
 40
0.2187499999999995
 40
0.2187499999999995
 40
0.2499999999999996
 40
0.2499999999999996
 40
0.3124999999999996
 40
0.3124999999999996
 40
0.3749999999999996
 40
0.3749999999999996
 40
0.4374999999999997
 40
0.4374999999999997
 40
0.4999999999999998
 40
0.4999999999999998
 40
0.6249999999999997
 40
0.6249999999999997
 40
0.6874999999999998
 40
0.6874999999999998
 40
0.7499999999999999
 40
0.7499999999999999
 40
0.8125
 40
0.8125
 40
0.875
 40
0.875
 40
0.90625
 40
0.90625
 40
0.9375
 40
0.9375
 40
0.96875
 40
0.96875
 40
1.0
 40
1.0
 40
1.0
 40
1.0
 10
95.72727272727273
 20
35.82580870951469
 30
0.0
 10
96.10970987963009
 20
35.82580870951468
 30
0.0
 10
96.49199798687673
 20
35.82389687019703
 30
0.0
 10
97.25532372838266
 20
35.82362072792434
 30
0.0
 10
97.63638244591765
 20
35.82447544622521
 30
0.0
 10
98.39692363520109
 20
35.825214160336
 30
0.0
 10
98.77575506930935
 20
35.82534414183368
 30
0.0
 10
99.52199932305292
 20
35.82690832582853
 30
0.0
 10
99.89058861664321
 20
35.82732025095365
 30
0.0
 10
100.9847900715357
 20
35.82349139507377
 30
0.0
 10
101.6989400355757
 20
35.82057813620924
 30
0.0
 10
102.7512158360587
 20
35.82526413835657
 30
0.0
 10
103.0997334951812
 20
35.82730783282921
 30
0.0
 10
103.7846282821469
 20
35.82891984811314
 30
0.0
 10
104.1211753444567
 20
35.82848713956348
 30
0.0
 10
105.1155049940372
 20
35.8253583998377
 30
0.0
 10
105.7583093431453
 20
35.82301572421145
 30
0.0
 10
107.0117145295067
 20
35.82419987621964
 30
0.0
 10
107.6222014141376
 20
35.82665595619328
 30
0.0
 10
108.8141006309981
 20
35.82867446328024
 30
0.0
 10
109.395294084672
 20
35.82800962100075
 30
0.0
 10
110.5305686216917
 20
35.8257748343915
 30
0.0
 10
111.0832160453445
 20
35.82491460484869
 30
0.0
 10
112.6860053955696
 20
35.8255752223735
 30
0.0
 10
113.6878889106246
 20
35.82553704730755
 30
0.0
 10
115.0731051338548
 20
35.82533478121691
 30
0.0
 10
115.5152649632582
 20
35.8254381234011
 30
0.0
 10
116.3547746903326
 20
35.82512503226648
 30
0.0
 10
116.7529885638703
 20
35.8247891564786
 30
0.0
 10
117.4801931211976
 20
35.82586560522417
 30
0.0
 10
117.8098592912766
 20
35.82674500086249
 30
0.0
 10
118.3885810323944
 20
35.82416586150755
 30
0.0
 10
118.6383715354231
 20
35.82440727892478
 30
0.0
 10
118.9380301180242
 20
35.8256304365373
 30
0.0
 10
119.0253649679521
 20
35.82611628373913
 30
0.0
 10
119.1677644036887
 20
35.82569252427763
 30
0.0
 10
119.2231784273776
 20
35.82480790040184
 30
0.0
 10
119.3049043894142
 20
35.82377654251615
 30
0.0
 10
119.3310956005466
 20
35.82364101680021
 30
0.0
 10
119.3606624258543
 20
35.82446669352763
 30
0.0
 10
119.3636363636364
 20
35.82580870951468
 30
0.0
 10
119.3636363636364
 20
35.82580870951469
 30
0.0
  0
SPLINE
  5
86
330
1F
100
AcDbEntity
  8
0
  6
Continuous
 62
     7
370
    25
100
AcDbSpline
210
0.0
220
0.0
230
1.0
 70
     8
 71
     3
 72
    12
 73
     8
 74
     0
 42
0.00000001
 43
0.00000001
 40
0.0
 40
0.0
 40
0.0
 40
0.0
 40
0.5000000000000009
 40
0.5000000000000009
 40
0.7500000000000004
 40
0.7500000000000004
 40
1.0
 40
1.0
 40
1.0
 40
1.0
 10
111.8342524810469
 20
36.73422402344625
 30
0.0
 10
111.3603740896936
 20
36.61693115711731
 30
0.0
 10
110.9105073123706
 20
36.55518912472095
 30
0.0
 10
110.2756233598782
 20
36.5549404569661
 30
0.0
 10
110.0695497736783
 20
36.57049532042889
 30
0.0
 10
109.6793658025774
 20
36.63165906788007
 30
0.0
 10
109.4945325127292
 20
36.67706363177048
 30
0.0
 10
109.319070526383
 20
36.73606538373218
 30
0.0
  0
SPLINE
  5
87
330
1F
100
AcDbEntity
  8
0
  6
Continuous
 62
     7
370
    25
100
AcDbSpline
210
0.0
220
0.0
230
1.0
 70
    24
 71
     3
 72
    24
 73
    20
 74
     0
 42
0.00000001
 43
0.00000001
 40
0.0
 40
0.0
 40
0.0
 40
0.0
 40
0.125
 40
0.125
 40
0.25
 40
0.25
 40
0.375
 40
0.375
 40
0.4374999999999998
 40
0.4374999999999998
 40
0.4999999999999997
 40
0.4999999999999997
 40
0.6249999999999997
 40
0.6249999999999997
 40
0.7499999999999997
 40
0.7499999999999997
 40
0.8749999999999997
 40
0.8749999999999997
 40
1.0
 40
1.0
 40
1.0
 40
1.0
 10
120.2727272727273
 20
36.7348996186056
 30
0.0
 10
120.2727272727273
 20
36.7348996186056
 30
0.0
 10
120.2729487014859
 20
36.7348996186056
 30
0.0
 10
120.2192269682416
 20
36.7348996186056
 30
0.0
 10
120.1654572380232
 20
36.7348996186056
 30
0.0
 10
119.946930712649
 20
36.7348996186056
 30
0.0
 10
119.7808220920113
 20
36.7348996186056
 30
0.0
 10
119.4125603350622
 20
36.73489961860559
 30
0.0
 10
119.2701503997422
 20
36.7348996186056
 30
0.0
 10
118.9410758642033
 20
36.7348996186056
 30
0.0
 10
118.753381777273
 20
36.7348996186056
 30
0.0
 10
118.14667760813
 20
36.7348996186056
 30
0.0
 10
117.691559557435
 20
36.7348996186056
 30
0.0
 10
116.6867457437887
 20
36.7348996186056
 30
0.0
 10
116.1402165861553
 20
36.7348996186056
 30
0.0
 10
115.0080397813566
 20
36.7348996186056
 30
0.0
 10
114.4201983429041
 20
36.7348996186056
 30
0.0
 10
113.1801196409602
 20
36.7348996186056
 30
0.0
 10
112.5274886527379
 20
36.7348996186056
 30
0.0
 10
111.8360615383359
 20
36.7348996186056
 30
0.0
  0
SPLINE
  5
88
330
1F
100
AcDbEntity
  8
0
  6
Continuous
 62
     7
370
    25
100
AcDbSpline
210
0.0
220
0.0
230
1.0
 70
    24
 71
     3
 72
    26
 73
    22
 74
     0
 42
0.00000001
 43
0.00000001
 40
0.0
 40
0.0
 40
0.0
 40
0.0
 40
0.1249999999999991
 40
0.1249999999999991
 40
0.1874999999999989
 40
0.1874999999999989
 40
0.2499999999999988
 40
0.2499999999999988
 40
0.3749999999999989
 40
0.3749999999999989
 40
0.4999999999999991
 40
0.4999999999999991
 40
0.6249999999999993
 40
0.6249999999999993
 40
0.6874999999999994
 40
0.6874999999999994
 40
0.7499999999999996
 40
0.7499999999999996
 40
0.8749999999999998
 40
0.8749999999999998
 40
1.0
 40
1.0
 40
1.0
 40
1.0
 10
109.3180051032507
 20
36.7348996186056
 30
0.0
 10
108.5987734031014
 20
36.7348996186056
 30
0.0
 10
107.8596784304902
 20
36.7348996186056
 30
0.0
 10
106.7198153937877
 20
36.7348996186056
 30
0.0
 10
106.3342107831166
 20
36.7348996186056
 30
0.0
 10
105.5498634599953
 20
36.7348996186056
 30
0.0
 10
105.1495734244903
 20
36.7348996186056
 30
0.0
 10
103.947524865044
 20
36.7348996186056
 30
0.0
 10
103.1475043023911
 20
36.7348996186056
 30
0.0
 10
101.7029261752017
 20
36.7348996186056
 30
0.0
 10
101.0529835443261
 20
36.7348996186056
 30
0.0
 10
99.90723760265395
 20
36.7348996186056
 30
0.0
 10
99.41737926047338
 20
36.7348996186056
 30
0.0
 10
98.74781314105387
 20
36.7348996186056
 30
0.0
 10
98.53511497014536
 20
36.7348996186056
 30
0.0
 10
98.12001835414576
 20
36.7348996186056
 30
0.0
 10
97.91808676236884
 20
36.7348996186056
 30
0.0
 10
97.33175842231002
 20
36.7348996186056
 30
0.0
 10
96.96728194842822
 20
36.7348996186056
 30
0.0
 10
96.30203834798652
 20
36.7348996186056
 30
0.0
 10
96.00005720104156
 20
36.7348996186056
 30
0.0
 10
95.72727272727273
 20
36.7348996186056
 30
0.0
  0
SPLINE
  5
89
330
1F
100
AcDbEntity
  8
0
  6
Continuous
 62
     7
370
    25
100
AcDbSpline
210
0.0
220
0.0
230
1.0
 70
    24
 71
     3
 72
    26
 73
    22
 74
     0
 42
0.00000001
 43
0.00000001
 40
0.0
 40
0.0
 40
0.0
 40
0.0
 40
0.311882446668893
 40
0.311882446668893
 40
0.311882446668893
 40
0.6237648933377871
 40
0.6237648933377871
 40
0.6237648933377871
 40
0.93564734000668
 40
0.93564734000668
 40
0.93564734000668
 40
1.24752978667557
 40
1.24752978667557
 40
1.24752978667557
 40
1.55941223334447
 40
1.55941223334447
 40
1.55941223334447
 40
1.87129468001336
 40
1.87129468001336
 40
1.87129468001336
 40
2.18317712668225
 40
2.18317712668225
 40
2.18317712668225
 40
2.18317712668225
 10
95.72727272727273
 20
32.18944507315106
 30
0.0
 10
96.66586637243246
 20
32.18944507315106
 30
0.0
 10
97.82417145777863
 20
32.18944507315106
 30
0.0
 10
99.18654658752492
 20
32.18944507315106
 30
0.0
 10
100.5489217172713
 20
32.18944507315106
 30
0.0
 10
102.1153668914177
 20
32.18944507315106
 30
0.0
 10
103.7980618686078
 20
32.18944507315106
 30
0.0
 10
105.4807568457979
 20
32.18944507315106
 30
0.0
 10
107.2797016260316
 20
32.18944507315106
 30
0.0
 10
109.0351516367862
 20
32.18944507315106
 30
0.0
 10
110.7906016475408
 20
32.18944507315106
 30
0.0
 10
112.5025568888164
 20
32.18944507315106
 30
0.0
 10
113.9536203881401
 20
32.18944507315106
 30
0.0
 10
115.4046838874639
 20
32.18944507315106
 30
0.0
 10
116.5948556448358
 20
32.18944507315106
 30
0.0
 10
117.4488058013513
 20
32.18944507315106
 30
0.0
 10
118.3027559578669
 20
32.18944507315106
 30
0.0
 10
118.820484513526
 20
32.18944507315106
 30
0.0
 10
119.0857046149684
 20
32.18944507315106
 30
0.0
 10
119.3509247164108
 20
32.18944507315106
 30
0.0
 10
119.3636363636364
 20
32.18944507315106
 30
0.0
 10
119.3636363636364
 20
32.18944507315106
 30
0.0
  0
ELLIPSE
  5
8A
330
1F
100
AcDbEntity
  8
0
  6
Continuous
 62
     7
370
    25
100
AcDbEllipse
 10
33.9090909091
 20
80.9014640178
 30
0.0
 11
0.8304201761109979
 21
-0.8304201761109625
 31
0.0
210
0.0
220
0.0
230
1.0
 40
0.4454739432
 41
1.989880012354292
 42
3.560676339149152
  0
ELLIPSE
  5
8B
330
1F
100
AcDbEntity
  8
0
  6
Continuous
 62
     7
370
    25
100
AcDbEllipse
 10
33.9090909091
 20
79.6853011968
 30
0.0
 11
0.8304201761109837
 21
0.8304201761109481
 31
0.0
210
0.0
220
0.0
230
1.0
 40
0.4454739432
 41
1.151712641235495
 42
2.708572753390858
  0
SPLINE
  5
8C
330
1F
100
AcDbEntity
  8
0
  6
Continuous
 62
     7
370
    25
100
AcDbSpline
210
0.0
220
0.0
230
1.0
 70
     8
 71
     3
 72
     8
 73
     4
 74
     0
 42
0.00000001
 43
0.00000001
 40
0.15069078199212
 40
0.15069078199212
 40
0.15069078199212
 40
0.15069078199212
 40
0.152081162899911
 40
0.152081162899911
 40
0.152081162899911
 40
0.152081162899911
 10
33.00000000000002
 20
79.07721735027586
 30
0.0
 10
33.00000000000002
 20
79.08038909033505
 30
0.0
 10
33.00002928692849
 20
79.08356838198313
 30
0.0
 10
33.00008827951604
 20
79.08675455675268
 30
0.0
  0
LINE
  5
8D
330
1F
100
AcDbEntity
  8
0
  6
Continuous
 62
     7
370
    25
100
AcDbLine
 10
33.0
 20
81.5094879802
 30
0.0
 11
33.0
 21
79.0772173503
 31
0.0
  0
ELLIPSE
  5
8E
330
1F
100
AcDbEntity
  8
0
  6
Continuous
 62
     7
370
    25
100
AcDbEllipse
 10
132.0909090909
 20
79.6853011968
 30
0.0
 11
0.8304201761109766
 21
-0.8304201761109766
 31
0.0
210
0.0
220
0.0
230
1.0
 40
0.4454739432
 41
0.4330199001989922
 42
1.989880012354299
  0
ELLIPSE
  5
8F
330
1F
100
AcDbEntity
  8
0
  6
Continuous
 62
     7
370
    25
100
AcDbEllipse
 10
120.2727272727
 20
79.6853011968
 30
0.0
 11
0.8304201761109624
 21
0.8304201761109482
 31
0.0
210
0.0
220
0.0
230
1.0
 40
0.4454739432
 41
1.15171264123547
 42
2.70857275339078
  0
ELLIPSE
  5
90
330
1F
100
AcDbEntity
  8
0
  6
Continuous
 62
     7
370
    25
100
AcDbEllipse
 10
45.7272727273
 20
79.6853011968
 30
0.0
 11
0.8304201761109695
 21
-0.8304201761109767
 31
0.0
210
0.0
220
0.0
230
1.0
 40
0.4454739432
 41
0.4330199001989835
 42
1.989880012354332
  0
SPLINE
  5
91
330
1F
100
AcDbEntity
  8
0
  6
Continuous
 62
     7
370
    25
100
AcDbSpline
210
0.0
220
0.0
230
1.0
 70
     8
 71
     3
 72
     8
 73
     4
 74
     0
 42
0.00000001
 43
0.00000001
 40
0.450656264537952
 40
0.450656264537952
 40
0.450656264537952
 40
0.450656264537952
 40
0.452046645445743
 40
0.452046645445743
 40
0.452046645445743
 40
0.452046645445743
 10
132.999911720484
 20
79.08675455675268
 30
0.0
 10
132.9999707130715
 20
79.08356838198304
 30
0.0
 10
133.0
 20
79.08038909033505
 30
0.0
 10
133.0
 20
79.07721735027586
 30
0.0
  0
ELLIPSE
  5
92
330
1F
100
AcDbEntity
  8
0
  6
Continuous
 62
     7
370
    25
100
AcDbEllipse
 10
132.0909090909
 20
80.9014640178
 30
0.0
 11
0.8304201761109483
 21
0.8304201761109767
 31
0.0
210
0.0
220
0.0
230
1.0
 40
0.4454739432
 41
5.864101621620211
 42
7.434897948415061
  0
LINE
  5
93
330
1F
100
AcDbEntity
  8
0
  6
Continuous
 62
     7
370
    25
100
AcDbLine
 10
133.0
 20
79.0772173503
 30
0.0
 11
133.0
 21
81.5094879802
 31
0.0
  0
SPLINE
  5
94
330
1F
100
AcDbEntity
  8
0
  6
Continuous
 62
     7
370
    25
100
AcDbSpline
210
0.0
220
0.0
230
1.0
 70
     8
 71
     3
 72
     8
 73
     4
 74
     0
 42
0.00000001
 43
0.00000001
 40
0.149287550841968
 40
0.149287550841968
 40
0.149287550841968
 40
0.149287550841968
 40
0.150677931749758
 40
0.150677931749758
 40
0.150677931749758
 40
0.150677931749758
 10
46.63627535684766
 20
79.08675455675268
 30
0.0
 10
46.6363343494352
 20
79.08356838198313
 30
0.0
 10
46.63636363636365
 20
79.08038909033505
 30
0.0
 10
46.63636363636365
 20
79.07721735027586
 30
0.0
  0
ELLIPSE
  5
95
330
1F
100
AcDbEntity
  8
0
  6
Continuous
 62
     7
370
    25
100
AcDbEllipse
 10
45.7272727273
 20
80.9014640178
 30
0.0
 11
0.8304201761109695
 21
0.8304201761109623
 31
0.0
210
0.0
220
0.0
230
1.0
 40
0.4454739432
 41
5.864101621620276
 42
7.434897948415054
  0
LINE
  5
96
330
1F
100
AcDbEntity
  8
0
  6
Continuous
 62
     7
370
    25
100
AcDbLine
 10
46.6363636364
 20
79.0772173503
 30
0.0
 11
46.6363636364
 21
81.5094879802
 31
0.0
  0
ELLIPSE
  5
97
330
1F
100
AcDbEntity
  8
0
  6
Continuous
 62
     7
370
    25
100
AcDbEllipse
 10
120.2727272727
 20
80.9014640178
 30
0.0
 11
0.8304201761109624
 21
-0.830420176110934
 31
0.0
210
0.0
220
0.0
230
1.0
 40
0.4454739432
 41
1.989880012354313
 42
3.56067633914915
  0
SPLINE
  5
98
330
1F
100
AcDbEntity
  8
0
  6
Continuous
 62
     7
370
    25
100
AcDbSpline
210
0.0
220
0.0
230
1.0
 70
     8
 71
     3
 72
     8
 73
     4
 74
     0
 42
0.00000001
 43
0.00000001
 40
0.452059495642209
 40
0.452059495642209
 40
0.452059495642209
 40
0.452059495642209
 40
0.45344987655
 40
0.45344987655
 40
0.45344987655
 40
0.45344987655
 10
119.3636363636364
 20
79.07721735027586
 30
0.0
 10
119.3636363636364
 20
79.08038909033505
 30
0.0
 10
119.3636656505648
 20
79.08356838198304
 30
0.0
 10
119.3637246431523
 20
79.08675455675268
 30
0.0
  0
LINE
  5
99
330
1F
100
AcDbEntity
  8
0
  6
Continuous
 62
     7
370
    25
100
AcDbLine
 10
119.3636363636
 20
81.5094879802
 30
0.0
 11
119.3636363636
 21
79.0772173503
 31
0.0
  0
LINE
  5
9A
330
1F
100
AcDbEntity
  8
0
  6
Continuous
 62
     7
370
    25
100
AcDbLine
 10
119.3636363636
 20
54.0397254991
 30
0.0
 11
119.3636363636
 21
79.0772173503
 31
0.0
  0
LINE
  5
9B
330
1F
100
AcDbEntity
  8
0
  6
Continuous
 62
     7
370
    25
100
AcDbLine
 10
133.0
 20
79.0772173503
 30
0.0
 11
133.0
 21
54.0397254991
 31
0.0
  0
LINE
  5
9C
330
1F
100
AcDbEntity
  8
0
  6
Continuous
 62
     7
370
    25
100
AcDbLine
 10
46.6363636364
 20
79.0772173503
 30
0.0
 11
46.6363636364
 21
54.0397254991
 31
0.0
  0
LINE
  5
9D
330
1F
100
AcDbEntity
  8
0
  6
Continuous
 62
     7
370
    25
100
AcDbLine
 10
33.0
 20
54.0397254991
 30
0.0
 11
33.0
 21
79.0772173503
 31
0.0
  0
LINE
  5
9E
330
1F
100
AcDbEntity
  8
0
  6
Continuous
 62
     7
370
    25
100
AcDbLine
 10
46.6363636364
 20
37.6439905277
 30
0.0
 11
47.5454545455
 21
36.7348996186
 31
0.0
  0
LINE
  5
9F
330
1F
100
AcDbEntity
  8
0
  6
Continuous
 62
     7
370
    25
100
AcDbLine
 10
46.6363636364
 20
37.6439905277
 30
0.0
 11
46.6363636364
 21
54.0397254991
 31
0.0
  0
LINE
  5
A0
330
1F
100
AcDbEntity
  8
0
  6
Continuous
 62
     7
370
    25
100
AcDbLine
 10
33.0
 20
54.0397254991
 30
0.0
 11
33.0
 21
36.7348996186
 31
0.0
  0
LINE
  5
A1
330
1F
100
AcDbEntity
  8
0
  6
Continuous
 62
     7
370
    25
100
AcDbLine
 10
118.4545454545
 20
36.7348996186
 30
0.0
 11
119.3636363636
 21
37.6439905277
 31
0.0
  0
LINE
  5
A2
330
1F
100
AcDbEntity
  8
0
  6
Continuous
 62
     7
370
    25
100
AcDbLine
 10
119.3636363636
 20
54.0397254991
 30
0.0
 11
119.3636363636
 21
37.6439905277
 31
0.0
  0
LINE
  5
A3
330
1F
100
AcDbEntity
  8
0
  6
Continuous
 62
     7
370
    25
100
AcDbLine
 10
133.0
 20
36.7348996186
 30
0.0
 11
133.0
 21
54.0397254991
 31
0.0
  0
LINE
  5
A4
330
1F
100
AcDbEntity
  8
0
  6
Continuous
 62
     7
370
    25
100
AcDbLine
 10
109.3760824527
 20
36.7348996186
 30
0.0
 11
111.7288824242
 21
36.7348996186
 31
0.0
  0
LINE
  5
A5
330
1F
100
AcDbEntity
  8
0
  6
Continuous
 62
     7
370
    25
100
AcDbLine
 10
54.2731119659
 20
36.7348996186
 30
0.0
 11
56.6090943145
 21
36.7348996186
 31
0.0
  0
LINE
  5
A6
330
1F
100
AcDbEntity
  8
0
  6
Continuous
 62
     7
370
    25
100
AcDbLine
 10
70.2727272727
 20
35.8258087095
 30
0.0
 11
95.7272727273
 21
35.8258087095
 31
0.0
  0
LINE
  5
A7
330
1F
100
AcDbEntity
  8
0
  6
Continuous
 62
     7
370
    25
100
AcDbLine
 10
95.7272727273
 20
32.1894450732
 30
0.0
 11
70.2727272727
 21
32.1894450732
 31
0.0
  0
LINE
  5
A8
330
1F
100
AcDbEntity
  8
0
  6
Continuous
 62
     7
370
    25
100
AcDbLine
 10
95.7272727273
 20
36.7348996186
 30
0.0
 11
70.2727272727
 21
36.7348996186
 31
0.0
  0
LINE
  5
A9
330
1F
100
AcDbEntity
  8
0
  6
HIDDEN
 62
     7
370
    18
100
AcDbLine
 10
126.5486107198
 20
34.2348996186
 30
0.0
 11
124.5031561744
 21
34.2348996186
 31
0.0
  0
LINE
  5
AA
330
1F
100
AcDbEntity
  8
0
  6
HIDDEN
 62
     7
370
    18
100
AcDbLine
 10
128.5940652653
 20
34.2348996186
 30
0.0
 11
126.5486107198
 21
34.2348996186
 31
0.0
  0
LINE
  5
AB
330
1F
100
AcDbEntity
  8
0
  6
HIDDEN
 62
     7
370
    18
100
AcDbLine
 10
39.4513892802
 20
34.2348996186
 30
0.0
 11
37.4059347347
 21
34.2348996186
 31
0.0
  0
LINE
  5
AC
330
1F
100
AcDbEntity
  8
0
  6
HIDDEN
 62
     7
370
    18
100
AcDbLine
 10
41.4968438256
 20
34.2348996186
 30
0.0
 11
39.4513892802
 21
34.2348996186
 31
0.0
  0
LINE
  5
AD
330
1F
100
AcDbEntity
  8
0
  6
HIDDEN
 62
     7
370
    18
100
AcDbLine
 10
113.3814646952
 20
34.2348996186
 30
0.0
 11
111.3360101498
 21
34.2348996186
 31
0.0
  0
LINE
  5
AE
330
1F
100
AcDbEntity
  8
0
  6
HIDDEN
 62
     7
370
    18
100
AcDbLine
 10
115.4269192407
 20
34.2348996186
 30
0.0
 11
113.3814646952
 21
34.2348996186
 31
0.0
  0
LINE
  5
AF
330
1F
100
AcDbEntity
  8
0
  6
HIDDEN
 62
     7
370
    18
100
AcDbLine
 10
52.6185353048
 20
34.2348996186
 30
0.0
 11
50.5730807593
 21
34.2348996186
 31
0.0
  0
LINE
  5
B0
330
1F
100
AcDbEntity
  8
0
  6
HIDDEN
 62
     7
370
    18
100
AcDbLine
 10
54.6639898502
 20
34.2348996186
 30
0.0
 11
52.6185353048
 21
34.2348996186
 31
0.0
  0
LINE
  5
B1
330
1F
100
AcDbEntity
  8
0
  6
HIDDEN
 62
     7
370
    18
100
AcDbLine
 10
46.6363636364
 20
35.8258087095
 30
0.0
 11
46.6363636364
 21
37.6439905277
 31
0.0
  0
LINE
  5
B2
330
1F
100
AcDbEntity
  8
0
  6
HIDDEN
 62
     7
370
    18
100
AcDbLine
 10
119.3636363636
 20
35.8258087095
 30
0.0
 11
119.3636363636
 21
37.6439905277
 31
0.0
  0
LINE
  5
B3
330
1F
100
AcDbEntity
  8
0
  6
HIDDEN
 62
     7
370
    18
100
AcDbLine
 10
122.0031561744
 20
36.7348996186
 30
0.0
 11
124.5031561744
 21
34.2348996186
 31
0.0
  0
LINE
  5
B4
330
1F
100
AcDbEntity
  8
0
  6
HIDDEN
 62
     7
370
    18
100
AcDbLine
 10
128.5940652653
 20
34.2348996186
 30
0.0
 11
131.0940652653
 21
36.7348996186
 31
0.0
  0
LINE
  5
B5
330
1F
100
AcDbEntity
  8
0
  6
HIDDEN
 62
     7
370
    18
100
AcDbLine
 10
34.9059347347
 20
36.7348996186
 30
0.0
 11
37.4059347347
 21
34.2348996186
 31
0.0
  0
LINE
  5
B6
330
1F
100
AcDbEntity
  8
0
  6
HIDDEN
 62
     7
370
    18
100
AcDbLine
 10
41.4968438256
 20
34.2348996186
 30
0.0
 11
43.9968438256
 21
36.7348996186
 31
0.0
  0
LINE
  5
B7
330
1F
100
AcDbEntity
  8
0
  6
HIDDEN
 62
     7
370
    18
100
AcDbLine
 10
41.4968438256
 20
32.1894450732
 30
0.0
 11
41.4968438256
 21
34.2348996186
 31
0.0
  0
LINE
  5
B8
330
1F
100
AcDbEntity
  8
0
  6
HIDDEN
 62
     7
370
    18
100
AcDbLine
 10
37.4059347347
 20
34.2348996186
 30
0.0
 11
37.4059347347
 21
32.1894450732
 31
0.0
  0
LINE
  5
B9
330
1F
100
AcDbEntity
  8
0
  6
HIDDEN
 62
     7
370
    18
100
AcDbLine
 10
128.5940652653
 20
32.1894450732
 30
0.0
 11
128.5940652653
 21
34.2348996186
 31
0.0
  0
LINE
  5
BA
330
1F
100
AcDbEntity
  8
0
  6
HIDDEN
 62
     7
370
    18
100
AcDbLine
 10
124.5031561744
 20
34.2348996186
 30
0.0
 11
124.5031561744
 21
32.1894450732
 31
0.0
  0
LINE
  5
BB
330
1F
100
AcDbEntity
  8
0
  6
HIDDEN
 62
     7
370
    18
100
AcDbLine
 10
108.8360101498
 20
36.7348996186
 30
0.0
 11
111.3360101498
 21
34.2348996186
 31
0.0
  0
LINE
  5
BC
330
1F
100
AcDbEntity
  8
0
  6
HIDDEN
 62
     7
370
    18
100
AcDbLine
 10
115.4269192407
 20
34.2348996186
 30
0.0
 11
117.9269192407
 21
36.7348996186
 31
0.0
  0
LINE
  5
BD
330
1F
100
AcDbEntity
  8
0
  6
HIDDEN
 62
     7
370
    18
100
AcDbLine
 10
48.0730807593
 20
36.7348996186
 30
0.0
 11
50.5730807593
 21
34.2348996186
 31
0.0
  0
LINE
  5
BE
330
1F
100
AcDbEntity
  8
0
  6
HIDDEN
 62
     7
370
    18
100
AcDbLine
 10
54.6639898502
 20
34.2348996186
 30
0.0
 11
57.1639898502
 21
36.7348996186
 31
0.0
  0
LINE
  5
BF
330
1F
100
AcDbEntity
  8
0
  6
HIDDEN
 62
     7
370
    18
100
AcDbLine
 10
115.4269192407
 20
32.1894450732
 30
0.0
 11
115.4269192407
 21
34.2348996186
 31
0.0
  0
LINE
  5
C0
330
1F
100
AcDbEntity
  8
0
  6
HIDDEN
 62
     7
370
    18
100
AcDbLine
 10
111.3360101498
 20
34.2348996186
 30
0.0
 11
111.3360101498
 21
32.1894450732
 31
0.0
  0
LINE
  5
C1
330
1F
100
AcDbEntity
  8
0
  6
HIDDEN
 62
     7
370
    18
100
AcDbLine
 10
54.6639898502
 20
32.1894450732
 30
0.0
 11
54.6639898502
 21
34.2348996186
 31
0.0
  0
LINE
  5
C2
330
1F
100
AcDbEntity
  8
0
  6
HIDDEN
 62
     7
370
    18
100
AcDbLine
 10
50.5730807593
 20
34.2348996186
 30
0.0
 11
50.5730807593
 21
32.1894450732
 31
0.0
  0
LINE
  5
C3
330
1F
100
AcDbEntity
  8
0
  6
Continuous
 62
     7
370
    25
100
AcDbLine
 10
119.5968921286
 20
154.1381168588
 30
0.0
 11
132.766744235
 21
154.1381168588
 31
0.0
  0
LINE
  5
C4
330
1F
100
AcDbEntity
  8
0
  6
Continuous
 62
     7
370
    25
100
AcDbLine
 10
33.233255765
 20
154.1381168588
 30
0.0
 11
46.4031078714
 21
154.1381168588
 31
0.0
  0
LINE
  5
C5
330
1F
100
AcDbEntity
  8
0
  6
Continuous
 62
     7
370
    25
100
AcDbLine
 10
133.0
 20
157.0748409103
 30
0.0
 11
133.0
 21
157.0830223114
 31
0.0
  0
ELLIPSE
  5
C6
330
1F
100
AcDbEntity
  8
0
  6
Continuous
 62
     7
370
    25
100
AcDbEllipse
 10
132.0909090909
 20
156.3990057662
 30
0.0
 11
0.8487761384992895
 21
0.8487761384992895
 31
0.0
210
0.0
220
0.0
230
1.0
 40
0.3836292307
 41
4.346074502546656
 42
5.916870829341702
  0
ELLIPSE
  5
C7
330
1F
100
AcDbEntity
  8
0
  6
Continuous
 62
     7
370
    25
100
AcDbEllipse
 10
120.2727272727
 20
156.3990057662
 30
0.0
 11
0.8487761384992893
 21
-0.8487761384992609
 31
0.0
210
0.0
220
0.0
230
1.0
 40
0.3836292307
 41
3.507907131427722
 42
5.07870345822273
  0
LINE
  5
C8
330
1F
100
AcDbEntity
  8
0
  6
Continuous
 62
     7
370
    25
100
AcDbLine
 10
119.3636363636
 20
157.0830223114
 30
0.0
 11
119.3636363636
 21
157.0748409103
 31
0.0
  0
ELLIPSE
  5
C9
330
1F
100
AcDbEntity
  8
0
  6
Continuous
 62
     7
370
    25
100
AcDbEllipse
 10
33.9090909091
 20
156.3990057662
 30
0.0
 11
0.8487761384993108
 21
-0.8487761384992895
 31
0.0
210
0.0
220
0.0
230
1.0
 40
0.3836292307
 41
3.507907131427733
 42
5.078703458222723
  0
LINE
  5
CA
330
1F
100
AcDbEntity
  8
0
  6
Continuous
 62
     7
370
    25
100
AcDbLine
 10
33.0
 20
157.0830223114
 30
0.0
 11
33.0
 21
157.0748409103
 31
0.0
  0
LINE
  5
CB
330
1F
100
AcDbEntity
  8
0
  6
Continuous
 62
     7
370
    25
100
AcDbLine
 10
46.6363636364
 20
157.0748409103
 30
0.0
 11
46.6363636364
 21
157.0830223114
 31
0.0
  0
ELLIPSE
  5
CC
330
1F
100
AcDbEntity
  8
0
  6
Continuous
 62
     7
370
    25
100
AcDbEllipse
 10
45.7272727273
 20
156.3990057662
 30
0.0
 11
0.8487761384992895
 21
0.8487761384992895
 31
0.0
210
0.0
220
0.0
230
1.0
 40
0.3836292307
 41
4.346074502546663
 42
5.916870829341694
  0
ELLIPSE
  5
CD
330
1F
100
AcDbEntity
  8
0
  6
Continuous
 62
     7
370
    25
100
AcDbEllipse
 10
33.9090909091
 20
155.0472077678
 30
0.0
 11
0.8487761384993034
 21
0.8487761384992893
 31
0.0
210
0.0
220
0.0
230
1.0
 40
0.3836292307
 41
2.789214390391392
 42
4.346074502546671
  0
SPLINE
  5
CE
330
1F
100
AcDbEntity
  8
0
  6
Continuous
 62
     7
370
    25
100
AcDbSpline
210
0.0
220
0.0
230
1.0
 70
     8
 71
     3
 72
     8
 73
     4
 74
     0
 42
0.00000001
 43
0.00000001
 40
0.15069078199212
 40
0.15069078199212
 40
0.15069078199212
 40
0.15069078199212
 40
0.152081162899911
 40
0.152081162899911
 40
0.152081162899911
 40
0.152081162899911
 10
33.00000000000002
 20
154.3713060609593
 30
0.0
 10
33.00000000000002
 20
154.3685326595725
 30
0.0
 10
33.00002928692849
 20
154.3657521050423
 30
0.0
 10
33.00008827951604
 20
154.3629649741866
 30
0.0
  0
LINE
  5
CF
330
1F
100
AcDbEntity
  8
0
  6
Continuous
 62
     7
370
    25
100
AcDbLine
 10
33.0
 20
157.0748409103
 30
0.0
 11
33.0
 21
154.371306061
 31
0.0
  0
SPLINE
  5
D0
330
1F
100
AcDbEntity
  8
0
  6
Continuous
 62
     7
370
    25
100
AcDbSpline
210
0.0
220
0.0
230
1.0
 70
     8
 71
     3
 72
     8
 73
     4
 74
     0
 42
0.00000001
 43
0.00000001
 40
0.450656264537952
 40
0.450656264537952
 40
0.450656264537952
 40
0.450656264537952
 40
0.452046645445743
 40
0.452046645445743
 40
0.452046645445743
 40
0.452046645445743
 10
132.999911720484
 20
154.3629649741866
 30
0.0
 10
132.9999707130715
 20
154.3657521050423
 30
0.0
 10
133.0
 20
154.3685326595725
 30
0.0
 10
133.0
 20
154.3713060609593
 30
0.0
  0
ELLIPSE
  5
D1
330
1F
100
AcDbEntity
  8
0
  6
Continuous
 62
     7
370
    25
100
AcDbEllipse
 10
132.0909090909
 20
155.0472077678
 30
0.0
 11
0.8487761384993178
 21
-0.8487761384992893
 31
0.0
210
0.0
220
0.0
230
1.0
 40
0.3836292307
 41
5.078703458222726
 42
6.635563570377964
  0
LINE
  5
D2
330
1F
100
AcDbEntity
  8
0
  6
Continuous
 62
     7
370
    25
100
AcDbLine
 10
133.0
 20
154.371306061
 30
0.0
 11
133.0
 21
157.0748409103
 31
0.0
  0
SPLINE
  5
D3
330
1F
100
AcDbEntity
  8
0
  6
Continuous
 62
     7
370
    25
100
AcDbSpline
210
0.0
220
0.0
230
1.0
 70
     8
 71
     3
 72
     8
 73
     4
 74
     0
 42
0.00000001
 43
0.00000001
 40
0.149287550841968
 40
0.149287550841968
 40
0.149287550841968
 40
0.149287550841968
 40
0.150677931749758
 40
0.150677931749758
 40
0.150677931749758
 40
0.150677931749758
 10
46.63627535684766
 20
154.3629649741866
 30
0.0
 10
46.6363343494352
 20
154.3657521050423
 30
0.0
 10
46.63636363636365
 20
154.3685326595725
 30
0.0
 10
46.63636363636365
 20
154.3713060609593
 30
0.0
  0
ELLIPSE
  5
D4
330
1F
100
AcDbEntity
  8
0
  6
Continuous
 62
     7
370
    25
100
AcDbEllipse
 10
45.7272727273
 20
155.0472077678
 30
0.0
 11
0.8487761384992895
 21
-0.8487761384992895
 31
0.0
210
0.0
220
0.0
230
1.0
 40
0.3836292307
 41
5.078703458222721
 42
6.635563570378036
  0
LINE
  5
D5
330
1F
100
AcDbEntity
  8
0
  6
Continuous
 62
     7
370
    25
100
AcDbLine
 10
46.6363636364
 20
154.371306061
 30
0.0
 11
46.6363636364
 21
157.0748409103
 31
0.0
  0
ELLIPSE
  5
D6
330
1F
100
AcDbEntity
  8
0
  6
Continuous
 62
     7
370
    25
100
AcDbEllipse
 10
120.2727272727
 20
155.0472077678
 30
0.0
 11
0.8487761384992893
 21
0.8487761384992609
 31
0.0
210
0.0
220
0.0
230
1.0
 40
0.3836292307
 41
2.789214390391317
 42
4.346074502546683
  0
SPLINE
  5
D7
330
1F
100
AcDbEntity
  8
0
  6
Continuous
 62
     7
370
    25
100
AcDbSpline
210
0.0
220
0.0
230
1.0
 70
     8
 71
     3
 72
     8
 73
     4
 74
     0
 42
0.00000001
 43
0.00000001
 40
0.452059495642209
 40
0.452059495642209
 40
0.452059495642209
 40
0.452059495642209
 40
0.45344987655
 40
0.45344987655
 40
0.45344987655
 40
0.45344987655
 10
119.3636363636364
 20
154.3713060609593
 30
0.0
 10
119.3636363636364
 20
154.3685326595725
 30
0.0
 10
119.3636656505648
 20
154.3657521050423
 30
0.0
 10
119.3637246431523
 20
154.3629649741866
 30
0.0
  0
LINE
  5
D8
330
1F
100
AcDbEntity
  8
0
  6
Continuous
 62
     7
370
    25
100
AcDbLine
 10
119.3636363636
 20
157.0748409103
 30
0.0
 11
119.3636363636
 21
154.371306061
 31
0.0
  0
LINE
  5
D9
330
1F
100
AcDbEntity
  8
0
  6
Continuous
 62
     7
370
    25
100
AcDbLine
 10
46.6363636364
 20
173.9090909091
 30
0.0
 11
33.0
 21
173.9090909091
 31
0.0
  0
LINE
  5
DA
330
1F
100
AcDbEntity
  8
0
  6
Continuous
 62
     7
370
    25
100
AcDbLine
 10
46.6363636364
 20
173.9090909091
 30
0.0
 11
46.6363636364
 21
157.0830223114
 31
0.0
  0
LINE
  5
DB
330
1F
100
AcDbEntity
  8
0
  6
Continuous
 62
     7
370
    25
100
AcDbLine
 10
33.0
 20
157.0830223114
 30
0.0
 11
33.0
 21
173.9090909091
 31
0.0
  0
LINE
  5
DC
330
1F
100
AcDbEntity
  8
0
  6
Continuous
 62
     7
370
    25
100
AcDbLine
 10
119.3636363636
 20
173.9090909091
 30
0.0
 11
133.0
 21
173.9090909091
 31
0.0
  0
LINE
  5
DD
330
1F
100
AcDbEntity
  8
0
  6
Continuous
 62
     7
370
    25
100
AcDbLine
 10
133.0
 20
173.9090909091
 30
0.0
 11
133.0
 21
157.0830223114
 31
0.0
  0
LINE
  5
DE
330
1F
100
AcDbEntity
  8
0
  6
Continuous
 62
     7
370
    25
100
AcDbLine
 10
119.3636363636
 20
173.9090909091
 30
0.0
 11
119.3636363636
 21
157.0830223114
 31
0.0
  0
ARC
  5
DF
330
1F
100
AcDbEntity
  8
0
  6
Continuous
 62
     7
370
    25
100
AcDbCircle
 10
33.9090909091
 20
154.7676876136
 30
0.0
 40
13.63636363636363
100
AcDbArc
 50
0.0
 51
21.0394697813
  0
ARC
  5
E0
330
1F
100
AcDbEntity
  8
0
  6
Continuous
 62
     7
370
    25
100
AcDbCircle
 10
132.0909090909
 20
154.7676876136
 30
0.0
 40
13.63636363636364
100
AcDbArc
 50
158.9605302187
 51
180.0
  0
LINE
  5
E1
330
1F
100
AcDbEntity
  8
0
  6
Continuous
 62
     7
370
    25
100
AcDbLine
 10
119.3636363636
 20
173.9090909091
 30
0.0
 11
46.6363636364
 21
173.9090909091
 31
0.0
  0
LINE
  5
E2
330
1F
100
AcDbEntity
  8
0
  6
Continuous
 62
     7
370
    25
100
AcDbLine
 10
119.3636363636
 20
172.0909090909
 30
0.0
 11
118.4545454545
 21
173.0
 31
0.0
  0
LINE
  5
E3
330
1F
100
AcDbEntity
  8
0
  6
Continuous
 62
     7
370
    25
100
AcDbLine
 10
47.5454545455
 20
173.0
 30
0.0
 11
118.4545454545
 21
173.0
 31
0.0
  0
LINE
  5
E4
330
1F
100
AcDbEntity
  8
0
  6
Continuous
 62
     7
370
    25
100
AcDbLine
 10
47.5454545455
 20
173.0
 30
0.0
 11
46.6363636364
 21
172.0909090909
 31
0.0
  0
LINE
  5
E5
330
1F
100
AcDbEntity
  8
0
  6
Continuous
 62
     7
370
    25
100
AcDbLine
 10
118.4545454545
 20
173.0
 30
0.0
 11
118.4545454545
 21
154.7676876136
 31
0.0
  0
LINE
  5
E6
330
1F
100
AcDbEntity
  8
0
  6
Continuous
 62
     7
370
    25
100
AcDbLine
 10
47.5454545455
 20
154.7676876136
 30
0.0
 11
47.5454545455
 21
173.0
 31
0.0
  0
SPLINE
  5
E7
330
1F
100
AcDbEntity
  8
0
  6
Continuous
 62
     7
370
    25
100
AcDbSpline
210
0.0
220
0.0
230
1.0
 70
     8
 71
     3
 72
    24
 73
    20
 74
     0
 42
0.00000001
 43
0.00000001
 40
0.0
 40
0.0
 40
0.0
 40
0.0
 40
0.2499999999999987
 40
0.2499999999999987
 40
0.3749999999999984
 40
0.3749999999999984
 40
0.4999999999999982
 40
0.4999999999999982
 40
0.5624999999999984
 40
0.5624999999999984
 40
0.6249999999999987
 40
0.6249999999999987
 40
0.6874999999999989
 40
0.6874999999999989
 40
0.7499999999999991
 40
0.7499999999999991
 40
0.8749999999999996
 40
0.8749999999999996
 40
1.0
 40
1.0
 40
1.0
 40
1.0
 10
70.2727272727273
 20
171.1818181818183
 30
0.0
 10
69.6357937458201
 20
171.1818181818183
 30
0.0
 10
68.81529165339303
 20
171.1826744354077
 30
0.0
 10
67.35281264614557
 20
171.0166164261598
 30
0.0
 10
66.82482972788186
 20
170.9331543353359
 30
0.0
 10
65.6842885259132
 20
170.6806767687118
 30
0.0
 10
65.07201249473775
 20
170.5118030828217
 30
0.0
 10
64.10182840304012
 20
170.1795394323685
 30
0.0
 10
63.76973241818352
 20
170.0555767926048
 30
0.0
 10
63.09046425082353
 20
169.7790412053337
 30
0.0
 10
62.74397079452589
 20
169.6269263693441
 30
0.0
 10
62.05629415145954
 20
169.3040820586638
 30
0.0
 10
61.71686376698074
 20
169.1340604781365
 30
0.0
 10
61.04977310982018
 20
168.7794058850985
 30
0.0
 10
60.72095250132666
 20
168.5942984905526
 30
0.0
 10
59.7415717211236
 20
168.0149172635499
 30
0.0
 10
59.09956693332781
 20
167.5973349452427
 30
0.0
 10
57.85693010911642
 20
166.7248872393645
 30
0.0
 10
57.25932959641342
 20
166.272591075008
 30
0.0
 10
56.68192165533907
 20
165.8056408659236
 30
0.0
  0
SPLINE
  5
E8
330
1F
100
AcDbEntity
  8
0
  6
Continuous
 62
     7
370
    25
100
AcDbSpline
210
0.0
220
0.0
230
1.0
 70
     8
 71
     3
 72
    46
 73
    42
 74
     0
 42
0.00000001
 43
0.00000001
 40
0.0
 40
0.0
 40
0.0
 40
0.0
 40
0.0312500000000001
 40
0.0312500000000001
 40
0.0625000000000003
 40
0.0625000000000003
 40
0.0937500000000004
 40
0.0937500000000004
 40
0.1250000000000006
 40
0.1250000000000006
 40
0.1875000000000007
 40
0.1875000000000007
 40
0.2187500000000007
 40
0.2187500000000007
 40
0.2500000000000007
 40
0.2500000000000007
 40
0.3125000000000007
 40
0.3125000000000007
 40
0.3750000000000007
 40
0.3750000000000007
 40
0.4375000000000007
 40
0.4375000000000007
 40
0.5000000000000007
 40
0.5000000000000007
 40
0.6250000000000007
 40
0.6250000000000007
 40
0.6875000000000006
 40
0.6875000000000006
 40
0.7500000000000006
 40
0.7500000000000006
 40
0.8125000000000004
 40
0.8125000000000004
 40
0.8750000000000004
 40
0.8750000000000004
 40
0.9062500000000003
 40
0.9062500000000003
 40
0.9375000000000002
 40
0.9375000000000002
 40
0.9687500000000002
 40
0.9687500000000002
 40
1.0
 40
1.0
 40
1.0
 40
1.0
 10
46.63636363636365
 20
146.6363636363637
 30
0.0
 10
46.63636363636365
 20
147.0187993638808
 30
0.0
 10
46.6393796998146
 20
147.4010762847313
 30
0.0
 10
46.66936182715511
 20
148.1643707924957
 30
0.0
 10
46.69592643277151
 20
148.5454094357871
 30
0.0
 10
46.77908399028151
 20
149.3059073783594
 30
0.0
 10
46.83560866714862
 20
149.6847192484347
 30
0.0
 10
46.97876564542683
 20
150.4309768745344
 30
0.0
 10
47.06538204395755
 20
150.7995926471544
 30
0.0
 10
47.36376231212514
 20
151.8938778203569
 30
0.0
 10
47.61371056064665
 20
152.6080864650056
 30
0.0
 10
48.05203422863968
 20
153.6603677916396
 30
0.0
 10
48.20932254313152
 20
154.0088868903198
 30
0.0
 10
48.54111044874126
 20
154.6938919790485
 30
0.0
 10
48.71567439094737
 20
155.0304560581563
 30
0.0
 10
49.26182659398755
 20
156.0247644920633
 30
0.0
 10
49.65537523791961
 20
156.6674679703512
 30
0.0
 10
50.48950042459217
 20
157.9206662514119
 30
0.0
 10
50.93024697948834
 20
158.5310443768304
 30
0.0
 10
51.8540728984169
 20
159.7228057836884
 30
0.0
 10
52.33745938422491
 20
160.303978672519
 30
0.0
 10
53.34370084729852
 20
161.4392918246338
 30
0.0
 10
53.86517284683625
 20
161.9921168407647
 30
0.0
 10
55.46895489852094
 20
163.5953208906072
 30
0.0
 10
56.59427634289817
 20
164.5974345568343
 30
0.0
 10
58.38171135332308
 20
165.9824505906726
 30
0.0
 10
58.99406293860371
 20
166.4244724441017
 30
0.0
 10
60.25653205744671
 20
167.2636484915012
 30
0.0
 10
60.90852724188544
 20
167.661783111693
 30
0.0
 10
62.23663655586723
 20
168.3889522787272
 30
0.0
 10
62.91523988344139
 20
168.7186483487386
 30
0.0
 10
64.30699618556747
 20
169.2975652366909
 30
0.0
 10
65.01983496180527
 20
169.5475165109611
 30
0.0
 10
66.12131873203624
 20
169.8473797416687
 30
0.0
 10
66.49499462792095
 20
169.9348192643517
 30
0.0
 10
67.24316898258128
 20
170.0773366866817
 30
0.0
 10
67.61881538159491
 20
170.1327455589871
 30
0.0
 10
68.3729798593885
 20
170.2143742334744
 30
0.0
 10
68.75150994052119
 20
170.2404720436093
 30
0.0
 10
69.5108148920112
 20
170.2698512134245
 30
0.0
 10
69.89162967659294
 20
170.2727272727274
 30
0.0
 10
70.2727272727273
 20
170.2727272727274
 30
0.0
  0
SPLINE
  5
E9
330
1F
100
AcDbEntity
  8
0
  6
Continuous
 62
     7
370
    25
100
AcDbSpline
210
0.0
220
0.0
230
1.0
 70
     8
 71
     3
 72
    26
 73
    22
 74
     0
 42
0.00000001
 43
0.00000001
 40
0.0
 40
0.0
 40
0.0
 40
0.0
 40
0.0624999999999998
 40
0.0624999999999998
 40
0.1249999999999997
 40
0.1249999999999997
 40
0.2499999999999994
 40
0.2499999999999994
 40
0.3124999999999994
 40
0.3124999999999994
 40
0.3749999999999994
 40
0.3749999999999994
 40
0.4374999999999994
 40
0.4374999999999994
 40
0.4999999999999994
 40
0.4999999999999994
 40
0.6249999999999996
 40
0.6249999999999996
 40
0.7499999999999997
 40
0.7499999999999997
 40
1.0
 40
1.0
 40
1.0
 40
1.0
 10
54.16184414505304
 20
163.5685177403363
 30
0.0
 10
53.77803463401697
 20
163.1965769590966
 30
0.0
 10
53.3983457980214
 20
162.8131323575215
 30
0.0
 10
52.64817988069895
 20
162.0212222108556
 30
0.0
 10
52.27730316792327
 20
161.6122003528372
 30
0.0
 10
51.1858798487562
 20
160.352843338293
 30
0.0
 10
50.48802613515493
 20
159.4736368669433
 30
0.0
 10
49.52075535992063
 20
158.1166911181193
 30
0.0
 10
49.21108198797072
 20
157.6566040904605
 30
0.0
 10
48.62047736571682
 20
156.7171841273448
 30
0.0
 10
48.33872230340808
 20
156.2352322520861
 30
0.0
 10
47.81237486800086
 20
155.2648441796104
 30
0.0
 10
47.56850308601697
 20
154.7786987777935
 30
0.0
 10
47.13501573866429
 20
153.8402570136356
 30
0.0
 10
46.94697059270495
 20
153.3898030222813
 30
0.0
 10
46.47476846062414
 20
152.1276737017291
 30
0.0
 10
46.27360274571033
 20
151.3968990470225
 30
0.0
 10
45.98627973938005
 20
150.1502730925462
 30
0.0
 10
45.90255425970778
 20
149.6254164291416
 30
0.0
 10
45.73014485564515
 20
148.1402326075283
 30
0.0
 10
45.72727272727274
 20
147.2952409703414
 30
0.0
 10
45.72727272727275
 20
146.6363636363637
 30
0.0
  0
SPLINE
  5
EA
330
1F
100
AcDbEntity
  8
0
  6
Continuous
 62
     7
370
    25
100
AcDbSpline
210
0.0
220
0.0
230
1.0
 70
     8
 71
     3
 72
    12
 73
     8
 74
     0
 42
0.00000001
 43
0.00000001
 40
0.0
 40
0.0
 40
0.0
 40
0.0
 40
0.4999999999999998
 40
0.4999999999999998
 40
0.7499999999999999
 40
0.7499999999999999
 40
1.0
 40
1.0
 40
1.0
 40
1.0
 10
56.68128834982561
 20
165.8059522149795
 30
0.0
 10
56.33007641383768
 20
165.3698938223512
 30
0.0
 10
55.94489931188194
 20
164.9616936224597
 30
0.0
 10
55.30975748618787
 20
164.3967290115991
 30
0.0
 10
55.08709351701702
 20
164.2153828749381
 30
0.0
 10
54.63210485567375
 20
163.8762451807064
 30
0.0
 10
54.39925039438355
 20
163.7177436570816
 30
0.0
 10
54.16150656206399
 20
163.5693590280544
 30
0.0
  0
SPLINE
  5
EB
330
1F
100
AcDbEntity
  8
0
  6
Continuous
 62
     7
370
    25
100
AcDbSpline
210
0.0
220
0.0
230
1.0
 70
     8
 71
     3
 72
    24
 73
    20
 74
     0
 42
0.00000001
 43
0.00000001
 40
0.0
 40
0.0
 40
0.0
 40
0.0
 40
0.125
 40
0.125
 40
0.25
 40
0.25
 40
0.375
 40
0.375
 40
0.4374999999999998
 40
0.4374999999999998
 40
0.4999999999999997
 40
0.4999999999999997
 40
0.6249999999999997
 40
0.6249999999999997
 40
0.7499999999999997
 40
0.7499999999999997
 40
0.8749999999999997
 40
0.8749999999999997
 40
1.0
 40
1.0
 40
1.0
 40
1.0
 10
120.2727272727273
 20
146.6363636363637
 30
0.0
 10
120.2727272727273
 20
147.0349136231257
 30
0.0
 10
120.2729487014859
 20
147.5063197053468
 30
0.0
 10
120.2192269682416
 20
148.576442031517
 30
0.0
 10
120.1654572380232
 20
149.1736024657914
 30
0.0
 10
119.946930712649
 20
150.4967018656714
 30
0.0
 10
119.7808220920113
 20
151.2256004742131
 30
0.0
 10
119.4125603350622
 20
152.4067873413871
 30
0.0
 10
119.2701503997422
 20
152.8147714491535
 30
0.0
 10
118.9410758642033
 20
153.6556713233872
 30
0.0
 10
118.753381777273
 20
154.090116067987
 30
0.0
 10
118.14667760813
 20
155.3806657967278
 30
0.0
 10
117.691559557435
 20
156.2053176113413
 30
0.0
 10
116.6867457437887
 20
157.8238842739831
 30
0.0
 10
116.1402165861553
 20
158.6124939124275
 30
0.0
 10
115.0080397813566
 20
160.1102151737506
 30
0.0
 10
114.4201983429041
 20
160.8219333176798
 30
0.0
 10
113.1801196409602
 20
162.2161222100298
 30
0.0
 10
112.5274886527379
 20
162.9008156565428
 30
0.0
 10
111.8360615383359
 20
163.5716885909334
 30
0.0
  0
SPLINE
  5
EC
330
1F
100
AcDbEntity
  8
0
  6
Continuous
 62
     7
370
    25
100
AcDbSpline
210
0.0
220
0.0
230
1.0
 70
     8
 71
     3
 72
    46
 73
    42
 74
     0
 42
0.00000001
 43
0.00000001
 40
0.0
 40
0.0
 40
0.0
 40
0.0
 40
0.0312499999999999
 40
0.0312499999999999
 40
0.0624999999999998
 40
0.0624999999999998
 40
0.0937499999999996
 40
0.0937499999999996
 40
0.1249999999999995
 40
0.1249999999999995
 40
0.1874999999999995
 40
0.1874999999999995
 40
0.2187499999999995
 40
0.2187499999999995
 40
0.2499999999999996
 40
0.2499999999999996
 40
0.3124999999999996
 40
0.3124999999999996
 40
0.3749999999999996
 40
0.3749999999999996
 40
0.4374999999999997
 40
0.4374999999999997
 40
0.4999999999999998
 40
0.4999999999999998
 40
0.6249999999999997
 40
0.6249999999999997
 40
0.6874999999999998
 40
0.6874999999999998
 40
0.7499999999999999
 40
0.7499999999999999
 40
0.8125
 40
0.8125
 40
0.875
 40
0.875
 40
0.90625
 40
0.90625
 40
0.9375
 40
0.9375
 40
0.96875
 40
0.96875
 40
1.0
 40
1.0
 40
1.0
 40
1.0
 10
95.72727272727273
 20
170.2727272727274
 30
0.0
 10
96.10970987963009
 20
170.2727272727274
 30
0.0
 10
96.49199798687673
 20
170.2698853484053
 30
0.0
 10
97.25532372838266
 20
170.2402481738907
 30
0.0
 10
97.63638244591765
 20
170.2138608278906
 30
0.0
 10
98.39692363520109
 20
170.1309230269372
 30
0.0
 10
98.77575506930935
 20
170.0744419740721
 30
0.0
 10
99.52199932305292
 20
169.9312023989408
 30
0.0
 10
99.89058861664321
 20
169.8444639556915
 30
0.0
 10
100.9847900715357
 20
169.5456651137014
 30
0.0
 10
101.6989400355757
 20
169.295376984662
 30
0.0
 10
102.7512158360587
 20
168.8567559879809
 30
0.0
 10
103.0997334951812
 20
168.6994040937834
 30
0.0
 10
103.7846282821469
 20
168.3676483034388
 30
0.0
 10
104.1211753444567
 20
168.1931409410066
 30
0.0
 10
105.1155049940372
 20
167.6472249435469
 30
0.0
 10
105.7583093431453
 20
167.2539095830099
 30
0.0
 10
107.0117145295067
 20
166.4201782902822
 30
0.0
 10
107.6222014141376
 20
165.9795958358241
 30
0.0
 10
108.8141006309981
 20
165.0559078232637
 30
0.0
 10
109.395294084672
 20
164.572482170526
 30
0.0
 10
110.5305686216917
 20
163.5659773223954
 30
0.0
 10
111.0832160453445
 20
163.0444121399991
 30
0.0
 10
112.6860053955696
 20
161.440222514173
 30
0.0
 10
113.6878889106246
 20
160.3145762418108
 30
0.0
 10
115.0731051338548
 20
158.5269504530614
 30
0.0
 10
115.5152649632582
 20
157.9145681474087
 30
0.0
 10
116.3547746903326
 20
156.6520242828342
 30
0.0
 10
116.7529885638703
 20
156.0001704155271
 30
0.0
 10
117.4801931211976
 20
154.6723581505899
 30
0.0
 10
117.8098592912766
 20
153.9938140182166
 30
0.0
 10
118.3885810323944
 20
152.6019546051164
 30
0.0
 10
118.6383715354231
 20
151.8889567442395
 30
0.0
 10
118.9380301180242
 20
150.7870977471008
 30
0.0
 10
119.0253649679521
 20
150.4134397480845
 30
0.0
 10
119.1677644036887
 20
149.6654674827689
 30
0.0
 10
119.2231784273776
 20
149.2899094299423
 30
0.0
 10
119.3049043894142
 20
148.5358954156633
 30
0.0
 10
119.3310956005466
 20
148.1574274326854
 30
0.0
 10
119.3606624258543
 20
147.3982195608569
 30
0.0
 10
119.3636363636364
 20
147.0174396819153
 30
0.0
 10
119.3636363636364
 20
146.6363636363637
 30
0.0
  0
SPLINE
  5
ED
330
1F
100
AcDbEntity
  8
0
  6
Continuous
 62
     7
370
    25
100
AcDbSpline
210
0.0
220
0.0
230
1.0
 70
     8
 71
     3
 72
    26
 73
    22
 74
     0
 42
0.00000001
 43
0.00000001
 40
0.0
 40
0.0
 40
0.0
 40
0.0
 40
0.1249999999999991
 40
0.1249999999999991
 40
0.1874999999999989
 40
0.1874999999999989
 40
0.2499999999999988
 40
0.2499999999999988
 40
0.3749999999999989
 40
0.3749999999999989
 40
0.4999999999999991
 40
0.4999999999999991
 40
0.6249999999999993
 40
0.6249999999999993
 40
0.6874999999999994
 40
0.6874999999999994
 40
0.7499999999999996
 40
0.7499999999999996
 40
0.8749999999999998
 40
0.8749999999999998
 40
1.0
 40
1.0
 40
1.0
 40
1.0
 10
109.3180051032507
 20
165.8034296362819
 30
0.0
 10
108.5987734031014
 20
166.3849000589507
 30
0.0
 10
107.8596784304902
 20
166.9385952907363
 30
0.0
 10
106.7198153937877
 20
167.7125927755943
 30
0.0
 10
106.3342107831166
 20
167.9613312815615
 30
0.0
 10
105.5498634599953
 20
168.4383922445081
 30
0.0
 10
105.1495734244903
 20
168.6672016809869
 30
0.0
 10
103.947524865044
 20
169.3134648948808
 30
0.0
 10
103.1475043023911
 20
169.6895299125458
 30
0.0
 10
101.7029261752017
 20
170.2661340847556
 30
0.0
 10
101.0529835443261
 20
170.4715201489122
 30
0.0
 10
99.90723760265395
 20
170.7794915635752
 30
0.0
 10
99.41737926047338
 20
170.883449191795
 30
0.0
 10
98.74781314105387
 20
170.9962932667538
 30
0.0
 10
98.53511497014536
 20
171.0266607843116
 30
0.0
 10
98.12001835414576
 20
171.0779026783297
 30
0.0
 10
97.91808676236884
 20
171.0986525584238
 30
0.0
 10
97.33175842231002
 20
171.1488205082527
 30
0.0
 10
96.96728194842822
 20
171.1660240822855
 30
0.0
 10
96.30203834798652
 20
171.1823452919433
 30
0.0
 10
96.00005720104156
 20
171.1818181818183
 30
0.0
 10
95.72727272727273
 20
171.1818181818183
 30
0.0
  0
SPLINE
  5
EE
330
1F
100
AcDbEntity
  8
0
  6
Continuous
 62
     7
370
    25
100
AcDbSpline
210
0.0
220
0.0
230
1.0
 70
     8
 71
     3
 72
    12
 73
     8
 74
     0
 42
0.00000001
 43
0.00000001
 40
0.0
 40
0.0
 40
0.0
 40
0.0
 40
0.5000000000000009
 40
0.5000000000000009
 40
0.7500000000000004
 40
0.7500000000000004
 40
1.0
 40
1.0
 40
1.0
 40
1.0
 10
111.8342524810469
 20
163.5725024373891
 30
0.0
 10
111.3603740896936
 20
163.8688211144147
 30
0.0
 10
110.9105073123706
 20
164.2024748003937
 30
0.0
 10
110.2756233598782
 20
164.7650221964328
 30
0.0
 10
110.0695497736783
 20
164.9641319370619
 30
0.0
 10
109.6793658025774
 20
165.3745803698524
 30
0.0
 10
109.4945325127292
 20
165.5863427778377
 30
0.0
 10
109.319070526383
 20
165.8040672575118
 30
0.0
  0
LINE
  5
EF
330
1F
100
AcDbEntity
  8
0
  6
Continuous
 62
     7
370
    25
100
AcDbLine
 10
95.7272727273
 20
171.1818181818
 30
0.0
 11
70.2727272727
 21
171.1818181818
 31
0.0
  0
ARC
  5
F0
330
1F
100
AcDbEntity
  8
0
  6
Continuous
 62
     7
370
    25
100
AcDbCircle
 10
52.6185353048
 20
167.8458091279
 30
0.0
 40
4.545454545454517
100
AcDbArc
 50
333.3389437663
 51
289.8397546418
  0
LINE
  5
F1
330
1F
100
AcDbEntity
  8
0
  6
Continuous
 62
     7
370
    25
100
AcDbLine
 10
45.7272727273
 20
146.6363636364
 30
0.0
 11
45.7272727273
 21
143.0
 31
0.0
  0
LINE
  5
F2
330
1F
100
AcDbEntity
  8
0
  6
Continuous
 62
     7
370
    25
100
AcDbLine
 10
45.7272727273
 20
143.0
 30
0.0
 11
33.0
 21
143.0
 31
0.0
  0
LINE
  5
F3
330
1F
100
AcDbEntity
  8
0
  6
Continuous
 62
     7
370
    25
100
AcDbLine
 10
133.0
 20
143.0
 30
0.0
 11
120.2727272727
 21
143.0
 31
0.0
  0
LINE
  5
F4
330
1F
100
AcDbEntity
  8
0
  6
Continuous
 62
     7
370
    25
100
AcDbLine
 10
120.2727272727
 20
143.0
 30
0.0
 11
120.2727272727
 21
146.6363636364
 31
0.0
  0
ARC
  5
F5
330
1F
100
AcDbEntity
  8
0
  6
Continuous
 62
     7
370
    25
100
AcDbCircle
 10
113.3814646952
 20
167.8458091279
 30
0.0
 40
4.545454545454549
100
AcDbArc
 50
250.0964684715
 51
206.6832354673
  0
CIRCLE
  5
F6
330
1F
100
AcDbEntity
  8
0
  6
Continuous
 62
     7
370
    25
100
AcDbCircle
 10
126.5486107198
 20
147.8907623696
 30
0.0
 40
4.545454545454533
  0
CIRCLE
  5
F7
330
1F
100
AcDbEntity
  8
0
  6
Continuous
 62
     7
370
    25
100
AcDbCircle
 10
39.4513892802
 20
147.8907623696
 30
0.0
 40
4.545454545454533
  0
LINE
  5
F8
330
1F
100
AcDbEntity
  8
0
  6
Continuous
 62
     7
370
    25
100
AcDbLine
 10
33.0
 20
143.0
 30
0.0
 11
33.0
 21
154.371306061
 31
0.0
  0
LINE
  5
F9
330
1F
100
AcDbEntity
  8
0
  6
Continuous
 62
     7
370
    25
100
AcDbLine
 10
133.0
 20
154.371306061
 30
0.0
 11
133.0
 21
143.0
 31
0.0
  0
CIRCLE
  5
FA
330
1F
100
AcDbEntity
  8
0
  6
Continuous
 62
     7
370
    25
100
AcDbCircle
 10
113.3814646952
 20
167.8458091279
 30
0.0
 40
2.045454545454533
  0
CIRCLE
  5
FB
330
1F
100
AcDbEntity
  8
0
  6
Continuous
 62
     7
370
    25
100
AcDbCircle
 10
52.6185353048
 20
167.8458091279
 30
0.0
 40
2.045454545454533
  0
LINE
  5
FC
330
1F
100
AcDbEntity
  8
0
  6
Continuous
 62
     7
370
    25
100
AcDbLine
 10
70.2727272727
 20
170.2727272727
 30
0.0
 11
95.7272727273
 21
170.2727272727
 31
0.0
  0
CIRCLE
  5
FD
330
1F
100
AcDbEntity
  8
0
  6
Continuous
 62
     7
370
    25
100
AcDbCircle
 10
126.5486107198
 20
147.8907623696
 30
0.0
 40
2.045454545454533
  0
CIRCLE
  5
FE
330
1F
100
AcDbEntity
  8
0
  6
Continuous
 62
     7
370
    25
100
AcDbCircle
 10
39.4513892802
 20
147.8907623696
 30
0.0
 40
2.045454545454533
  0
LINE
  5
FF
330
1F
100
AcDbEntity
  8
0
  6
Continuous
 62
     7
370
    25
100
AcDbLine
 10
45.7272727273
 20
143.0
 30
0.0
 11
46.6363636364
 21
142.0909090909
 31
0.0
  0
LINE
  5
100
330
1F
100
AcDbEntity
  8
0
  6
Continuous
 62
     7
370
    25
100
AcDbLine
 10
46.6363636364
 20
142.0909090909
 30
0.0
 11
46.6363636364
 21
146.6363636364
 31
0.0
  0
LINE
  5
101
330
1F
100
AcDbEntity
  8
0
  6
Continuous
 62
     7
370
    25
100
AcDbLine
 10
119.3636363636
 20
142.0909090909
 30
0.0
 11
120.2727272727
 21
143.0
 31
0.0
  0
LINE
  5
102
330
1F
100
AcDbEntity
  8
0
  6
Continuous
 62
     7
370
    25
100
AcDbLine
 10
119.3636363636
 20
146.6363636364
 30
0.0
 11
119.3636363636
 21
142.0909090909
 31
0.0
  0
LINE
  5
103
330
1F
100
AcDbEntity
  8
0
  6
Continuous
 62
     7
370
    25
100
AcDbLine
 10
33.0
 20
142.0909090909
 30
0.0
 11
46.6363636364
 21
142.0909090909
 31
0.0
  0
LINE
  5
104
330
1F
100
AcDbEntity
  8
0
  6
Continuous
 62
     7
370
    25
100
AcDbLine
 10
33.0
 20
143.0
 30
0.0
 11
33.0
 21
142.0909090909
 31
0.0
  0
LINE
  5
105
330
1F
100
AcDbEntity
  8
0
  6
Continuous
 62
     7
370
    25
100
AcDbLine
 10
119.3636363636
 20
142.0909090909
 30
0.0
 11
133.0
 21
142.0909090909
 31
0.0
  0
LINE
  5
106
330
1F
100
AcDbEntity
  8
0
  6
Continuous
 62
     7
370
    25
100
AcDbLine
 10
133.0
 20
142.0909090909
 30
0.0
 11
133.0
 21
143.0
 31
0.0
  0
LINE
  5
107
330
1F
100
AcDbEntity
  8
0
  6
HIDDEN
 62
     7
370
    18
100
AcDbLine
 10
46.6363636364
 20
168.40405125
 30
0.0
 11
33.0
 21
168.40405125
 31
0.0
  0
LINE
  5
108
330
1F
100
AcDbEntity
  8
0
  6
HIDDEN
 62
     7
370
    18
100
AcDbLine
 10
133.0
 20
168.40405125
 30
0.0
 11
119.3636363636
 21
168.40405125
 31
0.0
  0
INSERT
  5
114
330
1F
100
AcDbEntity
  8
10
100
AcDbBlockReference
  2
SW_CENTERMARKSYMBOL_0
 10
52.6185353048
 20
167.8458091279
 30
0.0
  0
INSERT
  5
120
330
1F
100
AcDbEntity
  8
10
100
AcDbBlockReference
  2
SW_CENTERMARKSYMBOL_1
 10
113.3814646952
 20
167.8458091279
 30
0.0
  0
INSERT
  5
12C
330
1F
100
AcDbEntity
  8
10
100
AcDbBlockReference
  2
SW_CENTERMARKSYMBOL_2
 10
126.5486107198
 20
147.8907623696
 30
0.0
  0
INSERT
  5
138
330
1F
100
AcDbEntity
  8
10
100
AcDbBlockReference
  2
SW_CENTERMARKSYMBOL_3
 10
39.4513892802
 20
147.8907623696
 30
0.0
  0
ARC
  5
139
330
1F
100
AcDbEntity
  8
0
  6
Continuous
 62
     7
370
    25
100
AcDbCircle
 10
219.7676876136
 20
50.371263255
 30
0.0
 40
13.63636363636364
100
AcDbArc
 50
270.0
 51
15.6059930567
  0
ARC
  5
13A
330
1F
100
AcDbEntity
  8
0
  6
Continuous
 62
     7
370
    25
100
AcDbCircle
 10
170.9474370927
 20
36.7348996186
 30
0.0
 40
64.325290180032
100
AcDbArc
 50
15.6059930567
 51
41.1667753039
  0
ARC
  5
13B
330
1F
100
AcDbEntity
  8
0
  6
Continuous
 62
     7
370
    25
100
AcDbCircle
 10
221.3990057662
 20
80.9014640178
 30
0.0
 40
0.9090909090909782
100
AcDbArc
 50
41.1997137431
 51
41.9765471093
  0
LINE
  5
13C
330
1F
100
AcDbEntity
  8
0
  6
Continuous
 62
     7
370
    25
100
AcDbLine
 10
207.0909090909
 20
35.8258087095
 30
0.0
 11
207.0909090909
 21
32.1894450732
 31
0.0
  0
LINE
  5
13D
330
1F
100
AcDbEntity
  8
0
  6
Continuous
 62
     7
370
    25
100
AcDbLine
 10
207.0909090909
 20
35.8258087095
 30
0.0
 11
208.0
 21
36.7348996186
 31
0.0
  0
ARC
  5
13E
330
1F
100
AcDbEntity
  8
0
  6
Continuous
 62
     7
370
    25
100
AcDbCircle
 10
170.9474370927
 20
36.7348996186
 30
0.0
 40
67.96165381639562
100
AcDbArc
 50
0.0
 51
41.1997137431
  0
LINE
  5
13F
330
1F
100
AcDbEntity
  8
0
  6
Continuous
 62
     7
370
    25
100
AcDbLine
 10
219.7676876136
 20
36.7348996186
 30
0.0
 11
208.0
 21
36.7348996186
 31
0.0
  0
LINE
  5
140
330
1F
100
AcDbEntity
  8
0
  6
Continuous
 62
     7
370
    25
100
AcDbLine
 10
238.9090909091
 20
32.1894450732
 30
0.0
 11
238.9090909091
 21
36.7348996186
 31
0.0
  0
LINE
  5
141
330
1F
100
AcDbEntity
  8
0
  6
Continuous
 62
     7
370
    25
100
AcDbLine
 10
207.0909090909
 20
32.1894450732
 30
0.0
 11
238.9090909091
 21
32.1894450732
 31
0.0
  0
ARC
  5
142
330
1F
100
AcDbEntity
  8
0
  6
Continuous
 62
     7
370
    25
100
AcDbCircle
 10
220.0472077678
 20
79.6853011968
 30
0.0
 40
0.9090909090908816
100
AcDbArc
 50
131.9765471093
 51
221.1780608281
  0
LINE
  5
143
330
1F
100
AcDbEntity
  8
0
  6
Continuous
 62
     7
370
    25
100
AcDbLine
 10
220.7909818037
 20
81.5772991619
 30
0.0
 11
219.4391838054
 21
80.3611363409
 31
0.0
  0
ARC
  5
144
330
1F
100
AcDbEntity
  8
0
  6
Continuous
 62
     7
370
    25
100
AcDbCircle
 10
221.3990057662
 20
80.9014640178
 30
0.0
 40
0.9090909090909782
100
AcDbArc
 50
41.9765471093
 51
131.9765471093
  0
SPLINE
  5
145
330
1F
100
AcDbEntity
  8
0
  6
Continuous
 62
     7
370
    25
100
AcDbSpline
210
0.0
220
0.0
230
1.0
 70
     8
 71
     3
 72
     8
 73
     4
 74
     0
 42
0.00000001
 43
0.00000001
 40
0.450656264537952
 40
0.450656264537952
 40
0.450656264537952
 40
0.450656264537952
 40
0.452046645445743
 40
0.452046645445743
 40
0.452046645445743
 40
0.452046645445743
 10
219.3629649741866
 20
79.08675455675268
 30
0.0
 10
219.3657521050423
 20
79.08356838198304
 30
0.0
 10
219.3685326595725
 20
79.08038909033505
 30
0.0
 10
219.3713060609593
 20
79.07721735027586
 30
0.0
  0
LINE
  5
146
330
1F
100
AcDbEntity
  8
0
  6
HIDDEN
 62
     7
370
    18
100
AcDbLine
 10
214.9362169151
 20
34.2348996186
 30
0.0
 11
210.8453078242
 21
34.2348996186
 31
0.0
  0
SPLINE
  5
147
330
1F
100
AcDbEntity
  8
0
  6
HIDDEN
 62
     7
370
    18
100
AcDbSpline
210
0.0
220
0.0
230
1.0
 70
     8
 71
     3
 72
    46
 73
    42
 74
     0
 42
0.00000001
 43
0.00000001
 40
0.0
 40
0.0
 40
0.0
 40
0.0
 40
0.0312499999999999
 40
0.0312499999999999
 40
0.0624999999999998
 40
0.0624999999999998
 40
0.0937499999999996
 40
0.0937499999999996
 40
0.1249999999999995
 40
0.1249999999999995
 40
0.1874999999999995
 40
0.1874999999999995
 40
0.2187499999999995
 40
0.2187499999999995
 40
0.2499999999999996
 40
0.2499999999999996
 40
0.3124999999999996
 40
0.3124999999999996
 40
0.3749999999999996
 40
0.3749999999999996
 40
0.4374999999999997
 40
0.4374999999999997
 40
0.4999999999999998
 40
0.4999999999999998
 40
0.6249999999999997
 40
0.6249999999999997
 40
0.6874999999999998
 40
0.6874999999999998
 40
0.7499999999999999
 40
0.7499999999999999
 40
0.8125
 40
0.8125
 40
0.875
 40
0.875
 40
0.90625
 40
0.90625
 40
0.9375
 40
0.9375
 40
0.96875
 40
0.96875
 40
1.0
 40
1.0
 40
1.0
 40
1.0
 10
235.2727272727274
 20
35.82580870951469
 30
0.0
 10
235.2727272727274
 20
35.82580870951468
 30
0.0
 10
235.2698853484053
 20
35.82389687019703
 30
0.0
 10
235.2402481738907
 20
35.82362072792434
 30
0.0
 10
235.2138608278906
 20
35.82447544622521
 30
0.0
 10
235.1309230269372
 20
35.825214160336
 30
0.0
 10
235.0744419740721
 20
35.82534414183368
 30
0.0
 10
234.9312023989408
 20
35.82690832582853
 30
0.0
 10
234.8444639556915
 20
35.82732025095365
 30
0.0
 10
234.5456651137014
 20
35.82349139507377
 30
0.0
 10
234.295376984662
 20
35.82057813620924
 30
0.0
 10
233.8567559879809
 20
35.82526413835657
 30
0.0
 10
233.6994040937834
 20
35.82730783282921
 30
0.0
 10
233.3676483034388
 20
35.82891984811314
 30
0.0
 10
233.1931409410066
 20
35.82848713956348
 30
0.0
 10
232.6472249435469
 20
35.8253583998377
 30
0.0
 10
232.2539095830099
 20
35.82301572421145
 30
0.0
 10
231.4201782902822
 20
35.82419987621964
 30
0.0
 10
230.9795958358241
 20
35.82665595619328
 30
0.0
 10
230.0559078232637
 20
35.82867446328024
 30
0.0
 10
229.572482170526
 20
35.82800962100075
 30
0.0
 10
228.5659773223954
 20
35.8257748343915
 30
0.0
 10
228.0444121399991
 20
35.82491460484869
 30
0.0
 10
226.440222514173
 20
35.8255752223735
 30
0.0
 10
225.3145762418108
 20
35.82553704730755
 30
0.0
 10
223.5269504530614
 20
35.82533478121691
 30
0.0
 10
222.9145681474087
 20
35.8254381234011
 30
0.0
 10
221.6520242828342
 20
35.82512503226648
 30
0.0
 10
221.0001704155271
 20
35.8247891564786
 30
0.0
 10
219.6723581505899
 20
35.82586560522417
 30
0.0
 10
218.9938140182166
 20
35.82674500086249
 30
0.0
 10
217.6019546051164
 20
35.82416586150755
 30
0.0
 10
216.8889567442395
 20
35.82440727892478
 30
0.0
 10
215.7870977471008
 20
35.8256304365373
 30
0.0
 10
215.4134397480845
 20
35.82611628373913
 30
0.0
 10
214.6654674827689
 20
35.82569252427763
 30
0.0
 10
214.2899094299423
 20
35.82480790040184
 30
0.0
 10
213.5358954156633
 20
35.82377654251615
 30
0.0
 10
213.1574274326854
 20
35.82364101680021
 30
0.0
 10
212.3982195608569
 20
35.82446669352763
 30
0.0
 10
212.0174396819153
 20
35.82580870951468
 30
0.0
 10
211.6363636363637
 20
35.82580870951469
 30
0.0
  0
LINE
  5
148
330
1F
100
AcDbEntity
  8
0
  6
HIDDEN
 62
     7
370
    18
100
AcDbLine
 10
238.0
 20
36.7348996186
 30
0.0
 11
219.7676876136
 21
36.7348996186
 31
0.0
  0
LINE
  5
149
330
1F
100
AcDbEntity
  8
0
  6
HIDDEN
 62
     7
370
    18
100
AcDbLine
 10
224.6632919837
 20
37.6439905277
 30
0.0
 11
237.0909090909
 21
37.6439905277
 31
0.0
  0
LINE
  5
14A
330
1F
100
AcDbEntity
  8
0
  6
HIDDEN
 62
     7
370
    18
100
AcDbLine
 10
238.9090909091
 20
35.8258087095
 30
0.0
 11
237.0909090909
 21
37.6439905277
 31
0.0
  0
LINE
  5
14B
330
1F
100
AcDbEntity
  8
0
  6
HIDDEN
 62
     7
370
    18
100
AcDbLine
 10
211.6363636364
 20
35.8258087095
 30
0.0
 11
207.0909090909
 21
35.8258087095
 31
0.0
  0
LINE
  5
14C
330
1F
100
AcDbEntity
  8
0
  6
HIDDEN
 62
     7
370
    18
100
AcDbLine
 10
234.8912636734
 20
34.2348996186
 30
0.0
 11
230.8003545825
 21
34.2348996186
 31
0.0
  0
SPLINE
  5
14D
330
1F
100
AcDbEntity
  8
0
  6
HIDDEN
 62
     7
370
    18
100
AcDbSpline
210
0.0
220
0.0
230
1.0
 70
     8
 71
     3
 72
    12
 73
     8
 74
     0
 42
0.00000001
 43
0.00000001
 40
0.0
 40
0.0
 40
0.0
 40
0.0
 40
0.5000000000000009
 40
0.5000000000000009
 40
0.7500000000000004
 40
0.7500000000000004
 40
1.0
 40
1.0
 40
1.0
 40
1.0
 10
228.5725024373891
 20
36.73422402344625
 30
0.0
 10
228.8688211144147
 20
36.61693115711731
 30
0.0
 10
229.2024748003937
 20
36.55518912472095
 30
0.0
 10
229.7650221964328
 20
36.5549404569661
 30
0.0
 10
229.9641319370619
 20
36.57049532042889
 30
0.0
 10
230.3745803698524
 20
36.63165906788007
 30
0.0
 10
230.5863427778377
 20
36.67706363177048
 30
0.0
 10
230.8040672575118
 20
36.73606538373218
 30
0.0
  0
LINE
  5
14E
330
1F
100
AcDbEntity
  8
0
  6
HIDDEN
 62
     7
370
    18
100
AcDbLine
 10
236.1818181818
 20
36.7348996186
 30
0.0
 11
235.2727272727
 21
35.8258087095
 31
0.0
  0
LINE
  5
14F
330
1F
100
AcDbEntity
  8
0
  6
HIDDEN
 62
     7
370
    18
100
AcDbLine
 10
235.2727272727
 20
35.8258087095
 30
0.0
 11
235.2727272727
 21
32.1894450732
 31
0.0
  0
LINE
  5
150
330
1F
100
AcDbEntity
  8
0
  6
HIDDEN
 62
     7
370
    18
100
AcDbLine
 10
208.3453078242
 20
36.7348996186
 30
0.0
 11
210.8453078242
 21
34.2348996186
 31
0.0
  0
LINE
  5
151
330
1F
100
AcDbEntity
  8
0
  6
HIDDEN
 62
     7
370
    18
100
AcDbLine
 10
214.9362169151
 20
34.2348996186
 30
0.0
 11
217.4362169151
 21
36.7348996186
 31
0.0
  0
LINE
  5
152
330
1F
100
AcDbEntity
  8
0
  6
HIDDEN
 62
     7
370
    18
100
AcDbLine
 10
214.9362169151
 20
32.1894450732
 30
0.0
 11
214.9362169151
 21
34.2348996186
 31
0.0
  0
LINE
  5
153
330
1F
100
AcDbEntity
  8
0
  6
HIDDEN
 62
     7
370
    18
100
AcDbLine
 10
210.8453078242
 20
34.2348996186
 30
0.0
 11
210.8453078242
 21
32.1894450732
 31
0.0
  0
LINE
  5
154
330
1F
100
AcDbEntity
  8
0
  6
HIDDEN
 62
     7
370
    18
100
AcDbLine
 10
228.3003545825
 20
36.7348996186
 30
0.0
 11
230.8003545825
 21
34.2348996186
 31
0.0
  0
LINE
  5
155
330
1F
100
AcDbEntity
  8
0
  6
HIDDEN
 62
     7
370
    18
100
AcDbLine
 10
234.8912636734
 20
34.2348996186
 30
0.0
 11
237.3912636734
 21
36.7348996186
 31
0.0
  0
LINE
  5
156
330
1F
100
AcDbEntity
  8
0
  6
HIDDEN
 62
     7
370
    18
100
AcDbLine
 10
234.8912636734
 20
32.1894450732
 30
0.0
 11
234.8912636734
 21
34.2348996186
 31
0.0
  0
LINE
  5
157
330
1F
100
AcDbEntity
  8
0
  6
HIDDEN
 62
     7
370
    18
100
AcDbLine
 10
230.8003545825
 20
34.2348996186
 30
0.0
 11
230.8003545825
 21
32.1894450732
 31
0.0
  0
ENDSEC
  0
SECTION
  2
OBJECTS
  0
DICTIONARY
  5
C
330
0
100
AcDbDictionary
281
     1
  3
ACAD_GROUP
350
D
  3
ACAD_LAYOUT
350
1A
  3
ACAD_MLINESTYLE
350
17
  3
ACAD_PLOTSETTINGS
350
19
  3
ACAD_PLOTSTYLENAME
350
E
  3
ACAD_SCALELIST
350
47
  3
DWGPROPS
350
158
  0
DICTIONARY
  5
D
102
{ACAD_REACTORS
330
C
102
}
330
C
100
AcDbDictionary
281
     1
  0
DICTIONARY
  5
1A
102
{ACAD_REACTORS
330
C
102
}
330
C
100
AcDbDictionary
281
     1
  3
Layout1
350
1E
  3
Layout2
350
26
  3
Model
350
22
  0
DICTIONARY
  5
17
102
{ACAD_REACTORS
330
C
102
}
330
C
100
AcDbDictionary
281
     1
  3
Standard
350
18
  0
DICTIONARY
  5
19
102
{ACAD_REACTORS
330
C
102
}
330
C
100
AcDbDictionary
281
     1
  0
ACDBDICTIONARYWDFLT
  5
E
102
{ACAD_REACTORS
330
C
102
}
330
C
100
AcDbDictionary
281
     1
  3
Normal
350
F
100
AcDbDictionaryWithDefault
340
F
  0
DICTIONARY
  5
47
102
{ACAD_REACTORS
330
C
102
}
330
C
100
AcDbDictionary
281
     1
  3
A0
350
48
  3
A1
350
49
  3
A2
350
4A
  3
A3
350
4B
  3
A4
350
4C
  3
A5
350
4D
  3
A6
350
4E
  3
A7
350
4F
  3
A8
350
50
  3
A9
350
51
  3
B0
350
52
  3
B1
350
53
  3
B2
350
54
  3
B3
350
55
  3
B4
350
56
  3
B5
350
57
  3
B6
350
58
  0
XRECORD
  5
158
102
{ACAD_REACTORS
330
C
102
}
330
C
100
AcDbXrecord
280
     1
  1
DWGPROPS COOKIE
  2

  3

  4

  6

  7

  8

  9

300
=
301
=
302
=
303
=
304
=
305
=
306
=
307
=
308
=
309
=
 40
0.0
 41
2461215.129833357
 42
2461215.129833762
  1

 90
        0
  0
LAYOUT
  5
1E
102
{ACAD_REACTORS
330
1A
102
}
330
1A
100
AcDbPlotSettings
  1

  2
none_device
  4

  6

 40
0.0
 41
0.0
 42
0.0
 43
0.0
 44
0.0
 45
0.0
 46
0.0
 47
0.0
 48
0.0
 49
0.0
140
0.0
141
0.0
142
1.0
143
1.0
 70
   688
 72
     1
 73
     0
 74
     5
  7

 75
    16
147
1.0
148
0.0
149
0.0
100
AcDbLayout
  1
Layout1
 70
     1
 71
     1
 10
0.0
 20
0.0
 11
420.0
 21
297.0
 12
0.0
 22
0.0
 32
0.0
 14
1.0000000000E+20
 24
1.0000000000E+20
 34
1.0000000000E+20
 15
-1.0000000000E+20
 25
-1.0000000000E+20
 35
-1.0000000000E+20
146
0.0
 13
0.0
 23
0.0
 33
0.0
 16
1.0
 26
0.0
 36
0.0
 17
0.0
 27
1.0
 37
0.0
 76
     0
330
1B
  0
LAYOUT
  5
26
102
{ACAD_REACTORS
330
1A
102
}
330
1A
100
AcDbPlotSettings
  1

  2
none_device
  4

  6

 40
0.0
 41
0.0
 42
0.0
 43
0.0
 44
0.0
 45
0.0
 46
0.0
 47
0.0
 48
0.0
 49
0.0
140
0.0
141
0.0
142
1.0
143
1.0
 70
   688
 72
     1
 73
     0
 74
     5
  7

 75
    16
147
1.0
148
0.0
149
0.0
100
AcDbLayout
  1
Layout2
 70
     1
 71
     2
 10
0.0
 20
0.0
 11
0.0
 21
0.0
 12
0.0
 22
0.0
 32
0.0
 14
0.0
 24
0.0
 34
0.0
 15
0.0
 25
0.0
 35
0.0
146
0.0
 13
0.0
 23
0.0
 33
0.0
 16
1.0
 26
0.0
 36
0.0
 17
0.0
 27
1.0
 37
0.0
 76
     0
330
23
  0
LAYOUT
  5
22
102
{ACAD_REACTORS
330
1A
102
}
330
1A
100
AcDbPlotSettings
  1

  2
none_device
  4
Letter_(8.50_x_11.00_Inches)
  6

 40
6.35
 41
6.35
 42
6.35000508
 43
6.35000508
 44
215.9
 45
279.4
 46
0.0
 47
0.0
 48
0.0
 49
0.0
140
0.0
141
0.0
142
1.0
143
1.0
 70
  1712
 72
     1
 73
     0
 74
     0
  7

 75
     0
147
1.0
148
0.0
149
0.0
100
AcDbLayout
  1
Model
 70
     1
 71
     0
 10
0.0
 20
0.0
 11
297.0
 21
210.0
 12
0.0
 22
0.0
 32
0.0
 14
0.0
 24
0.0
 34
0.0
 15
297.0
 25
210.0
 35
0.0
146
0.0
 13
0.0
 23
0.0
 33
0.0
 16
1.0
 26
0.0
 36
0.0
 17
0.0
 27
1.0
 37
0.0
 76
     0
330
1F
331
29
  0
MLINESTYLE
  5
18
102
{ACAD_REACTORS
330
17
102
}
330
17
100
AcDbMlineStyle
  2
Standard
 70
     0
  3

 62
   256
 51
90.0
 52
90.0
 71
     2
 49
0.5
 62
   256
  6
BYLAYER
 49
-0.5
 62
   256
  6
BYLAYER
  0
ACDBPLACEHOLDER
  5
F
102
{ACAD_REACTORS
330
E
102
}
330
E
  0
SCALE
  5
48
102
{ACAD_REACTORS
330
47
102
}
330
47
100
AcDbScale
 70
     0
300
1:1
140
1.0
141
1.0
290
     1
  0
SCALE
  5
49
102
{ACAD_REACTORS
330
47
102
}
330
47
100
AcDbScale
 70
     0
300
1:2
140
1.0
141
2.0
290
     0
  0
SCALE
  5
4A
102
{ACAD_REACTORS
330
47
102
}
330
47
100
AcDbScale
 70
     0
300
1:4
140
1.0
141
4.0
290
     0
  0
SCALE
  5
4B
102
{ACAD_REACTORS
330
47
102
}
330
47
100
AcDbScale
 70
     0
300
1:5
140
1.0
141
5.0
290
     0
  0
SCALE
  5
4C
102
{ACAD_REACTORS
330
47
102
}
330
47
100
AcDbScale
 70
     0
300
1:8
140
1.0
141
8.0
290
     0
  0
SCALE
  5
4D
102
{ACAD_REACTORS
330
47
102
}
330
47
100
AcDbScale
 70
     0
300
1:10
140
1.0
141
10.0
290
     0
  0
SCALE
  5
4E
102
{ACAD_REACTORS
330
47
102
}
330
47
100
AcDbScale
 70
     0
300
1:16
140
1.0
141
16.0
290
     0
  0
SCALE
  5
4F
102
{ACAD_REACTORS
330
47
102
}
330
47
100
AcDbScale
 70
     0
300
1:20
140
1.0
141
20.0
290
     0
  0
SCALE
  5
50
102
{ACAD_REACTORS
330
47
102
}
330
47
100
AcDbScale
 70
     0
300
1:30
140
1.0
141
30.0
290
     0
  0
SCALE
  5
51
102
{ACAD_REACTORS
330
47
102
}
330
47
100
AcDbScale
 70
     0
300
1:40
140
1.0
141
40.0
290
     0
  0
SCALE
  5
52
102
{ACAD_REACTORS
330
47
102
}
330
47
100
AcDbScale
 70
     0
300
1:50
140
1.0
141
50.0
290
     0
  0
SCALE
  5
53
102
{ACAD_REACTORS
330
47
102
}
330
47
100
AcDbScale
 70
     0
300
1:100
140
1.0
141
100.0
290
     0
  0
SCALE
  5
54
102
{ACAD_REACTORS
330
47
102
}
330
47
100
AcDbScale
 70
     0
300
2:1
140
2.0
141
1.0
290
     0
  0
SCALE
  5
55
102
{ACAD_REACTORS
330
47
102
}
330
47
100
AcDbScale
 70
     0
300
4:1
140
4.0
141
1.0
290
     0
  0
SCALE
  5
56
102
{ACAD_REACTORS
330
47
102
}
330
47
100
AcDbScale
 70
     0
300
8:1
140
8.0
141
1.0
290
     0
  0
SCALE
  5
57
102
{ACAD_REACTORS
330
47
102
}
330
47
100
AcDbScale
 70
     0
300
10:1
140
10.0
141
1.0
290
     0
  0
SCALE
  5
58
102
{ACAD_REACTORS
330
47
102
}
330
47
100
AcDbScale
 70
     0
300
100:1
140
100.0
141
1.0
290
     0
  0
ENDSEC
  0
EOF
