  0
SECTION
  2
HEADER
  9
$ACADVER
  1
AC1015
  9
$ACADMAINTVER
 70
     6
  9
$DWGCODEPAGE
  3
ANSI_936
  9
$INSBASE
 10
0.0
 20
0.0
 30
0.0
  9
$EXTMIN
 10
0.0
 20
0.0
 30
0.0
  9
$EXTMAX
 10
297.0
 20
210.0
 30
0.0
  9
$LIMMIN
 10
0.0
 20
0.0
  9
$LIMMAX
 10
297.0
 20
210.0
  9
$ORTHOMODE
 70
     0
  9
$REGENMODE
 70
     1
  9
$FILLMODE
 70
     1
  9
$QTEXTMODE
 70
     0
  9
$MIRRTEXT
 70
     1
  9
$LTSCALE
 40
1.0
  9
$ATTMODE
 70
     1
  9
$TEXTSIZE
 40
3.5
  9
$TRACEWID
 40
1.0
  9
$TEXTSTYLE
  7
Standard
  9
$CLAYER
  8
0
  9
$CELTYPE
  6
ByLayer
  9
$CECOLOR
 62
   256
  9
$CELTSCALE
 40
1.0
  9
$DISPSILH
 70
     0
  9
$DIMSCALE
 40
1.0
  9
$DIMASZ
 40
4.08
  9
$DIMEXO
 40
0.0
  9
$DIMDLI
 40
3.75
  9
$DIMRND
 40
0.0
  9
$DIMDLE
 40
0.0
  9
$DIMEXE
 40
2.0
  9
$DIMTP
 40
0.0
  9
$DIMTM
 40
0.0
  9
$DIMTXT
 40
3.5
  9
$DIMCEN
 40
2.5
  9
$DIMTSZ
 40
0.0
  9
$DIMTOL
 70
     0
  9
$DIMLIM
 70
     0
  9
$DIMTIH
 70
     1
  9
$DIMTOH
 70
     1
  9
$DIMSE1
 70
     0
  9
$DIMSE2
 70
     0
  9
$DIMTAD
 70
     1
  9
$DIMZIN
 70
     0
  9
$DIMBLK
  1

  9
$DIMASO
 70
     1
  9
$DIMSHO
 70
     1
  9
$DIMPOST
  1

  9
$DIMAPOST
  1

  9
$DIMALT
 70
     0
  9
$DIMALTD
 70
     3
  9
$DIMALTF
 40
0.0393700787
  9
$DIMLFAC
 40
2.0
  9
$DIMTOFL
 70
     1
  9
$DIMTVP
 40
0.0
  9
$DIMTIX
 70
     0
  9
$DIMSOXD
 70
     0
  9
$DIMSAH
 70
     0
  9
$DIMBLK1
  1

  9
$DIMBLK2
  1

  9
$DIMSTYLE
  2
ISO-25
  9
$DIMCLRD
 70
     0
  9
$DIMCLRE
 70
     0
  9
$DIMCLRT
 70
     0
  9
$DIMTFAC
 40
1.0
  9
$DIMGAP
 40
1.524
  9
$DIMJUST
 70
     0
  9
$DIMSD1
 70
     0
  9
$DIMSD2
 70
     0
  9
$DIMTOLJ
 70
     0
  9
$DIMTZIN
 70
     0
  9
$DIMALTZ
 70
     0
  9
$DIMALTTZ
 70
     0
  9
$DIMUPT
 70
     0
  9
$DIMDEC
 70
     2
  9
$DIMTDEC
 70
     2
  9
$DIMALTU
 70
     2
  9
$DIMALTTD
 70
     3
  9
$DIMTXSTY
  7
Standard
  9
$DIMAUNIT
 70
     0
  9
$DIMADEC
 70
     2
  9
$DIMALTRND
 40
0.0
  9
$DIMAZIN
 70
     0
  9
$DIMDSEP
 70
    44
  9
$DIMATFIT
 70
     3
  9
$DIMFRAC
 70
     0
  9
$DIMLDRBLK
  1

  9
$DIMLUNIT
 70
     2
  9
$DIMLWD
 70
    -2
  9
$DIMLWE
 70
    -2
  9
$DIMTMOVE
 70
     0
  9
$LUNITS
 70
     2
  9
$LUPREC
 70
     2
  9
$SKETCHINC
 40
1.0
  9
$FILLETRAD
 40
0.0
  9
$AUNITS
 70
     0
  9
$AUPREC
 70
     2
  9
$MENU
  1
.
  9
$ELEVATION
 40
0.0
  9
$PELEVATION
 40
0.0
  9
$THICKNESS
 40
0.0
  9
$LIMCHECK
 70
     0
  9
$CHAMFERA
 40
0.0
  9
$CHAMFERB
 40
0.0
  9
$CHAMFERC
 40
0.0
  9
$CHAMFERD
 40
0.0
  9
$SKPOLY
 70
     0
  9
$TDCREATE
 40
2461215.473474664
  9
$TDUCREATE
 40
2461215.140141331
  9
$TDUPDATE
 40
2461215.473474966
  9
$TDUUPDATE
 40
2461215.140141632
  9
$TDINDWG
 40
0.0000000116
  9
$TDUSRTIMER
 40
0.0000000116
  9
$USRTIMER
 70
     1
  9
$ANGBASE
 50
0.0
  9
$ANGDIR
 70
     0
  9
$PDMODE
 70
     0
  9
$PDSIZE
 40
-1.0
  9
$PLINEWID
 40
0.0
  9
$SPLFRAME
 70
     0
  9
$SPLINETYPE
 70
     6
  9
$SPLINESEGS
 70
     8
  9
$HANDSEED
  5
C7
  9
$SURFTAB1
 70
     6
  9
$SURFTAB2
 70
     6
  9
$SURFTYPE
 70
     6
  9
$SURFU
 70
     6
  9
$SURFV
 70
     6
  9
$UCSBASE
  2

  9
$UCSNAME
  2

  9
$UCSORG
 10
0.0
 20
0.0
 30
0.0
  9
$UCSXDIR
 10
1.0
 20
0.0
 30
0.0
  9
$UCSYDIR
 10
0.0
 20
1.0
 30
0.0
  9
$UCSORTHOREF
  2

  9
$UCSORTHOVIEW
 70
     0
  9
$UCSORGTOP
 10
0.0
 20
0.0
 30
0.0
  9
$UCSORGBOTTOM
 10
0.0
 20
0.0
 30
0.0
  9
$UCSORGLEFT
 10
0.0
 20
0.0
 30
0.0
  9
$UCSORGRIGHT
 10
0.0
 20
0.0
 30
0.0
  9
$UCSORGFRONT
 10
0.0
 20
0.0
 30
0.0
  9
$UCSORGBACK
 10
0.0
 20
0.0
 30
0.0
  9
$PUCSBASE
  2

  9
$PUCSNAME
  2

  9
$PUCSORG
 10
0.0
 20
0.0
 30
0.0
  9
$PUCSXDIR
 10
1.0
 20
0.0
 30
0.0
  9
$PUCSYDIR
 10
0.0
 20
1.0
 30
0.0
  9
$PUCSORTHOREF
  2

  9
$PUCSORTHOVIEW
 70
     0
  9
$PUCSORGTOP
 10
0.0
 20
0.0
 30
0.0
  9
$PUCSORGBOTTOM
 10
0.0
 20
0.0
 30
0.0
  9
$PUCSORGLEFT
 10
0.0
 20
0.0
 30
0.0
  9
$PUCSORGRIGHT
 10
0.0
 20
0.0
 30
0.0
  9
$PUCSORGFRONT
 10
0.0
 20
0.0
 30
0.0
  9
$PUCSORGBACK
 10
0.0
 20
0.0
 30
0.0
  9
$USERI1
 70
     0
  9
$USERI2
 70
     0
  9
$USERI3
 70
     0
  9
$USERI4
 70
     0
  9
$USERI5
 70
     0
  9
$USERR1
 40
0.0
  9
$USERR2
 40
0.0
  9
$USERR3
 40
0.0
  9
$USERR4
 40
0.0
  9
$USERR5
 40
0.0
  9
$WORLDVIEW
 70
     1
  9
$SHADEDGE
 70
     3
  9
$SHADEDIF
 70
    70
  9
$TILEMODE
 70
     1
  9
$MAXACTVP
 70
    64
  9
$PINSBASE
 10
0.0
 20
0.0
 30
0.0
  9
$PLIMCHECK
 70
     0
  9
$PEXTMIN
 10
1.0000000000E+20
 20
1.0000000000E+20
 30
1.0000000000E+20
  9
$PEXTMAX
 10
-1.0000000000E+20
 20
-1.0000000000E+20
 30
-1.0000000000E+20
  9
$PLIMMIN
 10
0.0
 20
0.0
  9
$PLIMMAX
 10
420.0
 20
297.0
  9
$UNITMODE
 70
     0
  9
$VISRETAIN
 70
     1
  9
$PLINEGEN
 70
     0
  9
$PSLTSCALE
 70
     1
  9
$TREEDEPTH
 70
  3020
  9
$CMLSTYLE
  2
Standard
  9
$CMLJUST
 70
     0
  9
$CMLSCALE
 40
20.0
  9
$PROXYGRAPHICS
 70
     1
  9
$MEASUREMENT
 70
     1
  9
$CELWEIGHT
370
    -1
  9
$ENDCAPS
280
     0
  9
$JOINSTYLE
280
     0
  9
$LWDISPLAY
290
     1
  9
$INSUNITS
 70
     4
  9
$HYPERLINKBASE
  1

  9
$STYLESHEET
  1

  9
$XEDIT
290
     1
  9
$CEPSNTYPE
380
     0
  9
$PSTYLEMODE
290
     1
  9
$FINGERPRINTGUID
  2
{d60e2d38-de10-45d9-b413-e609f0b4bf40}
  9
$VERSIONGUID
  2
{FAEB1C32-E019-11D5-929B-00C0DF256EC4}
  9
$EXTNAMES
290
     1
  9
$PSVPSCALE
 40
0.0
  9
$OLESTARTUP
290
     0
  0
ENDSEC
  0
SECTION
  2
CLASSES
  0
CLASS
  1
ACDBDICTIONARYWDFLT
  2
AcDbDictionaryWithDefault
  3
ObjectDBX Classes
 90
        0
280
     0
281
     0
  0
CLASS
  1
VISUALSTYLE
  2
AcDbVisualStyle
  3
ObjectDBX Classes
 90
     4095
280
     0
281
     0
  0
CLASS
  1
MATERIAL
  2
AcDbMaterial
  3
ObjectDBX Classes
 90
     1153
280
     0
281
     0
  0
CLASS
  1
SCALE
  2
AcDbScale
  3
ObjectDBX Classes
 90
     1153
280
     0
281
     0
  0
CLASS
  1
TABLESTYLE
  2
AcDbTableStyle
  3
ObjectDBX Classes
 90
     4095
280
     0
281
     0
  0
CLASS
  1
MLEADERSTYLE
  2
AcDbMLeaderStyle
  3
ACDB_MLEADERSTYLE_CLASS
 90
     4095
280
     0
281
     0
  0
CLASS
  1
SUN
  2
AcDbSun
  3
SCENEOE
 90
     1153
280
     0
281
     0
  0
CLASS
  1
ACDBPLACEHOLDER
  2
AcDbPlaceHolder
  3
ObjectDBX Classes
 90
        0
280
     0
281
     0
  0
CLASS
  1
LAYOUT
  2
AcDbLayout
  3
ObjectDBX Classes
 90
        0
280
     0
281
     0
  0
ENDSEC
  0
SECTION
  2
TABLES
  0
TABLE
  2
VPORT
  5
8
330
0
100
AcDbSymbolTable
 70
     1
  0
VPORT
  5
29
330
8
100
AcDbSymbolTableRecord
100
AcDbViewportTableRecord
  2
*Active
 70
     0
 10
0.0
 20
0.0
 11
1.0
 21
1.0
 12
148.5
 22
105.0
 13
0.0
 23
0.0
 14
10.0
 24
10.0
 15
10.0
 25
10.0
 16
0.0
 26
0.0
 36
1.0
 17
0.0
 27
0.0
 37
0.0
 40
210.0
 41
1.4142857143
 42
50.0
 43
0.0
 44
0.0
 50
0.0
 51
0.0
 71
     0
 72
  2000
 73
     1
 74
     3
 75
     0
 76
     0
 77
     0
 78
     0
281
     0
 65
     1
110
0.0
120
0.0
130
0.0
111
1.0
121
0.0
131
0.0
112
0.0
122
1.0
132
0.0
 79
     0
146
0.0
  0
ENDTAB
  0
TABLE
  2
LTYPE
  5
5
330
0
100
AcDbSymbolTable
 70
     6
  0
LTYPE
  5
14
330
5
100
AcDbSymbolTableRecord
100
AcDbLinetypeTableRecord
  2
ByBlock
 70
     0
  3

 72
    65
 73
     0
 40
0.0
  0
LTYPE
  5
15
330
5
100
AcDbSymbolTableRecord
100
AcDbLinetypeTableRecord
  2
ByLayer
 70
     0
  3

 72
    65
 73
     0
 40
0.0
  0
LTYPE
  5
16
330
5
100
AcDbSymbolTableRecord
100
AcDbLinetypeTableRecord
  2
Continuous
 70
     0
  3
Solid line
 72
    65
 73
     0
 40
0.0
  0
LTYPE
  5
5E
330
5
100
AcDbSymbolTableRecord
100
AcDbLinetypeTableRecord
  2
HIDDEN
 70
     0
  3
Hidden __ __ __ __ __ __ __ __ __ __ __ __ __ __
 72
    65
 73
     2
 40
1.905
 49
1.27
 74
     0
 49
-0.635
 74
     0
  0
LTYPE
  5
5F
330
5
100
AcDbSymbolTableRecord
100
AcDbLinetypeTableRecord
  2
PHANTOM
 70
     0
  3
Phantom ______  __  __  ______  __  __  ______
 72
    65
 73
     6
 40
12.7
 49
6.35
 74
     0
 49
-1.27
 74
     0
 49
1.27
 74
     0
 49
-1.27
 74
     0
 49
1.27
 74
     0
 49
-1.27
 74
     0
  0
LTYPE
  5
60
330
5
100
AcDbSymbolTableRecord
100
AcDbLinetypeTableRecord
  2
CENTER
 70
     0
  3
Center ____ _ ____ _ ____ _ ____ _ ____ _ ____
 72
    65
 73
     4
 40
10.16
 49
6.35
 74
     0
 49
-1.27
 74
     0
 49
1.27
 74
     0
 49
-1.27
 74
     0
  0
LTYPE
  5
61
330
5
100
AcDbSymbolTableRecord
100
AcDbLinetypeTableRecord
  2
CENTERX2
 70
     0
  3
Center (2x) ________  __  ________  __  _____
 72
    65
 73
     4
 40
20.32
 49
12.7
 74
     0
 49
-2.54
 74
     0
 49
2.54
 74
     0
 49
-2.54
 74
     0
  0
LTYPE
  5
62
330
5
100
AcDbSymbolTableRecord
100
AcDbLinetypeTableRecord
  2
DOT2
 70
     0
  3
Dot (.5x) ........................................
 72
    65
 73
     2
 40
0.635
 49
0.0
 74
     0
 49
-0.635
 74
     0
  0
ENDTAB
  0
TABLE
  2
LAYER
  5
2
330
0
100
AcDbSymbolTable
 70
    14
  0
LAYER
  5
10
330
2
100
AcDbSymbolTableRecord
100
AcDbLayerTableRecord
  2
0
 70
     0
 62
     7
  6
Continuous
370
    -3
390
F
  0
LAYER
  5
63
330
2
100
AcDbSymbolTableRecord
100
AcDbLayerTableRecord
  2
SLD-0
 70
     0
 62
     7
  6
Continuous
370
    -3
390
F
  0
LAYER
  5
64
330
2
100
AcDbSymbolTableRecord
100
AcDbLayerTableRecord
  2
5
 70
     0
 62
     7
  6
Continuous
370
    -3
390
F
  0
LAYER
  5
65
330
2
100
AcDbSymbolTableRecord
100
AcDbLayerTableRecord
  2
9
 70
     0
 62
     7
  6
Continuous
370
    -3
390
F
  0
LAYER
  5
66
330
2
100
AcDbSymbolTableRecord
100
AcDbLayerTableRecord
  2
10
 70
     0
 62
     7
  6
Continuous
370
    -3
390
F
  0
LAYER
  5
67
330
2
100
AcDbSymbolTableRecord
100
AcDbLayerTableRecord
  2
轮廓实线层
 70
     0
 62
     7
  6
Continuous
370
    50
390
F
  0
LAYER
  5
68
330
2
100
AcDbSymbolTableRecord
100
AcDbLayerTableRecord
  2
细线层
 70
     0
 62
     4
  6
Continuous
370
    25
390
F
  0
LAYER
  5
69
330
2
100
AcDbSymbolTableRecord
100
AcDbLayerTableRecord
  2
中心线层
 70
     0
 62
     1
  6
CENTERX2
370
    25
390
F
  0
LAYER
  5
6A
330
2
100
AcDbSymbolTableRecord
100
AcDbLayerTableRecord
  2
虚线层
 70
     0
 62
     6
  6
HIDDEN
370
    25
390
F
  0
LAYER
  5
6B
330
2
100
AcDbSymbolTableRecord
100
AcDbLayerTableRecord
  2
剖面线层
 70
     0
 62
     2
  6
Continuous
370
    25
390
F
  0
LAYER
  5
6C
330
2
100
AcDbSymbolTableRecord
100
AcDbLayerTableRecord
  2
文字层
 70
     0
 62
     3
  6
Continuous
370
    25
390
F
  0
LAYER
  5
6D
330
2
100
AcDbSymbolTableRecord
100
AcDbLayerTableRecord
  2
标注层
 70
     0
 62
     4
  6
Continuous
370
    25
390
F
  0
LAYER
  5
6E
330
2
100
AcDbSymbolTableRecord
100
AcDbLayerTableRecord
  2
符号标注层
 70
     0
 62
    31
  6
Continuous
370
    25
390
F
  0
LAYER
  5
6F
330
2
100
AcDbSymbolTableRecord
100
AcDbLayerTableRecord
  2
双点划线层
 70
     0
 62
     6
  6
PHANTOM
370
    25
390
F
  0
ENDTAB
  0
TABLE
  2
STYLE
  5
3
330
0
100
AcDbSymbolTable
 70
     1
  0
STYLE
  5
11
330
3
100
AcDbSymbolTableRecord
100
AcDbTextStyleTableRecord
  2
Standard
 70
     0
 40
0.0
 41
1.0
 50
0.0
 71
     0
 42
3.5
  3
txt
  4

  0
ENDTAB
  0
TABLE
  2
VIEW
  5
6
330
0
100
AcDbSymbolTable
 70
     0
  0
ENDTAB
  0
TABLE
  2
UCS
  5
7
330
0
100
AcDbSymbolTable
 70
     0
  0
ENDTAB
  0
TABLE
  2
APPID
  5
9
330
0
100
AcDbSymbolTable
 70
     1
  0
APPID
  5
12
330
9
100
AcDbSymbolTableRecord
100
AcDbRegAppTableRecord
  2
ACAD
 70
     0
  0
ENDTAB
  0
TABLE
  2
DIMSTYLE
  5
A
330
0
100
AcDbSymbolTable
 70
     1
100
AcDbDimStyleTable
  0
DIMSTYLE
105
27
330
A
100
AcDbSymbolTableRecord
100
AcDbDimStyleTableRecord
  2
ISO-25
 70
     0
 41
2.5
 42
0.625
 43
3.75
 44
1.25
 73
     0
 74
     0
 77
     1
 78
     8
140
2.5
141
2.5
143
0.0393700787
147
0.625
171
     3
172
     1
178
     0
271
     2
272
     2
274
     3
278
    44
283
     0
284
     8
340
11
  0
ENDTAB
  0
TABLE
  2
BLOCK_RECORD
  5
1
330
0
100
AcDbSymbolTable
 70
     1
  0
BLOCK_RECORD
  5
1F
330
1
100
AcDbSymbolTableRecord
100
AcDbBlockTableRecord
  2
*Model_Space
340
22
  0
BLOCK_RECORD
  5
1B
330
1
100
AcDbSymbolTableRecord
100
AcDbBlockTableRecord
  2
*Paper_Space
340
1E
  0
BLOCK_RECORD
  5
23
330
1
100
AcDbSymbolTableRecord
100
AcDbBlockTableRecord
  2
*Paper_Space0
340
26
  0
ENDTAB
  0
ENDSEC
  0
SECTION
  2
BLOCKS
  0
BLOCK
  5
20
330
1F
100
AcDbEntity
  8
0
100
AcDbBlockBegin
  2
*Model_Space
 70
     0
 10
0.0
 20
0.0
 30
0.0
  3
*Model_Space
  1

  0
ENDBLK
  5
21
330
1F
100
AcDbEntity
  8
0
100
AcDbBlockEnd
  0
BLOCK
  5
1C
330
1B
100
AcDbEntity
 67
     1
  8
0
100
AcDbBlockBegin
  2
*Paper_Space
 70
     0
 10
0.0
 20
0.0
 30
0.0
  3
*Paper_Space
  1

  0
ENDBLK
  5
1D
330
1B
100
AcDbEntity
 67
     1
  8
0
100
AcDbBlockEnd
  0
BLOCK
  5
24
330
23
100
AcDbEntity
  8
0
100
AcDbBlockBegin
  2
*Paper_Space0
 70
     0
 10
0.0
 20
0.0
 30
0.0
  3
*Paper_Space0
  1

  0
ENDBLK
  5
25
330
23
100
AcDbEntity
  8
0
100
AcDbBlockEnd
  0
ENDSEC
  0
SECTION
  2
ENTITIES
  0
SPLINE
  5
70
330
1F
100
AcDbEntity
  8
0
  6
Continuous
 62
     7
370
    25
100
AcDbSpline
210
0.0
220
0.0
230
1.0
 70
     8
 71
     3
 72
    25
 73
    21
 74
     0
 42
0.00000001
 43
0.00000001
 40
0.0
 40
0.0
 40
0.0
 40
0.0
 40
0.0365079348377799
 40
0.0730158696755598
 40
0.100396820803895
 40
0.10952380451334
 40
0.12777777193223
 40
0.14603173935112
 40
0.164285706770009
 40
0.182539674188899
 40
0.219047609026679
 40
0.243386232251866
 40
0.267724855477052
 40
0.292063478702239
 40
0.316402101927426
 40
0.365079348377799
 40
0.401587283215579
 40
0.438095218053359
 40
0.474603152891139
 40
0.511111087728918
 40
0.511111087728918
 40
0.511111087728918
 40
0.511111087728918
 10
82.92421512446957
 20
103.147030160039
 30
0.0
 10
85.45724467472182
 20
103.1530264268953
 30
0.0
 10
90.18426988883523
 20
103.1923221976883
 30
0.0
 10
96.0035765285131
 20
103.1828609814678
 30
0.0
 10
100.0629580077191
 20
102.9846887944741
 30
0.0
 10
103.0548432498951
 20
102.7365364606156
 30
0.0
 10
105.511897175462
 20
102.4663184924752
 30
0.0
 10
108.3406166932972
 20
102.0678074161073
 30
0.0
 10
110.9059527669151
 20
101.6653177399811
 30
0.0
 10
113.9042822281534
 20
101.1067934481573
 30
0.0
 10
116.5861610202578
 20
100.2338271234155
 30
0.0
 10
119.3185159655541
 20
98.22935100771643
 30
0.0
 10
121.4279307505695
 20
95.72598692414017
 30
0.0
 10
123.050174461441
 20
92.58621408693956
 30
0.0
 10
124.5058949792456
 20
87.7284396410514
 30
0.0
 10
125.0637387590344
 20
81.46100789430383
 30
0.0
 10
125.0811653295158
 20
74.07374968321841
 30
0.0
 10
124.9996165233811
 20
67.21877893234074
 30
0.0
 10
124.9774460570789
 20
60.19748232439444
 30
0.0
 10
125.0056930659191
 20
55.44930181153115
 30
0.0
 10
125.0043837289419
 20
53.10059990004677
 30
0.0
  0
SPLINE
  5
71
330
1F
100
AcDbEntity
  8
0
  6
Continuous
 62
     7
370
    25
100
AcDbSpline
210
0.0
220
0.0
230
1.0
 70
     8
 71
     3
 72
    24
 73
    20
 74
     0
 42
0.00000001
 43
0.00000001
 40
0.511111087728919
 40
0.511111087728919
 40
0.511111087728919
 40
0.511111087728919
 40
0.54603172431971
 40
0.580952360910502
 40
0.615872997501293
 40
0.6333333157966891
 40
0.650793634092085
 40
0.6740740584859459
 40
0.6973544828798071
 40
0.720634907273668
 40
0.743915331667529
 40
0.76719575606139
 40
0.7904761804552509
 40
0.825396817046042
 40
0.860317453636834
 40
0.895238090227625
 40
0.930158726818417
 40
0.965079363409209
 40
1.0
 40
1.0
 40
1.0
 40
1.0
 10
125.0043837289419
 20
53.10059990004672
 30
0.0
 10
125.0031313195417
 20
50.85401525275061
 30
0.0
 10
124.9609893162615
 20
46.42372357324511
 30
0.0
 10
124.6377245946235
 20
40.2718426311907
 30
0.0
 10
124.3194237627519
 20
35.41195486790296
 30
0.0
 10
124.1214012337061
 20
31.64822924046013
 30
0.0
 10
123.9686477905533
 20
28.6389468060271
 30
0.0
 10
123.7499942436596
 20
25.64540759475894
 30
0.0
 10
123.2094445862801
 20
23.19050932033331
 30
0.0
 10
122.2824076953749
 20
21.33531070178497
 30
0.0
 10
120.9881716224405
 20
19.54459451484707
 30
0.0
 10
119.2568027099306
 20
17.66480276936993
 30
0.0
 10
116.6089921093874
 20
15.63257002884503
 30
0.0
 10
112.7071990444537
 20
13.78047261144064
 30
0.0
 10
107.5135745939515
 20
12.40912874006217
 30
0.0
 10
101.9086174251779
 20
11.63439592502066
 30
0.0
 10
96.0216914435424
 20
11.27244089560334
 30
0.0
 10
89.80646045132214
 20
11.14184037837217
 30
0.0
 10
85.36718273392167
 20
11.11238676364357
 30
0.0
 10
83.0626477304168
 20
11.10230266182645
 30
0.0
  0
SPLINE
  5
72
330
1F
100
AcDbEntity
  8
0
  6
Continuous
 62
     7
370
    25
100
AcDbSpline
210
0.0
220
0.0
230
1.0
 70
     8
 71
     3
 72
    24
 73
    20
 74
     0
 42
0.00000001
 43
0.00000001
 40
0.511111087728919
 40
0.511111087728919
 40
0.511111087728919
 40
0.511111087728919
 40
0.54603172431971
 40
0.580952360910502
 40
0.615872997501293
 40
0.6333333157966891
 40
0.650793634092085
 40
0.6740740584859459
 40
0.6973544828798071
 40
0.720634907273668
 40
0.743915331667529
 40
0.76719575606139
 40
0.7904761804552509
 40
0.825396817046042
 40
0.860317453636834
 40
0.895238090227625
 40
0.930158726818417
 40
0.965079363409209
 40
1.0
 40
1.0
 40
1.0
 40
1.0
 10
40.99477180034265
 20
52.97525487851676
 30
0.0
 10
41.00278178552345
 20
50.72868405100889
 30
0.0
 10
41.05824616063288
 20
46.29853849108193
 30
0.0
 10
41.40002075200429
 20
40.14766145087968
 30
0.0
 10
41.73293857836553
 20
35.28874493226676
 30
0.0
 10
41.94228048353507
 20
31.52562461033626
 30
0.0
 10
42.10408416369485
 20
28.51680474811914
 30
0.0
 10
42.33174009265516
 20
25.52392561065188
 30
0.0
 10
42.87966972483247
 20
23.07064450208495
 30
0.0
 10
43.81228145328809
 20
21.21821467221582
 30
0.0
 10
45.11189713897358
 20
19.43136562545792
 30
0.0
 10
46.8489125077837
 20
17.5567482921413
 30
0.0
 10
49.50282352502252
 20
15.53242726712663
 30
0.0
 10
53.41016574076345
 20
13.69198456103615
 30
0.0
 10
58.60789252362227
 20
12.33614965394574
 30
0.0
 10
64.21515380328897
 20
11.57815072541407
 30
0.0
 10
70.1031430643826
 20
11.23376534731456
 30
0.0
 10
76.31874132616412
 20
11.1217154615841
 30
0.0
 10
80.75809273719001
 20
11.10550985430412
 30
0.0
 10
83.0626477304168
 20
11.10230266182645
 30
0.0
  0
SPLINE
  5
73
330
1F
100
AcDbEntity
  8
0
  6
Continuous
 62
     7
370
    25
100
AcDbSpline
210
0.0
220
0.0
230
1.0
 70
     8
 71
     3
 72
    25
 73
    21
 74
     0
 42
0.00000001
 43
0.00000001
 40
0.0
 40
0.0
 40
0.0
 40
0.0
 40
0.0365079348377799
 40
0.0730158696755598
 40
0.100396820803895
 40
0.10952380451334
 40
0.12777777193223
 40
0.14603173935112
 40
0.164285706770009
 40
0.182539674188899
 40
0.219047609026679
 40
0.243386232251866
 40
0.267724855477052
 40
0.292063478702239
 40
0.316402101927426
 40
0.365079348377799
 40
0.401587283215579
 40
0.438095218053359
 40
0.474603152891139
 40
0.511111087728918
 40
0.511111087728918
 40
0.511111087728918
 40
0.511111087728918
 10
82.92421512446957
 20
103.147030160039
 30
0.0
 10
80.39117890590752
 20
103.1454676951228
 30
0.0
 10
75.66404789469034
 20
103.1706536242489
 30
0.0
 10
69.84479393399187
 20
103.1438273170578
 30
0.0
 10
65.78602670380776
 20
102.9335431481292
 30
0.0
 10
62.79490153251174
 20
102.6764643272922
 30
0.0
 10
60.33867197869801
 20
102.3989165763103
 30
0.0
 10
57.51116423681252
 20
101.9919670836116
 30
0.0
 10
54.94705064970304
 20
101.5818249534272
 30
0.0
 10
51.95041448670151
 20
101.0143567726513
 30
0.0
 10
49.27117289608936
 20
100.1333918514271
 30
0.0
 10
46.54485924305953
 20
98.12077152652007
 30
0.0
 10
44.44298517601955
 20
95.61112490623158
 30
0.0
 10
42.83019660102551
 20
92.46652937139393
 30
0.0
 10
41.38909484981782
 20
87.60443419950553
 30
0.0
 10
40.85010759617693
 20
81.33536653522988
 30
0.0
 10
40.85491165145677
 20
73.9480906944411
 30
0.0
 10
40.95707930438052
 20
67.09339326889902
 30
0.0
 10
41.00036712093946
 20
60.0721920159771
 30
0.0
 10
40.98639772570984
 20
55.32394234204209
 30
0.0
 10
40.99477180034265
 20
52.97525487851681
 30
0.0
  0
ELLIPSE
  5
74
330
1F
100
AcDbEntity
  8
0
  6
Continuous
 62
     7
370
    25
100
AcDbEllipse
 10
119.6659555139
 20
58.3409536506
 30
0.0
 11
-1.07481519120671
 21
0.0
 31
0.0
210
0.0
220
0.0
230
1.0
 40
0.9960228833
 41
0.0
 42
6.283185307179586
  0
SPLINE
  5
75
330
1F
100
AcDbEntity
  8
0
  6
Continuous
 62
     7
370
    25
100
AcDbSpline
210
0.0
220
0.0
230
1.0
 70
     8
 71
     3
 72
     8
 73
     4
 74
     0
 42
0.00000001
 43
0.00000001
 40
-0.154852573525276
 40
-0.154852573525276
 40
-0.154852573525276
 40
-0.154852573525276
 40
-0.0026762291902264
 40
-0.0026762291902264
 40
-0.0026762291902264
 40
-0.0026762291902264
 10
77.77883666552816
 20
86.1131380994558
 30
0.0
 10
79.45521433315781
 20
86.14863687511662
 30
0.0
 10
81.17899718628962
 20
86.16827593899279
 30
0.0
 10
82.94975287056614
 20
86.16681899988487
 30
0.0
  0
LINE
  5
76
330
1F
100
AcDbEntity
  8
0
  6
Continuous
 62
     7
370
    25
100
AcDbLine
 10
77.2227633459
 20
101.6204984934
 30
0.0
 11
77.7788366655
 21
86.1131380995
 31
0.0
  0
SPLINE
  5
77
330
1F
100
AcDbEntity
  8
0
  6
Continuous
 62
     7
370
    25
100
AcDbSpline
210
0.0
220
0.0
230
1.0
 70
     8
 71
     3
 72
    38
 73
    34
 74
     0
 42
0.00000001
 43
0.00000001
 40
-0.457036427694614
 40
-0.457036427694614
 40
-0.457036427694614
 40
-0.457036427694614
 40
-0.441021346200912
 40
-0.441021346200912
 40
-0.441021346200912
 40
-0.381861427239566
 40
-0.381861427239566
 40
-0.381861427239566
 40
-0.320770194032546
 40
-0.320770194032546
 40
-0.320770194032546
 40
-0.274054885122032
 40
-0.274054885122032
 40
-0.274054885122032
 40
-0.228500249809453
 40
-0.228500249809453
 40
-0.228500249809453
 40
-0.198440294611082
 40
-0.198440294611082
 40
-0.198440294611082
 40
-0.166497822456685
 40
-0.166497822456685
 40
-0.166497822456685
 40
-0.133625003531169
 40
-0.133625003531169
 40
-0.133625003531169
 40
-0.0982825887853567
 40
-0.0982825887853567
 40
-0.0982825887853567
 40
-0.050848780581205
 40
-0.050848780581205
 40
-0.050848780581205
 40
-0.0287938074942361
 40
-0.0287938074942361
 40
-0.0287938074942361
 40
-0.0287938074942361
 10
42.52056104897809
 20
63.45376203889889
 30
0.0
 10
42.51508838700266
 20
64.4823928206318
 30
0.0
 10
42.50763943542502
 20
65.50685064011464
 30
0.0
 10
42.49755630357284
 20
66.52499228553306
 30
0.0
 10
42.46030908360176
 20
70.28602074222944
 30
0.0
 10
42.38262650910359
 20
73.97363375175507
 30
0.0
 10
42.41146786021189
 20
77.51641458487082
 30
0.0
 10
42.44125075608962
 20
81.17485181529783
 30
0.0
 10
42.59948783837147
 20
84.6848298739528
 30
0.0
 10
43.20221441968943
 20
87.77627160052634
 30
0.0
 10
43.66310802023978
 20
90.14023853415087
 30
0.0
 10
44.39243572392704
 20
92.24851709974521
 30
0.0
 10
45.39567467638694
 20
93.98039883524744
 30
0.0
 10
46.37398747526468
 20
95.66925079203195
 30
0.0
 10
47.60896313703039
 20
96.99543258922097
 30
0.0
 10
48.87250598508843
 20
97.88538581786452
 30
0.0
 10
49.70627495597864
 20
98.47263569920185
 30
0.0
 10
50.53995812701629
 20
98.87531871706021
 30
0.0
 10
51.48210988524549
 20
99.19248588731975
 30
0.0
 10
52.48326428164604
 20
99.52951578099214
 30
0.0
 10
53.63221072653314
 20
99.77487163990864
 30
0.0
 10
54.98200859168799
 20
100.0148468994398
 30
0.0
 10
56.37112026071622
 20
100.2618116057104
 30
0.0
 10
57.96872303252268
 20
100.5104337223661
 30
0.0
 10
59.65100873788617
 20
100.7411576415536
 30
0.0
 10
61.45967745153148
 20
100.9892148727323
 30
0.0
 10
63.34283029278158
 20
101.1959308537467
 30
0.0
 10
65.25274197498985
 20
101.3361881267696
 30
0.0
 10
67.81607515616325
 20
101.5244304026762
 30
0.0
 10
70.43028440565423
 20
101.5971793359791
 30
0.0
 10
73.21112219227597
 20
101.6155050979891
 30
0.0
 10
74.5041093013692
 20
101.6240259020995
 30
0.0
 10
75.8381694309671
 20
101.6235696208447
 30
0.0
 10
77.22276334587852
 20
101.6204984934429
 30
0.0
  0
LINE
  5
78
330
1F
100
AcDbEntity
  8
0
  6
Continuous
 62
     7
370
    25
100
AcDbLine
 10
50.4593618644
 20
63.4836707123
 30
0.0
 11
42.520561049
 21
63.4537620389
 31
0.0
  0
SPLINE
  5
79
330
1F
100
AcDbEntity
  8
0
  6
Continuous
 62
     7
370
    25
100
AcDbSpline
210
0.0
220
0.0
230
1.0
 70
     8
 71
     3
 72
     8
 73
     4
 74
     0
 42
0.00000001
 43
0.00000001
 40
-0.68576305367353
 40
-0.68576305367353
 40
-0.68576305367353
 40
-0.68576305367353
 40
-0.5079494693545671
 40
-0.5079494693545671
 40
-0.5079494693545671
 40
-0.5079494693545671
 10
50.56261025271193
 20
53.00852020845701
 30
0.0
 10
50.49189367577332
 20
56.4936389974681
 30
0.0
 10
50.47582900778595
 20
60.04822864030204
 30
0.0
 10
50.45936186436843
 20
63.48367071226269
 30
0.0
  0
LINE
  5
7A
330
1F
100
AcDbEntity
  8
0
  6
Continuous
 62
     7
370
    25
100
AcDbLine
 10
42.5392186315
 20
52.9806245901
 30
0.0
 11
50.5626102527
 21
53.0085202085
 31
0.0
  0
SPLINE
  5
7B
330
1F
100
AcDbEntity
  8
0
  6
Continuous
 62
     7
370
    25
100
AcDbSpline
210
0.0
220
0.0
230
1.0
 70
     8
 71
     3
 72
    38
 73
    34
 74
     0
 42
0.00000001
 43
0.00000001
 40
-0.974825307391323
 40
-0.974825307391323
 40
-0.974825307391323
 40
-0.974825307391323
 40
-0.9229638763378489
 40
-0.9229638763378489
 40
-0.9229638763378489
 40
-0.864854874596892
 40
-0.864854874596892
 40
-0.864854874596892
 40
-0.809832203084359
 40
-0.809832203084359
 40
-0.809832203084359
 40
-0.770818699210134
 40
-0.770818699210134
 40
-0.770818699210134
 40
-0.727876152271445
 40
-0.727876152271445
 40
-0.727876152271445
 40
-0.701576238869367
 40
-0.701576238869367
 40
-0.701576238869367
 40
-0.6762342299504389
 40
-0.6762342299504389
 40
-0.6762342299504389
 40
-0.633807525130213
 40
-0.633807525130213
 40
-0.633807525130213
 40
-0.598312170197275
 40
-0.598312170197275
 40
-0.598312170197275
 40
-0.540928194511171
 40
-0.540928194511171
 40
-0.540928194511171
 40
-0.511117743729829
 40
-0.511117743729829
 40
-0.511117743729829
 40
-0.511117743729829
 10
78.21773142093348
 20
12.65708246488911
 30
0.0
 10
74.9781260309334
 20
12.67733306471768
 30
0.0
 10
71.91595462886261
 20
12.72386140239511
 30
0.0
 10
68.98990499542538
 20
12.86075207697002
 30
0.0
 10
65.71136408767039
 20
13.01413350678435
 30
0.0
 10
62.58573008253374
 20
13.29031646978286
 30
0.0
 10
59.65520630230557
 20
13.81703114874826
 30
0.0
 10
56.8803307668769
 20
14.31577055044611
 30
0.0
 10
54.29248422987628
 20
15.0487850916531
 30
0.0
 10
52.13828907849449
 20
16.04050666059015
 30
0.0
 10
50.61086958805544
 20
16.74368104686225
 30
0.0
 10
49.31636281054022
 20
17.56727892927267
 30
0.0
 10
48.2623885858313
 20
18.46758963851714
 30
0.0
 10
47.10226880364903
 20
19.4585704798119
 30
0.0
 10
46.19527518513215
 20
20.53708312575371
 30
0.0
 10
45.51404255877998
 20
21.5316846746211
 30
0.0
 10
45.09682559432488
 20
22.1408226151846
 30
0.0
 10
44.77547627894878
 20
22.70736821240247
 30
0.0
 10
44.52158689601784
 20
23.35163496856649
 30
0.0
 10
44.27694475943389
 20
23.97243601955348
 30
0.0
 10
44.08840927699021
 20
24.69593047220819
 30
0.0
 10
43.94673373529973
 20
25.62838115726842
 30
0.0
 10
43.7095454994824
 20
27.18945747529155
 30
0.0
 10
43.60923742860546
 20
29.31730556275124
 30
0.0
 10
43.48633810105899
 20
31.5545874437089
 30
0.0
 10
43.38351712378144
 20
33.42635935684986
 30
0.0
 10
43.2672764875144
 20
35.38057538446213
 30
0.0
 10
43.13932627240077
 20
37.36204134788183
 30
0.0
 10
42.93247407872691
 20
40.56540119264302
 30
0.0
 10
42.71291919555023
 20
43.85418744693135
 30
0.0
 10
42.61622909974395
 20
47.36358970213233
 30
0.0
 10
42.56599947888525
 20
49.18669209177624
 30
0.0
 10
42.54656906705068
 20
51.07040599781702
 30
0.0
 10
42.53921863154192
 20
52.98062459012411
 30
0.0
  0
LINE
  5
7C
330
1F
100
AcDbEntity
  8
0
  6
Continuous
 62
     7
370
    25
100
AcDbLine
 10
79.8513766139
 20
19.6594698813
 30
0.0
 11
78.2177314209
 21
12.6570824649
 31
0.0
  0
SPLINE
  5
7D
330
1F
100
AcDbEntity
  8
0
  6
Continuous
 62
     7
370
    25
100
AcDbSpline
210
0.0
220
0.0
230
1.0
 70
     8
 71
     3
 72
     8
 73
     4
 74
     0
 42
0.00000001
 43
0.00000001
 40
-0.998590670796856
 40
-0.998590670796856
 40
-0.998590670796856
 40
-0.998590670796856
 40
-0.857623389976621
 40
-0.857623389976621
 40
-0.857623389976621
 40
-0.857623389976621
 10
83.04986830783699
 20
19.59942269286644
 30
0.0
 10
81.98258873673477
 20
19.59591150536193
 30
0.0
 10
80.92457413172475
 20
19.61037523275152
 30
0.0
 10
79.8513766139061
 20
19.65946988125627
 30
0.0
  0
SPLINE
  5
7E
330
1F
100
AcDbEntity
  8
0
  6
Continuous
 62
     7
370
    25
100
AcDbSpline
210
0.0
220
0.0
230
1.0
 70
     8
 71
     3
 72
     8
 73
     4
 74
     0
 42
0.00000001
 43
0.00000001
 40
-0.998590670796856
 40
-0.998590670796856
 40
-0.998590670796856
 40
-0.998590670796856
 40
-0.857623389976621
 40
-0.857623389976621
 40
-0.857623389976621
 40
-0.857623389976621
 10
83.04986830783699
 20
19.59942269286641
 30
0.0
 10
84.11715365048238
 20
19.59909634432176
 30
0.0
 10
85.17512000123396
 20
19.61671718281289
 30
0.0
 10
86.24816502908209
 20
19.66901409367692
 30
0.0
  0
LINE
  5
7F
330
1F
100
AcDbEntity
  8
0
  6
Continuous
 62
     7
370
    25
100
AcDbLine
 10
86.2481650291
 20
19.6690140937
 30
0.0
 11
87.9028656191
 21
12.6715329941
 31
0.0
  0
SPLINE
  5
80
330
1F
100
AcDbEntity
  8
0
  6
Continuous
 62
     7
370
    25
100
AcDbSpline
210
0.0
220
0.0
230
1.0
 70
     8
 71
     3
 72
    38
 73
    34
 74
     0
 42
0.00000001
 43
0.00000001
 40
-0.974825307391323
 40
-0.974825307391323
 40
-0.974825307391323
 40
-0.974825307391323
 40
-0.9229638763378489
 40
-0.9229638763378489
 40
-0.9229638763378489
 40
-0.864854874596892
 40
-0.864854874596892
 40
-0.864854874596892
 40
-0.809832203084359
 40
-0.809832203084359
 40
-0.809832203084359
 40
-0.770818699210134
 40
-0.770818699210134
 40
-0.770818699210134
 40
-0.727876152271445
 40
-0.727876152271445
 40
-0.727876152271445
 40
-0.701576238869367
 40
-0.701576238869367
 40
-0.701576238869367
 40
-0.6762342299504389
 40
-0.6762342299504389
 40
-0.6762342299504389
 40
-0.633807525130213
 40
-0.633807525130213
 40
-0.633807525130213
 40
-0.598312170197275
 40
-0.598312170197275
 40
-0.598312170197275
 40
-0.540928194511171
 40
-0.540928194511171
 40
-0.540928194511171
 40
-0.511117743729829
 40
-0.511117743729829
 40
-0.511117743729829
 40
-0.511117743729829
 10
87.90286561908017
 20
12.67153299414085
 30
0.0
 10
91.1423955574448
 20
12.70145067061193
 30
0.0
 10
94.20441326245557
 20
12.7571164938443
 30
0.0
 10
97.13003800567004
 20
12.90273805330092
 30
0.0
 10
100.4081028381184
 20
13.06590214808436
 30
0.0
 10
103.5328920751107
 20
13.35141094199527
 30
0.0
 10
106.4618183796291
 20
13.88686810744751
 30
0.0
 10
109.235181285713
 20
14.3938856579301
 30
0.0
 10
111.8208113482667
 20
15.13461919129607
 30
0.0
 10
113.9720137973843
 20
16.13276455082718
 30
0.0
 10
115.4973113297618
 20
16.84049368830177
 30
0.0
 10
116.7893349684205
 20
17.66795075662272
 30
0.0
 10
117.840596386543
 20
18.57140254461901
 30
0.0
 10
118.9977301558682
 20
19.56584080215026
 30
0.0
 10
119.9014756075311
 20
20.64705512856083
 30
0.0
 10
120.5797134793866
 20
21.64368505078876
 30
0.0
 10
120.9950963238479
 20
22.25406525683331
 30
0.0
 10
121.3147400644934
 20
22.82156723614325
 30
0.0
 10
121.5666903952277
 20
23.46658872130009
 30
0.0
 10
121.8094641044401
 20
24.08811701228122
 30
0.0
 10
121.9958225162011
 20
24.812170818588
 30
0.0
 10
122.1346926706734
 20
25.74504008677839
 30
0.0
 10
122.367184225347
 20
27.3068171820352
 30
0.0
 10
122.4610914165434
 20
29.4349550448628
 30
0.0
 10
122.5772605932437
 20
31.67259362365689
 30
0.0
 10
122.6744509401422
 20
33.54466396007534
 30
0.0
 10
122.784812899237
 20
35.49921808599021
 30
0.0
 10
122.9068024185803
 20
37.48105696746867
 30
0.0
 10
123.1040181845647
 20
40.68501969451847
 30
0.0
 10
123.3136796259248
 20
43.97444635325821
 30
0.0
 10
123.3998132326533
 20
47.48412138725679
 30
0.0
 10
123.4445588539406
 20
49.30736548299239
 30
0.0
 10
123.4583230889049
 20
51.19112891650534
 30
0.0
 10
123.4599276773747
 20
53.10136086999396
 30
0.0
  0
LINE
  5
81
330
1F
100
AcDbEntity
  8
0
  6
Continuous
 62
     7
370
    25
100
AcDbLine
 10
123.4599276774
 20
53.10136087
 30
0.0
 11
115.4364881565
 21
53.1053141042
 31
0.0
  0
SPLINE
  5
82
330
1F
100
AcDbEntity
  8
0
  6
Continuous
 62
     7
370
    25
100
AcDbSpline
210
0.0
220
0.0
230
1.0
 70
     8
 71
     3
 72
     8
 73
     4
 74
     0
 42
0.00000001
 43
0.00000001
 40
-0.68576305367353
 40
-0.68576305367353
 40
-0.68576305367353
 40
-0.68576305367353
 40
-0.5079494693545671
 40
-0.5079494693545671
 40
-0.5079494693545671
 40
-0.5079494693545671
 10
115.4364881564524
 20
53.1053141042494
 30
0.0
 10
115.4967214039775
 20
56.59062827457686
 30
0.0
 10
115.5020940239878
 20
60.1452499025285
 30
0.0
 10
115.5082275058136
 20
63.58072569534311
 30
0.0
  0
LINE
  5
83
330
1F
100
AcDbEntity
  8
0
  6
Continuous
 62
     7
370
    25
100
AcDbLine
 10
115.5082275058
 20
63.5807256953
 30
0.0
 11
123.4470826557
 21
63.5745069913
 31
0.0
  0
SPLINE
  5
84
330
1F
100
AcDbEntity
  8
0
  6
Continuous
 62
     7
370
    25
100
AcDbSpline
210
0.0
220
0.0
230
1.0
 70
     8
 71
     3
 72
    38
 73
    34
 74
     0
 42
0.00000001
 43
0.00000001
 40
-0.457036427694614
 40
-0.457036427694614
 40
-0.457036427694614
 40
-0.457036427694614
 40
-0.441021346200912
 40
-0.441021346200912
 40
-0.441021346200912
 40
-0.381861427239566
 40
-0.381861427239566
 40
-0.381861427239566
 40
-0.320770194032546
 40
-0.320770194032546
 40
-0.320770194032546
 40
-0.274054885122032
 40
-0.274054885122032
 40
-0.274054885122032
 40
-0.228500249809453
 40
-0.228500249809453
 40
-0.228500249809453
 40
-0.198440294611082
 40
-0.198440294611082
 40
-0.198440294611082
 40
-0.166497822456685
 40
-0.166497822456685
 40
-0.166497822456685
 40
-0.133625003531169
 40
-0.133625003531169
 40
-0.133625003531169
 40
-0.0982825887853567
 40
-0.0982825887853567
 40
-0.0982825887853567
 40
-0.050848780581205
 40
-0.050848780581205
 40
-0.050848780581205
 40
-0.0287938074942361
 40
-0.0287938074942361
 40
-0.0287938074942361
 40
-0.0287938074942361
 10
123.4470826557338
 20
63.57450699129507
 30
0.0
 10
123.4494612382469
 20
64.60314948733529
 30
0.0
 10
123.453828653493
 20
65.62762493721448
 30
0.0
 10
123.4608492358351
 20
66.64579210192024
 30
0.0
 10
123.4867833581552
 20
70.40691482719524
 30
0.0
 10
123.5533734824507
 20
74.09474309619085
 30
0.0
 10
123.5138758050372
 20
77.63742196529552
 30
0.0
 10
123.4730887001125
 20
81.29575390302962
 30
0.0
 10
123.3042945408699
 20
84.80524402063745
 30
0.0
 10
122.692271807665
 20
87.89487330247424
 30
0.0
 10
122.2242696158439
 20
90.25745429393783
 30
0.0
 10
121.4886036196846
 20
92.36354704218783
 30
0.0
 10
120.4801597813832
 20
94.0924272827784
 30
0.0
 10
119.4967714155903
 20
95.7783523188323
 30
0.0
 10
118.2578122271932
 20
97.10084292628784
 30
0.0
 10
116.9915981280481
 20
97.9870216768485
 30
0.0
 10
116.1560664893756
 20
98.57178090841288
 30
0.0
 10
115.3211758153656
 20
98.97197436085469
 30
0.0
 10
114.3780742671061
 20
99.28632867302741
 30
0.0
 10
113.3759105996871
 20
99.62036955222786
 30
0.0
 10
112.2262312966336
 20
99.86229578818494
 30
0.0
 10
110.8757176592157
 20
100.0982420967944
 30
0.0
 10
109.4858693705582
 20
100.3410605061387
 30
0.0
 10
107.8875259294338
 20
100.5849141690702
 30
0.0
 10
106.204553771425
 20
100.8106170161484
 30
0.0
 10
104.3951470348511
 20
101.0532759633122
 30
0.0
 10
102.5113808567606
 20
101.2543715809567
 30
0.0
 10
100.6010558613018
 20
101.3889289389624
 30
0.0
 10
98.03716796360429
 20
101.5695212374232
 30
0.0
 10
95.42275162242694
 20
101.6344688945122
 30
0.0
 10
92.6418711933184
 20
101.6444963954841
 30
0.0
 10
91.34886425703996
 20
101.6491588139668
 30
0.0
 10
90.01481148708243
 20
101.6447216231329
 30
0.0
 10
88.63023302389193
 20
101.6375188021856
 30
0.0
  0
LINE
  5
85
330
1F
100
AcDbEntity
  8
0
  6
Continuous
 62
     7
370
    25
100
AcDbLine
 10
88.6302330239
 20
101.6375188022
 30
0.0
 11
88.1208073375
 21
86.1285686497
 31
0.0
  0
SPLINE
  5
86
330
1F
100
AcDbEntity
  8
0
  6
Continuous
 62
     7
370
    25
100
AcDbSpline
210
0.0
220
0.0
230
1.0
 70
     8
 71
     3
 72
     8
 73
     4
 74
     0
 42
0.00000001
 43
0.00000001
 40
-0.154852573525276
 40
-0.154852573525276
 40
-0.154852573525276
 40
-0.154852573525276
 40
-0.0026762291902264
 40
-0.0026762291902264
 40
-0.0026762291902264
 40
-0.0026762291902264
 10
88.12080733754536
 20
86.12856864968438
 30
0.0
 10
86.44433041536803
 20
86.15906485931615
 30
0.0
 10
84.72049622542787
 20
86.17355996855942
 30
0.0
 10
82.94975287056737
 20
86.16681899988487
 30
0.0
  0
ELLIPSE
  5
87
330
1F
100
AcDbEntity
  8
0
  6
Continuous
 62
     7
370
    25
100
AcDbEllipse
 10
46.3174134115
 20
58.2315152854
 30
0.0
 11
1.07481519120671
 21
0.0
 31
0.0
210
0.0
220
0.0
230
1.0
 40
0.9960228833
 41
0.0
 42
6.283185307179586
  0
SPLINE
  5
88
330
1F
100
AcDbEntity
  8
0
  6
Continuous
 62
     7
370
    25
100
AcDbSpline
210
0.0
220
0.0
230
1.0
 70
     8
 71
     3
 72
    11
 73
     7
 74
     0
 42
0.00000001
 43
0.00000001
 40
0.0
 40
0.0
 40
0.0
 40
0.0
 40
0.2503523033042123
 40
0.5000496206520755
 40
0.749821247332848
 40
1.0
 40
1.0
 40
1.0
 40
1.0
 10
40.86118123298464
 20
167.7648622339667
 30
0.0
 10
40.86132231730637
 20
166.1385181941025
 30
0.0
 10
40.861604116837
 20
162.8900850482902
 30
0.0
 10
40.86215514005359
 20
157.9987594245183
 30
0.0
 10
40.86145863385714
 20
153.1131226161437
 30
0.0
 10
40.86127375012778
 20
149.8620152105229
 30
0.0
 10
40.86118123298465
 20
148.2351377660333
 30
0.0
  0
SPLINE
  5
89
330
1F
100
AcDbEntity
  8
0
  6
Continuous
 62
     7
370
    25
100
AcDbSpline
210
0.0
220
0.0
230
1.0
 70
     8
 71
     3
 72
    12
 73
     8
 74
     0
 42
0.00000001
 43
0.00000001
 40
0.0
 40
0.0
 40
0.0
 40
0.0
 40
0.2008371998617262
 40
0.4005753525686416
 40
0.5997796203262074
 40
0.7995807884812597
 40
1.0
 40
1.0
 40
1.0
 40
1.0
 10
125.0691867510315
 20
148.2351377660333
 30
0.0
 10
125.068953536543
 20
149.5355017699759
 30
0.0
 10
125.0684883837922
 20
152.1291137587185
 30
0.0
 10
125.0670109357516
 20
156.0413948333793
 30
0.0
 10
125.0673912090314
 20
159.9597476199658
 30
0.0
 10
125.0686658679436
 20
163.8652241918398
 30
0.0
 10
125.0690129446769
 20
166.4636453427195
 30
0.0
 10
125.0691867510315
 20
167.7648622339667
 30
0.0
  0
SPLINE
  5
8A
330
1F
100
AcDbEntity
  8
0
  6
Continuous
 62
     7
370
    25
100
AcDbSpline
210
0.0
220
0.0
230
1.0
 70
    24
 71
     3
 72
    26
 73
    22
 74
     0
 42
0.00000001
 43
0.00000001
 40
0.0
 40
0.0
 40
0.0
 40
0.0
 40
0.0977439543392814
 40
0.1954815127143188
 40
0.2935436041929019
 40
0.3915881961664476
 40
0.4597274300554203
 40
0.493955009342572
 40
0.5281349492142312
 40
0.5630561952724882
 40
0.5991652972176046
 40
0.6340922419264521
 40
0.6699146120729891
 40
0.6945244720795931
 40
0.7191415580523239
 40
0.7444314832560233
 40
0.7697275615062652
 40
0.8222567587678266
 40
0.8749472893749627
 40
0.9276210634462317
 40
1.0
 40
1.0
 40
1.0
 40
1.0
 10
82.92421512446957
 20
148.2351377660333
 30
0.0
 10
80.95421502157043
 20
148.2351377660333
 30
0.0
 10
77.01434372451446
 20
148.2351377660333
 30
0.0
 10
71.0976606077187
 20
148.2351377660333
 30
0.0
 10
65.17699092835572
 20
148.2351377660333
 30
0.0
 10
59.87712935405212
 20
148.2351377660333
 30
0.0
 10
55.88556635808838
 20
148.2351377660333
 30
0.0
 10
53.17573046519895
 20
148.2351377660333
 30
0.0
 10
51.15178452747831
 20
148.2351377660333
 30
0.0
 10
49.17455347936181
 20
148.2351377660333
 30
0.0
 10
47.38128064231317
 20
148.2351377660333
 30
0.0
 10
45.81731130185478
 20
148.2351377660333
 30
0.0
 10
44.64181649616136
 20
148.2351377660333
 30
0.0
 10
43.76714413013065
 20
148.2351377660333
 30
0.0
 10
43.11705072638262
 20
148.2351377660333
 30
0.0
 10
42.57252702573033
 20
148.2351377660333
 30
0.0
 10
41.96605291043326
 20
148.2351377660333
 30
0.0
 10
41.43249894828513
 20
148.2351377660333
 30
0.0
 10
41.07771730287187
 20
148.2351377660333
 30
0.0
 10
40.88694846072529
 20
148.2351377660333
 30
0.0
 10
40.87351364363335
 20
148.2351377660333
 30
0.0
 10
40.86573774042382
 20
148.2351377660333
 30
0.0
  0
SPLINE
  5
8B
330
1F
100
AcDbEntity
  8
0
  6
Continuous
 62
     7
370
    25
100
AcDbSpline
210
0.0
220
0.0
230
1.0
 70
    24
 71
     3
 72
    26
 73
    22
 74
     0
 42
0.00000001
 43
0.00000001
 40
0.0
 40
0.0
 40
0.0
 40
0.0
 40
0.0977448230872763
 40
0.1954832501534612
 40
0.2935462132076412
 40
0.3915916766012482
 40
0.4597315161115426
 40
0.493959399613324
 40
0.5281396432761939
 40
0.5630611997143887
 40
0.5991706225971024
 40
0.6340978777365371
 40
0.6699205662722004
 40
0.6945306450111707
 40
0.719147949780492
 40
0.7444380997609749
 40
0.7697344028426886
 40
0.8222640669836029
 40
0.8749550659040223
 40
0.9276293081396426
 40
1.0
 40
1.0
 40
1.0
 40
1.0
 10
82.92421512446957
 20
167.7648622339667
 30
0.0
 10
80.95421502157043
 20
167.7648622339667
 30
0.0
 10
77.01434372451446
 20
167.7648622339667
 30
0.0
 10
71.0976606077187
 20
167.7648622339667
 30
0.0
 10
65.17699092835574
 20
167.7648622339667
 30
0.0
 10
59.87712935405209
 20
167.7648622339667
 30
0.0
 10
55.88556635808843
 20
167.7648622339667
 30
0.0
 10
53.17573046519885
 20
167.7648622339667
 30
0.0
 10
51.1517845274787
 20
167.7648622339667
 30
0.0
 10
49.17455347936026
 20
167.7648622339667
 30
0.0
 10
47.38128064231914
 20
167.7648622339667
 30
0.0
 10
45.81731130183329
 20
167.7648622339667
 30
0.0
 10
44.64181649623315
 20
167.7648622339667
 30
0.0
 10
43.76714412995437
 20
167.7648622339667
 30
0.0
 10
43.11705072705697
 20
167.7648622339667
 30
0.0
 10
42.57252702313482
 20
167.7648622339667
 30
0.0
 10
41.96605292452104
 20
167.7648622339667
 30
0.0
 10
41.43249882980773
 20
167.7648622339667
 30
0.0
 10
41.07771773637387
 20
167.7648622339667
 30
0.0
 10
40.88695613033671
 20
167.7648622339667
 30
0.0
 10
40.87352116203449
 20
167.7648622339667
 30
0.0
 10
40.86574557353757
 20
167.7648622339667
 30
0.0
  0
SPLINE
  5
8C
330
1F
100
AcDbEntity
  8
0
  6
Continuous
 62
     7
370
    25
100
AcDbSpline
210
0.0
220
0.0
230
1.0
 70
    24
 71
     3
 72
    27
 73
    23
 74
     0
 42
0.00000001
 43
0.00000001
 40
0.0
 40
0.0
 40
0.0
 40
0.0
 40
0.0968179751705228
 40
0.1936296129873361
 40
0.2907627554575553
 40
0.3878785727091403
 40
0.4553603091330399
 40
0.4892575564765328
 40
0.5231076496530905
 40
0.5576969550984431
 40
0.5934626956226398
 40
0.6280576657854788
 40
0.6635395377128391
 40
0.6879152016544164
 40
0.7122980225021981
 40
0.7373472873461238
 40
0.7624026464223526
 40
0.8144244621055119
 40
0.866606028525317
 40
0.9187709901545708
 40
0.9988060921723518
 40
0.9999999999999999
 40
0.9999999999999999
 40
0.9999999999999999
 40
0.9999999999999999
 10
82.92421512446957
 20
167.7648622339667
 30
0.0
 10
84.89425671425458
 20
167.7648622339667
 30
0.0
 10
88.83421094204316
 20
167.7648622339667
 30
0.0
 10
94.75106339545681
 20
167.7648622339667
 30
0.0
 10
100.6726372883784
 20
167.7648622339667
 30
0.0
 10
105.9740989858157
 20
167.7648622339667
 30
0.0
 10
109.967277285616
 20
167.7648622339667
 30
0.0
 10
112.6781518184871
 20
167.7648622339667
 30
0.0
 10
114.7034047601344
 20
167.7648622339667
 30
0.0
 10
116.6829421229953
 20
167.7648622339667
 30
0.0
 10
118.4798031349117
 20
167.7648622339667
 30
0.0
 10
120.0482928855053
 20
167.7648622339667
 30
0.0
 10
121.2284199482369
 20
167.7648622339667
 30
0.0
 10
122.1075629785696
 20
167.7648622339667
 30
0.0
 10
122.7617635324299
 20
167.7648622339667
 30
0.0
 10
123.3105602297925
 20
167.7648622339667
 30
0.0
 10
123.923082108476
 20
167.7648622339667
 30
0.0
 10
124.4638349765253
 20
167.7648622339667
 30
0.0
 10
124.8305462243653
 20
167.7648622339667
 30
0.0
 10
125.0313813952511
 20
167.7648622339667
 30
0.0
 10
125.0826496489317
 20
167.7648622339667
 30
0.0
 10
125.0722162857955
 20
167.7648622339667
 30
0.0
 10
125.0720629357308
 20
167.7648622339667
 30
0.0
  0
SPLINE
  5
8D
330
1F
100
AcDbEntity
  8
0
  6
Continuous
 62
     7
370
    25
100
AcDbSpline
210
0.0
220
0.0
230
1.0
 70
    24
 71
     3
 72
    27
 73
    23
 74
     0
 42
0.00000001
 43
0.00000001
 40
0.0
 40
0.0
 40
0.0
 40
0.0
 40
0.0968195270561479
 40
0.1936327166570056
 40
0.290767416064635
 40
0.3878847899759259
 40
0.4553676080578186
 40
0.4892653987368935
 40
0.5231160344932038
 40
0.5577058943670683
 40
0.5934722081767368
 40
0.6280677328588868
 40
0.6635501735216175
 40
0.6879262281782709
 40
0.7123094398558459
 40
0.7373591062119295
 40
0.7624148668979999
 40
0.8144375164336344
 40
0.8666199192665431
 40
0.9187857170427444
 40
0.9988221019351623
 40
1.0
 40
1.0
 40
1.0
 40
1.0
 10
82.92421512446957
 20
148.2351377660333
 30
0.0
 10
84.89425671425458
 20
148.2351377660333
 30
0.0
 10
88.83421094204316
 20
148.2351377660333
 30
0.0
 10
94.75106339545682
 20
148.2351377660333
 30
0.0
 10
100.6726372883784
 20
148.2351377660333
 30
0.0
 10
105.9740989858157
 20
148.2351377660333
 30
0.0
 10
109.9672772856161
 20
148.2351377660333
 30
0.0
 10
112.6781518184871
 20
148.2351377660333
 30
0.0
 10
114.7034047601347
 20
148.2351377660333
 30
0.0
 10
116.682942122994
 20
148.2351377660333
 30
0.0
 10
118.4798031349164
 20
148.2351377660333
 30
0.0
 10
120.0482928854881
 20
148.2351377660333
 30
0.0
 10
121.228419948294
 20
148.2351377660333
 30
0.0
 10
122.107562978429
 20
148.2351377660333
 30
0.0
 10
122.7617635329673
 20
148.2351377660333
 30
0.0
 10
123.3105602277241
 20
148.2351377660333
 30
0.0
 10
123.9230821197019
 20
148.2351377660333
 30
0.0
 10
124.4638348821312
 20
148.2351377660333
 30
0.0
 10
124.8305465697488
 20
148.2351377660333
 30
0.0
 10
125.0313798184571
 20
148.2351377660333
 30
0.0
 10
125.0826488558293
 20
148.2351377660332
 30
0.0
 10
125.0722202435053
 20
148.2351377660333
 30
0.0
 10
125.0720689912646
 20
148.2351377660333
 30
0.0
  0
LINE
  5
8E
330
1F
100
AcDbEntity
  8
0
  6
HIDDEN
 62
     7
370
    18
100
AcDbLine
 10
88.6302330239
 20
167.764862234
 30
0.0
 11
88.6302330239
 21
148.235137766
 31
0.0
  0
LINE
  5
8F
330
1F
100
AcDbEntity
  8
0
  6
HIDDEN
 62
     7
370
    18
100
AcDbLine
 10
123.4470826557
 20
167.764862234
 30
0.0
 11
123.4470826557
 21
148.235137766
 31
0.0
  0
LINE
  5
90
330
1F
100
AcDbEntity
  8
0
  6
HIDDEN
 62
     7
370
    18
100
AcDbLine
 10
42.520561049
 20
167.764862234
 30
0.0
 11
42.520561049
 21
148.235137766
 31
0.0
  0
LINE
  5
91
330
1F
100
AcDbEntity
  8
0
  6
HIDDEN
 62
     7
370
    18
100
AcDbLine
 10
77.2227633459
 20
167.764862234
 30
0.0
 11
77.2227633459
 21
148.235137766
 31
0.0
  0
LINE
  5
92
330
1F
100
AcDbEntity
  8
0
  6
HIDDEN
 62
     7
370
    18
100
AcDbLine
 10
88.1208073375
 20
167.764862234
 30
0.0
 11
88.1208073375
 21
148.235137766
 31
0.0
  0
LINE
  5
93
330
1F
100
AcDbEntity
  8
0
  6
HIDDEN
 62
     7
370
    18
100
AcDbLine
 10
77.7788366655
 20
167.764862234
 30
0.0
 11
77.7788366655
 21
148.235137766
 31
0.0
  0
LINE
  5
94
330
1F
100
AcDbEntity
  8
0
  6
HIDDEN
 62
     7
370
    18
100
AcDbLine
 10
115.5082275058
 20
167.764862234
 30
0.0
 11
115.5082275058
 21
148.235137766
 31
0.0
  0
LINE
  5
95
330
1F
100
AcDbEntity
  8
0
  6
HIDDEN
 62
     7
370
    18
100
AcDbLine
 10
115.4364881565
 20
167.764862234
 30
0.0
 11
115.4364881565
 21
148.235137766
 31
0.0
  0
LINE
  5
96
330
1F
100
AcDbEntity
  8
0
  6
HIDDEN
 62
     7
370
    18
100
AcDbLine
 10
50.4593618644
 20
167.764862234
 30
0.0
 11
50.4593618644
 21
148.235137766
 31
0.0
  0
LINE
  5
97
330
1F
100
AcDbEntity
  8
0
  6
HIDDEN
 62
     7
370
    18
100
AcDbLine
 10
50.5626102527
 20
167.764862234
 30
0.0
 11
50.5626102527
 21
148.235137766
 31
0.0
  0
LINE
  5
98
330
1F
100
AcDbEntity
  8
0
  6
HIDDEN
 62
     7
370
    18
100
AcDbLine
 10
87.9028656191
 20
167.764862234
 30
0.0
 11
87.9028656191
 21
148.235137766
 31
0.0
  0
LINE
  5
99
330
1F
100
AcDbEntity
  8
0
  6
HIDDEN
 62
     7
370
    18
100
AcDbLine
 10
123.4599276774
 20
167.764862234
 30
0.0
 11
123.4599276774
 21
148.235137766
 31
0.0
  0
LINE
  5
9A
330
1F
100
AcDbEntity
  8
0
  6
HIDDEN
 62
     7
370
    18
100
AcDbLine
 10
78.2177314209
 20
167.764862234
 30
0.0
 11
78.2177314209
 21
148.235137766
 31
0.0
  0
LINE
  5
9B
330
1F
100
AcDbEntity
  8
0
  6
HIDDEN
 62
     7
370
    18
100
AcDbLine
 10
42.5392186315
 20
167.764862234
 30
0.0
 11
42.5392186315
 21
148.235137766
 31
0.0
  0
LINE
  5
9C
330
1F
100
AcDbEntity
  8
0
  6
HIDDEN
 62
     7
370
    18
100
AcDbLine
 10
86.2481650291
 20
167.764862234
 30
0.0
 11
86.2481650291
 21
148.235137766
 31
0.0
  0
LINE
  5
9D
330
1F
100
AcDbEntity
  8
0
  6
HIDDEN
 62
     7
370
    18
100
AcDbLine
 10
79.8513766139
 20
167.764862234
 30
0.0
 11
79.8513766139
 21
148.235137766
 31
0.0
  0
SPLINE
  5
9E
330
1F
100
AcDbEntity
  8
0
  6
HIDDEN
 62
     7
370
    18
100
AcDbSpline
210
0.0
220
0.0
230
1.0
 70
     8
 71
     3
 72
    16
 73
    12
 74
     0
 42
0.00000001
 43
0.00000001
 40
0.0
 40
0.0
 40
0.0
 40
0.0
 40
0.1295437302795367
 40
0.2565966716351705
 40
0.3392874237333949
 40
0.4205453210412098
 40
0.5012402994848272
 40
0.622969766694701
 40
0.746767232602892
 40
0.8727139875773137
 40
1.0
 40
1.0
 40
1.0
 40
1.0
 10
123.5236042504056
 20
148.2351377660333
 30
0.0
 10
123.5216886886538
 20
149.045949818739
 30
0.0
 10
123.5178943964192
 20
150.6519841177128
 30
0.0
 10
123.5090028580225
 20
152.8209928371459
 30
0.0
 10
123.5019135338635
 20
154.7302040271837
 30
0.0
 10
123.4982595341479
 20
156.366852361817
 30
0.0
 10
123.4980572256421
 20
158.2774877001532
 30
0.0
 10
123.5027341752803
 20
160.4626869611118
 30
0.0
 10
123.5110098132706
 20
162.9037698898248
 30
0.0
 10
123.5189137265167
 20
165.3367867159068
 30
0.0
 10
123.5220352395876
 20
166.9526551447362
 30
0.0
 10
123.5236042504056
 20
167.7648622339667
 30
0.0
  0
SPLINE
  5
9F
330
1F
100
AcDbEntity
  8
0
  6
HIDDEN
 62
     7
370
    18
100
AcDbSpline
210
0.0
220
0.0
230
1.0
 70
     8
 71
     3
 72
    15
 73
    11
 74
     0
 42
0.00000001
 43
0.00000001
 40
0.0
 40
0.0
 40
0.0
 40
0.0
 40
0.1287003647479922
 40
0.255378088976863
 40
0.3790921640751156
 40
0.500960235379171
 40
0.6233245175974895
 40
0.7473609035449154
 40
0.8731385574007325
 40
1.0
 40
1.0
 40
1.0
 40
1.0
 10
42.40683985196033
 20
167.7648622339667
 30
0.0
 10
42.40833542584168
 20
166.9534497150137
 30
0.0
 10
42.41130306933276
 20
165.3433767453848
 30
0.0
 10
42.41972960528932
 20
162.9126626461363
 30
0.0
 10
42.42730572898022
 20
160.4607526706713
 30
0.0
 10
42.42860345859325
 20
157.9939780101007
 30
0.0
 10
42.42412491134022
 20
155.5416702872467
 30
0.0
 10
42.41711156664167
 20
153.1002244328807
 30
0.0
 10
42.41049871798282
 20
150.6656991881045
 30
0.0
 10
42.40806295700005
 20
149.0476386628658
 30
0.0
 10
42.40683985196033
 20
148.2351377660333
 30
0.0
  0
LINE
  5
A0
330
1F
100
AcDbEntity
  8
0
  6
HIDDEN
 62
     7
370
    18
100
AcDbLine
 10
118.5911403227
 20
167.764862234
 30
0.0
 11
118.5911403227
 21
148.235137766
 31
0.0
  0
LINE
  5
A1
330
1F
100
AcDbEntity
  8
0
  6
HIDDEN
 62
     7
370
    18
100
AcDbLine
 10
120.7407707051
 20
148.235137766
 30
0.0
 11
120.7407707051
 21
167.764862234
 31
0.0
  0
LINE
  5
A2
330
1F
100
AcDbEntity
  8
0
  6
HIDDEN
 62
     7
370
    18
100
AcDbLine
 10
45.2425982203
 20
167.764862234
 30
0.0
 11
45.2425982203
 21
148.235137766
 31
0.0
  0
LINE
  5
A3
330
1F
100
AcDbEntity
  8
0
  6
HIDDEN
 62
     7
370
    18
100
AcDbLine
 10
47.3922286027
 20
148.235137766
 30
0.0
 11
47.3922286027
 21
167.764862234
 31
0.0
  0
SPLINE
  5
A4
330
1F
100
AcDbEntity
  8
0
  6
Continuous
 62
     7
370
    25
100
AcDbSpline
210
0.0
220
0.0
230
1.0
 70
     8
 71
     3
 72
    20
 73
    16
 74
     0
 42
0.00000001
 43
0.00000001
 40
0.0
 40
0.0
 40
0.0
 40
0.0
 40
0.0954386081860464
 40
0.1889237027583122
 40
0.2775238206493267
 40
0.3393959068315486
 40
0.3969984649378624
 40
0.4513641684870515
 40
0.5047601119910972
 40
0.5591262401239302
 40
0.6156555917216402
 40
0.6748381408054885
 40
0.7366357306189688
 40
0.8663353258286576
 40
1.0
 40
1.0
 40
1.0
 40
1.0
 10
232.7648622339667
 20
103.1822467207764
 30
0.0
 10
232.2239515953829
 20
103.1804876975572
 30
0.0
 10
231.1532021089338
 20
103.17700565621
 30
0.0
 10
229.5534884739548
 20
103.1692314094208
 30
0.0
 10
228.0697292352855
 20
103.1628069338062
 30
0.0
 10
226.7064943524271
 20
103.1583471914156
 30
0.0
 10
225.4784631467382
 20
103.1557306928492
 30
0.0
 10
224.2317591293413
 20
103.1545794034779
 30
0.0
 10
222.9886387450397
 20
103.1546704029311
 30
0.0
 10
221.7552586909539
 20
103.155850657514
 30
0.0
 10
220.5307538807831
 20
103.1580598197888
 30
0.0
 10
219.3119413480012
 20
103.1612587027979
 30
0.0
 10
217.664571672427
 20
103.1666939458455
 30
0.0
 10
215.6415348669644
 20
103.1752535882838
 30
0.0
 10
214.0452809297656
 20
103.1798923967624
 30
0.0
 10
213.2351377660333
 20
103.1822467207764
 30
0.0
  0
LINE
  5
A5
330
1F
100
AcDbEntity
  8
0
  6
Continuous
 62
     7
370
    25
100
AcDbLine
 10
232.764862234
 20
11.1023026618
 30
0.0
 11
213.235137766
 21
11.1023026618
 31
0.0
  0
SPLINE
  5
A6
330
1F
100
AcDbEntity
  8
0
  6
Continuous
 62
     7
370
    25
100
AcDbSpline
210
0.0
220
0.0
230
1.0
 70
    24
 71
     3
 72
    24
 73
    20
 74
     0
 42
0.00000001
 43
0.00000001
 40
0.511111087728919
 40
0.511111087728919
 40
0.511111087728919
 40
0.511111087728919
 40
0.54603172431971
 40
0.580952360910502
 40
0.615872997501293
 40
0.6333333157966891
 40
0.650793634092085
 40
0.6740740584859459
 40
0.6973544828798071
 40
0.720634907273668
 40
0.743915331667529
 40
0.76719575606139
 40
0.7904761804552509
 40
0.825396817046042
 40
0.860317453636834
 40
0.895238090227625
 40
0.930158726818417
 40
0.965079363409209
 40
1.0
 40
1.0
 40
1.0
 40
1.0
 10
213.2351377660333
 20
53.10059990004672
 30
0.0
 10
213.2351377660333
 20
50.85401525275061
 30
0.0
 10
213.2351377660333
 20
46.42372357324511
 30
0.0
 10
213.2351377660333
 20
40.2718426311907
 30
0.0
 10
213.2351377660333
 20
35.41195486790296
 30
0.0
 10
213.2351377660333
 20
31.64822924046013
 30
0.0
 10
213.2351377660333
 20
28.6389468060271
 30
0.0
 10
213.2351377660333
 20
25.64540759475894
 30
0.0
 10
213.2351377660333
 20
23.19050932033331
 30
0.0
 10
213.2351377660333
 20
21.33531070178497
 30
0.0
 10
213.2351377660333
 20
19.54459451484707
 30
0.0
 10
213.2351377660333
 20
17.66480276936993
 30
0.0
 10
213.2351377660333
 20
15.63257002884503
 30
0.0
 10
213.2351377660333
 20
13.78047261144064
 30
0.0
 10
213.2351377660333
 20
12.40912874006217
 30
0.0
 10
213.2351377660333
 20
11.63439592502066
 30
0.0
 10
213.2351377660333
 20
11.27244089560334
 30
0.0
 10
213.2351377660333
 20
11.14184037837217
 30
0.0
 10
213.2351377660333
 20
11.11238676364357
 30
0.0
 10
213.2351377660333
 20
11.10230266182645
 30
0.0
  0
SPLINE
  5
A7
330
1F
100
AcDbEntity
  8
0
  6
Continuous
 62
     7
370
    25
100
AcDbSpline
210
0.0
220
0.0
230
1.0
 70
    24
 71
     3
 72
    24
 73
    20
 74
     0
 42
0.00000001
 43
0.00000001
 40
0.511111087728919
 40
0.511111087728919
 40
0.511111087728919
 40
0.511111087728919
 40
0.54603172431971
 40
0.580952360910502
 40
0.615872997501293
 40
0.6333333157966891
 40
0.650793634092085
 40
0.6740740584859459
 40
0.6973544828798071
 40
0.720634907273668
 40
0.743915331667529
 40
0.76719575606139
 40
0.7904761804552509
 40
0.825396817046042
 40
0.860317453636834
 40
0.895238090227625
 40
0.930158726818417
 40
0.965079363409209
 40
1.0
 40
1.0
 40
1.0
 40
1.0
 10
232.7648622339667
 20
53.10059990004672
 30
0.0
 10
232.7648622339667
 20
50.85401525275061
 30
0.0
 10
232.7648622339667
 20
46.42372357324511
 30
0.0
 10
232.7648622339667
 20
40.2718426311907
 30
0.0
 10
232.7648622339667
 20
35.41195486790296
 30
0.0
 10
232.7648622339667
 20
31.64822924046013
 30
0.0
 10
232.7648622339667
 20
28.6389468060271
 30
0.0
 10
232.7648622339667
 20
25.64540759475894
 30
0.0
 10
232.7648622339667
 20
23.19050932033331
 30
0.0
 10
232.7648622339667
 20
21.33531070178497
 30
0.0
 10
232.7648622339667
 20
19.54459451484707
 30
0.0
 10
232.7648622339667
 20
17.66480276936993
 30
0.0
 10
232.7648622339667
 20
15.63257002884503
 30
0.0
 10
232.7648622339667
 20
13.78047261144064
 30
0.0
 10
232.7648622339667
 20
12.40912874006217
 30
0.0
 10
232.7648622339667
 20
11.63439592502066
 30
0.0
 10
232.7648622339667
 20
11.27244089560334
 30
0.0
 10
232.7648622339667
 20
11.14184037837217
 30
0.0
 10
232.7648622339667
 20
11.11238676364357
 30
0.0
 10
232.7648622339667
 20
11.10230266182645
 30
0.0
  0
SPLINE
  5
A8
330
1F
100
AcDbEntity
  8
0
  6
Continuous
 62
     7
370
    25
100
AcDbSpline
210
0.0
220
0.0
230
1.0
 70
    24
 71
     3
 72
    27
 73
    23
 74
     0
 42
0.00000001
 43
0.00000001
 40
0.0
 40
0.0
 40
0.0
 40
0.0
 40
0.0556107664989555
 40
0.1335218613845269
 40
0.2114190596049786
 40
0.2655465781414814
 40
0.2927357700792206
 40
0.3198871393677497
 40
0.3476314353932296
 40
0.3763193572782623
 40
0.4040681970087058
 40
0.4325284261349055
 40
0.4520802970818725
 40
0.4716379086276112
 40
0.4917300790283305
 40
0.5118271376505067
 40
0.5535541580550327
 40
0.5954093155143714
 40
0.6372511541684159
 40
0.7014478049603522
 40
0.7656584684901534
 40
1.0
 40
1.0
 40
1.0
 40
1.0
 10
213.2351377660333
 20
103.1761053875625
 30
0.0
 10
213.2351377660333
 20
103.1804712099044
 30
0.0
 10
213.2351377660333
 20
103.1909535816152
 30
0.0
 10
213.2351377660333
 20
102.9782724479651
 30
0.0
 10
213.2351377660333
 20
102.4323168728162
 30
0.0
 10
213.2351377660333
 20
101.8214684998095
 30
0.0
 10
213.2351377660333
 20
101.3469629915907
 30
0.0
 10
213.2351377660333
 20
100.8490576045044
 30
0.0
 10
213.2351377660333
 20
100.0582544901153
 30
0.0
 10
213.2351377660333
 20
98.87733053093098
 30
0.0
 10
213.2351377660333
 20
97.38843586826584
 30
0.0
 10
213.2351377660333
 20
95.8619875919588
 30
0.0
 10
213.2351377660333
 20
94.38786094798348
 30
0.0
 10
213.2351377660333
 20
93.03398467905305
 30
0.0
 10
213.2351377660333
 20
91.61952626502325
 30
0.0
 10
213.2351377660333
 20
89.63228560615083
 30
0.0
 10
213.2351377660333
 20
87.05233672533767
 30
0.0
 10
213.2351377660333
 20
83.88885074883054
 30
0.0
 10
213.2351377660333
 20
80.14131434694458
 30
0.0
 10
213.2351377660333
 20
75.82169030125536
 30
0.0
 10
213.2351377660333
 20
66.61971302879932
 30
0.0
 10
213.2351377660333
 20
59.04566833941502
 30
0.0
 10
213.2351377660333
 20
53.10059990004674
 30
0.0
  0
SPLINE
  5
A9
330
1F
100
AcDbEntity
  8
0
  6
Continuous
 62
     7
370
    25
100
AcDbSpline
210
0.0
220
0.0
230
1.0
 70
    24
 71
     3
 72
    27
 73
    23
 74
     0
 42
0.00000001
 43
0.00000001
 40
0.0
 40
0.0
 40
0.0
 40
0.0
 40
0.0556108765843849
 40
0.1335219623880269
 40
0.2114191515281692
 40
0.2655466637551432
 40
0.2927358525234966
 40
0.3198872186470487
 40
0.3476315114384354
 40
0.3763194299793787
 40
0.4040682664751995
 40
0.4325284922838514
 40
0.4520803609516982
 40
0.4716379702176476
 40
0.4917301382762648
 40
0.5118271945557692
 40
0.5535542100962635
 40
0.5954093626766338
 40
0.6372511964532623
 40
0.7014478397619291
 40
0.7656584958068274
 40
1.0
 40
1.0
 40
1.0
 40
1.0
 10
232.7648622339667
 20
103.1761054127593
 30
0.0
 10
232.7648622339667
 20
103.1804712538642
 30
0.0
 10
232.7648622339667
 20
103.1909536578041
 30
0.0
 10
232.7648622339667
 20
102.9782724606574
 30
0.0
 10
232.7648622339667
 20
102.4323168704852
 30
0.0
 10
232.7648622339667
 20
101.8214685000523
 30
0.0
 10
232.7648622339667
 20
101.3469629915449
 30
0.0
 10
232.7648622339667
 20
100.8490576045169
 30
0.0
 10
232.7648622339667
 20
100.0582544901118
 30
0.0
 10
232.7648622339667
 20
98.87733053093193
 30
0.0
 10
232.7648622339667
 20
97.38843586826557
 30
0.0
 10
232.7648622339667
 20
95.86198759195885
 30
0.0
 10
232.7648622339667
 20
94.38786094798348
 30
0.0
 10
232.7648622339667
 20
93.0339846790531
 30
0.0
 10
232.7648622339667
 20
91.61952626502337
 30
0.0
 10
232.7648622339667
 20
89.63228560615106
 30
0.0
 10
232.7648622339667
 20
87.05233672533802
 30
0.0
 10
232.7648622339667
 20
83.88885074883108
 30
0.0
 10
232.7648622339667
 20
80.14131434694532
 30
0.0
 10
232.7648622339667
 20
75.82169030125635
 30
0.0
 10
232.7648622339667
 20
66.61971302880006
 30
0.0
 10
232.7648622339667
 20
59.04566833941545
 30
0.0
 10
232.7648622339667
 20
53.10059990004676
 30
0.0
  0
LINE
  5
AA
330
1F
100
AcDbEntity
  8
0
  6
HIDDEN
 62
     7
370
    18
100
AcDbLine
 10
232.764862234
 20
101.6375188022
 30
0.0
 11
213.235137766
 21
101.6375188022
 31
0.0
  0
LINE
  5
AB
330
1F
100
AcDbEntity
  8
0
  6
HIDDEN
 62
     7
370
    18
100
AcDbLine
 10
232.764862234
 20
63.5745069913
 30
0.0
 11
213.235137766
 21
63.5745069913
 31
0.0
  0
LINE
  5
AC
330
1F
100
AcDbEntity
  8
0
  6
HIDDEN
 62
     7
370
    18
100
AcDbLine
 10
232.764862234
 20
53.10136087
 30
0.0
 11
213.235137766
 21
53.10136087
 31
0.0
  0
LINE
  5
AD
330
1F
100
AcDbEntity
  8
0
  6
HIDDEN
 62
     7
370
    18
100
AcDbLine
 10
232.764862234
 20
63.5807256953
 30
0.0
 11
213.235137766
 21
63.5807256953
 31
0.0
  0
LINE
  5
AE
330
1F
100
AcDbEntity
  8
0
  6
HIDDEN
 62
     7
370
    18
100
AcDbLine
 10
232.764862234
 20
53.1053141042
 30
0.0
 11
213.235137766
 21
53.1053141042
 31
0.0
  0
LINE
  5
AF
330
1F
100
AcDbEntity
  8
0
  6
HIDDEN
 62
     7
370
    18
100
AcDbLine
 10
232.764862234
 20
86.1285686497
 30
0.0
 11
213.235137766
 21
86.1285686497
 31
0.0
  0
LINE
  5
B0
330
1F
100
AcDbEntity
  8
0
  6
HIDDEN
 62
     7
370
    18
100
AcDbLine
 10
232.764862234
 20
86.1668189999
 30
0.0
 11
213.235137766
 21
86.1668189999
 31
0.0
  0
LINE
  5
B1
330
1F
100
AcDbEntity
  8
0
  6
HIDDEN
 62
     7
370
    18
100
AcDbLine
 10
232.764862234
 20
19.6690140937
 30
0.0
 11
213.235137766
 21
19.6690140937
 31
0.0
  0
LINE
  5
B2
330
1F
100
AcDbEntity
  8
0
  6
HIDDEN
 62
     7
370
    18
100
AcDbLine
 10
232.764862234
 20
12.6715329941
 30
0.0
 11
213.235137766
 21
12.6715329941
 31
0.0
  0
LINE
  5
B3
330
1F
100
AcDbEntity
  8
0
  6
HIDDEN
 62
     7
370
    18
100
AcDbLine
 10
232.764862234
 20
19.5994226929
 30
0.0
 11
213.235137766
 21
19.5994226929
 31
0.0
  0
LINE
  5
B4
330
1F
100
AcDbEntity
  8
0
  6
HIDDEN
 62
     7
370
    18
100
AcDbLine
 10
232.764862234
 20
19.6594698813
 30
0.0
 11
213.235137766
 21
19.6594698813
 31
0.0
  0
LINE
  5
B5
330
1F
100
AcDbEntity
  8
0
  6
HIDDEN
 62
     7
370
    18
100
AcDbLine
 10
232.764862234
 20
86.1131380995
 30
0.0
 11
213.235137766
 21
86.1131380995
 31
0.0
  0
LINE
  5
B6
330
1F
100
AcDbEntity
  8
0
  6
HIDDEN
 62
     7
370
    18
100
AcDbLine
 10
232.764862234
 20
52.9806245901
 30
0.0
 11
213.235137766
 21
52.9806245901
 31
0.0
  0
LINE
  5
B7
330
1F
100
AcDbEntity
  8
0
  6
HIDDEN
 62
     7
370
    18
100
AcDbLine
 10
232.764862234
 20
12.6570824649
 30
0.0
 11
213.235137766
 21
12.6570824649
 31
0.0
  0
LINE
  5
B8
330
1F
100
AcDbEntity
  8
0
  6
HIDDEN
 62
     7
370
    18
100
AcDbLine
 10
232.764862234
 20
63.4537620389
 30
0.0
 11
213.235137766
 21
63.4537620389
 31
0.0
  0
LINE
  5
B9
330
1F
100
AcDbEntity
  8
0
  6
HIDDEN
 62
     7
370
    18
100
AcDbLine
 10
232.764862234
 20
101.6204984934
 30
0.0
 11
213.235137766
 21
101.6204984934
 31
0.0
  0
LINE
  5
BA
330
1F
100
AcDbEntity
  8
0
  6
HIDDEN
 62
     7
370
    18
100
AcDbLine
 10
232.764862234
 20
53.0085202085
 30
0.0
 11
213.235137766
 21
53.0085202085
 31
0.0
  0
LINE
  5
BB
330
1F
100
AcDbEntity
  8
0
  6
HIDDEN
 62
     7
370
    18
100
AcDbLine
 10
232.764862234
 20
63.4836707123
 30
0.0
 11
213.235137766
 21
63.4836707123
 31
0.0
  0
SPLINE
  5
BC
330
1F
100
AcDbEntity
  8
0
  6
HIDDEN
 62
     7
370
    18
100
AcDbSpline
210
0.0
220
0.0
230
1.0
 70
     8
 71
     3
 72
    15
 73
    11
 74
     0
 42
0.00000001
 43
0.00000001
 40
0.0
 40
0.0
 40
0.0
 40
0.0
 40
0.1272881900619652
 40
0.2533967651571573
 40
0.3776169088258078
 40
0.5006206188277389
 40
0.6239532834175583
 40
0.7483751940472003
 40
0.8738821942979078
 40
1.0
 40
1.0
 40
1.0
 40
1.0
 10
232.7648622339667
 20
101.6464120445308
 30
0.0
 10
231.9524350920626
 20
101.6462859225607
 30
0.0
 10
230.3351097959439
 20
101.6460348474278
 30
0.0
 10
227.9017795683875
 20
101.6445428875428
 30
0.0
 10
225.4540036500958
 20
101.6432877479704
 30
0.0
 10
222.9960336389865
 20
101.6430752075259
 30
0.0
 10
220.5476832883526
 20
101.6438152351206
 30
0.0
 10
218.1067289849937
 20
101.6450001962262
 30
0.0
 10
215.6704136587519
 20
101.64614352019
 30
0.0
 10
214.0482090012941
 20
101.6463223916836
 30
0.0
 10
213.2351377660333
 20
101.6464120445308
 30
0.0
  0
LINE
  5
BD
330
1F
100
AcDbEntity
  8
0
  6
HIDDEN
 62
     7
370
    18
100
AcDbLine
 10
232.764862234
 20
59.4114941764
 30
0.0
 11
213.235137766
 21
59.4114941764
 31
0.0
  0
LINE
  5
BE
330
1F
100
AcDbEntity
  8
0
  6
HIDDEN
 62
     7
370
    18
100
AcDbLine
 10
213.235137766
 20
57.2704131248
 30
0.0
 11
232.764862234
 21
57.2704131248
 31
0.0
  0
LINE
  5
BF
330
1F
100
AcDbEntity
  8
0
  6
HIDDEN
 62
     7
370
    18
100
AcDbLine
 10
232.764862234
 20
86.1683632599
 30
0.0
 11
213.235137766
 21
86.1683632599
 31
0.0
  0
LINE
  5
C0
330
1F
100
AcDbEntity
  8
0
  6
HIDDEN
 62
     7
370
    18
100
AcDbLine
 10
213.235137766
 20
19.6002201256
 30
0.0
 11
232.764862234
 21
19.6002201256
 31
0.0
  0
LINE
  5
C1
330
1F
100
AcDbEntity
  8
0
  6
HIDDEN
 62
     7
370
    18
100
AcDbLine
 10
213.235137766
 20
19.5992140982
 30
0.0
 11
232.764862234
 21
19.5992140982
 31
0.0
  0
LINE
  5
C2
330
1F
100
AcDbEntity
  8
0
  6
HIDDEN
 62
     7
370
    18
100
AcDbLine
 10
232.764862234
 20
86.1662136159
 30
0.0
 11
213.235137766
 21
86.1662136159
 31
0.0
  0
SPLINE
  5
C3
330
1F
100
AcDbEntity
  8
0
  6
HIDDEN
 62
     7
370
    18
100
AcDbSpline
210
0.0
220
0.0
230
1.0
 70
     8
 71
     3
 72
    13
 73
     9
 74
     0
 42
0.00000001
 43
0.00000001
 40
0.0
 40
0.0
 40
0.0
 40
0.0
 40
0.1679311269712816
 40
0.3346911066578045
 40
0.5002604419573012
 40
0.6660489520998429
 40
0.8327106059397246
 40
1.0
 40
1.0
 40
1.0
 40
1.0
 10
232.7648622339667
 20
101.6225216771535
 30
0.0
 10
231.6813570289468
 20
101.6224523320893
 30
0.0
 10
229.5219029558518
 20
101.6223141255713
 30
0.0
 10
226.2678706751743
 20
101.6216445595672
 30
0.0
 10
222.9970580929157
 20
101.621488768416
 30
0.0
 10
219.736014463122
 20
101.6218407428749
 30
0.0
 10
216.4838033389805
 20
101.6223727443902
 30
0.0
 10
214.3193824711836
 20
101.622471970726
 30
0.0
 10
213.2351377660333
 20
101.6225216771535
 30
0.0
  0
LINE
  5
C4
330
1F
100
AcDbEntity
  8
0
  6
HIDDEN
 62
     7
370
    18
100
AcDbLine
 10
232.764862234
 20
59.3020558112
 30
0.0
 11
213.235137766
 21
59.3020558112
 31
0.0
  0
LINE
  5
C5
330
1F
100
AcDbEntity
  8
0
  6
HIDDEN
 62
     7
370
    18
100
AcDbLine
 10
213.235137766
 20
57.1609747597
 30
0.0
 11
232.764862234
 21
57.1609747597
 31
0.0
  0
ENDSEC
  0
SECTION
  2
OBJECTS
  0
DICTIONARY
  5
C
330
0
100
AcDbDictionary
281
     1
  3
ACAD_GROUP
350
D
  3
ACAD_LAYOUT
350
1A
  3
ACAD_MLINESTYLE
350
17
  3
ACAD_PLOTSETTINGS
350
19
  3
ACAD_PLOTSTYLENAME
350
E
  3
ACAD_SCALELIST
350
47
  3
DWGPROPS
350
C6
  0
DICTIONARY
  5
D
102
{ACAD_REACTORS
330
C
102
}
330
C
100
AcDbDictionary
281
     1
  0
DICTIONARY
  5
1A
102
{ACAD_REACTORS
330
C
102
}
330
C
100
AcDbDictionary
281
     1
  3
Layout1
350
1E
  3
Layout2
350
26
  3
Model
350
22
  0
DICTIONARY
  5
17
102
{ACAD_REACTORS
330
C
102
}
330
C
100
AcDbDictionary
281
     1
  3
Standard
350
18
  0
DICTIONARY
  5
19
102
{ACAD_REACTORS
330
C
102
}
330
C
100
AcDbDictionary
281
     1
  0
ACDBDICTIONARYWDFLT
  5
E
102
{ACAD_REACTORS
330
C
102
}
330
C
100
AcDbDictionary
281
     1
  3
Normal
350
F
100
AcDbDictionaryWithDefault
340
F
  0
DICTIONARY
  5
47
102
{ACAD_REACTORS
330
C
102
}
330
C
100
AcDbDictionary
281
     1
  3
A0
350
48
  3
A1
350
49
  3
A2
350
4A
  3
A3
350
4B
  3
A4
350
4C
  3
A5
350
4D
  3
A6
350
4E
  3
A7
350
4F
  3
A8
350
50
  3
A9
350
51
  3
B0
350
52
  3
B1
350
53
  3
B2
350
54
  3
B3
350
55
  3
B4
350
56
  3
B5
350
57
  3
B6
350
58
  0
XRECORD
  5
C6
102
{ACAD_REACTORS
330
C
102
}
330
C
100
AcDbXrecord
280
     1
  1
DWGPROPS COOKIE
  2

  3

  4

  6

  7

  8

  9

300
=
301
=
302
=
303
=
304
=
305
=
306
=
307
=
308
=
309
=
 40
0.0
 41
2461215.140141331
 42
2461215.140141632
  1

 90
        0
  0
LAYOUT
  5
1E
102
{ACAD_REACTORS
330
1A
102
}
330
1A
100
AcDbPlotSettings
  1

  2
none_device
  4

  6

 40
0.0
 41
0.0
 42
0.0
 43
0.0
 44
0.0
 45
0.0
 46
0.0
 47
0.0
 48
0.0
 49
0.0
140
0.0
141
0.0
142
1.0
143
1.0
 70
   688
 72
     1
 73
     0
 74
     5
  7

 75
    16
147
1.0
148
0.0
149
0.0
100
AcDbLayout
  1
Layout1
 70
     1
 71
     1
 10
0.0
 20
0.0
 11
420.0
 21
297.0
 12
0.0
 22
0.0
 32
0.0
 14
1.0000000000E+20
 24
1.0000000000E+20
 34
1.0000000000E+20
 15
-1.0000000000E+20
 25
-1.0000000000E+20
 35
-1.0000000000E+20
146
0.0
 13
0.0
 23
0.0
 33
0.0
 16
1.0
 26
0.0
 36
0.0
 17
0.0
 27
1.0
 37
0.0
 76
     0
330
1B
  0
LAYOUT
  5
26
102
{ACAD_REACTORS
330
1A
102
}
330
1A
100
AcDbPlotSettings
  1

  2
none_device
  4

  6

 40
0.0
 41
0.0
 42
0.0
 43
0.0
 44
0.0
 45
0.0
 46
0.0
 47
0.0
 48
0.0
 49
0.0
140
0.0
141
0.0
142
1.0
143
1.0
 70
   688
 72
     1
 73
     0
 74
     5
  7

 75
    16
147
1.0
148
0.0
149
0.0
100
AcDbLayout
  1
Layout2
 70
     1
 71
     2
 10
0.0
 20
0.0
 11
0.0
 21
0.0
 12
0.0
 22
0.0
 32
0.0
 14
0.0
 24
0.0
 34
0.0
 15
0.0
 25
0.0
 35
0.0
146
0.0
 13
0.0
 23
0.0
 33
0.0
 16
1.0
 26
0.0
 36
0.0
 17
0.0
 27
1.0
 37
0.0
 76
     0
330
23
  0
LAYOUT
  5
22
102
{ACAD_REACTORS
330
1A
102
}
330
1A
100
AcDbPlotSettings
  1

  2
none_device
  4
Letter_(8.50_x_11.00_Inches)
  6

 40
6.35
 41
6.35
 42
6.35000508
 43
6.35000508
 44
215.9
 45
279.4
 46
0.0
 47
0.0
 48
0.0
 49
0.0
140
0.0
141
0.0
142
1.0
143
1.0
 70
  1712
 72
     1
 73
     0
 74
     0
  7

 75
     0
147
1.0
148
0.0
149
0.0
100
AcDbLayout
  1
Model
 70
     1
 71
     0
 10
0.0
 20
0.0
 11
297.0
 21
210.0
 12
0.0
 22
0.0
 32
0.0
 14
0.0
 24
0.0
 34
0.0
 15
297.0
 25
210.0
 35
0.0
146
0.0
 13
0.0
 23
0.0
 33
0.0
 16
1.0
 26
0.0
 36
0.0
 17
0.0
 27
1.0
 37
0.0
 76
     0
330
1F
331
29
  0
MLINESTYLE
  5
18
102
{ACAD_REACTORS
330
17
102
}
330
17
100
AcDbMlineStyle
  2
Standard
 70
     0
  3

 62
   256
 51
90.0
 52
90.0
 71
     2
 49
0.5
 62
   256
  6
BYLAYER
 49
-0.5
 62
   256
  6
BYLAYER
  0
ACDBPLACEHOLDER
  5
F
102
{ACAD_REACTORS
330
E
102
}
330
E
  0
SCALE
  5
48
102
{ACAD_REACTORS
330
47
102
}
330
47
100
AcDbScale
 70
     0
300
1:1
140
1.0
141
1.0
290
     1
  0
SCALE
  5
49
102
{ACAD_REACTORS
330
47
102
}
330
47
100
AcDbScale
 70
     0
300
1:2
140
1.0
141
2.0
290
     0
  0
SCALE
  5
4A
102
{ACAD_REACTORS
330
47
102
}
330
47
100
AcDbScale
 70
     0
300
1:4
140
1.0
141
4.0
290
     0
  0
SCALE
  5
4B
102
{ACAD_REACTORS
330
47
102
}
330
47
100
AcDbScale
 70
     0
300
1:5
140
1.0
141
5.0
290
     0
  0
SCALE
  5
4C
102
{ACAD_REACTORS
330
47
102
}
330
47
100
AcDbScale
 70
     0
300
1:8
140
1.0
141
8.0
290
     0
  0
SCALE
  5
4D
102
{ACAD_REACTORS
330
47
102
}
330
47
100
AcDbScale
 70
     0
300
1:10
140
1.0
141
10.0
290
     0
  0
SCALE
  5
4E
102
{ACAD_REACTORS
330
47
102
}
330
47
100
AcDbScale
 70
     0
300
1:16
140
1.0
141
16.0
290
     0
  0
SCALE
  5
4F
102
{ACAD_REACTORS
330
47
102
}
330
47
100
AcDbScale
 70
     0
300
1:20
140
1.0
141
20.0
290
     0
  0
SCALE
  5
50
102
{ACAD_REACTORS
330
47
102
}
330
47
100
AcDbScale
 70
     0
300
1:30
140
1.0
141
30.0
290
     0
  0
SCALE
  5
51
102
{ACAD_REACTORS
330
47
102
}
330
47
100
AcDbScale
 70
     0
300
1:40
140
1.0
141
40.0
290
     0
  0
SCALE
  5
52
102
{ACAD_REACTORS
330
47
102
}
330
47
100
AcDbScale
 70
     0
300
1:50
140
1.0
141
50.0
290
     0
  0
SCALE
  5
53
102
{ACAD_REACTORS
330
47
102
}
330
47
100
AcDbScale
 70
     0
300
1:100
140
1.0
141
100.0
290
     0
  0
SCALE
  5
54
102
{ACAD_REACTORS
330
47
102
}
330
47
100
AcDbScale
 70
     0
300
2:1
140
2.0
141
1.0
290
     0
  0
SCALE
  5
55
102
{ACAD_REACTORS
330
47
102
}
330
47
100
AcDbScale
 70
     0
300
4:1
140
4.0
141
1.0
290
     0
  0
SCALE
  5
56
102
{ACAD_REACTORS
330
47
102
}
330
47
100
AcDbScale
 70
     0
300
8:1
140
8.0
141
1.0
290
     0
  0
SCALE
  5
57
102
{ACAD_REACTORS
330
47
102
}
330
47
100
AcDbScale
 70
     0
300
10:1
140
10.0
141
1.0
290
     0
  0
SCALE
  5
58
102
{ACAD_REACTORS
330
47
102
}
330
47
100
AcDbScale
 70
     0
300
100:1
140
100.0
141
1.0
290
     0
  0
ENDSEC
  0
EOF
