ISO-10303-21;
HEADER;
FILE_DESCRIPTION (( 'STEP AP203' ),
    '1' );
FILE_NAME ('003483.step',
    '2026-06-29T00:10:05',
    ( '' ),
    ( '' ),
    'SwSTEP 2.0',
    'SolidWorks 2025',
    '' );
FILE_SCHEMA (( 'CONFIG_CONTROL_DESIGN' ));
ENDSEC;

DATA;
#1 = EDGE_CURVE ( 'NONE', #564, #753, #739, .T. ) ;
#2 = VECTOR ( 'NONE', #869, 1000.000000000000000 ) ;
#3 = AXIS2_PLACEMENT_3D ( 'NONE', #879, #103, #118 ) ;
#4 = AXIS2_PLACEMENT_3D ( 'NONE', #391, #1081, #742 ) ;
#5 = CARTESIAN_POINT ( 'NONE',  ( -0.1659059686301680714, 0.3699890949891527225, -0.4221222483430069894 ) ) ;
#6 = LINE ( 'NONE', #521, #430 ) ;
#7 = ADVANCED_FACE ( 'NONE', ( #1060 ), #647, .T. ) ;
#8 = DIRECTION ( 'NONE',  ( 0.000000000000000000, 0.000000000000000000, 1.000000000000000000 ) ) ;
#9 = CARTESIAN_POINT ( 'NONE',  ( -0.1115143858946722744, 0.4953284962436186323, -0.4070288391259447858 ) ) ;
#10 = ORIENTED_EDGE ( 'NONE', *, *, #487, .T. ) ;
#11 = DIRECTION ( 'NONE',  ( 0.000000000000000000, 0.000000000000000000, 1.000000000000000000 ) ) ;
#12 = CARTESIAN_POINT ( 'NONE',  ( -0.1926852793130663655, 0.7944686409001840977, -0.4221222483430069894 ) ) ;
#13 = ADVANCED_FACE ( 'NONE', ( #979 ), #367, .T. ) ;
#14 = CARTESIAN_POINT ( 'NONE',  ( 0.2297946054952187400, 0.7417029613502752472, 0.4221286244555227940 ) ) ;
#15 = ORIENTED_EDGE ( 'NONE', *, *, #214, .T. ) ;
#16 = VERTEX_POINT ( 'NONE', #887 ) ;
#17 = CIRCLE ( 'NONE', #653, 0.1055313590998161466 ) ;
#18 = DIRECTION ( 'NONE',  ( 0.000000000000000000, 0.000000000000000000, -1.000000000000000000 ) ) ;
#19 = DIRECTION ( 'NONE',  ( 1.000000000000000000, 0.000000000000000000, 0.000000000000000000 ) ) ;
#20 = DIRECTION ( 'NONE',  ( 0.000000000000000000, 0.000000000000000000, -1.000000000000000000 ) ) ;
#21 = ORIENTED_EDGE ( 'NONE', *, *, #398, .T. ) ;
#22 = APPROVAL ( #32, '未' ) ;
#23 = CC_DESIGN_APPROVAL ( #22, ( #849 ) ) ;
#24 = ORIENTED_EDGE ( 'NONE', *, *, #186, .T. ) ;
#25 = CARTESIAN_POINT ( 'NONE',  ( -0.1053848359767678711, 0.5233736152023803490, 0.4221286244555227940 ) ) ;
#26 = DIRECTION ( 'NONE',  ( 0.000000000000000000, 0.000000000000000000, 1.000000000000000000 ) ) ;
#27 = CARTESIAN_POINT ( 'NONE',  ( -0.2648345752657399466, 0.3664557242131732950, -0.2638252096932826030 ) ) ;
#28 = DIRECTION ( 'NONE',  ( 1.000000000000000000, 0.000000000000000000, 0.000000000000000000 ) ) ;
#29 = LINE ( 'NONE', #1048, #191 ) ;
#30 = DIRECTION ( 'NONE',  ( 0.9993628545182819956, 0.03569152573190279704, 0.000000000000000000 ) ) ;
#31 = EDGE_CURVE ( 'NONE', #958, #1027, #741, .T. ) ;
#32 = APPROVAL_STATUS ( 'not_yet_approved' ) ;
#33 = ORIENTED_EDGE ( 'NONE', *, *, #929, .F. ) ;
#34 = CARTESIAN_POINT ( 'NONE',  ( -0.1130892710236167248, 0.2595775075802729259, -0.3752797557963230002 ) ) ;
#35 = CARTESIAN_POINT ( 'NONE',  ( -0.2575106768743764540, 0.2784258467444753471, -0.3693565687930990826 ) ) ;
#36 = LINE ( 'NONE', #380, #768 ) ;
#37 = CC_DESIGN_APPROVAL ( #351, ( #748 ) ) ;
#38 = ADVANCED_FACE ( 'NONE', ( #1079 ), #905, .T. ) ;
#39 = MANIFOLD_SOLID_BREP ( 'NONE', #650 ) ;
#40 = DIRECTION ( 'NONE',  ( 0.000000000000000000, 0.000000000000000000, 1.000000000000000000 ) ) ;
#41 = CARTESIAN_POINT ( 'NONE',  ( -0.1926852793130663655, 0.8999999999999998002, -0.4221222483430069894 ) ) ;
#42 = DIRECTION ( 'NONE',  ( 0.000000000000000000, 0.000000000000000000, 1.000000000000000000 ) ) ;
#43 = LINE ( 'NONE', #730, #902 ) ;
#44 = DIRECTION ( 'NONE',  ( 0.000000000000000000, 0.000000000000000000, 1.000000000000000000 ) ) ;
#45 = CARTESIAN_POINT ( 'NONE',  ( -0.1973048969716382772, 0.2556098522098548265, 0.3693629449056139435 ) ) ;
#46 = ADVANCED_FACE ( 'NONE', ( #452 ), #969, .F. ) ;
#47 = CARTESIAN_POINT ( 'NONE',  ( -0.1926852793130663655, 0.8999999999999998002, 0.4221286244555227940 ) ) ;
#48 = DIRECTION ( 'NONE',  ( 0.000000000000000000, 0.000000000000000000, 1.000000000000000000 ) ) ;
#49 = ORIENTED_EDGE ( 'NONE', *, *, #186, .F. ) ;
#50 = LINE ( 'NONE', #570, #628 ) ;
#51 = DIRECTION ( 'NONE',  ( 0.000000000000000000, 0.000000000000000000, 1.000000000000000000 ) ) ;
#52 = CC_DESIGN_PERSON_AND_ORGANIZATION_ASSIGNMENT ( #61, #319, ( #994 ) ) ;
#53 = APPROVAL_DATE_TIME ( #1101, #22 ) ;
#54 = VECTOR ( 'NONE', #359, 1000.000000000000000 ) ;
#55 = EDGE_LOOP ( 'NONE', ( #684, #345, #726, #68 ) ) ;
#56 = DIRECTION ( 'NONE',  ( 0.000000000000000000, 0.000000000000000000, -1.000000000000000000 ) ) ;
#57 = CARTESIAN_POINT ( 'NONE',  ( -0.1608261387272501008, 0.4687942466872906944, 0.2638315858057980190 ) ) ;
#58 = ORIENTED_EDGE ( 'NONE', *, *, #432, .T. ) ;
#59 = FACE_OUTER_BOUND ( 'NONE', #803, .T. ) ;
#60 = CARTESIAN_POINT ( 'NONE',  ( -0.1926852793130663655, 0.7944686409001840977, 0.4221286244555227940 ) ) ;
#61 = PERSON_AND_ORGANIZATION ( #809, #545 ) ;
#62 = VERTEX_POINT ( 'NONE', #385 ) ;
#63 = CARTESIAN_POINT ( 'NONE',  ( -0.09922426112489390881, 0.2411124479554894173, -0.4221222483430069894 ) ) ;
#64 = ADVANCED_FACE ( 'NONE', ( #459 ), #287, .T. ) ;
#65 = CARTESIAN_POINT ( 'NONE',  ( -0.1131823115791838891, 0.7417029613502752472, -0.4221222483430069894 ) ) ;
#66 = DIRECTION ( 'NONE',  ( -0.6252512009757700273, 0.7804235617139947401, 0.000000000000000000 ) ) ;
#67 = VECTOR ( 'NONE', #936, 1000.000000000000000 ) ;
#68 = ORIENTED_EDGE ( 'NONE', *, *, #705, .F. ) ;
#69 = VECTOR ( 'NONE', #488, 1000.000000000000000 ) ;
#70 = CARTESIAN_POINT ( 'NONE',  ( -0.1581168961123609606, 0.5214903275929634319, -0.4221222483430069894 ) ) ;
#71 = EDGE_CURVE ( 'NONE', #643, #638, #682, .T. ) ;
#72 = APPROVAL_PERSON_ORGANIZATION ( #1002, #404, #675 ) ;
#73 = LINE ( 'NONE', #335, #176 ) ;
#74 = EDGE_LOOP ( 'NONE', ( #831, #610, #10, #694, #235, #58 ) ) ;
#75 = DESIGN_CONTEXT ( 'detailed design', #1093, 'design' ) ;
#76 = DIRECTION ( 'NONE',  ( 0.2181218713567150136, 0.9759215384629261747, 0.000000000000000000 ) ) ;
#77 = CARTESIAN_POINT ( 'NONE',  ( -0.3111816886503839252, 0.3320253976955309660, -0.4221222483430068229 ) ) ;
#78 = EDGE_CURVE ( 'NONE', #469, #427, #531, .T. ) ;
#79 = CARTESIAN_POINT ( 'NONE',  ( -0.1211057070566491367, 0.4838924246313409672, -0.3755897451947419752 ) ) ;
#80 = DIRECTION ( 'NONE',  ( -0.9992611746928748984, 0.03843312050062789448, 0.000000000000000000 ) ) ;
#81 = ORIENTED_EDGE ( 'NONE', *, *, #989, .F. ) ;
#82 = LINE ( 'NONE', #433, #471 ) ;
#83 = LINE ( 'NONE', #596, #617 ) ;
#84 = AXIS2_PLACEMENT_3D ( 'NONE', #424, #172, #518 ) ;
#85 = LINE ( 'NONE', #530, #282 ) ;
#86 = DIRECTION ( 'NONE',  ( 0.6108377687128546674, -0.7917557832525765615, 0.000000000000000000 ) ) ;
#87 = VERTEX_POINT ( 'NONE', #784 ) ;
#88 = B_SPLINE_CURVE_WITH_KNOTS ( 'NONE', 3,
 ( #947, #90, #437, #173 ),
 .UNSPECIFIED., .F., .F.,
 ( 4, 4 ),
 ( 0.000000000000000000, 1.000000000000000000 ),
 .UNSPECIFIED. ) ;
#89 = DIRECTION ( 'NONE',  ( 0.000000000000000000, 0.000000000000000000, -1.000000000000000000 ) ) ;
#90 = CARTESIAN_POINT ( 'NONE',  ( -0.1373465395777892506, 0.2738270222331363191, 0.3101281313964169839 ) ) ;
#91 = CARTESIAN_POINT ( 'NONE',  ( -0.09922426130324527027, 0.2411124483002233254, 0.4221286244555227940 ) ) ;
#92 = ORIENTED_EDGE ( 'NONE', *, *, #494, .F. ) ;
#93 = DIRECTION ( 'NONE',  ( -0.4411134951954799321, -0.8974513270124609976, 0.000000000000000000 ) ) ;
#94 = ORIENTED_EDGE ( 'NONE', *, *, #772, .F. ) ;
#95 = DIRECTION ( 'NONE',  ( 0.7205668326049389227, 0.6933854914473519537, 0.000000000000000000 ) ) ;
#96 = DIRECTION ( 'NONE',  ( -0.4411134951954799321, -0.8974513270124609976, 0.000000000000000000 ) ) ;
#97 = FACE_OUTER_BOUND ( 'NONE', #996, .T. ) ;
#98 = B_SPLINE_CURVE_WITH_KNOTS ( 'NONE', 3,
 ( #807, #972, #117, #789 ),
 .UNSPECIFIED., .F., .F.,
 ( 4, 4 ),
 ( 0.000000000000000000, 1.000000000000000000 ),
 .UNSPECIFIED. ) ;
#99 = AXIS2_PLACEMENT_3D ( 'NONE', #881, #543, #627 ) ;
#100 = AXIS2_PLACEMENT_3D ( 'NONE', #163, #248, #598 ) ;
#101 = VECTOR ( 'NONE', #44, 1000.000000000000000 ) ;
#102 = LINE ( 'NONE', #456, #54 ) ;
#103 = DIRECTION ( 'NONE',  ( 0.9993628545182819956, 0.03569152573190279704, 0.000000000000000000 ) ) ;
#104 = CARTESIAN_POINT ( 'NONE',  ( -0.1976829556316817005, 0.04405226682961124046, -0.4221222483430069894 ) ) ;
#105 = VECTOR ( 'NONE', #576, 1000.000000000000000 ) ;
#106 = CARTESIAN_POINT ( 'NONE',  ( -0.2093078722279999027, 0.2769738021891772761, -0.2638252096932825475 ) ) ;
#107 = ORIENTED_EDGE ( 'NONE', *, *, #683, .T. ) ;
#108 = ORIENTED_EDGE ( 'NONE', *, *, #950, .F. ) ;
#109 = PRODUCT ( '003483', '003483', '', ( #461 ) ) ;
#110 = CARTESIAN_POINT ( 'NONE',  ( -0.09459695094486009204, 0.2213127937994579519, 0.4221286244555227940 ) ) ;
#111 = CARTESIAN_POINT ( 'NONE',  ( -0.1926852793130663655, 0.7944686409001840977, -0.4221222483430069894 ) ) ;
#112 = CARTESIAN_POINT ( 'NONE',  ( -0.3847604120789345772, 0.4189038272481301894, 0.4221286244555227940 ) ) ;
#113 = EDGE_CURVE ( 'NONE', #1038, #266, #344, .T. ) ;
#114 = CALENDAR_DATE ( 2026, 29, 6 ) ;
#115 = ORIENTED_EDGE ( 'NONE', *, *, #281, .T. ) ;
#116 = ORIENTED_EDGE ( 'NONE', *, *, #182, .T. ) ;
#117 = CARTESIAN_POINT ( 'NONE',  ( -0.1299224431988768580, 0.4752028145023367567, -0.3481541390111690393 ) ) ;
#118 = DIRECTION ( 'NONE',  ( 0.000000000000000000, 0.000000000000000000, -1.000000000000000000 ) ) ;
#119 = CARTESIAN_POINT ( 'NONE',  ( -0.1973044336390671061, 0.4843740871986181307, -0.3693565687930990826 ) ) ;
#120 = CARTESIAN_POINT ( 'NONE',  ( -0.2794945621530383617, 0.4835339586408057833, -0.4221222483430068229 ) ) ;
#121 = LINE ( 'NONE', #218, #448 ) ;
#122 = VERTEX_POINT ( 'NONE', #422 ) ;
#123 = ORIENTED_EDGE ( 'NONE', *, *, #539, .F. ) ;
#124 = CARTESIAN_POINT ( 'NONE',  ( -0.2433486998500311027, 0.2925834591794066464, 0.2638315858057980190 ) ) ;
#125 = DIRECTION ( 'NONE',  ( 0.7205668326049389227, 0.6933854914473519537, 0.000000000000000000 ) ) ;
#126 = AXIS2_PLACEMENT_3D ( 'NONE', #111, #194, #798 ) ;
#127 = AXIS2_PLACEMENT_3D ( 'NONE', #700, #440, #356 ) ;
#128 = DIRECTION ( 'NONE',  ( 0.000000000000000000, 0.000000000000000000, 1.000000000000000000 ) ) ;
#129 = VECTOR ( 'NONE', #1099, 1000.000000000000000 ) ;
#130 = LINE ( 'NONE', #1103, #672 ) ;
#131 = EDGE_CURVE ( 'NONE', #755, #643, #1087, .T. ) ;
#132 = ORIENTED_EDGE ( 'NONE', *, *, #31, .F. ) ;
#133 = DIRECTION ( 'NONE',  ( -0.7917557832525765615, -0.6108377687128546674, 0.000000000000000000 ) ) ;
#134 = FACE_OUTER_BOUND ( 'NONE', #290, .T. ) ;
#135 = EDGE_LOOP ( 'NONE', ( #842, #824, #1032, #924 ) ) ;
#136 = DIRECTION ( 'NONE',  ( 0.000000000000000000, 0.000000000000000000, 1.000000000000000000 ) ) ;
#137 = CC_DESIGN_PERSON_AND_ORGANIZATION_ASSIGNMENT ( #666, #376, ( #994 ) ) ;
#138 = DIRECTION ( 'NONE',  ( -0.03569152573190279704, 0.9993628545182819956, 0.000000000000000000 ) ) ;
#139 = ORIENTED_EDGE ( 'NONE', *, *, #131, .T. ) ;
#140 = PLANE ( 'NONE',  #527 ) ;
#141 = CARTESIAN_POINT ( 'NONE',  ( -0.1323645396562438681, 0.4747969220271225366, 0.3424553314717357910 ) ) ;
#142 = VERTEX_POINT ( 'NONE', #14 ) ;
#143 = AXIS2_PLACEMENT_3D ( 'NONE', #559, #635, #716 ) ;
#144 = AXIS2_PLACEMENT_3D ( 'NONE', #591, #1004, #830 ) ;
#145 = EDGE_CURVE ( 'NONE', #296, #122, #166, .T. ) ;
#146 = APPROVAL_STATUS ( 'not_yet_approved' ) ;
#147 = AXIS2_PLACEMENT_3D ( 'NONE', #324, #228, #314 ) ;
#148 = ORIENTED_EDGE ( 'NONE', *, *, #957, .F. ) ;
#149 = CARTESIAN_POINT ( 'NONE',  ( -0.1537905615325275144, 0.2717980588158200317, -0.2638252096932826030 ) ) ;
#150 = ORIENTED_EDGE ( 'NONE', *, *, #1056, .F. ) ;
#151 = PERSON_AND_ORGANIZATION ( #809, #545 ) ;
#152 = EDGE_CURVE ( 'NONE', #829, #271, #773, .T. ) ;
#153 = ORIENTED_EDGE ( 'NONE', *, *, #533, .T. ) ;
#154 = FACE_OUTER_BOUND ( 'NONE', #475, .T. ) ;
#155 = ORIENTED_EDGE ( 'NONE', *, *, #922, .F. ) ;
#156 = CALENDAR_DATE ( 2026, 29, 6 ) ;
#157 = PRODUCT_RELATED_PRODUCT_CATEGORY ( 'detail', '', ( #109 ) ) ;
#158 = CARTESIAN_POINT ( 'NONE',  ( 0.3250662655186078998, -0.8999999999999998002, -0.4221222483430069894 ) ) ;
#159 = DIRECTION ( 'NONE',  ( 0.000000000000000000, 0.000000000000000000, 1.000000000000000000 ) ) ;
#160 = DIRECTION ( 'NONE',  ( -0.7337606729299209762, -0.6794080326736131603, 0.000000000000000000 ) ) ;
#161 = CARTESIAN_POINT ( 'NONE',  ( -0.1608261387272501008, 0.4687942466872906944, 0.2638315858057980190 ) ) ;
#162 = ADVANCED_FACE ( 'NONE', ( #1026 ), #609, .T. ) ;
#163 = CARTESIAN_POINT ( 'NONE',  ( -0.1473290110804530428, 0.2194295061900408406, 0.4221286244555227940 ) ) ;
#164 = CARTESIAN_POINT ( 'NONE',  ( -0.2586688883308316256, 0.8768278000413811668, 0.4221286244555227940 ) ) ;
#165 = ORIENTED_EDGE ( 'NONE', *, *, #1082, .T. ) ;
#166 = B_SPLINE_CURVE_WITH_KNOTS ( 'NONE', 3,
 ( #91, #851, #537, #336, #434, #438, #348, #791, #1037, #771, #354, #689 ),
 .UNSPECIFIED., .F., .F.,
 ( 4, 2, 1, 2, 1, 2, 4 ),
 ( 2.604247135083566525E-13, 6.889655429994125926E-05, 0.0001822241427919817254, 0.0002955517312840221238, 0.0004088793197760625764, 0.0005222069082681030832, 0.0005808011876443437867 ),
 .UNSPECIFIED. ) ;
#167 = DIRECTION ( 'NONE',  ( -0.6794080326736131603, 0.7337606729299209762, 0.000000000000000000 ) ) ;
#168 = UNCERTAINTY_MEASURE_WITH_UNIT (LENGTH_MEASURE( 1.000000000000000082E-05 ), #329, 'distance_accuracy_value', 'NONE');
#169 = DIRECTION ( 'NONE',  ( 0.7015455703360445883, -0.7126245945389998449, 0.000000000000000000 ) ) ;
#170 = DIRECTION ( 'NONE',  ( 0.000000000000000000, 0.000000000000000000, -1.000000000000000000 ) ) ;
#171 = CARTESIAN_POINT ( 'NONE',  ( 0.2297946054952187400, 0.7417029613502752472, -0.4221222483430069894 ) ) ;
#172 = DIRECTION ( 'NONE',  ( 0.000000000000000000, 0.000000000000000000, 1.000000000000000000 ) ) ;
#173 = CARTESIAN_POINT ( 'NONE',  ( -0.1130944441780209198, 0.2595723907783607509, 0.3752974386661489525 ) ) ;
#174 = LINE ( 'NONE', #426, #244 ) ;
#175 = ORIENTED_EDGE ( 'NONE', *, *, #193, .T. ) ;
#176 = VECTOR ( 'NONE', #702, 1000.000000000000000 ) ;
#177 = DIRECTION ( 'NONE',  ( -0.4411134951954799321, -0.8974513270124609976, 0.000000000000000000 ) ) ;
#178 = DIRECTION ( 'NONE',  ( -0.9759215384629261747, 0.2181218713567150136, 0.000000000000000000 ) ) ;
#179 = CARTESIAN_POINT ( 'NONE',  ( -0.1428123389683090827, 0.2248715298753259928, -0.4221222483430068229 ) ) ;
#180 = ORIENTED_EDGE ( 'NONE', *, *, #1035, .T. ) ;
#181 = COORDINATED_UNIVERSAL_TIME_OFFSET ( 8, 0, .AHEAD. ) ;
#182 = EDGE_CURVE ( 'NONE', #392, #857, #619, .T. ) ;
#183 = CARTESIAN_POINT ( 'NONE',  ( 0.2846287476174608755, 0.7944686409001840977, 0.4221286244555227940 ) ) ;
#184 = DIRECTION ( 'NONE',  ( 1.000000000000000000, 0.000000000000000000, 0.000000000000000000 ) ) ;
#185 = ORIENTED_EDGE ( 'NONE', *, *, #517, .T. ) ;
#186 = EDGE_CURVE ( 'NONE', #334, #1049, #948, .T. ) ;
#187 = CARTESIAN_POINT ( 'NONE',  ( -0.1659059686301680714, 0.3699890949891527225, -0.4221222483430069894 ) ) ;
#188 = FACE_OUTER_BOUND ( 'NONE', #1016, .T. ) ;
#189 = CARTESIAN_POINT ( 'NONE',  ( -0.1496209304371130255, 0.4843204077347270098, -0.3693565687930990826 ) ) ;
#190 = CARTESIAN_POINT ( 'NONE',  ( -0.1537905615325275144, 0.2717980588158200317, -0.2638252096932826030 ) ) ;
#191 = VECTOR ( 'NONE', #891, 1000.000000000000000 ) ;
#192 = CARTESIAN_POINT ( 'NONE',  ( -0.1115123261784066871, 0.4953341034510822527, 0.4070458407553795288 ) ) ;
#193 = EDGE_CURVE ( 'NONE', #469, #1038, #1007, .T. ) ;
#194 = DIRECTION ( 'NONE',  ( 0.000000000000000000, 0.000000000000000000, 1.000000000000000000 ) ) ;
#195 = AXIS2_PLACEMENT_3D ( 'NONE', #397, #636, #988 ) ;
#196 = CARTESIAN_POINT ( 'NONE',  ( -0.1659059686301680714, 0.3699890949891527225, -0.4221222483430069894 ) ) ;
#197 = LINE ( 'NONE', #793, #600 ) ;
#198 = CARTESIAN_POINT ( 'NONE',  ( -0.1390386312590048690, 0.4661501815729447995, -0.2638252096932826030 ) ) ;
#199 = CARTESIAN_POINT ( 'NONE',  ( -0.1462659442192368042, 0.5151004486961275886, -0.4221222483430068229 ) ) ;
#200 = DIRECTION ( 'NONE',  ( 0.03843312050062839408, 0.9992611746928748984, 0.000000000000000000 ) ) ;
#201 = APPROVAL_STATUS ( 'not_yet_approved' ) ;
#202 = VERTEX_POINT ( 'NONE', #604 ) ;
#203 = CARTESIAN_POINT ( 'NONE',  ( -0.1524483219506239384, 0.4689280144533733985, 0.2638315858057980190 ) ) ;
#204 = CARTESIAN_POINT ( 'NONE',  ( -0.2794947549804215337, 0.2564417686384317108, -0.4221222483430069894 ) ) ;
#205 = CARTESIAN_POINT ( 'NONE',  ( -0.2158329335533485382, 0.4596711573617754398, 0.2638315858057981300 ) ) ;
#206 = ADVANCED_FACE ( 'NONE', ( #943 ), #856, .T. ) ;
#207 = VECTOR ( 'NONE', #481, 1000.000000000000114 ) ;
#208 = CARTESIAN_POINT ( 'NONE',  ( -0.09922426130324527027, 0.2411124483002233254, 0.4221286244555227940 ) ) ;
#209 = ORIENTED_EDGE ( 'NONE', *, *, #539, .T. ) ;
#210 = B_SPLINE_CURVE_WITH_KNOTS ( 'NONE', 3,
 ( #293, #641, #205, #569, #213, #906 ),
 .UNSPECIFIED., .F., .F.,
 ( 4, 2, 4 ),
 ( 0.000000000000000000, 0.5000000000000000000, 1.000000000000000000 ),
 .UNSPECIFIED. ) ;
#211 = CARTESIAN_POINT ( 'NONE',  ( -0.1196041292639189735, 0.2305322551338065407, -0.4221222483430069894 ) ) ;
#212 = VECTOR ( 'NONE', #685, 1000.000000000000000 ) ;
#213 = CARTESIAN_POINT ( 'NONE',  ( -0.2657543419235908755, 0.3937772535665783891, 0.2638315858057981300 ) ) ;
#214 = EDGE_CURVE ( 'NONE', #423, #16, #243, .T. ) ;
#215 = ORIENTED_EDGE ( 'NONE', *, *, #113, .F. ) ;
#216 = FACE_OUTER_BOUND ( 'NONE', #480, .T. ) ;
#217 = CARTESIAN_POINT ( 'NONE',  ( -0.1525635272349079030, 0.4688936486847052887, 0.2868263100986911951 ) ) ;
#218 = CARTESIAN_POINT ( 'NONE',  ( 0.1729700298883986853, -0.7357360660471509162, -0.4221222483430069894 ) ) ;
#219 = LINE ( 'NONE', #1112, #955 ) ;
#220 = CARTESIAN_POINT ( 'NONE',  ( -0.2649564399255568969, 0.3958687762902944329, 0.3165972653557060923 ) ) ;
#221 = ORIENTED_EDGE ( 'NONE', *, *, #113, .T. ) ;
#222 = ORIENTED_EDGE ( 'NONE', *, *, #719, .F. ) ;
#223 = CARTESIAN_POINT ( 'NONE',  ( -0.1659984559399511617, 0.002983447651562405340, -0.4221222483430069894 ) ) ;
#224 = VERTEX_POINT ( 'NONE', #164 ) ;
#225 = CARTESIAN_POINT ( 'NONE',  ( -0.1918102981157074061, 0.2710168978186448530, 0.3165972653557060923 ) ) ;
#226 = EDGE_CURVE ( 'NONE', #829, #857, #174, .T. ) ;
#227 = CIRCLE ( 'NONE', #882, 0.1055313590998161744 ) ;
#228 = DIRECTION ( 'NONE',  ( 0.000000000000000000, 0.000000000000000000, 1.000000000000000000 ) ) ;
#229 = AXIS2_PLACEMENT_3D ( 'NONE', #368, #696, #93 ) ;
#230 = VECTOR ( 'NONE', #848, 1000.000000000000000 ) ;
#231 = APPROVAL_PERSON_ORGANIZATION ( #976, #351, #1028 ) ;
#232 = ORIENTED_EDGE ( 'NONE', *, *, #432, .F. ) ;
#233 = DIRECTION ( 'NONE',  ( 0.000000000000000000, 0.000000000000000000, 1.000000000000000000 ) ) ;
#234 = ORIENTED_EDGE ( 'NONE', *, *, #363, .F. ) ;
#235 = ORIENTED_EDGE ( 'NONE', *, *, #616, .T. ) ;
#236 = EDGE_CURVE ( 'NONE', #455, #958, #6, .T. ) ;
#237 = ORIENTED_EDGE ( 'NONE', *, *, #31, .T. ) ;
#238 = DIRECTION ( 'NONE',  ( 0.000000000000000000, 0.000000000000000000, 1.000000000000000000 ) ) ;
#239 = CARTESIAN_POINT ( 'NONE',  ( -0.1343228838476439313, 0.2749082825705911892, 0.2638315858057980190 ) ) ;
#240 = VERTEX_POINT ( 'NONE', #366 ) ;
#241 = EDGE_CURVE ( 'NONE', #302, #590, #733, .T. ) ;
#242 = CARTESIAN_POINT ( 'NONE',  ( 0.1729700298883986853, -0.7357360660471509162, 0.4221286244555227940 ) ) ;
#243 = LINE ( 'NONE', #599, #67 ) ;
#244 = VECTOR ( 'NONE', #777, 1000.000000000000000 ) ;
#245 = AXIS2_PLACEMENT_3D ( 'NONE', #12, #251, #417 ) ;
#246 = CARTESIAN_POINT ( 'NONE',  ( -0.1131823115791838891, 0.7417029613502752472, 0.4221286244555227940 ) ) ;
#247 = EDGE_CURVE ( 'NONE', #273, #992, #227, .T. ) ;
#248 = DIRECTION ( 'NONE',  ( 0.000000000000000000, 0.000000000000000000, -1.000000000000000000 ) ) ;
#249 = DIRECTION ( 'NONE',  ( 0.000000000000000000, 0.000000000000000000, 1.000000000000000000 ) ) ;
#250 = VERTEX_POINT ( 'NONE', #639 ) ;
#251 = DIRECTION ( 'NONE',  ( 0.000000000000000000, 0.000000000000000000, 1.000000000000000000 ) ) ;
#252 =( NAMED_UNIT ( * ) SI_UNIT ( $, .STERADIAN. ) SOLID_ANGLE_UNIT ( ) );
#253 = DIRECTION ( 'NONE',  ( -0.9761989037295637495, -0.2168771549914789709, 0.000000000000000000 ) ) ;
#254 = DIRECTION ( 'NONE',  ( -1.000000000000000000, 0.000000000000000000, 0.000000000000000000 ) ) ;
#255 = EDGE_LOOP ( 'NONE', ( #257, #175, #185, #1034 ) ) ;
#256 = DIRECTION ( 'NONE',  ( 0.6794080326736131603, -0.7337606729299210873, 0.000000000000000000 ) ) ;
#257 = ORIENTED_EDGE ( 'NONE', *, *, #78, .F. ) ;
#258 = CARTESIAN_POINT ( 'NONE',  ( -0.1141278917498974449, 0.1085148067513785897, -0.4221222483430069894 ) ) ;
#259 = DIRECTION ( 'NONE',  ( 0.000000000000000000, 0.000000000000000000, 1.000000000000000000 ) ) ;
#260 = CARTESIAN_POINT ( 'NONE',  ( -0.2039005497102706066, 0.2248224333232093641, -0.4221222483430068229 ) ) ;
#261 = ORIENTED_EDGE ( 'NONE', *, *, #412, .T. ) ;
#262 = ADVANCED_FACE ( 'NONE', ( #292 ), #1059, .T. ) ;
#263 = CARTESIAN_POINT ( 'NONE',  ( -0.1809217304909092328, 0.2684504502175613649, 0.2638315858057980745 ) ) ;
#264 = AXIS2_PLACEMENT_3D ( 'NONE', #407, #40, #486 ) ;
#265 = DIRECTION ( 'NONE',  ( 0.7015455703360445883, -0.7126245945389998449, 0.000000000000000000 ) ) ;
#266 = VERTEX_POINT ( 'NONE', #104 ) ;
#267 = LINE ( 'NONE', #552, #846 ) ;
#268 = ORIENTED_EDGE ( 'NONE', *, *, #788, .T. ) ;
#269 = CARTESIAN_POINT ( 'NONE',  ( -0.1225895561003239043, 0.2676796507010826276, -0.3475632217118059253 ) ) ;
#270 = DIRECTION ( 'NONE',  ( 0.000000000000000000, 0.000000000000000000, 1.000000000000000000 ) ) ;
#271 = VERTEX_POINT ( 'NONE', #880 ) ;
#272 = ADVANCED_FACE ( 'NONE', ( #567 ), #458, .F. ) ;
#273 = VERTEX_POINT ( 'NONE', #710 ) ;
#274 = DIRECTION ( 'NONE',  ( 0.000000000000000000, 0.000000000000000000, -1.000000000000000000 ) ) ;
#275 = ADVANCED_BREP_SHAPE_REPRESENTATION ( '003483', ( #39, #147 ), #358 ) ;
#276 = CARTESIAN_POINT ( 'NONE',  ( -0.1027055736215699705, 0.2488359230304747483, 0.4069247161768956289 ) ) ;
#277 = CARTESIAN_POINT ( 'NONE',  ( -0.1918099822071365479, 0.4689652122256841027, -0.2638252096932826030 ) ) ;
#278 = ORIENTED_EDGE ( 'NONE', *, *, #649, .F. ) ;
#279 = CARTESIAN_POINT ( 'NONE',  ( -0.2638028056619933226, 0.3391381827583263564, 0.2638315858057982410 ) ) ;
#280 = ORIENTED_EDGE ( 'NONE', *, *, #327, .T. ) ;
#281 = EDGE_CURVE ( 'NONE', #564, #202, #29, .T. ) ;
#282 = VECTOR ( 'NONE', #790, 1000.000000000000000 ) ;
#283 = ORIENTED_EDGE ( 'NONE', *, *, #1014, .T. ) ;
#284 = VECTOR ( 'NONE', #233, 1000.000000000000000 ) ;
#285 = CARTESIAN_POINT ( 'NONE',  ( -0.09922426112489390881, 0.2411124479554894173, -0.4221222483430069894 ) ) ;
#286 = CARTESIAN_POINT ( 'NONE',  ( -0.2649575959166790007, 0.3441047559253190280, -0.3165908892431912314 ) ) ;
#287 = PLANE ( 'NONE',  #492 ) ;
#288 = DIRECTION ( 'NONE',  ( 0.000000000000000000, 0.000000000000000000, 1.000000000000000000 ) ) ;
#289 = PERSON_AND_ORGANIZATION ( #809, #545 ) ;
#290 = EDGE_LOOP ( 'NONE', ( #107, #318, #556, #313 ) ) ;
#291 = CARTESIAN_POINT ( 'NONE',  ( -0.1258515599330846946, 0.4792090280533161106, 0.3608972730096667858 ) ) ;
#292 = FACE_OUTER_BOUND ( 'NONE', #944, .T. ) ;
#293 = CARTESIAN_POINT ( 'NONE',  ( -0.1608261387272501008, 0.4687942466872906944, 0.2638315858057980190 ) ) ;
#294 = ORIENTED_EDGE ( 'NONE', *, *, #800, .T. ) ;
#295 = CARTESIAN_POINT ( 'NONE',  ( -0.1918099822071365479, 0.4689652122256841027, -0.3165908892431912314 ) ) ;
#296 = VERTEX_POINT ( 'NONE', #208 ) ;
#297 = DIRECTION ( 'NONE',  ( 0.000000000000000000, 0.000000000000000000, 1.000000000000000000 ) ) ;
#298 = ADVANCED_FACE ( 'NONE', ( #97 ), #866, .T. ) ;
#299 = ORIENTED_EDGE ( 'NONE', *, *, #950, .T. ) ;
#300 = CARTESIAN_POINT ( 'NONE',  ( -0.2586688883308316256, 0.8768278000413811668, -0.4221222483430069894 ) ) ;
#301 = FACE_OUTER_BOUND ( 'NONE', #1051, .T. ) ;
#302 = VERTEX_POINT ( 'NONE', #47 ) ;
#303 = CARTESIAN_POINT ( 'NONE',  ( -0.08679947534244412954, 0.002983447651562405340, 0.4221286244555227940 ) ) ;
#304 = ORIENTED_EDGE ( 'NONE', *, *, #383, .F. ) ;
#305 = CYLINDRICAL_SURFACE ( 'NONE', #629, 0.1055313590998161744 ) ;
#306 = ORIENTED_EDGE ( 'NONE', *, *, #805, .F. ) ;
#307 = CARTESIAN_POINT ( 'NONE',  ( -0.2433484859835693126, 0.4473929426803550102, 0.3165972653557060923 ) ) ;
#308 = CARTESIAN_POINT ( 'NONE',  ( -0.2648345752657399466, 0.3664557242131732950, -0.2638252096932826030 ) ) ;
#309 = VERTEX_POINT ( 'NONE', #390 ) ;
#310 = DIRECTION ( 'NONE',  ( -0.000000000000000000, 1.000000000000000000, 0.000000000000000000 ) ) ;
#311 = EDGE_CURVE ( 'NONE', #753, #250, #667, .T. ) ;
#312 = CARTESIAN_POINT ( 'NONE',  ( -0.2804004392099237464, 0.3386246719015034157, 0.3693629449056139435 ) ) ;
#313 = ORIENTED_EDGE ( 'NONE', *, *, #241, .T. ) ;
#314 = DIRECTION ( 'NONE',  ( 1.000000000000000000, 0.000000000000000000, 0.000000000000000000 ) ) ;
#315 = ORIENTED_EDGE ( 'NONE', *, *, #901, .T. ) ;
#316 = DIRECTION ( 'NONE',  ( 1.000000000000000000, 0.000000000000000000, 0.000000000000000000 ) ) ;
#317 = EDGE_CURVE ( 'NONE', #224, #302, #544, .T. ) ;
#318 = ORIENTED_EDGE ( 'NONE', *, *, #922, .T. ) ;
#319 = PERSON_AND_ORGANIZATION_ROLE ( 'design_supplier' ) ;
#320 = VECTOR ( 'NONE', #751, 1000.000000000000000 ) ;
#321 = CIRCLE ( 'NONE', #956, 0.05276567954990810105 ) ;
#322 = ORIENTED_EDGE ( 'NONE', *, *, #1, .T. ) ;
#323 = DIRECTION ( 'NONE',  ( 0.6794080326736131603, -0.7337606729299210873, 0.000000000000000000 ) ) ;
#324 = CARTESIAN_POINT ( 'NONE',  ( 0.000000000000000000, 0.000000000000000000, 0.000000000000000000 ) ) ;
#325 = ORIENTED_EDGE ( 'NONE', *, *, #705, .T. ) ;
#326 = CARTESIAN_POINT ( 'NONE',  ( -0.2158329172465599521, 0.4596711639630096102, -0.2638252096932826030 ) ) ;
#327 = EDGE_CURVE ( 'NONE', #668, #847, #670, .T. ) ;
#328 = CALENDAR_DATE ( 2026, 29, 6 ) ;
#329 =( LENGTH_UNIT ( ) NAMED_UNIT ( * ) SI_UNIT ( .MILLI., .METRE. ) );
#330 = CARTESIAN_POINT ( 'NONE',  ( -0.1608261387272501008, 0.4687942466872906944, -0.2638252096932826030 ) ) ;
#331 = CARTESIAN_POINT ( 'NONE',  ( -0.3434604793789589050, 0.2330061976553982339, -0.4221222483430069894 ) ) ;
#332 = EDGE_CURVE ( 'NONE', #271, #392, #73, .T. ) ;
#333 = CARTESIAN_POINT ( 'NONE',  ( -0.2772337376820698251, 0.8999999999999998002, 0.4221286244555227940 ) ) ;
#334 = VERTEX_POINT ( 'NONE', #612 ) ;
#335 = CARTESIAN_POINT ( 'NONE',  ( -0.1141278917498974449, 0.002983447651562405340, -0.4221222483430069894 ) ) ;
#336 = CARTESIAN_POINT ( 'NONE',  ( -0.2038989852089589105, 0.2248298724724084041, 0.4221286244555227940 ) ) ;
#337 = ORIENTED_EDGE ( 'NONE', *, *, #1, .F. ) ;
#338 = VECTOR ( 'NONE', #347, 1000.000000000000114 ) ;
#339 = VECTOR ( 'NONE', #865, 1000.000000000000000 ) ;
#340 = CIRCLE ( 'NONE', #674, 0.1055313590998161744 ) ;
#341 = ADVANCED_FACE ( 'NONE', ( #953 ), #783, .T. ) ;
#342 = CARTESIAN_POINT ( 'NONE',  ( -0.1203028642870437176, 0.2821903504183762568, 0.2638315858057980190 ) ) ;
#343 = LINE ( 'NONE', #935, #338 ) ;
#344 = LINE ( 'NONE', #331, #828 ) ;
#345 = ORIENTED_EDGE ( 'NONE', *, *, #888, .F. ) ;
#346 = EDGE_CURVE ( 'NONE', #296, #928, #597, .T. ) ;
#347 = DIRECTION ( 'NONE',  ( -0.03843312050062789448, -0.9992611746928748984, 0.000000000000000000 ) ) ;
#348 = CARTESIAN_POINT ( 'NONE',  ( -0.3111799931967382804, 0.4079459608974934648, 0.4221286244555227940 ) ) ;
#349 = ORIENTED_EDGE ( 'NONE', *, *, #1100, .F. ) ;
#350 = APPROVAL_DATE_TIME ( #429, #351 ) ;
#351 = APPROVAL ( #201, '未' ) ;
#352 = CARTESIAN_POINT ( 'NONE',  ( -0.1085878983869376785, 0.5032943029684194824, 0.4221286252476306178 ) ) ;
#353 = CARTESIAN_POINT ( 'NONE',  ( -0.2956756056418411438, 0.8174873384338534610, -0.4221222483430069894 ) ) ;
#354 = CARTESIAN_POINT ( 'NONE',  ( -0.1266321444531562646, 0.5110523615067046332, 0.4221286244555227940 ) ) ;
#355 = ORIENTED_EDGE ( 'NONE', *, *, #193, .F. ) ;
#356 = DIRECTION ( 'NONE',  ( 1.000000000000000000, 0.000000000000000000, 0.000000000000000000 ) ) ;
#357 = AXIS2_PLACEMENT_3D ( 'NONE', #536, #618, #19 ) ;
#358 =( GEOMETRIC_REPRESENTATION_CONTEXT ( 3 ) GLOBAL_UNCERTAINTY_ASSIGNED_CONTEXT ( ( #168 ) ) GLOBAL_UNIT_ASSIGNED_CONTEXT ( ( #329, #854, #252 ) ) REPRESENTATION_CONTEXT ( 'NONE', 'WORKASPACE' ) );
#359 = DIRECTION ( 'NONE',  ( 0.000000000000000000, 0.000000000000000000, -1.000000000000000000 ) ) ;
#360 = CARTESIAN_POINT ( 'NONE',  ( -0.1130944441780209198, 0.2595723907783607509, 0.3752974386661489525 ) ) ;
#361 = DIRECTION ( 'NONE',  ( -0.9993628545182819956, -0.03569152573190261662, 0.000000000000000000 ) ) ;
#362 = VERTEX_POINT ( 'NONE', #874 ) ;
#363 = EDGE_CURVE ( 'NONE', #142, #720, #343, .T. ) ;
#364 = EDGE_LOOP ( 'NONE', ( #322, #657, #369, #812 ) ) ;
#365 = FACE_OUTER_BOUND ( 'NONE', #255, .T. ) ;
#366 = CARTESIAN_POINT ( 'NONE',  ( -0.2648341259336436382, 0.3664556914481539862, 0.2638315858057980190 ) ) ;
#367 = CYLINDRICAL_SURFACE ( 'NONE', #143, 0.05276567954990819126 ) ;
#368 = CARTESIAN_POINT ( 'NONE',  ( -0.1141278917498974449, 0.1085148067513785897, -0.4221222483430069894 ) ) ;
#369 = ORIENTED_EDGE ( 'NONE', *, *, #772, .T. ) ;
#370 = DIRECTION ( 'NONE',  ( 0.7205668326049389227, 0.6933854914473519537, 0.000000000000000000 ) ) ;
#371 = CARTESIAN_POINT ( 'NONE',  ( -0.1076505458131986337, 0.2549385784493992668, 0.3911663476016647989 ) ) ;
#372 = CARTESIAN_POINT ( 'NONE',  ( -0.2804012902043792055, 0.4013570578648805176, -0.3693565687930990826 ) ) ;
#373 = DIRECTION ( 'NONE',  ( 0.000000000000000000, 0.000000000000000000, -1.000000000000000000 ) ) ;
#374 = LINE ( 'NONE', #975, #883 ) ;
#375 = VECTOR ( 'NONE', #420, 1000.000000000000000 ) ;
#376 = PERSON_AND_ORGANIZATION_ROLE ( 'creator' ) ;
#377 = CARTESIAN_POINT ( 'NONE',  ( -0.1372435521616309217, 0.2738397294467611043, -0.3104117063441259039 ) ) ;
#378 = CARTESIAN_POINT ( 'NONE',  ( -0.1918113648211468292, 0.2710118256714638130, -0.3165908892431912314 ) ) ;
#379 = VERTEX_POINT ( 'NONE', #942 ) ;
#380 = CARTESIAN_POINT ( 'NONE',  ( -0.2586688883308316811, 0.8768278000413811668, -0.4221222483430069894 ) ) ;
#381 = ORIENTED_EDGE ( 'NONE', *, *, #1089, .F. ) ;
#382 = CARTESIAN_POINT ( 'NONE',  ( -0.2794886410859666603, 0.2564608291348578484, 0.4221286244555227940 ) ) ;
#383 = EDGE_CURVE ( 'NONE', #379, #142, #511, .T. ) ;
#384 = CARTESIAN_POINT ( 'NONE',  ( -0.2649573104335703477, 0.3958723116571408740, -0.3165908892431912314 ) ) ;
#385 = CARTESIAN_POINT ( 'NONE',  ( -0.1976829556316817005, 0.04405226682961124046, 0.4221286244555227940 ) ) ;
#386 = CYLINDRICAL_SURFACE ( 'NONE', #4, 0.05276567954990819126 ) ;
#387 = LINE ( 'NONE', #658, #1104 ) ;
#388 = ORIENTED_EDGE ( 'NONE', *, *, #656, .F. ) ;
#389 = ORIENTED_EDGE ( 'NONE', *, *, #1019, .T. ) ;
#390 = CARTESIAN_POINT ( 'NONE',  ( 0.1729700298883986853, -0.7357360660471509162, -0.4221222483430069894 ) ) ;
#391 = CARTESIAN_POINT ( 'NONE',  ( -0.1473290110804530428, 0.2194295061900408406, -0.4221222483430069894 ) ) ;
#392 = VERTEX_POINT ( 'NONE', #608 ) ;
#393 = CARTESIAN_POINT ( 'NONE',  ( 0.3900821374784798068, 0.7904127414593049572, -0.4221222483430069894 ) ) ;
#394 = CARTESIAN_POINT ( 'NONE',  ( -0.1191039235219538694, 0.4755748592621771298, 0.3693629449056139435 ) ) ;
#395 = VERTEX_POINT ( 'NONE', #1036 ) ;
#396 = AXIS2_PLACEMENT_3D ( 'NONE', #70, #940, #169 ) ;
#397 = CARTESIAN_POINT ( 'NONE',  ( -0.1926852793130663655, 0.7944686409001840977, 0.4221286244555227940 ) ) ;
#398 = EDGE_CURVE ( 'NONE', #497, #62, #764, .T. ) ;
#399 = ORIENTED_EDGE ( 'NONE', *, *, #145, .T. ) ;
#400 = FACE_OUTER_BOUND ( 'NONE', #55, .T. ) ;
#401 = CARTESIAN_POINT ( 'NONE',  ( -0.1524483219506239384, 0.4689280144533733985, 0.3165972653557060923 ) ) ;
#402 = ORIENTED_EDGE ( 'NONE', *, *, #923, .T. ) ;
#403 = APPROVAL_DATE_TIME ( #1088, #404 ) ;
#404 = APPROVAL ( #146, '未' ) ;
#405 = EDGE_LOOP ( 'NONE', ( #697, #180, #514, #439 ) ) ;
#406 = DIRECTION ( 'NONE',  ( 0.000000000000000000, 0.000000000000000000, 1.000000000000000000 ) ) ;
#407 = CARTESIAN_POINT ( 'NONE',  ( -0.1141278917498974449, 0.1085148067513785897, -0.4221222483430069894 ) ) ;
#408 = ORIENTED_EDGE ( 'NONE', *, *, #398, .F. ) ;
#409 = ORIENTED_EDGE ( 'NONE', *, *, #236, .T. ) ;
#410 = CARTESIAN_POINT ( 'NONE',  ( -0.1608261387272501008, 0.4687942466872906944, -0.4221222483430069894 ) ) ;
#411 = ORIENTED_EDGE ( 'NONE', *, *, #1035, .F. ) ;
#412 = EDGE_CURVE ( 'NONE', #863, #455, #692, .T. ) ;
#413 = CIRCLE ( 'NONE', #933, 0.05276567954990819126 ) ;
#414 = PERSON_AND_ORGANIZATION_ROLE ( 'classification_officer' ) ;
#415 = AXIS2_PLACEMENT_3D ( 'NONE', #484, #238, #913 ) ;
#416 = LOCAL_TIME ( 8, 10, 5.000000000000000000, #769 ) ;
#417 = DIRECTION ( 'NONE',  ( -0.6252512009757700273, 0.7804235617139947401, 0.000000000000000000 ) ) ;
#418 = CARTESIAN_POINT ( 'NONE',  ( -0.08679947534244412954, 0.002983447651562405340, -0.4221222483430069894 ) ) ;
#419 = EDGE_CURVE ( 'NONE', #202, #595, #88, .T. ) ;
#420 = DIRECTION ( 'NONE',  ( 0.000000000000000000, 0.000000000000000000, 1.000000000000000000 ) ) ;
#421 = CARTESIAN_POINT ( 'NONE',  ( -0.1473290110804530428, 0.2194295061900408406, -0.4221222483430069894 ) ) ;
#422 = CARTESIAN_POINT ( 'NONE',  ( -0.1085878983869376785, 0.5032943029684194824, 0.4221286252476306178 ) ) ;
#423 = VERTEX_POINT ( 'NONE', #444 ) ;
#424 = CARTESIAN_POINT ( 'NONE',  ( -0.1659059686301680714, 0.3699890949891527225, 0.4221286244555227940 ) ) ;
#425 = CARTESIAN_POINT ( 'NONE',  ( 0.2846287476174608755, 0.8999999999999998002, -0.4221222483430069894 ) ) ;
#426 = CARTESIAN_POINT ( 'NONE',  ( -0.08679947534244412954, 0.002983447651562405340, -0.4221222483430069894 ) ) ;
#427 = VERTEX_POINT ( 'NONE', #1113 ) ;
#428 = VECTOR ( 'NONE', #184, 1000.000000000000000 ) ;
#429 = DATE_AND_TIME ( #606, #631 ) ;
#430 = VECTOR ( 'NONE', #862, 1000.000000000000000 ) ;
#431 = AXIS2_PLACEMENT_3D ( 'NONE', #945, #160, #167 ) ;
#432 = EDGE_CURVE ( 'NONE', #573, #638, #413, .T. ) ;
#433 = CARTESIAN_POINT ( 'NONE',  ( -0.1210993673583517227, 0.4838882065981353064, -0.4221222483430069894 ) ) ;
#434 = CARTESIAN_POINT ( 'NONE',  ( -0.2794886410859666603, 0.2564608291348578484, 0.4221286244555227940 ) ) ;
#435 = LINE ( 'NONE', #786, #706 ) ;
#436 = DIRECTION ( 'NONE',  ( 0.7015455703360445883, -0.7126245945389998449, 0.000000000000000000 ) ) ;
#437 = CARTESIAN_POINT ( 'NONE',  ( -0.1226687622087260510, 0.2677470075437556885, 0.3472834156832005914 ) ) ;
#438 = CARTESIAN_POINT ( 'NONE',  ( -0.3111804189473704740, 0.3320305836641828101, 0.4221286244555227940 ) ) ;
#439 = ORIENTED_EDGE ( 'NONE', *, *, #500, .T. ) ;
#440 = DIRECTION ( 'NONE',  ( 0.000000000000000000, 0.000000000000000000, 1.000000000000000000 ) ) ;
#441 = ORIENTED_EDGE ( 'NONE', *, *, #845, .T. ) ;
#442 = CARTESIAN_POINT ( 'NONE',  ( 0.3606711447845097895, 0.8676425541927170748, -0.4221222483430069894 ) ) ;
#443 = ADVANCED_FACE ( 'NONE', ( #688 ), #794, .T. ) ;
#444 = CARTESIAN_POINT ( 'NONE',  ( -0.1131823115791838891, 0.7417029613502752472, -0.4221222483430069894 ) ) ;
#445 = CARTESIAN_POINT ( 'NONE',  ( -0.1191739492832754183, 0.4756030908696961546, -0.3693565687930990826 ) ) ;
#446 = ORIENTED_EDGE ( 'NONE', *, *, #981, .T. ) ;
#447 = ORIENTED_EDGE ( 'NONE', *, *, #916, .T. ) ;
#448 = VECTOR ( 'NONE', #288, 1000.000000000000000 ) ;
#449 = DIRECTION ( 'NONE',  ( 0.000000000000000000, 0.000000000000000000, 1.000000000000000000 ) ) ;
#450 = CC_DESIGN_APPROVAL ( #404, ( #994 ) ) ;
#451 = CARTESIAN_POINT ( 'NONE',  ( -0.1084065905183527467, 0.5032162022651467392, -0.4221222483430069894 ) ) ;
#452 = FACE_OUTER_BOUND ( 'NONE', #833, .T. ) ;
#453 = EDGE_CURVE ( 'NONE', #992, #847, #85, .T. ) ;
#454 = ORIENTED_EDGE ( 'NONE', *, *, #757, .F. ) ;
#455 = VERTEX_POINT ( 'NONE', #353 ) ;
#456 = CARTESIAN_POINT ( 'NONE',  ( -0.1976829556316817005, 0.04405226682961124046, -0.4221222483430069894 ) ) ;
#457 = DIRECTION ( 'NONE',  ( -0.4411134951954799321, -0.8974513270124609976, 0.000000000000000000 ) ) ;
#458 = CYLINDRICAL_SURFACE ( 'NONE', #1023, 0.09893564915607772070 ) ;
#459 = FACE_OUTER_BOUND ( 'NONE', #949, .T. ) ;
#460 = CARTESIAN_POINT ( 'NONE',  ( -0.1203210732397132360, 0.2821808949952130385, -0.3165908892431912314 ) ) ;
#461 = MECHANICAL_CONTEXT ( 'NONE', #1029, 'mechanical' ) ;
#462 = ORIENTED_EDGE ( 'NONE', *, *, #683, .F. ) ;
#463 = DIRECTION ( 'NONE',  ( -0.03843312050062839408, -0.9992611746928748984, 0.000000000000000000 ) ) ;
#464 = CARTESIAN_POINT ( 'NONE',  ( -0.2649573104335703477, 0.3958723116571408740, -0.2638252096932826030 ) ) ;
#465 = ORIENTED_EDGE ( 'NONE', *, *, #664, .F. ) ;
#466 = CARTESIAN_POINT ( 'NONE',  ( -0.1467665032419543103, 0.2556515627654928902, -0.3693565687930990826 ) ) ;
#467 = CARTESIAN_POINT ( 'NONE',  ( -0.08679947534244412954, 0.002983447651562405340, -0.4221222483430069894 ) ) ;
#468 = ADVANCED_FACE ( 'NONE', ( #515 ), #1040, .T. ) ;
#469 = VERTEX_POINT ( 'NONE', #855 ) ;
#470 = EDGE_LOOP ( 'NONE', ( #399, #907, #630, #792, #918, #712, #623, #961, #930, #325, #806, #577, #237, #640, #268, #294, #408, #747, #116, #315, #495 ) ) ;
#471 = VECTOR ( 'NONE', #787, 1000.000000000000000 ) ;
#472 = CARTESIAN_POINT ( 'NONE',  ( -0.2433486998500311027, 0.2925834591794066464, 0.3165972653557060923 ) ) ;
#473 = CARTESIAN_POINT ( 'NONE',  ( -0.2433528684144312670, 0.2925704633863877580, -0.2638252096932826030 ) ) ;
#474 = AXIS2_PLACEMENT_3D ( 'NONE', #873, #713, #370 ) ;
#475 = EDGE_LOOP ( 'NONE', ( #614, #232, #1001, #740, #411, #92, #215, #355, #148, #261, #915, #462, #548, #1005, #870, #389, #503, #551, #349, #306, #509 ) ) ;
#476 = CARTESIAN_POINT ( 'NONE',  ( 0.3606711447845097895, 0.8676425541927170748, 0.4221286244555227940 ) ) ;
#477 = CC_DESIGN_PERSON_AND_ORGANIZATION_ASSIGNMENT ( #289, #843, ( #849 ) ) ;
#478 = DIRECTION ( 'NONE',  ( 0.000000000000000000, 0.000000000000000000, -1.000000000000000000 ) ) ;
#479 = CARTESIAN_POINT ( 'NONE',  ( -0.1461680868335030470, 0.5150995102033414375, 0.4221286244555227940 ) ) ;
#480 = EDGE_LOOP ( 'NONE', ( #903, #982, #840, #894 ) ) ;
#481 = DIRECTION ( 'NONE',  ( -0.2181218713567150136, -0.9759215384629261747, 0.000000000000000000 ) ) ;
#482 = CARTESIAN_POINT ( 'NONE',  ( -0.1203210732397132360, 0.2821808949952130385, -0.2638252096932826030 ) ) ;
#483 = LINE ( 'NONE', #821, #990 ) ;
#484 = CARTESIAN_POINT ( 'NONE',  ( -0.1926852793130663655, 0.7944686409001840977, -0.4221222483430069894 ) ) ;
#485 = ORIENTED_EDGE ( 'NONE', *, *, #78, .T. ) ;
#486 = DIRECTION ( 'NONE',  ( -0.4411134951954799321, -0.8974513270124609976, 0.000000000000000000 ) ) ;
#487 = EDGE_CURVE ( 'NONE', #595, #296, #681, .T. ) ;
#488 = DIRECTION ( 'NONE',  ( 0.000000000000000000, 0.000000000000000000, 1.000000000000000000 ) ) ;
#489 = APPROVAL_ROLE ( '' ) ;
#490 = VERTEX_POINT ( 'NONE', #425 ) ;
#491 = CARTESIAN_POINT ( 'NONE',  ( -0.09459695094486009204, 0.2213127937994579519, -0.4221222483430069894 ) ) ;
#492 = AXIS2_PLACEMENT_3D ( 'NONE', #819, #30, #373 ) ;
#493 = AXIS2_PLACEMENT_3D ( 'NONE', #861, #178, #868 ) ;
#494 = EDGE_CURVE ( 'NONE', #266, #651, #1039, .T. ) ;
#495 = ORIENTED_EDGE ( 'NONE', *, *, #346, .F. ) ;
#496 = LINE ( 'NONE', #393, #320 ) ;
#497 = VERTEX_POINT ( 'NONE', #645 ) ;
#498 = CARTESIAN_POINT ( 'NONE',  ( -0.2649567302100787614, 0.3441082918130359269, 0.2638315858057980190 ) ) ;
#499 = CARTESIAN_POINT ( 'NONE',  ( -0.1881270708202529562, 0.4701978586330241017, -0.2638252096932826030 ) ) ;
#500 = EDGE_CURVE ( 'NONE', #392, #497, #17, .T. ) ;
#501 = ORIENTED_EDGE ( 'NONE', *, *, #800, .F. ) ;
#502 = DIRECTION ( 'NONE',  ( 0.000000000000000000, 0.000000000000000000, -1.000000000000000000 ) ) ;
#503 = ORIENTED_EDGE ( 'NONE', *, *, #673, .F. ) ;
#504 = LINE ( 'NONE', #246, #212 ) ;
#505 = ADVANCED_FACE ( 'NONE', ( #188 ), #541, .T. ) ;
#506 = APPLICATION_PROTOCOL_DEFINITION ( 'international standard', 'config_control_design', 1994, #1029 ) ;
#507 = AXIS2_PLACEMENT_3D ( 'NONE', #732, #964, #1070 ) ;
#508 = LOCAL_TIME ( 8, 10, 5.000000000000000000, #760 ) ;
#509 = ORIENTED_EDGE ( 'NONE', *, *, #1082, .F. ) ;
#510 = CARTESIAN_POINT ( 'NONE',  ( -0.1203028642870437176, 0.2821903504183762568, 0.3165972653557060923 ) ) ;
#511 = LINE ( 'NONE', #1025, #615 ) ;
#512 = CARTESIAN_POINT ( 'NONE',  ( -0.09922426112489390881, 0.2411124479554894173, -0.4221222483430069894 ) ) ;
#513 = ORIENTED_EDGE ( 'NONE', *, *, #236, .F. ) ;
#514 = ORIENTED_EDGE ( 'NONE', *, *, #332, .T. ) ;
#515 = FACE_OUTER_BOUND ( 'NONE', #470, .T. ) ;
#516 = DIRECTION ( 'NONE',  ( 0.000000000000000000, 0.000000000000000000, 1.000000000000000000 ) ) ;
#517 = EDGE_CURVE ( 'NONE', #1038, #395, #50, .T. ) ;
#518 = DIRECTION ( 'NONE',  ( 1.000000000000000000, 0.000000000000000000, 0.000000000000000000 ) ) ;
#519 = CARTESIAN_POINT ( 'NONE',  ( -0.1116923597512350791, 0.2677129162570636711, 0.3693629449056139435 ) ) ;
#520 = DIRECTION ( 'NONE',  ( 0.6489212866154208115, 0.7608555472475619919, 0.000000000000000000 ) ) ;
#521 = CARTESIAN_POINT ( 'NONE',  ( -0.2956756056418411438, 0.8174873384338534610, -0.4221222483430069894 ) ) ;
#522 = ORIENTED_EDGE ( 'NONE', *, *, #616, .F. ) ;
#523 = AXIS2_PLACEMENT_3D ( 'NONE', #1114, #249, #1110 ) ;
#524 = ADVANCED_FACE ( 'NONE', ( #154 ), #762, .F. ) ;
#525 = AXIS2_PLACEMENT_3D ( 'NONE', #60, #502, #66 ) ;
#526 = CARTESIAN_POINT ( 'NONE',  ( -0.1537905615325275144, 0.2717980588158200317, 0.2638315858057980190 ) ) ;
#527 = AXIS2_PLACEMENT_3D ( 'NONE', #223, #662, #56 ) ;
#528 = CIRCLE ( 'NONE', #780, 0.1055313590998161744 ) ;
#529 = CARTESIAN_POINT ( 'NONE',  ( -0.1581168961123609606, 0.5214903275929634319, 0.4221286244555227940 ) ) ;
#530 = CARTESIAN_POINT ( 'NONE',  ( 0.3606711447845097895, 0.8676425541927170748, -0.4221222483430069894 ) ) ;
#531 = LINE ( 'NONE', #703, #2 ) ;
#532 = ORIENTED_EDGE ( 'NONE', *, *, #813, .T. ) ;
#533 = EDGE_CURVE ( 'NONE', #665, #455, #776, .T. ) ;
#534 = B_SPLINE_CURVE_WITH_KNOTS ( 'NONE', 3,
 ( #1044, #279, #1033, #966, #263, #526 ),
 .UNSPECIFIED., .F., .F.,
 ( 4, 2, 4 ),
 ( 0.000000000000000000, 0.5000000000000002220, 1.000000000000000000 ),
 .UNSPECIFIED. ) ;
#535 = CYLINDRICAL_SURFACE ( 'NONE', #474, 0.1055313590998161744 ) ;
#536 = CARTESIAN_POINT ( 'NONE',  ( 0.002068462572333065567, 2.105278849945180058E-15, 0.4221286244555227940 ) ) ;
#537 = CARTESIAN_POINT ( 'NONE',  ( -0.1428120539546172130, 0.2248728534737290119, 0.4221286244555227940 ) ) ;
#538 = EDGE_LOOP ( 'NONE', ( #388, #898, #115, #581 ) ) ;
#539 = EDGE_CURVE ( 'NONE', #711, #362, #823, .T. ) ;
#540 = CARTESIAN_POINT ( 'NONE',  ( -0.1659059686301680714, 0.3699890949891527225, -0.4221222483430069894 ) ) ;
#541 = PLANE ( 'NONE',  #3 ) ;
#542 = CARTESIAN_POINT ( 'NONE',  ( -0.1336384032519776222, 0.4814289475910998872, -0.3693565687930990826 ) ) ;
#543 = DIRECTION ( 'NONE',  ( 0.9992611746928748984, -0.03843312050062839408, 0.000000000000000000 ) ) ;
#544 = CIRCLE ( 'NONE', #525, 0.1055313590998161744 ) ;
#545 = ORGANIZATION ( '未', '未', '' ) ;
#546 = CARTESIAN_POINT ( 'NONE',  ( 0.2846287476174608755, 0.7944686409001840977, -0.4221222483430069894 ) ) ;
#547 = CARTESIAN_POINT ( 'NONE',  ( -0.1659059686301680714, 0.3699890949891527225, -0.4221222483430069894 ) ) ;
#548 = ORIENTED_EDGE ( 'NONE', *, *, #888, .T. ) ;
#549 = PLANE ( 'NONE',  #811 ) ;
#550 = CARTESIAN_POINT ( 'NONE',  ( -0.2804017089129380302, 0.3386194859328515161, -0.3693565687930990826 ) ) ;
#551 = ORIENTED_EDGE ( 'NONE', *, *, #602, .F. ) ;
#552 = CARTESIAN_POINT ( 'NONE',  ( -0.3434604793789589050, 0.2330061976553982339, 0.4221286244555227940 ) ) ;
#553 = ADVANCED_FACE ( 'NONE', ( #400 ), #582, .T. ) ;
#554 = PERSON_AND_ORGANIZATION ( #809, #545 ) ;
#555 = CYLINDRICAL_SURFACE ( 'NONE', #229, 0.1055313590998161466 ) ;
#556 = ORIENTED_EDGE ( 'NONE', *, *, #317, .T. ) ;
#557 = CARTESIAN_POINT ( 'NONE',  ( -0.1918089748750294310, 0.4689605137354360687, 0.2638315858057980190 ) ) ;
#558 = CARTESIAN_POINT ( 'NONE',  ( -0.1501152199393148423, 0.2710453368338531788, -0.3165908892431912314 ) ) ;
#559 = CARTESIAN_POINT ( 'NONE',  ( -0.1473290110804530428, 0.2194295061900408406, -0.4221222483430069894 ) ) ;
#560 = CARTESIAN_POINT ( 'NONE',  ( -0.1427462038835830282, 0.2248715830280471062, -0.4221222483430069894 ) ) ;
#561 = FACE_OUTER_BOUND ( 'NONE', #74, .T. ) ;
#562 = CC_DESIGN_PERSON_AND_ORGANIZATION_ASSIGNMENT ( #554, #414, ( #748 ) ) ;
#563 = ADVANCED_FACE ( 'NONE', ( #216 ), #140, .T. ) ;
#564 = VERTEX_POINT ( 'NONE', #149 ) ;
#565 = CARTESIAN_POINT ( 'NONE',  ( -0.1455528549364241420, 0.4702162876068805009, 0.3061357168789929362 ) ) ;
#566 = CARTESIAN_POINT ( 'NONE',  ( -0.1141278917498974449, 0.1085148067513785897, 0.4221286244555227940 ) ) ;
#567 = FACE_OUTER_BOUND ( 'NONE', #364, .T. ) ;
#568 = VERTEX_POINT ( 'NONE', #737 ) ;
#569 = CARTESIAN_POINT ( 'NONE',  ( -0.2547949184200639094, 0.4213148072890989249, 0.2638315858057981300 ) ) ;
#570 = CARTESIAN_POINT ( 'NONE',  ( -0.3434604793789589050, 0.2330061976553982339, -0.4221222483430069894 ) ) ;
#571 = EDGE_CURVE ( 'NONE', #568, #273, #496, .T. ) ;
#572 = CARTESIAN_POINT ( 'NONE',  ( -0.1565315705747130359, 0.4685734517657051956, 0.2758959198772586441 ) ) ;
#573 = VERTEX_POINT ( 'NONE', #491 ) ;
#574 = B_SPLINE_CURVE_WITH_KNOTS ( 'NONE', 3,
 ( #352, #192, #611, #701 ),
 .UNSPECIFIED., .F., .F.,
 ( 4, 4 ),
 ( 9.100947121901048479E-13, 5.191018457814310999E-05 ),
 .UNSPECIFIED. ) ;
#575 = CARTESIAN_POINT ( 'NONE',  ( -0.1343365326986349084, 0.2749048859968712399, -0.3165908892431912314 ) ) ;
#576 = DIRECTION ( 'NONE',  ( -0.03569152573190279704, 0.9993628545182819956, 0.000000000000000000 ) ) ;
#577 = ORIENTED_EDGE ( 'NONE', *, *, #916, .F. ) ;
#578 = DIRECTION ( 'NONE',  ( -0.03843312050062789448, -0.9992611746928748984, 0.000000000000000000 ) ) ;
#579 = CARTESIAN_POINT ( 'NONE',  ( -0.2804000134592924409, 0.4013518726601729147, 0.3693629449056139435 ) ) ;
#580 = CARTESIAN_POINT ( 'NONE',  ( -0.2657543299108433010, 0.3937772946507326899, -0.2638252096932826030 ) ) ;
#581 = ORIENTED_EDGE ( 'NONE', *, *, #419, .T. ) ;
#582 = PLANE ( 'NONE',  #766 ) ;
#583 = CARTESIAN_POINT ( 'NONE',  ( -0.1389953065190439041, 0.4661410992962066180, 0.3165972653557060923 ) ) ;
#584 = VECTOR ( 'NONE', #20, 1000.000000000000000 ) ;
#585 = PERSON_AND_ORGANIZATION_ROLE ( 'design_owner' ) ;
#586 = EDGE_LOOP ( 'NONE', ( #1090, #1092, #234, #304 ) ) ;
#587 = LINE ( 'NONE', #410, #778 ) ;
#588 = ORIENTED_EDGE ( 'NONE', *, *, #589, .F. ) ;
#589 = EDGE_CURVE ( 'NONE', #1102, #250, #587, .T. ) ;
#590 = VERTEX_POINT ( 'NONE', #837 ) ;
#591 = CARTESIAN_POINT ( 'NONE',  ( 0.002068462572333065567, 2.105278849945180058E-15, -0.4221222483430069894 ) ) ;
#592 = CARTESIAN_POINT ( 'NONE',  ( -0.09902141559358502987, 0.2412176029520132770, 0.4221286244555227940 ) ) ;
#593 = DIRECTION ( 'NONE',  ( 0.7205668326049389227, 0.6933854914473519537, 0.000000000000000000 ) ) ;
#594 = APPLICATION_PROTOCOL_DEFINITION ( 'international standard', 'config_control_design', 1994, #1093 ) ;
#595 = VERTEX_POINT ( 'NONE', #908 ) ;
#596 = CARTESIAN_POINT ( 'NONE',  ( -0.2647785813844051317, 0.3664579307214960724, -0.4221222483430069894 ) ) ;
#597 = CIRCLE ( 'NONE', #100, 0.05276567954990819126 ) ;
#598 = DIRECTION ( 'NONE',  ( 0.6489212866154208115, 0.7608555472475619919, 0.000000000000000000 ) ) ;
#599 = CARTESIAN_POINT ( 'NONE',  ( -0.1131823115791838891, 0.7417029613502752472, -0.4221222483430069894 ) ) ;
#600 = VECTOR ( 'NONE', #463, 1000.000000000000114 ) ;
#601 = LOCAL_TIME ( 8, 10, 5.000000000000000000, #1015 ) ;
#602 = EDGE_CURVE ( 'NONE', #379, #309, #745, .T. ) ;
#603 = DIRECTION ( 'NONE',  ( 0.000000000000000000, 0.000000000000000000, 1.000000000000000000 ) ) ;
#604 = CARTESIAN_POINT ( 'NONE',  ( -0.1537905615325275144, 0.2717980588158200317, 0.2638315858057980190 ) ) ;
#605 = ORIENTED_EDGE ( 'NONE', *, *, #1056, .T. ) ;
#606 = CALENDAR_DATE ( 2026, 29, 6 ) ;
#607 = CARTESIAN_POINT ( 'NONE',  ( -0.1427358888129534875, 0.2248729070638175453, 0.4221286244555227940 ) ) ;
#608 = CARTESIAN_POINT ( 'NONE',  ( -0.1141278917498974449, 0.002983447651562405340, 0.4221286244555227940 ) ) ;
#609 = CYLINDRICAL_SURFACE ( 'NONE', #917, 0.05276567954990810105 ) ;
#610 = ORIENTED_EDGE ( 'NONE', *, *, #656, .T. ) ;
#611 = CARTESIAN_POINT ( 'NONE',  ( -0.1160096797283163977, 0.4889021245954950912, 0.3913953088247110190 ) ) ;
#612 = CARTESIAN_POINT ( 'NONE',  ( -0.1053848359767678711, 0.5233736152023803490, -0.4221222483430069894 ) ) ;
#613 = CARTESIAN_POINT ( 'NONE',  ( -0.1197362813366665557, 0.2304999760850812152, -0.4221222483430068229 ) ) ;
#614 = ORIENTED_EDGE ( 'NONE', *, *, #71, .T. ) ;
#615 = VECTOR ( 'NONE', #603, 1000.000000000000000 ) ;
#616 = EDGE_CURVE ( 'NONE', #928, #573, #130, .T. ) ;
#617 = VECTOR ( 'NONE', #159, 1000.000000000000000 ) ;
#618 = DIRECTION ( 'NONE',  ( 0.000000000000000000, 0.000000000000000000, 1.000000000000000000 ) ) ;
#619 = LINE ( 'NONE', #960, #428 ) ;
#620 = ORIENTED_EDGE ( 'NONE', *, *, #589, .T. ) ;
#621 = CARTESIAN_POINT ( 'NONE',  ( -0.1537905615325275144, 0.2717980588158200317, -0.2638252096932826030 ) ) ;
#622 = CARTESIAN_POINT ( 'NONE',  ( -0.1524701739926017097, 0.4689286125912124903, -0.2638252096932826030 ) ) ;
#623 = ORIENTED_EDGE ( 'NONE', *, *, #864, .T. ) ;
#624 = CARTESIAN_POINT ( 'NONE',  ( -0.1211027745476255107, 0.4838986341107449629, 0.3756335438271985461 ) ) ;
#625 = CARTESIAN_POINT ( 'NONE',  ( -0.09922426130324527027, 0.2411124483002233254, 0.4221286244555227940 ) ) ;
#626 = CARTESIAN_POINT ( 'NONE',  ( -0.2575104840469939482, 0.4615498805347618694, -0.3693565687930990826 ) ) ;
#627 = DIRECTION ( 'NONE',  ( 0.000000000000000000, 0.000000000000000000, -1.000000000000000000 ) ) ;
#628 = VECTOR ( 'NONE', #136, 1000.000000000000000 ) ;
#629 = AXIS2_PLACEMENT_3D ( 'NONE', #816, #406, #756 ) ;
#630 = ORIENTED_EDGE ( 'NONE', *, *, #664, .T. ) ;
#631 = LOCAL_TIME ( 8, 10, 5.000000000000000000, #181 ) ;
#632 = CARTESIAN_POINT ( 'NONE',  ( -0.1027062406373616121, 0.2488374030719231744, -0.4069154264428898049 ) ) ;
#633 = ADVANCED_FACE ( 'NONE', ( #59 ), #305, .T. ) ;
#634 = CARTESIAN_POINT ( 'NONE',  ( -0.2433527369412162578, 0.4474060474789169350, -0.2638252096932826030 ) ) ;
#635 = DIRECTION ( 'NONE',  ( 0.000000000000000000, 0.000000000000000000, 1.000000000000000000 ) ) ;
#636 = DIRECTION ( 'NONE',  ( 0.000000000000000000, 0.000000000000000000, -1.000000000000000000 ) ) ;
#637 = DATE_TIME_ROLE ( 'classification_date' ) ;
#638 = VERTEX_POINT ( 'NONE', #63 ) ;
#639 = CARTESIAN_POINT ( 'NONE',  ( -0.1608261387272501008, 0.4687942466872906944, -0.2638252096932826030 ) ) ;
#640 = ORIENTED_EDGE ( 'NONE', *, *, #757, .T. ) ;
#641 = CARTESIAN_POINT ( 'NONE',  ( -0.1881270789353734485, 0.4701978590502434718, 0.2638315858057981855 ) ) ;
#642 = B_SPLINE_CURVE_WITH_KNOTS ( 'NONE', 3,
 ( #624, #291, #141, #731, #914, #565, #984, #217, #572, #57 ),
 .UNSPECIFIED., .F., .F.,
 ( 4, 2, 2, 2, 4 ),
 ( 0.000000000000000000, 0.4999999999999993339, 0.6249999999999994449, 0.7499999999999996669, 1.000000000000000000 ),
 .UNSPECIFIED. ) ;
#643 = VERTEX_POINT ( 'NONE', #669 ) ;
#644 = CARTESIAN_POINT ( 'NONE',  ( -0.2038989852089589105, 0.2248298724724084041, 0.4221286244555227940 ) ) ;
#645 = CARTESIAN_POINT ( 'NONE',  ( -0.1606791984151466623, 0.01380554848582001524, 0.4221286244555227940 ) ) ;
#646 = CARTESIAN_POINT ( 'NONE',  ( -0.1267018471902945365, 0.4608257590409668980, -0.2638252096932826030 ) ) ;
#647 = PLANE ( 'NONE',  #1058 ) ;
#648 = DIRECTION ( 'NONE',  ( 1.000000000000000000, 0.000000000000000000, 0.000000000000000000 ) ) ;
#649 = EDGE_CURVE ( 'NONE', #720, #362, #1098, .T. ) ;
#650 = CLOSED_SHELL ( 'NONE', ( #871, #835, #272, #941, #1064, #858, #341, #1073, #468, #298, #524, #505, #553, #563, #443, #38, #735, #206, #999, #64, #7, #1050, #262, #763, #633, #46, #13, #162 ) ) ;
#651 = VERTEX_POINT ( 'NONE', #993 ) ;
#652 = CARTESIAN_POINT ( 'NONE',  ( 0.2846287476174608755, 0.8999999999999998002, 0.4221286244555227940 ) ) ;
#653 = AXIS2_PLACEMENT_3D ( 'NONE', #566, #714, #457 ) ;
#654 = CARTESIAN_POINT ( 'NONE',  ( -0.2575042493091123097, 0.4615306601635384420, 0.3693629449056139435 ) ) ;
#655 = CARTESIAN_POINT ( 'NONE',  ( -0.3847604120789345772, 0.4189038272481301894, -0.4221222483430069894 ) ) ;
#656 = EDGE_CURVE ( 'NONE', #765, #595, #676, .T. ) ;
#657 = ORIENTED_EDGE ( 'NONE', *, *, #1089, .T. ) ;
#658 = CARTESIAN_POINT ( 'NONE',  ( -0.08679947534244412954, 0.002983447651562405340, 0.4221286244555227940 ) ) ;
#659 = CARTESIAN_POINT ( 'NONE',  ( -0.2794883274151568342, 0.4835147382695834106, 0.4221286244555227940 ) ) ;
#660 = ORIENTED_EDGE ( 'NONE', *, *, #571, .F. ) ;
#661 = EDGE_LOOP ( 'NONE', ( #895, #139, #165, #24, #937, #299 ) ) ;
#662 = DIRECTION ( 'NONE',  ( 0.000000000000000000, -1.000000000000000000, 0.000000000000000000 ) ) ;
#663 = CARTESIAN_POINT ( 'NONE',  ( -0.3111804189473704740, 0.3320305836641828101, 0.4221286244555227940 ) ) ;
#664 = EDGE_CURVE ( 'NONE', #1049, #16, #387, .T. ) ;
#665 = VERTEX_POINT ( 'NONE', #300 ) ;
#666 = PERSON_AND_ORGANIZATION ( #809, #545 ) ;
#667 = B_SPLINE_CURVE_WITH_KNOTS ( 'NONE', 3,
 ( #308, #580, #1095, #326, #499, #330 ),
 .UNSPECIFIED., .F., .F.,
 ( 4, 2, 4 ),
 ( 0.000000000000000000, 0.5000000000000000000, 1.000000000000000000 ),
 .UNSPECIFIED. ) ;
#668 = VERTEX_POINT ( 'NONE', #652 ) ;
#669 = CARTESIAN_POINT ( 'NONE',  ( -0.1085878973874356973, 0.5032943053993645943, -0.4221222486978304933 ) ) ;
#670 = CIRCLE ( 'NONE', #687, 0.1055313590998161744 ) ;
#671 = CARTESIAN_POINT ( 'NONE',  ( -0.3111812699418242123, 0.4079511461022011232, -0.4221222483430068229 ) ) ;
#672 = VECTOR ( 'NONE', #478, 1000.000000000000000 ) ;
#673 = EDGE_CURVE ( 'NONE', #309, #711, #219, .T. ) ;
#674 = AXIS2_PLACEMENT_3D ( 'NONE', #546, #721, #95 ) ;
#675 = APPROVAL_ROLE ( '' ) ;
#676 = LINE ( 'NONE', #1017, #101 ) ;
#677 = ORIENTED_EDGE ( 'NONE', *, *, #805, .T. ) ;
#678 = EDGE_CURVE ( 'NONE', #755, #87, #82, .T. ) ;
#679 = DATE_AND_TIME ( #328, #416 ) ;
#680 = DIRECTION ( 'NONE',  ( 0.000000000000000000, 0.000000000000000000, 1.000000000000000000 ) ) ;
#681 = B_SPLINE_CURVE_WITH_KNOTS ( 'NONE', 3,
 ( #360, #371, #276, #625 ),
 .UNSPECIFIED., .F., .F.,
 ( 4, 4 ),
 ( 1.761828530288944946E-19, 5.221469108344243746E-05 ),
 .UNSPECIFIED. ) ;
#682 = B_SPLINE_CURVE_WITH_KNOTS ( 'NONE', 3,
 ( #723, #974, #199, #892, #120, #671, #77, #693, #260, #179, #613, #512 ),
 .UNSPECIFIED., .F., .F.,
 ( 4, 2, 1, 2, 1, 2, 4 ),
 ( 2.090030840917723095E-13, 5.863302316541855720E-05, 0.0001720355453818117489, 0.0002854380675982049202, 0.0003988405898145981187, 0.0005122431120309912629, 0.0005811852215313264994 ),
 .UNSPECIFIED. ) ;
#683 = EDGE_CURVE ( 'NONE', #590, #665, #919, .T. ) ;
#684 = ORIENTED_EDGE ( 'NONE', *, *, #845, .F. ) ;
#685 = DIRECTION ( 'NONE',  ( 1.000000000000000000, 0.000000000000000000, 0.000000000000000000 ) ) ;
#686 = CARTESIAN_POINT ( 'NONE',  ( -0.1467579293291839948, 0.2556528868012643563, 0.3693629449056139435 ) ) ;
#687 = AXIS2_PLACEMENT_3D ( 'NONE', #767, #1108, #593 ) ;
#688 = FACE_OUTER_BOUND ( 'NONE', #926, .T. ) ;
#689 = CARTESIAN_POINT ( 'NONE',  ( -0.1085878983869376785, 0.5032943029684194824, 0.4221286252476306178 ) ) ;
#690 = ORIENTED_EDGE ( 'NONE', *, *, #878, .F. ) ;
#691 = CIRCLE ( 'NONE', #707, 0.1055313590998161466 ) ;
#692 = LINE ( 'NONE', #850, #970 ) ;
#693 = CARTESIAN_POINT ( 'NONE',  ( -0.2794947549804215337, 0.2564417686384317108, -0.4221222483430068229 ) ) ;
#694 = ORIENTED_EDGE ( 'NONE', *, *, #346, .T. ) ;
#695 = SHAPE_DEFINITION_REPRESENTATION ( #1054, #275 ) ;
#696 = DIRECTION ( 'NONE',  ( 0.000000000000000000, 0.000000000000000000, 1.000000000000000000 ) ) ;
#697 = ORIENTED_EDGE ( 'NONE', *, *, #782, .F. ) ;
#698 = CARTESIAN_POINT ( 'NONE',  ( -0.1085878973874356973, 0.5032943053993645943, -0.4221222486978304933 ) ) ;
#699 = ORIENTED_EDGE ( 'NONE', *, *, #214, .F. ) ;
#700 = CARTESIAN_POINT ( 'NONE',  ( -0.1659059686301680714, 0.3699890949891527225, 0.4221286244555227940 ) ) ;
#701 = CARTESIAN_POINT ( 'NONE',  ( -0.1211027745476255107, 0.4838986341107449629, 0.3756335438271985461 ) ) ;
#702 = DIRECTION ( 'NONE',  ( 0.000000000000000000, 0.000000000000000000, 1.000000000000000000 ) ) ;
#703 = CARTESIAN_POINT ( 'NONE',  ( -0.3848226123876225535, 0.3213534955257541514, -0.4221222483430069894 ) ) ;
#704 = ORIENTED_EDGE ( 'NONE', *, *, #673, .T. ) ;
#705 = EDGE_CURVE ( 'NONE', #668, #302, #781, .T. ) ;
#706 = VECTOR ( 'NONE', #11, 1000.000000000000000 ) ;
#707 = AXIS2_PLACEMENT_3D ( 'NONE', #258, #952, #177 ) ;
#708 = CARTESIAN_POINT ( 'NONE',  ( -0.3847604120789345772, 0.4189038272481301894, 0.4221286244555227940 ) ) ;
#709 = CARTESIAN_POINT ( 'NONE',  ( -0.1141278917498974449, 0.1085148067513785897, 0.4221286244555227940 ) ) ;
#710 = CARTESIAN_POINT ( 'NONE',  ( 0.3900821374784798068, 0.7904127414593049572, -0.4221222483430069894 ) ) ;
#711 = VERTEX_POINT ( 'NONE', #158 ) ;
#712 = ORIENTED_EDGE ( 'NONE', *, *, #649, .T. ) ;
#713 = DIRECTION ( 'NONE',  ( 0.000000000000000000, 0.000000000000000000, 1.000000000000000000 ) ) ;
#714 = DIRECTION ( 'NONE',  ( 0.000000000000000000, 0.000000000000000000, -1.000000000000000000 ) ) ;
#715 = CARTESIAN_POINT ( 'NONE',  ( -0.1390386312590048690, 0.4661501815729447995, -0.3165908892431912314 ) ) ;
#716 = DIRECTION ( 'NONE',  ( 0.6489212866154208115, 0.7608555472475619919, 0.000000000000000000 ) ) ;
#717 = B_SPLINE_CURVE_WITH_KNOTS ( 'NONE', 3,
 ( #285, #632, #885, #34 ),
 .UNSPECIFIED., .F., .F.,
 ( 4, 4 ),
 ( 6.144200299018784043E-13, 5.222469798609384958E-05 ),
 .UNSPECIFIED. ) ;
#718 = CARTESIAN_POINT ( 'NONE',  ( -0.1130892710236167248, 0.2595775075802729259, -0.3752797557963230002 ) ) ;
#719 = EDGE_CURVE ( 'NONE', #16, #142, #504, .T. ) ;
#720 = VERTEX_POINT ( 'NONE', #242 ) ;
#721 = DIRECTION ( 'NONE',  ( 0.000000000000000000, 0.000000000000000000, 1.000000000000000000 ) ) ;
#722 = CARTESIAN_POINT ( 'NONE',  ( -0.2649575959166790007, 0.3441047559253190280, -0.2638252096932826030 ) ) ;
#723 = CARTESIAN_POINT ( 'NONE',  ( -0.1085878973874356973, 0.5032943053993645943, -0.4221222486978304933 ) ) ;
#724 = FACE_OUTER_BOUND ( 'NONE', #872, .T. ) ;
#725 = CIRCLE ( 'NONE', #127, 0.2242541380871091172 ) ;
#726 = ORIENTED_EDGE ( 'NONE', *, *, #241, .F. ) ;
#727 = FACE_OUTER_BOUND ( 'NONE', #135, .T. ) ;
#728 = CARTESIAN_POINT ( 'NONE',  ( -0.2039005497102706066, 0.2248224333232092809, -0.4221222483430069894 ) ) ;
#729 = CARTESIAN_POINT ( 'NONE',  ( -0.2638028205751282163, 0.3391382228807795496, -0.2638252096932825475 ) ) ;
#730 = CARTESIAN_POINT ( 'NONE',  ( -0.2772337376820698251, 0.8999999999999998002, -0.4221222483430069894 ) ) ;
#731 = CARTESIAN_POINT ( 'NONE',  ( -0.1413716600242469479, 0.4714152182848663220, 0.3176511879899236446 ) ) ;
#732 = CARTESIAN_POINT ( 'NONE',  ( -0.1141278917498974449, 0.1085148067513785897, -0.4221222483430069894 ) ) ;
#733 = LINE ( 'NONE', #41, #584 ) ;
#734 = CARTESIAN_POINT ( 'NONE',  ( -0.1809217385555910718, 0.2684504492224919492, -0.2638252096932827140 ) ) ;
#735 = ADVANCED_FACE ( 'NONE', ( #939 ), #931, .T. ) ;
#736 = CARTESIAN_POINT ( 'NONE',  ( -0.1581168961123609606, 0.5214903275929634319, -0.4221222483430069894 ) ) ;
#737 = CARTESIAN_POINT ( 'NONE',  ( 0.3900821374784798068, 0.7904127414593049572, 0.4221286244555227940 ) ) ;
#738 = CARTESIAN_POINT ( 'NONE',  ( -0.1266421204271427903, 0.4607999583163135959, 0.2638315858057980190 ) ) ;
#739 = B_SPLINE_CURVE_WITH_KNOTS ( 'NONE', 3,
 ( #190, #734, #106, #1072, #729, #27 ),
 .UNSPECIFIED., .F., .F.,
 ( 4, 2, 4 ),
 ( 0.000000000000000000, 0.5000000000000002220, 1.000000000000000000 ),
 .UNSPECIFIED. ) ;
#740 = ORIENTED_EDGE ( 'NONE', *, *, #152, .T. ) ;
#741 = LINE ( 'NONE', #112, #207 ) ;
#742 = DIRECTION ( 'NONE',  ( 0.6489212866154208115, 0.7608555472475619919, 0.000000000000000000 ) ) ;
#743 = AXIS2_PLACEMENT_3D ( 'NONE', #171, #80, #680 ) ;
#744 = ORIENTED_EDGE ( 'NONE', *, *, #383, .T. ) ;
#745 = LINE ( 'NONE', #1085, #934 ) ;
#746 = CARTESIAN_POINT ( 'NONE',  ( -0.1389953065190439041, 0.4661410992962066180, 0.2638315858057980190 ) ) ;
#747 = ORIENTED_EDGE ( 'NONE', *, *, #500, .F. ) ;
#748 = SECURITY_CLASSIFICATION ( '', '', #1062 ) ;
#749 = DIRECTION ( 'NONE',  ( 0.6108377687128546674, -0.7917557832525765615, 0.000000000000000000 ) ) ;
#750 = EDGE_LOOP ( 'NONE', ( #779, #921, #21, #759 ) ) ;
#751 = DIRECTION ( 'NONE',  ( 0.000000000000000000, 0.000000000000000000, -1.000000000000000000 ) ) ;
#752 = CARTESIAN_POINT ( 'NONE',  ( -0.2649564399255568969, 0.3958687762902944329, 0.2638315858057980190 ) ) ;
#753 = VERTEX_POINT ( 'NONE', #853 ) ;
#754 = PERSON_AND_ORGANIZATION ( #809, #545 ) ;
#755 = VERTEX_POINT ( 'NONE', #79 ) ;
#756 = DIRECTION ( 'NONE',  ( 0.7205668326049389227, 0.6933854914473519537, 0.000000000000000000 ) ) ;
#757 = EDGE_CURVE ( 'NONE', #1027, #427, #1042, .T. ) ;
#758 = LINE ( 'NONE', #65, #129 ) ;
#759 = ORIENTED_EDGE ( 'NONE', *, *, #929, .T. ) ;
#760 = COORDINATED_UNIVERSAL_TIME_OFFSET ( 8, 0, .AHEAD. ) ;
#761 = ORIENTED_EDGE ( 'NONE', *, *, #453, .F. ) ;
#762 = PLANE ( 'NONE',  #144 ) ;
#763 = ADVANCED_FACE ( 'NONE', ( #859 ), #555, .T. ) ;
#764 = CIRCLE ( 'NONE', #900, 0.1055313590998161466 ) ;
#765 = VERTEX_POINT ( 'NONE', #718 ) ;
#766 = AXIS2_PLACEMENT_3D ( 'NONE', #841, #310, #316 ) ;
#767 = CARTESIAN_POINT ( 'NONE',  ( 0.2846287476174608755, 0.7944686409001840977, 0.4221286244555227940 ) ) ;
#768 = VECTOR ( 'NONE', #128, 1000.000000000000000 ) ;
#769 = COORDINATED_UNIVERSAL_TIME_OFFSET ( 8, 0, .AHEAD. ) ;
#770 = ORIENTED_EDGE ( 'NONE', *, *, #517, .F. ) ;
#771 = CARTESIAN_POINT ( 'NONE',  ( -0.1462657017084909583, 0.5150995908019373459, 0.4221286244555228495 ) ) ;
#772 = EDGE_CURVE ( 'NONE', #240, #202, #534, .T. ) ;
#773 = LINE ( 'NONE', #1041, #844 ) ;
#774 = EDGE_LOOP ( 'NONE', ( #704, #209, #278, #690 ) ) ;
#775 = CARTESIAN_POINT ( 'NONE',  ( -0.1280377674036456692, 0.2596810264828433024, 0.3693629449056139435 ) ) ;
#776 = CIRCLE ( 'NONE', #415, 0.1055313590998161744 ) ;
#777 = DIRECTION ( 'NONE',  ( 0.000000000000000000, 0.000000000000000000, 1.000000000000000000 ) ) ;
#778 = VECTOR ( 'NONE', #925, 1000.000000000000000 ) ;
#779 = ORIENTED_EDGE ( 'NONE', *, *, #494, .T. ) ;
#780 = AXIS2_PLACEMENT_3D ( 'NONE', #183, #18, #867 ) ;
#781 = LINE ( 'NONE', #333, #339 ) ;
#782 = EDGE_CURVE ( 'NONE', #651, #497, #435, .T. ) ;
#783 = CYLINDRICAL_SURFACE ( 'NONE', #951, 0.2242541380871094781 ) ;
#784 = CARTESIAN_POINT ( 'NONE',  ( -0.1211027745476255107, 0.4838986341107449629, 0.3756335438271985461 ) ) ;
#785 = ORIENTED_EDGE ( 'NONE', *, *, #1014, .F. ) ;
#786 = CARTESIAN_POINT ( 'NONE',  ( -0.1606791984151466623, 0.01380554848582004300, -0.4221222483430069894 ) ) ;
#787 = DIRECTION ( 'NONE',  ( 0.000000000000000000, 0.000000000000000000, 1.000000000000000000 ) ) ;
#788 = EDGE_CURVE ( 'NONE', #427, #395, #725, .T. ) ;
#789 = CARTESIAN_POINT ( 'NONE',  ( -0.1211057070566491367, 0.4838924246313409672, -0.3755897451947419752 ) ) ;
#790 = DIRECTION ( 'NONE',  ( 0.000000000000000000, 0.000000000000000000, 1.000000000000000000 ) ) ;
#791 = CARTESIAN_POINT ( 'NONE',  ( -0.2794883274151568342, 0.4835147382695834106, 0.4221286244555227940 ) ) ;
#792 = ORIENTED_EDGE ( 'NONE', *, *, #719, .T. ) ;
#793 = CARTESIAN_POINT ( 'NONE',  ( 0.3311501146799255002, -0.7418199152084631320, -0.4221222483430069894 ) ) ;
#794 = PLANE ( 'NONE',  #493 ) ;
#795 = CARTESIAN_POINT ( 'NONE',  ( -0.2038985218763876839, 0.5151540669360641367, -0.4221222483430069894 ) ) ;
#796 = AXIS2_PLACEMENT_3D ( 'NONE', #736, #51, #998 ) ;
#797 = FACE_OUTER_BOUND ( 'NONE', #1078, .T. ) ;
#798 = DIRECTION ( 'NONE',  ( -0.6252512009757700273, 0.7804235617139947401, 0.000000000000000000 ) ) ;
#799 = CARTESIAN_POINT ( 'NONE',  ( -0.3434604793789589050, 0.2330061976553982339, -0.4221222483430069894 ) ) ;
#800 = EDGE_CURVE ( 'NONE', #395, #62, #267, .T. ) ;
#801 = DIRECTION ( 'NONE',  ( 0.000000000000000000, 0.000000000000000000, 1.000000000000000000 ) ) ;
#802 = CARTESIAN_POINT ( 'NONE',  ( -0.3111812699418242123, 0.4079511461022011232, -0.4221222483430069894 ) ) ;
#803 = EDGE_LOOP ( 'NONE', ( #761, #446, #441, #280 ) ) ;
#804 = CARTESIAN_POINT ( 'NONE',  ( -0.09904812205750052057, 0.2412037349980419021, -0.4221222483430069894 ) ) ;
#805 = EDGE_CURVE ( 'NONE', #334, #423, #483, .T. ) ;
#806 = ORIENTED_EDGE ( 'NONE', *, *, #317, .F. ) ;
#807 = CARTESIAN_POINT ( 'NONE',  ( -0.1608261387272501008, 0.4687942466872906944, -0.2638252096932826030 ) ) ;
#808 = CARTESIAN_POINT ( 'NONE',  ( -0.3111816886503839252, 0.3320253976955309660, -0.4221222483430069894 ) ) ;
#809 = PERSON ( '未', '未', '未', ('未'), ('未'), ('未') ) ;
#810 = CARTESIAN_POINT ( 'NONE',  ( 0.3311501146799255002, -0.7418199152084631320, 0.4221286244555227940 ) ) ;
#811 = AXIS2_PLACEMENT_3D ( 'NONE', #1057, #877, #274 ) ;
#812 = ORIENTED_EDGE ( 'NONE', *, *, #281, .F. ) ;
#813 = EDGE_CURVE ( 'NONE', #863, #1027, #374, .T. ) ;
#814 = CARTESIAN_POINT ( 'NONE',  ( -0.1918113648211468292, 0.2710118256714638130, -0.2638252096932826030 ) ) ;
#815 = CYLINDRICAL_SURFACE ( 'NONE', #796, 0.05276567954990810105 ) ;
#816 = CARTESIAN_POINT ( 'NONE',  ( 0.2846287476174608755, 0.7944686409001840977, -0.4221222483430069894 ) ) ;
#817 = CARTESIAN_POINT ( 'NONE',  ( -0.3111799931967382804, 0.4079459608974934648, 0.4221286244555227940 ) ) ;
#818 = CC_DESIGN_DATE_AND_TIME_ASSIGNMENT ( #679, #637, ( #748 ) ) ;
#819 = CARTESIAN_POINT ( 'NONE',  ( -0.08679947534244412954, 0.002983447651562405340, -0.4221222483430069894 ) ) ;
#820 = CARTESIAN_POINT ( 'NONE',  ( -0.1117135890511970209, 0.2677024873428540119, -0.3693565687930990826 ) ) ;
#821 = CARTESIAN_POINT ( 'NONE',  ( -0.08679947534244412954, 0.002983447651562405340, -0.4221222483430069894 ) ) ;
#822 = ORIENTED_EDGE ( 'NONE', *, *, #813, .F. ) ;
#823 = LINE ( 'NONE', #1091, #284 ) ;
#824 = ORIENTED_EDGE ( 'NONE', *, *, #453, .T. ) ;
#825 = CARTESIAN_POINT ( 'NONE',  ( -0.1266421204271427903, 0.4607999583163135959, 0.3165972653557060923 ) ) ;
#826 = LINE ( 'NONE', #810, #1083 ) ;
#827 = DATE_TIME_ROLE ( 'creation_date' ) ;
#828 = VECTOR ( 'NONE', #86, 1000.000000000000114 ) ;
#829 = VERTEX_POINT ( 'NONE', #467 ) ;
#830 = DIRECTION ( 'NONE',  ( 1.000000000000000000, 0.000000000000000000, 0.000000000000000000 ) ) ;
#831 = ORIENTED_EDGE ( 'NONE', *, *, #989, .T. ) ;
#832 = CIRCLE ( 'NONE', #1024, 0.2242541380871091172 ) ;
#833 = EDGE_LOOP ( 'NONE', ( #381, #852, #588, #402 ) ) ;
#834 = COORDINATED_UNIVERSAL_TIME_OFFSET ( 8, 0, .AHEAD. ) ;
#835 = ADVANCED_FACE ( 'NONE', ( #561 ), #386, .T. ) ;
#836 = ORIENTED_EDGE ( 'NONE', *, *, #864, .F. ) ;
#837 = CARTESIAN_POINT ( 'NONE',  ( -0.1926852793130663655, 0.8999999999999998002, -0.4221222483430069894 ) ) ;
#838 = CARTESIAN_POINT ( 'NONE',  ( -0.1501081869366130972, 0.2710462395855158246, 0.2638315858057980190 ) ) ;
#839 = DATE_AND_TIME ( #114, #938 ) ;
#840 = ORIENTED_EDGE ( 'NONE', *, *, #226, .T. ) ;
#841 = CARTESIAN_POINT ( 'NONE',  ( 0.3942970318619441472, 0.8999999999999998002, -0.4221222483430069894 ) ) ;
#842 = ORIENTED_EDGE ( 'NONE', *, *, #247, .T. ) ;
#843 = PERSON_AND_ORGANIZATION_ROLE ( 'creator' ) ;
#844 = VECTOR ( 'NONE', #254, 1000.000000000000000 ) ;
#845 = EDGE_CURVE ( 'NONE', #490, #668, #893, .T. ) ;
#846 = VECTOR ( 'NONE', #749, 1000.000000000000114 ) ;
#847 = VERTEX_POINT ( 'NONE', #476 ) ;
#848 = DIRECTION ( 'NONE',  ( -0.03569152573190279704, 0.9993628545182819956, 0.000000000000000000 ) ) ;
#849 = PRODUCT_DEFINITION ( '�', '', #994, #75 ) ;
#850 = CARTESIAN_POINT ( 'NONE',  ( -0.3847604120789345772, 0.4189038272481301894, -0.4221222483430069894 ) ) ;
#851 = CARTESIAN_POINT ( 'NONE',  ( -0.1197363063408165978, 0.2305000616212426745, 0.4221286244555227940 ) ) ;
#852 = ORIENTED_EDGE ( 'NONE', *, *, #311, .T. ) ;
#853 = CARTESIAN_POINT ( 'NONE',  ( -0.2648345752657399466, 0.3664557242131732950, -0.2638252096932826030 ) ) ;
#854 =( NAMED_UNIT ( * ) PLANE_ANGLE_UNIT ( ) SI_UNIT ( $, .RADIAN. ) );
#855 = CARTESIAN_POINT ( 'NONE',  ( -0.3848226123876222204, 0.3213534955257542625, -0.4221222483430069894 ) ) ;
#856 = PLANE ( 'NONE',  #743 ) ;
#857 = VERTEX_POINT ( 'NONE', #303 ) ;
#858 = ADVANCED_FACE ( 'NONE', ( #134 ), #1074, .T. ) ;
#859 = FACE_OUTER_BOUND ( 'NONE', #405, .T. ) ;
#860 = CARTESIAN_POINT ( 'NONE',  ( -0.1195841109491321136, 0.2305372367752624441, 0.4221286244555227940 ) ) ;
#861 = CARTESIAN_POINT ( 'NONE',  ( -0.2772337376820698251, 0.8999999999999998002, -0.4221222483430069894 ) ) ;
#862 = DIRECTION ( 'NONE',  ( 0.000000000000000000, 0.000000000000000000, 1.000000000000000000 ) ) ;
#863 = VERTEX_POINT ( 'NONE', #655 ) ;
#864 = EDGE_CURVE ( 'NONE', #362, #568, #826, .T. ) ;
#865 = DIRECTION ( 'NONE',  ( -1.000000000000000000, 0.000000000000000000, 0.000000000000000000 ) ) ;
#866 = B_SPLINE_SURFACE_WITH_KNOTS ( 'NONE', 3, 3, ( 
 ( #646, #886, #445, #451 ),
 ( #198, #715, #542, #897 ),
 ( #622, #965, #189, #1053 ),
 ( #277, #295, #119, #795 ),
 ( #634, #973, #626, #968 ),
 ( #464, #384, #372, #802 ),
 ( #722, #286, #550, #808 ),
 ( #473, #985, #35, #204 ),
 ( #814, #378, #1071, #728 ),
 ( #1065, #558, #466, #560 ),
 ( #997, #575, #987, #211 ),
 ( #482, #460, #820, #804 ) ),
 .UNSPECIFIED., .F., .F., .F.,
 ( 4, 2, 1, 2, 1, 2, 4 ),
 ( 4, 4 ),
 ( 0.6851541521183759365, 0.7500000000000000000, 0.8750000000000000000, 1.000000000000000000, 1.125000000000000000, 1.250000000000000000, 1.326210296512579934 ),
 ( 0.000000000000000000, 1.000000000000000000 ),
 .UNSPECIFIED. ) ;
#867 = DIRECTION ( 'NONE',  ( 0.7205668326049389227, 0.6933854914473519537, 0.000000000000000000 ) ) ;
#868 = DIRECTION ( 'NONE',  ( 0.000000000000000000, 0.000000000000000000, 1.000000000000000000 ) ) ;
#869 = DIRECTION ( 'NONE',  ( 0.000000000000000000, 0.000000000000000000, 1.000000000000000000 ) ) ;
#870 = ORIENTED_EDGE ( 'NONE', *, *, #247, .F. ) ;
#871 = ADVANCED_FACE ( 'NONE', ( #724 ), #815, .T. ) ;
#872 = EDGE_LOOP ( 'NONE', ( #283, #1046, #605, #620 ) ) ;
#873 = CARTESIAN_POINT ( 'NONE',  ( 0.2846287476174608755, 0.7944686409001840977, -0.4221222483430069894 ) ) ;
#874 = CARTESIAN_POINT ( 'NONE',  ( 0.3250662655186078998, -0.8999999999999998002, 0.4221286244555227940 ) ) ;
#875 = CARTESIAN_POINT ( 'NONE',  ( -0.1053848359767678711, 0.5233736152023803490, -0.4221222483430069894 ) ) ;
#876 = ORIENTED_EDGE ( 'NONE', *, *, #71, .F. ) ;
#877 = DIRECTION ( 'NONE',  ( 0.000000000000000000, -1.000000000000000000, 0.000000000000000000 ) ) ;
#878 = EDGE_CURVE ( 'NONE', #309, #720, #121, .T. ) ;
#879 = CARTESIAN_POINT ( 'NONE',  ( -0.1026228679082182432, 0.4460384989115369070, -0.4221222483430069894 ) ) ;
#880 = CARTESIAN_POINT ( 'NONE',  ( -0.1141278917498974449, 0.002983447651562405340, -0.4221222483430069894 ) ) ;
#881 = CARTESIAN_POINT ( 'NONE',  ( 0.3250662655186078998, -0.8999999999999998002, -0.4221222483430069894 ) ) ;
#882 = AXIS2_PLACEMENT_3D ( 'NONE', #978, #270, #125 ) ;
#883 = VECTOR ( 'NONE', #48, 1000.000000000000000 ) ;
#884 = CIRCLE ( 'NONE', #396, 0.05276567954990810105 ) ;
#885 = CARTESIAN_POINT ( 'NONE',  ( -0.1076524295279028126, 0.2549409146782645186, -0.3911539274895656226 ) ) ;
#886 = CARTESIAN_POINT ( 'NONE',  ( -0.1267018471902945365, 0.4608257590409668980, -0.3165908892431912314 ) ) ;
#887 = CARTESIAN_POINT ( 'NONE',  ( -0.1131823115791838891, 0.7417029613502752472, 0.4221286244555227940 ) ) ;
#888 = EDGE_CURVE ( 'NONE', #590, #490, #43, .T. ) ;
#889 = ORIENTED_EDGE ( 'NONE', *, *, #1107, .T. ) ;
#890 = CARTESIAN_POINT ( 'NONE',  ( -0.1130892710236167248, 0.2595775075802729259, -0.3752797557963230002 ) ) ;
#891 = DIRECTION ( 'NONE',  ( 0.000000000000000000, 0.000000000000000000, 1.000000000000000000 ) ) ;
#892 = CARTESIAN_POINT ( 'NONE',  ( -0.2038985218763876839, 0.5151540669360638036, -0.4221222483430068229 ) ) ;
#893 = LINE ( 'NONE', #1061, #69 ) ;
#894 = ORIENTED_EDGE ( 'NONE', *, *, #182, .F. ) ;
#895 = ORIENTED_EDGE ( 'NONE', *, *, #678, .F. ) ;
#896 = CARTESIAN_POINT ( 'NONE',  ( -0.2649567302100787614, 0.3441082918130359269, 0.3165972653557060923 ) ) ;
#897 = CARTESIAN_POINT ( 'NONE',  ( -0.1265005404857960647, 0.5110253553120488457, -0.4221222483430069894 ) ) ;
#898 = ORIENTED_EDGE ( 'NONE', *, *, #1030, .T. ) ;
#899 = DIRECTION ( 'NONE',  ( -0.6252512009757700273, 0.7804235617139947401, 0.000000000000000000 ) ) ;
#900 = AXIS2_PLACEMENT_3D ( 'NONE', #709, #170, #96 ) ;
#901 = EDGE_CURVE ( 'NONE', #857, #928, #910, .T. ) ;
#902 = VECTOR ( 'NONE', #648, 1000.000000000000000 ) ;
#903 = ORIENTED_EDGE ( 'NONE', *, *, #332, .F. ) ;
#904 = FACE_OUTER_BOUND ( 'NONE', #750, .T. ) ;
#905 = PLANE ( 'NONE',  #99 ) ;
#906 = CARTESIAN_POINT ( 'NONE',  ( -0.2648341259336436382, 0.3664556914481539862, 0.2638315858057980190 ) ) ;
#907 = ORIENTED_EDGE ( 'NONE', *, *, #1045, .F. ) ;
#908 = CARTESIAN_POINT ( 'NONE',  ( -0.1130944441780209198, 0.2595723907783607509, 0.3752974386661489525 ) ) ;
#909 = CARTESIAN_POINT ( 'NONE',  ( -0.1495944019865069752, 0.4843195304658945988, 0.3693629449056139435 ) ) ;
#910 = LINE ( 'NONE', #1067, #105 ) ;
#911 = ORIENTED_EDGE ( 'NONE', *, *, #901, .F. ) ;
#912 = B_SPLINE_CURVE_WITH_KNOTS ( 'NONE', 3,
 ( #890, #269, #377, #621 ),
 .UNSPECIFIED., .F., .F.,
 ( 4, 4 ),
 ( 0.000000000000000000, 1.000000000000000000 ),
 .UNSPECIFIED. ) ;
#913 = DIRECTION ( 'NONE',  ( -0.6252512009757700273, 0.7804235617139947401, 0.000000000000000000 ) ) ;
#914 = CARTESIAN_POINT ( 'NONE',  ( -0.1424070345820901973, 0.4710910958739700782, 0.3147982194003690615 ) ) ;
#915 = ORIENTED_EDGE ( 'NONE', *, *, #533, .F. ) ;
#916 = EDGE_CURVE ( 'NONE', #958, #224, #1084, .T. ) ;
#917 = AXIS2_PLACEMENT_3D ( 'NONE', #1022, #516, #265 ) ;
#918 = ORIENTED_EDGE ( 'NONE', *, *, #363, .T. ) ;
#919 = CIRCLE ( 'NONE', #245, 0.1055313590998161744 ) ;
#920 = CARTESIAN_POINT ( 'NONE',  ( -0.2038970444559645157, 0.5151471758170351745, 0.4221286244555227940 ) ) ;
#921 = ORIENTED_EDGE ( 'NONE', *, *, #782, .T. ) ;
#922 = EDGE_CURVE ( 'NONE', #665, #224, #36, .T. ) ;
#923 = EDGE_CURVE ( 'NONE', #1102, #240, #210, .T. ) ;
#924 = ORIENTED_EDGE ( 'NONE', *, *, #571, .T. ) ;
#925 = DIRECTION ( 'NONE',  ( 0.000000000000000000, 0.000000000000000000, -1.000000000000000000 ) ) ;
#926 = EDGE_LOOP ( 'NONE', ( #513, #971, #532, #132 ) ) ;
#927 = LINE ( 'NONE', #418, #230 ) ;
#928 = VERTEX_POINT ( 'NONE', #110 ) ;
#929 = EDGE_CURVE ( 'NONE', #62, #266, #102, .T. ) ;
#930 = ORIENTED_EDGE ( 'NONE', *, *, #327, .F. ) ;
#931 = PLANE ( 'NONE',  #431 ) ;
#932 = CC_DESIGN_PERSON_AND_ORGANIZATION_ASSIGNMENT ( #754, #585, ( #109 ) ) ;
#933 = AXIS2_PLACEMENT_3D ( 'NONE', #421, #259, #520 ) ;
#934 = VECTOR ( 'NONE', #578, 1000.000000000000114 ) ;
#935 = CARTESIAN_POINT ( 'NONE',  ( 0.2297946054952187400, 0.7417029613502752472, 0.4221286244555227940 ) ) ;
#936 = DIRECTION ( 'NONE',  ( 0.000000000000000000, 0.000000000000000000, 1.000000000000000000 ) ) ;
#937 = ORIENTED_EDGE ( 'NONE', *, *, #1045, .T. ) ;
#938 = LOCAL_TIME ( 8, 10, 5.000000000000000000, #834 ) ;
#939 = FACE_OUTER_BOUND ( 'NONE', #774, .T. ) ;
#940 = DIRECTION ( 'NONE',  ( 0.000000000000000000, 0.000000000000000000, 1.000000000000000000 ) ) ;
#941 = ADVANCED_FACE ( 'NONE', ( #727 ), #535, .T. ) ;
#942 = CARTESIAN_POINT ( 'NONE',  ( 0.2297946054952187400, 0.7417029613502752472, -0.4221222483430069894 ) ) ;
#943 = FACE_OUTER_BOUND ( 'NONE', #586, .T. ) ;
#944 = EDGE_LOOP ( 'NONE', ( #155, #153, #409, #447 ) ) ;
#945 = CARTESIAN_POINT ( 'NONE',  ( 0.1729700298883986853, -0.7357360660471509162, -0.4221222483430069894 ) ) ;
#946 = CARTESIAN_POINT ( 'NONE',  ( -0.1343228838476439313, 0.2749082825705911892, 0.3165972653557060923 ) ) ;
#947 = CARTESIAN_POINT ( 'NONE',  ( -0.1537905615325275144, 0.2717980588158200317, 0.2638315858057980190 ) ) ;
#948 = LINE ( 'NONE', #875, #375 ) ;
#949 = EDGE_LOOP ( 'NONE', ( #522, #911, #1075, #889 ) ) ;
#950 = EDGE_CURVE ( 'NONE', #122, #87, #574, .T. ) ;
#951 = AXIS2_PLACEMENT_3D ( 'NONE', #5, #8, #253 ) ;
#952 = DIRECTION ( 'NONE',  ( 0.000000000000000000, 0.000000000000000000, 1.000000000000000000 ) ) ;
#953 = FACE_OUTER_BOUND ( 'NONE', #1008, .T. ) ;
#954 = CARTESIAN_POINT ( 'NONE',  ( -0.1160159608832375122, 0.4888930768689134787, -0.3913668647204774920 ) ) ;
#955 = VECTOR ( 'NONE', #256, 1000.000000000000000 ) ;
#956 = AXIS2_PLACEMENT_3D ( 'NONE', #529, #89, #436 ) ;
#957 = EDGE_CURVE ( 'NONE', #863, #469, #832, .T. ) ;
#958 = VERTEX_POINT ( 'NONE', #959 ) ;
#959 = CARTESIAN_POINT ( 'NONE',  ( -0.2956756056418411438, 0.8174873384338534610, 0.4221286244555227940 ) ) ;
#960 = CARTESIAN_POINT ( 'NONE',  ( -0.08679947534244412954, 0.002983447651562405340, 0.4221286244555227940 ) ) ;
#961 = ORIENTED_EDGE ( 'NONE', *, *, #962, .F. ) ;
#962 = EDGE_CURVE ( 'NONE', #847, #568, #528, .T. ) ;
#963 = CYLINDRICAL_SURFACE ( 'NONE', #1105, 0.2242541380871094781 ) ;
#964 = DIRECTION ( 'NONE',  ( 0.000000000000000000, 0.000000000000000000, 1.000000000000000000 ) ) ;
#965 = CARTESIAN_POINT ( 'NONE',  ( -0.1524701739926017097, 0.4689286125912124903, -0.3165908892431912314 ) ) ;
#966 = CARTESIAN_POINT ( 'NONE',  ( -0.2093078554918409162, 0.2769737967680727109, 0.2638315858057981300 ) ) ;
#967 = CC_DESIGN_DATE_AND_TIME_ASSIGNMENT ( #839, #827, ( #849 ) ) ;
#968 = CARTESIAN_POINT ( 'NONE',  ( -0.2794945621530383617, 0.4835339586408057833, -0.4221222483430069894 ) ) ;
#969 = CYLINDRICAL_SURFACE ( 'NONE', #1080, 0.09893564915607772070 ) ;
#970 = VECTOR ( 'NONE', #76, 1000.000000000000114 ) ;
#971 = ORIENTED_EDGE ( 'NONE', *, *, #412, .F. ) ;
#972 = CARTESIAN_POINT ( 'NONE',  ( -0.1440690710427779131, 0.4679327222419975563, -0.3108992938440160447 ) ) ;
#973 = CARTESIAN_POINT ( 'NONE',  ( -0.2433527369412162578, 0.4474060474789169350, -0.3165908892431912314 ) ) ;
#974 = CARTESIAN_POINT ( 'NONE',  ( -0.1266320992454283423, 0.5110525241309480382, -0.4221222483430068229 ) ) ;
#975 = CARTESIAN_POINT ( 'NONE',  ( -0.3847604120789345772, 0.4189038272481301894, -0.4221222483430069894 ) ) ;
#976 = PERSON_AND_ORGANIZATION ( #809, #545 ) ;
#977 = CARTESIAN_POINT ( 'NONE',  ( -0.1264369975338529573, 0.5110120346394985136, 0.4221286244555227940 ) ) ;
#978 = CARTESIAN_POINT ( 'NONE',  ( 0.2846287476174608755, 0.7944686409001840977, -0.4221222483430069894 ) ) ;
#979 = FACE_OUTER_BOUND ( 'NONE', #538, .T. ) ;
#980 = CARTESIAN_POINT ( 'NONE',  ( -0.1926852793130663655, 0.7944686409001840977, -0.4221222483430069894 ) ) ;
#981 = EDGE_CURVE ( 'NONE', #992, #490, #340, .T. ) ;
#982 = ORIENTED_EDGE ( 'NONE', *, *, #152, .F. ) ;
#983 = ORIENTED_EDGE ( 'NONE', *, *, #131, .F. ) ;
#984 = CARTESIAN_POINT ( 'NONE',  ( -0.1472295248932158351, 0.4698285381715149867, 0.3015209796557977717 ) ) ;
#985 = CARTESIAN_POINT ( 'NONE',  ( -0.2433528684144312670, 0.2925704633863877580, -0.3165908892431912314 ) ) ;
#986 = DIRECTION ( 'NONE',  ( -0.9993628545182819956, -0.03569152573190261662, 0.000000000000000000 ) ) ;
#987 = CARTESIAN_POINT ( 'NONE',  ( -0.1280539488657059799, 0.2596774611615249029, -0.3693565687930990826 ) ) ;
#988 = DIRECTION ( 'NONE',  ( -0.6252512009757700273, 0.7804235617139947401, 0.000000000000000000 ) ) ;
#989 = EDGE_CURVE ( 'NONE', #638, #765, #717, .T. ) ;
#990 = VECTOR ( 'NONE', #138, 1000.000000000000000 ) ;
#991 = APPROVAL_PERSON_ORGANIZATION ( #151, #22, #489 ) ;
#992 = VERTEX_POINT ( 'NONE', #442 ) ;
#993 = CARTESIAN_POINT ( 'NONE',  ( -0.1606791984151466623, 0.01380554848582001524, -0.4221222483430069894 ) ) ;
#994 = PRODUCT_DEFINITION_FORMATION_WITH_SPECIFIED_SOURCE ( '�', '', #109, .NOT_KNOWN. ) ;
#995 = CARTESIAN_POINT ( 'NONE',  ( -0.1083189912657314125, 0.5031783612023219554, 0.4221286244555227940 ) ) ;
#996 = EDGE_LOOP ( 'NONE', ( #785, #1109, #337, #1115, #81, #876, #983 ) ) ;
#997 = CARTESIAN_POINT ( 'NONE',  ( -0.1343365326986349084, 0.2749048859968712399, -0.2638252096932826030 ) ) ;
#998 = DIRECTION ( 'NONE',  ( 0.7015455703360445883, -0.7126245945389998449, 0.000000000000000000 ) ) ;
#999 = ADVANCED_FACE ( 'NONE', ( #797 ), #549, .T. ) ;
#1000 = CARTESIAN_POINT ( 'NONE',  ( -0.2433484859835693126, 0.4473929426803550102, 0.2638315858057980190 ) ) ;
#1001 = ORIENTED_EDGE ( 'NONE', *, *, #1107, .F. ) ;
#1002 = PERSON_AND_ORGANIZATION ( #809, #545 ) ;
#1003 = EDGE_LOOP ( 'NONE', ( #660, #836, #123, #1020 ) ) ;
#1004 = DIRECTION ( 'NONE',  ( 0.000000000000000000, 0.000000000000000000, 1.000000000000000000 ) ) ;
#1005 = ORIENTED_EDGE ( 'NONE', *, *, #981, .F. ) ;
#1006 = CARTESIAN_POINT ( 'NONE',  ( -0.1918102981157074061, 0.2710168978186448530, 0.2638315858057980190 ) ) ;
#1007 = CIRCLE ( 'NONE', #523, 0.2242541380871091172 ) ;
#1008 = EDGE_LOOP ( 'NONE', ( #1018, #485, #454, #822 ) ) ;
#1009 = CARTESIAN_POINT ( 'NONE',  ( 0.1729700298883986853, -0.7357360660471509162, 0.4221286244555227940 ) ) ;
#1010 = VECTOR ( 'NONE', #323, 1000.000000000000000 ) ;
#1011 = AXIS2_PLACEMENT_3D ( 'NONE', #980, #297, #899 ) ;
#1012 = CARTESIAN_POINT ( 'NONE',  ( -0.1501081869366130972, 0.2710462395855158246, 0.3165972653557060923 ) ) ;
#1013 = CC_DESIGN_SECURITY_CLASSIFICATION ( #748, ( #994 ) ) ;
#1014 = EDGE_CURVE ( 'NONE', #250, #755, #98, .T. ) ;
#1015 = COORDINATED_UNIVERSAL_TIME_OFFSET ( 8, 0, .AHEAD. ) ;
#1016 = EDGE_LOOP ( 'NONE', ( #49, #677, #15, #465 ) ) ;
#1017 = CARTESIAN_POINT ( 'NONE',  ( -0.1130882384177896161, 0.2595765661798757340, -0.4221222483430069894 ) ) ;
#1018 = ORIENTED_EDGE ( 'NONE', *, *, #957, .T. ) ;
#1019 = EDGE_CURVE ( 'NONE', #273, #711, #197, .T. ) ;
#1020 = ORIENTED_EDGE ( 'NONE', *, *, #1019, .F. ) ;
#1021 = B_SPLINE_SURFACE_WITH_KNOTS ( 'NONE', 3, 3, ( 
 ( #738, #825, #394, #995 ),
 ( #746, #583, #1094, #977 ),
 ( #203, #401, #909, #479 ),
 ( #557, #1077, #1063, #920 ),
 ( #1000, #307, #654, #659 ),
 ( #752, #220, #579, #817 ),
 ( #498, #896, #312, #663 ),
 ( #124, #472, #1069, #382 ),
 ( #1006, #225, #45, #644 ),
 ( #838, #1012, #686, #607 ),
 ( #239, #946, #775, #860 ),
 ( #342, #510, #519, #592 ) ),
 .UNSPECIFIED., .F., .F., .F.,
 ( 4, 2, 1, 2, 1, 2, 4 ),
 ( 4, 4 ),
 ( 0.6850494899808289295, 0.7500000000000000000, 0.8750000000000000000, 1.000000000000000000, 1.125000000000000000, 1.250000000000000000, 1.326243302551409986 ),
 ( 0.000000000000000000, 1.000000000000000000 ),
 .UNSPECIFIED. ) ;
#1022 = CARTESIAN_POINT ( 'NONE',  ( -0.1581168961123609606, 0.5214903275929634319, -0.4221222483430069894 ) ) ;
#1023 = AXIS2_PLACEMENT_3D ( 'NONE', #547, #26, #361 ) ;
#1024 = AXIS2_PLACEMENT_3D ( 'NONE', #540, #801, #28 ) ;
#1025 = CARTESIAN_POINT ( 'NONE',  ( 0.2297946054952187400, 0.7417029613502752472, -0.4221222483430069894 ) ) ;
#1026 = FACE_OUTER_BOUND ( 'NONE', #661, .T. ) ;
#1027 = VERTEX_POINT ( 'NONE', #708 ) ;
#1028 = APPROVAL_ROLE ( '' ) ;
#1029 = APPLICATION_CONTEXT ( 'configuration controlled 3d designs of mechanical parts and assemblies' ) ;
#1030 = EDGE_CURVE ( 'NONE', #765, #564, #912, .T. ) ;
#1031 = CARTESIAN_POINT ( 'NONE',  ( -0.1211057070566491367, 0.4838924246313409672, -0.3755897451947419752 ) ) ;
#1032 = ORIENTED_EDGE ( 'NONE', *, *, #962, .T. ) ;
#1033 = CARTESIAN_POINT ( 'NONE',  ( -0.2509067850575643632, 0.3124527526220369777, 0.2638315858057980745 ) ) ;
#1034 = ORIENTED_EDGE ( 'NONE', *, *, #788, .F. ) ;
#1035 = EDGE_CURVE ( 'NONE', #651, #271, #691, .T. ) ;
#1036 = CARTESIAN_POINT ( 'NONE',  ( -0.3434604793789589050, 0.2330061976553982339, 0.4221286244555227940 ) ) ;
#1037 = CARTESIAN_POINT ( 'NONE',  ( -0.2038970444559645157, 0.5151471758170351745, 0.4221286244555227940 ) ) ;
#1038 = VERTEX_POINT ( 'NONE', #1047 ) ;
#1039 = CIRCLE ( 'NONE', #507, 0.1055313590998161466 ) ;
#1040 = PLANE ( 'NONE',  #357 ) ;
#1041 = CARTESIAN_POINT ( 'NONE',  ( -0.08679947534244412954, 0.002983447651562405340, -0.4221222483430069894 ) ) ;
#1042 = CIRCLE ( 'NONE', #84, 0.2242541380871091172 ) ;
#1043 = ORIENTED_EDGE ( 'NONE', *, *, #1100, .T. ) ;
#1044 = CARTESIAN_POINT ( 'NONE',  ( -0.2648341259336436382, 0.3664556914481539862, 0.2638315858057980190 ) ) ;
#1045 = EDGE_CURVE ( 'NONE', #1049, #122, #321, .T. ) ;
#1046 = ORIENTED_EDGE ( 'NONE', *, *, #678, .T. ) ;
#1047 = CARTESIAN_POINT ( 'NONE',  ( -0.3434604793789589050, 0.2330061976553982339, -0.4221222483430069894 ) ) ;
#1048 = CARTESIAN_POINT ( 'NONE',  ( -0.1537905615325275144, 0.2717980588158200317, -0.4221222483430069894 ) ) ;
#1049 = VERTEX_POINT ( 'NONE', #25 ) ;
#1050 = ADVANCED_FACE ( 'NONE', ( #365 ), #963, .T. ) ;
#1051 = EDGE_LOOP ( 'NONE', ( #108, #1055, #1111, #1106, #94, #1097, #150 ) ) ;
#1052 = DIRECTION ( 'NONE',  ( -0.9761989037295637495, -0.2168771549914789709, 0.000000000000000000 ) ) ;
#1053 = CARTESIAN_POINT ( 'NONE',  ( -0.1462001364950707427, 0.5151003874721727938, -0.4221222483430069894 ) ) ;
#1054 = PRODUCT_DEFINITION_SHAPE ( 'NONE', 'NONE',  #849 ) ;
#1055 = ORIENTED_EDGE ( 'NONE', *, *, #145, .F. ) ;
#1056 = EDGE_CURVE ( 'NONE', #87, #1102, #642, .T. ) ;
#1057 = CARTESIAN_POINT ( 'NONE',  ( -0.1131823115791838891, 0.7417029613502752472, -0.4221222483430069894 ) ) ;
#1058 = AXIS2_PLACEMENT_3D ( 'NONE', #799, #133, #1066 ) ;
#1059 = CYLINDRICAL_SURFACE ( 'NONE', #126, 0.1055313590998161744 ) ;
#1060 = FACE_OUTER_BOUND ( 'NONE', #1068, .T. ) ;
#1061 = CARTESIAN_POINT ( 'NONE',  ( 0.2846287476174608755, 0.8999999999999998002, -0.4221222483430069894 ) ) ;
#1062 = SECURITY_CLASSIFICATION_LEVEL ( 'unclassified' ) ;
#1063 = CARTESIAN_POINT ( 'NONE',  ( -0.1973029562186439101, 0.4843671960795892795, 0.3693629449056139435 ) ) ;
#1064 = ADVANCED_FACE ( 'NONE', ( #904 ), #1086, .T. ) ;
#1065 = CARTESIAN_POINT ( 'NONE',  ( -0.1501152199393148423, 0.2710453368338531788, -0.2638252096932826030 ) ) ;
#1066 = DIRECTION ( 'NONE',  ( -0.6108377687128546674, 0.7917557832525765615, 0.000000000000000000 ) ) ;
#1067 = CARTESIAN_POINT ( 'NONE',  ( -0.08679947534244412954, 0.002983447651562405340, 0.4221286244555227940 ) ) ;
#1068 = EDGE_LOOP ( 'NONE', ( #33, #501, #770, #221 ) ) ;
#1069 = CARTESIAN_POINT ( 'NONE',  ( -0.2575045629799235236, 0.2784449072409029280, 0.3693629449056139435 ) ) ;
#1070 = DIRECTION ( 'NONE',  ( -0.4411134951954799321, -0.8974513270124609976, 0.000000000000000000 ) ) ;
#1071 = CARTESIAN_POINT ( 'NONE',  ( -0.1973064614729500288, 0.2556024130606557310, -0.3693565687930990826 ) ) ;
#1072 = CARTESIAN_POINT ( 'NONE',  ( -0.2509068054169790174, 0.3124527788390674132, -0.2638252096932826030 ) ) ;
#1073 = ADVANCED_FACE ( 'NONE', ( #301 ), #1021, .F. ) ;
#1074 = CYLINDRICAL_SURFACE ( 'NONE', #1011, 0.1055313590998161744 ) ;
#1075 = ORIENTED_EDGE ( 'NONE', *, *, #226, .F. ) ;
#1076 = DIRECTION ( 'NONE',  ( -0.03569152573190279704, 0.9993628545182819956, 0.000000000000000000 ) ) ;
#1077 = CARTESIAN_POINT ( 'NONE',  ( -0.1918089748750294310, 0.4689605137354360687, 0.3165972653557060923 ) ) ;
#1078 = EDGE_LOOP ( 'NONE', ( #1043, #744, #222, #699 ) ) ;
#1079 = FACE_OUTER_BOUND ( 'NONE', #1003, .T. ) ;
#1080 = AXIS2_PLACEMENT_3D ( 'NONE', #196, #42, #986 ) ;
#1081 = DIRECTION ( 'NONE',  ( 0.000000000000000000, 0.000000000000000000, 1.000000000000000000 ) ) ;
#1082 = EDGE_CURVE ( 'NONE', #643, #334, #884, .T. ) ;
#1083 = VECTOR ( 'NONE', #200, 1000.000000000000114 ) ;
#1084 = CIRCLE ( 'NONE', #195, 0.1055313590998161744 ) ;
#1085 = CARTESIAN_POINT ( 'NONE',  ( 0.2297946054952187400, 0.7417029613502752472, -0.4221222483430069894 ) ) ;
#1086 = CYLINDRICAL_SURFACE ( 'NONE', #264, 0.1055313590998161466 ) ;
#1087 = B_SPLINE_CURVE_WITH_KNOTS ( 'NONE', 3,
 ( #1031, #954, #9, #698 ),
 .UNSPECIFIED., .F., .F.,
 ( 4, 4 ),
 ( 0.000000000000000000, 5.194675314542174721E-05 ),
 .UNSPECIFIED. ) ;
#1088 = DATE_AND_TIME ( #1096, #601 ) ;
#1089 = EDGE_CURVE ( 'NONE', #753, #240, #83, .T. ) ;
#1090 = ORIENTED_EDGE ( 'NONE', *, *, #602, .T. ) ;
#1091 = CARTESIAN_POINT ( 'NONE',  ( 0.3250662655186078998, -0.8999999999999998002, -0.4221222483430069894 ) ) ;
#1092 = ORIENTED_EDGE ( 'NONE', *, *, #878, .T. ) ;
#1093 = APPLICATION_CONTEXT ( 'configuration controlled 3d designs of mechanical parts and assemblies' ) ;
#1094 = CARTESIAN_POINT ( 'NONE',  ( -0.1335868598776658034, 0.4814194506065540002, 0.3693629449056139435 ) ) ;
#1095 = CARTESIAN_POINT ( 'NONE',  ( -0.2547948999828575367, 0.4213148348917817865, -0.2638252096932826030 ) ) ;
#1096 = CALENDAR_DATE ( 2026, 29, 6 ) ;
#1097 = ORIENTED_EDGE ( 'NONE', *, *, #923, .F. ) ;
#1098 = LINE ( 'NONE', #1009, #1010 ) ;
#1099 = DIRECTION ( 'NONE',  ( 1.000000000000000000, 0.000000000000000000, 0.000000000000000000 ) ) ;
#1100 = EDGE_CURVE ( 'NONE', #423, #379, #758, .T. ) ;
#1101 = DATE_AND_TIME ( #156, #508 ) ;
#1102 = VERTEX_POINT ( 'NONE', #161 ) ;
#1103 = CARTESIAN_POINT ( 'NONE',  ( -0.09459695094486009204, 0.2213127937994579519, -0.4221222483430069894 ) ) ;
#1104 = VECTOR ( 'NONE', #1076, 1000.000000000000000 ) ;
#1105 = AXIS2_PLACEMENT_3D ( 'NONE', #187, #449, #1052 ) ;
#1106 = ORIENTED_EDGE ( 'NONE', *, *, #419, .F. ) ;
#1107 = EDGE_CURVE ( 'NONE', #829, #573, #927, .T. ) ;
#1108 = DIRECTION ( 'NONE',  ( 0.000000000000000000, 0.000000000000000000, -1.000000000000000000 ) ) ;
#1109 = ORIENTED_EDGE ( 'NONE', *, *, #311, .F. ) ;
#1110 = DIRECTION ( 'NONE',  ( 1.000000000000000000, 0.000000000000000000, 0.000000000000000000 ) ) ;
#1111 = ORIENTED_EDGE ( 'NONE', *, *, #487, .F. ) ;
#1112 = CARTESIAN_POINT ( 'NONE',  ( 0.1729700298883986853, -0.7357360660471509162, -0.4221222483430069894 ) ) ;
#1113 = CARTESIAN_POINT ( 'NONE',  ( -0.3848226123876222204, 0.3213534955257542625, 0.4221286244555227940 ) ) ;
#1114 = CARTESIAN_POINT ( 'NONE',  ( -0.1659059686301680714, 0.3699890949891527225, -0.4221222483430069894 ) ) ;
#1115 = ORIENTED_EDGE ( 'NONE', *, *, #1030, .F. ) ;
ENDSEC;
END-ISO-10303-21;
