  0
SECTION
  2
HEADER
  9
$ACADVER
  1
AC1015
  9
$ACADMAINTVER
 70
     6
  9
$DWGCODEPAGE
  3
ANSI_936
  9
$INSBASE
 10
0.0
 20
0.0
 30
0.0
  9
$EXTMIN
 10
0.0
 20
0.0
 30
0.0
  9
$EXTMAX
 10
297.0
 20
210.0
 30
0.0
  9
$LIMMIN
 10
0.0
 20
0.0
  9
$LIMMAX
 10
297.0
 20
210.0
  9
$ORTHOMODE
 70
     0
  9
$REGENMODE
 70
     1
  9
$FILLMODE
 70
     1
  9
$QTEXTMODE
 70
     0
  9
$MIRRTEXT
 70
     1
  9
$LTSCALE
 40
1.0
  9
$ATTMODE
 70
     1
  9
$TEXTSIZE
 40
3.5
  9
$TRACEWID
 40
1.0
  9
$TEXTSTYLE
  7
Standard
  9
$CLAYER
  8
0
  9
$CELTYPE
  6
ByLayer
  9
$CECOLOR
 62
   256
  9
$CELTSCALE
 40
1.0
  9
$DISPSILH
 70
     0
  9
$DIMSCALE
 40
1.0
  9
$DIMASZ
 40
4.08
  9
$DIMEXO
 40
0.0
  9
$DIMDLI
 40
3.75
  9
$DIMRND
 40
0.0
  9
$DIMDLE
 40
0.0
  9
$DIMEXE
 40
2.0
  9
$DIMTP
 40
0.0
  9
$DIMTM
 40
0.0
  9
$DIMTXT
 40
3.5
  9
$DIMCEN
 40
2.5
  9
$DIMTSZ
 40
0.0
  9
$DIMTOL
 70
     0
  9
$DIMLIM
 70
     0
  9
$DIMTIH
 70
     1
  9
$DIMTOH
 70
     1
  9
$DIMSE1
 70
     0
  9
$DIMSE2
 70
     0
  9
$DIMTAD
 70
     1
  9
$DIMZIN
 70
     0
  9
$DIMBLK
  1

  9
$DIMASO
 70
     1
  9
$DIMSHO
 70
     1
  9
$DIMPOST
  1

  9
$DIMAPOST
  1

  9
$DIMALT
 70
     0
  9
$DIMALTD
 70
     3
  9
$DIMALTF
 40
0.0393700787
  9
$DIMLFAC
 40
2.0
  9
$DIMTOFL
 70
     1
  9
$DIMTVP
 40
0.0
  9
$DIMTIX
 70
     0
  9
$DIMSOXD
 70
     0
  9
$DIMSAH
 70
     0
  9
$DIMBLK1
  1

  9
$DIMBLK2
  1

  9
$DIMSTYLE
  2
ISO-25
  9
$DIMCLRD
 70
     0
  9
$DIMCLRE
 70
     0
  9
$DIMCLRT
 70
     0
  9
$DIMTFAC
 40
1.0
  9
$DIMGAP
 40
1.524
  9
$DIMJUST
 70
     0
  9
$DIMSD1
 70
     0
  9
$DIMSD2
 70
     0
  9
$DIMTOLJ
 70
     0
  9
$DIMTZIN
 70
     0
  9
$DIMALTZ
 70
     0
  9
$DIMALTTZ
 70
     0
  9
$DIMUPT
 70
     0
  9
$DIMDEC
 70
     2
  9
$DIMTDEC
 70
     2
  9
$DIMALTU
 70
     2
  9
$DIMALTTD
 70
     3
  9
$DIMTXSTY
  7
Standard
  9
$DIMAUNIT
 70
     0
  9
$DIMADEC
 70
     2
  9
$DIMALTRND
 40
0.0
  9
$DIMAZIN
 70
     0
  9
$DIMDSEP
 70
    44
  9
$DIMATFIT
 70
     3
  9
$DIMFRAC
 70
     0
  9
$DIMLDRBLK
  1

  9
$DIMLUNIT
 70
     2
  9
$DIMLWD
 70
    -2
  9
$DIMLWE
 70
    -2
  9
$DIMTMOVE
 70
     0
  9
$LUNITS
 70
     2
  9
$LUPREC
 70
     2
  9
$SKETCHINC
 40
1.0
  9
$FILLETRAD
 40
0.0
  9
$AUNITS
 70
     0
  9
$AUPREC
 70
     2
  9
$MENU
  1
.
  9
$ELEVATION
 40
0.0
  9
$PELEVATION
 40
0.0
  9
$THICKNESS
 40
0.0
  9
$LIMCHECK
 70
     0
  9
$CHAMFERA
 40
0.0
  9
$CHAMFERB
 40
0.0
  9
$CHAMFERC
 40
0.0
  9
$CHAMFERD
 40
0.0
  9
$SKPOLY
 70
     0
  9
$TDCREATE
 40
2461215.485256158
  9
$TDUCREATE
 40
2461215.151922824
  9
$TDUPDATE
 40
2461215.485256725
  9
$TDUUPDATE
 40
2461215.151923391
  9
$TDINDWG
 40
0.0000000116
  9
$TDUSRTIMER
 40
0.0000000116
  9
$USRTIMER
 70
     1
  9
$ANGBASE
 50
0.0
  9
$ANGDIR
 70
     0
  9
$PDMODE
 70
     0
  9
$PDSIZE
 40
-1.0
  9
$PLINEWID
 40
0.0
  9
$SPLFRAME
 70
     0
  9
$SPLINETYPE
 70
     6
  9
$SPLINESEGS
 70
     8
  9
$HANDSEED
  5
1B1
  9
$SURFTAB1
 70
     6
  9
$SURFTAB2
 70
     6
  9
$SURFTYPE
 70
     6
  9
$SURFU
 70
     6
  9
$SURFV
 70
     6
  9
$UCSBASE
  2

  9
$UCSNAME
  2

  9
$UCSORG
 10
0.0
 20
0.0
 30
0.0
  9
$UCSXDIR
 10
1.0
 20
0.0
 30
0.0
  9
$UCSYDIR
 10
0.0
 20
1.0
 30
0.0
  9
$UCSORTHOREF
  2

  9
$UCSORTHOVIEW
 70
     0
  9
$UCSORGTOP
 10
0.0
 20
0.0
 30
0.0
  9
$UCSORGBOTTOM
 10
0.0
 20
0.0
 30
0.0
  9
$UCSORGLEFT
 10
0.0
 20
0.0
 30
0.0
  9
$UCSORGRIGHT
 10
0.0
 20
0.0
 30
0.0
  9
$UCSORGFRONT
 10
0.0
 20
0.0
 30
0.0
  9
$UCSORGBACK
 10
0.0
 20
0.0
 30
0.0
  9
$PUCSBASE
  2

  9
$PUCSNAME
  2

  9
$PUCSORG
 10
0.0
 20
0.0
 30
0.0
  9
$PUCSXDIR
 10
1.0
 20
0.0
 30
0.0
  9
$PUCSYDIR
 10
0.0
 20
1.0
 30
0.0
  9
$PUCSORTHOREF
  2

  9
$PUCSORTHOVIEW
 70
     0
  9
$PUCSORGTOP
 10
0.0
 20
0.0
 30
0.0
  9
$PUCSORGBOTTOM
 10
0.0
 20
0.0
 30
0.0
  9
$PUCSORGLEFT
 10
0.0
 20
0.0
 30
0.0
  9
$PUCSORGRIGHT
 10
0.0
 20
0.0
 30
0.0
  9
$PUCSORGFRONT
 10
0.0
 20
0.0
 30
0.0
  9
$PUCSORGBACK
 10
0.0
 20
0.0
 30
0.0
  9
$USERI1
 70
     0
  9
$USERI2
 70
     0
  9
$USERI3
 70
     0
  9
$USERI4
 70
     0
  9
$USERI5
 70
     0
  9
$USERR1
 40
0.0
  9
$USERR2
 40
0.0
  9
$USERR3
 40
0.0
  9
$USERR4
 40
0.0
  9
$USERR5
 40
0.0
  9
$WORLDVIEW
 70
     1
  9
$SHADEDGE
 70
     3
  9
$SHADEDIF
 70
    70
  9
$TILEMODE
 70
     1
  9
$MAXACTVP
 70
    64
  9
$PINSBASE
 10
0.0
 20
0.0
 30
0.0
  9
$PLIMCHECK
 70
     0
  9
$PEXTMIN
 10
1.0000000000E+20
 20
1.0000000000E+20
 30
1.0000000000E+20
  9
$PEXTMAX
 10
-1.0000000000E+20
 20
-1.0000000000E+20
 30
-1.0000000000E+20
  9
$PLIMMIN
 10
0.0
 20
0.0
  9
$PLIMMAX
 10
420.0
 20
297.0
  9
$UNITMODE
 70
     0
  9
$VISRETAIN
 70
     1
  9
$PLINEGEN
 70
     0
  9
$PSLTSCALE
 70
     1
  9
$TREEDEPTH
 70
  3020
  9
$CMLSTYLE
  2
Standard
  9
$CMLJUST
 70
     0
  9
$CMLSCALE
 40
20.0
  9
$PROXYGRAPHICS
 70
     1
  9
$MEASUREMENT
 70
     1
  9
$CELWEIGHT
370
    -1
  9
$ENDCAPS
280
     0
  9
$JOINSTYLE
280
     0
  9
$LWDISPLAY
290
     1
  9
$INSUNITS
 70
     4
  9
$HYPERLINKBASE
  1

  9
$STYLESHEET
  1

  9
$XEDIT
290
     1
  9
$CEPSNTYPE
380
     0
  9
$PSTYLEMODE
290
     1
  9
$FINGERPRINTGUID
  2
{b247a770-3a1a-4780-9bdf-3387e051a83e}
  9
$VERSIONGUID
  2
{FAEB1C32-E019-11D5-929B-00C0DF256EC4}
  9
$EXTNAMES
290
     1
  9
$PSVPSCALE
 40
0.0
  9
$OLESTARTUP
290
     0
  0
ENDSEC
  0
SECTION
  2
CLASSES
  0
CLASS
  1
ACDBDICTIONARYWDFLT
  2
AcDbDictionaryWithDefault
  3
ObjectDBX Classes
 90
        0
280
     0
281
     0
  0
CLASS
  1
VISUALSTYLE
  2
AcDbVisualStyle
  3
ObjectDBX Classes
 90
     4095
280
     0
281
     0
  0
CLASS
  1
MATERIAL
  2
AcDbMaterial
  3
ObjectDBX Classes
 90
     1153
280
     0
281
     0
  0
CLASS
  1
SCALE
  2
AcDbScale
  3
ObjectDBX Classes
 90
     1153
280
     0
281
     0
  0
CLASS
  1
TABLESTYLE
  2
AcDbTableStyle
  3
ObjectDBX Classes
 90
     4095
280
     0
281
     0
  0
CLASS
  1
MLEADERSTYLE
  2
AcDbMLeaderStyle
  3
ACDB_MLEADERSTYLE_CLASS
 90
     4095
280
     0
281
     0
  0
CLASS
  1
SUN
  2
AcDbSun
  3
SCENEOE
 90
     1153
280
     0
281
     0
  0
CLASS
  1
ACDBPLACEHOLDER
  2
AcDbPlaceHolder
  3
ObjectDBX Classes
 90
        0
280
     0
281
     0
  0
CLASS
  1
LAYOUT
  2
AcDbLayout
  3
ObjectDBX Classes
 90
        0
280
     0
281
     0
  0
ENDSEC
  0
SECTION
  2
TABLES
  0
TABLE
  2
VPORT
  5
8
330
0
100
AcDbSymbolTable
 70
     1
  0
VPORT
  5
29
330
8
100
AcDbSymbolTableRecord
100
AcDbViewportTableRecord
  2
*Active
 70
     0
 10
0.0
 20
0.0
 11
1.0
 21
1.0
 12
148.5
 22
105.0
 13
0.0
 23
0.0
 14
10.0
 24
10.0
 15
10.0
 25
10.0
 16
0.0
 26
0.0
 36
1.0
 17
0.0
 27
0.0
 37
0.0
 40
210.0
 41
1.4142857143
 42
50.0
 43
0.0
 44
0.0
 50
0.0
 51
0.0
 71
     0
 72
  2000
 73
     1
 74
     3
 75
     0
 76
     0
 77
     0
 78
     0
281
     0
 65
     1
110
0.0
120
0.0
130
0.0
111
1.0
121
0.0
131
0.0
112
0.0
122
1.0
132
0.0
 79
     0
146
0.0
  0
ENDTAB
  0
TABLE
  2
LTYPE
  5
5
330
0
100
AcDbSymbolTable
 70
     6
  0
LTYPE
  5
14
330
5
100
AcDbSymbolTableRecord
100
AcDbLinetypeTableRecord
  2
ByBlock
 70
     0
  3

 72
    65
 73
     0
 40
0.0
  0
LTYPE
  5
15
330
5
100
AcDbSymbolTableRecord
100
AcDbLinetypeTableRecord
  2
ByLayer
 70
     0
  3

 72
    65
 73
     0
 40
0.0
  0
LTYPE
  5
16
330
5
100
AcDbSymbolTableRecord
100
AcDbLinetypeTableRecord
  2
Continuous
 70
     0
  3
Solid line
 72
    65
 73
     0
 40
0.0
  0
LTYPE
  5
5E
330
5
100
AcDbSymbolTableRecord
100
AcDbLinetypeTableRecord
  2
HIDDEN
 70
     0
  3
Hidden __ __ __ __ __ __ __ __ __ __ __ __ __ __
 72
    65
 73
     2
 40
1.905
 49
1.27
 74
     0
 49
-0.635
 74
     0
  0
LTYPE
  5
5F
330
5
100
AcDbSymbolTableRecord
100
AcDbLinetypeTableRecord
  2
PHANTOM
 70
     0
  3
Phantom ______  __  __  ______  __  __  ______
 72
    65
 73
     6
 40
12.7
 49
6.35
 74
     0
 49
-1.27
 74
     0
 49
1.27
 74
     0
 49
-1.27
 74
     0
 49
1.27
 74
     0
 49
-1.27
 74
     0
  0
LTYPE
  5
60
330
5
100
AcDbSymbolTableRecord
100
AcDbLinetypeTableRecord
  2
CENTER
 70
     0
  3
Center ____ _ ____ _ ____ _ ____ _ ____ _ ____
 72
    65
 73
     4
 40
10.16
 49
6.35
 74
     0
 49
-1.27
 74
     0
 49
1.27
 74
     0
 49
-1.27
 74
     0
  0
LTYPE
  5
61
330
5
100
AcDbSymbolTableRecord
100
AcDbLinetypeTableRecord
  2
CENTERX2
 70
     0
  3
Center (2x) ________  __  ________  __  _____
 72
    65
 73
     4
 40
20.32
 49
12.7
 74
     0
 49
-2.54
 74
     0
 49
2.54
 74
     0
 49
-2.54
 74
     0
  0
LTYPE
  5
62
330
5
100
AcDbSymbolTableRecord
100
AcDbLinetypeTableRecord
  2
DOT2
 70
     0
  3
Dot (.5x) ........................................
 72
    65
 73
     2
 40
0.635
 49
0.0
 74
     0
 49
-0.635
 74
     0
  0
ENDTAB
  0
TABLE
  2
LAYER
  5
2
330
0
100
AcDbSymbolTable
 70
    14
  0
LAYER
  5
10
330
2
100
AcDbSymbolTableRecord
100
AcDbLayerTableRecord
  2
0
 70
     0
 62
     7
  6
Continuous
370
    -3
390
F
  0
LAYER
  5
63
330
2
100
AcDbSymbolTableRecord
100
AcDbLayerTableRecord
  2
SLD-0
 70
     0
 62
     7
  6
Continuous
370
    -3
390
F
  0
LAYER
  5
64
330
2
100
AcDbSymbolTableRecord
100
AcDbLayerTableRecord
  2
5
 70
     0
 62
     7
  6
Continuous
370
    -3
390
F
  0
LAYER
  5
65
330
2
100
AcDbSymbolTableRecord
100
AcDbLayerTableRecord
  2
9
 70
     0
 62
     7
  6
Continuous
370
    -3
390
F
  0
LAYER
  5
66
330
2
100
AcDbSymbolTableRecord
100
AcDbLayerTableRecord
  2
10
 70
     0
 62
     7
  6
Continuous
370
    -3
390
F
  0
LAYER
  5
67
330
2
100
AcDbSymbolTableRecord
100
AcDbLayerTableRecord
  2
轮廓实线层
 70
     0
 62
     7
  6
Continuous
370
    50
390
F
  0
LAYER
  5
68
330
2
100
AcDbSymbolTableRecord
100
AcDbLayerTableRecord
  2
细线层
 70
     0
 62
     4
  6
Continuous
370
    25
390
F
  0
LAYER
  5
69
330
2
100
AcDbSymbolTableRecord
100
AcDbLayerTableRecord
  2
中心线层
 70
     0
 62
     1
  6
CENTERX2
370
    25
390
F
  0
LAYER
  5
6A
330
2
100
AcDbSymbolTableRecord
100
AcDbLayerTableRecord
  2
虚线层
 70
     0
 62
     6
  6
HIDDEN
370
    25
390
F
  0
LAYER
  5
6B
330
2
100
AcDbSymbolTableRecord
100
AcDbLayerTableRecord
  2
剖面线层
 70
     0
 62
     2
  6
Continuous
370
    25
390
F
  0
LAYER
  5
6C
330
2
100
AcDbSymbolTableRecord
100
AcDbLayerTableRecord
  2
文字层
 70
     0
 62
     3
  6
Continuous
370
    25
390
F
  0
LAYER
  5
6D
330
2
100
AcDbSymbolTableRecord
100
AcDbLayerTableRecord
  2
标注层
 70
     0
 62
     4
  6
Continuous
370
    25
390
F
  0
LAYER
  5
6E
330
2
100
AcDbSymbolTableRecord
100
AcDbLayerTableRecord
  2
符号标注层
 70
     0
 62
    31
  6
Continuous
370
    25
390
F
  0
LAYER
  5
6F
330
2
100
AcDbSymbolTableRecord
100
AcDbLayerTableRecord
  2
双点划线层
 70
     0
 62
     6
  6
PHANTOM
370
    25
390
F
  0
ENDTAB
  0
TABLE
  2
STYLE
  5
3
330
0
100
AcDbSymbolTable
 70
     1
  0
STYLE
  5
11
330
3
100
AcDbSymbolTableRecord
100
AcDbTextStyleTableRecord
  2
Standard
 70
     0
 40
0.0
 41
1.0
 50
0.0
 71
     0
 42
3.5
  3
txt
  4

  0
ENDTAB
  0
TABLE
  2
VIEW
  5
6
330
0
100
AcDbSymbolTable
 70
     0
  0
ENDTAB
  0
TABLE
  2
UCS
  5
7
330
0
100
AcDbSymbolTable
 70
     0
  0
ENDTAB
  0
TABLE
  2
APPID
  5
9
330
0
100
AcDbSymbolTable
 70
     1
  0
APPID
  5
12
330
9
100
AcDbSymbolTableRecord
100
AcDbRegAppTableRecord
  2
ACAD
 70
     0
  0
ENDTAB
  0
TABLE
  2
DIMSTYLE
  5
A
330
0
100
AcDbSymbolTable
 70
     1
100
AcDbDimStyleTable
  0
DIMSTYLE
105
27
330
A
100
AcDbSymbolTableRecord
100
AcDbDimStyleTableRecord
  2
ISO-25
 70
     0
 41
2.5
 42
0.625
 43
3.75
 44
1.25
 73
     0
 74
     0
 77
     1
 78
     8
140
2.5
141
2.5
143
0.0393700787
147
0.625
171
     3
172
     1
178
     0
271
     2
272
     2
274
     3
278
    44
283
     0
284
     8
340
11
  0
ENDTAB
  0
TABLE
  2
BLOCK_RECORD
  5
1
330
0
100
AcDbSymbolTable
 70
     5
  0
BLOCK_RECORD
  5
1F
330
1
100
AcDbSymbolTableRecord
100
AcDbBlockTableRecord
  2
*Model_Space
340
22
  0
BLOCK_RECORD
  5
1B
330
1
100
AcDbSymbolTableRecord
100
AcDbBlockTableRecord
  2
*Paper_Space
340
1E
  0
BLOCK_RECORD
  5
23
330
1
100
AcDbSymbolTableRecord
100
AcDbBlockTableRecord
  2
*Paper_Space0
340
26
  0
BLOCK_RECORD
  5
D0
330
1
100
AcDbSymbolTableRecord
100
AcDbBlockTableRecord
  2
SW_CENTERMARKSYMBOL_0
340
0
102
{BLKREFS
331
DB
102
}
  0
BLOCK_RECORD
  5
DC
330
1
100
AcDbSymbolTableRecord
100
AcDbBlockTableRecord
  2
SW_CENTERMARKSYMBOL_1
340
0
102
{BLKREFS
331
E7
102
}
  0
BLOCK_RECORD
  5
E8
330
1
100
AcDbSymbolTableRecord
100
AcDbBlockTableRecord
  2
SW_CENTERMARKSYMBOL_2
340
0
102
{BLKREFS
331
F3
102
}
  0
BLOCK_RECORD
  5
F4
330
1
100
AcDbSymbolTableRecord
100
AcDbBlockTableRecord
  2
SW_CENTERMARKSYMBOL_3
340
0
102
{BLKREFS
331
FF
102
}
  0
ENDTAB
  0
ENDSEC
  0
SECTION
  2
BLOCKS
  0
BLOCK
  5
20
330
1F
100
AcDbEntity
  8
0
100
AcDbBlockBegin
  2
*Model_Space
 70
     0
 10
0.0
 20
0.0
 30
0.0
  3
*Model_Space
  1

  0
ENDBLK
  5
21
330
1F
100
AcDbEntity
  8
0
100
AcDbBlockEnd
  0
BLOCK
  5
1C
330
1B
100
AcDbEntity
 67
     1
  8
0
100
AcDbBlockBegin
  2
*Paper_Space
 70
     0
 10
0.0
 20
0.0
 30
0.0
  3
*Paper_Space
  1

  0
ENDBLK
  5
1D
330
1B
100
AcDbEntity
 67
     1
  8
0
100
AcDbBlockEnd
  0
BLOCK
  5
24
330
23
100
AcDbEntity
  8
0
100
AcDbBlockBegin
  2
*Paper_Space0
 70
     0
 10
0.0
 20
0.0
 30
0.0
  3
*Paper_Space0
  1

  0
ENDBLK
  5
25
330
23
100
AcDbEntity
  8
0
100
AcDbBlockEnd
  0
BLOCK
  5
D1
330
D0
100
AcDbEntity
  8
0
100
AcDbBlockBegin
  2
SW_CENTERMARKSYMBOL_0
 70
     0
 10
0.0
 20
0.0
 30
0.0
  3
SW_CENTERMARKSYMBOL_0
  1

  0
LINE
  5
D3
330
D0
100
AcDbEntity
  8
10
 62
     0
100
AcDbLine
 10
0.0
 20
0.0
 30
0.0
 11
0.0
 21
2.5
 31
0.0
  0
LINE
  5
D4
330
D0
100
AcDbEntity
  8
10
 62
     0
100
AcDbLine
 10
0.0
 20
0.0
 30
0.0
 11
-2.5
 21
0.0
 31
0.0
  0
LINE
  5
D5
330
D0
100
AcDbEntity
  8
10
 62
     0
100
AcDbLine
 10
0.0
 20
0.0
 30
0.0
 11
0.0
 21
-2.5
 31
0.0
  0
LINE
  5
D6
330
D0
100
AcDbEntity
  8
10
 62
     0
100
AcDbLine
 10
0.0
 20
0.0
 30
0.0
 11
2.5
 21
0.0
 31
0.0
  0
LINE
  5
D7
330
D0
100
AcDbEntity
  8
10
 62
     0
100
AcDbLine
 10
0.0
 20
5.0
 30
0.0
 11
0.0
 21
8.75
 31
0.0
  0
LINE
  5
D8
330
D0
100
AcDbEntity
  8
10
 62
     0
100
AcDbLine
 10
-5.0
 20
0.0
 30
0.0
 11
-8.75
 21
0.0
 31
0.0
  0
LINE
  5
D9
330
D0
100
AcDbEntity
  8
10
 62
     0
100
AcDbLine
 10
0.0
 20
-5.0
 30
0.0
 11
0.0
 21
-8.75
 31
0.0
  0
LINE
  5
DA
330
D0
100
AcDbEntity
  8
10
 62
     0
100
AcDbLine
 10
5.0
 20
0.0
 30
0.0
 11
8.75
 21
0.0
 31
0.0
  0
ENDBLK
  5
D2
330
D0
100
AcDbEntity
  8
0
100
AcDbBlockEnd
  0
BLOCK
  5
DD
330
DC
100
AcDbEntity
  8
0
100
AcDbBlockBegin
  2
SW_CENTERMARKSYMBOL_1
 70
     0
 10
0.0
 20
0.0
 30
0.0
  3
SW_CENTERMARKSYMBOL_1
  1

  0
LINE
  5
DF
330
DC
100
AcDbEntity
  8
10
 62
     0
100
AcDbLine
 10
0.0
 20
0.0
 30
0.0
 11
0.0
 21
2.5
 31
0.0
  0
LINE
  5
E0
330
DC
100
AcDbEntity
  8
10
 62
     0
100
AcDbLine
 10
0.0
 20
0.0
 30
0.0
 11
-2.5
 21
0.0
 31
0.0
  0
LINE
  5
E1
330
DC
100
AcDbEntity
  8
10
 62
     0
100
AcDbLine
 10
0.0
 20
0.0
 30
0.0
 11
0.0
 21
-2.5
 31
0.0
  0
LINE
  5
E2
330
DC
100
AcDbEntity
  8
10
 62
     0
100
AcDbLine
 10
0.0
 20
0.0
 30
0.0
 11
2.5
 21
0.0
 31
0.0
  0
LINE
  5
E3
330
DC
100
AcDbEntity
  8
10
 62
     0
100
AcDbLine
 10
0.0
 20
5.0
 30
0.0
 11
0.0
 21
8.75
 31
0.0
  0
LINE
  5
E4
330
DC
100
AcDbEntity
  8
10
 62
     0
100
AcDbLine
 10
-5.0
 20
0.0
 30
0.0
 11
-8.75
 21
0.0
 31
0.0
  0
LINE
  5
E5
330
DC
100
AcDbEntity
  8
10
 62
     0
100
AcDbLine
 10
0.0
 20
-5.0
 30
0.0
 11
0.0
 21
-8.75
 31
0.0
  0
LINE
  5
E6
330
DC
100
AcDbEntity
  8
10
 62
     0
100
AcDbLine
 10
5.0
 20
0.0
 30
0.0
 11
8.75
 21
0.0
 31
0.0
  0
ENDBLK
  5
DE
330
DC
100
AcDbEntity
  8
0
100
AcDbBlockEnd
  0
BLOCK
  5
E9
330
E8
100
AcDbEntity
  8
0
100
AcDbBlockBegin
  2
SW_CENTERMARKSYMBOL_2
 70
     0
 10
0.0
 20
0.0
 30
0.0
  3
SW_CENTERMARKSYMBOL_2
  1

  0
LINE
  5
EB
330
E8
100
AcDbEntity
  8
10
 62
     0
100
AcDbLine
 10
0.0
 20
0.0
 30
0.0
 11
0.0
 21
2.5
 31
0.0
  0
LINE
  5
EC
330
E8
100
AcDbEntity
  8
10
 62
     0
100
AcDbLine
 10
0.0
 20
0.0
 30
0.0
 11
-2.5
 21
0.0
 31
0.0
  0
LINE
  5
ED
330
E8
100
AcDbEntity
  8
10
 62
     0
100
AcDbLine
 10
0.0
 20
0.0
 30
0.0
 11
0.0
 21
-2.5
 31
0.0
  0
LINE
  5
EE
330
E8
100
AcDbEntity
  8
10
 62
     0
100
AcDbLine
 10
0.0
 20
0.0
 30
0.0
 11
2.5
 21
0.0
 31
0.0
  0
LINE
  5
EF
330
E8
100
AcDbEntity
  8
10
 62
     0
100
AcDbLine
 10
0.0
 20
5.0
 30
0.0
 11
0.0
 21
6.5625
 31
0.0
  0
LINE
  5
F0
330
E8
100
AcDbEntity
  8
10
 62
     0
100
AcDbLine
 10
-5.0
 20
0.0
 30
0.0
 11
-6.5625
 21
0.0
 31
0.0
  0
LINE
  5
F1
330
E8
100
AcDbEntity
  8
10
 62
     0
100
AcDbLine
 10
0.0
 20
-5.0
 30
0.0
 11
0.0
 21
-6.5625
 31
0.0
  0
LINE
  5
F2
330
E8
100
AcDbEntity
  8
10
 62
     0
100
AcDbLine
 10
5.0
 20
0.0
 30
0.0
 11
6.5625
 21
0.0
 31
0.0
  0
ENDBLK
  5
EA
330
E8
100
AcDbEntity
  8
0
100
AcDbBlockEnd
  0
BLOCK
  5
F5
330
F4
100
AcDbEntity
  8
0
100
AcDbBlockBegin
  2
SW_CENTERMARKSYMBOL_3
 70
     0
 10
0.0
 20
0.0
 30
0.0
  3
SW_CENTERMARKSYMBOL_3
  1

  0
LINE
  5
F7
330
F4
100
AcDbEntity
  8
10
 62
     0
100
AcDbLine
 10
0.0
 20
0.0
 30
0.0
 11
0.0
 21
2.5
 31
0.0
  0
LINE
  5
F8
330
F4
100
AcDbEntity
  8
10
 62
     0
100
AcDbLine
 10
0.0
 20
0.0
 30
0.0
 11
-2.5
 21
0.0
 31
0.0
  0
LINE
  5
F9
330
F4
100
AcDbEntity
  8
10
 62
     0
100
AcDbLine
 10
0.0
 20
0.0
 30
0.0
 11
0.0
 21
-2.5
 31
0.0
  0
LINE
  5
FA
330
F4
100
AcDbEntity
  8
10
 62
     0
100
AcDbLine
 10
0.0
 20
0.0
 30
0.0
 11
2.5
 21
0.0
 31
0.0
  0
LINE
  5
FB
330
F4
100
AcDbEntity
  8
10
 62
     0
100
AcDbLine
 10
0.0
 20
5.0
 30
0.0
 11
0.0
 21
6.5625
 31
0.0
  0
LINE
  5
FC
330
F4
100
AcDbEntity
  8
10
 62
     0
100
AcDbLine
 10
-5.0
 20
0.0
 30
0.0
 11
-6.5625
 21
0.0
 31
0.0
  0
LINE
  5
FD
330
F4
100
AcDbEntity
  8
10
 62
     0
100
AcDbLine
 10
0.0
 20
-5.0
 30
0.0
 11
0.0
 21
-6.5625
 31
0.0
  0
LINE
  5
FE
330
F4
100
AcDbEntity
  8
10
 62
     0
100
AcDbLine
 10
5.0
 20
0.0
 30
0.0
 11
6.5625
 21
0.0
 31
0.0
  0
ENDBLK
  5
F6
330
F4
100
AcDbEntity
  8
0
100
AcDbBlockEnd
  0
ENDSEC
  0
SECTION
  2
ENTITIES
  0
SPLINE
  5
70
330
1F
100
AcDbEntity
  8
0
  6
Continuous
 62
     7
370
    25
100
AcDbSpline
210
0.0
220
0.0
230
1.0
 70
     8
 71
     3
 72
    26
 73
    22
 74
     0
 42
0.00000001
 43
0.00000001
 40
0.0
 40
0.0
 40
0.0
 40
0.0
 40
0.1250000000000003
 40
0.1250000000000003
 40
0.2500000000000007
 40
0.2500000000000007
 40
0.375000000000001
 40
0.375000000000001
 40
0.4375000000000012
 40
0.4375000000000012
 40
0.5000000000000013
 40
0.5000000000000013
 40
0.5625000000000016
 40
0.5625000000000016
 40
0.6250000000000017
 40
0.6250000000000017
 40
0.7500000000000011
 40
0.7500000000000011
 40
0.8750000000000006
 40
0.8750000000000006
 40
1.0
 40
1.0
 40
1.0
 40
1.0
 10
64.25
 20
70.75000000000001
 30
0.0
 10
63.82786714984468
 20
70.75000000000001
 30
0.0
 10
63.41235359422845
 20
70.74768020539229
 30
0.0
 10
62.59411773985149
 20
70.74410961459387
 30
0.0
 10
62.1878121219135
 20
70.74513802006227
 30
0.0
 10
61.41985475869549
 20
70.73599924115636
 30
0.0
 10
61.05513110656071
 20
70.7255220768749
 30
0.0
 10
60.53741686446538
 20
70.69357072066157
 30
0.0
 10
60.36929514975802
 20
70.6801840934726
 30
0.0
 10
60.05066993362355
 20
70.6483445864945
 30
0.0
 10
59.89918585789751
 20
70.62998560213046
 30
0.0
 10
59.61154414936233
 20
70.58756941597058
 30
0.0
 10
59.47539271803116
 20
70.56346244068804
 30
0.0
 10
59.21859738040765
 20
70.5073023530044
 30
0.0
 10
59.09731952703963
 20
70.47501031094694
 30
0.0
 10
58.76254395824014
 20
70.36342145792415
 30
0.0
 10
58.57925604106269
 20
70.2697894691283
 30
0.0
 10
58.2857834675734
 20
70.04403232963092
 30
0.0
 10
58.17561147647683
 20
69.91179512914891
 30
0.0
 10
58.03367831462727
 20
69.60892583196754
 30
0.0
 10
58.00000000007908
 20
69.43830760531691
 30
0.0
 10
57.99999999999999
 20
69.24714992645013
 30
0.0
  0
SPLINE
  5
71
330
1F
100
AcDbEntity
  8
0
  6
Continuous
 62
     7
370
    25
100
AcDbSpline
210
0.0
220
0.0
230
1.0
 70
     8
 71
     3
 72
    24
 73
    20
 74
     0
 42
0.00000001
 43
0.00000001
 40
0.0
 40
0.0
 40
0.0
 40
0.0
 40
0.1249999999999999
 40
0.1249999999999999
 40
0.2499999999999999
 40
0.2499999999999999
 40
0.3749999999999998
 40
0.3749999999999998
 40
0.4374999999999998
 40
0.4374999999999998
 40
0.4999999999999998
 40
0.4999999999999998
 40
0.6249999999999998
 40
0.6249999999999998
 40
0.7499999999999999
 40
0.7499999999999999
 40
0.8749999999999999
 40
0.8749999999999999
 40
1.0
 40
1.0
 40
1.0
 40
1.0
 10
59.271631006757
 20
68.08685091099989
 30
0.0
 10
59.29737128373741
 20
68.2335418454144
 30
0.0
 10
59.34649701362311
 20
68.36649391767443
 30
0.0
 10
59.4955142765496
 20
68.60709255387393
 30
0.0
 10
59.59552026922797
 20
68.71522426322042
 30
0.0
 10
59.85684396161029
 20
68.90554150102247
 30
0.0
 10
60.01306027721856
 20
68.98552337771996
 30
0.0
 10
60.28233584100273
 20
69.08800558997925
 30
0.0
 10
60.37810011959231
 20
69.11919998709168
 30
0.0
 10
60.58306154756431
 20
69.17613637123216
 30
0.0
 10
60.69291717574184
 20
69.20197718182158
 30
0.0
 10
61.0361896005663
 20
69.27070072792137
 30
0.0
 10
61.28462253516126
 20
69.30549969918542
 30
0.0
 10
61.81619128774487
 20
69.36095163444979
 30
0.0
 10
62.10159281327503
 20
69.38156198563769
 30
0.0
 10
62.68633206345352
 20
69.41193432411633
 30
0.0
 10
62.98794111341017
 20
69.42193770793858
 30
0.0
 10
63.61156750180918
 20
69.43465572986031
 30
0.0
 10
63.93073466152852
 20
69.4375
 30
0.0
 10
64.25
 20
69.43750000000001
 30
0.0
  0
LINE
  5
72
330
1F
100
AcDbEntity
  8
0
  6
Continuous
 62
     7
370
    25
100
AcDbLine
 10
64.25
 20
88.25
 30
0.0
 11
59.25
 21
88.25
 31
0.0
  0
LINE
  5
73
330
1F
100
AcDbEntity
  8
0
  6
Continuous
 62
     7
370
    25
100
AcDbLine
 10
58.0
 20
87.0
 30
0.0
 11
64.25
 21
87.0
 31
0.0
  0
LINE
  5
74
330
1F
100
AcDbEntity
  8
0
  6
Continuous
 62
     7
370
    25
100
AcDbLine
 10
58.0
 20
87.0
 30
0.0
 11
59.25
 21
88.25
 31
0.0
  0
LINE
  5
75
330
1F
100
AcDbEntity
  8
0
  6
Continuous
 62
     7
370
    25
100
AcDbLine
 10
101.75
 20
87.0
 30
0.0
 11
108.0
 21
87.0
 31
0.0
  0
LINE
  5
76
330
1F
100
AcDbEntity
  8
0
  6
Continuous
 62
     7
370
    25
100
AcDbLine
 10
108.0
 20
69.2471499267
 30
0.0
 11
108.0
 21
87.0
 31
0.0
  0
SPLINE
  5
77
330
1F
100
AcDbEntity
  8
0
  6
Continuous
 62
     7
370
    25
100
AcDbSpline
210
0.0
220
0.0
230
1.0
 70
     8
 71
     3
 72
    26
 73
    22
 74
     0
 42
0.00000001
 43
0.00000001
 40
0.0
 40
0.0
 40
0.0
 40
0.0
 40
0.1250000000000002
 40
0.1250000000000002
 40
0.2500000000000003
 40
0.2500000000000003
 40
0.3750000000000005
 40
0.3750000000000005
 40
0.4375000000000004
 40
0.4375000000000004
 40
0.5000000000000003
 40
0.5000000000000003
 40
0.5625000000000003
 40
0.5625000000000003
 40
0.6250000000000002
 40
0.6250000000000002
 40
0.7500000000000001
 40
0.7500000000000001
 40
0.875
 40
0.875
 40
1.0
 40
1.0
 40
1.0
 40
1.0
 10
108.0
 20
69.24714992645013
 30
0.0
 10
107.9999999999209
 20
69.43834467105184
 30
0.0
 10
107.9662982933687
 20
69.60892520869012
 30
0.0
 10
107.824534872494
 20
69.91229118638181
 30
0.0
 10
107.7144870149137
 20
70.04599926748806
 30
0.0
 10
107.4209554299849
 20
70.26940553644343
 30
0.0
 10
107.2378250031774
 20
70.36150459940283
 30
0.0
 10
106.9049342752893
 20
70.47433254425405
 30
0.0
 10
106.7834903708354
 20
70.50768770400282
 30
0.0
 10
106.5261463547277
 20
70.56538653802676
 30
0.0
 10
106.389808891676
 20
70.59000811197113
 30
0.0
 10
106.1020517719622
 20
70.63293790437302
 30
0.0
 10
105.9506343901976
 20
70.6512533215621
 30
0.0
 10
105.6324884104177
 20
70.68249079284699
 30
0.0
 10
105.4647412730554
 20
70.69536588430377
 30
0.0
 10
104.9458991689445
 20
70.72578739022836
 30
0.0
 10
104.5806092410072
 20
70.73521273910434
 30
0.0
 10
103.8122763061297
 20
70.749450108102
 30
0.0
 10
103.4060492914156
 20
70.75281931987165
 30
0.0
 10
102.587681085631
 20
70.75318313312346
 30
0.0
 10
102.1721295003442
 20
70.75000000000001
 30
0.0
 10
101.75
 20
70.75000000000001
 30
0.0
  0
LINE
  5
78
330
1F
100
AcDbEntity
  8
0
  6
Continuous
 62
     7
370
    25
100
AcDbLine
 10
64.25
 20
27.0
 30
0.0
 11
58.0
 21
27.0
 31
0.0
  0
LINE
  5
79
330
1F
100
AcDbEntity
  8
0
  6
Continuous
 62
     7
370
    25
100
AcDbLine
 10
58.0
 20
44.7528500733
 30
0.0
 11
58.0
 21
27.0
 31
0.0
  0
SPLINE
  5
7A
330
1F
100
AcDbEntity
  8
0
  6
Continuous
 62
     7
370
    25
100
AcDbSpline
210
0.0
220
0.0
230
1.0
 70
     8
 71
     3
 72
    26
 73
    22
 74
     0
 42
0.00000001
 43
0.00000001
 40
0.0
 40
0.0
 40
0.0
 40
0.0
 40
0.1249999999999992
 40
0.1249999999999992
 40
0.2499999999999984
 40
0.2499999999999984
 40
0.3749999999999976
 40
0.3749999999999976
 40
0.4374999999999981
 40
0.4374999999999981
 40
0.4999999999999986
 40
0.4999999999999986
 40
0.562499999999999
 40
0.562499999999999
 40
0.6249999999999996
 40
0.6249999999999996
 40
0.7499999999999997
 40
0.7499999999999997
 40
0.8749999999999999
 40
0.8749999999999999
 40
1.0
 40
1.0
 40
1.0
 40
1.0
 10
57.99999999999999
 20
44.75285007354988
 30
0.0
 10
58.00000000007908
 20
44.56165560078013
 30
0.0
 10
58.03370211207087
 20
44.39109256818483
 30
0.0
 10
58.17546820774892
 20
44.08775557440928
 30
0.0
 10
58.28551737713344
 20
43.95405583846355
 30
0.0
 10
58.57905126700489
 20
43.73066357741673
 30
0.0
 10
58.76218315486462
 20
43.63857365837242
 30
0.0
 10
59.09507648718079
 20
43.52575933236884
 30
0.0
 10
59.21652083835439
 20
43.49240842362061
 30
0.0
 10
59.47386474659298
 20
43.43471489126421
 30
0.0
 10
59.61020206477979
 20
43.41009402467311
 30
0.0
 10
59.89795894391114
 20
43.36716473071002
 30
0.0
 10
60.0493762344738
 20
43.34884917501115
 30
0.0
 10
60.36752242788462
 20
43.3176137970556
 30
0.0
 10
60.53527006167192
 20
43.30474152861755
 30
0.0
 10
61.05411048572058
 20
43.27432989280908
 30
0.0
 10
61.41939980836568
 20
43.26491022839872
 30
0.0
 10
62.18773183954736
 20
43.25064759565029
 30
0.0
 10
62.59395739572194
 20
43.2472511897477
 30
0.0
 10
63.41232175529768
 20
43.24683878229171
 30
0.0
 10
63.82787183552546
 20
43.25000000000001
 30
0.0
 10
64.25
 20
43.25000000000001
 30
0.0
  0
LINE
  5
7B
330
1F
100
AcDbEntity
  8
0
  6
Continuous
 62
     7
370
    25
100
AcDbLine
 10
64.25
 20
69.4375
 30
0.0
 11
101.75
 21
69.4375
 31
0.0
  0
LINE
  5
7C
330
1F
100
AcDbEntity
  8
0
  6
Continuous
 62
     7
370
    25
100
AcDbLine
 10
101.75
 20
70.75
 30
0.0
 11
64.25
 21
70.75
 31
0.0
  0
LINE
  5
7D
330
1F
100
AcDbEntity
  8
0
  6
Continuous
 62
     7
370
    25
100
AcDbLine
 10
101.75
 20
25.75
 30
0.0
 11
106.75
 21
25.75
 31
0.0
  0
LINE
  5
7E
330
1F
100
AcDbEntity
  8
0
  6
Continuous
 62
     7
370
    25
100
AcDbLine
 10
108.0
 20
27.0
 30
0.0
 11
101.75
 21
27.0
 31
0.0
  0
LINE
  5
7F
330
1F
100
AcDbEntity
  8
0
  6
Continuous
 62
     7
370
    25
100
AcDbLine
 10
108.0
 20
27.0
 30
0.0
 11
106.75
 21
25.75
 31
0.0
  0
LINE
  5
80
330
1F
100
AcDbEntity
  8
0
  6
Continuous
 62
     7
370
    25
100
AcDbLine
 10
106.75
 20
88.25
 30
0.0
 11
101.75
 21
88.25
 31
0.0
  0
LINE
  5
81
330
1F
100
AcDbEntity
  8
0
  6
Continuous
 62
     7
370
    25
100
AcDbLine
 10
108.0
 20
87.0
 30
0.0
 11
106.75
 21
88.25
 31
0.0
  0
LINE
  5
82
330
1F
100
AcDbEntity
  8
0
  6
Continuous
 62
     7
370
    25
100
AcDbLine
 10
58.0
 20
87.0
 30
0.0
 11
58.0
 21
69.2471499267
 31
0.0
  0
LINE
  5
83
330
1F
100
AcDbEntity
  8
0
  6
Continuous
 62
     7
370
    25
100
AcDbLine
 10
59.25
 20
25.75
 30
0.0
 11
64.25
 21
25.75
 31
0.0
  0
LINE
  5
84
330
1F
100
AcDbEntity
  8
0
  6
Continuous
 62
     7
370
    25
100
AcDbLine
 10
58.0
 20
27.0
 30
0.0
 11
59.25
 21
25.75
 31
0.0
  0
LINE
  5
85
330
1F
100
AcDbEntity
  8
0
  6
Continuous
 62
     7
370
    25
100
AcDbLine
 10
108.0
 20
27.0
 30
0.0
 11
108.0
 21
44.7528500733
 31
0.0
  0
SPLINE
  5
86
330
1F
100
AcDbEntity
  8
0
  6
Continuous
 62
     7
370
    25
100
AcDbSpline
210
0.0
220
0.0
230
1.0
 70
     8
 71
     3
 72
    26
 73
    22
 74
     0
 42
0.00000001
 43
0.00000001
 40
0.0
 40
0.0
 40
0.0
 40
0.0
 40
0.1249999999999994
 40
0.1249999999999994
 40
0.2499999999999989
 40
0.2499999999999989
 40
0.3749999999999983
 40
0.3749999999999983
 40
0.4374999999999985
 40
0.4374999999999985
 40
0.4999999999999987
 40
0.4999999999999987
 40
0.5624999999999988
 40
0.5624999999999988
 40
0.624999999999999
 40
0.624999999999999
 40
0.7499999999999993
 40
0.7499999999999993
 40
0.8749999999999997
 40
0.8749999999999997
 40
1.0
 40
1.0
 40
1.0
 40
1.0
 10
101.75
 20
43.25000000000001
 30
0.0
 10
102.1721293355485
 20
43.25000000000001
 30
0.0
 10
102.587580667418
 20
43.24479003356083
 30
0.0
 10
103.4056019428869
 20
43.24340550019157
 30
0.0
 10
103.8118985690437
 20
43.2469841564262
 30
0.0
 10
104.5799875113085
 20
43.26412630068489
 30
0.0
 10
104.9447301519153
 20
43.27592065885647
 30
0.0
 10
105.4623801869675
 20
43.30646964292875
 30
0.0
 10
105.6305477386602
 20
43.31895569700796
 30
0.0
 10
105.9492729294729
 20
43.34935443714799
 30
0.0
 10
106.1007484738608
 20
43.36729793934235
 30
0.0
 10
106.3882552234945
 20
43.40995160655569
 30
0.0
 10
106.5242859147696
 20
43.43465573506371
 30
0.0
 10
106.7808158552038
 20
43.49222412294476
 30
0.0
 10
106.9018808626064
 20
43.5253174155502
 30
0.0
 10
107.2368895490043
 20
43.63796226801203
 30
0.0
 10
107.4205992487192
 20
43.72927825562905
 30
0.0
 10
107.7144502538806
 20
43.95149326780157
 30
0.0
 10
107.8245064506342
 20
44.08489258775067
 30
0.0
 10
107.9663462505997
 20
44.38971269297139
 30
0.0
 10
107.9999999999209
 20
44.56164635963886
 30
0.0
 10
108.0
 20
44.75285007354988
 30
0.0
  0
LINE
  5
87
330
1F
100
AcDbEntity
  8
0
  6
Continuous
 62
     7
370
    25
100
AcDbLine
 10
64.25
 20
87.0
 30
0.0
 11
101.75
 21
87.0
 31
0.0
  0
LINE
  5
88
330
1F
100
AcDbEntity
  8
0
  6
Continuous
 62
     7
370
    25
100
AcDbLine
 10
101.75
 20
88.25
 30
0.0
 11
64.25
 21
88.25
 31
0.0
  0
LINE
  5
89
330
1F
100
AcDbEntity
  8
0
  6
Continuous
 62
     7
370
    25
100
AcDbLine
 10
64.25
 20
25.75
 30
0.0
 11
101.75
 21
25.75
 31
0.0
  0
LINE
  5
8A
330
1F
100
AcDbEntity
  8
0
  6
Continuous
 62
     7
370
    25
100
AcDbLine
 10
101.75
 20
27.0
 30
0.0
 11
64.25
 21
27.0
 31
0.0
  0
SPLINE
  5
8B
330
1F
100
AcDbEntity
  8
0
  6
Continuous
 62
     7
370
    25
100
AcDbSpline
210
0.0
220
0.0
230
1.0
 70
     8
 71
     3
 72
    24
 73
    20
 74
     0
 42
0.00000001
 43
0.00000001
 40
0.0
 40
0.0
 40
0.0
 40
0.0
 40
0.1249999999999991
 40
0.1249999999999991
 40
0.2499999999999981
 40
0.2499999999999981
 40
0.3749999999999972
 40
0.3749999999999972
 40
0.4374999999999967
 40
0.4374999999999967
 40
0.4999999999999962
 40
0.4999999999999962
 40
0.6249999999999971
 40
0.6249999999999971
 40
0.7499999999999981
 40
0.7499999999999981
 40
0.874999999999999
 40
0.874999999999999
 40
1.0
 40
1.0
 40
1.0
 40
1.0
 10
106.728368993243
 20
45.9131490890001
 30
0.0
 10
106.7026228930373
 20
45.76642496868227
 30
0.0
 10
106.6526689321438
 20
45.63351811333686
 30
0.0
 10
106.5022132673382
 20
45.3929504988061
 30
0.0
 10
106.4010072688373
 20
45.2847462071235
 30
0.0
 10
106.1423670663695
 20
45.09439251427411
 30
0.0
 10
105.9877896475237
 20
45.01433765572896
 30
0.0
 10
105.7177957277719
 20
44.91222698244599
 30
0.0
 10
105.6214587489826
 20
44.88119108579863
 30
0.0
 10
105.4158536829005
 20
44.82445071973231
 30
0.0
 10
105.3059726411172
 20
44.79865508574238
 30
0.0
 10
104.9633766578879
 20
44.72981171133403
 30
0.0
 10
104.7164304774183
 20
44.69466700240933
 30
0.0
 10
104.1853232389589
 20
44.63911624864192
 30
0.0
 10
103.8988391509372
 20
44.61877932869349
 30
0.0
 10
103.3117604824133
 20
44.58905572078703
 30
0.0
 10
103.0091676920326
 20
44.57918636606638
 30
0.0
 10
102.3863455920392
 20
44.56587367798713
 30
0.0
 10
102.0688928196777
 20
44.56250000000001
 30
0.0
 10
101.75
 20
44.56250000000001
 30
0.0
  0
SPLINE
  5
8C
330
1F
100
AcDbEntity
  8
0
  6
Continuous
 62
     7
370
    25
100
AcDbSpline
210
0.0
220
0.0
230
1.0
 70
     8
 71
     3
 72
    20
 73
    16
 74
     0
 42
0.00000001
 43
0.00000001
 40
0.0
 40
0.0
 40
0.0
 40
0.0
 40
0.1250000000000005
 40
0.1250000000000005
 40
0.2500000000000011
 40
0.2500000000000011
 40
0.3750000000000016
 40
0.3750000000000016
 40
0.5000000000000021
 40
0.5000000000000021
 40
0.6250000000000027
 40
0.6250000000000027
 40
0.750000000000002
 40
0.750000000000002
 40
1.0
 40
1.0
 40
1.0
 40
1.0
 10
101.75
 20
69.43750000000001
 30
0.0
 10
102.0693803560758
 20
69.4375
 30
0.0
 10
102.3831690698803
 20
69.43431661932503
 30
0.0
 10
103.0014761139689
 20
69.42141388901845
 30
0.0
 10
103.3089272373648
 20
69.41153962570498
 30
0.0
 10
103.8979775191094
 20
69.38158006776332
 30
0.0
 10
104.177167320169
 20
69.36147821464492
 30
0.0
 10
104.7071252787234
 20
69.30614679390148
 30
0.0
 10
104.9604065689053
 20
69.27047688160599
 30
0.0
 10
105.4158889058134
 20
69.17954119595923
 30
0.0
 10
105.6201093983034
 20
69.1242240022309
 30
0.0
 10
105.9838564122556
 20
68.98761042899513
 30
0.0
 10
106.1420431738099
 20
68.90600388013999
 30
0.0
 10
106.5276596409147
 20
68.62419650438342
 30
0.0
 10
106.6768993283347
 20
68.38017072434701
 30
0.0
 10
106.728368993243
 20
68.08685091099989
 30
0.0
  0
LINE
  5
8D
330
1F
100
AcDbEntity
  8
0
  6
Continuous
 62
     7
370
    25
100
AcDbLine
 10
64.25
 20
43.25
 30
0.0
 11
101.75
 21
43.25
 31
0.0
  0
SPLINE
  5
8E
330
1F
100
AcDbEntity
  8
0
  6
Continuous
 62
     7
370
    25
100
AcDbSpline
210
0.0
220
0.0
230
1.0
 70
     8
 71
     3
 72
    20
 73
    16
 74
     0
 42
0.00000001
 43
0.00000001
 40
0.0
 40
0.0
 40
0.0
 40
0.0
 40
0.1250000000000009
 40
0.1250000000000009
 40
0.2500000000000019
 40
0.2500000000000019
 40
0.3750000000000028
 40
0.3750000000000028
 40
0.5000000000000038
 40
0.5000000000000038
 40
0.6250000000000028
 40
0.6250000000000028
 40
0.7500000000000019
 40
0.7500000000000019
 40
1.0
 40
1.0
 40
1.0
 40
1.0
 10
64.25
 20
44.56250000000001
 30
0.0
 10
63.93061588326398
 20
44.56250000000001
 30
0.0
 10
63.61682062869545
 20
44.56568172357153
 30
0.0
 10
62.99849970433235
 20
44.57857978955749
 30
0.0
 10
62.69104182333889
 20
44.58845070517893
 30
0.0
 10
62.10196440433571
 20
44.6184059685834
 30
0.0
 10
61.82277328657702
 20
44.63850691681365
 30
0.0
 10
61.29282294751842
 20
44.69383676353166
 30
0.0
 10
61.03954120053167
 20
44.72950557425006
 30
0.0
 10
60.58404279652327
 20
44.82044092740138
 30
0.0
 10
60.37982130142955
 20
44.87575794795965
 30
0.0
 10
60.01608655927426
 20
45.01237121951873
 30
0.0
 10
59.85790222392938
 20
45.09398040876547
 30
0.0
 10
59.47229517413964
 20
45.37579306520835
 30
0.0
 10
59.32310144791038
 20
45.61982485191872
 30
0.0
 10
59.271631006757
 20
45.91314908900007
 30
0.0
  0
LINE
  5
8F
330
1F
100
AcDbEntity
  8
0
  6
Continuous
 62
     7
370
    25
100
AcDbLine
 10
101.75
 20
44.5625
 30
0.0
 11
64.25
 21
44.5625
 31
0.0
  0
SPLINE
  5
90
330
1F
100
AcDbEntity
  8
0
  6
Continuous
 62
     7
370
    25
100
AcDbSpline
210
0.0
220
0.0
230
1.0
 70
     8
 71
     3
 72
     8
 73
     4
 74
     0
 42
0.00000001
 43
0.00000001
 40
0.0
 40
0.0
 40
0.0
 40
0.0
 40
1.0
 40
1.0
 40
1.0
 40
1.0
 10
106.75
 20
46.1746824526945
 30
0.0
 10
106.75
 20
46.08466511723801
 30
0.0
 10
106.7431076375844
 20
45.99714296023988
 30
0.0
 10
106.7283689932418
 20
45.91314908899301
 30
0.0
  0
SPLINE
  5
91
330
1F
100
AcDbEntity
  8
0
  6
Continuous
 62
     7
370
    25
100
AcDbSpline
210
0.0
220
0.0
230
1.0
 70
     8
 71
     3
 72
     8
 73
     4
 74
     0
 42
0.00000001
 43
0.00000001
 40
0.0
 40
0.0
 40
0.0
 40
0.0
 40
1.0
 40
1.0
 40
1.0
 40
1.0
 10
59.27163100675825
 20
45.91314908899301
 30
0.0
 10
59.25689236241562
 20
45.99714296023976
 30
0.0
 10
59.25
 20
46.08466511723801
 30
0.0
 10
59.25
 20
46.1746824526945
 30
0.0
  0
LINE
  5
92
330
1F
100
AcDbEntity
  8
0
  6
Continuous
 62
     7
370
    25
100
AcDbLine
 10
59.25
 20
46.1746824527
 30
0.0
 11
59.25
 21
67.8253175473
 31
0.0
  0
SPLINE
  5
93
330
1F
100
AcDbEntity
  8
0
  6
Continuous
 62
     7
370
    25
100
AcDbSpline
210
0.0
220
0.0
230
1.0
 70
     8
 71
     3
 72
     8
 73
     4
 74
     0
 42
0.00000001
 43
0.00000001
 40
0.0
 40
0.0
 40
0.0
 40
0.0
 40
1.0
 40
1.0
 40
1.0
 40
1.0
 10
59.25
 20
67.8253175473055
 30
0.0
 10
59.25
 20
67.91533488276201
 30
0.0
 10
59.25689236241562
 20
68.00285703976013
 30
0.0
 10
59.27163100675825
 20
68.08685091100699
 30
0.0
  0
SPLINE
  5
94
330
1F
100
AcDbEntity
  8
0
  6
Continuous
 62
     7
370
    25
100
AcDbSpline
210
0.0
220
0.0
230
1.0
 70
     8
 71
     3
 72
     8
 73
     4
 74
     0
 42
0.00000001
 43
0.00000001
 40
0.0
 40
0.0
 40
0.0
 40
0.0
 40
1.0
 40
1.0
 40
1.0
 40
1.0
 10
106.7283689932418
 20
68.08685091100699
 30
0.0
 10
106.7431076375844
 20
68.00285703976013
 30
0.0
 10
106.75
 20
67.91533488276201
 30
0.0
 10
106.75
 20
67.8253175473055
 30
0.0
  0
LINE
  5
95
330
1F
100
AcDbEntity
  8
0
  6
Continuous
 62
     7
370
    25
100
AcDbLine
 10
106.75
 20
67.8253175473
 30
0.0
 11
106.75
 21
46.1746824527
 31
0.0
  0
SPLINE
  5
96
330
1F
100
AcDbEntity
  8
0
  6
Continuous
 62
     7
370
    25
100
AcDbSpline
210
0.0
220
0.0
230
1.0
 70
     8
 71
     3
 72
    42
 73
    38
 74
     0
 42
0.00000001
 43
0.00000001
 40
0.0
 40
0.0
 40
0.0
 40
0.0
 40
0.0624999999999995
 40
0.0624999999999995
 40
0.0937499999999994
 40
0.0937499999999994
 40
0.1249999999999993
 40
0.1249999999999993
 40
0.1874999999999993
 40
0.1874999999999993
 40
0.2499999999999993
 40
0.2499999999999993
 40
0.3124999999999996
 40
0.3124999999999996
 40
0.3749999999999998
 40
0.3749999999999998
 40
0.4062499999999999
 40
0.4062499999999999
 40
0.4375000000000001
 40
0.4375000000000001
 40
0.5000000000000001
 40
0.5000000000000001
 40
0.5625000000000002
 40
0.5625000000000002
 40
0.6250000000000004
 40
0.6250000000000004
 40
0.6875000000000006
 40
0.6875000000000006
 40
0.7500000000000007
 40
0.7500000000000007
 40
0.8125000000000006
 40
0.8125000000000006
 40
0.8750000000000003
 40
0.8750000000000003
 40
0.9375000000000002
 40
0.9375000000000002
 40
1.0
 40
1.0
 40
1.0
 40
1.0
 10
70.5004558290567
 20
61.61784179491116
 30
0.0
 10
70.19013583430876
 20
61.61722891088078
 30
0.0
 10
69.88495769828691
 20
61.58903590863351
 30
0.0
 10
69.43494779432335
 20
61.5047846257009
 30
0.0
 10
69.2862534571462
 20
61.46961422139395
 30
0.0
 10
68.9916860155028
 20
61.38384893882886
 30
0.0
 10
68.84549570812797
 20
61.33284211128171
 30
0.0
 10
68.42088623578007
 20
61.16089420749085
 30
0.0
 10
68.15259107509993
 20
61.02086458423167
 30
0.0
 10
67.64287834485164
 20
60.69281685447903
 30
0.0
 10
67.40120937219145
 20
60.50328853422791
 30
0.0
 10
66.9710899011485
 20
60.08379229156047
 30
0.0
 10
66.77987837146568
 20
59.85217690711281
 30
0.0
 10
66.4406111104973
 20
59.34742741128157
 30
0.0
 10
66.2946210154134
 20
59.0784611808598
 30
0.0
 10
66.11633866248643
 20
58.65965619295832
 30
0.0
 10
66.06355214267752
 20
58.51693809606152
 30
0.0
 10
65.97289241093719
 20
58.22449586846058
 30
0.0
 10
65.93473529248361
 20
58.07388602286863
 30
0.0
 10
65.84388358567524
 20
57.62090174980949
 30
0.0
 10
65.81352509514235
 20
57.31649826223984
 30
0.0
 10
65.81208594710844
 20
56.70292089510586
 30
0.0
 10
65.84365890743071
 20
56.39117323370172
 30
0.0
 10
65.96218231704404
 20
55.78987720874797
 30
0.0
 10
66.04937494485532
 20
55.49738841064055
 30
0.0
 10
66.28730250124025
 20
54.93039728550893
 30
0.0
 10
66.43334672259441
 20
54.66186480635604
 30
0.0
 10
66.77068596786884
 20
54.15943675800573
 30
0.0
 10
66.96561653076907
 20
53.92196351657945
 30
0.0
 10
67.39822952063868
 20
53.49810214303508
 30
0.0
 10
67.63464962182259
 20
53.31166194731047
 30
0.0
 10
68.14336281161977
 20
52.9827459296059
 30
0.0
 10
68.41720010668749
 20
52.83982265039108
 30
0.0
 10
68.98036601358854
 20
52.61116062790094
 30
0.0
 10
69.27258248222371
 20
52.52476886923612
 30
0.0
 10
69.87914741399973
 20
52.40872361724791
 30
0.0
 10
70.18905054087867
 20
52.37938541399986
 30
0.0
 10
70.5
 20
52.37938541399986
 30
0.0
  0
SPLINE
  5
97
330
1F
100
AcDbEntity
  8
0
  6
Continuous
 62
     7
370
    25
100
AcDbSpline
210
0.0
220
0.0
230
1.0
 70
     8
 71
     3
 72
    40
 73
    36
 74
     0
 42
0.00000001
 43
0.00000001
 40
0.0
 40
0.0
 40
0.0
 40
0.0
 40
0.0625
 40
0.0625
 40
0.125
 40
0.125
 40
0.1874999999999999
 40
0.1874999999999999
 40
0.25
 40
0.25
 40
0.3125000000000001
 40
0.3125000000000001
 40
0.3750000000000001
 40
0.3750000000000001
 40
0.4062500000000001
 40
0.4062500000000001
 40
0.4375000000000001
 40
0.4375000000000001
 40
0.5000000000000001
 40
0.5000000000000001
 40
0.5625000000000001
 40
0.5625000000000001
 40
0.6250000000000001
 40
0.6250000000000001
 40
0.6875000000000001
 40
0.6875000000000001
 40
0.75
 40
0.75
 40
0.8125
 40
0.8125
 40
0.875
 40
0.875
 40
0.9375
 40
0.9375
 40
1.0
 40
1.0
 40
1.0
 40
1.0
 10
70.5
 20
52.37938541399987
 30
0.0
 10
70.81079512293567
 20
52.37938541399987
 30
0.0
 10
71.11620539962767
 20
52.40863482871145
 30
0.0
 10
71.71689944700734
 20
52.52261877914597
 30
0.0
 10
72.01526891120865
 20
52.60960844640558
 30
0.0
 10
72.58157547824452
 20
52.83841293495298
 30
0.0
 10
72.85014149915537
 20
52.97828378788632
 30
0.0
 10
73.35982708007941
 20
53.30775760962073
 30
0.0
 10
73.60083984858028
 20
53.49809454585156
 30
0.0
 10
74.02965341592348
 20
53.91976243904891
 30
0.0
 10
74.22123365788991
 20
54.15200463447142
 30
0.0
 10
74.56339091784409
 20
54.65689408742348
 30
0.0
 10
74.70983334027694
 20
54.92423455783392
 30
0.0
 10
74.88785932638395
 20
55.34291514027762
 30
0.0
 10
74.94031061405951
 20
55.48578009021341
 30
0.0
 10
75.03011408697695
 20
55.77878289953875
 30
0.0
 10
75.06780709618937
 20
55.92967393950125
 30
0.0
 10
75.1578783246313
 20
56.38282484356057
 30
0.0
 10
75.18859762819893
 20
56.68755722596492
 30
0.0
 10
75.18889160428171
 20
57.3025109940987
 30
0.0
 10
75.16038395537285
 20
57.61455878101104
 30
0.0
 10
75.03833541009394
 20
58.21360741884395
 30
0.0
 10
74.94727054136312
 20
58.50462299543574
 30
0.0
 10
74.71037381680162
 20
59.07123261420435
 30
0.0
 10
74.56718247570014
 20
59.34000851605527
 30
0.0
 10
74.23045698856819
 20
59.84119723962404
 30
0.0
 10
74.03212756871197
 20
60.07550869708725
 30
0.0
 10
73.60024898941991
 20
60.49951953594105
 30
0.0
 10
73.36500853350755
 20
60.68761815963412
 30
0.0
 10
72.85670417582341
 20
61.01873029575727
 30
0.0
 10
72.58283080397827
 20
61.16071471964054
 30
0.0
 10
72.0188629662937
 20
61.38521433868015
 30
0.0
 10
71.72637017948827
 20
61.47070803603674
 30
0.0
 10
71.11975911831082
 20
61.58794660747029
 30
0.0
 10
70.81111569928048
 20
61.61845513451708
 30
0.0
 10
70.50045742221909
 20
61.61784179805657
 30
0.0
  0
SPLINE
  5
98
330
1F
100
AcDbEntity
  8
0
  6
Continuous
 62
     7
370
    25
100
AcDbSpline
210
0.0
220
0.0
230
1.0
 70
     8
 71
     3
 72
    38
 73
    34
 74
     0
 42
0.00000001
 43
0.00000001
 40
0.0
 40
0.0
 40
0.0
 40
0.0
 40
0.0625
 40
0.0625
 40
0.125
 40
0.125
 40
0.1875000000000001
 40
0.1875000000000001
 40
0.25
 40
0.25
 40
0.3124999999999999
 40
0.3124999999999999
 40
0.3749999999999999
 40
0.3749999999999999
 40
0.4374999999999999
 40
0.4374999999999999
 40
0.4999999999999999
 40
0.4999999999999999
 40
0.5624999999999999
 40
0.5624999999999999
 40
0.6249999999999999
 40
0.6249999999999999
 40
0.6874999999999999
 40
0.6874999999999999
 40
0.7499999999999999
 40
0.7499999999999999
 40
0.8125
 40
0.8125
 40
0.875
 40
0.875
 40
0.9375
 40
0.9375
 40
1.0
 40
1.0
 40
1.0
 40
1.0
 10
95.5023328389459
 20
61.61918481196313
 30
0.0
 10
95.19111011526687
 20
61.61868579713031
 30
0.0
 10
94.8852033594722
 20
61.58952753675148
 30
0.0
 10
94.28369609107098
 20
61.4751765853148
 30
0.0
 10
93.98480610895038
 20
61.38848171655852
 30
0.0
 10
93.41739649144235
 20
61.16021790538134
 30
0.0
 10
93.14882325976488
 20
61.01991804739851
 30
0.0
 10
92.63913154336458
 20
60.68998701317413
 30
0.0
 10
92.39759262787197
 20
60.49929535357322
 30
0.0
 10
91.96861893444665
 20
60.07625380544231
 30
0.0
 10
91.77480425916092
 20
59.84533072553734
 30
0.0
 10
91.43122074990252
 20
59.34066788708448
 30
0.0
 10
91.28716754445503
 20
59.0715033544604
 30
0.0
 10
91.05554584241604
 20
58.51061616699864
 30
0.0
 10
90.96472220151989
 20
58.21502953841505
 30
0.0
 10
90.84233758154754
 20
57.6114927509455
 30
0.0
 10
90.81213553598172
 20
57.30721900266222
 30
0.0
 10
90.81307746958696
 20
56.69368212257816
 30
0.0
 10
90.84433195486399
 20
56.38210604602827
 30
0.0
 10
90.96372193291101
 20
55.78159881037804
 30
0.0
 10
91.05215130648784
 20
55.48958762462249
 30
0.0
 10
91.2894007295748
 20
54.92250437133941
 30
0.0
 10
91.43570979027261
 20
54.65533836898143
 30
0.0
 10
91.77476158215858
 20
54.15525440735799
 30
0.0
 10
91.97028122624666
 20
53.9188145714681
 30
0.0
 10
92.4018058900931
 20
53.49562612043516
 30
0.0
 10
92.63757190782889
 20
53.30917870066217
 30
0.0
 10
93.14623674157859
 20
52.9813333356522
 30
0.0
 10
93.41973166285288
 20
52.83909454033993
 30
0.0
 10
93.98181825012841
 20
52.61028835915528
 30
0.0
 10
94.27344565300554
 20
52.52315161954816
 30
0.0
 10
94.88009308553774
 20
52.4076304014397
 30
0.0
 10
95.18939849540958
 20
52.37938541399986
 30
0.0
 10
95.5
 20
52.37938541399986
 30
0.0
  0
SPLINE
  5
99
330
1F
100
AcDbEntity
  8
0
  6
Continuous
 62
     7
370
    25
100
AcDbSpline
210
0.0
220
0.0
230
1.0
 70
     8
 71
     3
 72
    40
 73
    36
 74
     0
 42
0.00000001
 43
0.00000001
 40
0.0
 40
0.0
 40
0.0
 40
0.0
 40
0.0624999999999999
 40
0.0624999999999999
 40
0.1249999999999998
 40
0.1249999999999998
 40
0.1874999999999998
 40
0.1874999999999998
 40
0.2499999999999997
 40
0.2499999999999997
 40
0.3124999999999996
 40
0.3124999999999996
 40
0.3749999999999995
 40
0.3749999999999995
 40
0.4062499999999994
 40
0.4062499999999994
 40
0.4374999999999994
 40
0.4374999999999994
 40
0.4999999999999993
 40
0.4999999999999993
 40
0.5624999999999992
 40
0.5624999999999992
 40
0.6249999999999991
 40
0.6249999999999991
 40
0.6874999999999991
 40
0.6874999999999991
 40
0.749999999999999
 40
0.749999999999999
 40
0.8124999999999992
 40
0.8124999999999992
 40
0.8749999999999994
 40
0.8749999999999994
 40
0.9374999999999998
 40
0.9374999999999998
 40
1.0
 40
1.0
 40
1.0
 40
1.0
 10
95.5
 20
52.37938541399987
 30
0.0
 10
95.8109632485556
 20
52.37938541399987
 30
0.0
 10
96.11635674854084
 20
52.40964647938504
 30
0.0
 10
96.71720828775769
 20
52.52463367147582
 30
0.0
 10
97.01589980884462
 20
52.6109319721962
 30
0.0
 10
97.58264065897455
 20
52.83758700676894
 30
0.0
 10
97.85049823332135
 20
52.97794626347461
 30
0.0
 10
98.35882460509953
 20
53.30829884321316
 30
0.0
 10
98.5993283472153
 20
53.49905919954429
 30
0.0
 10
99.02983127137799
 20
53.91945514875916
 30
0.0
 10
99.22150526896448
 20
54.15177514635142
 30
0.0
 10
99.56359561806563
 20
54.65717286589877
 30
0.0
 10
99.7095459794293
 20
54.92427570052343
 30
0.0
 10
99.88536933160653
 20
55.34371735250755
 30
0.0
 10
99.93676670893214
 20
55.48697923656963
 30
0.0
 10
100.0257426976372
 20
55.78023538963637
 30
0.0
 10
100.0634197005382
 20
55.93100564268317
 30
0.0
 10
100.1536908123619
 20
56.38371252440638
 30
0.0
 10
100.1850349945226
 20
56.688242362
 30
0.0
 10
100.1881100038998
 20
57.30294504379103
 30
0.0
 10
100.1573378503664
 20
57.61480821136694
 30
0.0
 10
100.0354121181577
 20
58.21452995017526
 30
0.0
 10
99.94706941409169
 20
58.50672790652175
 30
0.0
 10
99.71289406926441
 20
59.07538136716896
 30
0.0
 10
99.56875052724925
 20
59.34290777492502
 30
0.0
 10
99.23027808963054
 20
59.84253525186582
 30
0.0
 10
99.03318861016214
 20
60.07749662280849
 30
0.0
 10
98.60077137059959
 20
60.50060099489665
 30
0.0
 10
98.36614940179206
 20
60.68923599023609
 30
0.0
 10
97.85802209358502
 20
61.02013327191186
 30
0.0
 10
97.58400061193944
 20
61.16159063077024
 30
0.0
 10
97.01999811435815
 20
61.38603302716973
 30
0.0
 10
96.72762870574658
 20
61.47208456607518
 30
0.0
 10
96.1210918611789
 20
61.59049904123349
 30
0.0
 10
95.81278278912635
 20
61.61968251121677
 30
0.0
 10
95.50233283876413
 20
61.61918481196265
 30
0.0
  0
SPLINE
  5
9A
330
1F
100
AcDbEntity
  8
0
  6
Continuous
 62
     7
370
    25
100
AcDbSpline
210
0.0
220
0.0
230
1.0
 70
    24
 71
     3
 72
     8
 73
     4
 74
     0
 42
0.00000001
 43
0.00000001
 40
0.0
 40
0.0
 40
0.0
 40
0.0
 40
1.0
 40
1.0
 40
1.0
 40
1.0
 10
108.0
 20
44.7528500735405
 30
0.0
 10
108.0
 20
44.86216449481725
 30
0.0
 10
108.0
 20
44.9756576756085
 30
0.0
 10
108.0
 20
45.092150697964
 30
0.0
  0
SPLINE
  5
9B
330
1F
100
AcDbEntity
  8
0
  6
Continuous
 62
     7
370
    25
100
AcDbSpline
210
0.0
220
0.0
230
1.0
 70
    24
 71
     3
 72
     8
 73
     4
 74
     0
 42
0.00000001
 43
0.00000001
 40
0.0
 40
0.0
 40
0.0
 40
0.0
 40
1.0
 40
1.0
 40
1.0
 40
1.0
 10
108.0
 20
68.907849302036
 30
0.0
 10
108.0
 20
69.0243423243915
 30
0.0
 10
108.0
 20
69.13783550518275
 30
0.0
 10
108.0
 20
69.2471499264595
 30
0.0
  0
SPLINE
  5
9C
330
1F
100
AcDbEntity
  8
0
  6
Continuous
 62
     7
370
    25
100
AcDbSpline
210
0.0
220
0.0
230
1.0
 70
    24
 71
     3
 72
     8
 73
     4
 74
     0
 42
0.00000001
 43
0.00000001
 40
0.0
 40
0.0
 40
0.0
 40
0.0
 40
1.0
 40
1.0
 40
1.0
 40
1.0
 10
57.99999999999999
 20
45.092150697964
 30
0.0
 10
57.99999999999999
 20
44.9756576756085
 30
0.0
 10
57.99999999999999
 20
44.86216449481725
 30
0.0
 10
57.99999999999999
 20
44.7528500735405
 30
0.0
  0
SPLINE
  5
9D
330
1F
100
AcDbEntity
  8
0
  6
Continuous
 62
     7
370
    25
100
AcDbSpline
210
0.0
220
0.0
230
1.0
 70
    24
 71
     3
 72
     8
 73
     4
 74
     0
 42
0.00000001
 43
0.00000001
 40
0.0
 40
0.0
 40
0.0
 40
0.0
 40
1.0
 40
1.0
 40
1.0
 40
1.0
 10
57.99999999999999
 20
69.2471499264595
 30
0.0
 10
57.99999999999999
 20
69.13783550518275
 30
0.0
 10
57.99999999999999
 20
69.0243423243915
 30
0.0
 10
57.99999999999999
 20
68.907849302036
 30
0.0
  0
LINE
  5
9E
330
1F
100
AcDbEntity
  8
0
  6
Continuous
 62
     7
370
    25
100
AcDbLine
 10
108.0
 20
45.092150698
 30
0.0
 11
108.0
 21
68.907849302
 31
0.0
  0
LINE
  5
9F
330
1F
100
AcDbEntity
  8
0
  6
Continuous
 62
     7
370
    25
100
AcDbLine
 10
58.0
 20
68.907849302
 30
0.0
 11
58.0
 21
45.092150698
 31
0.0
  0
SPLINE
  5
A0
330
1F
100
AcDbEntity
  8
0
  6
Continuous
 62
     7
370
    25
100
AcDbSpline
210
0.0
220
0.0
230
1.0
 70
     8
 71
     3
 72
    38
 73
    34
 74
     0
 42
0.00000001
 43
0.00000001
 40
0.0
 40
0.0
 40
0.0
 40
0.0
 40
0.0625
 40
0.0625
 40
0.125
 40
0.125
 40
0.1875
 40
0.1875
 40
0.25
 40
0.25
 40
0.3125
 40
0.3125
 40
0.375
 40
0.375
 40
0.4375
 40
0.4375
 40
0.5
 40
0.5
 40
0.5625
 40
0.5625
 40
0.625
 40
0.625
 40
0.6875
 40
0.6875
 40
0.75
 40
0.75
 40
0.8125
 40
0.8125
 40
0.875
 40
0.875
 40
0.9375
 40
0.9375
 40
1.0
 40
1.0
 40
1.0
 40
1.0
 10
70.49987980508511
 20
60.43749999789864
 30
0.0
 10
70.72792003109818
 20
60.43750797150608
 30
0.0
 10
70.95216223535608
 20
60.41504881945255
 30
0.0
 10
71.39336336303094
 20
60.32699729905519
 30
0.0
 10
71.61225824173013
 20
60.26030431677756
 30
0.0
 10
72.02644263573231
 20
60.08815082437914
 30
0.0
 10
72.22331822043321
 20
59.98278797481348
 30
0.0
 10
72.59678406237344
 20
59.73319344125981
 30
0.0
 10
72.77136982875027
 20
59.58975303758239
 30
0.0
 10
73.08635992634038
 20
59.27523274107174
 30
0.0
 10
73.22927828622392
 20
59.10200127607482
 30
0.0
 10
73.48073985655715
 20
58.72700875382993
 30
0.0
 10
73.58643959101327
 20
58.52983540952317
 30
0.0
 10
73.75876423267388
 20
58.11667426094206
 30
0.0
 10
73.82569039030442
 20
57.89877530664388
 30
0.0
 10
73.91504461924228
 20
57.45330328984054
 30
0.0
 10
73.93769017437585
 20
57.22511264714888
 30
0.0
 10
73.93730740349295
 20
56.76911636524181
 30
0.0
 10
73.91466294380726
 20
56.54478402103817
 30
0.0
 10
73.82606042371316
 20
56.10307934290613
 30
0.0
 10
73.75898017973857
 20
55.88384415535021
 30
0.0
 10
73.5862266728769
 20
55.46965343627729
 30
0.0
 10
73.48058444687604
 20
55.27284298104856
 30
0.0
 10
73.23022424128803
 20
54.89932615445525
 30
0.0
 10
73.086395350677
 20
54.72478683396938
 30
0.0
 10
72.771090196962
 20
54.40998355639472
 30
0.0
 10
72.59763494730761
 20
54.26742264237902
 30
0.0
 10
72.22346733912113
 20
54.01726439010566
 30
0.0
 10
72.02674277548267
 20
53.91205185005699
 30
0.0
 10
71.61399661370342
 20
53.74034068898568
 30
0.0
 10
71.39558562404385
 20
53.67353933689976
 30
0.0
 10
70.95265799923004
 20
53.58495755679664
 30
0.0
 10
70.72800715139228
 20
53.5625
 30
0.0
 10
70.5
 20
53.5625
 30
0.0
  0
SPLINE
  5
A1
330
1F
100
AcDbEntity
  8
0
  6
Continuous
 62
     7
370
    25
100
AcDbSpline
210
0.0
220
0.0
230
1.0
 70
     8
 71
     3
 72
    36
 73
    32
 74
     0
 42
0.00000001
 43
0.00000001
 40
0.0
 40
0.0
 40
0.0
 40
0.0
 40
0.0625000000000002
 40
0.0625000000000002
 40
0.1250000000000004
 40
0.1250000000000004
 40
0.1875000000000007
 40
0.1875000000000007
 40
0.2500000000000009
 40
0.2500000000000009
 40
0.3750000000000009
 40
0.3750000000000009
 40
0.4375000000000007
 40
0.4375000000000007
 40
0.5000000000000006
 40
0.5000000000000006
 40
0.5625000000000003
 40
0.5625000000000003
 40
0.6250000000000001
 40
0.6250000000000001
 40
0.6875000000000001
 40
0.6875000000000001
 40
0.7500000000000001
 40
0.7500000000000001
 40
0.8125000000000001
 40
0.8125000000000001
 40
0.8750000000000001
 40
0.8750000000000001
 40
0.9375000000000001
 40
0.9375000000000001
 40
1.0
 40
1.0
 40
1.0
 40
1.0
 10
95.50186397786317
 20
60.43749949463073
 30
0.0
 10
95.72963435155062
 20
60.43737598655892
 30
0.0
 10
95.95355891089545
 20
60.41484483754213
 30
0.0
 10
96.39417211593425
 20
60.32676076344941
 30
0.0
 10
96.61278426610426
 20
60.26010684696515
 30
0.0
 10
97.02647097195278
 20
60.0881178488367
 30
0.0
 10
97.22305448034574
 20
59.982918363644
 30
0.0
 10
97.59607707776959
 20
59.73371168751442
 30
0.0
 10
97.77187114153982
 20
59.58955951713459
 30
0.0
 10
98.24993543727878
 20
59.1112802388535
 30
0.0
 10
98.5052938681603
 20
58.72903644350847
 30
0.0
 10
98.76418388991777
 20
58.10124828469644
 30
0.0
 10
98.82877050221622
 20
57.88656776654135
 30
0.0
 10
98.91575243899956
 20
57.4464871068278
 30
0.0
 10
98.938054426221
 20
57.21912080879763
 30
0.0
 10
98.9369243992372
 20
56.76381608769011
 30
0.0
 10
98.9139802671903
 20
56.53982229235305
 30
0.0
 10
98.82487509136517
 20
56.09876173283676
 30
0.0
 10
98.75759930349628
 20
55.87984308945074
 30
0.0
 10
98.58443831840184
 20
55.46606878043211
 30
0.0
 10
98.47866516504975
 20
55.26957142209499
 30
0.0
 10
98.22823627684271
 20
54.89677484647256
 30
0.0
 10
98.08431309320105
 20
54.72244740892494
 30
0.0
 10
97.76911423489413
 20
54.40827459830255
 30
0.0
 10
97.59594272839637
 20
54.26613279487704
 30
0.0
 10
97.22179645771331
 20
54.01630719172192
 30
0.0
 10
97.0250906844888
 20
53.91125626613432
 30
0.0
 10
96.61279585949109
 20
53.73995018067077
 30
0.0
 10
96.39480330379656
 20
53.67334077743401
 30
0.0
 10
95.95220528633686
 20
53.58490923772477
 30
0.0
 10
95.72773208943804
 20
53.5625
 30
0.0
 10
95.5
 20
53.5625
 30
0.0
  0
SPLINE
  5
A2
330
1F
100
AcDbEntity
  8
0
  6
Continuous
 62
     7
370
    25
100
AcDbSpline
210
0.0
220
0.0
230
1.0
 70
     8
 71
     3
 72
    38
 73
    34
 74
     0
 42
0.00000001
 43
0.00000001
 40
0.0
 40
0.0
 40
0.0
 40
0.0
 40
0.0625
 40
0.0625
 40
0.125
 40
0.125
 40
0.1874999999999999
 40
0.1874999999999999
 40
0.2499999999999999
 40
0.2499999999999999
 40
0.3124999999999999
 40
0.3124999999999999
 40
0.3749999999999999
 40
0.3749999999999999
 40
0.4374999999999999
 40
0.4374999999999999
 40
0.5
 40
0.5
 40
0.5625
 40
0.5625
 40
0.6250000000000001
 40
0.6250000000000001
 40
0.6875000000000001
 40
0.6875000000000001
 40
0.75
 40
0.75
 40
0.8125
 40
0.8125
 40
0.875
 40
0.875
 40
0.9375
 40
0.9375
 40
1.0
 40
1.0
 40
1.0
 40
1.0
 10
95.5
 20
53.56250000000001
 30
0.0
 10
95.27165564098965
 20
53.5625
 30
0.0
 10
95.04719401348511
 20
53.5850155563216
 30
0.0
 10
94.60539509712802
 20
53.67331485112484
 30
0.0
 10
94.38610885883692
 20
53.74023499151117
 30
0.0
 10
93.97153512032149
 20
53.91283034212255
 30
0.0
 10
93.77467353811677
 20
54.01836552184673
 30
0.0
 10
93.40121364003812
 20
54.26833542018336
 30
0.0
 10
93.22669839310394
 20
54.41190704009576
 30
0.0
 10
92.91139559325892
 20
54.72728079375766
 30
0.0
 10
92.76830565496181
 20
54.90114815420066
 30
0.0
 10
92.51735693618446
 20
55.27629079621822
 30
0.0
 10
92.41187462864816
 20
55.47353285755279
 30
0.0
 10
92.2398361692772
 20
55.8873670672658
 30
0.0
 10
92.17296425452524
 20
56.1065865381054
 30
0.0
 10
92.08470612138007
 20
56.54930920996498
 30
0.0
 10
92.06256396847134
 20
56.77299359275569
 30
0.0
 10
92.06243630565929
 20
57.22506493981108
 30
0.0
 10
92.08515064836857
 20
57.45361149526357
 30
0.0
 10
92.17333213229678
 20
57.89456155795099
 30
0.0
 10
92.23862570736745
 20
58.10971351440863
 30
0.0
 10
92.41305083887214
 20
58.52930416769117
 30
0.0
 10
92.51941839341909
 20
58.72697952824859
 30
0.0
 10
92.76804599995043
 20
59.0982736585325
 30
0.0
 10
92.91222138912622
 20
59.27376545021355
 30
0.0
 10
93.22927052435806
 20
59.59044303352371
 30
0.0
 10
93.40145390316108
 20
59.73176966745407
 30
0.0
 10
93.77325257539876
 20
59.98073892989859
 30
0.0
 10
93.97415375530065
 20
60.08840999674659
 30
0.0
 10
94.38744112233047
 20
60.26016806532824
 30
0.0
 10
94.60170198457642
 20
60.32578734809814
 30
0.0
 10
95.04625502101227
 20
60.41495480253064
 30
0.0
 10
95.27365528897006
 20
60.43762324046374
 30
0.0
 10
95.50186397915216
 20
60.43749949463003
 30
0.0
  0
SPLINE
  5
A3
330
1F
100
AcDbEntity
  8
0
  6
Continuous
 62
     7
370
    25
100
AcDbSpline
210
0.0
220
0.0
230
1.0
 70
     8
 71
     3
 72
    38
 73
    34
 74
     0
 42
0.00000001
 43
0.00000001
 40
0.0
 40
0.0
 40
0.0
 40
0.0
 40
0.0625
 40
0.0625
 40
0.125
 40
0.125
 40
0.1875000000000001
 40
0.1875000000000001
 40
0.2500000000000001
 40
0.2500000000000001
 40
0.3125000000000001
 40
0.3125000000000001
 40
0.375
 40
0.375
 40
0.4375
 40
0.4375
 40
0.4999999999999999
 40
0.4999999999999999
 40
0.5624999999999999
 40
0.5624999999999999
 40
0.6249999999999998
 40
0.6249999999999998
 40
0.6874999999999999
 40
0.6874999999999999
 40
0.7499999999999999
 40
0.7499999999999999
 40
0.8125
 40
0.8125
 40
0.875
 40
0.875
 40
0.9375
 40
0.9375
 40
1.0
 40
1.0
 40
1.0
 40
1.0
 10
70.5
 20
53.56250000000001
 30
0.0
 10
70.2718222984995
 20
53.56250000000001
 30
0.0
 10
70.04743966186678
 20
53.58498785160975
 30
0.0
 10
69.60577698351918
 20
53.67321716517291
 30
0.0
 10
69.38666458859447
 20
53.74005828603526
 30
0.0
 10
68.97240452401155
 20
53.91241392371377
 30
0.0
 10
68.77554959751647
 20
54.01786079041353
 30
0.0
 10
68.402059182391
 20
54.26768819828543
 30
0.0
 10
68.22782711202055
 20
54.4109286078868
 30
0.0
 10
67.91258071602348
 20
54.72594596475054
 30
0.0
 10
67.76924551268144
 20
54.89994333580116
 30
0.0
 10
67.51829735931855
 20
55.27468628203165
 30
0.0
 10
67.41278266070317
 20
55.47171529151338
 30
0.0
 10
67.24058010791104
 20
55.88521436262216
 30
0.0
 10
67.17354190220222
 20
56.10447603469542
 30
0.0
 10
67.08504227222608
 20
56.54684399335723
 30
0.0
 10
67.06273200255242
 20
56.77042945457121
 30
0.0
 10
67.0622715623141
 20
57.22256933825533
 30
0.0
 10
67.08480173318324
 20
57.45097280624714
 30
0.0
 10
67.17263809923821
 20
57.89197446992699
 30
0.0
 10
67.23783861404216
 20
58.10737426995256
 30
0.0
 10
67.41186208735523
 20
58.52688536382842
 30
0.0
 10
67.51786474981694
 20
58.72432726960103
 30
0.0
 10
67.76646136478911
 20
59.09623512824384
 30
0.0
 10
67.91093658652781
 20
59.27229907166449
 30
0.0
 10
68.22775592329658
 20
59.58911167892654
 30
0.0
 10
68.39967869761935
 20
59.73040575833648
 30
0.0
 10
68.77133076207517
 20
59.97962545368429
 30
0.0
 10
68.97216280650304
 20
60.08742847693031
 30
0.0
 10
69.38541574855097
 20
60.25947895167536
 30
0.0
 10
69.5997555878778
 20
60.32526753992893
 30
0.0
 10
70.0444465416879
 20
60.41472037805178
 30
0.0
 10
70.27165080670422
 20
60.43749201778748
 30
0.0
 10
70.49987980654358
 20
60.4374999978987
 30
0.0
  0
LINE
  5
A4
330
1F
100
AcDbEntity
  8
0
  6
Continuous
 62
     7
370
    25
100
AcDbLine
 10
108.0
 20
87.0
 30
0.0
 11
126.75
 21
87.0
 31
0.0
  0
LINE
  5
A5
330
1F
100
AcDbEntity
  8
0
  6
Continuous
 62
     7
370
    25
100
AcDbLine
 10
126.75
 20
88.25
 30
0.0
 11
106.75
 21
88.25
 31
0.0
  0
ARC
  5
A6
330
1F
100
AcDbEntity
  8
0
  6
Continuous
 62
     7
370
    25
100
AcDbCircle
 10
39.25
 20
32.0
 30
0.0
 40
5.0
100
AcDbArc
 50
180.0
 51
270.0
  0
LINE
  5
A7
330
1F
100
AcDbEntity
  8
0
  6
Continuous
 62
     7
370
    25
100
AcDbLine
 10
34.25
 20
32.0
 30
0.0
 11
34.25
 21
82.0
 31
0.0
  0
ARC
  5
A8
330
1F
100
AcDbEntity
  8
0
  6
Continuous
 62
     7
370
    25
100
AcDbCircle
 10
39.25
 20
82.0
 30
0.0
 40
5.000000000000014
100
AcDbArc
 50
90.0
 51
180.0
  0
LINE
  5
A9
330
1F
100
AcDbEntity
  8
0
  6
Continuous
 62
     7
370
    25
100
AcDbLine
 10
39.25
 20
87.0
 30
0.0
 11
58.0
 21
87.0
 31
0.0
  0
LINE
  5
AA
330
1F
100
AcDbEntity
  8
0
  6
Continuous
 62
     7
370
    25
100
AcDbLine
 10
58.0
 20
27.0
 30
0.0
 11
39.25
 21
27.0
 31
0.0
  0
CIRCLE
  5
AB
330
1F
100
AcDbEntity
  8
0
  6
Continuous
 62
     7
370
    25
100
AcDbCircle
 10
45.5
 20
57.0
 30
0.0
 40
5.3125
  0
LINE
  5
AC
330
1F
100
AcDbEntity
  8
0
  6
Continuous
 62
     7
370
    25
100
AcDbLine
 10
131.75
 20
82.0
 30
0.0
 11
131.75
 21
32.0
 31
0.0
  0
LINE
  5
AD
330
1F
100
AcDbEntity
  8
0
  6
Continuous
 62
     7
370
    25
100
AcDbLine
 10
133.0
 20
32.0
 30
0.0
 11
133.0
 21
82.0
 31
0.0
  0
ARC
  5
AE
330
1F
100
AcDbEntity
  8
0
  6
Continuous
 62
     7
370
    25
100
AcDbCircle
 10
126.75
 20
82.0
 30
0.0
 40
5.000000000000014
100
AcDbArc
 50
0.0
 51
90.0
  0
ARC
  5
AF
330
1F
100
AcDbEntity
  8
0
  6
Continuous
 62
     7
370
    25
100
AcDbCircle
 10
126.75
 20
82.0
 30
0.0
 40
6.250000000000028
100
AcDbArc
 50
0.0
 51
90.0
  0
ARC
  5
B0
330
1F
100
AcDbEntity
  8
0
  6
Continuous
 62
     7
370
    25
100
AcDbCircle
 10
39.25
 20
82.0
 30
0.0
 40
6.250000000000014
100
AcDbArc
 50
90.0
 51
180.0
  0
LINE
  5
B1
330
1F
100
AcDbEntity
  8
0
  6
Continuous
 62
     7
370
    25
100
AcDbLine
 10
33.0
 20
82.0
 30
0.0
 11
33.0
 21
32.0
 31
0.0
  0
LINE
  5
B2
330
1F
100
AcDbEntity
  8
0
  6
Continuous
 62
     7
370
    25
100
AcDbLine
 10
59.25
 20
88.25
 30
0.0
 11
39.25
 21
88.25
 31
0.0
  0
CIRCLE
  5
B3
330
1F
100
AcDbEntity
  8
0
  6
Continuous
 62
     7
370
    25
100
AcDbCircle
 10
45.5
 20
57.0
 30
0.0
 40
4.0625
  0
ARC
  5
B4
330
1F
100
AcDbEntity
  8
0
  6
Continuous
 62
     7
370
    25
100
AcDbCircle
 10
126.75
 20
32.0
 30
0.0
 40
5.0
100
AcDbArc
 50
270.0
 51
0.0
  0
LINE
  5
B5
330
1F
100
AcDbEntity
  8
0
  6
Continuous
 62
     7
370
    25
100
AcDbLine
 10
126.75
 20
27.0
 30
0.0
 11
108.0
 21
27.0
 31
0.0
  0
CIRCLE
  5
B6
330
1F
100
AcDbEntity
  8
0
  6
Continuous
 62
     7
370
    25
100
AcDbCircle
 10
120.5
 20
57.0
 30
0.0
 40
5.3125
  0
CIRCLE
  5
B7
330
1F
100
AcDbEntity
  8
0
  6
Continuous
 62
     7
370
    25
100
AcDbCircle
 10
120.5
 20
57.0
 30
0.0
 40
4.0625
  0
ARC
  5
B8
330
1F
100
AcDbEntity
  8
0
  6
Continuous
 62
     7
370
    25
100
AcDbCircle
 10
126.75
 20
32.0
 30
0.0
 40
6.250000000000028
100
AcDbArc
 50
270.0
 51
0.0
  0
ARC
  5
B9
330
1F
100
AcDbEntity
  8
0
  6
Continuous
 62
     7
370
    25
100
AcDbCircle
 10
39.25
 20
32.0
 30
0.0
 40
6.25
100
AcDbArc
 50
180.0
 51
270.0
  0
LINE
  5
BA
330
1F
100
AcDbEntity
  8
0
  6
Continuous
 62
     7
370
    25
100
AcDbLine
 10
39.25
 20
25.75
 30
0.0
 11
59.25
 21
25.75
 31
0.0
  0
LINE
  5
BB
330
1F
100
AcDbEntity
  8
0
  6
Continuous
 62
     7
370
    25
100
AcDbLine
 10
106.75
 20
25.75
 30
0.0
 11
126.75
 21
25.75
 31
0.0
  0
LINE
  5
BC
330
1F
100
AcDbEntity
  8
0
  6
HIDDEN
 62
     7
370
    18
100
AcDbLine
 10
70.5
 20
87.0
 30
0.0
 11
69.25
 21
88.25
 31
0.0
  0
LINE
  5
BD
330
1F
100
AcDbEntity
  8
0
  6
HIDDEN
 62
     7
370
    18
100
AcDbLine
 10
95.5
 20
27.0
 30
0.0
 11
96.75
 21
25.75
 31
0.0
  0
LINE
  5
BE
330
1F
100
AcDbEntity
  8
0
  6
HIDDEN
 62
     7
370
    18
100
AcDbLine
 10
70.5
 20
27.0
 30
0.0
 11
69.25
 21
25.75
 31
0.0
  0
LINE
  5
BF
330
1F
100
AcDbEntity
  8
0
  6
HIDDEN
 62
     7
370
    18
100
AcDbLine
 10
95.5
 20
87.0
 30
0.0
 11
96.75
 21
88.25
 31
0.0
  0
LINE
  5
C0
330
1F
100
AcDbEntity
  8
0
  6
HIDDEN
 62
     7
370
    18
100
AcDbLine
 10
70.5
 20
69.5
 30
0.0
 11
70.5
 21
87.0
 31
0.0
  0
LINE
  5
C1
330
1F
100
AcDbEntity
  8
0
  6
HIDDEN
 62
     7
370
    18
100
AcDbLine
 10
70.5
 20
69.5
 30
0.0
 11
76.75
 21
69.5
 31
0.0
  0
LINE
  5
C2
330
1F
100
AcDbEntity
  8
0
  6
HIDDEN
 62
     7
370
    18
100
AcDbLine
 10
76.75
 20
44.5
 30
0.0
 11
70.5
 21
44.5
 31
0.0
  0
LINE
  5
C3
330
1F
100
AcDbEntity
  8
0
  6
HIDDEN
 62
     7
370
    18
100
AcDbLine
 10
70.5
 20
27.0
 30
0.0
 11
70.5
 21
44.5
 31
0.0
  0
LINE
  5
C4
330
1F
100
AcDbEntity
  8
0
  6
HIDDEN
 62
     7
370
    18
100
AcDbLine
 10
95.5
 20
44.5
 30
0.0
 11
95.5
 21
27.0
 31
0.0
  0
LINE
  5
C5
330
1F
100
AcDbEntity
  8
0
  6
HIDDEN
 62
     7
370
    18
100
AcDbLine
 10
95.5
 20
44.5
 30
0.0
 11
89.25
 21
44.5
 31
0.0
  0
LINE
  5
C6
330
1F
100
AcDbEntity
  8
0
  6
HIDDEN
 62
     7
370
    18
100
AcDbLine
 10
95.5
 20
87.0
 30
0.0
 11
95.5
 21
69.5
 31
0.0
  0
LINE
  5
C7
330
1F
100
AcDbEntity
  8
0
  6
HIDDEN
 62
     7
370
    18
100
AcDbLine
 10
89.25
 20
69.5
 30
0.0
 11
95.5
 21
69.5
 31
0.0
  0
LINE
  5
C8
330
1F
100
AcDbEntity
  8
0
  6
HIDDEN
 62
     7
370
    18
100
AcDbLine
 10
76.75
 20
69.5
 30
0.0
 11
89.25
 21
69.5
 31
0.0
  0
LINE
  5
C9
330
1F
100
AcDbEntity
  8
0
  6
HIDDEN
 62
     7
370
    18
100
AcDbLine
 10
76.75
 20
44.5
 30
0.0
 11
89.25
 21
44.5
 31
0.0
  0
CIRCLE
  5
CA
330
1F
100
AcDbEntity
  8
0
  6
HIDDEN
 62
     7
370
    18
100
AcDbCircle
 10
70.5
 20
57.0
 30
0.0
 40
6.25
  0
CIRCLE
  5
CB
330
1F
100
AcDbEntity
  8
0
  6
HIDDEN
 62
     7
370
    18
100
AcDbCircle
 10
95.5
 20
57.0
 30
0.0
 40
6.25
  0
LINE
  5
CC
330
1F
100
AcDbEntity
  8
0
  6
HIDDEN
 62
     7
370
    18
100
AcDbLine
 10
101.75
 20
63.25
 30
0.0
 11
95.5
 21
69.5
 31
0.0
  0
LINE
  5
CD
330
1F
100
AcDbEntity
  8
0
  6
HIDDEN
 62
     7
370
    18
100
AcDbLine
 10
64.25
 20
50.75
 30
0.0
 11
70.5
 21
44.5
 31
0.0
  0
LINE
  5
CE
330
1F
100
AcDbEntity
  8
0
  6
HIDDEN
 62
     7
370
    18
100
AcDbLine
 10
70.5
 20
69.5
 30
0.0
 11
64.25
 21
63.25
 31
0.0
  0
LINE
  5
CF
330
1F
100
AcDbEntity
  8
0
  6
HIDDEN
 62
     7
370
    18
100
AcDbLine
 10
95.5
 20
44.5
 30
0.0
 11
101.75
 21
50.75
 31
0.0
  0
INSERT
  5
DB
330
1F
100
AcDbEntity
  8
10
100
AcDbBlockReference
  2
SW_CENTERMARKSYMBOL_0
 10
95.5
 20
57.0
 30
0.0
  0
INSERT
  5
E7
330
1F
100
AcDbEntity
  8
10
100
AcDbBlockReference
  2
SW_CENTERMARKSYMBOL_1
 10
70.5
 20
57.0
 30
0.0
  0
INSERT
  5
F3
330
1F
100
AcDbEntity
  8
10
100
AcDbBlockReference
  2
SW_CENTERMARKSYMBOL_2
 10
45.5
 20
57.0
 30
0.0
  0
INSERT
  5
FF
330
1F
100
AcDbEntity
  8
10
100
AcDbBlockReference
  2
SW_CENTERMARKSYMBOL_3
 10
120.5
 20
57.0
 30
0.0
  0
LINE
  5
100
330
1F
100
AcDbEntity
  8
0
  6
Continuous
 62
     7
370
    25
100
AcDbLine
 10
39.25
 20
192.3809078798
 30
0.0
 11
34.25
 21
192.3809078798
 31
0.0
  0
LINE
  5
101
330
1F
100
AcDbEntity
  8
0
  6
Continuous
 62
     7
370
    25
100
AcDbLine
 10
33.0
 20
191.1309078798
 30
0.0
 11
39.25
 21
191.1309078798
 31
0.0
  0
LINE
  5
102
330
1F
100
AcDbEntity
  8
0
  6
Continuous
 62
     7
370
    25
100
AcDbLine
 10
34.25
 20
192.3809078798
 30
0.0
 11
33.0
 21
191.1309078798
 31
0.0
  0
LINE
  5
103
330
1F
100
AcDbEntity
  8
0
  6
Continuous
 62
     7
370
    25
100
AcDbLine
 10
39.25
 20
191.1309078798
 30
0.0
 11
64.25
 21
191.1309078798
 31
0.0
  0
ARC
  5
104
330
1F
100
AcDbEntity
  8
0
  6
Continuous
 62
     7
370
    25
100
AcDbCircle
 10
64.25
 20
186.1309078798
 30
0.0
 40
5.0
100
AcDbArc
 50
0.0
 51
90.0
  0
LINE
  5
105
330
1F
100
AcDbEntity
  8
0
  6
Continuous
 62
     7
370
    25
100
AcDbLine
 10
69.25
 20
186.1309078798
 30
0.0
 11
69.25
 21
148.6309078798
 31
0.0
  0
ARC
  5
106
330
1F
100
AcDbEntity
  8
0
  6
Continuous
 62
     7
370
    25
100
AcDbCircle
 10
76.75
 20
148.6309078798
 30
0.0
 40
7.500000000000014
100
AcDbArc
 50
180.0
 51
270.0
  0
LINE
  5
107
330
1F
100
AcDbEntity
  8
0
  6
Continuous
 62
     7
370
    25
100
AcDbLine
 10
76.75
 20
141.1309078798
 30
0.0
 11
89.25
 21
141.1309078798
 31
0.0
  0
ARC
  5
108
330
1F
100
AcDbEntity
  8
0
  6
Continuous
 62
     7
370
    25
100
AcDbCircle
 10
89.25
 20
148.6309078798
 30
0.0
 40
7.499999999999986
100
AcDbArc
 50
270.0
 51
0.0
  0
LINE
  5
109
330
1F
100
AcDbEntity
  8
0
  6
Continuous
 62
     7
370
    25
100
AcDbLine
 10
96.75
 20
148.6309078798
 30
0.0
 11
96.75
 21
186.1309078798
 31
0.0
  0
ARC
  5
10A
330
1F
100
AcDbEntity
  8
0
  6
Continuous
 62
     7
370
    25
100
AcDbCircle
 10
101.75
 20
186.1309078798
 30
0.0
 40
5.000000000000014
100
AcDbArc
 50
90.0
 51
180.0
  0
LINE
  5
10B
330
1F
100
AcDbEntity
  8
0
  6
Continuous
 62
     7
370
    25
100
AcDbLine
 10
101.75
 20
191.1309078798
 30
0.0
 11
126.75
 21
191.1309078798
 31
0.0
  0
LINE
  5
10C
330
1F
100
AcDbEntity
  8
0
  6
Continuous
 62
     7
370
    25
100
AcDbLine
 10
126.75
 20
181.1309078798
 30
0.0
 11
106.75
 21
181.1309078798
 31
0.0
  0
LINE
  5
10D
330
1F
100
AcDbEntity
  8
0
  6
Continuous
 62
     7
370
    25
100
AcDbLine
 10
106.75
 20
181.1309078798
 30
0.0
 11
106.75
 21
129.8809078798
 31
0.0
  0
ARC
  5
10E
330
1F
100
AcDbEntity
  8
0
  6
Continuous
 62
     7
370
    25
100
AcDbCircle
 10
101.75
 20
129.8809078798
 30
0.0
 40
5.0
100
AcDbArc
 50
270.0
 51
0.0
  0
LINE
  5
10F
330
1F
100
AcDbEntity
  8
0
  6
Continuous
 62
     7
370
    25
100
AcDbLine
 10
101.75
 20
124.8809078798
 30
0.0
 11
64.25
 21
124.8809078798
 31
0.0
  0
ARC
  5
110
330
1F
100
AcDbEntity
  8
0
  6
Continuous
 62
     7
370
    25
100
AcDbCircle
 10
64.25
 20
129.8809078798
 30
0.0
 40
5.0
100
AcDbArc
 50
180.0
 51
270.0
  0
LINE
  5
111
330
1F
100
AcDbEntity
  8
0
  6
Continuous
 62
     7
370
    25
100
AcDbLine
 10
59.25
 20
129.8809078798
 30
0.0
 11
59.25
 21
181.1309078798
 31
0.0
  0
LINE
  5
112
330
1F
100
AcDbEntity
  8
0
  6
Continuous
 62
     7
370
    25
100
AcDbLine
 10
59.25
 20
181.1309078798
 30
0.0
 11
39.25
 21
181.1309078798
 31
0.0
  0
LINE
  5
113
330
1F
100
AcDbEntity
  8
0
  6
Continuous
 62
     7
370
    25
100
AcDbLine
 10
33.0
 20
191.1309078798
 30
0.0
 11
33.0
 21
181.1309078798
 31
0.0
  0
LINE
  5
114
330
1F
100
AcDbEntity
  8
0
  6
Continuous
 62
     7
370
    25
100
AcDbLine
 10
39.25
 20
181.1309078798
 30
0.0
 11
33.0
 21
181.1309078798
 31
0.0
  0
LINE
  5
115
330
1F
100
AcDbEntity
  8
0
  6
Continuous
 62
     7
370
    25
100
AcDbLine
 10
131.75
 20
192.3809078798
 30
0.0
 11
126.75
 21
192.3809078798
 31
0.0
  0
LINE
  5
116
330
1F
100
AcDbEntity
  8
0
  6
Continuous
 62
     7
370
    25
100
AcDbLine
 10
131.75
 20
192.3809078798
 30
0.0
 11
133.0
 21
191.1309078798
 31
0.0
  0
LINE
  5
117
330
1F
100
AcDbEntity
  8
0
  6
Continuous
 62
     7
370
    25
100
AcDbLine
 10
126.75
 20
191.1309078798
 30
0.0
 11
133.0
 21
191.1309078798
 31
0.0
  0
LINE
  5
118
330
1F
100
AcDbEntity
  8
0
  6
Continuous
 62
     7
370
    25
100
AcDbLine
 10
126.75
 20
192.3809078798
 30
0.0
 11
101.75
 21
192.3809078798
 31
0.0
  0
LINE
  5
119
330
1F
100
AcDbEntity
  8
0
  6
Continuous
 62
     7
370
    25
100
AcDbLine
 10
64.25
 20
192.3809078798
 30
0.0
 11
39.25
 21
192.3809078798
 31
0.0
  0
LINE
  5
11A
330
1F
100
AcDbEntity
  8
0
  6
Continuous
 62
     7
370
    25
100
AcDbLine
 10
133.0
 20
181.1309078798
 30
0.0
 11
133.0
 21
191.1309078798
 31
0.0
  0
LINE
  5
11B
330
1F
100
AcDbEntity
  8
0
  6
Continuous
 62
     7
370
    25
100
AcDbLine
 10
133.0
 20
181.1309078798
 30
0.0
 11
126.75
 21
181.1309078798
 31
0.0
  0
ARC
  5
11C
330
1F
100
AcDbEntity
  8
0
  6
Continuous
 62
     7
370
    25
100
AcDbCircle
 10
64.25
 20
186.1309078798
 30
0.0
 40
6.25
100
AcDbArc
 50
0.0
 51
90.0
  0
ARC
  5
11D
330
1F
100
AcDbEntity
  8
0
  6
Continuous
 62
     7
370
    25
100
AcDbCircle
 10
101.75
 20
186.1309078798
 30
0.0
 40
6.25
100
AcDbArc
 50
90.0
 51
180.0
  0
LINE
  5
11E
330
1F
100
AcDbEntity
  8
0
  6
Continuous
 62
     7
370
    25
100
AcDbLine
 10
95.5
 20
186.1309078798
 30
0.0
 11
95.5
 21
148.6309078798
 31
0.0
  0
LINE
  5
11F
330
1F
100
AcDbEntity
  8
0
  6
Continuous
 62
     7
370
    25
100
AcDbLine
 10
70.5
 20
148.6309078798
 30
0.0
 11
70.5
 21
186.1309078798
 31
0.0
  0
LINE
  5
120
330
1F
100
AcDbEntity
  8
0
  6
Continuous
 62
     7
370
    25
100
AcDbLine
 10
108.0
 20
179.8809078798
 30
0.0
 11
106.75
 21
181.1309078798
 31
0.0
  0
LINE
  5
121
330
1F
100
AcDbEntity
  8
0
  6
Continuous
 62
     7
370
    25
100
AcDbLine
 10
108.0
 20
129.8809078798
 30
0.0
 11
108.0
 21
179.8809078798
 31
0.0
  0
LINE
  5
122
330
1F
100
AcDbEntity
  8
0
  6
Continuous
 62
     7
370
    25
100
AcDbLine
 10
59.25
 20
181.1309078798
 30
0.0
 11
58.0
 21
179.8809078798
 31
0.0
  0
LINE
  5
123
330
1F
100
AcDbEntity
  8
0
  6
Continuous
 62
     7
370
    25
100
AcDbLine
 10
58.0
 20
179.8809078798
 30
0.0
 11
58.0
 21
129.8809078798
 31
0.0
  0
LINE
  5
124
330
1F
100
AcDbEntity
  8
0
  6
Continuous
 62
     7
370
    25
100
AcDbLine
 10
108.0
 20
179.8809078798
 30
0.0
 11
126.75
 21
179.8809078798
 31
0.0
  0
LINE
  5
125
330
1F
100
AcDbEntity
  8
0
  6
Continuous
 62
     7
370
    25
100
AcDbLine
 10
126.75
 20
179.8809078798
 30
0.0
 11
131.75
 21
179.8809078798
 31
0.0
  0
LINE
  5
126
330
1F
100
AcDbEntity
  8
0
  6
Continuous
 62
     7
370
    25
100
AcDbLine
 10
131.75
 20
179.8809078798
 30
0.0
 11
133.0
 21
181.1309078798
 31
0.0
  0
LINE
  5
127
330
1F
100
AcDbEntity
  8
0
  6
Continuous
 62
     7
370
    25
100
AcDbLine
 10
39.25
 20
179.8809078798
 30
0.0
 11
58.0
 21
179.8809078798
 31
0.0
  0
LINE
  5
128
330
1F
100
AcDbEntity
  8
0
  6
Continuous
 62
     7
370
    25
100
AcDbLine
 10
34.25
 20
179.8809078798
 30
0.0
 11
39.25
 21
179.8809078798
 31
0.0
  0
LINE
  5
129
330
1F
100
AcDbEntity
  8
0
  6
Continuous
 62
     7
370
    25
100
AcDbLine
 10
34.25
 20
179.8809078798
 30
0.0
 11
33.0
 21
181.1309078798
 31
0.0
  0
ARC
  5
12A
330
1F
100
AcDbEntity
  8
0
  6
Continuous
 62
     7
370
    25
100
AcDbCircle
 10
76.75
 20
148.6309078798
 30
0.0
 40
6.25
100
AcDbArc
 50
180.0
 51
270.0
  0
ARC
  5
12B
330
1F
100
AcDbEntity
  8
0
  6
Continuous
 62
     7
370
    25
100
AcDbCircle
 10
89.25
 20
148.6309078798
 30
0.0
 40
6.25
100
AcDbArc
 50
270.0
 51
0.0
  0
LINE
  5
12C
330
1F
100
AcDbEntity
  8
0
  6
Continuous
 62
     7
370
    25
100
AcDbLine
 10
89.25
 20
142.3809078798
 30
0.0
 11
76.75
 21
142.3809078798
 31
0.0
  0
ARC
  5
12D
330
1F
100
AcDbEntity
  8
0
  6
Continuous
 62
     7
370
    25
100
AcDbCircle
 10
101.75
 20
129.8809078798
 30
0.0
 40
6.25
100
AcDbArc
 50
270.0
 51
0.0
  0
ARC
  5
12E
330
1F
100
AcDbEntity
  8
0
  6
Continuous
 62
     7
370
    25
100
AcDbCircle
 10
64.25
 20
129.8809078798
 30
0.0
 40
6.250000000000007
100
AcDbArc
 50
180.0
 51
270.0
  0
LINE
  5
12F
330
1F
100
AcDbEntity
  8
0
  6
Continuous
 62
     7
370
    25
100
AcDbLine
 10
64.25
 20
123.6309078798
 30
0.0
 11
101.75
 21
123.6309078798
 31
0.0
  0
LINE
  5
130
330
1F
100
AcDbEntity
  8
0
  6
Continuous
 62
     7
370
    25
100
AcDbLine
 10
95.5
 20
192.3809078798
 30
0.0
 11
70.5
 21
192.3809078798
 31
0.0
  0
LINE
  5
131
330
1F
100
AcDbEntity
  8
0
  6
Continuous
 62
     7
370
    25
100
AcDbLine
 10
70.5
 20
192.3809078798
 30
0.0
 11
64.25
 21
192.3809078798
 31
0.0
  0
LINE
  5
132
330
1F
100
AcDbEntity
  8
0
  6
Continuous
 62
     7
370
    25
100
AcDbLine
 10
101.75
 20
192.3809078798
 30
0.0
 11
95.5
 21
192.3809078798
 31
0.0
  0
SPLINE
  5
133
330
1F
100
AcDbEntity
  8
0
  6
HIDDEN
 62
     7
370
    18
100
AcDbSpline
210
0.0
220
0.0
230
1.0
 70
     8
 71
     3
 72
    17
 73
    13
 74
     0
 42
0.00000001
 43
0.00000001
 40
0.0
 40
0.0
 40
0.0
 40
0.0
 40
0.1053022849729072
 40
0.2137286493594643
 40
0.3166822008211145
 40
0.4223278024064514
 40
0.5307423417551406
 40
0.6427938253562318
 40
0.7451420012360116
 40
0.8503182434961349
 40
0.9534249795586102
 40
1.0
 40
1.0
 40
1.0
 40
1.0
 10
70.50045582859134
 20
135.2466531032469
 30
0.0
 10
70.2411832256443
 20
135.2513603820946
 30
0.0
 10
69.71494599101982
 20
135.2609145940523
 30
0.0
 10
68.95672980349896
 20
135.3350198113051
 30
0.0
 10
68.24632662130252
 20
135.4470606651955
 30
0.0
 10
67.5942187517101
 20
135.5827413588583
 30
0.0
 10
67.00422209795742
 20
135.7344308279199
 30
0.0
 10
66.53152696855439
 20
135.8810051846862
 30
0.0
 10
66.16451221419831
 20
136.0036488783635
 30
0.0
 10
65.92685941418273
 20
136.0877857548817
 30
0.0
 10
65.81328221485388
 20
136.1307729535252
 30
0.0
 10
65.82543534471559
 20
136.1262497451431
 30
0.0
 10
65.82921691626417
 20
136.1248423022604
 30
0.0
  0
SPLINE
  5
134
330
1F
100
AcDbEntity
  8
0
  6
HIDDEN
 62
     7
370
    18
100
AcDbSpline
210
0.0
220
0.0
230
1.0
 70
     8
 71
     3
 72
     9
 73
     5
 74
     0
 42
0.00000001
 43
0.00000001
 40
0.0
 40
0.0
 40
0.0
 40
0.0
 40
0.9112205419003581
 40
1.0
 40
1.0
 40
1.0
 40
1.0
 10
70.5
 20
135.2455503989368
 30
0.0
 10
70.75657863688303
 20
135.2465387882946
 30
0.0
 10
71.0381555165569
 20
135.2476234756039
 30
0.0
 10
71.30792366177344
 20
135.2732707494391
 30
0.0
 10
71.33187353151833
 20
135.275547700512
 30
0.0
  0
SPLINE
  5
135
330
1F
100
AcDbEntity
  8
0
  6
HIDDEN
 62
     7
370
    18
100
AcDbSpline
210
0.0
220
0.0
230
1.0
 70
     8
 71
     3
 72
    17
 73
    13
 74
     0
 42
0.00000001
 43
0.00000001
 40
0.0
 40
0.0
 40
0.0
 40
0.0
 40
0.0529843514632077
 40
0.1535068358717913
 40
0.2571420957511817
 40
0.3561391964482503
 40
0.4577730748708772
 40
0.5608127413354994
 40
0.6666069956019219
 40
0.7738221011806755
 40
0.8843330549091715
 40
0.9999999999999999
 40
0.9999999999999999
 40
0.9999999999999999
 40
0.9999999999999999
 10
75.17312090071154
 20
136.1249567680007
 30
0.0
 10
75.17621998998027
 20
136.1260827091801
 30
0.0
 10
75.1851987049138
 20
136.1293447981373
 30
0.0
 10
75.06655362686466
 20
136.0850153304007
 30
0.0
 10
74.8283950514871
 20
136.0018679315297
 30
0.0
 10
74.48462176851021
 20
135.8844390953111
 30
0.0
 10
74.03852087223886
 20
135.7489926160398
 30
0.0
 10
73.49272963370032
 20
135.6039498110929
 30
0.0
 10
72.85600764903946
 20
135.4645064888748
 30
0.0
 10
72.13533696502344
 20
135.3480804398692
 30
0.0
 10
71.34236153576747
 20
135.2640034482968
 30
0.0
 10
70.78532384090278
 20
135.2525237824277
 30
0.0
 10
70.50045582859134
 20
135.2466531032469
 30
0.0
  0
SPLINE
  5
136
330
1F
100
AcDbEntity
  8
0
  6
HIDDEN
 62
     7
370
    18
100
AcDbSpline
210
0.0
220
0.0
230
1.0
 70
     8
 71
     3
 72
    17
 73
    13
 74
     0
 42
0.00000001
 43
0.00000001
 40
0.0
 40
0.0
 40
0.0
 40
0.0
 40
0.1041508079484669
 40
0.2113344899498205
 40
0.3150519995694802
 40
0.4216419866206178
 40
0.5281035536977022
 40
0.6377345926856545
 40
0.7428395337397664
 40
0.8512185203098119
 40
0.9533074945661082
 40
1.0
 40
1.0
 40
1.0
 40
1.0
 10
95.5023322221119
 20
135.2461190988386
 30
0.0
 10
95.24583113294405
 20
135.2508617067349
 30
0.0
 10
94.7253596366722
 20
135.2604850273844
 30
0.0
 10
93.97096394236029
 20
135.3339033675856
 30
0.0
 10
93.25677478323479
 20
135.4443944464672
 30
0.0
 10
92.60448160077848
 20
135.5804023564251
 30
0.0
 10
92.02298650152387
 20
135.7310999987557
 30
0.0
 10
91.54067495679791
 20
135.875954288522
 30
0.0
 10
91.16843373196023
 20
136.0017431256846
 30
0.0
 10
90.93079321958223
 20
136.0876286087347
 30
0.0
 10
90.81245290630149
 20
136.1306573766662
 30
0.0
 10
90.82484895774489
 20
136.1263040967708
 30
0.0
 10
90.8287392450346
 20
136.1249378948376
 30
0.0
  0
SPLINE
  5
137
330
1F
100
AcDbEntity
  8
0
  6
HIDDEN
 62
     7
370
    18
100
AcDbSpline
210
0.0
220
0.0
230
1.0
 70
     8
 71
     3
 72
     9
 73
     5
 74
     0
 42
0.00000001
 43
0.00000001
 40
0.0
 40
0.0
 40
0.0
 40
0.0
 40
0.9220892742359238
 40
0.9999999999999999
 40
0.9999999999999999
 40
0.9999999999999999
 40
0.9999999999999999
 10
95.5
 20
135.2455503989368
 30
0.0
 10
95.7553794681286
 20
135.2466753385432
 30
0.0
 10
96.03233689000102
 20
135.2478953284485
 30
0.0
 10
96.29785124216787
 20
135.2729097900931
 30
0.0
 10
96.31853765804595
 20
135.2748586849544
 30
0.0
  0
SPLINE
  5
138
330
1F
100
AcDbEntity
  8
0
  6
HIDDEN
 62
     7
370
    18
100
AcDbSpline
210
0.0
220
0.0
230
1.0
 70
     8
 71
     3
 72
    17
 73
    13
 74
     0
 42
0.00000001
 43
0.00000001
 40
0.0
 40
0.0
 40
0.0
 40
0.0
 40
0.0515870676956364
 40
0.1515751213899017
 40
0.2544196434133523
 40
0.3554665067023768
 40
0.4594228712118606
 40
0.561397770268341
 40
0.666055674821374
 40
0.7724088312236486
 40
0.8818997132086349
 40
1.0
 40
1.0
 40
1.0
 40
1.0
 10
100.1704786273026
 20
136.1249543838968
 30
0.0
 10
100.1742253468581
 20
136.1261368133409
 30
0.0
 10
100.1852341034477
 20
136.1296110733547
 30
0.0
 10
100.0653397218781
 20
136.0863191867244
 30
0.0
 10
99.83775543783918
 20
136.0035107122743
 30
0.0
 10
99.4891201670487
 20
135.8850795054421
 30
0.0
 10
99.03778092114327
 20
135.7480077991416
 30
0.0
 10
98.49063839721491
 20
135.6030076233094
 30
0.0
 10
97.86055184383605
 20
135.4647176921952
 30
0.0
 10
97.14672712068477
 20
135.3495063310905
 30
0.0
 10
96.35399765155557
 20
135.2635379826733
 30
0.0
 10
95.7932909075165
 20
135.2520699985306
 30
0.0
 10
95.5023322221119
 20
135.2461190988386
 30
0.0
  0
LINE
  5
139
330
1F
100
AcDbEntity
  8
0
  6
HIDDEN
 62
     7
370
    18
100
AcDbLine
 10
64.25
 20
124.879344402
 30
0.0
 11
101.75
 21
124.879344402
 31
0.0
  0
LINE
  5
13A
330
1F
100
AcDbEntity
  8
0
  6
HIDDEN
 62
     7
370
    18
100
AcDbLine
 10
101.75
 20
154.8809078798
 30
0.0
 11
89.25
 21
154.8809078798
 31
0.0
  0
LINE
  5
13B
330
1F
100
AcDbEntity
  8
0
  6
HIDDEN
 62
     7
370
    18
100
AcDbLine
 10
76.75
 20
154.8809078798
 30
0.0
 11
64.25
 21
154.8809078798
 31
0.0
  0
SPLINE
  5
13C
330
1F
100
AcDbEntity
  8
0
  6
HIDDEN
 62
     7
370
    18
100
AcDbSpline
210
0.0
220
0.0
230
1.0
 70
     8
 71
     3
 72
    16
 73
    12
 74
     0
 42
0.00000001
 43
0.00000001
 40
0.0
 40
0.0
 40
0.0
 40
0.0
 40
0.1939925623196874
 40
0.39932133872338
 40
0.6131436624252338
 40
0.8300266830477977
 40
0.9139756571162999
 40
0.9566879243305829
 40
0.9781364264444596
 40
0.9996102620032656
 40
0.9999999999999999
 40
0.9999999999999999
 40
0.9999999999999999
 40
0.9999999999999999
 10
70.49987916096788
 20
136.8961861618446
 30
0.0
 10
70.85095704789657
 20
136.9069383687236
 30
0.0
 10
71.57362852626754
 20
136.9290711020296
 30
0.0
 10
72.56943248709779
 20
137.0777834083184
 30
0.0
 10
73.3780413523997
 20
137.2437117556992
 30
0.0
 10
73.77912843669397
 20
137.3401477374044
 30
0.0
 10
73.90045620902471
 20
137.3739159248718
 30
0.0
 10
73.929878279678
 20
137.3797885532628
 30
0.0
 10
73.93363545564107
 20
137.3805053228235
 30
0.0
 10
73.94330371078776
 20
137.382982018405
 30
0.0
 10
73.93728898283663
 20
137.3815218828545
 30
0.0
 10
73.93718176486439
 20
137.3814958546161
 30
0.0
  0
LINE
  5
13D
330
1F
100
AcDbEntity
  8
0
  6
HIDDEN
 62
     7
370
    18
100
AcDbLine
 10
70.9925358439
 20
136.9199171329
 30
0.0
 11
70.5
 21
136.8989607067
 31
0.0
  0
SPLINE
  5
13E
330
1F
100
AcDbEntity
  8
0
  6
HIDDEN
 62
     7
370
    18
100
AcDbSpline
210
0.0
220
0.0
230
1.0
 70
     8
 71
     3
 72
    21
 73
    17
 74
     0
 42
0.00000001
 43
0.00000001
 40
0.0
 40
0.0
 40
0.0
 40
0.0
 40
0.1958471194934794
 40
0.4015957790936256
 40
0.4280500740237118
 40
0.4545043593642533
 40
0.480958638737695
 40
0.5074129151077635
 40
0.5603546031094003
 40
0.5868089463562651
 40
0.613263333916437
 40
0.6397177727107198
 40
0.7458855173529249
 40
0.9582367018170237
 40
0.980027709302398
 40
1.0
 40
1.0
 40
1.0
 40
1.0
 10
95.50186303004321
 20
136.8974613042467
 30
0.0
 10
95.85539950862704
 20
136.9078564487998
 30
0.0
 10
96.58034638516061
 20
136.929172290393
 30
0.0
 10
97.27433138985336
 20
137.0367284648044
 30
0.0
 10
97.64076389834963
 20
137.1000891717352
 30
0.0
 10
97.74961470418287
 20
137.1198250748704
 30
0.0
 10
97.85463045695626
 20
137.1396768328929
 30
0.0
 10
97.98937434882674
 20
137.1662109104328
 30
0.0
 10
98.11589549004093
 20
137.1924499499696
 30
0.0
 10
98.23346880942982
 20
137.2177030016764
 30
0.0
 10
98.31705192866777
 20
137.235979163662
 30
0.0
 10
98.4750836851361
 20
137.2711142930632
 30
0.0
 10
98.7654092732709
 20
137.335264139006
 30
0.0
 10
98.9115635352827
 20
137.3754896400594
 30
0.0
 10
98.93610169419007
 20
137.3805817092191
 30
0.0
 10
98.93692716375155
 20
137.3804746665454
 30
0.0
 10
98.93732192467228
 20
137.3804234759669
 30
0.0
  0
SPLINE
  5
13F
330
1F
100
AcDbEntity
  8
0
  6
HIDDEN
 62
     7
370
    18
100
AcDbSpline
210
0.0
220
0.0
230
1.0
 70
     8
 71
     3
 72
    13
 73
     9
 74
     0
 42
0.00000001
 43
0.00000001
 40
0.0
 40
0.0
 40
0.0
 40
0.0
 40
0.0420429745625766
 40
0.250163722973597
 40
0.4594130800759822
 40
0.6735773541817816
 40
0.8913254317507289
 40
1.0
 40
1.0
 40
1.0
 40
1.0
 10
92.09301259670984
 20
137.3732320442296
 30
0.0
 10
92.08358327908293
 20
137.3756098798763
 30
0.0
 10
92.02747703952241
 20
137.3897584558081
 30
0.0
 10
92.29237189309391
 20
137.3201064293253
 30
0.0
 10
92.87710212038988
 20
137.1882049726787
 30
0.0
 10
93.78743300056257
 20
137.0143237101202
 30
0.0
 10
94.71798119370715
 20
136.9115027234012
 30
0.0
 10
95.30607225646898
 20
136.9009684403875
 30
0.0
 10
95.50186303004321
 20
136.8974613042467
 30
0.0
  0
SPLINE
  5
140
330
1F
100
AcDbEntity
  8
0
  6
HIDDEN
 62
     7
370
    18
100
AcDbSpline
210
0.0
220
0.0
230
1.0
 70
     8
 71
     3
 72
    13
 73
     9
 74
     0
 42
0.00000001
 43
0.00000001
 40
0.0
 40
0.0
 40
0.0
 40
0.0
 40
0.0401930992492671
 40
0.2483567937884469
 40
0.4566456348369684
 40
0.6718882204573727
 40
0.889344593837694
 40
1.0
 40
1.0
 40
1.0
 40
1.0
 10
67.09198890035157
 20
137.3730763579682
 30
0.0
 10
67.08273249229829
 20
137.3754065377018
 30
0.0
 10
67.02553631014152
 20
137.3898049289286
 30
0.0
 10
67.28679998833006
 20
137.3224480945331
 30
0.0
 10
67.86716482141003
 20
137.1914322554516
 30
0.0
 10
68.77460247444107
 20
137.0149947232183
 30
0.0
 10
69.70905539211198
 20
136.9127227955541
 30
0.0
 10
70.30043643098122
 20
136.9003566376215
 30
0.0
 10
70.49987916096788
 20
136.8961861618446
 30
0.0
  0
LINE
  5
141
330
1F
100
AcDbEntity
  8
0
  6
HIDDEN
 62
     7
370
    18
100
AcDbLine
 10
65.8292169163
 20
136.1309078798
 30
0.0
 11
59.25
 21
136.1309078798
 31
0.0
  0
LINE
  5
142
330
1F
100
AcDbEntity
  8
0
  6
HIDDEN
 62
     7
370
    18
100
AcDbLine
 10
90.828739245
 20
136.1309078798
 30
0.0
 11
75.1731209007
 21
136.1309078798
 31
0.0
  0
LINE
  5
143
330
1F
100
AcDbEntity
  8
0
  6
HIDDEN
 62
     7
370
    18
100
AcDbLine
 10
106.75
 20
136.1309078798
 30
0.0
 11
100.1704786273
 21
136.1309078798
 31
0.0
  0
LINE
  5
144
330
1F
100
AcDbEntity
  8
0
  6
HIDDEN
 62
     7
370
    18
100
AcDbLine
 10
59.25
 20
136.1309078798
 30
0.0
 11
58.0
 21
137.3809078798
 31
0.0
  0
LINE
  5
145
330
1F
100
AcDbEntity
  8
0
  6
HIDDEN
 62
     7
370
    18
100
AcDbLine
 10
108.0
 20
137.3809078798
 30
0.0
 11
106.75
 21
136.1309078798
 31
0.0
  0
LINE
  5
146
330
1F
100
AcDbEntity
  8
0
  6
HIDDEN
 62
     7
370
    18
100
AcDbLine
 10
101.75
 20
154.8809078798
 30
0.0
 11
101.75
 21
192.3809078798
 31
0.0
  0
LINE
  5
147
330
1F
100
AcDbEntity
  8
0
  6
HIDDEN
 62
     7
370
    18
100
AcDbLine
 10
89.25
 20
192.3809078798
 30
0.0
 11
89.25
 21
154.8809078798
 31
0.0
  0
LINE
  5
148
330
1F
100
AcDbEntity
  8
0
  6
HIDDEN
 62
     7
370
    18
100
AcDbLine
 10
76.75
 20
154.8809078798
 30
0.0
 11
76.75
 21
192.3809078798
 31
0.0
  0
LINE
  5
149
330
1F
100
AcDbEntity
  8
0
  6
HIDDEN
 62
     7
370
    18
100
AcDbLine
 10
64.25
 20
192.3809078798
 30
0.0
 11
64.25
 21
154.8809078798
 31
0.0
  0
LINE
  5
14A
330
1F
100
AcDbEntity
  8
0
  6
HIDDEN
 62
     7
370
    18
100
AcDbLine
 10
115.1875
 20
192.3809078798
 30
0.0
 11
116.4375
 21
191.1309078798
 31
0.0
  0
LINE
  5
14B
330
1F
100
AcDbEntity
  8
0
  6
HIDDEN
 62
     7
370
    18
100
AcDbLine
 10
124.5625
 20
191.1309078798
 30
0.0
 11
125.8125
 21
192.3809078798
 31
0.0
  0
LINE
  5
14C
330
1F
100
AcDbEntity
  8
0
  6
HIDDEN
 62
     7
370
    18
100
AcDbLine
 10
40.1875
 20
192.3809078798
 30
0.0
 11
41.4375
 21
191.1309078798
 31
0.0
  0
LINE
  5
14D
330
1F
100
AcDbEntity
  8
0
  6
HIDDEN
 62
     7
370
    18
100
AcDbLine
 10
49.5625
 20
191.1309078798
 30
0.0
 11
50.8125
 21
192.3809078798
 31
0.0
  0
LINE
  5
14E
330
1F
100
AcDbEntity
  8
0
  6
HIDDEN
 62
     7
370
    18
100
AcDbLine
 10
125.8125
 20
179.8809078798
 30
0.0
 11
124.5625
 21
181.1309078798
 31
0.0
  0
LINE
  5
14F
330
1F
100
AcDbEntity
  8
0
  6
HIDDEN
 62
     7
370
    18
100
AcDbLine
 10
116.4375
 20
181.1309078798
 30
0.0
 11
115.1875
 21
179.8809078798
 31
0.0
  0
LINE
  5
150
330
1F
100
AcDbEntity
  8
0
  6
HIDDEN
 62
     7
370
    18
100
AcDbLine
 10
50.8125
 20
179.8809078798
 30
0.0
 11
49.5625
 21
181.1309078798
 31
0.0
  0
LINE
  5
151
330
1F
100
AcDbEntity
  8
0
  6
HIDDEN
 62
     7
370
    18
100
AcDbLine
 10
41.4375
 20
181.1309078798
 30
0.0
 11
40.1875
 21
179.8809078798
 31
0.0
  0
LWPOLYLINE
  5
152
330
1F
100
AcDbEntity
  8
0
  6
HIDDEN
 62
     7
370
    18
100
AcDbPolyline
 90
        3
 70
   128
 43
0.0
 10
75.1969632471
 20
136.1226890245
 10
74.6232453235
 20
136.6961615673
 10
73.9290006527
 20
137.390073806
  0
LWPOLYLINE
  5
153
330
1F
100
AcDbEntity
  8
0
  6
HIDDEN
 62
     7
370
    18
100
AcDbPolyline
 90
        3
 70
   128
 43
0.0
 10
100.1948619807
 20
136.1226651847
 10
99.6219573261
 20
136.6957530622
 10
98.9287250463
 20
137.3892222244
  0
LWPOLYLINE
  5
154
330
1F
100
AcDbEntity
  8
0
  6
HIDDEN
 62
     7
370
    18
100
AcDbPolyline
 90
        3
 70
   128
 43
0.0
 10
92.0726184137
 20
137.3907602517
 10
91.4385809726
 20
136.7568048706
 10
90.8045435516
 20
136.12284955
  0
LWPOLYLINE
  5
155
330
1F
100
AcDbEntity
  8
0
  6
HIDDEN
 62
     7
370
    18
100
AcDbPolyline
 90
        3
 70
   128
 43
0.0
 10
67.0718605331
 20
137.390009491
 10
66.4985273729
 20
136.8166547136
 10
65.8047549742
 20
136.1228684529
  0
LINE
  5
156
330
1F
100
AcDbEntity
  8
0
  6
HIDDEN
 62
     7
370
    18
100
AcDbLine
 10
41.4375
 20
191.1309078798
 30
0.0
 11
41.4375
 21
181.1309078798
 31
0.0
  0
LINE
  5
157
330
1F
100
AcDbEntity
  8
0
  6
HIDDEN
 62
     7
370
    18
100
AcDbLine
 10
49.5625
 20
181.1309078798
 30
0.0
 11
49.5625
 21
191.1309078798
 31
0.0
  0
LINE
  5
158
330
1F
100
AcDbEntity
  8
0
  6
HIDDEN
 62
     7
370
    18
100
AcDbLine
 10
116.4375
 20
191.1309078798
 30
0.0
 11
116.4375
 21
181.1309078798
 31
0.0
  0
LINE
  5
159
330
1F
100
AcDbEntity
  8
0
  6
HIDDEN
 62
     7
370
    18
100
AcDbLine
 10
124.5625
 20
181.1309078798
 30
0.0
 11
124.5625
 21
191.1309078798
 31
0.0
  0
LINE
  5
15A
330
1F
100
AcDbEntity
  8
0
  6
HIDDEN
 62
     7
370
    18
100
AcDbLine
 10
67.0625
 20
154.8809078798
 30
0.0
 11
67.0625
 21
137.3730932868
 31
0.0
  0
LINE
  5
15B
330
1F
100
AcDbEntity
  8
0
  6
HIDDEN
 62
     7
370
    18
100
AcDbLine
 10
73.9375
 20
137.3815705188
 30
0.0
 11
73.9375
 21
154.8809078798
 31
0.0
  0
LINE
  5
15C
330
1F
100
AcDbEntity
  8
0
  6
HIDDEN
 62
     7
370
    18
100
AcDbLine
 10
92.0625
 20
154.8809078798
 30
0.0
 11
92.0625
 21
137.3731377196
 31
0.0
  0
LINE
  5
15D
330
1F
100
AcDbEntity
  8
0
  6
HIDDEN
 62
     7
370
    18
100
AcDbLine
 10
98.9375
 20
137.3803407097
 30
0.0
 11
98.9375
 21
154.8809078798
 31
0.0
  0
LINE
  5
15E
330
1F
100
AcDbEntity
  8
0
  6
Continuous
 62
     7
370
    25
100
AcDbLine
 10
256.1309078798
 20
32.0
 30
0.0
 11
256.1309078798
 21
25.75
 31
0.0
  0
LINE
  5
15F
330
1F
100
AcDbEntity
  8
0
  6
Continuous
 62
     7
370
    25
100
AcDbLine
 10
246.1309078798
 20
25.75
 30
0.0
 11
256.1309078798
 21
25.75
 31
0.0
  0
LINE
  5
160
330
1F
100
AcDbEntity
  8
0
  6
Continuous
 62
     7
370
    25
100
AcDbLine
 10
246.1309078798
 20
25.75
 30
0.0
 11
246.1309078798
 21
32.0
 31
0.0
  0
LINE
  5
161
330
1F
100
AcDbEntity
  8
0
  6
Continuous
 62
     7
370
    25
100
AcDbLine
 10
256.1309078798
 20
82.0
 30
0.0
 11
256.1309078798
 21
32.0
 31
0.0
  0
LINE
  5
162
330
1F
100
AcDbEntity
  8
0
  6
Continuous
 62
     7
370
    25
100
AcDbLine
 10
246.1309078798
 20
32.0
 30
0.0
 11
246.1309078798
 21
82.0
 31
0.0
  0
LINE
  5
163
330
1F
100
AcDbEntity
  8
0
  6
Continuous
 62
     7
370
    25
100
AcDbLine
 10
256.1309078798
 20
88.25
 30
0.0
 11
246.1309078798
 21
88.25
 31
0.0
  0
LINE
  5
164
330
1F
100
AcDbEntity
  8
0
  6
Continuous
 62
     7
370
    25
100
AcDbLine
 10
256.1309078798
 20
88.25
 30
0.0
 11
256.1309078798
 21
82.0
 31
0.0
  0
LINE
  5
165
330
1F
100
AcDbEntity
  8
0
  6
Continuous
 62
     7
370
    25
100
AcDbLine
 10
246.1309078798
 20
82.0
 30
0.0
 11
246.1309078798
 21
88.25
 31
0.0
  0
LINE
  5
166
330
1F
100
AcDbEntity
  8
0
  6
Continuous
 62
     7
370
    25
100
AcDbLine
 10
257.3809078798
 20
82.0
 30
0.0
 11
257.3809078798
 21
87.0
 31
0.0
  0
LINE
  5
167
330
1F
100
AcDbEntity
  8
0
  6
Continuous
 62
     7
370
    25
100
AcDbLine
 10
257.3809078798
 20
87.0
 30
0.0
 11
256.1309078798
 21
88.25
 31
0.0
  0
LINE
  5
168
330
1F
100
AcDbEntity
  8
0
  6
Continuous
 62
     7
370
    25
100
AcDbLine
 10
257.3809078798
 20
32.0
 30
0.0
 11
257.3809078798
 21
82.0
 31
0.0
  0
LINE
  5
169
330
1F
100
AcDbEntity
  8
0
  6
Continuous
 62
     7
370
    25
100
AcDbLine
 10
257.3809078798
 20
27.0
 30
0.0
 11
257.3809078798
 21
32.0
 31
0.0
  0
LINE
  5
16A
330
1F
100
AcDbEntity
  8
0
  6
Continuous
 62
     7
370
    25
100
AcDbLine
 10
257.3809078798
 20
27.0
 30
0.0
 11
256.1309078798
 21
25.75
 31
0.0
  0
LINE
  5
16B
330
1F
100
AcDbEntity
  8
0
  6
Continuous
 62
     7
370
    25
100
AcDbLine
 10
244.8809078798
 20
82.0
 30
0.0
 11
244.8809078798
 21
32.0
 31
0.0
  0
LINE
  5
16C
330
1F
100
AcDbEntity
  8
0
  6
Continuous
 62
     7
370
    25
100
AcDbLine
 10
244.8809078798
 20
87.0
 30
0.0
 11
244.8809078798
 21
82.0
 31
0.0
  0
LINE
  5
16D
330
1F
100
AcDbEntity
  8
0
  6
Continuous
 62
     7
370
    25
100
AcDbLine
 10
244.8809078798
 20
87.0
 30
0.0
 11
246.1309078798
 21
88.25
 31
0.0
  0
LINE
  5
16E
330
1F
100
AcDbEntity
  8
0
  6
Continuous
 62
     7
370
    25
100
AcDbLine
 10
244.8809078798
 20
32.0
 30
0.0
 11
244.8809078798
 21
27.0
 31
0.0
  0
LINE
  5
16F
330
1F
100
AcDbEntity
  8
0
  6
Continuous
 62
     7
370
    25
100
AcDbLine
 10
244.8809078798
 20
27.0
 30
0.0
 11
246.1309078798
 21
25.75
 31
0.0
  0
LINE
  5
170
330
1F
100
AcDbEntity
  8
0
  6
Continuous
 62
     7
370
    25
100
AcDbLine
 10
194.8809078798
 20
87.0
 30
0.0
 11
244.8809078798
 21
87.0
 31
0.0
  0
LINE
  5
171
330
1F
100
AcDbEntity
  8
0
  6
Continuous
 62
     7
370
    25
100
AcDbLine
 10
246.1309078798
 20
88.25
 30
0.0
 11
194.8809078798
 21
88.25
 31
0.0
  0
LINE
  5
172
330
1F
100
AcDbEntity
  8
0
  6
Continuous
 62
     7
370
    25
100
AcDbLine
 10
244.8809078798
 20
27.0
 30
0.0
 11
194.8809078798
 21
27.0
 31
0.0
  0
LINE
  5
173
330
1F
100
AcDbEntity
  8
0
  6
Continuous
 62
     7
370
    25
100
AcDbLine
 10
194.8809078798
 20
25.75
 30
0.0
 11
246.1309078798
 21
25.75
 31
0.0
  0
SPLINE
  5
174
330
1F
100
AcDbEntity
  8
0
  6
Continuous
 62
     7
370
    25
100
AcDbSpline
210
0.0
220
0.0
230
1.0
 70
     8
 71
     3
 72
     8
 73
     4
 74
     0
 42
0.00000001
 43
0.00000001
 40
0.0
 40
0.0
 40
0.0
 40
0.0
 40
1.0
 40
1.0
 40
1.0
 40
1.0
 10
194.880907878454
 20
44.7528500735405
 30
0.0
 10
195.0959188063463
 20
44.86216449481725
 30
0.0
 10
195.3041360463401
 20
44.9756576756085
 30
0.0
 10
195.5059078797869
 20
45.092150697964
 30
0.0
  0
ARC
  5
175
330
1F
100
AcDbEntity
  8
0
  6
Continuous
 62
     7
370
    25
100
AcDbCircle
 10
188.6309078798
 20
57.0
 30
0.0
 40
13.74999999999998
100
AcDbArc
 50
300.0
 51
60.0
  0
SPLINE
  5
176
330
1F
100
AcDbEntity
  8
0
  6
Continuous
 62
     7
370
    25
100
AcDbSpline
210
0.0
220
0.0
230
1.0
 70
     8
 71
     3
 72
     8
 73
     4
 74
     0
 42
0.00000001
 43
0.00000001
 40
0.0
 40
0.0
 40
0.0
 40
0.0
 40
1.0
 40
1.0
 40
1.0
 40
1.0
 10
195.5059078797869
 20
68.907849302036
 30
0.0
 10
195.3041360463401
 20
69.0243423243915
 30
0.0
 10
195.0959188063463
 20
69.13783550518275
 30
0.0
 10
194.880907878454
 20
69.2471499264595
 30
0.0
  0
ARC
  5
177
330
1F
100
AcDbEntity
  8
0
  6
Continuous
 62
     7
370
    25
100
AcDbCircle
 10
188.6309078798
 20
57.0
 30
0.0
 40
12.50000000000002
100
AcDbArc
 50
300.0
 51
60.0
  0
LINE
  5
178
330
1F
100
AcDbEntity
  8
0
  6
Continuous
 62
     7
370
    25
100
AcDbLine
 10
188.6309078798
 20
87.0
 30
0.0
 11
194.8809078798
 21
87.0
 31
0.0
  0
LINE
  5
179
330
1F
100
AcDbEntity
  8
0
  6
Continuous
 62
     7
370
    25
100
AcDbLine
 10
188.6309078798
 20
87.0
 30
0.0
 11
189.8809078798
 21
88.25
 31
0.0
  0
LINE
  5
17A
330
1F
100
AcDbEntity
  8
0
  6
Continuous
 62
     7
370
    25
100
AcDbLine
 10
194.8809078798
 20
88.25
 30
0.0
 11
189.8809078798
 21
88.25
 31
0.0
  0
LINE
  5
17B
330
1F
100
AcDbEntity
  8
0
  6
Continuous
 62
     7
370
    25
100
AcDbLine
 10
188.6309078798
 20
27.0
 30
0.0
 11
189.8809078798
 21
25.75
 31
0.0
  0
LINE
  5
17C
330
1F
100
AcDbEntity
  8
0
  6
Continuous
 62
     7
370
    25
100
AcDbLine
 10
194.8809078798
 20
27.0
 30
0.0
 11
188.6309078798
 21
27.0
 31
0.0
  0
LINE
  5
17D
330
1F
100
AcDbEntity
  8
0
  6
Continuous
 62
     7
370
    25
100
AcDbLine
 10
189.8809078798
 20
25.75
 30
0.0
 11
194.8809078798
 21
25.75
 31
0.0
  0
LINE
  5
17E
330
1F
100
AcDbEntity
  8
0
  6
Continuous
 62
     7
370
    25
100
AcDbLine
 10
188.6309078798
 20
87.0
 30
0.0
 11
188.6309078798
 21
70.75
 31
0.0
  0
SPLINE
  5
17F
330
1F
100
AcDbEntity
  8
0
  6
Continuous
 62
     7
370
    25
100
AcDbSpline
210
0.0
220
0.0
230
1.0
 70
     8
 71
     3
 72
    26
 73
    22
 74
     0
 42
0.00000001
 43
0.00000001
 40
0.0
 40
0.0
 40
0.0
 40
0.0
 40
0.1250000000000002
 40
0.1250000000000002
 40
0.2500000000000003
 40
0.2500000000000003
 40
0.3750000000000005
 40
0.3750000000000005
 40
0.4375000000000004
 40
0.4375000000000004
 40
0.5000000000000003
 40
0.5000000000000003
 40
0.5625000000000003
 40
0.5625000000000003
 40
0.6250000000000002
 40
0.6250000000000002
 40
0.7500000000000001
 40
0.7500000000000001
 40
0.875
 40
0.875
 40
1.0
 40
1.0
 40
1.0
 40
1.0
 10
194.8809078784724
 20
69.24714992645013
 30
0.0
 10
194.504846248504
 20
69.43834467105184
 30
0.0
 10
194.124913129957
 20
69.60892520869012
 30
0.0
 10
193.3597508804069
 20
69.91229118638181
 30
0.0
 10
192.9707535632442
 20
70.04599926748806
 30
0.0
 10
192.2230780554367
 20
70.26940553644343
 30
0.0
 10
191.8616298715486
 20
70.36150459940283
 30
0.0
 10
191.3409088181232
 20
70.47433254425405
 30
0.0
 10
191.1701700246035
 20
70.50768770400282
 30
0.0
 10
190.8443218542691
 20
70.56538653802676
 30
0.0
 10
190.6883461511374
 20
70.59000811197113
 30
0.0
 10
190.3903571592213
 20
70.63293790437302
 30
0.0
 10
190.2483426712768
 20
70.6512533215621
 30
0.0
 10
189.9786356072401
 20
70.68249079284699
 30
0.0
 10
189.8502759888995
 20
70.69536588430377
 30
0.0
 10
189.4934253237723
 20
70.72578739022836
 30
0.0
 10
189.2930246251114
 20
70.73521273910434
 30
0.0
 10
188.9661970347553
 20
70.749450108102
 30
0.0
 10
188.8398506629901
 20
70.75281931987165
 30
0.0
 10
188.673238272681
 20
70.75318313312346
 30
0.0
 10
188.6309078797869
 20
70.75000000000001
 30
0.0
 10
188.6309078797869
 20
70.75000000000001
 30
0.0
  0
LINE
  5
180
330
1F
100
AcDbEntity
  8
0
  6
Continuous
 62
     7
370
    25
100
AcDbLine
 10
188.6309078798
 20
43.25
 30
0.0
 11
188.6309078798
 21
27.0
 31
0.0
  0
SPLINE
  5
181
330
1F
100
AcDbEntity
  8
0
  6
Continuous
 62
     7
370
    25
100
AcDbSpline
210
0.0
220
0.0
230
1.0
 70
     8
 71
     3
 72
    26
 73
    22
 74
     0
 42
0.00000001
 43
0.00000001
 40
0.0
 40
0.0
 40
0.0
 40
0.0
 40
0.1249999999999994
 40
0.1249999999999994
 40
0.2499999999999989
 40
0.2499999999999989
 40
0.3749999999999983
 40
0.3749999999999983
 40
0.4374999999999985
 40
0.4374999999999985
 40
0.4999999999999987
 40
0.4999999999999987
 40
0.5624999999999988
 40
0.5624999999999988
 40
0.624999999999999
 40
0.624999999999999
 40
0.7499999999999993
 40
0.7499999999999993
 40
0.8749999999999997
 40
0.8749999999999997
 40
1.0
 40
1.0
 40
1.0
 40
1.0
 10
188.6309078797869
 20
43.25000000000001
 30
0.0
 10
188.630907879787
 20
43.25000000000001
 30
0.0
 10
188.6732368837864
 20
43.24479003356083
 30
0.0
 10
188.8397405442691
 20
43.24340550019157
 30
0.0
 10
188.9660757871256
 20
43.2469841564262
 30
0.0
 10
189.2927207784777
 20
43.26412630068489
 30
0.0
 10
189.4928156213872
 20
43.27592065885647
 30
0.0
 10
189.8485557379394
 20
43.30646964292875
 30
0.0
 10
189.9770857146723
 20
43.31895569700796
 30
0.0
 10
190.2470941758401
 20
43.34935443714799
 30
0.0
 10
190.3891059766192
 20
43.36729793934235
 30
0.0
 10
190.6866397550922
 20
43.40995160655569
 30
0.0
 10
190.8421631351396
 20
43.43465573506371
 30
0.0
 10
191.1665900501696
 20
43.49222412294476
 30
0.0
 10
191.3364033253591
 20
43.5253174155502
 30
0.0
 10
191.8596334942957
 20
43.63796226801203
 30
0.0
 10
192.2222654720251
 20
43.72927825562905
 30
0.0
 10
192.9705653814616
 20
43.95149326780157
 30
0.0
 10
193.3595791415586
 20
44.08489258775067
 30
0.0
 10
194.1251903126949
 20
44.38971269297139
 30
0.0
 10
194.5048286067372
 20
44.56164635963886
 30
0.0
 10
194.8809078784724
 20
44.75285007354988
 30
0.0
  0
LINE
  5
182
330
1F
100
AcDbEntity
  8
0
  6
Continuous
 62
     7
370
    25
100
AcDbLine
 10
188.6309078798
 20
43.25
 30
0.0
 11
189.879344402
 21
44.5625
 31
0.0
  0
SPLINE
  5
183
330
1F
100
AcDbEntity
  8
0
  6
Continuous
 62
     7
370
    25
100
AcDbSpline
210
0.0
220
0.0
230
1.0
 70
     8
 71
     3
 72
    24
 73
    20
 74
     0
 42
0.00000001
 43
0.00000001
 40
0.0
 40
0.0
 40
0.0
 40
0.0
 40
0.1249999999999991
 40
0.1249999999999991
 40
0.2499999999999981
 40
0.2499999999999981
 40
0.3749999999999972
 40
0.3749999999999972
 40
0.4374999999999967
 40
0.4374999999999967
 40
0.4999999999999962
 40
0.4999999999999962
 40
0.6249999999999971
 40
0.6249999999999971
 40
0.7499999999999981
 40
0.7499999999999981
 40
0.874999999999999
 40
0.874999999999999
 40
1.0
 40
1.0
 40
1.0
 40
1.0
 10
194.4042723128765
 20
45.9131490890001
 30
0.0
 10
194.1225113975793
 20
45.76642496868227
 30
0.0
 10
193.8411002442786
 20
45.63351811333686
 30
0.0
 10
193.2805763444931
 20
45.3929504988061
 30
0.0
 10
192.9998049412018
 20
45.2847462071235
 30
0.0
 10
192.4507172154181
 20
45.09439251427411
 30
0.0
 10
192.1889941963044
 20
45.01433765572896
 30
0.0
 10
191.8171695596807
 20
44.91222698244599
 30
0.0
 10
191.6966756979923
 20
44.88119108579863
 30
0.0
 10
191.4629498176549
 20
44.82445071973231
 30
0.0
 10
191.3492259086852
 20
44.79865508574238
 30
0.0
 10
191.026896580165
 20
44.72981171133403
 30
0.0
 10
190.8349644058402
 20
44.69466700240933
 30
0.0
 10
190.4984298306736
 20
44.63911624864192
 30
0.0
 10
190.3539036147713
 20
44.61877932869349
 30
0.0
 10
190.1248294683024
 20
44.58905572078703
 30
0.0
 10
190.0370436345258
 20
44.57918636606638
 30
0.0
 10
189.9140024584884
 20
44.56587367798713
 30
0.0
 10
189.8793444020018
 20
44.56250000000001
 30
0.0
 10
189.8793444020018
 20
44.56250000000001
 30
0.0
  0
SPLINE
  5
184
330
1F
100
AcDbEntity
  8
0
  6
Continuous
 62
     7
370
    25
100
AcDbSpline
210
0.0
220
0.0
230
1.0
 70
     8
 71
     3
 72
     8
 73
     4
 74
     0
 42
0.00000001
 43
0.00000001
 40
0.0
 40
0.0
 40
0.0
 40
0.0
 40
1.0
 40
1.0
 40
1.0
 40
1.0
 10
194.4042723128626
 20
68.08685091100699
 30
0.0
 10
194.5655695146497
 20
68.00285703976013
 30
0.0
 10
194.7249932812144
 20
67.91533488276201
 30
0.0
 10
194.8809078797869
 20
67.8253175473055
 30
0.0
  0
SPLINE
  5
185
330
1F
100
AcDbEntity
  8
0
  6
Continuous
 62
     7
370
    25
100
AcDbSpline
210
0.0
220
0.0
230
1.0
 70
     8
 71
     3
 72
     8
 73
     4
 74
     0
 42
0.00000001
 43
0.00000001
 40
0.0
 40
0.0
 40
0.0
 40
0.0
 40
1.0
 40
1.0
 40
1.0
 40
1.0
 10
194.8809078797869
 20
46.1746824526945
 30
0.0
 10
194.7249932812144
 20
46.08466511723801
 30
0.0
 10
194.5655695146497
 20
45.99714296023988
 30
0.0
 10
194.4042723128626
 20
45.91314908899301
 30
0.0
  0
SPLINE
  5
186
330
1F
100
AcDbEntity
  8
0
  6
Continuous
 62
     7
370
    25
100
AcDbSpline
210
0.0
220
0.0
230
1.0
 70
     8
 71
     3
 72
    20
 73
    16
 74
     0
 42
0.00000001
 43
0.00000001
 40
0.0
 40
0.0
 40
0.0
 40
0.0
 40
0.1250000000000005
 40
0.1250000000000005
 40
0.2500000000000011
 40
0.2500000000000011
 40
0.3750000000000016
 40
0.3750000000000016
 40
0.5000000000000021
 40
0.5000000000000021
 40
0.6250000000000027
 40
0.6250000000000027
 40
0.750000000000002
 40
0.750000000000002
 40
1.0
 40
1.0
 40
1.0
 40
1.0
 10
189.8793444020018
 20
69.43750000000001
 30
0.0
 10
189.8793444020018
 20
69.4375
 30
0.0
 10
189.9120740492459
 20
69.43431661932503
 30
0.0
 10
190.0316553734803
 20
69.42141388901845
 30
0.0
 10
190.1199675292749
 20
69.41153962570498
 30
0.0
 10
190.351398956702
 20
69.38158006776332
 30
0.0
 10
190.4944619887593
 20
69.36147821464492
 30
0.0
 10
190.8303916044727
 20
69.30614679390148
 30
0.0
 10
191.0252566168497
 20
69.27047688160599
 30
0.0
 10
191.4515966312505
 20
69.17954119595923
 30
0.0
 10
191.6837829805528
 20
69.1242240022309
 30
0.0
 10
192.1825343015543
 20
68.98761042899513
 30
0.0
 10
192.4492199700326
 20
68.90600388013999
 30
0.0
 10
193.2631641418238
 20
68.62419650438342
 30
0.0
 10
193.8409971069698
 20
68.38017072434701
 30
0.0
 10
194.4042723128763
 20
68.08685091099989
 30
0.0
  0
LINE
  5
187
330
1F
100
AcDbEntity
  8
0
  6
Continuous
 62
     7
370
    25
100
AcDbLine
 10
188.6309078798
 20
70.75
 30
0.0
 11
189.879344402
 21
69.4375
 31
0.0
  0
ARC
  5
188
330
1F
100
AcDbEntity
  8
0
  6
HIDDEN
 62
     7
370
    18
100
AcDbCircle
 10
251.1309078798
 20
50.75
 30
0.0
 40
6.249999999999993
100
AcDbArc
 50
270.0
 51
0.0
  0
LINE
  5
189
330
1F
100
AcDbEntity
  8
0
  6
HIDDEN
 62
     7
370
    18
100
AcDbLine
 10
251.1309078798
 20
27.0
 30
0.0
 11
257.3809078798
 21
27.0
 31
0.0
  0
LINE
  5
18A
330
1F
100
AcDbEntity
  8
0
  6
HIDDEN
 62
     7
370
    18
100
AcDbLine
 10
219.8809078798
 20
57.0
 30
0.0
 11
219.8809078798
 21
63.25
 31
0.0
  0
LINE
  5
18B
330
1F
100
AcDbEntity
  8
0
  6
HIDDEN
 62
     7
370
    18
100
AcDbLine
 10
219.8809078798
 20
50.75
 30
0.0
 11
219.8809078798
 21
57.0
 31
0.0
  0
LINE
  5
18C
330
1F
100
AcDbEntity
  8
0
  6
HIDDEN
 62
     7
370
    18
100
AcDbLine
 10
257.3809078798
 20
87.0
 30
0.0
 11
251.1309078798
 21
87.0
 31
0.0
  0
ARC
  5
18D
330
1F
100
AcDbEntity
  8
0
  6
HIDDEN
 62
     7
370
    18
100
AcDbCircle
 10
251.1309078798
 20
63.25
 30
0.0
 40
6.25
100
AcDbArc
 50
0.0
 51
90.0
  0
LINE
  5
18E
330
1F
100
AcDbEntity
  8
0
  6
HIDDEN
 62
     7
370
    18
100
AcDbLine
 10
200.3447064847
 20
52.4503375611
 30
0.0
 11
201.0722531466
 21
52.9709409852
 31
0.0
  0
LINE
  5
18F
330
1F
100
AcDbEntity
  8
0
  6
HIDDEN
 62
     7
370
    18
100
AcDbLine
 10
201.0916528421
 20
52.9848226349
 30
0.0
 11
201.7993653616
 21
53.4912335364
 31
0.0
  0
LINE
  5
190
330
1F
100
AcDbEntity
  8
0
  6
HIDDEN
 62
     7
370
    18
100
AcDbLine
 10
201.8974613042
 20
60.4374994943
 30
0.0
 11
201.9114983232
 21
60.3919386238
 31
0.0
  0
LINE
  5
191
330
1F
100
AcDbEntity
  8
0
  6
HIDDEN
 62
     7
370
    18
100
AcDbLine
 10
201.8989607067
 20
53.5625
 30
0.0
 11
201.9265000539
 21
53.6509219327
 31
0.0
  0
LINE
  5
192
330
1F
100
AcDbEntity
  8
0
  6
HIDDEN
 62
     7
370
    18
100
AcDbLine
 10
207.3809078798
 20
27.0
 30
0.0
 11
206.1309078798
 21
25.75
 31
0.0
  0
LINE
  5
193
330
1F
100
AcDbEntity
  8
0
  6
HIDDEN
 62
     7
370
    18
100
AcDbLine
 10
207.3809078798
 20
87.0
 30
0.0
 11
206.1309078798
 21
88.25
 31
0.0
  0
LINE
  5
194
330
1F
100
AcDbEntity
  8
0
  6
HIDDEN
 62
     7
370
    18
100
AcDbLine
 10
244.8809078798
 20
27.0
 30
0.0
 11
251.1309078798
 21
27.0
 31
0.0
  0
LINE
  5
195
330
1F
100
AcDbEntity
  8
0
  6
HIDDEN
 62
     7
370
    18
100
AcDbLine
 10
213.6309078798
 20
44.5
 30
0.0
 11
251.1309078798
 21
44.5
 31
0.0
  0
LINE
  5
196
330
1F
100
AcDbEntity
  8
0
  6
HIDDEN
 62
     7
370
    18
100
AcDbLine
 10
213.6309078798
 20
69.5
 30
0.0
 11
251.1309078798
 21
69.5
 31
0.0
  0
LINE
  5
197
330
1F
100
AcDbEntity
  8
0
  6
HIDDEN
 62
     7
370
    18
100
AcDbLine
 10
251.1309078798
 20
87.0
 30
0.0
 11
244.8809078798
 21
87.0
 31
0.0
  0
LINE
  5
198
330
1F
100
AcDbEntity
  8
0
  6
HIDDEN
 62
     7
370
    18
100
AcDbLine
 10
207.3809078798
 20
69.5
 30
0.0
 11
207.3809078798
 21
87.0
 31
0.0
  0
LINE
  5
199
330
1F
100
AcDbEntity
  8
0
  6
HIDDEN
 62
     7
370
    18
100
AcDbLine
 10
207.3809078798
 20
69.5
 30
0.0
 11
213.6309078798
 21
69.5
 31
0.0
  0
LINE
  5
19A
330
1F
100
AcDbEntity
  8
0
  6
HIDDEN
 62
     7
370
    18
100
AcDbLine
 10
207.3809078798
 20
27.0
 30
0.0
 11
207.3809078798
 21
44.5
 31
0.0
  0
LINE
  5
19B
330
1F
100
AcDbEntity
  8
0
  6
HIDDEN
 62
     7
370
    18
100
AcDbLine
 10
213.6309078798
 20
44.5
 30
0.0
 11
207.3809078798
 21
44.5
 31
0.0
  0
LINE
  5
19C
330
1F
100
AcDbEntity
  8
0
  6
HIDDEN
 62
     7
370
    18
100
AcDbLine
 10
200.2455503989
 20
52.379385414
 30
0.0
 11
200.344552583
 21
52.4502274351
 31
0.0
  0
LINE
  5
19D
330
1F
100
AcDbEntity
  8
0
  6
HIDDEN
 62
     7
370
    18
100
AcDbLine
 10
201.7998527941
 20
53.4915823237
 30
0.0
 11
201.8989607067
 21
53.5625
 31
0.0
  0
LINE
  5
19E
330
1F
100
AcDbEntity
  8
0
  6
HIDDEN
 62
     7
370
    18
100
AcDbLine
 10
257.3809078798
 20
62.3125
 30
0.0
 11
256.1309078798
 21
61.0625
 31
0.0
  0
LINE
  5
19F
330
1F
100
AcDbEntity
  8
0
  6
HIDDEN
 62
     7
370
    18
100
AcDbLine
 10
256.1309078798
 20
52.9375
 30
0.0
 11
257.3809078798
 21
51.6875
 31
0.0
  0
LINE
  5
1A0
330
1F
100
AcDbEntity
  8
0
  6
HIDDEN
 62
     7
370
    18
100
AcDbLine
 10
244.8809078798
 20
51.6875
 30
0.0
 11
246.1309078798
 21
52.9375
 31
0.0
  0
LINE
  5
1A1
330
1F
100
AcDbEntity
  8
0
  6
HIDDEN
 62
     7
370
    18
100
AcDbLine
 10
246.1309078798
 20
61.0625
 30
0.0
 11
244.8809078798
 21
62.3125
 31
0.0
  0
LINE
  5
1A2
330
1F
100
AcDbEntity
  8
0
  6
HIDDEN
 62
     7
370
    18
100
AcDbLine
 10
256.1309078798
 20
61.0625
 30
0.0
 11
246.1309078798
 21
61.0625
 31
0.0
  0
LINE
  5
1A3
330
1F
100
AcDbEntity
  8
0
  6
HIDDEN
 62
     7
370
    18
100
AcDbLine
 10
246.1309078798
 20
52.9375
 30
0.0
 11
256.1309078798
 21
52.9375
 31
0.0
  0
LINE
  5
1A4
330
1F
100
AcDbEntity
  8
0
  6
HIDDEN
 62
     7
370
    18
100
AcDbLine
 10
219.8809078798
 20
50.75
 30
0.0
 11
257.3809078798
 21
50.75
 31
0.0
  0
LINE
  5
1A5
330
1F
100
AcDbEntity
  8
0
  6
HIDDEN
 62
     7
370
    18
100
AcDbLine
 10
257.3809078798
 20
63.25
 30
0.0
 11
219.8809078798
 21
63.25
 31
0.0
  0
SPLINE
  5
1A6
330
1F
100
AcDbEntity
  8
0
  6
HIDDEN
 62
     7
370
    18
100
AcDbSpline
210
0.0
220
0.0
230
1.0
 70
     8
 71
     3
 72
    12
 73
     8
 74
     0
 42
0.00000001
 43
0.00000001
 40
0.0
 40
0.0
 40
0.0
 40
0.0
 40
0.2499459063458527
 40
0.3643213379218958
 40
0.4778588195176267
 40
0.719374166620102
 40
0.9999999999999999
 40
0.9999999999999999
 40
0.9999999999999999
 40
0.9999999999999999
 10
201.072253146645
 20
52.97094098524512
 30
0.0
 10
201.1241677258303
 20
53.00859241717484
 30
0.0
 10
201.1998384548411
 20
53.06347317219839
 30
0.0
 10
201.3223983202189
 20
53.15264346938541
 30
0.0
 10
201.4463064110419
 20
53.24170955899972
 30
0.0
 10
201.6136091173449
 20
53.35955463290128
 30
0.0
 10
201.7344299569623
 20
53.44520212081245
 30
0.0
 10
201.7993653615515
 20
53.49123353639581
 30
0.0
  0
SPLINE
  5
1A7
330
1F
100
AcDbEntity
  8
0
  6
HIDDEN
 62
     7
370
    18
100
AcDbSpline
210
0.0
220
0.0
230
1.0
 70
     8
 71
     3
 72
     9
 73
     5
 74
     0
 42
0.00000001
 43
0.00000001
 40
0.0
 40
0.0
 40
0.0
 40
0.0
 40
0.3890656446746136
 40
1.0
 40
1.0
 40
1.0
 40
1.0
 10
200.26172462664
 20
52.402082820318
 30
0.0
 10
200.2715489875045
 20
52.40636544073565
 30
0.0
 10
200.2968001526971
 20
52.41737289018862
 30
0.0
 10
200.3265383800033
 20
52.43783596543173
 30
0.0
 10
200.3447064847311
 20
52.45033756111336
 30
0.0
  0
LWPOLYLINE
  5
1A8
330
1F
100
AcDbEntity
  8
0
  6
HIDDEN
 62
     7
370
    18
100
AcDbPolyline
 90
        3
 70
   128
 43
0.0
 10
201.9140047211
 20
60.4160321721
 10
201.1578953709
 20
60.9546604519
 10
200.2429792569
 20
61.6064064234
  0
LINE
  5
1A9
330
1F
100
AcDbEntity
  8
0
  6
HIDDEN
 62
     7
370
    18
100
AcDbLine
 10
219.8809078798
 20
60.4375
 30
0.0
 11
201.8973739138
 21
60.4375
 31
0.0
  0
LINE
  5
1AA
330
1F
100
AcDbEntity
  8
0
  6
HIDDEN
 62
     7
370
    18
100
AcDbLine
 10
201.8989607067
 20
53.5625
 30
0.0
 11
219.8809078798
 21
53.5625
 31
0.0
  0
SPLINE
  5
1AB
330
1F
100
AcDbEntity
  8
0
  6
HIDDEN
 62
     7
370
    18
100
AcDbSpline
210
0.0
220
0.0
230
1.0
 70
     8
 71
     3
 72
     9
 73
     5
 74
     0
 42
0.00000001
 43
0.00000001
 40
0.0
 40
0.0
 40
0.0
 40
0.0
 40
0.5083838230103344
 40
1.0
 40
1.0
 40
1.0
 40
1.0
 10
201.0916528421186
 20
52.98482263493081
 30
0.0
 10
201.228362893904
 20
53.08462435646636
 30
0.0
 10
201.4972739913811
 20
53.28093611348605
 30
0.0
 10
201.7862653708764
 20
53.51026407466804
 30
0.0
 10
201.9283382080469
 20
53.62300541022115
 30
0.0
  0
SPLINE
  5
1AC
330
1F
100
AcDbEntity
  8
0
  6
HIDDEN
 62
     7
370
    18
100
AcDbSpline
210
0.0
220
0.0
230
1.0
 70
     8
 71
     3
 72
     9
 73
     5
 74
     0
 42
0.00000001
 43
0.00000001
 40
0.0
 40
0.0
 40
0.0
 40
0.0
 40
0.3871378347751653
 40
1.0
 40
1.0
 40
1.0
 40
1.0
 10
200.2615090345321
 20
52.4016004410754
 30
0.0
 10
200.2712959557945
 20
52.40594018178786
 30
0.0
 10
200.2965761541718
 20
52.41714998956856
 30
0.0
 10
200.3263222972987
 20
52.43765852792617
 30
0.0
 10
200.3445525829825
 20
52.4502274351496
 30
0.0
  0
LWPOLYLINE
  5
1AD
330
1F
100
AcDbEntity
  8
0
  6
HIDDEN
 62
     7
370
    18
100
AcDbPolyline
 90
        3
 70
   128
 43
0.0
 10
201.9150844353
 20
60.4142031589
 10
201.158449574
 20
60.9530617966
 10
200.2428980339
 20
61.6050798061
  0
LINE
  5
1AE
330
1F
100
AcDbEntity
  8
0
  6
HIDDEN
 62
     7
370
    18
100
AcDbLine
 10
201.8973739138
 20
60.4375
 30
0.0
 11
201.8961825093
 21
60.4375
 31
0.0
  0
SPLINE
  5
1AF
330
1F
100
AcDbEntity
  8
0
  6
HIDDEN
 62
     7
370
    18
100
AcDbSpline
210
0.0
220
0.0
230
1.0
 70
     8
 71
     3
 72
     9
 73
     5
 74
     0
 42
0.00000001
 43
0.00000001
 40
0.0
 40
0.0
 40
0.0
 40
0.0
 40
0.5032833493158837
 40
1.0
 40
1.0
 40
1.0
 40
1.0
 10
200.2371793861299
 20
52.37716197644226
 30
0.0
 10
200.2547988197948
 20
52.38866375377821
 30
0.0
 10
200.2898077937433
 20
52.41151723651628
 30
0.0
 10
200.3266350425856
 20
52.43756001047722
 30
0.0
 10
200.3449277502844
 20
52.45049588993362
 30
0.0
  0
ENDSEC
  0
SECTION
  2
OBJECTS
  0
DICTIONARY
  5
C
330
0
100
AcDbDictionary
281
     1
  3
ACAD_GROUP
350
D
  3
ACAD_LAYOUT
350
1A
  3
ACAD_MLINESTYLE
350
17
  3
ACAD_PLOTSETTINGS
350
19
  3
ACAD_PLOTSTYLENAME
350
E
  3
ACAD_SCALELIST
350
47
  3
DWGPROPS
350
1B0
  0
DICTIONARY
  5
D
102
{ACAD_REACTORS
330
C
102
}
330
C
100
AcDbDictionary
281
     1
  0
DICTIONARY
  5
1A
102
{ACAD_REACTORS
330
C
102
}
330
C
100
AcDbDictionary
281
     1
  3
Layout1
350
1E
  3
Layout2
350
26
  3
Model
350
22
  0
DICTIONARY
  5
17
102
{ACAD_REACTORS
330
C
102
}
330
C
100
AcDbDictionary
281
     1
  3
Standard
350
18
  0
DICTIONARY
  5
19
102
{ACAD_REACTORS
330
C
102
}
330
C
100
AcDbDictionary
281
     1
  0
ACDBDICTIONARYWDFLT
  5
E
102
{ACAD_REACTORS
330
C
102
}
330
C
100
AcDbDictionary
281
     1
  3
Normal
350
F
100
AcDbDictionaryWithDefault
340
F
  0
DICTIONARY
  5
47
102
{ACAD_REACTORS
330
C
102
}
330
C
100
AcDbDictionary
281
     1
  3
A0
350
48
  3
A1
350
49
  3
A2
350
4A
  3
A3
350
4B
  3
A4
350
4C
  3
A5
350
4D
  3
A6
350
4E
  3
A7
350
4F
  3
A8
350
50
  3
A9
350
51
  3
B0
350
52
  3
B1
350
53
  3
B2
350
54
  3
B3
350
55
  3
B4
350
56
  3
B5
350
57
  3
B6
350
58
  0
XRECORD
  5
1B0
102
{ACAD_REACTORS
330
C
102
}
330
C
100
AcDbXrecord
280
     1
  1
DWGPROPS COOKIE
  2

  3

  4

  6

  7

  8

  9

300
=
301
=
302
=
303
=
304
=
305
=
306
=
307
=
308
=
309
=
 40
0.0
 41
2461215.151922824
 42
2461215.151923391
  1

 90
        0
  0
LAYOUT
  5
1E
102
{ACAD_REACTORS
330
1A
102
}
330
1A
100
AcDbPlotSettings
  1

  2
none_device
  4

  6

 40
0.0
 41
0.0
 42
0.0
 43
0.0
 44
0.0
 45
0.0
 46
0.0
 47
0.0
 48
0.0
 49
0.0
140
0.0
141
0.0
142
1.0
143
1.0
 70
   688
 72
     1
 73
     0
 74
     5
  7

 75
    16
147
1.0
148
0.0
149
0.0
100
AcDbLayout
  1
Layout1
 70
     1
 71
     1
 10
0.0
 20
0.0
 11
420.0
 21
297.0
 12
0.0
 22
0.0
 32
0.0
 14
1.0000000000E+20
 24
1.0000000000E+20
 34
1.0000000000E+20
 15
-1.0000000000E+20
 25
-1.0000000000E+20
 35
-1.0000000000E+20
146
0.0
 13
0.0
 23
0.0
 33
0.0
 16
1.0
 26
0.0
 36
0.0
 17
0.0
 27
1.0
 37
0.0
 76
     0
330
1B
  0
LAYOUT
  5
26
102
{ACAD_REACTORS
330
1A
102
}
330
1A
100
AcDbPlotSettings
  1

  2
none_device
  4

  6

 40
0.0
 41
0.0
 42
0.0
 43
0.0
 44
0.0
 45
0.0
 46
0.0
 47
0.0
 48
0.0
 49
0.0
140
0.0
141
0.0
142
1.0
143
1.0
 70
   688
 72
     1
 73
     0
 74
     5
  7

 75
    16
147
1.0
148
0.0
149
0.0
100
AcDbLayout
  1
Layout2
 70
     1
 71
     2
 10
0.0
 20
0.0
 11
0.0
 21
0.0
 12
0.0
 22
0.0
 32
0.0
 14
0.0
 24
0.0
 34
0.0
 15
0.0
 25
0.0
 35
0.0
146
0.0
 13
0.0
 23
0.0
 33
0.0
 16
1.0
 26
0.0
 36
0.0
 17
0.0
 27
1.0
 37
0.0
 76
     0
330
23
  0
LAYOUT
  5
22
102
{ACAD_REACTORS
330
1A
102
}
330
1A
100
AcDbPlotSettings
  1

  2
none_device
  4
Letter_(8.50_x_11.00_Inches)
  6

 40
6.35
 41
6.35
 42
6.35000508
 43
6.35000508
 44
215.9
 45
279.4
 46
0.0
 47
0.0
 48
0.0
 49
0.0
140
0.0
141
0.0
142
1.0
143
1.0
 70
  1712
 72
     1
 73
     0
 74
     0
  7

 75
     0
147
1.0
148
0.0
149
0.0
100
AcDbLayout
  1
Model
 70
     1
 71
     0
 10
0.0
 20
0.0
 11
297.0
 21
210.0
 12
0.0
 22
0.0
 32
0.0
 14
0.0
 24
0.0
 34
0.0
 15
297.0
 25
210.0
 35
0.0
146
0.0
 13
0.0
 23
0.0
 33
0.0
 16
1.0
 26
0.0
 36
0.0
 17
0.0
 27
1.0
 37
0.0
 76
     0
330
1F
331
29
  0
MLINESTYLE
  5
18
102
{ACAD_REACTORS
330
17
102
}
330
17
100
AcDbMlineStyle
  2
Standard
 70
     0
  3

 62
   256
 51
90.0
 52
90.0
 71
     2
 49
0.5
 62
   256
  6
BYLAYER
 49
-0.5
 62
   256
  6
BYLAYER
  0
ACDBPLACEHOLDER
  5
F
102
{ACAD_REACTORS
330
E
102
}
330
E
  0
SCALE
  5
48
102
{ACAD_REACTORS
330
47
102
}
330
47
100
AcDbScale
 70
     0
300
1:1
140
1.0
141
1.0
290
     1
  0
SCALE
  5
49
102
{ACAD_REACTORS
330
47
102
}
330
47
100
AcDbScale
 70
     0
300
1:2
140
1.0
141
2.0
290
     0
  0
SCALE
  5
4A
102
{ACAD_REACTORS
330
47
102
}
330
47
100
AcDbScale
 70
     0
300
1:4
140
1.0
141
4.0
290
     0
  0
SCALE
  5
4B
102
{ACAD_REACTORS
330
47
102
}
330
47
100
AcDbScale
 70
     0
300
1:5
140
1.0
141
5.0
290
     0
  0
SCALE
  5
4C
102
{ACAD_REACTORS
330
47
102
}
330
47
100
AcDbScale
 70
     0
300
1:8
140
1.0
141
8.0
290
     0
  0
SCALE
  5
4D
102
{ACAD_REACTORS
330
47
102
}
330
47
100
AcDbScale
 70
     0
300
1:10
140
1.0
141
10.0
290
     0
  0
SCALE
  5
4E
102
{ACAD_REACTORS
330
47
102
}
330
47
100
AcDbScale
 70
     0
300
1:16
140
1.0
141
16.0
290
     0
  0
SCALE
  5
4F
102
{ACAD_REACTORS
330
47
102
}
330
47
100
AcDbScale
 70
     0
300
1:20
140
1.0
141
20.0
290
     0
  0
SCALE
  5
50
102
{ACAD_REACTORS
330
47
102
}
330
47
100
AcDbScale
 70
     0
300
1:30
140
1.0
141
30.0
290
     0
  0
SCALE
  5
51
102
{ACAD_REACTORS
330
47
102
}
330
47
100
AcDbScale
 70
     0
300
1:40
140
1.0
141
40.0
290
     0
  0
SCALE
  5
52
102
{ACAD_REACTORS
330
47
102
}
330
47
100
AcDbScale
 70
     0
300
1:50
140
1.0
141
50.0
290
     0
  0
SCALE
  5
53
102
{ACAD_REACTORS
330
47
102
}
330
47
100
AcDbScale
 70
     0
300
1:100
140
1.0
141
100.0
290
     0
  0
SCALE
  5
54
102
{ACAD_REACTORS
330
47
102
}
330
47
100
AcDbScale
 70
     0
300
2:1
140
2.0
141
1.0
290
     0
  0
SCALE
  5
55
102
{ACAD_REACTORS
330
47
102
}
330
47
100
AcDbScale
 70
     0
300
4:1
140
4.0
141
1.0
290
     0
  0
SCALE
  5
56
102
{ACAD_REACTORS
330
47
102
}
330
47
100
AcDbScale
 70
     0
300
8:1
140
8.0
141
1.0
290
     0
  0
SCALE
  5
57
102
{ACAD_REACTORS
330
47
102
}
330
47
100
AcDbScale
 70
     0
300
10:1
140
10.0
141
1.0
290
     0
  0
SCALE
  5
58
102
{ACAD_REACTORS
330
47
102
}
330
47
100
AcDbScale
 70
     0
300
100:1
140
100.0
141
1.0
290
     0
  0
ENDSEC
  0
EOF
