  0
SECTION
  2
HEADER
  9
$ACADVER
  1
AC1015
  9
$ACADMAINTVER
 70
     6
  9
$DWGCODEPAGE
  3
ANSI_936
  9
$INSBASE
 10
0.0
 20
0.0
 30
0.0
  9
$EXTMIN
 10
0.0
 20
0.0
 30
0.0
  9
$EXTMAX
 10
297.0
 20
210.0
 30
0.0
  9
$LIMMIN
 10
0.0
 20
0.0
  9
$LIMMAX
 10
297.0
 20
210.0
  9
$ORTHOMODE
 70
     0
  9
$REGENMODE
 70
     1
  9
$FILLMODE
 70
     1
  9
$QTEXTMODE
 70
     0
  9
$MIRRTEXT
 70
     1
  9
$LTSCALE
 40
1.0
  9
$ATTMODE
 70
     1
  9
$TEXTSIZE
 40
3.5
  9
$TRACEWID
 40
1.0
  9
$TEXTSTYLE
  7
Standard
  9
$CLAYER
  8
0
  9
$CELTYPE
  6
ByLayer
  9
$CECOLOR
 62
   256
  9
$CELTSCALE
 40
1.0
  9
$DISPSILH
 70
     0
  9
$DIMSCALE
 40
1.0
  9
$DIMASZ
 40
4.08
  9
$DIMEXO
 40
0.0
  9
$DIMDLI
 40
3.75
  9
$DIMRND
 40
0.0
  9
$DIMDLE
 40
0.0
  9
$DIMEXE
 40
2.0
  9
$DIMTP
 40
0.0
  9
$DIMTM
 40
0.0
  9
$DIMTXT
 40
3.5
  9
$DIMCEN
 40
2.5
  9
$DIMTSZ
 40
0.0
  9
$DIMTOL
 70
     0
  9
$DIMLIM
 70
     0
  9
$DIMTIH
 70
     1
  9
$DIMTOH
 70
     1
  9
$DIMSE1
 70
     0
  9
$DIMSE2
 70
     0
  9
$DIMTAD
 70
     1
  9
$DIMZIN
 70
     0
  9
$DIMBLK
  1

  9
$DIMASO
 70
     1
  9
$DIMSHO
 70
     1
  9
$DIMPOST
  1

  9
$DIMAPOST
  1

  9
$DIMALT
 70
     0
  9
$DIMALTD
 70
     3
  9
$DIMALTF
 40
0.0393700787
  9
$DIMLFAC
 40
2.0
  9
$DIMTOFL
 70
     1
  9
$DIMTVP
 40
0.0
  9
$DIMTIX
 70
     0
  9
$DIMSOXD
 70
     0
  9
$DIMSAH
 70
     0
  9
$DIMBLK1
  1

  9
$DIMBLK2
  1

  9
$DIMSTYLE
  2
ISO-25
  9
$DIMCLRD
 70
     0
  9
$DIMCLRE
 70
     0
  9
$DIMCLRT
 70
     0
  9
$DIMTFAC
 40
1.0
  9
$DIMGAP
 40
1.524
  9
$DIMJUST
 70
     0
  9
$DIMSD1
 70
     0
  9
$DIMSD2
 70
     0
  9
$DIMTOLJ
 70
     0
  9
$DIMTZIN
 70
     0
  9
$DIMALTZ
 70
     0
  9
$DIMALTTZ
 70
     0
  9
$DIMUPT
 70
     0
  9
$DIMDEC
 70
     2
  9
$DIMTDEC
 70
     2
  9
$DIMALTU
 70
     2
  9
$DIMALTTD
 70
     3
  9
$DIMTXSTY
  7
Standard
  9
$DIMAUNIT
 70
     0
  9
$DIMADEC
 70
     2
  9
$DIMALTRND
 40
0.0
  9
$DIMAZIN
 70
     0
  9
$DIMDSEP
 70
    44
  9
$DIMATFIT
 70
     3
  9
$DIMFRAC
 70
     0
  9
$DIMLDRBLK
  1

  9
$DIMLUNIT
 70
     2
  9
$DIMLWD
 70
    -2
  9
$DIMLWE
 70
    -2
  9
$DIMTMOVE
 70
     0
  9
$LUNITS
 70
     2
  9
$LUPREC
 70
     2
  9
$SKETCHINC
 40
1.0
  9
$FILLETRAD
 40
0.0
  9
$AUNITS
 70
     0
  9
$AUPREC
 70
     2
  9
$MENU
  1
.
  9
$ELEVATION
 40
0.0
  9
$PELEVATION
 40
0.0
  9
$THICKNESS
 40
0.0
  9
$LIMCHECK
 70
     0
  9
$CHAMFERA
 40
0.0
  9
$CHAMFERB
 40
0.0
  9
$CHAMFERC
 40
0.0
  9
$CHAMFERD
 40
0.0
  9
$SKPOLY
 70
     0
  9
$TDCREATE
 40
2461215.502072512
  9
$TDUCREATE
 40
2461215.168739178
  9
$TDUPDATE
 40
2461215.502072801
  9
$TDUUPDATE
 40
2461215.168739468
  9
$TDINDWG
 40
0.0000000116
  9
$TDUSRTIMER
 40
0.0000000116
  9
$USRTIMER
 70
     1
  9
$ANGBASE
 50
0.0
  9
$ANGDIR
 70
     0
  9
$PDMODE
 70
     0
  9
$PDSIZE
 40
-1.0
  9
$PLINEWID
 40
0.0
  9
$SPLFRAME
 70
     0
  9
$SPLINETYPE
 70
     6
  9
$SPLINESEGS
 70
     8
  9
$HANDSEED
  5
12F
  9
$SURFTAB1
 70
     6
  9
$SURFTAB2
 70
     6
  9
$SURFTYPE
 70
     6
  9
$SURFU
 70
     6
  9
$SURFV
 70
     6
  9
$UCSBASE
  2

  9
$UCSNAME
  2

  9
$UCSORG
 10
0.0
 20
0.0
 30
0.0
  9
$UCSXDIR
 10
1.0
 20
0.0
 30
0.0
  9
$UCSYDIR
 10
0.0
 20
1.0
 30
0.0
  9
$UCSORTHOREF
  2

  9
$UCSORTHOVIEW
 70
     0
  9
$UCSORGTOP
 10
0.0
 20
0.0
 30
0.0
  9
$UCSORGBOTTOM
 10
0.0
 20
0.0
 30
0.0
  9
$UCSORGLEFT
 10
0.0
 20
0.0
 30
0.0
  9
$UCSORGRIGHT
 10
0.0
 20
0.0
 30
0.0
  9
$UCSORGFRONT
 10
0.0
 20
0.0
 30
0.0
  9
$UCSORGBACK
 10
0.0
 20
0.0
 30
0.0
  9
$PUCSBASE
  2

  9
$PUCSNAME
  2

  9
$PUCSORG
 10
0.0
 20
0.0
 30
0.0
  9
$PUCSXDIR
 10
1.0
 20
0.0
 30
0.0
  9
$PUCSYDIR
 10
0.0
 20
1.0
 30
0.0
  9
$PUCSORTHOREF
  2

  9
$PUCSORTHOVIEW
 70
     0
  9
$PUCSORGTOP
 10
0.0
 20
0.0
 30
0.0
  9
$PUCSORGBOTTOM
 10
0.0
 20
0.0
 30
0.0
  9
$PUCSORGLEFT
 10
0.0
 20
0.0
 30
0.0
  9
$PUCSORGRIGHT
 10
0.0
 20
0.0
 30
0.0
  9
$PUCSORGFRONT
 10
0.0
 20
0.0
 30
0.0
  9
$PUCSORGBACK
 10
0.0
 20
0.0
 30
0.0
  9
$USERI1
 70
     0
  9
$USERI2
 70
     0
  9
$USERI3
 70
     0
  9
$USERI4
 70
     0
  9
$USERI5
 70
     0
  9
$USERR1
 40
0.0
  9
$USERR2
 40
0.0
  9
$USERR3
 40
0.0
  9
$USERR4
 40
0.0
  9
$USERR5
 40
0.0
  9
$WORLDVIEW
 70
     1
  9
$SHADEDGE
 70
     3
  9
$SHADEDIF
 70
    70
  9
$TILEMODE
 70
     1
  9
$MAXACTVP
 70
    64
  9
$PINSBASE
 10
0.0
 20
0.0
 30
0.0
  9
$PLIMCHECK
 70
     0
  9
$PEXTMIN
 10
1.0000000000E+20
 20
1.0000000000E+20
 30
1.0000000000E+20
  9
$PEXTMAX
 10
-1.0000000000E+20
 20
-1.0000000000E+20
 30
-1.0000000000E+20
  9
$PLIMMIN
 10
0.0
 20
0.0
  9
$PLIMMAX
 10
420.0
 20
297.0
  9
$UNITMODE
 70
     0
  9
$VISRETAIN
 70
     1
  9
$PLINEGEN
 70
     0
  9
$PSLTSCALE
 70
     1
  9
$TREEDEPTH
 70
  3020
  9
$CMLSTYLE
  2
Standard
  9
$CMLJUST
 70
     0
  9
$CMLSCALE
 40
20.0
  9
$PROXYGRAPHICS
 70
     1
  9
$MEASUREMENT
 70
     1
  9
$CELWEIGHT
370
    -1
  9
$ENDCAPS
280
     0
  9
$JOINSTYLE
280
     0
  9
$LWDISPLAY
290
     1
  9
$INSUNITS
 70
     4
  9
$HYPERLINKBASE
  1

  9
$STYLESHEET
  1

  9
$XEDIT
290
     1
  9
$CEPSNTYPE
380
     0
  9
$PSTYLEMODE
290
     1
  9
$FINGERPRINTGUID
  2
{58e5e7d6-9832-4b0b-8ac9-0f224aa8aaed}
  9
$VERSIONGUID
  2
{FAEB1C32-E019-11D5-929B-00C0DF256EC4}
  9
$EXTNAMES
290
     1
  9
$PSVPSCALE
 40
0.0
  9
$OLESTARTUP
290
     0
  0
ENDSEC
  0
SECTION
  2
CLASSES
  0
CLASS
  1
ACDBDICTIONARYWDFLT
  2
AcDbDictionaryWithDefault
  3
ObjectDBX Classes
 90
        0
280
     0
281
     0
  0
CLASS
  1
VISUALSTYLE
  2
AcDbVisualStyle
  3
ObjectDBX Classes
 90
     4095
280
     0
281
     0
  0
CLASS
  1
MATERIAL
  2
AcDbMaterial
  3
ObjectDBX Classes
 90
     1153
280
     0
281
     0
  0
CLASS
  1
SCALE
  2
AcDbScale
  3
ObjectDBX Classes
 90
     1153
280
     0
281
     0
  0
CLASS
  1
TABLESTYLE
  2
AcDbTableStyle
  3
ObjectDBX Classes
 90
     4095
280
     0
281
     0
  0
CLASS
  1
MLEADERSTYLE
  2
AcDbMLeaderStyle
  3
ACDB_MLEADERSTYLE_CLASS
 90
     4095
280
     0
281
     0
  0
CLASS
  1
SUN
  2
AcDbSun
  3
SCENEOE
 90
     1153
280
     0
281
     0
  0
CLASS
  1
ACDBPLACEHOLDER
  2
AcDbPlaceHolder
  3
ObjectDBX Classes
 90
        0
280
     0
281
     0
  0
CLASS
  1
LAYOUT
  2
AcDbLayout
  3
ObjectDBX Classes
 90
        0
280
     0
281
     0
  0
ENDSEC
  0
SECTION
  2
TABLES
  0
TABLE
  2
VPORT
  5
8
330
0
100
AcDbSymbolTable
 70
     1
  0
VPORT
  5
29
330
8
100
AcDbSymbolTableRecord
100
AcDbViewportTableRecord
  2
*Active
 70
     0
 10
0.0
 20
0.0
 11
1.0
 21
1.0
 12
148.5
 22
105.0
 13
0.0
 23
0.0
 14
10.0
 24
10.0
 15
10.0
 25
10.0
 16
0.0
 26
0.0
 36
1.0
 17
0.0
 27
0.0
 37
0.0
 40
210.0
 41
1.4142857143
 42
50.0
 43
0.0
 44
0.0
 50
0.0
 51
0.0
 71
     0
 72
  2000
 73
     1
 74
     3
 75
     0
 76
     0
 77
     0
 78
     0
281
     0
 65
     1
110
0.0
120
0.0
130
0.0
111
1.0
121
0.0
131
0.0
112
0.0
122
1.0
132
0.0
 79
     0
146
0.0
  0
ENDTAB
  0
TABLE
  2
LTYPE
  5
5
330
0
100
AcDbSymbolTable
 70
     6
  0
LTYPE
  5
14
330
5
100
AcDbSymbolTableRecord
100
AcDbLinetypeTableRecord
  2
ByBlock
 70
     0
  3

 72
    65
 73
     0
 40
0.0
  0
LTYPE
  5
15
330
5
100
AcDbSymbolTableRecord
100
AcDbLinetypeTableRecord
  2
ByLayer
 70
     0
  3

 72
    65
 73
     0
 40
0.0
  0
LTYPE
  5
16
330
5
100
AcDbSymbolTableRecord
100
AcDbLinetypeTableRecord
  2
Continuous
 70
     0
  3
Solid line
 72
    65
 73
     0
 40
0.0
  0
LTYPE
  5
5E
330
5
100
AcDbSymbolTableRecord
100
AcDbLinetypeTableRecord
  2
HIDDEN
 70
     0
  3
Hidden __ __ __ __ __ __ __ __ __ __ __ __ __ __
 72
    65
 73
     2
 40
1.905
 49
1.27
 74
     0
 49
-0.635
 74
     0
  0
LTYPE
  5
5F
330
5
100
AcDbSymbolTableRecord
100
AcDbLinetypeTableRecord
  2
PHANTOM
 70
     0
  3
Phantom ______  __  __  ______  __  __  ______
 72
    65
 73
     6
 40
12.7
 49
6.35
 74
     0
 49
-1.27
 74
     0
 49
1.27
 74
     0
 49
-1.27
 74
     0
 49
1.27
 74
     0
 49
-1.27
 74
     0
  0
LTYPE
  5
60
330
5
100
AcDbSymbolTableRecord
100
AcDbLinetypeTableRecord
  2
CENTER
 70
     0
  3
Center ____ _ ____ _ ____ _ ____ _ ____ _ ____
 72
    65
 73
     4
 40
10.16
 49
6.35
 74
     0
 49
-1.27
 74
     0
 49
1.27
 74
     0
 49
-1.27
 74
     0
  0
LTYPE
  5
61
330
5
100
AcDbSymbolTableRecord
100
AcDbLinetypeTableRecord
  2
CENTERX2
 70
     0
  3
Center (2x) ________  __  ________  __  _____
 72
    65
 73
     4
 40
20.32
 49
12.7
 74
     0
 49
-2.54
 74
     0
 49
2.54
 74
     0
 49
-2.54
 74
     0
  0
LTYPE
  5
62
330
5
100
AcDbSymbolTableRecord
100
AcDbLinetypeTableRecord
  2
DOT2
 70
     0
  3
Dot (.5x) ........................................
 72
    65
 73
     2
 40
0.635
 49
0.0
 74
     0
 49
-0.635
 74
     0
  0
ENDTAB
  0
TABLE
  2
LAYER
  5
2
330
0
100
AcDbSymbolTable
 70
    14
  0
LAYER
  5
10
330
2
100
AcDbSymbolTableRecord
100
AcDbLayerTableRecord
  2
0
 70
     0
 62
     7
  6
Continuous
370
    -3
390
F
  0
LAYER
  5
63
330
2
100
AcDbSymbolTableRecord
100
AcDbLayerTableRecord
  2
SLD-0
 70
     0
 62
     7
  6
Continuous
370
    -3
390
F
  0
LAYER
  5
64
330
2
100
AcDbSymbolTableRecord
100
AcDbLayerTableRecord
  2
5
 70
     0
 62
     7
  6
Continuous
370
    -3
390
F
  0
LAYER
  5
65
330
2
100
AcDbSymbolTableRecord
100
AcDbLayerTableRecord
  2
9
 70
     0
 62
     7
  6
Continuous
370
    -3
390
F
  0
LAYER
  5
66
330
2
100
AcDbSymbolTableRecord
100
AcDbLayerTableRecord
  2
10
 70
     0
 62
     7
  6
Continuous
370
    -3
390
F
  0
LAYER
  5
67
330
2
100
AcDbSymbolTableRecord
100
AcDbLayerTableRecord
  2
轮廓实线层
 70
     0
 62
     7
  6
Continuous
370
    50
390
F
  0
LAYER
  5
68
330
2
100
AcDbSymbolTableRecord
100
AcDbLayerTableRecord
  2
细线层
 70
     0
 62
     4
  6
Continuous
370
    25
390
F
  0
LAYER
  5
69
330
2
100
AcDbSymbolTableRecord
100
AcDbLayerTableRecord
  2
中心线层
 70
     0
 62
     1
  6
CENTERX2
370
    25
390
F
  0
LAYER
  5
6A
330
2
100
AcDbSymbolTableRecord
100
AcDbLayerTableRecord
  2
虚线层
 70
     0
 62
     6
  6
HIDDEN
370
    25
390
F
  0
LAYER
  5
6B
330
2
100
AcDbSymbolTableRecord
100
AcDbLayerTableRecord
  2
剖面线层
 70
     0
 62
     2
  6
Continuous
370
    25
390
F
  0
LAYER
  5
6C
330
2
100
AcDbSymbolTableRecord
100
AcDbLayerTableRecord
  2
文字层
 70
     0
 62
     3
  6
Continuous
370
    25
390
F
  0
LAYER
  5
6D
330
2
100
AcDbSymbolTableRecord
100
AcDbLayerTableRecord
  2
标注层
 70
     0
 62
     4
  6
Continuous
370
    25
390
F
  0
LAYER
  5
6E
330
2
100
AcDbSymbolTableRecord
100
AcDbLayerTableRecord
  2
符号标注层
 70
     0
 62
    31
  6
Continuous
370
    25
390
F
  0
LAYER
  5
6F
330
2
100
AcDbSymbolTableRecord
100
AcDbLayerTableRecord
  2
双点划线层
 70
     0
 62
     6
  6
PHANTOM
370
    25
390
F
  0
ENDTAB
  0
TABLE
  2
STYLE
  5
3
330
0
100
AcDbSymbolTable
 70
     1
  0
STYLE
  5
11
330
3
100
AcDbSymbolTableRecord
100
AcDbTextStyleTableRecord
  2
Standard
 70
     0
 40
0.0
 41
1.0
 50
0.0
 71
     0
 42
3.5
  3
txt
  4

  0
ENDTAB
  0
TABLE
  2
VIEW
  5
6
330
0
100
AcDbSymbolTable
 70
     0
  0
ENDTAB
  0
TABLE
  2
UCS
  5
7
330
0
100
AcDbSymbolTable
 70
     0
  0
ENDTAB
  0
TABLE
  2
APPID
  5
9
330
0
100
AcDbSymbolTable
 70
     1
  0
APPID
  5
12
330
9
100
AcDbSymbolTableRecord
100
AcDbRegAppTableRecord
  2
ACAD
 70
     0
  0
ENDTAB
  0
TABLE
  2
DIMSTYLE
  5
A
330
0
100
AcDbSymbolTable
 70
     1
100
AcDbDimStyleTable
  0
DIMSTYLE
105
27
330
A
100
AcDbSymbolTableRecord
100
AcDbDimStyleTableRecord
  2
ISO-25
 70
     0
 41
2.5
 42
0.625
 43
3.75
 44
1.25
 73
     0
 74
     0
 77
     1
 78
     8
140
2.5
141
2.5
143
0.0393700787
147
0.625
171
     3
172
     1
178
     0
271
     2
272
     2
274
     3
278
    44
283
     0
284
     8
340
11
  0
ENDTAB
  0
TABLE
  2
BLOCK_RECORD
  5
1
330
0
100
AcDbSymbolTable
 70
     1
  0
BLOCK_RECORD
  5
1F
330
1
100
AcDbSymbolTableRecord
100
AcDbBlockTableRecord
  2
*Model_Space
340
22
  0
BLOCK_RECORD
  5
1B
330
1
100
AcDbSymbolTableRecord
100
AcDbBlockTableRecord
  2
*Paper_Space
340
1E
  0
BLOCK_RECORD
  5
23
330
1
100
AcDbSymbolTableRecord
100
AcDbBlockTableRecord
  2
*Paper_Space0
340
26
  0
ENDTAB
  0
ENDSEC
  0
SECTION
  2
BLOCKS
  0
BLOCK
  5
20
330
1F
100
AcDbEntity
  8
0
100
AcDbBlockBegin
  2
*Model_Space
 70
     0
 10
0.0
 20
0.0
 30
0.0
  3
*Model_Space
  1

  0
ENDBLK
  5
21
330
1F
100
AcDbEntity
  8
0
100
AcDbBlockEnd
  0
BLOCK
  5
1C
330
1B
100
AcDbEntity
 67
     1
  8
0
100
AcDbBlockBegin
  2
*Paper_Space
 70
     0
 10
0.0
 20
0.0
 30
0.0
  3
*Paper_Space
  1

  0
ENDBLK
  5
1D
330
1B
100
AcDbEntity
 67
     1
  8
0
100
AcDbBlockEnd
  0
BLOCK
  5
24
330
23
100
AcDbEntity
  8
0
100
AcDbBlockBegin
  2
*Paper_Space0
 70
     0
 10
0.0
 20
0.0
 30
0.0
  3
*Paper_Space0
  1

  0
ENDBLK
  5
25
330
23
100
AcDbEntity
  8
0
100
AcDbBlockEnd
  0
ENDSEC
  0
SECTION
  2
ENTITIES
  0
SPLINE
  5
70
330
1F
100
AcDbEntity
  8
0
  6
Continuous
 62
     7
370
    25
100
AcDbSpline
210
0.0
220
0.0
230
1.0
 70
     8
 71
     3
 72
    18
 73
    14
 74
     0
 42
0.00000001
 43
0.00000001
 40
0.0
 40
0.0
 40
0.0
 40
0.0
 40
0.0918642322316198
 40
0.1717703422234123
 40
0.2888144354150156
 40
0.3275516726407957
 40
0.3439847699985563
 40
0.4300941511002219
 40
0.5151945039214078
 40
0.6273031286872914
 40
0.7882161566681017
 40
0.8878091978429173
 40
1.0
 40
1.0
 40
1.0
 40
1.0
 10
33.09732272240756
 20
67.61879675517613
 30
0.0
 10
33.1234204272517
 20
67.50008997402065
 30
0.0
 10
33.17221865462948
 20
67.27812867387169
 30
0.0
 10
33.33621006607245
 20
66.97016557886425
 30
0.0
 10
33.52314307460313
 20
66.76252910220946
 30
0.0
 10
33.71924896779912
 20
66.59764367198642
 30
0.0
 10
33.87736878716451
 20
66.45446638917787
 30
0.0
 10
34.06321659473429
 20
66.28857340543385
 30
0.0
 10
34.4699716178079
 20
66.110672827609
 30
0.0
 10
35.00733679034228
 20
66.03160843311981
 30
0.0
 10
35.57603788632721
 20
66.1287435487434
 30
0.0
 10
36.08486773324159
 20
66.38173320170371
 30
0.0
 10
36.31062576157812
 20
66.60714416611857
 30
0.0
 10
36.43021927680574
 20
66.72655382700133
 30
0.0
  0
LINE
  5
71
330
1F
100
AcDbEntity
  8
0
  6
Continuous
 62
     7
370
    25
100
AcDbLine
 10
74.7973942681
 20
57.0
 30
0.0
 11
74.7973942681
 21
57.0000008814
 31
0.0
  0
SPLINE
  5
72
330
1F
100
AcDbEntity
  8
0
  6
Continuous
 62
     7
370
    25
100
AcDbSpline
210
0.0
220
0.0
230
1.0
 70
    24
 71
     3
 72
    16
 73
    12
 74
     0
 42
0.00000001
 43
0.00000001
 40
0.0
 40
0.0
 40
0.0
 40
0.0
 40
0.2500000000000011
 40
0.2500000000000011
 40
0.5000000000000022
 40
0.5000000000000022
 40
0.7500000000000033
 40
0.7500000000000033
 40
0.8750000000000017
 40
0.8750000000000017
 40
1.0
 40
1.0
 40
1.0
 40
1.0
 10
33.07447003775734
 20
70.70192719095756
 30
0.0
 10
33.07447003835648
 20
70.39318036223403
 30
0.0
 10
33.07447003895565
 20
70.08449304477915
 30
0.0
 10
33.07447004011635
 20
69.48636006686654
 30
0.0
 10
33.07447004068001
 20
69.19579543929818
 30
0.0
 10
33.07447004172187
 20
68.65840151774927
 30
0.0
 10
33.0744700421963
 20
68.41351216731854
 30
0.0
 10
33.07447004274709
 20
68.12908996452987
 30
0.0
 10
33.07447004290134
 20
68.0494476431997
 30
0.0
 10
33.07447004311467
 20
67.93955433261746
 30
0.0
 10
33.07447004317436
 20
67.90894195666647
 30
0.0
 10
33.07447004317436
 20
67.90894196620508
 30
0.0
  0
LINE
  5
73
330
1F
100
AcDbEntity
  8
0
  6
Continuous
 62
     7
370
    25
100
AcDbLine
 10
36.4423198866
 20
66.6968373262
 30
0.0
 11
36.419999635
 21
66.7525485255
 31
0.0
  0
LINE
  5
74
330
1F
100
AcDbEntity
  8
0
  6
Continuous
 62
     7
370
    25
100
AcDbLine
 10
33.1197105097
 20
67.61588582
 30
0.0
 11
33.0744700432
 21
67.9089419662
 31
0.0
  0
SPLINE
  5
75
330
1F
100
AcDbEntity
  8
0
  6
Continuous
 62
     7
370
    25
100
AcDbSpline
210
0.0
220
0.0
230
1.0
 70
    24
 71
     3
 72
    16
 73
    12
 74
     0
 42
0.00000001
 43
0.00000001
 40
0.0
 40
0.0
 40
0.0
 40
0.0
 40
0.1249999999999997
 40
0.1249999999999997
 40
0.2499999999999993
 40
0.2499999999999993
 40
0.4999999999999996
 40
0.4999999999999996
 40
0.7499999999999998
 40
0.7499999999999998
 40
1.0
 40
1.0
 40
1.0
 40
1.0
 10
33.07447008547204
 20
46.09105832784194
 30
0.0
 10
33.07447008547204
 20
46.09105831830357
 30
0.0
 10
33.07447008553178
 20
46.06044213877212
 30
0.0
 10
33.07447008574515
 20
45.95054711435832
 30
0.0
 10
33.07447008589936
 20
45.87090829421037
 30
0.0
 10
33.07447008645041
 20
45.5864917540672
 30
0.0
 10
33.0744700869258
 20
45.34159126561176
 30
0.0
 10
33.07447008796875
 20
44.80417309265687
 30
0.0
 10
33.07447008853214
 20
44.51359817212919
 30
0.0
 10
33.07447008969162
 20
43.91546681763255
 30
0.0
 10
33.07447009028996
 20
43.60679078955963
 30
0.0
 10
33.07447009088906
 20
43.29807286803828
 30
0.0
  0
SPLINE
  5
76
330
1F
100
AcDbEntity
  8
0
  6
Continuous
 62
     7
370
    25
100
AcDbSpline
210
0.0
220
0.0
230
1.0
 70
     8
 71
     3
 72
    14
 73
    10
 74
     0
 42
0.00000001
 43
0.00000001
 40
0.0
 40
0.0
 40
0.0
 40
0.0
 40
0.25
 40
0.25
 40
0.5
 40
0.5
 40
0.75
 40
0.75
 40
1.0
 40
1.0
 40
1.0
 40
1.0
 10
33.07447008547024
 20
46.09105832784191
 30
0.0
 10
33.07447008471614
 20
46.47949579930984
 30
0.0
 10
33.19704446468836
 20
46.86703732043949
 30
0.0
 10
33.64378470848737
 20
47.50261409120128
 30
0.0
 10
33.96692014345942
 20
47.74918335102596
 30
0.0
 10
34.69789421928295
 20
48.012264284268
 30
0.0
 10
35.10404683164197
 20
48.02816914827316
 30
0.0
 10
35.8533553115483
 20
47.82305581642449
 30
0.0
 10
36.19478286137741
 20
47.602510724793
 30
0.0
 10
36.44231992424776
 20
47.30316298094662
 30
0.0
  0
ARC
  5
77
330
1F
100
AcDbEntity
  8
0
  6
Continuous
 62
     7
370
    25
100
AcDbCircle
 10
48.1687511228
 20
57.0000001763
 30
0.0
 40
15.21636751159958
100
AcDbArc
 50
219.5880746321
 51
140.4119255901
  0
LINE
  5
78
330
1F
100
AcDbEntity
  8
0
  6
Continuous
 62
     7
370
    25
100
AcDbLine
 10
33.0744700238
 20
77.9133819166
 30
0.0
 11
33.0744700378
 21
70.701927191
 31
0.0
  0
SPLINE
  5
79
330
1F
100
AcDbEntity
  8
0
  6
Continuous
 62
     7
370
    25
100
AcDbSpline
210
0.0
220
0.0
230
1.0
 70
     8
 71
     3
 72
     8
 73
     4
 74
     0
 42
0.00000001
 43
0.00000001
 40
0.562761759198136
 40
0.562761759198136
 40
0.562761759198136
 40
0.562761759198136
 40
1.57079632679491
 40
1.57079632679491
 40
1.57079632679491
 40
1.57079632679491
 10
33.07447002377728
 20
77.91338191658986
 30
0.0
 10
33.07447002315728
 20
78.23293655303634
 30
0.0
 10
33.42117962236529
 20
78.54725256504557
 30
0.0
 10
33.96172864427802
 20
78.7177426607217
 30
0.0
  0
SPLINE
  5
7A
330
1F
100
AcDbEntity
  8
0
  6
Continuous
 62
     7
370
    25
100
AcDbSpline
210
0.0
220
0.0
230
1.0
 70
     8
 71
     3
 72
     8
 73
     4
 74
     0
 42
0.00000001
 43
0.00000001
 40
0.5627617591981481
 40
0.5627617591981481
 40
0.5627617591981481
 40
0.5627617591981481
 40
1.5707963267949
 40
1.5707963267949
 40
1.5707963267949
 40
1.5707963267949
 10
33.96172872848925
 20
35.28225720291346
 30
0.0
 10
33.42117970591462
 20
35.45274733863139
 30
0.0
 10
33.07447010548922
 20
35.7670634269793
 30
0.0
 10
33.07447010486911
 20
36.08661814240551
 30
0.0
  0
LINE
  5
7B
330
1F
100
AcDbEntity
  8
0
  6
Continuous
 62
     7
370
    25
100
AcDbLine
 10
33.0744700909
 20
43.298072868
 30
0.0
 11
33.0744701049
 21
36.0866181424
 31
0.0
  0
ARC
  5
7C
330
1F
100
AcDbEntity
  8
0
  6
Continuous
 62
     7
370
    25
100
AcDbCircle
 10
48.1687511228
 20
57.0
 30
0.0
 40
26.62864314529979
100
AcDbArc
 50
239.0851298579
 51
120.9148703642
  0
SPLINE
  5
7D
330
1F
100
AcDbEntity
  8
0
  6
Continuous
 62
     7
370
    25
100
AcDbSpline
210
0.0
220
0.0
230
1.0
 70
     8
 71
     3
 72
     8
 73
     4
 74
     0
 42
0.00000001
 43
0.00000001
 40
0.0000000000000035
 40
0.0000000000000035
 40
0.0000000000000035
 40
0.0000000000000035
 40
0.0162856493283282
 40
0.0162856493283282
 40
0.0162856493283282
 40
0.0162856493283282
 10
33.96172873004885
 20
34.47789641080274
 30
0.0
 10
34.12153614986071
 20
34.37708932068524
 30
0.0
 10
34.30418403759124
 20
34.26447102338518
 30
0.0
 10
34.48791474684035
 20
34.15444568820636
 30
0.0
  0
SPLINE
  5
7E
330
1F
100
AcDbEntity
  8
0
  6
Continuous
 62
     7
370
    25
100
AcDbSpline
210
0.0
220
0.0
230
1.0
 70
     8
 71
     3
 72
     8
 73
     4
 74
     0
 42
0.00000001
 43
0.00000001
 40
0.562761759198136
 40
0.562761759198136
 40
0.562761759198136
 40
0.562761759198136
 40
1.57079632679491
 40
1.57079632679491
 40
1.57079632679491
 40
1.57079632679491
 10
33.96172864272211
 20
79.52210355223401
 30
0.0
 10
33.42117962113661
 20
79.18112333032653
 30
0.0
 10
33.07447002253718
 20
78.55249124871798
 30
0.0
 10
33.07447002377728
 20
77.91338191658986
 30
0.0
  0
SPLINE
  5
7F
330
1F
100
AcDbEntity
  8
0
  6
Continuous
 62
     7
370
    25
100
AcDbSpline
210
0.0
220
0.0
230
1.0
 70
     8
 71
     3
 72
     8
 73
     4
 74
     0
 42
0.00000001
 43
0.00000001
 40
0.5627617591981481
 40
0.5627617591981481
 40
0.5627617591981481
 40
0.5627617591981481
 40
1.5707963267949
 40
1.5707963267949
 40
1.5707963267949
 40
1.5707963267949
 10
33.07447010486911
 20
36.08661814240489
 30
0.0
 10
33.07447010610932
 20
35.44750877078699
 30
0.0
 10
33.42117970714331
 20
34.81887665168379
 30
0.0
 10
33.96172873004885
 20
34.47789641080288
 30
0.0
  0
ARC
  5
80
330
1F
100
AcDbEntity
  8
0
  6
Continuous
 62
     7
370
    25
100
AcDbCircle
 10
48.1687511228
 20
57.0000026603
 30
0.0
 40
26.62864314530072
100
AcDbArc
 50
90.0
 51
122.2438737845
  0
SPLINE
  5
81
330
1F
100
AcDbEntity
  8
0
  6
Continuous
 62
     7
370
    25
100
AcDbSpline
210
0.0
220
0.0
230
1.0
 70
     8
 71
     3
 72
    24
 73
    20
 74
     0
 42
0.00000001
 43
0.00000001
 40
0.0
 40
0.0
 40
0.0
 40
0.0
 40
0.1249999999999997
 40
0.1249999999999997
 40
0.2499999999999994
 40
0.2499999999999994
 40
0.3749999999999991
 40
0.3749999999999991
 40
0.4374999999999992
 40
0.4374999999999992
 40
0.4999999999999993
 40
0.4999999999999993
 40
0.7499999999999998
 40
0.7499999999999998
 40
0.875
 40
0.875
 40
0.9374999999999999
 40
0.9374999999999999
 40
1.0
 40
1.0
 40
1.0
 40
1.0
 10
68.56592143382723
 20
74.1184143319871
 30
0.0
 10
67.87685236307686
 20
74.9394635041394
 30
0.0
 10
67.1509207980345
 20
75.70438317427453
 30
0.0
 10
65.62673637038063
 20
77.1344349320097
 30
0.0
 10
64.82294528782353
 20
77.80264493502335
 30
0.0
 10
63.19324051849066
 20
79.00856519327657
 30
0.0
 10
62.36239378621767
 20
79.55182494536271
 30
0.0
 10
61.09086277786785
 20
80.2882721292722
 30
0.0
 10
60.66280745147049
 20
80.52059671143736
 30
0.0
 10
59.79801462225091
 20
80.95996965434449
 30
0.0
 10
59.36012380023047
 20
81.16751315761339
 30
0.0
 10
57.16242453522661
 20
82.13745736987998
 30
0.0
 10
55.39534786104509
 20
82.69441765574523
 30
0.0
 10
52.71090331393972
 20
83.2543155109966
 30
0.0
 10
51.81053311439482
 20
83.39421478322396
 30
0.0
 10
50.44919133505439
 20
83.53473973234799
 30
0.0
 10
49.9930172551591
 20
83.5700063942257
 30
0.0
 10
49.08103913003487
 20
83.61692918470669
 30
0.0
 10
48.62318210342696
 20
83.6286445975826
 30
0.0
 10
48.16875112283171
 20
83.62864461436284
 30
0.0
  0
ARC
  5
82
330
1F
100
AcDbEntity
  8
0
  6
Continuous
 62
     7
370
    25
100
AcDbCircle
 10
48.1687511228
 20
57.0000008814
 30
0.0
 40
26.62864314529973
100
AcDbArc
 50
360.0
 51
40.0052008849
  0
LINE
  5
83
330
1F
100
AcDbEntity
  8
0
  6
Continuous
 62
     7
370
    25
100
AcDbLine
 10
33.0744700238
 20
77.9133845181
 30
0.0
 11
33.0744700238
 21
77.9133819166
 31
0.0
  0
ARC
  5
84
330
1F
100
AcDbEntity
  8
0
  6
Continuous
 62
     7
370
    25
100
AcDbCircle
 10
34.9765159627
 20
77.9133845218
 30
0.0
 40
1.902045938950521
100
AcDbArc
 50
122.2438737845
 51
180.0000001111
  0
ARC
  5
85
330
1F
100
AcDbEntity
  8
0
  6
Continuous
 62
     7
370
    25
100
AcDbCircle
 10
48.1687511228
 20
57.0000026603
 30
0.0
 40
15.21636751159969
100
AcDbArc
 50
219.5880746321
 51
270.4086299737
  0
ARC
  5
86
330
1F
100
AcDbEntity
  8
0
  6
Continuous
 62
     7
370
    25
100
AcDbCircle
 10
48.1687511228
 20
57.000005716
 30
0.0
 40
15.21636751159972
100
AcDbArc
 50
270.4086299737
 51
0.0
  0
ARC
  5
87
330
1F
100
AcDbEntity
  8
0
  6
Continuous
 62
     7
370
    25
100
AcDbCircle
 10
34.9765160244
 20
46.0910608155
 30
0.0
 40
1.90204593895246
100
AcDbArc
 50
39.588074632
 51
180.0000001111
  0
LWPOLYLINE
  5
88
330
1F
100
AcDbEntity
  8
0
  6
Continuous
 62
     7
370
    25
100
AcDbPolyline
 90
       15
 70
   128
 43
0.0
 10
85.4488515263
 20
68.2962871109
 10
86.5136594116
 20
68.4560082973
 10
87.5650767201
 20
68.6137209045
 10
88.5898812688
 20
68.7674416049
 10
89.5751855461
 20
68.9152372714
 10
90.5085987789
 20
69.0552492878
 10
91.3783827543
 20
69.1857169218
 10
92.1735994341
 20
69.3049994672
 10
92.8842485071
 20
69.4115968767
 10
93.501393149
 20
69.5041686262
 10
94.0172724078
 20
69.581550572
 10
94.4253988025
 20
69.6427695914
 10
94.7206399069
 20
69.6870558197
 10
94.8992828928
 20
69.7138523318
 10
94.959081221
 20
69.7228221461
  0
LINE
  5
89
330
1F
100
AcDbEntity
  8
0
  6
Continuous
 62
     7
370
    25
100
AcDbLine
 10
94.959081221
 20
69.7228221461
 30
0.0
 11
94.959081221
 21
69.722825183
 31
0.0
  0
LINE
  5
8A
330
1F
100
AcDbEntity
  8
0
  6
Continuous
 62
     7
370
    25
100
AcDbLine
 10
133.0
 20
75.4289629999
 30
0.0
 11
94.959081221
 21
69.722825183
 31
0.0
  0
LINE
  5
8B
330
1F
100
AcDbEntity
  8
0
  6
Continuous
 62
     7
370
    25
100
AcDbLine
 10
133.0
 20
75.4289593819
 30
0.0
 11
133.0
 21
75.4289629999
 31
0.0
  0
LINE
  5
8C
330
1F
100
AcDbEntity
  8
0
  6
Continuous
 62
     7
370
    25
100
AcDbLine
 10
133.0
 20
75.4289593819
 30
0.0
 11
85.4488515263
 21
68.2962871109
 31
0.0
  0
LWPOLYLINE
  5
8D
330
1F
100
AcDbEntity
  8
0
  6
Continuous
 62
     7
370
    25
100
AcDbPolyline
 90
       46
 70
   128
 43
0.0
 10
126.3428390988
 20
74.4303869897
 10
126.2817541837
 20
74.4212241991
 10
126.0996883869
 20
74.3939142773
 10
125.800185412
 20
74.3489887807
 10
125.3890747437
 20
74.2873221333
 10
124.8743581836
 20
74.210114606
 10
124.2660541039
 20
74.1188689555
 10
123.5760024518
 20
74.0153611748
 10
122.8176342976
 20
73.9016059249
 10
122.0057104149
 20
73.7798173225
 10
121.1560339785
 20
73.6523658441
 10
120.2851429737
 20
73.5217321877
 10
119.4099883033
 20
73.3904589891
 10
118.5476038576
 20
73.2611013315
 10
117.7147749687
 20
73.1361770147
 10
116.9277117037
 20
73.0181175484
 10
116.2017333538
 20
72.9092208258
 10
115.5509702617
 20
72.8116063978
 10
114.9880887909
 20
72.7271742181
 10
114.5240447888
 20
72.6575676632
 10
114.1678703441
 20
72.6041415454
 10
113.9264979873
 20
72.5679357433
 10
113.8046257568
 20
72.5496549617
 10
113.8046257568
 20
72.5496550152
 10
113.9264979873
 20
72.5679359027
 10
114.1678703441
 20
72.6041418077
 10
114.5240447888
 20
72.6575680232
 10
114.9880887909
 20
72.7271746689
 10
115.5509702617
 20
72.8116069305
 10
116.2017333538
 20
72.9092214301
 10
116.9277117037
 20
73.0181182125
 10
117.7147749687
 20
73.1361777257
 10
118.5476038576
 20
73.2611020756
 10
119.4099883033
 20
73.3904597518
 10
120.2851429737
 20
73.5217329542
 10
121.1560339785
 20
73.6523665993
 10
122.0057104149
 20
73.7798180518
 10
122.8176342976
 20
73.9016066142
 10
123.5760024518
 20
74.0153618106
 10
124.2660541039
 20
74.1188695255
 10
124.8743581836
 20
74.2101150989
 10
125.3890747437
 20
74.2873225397
 10
125.800185412
 20
74.3489890927
 10
126.0996883869
 20
74.3939144886
 10
126.2817541837
 20
74.4212243058
 10
126.3428390988
 20
74.4303869897
  0
LINE
  5
8E
330
1F
100
AcDbEntity
  8
0
  6
Continuous
 62
     7
370
    25
100
AcDbLine
 10
85.4488515263
 20
45.7037144542
 30
0.0
 11
133.0
 21
38.5710423716
 31
0.0
  0
LINE
  5
8F
330
1F
100
AcDbEntity
  8
0
  6
Continuous
 62
     7
370
    25
100
AcDbLine
 10
133.0
 20
38.5710423716
 30
0.0
 11
133.0
 21
75.4289593819
 31
0.0
  0
LINE
  5
90
330
1F
100
AcDbEntity
  8
0
  6
Continuous
 62
     7
370
    25
100
AcDbLine
 10
94.959081221
 20
83.6286446144
 30
0.0
 11
48.1687511228
 21
83.6286446144
 31
0.0
  0
LWPOLYLINE
  5
91
330
1F
100
AcDbEntity
  8
0
  6
Continuous
 62
     7
370
    25
100
AcDbPolyline
 90
       17
 70
   128
 43
0.0
 10
85.4488515263
 20
74.118414332
 10
86.3810170448
 20
75.0505798534
 10
87.3042052998
 20
75.9737681169
 10
88.2095254838
 20
76.8790883148
 10
89.0882588684
 20
77.7578217189
 10
89.9319427708
 20
78.6015056459
 10
90.7324520538
 20
79.4020149586
 10
91.4820773755
 20
80.1516403146
 10
92.1735994341
 20
80.8431624119
 10
92.8003584942
 20
81.4699215147
 10
93.3563185235
 20
82.0258815903
 10
93.8361253229
 20
82.5056884392
 10
94.2351580907
 20
82.9047212592
 10
94.5495739232
 20
83.219137146
 10
94.7763448241
 20
83.4459081028
 10
94.9132868656
 20
83.5828502014
 10
94.959081221
 20
83.6286446144
  0
LINE
  5
92
330
1F
100
AcDbEntity
  8
0
  6
Continuous
 62
     7
370
    25
100
AcDbLine
 10
94.959081221
 20
69.7228221461
 30
0.0
 11
94.959081221
 21
83.6286446144
 31
0.0
  0
LINE
  5
93
330
1F
100
AcDbEntity
  8
0
  6
Continuous
 62
     7
370
    25
100
AcDbLine
 10
94.959081221
 20
30.3713583238
 30
0.0
 11
94.959081221
 21
44.2771806187
 31
0.0
  0
LWPOLYLINE
  5
94
330
1F
100
AcDbEntity
  8
0
  6
Continuous
 62
     7
370
    25
100
AcDbPolyline
 90
       17
 70
   128
 43
0.0
 10
94.959081221
 20
30.3713583238
 10
94.9132868656
 20
30.4171526216
 10
94.7763448241
 20
30.554094606
 10
94.5495739232
 20
30.780865451
 10
94.2351580907
 20
31.0952812292
 10
93.8361253229
 20
31.4943139449
 10
93.3563185235
 20
31.9741206948
 10
92.8003584942
 20
32.5300806778
 10
92.1735994341
 20
33.1568396952
 10
91.4820773755
 20
33.8483617151
 10
90.7324520538
 20
34.5979870023
 10
89.9319427708
 20
35.3984962557
 10
89.0882588684
 20
36.2421801335
 10
88.2095254838
 20
37.1209134986
 10
87.3042052998
 20
38.0262336686
 10
86.3810170448
 20
38.9494219152
 10
85.4488515263
 20
39.8815874309
  0
LINE
  5
95
330
1F
100
AcDbEntity
  8
0
  6
Continuous
 62
     7
370
    25
100
AcDbLine
 10
48.1687511228
 20
30.3713583238
 30
0.0
 11
94.959081221
 21
30.3713583238
 31
0.0
  0
LINE
  5
96
330
1F
100
AcDbEntity
  8
0
  6
Continuous
 62
     7
370
    25
100
AcDbLine
 10
94.959081221
 20
83.6286488613
 30
0.0
 11
48.2908375592
 21
83.6286488613
 31
0.0
  0
LINE
  5
97
330
1F
100
AcDbEntity
  8
0
  6
Continuous
 62
     7
370
    25
100
AcDbLine
 10
94.959081221
 20
83.6286446144
 30
0.0
 11
94.959081221
 21
83.6286488613
 31
0.0
  0
LINE
  5
98
330
1F
100
AcDbEntity
  8
0
  6
Continuous
 62
     7
370
    25
100
AcDbLine
 10
48.1687511228
 20
83.6286458056
 30
0.0
 11
48.2908375592
 21
83.6286458056
 31
0.0
  0
ARC
  5
99
330
1F
100
AcDbEntity
  8
0
  6
HIDDEN
 62
     7
370
    18
100
AcDbCircle
 10
48.1687511228
 20
57.0000008814
 30
0.0
 40
26.62864314529973
100
AcDbArc
 50
319.9947991151
 51
360.0
  0
SPLINE
  5
9A
330
1F
100
AcDbEntity
  8
0
  6
HIDDEN
 62
     7
370
    18
100
AcDbSpline
210
0.0
220
0.0
230
1.0
 70
     8
 71
     3
 72
    24
 73
    20
 74
     0
 42
0.00000001
 43
0.00000001
 40
0.0
 40
0.0
 40
0.0
 40
0.0
 40
0.1249999999999996
 40
0.1249999999999996
 40
0.2499999999999993
 40
0.2499999999999993
 40
0.3749999999999989
 40
0.3749999999999989
 40
0.4374999999999988
 40
0.4374999999999988
 40
0.4999999999999988
 40
0.4999999999999988
 40
0.7499999999999997
 40
0.7499999999999997
 40
0.8750000000000001
 40
0.8750000000000001
 40
0.9375000000000001
 40
0.9375000000000001
 40
1.0
 40
1.0
 40
1.0
 40
1.0
 10
68.56592143382565
 20
39.88158743088652
 30
0.0
 10
67.87685236307527
 20
39.06053825873438
 30
0.0
 10
67.15092079803253
 20
38.29561860148353
 30
0.0
 10
65.62673637037872
 20
36.86556688781587
 30
0.0
 10
64.8229452878217
 20
36.19735691641151
 30
0.0
 10
63.19324051848893
 20
34.9914367334197
 30
0.0
 10
62.36239378621601
 20
34.44817702509115
 30
0.0
 10
61.09086277786628
 20
33.71172991365543
 30
0.0
 10
60.66280745146899
 20
33.47940535680239
 30
0.0
 10
59.79801462224948
 20
33.04003246656769
 30
0.0
 10
59.36012380022908
 20
32.83248899073416
 30
0.0
 10
57.16242453522541
 20
31.86254491933842
 30
0.0
 10
55.39534786104407
 20
31.30558475643463
 30
0.0
 10
52.7109033139389
 20
30.74568709360751
 30
0.0
 10
51.81053311439405
 20
30.60578788691513
 30
0.0
 10
50.44919133505358
 20
30.46526303760531
 30
0.0
 10
49.99301725515829
 20
30.42999640929613
 30
0.0
 10
49.08103913003352
 20
30.38307368604597
 30
0.0
 10
48.62318210324054
 20
30.37135830698358
 30
0.0
 10
48.16875112283171
 20
30.37135832376382
 30
0.0
  0
ARC
  5
9B
330
1F
100
AcDbEntity
  8
0
  6
HIDDEN
 62
     7
370
    18
100
AcDbCircle
 10
48.1687511228
 20
57.0000026603
 30
0.0
 40
26.62864314530055
100
AcDbArc
 50
237.7561264377
 51
270.0
  0
ARC
  5
9C
330
1F
100
AcDbEntity
  8
0
  6
HIDDEN
 62
     7
370
    18
100
AcDbCircle
 10
34.9765160438
 20
36.0866207476
 30
0.0
 40
1.902045938950059
100
AcDbArc
 50
180.0000001111
 51
237.7561264377
  0
LINE
  5
9D
330
1F
100
AcDbEntity
  8
0
  6
HIDDEN
 62
     7
370
    18
100
AcDbLine
 10
33.0744701049
 20
36.0866181424
 30
0.0
 11
33.0744701049
 21
36.0866207439
 31
0.0
  0
LWPOLYLINE
  5
9E
330
1F
100
AcDbEntity
  8
0
  6
HIDDEN
 62
     7
370
    18
100
AcDbPolyline
 90
        3
 70
   128
 43
0.0
 10
33.0744700432
 20
67.9089444502
 10
33.1445483641
 20
67.3974042304
 10
33.2011970477
 20
67.2262868274
  0
ARC
  5
9F
330
1F
100
AcDbEntity
  8
0
  6
HIDDEN
 62
     7
370
    18
100
AcDbCircle
 10
34.9765159821
 20
67.9089444539
 30
0.0
 40
1.902045938949966
100
AcDbArc
 50
209.6676570058
 51
320.41192559
  0
ARC
  5
A0
330
1F
100
AcDbEntity
  8
0
  6
HIDDEN
 62
     7
370
    18
100
AcDbCircle
 10
48.1687511228
 20
57.000005716
 30
0.0
 40
15.21636751159972
100
AcDbArc
 50
0.0
 51
89.5913700263
  0
ARC
  5
A1
330
1F
100
AcDbEntity
  8
0
  6
HIDDEN
 62
     7
370
    18
100
AcDbCircle
 10
48.1687511228
 20
57.0000026603
 30
0.0
 40
15.21636751160196
100
AcDbArc
 50
89.5913700263
 51
140.4119255901
  0
LINE
  5
A2
330
1F
100
AcDbEntity
  8
0
  6
HIDDEN
 62
     7
370
    18
100
AcDbLine
 10
133.0
 20
38.5710459896
 30
0.0
 11
133.0
 21
38.5710423716
 31
0.0
  0
LWPOLYLINE
  5
A3
330
1F
100
AcDbEntity
  8
0
  6
HIDDEN
 62
     7
370
    18
100
AcDbPolyline
 90
       15
 70
   128
 43
0.0
 10
94.959081221
 20
44.2771806187
 10
94.8992828928
 20
44.2861503026
 10
94.7206399069
 20
44.3129466855
 10
94.4253988025
 20
44.3572327874
 10
94.0172724078
 20
44.4184516848
 10
93.501393149
 20
44.4958335146
 10
92.8842485071
 20
44.5884051553
 10
92.1735994341
 20
44.6950024648
 10
91.3783827543
 20
44.8142849202
 10
90.5085987789
 20
44.9447524754
 10
89.5751855461
 20
45.0847644251
 10
88.5898812688
 20
45.2325600378
 10
87.5650767201
 20
45.3862806981
 10
86.5136594116
 20
45.5439932792
 10
85.4488515263
 20
45.7037144542
  0
LINE
  5
A4
330
1F
100
AcDbEntity
  8
0
  6
HIDDEN
 62
     7
370
    18
100
AcDbLine
 10
94.959081221
 20
44.2771806187
 30
0.0
 11
94.959081221
 21
44.2771836556
 31
0.0
  0
LINE
  5
A5
330
1F
100
AcDbEntity
  8
0
  6
HIDDEN
 62
     7
370
    18
100
AcDbLine
 10
94.959081221
 20
30.3713625707
 30
0.0
 11
94.959081221
 21
30.3713583238
 31
0.0
  0
LWPOLYLINE
  5
A6
330
1F
100
AcDbEntity
  8
0
  6
HIDDEN
 62
     7
370
    18
100
AcDbPolyline
 90
       46
 70
   128
 43
0.0
 10
126.3428391663
 20
39.5696182132
 10
126.2817542512
 20
39.5787810036
 10
126.0996884543
 20
39.6060909248
 10
125.8001854792
 20
39.6510164201
 10
125.3890748107
 20
39.712683066
 10
124.8743582503
 20
39.7898905913
 10
124.2660541703
 20
39.8811362394
 10
123.5760025178
 20
39.9846440175
 10
122.8176343631
 20
40.0983992644
 10
122.00571048
 20
40.2201878637
 10
121.1560340431
 20
40.3476393388
 10
120.2851430378
 20
40.4782729917
 10
119.4099883669
 20
40.609546187
 10
118.5476039206
 20
40.7389038413
 10
117.7147750313
 20
40.8638281548
 10
116.9277117658
 20
40.9818876181
 10
116.2017334155
 20
41.0907843378
 10
115.550970323
 20
41.1883987633
 10
114.9880888518
 20
41.2728309408
 10
114.5240448495
 20
41.3424374939
 10
114.1678704046
 20
41.3958636104
 10
113.9264980477
 20
41.4320694115
 10
113.8046258171
 20
41.4503501927
 10
113.8046258171
 20
41.4503501392
 10
113.9264980477
 20
41.4320692521
 10
114.1678704046
 20
41.3958633481
 10
114.5240448495
 20
41.3424371339
 10
114.9880888518
 20
41.27283049
 10
115.550970323
 20
41.1883982306
 10
116.2017334155
 20
41.0907837335
 10
116.9277117658
 20
40.9818869539
 10
117.7147750313
 20
40.8638274438
 10
118.5476039206
 20
40.7389030971
 10
119.4099883669
 20
40.6095454243
 10
120.2851430378
 20
40.4782722253
 10
121.1560340431
 20
40.3476385835
 10
122.00571048
 20
40.2201871343
 10
122.8176343631
 20
40.0983985751
 10
123.5760025178
 20
39.9846433817
 10
124.2660541703
 20
39.8811356695
 10
124.8743582503
 20
39.7898900984
 10
125.3890748107
 20
39.7126826596
 10
125.8001854792
 20
39.6510161082
 10
126.0996884543
 20
39.6060907134
 10
126.2817542512
 20
39.5787808969
 10
126.3428391663
 20
39.5696182132
  0
LINE
  5
A7
330
1F
100
AcDbEntity
  8
0
  6
HIDDEN
 62
     7
370
    18
100
AcDbLine
 10
46.3887916202
 20
81.7266029223
 30
0.0
 11
46.3887916202
 21
81.7265998666
 31
0.0
  0
ARC
  5
A8
330
1F
100
AcDbEntity
  8
0
  6
HIDDEN
 62
     7
370
    18
100
AcDbCircle
 10
48.2908375592
 20
81.7266029223
 30
0.0
 40
1.902045938949975
100
AcDbArc
 50
90.0
 51
180.0
  0
ARC
  5
A9
330
1F
100
AcDbEntity
  8
0
  6
HIDDEN
 62
     7
370
    18
100
AcDbCircle
 10
48.2908375592
 20
81.7265998666
 30
0.0
 40
1.902045938949961
100
AcDbArc
 50
90.0
 51
180.0
  0
LINE
  5
AA
330
1F
100
AcDbEntity
  8
0
  6
HIDDEN
 62
     7
370
    18
100
AcDbLine
 10
46.3887916202
 20
74.1179807525
 30
0.0
 11
46.3887916202
 21
81.7265998666
 31
0.0
  0
ARC
  5
AB
330
1F
100
AcDbEntity
  8
0
  6
HIDDEN
 62
     7
370
    18
100
AcDbCircle
 10
48.2908375592
 20
74.1179838082
 30
0.0
 40
1.902045938949975
100
AcDbArc
 50
180.0
 51
269.5913700264
  0
LINE
  5
AC
330
1F
100
AcDbEntity
  8
0
  6
HIDDEN
 62
     7
370
    18
100
AcDbLine
 10
46.3887916202
 20
74.1179807525
 30
0.0
 11
46.3887916202
 21
74.1179838082
 31
0.0
  0
ARC
  5
AD
330
1F
100
AcDbEntity
  8
0
  6
HIDDEN
 62
     7
370
    18
100
AcDbCircle
 10
48.2908375592
 20
74.1179807525
 30
0.0
 40
1.902045938949956
100
AcDbArc
 50
180.0
 51
269.5913700264
  0
LINE
  5
AE
330
1F
100
AcDbEntity
  8
0
  6
HIDDEN
 62
     7
370
    18
100
AcDbLine
 10
46.3887916202
 20
39.8820276237
 30
0.0
 11
46.3887916202
 21
39.8820245681
 31
0.0
  0
ARC
  5
AF
330
1F
100
AcDbEntity
  8
0
  6
HIDDEN
 62
     7
370
    18
100
AcDbCircle
 10
48.2908375592
 20
39.8820276237
 30
0.0
 40
1.902045938949975
100
AcDbArc
 50
90.4086299736
 51
180.0
  0
ARC
  5
B0
330
1F
100
AcDbEntity
  8
0
  6
HIDDEN
 62
     7
370
    18
100
AcDbCircle
 10
48.2908375592
 20
39.8820245681
 30
0.0
 40
1.902045938949956
100
AcDbArc
 50
90.4086299736
 51
180.0
  0
LINE
  5
B1
330
1F
100
AcDbEntity
  8
0
  6
HIDDEN
 62
     7
370
    18
100
AcDbLine
 10
46.3887916202
 20
32.2734054539
 30
0.0
 11
46.3887916202
 21
39.8820245681
 31
0.0
  0
ARC
  5
B2
330
1F
100
AcDbEntity
  8
0
  6
HIDDEN
 62
     7
370
    18
100
AcDbCircle
 10
48.2908375592
 20
32.2734085096
 30
0.0
 40
1.902045938949975
100
AcDbArc
 50
180.0
 51
270.0
  0
LINE
  5
B3
330
1F
100
AcDbEntity
  8
0
  6
HIDDEN
 62
     7
370
    18
100
AcDbLine
 10
46.3887916202
 20
32.2734054539
 30
0.0
 11
46.3887916202
 21
32.2734085096
 31
0.0
  0
ARC
  5
B4
330
1F
100
AcDbEntity
  8
0
  6
HIDDEN
 62
     7
370
    18
100
AcDbCircle
 10
48.2908375592
 20
32.2734054539
 30
0.0
 40
1.902045938949968
100
AcDbArc
 50
180.0
 51
270.0
  0
LINE
  5
B5
330
1F
100
AcDbEntity
  8
0
  6
HIDDEN
 62
     7
370
    18
100
AcDbLine
 10
94.959081221
 20
69.722825183
 30
0.0
 11
94.959081221
 21
44.2771836556
 31
0.0
  0
LINE
  5
B6
330
1F
100
AcDbEntity
  8
0
  6
HIDDEN
 62
     7
370
    18
100
AcDbLine
 10
94.959081221
 20
44.2771836556
 30
0.0
 11
133.0
 21
38.5710459896
 31
0.0
  0
LINE
  5
B7
330
1F
100
AcDbEntity
  8
0
  6
HIDDEN
 62
     7
370
    18
100
AcDbLine
 10
48.2908375592
 20
30.3713625707
 30
0.0
 11
94.959081221
 21
30.3713625707
 31
0.0
  0
LINE
  5
B8
330
1F
100
AcDbEntity
  8
0
  6
HIDDEN
 62
     7
370
    18
100
AcDbLine
 10
63.3851186344
 20
57.0000001763
 30
0.0
 11
63.3851186344
 21
57.000005716
 31
0.0
  0
LINE
  5
B9
330
1F
100
AcDbEntity
  8
0
  6
HIDDEN
 62
     7
370
    18
100
AcDbLine
 10
113.7893359054
 20
72.5473615107
 30
0.0
 11
113.7893359656
 21
41.4526436436
 31
0.0
  0
LINE
  5
BA
330
1F
100
AcDbEntity
  8
0
  6
HIDDEN
 62
     7
370
    18
100
AcDbLine
 10
126.3428391663
 20
39.5696182132
 30
0.0
 11
126.3428390988
 21
74.4303869897
 31
0.0
  0
LINE
  5
BB
330
1F
100
AcDbEntity
  8
0
  6
Continuous
 62
     7
370
    25
100
AcDbLine
 10
74.7973942681
 20
112.2358796127
 30
0.0
 11
74.7973942681
 21
126.5012133191
 31
0.0
  0
ARC
  5
BC
330
1F
100
AcDbEntity
  8
0
  6
Continuous
 62
     7
370
    25
100
AcDbCircle
 10
73.8463712987
 20
112.2358796127
 30
0.0
 40
0.951022969474991
100
AcDbArc
 50
270.0
 51
0.0
  0
LINE
  5
BD
330
1F
100
AcDbEntity
  8
0
  6
Continuous
 62
     7
370
    25
100
AcDbLine
 10
34.6053287702
 20
111.3213097506
 30
0.0
 11
34.7664383311
 21
111.3266445423
 31
0.0
  0
LWPOLYLINE
  5
BE
330
1F
100
AcDbEntity
  8
0
  6
Continuous
 62
     7
370
    25
100
AcDbPolyline
 90
        9
 70
   128
 43
0.0
 10
33.9617286427
 20
155.2905900699
 10
35.5798815183
 20
155.2905900117
 10
37.2603041011
 20
155.2905899606
 10
38.9946843324
 20
155.2905899169
 10
40.7744432571
 20
155.2905898809
 10
42.5907774581
 20
155.2905898527
 10
44.4347026025
 20
155.2905898324
 10
46.2970978807
 20
155.2905898202
 10
48.1687511228
 20
155.2905898162
  0
SPLINE
  5
BF
330
1F
100
AcDbEntity
  8
0
  6
Continuous
 62
     7
370
    25
100
AcDbSpline
210
0.0
220
0.0
230
1.0
 70
     8
 71
     3
 72
    24
 73
    20
 74
     0
 42
0.00000001
 43
0.00000001
 40
0.0
 40
0.0
 40
0.0
 40
0.0
 40
0.1249999999999997
 40
0.1249999999999997
 40
0.2499999999999994
 40
0.2499999999999994
 40
0.3749999999999991
 40
0.3749999999999991
 40
0.4374999999999992
 40
0.4374999999999992
 40
0.4999999999999993
 40
0.4999999999999993
 40
0.7499999999999998
 40
0.7499999999999998
 40
0.875
 40
0.875
 40
0.9374999999999999
 40
0.9374999999999999
 40
1.0
 40
1.0
 40
1.0
 40
1.0
 10
68.56592143382723
 20
126.5012122613259
 30
0.0
 10
67.87685236307686
 20
126.5012122105943
 30
0.0
 10
67.1509207980345
 20
126.6054744065767
 30
0.0
 10
65.62673637038063
 20
126.9620693738551
 30
0.0
 10
64.82294528782353
 20
127.2178531011371
 30
0.0
 10
63.19324051849066
 20
127.8268719577716
 30
0.0
 10
62.36239378621767
 20
128.1809609965494
 30
0.0
 10
61.09086277786785
 20
128.7674231965095
 30
0.0
 10
60.66280745147049
 20
128.9722504531142
 30
0.0
 10
59.79801462225091
 20
129.3984791161222
 30
0.0
 10
59.36012380023047
 20
129.6204879777018
 30
0.0
 10
57.16242453522661
 20
130.7604244318156
 30
0.0
 10
55.39534786104509
 20
131.7554377937156
 30
0.0
 10
52.71090331393972
 20
133.3125494777476
 30
0.0
 10
51.81053311439482
 20
133.8428636396565
 30
0.0
 10
50.44919133505439
 20
134.6505681881238
 30
0.0
 10
49.9930172551591
 20
134.922207358535
 30
0.0
 10
49.08103913003487
 20
135.4662445906539
 30
0.0
 10
48.62318210342696
 20
135.7398671713356
 30
0.0
 10
48.16875112283171
 20
136.0114413684503
 30
0.0
  0
LWPOLYLINE
  5
C0
330
1F
100
AcDbEntity
  8
0
  6
Continuous
 62
     7
370
    25
100
AcDbPolyline
 90
       32
 70
   128
 43
0.0
 10
34.9765159606
 20
111.2848552821
 10
36.5056094954
 20
111.2848552298
 10
38.0887334816
 20
111.284855184
 10
39.7185539687
 20
111.284855145
 10
41.3875206806
 20
111.284855113
 10
43.0879019937
 20
111.284855088
 10
44.8118207532
 20
111.2848550703
 10
46.5512907655
 20
111.2848550598
 10
48.2982537942
 20
111.2848550567
 10
50.0446168913
 20
111.2848550609
 10
51.7822898879
 20
111.2848550725
 10
53.5032228724
 20
111.2848550913
 10
55.1994434831
 20
111.2848551173
 10
56.8630938402
 20
111.2848551504
 10
58.4864669481
 20
111.2848551904
 10
60.062042399
 20
111.2848552371
 10
61.5825212116
 20
111.2848552904
 10
63.0408596443
 20
111.2848553499
 10
64.4303018258
 20
111.2848554154
 10
65.7444110523
 20
111.2848554866
 10
66.9770996059
 20
111.2848555631
 10
68.1226569569
 20
111.2848556447
 10
69.1757762176
 20
111.2848557309
 10
70.1315787276
 20
111.2848558213
 10
70.985636654
 20
111.2848559155
 10
71.733993504
 20
111.2848560131
 10
72.3731824539
 20
111.2848561136
 10
72.9002424088
 20
111.2848562165
 10
73.3127317206
 20
111.2848563215
 10
73.6087394991
 20
111.2848564279
 10
73.7868944643
 20
111.2848565353
 10
73.8463712987
 20
111.2848566433
  0
LWPOLYLINE
  5
C1
330
1F
100
AcDbEntity
  8
0
  6
Continuous
 62
     7
370
    25
100
AcDbPolyline
 90
       36
 70
   128
 43
0.0
 10
48.2772723996
 20
204.7437849632
 10
49.634613199
 20
204.7437849675
 10
50.9802585969
 20
204.7437849792
 10
52.3034723421
 20
204.7437849982
 10
53.5936971547
 20
204.7437850243
 10
54.8406389576
 20
204.7437850573
 10
56.0343490078
 20
204.743785097
 10
57.1653032724
 20
204.7437851431
 10
58.2244784166
 20
204.7437851951
 10
59.2034237965
 20
204.7437852527
 10
60.0943288821
 20
204.7437853154
 10
60.8900855746
 20
204.7437853828
 10
61.5843449177
 20
204.7437854541
 10
62.1715677533
 20
204.743785529
 10
62.6470689156
 20
204.7437856068
 10
63.0070546117
 20
204.7437856869
 10
63.2486526907
 20
204.7437857686
 10
63.3699355587
 20
204.7437858513
 10
63.3699355587
 20
204.7437859343
 10
63.2486526907
 20
204.743786017
 10
63.0070546117
 20
204.7437860987
 10
62.6470689156
 20
204.7437861788
 10
62.1715677533
 20
204.7437862566
 10
61.5843449177
 20
204.7437863315
 10
60.8900855746
 20
204.7437864029
 10
60.0943288821
 20
204.7437864702
 10
59.2034237965
 20
204.7437865329
 10
58.2244784166
 20
204.7437865905
 10
57.1653032724
 20
204.7437866425
 10
56.0343490078
 20
204.7437866886
 10
54.8406389576
 20
204.7437867283
 10
53.5936971547
 20
204.7437867613
 10
52.3034723421
 20
204.7437867874
 10
50.9802585969
 20
204.7437868064
 10
49.634613199
 20
204.7437868181
 10
48.2772723996
 20
204.7437868224
  0
LWPOLYLINE
  5
C2
330
1F
100
AcDbEntity
  8
0
  6
Continuous
 62
     7
370
    25
100
AcDbPolyline
 90
        9
 70
   128
 43
0.0
 10
48.2772723996
 20
204.7437868224
 10
47.9081325614
 20
204.7437868247
 10
47.5535670387
 20
204.7437868315
 10
47.2270785289
 20
204.7437868422
 10
46.9411004902
 20
204.7437868567
 10
46.7065236456
 20
204.7437868743
 10
46.5322812387
 20
204.7437868943
 10
46.4250088342
 20
204.743786916
 10
46.3887916202
 20
204.7437869386
  0
LINE
  5
C3
330
1F
100
AcDbEntity
  8
0
  6
Continuous
 62
     7
370
    25
100
AcDbLine
 10
46.3887916202
 20
204.7437874034
 30
0.0
 11
46.3887916202
 21
204.7437869386
 31
0.0
  0
LWPOLYLINE
  5
C4
330
1F
100
AcDbEntity
  8
0
  6
Continuous
 62
     7
370
    25
100
AcDbPolyline
 90
        9
 70
   128
 43
0.0
 10
46.3887916202
 20
204.7437874034
 10
46.4253388996
 20
204.7437874261
 10
46.5335762463
 20
204.7437874479
 10
46.7093441597
 20
204.7437874679
 10
46.9458879776
 20
204.7437874855
 10
47.2341174536
 20
204.7437875
 10
47.5629560907
 20
204.7437875107
 10
47.9197668044
 20
204.7437875173
 10
48.2908375592
 20
204.7437875196
  0
LINE
  5
C5
330
1F
100
AcDbEntity
  8
0
  6
Continuous
 62
     7
370
    25
100
AcDbLine
 10
48.2908375592
 20
204.7437875196
 30
0.0
 11
94.959081221
 21
204.7437875196
 31
0.0
  0
LINE
  5
C6
330
1F
100
AcDbEntity
  8
0
  6
Continuous
 62
     7
370
    25
100
AcDbLine
 10
94.959081221
 20
204.7437875196
 30
0.0
 11
94.959081221
 21
204.743784266
 31
0.0
  0
LINE
  5
C7
330
1F
100
AcDbEntity
  8
0
  6
Continuous
 62
     7
370
    25
100
AcDbLine
 10
94.959081221
 20
204.743784266
 30
0.0
 11
48.2908375592
 21
204.743784266
 31
0.0
  0
LWPOLYLINE
  5
C8
330
1F
100
AcDbEntity
  8
0
  6
Continuous
 62
     7
370
    25
100
AcDbPolyline
 90
        9
 70
   128
 43
0.0
 10
48.2908375592
 20
204.743784266
 10
47.9197668044
 20
204.7437842683
 10
47.5629560907
 20
204.7437842749
 10
47.2341174536
 20
204.7437842856
 10
46.9458879776
 20
204.7437843001
 10
46.7093441597
 20
204.7437843177
 10
46.5335762463
 20
204.7437843378
 10
46.4253388996
 20
204.7437843596
 10
46.3887916202
 20
204.7437843822
  0
LINE
  5
C9
330
1F
100
AcDbEntity
  8
0
  6
Continuous
 62
     7
370
    25
100
AcDbLine
 10
46.3887916202
 20
204.743784847
 30
0.0
 11
46.3887916202
 21
204.7437843822
 31
0.0
  0
LWPOLYLINE
  5
CA
330
1F
100
AcDbEntity
  8
0
  6
Continuous
 62
     7
370
    25
100
AcDbPolyline
 90
        9
 70
   128
 43
0.0
 10
46.3887916202
 20
204.743784847
 10
46.4250088342
 20
204.7437848696
 10
46.5322812387
 20
204.7437848913
 10
46.7065236456
 20
204.7437849113
 10
46.9411004902
 20
204.7437849289
 10
47.2270785289
 20
204.7437849434
 10
47.5535670387
 20
204.7437849542
 10
47.9081325614
 20
204.7437849609
 10
48.2772723996
 20
204.7437849632
  0
LINE
  5
CB
330
1F
100
AcDbEntity
  8
0
  6
Continuous
 62
     7
370
    25
100
AcDbLine
 10
48.1687511228
 20
155.2905898162
 30
0.0
 11
48.2908375592
 21
155.2905898162
 31
0.0
  0
LINE
  5
CC
330
1F
100
AcDbEntity
  8
0
  6
Continuous
 62
     7
370
    25
100
AcDbLine
 10
94.959081221
 20
136.0114413685
 30
0.0
 11
94.959081221
 21
204.743784266
 31
0.0
  0
LWPOLYLINE
  5
CD
330
1F
100
AcDbEntity
  8
0
  6
Continuous
 62
     7
370
    25
100
AcDbPolyline
 90
        9
 70
   128
 43
0.0
 10
48.2908375592
 20
155.2905898162
 10
47.9197668044
 20
155.2905898184
 10
47.5629560907
 20
155.2905898251
 10
47.2341174537
 20
155.290589836
 10
46.9458879776
 20
155.2905898506
 10
46.7093441597
 20
155.2905898684
 10
46.5335762463
 20
155.2905898887
 10
46.4253388996
 20
155.2905899108
 10
46.3887916202
 20
155.2905899337
  0
LINE
  5
CE
330
1F
100
AcDbEntity
  8
0
  6
Continuous
 62
     7
370
    25
100
AcDbLine
 10
46.3887916202
 20
204.7437843822
 30
0.0
 11
46.3887916202
 21
155.2905899337
 31
0.0
  0
LINE
  5
CF
330
1F
100
AcDbEntity
  8
0
  6
Continuous
 62
     7
370
    25
100
AcDbLine
 10
33.0744700432
 20
155.2905907875
 30
0.0
 11
33.0744700238
 21
155.2905901693
 31
0.0
  0
LWPOLYLINE
  5
D0
330
1F
100
AcDbEntity
  8
0
  6
Continuous
 62
     7
370
    25
100
AcDbPolyline
 90
       10
 70
   128
 43
0.0
 10
33.0744700432
 20
155.2905907875
 10
33.1445483641
 20
155.2905908191
 10
33.3496194421
 20
155.2905908484
 10
33.6745721422
 20
155.2905908732
 10
34.0954615754
 20
155.2905908916
 10
34.5812735337
 20
155.2905909024
 10
35.096209843
 20
155.2905909048
 10
35.6023262342
 20
155.2905908985
 10
36.0623283543
 20
155.290590884
 10
36.4423198866
 20
155.2905908624
  0
LWPOLYLINE
  5
D1
330
1F
100
AcDbEntity
  8
0
  6
Continuous
 62
     7
370
    25
100
AcDbPolyline
 90
       11
 70
   128
 43
0.0
 10
36.4423198866
 20
155.2905908624
 10
37.3473867132
 20
155.2905908005
 10
38.3375341944
 20
155.2905907439
 10
39.4049775083
 20
155.2905906929
 10
40.541324111
 20
155.290590648
 10
41.7376397213
 20
155.2905906094
 10
42.9845185644
 20
155.2905905776
 10
44.2721573231
 20
155.2905905527
 10
45.5904322142
 20
155.2905905349
 10
46.9289785841
 20
155.2905905245
 10
48.2772723996
 20
155.2905905214
  0
LINE
  5
D2
330
1F
100
AcDbEntity
  8
0
  6
Continuous
 62
     7
370
    25
100
AcDbLine
 10
46.3887916202
 20
155.2905904038
 30
0.0
 11
46.3887916202
 21
155.2905899337
 31
0.0
  0
LWPOLYLINE
  5
D3
330
1F
100
AcDbEntity
  8
0
  6
Continuous
 62
     7
370
    25
100
AcDbPolyline
 90
        9
 70
   128
 43
0.0
 10
33.9617286427
 20
155.2905900699
 10
33.7676040117
 20
155.2905900786
 10
33.5926480012
 20
155.2905900887
 10
33.43963473
 20
155.2905901001
 10
33.3109903909
 20
155.2905901126
 10
33.2087547805
 20
155.2905901259
 10
33.1345489561
 20
155.29059014
 10
33.0895495321
 20
155.2905901545
 10
33.0744700238
 20
155.2905901693
  0
LINE
  5
D4
330
1F
100
AcDbEntity
  8
0
  6
Continuous
 62
     7
370
    25
100
AcDbLine
 10
68.5659214338
 20
126.5012122613
 30
0.0
 11
85.4488515263
 21
126.5012122613
 31
0.0
  0
ARC
  5
D5
330
1F
100
AcDbEntity
  8
0
  6
Continuous
 62
     7
370
    25
100
AcDbCircle
 10
85.4488515263
 20
136.0114419561
 30
0.0
 40
9.510229694749857
100
AcDbArc
 50
270.0
 51
359.9999964598
  0
SPLINE
  5
D6
330
1F
100
AcDbEntity
  8
0
  6
Continuous
 62
     7
370
    25
100
AcDbSpline
210
0.0
220
0.0
230
1.0
 70
     8
 71
     3
 72
     8
 73
     4
 74
     0
 42
0.00000001
 43
0.00000001
 40
0.0000000000000008
 40
0.0000000000000008
 40
0.0000000000000008
 40
0.0000000000000008
 40
0.0162856493285267
 40
0.0162856493285267
 40
0.0162856493285267
 40
0.0162856493285267
 10
33.961728644278
 20
111.5781795566763
 30
0.0
 10
34.26992866764056
 20
111.3837658878554
 30
0.0
 10
34.62217816476234
 20
111.2848552886321
 30
0.0
 10
34.97651596056276
 20
111.284855282077
 30
0.0
  0
LINE
  5
D7
330
1F
100
AcDbEntity
  8
0
  6
Continuous
 62
     7
370
    25
100
AcDbLine
 10
33.0744700238
 20
155.2905901693
 30
0.0
 11
33.0744700238
 21
113.18690129
 31
0.0
  0
SPLINE
  5
D8
330
1F
100
AcDbEntity
  8
0
  6
Continuous
 62
     7
370
    25
100
AcDbSpline
210
0.0
220
0.0
230
1.0
 70
     8
 71
     3
 72
     8
 73
     4
 74
     0
 42
0.00000001
 43
0.00000001
 40
0.562761759198136
 40
0.562761759198136
 40
0.562761759198136
 40
0.562761759198136
 40
1.57079632679491
 40
1.57079632679491
 40
1.57079632679491
 40
1.57079632679491
 10
33.96172864272211
 20
112.3825403487871
 30
0.0
 10
33.42117962113661
 20
112.5530304855529
 30
0.0
 10
33.07447002253718
 20
112.8673465745728
 30
0.0
 10
33.07447002377728
 20
113.1869012899993
 30
0.0
  0
SPLINE
  5
D9
330
1F
100
AcDbEntity
  8
0
  6
Continuous
 62
     7
370
    25
100
AcDbSpline
210
0.0
220
0.0
230
1.0
 70
     8
 71
     3
 72
     8
 73
     4
 74
     0
 42
0.00000001
 43
0.00000001
 40
0.562761759198136
 40
0.562761759198136
 40
0.562761759198136
 40
0.562761759198136
 40
1.57079632679491
 40
1.57079632679491
 40
1.57079632679491
 40
1.57079632679491
 10
33.07447002377728
 20
113.1869012899993
 30
0.0
 10
33.07447002315728
 20
112.547791918381
 30
0.0
 10
33.42117962236529
 20
111.9191597986043
 30
0.0
 10
33.96172864427802
 20
111.5781795566759
 30
0.0
  0
LWPOLYLINE
  5
DA
330
1F
100
AcDbEntity
  8
0
  6
Continuous
 62
     7
370
    25
100
AcDbPolyline
 90
       31
 70
   128
 43
0.0
 10
34.9765160298
 20
111.2848574899
 10
36.1023491063
 20
111.2848575517
 10
37.3038855228
 20
111.2848576079
 10
38.5735869662
 20
111.284857658
 10
39.9034874627
 20
111.2848577018
 10
41.2852433561
 20
111.2848577389
 10
42.710185655
 20
111.2848577691
 10
44.169374421
 20
111.2848577922
 10
45.6536548567
 20
111.2848578082
 10
47.1537147425
 20
111.2848578168
 10
48.66014286
 20
111.2848578181
 10
50.1634880373
 20
111.284857812
 10
51.6543184445
 20
111.2848577986
 10
53.1232807681
 20
111.2848577779
 10
54.5611588926
 20
111.2848577502
 10
55.9589317214
 20
111.2848577154
 10
57.3078297745
 20
111.284857674
 10
58.5993902071
 20
111.284857626
 10
59.8255099046
 20
111.2848575719
 10
60.9784963205
 20
111.284857512
 10
62.0511157392
 20
111.2848574467
 10
63.0366386588
 20
111.2848573762
 10
63.9288820121
 20
111.2848573012
 10
64.7222479579
 20
111.2848572221
 10
65.4117590014
 20
111.2848571393
 10
65.9930892227
 20
111.2848570535
 10
66.462591417
 20
111.284856965
 10
66.8173199768
 20
111.2848568745
 10
67.0550493724
 20
111.2848567826
 10
67.1742881143
 20
111.2848566898
 10
67.1892105123
 20
111.2848566433
  0
LINE
  5
DB
330
1F
100
AcDbEntity
  8
0
  6
Continuous
 62
     7
370
    25
100
AcDbLine
 10
133.0
 20
185.723325354
 30
0.0
 11
94.959081221
 21
185.7233257066
 31
0.0
  0
LINE
  5
DC
330
1F
100
AcDbEntity
  8
0
  6
Continuous
 62
     7
370
    25
100
AcDbLine
 10
133.0
 20
126.5012121803
 30
0.0
 11
133.0
 21
185.723325354
 31
0.0
  0
LINE
  5
DD
330
1F
100
AcDbEntity
  8
0
  6
Continuous
 62
     7
370
    25
100
AcDbLine
 10
133.0
 20
126.5012121803
 30
0.0
 11
85.4488515263
 21
126.5012126211
 31
0.0
  0
CIRCLE
  5
DE
330
1F
100
AcDbEntity
  8
0
  6
Continuous
 62
     7
370
    25
100
AcDbCircle
 10
120.0660875021
 20
155.0319013899
 30
0.0
 40
6.276751596709758
  0
LINE
  5
DF
330
1F
100
AcDbEntity
  8
0
  6
Continuous
 62
     7
370
    25
100
AcDbLine
 10
94.959081221
 20
185.7233272788
 30
0.0
 11
133.0
 21
185.7233276314
 31
0.0
  0
LINE
  5
E0
330
1F
100
AcDbEntity
  8
0
  6
Continuous
 62
     7
370
    25
100
AcDbLine
 10
133.0
 20
185.723325354
 30
0.0
 11
133.0
 21
185.7233276314
 31
0.0
  0
ARC
  5
E1
330
1F
100
AcDbEntity
  8
0
  6
Continuous
 62
     7
370
    25
100
AcDbCircle
 10
120.066087566
 20
155.0319034046
 30
0.0
 40
6.276751598535357
100
AcDbArc
 50
178.1825729458
 51
358.1825729458
  0
LINE
  5
E2
330
1F
100
AcDbEntity
  8
0
  6
Continuous
 62
     7
370
    25
100
AcDbLine
 10
33.0744701049
 20
155.2905927537
 30
0.0
 11
33.0744700855
 21
155.2905921356
 31
0.0
  0
LWPOLYLINE
  5
E3
330
1F
100
AcDbEntity
  8
0
  6
HIDDEN
 62
     7
370
    18
100
AcDbPolyline
 90
       21
 70
   128
 43
0.0
 10
68.5659214338
 20
126.5012122613
 10
69.7104972039
 20
126.5012123518
 10
70.7500964703
 20
126.501212447
 10
71.6796530933
 20
126.5012125465
 10
72.4946371892
 20
126.5012126497
 10
73.1910772052
 20
126.5012127562
 10
73.7655792736
 20
126.5012128655
 10
74.2153437504
 20
126.5012129769
 10
74.5381788587
 20
126.50121309
 10
74.7325113695
 20
126.5012132043
 10
74.7973942681
 20
126.5012133191
 10
74.7325113695
 20
126.5012134338
 10
74.5381788587
 20
126.5012135481
 10
74.2153437504
 20
126.5012136612
 10
73.7655792736
 20
126.5012137726
 10
73.1910772052
 20
126.5012138819
 10
72.4946371892
 20
126.5012139884
 10
71.6796530933
 20
126.5012140916
 10
70.7500964703
 20
126.5012141911
 10
69.7104972039
 20
126.5012142863
 10
68.5659214338
 20
126.5012143768
  0
LWPOLYLINE
  5
E4
330
1F
100
AcDbEntity
  8
0
  6
HIDDEN
 62
     7
370
    18
100
AcDbPolyline
 90
        8
 70
   128
 43
0.0
 10
45.4357017434
 20
155.2905930982
 10
44.434702628
 20
155.2905930906
 10
42.590777496
 20
155.2905930704
 10
40.7744433067
 20
155.2905930422
 10
38.994684393
 20
155.2905930062
 10
37.2603041717
 20
155.2905929625
 10
35.5798815979
 20
155.2905929114
 10
33.96172873
 20
155.2905928531
  0
LWPOLYLINE
  5
E5
330
1F
100
AcDbEntity
  8
0
  6
HIDDEN
 62
     7
370
    18
100
AcDbPolyline
 90
       32
 70
   128
 43
0.0
 10
73.8463712987
 20
111.2848566433
 10
73.786894471
 20
111.2848567512
 10
73.6087395126
 20
111.2848568586
 10
73.3127317408
 20
111.284856965
 10
72.9002424356
 20
111.28485707
 10
72.3731824871
 20
111.2848571729
 10
71.7339935436
 20
111.2848572734
 10
70.9856366996
 20
111.284857371
 10
70.1315787791
 20
111.2848574652
 10
69.1757762749
 20
111.2848575557
 10
68.1226570195
 20
111.2848576418
 10
66.9770996737
 20
111.2848577234
 10
65.7444111249
 20
111.2848577999
 10
64.4303019029
 20
111.2848578711
 10
63.0408597255
 20
111.2848579366
 10
61.5825212965
 20
111.2848579962
 10
60.0620424872
 20
111.2848580494
 10
58.4864670392
 20
111.2848580961
 10
56.8630939338
 20
111.2848581361
 10
55.1994435789
 20
111.2848581692
 10
53.5032229698
 20
111.2848581952
 10
51.7822899864
 20
111.2848582141
 10
50.0446169906
 20
111.2848582256
 10
48.2982538938
 20
111.2848582298
 10
46.5512908648
 20
111.2848582267
 10
44.8118208519
 20
111.2848582162
 10
43.0879020913
 20
111.2848581985
 10
41.3875207767
 20
111.2848581735
 10
39.7185540627
 20
111.2848581415
 10
38.0887335732
 20
111.2848581025
 10
36.5056095841
 20
111.2848580567
 10
34.976516046
 20
111.2848580044
  0
LWPOLYLINE
  5
E6
330
1F
100
AcDbEntity
  8
0
  6
HIDDEN
 62
     7
370
    18
100
AcDbPolyline
 90
        9
 70
   128
 43
0.0
 10
48.2772723996
 20
155.2905905214
 10
47.9081325614
 20
155.290590519
 10
47.5535670387
 20
155.2905905122
 10
47.2270785289
 20
155.2905905013
 10
46.9411004902
 20
155.2905904866
 10
46.7065236456
 20
155.2905904689
 10
46.5322812387
 20
155.2905904486
 10
46.4250088342
 20
155.2905904267
 10
46.3887916202
 20
155.2905904038
  0
ARC
  5
E7
330
1F
100
AcDbEntity
  8
0
  6
HIDDEN
 62
     7
370
    18
100
AcDbCircle
 10
85.4488515263
 20
136.0114423158
 30
0.0
 40
9.510229694749839
100
AcDbArc
 50
270.0
 51
359.999999469
  0
LINE
  5
E8
330
1F
100
AcDbEntity
  8
0
  6
HIDDEN
 62
     7
370
    18
100
AcDbLine
 10
94.959081221
 20
136.0114422277
 30
0.0
 11
94.959081221
 21
136.0114413685
 31
0.0
  0
LINE
  5
E9
330
1F
100
AcDbEntity
  8
0
  6
HIDDEN
 62
     7
370
    18
100
AcDbLine
 10
33.0744700238
 20
113.18690129
 30
0.0
 11
33.0744700378
 21
113.1869017356
 31
0.0
  0
SPLINE
  5
EA
330
1F
100
AcDbEntity
  8
0
  6
HIDDEN
 62
     7
370
    18
100
AcDbSpline
210
0.0
220
0.0
230
1.0
 70
     8
 71
     3
 72
     9
 73
     5
 74
     0
 42
0.00000001
 43
0.00000001
 40
0.0
 40
0.0
 40
0.0
 40
0.0
 40
0.7759421883618383
 40
1.0
 40
1.0
 40
1.0
 40
1.0
 10
34.97651602983902
 20
111.2848574898874
 30
0.0
 10
35.03471514315655
 20
111.2847179868948
 30
0.0
 10
35.10971958832071
 20
111.2845382016033
 30
0.0
 10
35.18669679225962
 20
111.340370843985
 30
0.0
 10
35.20394413612019
 20
111.352880583655
 30
0.0
  0
LWPOLYLINE
  5
EB
330
1F
100
AcDbEntity
  8
0
  6
HIDDEN
 62
     7
370
    18
100
AcDbPolyline
 90
       31
 70
   128
 43
0.0
 10
67.1892105123
 20
111.2848566433
 10
67.1742881114
 20
111.2848565967
 10
67.0550493636
 20
111.2848565039
 10
66.8173199623
 20
111.284856412
 10
66.4625913968
 20
111.2848563215
 10
65.993089197
 20
111.2848562331
 10
65.4117589703
 20
111.2848561472
 10
64.7222479216
 20
111.2848560644
 10
63.9288819708
 20
111.2848559853
 10
63.0366386128
 20
111.2848559103
 10
62.0511156888
 20
111.2848558399
 10
60.978496266
 20
111.2848557745
 10
59.8255098463
 20
111.2848557146
 10
58.5993901455
 20
111.2848556605
 10
57.3078297098
 20
111.2848556126
 10
55.9589316541
 20
111.2848555711
 10
54.5611588231
 20
111.2848555364
 10
53.1232806969
 20
111.2848555086
 10
51.654318372
 20
111.2848554879
 10
50.163487964
 20
111.2848554745
 10
48.6601427863
 20
111.2848554684
 10
47.1537146688
 20
111.2848554697
 10
45.6536547836
 20
111.2848554783
 10
44.1693743489
 20
111.2848554943
 10
42.7101855844
 20
111.2848555174
 10
41.2852432874
 20
111.2848555477
 10
39.9034873963
 20
111.2848555848
 10
38.5735869025
 20
111.2848556285
 10
37.3038854623
 20
111.2848556786
 10
36.1023490492
 20
111.2848557348
 10
34.9765159767
 20
111.2848557966
  0
LINE
  5
EC
330
1F
100
AcDbEntity
  8
0
  6
HIDDEN
 62
     7
370
    18
100
AcDbLine
 10
94.959081221
 20
185.7233257066
 30
0.0
 11
94.959081221
 21
185.7233272788
 31
0.0
  0
LINE
  5
ED
330
1F
100
AcDbEntity
  8
0
  6
HIDDEN
 62
     7
370
    18
100
AcDbLine
 10
133.0
 20
126.5012144578
 30
0.0
 11
133.0
 21
126.5012121803
 31
0.0
  0
ARC
  5
EE
330
1F
100
AcDbEntity
  8
0
  6
HIDDEN
 62
     7
370
    18
100
AcDbCircle
 10
120.066087566
 20
155.0319034046
 30
0.0
 40
6.276751598535357
100
AcDbArc
 50
358.1825729458
 51
178.1825729458
  0
LWPOLYLINE
  5
EF
330
1F
100
AcDbEntity
  8
0
  6
HIDDEN
 62
     7
370
    18
100
AcDbPolyline
 90
       11
 70
   128
 43
0.0
 10
36.4423199242
 20
155.2905920607
 10
37.3473867505
 20
155.2905921225
 10
38.3375342304
 20
155.2905921791
 10
39.4049775421
 20
155.2905922301
 10
40.5413241417
 20
155.2905922751
 10
41.737639748
 20
155.2905923136
 10
42.9845185866
 20
155.2905923455
 10
44.2721573402
 20
155.2905923704
 10
45.5904322258
 20
155.2905923881
 10
46.92897859
 20
155.2905923986
 10
48.1687511228
 20
155.2905914615
  0
LINE
  5
F0
330
1F
100
AcDbEntity
  8
0
  6
HIDDEN
 62
     7
370
    18
100
AcDbLine
 10
34.6182729146
 20
111.356116476
 30
0.0
 11
34.273051801
 21
111.424785225
 31
0.0
  0
LINE
  5
F1
330
1F
100
AcDbEntity
  8
0
  6
HIDDEN
 62
     7
370
    18
100
AcDbLine
 10
34.2077485687
 20
111.4569612628
 30
0.0
 11
33.6687756686
 21
111.8170914411
 31
0.0
  0
LINE
  5
F2
330
1F
100
AcDbEntity
  8
0
  6
HIDDEN
 62
     7
370
    18
100
AcDbLine
 10
33.2078330668
 20
112.5164424734
 30
0.0
 11
33.0744700909
 21
113.1869034288
 31
0.0
  0
LWPOLYLINE
  5
F3
330
1F
100
AcDbEntity
  8
0
  6
HIDDEN
 62
     7
370
    18
100
AcDbPolyline
 90
       10
 70
   128
 43
0.0
 10
36.4423199242
 20
155.2905920607
 10
36.0623283905
 20
155.2905920391
 10
35.6023262695
 20
155.2905920246
 10
35.0962098779
 20
155.2905920183
 10
34.5812735688
 20
155.2905920206
 10
34.0954616112
 20
155.2905920314
 10
33.6745721791
 20
155.2905920499
 10
33.3496194806
 20
155.2905920747
 10
33.1445484044
 20
155.290592104
 10
33.0744700855
 20
155.2905921356
  0
LWPOLYLINE
  5
F4
330
1F
100
AcDbEntity
  8
0
  6
HIDDEN
 62
     7
370
    18
100
AcDbPolyline
 90
        9
 70
   128
 43
0.0
 10
33.0744701049
 20
155.2905927537
 10
33.0895496142
 20
155.2905927685
 10
33.134549039
 20
155.290592783
 10
33.2087548643
 20
155.2905927971
 10
33.3109904756
 20
155.2905928105
 10
33.4396348155
 20
155.290592823
 10
33.5926480873
 20
155.2905928344
 10
33.7676040985
 20
155.2905928445
 10
33.96172873
 20
155.2905928531
  0
LINE
  5
F5
330
1F
100
AcDbEntity
  8
0
  6
HIDDEN
 62
     7
370
    18
100
AcDbLine
 10
46.3887916202
 20
155.2905929894
 30
0.0
 11
46.3887916202
 21
155.2905925192
 31
0.0
  0
LINE
  5
F6
330
1F
100
AcDbEntity
  8
0
  6
HIDDEN
 62
     7
370
    18
100
AcDbLine
 10
85.4488515263
 20
126.501214017
 30
0.0
 11
133.0
 21
126.5012144578
 31
0.0
  0
LINE
  5
F7
330
1F
100
AcDbEntity
  8
0
  6
HIDDEN
 62
     7
370
    18
100
AcDbLine
 10
94.959081221
 20
136.0114446592
 30
0.0
 11
94.959081221
 21
136.0114437999
 31
0.0
  0
LINE
  5
F8
330
1F
100
AcDbEntity
  8
0
  6
HIDDEN
 62
     7
370
    18
100
AcDbLine
 10
85.4488515263
 20
126.5012143768
 30
0.0
 11
68.5659214338
 21
126.5012143768
 31
0.0
  0
SPLINE
  5
F9
330
1F
100
AcDbEntity
  8
0
  6
HIDDEN
 62
     7
370
    18
100
AcDbSpline
210
0.0
220
0.0
230
1.0
 70
     8
 71
     3
 72
     8
 73
     4
 74
     0
 42
0.00000001
 43
0.00000001
 40
0.5627617591981481
 40
0.5627617591981481
 40
0.5627617591981481
 40
0.5627617591981481
 40
1.5707963267949
 40
1.5707963267949
 40
1.5707963267949
 40
1.5707963267949
 10
33.07447010486911
 20
113.1869038744252
 30
0.0
 10
33.07447010610932
 20
112.8673492379785
 30
0.0
 10
33.42117970714331
 20
112.5530332266419
 30
0.0
 10
33.96172873004885
 20
112.3825431320137
 30
0.0
  0
SPLINE
  5
FA
330
1F
100
AcDbEntity
  8
0
  6
HIDDEN
 62
     7
370
    18
100
AcDbSpline
210
0.0
220
0.0
230
1.0
 70
     8
 71
     3
 72
     9
 73
     5
 74
     0
 42
0.00000001
 43
0.00000001
 40
0.0
 40
0.0
 40
0.0
 40
0.0
 40
0.3444967994529894
 40
1.0
 40
1.0
 40
1.0
 40
1.0
 10
34.52464971688765
 20
111.3654154418547
 30
0.0
 10
34.45516703091484
 20
111.3744106421001
 30
0.0
 10
34.25347376095372
 20
111.4005217707365
 30
0.0
 10
34.07724635627817
 20
111.5078368575984
 30
0.0
 10
33.96172872848925
 20
111.5781822405034
 30
0.0
  0
ARC
  5
FB
330
1F
100
AcDbEntity
  8
0
  6
HIDDEN
 62
     7
370
    18
100
AcDbCircle
 10
67.1892105123
 20
115.0889485212
 30
0.0
 40
3.804091877899936
100
AcDbArc
 50
180.0
 51
270.0
  0
LINE
  5
FC
330
1F
100
AcDbEntity
  8
0
  6
HIDDEN
 62
     7
370
    18
100
AcDbLine
 10
126.3396816414
 20
154.8328355604
 30
0.0
 11
126.339681709
 21
154.8328376901
 31
0.0
  0
LINE
  5
FD
330
1F
100
AcDbEntity
  8
0
  6
HIDDEN
 62
     7
370
    18
100
AcDbLine
 10
113.792493423
 20
155.2309691191
 30
0.0
 11
113.7924933627
 21
155.2309672195
 31
0.0
  0
LINE
  5
FE
330
1F
100
AcDbEntity
  8
0
  6
HIDDEN
 62
     7
370
    18
100
AcDbLine
 10
63.3851186344
 20
115.0889485212
 30
0.0
 11
63.3851186344
 21
204.7437858928
 31
0.0
  0
LINE
  5
FF
330
1F
100
AcDbEntity
  8
0
  6
HIDDEN
 62
     7
370
    18
100
AcDbLine
 10
34.7664383311
 20
111.3266445423
 30
0.0
 11
35.2094808351
 21
111.3413149285
 31
0.0
  0
LINE
  5
100
330
1F
100
AcDbEntity
  8
0
  6
Continuous
 62
     7
370
    25
100
AcDbLine
 10
177.2358812581
 20
30.3713568547
 30
0.0
 11
201.0114446592
 21
30.3713583238
 31
0.0
  0
LINE
  5
101
330
1F
100
AcDbEntity
  8
0
  6
Continuous
 62
     7
370
    25
100
AcDbLine
 10
201.0114413684
 20
83.6286446144
 30
0.0
 11
177.2358779674
 21
83.6286431453
 31
0.0
  0
ARC
  5
102
330
1F
100
AcDbEntity
  8
0
  6
Continuous
 62
     7
370
    25
100
AcDbCircle
 10
177.2358780261
 20
82.6776201758
 30
0.0
 40
0.9510229694749928
100
AcDbArc
 50
90.0000035402
 51
180.0000035402
  0
ARC
  5
103
330
1F
100
AcDbEntity
  8
0
  6
Continuous
 62
     7
370
    25
100
AcDbCircle
 10
177.2358811993
 20
31.3223798242
 30
0.0
 40
0.9510229694749928
100
AcDbArc
 50
180.0000035403
 51
270.0000035402
  0
LINE
  5
104
330
1F
100
AcDbEntity
  8
0
  6
Continuous
 62
     7
370
    25
100
AcDbLine
 10
191.5012144578
 20
38.5710423716
 30
0.0
 11
191.5012121803
 21
75.4289593819
 31
0.0
  0
LINE
  5
105
330
1F
100
AcDbEntity
  8
0
  6
Continuous
 62
     7
370
    25
100
AcDbLine
 10
191.5012121803
 20
75.4289593819
 30
0.0
 11
250.723325354
 21
75.4289629999
 31
0.0
  0
LINE
  5
106
330
1F
100
AcDbEntity
  8
0
  6
Continuous
 62
     7
370
    25
100
AcDbLine
 10
250.723325354
 20
75.4289629999
 30
0.0
 11
250.7233276314
 21
38.5710459896
 31
0.0
  0
LINE
  5
107
330
1F
100
AcDbEntity
  8
0
  6
Continuous
 62
     7
370
    25
100
AcDbLine
 10
250.7233276314
 20
38.5710459896
 30
0.0
 11
191.5012144578
 21
38.5710423716
 31
0.0
  0
LINE
  5
108
330
1F
100
AcDbEntity
  8
0
  6
Continuous
 62
     7
370
    25
100
AcDbLine
 10
201.0114413685
 20
83.6286446144
 30
0.0
 11
269.743784266
 21
83.6286488613
 31
0.0
  0
LINE
  5
109
330
1F
100
AcDbEntity
  8
0
  6
Continuous
 62
     7
370
    25
100
AcDbLine
 10
269.7437875196
 20
30.3713625707
 30
0.0
 11
269.743784266
 21
83.6286488613
 31
0.0
  0
LINE
  5
10A
330
1F
100
AcDbEntity
  8
0
  6
Continuous
 62
     7
370
    25
100
AcDbLine
 10
269.7437875196
 20
30.3713625707
 30
0.0
 11
201.0114446592
 21
30.3713583238
 31
0.0
  0
ARC
  5
10B
330
1F
100
AcDbEntity
  8
0
  6
Continuous
 62
     7
370
    25
100
AcDbCircle
 10
201.0114440715
 20
39.8815880185
 30
0.0
 40
9.510229694749842
100
AcDbArc
 50
187.9207805726
 51
270.0000035402
  0
ARC
  5
10C
330
1F
100
AcDbEntity
  8
0
  6
Continuous
 62
     7
370
    25
100
AcDbCircle
 10
201.0114419561
 20
74.1184149196
 30
0.0
 40
9.510229694749842
100
AcDbArc
 50
90.0000035402
 51
172.0792265654
  0
LINE
  5
10D
330
1F
100
AcDbEntity
  8
0
  6
Continuous
 62
     7
370
    25
100
AcDbLine
 10
176.2848550567
 20
82.6776201171
 30
0.0
 11
176.2848582299
 21
31.3223797654
 31
0.0
  0
ELLIPSE
  5
10E
330
1F
100
AcDbEntity
  8
0
  6
HIDDEN
 62
     7
370
    18
100
AcDbEllipse
 10
220.0319013899
 20
73.4888742502
 30
0.0
 11
6.276751598534872
 21
3.834549744397009E-7
 31
0.0
210
0.0
220
0.0
230
1.0
 40
0.15
 41
0.0
 42
6.283185307179586
  0
ELLIPSE
  5
10F
330
1F
100
AcDbEntity
  8
0
  6
HIDDEN
 62
     7
370
    18
100
AcDbEllipse
 10
220.0319034046
 20
40.5111309284
 30
0.0
 11
6.276751598534872
 21
3.834549815451282E-7
 31
0.0
210
0.0
220
0.0
230
1.0
 40
0.1499999961
 41
0.0
 42
6.283185307179586
  0
LINE
  5
110
330
1F
100
AcDbEntity
  8
0
  6
HIDDEN
 62
     7
370
    18
100
AcDbLine
 10
201.0114422277
 20
69.7228221461
 30
0.0
 11
250.7233257066
 21
69.722825183
 31
0.0
  0
LINE
  5
111
330
1F
100
AcDbEntity
  8
0
  6
HIDDEN
 62
     7
370
    18
100
AcDbLine
 10
201.0114437999
 20
44.2771806187
 30
0.0
 11
250.7233272788
 21
44.2771836556
 31
0.0
  0
ARC
  5
112
330
1F
100
AcDbEntity
  8
0
  6
HIDDEN
 62
     7
370
    18
100
AcDbCircle
 10
201.0114440715
 20
39.8815880185
 30
0.0
 40
9.510229694749842
100
AcDbArc
 50
180.0000035402
 51
187.9207805726
  0
ELLIPSE
  5
113
330
1F
100
AcDbEntity
  8
0
  6
HIDDEN
 62
     7
370
    18
100
AcDbEllipse
 10
201.0114437118
 20
45.7037150352
 30
0.0
 11
9.510229694749825
 21
5.808397105511176E-7
 31
0.0
210
0.0
220
0.0
230
1.0
 40
0.149999996
 41
3.141592653696907
 42
4.712388980491688
  0
ARC
  5
114
330
1F
100
AcDbEntity
  8
0
  6
HIDDEN
 62
     7
370
    18
100
AcDbCircle
 10
201.0114419561
 20
74.1184149196
 30
0.0
 40
9.510229694749837
100
AcDbArc
 50
172.0792265654
 51
180.0000035402
  0
ELLIPSE
  5
115
330
1F
100
AcDbEntity
  8
0
  6
HIDDEN
 62
     7
370
    18
100
AcDbEllipse
 10
201.0114423158
 20
68.2962876919
 30
0.0
 11
9.510229694749796
 21
5.808397105511176E-7
 31
0.0
210
0.0
220
0.0
230
1.0
 40
0.15
 41
1.570796326901931
 42
3.141592653696895
  0
LINE
  5
116
330
1F
100
AcDbEntity
  8
0
  6
HIDDEN
 62
     7
370
    18
100
AcDbLine
 10
220.2905920607
 20
47.303165465
 30
0.0
 11
220.2905924017
 21
41.7840221339
 31
0.0
  0
LINE
  5
117
330
1F
100
AcDbEntity
  8
0
  6
HIDDEN
 62
     7
370
    18
100
AcDbLine
 10
220.2905908624
 20
66.6968398102
 30
0.0
 11
220.2905905214
 21
72.2159831867
 31
0.0
  0
LINE
  5
118
330
1F
100
AcDbEntity
  8
0
  6
HIDDEN
 62
     7
370
    18
100
AcDbLine
 10
220.2905931069
 20
30.371359515
 30
0.0
 11
220.2905929894
 21
32.2734054539
 31
0.0
  0
LINE
  5
119
330
1F
100
AcDbEntity
  8
0
  6
HIDDEN
 62
     7
370
    18
100
AcDbLine
 10
220.2905898162
 20
83.6286458056
 30
0.0
 11
220.2905899337
 21
81.7265998666
 31
0.0
  0
LINE
  5
11A
330
1F
100
AcDbEntity
  8
0
  6
HIDDEN
 62
     7
370
    18
100
AcDbLine
 10
220.2905925192
 20
39.8820245681
 30
0.0
 11
220.2905924017
 21
41.7840221339
 31
0.0
  0
LINE
  5
11B
330
1F
100
AcDbEntity
  8
0
  6
HIDDEN
 62
     7
370
    18
100
AcDbLine
 10
220.2905905214
 20
72.2159831867
 30
0.0
 11
220.2905904038
 21
74.1179807525
 31
0.0
  0
LINE
  5
11C
330
1F
100
AcDbEntity
  8
0
  6
HIDDEN
 62
     7
370
    18
100
AcDbLine
 10
220.2905929894
 20
32.2734054539
 30
0.0
 11
220.2905925192
 21
39.8820245681
 31
0.0
  0
LINE
  5
11D
330
1F
100
AcDbEntity
  8
0
  6
HIDDEN
 62
     7
370
    18
100
AcDbLine
 10
220.2905904038
 20
74.1179807525
 30
0.0
 11
220.2905899337
 21
81.7265998666
 31
0.0
  0
LINE
  5
11E
330
1F
100
AcDbEntity
  8
0
  6
HIDDEN
 62
     7
370
    18
100
AcDbLine
 10
220.290590905
 20
66.006898515
 30
0.0
 11
220.2905908624
 21
66.6968398102
 31
0.0
  0
LINE
  5
11F
330
1F
100
AcDbEntity
  8
0
  6
HIDDEN
 62
     7
370
    18
100
AcDbLine
 10
220.2905920607
 20
47.303165465
 30
0.0
 11
220.2905920181
 21
47.9931067545
 31
0.0
  0
SPLINE
  5
120
330
1F
100
AcDbEntity
  8
0
  6
HIDDEN
 62
     7
370
    18
100
AcDbSpline
210
0.0
220
0.0
230
1.0
 70
     8
 71
     3
 72
     8
 73
     4
 74
     0
 42
0.00000001
 43
0.00000001
 40
0.562761759198136
 40
0.562761759198136
 40
0.562761759198136
 40
0.562761759198136
 40
1.57079632679491
 40
1.57079632679491
 40
1.57079632679491
 40
1.57079632679491
 10
178.1869012899993
 20
77.91338191658986
 30
0.0
 10
177.547791918381
 20
78.23293655303634
 30
0.0
 10
176.9191597986043
 20
78.54725256504557
 30
0.0
 10
176.5781795566759
 20
78.7177426607217
 30
0.0
  0
SPLINE
  5
121
330
1F
100
AcDbEntity
  8
0
  6
HIDDEN
 62
     7
370
    18
100
AcDbSpline
210
0.0
220
0.0
230
1.0
 70
     8
 71
     3
 72
     8
 73
     4
 74
     0
 42
0.00000001
 43
0.00000001
 40
0.5627617591981481
 40
0.5627617591981481
 40
0.5627617591981481
 40
0.5627617591981481
 40
1.5707963267949
 40
1.5707963267949
 40
1.5707963267949
 40
1.5707963267949
 10
176.5781822405023
 20
35.28225720291346
 30
0.0
 10
176.9191624613625
 20
35.45274733863139
 30
0.0
 10
177.5477945422963
 20
35.7670634269793
 30
0.0
 10
178.1869038744244
 20
36.08661814240551
 30
0.0
  0
SPLINE
  5
122
330
1F
100
AcDbEntity
  8
0
  6
HIDDEN
 62
     7
370
    18
100
AcDbSpline
210
0.0
220
0.0
230
1.0
 70
     8
 71
     3
 72
     8
 73
     4
 74
     0
 42
0.00000001
 43
0.00000001
 40
0.5627617591981481
 40
0.5627617591981481
 40
0.5627617591981481
 40
0.5627617591981481
 40
1.5707963267949
 40
1.5707963267949
 40
1.5707963267949
 40
1.5707963267949
 10
178.1869038744252
 20
36.08661814240489
 30
0.0
 10
177.8673492379785
 20
35.44750877078699
 30
0.0
 10
177.5530332266419
 20
34.81887665168379
 30
0.0
 10
177.3825431320137
 20
34.47789641080288
 30
0.0
  0
SPLINE
  5
123
330
1F
100
AcDbEntity
  8
0
  6
HIDDEN
 62
     7
370
    18
100
AcDbSpline
210
0.0
220
0.0
230
1.0
 70
     8
 71
     3
 72
     8
 73
     4
 74
     0
 42
0.00000001
 43
0.00000001
 40
0.562761759198136
 40
0.562761759198136
 40
0.562761759198136
 40
0.562761759198136
 40
1.57079632679491
 40
1.57079632679491
 40
1.57079632679491
 40
1.57079632679491
 10
177.3825403487871
 20
79.52210355223401
 30
0.0
 10
177.5530304855529
 20
79.18112333032653
 30
0.0
 10
177.8673465745728
 20
78.55249124871798
 30
0.0
 10
178.1869012899993
 20
77.91338191658986
 30
0.0
  0
LINE
  5
124
330
1F
100
AcDbEntity
  8
0
  6
HIDDEN
 62
     7
370
    18
100
AcDbLine
 10
213.7551497914
 20
73.4888738668
 30
0.0
 11
213.7551518061
 21
40.511130545
 31
0.0
  0
LINE
  5
125
330
1F
100
AcDbEntity
  8
0
  6
HIDDEN
 62
     7
370
    18
100
AcDbLine
 10
226.3086550031
 20
40.5111313119
 30
0.0
 11
226.3086529885
 21
73.4888746337
 31
0.0
  0
ARC
  5
126
330
1F
100
AcDbEntity
  8
0
  6
HIDDEN
 62
     7
370
    18
100
AcDbCircle
 10
180.0889496964
 20
37.9795407868
 30
0.0
 40
3.804091877899928
100
AcDbArc
 50
90.0000035402
 51
180.0000035402
  0
ARC
  5
127
330
1F
100
AcDbEntity
  8
0
  6
HIDDEN
 62
     7
370
    18
100
AcDbCircle
 10
180.0889473459
 20
76.0204595658
 30
0.0
 40
3.804091877899943
100
AcDbArc
 50
180.0000035402
 51
270.0000035402
  0
LINE
  5
128
330
1F
100
AcDbEntity
  8
0
  6
HIDDEN
 62
     7
370
    18
100
AcDbLine
 10
180.0889494614
 20
41.7836326647
 30
0.0
 11
220.2905924017
 21
41.7836351487
 31
0.0
  0
LINE
  5
129
330
1F
100
AcDbEntity
  8
0
  6
HIDDEN
 62
     7
370
    18
100
AcDbLine
 10
220.2905905213
 20
72.2163701719
 30
0.0
 11
180.088947581
 21
72.2163676879
 31
0.0
  0
LINE
  5
12A
330
1F
100
AcDbEntity
  8
0
  6
HIDDEN
 62
     7
370
    18
100
AcDbLine
 10
180.0889479646
 20
66.0068960309
 30
0.0
 11
220.290590905
 21
66.006898515
 31
0.0
  0
LINE
  5
12B
330
1F
100
AcDbEntity
  8
0
  6
HIDDEN
 62
     7
370
    18
100
AcDbLine
 10
220.2905920181
 20
47.9931067545
 30
0.0
 11
180.0889490777
 21
47.9931042705
 31
0.0
  0
SPLINE
  5
12C
330
1F
100
AcDbEntity
  8
0
  6
HIDDEN
 62
     7
370
    18
100
AcDbSpline
210
0.0
220
0.0
230
1.0
 70
     8
 71
     3
 72
    17
 73
    13
 74
     0
 42
0.00000001
 43
0.00000001
 40
0.0
 40
0.0
 40
0.0
 40
0.0
 40
0.1871379067831935
 40
0.3384340826979447
 40
0.4564005708211002
 40
0.5380967358634346
 40
0.5865245078957865
 40
0.6647393291819881
 40
0.7230666371106594
 40
0.7969037343166736
 40
0.8893702943821374
 40
1.0
 40
1.0
 40
1.0
 40
1.0
 10
176.3212877013696
 20
70.70192707865174
 30
0.0
 10
176.3360575248964
 20
70.28654721228104
 30
0.0
 10
176.3627683701913
 20
69.53534342645892
 30
0.0
 10
176.685821344602
 20
68.56401376579758
 30
0.0
 10
177.0400659094948
 20
67.86532519333129
 30
0.0
 10
177.3636625963221
 20
67.41384445377646
 30
0.0
 10
177.6736367558267
 20
67.06620564363119
 30
0.0
 10
177.9784843871436
 20
66.78635229437216
 30
0.0
 10
178.3583393464375
 20
66.5086087437826
 30
0.0
 10
178.7999434653176
 20
66.26797702375927
 30
0.0
 10
179.3885233315029
 20
66.05836384567532
 30
0.0
 10
179.8419560734409
 20
66.02493225792827
 30
0.0
 10
180.0889479646474
 20
66.00672155031948
 30
0.0
  0
SPLINE
  5
12D
330
1F
100
AcDbEntity
  8
0
  6
HIDDEN
 62
     7
370
    18
100
AcDbSpline
210
0.0
220
0.0
230
1.0
 70
     8
 71
     3
 72
    17
 73
    13
 74
     0
 42
0.00000001
 43
0.00000001
 40
0.0
 40
0.0
 40
0.0
 40
0.0
 40
0.1106288028369162
 40
0.2030950662818119
 40
0.2769325180958184
 40
0.335260363463983
 40
0.4134761631214435
 40
0.46190445421613
 40
0.5436032016093317
 40
0.6615739505191044
 40
0.812871470825431
 40
1.0
 40
1.0
 40
1.0
 40
1.0
 10
180.0889490776762
 20
47.99327889499119
 30
0.0
 10
179.8419596585642
 20
47.97506674015958
 30
0.0
 10
179.3885304325479
 20
47.94163242018313
 30
0.0
 10
178.7999569160934
 20
47.73201102166218
 30
0.0
 10
178.3583519481124
 20
47.49138107372172
 30
0.0
 10
177.9784911714669
 20
47.21363982468826
 30
0.0
 10
177.6736391382007
 20
46.93378546655465
 30
0.0
 10
177.3636607635933
 20
46.58613930562875
 30
0.0
 10
177.040058290354
 20
46.13464392822708
 30
0.0
 10
176.6858108727423
 20
45.43593845128501
 30
0.0
 10
176.3627706080687
 20
44.46461619110453
 30
0.0
 10
176.3360591566876
 20
43.71343124778043
 30
0.0
 10
176.3212893875852
 20
43.29807275573192
 30
0.0
  0
ENDSEC
  0
SECTION
  2
OBJECTS
  0
DICTIONARY
  5
C
330
0
100
AcDbDictionary
281
     1
  3
ACAD_GROUP
350
D
  3
ACAD_LAYOUT
350
1A
  3
ACAD_MLINESTYLE
350
17
  3
ACAD_PLOTSETTINGS
350
19
  3
ACAD_PLOTSTYLENAME
350
E
  3
ACAD_SCALELIST
350
47
  3
DWGPROPS
350
12E
  0
DICTIONARY
  5
D
102
{ACAD_REACTORS
330
C
102
}
330
C
100
AcDbDictionary
281
     1
  0
DICTIONARY
  5
1A
102
{ACAD_REACTORS
330
C
102
}
330
C
100
AcDbDictionary
281
     1
  3
Layout1
350
1E
  3
Layout2
350
26
  3
Model
350
22
  0
DICTIONARY
  5
17
102
{ACAD_REACTORS
330
C
102
}
330
C
100
AcDbDictionary
281
     1
  3
Standard
350
18
  0
DICTIONARY
  5
19
102
{ACAD_REACTORS
330
C
102
}
330
C
100
AcDbDictionary
281
     1
  0
ACDBDICTIONARYWDFLT
  5
E
102
{ACAD_REACTORS
330
C
102
}
330
C
100
AcDbDictionary
281
     1
  3
Normal
350
F
100
AcDbDictionaryWithDefault
340
F
  0
DICTIONARY
  5
47
102
{ACAD_REACTORS
330
C
102
}
330
C
100
AcDbDictionary
281
     1
  3
A0
350
48
  3
A1
350
49
  3
A2
350
4A
  3
A3
350
4B
  3
A4
350
4C
  3
A5
350
4D
  3
A6
350
4E
  3
A7
350
4F
  3
A8
350
50
  3
A9
350
51
  3
B0
350
52
  3
B1
350
53
  3
B2
350
54
  3
B3
350
55
  3
B4
350
56
  3
B5
350
57
  3
B6
350
58
  0
XRECORD
  5
12E
102
{ACAD_REACTORS
330
C
102
}
330
C
100
AcDbXrecord
280
     1
  1
DWGPROPS COOKIE
  2

  3

  4

  6

  7

  8

  9

300
=
301
=
302
=
303
=
304
=
305
=
306
=
307
=
308
=
309
=
 40
0.0
 41
2461215.168739178
 42
2461215.168739468
  1

 90
        0
  0
LAYOUT
  5
1E
102
{ACAD_REACTORS
330
1A
102
}
330
1A
100
AcDbPlotSettings
  1

  2
none_device
  4

  6

 40
0.0
 41
0.0
 42
0.0
 43
0.0
 44
0.0
 45
0.0
 46
0.0
 47
0.0
 48
0.0
 49
0.0
140
0.0
141
0.0
142
1.0
143
1.0
 70
   688
 72
     1
 73
     0
 74
     5
  7

 75
    16
147
1.0
148
0.0
149
0.0
100
AcDbLayout
  1
Layout1
 70
     1
 71
     1
 10
0.0
 20
0.0
 11
420.0
 21
297.0
 12
0.0
 22
0.0
 32
0.0
 14
1.0000000000E+20
 24
1.0000000000E+20
 34
1.0000000000E+20
 15
-1.0000000000E+20
 25
-1.0000000000E+20
 35
-1.0000000000E+20
146
0.0
 13
0.0
 23
0.0
 33
0.0
 16
1.0
 26
0.0
 36
0.0
 17
0.0
 27
1.0
 37
0.0
 76
     0
330
1B
  0
LAYOUT
  5
26
102
{ACAD_REACTORS
330
1A
102
}
330
1A
100
AcDbPlotSettings
  1

  2
none_device
  4

  6

 40
0.0
 41
0.0
 42
0.0
 43
0.0
 44
0.0
 45
0.0
 46
0.0
 47
0.0
 48
0.0
 49
0.0
140
0.0
141
0.0
142
1.0
143
1.0
 70
   688
 72
     1
 73
     0
 74
     5
  7

 75
    16
147
1.0
148
0.0
149
0.0
100
AcDbLayout
  1
Layout2
 70
     1
 71
     2
 10
0.0
 20
0.0
 11
0.0
 21
0.0
 12
0.0
 22
0.0
 32
0.0
 14
0.0
 24
0.0
 34
0.0
 15
0.0
 25
0.0
 35
0.0
146
0.0
 13
0.0
 23
0.0
 33
0.0
 16
1.0
 26
0.0
 36
0.0
 17
0.0
 27
1.0
 37
0.0
 76
     0
330
23
  0
LAYOUT
  5
22
102
{ACAD_REACTORS
330
1A
102
}
330
1A
100
AcDbPlotSettings
  1

  2
none_device
  4
Letter_(8.50_x_11.00_Inches)
  6

 40
6.35
 41
6.35
 42
6.35000508
 43
6.35000508
 44
215.9
 45
279.4
 46
0.0
 47
0.0
 48
0.0
 49
0.0
140
0.0
141
0.0
142
1.0
143
1.0
 70
  1712
 72
     1
 73
     0
 74
     0
  7

 75
     0
147
1.0
148
0.0
149
0.0
100
AcDbLayout
  1
Model
 70
     1
 71
     0
 10
0.0
 20
0.0
 11
297.0
 21
210.0
 12
0.0
 22
0.0
 32
0.0
 14
0.0
 24
0.0
 34
0.0
 15
297.0
 25
210.0
 35
0.0
146
0.0
 13
0.0
 23
0.0
 33
0.0
 16
1.0
 26
0.0
 36
0.0
 17
0.0
 27
1.0
 37
0.0
 76
     0
330
1F
331
29
  0
MLINESTYLE
  5
18
102
{ACAD_REACTORS
330
17
102
}
330
17
100
AcDbMlineStyle
  2
Standard
 70
     0
  3

 62
   256
 51
90.0
 52
90.0
 71
     2
 49
0.5
 62
   256
  6
BYLAYER
 49
-0.5
 62
   256
  6
BYLAYER
  0
ACDBPLACEHOLDER
  5
F
102
{ACAD_REACTORS
330
E
102
}
330
E
  0
SCALE
  5
48
102
{ACAD_REACTORS
330
47
102
}
330
47
100
AcDbScale
 70
     0
300
1:1
140
1.0
141
1.0
290
     1
  0
SCALE
  5
49
102
{ACAD_REACTORS
330
47
102
}
330
47
100
AcDbScale
 70
     0
300
1:2
140
1.0
141
2.0
290
     0
  0
SCALE
  5
4A
102
{ACAD_REACTORS
330
47
102
}
330
47
100
AcDbScale
 70
     0
300
1:4
140
1.0
141
4.0
290
     0
  0
SCALE
  5
4B
102
{ACAD_REACTORS
330
47
102
}
330
47
100
AcDbScale
 70
     0
300
1:5
140
1.0
141
5.0
290
     0
  0
SCALE
  5
4C
102
{ACAD_REACTORS
330
47
102
}
330
47
100
AcDbScale
 70
     0
300
1:8
140
1.0
141
8.0
290
     0
  0
SCALE
  5
4D
102
{ACAD_REACTORS
330
47
102
}
330
47
100
AcDbScale
 70
     0
300
1:10
140
1.0
141
10.0
290
     0
  0
SCALE
  5
4E
102
{ACAD_REACTORS
330
47
102
}
330
47
100
AcDbScale
 70
     0
300
1:16
140
1.0
141
16.0
290
     0
  0
SCALE
  5
4F
102
{ACAD_REACTORS
330
47
102
}
330
47
100
AcDbScale
 70
     0
300
1:20
140
1.0
141
20.0
290
     0
  0
SCALE
  5
50
102
{ACAD_REACTORS
330
47
102
}
330
47
100
AcDbScale
 70
     0
300
1:30
140
1.0
141
30.0
290
     0
  0
SCALE
  5
51
102
{ACAD_REACTORS
330
47
102
}
330
47
100
AcDbScale
 70
     0
300
1:40
140
1.0
141
40.0
290
     0
  0
SCALE
  5
52
102
{ACAD_REACTORS
330
47
102
}
330
47
100
AcDbScale
 70
     0
300
1:50
140
1.0
141
50.0
290
     0
  0
SCALE
  5
53
102
{ACAD_REACTORS
330
47
102
}
330
47
100
AcDbScale
 70
     0
300
1:100
140
1.0
141
100.0
290
     0
  0
SCALE
  5
54
102
{ACAD_REACTORS
330
47
102
}
330
47
100
AcDbScale
 70
     0
300
2:1
140
2.0
141
1.0
290
     0
  0
SCALE
  5
55
102
{ACAD_REACTORS
330
47
102
}
330
47
100
AcDbScale
 70
     0
300
4:1
140
4.0
141
1.0
290
     0
  0
SCALE
  5
56
102
{ACAD_REACTORS
330
47
102
}
330
47
100
AcDbScale
 70
     0
300
8:1
140
8.0
141
1.0
290
     0
  0
SCALE
  5
57
102
{ACAD_REACTORS
330
47
102
}
330
47
100
AcDbScale
 70
     0
300
10:1
140
10.0
141
1.0
290
     0
  0
SCALE
  5
58
102
{ACAD_REACTORS
330
47
102
}
330
47
100
AcDbScale
 70
     0
300
100:1
140
100.0
141
1.0
290
     0
  0
ENDSEC
  0
EOF
