ISO-10303-21;
HEADER;
FILE_DESCRIPTION (( 'STEP AP203' ),
    '1' );
FILE_NAME ('003956.step',
    '2026-06-29T00:54:55',
    ( '' ),
    ( '' ),
    'SwSTEP 2.0',
    'SolidWorks 2025',
    '' );
FILE_SCHEMA (( 'CONFIG_CONTROL_DESIGN' ));
ENDSEC;

DATA;
#1 = ORIENTED_EDGE ( 'NONE', *, *, #494, .F. ) ;
#2 = DIRECTION ( 'NONE',  ( 0.000000000000000000, 0.000000000000000000, 1.000000000000000000 ) ) ;
#3 = CYLINDRICAL_SURFACE ( 'NONE', #389, 0.7379999999999999893 ) ;
#4 = CARTESIAN_POINT ( 'NONE',  ( 0.000000000000000000, 0.000000000000000000, 0.5670000000000000595 ) ) ;
#5 = CC_DESIGN_PERSON_AND_ORGANIZATION_ASSIGNMENT ( #449, #325, ( #469 ) ) ;
#6 = ORIENTED_EDGE ( 'NONE', *, *, #509, .F. ) ;
#7 = FACE_OUTER_BOUND ( 'NONE', #394, .T. ) ;
#8 = DIRECTION ( 'NONE',  ( 1.000000000000000000, 0.000000000000000000, 0.000000000000000000 ) ) ;
#9 = LINE ( 'NONE', #482, #300 ) ;
#10 = ADVANCED_FACE ( 'NONE', ( #82 ), #204, .T. ) ;
#11 = ORIENTED_EDGE ( 'NONE', *, *, #327, .F. ) ;
#12 = CARTESIAN_POINT ( 'NONE',  ( -0.2699999999999999623, 0.6868362250202012520, -0.08099999999999998868 ) ) ;
#13 = CIRCLE ( 'NONE', #648, 0.7379999999999999893 ) ;
#14 = DIRECTION ( 'NONE',  ( 1.000000000000000000, 0.000000000000000000, 0.000000000000000000 ) ) ;
#15 = AXIS2_PLACEMENT_3D ( 'NONE', #789, #235, #681 ) ;
#16 = CIRCLE ( 'NONE', #595, 0.6479999999999999094 ) ;
#17 = CARTESIAN_POINT ( 'NONE',  ( -0.7379999999999999893, 9.037893377707466378E-17, -0.08099999999999998868 ) ) ;
#18 = ORIENTED_EDGE ( 'NONE', *, *, #558, .F. ) ;
#19 = DIRECTION ( 'NONE',  ( 0.000000000000000000, 0.000000000000000000, 1.000000000000000000 ) ) ;
#20 = CARTESIAN_POINT ( 'NONE',  ( 0.2159999999999999976, 3.747419205390899912E-17, 0.3509999999999999787 ) ) ;
#21 = DIRECTION ( 'NONE',  ( 1.000000000000000000, 0.000000000000000000, 0.000000000000000000 ) ) ;
#22 = VERTEX_POINT ( 'NONE', #295 ) ;
#23 = DIRECTION ( 'NONE',  ( 1.000000000000000000, 0.000000000000000000, 0.000000000000000000 ) ) ;
#24 = DIRECTION ( 'NONE',  ( 0.000000000000000000, 0.000000000000000000, 1.000000000000000000 ) ) ;
#25 = ORIENTED_EDGE ( 'NONE', *, *, #654, .F. ) ;
#26 = DIRECTION ( 'NONE',  ( 0.000000000000000000, 0.000000000000000000, 1.000000000000000000 ) ) ;
#27 = ADVANCED_FACE ( 'NONE', ( #702 ), #504, .T. ) ;
#28 = B_SPLINE_CURVE_WITH_KNOTS ( 'NONE', 3,
 ( #396, #95, #521, #104, #808, #112, #321, #100, #451, #875 ),
 .UNSPECIFIED., .F., .F.,
 ( 4, 2, 2, 2, 4 ),
 ( 2.710505431213761687E-20, 0.0002121873176831406917, 0.0004243746353662813833, 0.0006365619530494220479, 0.0008487492707325628750 ),
 .UNSPECIFIED. ) ;
#29 = CARTESIAN_POINT ( 'NONE',  ( 0.000000000000000000, 0.000000000000000000, 0.5670000000000000595 ) ) ;
#30 = LOCAL_TIME ( 8, 54, 55.00000000000000000, #646 ) ;
#31 = ORIENTED_EDGE ( 'NONE', *, *, #464, .F. ) ;
#32 = CARTESIAN_POINT ( 'NONE',  ( 0.000000000000000000, 0.000000000000000000, -0.4769999999999999241 ) ) ;
#33 = EDGE_LOOP ( 'NONE', ( #574, #247, #174, #83, #657 ) ) ;
#34 = ADVANCED_FACE ( 'NONE', ( #490 ), #72, .T. ) ;
#35 = DIRECTION ( 'NONE',  ( 0.000000000000000000, 0.000000000000000000, 1.000000000000000000 ) ) ;
#36 = EDGE_CURVE ( 'NONE', #273, #406, #367, .T. ) ;
#37 = EDGE_LOOP ( 'NONE', ( #11, #183, #682, #478 ) ) ;
#38 = DIRECTION ( 'NONE',  ( 0.000000000000000000, 0.000000000000000000, 1.000000000000000000 ) ) ;
#39 = VECTOR ( 'NONE', #841, 1000.000000000000000 ) ;
#40 = EDGE_LOOP ( 'NONE', ( #542, #739, #324, #879, #585, #462, #776, #512, #232 ) ) ;
#41 = AXIS2_PLACEMENT_3D ( 'NONE', #526, #26, #466 ) ;
#42 = CARTESIAN_POINT ( 'NONE',  ( 0.2699999999999999623, 0.6868362250202012520, -0.1889999999999999736 ) ) ;
#43 = DIRECTION ( 'NONE',  ( 0.000000000000000000, 0.000000000000000000, 1.000000000000000000 ) ) ;
#44 = ORIENTED_EDGE ( 'NONE', *, *, #558, .T. ) ;
#45 = DIRECTION ( 'NONE',  ( 1.000000000000000000, 0.000000000000000000, 0.000000000000000000 ) ) ;
#46 = DIRECTION ( 'NONE',  ( 0.000000000000000000, 0.000000000000000000, -1.000000000000000000 ) ) ;
#47 = ADVANCED_FACE ( 'NONE', ( #573 ), #178, .T. ) ;
#48 = VERTEX_POINT ( 'NONE', #137 ) ;
#49 = DIRECTION ( 'NONE',  ( 0.000000000000000000, 0.000000000000000000, 1.000000000000000000 ) ) ;
#50 = DIRECTION ( 'NONE',  ( 0.000000000000000000, 0.000000000000000000, 1.000000000000000000 ) ) ;
#51 = AXIS2_PLACEMENT_3D ( 'NONE', #404, #684, #45 ) ;
#52 = EDGE_LOOP ( 'NONE', ( #261, #456, #842, #87 ) ) ;
#53 = CIRCLE ( 'NONE', #578, 0.6479999999999999094 ) ;
#54 = AXIS2_PLACEMENT_3D ( 'NONE', #805, #736, #384 ) ;
#55 = DIRECTION ( 'NONE',  ( 1.000000000000000000, 0.000000000000000000, 0.000000000000000000 ) ) ;
#56 = CARTESIAN_POINT ( 'NONE',  ( -0.2699999999999999623, 0.5890704541903285518, -0.08099999999999998868 ) ) ;
#57 = ADVANCED_FACE ( 'NONE', ( #418 ), #64, .F. ) ;
#58 = DIRECTION ( 'NONE',  ( 1.000000000000000000, 0.000000000000000000, 0.000000000000000000 ) ) ;
#59 = ADVANCED_FACE ( 'NONE', ( #217 ), #910, .F. ) ;
#60 = ORIENTED_EDGE ( 'NONE', *, *, #626, .T. ) ;
#61 = ADVANCED_FACE ( 'NONE', ( #719 ), #499, .T. ) ;
#62 = CARTESIAN_POINT ( 'NONE',  ( -0.6479999999999999094, 7.935711258474848467E-17, -0.08099999999999998868 ) ) ;
#63 = LINE ( 'NONE', #276, #341 ) ;
#64 = CYLINDRICAL_SURFACE ( 'NONE', #130, 0.7379999999999999893 ) ;
#65 = EDGE_CURVE ( 'NONE', #820, #97, #422, .T. ) ;
#66 = UNCERTAINTY_MEASURE_WITH_UNIT (LENGTH_MEASURE( 1.000000000000000082E-05 ), #74, 'distance_accuracy_value', 'NONE');
#67 = ORIENTED_EDGE ( 'NONE', *, *, #36, .F. ) ;
#68 = CARTESIAN_POINT ( 'NONE',  ( 0.000000000000000000, 0.000000000000000000, 0.5670000000000000595 ) ) ;
#69 = DIRECTION ( 'NONE',  ( 0.000000000000000000, 0.000000000000000000, 1.000000000000000000 ) ) ;
#70 = CARTESIAN_POINT ( 'NONE',  ( -0.2699999999999999623, 0.8585452812752513152, 0.5670000000000000595 ) ) ;
#71 = AXIS2_PLACEMENT_3D ( 'NONE', #501, #19, #852 ) ;
#72 = CONICAL_SURFACE ( 'NONE', #281, 0.7739999999999997993, 0.7853981633974490562 ) ;
#73 = ORIENTED_EDGE ( 'NONE', *, *, #159, .T. ) ;
#74 =( LENGTH_UNIT ( ) NAMED_UNIT ( * ) SI_UNIT ( .MILLI., .METRE. ) );
#75 = ADVANCED_FACE ( 'NONE', ( #917 ), #290, .T. ) ;
#76 = CIRCLE ( 'NONE', #105, 0.7379999999999999893 ) ;
#77 = CARTESIAN_POINT ( 'NONE',  ( 0.9000000000000000222, 0.000000000000000000, 0.4410000000000000031 ) ) ;
#78 = AXIS2_PLACEMENT_3D ( 'NONE', #346, #2, #425 ) ;
#79 = DIRECTION ( 'NONE',  ( 0.000000000000000000, 0.000000000000000000, 1.000000000000000000 ) ) ;
#80 = EDGE_LOOP ( 'NONE', ( #734, #156, #638, #301 ) ) ;
#81 = CARTESIAN_POINT ( 'NONE',  ( 0.000000000000000000, 0.000000000000000000, 0.5670000000000000595 ) ) ;
#82 = FACE_OUTER_BOUND ( 'NONE', #554, .T. ) ;
#83 = ORIENTED_EDGE ( 'NONE', *, *, #191, .T. ) ;
#84 = DIRECTION ( 'NONE',  ( 0.000000000000000000, 0.000000000000000000, 1.000000000000000000 ) ) ;
#85 = LINE ( 'NONE', #303, #505 ) ;
#86 = DIRECTION ( 'NONE',  ( 1.000000000000000000, 0.000000000000000000, 0.000000000000000000 ) ) ;
#87 = ORIENTED_EDGE ( 'NONE', *, *, #423, .F. ) ;
#88 = DATE_AND_TIME ( #139, #764 ) ;
#89 = CARTESIAN_POINT ( 'NONE',  ( 0.2699999999999999623, 0.5557506276647079524, -0.5072896996064667485 ) ) ;
#90 = AXIS2_PLACEMENT_3D ( 'NONE', #250, #312, #463 ) ;
#91 = EDGE_CURVE ( 'NONE', #831, #807, #9, .T. ) ;
#92 = CYLINDRICAL_SURFACE ( 'NONE', #458, 0.7379999999999999893 ) ;
#93 = ORIENTED_EDGE ( 'NONE', *, *, #523, .T. ) ;
#94 = MANIFOLD_SOLID_BREP ( 'NONE', #726 ) ;
#95 = CARTESIAN_POINT ( 'NONE',  ( 0.2699999999999999623, 0.8585452812752510932, 0.1527821491832022649 ) ) ;
#96 = CARTESIAN_POINT ( 'NONE',  ( 0.06014263767234442892, 0.2160000000000001918, 0.3510000000000000342 ) ) ;
#97 = VERTEX_POINT ( 'NONE', #428 ) ;
#98 = APPROVAL_ROLE ( '' ) ;
#99 = EDGE_CURVE ( 'NONE', #885, #835, #895, .T. ) ;
#100 = CARTESIAN_POINT ( 'NONE',  ( -0.2407074576533061727, 0.8687127700988857004, 0.2221618045414809339 ) ) ;
#101 = FACE_OUTER_BOUND ( 'NONE', #397, .T. ) ;
#102 = ORIENTED_EDGE ( 'NONE', *, *, #197, .T. ) ;
#103 = DATE_AND_TIME ( #383, #317 ) ;
#104 = CARTESIAN_POINT ( 'NONE',  ( 0.1414484339005035729, 0.8902563065656446950, 0.3213957116737826691 ) ) ;
#105 = AXIS2_PLACEMENT_3D ( 'NONE', #844, #248, #239 ) ;
#106 = EDGE_CURVE ( 'NONE', #214, #310, #871, .T. ) ;
#107 = VECTOR ( 'NONE', #821, 1000.000000000000000 ) ;
#108 = ORIENTED_EDGE ( 'NONE', *, *, #680, .F. ) ;
#109 = CARTESIAN_POINT ( 'NONE',  ( -0.06011297046748503847, 0.2160000000000001918, 0.3509999999999999787 ) ) ;
#110 = EDGE_CURVE ( 'NONE', #278, #528, #486, .T. ) ;
#111 = VERTEX_POINT ( 'NONE', #859 ) ;
#112 = CARTESIAN_POINT ( 'NONE',  ( -0.07062139140957564287, 0.9000209445351187165, 0.3510698151480183271 ) ) ;
#113 = VERTEX_POINT ( 'NONE', #664 ) ;
#114 = CARTESIAN_POINT ( 'NONE',  ( 0.000000000000000000, 0.000000000000000000, -0.5670000000000000595 ) ) ;
#115 = DIRECTION ( 'NONE',  ( 0.000000000000000000, 0.000000000000000000, 1.000000000000000000 ) ) ;
#116 = VECTOR ( 'NONE', #830, 1000.000000000000000 ) ;
#117 = EDGE_CURVE ( 'NONE', #226, #581, #904, .T. ) ;
#118 = ORIENTED_EDGE ( 'NONE', *, *, #489, .T. ) ;
#119 = AXIS2_PLACEMENT_3D ( 'NONE', #583, #361, #502 ) ;
#120 = DIRECTION ( 'NONE',  ( 0.000000000000000000, -1.000000000000000000, 0.000000000000000000 ) ) ;
#121 = CARTESIAN_POINT ( 'NONE',  ( 0.3959999999999999076, 4.849601324623517823E-17, 0.1709999999999999853 ) ) ;
#122 = ORIENTED_EDGE ( 'NONE', *, *, #906, .F. ) ;
#123 = DIRECTION ( 'NONE',  ( 0.000000000000000000, 0.000000000000000000, 1.000000000000000000 ) ) ;
#124 = ADVANCED_FACE ( 'NONE', ( #313 ), #304, .T. ) ;
#125 = CARTESIAN_POINT ( 'NONE',  ( 0.6479999999999999094, 0.000000000000000000, -0.4769999999999999241 ) ) ;
#126 = ORIENTED_EDGE ( 'NONE', *, *, #855, .T. ) ;
#127 = EDGE_LOOP ( 'NONE', ( #409, #430, #606, #731 ) ) ;
#128 = FACE_OUTER_BOUND ( 'NONE', #332, .T. ) ;
#129 = FACE_OUTER_BOUND ( 'NONE', #465, .T. ) ;
#130 = AXIS2_PLACEMENT_3D ( 'NONE', #352, #579, #630 ) ;
#131 = DIRECTION ( 'NONE',  ( 1.000000000000000000, 0.000000000000000000, 0.000000000000000000 ) ) ;
#132 = VECTOR ( 'NONE', #334, 1000.000000000000000 ) ;
#133 = AXIS2_PLACEMENT_3D ( 'NONE', #688, #49, #208 ) ;
#134 = DIRECTION ( 'NONE',  ( 0.000000000000000000, 0.000000000000000000, 1.000000000000000000 ) ) ;
#135 = CARTESIAN_POINT ( 'NONE',  ( 0.000000000000000000, 1.800000000000000044, 0.08099999999999998868 ) ) ;
#136 = ADVANCED_FACE ( 'NONE', ( #656 ), #169, .T. ) ;
#137 = CARTESIAN_POINT ( 'NONE',  ( -0.7379999999999999893, 9.037893377707466378E-17, -0.1889999999999999736 ) ) ;
#138 = ORIENTED_EDGE ( 'NONE', *, *, #537, .T. ) ;
#139 = CALENDAR_DATE ( 2026, 29, 6 ) ;
#140 = LINE ( 'NONE', #280, #487 ) ;
#141 = DIRECTION ( 'NONE',  ( 0.000000000000000000, -1.000000000000000000, 0.000000000000000000 ) ) ;
#142 = ORIENTED_EDGE ( 'NONE', *, *, #353, .T. ) ;
#143 = CARTESIAN_POINT ( 'NONE',  ( 0.3959999999999999076, 0.000000000000000000, -0.5670000000000000595 ) ) ;
#144 = DIRECTION ( 'NONE',  ( 0.000000000000000000, 0.000000000000000000, 1.000000000000000000 ) ) ;
#145 = CIRCLE ( 'NONE', #533, 0.6479999999999999094 ) ;
#146 = AXIS2_PLACEMENT_3D ( 'NONE', #714, #79, #131 ) ;
#147 = ORIENTED_EDGE ( 'NONE', *, *, #476, .F. ) ;
#148 = CIRCLE ( 'NONE', #267, 0.7739999999999997993 ) ;
#149 = DIRECTION ( 'NONE',  ( 1.000000000000000000, 0.000000000000000000, 0.000000000000000000 ) ) ;
#150 = ADVANCED_FACE ( 'NONE', ( #160 ), #92, .F. ) ;
#151 = DIRECTION ( 'NONE',  ( 0.000000000000000000, 0.000000000000000000, -1.000000000000000000 ) ) ;
#152 = EDGE_LOOP ( 'NONE', ( #566, #671, #118, #348 ) ) ;
#153 = PERSON_AND_ORGANIZATION ( #876, #265 ) ;
#154 = LINE ( 'NONE', #436, #472 ) ;
#155 = DIRECTION ( 'NONE',  ( -1.000000000000000000, 0.000000000000000000, 0.000000000000000000 ) ) ;
#156 = ORIENTED_EDGE ( 'NONE', *, *, #286, .T. ) ;
#157 = CARTESIAN_POINT ( 'NONE',  ( 0.000000000000000000, 0.000000000000000000, -0.4769999999999999241 ) ) ;
#158 = DIRECTION ( 'NONE',  ( 0.000000000000000000, 0.000000000000000000, 1.000000000000000000 ) ) ;
#159 = EDGE_CURVE ( 'NONE', #226, #278, #854, .T. ) ;
#160 = FACE_OUTER_BOUND ( 'NONE', #532, .T. ) ;
#161 = EDGE_CURVE ( 'NONE', #581, #273, #701, .T. ) ;
#162 = ORIENTED_EDGE ( 'NONE', *, *, #230, .T. ) ;
#163 = CARTESIAN_POINT ( 'NONE',  ( 0.2699999999999999623, 0.5222137452104320676, -0.5373450397753738450 ) ) ;
#164 = AXIS2_PLACEMENT_3D ( 'NONE', #572, #710, #849 ) ;
#165 = CARTESIAN_POINT ( 'NONE',  ( 0.2699999999999999623, 0.2896825849097593997, 0.1122739797704296050 ) ) ;
#166 = EDGE_CURVE ( 'NONE', #243, #784, #13, .T. ) ;
#167 = EDGE_LOOP ( 'NONE', ( #790, #889, #539, #723, #520, #676, #147, #254 ) ) ;
#168 = DIRECTION ( 'NONE',  ( 0.000000000000000000, 0.000000000000000000, 1.000000000000000000 ) ) ;
#169 = PLANE ( 'NONE',  #237 ) ;
#170 = EDGE_LOOP ( 'NONE', ( #907, #816, #774, #500 ) ) ;
#171 = CARTESIAN_POINT ( 'NONE',  ( -0.2083603716200071454, 0.2327180855856384178, 0.2546355408150867694 ) ) ;
#172 = EDGE_CURVE ( 'NONE', #111, #803, #438, .T. ) ;
#173 = CARTESIAN_POINT ( 'NONE',  ( 0.1186089628207390168, 0.2067046505263501199, 0.3307415442386164584 ) ) ;
#174 = ORIENTED_EDGE ( 'NONE', *, *, #172, .T. ) ;
#175 = SECURITY_CLASSIFICATION_LEVEL ( 'unclassified' ) ;
#176 = FACE_OUTER_BOUND ( 'NONE', #545, .T. ) ;
#177 = EDGE_CURVE ( 'NONE', #807, #742, #373, .T. ) ;
#178 = CONICAL_SURFACE ( 'NONE', #266, 0.6479999999999999094, 0.7853981633974476129 ) ;
#179 = AXIS2_PLACEMENT_3D ( 'NONE', #557, #408, #69 ) ;
#180 = AXIS2_PLACEMENT_3D ( 'NONE', #536, #814, #748 ) ;
#181 = ORIENTED_EDGE ( 'NONE', *, *, #274, .F. ) ;
#182 = DIRECTION ( 'NONE',  ( 0.000000000000000000, 0.000000000000000000, 1.000000000000000000 ) ) ;
#183 = ORIENTED_EDGE ( 'NONE', *, *, #476, .T. ) ;
#184 = ORIENTED_EDGE ( 'NONE', *, *, #837, .T. ) ;
#185 = LINE ( 'NONE', #869, #206 ) ;
#186 = VERTEX_POINT ( 'NONE', #242 ) ;
#187 = CC_DESIGN_PERSON_AND_ORGANIZATION_ASSIGNMENT ( #586, #497, ( #750 ) ) ;
#188 = DIRECTION ( 'NONE',  ( 0.000000000000000000, 0.000000000000000000, -1.000000000000000000 ) ) ;
#189 = DIRECTION ( 'NONE',  ( 1.000000000000000000, 0.000000000000000000, 0.000000000000000000 ) ) ;
#190 = VECTOR ( 'NONE', #182, 1000.000000000000000 ) ;
#191 = EDGE_CURVE ( 'NONE', #803, #847, #858, .T. ) ;
#192 = VERTEX_POINT ( 'NONE', #522 ) ;
#193 = APPROVAL_PERSON_ORGANIZATION ( #913, #385, #582 ) ;
#194 = CARTESIAN_POINT ( 'NONE',  ( -0.2699999999999999623, 0.4883277587850191614, -0.5670000000000001705 ) ) ;
#195 = DIRECTION ( 'NONE',  ( 1.000000000000000000, 0.000000000000000000, 0.000000000000000000 ) ) ;
#196 = EDGE_LOOP ( 'NONE', ( #162, #653, #507, #540, #344, #479, #219, #468 ) ) ;
#197 = EDGE_CURVE ( 'NONE', #708, #474, #148, .T. ) ;
#198 = DIRECTION ( 'NONE',  ( 0.000000000000000000, 0.000000000000000000, 1.000000000000000000 ) ) ;
#199 = LINE ( 'NONE', #485, #343 ) ;
#200 = EDGE_CURVE ( 'NONE', #406, #392, #442, .T. ) ;
#201 = DIRECTION ( 'NONE',  ( 1.000000000000000000, 0.000000000000000000, 0.000000000000000000 ) ) ;
#202 = DIRECTION ( 'NONE',  ( 0.000000000000000000, 0.000000000000000000, 1.000000000000000000 ) ) ;
#203 = DIRECTION ( 'NONE',  ( 0.000000000000000000, 0.000000000000000000, 1.000000000000000000 ) ) ;
#204 = PLANE ( 'NONE',  #823 ) ;
#205 = VECTOR ( 'NONE', #264, 1000.000000000000000 ) ;
#206 = VECTOR ( 'NONE', #258, 1000.000000000000000 ) ;
#207 = VERTEX_POINT ( 'NONE', #17 ) ;
#208 = DIRECTION ( 'NONE',  ( 1.000000000000000000, 0.000000000000000000, 0.000000000000000000 ) ) ;
#209 = CARTESIAN_POINT ( 'NONE',  ( 0.2699999999999999623, 0.2896825849097598438, -0.5670000000000000595 ) ) ;
#210 = DIRECTION ( 'NONE',  ( 0.000000000000000000, -1.000000000000000000, 0.000000000000000000 ) ) ;
#211 = EDGE_LOOP ( 'NONE', ( #102, #269 ) ) ;
#212 = CARTESIAN_POINT ( 'NONE',  ( 0.000000000000000000, 0.000000000000000000, 0.5670000000000000595 ) ) ;
#213 = CARTESIAN_POINT ( 'NONE',  ( 0.7379999999999999893, 0.000000000000000000, -0.08099999999999998868 ) ) ;
#214 = VERTEX_POINT ( 'NONE', #225 ) ;
#215 = CC_DESIGN_DATE_AND_TIME_ASSIGNMENT ( #508, #639, ( #750 ) ) ;
#216 = CARTESIAN_POINT ( 'NONE',  ( 0.9000000000000000222, 0.000000000000000000, 0.5670000000000000595 ) ) ;
#217 = FACE_OUTER_BOUND ( 'NONE', #33, .T. ) ;
#218 = CIRCLE ( 'NONE', #663, 0.7739999999999997993 ) ;
#219 = ORIENTED_EDGE ( 'NONE', *, *, #650, .T. ) ;
#220 = VECTOR ( 'NONE', #411, 1000.000000000000000 ) ;
#221 = PERSON_AND_ORGANIZATION_ROLE ( 'design_owner' ) ;
#222 = VECTOR ( 'NONE', #592, 1000.000000000000000 ) ;
#223 = CARTESIAN_POINT ( 'NONE',  ( -0.5579999999999999405, 7.384620198858538279E-17, -0.5670000000000000595 ) ) ;
#224 = CONICAL_SURFACE ( 'NONE', #345, 0.6479999999999999094, 0.7853981633974476129 ) ;
#225 = CARTESIAN_POINT ( 'NONE',  ( 0.7379999999999999893, 0.000000000000000000, -0.08099999999999998868 ) ) ;
#226 = VERTEX_POINT ( 'NONE', #584 ) ;
#227 = PERSON_AND_ORGANIZATION_ROLE ( 'creator' ) ;
#228 = ADVANCED_FACE ( 'NONE', ( #101 ), #444, .T. ) ;
#229 = DIRECTION ( 'NONE',  ( -0.7071067811865470176, 8.659560562354926695E-17, 0.7071067811865480168 ) ) ;
#230 = EDGE_CURVE ( 'NONE', #97, #453, #252, .T. ) ;
#231 = CARTESIAN_POINT ( 'NONE',  ( -0.2645898369165261554, 0.2949232315741325272, 0.1426269283331263460 ) ) ;
#232 = ORIENTED_EDGE ( 'NONE', *, *, #172, .F. ) ;
#233 = FACE_OUTER_BOUND ( 'NONE', #167, .T. ) ;
#234 = EDGE_CURVE ( 'NONE', #911, #387, #246, .T. ) ;
#235 = DIRECTION ( 'NONE',  ( 0.000000000000000000, 0.000000000000000000, 1.000000000000000000 ) ) ;
#236 = ORIENTED_EDGE ( 'NONE', *, *, #335, .F. ) ;
#237 = AXIS2_PLACEMENT_3D ( 'NONE', #651, #386, #400 ) ;
#238 = AXIS2_PLACEMENT_3D ( 'NONE', #544, #822, #477 ) ;
#239 = DIRECTION ( 'NONE',  ( 1.000000000000000000, 0.000000000000000000, 0.000000000000000000 ) ) ;
#240 = CIRCLE ( 'NONE', #164, 0.5579999999999999405 ) ;
#241 = CONICAL_SURFACE ( 'NONE', #743, 0.3959999999999999076, 0.7853981633974476129 ) ;
#242 = CARTESIAN_POINT ( 'NONE',  ( 0.6479999999999999094, 0.000000000000000000, -0.4769999999999999241 ) ) ;
#243 = VERTEX_POINT ( 'NONE', #894 ) ;
#244 = DATE_TIME_ROLE ( 'classification_date' ) ;
#245 = CARTESIAN_POINT ( 'NONE',  ( 0.000000000000000000, 0.000000000000000000, 0.1709999999999999853 ) ) ;
#246 = LINE ( 'NONE', #629, #220 ) ;
#247 = ORIENTED_EDGE ( 'NONE', *, *, #862, .F. ) ;
#248 = DIRECTION ( 'NONE',  ( 0.000000000000000000, 0.000000000000000000, 1.000000000000000000 ) ) ;
#249 = EDGE_LOOP ( 'NONE', ( #760, #892, #319, #44, #403, #795, #860, #868 ) ) ;
#250 = CARTESIAN_POINT ( 'NONE',  ( 0.9000000000000000222, 0.000000000000000000, -0.1889999999999999736 ) ) ;
#251 =( GEOMETRIC_REPRESENTATION_CONTEXT ( 3 ) GLOBAL_UNCERTAINTY_ASSIGNED_CONTEXT ( ( #66 ) ) GLOBAL_UNIT_ASSIGNED_CONTEXT ( ( #74, #513, #709 ) ) REPRESENTATION_CONTEXT ( 'NONE', 'WORKASPACE' ) );
#252 = CIRCLE ( 'NONE', #649, 0.9000000000000000222 ) ;
#253 = AXIS2_PLACEMENT_3D ( 'NONE', #212, #370, #431 ) ;
#254 = ORIENTED_EDGE ( 'NONE', *, *, #845, .F. ) ;
#255 = EDGE_CURVE ( 'NONE', #474, #439, #547, .T. ) ;
#256 = LINE ( 'NONE', #541, #222 ) ;
#257 = EDGE_LOOP ( 'NONE', ( #749, #720, #516, #604 ) ) ;
#258 = DIRECTION ( 'NONE',  ( 0.000000000000000000, 1.000000000000000000, 0.000000000000000000 ) ) ;
#259 = CARTESIAN_POINT ( 'NONE',  ( 0.2699999999999999623, 0.2896825849097596217, 0.08100000000000000255 ) ) ;
#260 = EDGE_CURVE ( 'NONE', #528, #835, #416, .T. ) ;
#261 = ORIENTED_EDGE ( 'NONE', *, *, #531, .F. ) ;
#262 = ADVANCED_FACE ( 'NONE', ( #827 ), #759, .F. ) ;
#263 = CARTESIAN_POINT ( 'NONE',  ( -0.2699999999999999623, 0.5222137452104320676, -0.5373450397753738450 ) ) ;
#264 = DIRECTION ( 'NONE',  ( 0.7071067811865470176, 8.659560562354926695E-17, -0.7071067811865480168 ) ) ;
#265 = ORGANIZATION ( '未', '未', '' ) ;
#266 = AXIS2_PLACEMENT_3D ( 'NONE', #850, #362, #277 ) ;
#267 = AXIS2_PLACEMENT_3D ( 'NONE', #381, #43, #452 ) ;
#268 = VECTOR ( 'NONE', #517, 1000.000000000000000 ) ;
#269 = ORIENTED_EDGE ( 'NONE', *, *, #906, .T. ) ;
#270 = APPROVAL_PERSON_ORGANIZATION ( #153, #289, #435 ) ;
#271 = CARTESIAN_POINT ( 'NONE',  ( 0.2699999999999999623, 0.8585452812752513152, -0.1889999999999999736 ) ) ;
#272 = DIRECTION ( 'NONE',  ( 0.000000000000000000, 0.000000000000000000, 1.000000000000000000 ) ) ;
#273 = VERTEX_POINT ( 'NONE', #259 ) ;
#274 = EDGE_CURVE ( 'NONE', #784, #747, #63, .T. ) ;
#275 = LINE ( 'NONE', #610, #107 ) ;
#276 = CARTESIAN_POINT ( 'NONE',  ( 0.2699999999999999623, 0.000000000000000000, -0.1889999999999999736 ) ) ;
#277 = DIRECTION ( 'NONE',  ( 1.000000000000000000, 0.000000000000000000, 0.000000000000000000 ) ) ;
#278 = VERTEX_POINT ( 'NONE', #700 ) ;
#279 = CARTESIAN_POINT ( 'NONE',  ( -0.2699999999999999623, 0.5557506276647078414, -0.5072896996064665265 ) ) ;
#280 = CARTESIAN_POINT ( 'NONE',  ( 0.2699999999999999623, 0.5890704541903285518, 0.5670000000000000595 ) ) ;
#281 = AXIS2_PLACEMENT_3D ( 'NONE', #4, #769, #559 ) ;
#282 = ORIENTED_EDGE ( 'NONE', *, *, #342, .T. ) ;
#283 = CIRCLE ( 'NONE', #119, 0.7379999999999999893 ) ;
#284 = ORIENTED_EDGE ( 'NONE', *, *, #668, .T. ) ;
#285 = COORDINATED_UNIVERSAL_TIME_OFFSET ( 8, 0, .AHEAD. ) ;
#286 = EDGE_CURVE ( 'NONE', #186, #22, #53, .T. ) ;
#287 = CARTESIAN_POINT ( 'NONE',  ( 0.2699999999999999623, 0.4883277587850192725, -0.5670000000000000595 ) ) ;
#288 = EDGE_CURVE ( 'NONE', #22, #570, #140, .T. ) ;
#289 = APPROVAL ( #632, '未' ) ;
#290 = CYLINDRICAL_SURFACE ( 'NONE', #399, 0.6479999999999999094 ) ;
#291 = ORIENTED_EDGE ( 'NONE', *, *, #793, .F. ) ;
#292 = DIRECTION ( 'NONE',  ( 1.000000000000000000, 0.000000000000000000, 0.000000000000000000 ) ) ;
#293 = DIRECTION ( 'NONE',  ( 0.000000000000000000, 0.000000000000000000, 1.000000000000000000 ) ) ;
#294 = EDGE_CURVE ( 'NONE', #387, #778, #421, .T. ) ;
#295 = CARTESIAN_POINT ( 'NONE',  ( 0.2699999999999999623, 0.5890704541903284408, -0.4769999999999998685 ) ) ;
#296 = ORIENTED_EDGE ( 'NONE', *, *, #589, .F. ) ;
#297 = CARTESIAN_POINT ( 'NONE',  ( 0.7739999999999997993, 1.025029370886334460E-16, 0.5670000000000000595 ) ) ;
#298 = ADVANCED_FACE ( 'NONE', ( #129 ), #705, .T. ) ;
#299 = DIRECTION ( 'NONE',  ( 0.000000000000000000, 0.000000000000000000, 1.000000000000000000 ) ) ;
#300 = VECTOR ( 'NONE', #846, 1000.000000000000000 ) ;
#301 = ORIENTED_EDGE ( 'NONE', *, *, #626, .F. ) ;
#302 = CIRCLE ( 'NONE', #54, 0.7379999999999999893 ) ;
#303 = CARTESIAN_POINT ( 'NONE',  ( 0.2699999999999999623, 1.800000000000000044, 0.08099999999999998868 ) ) ;
#304 = PLANE ( 'NONE',  #534 ) ;
#305 = ORIENTED_EDGE ( 'NONE', *, *, #815, .T. ) ;
#306 = APPROVAL_DATE_TIME ( #88, #385 ) ;
#307 = EDGE_CURVE ( 'NONE', #627, #439, #412, .T. ) ;
#308 = FACE_OUTER_BOUND ( 'NONE', #152, .T. ) ;
#309 = CARTESIAN_POINT ( 'NONE',  ( 0.2699999999999999623, 0.000000000000000000, -0.5670000000000000595 ) ) ;
#310 = VERTEX_POINT ( 'NONE', #891 ) ;
#311 = COORDINATED_UNIVERSAL_TIME_OFFSET ( 8, 0, .AHEAD. ) ;
#312 = DIRECTION ( 'NONE',  ( 0.000000000000000000, 0.000000000000000000, -1.000000000000000000 ) ) ;
#313 = FACE_OUTER_BOUND ( 'NONE', #40, .T. ) ;
#314 = ORIENTED_EDGE ( 'NONE', *, *, #417, .F. ) ;
#315 = AXIS2_PLACEMENT_3D ( 'NONE', #407, #618, #899 ) ;
#316 = CARTESIAN_POINT ( 'NONE',  ( -0.2699999999999999623, 0.6868362250202012520, 0.5670000000000000595 ) ) ;
#317 = LOCAL_TIME ( 8, 54, 55.00000000000000000, #311 ) ;
#318 = CARTESIAN_POINT ( 'NONE',  ( 0.000000000000000000, 0.000000000000000000, 0.3509999999999999787 ) ) ;
#319 = ORIENTED_EDGE ( 'NONE', *, *, #654, .T. ) ;
#320 = APPROVAL_STATUS ( 'not_yet_approved' ) ;
#321 = CARTESIAN_POINT ( 'NONE',  ( -0.1410090459066747348, 0.8903473513608534118, 0.3217969771484159303 ) ) ;
#322 = ORIENTED_EDGE ( 'NONE', *, *, #106, .T. ) ;
#323 = LINE ( 'NONE', #316, #190 ) ;
#324 = ORIENTED_EDGE ( 'NONE', *, *, #294, .F. ) ;
#325 = PERSON_AND_ORGANIZATION_ROLE ( 'classification_officer' ) ;
#326 = DIRECTION ( 'NONE',  ( 1.000000000000000000, 0.000000000000000000, 0.000000000000000000 ) ) ;
#327 = EDGE_CURVE ( 'NONE', #379, #186, #405, .T. ) ;
#328 = AXIS2_PLACEMENT_3D ( 'NONE', #426, #158, #796 ) ;
#329 = ORIENTED_EDGE ( 'NONE', *, *, #423, .T. ) ;
#330 = DIRECTION ( 'NONE',  ( -1.000000000000000000, 0.000000000000000000, 0.000000000000000000 ) ) ;
#331 = CARTESIAN_POINT ( 'NONE',  ( -6.217381450835911571E-20, 0.2160000000000001086, 0.3509999999999999787 ) ) ;
#332 = EDGE_LOOP ( 'NONE', ( #73, #93, #661, #284 ) ) ;
#333 = CARTESIAN_POINT ( 'NONE',  ( -0.2699999999999999623, 0.8585452812752513152, 0.08100000000000000255 ) ) ;
#334 = DIRECTION ( 'NONE',  ( 0.000000000000000000, 0.000000000000000000, 1.000000000000000000 ) ) ;
#335 = EDGE_CURVE ( 'NONE', #911, #207, #535, .T. ) ;
#336 = ORIENTED_EDGE ( 'NONE', *, *, #99, .F. ) ;
#337 = CARTESIAN_POINT ( 'NONE',  ( 0.3959999999999999076, 4.849601324623517823E-17, 0.1709999999999999853 ) ) ;
#338 = CARTESIAN_POINT ( 'NONE',  ( -0.2699999999999999623, 0.5890704541903285518, 0.5670000000000000595 ) ) ;
#339 = APPROVAL_PERSON_ORGANIZATION ( #744, #432, #98 ) ;
#340 = AXIS2_PLACEMENT_3D ( 'NONE', #773, #637, #58 ) ;
#341 = VECTOR ( 'NONE', #611, 1000.000000000000000 ) ;
#342 = EDGE_CURVE ( 'NONE', #186, #742, #471, .T. ) ;
#343 = VECTOR ( 'NONE', #767, 1000.000000000000000 ) ;
#344 = ORIENTED_EDGE ( 'NONE', *, *, #777, .T. ) ;
#345 = AXIS2_PLACEMENT_3D ( 'NONE', #157, #791, #292 ) ;
#346 = CARTESIAN_POINT ( 'NONE',  ( 0.000000000000000000, 0.000000000000000000, -0.5670000000000000595 ) ) ;
#347 = DIRECTION ( 'NONE',  ( 0.7071067811865470176, 0.000000000000000000, 0.7071067811865480168 ) ) ;
#348 = ORIENTED_EDGE ( 'NONE', *, *, #307, .F. ) ;
#349 = EDGE_LOOP ( 'NONE', ( #874, #645, #336, #443 ) ) ;
#350 = CARTESIAN_POINT ( 'NONE',  ( 0.000000000000000000, 0.000000000000000000, -0.1889999999999999736 ) ) ;
#351 = DIRECTION ( 'NONE',  ( 0.000000000000000000, 0.000000000000000000, -1.000000000000000000 ) ) ;
#352 = CARTESIAN_POINT ( 'NONE',  ( 0.000000000000000000, 0.000000000000000000, 0.5670000000000000595 ) ) ;
#353 = EDGE_CURVE ( 'NONE', #192, #835, #481, .T. ) ;
#354 = ORIENTED_EDGE ( 'NONE', *, *, #753, .F. ) ;
#355 = DATE_AND_TIME ( #492, #30 ) ;
#356 = DIRECTION ( 'NONE',  ( -0.7071067811865480168, 0.000000000000000000, -0.7071067811865470176 ) ) ;
#357 = DIRECTION ( 'NONE',  ( 0.000000000000000000, 0.000000000000000000, -1.000000000000000000 ) ) ;
#358 = ORIENTED_EDGE ( 'NONE', *, *, #589, .T. ) ;
#359 = MECHANICAL_CONTEXT ( 'NONE', #366, 'mechanical' ) ;
#360 = ADVANCED_FACE ( 'NONE', ( #619 ), #838, .T. ) ;
#361 = DIRECTION ( 'NONE',  ( 0.000000000000000000, 0.000000000000000000, 1.000000000000000000 ) ) ;
#362 = DIRECTION ( 'NONE',  ( 0.000000000000000000, 0.000000000000000000, 1.000000000000000000 ) ) ;
#363 = EDGE_LOOP ( 'NONE', ( #591, #834, #691, #296 ) ) ;
#364 = B_SPLINE_CURVE_WITH_KNOTS ( 'NONE', 3,
 ( #746, #605, #659, #171, #667, #602, #109, #380 ),
 .UNSPECIFIED., .F., .F.,
 ( 4, 2, 2, 4 ),
 ( 1.117570019170467887E-19, 8.904389642194857372E-05, 0.0001780877928438971203, 0.0003561755856877941865 ),
 .UNSPECIFIED. ) ;
#365 = LINE ( 'NONE', #577, #445 ) ;
#366 = APPLICATION_CONTEXT ( 'configuration controlled 3d designs of mechanical parts and assemblies' ) ;
#367 = LINE ( 'NONE', #698, #39 ) ;
#368 = EDGE_CURVE ( 'NONE', #97, #800, #762, .T. ) ;
#369 = EDGE_LOOP ( 'NONE', ( #236, #715, #126, #757, #60, #683, #631, #314 ) ) ;
#370 = DIRECTION ( 'NONE',  ( 0.000000000000000000, 0.000000000000000000, 1.000000000000000000 ) ) ;
#371 = DIRECTION ( 'NONE',  ( 0.000000000000000000, 1.000000000000000000, 0.000000000000000000 ) ) ;
#372 = LOCAL_TIME ( 8, 54, 55.00000000000000000, #285 ) ;
#373 = CIRCLE ( 'NONE', #15, 0.6479999999999999094 ) ;
#374 = ORIENTED_EDGE ( 'NONE', *, *, #335, .T. ) ;
#375 = CARTESIAN_POINT ( 'NONE',  ( -0.3959999999999999076, 0.000000000000000000, 0.1709999999999999853 ) ) ;
#376 = AXIS2_PLACEMENT_3D ( 'NONE', #350, #751, #55 ) ;
#377 = CARTESIAN_POINT ( 'NONE',  ( -0.7739999999999997993, 0.000000000000000000, 0.5670000000000000595 ) ) ;
#378 = CARTESIAN_POINT ( 'NONE',  ( 0.2125819957372308555, 0.2267346494486590647, 0.2577705294116533485 ) ) ;
#379 = VERTEX_POINT ( 'NONE', #695 ) ;
#380 = CARTESIAN_POINT ( 'NONE',  ( -6.217381450835911571E-20, 0.2160000000000001086, 0.3509999999999999787 ) ) ;
#381 = CARTESIAN_POINT ( 'NONE',  ( 0.000000000000000000, 0.000000000000000000, 0.5670000000000000595 ) ) ;
#382 = ORIENTED_EDGE ( 'NONE', *, *, #353, .F. ) ;
#383 = CALENDAR_DATE ( 2026, 29, 6 ) ;
#384 = DIRECTION ( 'NONE',  ( 1.000000000000000000, 0.000000000000000000, 0.000000000000000000 ) ) ;
#385 = APPROVAL ( #771, '未' ) ;
#386 = DIRECTION ( 'NONE',  ( 0.000000000000000000, 0.000000000000000000, 1.000000000000000000 ) ) ;
#387 = VERTEX_POINT ( 'NONE', #56 ) ;
#388 = CARTESIAN_POINT ( 'NONE',  ( 0.2699999999999999623, 0.8585452812752512042, 0.08100000000000000255 ) ) ;
#389 = AXIS2_PLACEMENT_3D ( 'NONE', #81, #293, #8 ) ;
#390 = AXIS2_PLACEMENT_3D ( 'NONE', #902, #398, #825 ) ;
#391 = EDGE_CURVE ( 'NONE', #113, #885, #199, .T. ) ;
#392 = VERTEX_POINT ( 'NONE', #563 ) ;
#393 = CARTESIAN_POINT ( 'NONE',  ( 0.2545584412271570951, 0.3033413918343488280, 0.1710000000000000409 ) ) ;
#394 = EDGE_LOOP ( 'NONE', ( #291, #594, #612, #382 ) ) ;
#395 = PERSON_AND_ORGANIZATION ( #876, #265 ) ;
#396 = CARTESIAN_POINT ( 'NONE',  ( 0.2699999999999999623, 0.8585452812752512042, 0.08100000000000000255 ) ) ;
#397 = EDGE_LOOP ( 'NONE', ( #122, #812, #560, #6 ) ) ;
#398 = DIRECTION ( 'NONE',  ( 0.000000000000000000, 0.000000000000000000, -1.000000000000000000 ) ) ;
#399 = AXIS2_PLACEMENT_3D ( 'NONE', #644, #144, #569 ) ;
#400 = DIRECTION ( 'NONE',  ( 1.000000000000000000, 0.000000000000000000, 0.000000000000000000 ) ) ;
#401 = CONICAL_SURFACE ( 'NONE', #712, 0.3959999999999999076, 0.7853981633974476129 ) ;
#402 = ORIENTED_EDGE ( 'NONE', *, *, #680, .T. ) ;
#403 = ORIENTED_EDGE ( 'NONE', *, *, #166, .T. ) ;
#404 = CARTESIAN_POINT ( 'NONE',  ( 0.000000000000000000, 0.000000000000000000, -0.1889999999999999736 ) ) ;
#405 = LINE ( 'NONE', #125, #694 ) ;
#406 = VERTEX_POINT ( 'NONE', #209 ) ;
#407 = CARTESIAN_POINT ( 'NONE',  ( 0.000000000000000000, 0.000000000000000000, -0.5670000000000000595 ) ) ;
#408 = DIRECTION ( 'NONE',  ( -1.000000000000000000, 0.000000000000000000, 0.000000000000000000 ) ) ;
#409 = ORIENTED_EDGE ( 'NONE', *, *, #603, .T. ) ;
#410 = DIRECTION ( 'NONE',  ( -1.000000000000000000, 0.000000000000000000, 0.000000000000000000 ) ) ;
#411 = DIRECTION ( 'NONE',  ( 0.000000000000000000, -1.000000000000000000, 0.000000000000000000 ) ) ;
#412 = CIRCLE ( 'NONE', #914, 0.9000000000000000222 ) ;
#413 = AXIS2_PLACEMENT_3D ( 'NONE', #628, #202, #693 ) ;
#414 = CARTESIAN_POINT ( 'NONE',  ( 0.000000000000000000, 0.000000000000000000, 0.3509999999999999787 ) ) ;
#415 = CARTESIAN_POINT ( 'NONE',  ( 0.6479999999999999094, 0.000000000000000000, -0.08099999999999998868 ) ) ;
#416 = LINE ( 'NONE', #121, #205 ) ;
#417 = EDGE_CURVE ( 'NONE', #207, #214, #283, .T. ) ;
#418 = FACE_OUTER_BOUND ( 'NONE', #496, .T. ) ;
#419 = ORIENTED_EDGE ( 'NONE', *, *, #288, .F. ) ;
#420 = CARTESIAN_POINT ( 'NONE',  ( 0.000000000000000000, 0.000000000000000000, 0.5670000000000000595 ) ) ;
#421 = LINE ( 'NONE', #338, #810 ) ;
#422 = LINE ( 'NONE', #70, #692 ) ;
#423 = EDGE_CURVE ( 'NONE', #831, #186, #488, .T. ) ;
#424 = ORIENTED_EDGE ( 'NONE', *, *, #668, .F. ) ;
#425 = DIRECTION ( 'NONE',  ( 1.000000000000000000, 0.000000000000000000, 0.000000000000000000 ) ) ;
#426 = CARTESIAN_POINT ( 'NONE',  ( 0.000000000000000000, 0.000000000000000000, 0.5670000000000000595 ) ) ;
#427 = CIRCLE ( 'NONE', #315, 0.5579999999999999405 ) ;
#428 = CARTESIAN_POINT ( 'NONE',  ( -0.2699999999999999623, 0.8585452812752513152, -0.1889999999999999736 ) ) ;
#429 = VECTOR ( 'NONE', #123, 1000.000000000000000 ) ;
#430 = ORIENTED_EDGE ( 'NONE', *, *, #91, .T. ) ;
#431 = DIRECTION ( 'NONE',  ( 1.000000000000000000, 0.000000000000000000, 0.000000000000000000 ) ) ;
#432 = APPROVAL ( #320, '未' ) ;
#433 = CARTESIAN_POINT ( 'NONE',  ( 0.000000000000000000, 0.000000000000000000, 0.5670000000000000595 ) ) ;
#434 = ORIENTED_EDGE ( 'NONE', *, *, #837, .F. ) ;
#435 = APPROVAL_ROLE ( '' ) ;
#436 = CARTESIAN_POINT ( 'NONE',  ( -0.6479999999999999094, 7.935711258474848467E-17, -0.4769999999999999241 ) ) ;
#437 = ADVANCED_FACE ( 'NONE', ( #643 ), #915, .T. ) ;
#438 = LINE ( 'NONE', #519, #765 ) ;
#439 = VERTEX_POINT ( 'NONE', #77 ) ;
#440 = DIRECTION ( 'NONE',  ( 1.000000000000000000, 0.000000000000000000, 0.000000000000000000 ) ) ;
#441 = DIRECTION ( 'NONE',  ( 0.000000000000000000, 0.000000000000000000, -1.000000000000000000 ) ) ;
#442 = LINE ( 'NONE', #309, #781 ) ;
#443 = ORIENTED_EDGE ( 'NONE', *, *, #523, .F. ) ;
#444 = CONICAL_SURFACE ( 'NONE', #607, 0.7739999999999997993, 0.7853981633974490562 ) ;
#445 = VECTOR ( 'NONE', #856, 1000.000000000000000 ) ;
#446 = DIRECTION ( 'NONE',  ( 0.000000000000000000, -1.000000000000000000, 0.000000000000000000 ) ) ;
#447 = CARTESIAN_POINT ( 'NONE',  ( 0.2645768592870724745, 0.2949341221588449580, 0.1426636346122882038 ) ) ;
#448 = VERTEX_POINT ( 'NONE', #792 ) ;
#449 = PERSON_AND_ORGANIZATION ( #876, #265 ) ;
#450 = ADVANCED_FACE ( 'NONE', ( #510 ), #3, .F. ) ;
#451 = CARTESIAN_POINT ( 'NONE',  ( -0.2700000000000000178, 0.8585452812752510932, 0.1527868438263401130 ) ) ;
#452 = DIRECTION ( 'NONE',  ( 1.000000000000000000, 0.000000000000000000, 0.000000000000000000 ) ) ;
#453 = VERTEX_POINT ( 'NONE', #775 ) ;
#454 = ADVANCED_FACE ( 'NONE', ( #233 ), #588, .T. ) ;
#455 = DIRECTION ( 'NONE',  ( 0.000000000000000000, 0.000000000000000000, 1.000000000000000000 ) ) ;
#456 = ORIENTED_EDGE ( 'NONE', *, *, #845, .T. ) ;
#457 = DATE_AND_TIME ( #673, #549 ) ;
#458 = AXIS2_PLACEMENT_3D ( 'NONE', #29, #115, #598 ) ;
#459 = APPLICATION_CONTEXT ( 'configuration controlled 3d designs of mechanical parts and assemblies' ) ;
#460 = CARTESIAN_POINT ( 'NONE',  ( 0.2699999999999999623, 0.5890704541903285518, -0.08099999999999998868 ) ) ;
#461 = AXIS2_PLACEMENT_3D ( 'NONE', #143, #441, #634 ) ;
#462 = ORIENTED_EDGE ( 'NONE', *, *, #368, .F. ) ;
#463 = DIRECTION ( 'NONE',  ( 0.000000000000000000, -1.000000000000000000, 0.000000000000000000 ) ) ;
#464 = EDGE_CURVE ( 'NONE', #820, #803, #866, .T. ) ;
#465 = EDGE_LOOP ( 'NONE', ( #625, #824, #181, #616, #609, #419, #1, #881, #67 ) ) ;
#466 = DIRECTION ( 'NONE',  ( 1.000000000000000000, 0.000000000000000000, 0.000000000000000000 ) ) ;
#467 = DIRECTION ( 'NONE',  ( 1.000000000000000000, 0.000000000000000000, 0.000000000000000000 ) ) ;
#468 = ORIENTED_EDGE ( 'NONE', *, *, #65, .T. ) ;
#469 = SECURITY_CLASSIFICATION ( '', '', #175 ) ;
#470 = DIRECTION ( 'NONE',  ( 1.000000000000000000, 0.000000000000000000, 0.000000000000000000 ) ) ;
#471 = LINE ( 'NONE', #756, #132 ) ;
#472 = VECTOR ( 'NONE', #229, 1000.000000000000000 ) ;
#473 = CIRCLE ( 'NONE', #51, 0.9000000000000000222 ) ;
#474 = VERTEX_POINT ( 'NONE', #297 ) ;
#475 = CARTESIAN_POINT ( 'NONE',  ( 0.7379999999999999893, 0.000000000000000000, 0.5670000000000000595 ) ) ;
#476 = EDGE_CURVE ( 'NONE', #379, #392, #240, .T. ) ;
#477 = DIRECTION ( 'NONE',  ( 1.000000000000000000, 0.000000000000000000, 0.000000000000000000 ) ) ;
#478 = ORIENTED_EDGE ( 'NONE', *, *, #286, .F. ) ;
#479 = ORIENTED_EDGE ( 'NONE', *, *, #555, .T. ) ;
#480 = DIRECTION ( 'NONE',  ( 0.000000000000000000, 0.000000000000000000, 1.000000000000000000 ) ) ;
#481 = LINE ( 'NONE', #689, #727 ) ;
#482 = CARTESIAN_POINT ( 'NONE',  ( -0.6479999999999999094, 7.935711258474848467E-17, 0.5670000000000000595 ) ) ;
#483 = DIRECTION ( 'NONE',  ( 0.000000000000000000, 0.000000000000000000, -1.000000000000000000 ) ) ;
#484 = ADVANCED_FACE ( 'NONE', ( #308 ), #863, .T. ) ;
#485 = CARTESIAN_POINT ( 'NONE',  ( -0.3959999999999999076, 4.849601324623517823E-17, 0.5670000000000000595 ) ) ;
#486 = CIRCLE ( 'NONE', #617, 0.2159999999999999976 ) ;
#487 = VECTOR ( 'NONE', #903, 1000.000000000000000 ) ;
#488 = CIRCLE ( 'NONE', #538, 0.6479999999999999094 ) ;
#489 = EDGE_CURVE ( 'NONE', #817, #439, #647, .T. ) ;
#490 = FACE_OUTER_BOUND ( 'NONE', #170, .T. ) ;
#491 = EDGE_LOOP ( 'NONE', ( #18, #402, #703, #434 ) ) ;
#492 = CALENDAR_DATE ( 2026, 29, 6 ) ;
#493 = CARTESIAN_POINT ( 'NONE',  ( 0.7739999999999997993, 9.478766225400512556E-17, 0.5670000000000000595 ) ) ;
#494 = EDGE_CURVE ( 'NONE', #392, #22, #853, .T. ) ;
#495 = DIRECTION ( 'NONE',  ( 0.000000000000000000, 0.000000000000000000, 1.000000000000000000 ) ) ;
#496 = EDGE_LOOP ( 'NONE', ( #599, #184, #322, #305 ) ) ;
#497 = PERSON_AND_ORGANIZATION_ROLE ( 'creator' ) ;
#498 = DIRECTION ( 'NONE',  ( 0.000000000000000000, -1.000000000000000000, 0.000000000000000000 ) ) ;
#499 = CYLINDRICAL_SURFACE ( 'NONE', #340, 0.6479999999999999094 ) ;
#500 = ORIENTED_EDGE ( 'NONE', *, *, #307, .T. ) ;
#501 = CARTESIAN_POINT ( 'NONE',  ( 0.000000000000000000, 0.000000000000000000, 0.000000000000000000 ) ) ;
#502 = DIRECTION ( 'NONE',  ( 1.000000000000000000, 0.000000000000000000, 0.000000000000000000 ) ) ;
#503 = CC_DESIGN_SECURITY_CLASSIFICATION ( #469, ( #666 ) ) ;
#504 = PLANE ( 'NONE',  #633 ) ;
#505 = VECTOR ( 'NONE', #446, 1000.000000000000000 ) ;
#506 = CONICAL_SURFACE ( 'NONE', #390, 0.3959999999999999076, 0.7853981633974476129 ) ;
#507 = ORIENTED_EDGE ( 'NONE', *, *, #518, .F. ) ;
#508 = DATE_AND_TIME ( #716, #372 ) ;
#509 = EDGE_CURVE ( 'NONE', #708, #627, #725, .T. ) ;
#510 = FACE_OUTER_BOUND ( 'NONE', #491, .T. ) ;
#511 = CARTESIAN_POINT ( 'NONE',  ( -0.2699999999999999623, 0.2896825849097594552, 0.1123027914573166142 ) ) ;
#512 = ORIENTED_EDGE ( 'NONE', *, *, #464, .T. ) ;
#513 =( NAMED_UNIT ( * ) PLANE_ANGLE_UNIT ( ) SI_UNIT ( $, .RADIAN. ) );
#514 = LINE ( 'NONE', #732, #799 ) ;
#515 = DIRECTION ( 'NONE',  ( 0.000000000000000000, 0.000000000000000000, 1.000000000000000000 ) ) ;
#516 = ORIENTED_EDGE ( 'NONE', *, *, #603, .F. ) ;
#517 = DIRECTION ( 'NONE',  ( 0.000000000000000000, 0.000000000000000000, 1.000000000000000000 ) ) ;
#518 = EDGE_CURVE ( 'NONE', #439, #627, #872, .T. ) ;
#519 = CARTESIAN_POINT ( 'NONE',  ( -0.2699999999999999623, 0.2896825849097598438, 0.5670000000000000595 ) ) ;
#520 = ORIENTED_EDGE ( 'NONE', *, *, #587, .T. ) ;
#521 = CARTESIAN_POINT ( 'NONE',  ( 0.2404142446916826548, 0.8687720885146669181, 0.2224169317775541166 ) ) ;
#522 = CARTESIAN_POINT ( 'NONE',  ( 0.3959999999999999076, 0.000000000000000000, -0.5670000000000000595 ) ) ;
#523 = EDGE_CURVE ( 'NONE', #278, #885, #365, .T. ) ;
#524 = VERTEX_POINT ( 'NONE', #223 ) ;
#525 = SHAPE_DEFINITION_REPRESENTATION ( #707, #737 ) ;
#526 = CARTESIAN_POINT ( 'NONE',  ( 0.000000000000000000, 0.000000000000000000, 0.5670000000000000595 ) ) ;
#527 = CARTESIAN_POINT ( 'NONE',  ( 0.2699999999999999623, 0.2896825849097596217, 0.08100000000000000255 ) ) ;
#528 = VERTEX_POINT ( 'NONE', #20 ) ;
#529 = PRODUCT ( '003956', '003956', '', ( #359 ) ) ;
#530 = CARTESIAN_POINT ( 'NONE',  ( -0.9000000000000000222, 1.102182119232617788E-16, 0.4410000000000000031 ) ) ;
#531 = EDGE_CURVE ( 'NONE', #524, #831, #154, .T. ) ;
#532 = EDGE_LOOP ( 'NONE', ( #108, #25, #865, #374 ) ) ;
#533 = AXIS2_PLACEMENT_3D ( 'NONE', #829, #198, #761 ) ;
#534 = AXIS2_PLACEMENT_3D ( 'NONE', #802, #467, #371 ) ;
#535 = CIRCLE ( 'NONE', #238, 0.7379999999999999893 ) ;
#536 = CARTESIAN_POINT ( 'NONE',  ( 0.000000000000000000, 0.000000000000000000, -0.4769999999999999241 ) ) ;
#537 = EDGE_CURVE ( 'NONE', #665, #273, #85, .T. ) ;
#538 = AXIS2_PLACEMENT_3D ( 'NONE', #640, #780, #14 ) ;
#539 = ORIENTED_EDGE ( 'NONE', *, *, #862, .T. ) ;
#540 = ORIENTED_EDGE ( 'NONE', *, *, #489, .F. ) ;
#541 = CARTESIAN_POINT ( 'NONE',  ( -0.7379999999999999893, 9.037893377707466378E-17, 0.5670000000000000595 ) ) ;
#542 = ORIENTED_EDGE ( 'NONE', *, *, #697, .F. ) ;
#543 = CARTESIAN_POINT ( 'NONE',  ( -0.2699999999999999623, 0.000000000000000000, -0.5670000000000000595 ) ) ;
#544 = CARTESIAN_POINT ( 'NONE',  ( 0.000000000000000000, 0.000000000000000000, -0.08099999999999998868 ) ) ;
#545 = EDGE_LOOP ( 'NONE', ( #901, #142, #358, #851, #785 ) ) ;
#546 = LINE ( 'NONE', #758, #429 ) ;
#547 = LINE ( 'NONE', #493, #884 ) ;
#548 = CIRCLE ( 'NONE', #564, 0.3959999999999999076 ) ;
#549 = LOCAL_TIME ( 8, 54, 55.00000000000000000, #658 ) ;
#550 = ORIENTED_EDGE ( 'NONE', *, *, #159, .F. ) ;
#551 = DESIGN_CONTEXT ( 'detailed design', #459, 'design' ) ;
#552 = CARTESIAN_POINT ( 'NONE',  ( -0.2545584412271570951, 0.3033413918343487725, 0.1710000000000000686 ) ) ;
#553 = CARTESIAN_POINT ( 'NONE',  ( -0.2699999999999999623, 0.000000000000000000, -0.1889999999999999736 ) ) ;
#554 = EDGE_LOOP ( 'NONE', ( #550, #354, #621 ) ) ;
#555 = EDGE_CURVE ( 'NONE', #747, #665, #514, .T. ) ;
#556 = FACE_OUTER_BOUND ( 'NONE', #363, .T. ) ;
#557 = CARTESIAN_POINT ( 'NONE',  ( 0.2699999999999999623, 1.800000000000000044, 0.08099999999999998868 ) ) ;
#558 = EDGE_CURVE ( 'NONE', #48, #243, #76, .T. ) ;
#559 = DIRECTION ( 'NONE',  ( -1.000000000000000000, 0.000000000000000000, 0.000000000000000000 ) ) ;
#560 = ORIENTED_EDGE ( 'NONE', *, *, #518, .T. ) ;
#561 = CARTESIAN_POINT ( 'NONE',  ( -0.2699999999999999623, 0.6868362250202012520, -0.1889999999999999736 ) ) ;
#562 = ADVANCED_FACE ( 'NONE', ( #176 ), #674, .F. ) ;
#563 = CARTESIAN_POINT ( 'NONE',  ( 0.2699999999999999623, 0.4883277587850192725, -0.5670000000000000595 ) ) ;
#564 = AXIS2_PLACEMENT_3D ( 'NONE', #245, #35, #880 ) ;
#565 = ORIENTED_EDGE ( 'NONE', *, *, #650, .F. ) ;
#566 = ORIENTED_EDGE ( 'NONE', *, *, #840, .F. ) ;
#567 = APPROVAL_DATE_TIME ( #355, #289 ) ;
#568 = DIRECTION ( 'NONE',  ( 0.000000000000000000, 0.000000000000000000, 1.000000000000000000 ) ) ;
#569 = DIRECTION ( 'NONE',  ( 1.000000000000000000, 0.000000000000000000, 0.000000000000000000 ) ) ;
#570 = VERTEX_POINT ( 'NONE', #460 ) ;
#571 = CYLINDRICAL_SURFACE ( 'NONE', #596, 0.3959999999999999076 ) ;
#572 = CARTESIAN_POINT ( 'NONE',  ( 0.000000000000000000, 0.000000000000000000, -0.5670000000000000595 ) ) ;
#573 = FACE_OUTER_BOUND ( 'NONE', #52, .T. ) ;
#574 = ORIENTED_EDGE ( 'NONE', *, *, #391, .F. ) ;
#575 = EDGE_CURVE ( 'NONE', #448, #524, #813, .T. ) ;
#576 = APPLICATION_PROTOCOL_DEFINITION ( 'international standard', 'config_control_design', 1994, #459 ) ;
#577 = CARTESIAN_POINT ( 'NONE',  ( -0.3959999999999999076, 0.000000000000000000, 0.1709999999999999853 ) ) ;
#578 = AXIS2_PLACEMENT_3D ( 'NONE', #686, #203, #195 ) ;
#579 = DIRECTION ( 'NONE',  ( 0.000000000000000000, 0.000000000000000000, 1.000000000000000000 ) ) ;
#580 = CIRCLE ( 'NONE', #620, 0.3959999999999999076 ) ;
#581 = VERTEX_POINT ( 'NONE', #393 ) ;
#582 = APPROVAL_ROLE ( '' ) ;
#583 = CARTESIAN_POINT ( 'NONE',  ( 0.000000000000000000, 0.000000000000000000, -0.08099999999999998868 ) ) ;
#584 = CARTESIAN_POINT ( 'NONE',  ( -6.217381450835911571E-20, 0.2160000000000001086, 0.3509999999999999787 ) ) ;
#585 = ORIENTED_EDGE ( 'NONE', *, *, #615, .F. ) ;
#586 = PERSON_AND_ORGANIZATION ( #876, #265 ) ;
#587 = EDGE_CURVE ( 'NONE', #192, #406, #580, .T. ) ;
#588 = PLANE ( 'NONE',  #461 ) ;
#589 = EDGE_CURVE ( 'NONE', #835, #581, #548, .T. ) ;
#590 = CARTESIAN_POINT ( 'NONE',  ( 0.2400309837730675577, 0.2618914088060202427, 0.2120898547167430759 ) ) ;
#591 = ORIENTED_EDGE ( 'NONE', *, *, #260, .F. ) ;
#592 = DIRECTION ( 'NONE',  ( 0.000000000000000000, 0.000000000000000000, 1.000000000000000000 ) ) ;
#593 = DIRECTION ( 'NONE',  ( 0.000000000000000000, 0.000000000000000000, 1.000000000000000000 ) ) ;
#594 = ORIENTED_EDGE ( 'NONE', *, *, #391, .T. ) ;
#595 = AXIS2_PLACEMENT_3D ( 'NONE', #32, #168, #740 ) ;
#596 = AXIS2_PLACEMENT_3D ( 'NONE', #420, #848, #724 ) ;
#597 = DIRECTION ( 'NONE',  ( 0.000000000000000000, 0.000000000000000000, 1.000000000000000000 ) ) ;
#598 = DIRECTION ( 'NONE',  ( 1.000000000000000000, 0.000000000000000000, 0.000000000000000000 ) ) ;
#599 = ORIENTED_EDGE ( 'NONE', *, *, #166, .F. ) ;
#600 = APPROVAL_DATE_TIME ( #457, #432 ) ;
#601 = PRODUCT_RELATED_PRODUCT_CATEGORY ( 'detail', '', ( #529 ) ) ;
#602 = CARTESIAN_POINT ( 'NONE',  ( -0.1198048002404491913, 0.2068033980181311626, 0.3299707849260707371 ) ) ;
#603 = EDGE_CURVE ( 'NONE', #778, #831, #16, .T. ) ;
#604 = ORIENTED_EDGE ( 'NONE', *, *, #741, .T. ) ;
#605 = CARTESIAN_POINT ( 'NONE',  ( -0.2473206085133310139, 0.2826902872554455937, 0.1914716823721608896 ) ) ;
#606 = ORIENTED_EDGE ( 'NONE', *, *, #855, .F. ) ;
#607 = AXIS2_PLACEMENT_3D ( 'NONE', #752, #728, #155 ) ;
#608 = CARTESIAN_POINT ( 'NONE',  ( 0.000000000000000000, 0.000000000000000000, -0.08099999999999998868 ) ) ;
#609 = ORIENTED_EDGE ( 'NONE', *, *, #685, .F. ) ;
#610 = CARTESIAN_POINT ( 'NONE',  ( 0.2699999999999999623, 0.6868362250202012520, 0.5670000000000000595 ) ) ;
#611 = DIRECTION ( 'NONE',  ( 0.000000000000000000, 1.000000000000000000, 0.000000000000000000 ) ) ;
#612 = ORIENTED_EDGE ( 'NONE', *, *, #99, .T. ) ;
#613 = CARTESIAN_POINT ( 'NONE',  ( -0.6479999999999999094, 7.935711258474848467E-17, -0.4769999999999999241 ) ) ;
#614 = DIRECTION ( 'NONE',  ( 0.7071067811865480168, 8.659560562354939021E-17, -0.7071067811865470176 ) ) ;
#615 = EDGE_CURVE ( 'NONE', #800, #911, #323, .T. ) ;
#616 = ORIENTED_EDGE ( 'NONE', *, *, #815, .F. ) ;
#617 = AXIS2_PLACEMENT_3D ( 'NONE', #414, #24, #21 ) ;
#618 = DIRECTION ( 'NONE',  ( 0.000000000000000000, 0.000000000000000000, 1.000000000000000000 ) ) ;
#619 = FACE_OUTER_BOUND ( 'NONE', #196, .T. ) ;
#620 = AXIS2_PLACEMENT_3D ( 'NONE', #801, #455, #326 ) ;
#621 = ORIENTED_EDGE ( 'NONE', *, *, #110, .F. ) ;
#622 = CC_DESIGN_PERSON_AND_ORGANIZATION_ASSIGNMENT ( #861, #227, ( #666 ) ) ;
#623 = FACE_OUTER_BOUND ( 'NONE', #349, .T. ) ;
#624 = DIRECTION ( 'NONE',  ( 1.000000000000000000, 0.000000000000000000, 0.000000000000000000 ) ) ;
#625 = ORIENTED_EDGE ( 'NONE', *, *, #537, .F. ) ;
#626 = EDGE_CURVE ( 'NONE', #742, #570, #679, .T. ) ;
#627 = VERTEX_POINT ( 'NONE', #530 ) ;
#628 = CARTESIAN_POINT ( 'NONE',  ( 0.000000000000000000, 0.000000000000000000, 0.3509999999999999787 ) ) ;
#629 = CARTESIAN_POINT ( 'NONE',  ( -0.2699999999999999623, 0.000000000000000000, -0.08099999999999998868 ) ) ;
#630 = DIRECTION ( 'NONE',  ( 1.000000000000000000, 0.000000000000000000, 0.000000000000000000 ) ) ;
#631 = ORIENTED_EDGE ( 'NONE', *, *, #106, .F. ) ;
#632 = APPROVAL_STATUS ( 'not_yet_approved' ) ;
#633 = AXIS2_PLACEMENT_3D ( 'NONE', #213, #151, #141 ) ;
#634 = DIRECTION ( 'NONE',  ( 0.000000000000000000, -1.000000000000000000, 0.000000000000000000 ) ) ;
#635 = AXIS2_PLACEMENT_3D ( 'NONE', #900, #272, #624 ) ;
#636 = CIRCLE ( 'NONE', #133, 0.3959999999999999076 ) ;
#637 = DIRECTION ( 'NONE',  ( 0.000000000000000000, 0.000000000000000000, 1.000000000000000000 ) ) ;
#638 = ORIENTED_EDGE ( 'NONE', *, *, #288, .T. ) ;
#639 = DATE_TIME_ROLE ( 'creation_date' ) ;
#640 = CARTESIAN_POINT ( 'NONE',  ( 0.000000000000000000, 0.000000000000000000, -0.4769999999999999241 ) ) ;
#641 = CARTESIAN_POINT ( 'NONE',  ( 0.000000000000000000, 0.000000000000000000, 0.1709999999999999853 ) ) ;
#642 = ORIENTED_EDGE ( 'NONE', *, *, #177, .F. ) ;
#643 = FACE_OUTER_BOUND ( 'NONE', #80, .T. ) ;
#644 = CARTESIAN_POINT ( 'NONE',  ( 0.000000000000000000, 0.000000000000000000, 0.5670000000000000595 ) ) ;
#645 = ORIENTED_EDGE ( 'NONE', *, *, #260, .T. ) ;
#646 = COORDINATED_UNIVERSAL_TIME_OFFSET ( 8, 0, .AHEAD. ) ;
#647 = LINE ( 'NONE', #216, #268 ) ;
#648 = AXIS2_PLACEMENT_3D ( 'NONE', #864, #733, #86 ) ;
#649 = AXIS2_PLACEMENT_3D ( 'NONE', #794, #722, #877 ) ;
#650 = EDGE_CURVE ( 'NONE', #665, #820, #28, .T. ) ;
#651 = CARTESIAN_POINT ( 'NONE',  ( 0.000000000000000000, 0.000000000000000000, 0.5670000000000000595 ) ) ;
#652 = CIRCLE ( 'NONE', #376, 0.9000000000000000222 ) ;
#653 = ORIENTED_EDGE ( 'NONE', *, *, #840, .T. ) ;
#654 = EDGE_CURVE ( 'NONE', #800, #48, #302, .T. ) ;
#655 = CARTESIAN_POINT ( 'NONE',  ( -0.2699999999999999623, 1.800000000000000044, 0.08099999999999998868 ) ) ;
#656 = FACE_OUTER_BOUND ( 'NONE', #211, .T. ) ;
#657 = ORIENTED_EDGE ( 'NONE', *, *, #729, .T. ) ;
#658 = COORDINATED_UNIVERSAL_TIME_OFFSET ( 8, 0, .AHEAD. ) ;
#659 = CARTESIAN_POINT ( 'NONE',  ( -0.2374303864804660769, 0.2637670193624133130, 0.2121112393027833332 ) ) ;
#660 = CARTESIAN_POINT ( 'NONE',  ( 0.2545584412271570951, 0.3033413918343488280, 0.1710000000000000409 ) ) ;
#661 = ORIENTED_EDGE ( 'NONE', *, *, #729, .F. ) ;
#662 = CARTESIAN_POINT ( 'NONE',  ( 0.000000000000000000, 0.000000000000000000, -0.5670000000000000595 ) ) ;
#663 = AXIS2_PLACEMENT_3D ( 'NONE', #68, #84, #440 ) ;
#664 = CARTESIAN_POINT ( 'NONE',  ( -0.3959999999999999076, 4.849601324623517823E-17, -0.5670000000000000595 ) ) ;
#665 = VERTEX_POINT ( 'NONE', #388 ) ;
#666 = PRODUCT_DEFINITION_FORMATION_WITH_SPECIFIED_SOURCE ( '�', '', #529, .NOT_KNOWN. ) ;
#667 = CARTESIAN_POINT ( 'NONE',  ( -0.1891734991841749758, 0.2218244429758417513, 0.2758673848627685166 ) ) ;
#668 = EDGE_CURVE ( 'NONE', #847, #226, #364, .T. ) ;
#669 = ORIENTED_EDGE ( 'NONE', *, *, #117, .F. ) ;
#670 = DIRECTION ( 'NONE',  ( 1.000000000000000000, 0.000000000000000000, 0.000000000000000000 ) ) ;
#671 = ORIENTED_EDGE ( 'NONE', *, *, #819, .T. ) ;
#672 = ADVANCED_FACE ( 'NONE', ( #882 ), #818, .T. ) ;
#673 = CALENDAR_DATE ( 2026, 29, 6 ) ;
#674 = CYLINDRICAL_SURFACE ( 'NONE', #41, 0.3959999999999999076 ) ;
#675 = ADVANCED_FACE ( 'NONE', ( #887 ), #839, .T. ) ;
#676 = ORIENTED_EDGE ( 'NONE', *, *, #200, .T. ) ;
#677 = AXIS2_PLACEMENT_3D ( 'NONE', #433, #495, #201 ) ;
#678 = CARTESIAN_POINT ( 'NONE',  ( -0.7739999999999997993, 0.000000000000000000, 0.5670000000000000595 ) ) ;
#679 = CIRCLE ( 'NONE', #730, 0.6479999999999999094 ) ;
#680 = EDGE_CURVE ( 'NONE', #48, #207, #256, .T. ) ;
#681 = DIRECTION ( 'NONE',  ( 1.000000000000000000, 0.000000000000000000, 0.000000000000000000 ) ) ;
#682 = ORIENTED_EDGE ( 'NONE', *, *, #494, .T. ) ;
#683 = ORIENTED_EDGE ( 'NONE', *, *, #685, .T. ) ;
#684 = DIRECTION ( 'NONE',  ( 0.000000000000000000, 0.000000000000000000, 1.000000000000000000 ) ) ;
#685 = EDGE_CURVE ( 'NONE', #570, #310, #185, .T. ) ;
#686 = CARTESIAN_POINT ( 'NONE',  ( 0.000000000000000000, 0.000000000000000000, -0.4769999999999999241 ) ) ;
#687 = ORIENTED_EDGE ( 'NONE', *, *, #161, .F. ) ;
#688 = CARTESIAN_POINT ( 'NONE',  ( 0.000000000000000000, 0.000000000000000000, 0.1709999999999999853 ) ) ;
#689 = CARTESIAN_POINT ( 'NONE',  ( 0.3959999999999999076, 0.000000000000000000, 0.5670000000000000595 ) ) ;
#690 = ADVANCED_FACE ( 'NONE', ( #128 ), #401, .F. ) ;
#691 = ORIENTED_EDGE ( 'NONE', *, *, #117, .T. ) ;
#692 = VECTOR ( 'NONE', #357, 1000.000000000000000 ) ;
#693 = DIRECTION ( 'NONE',  ( 1.000000000000000000, 0.000000000000000000, 0.000000000000000000 ) ) ;
#694 = VECTOR ( 'NONE', #347, 1000.000000000000000 ) ;
#695 = CARTESIAN_POINT ( 'NONE',  ( 0.5579999999999999405, 0.000000000000000000, -0.5670000000000000595 ) ) ;
#696 = CIRCLE ( 'NONE', #413, 0.2159999999999999976 ) ;
#697 = EDGE_CURVE ( 'NONE', #448, #111, #836, .T. ) ;
#698 = CARTESIAN_POINT ( 'NONE',  ( 0.2699999999999999623, 0.2896825849097598438, 0.5670000000000000595 ) ) ;
#699 = CARTESIAN_POINT ( 'NONE',  ( -0.2699999999999999623, 0.2896825849097596217, 0.08100000000000000255 ) ) ;
#700 = CARTESIAN_POINT ( 'NONE',  ( -0.2159999999999999976, 0.000000000000000000, 0.3509999999999999787 ) ) ;
#701 = B_SPLINE_CURVE_WITH_KNOTS ( 'NONE', 3,
 ( #867, #447, #165, #527 ),
 .UNSPECIFIED., .F., .F.,
 ( 4, 4 ),
 ( 5.421010862427524577E-20, 9.245301854123021427E-05 ),
 .UNSPECIFIED. ) ;
#702 = FACE_OUTER_BOUND ( 'NONE', #369, .T. ) ;
#703 = ORIENTED_EDGE ( 'NONE', *, *, #417, .T. ) ;
#704 = PERSON_AND_ORGANIZATION ( #876, #265 ) ;
#705 = PLANE ( 'NONE',  #179 ) ;
#706 = CARTESIAN_POINT ( 'NONE',  ( 0.000000000000000000, 0.000000000000000000, 0.3509999999999999787 ) ) ;
#707 = PRODUCT_DEFINITION_SHAPE ( 'NONE', 'NONE',  #750 ) ;
#708 = VERTEX_POINT ( 'NONE', #678 ) ;
#709 =( NAMED_UNIT ( * ) SI_UNIT ( $, .STERADIAN. ) SOLID_ANGLE_UNIT ( ) );
#710 = DIRECTION ( 'NONE',  ( 0.000000000000000000, 0.000000000000000000, 1.000000000000000000 ) ) ;
#711 = CC_DESIGN_DATE_AND_TIME_ASSIGNMENT ( #103, #244, ( #469 ) ) ;
#712 = AXIS2_PLACEMENT_3D ( 'NONE', #890, #188, #410 ) ;
#713 = CC_DESIGN_APPROVAL ( #289, ( #666 ) ) ;
#714 = CARTESIAN_POINT ( 'NONE',  ( 0.000000000000000000, 0.000000000000000000, -0.08099999999999998868 ) ) ;
#715 = ORIENTED_EDGE ( 'NONE', *, *, #234, .T. ) ;
#716 = CALENDAR_DATE ( 2026, 29, 6 ) ;
#717 = ADVANCED_FACE ( 'NONE', ( #623 ), #241, .F. ) ;
#718 = CARTESIAN_POINT ( 'NONE',  ( 0.000000000000000000, 0.000000000000000000, 0.4410000000000000031 ) ) ;
#719 = FACE_OUTER_BOUND ( 'NONE', #127, .T. ) ;
#720 = ORIENTED_EDGE ( 'NONE', *, *, #531, .T. ) ;
#721 = CARTESIAN_POINT ( 'NONE',  ( 0.2699999999999999623, 0.5890704541903284408, -0.4769999999999998685 ) ) ;
#722 = DIRECTION ( 'NONE',  ( 0.000000000000000000, 0.000000000000000000, 1.000000000000000000 ) ) ;
#723 = ORIENTED_EDGE ( 'NONE', *, *, #793, .T. ) ;
#724 = DIRECTION ( 'NONE',  ( 1.000000000000000000, 0.000000000000000000, 0.000000000000000000 ) ) ;
#725 = LINE ( 'NONE', #377, #898 ) ;
#726 = CLOSED_SHELL ( 'NONE', ( #228, #360, #450, #57, #61, #75, #878, #47, #888, #562, #717, #690, #454, #27, #672, #10, #136, #262, #124, #298, #804, #59, #675, #437, #150, #484, #34 ) ) ;
#727 = VECTOR ( 'NONE', #50, 1000.000000000000000 ) ;
#728 = DIRECTION ( 'NONE',  ( 0.000000000000000000, 0.000000000000000000, -1.000000000000000000 ) ) ;
#729 = EDGE_CURVE ( 'NONE', #847, #885, #636, .T. ) ;
#730 = AXIS2_PLACEMENT_3D ( 'NONE', #608, #597, #23 ) ;
#731 = ORIENTED_EDGE ( 'NONE', *, *, #294, .T. ) ;
#732 = CARTESIAN_POINT ( 'NONE',  ( 0.2699999999999999623, 0.8585452812752513152, 0.5670000000000000595 ) ) ;
#733 = DIRECTION ( 'NONE',  ( 0.000000000000000000, 0.000000000000000000, 1.000000000000000000 ) ) ;
#734 = ORIENTED_EDGE ( 'NONE', *, *, #342, .F. ) ;
#735 = PERSON_AND_ORGANIZATION_ROLE ( 'design_supplier' ) ;
#736 = DIRECTION ( 'NONE',  ( 0.000000000000000000, 0.000000000000000000, 1.000000000000000000 ) ) ;
#737 = ADVANCED_BREP_SHAPE_REPRESENTATION ( '003956', ( #94, #71 ), #251 ) ;
#738 = DIRECTION ( 'NONE',  ( 0.000000000000000000, 1.000000000000000000, 0.000000000000000000 ) ) ;
#739 = ORIENTED_EDGE ( 'NONE', *, *, #741, .F. ) ;
#740 = DIRECTION ( 'NONE',  ( 1.000000000000000000, 0.000000000000000000, 0.000000000000000000 ) ) ;
#741 = EDGE_CURVE ( 'NONE', #778, #448, #811, .T. ) ;
#742 = VERTEX_POINT ( 'NONE', #415 ) ;
#743 = AXIS2_PLACEMENT_3D ( 'NONE', #908, #483, #330 ) ;
#744 = PERSON_AND_ORGANIZATION ( #876, #265 ) ;
#745 = VECTOR ( 'NONE', #480, 1000.000000000000000 ) ;
#746 = CARTESIAN_POINT ( 'NONE',  ( -0.2545584412271570951, 0.3033413918343487725, 0.1710000000000000686 ) ) ;
#747 = VERTEX_POINT ( 'NONE', #271 ) ;
#748 = DIRECTION ( 'NONE',  ( 1.000000000000000000, 0.000000000000000000, 0.000000000000000000 ) ) ;
#749 = ORIENTED_EDGE ( 'NONE', *, *, #575, .T. ) ;
#750 = PRODUCT_DEFINITION ( '�', '', #666, #551 ) ;
#751 = DIRECTION ( 'NONE',  ( 0.000000000000000000, 0.000000000000000000, 1.000000000000000000 ) ) ;
#752 = CARTESIAN_POINT ( 'NONE',  ( 0.000000000000000000, 0.000000000000000000, 0.5670000000000000595 ) ) ;
#753 = EDGE_CURVE ( 'NONE', #528, #226, #696, .T. ) ;
#754 = EDGE_LOOP ( 'NONE', ( #770, #329, #282, #642 ) ) ;
#755 = CARTESIAN_POINT ( 'NONE',  ( 0.9000000000000000222, 0.000000000000000000, -0.1889999999999999736 ) ) ;
#756 = CARTESIAN_POINT ( 'NONE',  ( 0.6479999999999999094, 0.000000000000000000, 0.5670000000000000595 ) ) ;
#757 = ORIENTED_EDGE ( 'NONE', *, *, #177, .T. ) ;
#758 = CARTESIAN_POINT ( 'NONE',  ( -0.9000000000000000222, 1.102182119232617788E-16, 0.5670000000000000595 ) ) ;
#759 = CYLINDRICAL_SURFACE ( 'NONE', #797, 0.2699999999999999623 ) ;
#760 = ORIENTED_EDGE ( 'NONE', *, *, #230, .F. ) ;
#761 = DIRECTION ( 'NONE',  ( 1.000000000000000000, 0.000000000000000000, 0.000000000000000000 ) ) ;
#762 = LINE ( 'NONE', #553, #116 ) ;
#763 = DIRECTION ( 'NONE',  ( 1.000000000000000000, 0.000000000000000000, 0.000000000000000000 ) ) ;
#764 = LOCAL_TIME ( 8, 54, 55.00000000000000000, #843 ) ;
#765 = VECTOR ( 'NONE', #593, 1000.000000000000000 ) ;
#766 = CARTESIAN_POINT ( 'NONE',  ( -0.2699999999999999623, 0.5890704541903285518, -0.4769999999999998685 ) ) ;
#767 = DIRECTION ( 'NONE',  ( 0.000000000000000000, 0.000000000000000000, 1.000000000000000000 ) ) ;
#768 = VECTOR ( 'NONE', #498, 1000.000000000000000 ) ;
#769 = DIRECTION ( 'NONE',  ( 0.000000000000000000, 0.000000000000000000, -1.000000000000000000 ) ) ;
#770 = ORIENTED_EDGE ( 'NONE', *, *, #91, .F. ) ;
#771 = APPROVAL_STATUS ( 'not_yet_approved' ) ;
#772 = DIRECTION ( 'NONE',  ( 0.000000000000000000, -1.000000000000000000, 0.000000000000000000 ) ) ;
#773 = CARTESIAN_POINT ( 'NONE',  ( 0.000000000000000000, 0.000000000000000000, 0.5670000000000000595 ) ) ;
#774 = ORIENTED_EDGE ( 'NONE', *, *, #509, .T. ) ;
#775 = CARTESIAN_POINT ( 'NONE',  ( -0.9000000000000000222, 1.102182119232617788E-16, -0.1889999999999999736 ) ) ;
#776 = ORIENTED_EDGE ( 'NONE', *, *, #65, .F. ) ;
#777 = EDGE_CURVE ( 'NONE', #817, #747, #652, .T. ) ;
#778 = VERTEX_POINT ( 'NONE', #766 ) ;
#779 = FACE_OUTER_BOUND ( 'NONE', #257, .T. ) ;
#780 = DIRECTION ( 'NONE',  ( 0.000000000000000000, 0.000000000000000000, 1.000000000000000000 ) ) ;
#781 = VECTOR ( 'NONE', #738, 1000.000000000000000 ) ;
#782 = AXIS2_PLACEMENT_3D ( 'NONE', #718, #787, #149 ) ;
#783 = CC_DESIGN_APPROVAL ( #432, ( #469 ) ) ;
#784 = VERTEX_POINT ( 'NONE', #42 ) ;
#785 = ORIENTED_EDGE ( 'NONE', *, *, #36, .T. ) ;
#786 = APPLICATION_PROTOCOL_DEFINITION ( 'international standard', 'config_control_design', 1994, #366 ) ;
#787 = DIRECTION ( 'NONE',  ( 0.000000000000000000, 0.000000000000000000, 1.000000000000000000 ) ) ;
#788 = CC_DESIGN_PERSON_AND_ORGANIZATION_ASSIGNMENT ( #704, #221, ( #529 ) ) ;
#789 = CARTESIAN_POINT ( 'NONE',  ( 0.000000000000000000, 0.000000000000000000, -0.08099999999999998868 ) ) ;
#790 = ORIENTED_EDGE ( 'NONE', *, *, #575, .F. ) ;
#791 = DIRECTION ( 'NONE',  ( 0.000000000000000000, 0.000000000000000000, 1.000000000000000000 ) ) ;
#792 = CARTESIAN_POINT ( 'NONE',  ( -0.2699999999999999623, 0.4883277587850191614, -0.5670000000000001705 ) ) ;
#793 = EDGE_CURVE ( 'NONE', #113, #192, #886, .T. ) ;
#794 = CARTESIAN_POINT ( 'NONE',  ( 0.000000000000000000, 0.000000000000000000, -0.1889999999999999736 ) ) ;
#795 = ORIENTED_EDGE ( 'NONE', *, *, #274, .T. ) ;
#796 = DIRECTION ( 'NONE',  ( 1.000000000000000000, 0.000000000000000000, 0.000000000000000000 ) ) ;
#797 = AXIS2_PLACEMENT_3D ( 'NONE', #135, #772, #351 ) ;
#798 = CARTESIAN_POINT ( 'NONE',  ( -0.2699999999999999623, 0.2896825849097596217, 0.08100000000000000255 ) ) ;
#799 = VECTOR ( 'NONE', #568, 1000.000000000000000 ) ;
#800 = VERTEX_POINT ( 'NONE', #561 ) ;
#801 = CARTESIAN_POINT ( 'NONE',  ( 0.000000000000000000, 0.000000000000000000, -0.5670000000000000595 ) ) ;
#802 = CARTESIAN_POINT ( 'NONE',  ( -0.2699999999999999623, 1.800000000000000044, -0.7539611858167138969 ) ) ;
#803 = VERTEX_POINT ( 'NONE', #699 ) ;
#804 = ADVANCED_FACE ( 'NONE', ( #556 ), #506, .F. ) ;
#805 = CARTESIAN_POINT ( 'NONE',  ( 0.000000000000000000, 0.000000000000000000, -0.1889999999999999736 ) ) ;
#806 = CARTESIAN_POINT ( 'NONE',  ( -0.2545584412271570951, 0.3033413918343487725, 0.1710000000000000686 ) ) ;
#807 = VERTEX_POINT ( 'NONE', #62 ) ;
#808 = CARTESIAN_POINT ( 'NONE',  ( 0.07115422124907792856, 0.8999789766016474957, 0.3509299219744755338 ) ) ;
#809 = AXIS2_PLACEMENT_3D ( 'NONE', #318, #515, #873 ) ;
#810 = VECTOR ( 'NONE', #46, 1000.000000000000000 ) ;
#811 = B_SPLINE_CURVE_WITH_KNOTS ( 'NONE', 3,
 ( #832, #279, #263, #194 ),
 .UNSPECIFIED., .F., .F.,
 ( 4, 4 ),
 ( 0.000000000000000000, 0.0001350891952656725213 ),
 .UNSPECIFIED. ) ;
#812 = ORIENTED_EDGE ( 'NONE', *, *, #255, .T. ) ;
#813 = CIRCLE ( 'NONE', #857, 0.5579999999999999405 ) ;
#814 = DIRECTION ( 'NONE',  ( 0.000000000000000000, 0.000000000000000000, 1.000000000000000000 ) ) ;
#815 = EDGE_CURVE ( 'NONE', #310, #784, #275, .T. ) ;
#816 = ORIENTED_EDGE ( 'NONE', *, *, #197, .F. ) ;
#817 = VERTEX_POINT ( 'NONE', #755 ) ;
#818 = PLANE ( 'NONE',  #90 ) ;
#819 = EDGE_CURVE ( 'NONE', #453, #817, #473, .T. ) ;
#820 = VERTEX_POINT ( 'NONE', #333 ) ;
#821 = DIRECTION ( 'NONE',  ( 0.000000000000000000, 0.000000000000000000, -1.000000000000000000 ) ) ;
#822 = DIRECTION ( 'NONE',  ( 0.000000000000000000, 0.000000000000000000, 1.000000000000000000 ) ) ;
#823 = AXIS2_PLACEMENT_3D ( 'NONE', #706, #905, #210 ) ;
#824 = ORIENTED_EDGE ( 'NONE', *, *, #555, .F. ) ;
#825 = DIRECTION ( 'NONE',  ( -1.000000000000000000, 0.000000000000000000, 0.000000000000000000 ) ) ;
#826 = AXIS2_PLACEMENT_3D ( 'NONE', #114, #134, #470 ) ;
#827 = FACE_OUTER_BOUND ( 'NONE', #828, .T. ) ;
#828 = EDGE_LOOP ( 'NONE', ( #424, #896, #31, #565, #138, #687, #669 ) ) ;
#829 = CARTESIAN_POINT ( 'NONE',  ( 0.000000000000000000, 0.000000000000000000, -0.08099999999999998868 ) ) ;
#830 = DIRECTION ( 'NONE',  ( 0.000000000000000000, -1.000000000000000000, 0.000000000000000000 ) ) ;
#831 = VERTEX_POINT ( 'NONE', #613 ) ;
#832 = CARTESIAN_POINT ( 'NONE',  ( -0.2699999999999999623, 0.5890704541903285518, -0.4769999999999998685 ) ) ;
#833 = CARTESIAN_POINT ( 'NONE',  ( 0.000000000000000000, 0.000000000000000000, 0.4410000000000000031 ) ) ;
#834 = ORIENTED_EDGE ( 'NONE', *, *, #753, .T. ) ;
#835 = VERTEX_POINT ( 'NONE', #337 ) ;
#836 = LINE ( 'NONE', #543, #916 ) ;
#837 = EDGE_CURVE ( 'NONE', #243, #214, #893, .T. ) ;
#838 = CYLINDRICAL_SURFACE ( 'NONE', #635, 0.9000000000000000222 ) ;
#839 = CONICAL_SURFACE ( 'NONE', #180, 0.6479999999999999094, 0.7853981633974476129 ) ;
#840 = EDGE_CURVE ( 'NONE', #453, #627, #546, .T. ) ;
#841 = DIRECTION ( 'NONE',  ( 0.000000000000000000, 0.000000000000000000, -1.000000000000000000 ) ) ;
#842 = ORIENTED_EDGE ( 'NONE', *, *, #327, .T. ) ;
#843 = COORDINATED_UNIVERSAL_TIME_OFFSET ( 8, 0, .AHEAD. ) ;
#844 = CARTESIAN_POINT ( 'NONE',  ( 0.000000000000000000, 0.000000000000000000, -0.1889999999999999736 ) ) ;
#845 = EDGE_CURVE ( 'NONE', #524, #379, #427, .T. ) ;
#846 = DIRECTION ( 'NONE',  ( 0.000000000000000000, 0.000000000000000000, 1.000000000000000000 ) ) ;
#847 = VERTEX_POINT ( 'NONE', #552 ) ;
#848 = DIRECTION ( 'NONE',  ( 0.000000000000000000, 0.000000000000000000, 1.000000000000000000 ) ) ;
#849 = DIRECTION ( 'NONE',  ( 1.000000000000000000, 0.000000000000000000, 0.000000000000000000 ) ) ;
#850 = CARTESIAN_POINT ( 'NONE',  ( 0.000000000000000000, 0.000000000000000000, -0.4769999999999999241 ) ) ;
#851 = ORIENTED_EDGE ( 'NONE', *, *, #161, .T. ) ;
#852 = DIRECTION ( 'NONE',  ( 1.000000000000000000, 0.000000000000000000, 0.000000000000000000 ) ) ;
#853 = B_SPLINE_CURVE_WITH_KNOTS ( 'NONE', 3,
 ( #287, #163, #89, #721 ),
 .UNSPECIFIED., .F., .F.,
 ( 4, 4 ),
 ( 3.066586833366748854E-19, 0.0001350891952656726297 ),
 .UNSPECIFIED. ) ;
#854 = CIRCLE ( 'NONE', #809, 0.2159999999999999976 ) ;
#855 = EDGE_CURVE ( 'NONE', #387, #807, #145, .T. ) ;
#856 = DIRECTION ( 'NONE',  ( -0.7071067811865470176, 0.000000000000000000, -0.7071067811865480168 ) ) ;
#857 = AXIS2_PLACEMENT_3D ( 'NONE', #662, #38, #670 ) ;
#858 = B_SPLINE_CURVE_WITH_KNOTS ( 'NONE', 3,
 ( #798, #511, #231, #806 ),
 .UNSPECIFIED., .F., .F.,
 ( 4, 4 ),
 ( 2.710505431213761085E-20, 9.241614249655355571E-05 ),
 .UNSPECIFIED. ) ;
#859 = CARTESIAN_POINT ( 'NONE',  ( -0.2699999999999999623, 0.2896825849097598438, -0.5670000000000000595 ) ) ;
#860 = ORIENTED_EDGE ( 'NONE', *, *, #777, .F. ) ;
#861 = PERSON_AND_ORGANIZATION ( #876, #265 ) ;
#862 = EDGE_CURVE ( 'NONE', #111, #113, #883, .T. ) ;
#863 = CYLINDRICAL_SURFACE ( 'NONE', #328, 0.9000000000000000222 ) ;
#864 = CARTESIAN_POINT ( 'NONE',  ( 0.000000000000000000, 0.000000000000000000, -0.1889999999999999736 ) ) ;
#865 = ORIENTED_EDGE ( 'NONE', *, *, #615, .T. ) ;
#866 = LINE ( 'NONE', #655, #768 ) ;
#867 = CARTESIAN_POINT ( 'NONE',  ( 0.2545584412271570951, 0.3033413918343488280, 0.1710000000000000409 ) ) ;
#868 = ORIENTED_EDGE ( 'NONE', *, *, #819, .F. ) ;
#869 = CARTESIAN_POINT ( 'NONE',  ( 0.2699999999999999623, 0.000000000000000000, -0.08099999999999998868 ) ) ;
#870 = CC_DESIGN_APPROVAL ( #385, ( #750 ) ) ;
#871 = CIRCLE ( 'NONE', #146, 0.7379999999999999893 ) ;
#872 = CIRCLE ( 'NONE', #782, 0.9000000000000000222 ) ;
#873 = DIRECTION ( 'NONE',  ( 1.000000000000000000, 0.000000000000000000, 0.000000000000000000 ) ) ;
#874 = ORIENTED_EDGE ( 'NONE', *, *, #110, .T. ) ;
#875 = CARTESIAN_POINT ( 'NONE',  ( -0.2699999999999999623, 0.8585452812752513152, 0.08100000000000000255 ) ) ;
#876 = PERSON ( '未', '未', '未', ('未'), ('未'), ('未') ) ;
#877 = DIRECTION ( 'NONE',  ( 1.000000000000000000, 0.000000000000000000, 0.000000000000000000 ) ) ;
#878 = ADVANCED_FACE ( 'NONE', ( #779 ), #224, .T. ) ;
#879 = ORIENTED_EDGE ( 'NONE', *, *, #234, .F. ) ;
#880 = DIRECTION ( 'NONE',  ( 1.000000000000000000, 0.000000000000000000, 0.000000000000000000 ) ) ;
#881 = ORIENTED_EDGE ( 'NONE', *, *, #200, .F. ) ;
#882 = FACE_OUTER_BOUND ( 'NONE', #249, .T. ) ;
#883 = CIRCLE ( 'NONE', #78, 0.3959999999999999076 ) ;
#884 = VECTOR ( 'NONE', #614, 1000.000000000000000 ) ;
#885 = VERTEX_POINT ( 'NONE', #375 ) ;
#886 = CIRCLE ( 'NONE', #826, 0.3959999999999999076 ) ;
#887 = FACE_OUTER_BOUND ( 'NONE', #37, .T. ) ;
#888 = ADVANCED_FACE ( 'NONE', ( #7 ), #571, .F. ) ;
#889 = ORIENTED_EDGE ( 'NONE', *, *, #697, .T. ) ;
#890 = CARTESIAN_POINT ( 'NONE',  ( 0.000000000000000000, 0.000000000000000000, 0.1709999999999999853 ) ) ;
#891 = CARTESIAN_POINT ( 'NONE',  ( 0.2699999999999999623, 0.6868362250202012520, -0.08099999999999998868 ) ) ;
#892 = ORIENTED_EDGE ( 'NONE', *, *, #368, .T. ) ;
#893 = LINE ( 'NONE', #475, #745 ) ;
#894 = CARTESIAN_POINT ( 'NONE',  ( 0.7379999999999999893, 0.000000000000000000, -0.1889999999999999736 ) ) ;
#895 = CIRCLE ( 'NONE', #912, 0.3959999999999999076 ) ;
#896 = ORIENTED_EDGE ( 'NONE', *, *, #191, .F. ) ;
#897 = CC_DESIGN_PERSON_AND_ORGANIZATION_ASSIGNMENT ( #395, #735, ( #666 ) ) ;
#898 = VECTOR ( 'NONE', #356, 1000.000000000000000 ) ;
#899 = DIRECTION ( 'NONE',  ( 1.000000000000000000, 0.000000000000000000, 0.000000000000000000 ) ) ;
#900 = CARTESIAN_POINT ( 'NONE',  ( 0.000000000000000000, 0.000000000000000000, 0.5670000000000000595 ) ) ;
#901 = ORIENTED_EDGE ( 'NONE', *, *, #587, .F. ) ;
#902 = CARTESIAN_POINT ( 'NONE',  ( 0.000000000000000000, 0.000000000000000000, 0.1709999999999999853 ) ) ;
#903 = DIRECTION ( 'NONE',  ( 0.000000000000000000, 0.000000000000000000, 1.000000000000000000 ) ) ;
#904 = B_SPLINE_CURVE_WITH_KNOTS ( 'NONE', 3,
 ( #331, #96, #173, #378, #590, #660 ),
 .UNSPECIFIED., .F., .F.,
 ( 4, 2, 4 ),
 ( 3.288469931641009226E-21, 0.0001778687712103719837, 0.0003557375424207439673 ),
 .UNSPECIFIED. ) ;
#905 = DIRECTION ( 'NONE',  ( 0.000000000000000000, 0.000000000000000000, -1.000000000000000000 ) ) ;
#906 = EDGE_CURVE ( 'NONE', #474, #708, #218, .T. ) ;
#907 = ORIENTED_EDGE ( 'NONE', *, *, #255, .F. ) ;
#908 = CARTESIAN_POINT ( 'NONE',  ( 0.000000000000000000, 0.000000000000000000, 0.1709999999999999853 ) ) ;
#909 = DIRECTION ( 'NONE',  ( 0.000000000000000000, 0.000000000000000000, 1.000000000000000000 ) ) ;
#910 = CYLINDRICAL_SURFACE ( 'NONE', #677, 0.3959999999999999076 ) ;
#911 = VERTEX_POINT ( 'NONE', #12 ) ;
#912 = AXIS2_PLACEMENT_3D ( 'NONE', #641, #299, #763 ) ;
#913 = PERSON_AND_ORGANIZATION ( #876, #265 ) ;
#914 = AXIS2_PLACEMENT_3D ( 'NONE', #833, #909, #189 ) ;
#915 = CYLINDRICAL_SURFACE ( 'NONE', #253, 0.6479999999999999094 ) ;
#916 = VECTOR ( 'NONE', #120, 1000.000000000000000 ) ;
#917 = FACE_OUTER_BOUND ( 'NONE', #754, .T. ) ;
ENDSEC;
END-ISO-10303-21;
