  0
SECTION
  2
HEADER
  9
$ACADVER
  1
AC1015
  9
$ACADMAINTVER
 70
     6
  9
$DWGCODEPAGE
  3
ANSI_936
  9
$INSBASE
 10
0.0
 20
0.0
 30
0.0
  9
$EXTMIN
 10
0.0
 20
0.0
 30
0.0
  9
$EXTMAX
 10
297.0
 20
210.0
 30
0.0
  9
$LIMMIN
 10
0.0
 20
0.0
  9
$LIMMAX
 10
297.0
 20
210.0
  9
$ORTHOMODE
 70
     0
  9
$REGENMODE
 70
     1
  9
$FILLMODE
 70
     1
  9
$QTEXTMODE
 70
     0
  9
$MIRRTEXT
 70
     1
  9
$LTSCALE
 40
1.0
  9
$ATTMODE
 70
     1
  9
$TEXTSIZE
 40
3.5
  9
$TRACEWID
 40
1.0
  9
$TEXTSTYLE
  7
Standard
  9
$CLAYER
  8
0
  9
$CELTYPE
  6
ByLayer
  9
$CECOLOR
 62
   256
  9
$CELTSCALE
 40
1.0
  9
$DISPSILH
 70
     0
  9
$DIMSCALE
 40
1.0
  9
$DIMASZ
 40
4.08
  9
$DIMEXO
 40
0.0
  9
$DIMDLI
 40
3.75
  9
$DIMRND
 40
0.0
  9
$DIMDLE
 40
0.0
  9
$DIMEXE
 40
2.0
  9
$DIMTP
 40
0.0
  9
$DIMTM
 40
0.0
  9
$DIMTXT
 40
3.5
  9
$DIMCEN
 40
2.5
  9
$DIMTSZ
 40
0.0
  9
$DIMTOL
 70
     0
  9
$DIMLIM
 70
     0
  9
$DIMTIH
 70
     1
  9
$DIMTOH
 70
     1
  9
$DIMSE1
 70
     0
  9
$DIMSE2
 70
     0
  9
$DIMTAD
 70
     1
  9
$DIMZIN
 70
     0
  9
$DIMBLK
  1

  9
$DIMASO
 70
     1
  9
$DIMSHO
 70
     1
  9
$DIMPOST
  1

  9
$DIMAPOST
  1

  9
$DIMALT
 70
     0
  9
$DIMALTD
 70
     3
  9
$DIMALTF
 40
0.0393700787
  9
$DIMLFAC
 40
2.0
  9
$DIMTOFL
 70
     1
  9
$DIMTVP
 40
0.0
  9
$DIMTIX
 70
     0
  9
$DIMSOXD
 70
     0
  9
$DIMSAH
 70
     0
  9
$DIMBLK1
  1

  9
$DIMBLK2
  1

  9
$DIMSTYLE
  2
ISO-25
  9
$DIMCLRD
 70
     0
  9
$DIMCLRE
 70
     0
  9
$DIMCLRT
 70
     0
  9
$DIMTFAC
 40
1.0
  9
$DIMGAP
 40
1.524
  9
$DIMJUST
 70
     0
  9
$DIMSD1
 70
     0
  9
$DIMSD2
 70
     0
  9
$DIMTOLJ
 70
     0
  9
$DIMTZIN
 70
     0
  9
$DIMALTZ
 70
     0
  9
$DIMALTTZ
 70
     0
  9
$DIMUPT
 70
     0
  9
$DIMDEC
 70
     2
  9
$DIMTDEC
 70
     2
  9
$DIMALTU
 70
     2
  9
$DIMALTTD
 70
     3
  9
$DIMTXSTY
  7
Standard
  9
$DIMAUNIT
 70
     0
  9
$DIMADEC
 70
     2
  9
$DIMALTRND
 40
0.0
  9
$DIMAZIN
 70
     0
  9
$DIMDSEP
 70
    44
  9
$DIMATFIT
 70
     3
  9
$DIMFRAC
 70
     0
  9
$DIMLDRBLK
  1

  9
$DIMLUNIT
 70
     2
  9
$DIMLWD
 70
    -2
  9
$DIMLWE
 70
    -2
  9
$DIMTMOVE
 70
     0
  9
$LUNITS
 70
     2
  9
$LUPREC
 70
     2
  9
$SKETCHINC
 40
1.0
  9
$FILLETRAD
 40
0.0
  9
$AUNITS
 70
     0
  9
$AUPREC
 70
     2
  9
$MENU
  1
.
  9
$ELEVATION
 40
0.0
  9
$PELEVATION
 40
0.0
  9
$THICKNESS
 40
0.0
  9
$LIMCHECK
 70
     0
  9
$CHAMFERA
 40
0.0
  9
$CHAMFERB
 40
0.0
  9
$CHAMFERC
 40
0.0
  9
$CHAMFERD
 40
0.0
  9
$SKPOLY
 70
     0
  9
$TDCREATE
 40
2461215.534592026
  9
$TDUCREATE
 40
2461215.201258692
  9
$TDUPDATE
 40
2461215.534592292
  9
$TDUUPDATE
 40
2461215.201258959
  9
$TDINDWG
 40
0.0000000116
  9
$TDUSRTIMER
 40
0.0000000116
  9
$USRTIMER
 70
     1
  9
$ANGBASE
 50
0.0
  9
$ANGDIR
 70
     0
  9
$PDMODE
 70
     0
  9
$PDSIZE
 40
-1.0
  9
$PLINEWID
 40
0.0
  9
$SPLFRAME
 70
     0
  9
$SPLINETYPE
 70
     6
  9
$SPLINESEGS
 70
     8
  9
$HANDSEED
  5
111
  9
$SURFTAB1
 70
     6
  9
$SURFTAB2
 70
     6
  9
$SURFTYPE
 70
     6
  9
$SURFU
 70
     6
  9
$SURFV
 70
     6
  9
$UCSBASE
  2

  9
$UCSNAME
  2

  9
$UCSORG
 10
0.0
 20
0.0
 30
0.0
  9
$UCSXDIR
 10
1.0
 20
0.0
 30
0.0
  9
$UCSYDIR
 10
0.0
 20
1.0
 30
0.0
  9
$UCSORTHOREF
  2

  9
$UCSORTHOVIEW
 70
     0
  9
$UCSORGTOP
 10
0.0
 20
0.0
 30
0.0
  9
$UCSORGBOTTOM
 10
0.0
 20
0.0
 30
0.0
  9
$UCSORGLEFT
 10
0.0
 20
0.0
 30
0.0
  9
$UCSORGRIGHT
 10
0.0
 20
0.0
 30
0.0
  9
$UCSORGFRONT
 10
0.0
 20
0.0
 30
0.0
  9
$UCSORGBACK
 10
0.0
 20
0.0
 30
0.0
  9
$PUCSBASE
  2

  9
$PUCSNAME
  2

  9
$PUCSORG
 10
0.0
 20
0.0
 30
0.0
  9
$PUCSXDIR
 10
1.0
 20
0.0
 30
0.0
  9
$PUCSYDIR
 10
0.0
 20
1.0
 30
0.0
  9
$PUCSORTHOREF
  2

  9
$PUCSORTHOVIEW
 70
     0
  9
$PUCSORGTOP
 10
0.0
 20
0.0
 30
0.0
  9
$PUCSORGBOTTOM
 10
0.0
 20
0.0
 30
0.0
  9
$PUCSORGLEFT
 10
0.0
 20
0.0
 30
0.0
  9
$PUCSORGRIGHT
 10
0.0
 20
0.0
 30
0.0
  9
$PUCSORGFRONT
 10
0.0
 20
0.0
 30
0.0
  9
$PUCSORGBACK
 10
0.0
 20
0.0
 30
0.0
  9
$USERI1
 70
     0
  9
$USERI2
 70
     0
  9
$USERI3
 70
     0
  9
$USERI4
 70
     0
  9
$USERI5
 70
     0
  9
$USERR1
 40
0.0
  9
$USERR2
 40
0.0
  9
$USERR3
 40
0.0
  9
$USERR4
 40
0.0
  9
$USERR5
 40
0.0
  9
$WORLDVIEW
 70
     1
  9
$SHADEDGE
 70
     3
  9
$SHADEDIF
 70
    70
  9
$TILEMODE
 70
     1
  9
$MAXACTVP
 70
    64
  9
$PINSBASE
 10
0.0
 20
0.0
 30
0.0
  9
$PLIMCHECK
 70
     0
  9
$PEXTMIN
 10
1.0000000000E+20
 20
1.0000000000E+20
 30
1.0000000000E+20
  9
$PEXTMAX
 10
-1.0000000000E+20
 20
-1.0000000000E+20
 30
-1.0000000000E+20
  9
$PLIMMIN
 10
0.0
 20
0.0
  9
$PLIMMAX
 10
420.0
 20
297.0
  9
$UNITMODE
 70
     0
  9
$VISRETAIN
 70
     1
  9
$PLINEGEN
 70
     0
  9
$PSLTSCALE
 70
     1
  9
$TREEDEPTH
 70
  3020
  9
$CMLSTYLE
  2
Standard
  9
$CMLJUST
 70
     0
  9
$CMLSCALE
 40
20.0
  9
$PROXYGRAPHICS
 70
     1
  9
$MEASUREMENT
 70
     1
  9
$CELWEIGHT
370
    -1
  9
$ENDCAPS
280
     0
  9
$JOINSTYLE
280
     0
  9
$LWDISPLAY
290
     1
  9
$INSUNITS
 70
     4
  9
$HYPERLINKBASE
  1

  9
$STYLESHEET
  1

  9
$XEDIT
290
     1
  9
$CEPSNTYPE
380
     0
  9
$PSTYLEMODE
290
     1
  9
$FINGERPRINTGUID
  2
{bd4ca6ce-9116-401c-9a43-ab5c2ad329bf}
  9
$VERSIONGUID
  2
{FAEB1C32-E019-11D5-929B-00C0DF256EC4}
  9
$EXTNAMES
290
     1
  9
$PSVPSCALE
 40
0.0
  9
$OLESTARTUP
290
     0
  0
ENDSEC
  0
SECTION
  2
CLASSES
  0
CLASS
  1
ACDBDICTIONARYWDFLT
  2
AcDbDictionaryWithDefault
  3
ObjectDBX Classes
 90
        0
280
     0
281
     0
  0
CLASS
  1
VISUALSTYLE
  2
AcDbVisualStyle
  3
ObjectDBX Classes
 90
     4095
280
     0
281
     0
  0
CLASS
  1
MATERIAL
  2
AcDbMaterial
  3
ObjectDBX Classes
 90
     1153
280
     0
281
     0
  0
CLASS
  1
SCALE
  2
AcDbScale
  3
ObjectDBX Classes
 90
     1153
280
     0
281
     0
  0
CLASS
  1
TABLESTYLE
  2
AcDbTableStyle
  3
ObjectDBX Classes
 90
     4095
280
     0
281
     0
  0
CLASS
  1
MLEADERSTYLE
  2
AcDbMLeaderStyle
  3
ACDB_MLEADERSTYLE_CLASS
 90
     4095
280
     0
281
     0
  0
CLASS
  1
SUN
  2
AcDbSun
  3
SCENEOE
 90
     1153
280
     0
281
     0
  0
CLASS
  1
ACDBPLACEHOLDER
  2
AcDbPlaceHolder
  3
ObjectDBX Classes
 90
        0
280
     0
281
     0
  0
CLASS
  1
LAYOUT
  2
AcDbLayout
  3
ObjectDBX Classes
 90
        0
280
     0
281
     0
  0
ENDSEC
  0
SECTION
  2
TABLES
  0
TABLE
  2
VPORT
  5
8
330
0
100
AcDbSymbolTable
 70
     1
  0
VPORT
  5
29
330
8
100
AcDbSymbolTableRecord
100
AcDbViewportTableRecord
  2
*Active
 70
     0
 10
0.0
 20
0.0
 11
1.0
 21
1.0
 12
148.5
 22
105.0
 13
0.0
 23
0.0
 14
10.0
 24
10.0
 15
10.0
 25
10.0
 16
0.0
 26
0.0
 36
1.0
 17
0.0
 27
0.0
 37
0.0
 40
210.0
 41
1.4142857143
 42
50.0
 43
0.0
 44
0.0
 50
0.0
 51
0.0
 71
     0
 72
  2000
 73
     1
 74
     3
 75
     0
 76
     0
 77
     0
 78
     0
281
     0
 65
     1
110
0.0
120
0.0
130
0.0
111
1.0
121
0.0
131
0.0
112
0.0
122
1.0
132
0.0
 79
     0
146
0.0
  0
ENDTAB
  0
TABLE
  2
LTYPE
  5
5
330
0
100
AcDbSymbolTable
 70
     6
  0
LTYPE
  5
14
330
5
100
AcDbSymbolTableRecord
100
AcDbLinetypeTableRecord
  2
ByBlock
 70
     0
  3

 72
    65
 73
     0
 40
0.0
  0
LTYPE
  5
15
330
5
100
AcDbSymbolTableRecord
100
AcDbLinetypeTableRecord
  2
ByLayer
 70
     0
  3

 72
    65
 73
     0
 40
0.0
  0
LTYPE
  5
16
330
5
100
AcDbSymbolTableRecord
100
AcDbLinetypeTableRecord
  2
Continuous
 70
     0
  3
Solid line
 72
    65
 73
     0
 40
0.0
  0
LTYPE
  5
5E
330
5
100
AcDbSymbolTableRecord
100
AcDbLinetypeTableRecord
  2
HIDDEN
 70
     0
  3
Hidden __ __ __ __ __ __ __ __ __ __ __ __ __ __
 72
    65
 73
     2
 40
1.905
 49
1.27
 74
     0
 49
-0.635
 74
     0
  0
LTYPE
  5
5F
330
5
100
AcDbSymbolTableRecord
100
AcDbLinetypeTableRecord
  2
PHANTOM
 70
     0
  3
Phantom ______  __  __  ______  __  __  ______
 72
    65
 73
     6
 40
12.7
 49
6.35
 74
     0
 49
-1.27
 74
     0
 49
1.27
 74
     0
 49
-1.27
 74
     0
 49
1.27
 74
     0
 49
-1.27
 74
     0
  0
LTYPE
  5
60
330
5
100
AcDbSymbolTableRecord
100
AcDbLinetypeTableRecord
  2
CENTER
 70
     0
  3
Center ____ _ ____ _ ____ _ ____ _ ____ _ ____
 72
    65
 73
     4
 40
10.16
 49
6.35
 74
     0
 49
-1.27
 74
     0
 49
1.27
 74
     0
 49
-1.27
 74
     0
  0
LTYPE
  5
61
330
5
100
AcDbSymbolTableRecord
100
AcDbLinetypeTableRecord
  2
CENTERX2
 70
     0
  3
Center (2x) ________  __  ________  __  _____
 72
    65
 73
     4
 40
20.32
 49
12.7
 74
     0
 49
-2.54
 74
     0
 49
2.54
 74
     0
 49
-2.54
 74
     0
  0
LTYPE
  5
62
330
5
100
AcDbSymbolTableRecord
100
AcDbLinetypeTableRecord
  2
DOT2
 70
     0
  3
Dot (.5x) ........................................
 72
    65
 73
     2
 40
0.635
 49
0.0
 74
     0
 49
-0.635
 74
     0
  0
ENDTAB
  0
TABLE
  2
LAYER
  5
2
330
0
100
AcDbSymbolTable
 70
    14
  0
LAYER
  5
10
330
2
100
AcDbSymbolTableRecord
100
AcDbLayerTableRecord
  2
0
 70
     0
 62
     7
  6
Continuous
370
    -3
390
F
  0
LAYER
  5
63
330
2
100
AcDbSymbolTableRecord
100
AcDbLayerTableRecord
  2
SLD-0
 70
     0
 62
     7
  6
Continuous
370
    -3
390
F
  0
LAYER
  5
64
330
2
100
AcDbSymbolTableRecord
100
AcDbLayerTableRecord
  2
5
 70
     0
 62
     7
  6
Continuous
370
    -3
390
F
  0
LAYER
  5
65
330
2
100
AcDbSymbolTableRecord
100
AcDbLayerTableRecord
  2
9
 70
     0
 62
     7
  6
Continuous
370
    -3
390
F
  0
LAYER
  5
66
330
2
100
AcDbSymbolTableRecord
100
AcDbLayerTableRecord
  2
10
 70
     0
 62
     7
  6
Continuous
370
    -3
390
F
  0
LAYER
  5
67
330
2
100
AcDbSymbolTableRecord
100
AcDbLayerTableRecord
  2
轮廓实线层
 70
     0
 62
     7
  6
Continuous
370
    50
390
F
  0
LAYER
  5
68
330
2
100
AcDbSymbolTableRecord
100
AcDbLayerTableRecord
  2
细线层
 70
     0
 62
     4
  6
Continuous
370
    25
390
F
  0
LAYER
  5
69
330
2
100
AcDbSymbolTableRecord
100
AcDbLayerTableRecord
  2
中心线层
 70
     0
 62
     1
  6
CENTERX2
370
    25
390
F
  0
LAYER
  5
6A
330
2
100
AcDbSymbolTableRecord
100
AcDbLayerTableRecord
  2
虚线层
 70
     0
 62
     6
  6
HIDDEN
370
    25
390
F
  0
LAYER
  5
6B
330
2
100
AcDbSymbolTableRecord
100
AcDbLayerTableRecord
  2
剖面线层
 70
     0
 62
     2
  6
Continuous
370
    25
390
F
  0
LAYER
  5
6C
330
2
100
AcDbSymbolTableRecord
100
AcDbLayerTableRecord
  2
文字层
 70
     0
 62
     3
  6
Continuous
370
    25
390
F
  0
LAYER
  5
6D
330
2
100
AcDbSymbolTableRecord
100
AcDbLayerTableRecord
  2
标注层
 70
     0
 62
     4
  6
Continuous
370
    25
390
F
  0
LAYER
  5
6E
330
2
100
AcDbSymbolTableRecord
100
AcDbLayerTableRecord
  2
符号标注层
 70
     0
 62
    31
  6
Continuous
370
    25
390
F
  0
LAYER
  5
6F
330
2
100
AcDbSymbolTableRecord
100
AcDbLayerTableRecord
  2
双点划线层
 70
     0
 62
     6
  6
PHANTOM
370
    25
390
F
  0
ENDTAB
  0
TABLE
  2
STYLE
  5
3
330
0
100
AcDbSymbolTable
 70
     1
  0
STYLE
  5
11
330
3
100
AcDbSymbolTableRecord
100
AcDbTextStyleTableRecord
  2
Standard
 70
     0
 40
0.0
 41
1.0
 50
0.0
 71
     0
 42
3.5
  3
txt
  4

  0
ENDTAB
  0
TABLE
  2
VIEW
  5
6
330
0
100
AcDbSymbolTable
 70
     0
  0
ENDTAB
  0
TABLE
  2
UCS
  5
7
330
0
100
AcDbSymbolTable
 70
     0
  0
ENDTAB
  0
TABLE
  2
APPID
  5
9
330
0
100
AcDbSymbolTable
 70
     1
  0
APPID
  5
12
330
9
100
AcDbSymbolTableRecord
100
AcDbRegAppTableRecord
  2
ACAD
 70
     0
  0
ENDTAB
  0
TABLE
  2
DIMSTYLE
  5
A
330
0
100
AcDbSymbolTable
 70
     1
100
AcDbDimStyleTable
  0
DIMSTYLE
105
27
330
A
100
AcDbSymbolTableRecord
100
AcDbDimStyleTableRecord
  2
ISO-25
 70
     0
 41
2.5
 42
0.625
 43
3.75
 44
1.25
 73
     0
 74
     0
 77
     1
 78
     8
140
2.5
141
2.5
143
0.0393700787
147
0.625
171
     3
172
     1
178
     0
271
     2
272
     2
274
     3
278
    44
283
     0
284
     8
340
11
  0
ENDTAB
  0
TABLE
  2
BLOCK_RECORD
  5
1
330
0
100
AcDbSymbolTable
 70
     1
  0
BLOCK_RECORD
  5
1F
330
1
100
AcDbSymbolTableRecord
100
AcDbBlockTableRecord
  2
*Model_Space
340
22
  0
BLOCK_RECORD
  5
1B
330
1
100
AcDbSymbolTableRecord
100
AcDbBlockTableRecord
  2
*Paper_Space
340
1E
  0
BLOCK_RECORD
  5
23
330
1
100
AcDbSymbolTableRecord
100
AcDbBlockTableRecord
  2
*Paper_Space0
340
26
  0
ENDTAB
  0
ENDSEC
  0
SECTION
  2
BLOCKS
  0
BLOCK
  5
20
330
1F
100
AcDbEntity
  8
0
100
AcDbBlockBegin
  2
*Model_Space
 70
     0
 10
0.0
 20
0.0
 30
0.0
  3
*Model_Space
  1

  0
ENDBLK
  5
21
330
1F
100
AcDbEntity
  8
0
100
AcDbBlockEnd
  0
BLOCK
  5
1C
330
1B
100
AcDbEntity
 67
     1
  8
0
100
AcDbBlockBegin
  2
*Paper_Space
 70
     0
 10
0.0
 20
0.0
 30
0.0
  3
*Paper_Space
  1

  0
ENDBLK
  5
1D
330
1B
100
AcDbEntity
 67
     1
  8
0
100
AcDbBlockEnd
  0
BLOCK
  5
24
330
23
100
AcDbEntity
  8
0
100
AcDbBlockBegin
  2
*Paper_Space0
 70
     0
 10
0.0
 20
0.0
 30
0.0
  3
*Paper_Space0
  1

  0
ENDBLK
  5
25
330
23
100
AcDbEntity
  8
0
100
AcDbBlockEnd
  0
ENDSEC
  0
SECTION
  2
ENTITIES
  0
LINE
  5
70
330
1F
100
AcDbEntity
  8
0
  6
Continuous
 62
     7
370
    25
100
AcDbLine
 10
70.0728645688
 20
94.8688916071
 30
0.0
 11
70.0728645688
 21
39.5797108529
 31
0.0
  0
LINE
  5
71
330
1F
100
AcDbEntity
  8
0
  6
Continuous
 62
     7
370
    25
100
AcDbLine
 10
95.9270687693
 20
39.579623562
 30
0.0
 11
95.9270687693
 21
94.8689788979
 31
0.0
  0
SPLINE
  5
72
330
1F
100
AcDbEntity
  8
0
  6
Continuous
 62
     7
370
    25
100
AcDbSpline
210
0.0
220
0.0
230
1.0
 70
     8
 71
     3
 72
    18
 73
    14
 74
     0
 42
0.00000001
 43
0.00000001
 40
0.0
 40
0.0
 40
0.0
 40
0.0
 40
0.2499999999999998
 40
0.2499999999999998
 40
0.4999999999999997
 40
0.4999999999999997
 40
0.6249999999999996
 40
0.6249999999999996
 40
0.7499999999999997
 40
0.7499999999999997
 40
0.8749999999999999
 40
0.8749999999999999
 40
1.0
 40
1.0
 40
1.0
 40
1.0
 10
95.74061411793002
 20
97.05607530749688
 30
0.0
 10
95.94446544690607
 20
95.86887353044726
 30
0.0
 10
95.98820209217878
 20
94.59965956823291
 30
0.0
 10
95.68024125146964
 20
92.0440316380775
 30
0.0
 10
95.32737268827978
 20
90.75990399693497
 30
0.0
 10
94.51592250800246
 20
88.9585530202468
 30
0.0
 10
94.1993098957856
 20
88.37893110022316
 30
0.0
 10
93.48631668403029
 20
87.2805852560361
 30
0.0
 10
93.0900032931179
 20
86.76191699389365
 30
0.0
 10
92.23500707656024
 20
85.79988790448303
 30
0.0
 10
91.77640476326152
 20
85.35654686444373
 30
0.0
 10
90.81677565051731
 20
84.55342574085387
 30
0.0
 10
90.3158236010408
 20
84.1936305229734
 30
0.0
 10
89.80370461653264
 20
83.87663682958963
 30
0.0
  0
SPLINE
  5
73
330
1F
100
AcDbEntity
  8
0
  6
Continuous
 62
     7
370
    25
100
AcDbSpline
210
0.0
220
0.0
230
1.0
 70
     8
 71
     3
 72
    10
 73
     6
 74
     0
 42
0.00000001
 43
0.00000001
 40
0.0
 40
0.0
 40
0.0
 40
0.0
 40
0.5
 40
0.5
 40
1.0
 40
1.0
 40
1.0
 40
1.0
 10
89.80370461653264
 20
83.87663682958963
 30
0.0
 10
89.68032744663589
 20
83.80026827863193
 30
0.0
 10
89.54390043782382
 20
83.7396205230787
 30
0.0
 10
89.25934401215852
 20
83.65867828905566
 30
0.0
 10
89.11142173135197
 20
83.6384427305499
 30
0.0
 10
88.96632148453236
 20
83.63844273054991
 30
0.0
  0
SPLINE
  5
74
330
1F
100
AcDbEntity
  8
0
  6
Continuous
 62
     7
370
    25
100
AcDbSpline
210
0.0
220
0.0
230
1.0
 70
     8
 71
     3
 72
    14
 73
    10
 74
     0
 42
0.00000001
 43
0.00000001
 40
0.0
 40
0.0
 40
0.0
 40
0.0
 40
0.25
 40
0.25
 40
0.5
 40
0.5
 40
0.75
 40
0.75
 40
1.0
 40
1.0
 40
1.0
 40
1.0
 10
88.96632148453236
 20
83.63844273054991
 30
0.0
 10
88.77881704235429
 20
83.6384427305499
 30
0.0
 10
88.57652320179668
 20
83.6726160043501
 30
0.0
 10
88.18482182435858
 20
83.8276870077154
 30
0.0
 10
87.9966285973747
 20
83.94911026237129
 30
0.0
 10
87.68596106555327
 20
84.25977779419269
 30
0.0
 10
87.56453781089738
 20
84.44797102117657
 30
0.0
 10
87.40946680753206
 20
84.83967239861468
 30
0.0
 10
87.37529353373185
 20
85.0419662391723
 30
0.0
 10
87.37529353373185
 20
85.22947068135035
 30
0.0
  0
LINE
  5
75
330
1F
100
AcDbEntity
  8
0
  6
Continuous
 62
     7
370
    25
100
AcDbLine
 10
87.3752935337
 20
85.2294706814
 30
0.0
 11
87.3752935337
 21
86.8863183723
 31
0.0
  0
SPLINE
  5
76
330
1F
100
AcDbEntity
  8
0
  6
Continuous
 62
     7
370
    25
100
AcDbSpline
210
0.0
220
0.0
230
1.0
 70
     8
 71
     3
 72
     8
 73
     4
 74
     0
 42
0.00000001
 43
0.00000001
 40
0.0
 40
0.0
 40
0.0
 40
0.0
 40
1.0
 40
1.0
 40
1.0
 40
1.0
 10
87.37529353373185
 20
86.88631837231055
 30
0.0
 10
87.37529353373185
 20
87.07382281448862
 30
0.0
 10
87.40948399621742
 20
87.26418725306449
 30
0.0
 10
87.47473278065686
 20
87.43997266760645
 30
0.0
  0
SPLINE
  5
77
330
1F
100
AcDbEntity
  8
0
  6
Continuous
 62
     7
370
    25
100
AcDbSpline
210
0.0
220
0.0
230
1.0
 70
     8
 71
     3
 72
    38
 73
    34
 74
     0
 42
0.00000001
 43
0.00000001
 40
0.0
 40
0.0
 40
0.0
 40
0.0
 40
0.0625000000000002
 40
0.0625000000000002
 40
0.1250000000000001
 40
0.1250000000000001
 40
0.1875000000000001
 40
0.1875000000000001
 40
0.25
 40
0.25
 40
0.3124999999999999
 40
0.3124999999999999
 40
0.3749999999999998
 40
0.3749999999999998
 40
0.4374999999999998
 40
0.4374999999999998
 40
0.4999999999999998
 40
0.4999999999999998
 40
0.5624999999999998
 40
0.5624999999999998
 40
0.6249999999999998
 40
0.6249999999999998
 40
0.6874999999999998
 40
0.6874999999999998
 40
0.7499999999999998
 40
0.7499999999999998
 40
0.8124999999999998
 40
0.8124999999999998
 40
0.8749999999999998
 40
0.8749999999999998
 40
0.9375
 40
0.9375
 40
1.0
 40
1.0
 40
1.0
 40
1.0
 10
78.52520055740398
 20
87.43997266760644
 30
0.0
 10
78.41156709021733
 20
87.74611026552247
 30
0.0
 10
78.3232484365432
 20
88.08088622316501
 30
0.0
 10
78.22310880128553
 20
88.79463019319645
 30
0.0
 10
78.21159632285618
 20
89.17361143738711
 30
0.0
 10
78.28660870673919
 20
89.94830151665661
 30
0.0
 10
78.37343881564385
 20
90.34377324176202
 30
0.0
 10
78.65211723131394
 20
91.11230592328911
 30
0.0
 10
78.84403802707276
 20
91.48492691668957
 30
0.0
 10
79.31877280433734
 20
92.1675247707485
 30
0.0
 10
79.60131937520576
 20
92.47711713476598
 30
0.0
 10
80.22484277967128
 20
93.00581620419898
 30
0.0
 10
80.56538192283382
 20
93.22483776739395
 30
0.0
 10
81.26555066728932
 20
93.56474261575895
 30
0.0
 10
81.62485175666343
 20
93.68582955883053
 30
0.0
 10
82.32883384684882
 20
93.84032104080937
 30
0.0
 10
82.67341989791997
 20
93.87401940589575
 30
0.0
 10
83.32651344014087
 20
93.87401940589577
 30
0.0
 10
83.67109949121199
 20
93.84032104080937
 30
0.0
 10
84.37508158139737
 20
93.68582955883053
 30
0.0
 10
84.7343826707715
 20
93.56474261575896
 30
0.0
 10
85.43455141522698
 20
93.22483776739395
 30
0.0
 10
85.77509055838954
 20
93.00581620419901
 30
0.0
 10
86.39861396285507
 20
92.477117134766
 30
0.0
 10
86.68116053372349
 20
92.16752477074851
 30
0.0
 10
87.15589531098809
 20
91.4849269166896
 30
0.0
 10
87.3478161067469
 20
91.11230592328914
 30
0.0
 10
87.626494522417
 20
90.34377324176204
 30
0.0
 10
87.71332463132167
 20
89.94830151665664
 30
0.0
 10
87.78833701520466
 20
89.17361143738711
 30
0.0
 10
87.77682453677531
 20
88.79463019319651
 30
0.0
 10
87.67668490151766
 20
88.08088622316505
 30
0.0
 10
87.58836624784351
 20
87.7461102655225
 30
0.0
 10
87.47473278065686
 20
87.43997266760645
 30
0.0
  0
SPLINE
  5
78
330
1F
100
AcDbEntity
  8
0
  6
Continuous
 62
     7
370
    25
100
AcDbSpline
210
0.0
220
0.0
230
1.0
 70
     8
 71
     3
 72
     8
 73
     4
 74
     0
 42
0.00000001
 43
0.00000001
 40
0.0
 40
0.0
 40
0.0
 40
0.0
 40
1.0
 40
1.0
 40
1.0
 40
1.0
 10
78.52520055740398
 20
87.43997266760644
 30
0.0
 10
78.59044934184344
 20
87.26418725306449
 30
0.0
 10
78.62463980432902
 20
87.07382281448862
 30
0.0
 10
78.62463980432901
 20
86.88631837231055
 30
0.0
  0
LINE
  5
79
330
1F
100
AcDbEntity
  8
0
  6
Continuous
 62
     7
370
    25
100
AcDbLine
 10
78.6246398043
 20
85.2294706814
 30
0.0
 11
78.6246398043
 21
86.8863183723
 31
0.0
  0
SPLINE
  5
7A
330
1F
100
AcDbEntity
  8
0
  6
Continuous
 62
     7
370
    25
100
AcDbSpline
210
0.0
220
0.0
230
1.0
 70
     8
 71
     3
 72
    14
 73
    10
 74
     0
 42
0.00000001
 43
0.00000001
 40
0.0
 40
0.0
 40
0.0
 40
0.0
 40
0.25
 40
0.25
 40
0.5
 40
0.5
 40
0.75
 40
0.75
 40
1.0
 40
1.0
 40
1.0
 40
1.0
 10
78.62463980432901
 20
85.22947068135035
 30
0.0
 10
78.62463980432901
 20
85.0419662391723
 30
0.0
 10
78.59046653052879
 20
84.83967239861468
 30
0.0
 10
78.43539552716346
 20
84.44797102117657
 30
0.0
 10
78.31397227250757
 20
84.2597777941927
 30
0.0
 10
78.00330474068615
 20
83.94911026237128
 30
0.0
 10
77.81511151370228
 20
83.8276870077154
 30
0.0
 10
77.42341013626417
 20
83.6726160043501
 30
0.0
 10
77.22111629570655
 20
83.6384427305499
 30
0.0
 10
77.03361185352848
 20
83.63844273054991
 30
0.0
  0
SPLINE
  5
7B
330
1F
100
AcDbEntity
  8
0
  6
Continuous
 62
     7
370
    25
100
AcDbSpline
210
0.0
220
0.0
230
1.0
 70
     8
 71
     3
 72
    10
 73
     6
 74
     0
 42
0.00000001
 43
0.00000001
 40
0.0
 40
0.0
 40
0.0
 40
0.0
 40
0.5
 40
0.5
 40
1.0
 40
1.0
 40
1.0
 40
1.0
 10
77.03361185352848
 20
83.63844273054991
 30
0.0
 10
76.88851160670889
 20
83.63844273054988
 30
0.0
 10
76.74058932590233
 20
83.65867828905566
 30
0.0
 10
76.45603290023703
 20
83.7396205230787
 30
0.0
 10
76.31960589142497
 20
83.80026827863193
 30
0.0
 10
76.19622872152823
 20
83.87663682958963
 30
0.0
  0
SPLINE
  5
7C
330
1F
100
AcDbEntity
  8
0
  6
Continuous
 62
     7
370
    25
100
AcDbSpline
210
0.0
220
0.0
230
1.0
 70
     8
 71
     3
 72
    18
 73
    14
 74
     0
 42
0.00000001
 43
0.00000001
 40
0.0
 40
0.0
 40
0.0
 40
0.0
 40
0.1250000000000002
 40
0.1250000000000002
 40
0.2500000000000004
 40
0.2500000000000004
 40
0.3750000000000007
 40
0.3750000000000007
 40
0.5000000000000006
 40
0.5000000000000006
 40
0.7500000000000003
 40
0.7500000000000003
 40
1.0
 40
1.0
 40
1.0
 40
1.0
 10
76.19622872152823
 20
83.87663682958963
 30
0.0
 10
75.68410973702007
 20
84.19363052297341
 30
0.0
 10
75.18315768754356
 20
84.55342574085387
 30
0.0
 10
74.22352857479933
 20
85.35654686444373
 30
0.0
 10
73.76492626150063
 20
85.799887904483
 30
0.0
 10
72.90993004494295
 20
86.76191699389365
 30
0.0
 10
72.51361665403057
 20
87.2805852560361
 30
0.0
 10
71.80062344227525
 20
88.37893110022316
 30
0.0
 10
71.4840108300584
 20
88.95855302024681
 30
0.0
 10
70.67256064978109
 20
90.759903996935
 30
0.0
 10
70.3196920865912
 20
92.04403163807751
 30
0.0
 10
70.01173124588206
 20
94.59965956823291
 30
0.0
 10
70.05546789115478
 20
95.86887353044726
 30
0.0
 10
70.25931922013082
 20
97.05607530749688
 30
0.0
  0
LINE
  5
7D
330
1F
100
AcDbEntity
  8
0
  6
Continuous
 62
     7
370
    25
100
AcDbLine
 10
70.2593192201
 20
97.0560753075
 30
0.0
 11
82.999966669
 21
97.0560753075
 31
0.0
  0
LINE
  5
7E
330
1F
100
AcDbEntity
  8
0
  6
Continuous
 62
     7
370
    25
100
AcDbLine
 10
82.999966669
 20
97.0560753075
 30
0.0
 11
95.7406141179
 21
97.0560753075
 31
0.0
  0
LINE
  5
7F
330
1F
100
AcDbEntity
  8
0
  6
Continuous
 62
     7
370
    25
100
AcDbLine
 10
82.999966669
 20
37.3925271525
 30
0.0
 11
95.7406141179
 21
37.3925271525
 31
0.0
  0
LINE
  5
80
330
1F
100
AcDbEntity
  8
0
  6
Continuous
 62
     7
370
    25
100
AcDbLine
 10
70.2593192201
 20
37.3925271525
 30
0.0
 11
82.999966669
 21
37.3925271525
 31
0.0
  0
SPLINE
  5
81
330
1F
100
AcDbEntity
  8
0
  6
Continuous
 62
     7
370
    25
100
AcDbSpline
210
0.0
220
0.0
230
1.0
 70
     8
 71
     3
 72
    18
 73
    14
 74
     0
 42
0.00000001
 43
0.00000001
 40
0.0
 40
0.0
 40
0.0
 40
0.0
 40
0.125
 40
0.125
 40
0.2500000000000001
 40
0.2500000000000001
 40
0.3750000000000001
 40
0.3750000000000001
 40
0.5000000000000002
 40
0.5000000000000002
 40
0.75
 40
0.75
 40
1.0
 40
1.0
 40
1.0
 40
1.0
 10
76.19622872152823
 20
50.57196563038454
 30
0.0
 10
75.68410973702007
 20
50.25497193700077
 30
0.0
 10
75.18315768754356
 20
49.8951767191203
 30
0.0
 10
74.22352857479935
 20
49.09205559553045
 30
0.0
 10
73.76492626150063
 20
48.64871455549115
 30
0.0
 10
72.90993004494298
 20
47.68668546608054
 30
0.0
 10
72.5136166540306
 20
47.16801720393808
 30
0.0
 10
71.80062344227528
 20
46.06967135975105
 30
0.0
 10
71.48401083005842
 20
45.4900494397274
 30
0.0
 10
70.67256064978112
 20
43.68869846303924
 30
0.0
 10
70.31969208659123
 20
42.40457082189673
 30
0.0
 10
70.01173124588207
 20
39.84894289174134
 30
0.0
 10
70.05546789115479
 20
38.57972892952699
 30
0.0
 10
70.25931922013082
 20
37.3925271524774
 30
0.0
  0
SPLINE
  5
82
330
1F
100
AcDbEntity
  8
0
  6
Continuous
 62
     7
370
    25
100
AcDbSpline
210
0.0
220
0.0
230
1.0
 70
     8
 71
     3
 72
    10
 73
     6
 74
     0
 42
0.00000001
 43
0.00000001
 40
0.0
 40
0.0
 40
0.0
 40
0.0
 40
0.5
 40
0.5
 40
1.0
 40
1.0
 40
1.0
 40
1.0
 10
77.03361185352848
 20
50.81015972942431
 30
0.0
 10
76.88851160670889
 20
50.81015972942429
 30
0.0
 10
76.74058932590233
 20
50.78992417091851
 30
0.0
 10
76.45603290023703
 20
50.70898193689546
 30
0.0
 10
76.31960589142497
 20
50.64833418134221
 30
0.0
 10
76.19622872152823
 20
50.57196563038454
 30
0.0
  0
SPLINE
  5
83
330
1F
100
AcDbEntity
  8
0
  6
Continuous
 62
     7
370
    25
100
AcDbSpline
210
0.0
220
0.0
230
1.0
 70
     8
 71
     3
 72
    14
 73
    10
 74
     0
 42
0.00000001
 43
0.00000001
 40
0.0
 40
0.0
 40
0.0
 40
0.0
 40
0.25
 40
0.25
 40
0.5
 40
0.5
 40
0.75
 40
0.75
 40
1.0
 40
1.0
 40
1.0
 40
1.0
 10
78.62463980432901
 20
49.21913177862379
 30
0.0
 10
78.62463980432901
 20
49.40663622080184
 30
0.0
 10
78.59046653052879
 20
49.60893006135945
 30
0.0
 10
78.4353955271635
 20
50.00063143879757
 30
0.0
 10
78.31397227250758
 20
50.18882466578145
 30
0.0
 10
78.00330474068616
 20
50.49949219760287
 30
0.0
 10
77.81511151370229
 20
50.62091545225877
 30
0.0
 10
77.42341013626417
 20
50.77598645562409
 30
0.0
 10
77.22111629570655
 20
50.8101597294243
 30
0.0
 10
77.03361185352848
 20
50.81015972942431
 30
0.0
  0
LINE
  5
84
330
1F
100
AcDbEntity
  8
0
  6
Continuous
 62
     7
370
    25
100
AcDbLine
 10
78.6246398043
 20
49.2191317786
 30
0.0
 11
78.6246398043
 21
47.5622840877
 31
0.0
  0
SPLINE
  5
85
330
1F
100
AcDbEntity
  8
0
  6
Continuous
 62
     7
370
    25
100
AcDbSpline
210
0.0
220
0.0
230
1.0
 70
     8
 71
     3
 72
     8
 73
     4
 74
     0
 42
0.00000001
 43
0.00000001
 40
0.0
 40
0.0
 40
0.0
 40
0.0
 40
1.0
 40
1.0
 40
1.0
 40
1.0
 10
78.52520055740398
 20
47.00862979236771
 30
0.0
 10
78.59044934184344
 20
47.18441520690962
 30
0.0
 10
78.62463980432902
 20
47.37477964548549
 30
0.0
 10
78.62463980432901
 20
47.56228408766361
 30
0.0
  0
SPLINE
  5
86
330
1F
100
AcDbEntity
  8
0
  6
Continuous
 62
     7
370
    25
100
AcDbSpline
210
0.0
220
0.0
230
1.0
 70
     8
 71
     3
 72
    38
 73
    34
 74
     0
 42
0.00000001
 43
0.00000001
 40
0.0
 40
0.0
 40
0.0
 40
0.0
 40
0.0625000000000001
 40
0.0625000000000001
 40
0.1250000000000003
 40
0.1250000000000003
 40
0.1875000000000004
 40
0.1875000000000004
 40
0.2500000000000006
 40
0.2500000000000006
 40
0.3125000000000005
 40
0.3125000000000005
 40
0.3750000000000005
 40
0.3750000000000005
 40
0.4375000000000004
 40
0.4375000000000004
 40
0.5000000000000004
 40
0.5000000000000004
 40
0.5625000000000004
 40
0.5625000000000004
 40
0.6250000000000004
 40
0.6250000000000004
 40
0.6875000000000004
 40
0.6875000000000004
 40
0.7500000000000003
 40
0.7500000000000003
 40
0.8125000000000002
 40
0.8125000000000002
 40
0.8750000000000001
 40
0.8750000000000001
 40
0.9375000000000001
 40
0.9375000000000001
 40
1.0
 40
1.0
 40
1.0
 40
1.0
 10
78.52520055740398
 20
47.00862979236771
 30
0.0
 10
78.41156709021733
 20
46.70249219445166
 30
0.0
 10
78.32324843654318
 20
46.36771623680913
 30
0.0
 10
78.22310880128553
 20
45.65397226677768
 30
0.0
 10
78.21159632285618
 20
45.27499102258706
 30
0.0
 10
78.28660870673919
 20
44.50030094331755
 30
0.0
 10
78.37343881564385
 20
44.10482921821214
 30
0.0
 10
78.65211723131394
 20
43.33629653668505
 30
0.0
 10
78.84403802707277
 20
42.96367554328459
 30
0.0
 10
79.31877280433736
 20
42.28107768922568
 30
0.0
 10
79.60131937520578
 20
41.97148532520819
 30
0.0
 10
80.22484277967129
 20
41.44278625577519
 30
0.0
 10
80.56538192283385
 20
41.22376469258025
 30
0.0
 10
81.26555066728933
 20
40.88385984421524
 30
0.0
 10
81.62485175666346
 20
40.76277290114366
 30
0.0
 10
82.32883384684885
 20
40.60828141916483
 30
0.0
 10
82.67341989791997
 20
40.57458305407842
 30
0.0
 10
83.32651344014087
 20
40.57458305407842
 30
0.0
 10
83.671099491212
 20
40.60828141916483
 30
0.0
 10
84.37508158139738
 20
40.76277290114366
 30
0.0
 10
84.73438267077152
 20
40.88385984421524
 30
0.0
 10
85.434551415227
 20
41.22376469258025
 30
0.0
 10
85.77509055838955
 20
41.44278625577518
 30
0.0
 10
86.39861396285507
 20
41.97148532520819
 30
0.0
 10
86.6811605337235
 20
42.28107768922569
 30
0.0
 10
87.1558953109881
 20
42.96367554328459
 30
0.0
 10
87.34781610674692
 20
43.33629653668505
 30
0.0
 10
87.626494522417
 20
44.10482921821213
 30
0.0
 10
87.71332463132167
 20
44.50030094331754
 30
0.0
 10
87.78833701520466
 20
45.27499102258705
 30
0.0
 10
87.77682453677532
 20
45.65397226677767
 30
0.0
 10
87.67668490151766
 20
46.36771623680913
 30
0.0
 10
87.58836624784351
 20
46.70249219445167
 30
0.0
 10
87.47473278065686
 20
47.00862979236771
 30
0.0
  0
SPLINE
  5
87
330
1F
100
AcDbEntity
  8
0
  6
Continuous
 62
     7
370
    25
100
AcDbSpline
210
0.0
220
0.0
230
1.0
 70
     8
 71
     3
 72
     8
 73
     4
 74
     0
 42
0.00000001
 43
0.00000001
 40
0.0
 40
0.0
 40
0.0
 40
0.0
 40
1.0
 40
1.0
 40
1.0
 40
1.0
 10
87.37529353373185
 20
47.56228408766361
 30
0.0
 10
87.37529353373185
 20
47.37477964548549
 30
0.0
 10
87.40948399621742
 20
47.18441520690962
 30
0.0
 10
87.47473278065686
 20
47.00862979236771
 30
0.0
  0
LINE
  5
88
330
1F
100
AcDbEntity
  8
0
  6
Continuous
 62
     7
370
    25
100
AcDbLine
 10
87.3752935337
 20
49.2191317786
 30
0.0
 11
87.3752935337
 21
47.5622840877
 31
0.0
  0
SPLINE
  5
89
330
1F
100
AcDbEntity
  8
0
  6
Continuous
 62
     7
370
    25
100
AcDbSpline
210
0.0
220
0.0
230
1.0
 70
     8
 71
     3
 72
    14
 73
    10
 74
     0
 42
0.00000001
 43
0.00000001
 40
0.0
 40
0.0
 40
0.0
 40
0.0
 40
0.25
 40
0.25
 40
0.5
 40
0.5
 40
0.75
 40
0.75
 40
1.0
 40
1.0
 40
1.0
 40
1.0
 10
88.96632148453236
 20
50.81015972942431
 30
0.0
 10
88.77881704235429
 20
50.8101597294243
 30
0.0
 10
88.57652320179668
 20
50.77598645562409
 30
0.0
 10
88.18482182435856
 20
50.62091545225877
 30
0.0
 10
87.99662859737468
 20
50.49949219760286
 30
0.0
 10
87.68596106555326
 20
50.18882466578145
 30
0.0
 10
87.56453781089736
 20
50.00063143879757
 30
0.0
 10
87.40946680753206
 20
49.60893006135945
 30
0.0
 10
87.37529353373185
 20
49.40663622080184
 30
0.0
 10
87.37529353373185
 20
49.21913177862379
 30
0.0
  0
SPLINE
  5
8A
330
1F
100
AcDbEntity
  8
0
  6
Continuous
 62
     7
370
    25
100
AcDbSpline
210
0.0
220
0.0
230
1.0
 70
     8
 71
     3
 72
    10
 73
     6
 74
     0
 42
0.00000001
 43
0.00000001
 40
0.0
 40
0.0
 40
0.0
 40
0.0
 40
0.5
 40
0.5
 40
1.0
 40
1.0
 40
1.0
 40
1.0
 10
89.80370461653264
 20
50.57196563038454
 30
0.0
 10
89.68032744663589
 20
50.64833418134221
 30
0.0
 10
89.54390043782382
 20
50.70898193689546
 30
0.0
 10
89.25934401215852
 20
50.78992417091851
 30
0.0
 10
89.11142173135197
 20
50.81015972942428
 30
0.0
 10
88.96632148453236
 20
50.81015972942431
 30
0.0
  0
SPLINE
  5
8B
330
1F
100
AcDbEntity
  8
0
  6
Continuous
 62
     7
370
    25
100
AcDbSpline
210
0.0
220
0.0
230
1.0
 70
     8
 71
     3
 72
    18
 73
    14
 74
     0
 42
0.00000001
 43
0.00000001
 40
0.0
 40
0.0
 40
0.0
 40
0.0
 40
0.2500000000000001
 40
0.2500000000000001
 40
0.5
 40
0.5
 40
0.625
 40
0.625
 40
0.7500000000000001
 40
0.7500000000000001
 40
0.8750000000000001
 40
0.8750000000000001
 40
1.0
 40
1.0
 40
1.0
 40
1.0
 10
95.74061411793002
 20
37.3925271524774
 30
0.0
 10
95.94446544690608
 20
38.57972892952698
 30
0.0
 10
95.98820209217878
 20
39.84894289174132
 30
0.0
 10
95.68024125146962
 20
42.40457082189671
 30
0.0
 10
95.32737268827977
 20
43.6886984630392
 30
0.0
 10
94.51592250800245
 20
45.49004943972735
 30
0.0
 10
94.19930989578558
 20
46.069671359751
 30
0.0
 10
93.48631668403027
 20
47.16801720393805
 30
0.0
 10
93.09000329311789
 20
47.6866854660805
 30
0.0
 10
92.23500707656022
 20
48.64871455549113
 30
0.0
 10
91.77640476326151
 20
49.09205559553043
 30
0.0
 10
90.81677565051731
 20
49.89517671912029
 30
0.0
 10
90.31582360104079
 20
50.25497193700076
 30
0.0
 10
89.80370461653264
 20
50.57196563038454
 30
0.0
  0
LINE
  5
8C
330
1F
100
AcDbEntity
  8
0
  6
Continuous
 62
     7
370
    25
100
AcDbLine
 10
78.6246398043
 20
85.2294706814
 30
0.0
 11
78.6246398043
 21
49.2191317786
 31
0.0
  0
LINE
  5
8D
330
1F
100
AcDbEntity
  8
0
  6
Continuous
 62
     7
370
    25
100
AcDbLine
 10
87.3752935337
 20
49.2191317786
 30
0.0
 11
87.3752935337
 21
85.2294706814
 31
0.0
  0
SPLINE
  5
8E
330
1F
100
AcDbEntity
  8
0
  6
Continuous
 62
     7
370
    25
100
AcDbSpline
210
0.0
220
0.0
230
1.0
 70
     8
 71
     3
 72
    29
 73
    25
 74
     0
 42
0.00000001
 43
0.00000001
 40
0.0
 40
0.0
 40
0.0
 40
0.0
 40
0.1249999999999996
 40
0.1249999999999996
 40
0.1874999999999994
 40
0.1874999999999994
 40
0.2499999999999992
 40
0.2499999999999992
 40
0.3749999999999983
 40
0.3749999999999983
 40
0.4374999999999981
 40
0.4374999999999981
 40
0.4999999999999979
 40
0.4999999999999979
 40
0.6249999999999984
 40
0.6249999999999984
 40
0.687499999999999
 40
0.687499999999999
 40
0.7499999999999994
 40
0.8124999999999999
 40
0.8124999999999999
 40
0.8750000000000003
 40
0.8750000000000003
 40
1.0
 40
1.0
 40
1.0
 40
1.0
 10
96.26977557720281
 20
7.560753074967709
 30
0.0
 10
96.92561449786297
 20
7.560753074967709
 30
0.0
 10
97.57038858428902
 20
7.625070247009994
 30
0.0
 10
98.52162979476464
 20
7.814150710722299
 30
0.0
 10
98.83603743803079
 20
7.892725952548759
 30
0.0
 10
99.45938837812656
 20
8.081691742239654
 30
0.0
 10
99.76918640492082
 20
8.192618897971474
 30
0.0
 10
100.6702898649341
 20
8.566407084782956
 30
0.0
 10
101.2400334301363
 20
8.871426708291775
 30
0.0
 10
102.0486265440141
 20
9.411963525257798
 30
0.0
 10
102.3112871576274
 20
9.60678544329259
 30
0.0
 10
102.8167521580985
 20
10.022238514831
 30
0.0
 10
103.0572767377022
 20
10.24084443885342
 30
0.0
 10
103.7433914717925
 20
10.92828022298641
 30
0.0
 10
104.1538576247758
 20
11.42842923800793
 30
0.0
 10
104.6975539147243
 20
12.24292754133432
 30
0.0
 10
104.8663849047478
 20
12.52516392799857
 30
0.0
 10
105.1723914585544
 20
13.09881506224719
 30
0.0
 10
105.4488690844047
 20
13.68465186198159
 30
0.0
 10
105.6672095984048
 20
14.29448926991949
 30
0.0
 10
105.8560979470752
 20
14.91648918177869
 30
0.0
 10
105.9360724159742
 20
15.23497891573455
 30
0.0
 10
106.1278926299121
 20
16.19852980112106
 30
0.0
 10
106.1920596797052
 20
16.84801751171707
 30
0.0
 10
106.1920596797052
 20
17.50467776747094
 30
0.0
  0
SPLINE
  5
8F
330
1F
100
AcDbEntity
  8
0
  6
Continuous
 62
     7
370
    25
100
AcDbSpline
210
0.0
220
0.0
230
1.0
 70
     8
 71
     3
 72
    29
 73
    25
 74
     0
 42
0.00000001
 43
0.00000001
 40
0.0
 40
0.0
 40
0.0
 40
0.0
 40
0.1250000000000006
 40
0.1250000000000006
 40
0.1875000000000004
 40
0.1875000000000004
 40
0.2500000000000001
 40
0.2500000000000001
 40
0.3749999999999998
 40
0.3749999999999998
 40
0.4375000000000002
 40
0.4375000000000002
 40
0.5000000000000006
 40
0.5000000000000006
 40
0.6250000000000004
 40
0.6250000000000004
 40
0.6875000000000004
 40
0.6875000000000004
 40
0.7500000000000003
 40
0.8125000000000003
 40
0.8125000000000003
 40
0.8750000000000003
 40
0.8750000000000003
 40
1.0
 40
1.0
 40
1.0
 40
1.0
 10
59.8078736583556
 20
17.50467776747094
 30
0.0
 10
59.8078736583556
 20
16.84801670344132
 30
0.0
 10
59.87203319465439
 20
16.20232411604115
 30
0.0
 10
60.06059287014022
 20
15.2495650311598
 30
0.0
 10
60.138947475445
 20
14.93462817702328
 30
0.0
 10
60.32737277581982
 20
14.3101741821066
 30
0.0
 10
60.43797858213252
 20
13.99979967892697
 30
0.0
 10
60.81068044690959
 20
13.09693297552188
 30
0.0
 10
61.1148068002083
 20
12.52596199809147
 30
0.0
 10
61.65379910355982
 20
11.71549568015098
 30
0.0
 10
61.8480690866909
 20
11.45220463229465
 30
0.0
 10
62.26237345230745
 20
10.94548121163307
 30
0.0
 10
62.48038616705195
 20
10.70433740253067
 30
0.0
 10
63.16600494358546
 20
10.01641196000597
 30
0.0
 10
63.66489321198389
 20
9.604800965483316
 30
0.0
 10
64.47749286876059
 20
9.059553434111079
 30
0.0
 10
64.75910915657964
 20
8.890225741482682
 30
0.0
 10
65.33154532168388
 20
8.583321387122812
 30
0.0
 10
65.91618826952688
 20
8.306032027410586
 30
0.0
 10
66.52488540644335
 20
8.087059500223189
 30
0.0
 10
67.14577587335339
 20
7.897631172219407
 30
0.0
 10
67.4637213140633
 20
7.817432445506429
 30
0.0
 10
68.42574621211239
 20
7.625078271561031
 30
0.0
 10
69.07431522474184
 20
7.560753074967702
 30
0.0
 10
69.73015776085803
 20
7.560753074967709
 30
0.0
  0
LWPOLYLINE
  5
90
330
1F
100
AcDbEntity
  8
0
  6
Continuous
 62
     7
370
    25
100
AcDbPolyline
 90
       16
 70
   128
 43
0.0
 10
59.8078736584
 20
97.0560753075
 10
59.8126213681
 20
98.0954984745
 10
59.8268124803
 20
99.1235335037
 10
59.8502915143
 20
100.1289170283
 10
59.8828012289
 20
101.1006338559
 10
59.9239854407
 20
102.0280376537
 10
59.973392927
 20
102.9009675917
 10
60.030482369
 20
103.7098596666
 10
60.0946282829
 20
104.4458514877
 10
60.1651278725
 20
105.1008793745
 10
60.2412087296
 20
105.6677667045
 10
60.3220372964
 20
106.1403025415
 10
60.4067279982
 20
106.5133096839
 10
60.4943529461
 20
106.7827013873
 10
60.5839521026
 20
106.9455261401
 10
60.6745438008
 20
107.0
  0
LINE
  5
91
330
1F
100
AcDbEntity
  8
0
  6
Continuous
 62
     7
370
    25
100
AcDbLine
 10
60.6745438008
 20
107.0
 30
0.0
 11
105.3253895373
 21
107.0
 31
0.0
  0
LWPOLYLINE
  5
92
330
1F
100
AcDbEntity
  8
0
  6
Continuous
 62
     7
370
    25
100
AcDbPolyline
 90
       16
 70
   128
 43
0.0
 10
105.3253895373
 20
107.0
 10
105.4159812354
 20
106.9455261401
 10
105.505580392
 20
106.7827013873
 10
105.5932053398
 20
106.5133096839
 10
105.6778960417
 20
106.1403025415
 10
105.7587246085
 20
105.6677667045
 10
105.8348054656
 20
105.1008793745
 10
105.9053050552
 20
104.4458514877
 10
105.969450969
 20
103.7098596666
 10
106.026540411
 20
102.9009675917
 10
106.0759478973
 20
102.0280376537
 10
106.1171321092
 20
101.1006338559
 10
106.1496418237
 20
100.1289170283
 10
106.1731208577
 20
99.1235335037
 10
106.18731197
 20
98.0954984745
 10
106.1920596797
 20
97.0560753075
  0
LINE
  5
93
330
1F
100
AcDbEntity
  8
0
  6
Continuous
 62
     7
370
    25
100
AcDbLine
 10
106.1920596797
 20
97.0560753075
 30
0.0
 11
106.1920596797
 21
17.5046777675
 31
0.0
  0
LINE
  5
94
330
1F
100
AcDbEntity
  8
0
  6
Continuous
 62
     7
370
    25
100
AcDbLine
 10
96.2697755772
 20
7.560753075
 30
0.0
 11
69.7301577609
 21
7.560753075
 31
0.0
  0
LINE
  5
95
330
1F
100
AcDbEntity
  8
0
  6
Continuous
 62
     7
370
    25
100
AcDbLine
 10
59.8078736584
 20
97.0560753075
 30
0.0
 11
59.8078736584
 21
17.5046777675
 31
0.0
  0
LINE
  5
96
330
1F
100
AcDbEntity
  8
0
  6
HIDDEN
 62
     7
370
    18
100
AcDbLine
 10
70.3149771863
 20
37.3925271525
 30
0.0
 11
70.3149771863
 21
97.0560753075
 31
0.0
  0
LINE
  5
97
330
1F
100
AcDbEntity
  8
0
  6
HIDDEN
 62
     7
370
    18
100
AcDbLine
 10
95.6849561517
 20
37.3925271525
 30
0.0
 11
95.6849561517
 21
97.0560753075
 31
0.0
  0
SPLINE
  5
98
330
1F
100
AcDbEntity
  8
0
  6
HIDDEN
 62
     7
370
    18
100
AcDbSpline
210
0.0
220
0.0
230
1.0
 70
     8
 71
     3
 72
    29
 73
    25
 74
     0
 42
0.00000001
 43
0.00000001
 40
0.0
 40
0.0
 40
0.0
 40
0.0
 40
0.1249999999999994
 40
0.1249999999999994
 40
0.1874999999999998
 40
0.1874999999999998
 40
0.2500000000000002
 40
0.2500000000000002
 40
0.3749999999999997
 40
0.3749999999999997
 40
0.4374999999999996
 40
0.4374999999999996
 40
0.4999999999999993
 40
0.4999999999999993
 40
0.6249999999999993
 40
0.6249999999999993
 40
0.6874999999999993
 40
0.6874999999999993
 40
0.7499999999999993
 40
0.8124999999999994
 40
0.8124999999999994
 40
0.8749999999999994
 40
0.8749999999999994
 40
1.0
 40
1.0
 40
1.0
 40
1.0
 10
105.3253895373033
 20
17.50467776747094
 30
0.0
 10
105.3253895373033
 20
16.84800939559183
 30
0.0
 10
105.2612286612676
 20
16.20230973072368
 30
0.0
 10
105.0726643444429
 20
15.24954036818982
 30
0.0
 10
104.9943077351252
 20
14.93460014545843
 30
0.0
 10
104.8058771756207
 20
14.310139537647
 30
0.0
 10
104.6952681837542
 20
13.99976207050097
 30
0.0
 10
104.3225548571691
 20
13.09688751019147
 30
0.0
 10
104.0184180817827
 20
12.52591198678677
 30
0.0
 10
103.4794030032272
 20
11.71544012025651
 30
0.0
 10
103.2851237884182
 20
11.45214696064029
 30
0.0
 10
102.8708000417089
 20
10.94542225740738
 30
0.0
 10
102.6527764626015
 20
10.70427817707819
 30
0.0
 10
101.9671210146281
 20
10.01635305619569
 30
0.0
 10
101.4682028894879
 20
9.604743795829242
 30
0.0
 10
100.6555476963135
 20
9.059501181803695
 30
0.0
 10
100.3739124681105
 20
8.890176395425144
 30
0.0
 10
99.80143625574848
 20
8.583278394454837
 30
0.0
 10
99.21675081622095
 20
8.30599600138173
 30
0.0
 10
98.60800619611892
 20
8.08703108159195
 30
0.0
 10
97.9870657069372
 20
7.897610292356923
 30
0.0
 10
97.66909315561865
 20
7.817415237772053
 30
0.0
 10
96.70699370006328
 20
7.625072634507547
 30
0.0
 10
96.05837268616173
 20
7.560753074967709
 30
0.0
 10
95.40247612437346
 20
7.560753074967709
 30
0.0
  0
SPLINE
  5
99
330
1F
100
AcDbEntity
  8
0
  6
HIDDEN
 62
     7
370
    18
100
AcDbSpline
210
0.0
220
0.0
230
1.0
 70
     8
 71
     3
 72
    29
 73
    25
 74
     0
 42
0.00000001
 43
0.00000001
 40
0.0
 40
0.0
 40
0.0
 40
0.0
 40
0.1250000000000002
 40
0.1250000000000002
 40
0.1875000000000002
 40
0.1875000000000002
 40
0.2500000000000002
 40
0.2500000000000002
 40
0.3749999999999991
 40
0.3749999999999991
 40
0.4374999999999982
 40
0.4374999999999982
 40
0.4999999999999972
 40
0.4999999999999972
 40
0.6249999999999968
 40
0.6249999999999968
 40
0.6874999999999971
 40
0.6874999999999971
 40
0.7499999999999974
 40
0.8124999999999979
 40
0.8124999999999979
 40
0.8749999999999982
 40
0.8749999999999982
 40
1.0
 40
1.0
 40
1.0
 40
1.0
 10
70.59745721368735
 20
7.560753074967709
 30
0.0
 10
69.94156455299455
 20
7.560753074967709
 30
0.0
 10
69.29673790506982
 20
7.625064590878548
 30
0.0
 10
68.34542037855734
 20
7.814134395694096
 30
0.0
 10
68.03098771270479
 20
7.892705692215153
 30
0.0
 10
67.40758764620725
 20
8.081663634533747
 30
0.0
 10
67.09776579571968
 20
8.192586782609819
 30
0.0
 10
66.19659531823488
 20
8.566363512834359
 30
0.0
 10
65.62681152504288
 20
8.871376577915848
 30
0.0
 10
64.81816439262813
 20
9.411907510101992
 30
0.0
 10
64.55548619961387
 20
9.606728602645525
 30
0.0
 10
64.04999124453462
 20
10.02217919512275
 30
0.0
 10
63.80945309160141
 20
10.24078444866057
 30
0.0
 10
63.12330126457669
 20
10.92822007342774
 30
0.0
 10
62.71281518623501
 20
11.42837143062023
 30
0.0
 10
62.16909444188654
 20
12.24287768976044
 30
0.0
 10
62.00025776162884
 20
12.52511500723007
 30
0.0
 10
61.69424091952693
 20
13.09876936929142
 30
0.0
 10
61.41775418037992
 20
13.68461054955417
 30
0.0
 10
61.19940706537174
 20
14.29445500622789
 30
0.0
 10
61.01051298530927
 20
14.9164633097939
 30
0.0
 10
60.93053605100776
 20
15.23495888414159
 30
0.0
 10
60.73871217508067
 20
16.19851667499691
 30
0.0
 10
60.6745438007575
 20
16.84801026746395
 30
0.0
 10
60.6745438007575
 20
17.50467776747092
 30
0.0
  0
ARC
  5
9A
330
1F
100
AcDbEntity
  8
0
  6
HIDDEN
 62
     7
370
    18
100
AcDbCircle
 10
161.4504028517
 20
61.4412967487
 30
0.0
 40
100.7759479895347
100
AcDbArc
 50
177.2482730651
 51
180.0761209662
  0
ARC
  5
9B
330
1F
100
AcDbEntity
  8
0
  6
HIDDEN
 62
     7
370
    18
100
AcDbCircle
 10
4.5495304863
 20
61.4412967487
 30
0.0
 40
100.7759479896163
100
AcDbArc
 50
359.9238790338
 51
2.7517269349
  0
LINE
  5
9C
330
1F
100
AcDbEntity
  8
0
  6
HIDDEN
 62
     7
370
    18
100
AcDbLine
 10
60.6745438008
 20
17.5046777675
 30
0.0
 11
60.6745438008
 21
61.3074097444
 31
0.0
  0
LINE
  5
9D
330
1F
100
AcDbEntity
  8
0
  6
HIDDEN
 62
     7
370
    18
100
AcDbLine
 10
105.3253895373
 20
17.5046777675
 30
0.0
 11
105.3253895373
 21
61.3074097444
 31
0.0
  0
LINE
  5
9E
330
1F
100
AcDbEntity
  8
0
  6
HIDDEN
 62
     7
370
    18
100
AcDbLine
 10
60.7906555831
 20
66.2793720907
 30
0.0
 11
61.2985463033
 21
76.3727119471
 31
0.0
  0
LINE
  5
9F
330
1F
100
AcDbEntity
  8
0
  6
HIDDEN
 62
     7
370
    18
100
AcDbLine
 10
105.2092777549
 20
66.2793720907
 30
0.0
 11
104.7013870348
 21
76.3727119471
 31
0.0
  0
LINE
  5
A0
330
1F
100
AcDbEntity
  8
0
  6
HIDDEN
 62
     7
370
    18
100
AcDbLine
 10
61.2985463033
 20
81.9413097749
 30
0.0
 11
60.9518782463
 21
85.9188796519
 31
0.0
  0
LINE
  5
A1
330
1F
100
AcDbEntity
  8
0
  6
HIDDEN
 62
     7
370
    18
100
AcDbLine
 10
104.7013870348
 20
81.9413097749
 30
0.0
 11
105.0480550917
 21
85.9188796519
 31
0.0
  0
LINE
  5
A2
330
1F
100
AcDbEntity
  8
0
  6
HIDDEN
 62
     7
370
    18
100
AcDbLine
 10
104.7707206462
 20
97.0560753075
 30
0.0
 11
95.7406141179
 21
97.0560753075
 31
0.0
  0
LINE
  5
A3
330
1F
100
AcDbEntity
  8
0
  6
HIDDEN
 62
     7
370
    18
100
AcDbLine
 10
70.2593192201
 20
97.0560753075
 30
0.0
 11
61.2292126919
 21
97.0560753075
 31
0.0
  0
ARC
  5
A4
330
1F
100
AcDbEntity
  8
0
  6
HIDDEN
 62
     7
370
    18
100
AcDbCircle
 10
70.6595385877
 20
94.6310546541
 30
0.0
 40
9.737133647588637
100
AcDbArc
 50
165.5787726235
 51
184.4590885891
  0
ARC
  5
A5
330
1F
100
AcDbEntity
  8
0
  6
HIDDEN
 62
     7
370
    18
100
AcDbCircle
 10
96.0847152915
 20
94.6959264637
 30
0.0
 40
9.000943927555149
100
AcDbArc
 50
354.7608277807
 51
15.2013110067
  0
LINE
  5
A6
330
1F
100
AcDbEntity
  8
0
  6
HIDDEN
 62
     7
370
    18
100
AcDbLine
 10
105.0480550917
 20
85.9188796519
 30
0.0
 11
60.9518782463
 21
85.9188796519
 31
0.0
  0
LINE
  5
A7
330
1F
100
AcDbEntity
  8
0
  6
HIDDEN
 62
     7
370
    18
100
AcDbLine
 10
60.9518782463
 20
85.9188796519
 30
0.0
 11
60.9518782463
 21
93.8740194059
 31
0.0
  0
LINE
  5
A8
330
1F
100
AcDbEntity
  8
0
  6
HIDDEN
 62
     7
370
    18
100
AcDbLine
 10
105.0480550917
 20
85.9188796519
 30
0.0
 11
105.0480550917
 21
93.8740194059
 31
0.0
  0
LINE
  5
A9
330
1F
100
AcDbEntity
  8
0
  6
HIDDEN
 62
     7
370
    18
100
AcDbLine
 10
104.7013870348
 20
81.9413097749
 30
0.0
 11
61.2985463033
 21
81.9413097749
 31
0.0
  0
LINE
  5
AA
330
1F
100
AcDbEntity
  8
0
  6
HIDDEN
 62
     7
370
    18
100
AcDbLine
 10
104.7013870348
 20
76.3727119471
 30
0.0
 11
61.2985463033
 21
76.3727119471
 31
0.0
  0
LINE
  5
AB
330
1F
100
AcDbEntity
  8
0
  6
HIDDEN
 62
     7
370
    18
100
AcDbLine
 10
61.2985463033
 20
76.3727119471
 30
0.0
 11
61.2985463033
 21
81.9413097749
 31
0.0
  0
LINE
  5
AC
330
1F
100
AcDbEntity
  8
0
  6
HIDDEN
 62
     7
370
    18
100
AcDbLine
 10
104.7013870348
 20
76.3727119471
 30
0.0
 11
104.7013870348
 21
81.9413097749
 31
0.0
  0
ARC
  5
AD
330
1F
100
AcDbEntity
  8
0
  6
HIDDEN
 62
     7
370
    18
100
AcDbCircle
 10
52.68187456
 20
94.6959264637
 30
0.0
 40
9.000943927556396
100
AcDbArc
 50
354.7608277807
 51
15.2013110067
  0
ARC
  5
AE
330
1F
100
AcDbEntity
  8
0
  6
HIDDEN
 62
     7
370
    18
100
AcDbCircle
 10
114.0623793192
 20
94.6310546541
 30
0.0
 40
9.737133647589788
100
AcDbArc
 50
165.5787726235
 51
184.4590885891
  0
LINE
  5
AF
330
1F
100
AcDbEntity
  8
0
  6
HIDDEN
 62
     7
370
    18
100
AcDbLine
 10
61.6452143602
 20
89.1009355535
 30
0.0
 11
104.3547189778
 21
89.1009355535
 31
0.0
  0
LINE
  5
B0
330
1F
100
AcDbEntity
  8
0
  6
HIDDEN
 62
     7
370
    18
100
AcDbLine
 10
61.6452143602
 20
93.8740194059
 30
0.0
 11
61.6452143602
 21
89.1009355535
 31
0.0
  0
LINE
  5
B1
330
1F
100
AcDbEntity
  8
0
  6
HIDDEN
 62
     7
370
    18
100
AcDbLine
 10
104.3547189778
 20
93.8740194059
 30
0.0
 11
104.3547189778
 21
89.1009355535
 31
0.0
  0
LINE
  5
B2
330
1F
100
AcDbEntity
  8
0
  6
HIDDEN
 62
     7
370
    18
100
AcDbLine
 10
104.0080509209
 20
85.1233656765
 30
0.0
 11
61.9918824172
 21
85.1233656765
 31
0.0
  0
LINE
  5
B3
330
1F
100
AcDbEntity
  8
0
  6
HIDDEN
 62
     7
370
    18
100
AcDbLine
 10
61.9918824172
 20
85.1233656765
 30
0.0
 11
61.6452143602
 21
89.1009355535
 31
0.0
  0
LINE
  5
B4
330
1F
100
AcDbEntity
  8
0
  6
HIDDEN
 62
     7
370
    18
100
AcDbLine
 10
104.3547189778
 20
89.1009355535
 30
0.0
 11
104.0080509209
 21
85.1233656765
 31
0.0
  0
LINE
  5
B5
330
1F
100
AcDbEntity
  8
0
  6
HIDDEN
 62
     7
370
    18
100
AcDbLine
 10
61.8532151944
 20
107.0
 30
0.0
 11
62.4078840856
 21
100.6358881968
 31
0.0
  0
LINE
  5
B6
330
1F
100
AcDbEntity
  8
0
  6
HIDDEN
 62
     7
370
    18
100
AcDbLine
 10
103.5920492525
 20
100.6358881968
 30
0.0
 11
104.1467181436
 21
107.0
 31
0.0
  0
LINE
  5
B7
330
1F
100
AcDbEntity
  8
0
  6
HIDDEN
 62
     7
370
    18
100
AcDbLine
 10
62.4078840856
 20
100.6358881968
 30
0.0
 11
103.5920492525
 21
100.6358881968
 31
0.0
  0
LINE
  5
B8
330
1F
100
AcDbEntity
  8
0
  6
HIDDEN
 62
     7
370
    18
100
AcDbLine
 10
62.4078840856
 20
85.1233656765
 30
0.0
 11
62.4078840856
 21
100.6358881968
 31
0.0
  0
LINE
  5
B9
330
1F
100
AcDbEntity
  8
0
  6
HIDDEN
 62
     7
370
    18
100
AcDbLine
 10
103.5920492525
 20
85.1233656765
 30
0.0
 11
103.5920492525
 21
100.6358881968
 31
0.0
  0
LINE
  5
BA
330
1F
100
AcDbEntity
  8
0
  6
HIDDEN
 62
     7
370
    18
100
AcDbLine
 10
78.2268828166
 20
89.1009355535
 30
0.0
 11
78.2268828166
 21
45.3476669065
 31
0.0
  0
LINE
  5
BB
330
1F
100
AcDbEntity
  8
0
  6
HIDDEN
 62
     7
370
    18
100
AcDbLine
 10
87.7730505214
 20
45.3476669065
 30
0.0
 11
87.7730505214
 21
89.1009355535
 31
0.0
  0
ARC
  5
BC
330
1F
100
AcDbEntity
  8
0
  6
Continuous
 62
     7
370
    25
100
AcDbCircle
 10
82.999966669
 20
415.4428191501
 30
0.0
 40
242.6317624970789
100
AcDbArc
 50
265.0
 51
275.0
  0
ARC
  5
BD
330
1F
100
AcDbEntity
  8
0
  6
Continuous
 62
     7
370
    25
100
AcDbCircle
 10
82.999966669
 20
415.4428191501
 30
0.0
 40
236.2676506938768
100
AcDbArc
 50
265.0
 51
275.0
  0
LINE
  5
BE
330
1F
100
AcDbEntity
  8
0
  6
Continuous
 62
     7
370
    25
100
AcDbLine
 10
61.8532151944
 20
173.7343437618
 30
0.0
 11
62.4078840856
 21
180.0742381983
 31
0.0
  0
LINE
  5
BF
330
1F
100
AcDbEntity
  8
0
  6
Continuous
 62
     7
370
    25
100
AcDbLine
 10
103.5920492525
 20
180.0742381983
 30
0.0
 11
104.1467181436
 21
173.7343437618
 31
0.0
  0
LINE
  5
C0
330
1F
100
AcDbEntity
  8
0
  6
Continuous
 62
     7
370
    25
100
AcDbLine
 10
61.8532151944
 20
173.7343437618
 30
0.0
 11
60.6745438008
 21
160.2620680845
 31
0.0
  0
LINE
  5
C1
330
1F
100
AcDbEntity
  8
0
  6
Continuous
 62
     7
370
    25
100
AcDbLine
 10
104.1467181436
 20
173.7343437618
 30
0.0
 11
105.3253895373
 21
160.2620680845
 31
0.0
  0
ARC
  5
C2
330
1F
100
AcDbEntity
  8
0
  6
Continuous
 62
     7
370
    25
100
AcDbCircle
 10
82.999966669
 20
415.4428191501
 30
0.0
 40
266.0994247713866
100
AcDbArc
 50
272.7323317584
 51
275.0
  0
ARC
  5
C3
330
1F
100
AcDbEntity
  8
0
  6
Continuous
 62
     7
370
    25
100
AcDbCircle
 10
82.999966669
 20
415.4428191501
 30
0.0
 40
266.0994247713865
100
AcDbArc
 50
270.0
 51
272.7323317584
  0
ARC
  5
C4
330
1F
100
AcDbEntity
  8
0
  6
Continuous
 62
     7
370
    25
100
AcDbCircle
 10
82.999966669
 20
415.4428191501
 30
0.0
 40
266.0994247713865
100
AcDbArc
 50
267.2676682416
 51
270.0
  0
ARC
  5
C5
330
1F
100
AcDbEntity
  8
0
  6
Continuous
 62
     7
370
    25
100
AcDbCircle
 10
82.999966669
 20
415.4428191501
 30
0.0
 40
266.0994247713866
100
AcDbArc
 50
265.0
 51
267.2676682416
  0
LINE
  5
C6
330
1F
100
AcDbEntity
  8
0
  6
Continuous
 62
     7
370
    25
100
AcDbLine
 10
59.8078736584
 20
150.3559830276
 30
0.0
 11
60.6745438008
 21
160.2620680845
 31
0.0
  0
LINE
  5
C7
330
1F
100
AcDbEntity
  8
0
  6
Continuous
 62
     7
370
    25
100
AcDbLine
 10
105.3253895373
 20
160.2620680845
 30
0.0
 11
106.1920596797
 21
150.3559830276
 31
0.0
  0
ARC
  5
C8
330
1F
100
AcDbEntity
  8
0
  6
Continuous
 62
     7
370
    25
100
AcDbCircle
 10
82.999966669
 20
147.1557309463
 30
0.0
 40
12.92710210025421
100
AcDbArc
 50
9.7430973768
 51
11.1064667172
  0
LINE
  5
C9
330
1F
100
AcDbEntity
  8
0
  6
Continuous
 62
     7
370
    25
100
AcDbLine
 10
82.999966669
 20
149.3433943787
 30
0.0
 11
95.7406141179
 21
149.3433943787
 31
0.0
  0
LINE
  5
CA
330
1F
100
AcDbEntity
  8
0
  6
Continuous
 62
     7
370
    25
100
AcDbLine
 10
70.2593192201
 20
149.3433943787
 30
0.0
 11
82.999966669
 21
149.3433943787
 31
0.0
  0
ARC
  5
CB
330
1F
100
AcDbEntity
  8
0
  6
Continuous
 62
     7
370
    25
100
AcDbCircle
 10
82.999966669
 20
147.1557309463
 30
0.0
 40
12.9271021002542
100
AcDbArc
 50
168.8935332828
 51
170.2569026232
  0
SPLINE
  5
CC
330
1F
100
AcDbEntity
  8
0
  6
Continuous
 62
     7
370
    25
100
AcDbSpline
210
0.0
220
0.0
230
1.0
 70
     8
 71
     3
 72
    10
 73
     6
 74
     0
 42
0.00000001
 43
0.00000001
 40
0.0
 40
0.0
 40
0.0
 40
0.0
 40
0.5
 40
0.5
 40
1.0
 40
1.0
 40
1.0
 40
1.0
 10
89.80370461653264
 20
136.1639559007895
 30
0.0
 10
89.68032744663589
 20
136.0875873498318
 30
0.0
 10
89.54390043782382
 20
136.0269395942785
 30
0.0
 10
89.25934401215852
 20
135.9459973602554
 30
0.0
 10
89.11142173135197
 20
135.9257618017496
 30
0.0
 10
88.96632148453236
 20
135.9257618017495
 30
0.0
  0
SPLINE
  5
CD
330
1F
100
AcDbEntity
  8
0
  6
Continuous
 62
     7
370
    25
100
AcDbSpline
210
0.0
220
0.0
230
1.0
 70
     8
 71
     3
 72
    14
 73
    10
 74
     0
 42
0.00000001
 43
0.00000001
 40
0.0
 40
0.0
 40
0.0
 40
0.0
 40
0.25
 40
0.25
 40
0.5
 40
0.5
 40
0.75
 40
0.75
 40
1.0
 40
1.0
 40
1.0
 40
1.0
 10
88.96632148453236
 20
135.9257618017495
 30
0.0
 10
88.77881704235429
 20
135.9257618017495
 30
0.0
 10
88.57652320179668
 20
135.9599350755498
 30
0.0
 10
88.18482182435858
 20
136.1150060789152
 30
0.0
 10
87.9966285973747
 20
136.2364293335711
 30
0.0
 10
87.68596106555327
 20
136.5470968653927
 30
0.0
 10
87.56453781089738
 20
136.7352900923766
 30
0.0
 10
87.40946680753206
 20
137.1269914698148
 30
0.0
 10
87.37529353373185
 20
137.3292853103724
 30
0.0
 10
87.37529353373185
 20
137.5167897525505
 30
0.0
  0
LINE
  5
CE
330
1F
100
AcDbEntity
  8
0
  6
Continuous
 62
     7
370
    25
100
AcDbLine
 10
87.3752935337
 20
137.5167897526
 30
0.0
 11
87.3752935337
 21
139.1736374435
 31
0.0
  0
SPLINE
  5
CF
330
1F
100
AcDbEntity
  8
0
  6
Continuous
 62
     7
370
    25
100
AcDbSpline
210
0.0
220
0.0
230
1.0
 70
     8
 71
     3
 72
     8
 73
     4
 74
     0
 42
0.00000001
 43
0.00000001
 40
0.0
 40
0.0
 40
0.0
 40
0.0
 40
1.0
 40
1.0
 40
1.0
 40
1.0
 10
87.37529353373185
 20
139.1736374435103
 30
0.0
 10
87.37529353373185
 20
139.3611418856884
 30
0.0
 10
87.40948399621742
 20
139.5515063242642
 30
0.0
 10
87.47473278065686
 20
139.7272917388063
 30
0.0
  0
SPLINE
  5
D0
330
1F
100
AcDbEntity
  8
0
  6
Continuous
 62
     7
370
    25
100
AcDbSpline
210
0.0
220
0.0
230
1.0
 70
     8
 71
     3
 72
    38
 73
    34
 74
     0
 42
0.00000001
 43
0.00000001
 40
0.0
 40
0.0
 40
0.0
 40
0.0
 40
0.0625000000000002
 40
0.0625000000000002
 40
0.1250000000000001
 40
0.1250000000000001
 40
0.1875000000000001
 40
0.1875000000000001
 40
0.25
 40
0.25
 40
0.3124999999999999
 40
0.3124999999999999
 40
0.3749999999999998
 40
0.3749999999999998
 40
0.4374999999999998
 40
0.4374999999999998
 40
0.4999999999999998
 40
0.4999999999999998
 40
0.5624999999999998
 40
0.5624999999999998
 40
0.6249999999999998
 40
0.6249999999999998
 40
0.6874999999999998
 40
0.6874999999999998
 40
0.7499999999999998
 40
0.7499999999999998
 40
0.8124999999999998
 40
0.8124999999999998
 40
0.8749999999999998
 40
0.8749999999999998
 40
0.9375
 40
0.9375
 40
1.0
 40
1.0
 40
1.0
 40
1.0
 10
78.52520055740398
 20
139.7272917388063
 30
0.0
 10
78.41156709021733
 20
140.0334293367224
 30
0.0
 10
78.3232484365432
 20
140.3682052943649
 30
0.0
 10
78.22310880128553
 20
141.0819492643964
 30
0.0
 10
78.21159632285618
 20
141.460930508587
 30
0.0
 10
78.28660870673919
 20
142.2356205878565
 30
0.0
 10
78.37343881564385
 20
142.631092312962
 30
0.0
 10
78.65211723131394
 20
143.399624994489
 30
0.0
 10
78.84403802707276
 20
143.7722459878895
 30
0.0
 10
79.31877280433734
 20
144.4548438419484
 30
0.0
 10
79.60131937520576
 20
144.7644362059659
 30
0.0
 10
80.22484277967128
 20
145.2931352753989
 30
0.0
 10
80.56538192283382
 20
145.5121568385938
 30
0.0
 10
81.26555066728932
 20
145.8520616869588
 30
0.0
 10
81.62485175666343
 20
145.9731486300304
 30
0.0
 10
82.32883384684882
 20
146.1276401120092
 30
0.0
 10
82.67341989791997
 20
146.1613384770957
 30
0.0
 10
83.32651344014087
 20
146.1613384770956
 30
0.0
 10
83.67109949121199
 20
146.1276401120092
 30
0.0
 10
84.37508158139737
 20
145.9731486300304
 30
0.0
 10
84.7343826707715
 20
145.8520616869588
 30
0.0
 10
85.43455141522698
 20
145.5121568385938
 30
0.0
 10
85.77509055838954
 20
145.2931352753989
 30
0.0
 10
86.39861396285507
 20
144.7644362059659
 30
0.0
 10
86.68116053372349
 20
144.4548438419484
 30
0.0
 10
87.15589531098809
 20
143.7722459878895
 30
0.0
 10
87.3478161067469
 20
143.399624994489
 30
0.0
 10
87.626494522417
 20
142.631092312962
 30
0.0
 10
87.71332463132167
 20
142.2356205878565
 30
0.0
 10
87.78833701520466
 20
141.460930508587
 30
0.0
 10
87.77682453677531
 20
141.0819492643964
 30
0.0
 10
87.67668490151766
 20
140.3682052943649
 30
0.0
 10
87.58836624784351
 20
140.0334293367224
 30
0.0
 10
87.47473278065686
 20
139.7272917388063
 30
0.0
  0
SPLINE
  5
D1
330
1F
100
AcDbEntity
  8
0
  6
Continuous
 62
     7
370
    25
100
AcDbSpline
210
0.0
220
0.0
230
1.0
 70
     8
 71
     3
 72
     8
 73
     4
 74
     0
 42
0.00000001
 43
0.00000001
 40
0.0
 40
0.0
 40
0.0
 40
0.0
 40
1.0
 40
1.0
 40
1.0
 40
1.0
 10
78.52520055740398
 20
139.7272917388063
 30
0.0
 10
78.59044934184344
 20
139.5515063242642
 30
0.0
 10
78.62463980432902
 20
139.3611418856884
 30
0.0
 10
78.62463980432901
 20
139.1736374435103
 30
0.0
  0
LINE
  5
D2
330
1F
100
AcDbEntity
  8
0
  6
Continuous
 62
     7
370
    25
100
AcDbLine
 10
78.6246398043
 20
137.5167897526
 30
0.0
 11
78.6246398043
 21
139.1736374435
 31
0.0
  0
SPLINE
  5
D3
330
1F
100
AcDbEntity
  8
0
  6
Continuous
 62
     7
370
    25
100
AcDbSpline
210
0.0
220
0.0
230
1.0
 70
     8
 71
     3
 72
    14
 73
    10
 74
     0
 42
0.00000001
 43
0.00000001
 40
0.0
 40
0.0
 40
0.0
 40
0.0
 40
0.25
 40
0.25
 40
0.5
 40
0.5
 40
0.75
 40
0.75
 40
1.0
 40
1.0
 40
1.0
 40
1.0
 10
78.62463980432901
 20
137.5167897525505
 30
0.0
 10
78.62463980432901
 20
137.3292853103723
 30
0.0
 10
78.59046653052879
 20
137.1269914698146
 30
0.0
 10
78.43539552716346
 20
136.7352900923764
 30
0.0
 10
78.31397227250757
 20
136.5470968653925
 30
0.0
 10
78.00330474068615
 20
136.236429333571
 30
0.0
 10
77.81511151370228
 20
136.1150060789151
 30
0.0
 10
77.42341013626417
 20
135.9599350755498
 30
0.0
 10
77.22111629570655
 20
135.9257618017496
 30
0.0
 10
77.03361185352848
 20
135.9257618017495
 30
0.0
  0
SPLINE
  5
D4
330
1F
100
AcDbEntity
  8
0
  6
Continuous
 62
     7
370
    25
100
AcDbSpline
210
0.0
220
0.0
230
1.0
 70
     8
 71
     3
 72
    10
 73
     6
 74
     0
 42
0.00000001
 43
0.00000001
 40
0.0
 40
0.0
 40
0.0
 40
0.0
 40
0.5
 40
0.5
 40
1.0
 40
1.0
 40
1.0
 40
1.0
 10
77.03361185352848
 20
135.9257618017495
 30
0.0
 10
76.88851160670889
 20
135.9257618017496
 30
0.0
 10
76.74058932590233
 20
135.9459973602554
 30
0.0
 10
76.45603290023703
 20
136.0269395942785
 30
0.0
 10
76.31960589142497
 20
136.0875873498318
 30
0.0
 10
76.19622872152823
 20
136.1639559007895
 30
0.0
  0
SPLINE
  5
D5
330
1F
100
AcDbEntity
  8
0
  6
Continuous
 62
     7
370
    25
100
AcDbSpline
210
0.0
220
0.0
230
1.0
 70
     8
 71
     3
 72
    18
 73
    14
 74
     0
 42
0.00000001
 43
0.00000001
 40
0.0
 40
0.0
 40
0.0
 40
0.0
 40
0.1250000000000002
 40
0.1250000000000002
 40
0.2500000000000004
 40
0.2500000000000004
 40
0.3750000000000007
 40
0.3750000000000007
 40
0.5000000000000006
 40
0.5000000000000006
 40
0.7500000000000003
 40
0.7500000000000003
 40
1.0
 40
1.0
 40
1.0
 40
1.0
 10
76.19622872152823
 20
136.1639559007895
 30
0.0
 10
75.68410973702007
 20
136.4809495941733
 30
0.0
 10
75.18315768754356
 20
136.8407448120537
 30
0.0
 10
74.22352857479933
 20
137.6438659356435
 30
0.0
 10
73.76492626150063
 20
138.0872069756828
 30
0.0
 10
72.90993004494295
 20
139.0492360650934
 30
0.0
 10
72.51361665403057
 20
139.5679043272359
 30
0.0
 10
71.80062344227525
 20
140.6662501714229
 30
0.0
 10
71.4840108300584
 20
141.2458720914465
 30
0.0
 10
70.67256064978109
 20
143.0472230681347
 30
0.0
 10
70.3196920865912
 20
144.3313507092772
 30
0.0
 10
70.01173124588206
 20
146.8869786394326
 30
0.0
 10
70.05546789115478
 20
148.156192601647
 30
0.0
 10
70.25931922013082
 20
149.3433943786966
 30
0.0
  0
SPLINE
  5
D6
330
1F
100
AcDbEntity
  8
0
  6
Continuous
 62
     7
370
    25
100
AcDbSpline
210
0.0
220
0.0
230
1.0
 70
     8
 71
     3
 72
    18
 73
    14
 74
     0
 42
0.00000001
 43
0.00000001
 40
0.0
 40
0.0
 40
0.0
 40
0.0
 40
0.2499999999999998
 40
0.2499999999999998
 40
0.4999999999999997
 40
0.4999999999999997
 40
0.6249999999999996
 40
0.6249999999999996
 40
0.7499999999999997
 40
0.7499999999999997
 40
0.8749999999999999
 40
0.8749999999999999
 40
1.0
 40
1.0
 40
1.0
 40
1.0
 10
95.74061411793002
 20
149.3433943786966
 30
0.0
 10
95.94446544690607
 20
148.156192601647
 30
0.0
 10
95.98820209217878
 20
146.8869786394326
 30
0.0
 10
95.68024125146964
 20
144.3313507092772
 30
0.0
 10
95.32737268827978
 20
143.0472230681347
 30
0.0
 10
94.51592250800246
 20
141.2458720914465
 30
0.0
 10
94.1993098957856
 20
140.6662501714229
 30
0.0
 10
93.48631668403029
 20
139.5679043272359
 30
0.0
 10
93.0900032931179
 20
139.0492360650934
 30
0.0
 10
92.23500707656024
 20
138.0872069756828
 30
0.0
 10
91.77640476326152
 20
137.6438659356435
 30
0.0
 10
90.81677565051731
 20
136.8407448120537
 30
0.0
 10
90.3158236010408
 20
136.4809495941733
 30
0.0
 10
89.80370461653264
 20
136.1639559007895
 30
0.0
  0
ARC
  5
D7
330
1F
100
AcDbEntity
  8
0
  6
HIDDEN
 62
     7
370
    18
100
AcDbCircle
 10
82.999966669
 20
415.4428191501
 30
0.0
 40
245.0183044232795
100
AcDbArc
 50
265.0
 51
275.0
  0
ARC
  5
D8
330
1F
100
AcDbEntity
  8
0
  6
HIDDEN
 62
     7
370
    18
100
AcDbCircle
 10
82.999966669
 20
415.4428191501
 30
0.0
 40
252.9734441772821
100
AcDbArc
 50
265.0
 51
275.0
  0
ARC
  5
D9
330
1F
100
AcDbEntity
  8
0
  6
HIDDEN
 62
     7
370
    18
100
AcDbCircle
 10
82.999966669
 20
415.4428191501
 30
0.0
 40
248.995874300281
100
AcDbArc
 50
265.0
 51
275.0
  0
ARC
  5
DA
330
1F
100
AcDbEntity
  8
0
  6
HIDDEN
 62
     7
370
    18
100
AcDbCircle
 10
82.999966669
 20
415.4428191501
 30
0.0
 40
241.0407345462784
100
AcDbArc
 50
265.0
 51
275.0
  0
ARC
  5
DB
330
1F
100
AcDbEntity
  8
0
  6
HIDDEN
 62
     7
370
    18
100
AcDbCircle
 10
82.999966669
 20
415.4428191501
 30
0.0
 40
256.1555000788832
100
AcDbArc
 50
265.0
 51
275.0
  0
LINE
  5
DC
330
1F
100
AcDbEntity
  8
0
  6
Continuous
 62
     7
370
    25
100
AcDbLine
 10
214.3433943787
 20
37.3925271525
 30
0.0
 11
214.3433943787
 21
7.560753075
 31
0.0
  0
ARC
  5
DD
330
1F
100
AcDbEntity
  8
0
  6
Continuous
 62
     7
370
    25
100
AcDbCircle
 10
224.2873190712
 20
97.0560753075
 30
0.0
 40
9.94392469250326
100
AcDbArc
 50
90.0
 51
180.0
  0
ARC
  5
DE
330
1F
100
AcDbEntity
  8
0
  6
Continuous
 62
     7
370
    25
100
AcDbCircle
 10
232.2424588252
 20
93.8740194059
 30
0.0
 40
3.182055901601032
100
AcDbArc
 50
0.0
 51
90.0
  0
LINE
  5
DF
330
1F
100
AcDbEntity
  8
0
  6
Continuous
 62
     7
370
    25
100
AcDbLine
 10
235.4245147268
 20
89.1009355535
 30
0.0
 11
239.4020846038
 21
85.1233656765
 31
0.0
  0
LINE
  5
E0
330
1F
100
AcDbEntity
  8
0
  6
Continuous
 62
     7
370
    25
100
AcDbLine
 10
235.4245147268
 20
93.8740194059
 30
0.0
 11
235.4245147268
 21
89.1009355535
 31
0.0
  0
LINE
  5
E1
330
1F
100
AcDbEntity
  8
0
  6
Continuous
 62
     7
370
    25
100
AcDbLine
 10
200.9257618017
 20
83.6384427305
 30
0.0
 11
200.9257618017
 21
50.8101597294
 31
0.0
  0
SPLINE
  5
E2
330
1F
100
AcDbEntity
  8
0
  6
Continuous
 62
     7
370
    25
100
AcDbSpline
210
0.0
220
0.0
230
1.0
 70
     8
 71
     3
 72
    29
 73
    25
 74
     0
 42
0.00000001
 43
0.00000001
 40
0.0
 40
0.0
 40
0.0
 40
0.0
 40
0.1249999999999994
 40
0.1249999999999994
 40
0.1874999999999998
 40
0.1874999999999998
 40
0.2500000000000002
 40
0.2500000000000002
 40
0.3749999999999997
 40
0.3749999999999997
 40
0.4374999999999996
 40
0.4374999999999996
 40
0.4999999999999993
 40
0.4999999999999993
 40
0.6249999999999993
 40
0.6249999999999993
 40
0.6874999999999993
 40
0.6874999999999993
 40
0.7499999999999993
 40
0.8124999999999994
 40
0.8124999999999994
 40
0.8749999999999994
 40
0.8749999999999994
 40
1.0
 40
1.0
 40
1.0
 40
1.0
 10
225.2620680844599
 20
17.50467776747094
 30
0.0
 10
225.2620680844599
 20
16.84800939559183
 30
0.0
 10
225.256431666423
 20
16.20230973072368
 30
0.0
 10
225.2400757901443
 20
15.24954036818982
 30
0.0
 10
225.2333010603176
 20
14.93460014545843
 30
0.0
 10
225.2171319054003
 20
14.310139537647
 30
0.0
 10
225.2076929270033
 20
13.99976207050097
 30
0.0
 10
225.1761945500861
 20
13.09688751019147
 30
0.0
 10
225.1508394602486
 20
12.52591198678677
 30
0.0
 10
225.107225467246
 20
11.71544012025651
 30
0.0
 10
225.0916965705231
 20
11.45214696064029
 30
0.0
 10
225.0591207997872
 20
10.94542225740738
 30
0.0
 10
225.0422321775465
 20
10.70427817707819
 30
0.0
 10
224.9900888283342
 20
10.01635305619569
 30
0.0
 10
224.9533684265167
 20
9.604743795829242
 30
0.0
 10
224.8963568010277
 20
9.059501181803695
 30
0.0
 10
224.877037938053
 20
8.890176395425144
 30
0.0
 10
224.8387637462785
 20
8.583278394454837
 30
0.0
 10
224.800639265324
 20
8.30599600138173
 30
0.0
 10
224.7630857734146
 20
8.08703108159195
 30
0.0
 10
224.7259369935242
 20
7.897610292356923
 30
0.0
 10
224.7074869785737
 20
7.817415237772053
 30
0.0
 10
224.6535106968378
 20
7.625072634507547
 30
0.0
 10
224.6195413504675
 20
7.560753074967709
 30
0.0
 10
224.5877469317023
 20
7.560753074967709
 30
0.0
  0
LINE
  5
E3
330
1F
100
AcDbEntity
  8
0
  6
Continuous
 62
     7
370
    25
100
AcDbLine
 10
224.5877469317
 20
7.560753075
 30
0.0
 11
214.6744688237
 21
7.560753075
 31
0.0
  0
SPLINE
  5
E4
330
1F
100
AcDbEntity
  8
0
  6
Continuous
 62
     7
370
    25
100
AcDbSpline
210
0.0
220
0.0
230
1.0
 70
     8
 71
     3
 72
    29
 73
    25
 74
     0
 42
0.00000001
 43
0.00000001
 40
0.0
 40
0.0
 40
0.0
 40
0.0
 40
0.1249999999999996
 40
0.1249999999999996
 40
0.1874999999999994
 40
0.1874999999999994
 40
0.2499999999999992
 40
0.2499999999999992
 40
0.3749999999999983
 40
0.3749999999999983
 40
0.4374999999999981
 40
0.4374999999999981
 40
0.4999999999999979
 40
0.4999999999999979
 40
0.6249999999999984
 40
0.6249999999999984
 40
0.687499999999999
 40
0.687499999999999
 40
0.7499999999999994
 40
0.8124999999999999
 40
0.8124999999999999
 40
0.8750000000000003
 40
0.8750000000000003
 40
1.0
 40
1.0
 40
1.0
 40
1.0
 10
214.6744688237071
 20
7.560753074967709
 30
0.0
 10
214.7072148491123
 20
7.560753074967709
 30
0.0
 10
214.741840329738
 20
7.625070247009994
 30
0.0
 10
214.7962819869236
 20
7.814150710722299
 30
0.0
 10
214.8148457984402
 20
7.892725952548759
 30
0.0
 10
214.8527425257784
 20
8.081691742239654
 30
0.0
 10
214.8721360415702
 20
8.192618897971474
 30
0.0
 10
214.9300587858116
 20
8.566407084782956
 30
0.0
 10
214.9687227289467
 20
8.871426708291775
 30
0.0
 10
215.0259292744925
 20
9.411963525257798
 30
0.0
 10
215.0449273244186
 20
9.60678544329259
 30
0.0
 10
215.0821907641059
 20
10.022238514831
 30
0.0
 10
215.1002843235432
 20
10.24084443885342
 30
0.0
 10
215.1527427470608
 20
10.92828022298641
 30
0.0
 10
215.1853046363316
 20
11.42842923800793
 30
0.0
 10
215.2294114335656
 20
12.24292754133432
 30
0.0
 10
215.2432957934066
 20
12.52516392799857
 30
0.0
 10
215.2687046252664
 20
13.09881506224719
 30
0.0
 10
215.2919255312086
 20
13.68465186198159
 30
0.0
 10
215.3105711169737
 20
14.29448926991949
 30
0.0
 10
215.3267877372123
 20
14.91648918177869
 30
0.0
 10
215.3337038108822
 20
15.23497891573455
 30
0.0
 10
215.350345886819
 20
16.19852980112106
 30
0.0
 10
215.3559830275646
 20
16.84801751171707
 30
0.0
 10
215.3559830275646
 20
17.50467776747094
 30
0.0
  0
LINE
  5
E5
330
1F
100
AcDbEntity
  8
0
  6
Continuous
 62
     7
370
    25
100
AcDbLine
 10
214.6459137778
 20
37.3925271525
 30
0.0
 11
214.6459137778
 21
97.0560753075
 31
0.0
  0
LINE
  5
E6
330
1F
100
AcDbEntity
  8
0
  6
Continuous
 62
     7
370
    25
100
AcDbLine
 10
215.3559830276
 20
97.0560753075
 30
0.0
 11
215.3559830276
 21
17.5046777675
 31
0.0
  0
LINE
  5
E7
330
1F
100
AcDbEntity
  8
0
  6
Continuous
 62
     7
370
    25
100
AcDbLine
 10
214.6744688237
 20
7.560753075
 30
0.0
 11
214.3433943787
 21
7.560753075
 31
0.0
  0
ARC
  5
E8
330
1F
100
AcDbEntity
  8
0
  6
Continuous
 62
     7
370
    25
100
AcDbCircle
 10
233.1806210036
 20
93.8798139552
 30
0.0
 40
3.176267630198106
100
AcDbArc
 50
359.8954737306
 51
89.8860831734
  0
LINE
  5
E9
330
1F
100
AcDbEntity
  8
0
  6
Continuous
 62
     7
370
    25
100
AcDbLine
 10
231.6019625209
 20
97.0560753075
 30
0.0
 11
233.18693613
 21
97.0560753075
 31
0.0
  0
ARC
  5
EA
330
1F
100
AcDbEntity
  8
0
  6
Continuous
 62
     7
370
    25
100
AcDbCircle
 10
231.6077792045
 20
93.8803105013
 30
0.0
 40
3.175770133022579
100
AcDbArc
 50
90.1049419802
 51
180.1135011158
  0
LINE
  5
EB
330
1F
100
AcDbEntity
  8
0
  6
Continuous
 62
     7
370
    25
100
AcDbLine
 10
228.4320153027
 20
85.9188796519
 30
0.0
 11
228.4320153027
 21
93.8740194059
 31
0.0
  0
LINE
  5
EC
330
1F
100
AcDbEntity
  8
0
  6
Continuous
 62
     7
370
    25
100
AcDbLine
 10
232.3944493254
 20
81.9413097749
 30
0.0
 11
228.4320153027
 21
85.9188796519
 31
0.0
  0
LINE
  5
ED
330
1F
100
AcDbEntity
  8
0
  6
Continuous
 62
     7
370
    25
100
AcDbLine
 10
232.3944493254
 20
76.3727119471
 30
0.0
 11
232.3944493254
 21
81.9413097749
 31
0.0
  0
LINE
  5
EE
330
1F
100
AcDbEntity
  8
0
  6
Continuous
 62
     7
370
    25
100
AcDbLine
 10
226.58923183
 20
66.2793720907
 30
0.0
 11
232.3944493254
 21
76.3727119471
 31
0.0
  0
ARC
  5
EF
330
1F
100
AcDbEntity
  8
0
  6
Continuous
 62
     7
370
    25
100
AcDbCircle
 10
235.2350584811
 20
61.3084345512
 30
0.0
 40
9.97299044926647
100
AcDbArc
 50
150.1031540196
 51
180.0058876125
  0
LINE
  5
F0
330
1F
100
AcDbEntity
  8
0
  6
Continuous
 62
     7
370
    25
100
AcDbLine
 10
225.2620680845
 20
17.5046777675
 30
0.0
 11
225.2620680845
 21
61.3074097444
 31
0.0
  0
ARC
  5
F1
330
1F
100
AcDbEntity
  8
0
  6
Continuous
 62
     7
370
    25
100
AcDbCircle
 10
225.2823461833
 20
97.073642013
 30
0.0
 40
9.926378699592386
100
AcDbArc
 50
90.1170467419
 51
180.1013963541
  0
LINE
  5
F2
330
1F
100
AcDbEntity
  8
0
  6
Continuous
 62
     7
370
    25
100
AcDbLine
 10
238.7343437618
 20
107.0
 30
0.0
 11
225.2620680845
 21
107.0
 31
0.0
  0
LINE
  5
F3
330
1F
100
AcDbEntity
  8
0
  6
Continuous
 62
     7
370
    25
100
AcDbLine
 10
245.0742381983
 20
100.6358881968
 30
0.0
 11
238.7343437618
 21
107.0
 31
0.0
  0
LINE
  5
F4
330
1F
100
AcDbEntity
  8
0
  6
Continuous
 62
     7
370
    25
100
AcDbLine
 10
245.0742381983
 20
85.1233656765
 30
0.0
 11
245.0742381983
 21
100.6358881968
 31
0.0
  0
LINE
  5
F5
330
1F
100
AcDbEntity
  8
0
  6
Continuous
 62
     7
370
    25
100
AcDbLine
 10
240.3193173709
 20
85.1233656765
 30
0.0
 11
245.0742381983
 21
85.1233656765
 31
0.0
  0
LINE
  5
F6
330
1F
100
AcDbEntity
  8
0
  6
Continuous
 62
     7
370
    25
100
AcDbLine
 10
236.3568833482
 20
89.1009355535
 30
0.0
 11
240.3193173709
 21
85.1233656765
 31
0.0
  0
LINE
  5
F7
330
1F
100
AcDbEntity
  8
0
  6
Continuous
 62
     7
370
    25
100
AcDbLine
 10
236.3568833482
 20
93.8740194059
 30
0.0
 11
236.3568833482
 21
89.1009355535
 31
0.0
  0
LINE
  5
F8
330
1F
100
AcDbEntity
  8
0
  6
Continuous
 62
     7
370
    25
100
AcDbLine
 10
224.2873190712
 20
107.0
 30
0.0
 11
225.2620680845
 21
107.0
 31
0.0
  0
LINE
  5
F9
330
1F
100
AcDbEntity
  8
0
  6
Continuous
 62
     7
370
    25
100
AcDbLine
 10
235.4245147268
 20
89.1009355535
 30
0.0
 11
236.3568833482
 21
89.1009355535
 31
0.0
  0
LINE
  5
FA
330
1F
100
AcDbEntity
  8
0
  6
Continuous
 62
     7
370
    25
100
AcDbLine
 10
240.3193173709
 20
85.1233656765
 30
0.0
 11
239.4020846038
 21
85.1233656765
 31
0.0
  0
LINE
  5
FB
330
1F
100
AcDbEntity
  8
0
  6
Continuous
 62
     7
370
    25
100
AcDbLine
 10
214.3433943787
 20
37.3925271525
 30
0.0
 11
214.6459137778
 21
37.3925271525
 31
0.0
  0
SPLINE
  5
FC
330
1F
100
AcDbEntity
  8
0
  6
Continuous
 62
     7
370
    25
100
AcDbSpline
210
0.0
220
0.0
230
1.0
 70
    24
 71
     3
 72
    18
 73
    14
 74
     0
 42
0.00000001
 43
0.00000001
 40
0.0
 40
0.0
 40
0.0
 40
0.0
 40
0.2500000000000001
 40
0.2500000000000001
 40
0.5
 40
0.5
 40
0.625
 40
0.625
 40
0.7500000000000001
 40
0.7500000000000001
 40
0.8750000000000001
 40
0.8750000000000001
 40
1.0
 40
1.0
 40
1.0
 40
1.0
 10
214.3433943786966
 20
37.3925271524774
 30
0.0
 10
213.1561926016471
 20
38.57972892952698
 30
0.0
 10
211.8869786394327
 20
39.84894289174132
 30
0.0
 10
209.3313507092772
 20
42.40457082189671
 30
0.0
 10
208.0472230681347
 20
43.6886984630392
 30
0.0
 10
206.2458720914465
 20
45.49004943972735
 30
0.0
 10
205.6662501714229
 20
46.069671359751
 30
0.0
 10
204.5679043272359
 20
47.16801720393805
 30
0.0
 10
204.0492360650934
 20
47.6866854660805
 30
0.0
 10
203.0872069756828
 20
48.64871455549113
 30
0.0
 10
202.6438659356435
 20
49.09205559553043
 30
0.0
 10
201.8407448120537
 20
49.89517671912029
 30
0.0
 10
201.4809495941732
 20
50.25497193700076
 30
0.0
 10
201.1639559007895
 20
50.57196563038454
 30
0.0
  0
SPLINE
  5
FD
330
1F
100
AcDbEntity
  8
0
  6
Continuous
 62
     7
370
    25
100
AcDbSpline
210
0.0
220
0.0
230
1.0
 70
    24
 71
     3
 72
    18
 73
    14
 74
     0
 42
0.00000001
 43
0.00000001
 40
0.0
 40
0.0
 40
0.0
 40
0.0
 40
0.2499999999999998
 40
0.2499999999999998
 40
0.4999999999999997
 40
0.4999999999999997
 40
0.6249999999999996
 40
0.6249999999999996
 40
0.7499999999999997
 40
0.7499999999999997
 40
0.8749999999999999
 40
0.8749999999999999
 40
1.0
 40
1.0
 40
1.0
 40
1.0
 10
214.3433943786966
 20
97.05607530749688
 30
0.0
 10
213.156192601647
 20
95.86887353044726
 30
0.0
 10
211.8869786394326
 20
94.59965956823291
 30
0.0
 10
209.3313507092772
 20
92.0440316380775
 30
0.0
 10
208.0472230681347
 20
90.75990399693497
 30
0.0
 10
206.2458720914465
 20
88.9585530202468
 30
0.0
 10
205.6662501714229
 20
88.37893110022316
 30
0.0
 10
204.5679043272359
 20
87.2805852560361
 30
0.0
 10
204.0492360650934
 20
86.76191699389365
 30
0.0
 10
203.0872069756828
 20
85.79988790448303
 30
0.0
 10
202.6438659356435
 20
85.35654686444373
 30
0.0
 10
201.8407448120537
 20
84.55342574085387
 30
0.0
 10
201.4809495941733
 20
84.1936305229734
 30
0.0
 10
201.1639559007895
 20
83.87663682958963
 30
0.0
  0
LINE
  5
FE
330
1F
100
AcDbEntity
  8
0
  6
Continuous
 62
     7
370
    25
100
AcDbLine
 10
214.3433943787
 20
97.0560753075
 30
0.0
 11
214.6459137778
 21
97.0560753075
 31
0.0
  0
SPLINE
  5
FF
330
1F
100
AcDbEntity
  8
0
  6
Continuous
 62
     7
370
    25
100
AcDbSpline
210
0.0
220
0.0
230
1.0
 70
    24
 71
     3
 72
    10
 73
     6
 74
     0
 42
0.00000001
 43
0.00000001
 40
0.0
 40
0.0
 40
0.0
 40
0.0
 40
0.5
 40
0.5
 40
1.0
 40
1.0
 40
1.0
 40
1.0
 10
201.1639559007895
 20
50.57196563038454
 30
0.0
 10
201.0875873498318
 20
50.64833418134221
 30
0.0
 10
201.0269395942785
 20
50.70898193689546
 30
0.0
 10
200.9459973602554
 20
50.78992417091851
 30
0.0
 10
200.9257618017496
 20
50.81015972942428
 30
0.0
 10
200.9257618017495
 20
50.81015972942431
 30
0.0
  0
SPLINE
  5
100
330
1F
100
AcDbEntity
  8
0
  6
Continuous
 62
     7
370
    25
100
AcDbSpline
210
0.0
220
0.0
230
1.0
 70
    24
 71
     3
 72
    10
 73
     6
 74
     0
 42
0.00000001
 43
0.00000001
 40
0.0
 40
0.0
 40
0.0
 40
0.0
 40
0.5
 40
0.5
 40
1.0
 40
1.0
 40
1.0
 40
1.0
 10
201.1639559007895
 20
83.87663682958963
 30
0.0
 10
201.0875873498318
 20
83.80026827863193
 30
0.0
 10
201.0269395942785
 20
83.7396205230787
 30
0.0
 10
200.9459973602554
 20
83.65867828905566
 30
0.0
 10
200.9257618017496
 20
83.6384427305499
 30
0.0
 10
200.9257618017495
 20
83.63844273054991
 30
0.0
  0
LINE
  5
101
330
1F
100
AcDbEntity
  8
0
  6
HIDDEN
 62
     7
370
    18
100
AcDbLine
 10
232.3944493254
 20
76.3727119471
 30
0.0
 11
231.4469448498
 21
76.3727119471
 31
0.0
  0
LINE
  5
102
330
1F
100
AcDbEntity
  8
0
  6
HIDDEN
 62
     7
370
    18
100
AcDbLine
 10
231.6019625209
 20
97.0560753075
 30
0.0
 11
230.6514308744
 21
97.0560753075
 31
0.0
  0
LINE
  5
103
330
1F
100
AcDbEntity
  8
0
  6
HIDDEN
 62
     7
370
    18
100
AcDbLine
 10
228.4320153027
 20
85.9188796519
 30
0.0
 11
227.4693749728
 21
85.9188796519
 31
0.0
  0
LINE
  5
104
330
1F
100
AcDbEntity
  8
0
  6
HIDDEN
 62
     7
370
    18
100
AcDbLine
 10
232.3944493254
 20
81.9413097749
 30
0.0
 11
231.4469448498
 21
81.9413097749
 31
0.0
  0
LINE
  5
105
330
1F
100
AcDbEntity
  8
0
  6
HIDDEN
 62
     7
370
    18
100
AcDbLine
 10
244.1751684562
 20
100.6358881968
 30
0.0
 11
245.0742381983
 21
100.6358881968
 31
0.0
  0
LINE
  5
106
330
1F
100
AcDbEntity
  8
0
  6
HIDDEN
 62
     7
370
    18
100
AcDbLine
 10
224.2873190712
 20
61.3074097444
 30
0.0
 11
224.2873190712
 21
7.560753075
 31
0.0
  0
ARC
  5
107
330
1F
100
AcDbEntity
  8
0
  6
HIDDEN
 62
     7
370
    18
100
AcDbCircle
 10
234.2312437637
 20
61.3074097444
 30
0.0
 40
9.94392469250323
100
AcDbArc
 50
150.0
 51
180.0
  0
LINE
  5
108
330
1F
100
AcDbEntity
  8
0
  6
HIDDEN
 62
     7
370
    18
100
AcDbLine
 10
231.4469448498
 20
76.3727119471
 30
0.0
 11
225.6195523667
 21
66.2793720907
 31
0.0
  0
ARC
  5
109
330
1F
100
AcDbEntity
  8
0
  6
HIDDEN
 62
     7
370
    18
100
AcDbCircle
 10
230.6514308744
 20
93.8740194059
 30
0.0
 40
3.182055901601046
100
AcDbArc
 50
90.0
 51
180.0
  0
LINE
  5
10A
330
1F
100
AcDbEntity
  8
0
  6
HIDDEN
 62
     7
370
    18
100
AcDbLine
 10
227.4693749728
 20
85.9188796519
 30
0.0
 11
231.4469448498
 21
81.9413097749
 31
0.0
  0
LINE
  5
10B
330
1F
100
AcDbEntity
  8
0
  6
HIDDEN
 62
     7
370
    18
100
AcDbLine
 10
227.4693749728
 20
93.8740194059
 30
0.0
 11
227.4693749728
 21
85.9188796519
 31
0.0
  0
LINE
  5
10C
330
1F
100
AcDbEntity
  8
0
  6
HIDDEN
 62
     7
370
    18
100
AcDbLine
 10
231.4469448498
 20
81.9413097749
 30
0.0
 11
231.4469448498
 21
76.3727119471
 31
0.0
  0
LINE
  5
10D
330
1F
100
AcDbEntity
  8
0
  6
HIDDEN
 62
     7
370
    18
100
AcDbLine
 10
237.811056653
 20
107.0
 30
0.0
 11
244.1751684562
 21
100.6358881968
 31
0.0
  0
LINE
  5
10E
330
1F
100
AcDbEntity
  8
0
  6
HIDDEN
 62
     7
370
    18
100
AcDbLine
 10
244.1751684562
 20
100.6358881968
 30
0.0
 11
244.1751684562
 21
85.1233656765
 31
0.0
  0
LINE
  5
10F
330
1F
100
AcDbEntity
  8
0
  6
HIDDEN
 62
     7
370
    18
100
AcDbLine
 10
211.1613384771
 20
40.5745830541
 30
0.0
 11
211.1613384771
 21
93.8740194059
 31
0.0
  0
ENDSEC
  0
SECTION
  2
OBJECTS
  0
DICTIONARY
  5
C
330
0
100
AcDbDictionary
281
     1
  3
ACAD_GROUP
350
D
  3
ACAD_LAYOUT
350
1A
  3
ACAD_MLINESTYLE
350
17
  3
ACAD_PLOTSETTINGS
350
19
  3
ACAD_PLOTSTYLENAME
350
E
  3
ACAD_SCALELIST
350
47
  3
DWGPROPS
350
110
  0
DICTIONARY
  5
D
102
{ACAD_REACTORS
330
C
102
}
330
C
100
AcDbDictionary
281
     1
  0
DICTIONARY
  5
1A
102
{ACAD_REACTORS
330
C
102
}
330
C
100
AcDbDictionary
281
     1
  3
Layout1
350
1E
  3
Layout2
350
26
  3
Model
350
22
  0
DICTIONARY
  5
17
102
{ACAD_REACTORS
330
C
102
}
330
C
100
AcDbDictionary
281
     1
  3
Standard
350
18
  0
DICTIONARY
  5
19
102
{ACAD_REACTORS
330
C
102
}
330
C
100
AcDbDictionary
281
     1
  0
ACDBDICTIONARYWDFLT
  5
E
102
{ACAD_REACTORS
330
C
102
}
330
C
100
AcDbDictionary
281
     1
  3
Normal
350
F
100
AcDbDictionaryWithDefault
340
F
  0
DICTIONARY
  5
47
102
{ACAD_REACTORS
330
C
102
}
330
C
100
AcDbDictionary
281
     1
  3
A0
350
48
  3
A1
350
49
  3
A2
350
4A
  3
A3
350
4B
  3
A4
350
4C
  3
A5
350
4D
  3
A6
350
4E
  3
A7
350
4F
  3
A8
350
50
  3
A9
350
51
  3
B0
350
52
  3
B1
350
53
  3
B2
350
54
  3
B3
350
55
  3
B4
350
56
  3
B5
350
57
  3
B6
350
58
  0
XRECORD
  5
110
102
{ACAD_REACTORS
330
C
102
}
330
C
100
AcDbXrecord
280
     1
  1
DWGPROPS COOKIE
  2

  3

  4

  6

  7

  8

  9

300
=
301
=
302
=
303
=
304
=
305
=
306
=
307
=
308
=
309
=
 40
0.0
 41
2461215.201258692
 42
2461215.201258959
  1

 90
        0
  0
LAYOUT
  5
1E
102
{ACAD_REACTORS
330
1A
102
}
330
1A
100
AcDbPlotSettings
  1

  2
none_device
  4

  6

 40
0.0
 41
0.0
 42
0.0
 43
0.0
 44
0.0
 45
0.0
 46
0.0
 47
0.0
 48
0.0
 49
0.0
140
0.0
141
0.0
142
1.0
143
1.0
 70
   688
 72
     1
 73
     0
 74
     5
  7

 75
    16
147
1.0
148
0.0
149
0.0
100
AcDbLayout
  1
Layout1
 70
     1
 71
     1
 10
0.0
 20
0.0
 11
420.0
 21
297.0
 12
0.0
 22
0.0
 32
0.0
 14
1.0000000000E+20
 24
1.0000000000E+20
 34
1.0000000000E+20
 15
-1.0000000000E+20
 25
-1.0000000000E+20
 35
-1.0000000000E+20
146
0.0
 13
0.0
 23
0.0
 33
0.0
 16
1.0
 26
0.0
 36
0.0
 17
0.0
 27
1.0
 37
0.0
 76
     0
330
1B
  0
LAYOUT
  5
26
102
{ACAD_REACTORS
330
1A
102
}
330
1A
100
AcDbPlotSettings
  1

  2
none_device
  4

  6

 40
0.0
 41
0.0
 42
0.0
 43
0.0
 44
0.0
 45
0.0
 46
0.0
 47
0.0
 48
0.0
 49
0.0
140
0.0
141
0.0
142
1.0
143
1.0
 70
   688
 72
     1
 73
     0
 74
     5
  7

 75
    16
147
1.0
148
0.0
149
0.0
100
AcDbLayout
  1
Layout2
 70
     1
 71
     2
 10
0.0
 20
0.0
 11
0.0
 21
0.0
 12
0.0
 22
0.0
 32
0.0
 14
0.0
 24
0.0
 34
0.0
 15
0.0
 25
0.0
 35
0.0
146
0.0
 13
0.0
 23
0.0
 33
0.0
 16
1.0
 26
0.0
 36
0.0
 17
0.0
 27
1.0
 37
0.0
 76
     0
330
23
  0
LAYOUT
  5
22
102
{ACAD_REACTORS
330
1A
102
}
330
1A
100
AcDbPlotSettings
  1

  2
none_device
  4
Letter_(8.50_x_11.00_Inches)
  6

 40
6.35
 41
6.35
 42
6.35000508
 43
6.35000508
 44
215.9
 45
279.4
 46
0.0
 47
0.0
 48
0.0
 49
0.0
140
0.0
141
0.0
142
1.0
143
1.0
 70
  1712
 72
     1
 73
     0
 74
     0
  7

 75
     0
147
1.0
148
0.0
149
0.0
100
AcDbLayout
  1
Model
 70
     1
 71
     0
 10
0.0
 20
0.0
 11
297.0
 21
210.0
 12
0.0
 22
0.0
 32
0.0
 14
0.0
 24
0.0
 34
0.0
 15
297.0
 25
210.0
 35
0.0
146
0.0
 13
0.0
 23
0.0
 33
0.0
 16
1.0
 26
0.0
 36
0.0
 17
0.0
 27
1.0
 37
0.0
 76
     0
330
1F
331
29
  0
MLINESTYLE
  5
18
102
{ACAD_REACTORS
330
17
102
}
330
17
100
AcDbMlineStyle
  2
Standard
 70
     0
  3

 62
   256
 51
90.0
 52
90.0
 71
     2
 49
0.5
 62
   256
  6
BYLAYER
 49
-0.5
 62
   256
  6
BYLAYER
  0
ACDBPLACEHOLDER
  5
F
102
{ACAD_REACTORS
330
E
102
}
330
E
  0
SCALE
  5
48
102
{ACAD_REACTORS
330
47
102
}
330
47
100
AcDbScale
 70
     0
300
1:1
140
1.0
141
1.0
290
     1
  0
SCALE
  5
49
102
{ACAD_REACTORS
330
47
102
}
330
47
100
AcDbScale
 70
     0
300
1:2
140
1.0
141
2.0
290
     0
  0
SCALE
  5
4A
102
{ACAD_REACTORS
330
47
102
}
330
47
100
AcDbScale
 70
     0
300
1:4
140
1.0
141
4.0
290
     0
  0
SCALE
  5
4B
102
{ACAD_REACTORS
330
47
102
}
330
47
100
AcDbScale
 70
     0
300
1:5
140
1.0
141
5.0
290
     0
  0
SCALE
  5
4C
102
{ACAD_REACTORS
330
47
102
}
330
47
100
AcDbScale
 70
     0
300
1:8
140
1.0
141
8.0
290
     0
  0
SCALE
  5
4D
102
{ACAD_REACTORS
330
47
102
}
330
47
100
AcDbScale
 70
     0
300
1:10
140
1.0
141
10.0
290
     0
  0
SCALE
  5
4E
102
{ACAD_REACTORS
330
47
102
}
330
47
100
AcDbScale
 70
     0
300
1:16
140
1.0
141
16.0
290
     0
  0
SCALE
  5
4F
102
{ACAD_REACTORS
330
47
102
}
330
47
100
AcDbScale
 70
     0
300
1:20
140
1.0
141
20.0
290
     0
  0
SCALE
  5
50
102
{ACAD_REACTORS
330
47
102
}
330
47
100
AcDbScale
 70
     0
300
1:30
140
1.0
141
30.0
290
     0
  0
SCALE
  5
51
102
{ACAD_REACTORS
330
47
102
}
330
47
100
AcDbScale
 70
     0
300
1:40
140
1.0
141
40.0
290
     0
  0
SCALE
  5
52
102
{ACAD_REACTORS
330
47
102
}
330
47
100
AcDbScale
 70
     0
300
1:50
140
1.0
141
50.0
290
     0
  0
SCALE
  5
53
102
{ACAD_REACTORS
330
47
102
}
330
47
100
AcDbScale
 70
     0
300
1:100
140
1.0
141
100.0
290
     0
  0
SCALE
  5
54
102
{ACAD_REACTORS
330
47
102
}
330
47
100
AcDbScale
 70
     0
300
2:1
140
2.0
141
1.0
290
     0
  0
SCALE
  5
55
102
{ACAD_REACTORS
330
47
102
}
330
47
100
AcDbScale
 70
     0
300
4:1
140
4.0
141
1.0
290
     0
  0
SCALE
  5
56
102
{ACAD_REACTORS
330
47
102
}
330
47
100
AcDbScale
 70
     0
300
8:1
140
8.0
141
1.0
290
     0
  0
SCALE
  5
57
102
{ACAD_REACTORS
330
47
102
}
330
47
100
AcDbScale
 70
     0
300
10:1
140
10.0
141
1.0
290
     0
  0
SCALE
  5
58
102
{ACAD_REACTORS
330
47
102
}
330
47
100
AcDbScale
 70
     0
300
100:1
140
100.0
141
1.0
290
     0
  0
ENDSEC
  0
EOF
