  0
SECTION
  2
HEADER
  9
$ACADVER
  1
AC1015
  9
$ACADMAINTVER
 70
     6
  9
$DWGCODEPAGE
  3
ANSI_936
  9
$INSBASE
 10
0.0
 20
0.0
 30
0.0
  9
$EXTMIN
 10
0.0
 20
0.0
 30
0.0
  9
$EXTMAX
 10
297.0
 20
210.0
 30
0.0
  9
$LIMMIN
 10
0.0
 20
0.0
  9
$LIMMAX
 10
297.0
 20
210.0
  9
$ORTHOMODE
 70
     0
  9
$REGENMODE
 70
     1
  9
$FILLMODE
 70
     1
  9
$QTEXTMODE
 70
     0
  9
$MIRRTEXT
 70
     1
  9
$LTSCALE
 40
1.0
  9
$ATTMODE
 70
     1
  9
$TEXTSIZE
 40
3.5
  9
$TRACEWID
 40
1.0
  9
$TEXTSTYLE
  7
Standard
  9
$CLAYER
  8
0
  9
$CELTYPE
  6
ByLayer
  9
$CECOLOR
 62
   256
  9
$CELTSCALE
 40
1.0
  9
$DISPSILH
 70
     0
  9
$DIMSCALE
 40
1.0
  9
$DIMASZ
 40
4.08
  9
$DIMEXO
 40
0.0
  9
$DIMDLI
 40
3.75
  9
$DIMRND
 40
0.0
  9
$DIMDLE
 40
0.0
  9
$DIMEXE
 40
2.0
  9
$DIMTP
 40
0.0
  9
$DIMTM
 40
0.0
  9
$DIMTXT
 40
3.5
  9
$DIMCEN
 40
2.5
  9
$DIMTSZ
 40
0.0
  9
$DIMTOL
 70
     0
  9
$DIMLIM
 70
     0
  9
$DIMTIH
 70
     1
  9
$DIMTOH
 70
     1
  9
$DIMSE1
 70
     0
  9
$DIMSE2
 70
     0
  9
$DIMTAD
 70
     1
  9
$DIMZIN
 70
     0
  9
$DIMBLK
  1

  9
$DIMASO
 70
     1
  9
$DIMSHO
 70
     1
  9
$DIMPOST
  1

  9
$DIMAPOST
  1

  9
$DIMALT
 70
     0
  9
$DIMALTD
 70
     3
  9
$DIMALTF
 40
0.0393700787
  9
$DIMLFAC
 40
2.0
  9
$DIMTOFL
 70
     1
  9
$DIMTVP
 40
0.0
  9
$DIMTIX
 70
     0
  9
$DIMSOXD
 70
     0
  9
$DIMSAH
 70
     0
  9
$DIMBLK1
  1

  9
$DIMBLK2
  1

  9
$DIMSTYLE
  2
ISO-25
  9
$DIMCLRD
 70
     0
  9
$DIMCLRE
 70
     0
  9
$DIMCLRT
 70
     0
  9
$DIMTFAC
 40
1.0
  9
$DIMGAP
 40
1.524
  9
$DIMJUST
 70
     0
  9
$DIMSD1
 70
     0
  9
$DIMSD2
 70
     0
  9
$DIMTOLJ
 70
     0
  9
$DIMTZIN
 70
     0
  9
$DIMALTZ
 70
     0
  9
$DIMALTTZ
 70
     0
  9
$DIMUPT
 70
     0
  9
$DIMDEC
 70
     2
  9
$DIMTDEC
 70
     2
  9
$DIMALTU
 70
     2
  9
$DIMALTTD
 70
     3
  9
$DIMTXSTY
  7
Standard
  9
$DIMAUNIT
 70
     0
  9
$DIMADEC
 70
     2
  9
$DIMALTRND
 40
0.0
  9
$DIMAZIN
 70
     0
  9
$DIMDSEP
 70
    44
  9
$DIMATFIT
 70
     3
  9
$DIMFRAC
 70
     0
  9
$DIMLDRBLK
  1

  9
$DIMLUNIT
 70
     2
  9
$DIMLWD
 70
    -2
  9
$DIMLWE
 70
    -2
  9
$DIMTMOVE
 70
     0
  9
$LUNITS
 70
     2
  9
$LUPREC
 70
     2
  9
$SKETCHINC
 40
1.0
  9
$FILLETRAD
 40
0.0
  9
$AUNITS
 70
     0
  9
$AUPREC
 70
     2
  9
$MENU
  1
.
  9
$ELEVATION
 40
0.0
  9
$PELEVATION
 40
0.0
  9
$THICKNESS
 40
0.0
  9
$LIMCHECK
 70
     0
  9
$CHAMFERA
 40
0.0
  9
$CHAMFERB
 40
0.0
  9
$CHAMFERC
 40
0.0
  9
$CHAMFERD
 40
0.0
  9
$SKPOLY
 70
     0
  9
$TDCREATE
 40
2461215.557267546
  9
$TDUCREATE
 40
2461215.223934213
  9
$TDUPDATE
 40
2461215.557267928
  9
$TDUUPDATE
 40
2461215.223934595
  9
$TDINDWG
 40
0.0000000116
  9
$TDUSRTIMER
 40
0.0000000116
  9
$USRTIMER
 70
     1
  9
$ANGBASE
 50
0.0
  9
$ANGDIR
 70
     0
  9
$PDMODE
 70
     0
  9
$PDSIZE
 40
-1.0
  9
$PLINEWID
 40
0.0
  9
$SPLFRAME
 70
     0
  9
$SPLINETYPE
 70
     6
  9
$SPLINESEGS
 70
     8
  9
$HANDSEED
  5
121
  9
$SURFTAB1
 70
     6
  9
$SURFTAB2
 70
     6
  9
$SURFTYPE
 70
     6
  9
$SURFU
 70
     6
  9
$SURFV
 70
     6
  9
$UCSBASE
  2

  9
$UCSNAME
  2

  9
$UCSORG
 10
0.0
 20
0.0
 30
0.0
  9
$UCSXDIR
 10
1.0
 20
0.0
 30
0.0
  9
$UCSYDIR
 10
0.0
 20
1.0
 30
0.0
  9
$UCSORTHOREF
  2

  9
$UCSORTHOVIEW
 70
     0
  9
$UCSORGTOP
 10
0.0
 20
0.0
 30
0.0
  9
$UCSORGBOTTOM
 10
0.0
 20
0.0
 30
0.0
  9
$UCSORGLEFT
 10
0.0
 20
0.0
 30
0.0
  9
$UCSORGRIGHT
 10
0.0
 20
0.0
 30
0.0
  9
$UCSORGFRONT
 10
0.0
 20
0.0
 30
0.0
  9
$UCSORGBACK
 10
0.0
 20
0.0
 30
0.0
  9
$PUCSBASE
  2

  9
$PUCSNAME
  2

  9
$PUCSORG
 10
0.0
 20
0.0
 30
0.0
  9
$PUCSXDIR
 10
1.0
 20
0.0
 30
0.0
  9
$PUCSYDIR
 10
0.0
 20
1.0
 30
0.0
  9
$PUCSORTHOREF
  2

  9
$PUCSORTHOVIEW
 70
     0
  9
$PUCSORGTOP
 10
0.0
 20
0.0
 30
0.0
  9
$PUCSORGBOTTOM
 10
0.0
 20
0.0
 30
0.0
  9
$PUCSORGLEFT
 10
0.0
 20
0.0
 30
0.0
  9
$PUCSORGRIGHT
 10
0.0
 20
0.0
 30
0.0
  9
$PUCSORGFRONT
 10
0.0
 20
0.0
 30
0.0
  9
$PUCSORGBACK
 10
0.0
 20
0.0
 30
0.0
  9
$USERI1
 70
     0
  9
$USERI2
 70
     0
  9
$USERI3
 70
     0
  9
$USERI4
 70
     0
  9
$USERI5
 70
     0
  9
$USERR1
 40
0.0
  9
$USERR2
 40
0.0
  9
$USERR3
 40
0.0
  9
$USERR4
 40
0.0
  9
$USERR5
 40
0.0
  9
$WORLDVIEW
 70
     1
  9
$SHADEDGE
 70
     3
  9
$SHADEDIF
 70
    70
  9
$TILEMODE
 70
     1
  9
$MAXACTVP
 70
    64
  9
$PINSBASE
 10
0.0
 20
0.0
 30
0.0
  9
$PLIMCHECK
 70
     0
  9
$PEXTMIN
 10
1.0000000000E+20
 20
1.0000000000E+20
 30
1.0000000000E+20
  9
$PEXTMAX
 10
-1.0000000000E+20
 20
-1.0000000000E+20
 30
-1.0000000000E+20
  9
$PLIMMIN
 10
0.0
 20
0.0
  9
$PLIMMAX
 10
420.0
 20
297.0
  9
$UNITMODE
 70
     0
  9
$VISRETAIN
 70
     1
  9
$PLINEGEN
 70
     0
  9
$PSLTSCALE
 70
     1
  9
$TREEDEPTH
 70
  3020
  9
$CMLSTYLE
  2
Standard
  9
$CMLJUST
 70
     0
  9
$CMLSCALE
 40
20.0
  9
$PROXYGRAPHICS
 70
     1
  9
$MEASUREMENT
 70
     1
  9
$CELWEIGHT
370
    -1
  9
$ENDCAPS
280
     0
  9
$JOINSTYLE
280
     0
  9
$LWDISPLAY
290
     1
  9
$INSUNITS
 70
     4
  9
$HYPERLINKBASE
  1

  9
$STYLESHEET
  1

  9
$XEDIT
290
     1
  9
$CEPSNTYPE
380
     0
  9
$PSTYLEMODE
290
     1
  9
$FINGERPRINTGUID
  2
{506be328-60b7-4a6f-9afb-7c3a642fe73e}
  9
$VERSIONGUID
  2
{FAEB1C32-E019-11D5-929B-00C0DF256EC4}
  9
$EXTNAMES
290
     1
  9
$PSVPSCALE
 40
0.0
  9
$OLESTARTUP
290
     0
  0
ENDSEC
  0
SECTION
  2
CLASSES
  0
CLASS
  1
ACDBDICTIONARYWDFLT
  2
AcDbDictionaryWithDefault
  3
ObjectDBX Classes
 90
        0
280
     0
281
     0
  0
CLASS
  1
VISUALSTYLE
  2
AcDbVisualStyle
  3
ObjectDBX Classes
 90
     4095
280
     0
281
     0
  0
CLASS
  1
MATERIAL
  2
AcDbMaterial
  3
ObjectDBX Classes
 90
     1153
280
     0
281
     0
  0
CLASS
  1
SCALE
  2
AcDbScale
  3
ObjectDBX Classes
 90
     1153
280
     0
281
     0
  0
CLASS
  1
TABLESTYLE
  2
AcDbTableStyle
  3
ObjectDBX Classes
 90
     4095
280
     0
281
     0
  0
CLASS
  1
MLEADERSTYLE
  2
AcDbMLeaderStyle
  3
ACDB_MLEADERSTYLE_CLASS
 90
     4095
280
     0
281
     0
  0
CLASS
  1
SUN
  2
AcDbSun
  3
SCENEOE
 90
     1153
280
     0
281
     0
  0
CLASS
  1
ACDBPLACEHOLDER
  2
AcDbPlaceHolder
  3
ObjectDBX Classes
 90
        0
280
     0
281
     0
  0
CLASS
  1
LAYOUT
  2
AcDbLayout
  3
ObjectDBX Classes
 90
        0
280
     0
281
     0
  0
ENDSEC
  0
SECTION
  2
TABLES
  0
TABLE
  2
VPORT
  5
8
330
0
100
AcDbSymbolTable
 70
     1
  0
VPORT
  5
29
330
8
100
AcDbSymbolTableRecord
100
AcDbViewportTableRecord
  2
*Active
 70
     0
 10
0.0
 20
0.0
 11
1.0
 21
1.0
 12
148.5
 22
105.0
 13
0.0
 23
0.0
 14
10.0
 24
10.0
 15
10.0
 25
10.0
 16
0.0
 26
0.0
 36
1.0
 17
0.0
 27
0.0
 37
0.0
 40
210.0
 41
1.4142857143
 42
50.0
 43
0.0
 44
0.0
 50
0.0
 51
0.0
 71
     0
 72
  2000
 73
     1
 74
     3
 75
     0
 76
     0
 77
     0
 78
     0
281
     0
 65
     1
110
0.0
120
0.0
130
0.0
111
1.0
121
0.0
131
0.0
112
0.0
122
1.0
132
0.0
 79
     0
146
0.0
  0
ENDTAB
  0
TABLE
  2
LTYPE
  5
5
330
0
100
AcDbSymbolTable
 70
     6
  0
LTYPE
  5
14
330
5
100
AcDbSymbolTableRecord
100
AcDbLinetypeTableRecord
  2
ByBlock
 70
     0
  3

 72
    65
 73
     0
 40
0.0
  0
LTYPE
  5
15
330
5
100
AcDbSymbolTableRecord
100
AcDbLinetypeTableRecord
  2
ByLayer
 70
     0
  3

 72
    65
 73
     0
 40
0.0
  0
LTYPE
  5
16
330
5
100
AcDbSymbolTableRecord
100
AcDbLinetypeTableRecord
  2
Continuous
 70
     0
  3
Solid line
 72
    65
 73
     0
 40
0.0
  0
LTYPE
  5
5E
330
5
100
AcDbSymbolTableRecord
100
AcDbLinetypeTableRecord
  2
HIDDEN
 70
     0
  3
Hidden __ __ __ __ __ __ __ __ __ __ __ __ __ __
 72
    65
 73
     2
 40
1.905
 49
1.27
 74
     0
 49
-0.635
 74
     0
  0
LTYPE
  5
5F
330
5
100
AcDbSymbolTableRecord
100
AcDbLinetypeTableRecord
  2
PHANTOM
 70
     0
  3
Phantom ______  __  __  ______  __  __  ______
 72
    65
 73
     6
 40
12.7
 49
6.35
 74
     0
 49
-1.27
 74
     0
 49
1.27
 74
     0
 49
-1.27
 74
     0
 49
1.27
 74
     0
 49
-1.27
 74
     0
  0
LTYPE
  5
60
330
5
100
AcDbSymbolTableRecord
100
AcDbLinetypeTableRecord
  2
CENTER
 70
     0
  3
Center ____ _ ____ _ ____ _ ____ _ ____ _ ____
 72
    65
 73
     4
 40
10.16
 49
6.35
 74
     0
 49
-1.27
 74
     0
 49
1.27
 74
     0
 49
-1.27
 74
     0
  0
LTYPE
  5
61
330
5
100
AcDbSymbolTableRecord
100
AcDbLinetypeTableRecord
  2
CENTERX2
 70
     0
  3
Center (2x) ________  __  ________  __  _____
 72
    65
 73
     4
 40
20.32
 49
12.7
 74
     0
 49
-2.54
 74
     0
 49
2.54
 74
     0
 49
-2.54
 74
     0
  0
LTYPE
  5
62
330
5
100
AcDbSymbolTableRecord
100
AcDbLinetypeTableRecord
  2
DOT2
 70
     0
  3
Dot (.5x) ........................................
 72
    65
 73
     2
 40
0.635
 49
0.0
 74
     0
 49
-0.635
 74
     0
  0
ENDTAB
  0
TABLE
  2
LAYER
  5
2
330
0
100
AcDbSymbolTable
 70
    14
  0
LAYER
  5
10
330
2
100
AcDbSymbolTableRecord
100
AcDbLayerTableRecord
  2
0
 70
     0
 62
     7
  6
Continuous
370
    -3
390
F
  0
LAYER
  5
63
330
2
100
AcDbSymbolTableRecord
100
AcDbLayerTableRecord
  2
SLD-0
 70
     0
 62
     7
  6
Continuous
370
    -3
390
F
  0
LAYER
  5
64
330
2
100
AcDbSymbolTableRecord
100
AcDbLayerTableRecord
  2
5
 70
     0
 62
     7
  6
Continuous
370
    -3
390
F
  0
LAYER
  5
65
330
2
100
AcDbSymbolTableRecord
100
AcDbLayerTableRecord
  2
9
 70
     0
 62
     7
  6
Continuous
370
    -3
390
F
  0
LAYER
  5
66
330
2
100
AcDbSymbolTableRecord
100
AcDbLayerTableRecord
  2
10
 70
     0
 62
     7
  6
Continuous
370
    -3
390
F
  0
LAYER
  5
67
330
2
100
AcDbSymbolTableRecord
100
AcDbLayerTableRecord
  2
轮廓实线层
 70
     0
 62
     7
  6
Continuous
370
    50
390
F
  0
LAYER
  5
68
330
2
100
AcDbSymbolTableRecord
100
AcDbLayerTableRecord
  2
细线层
 70
     0
 62
     4
  6
Continuous
370
    25
390
F
  0
LAYER
  5
69
330
2
100
AcDbSymbolTableRecord
100
AcDbLayerTableRecord
  2
中心线层
 70
     0
 62
     1
  6
CENTERX2
370
    25
390
F
  0
LAYER
  5
6A
330
2
100
AcDbSymbolTableRecord
100
AcDbLayerTableRecord
  2
虚线层
 70
     0
 62
     6
  6
HIDDEN
370
    25
390
F
  0
LAYER
  5
6B
330
2
100
AcDbSymbolTableRecord
100
AcDbLayerTableRecord
  2
剖面线层
 70
     0
 62
     2
  6
Continuous
370
    25
390
F
  0
LAYER
  5
6C
330
2
100
AcDbSymbolTableRecord
100
AcDbLayerTableRecord
  2
文字层
 70
     0
 62
     3
  6
Continuous
370
    25
390
F
  0
LAYER
  5
6D
330
2
100
AcDbSymbolTableRecord
100
AcDbLayerTableRecord
  2
标注层
 70
     0
 62
     4
  6
Continuous
370
    25
390
F
  0
LAYER
  5
6E
330
2
100
AcDbSymbolTableRecord
100
AcDbLayerTableRecord
  2
符号标注层
 70
     0
 62
    31
  6
Continuous
370
    25
390
F
  0
LAYER
  5
6F
330
2
100
AcDbSymbolTableRecord
100
AcDbLayerTableRecord
  2
双点划线层
 70
     0
 62
     6
  6
PHANTOM
370
    25
390
F
  0
ENDTAB
  0
TABLE
  2
STYLE
  5
3
330
0
100
AcDbSymbolTable
 70
     1
  0
STYLE
  5
11
330
3
100
AcDbSymbolTableRecord
100
AcDbTextStyleTableRecord
  2
Standard
 70
     0
 40
0.0
 41
1.0
 50
0.0
 71
     0
 42
3.5
  3
txt
  4

  0
ENDTAB
  0
TABLE
  2
VIEW
  5
6
330
0
100
AcDbSymbolTable
 70
     0
  0
ENDTAB
  0
TABLE
  2
UCS
  5
7
330
0
100
AcDbSymbolTable
 70
     0
  0
ENDTAB
  0
TABLE
  2
APPID
  5
9
330
0
100
AcDbSymbolTable
 70
     1
  0
APPID
  5
12
330
9
100
AcDbSymbolTableRecord
100
AcDbRegAppTableRecord
  2
ACAD
 70
     0
  0
ENDTAB
  0
TABLE
  2
DIMSTYLE
  5
A
330
0
100
AcDbSymbolTable
 70
     1
100
AcDbDimStyleTable
  0
DIMSTYLE
105
27
330
A
100
AcDbSymbolTableRecord
100
AcDbDimStyleTableRecord
  2
ISO-25
 70
     0
 41
2.5
 42
0.625
 43
3.75
 44
1.25
 73
     0
 74
     0
 77
     1
 78
     8
140
2.5
141
2.5
143
0.0393700787
147
0.625
171
     3
172
     1
178
     0
271
     2
272
     2
274
     3
278
    44
283
     0
284
     8
340
11
  0
ENDTAB
  0
TABLE
  2
BLOCK_RECORD
  5
1
330
0
100
AcDbSymbolTable
 70
     5
  0
BLOCK_RECORD
  5
1F
330
1
100
AcDbSymbolTableRecord
100
AcDbBlockTableRecord
  2
*Model_Space
340
22
  0
BLOCK_RECORD
  5
1B
330
1
100
AcDbSymbolTableRecord
100
AcDbBlockTableRecord
  2
*Paper_Space
340
1E
  0
BLOCK_RECORD
  5
23
330
1
100
AcDbSymbolTableRecord
100
AcDbBlockTableRecord
  2
*Paper_Space0
340
26
  0
BLOCK_RECORD
  5
BA
330
1
100
AcDbSymbolTableRecord
100
AcDbBlockTableRecord
  2
SW_CENTERMARKSYMBOL_0
340
0
102
{BLKREFS
331
C5
102
}
  0
BLOCK_RECORD
  5
C6
330
1
100
AcDbSymbolTableRecord
100
AcDbBlockTableRecord
  2
SW_CENTERMARKSYMBOL_1
340
0
102
{BLKREFS
331
D1
102
}
  0
BLOCK_RECORD
  5
D2
330
1
100
AcDbSymbolTableRecord
100
AcDbBlockTableRecord
  2
SW_CENTERMARKSYMBOL_2
340
0
102
{BLKREFS
331
DD
102
}
  0
BLOCK_RECORD
  5
DE
330
1
100
AcDbSymbolTableRecord
100
AcDbBlockTableRecord
  2
SW_CENTERMARKSYMBOL_3
340
0
102
{BLKREFS
331
E9
102
}
  0
ENDTAB
  0
ENDSEC
  0
SECTION
  2
BLOCKS
  0
BLOCK
  5
20
330
1F
100
AcDbEntity
  8
0
100
AcDbBlockBegin
  2
*Model_Space
 70
     0
 10
0.0
 20
0.0
 30
0.0
  3
*Model_Space
  1

  0
ENDBLK
  5
21
330
1F
100
AcDbEntity
  8
0
100
AcDbBlockEnd
  0
BLOCK
  5
1C
330
1B
100
AcDbEntity
 67
     1
  8
0
100
AcDbBlockBegin
  2
*Paper_Space
 70
     0
 10
0.0
 20
0.0
 30
0.0
  3
*Paper_Space
  1

  0
ENDBLK
  5
1D
330
1B
100
AcDbEntity
 67
     1
  8
0
100
AcDbBlockEnd
  0
BLOCK
  5
24
330
23
100
AcDbEntity
  8
0
100
AcDbBlockBegin
  2
*Paper_Space0
 70
     0
 10
0.0
 20
0.0
 30
0.0
  3
*Paper_Space0
  1

  0
ENDBLK
  5
25
330
23
100
AcDbEntity
  8
0
100
AcDbBlockEnd
  0
BLOCK
  5
BB
330
BA
100
AcDbEntity
  8
0
100
AcDbBlockBegin
  2
SW_CENTERMARKSYMBOL_0
 70
     0
 10
0.0
 20
0.0
 30
0.0
  3
SW_CENTERMARKSYMBOL_0
  1

  0
LINE
  5
BD
330
BA
100
AcDbEntity
  8
10
 62
     0
100
AcDbLine
 10
0.0
 20
0.0
 30
0.0
 11
0.0
 21
2.5
 31
0.0
  0
LINE
  5
BE
330
BA
100
AcDbEntity
  8
10
 62
     0
100
AcDbLine
 10
0.0
 20
0.0
 30
0.0
 11
-2.5
 21
0.0
 31
0.0
  0
LINE
  5
BF
330
BA
100
AcDbEntity
  8
10
 62
     0
100
AcDbLine
 10
0.0
 20
0.0
 30
0.0
 11
0.0
 21
-2.5
 31
0.0
  0
LINE
  5
C0
330
BA
100
AcDbEntity
  8
10
 62
     0
100
AcDbLine
 10
0.0
 20
0.0
 30
0.0
 11
2.5
 21
0.0
 31
0.0
  0
LINE
  5
C1
330
BA
100
AcDbEntity
  8
10
 62
     0
100
AcDbLine
 10
0.0
 20
5.0
 30
0.0
 11
0.0
 21
6.1231884058
 31
0.0
  0
LINE
  5
C2
330
BA
100
AcDbEntity
  8
10
 62
     0
100
AcDbLine
 10
-5.0
 20
0.0
 30
0.0
 11
-6.1231884058
 21
0.0
 31
0.0
  0
LINE
  5
C3
330
BA
100
AcDbEntity
  8
10
 62
     0
100
AcDbLine
 10
0.0
 20
-5.0
 30
0.0
 11
0.0
 21
-6.1231884058
 31
0.0
  0
LINE
  5
C4
330
BA
100
AcDbEntity
  8
10
 62
     0
100
AcDbLine
 10
5.0
 20
0.0
 30
0.0
 11
6.1231884058
 21
0.0
 31
0.0
  0
ENDBLK
  5
BC
330
BA
100
AcDbEntity
  8
0
100
AcDbBlockEnd
  0
BLOCK
  5
C7
330
C6
100
AcDbEntity
  8
0
100
AcDbBlockBegin
  2
SW_CENTERMARKSYMBOL_1
 70
     0
 10
0.0
 20
0.0
 30
0.0
  3
SW_CENTERMARKSYMBOL_1
  1

  0
LINE
  5
C9
330
C6
100
AcDbEntity
  8
10
 62
     0
100
AcDbLine
 10
0.0
 20
0.0
 30
0.0
 11
0.0
 21
2.5
 31
0.0
  0
LINE
  5
CA
330
C6
100
AcDbEntity
  8
10
 62
     0
100
AcDbLine
 10
0.0
 20
0.0
 30
0.0
 11
-2.5
 21
0.0
 31
0.0
  0
LINE
  5
CB
330
C6
100
AcDbEntity
  8
10
 62
     0
100
AcDbLine
 10
0.0
 20
0.0
 30
0.0
 11
0.0
 21
-2.5
 31
0.0
  0
LINE
  5
CC
330
C6
100
AcDbEntity
  8
10
 62
     0
100
AcDbLine
 10
0.0
 20
0.0
 30
0.0
 11
2.5
 21
0.0
 31
0.0
  0
LINE
  5
CD
330
C6
100
AcDbEntity
  8
10
 62
     0
100
AcDbLine
 10
0.0
 20
5.0
 30
0.0
 11
0.0
 21
6.1231884058
 31
0.0
  0
LINE
  5
CE
330
C6
100
AcDbEntity
  8
10
 62
     0
100
AcDbLine
 10
-5.0
 20
0.0
 30
0.0
 11
-6.1231884058
 21
0.0
 31
0.0
  0
LINE
  5
CF
330
C6
100
AcDbEntity
  8
10
 62
     0
100
AcDbLine
 10
0.0
 20
-5.0
 30
0.0
 11
0.0
 21
-6.1231884058
 31
0.0
  0
LINE
  5
D0
330
C6
100
AcDbEntity
  8
10
 62
     0
100
AcDbLine
 10
5.0
 20
0.0
 30
0.0
 11
6.1231884058
 21
0.0
 31
0.0
  0
ENDBLK
  5
C8
330
C6
100
AcDbEntity
  8
0
100
AcDbBlockEnd
  0
BLOCK
  5
D3
330
D2
100
AcDbEntity
  8
0
100
AcDbBlockBegin
  2
SW_CENTERMARKSYMBOL_2
 70
     0
 10
0.0
 20
0.0
 30
0.0
  3
SW_CENTERMARKSYMBOL_2
  1

  0
LINE
  5
D5
330
D2
100
AcDbEntity
  8
10
 62
     0
100
AcDbLine
 10
0.0
 20
0.0
 30
0.0
 11
0.0
 21
2.5
 31
0.0
  0
LINE
  5
D6
330
D2
100
AcDbEntity
  8
10
 62
     0
100
AcDbLine
 10
0.0
 20
0.0
 30
0.0
 11
-2.5
 21
0.0
 31
0.0
  0
LINE
  5
D7
330
D2
100
AcDbEntity
  8
10
 62
     0
100
AcDbLine
 10
0.0
 20
0.0
 30
0.0
 11
0.0
 21
-2.5
 31
0.0
  0
LINE
  5
D8
330
D2
100
AcDbEntity
  8
10
 62
     0
100
AcDbLine
 10
0.0
 20
0.0
 30
0.0
 11
2.5
 21
0.0
 31
0.0
  0
LINE
  5
D9
330
D2
100
AcDbEntity
  8
10
 62
     0
100
AcDbLine
 10
0.0
 20
5.0
 30
0.0
 11
0.0
 21
6.1231884058
 31
0.0
  0
LINE
  5
DA
330
D2
100
AcDbEntity
  8
10
 62
     0
100
AcDbLine
 10
-5.0
 20
0.0
 30
0.0
 11
-6.1231884058
 21
0.0
 31
0.0
  0
LINE
  5
DB
330
D2
100
AcDbEntity
  8
10
 62
     0
100
AcDbLine
 10
0.0
 20
-5.0
 30
0.0
 11
0.0
 21
-6.1231884058
 31
0.0
  0
LINE
  5
DC
330
D2
100
AcDbEntity
  8
10
 62
     0
100
AcDbLine
 10
5.0
 20
0.0
 30
0.0
 11
6.1231884058
 21
0.0
 31
0.0
  0
ENDBLK
  5
D4
330
D2
100
AcDbEntity
  8
0
100
AcDbBlockEnd
  0
BLOCK
  5
DF
330
DE
100
AcDbEntity
  8
0
100
AcDbBlockBegin
  2
SW_CENTERMARKSYMBOL_3
 70
     0
 10
0.0
 20
0.0
 30
0.0
  3
SW_CENTERMARKSYMBOL_3
  1

  0
LINE
  5
E1
330
DE
100
AcDbEntity
  8
10
 62
     0
100
AcDbLine
 10
0.0
 20
0.0
 30
0.0
 11
0.0
 21
2.5
 31
0.0
  0
LINE
  5
E2
330
DE
100
AcDbEntity
  8
10
 62
     0
100
AcDbLine
 10
0.0
 20
0.0
 30
0.0
 11
-2.5
 21
0.0
 31
0.0
  0
LINE
  5
E3
330
DE
100
AcDbEntity
  8
10
 62
     0
100
AcDbLine
 10
0.0
 20
0.0
 30
0.0
 11
0.0
 21
-2.5
 31
0.0
  0
LINE
  5
E4
330
DE
100
AcDbEntity
  8
10
 62
     0
100
AcDbLine
 10
0.0
 20
0.0
 30
0.0
 11
2.5
 21
0.0
 31
0.0
  0
LINE
  5
E5
330
DE
100
AcDbEntity
  8
10
 62
     0
100
AcDbLine
 10
0.0
 20
5.0
 30
0.0
 11
0.0
 21
6.1231884058
 31
0.0
  0
LINE
  5
E6
330
DE
100
AcDbEntity
  8
10
 62
     0
100
AcDbLine
 10
-5.0
 20
0.0
 30
0.0
 11
-6.1231884058
 21
0.0
 31
0.0
  0
LINE
  5
E7
330
DE
100
AcDbEntity
  8
10
 62
     0
100
AcDbLine
 10
0.0
 20
-5.0
 30
0.0
 11
0.0
 21
-6.1231884058
 31
0.0
  0
LINE
  5
E8
330
DE
100
AcDbEntity
  8
10
 62
     0
100
AcDbLine
 10
5.0
 20
0.0
 30
0.0
 11
6.1231884058
 21
0.0
 31
0.0
  0
ENDBLK
  5
E0
330
DE
100
AcDbEntity
  8
0
100
AcDbBlockEnd
  0
ENDSEC
  0
SECTION
  2
ENTITIES
  0
ARC
  5
70
330
1F
100
AcDbEntity
  8
0
  6
Continuous
 62
     7
370
    25
100
AcDbCircle
 10
83.0
 20
76.5652160753
 30
0.0
 40
49.99999999999997
100
AcDbArc
 50
312.3426076911
 51
0.0
  0
ARC
  5
71
330
1F
100
AcDbEntity
  8
0
  6
Continuous
 62
     7
370
    25
100
AcDbCircle
 10
83.0
 20
76.5652160753
 30
0.0
 40
49.99999999999997
100
AcDbArc
 50
172.505281025
 51
227.6573923089
  0
ARC
  5
72
330
1F
100
AcDbEntity
  8
0
  6
Continuous
 62
     7
370
    25
100
AcDbCircle
 10
83.0
 20
76.5652160753
 30
0.0
 40
49.99999999999997
100
AcDbArc
 50
0.0
 51
7.494718975
  0
LINE
  5
73
330
1F
100
AcDbEntity
  8
0
  6
Continuous
 62
     7
370
    25
100
AcDbLine
 10
120.6811594203
 20
35.2608695652
 30
0.0
 11
120.6811594203
 21
39.6086956522
 31
0.0
  0
LINE
  5
74
330
1F
100
AcDbEntity
  8
0
  6
Continuous
 62
     7
370
    25
100
AcDbLine
 10
45.3188405797
 20
39.6086956522
 30
0.0
 11
45.3188405797
 21
35.2608695652
 31
0.0
  0
LINE
  5
75
330
1F
100
AcDbEntity
  8
0
  6
Continuous
 62
     7
370
    25
100
AcDbLine
 10
132.5728443964
 20
83.0869565217
 30
0.0
 11
33.4271556036
 21
83.0869565217
 31
0.0
  0
SPLINE
  5
76
330
1F
100
AcDbEntity
  8
0
  6
Continuous
 62
     7
370
    25
100
AcDbSpline
210
0.0
220
0.0
230
1.0
 70
     8
 71
     3
 72
    54
 73
    50
 74
     0
 42
0.00000001
 43
0.00000001
 40
0.0
 40
0.0
 40
0.0
 40
0.0
 40
0.0624999999999994
 40
0.0624999999999994
 40
0.1249999999999989
 40
0.1249999999999989
 40
0.1562499999999986
 40
0.1562499999999986
 40
0.1874999999999983
 40
0.1874999999999983
 40
0.249999999999998
 40
0.249999999999998
 40
0.2812499999999981
 40
0.2812499999999981
 40
0.3124999999999982
 40
0.3124999999999982
 40
0.3749999999999978
 40
0.3749999999999978
 40
0.4062499999999979
 40
0.4062499999999979
 40
0.437499999999998
 40
0.437499999999998
 40
0.4687499999999981
 40
0.4687499999999981
 40
0.4999999999999982
 40
0.4999999999999982
 40
0.5156249999999983
 40
0.5156249999999983
 40
0.5312499999999983
 40
0.5312499999999983
 40
0.5624999999999987
 40
0.5624999999999987
 40
0.5937499999999991
 40
0.5937499999999991
 40
0.6249999999999993
 40
0.6249999999999993
 40
0.6562499999999994
 40
0.6562499999999994
 40
0.6874999999999996
 40
0.6874999999999996
 40
0.7499999999999997
 40
0.7499999999999997
 40
0.8124999999999997
 40
0.8124999999999997
 40
0.8749999999999998
 40
0.8749999999999998
 40
0.9374999999999998
 40
0.9374999999999998
 40
1.0
 40
1.0
 40
1.0
 40
1.0
 10
108.2130688682305
 20
39.60869565217389
 30
0.0
 10
108.6758333954015
 20
40.05902937992553
 30
0.0
 10
109.1503656414603
 20
40.50939020001568
 30
0.0
 10
110.1212552105723
 20
41.41068585369955
 30
0.0
 10
110.6176068435147
 20
41.8616245440684
 30
0.0
 10
111.3793132846762
 20
42.53823848593332
 30
0.0
 10
111.636109954498
 20
42.76378558616188
 30
0.0
 10
112.1481881851192
 20
43.20818317719232
 30
0.0
 10
112.4043999564605
 20
43.42786721170386
 30
0.0
 10
113.1738278184801
 20
44.07894079988873
 30
0.0
 10
113.6877765021748
 20
44.50251111283594
 30
0.0
 10
114.4621419702255
 20
45.11807872433432
 30
0.0
 10
114.7208500213811
 20
45.31993628922577
 30
0.0
 10
115.2399946978198
 20
45.71570124735415
 30
0.0
 10
115.501607947831
 20
45.91042925775897
 30
0.0
 10
116.2743375910839
 20
46.46849093673844
 30
0.0
 10
116.7771632178564
 20
46.80934155876184
 30
0.0
 10
117.5113946736509
 20
47.25564389771796
 30
0.0
 10
117.7521564871257
 20
47.39287251672003
 30
0.0
 10
118.2129502331017
 20
47.63368565444519
 30
0.0
 10
118.4346096500979
 20
47.73830121327213
 30
0.0
 10
118.8587139530216
 20
47.91116216324694
 30
0.0
 10
119.0623949397059
 20
47.9794366660868
 30
0.0
 10
119.4331582163632
 20
48.07009756756943
 30
0.0
 10
119.6021287127755
 20
48.09346708778209
 30
0.0
 10
119.8305478502524
 20
48.09476302021952
 30
0.0
 10
119.9025041886127
 20
48.08955920809842
 30
0.0
 10
120.037844349984
 20
48.0676224875051
 30
0.0
 10
120.1013467788594
 20
48.05076896488877
 30
0.0
 10
120.275174979003
 20
47.9841334506337
 30
0.0
 10
120.3703304245975
 20
47.9182610422951
 30
0.0
 10
120.5226448815474
 20
47.74795330497258
 30
0.0
 10
120.5799760218513
 20
47.64244361066196
 30
0.0
 10
120.6567296960435
 20
47.4021030009321
 30
0.0
 10
120.6766613524039
 20
47.26744958792272
 30
0.0
 10
120.6843013906872
 20
46.97386299428778
 30
0.0
 10
120.671980660415
 20
46.81490555192567
 30
0.0
 10
120.6177380885842
 20
46.4757080279817
 30
0.0
 10
120.5757820631396
 20
46.29614738721336
 30
0.0
 10
120.4126104495354
 20
45.74136577631727
 30
0.0
 10
120.2540356953163
 20
45.34675443195147
 30
0.0
 10
119.8519637012743
 20
44.52032559867487
 30
0.0
 10
119.6064520798326
 20
44.08621175059572
 30
0.0
 10
119.0518190278285
 20
43.2126990581167
 30
0.0
 10
118.7414023210628
 20
42.77020073913248
 30
0.0
 10
118.058089477502
 20
41.87583453033194
 30
0.0
 10
117.6841493752712
 20
41.42281524189319
 30
0.0
 10
116.8760853027793
 20
40.51232928256469
 30
0.0
 10
116.4461649336788
 20
40.05944060401094
 30
0.0
 10
115.9898323671675
 20
39.60869565217448
 30
0.0
  0
SPLINE
  5
77
330
1F
100
AcDbEntity
  8
0
  6
Continuous
 62
     7
370
    25
100
AcDbSpline
210
0.0
220
0.0
230
1.0
 70
     8
 71
     3
 72
    14
 73
    10
 74
     0
 42
0.00000001
 43
0.00000001
 40
0.0
 40
0.0
 40
0.0
 40
0.0
 40
0.25
 40
0.25
 40
0.5
 40
0.5
 40
0.75
 40
0.75
 40
1.0
 40
1.0
 40
1.0
 40
1.0
 10
104.2626408696778
 20
35.26086956521772
 30
0.0
 10
104.4944714935232
 20
35.58074916432333
 30
0.0
 10
104.7564938527295
 20
35.91282768171726
 30
0.0
 10
105.3307596996777
 20
36.59946712976102
 30
0.0
 10
105.6430984311199
 20
36.95405340043425
 30
0.0
 10
106.3132974219029
 20
37.68552600746619
 30
0.0
 10
106.6729413827509
 20
38.06412645528864
 30
0.0
 10
107.4204329514801
 20
38.82863290485506
 30
0.0
 10
107.8095362347151
 20
39.21600272855816
 30
0.0
 10
108.2130688682305
 20
39.60869565217387
 30
0.0
  0
SPLINE
  5
78
330
1F
100
AcDbEntity
  8
0
  6
Continuous
 62
     7
370
    25
100
AcDbSpline
210
0.0
220
0.0
230
1.0
 70
     8
 71
     3
 72
    12
 73
     8
 74
     0
 42
0.00000001
 43
0.00000001
 40
0.0
 40
0.0
 40
0.0
 40
0.0
 40
0.5000000000000004
 40
0.5000000000000004
 40
0.7500000000000002
 40
0.7500000000000002
 40
1.0
 40
1.0
 40
1.0
 40
1.0
 10
57.78693113176965
 20
39.60869565217389
 30
0.0
 10
58.59313662071275
 20
38.82414648763643
 30
0.0
 10
59.337125025513
 20
38.06634647786574
 30
0.0
 10
60.34472174301676
 20
36.9676952750059
 30
0.0
 10
60.66341579013034
 20
36.60629229998072
 30
0.0
 10
61.24311664084635
 20
35.91343101683928
 30
0.0
 10
61.50595359163859
 20
35.58016263235945
 30
0.0
 10
61.73735913032265
 20
35.26086956521741
 30
0.0
  0
SPLINE
  5
79
330
1F
100
AcDbEntity
  8
0
  6
Continuous
 62
     7
370
    25
100
AcDbSpline
210
0.0
220
0.0
230
1.0
 70
     8
 71
     3
 72
    54
 73
    50
 74
     0
 42
0.00000001
 43
0.00000001
 40
0.0
 40
0.0
 40
0.0
 40
0.0
 40
0.0624999999999999
 40
0.0624999999999999
 40
0.1249999999999999
 40
0.1249999999999999
 40
0.15625
 40
0.15625
 40
0.1875000000000001
 40
0.1875000000000001
 40
0.2500000000000005
 40
0.2500000000000005
 40
0.2812500000000007
 40
0.2812500000000007
 40
0.312500000000001
 40
0.312500000000001
 40
0.3750000000000016
 40
0.3750000000000016
 40
0.4062500000000021
 40
0.4062500000000021
 40
0.4375000000000023
 40
0.4375000000000023
 40
0.4687500000000027
 40
0.4687500000000027
 40
0.500000000000003
 40
0.500000000000003
 40
0.5156250000000029
 40
0.5156250000000029
 40
0.5312500000000028
 40
0.5312500000000028
 40
0.5625000000000028
 40
0.5625000000000028
 40
0.5937500000000029
 40
0.5937500000000029
 40
0.625000000000003
 40
0.625000000000003
 40
0.656250000000003
 40
0.656250000000003
 40
0.6875000000000031
 40
0.6875000000000031
 40
0.7500000000000027
 40
0.7500000000000027
 40
0.8125000000000021
 40
0.8125000000000021
 40
0.8750000000000014
 40
0.8750000000000014
 40
0.9375000000000009
 40
0.9375000000000009
 40
1.0
 40
1.0
 40
1.0
 40
1.0
 10
50.01016763283327
 20
39.60869565217383
 30
0.0
 10
49.55425138810499
 20
40.05902937992549
 30
0.0
 10
49.12683300874481
 20
40.50939020001569
 30
0.0
 10
48.32631084710908
 20
41.41068585369958
 30
0.0
 10
47.95320407862219
 20
41.86162454406846
 30
0.0
 10
47.43561024704552
 20
42.53823848593339
 30
0.0
 10
47.27020956012005
 20
42.76378558616197
 30
0.0
 10
46.95856415277542
 20
43.20818317719242
 30
0.0
 10
46.81166463749368
 20
43.42786721170397
 30
0.0
 10
46.39796033590972
 20
44.07894079988885
 30
0.0
 10
46.15784821591842
 20
44.50251111283606
 30
0.0
 10
45.85668876649462
 20
45.11807872433446
 30
0.0
 10
45.76620179631639
 20
45.31993628922593
 30
0.0
 10
45.60707802414004
 20
45.71570124735432
 30
0.0
 10
45.5382625157489
 20
45.91042925775913
 30
0.0
 10
45.37240167184448
 20
46.46849093673862
 30
0.0
 10
45.31354223119234
 20
46.80934155876202
 30
0.0
 10
45.32204129863691
 20
47.25564389771814
 30
0.0
 10
45.34151297690985
 20
47.39287251672018
 30
0.0
 10
45.41612265957356
 20
47.63368565444533
 30
0.0
 10
45.47120491194404
 20
47.73830121327227
 30
0.0
 10
45.6210696845178
 20
47.91116216324704
 30
0.0
 10
45.71703875152491
 20
47.9794366660869
 30
0.0
 10
45.94497187189494
 20
48.07009756756949
 30
0.0
 10
46.07725550278546
 20
48.09346708778214
 30
0.0
 10
46.30363796210477
 20
48.09476302021954
 30
0.0
 10
46.38376988245425
 20
48.08955920809842
 30
0.0
 10
46.55360469705763
 20
48.06762248750508
 30
0.0
 10
46.64361639205212
 20
48.05076896488873
 30
0.0
 10
46.92241042511306
 20
47.98413345063363
 30
0.0
 10
47.12146526883524
 20
47.91826104229501
 30
0.0
 10
47.54388991093128
 20
47.74795330497246
 30
0.0
 10
47.76916549863315
 20
47.6424436106618
 30
0.0
 10
48.23122613408639
 20
47.40210300093192
 30
0.0
 10
48.46822763915002
 20
47.26744958792252
 30
0.0
 10
48.95304562348149
 20
46.97386299428754
 30
0.0
 10
49.20087100067941
 20
46.81490555192541
 30
0.0
 10
49.70683993371965
 20
46.4757080279814
 30
0.0
 10
49.96386340287038
 20
46.29614738721305
 30
0.0
 10
50.73331328209235
 20
45.74136577631692
 30
0.0
 10
51.24952116441662
 20
45.34675443195109
 30
0.0
 10
52.29045053894838
 20
44.52032559867443
 30
0.0
 10
52.81748241175618
 20
44.08621175059526
 30
0.0
 10
53.84997823677416
 20
43.21269905811621
 30
0.0
 10
54.35937684846883
 20
42.77020073913198
 30
0.0
 10
55.36656760396326
 20
41.8758345303314
 30
0.0
 10
55.86555673917366
 20
41.42281524189262
 30
0.0
 10
56.84658841589035
 20
40.5123292825641
 30
0.0
 10
57.32374402927847
 20
40.05944060401033
 30
0.0
 10
57.78693113176965
 20
39.60869565217385
 30
0.0
  0
SPLINE
  5
7A
330
1F
100
AcDbEntity
  8
0
  6
Continuous
 62
     7
370
    25
100
AcDbSpline
210
0.0
220
0.0
230
1.0
 70
     8
 71
     3
 72
    12
 73
     8
 74
     0
 42
0.00000001
 43
0.00000001
 40
0.0
 40
0.0
 40
0.0
 40
0.0
 40
0.2004115873623938
 40
0.4083134288335686
 40
0.6477901173571793
 40
0.894072633416974
 40
1.0
 40
1.0
 40
1.0
 40
1.0
 10
109.0479121355411
 20
39.60804741974586
 30
0.0
 10
109.6363018914278
 20
40.00643420779224
 30
0.0
 10
110.8350720916871
 20
40.81809723371832
 30
0.0
 10
112.6723532905986
 20
42.32425013702566
 30
0.0
 10
114.4856211920077
 20
44.04757628189198
 30
0.0
 10
115.9106706199864
 20
45.58821159233431
 30
0.0
 10
116.6086717049536
 20
46.53135593146505
 30
0.0
 10
116.8185960155603
 20
46.81500724585227
 30
0.0
  0
SPLINE
  5
7B
330
1F
100
AcDbEntity
  8
0
  6
Continuous
 62
     7
370
    25
100
AcDbSpline
210
0.0
220
0.0
230
1.0
 70
     8
 71
     3
 72
    14
 73
    10
 74
     0
 42
0.00000001
 43
0.00000001
 40
0.0
 40
0.0
 40
0.0
 40
0.0
 40
0.0492336928182517
 40
0.1937834413806079
 40
0.3383105225796879
 40
0.4884963329421489
 40
0.6386268148844564
 40
0.8168940206898055
 40
0.9999999999999999
 40
0.9999999999999999
 40
0.9999999999999999
 40
0.9999999999999999
 10
49.15928172415229
 20
46.82924947616765
 30
0.0
 10
49.25353241485116
 20
46.69676108791682
 30
0.0
 10
49.62450241833125
 20
46.17528779699397
 30
0.0
 10
50.39962946251912
 20
45.28291912628556
 30
0.0
 10
51.442233306898
 20
44.14145151821266
 30
0.0
 10
52.58642454125498
 20
43.01893922326578
 30
0.0
 10
53.88703145876697
 20
41.86160234922791
 30
0.0
 10
55.34966854487433
 20
40.68793372566379
 30
0.0
 10
56.4131418449767
 20
39.97124669676703
 30
0.0
 10
56.95199842899035
 20
39.60810497599134
 30
0.0
  0
LINE
  5
7C
330
1F
100
AcDbEntity
  8
0
  6
Continuous
 62
     7
370
    25
100
AcDbLine
 10
126.4782608696
 20
35.2608695652
 30
0.0
 11
126.4782608696
 21
30.9130434783
 31
0.0
  0
LINE
  5
7D
330
1F
100
AcDbEntity
  8
0
  6
Continuous
 62
     7
370
    25
100
AcDbLine
 10
126.4782608696
 20
30.9130434783
 30
0.0
 11
111.9855072464
 21
30.9130434783
 31
0.0
  0
LINE
  5
7E
330
1F
100
AcDbEntity
  8
0
  6
Continuous
 62
     7
370
    25
100
AcDbLine
 10
111.9855072464
 20
35.2608695652
 30
0.0
 11
126.4782608696
 21
35.2608695652
 31
0.0
  0
LINE
  5
7F
330
1F
100
AcDbEntity
  8
0
  6
Continuous
 62
     7
370
    25
100
AcDbLine
 10
39.5217391304
 20
30.9130434783
 30
0.0
 11
39.5217391304
 21
35.2608695652
 31
0.0
  0
LINE
  5
80
330
1F
100
AcDbEntity
  8
0
  6
Continuous
 62
     7
370
    25
100
AcDbLine
 10
54.0144927536
 20
30.9130434783
 30
0.0
 11
39.5217391304
 21
30.9130434783
 31
0.0
  0
LINE
  5
81
330
1F
100
AcDbEntity
  8
0
  6
Continuous
 62
     7
370
    25
100
AcDbLine
 10
39.5217391304
 20
35.2608695652
 30
0.0
 11
54.0144927536
 21
35.2608695652
 31
0.0
  0
LINE
  5
82
330
1F
100
AcDbEntity
  8
0
  6
Continuous
 62
     7
370
    25
100
AcDbLine
 10
111.9855072464
 20
30.9130434783
 30
0.0
 11
54.0144927536
 21
30.9130434783
 31
0.0
  0
LINE
  5
83
330
1F
100
AcDbEntity
  8
0
  6
Continuous
 62
     7
370
    25
100
AcDbLine
 10
111.9855072464
 20
35.2608695652
 30
0.0
 11
54.0144927536
 21
35.2608695652
 31
0.0
  0
LINE
  5
84
330
1F
100
AcDbEntity
  8
0
  6
Continuous
 62
     7
370
    25
100
AcDbLine
 10
108.2130688682
 20
39.6086956522
 30
0.0
 11
120.6811594203
 21
39.6086956522
 31
0.0
  0
LINE
  5
85
330
1F
100
AcDbEntity
  8
0
  6
Continuous
 62
     7
370
    25
100
AcDbLine
 10
45.3188405797
 20
39.6086956522
 30
0.0
 11
57.7869311318
 21
39.6086956522
 31
0.0
  0
SPLINE
  5
86
330
1F
100
AcDbEntity
  8
0
  6
HIDDEN
 62
     7
370
    18
100
AcDbSpline
210
0.0
220
0.0
230
1.0
 70
     8
 71
     3
 72
    12
 73
     8
 74
     0
 42
0.00000001
 43
0.00000001
 40
0.0
 40
0.0
 40
0.0
 40
0.0
 40
0.4999999999999989
 40
0.4999999999999989
 40
0.7499999999999994
 40
0.7499999999999994
 40
1.0
 40
1.0
 40
1.0
 40
1.0
 10
115.9898323671675
 20
39.6086956521745
 30
0.0
 10
115.1955576174471
 20
38.82414648763701
 30
0.0
 10
114.3427843358854
 20
38.06634647786626
 30
0.0
 10
112.9711772026213
 20
36.96769527500637
 30
0.0
 10
112.4959286422455
 20
36.60629229998116
 30
0.0
 10
111.5341132122145
 20
35.91343101683966
 30
0.0
 10
111.045538964944
 20
35.58016263236014
 30
0.0
 10
110.5489563337389
 20
35.26086956521806
 30
0.0
  0
SPLINE
  5
87
330
1F
100
AcDbEntity
  8
0
  6
HIDDEN
 62
     7
370
    18
100
AcDbSpline
210
0.0
220
0.0
230
1.0
 70
     8
 71
     3
 72
    14
 73
    10
 74
     0
 42
0.00000001
 43
0.00000001
 40
0.0
 40
0.0
 40
0.0
 40
0.0
 40
0.25
 40
0.25
 40
0.5
 40
0.5
 40
0.75
 40
0.75
 40
1.0
 40
1.0
 40
1.0
 40
1.0
 10
55.45104366626227
 20
35.2608695652174
 30
0.0
 10
54.95354882738433
 20
35.58074916432302
 30
0.0
 10
54.46691038535234
 20
35.91282768171691
 30
0.0
 10
53.51336185653502
 20
36.59946712976074
 30
0.0
 10
53.0464759997996
 20
36.95405340043398
 30
0.0
 10
52.13205111090834
 20
37.68552600746598
 30
0.0
 10
51.68277350753637
 20
38.06412645528849
 30
0.0
 10
50.82162136193461
 20
38.82863290485497
 30
0.0
 10
50.40772853496713
 20
39.2160027285581
 30
0.0
 10
50.01016763283327
 20
39.60869565217386
 30
0.0
  0
LINE
  5
88
330
1F
100
AcDbEntity
  8
0
  6
HIDDEN
 62
     7
370
    18
100
AcDbLine
 10
45.3353302048
 20
55.1558348509
 30
0.0
 11
45.3312827339
 21
55.2389868241
 31
0.0
  0
LWPOLYLINE
  5
89
330
1F
100
AcDbEntity
  8
0
  6
HIDDEN
 62
     7
370
    18
100
AcDbPolyline
 90
       30
 70
   128
 43
0.0
 10
116.8185960156
 20
46.8150072459
 10
117.6684829557
 20
47.9360044797
 10
118.9264314714
 20
49.9613756438
 10
119.8535327766
 20
51.876987446
 10
120.210222978
 20
52.8304760528
 10
120.4759008023
 20
53.7496394937
 10
120.6385867112
 20
54.6200647489
 10
120.6775199177
 20
55.4197510638
 10
120.6018177959
 20
55.9535663051
 10
120.409093487
 20
56.3803578746
 10
120.1842797875
 20
56.5893440096
 10
119.8767583356
 20
56.6914476378
 10
119.5072051252
 20
56.6706433953
 10
119.0662829744
 20
56.527158132
 10
118.4952961914
 20
56.222599211
 10
117.8686086679
 20
55.7889789226
 10
116.8829667131
 20
54.9752794306
 10
115.8474165263
 20
54.0130198287
 10
114.9915860391
 20
53.1659423105
 10
114.1327625341
 20
52.2838242679
 10
112.3721705168
 20
50.410040081
 10
110.579342784
 20
48.4388352617
 10
108.80712154
 20
46.432945836
 10
107.8221178471
 20
45.2861719059
 10
106.8835082339
 20
44.1619583086
 10
105.9725770059
 20
43.0271513468
 10
105.1475508716
 20
41.9385689297
 10
104.3136346304
 20
40.726673128
 10
103.6754808069
 20
39.6082016524
 10
103.6754808069
 20
39.6082016524
  0
LINE
  5
8A
330
1F
100
AcDbEntity
  8
0
  6
HIDDEN
 62
     7
370
    18
100
AcDbLine
 10
120.6435399983
 20
55.6593612416
 30
0.0
 11
120.6615827914
 21
55.2293467454
 31
0.0
  0
SPLINE
  5
8B
330
1F
100
AcDbEntity
  8
0
  6
HIDDEN
 62
     7
370
    18
100
AcDbSpline
210
0.0
220
0.0
230
1.0
 70
     8
 71
     3
 72
    33
 73
    29
 74
     0
 42
0.00000001
 43
0.00000001
 40
0.0
 40
0.0
 40
0.0
 40
0.0
 40
0.0501695073217255
 40
0.102213934938458
 40
0.1621642093699886
 40
0.2238182493455442
 40
0.2853657785714994
 40
0.3481969152935964
 40
0.4084432689302573
 40
0.4393246889454703
 40
0.4701965576426841
 40
0.5011847660330108
 40
0.5326225501463251
 40
0.5571110864145735
 40
0.5821729526033208
 40
0.600547937380386
 40
0.6194186958330609
 40
0.6378121385734301
 40
0.6567864458568228
 40
0.6789727449839692
 40
0.7017945540066608
 40
0.7361951404851641
 40
0.7715038528387601
 40
0.8004161322853246
 40
0.829337536014939
 40
0.888670566002133
 40
0.9498936880614992
 40
1.0
 40
1.0
 40
1.0
 40
1.0
 10
62.32448593326138
 20
39.60827006220265
 30
0.0
 10
62.10727792120331
 20
40.00664914438778
 30
0.0
 10
61.66474446217926
 20
40.81829541641885
 30
0.0
 10
60.58552025125616
 20
42.32481376603253
 30
0.0
 10
59.2281575834005
 20
44.04672436940833
 30
0.0
 10
57.61501994176306
 20
45.95753741798239
 30
0.0
 10
55.86816271899941
 20
47.94763161955033
 30
0.0
 10
54.07032046641617
 20
49.93817940041538
 30
0.0
 10
52.54626997665379
 20
51.57808029647585
 30
0.0
 10
51.33778279445835
 20
52.83622517232818
 30
0.0
 10
50.42040915066226
 20
53.75939387185732
 30
0.0
 10
49.5035704421429
 20
54.63752387379647
 30
0.0
 10
48.66057058809298
 20
55.38196301074254
 30
0.0
 10
47.89652065068039
 20
55.97673580457649
 30
0.0
 10
47.2839852943937
 20
56.36975636187044
 30
0.0
 10
46.76536293363292
 20
56.60948828133409
 30
0.0
 10
46.35003390684646
 20
56.71183880655281
 30
0.0
 10
45.99497441082899
 20
56.69016892985282
 30
0.0
 10
45.69877128527914
 20
56.53721416902999
 30
0.0
 10
45.4775502270024
 20
56.23873545730758
 30
0.0
 10
45.32437211898108
 20
55.72914706790295
 30
0.0
 10
45.30031132648733
 20
54.98727016779042
 30
0.0
 10
45.43267552706965
 20
54.08372531249922
 30
0.0
 10
45.66954445668393
 20
53.17129640842089
 30
0.0
 10
46.07854125819459
 20
51.97734346339174
 30
0.0
 10
46.80181137612255
 20
50.39555774906631
 30
0.0
 10
47.86359822044358
 20
48.5551514755828
 30
0.0
 10
48.75712840034017
 20
47.36493371051352
 30
0.0
 10
49.15928172415229
 20
46.82924947616765
 30
0.0
  0
LINE
  5
8C
330
1F
100
AcDbEntity
  8
0
  6
HIDDEN
 62
     7
370
    18
100
AcDbLine
 10
57.7869311318
 20
39.6086956522
 30
0.0
 11
62.3245579115
 21
39.6086956522
 31
0.0
  0
LINE
  5
8D
330
1F
100
AcDbEntity
  8
0
  6
HIDDEN
 62
     7
370
    18
100
AcDbLine
 10
103.6754686743
 20
39.6086956522
 30
0.0
 11
108.2130688682
 21
39.6086956522
 31
0.0
  0
ARC
  5
8E
330
1F
100
AcDbEntity
  8
0
  6
HIDDEN
 62
     7
370
    18
100
AcDbCircle
 10
83.0
 20
76.5652160753
 30
0.0
 40
49.99999999999997
100
AcDbArc
 50
304.3011554328
 51
312.3426076911
  0
ARC
  5
8F
330
1F
100
AcDbEntity
  8
0
  6
HIDDEN
 62
     7
370
    18
100
AcDbCircle
 10
83.0
 20
76.5652160753
 30
0.0
 40
49.99999999999997
100
AcDbArc
 50
227.6573923089
 51
235.6988445672
  0
ARC
  5
90
330
1F
100
AcDbEntity
  8
0
  6
HIDDEN
 62
     7
370
    18
100
AcDbCircle
 10
83.0
 20
76.5652160753
 30
0.0
 40
45.65217391304344
100
AcDbArc
 50
295.2092487976
 51
0.0
  0
ARC
  5
91
330
1F
100
AcDbEntity
  8
0
  6
HIDDEN
 62
     7
370
    18
100
AcDbCircle
 10
83.0
 20
76.5652160753
 30
0.0
 40
45.65217391304344
100
AcDbArc
 50
171.7867876295
 51
244.790885618
  0
ARC
  5
92
330
1F
100
AcDbEntity
  8
0
  6
HIDDEN
 62
     7
370
    18
100
AcDbCircle
 10
83.0
 20
76.5652160753
 30
0.0
 40
45.65217391304346
100
AcDbArc
 50
0.0
 51
8.2132123705
  0
LINE
  5
93
330
1F
100
AcDbEntity
  8
0
  6
HIDDEN
 62
     7
370
    18
100
AcDbLine
 10
45.3188405797
 20
55.229348727
 30
0.0
 11
45.3188405797
 21
47.0520451322
 31
0.0
  0
LINE
  5
94
330
1F
100
AcDbEntity
  8
0
  6
HIDDEN
 62
     7
370
    18
100
AcDbLine
 10
120.6811594203
 20
47.0585397159
 30
0.0
 11
120.6811594203
 21
55.2389893807
 31
0.0
  0
ARC
  5
95
330
1F
100
AcDbEntity
  8
0
  6
HIDDEN
 62
     7
370
    18
100
AcDbCircle
 10
83.0
 20
76.5637681159
 30
0.0
 40
45.65217391304345
100
AcDbArc
 50
270.456713754
 51
295.2099702171
  0
ARC
  5
96
330
1F
100
AcDbEntity
  8
0
  6
HIDDEN
 62
     7
370
    18
100
AcDbCircle
 10
83.0
 20
76.5637681159
 30
0.0
 40
45.65217391304345
100
AcDbArc
 50
244.7901402673
 51
269.5434578204
  0
LINE
  5
97
330
1F
100
AcDbEntity
  8
0
  6
HIDDEN
 62
     7
370
    18
100
AcDbLine
 10
57.6376811594
 20
30.9130434783
 30
0.0
 11
57.6376811594
 21
39.6086956522
 31
0.0
  0
LINE
  5
98
330
1F
100
AcDbEntity
  8
0
  6
HIDDEN
 62
     7
370
    18
100
AcDbLine
 10
50.3913043478
 20
39.6086956522
 30
0.0
 11
50.3913043478
 21
30.9130434783
 31
0.0
  0
LINE
  5
99
330
1F
100
AcDbEntity
  8
0
  6
HIDDEN
 62
     7
370
    18
100
AcDbLine
 10
115.6086956522
 20
30.9130434783
 30
0.0
 11
115.6086956522
 21
39.6086956522
 31
0.0
  0
LINE
  5
9A
330
1F
100
AcDbEntity
  8
0
  6
HIDDEN
 62
     7
370
    18
100
AcDbLine
 10
108.3623188406
 20
39.6086956522
 30
0.0
 11
108.3623188406
 21
30.9130434783
 31
0.0
  0
LINE
  5
9B
330
1F
100
AcDbEntity
  8
0
  6
HIDDEN
 62
     7
370
    18
100
AcDbLine
 10
45.3188405797
 20
55.2389868241
 30
0.0
 11
45.3188405797
 21
55.229348727
 31
0.0
  0
LINE
  5
9C
330
1F
100
AcDbEntity
  8
0
  6
HIDDEN
 62
     7
370
    18
100
AcDbLine
 10
120.6811594203
 20
47.0520451322
 30
0.0
 11
120.6811594203
 21
47.0585397159
 31
0.0
  0
CIRCLE
  5
9D
330
1F
100
AcDbEntity
  8
0
  6
Continuous
 62
     7
370
    25
100
AcDbCircle
 10
83.0
 20
158.0
 30
0.0
 40
49.99999999999996
  0
CIRCLE
  5
9E
330
1F
100
AcDbEntity
  8
0
  6
Continuous
 62
     7
370
    25
100
AcDbCircle
 10
83.0
 20
158.0
 30
0.0
 40
49.57284439639432
  0
CIRCLE
  5
9F
330
1F
100
AcDbEntity
  8
0
  6
Continuous
 62
     7
370
    25
100
AcDbCircle
 10
83.0
 20
158.0
 30
0.0
 40
45.18393392054185
  0
SPLINE
  5
A0
330
1F
100
AcDbEntity
  8
0
  6
Continuous
 62
     7
370
    25
100
AcDbSpline
210
0.0
220
0.0
230
1.0
 70
     8
 71
     3
 72
    76
 73
    72
 74
     0
 42
0.00000001
 43
0.00000001
 40
0.0
 40
0.0
 40
0.0
 40
0.0
 40
0.0312500000000002
 40
0.0312500000000002
 40
0.0625000000000004
 40
0.0625000000000004
 40
0.0937500000000007
 40
0.0937500000000007
 40
0.1250000000000009
 40
0.1250000000000009
 40
0.1562500000000011
 40
0.1562500000000011
 40
0.1875000000000013
 40
0.1875000000000013
 40
0.250000000000002
 40
0.250000000000002
 40
0.2812500000000022
 40
0.2812500000000022
 40
0.3125000000000024
 40
0.3125000000000024
 40
0.3750000000000029
 40
0.3750000000000029
 40
0.4062500000000032
 40
0.4062500000000032
 40
0.4218750000000033
 40
0.4218750000000033
 40
0.4375000000000034
 40
0.4375000000000034
 40
0.4531250000000036
 40
0.4531250000000036
 40
0.4687500000000037
 40
0.4687500000000037
 40
0.4843750000000038
 40
0.4843750000000038
 40
0.5000000000000039
 40
0.5000000000000039
 40
0.515625000000004
 40
0.515625000000004
 40
0.5312500000000041
 40
0.5312500000000041
 40
0.5468750000000042
 40
0.5468750000000042
 40
0.5625000000000043
 40
0.5625000000000043
 40
0.5937500000000044
 40
0.5937500000000044
 40
0.6093750000000044
 40
0.6093750000000044
 40
0.6250000000000044
 40
0.6250000000000044
 40
0.6875000000000038
 40
0.6875000000000038
 40
0.7187500000000034
 40
0.7187500000000034
 40
0.7500000000000031
 40
0.7500000000000031
 40
0.7812500000000028
 40
0.7812500000000028
 40
0.8125000000000024
 40
0.8125000000000024
 40
0.8750000000000017
 40
0.8750000000000017
 40
0.9062500000000013
 40
0.9062500000000013
 40
0.9218750000000012
 40
0.9218750000000012
 40
0.9375000000000011
 40
0.9375000000000011
 40
0.9687500000000006
 40
0.9687500000000006
 40
1.0
 40
1.0
 40
1.0
 40
1.0
 10
56.95199403531748
 20
164.3082895019214
 30
0.0
 10
56.48865234767069
 20
164.1419906726813
 30
0.0
 10
56.03156514564606
 20
164.0218556265722
 30
0.0
 10
55.12933204491905
 20
163.856676547437
 30
0.0
 10
54.6841999736576
 20
163.8118126233014
 30
0.0
 10
53.806152290086
 20
163.7885110567534
 30
0.0
 10
53.3704414417976
 20
163.8106814444838
 30
0.0
 10
52.53106829543704
 20
163.914138858242
 30
0.0
 10
52.12621261267797
 20
163.9949303718012
 30
0.0
 10
51.34403502505554
 20
164.2073895743105
 30
0.0
 10
50.96672935233617
 20
164.3391017841653
 30
0.0
 10
50.23888977440144
 20
164.6495577053548
 30
0.0
 10
49.88685725641427
 20
164.8292778529265
 30
0.0
 10
48.88340611678219
 20
165.4291998113283
 30
0.0
 10
48.28580485737395
 20
165.9065468997784
 30
0.0
 10
47.49156152206221
 20
166.7298429697412
 30
0.0
 10
47.24355422070504
 20
167.0230235845674
 30
0.0
 10
46.78526046352953
 20
167.6448926714061
 30
0.0
 10
46.57696196340611
 20
167.9706847813737
 30
0.0
 10
46.01537213876821
 20
168.99491819794
 30
0.0
 10
45.72301225999217
 20
169.7373675603373
 30
0.0
 10
45.44010869224521
 20
170.9841405852791
 30
0.0
 10
45.37381167011091
 20
171.4162704178981
 30
0.0
 10
45.32497990244631
 20
172.0950252283639
 30
0.0
 10
45.31717118768172
 20
172.3265551270604
 30
0.0
 10
45.3211031981696
 20
172.802596161643
 30
0.0
 10
45.33295232611952
 20
173.0466252805883
 30
0.0
 10
45.37865392335355
 20
173.5407067256022
 30
0.0
 10
45.41247794058027
 20
173.791773497228
 30
0.0
 10
45.50557255369198
 20
174.303937906513
 30
0.0
 10
45.56543561751346
 20
174.5671486323044
 30
0.0
 10
45.71305544596795
 20
175.0957941088824
 30
0.0
 10
45.80010067743206
 20
175.3593764138057
 30
0.0
 10
46.00291853379244
 20
175.8851630803768
 30
0.0
 10
46.12023736497545
 20
176.1502238469858
 30
0.0
 10
46.3779509626177
 20
176.6616366934346
 30
0.0
 10
46.51796635746312
 20
176.9081464008175
 30
0.0
 10
46.81922248650675
 20
177.3837338084083
 30
0.0
 10
46.98200337288006
 20
177.6145491564955
 30
0.0
 10
47.31666754325585
 20
178.0450354808247
 30
0.0
 10
47.48927927957459
 20
178.2462989600784
 30
0.0
 10
47.84395311891767
 20
178.6251377796224
 30
0.0
 10
48.02681086966064
 20
178.803385147208
 30
0.0
 10
48.58336789263145
 20
179.301968031416
 30
0.0
 10
48.95854752579591
 20
179.5818465415149
 30
0.0
 10
49.52900379781975
 20
179.9456469548072
 30
0.0
 10
49.72043558630669
 20
180.0573593019384
 30
0.0
 10
50.10608881215889
 20
180.2636328952853
 30
0.0
 10
50.30056735330098
 20
180.3582392592721
 30
0.0
 10
51.26760069327408
 20
180.7864127549095
 30
0.0
 10
52.0356430371279
 20
180.9960328677575
 30
0.0
 10
53.19320686676495
 20
181.1582983589338
 30
0.0
 10
53.58147711304882
 20
181.1861369786785
 30
0.0
 10
54.35101053730587
 20
181.1904068981678
 30
0.0
 10
54.73188208676329
 20
181.1671026819522
 30
0.0
 10
55.48639034820907
 20
181.0713605333826
 30
0.0
 10
55.8600205711784
 20
180.9989084791325
 30
0.0
 10
56.59970248875802
 20
180.8040311413583
 30
0.0
 10
56.96688734544539
 20
180.6811349882856
 30
0.0
 10
58.04779303100416
 20
180.2357686372388
 30
0.0
 10
58.7292945243896
 20
179.8434533483135
 30
0.0
 10
59.68109424451703
 20
179.1007743659906
 30
0.0
 10
59.98647761904594
 20
178.8272685114999
 30
0.0
 10
60.42339637958622
 20
178.3736038921671
 30
0.0
 10
60.56549398557242
 20
178.2151219036992
 30
0.0
 10
60.84179365565961
 20
177.8824733071654
 30
0.0
 10
60.97604960330387
 20
177.7080968561237
 30
0.0
 10
61.35946702065666
 20
177.1682822630553
 30
0.0
 10
61.59160158019913
 20
176.7838067001911
 30
0.0
 10
62.00182073127219
 20
175.9609385168892
 30
0.0
 10
62.18003370190151
 20
175.5226543729983
 30
0.0
 10
62.32484371282267
 20
175.0525258131721
 30
0.0
  0
SPLINE
  5
A1
330
1F
100
AcDbEntity
  8
0
  6
Continuous
 62
     7
370
    25
100
AcDbSpline
210
0.0
220
0.0
230
1.0
 70
     8
 71
     3
 72
    76
 73
    72
 74
     0
 42
0.00000001
 43
0.00000001
 40
0.0
 40
0.0
 40
0.0
 40
0.0
 40
0.0312500000000002
 40
0.0312500000000002
 40
0.0625000000000004
 40
0.0625000000000004
 40
0.0937500000000006
 40
0.0937500000000006
 40
0.1250000000000007
 40
0.1250000000000007
 40
0.1562500000000007
 40
0.1562500000000007
 40
0.1875000000000007
 40
0.1875000000000007
 40
0.2500000000000007
 40
0.2500000000000007
 40
0.2812500000000008
 40
0.2812500000000008
 40
0.3125000000000008
 40
0.3125000000000008
 40
0.3750000000000008
 40
0.3750000000000008
 40
0.4062500000000008
 40
0.4062500000000008
 40
0.4218750000000008
 40
0.4218750000000008
 40
0.4375000000000007
 40
0.4375000000000007
 40
0.4531250000000007
 40
0.4531250000000007
 40
0.4687500000000007
 40
0.4687500000000007
 40
0.4843750000000007
 40
0.4843750000000007
 40
0.5000000000000007
 40
0.5000000000000007
 40
0.5156250000000007
 40
0.5156250000000007
 40
0.5312500000000007
 40
0.5312500000000007
 40
0.5468750000000007
 40
0.5468750000000007
 40
0.5625000000000007
 40
0.5625000000000007
 40
0.5937500000000007
 40
0.5937500000000007
 40
0.6093750000000009
 40
0.6093750000000009
 40
0.625000000000001
 40
0.625000000000001
 40
0.6875000000000008
 40
0.6875000000000008
 40
0.7187500000000007
 40
0.7187500000000007
 40
0.7500000000000006
 40
0.7500000000000006
 40
0.7812500000000004
 40
0.7812500000000004
 40
0.8125000000000003
 40
0.8125000000000003
 40
0.8750000000000002
 40
0.8750000000000002
 40
0.9062500000000003
 40
0.9062500000000003
 40
0.9218750000000003
 40
0.9218750000000003
 40
0.9375000000000003
 40
0.9375000000000003
 40
0.9687500000000002
 40
0.9687500000000002
 40
1.0
 40
1.0
 40
1.0
 40
1.0
 10
109.0479121351435
 20
151.6916768207788
 30
0.0
 10
109.5112435548992
 20
151.8579779608365
 30
0.0
 10
109.9683211408169
 20
151.9781168631352
 30
0.0
 10
110.8705361637963
 20
152.1433060144902
 30
0.0
 10
111.3156597759818
 20
152.188176166138
 30
0.0
 10
112.1936916677567
 20
152.2114922882909
 30
0.0
 10
112.6293953098243
 20
152.1893303403395
 30
0.0
 10
113.4687572880498
 20
152.0858909726598
 30
0.0
 10
113.8736080626022
 20
152.0051091488409
 30
0.0
 10
114.6557771575593
 20
151.7926706258109
 30
0.0
 10
115.0330792460966
 20
151.6609694057483
 30
0.0
 10
115.7609130293696
 20
151.3505368533804
 30
0.0
 10
116.1129431343656
 20
151.1708293131556
 30
0.0
 10
117.1163930154083
 20
150.5709446123563
 30
0.0
 10
117.7139962973179
 20
150.0936240490678
 30
0.0
 10
118.5082479841147
 20
149.2703720675805
 30
0.0
 10
118.7562582724326
 20
148.9772078997084
 30
0.0
 10
119.2145635056239
 20
148.3553691186002
 30
0.0
 10
119.4228687141033
 20
148.0295927621758
 30
0.0
 10
119.9844824438965
 20
147.0054095124851
 30
0.0
 10
120.276862607465
 20
146.2629966518917
 30
0.0
 10
120.5598135654208
 20
145.0162955874324
 30
0.0
 10
120.6261305333257
 20
144.5841836799842
 30
0.0
 10
120.6749972942986
 20
143.9054660897971
 30
0.0
 10
120.6828187562201
 20
143.6739494330233
 30
0.0
 10
120.6789154014422
 20
143.1979373765465
 30
0.0
 10
120.6670819664607
 20
142.9539183944962
 30
0.0
 10
120.6214144795993
 20
142.4598602323606
 30
0.0
 10
120.5876090087132
 20
142.2088057647247
 30
0.0
 10
120.4945558590735
 20
141.6966678892911
 30
0.0
 10
120.4347171353468
 20
141.4334750659627
 30
0.0
 10
120.2871428089781
 20
140.9048393787959
 30
0.0
 10
120.2001215564439
 20
140.641261802333
 30
0.0
 10
119.9973550075257
 20
140.1154841067693
 30
0.0
 10
119.8800643013637
 20
139.8504274344144
 30
0.0
 10
119.6223940784826
 20
139.3389954983822
 30
0.0
 10
119.4824001540275
 20
139.0924761266036
 30
0.0
 10
119.1811870281354
 20
138.6168688750952
 30
0.0
 10
119.0184254795446
 20
138.3860393238324
 30
0.0
 10
118.6837875561832
 20
137.9555131839099
 30
0.0
 10
118.5111884365285
 20
137.7542313371558
 30
0.0
 10
118.1565393666588
 20
137.3753576292516
 30
0.0
 10
117.9736971144341
 20
137.197096505826
 30
0.0
 10
117.4171585254488
 20
136.6984504954291
 30
0.0
 10
117.0419915527008
 20
136.4185375726773
 30
0.0
 10
116.4715549759024
 20
136.0546892768522
 30
0.0
 10
116.2801298680961
 20
135.9429616775273
 30
0.0
 10
115.8944902493074
 20
135.7366583451623
 30
0.0
 10
115.7000158561721
 20
135.642036065066
 30
0.0
 10
114.7330001787921
 20
135.2137850364018
 30
0.0
 10
113.9649749816565
 20
135.0041118945067
 30
0.0
 10
112.8074379801967
 20
134.8417630059398
 30
0.0
 10
112.4191775613133
 20
134.8138958343714
 30
0.0
 10
111.6496525576141
 20
134.8095676506319
 30
0.0
 10
111.2687851999346
 20
134.8328424951126
 30
0.0
 10
110.5142847629212
 20
134.928524001139
 30
0.0
 10
110.1406581771617
 20
135.0009447974197
 30
0.0
 10
109.4009824848258
 20
135.1957563536762
 30
0.0
 10
109.0338039692434
 20
135.3186162227089
 30
0.0
 10
107.9528857410552
 20
135.7638796830883
 30
0.0
 10
107.2713724581017
 20
136.1561227426957
 30
0.0
 10
106.3195442096158
 20
136.8986792639772
 30
0.0
 10
106.0141494962145
 20
137.172141915681
 30
0.0
 10
105.5772096512811
 20
137.6257361576235
 30
0.0
 10
105.4351043314552
 20
137.7841937485458
 30
0.0
 10
105.158787518662
 20
138.116791155502
 30
0.0
 10
105.024518595986
 20
138.2911451838067
 30
0.0
 10
104.6410581916575
 20
138.8308945423424
 30
0.0
 10
104.4088910585555
 20
139.215326058127
 30
0.0
 10
103.9985965829999
 20
140.0381036967348
 30
0.0
 10
103.8203409368991
 20
140.4763413903826
 30
0.0
 10
103.675480807101
 20
140.9464208637756
 30
0.0
  0
SPLINE
  5
A2
330
1F
100
AcDbEntity
  8
0
  6
Continuous
 62
     7
370
    25
100
AcDbSpline
210
0.0
220
0.0
230
1.0
 70
     8
 71
     3
 72
    76
 73
    72
 74
     0
 42
0.00000001
 43
0.00000001
 40
0.0
 40
0.0
 40
0.0
 40
0.0
 40
0.0312500000000001
 40
0.0312500000000001
 40
0.0625000000000001
 40
0.0625000000000001
 40
0.0937500000000002
 40
0.0937500000000002
 40
0.1250000000000002
 40
0.1250000000000002
 40
0.1562500000000003
 40
0.1562500000000003
 40
0.1875000000000003
 40
0.1875000000000003
 40
0.2500000000000003
 40
0.2500000000000003
 40
0.2812500000000003
 40
0.2812500000000003
 40
0.3125000000000002
 40
0.3125000000000002
 40
0.375
 40
0.375
 40
0.4062499999999999
 40
0.4062499999999999
 40
0.4218749999999999
 40
0.4218749999999999
 40
0.4375
 40
0.4375
 40
0.453125
 40
0.453125
 40
0.4687500000000001
 40
0.4687500000000001
 40
0.4843750000000001
 40
0.4843750000000001
 40
0.5000000000000001
 40
0.5000000000000001
 40
0.5156250000000001
 40
0.5156250000000001
 40
0.5312500000000001
 40
0.5312500000000001
 40
0.5468750000000002
 40
0.5468750000000002
 40
0.5625000000000002
 40
0.5625000000000002
 40
0.5937500000000003
 40
0.5937500000000003
 40
0.6093750000000004
 40
0.6093750000000004
 40
0.6250000000000004
 40
0.6250000000000004
 40
0.6875000000000003
 40
0.6875000000000003
 40
0.7187500000000002
 40
0.7187500000000002
 40
0.7500000000000002
 40
0.7500000000000002
 40
0.7812500000000001
 40
0.7812500000000001
 40
0.8125000000000001
 40
0.8125000000000001
 40
0.8750000000000001
 40
0.8750000000000001
 40
0.90625
 40
0.90625
 40
0.9218750000000001
 40
0.9218750000000001
 40
0.9375000000000001
 40
0.9375000000000001
 40
0.96875
 40
0.96875
 40
1.0
 40
1.0
 40
1.0
 40
1.0
 10
103.6755434440953
 20
175.0537824126734
 30
0.0
 10
103.8205222790636
 20
175.5242062031555
 30
0.0
 10
103.9986750274981
 20
175.9619302386346
 30
0.0
 10
104.407882035592
 20
176.782773605258
 30
0.0
 10
104.6390720577103
 20
177.1657738338786
 30
0.0
 10
105.1472577245089
 20
177.882147962766
 30
0.0
 10
105.4264168354766
 20
178.2173932254547
 30
0.0
 10
106.0127973327714
 20
178.8267809267385
 30
0.0
 10
106.3203374691018
 20
179.1021742378726
 30
0.0
 10
106.9595953709729
 20
179.6004114151644
 30
0.0
 10
107.2913390090831
 20
179.8232155882565
 30
0.0
 10
107.9763856641895
 20
180.2191908487515
 30
0.0
 10
108.3313683043938
 20
180.3929747937768
 30
0.0
 10
109.4133446378525
 20
180.8357616618033
 30
0.0
 10
110.1537583123792
 20
181.0274262653577
 30
0.0
 10
111.2888990503437
 20
181.1688413005363
 30
0.0
 10
111.6722294942685
 20
181.1913399307642
 30
0.0
 10
112.4446787736432
 20
181.1848597091067
 30
0.0
 10
112.830279912801
 20
181.1560278222992
 30
0.0
 10
113.9865837755441
 20
180.990779003419
 30
0.0
 10
114.7559325659946
 20
180.7792167134071
 30
0.0
 10
115.9230457725289
 20
180.2575296760834
 30
0.0
 10
116.308521416055
 20
180.0513059472262
 30
0.0
 10
116.8808062949186
 20
179.683154408904
 30
0.0
 10
117.0707092025861
 20
179.5504967838845
 30
0.0
 10
117.4491697358143
 20
179.2617572174628
 30
0.0
 10
117.6372817681924
 20
179.1058736568009
 30
0.0
 10
118.005120395819
 20
178.7728944938596
 30
0.0
 10
118.1856765551163
 20
178.595212429315
 30
0.0
 10
118.539545689996
 20
178.2134776173231
 30
0.0
 10
118.7141915836987
 20
178.0076862673018
 30
0.0
 10
119.0485439188534
 20
177.5724374660745
 30
0.0
 10
119.2071868113332
 20
177.3446706777052
 30
0.0
 10
119.5061351047567
 20
176.866986294021
 30
0.0
 10
119.6477983751774
 20
176.6141185025762
 30
0.0
 10
119.90232612732
 20
176.1011234237893
 30
0.0
 10
120.0155373764865
 20
175.8412178943877
 30
0.0
 10
120.2152798014239
 20
175.3148876664547
 30
0.0
 10
120.3022787732854
 20
175.0461843853947
 30
0.0
 10
120.4459027825076
 20
174.5201669161303
 30
0.0
 10
120.5033623475028
 20
174.2613232173999
 30
0.0
 10
120.5936601616674
 20
173.7502898335303
 30
0.0
 10
120.6265583863588
 20
173.4970652851719
 30
0.0
 10
120.6915381883765
 20
172.7526611463982
 30
0.0
 10
120.6903613751364
 20
172.2845893316663
 30
0.0
 10
120.6391700149327
 20
171.6099455018045
 30
0.0
 10
120.6136947586064
 20
171.3897736792935
 30
0.0
 10
120.5473498724552
 20
170.9574896885188
 30
0.0
 10
120.5063613629708
 20
170.7451405872412
 30
0.0
 10
120.2687451410135
 20
169.7145944789547
 30
0.0
 10
119.9756664532208
 20
168.9743840473583
 30
0.0
 10
119.4110259774481
 20
167.9509655636815
 30
0.0
 10
119.2003656918689
 20
167.6236440132767
 30
0.0
 10
118.7421147985078
 20
167.0054350459315
 30
0.0
 10
118.4949760525439
 20
166.7147102285415
 30
0.0
 10
117.965735465724
 20
166.1685271840571
 30
0.0
 10
117.6836262114235
 20
165.9130826353274
 30
0.0
 10
117.0839803915681
 20
165.4382372233146
 30
0.0
 10
116.7653942840913
 20
165.2182162005492
 30
0.0
 10
115.7606371613834
 20
164.6206412534022
 30
0.0
 10
115.0379415480203
 20
164.3107788965734
 30
0.0
 10
113.872818363143
 20
163.9948510470233
 30
0.0
 10
113.4708192170248
 20
163.9146126658499
 30
0.0
 10
112.8457945359334
 20
163.8372152626809
 30
0.0
 10
112.6337706332264
 20
163.8186045708794
 30
0.0
 10
112.2019144937432
 20
163.7971067177713
 30
0.0
 10
111.9818712979711
 20
163.7943019795938
 30
0.0
 10
111.3199983415658
 20
163.811377316814
 30
0.0
 10
110.8731555426735
 20
163.8562981971226
 30
0.0
 10
109.9687641672168
 20
164.0217185039238
 30
0.0
 10
109.5112253435781
 20
164.1420502670275
 30
0.0
 10
109.0482517152487
 20
164.3082013034499
 30
0.0
  0
SPLINE
  5
A3
330
1F
100
AcDbEntity
  8
0
  6
Continuous
 62
     7
370
    25
100
AcDbSpline
210
0.0
220
0.0
230
1.0
 70
     8
 71
     3
 72
    76
 73
    72
 74
     0
 42
0.00000001
 43
0.00000001
 40
0.0
 40
0.0
 40
0.0
 40
0.0
 40
0.0312499999999998
 40
0.0312499999999998
 40
0.0624999999999996
 40
0.0624999999999996
 40
0.0937499999999994
 40
0.0937499999999994
 40
0.1249999999999991
 40
0.1249999999999991
 40
0.1562499999999989
 40
0.1562499999999989
 40
0.1874999999999987
 40
0.1874999999999987
 40
0.2499999999999983
 40
0.2499999999999983
 40
0.2812499999999981
 40
0.2812499999999981
 40
0.3124999999999979
 40
0.3124999999999979
 40
0.3749999999999975
 40
0.3749999999999975
 40
0.4062499999999974
 40
0.4062499999999974
 40
0.4218749999999974
 40
0.4218749999999974
 40
0.4374999999999975
 40
0.4374999999999975
 40
0.4531249999999976
 40
0.4531249999999976
 40
0.4687499999999976
 40
0.4687499999999976
 40
0.4843749999999977
 40
0.4843749999999977
 40
0.4999999999999978
 40
0.4999999999999978
 40
0.5156249999999979
 40
0.5156249999999979
 40
0.531249999999998
 40
0.531249999999998
 40
0.5468749999999981
 40
0.5468749999999981
 40
0.5624999999999982
 40
0.5624999999999982
 40
0.5937499999999983
 40
0.5937499999999983
 40
0.6093749999999984
 40
0.6093749999999984
 40
0.6249999999999986
 40
0.6249999999999986
 40
0.6874999999999988
 40
0.6874999999999988
 40
0.7187499999999989
 40
0.7187499999999989
 40
0.749999999999999
 40
0.749999999999999
 40
0.7812499999999992
 40
0.7812499999999992
 40
0.8124999999999993
 40
0.8124999999999993
 40
0.8749999999999997
 40
0.8749999999999997
 40
0.90625
 40
0.90625
 40
0.921875
 40
0.921875
 40
0.9375
 40
0.9375
 40
0.96875
 40
0.96875
 40
1.0
 40
1.0
 40
1.0
 40
1.0
 10
62.32448593598978
 20
140.9463129324766
 30
0.0
 10
62.17951079394661
 20
140.4758819477682
 30
0.0
 10
62.00136062919886
 20
140.0381512014833
 30
0.0
 10
61.59215714512951
 20
139.2172950755628
 30
0.0
 10
61.36096805812863
 20
138.8342888048957
 30
0.0
 10
60.85278287039835
 20
138.1179031749502
 30
0.0
 10
60.57362327813826
 20
137.7826524437635
 30
0.0
 10
59.98724127970672
 20
137.1732552195646
 30
0.0
 10
59.67969992503967
 20
136.8978575881034
 30
0.0
 10
59.04043880691357
 20
136.3996125423498
 30
0.0
 10
58.70869316961605
 20
136.17680482246
 30
0.0
 10
58.02364181170552
 20
135.780823222638
 30
0.0
 10
57.66865630090609
 20
135.6070364417317
 30
0.0
 10
56.58667301042779
 20
135.164243228546
 30
0.0
 10
55.84625378016506
 20
134.9725757470222
 30
0.0
 10
54.7111034238029
 20
134.8311587547444
 30
0.0
 10
54.32776868945993
 20
134.8086598922999
 30
0.0
 10
53.5553143901992
 20
134.8151405404181
 30
0.0
 10
53.16971059996177
 20
134.8439729717891
 30
0.0
 10
52.01339831438284
 20
135.0092246796478
 30
0.0
 10
51.24404335221245
 20
135.2207903546746
 30
0.0
 10
50.07691911962269
 20
135.7424878649691
 30
0.0
 10
49.69144190802047
 20
135.9487147299772
 30
0.0
 10
49.11915273043744
 20
136.3168734085908
 30
0.0
 10
48.92924833093801
 20
136.4495337084515
 30
0.0
 10
48.55078466055553
 20
136.7382794821276
 30
0.0
 10
48.36267210703868
 20
136.8941656632348
 30
0.0
 10
47.99483195357745
 20
137.2271510751594
 30
0.0
 10
47.81427499925012
 20
137.4048366418594
 30
0.0
 10
47.46040424562547
 20
137.7865795796441
 30
0.0
 10
47.28575707983627
 20
137.9923762465242
 30
0.0
 10
46.9514059365013
 20
138.4276321261595
 30
0.0
 10
46.79276367010903
 20
138.6554028322416
 30
0.0
 10
46.4938168618053
 20
139.133096074537
 30
0.0
 10
46.3521545449417
 20
139.3859689444024
 30
0.0
 10
46.09763165219875
 20
139.8989691147572
 30
0.0
 10
45.98442280911807
 20
140.1588774231416
 30
0.0
 10
45.78468536779467
 20
140.6852137129844
 30
0.0
 10
45.69768934928013
 20
140.9539194556822
 30
0.0
 10
45.55407195519928
 20
141.4799385200091
 30
0.0
 10
45.49661553019158
 20
141.7387832395898
 30
0.0
 10
45.40632392047462
 20
142.2498190026955
 30
0.0
 10
45.37342870194141
 20
142.5030459877201
 30
0.0
 10
45.30845860927388
 20
143.2474488493678
 30
0.0
 10
45.30964120555805
 20
143.7155208608989
 30
0.0
 10
45.36084130879805
 20
144.3901656270136
 30
0.0
 10
45.38631947899161
 20
144.6103378787774
 30
0.0
 10
45.45267029003084
 20
145.0426228846108
 30
0.0
 10
45.49366164894568
 20
145.2549716222872
 30
0.0
 10
45.73129158406441
 20
146.2855151559733
 30
0.0
 10
46.02438112323124
 20
147.0257252088496
 30
0.0
 10
46.58904017558473
 20
148.0491428252091
 30
0.0
 10
46.79970725144388
 20
148.3764642136697
 30
0.0
 10
47.25796971590105
 20
148.9946691440097
 30
0.0
 10
47.50511448454906
 20
149.2853919577701
 30
0.0
 10
48.0343678376223
 20
149.8315706722341
 30
0.0
 10
48.31648383339552
 20
150.0870128977168
 30
0.0
 10
48.91614412853535
 20
150.5618529867994
 30
0.0
 10
49.23473964377998
 20
150.7818719262178
 30
0.0
 10
50.23951411882122
 20
151.3794317670495
 30
0.0
 10
50.9622224575687
 20
151.689283351106
 30
0.0
 10
52.12736804266052
 20
152.0051906061389
 30
0.0
 10
52.52937521334479
 20
152.0854213726696
 30
0.0
 10
53.1544131227121
 20
152.1628054672316
 30
0.0
 10
53.36644163502901
 20
152.1814114048414
 30
0.0
 10
53.79830748375929
 20
152.2028989178749
 30
0.0
 10
54.01835323954561
 20
152.2056979817809
 30
0.0
 10
54.68023262136199
 20
152.1886052075967
 30
0.0
 10
55.12707951184116
 20
152.1436718617353
 30
0.0
 10
56.03147870238012
 20
151.9782240142345
 30
0.0
 10
56.48902124701666
 20
151.8578772053546
 30
0.0
 10
56.95199842878832
 20
151.6917089210507
 30
0.0
  0
ARC
  5
A4
330
1F
100
AcDbEntity
  8
0
  6
Continuous
 62
     7
370
    25
100
AcDbCircle
 10
83.0
 20
158.0
 30
0.0
 40
26.79980151938945
100
AcDbArc
 50
140.4848885181
 51
166.3863087766
  0
CIRCLE
  5
A5
330
1F
100
AcDbEntity
  8
0
  6
Continuous
 62
     7
370
    25
100
AcDbCircle
 10
54.0144927536
 20
172.4927536232
 30
0.0
 40
3.623188405797102
  0
ARC
  5
A6
330
1F
100
AcDbEntity
  8
0
  6
Continuous
 62
     7
370
    25
100
AcDbCircle
 10
83.0
 20
158.0
 30
0.0
 40
26.79980151938926
100
AcDbArc
 50
193.6136760277
 51
219.517091039
  0
CIRCLE
  5
A7
330
1F
100
AcDbEntity
  8
0
  6
Continuous
 62
     7
370
    25
100
AcDbCircle
 10
54.0144927536
 20
143.5072463768
 30
0.0
 40
3.623188405797102
  0
ARC
  5
A8
330
1F
100
AcDbEntity
  8
0
  6
Continuous
 62
     7
370
    25
100
AcDbCircle
 10
83.0
 20
158.0
 30
0.0
 40
26.7998015193897
100
AcDbArc
 50
13.6126223534
 51
39.5178676479
  0
CIRCLE
  5
A9
330
1F
100
AcDbEntity
  8
0
  6
Continuous
 62
     7
370
    25
100
AcDbCircle
 10
111.9855072464
 20
172.4927536232
 30
0.0
 40
3.623188405797094
  0
ARC
  5
AA
330
1F
100
AcDbEntity
  8
0
  6
Continuous
 62
     7
370
    25
100
AcDbCircle
 10
83.0
 20
158.0
 30
0.0
 40
26.79980151938981
100
AcDbArc
 50
320.4830467622
 51
346.3860377652
  0
CIRCLE
  5
AB
330
1F
100
AcDbEntity
  8
0
  6
Continuous
 62
     7
370
    25
100
AcDbCircle
 10
111.9855072464
 20
143.5072463768
 30
0.0
 40
3.623188405797094
  0
SPLINE
  5
AC
330
1F
100
AcDbEntity
  8
0
  6
Continuous
 62
     7
370
    25
100
AcDbSpline
210
0.0
220
0.0
230
1.0
 70
    11
 71
     3
 72
    15
 73
    11
 74
     0
 42
0.00000001
 43
0.00000001
 40
0.0
 40
0.0
 40
0.0
 40
0.0
 40
0.11875
 40
0.2434375
 40
0.368421875
 40
0.49342109375
 40
0.6184210546875
 40
0.743421052734375
 40
0.868421052636719
 40
1.0
 40
1.0
 40
1.0
 40
1.0
 10
82.63623765811602
 20
158.0
 30
0.0
 10
82.63593329363201
 20
157.909751378684
 30
0.0
 10
82.70819013292909
 20
157.7253517650392
 30
0.0
 10
82.98268798750149
 20
157.5972615552174
 30
0.0
 10
83.27242147970883
 20
157.7028501191841
 30
0.0
 10
83.4027559309131
 20
157.9824631842492
 30
0.0
 10
83.29717385969572
 20
158.2724280610725
 30
0.0
 10
83.01756863932475
 20
158.4026584367464
 30
0.0
 10
82.72234621594939
 20
158.2957079508435
 30
0.0
 10
82.63657490408131
 20
158.0999984723682
 30
0.0
 10
82.63623765811602
 20
158.0
 30
0.0
  0
ARC
  5
AD
330
1F
100
AcDbEntity
  8
0
  6
HIDDEN
 62
     7
370
    18
100
AcDbCircle
 10
83.0
 20
158.0
 30
0.0
 40
28.17713540046302
100
AcDbArc
 50
41.0090283399
 51
138.9909716601
  0
ARC
  5
AE
330
1F
100
AcDbEntity
  8
0
  6
HIDDEN
 62
     7
370
    18
100
AcDbCircle
 10
83.0
 20
158.0
 30
0.0
 40
28.17713540046329
100
AcDbArc
 50
347.8789259857
 51
12.1210740143
  0
ARC
  5
AF
330
1F
100
AcDbEntity
  8
0
  6
HIDDEN
 62
     7
370
    18
100
AcDbCircle
 10
83.0
 20
158.0
 30
0.0
 40
28.17713540046302
100
AcDbArc
 50
221.0090283399
 51
318.9909716601
  0
ARC
  5
B0
330
1F
100
AcDbEntity
  8
0
  6
HIDDEN
 62
     7
370
    18
100
AcDbCircle
 10
83.0
 20
158.0
 30
0.0
 40
28.17713540046257
100
AcDbArc
 50
167.8789259857
 51
192.1210740143
  0
ARC
  5
B1
330
1F
100
AcDbEntity
  8
0
  6
HIDDEN
 62
     7
370
    18
100
AcDbCircle
 10
54.0144927536
 20
143.5072463768
 30
0.0
 40
14.49275362318835
100
AcDbArc
 50
180.0
 51
270.0
  0
LINE
  5
B2
330
1F
100
AcDbEntity
  8
0
  6
HIDDEN
 62
     7
370
    18
100
AcDbLine
 10
39.5217391304
 20
143.5072463768
 30
0.0
 11
39.5217391304
 21
172.4927536232
 31
0.0
  0
ARC
  5
B3
330
1F
100
AcDbEntity
  8
0
  6
HIDDEN
 62
     7
370
    18
100
AcDbCircle
 10
54.0144927536
 20
172.4927536232
 30
0.0
 40
14.49275362318841
100
AcDbArc
 50
90.0
 51
180.0
  0
LINE
  5
B4
330
1F
100
AcDbEntity
  8
0
  6
HIDDEN
 62
     7
370
    18
100
AcDbLine
 10
111.9855072464
 20
186.9855072464
 30
0.0
 11
54.0144927536
 21
186.9855072464
 31
0.0
  0
ARC
  5
B5
330
1F
100
AcDbEntity
  8
0
  6
HIDDEN
 62
     7
370
    18
100
AcDbCircle
 10
111.9855072464
 20
172.4927536232
 30
0.0
 40
14.49275362318848
100
AcDbArc
 50
0.0
 51
90.0
  0
LINE
  5
B6
330
1F
100
AcDbEntity
  8
0
  6
HIDDEN
 62
     7
370
    18
100
AcDbLine
 10
126.4782608696
 20
143.5072463768
 30
0.0
 11
126.4782608696
 21
172.4927536232
 31
0.0
  0
ARC
  5
B7
330
1F
100
AcDbEntity
  8
0
  6
HIDDEN
 62
     7
370
    18
100
AcDbCircle
 10
111.9855072464
 20
143.5072463768
 30
0.0
 40
14.49275362318848
100
AcDbArc
 50
270.0
 51
0.0
  0
LINE
  5
B8
330
1F
100
AcDbEntity
  8
0
  6
HIDDEN
 62
     7
370
    18
100
AcDbLine
 10
111.9855072464
 20
129.0144927536
 30
0.0
 11
54.0144927536
 21
129.0144927536
 31
0.0
  0
CIRCLE
  5
B9
330
1F
100
AcDbEntity
  8
0
  6
HIDDEN
 62
     7
370
    18
100
AcDbCircle
 10
83.0
 20
158.0
 30
0.0
 40
45.65217391304344
  0
INSERT
  5
C5
330
1F
100
AcDbEntity
  8
10
100
AcDbBlockReference
  2
SW_CENTERMARKSYMBOL_0
 10
54.0144927536
 20
143.5072463768
 30
0.0
  0
INSERT
  5
D1
330
1F
100
AcDbEntity
  8
10
100
AcDbBlockReference
  2
SW_CENTERMARKSYMBOL_1
 10
54.0144927536
 20
172.4927536232
 30
0.0
  0
INSERT
  5
DD
330
1F
100
AcDbEntity
  8
10
100
AcDbBlockReference
  2
SW_CENTERMARKSYMBOL_2
 10
111.9855072464
 20
172.4927536232
 30
0.0
  0
INSERT
  5
E9
330
1F
100
AcDbEntity
  8
10
100
AcDbBlockReference
  2
SW_CENTERMARKSYMBOL_3
 10
111.9855072464
 20
143.5072463768
 30
0.0
  0
ARC
  5
EA
330
1F
100
AcDbEntity
  8
0
  6
Continuous
 62
     7
370
    25
100
AcDbCircle
 10
223.0
 20
76.5652160753
 30
0.0
 40
49.99999999999996
100
AcDbArc
 50
304.3011554328
 51
0.0
  0
ARC
  5
EB
330
1F
100
AcDbEntity
  8
0
  6
Continuous
 62
     7
370
    25
100
AcDbCircle
 10
223.0
 20
76.5652160753
 30
0.0
 40
49.99999999999997
100
AcDbArc
 50
172.505281025
 51
235.6988445672
  0
ARC
  5
EC
330
1F
100
AcDbEntity
  8
0
  6
Continuous
 62
     7
370
    25
100
AcDbCircle
 10
223.0
 20
76.5652160753
 30
0.0
 40
49.99999999999997
100
AcDbArc
 50
0.0
 51
7.494718975
  0
LINE
  5
ED
330
1F
100
AcDbEntity
  8
0
  6
Continuous
 62
     7
370
    25
100
AcDbLine
 10
246.1884057971
 20
35.2608695652
 30
0.0
 11
246.1884057971
 21
39.6086956522
 31
0.0
  0
LINE
  5
EE
330
1F
100
AcDbEntity
  8
0
  6
Continuous
 62
     7
370
    25
100
AcDbLine
 10
228.7971014493
 20
36.2536381207
 30
0.0
 11
228.7971014493
 21
35.2608695652
 31
0.0
  0
LINE
  5
EF
330
1F
100
AcDbEntity
  8
0
  6
Continuous
 62
     7
370
    25
100
AcDbLine
 10
217.2028985507
 20
35.2608695652
 30
0.0
 11
217.2028985507
 21
36.2449839306
 31
0.0
  0
LINE
  5
F0
330
1F
100
AcDbEntity
  8
0
  6
Continuous
 62
     7
370
    25
100
AcDbLine
 10
199.8115942029
 20
39.6086956522
 30
0.0
 11
199.8115942029
 21
35.2608695652
 31
0.0
  0
LINE
  5
F1
330
1F
100
AcDbEntity
  8
0
  6
Continuous
 62
     7
370
    25
100
AcDbLine
 10
272.5728443964
 20
83.0869565217
 30
0.0
 11
173.4271556036
 21
83.0869565217
 31
0.0
  0
SPLINE
  5
F2
330
1F
100
AcDbEntity
  8
0
  6
Continuous
 62
     7
370
    25
100
AcDbSpline
210
0.0
220
0.0
230
1.0
 70
     8
 71
     3
 72
    54
 73
    50
 74
     0
 42
0.00000001
 43
0.00000001
 40
0.0
 40
0.0
 40
0.0
 40
0.0
 40
0.0624999999999993
 40
0.0624999999999993
 40
0.1249999999999986
 40
0.1249999999999986
 40
0.1562499999999983
 40
0.1562499999999983
 40
0.1874999999999979
 40
0.1874999999999979
 40
0.2499999999999973
 40
0.2499999999999973
 40
0.2812499999999971
 40
0.2812499999999971
 40
0.3124999999999969
 40
0.3124999999999969
 40
0.3749999999999967
 40
0.3749999999999967
 40
0.4062499999999967
 40
0.4062499999999967
 40
0.4374999999999967
 40
0.4374999999999967
 40
0.4687499999999967
 40
0.4687499999999967
 40
0.4999999999999967
 40
0.4999999999999967
 40
0.5156249999999967
 40
0.5156249999999967
 40
0.5312499999999968
 40
0.5312499999999968
 40
0.5624999999999968
 40
0.5624999999999968
 40
0.5937499999999968
 40
0.5937499999999968
 40
0.6249999999999968
 40
0.6249999999999968
 40
0.6562499999999968
 40
0.6562499999999968
 40
0.6874999999999968
 40
0.6874999999999968
 40
0.7499999999999973
 40
0.7499999999999973
 40
0.812499999999998
 40
0.812499999999998
 40
0.8749999999999987
 40
0.8749999999999987
 40
0.9374999999999993
 40
0.9374999999999993
 40
1.0
 40
1.0
 40
1.0
 40
1.0
 10
229.7739618099133
 20
39.60869565217452
 30
0.0
 10
230.0104802853309
 20
40.05902937992617
 30
0.0
 10
230.2830818083842
 20
40.50939020001636
 30
0.0
 10
230.8963021485475
 20
41.41068585370022
 30
0.0
 10
231.2369116133604
 20
41.86162454406908
 30
0.0
 10
231.8008492911299
 20
42.53823848593399
 30
0.0
 10
231.997794613213
 20
42.76378558616256
 30
0.0
 10
232.404158345981
 20
43.20818317719299
 30
0.0
 10
232.6142484236965
 20
43.42786721170452
 30
0.0
 10
233.2657550250331
 20
44.07894079988937
 30
0.0
 10
233.7281067896579
 20
44.50251111283656
 30
0.0
 10
234.4701940376535
 20
45.11807872433491
 30
0.0
 10
234.7257138739644
 20
45.31993628922636
 30
0.0
 10
235.2553018903804
 20
45.71570124735472
 30
0.0
 10
235.5307068216011
 20
45.91042925775952
 30
0.0
 10
236.372223242739
 20
46.46849093673895
 30
0.0
 10
236.9566106957155
 20
46.80934155876231
 30
0.0
 10
237.8807743160421
 20
47.25564389771836
 30
0.0
 10
238.1963303415903
 20
47.3928725167204
 30
0.0
 10
238.8282797860581
 20
47.63368565444551
 30
0.0
 10
239.146665746581
 20
47.73830121327241
 30
0.0
 10
239.7891947046661
 20
47.91116216324714
 30
0.0
 10
240.1157727382767
 20
47.97943666608697
 30
0.0
 10
240.7501766743758
 20
48.07009756756953
 30
0.0
 10
241.0606025180591
 20
48.09346708778213
 30
0.0
 10
241.5159132843947
 20
48.0947630202195
 30
0.0
 10
241.6659576476071
 20
48.08955920809839
 30
0.0
 10
241.9625089602737
 20
48.06762248750503
 30
0.0
 10
242.1093957676139
 20
48.05076896488867
 30
0.0
 10
242.535776542589
 20
47.98413345063353
 30
0.0
 10
242.8040119823737
 20
47.91826104229489
 30
0.0
 10
243.311223535133
 20
47.7479533049723
 30
0.0
 10
243.5518441512893
 20
47.64244361066163
 30
0.0
 10
243.9943317206194
 20
47.40210300093173
 30
0.0
 10
244.1969974198676
 20
47.26744958792233
 30
0.0
 10
244.5701609559702
 20
46.97386299428734
 30
0.0
 10
244.7406290760283
 20
46.81490555192521
 30
0.0
 10
245.0523025610199
 20
46.4757080279812
 30
0.0
 10
245.1926251310772
 20
46.29614738721286
 30
0.0
 10
245.5657480234883
 20
45.74136577631673
 30
0.0
 10
245.7546854924576
 20
45.3467544319509
 30
0.0
 10
246.0327925308037
 20
44.52032559867427
 30
0.0
 10
246.1211769086075
 20
44.08621175059511
 30
0.0
 10
246.2022574623657
 20
43.21269905811609
 30
0.0
 10
246.1962855376795
 20
42.77020073913187
 30
0.0
 10
246.0975375498492
 20
41.87583453033132
 30
0.0
 10
246.0043542734686
 20
41.42281524189256
 30
0.0
 10
245.7300479403911
 20
40.51232928256406
 30
0.0
 10
245.5505141890564
 20
40.05944060401034
 30
0.0
 10
245.3274888077857
 20
39.60869565217387
 30
0.0
  0
SPLINE
  5
F3
330
1F
100
AcDbEntity
  8
0
  6
Continuous
 62
     7
370
    25
100
AcDbSpline
210
0.0
220
0.0
230
1.0
 70
     8
 71
     3
 72
    11
 73
     7
 74
     0
 42
0.00000001
 43
0.00000001
 40
0.0
 40
0.0
 40
0.0
 40
0.0
 40
0.0811409564890941
 40
0.5033498956501412
 40
0.7506494600253676
 40
1.0
 40
1.0
 40
1.0
 40
1.0
 10
228.8267423070446
 20
36.25363812073454
 30
0.0
 10
228.8175387745209
 20
36.33507377464623
 30
0.0
 10
228.7604455710897
 20
36.84025179660065
 30
0.0
 10
228.9824265033575
 20
37.68885318828462
 30
0.0
 10
229.3396439720848
 20
38.73474276259925
 30
0.0
 10
229.6287911747307
 20
39.31657710430727
 30
0.0
 10
229.7739618099131
 20
39.60869565217427
 30
0.0
  0
SPLINE
  5
F4
330
1F
100
AcDbEntity
  8
0
  6
Continuous
 62
     7
370
    25
100
AcDbSpline
210
0.0
220
0.0
230
1.0
 70
     8
 71
     3
 72
    10
 73
     6
 74
     0
 42
0.00000001
 43
0.00000001
 40
0.0
 40
0.0
 40
0.0
 40
0.0
 40
0.4075402329256721
 40
0.82475900135454
 40
1.0
 40
1.0
 40
1.0
 40
1.0
 10
216.2260381900869
 20
39.60869565217426
 30
0.0
 10
216.4508038118718
 20
39.13269013670406
 30
0.0
 10
216.9056729383661
 20
38.16937461136289
 30
0.0
 10
217.1813140646256
 20
37.0463880411743
 30
0.0
 10
217.1872173922558
 20
36.42791830156493
 30
0.0
 10
217.188963510873
 20
36.24498393061794
 30
0.0
  0
SPLINE
  5
F5
330
1F
100
AcDbEntity
  8
0
  6
Continuous
 62
     7
370
    25
100
AcDbSpline
210
0.0
220
0.0
230
1.0
 70
     8
 71
     3
 72
    54
 73
    50
 74
     0
 42
0.00000001
 43
0.00000001
 40
0.0
 40
0.0
 40
0.0
 40
0.0
 40
0.0624999999999994
 40
0.0624999999999994
 40
0.1249999999999989
 40
0.1249999999999989
 40
0.1562499999999986
 40
0.1562499999999986
 40
0.1874999999999983
 40
0.1874999999999983
 40
0.249999999999998
 40
0.249999999999998
 40
0.2812499999999981
 40
0.2812499999999981
 40
0.3124999999999982
 40
0.3124999999999982
 40
0.3749999999999978
 40
0.3749999999999978
 40
0.4062499999999979
 40
0.4062499999999979
 40
0.437499999999998
 40
0.437499999999998
 40
0.4687499999999981
 40
0.4687499999999981
 40
0.4999999999999982
 40
0.4999999999999982
 40
0.5156249999999983
 40
0.5156249999999983
 40
0.5312499999999983
 40
0.5312499999999983
 40
0.5624999999999987
 40
0.5624999999999987
 40
0.5937499999999991
 40
0.5937499999999991
 40
0.6249999999999993
 40
0.6249999999999993
 40
0.6562499999999994
 40
0.6562499999999994
 40
0.6874999999999996
 40
0.6874999999999996
 40
0.7499999999999997
 40
0.7499999999999997
 40
0.8124999999999997
 40
0.8124999999999997
 40
0.8749999999999998
 40
0.8749999999999998
 40
0.9374999999999998
 40
0.9374999999999998
 40
1.0
 40
1.0
 40
1.0
 40
1.0
 10
200.6725111922143
 20
39.60869565217389
 30
0.0
 10
200.4496892816823
 20
40.05902937992553
 30
0.0
 10
200.2713154920261
 20
40.50939020001568
 30
0.0
 10
199.9988299668155
 20
41.41068585369955
 30
0.0
 10
199.9047102309136
 20
41.8616245440684
 30
0.0
 10
199.828997772314
 20
42.53823848593332
 30
0.0
 10
199.8148444160234
 20
42.76378558616188
 30
0.0
 10
199.8093463298086
 20
43.20818317719232
 30
0.0
 10
199.8178807642124
 20
43.42786721170386
 30
0.0
 10
199.8778212837472
 20
44.07894079988873
 30
0.0
 10
199.9631426465291
 20
44.50251111283594
 30
0.0
 10
200.1674674357873
 20
45.11807872433432
 30
0.0
 10
200.2483897614313
 20
45.31993628922577
 30
0.0
 10
200.4388435535398
 20
45.71570124735415
 30
0.0
 10
200.5490341055593
 20
45.91042925775897
 30
0.0
 10
200.9212552831184
 20
46.46849093673844
 30
0.0
 10
201.2248002023826
 20
46.80934155876184
 30
0.0
 10
201.7860976285342
 20
47.25564389771796
 30
0.0
 10
201.9910085864814
 20
47.39287251672003
 30
0.0
 10
202.429865999293
 20
47.63368565444519
 30
0.0
 10
202.6649633775032
 20
47.73830121327213
 30
0.0
 10
203.1703725704132
 20
47.91116216324694
 30
0.0
 10
203.4430946441852
 20
47.9794366660868
 30
0.0
 10
204.0060835021407
 20
48.07009756756943
 30
0.0
 10
204.2981659130631
 20
48.09346708778209
 30
0.0
 10
204.7524583403199
 20
48.09476302021952
 30
0.0
 10
204.9065904945269
 20
48.08955920809842
 30
0.0
 10
205.2203891338096
 20
48.0676224875051
 30
0.0
 10
205.3805305742092
 20
48.05076896488877
 30
0.0
 10
205.8593942656431
 20
47.9841334506337
 30
0.0
 10
206.1795794044916
 20
47.9182610422951
 30
0.0
 10
206.8218460498241
 20
47.74795330497258
 30
0.0
 10
207.1464388896793
 20
47.64244361066196
 30
0.0
 10
207.78157993964
 20
47.4021030009321
 30
0.0
 10
208.0927805632398
 20
47.26744958792272
 30
0.0
 10
208.7045330723666
 20
46.97386299428778
 30
0.0
 10
209.0050742461598
 20
46.81490555192567
 30
0.0
 10
209.596853483587
 20
46.4757080279817
 30
0.0
 10
209.886665800942
 20
46.29614738721336
 30
0.0
 10
210.7260994397662
 20
45.74136577631727
 30
0.0
 10
211.2524282270072
 20
45.34675443195147
 30
0.0
 10
212.2520359496403
 20
44.52032559867487
 30
0.0
 10
212.7266920745689
 20
44.08621175059572
 30
0.0
 10
213.6013370668382
 20
43.2126990581167
 30
0.0
 10
214.0052728013822
 20
42.77020073913248
 30
0.0
 10
214.7517766130796
 20
41.87583453033194
 30
0.0
 10
215.0950579554196
 20
41.42281524189319
 30
0.0
 10
215.7152994969465
 20
40.51232928256469
 30
0.0
 10
215.9893037368562
 20
40.05944060401094
 30
0.0
 10
216.2260381900867
 20
39.60869565217448
 30
0.0
  0
SPLINE
  5
F6
330
1F
100
AcDbEntity
  8
0
  6
Continuous
 62
     7
370
    25
100
AcDbSpline
210
0.0
220
0.0
230
1.0
 70
     8
 71
     3
 72
    13
 73
     9
 74
     0
 42
0.00000001
 43
0.00000001
 40
0.0
 40
0.0
 40
0.0
 40
0.0
 40
0.0954620493765915
 40
0.2576061678647261
 40
0.426098397778487
 40
0.5945285643419222
 40
0.7945491759746703
 40
1.0
 40
1.0
 40
1.0
 40
1.0
 10
200.6024260591541
 20
45.96122707581862
 30
0.0
 10
200.6885120373808
 20
45.73556220257672
 30
0.0
 10
200.9208166977426
 20
45.12660122177692
 30
0.0
 10
201.4546024245429
 20
44.1426982479602
 30
0.0
 10
202.1990957160993
 20
43.01918626283999
 30
0.0
 10
203.1689846580761
 20
41.86205217994929
 30
0.0
 10
204.3806400277413
 20
40.6881662890782
 30
0.0
 10
205.4198547456277
 20
39.97138963746127
 30
0.0
 10
205.9464208643545
 20
39.60820165239937
 30
0.0
  0
SPLINE
  5
F7
330
1F
100
AcDbEntity
  8
0
  6
Continuous
 62
     7
370
    25
100
AcDbSpline
210
0.0
220
0.0
230
1.0
 70
     8
 71
     3
 72
    11
 73
     7
 74
     0
 42
0.00000001
 43
0.00000001
 40
0.0
 40
0.0
 40
0.0
 40
0.0
 40
0.2247673133591977
 40
0.4579344049968906
 40
0.7265229336340858
 40
1.0
 40
1.0
 40
1.0
 40
1.0
 10
240.0537824131812
 20
39.60833050085573
 30
0.0
 10
240.6268239646801
 20
40.00667572706254
 30
0.0
 10
241.7943222009775
 20
40.81825273717187
 30
0.0
 10
243.2737808127661
 20
42.32539513468165
 30
0.0
 10
244.5520148313964
 20
44.03852627184985
 30
0.0
 10
245.1203739299657
 20
45.30757838994127
 30
0.0
 10
245.4071163101351
 20
45.94782682762176
 30
0.0
  0
LINE
  5
F8
330
1F
100
AcDbEntity
  8
0
  6
Continuous
 62
     7
370
    25
100
AcDbLine
 10
251.9855072464
 20
35.2608695652
 30
0.0
 11
251.9855072464
 21
30.9130434783
 31
0.0
  0
LINE
  5
F9
330
1F
100
AcDbEntity
  8
0
  6
Continuous
 62
     7
370
    25
100
AcDbLine
 10
251.9855072464
 20
30.9130434783
 30
0.0
 11
237.4927536232
 21
30.9130434783
 31
0.0
  0
LINE
  5
FA
330
1F
100
AcDbEntity
  8
0
  6
Continuous
 62
     7
370
    25
100
AcDbLine
 10
237.4927536232
 20
35.2608695652
 30
0.0
 11
251.9855072464
 21
35.2608695652
 31
0.0
  0
LINE
  5
FB
330
1F
100
AcDbEntity
  8
0
  6
Continuous
 62
     7
370
    25
100
AcDbLine
 10
208.5072463768
 20
30.9130434783
 30
0.0
 11
237.4927536232
 21
30.9130434783
 31
0.0
  0
LINE
  5
FC
330
1F
100
AcDbEntity
  8
0
  6
Continuous
 62
     7
370
    25
100
AcDbLine
 10
208.5072463768
 20
35.2608695652
 30
0.0
 11
237.4927536232
 21
35.2608695652
 31
0.0
  0
LINE
  5
FD
330
1F
100
AcDbEntity
  8
0
  6
Continuous
 62
     7
370
    25
100
AcDbLine
 10
194.0144927536
 20
30.9130434783
 30
0.0
 11
194.0144927536
 21
35.2608695652
 31
0.0
  0
LINE
  5
FE
330
1F
100
AcDbEntity
  8
0
  6
Continuous
 62
     7
370
    25
100
AcDbLine
 10
208.5072463768
 20
30.9130434783
 30
0.0
 11
194.0144927536
 21
30.9130434783
 31
0.0
  0
LINE
  5
FF
330
1F
100
AcDbEntity
  8
0
  6
Continuous
 62
     7
370
    25
100
AcDbLine
 10
194.0144927536
 20
35.2608695652
 30
0.0
 11
208.5072463768
 21
35.2608695652
 31
0.0
  0
LINE
  5
100
330
1F
100
AcDbEntity
  8
0
  6
Continuous
 62
     7
370
    25
100
AcDbLine
 10
229.7739618099
 20
39.6086956522
 30
0.0
 11
246.1884057971
 21
39.6086956522
 31
0.0
  0
LINE
  5
101
330
1F
100
AcDbEntity
  8
0
  6
Continuous
 62
     7
370
    25
100
AcDbLine
 10
199.8115942029
 20
39.6086956522
 30
0.0
 11
216.2260381901
 21
39.6086956522
 31
0.0
  0
LINE
  5
102
330
1F
100
AcDbEntity
  8
0
  6
HIDDEN
 62
     7
370
    18
100
AcDbLine
 10
228.8155762304
 20
36.3770257097
 30
0.0
 11
228.8110364891
 21
36.2449839306
 31
0.0
  0
SPLINE
  5
103
330
1F
100
AcDbEntity
  8
0
  6
HIDDEN
 62
     7
370
    18
100
AcDbSpline
210
0.0
220
0.0
230
1.0
 70
     8
 71
     3
 72
    12
 73
     8
 74
     0
 42
0.00000001
 43
0.00000001
 40
0.0
 40
0.0
 40
0.0
 40
0.0
 40
0.5000000000000004
 40
0.5000000000000004
 40
0.7500000000000002
 40
0.7500000000000002
 40
1.0
 40
1.0
 40
1.0
 40
1.0
 10
245.3274888077857
 20
39.60869565217389
 30
0.0
 10
244.9392994873425
 20
38.82414648763646
 30
0.0
 10
244.4313241889906
 20
38.06634647786581
 30
0.0
 10
243.4725128105384
 20
36.96769527500603
 30
0.0
 10
243.1174726454038
 20
36.60629229998086
 30
0.0
 10
242.3499789959022
 20
35.91343101683943
 30
0.0
 10
241.9363888999079
 20
35.58016263235979
 30
0.0
 10
241.4892147649147
 20
35.26086956521776
 30
0.0
  0
LINE
  5
104
330
1F
100
AcDbEntity
  8
0
  6
HIDDEN
 62
     7
370
    18
100
AcDbLine
 10
228.9165838368
 20
35.2608695652
 30
0.0
 11
228.826742307
 21
36.2536381207
 31
0.0
  0
SPLINE
  5
105
330
1F
100
AcDbEntity
  8
0
  6
HIDDEN
 62
     7
370
    18
100
AcDbSpline
210
0.0
220
0.0
230
1.0
 70
     8
 71
     3
 72
     9
 73
     5
 74
     0
 42
0.00000001
 43
0.00000001
 40
0.0
 40
0.0
 40
0.0
 40
0.0
 40
0.2269388881430783
 40
1.0
 40
1.0
 40
1.0
 40
1.0
 10
217.188963510873
 20
36.24498393061794
 30
0.0
 10
217.1932076544102
 20
36.16655310750453
 30
0.0
 10
217.2119093567578
 20
35.82094983185981
 30
0.0
 10
217.139439664263
 20
35.50506660431796
 30
0.0
 10
217.083416163207
 20
35.2608695652175
 30
0.0
  0
SPLINE
  5
106
330
1F
100
AcDbEntity
  8
0
  6
HIDDEN
 62
     7
370
    18
100
AcDbSpline
210
0.0
220
0.0
230
1.0
 70
     8
 71
     3
 72
    14
 73
    10
 74
     0
 42
0.00000001
 43
0.00000001
 40
0.0
 40
0.0
 40
0.0
 40
0.0
 40
0.25
 40
0.25
 40
0.5
 40
0.5
 40
0.75
 40
0.75
 40
1.0
 40
1.0
 40
1.0
 40
1.0
 10
204.5107852350854
 20
35.26086956521772
 30
0.0
 10
204.0627896543721
 20
35.58074916432333
 30
0.0
 10
203.6510083712367
 20
35.91282768171726
 30
0.0
 10
202.8897720954264
 20
36.59946712976102
 30
0.0
 10
202.5404188230889
 20
36.95405340043425
 30
0.0
 10
201.9000369550621
 20
37.68552600746619
 30
0.0
 10
201.6081729214832
 20
38.06412645528864
 30
0.0
 10
201.092351416028
 20
38.82863290485506
 30
0.0
 10
200.866812844745
 20
39.21600272855816
 30
0.0
 10
200.6725111922143
 20
39.60869565217387
 30
0.0
  0
LINE
  5
107
330
1F
100
AcDbEntity
  8
0
  6
HIDDEN
 62
     7
370
    18
100
AcDbLine
 10
217.0834161632
 20
35.2608695652
 30
0.0
 11
217.173257693
 21
36.2536381207
 31
0.0
  0
LINE
  5
108
330
1F
100
AcDbEntity
  8
0
  6
HIDDEN
 62
     7
370
    18
100
AcDbLine
 10
229.3082895021
 20
39.6081078035
 30
0.0
 11
228.8939156965
 21
40.7905465817
 31
0.0
  0
LINE
  5
109
330
1F
100
AcDbEntity
  8
0
  6
HIDDEN
 62
     7
370
    18
100
AcDbLine
 10
228.8643654604
 20
41.1487975177
 30
0.0
 11
228.8363366198
 21
41.7990230114
 31
0.0
  0
SPLINE
  5
10A
330
1F
100
AcDbEntity
  8
0
  6
HIDDEN
 62
     7
370
    18
100
AcDbSpline
210
0.0
220
0.0
230
1.0
 70
     8
 71
     3
 72
    34
 73
    30
 74
     0
 42
0.00000001
 43
0.00000001
 40
0.0
 40
0.0
 40
0.0
 40
0.0
 40
0.0488376252712149
 40
0.0995005253589471
 40
0.1578577936647924
 40
0.2178735511790068
 40
0.2777857414732456
 40
0.3389473931733198
 40
0.3975977405433345
 40
0.4276611150398944
 40
0.4577151914110377
 40
0.4878816944458756
 40
0.5184858340897261
 40
0.5423253320843632
 40
0.5667229603251753
 40
0.5846103567213938
 40
0.6029803611271682
 40
0.620885729262607
 40
0.6393565727941765
 40
0.6609532773744035
 40
0.683168607420517
 40
0.7166544941396685
 40
0.7510243642620544
 40
0.7791680533212072
 40
0.8073206246223505
 40
0.8650763612736955
 40
0.9246723175426139
 40
0.9854741345252213
 40
1.0
 40
1.0
 40
1.0
 40
1.0
 10
216.6916768209215
 20
39.60804741974587
 30
0.0
 10
216.8615960054992
 20
40.00641426241437
 30
0.0
 10
217.2077849948319
 20
40.81803665213906
 30
0.0
 10
217.2349456367352
 20
42.32451913105236
 30
0.0
 10
216.9064102798303
 20
44.04638223192501
 30
0.0
 10
216.1795126668965
 20
45.95713550844091
 30
0.0
 10
215.1270782939464
 20
47.94717496914388
 30
0.0
 10
213.807111853498
 20
49.93772964797756
 30
0.0
 10
212.4985220183498
 20
51.57768162862425
 30
0.0
 10
211.3415516938244
 20
52.8359134388723
 30
0.0
 10
210.395791541505
 20
53.75914126270573
 30
0.0
 10
209.3745085119582
 20
54.63732353811287
 30
0.0
 10
208.3509242793197
 20
55.38180997094379
 30
0.0
 10
207.3357115128834
 20
55.97663177706333
 30
0.0
 10
206.4413611355519
 20
56.36969147831159
 30
0.0
 10
205.602886822334
 20
56.60945463730402
 30
0.0
 10
204.8563845656851
 20
56.71183106122168
 30
0.0
 10
204.1284638264322
 20
56.69018512954693
 30
0.0
 10
203.40999315409
 20
56.53725247371311
 30
0.0
 10
202.718867837863
 20
56.23879847312886
 30
0.0
 10
201.9799051383151
 20
55.72924964669348
 30
0.0
 10
201.2835107425224
 20
54.98742014679234
 30
0.0
 10
200.7245721564496
 20
54.08393850780847
 30
0.0
 10
200.3305654096993
 20
53.17152858906845
 30
0.0
 10
199.9728406690296
 20
51.97776884815406
 30
0.0
 10
199.7560069399741
 20
50.39495026528531
 30
0.0
 10
199.8756301014604
 20
48.42607938026877
 30
0.0
 10
200.200501169161
 20
46.93235478850366
 30
0.0
 10
200.5374502511046
 20
46.11822110485732
 30
0.0
 10
200.6024260591541
 20
45.96122707581862
 30
0.0
  0
LWPOLYLINE
  5
10B
330
1F
100
AcDbEntity
  8
0
  6
HIDDEN
 62
     7
370
    18
100
AcDbPolyline
 90
       31
 70
   128
 43
0.0
 10
245.4071163101
 20
45.9478268276
 10
245.4165809652
 20
45.9669218913
 10
245.9882382915
 20
47.9365825275
 10
246.1883688166
 20
49.9620129881
 10
246.0085825105
 20
51.8774683449
 10
245.766309329
 20
52.8308722139
 10
245.4118369206
 20
53.7499499852
 10
244.930695072
 20
54.6203187829
 10
244.2952416171
 20
55.4199439123
 10
243.68242426
 20
55.9536992697
 10
242.9365689282
 20
56.3804320744
 10
242.313198464
 20
56.5893868665
 10
241.6139290731
 20
56.6914576932
 10
240.8919536316
 20
56.6706241468
 10
240.1287274719
 20
56.527115235
 10
239.2413012636
 20
56.2225192622
 10
238.3569841757
 20
55.7888601411
 10
237.0992479985
 20
54.9750868401
 10
235.9073633284
 20
54.012751558
 10
235.0015133627
 20
53.1656201427
 10
234.1543953666
 20
52.2834501224
 10
232.5894906706
 20
50.4095644766
 10
231.21874972
 20
48.4382795377
 10
230.0933588763
 20
46.4323165475
 10
229.5813065594
 20
45.2855554436
 10
229.1860215287
 20
44.1613590603
 10
228.9133747713
 20
43.0265721416
 10
228.7992669049
 20
41.9380168774
 10
228.8992030648
 20
40.7264454145
 10
229.3082013029
 20
39.6082659601
 10
229.3082013029
 20
39.6082659601
  0
SPLINE
  5
10C
330
1F
100
AcDbEntity
  8
0
  6
HIDDEN
 62
     7
370
    18
100
AcDbSpline
210
0.0
220
0.0
230
1.0
 70
     8
 71
     3
 72
     9
 73
     5
 74
     0
 42
0.00000001
 43
0.00000001
 40
0.0
 40
0.0
 40
0.0
 40
0.0
 40
0.9634249366151001
 40
1.0
 40
1.0
 40
1.0
 40
1.0
 10
199.8830865200442
 20
49.23880339163203
 30
0.0
 10
199.8370476509377
 20
49.48141850726132
 30
0.0
 10
199.7892609813626
 20
49.73324416218126
 30
0.0
 10
199.8132934511402
 20
49.97992881442958
 30
0.0
 10
199.8141724402456
 20
49.98895132122164
 30
0.0
  0
LINE
  5
10D
330
1F
100
AcDbEntity
  8
0
  6
HIDDEN
 62
     7
370
    18
100
AcDbLine
 10
228.7971014493
 20
39.6086956522
 30
0.0
 11
229.7739618099
 21
39.6086956522
 31
0.0
  0
LINE
  5
10E
330
1F
100
AcDbEntity
  8
0
  6
HIDDEN
 62
     7
370
    18
100
AcDbLine
 10
216.2260381901
 20
39.6086956522
 30
0.0
 11
217.2028985507
 21
39.6086956522
 31
0.0
  0
ARC
  5
10F
330
1F
100
AcDbEntity
  8
0
  6
HIDDEN
 62
     7
370
    18
100
AcDbCircle
 10
223.0
 20
76.5652160753
 30
0.0
 40
45.65217391304345
100
AcDbArc
 50
295.2092487976
 51
0.0
  0
ARC
  5
110
330
1F
100
AcDbEntity
  8
0
  6
HIDDEN
 62
     7
370
    18
100
AcDbCircle
 10
223.0
 20
76.5652160753
 30
0.0
 40
45.65217391304346
100
AcDbArc
 50
171.7867876295
 51
244.790885618
  0
ARC
  5
111
330
1F
100
AcDbEntity
  8
0
  6
HIDDEN
 62
     7
370
    18
100
AcDbCircle
 10
223.0
 20
76.5652160753
 30
0.0
 40
45.65217391304346
100
AcDbArc
 50
0.0
 51
8.2132123705
  0
LINE
  5
112
330
1F
100
AcDbEntity
  8
0
  6
HIDDEN
 62
     7
370
    18
100
AcDbLine
 10
246.1884057971
 20
43.0577490624
 30
0.0
 11
246.1884057971
 21
49.988954798
 31
0.0
  0
LINE
  5
113
330
1F
100
AcDbEntity
  8
0
  6
HIDDEN
 62
     7
370
    18
100
AcDbLine
 10
228.7971014493
 20
41.7843892274
 30
0.0
 11
228.7971014493
 21
39.6086956522
 31
0.0
  0
LINE
  5
114
330
1F
100
AcDbEntity
  8
0
  6
HIDDEN
 62
     7
370
    18
100
AcDbLine
 10
217.2028985507
 20
39.6086956522
 30
0.0
 11
217.2028985507
 21
41.7990215335
 31
0.0
  0
LINE
  5
115
330
1F
100
AcDbEntity
  8
0
  6
HIDDEN
 62
     7
370
    18
100
AcDbLine
 10
199.8115942029
 20
49.9869388971
 30
0.0
 11
199.8115942029
 21
43.0535645956
 31
0.0
  0
LINE
  5
116
330
1F
100
AcDbEntity
  8
0
  6
HIDDEN
 62
     7
370
    18
100
AcDbLine
 10
241.115942029
 20
30.9130434783
 30
0.0
 11
241.115942029
 21
39.6086956522
 31
0.0
  0
LINE
  5
117
330
1F
100
AcDbEntity
  8
0
  6
HIDDEN
 62
     7
370
    18
100
AcDbLine
 10
233.8695652174
 20
39.6086956522
 30
0.0
 11
233.8695652174
 21
30.9130434783
 31
0.0
  0
LINE
  5
118
330
1F
100
AcDbEntity
  8
0
  6
HIDDEN
 62
     7
370
    18
100
AcDbLine
 10
212.1304347826
 20
30.9130434783
 30
0.0
 11
212.1304347826
 21
39.6086956522
 31
0.0
  0
LINE
  5
119
330
1F
100
AcDbEntity
  8
0
  6
HIDDEN
 62
     7
370
    18
100
AcDbLine
 10
204.884057971
 20
39.6086956522
 30
0.0
 11
204.884057971
 21
30.9130434783
 31
0.0
  0
ARC
  5
11A
330
1F
100
AcDbEntity
  8
0
  6
HIDDEN
 62
     7
370
    18
100
AcDbCircle
 10
223.0
 20
76.5637681159
 30
0.0
 40
45.65217391304346
100
AcDbArc
 50
270.4567284071
 51
295.2099702171
  0
ARC
  5
11B
330
1F
100
AcDbEntity
  8
0
  6
HIDDEN
 62
     7
370
    18
100
AcDbCircle
 10
223.0
 20
76.5637681159
 30
0.0
 40
45.65217391304344
100
AcDbArc
 50
244.7901402673
 51
269.5436536982
  0
LINE
  5
11C
330
1F
100
AcDbEntity
  8
0
  6
HIDDEN
 62
     7
370
    18
100
AcDbLine
 10
246.1884057971
 20
43.0535645956
 30
0.0
 11
246.1884057971
 21
43.0577490624
 31
0.0
  0
LINE
  5
11D
330
1F
100
AcDbEntity
  8
0
  6
HIDDEN
 62
     7
370
    18
100
AcDbLine
 10
228.7971014493
 20
41.7990230114
 30
0.0
 11
228.7971014493
 21
41.7843892274
 31
0.0
  0
LINE
  5
11E
330
1F
100
AcDbEntity
  8
0
  6
HIDDEN
 62
     7
370
    18
100
AcDbLine
 10
199.8115942029
 20
49.9889513212
 30
0.0
 11
199.8115942029
 21
49.9869388971
 31
0.0
  0
LINE
  5
11F
330
1F
100
AcDbEntity
  8
0
  6
HIDDEN
 62
     7
370
    18
100
AcDbLine
 10
217.2028985507
 20
36.2449839306
 30
0.0
 11
217.2028985507
 21
36.2536381207
 31
0.0
  0
ENDSEC
  0
SECTION
  2
OBJECTS
  0
DICTIONARY
  5
C
330
0
100
AcDbDictionary
281
     1
  3
ACAD_GROUP
350
D
  3
ACAD_LAYOUT
350
1A
  3
ACAD_MLINESTYLE
350
17
  3
ACAD_PLOTSETTINGS
350
19
  3
ACAD_PLOTSTYLENAME
350
E
  3
ACAD_SCALELIST
350
47
  3
DWGPROPS
350
120
  0
DICTIONARY
  5
D
102
{ACAD_REACTORS
330
C
102
}
330
C
100
AcDbDictionary
281
     1
  0
DICTIONARY
  5
1A
102
{ACAD_REACTORS
330
C
102
}
330
C
100
AcDbDictionary
281
     1
  3
Layout1
350
1E
  3
Layout2
350
26
  3
Model
350
22
  0
DICTIONARY
  5
17
102
{ACAD_REACTORS
330
C
102
}
330
C
100
AcDbDictionary
281
     1
  3
Standard
350
18
  0
DICTIONARY
  5
19
102
{ACAD_REACTORS
330
C
102
}
330
C
100
AcDbDictionary
281
     1
  0
ACDBDICTIONARYWDFLT
  5
E
102
{ACAD_REACTORS
330
C
102
}
330
C
100
AcDbDictionary
281
     1
  3
Normal
350
F
100
AcDbDictionaryWithDefault
340
F
  0
DICTIONARY
  5
47
102
{ACAD_REACTORS
330
C
102
}
330
C
100
AcDbDictionary
281
     1
  3
A0
350
48
  3
A1
350
49
  3
A2
350
4A
  3
A3
350
4B
  3
A4
350
4C
  3
A5
350
4D
  3
A6
350
4E
  3
A7
350
4F
  3
A8
350
50
  3
A9
350
51
  3
B0
350
52
  3
B1
350
53
  3
B2
350
54
  3
B3
350
55
  3
B4
350
56
  3
B5
350
57
  3
B6
350
58
  0
XRECORD
  5
120
102
{ACAD_REACTORS
330
C
102
}
330
C
100
AcDbXrecord
280
     1
  1
DWGPROPS COOKIE
  2

  3

  4

  6

  7

  8

  9

300
=
301
=
302
=
303
=
304
=
305
=
306
=
307
=
308
=
309
=
 40
0.0
 41
2461215.223934213
 42
2461215.223934595
  1

 90
        0
  0
LAYOUT
  5
1E
102
{ACAD_REACTORS
330
1A
102
}
330
1A
100
AcDbPlotSettings
  1

  2
none_device
  4

  6

 40
0.0
 41
0.0
 42
0.0
 43
0.0
 44
0.0
 45
0.0
 46
0.0
 47
0.0
 48
0.0
 49
0.0
140
0.0
141
0.0
142
1.0
143
1.0
 70
   688
 72
     1
 73
     0
 74
     5
  7

 75
    16
147
1.0
148
0.0
149
0.0
100
AcDbLayout
  1
Layout1
 70
     1
 71
     1
 10
0.0
 20
0.0
 11
420.0
 21
297.0
 12
0.0
 22
0.0
 32
0.0
 14
1.0000000000E+20
 24
1.0000000000E+20
 34
1.0000000000E+20
 15
-1.0000000000E+20
 25
-1.0000000000E+20
 35
-1.0000000000E+20
146
0.0
 13
0.0
 23
0.0
 33
0.0
 16
1.0
 26
0.0
 36
0.0
 17
0.0
 27
1.0
 37
0.0
 76
     0
330
1B
  0
LAYOUT
  5
26
102
{ACAD_REACTORS
330
1A
102
}
330
1A
100
AcDbPlotSettings
  1

  2
none_device
  4

  6

 40
0.0
 41
0.0
 42
0.0
 43
0.0
 44
0.0
 45
0.0
 46
0.0
 47
0.0
 48
0.0
 49
0.0
140
0.0
141
0.0
142
1.0
143
1.0
 70
   688
 72
     1
 73
     0
 74
     5
  7

 75
    16
147
1.0
148
0.0
149
0.0
100
AcDbLayout
  1
Layout2
 70
     1
 71
     2
 10
0.0
 20
0.0
 11
0.0
 21
0.0
 12
0.0
 22
0.0
 32
0.0
 14
0.0
 24
0.0
 34
0.0
 15
0.0
 25
0.0
 35
0.0
146
0.0
 13
0.0
 23
0.0
 33
0.0
 16
1.0
 26
0.0
 36
0.0
 17
0.0
 27
1.0
 37
0.0
 76
     0
330
23
  0
LAYOUT
  5
22
102
{ACAD_REACTORS
330
1A
102
}
330
1A
100
AcDbPlotSettings
  1

  2
none_device
  4
Letter_(8.50_x_11.00_Inches)
  6

 40
6.35
 41
6.35
 42
6.35000508
 43
6.35000508
 44
215.9
 45
279.4
 46
0.0
 47
0.0
 48
0.0
 49
0.0
140
0.0
141
0.0
142
1.0
143
1.0
 70
  1712
 72
     1
 73
     0
 74
     0
  7

 75
     0
147
1.0
148
0.0
149
0.0
100
AcDbLayout
  1
Model
 70
     1
 71
     0
 10
0.0
 20
0.0
 11
297.0
 21
210.0
 12
0.0
 22
0.0
 32
0.0
 14
0.0
 24
0.0
 34
0.0
 15
297.0
 25
210.0
 35
0.0
146
0.0
 13
0.0
 23
0.0
 33
0.0
 16
1.0
 26
0.0
 36
0.0
 17
0.0
 27
1.0
 37
0.0
 76
     0
330
1F
331
29
  0
MLINESTYLE
  5
18
102
{ACAD_REACTORS
330
17
102
}
330
17
100
AcDbMlineStyle
  2
Standard
 70
     0
  3

 62
   256
 51
90.0
 52
90.0
 71
     2
 49
0.5
 62
   256
  6
BYLAYER
 49
-0.5
 62
   256
  6
BYLAYER
  0
ACDBPLACEHOLDER
  5
F
102
{ACAD_REACTORS
330
E
102
}
330
E
  0
SCALE
  5
48
102
{ACAD_REACTORS
330
47
102
}
330
47
100
AcDbScale
 70
     0
300
1:1
140
1.0
141
1.0
290
     1
  0
SCALE
  5
49
102
{ACAD_REACTORS
330
47
102
}
330
47
100
AcDbScale
 70
     0
300
1:2
140
1.0
141
2.0
290
     0
  0
SCALE
  5
4A
102
{ACAD_REACTORS
330
47
102
}
330
47
100
AcDbScale
 70
     0
300
1:4
140
1.0
141
4.0
290
     0
  0
SCALE
  5
4B
102
{ACAD_REACTORS
330
47
102
}
330
47
100
AcDbScale
 70
     0
300
1:5
140
1.0
141
5.0
290
     0
  0
SCALE
  5
4C
102
{ACAD_REACTORS
330
47
102
}
330
47
100
AcDbScale
 70
     0
300
1:8
140
1.0
141
8.0
290
     0
  0
SCALE
  5
4D
102
{ACAD_REACTORS
330
47
102
}
330
47
100
AcDbScale
 70
     0
300
1:10
140
1.0
141
10.0
290
     0
  0
SCALE
  5
4E
102
{ACAD_REACTORS
330
47
102
}
330
47
100
AcDbScale
 70
     0
300
1:16
140
1.0
141
16.0
290
     0
  0
SCALE
  5
4F
102
{ACAD_REACTORS
330
47
102
}
330
47
100
AcDbScale
 70
     0
300
1:20
140
1.0
141
20.0
290
     0
  0
SCALE
  5
50
102
{ACAD_REACTORS
330
47
102
}
330
47
100
AcDbScale
 70
     0
300
1:30
140
1.0
141
30.0
290
     0
  0
SCALE
  5
51
102
{ACAD_REACTORS
330
47
102
}
330
47
100
AcDbScale
 70
     0
300
1:40
140
1.0
141
40.0
290
     0
  0
SCALE
  5
52
102
{ACAD_REACTORS
330
47
102
}
330
47
100
AcDbScale
 70
     0
300
1:50
140
1.0
141
50.0
290
     0
  0
SCALE
  5
53
102
{ACAD_REACTORS
330
47
102
}
330
47
100
AcDbScale
 70
     0
300
1:100
140
1.0
141
100.0
290
     0
  0
SCALE
  5
54
102
{ACAD_REACTORS
330
47
102
}
330
47
100
AcDbScale
 70
     0
300
2:1
140
2.0
141
1.0
290
     0
  0
SCALE
  5
55
102
{ACAD_REACTORS
330
47
102
}
330
47
100
AcDbScale
 70
     0
300
4:1
140
4.0
141
1.0
290
     0
  0
SCALE
  5
56
102
{ACAD_REACTORS
330
47
102
}
330
47
100
AcDbScale
 70
     0
300
8:1
140
8.0
141
1.0
290
     0
  0
SCALE
  5
57
102
{ACAD_REACTORS
330
47
102
}
330
47
100
AcDbScale
 70
     0
300
10:1
140
10.0
141
1.0
290
     0
  0
SCALE
  5
58
102
{ACAD_REACTORS
330
47
102
}
330
47
100
AcDbScale
 70
     0
300
100:1
140
100.0
141
1.0
290
     0
  0
ENDSEC
  0
EOF
