  0
SECTION
  2
HEADER
  9
$ACADVER
  1
AC1015
  9
$ACADMAINTVER
 70
     6
  9
$DWGCODEPAGE
  3
ANSI_936
  9
$INSBASE
 10
0.0
 20
0.0
 30
0.0
  9
$EXTMIN
 10
0.0
 20
0.0
 30
0.0
  9
$EXTMAX
 10
297.0
 20
210.0
 30
0.0
  9
$LIMMIN
 10
0.0
 20
0.0
  9
$LIMMAX
 10
297.0
 20
210.0
  9
$ORTHOMODE
 70
     0
  9
$REGENMODE
 70
     1
  9
$FILLMODE
 70
     1
  9
$QTEXTMODE
 70
     0
  9
$MIRRTEXT
 70
     1
  9
$LTSCALE
 40
1.0
  9
$ATTMODE
 70
     1
  9
$TEXTSIZE
 40
3.5
  9
$TRACEWID
 40
1.0
  9
$TEXTSTYLE
  7
Standard
  9
$CLAYER
  8
0
  9
$CELTYPE
  6
ByLayer
  9
$CECOLOR
 62
   256
  9
$CELTSCALE
 40
1.0
  9
$DISPSILH
 70
     0
  9
$DIMSCALE
 40
1.0
  9
$DIMASZ
 40
4.08
  9
$DIMEXO
 40
0.0
  9
$DIMDLI
 40
3.75
  9
$DIMRND
 40
0.0
  9
$DIMDLE
 40
0.0
  9
$DIMEXE
 40
2.0
  9
$DIMTP
 40
0.0
  9
$DIMTM
 40
0.0
  9
$DIMTXT
 40
3.5
  9
$DIMCEN
 40
2.5
  9
$DIMTSZ
 40
0.0
  9
$DIMTOL
 70
     0
  9
$DIMLIM
 70
     0
  9
$DIMTIH
 70
     1
  9
$DIMTOH
 70
     1
  9
$DIMSE1
 70
     0
  9
$DIMSE2
 70
     0
  9
$DIMTAD
 70
     1
  9
$DIMZIN
 70
     0
  9
$DIMBLK
  1

  9
$DIMASO
 70
     1
  9
$DIMSHO
 70
     1
  9
$DIMPOST
  1

  9
$DIMAPOST
  1

  9
$DIMALT
 70
     0
  9
$DIMALTD
 70
     3
  9
$DIMALTF
 40
0.0393700787
  9
$DIMLFAC
 40
2.0
  9
$DIMTOFL
 70
     1
  9
$DIMTVP
 40
0.0
  9
$DIMTIX
 70
     0
  9
$DIMSOXD
 70
     0
  9
$DIMSAH
 70
     0
  9
$DIMBLK1
  1

  9
$DIMBLK2
  1

  9
$DIMSTYLE
  2
ISO-25
  9
$DIMCLRD
 70
     0
  9
$DIMCLRE
 70
     0
  9
$DIMCLRT
 70
     0
  9
$DIMTFAC
 40
1.0
  9
$DIMGAP
 40
1.524
  9
$DIMJUST
 70
     0
  9
$DIMSD1
 70
     0
  9
$DIMSD2
 70
     0
  9
$DIMTOLJ
 70
     0
  9
$DIMTZIN
 70
     0
  9
$DIMALTZ
 70
     0
  9
$DIMALTTZ
 70
     0
  9
$DIMUPT
 70
     0
  9
$DIMDEC
 70
     2
  9
$DIMTDEC
 70
     2
  9
$DIMALTU
 70
     2
  9
$DIMALTTD
 70
     3
  9
$DIMTXSTY
  7
Standard
  9
$DIMAUNIT
 70
     0
  9
$DIMADEC
 70
     2
  9
$DIMALTRND
 40
0.0
  9
$DIMAZIN
 70
     0
  9
$DIMDSEP
 70
    44
  9
$DIMATFIT
 70
     3
  9
$DIMFRAC
 70
     0
  9
$DIMLDRBLK
  1

  9
$DIMLUNIT
 70
     2
  9
$DIMLWD
 70
    -2
  9
$DIMLWE
 70
    -2
  9
$DIMTMOVE
 70
     0
  9
$LUNITS
 70
     2
  9
$LUPREC
 70
     2
  9
$SKETCHINC
 40
1.0
  9
$FILLETRAD
 40
0.0
  9
$AUNITS
 70
     0
  9
$AUPREC
 70
     2
  9
$MENU
  1
.
  9
$ELEVATION
 40
0.0
  9
$PELEVATION
 40
0.0
  9
$THICKNESS
 40
0.0
  9
$LIMCHECK
 70
     0
  9
$CHAMFERA
 40
0.0
  9
$CHAMFERB
 40
0.0
  9
$CHAMFERC
 40
0.0
  9
$CHAMFERD
 40
0.0
  9
$SKPOLY
 70
     0
  9
$TDCREATE
 40
2461215.576856088
  9
$TDUCREATE
 40
2461215.243522755
  9
$TDUPDATE
 40
2461215.576856436
  9
$TDUUPDATE
 40
2461215.243523102
  9
$TDINDWG
 40
0.0000000116
  9
$TDUSRTIMER
 40
0.0000000116
  9
$USRTIMER
 70
     1
  9
$ANGBASE
 50
0.0
  9
$ANGDIR
 70
     0
  9
$PDMODE
 70
     0
  9
$PDSIZE
 40
-1.0
  9
$PLINEWID
 40
0.0
  9
$SPLFRAME
 70
     0
  9
$SPLINETYPE
 70
     6
  9
$SPLINESEGS
 70
     8
  9
$HANDSEED
  5
118
  9
$SURFTAB1
 70
     6
  9
$SURFTAB2
 70
     6
  9
$SURFTYPE
 70
     6
  9
$SURFU
 70
     6
  9
$SURFV
 70
     6
  9
$UCSBASE
  2

  9
$UCSNAME
  2

  9
$UCSORG
 10
0.0
 20
0.0
 30
0.0
  9
$UCSXDIR
 10
1.0
 20
0.0
 30
0.0
  9
$UCSYDIR
 10
0.0
 20
1.0
 30
0.0
  9
$UCSORTHOREF
  2

  9
$UCSORTHOVIEW
 70
     0
  9
$UCSORGTOP
 10
0.0
 20
0.0
 30
0.0
  9
$UCSORGBOTTOM
 10
0.0
 20
0.0
 30
0.0
  9
$UCSORGLEFT
 10
0.0
 20
0.0
 30
0.0
  9
$UCSORGRIGHT
 10
0.0
 20
0.0
 30
0.0
  9
$UCSORGFRONT
 10
0.0
 20
0.0
 30
0.0
  9
$UCSORGBACK
 10
0.0
 20
0.0
 30
0.0
  9
$PUCSBASE
  2

  9
$PUCSNAME
  2

  9
$PUCSORG
 10
0.0
 20
0.0
 30
0.0
  9
$PUCSXDIR
 10
1.0
 20
0.0
 30
0.0
  9
$PUCSYDIR
 10
0.0
 20
1.0
 30
0.0
  9
$PUCSORTHOREF
  2

  9
$PUCSORTHOVIEW
 70
     0
  9
$PUCSORGTOP
 10
0.0
 20
0.0
 30
0.0
  9
$PUCSORGBOTTOM
 10
0.0
 20
0.0
 30
0.0
  9
$PUCSORGLEFT
 10
0.0
 20
0.0
 30
0.0
  9
$PUCSORGRIGHT
 10
0.0
 20
0.0
 30
0.0
  9
$PUCSORGFRONT
 10
0.0
 20
0.0
 30
0.0
  9
$PUCSORGBACK
 10
0.0
 20
0.0
 30
0.0
  9
$USERI1
 70
     0
  9
$USERI2
 70
     0
  9
$USERI3
 70
     0
  9
$USERI4
 70
     0
  9
$USERI5
 70
     0
  9
$USERR1
 40
0.0
  9
$USERR2
 40
0.0
  9
$USERR3
 40
0.0
  9
$USERR4
 40
0.0
  9
$USERR5
 40
0.0
  9
$WORLDVIEW
 70
     1
  9
$SHADEDGE
 70
     3
  9
$SHADEDIF
 70
    70
  9
$TILEMODE
 70
     1
  9
$MAXACTVP
 70
    64
  9
$PINSBASE
 10
0.0
 20
0.0
 30
0.0
  9
$PLIMCHECK
 70
     0
  9
$PEXTMIN
 10
1.0000000000E+20
 20
1.0000000000E+20
 30
1.0000000000E+20
  9
$PEXTMAX
 10
-1.0000000000E+20
 20
-1.0000000000E+20
 30
-1.0000000000E+20
  9
$PLIMMIN
 10
0.0
 20
0.0
  9
$PLIMMAX
 10
420.0
 20
297.0
  9
$UNITMODE
 70
     0
  9
$VISRETAIN
 70
     1
  9
$PLINEGEN
 70
     0
  9
$PSLTSCALE
 70
     1
  9
$TREEDEPTH
 70
  3020
  9
$CMLSTYLE
  2
Standard
  9
$CMLJUST
 70
     0
  9
$CMLSCALE
 40
20.0
  9
$PROXYGRAPHICS
 70
     1
  9
$MEASUREMENT
 70
     1
  9
$CELWEIGHT
370
    -1
  9
$ENDCAPS
280
     0
  9
$JOINSTYLE
280
     0
  9
$LWDISPLAY
290
     1
  9
$INSUNITS
 70
     4
  9
$HYPERLINKBASE
  1

  9
$STYLESHEET
  1

  9
$XEDIT
290
     1
  9
$CEPSNTYPE
380
     0
  9
$PSTYLEMODE
290
     1
  9
$FINGERPRINTGUID
  2
{07ac770f-a32c-48a4-9f8c-06628a8e73e9}
  9
$VERSIONGUID
  2
{FAEB1C32-E019-11D5-929B-00C0DF256EC4}
  9
$EXTNAMES
290
     1
  9
$PSVPSCALE
 40
0.0
  9
$OLESTARTUP
290
     0
  0
ENDSEC
  0
SECTION
  2
CLASSES
  0
CLASS
  1
ACDBDICTIONARYWDFLT
  2
AcDbDictionaryWithDefault
  3
ObjectDBX Classes
 90
        0
280
     0
281
     0
  0
CLASS
  1
VISUALSTYLE
  2
AcDbVisualStyle
  3
ObjectDBX Classes
 90
     4095
280
     0
281
     0
  0
CLASS
  1
MATERIAL
  2
AcDbMaterial
  3
ObjectDBX Classes
 90
     1153
280
     0
281
     0
  0
CLASS
  1
SCALE
  2
AcDbScale
  3
ObjectDBX Classes
 90
     1153
280
     0
281
     0
  0
CLASS
  1
TABLESTYLE
  2
AcDbTableStyle
  3
ObjectDBX Classes
 90
     4095
280
     0
281
     0
  0
CLASS
  1
MLEADERSTYLE
  2
AcDbMLeaderStyle
  3
ACDB_MLEADERSTYLE_CLASS
 90
     4095
280
     0
281
     0
  0
CLASS
  1
SUN
  2
AcDbSun
  3
SCENEOE
 90
     1153
280
     0
281
     0
  0
CLASS
  1
ACDBPLACEHOLDER
  2
AcDbPlaceHolder
  3
ObjectDBX Classes
 90
        0
280
     0
281
     0
  0
CLASS
  1
LAYOUT
  2
AcDbLayout
  3
ObjectDBX Classes
 90
        0
280
     0
281
     0
  0
ENDSEC
  0
SECTION
  2
TABLES
  0
TABLE
  2
VPORT
  5
8
330
0
100
AcDbSymbolTable
 70
     1
  0
VPORT
  5
29
330
8
100
AcDbSymbolTableRecord
100
AcDbViewportTableRecord
  2
*Active
 70
     0
 10
0.0
 20
0.0
 11
1.0
 21
1.0
 12
148.5
 22
105.0
 13
0.0
 23
0.0
 14
10.0
 24
10.0
 15
10.0
 25
10.0
 16
0.0
 26
0.0
 36
1.0
 17
0.0
 27
0.0
 37
0.0
 40
210.0
 41
1.4142857143
 42
50.0
 43
0.0
 44
0.0
 50
0.0
 51
0.0
 71
     0
 72
  2000
 73
     1
 74
     3
 75
     0
 76
     0
 77
     0
 78
     0
281
     0
 65
     1
110
0.0
120
0.0
130
0.0
111
1.0
121
0.0
131
0.0
112
0.0
122
1.0
132
0.0
 79
     0
146
0.0
  0
ENDTAB
  0
TABLE
  2
LTYPE
  5
5
330
0
100
AcDbSymbolTable
 70
     6
  0
LTYPE
  5
14
330
5
100
AcDbSymbolTableRecord
100
AcDbLinetypeTableRecord
  2
ByBlock
 70
     0
  3

 72
    65
 73
     0
 40
0.0
  0
LTYPE
  5
15
330
5
100
AcDbSymbolTableRecord
100
AcDbLinetypeTableRecord
  2
ByLayer
 70
     0
  3

 72
    65
 73
     0
 40
0.0
  0
LTYPE
  5
16
330
5
100
AcDbSymbolTableRecord
100
AcDbLinetypeTableRecord
  2
Continuous
 70
     0
  3
Solid line
 72
    65
 73
     0
 40
0.0
  0
LTYPE
  5
5E
330
5
100
AcDbSymbolTableRecord
100
AcDbLinetypeTableRecord
  2
HIDDEN
 70
     0
  3
Hidden __ __ __ __ __ __ __ __ __ __ __ __ __ __
 72
    65
 73
     2
 40
1.905
 49
1.27
 74
     0
 49
-0.635
 74
     0
  0
LTYPE
  5
5F
330
5
100
AcDbSymbolTableRecord
100
AcDbLinetypeTableRecord
  2
PHANTOM
 70
     0
  3
Phantom ______  __  __  ______  __  __  ______
 72
    65
 73
     6
 40
12.7
 49
6.35
 74
     0
 49
-1.27
 74
     0
 49
1.27
 74
     0
 49
-1.27
 74
     0
 49
1.27
 74
     0
 49
-1.27
 74
     0
  0
LTYPE
  5
60
330
5
100
AcDbSymbolTableRecord
100
AcDbLinetypeTableRecord
  2
CENTER
 70
     0
  3
Center ____ _ ____ _ ____ _ ____ _ ____ _ ____
 72
    65
 73
     4
 40
10.16
 49
6.35
 74
     0
 49
-1.27
 74
     0
 49
1.27
 74
     0
 49
-1.27
 74
     0
  0
LTYPE
  5
61
330
5
100
AcDbSymbolTableRecord
100
AcDbLinetypeTableRecord
  2
CENTERX2
 70
     0
  3
Center (2x) ________  __  ________  __  _____
 72
    65
 73
     4
 40
20.32
 49
12.7
 74
     0
 49
-2.54
 74
     0
 49
2.54
 74
     0
 49
-2.54
 74
     0
  0
LTYPE
  5
62
330
5
100
AcDbSymbolTableRecord
100
AcDbLinetypeTableRecord
  2
DOT2
 70
     0
  3
Dot (.5x) ........................................
 72
    65
 73
     2
 40
0.635
 49
0.0
 74
     0
 49
-0.635
 74
     0
  0
ENDTAB
  0
TABLE
  2
LAYER
  5
2
330
0
100
AcDbSymbolTable
 70
    14
  0
LAYER
  5
10
330
2
100
AcDbSymbolTableRecord
100
AcDbLayerTableRecord
  2
0
 70
     0
 62
     7
  6
Continuous
370
    -3
390
F
  0
LAYER
  5
63
330
2
100
AcDbSymbolTableRecord
100
AcDbLayerTableRecord
  2
SLD-0
 70
     0
 62
     7
  6
Continuous
370
    -3
390
F
  0
LAYER
  5
64
330
2
100
AcDbSymbolTableRecord
100
AcDbLayerTableRecord
  2
5
 70
     0
 62
     7
  6
Continuous
370
    -3
390
F
  0
LAYER
  5
65
330
2
100
AcDbSymbolTableRecord
100
AcDbLayerTableRecord
  2
9
 70
     0
 62
     7
  6
Continuous
370
    -3
390
F
  0
LAYER
  5
66
330
2
100
AcDbSymbolTableRecord
100
AcDbLayerTableRecord
  2
10
 70
     0
 62
     7
  6
Continuous
370
    -3
390
F
  0
LAYER
  5
67
330
2
100
AcDbSymbolTableRecord
100
AcDbLayerTableRecord
  2
轮廓实线层
 70
     0
 62
     7
  6
Continuous
370
    50
390
F
  0
LAYER
  5
68
330
2
100
AcDbSymbolTableRecord
100
AcDbLayerTableRecord
  2
细线层
 70
     0
 62
     4
  6
Continuous
370
    25
390
F
  0
LAYER
  5
69
330
2
100
AcDbSymbolTableRecord
100
AcDbLayerTableRecord
  2
中心线层
 70
     0
 62
     1
  6
CENTERX2
370
    25
390
F
  0
LAYER
  5
6A
330
2
100
AcDbSymbolTableRecord
100
AcDbLayerTableRecord
  2
虚线层
 70
     0
 62
     6
  6
HIDDEN
370
    25
390
F
  0
LAYER
  5
6B
330
2
100
AcDbSymbolTableRecord
100
AcDbLayerTableRecord
  2
剖面线层
 70
     0
 62
     2
  6
Continuous
370
    25
390
F
  0
LAYER
  5
6C
330
2
100
AcDbSymbolTableRecord
100
AcDbLayerTableRecord
  2
文字层
 70
     0
 62
     3
  6
Continuous
370
    25
390
F
  0
LAYER
  5
6D
330
2
100
AcDbSymbolTableRecord
100
AcDbLayerTableRecord
  2
标注层
 70
     0
 62
     4
  6
Continuous
370
    25
390
F
  0
LAYER
  5
6E
330
2
100
AcDbSymbolTableRecord
100
AcDbLayerTableRecord
  2
符号标注层
 70
     0
 62
    31
  6
Continuous
370
    25
390
F
  0
LAYER
  5
6F
330
2
100
AcDbSymbolTableRecord
100
AcDbLayerTableRecord
  2
双点划线层
 70
     0
 62
     6
  6
PHANTOM
370
    25
390
F
  0
ENDTAB
  0
TABLE
  2
STYLE
  5
3
330
0
100
AcDbSymbolTable
 70
     1
  0
STYLE
  5
11
330
3
100
AcDbSymbolTableRecord
100
AcDbTextStyleTableRecord
  2
Standard
 70
     0
 40
0.0
 41
1.0
 50
0.0
 71
     0
 42
3.5
  3
txt
  4

  0
ENDTAB
  0
TABLE
  2
VIEW
  5
6
330
0
100
AcDbSymbolTable
 70
     0
  0
ENDTAB
  0
TABLE
  2
UCS
  5
7
330
0
100
AcDbSymbolTable
 70
     0
  0
ENDTAB
  0
TABLE
  2
APPID
  5
9
330
0
100
AcDbSymbolTable
 70
     1
  0
APPID
  5
12
330
9
100
AcDbSymbolTableRecord
100
AcDbRegAppTableRecord
  2
ACAD
 70
     0
  0
ENDTAB
  0
TABLE
  2
DIMSTYLE
  5
A
330
0
100
AcDbSymbolTable
 70
     1
100
AcDbDimStyleTable
  0
DIMSTYLE
105
27
330
A
100
AcDbSymbolTableRecord
100
AcDbDimStyleTableRecord
  2
ISO-25
 70
     0
 41
2.5
 42
0.625
 43
3.75
 44
1.25
 73
     0
 74
     0
 77
     1
 78
     8
140
2.5
141
2.5
143
0.0393700787
147
0.625
171
     3
172
     1
178
     0
271
     2
272
     2
274
     3
278
    44
283
     0
284
     8
340
11
  0
ENDTAB
  0
TABLE
  2
BLOCK_RECORD
  5
1
330
0
100
AcDbSymbolTable
 70
     1
  0
BLOCK_RECORD
  5
1F
330
1
100
AcDbSymbolTableRecord
100
AcDbBlockTableRecord
  2
*Model_Space
340
22
  0
BLOCK_RECORD
  5
1B
330
1
100
AcDbSymbolTableRecord
100
AcDbBlockTableRecord
  2
*Paper_Space
340
1E
  0
BLOCK_RECORD
  5
23
330
1
100
AcDbSymbolTableRecord
100
AcDbBlockTableRecord
  2
*Paper_Space0
340
26
  0
ENDTAB
  0
ENDSEC
  0
SECTION
  2
BLOCKS
  0
BLOCK
  5
20
330
1F
100
AcDbEntity
  8
0
100
AcDbBlockBegin
  2
*Model_Space
 70
     0
 10
0.0
 20
0.0
 30
0.0
  3
*Model_Space
  1

  0
ENDBLK
  5
21
330
1F
100
AcDbEntity
  8
0
100
AcDbBlockEnd
  0
BLOCK
  5
1C
330
1B
100
AcDbEntity
 67
     1
  8
0
100
AcDbBlockBegin
  2
*Paper_Space
 70
     0
 10
0.0
 20
0.0
 30
0.0
  3
*Paper_Space
  1

  0
ENDBLK
  5
1D
330
1B
100
AcDbEntity
 67
     1
  8
0
100
AcDbBlockEnd
  0
BLOCK
  5
24
330
23
100
AcDbEntity
  8
0
100
AcDbBlockBegin
  2
*Paper_Space0
 70
     0
 10
0.0
 20
0.0
 30
0.0
  3
*Paper_Space0
  1

  0
ENDBLK
  5
25
330
23
100
AcDbEntity
  8
0
100
AcDbBlockEnd
  0
ENDSEC
  0
SECTION
  2
ENTITIES
  0
ARC
  5
70
330
1F
100
AcDbEntity
  8
0
  6
Continuous
 62
     7
370
    25
100
AcDbCircle
 10
96.5802469135
 20
58.2345679012
 30
0.0
 40
4.938271604938272
100
AcDbArc
 50
270.0
 51
0.0
  0
LINE
  5
71
330
1F
100
AcDbEntity
  8
0
  6
Continuous
 62
     7
370
    25
100
AcDbLine
 10
69.4197530863
 20
53.2962962964
 30
0.0
 11
96.5802469135
 21
53.2962962963
 31
0.0
  0
ARC
  5
72
330
1F
100
AcDbEntity
  8
0
  6
Continuous
 62
     7
370
    25
100
AcDbCircle
 10
69.4197530863
 20
58.2345679012
 30
0.0
 40
4.938271604888705
100
AcDbArc
 50
180.0
 51
270.0
  0
LINE
  5
73
330
1F
100
AcDbEntity
  8
0
  6
Continuous
 62
     7
370
    25
100
AcDbLine
 10
64.4814814815
 20
63.1728395062
 30
0.0
 11
64.4814814815
 21
58.2345679012
 31
0.0
  0
LINE
  5
74
330
1F
100
AcDbEntity
  8
0
  6
Continuous
 62
     7
370
    25
100
AcDbLine
 10
64.4814814815
 20
63.1728395062
 30
0.0
 11
101.5185185184
 21
63.1728395062
 31
0.0
  0
LINE
  5
75
330
1F
100
AcDbEntity
  8
0
  6
Continuous
 62
     7
370
    25
100
AcDbLine
 10
101.5185185184
 20
58.2345679012
 30
0.0
 11
101.5185185184
 21
63.1728395062
 31
0.0
  0
LINE
  5
76
330
1F
100
AcDbEntity
  8
0
  6
Continuous
 62
     7
370
    25
100
AcDbLine
 10
62.012345679
 20
61.0762675252
 30
0.0
 11
62.012345679
 21
63.1728395062
 31
0.0
  0
LINE
  5
77
330
1F
100
AcDbEntity
  8
0
  6
Continuous
 62
     7
370
    25
100
AcDbLine
 10
62.012345679
 20
63.1728395062
 30
0.0
 11
64.4814814815
 21
63.1728395062
 31
0.0
  0
LINE
  5
78
330
1F
100
AcDbEntity
  8
0
  6
Continuous
 62
     7
370
    25
100
AcDbLine
 10
63.2469135802
 20
58.2345679012
 30
0.0
 11
63.2469135802
 21
61.938271605
 31
0.0
  0
LINE
  5
79
330
1F
100
AcDbEntity
  8
0
  6
Continuous
 62
     7
370
    25
100
AcDbLine
 10
63.2469135802
 20
61.938271605
 30
0.0
 11
62.2757880835
 21
60.9671461083
 31
0.0
  0
ARC
  5
7A
330
1F
100
AcDbEntity
  8
0
  6
Continuous
 62
     7
370
    25
100
AcDbCircle
 10
62.1666666667
 20
61.0762675252
 30
0.0
 40
0.1543209876543159
100
AcDbArc
 50
180.0
 51
315.0000000008
  0
LINE
  5
7B
330
1F
100
AcDbEntity
  8
0
  6
Continuous
 62
     7
370
    25
100
AcDbLine
 10
96.5802469135
 20
52.0617283951
 30
0.0
 11
69.4197530863
 21
52.0617283951
 31
0.0
  0
ARC
  5
7C
330
1F
100
AcDbEntity
  8
0
  6
Continuous
 62
     7
370
    25
100
AcDbCircle
 10
96.5802469135
 20
58.2345679012
 30
0.0
 40
6.172839506172849
100
AcDbArc
 50
270.0
 51
0.0
  0
LINE
  5
7D
330
1F
100
AcDbEntity
  8
0
  6
Continuous
 62
     7
370
    25
100
AcDbLine
 10
103.7242119164
 20
60.9671461081
 30
0.0
 11
102.7530864197
 21
61.9382716049
 31
0.0
  0
LINE
  5
7E
330
1F
100
AcDbEntity
  8
0
  6
Continuous
 62
     7
370
    25
100
AcDbLine
 10
102.7530864197
 20
61.9382716049
 30
0.0
 11
102.7530864197
 21
58.2345679012
 31
0.0
  0
LINE
  5
7F
330
1F
100
AcDbEntity
  8
0
  6
Continuous
 62
     7
370
    25
100
AcDbLine
 10
103.9876543208
 20
63.1728395062
 30
0.0
 11
103.9876543209
 21
61.076267525
 31
0.0
  0
ARC
  5
80
330
1F
100
AcDbEntity
  8
0
  6
Continuous
 62
     7
370
    25
100
AcDbCircle
 10
103.8333333333
 20
61.076267525
 30
0.0
 40
0.1543209876543443
100
AcDbArc
 50
224.9999999982
 51
0.0000000011
  0
LINE
  5
81
330
1F
100
AcDbEntity
  8
0
  6
Continuous
 62
     7
370
    25
100
AcDbLine
 10
101.5185185184
 20
63.1728395062
 30
0.0
 11
103.9876543208
 21
63.1728395062
 31
0.0
  0
ARC
  5
82
330
1F
100
AcDbEntity
  8
0
  6
Continuous
 62
     7
370
    25
100
AcDbCircle
 10
69.4197530863
 20
58.2345679012
 30
0.0
 40
6.172839506140754
100
AcDbArc
 50
180.0
 51
270.0
  0
SPLINE
  5
83
330
1F
100
AcDbEntity
  8
0
  6
Continuous
 62
     7
370
    25
100
AcDbSpline
210
0.0
220
0.0
230
1.0
 70
     8
 71
     3
 72
    10
 73
     6
 74
     0
 42
0.00000001
 43
0.00000001
 40
-0.0000000000000079
 40
-0.0000000000000079
 40
-0.0000000000000079
 40
-0.0000000000000079
 40
0.673198425769237
 40
1.12199737628207
 40
1.5707963267949
 40
1.5707963267949
 40
1.5707963267949
 40
1.5707963267949
 10
62.27963747032593
 20
58.23456790124975
 30
0.0
 10
62.27963747032593
 20
56.65232308297939
 30
0.0
 10
63.20194804141853
 20
54.01938535585599
 30
0.0
 10
66.20296122195126
 20
51.6269656282029
 30
0.0
 10
68.34623707819199
 20
51.13580246924352
 30
0.0
 10
69.4197530863494
 20
51.13580246924352
 30
0.0
  0
SPLINE
  5
84
330
1F
100
AcDbEntity
  8
0
  6
Continuous
 62
     7
370
    25
100
AcDbSpline
210
0.0
220
0.0
230
1.0
 70
     8
 71
     3
 72
    28
 73
    24
 74
     0
 42
0.00000001
 43
0.00000001
 40
0.0
 40
0.0
 40
0.0
 40
0.0
 40
0.1249999999999997
 40
0.1249999999999997
 40
0.2499999999999993
 40
0.2499999999999993
 40
0.3124999999999992
 40
0.3124999999999992
 40
0.374999999999999
 40
0.374999999999999
 40
0.4999999999999992
 40
0.4999999999999992
 40
0.5624999999999992
 40
0.5624999999999992
 40
0.6249999999999993
 40
0.6249999999999993
 40
0.7499999999999994
 40
0.7499999999999994
 40
0.8124999999999996
 40
0.8124999999999996
 40
0.8749999999999998
 40
0.8749999999999998
 40
1.0
 40
1.0
 40
1.0
 40
1.0
 10
69.26543419216236
 20
50.82876813506382
 30
0.0
 10
68.81474705840235
 20
50.83815936117065
 30
0.0
 10
68.3639382532951
 20
50.88908539099717
 30
0.0
 10
67.48535276503037
 20
51.07014512847839
 30
0.0
 10
67.05605485565215
 20
51.19985298655958
 30
0.0
 10
66.42726839140691
 20
51.45475451604636
 30
0.0
 10
66.22020356739304
 20
51.54984147536726
 30
0.0
 10
65.81126587238758
 20
51.76143075301787
 30
0.0
 10
65.60931349981192
 20
51.87815982982499
 30
0.0
 10
65.02457281974281
 20
52.25403025127974
 30
0.0
 10
64.65835753035935
 20
52.54065165458344
 30
0.0
 10
64.14618451861784
 20
53.02739684576736
 30
0.0
 10
63.98168106170107
 20
53.19917945346009
 30
0.0
 10
63.66587879095632
 20
53.56330524986616
 30
0.0
 10
63.5136160157911
 20
53.7571161838351
 30
0.0
 10
63.08811440090111
 20
54.35882100869905
 30
0.0
 10
62.84442220638607
 20
54.78725944673283
 30
0.0
 10
62.54209467194973
 20
55.47235754563052
 30
0.0
 10
62.45191998752674
 20
55.70784862653573
 30
0.0
 10
62.29433441737632
 20
56.19412256306751
 30
0.0
 10
62.22726774361928
 20
56.44463820957637
 30
0.0
 10
62.06716970511478
 20
57.19859543334786
 30
0.0
 10
62.01234567903456
 20
57.71118895611843
 30
0.0
 10
62.01234567903457
 20
58.23456790124975
 30
0.0
  0
LINE
  5
85
330
1F
100
AcDbEntity
  8
0
  6
Continuous
 62
     7
370
    25
100
AcDbLine
 10
103.7203625297
 20
58.2345679014
 30
0.0
 11
103.7203625296
 21
60.9709954949
 31
0.0
  0
SPLINE
  5
86
330
1F
100
AcDbEntity
  8
0
  6
Continuous
 62
     7
370
    25
100
AcDbSpline
210
0.0
220
0.0
230
1.0
 70
     8
 71
     3
 72
    10
 73
     6
 74
     0
 42
0.00000001
 43
0.00000001
 40
-1.54996515961599
 40
-1.54996515961599
 40
-1.54996515961599
 40
-1.54996515961599
 40
-0.885694376923563
 40
-0.442847188461946
 40
-0.0000000000003301
 40
-0.0000000000003301
 40
-0.0000000000003301
 40
-0.0000000000003301
 10
96.72971875390928
 20
51.13735936046901
 30
0.0
 10
98.31828499224507
 20
51.1704558367905
 30
0.0
 10
100.9356750125407
 20
52.14320122723056
 30
0.0
 10
103.2518029078377
 20
55.11515759082772
 30
0.0
 10
103.7203625297099
 20
57.19372668366084
 30
0.0
 10
103.7203625296957
 20
58.23456790138121
 30
0.0
  0
SPLINE
  5
87
330
1F
100
AcDbEntity
  8
0
  6
Continuous
 62
     7
370
    25
100
AcDbSpline
210
0.0
220
0.0
230
1.0
 70
     8
 71
     3
 72
     8
 73
     4
 74
     0
 42
0.00000001
 43
0.00000001
 40
-1.5707963268088
 40
-1.5707963268088
 40
-1.5707963268088
 40
-1.5707963268088
 40
-1.54996515961599
 40
-1.54996515961599
 40
-1.54996515961599
 40
-1.54996515961599
 10
96.58024691350988
 20
51.13580246908155
 30
0.0
 10
96.63007455108583
 20
51.13580246908179
 30
0.0
 10
96.6799021884821
 20
51.13632147313494
 30
0.0
 10
96.72971875390928
 20
51.13735936046901
 30
0.0
  0
LINE
  5
88
330
1F
100
AcDbEntity
  8
0
  6
Continuous
 62
     7
370
    25
100
AcDbLine
 10
69.574074074
 20
51.1358024692
 30
0.0
 11
96.5802469135
 21
51.1358024692
 31
0.0
  0
LINE
  5
89
330
1F
100
AcDbEntity
  8
0
  6
Continuous
 62
     7
370
    25
100
AcDbLine
 10
69.4197530863
 20
51.1358024692
 30
0.0
 11
69.574074074
 21
51.1358024692
 31
0.0
  0
LINE
  5
8A
330
1F
100
AcDbEntity
  8
0
  6
Continuous
 62
     7
370
    25
100
AcDbLine
 10
62.2796374703
 20
60.9709954951
 30
0.0
 11
62.2796374703
 21
58.2345679012
 31
0.0
  0
LINE
  5
8B
330
1F
100
AcDbEntity
  8
0
  6
Continuous
 62
     7
370
    25
100
AcDbLine
 10
62.012345679
 20
58.2345679012
 30
0.0
 11
62.012345679
 21
61.0762675252
 31
0.0
  0
SPLINE
  5
8C
330
1F
100
AcDbEntity
  8
0
  6
Continuous
 62
     7
370
    25
100
AcDbSpline
210
0.0
220
0.0
230
1.0
 70
     8
 71
     3
 72
     8
 73
     4
 74
     0
 42
0.00000001
 43
0.00000001
 40
0.0
 40
0.0
 40
0.0
 40
0.0
 40
1.0
 40
1.0
 40
1.0
 40
1.0
 10
69.4197530863494
 20
50.82716049393488
 30
0.0
 10
69.36831275713148
 20
50.82716049393488
 30
0.0
 10
69.31687172988272
 20
50.82769630161012
 30
0.0
 10
69.26543419216236
 20
50.82876813506383
 30
0.0
  0
LINE
  5
8D
330
1F
100
AcDbEntity
  8
0
  6
Continuous
 62
     7
370
    25
100
AcDbLine
 10
96.4259259259
 20
50.8271604939
 30
0.0
 11
69.4197530863
 21
50.8271604939
 31
0.0
  0
SPLINE
  5
8E
330
1F
100
AcDbEntity
  8
0
  6
Continuous
 62
     7
370
    25
100
AcDbSpline
210
0.0
220
0.0
230
1.0
 70
     8
 71
     3
 72
    28
 73
    24
 74
     0
 42
0.00000001
 43
0.00000001
 40
0.0
 40
0.0
 40
0.0
 40
0.0
 40
0.0624999999999998
 40
0.0624999999999998
 40
0.1249999999999997
 40
0.1249999999999997
 40
0.2499999999999993
 40
0.2499999999999993
 40
0.3124999999999992
 40
0.3124999999999992
 40
0.3749999999999991
 40
0.3749999999999991
 40
0.4999999999999988
 40
0.4999999999999988
 40
0.6249999999999984
 40
0.6249999999999984
 40
0.6874999999999987
 40
0.6874999999999987
 40
0.7499999999999988
 40
0.7499999999999988
 40
0.8749999999999994
 40
0.8749999999999994
 40
1.0
 40
1.0
 40
1.0
 40
1.0
 10
103.9876543209872
 20
58.23456790138855
 30
0.0
 10
103.9876543209921
 20
57.97117561556276
 30
0.0
 10
103.9736453010427
 20
57.70912502855569
 30
0.0
 10
103.9179915864765
 20
57.18769969388671
 30
0.0
 10
103.8761093916553
 20
56.9279741560489
 30
0.0
 10
103.7124516647712
 20
56.168221380191
 30
0.0
 10
103.5527583845907
 20
55.68214202071223
 30
0.0
 10
103.2403617466758
 20
54.98220994020072
 30
0.0
 10
103.1243327354856
 20
54.7549738641198
 30
0.0
 10
102.8738890994904
 20
54.32014560115747
 30
0.0
 10
102.7389375442617
 20
54.11131001980166
 30
0.0
 10
102.3062852123995
 20
53.50949274125952
 30
0.0
 10
101.977614677232
 20
53.13855642501453
 30
0.0
 10
101.2734641038792
 20
52.48351372424795
 30
0.0
 10
100.8963905511282
 20
52.19609181663806
 30
0.0
 10
100.2956366702397
 20
51.82198537452236
 30
0.0
 10
100.089777060363
 20
51.7071771712965
 30
0.0
 10
99.67394183590076
 20
51.5001278116563
 30
0.0
 10
99.46309268806971
 20
51.40731876769097
 30
0.0
 10
98.82221538765626
 20
51.1597501773638
 30
0.0
 10
98.38312721022608
 20
51.03544296218659
 30
0.0
 10
97.48616383416055
 20
50.8686265638912
 30
0.0
 10
97.03500087618707
 20
50.8271604937729
 30
0.0
 10
96.58024691350987
 20
50.8271604937729
 30
0.0
  0
LINE
  5
8F
330
1F
100
AcDbEntity
  8
0
  6
Continuous
 62
     7
370
    25
100
AcDbLine
 10
96.5802469135
 20
50.8271604938
 30
0.0
 11
96.4259259259
 21
50.8271604939
 31
0.0
  0
LINE
  5
90
330
1F
100
AcDbEntity
  8
0
  6
Continuous
 62
     7
370
    25
100
AcDbLine
 10
103.9876543209
 20
61.076267525
 30
0.0
 11
103.987654321
 21
58.2345679014
 31
0.0
  0
ARC
  5
91
330
1F
100
AcDbEntity
  8
0
  6
HIDDEN
 62
     7
370
    18
100
AcDbCircle
 10
69.4197530863
 20
58.2345679012
 30
0.0
 40
3.703703703703709
100
AcDbArc
 50
180.0
 51
270.0
  0
LINE
  5
92
330
1F
100
AcDbEntity
  8
0
  6
HIDDEN
 62
     7
370
    18
100
AcDbLine
 10
65.7160493826
 20
58.2345679012
 30
0.0
 11
65.7160493826
 21
63.1728395062
 31
0.0
  0
LINE
  5
93
330
1F
100
AcDbEntity
  8
0
  6
HIDDEN
 62
     7
370
    18
100
AcDbLine
 10
100.2839506173
 20
63.1728395062
 30
0.0
 11
100.2839506172
 21
58.2345679013
 31
0.0
  0
ARC
  5
94
330
1F
100
AcDbEntity
  8
0
  6
HIDDEN
 62
     7
370
    18
100
AcDbCircle
 10
96.5802469135
 20
58.2345679012
 30
0.0
 40
3.703703703703709
100
AcDbArc
 50
270.0
 51
0.0000000003
  0
LINE
  5
95
330
1F
100
AcDbEntity
  8
0
  6
HIDDEN
 62
     7
370
    18
100
AcDbLine
 10
96.5802469135
 20
54.5308641975
 30
0.0
 11
69.4197530863
 21
54.5308641975
 31
0.0
  0
LINE
  5
96
330
1F
100
AcDbEntity
  8
0
  6
HIDDEN
 62
     7
370
    18
100
AcDbLine
 10
63.2469135802
 20
63.1728395062
 30
0.0
 11
63.2469135802
 21
61.938271605
 31
0.0
  0
LINE
  5
97
330
1F
100
AcDbEntity
  8
0
  6
HIDDEN
 62
     7
370
    18
100
AcDbLine
 10
64.4814814814
 20
60.7037037037
 30
0.0
 11
63.2469135802
 21
60.7037037037
 31
0.0
  0
LINE
  5
98
330
1F
100
AcDbEntity
  8
0
  6
HIDDEN
 62
     7
370
    18
100
AcDbLine
 10
102.7530864197
 20
63.1728395062
 30
0.0
 11
102.7530864197
 21
61.9382716049
 31
0.0
  0
LINE
  5
99
330
1F
100
AcDbEntity
  8
0
  6
HIDDEN
 62
     7
370
    18
100
AcDbLine
 10
101.5185185185
 20
60.7037037037
 30
0.0
 11
102.7530864197
 21
60.7037037037
 31
0.0
  0
LINE
  5
9A
330
1F
100
AcDbEntity
  8
0
  6
Continuous
 62
     7
370
    25
100
AcDbLine
 10
101.5185185184
 20
108.0
 30
0.0
 11
103.9876543208
 21
110.4691358025
 31
0.0
  0
LINE
  5
9B
330
1F
100
AcDbEntity
  8
0
  6
Continuous
 62
     7
370
    25
100
AcDbLine
 10
64.4814814815
 20
108.0
 30
0.0
 11
101.5185185184
 21
108.0
 31
0.0
  0
LINE
  5
9C
330
1F
100
AcDbEntity
  8
0
  6
Continuous
 62
     7
370
    25
100
AcDbLine
 10
62.012345679
 20
110.4691358025
 30
0.0
 11
64.4814814815
 21
108.0
 31
0.0
  0
LINE
  5
9D
330
1F
100
AcDbEntity
  8
0
  6
Continuous
 62
     7
370
    25
100
AcDbLine
 10
62.012345679
 20
203.4853651241
 30
0.0
 11
62.012345679
 21
110.4691358025
 31
0.0
  0
ARC
  5
9E
330
1F
100
AcDbEntity
  8
0
  6
Continuous
 62
     7
370
    25
100
AcDbCircle
 10
66.950617284
 20
203.4853651241
 30
0.0
 40
4.938271604938562
100
AcDbArc
 50
135.0
 51
180.0
  0
LINE
  5
9F
330
1F
100
AcDbEntity
  8
0
  6
Continuous
 62
     7
370
    25
100
AcDbLine
 10
64.4814814815
 20
208.0
 30
0.0
 11
63.4587319448
 21
206.9772504633
 31
0.0
  0
LINE
  5
A0
330
1F
100
AcDbEntity
  8
0
  6
Continuous
 62
     7
370
    25
100
AcDbLine
 10
64.4814814815
 20
208.0
 30
0.0
 11
101.5185185184
 21
208.0
 31
0.0
  0
LINE
  5
A1
330
1F
100
AcDbEntity
  8
0
  6
Continuous
 62
     7
370
    25
100
AcDbLine
 10
102.5412680551
 20
206.9772504633
 30
0.0
 11
101.5185185184
 21
208.0
 31
0.0
  0
ARC
  5
A2
330
1F
100
AcDbEntity
  8
0
  6
Continuous
 62
     7
370
    25
100
AcDbCircle
 10
99.0493827159
 20
203.4853651241
 30
0.0
 40
4.938271604938265
100
AcDbArc
 50
0.0
 51
45.0
  0
LINE
  5
A3
330
1F
100
AcDbEntity
  8
0
  6
Continuous
 62
     7
370
    25
100
AcDbLine
 10
103.9876543208
 20
203.4853651241
 30
0.0
 11
103.9876543208
 21
110.4691358025
 31
0.0
  0
LINE
  5
A4
330
1F
100
AcDbEntity
  8
0
  6
Continuous
 62
     7
370
    25
100
AcDbLine
 10
100.7953253857
 20
110.9805105708
 30
0.0
 11
100.2839506173
 21
110.4691358025
 31
0.0
  0
ARC
  5
A5
330
1F
100
AcDbEntity
  8
0
  6
Continuous
 62
     7
370
    25
100
AcDbCircle
 10
99.0493827161
 20
112.7264532404
 30
0.0
 40
2.46913580246914
100
AcDbArc
 50
315.0
 51
0.0
  0
LINE
  5
A6
330
1F
100
AcDbEntity
  8
0
  6
Continuous
 62
     7
370
    25
100
AcDbLine
 10
101.5185185185
 20
185.7777777778
 30
0.0
 11
101.5185185185
 21
112.7264532404
 31
0.0
  0
LINE
  5
A7
330
1F
100
AcDbEntity
  8
0
  6
Continuous
 62
     7
370
    25
100
AcDbLine
 10
102.7530864197
 20
185.7777777778
 30
0.0
 11
101.5185185185
 21
185.7777777778
 31
0.0
  0
LINE
  5
A8
330
1F
100
AcDbEntity
  8
0
  6
Continuous
 62
     7
370
    25
100
AcDbLine
 10
102.7530864197
 20
201.2098765432
 30
0.0
 11
102.7530864197
 21
185.7777777778
 31
0.0
  0
LINE
  5
A9
330
1F
100
AcDbEntity
  8
0
  6
Continuous
 62
     7
370
    25
100
AcDbLine
 10
101.5185185185
 20
201.2098765432
 30
0.0
 11
102.7530864197
 21
201.2098765432
 31
0.0
  0
LINE
  5
AA
330
1F
100
AcDbEntity
  8
0
  6
Continuous
 62
     7
370
    25
100
AcDbLine
 10
101.5185185185
 20
203.2735467596
 30
0.0
 11
101.5185185185
 21
201.2098765432
 31
0.0
  0
ARC
  5
AB
330
1F
100
AcDbEntity
  8
0
  6
Continuous
 62
     7
370
    25
100
AcDbCircle
 10
99.0493827161
 20
203.2735467596
 30
0.0
 40
2.46913580246914
100
AcDbArc
 50
0.0
 51
45.0
  0
LINE
  5
AC
330
1F
100
AcDbEntity
  8
0
  6
Continuous
 62
     7
370
    25
100
AcDbLine
 10
100.2839506173
 20
205.5308641975
 30
0.0
 11
100.7953253857
 21
205.0194894292
 31
0.0
  0
LINE
  5
AD
330
1F
100
AcDbEntity
  8
0
  6
Continuous
 62
     7
370
    25
100
AcDbLine
 10
65.7160493826
 20
205.5308641975
 30
0.0
 11
100.2839506173
 21
205.5308641975
 31
0.0
  0
LINE
  5
AE
330
1F
100
AcDbEntity
  8
0
  6
Continuous
 62
     7
370
    25
100
AcDbLine
 10
65.2046746143
 20
205.0194894292
 30
0.0
 11
65.7160493826
 21
205.5308641975
 31
0.0
  0
ARC
  5
AF
330
1F
100
AcDbEntity
  8
0
  6
Continuous
 62
     7
370
    25
100
AcDbCircle
 10
66.9506172839
 20
203.2735467596
 30
0.0
 40
2.46913580246914
100
AcDbArc
 50
135.0
 51
180.0
  0
LINE
  5
B0
330
1F
100
AcDbEntity
  8
0
  6
Continuous
 62
     7
370
    25
100
AcDbLine
 10
64.4814814814
 20
203.2735467596
 30
0.0
 11
64.4814814814
 21
201.2098765432
 31
0.0
  0
LINE
  5
B1
330
1F
100
AcDbEntity
  8
0
  6
Continuous
 62
     7
370
    25
100
AcDbLine
 10
64.4814814814
 20
201.2098765432
 30
0.0
 11
63.2469135802
 21
201.2098765432
 31
0.0
  0
LINE
  5
B2
330
1F
100
AcDbEntity
  8
0
  6
Continuous
 62
     7
370
    25
100
AcDbLine
 10
63.2469135802
 20
201.2098765432
 30
0.0
 11
63.2469135802
 21
179.6049382716
 31
0.0
  0
LINE
  5
B3
330
1F
100
AcDbEntity
  8
0
  6
Continuous
 62
     7
370
    25
100
AcDbLine
 10
63.2469135802
 20
179.6049382716
 30
0.0
 11
64.4814814814
 21
179.6049382716
 31
0.0
  0
LINE
  5
B4
330
1F
100
AcDbEntity
  8
0
  6
Continuous
 62
     7
370
    25
100
AcDbLine
 10
64.4814814814
 20
179.6049382716
 30
0.0
 11
64.4814814814
 21
112.7264532404
 31
0.0
  0
ARC
  5
B5
330
1F
100
AcDbEntity
  8
0
  6
Continuous
 62
     7
370
    25
100
AcDbCircle
 10
66.9506172839
 20
112.7264532404
 30
0.0
 40
2.46913580246914
100
AcDbArc
 50
180.0
 51
225.0
  0
LINE
  5
B6
330
1F
100
AcDbEntity
  8
0
  6
Continuous
 62
     7
370
    25
100
AcDbLine
 10
65.7160493826
 20
110.4691358025
 30
0.0
 11
65.2046746143
 21
110.9805105708
 31
0.0
  0
LINE
  5
B7
330
1F
100
AcDbEntity
  8
0
  6
Continuous
 62
     7
370
    25
100
AcDbLine
 10
100.2839506173
 20
110.4691358025
 30
0.0
 11
65.7160493826
 21
110.4691358025
 31
0.0
  0
LINE
  5
B8
330
1F
100
AcDbEntity
  8
0
  6
Continuous
 62
     7
370
    25
100
AcDbLine
 10
63.2469135802
 20
198.7407407407
 30
0.0
 11
64.4814814814
 21
198.7407407407
 31
0.0
  0
LINE
  5
B9
330
1F
100
AcDbEntity
  8
0
  6
Continuous
 62
     7
370
    25
100
AcDbLine
 10
64.4814814814
 20
198.7407407407
 30
0.0
 11
64.4814814814
 21
201.2098765432
 31
0.0
  0
LINE
  5
BA
330
1F
100
AcDbEntity
  8
0
  6
Continuous
 62
     7
370
    25
100
AcDbLine
 10
101.5185185185
 20
198.7407407407
 30
0.0
 11
102.7530864197
 21
198.7407407407
 31
0.0
  0
LINE
  5
BB
330
1F
100
AcDbEntity
  8
0
  6
Continuous
 62
     7
370
    25
100
AcDbLine
 10
101.5185185185
 20
198.7407407407
 30
0.0
 11
101.5185185185
 21
201.2098765432
 31
0.0
  0
LINE
  5
BC
330
1F
100
AcDbEntity
  8
0
  6
Continuous
 62
     7
370
    25
100
AcDbLine
 10
101.5185185185
 20
188.2469135802
 30
0.0
 11
102.7530864197
 21
188.2469135802
 31
0.0
  0
LINE
  5
BD
330
1F
100
AcDbEntity
  8
0
  6
Continuous
 62
     7
370
    25
100
AcDbLine
 10
101.5185185185
 20
185.7777777778
 30
0.0
 11
101.5185185185
 21
188.2469135802
 31
0.0
  0
LINE
  5
BE
330
1F
100
AcDbEntity
  8
0
  6
Continuous
 62
     7
370
    25
100
AcDbLine
 10
64.4814814814
 20
182.0740740741
 30
0.0
 11
63.2469135802
 21
182.0740740741
 31
0.0
  0
LINE
  5
BF
330
1F
100
AcDbEntity
  8
0
  6
Continuous
 62
     7
370
    25
100
AcDbLine
 10
64.4814814814
 20
179.6049382716
 30
0.0
 11
64.4814814814
 21
182.0740740741
 31
0.0
  0
LINE
  5
C0
330
1F
100
AcDbEntity
  8
0
  6
Continuous
 62
     7
370
    25
100
AcDbLine
 10
101.5185185185
 20
188.2469135802
 30
0.0
 11
101.5185185185
 21
198.7407407407
 31
0.0
  0
LINE
  5
C1
330
1F
100
AcDbEntity
  8
0
  6
Continuous
 62
     7
370
    25
100
AcDbLine
 10
64.4814814814
 20
198.7407407407
 30
0.0
 11
64.4814814814
 21
182.0740740741
 31
0.0
  0
LINE
  5
C2
330
1F
100
AcDbEntity
  8
0
  6
HIDDEN
 62
     7
370
    18
100
AcDbLine
 10
63.2469135802
 20
157.2872218899
 30
0.0
 11
62.2796374703
 21
156.7287647675
 31
0.0
  0
LINE
  5
C3
330
1F
100
AcDbEntity
  8
0
  6
HIDDEN
 62
     7
370
    18
100
AcDbLine
 10
63.2469135802
 20
157.2872218899
 30
0.0
 11
63.2469135802
 21
109.2345679012
 31
0.0
  0
LINE
  5
C4
330
1F
100
AcDbEntity
  8
0
  6
HIDDEN
 62
     7
370
    18
100
AcDbLine
 10
103.7203625296
 20
180.6545785359
 30
0.0
 11
102.7530864197
 21
180.0961214134
 31
0.0
  0
LINE
  5
C5
330
1F
100
AcDbEntity
  8
0
  6
HIDDEN
 62
     7
370
    18
100
AcDbLine
 10
102.7530864197
 20
180.0961214134
 30
0.0
 11
102.7530864197
 21
109.2345679012
 31
0.0
  0
LINE
  5
C6
330
1F
100
AcDbEntity
  8
0
  6
HIDDEN
 62
     7
370
    18
100
AcDbLine
 10
62.012345679
 20
156.8830857551
 30
0.0
 11
62.2757880835
 21
156.730987212
 31
0.0
  0
LINE
  5
C7
330
1F
100
AcDbEntity
  8
0
  6
HIDDEN
 62
     7
370
    18
100
AcDbLine
 10
62.2757880835
 20
156.730987212
 30
0.0
 11
62.2796374703
 21
156.7287647675
 31
0.0
  0
LINE
  5
C8
330
1F
100
AcDbEntity
  8
0
  6
HIDDEN
 62
     7
370
    18
100
AcDbLine
 10
103.9876543209
 20
181.1175414988
 30
0.0
 11
103.7242119164
 21
180.6612458694
 31
0.0
  0
LINE
  5
C9
330
1F
100
AcDbEntity
  8
0
  6
HIDDEN
 62
     7
370
    18
100
AcDbLine
 10
103.7242119164
 20
180.6612458694
 30
0.0
 11
103.7203625296
 21
180.6545785359
 31
0.0
  0
SPLINE
  5
CA
330
1F
100
AcDbEntity
  8
0
  6
HIDDEN
 62
     7
370
    18
100
AcDbSpline
210
0.0
220
0.0
230
1.0
 70
     8
 71
     3
 72
    28
 73
    24
 74
     0
 42
0.00000001
 43
0.00000001
 40
0.0
 40
0.0
 40
0.0
 40
0.0
 40
0.1249999999999997
 40
0.1249999999999997
 40
0.2499999999999993
 40
0.2499999999999993
 40
0.3124999999999992
 40
0.3124999999999992
 40
0.374999999999999
 40
0.374999999999999
 40
0.4999999999999992
 40
0.4999999999999992
 40
0.5624999999999992
 40
0.5624999999999992
 40
0.6249999999999993
 40
0.6249999999999993
 40
0.7499999999999994
 40
0.7499999999999994
 40
0.8124999999999996
 40
0.8124999999999996
 40
0.8749999999999998
 40
0.8749999999999998
 40
1.0
 40
1.0
 40
1.0
 40
1.0
 10
69.26543419216236
 20
161.1184006057271
 30
0.0
 10
68.81474705840235
 20
160.8581397829201
 30
0.0
 10
68.3639382532951
 20
160.5980380187326
 30
0.0
 10
67.48535276503037
 20
160.0894183788646
 30
0.0
 10
67.05605485565215
 20
159.8400153624285
 30
0.0
 10
66.42726839140691
 20
159.4738693753588
 30
0.0
 10
66.22020356739304
 20
159.3531760226935
 30
0.0
 10
65.81126587238758
 20
159.1149387816857
 30
0.0
 10
65.60931349981192
 20
158.9973110349569
 30
0.0
 10
65.02457281974281
 20
158.6562920835173
 30
0.0
 10
64.65835753035935
 20
158.4419889406052
 30
0.0
 10
64.14618451861784
 20
158.141214327789
 30
0.0
 10
63.98168106170107
 20
158.0444496777532
 30
0.0
 10
63.66587879095632
 20
157.8588141046686
 30
0.0
 10
63.5136160157911
 20
157.769460510666
 30
0.0
 10
63.08811440090111
 20
157.5205540041258
 30
0.0
 10
62.84442220638607
 20
157.3786221673445
 30
0.0
 10
62.54209467194973
 20
157.2012177095409
 30
0.0
 10
62.45191998752674
 20
157.1480601814594
 30
0.0
 10
62.29433441737632
 20
157.0545538149879
 30
0.0
 10
62.22726774361928
 20
157.0144020778335
 30
0.0
 10
62.06716970511478
 20
156.9177192496454
 30
0.0
 10
62.01234567903456
 20
156.8830857551256
 30
0.0
 10
62.01234567903457
 20
156.8830857551256
 30
0.0
  0
SPLINE
  5
CB
330
1F
100
AcDbEntity
  8
0
  6
HIDDEN
 62
     7
370
    18
100
AcDbSpline
210
0.0
220
0.0
230
1.0
 70
     8
 71
     3
 72
     8
 73
     4
 74
     0
 42
0.00000001
 43
0.00000001
 40
0.0
 40
0.0
 40
0.0
 40
0.0
 40
1.0
 40
1.0
 40
1.0
 40
1.0
 10
69.4197530863494
 20
161.2075014954827
 30
0.0
 10
69.36831275713148
 20
161.1778024075614
 30
0.0
 10
69.31687172988272
 20
161.1481045286648
 30
0.0
 10
69.26543419216236
 20
161.1184006057271
 30
0.0
  0
SPLINE
  5
CC
330
1F
100
AcDbEntity
  8
0
  6
HIDDEN
 62
     7
370
    18
100
AcDbSpline
210
0.0
220
0.0
230
1.0
 70
     8
 71
     3
 72
    28
 73
    24
 74
     0
 42
0.00000001
 43
0.00000001
 40
0.0
 40
0.0
 40
0.0
 40
0.0
 40
0.0624999999999998
 40
0.0624999999999998
 40
0.1249999999999997
 40
0.1249999999999997
 40
0.2499999999999993
 40
0.2499999999999993
 40
0.3124999999999992
 40
0.3124999999999992
 40
0.3749999999999991
 40
0.3749999999999991
 40
0.4999999999999988
 40
0.4999999999999988
 40
0.6249999999999984
 40
0.6249999999999984
 40
0.6874999999999987
 40
0.6874999999999987
 40
0.7499999999999988
 40
0.7499999999999988
 40
0.8749999999999994
 40
0.8749999999999994
 40
1.0
 40
1.0
 40
1.0
 40
1.0
 10
103.9876543209872
 20
181.1175414988743
 30
0.0
 10
103.9876543209921
 20
181.1175414988764
 30
0.0
 10
103.9736453010427
 20
181.1100080815225
 30
0.0
 10
103.9179915864765
 20
181.0793646172039
 30
0.0
 10
103.8761093916553
 20
181.0561187049601
 30
0.0
 10
103.7124516647712
 20
180.9644098430634
 30
0.0
 10
103.5527583845907
 20
180.8738666213026
 30
0.0
 10
103.2403617466758
 20
180.6970184091992
 30
0.0
 10
103.1243327354856
 20
180.6315191622481
 30
0.0
 10
102.8738890994904
 20
180.4901331069026
 30
0.0
 10
102.7389375442617
 20
180.4138948631141
 30
0.0
 10
102.3062852123995
 20
180.1688587462878
 30
0.0
 10
101.977614677232
 20
179.9817748313742
 30
0.0
 10
101.2734641038792
 20
179.5807271143035
 30
0.0
 10
100.8963905511282
 20
179.366693574016
 30
0.0
 10
100.2956366702397
 20
179.0257146534937
 30
0.0
 10
100.089777060363
 20
178.9087561238235
 30
0.0
 10
99.67394183590076
 20
178.671901226792
 30
0.0
 10
99.46309268806971
 20
178.5515104585747
 30
0.0
 10
98.82221538765626
 20
178.1844883113179
 30
0.0
 10
98.38312721022608
 20
177.9314863291015
 30
0.0
 10
97.48616383416055
 20
177.4128447927629
 30
0.0
 10
97.03500087618707
 20
177.1511104440087
 30
0.0
 10
96.58024691350987
 20
176.8886150848349
 30
0.0
  0
LINE
  5
CD
330
1F
100
AcDbEntity
  8
0
  6
HIDDEN
 62
     7
370
    18
100
AcDbLine
 10
102.7530864197
 20
109.2345679012
 30
0.0
 11
96.5802469135
 21
109.2345679012
 31
0.0
  0
LINE
  5
CE
330
1F
100
AcDbEntity
  8
0
  6
HIDDEN
 62
     7
370
    18
100
AcDbLine
 10
102.7530864197
 20
180.0961214134
 30
0.0
 11
96.5802469135
 21
176.5322308629
 31
0.0
  0
LINE
  5
CF
330
1F
100
AcDbEntity
  8
0
  6
HIDDEN
 62
     7
370
    18
100
AcDbLine
 10
69.4197530863
 20
109.2345679012
 30
0.0
 11
63.2469135802
 21
109.2345679012
 31
0.0
  0
LINE
  5
D0
330
1F
100
AcDbEntity
  8
0
  6
HIDDEN
 62
     7
370
    18
100
AcDbLine
 10
69.4197530863
 20
160.8511124404
 30
0.0
 11
63.2469135802
 21
157.2872218899
 31
0.0
  0
LINE
  5
D1
330
1F
100
AcDbEntity
  8
0
  6
HIDDEN
 62
     7
370
    18
100
AcDbLine
 10
96.5802469135
 20
109.2345679012
 30
0.0
 11
69.4197530863
 21
109.2345679012
 31
0.0
  0
LINE
  5
D2
330
1F
100
AcDbEntity
  8
0
  6
HIDDEN
 62
     7
370
    18
100
AcDbLine
 10
96.5802469135
 20
176.5322308629
 30
0.0
 11
69.4197530863
 21
160.8511124404
 31
0.0
  0
LINE
  5
D3
330
1F
100
AcDbEntity
  8
0
  6
HIDDEN
 62
     7
370
    18
100
AcDbLine
 10
96.4259259259
 20
176.7995226542
 30
0.0
 11
69.4197530863
 21
161.2075014955
 31
0.0
  0
LWPOLYLINE
  5
D4
330
1F
100
AcDbEntity
  8
0
  6
HIDDEN
 62
     7
370
    18
100
AcDbPolyline
 90
        3
 70
   128
 43
0.0
 10
96.5802469135
 20
176.8886150848
 10
96.4938212396
 20
176.8387221444
 10
96.4259259259
 20
176.7995226542
  0
LINE
  5
D5
330
1F
100
AcDbEntity
  8
0
  6
Continuous
 62
     7
370
    25
100
AcDbLine
 10
175.3148148148
 20
60.9219465373
 30
0.0
 11
245.8502497075
 21
60.9219465373
 31
0.0
  0
LINE
  5
D6
330
1F
100
AcDbEntity
  8
0
  6
Continuous
 62
     7
370
    25
100
AcDbLine
 10
223.8171264183
 20
52.0617283951
 30
0.0
 11
224.0447027075
 21
51.8342554292
 31
0.0
  0
ARC
  5
D7
330
1F
100
AcDbEntity
  8
0
  6
Continuous
 62
     7
370
    25
100
AcDbCircle
 10
268.4853651241
 20
55.7654320989
 30
0.0
 40
4.93827160500537
100
AcDbArc
 50
270.0
 51
315.0
  0
LINE
  5
D8
330
1F
100
AcDbEntity
  8
0
  6
Continuous
 62
     7
370
    25
100
AcDbLine
 10
268.4853651241
 20
63.1728395062
 30
0.0
 11
271.9772504633
 21
63.1728395062
 31
0.0
  0
SPLINE
  5
D9
330
1F
100
AcDbEntity
  8
0
  6
Continuous
 62
     7
370
    25
100
AcDbSpline
210
0.0
220
0.0
230
1.0
 70
     8
 71
     3
 72
    28
 73
    24
 74
     0
 42
0.00000001
 43
0.00000001
 40
0.0
 40
0.0
 40
0.0
 40
0.0
 40
0.0624999999999998
 40
0.0624999999999998
 40
0.1249999999999997
 40
0.1249999999999997
 40
0.2499999999999993
 40
0.2499999999999993
 40
0.3124999999999992
 40
0.3124999999999992
 40
0.3749999999999991
 40
0.3749999999999991
 40
0.4999999999999988
 40
0.4999999999999988
 40
0.6249999999999984
 40
0.6249999999999984
 40
0.6874999999999987
 40
0.6874999999999987
 40
0.7499999999999988
 40
0.7499999999999988
 40
0.8749999999999994
 40
0.8749999999999994
 40
1.0
 40
1.0
 40
1.0
 40
1.0
 10
246.1175414988743
 20
58.23456790138855
 30
0.0
 10
246.1175414988764
 20
57.97117561556276
 30
0.0
 10
246.1100080815225
 20
57.70912502855569
 30
0.0
 10
246.0793646172039
 20
57.18769969388671
 30
0.0
 10
246.0561187049601
 20
56.9279741560489
 30
0.0
 10
245.9644098430634
 20
56.168221380191
 30
0.0
 10
245.8738666213026
 20
55.68214202071223
 30
0.0
 10
245.6970184091992
 20
54.98220994020072
 30
0.0
 10
245.6315191622481
 20
54.7549738641198
 30
0.0
 10
245.4901331069026
 20
54.32014560115747
 30
0.0
 10
245.4138948631141
 20
54.11131001980166
 30
0.0
 10
245.1688587462878
 20
53.50949274125952
 30
0.0
 10
244.9817748313742
 20
53.13855642501453
 30
0.0
 10
244.5807271143035
 20
52.48351372424795
 30
0.0
 10
244.366693574016
 20
52.19609181663806
 30
0.0
 10
244.0257146534937
 20
51.82198537452236
 30
0.0
 10
243.9087561238235
 20
51.7071771712965
 30
0.0
 10
243.671901226792
 20
51.5001278116563
 30
0.0
 10
243.5515104585747
 20
51.40731876769097
 30
0.0
 10
243.1844883113179
 20
51.1597501773638
 30
0.0
 10
242.9314863291015
 20
51.03544296218659
 30
0.0
 10
242.412844792763
 20
50.8686265638912
 30
0.0
 10
242.1511104440087
 20
50.8271604937729
 30
0.0
 10
241.8886150848349
 20
50.8271604937729
 30
0.0
  0
LINE
  5
DA
330
1F
100
AcDbEntity
  8
0
  6
Continuous
 62
     7
370
    25
100
AcDbLine
 10
268.4853651241
 20
50.8271604939
 30
0.0
 11
241.8886150848
 21
50.8271604938
 31
0.0
  0
LINE
  5
DB
330
1F
100
AcDbEntity
  8
0
  6
Continuous
 62
     7
370
    25
100
AcDbLine
 10
246.1175414988
 20
61.076267525
 30
0.0
 11
246.1175414989
 21
58.2345679014
 31
0.0
  0
LINE
  5
DC
330
1F
100
AcDbEntity
  8
0
  6
Continuous
 62
     7
370
    25
100
AcDbLine
 10
175.4691358025
 20
63.1728395062
 30
0.0
 11
175.4691358025
 21
61.076267525
 31
0.0
  0
LINE
  5
DD
330
1F
100
AcDbEntity
  8
0
  6
Continuous
 62
     7
370
    25
100
AcDbLine
 10
268.4853651241
 20
63.1728395062
 30
0.0
 11
175.4691358025
 21
63.1728395062
 31
0.0
  0
SPLINE
  5
DE
330
1F
100
AcDbEntity
  8
0
  6
Continuous
 62
     7
370
    25
100
AcDbSpline
210
0.0
220
0.0
230
1.0
 70
     8
 71
     3
 72
    10
 73
     6
 74
     0
 42
0.00000001
 43
0.00000001
 40
-1.54996515961599
 40
-1.54996515961599
 40
-1.54996515961599
 40
-1.54996515961599
 40
-0.885694376923563
 40
-0.442847188461946
 40
-0.0000000000003301
 40
-0.0000000000003301
 40
-0.0000000000003301
 40
-0.0000000000003301
 10
241.6185284701525
 20
51.13735936046901
 30
0.0
 10
242.5356876154813
 20
51.1704558367905
 30
0.0
 10
244.046838448273
 20
52.14320122723056
 30
0.0
 10
245.3840555121003
 20
55.11515759082772
 30
0.0
 10
245.6545785359195
 20
57.19372668366084
 30
0.0
 10
245.6545785359113
 20
58.23456790138121
 30
0.0
  0
LINE
  5
DF
330
1F
100
AcDbEntity
  8
0
  6
Continuous
 62
     7
370
    25
100
AcDbLine
 10
245.6545785359
 20
58.2345679014
 30
0.0
 11
245.6545785359
 21
60.9219465373
 31
0.0
  0
ELLIPSE
  5
E0
330
1F
100
AcDbEntity
  8
0
  6
Continuous
 62
     7
370
    25
100
AcDbEllipse
 10
245.8502497076
 20
61.076267525
 30
0.0
 11
0.2672917912915125
 21
2.891908934543608E-12
 31
0.0
210
0.0
220
0.0
230
1.0
 40
0.5773502692
 41
4.71238898036601
 42
6.283185307179586
  0
ARC
  5
E1
330
1F
100
AcDbEntity
  8
0
  6
Continuous
 62
     7
370
    25
100
AcDbCircle
 10
175.3148148148
 20
61.076267525
 30
0.0
 40
0.1543209876671357
100
AcDbArc
 50
224.9999999933
 51
0.0000000011
  0
LINE
  5
E2
330
1F
100
AcDbEntity
  8
0
  6
Continuous
 62
     7
370
    25
100
AcDbLine
 10
175.205693398
 20
60.9671461081
 30
0.0
 11
174.2345679012
 21
61.9382716049
 31
0.0
  0
LINE
  5
E3
330
1F
100
AcDbEntity
  8
0
  6
Continuous
 62
     7
370
    25
100
AcDbLine
 10
174.2345679012
 20
61.9382716049
 30
0.0
 11
174.2345679012
 21
58.2345679012
 31
0.0
  0
LINE
  5
E4
330
1F
100
AcDbEntity
  8
0
  6
Continuous
 62
     7
370
    25
100
AcDbLine
 10
173.0
 20
58.2345679012
 30
0.0
 11
173.0
 21
63.1728395062
 31
0.0
  0
LINE
  5
E5
330
1F
100
AcDbEntity
  8
0
  6
Continuous
 62
     7
370
    25
100
AcDbLine
 10
173.0
 20
63.1728395062
 30
0.0
 11
175.4691358025
 21
63.1728395062
 31
0.0
  0
ELLIPSE
  5
E6
330
1F
100
AcDbEntity
  8
0
  6
Continuous
 62
     7
370
    25
100
AcDbEllipse
 10
241.5322308629
 20
58.2345679012
 30
0.0
 11
0.0
 21
6.172839506172841
 31
0.0
210
0.0
220
0.0
230
1.0
 40
0.5773502692
 41
3.141592653589793
 42
4.712388980384698
  0
LINE
  5
E7
330
1F
100
AcDbEntity
  8
0
  6
Continuous
 62
     7
370
    25
100
AcDbLine
 10
245.0961214134
 20
60.9219465373
 30
0.0
 11
245.0961214134
 21
58.2345679012
 31
0.0
  0
SPLINE
  5
E8
330
1F
100
AcDbEntity
  8
0
  6
Continuous
 62
     7
370
    25
100
AcDbSpline
210
0.0
220
0.0
230
1.0
 70
     8
 71
     3
 72
     8
 73
     4
 74
     0
 42
0.00000001
 43
0.00000001
 40
-1.5707963268088
 40
-1.5707963268088
 40
-1.5707963268088
 40
-1.5707963268088
 40
-1.54996515961599
 40
-1.54996515961599
 40
-1.54996515961599
 40
-1.54996515961599
 10
241.5322308628616
 20
51.13580246908155
 30
0.0
 10
241.5609988628291
 20
51.13580246908179
 30
0.0
 10
241.5897668626927
 20
51.13632147313494
 30
0.0
 10
241.6185284701525
 20
51.13735936046901
 30
0.0
  0
LINE
  5
E9
330
1F
100
AcDbEntity
  8
0
  6
Continuous
 62
     7
370
    25
100
AcDbLine
 10
225.9402097042
 20
51.1358024692
 30
0.0
 11
241.5322308629
 21
51.1358024692
 31
0.0
  0
LINE
  5
EA
330
1F
100
AcDbEntity
  8
0
  6
Continuous
 62
     7
370
    25
100
AcDbLine
 10
225.8511124404
 20
51.1358024692
 30
0.0
 11
225.9402097042
 21
51.1358024692
 31
0.0
  0
SPLINE
  5
EB
330
1F
100
AcDbEntity
  8
0
  6
Continuous
 62
     7
370
    25
100
AcDbSpline
210
0.0
220
0.0
230
1.0
 70
     8
 71
     3
 72
    11
 73
     7
 74
     0
 42
0.00000001
 43
0.00000001
 40
0.0
 40
0.0
 40
0.0
 40
0.0
 40
0.0044411290233722
 40
0.3319959347137256
 40
0.6646278286477056
 40
1.0
 40
1.0
 40
1.0
 40
1.0
 10
223.7933211411309
 20
52.08720398315826
 30
0.0
 10
223.7960234974858
 20
52.08396052285335
 30
0.0
 10
223.9980377418927
 20
51.84149613373708
 30
0.0
 10
224.4513757698569
 20
51.54145338013909
 30
0.0
 10
225.137408107855
 20
51.19449947726748
 30
0.0
 10
225.6125612738977
 20
51.15542157353767
 30
0.0
 10
225.8511124404274
 20
51.13580246924352
 30
0.0
  0
LINE
  5
EC
330
1F
100
AcDbEntity
  8
0
  6
Continuous
 62
     7
370
    25
100
AcDbLine
 10
241.5322308629
 20
52.0617283951
 30
0.0
 11
174.2345679012
 21
52.0617283951
 31
0.0
  0
LINE
  5
ED
330
1F
100
AcDbEntity
  8
0
  6
Continuous
 62
     7
370
    25
100
AcDbLine
 10
174.2345679012
 20
58.2345679012
 30
0.0
 11
174.2345679012
 21
52.0617283951
 31
0.0
  0
LINE
  5
EE
330
1F
100
AcDbEntity
  8
0
  6
Continuous
 62
     7
370
    25
100
AcDbLine
 10
173.0
 20
53.2962962963
 30
0.0
 11
173.0
 21
58.2345679012
 31
0.0
  0
LINE
  5
EF
330
1F
100
AcDbEntity
  8
0
  6
Continuous
 62
     7
370
    25
100
AcDbLine
 10
174.2345679012
 20
52.0617283951
 30
0.0
 11
173.0
 21
53.2962962963
 31
0.0
  0
LINE
  5
F0
330
1F
100
AcDbEntity
  8
0
  6
Continuous
 62
     7
370
    25
100
AcDbLine
 10
273.0
 20
58.2345679013
 30
0.0
 11
273.0
 21
53.2962962962
 31
0.0
  0
LINE
  5
F1
330
1F
100
AcDbEntity
  8
0
  6
Continuous
 62
     7
370
    25
100
AcDbLine
 10
273.0
 20
53.2962962962
 30
0.0
 11
271.9772504633
 21
52.2735467596
 31
0.0
  0
LINE
  5
F2
330
1F
100
AcDbEntity
  8
0
  6
Continuous
 62
     7
370
    25
100
AcDbLine
 10
273.0
 20
63.1728395062
 30
0.0
 11
273.0
 21
58.2345679013
 31
0.0
  0
LINE
  5
F3
330
1F
100
AcDbEntity
  8
0
  6
Continuous
 62
     7
370
    25
100
AcDbLine
 10
271.9772504633
 20
63.1728395062
 30
0.0
 11
273.0
 21
63.1728395062
 31
0.0
  0
LINE
  5
F4
330
1F
100
AcDbEntity
  8
0
  6
Continuous
 62
     7
370
    25
100
AcDbLine
 10
241.8886150848
 20
50.8271604938
 30
0.0
 11
241.7995226542
 21
50.8271604939
 31
0.0
  0
LINE
  5
F5
330
1F
100
AcDbEntity
  8
0
  6
Continuous
 62
     7
370
    25
100
AcDbLine
 10
241.7995226542
 20
50.8271604939
 30
0.0
 11
226.2075014955
 21
50.8271604939
 31
0.0
  0
SPLINE
  5
F6
330
1F
100
AcDbEntity
  8
0
  6
Continuous
 62
     7
370
    25
100
AcDbSpline
210
0.0
220
0.0
230
1.0
 70
     8
 71
     3
 72
    11
 73
     7
 74
     0
 42
0.00000001
 43
0.00000001
 40
0.0
 40
0.0
 40
0.0
 40
0.0
 40
0.2027890873164619
 40
0.5780642621660586
 40
0.9644911071689933
 40
1.0
 40
1.0
 40
1.0
 40
1.0
 10
226.1184006057271
 20
50.82876813506383
 30
0.0
 10
225.9730902402119
 20
50.84119814127191
 30
0.0
 10
225.5588730338612
 20
50.87663073018722
 30
0.0
 10
224.8808469268561
 20
51.1651051747554
 30
0.0
 10
224.3236712732088
 20
51.50909170612866
 30
0.0
 10
224.0635442063459
 20
51.82478683116092
 30
0.0
 10
224.0416526638397
 20
51.85135482092067
 30
0.0
  0
SPLINE
  5
F7
330
1F
100
AcDbEntity
  8
0
  6
Continuous
 62
     7
370
    25
100
AcDbSpline
210
0.0
220
0.0
230
1.0
 70
     8
 71
     3
 72
     8
 73
     4
 74
     0
 42
0.00000001
 43
0.00000001
 40
0.0
 40
0.0
 40
0.0
 40
0.0
 40
1.0
 40
1.0
 40
1.0
 40
1.0
 10
226.2075014954827
 20
50.82716049393488
 30
0.0
 10
226.1778024075614
 20
50.82716049393488
 30
0.0
 10
226.1481045286648
 20
50.82769630161012
 30
0.0
 10
226.1184006057271
 20
50.82876813506383
 30
0.0
  0
LINE
  5
F8
330
1F
100
AcDbEntity
  8
0
  6
HIDDEN
 62
     7
370
    18
100
AcDbLine
 10
245.6545785359
 20
60.9219465373
 30
0.0
 11
245.6545785359
 21
60.9709954949
 31
0.0
  0
LINE
  5
F9
330
1F
100
AcDbEntity
  8
0
  6
HIDDEN
 62
     7
370
    18
100
AcDbLine
 10
245.6612458694
 20
60.9671461081
 30
0.0
 11
245.6545785359
 21
60.9709954949
 31
0.0
  0
ELLIPSE
  5
FA
330
1F
100
AcDbEntity
  8
0
  6
HIDDEN
 62
     7
370
    18
100
AcDbEllipse
 10
245.8502497076
 20
61.076267525
 30
0.0
 11
0.2672917912915125
 21
2.891908934543608E-12
 31
0.0
210
0.0
220
0.0
230
1.0
 40
0.5773502692
 41
3.926990816934706
 42
4.71238898036601
  0
LINE
  5
FB
330
1F
100
AcDbEntity
  8
0
  6
HIDDEN
 62
     7
370
    18
100
AcDbLine
 10
222.2872218899
 20
61.938271605
 30
0.0
 11
221.7287647675
 21
60.9709954951
 31
0.0
  0
LINE
  5
FC
330
1F
100
AcDbEntity
  8
0
  6
HIDDEN
 62
     7
370
    18
100
AcDbLine
 10
222.2872218899
 20
58.2345679012
 30
0.0
 11
222.2872218899
 21
61.938271605
 31
0.0
  0
ELLIPSE
  5
FD
330
1F
100
AcDbEntity
  8
0
  6
HIDDEN
 62
     7
370
    18
100
AcDbEllipse
 10
225.8511124404
 20
58.2345679012
 30
0.0
 11
0.0
 21
6.172839506123274
 31
0.0
210
0.0
220
0.0
230
1.0
 40
0.5773502692
 41
1.570796326794897
 42
3.141592653589793
  0
LINE
  5
FE
330
1F
100
AcDbEntity
  8
0
  6
HIDDEN
 62
     7
370
    18
100
AcDbLine
 10
245.0961214134
 20
61.9382716049
 30
0.0
 11
245.0961214134
 21
60.9219465373
 31
0.0
  0
SPLINE
  5
FF
330
1F
100
AcDbEntity
  8
0
  6
HIDDEN
 62
     7
370
    18
100
AcDbSpline
210
0.0
220
0.0
230
1.0
 70
     8
 71
     3
 72
    13
 73
     9
 74
     0
 42
0.00000001
 43
0.00000001
 40
0.0
 40
0.0
 40
0.0
 40
0.0
 40
0.1592604505038584
 40
0.3204057387471907
 40
0.4847830969497714
 40
0.6534418915518191
 40
0.8271715935367154
 40
1.0
 40
1.0
 40
1.0
 40
1.0
 10
221.7287647674598
 20
58.23456790124975
 30
0.0
 10
221.7414795530649
 20
57.82030531605902
 30
0.0
 10
221.767059602989
 20
56.98687737319292
 30
0.0
 10
221.9658684146951
 20
55.77921285707993
 30
0.0
 10
222.2719123517388
 20
54.64429242513136
 30
0.0
 10
222.6919716149374
 20
53.62220639781712
 30
0.0
 10
223.201828589182
 20
52.74118623461572
 30
0.0
 10
223.5964990977137
 20
52.30481978012197
 30
0.0
 10
223.7933211411309
 20
52.08720398315826
 30
0.0
  0
LINE
  5
100
330
1F
100
AcDbEntity
  8
0
  6
HIDDEN
 62
     7
370
    18
100
AcDbLine
 10
221.7287647675
 20
60.9709954951
 30
0.0
 11
221.7287647675
 21
58.2345679012
 31
0.0
  0
LINE
  5
101
330
1F
100
AcDbEntity
  8
0
  6
HIDDEN
 62
     7
370
    18
100
AcDbLine
 10
245.6545785359
 20
60.9709954949
 30
0.0
 11
245.0961214134
 21
61.9382716049
 31
0.0
  0
LINE
  5
102
330
1F
100
AcDbEntity
  8
0
  6
HIDDEN
 62
     7
370
    18
100
AcDbLine
 10
263.7407407407
 20
60.7037037037
 30
0.0
 11
266.2098765432
 21
63.1728395062
 31
0.0
  0
LINE
  5
103
330
1F
100
AcDbEntity
  8
0
  6
HIDDEN
 62
     7
370
    18
100
AcDbLine
 10
253.2469135802
 20
60.7037037037
 30
0.0
 11
263.7407407407
 21
60.7037037037
 31
0.0
  0
LINE
  5
104
330
1F
100
AcDbEntity
  8
0
  6
HIDDEN
 62
     7
370
    18
100
AcDbLine
 10
250.7777777778
 20
63.1728395062
 30
0.0
 11
253.2469135802
 21
60.7037037037
 31
0.0
  0
LINE
  5
105
330
1F
100
AcDbEntity
  8
0
  6
HIDDEN
 62
     7
370
    18
100
AcDbLine
 10
245.0961214134
 20
61.9382716049
 30
0.0
 11
174.2345679012
 21
61.9382716049
 31
0.0
  0
ARC
  5
106
330
1F
100
AcDbEntity
  8
0
  6
HIDDEN
 62
     7
370
    18
100
AcDbCircle
 10
268.2735467596
 20
55.7654320988
 30
0.0
 40
2.469135802469165
100
AcDbArc
 50
270.0
 51
315.0
  0
LINE
  5
107
330
1F
100
AcDbEntity
  8
0
  6
HIDDEN
 62
     7
370
    18
100
AcDbLine
 10
268.2735467596
 20
53.2962962963
 30
0.0
 11
177.7264532404
 21
53.2962962963
 31
0.0
  0
ARC
  5
108
330
1F
100
AcDbEntity
  8
0
  6
HIDDEN
 62
     7
370
    18
100
AcDbCircle
 10
177.7264532404
 20
55.7654320988
 30
0.0
 40
2.46913580246914
100
AcDbArc
 50
225.0
 51
270.0
  0
LINE
  5
109
330
1F
100
AcDbEntity
  8
0
  6
HIDDEN
 62
     7
370
    18
100
AcDbLine
 10
270.5308641975
 20
54.5308641975
 30
0.0
 11
270.0194894292
 21
54.0194894292
 31
0.0
  0
LINE
  5
10A
330
1F
100
AcDbEntity
  8
0
  6
HIDDEN
 62
     7
370
    18
100
AcDbLine
 10
270.5308641975
 20
54.5308641975
 30
0.0
 11
270.5308641975
 21
58.2345679012
 31
0.0
  0
LINE
  5
10B
330
1F
100
AcDbEntity
  8
0
  6
HIDDEN
 62
     7
370
    18
100
AcDbLine
 10
175.4691358025
 20
58.2345679013
 30
0.0
 11
175.4691358025
 21
54.5308641975
 31
0.0
  0
LINE
  5
10C
330
1F
100
AcDbEntity
  8
0
  6
HIDDEN
 62
     7
370
    18
100
AcDbLine
 10
175.4691358025
 20
54.5308641975
 30
0.0
 11
175.9805105708
 21
54.0194894292
 31
0.0
  0
LINE
  5
10D
330
1F
100
AcDbEntity
  8
0
  6
HIDDEN
 62
     7
370
    18
100
AcDbLine
 10
270.5308641975
 20
58.2345679012
 30
0.0
 11
270.5308641975
 21
63.1728395062
 31
0.0
  0
LINE
  5
10E
330
1F
100
AcDbEntity
  8
0
  6
HIDDEN
 62
     7
370
    18
100
AcDbLine
 10
175.4691358025
 20
61.076267525
 30
0.0
 11
175.4691358025
 21
58.2345679013
 31
0.0
  0
SPLINE
  5
10F
330
1F
100
AcDbEntity
  8
0
  6
HIDDEN
 62
     7
370
    18
100
AcDbSpline
210
0.0
220
0.0
230
1.0
 70
     8
 71
     3
 72
    14
 73
    10
 74
     0
 42
0.00000001
 43
0.00000001
 40
0.0
 40
0.0
 40
0.0
 40
0.0
 40
0.1809507179228142
 40
0.2848777769417527
 40
0.3887845558516787
 40
0.5609306258928185
 40
0.739977545120685
 40
0.8682753933195828
 40
1.0
 40
1.0
 40
1.0
 40
1.0
 10
224.0416526638397
 20
51.85135482092067
 30
0.0
 10
223.8258446086843
 20
52.08628940272038
 30
0.0
 10
223.4860895654078
 20
52.45615608331786
 30
0.0
 10
223.0769884853626
 20
53.12808030537204
 30
0.0
 10
222.7108913170827
 20
53.853894830166
 30
0.0
 10
222.3431487738338
 20
54.84824675052455
 30
0.0
 10
222.0678628465971
 20
56.02835978592161
 30
0.0
 10
221.9109974253587
 20
57.17867004231327
 30
0.0
 10
221.8924710298157
 20
57.879523170067
 30
0.0
 10
221.8830857551199
 20
58.23456790124973
 30
0.0
  0
LINE
  5
110
330
1F
100
AcDbEntity
  8
0
  6
HIDDEN
 62
     7
370
    18
100
AcDbLine
 10
241.8886150848
 20
50.8271604939
 30
0.0
 11
241.8389575018
 21
50.8271604939
 31
0.0
  0
LINE
  5
111
330
1F
100
AcDbEntity
  8
0
  6
HIDDEN
 62
     7
370
    18
100
AcDbLine
 10
244.6049382716
 20
63.1728395062
 30
0.0
 11
247.0740740741
 21
60.7037037037
 31
0.0
  0
LINE
  5
112
330
1F
100
AcDbEntity
  8
0
  6
HIDDEN
 62
     7
370
    18
100
AcDbLine
 10
253.2469135802
 20
60.7037037037
 30
0.0
 11
247.0740740741
 21
60.7037037037
 31
0.0
  0
LINE
  5
113
330
1F
100
AcDbEntity
  8
0
  6
HIDDEN
 62
     7
370
    18
100
AcDbLine
 10
221.730987212
 20
60.9671461083
 30
0.0
 11
221.7287647675
 21
60.9709954951
 31
0.0
  0
ELLIPSE
  5
114
330
1F
100
AcDbEntity
  8
0
  6
HIDDEN
 62
     7
370
    18
100
AcDbEllipse
 10
221.7939884913
 20
61.0762675252
 30
0.0
 11
-8.526512829121202E-14
 21
0.1543209876543159
 31
0.0
210
0.0
220
0.0
230
1.0
 40
0.5773502692
 41
2.356194490178388
 42
4.712388980384056
  0
LINE
  5
115
330
1F
100
AcDbEntity
  8
0
  6
HIDDEN
 62
     7
370
    18
100
AcDbLine
 10
221.8830857551
 20
58.2345679012
 30
0.0
 11
221.8830857551
 21
61.0762675252
 31
0.0
  0
LINE
  5
116
330
1F
100
AcDbEntity
  8
0
  6
HIDDEN
 62
     7
370
    18
100
AcDbLine
 10
223.7900229303
 20
52.0888195777
 30
0.0
 11
223.8171264183
 21
52.0617283951
 31
0.0
  0
ENDSEC
  0
SECTION
  2
OBJECTS
  0
DICTIONARY
  5
C
330
0
100
AcDbDictionary
281
     1
  3
ACAD_GROUP
350
D
  3
ACAD_LAYOUT
350
1A
  3
ACAD_MLINESTYLE
350
17
  3
ACAD_PLOTSETTINGS
350
19
  3
ACAD_PLOTSTYLENAME
350
E
  3
ACAD_SCALELIST
350
47
  3
DWGPROPS
350
117
  0
DICTIONARY
  5
D
102
{ACAD_REACTORS
330
C
102
}
330
C
100
AcDbDictionary
281
     1
  0
DICTIONARY
  5
1A
102
{ACAD_REACTORS
330
C
102
}
330
C
100
AcDbDictionary
281
     1
  3
Layout1
350
1E
  3
Layout2
350
26
  3
Model
350
22
  0
DICTIONARY
  5
17
102
{ACAD_REACTORS
330
C
102
}
330
C
100
AcDbDictionary
281
     1
  3
Standard
350
18
  0
DICTIONARY
  5
19
102
{ACAD_REACTORS
330
C
102
}
330
C
100
AcDbDictionary
281
     1
  0
ACDBDICTIONARYWDFLT
  5
E
102
{ACAD_REACTORS
330
C
102
}
330
C
100
AcDbDictionary
281
     1
  3
Normal
350
F
100
AcDbDictionaryWithDefault
340
F
  0
DICTIONARY
  5
47
102
{ACAD_REACTORS
330
C
102
}
330
C
100
AcDbDictionary
281
     1
  3
A0
350
48
  3
A1
350
49
  3
A2
350
4A
  3
A3
350
4B
  3
A4
350
4C
  3
A5
350
4D
  3
A6
350
4E
  3
A7
350
4F
  3
A8
350
50
  3
A9
350
51
  3
B0
350
52
  3
B1
350
53
  3
B2
350
54
  3
B3
350
55
  3
B4
350
56
  3
B5
350
57
  3
B6
350
58
  0
XRECORD
  5
117
102
{ACAD_REACTORS
330
C
102
}
330
C
100
AcDbXrecord
280
     1
  1
DWGPROPS COOKIE
  2

  3

  4

  6

  7

  8

  9

300
=
301
=
302
=
303
=
304
=
305
=
306
=
307
=
308
=
309
=
 40
0.0
 41
2461215.243522755
 42
2461215.243523102
  1

 90
        0
  0
LAYOUT
  5
1E
102
{ACAD_REACTORS
330
1A
102
}
330
1A
100
AcDbPlotSettings
  1

  2
none_device
  4

  6

 40
0.0
 41
0.0
 42
0.0
 43
0.0
 44
0.0
 45
0.0
 46
0.0
 47
0.0
 48
0.0
 49
0.0
140
0.0
141
0.0
142
1.0
143
1.0
 70
   688
 72
     1
 73
     0
 74
     5
  7

 75
    16
147
1.0
148
0.0
149
0.0
100
AcDbLayout
  1
Layout1
 70
     1
 71
     1
 10
0.0
 20
0.0
 11
420.0
 21
297.0
 12
0.0
 22
0.0
 32
0.0
 14
1.0000000000E+20
 24
1.0000000000E+20
 34
1.0000000000E+20
 15
-1.0000000000E+20
 25
-1.0000000000E+20
 35
-1.0000000000E+20
146
0.0
 13
0.0
 23
0.0
 33
0.0
 16
1.0
 26
0.0
 36
0.0
 17
0.0
 27
1.0
 37
0.0
 76
     0
330
1B
  0
LAYOUT
  5
26
102
{ACAD_REACTORS
330
1A
102
}
330
1A
100
AcDbPlotSettings
  1

  2
none_device
  4

  6

 40
0.0
 41
0.0
 42
0.0
 43
0.0
 44
0.0
 45
0.0
 46
0.0
 47
0.0
 48
0.0
 49
0.0
140
0.0
141
0.0
142
1.0
143
1.0
 70
   688
 72
     1
 73
     0
 74
     5
  7

 75
    16
147
1.0
148
0.0
149
0.0
100
AcDbLayout
  1
Layout2
 70
     1
 71
     2
 10
0.0
 20
0.0
 11
0.0
 21
0.0
 12
0.0
 22
0.0
 32
0.0
 14
0.0
 24
0.0
 34
0.0
 15
0.0
 25
0.0
 35
0.0
146
0.0
 13
0.0
 23
0.0
 33
0.0
 16
1.0
 26
0.0
 36
0.0
 17
0.0
 27
1.0
 37
0.0
 76
     0
330
23
  0
LAYOUT
  5
22
102
{ACAD_REACTORS
330
1A
102
}
330
1A
100
AcDbPlotSettings
  1

  2
none_device
  4
Letter_(8.50_x_11.00_Inches)
  6

 40
6.35
 41
6.35
 42
6.35000508
 43
6.35000508
 44
215.9
 45
279.4
 46
0.0
 47
0.0
 48
0.0
 49
0.0
140
0.0
141
0.0
142
1.0
143
1.0
 70
  1712
 72
     1
 73
     0
 74
     0
  7

 75
     0
147
1.0
148
0.0
149
0.0
100
AcDbLayout
  1
Model
 70
     1
 71
     0
 10
0.0
 20
0.0
 11
297.0
 21
210.0
 12
0.0
 22
0.0
 32
0.0
 14
0.0
 24
0.0
 34
0.0
 15
297.0
 25
210.0
 35
0.0
146
0.0
 13
0.0
 23
0.0
 33
0.0
 16
1.0
 26
0.0
 36
0.0
 17
0.0
 27
1.0
 37
0.0
 76
     0
330
1F
331
29
  0
MLINESTYLE
  5
18
102
{ACAD_REACTORS
330
17
102
}
330
17
100
AcDbMlineStyle
  2
Standard
 70
     0
  3

 62
   256
 51
90.0
 52
90.0
 71
     2
 49
0.5
 62
   256
  6
BYLAYER
 49
-0.5
 62
   256
  6
BYLAYER
  0
ACDBPLACEHOLDER
  5
F
102
{ACAD_REACTORS
330
E
102
}
330
E
  0
SCALE
  5
48
102
{ACAD_REACTORS
330
47
102
}
330
47
100
AcDbScale
 70
     0
300
1:1
140
1.0
141
1.0
290
     1
  0
SCALE
  5
49
102
{ACAD_REACTORS
330
47
102
}
330
47
100
AcDbScale
 70
     0
300
1:2
140
1.0
141
2.0
290
     0
  0
SCALE
  5
4A
102
{ACAD_REACTORS
330
47
102
}
330
47
100
AcDbScale
 70
     0
300
1:4
140
1.0
141
4.0
290
     0
  0
SCALE
  5
4B
102
{ACAD_REACTORS
330
47
102
}
330
47
100
AcDbScale
 70
     0
300
1:5
140
1.0
141
5.0
290
     0
  0
SCALE
  5
4C
102
{ACAD_REACTORS
330
47
102
}
330
47
100
AcDbScale
 70
     0
300
1:8
140
1.0
141
8.0
290
     0
  0
SCALE
  5
4D
102
{ACAD_REACTORS
330
47
102
}
330
47
100
AcDbScale
 70
     0
300
1:10
140
1.0
141
10.0
290
     0
  0
SCALE
  5
4E
102
{ACAD_REACTORS
330
47
102
}
330
47
100
AcDbScale
 70
     0
300
1:16
140
1.0
141
16.0
290
     0
  0
SCALE
  5
4F
102
{ACAD_REACTORS
330
47
102
}
330
47
100
AcDbScale
 70
     0
300
1:20
140
1.0
141
20.0
290
     0
  0
SCALE
  5
50
102
{ACAD_REACTORS
330
47
102
}
330
47
100
AcDbScale
 70
     0
300
1:30
140
1.0
141
30.0
290
     0
  0
SCALE
  5
51
102
{ACAD_REACTORS
330
47
102
}
330
47
100
AcDbScale
 70
     0
300
1:40
140
1.0
141
40.0
290
     0
  0
SCALE
  5
52
102
{ACAD_REACTORS
330
47
102
}
330
47
100
AcDbScale
 70
     0
300
1:50
140
1.0
141
50.0
290
     0
  0
SCALE
  5
53
102
{ACAD_REACTORS
330
47
102
}
330
47
100
AcDbScale
 70
     0
300
1:100
140
1.0
141
100.0
290
     0
  0
SCALE
  5
54
102
{ACAD_REACTORS
330
47
102
}
330
47
100
AcDbScale
 70
     0
300
2:1
140
2.0
141
1.0
290
     0
  0
SCALE
  5
55
102
{ACAD_REACTORS
330
47
102
}
330
47
100
AcDbScale
 70
     0
300
4:1
140
4.0
141
1.0
290
     0
  0
SCALE
  5
56
102
{ACAD_REACTORS
330
47
102
}
330
47
100
AcDbScale
 70
     0
300
8:1
140
8.0
141
1.0
290
     0
  0
SCALE
  5
57
102
{ACAD_REACTORS
330
47
102
}
330
47
100
AcDbScale
 70
     0
300
10:1
140
10.0
141
1.0
290
     0
  0
SCALE
  5
58
102
{ACAD_REACTORS
330
47
102
}
330
47
100
AcDbScale
 70
     0
300
100:1
140
100.0
141
1.0
290
     0
  0
ENDSEC
  0
EOF
