  0
SECTION
  2
HEADER
  9
$ACADVER
  1
AC1015
  9
$ACADMAINTVER
 70
     6
  9
$DWGCODEPAGE
  3
ANSI_936
  9
$INSBASE
 10
0.0
 20
0.0
 30
0.0
  9
$EXTMIN
 10
0.0
 20
0.0
 30
0.0
  9
$EXTMAX
 10
297.0
 20
210.0
 30
0.0
  9
$LIMMIN
 10
0.0
 20
0.0
  9
$LIMMAX
 10
297.0
 20
210.0
  9
$ORTHOMODE
 70
     0
  9
$REGENMODE
 70
     1
  9
$FILLMODE
 70
     1
  9
$QTEXTMODE
 70
     0
  9
$MIRRTEXT
 70
     1
  9
$LTSCALE
 40
1.0
  9
$ATTMODE
 70
     1
  9
$TEXTSIZE
 40
3.5
  9
$TRACEWID
 40
1.0
  9
$TEXTSTYLE
  7
Standard
  9
$CLAYER
  8
0
  9
$CELTYPE
  6
ByLayer
  9
$CECOLOR
 62
   256
  9
$CELTSCALE
 40
1.0
  9
$DISPSILH
 70
     0
  9
$DIMSCALE
 40
1.0
  9
$DIMASZ
 40
4.08
  9
$DIMEXO
 40
0.0
  9
$DIMDLI
 40
3.75
  9
$DIMRND
 40
0.0
  9
$DIMDLE
 40
0.0
  9
$DIMEXE
 40
2.0
  9
$DIMTP
 40
0.0
  9
$DIMTM
 40
0.0
  9
$DIMTXT
 40
3.5
  9
$DIMCEN
 40
2.5
  9
$DIMTSZ
 40
0.0
  9
$DIMTOL
 70
     0
  9
$DIMLIM
 70
     0
  9
$DIMTIH
 70
     1
  9
$DIMTOH
 70
     1
  9
$DIMSE1
 70
     0
  9
$DIMSE2
 70
     0
  9
$DIMTAD
 70
     1
  9
$DIMZIN
 70
     0
  9
$DIMBLK
  1

  9
$DIMASO
 70
     1
  9
$DIMSHO
 70
     1
  9
$DIMPOST
  1

  9
$DIMAPOST
  1

  9
$DIMALT
 70
     0
  9
$DIMALTD
 70
     3
  9
$DIMALTF
 40
0.0393700787
  9
$DIMLFAC
 40
2.0
  9
$DIMTOFL
 70
     1
  9
$DIMTVP
 40
0.0
  9
$DIMTIX
 70
     0
  9
$DIMSOXD
 70
     0
  9
$DIMSAH
 70
     0
  9
$DIMBLK1
  1

  9
$DIMBLK2
  1

  9
$DIMSTYLE
  2
ISO-25
  9
$DIMCLRD
 70
     0
  9
$DIMCLRE
 70
     0
  9
$DIMCLRT
 70
     0
  9
$DIMTFAC
 40
1.0
  9
$DIMGAP
 40
1.524
  9
$DIMJUST
 70
     0
  9
$DIMSD1
 70
     0
  9
$DIMSD2
 70
     0
  9
$DIMTOLJ
 70
     0
  9
$DIMTZIN
 70
     0
  9
$DIMALTZ
 70
     0
  9
$DIMALTTZ
 70
     0
  9
$DIMUPT
 70
     0
  9
$DIMDEC
 70
     2
  9
$DIMTDEC
 70
     2
  9
$DIMALTU
 70
     2
  9
$DIMALTTD
 70
     3
  9
$DIMTXSTY
  7
Standard
  9
$DIMAUNIT
 70
     0
  9
$DIMADEC
 70
     2
  9
$DIMALTRND
 40
0.0
  9
$DIMAZIN
 70
     0
  9
$DIMDSEP
 70
    44
  9
$DIMATFIT
 70
     3
  9
$DIMFRAC
 70
     0
  9
$DIMLDRBLK
  1

  9
$DIMLUNIT
 70
     2
  9
$DIMLWD
 70
    -2
  9
$DIMLWE
 70
    -2
  9
$DIMTMOVE
 70
     0
  9
$LUNITS
 70
     2
  9
$LUPREC
 70
     2
  9
$SKETCHINC
 40
1.0
  9
$FILLETRAD
 40
0.0
  9
$AUNITS
 70
     0
  9
$AUPREC
 70
     2
  9
$MENU
  1
.
  9
$ELEVATION
 40
0.0
  9
$PELEVATION
 40
0.0
  9
$THICKNESS
 40
0.0
  9
$LIMCHECK
 70
     0
  9
$CHAMFERA
 40
0.0
  9
$CHAMFERB
 40
0.0
  9
$CHAMFERC
 40
0.0
  9
$CHAMFERD
 40
0.0
  9
$SKPOLY
 70
     0
  9
$TDCREATE
 40
2461215.573381933
  9
$TDUCREATE
 40
2461215.2400486
  9
$TDUPDATE
 40
2461215.573382234
  9
$TDUUPDATE
 40
2461215.2400489
  9
$TDINDWG
 40
0.0000000116
  9
$TDUSRTIMER
 40
0.0000000116
  9
$USRTIMER
 70
     1
  9
$ANGBASE
 50
0.0
  9
$ANGDIR
 70
     0
  9
$PDMODE
 70
     0
  9
$PDSIZE
 40
-1.0
  9
$PLINEWID
 40
0.0
  9
$SPLFRAME
 70
     0
  9
$SPLINETYPE
 70
     6
  9
$SPLINESEGS
 70
     8
  9
$HANDSEED
  5
111
  9
$SURFTAB1
 70
     6
  9
$SURFTAB2
 70
     6
  9
$SURFTYPE
 70
     6
  9
$SURFU
 70
     6
  9
$SURFV
 70
     6
  9
$UCSBASE
  2

  9
$UCSNAME
  2

  9
$UCSORG
 10
0.0
 20
0.0
 30
0.0
  9
$UCSXDIR
 10
1.0
 20
0.0
 30
0.0
  9
$UCSYDIR
 10
0.0
 20
1.0
 30
0.0
  9
$UCSORTHOREF
  2

  9
$UCSORTHOVIEW
 70
     0
  9
$UCSORGTOP
 10
0.0
 20
0.0
 30
0.0
  9
$UCSORGBOTTOM
 10
0.0
 20
0.0
 30
0.0
  9
$UCSORGLEFT
 10
0.0
 20
0.0
 30
0.0
  9
$UCSORGRIGHT
 10
0.0
 20
0.0
 30
0.0
  9
$UCSORGFRONT
 10
0.0
 20
0.0
 30
0.0
  9
$UCSORGBACK
 10
0.0
 20
0.0
 30
0.0
  9
$PUCSBASE
  2

  9
$PUCSNAME
  2

  9
$PUCSORG
 10
0.0
 20
0.0
 30
0.0
  9
$PUCSXDIR
 10
1.0
 20
0.0
 30
0.0
  9
$PUCSYDIR
 10
0.0
 20
1.0
 30
0.0
  9
$PUCSORTHOREF
  2

  9
$PUCSORTHOVIEW
 70
     0
  9
$PUCSORGTOP
 10
0.0
 20
0.0
 30
0.0
  9
$PUCSORGBOTTOM
 10
0.0
 20
0.0
 30
0.0
  9
$PUCSORGLEFT
 10
0.0
 20
0.0
 30
0.0
  9
$PUCSORGRIGHT
 10
0.0
 20
0.0
 30
0.0
  9
$PUCSORGFRONT
 10
0.0
 20
0.0
 30
0.0
  9
$PUCSORGBACK
 10
0.0
 20
0.0
 30
0.0
  9
$USERI1
 70
     0
  9
$USERI2
 70
     0
  9
$USERI3
 70
     0
  9
$USERI4
 70
     0
  9
$USERI5
 70
     0
  9
$USERR1
 40
0.0
  9
$USERR2
 40
0.0
  9
$USERR3
 40
0.0
  9
$USERR4
 40
0.0
  9
$USERR5
 40
0.0
  9
$WORLDVIEW
 70
     1
  9
$SHADEDGE
 70
     3
  9
$SHADEDIF
 70
    70
  9
$TILEMODE
 70
     1
  9
$MAXACTVP
 70
    64
  9
$PINSBASE
 10
0.0
 20
0.0
 30
0.0
  9
$PLIMCHECK
 70
     0
  9
$PEXTMIN
 10
1.0000000000E+20
 20
1.0000000000E+20
 30
1.0000000000E+20
  9
$PEXTMAX
 10
-1.0000000000E+20
 20
-1.0000000000E+20
 30
-1.0000000000E+20
  9
$PLIMMIN
 10
0.0
 20
0.0
  9
$PLIMMAX
 10
420.0
 20
297.0
  9
$UNITMODE
 70
     0
  9
$VISRETAIN
 70
     1
  9
$PLINEGEN
 70
     0
  9
$PSLTSCALE
 70
     1
  9
$TREEDEPTH
 70
  3020
  9
$CMLSTYLE
  2
Standard
  9
$CMLJUST
 70
     0
  9
$CMLSCALE
 40
20.0
  9
$PROXYGRAPHICS
 70
     1
  9
$MEASUREMENT
 70
     1
  9
$CELWEIGHT
370
    -1
  9
$ENDCAPS
280
     0
  9
$JOINSTYLE
280
     0
  9
$LWDISPLAY
290
     1
  9
$INSUNITS
 70
     4
  9
$HYPERLINKBASE
  1

  9
$STYLESHEET
  1

  9
$XEDIT
290
     1
  9
$CEPSNTYPE
380
     0
  9
$PSTYLEMODE
290
     1
  9
$FINGERPRINTGUID
  2
{56234a21-4244-4da1-8c9f-b7e4e8a75272}
  9
$VERSIONGUID
  2
{FAEB1C32-E019-11D5-929B-00C0DF256EC4}
  9
$EXTNAMES
290
     1
  9
$PSVPSCALE
 40
0.0
  9
$OLESTARTUP
290
     0
  0
ENDSEC
  0
SECTION
  2
CLASSES
  0
CLASS
  1
ACDBDICTIONARYWDFLT
  2
AcDbDictionaryWithDefault
  3
ObjectDBX Classes
 90
        0
280
     0
281
     0
  0
CLASS
  1
VISUALSTYLE
  2
AcDbVisualStyle
  3
ObjectDBX Classes
 90
     4095
280
     0
281
     0
  0
CLASS
  1
MATERIAL
  2
AcDbMaterial
  3
ObjectDBX Classes
 90
     1153
280
     0
281
     0
  0
CLASS
  1
SCALE
  2
AcDbScale
  3
ObjectDBX Classes
 90
     1153
280
     0
281
     0
  0
CLASS
  1
TABLESTYLE
  2
AcDbTableStyle
  3
ObjectDBX Classes
 90
     4095
280
     0
281
     0
  0
CLASS
  1
MLEADERSTYLE
  2
AcDbMLeaderStyle
  3
ACDB_MLEADERSTYLE_CLASS
 90
     4095
280
     0
281
     0
  0
CLASS
  1
SUN
  2
AcDbSun
  3
SCENEOE
 90
     1153
280
     0
281
     0
  0
CLASS
  1
ACDBPLACEHOLDER
  2
AcDbPlaceHolder
  3
ObjectDBX Classes
 90
        0
280
     0
281
     0
  0
CLASS
  1
LAYOUT
  2
AcDbLayout
  3
ObjectDBX Classes
 90
        0
280
     0
281
     0
  0
ENDSEC
  0
SECTION
  2
TABLES
  0
TABLE
  2
VPORT
  5
8
330
0
100
AcDbSymbolTable
 70
     1
  0
VPORT
  5
29
330
8
100
AcDbSymbolTableRecord
100
AcDbViewportTableRecord
  2
*Active
 70
     0
 10
0.0
 20
0.0
 11
1.0
 21
1.0
 12
148.5
 22
105.0
 13
0.0
 23
0.0
 14
10.0
 24
10.0
 15
10.0
 25
10.0
 16
0.0
 26
0.0
 36
1.0
 17
0.0
 27
0.0
 37
0.0
 40
210.0
 41
1.4142857143
 42
50.0
 43
0.0
 44
0.0
 50
0.0
 51
0.0
 71
     0
 72
  2000
 73
     1
 74
     3
 75
     0
 76
     0
 77
     0
 78
     0
281
     0
 65
     1
110
0.0
120
0.0
130
0.0
111
1.0
121
0.0
131
0.0
112
0.0
122
1.0
132
0.0
 79
     0
146
0.0
  0
ENDTAB
  0
TABLE
  2
LTYPE
  5
5
330
0
100
AcDbSymbolTable
 70
     6
  0
LTYPE
  5
14
330
5
100
AcDbSymbolTableRecord
100
AcDbLinetypeTableRecord
  2
ByBlock
 70
     0
  3

 72
    65
 73
     0
 40
0.0
  0
LTYPE
  5
15
330
5
100
AcDbSymbolTableRecord
100
AcDbLinetypeTableRecord
  2
ByLayer
 70
     0
  3

 72
    65
 73
     0
 40
0.0
  0
LTYPE
  5
16
330
5
100
AcDbSymbolTableRecord
100
AcDbLinetypeTableRecord
  2
Continuous
 70
     0
  3
Solid line
 72
    65
 73
     0
 40
0.0
  0
LTYPE
  5
5E
330
5
100
AcDbSymbolTableRecord
100
AcDbLinetypeTableRecord
  2
HIDDEN
 70
     0
  3
Hidden __ __ __ __ __ __ __ __ __ __ __ __ __ __
 72
    65
 73
     2
 40
1.905
 49
1.27
 74
     0
 49
-0.635
 74
     0
  0
LTYPE
  5
5F
330
5
100
AcDbSymbolTableRecord
100
AcDbLinetypeTableRecord
  2
PHANTOM
 70
     0
  3
Phantom ______  __  __  ______  __  __  ______
 72
    65
 73
     6
 40
12.7
 49
6.35
 74
     0
 49
-1.27
 74
     0
 49
1.27
 74
     0
 49
-1.27
 74
     0
 49
1.27
 74
     0
 49
-1.27
 74
     0
  0
LTYPE
  5
60
330
5
100
AcDbSymbolTableRecord
100
AcDbLinetypeTableRecord
  2
CENTER
 70
     0
  3
Center ____ _ ____ _ ____ _ ____ _ ____ _ ____
 72
    65
 73
     4
 40
10.16
 49
6.35
 74
     0
 49
-1.27
 74
     0
 49
1.27
 74
     0
 49
-1.27
 74
     0
  0
LTYPE
  5
61
330
5
100
AcDbSymbolTableRecord
100
AcDbLinetypeTableRecord
  2
CENTERX2
 70
     0
  3
Center (2x) ________  __  ________  __  _____
 72
    65
 73
     4
 40
20.32
 49
12.7
 74
     0
 49
-2.54
 74
     0
 49
2.54
 74
     0
 49
-2.54
 74
     0
  0
LTYPE
  5
62
330
5
100
AcDbSymbolTableRecord
100
AcDbLinetypeTableRecord
  2
DOT2
 70
     0
  3
Dot (.5x) ........................................
 72
    65
 73
     2
 40
0.635
 49
0.0
 74
     0
 49
-0.635
 74
     0
  0
ENDTAB
  0
TABLE
  2
LAYER
  5
2
330
0
100
AcDbSymbolTable
 70
    14
  0
LAYER
  5
10
330
2
100
AcDbSymbolTableRecord
100
AcDbLayerTableRecord
  2
0
 70
     0
 62
     7
  6
Continuous
370
    -3
390
F
  0
LAYER
  5
63
330
2
100
AcDbSymbolTableRecord
100
AcDbLayerTableRecord
  2
SLD-0
 70
     0
 62
     7
  6
Continuous
370
    -3
390
F
  0
LAYER
  5
64
330
2
100
AcDbSymbolTableRecord
100
AcDbLayerTableRecord
  2
5
 70
     0
 62
     7
  6
Continuous
370
    -3
390
F
  0
LAYER
  5
65
330
2
100
AcDbSymbolTableRecord
100
AcDbLayerTableRecord
  2
9
 70
     0
 62
     7
  6
Continuous
370
    -3
390
F
  0
LAYER
  5
66
330
2
100
AcDbSymbolTableRecord
100
AcDbLayerTableRecord
  2
10
 70
     0
 62
     7
  6
Continuous
370
    -3
390
F
  0
LAYER
  5
67
330
2
100
AcDbSymbolTableRecord
100
AcDbLayerTableRecord
  2
轮廓实线层
 70
     0
 62
     7
  6
Continuous
370
    50
390
F
  0
LAYER
  5
68
330
2
100
AcDbSymbolTableRecord
100
AcDbLayerTableRecord
  2
细线层
 70
     0
 62
     4
  6
Continuous
370
    25
390
F
  0
LAYER
  5
69
330
2
100
AcDbSymbolTableRecord
100
AcDbLayerTableRecord
  2
中心线层
 70
     0
 62
     1
  6
CENTERX2
370
    25
390
F
  0
LAYER
  5
6A
330
2
100
AcDbSymbolTableRecord
100
AcDbLayerTableRecord
  2
虚线层
 70
     0
 62
     6
  6
HIDDEN
370
    25
390
F
  0
LAYER
  5
6B
330
2
100
AcDbSymbolTableRecord
100
AcDbLayerTableRecord
  2
剖面线层
 70
     0
 62
     2
  6
Continuous
370
    25
390
F
  0
LAYER
  5
6C
330
2
100
AcDbSymbolTableRecord
100
AcDbLayerTableRecord
  2
文字层
 70
     0
 62
     3
  6
Continuous
370
    25
390
F
  0
LAYER
  5
6D
330
2
100
AcDbSymbolTableRecord
100
AcDbLayerTableRecord
  2
标注层
 70
     0
 62
     4
  6
Continuous
370
    25
390
F
  0
LAYER
  5
6E
330
2
100
AcDbSymbolTableRecord
100
AcDbLayerTableRecord
  2
符号标注层
 70
     0
 62
    31
  6
Continuous
370
    25
390
F
  0
LAYER
  5
6F
330
2
100
AcDbSymbolTableRecord
100
AcDbLayerTableRecord
  2
双点划线层
 70
     0
 62
     6
  6
PHANTOM
370
    25
390
F
  0
ENDTAB
  0
TABLE
  2
STYLE
  5
3
330
0
100
AcDbSymbolTable
 70
     1
  0
STYLE
  5
11
330
3
100
AcDbSymbolTableRecord
100
AcDbTextStyleTableRecord
  2
Standard
 70
     0
 40
0.0
 41
1.0
 50
0.0
 71
     0
 42
3.5
  3
txt
  4

  0
ENDTAB
  0
TABLE
  2
VIEW
  5
6
330
0
100
AcDbSymbolTable
 70
     0
  0
ENDTAB
  0
TABLE
  2
UCS
  5
7
330
0
100
AcDbSymbolTable
 70
     0
  0
ENDTAB
  0
TABLE
  2
APPID
  5
9
330
0
100
AcDbSymbolTable
 70
     1
  0
APPID
  5
12
330
9
100
AcDbSymbolTableRecord
100
AcDbRegAppTableRecord
  2
ACAD
 70
     0
  0
ENDTAB
  0
TABLE
  2
DIMSTYLE
  5
A
330
0
100
AcDbSymbolTable
 70
     1
100
AcDbDimStyleTable
  0
DIMSTYLE
105
27
330
A
100
AcDbSymbolTableRecord
100
AcDbDimStyleTableRecord
  2
ISO-25
 70
     0
 41
2.5
 42
0.625
 43
3.75
 44
1.25
 73
     0
 74
     0
 77
     1
 78
     8
140
2.5
141
2.5
143
0.0393700787
147
0.625
171
     3
172
     1
178
     0
271
     2
272
     2
274
     3
278
    44
283
     0
284
     8
340
11
  0
ENDTAB
  0
TABLE
  2
BLOCK_RECORD
  5
1
330
0
100
AcDbSymbolTable
 70
     3
  0
BLOCK_RECORD
  5
1F
330
1
100
AcDbSymbolTableRecord
100
AcDbBlockTableRecord
  2
*Model_Space
340
22
  0
BLOCK_RECORD
  5
1B
330
1
100
AcDbSymbolTableRecord
100
AcDbBlockTableRecord
  2
*Paper_Space
340
1E
  0
BLOCK_RECORD
  5
23
330
1
100
AcDbSymbolTableRecord
100
AcDbBlockTableRecord
  2
*Paper_Space0
340
26
  0
BLOCK_RECORD
  5
C4
330
1
100
AcDbSymbolTableRecord
100
AcDbBlockTableRecord
  2
SW_CENTERMARKSYMBOL_0
340
0
102
{BLKREFS
331
CF
102
}
  0
BLOCK_RECORD
  5
D0
330
1
100
AcDbSymbolTableRecord
100
AcDbBlockTableRecord
  2
SW_CENTERMARKSYMBOL_1
340
0
102
{BLKREFS
331
DB
102
}
  0
ENDTAB
  0
ENDSEC
  0
SECTION
  2
BLOCKS
  0
BLOCK
  5
20
330
1F
100
AcDbEntity
  8
0
100
AcDbBlockBegin
  2
*Model_Space
 70
     0
 10
0.0
 20
0.0
 30
0.0
  3
*Model_Space
  1

  0
ENDBLK
  5
21
330
1F
100
AcDbEntity
  8
0
100
AcDbBlockEnd
  0
BLOCK
  5
1C
330
1B
100
AcDbEntity
 67
     1
  8
0
100
AcDbBlockBegin
  2
*Paper_Space
 70
     0
 10
0.0
 20
0.0
 30
0.0
  3
*Paper_Space
  1

  0
ENDBLK
  5
1D
330
1B
100
AcDbEntity
 67
     1
  8
0
100
AcDbBlockEnd
  0
BLOCK
  5
24
330
23
100
AcDbEntity
  8
0
100
AcDbBlockBegin
  2
*Paper_Space0
 70
     0
 10
0.0
 20
0.0
 30
0.0
  3
*Paper_Space0
  1

  0
ENDBLK
  5
25
330
23
100
AcDbEntity
  8
0
100
AcDbBlockEnd
  0
BLOCK
  5
C5
330
C4
100
AcDbEntity
  8
0
100
AcDbBlockBegin
  2
SW_CENTERMARKSYMBOL_0
 70
     0
 10
0.0
 20
0.0
 30
0.0
  3
SW_CENTERMARKSYMBOL_0
  1

  0
LINE
  5
C7
330
C4
100
AcDbEntity
  8
10
 62
     0
100
AcDbLine
 10
0.0
 20
0.0
 30
0.0
 11
0.0
 21
2.5
 31
0.0
  0
LINE
  5
C8
330
C4
100
AcDbEntity
  8
10
 62
     0
100
AcDbLine
 10
0.0
 20
0.0
 30
0.0
 11
-2.5
 21
0.0
 31
0.0
  0
LINE
  5
C9
330
C4
100
AcDbEntity
  8
10
 62
     0
100
AcDbLine
 10
0.0
 20
0.0
 30
0.0
 11
0.0
 21
-2.5
 31
0.0
  0
LINE
  5
CA
330
C4
100
AcDbEntity
  8
10
 62
     0
100
AcDbLine
 10
0.0
 20
0.0
 30
0.0
 11
2.5
 21
0.0
 31
0.0
  0
LINE
  5
CB
330
C4
100
AcDbEntity
  8
10
 62
     0
100
AcDbLine
 10
0.0
 20
5.0
 30
0.0
 11
0.0
 21
5.4081620674
 31
0.0
  0
LINE
  5
CC
330
C4
100
AcDbEntity
  8
10
 62
     0
100
AcDbLine
 10
-5.0
 20
0.0
 30
0.0
 11
-5.4081620674
 21
0.0
 31
0.0
  0
LINE
  5
CD
330
C4
100
AcDbEntity
  8
10
 62
     0
100
AcDbLine
 10
0.0
 20
-5.0
 30
0.0
 11
0.0
 21
-5.4081620674
 31
0.0
  0
LINE
  5
CE
330
C4
100
AcDbEntity
  8
10
 62
     0
100
AcDbLine
 10
5.0
 20
0.0
 30
0.0
 11
5.4081620674
 21
0.0
 31
0.0
  0
ENDBLK
  5
C6
330
C4
100
AcDbEntity
  8
0
100
AcDbBlockEnd
  0
BLOCK
  5
D1
330
D0
100
AcDbEntity
  8
0
100
AcDbBlockBegin
  2
SW_CENTERMARKSYMBOL_1
 70
     0
 10
0.0
 20
0.0
 30
0.0
  3
SW_CENTERMARKSYMBOL_1
  1

  0
LINE
  5
D3
330
D0
100
AcDbEntity
  8
10
 62
     0
100
AcDbLine
 10
0.0
 20
0.0
 30
0.0
 11
0.0
 21
2.5
 31
0.0
  0
LINE
  5
D4
330
D0
100
AcDbEntity
  8
10
 62
     0
100
AcDbLine
 10
0.0
 20
0.0
 30
0.0
 11
-2.5
 21
0.0
 31
0.0
  0
LINE
  5
D5
330
D0
100
AcDbEntity
  8
10
 62
     0
100
AcDbLine
 10
0.0
 20
0.0
 30
0.0
 11
0.0
 21
-2.5
 31
0.0
  0
LINE
  5
D6
330
D0
100
AcDbEntity
  8
10
 62
     0
100
AcDbLine
 10
0.0
 20
0.0
 30
0.0
 11
2.5
 21
0.0
 31
0.0
  0
LINE
  5
D7
330
D0
100
AcDbEntity
  8
10
 62
     0
100
AcDbLine
 10
0.0
 20
2.5
 30
0.0
 11
0.0
 21
4.9050629381
 31
0.0
  0
LINE
  5
D8
330
D0
100
AcDbEntity
  8
10
 62
     0
100
AcDbLine
 10
-2.5
 20
0.0
 30
0.0
 11
-4.9050629381
 21
0.0
 31
0.0
  0
LINE
  5
D9
330
D0
100
AcDbEntity
  8
10
 62
     0
100
AcDbLine
 10
0.0
 20
-2.5
 30
0.0
 11
0.0
 21
-4.9050629381
 31
0.0
  0
LINE
  5
DA
330
D0
100
AcDbEntity
  8
10
 62
     0
100
AcDbLine
 10
2.5
 20
0.0
 30
0.0
 11
4.9050629381
 21
0.0
 31
0.0
  0
ENDBLK
  5
D2
330
D0
100
AcDbEntity
  8
0
100
AcDbBlockEnd
  0
ENDSEC
  0
SECTION
  2
ENTITIES
  0
LINE
  5
70
330
1F
100
AcDbEntity
  8
0
  6
Continuous
 62
     7
370
    25
100
AcDbLine
 10
33.0000000285
 20
37.6242317353
 30
0.0
 11
132.9999998602
 21
37.6242308548
 31
0.0
  0
SPLINE
  5
71
330
1F
100
AcDbEntity
  8
0
  6
Continuous
 62
     7
370
    25
100
AcDbSpline
210
0.0
220
0.0
230
1.0
 70
     8
 71
     3
 72
    20
 73
    16
 74
     0
 42
0.00000001
 43
0.00000001
 40
0.0
 40
0.0
 40
0.0
 40
0.0
 40
0.2500000000000012
 40
0.2500000000000012
 40
0.3750000000000017
 40
0.3750000000000017
 40
0.4375000000000015
 40
0.4375000000000015
 40
0.5000000000000012
 40
0.5000000000000012
 40
0.7500000000000002
 40
0.7500000000000002
 40
0.8750000000000002
 40
0.8750000000000002
 40
1.0
 40
1.0
 40
1.0
 40
1.0
 10
33.00000002196002
 20
37.64005719888536
 30
0.0
 10
34.78204109744345
 20
37.63968914450292
 30
0.0
 10
36.53424127707682
 20
37.64275761491278
 30
0.0
 10
39.11951524642807
 20
37.65898975804825
 30
0.0
 10
39.97404200758024
 20
37.66649140715869
 30
0.0
 10
41.24465663158088
 20
37.68318339393714
 30
0.0
 10
41.66706683883306
 20
37.68968497505668
 30
0.0
 10
42.49843274717579
 20
37.70485627686246
 30
0.0
 10
42.90850379299689
 20
37.71353700522629
 30
0.0
 10
44.93126794487193
 20
37.76361947816244
 30
0.0
 10
46.46206717529253
 20
37.82431533157066
 30
0.0
 10
48.6253107020836
 20
37.97760236257851
 30
0.0
 10
49.32575243405818
 20
38.03953487153
 30
0.0
 10
50.65627641155073
 20
38.18881175613209
 30
0.0
 10
51.28936776034149
 20
38.27628763547583
 30
0.0
 10
51.89008059813619
 20
38.37981825515983
 30
0.0
  0
ELLIPSE
  5
72
330
1F
100
AcDbEntity
  8
0
  6
Continuous
 62
     7
370
    25
100
AcDbEllipse
 10
43.8022197033
 20
98.3702969098
 30
0.0
 11
-7.422821397540249E-7
 21
60.74606526960174
 31
0.0
210
0.0
220
0.0
230
1.0
 40
0.8467830384
 41
3.29948069130102
 42
4.252003139403109
  0
LINE
  5
73
330
1F
100
AcDbEntity
  8
0
  6
Continuous
 62
     7
370
    25
100
AcDbLine
 10
132.9999998602
 20
71.3811971318
 30
0.0
 11
89.8852149109
 21
71.3811968197
 31
0.0
  0
LINE
  5
74
330
1F
100
AcDbEntity
  8
0
  6
Continuous
 62
     7
370
    25
100
AcDbLine
 10
132.9999998602
 20
37.6242308548
 30
0.0
 11
132.9999998602
 21
71.3811971318
 31
0.0
  0
LINE
  5
75
330
1F
100
AcDbEntity
  8
0
  6
Continuous
 62
     7
370
    25
100
AcDbLine
 10
33.0000000285
 20
37.6242317353
 30
0.0
 11
33.0000000252
 21
37.6400571989
 31
0.0
  0
LINE
  5
76
330
1F
100
AcDbEntity
  8
0
  6
Continuous
 62
     7
370
    25
100
AcDbLine
 10
83.200162847
 20
77.8067499206
 30
0.0
 11
89.8852149109
 21
71.3811968197
 31
0.0
  0
LINE
  5
77
330
1F
100
AcDbEntity
  8
0
  6
Continuous
 62
     7
370
    25
100
AcDbLine
 10
83.200162847
 20
77.8067499206
 30
0.0
 11
132.9999998598
 21
77.8071311984
 31
0.0
  0
LINE
  5
78
330
1F
100
AcDbEntity
  8
0
  6
Continuous
 62
     7
370
    25
100
AcDbLine
 10
130.4683568687
 20
76.1513180895
 30
0.0
 11
91.5572913237
 21
76.1512080248
 31
0.0
  0
LINE
  5
79
330
1F
100
AcDbEntity
  8
0
  6
Continuous
 62
     7
370
    25
100
AcDbLine
 10
91.5572913237
 20
76.1512080248
 30
0.0
 11
94.8132573797
 21
73.0216333703
 31
0.0
  0
LINE
  5
7A
330
1F
100
AcDbEntity
  8
0
  6
Continuous
 62
     7
370
    25
100
AcDbLine
 10
130.4683568687
 20
73.0216339105
 30
0.0
 11
94.8132573797
 21
73.0216333703
 31
0.0
  0
LINE
  5
7B
330
1F
100
AcDbEntity
  8
0
  6
Continuous
 62
     7
370
    25
100
AcDbLine
 10
130.4683568687
 20
73.0216339105
 30
0.0
 11
130.4683568687
 21
76.1513180895
 31
0.0
  0
LINE
  5
7C
330
1F
100
AcDbEntity
  8
0
  6
Continuous
 62
     7
370
    25
100
AcDbLine
 10
132.9999998598
 20
77.8071311984
 30
0.0
 11
132.9999998602
 21
71.3811971318
 31
0.0
  0
ELLIPSE
  5
7D
330
1F
100
AcDbEntity
  8
0
  6
Continuous
 62
     7
370
    25
100
AcDbEllipse
 10
43.7595373658
 20
143.2194713861
 30
0.0
 11
-0.09950156845881965
 21
80.28105067209731
 31
0.0
210
0.0
220
0.0
230
1.0
 40
0.8469131749
 41
3.259544125094755
 42
3.758961873693508
  0
LWPOLYLINE
  5
7E
330
1F
100
AcDbEntity
  8
0
  6
Continuous
 62
     7
370
    25
100
AcDbPolyline
 90
        3
 70
   128
 43
0.0
 10
51.8594127601
 20
63.5061472449
 10
51.8765781529
 20
49.2978771653
 10
51.8900805944
 20
38.3798183026
  0
SPLINE
  5
7F
330
1F
100
AcDbEntity
  8
0
  6
Continuous
 62
     7
370
    25
100
AcDbSpline
210
0.0
220
0.0
230
1.0
 70
     8
 71
     3
 72
    20
 73
    16
 74
     0
 42
0.00000001
 43
0.00000001
 40
0.0
 40
0.0
 40
0.0
 40
0.0
 40
0.2499999999999991
 40
0.2499999999999991
 40
0.3749999999999986
 40
0.3749999999999986
 40
0.4374999999999983
 40
0.4374999999999983
 40
0.499999999999998
 40
0.499999999999998
 40
0.7499999999999984
 40
0.7499999999999984
 40
0.8749999999999992
 40
0.8749999999999992
 40
1.0
 40
1.0
 40
1.0
 40
1.0
 10
51.85941276007431
 20
63.50614724489653
 30
0.0
 10
50.6552969938318
 20
63.35092691796189
 30
0.0
 10
49.33605074208424
 20
63.24472884914438
 30
0.0
 10
47.19106110960607
 20
63.12968041609827
 30
0.0
 10
46.44815873316877
 20
63.09883020272637
 30
0.0
 10
45.29075792113826
 20
63.06102256272391
 30
0.0
 10
44.89713624035202
 20
63.04982840251908
 30
0.0
 10
44.10456592502135
 20
63.03006601608845
 30
0.0
 10
43.70457895778104
 20
63.02145872239587
 30
0.0
 10
41.68646368362931
 20
62.98360525876449
 30
0.0
 10
40.01437887767818
 20
62.96932772961905
 30
0.0
 10
37.41900224202479
 20
62.95674189354389
 30
0.0
 10
36.53717118002226
 20
62.95413587582109
 30
0.0
 10
34.77366093170166
 20
62.95089879397884
 30
0.0
 10
33.88853273379934
 20
62.95024513915544
 30
0.0
 10
32.99999997152991
 20
62.95036648257973
 30
0.0
  0
LINE
  5
80
330
1F
100
AcDbEntity
  8
0
  6
Continuous
 62
     7
370
    25
100
AcDbLine
 10
33.0000000252
 20
37.6400571989
 30
0.0
 11
33.0
 21
62.950365878
 31
0.0
  0
LINE
  5
81
330
1F
100
AcDbEntity
  8
0
  6
HIDDEN
 62
     7
370
    18
100
AcDbLine
 10
132.9999998602
 20
37.6770081129
 30
0.0
 11
33.0000000285
 21
37.6770089623
 31
0.0
  0
LINE
  5
82
330
1F
100
AcDbEntity
  8
0
  6
HIDDEN
 62
     7
370
    18
100
AcDbLine
 10
120.3417728309
 20
40.1558766349
 30
0.0
 11
50.4369478061
 21
40.1558766349
 31
0.0
  0
LINE
  5
83
330
1F
100
AcDbEntity
  8
0
  6
HIDDEN
 62
     7
370
    18
100
AcDbLine
 10
130.4683568687
 20
40.1558766349
 30
0.0
 11
120.3417728309
 21
40.1558766349
 31
0.0
  0
ELLIPSE
  5
84
330
1F
100
AcDbEntity
  8
0
  6
HIDDEN
 62
     7
370
    18
100
AcDbEllipse
 10
50.436948915
 20
98.3702986194
 30
0.0
 11
2.282342300929940E-6
 21
58.21442198443488
 31
0.0
210
0.0
220
0.0
230
1.0
 40
0.8467829793
 41
3.14159267739472
 42
4.261866270916688
  0
LINE
  5
85
330
1F
100
AcDbEntity
  8
0
  6
HIDDEN
 62
     7
370
    18
100
AcDbLine
 10
130.4683568687
 20
40.1558766349
 30
0.0
 11
130.4683568687
 21
73.0216339105
 31
0.0
  0
LINE
  5
86
330
1F
100
AcDbEntity
  8
0
  6
HIDDEN
 62
     7
370
    18
100
AcDbLine
 10
120.3417728307
 20
60.4091148791
 30
0.0
 11
130.4683568687
 21
60.4091379986
 31
0.0
  0
LINE
  5
87
330
1F
100
AcDbEntity
  8
0
  6
HIDDEN
 62
     7
370
    18
100
AcDbLine
 10
51.1695319551
 20
60.4090390519
 30
0.0
 11
120.3417728308
 21
60.4090390519
 31
0.0
  0
LINE
  5
88
330
1F
100
AcDbEntity
  8
0
  6
HIDDEN
 62
     7
370
    18
100
AcDbLine
 10
50.4369481919
 20
60.4089549995
 30
0.0
 11
51.1695319553
 21
60.4089566715
 31
0.0
  0
ELLIPSE
  5
89
330
1F
100
AcDbEntity
  8
0
  6
HIDDEN
 62
     7
370
    18
100
AcDbEllipse
 10
50.4301212008
 20
143.1829849422
 30
0.0
 11
-0.02014392213292382
 21
82.77402819570374
 31
0.0
210
0.0
220
0.0
230
1.0
 40
0.8468028525
 41
3.141402664904611
 42
3.768343594929995
  0
LINE
  5
8A
330
1F
100
AcDbEntity
  8
0
  6
HIDDEN
 62
     7
370
    18
100
AcDbLine
 10
132.9999998602
 20
62.9807477072
 30
0.0
 11
33.0000000285
 21
62.9774673859
 31
0.0
  0
LINE
  5
8B
330
1F
100
AcDbEntity
  8
0
  6
HIDDEN
 62
     7
370
    18
100
AcDbLine
 10
33.0000000285
 20
62.9774673859
 30
0.0
 11
33.0000000285
 21
62.950365878
 31
0.0
  0
LINE
  5
8C
330
1F
100
AcDbEntity
  8
0
  6
HIDDEN
 62
     7
370
    18
100
AcDbLine
 10
48.959604948
 20
60.4090390519
 30
0.0
 11
50.4369481919
 21
60.4090390519
 31
0.0
  0
LINE
  5
8D
330
1F
100
AcDbEntity
  8
0
  6
HIDDEN
 62
     7
370
    18
100
AcDbLine
 10
120.3417728309
 20
40.1558766349
 30
0.0
 11
120.3417728309
 21
60.4090332534
 31
0.0
  0
LINE
  5
8E
330
1F
100
AcDbEntity
  8
0
  6
HIDDEN
 62
     7
370
    18
100
AcDbLine
 10
50.4369478061
 20
40.1558766349
 30
0.0
 11
48.959604948
 21
40.1558766349
 31
0.0
  0
LINE
  5
8F
330
1F
100
AcDbEntity
  8
0
  6
HIDDEN
 62
     7
370
    18
100
AcDbLine
 10
48.959604948
 20
40.1558766349
 30
0.0
 11
48.959604948
 21
60.4090390519
 31
0.0
  0
LINE
  5
90
330
1F
100
AcDbEntity
  8
0
  6
HIDDEN
 62
     7
370
    18
100
AcDbLine
 10
132.9999999243
 20
45.2191679748
 30
0.0
 11
121.6075943907
 21
45.2191679748
 31
0.0
  0
LINE
  5
91
330
1F
100
AcDbEntity
  8
0
  6
HIDDEN
 62
     7
370
    18
100
AcDbLine
 10
121.6075943907
 20
45.2191679748
 30
0.0
 11
121.6075944664
 21
54.1327033478
 31
0.0
  0
LINE
  5
92
330
1F
100
AcDbEntity
  8
0
  6
HIDDEN
 62
     7
370
    18
100
AcDbLine
 10
44.975831443
 20
45.2191679748
 30
0.0
 11
33.0000000285
 21
45.2191679748
 31
0.0
  0
LINE
  5
93
330
1F
100
AcDbEntity
  8
0
  6
HIDDEN
 62
     7
370
    18
100
AcDbLine
 10
44.975831443
 20
54.0799270462
 30
0.0
 11
44.975831443
 21
45.2191679748
 31
0.0
  0
LINE
  5
94
330
1F
100
AcDbEntity
  8
0
  6
HIDDEN
 62
     7
370
    18
100
AcDbLine
 10
33.0000000285
 20
54.0799270462
 30
0.0
 11
44.975831443
 21
54.0799270462
 31
0.0
  0
LINE
  5
95
330
1F
100
AcDbEntity
  8
0
  6
HIDDEN
 62
     7
370
    18
100
AcDbLine
 10
121.6075944664
 20
54.1327033478
 30
0.0
 11
133.0
 21
54.132703251
 31
0.0
  0
LINE
  5
96
330
1F
100
AcDbEntity
  8
0
  6
HIDDEN
 62
     7
370
    18
100
AcDbLine
 10
33.0000000285
 20
62.9380858056
 30
0.0
 11
132.9999998602
 21
62.9407678261
 31
0.0
  0
LINE
  5
97
330
1F
100
AcDbEntity
  8
0
  6
HIDDEN
 62
     7
370
    18
100
AcDbLine
 10
130.0853749612
 20
45.2191679748
 30
0.0
 11
130.0853749612
 21
54.0799270462
 31
0.0
  0
LINE
  5
98
330
1F
100
AcDbEntity
  8
0
  6
HIDDEN
 62
     7
370
    18
100
AcDbLine
 10
124.2690508265
 20
54.0799270462
 30
0.0
 11
124.2690508265
 21
45.2191679748
 31
0.0
  0
LINE
  5
99
330
1F
100
AcDbEntity
  8
0
  6
HIDDEN
 62
     7
370
    18
100
AcDbLine
 10
130.0853751006
 20
54.0799270462
 30
0.0
 11
130.085375101
 21
54.1327032758
 31
0.0
  0
LINE
  5
9A
330
1F
100
AcDbEntity
  8
0
  6
HIDDEN
 62
     7
370
    18
100
AcDbLine
 10
124.2690509663
 20
54.1327033252
 30
0.0
 11
124.2690509658
 21
54.0799270462
 31
0.0
  0
LINE
  5
9B
330
1F
100
AcDbEntity
  8
0
  6
HIDDEN
 62
     7
370
    18
100
AcDbLine
 10
42.3176028869
 20
45.2191679748
 30
0.0
 11
42.3176028869
 21
54.0799270462
 31
0.0
  0
LINE
  5
9C
330
1F
100
AcDbEntity
  8
0
  6
HIDDEN
 62
     7
370
    18
100
AcDbLine
 10
37.5074770108
 20
54.0799270462
 30
0.0
 11
37.5074770108
 21
45.2191679748
 31
0.0
  0
LINE
  5
9D
330
1F
100
AcDbEntity
  8
0
  6
Continuous
 62
     7
370
    25
100
AcDbLine
 10
132.9999998602
 20
179.5946529641
 30
0.0
 11
33.0000000285
 21
179.5946529641
 31
0.0
  0
LINE
  5
9E
330
1F
100
AcDbEntity
  8
0
  6
Continuous
 62
     7
370
    25
100
AcDbLine
 10
83.200162847
 20
130.5363989228
 30
0.0
 11
132.9999998598
 21
130.5368655945
 31
0.0
  0
LINE
  5
9F
330
1F
100
AcDbEntity
  8
0
  6
Continuous
 62
     7
370
    25
100
AcDbLine
 10
51.8594127601
 20
167.5479447774
 30
0.0
 11
83.2001641311
 21
130.5363961654
 31
0.0
  0
SPLINE
  5
A0
330
1F
100
AcDbEntity
  8
0
  6
Continuous
 62
     7
370
    25
100
AcDbSpline
210
0.0
220
0.0
230
1.0
 70
     8
 71
     3
 72
    20
 73
    16
 74
     0
 42
0.00000001
 43
0.00000001
 40
0.0
 40
0.0
 40
0.0
 40
0.0
 40
0.2499999999999991
 40
0.2499999999999991
 40
0.3749999999999986
 40
0.3749999999999986
 40
0.4374999999999983
 40
0.4374999999999983
 40
0.499999999999998
 40
0.499999999999998
 40
0.7499999999999984
 40
0.7499999999999984
 40
0.8749999999999992
 40
0.8749999999999992
 40
1.0
 40
1.0
 40
1.0
 40
1.0
 10
51.85941276007431
 20
167.5479447773963
 30
0.0
 10
50.6552969938318
 20
168.8462699529727
 30
0.0
 10
49.33605074208424
 20
169.9993334767456
 30
0.0
 10
47.19106110960607
 20
171.5170277231266
 30
0.0
 10
46.44815873316877
 20
171.9873352086935
 30
0.0
 10
45.29075792113826
 20
172.6376249129025
 30
0.0
 10
44.89713624035202
 20
172.8454126247873
 30
0.0
 10
44.10456592502135
 20
173.2376557607566
 30
0.0
 10
43.70457895778104
 20
173.422738580923
 30
0.0
 10
41.68646368362931
 20
174.2938980456208
 30
0.0
 10
40.01437887767818
 20
174.8189402788773
 30
0.0
 10
37.41900224202479
 20
175.3455212273
 30
0.0
 10
36.53717118002226
 20
175.4770120856196
 30
0.0
 10
34.77366093170166
 20
175.6459584155476
 30
0.0
 10
33.88853273379934
 20
175.684341643429
 30
0.0
 10
32.99999997152991
 20
175.6761999058299
 30
0.0
  0
LWPOLYLINE
  5
A1
330
1F
100
AcDbEntity
  8
0
  6
Continuous
 62
     7
370
    25
100
AcDbPolyline
 90
        9
 70
   128
 43
0.0
 10
33.0000000285
 20
179.5946529641
 10
33.0000000285
 20
179.1049824978
 10
33.0000000285
 20
178.6152366583
 10
33.0000000285
 20
178.1254336777
 10
33.0000000285
 20
177.6355917904
 10
33.0000000285
 20
177.1457292322
 10
33.0000000285
 20
176.6558642396
 10
33.0000000285
 20
176.1660150493
 10
33.0
 20
175.6761998754
  0
LINE
  5
A2
330
1F
100
AcDbEntity
  8
0
  6
Continuous
 62
     7
370
    25
100
AcDbLine
 10
132.9999998598
 20
130.5368655945
 30
0.0
 11
132.9999998602
 21
179.5946529641
 31
0.0
  0
LINE
  5
A3
330
1F
100
AcDbEntity
  8
0
  6
Continuous
 62
     7
370
    25
100
AcDbLine
 10
132.9999998602
 20
122.6417511862
 30
0.0
 11
89.8852149109
 21
122.6417519242
 31
0.0
  0
LINE
  5
A4
330
1F
100
AcDbEntity
  8
0
  6
Continuous
 62
     7
370
    25
100
AcDbLine
 10
83.200162847
 20
130.5363989228
 30
0.0
 11
89.8852149109
 21
122.6417519242
 31
0.0
  0
LINE
  5
A5
330
1F
100
AcDbEntity
  8
0
  6
Continuous
 62
     7
370
    25
100
AcDbLine
 10
130.4683568687
 20
128.5024784899
 30
0.0
 11
91.5572913237
 21
128.5023470458
 31
0.0
  0
LINE
  5
A6
330
1F
100
AcDbEntity
  8
0
  6
Continuous
 62
     7
370
    25
100
AcDbLine
 10
91.5572913237
 20
128.5023470458
 30
0.0
 11
94.8132573797
 21
124.6572460045
 31
0.0
  0
LINE
  5
A7
330
1F
100
AcDbEntity
  8
0
  6
Continuous
 62
     7
370
    25
100
AcDbLine
 10
130.4683568687
 20
124.6572457432
 30
0.0
 11
94.8132573797
 21
124.6572460045
 31
0.0
  0
LINE
  5
A8
330
1F
100
AcDbEntity
  8
0
  6
Continuous
 62
     7
370
    25
100
AcDbLine
 10
130.4683568687
 20
124.6572457432
 30
0.0
 11
130.4683568687
 21
128.5024784899
 31
0.0
  0
LINE
  5
A9
330
1F
100
AcDbEntity
  8
0
  6
Continuous
 62
     7
370
    25
100
AcDbLine
 10
132.9999998598
 20
130.5368655945
 30
0.0
 11
132.9999998602
 21
122.6417511862
 31
0.0
  0
SPLINE
  5
AA
330
1F
100
AcDbEntity
  8
0
  6
Continuous
 62
     7
370
    25
100
AcDbSpline
210
0.0
220
0.0
230
1.0
 70
     8
 71
     3
 72
    16
 73
    12
 74
     0
 42
0.00000001
 43
0.00000001
 40
0.0
 40
0.0
 40
0.0
 40
0.0
 40
0.0922024764256801
 40
0.2079551697479435
 40
0.3237074876111384
 40
0.4362100477531519
 40
0.5487116089532391
 40
0.6645335566461976
 40
0.7803534353531647
 40
0.8897928175529946
 40
0.9999999999999999
 40
0.9999999999999999
 40
0.9999999999999999
 40
0.9999999999999999
 10
35.48226776037146
 20
175.5643908324653
 30
0.0
 10
36.05507326254716
 20
175.5072688005893
 30
0.0
 10
37.34698938080368
 20
175.3784347139614
 30
0.0
 10
39.32782140494082
 20
174.9628586174886
 30
0.0
 10
41.39093102713804
 20
174.3636213824441
 30
0.0
 10
43.37596472158113
 20
173.5946111258682
 30
0.0
 10
45.29091736193696
 20
172.6659194726874
 30
0.0
 10
47.13835315557748
 20
171.5688241261945
 30
0.0
 10
48.86657882673944
 20
170.329231066899
 30
0.0
 10
50.46610968407214
 20
168.9828819868099
 30
0.0
 10
51.41431876570425
 20
168.0032540938383
 30
0.0
 10
51.89008059437368
 20
167.5117279454349
 30
0.0
  0
LINE
  5
AB
330
1F
100
AcDbEntity
  8
0
  6
Continuous
 62
     7
370
    25
100
AcDbLine
 10
126.6708852781
 20
192.2528799934
 30
0.0
 11
132.9999998602
 21
192.2528799934
 31
0.0
  0
LINE
  5
AC
330
1F
100
AcDbEntity
  8
0
  6
Continuous
 62
     7
370
    25
100
AcDbLine
 10
121.6075944664
 20
179.5946529641
 30
0.0
 11
121.6075944664
 21
187.1895891817
 31
0.0
  0
CIRCLE
  5
AD
330
1F
100
AcDbEntity
  8
0
  6
Continuous
 62
     7
370
    25
100
AcDbCircle
 10
127.1772130337
 20
186.6832584867
 30
0.0
 40
2.908162067367002
  0
ARC
  5
AE
330
1F
100
AcDbEntity
  8
0
  6
Continuous
 62
     7
370
    25
100
AcDbCircle
 10
126.6708852781
 20
187.1895891817
 30
0.0
 40
5.063290811735328
100
AcDbArc
 50
90.0
 51
180.0
  0
LINE
  5
AF
330
1F
100
AcDbEntity
  8
0
  6
Continuous
 62
     7
370
    25
100
AcDbLine
 10
132.9999998602
 20
192.2528799934
 30
0.0
 11
133.0
 21
179.5946529641
 31
0.0
  0
LINE
  5
B0
330
1F
100
AcDbEntity
  8
0
  6
Continuous
 62
     7
370
    25
100
AcDbLine
 10
44.975831443
 20
179.5946529641
 30
0.0
 11
44.975831443
 21
188.294958002
 31
0.0
  0
CIRCLE
  5
B1
330
1F
100
AcDbEntity
  8
0
  6
Continuous
 62
     7
370
    25
100
AcDbCircle
 10
39.9125399489
 20
186.6832585119
 30
0.0
 40
2.405062938050378
  0
ARC
  5
B2
330
1F
100
AcDbEntity
  8
0
  6
Continuous
 62
     7
370
    25
100
AcDbCircle
 10
39.9125406313
 20
188.294958002
 30
0.0
 40
5.063290811735307
100
AcDbArc
 50
0.0
 51
90.0
  0
LINE
  5
B3
330
1F
100
AcDbEntity
  8
0
  6
Continuous
 62
     7
370
    25
100
AcDbLine
 10
39.9125406313
 20
193.3582488138
 30
0.0
 11
33.0000000285
 21
193.3582488138
 31
0.0
  0
LINE
  5
B4
330
1F
100
AcDbEntity
  8
0
  6
Continuous
 62
     7
370
    25
100
AcDbLine
 10
33.0000000285
 20
193.3582488138
 30
0.0
 11
33.0000000285
 21
179.5946529641
 31
0.0
  0
LINE
  5
B5
330
1F
100
AcDbEntity
  8
0
  6
HIDDEN
 62
     7
370
    18
100
AcDbLine
 10
130.4683568687
 20
177.0630099726
 30
0.0
 11
130.4683568687
 21
128.5024784899
 31
0.0
  0
LWPOLYLINE
  5
B6
330
1F
100
AcDbEntity
  8
0
  6
HIDDEN
 62
     7
370
    18
100
AcDbPolyline
 90
       21
 70
   128
 43
0.0
 10
50.4369481919
 20
177.0630099726
 10
52.6338024989
 20
174.4686565669
 10
54.8284915638
 20
171.8768601845
 10
57.0188589797
 20
169.2901674126
 10
59.2027525861
 20
166.711119824
 10
61.3780265833
 20
164.1422514796
 10
63.5425436409
 20
161.5860864385
 10
65.6941769979
 20
159.0451362783
 10
67.8308125521
 20
156.5218976271
 10
69.9503509377
 20
154.0188497102
 10
72.0507095875
 20
151.5384519145
 10
74.1298247799
 20
149.083141372
 10
76.1856536658
 20
146.6553305649
 10
78.2161762766
 20
144.2574049553
 10
80.2193975083
 20
141.8917206415
 10
82.1933490822
 20
139.5606020429
 10
84.1360914785
 20
137.266339616
 10
86.0457158425
 20
135.0111876041
 10
87.9203458595
 20
132.7973618223
 10
89.758139599
 20
130.6270374804
 10
91.5572913241
 20
128.5023470453
  0
LWPOLYLINE
  5
B7
330
1F
100
AcDbEntity
  8
0
  6
HIDDEN
 62
     7
370
    18
100
AcDbPolyline
 90
       31
 70
   128
 43
0.0
 10
50.4369478061
 20
177.0630099726
 10
52.2773155604
 20
174.8896458422
 10
54.1151172975
 20
172.7193120264
 10
55.9477905762
 20
170.5550346146
 10
57.7727801062
 20
168.3998312518
 10
59.5875413105
 20
166.2567069311
 10
61.3895438734
 20
164.1286498038
 10
63.1762752685
 20
162.0186270132
 10
64.945244262
 20
159.9295805571
 10
66.6939843862
 20
157.8644231863
 10
68.4200573784
 20
155.826034343
 10
70.1210565805
 20
153.8172561462
 10
71.7946102949
 20
151.8408894289
 10
73.438385091
 20
149.8996898328
 10
75.050089059
 20
147.9963639662
 10
76.6274750052
 20
146.1335656302
 10
78.1683435855
 20
144.3138921185
 10
79.6705463717
 20
142.5398805961
 10
81.1319888475
 20
140.8140045614
 10
82.5506333283
 20
139.1386703979
 10
83.9245018026
 20
137.5162140185
 10
85.2516786902
 20
135.948897609
 10
86.5303135124
 20
134.4389064735
 10
87.7586234731
 20
132.9883459878
 10
88.9348959434
 20
131.5992386637
 10
90.0574908506
 20
130.2735213291
 10
91.1248429642
 20
129.0130424274
 10
92.1354640785
 20
127.8195594401
 10
93.0879450878
 20
126.6947364369
 10
93.980957951
 20
125.6401417547
 10
94.8132575431
 20
124.6572458116
  0
SPLINE
  5
B8
330
1F
100
AcDbEntity
  8
0
  6
HIDDEN
 62
     7
370
    18
100
AcDbSpline
210
0.0
220
0.0
230
1.0
 70
     8
 71
     3
 72
     9
 73
     5
 74
     0
 42
0.00000001
 43
0.00000001
 40
0.0
 40
0.0
 40
0.0
 40
0.0
 40
0.8471710581683316
 40
1.0
 40
1.0
 40
1.0
 40
1.0
 10
33.00000002521505
 20
175.6764935981483
 30
0.0
 10
33.7034419538471
 20
175.6782325854839
 30
0.0
 10
34.5337842109976
 20
175.6802852846629
 30
0.0
 10
35.35652860520656
 20
175.5797548000504
 30
0.0
 10
35.48226776037146
 20
175.5643908324653
 30
0.0
  0
LINE
  5
B9
330
1F
100
AcDbEntity
  8
0
  6
HIDDEN
 62
     7
370
    18
100
AcDbLine
 10
48.959604948
 20
178.8076638921
 30
0.0
 11
50.4369481919
 21
177.0630099726
 31
0.0
  0
LINE
  5
BA
330
1F
100
AcDbEntity
  8
0
  6
HIDDEN
 62
     7
370
    18
100
AcDbLine
 10
120.3417728309
 20
177.0630099726
 30
0.0
 11
120.3417728309
 21
179.5946529641
 31
0.0
  0
LINE
  5
BB
330
1F
100
AcDbEntity
  8
0
  6
HIDDEN
 62
     7
370
    18
100
AcDbLine
 10
120.3417728307
 20
177.0630099726
 30
0.0
 11
130.4683568687
 21
177.0630099726
 31
0.0
  0
LINE
  5
BC
330
1F
100
AcDbEntity
  8
0
  6
HIDDEN
 62
     7
370
    18
100
AcDbLine
 10
48.959604948
 20
179.5946529641
 30
0.0
 11
48.959604948
 21
178.8076638921
 31
0.0
  0
LINE
  5
BD
330
1F
100
AcDbEntity
  8
0
  6
HIDDEN
 62
     7
370
    18
100
AcDbLine
 10
48.959604948
 20
178.8076634365
 30
0.0
 11
48.959604948
 21
178.8076638921
 31
0.0
  0
LINE
  5
BE
330
1F
100
AcDbEntity
  8
0
  6
HIDDEN
 62
     7
370
    18
100
AcDbLine
 10
121.6075944664
 20
187.1895891817
 30
0.0
 11
121.6075943907
 21
187.1895891817
 31
0.0
  0
LINE
  5
BF
330
1F
100
AcDbEntity
  8
0
  6
HIDDEN
 62
     7
370
    18
100
AcDbLine
 10
121.6075943907
 20
179.5946529641
 30
0.0
 11
121.6075944664
 21
179.5946529641
 31
0.0
  0
LINE
  5
C0
330
1F
100
AcDbEntity
  8
0
  6
HIDDEN
 62
     7
370
    18
100
AcDbLine
 10
126.6708852024
 20
192.2528799934
 30
0.0
 11
126.6708852781
 21
192.2528799934
 31
0.0
  0
LINE
  5
C1
330
1F
100
AcDbEntity
  8
0
  6
HIDDEN
 62
     7
370
    18
100
AcDbLine
 10
132.9999999243
 20
192.2528799934
 30
0.0
 11
132.9999999243
 21
179.5946529641
 31
0.0
  0
LINE
  5
C2
330
1F
100
AcDbEntity
  8
0
  6
HIDDEN
 62
     7
370
    18
100
AcDbLine
 10
50.4369478061
 20
177.0630099726
 30
0.0
 11
48.959604948
 21
178.8076634365
 31
0.0
  0
LINE
  5
C3
330
1F
100
AcDbEntity
  8
0
  6
HIDDEN
 62
     7
370
    18
100
AcDbLine
 10
35.486774614
 20
175.577074177
 30
0.0
 11
35.4837672921
 21
175.5773420617
 31
0.0
  0
INSERT
  5
CF
330
1F
100
AcDbEntity
  8
10
100
AcDbBlockReference
  2
SW_CENTERMARKSYMBOL_0
 10
127.1772128939
 20
186.6832584867
 30
0.0
  0
INSERT
  5
DB
330
1F
100
AcDbEntity
  8
10
100
AcDbBlockReference
  2
SW_CENTERMARKSYMBOL_1
 10
39.9125399489
 20
186.6832585119
 30
0.0
  0
LINE
  5
DC
330
1F
100
AcDbEntity
  8
0
  6
Continuous
 62
     7
370
    25
100
AcDbLine
 10
244.5946529641
 20
45.2191679748
 30
0.0
 11
244.5946529641
 21
37.6770081129
 31
0.0
  0
ARC
  5
DD
330
1F
100
AcDbEntity
  8
0
  6
Continuous
 62
     7
370
    25
100
AcDbCircle
 10
242.063006052
 20
98.3702961244
 30
0.0
 40
60.74606526960171
100
AcDbArc
 50
206.3781639013
 51
272.3885449264
  0
LINE
  5
DE
330
1F
100
AcDbEntity
  8
0
  6
Continuous
 62
     7
370
    25
100
AcDbLine
 10
195.5368655945
 20
77.8071311984
 30
0.0
 11
187.6417511862
 21
71.3811971318
 31
0.0
  0
ARC
  5
DF
330
1F
100
AcDbEntity
  8
0
  6
Continuous
 62
     7
370
    25
100
AcDbCircle
 10
242.0621184568
 20
143.1758811578
 30
0.0
 40
80.23511176651644
100
AcDbArc
 50
234.5591959018
 51
271.8087797266
  0
LINE
  5
E0
330
1F
100
AcDbEntity
  8
0
  6
Continuous
 62
     7
370
    25
100
AcDbLine
 10
244.5946529641
 20
54.132703251
 30
0.0
 11
244.5946529641
 21
62.9807477072
 31
0.0
  0
LINE
  5
E1
330
1F
100
AcDbEntity
  8
0
  6
Continuous
 62
     7
370
    25
100
AcDbLine
 10
257.2528799934
 20
54.132703251
 30
0.0
 11
257.2528799934
 21
45.2191679748
 31
0.0
  0
LINE
  5
E2
330
1F
100
AcDbEntity
  8
0
  6
Continuous
 62
     7
370
    25
100
AcDbLine
 10
257.2528799934
 20
45.2191679748
 30
0.0
 11
244.5946529641
 21
45.2191679748
 31
0.0
  0
LINE
  5
E3
330
1F
100
AcDbEntity
  8
0
  6
Continuous
 62
     7
370
    25
100
AcDbLine
 10
257.2528799934
 20
54.132703251
 30
0.0
 11
244.5946529641
 21
54.132703251
 31
0.0
  0
ELLIPSE
  5
E4
330
1F
100
AcDbEntity
  8
0
  6
Continuous
 62
     7
370
    25
100
AcDbEllipse
 10
242.1134119229
 20
143.2194713861
 30
0.0
 11
65.95785445423897
 21
45.80890717588291
 31
0.0
210
0.0
220
0.0
230
1.0
 40
0.9995585284
 41
3.595632206467419
 42
3.900646585989283
  0
LINE
  5
E5
330
1F
100
AcDbEntity
  8
0
  6
Continuous
 62
     7
370
    25
100
AcDbLine
 10
258.3582488138
 20
54.0799270462
 30
0.0
 11
258.3582488138
 21
45.2191679748
 31
0.0
  0
LINE
  5
E6
330
1F
100
AcDbEntity
  8
0
  6
Continuous
 62
     7
370
    25
100
AcDbLine
 10
257.2528799934
 20
54.0799270462
 30
0.0
 11
258.3582488138
 21
54.0799270462
 31
0.0
  0
LINE
  5
E7
330
1F
100
AcDbEntity
  8
0
  6
Continuous
 62
     7
370
    25
100
AcDbLine
 10
258.3582488138
 20
45.2191679748
 30
0.0
 11
257.2528799934
 21
45.2191679748
 31
0.0
  0
LINE
  5
E8
330
1F
100
AcDbEntity
  8
0
  6
HIDDEN
 62
     7
370
    18
100
AcDbLine
 10
244.5946529641
 20
54.1327033478
 30
0.0
 11
244.5946529641
 21
54.132703251
 31
0.0
  0
LINE
  5
E9
330
1F
100
AcDbEntity
  8
0
  6
HIDDEN
 62
     7
370
    18
100
AcDbLine
 10
257.2528799934
 20
54.1327033048
 30
0.0
 11
257.2528799934
 21
54.132703251
 31
0.0
  0
LINE
  5
EA
330
1F
100
AcDbEntity
  8
0
  6
HIDDEN
 62
     7
370
    18
100
AcDbLine
 10
244.5946529641
 20
37.6770081129
 30
0.0
 11
244.5946529641
 21
37.6770089623
 31
0.0
  0
LINE
  5
EB
330
1F
100
AcDbEntity
  8
0
  6
HIDDEN
 62
     7
370
    18
100
AcDbLine
 10
195.5363989228
 20
77.8067499206
 30
0.0
 11
195.5368655945
 21
77.8071311984
 31
0.0
  0
ELLIPSE
  5
EC
330
1F
100
AcDbEntity
  8
0
  6
HIDDEN
 62
     7
370
    18
100
AcDbEllipse
 10
242.1134119229
 20
143.2194713861
 30
0.0
 11
65.95785445423897
 21
45.80890717588291
 31
0.0
210
0.0
220
0.0
230
1.0
 40
0.9995585284
 41
3.900646585989283
 42
3.986143746325089
  0
ELLIPSE
  5
ED
330
1F
100
AcDbEntity
  8
0
  6
HIDDEN
 62
     7
370
    18
100
AcDbEllipse
 10
242.1134119229
 20
143.2194713861
 30
0.0
 11
65.95785445423897
 21
45.80890717588291
 31
0.0
210
0.0
220
0.0
230
1.0
 40
0.9995585284
 41
3.486726005060659
 42
3.595632206467419
  0
SPLINE
  5
EE
330
1F
100
AcDbEntity
  8
0
  6
HIDDEN
 62
     7
370
    18
100
AcDbSpline
210
0.0
220
0.0
230
1.0
 70
     8
 71
     3
 72
    17
 73
    13
 74
     0
 42
0.00000001
 43
0.00000001
 40
0.0
 40
0.0
 40
0.0
 40
0.0
 40
0.0999983255793673
 40
0.1999977445129277
 40
0.3029354766605496
 40
0.405874219213895
 40
0.5058590095698292
 40
0.6058442872033794
 40
0.7086906044084943
 40
0.8115371050218221
 40
0.9109916340441708
 40
1.0
 40
1.0
 40
1.0
 40
1.0
 10
232.5479447774242
 20
63.50614724489986
 30
0.0
 10
233.0463355227355
 20
63.44943137982676
 30
0.0
 10
234.0431224626254
 20
63.33599902956487
 30
0.0
 10
235.3966285306142
 20
63.21386106268019
 30
0.0
 10
236.6312099335474
 20
63.12045408995555
 30
0.0
 10
237.7130588970252
 20
63.05515247773901
 30
0.0
 10
238.6287149725119
 20
63.01104021950328
 30
0.0
 10
239.3848103896931
 20
62.98260833604043
 30
0.0
 10
239.979637928507
 20
62.96510943265213
 30
0.0
 10
240.3945873878306
 20
62.95568259093305
 30
0.0
 10
240.638536477738
 20
62.95105467238099
 30
0.0
 10
240.6590520331339
 20
62.95068133241083
 30
0.0
 10
240.6687412404586
 20
62.95050500921101
 30
0.0
  0
ARC
  5
EF
330
1F
100
AcDbEntity
  8
0
  6
HIDDEN
 62
     7
370
    18
100
AcDbCircle
 10
242.0803378892
 20
143.2247269659
 30
0.0
 40
80.28664055523542
100
AcDbArc
 50
268.9978994851
 51
271.7946099283
  0
LINE
  5
F0
330
1F
100
AcDbEntity
  8
0
  6
HIDDEN
 62
     7
370
    18
100
AcDbLine
 10
187.6417511862
 20
71.3811971318
 30
0.0
 11
187.6417519242
 21
71.3811968197
 31
0.0
  0
ELLIPSE
  5
F1
330
1F
100
AcDbEntity
  8
0
  6
HIDDEN
 62
     7
370
    18
100
AcDbEllipse
 10
242.0710741023
 20
143.1829849422
 30
0.0
 11
66.15717381561994
 21
49.75449085065994
 31
0.0
210
0.0
220
0.0
230
0.9999999999999999
 40
0.9999153481
 41
3.440569934497172
 42
4.06751086452254
  0
ARC
  5
F2
330
1F
100
AcDbEntity
  8
0
  6
HIDDEN
 62
     7
370
    18
100
AcDbCircle
 10
242.0619616459
 20
143.1752978887
 30
0.0
 40
82.76616020585493
100
AcDbArc
 50
234.0763285504
 51
270.0007257156
  0
LINE
  5
F3
330
1F
100
AcDbEntity
  8
0
  6
HIDDEN
 62
     7
370
    18
100
AcDbLine
 10
193.5024784899
 20
76.1513180895
 30
0.0
 11
193.5023470458
 21
76.1512080248
 31
0.0
  0
LINE
  5
F4
330
1F
100
AcDbEntity
  8
0
  6
HIDDEN
 62
     7
370
    18
100
AcDbLine
 10
242.0630099726
 20
60.4091376895
 30
0.0
 11
242.0630099726
 21
40.1558766349
 31
0.0
  0
LINE
  5
F5
330
1F
100
AcDbEntity
  8
0
  6
HIDDEN
 62
     7
370
    18
100
AcDbLine
 10
189.6572457432
 20
73.0216339105
 30
0.0
 11
193.5024784899
 21
76.1513180895
 31
0.0
  0
ARC
  5
F6
330
1F
100
AcDbEntity
  8
0
  6
HIDDEN
 62
     7
370
    18
100
AcDbCircle
 10
242.0630099726
 20
98.3702986194
 30
0.0
 40
58.21442198443499
100
AcDbArc
 50
205.8130510368
 51
270.0
  0
LINE
  5
F7
330
1F
100
AcDbEntity
  8
0
  6
HIDDEN
 62
     7
370
    18
100
AcDbLine
 10
189.6572457432
 20
73.0216339105
 30
0.0
 11
189.6572460045
 21
73.0216333703
 31
0.0
  0
LINE
  5
F8
330
1F
100
AcDbEntity
  8
0
  6
HIDDEN
 62
     7
370
    18
100
AcDbLine
 10
244.5946529641
 20
45.2191679748
 30
0.0
 11
244.5946529641
 21
54.1327033478
 31
0.0
  0
LINE
  5
F9
330
1F
100
AcDbEntity
  8
0
  6
HIDDEN
 62
     7
370
    18
100
AcDbLine
 10
242.0630099726
 20
60.4090390519
 30
0.0
 11
244.5946529641
 21
60.4090390519
 31
0.0
  0
LINE
  5
FA
330
1F
100
AcDbEntity
  8
0
  6
HIDDEN
 62
     7
370
    18
100
AcDbLine
 10
244.5946529641
 20
40.1558766349
 30
0.0
 11
242.0630099726
 21
40.1558766349
 31
0.0
  0
LINE
  5
FB
330
1F
100
AcDbEntity
  8
0
  6
HIDDEN
 62
     7
370
    18
100
AcDbLine
 10
243.8076634365
 20
40.1558766349
 30
0.0
 11
243.8076638921
 21
60.4090390519
 31
0.0
  0
LINE
  5
FC
330
1F
100
AcDbEntity
  8
0
  6
HIDDEN
 62
     7
370
    18
100
AcDbLine
 10
193.5023470458
 20
76.1512080248
 30
0.0
 11
189.6572460045
 21
73.0216333703
 31
0.0
  0
LINE
  5
FD
330
1F
100
AcDbEntity
  8
0
  6
HIDDEN
 62
     7
370
    18
100
AcDbLine
 10
195.5363989228
 20
77.8067499206
 30
0.0
 11
187.6417519242
 21
71.3811968197
 31
0.0
  0
ARC
  5
FE
330
1F
100
AcDbEntity
  8
0
  6
HIDDEN
 62
     7
370
    18
100
AcDbCircle
 10
242.0630067157
 20
98.3702969098
 30
0.0
 40
60.74606568942904
100
AcDbArc
 50
206.3781648598
 51
260.9536810195
  0
LINE
  5
FF
330
1F
100
AcDbEntity
  8
0
  6
HIDDEN
 62
     7
370
    18
100
AcDbLine
 10
240.6764935981
 20
37.6400571989
 30
0.0
 11
240.6761998754
 21
62.950365878
 31
0.0
  0
LWPOLYLINE
  5
100
330
1F
100
AcDbEntity
  8
0
  6
HIDDEN
 62
     7
370
    18
100
AcDbPolyline
 90
        3
 70
   128
 43
0.0
 10
232.5479447774
 20
63.5061472449
 10
232.5276735012
 20
49.2978771653
 10
232.5117279454
 20
38.3798183026
  0
SPLINE
  5
101
330
1F
100
AcDbEntity
  8
0
  6
HIDDEN
 62
     7
370
    18
100
AcDbSpline
210
0.0
220
0.0
230
1.0
 70
     8
 71
     3
 72
    17
 73
    13
 74
     0
 42
0.00000001
 43
0.00000001
 40
0.0
 40
0.0
 40
0.0
 40
0.0
 40
0.0894493226024006
 40
0.1898458924403954
 40
0.2931481349788896
 40
0.3964500424429884
 40
0.496851738683749
 40
0.5972525434295632
 40
0.7006165912841419
 40
0.8039787926944907
 40
0.9016467888230557
 40
1.0
 40
1.0
 40
1.0
 40
1.0
 10
240.6690344825847
 20
37.64022498430641
 30
0.0
 10
240.659042547062
 20
37.64041342190889
 30
0.0
 10
240.6378358138938
 20
37.64081335903273
 30
0.0
 10
240.3896614352412
 20
37.64703466694115
 30
0.0
 10
239.9668831372806
 20
37.65957331446371
 30
0.0
 10
239.3625767419168
 20
37.68303495997902
 30
0.0
 10
238.59488739244
 20
37.72129821911556
 30
0.0
 10
237.6658430032278
 20
37.7808303909334
 30
0.0
 10
236.5688448987894
 20
37.86912665862999
 30
0.0
 10
235.3292258685318
 20
37.99445826077027
 30
0.0
 10
233.9828832659916
 20
38.15675349857862
 30
0.0
 10
233.0032545212247
 20
38.30529029203248
 30
0.0
 10
232.5117279454349
 20
38.37981830262341
 30
0.0
  0
LINE
  5
102
330
1F
100
AcDbEntity
  8
0
  6
HIDDEN
 62
     7
370
    18
100
AcDbLine
 10
253.294958002
 20
54.0799270462
 30
0.0
 11
257.2528799934
 21
54.0799270462
 31
0.0
  0
LINE
  5
103
330
1F
100
AcDbEntity
  8
0
  6
HIDDEN
 62
     7
370
    18
100
AcDbLine
 10
244.5946529641
 20
54.0799270462
 30
0.0
 11
253.294958002
 21
54.0799270462
 31
0.0
  0
ARC
  5
104
330
1F
100
AcDbEntity
  8
0
  6
HIDDEN
 62
     7
370
    18
100
AcDbCircle
 10
242.0630067961
 20
98.3702970049
 30
0.0
 40
60.74606526960176
100
AcDbArc
 50
268.6921251033
 51
272.388544224
  0
LINE
  5
105
330
1F
100
AcDbEntity
  8
0
  6
HIDDEN
 62
     7
370
    18
100
AcDbLine
 10
202.9211178832
 20
73.1354966305
 30
0.0
 11
202.9249938639
 21
73.133330879
 31
0.0
  0
LINE
  5
106
330
1F
100
AcDbEntity
  8
0
  6
HIDDEN
 62
     7
370
    18
100
AcDbLine
 10
225.7693604482
 20
64.6124074093
 30
0.0
 11
225.7752089424
 21
64.6111945291
 31
0.0
  0
LINE
  5
107
330
1F
100
AcDbEntity
  8
0
  6
HIDDEN
 62
     7
370
    18
100
AcDbLine
 10
205.1082912461
 20
69.1167837055
 30
0.0
 11
205.1090786745
 21
69.1163908054
 31
0.0
  0
LINE
  5
108
330
1F
100
AcDbEntity
  8
0
  6
HIDDEN
 62
     7
370
    18
100
AcDbLine
 10
233.8318191489
 20
60.8193507279
 30
0.0
 11
233.8331317977
 21
60.81921955
 31
0.0
  0
LINE
  5
109
330
1F
100
AcDbEntity
  8
0
  6
HIDDEN
 62
     7
370
    18
100
AcDbLine
 10
254.591420554
 20
54.0799270462
 30
0.0
 11
254.591420554
 21
54.1327033005
 31
0.0
  0
LINE
  5
10A
330
1F
100
AcDbEntity
  8
0
  6
HIDDEN
 62
     7
370
    18
100
AcDbLine
 10
248.7750964193
 20
54.1327033005
 30
0.0
 11
248.7750964193
 21
54.0799270462
 31
0.0
  0
LINE
  5
10B
330
1F
100
AcDbEntity
  8
0
  6
HIDDEN
 62
     7
370
    18
100
AcDbLine
 10
254.591420554
 20
45.2191679748
 30
0.0
 11
254.591420554
 21
54.0799270462
 31
0.0
  0
LINE
  5
10C
330
1F
100
AcDbEntity
  8
0
  6
HIDDEN
 62
     7
370
    18
100
AcDbLine
 10
248.7750964193
 20
54.0799270462
 30
0.0
 11
248.7750964193
 21
45.2191679748
 31
0.0
  0
LINE
  5
10D
330
1F
100
AcDbEntity
  8
0
  6
HIDDEN
 62
     7
370
    18
100
AcDbLine
 10
240.6775329257
 20
37.6402250413
 30
0.0
 11
240.6772663352
 21
62.9505050668
 31
0.0
  0
LINE
  5
10E
330
1F
100
AcDbEntity
  8
0
  6
HIDDEN
 62
     7
370
    18
100
AcDbLine
 10
254.08832145
 20
45.2191679748
 30
0.0
 11
254.08832145
 21
54.0799270462
 31
0.0
  0
LINE
  5
10F
330
1F
100
AcDbEntity
  8
0
  6
HIDDEN
 62
     7
370
    18
100
AcDbLine
 10
249.2781955739
 20
54.0799270462
 30
0.0
 11
249.2781955739
 21
45.2191679748
 31
0.0
  0
ENDSEC
  0
SECTION
  2
OBJECTS
  0
DICTIONARY
  5
C
330
0
100
AcDbDictionary
281
     1
  3
ACAD_GROUP
350
D
  3
ACAD_LAYOUT
350
1A
  3
ACAD_MLINESTYLE
350
17
  3
ACAD_PLOTSETTINGS
350
19
  3
ACAD_PLOTSTYLENAME
350
E
  3
ACAD_SCALELIST
350
47
  3
DWGPROPS
350
110
  0
DICTIONARY
  5
D
102
{ACAD_REACTORS
330
C
102
}
330
C
100
AcDbDictionary
281
     1
  0
DICTIONARY
  5
1A
102
{ACAD_REACTORS
330
C
102
}
330
C
100
AcDbDictionary
281
     1
  3
Layout1
350
1E
  3
Layout2
350
26
  3
Model
350
22
  0
DICTIONARY
  5
17
102
{ACAD_REACTORS
330
C
102
}
330
C
100
AcDbDictionary
281
     1
  3
Standard
350
18
  0
DICTIONARY
  5
19
102
{ACAD_REACTORS
330
C
102
}
330
C
100
AcDbDictionary
281
     1
  0
ACDBDICTIONARYWDFLT
  5
E
102
{ACAD_REACTORS
330
C
102
}
330
C
100
AcDbDictionary
281
     1
  3
Normal
350
F
100
AcDbDictionaryWithDefault
340
F
  0
DICTIONARY
  5
47
102
{ACAD_REACTORS
330
C
102
}
330
C
100
AcDbDictionary
281
     1
  3
A0
350
48
  3
A1
350
49
  3
A2
350
4A
  3
A3
350
4B
  3
A4
350
4C
  3
A5
350
4D
  3
A6
350
4E
  3
A7
350
4F
  3
A8
350
50
  3
A9
350
51
  3
B0
350
52
  3
B1
350
53
  3
B2
350
54
  3
B3
350
55
  3
B4
350
56
  3
B5
350
57
  3
B6
350
58
  0
XRECORD
  5
110
102
{ACAD_REACTORS
330
C
102
}
330
C
100
AcDbXrecord
280
     1
  1
DWGPROPS COOKIE
  2

  3

  4

  6

  7

  8

  9

300
=
301
=
302
=
303
=
304
=
305
=
306
=
307
=
308
=
309
=
 40
0.0
 41
2461215.2400486
 42
2461215.2400489
  1

 90
        0
  0
LAYOUT
  5
1E
102
{ACAD_REACTORS
330
1A
102
}
330
1A
100
AcDbPlotSettings
  1

  2
none_device
  4

  6

 40
0.0
 41
0.0
 42
0.0
 43
0.0
 44
0.0
 45
0.0
 46
0.0
 47
0.0
 48
0.0
 49
0.0
140
0.0
141
0.0
142
1.0
143
1.0
 70
   688
 72
     1
 73
     0
 74
     5
  7

 75
    16
147
1.0
148
0.0
149
0.0
100
AcDbLayout
  1
Layout1
 70
     1
 71
     1
 10
0.0
 20
0.0
 11
420.0
 21
297.0
 12
0.0
 22
0.0
 32
0.0
 14
1.0000000000E+20
 24
1.0000000000E+20
 34
1.0000000000E+20
 15
-1.0000000000E+20
 25
-1.0000000000E+20
 35
-1.0000000000E+20
146
0.0
 13
0.0
 23
0.0
 33
0.0
 16
1.0
 26
0.0
 36
0.0
 17
0.0
 27
1.0
 37
0.0
 76
     0
330
1B
  0
LAYOUT
  5
26
102
{ACAD_REACTORS
330
1A
102
}
330
1A
100
AcDbPlotSettings
  1

  2
none_device
  4

  6

 40
0.0
 41
0.0
 42
0.0
 43
0.0
 44
0.0
 45
0.0
 46
0.0
 47
0.0
 48
0.0
 49
0.0
140
0.0
141
0.0
142
1.0
143
1.0
 70
   688
 72
     1
 73
     0
 74
     5
  7

 75
    16
147
1.0
148
0.0
149
0.0
100
AcDbLayout
  1
Layout2
 70
     1
 71
     2
 10
0.0
 20
0.0
 11
0.0
 21
0.0
 12
0.0
 22
0.0
 32
0.0
 14
0.0
 24
0.0
 34
0.0
 15
0.0
 25
0.0
 35
0.0
146
0.0
 13
0.0
 23
0.0
 33
0.0
 16
1.0
 26
0.0
 36
0.0
 17
0.0
 27
1.0
 37
0.0
 76
     0
330
23
  0
LAYOUT
  5
22
102
{ACAD_REACTORS
330
1A
102
}
330
1A
100
AcDbPlotSettings
  1

  2
none_device
  4
Letter_(8.50_x_11.00_Inches)
  6

 40
6.35
 41
6.35
 42
6.35000508
 43
6.35000508
 44
215.9
 45
279.4
 46
0.0
 47
0.0
 48
0.0
 49
0.0
140
0.0
141
0.0
142
1.0
143
1.0
 70
  1712
 72
     1
 73
     0
 74
     0
  7

 75
     0
147
1.0
148
0.0
149
0.0
100
AcDbLayout
  1
Model
 70
     1
 71
     0
 10
0.0
 20
0.0
 11
297.0
 21
210.0
 12
0.0
 22
0.0
 32
0.0
 14
0.0
 24
0.0
 34
0.0
 15
297.0
 25
210.0
 35
0.0
146
0.0
 13
0.0
 23
0.0
 33
0.0
 16
1.0
 26
0.0
 36
0.0
 17
0.0
 27
1.0
 37
0.0
 76
     0
330
1F
331
29
  0
MLINESTYLE
  5
18
102
{ACAD_REACTORS
330
17
102
}
330
17
100
AcDbMlineStyle
  2
Standard
 70
     0
  3

 62
   256
 51
90.0
 52
90.0
 71
     2
 49
0.5
 62
   256
  6
BYLAYER
 49
-0.5
 62
   256
  6
BYLAYER
  0
ACDBPLACEHOLDER
  5
F
102
{ACAD_REACTORS
330
E
102
}
330
E
  0
SCALE
  5
48
102
{ACAD_REACTORS
330
47
102
}
330
47
100
AcDbScale
 70
     0
300
1:1
140
1.0
141
1.0
290
     1
  0
SCALE
  5
49
102
{ACAD_REACTORS
330
47
102
}
330
47
100
AcDbScale
 70
     0
300
1:2
140
1.0
141
2.0
290
     0
  0
SCALE
  5
4A
102
{ACAD_REACTORS
330
47
102
}
330
47
100
AcDbScale
 70
     0
300
1:4
140
1.0
141
4.0
290
     0
  0
SCALE
  5
4B
102
{ACAD_REACTORS
330
47
102
}
330
47
100
AcDbScale
 70
     0
300
1:5
140
1.0
141
5.0
290
     0
  0
SCALE
  5
4C
102
{ACAD_REACTORS
330
47
102
}
330
47
100
AcDbScale
 70
     0
300
1:8
140
1.0
141
8.0
290
     0
  0
SCALE
  5
4D
102
{ACAD_REACTORS
330
47
102
}
330
47
100
AcDbScale
 70
     0
300
1:10
140
1.0
141
10.0
290
     0
  0
SCALE
  5
4E
102
{ACAD_REACTORS
330
47
102
}
330
47
100
AcDbScale
 70
     0
300
1:16
140
1.0
141
16.0
290
     0
  0
SCALE
  5
4F
102
{ACAD_REACTORS
330
47
102
}
330
47
100
AcDbScale
 70
     0
300
1:20
140
1.0
141
20.0
290
     0
  0
SCALE
  5
50
102
{ACAD_REACTORS
330
47
102
}
330
47
100
AcDbScale
 70
     0
300
1:30
140
1.0
141
30.0
290
     0
  0
SCALE
  5
51
102
{ACAD_REACTORS
330
47
102
}
330
47
100
AcDbScale
 70
     0
300
1:40
140
1.0
141
40.0
290
     0
  0
SCALE
  5
52
102
{ACAD_REACTORS
330
47
102
}
330
47
100
AcDbScale
 70
     0
300
1:50
140
1.0
141
50.0
290
     0
  0
SCALE
  5
53
102
{ACAD_REACTORS
330
47
102
}
330
47
100
AcDbScale
 70
     0
300
1:100
140
1.0
141
100.0
290
     0
  0
SCALE
  5
54
102
{ACAD_REACTORS
330
47
102
}
330
47
100
AcDbScale
 70
     0
300
2:1
140
2.0
141
1.0
290
     0
  0
SCALE
  5
55
102
{ACAD_REACTORS
330
47
102
}
330
47
100
AcDbScale
 70
     0
300
4:1
140
4.0
141
1.0
290
     0
  0
SCALE
  5
56
102
{ACAD_REACTORS
330
47
102
}
330
47
100
AcDbScale
 70
     0
300
8:1
140
8.0
141
1.0
290
     0
  0
SCALE
  5
57
102
{ACAD_REACTORS
330
47
102
}
330
47
100
AcDbScale
 70
     0
300
10:1
140
10.0
141
1.0
290
     0
  0
SCALE
  5
58
102
{ACAD_REACTORS
330
47
102
}
330
47
100
AcDbScale
 70
     0
300
100:1
140
100.0
141
1.0
290
     0
  0
ENDSEC
  0
EOF
