  0
SECTION
  2
HEADER
  9
$ACADVER
  1
AC1015
  9
$ACADMAINTVER
 70
     6
  9
$DWGCODEPAGE
  3
ANSI_936
  9
$INSBASE
 10
0.0
 20
0.0
 30
0.0
  9
$EXTMIN
 10
0.0
 20
0.0
 30
0.0
  9
$EXTMAX
 10
297.0
 20
210.0
 30
0.0
  9
$LIMMIN
 10
0.0
 20
0.0
  9
$LIMMAX
 10
297.0
 20
210.0
  9
$ORTHOMODE
 70
     0
  9
$REGENMODE
 70
     1
  9
$FILLMODE
 70
     1
  9
$QTEXTMODE
 70
     0
  9
$MIRRTEXT
 70
     1
  9
$LTSCALE
 40
1.0
  9
$ATTMODE
 70
     1
  9
$TEXTSIZE
 40
3.5
  9
$TRACEWID
 40
1.0
  9
$TEXTSTYLE
  7
Standard
  9
$CLAYER
  8
0
  9
$CELTYPE
  6
ByLayer
  9
$CECOLOR
 62
   256
  9
$CELTSCALE
 40
1.0
  9
$DISPSILH
 70
     0
  9
$DIMSCALE
 40
1.0
  9
$DIMASZ
 40
4.08
  9
$DIMEXO
 40
0.0
  9
$DIMDLI
 40
3.75
  9
$DIMRND
 40
0.0
  9
$DIMDLE
 40
0.0
  9
$DIMEXE
 40
2.0
  9
$DIMTP
 40
0.0
  9
$DIMTM
 40
0.0
  9
$DIMTXT
 40
3.5
  9
$DIMCEN
 40
2.5
  9
$DIMTSZ
 40
0.0
  9
$DIMTOL
 70
     0
  9
$DIMLIM
 70
     0
  9
$DIMTIH
 70
     1
  9
$DIMTOH
 70
     1
  9
$DIMSE1
 70
     0
  9
$DIMSE2
 70
     0
  9
$DIMTAD
 70
     1
  9
$DIMZIN
 70
     0
  9
$DIMBLK
  1

  9
$DIMASO
 70
     1
  9
$DIMSHO
 70
     1
  9
$DIMPOST
  1

  9
$DIMAPOST
  1

  9
$DIMALT
 70
     0
  9
$DIMALTD
 70
     3
  9
$DIMALTF
 40
0.0393700787
  9
$DIMLFAC
 40
2.0
  9
$DIMTOFL
 70
     1
  9
$DIMTVP
 40
0.0
  9
$DIMTIX
 70
     0
  9
$DIMSOXD
 70
     0
  9
$DIMSAH
 70
     0
  9
$DIMBLK1
  1

  9
$DIMBLK2
  1

  9
$DIMSTYLE
  2
ISO-25
  9
$DIMCLRD
 70
     0
  9
$DIMCLRE
 70
     0
  9
$DIMCLRT
 70
     0
  9
$DIMTFAC
 40
1.0
  9
$DIMGAP
 40
1.524
  9
$DIMJUST
 70
     0
  9
$DIMSD1
 70
     0
  9
$DIMSD2
 70
     0
  9
$DIMTOLJ
 70
     0
  9
$DIMTZIN
 70
     0
  9
$DIMALTZ
 70
     0
  9
$DIMALTTZ
 70
     0
  9
$DIMUPT
 70
     0
  9
$DIMDEC
 70
     2
  9
$DIMTDEC
 70
     2
  9
$DIMALTU
 70
     2
  9
$DIMALTTD
 70
     3
  9
$DIMTXSTY
  7
Standard
  9
$DIMAUNIT
 70
     0
  9
$DIMADEC
 70
     2
  9
$DIMALTRND
 40
0.0
  9
$DIMAZIN
 70
     0
  9
$DIMDSEP
 70
    44
  9
$DIMATFIT
 70
     3
  9
$DIMFRAC
 70
     0
  9
$DIMLDRBLK
  1

  9
$DIMLUNIT
 70
     2
  9
$DIMLWD
 70
    -2
  9
$DIMLWE
 70
    -2
  9
$DIMTMOVE
 70
     0
  9
$LUNITS
 70
     2
  9
$LUPREC
 70
     2
  9
$SKETCHINC
 40
1.0
  9
$FILLETRAD
 40
0.0
  9
$AUNITS
 70
     0
  9
$AUPREC
 70
     2
  9
$MENU
  1
.
  9
$ELEVATION
 40
0.0
  9
$PELEVATION
 40
0.0
  9
$THICKNESS
 40
0.0
  9
$LIMCHECK
 70
     0
  9
$CHAMFERA
 40
0.0
  9
$CHAMFERB
 40
0.0
  9
$CHAMFERC
 40
0.0
  9
$CHAMFERD
 40
0.0
  9
$SKPOLY
 70
     0
  9
$TDCREATE
 40
2461215.594269572
  9
$TDUCREATE
 40
2461215.260936239
  9
$TDUPDATE
 40
2461215.594269942
  9
$TDUUPDATE
 40
2461215.260936609
  9
$TDINDWG
 40
0.0000000116
  9
$TDUSRTIMER
 40
0.0000000116
  9
$USRTIMER
 70
     1
  9
$ANGBASE
 50
0.0
  9
$ANGDIR
 70
     0
  9
$PDMODE
 70
     0
  9
$PDSIZE
 40
-1.0
  9
$PLINEWID
 40
0.0
  9
$SPLFRAME
 70
     0
  9
$SPLINETYPE
 70
     6
  9
$SPLINESEGS
 70
     8
  9
$HANDSEED
  5
144
  9
$SURFTAB1
 70
     6
  9
$SURFTAB2
 70
     6
  9
$SURFTYPE
 70
     6
  9
$SURFU
 70
     6
  9
$SURFV
 70
     6
  9
$UCSBASE
  2

  9
$UCSNAME
  2

  9
$UCSORG
 10
0.0
 20
0.0
 30
0.0
  9
$UCSXDIR
 10
1.0
 20
0.0
 30
0.0
  9
$UCSYDIR
 10
0.0
 20
1.0
 30
0.0
  9
$UCSORTHOREF
  2

  9
$UCSORTHOVIEW
 70
     0
  9
$UCSORGTOP
 10
0.0
 20
0.0
 30
0.0
  9
$UCSORGBOTTOM
 10
0.0
 20
0.0
 30
0.0
  9
$UCSORGLEFT
 10
0.0
 20
0.0
 30
0.0
  9
$UCSORGRIGHT
 10
0.0
 20
0.0
 30
0.0
  9
$UCSORGFRONT
 10
0.0
 20
0.0
 30
0.0
  9
$UCSORGBACK
 10
0.0
 20
0.0
 30
0.0
  9
$PUCSBASE
  2

  9
$PUCSNAME
  2

  9
$PUCSORG
 10
0.0
 20
0.0
 30
0.0
  9
$PUCSXDIR
 10
1.0
 20
0.0
 30
0.0
  9
$PUCSYDIR
 10
0.0
 20
1.0
 30
0.0
  9
$PUCSORTHOREF
  2

  9
$PUCSORTHOVIEW
 70
     0
  9
$PUCSORGTOP
 10
0.0
 20
0.0
 30
0.0
  9
$PUCSORGBOTTOM
 10
0.0
 20
0.0
 30
0.0
  9
$PUCSORGLEFT
 10
0.0
 20
0.0
 30
0.0
  9
$PUCSORGRIGHT
 10
0.0
 20
0.0
 30
0.0
  9
$PUCSORGFRONT
 10
0.0
 20
0.0
 30
0.0
  9
$PUCSORGBACK
 10
0.0
 20
0.0
 30
0.0
  9
$USERI1
 70
     0
  9
$USERI2
 70
     0
  9
$USERI3
 70
     0
  9
$USERI4
 70
     0
  9
$USERI5
 70
     0
  9
$USERR1
 40
0.0
  9
$USERR2
 40
0.0
  9
$USERR3
 40
0.0
  9
$USERR4
 40
0.0
  9
$USERR5
 40
0.0
  9
$WORLDVIEW
 70
     1
  9
$SHADEDGE
 70
     3
  9
$SHADEDIF
 70
    70
  9
$TILEMODE
 70
     1
  9
$MAXACTVP
 70
    64
  9
$PINSBASE
 10
0.0
 20
0.0
 30
0.0
  9
$PLIMCHECK
 70
     0
  9
$PEXTMIN
 10
1.0000000000E+20
 20
1.0000000000E+20
 30
1.0000000000E+20
  9
$PEXTMAX
 10
-1.0000000000E+20
 20
-1.0000000000E+20
 30
-1.0000000000E+20
  9
$PLIMMIN
 10
0.0
 20
0.0
  9
$PLIMMAX
 10
420.0
 20
297.0
  9
$UNITMODE
 70
     0
  9
$VISRETAIN
 70
     1
  9
$PLINEGEN
 70
     0
  9
$PSLTSCALE
 70
     1
  9
$TREEDEPTH
 70
  3020
  9
$CMLSTYLE
  2
Standard
  9
$CMLJUST
 70
     0
  9
$CMLSCALE
 40
20.0
  9
$PROXYGRAPHICS
 70
     1
  9
$MEASUREMENT
 70
     1
  9
$CELWEIGHT
370
    -1
  9
$ENDCAPS
280
     0
  9
$JOINSTYLE
280
     0
  9
$LWDISPLAY
290
     1
  9
$INSUNITS
 70
     4
  9
$HYPERLINKBASE
  1

  9
$STYLESHEET
  1

  9
$XEDIT
290
     1
  9
$CEPSNTYPE
380
     0
  9
$PSTYLEMODE
290
     1
  9
$FINGERPRINTGUID
  2
{174c6c58-d6bc-463f-ae05-a3005fa3725a}
  9
$VERSIONGUID
  2
{FAEB1C32-E019-11D5-929B-00C0DF256EC4}
  9
$EXTNAMES
290
     1
  9
$PSVPSCALE
 40
0.0
  9
$OLESTARTUP
290
     0
  0
ENDSEC
  0
SECTION
  2
CLASSES
  0
CLASS
  1
ACDBDICTIONARYWDFLT
  2
AcDbDictionaryWithDefault
  3
ObjectDBX Classes
 90
        0
280
     0
281
     0
  0
CLASS
  1
VISUALSTYLE
  2
AcDbVisualStyle
  3
ObjectDBX Classes
 90
     4095
280
     0
281
     0
  0
CLASS
  1
MATERIAL
  2
AcDbMaterial
  3
ObjectDBX Classes
 90
     1153
280
     0
281
     0
  0
CLASS
  1
SCALE
  2
AcDbScale
  3
ObjectDBX Classes
 90
     1153
280
     0
281
     0
  0
CLASS
  1
TABLESTYLE
  2
AcDbTableStyle
  3
ObjectDBX Classes
 90
     4095
280
     0
281
     0
  0
CLASS
  1
MLEADERSTYLE
  2
AcDbMLeaderStyle
  3
ACDB_MLEADERSTYLE_CLASS
 90
     4095
280
     0
281
     0
  0
CLASS
  1
SUN
  2
AcDbSun
  3
SCENEOE
 90
     1153
280
     0
281
     0
  0
CLASS
  1
ACDBPLACEHOLDER
  2
AcDbPlaceHolder
  3
ObjectDBX Classes
 90
        0
280
     0
281
     0
  0
CLASS
  1
LAYOUT
  2
AcDbLayout
  3
ObjectDBX Classes
 90
        0
280
     0
281
     0
  0
ENDSEC
  0
SECTION
  2
TABLES
  0
TABLE
  2
VPORT
  5
8
330
0
100
AcDbSymbolTable
 70
     1
  0
VPORT
  5
29
330
8
100
AcDbSymbolTableRecord
100
AcDbViewportTableRecord
  2
*Active
 70
     0
 10
0.0
 20
0.0
 11
1.0
 21
1.0
 12
148.5
 22
105.0
 13
0.0
 23
0.0
 14
10.0
 24
10.0
 15
10.0
 25
10.0
 16
0.0
 26
0.0
 36
1.0
 17
0.0
 27
0.0
 37
0.0
 40
210.0
 41
1.4142857143
 42
50.0
 43
0.0
 44
0.0
 50
0.0
 51
0.0
 71
     0
 72
  2000
 73
     1
 74
     3
 75
     0
 76
     0
 77
     0
 78
     0
281
     0
 65
     1
110
0.0
120
0.0
130
0.0
111
1.0
121
0.0
131
0.0
112
0.0
122
1.0
132
0.0
 79
     0
146
0.0
  0
ENDTAB
  0
TABLE
  2
LTYPE
  5
5
330
0
100
AcDbSymbolTable
 70
     6
  0
LTYPE
  5
14
330
5
100
AcDbSymbolTableRecord
100
AcDbLinetypeTableRecord
  2
ByBlock
 70
     0
  3

 72
    65
 73
     0
 40
0.0
  0
LTYPE
  5
15
330
5
100
AcDbSymbolTableRecord
100
AcDbLinetypeTableRecord
  2
ByLayer
 70
     0
  3

 72
    65
 73
     0
 40
0.0
  0
LTYPE
  5
16
330
5
100
AcDbSymbolTableRecord
100
AcDbLinetypeTableRecord
  2
Continuous
 70
     0
  3
Solid line
 72
    65
 73
     0
 40
0.0
  0
LTYPE
  5
5E
330
5
100
AcDbSymbolTableRecord
100
AcDbLinetypeTableRecord
  2
HIDDEN
 70
     0
  3
Hidden __ __ __ __ __ __ __ __ __ __ __ __ __ __
 72
    65
 73
     2
 40
1.905
 49
1.27
 74
     0
 49
-0.635
 74
     0
  0
LTYPE
  5
5F
330
5
100
AcDbSymbolTableRecord
100
AcDbLinetypeTableRecord
  2
PHANTOM
 70
     0
  3
Phantom ______  __  __  ______  __  __  ______
 72
    65
 73
     6
 40
12.7
 49
6.35
 74
     0
 49
-1.27
 74
     0
 49
1.27
 74
     0
 49
-1.27
 74
     0
 49
1.27
 74
     0
 49
-1.27
 74
     0
  0
LTYPE
  5
60
330
5
100
AcDbSymbolTableRecord
100
AcDbLinetypeTableRecord
  2
CENTER
 70
     0
  3
Center ____ _ ____ _ ____ _ ____ _ ____ _ ____
 72
    65
 73
     4
 40
10.16
 49
6.35
 74
     0
 49
-1.27
 74
     0
 49
1.27
 74
     0
 49
-1.27
 74
     0
  0
LTYPE
  5
61
330
5
100
AcDbSymbolTableRecord
100
AcDbLinetypeTableRecord
  2
CENTERX2
 70
     0
  3
Center (2x) ________  __  ________  __  _____
 72
    65
 73
     4
 40
20.32
 49
12.7
 74
     0
 49
-2.54
 74
     0
 49
2.54
 74
     0
 49
-2.54
 74
     0
  0
LTYPE
  5
62
330
5
100
AcDbSymbolTableRecord
100
AcDbLinetypeTableRecord
  2
DOT2
 70
     0
  3
Dot (.5x) ........................................
 72
    65
 73
     2
 40
0.635
 49
0.0
 74
     0
 49
-0.635
 74
     0
  0
ENDTAB
  0
TABLE
  2
LAYER
  5
2
330
0
100
AcDbSymbolTable
 70
    14
  0
LAYER
  5
10
330
2
100
AcDbSymbolTableRecord
100
AcDbLayerTableRecord
  2
0
 70
     0
 62
     7
  6
Continuous
370
    -3
390
F
  0
LAYER
  5
63
330
2
100
AcDbSymbolTableRecord
100
AcDbLayerTableRecord
  2
SLD-0
 70
     0
 62
     7
  6
Continuous
370
    -3
390
F
  0
LAYER
  5
64
330
2
100
AcDbSymbolTableRecord
100
AcDbLayerTableRecord
  2
5
 70
     0
 62
     7
  6
Continuous
370
    -3
390
F
  0
LAYER
  5
65
330
2
100
AcDbSymbolTableRecord
100
AcDbLayerTableRecord
  2
9
 70
     0
 62
     7
  6
Continuous
370
    -3
390
F
  0
LAYER
  5
66
330
2
100
AcDbSymbolTableRecord
100
AcDbLayerTableRecord
  2
10
 70
     0
 62
     7
  6
Continuous
370
    -3
390
F
  0
LAYER
  5
67
330
2
100
AcDbSymbolTableRecord
100
AcDbLayerTableRecord
  2
轮廓实线层
 70
     0
 62
     7
  6
Continuous
370
    50
390
F
  0
LAYER
  5
68
330
2
100
AcDbSymbolTableRecord
100
AcDbLayerTableRecord
  2
细线层
 70
     0
 62
     4
  6
Continuous
370
    25
390
F
  0
LAYER
  5
69
330
2
100
AcDbSymbolTableRecord
100
AcDbLayerTableRecord
  2
中心线层
 70
     0
 62
     1
  6
CENTERX2
370
    25
390
F
  0
LAYER
  5
6A
330
2
100
AcDbSymbolTableRecord
100
AcDbLayerTableRecord
  2
虚线层
 70
     0
 62
     6
  6
HIDDEN
370
    25
390
F
  0
LAYER
  5
6B
330
2
100
AcDbSymbolTableRecord
100
AcDbLayerTableRecord
  2
剖面线层
 70
     0
 62
     2
  6
Continuous
370
    25
390
F
  0
LAYER
  5
6C
330
2
100
AcDbSymbolTableRecord
100
AcDbLayerTableRecord
  2
文字层
 70
     0
 62
     3
  6
Continuous
370
    25
390
F
  0
LAYER
  5
6D
330
2
100
AcDbSymbolTableRecord
100
AcDbLayerTableRecord
  2
标注层
 70
     0
 62
     4
  6
Continuous
370
    25
390
F
  0
LAYER
  5
6E
330
2
100
AcDbSymbolTableRecord
100
AcDbLayerTableRecord
  2
符号标注层
 70
     0
 62
    31
  6
Continuous
370
    25
390
F
  0
LAYER
  5
6F
330
2
100
AcDbSymbolTableRecord
100
AcDbLayerTableRecord
  2
双点划线层
 70
     0
 62
     6
  6
PHANTOM
370
    25
390
F
  0
ENDTAB
  0
TABLE
  2
STYLE
  5
3
330
0
100
AcDbSymbolTable
 70
     1
  0
STYLE
  5
11
330
3
100
AcDbSymbolTableRecord
100
AcDbTextStyleTableRecord
  2
Standard
 70
     0
 40
0.0
 41
1.0
 50
0.0
 71
     0
 42
3.5
  3
txt
  4

  0
ENDTAB
  0
TABLE
  2
VIEW
  5
6
330
0
100
AcDbSymbolTable
 70
     0
  0
ENDTAB
  0
TABLE
  2
UCS
  5
7
330
0
100
AcDbSymbolTable
 70
     0
  0
ENDTAB
  0
TABLE
  2
APPID
  5
9
330
0
100
AcDbSymbolTable
 70
     1
  0
APPID
  5
12
330
9
100
AcDbSymbolTableRecord
100
AcDbRegAppTableRecord
  2
ACAD
 70
     0
  0
ENDTAB
  0
TABLE
  2
DIMSTYLE
  5
A
330
0
100
AcDbSymbolTable
 70
     1
100
AcDbDimStyleTable
  0
DIMSTYLE
105
27
330
A
100
AcDbSymbolTableRecord
100
AcDbDimStyleTableRecord
  2
ISO-25
 70
     0
 41
2.5
 42
0.625
 43
3.75
 44
1.25
 73
     0
 74
     0
 77
     1
 78
     8
140
2.5
141
2.5
143
0.0393700787
147
0.625
171
     3
172
     1
178
     0
271
     2
272
     2
274
     3
278
    44
283
     0
284
     8
340
11
  0
ENDTAB
  0
TABLE
  2
BLOCK_RECORD
  5
1
330
0
100
AcDbSymbolTable
 70
     2
  0
BLOCK_RECORD
  5
1F
330
1
100
AcDbSymbolTableRecord
100
AcDbBlockTableRecord
  2
*Model_Space
340
22
  0
BLOCK_RECORD
  5
1B
330
1
100
AcDbSymbolTableRecord
100
AcDbBlockTableRecord
  2
*Paper_Space
340
1E
  0
BLOCK_RECORD
  5
23
330
1
100
AcDbSymbolTableRecord
100
AcDbBlockTableRecord
  2
*Paper_Space0
340
26
  0
BLOCK_RECORD
  5
FA
330
1
100
AcDbSymbolTableRecord
100
AcDbBlockTableRecord
  2
SW_CENTERMARKSYMBOL_0
340
0
102
{BLKREFS
331
105
102
}
  0
ENDTAB
  0
ENDSEC
  0
SECTION
  2
BLOCKS
  0
BLOCK
  5
20
330
1F
100
AcDbEntity
  8
0
100
AcDbBlockBegin
  2
*Model_Space
 70
     0
 10
0.0
 20
0.0
 30
0.0
  3
*Model_Space
  1

  0
ENDBLK
  5
21
330
1F
100
AcDbEntity
  8
0
100
AcDbBlockEnd
  0
BLOCK
  5
1C
330
1B
100
AcDbEntity
 67
     1
  8
0
100
AcDbBlockBegin
  2
*Paper_Space
 70
     0
 10
0.0
 20
0.0
 30
0.0
  3
*Paper_Space
  1

  0
ENDBLK
  5
1D
330
1B
100
AcDbEntity
 67
     1
  8
0
100
AcDbBlockEnd
  0
BLOCK
  5
24
330
23
100
AcDbEntity
  8
0
100
AcDbBlockBegin
  2
*Paper_Space0
 70
     0
 10
0.0
 20
0.0
 30
0.0
  3
*Paper_Space0
  1

  0
ENDBLK
  5
25
330
23
100
AcDbEntity
  8
0
100
AcDbBlockEnd
  0
BLOCK
  5
FB
330
FA
100
AcDbEntity
  8
0
100
AcDbBlockBegin
  2
SW_CENTERMARKSYMBOL_0
 70
     0
 10
0.0
 20
0.0
 30
0.0
  3
SW_CENTERMARKSYMBOL_0
  1

  0
LINE
  5
FD
330
FA
100
AcDbEntity
  8
10
 62
     0
100
AcDbLine
 10
0.0
 20
0.0
 30
0.0
 11
0.0
 21
2.5
 31
0.0
  0
LINE
  5
FE
330
FA
100
AcDbEntity
  8
10
 62
     0
100
AcDbLine
 10
0.0
 20
0.0
 30
0.0
 11
-2.5
 21
0.0
 31
0.0
  0
LINE
  5
FF
330
FA
100
AcDbEntity
  8
10
 62
     0
100
AcDbLine
 10
0.0
 20
0.0
 30
0.0
 11
0.0
 21
-2.5
 31
0.0
  0
LINE
  5
100
330
FA
100
AcDbEntity
  8
10
 62
     0
100
AcDbLine
 10
0.0
 20
0.0
 30
0.0
 11
2.5
 21
0.0
 31
0.0
  0
LINE
  5
101
330
FA
100
AcDbEntity
  8
10
 62
     0
100
AcDbLine
 10
0.0
 20
5.0
 30
0.0
 11
0.0
 21
52.5
 31
0.0
  0
LINE
  5
102
330
FA
100
AcDbEntity
  8
10
 62
     0
100
AcDbLine
 10
-5.0
 20
0.0
 30
0.0
 11
-52.5
 21
0.0
 31
0.0
  0
LINE
  5
103
330
FA
100
AcDbEntity
  8
10
 62
     0
100
AcDbLine
 10
0.0
 20
-5.0
 30
0.0
 11
0.0
 21
-52.5
 31
0.0
  0
LINE
  5
104
330
FA
100
AcDbEntity
  8
10
 62
     0
100
AcDbLine
 10
5.0
 20
0.0
 30
0.0
 11
52.5
 21
0.0
 31
0.0
  0
ENDBLK
  5
FC
330
FA
100
AcDbEntity
  8
0
100
AcDbBlockEnd
  0
ENDSEC
  0
SECTION
  2
ENTITIES
  0
LINE
  5
70
330
1F
100
AcDbEntity
  8
0
  6
Continuous
 62
     7
370
    25
100
AcDbLine
 10
133.0
 20
75.2275242688
 30
0.0
 11
133.0
 21
85.1754627059
 31
0.0
  0
LINE
  5
71
330
1F
100
AcDbEntity
  8
0
  6
Continuous
 62
     7
370
    25
100
AcDbLine
 10
33.0
 20
85.1754627059
 30
0.0
 11
33.0
 21
75.2275242688
 31
0.0
  0
ARC
  5
72
330
1F
100
AcDbEntity
  8
0
  6
Continuous
 62
     7
370
    25
100
AcDbCircle
 10
83.0
 20
75.2275242688
 30
0.0
 40
50.00000000000004
100
AcDbArc
 50
315.0
 51
0.0
  0
ARC
  5
73
330
1F
100
AcDbEntity
  8
0
  6
Continuous
 62
     7
370
    25
100
AcDbCircle
 10
83.0
 20
75.2275242688
 30
0.0
 40
49.99999999999996
100
AcDbArc
 50
180.0
 51
225.0
  0
ARC
  5
74
330
1F
100
AcDbEntity
  8
0
  6
Continuous
 62
     7
370
    25
100
AcDbCircle
 10
129.4029869747
 20
85.1754627059
 30
0.0
 40
3.597013025323761
100
AcDbArc
 50
0.0
 51
90.0
  0
ARC
  5
75
330
1F
100
AcDbEntity
  8
0
  6
Continuous
 62
     7
370
    25
100
AcDbCircle
 10
36.5970130253
 20
85.1754627059
 30
0.0
 40
3.597013025323768
100
AcDbArc
 50
90.0
 51
180.0
  0
LINE
  5
76
330
1F
100
AcDbEntity
  8
0
  6
Continuous
 62
     7
370
    25
100
AcDbLine
 10
129.4029869747
 20
88.7724757312
 30
0.0
 11
36.5970130253
 21
88.7724757312
 31
0.0
  0
SPLINE
  5
77
330
1F
100
AcDbEntity
  8
0
  6
Continuous
 62
     7
370
    25
100
AcDbSpline
210
0.0
220
0.0
230
1.0
 70
     8
 71
     3
 72
    21
 73
    17
 74
     0
 42
0.00000001
 43
0.00000001
 40
0.0
 40
0.0
 40
0.0
 40
0.0
 40
0.0854632270445832
 40
0.1697581667117638
 40
0.2531637783727705
 40
0.3359676120034064
 40
0.4184630924970143
 40
0.5009465009622501
 40
0.6258217880371307
 40
0.7490612767165226
 40
0.8739638578396592
 40
0.9370586268073977
 40
0.9528424194143403
 40
0.9686256102456793
 40
0.9891574542535927
 40
0.9999999999999999
 40
0.9999999999999999
 40
0.9999999999999999
 40
0.9999999999999999
 10
47.64466094067245
 20
40.04947199369106
 30
0.0
 10
47.64526191971284
 20
40.05403559171662
 30
0.0
 10
47.64645566237451
 20
40.06310040311234
 30
0.0
 10
47.65627948239891
 20
40.06938691296012
 30
0.0
 10
47.67199806275524
 20
40.0701219420593
 30
0.0
 10
47.69415132660814
 20
40.06480934592526
 30
0.0
 10
47.72259504862662
 20
40.05356642370472
 30
0.0
 10
47.76321778237783
 20
40.03348889502418
 30
0.0
 10
47.82007951677274
 20
40.00056534110917
 30
0.0
 10
47.89873144814876
 20
39.94928566355854
 30
0.0
 10
47.97617135263188
 20
39.89475205261757
 30
0.0
 10
48.03232589736491
 20
39.85347711677409
 30
0.0
 10
48.05924122465606
 20
39.83348780623316
 30
0.0
 10
48.07386413990756
 20
39.82269943753733
 30
0.0
 10
48.088221787399
 20
39.81180460409835
 30
0.0
 10
48.09321432870681
 20
39.80953121477921
 30
0.0
 10
48.094939680433
 20
39.80874556355586
 30
0.0
  0
SPLINE
  5
78
330
1F
100
AcDbEntity
  8
0
  6
Continuous
 62
     7
370
    25
100
AcDbSpline
210
0.0
220
0.0
230
1.0
 70
     8
 71
     3
 72
    19
 73
    15
 74
     0
 42
0.00000001
 43
0.00000001
 40
0.0
 40
0.0
 40
0.0
 40
0.0
 40
0.0061542008085793
 40
0.0166224115105323
 40
0.031679316816722
 40
0.0474713979961561
 40
0.0632634926512393
 40
0.1262501771880049
 40
0.2508973324399081
 40
0.3742588849728585
 40
0.4993369839411086
 40
0.6642020122038694
 40
0.8303163861253698
 40
1.0
 40
1.0
 40
1.0
 40
1.0
 10
117.905060319574
 20
39.80874556356276
 30
0.0
 10
117.9058284337389
 20
39.80897271210284
 30
0.0
 10
117.9079030995052
 20
39.80958623717697
 30
0.0
 10
117.9163970019342
 20
39.81559170839962
 30
0.0
 10
117.9276161764894
 20
39.82370333636469
 30
0.0
 10
117.9409698668054
 20
39.83363202646321
 30
0.0
 10
117.9678838373424
 20
39.85364749254979
 30
0.0
 10
118.0238849020002
 20
39.89477785119077
 30
0.0
 10
118.1012722527191
 20
39.94929226713739
 30
0.0
 10
118.179916409329
 20
40.00056073125938
 30
0.0
 10
118.2510322673636
 20
40.04175283184814
 30
0.0
 10
118.3089101774008
 20
40.06760437246513
 30
0.0
 10
118.348271334587
 20
40.07334682179724
 30
0.0
 10
118.3529665158524
 20
40.05748646365469
 30
0.0
 10
118.3553390593276
 20
40.04947199369126
 30
0.0
  0
SPLINE
  5
79
330
1F
100
AcDbEntity
  8
0
  6
Continuous
 62
     7
370
    25
100
AcDbSpline
210
0.0
220
0.0
230
1.0
 70
     8
 71
     3
 72
    16
 73
    12
 74
     0
 42
0.00000001
 43
0.00000001
 40
0.0
 40
0.0
 40
0.0
 40
0.0
 40
0.0822604460078717
 40
0.164452625708114
 40
0.2469211374864776
 40
0.3300051935679836
 40
0.4140344678267499
 40
0.4993254666283288
 40
0.6642916841769627
 40
0.8305432408101074
 40
1.0
 40
1.0
 40
1.0
 40
1.0
 10
77.80708684974893
 20
35.95012645958155
 30
0.0
 10
77.84610544059252
 20
35.96806359213199
 30
0.0
 10
77.92411024152744
 20
36.00392297156341
 30
0.0
 10
78.04872944318683
 20
36.05013351862445
 30
0.0
 10
78.17854790931686
 20
36.09063813059388
 30
0.0
 10
78.3140747606369
 20
36.12490946713136
 30
0.0
 10
78.45509025497402
 20
36.15308270271503
 30
0.0
 10
78.64620267899558
 20
36.18188321336368
 30
0.0
 10
78.89070011528828
 20
36.20241292704605
 30
0.0
 10
79.19035840484045
 20
36.20465926299676
 30
0.0
 10
79.39176201528491
 20
36.18659643500747
 30
0.0
 10
79.49342527921506
 20
36.17747879285029
 30
0.0
  0
SPLINE
  5
7A
330
1F
100
AcDbEntity
  8
0
  6
Continuous
 62
     7
370
    25
100
AcDbSpline
210
0.0
220
0.0
230
1.0
 70
     8
 71
     3
 72
    16
 73
    12
 74
     0
 42
0.00000001
 43
0.00000001
 40
0.0
 40
0.0
 40
0.0
 40
0.0
 40
0.0852825520503116
 40
0.169537383665235
 40
0.2529946799304498
 40
0.3358919239690059
 40
0.4184720871231279
 40
0.5009815979164955
 40
0.670185159655662
 40
0.8356340355417714
 40
0.9999999999999999
 40
0.9999999999999999
 40
0.9999999999999999
 40
0.9999999999999999
 10
86.50657472078493
 20
36.17747879285029
 30
0.0
 10
86.5576528106268
 20
36.18259440666735
 30
0.0
 10
86.65919345998849
 20
36.19276398721505
 30
0.0
 10
86.81103243603296
 20
36.20073604551794
 30
0.0
 10
86.96104296948297
 20
36.20319666218702
 30
0.0
 10
87.10919356581948
 20
36.19965503780668
 30
0.0
 10
87.25537386798327
 20
36.19021979491673
 30
0.0
 10
87.44986552907596
 20
36.16959966307672
 30
0.0
 10
87.68610146714872
 20
36.12823679074624
 30
0.0
 10
87.95470765576744
 20
36.0545579809548
 30
0.0
 10
88.11368531408351
 20
35.98486068552288
 30
0.0
 10
88.19291315025107
 20
35.95012645958011
 30
0.0
  0
SPLINE
  5
7B
330
1F
100
AcDbEntity
  8
0
  6
Continuous
 62
     7
370
    25
100
AcDbSpline
210
0.0
220
0.0
230
1.0
 70
     8
 71
     3
 72
    10
 73
     6
 74
     0
 42
0.00000001
 43
0.00000001
 40
0.0
 40
0.0
 40
0.0
 40
0.0
 40
0.5
 40
0.5
 40
1.0
 40
1.0
 40
1.0
 40
1.0
 10
79.4934252792151
 20
36.1774787928503
 30
0.0
 10
80.65872096900952
 20
36.04841641894936
 30
0.0
 10
81.82753510240546
 20
35.98269419312465
 30
0.0
 10
84.17246489759454
 20
35.98269419312467
 30
0.0
 10
85.34127903099049
 20
36.04841641894936
 30
0.0
 10
86.50657472078493
 20
36.1774787928503
 30
0.0
  0
LINE
  5
7C
330
1F
100
AcDbEntity
  8
0
  6
Continuous
 62
     7
370
    25
100
AcDbLine
 10
40.7897160399
 20
25.2275242688
 30
0.0
 11
125.2102839601
 21
25.2275242688
 31
0.0
  0
SPLINE
  5
7D
330
1F
100
AcDbEntity
  8
0
  6
Continuous
 62
     7
370
    25
100
AcDbSpline
210
0.0
220
0.0
230
1.0
 70
     8
 71
     3
 72
     8
 73
     4
 74
     0
 42
0.00000001
 43
0.00000001
 40
0.0
 40
0.0
 40
0.0
 40
0.0
 40
0.0005168847243437
 40
0.0005168847243437
 40
0.0005168847243437
 40
0.0005168847243437
 10
76.85123038324073
 20
31.36720193572411
 30
0.0
 10
77.11436122070722
 20
31.36720193572411
 30
0.0
 10
77.37765955949413
 20
31.36791188005465
 30
0.0
 10
77.64109502041399
 20
31.3690708292121
 30
0.0
  0
LINE
  5
7E
330
1F
100
AcDbEntity
  8
0
  6
Continuous
 62
     7
370
    25
100
AcDbLine
 10
40.7897160399
 20
31.3672019357
 30
0.0
 11
76.8512303832
 21
31.3672019357
 31
0.0
  0
LINE
  5
7F
330
1F
100
AcDbEntity
  8
0
  6
Continuous
 62
     7
370
    25
100
AcDbLine
 10
132.8848810437
 20
25.2275242688
 30
0.0
 11
125.2102839601
 21
25.2275242688
 31
0.0
  0
LINE
  5
80
330
1F
100
AcDbEntity
  8
0
  6
Continuous
 62
     7
370
    25
100
AcDbLine
 10
132.8848810437
 20
29.832282519
 30
0.0
 11
132.8848810437
 21
25.2275242688
 31
0.0
  0
ARC
  5
81
330
1F
100
AcDbEntity
  8
0
  6
Continuous
 62
     7
370
    25
100
AcDbCircle
 10
34.650038373
 20
29.832282519
 30
0.0
 40
1.534919416730627
100
AcDbArc
 50
90.0
 51
180.0
  0
LINE
  5
82
330
1F
100
AcDbEntity
  8
0
  6
Continuous
 62
     7
370
    25
100
AcDbLine
 10
34.650038373
 20
31.3672019357
 30
0.0
 11
40.7897160399
 21
31.3672019357
 31
0.0
  0
LINE
  5
83
330
1F
100
AcDbEntity
  8
0
  6
Continuous
 62
     7
370
    25
100
AcDbLine
 10
125.2102839601
 20
31.3672019357
 30
0.0
 11
131.349961627
 21
31.3672019357
 31
0.0
  0
ARC
  5
84
330
1F
100
AcDbEntity
  8
0
  6
Continuous
 62
     7
370
    25
100
AcDbCircle
 10
131.349961627
 20
29.832282519
 30
0.0
 40
1.534919416730627
100
AcDbArc
 50
0.0
 51
90.0
  0
LINE
  5
85
330
1F
100
AcDbEntity
  8
0
  6
Continuous
 62
     7
370
    25
100
AcDbLine
 10
40.7897160399
 20
25.2275242688
 30
0.0
 11
33.1151189563
 21
25.2275242688
 31
0.0
  0
LINE
  5
86
330
1F
100
AcDbEntity
  8
0
  6
Continuous
 62
     7
370
    25
100
AcDbLine
 10
33.1151189563
 20
25.2275242688
 30
0.0
 11
33.1151189563
 21
29.832282519
 31
0.0
  0
SPLINE
  5
87
330
1F
100
AcDbEntity
  8
0
  6
Continuous
 62
     7
370
    25
100
AcDbSpline
210
0.0
220
0.0
230
1.0
 70
     8
 71
     3
 72
     8
 73
     4
 74
     0
 42
0.00000001
 43
0.00000001
 40
0.0
 40
0.0
 40
0.0
 40
0.0
 40
0.0005168847243437
 40
0.0005168847243437
 40
0.0005168847243437
 40
0.0005168847243437
 10
88.35890497958603
 20
31.3690708292121
 30
0.0
 10
88.62234044050587
 20
31.36791188005465
 30
0.0
 10
88.88563877929279
 20
31.36720193572411
 30
0.0
 10
89.14876961675927
 20
31.36720193572411
 30
0.0
  0
LINE
  5
88
330
1F
100
AcDbEntity
  8
0
  6
Continuous
 62
     7
370
    25
100
AcDbLine
 10
89.1487696168
 20
31.3672019357
 30
0.0
 11
125.2102839601
 21
31.3672019357
 31
0.0
  0
LINE
  5
89
330
1F
100
AcDbEntity
  8
0
  6
Continuous
 62
     7
370
    25
100
AcDbLine
 10
47.6446609407
 20
31.3672019357
 30
0.0
 11
47.6446609407
 21
32.9021213525
 31
0.0
  0
LINE
  5
8A
330
1F
100
AcDbEntity
  8
0
  6
Continuous
 62
     7
370
    25
100
AcDbLine
 10
118.3553390593
 20
32.9021213525
 30
0.0
 11
118.3553390593
 21
31.3672019357
 31
0.0
  0
SPLINE
  5
8B
330
1F
100
AcDbEntity
  8
0
  6
Continuous
 62
     7
370
    25
100
AcDbSpline
210
0.0
220
0.0
230
1.0
 70
    24
 71
     3
 72
    12
 73
     8
 74
     0
 42
0.00000001
 43
0.00000001
 40
0.0
 40
0.0
 40
0.0
 40
0.0
 40
0.5
 40
0.5
 40
0.75
 40
0.75
 40
1.0
 40
1.0
 40
1.0
 40
1.0
 10
47.64466094067252
 20
36.59057995306772
 30
0.0
 10
47.64466094067254
 20
37.22143869739317
 30
0.0
 10
47.64466094067254
 20
37.83646780908817
 30
0.0
 10
47.64466094067252
 20
38.73182645895547
 30
0.0
 10
47.64466094067251
 20
39.02049209053443
 30
0.0
 10
47.64466094067252
 20
39.56341249881628
 30
0.0
 10
47.64466094067252
 20
39.82252185104135
 30
0.0
 10
47.64466094067252
 20
40.04947199369108
 30
0.0
  0
SPLINE
  5
8C
330
1F
100
AcDbEntity
  8
0
  6
Continuous
 62
     7
370
    25
100
AcDbSpline
210
0.0
220
0.0
230
1.0
 70
    24
 71
     3
 72
    12
 73
     8
 74
     0
 42
0.00000001
 43
0.00000001
 40
0.0
 40
0.0
 40
0.0
 40
0.0
 40
0.2500000000000007
 40
0.2500000000000007
 40
0.5000000000000013
 40
0.5000000000000013
 40
1.0
 40
1.0
 40
1.0
 40
1.0
 10
118.3553390593275
 20
40.04947199369127
 30
0.0
 10
118.3553390593275
 20
39.8225218510397
 30
0.0
 10
118.3553390593275
 20
39.56341249881224
 30
0.0
 10
118.3553390593275
 20
39.02049209052534
 30
0.0
 10
118.3553390593275
 20
38.73182645894386
 30
0.0
 10
118.3553390593275
 20
37.83646780906808
 30
0.0
 10
118.3553390593275
 20
37.22143869736769
 30
0.0
 10
118.3553390593275
 20
36.59057995303708
 30
0.0
  0
LINE
  5
8D
330
1F
100
AcDbEntity
  8
0
  6
Continuous
 62
     7
370
    25
100
AcDbLine
 10
47.6446609407
 20
32.9021213525
 30
0.0
 11
47.6446609407
 21
36.5905799531
 31
0.0
  0
LINE
  5
8E
330
1F
100
AcDbEntity
  8
0
  6
Continuous
 62
     7
370
    25
100
AcDbLine
 10
118.3553390593
 20
36.590579953
 30
0.0
 11
118.3553390593
 21
32.9021213525
 31
0.0
  0
ARC
  5
8F
330
1F
100
AcDbEntity
  8
0
  6
HIDDEN
 62
     7
370
    18
100
AcDbCircle
 10
129.4029869747
 20
85.1754627059
 30
0.0
 40
3.597013025323794
100
AcDbArc
 50
90.0
 51
192.1
  0
ARC
  5
90
330
1F
100
AcDbEntity
  8
0
  6
HIDDEN
 62
     7
370
    18
100
AcDbCircle
 10
36.5970130253
 20
85.1754627059
 30
0.0
 40
3.597013025323773
100
AcDbArc
 50
347.9
 51
90.0
  0
ARC
  5
91
330
1F
100
AcDbEntity
  8
0
  6
HIDDEN
 62
     7
370
    18
100
AcDbCircle
 10
83.0
 20
75.2275242688
 30
0.0
 40
43.86032233307753
100
AcDbArc
 50
167.9
 51
0.0
  0
ARC
  5
92
330
1F
100
AcDbEntity
  8
0
  6
HIDDEN
 62
     7
370
    18
100
AcDbCircle
 10
83.0
 20
75.2275242688
 30
0.0
 40
43.86032233307753
100
AcDbArc
 50
0.0
 51
12.1
  0
LINE
  5
93
330
1F
100
AcDbEntity
  8
0
  6
HIDDEN
 62
     7
370
    18
100
AcDbLine
 10
48.0038372985
 20
25.2275242688
 30
0.0
 11
48.0038372985
 21
31.3672019357
 31
0.0
  0
LINE
  5
94
330
1F
100
AcDbEntity
  8
0
  6
HIDDEN
 62
     7
370
    18
100
AcDbLine
 10
117.9961627015
 20
31.3672019357
 30
0.0
 11
117.9961627015
 21
25.2275242688
 31
0.0
  0
CIRCLE
  5
95
330
1F
100
AcDbEntity
  8
0
  6
Continuous
 62
     7
370
    25
100
AcDbCircle
 10
83.0
 20
158.0
 30
0.0
 40
42.80597394935245
  0
CIRCLE
  5
96
330
1F
100
AcDbEntity
  8
0
  6
Continuous
 62
     7
370
    25
100
AcDbCircle
 10
83.0
 20
158.0
 30
0.0
 40
50.00000000000003
  0
ARC
  5
97
330
1F
100
AcDbEntity
  8
0
  6
Continuous
 62
     7
370
    25
100
AcDbCircle
 10
125.2102839601
 20
181.7912509593
 30
0.0
 40
7.674597083653126
100
AcDbArc
 50
0.0
 51
90.0
  0
ARC
  5
98
330
1F
100
AcDbEntity
  8
0
  6
Continuous
 62
     7
370
    25
100
AcDbCircle
 10
40.7897160399
 20
181.7912509593
 30
0.0
 40
7.674597083653111
100
AcDbArc
 50
90.0
 51
180.0
  0
LINE
  5
99
330
1F
100
AcDbEntity
  8
0
  6
Continuous
 62
     7
370
    25
100
AcDbLine
 10
40.7897160399
 20
189.465848043
 30
0.0
 11
44.1425630421
 21
189.465848043
 31
0.0
  0
LINE
  5
9A
330
1F
100
AcDbEntity
  8
0
  6
Continuous
 62
     7
370
    25
100
AcDbLine
 10
121.8574369579
 20
189.465848043
 30
0.0
 11
125.2102839601
 21
189.465848043
 31
0.0
  0
LINE
  5
9B
330
1F
100
AcDbEntity
  8
0
  6
Continuous
 62
     7
370
    25
100
AcDbLine
 10
129.3609349739
 20
139.2739831159
 30
0.0
 11
131.349961627
 21
139.2739831159
 31
0.0
  0
LINE
  5
9C
330
1F
100
AcDbEntity
  8
0
  6
Continuous
 62
     7
370
    25
100
AcDbLine
 10
131.349961627
 20
176.7260168841
 30
0.0
 11
129.3609349739
 21
176.7260168841
 31
0.0
  0
LINE
  5
9D
330
1F
100
AcDbEntity
  8
0
  6
Continuous
 62
     7
370
    25
100
AcDbLine
 10
36.6390650261
 20
176.7260168841
 30
0.0
 11
34.650038373
 21
176.7260168841
 31
0.0
  0
LINE
  5
9E
330
1F
100
AcDbEntity
  8
0
  6
Continuous
 62
     7
370
    25
100
AcDbLine
 10
34.650038373
 20
139.2739831159
 30
0.0
 11
36.6390650261
 21
139.2739831159
 31
0.0
  0
LINE
  5
9F
330
1F
100
AcDbEntity
  8
0
  6
Continuous
 62
     7
370
    25
100
AcDbLine
 10
33.1151189563
 20
176.7260168841
 30
0.0
 11
33.1151189563
 21
181.7912509593
 31
0.0
  0
LINE
  5
A0
330
1F
100
AcDbEntity
  8
0
  6
Continuous
 62
     7
370
    25
100
AcDbLine
 10
34.650038373
 20
176.7260168841
 30
0.0
 11
33.1151189563
 21
176.7260168841
 31
0.0
  0
LINE
  5
A1
330
1F
100
AcDbEntity
  8
0
  6
Continuous
 62
     7
370
    25
100
AcDbLine
 10
132.8848810437
 20
181.7912509593
 30
0.0
 11
132.8848810437
 21
176.7260168841
 31
0.0
  0
LINE
  5
A2
330
1F
100
AcDbEntity
  8
0
  6
Continuous
 62
     7
370
    25
100
AcDbLine
 10
132.8848810437
 20
176.7260168841
 30
0.0
 11
131.349961627
 21
176.7260168841
 31
0.0
  0
LINE
  5
A3
330
1F
100
AcDbEntity
  8
0
  6
Continuous
 62
     7
370
    25
100
AcDbLine
 10
132.8848810437
 20
169.9723714505
 30
0.0
 11
132.8848810437
 21
161.390964944
 31
0.0
  0
LINE
  5
A4
330
1F
100
AcDbEntity
  8
0
  6
Continuous
 62
     7
370
    25
100
AcDbLine
 10
132.8848810437
 20
154.609035056
 30
0.0
 11
132.8848810437
 21
146.0276285495
 31
0.0
  0
LINE
  5
A5
330
1F
100
AcDbEntity
  8
0
  6
Continuous
 62
     7
370
    25
100
AcDbLine
 10
132.8848810437
 20
146.0276285495
 30
0.0
 11
131.5454665427
 21
146.0276285495
 31
0.0
  0
LINE
  5
A6
330
1F
100
AcDbEntity
  8
0
  6
Continuous
 62
     7
370
    25
100
AcDbLine
 10
131.5454665427
 20
169.9723714505
 30
0.0
 11
132.8848810437
 21
169.9723714505
 31
0.0
  0
LINE
  5
A7
330
1F
100
AcDbEntity
  8
0
  6
Continuous
 62
     7
370
    25
100
AcDbLine
 10
33.1151189563
 20
146.0276285495
 30
0.0
 11
33.1151189563
 21
154.609035056
 31
0.0
  0
LINE
  5
A8
330
1F
100
AcDbEntity
  8
0
  6
Continuous
 62
     7
370
    25
100
AcDbLine
 10
33.1151189563
 20
161.390964944
 30
0.0
 11
33.1151189563
 21
169.9723714505
 31
0.0
  0
LINE
  5
A9
330
1F
100
AcDbEntity
  8
0
  6
Continuous
 62
     7
370
    25
100
AcDbLine
 10
33.1151189563
 20
169.9723714505
 30
0.0
 11
34.4545334573
 21
169.9723714505
 31
0.0
  0
LINE
  5
AA
330
1F
100
AcDbEntity
  8
0
  6
Continuous
 62
     7
370
    25
100
AcDbLine
 10
34.4545334573
 20
146.0276285495
 30
0.0
 11
33.1151189563
 21
146.0276285495
 31
0.0
  0
LINE
  5
AB
330
1F
100
AcDbEntity
  8
0
  6
Continuous
 62
     7
370
    25
100
AcDbLine
 10
33.1151189563
 20
134.2087490407
 30
0.0
 11
33.1151189563
 21
139.2739831159
 31
0.0
  0
LINE
  5
AC
330
1F
100
AcDbEntity
  8
0
  6
Continuous
 62
     7
370
    25
100
AcDbLine
 10
33.1151189563
 20
139.2739831159
 30
0.0
 11
34.650038373
 21
139.2739831159
 31
0.0
  0
LINE
  5
AD
330
1F
100
AcDbEntity
  8
0
  6
Continuous
 62
     7
370
    25
100
AcDbLine
 10
132.8848810437
 20
139.2739831159
 30
0.0
 11
132.8848810437
 21
134.2087490407
 31
0.0
  0
LINE
  5
AE
330
1F
100
AcDbEntity
  8
0
  6
Continuous
 62
     7
370
    25
100
AcDbLine
 10
131.349961627
 20
139.2739831159
 30
0.0
 11
132.8848810437
 21
139.2739831159
 31
0.0
  0
ARC
  5
AF
330
1F
100
AcDbEntity
  8
0
  6
Continuous
 62
     7
370
    25
100
AcDbCircle
 10
40.7897160399
 20
134.2087490407
 30
0.0
 40
7.674597083653126
100
AcDbArc
 50
180.0
 51
270.0
  0
ARC
  5
B0
330
1F
100
AcDbEntity
  8
0
  6
Continuous
 62
     7
370
    25
100
AcDbCircle
 10
125.2102839601
 20
134.2087490407
 30
0.0
 40
7.674597083653126
100
AcDbArc
 50
270.0
 51
0.0
  0
LINE
  5
B1
330
1F
100
AcDbEntity
  8
0
  6
Continuous
 62
     7
370
    25
100
AcDbLine
 10
125.2102839601
 20
126.534151957
 30
0.0
 11
121.8574369579
 21
126.534151957
 31
0.0
  0
LINE
  5
B2
330
1F
100
AcDbEntity
  8
0
  6
Continuous
 62
     7
370
    25
100
AcDbLine
 10
44.1425630421
 20
126.534151957
 30
0.0
 11
40.7897160399
 21
126.534151957
 31
0.0
  0
SPLINE
  5
B3
330
1F
100
AcDbEntity
  8
0
  6
HIDDEN
 62
     7
370
    18
100
AcDbSpline
210
0.0
220
0.0
230
1.0
 70
     8
 71
     3
 72
    21
 73
    17
 74
     0
 42
0.00000001
 43
0.00000001
 40
0.0
 40
0.0
 40
0.0
 40
0.0
 40
0.0854632270445832
 40
0.1697581667117638
 40
0.2531637783727705
 40
0.3359676120034064
 40
0.4184630924970143
 40
0.5009465009622501
 40
0.6258217880371307
 40
0.7490612767165226
 40
0.8739638578396592
 40
0.9370586268073977
 40
0.9528424194143403
 40
0.9686256102456793
 40
0.9891574542535927
 40
0.9999999999999999
 40
0.9999999999999999
 40
0.9999999999999999
 40
0.9999999999999999
 10
47.64466094067245
 20
154.4638102243257
 30
0.0
 10
47.64526191971284
 20
154.4130386484536
 30
0.0
 10
47.64645566237451
 20
154.3121895471595
 30
0.0
 10
47.65627948239891
 20
154.1615411158335
 30
0.0
 10
47.67199806275524
 20
154.0129137105938
 30
0.0
 10
47.69415132660814
 20
153.8662623655358
 30
0.0
 10
47.72259504862662
 20
153.7216050467243
 30
0.0
 10
47.76321778237783
 20
153.5546996720192
 30
0.0
 10
47.82007951677274
 20
153.3684756574245
 30
0.0
 10
47.89873144814876
 20
153.1664400052403
 30
0.0
 10
47.97617135263188
 20
153.0063634338601
 30
0.0
 10
48.03232589736491
 20
152.9068264835946
 30
0.0
 10
48.05924122465606
 20
152.8613400629339
 30
0.0
 10
48.07386413990756
 20
152.836304141007
 30
0.0
 10
48.088221787399
 20
152.8139721212472
 30
0.0
 10
48.09321432870681
 20
152.7959585371346
 30
0.0
 10
48.094939680433
 20
152.7897332970159
 30
0.0
  0
LINE
  5
B4
330
1F
100
AcDbEntity
  8
0
  6
HIDDEN
 62
     7
370
    18
100
AcDbLine
 10
47.6446609407
 20
161.5361897757
 30
0.0
 11
47.6446609407
 21
154.4638102243
 31
0.0
  0
SPLINE
  5
B5
330
1F
100
AcDbEntity
  8
0
  6
HIDDEN
 62
     7
370
    18
100
AcDbSpline
210
0.0
220
0.0
230
1.0
 70
     8
 71
     3
 72
    19
 73
    15
 74
     0
 42
0.00000001
 43
0.00000001
 40
0.0
 40
0.0
 40
0.0
 40
0.0
 40
0.0061542008075808
 40
0.0166224115093144
 40
0.0316793168158201
 40
0.0474713979952409
 40
0.0632634926502964
 40
0.126250177187231
 40
0.2508973324390212
 40
0.3742588849165793
 40
0.499336983939457
 40
0.6642020121526886
 40
0.8303163860740324
 40
1.0
 40
1.0
 40
1.0
 40
1.0
 10
48.09493968043336
 20
163.2102667029842
 30
0.0
 10
48.0941715662681
 20
163.2066626522121
 30
0.0
 10
48.0920969005007
 20
163.1969281607797
 30
0.0
 10
48.08360299807123
 20
163.1807743308282
 30
0.0
 10
48.07238382351557
 20
163.1605567195487
 30
0.0
 10
48.05903013319917
 20
163.1382178965254
 30
0.0
 10
48.03211616266146
 20
163.0929159276225
 30
0.0
 10
47.97611509800262
 20
162.9934212050312
 30
0.0
 10
47.89872774729442
 20
162.833580770132
 30
0.0
 10
47.82008359069141
 20
162.6315141139851
 30
0.0
 10
47.7489677326534
 20
162.3987761990142
 30
0.0
 10
47.69108982258998
 20
162.1337783513785
 30
0.0
 10
47.65172866541087
 20
161.8368889378503
 30
0.0
 10
47.64703348414711
 20
161.6371305821517
 30
0.0
 10
47.64466094067244
 20
161.5361897756742
 30
0.0
  0
SPLINE
  5
B6
330
1F
100
AcDbEntity
  8
0
  6
HIDDEN
 62
     7
370
    18
100
AcDbSpline
210
0.0
220
0.0
230
1.0
 70
     8
 71
     3
 72
    21
 73
    17
 74
     0
 42
0.00000001
 43
0.00000001
 40
0.0
 40
0.0
 40
0.0
 40
0.0
 40
0.0854632270698503
 40
0.1697581667520648
 40
0.2531637784179088
 40
0.3359676120433385
 40
0.4184630925219471
 40
0.5009465009627594
 40
0.6258217881577796
 40
0.7490612767167617
 40
0.8739638578395243
 40
0.9370586268070282
 40
0.9528424194140599
 40
0.9686256102454083
 40
0.9891574542489343
 40
0.9999999999999999
 40
0.9999999999999999
 40
0.9999999999999999
 40
0.9999999999999999
 10
118.3553390593275
 20
161.5361897756745
 30
0.0
 10
118.3547380802872
 20
161.5869613515616
 30
0.0
 10
118.3535443376256
 20
161.6878104528794
 30
0.0
 10
118.3437205176014
 20
161.8384588842322
 30
0.0
 10
118.3280019372455
 20
161.9870862894807
 30
0.0
 10
118.3058486733926
 20
162.1337376345291
 30
0.0
 10
118.2774049513765
 20
162.2783949533141
 30
0.0
 10
118.2367822175963
 20
162.4453003280586
 30
0.0
 10
118.1799204832139
 20
162.631524342644
 30
0.0
 10
118.1012685518206
 20
162.8335599948156
 30
0.0
 10
118.0238286473726
 20
162.9936365661377
 30
0.0
 10
117.9676741026366
 20
163.0931735163993
 30
0.0
 10
117.9407587753496
 20
163.1386599370644
 30
0.0
 10
117.9261358600978
 20
163.1636958589872
 30
0.0
 10
117.9117782126045
 20
163.1860278787464
 30
0.0
 10
117.9067856713003
 20
163.204041462861
 30
0.0
 10
117.9050603195747
 20
163.210266702983
 30
0.0
  0
LINE
  5
B7
330
1F
100
AcDbEntity
  8
0
  6
HIDDEN
 62
     7
370
    18
100
AcDbLine
 10
118.3553390593
 20
154.4638102243
 30
0.0
 11
118.3553390593
 21
161.5361897757
 31
0.0
  0
SPLINE
  5
B8
330
1F
100
AcDbEntity
  8
0
  6
HIDDEN
 62
     7
370
    18
100
AcDbSpline
210
0.0
220
0.0
230
1.0
 70
     8
 71
     3
 72
    19
 73
    15
 74
     0
 42
0.00000001
 43
0.00000001
 40
0.0
 40
0.0
 40
0.0
 40
0.0
 40
0.0061542008085793
 40
0.0166224115105323
 40
0.031679316816722
 40
0.0474713979961561
 40
0.0632634926512393
 40
0.1262501771880049
 40
0.2508973324399081
 40
0.3742588849728585
 40
0.4993369839411086
 40
0.6642020122038694
 40
0.8303163861253698
 40
1.0
 40
1.0
 40
1.0
 40
1.0
 10
117.905060319574
 20
152.7897332970169
 30
0.0
 10
117.9058284337389
 20
152.7933373477897
 30
0.0
 10
117.9079030995052
 20
152.8030718392231
 30
0.0
 10
117.9163970019342
 20
152.819225669176
 30
0.0
 10
117.9276161764894
 20
152.8394432804555
 30
0.0
 10
117.9409698668054
 20
152.861782103479
 30
0.0
 10
117.9678838373424
 20
152.9070840723821
 30
0.0
 10
118.0238849020002
 20
153.0065787949737
 30
0.0
 10
118.1012722527191
 20
153.1664192299023
 30
0.0
 10
118.179916409329
 20
153.3684858860443
 30
0.0
 10
118.2510322673636
 20
153.6012238010491
 30
0.0
 10
118.3089101774008
 20
153.866221648688
 30
0.0
 10
118.348271334587
 20
154.1631110622114
 30
0.0
 10
118.3529665158524
 20
154.3628694178789
 30
0.0
 10
118.3553390593276
 20
154.4638102243256
 30
0.0
  0
ARC
  5
B9
330
1F
100
AcDbEntity
  8
0
  6
HIDDEN
 62
     7
370
    18
100
AcDbCircle
 10
116.8204196426
 20
155.6976208749
 30
0.0
 40
1.534919416730631
100
AcDbArc
 50
269.9999999988
 51
0.0
  0
ARC
  5
BA
330
1F
100
AcDbEntity
  8
0
  6
HIDDEN
 62
     7
370
    18
100
AcDbCircle
 10
49.1795803574
 20
160.3023791251
 30
0.0
 40
1.534919416730624
100
AcDbArc
 50
90.0
 51
180.0
  0
ARC
  5
BB
330
1F
100
AcDbEntity
  8
0
  6
HIDDEN
 62
     7
370
    18
100
AcDbCircle
 10
49.1795803574
 20
155.6976208749
 30
0.0
 40
1.534919416730624
100
AcDbArc
 50
180.0
 51
270.0
  0
ARC
  5
BC
330
1F
100
AcDbEntity
  8
0
  6
HIDDEN
 62
     7
370
    18
100
AcDbCircle
 10
116.8204196426
 20
160.3023791251
 30
0.0
 40
1.534919416730631
100
AcDbArc
 50
0.0
 51
90.0
  0
SPLINE
  5
BD
330
1F
100
AcDbEntity
  8
0
  6
HIDDEN
 62
     7
370
    18
100
AcDbSpline
210
0.0
220
0.0
230
1.0
 70
    24
 71
     3
 72
     8
 73
     4
 74
     0
 42
0.00000001
 43
0.00000001
 40
0.0
 40
0.0
 40
0.0
 40
0.0
 40
1.0
 40
1.0
 40
1.0
 40
1.0
 10
113.0800121415408
 20
161.8372985418266
 30
0.0
 10
114.3278674684983
 20
161.8372985418266
 30
0.0
 10
115.5745558406102
 20
161.8372985418266
 30
0.0
 10
116.8204196425969
 20
161.8372985418266
 30
0.0
  0
SPLINE
  5
BE
330
1F
100
AcDbEntity
  8
0
  6
HIDDEN
 62
     7
370
    18
100
AcDbSpline
210
0.0
220
0.0
230
1.0
 70
    24
 71
     3
 72
     8
 73
     4
 74
     0
 42
0.00000001
 43
0.00000001
 40
0.0
 40
0.0
 40
0.0
 40
0.0
 40
1.0
 40
1.0
 40
1.0
 40
1.0
 10
52.91998785845925
 20
154.1627014581734
 30
0.0
 10
51.6721325315017
 20
154.1627014581734
 30
0.0
 10
50.42544415938979
 20
154.1627014581734
 30
0.0
 10
49.17958035740315
 20
154.1627014581734
 30
0.0
  0
SPLINE
  5
BF
330
1F
100
AcDbEntity
  8
0
  6
HIDDEN
 62
     7
370
    18
100
AcDbSpline
210
0.0
220
0.0
230
1.0
 70
    24
 71
     3
 72
     8
 73
     4
 74
     0
 42
0.00000001
 43
0.00000001
 40
0.0
 40
0.0
 40
0.0
 40
0.0
 40
1.0
 40
1.0
 40
1.0
 40
1.0
 10
116.8204196425658
 20
154.1627014581734
 30
0.0
 10
115.5745558405895
 20
154.1627014581734
 30
0.0
 10
114.327867468488
 20
154.1627014581734
 30
0.0
 10
113.0800121415408
 20
154.1627014581734
 30
0.0
  0
SPLINE
  5
C0
330
1F
100
AcDbEntity
  8
0
  6
HIDDEN
 62
     7
370
    18
100
AcDbSpline
210
0.0
220
0.0
230
1.0
 70
    24
 71
     3
 72
     8
 73
     4
 74
     0
 42
0.00000001
 43
0.00000001
 40
0.0
 40
0.0
 40
0.0
 40
0.0
 40
1.0
 40
1.0
 40
1.0
 40
1.0
 10
49.17958035740308
 20
161.8372985418266
 30
0.0
 10
50.42544415938972
 20
161.8372985418266
 30
0.0
 10
51.67213253150162
 20
161.8372985418266
 30
0.0
 10
52.91998785845925
 20
161.8372985418266
 30
0.0
  0
SPLINE
  5
C1
330
1F
100
AcDbEntity
  8
0
  6
HIDDEN
 62
     7
370
    18
100
AcDbSpline
210
0.0
220
0.0
230
1.0
 70
     8
 71
     3
 72
    16
 73
    12
 74
     0
 42
0.00000001
 43
0.00000001
 40
0.0
 40
0.0
 40
0.0
 40
0.0
 40
0.0822604460136709
 40
0.1644526257174846
 40
0.2469211374971052
 40
0.3300051935774081
 40
0.414034467832513
 40
0.4993254666279245
 40
0.6642916841767181
 40
0.8305432408100002
 40
1.0
 40
1.0
 40
1.0
 40
1.0
 10
88.19291315025113
 20
189.0013671315547
 30
0.0
 10
88.15389455940395
 20
189.0260405792663
 30
0.0
 10
88.07588975846294
 20
189.0753669986854
 30
0.0
 10
87.95127055679743
 20
189.1422366511825
 30
0.0
 10
87.82145209066535
 20
189.2035984313464
 30
0.0
 10
87.68592523934751
 20
189.2588981368593
 30
0.0
 10
87.54490974501688
 20
189.3081872727213
 30
0.0
 10
87.35379732100101
 20
189.3645715526509
 30
0.0
 10
87.10929988471176
 20
189.4184116313392
 30
0.0
 10
86.8096415951595
 20
189.4585875230982
 30
0.0
 10
86.60823798471499
 20
189.4634125140197
 30
0.0
 10
86.50657472078483
 20
189.4658480429777
 30
0.0
  0
SPLINE
  5
C2
330
1F
100
AcDbEntity
  8
0
  6
HIDDEN
 62
     7
370
    18
100
AcDbSpline
210
0.0
220
0.0
230
1.0
 70
     8
 71
     3
 72
    16
 73
    12
 74
     0
 42
0.00000001
 43
0.00000001
 40
0.0
 40
0.0
 40
0.0
 40
0.0
 40
0.0822604460078717
 40
0.164452625708114
 40
0.2469211374864776
 40
0.3300051935679836
 40
0.4140344678267499
 40
0.4993254666283288
 40
0.6642916841769627
 40
0.8305432408101074
 40
1.0
 40
1.0
 40
1.0
 40
1.0
 10
77.80708684974893
 20
126.9986328684453
 30
0.0
 10
77.84610544059252
 20
126.9739594207347
 30
0.0
 10
77.92411024152744
 20
126.9246330013169
 30
0.0
 10
78.04872944318683
 20
126.8577633488217
 30
0.0
 10
78.17854790931686
 20
126.7964015686584
 30
0.0
 10
78.3140747606369
 20
126.7411018631449
 30
0.0
 10
78.45509025497402
 20
126.6918127272812
 30
0.0
 10
78.64620267899558
 20
126.63542844735
 30
0.0
 10
78.89070011528828
 20
126.5815883686608
 30
0.0
 10
79.19035840484045
 20
126.5414124769018
 30
0.0
 10
79.39176201528491
 20
126.5365874859804
 30
0.0
 10
79.49342527921506
 20
126.5341519570223
 30
0.0
  0
SPLINE
  5
C3
330
1F
100
AcDbEntity
  8
0
  6
HIDDEN
 62
     7
370
    18
100
AcDbSpline
210
0.0
220
0.0
230
1.0
 70
     8
 71
     3
 72
    16
 73
    12
 74
     0
 42
0.00000001
 43
0.00000001
 40
0.0
 40
0.0
 40
0.0
 40
0.0
 40
0.0852825520603942
 40
0.169537383681361
 40
0.2529946799485623
 40
0.3358919239851199
 40
0.4184720871333582
 40
0.5009815979170629
 40
0.6701851596765844
 40
0.835634035562596
 40
1.0
 40
1.0
 40
1.0
 40
1.0
 10
79.49342527921506
 20
189.4658480429777
 30
0.0
 10
79.44234718936713
 20
189.4652323943022
 30
0.0
 10
79.34080653999577
 20
189.464008515992
 30
0.0
 10
79.18896756394041
 20
189.4539665794196
 30
0.0
 10
79.03895703048669
 20
189.4379167757729
 30
0.0
 10
78.89080643415372
 20
189.4153195108503
 30
0.0
 10
78.74462613200058
 20
189.3863294926471
 30
0.0
 10
78.55013447090714
 20
189.3386838859133
 30
0.0
 10
78.3138985328312
 20
189.26255252542
 30
0.0
 10
78.04529234421109
 20
189.1465580808811
 30
0.0
 10
77.88631468590596
 20
189.0496580610753
 30
0.0
 10
77.80708684974886
 20
189.0013671315532
 30
0.0
  0
SPLINE
  5
C4
330
1F
100
AcDbEntity
  8
0
  6
HIDDEN
 62
     7
370
    18
100
AcDbSpline
210
0.0
220
0.0
230
1.0
 70
     8
 71
     3
 72
    16
 73
    12
 74
     0
 42
0.00000001
 43
0.00000001
 40
0.0
 40
0.0
 40
0.0
 40
0.0
 40
0.0852825520503116
 40
0.169537383665235
 40
0.2529946799304498
 40
0.3358919239690059
 40
0.4184720871231279
 40
0.5009815979164955
 40
0.670185159655662
 40
0.8356340355417714
 40
0.9999999999999999
 40
0.9999999999999999
 40
0.9999999999999999
 40
0.9999999999999999
 10
86.50657472078493
 20
126.5341519570223
 30
0.0
 10
86.5576528106268
 20
126.5347676056978
 30
0.0
 10
86.65919345998849
 20
126.5359914840081
 30
0.0
 10
86.81103243603296
 20
126.5460334205804
 30
0.0
 10
86.96104296948297
 20
126.562083224227
 30
0.0
 10
87.10919356581948
 20
126.5846804891496
 30
0.0
 10
87.25537386798327
 20
126.6136705073533
 30
0.0
 10
87.44986552907596
 20
126.6613161140803
 30
0.0
 10
87.68610146714872
 20
126.7374474745669
 30
0.0
 10
87.95470765576744
 20
126.8534419191081
 30
0.0
 10
88.11368531408351
 20
126.9503419389191
 30
0.0
 10
88.19291315025107
 20
126.9986328684468
 30
0.0
  0
SPLINE
  5
C5
330
1F
100
AcDbEntity
  8
0
  6
HIDDEN
 62
     7
370
    18
100
AcDbSpline
210
0.0
220
0.0
230
1.0
 70
    24
 71
     3
 72
     8
 73
     4
 74
     0
 42
0.00000001
 43
0.00000001
 40
0.0
 40
0.0
 40
0.0
 40
0.0
 40
1.0
 40
1.0
 40
1.0
 40
1.0
 10
86.50657472078491
 20
189.4658480429777
 30
0.0
 10
84.16885824026163
 20
189.4658480429777
 30
0.0
 10
81.83114175973837
 20
189.4658480429777
 30
0.0
 10
79.49342527921509
 20
189.4658480429777
 30
0.0
  0
SPLINE
  5
C6
330
1F
100
AcDbEntity
  8
0
  6
HIDDEN
 62
     7
370
    18
100
AcDbSpline
210
0.0
220
0.0
230
1.0
 70
    24
 71
     3
 72
    10
 73
     6
 74
     0
 42
0.00000001
 43
0.00000001
 40
0.0
 40
0.0
 40
0.0
 40
0.0
 40
0.5
 40
0.5
 40
1.0
 40
1.0
 40
1.0
 40
1.0
 10
79.4934252792151
 20
126.5341519570222
 30
0.0
 10
80.65872096900952
 20
126.5341519570222
 30
0.0
 10
81.82753510240546
 20
126.5341519570222
 30
0.0
 10
84.17246489759454
 20
126.5341519570222
 30
0.0
 10
85.34127903099049
 20
126.5341519570222
 30
0.0
 10
86.50657472078493
 20
126.5341519570222
 30
0.0
  0
LINE
  5
C7
330
1F
100
AcDbEntity
  8
0
  6
HIDDEN
 62
     7
370
    18
100
AcDbLine
 10
86.5951093786
 20
189.465848043
 30
0.0
 11
88.3455920006
 21
189.465848043
 31
0.0
  0
LINE
  5
C8
330
1F
100
AcDbEntity
  8
0
  6
HIDDEN
 62
     7
370
    18
100
AcDbLine
 10
77.6544079994
 20
189.465848043
 30
0.0
 11
79.4045315458
 21
189.465848043
 31
0.0
  0
LINE
  5
C9
330
1F
100
AcDbEntity
  8
0
  6
HIDDEN
 62
     7
370
    18
100
AcDbLine
 10
79.4048906214
 20
126.534151957
 30
0.0
 11
77.6544079994
 21
126.534151957
 31
0.0
  0
LINE
  5
CA
330
1F
100
AcDbEntity
  8
0
  6
HIDDEN
 62
     7
370
    18
100
AcDbLine
 10
88.3455920006
 20
126.534151957
 30
0.0
 11
86.5954684542
 21
126.534151957
 31
0.0
  0
SPLINE
  5
CB
330
1F
100
AcDbEntity
  8
0
  6
HIDDEN
 62
     7
370
    18
100
AcDbSpline
210
0.0
220
0.0
230
1.0
 70
     8
 71
     3
 72
    14
 73
    10
 74
     0
 42
0.00000001
 43
0.00000001
 40
0.0
 40
0.0
 40
0.0
 40
0.0
 40
0.25
 40
0.25
 40
0.5
 40
0.5
 40
0.75
 40
0.75
 40
1.0
 40
1.0
 40
1.0
 40
1.0
 10
47.64466094067253
 20
160.7136595432557
 30
0.0
 10
47.64466094067254
 20
160.9797026023118
 30
0.0
 10
47.69514991879007
 20
161.2369252070613
 30
0.0
 10
47.87257935434468
 20
161.7368918742962
 30
0.0
 10
47.99556418146926
 20
161.9677219191182
 30
0.0
 10
48.2860918624421
 20
162.404478885596
 30
0.0
 10
48.45410334195881
 20
162.6098319197227
 30
0.0
 10
48.80722220435447
 20
162.9998468767904
 30
0.0
 10
48.9943940736704
 20
163.1870307488885
 30
0.0
 10
49.17958035740315
 20
163.3722179585572
 30
0.0
  0
SPLINE
  5
CC
330
1F
100
AcDbEntity
  8
0
  6
HIDDEN
 62
     7
370
    18
100
AcDbSpline
210
0.0
220
0.0
230
1.0
 70
     8
 71
     3
 72
    14
 73
    10
 74
     0
 42
0.00000001
 43
0.00000001
 40
0.0
 40
0.0
 40
0.0
 40
0.0
 40
0.25
 40
0.25
 40
0.5
 40
0.5
 40
0.75
 40
0.75
 40
1.0
 40
1.0
 40
1.0
 40
1.0
 10
118.3553390593275
 20
160.7136595432557
 30
0.0
 10
118.3553390593275
 20
160.9797026023118
 30
0.0
 10
118.3048500812099
 20
161.2369252070613
 30
0.0
 10
118.1274206456553
 20
161.7368918742962
 30
0.0
 10
118.0044358185308
 20
161.9677219191182
 30
0.0
 10
117.7139081375579
 20
162.404478885596
 30
0.0
 10
117.5458966580412
 20
162.6098319197227
 30
0.0
 10
117.1927777956456
 20
162.9998468767904
 30
0.0
 10
117.0056059263296
 20
163.1870307488885
 30
0.0
 10
116.8204196425968
 20
163.3722179585572
 30
0.0
  0
SPLINE
  5
CD
330
1F
100
AcDbEntity
  8
0
  6
HIDDEN
 62
     7
370
    18
100
AcDbSpline
210
0.0
220
0.0
230
1.0
 70
     8
 71
     3
 72
    14
 73
    10
 74
     0
 42
0.00000001
 43
0.00000001
 40
0.0
 40
0.0
 40
0.0
 40
0.0
 40
0.25
 40
0.25
 40
0.5
 40
0.5
 40
0.75
 40
0.75
 40
1.0
 40
1.0
 40
1.0
 40
1.0
 10
118.3553390593275
 20
155.2863404567443
 30
0.0
 10
118.3553390593275
 20
155.0202973976882
 30
0.0
 10
118.3048500812099
 20
154.7630747929387
 30
0.0
 10
118.1274206456553
 20
154.2631081257038
 30
0.0
 10
118.0044358185308
 20
154.0322780808818
 30
0.0
 10
117.7139081375579
 20
153.595521114404
 30
0.0
 10
117.5458966580412
 20
153.3901680802773
 30
0.0
 10
117.1927777956456
 20
153.0001531232096
 30
0.0
 10
117.0056059263296
 20
152.8129692511115
 30
0.0
 10
116.8204196425968
 20
152.6277820414428
 30
0.0
  0
SPLINE
  5
CE
330
1F
100
AcDbEntity
  8
0
  6
HIDDEN
 62
     7
370
    18
100
AcDbSpline
210
0.0
220
0.0
230
1.0
 70
     8
 71
     3
 72
    14
 73
    10
 74
     0
 42
0.00000001
 43
0.00000001
 40
0.0
 40
0.0
 40
0.0
 40
0.0
 40
0.25
 40
0.25
 40
0.5
 40
0.5
 40
0.75
 40
0.75
 40
1.0
 40
1.0
 40
1.0
 40
1.0
 10
47.64466094067253
 20
155.2863404567443
 30
0.0
 10
47.64466094067254
 20
155.0202973976882
 30
0.0
 10
47.69514991879007
 20
154.7630747929387
 30
0.0
 10
47.87257935434468
 20
154.2631081257038
 30
0.0
 10
47.99556418146926
 20
154.0322780808818
 30
0.0
 10
48.2860918624421
 20
153.595521114404
 30
0.0
 10
48.45410334195881
 20
153.3901680802773
 30
0.0
 10
48.80722220435447
 20
153.0001531232096
 30
0.0
 10
48.9943940736704
 20
152.8129692511115
 30
0.0
 10
49.17958035740315
 20
152.6277820414428
 30
0.0
  0
SPLINE
  5
CF
330
1F
100
AcDbEntity
  8
0
  6
HIDDEN
 62
     7
370
    18
100
AcDbSpline
210
0.0
220
0.0
230
1.0
 70
    24
 71
     3
 72
     8
 73
     4
 74
     0
 42
0.00000001
 43
0.00000001
 40
0.0
 40
0.0
 40
0.0
 40
0.0
 40
0.0005232758832182
 40
0.0005232758832182
 40
0.0005232758832182
 40
0.0005232758832182
 10
88.34559200061487
 20
189.4658480429777
 30
0.0
 10
88.613310677425
 20
189.4658480429777
 30
0.0
 10
88.88104084560648
 20
189.4658480429777
 30
0.0
 10
89.14876961675928
 20
189.4658480429777
 30
0.0
  0
SPLINE
  5
D0
330
1F
100
AcDbEntity
  8
0
  6
HIDDEN
 62
     7
370
    18
100
AcDbSpline
210
0.0
220
0.0
230
1.0
 70
    24
 71
     3
 72
     8
 73
     4
 74
     0
 42
0.00000001
 43
0.00000001
 40
0.0
 40
0.0
 40
0.0
 40
0.0
 40
0.0005232758832182
 40
0.0005232758832182
 40
0.0005232758832182
 40
0.0005232758832182
 10
76.85123038324072
 20
189.4658480429777
 30
0.0
 10
77.11895915439352
 20
189.4658480429777
 30
0.0
 10
77.38668932257501
 20
189.4658480429777
 30
0.0
 10
77.65440799938514
 20
189.4658480429777
 30
0.0
  0
SPLINE
  5
D1
330
1F
100
AcDbEntity
  8
0
  6
HIDDEN
 62
     7
370
    18
100
AcDbSpline
210
0.0
220
0.0
230
1.0
 70
    24
 71
     3
 72
     8
 73
     4
 74
     0
 42
0.00000001
 43
0.00000001
 40
0.0
 40
0.0
 40
0.0
 40
0.0
 40
0.0005232758832181
 40
0.0005232758832181
 40
0.0005232758832181
 40
0.0005232758832181
 10
77.65440799938514
 20
126.5341519570222
 30
0.0
 10
77.38668932257501
 20
126.5341519570222
 30
0.0
 10
77.11895915439354
 20
126.5341519570222
 30
0.0
 10
76.85123038324073
 20
126.5341519570222
 30
0.0
  0
SPLINE
  5
D2
330
1F
100
AcDbEntity
  8
0
  6
HIDDEN
 62
     7
370
    18
100
AcDbSpline
210
0.0
220
0.0
230
1.0
 70
    24
 71
     3
 72
     8
 73
     4
 74
     0
 42
0.00000001
 43
0.00000001
 40
0.0
 40
0.0
 40
0.0
 40
0.0
 40
0.0005232758832181
 40
0.0005232758832181
 40
0.0005232758832181
 40
0.0005232758832181
 10
89.14876961675927
 20
126.5341519570222
 30
0.0
 10
88.88104084560646
 20
126.5341519570222
 30
0.0
 10
88.61331067742499
 20
126.5341519570222
 30
0.0
 10
88.34559200061487
 20
126.5341519570222
 30
0.0
  0
LINE
  5
D3
330
1F
100
AcDbEntity
  8
0
  6
HIDDEN
 62
     7
370
    18
100
AcDbLine
 10
44.1425630421
 20
189.465848043
 30
0.0
 11
76.8512303832
 21
189.465848043
 31
0.0
  0
LINE
  5
D4
330
1F
100
AcDbEntity
  8
0
  6
HIDDEN
 62
     7
370
    18
100
AcDbLine
 10
89.1487696168
 20
189.465848043
 30
0.0
 11
121.8574369579
 21
189.465848043
 31
0.0
  0
LINE
  5
D5
330
1F
100
AcDbEntity
  8
0
  6
HIDDEN
 62
     7
370
    18
100
AcDbLine
 10
131.349961627
 20
146.0276285495
 30
0.0
 11
121.3729854183
 21
146.0276285495
 31
0.0
  0
ARC
  5
D6
330
1F
100
AcDbEntity
  8
0
  6
HIDDEN
 62
     7
370
    18
100
AcDbCircle
 10
121.3729854183
 20
142.6508058327
 30
0.0
 40
3.376822716807396
100
AcDbArc
 50
90.0
 51
270.0
  0
LINE
  5
D7
330
1F
100
AcDbEntity
  8
0
  6
HIDDEN
 62
     7
370
    18
100
AcDbLine
 10
121.3729854183
 20
139.2739831159
 30
0.0
 11
129.3609349739
 21
139.2739831159
 31
0.0
  0
LINE
  5
D8
330
1F
100
AcDbEntity
  8
0
  6
HIDDEN
 62
     7
370
    18
100
AcDbLine
 10
129.3609349739
 20
176.7260168841
 30
0.0
 11
121.3729854183
 21
176.7260168841
 31
0.0
  0
ARC
  5
D9
330
1F
100
AcDbEntity
  8
0
  6
HIDDEN
 62
     7
370
    18
100
AcDbCircle
 10
121.3729854183
 20
173.3491941673
 30
0.0
 40
3.376822716807368
100
AcDbArc
 50
90.0
 51
270.0
  0
LINE
  5
DA
330
1F
100
AcDbEntity
  8
0
  6
HIDDEN
 62
     7
370
    18
100
AcDbLine
 10
121.3729854183
 20
169.9723714505
 30
0.0
 11
131.349961627
 21
169.9723714505
 31
0.0
  0
LINE
  5
DB
330
1F
100
AcDbEntity
  8
0
  6
HIDDEN
 62
     7
370
    18
100
AcDbLine
 10
34.650038373
 20
169.9723714505
 30
0.0
 11
44.6270145817
 21
169.9723714505
 31
0.0
  0
ARC
  5
DC
330
1F
100
AcDbEntity
  8
0
  6
HIDDEN
 62
     7
370
    18
100
AcDbCircle
 10
44.6270145817
 20
173.3491941673
 30
0.0
 40
3.376822716807368
100
AcDbArc
 50
270.0
 51
90.0
  0
LINE
  5
DD
330
1F
100
AcDbEntity
  8
0
  6
HIDDEN
 62
     7
370
    18
100
AcDbLine
 10
44.6270145817
 20
176.7260168841
 30
0.0
 11
36.6390650261
 21
176.7260168841
 31
0.0
  0
LINE
  5
DE
330
1F
100
AcDbEntity
  8
0
  6
HIDDEN
 62
     7
370
    18
100
AcDbLine
 10
36.6390650261
 20
139.2739831159
 30
0.0
 11
44.6270145817
 21
139.2739831159
 31
0.0
  0
ARC
  5
DF
330
1F
100
AcDbEntity
  8
0
  6
HIDDEN
 62
     7
370
    18
100
AcDbCircle
 10
44.6270145817
 20
142.6508058327
 30
0.0
 40
3.376822716807396
100
AcDbArc
 50
270.0
 51
90.0
  0
LINE
  5
E0
330
1F
100
AcDbEntity
  8
0
  6
HIDDEN
 62
     7
370
    18
100
AcDbLine
 10
44.6270145817
 20
146.0276285495
 30
0.0
 11
34.650038373
 21
146.0276285495
 31
0.0
  0
LINE
  5
E1
330
1F
100
AcDbEntity
  8
0
  6
HIDDEN
 62
     7
370
    18
100
AcDbLine
 10
132.8848810437
 20
161.390964944
 30
0.0
 11
132.8848810437
 21
154.609035056
 31
0.0
  0
LINE
  5
E2
330
1F
100
AcDbEntity
  8
0
  6
HIDDEN
 62
     7
370
    18
100
AcDbLine
 10
131.5454665427
 20
146.0276285495
 30
0.0
 11
131.349961627
 21
146.0276285495
 31
0.0
  0
LINE
  5
E3
330
1F
100
AcDbEntity
  8
0
  6
HIDDEN
 62
     7
370
    18
100
AcDbLine
 10
131.349961627
 20
169.9723714505
 30
0.0
 11
131.5454665427
 21
169.9723714505
 31
0.0
  0
LINE
  5
E4
330
1F
100
AcDbEntity
  8
0
  6
HIDDEN
 62
     7
370
    18
100
AcDbLine
 10
33.1151189563
 20
154.609035056
 30
0.0
 11
33.1151189563
 21
161.390964944
 31
0.0
  0
LINE
  5
E5
330
1F
100
AcDbEntity
  8
0
  6
HIDDEN
 62
     7
370
    18
100
AcDbLine
 10
34.4545334573
 20
169.9723714505
 30
0.0
 11
34.650038373
 21
169.9723714505
 31
0.0
  0
LINE
  5
E6
330
1F
100
AcDbEntity
  8
0
  6
HIDDEN
 62
     7
370
    18
100
AcDbLine
 10
34.650038373
 20
146.0276285495
 30
0.0
 11
34.4545334573
 21
146.0276285495
 31
0.0
  0
LINE
  5
E7
330
1F
100
AcDbEntity
  8
0
  6
HIDDEN
 62
     7
370
    18
100
AcDbLine
 10
121.8574369579
 20
126.534151957
 30
0.0
 11
89.1487696168
 21
126.534151957
 31
0.0
  0
LINE
  5
E8
330
1F
100
AcDbEntity
  8
0
  6
HIDDEN
 62
     7
370
    18
100
AcDbLine
 10
76.8512303832
 20
126.534151957
 30
0.0
 11
44.1425630421
 21
126.534151957
 31
0.0
  0
CIRCLE
  5
E9
330
1F
100
AcDbEntity
  8
0
  6
HIDDEN
 62
     7
370
    18
100
AcDbCircle
 10
83.0
 20
158.0
 30
0.0
 40
43.86032233307752
  0
ARC
  5
EA
330
1F
100
AcDbEntity
  8
0
  6
HIDDEN
 62
     7
370
    18
100
AcDbCircle
 10
83.0
 20
158.0
 30
0.0
 40
29.02105964186739
100
AcDbArc
 50
100.1261247897
 51
169.8738752103
  0
ARC
  5
EB
330
1F
100
AcDbEntity
  8
0
  6
HIDDEN
 62
     7
370
    18
100
AcDbCircle
 10
83.0
 20
158.0
 30
0.0
 40
29.02105964186739
100
AcDbArc
 50
10.1261247897
 51
79.8738752103
  0
ARC
  5
EC
330
1F
100
AcDbEntity
  8
0
  6
HIDDEN
 62
     7
370
    18
100
AcDbCircle
 10
113.0800121415
 20
163.3722179586
 30
0.0
 40
1.534919416730617
100
AcDbArc
 50
190.1261247897
 51
270.0
  0
ARC
  5
ED
330
1F
100
AcDbEntity
  8
0
  6
HIDDEN
 62
     7
370
    18
100
AcDbCircle
 10
52.9199878585
 20
163.3722179586
 30
0.0
 40
1.534919416730617
100
AcDbArc
 50
270.0
 51
349.8738752103
  0
ARC
  5
EE
330
1F
100
AcDbEntity
  8
0
  6
HIDDEN
 62
     7
370
    18
100
AcDbCircle
 10
113.0800121415
 20
152.6277820414
 30
0.0
 40
1.534919416730619
100
AcDbArc
 50
90.0
 51
169.8738752103
  0
ARC
  5
EF
330
1F
100
AcDbEntity
  8
0
  6
HIDDEN
 62
     7
370
    18
100
AcDbCircle
 10
52.9199878585
 20
152.6277820414
 30
0.0
 40
1.534919416730619
100
AcDbArc
 50
10.1261247897
 51
90.0
  0
ARC
  5
F0
330
1F
100
AcDbEntity
  8
0
  6
HIDDEN
 62
     7
370
    18
100
AcDbCircle
 10
83.0
 20
158.0
 30
0.0
 40
29.02105964186739
100
AcDbArc
 50
280.1261247897
 51
349.8738752103
  0
ARC
  5
F1
330
1F
100
AcDbEntity
  8
0
  6
HIDDEN
 62
     7
370
    18
100
AcDbCircle
 10
83.0
 20
158.0
 30
0.0
 40
29.02105964186739
100
AcDbArc
 50
190.1261247897
 51
259.8738752103
  0
ARC
  5
F2
330
1F
100
AcDbEntity
  8
0
  6
HIDDEN
 62
     7
370
    18
100
AcDbCircle
 10
88.3722179586
 20
188.0800121415
 30
0.0
 40
1.534919416730661
100
AcDbArc
 50
182.7836045651
 51
259.8738752103
  0
ARC
  5
F3
330
1F
100
AcDbEntity
  8
0
  6
HIDDEN
 62
     7
370
    18
100
AcDbCircle
 10
77.6277820414
 20
188.0800121415
 30
0.0
 40
1.534919416730658
100
AcDbArc
 50
280.1261247897
 51
357.2163954349
  0
ARC
  5
F4
330
1F
100
AcDbEntity
  8
0
  6
HIDDEN
 62
     7
370
    18
100
AcDbCircle
 10
77.6277820414
 20
127.9199878585
 30
0.0
 40
1.534919416730644
100
AcDbArc
 50
2.7836045651
 51
79.8738752103
  0
ARC
  5
F5
330
1F
100
AcDbEntity
  8
0
  6
HIDDEN
 62
     7
370
    18
100
AcDbCircle
 10
88.3722179586
 20
127.9199878585
 30
0.0
 40
1.534919416730647
100
AcDbArc
 50
100.1261247897
 51
177.2163954349
  0
ARC
  5
F6
330
1F
100
AcDbEntity
  8
0
  6
HIDDEN
 62
     7
370
    18
100
AcDbCircle
 10
85.3060013046
 20
187.9309286262
 30
0.0
 40
1.534919416730625
100
AcDbArc
 50
2.7836045651
 51
90.0
  0
ARC
  5
F7
330
1F
100
AcDbEntity
  8
0
  6
HIDDEN
 62
     7
370
    18
100
AcDbCircle
 10
80.6939986954
 20
187.9309286262
 30
0.0
 40
1.534919416730625
100
AcDbArc
 50
90.0
 51
177.2163954349
  0
ARC
  5
F8
330
1F
100
AcDbEntity
  8
0
  6
HIDDEN
 62
     7
370
    18
100
AcDbCircle
 10
80.6939986954
 20
128.0690713738
 30
0.0
 40
1.534919416730631
100
AcDbArc
 50
182.7836045651
 51
270.0
  0
ARC
  5
F9
330
1F
100
AcDbEntity
  8
0
  6
HIDDEN
 62
     7
370
    18
100
AcDbCircle
 10
85.3060013046
 20
128.0690713738
 30
0.0
 40
1.534919416730631
100
AcDbArc
 50
270.0
 51
357.2163954349
  0
INSERT
  5
105
330
1F
100
AcDbEntity
  8
10
100
AcDbBlockReference
  2
SW_CENTERMARKSYMBOL_0
 10
83.0
 20
158.0
 30
0.0
  0
LINE
  5
106
330
1F
100
AcDbEntity
  8
0
  6
Continuous
 62
     7
370
    25
100
AcDbLine
 10
273.0
 20
75.2275242688
 30
0.0
 11
273.0
 21
85.1754627059
 31
0.0
  0
LINE
  5
107
330
1F
100
AcDbEntity
  8
0
  6
Continuous
 62
     7
370
    25
100
AcDbLine
 10
173.0
 20
85.1754627059
 30
0.0
 11
173.0
 21
75.2275242688
 31
0.0
  0
ARC
  5
108
330
1F
100
AcDbEntity
  8
0
  6
Continuous
 62
     7
370
    25
100
AcDbCircle
 10
223.0
 20
75.2275242688
 30
0.0
 40
50.0
100
AcDbArc
 50
315.0
 51
0.0
  0
ARC
  5
109
330
1F
100
AcDbEntity
  8
0
  6
Continuous
 62
     7
370
    25
100
AcDbCircle
 10
223.0
 20
75.2275242688
 30
0.0
 40
50.0
100
AcDbArc
 50
180.0
 51
225.0
  0
ARC
  5
10A
330
1F
100
AcDbEntity
  8
0
  6
Continuous
 62
     7
370
    25
100
AcDbCircle
 10
269.4029869747
 20
85.1754627059
 30
0.0
 40
3.597013025323761
100
AcDbArc
 50
0.0
 51
90.0
  0
ARC
  5
10B
330
1F
100
AcDbEntity
  8
0
  6
Continuous
 62
     7
370
    25
100
AcDbCircle
 10
176.5970130253
 20
85.1754627059
 30
0.0
 40
3.597013025323776
100
AcDbArc
 50
90.0
 51
180.0
  0
LINE
  5
10C
330
1F
100
AcDbEntity
  8
0
  6
Continuous
 62
     7
370
    25
100
AcDbLine
 10
269.4029869747
 20
88.7724757312
 30
0.0
 11
176.5970130253
 21
88.7724757312
 31
0.0
  0
LINE
  5
10D
330
1F
100
AcDbEntity
  8
0
  6
Continuous
 62
     7
370
    25
100
AcDbLine
 10
254.4661463588
 20
35.9829925089
 30
0.0
 11
258.3553390593
 21
39.8721852095
 31
0.0
  0
LINE
  5
10E
330
1F
100
AcDbEntity
  8
0
  6
Continuous
 62
     7
370
    25
100
AcDbLine
 10
187.6446609407
 20
39.8721852095
 30
0.0
 11
191.534151957
 21
35.9826941931
 31
0.0
  0
SPLINE
  5
10F
330
1F
100
AcDbEntity
  8
0
  6
Continuous
 62
     7
370
    25
100
AcDbSpline
210
0.0
220
0.0
230
1.0
 70
     8
 71
     3
 72
    21
 73
    17
 74
     0
 42
0.00000001
 43
0.00000001
 40
0.0
 40
0.0
 40
0.0
 40
0.0
 40
0.0854632270698503
 40
0.1697581667520648
 40
0.2531637784179088
 40
0.3359676120433385
 40
0.4184630925219471
 40
0.5009465009627594
 40
0.6258217881577796
 40
0.7490612767167617
 40
0.8739638578395243
 40
0.9370586268070282
 40
0.9528424194140599
 40
0.9686256102454083
 40
0.9891574542489343
 40
0.9999999999999999
 40
0.9999999999999999
 40
0.9999999999999999
 40
0.9999999999999999
 10
226.5361897756745
 20
40.04947199369126
 30
0.0
 10
226.5869613515616
 20
40.05403559171838
 30
0.0
 10
226.6878104528794
 20
40.06310040311669
 30
0.0
 10
226.8384588842322
 20
40.0693869129678
 30
0.0
 10
226.9870862894807
 20
40.0701219420687
 30
0.0
 10
227.1337376345291
 20
40.06480934593386
 30
0.0
 10
227.2783949533141
 20
40.05356642371268
 30
0.0
 10
227.4453003280586
 20
40.03348889500811
 30
0.0
 10
227.631524342644
 20
40.00056534110504
 30
0.0
 10
227.8335599948156
 20
39.94928566353613
 30
0.0
 10
227.9936365661377
 20
39.8947520526219
 30
0.0
 10
228.0931735163993
 20
39.85347711677487
 30
0.0
 10
228.1386599370644
 20
39.83348780623864
 30
0.0
 10
228.1636958589872
 20
39.82269943754192
 30
0.0
 10
228.1860278787464
 20
39.81180460410102
 30
0.0
 10
228.204041462861
 20
39.80953121478578
 30
0.0
 10
228.210266702983
 20
39.80874556356346
 30
0.0
  0
ARC
  5
110
330
1F
100
AcDbEntity
  8
0
  6
Continuous
 62
     7
370
    25
100
AcDbCircle
 10
223.0
 20
75.2275242688
 30
0.0
 40
35.35533905932712
100
AcDbArc
 50
264.2597612847
 51
275.7402387153
  0
SPLINE
  5
111
330
1F
100
AcDbEntity
  8
0
  6
Continuous
 62
     7
370
    25
100
AcDbSpline
210
0.0
220
0.0
230
1.0
 70
     8
 71
     3
 72
    19
 73
    15
 74
     0
 42
0.00000001
 43
0.00000001
 40
0.0
 40
0.0
 40
0.0
 40
0.0
 40
0.0061542008085793
 40
0.0166224115105323
 40
0.031679316816722
 40
0.0474713979961561
 40
0.0632634926512393
 40
0.1262501771880049
 40
0.2508973324399081
 40
0.3742588849728585
 40
0.4993369839411086
 40
0.6642020122038694
 40
0.8303163861253698
 40
1.0
 40
1.0
 40
1.0
 40
1.0
 10
217.7897332970169
 20
39.80874556356276
 30
0.0
 10
217.7933373477897
 20
39.80897271210284
 30
0.0
 10
217.8030718392231
 20
39.80958623717697
 30
0.0
 10
217.819225669176
 20
39.81559170839962
 30
0.0
 10
217.8394432804555
 20
39.82370333636469
 30
0.0
 10
217.861782103479
 20
39.83363202646321
 30
0.0
 10
217.9070840723821
 20
39.85364749254979
 30
0.0
 10
218.0065787949737
 20
39.89477785119077
 30
0.0
 10
218.1664192299023
 20
39.94929226713739
 30
0.0
 10
218.3684858860443
 20
40.00056073125938
 30
0.0
 10
218.6012238010491
 20
40.04175283184814
 30
0.0
 10
218.866221648688
 20
40.06760437246513
 30
0.0
 10
219.1631110622114
 20
40.07334682179724
 30
0.0
 10
219.3628694178789
 20
40.05748646365469
 30
0.0
 10
219.4638102243256
 20
40.04947199369126
 30
0.0
  0
LINE
  5
112
330
1F
100
AcDbEntity
  8
0
  6
Continuous
 62
     7
370
    25
100
AcDbLine
 10
254.465848043
 20
25.2275242688
 30
0.0
 11
246.7912509593
 21
25.2275242688
 31
0.0
  0
LINE
  5
113
330
1F
100
AcDbEntity
  8
0
  6
Continuous
 62
     7
370
    25
100
AcDbLine
 10
254.465848043
 20
29.832282519
 30
0.0
 11
254.465848043
 21
25.2275242688
 31
0.0
  0
LINE
  5
114
330
1F
100
AcDbEntity
  8
0
  6
Continuous
 62
     7
370
    25
100
AcDbLine
 10
246.7912509593
 20
31.3672019357
 30
0.0
 11
252.9309286262
 21
31.3672019357
 31
0.0
  0
ARC
  5
115
330
1F
100
AcDbEntity
  8
0
  6
Continuous
 62
     7
370
    25
100
AcDbCircle
 10
252.9309286262
 20
29.832282519
 30
0.0
 40
1.534919416730627
100
AcDbArc
 50
0.0
 51
90.0
  0
LINE
  5
116
330
1F
100
AcDbEntity
  8
0
  6
Continuous
 62
     7
370
    25
100
AcDbLine
 10
241.7260168841
 20
29.832282519
 30
0.0
 11
241.7260168841
 21
25.2275242688
 31
0.0
  0
LINE
  5
117
330
1F
100
AcDbEntity
  8
0
  6
Continuous
 62
     7
370
    25
100
AcDbLine
 10
241.7260168841
 20
25.2275242688
 30
0.0
 11
246.7912509593
 21
25.2275242688
 31
0.0
  0
LINE
  5
118
330
1F
100
AcDbEntity
  8
0
  6
Continuous
 62
     7
370
    25
100
AcDbLine
 10
241.7260168841
 20
31.3672019357
 30
0.0
 11
246.7912509593
 21
31.3672019357
 31
0.0
  0
LINE
  5
119
330
1F
100
AcDbEntity
  8
0
  6
Continuous
 62
     7
370
    25
100
AcDbLine
 10
241.7260168841
 20
29.832282519
 30
0.0
 11
241.7260168841
 21
31.3672019357
 31
0.0
  0
LINE
  5
11A
330
1F
100
AcDbEntity
  8
0
  6
Continuous
 62
     7
370
    25
100
AcDbLine
 10
211.0276285495
 20
29.832282519
 30
0.0
 11
211.0276285495
 21
25.2275242688
 31
0.0
  0
LINE
  5
11B
330
1F
100
AcDbEntity
  8
0
  6
Continuous
 62
     7
370
    25
100
AcDbLine
 10
234.9723714505
 20
25.2275242688
 30
0.0
 11
234.9723714505
 21
29.832282519
 31
0.0
  0
LINE
  5
11C
330
1F
100
AcDbEntity
  8
0
  6
Continuous
 62
     7
370
    25
100
AcDbLine
 10
211.0276285495
 20
25.2275242688
 30
0.0
 11
234.9723714505
 21
25.2275242688
 31
0.0
  0
LINE
  5
11D
330
1F
100
AcDbEntity
  8
0
  6
Continuous
 62
     7
370
    25
100
AcDbLine
 10
211.0276285495
 20
29.832282519
 30
0.0
 11
211.0276285495
 21
31.3672019357
 31
0.0
  0
LINE
  5
11E
330
1F
100
AcDbEntity
  8
0
  6
Continuous
 62
     7
370
    25
100
AcDbLine
 10
211.0276285495
 20
31.3672019357
 30
0.0
 11
234.9723714505
 21
31.3672019357
 31
0.0
  0
LINE
  5
11F
330
1F
100
AcDbEntity
  8
0
  6
Continuous
 62
     7
370
    25
100
AcDbLine
 10
234.9723714505
 20
31.3672019357
 30
0.0
 11
234.9723714505
 21
29.832282519
 31
0.0
  0
LINE
  5
120
330
1F
100
AcDbEntity
  8
0
  6
Continuous
 62
     7
370
    25
100
AcDbLine
 10
199.2087490407
 20
31.3672019357
 30
0.0
 11
204.2739831159
 21
31.3672019357
 31
0.0
  0
LINE
  5
121
330
1F
100
AcDbEntity
  8
0
  6
Continuous
 62
     7
370
    25
100
AcDbLine
 10
204.2739831159
 20
31.3672019357
 30
0.0
 11
204.2739831159
 21
29.832282519
 31
0.0
  0
LINE
  5
122
330
1F
100
AcDbEntity
  8
0
  6
Continuous
 62
     7
370
    25
100
AcDbLine
 10
204.2739831159
 20
25.2275242688
 30
0.0
 11
204.2739831159
 21
29.832282519
 31
0.0
  0
LINE
  5
123
330
1F
100
AcDbEntity
  8
0
  6
Continuous
 62
     7
370
    25
100
AcDbLine
 10
199.2087490407
 20
25.2275242688
 30
0.0
 11
204.2739831159
 21
25.2275242688
 31
0.0
  0
LINE
  5
124
330
1F
100
AcDbEntity
  8
0
  6
Continuous
 62
     7
370
    25
100
AcDbLine
 10
193.0690713738
 20
31.3672019357
 30
0.0
 11
199.2087490407
 21
31.3672019357
 31
0.0
  0
ARC
  5
125
330
1F
100
AcDbEntity
  8
0
  6
Continuous
 62
     7
370
    25
100
AcDbCircle
 10
193.0690713738
 20
29.832282519
 30
0.0
 40
1.534919416730627
100
AcDbArc
 50
90.0
 51
180.0
  0
LINE
  5
126
330
1F
100
AcDbEntity
  8
0
  6
Continuous
 62
     7
370
    25
100
AcDbLine
 10
191.534151957
 20
25.2275242688
 30
0.0
 11
191.534151957
 21
29.832282519
 31
0.0
  0
LINE
  5
127
330
1F
100
AcDbEntity
  8
0
  6
Continuous
 62
     7
370
    25
100
AcDbLine
 10
199.2087490407
 20
25.2275242688
 30
0.0
 11
191.534151957
 21
25.2275242688
 31
0.0
  0
LINE
  5
128
330
1F
100
AcDbEntity
  8
0
  6
Continuous
 62
     7
370
    25
100
AcDbLine
 10
241.7260168841
 20
31.3672019357
 30
0.0
 11
234.9723714505
 21
31.3672019357
 31
0.0
  0
LINE
  5
129
330
1F
100
AcDbEntity
  8
0
  6
Continuous
 62
     7
370
    25
100
AcDbLine
 10
241.7260168841
 20
25.2275242688
 30
0.0
 11
234.9723714505
 21
25.2275242688
 31
0.0
  0
LINE
  5
12A
330
1F
100
AcDbEntity
  8
0
  6
Continuous
 62
     7
370
    25
100
AcDbLine
 10
211.0276285495
 20
31.3672019357
 30
0.0
 11
204.2739831159
 21
31.3672019357
 31
0.0
  0
LINE
  5
12B
330
1F
100
AcDbEntity
  8
0
  6
Continuous
 62
     7
370
    25
100
AcDbLine
 10
211.0276285495
 20
25.2275242688
 30
0.0
 11
204.2739831159
 21
25.2275242688
 31
0.0
  0
ARC
  5
12C
330
1F
100
AcDbEntity
  8
0
  6
Continuous
 62
     7
370
    25
100
AcDbCircle
 10
228.3722179586
 20
32.9021213525
 30
0.0
 40
1.53491941673062
100
AcDbArc
 50
180.0
 51
270.0
  0
ARC
  5
12D
330
1F
100
AcDbEntity
  8
0
  6
Continuous
 62
     7
370
    25
100
AcDbCircle
 10
217.6277820414
 20
32.9021213525
 30
0.0
 40
1.534919416730645
100
AcDbArc
 50
270.0
 51
0.0
  0
LINE
  5
12E
330
1F
100
AcDbEntity
  8
0
  6
Continuous
 62
     7
370
    25
100
AcDbLine
 10
226.8372985418
 20
36.5905799531
 30
0.0
 11
226.8372985418
 21
32.9021213525
 31
0.0
  0
LINE
  5
12F
330
1F
100
AcDbEntity
  8
0
  6
Continuous
 62
     7
370
    25
100
AcDbLine
 10
219.1627014582
 20
32.9021213525
 30
0.0
 11
219.1627014582
 21
36.590579953
 31
0.0
  0
SPLINE
  5
130
330
1F
100
AcDbEntity
  8
0
  6
Continuous
 62
     7
370
    25
100
AcDbSpline
210
0.0
220
0.0
230
1.0
 70
     8
 71
     3
 72
    16
 73
    12
 74
     0
 42
0.00000001
 43
0.00000001
 40
0.0
 40
0.0
 40
0.0
 40
0.0
 40
0.0822604460136709
 40
0.1644526257174846
 40
0.2469211374971052
 40
0.3300051935774081
 40
0.414034467832513
 40
0.4993254666279245
 40
0.6642916841767181
 40
0.8305432408100002
 40
1.0
 40
1.0
 40
1.0
 40
1.0
 10
254.0013671315547
 20
35.95012645958155
 30
0.0
 10
254.0260405792663
 20
35.9680635921324
 30
0.0
 10
254.0753669986854
 20
36.00392297156414
 30
0.0
 10
254.1422366511825
 20
36.05013351862613
 30
0.0
 10
254.2035984313464
 20
36.09063813059588
 30
0.0
 10
254.2588981368593
 20
36.12490946713316
 30
0.0
 10
254.3081872727213
 20
36.15308270271615
 30
0.0
 10
254.3645715526509
 20
36.18188321336419
 30
0.0
 10
254.4184116313392
 20
36.20241292704598
 30
0.0
 10
254.4585875230982
 20
36.20465926299678
 30
0.0
 10
254.4634125140197
 20
36.18659643500747
 30
0.0
 10
254.4658480429778
 20
36.17747879285029
 30
0.0
  0
SPLINE
  5
131
330
1F
100
AcDbEntity
  8
0
  6
Continuous
 62
     7
370
    25
100
AcDbSpline
210
0.0
220
0.0
230
1.0
 70
     8
 71
     3
 72
    16
 73
    12
 74
     0
 42
0.00000001
 43
0.00000001
 40
0.0
 40
0.0
 40
0.0
 40
0.0
 40
0.0852825520503116
 40
0.169537383665235
 40
0.2529946799304498
 40
0.3358919239690059
 40
0.4184720871231279
 40
0.5009815979164955
 40
0.670185159655662
 40
0.8356340355417714
 40
0.9999999999999999
 40
0.9999999999999999
 40
0.9999999999999999
 40
0.9999999999999999
 10
191.5341519570223
 20
36.17747879285029
 30
0.0
 10
191.5347676056978
 20
36.18259440666735
 30
0.0
 10
191.5359914840081
 20
36.19276398721505
 30
0.0
 10
191.5460334205804
 20
36.20073604551794
 30
0.0
 10
191.562083224227
 20
36.20319666218702
 30
0.0
 10
191.5846804891496
 20
36.19965503780668
 30
0.0
 10
191.6136705073533
 20
36.19021979491673
 30
0.0
 10
191.6613161140804
 20
36.16959966307672
 30
0.0
 10
191.7374474745669
 20
36.12823679074624
 30
0.0
 10
191.8534419191081
 20
36.0545579809548
 30
0.0
 10
191.9503419389191
 20
35.98486068552288
 30
0.0
 10
191.9986328684467
 20
35.95012645958011
 30
0.0
  0
SPLINE
  5
132
330
1F
100
AcDbEntity
  8
0
  6
Continuous
 62
     7
370
    25
100
AcDbSpline
210
0.0
220
0.0
230
1.0
 70
     8
 71
     3
 72
     9
 73
     5
 74
     0
 42
0.00000001
 43
0.00000001
 40
0.0
 40
0.0
 40
0.0
 40
0.0
 40
0.2789021026261994
 40
0.9999999999999999
 40
0.9999999999999999
 40
0.9999999999999999
 40
0.9999999999999999
 10
252.9608244061817
 20
31.3676349765561
 30
0.0
 10
252.9652135184121
 20
31.36768436493971
 30
0.0
 10
252.9809506254079
 20
31.36786144637133
 30
0.0
 10
252.9951972051774
 20
31.36856412739989
 30
0.0
 10
253.0054703838939
 20
31.3690708292121
 30
0.0
  0
SPLINE
  5
133
330
1F
100
AcDbEntity
  8
0
  6
Continuous
 62
     7
370
    25
100
AcDbSpline
210
0.0
220
0.0
230
1.0
 70
     8
 71
     3
 72
     9
 73
     5
 74
     0
 42
0.00000001
 43
0.00000001
 40
0.0
 40
0.0
 40
0.0
 40
0.0
 40
0.9125360320975257
 40
1.0
 40
1.0
 40
1.0
 40
1.0
 10
192.9945296161061
 20
31.3690708292121
 30
0.0
 10
193.0076274175366
 20
31.36842850561122
 30
0.0
 10
193.0219806057613
 20
31.36772461713089
 30
0.0
 10
193.0378315649598
 20
31.36755894561352
 30
0.0
 10
193.0392179527464
 20
31.36754445532525
 30
0.0
  0
LINE
  5
134
330
1F
100
AcDbEntity
  8
0
  6
Continuous
 62
     7
370
    25
100
AcDbLine
 10
253.0054703839
 20
31.3690708292
 30
0.0
 11
253.1129584691
 21
31.360050357
 31
0.0
  0
LWPOLYLINE
  5
135
330
1F
100
AcDbEntity
  8
0
  6
Continuous
 62
     7
370
    25
100
AcDbPolyline
 90
        3
 70
   128
 43
0.0
 10
253.6808722347
 20
31.1752092228
 10
253.8220373672
 20
31.0857342937
 10
253.9955416858
 20
30.9416804978
  0
ARC
  5
136
330
1F
100
AcDbEntity
  8
0
  6
Continuous
 62
     7
370
    25
100
AcDbCircle
 10
252.9310197935
 20
29.8360162865
 30
0.0
 40
1.534828249472985
100
AcDbArc
 50
0.0001500481
 51
39.9794497276
  0
LINE
  5
137
330
1F
100
AcDbEntity
  8
0
  6
Continuous
 62
     7
370
    25
100
AcDbLine
 10
192.9945296161
 20
31.3690708292
 30
0.0
 11
192.887041531
 21
31.360050357
 31
0.0
  0
LWPOLYLINE
  5
138
330
1F
100
AcDbEntity
  8
0
  6
Continuous
 62
     7
370
    25
100
AcDbPolyline
 90
        3
 70
   128
 43
0.0
 10
192.3191277654
 20
31.1752092229
 10
192.1779626328
 20
31.0857342937
 10
192.004458314
 20
30.9416804977
  0
ARC
  5
139
330
1F
100
AcDbEntity
  8
0
  6
Continuous
 62
     7
370
    25
100
AcDbCircle
 10
193.0689802065
 20
29.8360162865
 30
0.0
 40
1.534828249473213
100
AcDbArc
 50
140.0205502664
 51
179.9998499519
  0
LINE
  5
13A
330
1F
100
AcDbEntity
  8
0
  6
Continuous
 62
     7
370
    25
100
AcDbLine
 10
254.465848043
 20
33.0535638702
 30
0.0
 11
254.465848043
 21
29.8584729717
 31
0.0
  0
LINE
  5
13B
330
1F
100
AcDbEntity
  8
0
  6
Continuous
 62
     7
370
    25
100
AcDbLine
 10
191.534151957
 20
29.8574926722
 30
0.0
 11
191.534151957
 21
33.0535638702
 31
0.0
  0
SPLINE
  5
13C
330
1F
100
AcDbEntity
  8
0
  6
Continuous
 62
     7
370
    25
100
AcDbSpline
210
0.0
220
0.0
230
1.0
 70
    24
 71
     3
 72
    12
 73
     8
 74
     0
 42
0.00000001
 43
0.00000001
 40
0.0
 40
0.0
 40
0.0
 40
0.0
 40
0.5000000000000016
 40
0.5000000000000016
 40
0.7500000000000008
 40
0.7500000000000008
 40
1.0
 40
1.0
 40
1.0
 40
1.0
 10
191.5341519570223
 20
33.05356387015911
 30
0.0
 10
191.5341519570223
 20
33.62543249019092
 30
0.0
 10
191.5341519570223
 20
34.18028828363661
 30
0.0
 10
191.5341519570223
 20
34.98317937234256
 30
0.0
 10
191.5341519570223
 20
35.24474565237846
 30
0.0
 10
191.5341519570223
 20
35.73468722374739
 30
0.0
 10
191.5341519570223
 20
35.96694455029702
 30
0.0
 10
191.5341519570223
 20
36.17747879285029
 30
0.0
  0
SPLINE
  5
13D
330
1F
100
AcDbEntity
  8
0
  6
Continuous
 62
     7
370
    25
100
AcDbSpline
210
0.0
220
0.0
230
1.0
 70
    24
 71
     3
 72
    12
 73
     8
 74
     0
 42
0.00000001
 43
0.00000001
 40
0.0
 40
0.0
 40
0.0
 40
0.0
 40
0.25
 40
0.25
 40
0.5
 40
0.5
 40
1.0
 40
1.0
 40
1.0
 40
1.0
 10
254.4658480429777
 20
36.17747879285028
 30
0.0
 10
254.4658480429777
 20
35.9669445502966
 30
0.0
 10
254.4658480429777
 20
35.73468722374739
 30
0.0
 10
254.4658480429777
 20
35.2447456523785
 30
0.0
 10
254.4658480429777
 20
34.98317937234262
 30
0.0
 10
254.4658480429778
 20
34.18028828363662
 30
0.0
 10
254.4658480429777
 20
33.62543249019073
 30
0.0
 10
254.4658480429777
 20
33.05356387015911
 30
0.0
  0
SPLINE
  5
13E
330
1F
100
AcDbEntity
  8
0
  6
HIDDEN
 62
     7
370
    18
100
AcDbSpline
210
0.0
220
0.0
230
1.0
 70
    24
 71
     3
 72
     8
 73
     4
 74
     0
 42
0.00000001
 43
0.00000001
 40
0.0
 40
0.0
 40
0.0
 40
0.0
 40
1.0
 40
1.0
 40
1.0
 40
1.0
 10
191.5341519570223
 20
36.1774787928503
 30
0.0
 10
191.5341519570223
 20
36.04841641894936
 30
0.0
 10
191.5341519570223
 20
35.98269419312466
 30
0.0
 10
191.5341519570223
 20
35.98269419312466
 30
0.0
  0
ARC
  5
13F
330
1F
100
AcDbEntity
  8
0
  6
HIDDEN
 62
     7
370
    18
100
AcDbCircle
 10
269.4029869747
 20
85.1754627059
 30
0.0
 40
3.597013025323808
100
AcDbArc
 50
90.0
 51
192.1
  0
ARC
  5
140
330
1F
100
AcDbEntity
  8
0
  6
HIDDEN
 62
     7
370
    18
100
AcDbCircle
 10
176.5970130253
 20
85.1754627059
 30
0.0
 40
3.597013025323761
100
AcDbArc
 50
347.9
 51
90.0
  0
ARC
  5
141
330
1F
100
AcDbEntity
  8
0
  6
HIDDEN
 62
     7
370
    18
100
AcDbCircle
 10
223.0
 20
75.2275242688
 30
0.0
 40
43.86032233307753
100
AcDbArc
 50
167.9
 51
0.0
  0
ARC
  5
142
330
1F
100
AcDbEntity
  8
0
  6
HIDDEN
 62
     7
370
    18
100
AcDbCircle
 10
223.0
 20
75.2275242688
 30
0.0
 40
43.86032233307753
100
AcDbArc
 50
0.0
 51
12.1
  0
ENDSEC
  0
SECTION
  2
OBJECTS
  0
DICTIONARY
  5
C
330
0
100
AcDbDictionary
281
     1
  3
ACAD_GROUP
350
D
  3
ACAD_LAYOUT
350
1A
  3
ACAD_MLINESTYLE
350
17
  3
ACAD_PLOTSETTINGS
350
19
  3
ACAD_PLOTSTYLENAME
350
E
  3
ACAD_SCALELIST
350
47
  3
DWGPROPS
350
143
  0
DICTIONARY
  5
D
102
{ACAD_REACTORS
330
C
102
}
330
C
100
AcDbDictionary
281
     1
  0
DICTIONARY
  5
1A
102
{ACAD_REACTORS
330
C
102
}
330
C
100
AcDbDictionary
281
     1
  3
Layout1
350
1E
  3
Layout2
350
26
  3
Model
350
22
  0
DICTIONARY
  5
17
102
{ACAD_REACTORS
330
C
102
}
330
C
100
AcDbDictionary
281
     1
  3
Standard
350
18
  0
DICTIONARY
  5
19
102
{ACAD_REACTORS
330
C
102
}
330
C
100
AcDbDictionary
281
     1
  0
ACDBDICTIONARYWDFLT
  5
E
102
{ACAD_REACTORS
330
C
102
}
330
C
100
AcDbDictionary
281
     1
  3
Normal
350
F
100
AcDbDictionaryWithDefault
340
F
  0
DICTIONARY
  5
47
102
{ACAD_REACTORS
330
C
102
}
330
C
100
AcDbDictionary
281
     1
  3
A0
350
48
  3
A1
350
49
  3
A2
350
4A
  3
A3
350
4B
  3
A4
350
4C
  3
A5
350
4D
  3
A6
350
4E
  3
A7
350
4F
  3
A8
350
50
  3
A9
350
51
  3
B0
350
52
  3
B1
350
53
  3
B2
350
54
  3
B3
350
55
  3
B4
350
56
  3
B5
350
57
  3
B6
350
58
  0
XRECORD
  5
143
102
{ACAD_REACTORS
330
C
102
}
330
C
100
AcDbXrecord
280
     1
  1
DWGPROPS COOKIE
  2

  3

  4

  6

  7

  8

  9

300
=
301
=
302
=
303
=
304
=
305
=
306
=
307
=
308
=
309
=
 40
0.0
 41
2461215.260936239
 42
2461215.260936609
  1

 90
        0
  0
LAYOUT
  5
1E
102
{ACAD_REACTORS
330
1A
102
}
330
1A
100
AcDbPlotSettings
  1

  2
none_device
  4

  6

 40
0.0
 41
0.0
 42
0.0
 43
0.0
 44
0.0
 45
0.0
 46
0.0
 47
0.0
 48
0.0
 49
0.0
140
0.0
141
0.0
142
1.0
143
1.0
 70
   688
 72
     1
 73
     0
 74
     5
  7

 75
    16
147
1.0
148
0.0
149
0.0
100
AcDbLayout
  1
Layout1
 70
     1
 71
     1
 10
0.0
 20
0.0
 11
420.0
 21
297.0
 12
0.0
 22
0.0
 32
0.0
 14
1.0000000000E+20
 24
1.0000000000E+20
 34
1.0000000000E+20
 15
-1.0000000000E+20
 25
-1.0000000000E+20
 35
-1.0000000000E+20
146
0.0
 13
0.0
 23
0.0
 33
0.0
 16
1.0
 26
0.0
 36
0.0
 17
0.0
 27
1.0
 37
0.0
 76
     0
330
1B
  0
LAYOUT
  5
26
102
{ACAD_REACTORS
330
1A
102
}
330
1A
100
AcDbPlotSettings
  1

  2
none_device
  4

  6

 40
0.0
 41
0.0
 42
0.0
 43
0.0
 44
0.0
 45
0.0
 46
0.0
 47
0.0
 48
0.0
 49
0.0
140
0.0
141
0.0
142
1.0
143
1.0
 70
   688
 72
     1
 73
     0
 74
     5
  7

 75
    16
147
1.0
148
0.0
149
0.0
100
AcDbLayout
  1
Layout2
 70
     1
 71
     2
 10
0.0
 20
0.0
 11
0.0
 21
0.0
 12
0.0
 22
0.0
 32
0.0
 14
0.0
 24
0.0
 34
0.0
 15
0.0
 25
0.0
 35
0.0
146
0.0
 13
0.0
 23
0.0
 33
0.0
 16
1.0
 26
0.0
 36
0.0
 17
0.0
 27
1.0
 37
0.0
 76
     0
330
23
  0
LAYOUT
  5
22
102
{ACAD_REACTORS
330
1A
102
}
330
1A
100
AcDbPlotSettings
  1

  2
none_device
  4
Letter_(8.50_x_11.00_Inches)
  6

 40
6.35
 41
6.35
 42
6.35000508
 43
6.35000508
 44
215.9
 45
279.4
 46
0.0
 47
0.0
 48
0.0
 49
0.0
140
0.0
141
0.0
142
1.0
143
1.0
 70
  1712
 72
     1
 73
     0
 74
     0
  7

 75
     0
147
1.0
148
0.0
149
0.0
100
AcDbLayout
  1
Model
 70
     1
 71
     0
 10
0.0
 20
0.0
 11
297.0
 21
210.0
 12
0.0
 22
0.0
 32
0.0
 14
0.0
 24
0.0
 34
0.0
 15
297.0
 25
210.0
 35
0.0
146
0.0
 13
0.0
 23
0.0
 33
0.0
 16
1.0
 26
0.0
 36
0.0
 17
0.0
 27
1.0
 37
0.0
 76
     0
330
1F
331
29
  0
MLINESTYLE
  5
18
102
{ACAD_REACTORS
330
17
102
}
330
17
100
AcDbMlineStyle
  2
Standard
 70
     0
  3

 62
   256
 51
90.0
 52
90.0
 71
     2
 49
0.5
 62
   256
  6
BYLAYER
 49
-0.5
 62
   256
  6
BYLAYER
  0
ACDBPLACEHOLDER
  5
F
102
{ACAD_REACTORS
330
E
102
}
330
E
  0
SCALE
  5
48
102
{ACAD_REACTORS
330
47
102
}
330
47
100
AcDbScale
 70
     0
300
1:1
140
1.0
141
1.0
290
     1
  0
SCALE
  5
49
102
{ACAD_REACTORS
330
47
102
}
330
47
100
AcDbScale
 70
     0
300
1:2
140
1.0
141
2.0
290
     0
  0
SCALE
  5
4A
102
{ACAD_REACTORS
330
47
102
}
330
47
100
AcDbScale
 70
     0
300
1:4
140
1.0
141
4.0
290
     0
  0
SCALE
  5
4B
102
{ACAD_REACTORS
330
47
102
}
330
47
100
AcDbScale
 70
     0
300
1:5
140
1.0
141
5.0
290
     0
  0
SCALE
  5
4C
102
{ACAD_REACTORS
330
47
102
}
330
47
100
AcDbScale
 70
     0
300
1:8
140
1.0
141
8.0
290
     0
  0
SCALE
  5
4D
102
{ACAD_REACTORS
330
47
102
}
330
47
100
AcDbScale
 70
     0
300
1:10
140
1.0
141
10.0
290
     0
  0
SCALE
  5
4E
102
{ACAD_REACTORS
330
47
102
}
330
47
100
AcDbScale
 70
     0
300
1:16
140
1.0
141
16.0
290
     0
  0
SCALE
  5
4F
102
{ACAD_REACTORS
330
47
102
}
330
47
100
AcDbScale
 70
     0
300
1:20
140
1.0
141
20.0
290
     0
  0
SCALE
  5
50
102
{ACAD_REACTORS
330
47
102
}
330
47
100
AcDbScale
 70
     0
300
1:30
140
1.0
141
30.0
290
     0
  0
SCALE
  5
51
102
{ACAD_REACTORS
330
47
102
}
330
47
100
AcDbScale
 70
     0
300
1:40
140
1.0
141
40.0
290
     0
  0
SCALE
  5
52
102
{ACAD_REACTORS
330
47
102
}
330
47
100
AcDbScale
 70
     0
300
1:50
140
1.0
141
50.0
290
     0
  0
SCALE
  5
53
102
{ACAD_REACTORS
330
47
102
}
330
47
100
AcDbScale
 70
     0
300
1:100
140
1.0
141
100.0
290
     0
  0
SCALE
  5
54
102
{ACAD_REACTORS
330
47
102
}
330
47
100
AcDbScale
 70
     0
300
2:1
140
2.0
141
1.0
290
     0
  0
SCALE
  5
55
102
{ACAD_REACTORS
330
47
102
}
330
47
100
AcDbScale
 70
     0
300
4:1
140
4.0
141
1.0
290
     0
  0
SCALE
  5
56
102
{ACAD_REACTORS
330
47
102
}
330
47
100
AcDbScale
 70
     0
300
8:1
140
8.0
141
1.0
290
     0
  0
SCALE
  5
57
102
{ACAD_REACTORS
330
47
102
}
330
47
100
AcDbScale
 70
     0
300
10:1
140
10.0
141
1.0
290
     0
  0
SCALE
  5
58
102
{ACAD_REACTORS
330
47
102
}
330
47
100
AcDbScale
 70
     0
300
100:1
140
100.0
141
1.0
290
     0
  0
ENDSEC
  0
EOF
