  0
SECTION
  2
HEADER
  9
$ACADVER
  1
AC1015
  9
$ACADMAINTVER
 70
     6
  9
$DWGCODEPAGE
  3
ANSI_936
  9
$INSBASE
 10
0.0
 20
0.0
 30
0.0
  9
$EXTMIN
 10
0.0
 20
0.0
 30
0.0
  9
$EXTMAX
 10
297.0
 20
210.0
 30
0.0
  9
$LIMMIN
 10
0.0
 20
0.0
  9
$LIMMAX
 10
297.0
 20
210.0
  9
$ORTHOMODE
 70
     0
  9
$REGENMODE
 70
     1
  9
$FILLMODE
 70
     1
  9
$QTEXTMODE
 70
     0
  9
$MIRRTEXT
 70
     1
  9
$LTSCALE
 40
1.0
  9
$ATTMODE
 70
     1
  9
$TEXTSIZE
 40
3.5
  9
$TRACEWID
 40
1.0
  9
$TEXTSTYLE
  7
Standard
  9
$CLAYER
  8
0
  9
$CELTYPE
  6
ByLayer
  9
$CECOLOR
 62
   256
  9
$CELTSCALE
 40
1.0
  9
$DISPSILH
 70
     0
  9
$DIMSCALE
 40
1.0
  9
$DIMASZ
 40
4.08
  9
$DIMEXO
 40
0.0
  9
$DIMDLI
 40
3.75
  9
$DIMRND
 40
0.0
  9
$DIMDLE
 40
0.0
  9
$DIMEXE
 40
2.0
  9
$DIMTP
 40
0.0
  9
$DIMTM
 40
0.0
  9
$DIMTXT
 40
3.5
  9
$DIMCEN
 40
2.5
  9
$DIMTSZ
 40
0.0
  9
$DIMTOL
 70
     0
  9
$DIMLIM
 70
     0
  9
$DIMTIH
 70
     1
  9
$DIMTOH
 70
     1
  9
$DIMSE1
 70
     0
  9
$DIMSE2
 70
     0
  9
$DIMTAD
 70
     1
  9
$DIMZIN
 70
     0
  9
$DIMBLK
  1

  9
$DIMASO
 70
     1
  9
$DIMSHO
 70
     1
  9
$DIMPOST
  1

  9
$DIMAPOST
  1

  9
$DIMALT
 70
     0
  9
$DIMALTD
 70
     3
  9
$DIMALTF
 40
0.0393700787
  9
$DIMLFAC
 40
2.0
  9
$DIMTOFL
 70
     1
  9
$DIMTVP
 40
0.0
  9
$DIMTIX
 70
     0
  9
$DIMSOXD
 70
     0
  9
$DIMSAH
 70
     0
  9
$DIMBLK1
  1

  9
$DIMBLK2
  1

  9
$DIMSTYLE
  2
ISO-25
  9
$DIMCLRD
 70
     0
  9
$DIMCLRE
 70
     0
  9
$DIMCLRT
 70
     0
  9
$DIMTFAC
 40
1.0
  9
$DIMGAP
 40
1.524
  9
$DIMJUST
 70
     0
  9
$DIMSD1
 70
     0
  9
$DIMSD2
 70
     0
  9
$DIMTOLJ
 70
     0
  9
$DIMTZIN
 70
     0
  9
$DIMALTZ
 70
     0
  9
$DIMALTTZ
 70
     0
  9
$DIMUPT
 70
     0
  9
$DIMDEC
 70
     2
  9
$DIMTDEC
 70
     2
  9
$DIMALTU
 70
     2
  9
$DIMALTTD
 70
     3
  9
$DIMTXSTY
  7
Standard
  9
$DIMAUNIT
 70
     0
  9
$DIMADEC
 70
     2
  9
$DIMALTRND
 40
0.0
  9
$DIMAZIN
 70
     0
  9
$DIMDSEP
 70
    44
  9
$DIMATFIT
 70
     3
  9
$DIMFRAC
 70
     0
  9
$DIMLDRBLK
  1

  9
$DIMLUNIT
 70
     2
  9
$DIMLWD
 70
    -2
  9
$DIMLWE
 70
    -2
  9
$DIMTMOVE
 70
     0
  9
$LUNITS
 70
     2
  9
$LUPREC
 70
     2
  9
$SKETCHINC
 40
1.0
  9
$FILLETRAD
 40
0.0
  9
$AUNITS
 70
     0
  9
$AUPREC
 70
     2
  9
$MENU
  1
.
  9
$ELEVATION
 40
0.0
  9
$PELEVATION
 40
0.0
  9
$THICKNESS
 40
0.0
  9
$LIMCHECK
 70
     0
  9
$CHAMFERA
 40
0.0
  9
$CHAMFERB
 40
0.0
  9
$CHAMFERC
 40
0.0
  9
$CHAMFERD
 40
0.0
  9
$SKPOLY
 70
     0
  9
$TDCREATE
 40
2461215.610313311
  9
$TDUCREATE
 40
2461215.276979977
  9
$TDUPDATE
 40
2461215.610313692
  9
$TDUUPDATE
 40
2461215.276980359
  9
$TDINDWG
 40
0.0000000116
  9
$TDUSRTIMER
 40
0.0000000116
  9
$USRTIMER
 70
     1
  9
$ANGBASE
 50
0.0
  9
$ANGDIR
 70
     0
  9
$PDMODE
 70
     0
  9
$PDSIZE
 40
-1.0
  9
$PLINEWID
 40
0.0
  9
$SPLFRAME
 70
     0
  9
$SPLINETYPE
 70
     6
  9
$SPLINESEGS
 70
     8
  9
$HANDSEED
  5
165
  9
$SURFTAB1
 70
     6
  9
$SURFTAB2
 70
     6
  9
$SURFTYPE
 70
     6
  9
$SURFU
 70
     6
  9
$SURFV
 70
     6
  9
$UCSBASE
  2

  9
$UCSNAME
  2

  9
$UCSORG
 10
0.0
 20
0.0
 30
0.0
  9
$UCSXDIR
 10
1.0
 20
0.0
 30
0.0
  9
$UCSYDIR
 10
0.0
 20
1.0
 30
0.0
  9
$UCSORTHOREF
  2

  9
$UCSORTHOVIEW
 70
     0
  9
$UCSORGTOP
 10
0.0
 20
0.0
 30
0.0
  9
$UCSORGBOTTOM
 10
0.0
 20
0.0
 30
0.0
  9
$UCSORGLEFT
 10
0.0
 20
0.0
 30
0.0
  9
$UCSORGRIGHT
 10
0.0
 20
0.0
 30
0.0
  9
$UCSORGFRONT
 10
0.0
 20
0.0
 30
0.0
  9
$UCSORGBACK
 10
0.0
 20
0.0
 30
0.0
  9
$PUCSBASE
  2

  9
$PUCSNAME
  2

  9
$PUCSORG
 10
0.0
 20
0.0
 30
0.0
  9
$PUCSXDIR
 10
1.0
 20
0.0
 30
0.0
  9
$PUCSYDIR
 10
0.0
 20
1.0
 30
0.0
  9
$PUCSORTHOREF
  2

  9
$PUCSORTHOVIEW
 70
     0
  9
$PUCSORGTOP
 10
0.0
 20
0.0
 30
0.0
  9
$PUCSORGBOTTOM
 10
0.0
 20
0.0
 30
0.0
  9
$PUCSORGLEFT
 10
0.0
 20
0.0
 30
0.0
  9
$PUCSORGRIGHT
 10
0.0
 20
0.0
 30
0.0
  9
$PUCSORGFRONT
 10
0.0
 20
0.0
 30
0.0
  9
$PUCSORGBACK
 10
0.0
 20
0.0
 30
0.0
  9
$USERI1
 70
     0
  9
$USERI2
 70
     0
  9
$USERI3
 70
     0
  9
$USERI4
 70
     0
  9
$USERI5
 70
     0
  9
$USERR1
 40
0.0
  9
$USERR2
 40
0.0
  9
$USERR3
 40
0.0
  9
$USERR4
 40
0.0
  9
$USERR5
 40
0.0
  9
$WORLDVIEW
 70
     1
  9
$SHADEDGE
 70
     3
  9
$SHADEDIF
 70
    70
  9
$TILEMODE
 70
     1
  9
$MAXACTVP
 70
    64
  9
$PINSBASE
 10
0.0
 20
0.0
 30
0.0
  9
$PLIMCHECK
 70
     0
  9
$PEXTMIN
 10
1.0000000000E+20
 20
1.0000000000E+20
 30
1.0000000000E+20
  9
$PEXTMAX
 10
-1.0000000000E+20
 20
-1.0000000000E+20
 30
-1.0000000000E+20
  9
$PLIMMIN
 10
0.0
 20
0.0
  9
$PLIMMAX
 10
420.0
 20
297.0
  9
$UNITMODE
 70
     0
  9
$VISRETAIN
 70
     1
  9
$PLINEGEN
 70
     0
  9
$PSLTSCALE
 70
     1
  9
$TREEDEPTH
 70
  3020
  9
$CMLSTYLE
  2
Standard
  9
$CMLJUST
 70
     0
  9
$CMLSCALE
 40
20.0
  9
$PROXYGRAPHICS
 70
     1
  9
$MEASUREMENT
 70
     1
  9
$CELWEIGHT
370
    -1
  9
$ENDCAPS
280
     0
  9
$JOINSTYLE
280
     0
  9
$LWDISPLAY
290
     1
  9
$INSUNITS
 70
     4
  9
$HYPERLINKBASE
  1

  9
$STYLESHEET
  1

  9
$XEDIT
290
     1
  9
$CEPSNTYPE
380
     0
  9
$PSTYLEMODE
290
     1
  9
$FINGERPRINTGUID
  2
{77dd184d-c34a-4d17-9604-bfa1c069f699}
  9
$VERSIONGUID
  2
{FAEB1C32-E019-11D5-929B-00C0DF256EC4}
  9
$EXTNAMES
290
     1
  9
$PSVPSCALE
 40
0.0
  9
$OLESTARTUP
290
     0
  0
ENDSEC
  0
SECTION
  2
CLASSES
  0
CLASS
  1
ACDBDICTIONARYWDFLT
  2
AcDbDictionaryWithDefault
  3
ObjectDBX Classes
 90
        0
280
     0
281
     0
  0
CLASS
  1
VISUALSTYLE
  2
AcDbVisualStyle
  3
ObjectDBX Classes
 90
     4095
280
     0
281
     0
  0
CLASS
  1
MATERIAL
  2
AcDbMaterial
  3
ObjectDBX Classes
 90
     1153
280
     0
281
     0
  0
CLASS
  1
SCALE
  2
AcDbScale
  3
ObjectDBX Classes
 90
     1153
280
     0
281
     0
  0
CLASS
  1
TABLESTYLE
  2
AcDbTableStyle
  3
ObjectDBX Classes
 90
     4095
280
     0
281
     0
  0
CLASS
  1
MLEADERSTYLE
  2
AcDbMLeaderStyle
  3
ACDB_MLEADERSTYLE_CLASS
 90
     4095
280
     0
281
     0
  0
CLASS
  1
SUN
  2
AcDbSun
  3
SCENEOE
 90
     1153
280
     0
281
     0
  0
CLASS
  1
ACDBPLACEHOLDER
  2
AcDbPlaceHolder
  3
ObjectDBX Classes
 90
        0
280
     0
281
     0
  0
CLASS
  1
LAYOUT
  2
AcDbLayout
  3
ObjectDBX Classes
 90
        0
280
     0
281
     0
  0
ENDSEC
  0
SECTION
  2
TABLES
  0
TABLE
  2
VPORT
  5
8
330
0
100
AcDbSymbolTable
 70
     1
  0
VPORT
  5
29
330
8
100
AcDbSymbolTableRecord
100
AcDbViewportTableRecord
  2
*Active
 70
     0
 10
0.0
 20
0.0
 11
1.0
 21
1.0
 12
148.5
 22
105.0
 13
0.0
 23
0.0
 14
10.0
 24
10.0
 15
10.0
 25
10.0
 16
0.0
 26
0.0
 36
1.0
 17
0.0
 27
0.0
 37
0.0
 40
210.0
 41
1.4142857143
 42
50.0
 43
0.0
 44
0.0
 50
0.0
 51
0.0
 71
     0
 72
  2000
 73
     1
 74
     3
 75
     0
 76
     0
 77
     0
 78
     0
281
     0
 65
     1
110
0.0
120
0.0
130
0.0
111
1.0
121
0.0
131
0.0
112
0.0
122
1.0
132
0.0
 79
     0
146
0.0
  0
ENDTAB
  0
TABLE
  2
LTYPE
  5
5
330
0
100
AcDbSymbolTable
 70
     6
  0
LTYPE
  5
14
330
5
100
AcDbSymbolTableRecord
100
AcDbLinetypeTableRecord
  2
ByBlock
 70
     0
  3

 72
    65
 73
     0
 40
0.0
  0
LTYPE
  5
15
330
5
100
AcDbSymbolTableRecord
100
AcDbLinetypeTableRecord
  2
ByLayer
 70
     0
  3

 72
    65
 73
     0
 40
0.0
  0
LTYPE
  5
16
330
5
100
AcDbSymbolTableRecord
100
AcDbLinetypeTableRecord
  2
Continuous
 70
     0
  3
Solid line
 72
    65
 73
     0
 40
0.0
  0
LTYPE
  5
5E
330
5
100
AcDbSymbolTableRecord
100
AcDbLinetypeTableRecord
  2
HIDDEN
 70
     0
  3
Hidden __ __ __ __ __ __ __ __ __ __ __ __ __ __
 72
    65
 73
     2
 40
1.905
 49
1.27
 74
     0
 49
-0.635
 74
     0
  0
LTYPE
  5
5F
330
5
100
AcDbSymbolTableRecord
100
AcDbLinetypeTableRecord
  2
PHANTOM
 70
     0
  3
Phantom ______  __  __  ______  __  __  ______
 72
    65
 73
     6
 40
12.7
 49
6.35
 74
     0
 49
-1.27
 74
     0
 49
1.27
 74
     0
 49
-1.27
 74
     0
 49
1.27
 74
     0
 49
-1.27
 74
     0
  0
LTYPE
  5
60
330
5
100
AcDbSymbolTableRecord
100
AcDbLinetypeTableRecord
  2
CENTER
 70
     0
  3
Center ____ _ ____ _ ____ _ ____ _ ____ _ ____
 72
    65
 73
     4
 40
10.16
 49
6.35
 74
     0
 49
-1.27
 74
     0
 49
1.27
 74
     0
 49
-1.27
 74
     0
  0
LTYPE
  5
61
330
5
100
AcDbSymbolTableRecord
100
AcDbLinetypeTableRecord
  2
CENTERX2
 70
     0
  3
Center (2x) ________  __  ________  __  _____
 72
    65
 73
     4
 40
20.32
 49
12.7
 74
     0
 49
-2.54
 74
     0
 49
2.54
 74
     0
 49
-2.54
 74
     0
  0
LTYPE
  5
62
330
5
100
AcDbSymbolTableRecord
100
AcDbLinetypeTableRecord
  2
DOT2
 70
     0
  3
Dot (.5x) ........................................
 72
    65
 73
     2
 40
0.635
 49
0.0
 74
     0
 49
-0.635
 74
     0
  0
ENDTAB
  0
TABLE
  2
LAYER
  5
2
330
0
100
AcDbSymbolTable
 70
    14
  0
LAYER
  5
10
330
2
100
AcDbSymbolTableRecord
100
AcDbLayerTableRecord
  2
0
 70
     0
 62
     7
  6
Continuous
370
    -3
390
F
  0
LAYER
  5
63
330
2
100
AcDbSymbolTableRecord
100
AcDbLayerTableRecord
  2
SLD-0
 70
     0
 62
     7
  6
Continuous
370
    -3
390
F
  0
LAYER
  5
64
330
2
100
AcDbSymbolTableRecord
100
AcDbLayerTableRecord
  2
5
 70
     0
 62
     7
  6
Continuous
370
    -3
390
F
  0
LAYER
  5
65
330
2
100
AcDbSymbolTableRecord
100
AcDbLayerTableRecord
  2
9
 70
     0
 62
     7
  6
Continuous
370
    -3
390
F
  0
LAYER
  5
66
330
2
100
AcDbSymbolTableRecord
100
AcDbLayerTableRecord
  2
10
 70
     0
 62
     7
  6
Continuous
370
    -3
390
F
  0
LAYER
  5
67
330
2
100
AcDbSymbolTableRecord
100
AcDbLayerTableRecord
  2
轮廓实线层
 70
     0
 62
     7
  6
Continuous
370
    50
390
F
  0
LAYER
  5
68
330
2
100
AcDbSymbolTableRecord
100
AcDbLayerTableRecord
  2
细线层
 70
     0
 62
     4
  6
Continuous
370
    25
390
F
  0
LAYER
  5
69
330
2
100
AcDbSymbolTableRecord
100
AcDbLayerTableRecord
  2
中心线层
 70
     0
 62
     1
  6
CENTERX2
370
    25
390
F
  0
LAYER
  5
6A
330
2
100
AcDbSymbolTableRecord
100
AcDbLayerTableRecord
  2
虚线层
 70
     0
 62
     6
  6
HIDDEN
370
    25
390
F
  0
LAYER
  5
6B
330
2
100
AcDbSymbolTableRecord
100
AcDbLayerTableRecord
  2
剖面线层
 70
     0
 62
     2
  6
Continuous
370
    25
390
F
  0
LAYER
  5
6C
330
2
100
AcDbSymbolTableRecord
100
AcDbLayerTableRecord
  2
文字层
 70
     0
 62
     3
  6
Continuous
370
    25
390
F
  0
LAYER
  5
6D
330
2
100
AcDbSymbolTableRecord
100
AcDbLayerTableRecord
  2
标注层
 70
     0
 62
     4
  6
Continuous
370
    25
390
F
  0
LAYER
  5
6E
330
2
100
AcDbSymbolTableRecord
100
AcDbLayerTableRecord
  2
符号标注层
 70
     0
 62
    31
  6
Continuous
370
    25
390
F
  0
LAYER
  5
6F
330
2
100
AcDbSymbolTableRecord
100
AcDbLayerTableRecord
  2
双点划线层
 70
     0
 62
     6
  6
PHANTOM
370
    25
390
F
  0
ENDTAB
  0
TABLE
  2
STYLE
  5
3
330
0
100
AcDbSymbolTable
 70
     1
  0
STYLE
  5
11
330
3
100
AcDbSymbolTableRecord
100
AcDbTextStyleTableRecord
  2
Standard
 70
     0
 40
0.0
 41
1.0
 50
0.0
 71
     0
 42
3.5
  3
txt
  4

  0
ENDTAB
  0
TABLE
  2
VIEW
  5
6
330
0
100
AcDbSymbolTable
 70
     0
  0
ENDTAB
  0
TABLE
  2
UCS
  5
7
330
0
100
AcDbSymbolTable
 70
     0
  0
ENDTAB
  0
TABLE
  2
APPID
  5
9
330
0
100
AcDbSymbolTable
 70
     1
  0
APPID
  5
12
330
9
100
AcDbSymbolTableRecord
100
AcDbRegAppTableRecord
  2
ACAD
 70
     0
  0
ENDTAB
  0
TABLE
  2
DIMSTYLE
  5
A
330
0
100
AcDbSymbolTable
 70
     1
100
AcDbDimStyleTable
  0
DIMSTYLE
105
27
330
A
100
AcDbSymbolTableRecord
100
AcDbDimStyleTableRecord
  2
ISO-25
 70
     0
 41
2.5
 42
0.625
 43
3.75
 44
1.25
 73
     0
 74
     0
 77
     1
 78
     8
140
2.5
141
2.5
143
0.0393700787
147
0.625
171
     3
172
     1
178
     0
271
     2
272
     2
274
     3
278
    44
283
     0
284
     8
340
11
  0
ENDTAB
  0
TABLE
  2
BLOCK_RECORD
  5
1
330
0
100
AcDbSymbolTable
 70
     4
  0
BLOCK_RECORD
  5
1F
330
1
100
AcDbSymbolTableRecord
100
AcDbBlockTableRecord
  2
*Model_Space
340
22
  0
BLOCK_RECORD
  5
1B
330
1
100
AcDbSymbolTableRecord
100
AcDbBlockTableRecord
  2
*Paper_Space
340
1E
  0
BLOCK_RECORD
  5
23
330
1
100
AcDbSymbolTableRecord
100
AcDbBlockTableRecord
  2
*Paper_Space0
340
26
  0
BLOCK_RECORD
  5
F2
330
1
100
AcDbSymbolTableRecord
100
AcDbBlockTableRecord
  2
SW_CENTERMARKSYMBOL_0
340
0
102
{BLKREFS
331
FD
102
}
  0
BLOCK_RECORD
  5
14C
330
1
100
AcDbSymbolTableRecord
100
AcDbBlockTableRecord
  2
SW_CENTERMARKSYMBOL_1
340
0
102
{BLKREFS
331
157
102
}
  0
BLOCK_RECORD
  5
158
330
1
100
AcDbSymbolTableRecord
100
AcDbBlockTableRecord
  2
SW_CENTERMARKSYMBOL_2
340
0
102
{BLKREFS
331
163
102
}
  0
ENDTAB
  0
ENDSEC
  0
SECTION
  2
BLOCKS
  0
BLOCK
  5
20
330
1F
100
AcDbEntity
  8
0
100
AcDbBlockBegin
  2
*Model_Space
 70
     0
 10
0.0
 20
0.0
 30
0.0
  3
*Model_Space
  1

  0
ENDBLK
  5
21
330
1F
100
AcDbEntity
  8
0
100
AcDbBlockEnd
  0
BLOCK
  5
1C
330
1B
100
AcDbEntity
 67
     1
  8
0
100
AcDbBlockBegin
  2
*Paper_Space
 70
     0
 10
0.0
 20
0.0
 30
0.0
  3
*Paper_Space
  1

  0
ENDBLK
  5
1D
330
1B
100
AcDbEntity
 67
     1
  8
0
100
AcDbBlockEnd
  0
BLOCK
  5
24
330
23
100
AcDbEntity
  8
0
100
AcDbBlockBegin
  2
*Paper_Space0
 70
     0
 10
0.0
 20
0.0
 30
0.0
  3
*Paper_Space0
  1

  0
ENDBLK
  5
25
330
23
100
AcDbEntity
  8
0
100
AcDbBlockEnd
  0
BLOCK
  5
F3
330
F2
100
AcDbEntity
  8
0
100
AcDbBlockBegin
  2
SW_CENTERMARKSYMBOL_0
 70
     0
 10
0.0
 20
0.0
 30
0.0
  3
SW_CENTERMARKSYMBOL_0
  1

  0
LINE
  5
F5
330
F2
100
AcDbEntity
  8
10
 62
     0
100
AcDbLine
 10
0.0
 20
0.0
 30
0.0
 11
0.0
 21
2.5
 31
0.0
  0
LINE
  5
F6
330
F2
100
AcDbEntity
  8
10
 62
     0
100
AcDbLine
 10
0.0
 20
0.0
 30
0.0
 11
-2.5
 21
0.0
 31
0.0
  0
LINE
  5
F7
330
F2
100
AcDbEntity
  8
10
 62
     0
100
AcDbLine
 10
0.0
 20
0.0
 30
0.0
 11
0.0
 21
-2.5
 31
0.0
  0
LINE
  5
F8
330
F2
100
AcDbEntity
  8
10
 62
     0
100
AcDbLine
 10
0.0
 20
0.0
 30
0.0
 11
2.5
 21
0.0
 31
0.0
  0
LINE
  5
F9
330
F2
100
AcDbEntity
  8
10
 62
     0
100
AcDbLine
 10
0.0
 20
5.0
 30
0.0
 11
0.0
 21
9.719486459
 31
0.0
  0
LINE
  5
FA
330
F2
100
AcDbEntity
  8
10
 62
     0
100
AcDbLine
 10
-5.0
 20
0.0
 30
0.0
 11
-9.719486459
 21
0.0
 31
0.0
  0
LINE
  5
FB
330
F2
100
AcDbEntity
  8
10
 62
     0
100
AcDbLine
 10
0.0
 20
-5.0
 30
0.0
 11
0.0
 21
-9.719486459
 31
0.0
  0
LINE
  5
FC
330
F2
100
AcDbEntity
  8
10
 62
     0
100
AcDbLine
 10
5.0
 20
0.0
 30
0.0
 11
9.719486459
 21
0.0
 31
0.0
  0
ENDBLK
  5
F4
330
F2
100
AcDbEntity
  8
0
100
AcDbBlockEnd
  0
BLOCK
  5
14D
330
14C
100
AcDbEntity
  8
0
100
AcDbBlockBegin
  2
SW_CENTERMARKSYMBOL_1
 70
     0
 10
0.0
 20
0.0
 30
0.0
  3
SW_CENTERMARKSYMBOL_1
  1

  0
LINE
  5
14F
330
14C
100
AcDbEntity
  8
10
 62
     0
100
AcDbLine
 10
0.0
 20
0.0
 30
0.0
 11
0.0
 21
2.5
 31
0.0
  0
LINE
  5
150
330
14C
100
AcDbEntity
  8
10
 62
     0
100
AcDbLine
 10
0.0
 20
0.0
 30
0.0
 11
-2.5
 21
0.0
 31
0.0
  0
LINE
  5
151
330
14C
100
AcDbEntity
  8
10
 62
     0
100
AcDbLine
 10
0.0
 20
0.0
 30
0.0
 11
0.0
 21
-2.5
 31
0.0
  0
LINE
  5
152
330
14C
100
AcDbEntity
  8
10
 62
     0
100
AcDbLine
 10
0.0
 20
0.0
 30
0.0
 11
2.5
 21
0.0
 31
0.0
  0
LINE
  5
153
330
14C
100
AcDbEntity
  8
10
 62
     0
100
AcDbLine
 10
0.0
 20
5.0
 30
0.0
 11
0.0
 21
7.4633969406
 31
0.0
  0
LINE
  5
154
330
14C
100
AcDbEntity
  8
10
 62
     0
100
AcDbLine
 10
-5.0
 20
0.0
 30
0.0
 11
-7.4633969406
 21
0.0
 31
0.0
  0
LINE
  5
155
330
14C
100
AcDbEntity
  8
10
 62
     0
100
AcDbLine
 10
0.0
 20
-5.0
 30
0.0
 11
0.0
 21
-7.4633969406
 31
0.0
  0
LINE
  5
156
330
14C
100
AcDbEntity
  8
10
 62
     0
100
AcDbLine
 10
5.0
 20
0.0
 30
0.0
 11
7.4633969406
 21
0.0
 31
0.0
  0
ENDBLK
  5
14E
330
14C
100
AcDbEntity
  8
0
100
AcDbBlockEnd
  0
BLOCK
  5
159
330
158
100
AcDbEntity
  8
0
100
AcDbBlockBegin
  2
SW_CENTERMARKSYMBOL_2
 70
     0
 10
0.0
 20
0.0
 30
0.0
  3
SW_CENTERMARKSYMBOL_2
  1

  0
LINE
  5
15B
330
158
100
AcDbEntity
  8
10
 62
     0
100
AcDbLine
 10
0.0
 20
0.0
 30
0.0
 11
0.0
 21
2.5
 31
0.0
  0
LINE
  5
15C
330
158
100
AcDbEntity
  8
10
 62
     0
100
AcDbLine
 10
0.0
 20
0.0
 30
0.0
 11
-2.5
 21
0.0
 31
0.0
  0
LINE
  5
15D
330
158
100
AcDbEntity
  8
10
 62
     0
100
AcDbLine
 10
0.0
 20
0.0
 30
0.0
 11
0.0
 21
-2.5
 31
0.0
  0
LINE
  5
15E
330
158
100
AcDbEntity
  8
10
 62
     0
100
AcDbLine
 10
0.0
 20
0.0
 30
0.0
 11
2.5
 21
0.0
 31
0.0
  0
LINE
  5
15F
330
158
100
AcDbEntity
  8
10
 62
     0
100
AcDbLine
 10
0.0
 20
5.0
 30
0.0
 11
0.0
 21
7.4633969406
 31
0.0
  0
LINE
  5
160
330
158
100
AcDbEntity
  8
10
 62
     0
100
AcDbLine
 10
-5.0
 20
0.0
 30
0.0
 11
-7.4633969406
 21
0.0
 31
0.0
  0
LINE
  5
161
330
158
100
AcDbEntity
  8
10
 62
     0
100
AcDbLine
 10
0.0
 20
-5.0
 30
0.0
 11
0.0
 21
-7.4633969406
 31
0.0
  0
LINE
  5
162
330
158
100
AcDbEntity
  8
10
 62
     0
100
AcDbLine
 10
5.0
 20
0.0
 30
0.0
 11
7.4633969406
 21
0.0
 31
0.0
  0
ENDBLK
  5
15A
330
158
100
AcDbEntity
  8
0
100
AcDbBlockEnd
  0
ENDSEC
  0
SECTION
  2
ENTITIES
  0
SPLINE
  5
70
330
1F
100
AcDbEntity
  8
0
  6
Continuous
 62
     7
370
    25
100
AcDbSpline
210
0.0
220
0.0
230
1.0
 70
     8
 71
     3
 72
    10
 73
     6
 74
     0
 42
0.00000001
 43
0.00000001
 40
0.0
 40
0.0
 40
0.0
 40
0.0
 40
0.4026567752887463
 40
0.894395153886332
 40
1.0
 40
1.0
 40
1.0
 40
1.0
 10
80.27192916290221
 20
61.52741556485575
 30
0.0
 10
80.38502124055037
 20
61.59981539548178
 30
0.0
 10
80.63622527435537
 20
61.76063240298818
 30
0.0
 10
81.07582646836067
 20
62.01297813327512
 30
0.0
 10
81.46504321862831
 20
62.1244968716628
 30
0.0
 10
81.53385319807813
 20
62.14421236975339
 30
0.0
  0
ARC
  5
71
330
1F
100
AcDbEntity
  8
0
  6
Continuous
 62
     7
370
    25
100
AcDbCircle
 10
119.5486501989
 20
43.4634628893
 30
0.0
 40
1.804871614758063
100
AcDbArc
 50
270.0
 51
0.0
  0
ARC
  5
72
330
1F
100
AcDbEntity
  8
0
  6
Continuous
 62
     7
370
    25
100
AcDbCircle
 10
119.5486501989
 20
70.5365371107
 30
0.0
 40
1.804871614758056
100
AcDbArc
 50
0.0
 51
90.0
  0
LINE
  5
73
330
1F
100
AcDbEntity
  8
0
  6
Continuous
 62
     7
370
    25
100
AcDbLine
 10
121.3535218136
 20
43.4634628893
 30
0.0
 11
121.3535218136
 21
48.8780777336
 31
0.0
  0
LINE
  5
74
330
1F
100
AcDbEntity
  8
0
  6
Continuous
 62
     7
370
    25
100
AcDbLine
 10
121.3535218136
 20
65.1219222664
 30
0.0
 11
121.3535218136
 21
70.5365371107
 31
0.0
  0
SPLINE
  5
75
330
1F
100
AcDbEntity
  8
0
  6
Continuous
 62
     7
370
    25
100
AcDbSpline
210
0.0
220
0.0
230
1.0
 70
     8
 71
     3
 72
    22
 73
    18
 74
     0
 42
0.00000001
 43
0.00000001
 40
0.0
 40
0.0
 40
0.0
 40
0.0
 40
0.0353093941653139
 40
0.104857624135459
 40
0.1743446363431372
 40
0.2436905032006435
 40
0.3128571059488531
 40
0.3818274566922218
 40
0.4506193787063802
 40
0.5193055317119306
 40
0.5879981064248696
 40
0.6569185163696712
 40
0.7264585893438424
 40
0.7972232222917105
 40
0.870075817565216
 40
0.9460812102025195
 40
1.0
 40
1.0
 40
1.0
 40
1.0
 10
61.18670711669928
 20
56.09756419262096
 30
0.0
 10
61.18507576444118
 20
55.95719624987503
 30
0.0
 10
61.18023116922917
 20
55.54034828833227
 30
0.0
 10
61.12531393879575
 20
54.85037202578259
 30
0.0
 10
61.00115184718235
 20
54.04274054211722
 30
0.0
 10
60.81710712237319
 20
53.26430695434493
 30
0.0
 10
60.57799926083485
 20
52.52613683641184
 30
0.0
 10
60.28844545317595
 20
51.8382513790057
 30
0.0
 10
59.95444771827248
 20
51.20957232062123
 30
0.0
 10
59.58281382392325
 20
50.64771625732869
 30
0.0
 10
59.18100350115066
 20
50.15868395106749
 30
0.0
 10
58.75658347629683
 20
49.74647642446362
 30
0.0
 10
58.31635872452816
 20
49.41307329853701
 30
0.0
 10
57.86521468708881
 20
49.15809408707414
 30
0.0
 10
57.40480474907855
 20
48.98226154591087
 30
0.0
 10
56.98642469197159
 20
48.89163384029621
 30
0.0
 10
56.72067894593652
 20
48.88205356611122
 30
0.0
 10
56.61039394162462
 20
48.87807773358873
 30
0.0
  0
SPLINE
  5
76
330
1F
100
AcDbEntity
  8
0
  6
Continuous
 62
     7
370
    25
100
AcDbSpline
210
0.0
220
0.0
230
1.0
 70
     8
 71
     3
 72
    22
 73
    18
 74
     0
 42
0.00000001
 43
0.00000001
 40
0.0
 40
0.0
 40
0.0
 40
0.0
 40
0.0339184871082219
 40
0.117050789236092
 40
0.1895300592826103
 40
0.2665137683472812
 40
0.3401753275023801
 40
0.4116138018083272
 40
0.4818046994650066
 40
0.5513744935515206
 40
0.6206971930477991
 40
0.6899658710610961
 40
0.7592710068192727
 40
0.8286679632340073
 40
0.8981627295141089
 40
0.9677308964334544
 40
1.0
 40
1.0
 40
1.0
 40
1.0
 10
56.61039394162462
 20
65.12192226641126
 30
0.0
 10
56.6797590804769
 20
65.12028772129008
 30
0.0
 10
56.91913426906431
 20
65.11464699810965
 30
0.0
 10
57.30898070133697
 20
65.04564163116568
 30
0.0
 10
57.79520688661248
 20
64.87499062897068
 30
0.0
 10
58.26736328063435
 20
64.62081934736948
 30
0.0
 10
58.73530002005756
 20
64.27322954638842
 30
0.0
 10
59.17689107356619
 20
63.8467955046864
 30
0.0
 10
59.58815584007554
 20
63.34569478084769
 30
0.0
 10
59.96427299628448
 20
62.77427518030927
 30
0.0
 10
60.29965600614784
 20
62.13831635905286
 30
0.0
 10
60.58867172018739
 20
61.44514781795397
 30
0.0
 10
60.8260842819187
 20
60.70343589243502
 30
0.0
 10
61.00779251699082
 20
59.92285664672564
 30
0.0
 10
61.12939501206927
 20
59.11398025893916
 30
0.0
 10
61.18101344465686
 20
58.43553344481661
 30
0.0
 10
61.18533708716781
 20
58.03071146165052
 30
0.0
 10
61.18670711669928
 20
57.90243580737903
 30
0.0
  0
LINE
  5
77
330
1F
100
AcDbEntity
  8
0
  6
Continuous
 62
     7
370
    25
100
AcDbLine
 10
61.1867071167
 20
57.9024358074
 30
0.0
 11
61.1867071167
 21
56.0975641926
 31
0.0
  0
LINE
  5
78
330
1F
100
AcDbEntity
  8
0
  6
Continuous
 62
     7
370
    25
100
AcDbLine
 10
55.4757078749
 20
38.9512838524
 30
0.0
 11
55.4757078749
 21
75.0487161476
 31
0.0
  0
LINE
  5
79
330
1F
100
AcDbEntity
  8
0
  6
Continuous
 62
     7
370
    25
100
AcDbLine
 10
46.4513498011
 20
37.1464122377
 30
0.0
 11
55.4757078749
 21
37.1464122377
 31
0.0
  0
LINE
  5
7A
330
1F
100
AcDbEntity
  8
0
  6
Continuous
 62
     7
370
    25
100
AcDbLine
 10
55.4757078749
 20
37.1464122377
 30
0.0
 11
55.4757078749
 21
38.9512838524
 31
0.0
  0
LINE
  5
7B
330
1F
100
AcDbEntity
  8
0
  6
Continuous
 62
     7
370
    25
100
AcDbLine
 10
44.6464781864
 20
75.0487161476
 30
0.0
 11
44.6464781864
 21
38.9512838524
 31
0.0
  0
ARC
  5
7C
330
1F
100
AcDbEntity
  8
0
  6
Continuous
 62
     7
370
    25
100
AcDbCircle
 10
46.4513498011
 20
38.9512838524
 30
0.0
 40
1.804871614758063
100
AcDbArc
 50
180.0
 51
270.0
  0
ARC
  5
7D
330
1F
100
AcDbEntity
  8
0
  6
Continuous
 62
     7
370
    25
100
AcDbCircle
 10
46.4513498011
 20
75.0487161476
 30
0.0
 40
1.804871614758063
100
AcDbArc
 50
90.0
 51
180.0
  0
LINE
  5
7E
330
1F
100
AcDbEntity
  8
0
  6
Continuous
 62
     7
370
    25
100
AcDbLine
 10
55.4757078749
 20
76.8535877623
 30
0.0
 11
46.4513498011
 21
76.8535877623
 31
0.0
  0
LINE
  5
7F
330
1F
100
AcDbEntity
  8
0
  6
Continuous
 62
     7
370
    25
100
AcDbLine
 10
55.4757078749
 20
75.0487161476
 30
0.0
 11
55.4757078749
 21
76.8535877623
 31
0.0
  0
LINE
  5
80
330
1F
100
AcDbEntity
  8
0
  6
Continuous
 62
     7
370
    25
100
AcDbLine
 10
55.4757078749
 20
41.6585912746
 30
0.0
 11
67.4263410153
 21
41.6585912746
 31
0.0
  0
LINE
  5
81
330
1F
100
AcDbEntity
  8
0
  6
Continuous
 62
     7
370
    25
100
AcDbLine
 10
55.4757078749
 20
65.1219222664
 30
0.0
 11
64.4359318106
 21
65.1219222664
 31
0.0
  0
LINE
  5
82
330
1F
100
AcDbEntity
  8
0
  6
Continuous
 62
     7
370
    25
100
AcDbLine
 10
64.4359318106
 20
48.8780777336
 30
0.0
 11
55.4757078749
 21
48.8780777336
 31
0.0
  0
LINE
  5
83
330
1F
100
AcDbEntity
  8
0
  6
Continuous
 62
     7
370
    25
100
AcDbLine
 10
67.4263410153
 20
72.3414087254
 30
0.0
 11
55.4757078749
 21
72.3414087254
 31
0.0
  0
LINE
  5
84
330
1F
100
AcDbEntity
  8
0
  6
Continuous
 62
     7
370
    25
100
AcDbLine
 10
73.8075258051
 20
72.3414087254
 30
0.0
 11
67.4263410153
 21
72.3414087254
 31
0.0
  0
LINE
  5
85
330
1F
100
AcDbEntity
  8
0
  6
Continuous
 62
     7
370
    25
100
AcDbLine
 10
67.4263410153
 20
41.6585912746
 30
0.0
 11
73.8075258051
 21
41.6585912746
 31
0.0
  0
SPLINE
  5
86
330
1F
100
AcDbEntity
  8
0
  6
Continuous
 62
     7
370
    25
100
AcDbSpline
210
0.0
220
0.0
230
1.0
 70
     8
 71
     3
 72
    21
 73
    17
 74
     0
 42
0.00000001
 43
0.00000001
 40
0.0
 40
0.0
 40
0.0
 40
0.0
 40
0.0285114454429652
 40
0.0573720446189946
 40
0.0867448098739203
 40
0.1167699594822051
 40
0.1475656441583339
 40
0.1792296074486797
 40
0.2118414204290957
 40
0.2454649877362197
 40
0.3628811526928976
 40
0.4962244256515524
 40
0.6126210361374097
 40
0.7473965357033797
 40
0.8414239770699944
 40
1.0
 40
1.0
 40
1.0
 40
1.0
 10
83.22973518152843
 20
49.97254881679035
 30
0.0
 10
83.2273662944185
 20
50.00544623472754
 30
0.0
 10
83.22259951059337
 20
50.07164393534985
 30
0.0
 10
83.20528948801295
 20
50.16956177278416
 30
0.0
 10
83.1809998415723
 20
50.26658420013939
 30
0.0
 10
83.1492966551844
 20
50.36240248714208
 30
0.0
 10
83.11072468501243
 20
50.45685518515621
 30
0.0
 10
83.06553196119567
 20
50.54977129647084
 30
0.0
 10
83.01403117629116
 20
50.64102255710284
 30
0.0
 10
82.9092465349649
 20
50.80378010749579
 30
0.0
 10
82.72341705912369
 20
51.02802112394556
 30
0.0
 10
82.4590440725905
 20
51.27020372497065
 30
0.0
 10
82.16707543605598
 20
51.4866401362081
 30
0.0
 10
81.89776661170762
 20
51.65366376569028
 30
0.0
 10
81.58741485416279
 20
51.81929230510657
 30
0.0
 10
81.38042636369357
 20
51.90689362384301
 30
0.0
 10
81.25048589869523
 20
51.96188680759578
 30
0.0
  0
SPLINE
  5
87
330
1F
100
AcDbEntity
  8
0
  6
Continuous
 62
     7
370
    25
100
AcDbSpline
210
0.0
220
0.0
230
1.0
 70
     8
 71
     3
 72
    21
 73
    17
 74
     0
 42
0.00000001
 43
0.00000001
 40
0.0
 40
0.0
 40
0.0
 40
0.0
 40
0.0873539384671025
 40
0.1586109261440403
 40
0.2137581225376216
 40
0.2527012351936747
 40
0.3874634773641497
 40
0.5039419657861403
 40
0.5794672736811031
 40
0.6507588136933635
 40
0.7178975174616206
 40
0.7810118170282845
 40
0.8403190374764202
 40
0.8961759017050145
 40
0.9491354213983981
 40
1.0
 40
1.0
 40
1.0
 40
1.0
 10
81.25048589869525
 20
62.03811319240421
 30
0.0
 10
81.32237409446877
 20
62.06758652702639
 30
0.0
 10
81.45290345022025
 20
62.12110206373844
 30
0.0
 10
81.6255709765916
 20
62.20373090932361
 30
0.0
 10
81.75842556917374
 20
62.27232466392221
 30
0.0
 10
81.94084287737505
 20
62.37272056284956
 30
0.0
 10
82.16694454274126
 20
62.51342897840506
 30
0.0
 10
82.4152192606628
 20
62.69716639984301
 30
0.0
 10
82.60674082977577
 20
62.86500528990702
 30
0.0
 10
82.754903823175
 20
63.01610384279847
 30
0.0
 10
82.88589995169708
 20
63.17329444330412
 30
0.0
 10
82.99856096830091
 20
63.33602089425546
 30
0.0
 10
83.09174718539745
 20
63.50352324987495
 30
0.0
 10
83.16293194125883
 20
63.67506514287872
 30
0.0
 10
83.21293953545113
 20
63.84932755180428
 30
0.0
 10
83.22421245370371
 20
63.96888074591462
 30
0.0
 10
83.22973518152843
 20
64.02745118320964
 30
0.0
  0
SPLINE
  5
88
330
1F
100
AcDbEntity
  8
0
  6
Continuous
 62
     7
370
    25
100
AcDbSpline
210
0.0
220
0.0
230
1.0
 70
     8
 71
     3
 72
     8
 73
     4
 74
     0
 42
0.00000001
 43
0.00000001
 40
0.0
 40
0.0
 40
0.0
 40
0.0
 40
1.0
 40
1.0
 40
1.0
 40
1.0
 10
83.23428764593635
 20
49.78051354096775
 30
0.0
 10
83.23428764593635
 20
49.84487663389941
 30
0.0
 10
83.23275667816384
 20
49.90896800852307
 30
0.0
 10
83.22973518153078
 20
49.97254881674196
 30
0.0
  0
SPLINE
  5
89
330
1F
100
AcDbEntity
  8
0
  6
Continuous
 62
     7
370
    25
100
AcDbSpline
210
0.0
220
0.0
230
1.0
 70
     8
 71
     3
 72
     8
 73
     4
 74
     0
 42
0.00000001
 43
0.00000001
 40
0.0
 40
0.0
 40
0.0
 40
0.0
 40
1.0
 40
1.0
 40
1.0
 40
1.0
 10
83.22973518153078
 20
64.02745118325804
 30
0.0
 10
83.23275425685864
 20
64.09098104038812
 30
0.0
 10
83.23428764593635
 20
64.155172872044
 30
0.0
 10
83.23428764593635
 20
64.21948645903224
 30
0.0
  0
ARC
  5
8A
330
1F
100
AcDbEntity
  8
0
  6
Continuous
 62
     7
370
    25
100
AcDbCircle
 10
83.2342876459
 20
57.0
 30
0.0
 40
5.414614844274177
100
AcDbArc
 50
111.4924799271
 51
248.5075200729
  0
LINE
  5
8B
330
1F
100
AcDbEntity
  8
0
  6
Continuous
 62
     7
370
    25
100
AcDbLine
 10
83.2342876459
 20
48.8780777336
 30
0.0
 11
83.2342876459
 21
49.780513541
 31
0.0
  0
LINE
  5
8C
330
1F
100
AcDbEntity
  8
0
  6
Continuous
 62
     7
370
    25
100
AcDbLine
 10
83.2342876459
 20
64.219486459
 30
0.0
 11
83.2342876459
 21
65.1219222664
 31
0.0
  0
LINE
  5
8D
330
1F
100
AcDbEntity
  8
0
  6
Continuous
 62
     7
370
    25
100
AcDbLine
 10
73.8075258051
 20
41.6585912746
 30
0.0
 11
109.6218563177
 21
41.6585912746
 31
0.0
  0
LINE
  5
8E
330
1F
100
AcDbEntity
  8
0
  6
Continuous
 62
     7
370
    25
100
AcDbLine
 10
109.6218563177
 20
41.6585912746
 30
0.0
 11
119.5486501989
 21
41.6585912746
 31
0.0
  0
LINE
  5
8F
330
1F
100
AcDbEntity
  8
0
  6
Continuous
 62
     7
370
    25
100
AcDbLine
 10
119.5486501989
 20
72.3414087254
 30
0.0
 11
109.6218563177
 21
72.3414087254
 31
0.0
  0
LINE
  5
90
330
1F
100
AcDbEntity
  8
0
  6
Continuous
 62
     7
370
    25
100
AcDbLine
 10
109.6218563177
 20
72.3414087254
 30
0.0
 11
73.8075258051
 21
72.3414087254
 31
0.0
  0
LINE
  5
91
330
1F
100
AcDbEntity
  8
0
  6
Continuous
 62
     7
370
    25
100
AcDbLine
 10
83.2342876459
 20
65.1219222664
 30
0.0
 11
109.6218563177
 21
65.1219222664
 31
0.0
  0
LINE
  5
92
330
1F
100
AcDbEntity
  8
0
  6
Continuous
 62
     7
370
    25
100
AcDbLine
 10
109.6218563177
 20
48.8780777336
 30
0.0
 11
83.2342876459
 21
48.8780777336
 31
0.0
  0
LINE
  5
93
330
1F
100
AcDbEntity
  8
0
  6
Continuous
 62
     7
370
    25
100
AcDbLine
 10
121.3535218136
 20
48.8780777336
 30
0.0
 11
109.6218563177
 21
48.8780777336
 31
0.0
  0
LINE
  5
94
330
1F
100
AcDbEntity
  8
0
  6
Continuous
 62
     7
370
    25
100
AcDbLine
 10
109.6218563177
 20
65.1219222664
 30
0.0
 11
121.3535218136
 21
65.1219222664
 31
0.0
  0
LINE
  5
95
330
1F
100
AcDbEntity
  8
0
  6
HIDDEN
 62
     7
370
    18
100
AcDbLine
 10
50.0610930307
 20
72.7926266291
 30
0.0
 11
50.0610930307
 21
62.865832748
 31
0.0
  0
LINE
  5
96
330
1F
100
AcDbEntity
  8
0
  6
HIDDEN
 62
     7
370
    18
100
AcDbLine
 10
50.0610930307
 20
51.134167252
 30
0.0
 11
50.0610930307
 21
41.2073733709
 31
0.0
  0
ARC
  5
97
330
1F
100
AcDbEntity
  8
0
  6
HIDDEN
 62
     7
370
    18
100
AcDbCircle
 10
53.6708362602
 20
43.4634628893
 30
0.0
 40
1.804871614758063
100
AcDbArc
 50
270.0
 51
0.0
  0
ARC
  5
98
330
1F
100
AcDbEntity
  8
0
  6
HIDDEN
 62
     7
370
    18
100
AcDbCircle
 10
53.6708362602
 20
70.5365371107
 30
0.0
 40
1.804871614758056
100
AcDbArc
 50
0.0
 51
90.0
  0
ARC
  5
99
330
1F
100
AcDbEntity
  8
0
  6
HIDDEN
 62
     7
370
    18
100
AcDbCircle
 10
46.4513498011
 20
70.5365371107
 30
0.0
 40
1.804871614758063
100
AcDbArc
 50
90.0
 51
180.0
  0
ARC
  5
9A
330
1F
100
AcDbEntity
  8
0
  6
HIDDEN
 62
     7
370
    18
100
AcDbCircle
 10
46.4513498011
 20
43.4634628893
 30
0.0
 40
1.804871614758063
100
AcDbArc
 50
180.0
 51
270.0
  0
LINE
  5
9B
330
1F
100
AcDbEntity
  8
0
  6
HIDDEN
 62
     7
370
    18
100
AcDbLine
 10
53.6708362602
 20
72.3414087254
 30
0.0
 11
46.4513498011
 21
72.3414087254
 31
0.0
  0
LINE
  5
9C
330
1F
100
AcDbEntity
  8
0
  6
HIDDEN
 62
     7
370
    18
100
AcDbLine
 10
46.4513498011
 20
41.6585912746
 30
0.0
 11
53.6708362602
 21
41.6585912746
 31
0.0
  0
ARC
  5
9D
330
1F
100
AcDbEntity
  8
0
  6
HIDDEN
 62
     7
370
    18
100
AcDbCircle
 10
46.4513498011
 20
66.9267938812
 30
0.0
 40
1.804871614758063
100
AcDbArc
 50
180.0
 51
270.0
  0
ARC
  5
9E
330
1F
100
AcDbEntity
  8
0
  6
HIDDEN
 62
     7
370
    18
100
AcDbCircle
 10
53.6708362602
 20
47.0732061188
 30
0.0
 40
1.804871614758056
100
AcDbArc
 50
0.0
 51
90.0
  0
ARC
  5
9F
330
1F
100
AcDbEntity
  8
0
  6
HIDDEN
 62
     7
370
    18
100
AcDbCircle
 10
46.4513498011
 20
47.0732061188
 30
0.0
 40
1.804871614758063
100
AcDbArc
 50
90.0
 51
180.0
  0
ARC
  5
A0
330
1F
100
AcDbEntity
  8
0
  6
HIDDEN
 62
     7
370
    18
100
AcDbCircle
 10
53.6708362602
 20
66.9267938812
 30
0.0
 40
1.804871614758056
100
AcDbArc
 50
270.0
 51
0.0
  0
LINE
  5
A1
330
1F
100
AcDbEntity
  8
0
  6
HIDDEN
 62
     7
370
    18
100
AcDbLine
 10
50.0610930307
 20
48.8780777336
 30
0.0
 11
46.4513498011
 21
48.8780777336
 31
0.0
  0
LINE
  5
A2
330
1F
100
AcDbEntity
  8
0
  6
HIDDEN
 62
     7
370
    18
100
AcDbLine
 10
46.4513498011
 20
65.1219222664
 30
0.0
 11
50.0610930307
 21
65.1219222664
 31
0.0
  0
LINE
  5
A3
330
1F
100
AcDbEntity
  8
0
  6
HIDDEN
 62
     7
370
    18
100
AcDbLine
 10
53.6708362602
 20
41.6585912746
 30
0.0
 11
55.4757078749
 21
41.6585912746
 31
0.0
  0
LINE
  5
A4
330
1F
100
AcDbEntity
  8
0
  6
HIDDEN
 62
     7
370
    18
100
AcDbLine
 10
55.4757078749
 20
72.3414087254
 30
0.0
 11
53.6708362602
 21
72.3414087254
 31
0.0
  0
SPLINE
  5
A5
330
1F
100
AcDbEntity
  8
0
  6
HIDDEN
 62
     7
370
    18
100
AcDbSpline
210
0.0
220
0.0
230
1.0
 70
     8
 71
     3
 72
    12
 73
     8
 74
     0
 42
0.00000001
 43
0.00000001
 40
0.0
 40
0.0
 40
0.0
 40
0.0
 40
0.0393648865217121
 40
0.2720632533302512
 40
0.5078200390115768
 40
0.7498196761936775
 40
1.0
 40
1.0
 40
1.0
 40
1.0
 10
80.20359760194339
 20
52.51641634664256
 30
0.0
 10
80.18099716673865
 20
52.53067124554695
 30
0.0
 10
80.02479836949105
 20
52.62919138657871
 30
0.0
 10
79.98505813166214
 20
52.67230296134957
 30
0.0
 10
80.10320586642753
 20
52.58123815737951
 30
0.0
 10
80.48921535704102
 20
52.30937924233591
 30
0.0
 10
80.99301506926432
 20
52.07935552362389
 30
0.0
 10
81.24910183656063
 20
51.96243201394882
 30
0.0
  0
SPLINE
  5
A6
330
1F
100
AcDbEntity
  8
0
  6
HIDDEN
 62
     7
370
    18
100
AcDbSpline
210
0.0
220
0.0
230
1.0
 70
     8
 71
     3
 72
     9
 73
     5
 74
     0
 42
0.00000001
 43
0.00000001
 40
0.0
 40
0.0
 40
0.0
 40
0.0
 40
0.5507476950483775
 40
1.0
 40
1.0
 40
1.0
 40
1.0
 10
81.25048589869525
 20
51.96188680759577
 30
0.0
 10
81.3223979060501
 20
51.93253947885754
 30
0.0
 10
81.45296950535298
 20
51.87925313921038
 30
0.0
 10
81.58094131058357
 20
51.81690490081377
 30
0.0
 10
81.63843293905222
 20
51.78889481100442
 30
0.0
  0
LINE
  5
A7
330
1F
100
AcDbEntity
  8
0
  6
HIDDEN
 62
     7
370
    18
100
AcDbLine
 10
81.3625224226
 20
62.0880729412
 30
0.0
 11
81.6384323236
 21
62.2111077235
 31
0.0
  0
LINE
  5
A8
330
1F
100
AcDbEntity
  8
0
  6
HIDDEN
 62
     7
370
    18
100
AcDbLine
 10
83.2342876459
 20
48.8780777336
 30
0.0
 11
80.7439104816
 21
48.8780777336
 31
0.0
  0
LINE
  5
A9
330
1F
100
AcDbEntity
  8
0
  6
HIDDEN
 62
     7
370
    18
100
AcDbLine
 10
80.7439104816
 20
65.1219222664
 30
0.0
 11
83.2342876459
 21
65.1219222664
 31
0.0
  0
LINE
  5
AA
330
1F
100
AcDbEntity
  8
0
  6
HIDDEN
 62
     7
370
    18
100
AcDbLine
 10
116.8413427767
 20
70.5365371107
 30
0.0
 11
102.4023698586
 21
70.5365371107
 31
0.0
  0
SPLINE
  5
AB
330
1F
100
AcDbEntity
  8
0
  6
HIDDEN
 62
     7
370
    18
100
AcDbSpline
210
0.0
220
0.0
230
1.0
 70
     8
 71
     3
 72
    14
 73
    10
 74
     0
 42
0.00000001
 43
0.00000001
 40
0.0
 40
0.0
 40
0.0
 40
0.0
 40
0.25
 40
0.25
 40
0.5
 40
0.5
 40
0.75
 40
0.75
 40
1.0
 40
1.0
 40
1.0
 40
1.0
 10
76.5148332272203
 20
54.35993995391259
 30
0.0
 10
76.40602557614207
 20
54.79024900761678
 30
0.0
 10
76.32134774589844
 20
55.22757672177944
 30
0.0
 10
76.20969471245267
 20
56.1088125242132
 30
0.0
 10
76.18146242224117
 20
56.55430687814669
 30
0.0
 10
76.18131684213795
 20
57.44222680164028
 30
0.0
 10
76.20931357793673
 20
57.88719166513458
 30
0.0
 10
76.32098602808679
 20
58.77054949117633
 30
0.0
 10
76.40602557614207
 20
59.20975099238321
 30
0.0
 10
76.5148332272203
 20
59.64006004608739
 30
0.0
  0
LINE
  5
AC
330
1F
100
AcDbEntity
  8
0
  6
HIDDEN
 62
     7
370
    18
100
AcDbLine
 10
50.0610930307
 20
72.7926266291
 30
0.0
 11
44.6464781864
 21
72.7926266291
 31
0.0
  0
LINE
  5
AD
330
1F
100
AcDbEntity
  8
0
  6
HIDDEN
 62
     7
370
    18
100
AcDbLine
 10
44.6464781864
 20
62.865832748
 30
0.0
 11
50.0610930307
 21
62.865832748
 31
0.0
  0
LINE
  5
AE
330
1F
100
AcDbEntity
  8
0
  6
HIDDEN
 62
     7
370
    18
100
AcDbLine
 10
50.0610930307
 20
51.134167252
 30
0.0
 11
44.6464781864
 21
51.134167252
 31
0.0
  0
LINE
  5
AF
330
1F
100
AcDbEntity
  8
0
  6
HIDDEN
 62
     7
370
    18
100
AcDbLine
 10
44.6464781864
 20
41.2073733709
 30
0.0
 11
50.0610930307
 21
41.2073733709
 31
0.0
  0
LINE
  5
B0
330
1F
100
AcDbEntity
  8
0
  6
HIDDEN
 62
     7
370
    18
100
AcDbLine
 10
55.4757078749
 20
48.8780777336
 30
0.0
 11
50.0610930307
 21
48.8780777336
 31
0.0
  0
LINE
  5
B1
330
1F
100
AcDbEntity
  8
0
  6
HIDDEN
 62
     7
370
    18
100
AcDbLine
 10
50.0610930307
 20
43.4634628893
 30
0.0
 11
55.4757078749
 21
43.4634628893
 31
0.0
  0
LINE
  5
B2
330
1F
100
AcDbEntity
  8
0
  6
HIDDEN
 62
     7
370
    18
100
AcDbLine
 10
55.4757078749
 20
70.5365371107
 30
0.0
 11
50.0610930307
 21
70.5365371107
 31
0.0
  0
LINE
  5
B3
330
1F
100
AcDbEntity
  8
0
  6
HIDDEN
 62
     7
370
    18
100
AcDbLine
 10
50.0610930307
 20
65.1219222664
 30
0.0
 11
55.4757078749
 21
65.1219222664
 31
0.0
  0
SPLINE
  5
B4
330
1F
100
AcDbEntity
  8
0
  6
HIDDEN
 62
     7
370
    18
100
AcDbSpline
210
0.0
220
0.0
230
1.0
 70
     8
 71
     3
 72
    15
 73
    11
 74
     0
 42
0.00000001
 43
0.00000001
 40
0.0
 40
0.0
 40
0.0
 40
0.0
 40
0.006982703888431
 40
0.202513772117568
 40
0.3808307311289993
 40
0.5412210341672666
 40
0.6831808533617373
 40
0.8065308537973201
 40
0.9117428634623718
 40
1.0
 40
1.0
 40
1.0
 40
1.0
 10
81.63553577146506
 20
51.79272634602167
 30
0.0
 10
81.6284318273582
 20
51.79446199143588
 30
0.0
 10
81.42240182222284
 20
51.84479952622279
 30
0.0
 10
81.17416766897382
 20
51.94735815149995
 30
0.0
 10
80.88341499219844
 20
52.04059451378789
 30
0.0
 10
80.73501870245826
 20
52.05286070230398
 30
0.0
 10
80.67851430540573
 20
51.97707879813565
 30
0.0
 10
80.68385497924609
 20
51.80976314991467
 30
0.0
 10
80.724867610809
 20
51.57368344909233
 30
0.0
 10
80.73809462471216
 20
51.31405290911447
 30
0.0
 10
80.74412854999147
 20
51.19561413752781
 30
0.0
  0
SPLINE
  5
B5
330
1F
100
AcDbEntity
  8
0
  6
HIDDEN
 62
     7
370
    18
100
AcDbSpline
210
0.0
220
0.0
230
1.0
 70
     8
 71
     3
 72
    17
 73
    13
 74
     0
 42
0.00000001
 43
0.00000001
 40
0.0
 40
0.0
 40
0.0
 40
0.0
 40
0.0066029622857934
 40
0.0138780741319739
 40
0.0320105797347592
 40
0.0881746756910706
 40
0.1750991616437228
 40
0.294644438095057
 40
0.4476445058573865
 40
0.6341677595181024
 40
0.85377465224031
 40
1.0
 40
1.0
 40
1.0
 40
1.0
 10
80.7441285499914
 20
62.80438586247217
 30
0.0
 10
80.74383245746895
 20
62.78217187279214
 30
0.0
 10
80.74321013164027
 20
62.73548261693956
 30
0.0
 10
80.73747851579967
 20
62.64123583832394
 30
0.0
 10
80.71627574674751
 20
62.46095140012316
 30
0.0
 10
80.67296536480175
 20
62.27152051685493
 30
0.0
 10
80.62817272445928
 20
62.08788878497847
 30
0.0
 10
80.61105649790929
 20
61.95369389795766
 30
0.0
 10
80.65569945247462
 20
61.87935632554704
 30
0.0
 10
80.80303831328831
 20
61.88601841112656
 30
0.0
 10
81.02344334778724
 20
61.96100387364448
 30
0.0
 10
81.25314831148195
 20
62.04170265014046
 30
0.0
 10
81.3449627676221
 20
62.07395843667629
 30
0.0
  0
LINE
  5
B6
330
1F
100
AcDbEntity
  8
0
  6
HIDDEN
 62
     7
370
    18
100
AcDbLine
 10
80.7439104816
 20
51.2323600809
 30
0.0
 11
80.7439104816
 21
48.8780777336
 31
0.0
  0
LINE
  5
B7
330
1F
100
AcDbEntity
  8
0
  6
HIDDEN
 62
     7
370
    18
100
AcDbLine
 10
80.7439104816
 20
65.1219222664
 30
0.0
 11
80.7439104816
 21
62.7676399191
 31
0.0
  0
LINE
  5
B8
330
1F
100
AcDbEntity
  8
0
  6
HIDDEN
 62
     7
370
    18
100
AcDbLine
 10
116.8413427767
 20
70.5365371107
 30
0.0
 11
116.8413427767
 21
72.3414087254
 31
0.0
  0
LINE
  5
B9
330
1F
100
AcDbEntity
  8
0
  6
HIDDEN
 62
     7
370
    18
100
AcDbLine
 10
102.4023698586
 20
72.3414087254
 30
0.0
 11
102.4023698586
 21
70.5365371107
 31
0.0
  0
LINE
  5
BA
330
1F
100
AcDbEntity
  8
0
  6
HIDDEN
 62
     7
370
    18
100
AcDbLine
 10
106.0121130882
 20
70.5365371107
 30
0.0
 11
106.0121130882
 21
65.1219222664
 31
0.0
  0
LINE
  5
BB
330
1F
100
AcDbEntity
  8
0
  6
HIDDEN
 62
     7
370
    18
100
AcDbLine
 10
113.2315995472
 20
65.1219222664
 30
0.0
 11
113.2315995472
 21
70.5365371107
 31
0.0
  0
LINE
  5
BC
330
1F
100
AcDbEntity
  8
0
  6
HIDDEN
 62
     7
370
    18
100
AcDbLine
 10
106.4633309919
 20
48.8780777336
 30
0.0
 11
106.4633309919
 21
41.6585912746
 31
0.0
  0
LINE
  5
BD
330
1F
100
AcDbEntity
  8
0
  6
HIDDEN
 62
     7
370
    18
100
AcDbLine
 10
112.7803816435
 20
41.6585912746
 30
0.0
 11
112.7803816435
 21
48.8780777336
 31
0.0
  0
SPLINE
  5
BE
330
1F
100
AcDbEntity
  8
0
  6
Continuous
 62
     7
370
    25
100
AcDbSpline
210
0.0
220
0.0
230
1.0
 70
     8
 71
     3
 72
     9
 73
     5
 74
     0
 42
0.00000001
 43
0.00000001
 40
0.0
 40
0.0
 40
0.0
 40
0.0
 40
0.6122358221692772
 40
1.0
 40
1.0
 40
1.0
 40
1.0
 10
68.63929478572815
 20
181.6644999399999
 30
0.0
 10
68.91632176321102
 20
181.9152003485677
 30
0.0
 10
69.36880586729576
 20
182.3246837526578
 30
0.0
 10
69.78913062705875
 20
182.5714032249535
 30
0.0
 10
69.95211751195015
 20
182.6670721982831
 30
0.0
  0
LINE
  5
BF
330
1F
100
AcDbEntity
  8
0
  6
Continuous
 62
     7
370
    25
100
AcDbLine
 10
70.1932182411
 20
182.8191554399
 30
0.0
 11
70.3666290371
 21
182.9285407415
 31
0.0
  0
ELLIPSE
  5
C0
330
1F
100
AcDbEntity
  8
0
  6
Continuous
 62
     7
370
    25
100
AcDbEllipse
 10
46.4513498011
 20
128.0084212685
 30
0.0
 11
1.804871614758056
 21
0.0
 31
0.0
210
0.0
220
0.0
230
1.0
 40
0.4142135624
 41
1.570796326794897
 42
3.141592653589793
  0
LINE
  5
C1
330
1F
100
AcDbEntity
  8
0
  6
Continuous
 62
     7
370
    25
100
AcDbLine
 10
44.6464781864
 20
129.8774270215
 30
0.0
 11
44.6464781864
 21
128.0084212685
 31
0.0
  0
LINE
  5
C2
330
1F
100
AcDbEntity
  8
0
  6
Continuous
 62
     7
370
    25
100
AcDbLine
 10
44.6464781864
 20
128.0084212685
 30
0.0
 11
44.6464781864
 21
109.8048716148
 31
0.0
  0
LINE
  5
C3
330
1F
100
AcDbEntity
  8
0
  6
Continuous
 62
     7
370
    25
100
AcDbLine
 10
53.6708362602
 20
128.7560235697
 30
0.0
 11
46.4513498011
 21
128.7560235697
 31
0.0
  0
ELLIPSE
  5
C4
330
1F
100
AcDbEntity
  8
0
  6
Continuous
 62
     7
370
    25
100
AcDbEllipse
 10
53.6708362602
 20
126.2035496538
 30
0.0
 11
0.0
 21
2.552473915933078
 31
0.0
210
0.0
220
0.0
230
1.0
 40
0.7071067812
 41
4.712388980384699
 42
6.283185307179586
  0
LINE
  5
C5
330
1F
100
AcDbEntity
  8
0
  6
Continuous
 62
     7
370
    25
100
AcDbLine
 10
55.4757078749
 20
126.2035496538
 30
0.0
 11
55.4757078749
 21
129.8774270215
 31
0.0
  0
LINE
  5
C6
330
1F
100
AcDbEntity
  8
0
  6
Continuous
 62
     7
370
    25
100
AcDbLine
 10
55.4757078749
 20
109.8048716148
 30
0.0
 11
55.4757078749
 21
126.2035496538
 31
0.0
  0
LINE
  5
C7
330
1F
100
AcDbEntity
  8
0
  6
Continuous
 62
     7
370
    25
100
AcDbLine
 10
46.4513498011
 20
108.0
 30
0.0
 11
55.4757078749
 21
108.0
 31
0.0
  0
LINE
  5
C8
330
1F
100
AcDbEntity
  8
0
  6
Continuous
 62
     7
370
    25
100
AcDbLine
 10
55.4757078749
 20
108.0
 30
0.0
 11
55.4757078749
 21
109.8048716148
 31
0.0
  0
ARC
  5
C9
330
1F
100
AcDbEntity
  8
0
  6
Continuous
 62
     7
370
    25
100
AcDbCircle
 10
46.4513498011
 20
109.8048716148
 30
0.0
 40
1.804871614758063
100
AcDbArc
 50
180.0
 51
270.0
  0
LINE
  5
CA
330
1F
100
AcDbEntity
  8
0
  6
Continuous
 62
     7
370
    25
100
AcDbLine
 10
44.6464781864
 20
136.2586118113
 30
0.0
 11
44.6464781864
 21
129.8774270215
 31
0.0
  0
LINE
  5
CB
330
1F
100
AcDbEntity
  8
0
  6
Continuous
 62
     7
370
    25
100
AcDbLine
 10
55.4757078749
 20
129.8774270215
 30
0.0
 11
55.4757078749
 21
136.2586118113
 31
0.0
  0
ARC
  5
CC
330
1F
100
AcDbEntity
  8
0
  6
Continuous
 62
     7
370
    25
100
AcDbCircle
 10
109.6218563177
 20
195.5362733158
 30
0.0
 40
11.73166549592742
100
AcDbArc
 50
270.0
 51
90.0
  0
LINE
  5
CD
330
1F
100
AcDbEntity
  8
0
  6
Continuous
 62
     7
370
    25
100
AcDbLine
 10
109.6218563177
 20
207.2679388117
 30
0.0
 11
76.5148332272
 21
207.2679388117
 31
0.0
  0
ARC
  5
CE
330
1F
100
AcDbEntity
  8
0
  6
Continuous
 62
     7
370
    25
100
AcDbCircle
 10
76.5148332272
 20
200.0484523527
 30
0.0
 40
7.219486459032255
100
AcDbArc
 50
90.0
 51
135.0
  0
CIRCLE
  5
CF
330
1F
100
AcDbEntity
  8
0
  6
Continuous
 62
     7
370
    25
100
AcDbCircle
 10
109.6218563177
 20
195.5362733158
 30
0.0
 40
7.219486459032254
  0
LINE
  5
D0
330
1F
100
AcDbEntity
  8
0
  6
Continuous
 62
     7
370
    25
100
AcDbLine
 10
71.4098853954
 20
205.1534001845
 30
0.0
 11
46.7610168136
 21
180.5045316027
 31
0.0
  0
LINE
  5
D1
330
1F
100
AcDbEntity
  8
0
  6
Continuous
 62
     7
370
    25
100
AcDbLine
 10
73.8075258051
 20
183.8046078198
 30
0.0
 11
109.6218563177
 21
183.8046078198
 31
0.0
  0
ARC
  5
D2
330
1F
100
AcDbEntity
  8
0
  6
Continuous
 62
     7
370
    25
100
AcDbCircle
 10
73.8075258051
 20
176.5851213608
 30
0.0
 40
7.219486459032255
100
AcDbArc
 50
90.0
 51
135.0
  0
LINE
  5
D3
330
1F
100
AcDbEntity
  8
0
  6
Continuous
 62
     7
370
    25
100
AcDbLine
 10
53.6708362602
 20
169.2108013956
 30
0.0
 11
55.4757078749
 21
168.4631990944
 31
0.0
  0
LINE
  5
D4
330
1F
100
AcDbEntity
  8
0
  6
Continuous
 62
     7
370
    25
100
AcDbLine
 10
55.4757078749
 20
168.4631990944
 30
0.0
 11
68.7025779732
 21
181.6900691927
 31
0.0
  0
ARC
  5
D5
330
1F
100
AcDbEntity
  8
0
  6
Continuous
 62
     7
370
    25
100
AcDbCircle
 10
51.8659646454
 20
175.3995837709
 30
0.0
 40
7.219486459032249
100
AcDbArc
 50
135.0
 51
180.0
  0
LINE
  5
D6
330
1F
100
AcDbEntity
  8
0
  6
Continuous
 62
     7
370
    25
100
AcDbLine
 10
44.6464781864
 20
175.3995837709
 30
0.0
 11
44.6464781864
 21
136.2586118113
 31
0.0
  0
LINE
  5
D7
330
1F
100
AcDbEntity
  8
0
  6
Continuous
 62
     7
370
    25
100
AcDbLine
 10
55.4757078749
 20
136.2586118113
 30
0.0
 11
55.4757078749
 21
168.4631990944
 31
0.0
  0
CIRCLE
  5
D8
330
1F
100
AcDbEntity
  8
0
  6
Continuous
 62
     7
370
    25
100
AcDbCircle
 10
109.6218563177
 20
195.5362733158
 30
0.0
 40
3.609743229516113
  0
LINE
  5
D9
330
1F
100
AcDbEntity
  8
0
  6
Continuous
 62
     7
370
    25
100
AcDbLine
 10
68.5382663334
 20
181.6236799035
 30
0.0
 11
68.7025779732
 21
181.6900691927
 31
0.0
  0
SPLINE
  5
DA
330
1F
100
AcDbEntity
  8
0
  6
Continuous
 62
     7
370
    25
100
AcDbSpline
210
0.0
220
0.0
230
1.0
 70
     8
 71
     3
 72
     9
 73
     5
 74
     0
 42
0.00000001
 43
0.00000001
 40
0.0
 40
0.0
 40
0.0
 40
0.0
 40
0.6465967812711617
 40
1.0
 40
1.0
 40
1.0
 40
1.0
 10
76.460931387272
 20
207.2670492900988
 30
0.0
 10
76.35191819182367
 20
207.2646719485639
 30
0.0
 10
76.18332286532976
 20
207.2609952498798
 30
0.0
 10
76.20713554101373
 20
207.2615401349152
 30
0.0
 10
76.215551017247
 20
207.2617326990406
 30
0.0
  0
CIRCLE
  5
DB
330
1F
100
AcDbEntity
  8
0
  6
Continuous
 62
     7
370
    25
100
AcDbCircle
 10
109.6218563177
 20
195.5362733158
 30
0.0
 40
3.158525325826588
  0
LINE
  5
DC
330
1F
100
AcDbEntity
  8
0
  6
HIDDEN
 62
     7
370
    18
100
AcDbLine
 10
50.0610930307
 20
124.2438445328
 30
0.0
 11
50.0610930307
 21
119.2804475922
 31
0.0
  0
LINE
  5
DD
330
1F
100
AcDbEntity
  8
0
  6
HIDDEN
 62
     7
370
    18
100
AcDbLine
 10
50.0610930307
 20
129.2072414734
 30
0.0
 11
50.0610930307
 21
124.2438445328
 31
0.0
  0
ARC
  5
DE
330
1F
100
AcDbEntity
  8
0
  6
HIDDEN
 62
     7
370
    18
100
AcDbCircle
 10
62.9915787315
 20
194.1826196047
 30
0.0
 40
1.804871614758066
100
AcDbArc
 50
135.0
 51
225.0
  0
ARC
  5
DF
330
1F
100
AcDbEntity
  8
0
  6
HIDDEN
 62
     7
370
    18
100
AcDbCircle
 10
46.4513498011
 20
135.0730742214
 30
0.0
 40
1.804871614758071
100
AcDbArc
 50
90.0
 51
180.0
  0
ARC
  5
E0
330
1F
100
AcDbEntity
  8
0
  6
HIDDEN
 62
     7
370
    18
100
AcDbCircle
 10
53.6708362602
 20
135.0730742214
 30
0.0
 40
1.804871614758071
100
AcDbArc
 50
0.0
 51
90.0
  0
SPLINE
  5
E1
330
1F
100
AcDbEntity
  8
0
  6
HIDDEN
 62
     7
370
    18
100
AcDbSpline
210
0.0
220
0.0
230
1.0
 70
     8
 71
     3
 72
     9
 73
     5
 74
     0
 42
0.00000001
 43
0.00000001
 40
0.0
 40
0.0
 40
0.0
 40
0.0
 40
0.571428571428571
 40
1.0
 40
1.0
 40
1.0
 40
1.0
 10
70.51631191726483
 20
184.1054125029568
 30
0.0
 10
70.76197619637664
 20
183.859748223845
 30
0.0
 10
71.31887741691614
 20
183.5583950646041
 30
0.0
 10
71.94155623167721
 20
183.5641640665474
 30
0.0
 10
72.1955442612017
 20
183.6223438408998
 30
0.0
  0
LINE
  5
E2
330
1F
100
AcDbEntity
  8
0
  6
HIDDEN
 62
     7
370
    18
100
AcDbLine
 10
61.7153417735
 20
192.9063826467
 30
0.0
 11
70.5163119173
 21
184.105412503
 31
0.0
  0
ARC
  5
E3
330
1F
100
AcDbEntity
  8
0
  6
HIDDEN
 62
     7
370
    18
100
AcDbCircle
 10
109.6218563177
 20
195.5362733158
 30
0.0
 40
28.8779458361289
100
AcDbArc
 50
156.0305176822
 51
203.9694823178
  0
LINE
  5
E4
330
1F
100
AcDbEntity
  8
0
  6
HIDDEN
 62
     7
370
    18
100
AcDbLine
 10
53.6708362602
 20
136.8779458361
 30
0.0
 11
46.4513498011
 21
136.8779458361
 31
0.0
  0
SPLINE
  5
E5
330
1F
100
AcDbEntity
  8
0
  6
HIDDEN
 62
     7
370
    18
100
AcDbSpline
210
0.0
220
0.0
230
1.0
 70
     8
 71
     3
 72
    19
 73
    15
 74
     0
 42
0.00000001
 43
0.00000001
 40
0.0
 40
0.0
 40
0.0
 40
0.0
 40
0.0623140799327657
 40
0.1465146212132924
 40
0.2526948507879914
 40
0.3980348023292622
 40
0.5039030840652962
 40
0.6413076668746245
 40
0.754682971784826
 40
0.8097716230678812
 40
0.8614408138087211
 40
0.9100601843144928
 40
0.9560699952077002
 40
1.0
 40
1.0
 40
1.0
 40
1.0
 10
81.25096944188185
 20
205.4630677846901
 30
0.0
 10
81.30226310451552
 20
205.5099235192617
 30
0.0
 10
81.42286620993771
 20
205.6200920431301
 30
0.0
 10
81.62783595378174
 20
205.808272554845
 30
0.0
 10
81.89622078751074
 20
206.0546255934026
 30
0.0
 10
82.17561386959537
 20
206.3095688351839
 30
0.0
 10
82.46947944609401
 20
206.5753669281515
 30
0.0
 10
82.72650982418074
 20
206.8019267497566
 30
0.0
 10
82.92461714745305
 20
206.9760714069002
 30
0.0
 10
83.04754749466437
 20
207.0829290411257
 30
0.0
 10
83.12229802789236
 20
207.1484467962528
 30
0.0
 10
83.17810364799675
 20
207.1992639995609
 30
0.0
 10
83.21640193306987
 20
207.2371160478466
 30
0.0
 10
83.22535981412751
 20
207.2509411002955
 30
0.0
 10
83.22973518175297
 20
207.2576937783582
 30
0.0
  0
SPLINE
  5
E6
330
1F
100
AcDbEntity
  8
0
  6
HIDDEN
 62
     7
370
    18
100
AcDbSpline
210
0.0
220
0.0
230
1.0
 70
     8
 71
     3
 72
    21
 73
    17
 74
     0
 42
0.00000001
 43
0.00000001
 40
0.0
 40
0.0
 40
0.0
 40
0.0
 40
0.0873539384671025
 40
0.1586109261440403
 40
0.2137581225376216
 40
0.2527012351936747
 40
0.3874634773641497
 40
0.5039419657861403
 40
0.5794672736811031
 40
0.6507588136933635
 40
0.7178975174616206
 40
0.7810118170282845
 40
0.8403190374764202
 40
0.8961759017050145
 40
0.9491354213983981
 40
1.0
 40
1.0
 40
1.0
 40
1.0
 10
81.25048589869525
 20
185.6094794345966
 30
0.0
 10
81.32237409446877
 20
185.5438298621958
 30
0.0
 10
81.45290345022025
 20
185.4246281448814
 30
0.0
 10
81.6255709765916
 20
185.265471346001
 30
0.0
 10
81.75842556917374
 20
185.1441809558646
 30
0.0
 10
81.94084287737505
 20
184.9779158628602
 30
0.0
 10
82.16694454274126
 20
184.7694855282113
 30
0.0
 10
82.4152192606628
 20
184.5466325052974
 30
0.0
 10
82.60674082977577
 20
184.3755789327602
 30
0.0
 10
82.754903823175
 20
184.2437003695486
 30
0.0
 10
82.88589995169708
 20
184.1282017113784
 30
0.0
 10
82.99856096830091
 20
184.0297621648219
 30
0.0
 10
83.09174718539745
 20
183.9486754957004
 30
0.0
 10
83.16293194125883
 20
183.8856812550699
 30
0.0
 10
83.21293953545113
 20
183.8391191654545
 30
0.0
 10
83.22421245370371
 20
183.8228320784513
 30
0.0
 10
83.22973518152843
 20
183.8148528536791
 30
0.0
  0
SPLINE
  5
E7
330
1F
100
AcDbEntity
  8
0
  6
HIDDEN
 62
     7
370
    18
100
AcDbSpline
210
0.0
220
0.0
230
1.0
 70
     8
 71
     3
 72
     9
 73
     5
 74
     0
 42
0.00000001
 43
0.00000001
 40
0.0
 40
0.0
 40
0.0
 40
0.0
 40
0.5507257739814432
 40
1.0
 40
1.0
 40
1.0
 40
1.0
 10
81.00957109330741
 20
199.3832305824619
 30
0.0
 10
81.03130737369605
 20
199.5718115419853
 30
0.0
 10
81.07077580138828
 20
199.9142341567108
 30
0.0
 10
81.13664032380935
 20
200.2511600187767
 30
0.0
 10
81.16623155614215
 20
200.402532124682
 30
0.0
  0
ARC
  5
E8
330
1F
100
AcDbEntity
  8
0
  6
HIDDEN
 62
     7
370
    18
100
AcDbCircle
 10
103.074050079
 20
197.1466184782
 30
0.0
 40
22.13931534539558
100
AcDbArc
 50
162.3568189789
 51
170.6299739928
  0
SPLINE
  5
E9
330
1F
100
AcDbEntity
  8
0
  6
HIDDEN
 62
     7
370
    18
100
AcDbSpline
210
0.0
220
0.0
230
1.0
 70
     8
 71
     3
 72
    15
 73
    11
 74
     0
 42
0.00000001
 43
0.00000001
 40
0.0
 40
0.0
 40
0.0
 40
0.0
 40
0.1138254747965601
 40
0.2624462032784867
 40
0.4037213295067662
 40
0.5376529167150174
 40
0.6642433929000484
 40
0.7834956401863581
 40
0.8954131133899652
 40
0.9999999999999999
 40
0.9999999999999999
 40
0.9999999999999999
 40
0.9999999999999999
 10
82.04089986970487
 20
204.0729942585142
 30
0.0
 10
82.07709431315665
 20
204.1966807157861
 30
0.0
 10
82.16054746176569
 20
204.4818632829223
 30
0.0
 10
82.30841823585645
 20
204.9145434357982
 30
0.0
 10
82.46741398409743
 20
205.3676089640933
 30
0.0
 10
82.62617348601621
 20
205.7945154940251
 30
0.0
 10
82.78221691025645
 20
206.1959892337164
 30
0.0
 10
82.93492810932199
 20
206.572193251137
 30
0.0
 10
83.08279973313653
 20
206.9236297974306
 30
0.0
 10
83.18187488878546
 20
207.148881370274
 30
0.0
 10
83.22973518166201
 20
207.2576937781534
 30
0.0
  0
LINE
  5
EA
330
1F
100
AcDbEntity
  8
0
  6
HIDDEN
 62
     7
370
    18
100
AcDbLine
 10
50.0610930307
 20
129.2072414734
 30
0.0
 11
44.6464781864
 21
129.2072414734
 31
0.0
  0
LINE
  5
EB
330
1F
100
AcDbEntity
  8
0
  6
HIDDEN
 62
     7
370
    18
100
AcDbLine
 10
44.6464781864
 20
119.2804475922
 30
0.0
 11
50.0610930307
 21
119.2804475922
 31
0.0
  0
LINE
  5
EC
330
1F
100
AcDbEntity
  8
0
  6
HIDDEN
 62
     7
370
    18
100
AcDbLine
 10
55.4757078749
 20
126.951151955
 30
0.0
 11
50.0610930307
 21
126.951151955
 31
0.0
  0
LINE
  5
ED
330
1F
100
AcDbEntity
  8
0
  6
HIDDEN
 62
     7
370
    18
100
AcDbLine
 10
50.0610930307
 20
121.5365371107
 30
0.0
 11
55.4757078749
 21
121.5365371107
 31
0.0
  0
LINE
  5
EE
330
1F
100
AcDbEntity
  8
0
  6
HIDDEN
 62
     7
370
    18
100
AcDbLine
 10
68.5608541928
 20
181.5983120194
 30
0.0
 11
68.6392947857
 21
181.66449994
 31
0.0
  0
ARC
  5
EF
330
1F
100
AcDbEntity
  8
0
  6
HIDDEN
 62
     7
370
    18
100
AcDbCircle
 10
76.0148011869
 20
205.4630671969
 30
0.0
 40
1.804871614758058
100
AcDbArc
 50
0.0
 51
83.6731981447
  0
ARC
  5
F0
330
1F
100
AcDbEntity
  8
0
  6
HIDDEN
 62
     7
370
    18
100
AcDbCircle
 10
76.0148011869
 20
185.6094794346
 30
0.0
 40
1.804871614758071
100
AcDbArc
 50
270.0
 51
0.0
  0
LINE
  5
F1
330
1F
100
AcDbEntity
  8
0
  6
HIDDEN
 62
     7
370
    18
100
AcDbLine
 10
77.8196728017
 20
205.4630671969
 30
0.0
 11
77.8196728017
 21
185.6094794346
 31
0.0
  0
INSERT
  5
FD
330
1F
100
AcDbEntity
  8
10
100
AcDbBlockReference
  2
SW_CENTERMARKSYMBOL_0
 10
109.6218563177
 20
195.5362733158
 30
0.0
  0
LINE
  5
FE
330
1F
100
AcDbEntity
  8
0
  6
Continuous
 62
     7
370
    25
100
AcDbLine
 10
248.5767778462
 20
57.9024358074
 30
0.0
 11
248.5767778462
 21
56.0975641926
 31
0.0
  0
SPLINE
  5
FF
330
1F
100
AcDbEntity
  8
0
  6
Continuous
 62
     7
370
    25
100
AcDbSpline
210
0.0
220
0.0
230
1.0
 70
     8
 71
     3
 72
    18
 73
    14
 74
     0
 42
0.00000001
 43
0.00000001
 40
0.0
 40
0.0
 40
0.0
 40
0.0
 40
0.1345326125390768
 40
0.2532903819213991
 40
0.3547382214488516
 40
0.4298650333141592
 40
0.464574113024501
 40
0.5133303987821236
 40
0.590145805061089
 40
0.666874251927637
 40
0.7604764574224524
 40
0.8713460072361285
 40
0.9999999999999999
 40
0.9999999999999999
 40
0.9999999999999999
 40
0.9999999999999999
 10
246.8983399583182
 20
64.42399565279086
 30
0.0
 10
247.0563674101065
 20
64.28522392271003
 30
0.0
 10
247.353892544437
 20
64.02395237041743
 30
0.0
 10
247.6973077030795
 20
63.48994035491413
 30
0.0
 10
247.9468565865684
 20
62.9367109243959
 30
0.0
 10
248.0907402429721
 20
62.4980404928323
 30
0.0
 10
248.1845744348713
 20
62.15351131416063
 30
0.0
 10
248.2730427310304
 20
61.77554783361361
 30
0.0
 10
248.3653452592562
 20
61.27397818791918
 30
0.0
 10
248.4521402377294
 20
60.63362318047955
 30
0.0
 10
248.5211476557943
 20
59.87736034705433
 30
0.0
 10
248.5690688975358
 20
58.95193175198946
 30
0.0
 10
248.5742022086246
 20
58.26916606847008
 30
0.0
 10
248.5769594364133
 20
57.90243580737903
 30
0.0
  0
SPLINE
  5
100
330
1F
100
AcDbEntity
  8
0
  6
Continuous
 62
     7
370
    25
100
AcDbSpline
210
0.0
220
0.0
230
1.0
 70
     8
 71
     3
 72
    17
 73
    13
 74
     0
 42
0.00000001
 43
0.00000001
 40
0.0
 40
0.0
 40
0.0
 40
0.0
 40
0.1273913043754873
 40
0.236338524269303
 40
0.3273304452347904
 40
0.4309795520352263
 40
0.4966715459431815
 40
0.5659786280530851
 40
0.6753817294204704
 40
0.7687217288941929
 40
0.8770719455255741
 40
1.0
 40
1.0
 40
1.0
 40
1.0
 10
248.5769594364133
 20
56.09756419262096
 30
0.0
 10
248.5742140319737
 20
55.73467885351411
 30
0.0
 10
248.5691207107539
 20
55.06144777275926
 30
0.0
 10
248.5225665338097
 20
54.15149166284123
 30
0.0
 10
248.4495453833603
 20
53.33365491537168
 30
0.0
 10
248.3560811252703
 20
52.6612033971231
 30
0.0
 10
248.2422886974446
 20
52.07946292258319
 30
0.0
 10
248.1073820345295
 20
51.54036805288092
 30
0.0
 10
247.923240240611
 20
50.99584963172683
 30
0.0
 10
247.6646995045062
 20
50.45732012846734
 30
0.0
 10
247.3505898163496
 20
49.97367178828598
 30
0.0
 10
247.0552941623274
 20
49.71401562397714
 30
0.0
 10
246.8983398575839
 20
49.57600427099459
 30
0.0
  0
SPLINE
  5
101
330
1F
100
AcDbEntity
  8
0
  6
Continuous
 62
     7
370
    25
100
AcDbSpline
210
0.0
220
0.0
230
1.0
 70
     8
 71
     3
 72
    12
 73
     8
 74
     0
 42
0.00000001
 43
0.00000001
 40
0.0
 40
0.0
 40
0.0
 40
0.0
 40
0.1111805124257765
 40
0.3836776883823857
 40
0.6212555720393701
 40
0.8735984373015461
 40
1.0
 40
1.0
 40
1.0
 40
1.0
 10
244.975896945939
 20
65.12192226641126
 30
0.0
 10
245.0452615513017
 20
65.12028280596724
 30
0.0
 10
245.2846348988467
 20
65.11462512028443
 30
0.0
 10
245.674509212266
 20
65.0458766371686
 30
0.0
 10
246.160627821931
 20
64.87423448367569
 30
0.0
 10
246.5588506968018
 20
64.6631878010363
 30
0.0
 10
246.8020228647185
 20
64.48892336159052
 30
0.0
 10
246.8831787570836
 20
64.43076462487372
 30
0.0
  0
SPLINE
  5
102
330
1F
100
AcDbEntity
  8
0
  6
Continuous
 62
     7
370
    25
100
AcDbSpline
210
0.0
220
0.0
230
1.0
 70
     8
 71
     3
 72
    12
 73
     8
 74
     0
 42
0.00000001
 43
0.00000001
 40
0.0
 40
0.0
 40
0.0
 40
0.0
 40
0.1120038922637507
 40
0.3461702926061044
 40
0.5853186765272709
 40
0.8350097118649671
 40
1.0
 40
1.0
 40
1.0
 40
1.0
 10
246.8831787570836
 20
49.56923537512625
 30
0.0
 10
246.8112861452238
 20
49.5174485889985
 30
0.0
 10
246.589087737823
 20
49.35739123255633
 30
0.0
 10
246.2108943783239
 20
49.14941128802435
 30
0.0
 10
245.7489048452896
 20
48.97577817100387
 30
0.0
 10
245.3376016773668
 20
48.89034785860961
 30
0.0
 10
245.0788479386442
 20
48.88157014450226
 30
0.0
 10
244.975896945939
 20
48.87807773358873
 30
0.0
  0
ARC
  5
103
330
1F
100
AcDbEntity
  8
0
  6
Continuous
 62
     7
370
    25
100
AcDbCircle
 10
250.6094794346
 20
70.5365371107
 30
0.0
 40
1.804871614758056
100
AcDbArc
 50
90.0
 51
180.0
  0
LINE
  5
104
330
1F
100
AcDbEntity
  8
0
  6
Continuous
 62
     7
370
    25
100
AcDbLine
 10
270.4630671969
 20
72.3414087254
 30
0.0
 11
250.6094794346
 21
72.3414087254
 31
0.0
  0
ARC
  5
105
330
1F
100
AcDbEntity
  8
0
  6
Continuous
 62
     7
370
    25
100
AcDbCircle
 10
270.4630671969
 20
70.5365371107
 30
0.0
 40
1.804871614758056
100
AcDbArc
 50
0.0
 51
90.0
  0
LINE
  5
106
330
1F
100
AcDbEntity
  8
0
  6
Continuous
 62
     7
370
    25
100
AcDbLine
 10
248.8046078198
 20
43.4634628893
 30
0.0
 11
248.8046078198
 21
48.8780777336
 31
0.0
  0
LINE
  5
107
330
1F
100
AcDbEntity
  8
0
  6
Continuous
 62
     7
370
    25
100
AcDbLine
 10
272.2679388117
 20
48.8780777336
 30
0.0
 11
248.8046078198
 21
48.8780777336
 31
0.0
  0
LINE
  5
108
330
1F
100
AcDbEntity
  8
0
  6
Continuous
 62
     7
370
    25
100
AcDbLine
 10
272.2679388117
 20
43.4634628893
 30
0.0
 11
272.2679388117
 21
48.8780777336
 31
0.0
  0
ARC
  5
109
330
1F
100
AcDbEntity
  8
0
  6
Continuous
 62
     7
370
    25
100
AcDbCircle
 10
270.4630671969
 20
43.4634628893
 30
0.0
 40
1.804871614758063
100
AcDbArc
 50
270.0
 51
0.0
  0
LINE
  5
10A
330
1F
100
AcDbEntity
  8
0
  6
Continuous
 62
     7
370
    25
100
AcDbLine
 10
250.6094794346
 20
41.6585912746
 30
0.0
 11
270.4630671969
 21
41.6585912746
 31
0.0
  0
ARC
  5
10B
330
1F
100
AcDbEntity
  8
0
  6
Continuous
 62
     7
370
    25
100
AcDbCircle
 10
250.6094794346
 20
43.4634628893
 30
0.0
 40
1.804871614758063
100
AcDbArc
 50
180.0
 51
270.0
  0
LINE
  5
10C
330
1F
100
AcDbEntity
  8
0
  6
Continuous
 62
     7
370
    25
100
AcDbLine
 10
272.2679388117
 20
65.1219222664
 30
0.0
 11
272.2679388117
 21
70.5365371107
 31
0.0
  0
LINE
  5
10D
330
1F
100
AcDbEntity
  8
0
  6
Continuous
 62
     7
370
    25
100
AcDbLine
 10
248.8046078198
 20
65.1219222664
 30
0.0
 11
248.8046078198
 21
70.5365371107
 31
0.0
  0
LINE
  5
10E
330
1F
100
AcDbEntity
  8
0
  6
Continuous
 62
     7
370
    25
100
AcDbLine
 10
248.8046078198
 20
65.1219222664
 30
0.0
 11
272.2679388117
 21
65.1219222664
 31
0.0
  0
SPLINE
  5
10F
330
1F
100
AcDbEntity
  8
0
  6
Continuous
 62
     7
370
    25
100
AcDbSpline
210
0.0
220
0.0
230
1.0
 70
     8
 71
     3
 72
     8
 73
     4
 74
     0
 42
0.00000001
 43
0.00000001
 40
0.0
 40
0.0
 40
0.0
 40
0.0
 40
1.0
 40
1.0
 40
1.0
 40
1.0
 10
272.2576937778579
 20
49.97254881674196
 30
0.0
 10
272.2644915718649
 20
49.90901895961187
 30
0.0
 10
272.2679388116933
 20
49.84482712795593
 30
0.0
 10
272.2679388116933
 20
49.78051354096775
 30
0.0
  0
SPLINE
  5
110
330
1F
100
AcDbEntity
  8
0
  6
Continuous
 62
     7
370
    25
100
AcDbSpline
210
0.0
220
0.0
230
1.0
 70
     8
 71
     3
 72
     8
 73
     4
 74
     0
 42
0.00000001
 43
0.00000001
 40
0.0
 40
0.0
 40
0.0
 40
0.0
 40
1.0
 40
1.0
 40
1.0
 40
1.0
 10
248.8046078198385
 20
49.78051354096775
 30
0.0
 10
248.8046078198385
 20
49.84487663389941
 30
0.0
 10
248.8080496078207
 20
49.90896800852307
 30
0.0
 10
248.8148528536738
 20
49.97254881674196
 30
0.0
  0
LINE
  5
111
330
1F
100
AcDbEntity
  8
0
  6
Continuous
 62
     7
370
    25
100
AcDbLine
 10
248.8046078198
 20
48.8780777336
 30
0.0
 11
248.8046078198
 21
49.780513541
 31
0.0
  0
LINE
  5
112
330
1F
100
AcDbEntity
  8
0
  6
Continuous
 62
     7
370
    25
100
AcDbLine
 10
272.2679388117
 20
49.780513541
 30
0.0
 11
272.2679388117
 21
48.8780777336
 31
0.0
  0
SPLINE
  5
113
330
1F
100
AcDbEntity
  8
0
  6
Continuous
 62
     7
370
    25
100
AcDbSpline
210
0.0
220
0.0
230
1.0
 70
     8
 71
     3
 72
     8
 73
     4
 74
     0
 42
0.00000001
 43
0.00000001
 40
0.0
 40
0.0
 40
0.0
 40
0.0
 40
1.0
 40
1.0
 40
1.0
 40
1.0
 10
272.2679388116933
 20
64.21948645903224
 30
0.0
 10
272.2679388116933
 20
64.15512336610058
 30
0.0
 10
272.2644970237111
 20
64.09103199147692
 30
0.0
 10
272.2576937778579
 20
64.02745118325804
 30
0.0
  0
SPLINE
  5
114
330
1F
100
AcDbEntity
  8
0
  6
Continuous
 62
     7
370
    25
100
AcDbSpline
210
0.0
220
0.0
230
1.0
 70
     8
 71
     3
 72
     8
 73
     4
 74
     0
 42
0.00000001
 43
0.00000001
 40
0.0
 40
0.0
 40
0.0
 40
0.0
 40
1.0
 40
1.0
 40
1.0
 40
1.0
 10
248.8148528536738
 20
64.02745118325804
 30
0.0
 10
248.8080550596668
 20
64.09098104038812
 30
0.0
 10
248.8046078198385
 20
64.155172872044
 30
0.0
 10
248.8046078198385
 20
64.21948645903224
 30
0.0
  0
LINE
  5
115
330
1F
100
AcDbEntity
  8
0
  6
Continuous
 62
     7
370
    25
100
AcDbLine
 10
248.8046078198
 20
64.219486459
 30
0.0
 11
248.8046078198
 21
65.1219222664
 31
0.0
  0
LINE
  5
116
330
1F
100
AcDbEntity
  8
0
  6
Continuous
 62
     7
370
    25
100
AcDbLine
 10
272.2679388117
 20
65.1219222664
 30
0.0
 11
272.2679388117
 21
64.219486459
 31
0.0
  0
SPLINE
  5
117
330
1F
100
AcDbEntity
  8
0
  6
Continuous
 62
     7
370
    25
100
AcDbSpline
210
0.0
220
0.0
230
1.0
 70
     8
 71
     3
 72
    21
 73
    17
 74
     0
 42
0.00000001
 43
0.00000001
 40
0.0
 40
0.0
 40
0.0
 40
0.0
 40
0.0873539383949929
 40
0.1586109260214877
 40
0.21375812238641
 40
0.2527012350358753
 40
0.387463477280175
 40
0.5039419657401369
 40
0.5794672736429546
 40
0.6507588136624309
 40
0.7178975174372738
 40
0.7810118170098985
 40
0.8403190374633855
 40
0.8961759016967608
 40
0.9491354213944397
 40
1.0
 40
1.0
 40
1.0
 40
1.0
 10
270.4630671969352
 20
51.96188680759577
 30
0.0
 10
270.5287167692828
 20
51.93241347299897
 30
0.0
 10
270.6479184865067
 20
51.87889793633017
 30
0.0
 10
270.8070752852789
 20
51.79626909081374
 30
0.0
 10
270.9283656753585
 20
51.72767533626125
 30
0.0
 10
271.0946307683979
 20
51.6272794373338
 30
0.0
 10
271.3030611031243
 20
51.48657102174726
 30
0.0
 10
271.5259141261226
 20
51.30283360025883
 30
0.0
 10
271.6969676986987
 20
51.13499471017061
 30
0.0
 10
271.8288462619276
 20
50.98389615727141
 30
0.0
 10
271.9443449201132
 20
50.82670555675675
 30
0.0
 10
272.0427844666829
 20
50.66397910579524
 30
0.0
 10
272.1238711358151
 20
50.49647675016445
 30
0.0
 10
272.1868653764539
 20
50.32493485714838
 30
0.0
 10
272.233427466075
 20
50.1506724482097
 30
0.0
 10
272.2497145530798
 20
50.0311192540899
 30
0.0
 10
272.2576937778528
 20
49.97254881679035
 30
0.0
  0
SPLINE
  5
118
330
1F
100
AcDbEntity
  8
0
  6
Continuous
 62
     7
370
    25
100
AcDbSpline
210
0.0
220
0.0
230
1.0
 70
     8
 71
     3
 72
    19
 73
    15
 74
     0
 42
0.00000001
 43
0.00000001
 40
0.0
 40
0.0
 40
0.0
 40
0.0
 40
0.0623140799327657
 40
0.1465146212132924
 40
0.2526948507879914
 40
0.3980348023292622
 40
0.5039030840652962
 40
0.6413076668746245
 40
0.754682971784826
 40
0.8097716230678812
 40
0.8614408138087211
 40
0.9100601843144928
 40
0.9560699952077002
 40
1.0
 40
1.0
 40
1.0
 40
1.0
 10
270.4630677846902
 20
62.03689070930927
 30
0.0
 10
270.5099235192617
 20
62.05782990233294
 30
0.0
 10
270.6200920431301
 20
62.10706272319276
 30
0.0
 10
270.808272554845
 20
62.20297817472563
 30
0.0
 10
271.0546255934025
 20
62.34500134287435
 30
0.0
 10
271.3095688351839
 20
62.5195833113579
 30
0.0
 10
271.5753669281515
 20
62.73879148301313
 30
0.0
 10
271.8019267497565
 20
62.97535799259653
 30
0.0
 10
271.9760714069002
 20
63.2170723997766
 30
0.0
 10
272.0829290411257
 20
63.41551296524625
 30
0.0
 10
272.1484467962529
 20
63.56720835677451
 30
0.0
 10
272.1992639995609
 20
63.72024985518715
 30
0.0
 10
272.2371160478465
 20
63.87322789688231
 30
0.0
 10
272.2509411002956
 20
63.97684209383704
 30
0.0
 10
272.2576937783582
 20
64.02745118319395
 30
0.0
  0
SPLINE
  5
119
330
1F
100
AcDbEntity
  8
0
  6
Continuous
 62
     7
370
    25
100
AcDbSpline
210
0.0
220
0.0
230
1.0
 70
     8
 71
     3
 72
    14
 73
    10
 74
     0
 42
0.00000001
 43
0.00000001
 40
0.0
 40
0.0
 40
0.0
 40
0.0
 40
0.25
 40
0.25
 40
0.5
 40
0.5
 40
0.75
 40
0.75
 40
1.0
 40
1.0
 40
1.0
 40
1.0
 10
272.2679388116933
 20
54.35993995391259
 30
0.0
 10
272.2679388116933
 20
54.79024900761678
 30
0.0
 10
272.2655617755361
 20
55.22757672177944
 30
0.0
 10
272.2617037374416
 20
56.1088125242132
 30
0.0
 10
272.2602377518438
 20
56.55430687814669
 30
0.0
 10
272.2602310208094
 20
57.44222680164028
 30
0.0
 10
272.2616876804182
 20
57.88719166513458
 30
0.0
 10
272.2655521450354
 20
58.77054949117633
 30
0.0
 10
272.2679388116933
 20
59.20975099238321
 30
0.0
 10
272.2679388116933
 20
59.64006004608739
 30
0.0
  0
LINE
  5
11A
330
1F
100
AcDbEntity
  8
0
  6
Continuous
 62
     7
370
    25
100
AcDbLine
 10
272.2679388117
 20
49.780513541
 30
0.0
 11
272.2679388117
 21
54.3599399539
 31
0.0
  0
LINE
  5
11B
330
1F
100
AcDbEntity
  8
0
  6
Continuous
 62
     7
370
    25
100
AcDbLine
 10
272.2679388117
 20
59.6400600461
 30
0.0
 11
272.2679388117
 21
64.219486459
 31
0.0
  0
SPLINE
  5
11C
330
1F
100
AcDbEntity
  8
0
  6
Continuous
 62
     7
370
    25
100
AcDbSpline
210
0.0
220
0.0
230
1.0
 70
     8
 71
     3
 72
    21
 73
    17
 74
     0
 42
0.00000001
 43
0.00000001
 40
0.0
 40
0.0
 40
0.0
 40
0.0
 40
0.0285114454429652
 40
0.0573720446189946
 40
0.0867448098739203
 40
0.1167699594822051
 40
0.1475656441583339
 40
0.1792296074486797
 40
0.2118414204290957
 40
0.2454649877362197
 40
0.3628811526928976
 40
0.4962244256515524
 40
0.6126210361374097
 40
0.7473965357033797
 40
0.8414239770699944
 40
1.0
 40
1.0
 40
1.0
 40
1.0
 10
248.8148528536791
 20
49.97254881679035
 30
0.0
 10
248.8189059440685
 20
50.00544623472754
 30
0.0
 10
248.8270617593579
 20
50.07164393534985
 30
0.0
 10
248.8461566117808
 20
50.16956177278416
 30
0.0
 10
248.8702634801781
 20
50.26658420013939
 30
0.0
 10
248.8998379825501
 20
50.36240248714208
 30
0.0
 10
248.9346714487951
 20
50.45685518515621
 30
0.0
 10
248.9747187935413
 20
50.54977129647084
 30
0.0
 10
249.0198716320544
 20
50.64102255710284
 30
0.0
 10
249.1111173727033
 20
50.80378010749579
 30
0.0
 10
249.2723431363595
 20
51.02802112394556
 30
0.0
 10
249.5070871734453
 20
51.27020372497065
 30
0.0
 10
249.769483753146
 20
51.4866401362081
 30
0.0
 10
250.0173959586874
 20
51.65366376569028
 30
0.0
 10
250.300196632771
 20
51.81929230510657
 30
0.0
 10
250.4902010216462
 20
51.90689362384301
 30
0.0
 10
250.6094794345966
 20
51.96188680759578
 30
0.0
  0
SPLINE
  5
11D
330
1F
100
AcDbEntity
  8
0
  6
Continuous
 62
     7
370
    25
100
AcDbSpline
210
0.0
220
0.0
230
1.0
 70
     8
 71
     3
 72
    21
 73
    17
 74
     0
 42
0.00000001
 43
0.00000001
 40
0.0
 40
0.0
 40
0.0
 40
0.0
 40
0.0873539384671025
 40
0.1586109261440403
 40
0.2137581225376216
 40
0.2527012351936747
 40
0.3874634773641497
 40
0.5039419657861403
 40
0.5794672736811031
 40
0.6507588136933635
 40
0.7178975174616206
 40
0.7810118170282845
 40
0.8403190374764202
 40
0.8961759017050145
 40
0.9491354213983981
 40
1.0
 40
1.0
 40
1.0
 40
1.0
 10
250.6094794345966
 20
62.03811319240421
 30
0.0
 10
250.5438298621958
 20
62.06758652702639
 30
0.0
 10
250.4246281448814
 20
62.12110206373844
 30
0.0
 10
250.265471346001
 20
62.20373090932361
 30
0.0
 10
250.1441809558646
 20
62.27232466392221
 30
0.0
 10
249.9779158628602
 20
62.37272056284956
 30
0.0
 10
249.7694855282114
 20
62.51342897840506
 30
0.0
 10
249.5466325052974
 20
62.69716639984301
 30
0.0
 10
249.3755789327602
 20
62.86500528990702
 30
0.0
 10
249.2437003695486
 20
63.01610384279847
 30
0.0
 10
249.1282017113784
 20
63.17329444330412
 30
0.0
 10
249.0297621648219
 20
63.33602089425546
 30
0.0
 10
248.9486754957004
 20
63.50352324987495
 30
0.0
 10
248.8856812550699
 20
63.67506514287872
 30
0.0
 10
248.8391191654545
 20
63.84932755180428
 30
0.0
 10
248.8228320784513
 20
63.96888074591462
 30
0.0
 10
248.8148528536791
 20
64.02745118320964
 30
0.0
  0
LINE
  5
11E
330
1F
100
AcDbEntity
  8
0
  6
Continuous
 62
     7
370
    25
100
AcDbLine
 10
248.8046078198
 20
64.219486459
 30
0.0
 11
248.8046078198
 21
49.780513541
 31
0.0
  0
LINE
  5
11F
330
1F
100
AcDbEntity
  8
0
  6
Continuous
 62
     7
370
    25
100
AcDbLine
 10
247.9663061506
 20
41.6585912746
 30
0.0
 11
250.6094794346
 21
41.6585912746
 31
0.0
  0
LINE
  5
120
330
1F
100
AcDbEntity
  8
0
  6
Continuous
 62
     7
370
    25
100
AcDbLine
 10
250.6094794346
 20
72.3414087254
 30
0.0
 11
247.9663061506
 21
72.3414087254
 31
0.0
  0
LINE
  5
121
330
1F
100
AcDbEntity
  8
0
  6
Continuous
 62
     7
370
    25
100
AcDbLine
 10
233.4631990944
 20
66.9267938812
 30
0.0
 11
233.4631990944
 21
70.5365371107
 31
0.0
  0
LINE
  5
122
330
1F
100
AcDbEntity
  8
0
  6
Continuous
 62
     7
370
    25
100
AcDbLine
 10
233.4631990944
 20
43.4634628893
 30
0.0
 11
233.4631990944
 21
47.0732061188
 31
0.0
  0
ELLIPSE
  5
123
330
1F
100
AcDbEntity
  8
0
  6
Continuous
 62
     7
370
    25
100
AcDbEllipse
 10
234.2108013956
 20
43.4634628893
 30
0.0
 11
0.0
 21
1.804871614758056
 31
0.0
210
0.0
220
0.0
230
1.0
 40
0.4142135624
 41
1.570796326794897
 42
3.141592653589793
  0
LINE
  5
124
330
1F
100
AcDbEntity
  8
0
  6
Continuous
 62
     7
370
    25
100
AcDbLine
 10
234.2108013956
 20
41.6585912746
 30
0.0
 11
247.9663061506
 21
41.6585912746
 31
0.0
  0
ELLIPSE
  5
125
330
1F
100
AcDbEntity
  8
0
  6
Continuous
 62
     7
370
    25
100
AcDbEllipse
 10
234.2108013956
 20
70.5365371107
 30
0.0
 11
0.0
 21
1.804871614758056
 31
0.0
210
0.0
220
0.0
230
1.0
 40
0.4142135624
 41
0.0
 42
1.570796326794897
  0
LINE
  5
126
330
1F
100
AcDbEntity
  8
0
  6
Continuous
 62
     7
370
    25
100
AcDbLine
 10
247.9663061506
 20
72.3414087254
 30
0.0
 11
234.2108013956
 21
72.3414087254
 31
0.0
  0
ELLIPSE
  5
127
330
1F
100
AcDbEntity
  8
0
  6
Continuous
 62
     7
370
    25
100
AcDbEllipse
 10
234.2108013956
 20
47.0732061188
 30
0.0
 11
0.0
 21
1.804871614758056
 31
0.0
210
0.0
220
0.0
230
1.0
 40
0.4142135624
 41
0.0
 42
1.570796326794897
  0
LINE
  5
128
330
1F
100
AcDbEntity
  8
0
  6
Continuous
 62
     7
370
    25
100
AcDbLine
 10
244.9758969459
 20
48.8780777336
 30
0.0
 11
234.2108013956
 21
48.8780777336
 31
0.0
  0
ELLIPSE
  5
129
330
1F
100
AcDbEntity
  8
0
  6
Continuous
 62
     7
370
    25
100
AcDbEllipse
 10
234.2108013956
 20
66.9267938812
 30
0.0
 11
0.0
 21
1.804871614758056
 31
0.0
210
0.0
220
0.0
230
1.0
 40
0.4142135624
 41
1.570796326794897
 42
3.141592653589793
  0
LINE
  5
12A
330
1F
100
AcDbEntity
  8
0
  6
Continuous
 62
     7
370
    25
100
AcDbLine
 10
234.2108013956
 20
65.1219222664
 30
0.0
 11
244.9758969459
 21
65.1219222664
 31
0.0
  0
LINE
  5
12B
330
1F
100
AcDbEntity
  8
0
  6
Continuous
 62
     7
370
    25
100
AcDbLine
 10
201.2586118113
 20
41.6585912746
 30
0.0
 11
234.2108013956
 21
41.6585912746
 31
0.0
  0
LINE
  5
12C
330
1F
100
AcDbEntity
  8
0
  6
Continuous
 62
     7
370
    25
100
AcDbLine
 10
191.2035496538
 20
37.1464122377
 30
0.0
 11
174.8048716148
 21
37.1464122377
 31
0.0
  0
ARC
  5
12D
330
1F
100
AcDbEntity
  8
0
  6
Continuous
 62
     7
370
    25
100
AcDbCircle
 10
174.8048716148
 20
38.9512838524
 30
0.0
 40
1.804871614758049
100
AcDbArc
 50
180.0
 51
270.0
  0
LINE
  5
12E
330
1F
100
AcDbEntity
  8
0
  6
Continuous
 62
     7
370
    25
100
AcDbLine
 10
173.0
 20
38.9512838524
 30
0.0
 11
173.0
 21
75.0487161476
 31
0.0
  0
ARC
  5
12F
330
1F
100
AcDbEntity
  8
0
  6
Continuous
 62
     7
370
    25
100
AcDbCircle
 10
174.8048716148
 20
75.0487161476
 30
0.0
 40
1.804871614758056
100
AcDbArc
 50
90.0
 51
180.0
  0
LINE
  5
130
330
1F
100
AcDbEntity
  8
0
  6
Continuous
 62
     7
370
    25
100
AcDbLine
 10
174.8048716148
 20
76.8535877623
 30
0.0
 11
191.2035496538
 21
76.8535877623
 31
0.0
  0
CIRCLE
  5
131
330
1F
100
AcDbEntity
  8
0
  6
Continuous
 62
     7
370
    25
100
AcDbCircle
 10
189.2438445328
 20
67.8292296885
 30
0.0
 40
2.707307422137092
  0
CIRCLE
  5
132
330
1F
100
AcDbEntity
  8
0
  6
Continuous
 62
     7
370
    25
100
AcDbCircle
 10
189.2438445328
 20
46.1707703115
 30
0.0
 40
2.707307422137092
  0
LINE
  5
133
330
1F
100
AcDbEntity
  8
0
  6
Continuous
 62
     7
370
    25
100
AcDbLine
 10
209.0974322952
 20
65.1219222664
 30
0.0
 11
234.2108013956
 21
65.1219222664
 31
0.0
  0
LINE
  5
134
330
1F
100
AcDbEntity
  8
0
  6
Continuous
 62
     7
370
    25
100
AcDbLine
 10
234.2108013956
 20
48.8780777336
 30
0.0
 11
209.0974322952
 21
48.8780777336
 31
0.0
  0
LINE
  5
135
330
1F
100
AcDbEntity
  8
0
  6
Continuous
 62
     7
370
    25
100
AcDbLine
 10
234.2108013956
 20
72.3414087254
 30
0.0
 11
201.2586118113
 21
72.3414087254
 31
0.0
  0
ARC
  5
136
330
1F
100
AcDbEntity
  8
0
  6
Continuous
 62
     7
370
    25
100
AcDbCircle
 10
209.0974322952
 20
56.0975641926
 30
0.0
 40
7.219486459032254
100
AcDbArc
 50
180.0
 51
270.0
  0
ARC
  5
137
330
1F
100
AcDbEntity
  8
0
  6
Continuous
 62
     7
370
    25
100
AcDbCircle
 10
209.0974322952
 20
57.9024358074
 30
0.0
 40
7.219486459032254
100
AcDbArc
 50
90.0
 51
180.0
  0
LINE
  5
138
330
1F
100
AcDbEntity
  8
0
  6
Continuous
 62
     7
370
    25
100
AcDbLine
 10
201.8779458361
 20
56.0975641926
 30
0.0
 11
201.8779458361
 21
57.9024358074
 31
0.0
  0
ARC
  5
139
330
1F
100
AcDbEntity
  8
0
  6
Continuous
 62
     7
370
    25
100
AcDbCircle
 10
201.2586118113
 20
79.5608951845
 30
0.0
 40
7.219486459032264
100
AcDbArc
 50
225.0
 51
270.0
  0
ARC
  5
13A
330
1F
100
AcDbEntity
  8
0
  6
Continuous
 62
     7
370
    25
100
AcDbCircle
 10
201.2586118113
 20
34.4391048155
 30
0.0
 40
7.219486459032264
100
AcDbArc
 50
90.0
 51
135.0
  0
LINE
  5
13B
330
1F
100
AcDbEntity
  8
0
  6
Continuous
 62
     7
370
    25
100
AcDbLine
 10
196.1536639794
 20
74.4559473526
 30
0.0
 11
193.7560235697
 21
76.8535877623
 31
0.0
  0
LINE
  5
13C
330
1F
100
AcDbEntity
  8
0
  6
Continuous
 62
     7
370
    25
100
AcDbLine
 10
193.7560235697
 20
76.8535877623
 30
0.0
 11
191.2035496538
 21
76.8535877623
 31
0.0
  0
LINE
  5
13D
330
1F
100
AcDbEntity
  8
0
  6
Continuous
 62
     7
370
    25
100
AcDbLine
 10
193.7560235697
 20
37.1464122377
 30
0.0
 11
196.1536639794
 21
39.5440526474
 31
0.0
  0
LINE
  5
13E
330
1F
100
AcDbEntity
  8
0
  6
Continuous
 62
     7
370
    25
100
AcDbLine
 10
191.2035496538
 20
37.1464122377
 30
0.0
 11
193.7560235697
 21
37.1464122377
 31
0.0
  0
LINE
  5
13F
330
1F
100
AcDbEntity
  8
0
  6
HIDDEN
 62
     7
370
    18
100
AcDbLine
 10
267.7557597748
 20
70.5365371107
 30
0.0
 11
253.3167868567
 21
70.5365371107
 31
0.0
  0
LINE
  5
140
330
1F
100
AcDbEntity
  8
0
  6
HIDDEN
 62
     7
370
    18
100
AcDbLine
 10
248.8046078198
 20
48.8780777336
 30
0.0
 11
244.9758969459
 21
48.8780777336
 31
0.0
  0
LINE
  5
141
330
1F
100
AcDbEntity
  8
0
  6
HIDDEN
 62
     7
370
    18
100
AcDbLine
 10
244.9758969459
 20
65.1219222664
 30
0.0
 11
248.8046078198
 21
65.1219222664
 31
0.0
  0
CIRCLE
  5
142
330
1F
100
AcDbEntity
  8
0
  6
HIDDEN
 62
     7
370
    18
100
AcDbCircle
 10
189.2438445328
 20
67.8292296885
 30
0.0
 40
4.963396940584673
  0
CIRCLE
  5
143
330
1F
100
AcDbEntity
  8
0
  6
HIDDEN
 62
     7
370
    18
100
AcDbCircle
 10
189.2438445328
 20
46.1707703115
 30
0.0
 40
4.963396940584673
  0
LINE
  5
144
330
1F
100
AcDbEntity
  8
0
  6
HIDDEN
 62
     7
370
    18
100
AcDbLine
 10
193.0084212685
 20
75.0487161476
 30
0.0
 11
193.7560235697
 21
76.8535877623
 31
0.0
  0
LINE
  5
145
330
1F
100
AcDbEntity
  8
0
  6
HIDDEN
 62
     7
370
    18
100
AcDbLine
 10
193.0084212685
 20
38.9512838524
 30
0.0
 11
193.7560235697
 21
37.1464122377
 31
0.0
  0
LINE
  5
146
330
1F
100
AcDbEntity
  8
0
  6
HIDDEN
 62
     7
370
    18
100
AcDbLine
 10
267.7557597748
 20
70.5365371107
 30
0.0
 11
267.7557597748
 21
72.3414087254
 31
0.0
  0
LINE
  5
147
330
1F
100
AcDbEntity
  8
0
  6
HIDDEN
 62
     7
370
    18
100
AcDbLine
 10
253.3167868567
 20
72.3414087254
 30
0.0
 11
253.3167868567
 21
70.5365371107
 31
0.0
  0
LINE
  5
148
330
1F
100
AcDbEntity
  8
0
  6
HIDDEN
 62
     7
370
    18
100
AcDbLine
 10
256.9265300862
 20
70.5365371107
 30
0.0
 11
256.9265300862
 21
65.1219222664
 31
0.0
  0
LINE
  5
149
330
1F
100
AcDbEntity
  8
0
  6
HIDDEN
 62
     7
370
    18
100
AcDbLine
 10
264.1460165453
 20
65.1219222664
 30
0.0
 11
264.1460165453
 21
70.5365371107
 31
0.0
  0
LINE
  5
14A
330
1F
100
AcDbEntity
  8
0
  6
HIDDEN
 62
     7
370
    18
100
AcDbLine
 10
257.3777479899
 20
48.8780777336
 30
0.0
 11
257.3777479899
 21
41.6585912746
 31
0.0
  0
LINE
  5
14B
330
1F
100
AcDbEntity
  8
0
  6
HIDDEN
 62
     7
370
    18
100
AcDbLine
 10
263.6947986416
 20
41.6585912746
 30
0.0
 11
263.6947986416
 21
48.8780777336
 31
0.0
  0
INSERT
  5
157
330
1F
100
AcDbEntity
  8
10
100
AcDbBlockReference
  2
SW_CENTERMARKSYMBOL_1
 10
189.2438445328
 20
46.1707703115
 30
0.0
  0
INSERT
  5
163
330
1F
100
AcDbEntity
  8
10
100
AcDbBlockReference
  2
SW_CENTERMARKSYMBOL_2
 10
189.2438445328
 20
67.8292296885
 30
0.0
  0
ENDSEC
  0
SECTION
  2
OBJECTS
  0
DICTIONARY
  5
C
330
0
100
AcDbDictionary
281
     1
  3
ACAD_GROUP
350
D
  3
ACAD_LAYOUT
350
1A
  3
ACAD_MLINESTYLE
350
17
  3
ACAD_PLOTSETTINGS
350
19
  3
ACAD_PLOTSTYLENAME
350
E
  3
ACAD_SCALELIST
350
47
  3
DWGPROPS
350
164
  0
DICTIONARY
  5
D
102
{ACAD_REACTORS
330
C
102
}
330
C
100
AcDbDictionary
281
     1
  0
DICTIONARY
  5
1A
102
{ACAD_REACTORS
330
C
102
}
330
C
100
AcDbDictionary
281
     1
  3
Layout1
350
1E
  3
Layout2
350
26
  3
Model
350
22
  0
DICTIONARY
  5
17
102
{ACAD_REACTORS
330
C
102
}
330
C
100
AcDbDictionary
281
     1
  3
Standard
350
18
  0
DICTIONARY
  5
19
102
{ACAD_REACTORS
330
C
102
}
330
C
100
AcDbDictionary
281
     1
  0
ACDBDICTIONARYWDFLT
  5
E
102
{ACAD_REACTORS
330
C
102
}
330
C
100
AcDbDictionary
281
     1
  3
Normal
350
F
100
AcDbDictionaryWithDefault
340
F
  0
DICTIONARY
  5
47
102
{ACAD_REACTORS
330
C
102
}
330
C
100
AcDbDictionary
281
     1
  3
A0
350
48
  3
A1
350
49
  3
A2
350
4A
  3
A3
350
4B
  3
A4
350
4C
  3
A5
350
4D
  3
A6
350
4E
  3
A7
350
4F
  3
A8
350
50
  3
A9
350
51
  3
B0
350
52
  3
B1
350
53
  3
B2
350
54
  3
B3
350
55
  3
B4
350
56
  3
B5
350
57
  3
B6
350
58
  0
XRECORD
  5
164
102
{ACAD_REACTORS
330
C
102
}
330
C
100
AcDbXrecord
280
     1
  1
DWGPROPS COOKIE
  2

  3

  4

  6

  7

  8

  9

300
=
301
=
302
=
303
=
304
=
305
=
306
=
307
=
308
=
309
=
 40
0.0
 41
2461215.276979977
 42
2461215.276980359
  1

 90
        0
  0
LAYOUT
  5
1E
102
{ACAD_REACTORS
330
1A
102
}
330
1A
100
AcDbPlotSettings
  1

  2
none_device
  4

  6

 40
0.0
 41
0.0
 42
0.0
 43
0.0
 44
0.0
 45
0.0
 46
0.0
 47
0.0
 48
0.0
 49
0.0
140
0.0
141
0.0
142
1.0
143
1.0
 70
   688
 72
     1
 73
     0
 74
     5
  7

 75
    16
147
1.0
148
0.0
149
0.0
100
AcDbLayout
  1
Layout1
 70
     1
 71
     1
 10
0.0
 20
0.0
 11
420.0
 21
297.0
 12
0.0
 22
0.0
 32
0.0
 14
1.0000000000E+20
 24
1.0000000000E+20
 34
1.0000000000E+20
 15
-1.0000000000E+20
 25
-1.0000000000E+20
 35
-1.0000000000E+20
146
0.0
 13
0.0
 23
0.0
 33
0.0
 16
1.0
 26
0.0
 36
0.0
 17
0.0
 27
1.0
 37
0.0
 76
     0
330
1B
  0
LAYOUT
  5
26
102
{ACAD_REACTORS
330
1A
102
}
330
1A
100
AcDbPlotSettings
  1

  2
none_device
  4

  6

 40
0.0
 41
0.0
 42
0.0
 43
0.0
 44
0.0
 45
0.0
 46
0.0
 47
0.0
 48
0.0
 49
0.0
140
0.0
141
0.0
142
1.0
143
1.0
 70
   688
 72
     1
 73
     0
 74
     5
  7

 75
    16
147
1.0
148
0.0
149
0.0
100
AcDbLayout
  1
Layout2
 70
     1
 71
     2
 10
0.0
 20
0.0
 11
0.0
 21
0.0
 12
0.0
 22
0.0
 32
0.0
 14
0.0
 24
0.0
 34
0.0
 15
0.0
 25
0.0
 35
0.0
146
0.0
 13
0.0
 23
0.0
 33
0.0
 16
1.0
 26
0.0
 36
0.0
 17
0.0
 27
1.0
 37
0.0
 76
     0
330
23
  0
LAYOUT
  5
22
102
{ACAD_REACTORS
330
1A
102
}
330
1A
100
AcDbPlotSettings
  1

  2
none_device
  4
Letter_(8.50_x_11.00_Inches)
  6

 40
6.35
 41
6.35
 42
6.35000508
 43
6.35000508
 44
215.9
 45
279.4
 46
0.0
 47
0.0
 48
0.0
 49
0.0
140
0.0
141
0.0
142
1.0
143
1.0
 70
  1712
 72
     1
 73
     0
 74
     0
  7

 75
     0
147
1.0
148
0.0
149
0.0
100
AcDbLayout
  1
Model
 70
     1
 71
     0
 10
0.0
 20
0.0
 11
297.0
 21
210.0
 12
0.0
 22
0.0
 32
0.0
 14
0.0
 24
0.0
 34
0.0
 15
297.0
 25
210.0
 35
0.0
146
0.0
 13
0.0
 23
0.0
 33
0.0
 16
1.0
 26
0.0
 36
0.0
 17
0.0
 27
1.0
 37
0.0
 76
     0
330
1F
331
29
  0
MLINESTYLE
  5
18
102
{ACAD_REACTORS
330
17
102
}
330
17
100
AcDbMlineStyle
  2
Standard
 70
     0
  3

 62
   256
 51
90.0
 52
90.0
 71
     2
 49
0.5
 62
   256
  6
BYLAYER
 49
-0.5
 62
   256
  6
BYLAYER
  0
ACDBPLACEHOLDER
  5
F
102
{ACAD_REACTORS
330
E
102
}
330
E
  0
SCALE
  5
48
102
{ACAD_REACTORS
330
47
102
}
330
47
100
AcDbScale
 70
     0
300
1:1
140
1.0
141
1.0
290
     1
  0
SCALE
  5
49
102
{ACAD_REACTORS
330
47
102
}
330
47
100
AcDbScale
 70
     0
300
1:2
140
1.0
141
2.0
290
     0
  0
SCALE
  5
4A
102
{ACAD_REACTORS
330
47
102
}
330
47
100
AcDbScale
 70
     0
300
1:4
140
1.0
141
4.0
290
     0
  0
SCALE
  5
4B
102
{ACAD_REACTORS
330
47
102
}
330
47
100
AcDbScale
 70
     0
300
1:5
140
1.0
141
5.0
290
     0
  0
SCALE
  5
4C
102
{ACAD_REACTORS
330
47
102
}
330
47
100
AcDbScale
 70
     0
300
1:8
140
1.0
141
8.0
290
     0
  0
SCALE
  5
4D
102
{ACAD_REACTORS
330
47
102
}
330
47
100
AcDbScale
 70
     0
300
1:10
140
1.0
141
10.0
290
     0
  0
SCALE
  5
4E
102
{ACAD_REACTORS
330
47
102
}
330
47
100
AcDbScale
 70
     0
300
1:16
140
1.0
141
16.0
290
     0
  0
SCALE
  5
4F
102
{ACAD_REACTORS
330
47
102
}
330
47
100
AcDbScale
 70
     0
300
1:20
140
1.0
141
20.0
290
     0
  0
SCALE
  5
50
102
{ACAD_REACTORS
330
47
102
}
330
47
100
AcDbScale
 70
     0
300
1:30
140
1.0
141
30.0
290
     0
  0
SCALE
  5
51
102
{ACAD_REACTORS
330
47
102
}
330
47
100
AcDbScale
 70
     0
300
1:40
140
1.0
141
40.0
290
     0
  0
SCALE
  5
52
102
{ACAD_REACTORS
330
47
102
}
330
47
100
AcDbScale
 70
     0
300
1:50
140
1.0
141
50.0
290
     0
  0
SCALE
  5
53
102
{ACAD_REACTORS
330
47
102
}
330
47
100
AcDbScale
 70
     0
300
1:100
140
1.0
141
100.0
290
     0
  0
SCALE
  5
54
102
{ACAD_REACTORS
330
47
102
}
330
47
100
AcDbScale
 70
     0
300
2:1
140
2.0
141
1.0
290
     0
  0
SCALE
  5
55
102
{ACAD_REACTORS
330
47
102
}
330
47
100
AcDbScale
 70
     0
300
4:1
140
4.0
141
1.0
290
     0
  0
SCALE
  5
56
102
{ACAD_REACTORS
330
47
102
}
330
47
100
AcDbScale
 70
     0
300
8:1
140
8.0
141
1.0
290
     0
  0
SCALE
  5
57
102
{ACAD_REACTORS
330
47
102
}
330
47
100
AcDbScale
 70
     0
300
10:1
140
10.0
141
1.0
290
     0
  0
SCALE
  5
58
102
{ACAD_REACTORS
330
47
102
}
330
47
100
AcDbScale
 70
     0
300
100:1
140
100.0
141
1.0
290
     0
  0
ENDSEC
  0
EOF
