  0
SECTION
  2
HEADER
  9
$ACADVER
  1
AC1015
  9
$ACADMAINTVER
 70
     6
  9
$DWGCODEPAGE
  3
ANSI_936
  9
$INSBASE
 10
0.0
 20
0.0
 30
0.0
  9
$EXTMIN
 10
0.0
 20
0.0
 30
0.0
  9
$EXTMAX
 10
297.0
 20
210.0
 30
0.0
  9
$LIMMIN
 10
0.0
 20
0.0
  9
$LIMMAX
 10
297.0
 20
210.0
  9
$ORTHOMODE
 70
     0
  9
$REGENMODE
 70
     1
  9
$FILLMODE
 70
     1
  9
$QTEXTMODE
 70
     0
  9
$MIRRTEXT
 70
     1
  9
$LTSCALE
 40
1.0
  9
$ATTMODE
 70
     1
  9
$TEXTSIZE
 40
3.5
  9
$TRACEWID
 40
1.0
  9
$TEXTSTYLE
  7
Standard
  9
$CLAYER
  8
0
  9
$CELTYPE
  6
ByLayer
  9
$CECOLOR
 62
   256
  9
$CELTSCALE
 40
1.0
  9
$DISPSILH
 70
     0
  9
$DIMSCALE
 40
1.0
  9
$DIMASZ
 40
4.08
  9
$DIMEXO
 40
0.0
  9
$DIMDLI
 40
3.75
  9
$DIMRND
 40
0.0
  9
$DIMDLE
 40
0.0
  9
$DIMEXE
 40
2.0
  9
$DIMTP
 40
0.0
  9
$DIMTM
 40
0.0
  9
$DIMTXT
 40
3.5
  9
$DIMCEN
 40
2.5
  9
$DIMTSZ
 40
0.0
  9
$DIMTOL
 70
     0
  9
$DIMLIM
 70
     0
  9
$DIMTIH
 70
     1
  9
$DIMTOH
 70
     1
  9
$DIMSE1
 70
     0
  9
$DIMSE2
 70
     0
  9
$DIMTAD
 70
     1
  9
$DIMZIN
 70
     0
  9
$DIMBLK
  1

  9
$DIMASO
 70
     1
  9
$DIMSHO
 70
     1
  9
$DIMPOST
  1

  9
$DIMAPOST
  1

  9
$DIMALT
 70
     0
  9
$DIMALTD
 70
     3
  9
$DIMALTF
 40
0.0393700787
  9
$DIMLFAC
 40
2.0
  9
$DIMTOFL
 70
     1
  9
$DIMTVP
 40
0.0
  9
$DIMTIX
 70
     0
  9
$DIMSOXD
 70
     0
  9
$DIMSAH
 70
     0
  9
$DIMBLK1
  1

  9
$DIMBLK2
  1

  9
$DIMSTYLE
  2
ISO-25
  9
$DIMCLRD
 70
     0
  9
$DIMCLRE
 70
     0
  9
$DIMCLRT
 70
     0
  9
$DIMTFAC
 40
1.0
  9
$DIMGAP
 40
1.524
  9
$DIMJUST
 70
     0
  9
$DIMSD1
 70
     0
  9
$DIMSD2
 70
     0
  9
$DIMTOLJ
 70
     0
  9
$DIMTZIN
 70
     0
  9
$DIMALTZ
 70
     0
  9
$DIMALTTZ
 70
     0
  9
$DIMUPT
 70
     0
  9
$DIMDEC
 70
     2
  9
$DIMTDEC
 70
     2
  9
$DIMALTU
 70
     2
  9
$DIMALTTD
 70
     3
  9
$DIMTXSTY
  7
Standard
  9
$DIMAUNIT
 70
     0
  9
$DIMADEC
 70
     2
  9
$DIMALTRND
 40
0.0
  9
$DIMAZIN
 70
     0
  9
$DIMDSEP
 70
    44
  9
$DIMATFIT
 70
     3
  9
$DIMFRAC
 70
     0
  9
$DIMLDRBLK
  1

  9
$DIMLUNIT
 70
     2
  9
$DIMLWD
 70
    -2
  9
$DIMLWE
 70
    -2
  9
$DIMTMOVE
 70
     0
  9
$LUNITS
 70
     2
  9
$LUPREC
 70
     2
  9
$SKETCHINC
 40
1.0
  9
$FILLETRAD
 40
0.0
  9
$AUNITS
 70
     0
  9
$AUPREC
 70
     2
  9
$MENU
  1
.
  9
$ELEVATION
 40
0.0
  9
$PELEVATION
 40
0.0
  9
$THICKNESS
 40
0.0
  9
$LIMCHECK
 70
     0
  9
$CHAMFERA
 40
0.0
  9
$CHAMFERB
 40
0.0
  9
$CHAMFERC
 40
0.0
  9
$CHAMFERD
 40
0.0
  9
$SKPOLY
 70
     0
  9
$TDCREATE
 40
2461215.60921801
  9
$TDUCREATE
 40
2461215.275884676
  9
$TDUPDATE
 40
2461215.60921838
  9
$TDUUPDATE
 40
2461215.275885047
  9
$TDINDWG
 40
0.0000000116
  9
$TDUSRTIMER
 40
0.0000000116
  9
$USRTIMER
 70
     1
  9
$ANGBASE
 50
0.0
  9
$ANGDIR
 70
     0
  9
$PDMODE
 70
     0
  9
$PDSIZE
 40
-1.0
  9
$PLINEWID
 40
0.0
  9
$SPLFRAME
 70
     0
  9
$SPLINETYPE
 70
     6
  9
$SPLINESEGS
 70
     8
  9
$HANDSEED
  5
24A
  9
$SURFTAB1
 70
     6
  9
$SURFTAB2
 70
     6
  9
$SURFTYPE
 70
     6
  9
$SURFU
 70
     6
  9
$SURFV
 70
     6
  9
$UCSBASE
  2

  9
$UCSNAME
  2

  9
$UCSORG
 10
0.0
 20
0.0
 30
0.0
  9
$UCSXDIR
 10
1.0
 20
0.0
 30
0.0
  9
$UCSYDIR
 10
0.0
 20
1.0
 30
0.0
  9
$UCSORTHOREF
  2

  9
$UCSORTHOVIEW
 70
     0
  9
$UCSORGTOP
 10
0.0
 20
0.0
 30
0.0
  9
$UCSORGBOTTOM
 10
0.0
 20
0.0
 30
0.0
  9
$UCSORGLEFT
 10
0.0
 20
0.0
 30
0.0
  9
$UCSORGRIGHT
 10
0.0
 20
0.0
 30
0.0
  9
$UCSORGFRONT
 10
0.0
 20
0.0
 30
0.0
  9
$UCSORGBACK
 10
0.0
 20
0.0
 30
0.0
  9
$PUCSBASE
  2

  9
$PUCSNAME
  2

  9
$PUCSORG
 10
0.0
 20
0.0
 30
0.0
  9
$PUCSXDIR
 10
1.0
 20
0.0
 30
0.0
  9
$PUCSYDIR
 10
0.0
 20
1.0
 30
0.0
  9
$PUCSORTHOREF
  2

  9
$PUCSORTHOVIEW
 70
     0
  9
$PUCSORGTOP
 10
0.0
 20
0.0
 30
0.0
  9
$PUCSORGBOTTOM
 10
0.0
 20
0.0
 30
0.0
  9
$PUCSORGLEFT
 10
0.0
 20
0.0
 30
0.0
  9
$PUCSORGRIGHT
 10
0.0
 20
0.0
 30
0.0
  9
$PUCSORGFRONT
 10
0.0
 20
0.0
 30
0.0
  9
$PUCSORGBACK
 10
0.0
 20
0.0
 30
0.0
  9
$USERI1
 70
     0
  9
$USERI2
 70
     0
  9
$USERI3
 70
     0
  9
$USERI4
 70
     0
  9
$USERI5
 70
     0
  9
$USERR1
 40
0.0
  9
$USERR2
 40
0.0
  9
$USERR3
 40
0.0
  9
$USERR4
 40
0.0
  9
$USERR5
 40
0.0
  9
$WORLDVIEW
 70
     1
  9
$SHADEDGE
 70
     3
  9
$SHADEDIF
 70
    70
  9
$TILEMODE
 70
     1
  9
$MAXACTVP
 70
    64
  9
$PINSBASE
 10
0.0
 20
0.0
 30
0.0
  9
$PLIMCHECK
 70
     0
  9
$PEXTMIN
 10
1.0000000000E+20
 20
1.0000000000E+20
 30
1.0000000000E+20
  9
$PEXTMAX
 10
-1.0000000000E+20
 20
-1.0000000000E+20
 30
-1.0000000000E+20
  9
$PLIMMIN
 10
0.0
 20
0.0
  9
$PLIMMAX
 10
420.0
 20
297.0
  9
$UNITMODE
 70
     0
  9
$VISRETAIN
 70
     1
  9
$PLINEGEN
 70
     0
  9
$PSLTSCALE
 70
     1
  9
$TREEDEPTH
 70
  3020
  9
$CMLSTYLE
  2
Standard
  9
$CMLJUST
 70
     0
  9
$CMLSCALE
 40
20.0
  9
$PROXYGRAPHICS
 70
     1
  9
$MEASUREMENT
 70
     1
  9
$CELWEIGHT
370
    -1
  9
$ENDCAPS
280
     0
  9
$JOINSTYLE
280
     0
  9
$LWDISPLAY
290
     1
  9
$INSUNITS
 70
     4
  9
$HYPERLINKBASE
  1

  9
$STYLESHEET
  1

  9
$XEDIT
290
     1
  9
$CEPSNTYPE
380
     0
  9
$PSTYLEMODE
290
     1
  9
$FINGERPRINTGUID
  2
{285970b1-0242-46af-a886-bbb5a271f673}
  9
$VERSIONGUID
  2
{FAEB1C32-E019-11D5-929B-00C0DF256EC4}
  9
$EXTNAMES
290
     1
  9
$PSVPSCALE
 40
0.0
  9
$OLESTARTUP
290
     0
  0
ENDSEC
  0
SECTION
  2
CLASSES
  0
CLASS
  1
ACDBDICTIONARYWDFLT
  2
AcDbDictionaryWithDefault
  3
ObjectDBX Classes
 90
        0
280
     0
281
     0
  0
CLASS
  1
VISUALSTYLE
  2
AcDbVisualStyle
  3
ObjectDBX Classes
 90
     4095
280
     0
281
     0
  0
CLASS
  1
MATERIAL
  2
AcDbMaterial
  3
ObjectDBX Classes
 90
     1153
280
     0
281
     0
  0
CLASS
  1
SCALE
  2
AcDbScale
  3
ObjectDBX Classes
 90
     1153
280
     0
281
     0
  0
CLASS
  1
TABLESTYLE
  2
AcDbTableStyle
  3
ObjectDBX Classes
 90
     4095
280
     0
281
     0
  0
CLASS
  1
MLEADERSTYLE
  2
AcDbMLeaderStyle
  3
ACDB_MLEADERSTYLE_CLASS
 90
     4095
280
     0
281
     0
  0
CLASS
  1
SUN
  2
AcDbSun
  3
SCENEOE
 90
     1153
280
     0
281
     0
  0
CLASS
  1
ACDBPLACEHOLDER
  2
AcDbPlaceHolder
  3
ObjectDBX Classes
 90
        0
280
     0
281
     0
  0
CLASS
  1
LAYOUT
  2
AcDbLayout
  3
ObjectDBX Classes
 90
        0
280
     0
281
     0
  0
ENDSEC
  0
SECTION
  2
TABLES
  0
TABLE
  2
VPORT
  5
8
330
0
100
AcDbSymbolTable
 70
     1
  0
VPORT
  5
29
330
8
100
AcDbSymbolTableRecord
100
AcDbViewportTableRecord
  2
*Active
 70
     0
 10
0.0
 20
0.0
 11
1.0
 21
1.0
 12
148.5
 22
105.0
 13
0.0
 23
0.0
 14
10.0
 24
10.0
 15
10.0
 25
10.0
 16
0.0
 26
0.0
 36
1.0
 17
0.0
 27
0.0
 37
0.0
 40
210.0
 41
1.4142857143
 42
50.0
 43
0.0
 44
0.0
 50
0.0
 51
0.0
 71
     0
 72
  2000
 73
     1
 74
     3
 75
     0
 76
     0
 77
     0
 78
     0
281
     0
 65
     1
110
0.0
120
0.0
130
0.0
111
1.0
121
0.0
131
0.0
112
0.0
122
1.0
132
0.0
 79
     0
146
0.0
  0
ENDTAB
  0
TABLE
  2
LTYPE
  5
5
330
0
100
AcDbSymbolTable
 70
     6
  0
LTYPE
  5
14
330
5
100
AcDbSymbolTableRecord
100
AcDbLinetypeTableRecord
  2
ByBlock
 70
     0
  3

 72
    65
 73
     0
 40
0.0
  0
LTYPE
  5
15
330
5
100
AcDbSymbolTableRecord
100
AcDbLinetypeTableRecord
  2
ByLayer
 70
     0
  3

 72
    65
 73
     0
 40
0.0
  0
LTYPE
  5
16
330
5
100
AcDbSymbolTableRecord
100
AcDbLinetypeTableRecord
  2
Continuous
 70
     0
  3
Solid line
 72
    65
 73
     0
 40
0.0
  0
LTYPE
  5
5E
330
5
100
AcDbSymbolTableRecord
100
AcDbLinetypeTableRecord
  2
HIDDEN
 70
     0
  3
Hidden __ __ __ __ __ __ __ __ __ __ __ __ __ __
 72
    65
 73
     2
 40
1.905
 49
1.27
 74
     0
 49
-0.635
 74
     0
  0
LTYPE
  5
5F
330
5
100
AcDbSymbolTableRecord
100
AcDbLinetypeTableRecord
  2
PHANTOM
 70
     0
  3
Phantom ______  __  __  ______  __  __  ______
 72
    65
 73
     6
 40
12.7
 49
6.35
 74
     0
 49
-1.27
 74
     0
 49
1.27
 74
     0
 49
-1.27
 74
     0
 49
1.27
 74
     0
 49
-1.27
 74
     0
  0
LTYPE
  5
60
330
5
100
AcDbSymbolTableRecord
100
AcDbLinetypeTableRecord
  2
CENTER
 70
     0
  3
Center ____ _ ____ _ ____ _ ____ _ ____ _ ____
 72
    65
 73
     4
 40
10.16
 49
6.35
 74
     0
 49
-1.27
 74
     0
 49
1.27
 74
     0
 49
-1.27
 74
     0
  0
LTYPE
  5
61
330
5
100
AcDbSymbolTableRecord
100
AcDbLinetypeTableRecord
  2
CENTERX2
 70
     0
  3
Center (2x) ________  __  ________  __  _____
 72
    65
 73
     4
 40
20.32
 49
12.7
 74
     0
 49
-2.54
 74
     0
 49
2.54
 74
     0
 49
-2.54
 74
     0
  0
LTYPE
  5
62
330
5
100
AcDbSymbolTableRecord
100
AcDbLinetypeTableRecord
  2
DOT2
 70
     0
  3
Dot (.5x) ........................................
 72
    65
 73
     2
 40
0.635
 49
0.0
 74
     0
 49
-0.635
 74
     0
  0
ENDTAB
  0
TABLE
  2
LAYER
  5
2
330
0
100
AcDbSymbolTable
 70
    14
  0
LAYER
  5
10
330
2
100
AcDbSymbolTableRecord
100
AcDbLayerTableRecord
  2
0
 70
     0
 62
     7
  6
Continuous
370
    -3
390
F
  0
LAYER
  5
63
330
2
100
AcDbSymbolTableRecord
100
AcDbLayerTableRecord
  2
SLD-0
 70
     0
 62
     7
  6
Continuous
370
    -3
390
F
  0
LAYER
  5
64
330
2
100
AcDbSymbolTableRecord
100
AcDbLayerTableRecord
  2
5
 70
     0
 62
     7
  6
Continuous
370
    -3
390
F
  0
LAYER
  5
65
330
2
100
AcDbSymbolTableRecord
100
AcDbLayerTableRecord
  2
9
 70
     0
 62
     7
  6
Continuous
370
    -3
390
F
  0
LAYER
  5
66
330
2
100
AcDbSymbolTableRecord
100
AcDbLayerTableRecord
  2
10
 70
     0
 62
     7
  6
Continuous
370
    -3
390
F
  0
LAYER
  5
67
330
2
100
AcDbSymbolTableRecord
100
AcDbLayerTableRecord
  2
轮廓实线层
 70
     0
 62
     7
  6
Continuous
370
    50
390
F
  0
LAYER
  5
68
330
2
100
AcDbSymbolTableRecord
100
AcDbLayerTableRecord
  2
细线层
 70
     0
 62
     4
  6
Continuous
370
    25
390
F
  0
LAYER
  5
69
330
2
100
AcDbSymbolTableRecord
100
AcDbLayerTableRecord
  2
中心线层
 70
     0
 62
     1
  6
CENTERX2
370
    25
390
F
  0
LAYER
  5
6A
330
2
100
AcDbSymbolTableRecord
100
AcDbLayerTableRecord
  2
虚线层
 70
     0
 62
     6
  6
HIDDEN
370
    25
390
F
  0
LAYER
  5
6B
330
2
100
AcDbSymbolTableRecord
100
AcDbLayerTableRecord
  2
剖面线层
 70
     0
 62
     2
  6
Continuous
370
    25
390
F
  0
LAYER
  5
6C
330
2
100
AcDbSymbolTableRecord
100
AcDbLayerTableRecord
  2
文字层
 70
     0
 62
     3
  6
Continuous
370
    25
390
F
  0
LAYER
  5
6D
330
2
100
AcDbSymbolTableRecord
100
AcDbLayerTableRecord
  2
标注层
 70
     0
 62
     4
  6
Continuous
370
    25
390
F
  0
LAYER
  5
6E
330
2
100
AcDbSymbolTableRecord
100
AcDbLayerTableRecord
  2
符号标注层
 70
     0
 62
    31
  6
Continuous
370
    25
390
F
  0
LAYER
  5
6F
330
2
100
AcDbSymbolTableRecord
100
AcDbLayerTableRecord
  2
双点划线层
 70
     0
 62
     6
  6
PHANTOM
370
    25
390
F
  0
ENDTAB
  0
TABLE
  2
STYLE
  5
3
330
0
100
AcDbSymbolTable
 70
     1
  0
STYLE
  5
11
330
3
100
AcDbSymbolTableRecord
100
AcDbTextStyleTableRecord
  2
Standard
 70
     0
 40
0.0
 41
1.0
 50
0.0
 71
     0
 42
3.5
  3
txt
  4

  0
ENDTAB
  0
TABLE
  2
VIEW
  5
6
330
0
100
AcDbSymbolTable
 70
     0
  0
ENDTAB
  0
TABLE
  2
UCS
  5
7
330
0
100
AcDbSymbolTable
 70
     0
  0
ENDTAB
  0
TABLE
  2
APPID
  5
9
330
0
100
AcDbSymbolTable
 70
     1
  0
APPID
  5
12
330
9
100
AcDbSymbolTableRecord
100
AcDbRegAppTableRecord
  2
ACAD
 70
     0
  0
ENDTAB
  0
TABLE
  2
DIMSTYLE
  5
A
330
0
100
AcDbSymbolTable
 70
     1
100
AcDbDimStyleTable
  0
DIMSTYLE
105
27
330
A
100
AcDbSymbolTableRecord
100
AcDbDimStyleTableRecord
  2
ISO-25
 70
     0
 41
2.5
 42
0.625
 43
3.75
 44
1.25
 73
     0
 74
     0
 77
     1
 78
     8
140
2.5
141
2.5
143
0.0393700787
147
0.625
171
     3
172
     1
178
     0
271
     2
272
     2
274
     3
278
    44
283
     0
284
     8
340
11
  0
ENDTAB
  0
TABLE
  2
BLOCK_RECORD
  5
1
330
0
100
AcDbSymbolTable
 70
     5
  0
BLOCK_RECORD
  5
1F
330
1
100
AcDbSymbolTableRecord
100
AcDbBlockTableRecord
  2
*Model_Space
340
22
  0
BLOCK_RECORD
  5
1B
330
1
100
AcDbSymbolTableRecord
100
AcDbBlockTableRecord
  2
*Paper_Space
340
1E
  0
BLOCK_RECORD
  5
23
330
1
100
AcDbSymbolTableRecord
100
AcDbBlockTableRecord
  2
*Paper_Space0
340
26
  0
BLOCK_RECORD
  5
124
330
1
100
AcDbSymbolTableRecord
100
AcDbBlockTableRecord
  2
SW_CENTERMARKSYMBOL_0
340
0
102
{BLKREFS
331
12F
102
}
  0
BLOCK_RECORD
  5
130
330
1
100
AcDbSymbolTableRecord
100
AcDbBlockTableRecord
  2
SW_CENTERMARKSYMBOL_1
340
0
102
{BLKREFS
331
13B
102
}
  0
BLOCK_RECORD
  5
13C
330
1
100
AcDbSymbolTableRecord
100
AcDbBlockTableRecord
  2
SW_CENTERMARKSYMBOL_2
340
0
102
{BLKREFS
331
147
102
}
  0
BLOCK_RECORD
  5
148
330
1
100
AcDbSymbolTableRecord
100
AcDbBlockTableRecord
  2
SW_CENTERMARKSYMBOL_3
340
0
102
{BLKREFS
331
153
102
}
  0
ENDTAB
  0
ENDSEC
  0
SECTION
  2
BLOCKS
  0
BLOCK
  5
20
330
1F
100
AcDbEntity
  8
0
100
AcDbBlockBegin
  2
*Model_Space
 70
     0
 10
0.0
 20
0.0
 30
0.0
  3
*Model_Space
  1

  0
ENDBLK
  5
21
330
1F
100
AcDbEntity
  8
0
100
AcDbBlockEnd
  0
BLOCK
  5
1C
330
1B
100
AcDbEntity
 67
     1
  8
0
100
AcDbBlockBegin
  2
*Paper_Space
 70
     0
 10
0.0
 20
0.0
 30
0.0
  3
*Paper_Space
  1

  0
ENDBLK
  5
1D
330
1B
100
AcDbEntity
 67
     1
  8
0
100
AcDbBlockEnd
  0
BLOCK
  5
24
330
23
100
AcDbEntity
  8
0
100
AcDbBlockBegin
  2
*Paper_Space0
 70
     0
 10
0.0
 20
0.0
 30
0.0
  3
*Paper_Space0
  1

  0
ENDBLK
  5
25
330
23
100
AcDbEntity
  8
0
100
AcDbBlockEnd
  0
BLOCK
  5
125
330
124
100
AcDbEntity
  8
0
100
AcDbBlockBegin
  2
SW_CENTERMARKSYMBOL_0
 70
     0
 10
0.0
 20
0.0
 30
0.0
  3
SW_CENTERMARKSYMBOL_0
  1

  0
LINE
  5
127
330
124
100
AcDbEntity
  8
10
 62
     0
100
AcDbLine
 10
0.0
 20
0.0
 30
0.0
 11
0.0
 21
2.5
 31
0.0
  0
LINE
  5
128
330
124
100
AcDbEntity
  8
10
 62
     0
100
AcDbLine
 10
0.0
 20
0.0
 30
0.0
 11
-2.5
 21
0.0
 31
0.0
  0
LINE
  5
129
330
124
100
AcDbEntity
  8
10
 62
     0
100
AcDbLine
 10
0.0
 20
0.0
 30
0.0
 11
0.0
 21
-2.5
 31
0.0
  0
LINE
  5
12A
330
124
100
AcDbEntity
  8
10
 62
     0
100
AcDbLine
 10
0.0
 20
0.0
 30
0.0
 11
2.5
 21
0.0
 31
0.0
  0
LINE
  5
12B
330
124
100
AcDbEntity
  8
10
 62
     0
100
AcDbLine
 10
0.0
 20
5.0
 30
0.0
 11
0.0
 21
5.5172413793
 31
0.0
  0
LINE
  5
12C
330
124
100
AcDbEntity
  8
10
 62
     0
100
AcDbLine
 10
-5.0
 20
0.0
 30
0.0
 11
-5.5172413793
 21
0.0
 31
0.0
  0
LINE
  5
12D
330
124
100
AcDbEntity
  8
10
 62
     0
100
AcDbLine
 10
0.0
 20
-5.0
 30
0.0
 11
0.0
 21
-5.5172413793
 31
0.0
  0
LINE
  5
12E
330
124
100
AcDbEntity
  8
10
 62
     0
100
AcDbLine
 10
5.0
 20
0.0
 30
0.0
 11
5.5172413793
 21
0.0
 31
0.0
  0
ENDBLK
  5
126
330
124
100
AcDbEntity
  8
0
100
AcDbBlockEnd
  0
BLOCK
  5
131
330
130
100
AcDbEntity
  8
0
100
AcDbBlockBegin
  2
SW_CENTERMARKSYMBOL_1
 70
     0
 10
0.0
 20
0.0
 30
0.0
  3
SW_CENTERMARKSYMBOL_1
  1

  0
LINE
  5
133
330
130
100
AcDbEntity
  8
10
 62
     0
100
AcDbLine
 10
0.0
 20
0.0
 30
0.0
 11
0.0
 21
2.5
 31
0.0
  0
LINE
  5
134
330
130
100
AcDbEntity
  8
10
 62
     0
100
AcDbLine
 10
0.0
 20
0.0
 30
0.0
 11
-2.5
 21
0.0
 31
0.0
  0
LINE
  5
135
330
130
100
AcDbEntity
  8
10
 62
     0
100
AcDbLine
 10
0.0
 20
0.0
 30
0.0
 11
0.0
 21
-2.5
 31
0.0
  0
LINE
  5
136
330
130
100
AcDbEntity
  8
10
 62
     0
100
AcDbLine
 10
0.0
 20
0.0
 30
0.0
 11
2.5
 21
0.0
 31
0.0
  0
LINE
  5
137
330
130
100
AcDbEntity
  8
10
 62
     0
100
AcDbLine
 10
0.0
 20
5.0
 30
0.0
 11
0.0
 21
5.5172413793
 31
0.0
  0
LINE
  5
138
330
130
100
AcDbEntity
  8
10
 62
     0
100
AcDbLine
 10
-5.0
 20
0.0
 30
0.0
 11
-5.5172413793
 21
0.0
 31
0.0
  0
LINE
  5
139
330
130
100
AcDbEntity
  8
10
 62
     0
100
AcDbLine
 10
0.0
 20
-5.0
 30
0.0
 11
0.0
 21
-5.5172413793
 31
0.0
  0
LINE
  5
13A
330
130
100
AcDbEntity
  8
10
 62
     0
100
AcDbLine
 10
5.0
 20
0.0
 30
0.0
 11
5.5172413793
 21
0.0
 31
0.0
  0
ENDBLK
  5
132
330
130
100
AcDbEntity
  8
0
100
AcDbBlockEnd
  0
BLOCK
  5
13D
330
13C
100
AcDbEntity
  8
0
100
AcDbBlockBegin
  2
SW_CENTERMARKSYMBOL_2
 70
     0
 10
0.0
 20
0.0
 30
0.0
  3
SW_CENTERMARKSYMBOL_2
  1

  0
LINE
  5
13F
330
13C
100
AcDbEntity
  8
10
 62
     0
100
AcDbLine
 10
0.0
 20
0.0
 30
0.0
 11
0.0
 21
2.5
 31
0.0
  0
LINE
  5
140
330
13C
100
AcDbEntity
  8
10
 62
     0
100
AcDbLine
 10
0.0
 20
0.0
 30
0.0
 11
-2.5
 21
0.0
 31
0.0
  0
LINE
  5
141
330
13C
100
AcDbEntity
  8
10
 62
     0
100
AcDbLine
 10
0.0
 20
0.0
 30
0.0
 11
0.0
 21
-2.5
 31
0.0
  0
LINE
  5
142
330
13C
100
AcDbEntity
  8
10
 62
     0
100
AcDbLine
 10
0.0
 20
0.0
 30
0.0
 11
2.5
 21
0.0
 31
0.0
  0
LINE
  5
143
330
13C
100
AcDbEntity
  8
10
 62
     0
100
AcDbLine
 10
0.0
 20
5.0
 30
0.0
 11
0.0
 21
7.6724137931
 31
0.0
  0
LINE
  5
144
330
13C
100
AcDbEntity
  8
10
 62
     0
100
AcDbLine
 10
-5.0
 20
0.0
 30
0.0
 11
-7.6724137931
 21
0.0
 31
0.0
  0
LINE
  5
145
330
13C
100
AcDbEntity
  8
10
 62
     0
100
AcDbLine
 10
0.0
 20
-5.0
 30
0.0
 11
0.0
 21
-7.6724137931
 31
0.0
  0
LINE
  5
146
330
13C
100
AcDbEntity
  8
10
 62
     0
100
AcDbLine
 10
5.0
 20
0.0
 30
0.0
 11
7.6724137931
 21
0.0
 31
0.0
  0
ENDBLK
  5
13E
330
13C
100
AcDbEntity
  8
0
100
AcDbBlockEnd
  0
BLOCK
  5
149
330
148
100
AcDbEntity
  8
0
100
AcDbBlockBegin
  2
SW_CENTERMARKSYMBOL_3
 70
     0
 10
0.0
 20
0.0
 30
0.0
  3
SW_CENTERMARKSYMBOL_3
  1

  0
LINE
  5
14B
330
148
100
AcDbEntity
  8
10
 62
     0
100
AcDbLine
 10
0.0
 20
0.0
 30
0.0
 11
0.0
 21
2.5
 31
0.0
  0
LINE
  5
14C
330
148
100
AcDbEntity
  8
10
 62
     0
100
AcDbLine
 10
0.0
 20
0.0
 30
0.0
 11
-2.5
 21
0.0
 31
0.0
  0
LINE
  5
14D
330
148
100
AcDbEntity
  8
10
 62
     0
100
AcDbLine
 10
0.0
 20
0.0
 30
0.0
 11
0.0
 21
-2.5
 31
0.0
  0
LINE
  5
14E
330
148
100
AcDbEntity
  8
10
 62
     0
100
AcDbLine
 10
0.0
 20
0.0
 30
0.0
 11
2.5
 21
0.0
 31
0.0
  0
LINE
  5
14F
330
148
100
AcDbEntity
  8
10
 62
     0
100
AcDbLine
 10
0.0
 20
5.0
 30
0.0
 11
0.0
 21
7.6724137931
 31
0.0
  0
LINE
  5
150
330
148
100
AcDbEntity
  8
10
 62
     0
100
AcDbLine
 10
-5.0
 20
0.0
 30
0.0
 11
-7.6724137931
 21
0.0
 31
0.0
  0
LINE
  5
151
330
148
100
AcDbEntity
  8
10
 62
     0
100
AcDbLine
 10
0.0
 20
-5.0
 30
0.0
 11
0.0
 21
-7.6724137931
 31
0.0
  0
LINE
  5
152
330
148
100
AcDbEntity
  8
10
 62
     0
100
AcDbLine
 10
5.0
 20
0.0
 30
0.0
 11
7.6724137931
 21
0.0
 31
0.0
  0
ENDBLK
  5
14A
330
148
100
AcDbEntity
  8
0
100
AcDbBlockEnd
  0
ENDSEC
  0
SECTION
  2
ENTITIES
  0
ELLIPSE
  5
70
330
1F
100
AcDbEntity
  8
0
  6
Continuous
 62
     7
370
    25
100
AcDbEllipse
 10
62.4228907816
 20
94.8448275862
 30
0.0
 11
6.556036983414295
 21
-4.175580462372281
 31
0.0
210
0.0
220
0.0
230
1.0
 40
0.6275759749
 41
0.7927769993075854
 42
2.363573031985956
  0
ARC
  5
71
330
1F
100
AcDbEntity
  8
0
  6
Continuous
 62
     7
370
    25
100
AcDbCircle
 10
57.6925764424
 20
95.0817614646
 30
0.0
 40
5.634014733296853
100
AcDbArc
 50
357.5897796405
 51
86.7827594922
  0
LINE
  5
72
330
1F
100
AcDbEntity
  8
0
  6
Continuous
 62
     7
370
    25
100
AcDbLine
 10
58.0087682618
 20
100.7068965517
 30
0.0
 11
59.5922400351
 21
100.7068965517
 31
0.0
  0
ELLIPSE
  5
73
330
1F
100
AcDbEntity
  8
0
  6
Continuous
 62
     7
370
    25
100
AcDbEllipse
 10
66.3358491664
 20
19.3275862069
 30
0.0
 11
-6.468077455986197
 21
0.0
 31
0.0
210
0.0
220
-2.462082825198141E-16
230
1.0
 40
0.906307787
 41
2.119998668759529
 42
3.141592653589793
  0
ARC
  5
74
330
1F
100
AcDbEntity
  8
0
  6
Continuous
 62
     7
370
    25
100
AcDbCircle
 10
68.0746423282
 20
18.6336210641
 30
0.0
 40
5.196331846850886
100
AcDbArc
 50
299.4994677192
 51
304.0378299677
  0
ELLIPSE
  5
75
330
1F
100
AcDbEntity
  8
0
  6
Continuous
 62
     7
370
    25
100
AcDbEllipse
 10
115.5867781253
 20
19.3275862069
 30
0.0
 11
54.21784170652861
 21
5.821157063114599
 31
0.0
210
0.0
220
0.0
230
1.0
 40
0.01275158
 41
3.259806208855493
 42
3.733480090966307
  0
LINE
  5
76
330
1F
100
AcDbEntity
  8
0
  6
Continuous
 62
     7
370
    25
100
AcDbLine
 10
58.0087682618
 20
13.4655172414
 30
0.0
 11
61.7560820192
 21
13.4655172414
 31
0.0
  0
ARC
  5
77
330
1F
100
AcDbEntity
  8
0
  6
Continuous
 62
     7
370
    25
100
AcDbCircle
 10
57.7473408501
 20
19.041018989
 30
0.0
 40
5.581627363913438
100
AcDbArc
 50
272.6845520625
 51
2.9429255753
  0
LINE
  5
78
330
1F
100
AcDbEntity
  8
0
  6
Continuous
 62
     7
370
    25
100
AcDbLine
 10
58.0087682618
 20
13.4655172414
 30
0.0
 11
55.3156183321
 21
13.4655172414
 31
0.0
  0
ARC
  5
79
330
1F
100
AcDbEntity
  8
0
  6
Continuous
 62
     7
370
    25
100
AcDbCircle
 10
55.3494541966
 20
20.3497716313
 30
0.0
 40
6.884337540451966
100
AcDbArc
 50
231.9166746478
 51
269.7183955576
  0
LINE
  5
7A
330
1F
100
AcDbEntity
  8
0
  6
Continuous
 62
     7
370
    25
100
AcDbLine
 10
51.1031477866
 20
14.9310092963
 30
0.0
 11
48.164390575
 21
17.2014741229
 31
0.0
  0
LINE
  5
7B
330
1F
100
AcDbEntity
  8
0
  6
Continuous
 62
     7
370
    25
100
AcDbLine
 10
48.164390575
 20
17.2014741229
 30
0.0
 11
37.6457879505
 21
21.1836015757
 31
0.0
  0
LINE
  5
7C
330
1F
100
AcDbEntity
  8
0
  6
Continuous
 62
     7
370
    25
100
AcDbLine
 10
37.6457879505
 20
21.1836015757
 30
0.0
 11
37.6457879505
 21
92.9888122174
 31
0.0
  0
LINE
  5
7D
330
1F
100
AcDbEntity
  8
0
  6
Continuous
 62
     7
370
    25
100
AcDbLine
 10
48.164390575
 20
96.9709396703
 30
0.0
 11
37.6457879505
 21
92.9888122174
 31
0.0
  0
LINE
  5
7E
330
1F
100
AcDbEntity
  8
0
  6
Continuous
 62
     7
370
    25
100
AcDbLine
 10
51.1031477866
 20
99.2414044968
 30
0.0
 11
48.164390575
 21
96.9709396703
 31
0.0
  0
ARC
  5
7F
330
1F
100
AcDbEntity
  8
0
  6
Continuous
 62
     7
370
    25
100
AcDbCircle
 10
55.3494541965
 20
93.8226421619
 30
0.0
 40
6.884337540357143
100
AcDbArc
 50
90.2816044419
 51
128.0833253522
  0
LINE
  5
80
330
1F
100
AcDbEntity
  8
0
  6
Continuous
 62
     7
370
    25
100
AcDbLine
 10
58.0087682618
 20
100.7068965517
 30
0.0
 11
55.3156183321
 21
100.7068965517
 31
0.0
  0
LINE
  5
81
330
1F
100
AcDbEntity
  8
0
  6
Continuous
 62
     7
370
    25
100
AcDbLine
 10
63.3216070134
 20
94.8448293103
 30
0.0
 11
63.3216070134
 21
88.724137931
 31
0.0
  0
LINE
  5
82
330
1F
100
AcDbEntity
  8
0
  6
Continuous
 62
     7
370
    25
100
AcDbLine
 10
63.3216070134
 20
88.724137931
 30
0.0
 11
48.164390575
 21
62.2586206897
 31
0.0
  0
LINE
  5
83
330
1F
100
AcDbEntity
  8
0
  6
Continuous
 62
     7
370
    25
100
AcDbLine
 10
48.164390575
 20
53.8380515016
 30
0.0
 11
48.164390575
 21
62.2586206897
 31
0.0
  0
ARC
  5
84
330
1F
100
AcDbEntity
  8
0
  6
Continuous
 62
     7
370
    25
100
AcDbCircle
 10
49.3793103448
 20
48.8103448276
 30
0.0
 40
5.172413793102345
100
AcDbArc
 50
103.5848138863
 51
305.2151963862
  0
LINE
  5
85
330
1F
100
AcDbEntity
  8
0
  6
Continuous
 62
     7
370
    25
100
AcDbLine
 10
63.3216070134
 20
25.4482758621
 30
0.0
 11
52.3619777143
 21
44.5845242197
 31
0.0
  0
LINE
  5
86
330
1F
100
AcDbEntity
  8
0
  6
Continuous
 62
     7
370
    25
100
AcDbLine
 10
63.3216070134
 20
19.3275862069
 30
0.0
 11
63.3216070134
 21
25.4482758621
 31
0.0
  0
LWPOLYLINE
  5
87
330
1F
100
AcDbEntity
  8
0
  6
Continuous
 62
     7
370
    25
100
AcDbPolyline
 90
       35
 70
   128
 43
0.0
 10
57.5399883719
 20
23.0344827586
 10
58.1142422301
 20
22.9757693093
 10
58.6689405618
 20
22.8016283773
 10
59.1851937808
 20
22.5179901232
 10
59.6454215027
 20
22.1345135077
 10
60.0339512246
 20
21.6642573668
 10
60.3375520327
 20
21.1232357096
 10
60.5458851657
 20
20.5298723796
 10
60.6518560885
 20
19.9043736533
 10
60.6518560885
 20
19.2680401398
 10
60.5458851657
 20
18.6425414135
 10
60.3375520327
 20
18.0491780835
 10
60.0339512246
 20
17.5081564263
 10
59.6454215027
 20
17.0379002854
 10
59.1851937808
 20
16.6544236699
 10
58.6689405618
 20
16.3707854158
 10
58.1142422301
 20
16.1966444838
 10
57.5399883719
 20
16.1379310345
 10
56.9657345138
 20
16.1966444838
 10
56.411036182
 20
16.3707854158
 10
55.8947829631
 20
16.6544236699
 10
55.4345552411
 20
17.0379002854
 10
55.0460255193
 20
17.5081564263
 10
54.7424247112
 20
18.0491780835
 10
54.5340915782
 20
18.6425414135
 10
54.4281206554
 20
19.2680401398
 10
54.4281206554
 20
19.9043736533
 10
54.5340915782
 20
20.5298723796
 10
54.7424247112
 20
21.1232357096
 10
55.0460255193
 20
21.6642573668
 10
55.4345552411
 20
22.1345135077
 10
55.8947829631
 20
22.5179901232
 10
56.411036182
 20
22.8016283773
 10
56.9657345138
 20
22.9757693093
 10
57.5399883719
 20
23.0344827586
  0
CIRCLE
  5
88
330
1F
100
AcDbEntity
  8
0
  6
Continuous
 62
     7
370
    25
100
AcDbCircle
 10
49.3793103448
 20
87.6034482759
 30
0.0
 40
5.172413793102407
  0
LWPOLYLINE
  5
89
330
1F
100
AcDbEntity
  8
0
  6
Continuous
 62
     7
370
    25
100
AcDbPolyline
 90
       35
 70
   128
 43
0.0
 10
57.5399883719
 20
98.0344827586
 10
58.1142422301
 20
97.9757693093
 10
58.6689405618
 20
97.8016283773
 10
59.1851937808
 20
97.5179901232
 10
59.6454215027
 20
97.1345135077
 10
60.0339512246
 20
96.6642573668
 10
60.3375520327
 20
96.1232357096
 10
60.5458851657
 20
95.5298723796
 10
60.6518560885
 20
94.9043736533
 10
60.6518560885
 20
94.2680401398
 10
60.5458851657
 20
93.6425414135
 10
60.3375520327
 20
93.0491780835
 10
60.0339512246
 20
92.5081564263
 10
59.6454215027
 20
92.0379002854
 10
59.1851937808
 20
91.6544236699
 10
58.6689405618
 20
91.3707854158
 10
58.1142422301
 20
91.1966444838
 10
57.5399883719
 20
91.1379310345
 10
56.9657345138
 20
91.1966444838
 10
56.411036182
 20
91.3707854158
 10
55.8947829631
 20
91.6544236699
 10
55.4345552411
 20
92.0379002854
 10
55.0460255193
 20
92.5081564263
 10
54.7424247112
 20
93.0491780835
 10
54.5340915782
 20
93.6425414135
 10
54.4281206554
 20
94.2680401398
 10
54.4281206554
 20
94.9043736533
 10
54.5340915782
 20
95.5298723796
 10
54.7424247112
 20
96.1232357096
 10
55.0460255193
 20
96.6642573668
 10
55.4345552411
 20
97.1345135077
 10
55.8947829631
 20
97.5179901232
 10
56.411036182
 20
97.8016283773
 10
56.9657345138
 20
97.9757693093
 10
57.5399883719
 20
98.0344827586
  0
ARC
  5
8A
330
1F
100
AcDbEntity
  8
0
  6
Continuous
 62
     7
370
    25
100
AcDbCircle
 10
108.3074235576
 20
18.9182385354
 30
0.0
 40
5.634014733276365
100
AcDbArc
 50
177.5897796403
 51
266.7827594923
  0
LINE
  5
8B
330
1F
100
AcDbEntity
  8
0
  6
Continuous
 62
     7
370
    25
100
AcDbLine
 10
107.9912317382
 20
13.2931034483
 30
0.0
 11
105.8271737486
 21
13.2931034483
 31
0.0
  0
ELLIPSE
  5
8C
330
1F
100
AcDbEntity
  8
0
  6
Continuous
 62
     7
370
    25
100
AcDbEllipse
 10
51.9964776425
 20
19.1551724138
 30
0.0
 11
54.21784170652828
 21
-5.821157063114556
 31
0.0
210
0.0
220
0.0
230
1.0
 40
0.01275158
 41
5.632570552431968
 42
6.164971751916332
  0
ARC
  5
8D
330
1F
100
AcDbEntity
  8
0
  6
Continuous
 62
     7
370
    25
100
AcDbCircle
 10
97.9695900101
 20
18.5280367444
 30
0.0
 40
5.276465535851077
100
AcDbArc
 50
232.7566992511
 51
236.9671589638
  0
ELLIPSE
  5
8E
330
1F
100
AcDbEntity
  8
0
  6
Continuous
 62
     7
370
    25
100
AcDbEllipse
 10
99.6641508336
 20
19.1551724138
 30
0.0
 11
6.468077455986204
 21
7.105427357601002E-15
 31
0.0
210
2.756704253846817E-31
220
-2.509430571836567E-16
230
1.0
 40
0.906307787
 41
3.141592947707454
 42
4.109197574774992
  0
ARC
  5
8F
330
1F
100
AcDbEntity
  8
0
  6
Continuous
 62
     7
370
    25
100
AcDbCircle
 10
108.2526591499
 20
94.958981011
 30
0.0
 40
5.581627363923919
100
AcDbArc
 50
92.6845520627
 51
182.9429255752
  0
ELLIPSE
  5
90
330
1F
100
AcDbEntity
  8
0
  6
Continuous
 62
     7
370
    25
100
AcDbEllipse
 10
103.4938547847
 20
94.6724137931
 30
0.0
 11
6.556036983414316
 21
4.175580462372295
 31
0.0
210
0.0
220
0.0
230
1.0
 40
0.6275759749
 41
0.7780196216049047
 42
2.348815948399853
  0
LINE
  5
91
330
1F
100
AcDbEntity
  8
0
  6
Continuous
 62
     7
370
    25
100
AcDbLine
 10
107.9912317382
 20
100.5344827586
 30
0.0
 11
106.3245055312
 21
100.5344827586
 31
0.0
  0
LINE
  5
92
330
1F
100
AcDbEntity
  8
0
  6
Continuous
 62
     7
370
    25
100
AcDbLine
 10
107.9912317382
 20
100.5344827586
 30
0.0
 11
110.6843816679
 21
100.5344827586
 31
0.0
  0
ARC
  5
93
330
1F
100
AcDbEntity
  8
0
  6
Continuous
 62
     7
370
    25
100
AcDbCircle
 10
110.6505458034
 20
93.6502283687
 30
0.0
 40
6.884337540496224
100
AcDbArc
 50
51.9166746482
 51
89.7183955576
  0
LINE
  5
94
330
1F
100
AcDbEntity
  8
0
  6
Continuous
 62
     7
370
    25
100
AcDbLine
 10
114.8968522134
 20
99.0689907037
 30
0.0
 11
117.835609425
 21
96.7985258772
 31
0.0
  0
LINE
  5
95
330
1F
100
AcDbEntity
  8
0
  6
Continuous
 62
     7
370
    25
100
AcDbLine
 10
117.835609425
 20
96.7985258772
 30
0.0
 11
128.3542120495
 21
92.8163984243
 31
0.0
  0
LINE
  5
96
330
1F
100
AcDbEntity
  8
0
  6
Continuous
 62
     7
370
    25
100
AcDbLine
 10
128.3542120495
 20
21.0111877826
 30
0.0
 11
128.3542120495
 21
92.8163984243
 31
0.0
  0
LINE
  5
97
330
1F
100
AcDbEntity
  8
0
  6
Continuous
 62
     7
370
    25
100
AcDbLine
 10
117.835609425
 20
17.0290603298
 30
0.0
 11
128.3542120495
 21
21.0111877826
 31
0.0
  0
LINE
  5
98
330
1F
100
AcDbEntity
  8
0
  6
Continuous
 62
     7
370
    25
100
AcDbLine
 10
114.8968522134
 20
14.7585955032
 30
0.0
 11
117.835609425
 21
17.0290603298
 31
0.0
  0
ARC
  5
99
330
1F
100
AcDbEntity
  8
0
  6
Continuous
 62
     7
370
    25
100
AcDbCircle
 10
110.6505458034
 20
20.1773578383
 30
0.0
 40
6.884337540587991
100
AcDbArc
 50
270.2816044429
 51
308.0833253518
  0
LINE
  5
9A
330
1F
100
AcDbEntity
  8
0
  6
Continuous
 62
     7
370
    25
100
AcDbLine
 10
107.9912317382
 20
13.2931034483
 30
0.0
 11
110.6843816679
 21
13.2931034483
 31
0.0
  0
LINE
  5
9B
330
1F
100
AcDbEntity
  8
0
  6
Continuous
 62
     7
370
    25
100
AcDbLine
 10
102.6783929866
 20
19.1551706897
 30
0.0
 11
102.6783929866
 21
25.275862069
 31
0.0
  0
LINE
  5
9C
330
1F
100
AcDbEntity
  8
0
  6
Continuous
 62
     7
370
    25
100
AcDbLine
 10
102.6783929866
 20
25.275862069
 30
0.0
 11
113.708698062
 21
44.5355150756
 31
0.0
  0
ARC
  5
9D
330
1F
100
AcDbEntity
  8
0
  6
Continuous
 62
     7
370
    25
100
AcDbCircle
 10
116.6206896552
 20
48.8103448276
 30
0.0
 40
5.172413793102754
100
AcDbArc
 50
235.7375143408
 51
76.4151861137
  0
LINE
  5
9E
330
1F
100
AcDbEntity
  8
0
  6
Continuous
 62
     7
370
    25
100
AcDbLine
 10
117.835609425
 20
62.0862068966
 30
0.0
 11
117.835609425
 21
53.8380515016
 31
0.0
  0
LINE
  5
9F
330
1F
100
AcDbEntity
  8
0
  6
Continuous
 62
     7
370
    25
100
AcDbLine
 10
102.6783929866
 20
88.5517241379
 30
0.0
 11
117.835609425
 21
62.0862068966
 31
0.0
  0
LINE
  5
A0
330
1F
100
AcDbEntity
  8
0
  6
Continuous
 62
     7
370
    25
100
AcDbLine
 10
102.6783929866
 20
94.6724137931
 30
0.0
 11
102.6783929866
 21
88.5517241379
 31
0.0
  0
CIRCLE
  5
A1
330
1F
100
AcDbEntity
  8
0
  6
Continuous
 62
     7
370
    25
100
AcDbCircle
 10
116.6206896552
 20
87.6034482759
 30
0.0
 40
5.172413793102407
  0
LWPOLYLINE
  5
A2
330
1F
100
AcDbEntity
  8
0
  6
Continuous
 62
     7
370
    25
100
AcDbPolyline
 90
       35
 70
   128
 43
0.0
 10
108.4600116281
 20
90.9655172414
 10
107.8857577699
 20
91.0242306907
 10
107.3310594382
 20
91.1983716227
 10
106.8148062192
 20
91.4820098768
 10
106.3545784973
 20
91.8654864923
 10
105.9660487754
 20
92.3357426332
 10
105.6624479673
 20
92.8767642904
 10
105.4541148343
 20
93.4701276204
 10
105.3481439115
 20
94.0956263467
 10
105.3481439115
 20
94.7319598602
 10
105.4541148343
 20
95.3574585865
 10
105.6624479673
 20
95.9508219165
 10
105.9660487754
 20
96.4918435737
 10
106.3545784973
 20
96.9620997146
 10
106.8148062192
 20
97.3455763301
 10
107.3310594382
 20
97.6292145842
 10
107.8857577699
 20
97.8033555162
 10
108.4600116281
 20
97.8620689655
 10
109.0342654862
 20
97.8033555162
 10
109.588963818
 20
97.6292145842
 10
110.1052170369
 20
97.3455763301
 10
110.5654447589
 20
96.9620997146
 10
110.9539744807
 20
96.4918435737
 10
111.2575752888
 20
95.9508219165
 10
111.4659084218
 20
95.3574585865
 10
111.5718793446
 20
94.7319598602
 10
111.5718793446
 20
94.0956263467
 10
111.4659084218
 20
93.4701276204
 10
111.2575752888
 20
92.8767642904
 10
110.9539744807
 20
92.3357426332
 10
110.5654447589
 20
91.8654864923
 10
110.1052170369
 20
91.4820098768
 10
109.588963818
 20
91.1983716227
 10
109.0342654862
 20
91.0242306907
 10
108.4600116281
 20
90.9655172414
  0
LWPOLYLINE
  5
A3
330
1F
100
AcDbEntity
  8
0
  6
Continuous
 62
     7
370
    25
100
AcDbPolyline
 90
       35
 70
   128
 43
0.0
 10
108.4600116281
 20
15.9655172414
 10
107.8857577699
 20
16.0242306907
 10
107.3310594382
 20
16.1983716227
 10
106.8148062192
 20
16.4820098768
 10
106.3545784973
 20
16.8654864923
 10
105.9660487754
 20
17.3357426332
 10
105.6624479673
 20
17.8767642904
 10
105.4541148343
 20
18.4701276204
 10
105.3481439115
 20
19.0956263467
 10
105.3481439115
 20
19.7319598602
 10
105.4541148343
 20
20.3574585865
 10
105.6624479673
 20
20.9508219165
 10
105.9660487754
 20
21.4918435737
 10
106.3545784973
 20
21.9620997146
 10
106.8148062192
 20
22.3455763301
 10
107.3310594382
 20
22.6292145842
 10
107.8857577699
 20
22.8033555162
 10
108.4600116281
 20
22.8620689655
 10
109.0342654862
 20
22.8033555162
 10
109.588963818
 20
22.6292145842
 10
110.1052170369
 20
22.3455763301
 10
110.5654447589
 20
21.9620997146
 10
110.9539744807
 20
21.4918435737
 10
111.2575752888
 20
20.9508219165
 10
111.4659084218
 20
20.3574585865
 10
111.5718793446
 20
19.7319598602
 10
111.5718793446
 20
19.0956263467
 10
111.4659084218
 20
18.4701276204
 10
111.2575752888
 20
17.8767642904
 10
110.9539744807
 20
17.3357426332
 10
110.5654447589
 20
16.8654864923
 10
110.1052170369
 20
16.4820098768
 10
109.588963818
 20
16.1983716227
 10
109.0342654862
 20
16.0242306907
 10
108.4600116281
 20
15.9655172414
  0
LINE
  5
A4
330
1F
100
AcDbEntity
  8
0
  6
Continuous
 62
     7
370
    25
100
AcDbLine
 10
102.6783929866
 20
25.275862069
 30
0.0
 11
93.1960733776
 21
25.275862069
 31
0.0
  0
LINE
  5
A5
330
1F
100
AcDbEntity
  8
0
  6
Continuous
 62
     7
370
    25
100
AcDbLine
 10
111.6491178844
 20
51.7413793103
 30
0.0
 11
93.1960733776
 21
25.275862069
 31
0.0
  0
LINE
  5
A6
330
1F
100
AcDbEntity
  8
0
  6
Continuous
 62
     7
370
    25
100
AcDbLine
 10
112.3588941054
 20
51.7413793103
 30
0.0
 11
111.6491178844
 21
51.7413793103
 31
0.0
  0
ARC
  5
A7
330
1F
100
AcDbEntity
  8
0
  6
Continuous
 62
     7
370
    25
100
AcDbCircle
 10
116.6206896552
 20
48.8103448276
 30
0.0
 40
5.172413793103942
100
AcDbArc
 50
145.4818921589
 51
235.7375143408
  0
ARC
  5
A8
330
1F
100
AcDbEntity
  8
0
  6
Continuous
 62
     7
370
    25
100
AcDbCircle
 10
49.3793103448
 20
48.8103448276
 30
0.0
 40
5.172413793103456
100
AcDbArc
 50
305.2151963862
 51
36.8698976458
  0
LINE
  5
A9
330
1F
100
AcDbEntity
  8
0
  6
Continuous
 62
     7
370
    25
100
AcDbLine
 10
53.5172413793
 20
51.9137931034
 30
0.0
 11
54.3508821156
 21
51.9137931034
 31
0.0
  0
LINE
  5
AA
330
1F
100
AcDbEntity
  8
0
  6
Continuous
 62
     7
370
    25
100
AcDbLine
 10
54.3508821156
 20
51.9137931034
 30
0.0
 11
72.8039266224
 21
25.4482758621
 31
0.0
  0
LINE
  5
AB
330
1F
100
AcDbEntity
  8
0
  6
Continuous
 62
     7
370
    25
100
AcDbLine
 10
63.3216070134
 20
25.4482758621
 30
0.0
 11
72.8039266224
 21
25.4482758621
 31
0.0
  0
LINE
  5
AC
330
1F
100
AcDbEntity
  8
0
  6
Continuous
 62
     7
370
    25
100
AcDbLine
 10
68.890967405
 20
94.8448293103
 30
0.0
 11
71.8465006346
 21
88.724137931
 31
0.0
  0
LINE
  5
AD
330
1F
100
AcDbEntity
  8
0
  6
Continuous
 62
     7
370
    25
100
AcDbLine
 10
63.3216070134
 20
88.724137931
 30
0.0
 11
71.8465006346
 21
88.724137931
 31
0.0
  0
LINE
  5
AE
330
1F
100
AcDbEntity
  8
0
  6
Continuous
 62
     7
370
    25
100
AcDbLine
 10
117.835609425
 20
62.0862068966
 30
0.0
 11
111.6491178844
 21
62.0862068966
 31
0.0
  0
LINE
  5
AF
330
1F
100
AcDbEntity
  8
0
  6
Continuous
 62
     7
370
    25
100
AcDbLine
 10
111.6491178844
 20
62.0862068966
 30
0.0
 11
94.4583337511
 21
86.7413793103
 31
0.0
  0
LINE
  5
B0
330
1F
100
AcDbEntity
  8
0
  6
Continuous
 62
     7
370
    25
100
AcDbLine
 10
94.0702449317
 20
88.5517241379
 30
0.0
 11
94.4583337511
 21
86.7413793103
 31
0.0
  0
LINE
  5
B1
330
1F
100
AcDbEntity
  8
0
  6
Continuous
 62
     7
370
    25
100
AcDbLine
 10
102.6783929866
 20
88.5517241379
 30
0.0
 11
94.0702449317
 21
88.5517241379
 31
0.0
  0
LINE
  5
B2
330
1F
100
AcDbEntity
  8
0
  6
Continuous
 62
     7
370
    25
100
AcDbLine
 10
97.0257773287
 20
94.6724137931
 30
0.0
 11
94.0702449317
 21
88.5517241379
 31
0.0
  0
LINE
  5
B3
330
1F
100
AcDbEntity
  8
0
  6
Continuous
 62
     7
370
    25
100
AcDbLine
 10
72.8039266224
 20
25.4482758621
 30
0.0
 11
72.8039266224
 21
19.3275862069
 31
0.0
  0
LINE
  5
B4
330
1F
100
AcDbEntity
  8
0
  6
Continuous
 62
     7
370
    25
100
AcDbLine
 10
71.8465006346
 20
88.724137931
 30
0.0
 11
71.4214509753
 21
86.7413793103
 31
0.0
  0
LINE
  5
B5
330
1F
100
AcDbEntity
  8
0
  6
Continuous
 62
     7
370
    25
100
AcDbLine
 10
54.3508821156
 20
62.2586206897
 30
0.0
 11
71.4214509753
 21
86.7413793103
 31
0.0
  0
LINE
  5
B6
330
1F
100
AcDbEntity
  8
0
  6
Continuous
 62
     7
370
    25
100
AcDbLine
 10
48.164390575
 20
62.2586206897
 30
0.0
 11
54.3508821156
 21
62.2586206897
 31
0.0
  0
LINE
  5
B7
330
1F
100
AcDbEntity
  8
0
  6
Continuous
 62
     7
370
    25
100
AcDbLine
 10
93.1960733776
 20
25.275862069
 30
0.0
 11
93.1960733776
 21
19.1551706897
 31
0.0
  0
ELLIPSE
  5
B8
330
1F
100
AcDbEntity
  8
0
  6
Continuous
 62
     7
370
    25
100
AcDbEllipse
 10
103.9396858508
 20
94.4137931034
 30
0.0
 11
3.856492343184726
 21
2.456223801394913
 31
0.0
210
0.0
220
0.0
230
1.0
 40
0.6275759749
 41
4.842438259462872
 42
6.609987491181141
  0
ELLIPSE
  5
B9
330
1F
100
AcDbEntity
  8
0
  6
Continuous
 62
     7
370
    25
100
AcDbEllipse
 10
61.9770597154
 20
94.5862068966
 30
0.0
 11
3.856492343184726
 21
-2.456223801394913
 31
0.0
210
0.0
220
0.0
230
1.0
 40
0.6275759749
 41
2.799773522040858
 42
4.597356648853919
  0
LINE
  5
BA
330
1F
100
AcDbEntity
  8
0
  6
Continuous
 62
     7
370
    25
100
AcDbLine
 10
111.6491178844
 20
51.7413793103
 30
0.0
 11
111.6491178844
 21
62.0862068966
 31
0.0
  0
ARC
  5
BB
330
1F
100
AcDbEntity
  8
0
  6
Continuous
 62
     7
370
    25
100
AcDbCircle
 10
116.6206896552
 20
48.8103448276
 30
0.0
 40
5.172413793103942
100
AcDbArc
 50
76.4151861137
 51
145.4818921589
  0
LINE
  5
BC
330
1F
100
AcDbEntity
  8
0
  6
Continuous
 62
     7
370
    25
100
AcDbLine
 10
54.3508821156
 20
62.2586206897
 30
0.0
 11
54.3508821156
 21
51.9137931034
 31
0.0
  0
ARC
  5
BD
330
1F
100
AcDbEntity
  8
0
  6
Continuous
 62
     7
370
    25
100
AcDbCircle
 10
49.3793103448
 20
48.8103448276
 30
0.0
 40
5.172413793103456
100
AcDbArc
 50
36.8698976458
 51
103.5848138863
  0
LINE
  5
BE
330
1F
100
AcDbEntity
  8
0
  6
Continuous
 62
     7
370
    25
100
AcDbLine
 10
133.0
 20
14.3275862069
 30
0.0
 11
129.9827586207
 21
14.3275862069
 31
0.0
  0
LINE
  5
BF
330
1F
100
AcDbEntity
  8
0
  6
Continuous
 62
     7
370
    25
100
AcDbLine
 10
129.9827586207
 20
14.3275862069
 30
0.0
 11
129.9827586207
 21
93.6379310345
 31
0.0
  0
LINE
  5
C0
330
1F
100
AcDbEntity
  8
0
  6
Continuous
 62
     7
370
    25
100
AcDbLine
 10
133.0
 20
93.6379310345
 30
0.0
 11
129.9827586207
 21
93.6379310345
 31
0.0
  0
LINE
  5
C1
330
1F
100
AcDbEntity
  8
0
  6
Continuous
 62
     7
370
    25
100
AcDbLine
 10
133.0
 20
14.3275862069
 30
0.0
 11
133.0
 21
93.6379310345
 31
0.0
  0
LINE
  5
C2
330
1F
100
AcDbEntity
  8
0
  6
Continuous
 62
     7
370
    25
100
AcDbLine
 10
129.9827586207
 20
14.3275862069
 30
0.0
 11
129.0581830916
 21
14.3275862069
 31
0.0
  0
LINE
  5
C3
330
1F
100
AcDbEntity
  8
0
  6
Continuous
 62
     7
370
    25
100
AcDbLine
 10
129.0581830916
 20
14.3275862069
 30
0.0
 11
129.0581830916
 21
93.6379310345
 31
0.0
  0
LINE
  5
C4
330
1F
100
AcDbEntity
  8
0
  6
Continuous
 62
     7
370
    25
100
AcDbLine
 10
129.9827586207
 20
93.6379310345
 30
0.0
 11
129.0581830916
 21
93.6379310345
 31
0.0
  0
LINE
  5
C5
330
1F
100
AcDbEntity
  8
0
  6
Continuous
 62
     7
370
    25
100
AcDbLine
 10
36.0172413793
 20
14.3275862069
 30
0.0
 11
36.0172413793
 21
93.6379310345
 31
0.0
  0
LINE
  5
C6
330
1F
100
AcDbEntity
  8
0
  6
Continuous
 62
     7
370
    25
100
AcDbLine
 10
33.0
 20
14.3275862069
 30
0.0
 11
36.0172413793
 21
14.3275862069
 31
0.0
  0
LINE
  5
C7
330
1F
100
AcDbEntity
  8
0
  6
Continuous
 62
     7
370
    25
100
AcDbLine
 10
33.0
 20
93.6379310345
 30
0.0
 11
36.0172413793
 21
93.6379310345
 31
0.0
  0
LINE
  5
C8
330
1F
100
AcDbEntity
  8
0
  6
Continuous
 62
     7
370
    25
100
AcDbLine
 10
33.0
 20
14.3275862069
 30
0.0
 11
33.0
 21
93.6379310345
 31
0.0
  0
LINE
  5
C9
330
1F
100
AcDbEntity
  8
0
  6
Continuous
 62
     7
370
    25
100
AcDbLine
 10
36.9418169084
 20
14.3275862069
 30
0.0
 11
36.9418169084
 21
93.6379310345
 31
0.0
  0
LINE
  5
CA
330
1F
100
AcDbEntity
  8
0
  6
Continuous
 62
     7
370
    25
100
AcDbLine
 10
36.0172413793
 20
14.3275862069
 30
0.0
 11
36.9418169084
 21
14.3275862069
 31
0.0
  0
LINE
  5
CB
330
1F
100
AcDbEntity
  8
0
  6
Continuous
 62
     7
370
    25
100
AcDbLine
 10
36.0172413793
 20
93.6379310345
 30
0.0
 11
36.9418169084
 21
93.6379310345
 31
0.0
  0
LINE
  5
CC
330
1F
100
AcDbEntity
  8
0
  6
Continuous
 62
     7
370
    25
100
AcDbLine
 10
129.0581830916
 20
14.3275862069
 30
0.0
 11
114.2749622608
 21
14.3275862069
 31
0.0
  0
LINE
  5
CD
330
1F
100
AcDbEntity
  8
0
  6
Continuous
 62
     7
370
    25
100
AcDbLine
 10
129.0581830916
 20
93.6379310345
 30
0.0
 11
126.1841722475
 21
93.6379310345
 31
0.0
  0
LINE
  5
CE
330
1F
100
AcDbEntity
  8
0
  6
Continuous
 62
     7
370
    25
100
AcDbLine
 10
36.9418169084
 20
14.3275862069
 30
0.0
 11
52.0193107956
 21
14.3275862069
 31
0.0
  0
LINE
  5
CF
330
1F
100
AcDbEntity
  8
0
  6
Continuous
 62
     7
370
    25
100
AcDbLine
 10
36.9418169084
 20
93.6379310345
 30
0.0
 11
39.3604048164
 21
93.6379310345
 31
0.0
  0
LINE
  5
D0
330
1F
100
AcDbEntity
  8
0
  6
Continuous
 62
     7
370
    25
100
AcDbLine
 10
33.0
 20
93.6519455415
 30
0.0
 11
39.3974234784
 21
93.6519455415
 31
0.0
  0
LINE
  5
D1
330
1F
100
AcDbEntity
  8
0
  6
Continuous
 62
     7
370
    25
100
AcDbLine
 10
33.0
 20
93.6379310345
 30
0.0
 11
33.0
 21
93.6519455415
 31
0.0
  0
ARC
  5
D2
330
1F
100
AcDbEntity
  8
0
  6
Continuous
 62
     7
370
    25
100
AcDbCircle
 10
94.2068965517
 20
57.6034482759
 30
0.0
 40
11.20689655172414
100
AcDbArc
 50
270.0
 51
90.0
  0
LINE
  5
D3
330
1F
100
AcDbEntity
  8
0
  6
Continuous
 62
     7
370
    25
100
AcDbLine
 10
71.7931034483
 20
46.3965517242
 30
0.0
 11
94.2068965517
 21
46.3965517242
 31
0.0
  0
LINE
  5
D4
330
1F
100
AcDbEntity
  8
0
  6
Continuous
 62
     7
370
    25
100
AcDbLine
 10
71.4214509753
 20
86.7413793103
 30
0.0
 11
94.4583337511
 21
86.7413793103
 31
0.0
  0
LINE
  5
D5
330
1F
100
AcDbEntity
  8
0
  6
Continuous
 62
     7
370
    25
100
AcDbLine
 10
94.2068965517
 20
68.8103448276
 30
0.0
 11
71.7931034483
 21
68.8103448276
 31
0.0
  0
ARC
  5
D6
330
1F
100
AcDbEntity
  8
0
  6
Continuous
 62
     7
370
    25
100
AcDbCircle
 10
71.7931034483
 20
57.6034482759
 30
0.0
 40
11.20689655172414
100
AcDbArc
 50
90.0
 51
270.0
  0
LINE
  5
D7
330
1F
100
AcDbEntity
  8
0
  6
Continuous
 62
     7
370
    25
100
AcDbLine
 10
69.7122311316
 20
14.3275862069
 30
0.0
 11
95.9949814171
 21
14.3275862069
 31
0.0
  0
CIRCLE
  5
D8
330
1F
100
AcDbEntity
  8
0
  6
Continuous
 62
     7
370
    25
100
AcDbCircle
 10
49.3793103448
 20
87.6034482759
 30
0.0
 40
3.017241379310342
  0
CIRCLE
  5
D9
330
1F
100
AcDbEntity
  8
0
  6
Continuous
 62
     7
370
    25
100
AcDbCircle
 10
49.3793103448
 20
48.8103448276
 30
0.0
 40
3.017241379310342
  0
CIRCLE
  5
DA
330
1F
100
AcDbEntity
  8
0
  6
Continuous
 62
     7
370
    25
100
AcDbCircle
 10
116.6206896552
 20
48.8103448276
 30
0.0
 40
3.017241379310349
  0
CIRCLE
  5
DB
330
1F
100
AcDbEntity
  8
0
  6
Continuous
 62
     7
370
    25
100
AcDbCircle
 10
116.6206896552
 20
87.6034482759
 30
0.0
 40
3.017241379310349
  0
ELLIPSE
  5
DC
330
1F
100
AcDbEntity
  8
0
  6
HIDDEN
 62
     7
370
    18
100
AcDbEllipse
 10
103.9396858508
 20
94.4137931034
 30
0.0
 11
3.856492343184726
 21
2.456223801394913
 31
0.0
210
0.0
220
0.0
230
1.0
 40
0.6275759749
 41
0.3268021840015561
 42
0.3905348649833302
  0
ELLIPSE
  5
DD
330
1F
100
AcDbEntity
  8
0
  6
HIDDEN
 62
     7
370
    18
100
AcDbEllipse
 10
103.9396858508
 20
94.4137931034
 30
0.0
 11
3.856492343184726
 21
2.456223801394913
 31
0.0
210
0.0
220
0.0
230
1.0
 40
0.6275759749
 41
0.39053486498331
 42
4.842438259462872
  0
ELLIPSE
  5
DE
330
1F
100
AcDbEntity
  8
0
  6
HIDDEN
 62
     7
370
    18
100
AcDbEllipse
 10
61.9770597154
 20
94.5862068966
 30
0.0
 11
3.856492343184726
 21
-2.456223801394913
 31
0.0
210
0.0
220
0.0
230
1.0
 40
0.6275759749
 41
4.597356648853919
 42
9.082958829220441
  0
ELLIPSE
  5
DF
330
1F
100
AcDbEntity
  8
0
  6
HIDDEN
 62
     7
370
    18
100
AcDbEllipse
 10
100.2348635503
 20
19.4137931034
 30
0.0
 11
3.804751444698269
 21
0.0
 31
0.0
210
0.0
220
-2.575717417130364E-16
230
1.0
 40
0.906307787
 41
0.0
 42
6.283185307179586
  0
ELLIPSE
  5
E0
330
1F
100
AcDbEntity
  8
0
  6
HIDDEN
 62
     7
370
    18
100
AcDbEllipse
 10
65.7651364497
 20
19.5862068966
 30
0.0
 11
-3.804751444698283
 21
0.0
 31
0.0
210
0.0
220
-2.495226247845040E-16
230
1.0
 40
0.906307787
 41
0.0
 42
6.283185307179586
  0
ELLIPSE
  5
E1
330
1F
100
AcDbEntity
  8
0
  6
HIDDEN
 62
     7
370
    18
100
AcDbEllipse
 10
106.8422037078
 20
21.3965517241
 30
0.0
 11
8.941165895041392
 21
7.105427357601001E-15
 31
0.0
210
1.742033085205169E-31
220
-2.192099929472650E-16
230
1.0
 40
0.906307787
 41
5.223216105418715
 42
5.3232542185836
  0
LINE
  5
E2
330
1F
100
AcDbEntity
  8
0
  6
HIDDEN
 62
     7
370
    18
100
AcDbLine
 10
104.0738318049
 20
14.3275862069
 30
0.0
 11
111.2135303135
 21
14.3275862069
 31
0.0
  0
ARC
  5
E3
330
1F
100
AcDbEntity
  8
0
  6
HIDDEN
 62
     7
370
    18
100
AcDbCircle
 10
100.2980117791
 20
20.433542928
 30
0.0
 40
7.179103310775621
100
AcDbArc
 50
301.566393031
 51
301.7319433203
  0
ELLIPSE
  5
E4
330
1F
100
AcDbEntity
  8
0
  6
HIDDEN
 62
     7
370
    18
100
AcDbEllipse
 10
34.6929087383
 20
21.3965517241
 30
0.0
 11
74.94819294725505
 21
-8.046893587246094
 31
0.0
210
0.0
220
0.0
230
1.0
 40
0.01275158
 41
6.164971751915446
 42
6.673044761300874
  0
ELLIPSE
  5
E5
330
1F
100
AcDbEntity
  8
0
  6
HIDDEN
 62
     7
370
    18
100
AcDbEllipse
 10
60.2264423424
 20
92.6034482759
 30
0.0
 11
9.062757006484228
 21
-5.772125933278532
 31
0.0
210
0.0
220
0.0
230
1.0
 40
0.6275759749
 41
2.363573031984846
 42
2.974438270182533
  0
ELLIPSE
  5
E6
330
1F
100
AcDbEntity
  8
0
  6
HIDDEN
 62
     7
370
    18
100
AcDbEllipse
 10
105.6903032239
 20
92.4310344828
 30
0.0
 11
9.062757006484219
 21
5.77212593327853
 31
0.0
210
0.0
220
0.0
230
1.0
 40
0.6275759749
 41
0.1671543834071035
 42
0.7780196216051397
  0
ELLIPSE
  5
E7
330
1F
100
AcDbEntity
  8
0
  6
HIDDEN
 62
     7
370
    18
100
AcDbEllipse
 10
132.8903470296
 20
21.5689655172
 30
0.0
 11
74.94819294725509
 21
8.046893587246091
 31
0.0
210
0.0
220
0.0
230
1.0
 40
0.01275158
 41
2.79938440177801
 42
3.259806208855897
  0
ARC
  5
E8
330
1F
100
AcDbEntity
  8
0
  6
HIDDEN
 62
     7
370
    18
100
AcDbCircle
 10
65.6589768423
 20
20.5322456449
 30
0.0
 40
7.093752585987732
100
AcDbArc
 50
241.0053921163
 51
241.3104165544
  0
LINE
  5
E9
330
1F
100
AcDbEntity
  8
0
  6
HIDDEN
 62
     7
370
    18
100
AcDbLine
 10
62.2204412514
 20
14.3275862069
 30
0.0
 11
55.1447303096
 21
14.3275862069
 31
0.0
  0
ELLIPSE
  5
EA
330
1F
100
AcDbEntity
  8
0
  6
HIDDEN
 62
     7
370
    18
100
AcDbEllipse
 10
59.1577962922
 20
21.5689655172
 30
0.0
 11
-8.941165895041387
 21
0.0
 31
0.0
210
0.0
220
0.0
230
1.0
 40
0.906307787
 41
0.9599310885963123
 42
1.105340392273831
  0
LINE
  5
EB
330
1F
100
AcDbEntity
  8
0
  6
HIDDEN
 62
     7
370
    18
100
AcDbLine
 10
51.8926924114
 20
99.2414044968
 30
0.0
 11
49.4112758368
 21
96.9709396703
 31
0.0
  0
LINE
  5
EC
330
1F
100
AcDbEntity
  8
0
  6
HIDDEN
 62
     7
370
    18
100
AcDbLine
 10
114.0240531549
 20
99.0689907037
 30
0.0
 11
116.5054697295
 21
96.7985258772
 31
0.0
  0
LINE
  5
ED
330
1F
100
AcDbEntity
  8
0
  6
HIDDEN
 62
     7
370
    18
100
AcDbLine
 10
49.4112758368
 20
96.9709396703
 30
0.0
 11
40.3406562511
 21
93.6519455415
 31
0.0
  0
LINE
  5
EE
330
1F
100
AcDbEntity
  8
0
  6
HIDDEN
 62
     7
370
    18
100
AcDbLine
 10
48.164390575
 20
96.9709396703
 30
0.0
 11
49.4112758368
 21
96.9709396703
 31
0.0
  0
LINE
  5
EF
330
1F
100
AcDbEntity
  8
0
  6
HIDDEN
 62
     7
370
    18
100
AcDbLine
 10
48.164390575
 20
17.2014741229
 30
0.0
 11
50.4515853189
 21
17.2014741229
 31
0.0
  0
LINE
  5
F0
330
1F
100
AcDbEntity
  8
0
  6
HIDDEN
 62
     7
370
    18
100
AcDbLine
 10
117.835609425
 20
17.0290603298
 30
0.0
 11
115.5484146811
 21
17.0290603298
 31
0.0
  0
LINE
  5
F1
330
1F
100
AcDbEntity
  8
0
  6
HIDDEN
 62
     7
370
    18
100
AcDbLine
 10
116.5054697295
 20
96.7985258772
 30
0.0
 11
125.1431931994
 21
93.6379310345
 31
0.0
  0
LINE
  5
F2
330
1F
100
AcDbEntity
  8
0
  6
HIDDEN
 62
     7
370
    18
100
AcDbLine
 10
117.835609425
 20
96.7985258772
 30
0.0
 11
116.5054697295
 21
96.7985258772
 31
0.0
  0
LINE
  5
F3
330
1F
100
AcDbEntity
  8
0
  6
HIDDEN
 62
     7
370
    18
100
AcDbLine
 10
125.1431931994
 20
93.6379310345
 30
0.0
 11
125.7123126473
 21
93.6379310345
 31
0.0
  0
LINE
  5
F4
330
1F
100
AcDbEntity
  8
0
  6
HIDDEN
 62
     7
370
    18
100
AcDbLine
 10
125.1431931994
 20
93.6379310345
 30
0.0
 11
114.707436092
 21
93.6379310345
 31
0.0
  0
LINE
  5
F5
330
1F
100
AcDbEntity
  8
0
  6
HIDDEN
 62
     7
370
    18
100
AcDbLine
 10
40.0146285159
 20
93.6379310345
 30
0.0
 11
39.7332359636
 21
93.6379310345
 31
0.0
  0
LINE
  5
F6
330
1F
100
AcDbEntity
  8
0
  6
HIDDEN
 62
     7
370
    18
100
AcDbLine
 10
114.2749622608
 20
14.3275862069
 30
0.0
 11
111.2135303135
 21
14.3275862069
 31
0.0
  0
LINE
  5
F7
330
1F
100
AcDbEntity
  8
0
  6
HIDDEN
 62
     7
370
    18
100
AcDbLine
 10
126.1841722475
 20
93.6379310345
 30
0.0
 11
125.7123126473
 21
93.6379310345
 31
0.0
  0
LINE
  5
F8
330
1F
100
AcDbEntity
  8
0
  6
HIDDEN
 62
     7
370
    18
100
AcDbLine
 10
125.7123126473
 20
93.6379310345
 30
0.0
 11
128.3542120495
 21
92.8163984243
 31
0.0
  0
LINE
  5
F9
330
1F
100
AcDbEntity
  8
0
  6
HIDDEN
 62
     7
370
    18
100
AcDbLine
 10
115.5484146811
 20
17.0290603298
 30
0.0
 11
128.3542120495
 21
21.0111877826
 31
0.0
  0
LINE
  5
FA
330
1F
100
AcDbEntity
  8
0
  6
HIDDEN
 62
     7
370
    18
100
AcDbLine
 10
111.9706457787
 20
14.7585955032
 30
0.0
 11
115.5484146811
 21
17.0290603298
 31
0.0
  0
LINE
  5
FB
330
1F
100
AcDbEntity
  8
0
  6
HIDDEN
 62
     7
370
    18
100
AcDbLine
 10
52.0193107956
 20
14.3275862069
 30
0.0
 11
55.1447303096
 21
14.3275862069
 31
0.0
  0
LINE
  5
FC
330
1F
100
AcDbEntity
  8
0
  6
HIDDEN
 62
     7
370
    18
100
AcDbLine
 10
39.3604048164
 20
93.6379310345
 30
0.0
 11
39.7332359636
 21
93.6379310345
 31
0.0
  0
LINE
  5
FD
330
1F
100
AcDbEntity
  8
0
  6
HIDDEN
 62
     7
370
    18
100
AcDbLine
 10
37.6457879505
 20
21.1836015757
 30
0.0
 11
50.4515853189
 21
17.2014741229
 31
0.0
  0
LINE
  5
FE
330
1F
100
AcDbEntity
  8
0
  6
HIDDEN
 62
     7
370
    18
100
AcDbLine
 10
37.6457879505
 20
92.9888122174
 30
0.0
 11
39.7332359636
 21
93.6379310345
 31
0.0
  0
LINE
  5
FF
330
1F
100
AcDbEntity
  8
0
  6
HIDDEN
 62
     7
370
    18
100
AcDbLine
 10
50.4515853189
 20
17.2014741229
 30
0.0
 11
54.0293542213
 21
14.9310092963
 31
0.0
  0
LINE
  5
100
330
1F
100
AcDbEntity
  8
0
  6
HIDDEN
 62
     7
370
    18
100
AcDbLine
 10
40.3406562511
 20
93.6519455415
 30
0.0
 11
40.0596966206
 21
93.6519455415
 31
0.0
  0
LINE
  5
101
330
1F
100
AcDbEntity
  8
0
  6
HIDDEN
 62
     7
370
    18
100
AcDbLine
 10
51.275862069
 20
93.6519455415
 30
0.0
 11
40.3406562511
 21
93.6519455415
 31
0.0
  0
LINE
  5
102
330
1F
100
AcDbEntity
  8
0
  6
HIDDEN
 62
     7
370
    18
100
AcDbLine
 10
39.3974234784
 20
93.6519455415
 30
0.0
 11
40.0596966206
 21
93.6519455415
 31
0.0
  0
LINE
  5
103
330
1F
100
AcDbEntity
  8
0
  6
HIDDEN
 62
     7
370
    18
100
AcDbLine
 10
40.0596966206
 20
93.6519455415
 30
0.0
 11
40.0146285159
 21
93.6379310345
 31
0.0
  0
LINE
  5
104
330
1F
100
AcDbEntity
  8
0
  6
HIDDEN
 62
     7
370
    18
100
AcDbLine
 10
51.275862069
 20
92.9622903691
 30
0.0
 11
51.275862069
 21
93.6519455415
 31
0.0
  0
LINE
  5
105
330
1F
100
AcDbEntity
  8
0
  6
HIDDEN
 62
     7
370
    18
100
AcDbLine
 10
114.707436092
 20
93.6379310345
 30
0.0
 11
114.707436092
 21
92.9482758621
 31
0.0
  0
LINE
  5
106
330
1F
100
AcDbEntity
  8
0
  6
HIDDEN
 62
     7
370
    18
100
AcDbLine
 10
52.3103448276
 20
92.9622903691
 30
0.0
 11
51.275862069
 21
92.9622903691
 31
0.0
  0
LINE
  5
107
330
1F
100
AcDbEntity
  8
0
  6
HIDDEN
 62
     7
370
    18
100
AcDbLine
 10
59.724137931
 20
86.7413793103
 30
0.0
 11
52.3103448276
 21
92.9622903691
 31
0.0
  0
LINE
  5
108
330
1F
100
AcDbEntity
  8
0
  6
HIDDEN
 62
     7
370
    18
100
AcDbLine
 10
113.6729533333
 20
92.9482758621
 30
0.0
 11
106.275862069
 21
86.7413793103
 31
0.0
  0
LINE
  5
109
330
1F
100
AcDbEntity
  8
0
  6
HIDDEN
 62
     7
370
    18
100
AcDbLine
 10
114.707436092
 20
92.9482758621
 30
0.0
 11
113.6729533333
 21
92.9482758621
 31
0.0
  0
LINE
  5
10A
330
1F
100
AcDbEntity
  8
0
  6
HIDDEN
 62
     7
370
    18
100
AcDbLine
 10
94.4583337511
 20
86.7413793103
 30
0.0
 11
106.275862069
 21
86.7413793103
 31
0.0
  0
LINE
  5
10B
330
1F
100
AcDbEntity
  8
0
  6
HIDDEN
 62
     7
370
    18
100
AcDbLine
 10
59.724137931
 20
86.7413793103
 30
0.0
 11
71.4214509753
 21
86.7413793103
 31
0.0
  0
LINE
  5
10C
330
1F
100
AcDbEntity
  8
0
  6
HIDDEN
 62
     7
370
    18
100
AcDbLine
 10
95.9949814171
 20
14.3275862069
 30
0.0
 11
104.0738318049
 21
14.3275862069
 31
0.0
  0
LINE
  5
10D
330
1F
100
AcDbEntity
  8
0
  6
HIDDEN
 62
     7
370
    18
100
AcDbLine
 10
104.0561735312
 20
14.3167018648
 30
0.0
 11
95.0932849205
 21
14.1044683226
 31
0.0
  0
LINE
  5
10E
330
1F
100
AcDbEntity
  8
0
  6
HIDDEN
 62
     7
370
    18
100
AcDbLine
 10
70.6333965399
 20
14.110940272
 30
0.0
 11
62.253521448
 21
14.3093685524
 31
0.0
  0
LINE
  5
10F
330
1F
100
AcDbEntity
  8
0
  6
HIDDEN
 62
     7
370
    18
100
AcDbLine
 10
62.2204412514
 20
14.3275862069
 30
0.0
 11
69.7122311316
 21
14.3275862069
 31
0.0
  0
LINE
  5
110
330
1F
100
AcDbEntity
  8
0
  6
HIDDEN
 62
     7
370
    18
100
AcDbLine
 10
65.7586206897
 20
86.7413793103
 30
0.0
 11
65.7586206897
 21
67.0469406466
 31
0.0
  0
LINE
  5
111
330
1F
100
AcDbEntity
  8
0
  6
HIDDEN
 62
     7
370
    18
100
AcDbLine
 10
65.7586206897
 20
48.1599559051
 30
0.0
 11
65.7586206897
 21
14.3275862069
 31
0.0
  0
LINE
  5
112
330
1F
100
AcDbEntity
  8
0
  6
HIDDEN
 62
     7
370
    18
100
AcDbLine
 10
100.2413793103
 20
86.7413793103
 30
0.0
 11
100.2413793103
 21
67.0469406466
 31
0.0
  0
LINE
  5
113
330
1F
100
AcDbEntity
  8
0
  6
HIDDEN
 62
     7
370
    18
100
AcDbLine
 10
100.2413793103
 20
48.1599559051
 30
0.0
 11
100.2413793103
 21
14.3275862069
 31
0.0
  0
LINE
  5
114
330
1F
100
AcDbEntity
  8
0
  6
HIDDEN
 62
     7
370
    18
100
AcDbLine
 10
108.4600116281
 20
97.8620689655
 30
0.0
 11
105.6047745252
 21
97.8620689655
 31
0.0
  0
LINE
  5
115
330
1F
100
AcDbEntity
  8
0
  6
HIDDEN
 62
     7
370
    18
100
AcDbLine
 10
102.2745971765
 20
90.9655172414
 30
0.0
 11
108.4600116281
 21
90.9655172414
 31
0.0
  0
LINE
  5
116
330
1F
100
AcDbEntity
  8
0
  6
HIDDEN
 62
     7
370
    18
100
AcDbLine
 10
57.5399883719
 20
91.1379310345
 30
0.0
 11
63.6421483898
 21
91.1379310345
 31
0.0
  0
LINE
  5
117
330
1F
100
AcDbEntity
  8
0
  6
HIDDEN
 62
     7
370
    18
100
AcDbLine
 10
60.311971041
 20
98.0344827586
 30
0.0
 11
57.5399883719
 21
98.0344827586
 31
0.0
  0
LINE
  5
118
330
1F
100
AcDbEntity
  8
0
  6
HIDDEN
 62
     7
370
    18
100
AcDbLine
 10
108.4600116281
 20
22.8620689655
 30
0.0
 11
100.2348635503
 21
22.8620689655
 31
0.0
  0
LINE
  5
119
330
1F
100
AcDbEntity
  8
0
  6
HIDDEN
 62
     7
370
    18
100
AcDbLine
 10
100.2348635503
 20
15.9655172414
 30
0.0
 11
108.4600116281
 21
15.9655172414
 31
0.0
  0
LINE
  5
11A
330
1F
100
AcDbEntity
  8
0
  6
HIDDEN
 62
     7
370
    18
100
AcDbLine
 10
57.5399883719
 20
16.1379310345
 30
0.0
 11
65.7651364497
 21
16.1379310345
 31
0.0
  0
LINE
  5
11B
330
1F
100
AcDbEntity
  8
0
  6
HIDDEN
 62
     7
370
    18
100
AcDbLine
 10
65.7651364497
 20
23.0344827586
 30
0.0
 11
57.5399883719
 21
23.0344827586
 31
0.0
  0
LINE
  5
11C
330
1F
100
AcDbEntity
  8
0
  6
HIDDEN
 62
     7
370
    18
100
AcDbLine
 10
63.1724137931
 20
50.4425656354
 30
0.0
 11
63.1724137931
 21
14.3275862069
 31
0.0
  0
LINE
  5
11D
330
1F
100
AcDbEntity
  8
0
  6
HIDDEN
 62
     7
370
    18
100
AcDbLine
 10
68.3448275862
 20
14.3275862069
 30
0.0
 11
68.3448275862
 21
46.9402440717
 31
0.0
  0
LINE
  5
11E
330
1F
100
AcDbEntity
  8
0
  6
HIDDEN
 62
     7
370
    18
100
AcDbLine
 10
97.6551724138
 20
86.7413793103
 30
0.0
 11
97.6551724138
 21
68.2666524803
 31
0.0
  0
LINE
  5
11F
330
1F
100
AcDbEntity
  8
0
  6
HIDDEN
 62
     7
370
    18
100
AcDbLine
 10
102.8275862069
 20
64.7643309163
 30
0.0
 11
102.8275862069
 21
86.7413793103
 31
0.0
  0
LINE
  5
120
330
1F
100
AcDbEntity
  8
0
  6
HIDDEN
 62
     7
370
    18
100
AcDbLine
 10
97.6551724138
 20
46.9402440714
 30
0.0
 11
97.6551724138
 21
14.3275862069
 31
0.0
  0
LINE
  5
121
330
1F
100
AcDbEntity
  8
0
  6
HIDDEN
 62
     7
370
    18
100
AcDbLine
 10
102.8275862069
 20
14.3275862069
 30
0.0
 11
102.8275862069
 21
50.4425656354
 31
0.0
  0
LINE
  5
122
330
1F
100
AcDbEntity
  8
0
  6
HIDDEN
 62
     7
370
    18
100
AcDbLine
 10
63.1724137931
 20
86.7413793103
 30
0.0
 11
63.1724137931
 21
64.7643309163
 31
0.0
  0
LINE
  5
123
330
1F
100
AcDbEntity
  8
0
  6
HIDDEN
 62
     7
370
    18
100
AcDbLine
 10
68.3448275862
 20
68.2666524801
 30
0.0
 11
68.3448275862
 21
86.7413793103
 31
0.0
  0
INSERT
  5
12F
330
1F
100
AcDbEntity
  8
10
100
AcDbBlockReference
  2
SW_CENTERMARKSYMBOL_0
 10
49.3793103448
 20
48.8103448276
 30
0.0
  0
INSERT
  5
13B
330
1F
100
AcDbEntity
  8
10
100
AcDbBlockReference
  2
SW_CENTERMARKSYMBOL_1
 10
116.6206896552
 20
48.8103448276
 30
0.0
  0
INSERT
  5
147
330
1F
100
AcDbEntity
  8
10
100
AcDbBlockReference
  2
SW_CENTERMARKSYMBOL_2
 10
116.6206896552
 20
87.6034482759
 30
0.0
  0
INSERT
  5
153
330
1F
100
AcDbEntity
  8
10
100
AcDbBlockReference
  2
SW_CENTERMARKSYMBOL_3
 10
49.3793103448
 20
87.6034482759
 30
0.0
  0
LINE
  5
154
330
1F
100
AcDbEntity
  8
0
  6
Continuous
 62
     7
370
    25
100
AcDbLine
 10
52.3103448276
 20
151.3806804451
 30
0.0
 11
51.275862069
 21
151.3806804451
 31
0.0
  0
LINE
  5
155
330
1F
100
AcDbEntity
  8
0
  6
Continuous
 62
     7
370
    25
100
AcDbLine
 10
59.724137931
 20
157.8226224258
 30
0.0
 11
52.3103448276
 21
151.3806804451
 31
0.0
  0
LINE
  5
156
330
1F
100
AcDbEntity
  8
0
  6
Continuous
 62
     7
370
    25
100
AcDbLine
 10
59.724137931
 20
157.8226224258
 30
0.0
 11
71.4214509753
 21
157.8226224258
 31
0.0
  0
LINE
  5
157
330
1F
100
AcDbEntity
  8
0
  6
Continuous
 62
     7
370
    25
100
AcDbLine
 10
71.8465006346
 20
155.7694157691
 30
0.0
 11
71.4214509753
 21
157.8226224258
 31
0.0
  0
LINE
  5
158
330
1F
100
AcDbEntity
  8
0
  6
Continuous
 62
     7
370
    25
100
AcDbLine
 10
68.890967405
 20
149.4312543045
 30
0.0
 11
71.8465006346
 21
155.7694157691
 31
0.0
  0
ELLIPSE
  5
159
330
1F
100
AcDbEntity
  8
0
  6
Continuous
 62
     7
370
    25
100
AcDbEllipse
 10
62.4228907816
 20
149.4312560899
 30
0.0
 11
6.463615543360099
 21
4.465626426929646
 31
0.0
210
0.0
220
0.0
230
1.0
 40
0.6361536344
 41
3.885769671242014
 42
5.456565703920655
  0
LINE
  5
15A
330
1F
100
AcDbEntity
  8
0
  6
Continuous
 62
     7
370
    25
100
AcDbLine
 10
59.5922400351
 20
143.3609059746
 30
0.0
 11
56.3134839576
 21
143.3609059746
 31
0.0
  0
ELLIPSE
  5
15B
330
1F
100
AcDbEntity
  8
0
  6
Continuous
 62
     7
370
    25
100
AcDbEllipse
 10
60.2264423424
 20
151.7522723104
 30
0.0
 11
8.934997956997545
 21
6.17307182546074
 31
0.0
210
0.0
220
0.0
230
1.0
 40
0.6361536344
 41
3.274904433045435
 42
3.885769671243147
  0
LINE
  5
15C
330
1F
100
AcDbEntity
  8
0
  6
Continuous
 62
     7
370
    25
100
AcDbLine
 10
51.8926924114
 20
144.878467422
 30
0.0
 11
49.4112758368
 21
147.2296025763
 31
0.0
  0
LINE
  5
15D
330
1F
100
AcDbEntity
  8
0
  6
Continuous
 62
     7
370
    25
100
AcDbLine
 10
49.4112758368
 20
147.2296025763
 30
0.0
 11
40.3406562511
 21
150.666521608
 31
0.0
  0
LINE
  5
15E
330
1F
100
AcDbEntity
  8
0
  6
Continuous
 62
     7
370
    25
100
AcDbLine
 10
51.275862069
 20
150.666521608
 30
0.0
 11
40.3406562511
 21
150.666521608
 31
0.0
  0
ELLIPSE
  5
15F
330
1F
100
AcDbEntity
  8
0
  6
Continuous
 62
     7
370
    25
100
AcDbEllipse
 10
61.9770597154
 20
149.6990656538
 30
0.0
 11
3.802126790211659
 21
2.626839074663934
 31
0.0
210
0.0
220
0.0
230
1.0
 40
0.6361536344
 41
0.0
 42
6.283185307179586
  0
LINE
  5
160
330
1F
100
AcDbEntity
  8
0
  6
Continuous
 62
     7
370
    25
100
AcDbLine
 10
51.1031477866
 20
143.1852835101
 30
0.0
 11
55.3156183321
 21
141.220976235
 31
0.0
  0
LINE
  5
161
330
1F
100
AcDbEntity
  8
0
  6
Continuous
 62
     7
370
    25
100
AcDbLine
 10
63.3216070134
 20
137.4877224018
 30
0.0
 11
68.890967405
 21
149.4312543045
 31
0.0
  0
LINE
  5
162
330
1F
100
AcDbEntity
  8
0
  6
Continuous
 62
     7
370
    25
100
AcDbLine
 10
58.0087682618
 20
139.9651397982
 30
0.0
 11
63.3216070134
 21
137.4877224018
 31
0.0
  0
LINE
  5
163
330
1F
100
AcDbEntity
  8
0
  6
Continuous
 62
     7
370
    25
100
AcDbLine
 10
58.0087682618
 20
139.9651397982
 30
0.0
 11
55.3156183321
 21
141.220976235
 31
0.0
  0
LINE
  5
164
330
1F
100
AcDbEntity
  8
0
  6
Continuous
 62
     7
370
    25
100
AcDbLine
 10
114.0240531549
 20
145.0570071313
 30
0.0
 11
116.5054697295
 21
147.4081422856
 31
0.0
  0
ELLIPSE
  5
165
330
1F
100
AcDbEntity
  8
0
  6
Continuous
 62
     7
370
    25
100
AcDbEllipse
 10
105.6903032239
 20
151.9308120197
 30
0.0
 11
8.934997956997535
 21
-6.17307182546071
 31
0.0
210
0.0
220
0.0
230
1.0
 40
0.6361536344
 41
5.539008289526067
 42
6.149873527724137
  0
LINE
  5
166
330
1F
100
AcDbEntity
  8
0
  6
Continuous
 62
     7
370
    25
100
AcDbLine
 10
106.3245055312
 20
143.5394456838
 30
0.0
 11
109.6032616087
 21
143.5394456838
 31
0.0
  0
ELLIPSE
  5
167
330
1F
100
AcDbEntity
  8
0
  6
Continuous
 62
     7
370
    25
100
AcDbEllipse
 10
103.4938547847
 20
149.6097957992
 30
0.0
 11
6.463615543360109
 21
-4.465626426929618
 31
0.0
210
0.0
220
0.0
230
1.0
 40
0.6361536344
 41
3.968211962731197
 42
5.539008289526324
  0
LINE
  5
168
330
1F
100
AcDbEntity
  8
0
  6
Continuous
 62
     7
370
    25
100
AcDbLine
 10
97.0257773287
 20
149.6097957992
 30
0.0
 11
94.0702449317
 21
155.9479554784
 31
0.0
  0
LINE
  5
169
330
1F
100
AcDbEntity
  8
0
  6
Continuous
 62
     7
370
    25
100
AcDbLine
 10
94.0702449317
 20
155.9479554784
 30
0.0
 11
94.4583337511
 21
157.8226224258
 31
0.0
  0
LINE
  5
16A
330
1F
100
AcDbEntity
  8
0
  6
Continuous
 62
     7
370
    25
100
AcDbLine
 10
94.4583337511
 20
157.8226224258
 30
0.0
 11
106.275862069
 21
157.8226224258
 31
0.0
  0
LINE
  5
16B
330
1F
100
AcDbEntity
  8
0
  6
Continuous
 62
     7
370
    25
100
AcDbLine
 10
113.6729533333
 20
151.3951928919
 30
0.0
 11
106.275862069
 21
157.8226224258
 31
0.0
  0
LINE
  5
16C
330
1F
100
AcDbEntity
  8
0
  6
Continuous
 62
     7
370
    25
100
AcDbLine
 10
114.707436092
 20
151.3951928919
 30
0.0
 11
113.6729533333
 21
151.3951928919
 31
0.0
  0
LINE
  5
16D
330
1F
100
AcDbEntity
  8
0
  6
Continuous
 62
     7
370
    25
100
AcDbLine
 10
125.1431931994
 20
150.6810340548
 30
0.0
 11
114.707436092
 21
150.6810340548
 31
0.0
  0
LINE
  5
16E
330
1F
100
AcDbEntity
  8
0
  6
Continuous
 62
     7
370
    25
100
AcDbLine
 10
116.5054697295
 20
147.4081422856
 30
0.0
 11
125.1431931994
 21
150.6810340548
 31
0.0
  0
ELLIPSE
  5
16F
330
1F
100
AcDbEntity
  8
0
  6
Continuous
 62
     7
370
    25
100
AcDbEllipse
 10
103.9396858508
 20
149.8776053631
 30
0.0
 11
3.802126790211673
 21
-2.626839074663934
 31
0.0
210
0.0
220
0.0
230
1.0
 40
0.6361536344
 41
0.0
 42
6.283185307179586
  0
LINE
  5
170
330
1F
100
AcDbEntity
  8
0
  6
Continuous
 62
     7
370
    25
100
AcDbLine
 10
110.6843816679
 20
141.220976235
 30
0.0
 11
114.8968522134
 21
143.1852835101
 31
0.0
  0
LINE
  5
171
330
1F
100
AcDbEntity
  8
0
  6
Continuous
 62
     7
370
    25
100
AcDbLine
 10
102.6783929866
 20
137.4877224018
 30
0.0
 11
107.9912317382
 21
139.9651397982
 31
0.0
  0
LINE
  5
172
330
1F
100
AcDbEntity
  8
0
  6
Continuous
 62
     7
370
    25
100
AcDbLine
 10
102.6783929866
 20
137.4877224018
 30
0.0
 11
97.0257773287
 21
149.6097957992
 31
0.0
  0
LINE
  5
173
330
1F
100
AcDbEntity
  8
0
  6
Continuous
 62
     7
370
    25
100
AcDbLine
 10
107.9912317382
 20
139.9651397982
 30
0.0
 11
110.6843816679
 21
141.220976235
 31
0.0
  0
LINE
  5
174
330
1F
100
AcDbEntity
  8
0
  6
Continuous
 62
     7
370
    25
100
AcDbLine
 10
48.164390575
 20
144.5556485033
 30
0.0
 11
49.4112758368
 21
147.2296025763
 31
0.0
  0
LINE
  5
175
330
1F
100
AcDbEntity
  8
0
  6
Continuous
 62
     7
370
    25
100
AcDbLine
 10
51.1031477866
 20
143.1852835101
 30
0.0
 11
48.164390575
 21
144.5556485033
 31
0.0
  0
LINE
  5
176
330
1F
100
AcDbEntity
  8
0
  6
Continuous
 62
     7
370
    25
100
AcDbLine
 10
117.835609425
 20
144.5556485033
 30
0.0
 11
116.5054697295
 21
147.4081422856
 31
0.0
  0
LINE
  5
177
330
1F
100
AcDbEntity
  8
0
  6
Continuous
 62
     7
370
    25
100
AcDbLine
 10
114.8968522134
 20
143.1852835101
 30
0.0
 11
117.835609425
 21
144.5556485033
 31
0.0
  0
LINE
  5
178
330
1F
100
AcDbEntity
  8
0
  6
Continuous
 62
     7
370
    25
100
AcDbLine
 10
40.0146285159
 20
150.0640017361
 30
0.0
 11
39.7332359636
 21
149.4605534603
 31
0.0
  0
LINE
  5
179
330
1F
100
AcDbEntity
  8
0
  6
Continuous
 62
     7
370
    25
100
AcDbLine
 10
40.3406562511
 20
150.666521608
 30
0.0
 11
40.0596966206
 21
150.0640017361
 31
0.0
  0
LINE
  5
17A
330
1F
100
AcDbEntity
  8
0
  6
Continuous
 62
     7
370
    25
100
AcDbLine
 10
48.164390575
 20
144.5556485033
 30
0.0
 11
37.6457879505
 21
149.4605534603
 31
0.0
  0
LINE
  5
17B
330
1F
100
AcDbEntity
  8
0
  6
Continuous
 62
     7
370
    25
100
AcDbLine
 10
125.1431931994
 20
150.6810340548
 30
0.0
 11
125.7123126473
 21
149.4605534603
 31
0.0
  0
LINE
  5
17C
330
1F
100
AcDbEntity
  8
0
  6
Continuous
 62
     7
370
    25
100
AcDbLine
 10
117.835609425
 20
144.5556485033
 30
0.0
 11
128.3542120495
 21
149.4605534603
 31
0.0
  0
LINE
  5
17D
330
1F
100
AcDbEntity
  8
0
  6
Continuous
 62
     7
370
    25
100
AcDbLine
 10
33.0
 20
150.0640017361
 30
0.0
 11
40.0596966206
 21
150.0640017361
 31
0.0
  0
LINE
  5
17E
330
1F
100
AcDbEntity
  8
0
  6
Continuous
 62
     7
370
    25
100
AcDbLine
 10
51.275862069
 20
178.5122775982
 30
0.0
 11
51.275862069
 21
150.666521608
 31
0.0
  0
LINE
  5
17F
330
1F
100
AcDbEntity
  8
0
  6
Continuous
 62
     7
370
    25
100
AcDbLine
 10
33.0
 20
178.5122775982
 30
0.0
 11
33.0
 21
150.0640017361
 31
0.0
  0
LINE
  5
180
330
1F
100
AcDbEntity
  8
0
  6
Continuous
 62
     7
370
    25
100
AcDbLine
 10
51.275862069
 20
178.5122775982
 30
0.0
 11
33.0
 21
178.5122775982
 31
0.0
  0
LINE
  5
181
330
1F
100
AcDbEntity
  8
0
  6
Continuous
 62
     7
370
    25
100
AcDbLine
 10
133.0
 20
147.4777948396
 30
0.0
 11
129.9827586207
 21
147.4777948396
 31
0.0
  0
LINE
  5
182
330
1F
100
AcDbEntity
  8
0
  6
Continuous
 62
     7
370
    25
100
AcDbLine
 10
129.9827586207
 20
147.4777948396
 30
0.0
 11
129.0581830916
 21
149.4605534603
 31
0.0
  0
LINE
  5
183
330
1F
100
AcDbEntity
  8
0
  6
Continuous
 62
     7
370
    25
100
AcDbLine
 10
129.0581830916
 20
149.4605534603
 30
0.0
 11
125.7123126473
 21
149.4605534603
 31
0.0
  0
LINE
  5
184
330
1F
100
AcDbEntity
  8
0
  6
Continuous
 62
     7
370
    25
100
AcDbLine
 10
114.707436092
 20
178.5122775982
 30
0.0
 11
114.707436092
 21
150.6810340548
 31
0.0
  0
LINE
  5
185
330
1F
100
AcDbEntity
  8
0
  6
Continuous
 62
     7
370
    25
100
AcDbLine
 10
133.0
 20
147.4777948396
 30
0.0
 11
133.0
 21
178.5122775982
 31
0.0
  0
LINE
  5
186
330
1F
100
AcDbEntity
  8
0
  6
Continuous
 62
     7
370
    25
100
AcDbLine
 10
114.707436092
 20
178.5122775982
 30
0.0
 11
133.0
 21
178.5122775982
 31
0.0
  0
LINE
  5
187
330
1F
100
AcDbEntity
  8
0
  6
Continuous
 62
     7
370
    25
100
AcDbLine
 10
36.9418169084
 20
149.4605534603
 30
0.0
 11
39.7332359636
 21
149.4605534603
 31
0.0
  0
LINE
  5
188
330
1F
100
AcDbEntity
  8
0
  6
Continuous
 62
     7
370
    25
100
AcDbLine
 10
36.0172413793
 20
147.4777948396
 30
0.0
 11
36.9418169084
 21
149.4605534603
 31
0.0
  0
LINE
  5
189
330
1F
100
AcDbEntity
  8
0
  6
Continuous
 62
     7
370
    25
100
AcDbLine
 10
33.0
 20
147.4777948396
 30
0.0
 11
36.0172413793
 21
147.4777948396
 31
0.0
  0
LINE
  5
18A
330
1F
100
AcDbEntity
  8
0
  6
Continuous
 62
     7
370
    25
100
AcDbLine
 10
33.0
 20
150.0640017361
 30
0.0
 11
33.0
 21
147.4777948396
 31
0.0
  0
LINE
  5
18B
330
1F
100
AcDbEntity
  8
0
  6
Continuous
 62
     7
370
    25
100
AcDbLine
 10
59.724137931
 20
178.5122775982
 30
0.0
 11
59.724137931
 21
157.8226224258
 31
0.0
  0
LINE
  5
18C
330
1F
100
AcDbEntity
  8
0
  6
Continuous
 62
     7
370
    25
100
AcDbLine
 10
52.3103448276
 20
178.5122775982
 30
0.0
 11
52.3103448276
 21
151.3806804451
 31
0.0
  0
LINE
  5
18D
330
1F
100
AcDbEntity
  8
0
  6
Continuous
 62
     7
370
    25
100
AcDbLine
 10
59.724137931
 20
178.5122775982
 30
0.0
 11
52.3103448276
 21
178.5122775982
 31
0.0
  0
LINE
  5
18E
330
1F
100
AcDbEntity
  8
0
  6
Continuous
 62
     7
370
    25
100
AcDbLine
 10
51.275862069
 20
178.5122775982
 30
0.0
 11
52.3103448276
 21
178.5122775982
 31
0.0
  0
LINE
  5
18F
330
1F
100
AcDbEntity
  8
0
  6
Continuous
 62
     7
370
    25
100
AcDbLine
 10
113.6729533333
 20
178.5122775982
 30
0.0
 11
113.6729533333
 21
151.3951928919
 31
0.0
  0
LINE
  5
190
330
1F
100
AcDbEntity
  8
0
  6
Continuous
 62
     7
370
    25
100
AcDbLine
 10
114.707436092
 20
178.5122775982
 30
0.0
 11
113.6729533333
 21
178.5122775982
 31
0.0
  0
LINE
  5
191
330
1F
100
AcDbEntity
  8
0
  6
Continuous
 62
     7
370
    25
100
AcDbLine
 10
106.275862069
 20
178.5122775982
 30
0.0
 11
106.275862069
 21
157.8226224258
 31
0.0
  0
LINE
  5
192
330
1F
100
AcDbEntity
  8
0
  6
Continuous
 62
     7
370
    25
100
AcDbLine
 10
106.275862069
 20
178.5122775982
 30
0.0
 11
113.6729533333
 21
178.5122775982
 31
0.0
  0
LINE
  5
193
330
1F
100
AcDbEntity
  8
0
  6
Continuous
 62
     7
370
    25
100
AcDbLine
 10
71.4214509753
 20
157.8226224258
 30
0.0
 11
94.4583337511
 21
157.8226224258
 31
0.0
  0
LINE
  5
194
330
1F
100
AcDbEntity
  8
0
  6
Continuous
 62
     7
370
    25
100
AcDbLine
 10
65.7586206897
 20
164.099631375
 30
0.0
 11
63.8982591371
 21
166.0260921573
 31
0.0
  0
LINE
  5
195
330
1F
100
AcDbEntity
  8
0
  6
Continuous
 62
     7
370
    25
100
AcDbLine
 10
65.7586206897
 20
164.099631375
 30
0.0
 11
67.6189822423
 21
166.0260921573
 31
0.0
  0
ARC
  5
196
330
1F
100
AcDbEntity
  8
0
  6
Continuous
 62
     7
370
    25
100
AcDbCircle
 10
65.7586206897
 20
167.8226224258
 30
0.0
 40
2.586206896551159
100
AcDbArc
 50
316.0
 51
224.0000000002
  0
LINE
  5
197
330
1F
100
AcDbEntity
  8
0
  6
Continuous
 62
     7
370
    25
100
AcDbLine
 10
100.2413793103
 20
164.099631375
 30
0.0
 11
98.3810177577
 21
166.0260921573
 31
0.0
  0
LINE
  5
198
330
1F
100
AcDbEntity
  8
0
  6
Continuous
 62
     7
370
    25
100
AcDbLine
 10
100.2413793103
 20
164.099631375
 30
0.0
 11
102.1017408629
 21
166.0260921573
 31
0.0
  0
ARC
  5
199
330
1F
100
AcDbEntity
  8
0
  6
Continuous
 62
     7
370
    25
100
AcDbCircle
 10
100.2413793103
 20
167.8226224258
 30
0.0
 40
2.586206896551159
100
AcDbArc
 50
316.0
 51
224.0
  0
LINE
  5
19A
330
1F
100
AcDbEntity
  8
0
  6
Continuous
 62
     7
370
    25
100
AcDbLine
 10
59.724137931
 20
178.5122775982
 30
0.0
 11
106.275862069
 21
178.5122775982
 31
0.0
  0
LINE
  5
19B
330
1F
100
AcDbEntity
  8
0
  6
Continuous
 62
     7
370
    25
100
AcDbLine
 10
71.8465006346
 20
155.7694157691
 30
0.0
 11
72.8039266224
 21
157.8226224258
 31
0.0
  0
LINE
  5
19C
330
1F
100
AcDbEntity
  8
0
  6
Continuous
 62
     7
370
    25
100
AcDbLine
 10
94.0702449317
 20
155.9479554784
 30
0.0
 11
93.1960733776
 21
157.8226224258
 31
0.0
  0
LINE
  5
19D
330
1F
100
AcDbEntity
  8
0
  6
HIDDEN
 62
     7
370
    18
100
AcDbLine
 10
121.7931034483
 20
171.615725874
 30
0.0
 11
111.4482758621
 21
171.615725874
 31
0.0
  0
LINE
  5
19E
330
1F
100
AcDbEntity
  8
0
  6
HIDDEN
 62
     7
370
    18
100
AcDbLine
 10
54.5517241379
 20
171.615725874
 30
0.0
 11
44.2068965517
 21
171.615725874
 31
0.0
  0
LINE
  5
19F
330
1F
100
AcDbEntity
  8
0
  6
HIDDEN
 62
     7
370
    18
100
AcDbLine
 10
111.6491178844
 20
157.8226224258
 30
0.0
 11
106.275862069
 21
157.8226224258
 31
0.0
  0
LINE
  5
1A0
330
1F
100
AcDbEntity
  8
0
  6
HIDDEN
 62
     7
370
    18
100
AcDbLine
 10
54.3508821156
 20
157.8226224258
 30
0.0
 11
59.724137931
 21
157.8226224258
 31
0.0
  0
LINE
  5
1A1
330
1F
100
AcDbEntity
  8
0
  6
HIDDEN
 62
     7
370
    18
100
AcDbLine
 10
49.4112758368
 20
147.2296025763
 30
0.0
 11
54.3508821156
 21
157.8226224258
 31
0.0
  0
LINE
  5
1A2
330
1F
100
AcDbEntity
  8
0
  6
HIDDEN
 62
     7
370
    18
100
AcDbLine
 10
116.5054697295
 20
147.4081422856
 30
0.0
 11
111.6491178844
 21
157.8226224258
 31
0.0
  0
ELLIPSE
  5
1A3
330
1F
100
AcDbEntity
  8
0
  6
HIDDEN
 62
     7
370
    18
100
AcDbEllipse
 10
49.3793103448
 20
142.5206076039
 30
0.0
 11
4.426002366137568
 21
13.49384094765668
 31
0.0
210
0.0
220
0.0
230
1.0
 40
0.1983596534
 41
4.783103838256512
 42
6.382780150173337
  0
ELLIPSE
  5
1A4
330
1F
100
AcDbEntity
  8
0
  6
HIDDEN
 62
     7
370
    18
100
AcDbEllipse
 10
116.6206896552
 20
142.7784100903
 30
0.0
 11
-4.426002366138519
 21
13.49384094765995
 31
0.0
210
0.0
220
0.0
230
1.0
 40
0.1983596534
 41
6.22463693959721
 42
7.799894715107867
  0
LINE
  5
1A5
330
1F
100
AcDbEntity
  8
0
  6
HIDDEN
 62
     7
370
    18
100
AcDbLine
 10
39.7332359636
 20
149.4605534603
 30
0.0
 11
50.4515853189
 21
149.4605534603
 31
0.0
  0
LINE
  5
1A6
330
1F
100
AcDbEntity
  8
0
  6
HIDDEN
 62
     7
370
    18
100
AcDbLine
 10
115.5484146811
 20
149.4605534603
 30
0.0
 11
125.7123126473
 21
149.4605534603
 31
0.0
  0
LINE
  5
1A7
330
1F
100
AcDbEntity
  8
0
  6
HIDDEN
 62
     7
370
    18
100
AcDbLine
 10
70.9832379466
 20
160.5483053366
 30
0.0
 11
69.7122311316
 21
157.8226224258
 31
0.0
  0
ELLIPSE
  5
1A8
330
1F
100
AcDbEntity
  8
0
  6
HIDDEN
 62
     7
370
    18
100
AcDbEllipse
 10
115.5867781253
 20
263.4415804198
 30
0.0
 11
53.95732283330067
 21
115.4136132510687
 31
0.0
210
0.0
220
0.0
230
1.0
 40
0.0460011609
 41
3.163095462977662
 42
3.636769345097552
  0
LINE
  5
1A9
330
1F
100
AcDbEntity
  8
0
  6
HIDDEN
 62
     7
370
    18
100
AcDbLine
 10
50.4515853189
 20
149.4605534603
 30
0.0
 11
54.0293542213
 21
149.4605534603
 31
0.0
  0
LINE
  5
1AA
330
1F
100
AcDbEntity
  8
0
  6
HIDDEN
 62
     7
370
    18
100
AcDbLine
 10
111.9706457787
 20
149.4605534603
 30
0.0
 11
115.5484146811
 21
149.4605534603
 31
0.0
  0
LINE
  5
1AB
330
1F
100
AcDbEntity
  8
0
  6
HIDDEN
 62
     7
370
    18
100
AcDbLine
 10
55.1447303096
 20
149.4605534603
 30
0.0
 11
54.0293542213
 21
149.4605534603
 31
0.0
  0
LINE
  5
1AC
330
1F
100
AcDbEntity
  8
0
  6
HIDDEN
 62
     7
370
    18
100
AcDbLine
 10
111.2135303135
 20
149.4605534603
 30
0.0
 11
111.9706457787
 21
149.4605534603
 31
0.0
  0
LINE
  5
1AD
330
1F
100
AcDbEntity
  8
0
  6
HIDDEN
 62
     7
370
    18
100
AcDbLine
 10
104.0738318049
 20
164.7716863222
 30
0.0
 11
111.2135303135
 21
149.4605534603
 31
0.0
  0
LINE
  5
1AE
330
1F
100
AcDbEntity
  8
0
  6
HIDDEN
 62
     7
370
    18
100
AcDbLine
 10
62.2204412514
 20
164.6344645424
 30
0.0
 11
55.1447303096
 21
149.4605534603
 31
0.0
  0
LINE
  5
1AF
330
1F
100
AcDbEntity
  8
0
  6
HIDDEN
 62
     7
370
    18
100
AcDbLine
 10
94.7762682548
 20
160.4361612365
 30
0.0
 11
95.9949814171
 21
157.8226224258
 31
0.0
  0
LINE
  5
1B0
330
1F
100
AcDbEntity
  8
0
  6
HIDDEN
 62
     7
370
    18
100
AcDbLine
 10
62.2204412514
 20
164.6344645424
 30
0.0
 11
70.9832379466
 21
160.5483053366
 31
0.0
  0
LINE
  5
1B1
330
1F
100
AcDbEntity
  8
0
  6
HIDDEN
 62
     7
370
    18
100
AcDbLine
 10
94.7762682548
 20
160.4361612365
 30
0.0
 11
104.0738318049
 21
164.7716863222
 31
0.0
  0
ELLIPSE
  5
1B2
330
1F
100
AcDbEntity
  8
0
  6
HIDDEN
 62
     7
370
    18
100
AcDbEllipse
 10
34.6929087383
 20
304.1852158323
 30
0.0
 11
-74.58806391661653
 21
159.5423477294078
 31
0.0
210
0.0
220
0.0
230
1.0
 40
0.0460011609
 41
3.120089844201978
 42
3.628162853576449
  0
ELLIPSE
  5
1B3
330
1F
100
AcDbEntity
  8
0
  6
HIDDEN
 62
     7
370
    18
100
AcDbEllipse
 10
51.9964776425
 20
260.0462774687
 30
0.0
 11
-53.95732283329997
 21
115.4136132510673
 31
0.0
210
0.0
220
0.0
230
1.0
 40
0.0460011609
 41
2.587688644714604
 42
3.120089844203125
  0
ELLIPSE
  5
1B4
330
1F
100
AcDbEntity
  8
0
  6
HIDDEN
 62
     7
370
    18
100
AcDbEllipse
 10
132.8903470296
 20
307.5805187833
 30
0.0
 11
74.58806391661653
 21
159.5423477294078
 31
0.0
210
0.0
220
0.0
230
1.0
 40
0.0460011609
 41
2.702673655909592
 42
3.163095462978172
  0
LINE
  5
1B5
330
1F
100
AcDbEntity
  8
0
  6
HIDDEN
 62
     7
370
    18
100
AcDbLine
 10
58.4773259417
 20
148.0012800843
 30
0.0
 11
61.7560820192
 21
148.0012800843
 31
0.0
  0
LINE
  5
1B6
330
1F
100
AcDbEntity
  8
0
  6
HIDDEN
 62
     7
370
    18
100
AcDbLine
 10
109.1059298261
 20
144.6059771333
 30
0.0
 11
105.8271737486
 21
144.6059771333
 31
0.0
  0
LINE
  5
1B7
330
1F
100
AcDbEntity
  8
0
  6
HIDDEN
 62
     7
370
    18
100
AcDbLine
 10
60.6651876376
 20
138.7264311
 30
0.0
 11
65.7818111601
 21
149.6990656538
 31
0.0
  0
LINE
  5
1B8
330
1F
100
AcDbEntity
  8
0
  6
HIDDEN
 62
     7
370
    18
100
AcDbLine
 10
58.1723082707
 20
149.6990656538
 30
0.0
 11
54.4147891063
 21
141.6410398017
 31
0.0
  0
LINE
  5
1B9
330
1F
100
AcDbEntity
  8
0
  6
HIDDEN
 62
     7
370
    18
100
AcDbLine
 10
111.5852108937
 20
141.6410398017
 30
0.0
 11
107.7444372955
 21
149.8776053631
 31
0.0
  0
LINE
  5
1BA
330
1F
100
AcDbEntity
  8
0
  6
HIDDEN
 62
     7
370
    18
100
AcDbLine
 10
100.1349344062
 20
149.8776053631
 30
0.0
 11
105.3348123624
 21
138.7264311
 31
0.0
  0
LINE
  5
1BB
330
1F
100
AcDbEntity
  8
0
  6
HIDDEN
 62
     7
370
    18
100
AcDbLine
 10
111.4482758621
 20
171.615725874
 30
0.0
 11
111.4482758621
 21
141.5771859478
 31
0.0
  0
LINE
  5
1BC
330
1F
100
AcDbEntity
  8
0
  6
HIDDEN
 62
     7
370
    18
100
AcDbLine
 10
121.7931034483
 20
146.4010582735
 30
0.0
 11
121.7931034483
 21
171.615725874
 31
0.0
  0
LINE
  5
1BD
330
1F
100
AcDbEntity
  8
0
  6
HIDDEN
 62
     7
370
    18
100
AcDbLine
 10
44.2068965517
 20
171.615725874
 30
0.0
 11
44.2068965517
 21
146.4010582735
 31
0.0
  0
LINE
  5
1BE
330
1F
100
AcDbEntity
  8
0
  6
HIDDEN
 62
     7
370
    18
100
AcDbLine
 10
54.5517241379
 20
141.5771859478
 30
0.0
 11
54.5517241379
 21
171.615725874
 31
0.0
  0
LINE
  5
1BF
330
1F
100
AcDbEntity
  8
0
  6
HIDDEN
 62
     7
370
    18
100
AcDbLine
 10
46.3620689655
 20
178.5122775982
 30
0.0
 11
46.3620689655
 21
171.615725874
 31
0.0
  0
LINE
  5
1C0
330
1F
100
AcDbEntity
  8
0
  6
HIDDEN
 62
     7
370
    18
100
AcDbLine
 10
52.3965517241
 20
171.615725874
 30
0.0
 11
52.3965517241
 21
178.5122775982
 31
0.0
  0
LINE
  5
1C1
330
1F
100
AcDbEntity
  8
0
  6
HIDDEN
 62
     7
370
    18
100
AcDbLine
 10
113.6034482759
 20
178.5122775982
 30
0.0
 11
113.6034482759
 21
171.615725874
 31
0.0
  0
LINE
  5
1C2
330
1F
100
AcDbEntity
  8
0
  6
HIDDEN
 62
     7
370
    18
100
AcDbLine
 10
119.6379310345
 20
171.615725874
 30
0.0
 11
119.6379310345
 21
178.5122775982
 31
0.0
  0
LINE
  5
1C3
330
1F
100
AcDbEntity
  8
0
  6
HIDDEN
 62
     7
370
    18
100
AcDbLine
 10
60.5862068966
 20
178.5122775982
 30
0.0
 11
60.5862068966
 21
157.8226224258
 31
0.0
  0
LINE
  5
1C4
330
1F
100
AcDbEntity
  8
0
  6
HIDDEN
 62
     7
370
    18
100
AcDbLine
 10
105.4137931034
 20
157.8226224258
 30
0.0
 11
105.4137931034
 21
178.5122775982
 31
0.0
  0
LINE
  5
1C5
330
1F
100
AcDbEntity
  8
0
  6
HIDDEN
 62
     7
370
    18
100
AcDbLine
 10
65.7818111601
 20
149.6990656538
 30
0.0
 11
69.5698878944
 21
157.8226224258
 31
0.0
  0
LINE
  5
1C6
330
1F
100
AcDbEntity
  8
0
  6
HIDDEN
 62
     7
370
    18
100
AcDbLine
 10
61.960385005
 20
157.8226224258
 30
0.0
 11
58.1723082707
 21
149.6990656538
 31
0.0
  0
LINE
  5
1C7
330
1F
100
AcDbEntity
  8
0
  6
HIDDEN
 62
     7
370
    18
100
AcDbLine
 10
107.7444372955
 20
149.8776053631
 30
0.0
 11
104.039614995
 21
157.8226224258
 31
0.0
  0
LINE
  5
1C8
330
1F
100
AcDbEntity
  8
0
  6
HIDDEN
 62
     7
370
    18
100
AcDbLine
 10
96.4301121056
 20
157.8226224258
 30
0.0
 11
100.1349344062
 21
149.8776053631
 31
0.0
  0
LINE
  5
1C9
330
1F
100
AcDbEntity
  8
0
  6
Continuous
 62
     7
370
    25
100
AcDbLine
 10
212.4777948396
 20
14.3275862069
 30
0.0
 11
212.4777948396
 21
93.6379310345
 31
0.0
  0
LINE
  5
1CA
330
1F
100
AcDbEntity
  8
0
  6
Continuous
 62
     7
370
    25
100
AcDbLine
 10
243.5122775982
 20
14.3275862069
 30
0.0
 11
212.4777948396
 21
14.3275862069
 31
0.0
  0
LINE
  5
1CB
330
1F
100
AcDbEntity
  8
0
  6
Continuous
 62
     7
370
    25
100
AcDbLine
 10
212.4777948396
 20
93.6379310345
 30
0.0
 11
243.5122775982
 21
93.6379310345
 31
0.0
  0
LINE
  5
1CC
330
1F
100
AcDbEntity
  8
0
  6
Continuous
 62
     7
370
    25
100
AcDbLine
 10
243.5122775982
 20
93.6379310345
 30
0.0
 11
243.5122775982
 21
14.3275862069
 31
0.0
  0
LINE
  5
1CD
330
1F
100
AcDbEntity
  8
0
  6
Continuous
 62
     7
370
    25
100
AcDbLine
 10
209.5556485033
 20
96.7985258772
 30
0.0
 11
213.4486472821
 21
93.6379310345
 31
0.0
  0
LINE
  5
1CE
330
1F
100
AcDbEntity
  8
0
  6
Continuous
 62
     7
370
    25
100
AcDbLine
 10
209.5556485033
 20
96.7985258772
 30
0.0
 11
212.4081422856
 21
96.7985258772
 31
0.0
  0
LINE
  5
1CF
330
1F
100
AcDbEntity
  8
0
  6
Continuous
 62
     7
370
    25
100
AcDbLine
 10
212.4081422856
 20
96.7985258772
 30
0.0
 11
215.6810340548
 21
93.6379310345
 31
0.0
  0
LINE
  5
1D0
330
1F
100
AcDbEntity
  8
0
  6
Continuous
 62
     7
370
    25
100
AcDbLine
 10
204.9651397982
 20
100.5344827586
 30
0.0
 11
206.220976235
 21
100.5344827586
 31
0.0
  0
ARC
  5
1D1
330
1F
100
AcDbEntity
  8
0
  6
Continuous
 62
     7
370
    25
100
AcDbCircle
 10
205.8872736025
 20
98.0379973539
 30
0.0
 40
2.518689505039859
100
AcDbArc
 50
24.1632065421
 51
82.3864628078
  0
LINE
  5
1D2
330
1F
100
AcDbEntity
  8
0
  6
Continuous
 62
     7
370
    25
100
AcDbLine
 10
208.1852835101
 20
99.0689907037
 30
0.0
 11
209.5556485033
 21
96.7985258772
 31
0.0
  0
LINE
  5
1D3
330
1F
100
AcDbEntity
  8
0
  6
Continuous
 62
     7
370
    25
100
AcDbLine
 10
209.5556485033
 20
17.0290603298
 30
0.0
 11
212.4777948396
 21
19.4014527102
 31
0.0
  0
LINE
  5
1D4
330
1F
100
AcDbEntity
  8
0
  6
Continuous
 62
     7
370
    25
100
AcDbLine
 10
208.1852835101
 20
14.7585955032
 30
0.0
 11
209.5556485033
 21
17.0290603298
 31
0.0
  0
ARC
  5
1D5
330
1F
100
AcDbEntity
  8
0
  6
Continuous
 62
     7
370
    25
100
AcDbCircle
 10
205.8872736025
 20
15.789588853
 30
0.0
 40
2.518689505100995
100
AcDbArc
 50
277.6135371931
 51
335.8367934575
  0
LINE
  5
1D6
330
1F
100
AcDbEntity
  8
0
  6
Continuous
 62
     7
370
    25
100
AcDbLine
 10
204.9651397982
 20
13.2931034483
 30
0.0
 11
206.220976235
 21
13.2931034483
 31
0.0
  0
LWPOLYLINE
  5
1D7
330
1F
100
AcDbEntity
  8
0
  6
Continuous
 62
     7
370
    25
100
AcDbPolyline
 90
       12
 70
   128
 43
0.0
 10
204.9651397982
 20
13.2931034483
 10
204.6125666077
 20
13.3527708356
 10
204.2671707879
 20
13.5305583422
 10
203.9359835991
 20
13.8228467284
 10
203.6257470548
 20
14.2236858479
 10
203.342776674
 20
14.7249157751
 10
203.0928329157
 20
15.3163329179
 10
202.8810039119
 20
15.9858977333
 10
202.7116018887
 20
16.7199798177
 10
202.5880753816
 20
17.5036353822
 10
202.512939033
 20
18.3209114656
 10
202.4877224018
 20
19.1551706897
  0
LINE
  5
1D8
330
1F
100
AcDbEntity
  8
0
  6
Continuous
 62
     7
370
    25
100
AcDbLine
 10
202.4877224018
 20
19.1551706897
 30
0.0
 11
202.4877224018
 21
25.275862069
 31
0.0
  0
LINE
  5
1D9
330
1F
100
AcDbEntity
  8
0
  6
Continuous
 62
     7
370
    25
100
AcDbLine
 10
202.4877224018
 20
25.275862069
 30
0.0
 11
207.6312381302
 21
44.5355150756
 31
0.0
  0
ELLIPSE
  5
1DA
330
1F
100
AcDbEntity
  8
0
  6
Continuous
 62
     7
370
    25
100
AcDbEllipse
 10
208.9891221106
 20
48.8103448276
 30
0.0
 11
0.0
 21
5.172413793103452
 31
0.0
210
0.0
220
0.0
230
1.0
 40
0.4663076582
 41
2.543599468919424
 42
6.046085576592719
  0
LINE
  5
1DB
330
1F
100
AcDbEntity
  8
0
  6
Continuous
 62
     7
370
    25
100
AcDbLine
 10
209.5556485033
 20
62.0862068966
 30
0.0
 11
209.5556485033
 21
53.8380515016
 31
0.0
  0
LINE
  5
1DC
330
1F
100
AcDbEntity
  8
0
  6
Continuous
 62
     7
370
    25
100
AcDbLine
 10
202.4877224018
 20
88.5517241379
 30
0.0
 11
209.5556485033
 21
62.0862068966
 31
0.0
  0
LINE
  5
1DD
330
1F
100
AcDbEntity
  8
0
  6
Continuous
 62
     7
370
    25
100
AcDbLine
 10
202.4877224018
 20
94.6724137931
 30
0.0
 11
202.4877224018
 21
88.5517241379
 31
0.0
  0
LWPOLYLINE
  5
1DE
330
1F
100
AcDbEntity
  8
0
  6
Continuous
 62
     7
370
    25
100
AcDbPolyline
 90
       12
 70
   128
 43
0.0
 10
202.4877224018
 20
94.6724137931
 10
202.5129389388
 20
95.5066731899
 10
202.5880752137
 20
96.3239494711
 10
202.7116016686
 20
97.1076052486
 10
202.8810036612
 20
97.8416875506
 10
203.0928326554
 20
98.5112525783
 10
203.3427764237
 20
99.1026699186
 10
203.6257468319
 20
99.60390002
 10
203.9359834183
 20
100.0047392831
 10
204.2671706608
 20
100.2970277764
 10
204.6125665421
 20
100.474815349
 10
204.9651397982
 20
100.5344827586
  0
ELLIPSE
  5
1DF
330
1F
100
AcDbEntity
  8
0
  6
Continuous
 62
     7
370
    25
100
AcDbEllipse
 10
208.9891221106
 20
87.6034482759
 30
0.0
 11
0.0
 21
5.172413793103459
 31
0.0
210
0.0
220
0.0
230
1.0
 40
0.4663076582
 41
0.0
 42
6.283185307179586
  0
LWPOLYLINE
  5
1E0
330
1F
100
AcDbEntity
  8
0
  6
Continuous
 62
     7
370
    25
100
AcDbPolyline
 90
       35
 70
   128
 43
0.0
 10
205.1837354509
 20
90.9655172414
 10
204.9159564791
 20
91.0242306907
 10
204.657296399
 20
91.1983716227
 10
204.4165635695
 20
91.4820098768
 10
204.2019558582
 20
91.8654864923
 10
204.0207814735
 20
92.3357426332
 10
203.8792100917
 20
92.8767642904
 10
203.7820627563
 20
93.4701276204
 10
203.7326477035
 20
94.0956263467
 10
203.7326477035
 20
94.7319598602
 10
203.7820627563
 20
95.3574585865
 10
203.8792100917
 20
95.9508219165
 10
204.0207814735
 20
96.4918435737
 10
204.2019558582
 20
96.9620997146
 10
204.4165635695
 20
97.3455763301
 10
204.657296399
 20
97.6292145842
 10
204.9159564791
 20
97.8033555162
 10
205.1837354509
 20
97.8620689655
 10
205.4515144226
 20
97.8033555162
 10
205.7101745027
 20
97.6292145842
 10
205.9509073322
 20
97.3455763301
 10
206.1655150435
 20
96.9620997146
 10
206.3466894282
 20
96.4918435737
 10
206.4882608101
 20
95.9508219165
 10
206.5854081454
 20
95.3574585865
 10
206.6348231982
 20
94.7319598602
 10
206.6348231982
 20
94.0956263467
 10
206.5854081454
 20
93.4701276204
 10
206.4882608101
 20
92.8767642904
 10
206.3466894282
 20
92.3357426332
 10
206.1655150435
 20
91.8654864923
 10
205.9509073322
 20
91.4820098768
 10
205.7101745027
 20
91.1983716227
 10
205.4515144226
 20
91.0242306907
 10
205.1837354509
 20
90.9655172414
  0
LWPOLYLINE
  5
1E1
330
1F
100
AcDbEntity
  8
0
  6
Continuous
 62
     7
370
    25
100
AcDbPolyline
 90
       35
 70
   128
 43
0.0
 10
205.1837354509
 20
15.9655172414
 10
204.9159564791
 20
16.0242306907
 10
204.657296399
 20
16.1983716227
 10
204.4165635695
 20
16.4820098768
 10
204.2019558582
 20
16.8654864923
 10
204.0207814735
 20
17.3357426332
 10
203.8792100917
 20
17.8767642904
 10
203.7820627563
 20
18.4701276204
 10
203.7326477035
 20
19.0956263467
 10
203.7326477035
 20
19.7319598602
 10
203.7820627563
 20
20.3574585865
 10
203.8792100917
 20
20.9508219165
 10
204.0207814735
 20
21.4918435737
 10
204.2019558582
 20
21.9620997146
 10
204.4165635695
 20
22.3455763301
 10
204.657296399
 20
22.6292145842
 10
204.9159564791
 20
22.8033555162
 10
205.1837354509
 20
22.8620689655
 10
205.4515144226
 20
22.8033555162
 10
205.7101745027
 20
22.6292145842
 10
205.9509073322
 20
22.3455763301
 10
206.1655150435
 20
21.9620997146
 10
206.3466894282
 20
21.4918435737
 10
206.4882608101
 20
20.9508219165
 10
206.5854081454
 20
20.3574585865
 10
206.6348231982
 20
19.7319598602
 10
206.6348231982
 20
19.0956263467
 10
206.5854081454
 20
18.4701276204
 10
206.4882608101
 20
17.8767642904
 10
206.3466894282
 20
17.3357426332
 10
206.1655150435
 20
16.8654864923
 10
205.9509073322
 20
16.4820098768
 10
205.7101745027
 20
16.1983716227
 10
205.4515144226
 20
16.0242306907
 10
205.1837354509
 20
15.9655172414
  0
LINE
  5
1E2
330
1F
100
AcDbEntity
  8
0
  6
Continuous
 62
     7
370
    25
100
AcDbLine
 10
209.5556485033
 20
17.0290603298
 30
0.0
 11
212.4777948396
 21
17.0290603298
 31
0.0
  0
ELLIPSE
  5
1E3
330
1F
100
AcDbEntity
  8
0
  6
Continuous
 62
     7
370
    25
100
AcDbEllipse
 10
207.7784100903
 20
48.8103448276
 30
0.0
 11
13.4875266095236
 21
3.255116432583911
 31
0.0
210
0.0
220
0.0
230
1.0
 40
0.2980317837
 41
4.629701029809623
 42
4.863848570699932
  0
LINE
  5
1E4
330
1F
100
AcDbEntity
  8
0
  6
Continuous
 62
     7
370
    25
100
AcDbLine
 10
210.0570071313
 20
99.0689907037
 30
0.0
 11
212.4081422856
 21
96.7985258772
 31
0.0
  0
ARC
  5
1E5
330
1F
100
AcDbEntity
  8
0
  6
Continuous
 62
     7
370
    25
100
AcDbCircle
 10
226.2704391022
 20
16.9677819252
 30
0.0
 40
4.385130046710133
100
AcDbArc
 50
322.8027177647
 51
322.9810429454
  0
LINE
  5
1E6
330
1F
100
AcDbEntity
  8
0
  6
Continuous
 62
     7
370
    25
100
AcDbLine
 10
209.6059771333
 20
13.2931034483
 30
0.0
 11
229.7634521334
 21
14.3167018648
 31
0.0
  0
LINE
  5
1E7
330
1F
100
AcDbEntity
  8
0
  6
Continuous
 62
     7
370
    25
100
AcDbLine
 10
206.220976235
 20
13.2931034483
 30
0.0
 11
209.6059771333
 21
13.2931034483
 31
0.0
  0
LINE
  5
1E8
330
1F
100
AcDbEntity
  8
0
  6
Continuous
 62
     7
370
    25
100
AcDbLine
 10
206.220976235
 20
100.5344827586
 30
0.0
 11
208.5394456838
 21
100.5344827586
 31
0.0
  0
LINE
  5
1E9
330
1F
100
AcDbEntity
  8
0
  6
Continuous
 62
     7
370
    25
100
AcDbLine
 10
208.5394456838
 20
100.5344827586
 30
0.0
 11
210.0570071313
 21
99.0689907037
 31
0.0
  0
ELLIPSE
  5
1EA
330
1F
100
AcDbEntity
  8
0
  6
Continuous
 62
     7
370
    25
100
AcDbEllipse
 10
207.5206076039
 20
48.8103448276
 30
0.0
 11
13.48752660952036
 21
3.255116432583286
 31
0.0
210
0.0
220
0.0
230
1.0
 40
0.2980317837
 41
4.646328968814741
 42
4.886172361888564
  0
LINE
  5
1EB
330
1F
100
AcDbEntity
  8
0
  6
Continuous
 62
     7
370
    25
100
AcDbLine
 10
202.4877224018
 20
25.4482758621
 30
0.0
 11
202.533767523
 21
25.4482758621
 31
0.0
  0
LINE
  5
1EC
330
1F
100
AcDbEntity
  8
0
  6
Continuous
 62
     7
370
    25
100
AcDbLine
 10
202.4877224018
 20
25.4482758621
 30
0.0
 11
207.5982814745
 21
44.5845242197
 31
0.0
  0
LINE
  5
1ED
330
1F
100
AcDbEntity
  8
0
  6
Continuous
 62
     7
370
    25
100
AcDbLine
 10
202.4877224018
 20
25.275862069
 30
0.0
 11
202.4877224018
 21
25.4482758621
 31
0.0
  0
LINE
  5
1EE
330
1F
100
AcDbEntity
  8
0
  6
Continuous
 62
     7
370
    25
100
AcDbLine
 10
202.4877224018
 20
94.8448293103
 30
0.0
 11
202.4877224018
 21
94.6724137931
 31
0.0
  0
LWPOLYLINE
  5
1EF
330
1F
100
AcDbEntity
  8
0
  6
Continuous
 62
     7
370
    25
100
AcDbPolyline
 90
       12
 70
   128
 43
0.0
 10
204.9651397982
 20
100.7068965517
 10
204.6125666077
 20
100.6472291644
 10
204.2671707879
 20
100.4694416578
 10
203.9359835991
 20
100.1771532716
 10
203.6257470548
 20
99.7763141521
 10
203.342776674
 20
99.2750842249
 10
203.0928329157
 20
98.6836670821
 10
202.8810039119
 20
98.0141022667
 10
202.7116018887
 20
97.2800201823
 10
202.5880753816
 20
96.4963646178
 10
202.512939033
 20
95.6790885344
 10
202.4877224018
 20
94.8448293103
  0
LINE
  5
1F0
330
1F
100
AcDbEntity
  8
0
  6
Continuous
 62
     7
370
    25
100
AcDbLine
 10
204.9651397982
 20
100.7068965517
 30
0.0
 11
208.3609059746
 21
100.7068965517
 31
0.0
  0
LINE
  5
1F1
330
1F
100
AcDbEntity
  8
0
  6
Continuous
 62
     7
370
    25
100
AcDbLine
 10
208.3609059746
 20
100.7068965517
 30
0.0
 11
208.5394456838
 21
100.5344827586
 31
0.0
  0
LINE
  5
1F2
330
1F
100
AcDbEntity
  8
0
  6
Continuous
 62
     7
370
    25
100
AcDbLine
 10
243.5122775982
 20
93.6519455415
 30
0.0
 11
215.666521608
 21
93.6519455415
 31
0.0
  0
LINE
  5
1F3
330
1F
100
AcDbEntity
  8
0
  6
Continuous
 62
     7
370
    25
100
AcDbLine
 10
243.5122775982
 20
93.6519455415
 30
0.0
 11
243.5122775982
 21
93.6379310345
 31
0.0
  0
LINE
  5
1F4
330
1F
100
AcDbEntity
  8
0
  6
HIDDEN
 62
     7
370
    18
100
AcDbLine
 10
214.4605534603
 20
14.3275862069
 30
0.0
 11
214.4605534603
 21
93.6379310345
 31
0.0
  0
LINE
  5
1F5
330
1F
100
AcDbEntity
  8
0
  6
HIDDEN
 62
     7
370
    18
100
AcDbLine
 10
213.4486472821
 20
93.6379310345
 30
0.0
 11
214.4605534603
 21
92.8163984243
 31
0.0
  0
LINE
  5
1F6
330
1F
100
AcDbEntity
  8
0
  6
HIDDEN
 62
     7
370
    18
100
AcDbLine
 10
212.4777948396
 20
19.4014527102
 30
0.0
 11
214.4605534603
 21
21.0111877826
 31
0.0
  0
LINE
  5
1F7
330
1F
100
AcDbEntity
  8
0
  6
HIDDEN
 62
     7
370
    18
100
AcDbLine
 10
212.4777948396
 20
17.0290603298
 30
0.0
 11
214.4605534603
 21
17.0290603298
 31
0.0
  0
LINE
  5
1F8
330
1F
100
AcDbEntity
  8
0
  6
HIDDEN
 62
     7
370
    18
100
AcDbLine
 10
236.615725874
 20
87.6034482759
 30
0.0
 11
236.615725874
 21
92.775862069
 31
0.0
  0
LINE
  5
1F9
330
1F
100
AcDbEntity
  8
0
  6
HIDDEN
 62
     7
370
    18
100
AcDbLine
 10
236.615725874
 20
82.4310344828
 30
0.0
 11
236.615725874
 21
87.6034482759
 31
0.0
  0
LINE
  5
1FA
330
1F
100
AcDbEntity
  8
0
  6
HIDDEN
 62
     7
370
    18
100
AcDbLine
 10
236.615725874
 20
48.8103448276
 30
0.0
 11
236.615725874
 21
53.9827586207
 31
0.0
  0
LINE
  5
1FB
330
1F
100
AcDbEntity
  8
0
  6
HIDDEN
 62
     7
370
    18
100
AcDbLine
 10
236.615725874
 20
43.6379310345
 30
0.0
 11
236.615725874
 21
48.8103448276
 31
0.0
  0
ELLIPSE
  5
1FC
330
1F
100
AcDbEntity
  8
0
  6
HIDDEN
 62
     7
370
    18
100
AcDbEllipse
 10
212.1610523576
 20
48.8103448276
 30
0.0
 11
11.09227717504805
 21
7.105427357601002E-15
 31
0.0
210
0.0
220
0.0
230
1.0
 40
0.4663076582
 41
0.6024546333849315
 42
1.807896057381557
  0
ELLIPSE
  5
1FD
330
1F
100
AcDbEntity
  8
0
  6
HIDDEN
 62
     7
370
    18
100
AcDbEllipse
 10
207.7784100903
 20
48.8103448276
 30
0.0
 11
13.4875266095236
 21
3.255116432583911
 31
0.0
210
0.0
220
0.0
230
1.0
 40
0.2980317837
 41
4.863848570699932
 42
6.204958805319378
  0
LINE
  5
1FE
330
1F
100
AcDbEntity
  8
0
  6
HIDDEN
 62
     7
370
    18
100
AcDbLine
 10
209.5556485033
 20
62.0862068966
 30
0.0
 11
222.8226224258
 21
62.0862068966
 31
0.0
  0
LINE
  5
1FF
330
1F
100
AcDbEntity
  8
0
  6
HIDDEN
 62
     7
370
    18
100
AcDbLine
 10
243.5122775982
 20
92.9482758621
 30
0.0
 11
216.3951928919
 21
92.9482758621
 31
0.0
  0
LINE
  5
200
330
1F
100
AcDbEntity
  8
0
  6
HIDDEN
 62
     7
370
    18
100
AcDbLine
 10
215.6810340548
 20
93.6379310345
 30
0.0
 11
216.3951928919
 21
92.9482758621
 31
0.0
  0
LINE
  5
201
330
1F
100
AcDbEntity
  8
0
  6
HIDDEN
 62
     7
370
    18
100
AcDbLine
 10
221.3005024079
 20
51.7413793103
 30
0.0
 11
222.8226224258
 21
51.7413793103
 31
0.0
  0
LINE
  5
202
330
1F
100
AcDbEntity
  8
0
  6
HIDDEN
 62
     7
370
    18
100
AcDbLine
 10
216.3951928919
 20
92.9482758621
 30
0.0
 11
222.8226224258
 21
86.7413793103
 31
0.0
  0
LINE
  5
203
330
1F
100
AcDbEntity
  8
0
  6
HIDDEN
 62
     7
370
    18
100
AcDbLine
 10
222.8226224258
 20
51.7413793103
 30
0.0
 11
222.8226224258
 21
25.275862069
 31
0.0
  0
LINE
  5
204
330
1F
100
AcDbEntity
  8
0
  6
HIDDEN
 62
     7
370
    18
100
AcDbLine
 10
222.8226224258
 20
51.7413793103
 30
0.0
 11
222.8226224258
 21
62.0862068966
 31
0.0
  0
LINE
  5
205
330
1F
100
AcDbEntity
  8
0
  6
HIDDEN
 62
     7
370
    18
100
AcDbLine
 10
222.8226224258
 20
62.0862068966
 30
0.0
 11
222.8226224258
 21
86.7413793103
 31
0.0
  0
LINE
  5
206
330
1F
100
AcDbEntity
  8
0
  6
HIDDEN
 62
     7
370
    18
100
AcDbLine
 10
222.8226224258
 20
19.4137931034
 30
0.0
 11
222.8226224258
 21
22.8620689655
 31
0.0
  0
LINE
  5
207
330
1F
100
AcDbEntity
  8
0
  6
HIDDEN
 62
     7
370
    18
100
AcDbLine
 10
222.8226224258
 20
15.9655172414
 30
0.0
 11
222.8226224258
 21
19.4137931034
 31
0.0
  0
ARC
  5
208
330
1F
100
AcDbEntity
  8
0
  6
HIDDEN
 62
     7
370
    18
100
AcDbCircle
 10
228.6117232272
 20
16.2710319457
 30
0.0
 40
3.72305993720654
100
AcDbArc
 50
211.4666558967
 51
215.5864668285
  0
LINE
  5
209
330
1F
100
AcDbEntity
  8
0
  6
HIDDEN
 62
     7
370
    18
100
AcDbLine
 10
222.8226224258
 20
15.9655172414
 30
0.0
 11
222.8226224258
 21
14.3275862069
 31
0.0
  0
LINE
  5
20A
330
1F
100
AcDbEntity
  8
0
  6
HIDDEN
 62
     7
370
    18
100
AcDbLine
 10
243.5122775982
 20
86.7413793103
 30
0.0
 11
222.8226224258
 21
86.7413793103
 31
0.0
  0
LINE
  5
20B
330
1F
100
AcDbEntity
  8
0
  6
HIDDEN
 62
     7
370
    18
100
AcDbLine
 10
243.5122775982
 20
68.8103448276
 30
0.0
 11
222.8226224258
 21
68.8103448276
 31
0.0
  0
LINE
  5
20C
330
1F
100
AcDbEntity
  8
0
  6
HIDDEN
 62
     7
370
    18
100
AcDbLine
 10
243.5122775982
 20
46.3965517242
 30
0.0
 11
222.8226224258
 21
46.3965517242
 31
0.0
  0
SPLINE
  5
20D
330
1F
100
AcDbEntity
  8
0
  6
HIDDEN
 62
     7
370
    18
100
AcDbSpline
210
0.0
220
0.0
230
1.0
 70
     8
 71
     3
 72
    10
 73
     6
 74
     0
 42
0.00000001
 43
0.00000001
 40
0.0
 40
0.0
 40
0.0
 40
0.0
 40
0.5
 40
0.5
 40
1.0
 40
1.0
 40
1.0
 40
1.0
 10
232.8226224257679
 20
64.76433091630908
 30
0.0
 10
232.4748205135034
 20
64.76433091630908
 30
0.0
 10
232.1308221543481
 20
64.85326642638115
 30
0.0
 10
231.5217179872489
 20
65.14285442160647
 30
0.0
 10
231.2530711599219
 20
65.339877533665
 30
0.0
 10
231.0260921573403
 20
65.5574386971884
 30
0.0
  0
ELLIPSE
  5
20E
330
1F
100
AcDbEntity
  8
0
  6
HIDDEN
 62
     7
370
    18
100
AcDbEllipse
 10
222.8507415504
 20
57.6034482759
 30
0.0
 11
11.60508110281413
 21
7.105427357601002E-15
 31
0.0
210
0.0
220
0.0
230
1.0
 40
0.9656887748
 41
0.7891300362161137
 42
1.002186026531628
  0
ELLIPSE
  5
20F
330
1F
100
AcDbEntity
  8
0
  6
HIDDEN
 62
     7
370
    18
100
AcDbEllipse
 10
235.3485211996
 20
57.6034482759
 30
0.0
 11
11.60508110281413
 21
7.105427357601002E-15
 31
0.0
210
0.0
220
0.0
230
1.0
 40
0.9656887748
 41
1.952454716025571
 42
2.13940662705829
  0
SPLINE
  5
210
330
1F
100
AcDbEntity
  8
0
  6
HIDDEN
 62
     7
370
    18
100
AcDbSpline
210
0.0
220
0.0
230
1.0
 70
     8
 71
     3
 72
    28
 73
    24
 74
     0
 42
0.00000001
 43
0.00000001
 40
0.0
 40
0.0
 40
0.0
 40
0.0
 40
0.1250000000000003
 40
0.1250000000000003
 40
0.2500000000000007
 40
0.2500000000000007
 40
0.375000000000001
 40
0.375000000000001
 40
0.4375000000000008
 40
0.4375000000000008
 40
0.5000000000000007
 40
0.5000000000000007
 40
0.5625000000000004
 40
0.5625000000000004
 40
0.6250000000000003
 40
0.6250000000000003
 40
0.75
 40
0.75
 40
0.8749999999999997
 40
0.8749999999999997
 40
0.9374999999999998
 40
0.9374999999999998
 40
1.0
 40
1.0
 40
1.0
 40
1.0
 10
231.0260921573403
 20
68.00398876558495
 30
0.0
 10
231.3479915629079
 20
68.12874621995887
 30
0.0
 10
231.7384218584595
 20
68.20032132300297
 30
0.0
 10
232.5530319333272
 20
68.27383108352441
 30
0.0
 10
232.9792427966713
 20
68.27653234470395
 30
0.0
 10
233.8003111808272
 20
68.21564452324384
 30
0.0
 10
234.1966042246387
 20
68.15173122144849
 30
0.0
 10
234.698893909872
 20
67.97824768882907
 30
0.0
 10
234.8501906205409
 20
67.90707152377777
 30
0.0
 10
235.103066622877
 20
67.73563397663493
 30
0.0
 10
235.2047732866704
 20
67.63505418551658
 30
0.0
 10
235.3486290319711
 20
67.40743221959347
 30
0.0
 10
235.3906455416732
 20
67.28065355171698
 30
0.0
 10
235.4173854363081
 20
67.01112737263625
 30
0.0
 10
235.402456768823
 20
66.86851049379466
 30
0.0
 10
235.2872165240617
 20
66.43198956036531
 30
0.0
 10
235.118761894139
 20
66.1298275529135
 30
0.0
 10
234.6569390444365
 20
65.56567728107848
 30
0.0
 10
234.3639708964166
 20
65.3019714012236
 30
0.0
 10
233.8357119917774
 20
64.99796024974934
 30
0.0
 10
233.6444700151307
 20
64.91306047305842
 30
0.0
 10
233.244034481882
 20
64.79621279308999
 30
0.0
 10
233.0348542339513
 20
64.76433091630908
 30
0.0
 10
232.8226224257679
 20
64.76433091630908
 30
0.0
  0
ELLIPSE
  5
211
330
1F
100
AcDbEntity
  8
0
  6
HIDDEN
 62
     7
370
    18
100
AcDbEllipse
 10
222.8507415504
 20
57.6034482759
 30
0.0
 11
11.60508110281413
 21
7.105427357601002E-15
 31
0.0
210
0.0
220
0.0
230
1.0
 40
0.9656887748
 41
5.280999280648799
 42
5.494055270964569
  0
SPLINE
  5
212
330
1F
100
AcDbEntity
  8
0
  6
HIDDEN
 62
     7
370
    18
100
AcDbSpline
210
0.0
220
0.0
230
1.0
 70
     8
 71
     3
 72
    10
 73
     6
 74
     0
 42
0.00000001
 43
0.00000001
 40
0.0
 40
0.0
 40
0.0
 40
0.0
 40
0.5
 40
0.5
 40
1.0
 40
1.0
 40
1.0
 40
1.0
 10
232.8226224257679
 20
50.44256563542977
 30
0.0
 10
232.4748206233407
 20
50.44256563542977
 30
0.0
 10
232.130822432409
 20
50.35363021373563
 30
0.0
 10
231.521718278596
 20
50.0640423124611
 30
0.0
 10
231.2530713883665
 20
49.86701923703925
 30
0.0
 10
231.0260921573403
 20
49.64945785455046
 30
0.0
  0
SPLINE
  5
213
330
1F
100
AcDbEntity
  8
0
  6
HIDDEN
 62
     7
370
    18
100
AcDbSpline
210
0.0
220
0.0
230
1.0
 70
     8
 71
     3
 72
    28
 73
    24
 74
     0
 42
0.00000001
 43
0.00000001
 40
0.0
 40
0.0
 40
0.0
 40
0.0
 40
0.1249999999999992
 40
0.1249999999999992
 40
0.2499999999999984
 40
0.2499999999999984
 40
0.3749999999999976
 40
0.3749999999999976
 40
0.4374999999999973
 40
0.4374999999999973
 40
0.4999999999999973
 40
0.4999999999999973
 40
0.5624999999999973
 40
0.5624999999999973
 40
0.6249999999999974
 40
0.6249999999999974
 40
0.7499999999999981
 40
0.7499999999999981
 40
0.8749999999999989
 40
0.8749999999999989
 40
0.9374999999999994
 40
0.9374999999999994
 40
1.0
 40
1.0
 40
1.0
 40
1.0
 10
231.0260921573403
 20
47.20290778615391
 30
0.0
 10
231.3479915060413
 20
47.07815035381957
 30
0.0
 10
231.7384217213611
 20
47.00657525437592
 30
0.0
 10
232.5530316387027
 20
46.93306548152299
 30
0.0
 10
232.9792424227351
 20
46.93036420477699
 30
0.0
 10
233.8003106844683
 20
46.99125196620319
 30
0.0
 10
234.1966036859557
 20
47.05516521082975
 30
0.0
 10
234.6988935080394
 20
47.22864869082442
 30
0.0
 10
234.8501902704743
 20
47.29982483943871
 30
0.0
 10
235.1030663763299
 20
47.47126235914515
 30
0.0
 10
235.2047730917997
 20
47.57184213875494
 30
0.0
 10
235.3486289324887
 20
47.79946409385986
 30
0.0
 10
235.3906454845302
 20
47.9262427612808
 30
0.0
 10
235.417385447111
 20
48.19576895075432
 30
0.0
 10
235.4024568084613
 20
48.33838580677218
 30
0.0
 10
235.2872166415872
 20
48.77490674527358
 30
0.0
 10
235.1187620347982
 20
49.07706878598864
 30
0.0
 10
234.656939190687
 20
49.64121913301592
 30
0.0
 10
234.3639710297222
 20
49.90492505322159
 30
0.0
 10
233.8357120892141
 20
50.20893625619668
 30
0.0
 10
233.6444700961934
 20
50.29383604907266
 30
0.0
 10
233.2440345252054
 20
50.41068375195289
 30
0.0
 10
233.034854255928
 20
50.44256563542977
 30
0.0
 10
232.8226224257679
 20
50.44256563542977
 30
0.0
  0
ELLIPSE
  5
214
330
1F
100
AcDbEntity
  8
0
  6
HIDDEN
 62
     7
370
    18
100
AcDbEllipse
 10
235.3485211996
 20
57.6034482759
 30
0.0
 11
11.60508110281413
 21
7.105427357601002E-15
 31
0.0
210
0.0
220
0.0
230
1.0
 40
0.9656887748
 41
4.143778680120481
 42
4.330730591153454
  0
LINE
  5
215
330
1F
100
AcDbEntity
  8
0
  6
HIDDEN
 62
     7
370
    18
100
AcDbLine
 10
222.8226224258
 20
25.275862069
 30
0.0
 11
222.8226224258
 21
22.8620689655
 31
0.0
  0
LINE
  5
216
330
1F
100
AcDbEntity
  8
0
  6
HIDDEN
 62
     7
370
    18
100
AcDbLine
 10
202.4877224018
 20
25.275862069
 30
0.0
 11
222.8226224258
 21
25.275862069
 31
0.0
  0
LINE
  5
217
330
1F
100
AcDbEntity
  8
0
  6
HIDDEN
 62
     7
370
    18
100
AcDbLine
 10
202.4877224018
 20
88.5517241379
 30
0.0
 11
220.9479554784
 21
88.5517241379
 31
0.0
  0
LINE
  5
218
330
1F
100
AcDbEntity
  8
0
  6
HIDDEN
 62
     7
370
    18
100
AcDbLine
 10
229.099631375
 20
48.1599559051
 30
0.0
 11
229.099631375
 21
14.3275862069
 31
0.0
  0
LINE
  5
219
330
1F
100
AcDbEntity
  8
0
  6
HIDDEN
 62
     7
370
    18
100
AcDbLine
 10
229.099631375
 20
86.7413793103
 30
0.0
 11
229.099631375
 21
67.0469406466
 31
0.0
  0
ARC
  5
21A
330
1F
100
AcDbEntity
  8
0
  6
HIDDEN
 62
     7
370
    18
100
AcDbCircle
 10
228.1754865061
 20
16.1361030348
 30
0.0
 40
3.189484913638549
100
AcDbArc
 50
214.5430107633
 51
219.4162602749
  0
LINE
  5
21B
330
1F
100
AcDbEntity
  8
0
  6
HIDDEN
 62
     7
370
    18
100
AcDbLine
 10
204.9651397982
 20
13.4655172414
 30
0.0
 11
213.0012800843
 21
13.4655172414
 31
0.0
  0
LWPOLYLINE
  5
21C
330
1F
100
AcDbEntity
  8
0
  6
HIDDEN
 62
     7
370
    18
100
AcDbPolyline
 90
       12
 70
   128
 43
0.0
 10
202.4877224018
 20
19.3275862069
 10
202.5129389388
 20
18.4933268101
 10
202.5880752137
 20
17.6760505289
 10
202.7116016686
 20
16.8923947514
 10
202.8810036612
 20
16.1583124494
 10
203.0928326554
 20
15.4887474217
 10
203.3427764237
 20
14.8973300814
 10
203.6257468319
 20
14.3960999799
 10
203.9359834183
 20
13.9952607169
 10
204.2671706608
 20
13.7029722236
 10
204.6125665421
 20
13.525184651
 10
204.9651397982
 20
13.4655172414
  0
ELLIPSE
  5
21D
330
1F
100
AcDbEntity
  8
0
  6
HIDDEN
 62
     7
370
    18
100
AcDbEllipse
 10
207.5206076039
 20
48.8103448276
 30
0.0
 11
13.48752660952036
 21
3.255116432583286
 31
0.0
210
0.0
220
0.0
230
1.0
 40
0.2980317837
 41
4.886172361888564
 42
6.246005280727647
  0
LINE
  5
21E
330
1F
100
AcDbEntity
  8
0
  6
HIDDEN
 62
     7
370
    18
100
AcDbLine
 10
221.0348740976
 20
51.9137931034
 30
0.0
 11
222.8226224258
 21
51.9137931034
 31
0.0
  0
LINE
  5
21F
330
1F
100
AcDbEntity
  8
0
  6
HIDDEN
 62
     7
370
    18
100
AcDbLine
 10
202.533767523
 20
25.4482758621
 30
0.0
 11
222.8226224258
 21
25.4482758621
 31
0.0
  0
LINE
  5
220
330
1F
100
AcDbEntity
  8
0
  6
HIDDEN
 62
     7
370
    18
100
AcDbLine
 10
202.4877224018
 20
88.724137931
 30
0.0
 11
209.5556485033
 21
62.2586206897
 31
0.0
  0
LINE
  5
221
330
1F
100
AcDbEntity
  8
0
  6
HIDDEN
 62
     7
370
    18
100
AcDbLine
 10
202.4877224018
 20
88.724137931
 30
0.0
 11
220.7694157691
 21
88.724137931
 31
0.0
  0
LINE
  5
222
330
1F
100
AcDbEntity
  8
0
  6
HIDDEN
 62
     7
370
    18
100
AcDbLine
 10
209.5556485033
 20
62.2586206897
 30
0.0
 11
222.8226224258
 21
62.2586206897
 31
0.0
  0
LINE
  5
223
330
1F
100
AcDbEntity
  8
0
  6
HIDDEN
 62
     7
370
    18
100
AcDbLine
 10
232.7345377406
 20
64.7761502371
 30
0.0
 11
233.0647792857
 21
64.7995096481
 31
0.0
  0
LINE
  5
224
330
1F
100
AcDbEntity
  8
0
  6
HIDDEN
 62
     7
370
    18
100
AcDbLine
 10
235.3896454946
 20
66.9938624801
 30
0.0
 11
235.4021016521
 21
67.045753191
 31
0.0
  0
LINE
  5
225
330
1F
100
AcDbEntity
  8
0
  6
HIDDEN
 62
     7
370
    18
100
AcDbLine
 10
232.7345347699
 20
50.4307459197
 30
0.0
 11
233.0647741836
 21
50.4073876413
 31
0.0
  0
LINE
  5
226
330
1F
100
AcDbEntity
  8
0
  6
HIDDEN
 62
     7
370
    18
100
AcDbLine
 10
235.3896449034
 20
48.2130401798
 30
0.0
 11
235.4021027591
 21
48.1611431561
 31
0.0
  0
ARC
  5
227
330
1F
100
AcDbEntity
  8
0
  6
HIDDEN
 62
     7
370
    18
100
AcDbCircle
 10
226.6946652067
 20
16.8011814427
 30
0.0
 40
3.842016856394302
100
AcDbArc
 50
319.5662054507
 51
319.9221947225
  0
LWPOLYLINE
  5
228
330
1F
100
AcDbEntity
  8
0
  6
HIDDEN
 62
     7
370
    18
100
AcDbPolyline
 90
       35
 70
   128
 43
0.0
 10
205.1837354509
 20
23.0344827586
 10
204.9159564791
 20
22.9757693093
 10
204.657296399
 20
22.8016283773
 10
204.4165635695
 20
22.5179901232
 10
204.2019558582
 20
22.1345135077
 10
204.0207814735
 20
21.6642573668
 10
203.8792100917
 20
21.1232357096
 10
203.7820627563
 20
20.5298723796
 10
203.7326477035
 20
19.9043736533
 10
203.7326477035
 20
19.2680401398
 10
203.7820627563
 20
18.6425414135
 10
203.8792100917
 20
18.0491780835
 10
204.0207814735
 20
17.5081564263
 10
204.2019558582
 20
17.0379002854
 10
204.4165635695
 20
16.6544236699
 10
204.657296399
 20
16.3707854158
 10
204.9159564791
 20
16.1966444838
 10
205.1837354509
 20
16.1379310345
 10
205.4515144226
 20
16.1966444838
 10
205.7101745027
 20
16.3707854158
 10
205.9509073322
 20
16.6544236699
 10
206.1655150435
 20
17.0379002854
 10
206.3466894282
 20
17.5081564263
 10
206.4882608101
 20
18.0491780835
 10
206.5854081454
 20
18.6425414135
 10
206.6348231982
 20
19.2680401398
 10
206.6348231982
 20
19.9043736533
 10
206.5854081454
 20
20.5298723796
 10
206.4882608101
 20
21.1232357096
 10
206.3466894282
 20
21.6642573668
 10
206.1655150435
 20
22.1345135077
 10
205.9509073322
 20
22.5179901232
 10
205.7101745027
 20
22.8016283773
 10
205.4515144226
 20
22.9757693093
 10
205.1837354509
 20
23.0344827586
  0
LWPOLYLINE
  5
229
330
1F
100
AcDbEntity
  8
0
  6
HIDDEN
 62
     7
370
    18
100
AcDbPolyline
 90
       35
 70
   128
 43
0.0
 10
205.1837354509
 20
98.0344827586
 10
204.9159564791
 20
97.9757693093
 10
204.657296399
 20
97.8016283773
 10
204.4165635695
 20
97.5179901232
 10
204.2019558582
 20
97.1345135077
 10
204.0207814735
 20
96.6642573668
 10
203.8792100917
 20
96.1232357096
 10
203.7820627563
 20
95.5298723796
 10
203.7326477035
 20
94.9043736533
 10
203.7326477035
 20
94.2680401398
 10
203.7820627563
 20
93.6425414135
 10
203.8792100917
 20
93.0491780835
 10
204.0207814735
 20
92.5081564263
 10
204.2019558582
 20
92.0379002854
 10
204.4165635695
 20
91.6544236699
 10
204.657296399
 20
91.3707854158
 10
204.9159564791
 20
91.1966444838
 10
205.1837354509
 20
91.1379310345
 10
205.4515144226
 20
91.1966444838
 10
205.7101745027
 20
91.3707854158
 10
205.9509073322
 20
91.6544236699
 10
206.1655150435
 20
92.0379002854
 10
206.3466894282
 20
92.5081564263
 10
206.4882608101
 20
93.0491780835
 10
206.5854081454
 20
93.6425414135
 10
206.6348231982
 20
94.2680401398
 10
206.6348231982
 20
94.9043736533
 10
206.5854081454
 20
95.5298723796
 10
206.4882608101
 20
96.1232357096
 10
206.3466894282
 20
96.6642573668
 10
206.1655150435
 20
97.1345135077
 10
205.9509073322
 20
97.5179901232
 10
205.7101745027
 20
97.8016283773
 10
205.4515144226
 20
97.9757693093
 10
205.1837354509
 20
98.0344827586
  0
ARC
  5
22A
330
1F
100
AcDbEntity
  8
0
  6
HIDDEN
 62
     7
370
    18
100
AcDbCircle
 10
205.8872736025
 20
15.962002646
 30
0.0
 40
2.518689505009538
100
AcDbArc
 50
277.613537192
 51
335.8367934587
  0
LINE
  5
22B
330
1F
100
AcDbEntity
  8
0
  6
HIDDEN
 62
     7
370
    18
100
AcDbLine
 10
243.5122775982
 20
92.9622903691
 30
0.0
 11
216.3806804451
 21
92.9622903691
 31
0.0
  0
ARC
  5
22C
330
1F
100
AcDbEntity
  8
0
  6
HIDDEN
 62
     7
370
    18
100
AcDbCircle
 10
205.8872736025
 20
98.2104111471
 30
0.0
 40
2.518689504998656
100
AcDbArc
 50
24.1632065416
 51
82.3864628084
  0
ELLIPSE
  5
22D
330
1F
100
AcDbEntity
  8
0
  6
HIDDEN
 62
     7
370
    18
100
AcDbEllipse
 10
208.9891221106
 20
48.8103448276
 30
0.0
 11
0.0
 21
5.172413793103452
 31
0.0
210
0.0
220
0.0
230
1.0
 40
0.4663076582
 41
2.526971529914749
 42
2.54359946891934
  0
LINE
  5
22E
330
1F
100
AcDbEntity
  8
0
  6
HIDDEN
 62
     7
370
    18
100
AcDbLine
 10
209.5556485033
 20
62.0862068965
 30
0.0
 11
209.5556485033
 21
62.2586206897
 31
0.0
  0
LINE
  5
22F
330
1F
100
AcDbEntity
  8
0
  6
HIDDEN
 62
     7
370
    18
100
AcDbLine
 10
208.1852835101
 20
14.9310092963
 30
0.0
 11
209.5556485033
 21
17.2014741229
 31
0.0
  0
LINE
  5
230
330
1F
100
AcDbEntity
  8
0
  6
HIDDEN
 62
     7
370
    18
100
AcDbLine
 10
208.1852835101
 20
99.2414044968
 30
0.0
 11
209.5556485033
 21
96.9709396703
 31
0.0
  0
LINE
  5
231
330
1F
100
AcDbEntity
  8
0
  6
HIDDEN
 62
     7
370
    18
100
AcDbLine
 10
209.5556485033
 20
17.2014741229
 30
0.0
 11
214.4605534603
 21
17.2014741229
 31
0.0
  0
LINE
  5
232
330
1F
100
AcDbEntity
  8
0
  6
HIDDEN
 62
     7
370
    18
100
AcDbLine
 10
209.5556485033
 20
17.2014741229
 30
0.0
 11
214.4605534603
 21
21.1836015757
 31
0.0
  0
LINE
  5
233
330
1F
100
AcDbEntity
  8
0
  6
HIDDEN
 62
     7
370
    18
100
AcDbLine
 10
215.666521608
 20
93.6519455415
 30
0.0
 11
215.0640017361
 21
93.6519455415
 31
0.0
  0
LINE
  5
234
330
1F
100
AcDbEntity
  8
0
  6
HIDDEN
 62
     7
370
    18
100
AcDbLine
 10
209.5556485033
 20
96.9709396703
 30
0.0
 11
212.2296025763
 21
96.9709396703
 31
0.0
  0
LINE
  5
235
330
1F
100
AcDbEntity
  8
0
  6
HIDDEN
 62
     7
370
    18
100
AcDbLine
 10
209.5556485033
 20
96.9709396703
 30
0.0
 11
214.4605534603
 21
92.9888122174
 31
0.0
  0
LINE
  5
236
330
1F
100
AcDbEntity
  8
0
  6
HIDDEN
 62
     7
370
    18
100
AcDbLine
 10
215.0640017361
 20
93.6519455415
 30
0.0
 11
215.0640017361
 21
93.6379310345
 31
0.0
  0
LINE
  5
237
330
1F
100
AcDbEntity
  8
0
  6
HIDDEN
 62
     7
370
    18
100
AcDbLine
 10
236.615725874
 20
92.775862069
 30
0.0
 11
208.9891221106
 21
92.775862069
 31
0.0
  0
LINE
  5
238
330
1F
100
AcDbEntity
  8
0
  6
HIDDEN
 62
     7
370
    18
100
AcDbLine
 10
208.9891221106
 20
82.4310344828
 30
0.0
 11
236.615725874
 21
82.4310344828
 31
0.0
  0
LINE
  5
239
330
1F
100
AcDbEntity
  8
0
  6
HIDDEN
 62
     7
370
    18
100
AcDbLine
 10
236.615725874
 20
53.9827586207
 30
0.0
 11
212.1610523576
 21
53.9827586207
 31
0.0
  0
LINE
  5
23A
330
1F
100
AcDbEntity
  8
0
  6
HIDDEN
 62
     7
370
    18
100
AcDbLine
 10
208.9891221106
 20
43.6379310345
 30
0.0
 11
236.615725874
 21
43.6379310345
 31
0.0
  0
LINE
  5
23B
330
1F
100
AcDbEntity
  8
0
  6
HIDDEN
 62
     7
370
    18
100
AcDbLine
 10
243.5122775982
 20
51.8275862069
 30
0.0
 11
236.615725874
 21
51.8275862069
 31
0.0
  0
LINE
  5
23C
330
1F
100
AcDbEntity
  8
0
  6
HIDDEN
 62
     7
370
    18
100
AcDbLine
 10
236.615725874
 20
45.7931034483
 30
0.0
 11
243.5122775982
 21
45.7931034483
 31
0.0
  0
LINE
  5
23D
330
1F
100
AcDbEntity
  8
0
  6
HIDDEN
 62
     7
370
    18
100
AcDbLine
 10
243.5122775982
 20
90.6206896552
 30
0.0
 11
236.615725874
 21
90.6206896552
 31
0.0
  0
LINE
  5
23E
330
1F
100
AcDbEntity
  8
0
  6
HIDDEN
 62
     7
370
    18
100
AcDbLine
 10
236.615725874
 20
84.5862068966
 30
0.0
 11
243.5122775982
 21
84.5862068966
 31
0.0
  0
LINE
  5
23F
330
1F
100
AcDbEntity
  8
0
  6
HIDDEN
 62
     7
370
    18
100
AcDbLine
 10
205.1837354509
 20
15.9655172414
 30
0.0
 11
222.8226224258
 21
15.9655172414
 31
0.0
  0
LINE
  5
240
330
1F
100
AcDbEntity
  8
0
  6
HIDDEN
 62
     7
370
    18
100
AcDbLine
 10
222.8226224258
 20
22.8620689655
 30
0.0
 11
205.1837354509
 21
22.8620689655
 31
0.0
  0
LINE
  5
241
330
1F
100
AcDbEntity
  8
0
  6
HIDDEN
 62
     7
370
    18
100
AcDbLine
 10
205.1837354509
 20
90.9655172414
 30
0.0
 11
218.4483995485
 21
90.9655172414
 31
0.0
  0
LINE
  5
242
330
1F
100
AcDbEntity
  8
0
  6
HIDDEN
 62
     7
370
    18
100
AcDbLine
 10
211.3068111776
 20
97.8620689655
 30
0.0
 11
205.1837354509
 21
97.8620689655
 31
0.0
  0
LINE
  5
243
330
1F
100
AcDbEntity
  8
0
  6
HIDDEN
 62
     7
370
    18
100
AcDbLine
 10
235.4088293223
 20
14.3275862069
 30
0.0
 11
235.4088293223
 21
48.1599559157
 31
0.0
  0
LINE
  5
244
330
1F
100
AcDbEntity
  8
0
  6
HIDDEN
 62
     7
370
    18
100
AcDbLine
 10
235.4088293223
 20
67.0469406359
 30
0.0
 11
235.4088293223
 21
86.7413793103
 31
0.0
  0
LINE
  5
245
330
1F
100
AcDbEntity
  8
0
  6
HIDDEN
 62
     7
370
    18
100
AcDbLine
 10
205.1837354509
 20
16.1379310345
 30
0.0
 11
222.8226224258
 21
16.1379310345
 31
0.0
  0
LINE
  5
246
330
1F
100
AcDbEntity
  8
0
  6
HIDDEN
 62
     7
370
    18
100
AcDbLine
 10
222.8226224258
 20
23.0344827586
 30
0.0
 11
205.1837354509
 21
23.0344827586
 31
0.0
  0
LINE
  5
247
330
1F
100
AcDbEntity
  8
0
  6
HIDDEN
 62
     7
370
    18
100
AcDbLine
 10
205.1837354509
 20
91.1379310345
 30
0.0
 11
218.2698598393
 21
91.1379310345
 31
0.0
  0
LINE
  5
248
330
1F
100
AcDbEntity
  8
0
  6
HIDDEN
 62
     7
370
    18
100
AcDbLine
 10
211.1282714683
 20
98.0344827586
 30
0.0
 11
205.1837354509
 21
98.0344827586
 31
0.0
  0
ENDSEC
  0
SECTION
  2
OBJECTS
  0
DICTIONARY
  5
C
330
0
100
AcDbDictionary
281
     1
  3
ACAD_GROUP
350
D
  3
ACAD_LAYOUT
350
1A
  3
ACAD_MLINESTYLE
350
17
  3
ACAD_PLOTSETTINGS
350
19
  3
ACAD_PLOTSTYLENAME
350
E
  3
ACAD_SCALELIST
350
47
  3
DWGPROPS
350
249
  0
DICTIONARY
  5
D
102
{ACAD_REACTORS
330
C
102
}
330
C
100
AcDbDictionary
281
     1
  0
DICTIONARY
  5
1A
102
{ACAD_REACTORS
330
C
102
}
330
C
100
AcDbDictionary
281
     1
  3
Layout1
350
1E
  3
Layout2
350
26
  3
Model
350
22
  0
DICTIONARY
  5
17
102
{ACAD_REACTORS
330
C
102
}
330
C
100
AcDbDictionary
281
     1
  3
Standard
350
18
  0
DICTIONARY
  5
19
102
{ACAD_REACTORS
330
C
102
}
330
C
100
AcDbDictionary
281
     1
  0
ACDBDICTIONARYWDFLT
  5
E
102
{ACAD_REACTORS
330
C
102
}
330
C
100
AcDbDictionary
281
     1
  3
Normal
350
F
100
AcDbDictionaryWithDefault
340
F
  0
DICTIONARY
  5
47
102
{ACAD_REACTORS
330
C
102
}
330
C
100
AcDbDictionary
281
     1
  3
A0
350
48
  3
A1
350
49
  3
A2
350
4A
  3
A3
350
4B
  3
A4
350
4C
  3
A5
350
4D
  3
A6
350
4E
  3
A7
350
4F
  3
A8
350
50
  3
A9
350
51
  3
B0
350
52
  3
B1
350
53
  3
B2
350
54
  3
B3
350
55
  3
B4
350
56
  3
B5
350
57
  3
B6
350
58
  0
XRECORD
  5
249
102
{ACAD_REACTORS
330
C
102
}
330
C
100
AcDbXrecord
280
     1
  1
DWGPROPS COOKIE
  2

  3

  4

  6

  7

  8

  9

300
=
301
=
302
=
303
=
304
=
305
=
306
=
307
=
308
=
309
=
 40
0.0
 41
2461215.275884676
 42
2461215.275885047
  1

 90
        0
  0
LAYOUT
  5
1E
102
{ACAD_REACTORS
330
1A
102
}
330
1A
100
AcDbPlotSettings
  1

  2
none_device
  4

  6

 40
0.0
 41
0.0
 42
0.0
 43
0.0
 44
0.0
 45
0.0
 46
0.0
 47
0.0
 48
0.0
 49
0.0
140
0.0
141
0.0
142
1.0
143
1.0
 70
   688
 72
     1
 73
     0
 74
     5
  7

 75
    16
147
1.0
148
0.0
149
0.0
100
AcDbLayout
  1
Layout1
 70
     1
 71
     1
 10
0.0
 20
0.0
 11
420.0
 21
297.0
 12
0.0
 22
0.0
 32
0.0
 14
1.0000000000E+20
 24
1.0000000000E+20
 34
1.0000000000E+20
 15
-1.0000000000E+20
 25
-1.0000000000E+20
 35
-1.0000000000E+20
146
0.0
 13
0.0
 23
0.0
 33
0.0
 16
1.0
 26
0.0
 36
0.0
 17
0.0
 27
1.0
 37
0.0
 76
     0
330
1B
  0
LAYOUT
  5
26
102
{ACAD_REACTORS
330
1A
102
}
330
1A
100
AcDbPlotSettings
  1

  2
none_device
  4

  6

 40
0.0
 41
0.0
 42
0.0
 43
0.0
 44
0.0
 45
0.0
 46
0.0
 47
0.0
 48
0.0
 49
0.0
140
0.0
141
0.0
142
1.0
143
1.0
 70
   688
 72
     1
 73
     0
 74
     5
  7

 75
    16
147
1.0
148
0.0
149
0.0
100
AcDbLayout
  1
Layout2
 70
     1
 71
     2
 10
0.0
 20
0.0
 11
0.0
 21
0.0
 12
0.0
 22
0.0
 32
0.0
 14
0.0
 24
0.0
 34
0.0
 15
0.0
 25
0.0
 35
0.0
146
0.0
 13
0.0
 23
0.0
 33
0.0
 16
1.0
 26
0.0
 36
0.0
 17
0.0
 27
1.0
 37
0.0
 76
     0
330
23
  0
LAYOUT
  5
22
102
{ACAD_REACTORS
330
1A
102
}
330
1A
100
AcDbPlotSettings
  1

  2
none_device
  4
Letter_(8.50_x_11.00_Inches)
  6

 40
6.35
 41
6.35
 42
6.35000508
 43
6.35000508
 44
215.9
 45
279.4
 46
0.0
 47
0.0
 48
0.0
 49
0.0
140
0.0
141
0.0
142
1.0
143
1.0
 70
  1712
 72
     1
 73
     0
 74
     0
  7

 75
     0
147
1.0
148
0.0
149
0.0
100
AcDbLayout
  1
Model
 70
     1
 71
     0
 10
0.0
 20
0.0
 11
297.0
 21
210.0
 12
0.0
 22
0.0
 32
0.0
 14
0.0
 24
0.0
 34
0.0
 15
297.0
 25
210.0
 35
0.0
146
0.0
 13
0.0
 23
0.0
 33
0.0
 16
1.0
 26
0.0
 36
0.0
 17
0.0
 27
1.0
 37
0.0
 76
     0
330
1F
331
29
  0
MLINESTYLE
  5
18
102
{ACAD_REACTORS
330
17
102
}
330
17
100
AcDbMlineStyle
  2
Standard
 70
     0
  3

 62
   256
 51
90.0
 52
90.0
 71
     2
 49
0.5
 62
   256
  6
BYLAYER
 49
-0.5
 62
   256
  6
BYLAYER
  0
ACDBPLACEHOLDER
  5
F
102
{ACAD_REACTORS
330
E
102
}
330
E
  0
SCALE
  5
48
102
{ACAD_REACTORS
330
47
102
}
330
47
100
AcDbScale
 70
     0
300
1:1
140
1.0
141
1.0
290
     1
  0
SCALE
  5
49
102
{ACAD_REACTORS
330
47
102
}
330
47
100
AcDbScale
 70
     0
300
1:2
140
1.0
141
2.0
290
     0
  0
SCALE
  5
4A
102
{ACAD_REACTORS
330
47
102
}
330
47
100
AcDbScale
 70
     0
300
1:4
140
1.0
141
4.0
290
     0
  0
SCALE
  5
4B
102
{ACAD_REACTORS
330
47
102
}
330
47
100
AcDbScale
 70
     0
300
1:5
140
1.0
141
5.0
290
     0
  0
SCALE
  5
4C
102
{ACAD_REACTORS
330
47
102
}
330
47
100
AcDbScale
 70
     0
300
1:8
140
1.0
141
8.0
290
     0
  0
SCALE
  5
4D
102
{ACAD_REACTORS
330
47
102
}
330
47
100
AcDbScale
 70
     0
300
1:10
140
1.0
141
10.0
290
     0
  0
SCALE
  5
4E
102
{ACAD_REACTORS
330
47
102
}
330
47
100
AcDbScale
 70
     0
300
1:16
140
1.0
141
16.0
290
     0
  0
SCALE
  5
4F
102
{ACAD_REACTORS
330
47
102
}
330
47
100
AcDbScale
 70
     0
300
1:20
140
1.0
141
20.0
290
     0
  0
SCALE
  5
50
102
{ACAD_REACTORS
330
47
102
}
330
47
100
AcDbScale
 70
     0
300
1:30
140
1.0
141
30.0
290
     0
  0
SCALE
  5
51
102
{ACAD_REACTORS
330
47
102
}
330
47
100
AcDbScale
 70
     0
300
1:40
140
1.0
141
40.0
290
     0
  0
SCALE
  5
52
102
{ACAD_REACTORS
330
47
102
}
330
47
100
AcDbScale
 70
     0
300
1:50
140
1.0
141
50.0
290
     0
  0
SCALE
  5
53
102
{ACAD_REACTORS
330
47
102
}
330
47
100
AcDbScale
 70
     0
300
1:100
140
1.0
141
100.0
290
     0
  0
SCALE
  5
54
102
{ACAD_REACTORS
330
47
102
}
330
47
100
AcDbScale
 70
     0
300
2:1
140
2.0
141
1.0
290
     0
  0
SCALE
  5
55
102
{ACAD_REACTORS
330
47
102
}
330
47
100
AcDbScale
 70
     0
300
4:1
140
4.0
141
1.0
290
     0
  0
SCALE
  5
56
102
{ACAD_REACTORS
330
47
102
}
330
47
100
AcDbScale
 70
     0
300
8:1
140
8.0
141
1.0
290
     0
  0
SCALE
  5
57
102
{ACAD_REACTORS
330
47
102
}
330
47
100
AcDbScale
 70
     0
300
10:1
140
10.0
141
1.0
290
     0
  0
SCALE
  5
58
102
{ACAD_REACTORS
330
47
102
}
330
47
100
AcDbScale
 70
     0
300
100:1
140
100.0
141
1.0
290
     0
  0
ENDSEC
  0
EOF
