  0
SECTION
  2
HEADER
  9
$ACADVER
  1
AC1015
  9
$ACADMAINTVER
 70
     6
  9
$DWGCODEPAGE
  3
ANSI_936
  9
$INSBASE
 10
0.0
 20
0.0
 30
0.0
  9
$EXTMIN
 10
0.0
 20
0.0
 30
0.0
  9
$EXTMAX
 10
297.0
 20
210.0
 30
0.0
  9
$LIMMIN
 10
0.0
 20
0.0
  9
$LIMMAX
 10
297.0
 20
210.0
  9
$ORTHOMODE
 70
     0
  9
$REGENMODE
 70
     1
  9
$FILLMODE
 70
     1
  9
$QTEXTMODE
 70
     0
  9
$MIRRTEXT
 70
     1
  9
$LTSCALE
 40
1.0
  9
$ATTMODE
 70
     1
  9
$TEXTSIZE
 40
3.5
  9
$TRACEWID
 40
1.0
  9
$TEXTSTYLE
  7
Standard
  9
$CLAYER
  8
0
  9
$CELTYPE
  6
ByLayer
  9
$CECOLOR
 62
   256
  9
$CELTSCALE
 40
1.0
  9
$DISPSILH
 70
     0
  9
$DIMSCALE
 40
1.0
  9
$DIMASZ
 40
4.08
  9
$DIMEXO
 40
0.0
  9
$DIMDLI
 40
3.75
  9
$DIMRND
 40
0.0
  9
$DIMDLE
 40
0.0
  9
$DIMEXE
 40
2.0
  9
$DIMTP
 40
0.0
  9
$DIMTM
 40
0.0
  9
$DIMTXT
 40
3.5
  9
$DIMCEN
 40
2.5
  9
$DIMTSZ
 40
0.0
  9
$DIMTOL
 70
     0
  9
$DIMLIM
 70
     0
  9
$DIMTIH
 70
     1
  9
$DIMTOH
 70
     1
  9
$DIMSE1
 70
     0
  9
$DIMSE2
 70
     0
  9
$DIMTAD
 70
     1
  9
$DIMZIN
 70
     0
  9
$DIMBLK
  1

  9
$DIMASO
 70
     1
  9
$DIMSHO
 70
     1
  9
$DIMPOST
  1

  9
$DIMAPOST
  1

  9
$DIMALT
 70
     0
  9
$DIMALTD
 70
     3
  9
$DIMALTF
 40
0.0393700787
  9
$DIMLFAC
 40
2.0
  9
$DIMTOFL
 70
     1
  9
$DIMTVP
 40
0.0
  9
$DIMTIX
 70
     0
  9
$DIMSOXD
 70
     0
  9
$DIMSAH
 70
     0
  9
$DIMBLK1
  1

  9
$DIMBLK2
  1

  9
$DIMSTYLE
  2
ISO-25
  9
$DIMCLRD
 70
     0
  9
$DIMCLRE
 70
     0
  9
$DIMCLRT
 70
     0
  9
$DIMTFAC
 40
1.0
  9
$DIMGAP
 40
1.524
  9
$DIMJUST
 70
     0
  9
$DIMSD1
 70
     0
  9
$DIMSD2
 70
     0
  9
$DIMTOLJ
 70
     0
  9
$DIMTZIN
 70
     0
  9
$DIMALTZ
 70
     0
  9
$DIMALTTZ
 70
     0
  9
$DIMUPT
 70
     0
  9
$DIMDEC
 70
     2
  9
$DIMTDEC
 70
     2
  9
$DIMALTU
 70
     2
  9
$DIMALTTD
 70
     3
  9
$DIMTXSTY
  7
Standard
  9
$DIMAUNIT
 70
     0
  9
$DIMADEC
 70
     2
  9
$DIMALTRND
 40
0.0
  9
$DIMAZIN
 70
     0
  9
$DIMDSEP
 70
    44
  9
$DIMATFIT
 70
     3
  9
$DIMFRAC
 70
     0
  9
$DIMLDRBLK
  1

  9
$DIMLUNIT
 70
     2
  9
$DIMLWD
 70
    -2
  9
$DIMLWE
 70
    -2
  9
$DIMTMOVE
 70
     0
  9
$LUNITS
 70
     2
  9
$LUPREC
 70
     2
  9
$SKETCHINC
 40
1.0
  9
$FILLETRAD
 40
0.0
  9
$AUNITS
 70
     0
  9
$AUPREC
 70
     2
  9
$MENU
  1
.
  9
$ELEVATION
 40
0.0
  9
$PELEVATION
 40
0.0
  9
$THICKNESS
 40
0.0
  9
$LIMCHECK
 70
     0
  9
$CHAMFERA
 40
0.0
  9
$CHAMFERB
 40
0.0
  9
$CHAMFERC
 40
0.0
  9
$CHAMFERD
 40
0.0
  9
$SKPOLY
 70
     0
  9
$TDCREATE
 40
2461215.608139514
  9
$TDUCREATE
 40
2461215.274806181
  9
$TDUPDATE
 40
2461215.608139769
  9
$TDUUPDATE
 40
2461215.274806435
  9
$TDINDWG
 40
0.0000000116
  9
$TDUSRTIMER
 40
0.0000000116
  9
$USRTIMER
 70
     1
  9
$ANGBASE
 50
0.0
  9
$ANGDIR
 70
     0
  9
$PDMODE
 70
     0
  9
$PDSIZE
 40
-1.0
  9
$PLINEWID
 40
0.0
  9
$SPLFRAME
 70
     0
  9
$SPLINETYPE
 70
     6
  9
$SPLINESEGS
 70
     8
  9
$HANDSEED
  5
107
  9
$SURFTAB1
 70
     6
  9
$SURFTAB2
 70
     6
  9
$SURFTYPE
 70
     6
  9
$SURFU
 70
     6
  9
$SURFV
 70
     6
  9
$UCSBASE
  2

  9
$UCSNAME
  2

  9
$UCSORG
 10
0.0
 20
0.0
 30
0.0
  9
$UCSXDIR
 10
1.0
 20
0.0
 30
0.0
  9
$UCSYDIR
 10
0.0
 20
1.0
 30
0.0
  9
$UCSORTHOREF
  2

  9
$UCSORTHOVIEW
 70
     0
  9
$UCSORGTOP
 10
0.0
 20
0.0
 30
0.0
  9
$UCSORGBOTTOM
 10
0.0
 20
0.0
 30
0.0
  9
$UCSORGLEFT
 10
0.0
 20
0.0
 30
0.0
  9
$UCSORGRIGHT
 10
0.0
 20
0.0
 30
0.0
  9
$UCSORGFRONT
 10
0.0
 20
0.0
 30
0.0
  9
$UCSORGBACK
 10
0.0
 20
0.0
 30
0.0
  9
$PUCSBASE
  2

  9
$PUCSNAME
  2

  9
$PUCSORG
 10
0.0
 20
0.0
 30
0.0
  9
$PUCSXDIR
 10
1.0
 20
0.0
 30
0.0
  9
$PUCSYDIR
 10
0.0
 20
1.0
 30
0.0
  9
$PUCSORTHOREF
  2

  9
$PUCSORTHOVIEW
 70
     0
  9
$PUCSORGTOP
 10
0.0
 20
0.0
 30
0.0
  9
$PUCSORGBOTTOM
 10
0.0
 20
0.0
 30
0.0
  9
$PUCSORGLEFT
 10
0.0
 20
0.0
 30
0.0
  9
$PUCSORGRIGHT
 10
0.0
 20
0.0
 30
0.0
  9
$PUCSORGFRONT
 10
0.0
 20
0.0
 30
0.0
  9
$PUCSORGBACK
 10
0.0
 20
0.0
 30
0.0
  9
$USERI1
 70
     0
  9
$USERI2
 70
     0
  9
$USERI3
 70
     0
  9
$USERI4
 70
     0
  9
$USERI5
 70
     0
  9
$USERR1
 40
0.0
  9
$USERR2
 40
0.0
  9
$USERR3
 40
0.0
  9
$USERR4
 40
0.0
  9
$USERR5
 40
0.0
  9
$WORLDVIEW
 70
     1
  9
$SHADEDGE
 70
     3
  9
$SHADEDIF
 70
    70
  9
$TILEMODE
 70
     1
  9
$MAXACTVP
 70
    64
  9
$PINSBASE
 10
0.0
 20
0.0
 30
0.0
  9
$PLIMCHECK
 70
     0
  9
$PEXTMIN
 10
1.0000000000E+20
 20
1.0000000000E+20
 30
1.0000000000E+20
  9
$PEXTMAX
 10
-1.0000000000E+20
 20
-1.0000000000E+20
 30
-1.0000000000E+20
  9
$PLIMMIN
 10
0.0
 20
0.0
  9
$PLIMMAX
 10
420.0
 20
297.0
  9
$UNITMODE
 70
     0
  9
$VISRETAIN
 70
     1
  9
$PLINEGEN
 70
     0
  9
$PSLTSCALE
 70
     1
  9
$TREEDEPTH
 70
  3020
  9
$CMLSTYLE
  2
Standard
  9
$CMLJUST
 70
     0
  9
$CMLSCALE
 40
20.0
  9
$PROXYGRAPHICS
 70
     1
  9
$MEASUREMENT
 70
     1
  9
$CELWEIGHT
370
    -1
  9
$ENDCAPS
280
     0
  9
$JOINSTYLE
280
     0
  9
$LWDISPLAY
290
     1
  9
$INSUNITS
 70
     4
  9
$HYPERLINKBASE
  1

  9
$STYLESHEET
  1

  9
$XEDIT
290
     1
  9
$CEPSNTYPE
380
     0
  9
$PSTYLEMODE
290
     1
  9
$FINGERPRINTGUID
  2
{22fa3728-771a-48c5-b405-04910e32c5e9}
  9
$VERSIONGUID
  2
{FAEB1C32-E019-11D5-929B-00C0DF256EC4}
  9
$EXTNAMES
290
     1
  9
$PSVPSCALE
 40
0.0
  9
$OLESTARTUP
290
     0
  0
ENDSEC
  0
SECTION
  2
CLASSES
  0
CLASS
  1
ACDBDICTIONARYWDFLT
  2
AcDbDictionaryWithDefault
  3
ObjectDBX Classes
 90
        0
280
     0
281
     0
  0
CLASS
  1
VISUALSTYLE
  2
AcDbVisualStyle
  3
ObjectDBX Classes
 90
     4095
280
     0
281
     0
  0
CLASS
  1
MATERIAL
  2
AcDbMaterial
  3
ObjectDBX Classes
 90
     1153
280
     0
281
     0
  0
CLASS
  1
SCALE
  2
AcDbScale
  3
ObjectDBX Classes
 90
     1153
280
     0
281
     0
  0
CLASS
  1
TABLESTYLE
  2
AcDbTableStyle
  3
ObjectDBX Classes
 90
     4095
280
     0
281
     0
  0
CLASS
  1
MLEADERSTYLE
  2
AcDbMLeaderStyle
  3
ACDB_MLEADERSTYLE_CLASS
 90
     4095
280
     0
281
     0
  0
CLASS
  1
SUN
  2
AcDbSun
  3
SCENEOE
 90
     1153
280
     0
281
     0
  0
CLASS
  1
ACDBPLACEHOLDER
  2
AcDbPlaceHolder
  3
ObjectDBX Classes
 90
        0
280
     0
281
     0
  0
CLASS
  1
LAYOUT
  2
AcDbLayout
  3
ObjectDBX Classes
 90
        0
280
     0
281
     0
  0
ENDSEC
  0
SECTION
  2
TABLES
  0
TABLE
  2
VPORT
  5
8
330
0
100
AcDbSymbolTable
 70
     1
  0
VPORT
  5
29
330
8
100
AcDbSymbolTableRecord
100
AcDbViewportTableRecord
  2
*Active
 70
     0
 10
0.0
 20
0.0
 11
1.0
 21
1.0
 12
148.5
 22
105.0
 13
0.0
 23
0.0
 14
10.0
 24
10.0
 15
10.0
 25
10.0
 16
0.0
 26
0.0
 36
1.0
 17
0.0
 27
0.0
 37
0.0
 40
210.0
 41
1.4142857143
 42
50.0
 43
0.0
 44
0.0
 50
0.0
 51
0.0
 71
     0
 72
  2000
 73
     1
 74
     3
 75
     0
 76
     0
 77
     0
 78
     0
281
     0
 65
     1
110
0.0
120
0.0
130
0.0
111
1.0
121
0.0
131
0.0
112
0.0
122
1.0
132
0.0
 79
     0
146
0.0
  0
ENDTAB
  0
TABLE
  2
LTYPE
  5
5
330
0
100
AcDbSymbolTable
 70
     6
  0
LTYPE
  5
14
330
5
100
AcDbSymbolTableRecord
100
AcDbLinetypeTableRecord
  2
ByBlock
 70
     0
  3

 72
    65
 73
     0
 40
0.0
  0
LTYPE
  5
15
330
5
100
AcDbSymbolTableRecord
100
AcDbLinetypeTableRecord
  2
ByLayer
 70
     0
  3

 72
    65
 73
     0
 40
0.0
  0
LTYPE
  5
16
330
5
100
AcDbSymbolTableRecord
100
AcDbLinetypeTableRecord
  2
Continuous
 70
     0
  3
Solid line
 72
    65
 73
     0
 40
0.0
  0
LTYPE
  5
5E
330
5
100
AcDbSymbolTableRecord
100
AcDbLinetypeTableRecord
  2
HIDDEN
 70
     0
  3
Hidden __ __ __ __ __ __ __ __ __ __ __ __ __ __
 72
    65
 73
     2
 40
1.905
 49
1.27
 74
     0
 49
-0.635
 74
     0
  0
LTYPE
  5
5F
330
5
100
AcDbSymbolTableRecord
100
AcDbLinetypeTableRecord
  2
PHANTOM
 70
     0
  3
Phantom ______  __  __  ______  __  __  ______
 72
    65
 73
     6
 40
12.7
 49
6.35
 74
     0
 49
-1.27
 74
     0
 49
1.27
 74
     0
 49
-1.27
 74
     0
 49
1.27
 74
     0
 49
-1.27
 74
     0
  0
LTYPE
  5
60
330
5
100
AcDbSymbolTableRecord
100
AcDbLinetypeTableRecord
  2
CENTER
 70
     0
  3
Center ____ _ ____ _ ____ _ ____ _ ____ _ ____
 72
    65
 73
     4
 40
10.16
 49
6.35
 74
     0
 49
-1.27
 74
     0
 49
1.27
 74
     0
 49
-1.27
 74
     0
  0
LTYPE
  5
61
330
5
100
AcDbSymbolTableRecord
100
AcDbLinetypeTableRecord
  2
CENTERX2
 70
     0
  3
Center (2x) ________  __  ________  __  _____
 72
    65
 73
     4
 40
20.32
 49
12.7
 74
     0
 49
-2.54
 74
     0
 49
2.54
 74
     0
 49
-2.54
 74
     0
  0
LTYPE
  5
62
330
5
100
AcDbSymbolTableRecord
100
AcDbLinetypeTableRecord
  2
DOT2
 70
     0
  3
Dot (.5x) ........................................
 72
    65
 73
     2
 40
0.635
 49
0.0
 74
     0
 49
-0.635
 74
     0
  0
ENDTAB
  0
TABLE
  2
LAYER
  5
2
330
0
100
AcDbSymbolTable
 70
    14
  0
LAYER
  5
10
330
2
100
AcDbSymbolTableRecord
100
AcDbLayerTableRecord
  2
0
 70
     0
 62
     7
  6
Continuous
370
    -3
390
F
  0
LAYER
  5
63
330
2
100
AcDbSymbolTableRecord
100
AcDbLayerTableRecord
  2
SLD-0
 70
     0
 62
     7
  6
Continuous
370
    -3
390
F
  0
LAYER
  5
64
330
2
100
AcDbSymbolTableRecord
100
AcDbLayerTableRecord
  2
5
 70
     0
 62
     7
  6
Continuous
370
    -3
390
F
  0
LAYER
  5
65
330
2
100
AcDbSymbolTableRecord
100
AcDbLayerTableRecord
  2
9
 70
     0
 62
     7
  6
Continuous
370
    -3
390
F
  0
LAYER
  5
66
330
2
100
AcDbSymbolTableRecord
100
AcDbLayerTableRecord
  2
10
 70
     0
 62
     7
  6
Continuous
370
    -3
390
F
  0
LAYER
  5
67
330
2
100
AcDbSymbolTableRecord
100
AcDbLayerTableRecord
  2
轮廓实线层
 70
     0
 62
     7
  6
Continuous
370
    50
390
F
  0
LAYER
  5
68
330
2
100
AcDbSymbolTableRecord
100
AcDbLayerTableRecord
  2
细线层
 70
     0
 62
     4
  6
Continuous
370
    25
390
F
  0
LAYER
  5
69
330
2
100
AcDbSymbolTableRecord
100
AcDbLayerTableRecord
  2
中心线层
 70
     0
 62
     1
  6
CENTERX2
370
    25
390
F
  0
LAYER
  5
6A
330
2
100
AcDbSymbolTableRecord
100
AcDbLayerTableRecord
  2
虚线层
 70
     0
 62
     6
  6
HIDDEN
370
    25
390
F
  0
LAYER
  5
6B
330
2
100
AcDbSymbolTableRecord
100
AcDbLayerTableRecord
  2
剖面线层
 70
     0
 62
     2
  6
Continuous
370
    25
390
F
  0
LAYER
  5
6C
330
2
100
AcDbSymbolTableRecord
100
AcDbLayerTableRecord
  2
文字层
 70
     0
 62
     3
  6
Continuous
370
    25
390
F
  0
LAYER
  5
6D
330
2
100
AcDbSymbolTableRecord
100
AcDbLayerTableRecord
  2
标注层
 70
     0
 62
     4
  6
Continuous
370
    25
390
F
  0
LAYER
  5
6E
330
2
100
AcDbSymbolTableRecord
100
AcDbLayerTableRecord
  2
符号标注层
 70
     0
 62
    31
  6
Continuous
370
    25
390
F
  0
LAYER
  5
6F
330
2
100
AcDbSymbolTableRecord
100
AcDbLayerTableRecord
  2
双点划线层
 70
     0
 62
     6
  6
PHANTOM
370
    25
390
F
  0
ENDTAB
  0
TABLE
  2
STYLE
  5
3
330
0
100
AcDbSymbolTable
 70
     1
  0
STYLE
  5
11
330
3
100
AcDbSymbolTableRecord
100
AcDbTextStyleTableRecord
  2
Standard
 70
     0
 40
0.0
 41
1.0
 50
0.0
 71
     0
 42
3.5
  3
txt
  4

  0
ENDTAB
  0
TABLE
  2
VIEW
  5
6
330
0
100
AcDbSymbolTable
 70
     0
  0
ENDTAB
  0
TABLE
  2
UCS
  5
7
330
0
100
AcDbSymbolTable
 70
     0
  0
ENDTAB
  0
TABLE
  2
APPID
  5
9
330
0
100
AcDbSymbolTable
 70
     1
  0
APPID
  5
12
330
9
100
AcDbSymbolTableRecord
100
AcDbRegAppTableRecord
  2
ACAD
 70
     0
  0
ENDTAB
  0
TABLE
  2
DIMSTYLE
  5
A
330
0
100
AcDbSymbolTable
 70
     1
100
AcDbDimStyleTable
  0
DIMSTYLE
105
27
330
A
100
AcDbSymbolTableRecord
100
AcDbDimStyleTableRecord
  2
ISO-25
 70
     0
 41
2.5
 42
0.625
 43
3.75
 44
1.25
 73
     0
 74
     0
 77
     1
 78
     8
140
2.5
141
2.5
143
0.0393700787
147
0.625
171
     3
172
     1
178
     0
271
     2
272
     2
274
     3
278
    44
283
     0
284
     8
340
11
  0
ENDTAB
  0
TABLE
  2
BLOCK_RECORD
  5
1
330
0
100
AcDbSymbolTable
 70
     1
  0
BLOCK_RECORD
  5
1F
330
1
100
AcDbSymbolTableRecord
100
AcDbBlockTableRecord
  2
*Model_Space
340
22
  0
BLOCK_RECORD
  5
1B
330
1
100
AcDbSymbolTableRecord
100
AcDbBlockTableRecord
  2
*Paper_Space
340
1E
  0
BLOCK_RECORD
  5
23
330
1
100
AcDbSymbolTableRecord
100
AcDbBlockTableRecord
  2
*Paper_Space0
340
26
  0
ENDTAB
  0
ENDSEC
  0
SECTION
  2
BLOCKS
  0
BLOCK
  5
20
330
1F
100
AcDbEntity
  8
0
100
AcDbBlockBegin
  2
*Model_Space
 70
     0
 10
0.0
 20
0.0
 30
0.0
  3
*Model_Space
  1

  0
ENDBLK
  5
21
330
1F
100
AcDbEntity
  8
0
100
AcDbBlockEnd
  0
BLOCK
  5
1C
330
1B
100
AcDbEntity
 67
     1
  8
0
100
AcDbBlockBegin
  2
*Paper_Space
 70
     0
 10
0.0
 20
0.0
 30
0.0
  3
*Paper_Space
  1

  0
ENDBLK
  5
1D
330
1B
100
AcDbEntity
 67
     1
  8
0
100
AcDbBlockEnd
  0
BLOCK
  5
24
330
23
100
AcDbEntity
  8
0
100
AcDbBlockBegin
  2
*Paper_Space0
 70
     0
 10
0.0
 20
0.0
 30
0.0
  3
*Paper_Space0
  1

  0
ENDBLK
  5
25
330
23
100
AcDbEntity
  8
0
100
AcDbBlockEnd
  0
ENDSEC
  0
SECTION
  2
ENTITIES
  0
SPLINE
  5
70
330
1F
100
AcDbEntity
  8
0
  6
Continuous
 62
     7
370
    25
100
AcDbSpline
210
0.0
220
0.0
230
1.0
 70
     8
 71
     3
 72
    22
 73
    18
 74
     0
 42
0.00000001
 43
0.00000001
 40
0.0
 40
0.0
 40
0.0
 40
0.0
 40
0.0486078654415318
 40
0.1083545258249557
 40
0.1691323627373064
 40
0.235187977543118
 40
0.3076138451395039
 40
0.382717599698737
 40
0.4570918878875354
 40
0.5308859070611968
 40
0.6048968410700687
 40
0.6798197733294795
 40
0.7568066490590647
 40
0.8277424350628232
 40
0.892093433496339
 40
0.9519190420703567
 40
1.0
 40
1.0
 40
1.0
 40
1.0
 10
118.2492855733411
 20
45.99406030120183
 30
0.0
 10
118.2564263201719
 20
45.90327176981472
 30
0.0
 10
118.2723441604196
 20
45.70088994992948
 30
0.0
 10
118.4072026401846
 20
45.41107519936458
 30
0.0
 10
118.6289625227838
 20
45.14389486857322
 30
0.0
 10
118.9347686046546
 20
44.91544758597286
 30
0.0
 10
119.3260482955758
 20
44.72873680252564
 30
0.0
 10
119.7908280039347
 20
44.59560321765674
 30
0.0
 10
120.2983964344327
 20
44.52533059806778
 30
0.0
 10
120.8186679730264
 20
44.52023848090656
 30
0.0
 10
121.3290915693774
 20
44.58014649286165
 30
0.0
 10
121.8102630757562
 20
44.70549713048557
 30
0.0
 10
122.2273006476023
 20
44.89216129935965
 30
0.0
 10
122.5587304575068
 20
45.13088520010069
 30
0.0
 10
122.7909209147397
 20
45.40967297834484
 30
0.0
 10
122.930130598214
 20
45.70524311163645
 30
0.0
 10
122.9382878137771
 20
45.90754692239211
 30
0.0
 10
122.9419225021101
 20
45.99768936069886
 30
0.0
  0
SPLINE
  5
71
330
1F
100
AcDbEntity
  8
0
  6
Continuous
 62
     7
370
    25
100
AcDbSpline
210
0.0
220
0.0
230
1.0
 70
     8
 71
     3
 72
    22
 73
    18
 74
     0
 42
0.00000001
 43
0.00000001
 40
0.0
 40
0.0
 40
0.0
 40
0.0
 40
0.0486078654415328
 40
0.1083545258249569
 40
0.1691323627373088
 40
0.2351879775431251
 40
0.3076138451395077
 40
0.3827175996987425
 40
0.4570918878875406
 40
0.5308859070612012
 40
0.6048968410700725
 40
0.6798197733294866
 40
0.7568066490590764
 40
0.8277424350628331
 40
0.8920934334963448
 40
0.9519190420703602
 40
0.9999999999999999
 40
0.9999999999999999
 40
0.9999999999999999
 40
0.9999999999999999
 10
43.04675434304796
 20
45.99406030120183
 30
0.0
 10
43.05389508987871
 20
45.90327176981472
 30
0.0
 10
43.06981293012645
 20
45.70088994992948
 30
0.0
 10
43.20467140989139
 20
45.41107519936457
 30
0.0
 10
43.42643129249065
 20
45.14389486857322
 30
0.0
 10
43.73223737436146
 20
44.91544758597286
 30
0.0
 10
44.1235170652827
 20
44.72873680252564
 30
0.0
 10
44.58829677364157
 20
44.59560321765675
 30
0.0
 10
45.09586520413956
 20
44.52533059806779
 30
0.0
 10
45.61613674273323
 20
44.52023848090659
 30
0.0
 10
46.1265603390842
 20
44.58014649286168
 30
0.0
 10
46.60773184546303
 20
44.7054971304856
 30
0.0
 10
47.02476941730912
 20
44.89216129935969
 30
0.0
 10
47.35619922721365
 20
45.13088520010074
 30
0.0
 10
47.58838968444649
 20
45.40967297834487
 30
0.0
 10
47.72759936792075
 20
45.70524311163647
 30
0.0
 10
47.73575658348391
 20
45.90754692239211
 30
0.0
 10
47.73939127181682
 20
45.99768936069886
 30
0.0
  0
LINE
  5
72
330
1F
100
AcDbEntity
  8
0
  6
Continuous
 62
     7
370
    25
100
AcDbLine
 10
122.9494437752
 20
45.9940603012
 30
0.0
 11
122.9494437752
 21
49.352186835
 31
0.0
  0
LINE
  5
73
330
1F
100
AcDbEntity
  8
0
  6
Continuous
 62
     7
370
    25
100
AcDbLine
 10
118.2492855733
 20
49.352186835
 30
0.0
 11
118.2492855733
 21
45.9940603012
 31
0.0
  0
LINE
  5
74
330
1F
100
AcDbEntity
  8
0
  6
Continuous
 62
     7
370
    25
100
AcDbLine
 10
47.7469125449
 20
45.9940603012
 30
0.0
 11
47.7469125449
 21
49.352186835
 31
0.0
  0
LINE
  5
75
330
1F
100
AcDbEntity
  8
0
  6
Continuous
 62
     7
370
    25
100
AcDbLine
 10
43.046754343
 20
49.352186835
 30
0.0
 11
43.046754343
 21
45.9940603012
 31
0.0
  0
LINE
  5
76
330
1F
100
AcDbEntity
  8
0
  6
Continuous
 62
     7
370
    25
100
AcDbLine
 10
74.1853024306
 20
21.7343589083
 30
0.0
 11
91.8108956877
 21
21.7343589083
 31
0.0
  0
SPLINE
  5
77
330
1F
100
AcDbEntity
  8
0
  6
Continuous
 62
     7
370
    25
100
AcDbSpline
210
0.0
220
0.0
230
1.0
 70
     8
 71
     3
 72
    22
 73
    18
 74
     0
 42
0.00000001
 43
0.00000001
 40
0.0
 40
0.0
 40
0.0
 40
0.0
 40
0.048607865441533
 40
0.1083545258249569
 40
0.1691323627373081
 40
0.2351879775431186
 40
0.3076138451395079
 40
0.382717599698743
 40
0.4570918878875384
 40
0.530885907061199
 40
0.6048968410700734
 40
0.6798197733294855
 40
0.756806649059074
 40
0.827742435062833
 40
0.8920934334963463
 40
0.9519190420703634
 40
1.0
 40
1.0
 40
1.0
 40
1.0
 10
43.04675434304797
 20
13.1663928598528
 30
0.0
 10
43.05389508987871
 20
13.07560432846568
 30
0.0
 10
43.06981293012645
 20
12.87322250858045
 30
0.0
 10
43.20467140989141
 20
12.58340775801556
 30
0.0
 10
43.42643129249063
 20
12.3162274272242
 30
0.0
 10
43.73223737436145
 20
12.08778014462384
 30
0.0
 10
44.12351706528269
 20
11.90106936117662
 30
0.0
 10
44.58829677364157
 20
11.76793577630772
 30
0.0
 10
45.09586520413954
 20
11.69766315671876
 30
0.0
 10
45.61613674273321
 20
11.69257103955756
 30
0.0
 10
46.12656033908418
 20
11.75247905151265
 30
0.0
 10
46.60773184546303
 20
11.87782968913659
 30
0.0
 10
47.02476941730911
 20
12.06449385801066
 30
0.0
 10
47.35619922721365
 20
12.30321775875172
 30
0.0
 10
47.58838968444649
 20
12.58200553699584
 30
0.0
 10
47.72759936792076
 20
12.87757567028746
 30
0.0
 10
47.7357565834839
 20
13.07987948104309
 30
0.0
 10
47.73939127181681
 20
13.17002191934983
 30
0.0
  0
SPLINE
  5
78
330
1F
100
AcDbEntity
  8
0
  6
Continuous
 62
     7
370
    25
100
AcDbSpline
210
0.0
220
0.0
230
1.0
 70
     8
 71
     3
 72
    22
 73
    18
 74
     0
 42
0.00000001
 43
0.00000001
 40
0.0
 40
0.0
 40
0.0
 40
0.0
 40
0.048607865441533
 40
0.1083545258249569
 40
0.169132362737308
 40
0.2351879775431185
 40
0.3076138451395078
 40
0.3827175996987429
 40
0.4570918878875382
 40
0.5308859070611989
 40
0.6048968410700732
 40
0.6798197733294854
 40
0.7568066490590739
 40
0.8277424350628328
 40
0.8920934334963462
 40
0.9519190420703632
 40
0.9999999999999999
 40
0.9999999999999999
 40
0.9999999999999999
 40
0.9999999999999999
 10
118.2492855733412
 20
13.1663928598528
 30
0.0
 10
118.2564263201719
 20
13.0756043284657
 30
0.0
 10
118.2723441604196
 20
12.87322250858046
 30
0.0
 10
118.4072026401846
 20
12.58340775801556
 30
0.0
 10
118.6289625227839
 20
12.31622742722419
 30
0.0
 10
118.9347686046546
 20
12.08778014462384
 30
0.0
 10
119.3260482955759
 20
11.90106936117662
 30
0.0
 10
119.7908280039348
 20
11.76793577630773
 30
0.0
 10
120.2983964344327
 20
11.69766315671876
 30
0.0
 10
120.8186679730264
 20
11.69257103955756
 30
0.0
 10
121.3290915693774
 20
11.75247905151265
 30
0.0
 10
121.8102630757562
 20
11.87782968913659
 30
0.0
 10
122.2273006476023
 20
12.06449385801066
 30
0.0
 10
122.5587304575069
 20
12.30321775875171
 30
0.0
 10
122.7909209147397
 20
12.58200553699584
 30
0.0
 10
122.9301305982139
 20
12.87757567028745
 30
0.0
 10
122.9382878137771
 20
13.0798794810431
 30
0.0
 10
122.94192250211
 20
13.17002191934983
 30
0.0
  0
LINE
  5
79
330
1F
100
AcDbEntity
  8
0
  6
Continuous
 62
     7
370
    25
100
AcDbLine
 10
47.7469125449
 20
13.1663928599
 30
0.0
 11
47.7469125449
 21
16.5245193937
 31
0.0
  0
LINE
  5
7A
330
1F
100
AcDbEntity
  8
0
  6
Continuous
 62
     7
370
    25
100
AcDbLine
 10
43.046754343
 20
16.5245193937
 30
0.0
 11
43.046754343
 21
13.1663928599
 31
0.0
  0
LINE
  5
7B
330
1F
100
AcDbEntity
  8
0
  6
Continuous
 62
     7
370
    25
100
AcDbLine
 10
122.9494437752
 20
13.1663928599
 30
0.0
 11
122.9494437752
 21
16.5245193937
 31
0.0
  0
LINE
  5
7C
330
1F
100
AcDbEntity
  8
0
  6
Continuous
 62
     7
370
    25
100
AcDbLine
 10
118.2492855733
 20
16.5245193937
 30
0.0
 11
118.2492855733
 21
13.1663928599
 31
0.0
  0
LINE
  5
7D
330
1F
100
AcDbEntity
  8
0
  6
Continuous
 62
     7
370
    25
100
AcDbLine
 10
60.6723476001
 20
57.6509036603
 30
0.0
 11
41.8759115765
 21
57.6509036603
 31
0.0
  0
LINE
  5
7E
330
1F
100
AcDbEntity
  8
0
  6
Continuous
 62
     7
370
    25
100
AcDbLine
 10
60.6723476001
 20
38.6544309276
 30
0.0
 11
60.6723476001
 21
57.6509036603
 31
0.0
  0
LINE
  5
7F
330
1F
100
AcDbEntity
  8
0
  6
Continuous
 62
     7
370
    25
100
AcDbLine
 10
105.3238505181
 20
57.6509036603
 30
0.0
 11
105.3238505181
 21
38.6544309276
 31
0.0
  0
LINE
  5
80
330
1F
100
AcDbEntity
  8
0
  6
Continuous
 62
     7
370
    25
100
AcDbLine
 10
124.1202865418
 20
57.6509036603
 30
0.0
 11
105.3238505181
 21
57.6509036603
 31
0.0
  0
SPLINE
  5
81
330
1F
100
AcDbEntity
  8
0
  6
Continuous
 62
     7
370
    25
100
AcDbSpline
210
0.0
220
0.0
230
1.0
 70
     8
 71
     3
 72
    26
 73
    22
 74
     0
 42
0.00000001
 43
0.00000001
 40
0.0
 40
0.0
 40
0.0
 40
0.0
 40
0.1249999999999984
 40
0.1249999999999984
 40
0.2499999999999968
 40
0.2499999999999968
 40
0.3749999999999952
 40
0.3749999999999952
 40
0.4374999999999946
 40
0.4374999999999946
 40
0.4999999999999941
 40
0.4999999999999941
 40
0.6249999999999952
 40
0.6249999999999952
 40
0.7499999999999963
 40
0.7499999999999963
 40
0.8749999999999973
 40
0.8749999999999973
 40
0.9374999999999987
 40
0.9374999999999987
 40
1.0
 40
1.0
 40
1.0
 40
1.0
 10
124.1202865417519
 20
57.65090366025181
 30
0.0
 10
124.6618924361447
 20
57.65090090641084
 30
0.0
 10
125.1922616747766
 20
57.62341524064178
 30
0.0
 10
126.2328476383796
 20
57.51915435446558
 30
0.0
 10
126.7430542339165
 20
57.44235435921874
 30
0.0
 10
127.7424692288787
 20
57.23739642142545
 30
0.0
 10
128.2173964661595
 20
57.11196826066803
 30
0.0
 10
128.8855950966251
 20
56.89165995671561
 30
0.0
 10
129.1013182965537
 20
56.81272210718494
 30
0.0
 10
129.5181330739516
 20
56.64336235487171
 30
0.0
 10
129.720173933398
 20
56.55245599929929
 30
0.0
 10
130.292584664184
 20
56.26809808027726
 30
0.0
 10
130.6327304811253
 20
56.06227184660094
 30
0.0
 10
131.2324063587711
 20
55.61901519594418
 30
0.0
 10
131.492798128867
 20
55.37921555250419
 30
0.0
 10
131.9078522616055
 20
54.88619689972705
 30
0.0
 10
132.066346288199
 20
54.63133681180954
 30
0.0
 10
132.2299261798745
 20
54.2364163786856
 30
0.0
 10
132.2719604005795
 20
54.10230750843498
 30
0.0
 10
132.3290045407638
 20
53.83389418892008
 30
0.0
 10
132.3442709894071
 20
53.69913500986258
 30
0.0
 10
132.3459521804729
 20
53.56380957164943
 30
0.0
  0
ARC
  5
82
330
1F
100
AcDbEntity
  8
0
  6
Continuous
 62
     7
370
    25
100
AcDbCircle
 10
82.9980990591
 20
52.9507454584
 30
0.0
 40
49.35166111988056
100
AcDbArc
 50
359.9999977797
 51
0.7117671207
  0
LINE
  5
83
330
1F
100
AcDbEntity
  8
0
  6
Continuous
 62
     7
370
    25
100
AcDbLine
 10
132.349760179
 20
12.9994007423
 30
0.0
 11
132.349760179
 21
52.9507435459
 31
0.0
  0
LINE
  5
84
330
1F
100
AcDbEntity
  8
0
  6
Continuous
 62
     7
370
    25
100
AcDbLine
 10
95.9235341143
 20
12.9994007423
 30
0.0
 11
118.2713889357
 21
12.9994007423
 31
0.0
  0
LINE
  5
85
330
1F
100
AcDbEntity
  8
0
  6
Continuous
 62
     7
370
    25
100
AcDbLine
 10
122.9249268416
 20
12.9994007423
 30
0.0
 11
132.349760179
 21
12.9994007423
 31
0.0
  0
LINE
  5
86
330
1F
100
AcDbEntity
  8
0
  6
Continuous
 62
     7
370
    25
100
AcDbLine
 10
33.6464379393
 20
12.9994007423
 30
0.0
 11
43.0688577054
 21
12.9994007423
 31
0.0
  0
LINE
  5
87
330
1F
100
AcDbEntity
  8
0
  6
Continuous
 62
     7
370
    25
100
AcDbLine
 10
47.7223956113
 20
12.9994007423
 30
0.0
 11
70.0726640039
 21
12.9994007423
 31
0.0
  0
LINE
  5
88
330
1F
100
AcDbEntity
  8
0
  6
Continuous
 62
     7
370
    25
100
AcDbLine
 10
33.6464379393
 20
52.9507454584
 30
0.0
 11
33.6464379393
 21
12.9994007423
 31
0.0
  0
ARC
  5
89
330
1F
100
AcDbEntity
  8
0
  6
Continuous
 62
     7
370
    25
100
AcDbCircle
 10
82.9980990591
 20
52.9507454584
 30
0.0
 40
49.35166111987989
100
AcDbArc
 50
179.2882328793
 51
180.0
  0
SPLINE
  5
8A
330
1F
100
AcDbEntity
  8
0
  6
Continuous
 62
     7
370
    25
100
AcDbSpline
210
0.0
220
0.0
230
1.0
 70
     8
 71
     3
 72
    26
 73
    22
 74
     0
 42
0.00000001
 43
0.00000001
 40
0.0
 40
0.0
 40
0.0
 40
0.0
 40
0.1250000000000013
 40
0.1250000000000013
 40
0.2500000000000026
 40
0.2500000000000026
 40
0.3750000000000038
 40
0.3750000000000038
 40
0.4375000000000044
 40
0.4375000000000044
 40
0.5000000000000051
 40
0.5000000000000051
 40
0.6250000000000042
 40
0.6250000000000042
 40
0.7500000000000034
 40
0.7500000000000034
 40
0.8750000000000026
 40
0.8750000000000026
 40
0.9375000000000013
 40
0.9375000000000013
 40
1.0
 40
1.0
 40
1.0
 40
1.0
 10
33.65024593781067
 20
53.56380957164941
 30
0.0
 10
33.65360943968617
 20
53.83455058054039
 30
0.0
 10
33.71077510638872
 20
54.0996502347306
 30
0.0
 10
33.92382608239776
 20
54.61949842579729
 30
0.0
 10
34.07973018573434
 20
54.87424499205061
 30
0.0
 10
34.49652204281247
 20
55.37273020300582
 30
0.0
 10
34.75213302647214
 20
55.60897210052184
 30
0.0
 10
35.19876776547728
 20
55.94122470814703
 30
0.0
 10
35.35842340935843
 20
56.04848667481991
 30
0.0
 10
35.69971116506508
 20
56.25589629746081
 30
0.0
 10
35.88235426770219
 20
56.35648776428819
 30
0.0
 10
36.45326149159448
 20
56.64132785048103
 30
0.0
 10
36.8664260740418
 20
56.81013876954791
 30
0.0
 10
37.75739352343995
 20
57.10590727298975
 30
0.0
 10
38.2393316818012
 20
57.23371574455388
 30
0.0
 10
39.22865924823992
 20
57.43805017528944
 30
0.0
 10
39.73940639441967
 20
57.51617764643168
 30
0.0
 10
40.53033986462462
 20
57.59628132440613
 30
0.0
 10
40.79872493059052
 20
57.61672075792235
 30
0.0
 10
41.33569971255494
 20
57.64396733856339
 30
0.0
 10
41.60525310278135
 20
57.65090228406593
 30
0.0
 10
41.87591157653038
 20
57.65090366025179
 30
0.0
  0
LWPOLYLINE
  5
8B
330
1F
100
AcDbEntity
  8
0
  6
Continuous
 62
     7
370
    25
100
AcDbPolyline
 90
       15
 70
   128
 43
0.0
 10
43.046754343
 20
16.5245193937
 10
43.1150433706
 20
16.8057247643
 10
43.3159417433
 20
17.0705875009
 10
43.6377739779
 20
17.3037147439
 10
44.0618363547
 20
17.4915579855
 10
44.5634839099
 20
17.6232004592
 10
45.1135627108
 20
17.6909915829
 10
45.6801041772
 20
17.6909915829
 10
46.2301829781
 20
17.6232004592
 10
46.7318305333
 20
17.4915579855
 10
47.1558929101
 20
17.3037147439
 10
47.4777251447
 20
17.0705875009
 10
47.6786235174
 20
16.8057247643
 10
47.7469125449
 20
16.5245193937
 10
47.7469125449
 20
16.5245193937
  0
LWPOLYLINE
  5
8C
330
1F
100
AcDbEntity
  8
0
  6
Continuous
 62
     7
370
    25
100
AcDbPolyline
 90
       15
 70
   128
 43
0.0
 10
118.2492855733
 20
16.5245193937
 10
118.3175746009
 20
16.8057247643
 10
118.5184729736
 20
17.0705875009
 10
118.8403052082
 20
17.3037147439
 10
119.264367585
 20
17.4915579855
 10
119.7660151402
 20
17.6232004592
 10
120.3160939411
 20
17.6909915829
 10
120.8826354075
 20
17.6909915829
 10
121.4327142084
 20
17.6232004592
 10
121.9343617636
 20
17.4915579855
 10
122.3584241404
 20
17.3037147439
 10
122.680256375
 20
17.0705875009
 10
122.8811547477
 20
16.8057247643
 10
122.9494437752
 20
16.5245193937
 10
122.9494437752
 20
16.5245193937
  0
LWPOLYLINE
  5
8D
330
1F
100
AcDbEntity
  8
0
  6
Continuous
 62
     7
370
    25
100
AcDbPolyline
 90
       15
 70
   128
 43
0.0
 10
118.2492855733
 20
49.352186835
 10
118.3175746009
 20
49.6333922056
 10
118.5184729736
 20
49.8982549422
 10
118.8403052082
 20
50.1313821853
 10
119.264367585
 20
50.3192254269
 10
119.7660151402
 20
50.4508679005
 10
120.3160939411
 20
50.5186590242
 10
120.8826354075
 20
50.5186590242
 10
121.4327142084
 20
50.4508679005
 10
121.9343617636
 20
50.3192254269
 10
122.3584241404
 20
50.1313821853
 10
122.680256375
 20
49.8982549422
 10
122.8811547477
 20
49.6333922056
 10
122.9494437752
 20
49.352186835
 10
122.9494437752
 20
49.352186835
  0
LWPOLYLINE
  5
8E
330
1F
100
AcDbEntity
  8
0
  6
Continuous
 62
     7
370
    25
100
AcDbPolyline
 90
       14
 70
   128
 43
0.0
 10
43.046754343
 20
49.352186835
 10
43.1150433706
 20
49.6333922056
 10
43.3159417433
 20
49.8982549422
 10
43.6377739779
 20
50.1313821853
 10
44.0618363547
 20
50.3192254269
 10
44.5634839099
 20
50.4508679005
 10
45.1135627108
 20
50.5186590242
 10
45.6801041772
 20
50.5186590242
 10
46.2301829781
 20
50.4508679005
 10
46.7318305333
 20
50.3192254269
 10
47.1558929101
 20
50.1313821853
 10
47.4777251447
 20
49.8982549422
 10
47.6786235174
 20
49.6333922056
 10
47.7469125449
 20
49.352186835
  0
SPLINE
  5
8F
330
1F
100
AcDbEntity
  8
0
  6
Continuous
 62
     7
370
    25
100
AcDbSpline
210
0.0
220
0.0
230
1.0
 70
     8
 71
     3
 72
    18
 73
    14
 74
     0
 42
0.00000001
 43
0.00000001
 40
0.0
 40
0.0
 40
0.0
 40
0.0
 40
0.1250000000000002
 40
0.1250000000000002
 40
0.2500000000000004
 40
0.2500000000000004
 40
0.5000000000000002
 40
0.5000000000000002
 40
0.6250000000000002
 40
0.6250000000000002
 40
0.7500000000000001
 40
0.7500000000000001
 40
1.0
 40
1.0
 40
1.0
 40
1.0
 10
131.9389580962421
 20
59.30517477987222
 30
0.0
 10
131.9438768550368
 20
59.26729123933182
 30
0.0
 10
131.9387944959392
 20
59.24558621545352
 30
0.0
 10
131.905130394231
 20
59.23695635891461
 30
0.0
 10
131.876499120264
 20
59.24997438533477
 30
0.0
 10
131.752021380942
 20
59.32789451646879
 30
0.0
 10
131.6205482676292
 20
59.42644471167988
 30
0.0
 10
131.3623636797713
 20
59.56731255423881
 30
0.0
 10
131.2660100102563
 20
59.61371721440127
 30
0.0
 10
131.0538310698532
 20
59.69760617156695
 30
0.0
 10
130.937713147494
 20
59.73511627270011
 30
0.0
 10
130.5683361488356
 20
59.82306124587441
 30
0.0
 10
130.292711353658
 20
59.84983493869461
 30
0.0
 10
129.997471200946
 20
59.82446773195044
 30
0.0
  0
SPLINE
  5
90
330
1F
100
AcDbEntity
  8
0
  6
Continuous
 62
     7
370
    25
100
AcDbSpline
210
0.0
220
0.0
230
1.0
 70
     8
 71
     3
 72
     8
 73
     4
 74
     0
 42
0.00000001
 43
0.00000001
 40
-1.55837364703144
 40
-1.55837364703144
 40
-1.55837364703144
 40
-1.55837364703144
 40
-1.44167970809373
 40
-1.44167970809373
 40
-1.44167970809373
 40
-1.44167970809373
 10
132.3459521804729
 20
53.56380957164939
 30
0.0
 10
132.3221052250715
 20
55.48334135793186
 30
0.0
 10
132.186132558651
 20
57.40147424119404
 30
0.0
 10
131.938958096242
 20
59.3051747798722
 30
0.0
  0
SPLINE
  5
91
330
1F
100
AcDbEntity
  8
0
  6
Continuous
 62
     7
370
    25
100
AcDbSpline
210
0.0
220
0.0
230
1.0
 70
     8
 71
     3
 72
    14
 73
    10
 74
     0
 42
0.00000001
 43
0.00000001
 40
0.0
 40
0.0
 40
0.0
 40
0.0
 40
0.25
 40
0.25
 40
0.5
 40
0.5
 40
0.75
 40
0.75
 40
1.0
 40
1.0
 40
1.0
 40
1.0
 10
129.9974712187199
 20
59.82446882105925
 30
0.0
 10
129.6528604927823
 20
59.79519886219982
 30
0.0
 10
129.265372138404
 20
59.77237643168936
 30
0.0
 10
128.397107517995
 20
59.7361147221833
 30
0.0
 10
127.9105434136009
 20
59.72261280730697
 30
0.0
 10
126.8885602123977
 20
59.70293302396402
 30
0.0
 10
126.3494030458869
 20
59.69649007672908
 30
0.0
 10
125.2097075504914
 20
59.68802537082865
 30
0.0
 10
124.6298792670231
 20
59.68613241145776
 30
0.0
 10
124.0407680255655
 20
59.68613186259227
 30
0.0
  0
SPLINE
  5
92
330
1F
100
AcDbEntity
  8
0
  6
Continuous
 62
     7
370
    25
100
AcDbSpline
210
0.0
220
0.0
230
1.0
 70
     8
 71
     3
 72
     8
 73
     4
 74
     0
 42
0.00000001
 43
0.00000001
 40
1.44167970809373
 40
1.44167970809373
 40
1.44167970809373
 40
1.44167970809373
 40
1.55837364703144
 40
1.55837364703144
 40
1.55837364703144
 40
1.55837364703144
 10
34.0572400220404
 20
59.3051747798722
 30
0.0
 10
33.81006555963144
 20
57.40147424119404
 30
0.0
 10
33.67409289321093
 20
55.48334135793186
 30
0.0
 10
33.65024593781067
 20
53.56380957164939
 30
0.0
  0
SPLINE
  5
93
330
1F
100
AcDbEntity
  8
0
  6
Continuous
 62
     7
370
    25
100
AcDbSpline
210
0.0
220
0.0
230
1.0
 70
     8
 71
     3
 72
    16
 73
    12
 74
     0
 42
0.00000001
 43
0.00000001
 40
0.0
 40
0.0
 40
0.0
 40
0.0
 40
0.2499999999999993
 40
0.2499999999999993
 40
0.4999999999999986
 40
0.4999999999999986
 40
0.7499999999999978
 40
0.7499999999999978
 40
0.8749999999999989
 40
0.8749999999999989
 40
1.0
 40
1.0
 40
1.0
 40
1.0
 10
35.99870592623645
 20
59.82446681834899
 30
0.0
 10
35.7033654462821
 20
59.84984001912233
 30
0.0
 10
35.42852829595626
 20
59.82302987551512
 30
0.0
 10
34.93825061462343
 20
59.70667203953531
 30
0.0
 10
34.7218626930239
 20
59.61518977848257
 30
0.0
 10
34.37681404300805
 20
59.42722452747202
 30
0.0
 10
34.24647638361161
 20
59.3296562966349
 30
0.0
 10
34.12188754016183
 20
59.25118700371696
 30
0.0
 10
34.09211962098543
 20
59.23711472707269
 30
0.0
 10
34.05741454623855
 20
59.24516629155498
 30
0.0
 10
34.05229652163158
 20
59.26710068314129
 30
0.0
 10
34.05724002204035
 20
59.30517477987222
 30
0.0
  0
SPLINE
  5
94
330
1F
100
AcDbEntity
  8
0
  6
Continuous
 62
     7
370
    25
100
AcDbSpline
210
0.0
220
0.0
230
1.0
 70
     8
 71
     3
 72
    18
 73
    14
 74
     0
 42
0.00000001
 43
0.00000001
 40
0.0
 40
0.0
 40
0.0
 40
0.0
 40
0.2499999999999994
 40
0.2499999999999994
 40
0.3749999999999992
 40
0.3749999999999992
 40
0.4999999999999989
 40
0.4999999999999989
 40
0.6249999999999987
 40
0.6249999999999987
 40
0.7499999999999983
 40
0.7499999999999983
 40
1.0
 40
1.0
 40
1.0
 40
1.0
 10
41.95543009271681
 20
59.68613186259227
 30
0.0
 10
41.36656661663221
 20
59.68613241122539
 30
0.0
 10
40.79091442332536
 20
59.68802419587252
 30
0.0
 10
39.94564264657587
 20
59.69425480175544
 30
0.0
 10
39.66518483350945
 20
59.69694210829268
 30
0.0
 10
39.12011994071032
 20
59.70371628303704
 30
0.0
 10
38.85615652191627
 20
59.70778493327558
 30
0.0
 10
38.34462390597084
 20
59.71761524253837
 30
0.0
 10
38.09705833909521
 20
59.72337627385045
 30
0.0
 10
37.6183553305606
 20
59.73704954254724
 30
0.0
 10
37.38656564800242
 20
59.74500578276665
 30
0.0
 10
36.73151847511481
 20
59.77231196378883
 30
0.0
 10
36.34323497680974
 20
59.7952047061408
 30
0.0
 10
35.99870590879943
 20
59.82446788686568
 30
0.0
  0
LINE
  5
95
330
1F
100
AcDbEntity
  8
0
  6
Continuous
 62
     7
370
    25
100
AcDbLine
 10
60.6723476001
 20
59.6861318626
 30
0.0
 11
41.9554300927
 21
59.6861318626
 31
0.0
  0
LINE
  5
96
330
1F
100
AcDbEntity
  8
0
  6
Continuous
 62
     7
370
    25
100
AcDbLine
 10
60.6723476001
 20
57.6509036603
 30
0.0
 11
60.6723476001
 21
59.6861318626
 31
0.0
  0
LINE
  5
97
330
1F
100
AcDbEntity
  8
0
  6
Continuous
 62
     7
370
    25
100
AcDbLine
 10
124.0407680256
 20
59.6861318626
 30
0.0
 11
105.3238505181
 21
59.6861318626
 31
0.0
  0
LINE
  5
98
330
1F
100
AcDbEntity
  8
0
  6
Continuous
 62
     7
370
    25
100
AcDbLine
 10
105.3238505181
 20
59.6861318626
 30
0.0
 11
105.3238505181
 21
57.6509036603
 31
0.0
  0
SPLINE
  5
99
330
1F
100
AcDbEntity
  8
0
  6
Continuous
 62
     7
370
    25
100
AcDbSpline
210
0.0
220
0.0
230
1.0
 70
     8
 71
     3
 72
    34
 73
    30
 74
     0
 42
0.00000001
 43
0.00000001
 40
0.0
 40
0.0
 40
0.0
 40
0.0
 40
0.1250000000000001
 40
0.1250000000000001
 40
0.1875000000000003
 40
0.1875000000000003
 40
0.2187500000000002
 40
0.2187500000000002
 40
0.2500000000000002
 40
0.2500000000000002
 40
0.3750000000000001
 40
0.3750000000000001
 40
0.4062500000000001
 40
0.4062500000000001
 40
0.4375000000000001
 40
0.4375000000000001
 40
0.5000000000000001
 40
0.5000000000000001
 40
0.5625000000000001
 40
0.5625000000000001
 40
0.625
 40
0.625
 40
0.7500000000000001
 40
0.7500000000000001
 40
0.8125000000000001
 40
0.8125000000000001
 40
0.8750000000000001
 40
0.8750000000000001
 40
1.0
 40
1.0
 40
1.0
 40
1.0
 10
78.29794085724787
 20
102.078079684517
 30
0.0
 10
75.2612811783056
 20
101.787553420042
 30
0.0
 10
72.31757461322928
 20
101.2241704659078
 30
0.0
 10
68.03586956176972
 20
100.0030654971878
 30
0.0
 10
66.63113643794047
 20
99.53294647277738
 30
0.0
 10
64.55869537430684
 20
98.7341809172035
 30
0.0
 10
63.87405849659335
 20
98.45232081179245
 30
0.0
 10
62.53296981221008
 20
97.86511701122127
 30
0.0
 10
61.87437418557996
 20
97.55897705005204
 30
0.0
 10
58.63977515754151
 20
95.96902621997636
 30
0.0
 10
56.23780827502353
 20
94.50818163878985
 30
0.0
 10
53.45839464594827
 20
92.49140831399733
 30
0.0
 10
52.91230597394878
 20
92.07731175226256
 30
0.0
 10
51.85225284459894
 20
91.23885587264196
 30
0.0
 10
51.33773527359952
 20
90.81420753652908
 30
0.0
 10
49.83873076357736
 20
89.52640007555246
 30
0.0
 10
48.89873764517705
 20
88.64941106131255
 30
0.0
 10
47.12853625583519
 20
86.87029202035379
 30
0.0
 10
46.29835177646198
 20
85.96814387223006
 30
0.0
 10
44.74039247184642
 20
84.14959055418392
 30
0.0
 10
44.01096691840277
 20
83.23045391774848
 30
0.0
 10
41.99811256188865
 20
80.5128681837735
 30
0.0
 10
40.87631549168542
 20
78.74118486464393
 30
0.0
 10
39.448197126244
 20
76.18743491752781
 30
0.0
 10
39.0144725946333
 20
75.35262153740915
 30
0.0
 10
38.22366373527166
 20
73.72701534154797
 30
0.0
 10
37.86903999999931
 20
72.94149010744071
 30
0.0
 10
36.90817220764659
 20
70.67097823625203
 30
0.0
 10
36.40421343743762
 20
69.27202351079073
 30
0.0
 10
35.99651704020797
 20
67.99859390951494
 30
0.0
  0
LINE
  5
9A
330
1F
100
AcDbEntity
  8
0
  6
Continuous
 62
     7
370
    25
100
AcDbLine
 10
78.2979408572
 20
98.6676918869
 30
0.0
 11
78.2979408572
 21
102.0780796845
 31
0.0
  0
LINE
  5
9B
330
1F
100
AcDbEntity
  8
0
  6
Continuous
 62
     7
370
    25
100
AcDbLine
 10
87.698257261
 20
98.6676918869
 30
0.0
 11
78.2979408572
 21
98.6676918869
 31
0.0
  0
LINE
  5
9C
330
1F
100
AcDbEntity
  8
0
  6
Continuous
 62
     7
370
    25
100
AcDbLine
 10
87.698257261
 20
102.0780796845
 30
0.0
 11
87.698257261
 21
98.6676918869
 31
0.0
  0
SPLINE
  5
9D
330
1F
100
AcDbEntity
  8
0
  6
Continuous
 62
     7
370
    25
100
AcDbSpline
210
0.0
220
0.0
230
1.0
 70
     8
 71
     3
 72
    34
 73
    30
 74
     0
 42
0.00000001
 43
0.00000001
 40
0.0
 40
0.0
 40
0.0
 40
0.0
 40
0.1250000000000005
 40
0.1250000000000005
 40
0.2500000000000009
 40
0.2500000000000009
 40
0.3125000000000011
 40
0.3125000000000011
 40
0.3437500000000012
 40
0.3437500000000012
 40
0.3750000000000013
 40
0.3750000000000013
 40
0.5000000000000012
 40
0.5000000000000012
 40
0.5625000000000012
 40
0.5625000000000012
 40
0.5937500000000011
 40
0.5937500000000011
 40
0.625000000000001
 40
0.625000000000001
 40
0.7500000000000004
 40
0.7500000000000004
 40
0.7812500000000004
 40
0.7812500000000004
 40
0.8125000000000003
 40
0.8125000000000003
 40
0.8750000000000002
 40
0.8750000000000002
 40
1.0
 40
1.0
 40
1.0
 40
1.0
 10
129.9996810780744
 20
67.99859390951528
 30
0.0
 10
129.5914352814385
 20
69.27373954623188
 30
0.0
 10
129.0885144885587
 20
70.66813728471726
 30
0.0
 10
127.8218223393351
 20
73.66465863008008
 30
0.0
 10
127.0584297727343
 20
75.26696975978558
 30
0.0
 10
125.6473445108254
 20
77.80156750283648
 30
0.0
 10
125.132441938731
 20
78.66825400150468
 30
0.0
 10
124.281828430853
 20
79.99731279179821
 30
0.0
 10
123.9852255330345
 20
80.44516503432233
 30
0.0
 10
123.3636710093985
 20
81.34983427357695
 30
0.0
 10
123.0396759688133
 20
81.80517478898938
 30
0.0
 10
121.3611809078528
 20
84.07907172639925
 30
0.0
 10
119.8222720749899
 20
85.90380205813136
 30
0.0
 10
117.164113179953
 20
88.58575962921802
 30
0.0
 10
116.2196179615717
 20
89.47047893032008
 30
0.0
 10
114.7061067478655
 20
90.77444375244839
 30
0.0
 10
114.1870060106607
 20
91.20378774157693
 30
0.0
 10
113.1278673700398
 20
92.04345861930204
 30
0.0
 10
112.5866008353371
 20
92.45485645414435
 30
0.0
 10
109.8213985123544
 20
94.46678264771228
 30
0.0
 10
107.4219817747894
 20
95.93283675081757
 30
0.0
 10
104.1726800321436
 20
97.53491934469808
 30
0.0
 10
103.5102407006218
 20
97.84375791459271
 30
0.0
 10
102.1594383690608
 20
98.43671689973691
 30
0.0
 10
101.472161163191
 20
98.720216036292
 30
0.0
 10
99.39873504796006
 20
99.52113737985913
 30
0.0
 10
97.9923631572248
 20
99.99296308879306
 30
0.0
 10
93.70261636410979
 20
101.2192312966578
 30
0.0
 10
90.74943550669043
 20
101.7861643855769
 30
0.0
 10
87.69825726103453
 20
102.078079684517
 30
0.0
  0
LINE
  5
9E
330
1F
100
AcDbEntity
  8
0
  6
Continuous
 62
     7
370
    25
100
AcDbLine
 10
60.6723476001
 20
59.6861318626
 30
0.0
 11
60.6723476001
 21
71.7925964775
 31
0.0
  0
LINE
  5
9F
330
1F
100
AcDbEntity
  8
0
  6
Continuous
 62
     7
370
    25
100
AcDbLine
 10
105.3238505181
 20
71.7925964775
 30
0.0
 11
105.3238505181
 21
59.6861318626
 31
0.0
  0
SPLINE
  5
A0
330
1F
100
AcDbEntity
  8
0
  6
Continuous
 62
     7
370
    25
100
AcDbSpline
210
0.0
220
0.0
230
1.0
 70
     8
 71
     3
 72
    14
 73
    10
 74
     0
 42
0.00000001
 43
0.00000001
 40
0.0
 40
0.0
 40
0.0
 40
0.0
 40
0.2500000000000001
 40
0.2500000000000001
 40
0.5000000000000002
 40
0.5000000000000002
 40
0.7500000000000001
 40
0.7500000000000001
 40
1.0
 40
1.0
 40
1.0
 40
1.0
 10
131.9389580962418
 20
59.30517477987225
 30
0.0
 10
131.8930539730218
 20
59.65872143372038
 30
0.0
 10
131.8291724834412
 20
60.12289013865355
 30
0.0
 10
131.6498956954784
 20
61.25231610137299
 30
0.0
 10
131.5344157448468
 20
61.91744494117824
 30
0.0
 10
131.2320551055096
 20
63.42267083754799
 30
0.0
 10
131.0456642231408
 20
64.25896933769334
 30
0.0
 10
130.5874875492493
 20
66.05397210798627
 30
0.0
 10
130.3151250850025
 20
67.01331236497147
 30
0.0
 10
129.9996810780744
 20
67.99859390951528
 30
0.0
  0
SPLINE
  5
A1
330
1F
100
AcDbEntity
  8
0
  6
Continuous
 62
     7
370
    25
100
AcDbSpline
210
0.0
220
0.0
230
1.0
 70
     8
 71
     3
 72
    14
 73
    10
 74
     0
 42
0.00000001
 43
0.00000001
 40
0.0
 40
0.0
 40
0.0
 40
0.0
 40
0.2500000000000001
 40
0.2500000000000001
 40
0.5000000000000001
 40
0.5000000000000001
 40
0.7500000000000001
 40
0.7500000000000001
 40
1.0
 40
1.0
 40
1.0
 40
1.0
 10
35.99651704020797
 20
67.99859390951495
 30
0.0
 10
35.68117244910968
 20
67.01362288785407
 30
0.0
 10
35.40846885661636
 20
66.05314748569269
 30
0.0
 10
34.94997822372629
 20
64.256669829427
 30
0.0
 10
34.76346724461616
 20
63.41946551118423
 30
0.0
 10
34.46166387204654
 20
61.91669577922143
 30
0.0
 10
34.34605072014264
 20
61.25083784135382
 30
0.0
 10
34.16682093778888
 20
60.12149285187655
 30
0.0
 10
34.10309201739782
 20
59.65831995276203
 30
0.0
 10
34.05724002204165
 20
59.30517477988328
 30
0.0
  0
ELLIPSE
  5
A2
330
1F
100
AcDbEntity
  8
0
  6
Continuous
 62
     7
370
    25
100
AcDbEllipse
 10
70.0726640039
 20
29.9596357616
 30
0.0
 11
7.123298708129483
 21
-7.123298708129452
 31
0.0
210
0.0
220
0.0
230
1.0
 40
0.5773502692
 41
5.235987755982996
 42
5.759586531581305
  0
ELLIPSE
  5
A3
330
1F
100
AcDbEntity
  8
0
  6
Continuous
 62
     7
370
    25
100
AcDbEllipse
 10
70.0726640039
 20
22.4971323531
 30
0.0
 11
0.0
 21
-9.497731610839285
 31
-7.105427357601002E-15
210
-6.462640379921281E-31
220
-7.481183559126828E-16
230
1.0
 40
0.8660254038
 41
0.0
 42
1.490398624394457
  0
ELLIPSE
  5
A4
330
1F
100
AcDbEntity
  8
0
  6
Continuous
 62
     7
370
    25
100
AcDbEllipse
 10
95.9235341143
 20
29.9596357616
 30
0.0
 11
7.12329870812947
 21
7.123298708129452
 31
0.0
210
0.0
220
0.0
230
1.0
 40
0.5773502692
 41
3.665191429188112
 42
4.188790204786406
  0
ELLIPSE
  5
A5
330
1F
100
AcDbEntity
  8
0
  6
Continuous
 62
     7
370
    25
100
AcDbEllipse
 10
95.9235341143
 20
22.4971323531
 30
0.0
 11
0.0
 21
-9.497731610839285
 31
-7.105427357601002E-15
210
6.462640379921295E-31
220
-7.481183559126828E-16
230
1.0
 40
0.8660254038
 41
4.792786682785141
 42
6.283185307179586
  0
LINE
  5
A6
330
1F
100
AcDbEntity
  8
0
  6
HIDDEN
 62
     7
370
    18
100
AcDbLine
 10
118.2713889357
 20
12.9994007423
 30
0.0
 11
122.9249268416
 21
12.9994007423
 31
0.0
  0
LINE
  5
A7
330
1F
100
AcDbEntity
  8
0
  6
HIDDEN
 62
     7
370
    18
100
AcDbLine
 10
43.0688577054
 20
12.9994007423
 30
0.0
 11
47.7223956113
 21
12.9994007423
 31
0.0
  0
LWPOLYLINE
  5
A8
330
1F
100
AcDbEntity
  8
0
  6
HIDDEN
 62
     7
370
    18
100
AcDbPolyline
 90
       15
 70
   128
 43
0.0
 10
47.7469125449
 20
16.5245193937
 10
47.6786235174
 20
16.2433140231
 10
47.4777251447
 20
15.9784512865
 10
47.1558929101
 20
15.7453240434
 10
46.7318305333
 20
15.5574808019
 10
46.2301829781
 20
15.4258383282
 10
45.6801041772
 20
15.3580472045
 10
45.1135627108
 20
15.3580472045
 10
44.5634839099
 20
15.4258383282
 10
44.0618363547
 20
15.5574808019
 10
43.6377739779
 20
15.7453240434
 10
43.3159417433
 20
15.9784512865
 10
43.1150433706
 20
16.2433140231
 10
43.046754343
 20
16.5245193937
 10
43.046754343
 20
16.5245193937
  0
LWPOLYLINE
  5
A9
330
1F
100
AcDbEntity
  8
0
  6
HIDDEN
 62
     7
370
    18
100
AcDbPolyline
 90
       15
 70
   128
 43
0.0
 10
122.9494437752
 20
16.5245193937
 10
122.8811547477
 20
16.2433140231
 10
122.680256375
 20
15.9784512865
 10
122.3584241404
 20
15.7453240434
 10
121.9343617636
 20
15.5574808019
 10
121.4327142084
 20
15.4258383282
 10
120.8826354075
 20
15.3580472045
 10
120.3160939411
 20
15.3580472045
 10
119.7660151402
 20
15.4258383282
 10
119.264367585
 20
15.5574808019
 10
118.8403052082
 20
15.7453240434
 10
118.5184729736
 20
15.9784512865
 10
118.3175746009
 20
16.2433140231
 10
118.2492855733
 20
16.5245193937
 10
118.2492855733
 20
16.5245193937
  0
LWPOLYLINE
  5
AA
330
1F
100
AcDbEntity
  8
0
  6
HIDDEN
 62
     7
370
    18
100
AcDbPolyline
 90
       14
 70
   128
 43
0.0
 10
122.9494437752
 20
49.352186835
 10
122.8811547477
 20
49.0709814644
 10
122.680256375
 20
48.8061187279
 10
122.3584241404
 20
48.5729914848
 10
121.9343617636
 20
48.3851482432
 10
121.4327142084
 20
48.2535057695
 10
120.8826354075
 20
48.1857146459
 10
120.3160939411
 20
48.1857146459
 10
119.7660151402
 20
48.2535057695
 10
119.264367585
 20
48.3851482432
 10
118.8403052082
 20
48.5729914848
 10
118.5184729736
 20
48.8061187279
 10
118.3175746009
 20
49.0709814644
 10
118.2492855733
 20
49.352186835
  0
LWPOLYLINE
  5
AB
330
1F
100
AcDbEntity
  8
0
  6
HIDDEN
 62
     7
370
    18
100
AcDbPolyline
 90
       15
 70
   128
 43
0.0
 10
47.7469125449
 20
49.352186835
 10
47.6786235174
 20
49.0709814644
 10
47.4777251447
 20
48.8061187279
 10
47.1558929101
 20
48.5729914848
 10
46.7318305333
 20
48.3851482432
 10
46.2301829781
 20
48.2535057695
 10
45.6801041772
 20
48.1857146459
 10
45.1135627108
 20
48.1857146459
 10
44.5634839099
 20
48.2535057695
 10
44.0618363547
 20
48.3851482432
 10
43.6377739779
 20
48.5729914848
 10
43.3159417433
 20
48.8061187279
 10
43.1150433706
 20
49.0709814644
 10
43.046754343
 20
49.352186835
 10
43.046754343
 20
49.352186835
  0
ELLIPSE
  5
AC
330
1F
100
AcDbEntity
  8
0
  6
HIDDEN
 62
     7
370
    18
100
AcDbEllipse
 10
70.0726640039
 20
29.9596357616
 30
0.0
 11
7.123298708129483
 21
-7.123298708129452
 31
0.0
210
0.0
220
0.0
230
1.0
 40
0.5773502692
 41
5.759586531581305
 42
6.806784082777888
  0
LINE
  5
AD
330
1F
100
AcDbEntity
  8
0
  6
HIDDEN
 62
     7
370
    18
100
AcDbLine
 10
78.2979408572
 20
22.4971323531
 30
0.0
 11
78.2979408572
 21
25.846997335
 31
0.0
  0
ELLIPSE
  5
AE
330
1F
100
AcDbEntity
  8
0
  6
HIDDEN
 62
     7
370
    18
100
AcDbEllipse
 10
70.0726640039
 20
22.4971323531
 30
0.0
 11
0.0
 21
-9.497731610839285
 31
-7.105427357601002E-15
210
-6.462640379921281E-31
220
-7.481183559126828E-16
230
1.0
 40
0.8660254038
 41
1.490398624394457
 42
1.570796326794897
  0
ELLIPSE
  5
AF
330
1F
100
AcDbEntity
  8
0
  6
HIDDEN
 62
     7
370
    18
100
AcDbEllipse
 10
95.9235341143
 20
29.9596357616
 30
0.0
 11
7.12329870812947
 21
7.123298708129452
 31
0.0
210
0.0
220
0.0
230
1.0
 40
0.5773502692
 41
2.617993877991492
 42
3.665191429188112
  0
LINE
  5
B0
330
1F
100
AcDbEntity
  8
0
  6
HIDDEN
 62
     7
370
    18
100
AcDbLine
 10
87.698257261
 20
29.9596357616
 30
0.0
 11
87.698257261
 21
25.846997335
 31
0.0
  0
LINE
  5
B1
330
1F
100
AcDbEntity
  8
0
  6
HIDDEN
 62
     7
370
    18
100
AcDbLine
 10
78.2979408572
 20
25.846997335
 30
0.0
 11
78.2979408572
 21
29.9596357616
 31
0.0
  0
LINE
  5
B2
330
1F
100
AcDbEntity
  8
0
  6
HIDDEN
 62
     7
370
    18
100
AcDbLine
 10
87.698257261
 20
25.846997335
 30
0.0
 11
87.698257261
 21
22.4971323531
 31
0.0
  0
ELLIPSE
  5
B3
330
1F
100
AcDbEntity
  8
0
  6
HIDDEN
 62
     7
370
    18
100
AcDbEllipse
 10
95.9235341143
 20
22.4971323531
 30
0.0
 11
0.0
 21
-9.497731610839285
 31
-7.105427357601002E-15
210
6.462640379921295E-31
220
-7.481183559126828E-16
230
1.0
 40
0.8660254038
 41
4.712388980384702
 42
4.792786682785141
  0
LINE
  5
B4
330
1F
100
AcDbEntity
  8
0
  6
HIDDEN
 62
     7
370
    18
100
AcDbLine
 10
78.2979408572
 20
98.6676918869
 30
0.0
 11
78.2979408572
 21
29.9596357616
 31
0.0
  0
LINE
  5
B5
330
1F
100
AcDbEntity
  8
0
  6
HIDDEN
 62
     7
370
    18
100
AcDbLine
 10
87.698257261
 20
29.9596357616
 30
0.0
 11
87.698257261
 21
98.6676918869
 31
0.0
  0
LINE
  5
B6
330
1F
100
AcDbEntity
  8
0
  6
Continuous
 62
     7
370
    25
100
AcDbLine
 10
60.6723476001
 20
147.1042944156
 30
0.0
 11
105.3238505181
 21
147.1042944156
 31
0.0
  0
SPLINE
  5
B7
330
1F
100
AcDbEntity
  8
0
  6
Continuous
 62
     7
370
    25
100
AcDbSpline
210
0.0
220
0.0
230
1.0
 70
     8
 71
     3
 72
    34
 73
    30
 74
     0
 42
0.00000001
 43
0.00000001
 40
0.0
 40
0.0
 40
0.0
 40
0.0
 40
0.1250000000000001
 40
0.1250000000000001
 40
0.1875000000000003
 40
0.1875000000000003
 40
0.2187500000000002
 40
0.2187500000000002
 40
0.2500000000000002
 40
0.2500000000000002
 40
0.3750000000000001
 40
0.3750000000000001
 40
0.4062500000000001
 40
0.4062500000000001
 40
0.4375000000000001
 40
0.4375000000000001
 40
0.5000000000000001
 40
0.5000000000000001
 40
0.5625000000000001
 40
0.5625000000000001
 40
0.625
 40
0.625
 40
0.7500000000000001
 40
0.7500000000000001
 40
0.8125000000000001
 40
0.8125000000000001
 40
0.8750000000000001
 40
0.8750000000000001
 40
1.0
 40
1.0
 40
1.0
 40
1.0
 10
78.29794085724787
 20
193.1647644238924
 30
0.0
 10
75.2612811783056
 20
192.9855725150582
 30
0.0
 10
72.31757461322928
 20
192.6376510608601
 30
0.0
 10
68.03586956176972
 20
191.8467245295792
 30
0.0
 10
66.63113643794047
 20
191.537654712828
 30
0.0
 10
64.55869537430684
 20
190.9985566379044
 30
0.0
 10
63.87405849659335
 20
190.8062218656834
 30
0.0
 10
62.53296981221008
 20
190.4000770372602
 30
0.0
 10
61.87437418557996
 20
190.1857335182827
 30
0.0
 10
58.63977515754151
 20
189.0562699772701
 30
0.0
 10
56.23780827502353
 20
187.9695316433079
 30
0.0
 10
53.45839464594827
 20
186.3429230427658
 30
0.0
 10
52.91230597394878
 20
186.0030975264845
 30
0.0
 10
51.85225284459894
 20
185.3016816596406
 30
0.0
 10
51.33773527359952
 20
184.9398959708963
 30
0.0
 10
49.83873076357736
 20
183.8209019435285
 30
0.0
 10
48.89873764517705
 20
183.0300810582863
 30
0.0
 10
47.12853625583519
 20
181.3559414640084
 30
0.0
 10
46.29835177646198
 20
180.4726161989259
 30
0.0
 10
44.74039247184642
 20
178.6098944952987
 30
0.0
 10
44.01096691840277
 20
177.627111956497
 30
0.0
 10
41.99811256188865
 20
174.581395459484
 30
0.0
 10
40.87631549168542
 20
172.4085909207353
 30
0.0
 10
39.448197126244
 20
168.939210883416
 30
0.0
 10
39.0144725946333
 20
167.7465304538723
 30
0.0
 10
38.22366373527166
 20
165.2958712201756
 30
0.0
 10
37.86903999999931
 20
164.0459686881925
 30
0.0
 10
36.90817220764659
 20
160.2245441086439
 30
0.0
 10
36.40421343743762
 20
157.5814856753856
 30
0.0
 10
35.99651704020797
 20
154.8460509409999
 30
0.0
  0
LINE
  5
B8
330
1F
100
AcDbEntity
  8
0
  6
Continuous
 62
     7
370
    25
100
AcDbLine
 10
78.2979408572
 20
190.9525903911
 30
0.0
 11
78.2979408572
 21
193.1647644239
 31
0.0
  0
LINE
  5
B9
330
1F
100
AcDbEntity
  8
0
  6
Continuous
 62
     7
370
    25
100
AcDbLine
 10
87.698257261
 20
190.9525903911
 30
0.0
 11
78.2979408572
 21
190.9525903911
 31
0.0
  0
LINE
  5
BA
330
1F
100
AcDbEntity
  8
0
  6
Continuous
 62
     7
370
    25
100
AcDbLine
 10
87.698257261
 20
193.1647644239
 30
0.0
 11
87.698257261
 21
190.9525903911
 31
0.0
  0
SPLINE
  5
BB
330
1F
100
AcDbEntity
  8
0
  6
Continuous
 62
     7
370
    25
100
AcDbSpline
210
0.0
220
0.0
230
1.0
 70
     8
 71
     3
 72
    34
 73
    30
 74
     0
 42
0.00000001
 43
0.00000001
 40
0.0
 40
0.0
 40
0.0
 40
0.0
 40
0.1250000000000005
 40
0.1250000000000005
 40
0.2500000000000009
 40
0.2500000000000009
 40
0.3125000000000011
 40
0.3125000000000011
 40
0.3437500000000012
 40
0.3437500000000012
 40
0.3750000000000013
 40
0.3750000000000013
 40
0.5000000000000012
 40
0.5000000000000012
 40
0.5625000000000012
 40
0.5625000000000012
 40
0.5937500000000011
 40
0.5937500000000011
 40
0.625000000000001
 40
0.625000000000001
 40
0.7500000000000004
 40
0.7500000000000004
 40
0.7812500000000004
 40
0.7812500000000004
 40
0.8125000000000003
 40
0.8125000000000003
 40
0.8750000000000002
 40
0.8750000000000002
 40
1.0
 40
1.0
 40
1.0
 40
1.0
 10
129.9996810780744
 20
154.8460509410005
 30
0.0
 10
129.5914352814385
 20
157.5851718649844
 30
0.0
 10
129.0885144885587
 20
160.217448210384
 30
0.0
 10
127.8218223393351
 20
165.2653964418069
 30
0.0
 10
127.0584297727343
 20
167.6810680240337
 30
0.0
 10
125.6473445108254
 20
171.1356339680372
 30
0.0
 10
125.132441938731
 20
172.258955172706
 30
0.0
 10
124.281828430853
 20
173.9003797553519
 30
0.0
 10
123.9852255330345
 20
174.4402583789023
 30
0.0
 10
123.3636710093985
 20
175.5052355622443
 30
0.0
 10
123.0396759688133
 20
176.0285428064128
 30
0.0
 10
121.3611809078528
 20
178.5825854318379
 30
0.0
 10
119.8222720749899
 20
180.4428793285346
 30
0.0
 10
117.164113179953
 20
182.9718852424285
 30
0.0
 10
116.2196179615717
 20
183.7712619907758
 30
0.0
 10
114.7061067478655
 20
184.9058294737946
 30
0.0
 10
114.1870060106607
 20
185.271971171577
 30
0.0
 10
113.1278673700398
 20
185.9751219878323
 30
0.0
 10
112.5866008353371
 20
186.3130670532984
 30
0.0
 10
109.8213985123544
 20
187.9375598807387
 30
0.0
 10
107.4219817747894
 20
189.0298527908145
 30
0.0
 10
104.1726800321436
 20
190.1688116903205
 30
0.0
 10
103.5102407006218
 20
190.3851900638825
 30
0.0
 10
102.1594383690608
 20
190.7955361627197
 30
0.0
 10
101.472161163191
 20
190.9890602685514
 30
0.0
 10
99.39873504796006
 20
191.5298219652653
 30
0.0
 10
97.9923631572248
 20
191.8401155052639
 30
0.0
 10
93.70261636410979
 20
192.6345810071899
 30
0.0
 10
90.74943550669043
 20
192.9847157810287
 30
0.0
 10
87.69825726103453
 20
193.1647644238924
 30
0.0
  0
SPLINE
  5
BC
330
1F
100
AcDbEntity
  8
0
  6
Continuous
 62
     7
370
    25
100
AcDbSpline
210
0.0
220
0.0
230
1.0
 70
     8
 71
     3
 72
    14
 73
    10
 74
     0
 42
0.00000001
 43
0.00000001
 40
0.0
 40
0.0
 40
0.0
 40
0.0
 40
0.25
 40
0.25
 40
0.5
 40
0.5
 40
0.75
 40
0.75
 40
1.0
 40
1.0
 40
1.0
 40
1.0
 10
129.9974712187199
 20
122.6448647041867
 30
0.0
 10
129.6528604927823
 20
122.1694927211288
 30
0.0
 10
129.265372138404
 20
121.7370845139669
 30
0.0
 10
128.397107517995
 20
120.9659814195969
 30
0.0
 10
127.9105434136009
 20
120.6248252055696
 30
0.0
 10
126.8885602123977
 20
120.0747974728083
 30
0.0
 10
126.3494030458869
 20
119.8606370904066
 30
0.0
 10
125.2097075504914
 20
119.5650378239534
 30
0.0
 10
124.6298792670231
 20
119.4891374628234
 30
0.0
 10
124.0407680255655
 20
119.4891164558192
 30
0.0
  0
LINE
  5
BD
330
1F
100
AcDbEntity
  8
0
  6
Continuous
 62
     7
370
    25
100
AcDbLine
 10
124.0407680256
 20
119.4891164555
 30
0.0
 11
105.3238505181
 21
119.4891164552
 31
0.0
  0
LINE
  5
BE
330
1F
100
AcDbEntity
  8
0
  6
Continuous
 62
     7
370
    25
100
AcDbLine
 10
105.3238505181
 20
162.1057505328
 30
0.0
 11
105.3238505181
 21
119.4891164552
 31
0.0
  0
LINE
  5
BF
330
1F
100
AcDbEntity
  8
0
  6
Continuous
 62
     7
370
    25
100
AcDbLine
 10
60.6723476001
 20
119.4891164552
 30
0.0
 11
60.6723476001
 21
162.1057505328
 31
0.0
  0
LINE
  5
C0
330
1F
100
AcDbEntity
  8
0
  6
Continuous
 62
     7
370
    25
100
AcDbLine
 10
60.6723476001
 20
119.4891164552
 30
0.0
 11
41.9554300927
 21
119.4891164555
 31
0.0
  0
SPLINE
  5
C1
330
1F
100
AcDbEntity
  8
0
  6
Continuous
 62
     7
370
    25
100
AcDbSpline
210
0.0
220
0.0
230
1.0
 70
     8
 71
     3
 72
    18
 73
    14
 74
     0
 42
0.00000001
 43
0.00000001
 40
0.0
 40
0.0
 40
0.0
 40
0.0
 40
0.2499999999999994
 40
0.2499999999999994
 40
0.3749999999999992
 40
0.3749999999999992
 40
0.4999999999999989
 40
0.4999999999999989
 40
0.6249999999999987
 40
0.6249999999999987
 40
0.7499999999999983
 40
0.7499999999999983
 40
1.0
 40
1.0
 40
1.0
 40
1.0
 10
41.95543009271681
 20
119.4891164558192
 30
0.0
 10
41.36656661663221
 20
119.4891374539301
 30
0.0
 10
40.79091442332536
 20
119.5648367658526
 30
0.0
 10
39.94564264657587
 20
119.7826559202494
 30
0.0
 10
39.66518483350945
 20
119.8736066691411
 30
0.0
 10
39.12011994071032
 20
120.0877158308033
 30
0.0
 10
38.85615652191627
 20
120.2103144493271
 30
0.0
 10
38.34462390597084
 20
120.4852360234579
 30
0.0
 10
38.09705833909521
 20
120.6375655983243
 30
0.0
 10
37.6183553305606
 20
120.9719936793183
 30
0.0
 10
37.38656564800242
 20
121.1549126865952
 30
0.0
 10
36.73151847511481
 20
121.7359837457398
 30
0.0
 10
36.34323497680974
 20
122.1695863134249
 30
0.0
 10
35.99870590879943
 20
122.6448495319727
 30
0.0
  0
SPLINE
  5
C2
330
1F
100
AcDbEntity
  8
0
  6
Continuous
 62
     7
370
    25
100
AcDbSpline
210
0.0
220
0.0
230
1.0
 70
     8
 71
     3
 72
    14
 73
    10
 74
     0
 42
0.00000001
 43
0.00000001
 40
0.0
 40
0.0
 40
0.0
 40
0.0
 40
0.2500000000000001
 40
0.2500000000000001
 40
0.5000000000000002
 40
0.5000000000000002
 40
0.7500000000000001
 40
0.7500000000000001
 40
1.0
 40
1.0
 40
1.0
 40
1.0
 10
131.9389580962418
 20
128.1554471451947
 30
0.0
 10
131.8930539730218
 20
130.4865369519046
 30
0.0
 10
131.8291724834412
 20
132.8001996259812
 30
0.0
 10
131.6498956954784
 20
137.3691147400708
 30
0.0
 10
131.5344157448468
 20
139.6245288554692
 30
0.0
 10
131.2320551055096
 20
144.0832683196994
 30
0.0
 10
131.0456642231408
 20
146.2745714190136
 30
0.0
 10
130.5874875492493
 20
150.59788968971
 30
0.0
 10
130.3151250850025
 20
152.7295826592878
 30
0.0
 10
129.9996810780744
 20
154.8460509410006
 30
0.0
  0
LINE
  5
C3
330
1F
100
AcDbEntity
  8
0
  6
Continuous
 62
     7
370
    25
100
AcDbLine
 10
87.698257261
 20
193.1647644239
 30
0.0
 11
87.698257261
 21
195.6527485929
 31
0.0
  0
LINE
  5
C4
330
1F
100
AcDbEntity
  8
0
  6
Continuous
 62
     7
370
    25
100
AcDbLine
 10
87.698257261
 20
195.6527485929
 30
0.0
 11
132.349760179
 21
195.6527485929
 31
0.0
  0
LINE
  5
C5
330
1F
100
AcDbEntity
  8
0
  6
Continuous
 62
     7
370
    25
100
AcDbLine
 10
132.349760179
 20
126.4549930265
 30
0.0
 11
132.349760179
 21
195.6527485929
 31
0.0
  0
ELLIPSE
  5
C6
330
1F
100
AcDbEntity
  8
0
  6
Continuous
 62
     7
370
    25
100
AcDbEllipse
 10
82.9980990591
 20
126.454989714
 30
0.0
 11
0.0
 21
85.47958449755359
 31
0.0
210
0.0
220
0.0
230
1.0
 40
0.5773502692
 41
4.699966300621236
 42
4.712389019137101
  0
ELLIPSE
  5
C7
330
1F
100
AcDbEntity
  8
0
  6
Continuous
 62
     7
370
    25
100
AcDbEllipse
 10
82.9980990591
 20
126.454989714
 30
0.0
 11
0.0
 21
85.47958449755362
 31
0.0
210
0.0
220
0.0
230
1.0
 40
0.5773502692
 41
1.570796326794897
 42
1.583219006558357
  0
LINE
  5
C8
330
1F
100
AcDbEntity
  8
0
  6
Continuous
 62
     7
370
    25
100
AcDbLine
 10
33.6464379393
 20
126.454989714
 30
0.0
 11
33.6464379393
 21
195.6527485929
 31
0.0
  0
LINE
  5
C9
330
1F
100
AcDbEntity
  8
0
  6
Continuous
 62
     7
370
    25
100
AcDbLine
 10
33.6464379393
 20
195.6527485929
 30
0.0
 11
78.2979408572
 21
195.6527485929
 31
0.0
  0
LINE
  5
CA
330
1F
100
AcDbEntity
  8
0
  6
Continuous
 62
     7
370
    25
100
AcDbLine
 10
78.2979408572
 20
195.6527485929
 30
0.0
 11
78.2979408572
 21
193.1647644239
 31
0.0
  0
SPLINE
  5
CB
330
1F
100
AcDbEntity
  8
0
  6
Continuous
 62
     7
370
    25
100
AcDbSpline
210
0.0
220
0.0
230
1.0
 70
     8
 71
     3
 72
    14
 73
    10
 74
     0
 42
0.00000001
 43
0.00000001
 40
0.0
 40
0.0
 40
0.0
 40
0.0
 40
0.2500000000000001
 40
0.2500000000000001
 40
0.5000000000000001
 40
0.5000000000000001
 40
0.7500000000000001
 40
0.7500000000000001
 40
1.0
 40
1.0
 40
1.0
 40
1.0
 10
35.99651704020797
 20
154.8460509409998
 30
0.0
 10
35.68117244910968
 20
152.7302496887632
 30
0.0
 10
35.40846885661636
 20
150.5961062976428
 30
0.0
 10
34.94997822372629
 20
146.2688298956327
 30
0.0
 10
34.76346724461616
 20
144.0742688583083
 30
0.0
 10
34.46166387204654
 20
139.6218131336108
 30
0.0
 10
34.34605072014264
 20
137.3638696077199
 30
0.0
 10
34.16682093778888
 20
132.7938103126126
 30
0.0
 10
34.10309201739782
 20
130.4838898099095
 30
0.0
 10
34.05724002204165
 20
128.1554471451924
 30
0.0
  0
SPLINE
  5
CC
330
1F
100
AcDbEntity
  8
0
  6
Continuous
 62
     7
370
    25
100
AcDbSpline
210
0.0
220
0.0
230
1.0
 70
     8
 71
     3
 72
    18
 73
    14
 74
     0
 42
0.00000001
 43
0.00000001
 40
0.0
 40
0.0
 40
0.0
 40
0.0
 40
0.1250000000000002
 40
0.1250000000000002
 40
0.2500000000000004
 40
0.2500000000000004
 40
0.5000000000000002
 40
0.5000000000000002
 40
0.6250000000000002
 40
0.6250000000000002
 40
0.7500000000000001
 40
0.7500000000000001
 40
1.0
 40
1.0
 40
1.0
 40
1.0
 10
131.9389580962421
 20
128.1554471451947
 30
0.0
 10
131.9438768550368
 20
127.905664169639
 30
0.0
 10
131.9387944959392
 20
127.6564213187921
 30
0.0
 10
131.905130394231
 20
127.1592466927131
 30
0.0
 10
131.876499120264
 20
126.9113193733366
 30
0.0
 10
131.752021380942
 20
126.1699267244171
 30
0.0
 10
131.6205482676292
 20
125.6961517616746
 30
0.0
 10
131.3623636797713
 20
125.0089142942306
 30
0.0
 10
131.2660100102563
 20
124.783310965602
 30
0.0
 10
131.0538310698532
 20
124.3372402737264
 30
0.0
 10
130.937713147494
 20
124.1164194078653
 30
0.0
 10
130.5683361488356
 20
123.4683160042748
 30
0.0
 10
130.292711353658
 20
123.0523340996727
 30
0.0
 10
129.997471200946
 20
122.6448639226525
 30
0.0
  0
SPLINE
  5
CD
330
1F
100
AcDbEntity
  8
0
  6
Continuous
 62
     7
370
    25
100
AcDbSpline
210
0.0
220
0.0
230
1.0
 70
     8
 71
     3
 72
    16
 73
    12
 74
     0
 42
0.00000001
 43
0.00000001
 40
0.0
 40
0.0
 40
0.0
 40
0.0
 40
0.2499999999999993
 40
0.2499999999999993
 40
0.4999999999999986
 40
0.4999999999999986
 40
0.7499999999999978
 40
0.7499999999999978
 40
0.8749999999999989
 40
0.8749999999999989
 40
1.0
 40
1.0
 40
1.0
 40
1.0
 10
35.99870592623645
 20
122.6448487652134
 30
0.0
 10
35.7033654462821
 20
123.0524588107652
 30
0.0
 10
35.42852829595626
 20
123.4674286916103
 30
0.0
 10
34.93825061462343
 20
124.3270180208257
 30
0.0
 10
34.7218626930239
 20
124.7753170937877
 30
0.0
 10
34.37681404300805
 20
125.6922782592002
 30
0.0
 10
34.24647638361161
 20
126.1616987889668
 30
0.0
 10
34.12188754016183
 20
126.8956336535384
 30
0.0
 10
34.09211962098543
 20
127.147448375131
 30
0.0
 10
34.05741454623855
 20
127.652618240816
 30
0.0
 10
34.05229652163158
 20
127.9044077482065
 30
0.0
 10
34.05724002204035
 20
128.1554471451948
 30
0.0
  0
SPLINE
  5
CE
330
1F
100
AcDbEntity
  8
0
  6
Continuous
 62
     7
370
    25
100
AcDbSpline
210
0.0
220
0.0
230
1.0
 70
     8
 71
     3
 72
    26
 73
    22
 74
     0
 42
0.00000001
 43
0.00000001
 40
0.0
 40
0.0
 40
0.0
 40
0.0
 40
0.1250000000000013
 40
0.1250000000000013
 40
0.2500000000000026
 40
0.2500000000000026
 40
0.3750000000000038
 40
0.3750000000000038
 40
0.4375000000000044
 40
0.4375000000000044
 40
0.5000000000000051
 40
0.5000000000000051
 40
0.6250000000000042
 40
0.6250000000000042
 40
0.7500000000000034
 40
0.7500000000000034
 40
0.8750000000000026
 40
0.8750000000000026
 40
0.9375000000000013
 40
0.9375000000000013
 40
1.0
 40
1.0
 40
1.0
 40
1.0
 10
33.65024593781067
 20
125.3931315214585
 30
0.0
 10
33.65360943968617
 20
124.9241943383669
 30
0.0
 10
33.71077510638872
 20
124.4650282682404
 30
0.0
 10
33.92382608239776
 20
123.5646247890902
 30
0.0
 10
34.07973018573434
 20
123.1233907932857
 30
0.0
 10
34.49652204281247
 20
122.2599890810896
 30
0.0
 10
34.75213302647214
 20
121.8508061117154
 30
0.0
 10
35.19876776547728
 20
121.2753277143613
 30
0.0
 10
35.35842340935843
 20
121.0895445383641
 30
0.0
 10
35.69971116506508
 20
120.7303005339713
 30
0.0
 10
35.88235426770219
 20
120.5560710026185
 30
0.0
 10
36.45326149159448
 20
120.0627135013002
 30
0.0
 10
36.8664260740418
 20
119.7703244126039
 30
0.0
 10
37.75739352343995
 20
119.258038337364
 30
0.0
 10
38.2393316818012
 20
119.0366675709773
 30
0.0
 10
39.22865924823992
 20
118.6827499552076
 30
0.0
 10
39.73940639441967
 20
118.5474292057223
 30
0.0
 10
40.53033986462462
 20
118.4086855655975
 30
0.0
 10
40.79872493059052
 20
118.3732834282695
 30
0.0
 10
41.33569971255494
 20
118.3260909662667
 30
0.0
 10
41.60525310278135
 20
118.3140792883085
 30
0.0
 10
41.87591157653038
 20
118.3140769046847
 30
0.0
  0
SPLINE
  5
CF
330
1F
100
AcDbEntity
  8
0
  6
Continuous
 62
     7
370
    25
100
AcDbSpline
210
0.0
220
0.0
230
1.0
 70
     8
 71
     3
 72
    26
 73
    22
 74
     0
 42
0.00000001
 43
0.00000001
 40
0.0
 40
0.0
 40
0.0
 40
0.0
 40
0.1249999999999984
 40
0.1249999999999984
 40
0.2499999999999968
 40
0.2499999999999968
 40
0.3749999999999952
 40
0.3749999999999952
 40
0.4374999999999946
 40
0.4374999999999946
 40
0.4999999999999941
 40
0.4999999999999941
 40
0.6249999999999952
 40
0.6249999999999952
 40
0.7499999999999963
 40
0.7499999999999963
 40
0.8749999999999973
 40
0.8749999999999973
 40
0.9374999999999987
 40
0.9374999999999987
 40
1.0
 40
1.0
 40
1.0
 40
1.0
 10
124.1202865417519
 20
118.3140769046847
 30
0.0
 10
124.6618924361447
 20
118.3140816744772
 30
0.0
 10
125.1922616747766
 20
118.361688244069
 30
0.0
 10
126.2328476383796
 20
118.5422733961684
 30
0.0
 10
126.7430542339165
 20
118.6752948899569
 30
0.0
 10
127.7424692288787
 20
119.0302924516294
 30
0.0
 10
128.2173964661595
 20
119.2475403987612
 30
0.0
 10
128.8855950966251
 20
119.6291255745361
 30
0.0
 10
129.1013182965537
 20
119.7658499405635
 30
0.0
 10
129.5181330739516
 20
120.0591896363273
 30
0.0
 10
129.720173933398
 20
120.2166440629096
 30
0.0
 10
130.292584664184
 20
120.7091664261904
 30
0.0
 10
130.6327304811253
 20
121.0656679204483
 30
0.0
 10
131.2324063587711
 20
121.8334109601786
 30
0.0
 10
131.492798128867
 20
122.2487561262535
 30
0.0
 10
131.9078522616055
 20
123.1026894819427
 30
0.0
 10
132.066346288199
 20
123.5441201030373
 30
0.0
 10
132.2299261798745
 20
124.2281423581551
 30
0.0
 10
132.2719604005795
 20
124.4604257351748
 30
0.0
 10
132.3290045407638
 20
124.9253312420028
 30
0.0
 10
132.3442709894071
 20
125.1587409869168
 30
0.0
 10
132.3459521804729
 20
125.3931315214586
 30
0.0
  0
LINE
  5
D0
330
1F
100
AcDbEntity
  8
0
  6
Continuous
 62
     7
370
    25
100
AcDbLine
 10
124.1202865418
 20
118.3140769047
 30
0.0
 11
105.3238505181
 21
118.3140769047
 31
0.0
  0
LINE
  5
D1
330
1F
100
AcDbEntity
  8
0
  6
Continuous
 62
     7
370
    25
100
AcDbLine
 10
105.3238505181
 20
119.4891164552
 30
0.0
 11
105.3238505181
 21
118.3140769047
 31
0.0
  0
LINE
  5
D2
330
1F
100
AcDbEntity
  8
0
  6
Continuous
 62
     7
370
    25
100
AcDbLine
 10
60.6723476001
 20
118.3140769047
 30
0.0
 11
41.8759115765
 21
118.3140769047
 31
0.0
  0
LINE
  5
D3
330
1F
100
AcDbEntity
  8
0
  6
Continuous
 62
     7
370
    25
100
AcDbLine
 10
60.6723476001
 20
118.3140769047
 30
0.0
 11
60.6723476001
 21
119.4891164552
 31
0.0
  0
LWPOLYLINE
  5
D4
330
1F
100
AcDbEntity
  8
0
  6
HIDDEN
 62
     7
370
    18
100
AcDbPolyline
 90
       27
 70
   128
 43
0.0
 10
118.2492855733
 20
132.6878760836
 10
118.3175746009
 20
132.2008140944
 10
118.5184729736
 20
131.7420583776
 10
118.8403052082
 20
131.3382701479
 10
119.264367585
 20
131.0129161097
 10
119.7660151402
 20
130.7849046568
 10
120.3160939411
 20
130.6674869863
 10
120.8826354075
 20
130.6674869863
 10
121.4327142084
 20
130.7849046568
 10
121.9343617636
 20
131.0129161097
 10
122.3584241404
 20
131.3382701479
 10
122.680256375
 20
131.7420583776
 10
122.8811547477
 20
132.2008140944
 10
122.9494437752
 20
132.6878760836
 10
122.8811547477
 20
133.1749380728
 10
122.680256375
 20
133.6336937896
 10
122.3584241404
 20
134.0374820192
 10
121.9343617636
 20
134.3628360575
 10
121.4327142084
 20
134.5908475103
 10
120.8826354075
 20
134.7082651808
 10
120.3160939411
 20
134.7082651808
 10
119.7660151402
 20
134.5908475103
 10
119.264367585
 20
134.3628360575
 10
118.8403052082
 20
134.0374820192
 10
118.5184729736
 20
133.6336937896
 10
118.3175746009
 20
133.1749380728
 10
118.2492855733
 20
132.6878760836
  0
LWPOLYLINE
  5
D5
330
1F
100
AcDbEntity
  8
0
  6
HIDDEN
 62
     7
370
    18
100
AcDbPolyline
 90
       27
 70
   128
 43
0.0
 10
43.046754343
 20
132.6878760836
 10
43.1150433706
 20
132.2008140944
 10
43.3159417433
 20
131.7420583776
 10
43.6377739779
 20
131.3382701479
 10
44.0618363547
 20
131.0129161097
 10
44.5634839099
 20
130.7849046568
 10
45.1135627108
 20
130.6674869863
 10
45.6801041772
 20
130.6674869863
 10
46.2301829781
 20
130.7849046568
 10
46.7318305333
 20
131.0129161097
 10
47.1558929101
 20
131.3382701479
 10
47.4777251447
 20
131.7420583776
 10
47.6786235174
 20
132.2008140944
 10
47.7469125449
 20
132.6878760836
 10
47.6786235174
 20
133.1749380728
 10
47.4777251447
 20
133.6336937896
 10
47.1558929101
 20
134.0374820192
 10
46.7318305333
 20
134.3628360575
 10
46.2301829781
 20
134.5908475103
 10
45.6801041772
 20
134.7082651808
 10
45.1135627108
 20
134.7082651808
 10
44.5634839099
 20
134.5908475103
 10
44.0618363547
 20
134.3628360575
 10
43.6377739779
 20
134.0374820192
 10
43.3159417433
 20
133.6336937896
 10
43.1150433706
 20
133.1749380728
 10
43.046754343
 20
132.6878760836
  0
ELLIPSE
  5
D6
330
1F
100
AcDbEntity
  8
0
  6
HIDDEN
 62
     7
370
    18
100
AcDbEllipse
 10
70.0726640039
 20
182.7273135377
 30
0.0
 11
7.945007340993016
 21
7.94500734099296
 31
0.0
210
0.0
220
0.0
230
1.0
 40
0.2679491924
 41
4.450589592585546
 42
6.021385919380489
  0
ELLIPSE
  5
D7
330
1F
100
AcDbEntity
  8
0
  6
HIDDEN
 62
     7
370
    18
100
AcDbEllipse
 10
95.9235341143
 20
182.7273135377
 30
0.0
 11
7.94500734099303
 21
-7.945007340993016
 31
0.0
210
0.0
220
0.0
230
1.0
 40
0.2679491924
 41
3.403392041388999
 42
4.974188368183847
  0
LINE
  5
D8
330
1F
100
AcDbEntity
  8
0
  6
HIDDEN
 62
     7
370
    18
100
AcDbLine
 10
87.698257261
 20
190.9525903911
 30
0.0
 11
87.698257261
 21
189.8506122459
 31
0.0
  0
LINE
  5
D9
330
1F
100
AcDbEntity
  8
0
  6
HIDDEN
 62
     7
370
    18
100
AcDbLine
 10
78.2979408572
 20
189.8506122459
 30
0.0
 11
78.2979408572
 21
190.9525903911
 31
0.0
  0
LWPOLYLINE
  5
DA
330
1F
100
AcDbEntity
  8
0
  6
HIDDEN
 62
     7
370
    18
100
AcDbPolyline
 90
       27
 70
   128
 43
0.0
 10
43.046754343
 20
189.547063986
 10
43.1150433706
 20
189.0600019968
 10
43.3159417433
 20
188.60124628
 10
43.6377739779
 20
188.1974580503
 10
44.0618363547
 20
187.8721040121
 10
44.5634839099
 20
187.6440925592
 10
45.1135627108
 20
187.5266748887
 10
45.6801041772
 20
187.5266748887
 10
46.2301829781
 20
187.6440925592
 10
46.7318305333
 20
187.8721040121
 10
47.1558929101
 20
188.1974580503
 10
47.4777251447
 20
188.60124628
 10
47.6786235174
 20
189.0600019968
 10
47.7469125449
 20
189.547063986
 10
47.6786235174
 20
190.0341259752
 10
47.4777251447
 20
190.492881692
 10
47.1558929101
 20
190.8966699216
 10
46.7318305333
 20
191.2220239599
 10
46.2301829781
 20
191.4500354127
 10
45.6801041772
 20
191.5674530832
 10
45.1135627108
 20
191.5674530832
 10
44.5634839099
 20
191.4500354127
 10
44.0618363547
 20
191.2220239599
 10
43.6377739779
 20
190.8966699216
 10
43.3159417433
 20
190.492881692
 10
43.1150433706
 20
190.0341259752
 10
43.046754343
 20
189.547063986
  0
LWPOLYLINE
  5
DB
330
1F
100
AcDbEntity
  8
0
  6
HIDDEN
 62
     7
370
    18
100
AcDbPolyline
 90
       27
 70
   128
 43
0.0
 10
118.2492855733
 20
189.547063986
 10
118.3175746009
 20
189.0600019968
 10
118.5184729736
 20
188.60124628
 10
118.8403052082
 20
188.1974580503
 10
119.264367585
 20
187.8721040121
 10
119.7660151402
 20
187.6440925592
 10
120.3160939411
 20
187.5266748887
 10
120.8826354075
 20
187.5266748887
 10
121.4327142084
 20
187.6440925592
 10
121.9343617636
 20
187.8721040121
 10
122.3584241404
 20
188.1974580503
 10
122.680256375
 20
188.60124628
 10
122.8811547477
 20
189.0600019968
 10
122.9494437752
 20
189.547063986
 10
122.8811547477
 20
190.0341259752
 10
122.680256375
 20
190.492881692
 10
122.3584241404
 20
190.8966699216
 10
121.9343617636
 20
191.2220239599
 10
121.4327142084
 20
191.4500354127
 10
120.8826354075
 20
191.5674530832
 10
120.3160939411
 20
191.5674530832
 10
119.7660151402
 20
191.4500354127
 10
119.264367585
 20
191.2220239599
 10
118.8403052082
 20
190.8966699216
 10
118.5184729736
 20
190.492881692
 10
118.3175746009
 20
190.0341259752
 10
118.2492855733
 20
189.547063986
  0
LINE
  5
DC
330
1F
100
AcDbEntity
  8
0
  6
HIDDEN
 62
     7
370
    18
100
AcDbLine
 10
122.9494437752
 20
130.7490608253
 30
0.0
 11
122.9494437752
 21
132.6878760836
 31
0.0
  0
LINE
  5
DD
330
1F
100
AcDbEntity
  8
0
  6
HIDDEN
 62
     7
370
    18
100
AcDbLine
 10
118.2492855733
 20
132.6878760836
 30
0.0
 11
118.2492855733
 21
130.7490608253
 31
0.0
  0
LINE
  5
DE
330
1F
100
AcDbEntity
  8
0
  6
HIDDEN
 62
     7
370
    18
100
AcDbLine
 10
47.7469125449
 20
130.7490608253
 30
0.0
 11
47.7469125449
 21
132.6878760836
 31
0.0
  0
LINE
  5
DF
330
1F
100
AcDbEntity
  8
0
  6
HIDDEN
 62
     7
370
    18
100
AcDbLine
 10
43.046754343
 20
132.6878760836
 30
0.0
 11
43.046754343
 21
130.7490608253
 31
0.0
  0
SPLINE
  5
E0
330
1F
100
AcDbEntity
  8
0
  6
HIDDEN
 62
     7
370
    18
100
AcDbSpline
210
0.0
220
0.0
230
1.0
 70
     8
 71
     3
 72
    22
 73
    18
 74
     0
 42
0.00000001
 43
0.00000001
 40
0.0
 40
0.0
 40
0.0
 40
0.0
 40
0.0436483558831559
 40
0.1130822339071625
 40
0.1825255884748314
 40
0.2523772460448064
 40
0.322909971313636
 40
0.3941536491458974
 40
0.4659885572835609
 40
0.5382666660112035
 40
0.6108714391216387
 40
0.6836628299538029
 40
0.756456149149917
 40
0.8289483661869377
 40
0.9007764182528925
 40
0.971694849836029
 40
0.9999999999999999
 40
0.9999999999999999
 40
0.9999999999999999
 40
0.9999999999999999
 10
118.2492855733411
 20
130.7490608253071
 30
0.0
 10
118.2537672080936
 20
130.6512685470334
 30
0.0
 10
118.2653780296035
 20
130.3979126287562
 30
0.0
 10
118.3822293814503
 20
129.9993403361327
 30
0.0
 10
118.615082663193
 20
129.5830166995811
 30
0.0
 10
118.943833207414
 20
129.2234345969358
 30
0.0
 10
119.3519956852893
 20
128.9363265580604
 30
0.0
 10
119.8223779457441
 20
128.7353159505923
 30
0.0
 10
120.3331994364509
 20
128.6311518788752
 30
0.0
 10
120.859980753288
 20
128.630406926518
 30
0.0
 10
121.3765878259752
 20
128.7347958559612
 30
0.0
 10
121.8569467423191
 20
128.9408834412901
 30
0.0
 10
122.2750172738953
 20
129.2398128711699
 30
0.0
 10
122.6104030445864
 20
129.6169376526092
 30
0.0
 10
122.835141032669
 20
130.0519452752385
 30
0.0
 10
122.9454922922124
 20
130.4282288312667
 30
0.0
 10
122.9374224621693
 20
130.6507888247012
 30
0.0
 10
122.9351204111131
 20
130.7142777042975
 30
0.0
  0
SPLINE
  5
E1
330
1F
100
AcDbEntity
  8
0
  6
HIDDEN
 62
     7
370
    18
100
AcDbSpline
210
0.0
220
0.0
230
1.0
 70
     8
 71
     3
 72
    22
 73
    18
 74
     0
 42
0.00000001
 43
0.00000001
 40
0.0
 40
0.0
 40
0.0
 40
0.0
 40
0.0436483558831559
 40
0.1130822339071632
 40
0.1825255884748326
 40
0.252377246044809
 40
0.322909971313637
 40
0.3941536491458998
 40
0.4659885572835612
 40
0.5382666660112049
 40
0.610871439121642
 40
0.6836628299538066
 40
0.756456149149924
 40
0.8289483661869416
 40
0.9007764182529002
 40
0.9716948498360356
 40
1.0
 40
1.0
 40
1.0
 40
1.0
 10
43.04675434304797
 20
130.7490608253071
 30
0.0
 10
43.0512359778004
 20
130.6512685470334
 30
0.0
 10
43.06284679931034
 20
130.3979126287562
 30
0.0
 10
43.17969815115713
 20
129.9993403361327
 30
0.0
 10
43.41255143289979
 20
129.5830166995811
 30
0.0
 10
43.74130197712086
 20
129.2234345969358
 30
0.0
 10
44.14946445499614
 20
128.9363265580604
 30
0.0
 10
44.61984671545095
 20
128.7353159505923
 30
0.0
 10
45.13066820615776
 20
128.6311518788752
 30
0.0
 10
45.65744952299482
 20
128.630406926518
 30
0.0
 10
46.17405659568207
 20
128.7347958559613
 30
0.0
 10
46.6544155120259
 20
128.9408834412901
 30
0.0
 10
47.07248604360206
 20
129.2398128711699
 30
0.0
 10
47.40787181429323
 20
129.6169376526093
 30
0.0
 10
47.6326098023758
 20
130.0519452752386
 30
0.0
 10
47.74296106191917
 20
130.4282288312667
 30
0.0
 10
47.73489123187608
 20
130.6507888247012
 30
0.0
 10
47.73258918081982
 20
130.7142777042976
 30
0.0
  0
LINE
  5
E2
330
1F
100
AcDbEntity
  8
0
  6
HIDDEN
 62
     7
370
    18
100
AcDbLine
 10
47.7469125449
 20
187.6082487277
 30
0.0
 11
47.7469125449
 21
189.547063986
 31
0.0
  0
LINE
  5
E3
330
1F
100
AcDbEntity
  8
0
  6
HIDDEN
 62
     7
370
    18
100
AcDbLine
 10
43.046754343
 20
189.547063986
 30
0.0
 11
43.046754343
 21
187.6082487277
 31
0.0
  0
LINE
  5
E4
330
1F
100
AcDbEntity
  8
0
  6
HIDDEN
 62
     7
370
    18
100
AcDbLine
 10
122.9494437752
 20
187.6082487277
 30
0.0
 11
122.9494437752
 21
189.547063986
 31
0.0
  0
LINE
  5
E5
330
1F
100
AcDbEntity
  8
0
  6
HIDDEN
 62
     7
370
    18
100
AcDbLine
 10
118.2492855733
 20
189.547063986
 30
0.0
 11
118.2492855733
 21
187.6082487277
 31
0.0
  0
SPLINE
  5
E6
330
1F
100
AcDbEntity
  8
0
  6
HIDDEN
 62
     7
370
    18
100
AcDbSpline
210
0.0
220
0.0
230
1.0
 70
     8
 71
     3
 72
    22
 73
    18
 74
     0
 42
0.00000001
 43
0.00000001
 40
0.0
 40
0.0
 40
0.0
 40
0.0
 40
0.0436483558831561
 40
0.1130822339071637
 40
0.1825255884748333
 40
0.2523772460448094
 40
0.3229099713136334
 40
0.3941536491459008
 40
0.4659885572835623
 40
0.5382666660112041
 40
0.6108714391216412
 40
0.6836628299538057
 40
0.7564561491499217
 40
0.8289483661869437
 40
0.9007764182529011
 40
0.97169484983604
 40
0.9999999999999999
 40
0.9999999999999999
 40
0.9999999999999999
 40
0.9999999999999999
 10
43.04675434304797
 20
187.6082487276976
 30
0.0
 10
43.0512359778004
 20
187.5104564494239
 30
0.0
 10
43.06284679931034
 20
187.2571005311468
 30
0.0
 10
43.17969815115713
 20
186.8585282385233
 30
0.0
 10
43.41255143289979
 20
186.4422046019716
 30
0.0
 10
43.74130197712086
 20
186.0826224993263
 30
0.0
 10
44.14946445499611
 20
185.795514460451
 30
0.0
 10
44.61984671545095
 20
185.5945038529829
 30
0.0
 10
45.13066820615775
 20
185.4903397812657
 30
0.0
 10
45.65744952299484
 20
185.4895948289085
 30
0.0
 10
46.17405659568204
 20
185.5939837583518
 30
0.0
 10
46.65441551202588
 20
185.8000713436806
 30
0.0
 10
47.07248604360205
 20
186.0990007735604
 30
0.0
 10
47.40787181429322
 20
186.4761255549998
 30
0.0
 10
47.6326098023758
 20
186.9111331776291
 30
0.0
 10
47.74296106191915
 20
187.2874167336572
 30
0.0
 10
47.73489123187609
 20
187.5099767270918
 30
0.0
 10
47.73258918081983
 20
187.573465606688
 30
0.0
  0
SPLINE
  5
E7
330
1F
100
AcDbEntity
  8
0
  6
HIDDEN
 62
     7
370
    18
100
AcDbSpline
210
0.0
220
0.0
230
1.0
 70
     8
 71
     3
 72
    22
 73
    18
 74
     0
 42
0.00000001
 43
0.00000001
 40
0.0
 40
0.0
 40
0.0
 40
0.0
 40
0.0436483558831561
 40
0.1130822339071637
 40
0.1825255884748333
 40
0.2523772460448094
 40
0.3229099713136334
 40
0.3941536491459008
 40
0.4659885572835623
 40
0.5382666660112041
 40
0.6108714391216412
 40
0.6836628299538057
 40
0.7564561491499217
 40
0.8289483661869437
 40
0.9007764182529011
 40
0.97169484983604
 40
0.9999999999999999
 40
0.9999999999999999
 40
0.9999999999999999
 40
0.9999999999999999
 10
118.2492855733412
 20
187.6082487276976
 30
0.0
 10
118.2537672080936
 20
187.5104564494239
 30
0.0
 10
118.2653780296035
 20
187.2571005311468
 30
0.0
 10
118.3822293814503
 20
186.8585282385233
 30
0.0
 10
118.615082663193
 20
186.4422046019716
 30
0.0
 10
118.9438332074141
 20
186.0826224993263
 30
0.0
 10
119.3519956852893
 20
185.795514460451
 30
0.0
 10
119.8223779457442
 20
185.5945038529829
 30
0.0
 10
120.333199436451
 20
185.4903397812657
 30
0.0
 10
120.859980753288
 20
185.4895948289085
 30
0.0
 10
121.3765878259753
 20
185.5939837583518
 30
0.0
 10
121.8569467423191
 20
185.8000713436806
 30
0.0
 10
122.2750172738953
 20
186.0990007735604
 30
0.0
 10
122.6104030445864
 20
186.4761255549998
 30
0.0
 10
122.835141032669
 20
186.9111331776291
 30
0.0
 10
122.9454922922124
 20
187.2874167336572
 30
0.0
 10
122.9374224621693
 20
187.5099767270918
 30
0.0
 10
122.935120411113
 20
187.573465606688
 30
0.0
  0
LINE
  5
E8
330
1F
100
AcDbEntity
  8
0
  6
Continuous
 62
     7
370
    25
100
AcDbLine
 10
254.64347693
 20
11.9913533094
 30
0.0
 11
256.5822921883
 21
15.3494798432
 31
0.0
  0
LINE
  5
E9
330
1F
100
AcDbEntity
  8
0
  6
Continuous
 62
     7
370
    25
100
AcDbLine
 10
252.5118357837
 20
17.6995589442
 30
0.0
 11
250.5730205254
 21
14.3414324103
 31
0.0
  0
ARC
  5
EA
330
1F
100
AcDbEntity
  8
0
  6
Continuous
 62
     7
370
    25
100
AcDbCircle
 10
251.081827576
 20
14.0476725227
 30
0.0
 40
0.5875197752366973
100
AcDbArc
 50
150.0
 51
240.0
  0
ARC
  5
EB
330
1F
100
AcDbEntity
  8
0
  6
Continuous
 62
     7
370
    25
100
AcDbCircle
 10
254.1346698794
 20
12.285113197
 30
0.0
 40
0.5875197752366834
100
AcDbArc
 50
240.0
 51
330.0
  0
LINE
  5
EC
330
1F
100
AcDbEntity
  8
0
  6
Continuous
 62
     7
370
    25
100
AcDbLine
 10
197.7842890276
 20
44.8190207507
 30
0.0
 11
199.7231042859
 21
48.1771472846
 31
0.0
  0
LINE
  5
ED
330
1F
100
AcDbEntity
  8
0
  6
Continuous
 62
     7
370
    25
100
AcDbLine
 10
195.6526478813
 20
50.5272263855
 30
0.0
 11
193.713832623
 21
47.1690998517
 31
0.0
  0
ARC
  5
EE
330
1F
100
AcDbEntity
  8
0
  6
Continuous
 62
     7
370
    25
100
AcDbCircle
 10
194.2226396736
 20
46.8753399641
 30
0.0
 40
0.587519775236663
100
AcDbArc
 50
150.0
 51
240.0
  0
ARC
  5
EF
330
1F
100
AcDbEntity
  8
0
  6
Continuous
 62
     7
370
    25
100
AcDbCircle
 10
197.275481977
 20
45.1127806383
 30
0.0
 40
0.5875197752366753
100
AcDbArc
 50
240.0
 51
330.0
  0
SPLINE
  5
F0
330
1F
100
AcDbEntity
  8
0
  6
Continuous
 62
     7
370
    25
100
AcDbSpline
210
0.0
220
0.0
230
1.0
 70
     8
 71
     3
 72
    18
 73
    14
 74
     0
 42
0.00000001
 43
0.00000001
 40
0.0
 40
0.0
 40
0.0
 40
0.0
 40
0.1250000000000002
 40
0.1250000000000002
 40
0.2500000000000004
 40
0.2500000000000004
 40
0.5000000000000002
 40
0.5000000000000002
 40
0.6250000000000002
 40
0.6250000000000002
 40
0.7500000000000001
 40
0.7500000000000001
 40
1.0
 40
1.0
 40
1.0
 40
1.0
 10
193.1554471451947
 20
59.30517477987222
 30
0.0
 10
192.905664169639
 20
59.26729123933182
 30
0.0
 10
192.6564213187921
 20
59.24558621545352
 30
0.0
 10
192.1592466927131
 20
59.23695635891461
 30
0.0
 10
191.9113193733365
 20
59.24997438533477
 30
0.0
 10
191.1699267244171
 20
59.32789451646879
 30
0.0
 10
190.6961517616746
 20
59.42644471167988
 30
0.0
 10
190.0089142942306
 20
59.56731255423881
 30
0.0
 10
189.783310965602
 20
59.61371721440127
 30
0.0
 10
189.3372402737264
 20
59.69760617156695
 30
0.0
 10
189.1164194078653
 20
59.73511627270011
 30
0.0
 10
188.4683160042748
 20
59.82306124587441
 30
0.0
 10
188.0523340996727
 20
59.84983493869461
 30
0.0
 10
187.6448639226525
 20
59.82446773195044
 30
0.0
  0
LINE
  5
F1
330
1F
100
AcDbEntity
  8
0
  6
Continuous
 62
     7
370
    25
100
AcDbLine
 10
184.4891164552
 20
59.6861318627
 30
0.0
 11
183.3140769047
 21
57.6509036603
 31
0.0
  0
SPLINE
  5
F2
330
1F
100
AcDbEntity
  8
0
  6
Continuous
 62
     7
370
    25
100
AcDbSpline
210
0.0
220
0.0
230
1.0
 70
     8
 71
     3
 72
    14
 73
    10
 74
     0
 42
0.00000001
 43
0.00000001
 40
0.0
 40
0.0
 40
0.0
 40
0.0
 40
0.25
 40
0.25
 40
0.5
 40
0.5
 40
0.75
 40
0.75
 40
1.0
 40
1.0
 40
1.0
 40
1.0
 10
187.6448647041867
 20
59.82446882105925
 30
0.0
 10
187.1694927211288
 20
59.79519886219982
 30
0.0
 10
186.7370845139669
 20
59.77237643168936
 30
0.0
 10
185.9659814195969
 20
59.7361147221833
 30
0.0
 10
185.6248252055696
 20
59.72261280730697
 30
0.0
 10
185.0747974728083
 20
59.70293302396402
 30
0.0
 10
184.8606370904066
 20
59.69649007672908
 30
0.0
 10
184.5650378239534
 20
59.68802537082865
 30
0.0
 10
184.4891374628234
 20
59.68613241145776
 30
0.0
 10
184.4891164558192
 20
59.68613186259227
 30
0.0
  0
SPLINE
  5
F3
330
1F
100
AcDbEntity
  8
0
  6
Continuous
 62
     7
370
    25
100
AcDbSpline
210
0.0
220
0.0
230
1.0
 70
    24
 71
     3
 72
    26
 73
    22
 74
     0
 42
0.00000001
 43
0.00000001
 40
0.0
 40
0.0
 40
0.0
 40
0.0
 40
0.1249999999999984
 40
0.1249999999999984
 40
0.2499999999999968
 40
0.2499999999999968
 40
0.3749999999999952
 40
0.3749999999999952
 40
0.4374999999999946
 40
0.4374999999999946
 40
0.4999999999999941
 40
0.4999999999999941
 40
0.6249999999999952
 40
0.6249999999999952
 40
0.7499999999999963
 40
0.7499999999999963
 40
0.8749999999999973
 40
0.8749999999999973
 40
0.9374999999999987
 40
0.9374999999999987
 40
1.0
 40
1.0
 40
1.0
 40
1.0
 10
183.3140769046847
 20
57.65090366025181
 30
0.0
 10
183.3140816744772
 20
57.65090090641084
 30
0.0
 10
183.361688244069
 20
57.62341524064178
 30
0.0
 10
183.5422733961684
 20
57.51915435446558
 30
0.0
 10
183.6752948899569
 20
57.44235435921874
 30
0.0
 10
184.0302924516294
 20
57.23739642142545
 30
0.0
 10
184.2475403987612
 20
57.11196826066803
 30
0.0
 10
184.6291255745361
 20
56.89165995671561
 30
0.0
 10
184.7658499405635
 20
56.81272210718494
 30
0.0
 10
185.0591896363273
 20
56.64336235487171
 30
0.0
 10
185.2166440629096
 20
56.55245599929929
 30
0.0
 10
185.7091664261904
 20
56.26809808027726
 30
0.0
 10
186.0656679204483
 20
56.06227184660094
 30
0.0
 10
186.8334109601786
 20
55.61901519594418
 30
0.0
 10
187.2487561262535
 20
55.37921555250419
 30
0.0
 10
188.1026894819427
 20
54.88619689972705
 30
0.0
 10
188.5441201030373
 20
54.63133681180954
 30
0.0
 10
189.2281423581551
 20
54.2364163786856
 30
0.0
 10
189.4604257351748
 20
54.10230750843498
 30
0.0
 10
189.9253312420028
 20
53.83389418892008
 30
0.0
 10
190.1587409869169
 20
53.69913500986258
 30
0.0
 10
190.3931315214586
 20
53.56380957164943
 30
0.0
  0
SPLINE
  5
F4
330
1F
100
AcDbEntity
  8
0
  6
Continuous
 62
     7
370
    25
100
AcDbSpline
210
0.0
220
0.0
230
1.0
 70
     8
 71
     3
 72
    14
 73
    10
 74
     0
 42
0.00000001
 43
0.00000001
 40
0.0
 40
0.0
 40
0.0
 40
0.0
 40
0.2500000000000001
 40
0.2500000000000001
 40
0.5000000000000002
 40
0.5000000000000002
 40
0.7500000000000001
 40
0.7500000000000001
 40
1.0
 40
1.0
 40
1.0
 40
1.0
 10
193.1554471451947
 20
59.30517477987225
 30
0.0
 10
195.4865369519046
 20
59.65872143372038
 30
0.0
 10
197.8001996259812
 20
60.12289013865355
 30
0.0
 10
202.3691147400708
 20
61.25231610137299
 30
0.0
 10
204.6245288554692
 20
61.91744494117824
 30
0.0
 10
209.0832683196994
 20
63.42267083754799
 30
0.0
 10
211.2745714190136
 20
64.25896933769334
 30
0.0
 10
215.59788968971
 20
66.05397210798627
 30
0.0
 10
217.7295826592878
 20
67.01331236497147
 30
0.0
 10
219.8460509410006
 20
67.99859390951528
 30
0.0
  0
SPLINE
  5
F5
330
1F
100
AcDbEntity
  8
0
  6
Continuous
 62
     7
370
    25
100
AcDbSpline
210
0.0
220
0.0
230
1.0
 70
     8
 71
     3
 72
    34
 73
    30
 74
     0
 42
0.00000001
 43
0.00000001
 40
0.0
 40
0.0
 40
0.0
 40
0.0
 40
0.1250000000000005
 40
0.1250000000000005
 40
0.2500000000000009
 40
0.2500000000000009
 40
0.3125000000000011
 40
0.3125000000000011
 40
0.3437500000000012
 40
0.3437500000000012
 40
0.3750000000000013
 40
0.3750000000000013
 40
0.5000000000000012
 40
0.5000000000000012
 40
0.5625000000000012
 40
0.5625000000000012
 40
0.5937500000000011
 40
0.5937500000000011
 40
0.625000000000001
 40
0.625000000000001
 40
0.7500000000000004
 40
0.7500000000000004
 40
0.7812500000000004
 40
0.7812500000000004
 40
0.8125000000000003
 40
0.8125000000000003
 40
0.8750000000000002
 40
0.8750000000000002
 40
1.0
 40
1.0
 40
1.0
 40
1.0
 10
219.8460509410006
 20
67.99859390951528
 30
0.0
 10
222.5851718649844
 20
69.27373954623188
 30
0.0
 10
225.217448210384
 20
70.66813728471726
 30
0.0
 10
230.2653964418069
 20
73.66465863008008
 30
0.0
 10
232.6810680240337
 20
75.26696975978558
 30
0.0
 10
236.1356339680372
 20
77.80156750283648
 30
0.0
 10
237.258955172706
 20
78.66825400150468
 30
0.0
 10
238.9003797553519
 20
79.99731279179821
 30
0.0
 10
239.4402583789023
 20
80.44516503432233
 30
0.0
 10
240.5052355622443
 20
81.34983427357695
 30
0.0
 10
241.0285428064128
 20
81.80517478898938
 30
0.0
 10
243.5825854318379
 20
84.07907172639925
 30
0.0
 10
245.4428793285346
 20
85.90380205813136
 30
0.0
 10
247.9718852424285
 20
88.58575962921802
 30
0.0
 10
248.7712619907758
 20
89.47047893032008
 30
0.0
 10
249.9058294737946
 20
90.77444375244839
 30
0.0
 10
250.271971171577
 20
91.20378774157693
 30
0.0
 10
250.9751219878324
 20
92.04345861930204
 30
0.0
 10
251.3130670532984
 20
92.45485645414435
 30
0.0
 10
252.9375598807387
 20
94.46678264771228
 30
0.0
 10
254.0298527908145
 20
95.93283675081757
 30
0.0
 10
255.1688116903205
 20
97.53491934469808
 30
0.0
 10
255.3851900638825
 20
97.84375791459271
 30
0.0
 10
255.7955361627197
 20
98.43671689973691
 30
0.0
 10
255.9890602685514
 20
98.720216036292
 30
0.0
 10
256.5298219652653
 20
99.52113737985913
 30
0.0
 10
256.8401155052639
 20
99.99296308879306
 30
0.0
 10
257.6345810071899
 20
101.2192312966578
 30
0.0
 10
257.9847157810287
 20
101.7861643855769
 30
0.0
 10
258.1647644238923
 20
102.078079684517
 30
0.0
  0
LINE
  5
F6
330
1F
100
AcDbEntity
  8
0
  6
Continuous
 62
     7
370
    25
100
AcDbLine
 10
258.1647644239
 20
102.0780796845
 30
0.0
 11
260.6527485929
 21
102.0780796845
 31
0.0
  0
LINE
  5
F7
330
1F
100
AcDbEntity
  8
0
  6
Continuous
 62
     7
370
    25
100
AcDbLine
 10
260.6527485929
 20
102.0780796845
 30
0.0
 11
260.6527485929
 21
52.9507435459
 31
0.0
  0
LINE
  5
F8
330
1F
100
AcDbEntity
  8
0
  6
Continuous
 62
     7
370
    25
100
AcDbLine
 10
191.4549930265
 20
52.9507435459
 30
0.0
 11
190.3931315215
 21
53.5638095716
 31
0.0
  0
ARC
  5
F9
330
1F
100
AcDbEntity
  8
0
  6
Continuous
 62
     7
370
    25
100
AcDbCircle
 10
182.1566269869
 20
148.9586715611
 30
0.0
 40
89.3030058359732
100
AcDbArc
 50
273.5223845002
 51
294.9634365959
  0
LINE
  5
FA
330
1F
100
AcDbEntity
  8
0
  6
Continuous
 62
     7
370
    25
100
AcDbLine
 10
260.6527485929
 20
12.9994007423
 30
0.0
 11
260.6527485929
 21
52.9507435459
 31
0.0
  0
LINE
  5
FB
330
1F
100
AcDbEntity
  8
0
  6
Continuous
 62
     7
370
    25
100
AcDbLine
 10
260.6527485929
 20
12.9994007423
 30
0.0
 11
191.4549930265
 21
52.9507435459
 31
0.0
  0
LINE
  5
FC
330
1F
100
AcDbEntity
  8
0
  6
Continuous
 62
     7
370
    25
100
AcDbLine
 10
250.7880676883
 20
13.5388654721
 30
0.0
 11
253.8409099918
 21
11.7763061464
 31
0.0
  0
LINE
  5
FD
330
1F
100
AcDbEntity
  8
0
  6
Continuous
 62
     7
370
    25
100
AcDbLine
 10
193.9288797859
 20
46.3665329135
 30
0.0
 11
196.9817220894
 21
44.6039735878
 31
0.0
  0
ARC
  5
FE
330
1F
100
AcDbEntity
  8
0
  6
HIDDEN
 62
     7
370
    18
100
AcDbCircle
 10
231.2458013857
 20
64.6851948251
 30
0.0
 40
8.225276853313236
100
AcDbArc
 50
120.2207360633
 51
150.0
  0
LINE
  5
FF
330
1F
100
AcDbEntity
  8
0
  6
HIDDEN
 62
     7
370
    18
100
AcDbLine
 10
213.2062725608
 20
49.8903680624
 30
0.0
 11
224.1225026775
 21
68.7978332518
 31
0.0
  0
ARC
  5
100
330
1F
100
AcDbEntity
  8
0
  6
HIDDEN
 62
     7
370
    18
100
AcDbCircle
 10
220.3295712689
 20
45.7777296357
 30
0.0
 40
8.22527685331336
100
AcDbArc
 50
150.0
 51
240.0
  0
ARC
  5
101
330
1F
100
AcDbEntity
  8
0
  6
HIDDEN
 62
     7
370
    18
100
AcDbCircle
 10
247.7273135377
 20
29.9596357616
 30
0.0
 40
8.22527685331328
100
AcDbArc
 50
240.0
 51
330.0
  0
ARC
  5
102
330
1F
100
AcDbEntity
  8
0
  6
HIDDEN
 62
     7
370
    18
100
AcDbCircle
 10
247.7273135377
 20
29.9596357616
 30
0.0
 40
8.225276853313318
100
AcDbArc
 50
330.0
 51
0.0
  0
LINE
  5
103
330
1F
100
AcDbEntity
  8
0
  6
HIDDEN
 62
     7
370
    18
100
AcDbLine
 10
255.9525903911
 20
29.9596357616
 30
0.0
 11
255.9525903911
 21
98.6676918869
 31
0.0
  0
LINE
  5
104
330
1F
100
AcDbEntity
  8
0
  6
HIDDEN
 62
     7
370
    18
100
AcDbLine
 10
184.4891164552
 20
59.6861318626
 30
0.0
 11
187.6432687637
 21
59.824370569
 31
0.0
  0
LWPOLYLINE
  5
105
330
1F
100
AcDbEntity
  8
0
  6
HIDDEN
 62
     7
370
    18
100
AcDbPolyline
 90
        3
 70
   128
 43
0.0
 10
219.846050941
 20
67.9985939095
 10
221.0263860204
 20
68.558617556
 10
223.0730761864
 20
69.5806454062
  0
ENDSEC
  0
SECTION
  2
OBJECTS
  0
DICTIONARY
  5
C
330
0
100
AcDbDictionary
281
     1
  3
ACAD_GROUP
350
D
  3
ACAD_LAYOUT
350
1A
  3
ACAD_MLINESTYLE
350
17
  3
ACAD_PLOTSETTINGS
350
19
  3
ACAD_PLOTSTYLENAME
350
E
  3
ACAD_SCALELIST
350
47
  3
DWGPROPS
350
106
  0
DICTIONARY
  5
D
102
{ACAD_REACTORS
330
C
102
}
330
C
100
AcDbDictionary
281
     1
  0
DICTIONARY
  5
1A
102
{ACAD_REACTORS
330
C
102
}
330
C
100
AcDbDictionary
281
     1
  3
Layout1
350
1E
  3
Layout2
350
26
  3
Model
350
22
  0
DICTIONARY
  5
17
102
{ACAD_REACTORS
330
C
102
}
330
C
100
AcDbDictionary
281
     1
  3
Standard
350
18
  0
DICTIONARY
  5
19
102
{ACAD_REACTORS
330
C
102
}
330
C
100
AcDbDictionary
281
     1
  0
ACDBDICTIONARYWDFLT
  5
E
102
{ACAD_REACTORS
330
C
102
}
330
C
100
AcDbDictionary
281
     1
  3
Normal
350
F
100
AcDbDictionaryWithDefault
340
F
  0
DICTIONARY
  5
47
102
{ACAD_REACTORS
330
C
102
}
330
C
100
AcDbDictionary
281
     1
  3
A0
350
48
  3
A1
350
49
  3
A2
350
4A
  3
A3
350
4B
  3
A4
350
4C
  3
A5
350
4D
  3
A6
350
4E
  3
A7
350
4F
  3
A8
350
50
  3
A9
350
51
  3
B0
350
52
  3
B1
350
53
  3
B2
350
54
  3
B3
350
55
  3
B4
350
56
  3
B5
350
57
  3
B6
350
58
  0
XRECORD
  5
106
102
{ACAD_REACTORS
330
C
102
}
330
C
100
AcDbXrecord
280
     1
  1
DWGPROPS COOKIE
  2

  3

  4

  6

  7

  8

  9

300
=
301
=
302
=
303
=
304
=
305
=
306
=
307
=
308
=
309
=
 40
0.0
 41
2461215.274806181
 42
2461215.274806435
  1

 90
        0
  0
LAYOUT
  5
1E
102
{ACAD_REACTORS
330
1A
102
}
330
1A
100
AcDbPlotSettings
  1

  2
none_device
  4

  6

 40
0.0
 41
0.0
 42
0.0
 43
0.0
 44
0.0
 45
0.0
 46
0.0
 47
0.0
 48
0.0
 49
0.0
140
0.0
141
0.0
142
1.0
143
1.0
 70
   688
 72
     1
 73
     0
 74
     5
  7

 75
    16
147
1.0
148
0.0
149
0.0
100
AcDbLayout
  1
Layout1
 70
     1
 71
     1
 10
0.0
 20
0.0
 11
420.0
 21
297.0
 12
0.0
 22
0.0
 32
0.0
 14
1.0000000000E+20
 24
1.0000000000E+20
 34
1.0000000000E+20
 15
-1.0000000000E+20
 25
-1.0000000000E+20
 35
-1.0000000000E+20
146
0.0
 13
0.0
 23
0.0
 33
0.0
 16
1.0
 26
0.0
 36
0.0
 17
0.0
 27
1.0
 37
0.0
 76
     0
330
1B
  0
LAYOUT
  5
26
102
{ACAD_REACTORS
330
1A
102
}
330
1A
100
AcDbPlotSettings
  1

  2
none_device
  4

  6

 40
0.0
 41
0.0
 42
0.0
 43
0.0
 44
0.0
 45
0.0
 46
0.0
 47
0.0
 48
0.0
 49
0.0
140
0.0
141
0.0
142
1.0
143
1.0
 70
   688
 72
     1
 73
     0
 74
     5
  7

 75
    16
147
1.0
148
0.0
149
0.0
100
AcDbLayout
  1
Layout2
 70
     1
 71
     2
 10
0.0
 20
0.0
 11
0.0
 21
0.0
 12
0.0
 22
0.0
 32
0.0
 14
0.0
 24
0.0
 34
0.0
 15
0.0
 25
0.0
 35
0.0
146
0.0
 13
0.0
 23
0.0
 33
0.0
 16
1.0
 26
0.0
 36
0.0
 17
0.0
 27
1.0
 37
0.0
 76
     0
330
23
  0
LAYOUT
  5
22
102
{ACAD_REACTORS
330
1A
102
}
330
1A
100
AcDbPlotSettings
  1

  2
none_device
  4
Letter_(8.50_x_11.00_Inches)
  6

 40
6.35
 41
6.35
 42
6.35000508
 43
6.35000508
 44
215.9
 45
279.4
 46
0.0
 47
0.0
 48
0.0
 49
0.0
140
0.0
141
0.0
142
1.0
143
1.0
 70
  1712
 72
     1
 73
     0
 74
     0
  7

 75
     0
147
1.0
148
0.0
149
0.0
100
AcDbLayout
  1
Model
 70
     1
 71
     0
 10
0.0
 20
0.0
 11
297.0
 21
210.0
 12
0.0
 22
0.0
 32
0.0
 14
0.0
 24
0.0
 34
0.0
 15
297.0
 25
210.0
 35
0.0
146
0.0
 13
0.0
 23
0.0
 33
0.0
 16
1.0
 26
0.0
 36
0.0
 17
0.0
 27
1.0
 37
0.0
 76
     0
330
1F
331
29
  0
MLINESTYLE
  5
18
102
{ACAD_REACTORS
330
17
102
}
330
17
100
AcDbMlineStyle
  2
Standard
 70
     0
  3

 62
   256
 51
90.0
 52
90.0
 71
     2
 49
0.5
 62
   256
  6
BYLAYER
 49
-0.5
 62
   256
  6
BYLAYER
  0
ACDBPLACEHOLDER
  5
F
102
{ACAD_REACTORS
330
E
102
}
330
E
  0
SCALE
  5
48
102
{ACAD_REACTORS
330
47
102
}
330
47
100
AcDbScale
 70
     0
300
1:1
140
1.0
141
1.0
290
     1
  0
SCALE
  5
49
102
{ACAD_REACTORS
330
47
102
}
330
47
100
AcDbScale
 70
     0
300
1:2
140
1.0
141
2.0
290
     0
  0
SCALE
  5
4A
102
{ACAD_REACTORS
330
47
102
}
330
47
100
AcDbScale
 70
     0
300
1:4
140
1.0
141
4.0
290
     0
  0
SCALE
  5
4B
102
{ACAD_REACTORS
330
47
102
}
330
47
100
AcDbScale
 70
     0
300
1:5
140
1.0
141
5.0
290
     0
  0
SCALE
  5
4C
102
{ACAD_REACTORS
330
47
102
}
330
47
100
AcDbScale
 70
     0
300
1:8
140
1.0
141
8.0
290
     0
  0
SCALE
  5
4D
102
{ACAD_REACTORS
330
47
102
}
330
47
100
AcDbScale
 70
     0
300
1:10
140
1.0
141
10.0
290
     0
  0
SCALE
  5
4E
102
{ACAD_REACTORS
330
47
102
}
330
47
100
AcDbScale
 70
     0
300
1:16
140
1.0
141
16.0
290
     0
  0
SCALE
  5
4F
102
{ACAD_REACTORS
330
47
102
}
330
47
100
AcDbScale
 70
     0
300
1:20
140
1.0
141
20.0
290
     0
  0
SCALE
  5
50
102
{ACAD_REACTORS
330
47
102
}
330
47
100
AcDbScale
 70
     0
300
1:30
140
1.0
141
30.0
290
     0
  0
SCALE
  5
51
102
{ACAD_REACTORS
330
47
102
}
330
47
100
AcDbScale
 70
     0
300
1:40
140
1.0
141
40.0
290
     0
  0
SCALE
  5
52
102
{ACAD_REACTORS
330
47
102
}
330
47
100
AcDbScale
 70
     0
300
1:50
140
1.0
141
50.0
290
     0
  0
SCALE
  5
53
102
{ACAD_REACTORS
330
47
102
}
330
47
100
AcDbScale
 70
     0
300
1:100
140
1.0
141
100.0
290
     0
  0
SCALE
  5
54
102
{ACAD_REACTORS
330
47
102
}
330
47
100
AcDbScale
 70
     0
300
2:1
140
2.0
141
1.0
290
     0
  0
SCALE
  5
55
102
{ACAD_REACTORS
330
47
102
}
330
47
100
AcDbScale
 70
     0
300
4:1
140
4.0
141
1.0
290
     0
  0
SCALE
  5
56
102
{ACAD_REACTORS
330
47
102
}
330
47
100
AcDbScale
 70
     0
300
8:1
140
8.0
141
1.0
290
     0
  0
SCALE
  5
57
102
{ACAD_REACTORS
330
47
102
}
330
47
100
AcDbScale
 70
     0
300
10:1
140
10.0
141
1.0
290
     0
  0
SCALE
  5
58
102
{ACAD_REACTORS
330
47
102
}
330
47
100
AcDbScale
 70
     0
300
100:1
140
100.0
141
1.0
290
     0
  0
ENDSEC
  0
EOF
