  0
SECTION
  2
HEADER
  9
$ACADVER
  1
AC1015
  9
$ACADMAINTVER
 70
     6
  9
$DWGCODEPAGE
  3
ANSI_936
  9
$INSBASE
 10
0.0
 20
0.0
 30
0.0
  9
$EXTMIN
 10
0.0
 20
0.0
 30
0.0
  9
$EXTMAX
 10
297.0
 20
210.0
 30
0.0
  9
$LIMMIN
 10
0.0
 20
0.0
  9
$LIMMAX
 10
297.0
 20
210.0
  9
$ORTHOMODE
 70
     0
  9
$REGENMODE
 70
     1
  9
$FILLMODE
 70
     1
  9
$QTEXTMODE
 70
     0
  9
$MIRRTEXT
 70
     1
  9
$LTSCALE
 40
1.0
  9
$ATTMODE
 70
     1
  9
$TEXTSIZE
 40
3.5
  9
$TRACEWID
 40
1.0
  9
$TEXTSTYLE
  7
Standard
  9
$CLAYER
  8
0
  9
$CELTYPE
  6
ByLayer
  9
$CECOLOR
 62
   256
  9
$CELTSCALE
 40
1.0
  9
$DISPSILH
 70
     0
  9
$DIMSCALE
 40
1.0
  9
$DIMASZ
 40
4.08
  9
$DIMEXO
 40
0.0
  9
$DIMDLI
 40
3.75
  9
$DIMRND
 40
0.0
  9
$DIMDLE
 40
0.0
  9
$DIMEXE
 40
2.0
  9
$DIMTP
 40
0.0
  9
$DIMTM
 40
0.0
  9
$DIMTXT
 40
3.5
  9
$DIMCEN
 40
2.5
  9
$DIMTSZ
 40
0.0
  9
$DIMTOL
 70
     0
  9
$DIMLIM
 70
     0
  9
$DIMTIH
 70
     1
  9
$DIMTOH
 70
     1
  9
$DIMSE1
 70
     0
  9
$DIMSE2
 70
     0
  9
$DIMTAD
 70
     1
  9
$DIMZIN
 70
     0
  9
$DIMBLK
  1

  9
$DIMASO
 70
     1
  9
$DIMSHO
 70
     1
  9
$DIMPOST
  1

  9
$DIMAPOST
  1

  9
$DIMALT
 70
     0
  9
$DIMALTD
 70
     3
  9
$DIMALTF
 40
0.0393700787
  9
$DIMLFAC
 40
2.0
  9
$DIMTOFL
 70
     1
  9
$DIMTVP
 40
0.0
  9
$DIMTIX
 70
     0
  9
$DIMSOXD
 70
     0
  9
$DIMSAH
 70
     0
  9
$DIMBLK1
  1

  9
$DIMBLK2
  1

  9
$DIMSTYLE
  2
ISO-25
  9
$DIMCLRD
 70
     0
  9
$DIMCLRE
 70
     0
  9
$DIMCLRT
 70
     0
  9
$DIMTFAC
 40
1.0
  9
$DIMGAP
 40
1.524
  9
$DIMJUST
 70
     0
  9
$DIMSD1
 70
     0
  9
$DIMSD2
 70
     0
  9
$DIMTOLJ
 70
     0
  9
$DIMTZIN
 70
     0
  9
$DIMALTZ
 70
     0
  9
$DIMALTTZ
 70
     0
  9
$DIMUPT
 70
     0
  9
$DIMDEC
 70
     2
  9
$DIMTDEC
 70
     2
  9
$DIMALTU
 70
     2
  9
$DIMALTTD
 70
     3
  9
$DIMTXSTY
  7
Standard
  9
$DIMAUNIT
 70
     0
  9
$DIMADEC
 70
     2
  9
$DIMALTRND
 40
0.0
  9
$DIMAZIN
 70
     0
  9
$DIMDSEP
 70
    44
  9
$DIMATFIT
 70
     3
  9
$DIMFRAC
 70
     0
  9
$DIMLDRBLK
  1

  9
$DIMLUNIT
 70
     2
  9
$DIMLWD
 70
    -2
  9
$DIMLWE
 70
    -2
  9
$DIMTMOVE
 70
     0
  9
$LUNITS
 70
     2
  9
$LUPREC
 70
     2
  9
$SKETCHINC
 40
1.0
  9
$FILLETRAD
 40
0.0
  9
$AUNITS
 70
     0
  9
$AUPREC
 70
     2
  9
$MENU
  1
.
  9
$ELEVATION
 40
0.0
  9
$PELEVATION
 40
0.0
  9
$THICKNESS
 40
0.0
  9
$LIMCHECK
 70
     0
  9
$CHAMFERA
 40
0.0
  9
$CHAMFERB
 40
0.0
  9
$CHAMFERC
 40
0.0
  9
$CHAMFERD
 40
0.0
  9
$SKPOLY
 70
     0
  9
$TDCREATE
 40
2461215.623185938
  9
$TDUCREATE
 40
2461215.289852605
  9
$TDUPDATE
 40
2461215.623186273
  9
$TDUUPDATE
 40
2461215.28985294
  9
$TDINDWG
 40
0.0000000116
  9
$TDUSRTIMER
 40
0.0000000116
  9
$USRTIMER
 70
     1
  9
$ANGBASE
 50
0.0
  9
$ANGDIR
 70
     0
  9
$PDMODE
 70
     0
  9
$PDSIZE
 40
-1.0
  9
$PLINEWID
 40
0.0
  9
$SPLFRAME
 70
     0
  9
$SPLINETYPE
 70
     6
  9
$SPLINESEGS
 70
     8
  9
$HANDSEED
  5
105
  9
$SURFTAB1
 70
     6
  9
$SURFTAB2
 70
     6
  9
$SURFTYPE
 70
     6
  9
$SURFU
 70
     6
  9
$SURFV
 70
     6
  9
$UCSBASE
  2

  9
$UCSNAME
  2

  9
$UCSORG
 10
0.0
 20
0.0
 30
0.0
  9
$UCSXDIR
 10
1.0
 20
0.0
 30
0.0
  9
$UCSYDIR
 10
0.0
 20
1.0
 30
0.0
  9
$UCSORTHOREF
  2

  9
$UCSORTHOVIEW
 70
     0
  9
$UCSORGTOP
 10
0.0
 20
0.0
 30
0.0
  9
$UCSORGBOTTOM
 10
0.0
 20
0.0
 30
0.0
  9
$UCSORGLEFT
 10
0.0
 20
0.0
 30
0.0
  9
$UCSORGRIGHT
 10
0.0
 20
0.0
 30
0.0
  9
$UCSORGFRONT
 10
0.0
 20
0.0
 30
0.0
  9
$UCSORGBACK
 10
0.0
 20
0.0
 30
0.0
  9
$PUCSBASE
  2

  9
$PUCSNAME
  2

  9
$PUCSORG
 10
0.0
 20
0.0
 30
0.0
  9
$PUCSXDIR
 10
1.0
 20
0.0
 30
0.0
  9
$PUCSYDIR
 10
0.0
 20
1.0
 30
0.0
  9
$PUCSORTHOREF
  2

  9
$PUCSORTHOVIEW
 70
     0
  9
$PUCSORGTOP
 10
0.0
 20
0.0
 30
0.0
  9
$PUCSORGBOTTOM
 10
0.0
 20
0.0
 30
0.0
  9
$PUCSORGLEFT
 10
0.0
 20
0.0
 30
0.0
  9
$PUCSORGRIGHT
 10
0.0
 20
0.0
 30
0.0
  9
$PUCSORGFRONT
 10
0.0
 20
0.0
 30
0.0
  9
$PUCSORGBACK
 10
0.0
 20
0.0
 30
0.0
  9
$USERI1
 70
     0
  9
$USERI2
 70
     0
  9
$USERI3
 70
     0
  9
$USERI4
 70
     0
  9
$USERI5
 70
     0
  9
$USERR1
 40
0.0
  9
$USERR2
 40
0.0
  9
$USERR3
 40
0.0
  9
$USERR4
 40
0.0
  9
$USERR5
 40
0.0
  9
$WORLDVIEW
 70
     1
  9
$SHADEDGE
 70
     3
  9
$SHADEDIF
 70
    70
  9
$TILEMODE
 70
     1
  9
$MAXACTVP
 70
    64
  9
$PINSBASE
 10
0.0
 20
0.0
 30
0.0
  9
$PLIMCHECK
 70
     0
  9
$PEXTMIN
 10
1.0000000000E+20
 20
1.0000000000E+20
 30
1.0000000000E+20
  9
$PEXTMAX
 10
-1.0000000000E+20
 20
-1.0000000000E+20
 30
-1.0000000000E+20
  9
$PLIMMIN
 10
0.0
 20
0.0
  9
$PLIMMAX
 10
420.0
 20
297.0
  9
$UNITMODE
 70
     0
  9
$VISRETAIN
 70
     1
  9
$PLINEGEN
 70
     0
  9
$PSLTSCALE
 70
     1
  9
$TREEDEPTH
 70
  3020
  9
$CMLSTYLE
  2
Standard
  9
$CMLJUST
 70
     0
  9
$CMLSCALE
 40
20.0
  9
$PROXYGRAPHICS
 70
     1
  9
$MEASUREMENT
 70
     1
  9
$CELWEIGHT
370
    -1
  9
$ENDCAPS
280
     0
  9
$JOINSTYLE
280
     0
  9
$LWDISPLAY
290
     1
  9
$INSUNITS
 70
     4
  9
$HYPERLINKBASE
  1

  9
$STYLESHEET
  1

  9
$XEDIT
290
     1
  9
$CEPSNTYPE
380
     0
  9
$PSTYLEMODE
290
     1
  9
$FINGERPRINTGUID
  2
{1349a87f-37dd-445c-9827-c101338a0de2}
  9
$VERSIONGUID
  2
{FAEB1C32-E019-11D5-929B-00C0DF256EC4}
  9
$EXTNAMES
290
     1
  9
$PSVPSCALE
 40
0.0
  9
$OLESTARTUP
290
     0
  0
ENDSEC
  0
SECTION
  2
CLASSES
  0
CLASS
  1
ACDBDICTIONARYWDFLT
  2
AcDbDictionaryWithDefault
  3
ObjectDBX Classes
 90
        0
280
     0
281
     0
  0
CLASS
  1
VISUALSTYLE
  2
AcDbVisualStyle
  3
ObjectDBX Classes
 90
     4095
280
     0
281
     0
  0
CLASS
  1
MATERIAL
  2
AcDbMaterial
  3
ObjectDBX Classes
 90
     1153
280
     0
281
     0
  0
CLASS
  1
SCALE
  2
AcDbScale
  3
ObjectDBX Classes
 90
     1153
280
     0
281
     0
  0
CLASS
  1
TABLESTYLE
  2
AcDbTableStyle
  3
ObjectDBX Classes
 90
     4095
280
     0
281
     0
  0
CLASS
  1
MLEADERSTYLE
  2
AcDbMLeaderStyle
  3
ACDB_MLEADERSTYLE_CLASS
 90
     4095
280
     0
281
     0
  0
CLASS
  1
SUN
  2
AcDbSun
  3
SCENEOE
 90
     1153
280
     0
281
     0
  0
CLASS
  1
ACDBPLACEHOLDER
  2
AcDbPlaceHolder
  3
ObjectDBX Classes
 90
        0
280
     0
281
     0
  0
CLASS
  1
LAYOUT
  2
AcDbLayout
  3
ObjectDBX Classes
 90
        0
280
     0
281
     0
  0
ENDSEC
  0
SECTION
  2
TABLES
  0
TABLE
  2
VPORT
  5
8
330
0
100
AcDbSymbolTable
 70
     1
  0
VPORT
  5
29
330
8
100
AcDbSymbolTableRecord
100
AcDbViewportTableRecord
  2
*Active
 70
     0
 10
0.0
 20
0.0
 11
1.0
 21
1.0
 12
148.5
 22
105.0
 13
0.0
 23
0.0
 14
10.0
 24
10.0
 15
10.0
 25
10.0
 16
0.0
 26
0.0
 36
1.0
 17
0.0
 27
0.0
 37
0.0
 40
210.0
 41
1.4142857143
 42
50.0
 43
0.0
 44
0.0
 50
0.0
 51
0.0
 71
     0
 72
  2000
 73
     1
 74
     3
 75
     0
 76
     0
 77
     0
 78
     0
281
     0
 65
     1
110
0.0
120
0.0
130
0.0
111
1.0
121
0.0
131
0.0
112
0.0
122
1.0
132
0.0
 79
     0
146
0.0
  0
ENDTAB
  0
TABLE
  2
LTYPE
  5
5
330
0
100
AcDbSymbolTable
 70
     6
  0
LTYPE
  5
14
330
5
100
AcDbSymbolTableRecord
100
AcDbLinetypeTableRecord
  2
ByBlock
 70
     0
  3

 72
    65
 73
     0
 40
0.0
  0
LTYPE
  5
15
330
5
100
AcDbSymbolTableRecord
100
AcDbLinetypeTableRecord
  2
ByLayer
 70
     0
  3

 72
    65
 73
     0
 40
0.0
  0
LTYPE
  5
16
330
5
100
AcDbSymbolTableRecord
100
AcDbLinetypeTableRecord
  2
Continuous
 70
     0
  3
Solid line
 72
    65
 73
     0
 40
0.0
  0
LTYPE
  5
5E
330
5
100
AcDbSymbolTableRecord
100
AcDbLinetypeTableRecord
  2
HIDDEN
 70
     0
  3
Hidden __ __ __ __ __ __ __ __ __ __ __ __ __ __
 72
    65
 73
     2
 40
1.905
 49
1.27
 74
     0
 49
-0.635
 74
     0
  0
LTYPE
  5
5F
330
5
100
AcDbSymbolTableRecord
100
AcDbLinetypeTableRecord
  2
PHANTOM
 70
     0
  3
Phantom ______  __  __  ______  __  __  ______
 72
    65
 73
     6
 40
12.7
 49
6.35
 74
     0
 49
-1.27
 74
     0
 49
1.27
 74
     0
 49
-1.27
 74
     0
 49
1.27
 74
     0
 49
-1.27
 74
     0
  0
LTYPE
  5
60
330
5
100
AcDbSymbolTableRecord
100
AcDbLinetypeTableRecord
  2
CENTER
 70
     0
  3
Center ____ _ ____ _ ____ _ ____ _ ____ _ ____
 72
    65
 73
     4
 40
10.16
 49
6.35
 74
     0
 49
-1.27
 74
     0
 49
1.27
 74
     0
 49
-1.27
 74
     0
  0
LTYPE
  5
61
330
5
100
AcDbSymbolTableRecord
100
AcDbLinetypeTableRecord
  2
CENTERX2
 70
     0
  3
Center (2x) ________  __  ________  __  _____
 72
    65
 73
     4
 40
20.32
 49
12.7
 74
     0
 49
-2.54
 74
     0
 49
2.54
 74
     0
 49
-2.54
 74
     0
  0
LTYPE
  5
62
330
5
100
AcDbSymbolTableRecord
100
AcDbLinetypeTableRecord
  2
DOT2
 70
     0
  3
Dot (.5x) ........................................
 72
    65
 73
     2
 40
0.635
 49
0.0
 74
     0
 49
-0.635
 74
     0
  0
ENDTAB
  0
TABLE
  2
LAYER
  5
2
330
0
100
AcDbSymbolTable
 70
    14
  0
LAYER
  5
10
330
2
100
AcDbSymbolTableRecord
100
AcDbLayerTableRecord
  2
0
 70
     0
 62
     7
  6
Continuous
370
    -3
390
F
  0
LAYER
  5
63
330
2
100
AcDbSymbolTableRecord
100
AcDbLayerTableRecord
  2
SLD-0
 70
     0
 62
     7
  6
Continuous
370
    -3
390
F
  0
LAYER
  5
64
330
2
100
AcDbSymbolTableRecord
100
AcDbLayerTableRecord
  2
5
 70
     0
 62
     7
  6
Continuous
370
    -3
390
F
  0
LAYER
  5
65
330
2
100
AcDbSymbolTableRecord
100
AcDbLayerTableRecord
  2
9
 70
     0
 62
     7
  6
Continuous
370
    -3
390
F
  0
LAYER
  5
66
330
2
100
AcDbSymbolTableRecord
100
AcDbLayerTableRecord
  2
10
 70
     0
 62
     7
  6
Continuous
370
    -3
390
F
  0
LAYER
  5
67
330
2
100
AcDbSymbolTableRecord
100
AcDbLayerTableRecord
  2
轮廓实线层
 70
     0
 62
     7
  6
Continuous
370
    50
390
F
  0
LAYER
  5
68
330
2
100
AcDbSymbolTableRecord
100
AcDbLayerTableRecord
  2
细线层
 70
     0
 62
     4
  6
Continuous
370
    25
390
F
  0
LAYER
  5
69
330
2
100
AcDbSymbolTableRecord
100
AcDbLayerTableRecord
  2
中心线层
 70
     0
 62
     1
  6
CENTERX2
370
    25
390
F
  0
LAYER
  5
6A
330
2
100
AcDbSymbolTableRecord
100
AcDbLayerTableRecord
  2
虚线层
 70
     0
 62
     6
  6
HIDDEN
370
    25
390
F
  0
LAYER
  5
6B
330
2
100
AcDbSymbolTableRecord
100
AcDbLayerTableRecord
  2
剖面线层
 70
     0
 62
     2
  6
Continuous
370
    25
390
F
  0
LAYER
  5
6C
330
2
100
AcDbSymbolTableRecord
100
AcDbLayerTableRecord
  2
文字层
 70
     0
 62
     3
  6
Continuous
370
    25
390
F
  0
LAYER
  5
6D
330
2
100
AcDbSymbolTableRecord
100
AcDbLayerTableRecord
  2
标注层
 70
     0
 62
     4
  6
Continuous
370
    25
390
F
  0
LAYER
  5
6E
330
2
100
AcDbSymbolTableRecord
100
AcDbLayerTableRecord
  2
符号标注层
 70
     0
 62
    31
  6
Continuous
370
    25
390
F
  0
LAYER
  5
6F
330
2
100
AcDbSymbolTableRecord
100
AcDbLayerTableRecord
  2
双点划线层
 70
     0
 62
     6
  6
PHANTOM
370
    25
390
F
  0
ENDTAB
  0
TABLE
  2
STYLE
  5
3
330
0
100
AcDbSymbolTable
 70
     1
  0
STYLE
  5
11
330
3
100
AcDbSymbolTableRecord
100
AcDbTextStyleTableRecord
  2
Standard
 70
     0
 40
0.0
 41
1.0
 50
0.0
 71
     0
 42
3.5
  3
txt
  4

  0
ENDTAB
  0
TABLE
  2
VIEW
  5
6
330
0
100
AcDbSymbolTable
 70
     0
  0
ENDTAB
  0
TABLE
  2
UCS
  5
7
330
0
100
AcDbSymbolTable
 70
     0
  0
ENDTAB
  0
TABLE
  2
APPID
  5
9
330
0
100
AcDbSymbolTable
 70
     1
  0
APPID
  5
12
330
9
100
AcDbSymbolTableRecord
100
AcDbRegAppTableRecord
  2
ACAD
 70
     0
  0
ENDTAB
  0
TABLE
  2
DIMSTYLE
  5
A
330
0
100
AcDbSymbolTable
 70
     1
100
AcDbDimStyleTable
  0
DIMSTYLE
105
27
330
A
100
AcDbSymbolTableRecord
100
AcDbDimStyleTableRecord
  2
ISO-25
 70
     0
 41
2.5
 42
0.625
 43
3.75
 44
1.25
 73
     0
 74
     0
 77
     1
 78
     8
140
2.5
141
2.5
143
0.0393700787
147
0.625
171
     3
172
     1
178
     0
271
     2
272
     2
274
     3
278
    44
283
     0
284
     8
340
11
  0
ENDTAB
  0
TABLE
  2
BLOCK_RECORD
  5
1
330
0
100
AcDbSymbolTable
 70
     3
  0
BLOCK_RECORD
  5
1F
330
1
100
AcDbSymbolTableRecord
100
AcDbBlockTableRecord
  2
*Model_Space
340
22
  0
BLOCK_RECORD
  5
1B
330
1
100
AcDbSymbolTableRecord
100
AcDbBlockTableRecord
  2
*Paper_Space
340
1E
  0
BLOCK_RECORD
  5
23
330
1
100
AcDbSymbolTableRecord
100
AcDbBlockTableRecord
  2
*Paper_Space0
340
26
  0
BLOCK_RECORD
  5
BE
330
1
100
AcDbSymbolTableRecord
100
AcDbBlockTableRecord
  2
SW_CENTERMARKSYMBOL_0
340
0
102
{BLKREFS
331
C9
102
}
  0
BLOCK_RECORD
  5
CA
330
1
100
AcDbSymbolTableRecord
100
AcDbBlockTableRecord
  2
SW_CENTERMARKSYMBOL_1
340
0
102
{BLKREFS
331
D5
102
}
  0
ENDTAB
  0
ENDSEC
  0
SECTION
  2
BLOCKS
  0
BLOCK
  5
20
330
1F
100
AcDbEntity
  8
0
100
AcDbBlockBegin
  2
*Model_Space
 70
     0
 10
0.0
 20
0.0
 30
0.0
  3
*Model_Space
  1

  0
ENDBLK
  5
21
330
1F
100
AcDbEntity
  8
0
100
AcDbBlockEnd
  0
BLOCK
  5
1C
330
1B
100
AcDbEntity
 67
     1
  8
0
100
AcDbBlockBegin
  2
*Paper_Space
 70
     0
 10
0.0
 20
0.0
 30
0.0
  3
*Paper_Space
  1

  0
ENDBLK
  5
1D
330
1B
100
AcDbEntity
 67
     1
  8
0
100
AcDbBlockEnd
  0
BLOCK
  5
24
330
23
100
AcDbEntity
  8
0
100
AcDbBlockBegin
  2
*Paper_Space0
 70
     0
 10
0.0
 20
0.0
 30
0.0
  3
*Paper_Space0
  1

  0
ENDBLK
  5
25
330
23
100
AcDbEntity
  8
0
100
AcDbBlockEnd
  0
BLOCK
  5
BF
330
BE
100
AcDbEntity
  8
0
100
AcDbBlockBegin
  2
SW_CENTERMARKSYMBOL_0
 70
     0
 10
0.0
 20
0.0
 30
0.0
  3
SW_CENTERMARKSYMBOL_0
  1

  0
LINE
  5
C1
330
BE
100
AcDbEntity
  8
10
 62
     0
100
AcDbLine
 10
0.0
 20
0.0
 30
0.0
 11
0.0
 21
2.5
 31
0.0
  0
LINE
  5
C2
330
BE
100
AcDbEntity
  8
10
 62
     0
100
AcDbLine
 10
0.0
 20
0.0
 30
0.0
 11
-2.5
 21
0.0
 31
0.0
  0
LINE
  5
C3
330
BE
100
AcDbEntity
  8
10
 62
     0
100
AcDbLine
 10
0.0
 20
0.0
 30
0.0
 11
0.0
 21
-2.5
 31
0.0
  0
LINE
  5
C4
330
BE
100
AcDbEntity
  8
10
 62
     0
100
AcDbLine
 10
0.0
 20
0.0
 30
0.0
 11
2.5
 21
0.0
 31
0.0
  0
LINE
  5
C5
330
BE
100
AcDbEntity
  8
10
 62
     0
100
AcDbLine
 10
0.0
 20
5.0
 30
0.0
 11
0.0
 21
17.242014742
 31
0.0
  0
LINE
  5
C6
330
BE
100
AcDbEntity
  8
10
 62
     0
100
AcDbLine
 10
-5.0
 20
0.0
 30
0.0
 11
-17.242014742
 21
0.0
 31
0.0
  0
LINE
  5
C7
330
BE
100
AcDbEntity
  8
10
 62
     0
100
AcDbLine
 10
0.0
 20
-5.0
 30
0.0
 11
0.0
 21
-17.242014742
 31
0.0
  0
LINE
  5
C8
330
BE
100
AcDbEntity
  8
10
 62
     0
100
AcDbLine
 10
5.0
 20
0.0
 30
0.0
 11
17.242014742
 21
0.0
 31
0.0
  0
ENDBLK
  5
C0
330
BE
100
AcDbEntity
  8
0
100
AcDbBlockEnd
  0
BLOCK
  5
CB
330
CA
100
AcDbEntity
  8
0
100
AcDbBlockBegin
  2
SW_CENTERMARKSYMBOL_1
 70
     0
 10
0.0
 20
0.0
 30
0.0
  3
SW_CENTERMARKSYMBOL_1
  1

  0
LINE
  5
CD
330
CA
100
AcDbEntity
  8
10
 62
     0
100
AcDbLine
 10
0.0
 20
0.0
 30
0.0
 11
0.0
 21
2.5
 31
0.0
  0
LINE
  5
CE
330
CA
100
AcDbEntity
  8
10
 62
     0
100
AcDbLine
 10
0.0
 20
0.0
 30
0.0
 11
-2.5
 21
0.0
 31
0.0
  0
LINE
  5
CF
330
CA
100
AcDbEntity
  8
10
 62
     0
100
AcDbLine
 10
0.0
 20
0.0
 30
0.0
 11
0.0
 21
-2.5
 31
0.0
  0
LINE
  5
D0
330
CA
100
AcDbEntity
  8
10
 62
     0
100
AcDbLine
 10
0.0
 20
0.0
 30
0.0
 11
2.5
 21
0.0
 31
0.0
  0
LINE
  5
D1
330
CA
100
AcDbEntity
  8
10
 62
     0
100
AcDbLine
 10
0.0
 20
5.0
 30
0.0
 11
0.0
 21
10.4852579853
 31
0.0
  0
LINE
  5
D2
330
CA
100
AcDbEntity
  8
10
 62
     0
100
AcDbLine
 10
-5.0
 20
0.0
 30
0.0
 11
-10.4852579853
 21
0.0
 31
0.0
  0
LINE
  5
D3
330
CA
100
AcDbEntity
  8
10
 62
     0
100
AcDbLine
 10
0.0
 20
-5.0
 30
0.0
 11
0.0
 21
-10.4852579853
 31
0.0
  0
LINE
  5
D4
330
CA
100
AcDbEntity
  8
10
 62
     0
100
AcDbLine
 10
5.0
 20
0.0
 30
0.0
 11
10.4852579853
 21
0.0
 31
0.0
  0
ENDBLK
  5
CC
330
CA
100
AcDbEntity
  8
0
100
AcDbBlockEnd
  0
ENDSEC
  0
SECTION
  2
ENTITIES
  0
SPLINE
  5
70
330
1F
100
AcDbEntity
  8
0
  6
Continuous
 62
     7
370
    25
100
AcDbSpline
210
0.0
220
0.0
230
1.0
 70
     8
 71
     3
 72
    34
 73
    30
 74
     0
 42
0.00000001
 43
0.00000001
 40
0.0
 40
0.0
 40
0.0
 40
0.0
 40
0.000061040913032
 40
0.0001220818260649
 40
0.0002441636521138
 40
0.0004883273041087
 40
0.0009766546072187
 40
0.0019533092064478
 40
0.0039066183490018
 40
0.0078132361876224
 40
0.0156264683110323
 40
0.0312529044185794
 40
0.0625055559852006
 40
0.1250091573125965
 40
0.2500034889660083
 40
0.3749978058503732
 40
0.499992671687465
 40
0.5624964843835094
 40
0.625000283080021
 40
0.7499954168399737
 40
0.874990582112471
 40
0.9374944010484296
 40
0.9687470895026394
 40
0.9843735308899701
 40
0.9921867637158333
 40
0.9960933816447536
 40
0.9980466907986925
 40
0.9990233453993465
 40
1.0
 40
1.0
 40
1.0
 40
1.0
 10
68.62653562653564
 20
79.35543164048515
 30
0.0
 10
68.6263778055336
 20
79.3554316404823
 30
0.0
 10
68.62606216352945
 20
79.35543164047657
 30
0.0
 10
68.62543087952174
 20
79.35543164018269
 30
0.0
 10
68.62432613251102
 20
79.35543163906816
 30
0.0
 10
68.62211663851171
 20
79.35543163434197
 30
0.0
 10
68.61769765069022
 20
79.3554316149984
 30
0.0
 10
68.6088596764702
 20
79.35543153690958
 30
0.0
 10
68.59118373933839
 20
79.35543122487904
 30
0.0
 10
68.55583195630985
 20
79.35542999090217
 30
0.0
 10
68.48512910975504
 20
79.35542519254355
 30
0.0
 10
68.34372926263703
 20
79.35540711265642
 30
0.0
 10
68.06097491059232
 20
79.35534374408923
 30
0.0
 10
67.49583946245788
 20
79.35515532120353
 30
0.0
 10
66.69032219071335
 20
79.35495258303636
 30
0.0
 10
65.72992351215389
 20
79.3551348165251
 30
0.0
 10
64.93717129752154
 20
79.35544370325387
 30
0.0
 10
64.30918781306319
 20
79.35542836787171
 30
0.0
 10
63.68577757118858
 20
79.35536671207797
 30
0.0
 10
62.91592473041596
 20
79.35532067780264
 30
0.0
 10
62.16119047251667
 20
79.35539131727879
 30
0.0
 10
61.64213861478726
 20
79.35542483273133
 30
0.0
 10
61.38505253201935
 20
79.35543064836406
 30
0.0
 10
61.25714090509288
 20
79.35543150822245
 30
0.0
 10
61.19334545919994
 20
79.3554316233169
 30
0.0
 10
61.16148808442772
 20
79.35543163830846
 30
0.0
 10
61.14556962149012
 20
79.35543164021045
 30
0.0
 10
61.13647612534966
 20
79.35543164048511
 30
0.0
 10
61.13193059955802
 20
79.35543164048514
 30
0.0
 10
61.1296578366622
 20
79.35543164048515
 30
0.0
  0
SPLINE
  5
71
330
1F
100
AcDbEntity
  8
0
  6
Continuous
 62
     7
370
    25
100
AcDbSpline
210
0.0
220
0.0
230
1.0
 70
     8
 71
     3
 72
    25
 73
    21
 74
     0
 42
0.00000001
 43
0.00000001
 40
0.0
 40
0.0
 40
0.0
 40
0.0
 40
0.0009766449353462
 40
0.0019532898705714
 40
0.0039065796937715
 40
0.0078131589612135
 40
0.015626314464175
 40
0.0312526012063881
 40
0.0625049803836101
 40
0.1250081809914879
 40
0.2500021117132387
 40
0.3749960120492244
 40
0.4374991931524208
 40
0.5000023874873046
 40
0.6249960167285742
 40
0.7499890972882552
 40
0.8058077707169599
 40
0.8749943831709922
 40
0.9510759600695957
 40
1.0
 40
1.0
 40
1.0
 40
1.0
 10
76.12341341640895
 20
79.35543164048515
 30
0.0
 10
76.12114065351298
 20
79.35543164048514
 30
0.0
 10
76.11659512772133
 20
79.35543164048511
 30
0.0
 10
76.10750163158087
 20
79.35543164022013
 30
0.0
 10
76.09158316864352
 20
79.35543163838518
 30
0.0
 10
76.05972579387199
 20
79.35543162392197
 30
0.0
 10
75.9959303480024
 20
79.35543151288326
 30
0.0
 10
75.86801872125433
 20
79.35543068332558
 30
0.0
 10
75.61093264241009
 20
79.35542507258964
 30
0.0
 10
75.09188081222409
 20
79.35539274080647
 30
0.0
 10
74.33714682059434
 20
79.35532463009461
 30
0.0
 10
73.56729368390863
 20
79.35536911939367
 30
0.0
 10
72.94388375033397
 20
79.35542838734038
 30
0.0
 10
72.31589829608245
 20
79.3554437155992
 30
0.0
 10
71.52316118824672
 20
79.3551354174102
 30
0.0
 10
70.73988116929696
 20
79.3549856996241
 30
0.0
 10
70.09669387248672
 20
79.35507138477725
 30
0.0
 10
69.57804424544747
 20
79.35521387514093
 30
0.0
 10
69.07624121948535
 20
79.3553788244097
 30
0.0
 10
68.75303167554948
 20
79.35541678404357
 30
0.0
 10
68.62653562653564
 20
79.35543164048515
 30
0.0
  0
LINE
  5
72
330
1F
100
AcDbEntity
  8
0
  6
Continuous
 62
     7
370
    25
100
AcDbLine
 10
110.0620478291
 20
79.3554316405
 30
0.0
 11
128.5773955774
 21
79.3554316405
 31
0.0
  0
LINE
  5
73
330
1F
100
AcDbEntity
  8
0
  6
Continuous
 62
     7
370
    25
100
AcDbLine
 10
76.1234134164
 20
79.3554316405
 30
0.0
 11
94.5128907458
 21
79.3554316405
 31
0.0
  0
SPLINE
  5
74
330
1F
100
AcDbEntity
  8
0
  6
Continuous
 62
     7
370
    25
100
AcDbSpline
210
0.0
220
0.0
230
1.0
 70
     8
 71
     3
 72
    22
 73
    18
 74
     0
 42
0.00000001
 43
0.00000001
 40
0.0
 40
0.0
 40
0.0
 40
0.0
 40
0.0625000000000003
 40
0.0625000000000003
 40
0.1250000000000006
 40
0.1250000000000006
 40
0.2500000000000007
 40
0.2500000000000007
 40
0.5000000000000004
 40
0.5000000000000004
 40
0.7500000000000002
 40
0.7500000000000002
 40
0.8750000000000001
 40
0.8750000000000001
 40
0.9375
 40
0.9375
 40
1.0
 40
1.0
 40
1.0
 40
1.0
 10
94.5128907458001
 20
79.35543164048515
 30
0.0
 10
94.83036978205543
 20
79.35543164048516
 30
0.0
 10
95.15237987097248
 20
79.35349410011062
 30
0.0
 10
95.79363660831223
 20
79.347054788208
 30
0.0
 10
96.11479097482191
 20
79.34255332448267
 30
0.0
 10
97.07986955400443
 20
79.32693778459577
 30
0.0
 10
97.72541000474943
 20
79.31378819081722
 30
0.0
 10
99.66876854552685
 20
79.27727644028751
 30
0.0
 10
100.9733407525533
 20
79.25839033617521
 30
0.0
 10
103.6015978223734
 20
79.2583903361751
 30
0.0
 10
104.9061700294118
 20
79.27727644028751
 30
0.0
 10
106.8495285701892
 20
79.31378819081723
 30
0.0
 10
107.4950690209341
 20
79.32693778459578
 30
0.0
 10
108.4601476001167
 20
79.34255332448267
 30
0.0
 10
108.7813019666263
 20
79.34705478820798
 30
0.0
 10
109.4225587039661
 20
79.35349410011062
 30
0.0
 10
109.744568792883
 20
79.35543164048516
 30
0.0
 10
110.0620478291385
 20
79.35543164048515
 30
0.0
  0
LINE
  5
75
330
1F
100
AcDbEntity
  8
0
  6
Continuous
 62
     7
370
    25
100
AcDbLine
 10
37.4226044226
 20
79.3554316405
 30
0.0
 11
61.1296578367
 21
79.3554316405
 31
0.0
  0
ARC
  5
76
330
1F
100
AcDbEntity
  8
0
  6
Continuous
 62
     7
370
    25
100
AcDbCircle
 10
37.4226044226
 20
39.0605913456
 30
0.0
 40
4.422604422604422
100
AcDbArc
 50
180.0
 51
270.0
  0
LINE
  5
77
330
1F
100
AcDbEntity
  8
0
  6
Continuous
 62
     7
370
    25
100
AcDbLine
 10
85.3341523342
 20
34.637986923
 30
0.0
 11
37.4226044226
 21
34.637986923
 31
0.0
  0
LINE
  5
78
330
1F
100
AcDbEntity
  8
0
  6
Continuous
 62
     7
370
    25
100
AcDbLine
 10
85.3341523342
 20
39.0605913456
 30
0.0
 11
85.3341523342
 21
34.637986923
 31
0.0
  0
LINE
  5
79
330
1F
100
AcDbEntity
  8
0
  6
Continuous
 62
     7
370
    25
100
AcDbLine
 10
33.0
 20
39.0605913456
 30
0.0
 11
33.0
 21
74.9328272179
 31
0.0
  0
ARC
  5
7A
330
1F
100
AcDbEntity
  8
0
  6
Continuous
 62
     7
370
    25
100
AcDbCircle
 10
37.4226044226
 20
74.9328272179
 30
0.0
 40
4.422604422604422
100
AcDbArc
 50
90.0
 51
180.0
  0
LINE
  5
7B
330
1F
100
AcDbEntity
  8
0
  6
Continuous
 62
     7
370
    25
100
AcDbLine
 10
133.0
 20
74.9328272179
 30
0.0
 11
133.0
 21
49.3800016651
 31
0.0
  0
SPLINE
  5
7C
330
1F
100
AcDbEntity
  8
0
  6
Continuous
 62
     7
370
    25
100
AcDbSpline
210
0.0
220
0.0
230
1.0
 70
     8
 71
     3
 72
    18
 73
    14
 74
     0
 42
0.00000001
 43
0.00000001
 40
0.0
 40
0.0
 40
0.0
 40
0.0
 40
0.2500000000000003
 40
0.2500000000000003
 40
0.3750000000000003
 40
0.3750000000000003
 40
0.5000000000000003
 40
0.5000000000000003
 40
0.6250000000000003
 40
0.6250000000000003
 40
0.7500000000000003
 40
0.7500000000000003
 40
1.0
 40
1.0
 40
1.0
 40
1.0
 10
128.5773955773955
 20
44.95739724245076
 30
0.0
 10
129.0986045070171
 20
44.95739724245076
 30
0.0
 10
129.6609237506644
 20
45.05238920771929
 30
0.0
 10
130.4775374264296
 20
45.3756791151763
 30
0.0
 10
130.7446500488896
 20
45.51300167001006
 30
0.0
 10
131.2503256567284
 20
45.84360156086901
 30
0.0
 10
131.4887573476456
 20
46.03685627984679
 30
0.0
 10
131.920540962604
 20
46.46863989480519
 30
0.0
 10
132.1137956815818
 20
46.70707158572241
 30
0.0
 10
132.4443955724407
 20
47.21274719356115
 30
0.0
 10
132.5817181272745
 20
47.47985981602112
 30
0.0
 10
132.9050080347315
 20
48.29647349178642
 30
0.0
 10
133.0
 20
48.85879273543365
 30
0.0
 10
133.0
 20
49.38000166505518
 30
0.0
  0
LINE
  5
7D
330
1F
100
AcDbEntity
  8
0
  6
Continuous
 62
     7
370
    25
100
AcDbLine
 10
85.3341523342
 20
44.9573972425
 30
0.0
 11
85.3341523342
 21
39.0605913456
 31
0.0
  0
LINE
  5
7E
330
1F
100
AcDbEntity
  8
0
  6
Continuous
 62
     7
370
    25
100
AcDbLine
 10
128.5773955774
 20
44.9573972425
 30
0.0
 11
85.3341523342
 21
44.9573972425
 31
0.0
  0
ARC
  5
7F
330
1F
100
AcDbEntity
  8
0
  6
Continuous
 62
     7
370
    25
100
AcDbCircle
 10
128.5773955774
 20
74.9328272179
 30
0.0
 40
4.422604422604422
100
AcDbArc
 50
0.0
 51
90.0
  0
SPLINE
  5
80
330
1F
100
AcDbEntity
  8
0
  6
Continuous
 62
     7
370
    25
100
AcDbSpline
210
0.0
220
0.0
230
1.0
 70
    24
 71
     3
 72
     9
 73
     5
 74
     0
 42
0.00000001
 43
0.00000001
 40
0.0
 40
0.0
 40
0.0
 40
0.0
 40
0.6924572413282406
 40
1.0
 40
1.0
 40
1.0
 40
1.0
 10
85.8255528255528
 20
79.35543164048515
 30
0.0
 10
85.8143008535067
 20
79.35543164048515
 30
0.0
 10
85.79805151510057
 20
79.35543164048515
 30
0.0
 10
85.62649199963927
 20
79.35543164048515
 30
0.0
 10
85.57373011297791
 20
79.35543164048515
 30
0.0
  0
SPLINE
  5
81
330
1F
100
AcDbEntity
  8
0
  6
HIDDEN
 62
     7
370
    18
100
AcDbSpline
210
0.0
220
0.0
230
1.0
 70
     8
 71
     3
 72
    14
 73
    10
 74
     0
 42
0.00000001
 43
0.00000001
 40
0.0
 40
0.0
 40
0.0
 40
0.0
 40
0.25
 40
0.25
 40
0.5
 40
0.5
 40
0.75
 40
0.75
 40
1.0
 40
1.0
 40
1.0
 40
1.0
 10
32.99999999999999
 20
63.33154974635631
 30
0.0
 10
32.99999999999999
 20
63.62111026281273
 30
0.0
 10
33.05277331403806
 20
63.93350984261673
 30
0.0
 10
33.29224731956178
 20
64.53840886170215
 30
0.0
 10
33.47975957217601
 20
64.82903305900675
 30
0.0
 10
33.95951914435201
 20
65.30879263118277
 30
0.0
 10
34.25014334165662
 20
65.49630488379698
 30
0.0
 10
34.85504236074203
 20
65.7357788893207
 30
0.0
 10
35.16744194054604
 20
65.78855220335878
 30
0.0
 10
35.45700245700245
 20
65.78855220335878
 30
0.0
  0
SPLINE
  5
82
330
1F
100
AcDbEntity
  8
0
  6
HIDDEN
 62
     7
370
    18
100
AcDbSpline
210
0.0
220
0.0
230
1.0
 70
     8
 71
     3
 72
    14
 73
    10
 74
     0
 42
0.00000001
 43
0.00000001
 40
0.0
 40
0.0
 40
0.0
 40
0.0
 40
0.25
 40
0.25
 40
0.5
 40
0.5
 40
0.75
 40
0.75
 40
1.0
 40
1.0
 40
1.0
 40
1.0
 10
33.07579394776987
 20
75.74809930418625
 30
0.0
 10
33.13774452028252
 20
75.50449605015972
 30
0.0
 10
33.24140120250772
 20
75.25710037242523
 30
0.0
 10
33.53602939785461
 20
74.79764203809175
 30
0.0
 10
33.72707744216955
 20
74.58642101169768
 30
0.0
 10
34.17064162526785
 20
74.24154066158228
 30
0.0
 10
34.42243340478971
 20
74.10844454220708
 30
0.0
 10
34.94033364635269
 20
73.93614516823591
 30
0.0
 10
35.20564530312183
 20
73.89666031146686
 30
0.0
 10
35.45700245700245
 20
73.89666031146685
 30
0.0
  0
LINE
  5
83
330
1F
100
AcDbEntity
  8
0
  6
HIDDEN
 62
     7
370
    18
100
AcDbLine
 10
61.2719265125
 20
73.8966603115
 30
0.0
 11
61.2719265125
 21
65.7885522034
 31
0.0
  0
LINE
  5
84
330
1F
100
AcDbEntity
  8
0
  6
HIDDEN
 62
     7
370
    18
100
AcDbLine
 10
68.6265356265
 20
54.7854070705
 30
0.0
 11
83.3685503686
 21
54.7854070705
 31
0.0
  0
LINE
  5
85
330
1F
100
AcDbEntity
  8
0
  6
HIDDEN
 62
     7
370
    18
100
AcDbLine
 10
53.8845208845
 20
54.7854070705
 30
0.0
 11
68.6265356265
 21
54.7854070705
 31
0.0
  0
LINE
  5
86
330
1F
100
AcDbEntity
  8
0
  6
HIDDEN
 62
     7
370
    18
100
AcDbLine
 10
102.2874692875
 20
52.3284046135
 30
0.0
 11
115.1867321867
 21
52.3284046135
 31
0.0
  0
LINE
  5
87
330
1F
100
AcDbEntity
  8
0
  6
HIDDEN
 62
     7
370
    18
100
AcDbLine
 10
89.3882063882
 20
52.3284046135
 30
0.0
 11
102.2874692875
 21
52.3284046135
 31
0.0
  0
LINE
  5
88
330
1F
100
AcDbEntity
  8
0
  6
HIDDEN
 62
     7
370
    18
100
AcDbLine
 10
61.2719265125
 20
73.8966603115
 30
0.0
 11
35.457002457
 21
73.8966603115
 31
0.0
  0
LINE
  5
89
330
1F
100
AcDbEntity
  8
0
  6
HIDDEN
 62
     7
370
    18
100
AcDbLine
 10
61.2719265125
 20
65.7885522034
 30
0.0
 11
35.457002457
 21
65.7885522034
 31
0.0
  0
ARC
  5
8A
330
1F
100
AcDbEntity
  8
0
  6
HIDDEN
 62
     7
370
    18
100
AcDbCircle
 10
119.6093366093
 20
74.9328272179
 30
0.0
 40
4.422604422604437
100
AcDbArc
 50
90.0
 51
180.0
  0
ARC
  5
8B
330
1F
100
AcDbEntity
  8
0
  6
HIDDEN
 62
     7
370
    18
100
AcDbCircle
 10
85.8255528256
 20
76.8984291835
 30
0.0
 40
2.45700245700246
100
AcDbArc
 50
90.0
 51
180.0
  0
ARC
  5
8C
330
1F
100
AcDbEntity
  8
0
  6
HIDDEN
 62
     7
370
    18
100
AcDbCircle
 10
51.4275184275
 20
76.8984291835
 30
0.0
 40
2.45700245700246
100
AcDbArc
 50
0.0
 51
90.0
  0
LINE
  5
8D
330
1F
100
AcDbEntity
  8
0
  6
HIDDEN
 62
     7
370
    18
100
AcDbLine
 10
53.8845208845
 20
65.7885522034
 30
0.0
 11
53.8845208845
 21
54.7854070705
 31
0.0
  0
LINE
  5
8E
330
1F
100
AcDbEntity
  8
0
  6
HIDDEN
 62
     7
370
    18
100
AcDbLine
 10
53.8845208845
 20
76.8984291835
 30
0.0
 11
53.8845208845
 21
73.8966603115
 31
0.0
  0
LINE
  5
8F
330
1F
100
AcDbEntity
  8
0
  6
HIDDEN
 62
     7
370
    18
100
AcDbLine
 10
83.3685503686
 20
54.7854070705
 30
0.0
 11
83.3685503686
 21
76.8984291835
 31
0.0
  0
LINE
  5
90
330
1F
100
AcDbEntity
  8
0
  6
HIDDEN
 62
     7
370
    18
100
AcDbLine
 10
89.3882063882
 20
75.0197648303
 30
0.0
 11
89.3882063882
 21
52.3284046135
 31
0.0
  0
LINE
  5
91
330
1F
100
AcDbEntity
  8
0
  6
HIDDEN
 62
     7
370
    18
100
AcDbLine
 10
115.1867321867
 20
52.3284046135
 30
0.0
 11
115.1867321867
 21
74.9328272179
 31
0.0
  0
ARC
  5
92
330
1F
100
AcDbEntity
  8
0
  6
HIDDEN
 62
     7
370
    18
100
AcDbCircle
 10
59.4127764128
 20
52.3284046135
 30
0.0
 40
2.457002457002467
100
AcDbArc
 50
0.0
 51
90.0
  0
ARC
  5
93
330
1F
100
AcDbEntity
  8
0
  6
HIDDEN
 62
     7
370
    18
100
AcDbCircle
 10
77.8402948403
 20
52.3284046135
 30
0.0
 40
2.457002457002467
100
AcDbArc
 50
90.0
 51
180.0
  0
LINE
  5
94
330
1F
100
AcDbEntity
  8
0
  6
HIDDEN
 62
     7
370
    18
100
AcDbLine
 10
94.3022113022
 20
52.3284046135
 30
0.0
 11
94.3022113022
 21
44.9573972425
 31
0.0
  0
LINE
  5
95
330
1F
100
AcDbEntity
  8
0
  6
HIDDEN
 62
     7
370
    18
100
AcDbLine
 10
110.2727272727
 20
44.9573972425
 30
0.0
 11
110.2727272727
 21
52.3284046135
 31
0.0
  0
LINE
  5
96
330
1F
100
AcDbEntity
  8
0
  6
HIDDEN
 62
     7
370
    18
100
AcDbLine
 10
75.3832923833
 20
34.637986923
 30
0.0
 11
75.3832923833
 21
52.3284046135
 31
0.0
  0
LINE
  5
97
330
1F
100
AcDbEntity
  8
0
  6
HIDDEN
 62
     7
370
    18
100
AcDbLine
 10
61.8697788698
 20
52.3284046135
 30
0.0
 11
61.8697788698
 21
34.637986923
 31
0.0
  0
LINE
  5
98
330
1F
100
AcDbEntity
  8
0
  6
HIDDEN
 62
     7
370
    18
100
AcDbLine
 10
85.7815704712
 20
79.3375418014
 30
0.0
 11
85.9466121929
 21
79.3040953354
 31
0.0
  0
SPLINE
  5
99
330
1F
100
AcDbEntity
  8
0
  6
HIDDEN
 62
     7
370
    18
100
AcDbSpline
210
0.0
220
0.0
230
1.0
 70
     8
 71
     3
 72
     9
 73
     5
 74
     0
 42
0.00000001
 43
0.00000001
 40
0.0
 40
0.0
 40
0.0
 40
0.0
 40
0.5027065379649741
 40
1.0
 40
1.0
 40
1.0
 40
1.0
 10
85.57080175821751
 20
79.35543164020855
 30
0.0
 10
85.76211410275066
 20
79.33502126452957
 30
0.0
 10
86.14267876639633
 20
79.29442028933315
 30
0.0
 10
86.3932432144223
 20
79.20363673066726
 30
0.0
 10
86.51784727624403
 20
79.15849066048243
 30
0.0
  0
SPLINE
  5
9A
330
1F
100
AcDbEntity
  8
0
  6
HIDDEN
 62
     7
370
    18
100
AcDbSpline
210
0.0
220
0.0
230
1.0
 70
     8
 71
     3
 72
    15
 73
    11
 74
     0
 42
0.00000001
 43
0.00000001
 40
0.0
 40
0.0
 40
0.0
 40
0.0
 40
0.1227083432077268
 40
0.2489749878572517
 40
0.3774325254788912
 40
0.5065621879479928
 40
0.6347972291708086
 40
0.7606346022306785
 40
0.8827356612398745
 40
1.0
 40
1.0
 40
1.0
 40
1.0
 10
86.51789629797409
 20
79.15847228536363
 30
0.0
 10
86.71989522203897
 20
79.0726617841069
 30
0.0
 10
87.12975064304403
 20
78.89855244524757
 30
0.0
 10
87.69210581475232
 20
78.52024203186431
 30
0.0
 10
88.20159780004832
 20
78.05865195250354
 30
0.0
 10
88.63427029782875
 20
77.51889809992525
 30
0.0
 10
88.97625231153806
 20
76.92304819189826
 30
0.0
 10
89.21626377883443
 20
76.29358780279097
 30
0.0
 10
89.36194123140471
 20
75.6544442754776
 30
0.0
 10
89.3795700746386
 20
75.22676017777533
 30
0.0
 10
89.38820638825865
 20
75.01723911339991
 30
0.0
  0
LINE
  5
9B
330
1F
100
AcDbEntity
  8
0
  6
HIDDEN
 62
     7
370
    18
100
AcDbLine
 10
86.5178963061
 20
79.1584722827
 30
0.0
 11
85.8255528234
 21
79.3554316405
 31
0.0
  0
LINE
  5
9C
330
1F
100
AcDbEntity
  8
0
  6
Continuous
 62
     7
370
    25
100
AcDbLine
 10
37.4226044226
 20
177.9017199017
 30
0.0
 11
61.1296578367
 21
177.9017199017
 31
0.0
  0
CIRCLE
  5
9D
330
1F
100
AcDbEntity
  8
0
  6
Continuous
 62
     7
370
    25
100
AcDbCircle
 10
68.6265356265
 20
158.0
 30
0.0
 40
14.74201474201473
  0
SPLINE
  5
9E
330
1F
100
AcDbEntity
  8
0
  6
Continuous
 62
     7
370
    25
100
AcDbSpline
210
0.0
220
0.0
230
1.0
 70
     8
 71
     3
 72
    25
 73
    21
 74
     0
 42
0.00000001
 43
0.00000001
 40
0.0
 40
0.0
 40
0.0
 40
0.0
 40
0.0009766449353378
 40
0.0019532898705665
 40
0.003906579693769
 40
0.0078131589612152
 40
0.0156263144641699
 40
0.0312526012063843
 40
0.0625049803836097
 40
0.1250081809914902
 40
0.2500021117132335
 40
0.3749960120492186
 40
0.4374991931524088
 40
0.5000023874872934
 40
0.6249960167285643
 40
0.7499890972882436
 40
0.8058077709222156
 40
0.8749943831709884
 40
0.9510759599648104
 40
0.9999999999999999
 40
0.9999999999999999
 40
0.9999999999999999
 40
0.9999999999999999
 10
61.1296578366622
 20
173.4791154791125
 30
0.0
 10
61.13193059955815
 20
173.480215870369
 30
0.0
 10
61.13647612534981
 20
173.4824166528818
 30
0.0
 10
61.14556962149024
 20
173.486813165654
 30
0.0
 10
61.16148808442762
 20
173.4944970348012
 30
0.0
 10
61.19334545919917
 20
173.5098223479129
 30
0.0
 10
61.25714090506872
 20
173.5403047458717
 30
0.0
 10
61.38505253181685
 20
173.6005942336707
 30
0.0
 10
61.64213861066109
 20
173.7184632461782
 30
0.0
 10
62.16119044084711
 20
173.9432823212035
 30
0.0
 10
62.91592443247684
 20
174.2329321986707
 30
0.0
 10
63.68577756916252
 20
174.4796052593458
 30
0.0
 10
64.30918750273722
 20
174.65067572108
 30
0.0
 10
64.93717295698875
 20
174.8041006982029
 30
0.0
 10
65.72991006482454
 20
174.9624892417557
 30
0.0
 10
66.51319008429991
 20
175.0735312391195
 30
0.0
 10
67.1563773811137
 20
175.1382375369554
 30
0.0
 10
67.67502700788388
 20
175.1754882515615
 30
0.0
 10
68.17683003331489
 20
175.1960765879357
 30
0.0
 10
68.50003957725082
 20
175.1981900452127
 30
0.0
 10
68.62653562653558
 20
175.1990171989923
 30
0.0
  0
SPLINE
  5
9F
330
1F
100
AcDbEntity
  8
0
  6
Continuous
 62
     7
370
    25
100
AcDbSpline
210
0.0
220
0.0
230
1.0
 70
     8
 71
     3
 72
    34
 73
    30
 74
     0
 42
0.00000001
 43
0.00000001
 40
0.0
 40
0.0
 40
0.0
 40
0.0
 40
0.0000610409130327
 40
0.0001220818260615
 40
0.0002441636521133
 40
0.0004883273041058
 40
0.0009766546072212
 40
0.0019533092064502
 40
0.0039066183489998
 40
0.0078132361876232
 40
0.01562646831103
 40
0.0312529044185804
 40
0.0625055559851984
 40
0.1250091573125942
 40
0.2500034889660063
 40
0.3749978058503711
 40
0.4999926716874658
 40
0.5624964843835114
 40
0.6250002830800278
 40
0.7499954168399788
 40
0.8749905821124754
 40
0.9374944010484317
 40
0.9687470895026394
 40
0.9843735308899721
 40
0.9921867637158323
 40
0.9960933816447518
 40
0.9980466907986915
 40
0.9990233453993431
 40
0.9999999999999999
 40
0.9999999999999999
 40
0.9999999999999999
 40
0.9999999999999999
 10
68.62653562653558
 20
175.1990171989923
 30
0.0
 10
68.62669344753766
 20
175.1990171977415
 30
0.0
 10
68.62700908954177
 20
175.1990171952399
 30
0.0
 10
68.62764037354948
 20
175.1990171681476
 30
0.0
 10
68.62874512056023
 20
175.1990170769996
 30
0.0
 10
68.63095461455951
 20
175.1990167096647
 30
0.0
 10
68.63537360238104
 20
175.1990152420028
 30
0.0
 10
68.64421157660102
 20
175.199009369735
 30
0.0
 10
68.66188751373285
 20
175.1989858817346
 30
0.0
 10
68.69723929676137
 20
175.19889193523
 30
0.0
 10
68.76794214331619
 20
175.198516208362
 30
0.0
 10
68.9093419904342
 20
175.1970138071171
 30
0.0
 10
69.19209634247892
 20
175.1910082498514
 30
0.0
 10
69.75723179061333
 20
175.1670209132383
 30
0.0
 10
70.56274906235787
 20
175.0986633914806
 30
0.0
 10
71.52314774091731
 20
174.9624852640933
 30
0.0
 10
72.31589995554965
 20
174.8041011687008
 30
0.0
 10
72.94388344000802
 20
174.6506756209904
 30
0.0
 10
73.56729368188265
 20
174.4796046983385
 30
0.0
 10
74.33714652265525
 20
174.2329315235249
 30
0.0
 10
75.09188078055453
 20
173.9432822196422
 30
0.0
 10
75.61093263828391
 20
173.7184632368056
 30
0.0
 10
75.86801872105181
 20
173.6005942330744
 30
0.0
 10
75.99593034797827
 20
173.5403047458262
 30
0.0
 10
76.05972579387124
 20
173.5098223479105
 30
0.0
 10
76.09158316864341
 20
173.494497034801
 30
0.0
 10
76.10750163158103
 20
173.486813165654
 30
0.0
 10
76.11659512772147
 20
173.4824166528818
 30
0.0
 10
76.12114065351312
 20
173.4802158703689
 30
0.0
 10
76.12341341640895
 20
173.4791154791125
 30
0.0
  0
SPLINE
  5
A0
330
1F
100
AcDbEntity
  8
0
  6
Continuous
 62
     7
370
    25
100
AcDbSpline
210
0.0
220
0.0
230
1.0
 70
     8
 71
     3
 72
    14
 73
    10
 74
     0
 42
0.00000001
 43
0.00000001
 40
0.0
 40
0.0
 40
0.0
 40
0.0
 40
0.25
 40
0.25
 40
0.5
 40
0.5
 40
0.75
 40
0.75
 40
1.0
 40
1.0
 40
1.0
 40
1.0
 10
85.39400814218328
 20
161.8285843400747
 30
0.0
 10
85.52340885894397
 20
161.2618676266194
 30
0.0
 10
85.63294407689519
 20
160.6476364521236
 30
0.0
 10
85.7841756369135
 20
159.3576804168259
 30
0.0
 10
85.82552850162654
 20
158.6819280135874
 30
0.0
 10
85.82557712757543
 20
157.319299540943
 30
0.0
 10
85.78384836749545
 20
156.6380002401294
 30
0.0
 10
85.63216946479274
 20
155.3472953530708
 30
0.0
 10
85.52262953767824
 20
154.7347192947332
 30
0.0
 10
85.39400814218328
 20
154.1714156599192
 30
0.0
  0
SPLINE
  5
A1
330
1F
100
AcDbEntity
  8
0
  6
Continuous
 62
     7
370
    25
100
AcDbSpline
210
0.0
220
0.0
230
1.0
 70
     8
 71
     3
 72
    25
 73
    21
 74
     0
 42
0.00000001
 43
0.00000001
 40
0.0
 40
0.0
 40
0.0
 40
0.0
 40
0.0009766449353462
 40
0.0019532898705714
 40
0.0039065796937715
 40
0.0078131589612135
 40
0.015626314464175
 40
0.0312526012063881
 40
0.0625049803836101
 40
0.1250081809914879
 40
0.2500021117132387
 40
0.3749960120492244
 40
0.4374991931524208
 40
0.5000023874873046
 40
0.6249960167285742
 40
0.7499890972882552
 40
0.8058077707169599
 40
0.8749943831709922
 40
0.9510759600695957
 40
1.0
 40
1.0
 40
1.0
 40
1.0
 10
76.12341341640895
 20
142.5208845208815
 30
0.0
 10
76.12114065351298
 20
142.519784129625
 30
0.0
 10
76.11659512772133
 20
142.5175833471121
 30
0.0
 10
76.10750163158087
 20
142.5131868343399
 30
0.0
 10
76.09158316864352
 20
142.5055029651928
 30
0.0
 10
76.05972579387199
 20
142.490177652081
 30
0.0
 10
75.9959303480024
 20
142.4596952541222
 30
0.0
 10
75.86801872125433
 20
142.3994057663232
 30
0.0
 10
75.61093264241009
 20
142.2815367538158
 30
0.0
 10
75.09188081222409
 20
142.0567176787904
 30
0.0
 10
74.33714682059434
 20
141.7670678013233
 30
0.0
 10
73.56729368390863
 20
141.5203947406482
 30
0.0
 10
72.94388375033397
 20
141.3493242789139
 30
0.0
 10
72.31589829608245
 20
141.195899301791
 30
0.0
 10
71.52316118824672
 20
141.0375107582382
 30
0.0
 10
70.73988116929696
 20
140.9264687609488
 30
0.0
 10
70.09669387248672
 20
140.8617624630838
 30
0.0
 10
69.57804424544747
 20
140.8245117484344
 30
0.0
 10
69.07624121948535
 20
140.8039234120501
 30
0.0
 10
68.75303167554948
 20
140.8018099547777
 30
0.0
 10
68.62653562653564
 20
140.8009828010017
 30
0.0
  0
SPLINE
  5
A2
330
1F
100
AcDbEntity
  8
0
  6
Continuous
 62
     7
370
    25
100
AcDbSpline
210
0.0
220
0.0
230
1.0
 70
     8
 71
     3
 72
    34
 73
    30
 74
     0
 42
0.00000001
 43
0.00000001
 40
0.0
 40
0.0
 40
0.0
 40
0.0
 40
0.000061040913032
 40
0.0001220818260649
 40
0.0002441636521138
 40
0.0004883273041087
 40
0.0009766546072187
 40
0.0019533092064478
 40
0.0039066183490018
 40
0.0078132361876224
 40
0.0156264683110323
 40
0.0312529044185794
 40
0.0625055559852006
 40
0.1250091573125965
 40
0.2500034889660083
 40
0.3749978058503732
 40
0.499992671687465
 40
0.5624964843835094
 40
0.625000283080021
 40
0.7499954168399737
 40
0.874990582112471
 40
0.9374944010484296
 40
0.9687470895026394
 40
0.9843735308899701
 40
0.9921867637158333
 40
0.9960933816447536
 40
0.9980466907986925
 40
0.9990233453993465
 40
1.0
 40
1.0
 40
1.0
 40
1.0
 10
68.62653562653564
 20
140.8009828010017
 30
0.0
 10
68.6263778055336
 20
140.8009828022525
 30
0.0
 10
68.62606216352945
 20
140.800982804754
 30
0.0
 10
68.62543087952174
 20
140.8009828318463
 30
0.0
 10
68.62432613251102
 20
140.8009829229944
 30
0.0
 10
68.62211663851171
 20
140.8009832903293
 30
0.0
 10
68.61769765069022
 20
140.8009847579912
 30
0.0
 10
68.6088596764702
 20
140.8009906302589
 30
0.0
 10
68.59118373933839
 20
140.8010141182594
 30
0.0
 10
68.55583195630985
 20
140.801108064764
 30
0.0
 10
68.48512910975504
 20
140.801483791632
 30
0.0
 10
68.34372926263703
 20
140.802986192877
 30
0.0
 10
68.06097491059232
 20
140.8089917501426
 30
0.0
 10
67.49583946245788
 20
140.8329790867557
 30
0.0
 10
66.69032219071335
 20
140.9013366085134
 30
0.0
 10
65.72992351215389
 20
141.0375147359007
 30
0.0
 10
64.93717129752154
 20
141.1958988312932
 30
0.0
 10
64.30918781306319
 20
141.3493243790036
 30
0.0
 10
63.68577757118858
 20
141.5203953016554
 30
0.0
 10
62.91592473041596
 20
141.767068476469
 30
0.0
 10
62.16119047251667
 20
142.0567177803518
 30
0.0
 10
61.64213861478726
 20
142.2815367631883
 30
0.0
 10
61.38505253201935
 20
142.3994057669195
 30
0.0
 10
61.25714090509288
 20
142.4596952541677
 30
0.0
 10
61.19334545919994
 20
142.4901776520834
 30
0.0
 10
61.16148808442772
 20
142.505502965193
 30
0.0
 10
61.14556962149012
 20
142.51318683434
 30
0.0
 10
61.13647612534966
 20
142.5175833471121
 30
0.0
 10
61.13193059955802
 20
142.519784129625
 30
0.0
 10
61.1296578366622
 20
142.5208845208815
 30
0.0
  0
LINE
  5
A3
330
1F
100
AcDbEntity
  8
0
  6
Continuous
 62
     7
370
    25
100
AcDbLine
 10
128.5773955774
 20
138.0982800983
 30
0.0
 11
76.1234134164
 21
138.0982800983
 31
0.0
  0
SPLINE
  5
A4
330
1F
100
AcDbEntity
  8
0
  6
Continuous
 62
     7
370
    25
100
AcDbSpline
210
0.0
220
0.0
230
1.0
 70
     8
 71
     3
 72
    22
 73
    18
 74
     0
 42
0.00000001
 43
0.00000001
 40
0.0
 40
0.0
 40
0.0
 40
0.0
 40
0.0625000000000003
 40
0.0625000000000003
 40
0.1250000000000006
 40
0.1250000000000006
 40
0.2500000000000007
 40
0.2500000000000007
 40
0.5000000000000004
 40
0.5000000000000004
 40
0.7500000000000002
 40
0.7500000000000002
 40
0.8750000000000001
 40
0.8750000000000001
 40
0.9375
 40
0.9375
 40
1.0
 40
1.0
 40
1.0
 40
1.0
 10
94.5128907458001
 20
142.5208845208815
 30
0.0
 10
94.83036978205543
 20
142.4457813284385
 30
0.0
 10
95.15237987097248
 20
142.3739777478673
 30
0.0
 10
95.79363660831223
 20
142.2407555488627
 30
0.0
 10
96.11479097482191
 20
142.1787362325003
 30
0.0
 10
97.07986955400443
 20
142.006587100202
 30
0.0
 10
97.72541000474943
 20
141.9103644980536
 30
0.0
 10
99.66876854552685
 20
141.6784557131627
 30
0.0
 10
100.9733407525533
 20
141.5995085995058
 30
0.0
 10
103.6015978223734
 20
141.5995085995054
 30
0.0
 10
104.9061700294118
 20
141.6784557131627
 30
0.0
 10
106.8495285701892
 20
141.9103644980536
 30
0.0
 10
107.4950690209341
 20
142.006587100202
 30
0.0
 10
108.4601476001167
 20
142.1787362325003
 30
0.0
 10
108.7813019666263
 20
142.2407555488627
 30
0.0
 10
109.4225587039661
 20
142.3739777478673
 30
0.0
 10
109.744568792883
 20
142.4457813284389
 30
0.0
 10
110.0620478291385
 20
142.5208845208815
 30
0.0
  0
LINE
  5
A5
330
1F
100
AcDbEntity
  8
0
  6
Continuous
 62
     7
370
    25
100
AcDbLine
 10
61.1296578367
 20
138.0982800983
 30
0.0
 11
37.4226044226
 21
138.0982800983
 31
0.0
  0
LINE
  5
A6
330
1F
100
AcDbEntity
  8
0
  6
Continuous
 62
     7
370
    25
100
AcDbLine
 10
76.1234134164
 20
177.9017199017
 30
0.0
 11
133.0
 21
177.9017199017
 31
0.0
  0
SPLINE
  5
A7
330
1F
100
AcDbEntity
  8
0
  6
Continuous
 62
     7
370
    25
100
AcDbSpline
210
0.0
220
0.0
230
1.0
 70
    24
 71
     3
 72
    18
 73
    14
 74
     0
 42
0.00000001
 43
0.00000001
 40
0.0
 40
0.0
 40
0.0
 40
0.0
 40
0.2499999999999997
 40
0.2499999999999997
 40
0.3749999999999996
 40
0.3749999999999996
 40
0.4999999999999994
 40
0.4999999999999994
 40
0.6249999999999993
 40
0.6249999999999993
 40
0.7499999999999991
 40
0.7499999999999991
 40
1.0
 40
1.0
 40
1.0
 40
1.0
 10
133.0
 20
177.9017199017169
 30
0.0
 10
133.0
 20
177.9017199017169
 30
0.0
 10
132.9050080347315
 20
177.8067279364483
 30
0.0
 10
132.5817181272744
 20
177.4834380289913
 30
0.0
 10
132.4443955724407
 20
177.3461154741576
 30
0.0
 10
132.1137956815817
 20
177.0155155832986
 30
0.0
 10
131.920540962604
 20
176.8222608643208
 30
0.0
 10
131.4887573476456
 20
176.3904772493624
 30
0.0
 10
131.2503256567283
 20
176.1520455584452
 30
0.0
 10
130.7446500488896
 20
175.6463699506064
 30
0.0
 10
130.4775374264296
 20
175.3792573281465
 30
0.0
 10
129.6609237506643
 20
174.5626436523812
 30
0.0
 10
129.0986045070171
 20
174.000324408734
 30
0.0
 10
128.5773955773955
 20
173.4791154791125
 30
0.0
  0
SPLINE
  5
A8
330
1F
100
AcDbEntity
  8
0
  6
Continuous
 62
     7
370
    25
100
AcDbSpline
210
0.0
220
0.0
230
1.0
 70
     8
 71
     3
 72
    22
 73
    18
 74
     0
 42
0.00000001
 43
0.00000001
 40
0.0
 40
0.0
 40
0.0
 40
0.0
 40
0.0624999999999998
 40
0.0624999999999998
 40
0.1249999999999996
 40
0.1249999999999996
 40
0.2499999999999993
 40
0.2499999999999993
 40
0.4999999999999996
 40
0.4999999999999996
 40
0.7499999999999998
 40
0.7499999999999998
 40
0.875
 40
0.875
 40
0.9375
 40
0.9375
 40
1.0
 40
1.0
 40
1.0
 40
1.0
 10
94.5128907458001
 20
173.4791154791125
 30
0.0
 10
94.83036978205536
 20
173.5542186715557
 30
0.0
 10
95.15237987097248
 20
173.6260222521267
 30
0.0
 10
95.79363660831221
 20
173.7592444511313
 30
0.0
 10
96.1147909748219
 20
173.8212637674937
 30
0.0
 10
97.07986955400442
 20
173.993412899792
 30
0.0
 10
97.7254100047494
 20
174.0896355019403
 30
0.0
 10
99.66876854552679
 20
174.3215442868312
 30
0.0
 10
100.9733407525651
 20
174.4004914004886
 30
0.0
 10
103.6015978223852
 20
174.4004914004881
 30
0.0
 10
104.9061700294117
 20
174.3215442868312
 30
0.0
 10
106.8495285701891
 20
174.0896355019404
 30
0.0
 10
107.4950690209341
 20
173.993412899792
 30
0.0
 10
108.4601476001167
 20
173.8212637674937
 30
0.0
 10
108.7813019666263
 20
173.7592444511313
 30
0.0
 10
109.4225587039661
 20
173.6260222521267
 30
0.0
 10
109.744568792883
 20
173.5542186715548
 30
0.0
 10
110.0620478291385
 20
173.4791154791125
 30
0.0
  0
ARC
  5
A9
330
1F
100
AcDbEntity
  8
0
  6
Continuous
 62
     7
370
    25
100
AcDbCircle
 10
102.2874692875
 20
158.0
 30
0.0
 40
12.8992628992629
100
AcDbArc
 50
192.7693064349
 51
167.2306935651
  0
SPLINE
  5
AA
330
1F
100
AcDbEntity
  8
0
  6
Continuous
 62
     7
370
    25
100
AcDbSpline
210
0.0
220
0.0
230
1.0
 70
    24
 71
     3
 72
    13
 73
     9
 74
     0
 42
0.00000001
 43
0.00000001
 40
0.0
 40
0.0
 40
0.0
 40
0.0
 40
0.0015257340290597
 40
0.0015257340290597
 40
0.0030514680581194
 40
0.0045772020871791
 40
0.0045772020871791
 40
0.0061029361162387
 40
0.0061029361162387
 40
0.0061029361162387
 40
0.0061029361162387
 10
61.1296578366622
 20
177.9017199017169
 30
0.0
 10
62.37926818000367
 20
177.9017199017169
 30
0.0
 10
63.62864945490598
 20
177.9017199017169
 30
0.0
 10
66.12763644530382
 20
177.9017199017169
 30
0.0
 10
68.6266180048848
 20
177.9017199017169
 30
0.0
 10
71.1255488999694
 20
177.9017199017169
 30
0.0
 10
73.6244743662055
 20
177.9017199017169
 30
0.0
 10
74.87393530240762
 20
177.9017199017169
 30
0.0
 10
76.12341341640895
 20
177.9017199017169
 30
0.0
  0
SPLINE
  5
AB
330
1F
100
AcDbEntity
  8
0
  6
Continuous
 62
     7
370
    25
100
AcDbSpline
210
0.0
220
0.0
230
1.0
 70
    24
 71
     3
 72
    13
 73
     9
 74
     0
 42
0.00000001
 43
0.00000001
 40
0.0
 40
0.0
 40
0.0
 40
0.0
 40
0.0015257340290597
 40
0.0015257340290597
 40
0.0030514680581194
 40
0.0045772020871791
 40
0.0045772020871791
 40
0.0061029361162387
 40
0.0061029361162387
 40
0.0061029361162387
 40
0.0061029361162387
 10
76.12341341640895
 20
138.0982800982771
 30
0.0
 10
74.87380307306755
 20
138.0982800982771
 30
0.0
 10
73.62442179816523
 20
138.0982800982771
 30
0.0
 10
71.12543480776743
 20
138.0982800982771
 30
0.0
 10
68.62645324818638
 20
138.0982800982771
 30
0.0
 10
66.12752235310177
 20
138.0982800982771
 30
0.0
 10
63.62859688686574
 20
138.0982800982771
 30
0.0
 10
62.37913595066362
 20
138.0982800982771
 30
0.0
 10
61.1296578366622
 20
138.0982800982771
 30
0.0
  0
SPLINE
  5
AC
330
1F
100
AcDbEntity
  8
0
  6
Continuous
 62
     7
370
    25
100
AcDbSpline
210
0.0
220
0.0
230
1.0
 70
     8
 71
     3
 72
    19
 73
    15
 74
     0
 42
0.00000001
 43
0.00000001
 40
0.0
 40
0.0
 40
0.0
 40
0.0
 40
0.0379994855856706
 40
0.0797183306352747
 40
0.1251628512369173
 40
0.1875499575489864
 40
0.2498751915121328
 40
0.4993190944566173
 40
0.6245996800127543
 40
0.7497293234216637
 40
0.8122024230291099
 40
0.8747036721557857
 40
0.9415579501271639
 40
1.0
 40
1.0
 40
1.0
 40
1.0
 10
89.70723226438399
 20
160.8510734447357
 30
0.0
 10
89.6914801571995
 20
160.7799439359611
 30
0.0
 10
89.65843413909217
 20
160.6307228185953
 30
0.0
 10
89.61179644345818
 20
160.3953732926803
 30
0.0
 10
89.56120572880609
 20
160.1133021296836
 30
0.0
 10
89.511500065828
 20
159.7911400102288
 30
0.0
 10
89.42185563414688
 20
159.0802413136525
 30
0.0
 10
89.374893800196
 20
158.2415749593267
 30
0.0
 10
89.40142205576024
 20
157.2832686174501
 30
0.0
 10
89.45145106133613
 20
156.6856059033015
 30
0.0
 10
89.5112482711373
 20
156.2103341463105
 30
0.0
 10
89.56742971360165
 20
155.8471903263763
 30
0.0
 10
89.63198152266116
 20
155.4930711729864
 30
0.0
 10
89.68329710366592
 20
155.2583893531921
 30
0.0
 10
89.70723226438399
 20
155.1489265552582
 30
0.0
  0
LINE
  5
AD
330
1F
100
AcDbEntity
  8
0
  6
Continuous
 62
     7
370
    25
100
AcDbLine
 10
133.0
 20
177.9017199017
 30
0.0
 11
133.0
 21
142.5208845209
 31
0.0
  0
ARC
  5
AE
330
1F
100
AcDbEntity
  8
0
  6
Continuous
 62
     7
370
    25
100
AcDbCircle
 10
37.4226044226
 20
173.4791154791
 30
0.0
 40
4.422604422604422
100
AcDbArc
 50
90.0
 51
180.0
  0
LINE
  5
AF
330
1F
100
AcDbEntity
  8
0
  6
Continuous
 62
     7
370
    25
100
AcDbLine
 10
33.0757939478
 20
143.3721482309
 30
0.0
 11
33.0757939478
 21
172.6278517691
 31
0.0
  0
SPLINE
  5
B0
330
1F
100
AcDbEntity
  8
0
  6
Continuous
 62
     7
370
    25
100
AcDbSpline
210
0.0
220
0.0
230
1.0
 70
     8
 71
     3
 72
     8
 73
     4
 74
     0
 42
0.00000001
 43
0.00000001
 40
0.0
 40
0.0
 40
0.0
 40
0.0
 40
1.0
 40
1.0
 40
1.0
 40
1.0
 10
33.07579394776987
 20
172.6278517691291
 30
0.0
 10
33.02498616439539
 20
172.8276391295668
 30
0.0
 10
32.99999999999999
 20
173.0305355351944
 30
0.0
 10
32.99999999999999
 20
173.2334152334122
 30
0.0
  0
LINE
  5
B1
330
1F
100
AcDbEntity
  8
0
  6
Continuous
 62
     7
370
    25
100
AcDbLine
 10
33.0
 20
173.2334152334
 30
0.0
 11
33.0
 21
173.4791154791
 31
0.0
  0
LINE
  5
B2
330
1F
100
AcDbEntity
  8
0
  6
Continuous
 62
     7
370
    25
100
AcDbLine
 10
33.0
 20
142.5208845209
 30
0.0
 11
33.0
 21
142.7665847666
 31
0.0
  0
SPLINE
  5
B3
330
1F
100
AcDbEntity
  8
0
  6
Continuous
 62
     7
370
    25
100
AcDbSpline
210
0.0
220
0.0
230
1.0
 70
     8
 71
     3
 72
     8
 73
     4
 74
     0
 42
0.00000001
 43
0.00000001
 40
0.0
 40
0.0
 40
0.0
 40
0.0
 40
1.0
 40
1.0
 40
1.0
 40
1.0
 10
33.07579394776987
 20
143.3721482308648
 30
0.0
 10
33.02498616439539
 20
143.1723608704272
 30
0.0
 10
32.99999999999999
 20
142.9694644647996
 30
0.0
 10
32.99999999999999
 20
142.7665847665818
 30
0.0
  0
ARC
  5
B4
330
1F
100
AcDbEntity
  8
0
  6
Continuous
 62
     7
370
    25
100
AcDbCircle
 10
37.4226044226
 20
142.5208845209
 30
0.0
 40
4.422604422604422
100
AcDbArc
 50
180.0
 51
270.0
  0
ARC
  5
B5
330
1F
100
AcDbEntity
  8
0
  6
Continuous
 62
     7
370
    25
100
AcDbCircle
 10
128.5773955774
 20
142.5208845209
 30
0.0
 40
4.422604422604422
100
AcDbArc
 50
270.0
 51
0.0
  0
LINE
  5
B6
330
1F
100
AcDbEntity
  8
0
  6
Continuous
 62
     7
370
    25
100
AcDbLine
 10
33.0
 20
142.7665847666
 30
0.0
 11
33.0
 21
173.2334152334
 31
0.0
  0
CIRCLE
  5
B7
330
1F
100
AcDbEntity
  8
0
  6
Continuous
 62
     7
370
    25
100
AcDbCircle
 10
68.6265356265
 20
158.0
 30
0.0
 40
6.756756756756744
  0
CIRCLE
  5
B8
330
1F
100
AcDbEntity
  8
0
  6
Continuous
 62
     7
370
    25
100
AcDbCircle
 10
102.2874692875
 20
158.0
 30
0.0
 40
7.985257985257988
  0
SPLINE
  5
B9
330
1F
100
AcDbEntity
  8
0
  6
HIDDEN
 62
     7
370
    18
100
AcDbSpline
210
0.0
220
0.0
230
1.0
 70
     8
 71
     3
 72
    14
 73
    10
 74
     0
 42
0.00000001
 43
0.00000001
 40
0.0
 40
0.0
 40
0.0
 40
0.0
 40
0.25
 40
0.25
 40
0.5
 40
0.5
 40
0.75
 40
0.75
 40
1.0
 40
1.0
 40
1.0
 40
1.0
 10
35.45700245700245
 20
170.7764127764098
 30
0.0
 10
35.20564530312183
 20
170.7764127764098
 30
0.0
 10
34.94033364635268
 20
170.8158976331788
 30
0.0
 10
34.42243340478971
 20
170.9881970071499
 30
0.0
 10
34.17064162526783
 20
171.1212931265251
 30
0.0
 10
33.72707744216954
 20
171.4661734766405
 30
0.0
 10
33.53602939785461
 20
171.6773945030346
 30
0.0
 10
33.24140120250772
 20
172.1368528373681
 30
0.0
 10
33.13774452028252
 20
172.3842485151026
 30
0.0
 10
33.07579394776987
 20
172.6278517691292
 30
0.0
  0
SPLINE
  5
BA
330
1F
100
AcDbEntity
  8
0
  6
HIDDEN
 62
     7
370
    18
100
AcDbSpline
210
0.0
220
0.0
230
1.0
 70
     8
 71
     3
 72
    14
 73
    10
 74
     0
 42
0.00000001
 43
0.00000001
 40
0.0
 40
0.0
 40
0.0
 40
0.0
 40
0.25
 40
0.25
 40
0.5
 40
0.5
 40
0.75
 40
0.75
 40
1.0
 40
1.0
 40
1.0
 40
1.0
 10
33.07579394776987
 20
143.3721482308648
 30
0.0
 10
33.13774452028252
 20
143.6157514848914
 30
0.0
 10
33.24140120250772
 20
143.8631471626259
 30
0.0
 10
33.53602939785461
 20
144.3226054969593
 30
0.0
 10
33.72707744216955
 20
144.5338265233534
 30
0.0
 10
34.17064162526785
 20
144.8787068734688
 30
0.0
 10
34.42243340478971
 20
145.011802992844
 30
0.0
 10
34.94033364635269
 20
145.1841023668152
 30
0.0
 10
35.20564530312183
 20
145.2235872235842
 30
0.0
 10
35.45700245700245
 20
145.2235872235842
 30
0.0
  0
LINE
  5
BB
330
1F
100
AcDbEntity
  8
0
  6
HIDDEN
 62
     7
370
    18
100
AcDbLine
 10
61.2719265125
 20
170.7764127764
 30
0.0
 11
35.457002457
 21
170.7764127764
 31
0.0
  0
LINE
  5
BC
330
1F
100
AcDbEntity
  8
0
  6
HIDDEN
 62
     7
370
    18
100
AcDbLine
 10
61.2719265125
 20
145.2235872236
 30
0.0
 11
35.457002457
 21
145.2235872236
 31
0.0
  0
LINE
  5
BD
330
1F
100
AcDbEntity
  8
0
  6
HIDDEN
 62
     7
370
    18
100
AcDbLine
 10
85.3341523342
 20
138.0982800983
 30
0.0
 11
85.3341523342
 21
177.9017199017
 31
0.0
  0
INSERT
  5
C9
330
1F
100
AcDbEntity
  8
10
100
AcDbBlockReference
  2
SW_CENTERMARKSYMBOL_0
 10
68.6265356265
 20
158.0
 30
0.0
  0
INSERT
  5
D5
330
1F
100
AcDbEntity
  8
10
100
AcDbBlockReference
  2
SW_CENTERMARKSYMBOL_1
 10
102.2874692875
 20
158.0
 30
0.0
  0
SPLINE
  5
D6
330
1F
100
AcDbEntity
  8
0
  6
Continuous
 62
     7
370
    25
100
AcDbSpline
210
0.0
220
0.0
230
1.0
 70
     8
 71
     3
 72
    15
 73
    11
 74
     0
 42
0.00000001
 43
0.00000001
 40
0.0
 40
0.0
 40
0.0
 40
0.0
 40
0.1615801034064093
 40
0.3050522824115473
 40
0.4265980349470318
 40
0.5241130512104234
 40
0.6125158124658738
 40
0.7223010816715106
 40
0.852514908312274
 40
0.9999999999999999
 40
0.9999999999999999
 40
0.9999999999999999
 40
0.9999999999999999
 10
242.9017199017169
 20
75.28095401083723
 30
0.0
 10
242.8865514643514
 20
75.5601340958621
 30
0.0
 10
242.8579144828085
 20
76.08720717197268
 30
0.0
 10
242.6506198723683
 20
76.79912977386788
 30
0.0
 10
242.3913811220795
 20
77.36991481635823
 30
0.0
 10
242.1100670201075
 20
77.82107128089525
 30
0.0
 10
241.7946388724289
 20
78.22320520573959
 30
0.0
 10
241.3938667029029
 20
78.62518738952478
 30
0.0
 10
240.8615081093427
 20
79.03629633550727
 30
0.0
 10
240.4288177802088
 20
79.24473204076678
 30
0.0
 10
240.1990171988856
 20
79.35543164048516
 30
0.0
  0
SPLINE
  5
D7
330
1F
100
AcDbEntity
  8
0
  6
Continuous
 62
     7
370
    25
100
AcDbSpline
210
0.0
220
0.0
230
1.0
 70
     8
 71
     3
 72
    15
 73
    11
 74
     0
 42
0.00000001
 43
0.00000001
 40
0.0
 40
0.0
 40
0.0
 40
0.0
 40
0.1474850916877272
 40
0.2776989183284909
 40
0.3874841875341294
 40
0.4758869487895788
 40
0.5734019650529713
 40
0.6949477175884559
 40
0.8384198965935926
 40
1.0
 40
1.0
 40
1.0
 40
1.0
 10
205.8009828011084
 20
79.35543164048515
 30
0.0
 10
205.5711822197852
 20
79.24473204076676
 30
0.0
 10
205.1384918906514
 20
79.03629633550725
 30
0.0
 10
204.6061332970911
 20
78.62518738952477
 30
0.0
 10
204.2053611275651
 20
78.22320520573959
 30
0.0
 10
203.8899329798865
 20
77.82107128089524
 30
0.0
 10
203.6086188779145
 20
77.36991481635822
 30
0.0
 10
203.3493801276257
 20
76.79912977386788
 30
0.0
 10
203.1420855171854
 20
76.08720717197268
 30
0.0
 10
203.1134485356426
 20
75.5601340958621
 30
0.0
 10
203.0982800982771
 20
75.28095401083725
 30
0.0
  0
LINE
  5
D8
330
1F
100
AcDbEntity
  8
0
  6
Continuous
 62
     7
370
    25
100
AcDbLine
 10
242.9017199017
 20
44.9573972425
 30
0.0
 11
203.0982800983
 21
44.9573972425
 31
0.0
  0
SPLINE
  5
D9
330
1F
100
AcDbEntity
  8
0
  6
Continuous
 62
     7
370
    25
100
AcDbSpline
210
0.0
220
0.0
230
1.0
 70
    24
 71
     3
 72
    18
 73
    14
 74
     0
 42
0.00000001
 43
0.00000001
 40
0.0
 40
0.0
 40
0.0
 40
0.0
 40
0.2500000000000003
 40
0.2500000000000003
 40
0.3750000000000003
 40
0.3750000000000003
 40
0.5000000000000003
 40
0.5000000000000003
 40
0.6250000000000003
 40
0.6250000000000003
 40
0.7500000000000003
 40
0.7500000000000003
 40
1.0
 40
1.0
 40
1.0
 40
1.0
 10
203.0982800982771
 20
44.95739724245076
 30
0.0
 10
203.0982800982771
 20
44.95739724245076
 30
0.0
 10
203.1932720635456
 20
45.05238920771929
 30
0.0
 10
203.5165619710026
 20
45.3756791151763
 30
0.0
 10
203.6538845258364
 20
45.51300167001006
 30
0.0
 10
203.9844844166953
 20
45.84360156086901
 30
0.0
 10
204.1777391356731
 20
46.03685627984679
 30
0.0
 10
204.6095227506315
 20
46.46863989480519
 30
0.0
 10
204.8479544415488
 20
46.70707158572241
 30
0.0
 10
205.3536300493875
 20
47.21274719356115
 30
0.0
 10
205.6207426718474
 20
47.47985981602112
 30
0.0
 10
206.4373563476127
 20
48.29647349178642
 30
0.0
 10
206.99967559126
 20
48.85879273543365
 30
0.0
 10
207.5208845208815
 20
49.38000166505518
 30
0.0
  0
LINE
  5
DA
330
1F
100
AcDbEntity
  8
0
  6
Continuous
 62
     7
370
    25
100
AcDbLine
 10
242.9017199017
 20
49.3800016651
 30
0.0
 11
242.9017199017
 21
44.9573972425
 31
0.0
  0
LINE
  5
DB
330
1F
100
AcDbEntity
  8
0
  6
Continuous
 62
     7
370
    25
100
AcDbLine
 10
242.9017199017
 20
74.9328272179
 30
0.0
 11
242.9017199017
 21
49.3800016651
 31
0.0
  0
LINE
  5
DC
330
1F
100
AcDbEntity
  8
0
  6
Continuous
 62
     7
370
    25
100
AcDbLine
 10
207.5208845209
 20
79.3554316405
 30
0.0
 11
238.4791154791
 21
79.3554316405
 31
0.0
  0
SPLINE
  5
DD
330
1F
100
AcDbEntity
  8
0
  6
Continuous
 62
     7
370
    25
100
AcDbSpline
210
0.0
220
0.0
230
1.0
 70
     8
 71
     3
 72
    18
 73
    14
 74
     0
 42
0.00000001
 43
0.00000001
 40
0.0
 40
0.0
 40
0.0
 40
0.0
 40
0.2499999999999997
 40
0.2499999999999997
 40
0.3749999999999996
 40
0.3749999999999996
 40
0.4999999999999994
 40
0.4999999999999994
 40
0.6249999999999993
 40
0.6249999999999993
 40
0.7499999999999991
 40
0.7499999999999991
 40
1.0
 40
1.0
 40
1.0
 40
1.0
 10
242.9017199017169
 20
74.93282721788073
 30
0.0
 10
242.9017199017169
 20
75.45403614750228
 30
0.0
 10
242.8067279364483
 20
76.01635539114949
 30
0.0
 10
242.4834380289913
 20
76.8329690669148
 30
0.0
 10
242.3461154741576
 20
77.10008168937476
 30
0.0
 10
242.0155155832986
 20
77.6057572972135
 30
0.0
 10
241.8222608643208
 20
77.84418898813072
 30
0.0
 10
241.3904772493624
 20
78.27597260308913
 30
0.0
 10
241.1520455584452
 20
78.4692273220669
 30
0.0
 10
240.6463699506064
 20
78.79982721292586
 30
0.0
 10
240.3792573281465
 20
78.93714976775962
 30
0.0
 10
239.5626436523812
 20
79.26043967521662
 30
0.0
 10
239.000324408734
 20
79.35543164048515
 30
0.0
 10
238.4791154791125
 20
79.35543164048515
 30
0.0
  0
LINE
  5
DE
330
1F
100
AcDbEntity
  8
0
  6
Continuous
 62
     7
370
    25
100
AcDbLine
 10
203.0982800983
 20
44.9573972425
 30
0.0
 11
203.0982800983
 21
74.9328272179
 31
0.0
  0
ARC
  5
DF
330
1F
100
AcDbEntity
  8
0
  6
Continuous
 62
     7
370
    25
100
AcDbCircle
 10
207.5208845209
 20
74.9328272179
 30
0.0
 40
4.422604422604422
100
AcDbArc
 50
90.0
 51
180.0
  0
SPLINE
  5
E0
330
1F
100
AcDbEntity
  8
0
  6
Continuous
 62
     7
370
    25
100
AcDbSpline
210
0.0
220
0.0
230
1.0
 70
     8
 71
     3
 72
    11
 73
     7
 74
     0
 42
0.00000001
 43
0.00000001
 40
0.0
 40
0.0
 40
0.0
 40
0.0
 40
0.250669984768496
 40
0.5013468261699962
 40
0.7554818824026325
 40
1.0
 40
1.0
 40
1.0
 40
1.0
 10
206.5995085995056
 20
79.25839033617515
 30
0.0
 10
206.6105144249125
 20
79.26108656468966
 30
0.0
 10
206.6325263767712
 20
79.26647909546924
 30
0.0
 10
206.8129095706847
 20
79.29940855302954
 30
0.0
 10
207.0880049537991
 20
79.34151874011044
 30
0.0
 10
207.3635436520915
 20
79.35038447653739
 30
0.0
 10
207.4986560054617
 20
79.35473185322321
 30
0.0
  0
SPLINE
  5
E1
330
1F
100
AcDbEntity
  8
0
  6
Continuous
 62
     7
370
    25
100
AcDbSpline
210
0.0
220
0.0
230
1.0
 70
    24
 71
     3
 72
    11
 73
     7
 74
     0
 42
0.00000001
 43
0.00000001
 40
0.0
 40
0.0
 40
0.0
 40
0.0
 40
0.2830347799503413
 40
0.5660695599006828
 40
0.8491043398510238
 40
1.0
 40
1.0
 40
1.0
 40
1.0
 10
240.1990171990142
 20
79.35543164048515
 30
0.0
 10
240.1784728273567
 20
79.35543164048515
 30
0.0
 10
240.1373840840418
 20
79.35543164048515
 30
0.0
 10
239.7902356744325
 20
79.35543164048515
 30
0.0
 10
239.3618046507836
 20
79.35543164048515
 30
0.0
 10
238.965019142397
 20
79.35543164048515
 30
0.0
 10
238.8270403197732
 20
79.35543164048515
 30
0.0
  0
SPLINE
  5
E2
330
1F
100
AcDbEntity
  8
0
  6
Continuous
 62
     7
370
    25
100
AcDbSpline
210
0.0
220
0.0
230
1.0
 70
    24
 71
     3
 72
    11
 73
     7
 74
     0
 42
0.00000001
 43
0.00000001
 40
0.0
 40
0.0
 40
0.0
 40
0.0
 40
0.1523032131359581
 40
0.4348688087573068
 40
0.7174344043786565
 40
1.0
 40
1.0
 40
1.0
 40
1.0
 10
207.1773316609921
 20
79.35543164048515
 30
0.0
 10
207.0377965185512
 20
79.35543164048515
 30
0.0
 10
206.6393841677962
 20
79.35543164048515
 30
0.0
 10
206.2096992278217
 20
79.35543164048515
 30
0.0
 10
205.862632190387
 20
79.35543164048515
 30
0.0
 10
205.8215325974489
 20
79.35543164048516
 30
0.0
 10
205.8009828009798
 20
79.35543164048515
 30
0.0
  0
ARC
  5
E3
330
1F
100
AcDbEntity
  8
0
  6
Continuous
 62
     7
370
    25
100
AcDbCircle
 10
207.5208845209
 20
39.0605913456
 30
0.0
 40
4.422604422604422
100
AcDbArc
 50
180.0
 51
270.0
  0
LINE
  5
E4
330
1F
100
AcDbEntity
  8
0
  6
Continuous
 62
     7
370
    25
100
AcDbLine
 10
207.5208845209
 20
34.637986923
 30
0.0
 11
238.4791154791
 21
34.637986923
 31
0.0
  0
ARC
  5
E5
330
1F
100
AcDbEntity
  8
0
  6
Continuous
 62
     7
370
    25
100
AcDbCircle
 10
238.4791154791
 20
39.0605913456
 30
0.0
 40
4.422604422604422
100
AcDbArc
 50
270.0
 51
0.0
  0
LINE
  5
E6
330
1F
100
AcDbEntity
  8
0
  6
Continuous
 62
     7
370
    25
100
AcDbLine
 10
203.0982800983
 20
44.9573972425
 30
0.0
 11
203.0982800983
 21
39.0605913456
 31
0.0
  0
LINE
  5
E7
330
1F
100
AcDbEntity
  8
0
  6
Continuous
 62
     7
370
    25
100
AcDbLine
 10
242.9017199017
 20
44.9573972425
 30
0.0
 11
242.9017199017
 21
39.0605913456
 31
0.0
  0
SPLINE
  5
E8
330
1F
100
AcDbEntity
  8
0
  6
HIDDEN
 62
     7
370
    18
100
AcDbSpline
210
0.0
220
0.0
230
1.0
 70
     8
 71
     3
 72
    14
 73
    10
 74
     0
 42
0.00000001
 43
0.00000001
 40
0.0
 40
0.0
 40
0.0
 40
0.0
 40
0.1249999999999999
 40
0.1249999999999999
 40
0.2499999999999999
 40
0.2499999999999999
 40
0.4999999999999998
 40
0.4999999999999998
 40
1.0
 40
1.0
 40
1.0
 40
1.0
 10
238.4791154791125
 20
79.35543164048515
 30
0.0
 10
238.5542186715558
 20
79.35543164048515
 30
0.0
 10
238.6260222521267
 20
79.35349410011062
 30
0.0
 10
238.7592444511315
 20
79.34705478820797
 30
0.0
 10
238.8212637674939
 20
79.34255332448265
 30
0.0
 10
238.9934128997923
 20
79.32693778459576
 30
0.0
 10
239.0896355019407
 20
79.31378819081718
 30
0.0
 10
239.3215442868316
 20
79.27727644028744
 30
0.0
 10
239.4004914004886
 20
79.2583903361751
 30
0.0
 10
239.4004914004884
 20
79.25839033617515
 30
0.0
  0
LINE
  5
E9
330
1F
100
AcDbEntity
  8
0
  6
HIDDEN
 62
     7
370
    18
100
AcDbLine
 10
210.1007371007
 20
52.3284046135
 30
0.0
 11
235.8992628993
 21
52.3284046135
 31
0.0
  0
LINE
  5
EA
330
1F
100
AcDbEntity
  8
0
  6
HIDDEN
 62
     7
370
    18
100
AcDbLine
 10
208.257985258
 20
54.7854070705
 30
0.0
 11
237.742014742
 21
54.7854070705
 31
0.0
  0
LINE
  5
EB
330
1F
100
AcDbEntity
  8
0
  6
HIDDEN
 62
     7
370
    18
100
AcDbLine
 10
235.7764127764
 20
73.8966603115
 30
0.0
 11
210.2235872236
 21
73.8966603115
 31
0.0
  0
LINE
  5
EC
330
1F
100
AcDbEntity
  8
0
  6
HIDDEN
 62
     7
370
    18
100
AcDbLine
 10
210.2235872236
 20
73.8966603115
 30
0.0
 11
210.2235872236
 21
65.7885522034
 31
0.0
  0
LINE
  5
ED
330
1F
100
AcDbEntity
  8
0
  6
HIDDEN
 62
     7
370
    18
100
AcDbLine
 10
210.2235872236
 20
65.7885522034
 30
0.0
 11
235.7764127764
 21
65.7885522034
 31
0.0
  0
LINE
  5
EE
330
1F
100
AcDbEntity
  8
0
  6
HIDDEN
 62
     7
370
    18
100
AcDbLine
 10
235.7764127764
 20
65.7885522034
 30
0.0
 11
235.7764127764
 21
73.8966603115
 31
0.0
  0
LINE
  5
EF
330
1F
100
AcDbEntity
  8
0
  6
HIDDEN
 62
     7
370
    18
100
AcDbLine
 10
208.3721482309
 20
75.7480993042
 30
0.0
 11
237.6278517691
 21
75.7480993042
 31
0.0
  0
SPLINE
  5
F0
330
1F
100
AcDbEntity
  8
0
  6
HIDDEN
 62
     7
370
    18
100
AcDbSpline
210
0.0
220
0.0
230
1.0
 70
     8
 71
     3
 72
     8
 73
     4
 74
     0
 42
0.00000001
 43
0.00000001
 40
0.0
 40
0.0
 40
0.0
 40
0.0
 40
1.0
 40
1.0
 40
1.0
 40
1.0
 10
237.6278517691291
 20
75.74809930418624
 30
0.0
 10
237.8276391295668
 20
75.47720593167287
 30
0.0
 10
238.0305355351944
 20
75.2050192846113
 30
0.0
 10
238.2334152334122
 20
74.93282721788073
 30
0.0
  0
SPLINE
  5
F1
330
1F
100
AcDbEntity
  8
0
  6
HIDDEN
 62
     7
370
    18
100
AcDbSpline
210
0.0
220
0.0
230
1.0
 70
     8
 71
     3
 72
     8
 73
     4
 74
     0
 42
0.00000001
 43
0.00000001
 40
0.0
 40
0.0
 40
0.0
 40
0.0
 40
1.0
 40
1.0
 40
1.0
 40
1.0
 10
208.3721482308648
 20
75.74809930418625
 30
0.0
 10
208.1723608704272
 20
75.47720593167287
 30
0.0
 10
207.9694644647996
 20
75.20501928461125
 30
0.0
 10
207.7665847665818
 20
74.93282721788073
 30
0.0
  0
SPLINE
  5
F2
330
1F
100
AcDbEntity
  8
0
  6
HIDDEN
 62
     7
370
    18
100
AcDbSpline
210
0.0
220
0.0
230
1.0
 70
    24
 71
     3
 72
    14
 73
    10
 74
     0
 42
0.00000001
 43
0.00000001
 40
0.0
 40
0.0
 40
0.0
 40
0.0
 40
0.25
 40
0.25
 40
0.5
 40
0.5
 40
0.75
 40
0.75
 40
1.0
 40
1.0
 40
1.0
 40
1.0
 10
235.7764127764098
 20
65.78855220335878
 30
0.0
 10
235.7764127764098
 20
65.78855220335878
 30
0.0
 10
235.8291860904478
 20
65.73577888932071
 30
0.0
 10
236.0686600959715
 20
65.49630488379698
 30
0.0
 10
236.2561723485857
 20
65.30879263118277
 30
0.0
 10
236.7359319207618
 20
64.82903305900675
 30
0.0
 10
237.0265561180664
 20
64.53840886170215
 30
0.0
 10
237.6314551371518
 20
63.93350984261673
 30
0.0
 10
237.9438547169558
 20
63.62111026281273
 30
0.0
 10
238.2334152334122
 20
63.33154974635631
 30
0.0
  0
SPLINE
  5
F3
330
1F
100
AcDbEntity
  8
0
  6
HIDDEN
 62
     7
370
    18
100
AcDbSpline
210
0.0
220
0.0
230
1.0
 70
    24
 71
     3
 72
    14
 73
    10
 74
     0
 42
0.00000001
 43
0.00000001
 40
0.0
 40
0.0
 40
0.0
 40
0.0
 40
0.25
 40
0.25
 40
0.5
 40
0.5
 40
0.75
 40
0.75
 40
1.0
 40
1.0
 40
1.0
 40
1.0
 10
235.7764127764098
 20
73.89666031146685
 30
0.0
 10
235.7764127764098
 20
73.89666031146686
 30
0.0
 10
235.8158976331788
 20
73.93614516823591
 30
0.0
 10
235.9881970071499
 20
74.10844454220708
 30
0.0
 10
236.1212931265251
 20
74.24154066158228
 30
0.0
 10
236.4661734766405
 20
74.58642101169768
 30
0.0
 10
236.6773945030346
 20
74.79764203809175
 30
0.0
 10
237.1368528373681
 20
75.25710037242523
 30
0.0
 10
237.3842485151026
 20
75.50449605015972
 30
0.0
 10
237.6278517691292
 20
75.74809930418625
 30
0.0
  0
SPLINE
  5
F4
330
1F
100
AcDbEntity
  8
0
  6
HIDDEN
 62
     7
370
    18
100
AcDbSpline
210
0.0
220
0.0
230
1.0
 70
    24
 71
     3
 72
    14
 73
    10
 74
     0
 42
0.00000001
 43
0.00000001
 40
0.0
 40
0.0
 40
0.0
 40
0.0
 40
0.25
 40
0.25
 40
0.5
 40
0.5
 40
0.75
 40
0.75
 40
1.0
 40
1.0
 40
1.0
 40
1.0
 10
207.7665847665818
 20
63.33154974635631
 30
0.0
 10
208.0561452830381
 20
63.62111026281273
 30
0.0
 10
208.3685448628422
 20
63.93350984261673
 30
0.0
 10
208.9734438819276
 20
64.53840886170215
 30
0.0
 10
209.2640680792322
 20
64.82903305900675
 30
0.0
 10
209.7438276514082
 20
65.30879263118277
 30
0.0
 10
209.9313399040224
 20
65.49630488379698
 30
0.0
 10
210.1708139095461
 20
65.7357788893207
 30
0.0
 10
210.2235872235842
 20
65.78855220335878
 30
0.0
 10
210.2235872235842
 20
65.78855220335878
 30
0.0
  0
SPLINE
  5
F5
330
1F
100
AcDbEntity
  8
0
  6
HIDDEN
 62
     7
370
    18
100
AcDbSpline
210
0.0
220
0.0
230
1.0
 70
    24
 71
     3
 72
    14
 73
    10
 74
     0
 42
0.00000001
 43
0.00000001
 40
0.0
 40
0.0
 40
0.0
 40
0.0
 40
0.25
 40
0.25
 40
0.5
 40
0.5
 40
0.75
 40
0.75
 40
1.0
 40
1.0
 40
1.0
 40
1.0
 10
208.3721482308648
 20
75.74809930418625
 30
0.0
 10
208.6157514848914
 20
75.50449605015972
 30
0.0
 10
208.8631471626259
 20
75.25710037242523
 30
0.0
 10
209.3226054969593
 20
74.79764203809175
 30
0.0
 10
209.5338265233534
 20
74.58642101169768
 30
0.0
 10
209.8787068734688
 20
74.24154066158228
 30
0.0
 10
210.011802992844
 20
74.10844454220708
 30
0.0
 10
210.1841023668152
 20
73.93614516823591
 30
0.0
 10
210.2235872235842
 20
73.89666031146686
 30
0.0
 10
210.2235872235842
 20
73.89666031146685
 30
0.0
  0
ARC
  5
F6
330
1F
100
AcDbEntity
  8
0
  6
HIDDEN
 62
     7
370
    18
100
AcDbCircle
 10
240.3218673219
 20
74.9328272179
 30
0.0
 40
4.422604422604439
100
AcDbArc
 50
101.9288198323
 51
180.0
  0
ARC
  5
F7
330
1F
100
AcDbEntity
  8
0
  6
HIDDEN
 62
     7
370
    18
100
AcDbCircle
 10
205.6781326781
 20
74.9328272179
 30
0.0
 40
4.422604422604444
100
AcDbArc
 50
0.0
 51
77.9648991407
  0
LINE
  5
F8
330
1F
100
AcDbEntity
  8
0
  6
HIDDEN
 62
     7
370
    18
100
AcDbLine
 10
210.1007371007
 20
74.9328272179
 30
0.0
 11
210.1007371007
 21
52.3284046135
 31
0.0
  0
LINE
  5
F9
330
1F
100
AcDbEntity
  8
0
  6
HIDDEN
 62
     7
370
    18
100
AcDbLine
 10
235.8992628993
 20
52.3284046135
 30
0.0
 11
235.8992628993
 21
74.9328272179
 31
0.0
  0
LINE
  5
FA
330
1F
100
AcDbEntity
  8
0
  6
HIDDEN
 62
     7
370
    18
100
AcDbLine
 10
215.0147420147
 20
52.3284046135
 30
0.0
 11
215.0147420147
 21
44.9573972425
 31
0.0
  0
LINE
  5
FB
330
1F
100
AcDbEntity
  8
0
  6
HIDDEN
 62
     7
370
    18
100
AcDbLine
 10
230.9852579853
 20
44.9573972425
 30
0.0
 11
230.9852579853
 21
52.3284046135
 31
0.0
  0
ARC
  5
FC
330
1F
100
AcDbEntity
  8
0
  6
HIDDEN
 62
     7
370
    18
100
AcDbCircle
 10
240.199017199
 20
76.8984291835
 30
0.0
 40
2.45700245700246
100
AcDbArc
 50
90.0
 51
180.0
  0
ARC
  5
FD
330
1F
100
AcDbEntity
  8
0
  6
HIDDEN
 62
     7
370
    18
100
AcDbCircle
 10
205.800982801
 20
76.8984291835
 30
0.0
 40
2.45700245700246
100
AcDbArc
 50
0.0
 51
90.0
  0
LINE
  5
FE
330
1F
100
AcDbEntity
  8
0
  6
HIDDEN
 62
     7
370
    18
100
AcDbLine
 10
208.257985258
 20
76.8984291835
 30
0.0
 11
208.257985258
 21
54.7854070705
 31
0.0
  0
LINE
  5
FF
330
1F
100
AcDbEntity
  8
0
  6
HIDDEN
 62
     7
370
    18
100
AcDbLine
 10
237.742014742
 20
54.7854070705
 30
0.0
 11
237.742014742
 21
76.8984291835
 31
0.0
  0
ARC
  5
100
330
1F
100
AcDbEntity
  8
0
  6
HIDDEN
 62
     7
370
    18
100
AcDbCircle
 10
213.7862407862
 20
52.3284046135
 30
0.0
 40
2.457002457002488
100
AcDbArc
 50
0.0
 51
90.0
  0
ARC
  5
101
330
1F
100
AcDbEntity
  8
0
  6
HIDDEN
 62
     7
370
    18
100
AcDbCircle
 10
232.2137592138
 20
52.3284046135
 30
0.0
 40
2.457002457002467
100
AcDbArc
 50
90.0
 51
180.0
  0
LINE
  5
102
330
1F
100
AcDbEntity
  8
0
  6
HIDDEN
 62
     7
370
    18
100
AcDbLine
 10
229.7567567568
 20
34.637986923
 30
0.0
 11
229.7567567568
 21
52.3284046135
 31
0.0
  0
LINE
  5
103
330
1F
100
AcDbEntity
  8
0
  6
HIDDEN
 62
     7
370
    18
100
AcDbLine
 10
216.2432432432
 20
52.3284046135
 30
0.0
 11
216.2432432432
 21
34.637986923
 31
0.0
  0
ENDSEC
  0
SECTION
  2
OBJECTS
  0
DICTIONARY
  5
C
330
0
100
AcDbDictionary
281
     1
  3
ACAD_GROUP
350
D
  3
ACAD_LAYOUT
350
1A
  3
ACAD_MLINESTYLE
350
17
  3
ACAD_PLOTSETTINGS
350
19
  3
ACAD_PLOTSTYLENAME
350
E
  3
ACAD_SCALELIST
350
47
  3
DWGPROPS
350
104
  0
DICTIONARY
  5
D
102
{ACAD_REACTORS
330
C
102
}
330
C
100
AcDbDictionary
281
     1
  0
DICTIONARY
  5
1A
102
{ACAD_REACTORS
330
C
102
}
330
C
100
AcDbDictionary
281
     1
  3
Layout1
350
1E
  3
Layout2
350
26
  3
Model
350
22
  0
DICTIONARY
  5
17
102
{ACAD_REACTORS
330
C
102
}
330
C
100
AcDbDictionary
281
     1
  3
Standard
350
18
  0
DICTIONARY
  5
19
102
{ACAD_REACTORS
330
C
102
}
330
C
100
AcDbDictionary
281
     1
  0
ACDBDICTIONARYWDFLT
  5
E
102
{ACAD_REACTORS
330
C
102
}
330
C
100
AcDbDictionary
281
     1
  3
Normal
350
F
100
AcDbDictionaryWithDefault
340
F
  0
DICTIONARY
  5
47
102
{ACAD_REACTORS
330
C
102
}
330
C
100
AcDbDictionary
281
     1
  3
A0
350
48
  3
A1
350
49
  3
A2
350
4A
  3
A3
350
4B
  3
A4
350
4C
  3
A5
350
4D
  3
A6
350
4E
  3
A7
350
4F
  3
A8
350
50
  3
A9
350
51
  3
B0
350
52
  3
B1
350
53
  3
B2
350
54
  3
B3
350
55
  3
B4
350
56
  3
B5
350
57
  3
B6
350
58
  0
XRECORD
  5
104
102
{ACAD_REACTORS
330
C
102
}
330
C
100
AcDbXrecord
280
     1
  1
DWGPROPS COOKIE
  2

  3

  4

  6

  7

  8

  9

300
=
301
=
302
=
303
=
304
=
305
=
306
=
307
=
308
=
309
=
 40
0.0
 41
2461215.289852605
 42
2461215.28985294
  1

 90
        0
  0
LAYOUT
  5
1E
102
{ACAD_REACTORS
330
1A
102
}
330
1A
100
AcDbPlotSettings
  1

  2
none_device
  4

  6

 40
0.0
 41
0.0
 42
0.0
 43
0.0
 44
0.0
 45
0.0
 46
0.0
 47
0.0
 48
0.0
 49
0.0
140
0.0
141
0.0
142
1.0
143
1.0
 70
   688
 72
     1
 73
     0
 74
     5
  7

 75
    16
147
1.0
148
0.0
149
0.0
100
AcDbLayout
  1
Layout1
 70
     1
 71
     1
 10
0.0
 20
0.0
 11
420.0
 21
297.0
 12
0.0
 22
0.0
 32
0.0
 14
1.0000000000E+20
 24
1.0000000000E+20
 34
1.0000000000E+20
 15
-1.0000000000E+20
 25
-1.0000000000E+20
 35
-1.0000000000E+20
146
0.0
 13
0.0
 23
0.0
 33
0.0
 16
1.0
 26
0.0
 36
0.0
 17
0.0
 27
1.0
 37
0.0
 76
     0
330
1B
  0
LAYOUT
  5
26
102
{ACAD_REACTORS
330
1A
102
}
330
1A
100
AcDbPlotSettings
  1

  2
none_device
  4

  6

 40
0.0
 41
0.0
 42
0.0
 43
0.0
 44
0.0
 45
0.0
 46
0.0
 47
0.0
 48
0.0
 49
0.0
140
0.0
141
0.0
142
1.0
143
1.0
 70
   688
 72
     1
 73
     0
 74
     5
  7

 75
    16
147
1.0
148
0.0
149
0.0
100
AcDbLayout
  1
Layout2
 70
     1
 71
     2
 10
0.0
 20
0.0
 11
0.0
 21
0.0
 12
0.0
 22
0.0
 32
0.0
 14
0.0
 24
0.0
 34
0.0
 15
0.0
 25
0.0
 35
0.0
146
0.0
 13
0.0
 23
0.0
 33
0.0
 16
1.0
 26
0.0
 36
0.0
 17
0.0
 27
1.0
 37
0.0
 76
     0
330
23
  0
LAYOUT
  5
22
102
{ACAD_REACTORS
330
1A
102
}
330
1A
100
AcDbPlotSettings
  1

  2
none_device
  4
Letter_(8.50_x_11.00_Inches)
  6

 40
6.35
 41
6.35
 42
6.35000508
 43
6.35000508
 44
215.9
 45
279.4
 46
0.0
 47
0.0
 48
0.0
 49
0.0
140
0.0
141
0.0
142
1.0
143
1.0
 70
  1712
 72
     1
 73
     0
 74
     0
  7

 75
     0
147
1.0
148
0.0
149
0.0
100
AcDbLayout
  1
Model
 70
     1
 71
     0
 10
0.0
 20
0.0
 11
297.0
 21
210.0
 12
0.0
 22
0.0
 32
0.0
 14
0.0
 24
0.0
 34
0.0
 15
297.0
 25
210.0
 35
0.0
146
0.0
 13
0.0
 23
0.0
 33
0.0
 16
1.0
 26
0.0
 36
0.0
 17
0.0
 27
1.0
 37
0.0
 76
     0
330
1F
331
29
  0
MLINESTYLE
  5
18
102
{ACAD_REACTORS
330
17
102
}
330
17
100
AcDbMlineStyle
  2
Standard
 70
     0
  3

 62
   256
 51
90.0
 52
90.0
 71
     2
 49
0.5
 62
   256
  6
BYLAYER
 49
-0.5
 62
   256
  6
BYLAYER
  0
ACDBPLACEHOLDER
  5
F
102
{ACAD_REACTORS
330
E
102
}
330
E
  0
SCALE
  5
48
102
{ACAD_REACTORS
330
47
102
}
330
47
100
AcDbScale
 70
     0
300
1:1
140
1.0
141
1.0
290
     1
  0
SCALE
  5
49
102
{ACAD_REACTORS
330
47
102
}
330
47
100
AcDbScale
 70
     0
300
1:2
140
1.0
141
2.0
290
     0
  0
SCALE
  5
4A
102
{ACAD_REACTORS
330
47
102
}
330
47
100
AcDbScale
 70
     0
300
1:4
140
1.0
141
4.0
290
     0
  0
SCALE
  5
4B
102
{ACAD_REACTORS
330
47
102
}
330
47
100
AcDbScale
 70
     0
300
1:5
140
1.0
141
5.0
290
     0
  0
SCALE
  5
4C
102
{ACAD_REACTORS
330
47
102
}
330
47
100
AcDbScale
 70
     0
300
1:8
140
1.0
141
8.0
290
     0
  0
SCALE
  5
4D
102
{ACAD_REACTORS
330
47
102
}
330
47
100
AcDbScale
 70
     0
300
1:10
140
1.0
141
10.0
290
     0
  0
SCALE
  5
4E
102
{ACAD_REACTORS
330
47
102
}
330
47
100
AcDbScale
 70
     0
300
1:16
140
1.0
141
16.0
290
     0
  0
SCALE
  5
4F
102
{ACAD_REACTORS
330
47
102
}
330
47
100
AcDbScale
 70
     0
300
1:20
140
1.0
141
20.0
290
     0
  0
SCALE
  5
50
102
{ACAD_REACTORS
330
47
102
}
330
47
100
AcDbScale
 70
     0
300
1:30
140
1.0
141
30.0
290
     0
  0
SCALE
  5
51
102
{ACAD_REACTORS
330
47
102
}
330
47
100
AcDbScale
 70
     0
300
1:40
140
1.0
141
40.0
290
     0
  0
SCALE
  5
52
102
{ACAD_REACTORS
330
47
102
}
330
47
100
AcDbScale
 70
     0
300
1:50
140
1.0
141
50.0
290
     0
  0
SCALE
  5
53
102
{ACAD_REACTORS
330
47
102
}
330
47
100
AcDbScale
 70
     0
300
1:100
140
1.0
141
100.0
290
     0
  0
SCALE
  5
54
102
{ACAD_REACTORS
330
47
102
}
330
47
100
AcDbScale
 70
     0
300
2:1
140
2.0
141
1.0
290
     0
  0
SCALE
  5
55
102
{ACAD_REACTORS
330
47
102
}
330
47
100
AcDbScale
 70
     0
300
4:1
140
4.0
141
1.0
290
     0
  0
SCALE
  5
56
102
{ACAD_REACTORS
330
47
102
}
330
47
100
AcDbScale
 70
     0
300
8:1
140
8.0
141
1.0
290
     0
  0
SCALE
  5
57
102
{ACAD_REACTORS
330
47
102
}
330
47
100
AcDbScale
 70
     0
300
10:1
140
10.0
141
1.0
290
     0
  0
SCALE
  5
58
102
{ACAD_REACTORS
330
47
102
}
330
47
100
AcDbScale
 70
     0
300
100:1
140
100.0
141
1.0
290
     0
  0
ENDSEC
  0
EOF
