  0
SECTION
  2
HEADER
  9
$ACADVER
  1
AC1015
  9
$ACADMAINTVER
 70
     6
  9
$DWGCODEPAGE
  3
ANSI_936
  9
$INSBASE
 10
0.0
 20
0.0
 30
0.0
  9
$EXTMIN
 10
0.0
 20
0.0
 30
0.0
  9
$EXTMAX
 10
297.0
 20
210.0
 30
0.0
  9
$LIMMIN
 10
0.0
 20
0.0
  9
$LIMMAX
 10
297.0
 20
210.0
  9
$ORTHOMODE
 70
     0
  9
$REGENMODE
 70
     1
  9
$FILLMODE
 70
     1
  9
$QTEXTMODE
 70
     0
  9
$MIRRTEXT
 70
     1
  9
$LTSCALE
 40
1.0
  9
$ATTMODE
 70
     1
  9
$TEXTSIZE
 40
3.5
  9
$TRACEWID
 40
1.0
  9
$TEXTSTYLE
  7
Standard
  9
$CLAYER
  8
0
  9
$CELTYPE
  6
ByLayer
  9
$CECOLOR
 62
   256
  9
$CELTSCALE
 40
1.0
  9
$DISPSILH
 70
     0
  9
$DIMSCALE
 40
1.0
  9
$DIMASZ
 40
4.08
  9
$DIMEXO
 40
0.0
  9
$DIMDLI
 40
3.75
  9
$DIMRND
 40
0.0
  9
$DIMDLE
 40
0.0
  9
$DIMEXE
 40
2.0
  9
$DIMTP
 40
0.0
  9
$DIMTM
 40
0.0
  9
$DIMTXT
 40
3.5
  9
$DIMCEN
 40
2.5
  9
$DIMTSZ
 40
0.0
  9
$DIMTOL
 70
     0
  9
$DIMLIM
 70
     0
  9
$DIMTIH
 70
     1
  9
$DIMTOH
 70
     1
  9
$DIMSE1
 70
     0
  9
$DIMSE2
 70
     0
  9
$DIMTAD
 70
     1
  9
$DIMZIN
 70
     0
  9
$DIMBLK
  1

  9
$DIMASO
 70
     1
  9
$DIMSHO
 70
     1
  9
$DIMPOST
  1

  9
$DIMAPOST
  1

  9
$DIMALT
 70
     0
  9
$DIMALTD
 70
     3
  9
$DIMALTF
 40
0.0393700787
  9
$DIMLFAC
 40
2.0
  9
$DIMTOFL
 70
     1
  9
$DIMTVP
 40
0.0
  9
$DIMTIX
 70
     0
  9
$DIMSOXD
 70
     0
  9
$DIMSAH
 70
     0
  9
$DIMBLK1
  1

  9
$DIMBLK2
  1

  9
$DIMSTYLE
  2
ISO-25
  9
$DIMCLRD
 70
     0
  9
$DIMCLRE
 70
     0
  9
$DIMCLRT
 70
     0
  9
$DIMTFAC
 40
1.0
  9
$DIMGAP
 40
1.524
  9
$DIMJUST
 70
     0
  9
$DIMSD1
 70
     0
  9
$DIMSD2
 70
     0
  9
$DIMTOLJ
 70
     0
  9
$DIMTZIN
 70
     0
  9
$DIMALTZ
 70
     0
  9
$DIMALTTZ
 70
     0
  9
$DIMUPT
 70
     0
  9
$DIMDEC
 70
     2
  9
$DIMTDEC
 70
     2
  9
$DIMALTU
 70
     2
  9
$DIMALTTD
 70
     3
  9
$DIMTXSTY
  7
Standard
  9
$DIMAUNIT
 70
     0
  9
$DIMADEC
 70
     2
  9
$DIMALTRND
 40
0.0
  9
$DIMAZIN
 70
     0
  9
$DIMDSEP
 70
    44
  9
$DIMATFIT
 70
     3
  9
$DIMFRAC
 70
     0
  9
$DIMLDRBLK
  1

  9
$DIMLUNIT
 70
     2
  9
$DIMLWD
 70
    -2
  9
$DIMLWE
 70
    -2
  9
$DIMTMOVE
 70
     0
  9
$LUNITS
 70
     2
  9
$LUPREC
 70
     2
  9
$SKETCHINC
 40
1.0
  9
$FILLETRAD
 40
0.0
  9
$AUNITS
 70
     0
  9
$AUPREC
 70
     2
  9
$MENU
  1
.
  9
$ELEVATION
 40
0.0
  9
$PELEVATION
 40
0.0
  9
$THICKNESS
 40
0.0
  9
$LIMCHECK
 70
     0
  9
$CHAMFERA
 40
0.0
  9
$CHAMFERB
 40
0.0
  9
$CHAMFERC
 40
0.0
  9
$CHAMFERD
 40
0.0
  9
$SKPOLY
 70
     0
  9
$TDCREATE
 40
2461213.358500394
  9
$TDUCREATE
 40
2461213.02516706
  9
$TDUPDATE
 40
2461213.358500799
  9
$TDUUPDATE
 40
2461213.025167465
  9
$TDINDWG
 40
0.0000000116
  9
$TDUSRTIMER
 40
0.0000000116
  9
$USRTIMER
 70
     1
  9
$ANGBASE
 50
0.0
  9
$ANGDIR
 70
     0
  9
$PDMODE
 70
     0
  9
$PDSIZE
 40
-1.0
  9
$PLINEWID
 40
0.0
  9
$SPLFRAME
 70
     0
  9
$SPLINETYPE
 70
     6
  9
$SPLINESEGS
 70
     8
  9
$HANDSEED
  5
103
  9
$SURFTAB1
 70
     6
  9
$SURFTAB2
 70
     6
  9
$SURFTYPE
 70
     6
  9
$SURFU
 70
     6
  9
$SURFV
 70
     6
  9
$UCSBASE
  2

  9
$UCSNAME
  2

  9
$UCSORG
 10
0.0
 20
0.0
 30
0.0
  9
$UCSXDIR
 10
1.0
 20
0.0
 30
0.0
  9
$UCSYDIR
 10
0.0
 20
1.0
 30
0.0
  9
$UCSORTHOREF
  2

  9
$UCSORTHOVIEW
 70
     0
  9
$UCSORGTOP
 10
0.0
 20
0.0
 30
0.0
  9
$UCSORGBOTTOM
 10
0.0
 20
0.0
 30
0.0
  9
$UCSORGLEFT
 10
0.0
 20
0.0
 30
0.0
  9
$UCSORGRIGHT
 10
0.0
 20
0.0
 30
0.0
  9
$UCSORGFRONT
 10
0.0
 20
0.0
 30
0.0
  9
$UCSORGBACK
 10
0.0
 20
0.0
 30
0.0
  9
$PUCSBASE
  2

  9
$PUCSNAME
  2

  9
$PUCSORG
 10
0.0
 20
0.0
 30
0.0
  9
$PUCSXDIR
 10
1.0
 20
0.0
 30
0.0
  9
$PUCSYDIR
 10
0.0
 20
1.0
 30
0.0
  9
$PUCSORTHOREF
  2

  9
$PUCSORTHOVIEW
 70
     0
  9
$PUCSORGTOP
 10
0.0
 20
0.0
 30
0.0
  9
$PUCSORGBOTTOM
 10
0.0
 20
0.0
 30
0.0
  9
$PUCSORGLEFT
 10
0.0
 20
0.0
 30
0.0
  9
$PUCSORGRIGHT
 10
0.0
 20
0.0
 30
0.0
  9
$PUCSORGFRONT
 10
0.0
 20
0.0
 30
0.0
  9
$PUCSORGBACK
 10
0.0
 20
0.0
 30
0.0
  9
$USERI1
 70
     0
  9
$USERI2
 70
     0
  9
$USERI3
 70
     0
  9
$USERI4
 70
     0
  9
$USERI5
 70
     0
  9
$USERR1
 40
0.0
  9
$USERR2
 40
0.0
  9
$USERR3
 40
0.0
  9
$USERR4
 40
0.0
  9
$USERR5
 40
0.0
  9
$WORLDVIEW
 70
     1
  9
$SHADEDGE
 70
     3
  9
$SHADEDIF
 70
    70
  9
$TILEMODE
 70
     1
  9
$MAXACTVP
 70
    64
  9
$PINSBASE
 10
0.0
 20
0.0
 30
0.0
  9
$PLIMCHECK
 70
     0
  9
$PEXTMIN
 10
1.0000000000E+20
 20
1.0000000000E+20
 30
1.0000000000E+20
  9
$PEXTMAX
 10
-1.0000000000E+20
 20
-1.0000000000E+20
 30
-1.0000000000E+20
  9
$PLIMMIN
 10
0.0
 20
0.0
  9
$PLIMMAX
 10
420.0
 20
297.0
  9
$UNITMODE
 70
     0
  9
$VISRETAIN
 70
     1
  9
$PLINEGEN
 70
     0
  9
$PSLTSCALE
 70
     1
  9
$TREEDEPTH
 70
  3020
  9
$CMLSTYLE
  2
Standard
  9
$CMLJUST
 70
     0
  9
$CMLSCALE
 40
20.0
  9
$PROXYGRAPHICS
 70
     1
  9
$MEASUREMENT
 70
     1
  9
$CELWEIGHT
370
    -1
  9
$ENDCAPS
280
     0
  9
$JOINSTYLE
280
     0
  9
$LWDISPLAY
290
     1
  9
$INSUNITS
 70
     4
  9
$HYPERLINKBASE
  1

  9
$STYLESHEET
  1

  9
$XEDIT
290
     1
  9
$CEPSNTYPE
380
     0
  9
$PSTYLEMODE
290
     1
  9
$FINGERPRINTGUID
  2
{f8ac5153-ad54-43b2-aa11-3781fce6f354}
  9
$VERSIONGUID
  2
{FAEB1C32-E019-11D5-929B-00C0DF256EC4}
  9
$EXTNAMES
290
     1
  9
$PSVPSCALE
 40
0.0
  9
$OLESTARTUP
290
     0
  0
ENDSEC
  0
SECTION
  2
CLASSES
  0
CLASS
  1
ACDBDICTIONARYWDFLT
  2
AcDbDictionaryWithDefault
  3
ObjectDBX Classes
 90
        0
280
     0
281
     0
  0
CLASS
  1
VISUALSTYLE
  2
AcDbVisualStyle
  3
ObjectDBX Classes
 90
     4095
280
     0
281
     0
  0
CLASS
  1
MATERIAL
  2
AcDbMaterial
  3
ObjectDBX Classes
 90
     1153
280
     0
281
     0
  0
CLASS
  1
SCALE
  2
AcDbScale
  3
ObjectDBX Classes
 90
     1153
280
     0
281
     0
  0
CLASS
  1
TABLESTYLE
  2
AcDbTableStyle
  3
ObjectDBX Classes
 90
     4095
280
     0
281
     0
  0
CLASS
  1
MLEADERSTYLE
  2
AcDbMLeaderStyle
  3
ACDB_MLEADERSTYLE_CLASS
 90
     4095
280
     0
281
     0
  0
CLASS
  1
SUN
  2
AcDbSun
  3
SCENEOE
 90
     1153
280
     0
281
     0
  0
CLASS
  1
ACDBPLACEHOLDER
  2
AcDbPlaceHolder
  3
ObjectDBX Classes
 90
        0
280
     0
281
     0
  0
CLASS
  1
LAYOUT
  2
AcDbLayout
  3
ObjectDBX Classes
 90
        0
280
     0
281
     0
  0
ENDSEC
  0
SECTION
  2
TABLES
  0
TABLE
  2
VPORT
  5
8
330
0
100
AcDbSymbolTable
 70
     1
  0
VPORT
  5
29
330
8
100
AcDbSymbolTableRecord
100
AcDbViewportTableRecord
  2
*Active
 70
     0
 10
0.0
 20
0.0
 11
1.0
 21
1.0
 12
148.5
 22
105.0
 13
0.0
 23
0.0
 14
10.0
 24
10.0
 15
10.0
 25
10.0
 16
0.0
 26
0.0
 36
1.0
 17
0.0
 27
0.0
 37
0.0
 40
210.0
 41
1.4142857143
 42
50.0
 43
0.0
 44
0.0
 50
0.0
 51
0.0
 71
     0
 72
  2000
 73
     1
 74
     3
 75
     0
 76
     0
 77
     0
 78
     0
281
     0
 65
     1
110
0.0
120
0.0
130
0.0
111
1.0
121
0.0
131
0.0
112
0.0
122
1.0
132
0.0
 79
     0
146
0.0
  0
ENDTAB
  0
TABLE
  2
LTYPE
  5
5
330
0
100
AcDbSymbolTable
 70
     6
  0
LTYPE
  5
14
330
5
100
AcDbSymbolTableRecord
100
AcDbLinetypeTableRecord
  2
ByBlock
 70
     0
  3

 72
    65
 73
     0
 40
0.0
  0
LTYPE
  5
15
330
5
100
AcDbSymbolTableRecord
100
AcDbLinetypeTableRecord
  2
ByLayer
 70
     0
  3

 72
    65
 73
     0
 40
0.0
  0
LTYPE
  5
16
330
5
100
AcDbSymbolTableRecord
100
AcDbLinetypeTableRecord
  2
Continuous
 70
     0
  3
Solid line
 72
    65
 73
     0
 40
0.0
  0
LTYPE
  5
5E
330
5
100
AcDbSymbolTableRecord
100
AcDbLinetypeTableRecord
  2
HIDDEN
 70
     0
  3
Hidden __ __ __ __ __ __ __ __ __ __ __ __ __ __
 72
    65
 73
     2
 40
1.905
 49
1.27
 74
     0
 49
-0.635
 74
     0
  0
LTYPE
  5
5F
330
5
100
AcDbSymbolTableRecord
100
AcDbLinetypeTableRecord
  2
PHANTOM
 70
     0
  3
Phantom ______  __  __  ______  __  __  ______
 72
    65
 73
     6
 40
12.7
 49
6.35
 74
     0
 49
-1.27
 74
     0
 49
1.27
 74
     0
 49
-1.27
 74
     0
 49
1.27
 74
     0
 49
-1.27
 74
     0
  0
LTYPE
  5
60
330
5
100
AcDbSymbolTableRecord
100
AcDbLinetypeTableRecord
  2
CENTER
 70
     0
  3
Center ____ _ ____ _ ____ _ ____ _ ____ _ ____
 72
    65
 73
     4
 40
10.16
 49
6.35
 74
     0
 49
-1.27
 74
     0
 49
1.27
 74
     0
 49
-1.27
 74
     0
  0
LTYPE
  5
61
330
5
100
AcDbSymbolTableRecord
100
AcDbLinetypeTableRecord
  2
CENTERX2
 70
     0
  3
Center (2x) ________  __  ________  __  _____
 72
    65
 73
     4
 40
20.32
 49
12.7
 74
     0
 49
-2.54
 74
     0
 49
2.54
 74
     0
 49
-2.54
 74
     0
  0
LTYPE
  5
62
330
5
100
AcDbSymbolTableRecord
100
AcDbLinetypeTableRecord
  2
DOT2
 70
     0
  3
Dot (.5x) ........................................
 72
    65
 73
     2
 40
0.635
 49
0.0
 74
     0
 49
-0.635
 74
     0
  0
ENDTAB
  0
TABLE
  2
LAYER
  5
2
330
0
100
AcDbSymbolTable
 70
    14
  0
LAYER
  5
10
330
2
100
AcDbSymbolTableRecord
100
AcDbLayerTableRecord
  2
0
 70
     0
 62
     7
  6
Continuous
370
    -3
390
F
  0
LAYER
  5
63
330
2
100
AcDbSymbolTableRecord
100
AcDbLayerTableRecord
  2
SLD-0
 70
     0
 62
     7
  6
Continuous
370
    -3
390
F
  0
LAYER
  5
64
330
2
100
AcDbSymbolTableRecord
100
AcDbLayerTableRecord
  2
5
 70
     0
 62
     7
  6
Continuous
370
    -3
390
F
  0
LAYER
  5
65
330
2
100
AcDbSymbolTableRecord
100
AcDbLayerTableRecord
  2
9
 70
     0
 62
     7
  6
Continuous
370
    -3
390
F
  0
LAYER
  5
66
330
2
100
AcDbSymbolTableRecord
100
AcDbLayerTableRecord
  2
10
 70
     0
 62
     7
  6
Continuous
370
    -3
390
F
  0
LAYER
  5
67
330
2
100
AcDbSymbolTableRecord
100
AcDbLayerTableRecord
  2
轮廓实线层
 70
     0
 62
     7
  6
Continuous
370
    50
390
F
  0
LAYER
  5
68
330
2
100
AcDbSymbolTableRecord
100
AcDbLayerTableRecord
  2
细线层
 70
     0
 62
     4
  6
Continuous
370
    25
390
F
  0
LAYER
  5
69
330
2
100
AcDbSymbolTableRecord
100
AcDbLayerTableRecord
  2
中心线层
 70
     0
 62
     1
  6
CENTERX2
370
    25
390
F
  0
LAYER
  5
6A
330
2
100
AcDbSymbolTableRecord
100
AcDbLayerTableRecord
  2
虚线层
 70
     0
 62
     6
  6
HIDDEN
370
    25
390
F
  0
LAYER
  5
6B
330
2
100
AcDbSymbolTableRecord
100
AcDbLayerTableRecord
  2
剖面线层
 70
     0
 62
     2
  6
Continuous
370
    25
390
F
  0
LAYER
  5
6C
330
2
100
AcDbSymbolTableRecord
100
AcDbLayerTableRecord
  2
文字层
 70
     0
 62
     3
  6
Continuous
370
    25
390
F
  0
LAYER
  5
6D
330
2
100
AcDbSymbolTableRecord
100
AcDbLayerTableRecord
  2
标注层
 70
     0
 62
     4
  6
Continuous
370
    25
390
F
  0
LAYER
  5
6E
330
2
100
AcDbSymbolTableRecord
100
AcDbLayerTableRecord
  2
符号标注层
 70
     0
 62
    31
  6
Continuous
370
    25
390
F
  0
LAYER
  5
6F
330
2
100
AcDbSymbolTableRecord
100
AcDbLayerTableRecord
  2
双点划线层
 70
     0
 62
     6
  6
PHANTOM
370
    25
390
F
  0
ENDTAB
  0
TABLE
  2
STYLE
  5
3
330
0
100
AcDbSymbolTable
 70
     1
  0
STYLE
  5
11
330
3
100
AcDbSymbolTableRecord
100
AcDbTextStyleTableRecord
  2
Standard
 70
     0
 40
0.0
 41
1.0
 50
0.0
 71
     0
 42
3.5
  3
txt
  4

  0
ENDTAB
  0
TABLE
  2
VIEW
  5
6
330
0
100
AcDbSymbolTable
 70
     0
  0
ENDTAB
  0
TABLE
  2
UCS
  5
7
330
0
100
AcDbSymbolTable
 70
     0
  0
ENDTAB
  0
TABLE
  2
APPID
  5
9
330
0
100
AcDbSymbolTable
 70
     1
  0
APPID
  5
12
330
9
100
AcDbSymbolTableRecord
100
AcDbRegAppTableRecord
  2
ACAD
 70
     0
  0
ENDTAB
  0
TABLE
  2
DIMSTYLE
  5
A
330
0
100
AcDbSymbolTable
 70
     1
100
AcDbDimStyleTable
  0
DIMSTYLE
105
27
330
A
100
AcDbSymbolTableRecord
100
AcDbDimStyleTableRecord
  2
ISO-25
 70
     0
 41
2.5
 42
0.625
 43
3.75
 44
1.25
 73
     0
 74
     0
 77
     1
 78
     8
140
2.5
141
2.5
143
0.0393700787
147
0.625
171
     3
172
     1
178
     0
271
     2
272
     2
274
     3
278
    44
283
     0
284
     8
340
11
  0
ENDTAB
  0
TABLE
  2
BLOCK_RECORD
  5
1
330
0
100
AcDbSymbolTable
 70
     5
  0
BLOCK_RECORD
  5
1F
330
1
100
AcDbSymbolTableRecord
100
AcDbBlockTableRecord
  2
*Model_Space
340
22
  0
BLOCK_RECORD
  5
1B
330
1
100
AcDbSymbolTableRecord
100
AcDbBlockTableRecord
  2
*Paper_Space
340
1E
  0
BLOCK_RECORD
  5
23
330
1
100
AcDbSymbolTableRecord
100
AcDbBlockTableRecord
  2
*Paper_Space0
340
26
  0
BLOCK_RECORD
  5
D2
330
1
100
AcDbSymbolTableRecord
100
AcDbBlockTableRecord
  2
SW_CENTERMARKSYMBOL_0
340
0
102
{BLKREFS
331
DD
102
}
  0
BLOCK_RECORD
  5
DE
330
1
100
AcDbSymbolTableRecord
100
AcDbBlockTableRecord
  2
SW_CENTERMARKSYMBOL_1
340
0
102
{BLKREFS
331
E9
102
}
  0
BLOCK_RECORD
  5
EA
330
1
100
AcDbSymbolTableRecord
100
AcDbBlockTableRecord
  2
SW_CENTERMARKSYMBOL_2
340
0
102
{BLKREFS
331
F5
102
}
  0
BLOCK_RECORD
  5
F6
330
1
100
AcDbSymbolTableRecord
100
AcDbBlockTableRecord
  2
SW_CENTERMARKSYMBOL_3
340
0
102
{BLKREFS
331
101
102
}
  0
ENDTAB
  0
ENDSEC
  0
SECTION
  2
BLOCKS
  0
BLOCK
  5
20
330
1F
100
AcDbEntity
  8
0
100
AcDbBlockBegin
  2
*Model_Space
 70
     0
 10
0.0
 20
0.0
 30
0.0
  3
*Model_Space
  1

  0
ENDBLK
  5
21
330
1F
100
AcDbEntity
  8
0
100
AcDbBlockEnd
  0
BLOCK
  5
1C
330
1B
100
AcDbEntity
 67
     1
  8
0
100
AcDbBlockBegin
  2
*Paper_Space
 70
     0
 10
0.0
 20
0.0
 30
0.0
  3
*Paper_Space
  1

  0
ENDBLK
  5
1D
330
1B
100
AcDbEntity
 67
     1
  8
0
100
AcDbBlockEnd
  0
BLOCK
  5
24
330
23
100
AcDbEntity
  8
0
100
AcDbBlockBegin
  2
*Paper_Space0
 70
     0
 10
0.0
 20
0.0
 30
0.0
  3
*Paper_Space0
  1

  0
ENDBLK
  5
25
330
23
100
AcDbEntity
  8
0
100
AcDbBlockEnd
  0
BLOCK
  5
D3
330
D2
100
AcDbEntity
  8
0
100
AcDbBlockBegin
  2
SW_CENTERMARKSYMBOL_0
 70
     0
 10
0.0
 20
0.0
 30
0.0
  3
SW_CENTERMARKSYMBOL_0
  1

  0
LINE
  5
D5
330
D2
100
AcDbEntity
  8
10
 62
     0
100
AcDbLine
 10
0.0
 20
0.0
 30
0.0
 11
0.0
 21
2.5
 31
0.0
  0
LINE
  5
D6
330
D2
100
AcDbEntity
  8
10
 62
     0
100
AcDbLine
 10
0.0
 20
0.0
 30
0.0
 11
-2.5
 21
0.0
 31
0.0
  0
LINE
  5
D7
330
D2
100
AcDbEntity
  8
10
 62
     0
100
AcDbLine
 10
0.0
 20
0.0
 30
0.0
 11
0.0
 21
-2.5
 31
0.0
  0
LINE
  5
D8
330
D2
100
AcDbEntity
  8
10
 62
     0
100
AcDbLine
 10
0.0
 20
0.0
 30
0.0
 11
2.5
 21
0.0
 31
0.0
  0
LINE
  5
D9
330
D2
100
AcDbEntity
  8
10
 62
     0
100
AcDbLine
 10
0.0
 20
5.0
 30
0.0
 11
0.0
 21
10.1645127727
 31
0.0
  0
LINE
  5
DA
330
D2
100
AcDbEntity
  8
10
 62
     0
100
AcDbLine
 10
-5.0
 20
0.0
 30
0.0
 11
-10.1645127727
 21
0.0
 31
0.0
  0
LINE
  5
DB
330
D2
100
AcDbEntity
  8
10
 62
     0
100
AcDbLine
 10
0.0
 20
-5.0
 30
0.0
 11
0.0
 21
-10.1645127727
 31
0.0
  0
LINE
  5
DC
330
D2
100
AcDbEntity
  8
10
 62
     0
100
AcDbLine
 10
5.0
 20
0.0
 30
0.0
 11
10.1645127727
 21
0.0
 31
0.0
  0
ENDBLK
  5
D4
330
D2
100
AcDbEntity
  8
0
100
AcDbBlockEnd
  0
BLOCK
  5
DF
330
DE
100
AcDbEntity
  8
0
100
AcDbBlockBegin
  2
SW_CENTERMARKSYMBOL_1
 70
     0
 10
0.0
 20
0.0
 30
0.0
  3
SW_CENTERMARKSYMBOL_1
  1

  0
LINE
  5
E1
330
DE
100
AcDbEntity
  8
10
 62
     0
100
AcDbLine
 10
0.0
 20
0.0
 30
0.0
 11
0.0
 21
2.5
 31
0.0
  0
LINE
  5
E2
330
DE
100
AcDbEntity
  8
10
 62
     0
100
AcDbLine
 10
0.0
 20
0.0
 30
0.0
 11
-2.5
 21
0.0
 31
0.0
  0
LINE
  5
E3
330
DE
100
AcDbEntity
  8
10
 62
     0
100
AcDbLine
 10
0.0
 20
0.0
 30
0.0
 11
0.0
 21
-2.5
 31
0.0
  0
LINE
  5
E4
330
DE
100
AcDbEntity
  8
10
 62
     0
100
AcDbLine
 10
0.0
 20
0.0
 30
0.0
 11
2.5
 21
0.0
 31
0.0
  0
LINE
  5
E5
330
DE
100
AcDbEntity
  8
10
 62
     0
100
AcDbLine
 10
0.0
 20
2.5
 30
0.0
 11
0.0
 21
4.9902758136
 31
0.0
  0
LINE
  5
E6
330
DE
100
AcDbEntity
  8
10
 62
     0
100
AcDbLine
 10
-2.5
 20
0.0
 30
0.0
 11
-4.9902758136
 21
0.0
 31
0.0
  0
LINE
  5
E7
330
DE
100
AcDbEntity
  8
10
 62
     0
100
AcDbLine
 10
0.0
 20
-2.5
 30
0.0
 11
0.0
 21
-4.9902758136
 31
0.0
  0
LINE
  5
E8
330
DE
100
AcDbEntity
  8
10
 62
     0
100
AcDbLine
 10
2.5
 20
0.0
 30
0.0
 11
4.9902758136
 21
0.0
 31
0.0
  0
ENDBLK
  5
E0
330
DE
100
AcDbEntity
  8
0
100
AcDbBlockEnd
  0
BLOCK
  5
EB
330
EA
100
AcDbEntity
  8
0
100
AcDbBlockBegin
  2
SW_CENTERMARKSYMBOL_2
 70
     0
 10
0.0
 20
0.0
 30
0.0
  3
SW_CENTERMARKSYMBOL_2
  1

  0
LINE
  5
ED
330
EA
100
AcDbEntity
  8
10
 62
     0
100
AcDbLine
 10
0.0
 20
0.0
 30
0.0
 11
0.0
 21
2.5
 31
0.0
  0
LINE
  5
EE
330
EA
100
AcDbEntity
  8
10
 62
     0
100
AcDbLine
 10
0.0
 20
0.0
 30
0.0
 11
-2.5
 21
0.0
 31
0.0
  0
LINE
  5
EF
330
EA
100
AcDbEntity
  8
10
 62
     0
100
AcDbLine
 10
0.0
 20
0.0
 30
0.0
 11
0.0
 21
-2.5
 31
0.0
  0
LINE
  5
F0
330
EA
100
AcDbEntity
  8
10
 62
     0
100
AcDbLine
 10
0.0
 20
0.0
 30
0.0
 11
2.5
 21
0.0
 31
0.0
  0
LINE
  5
F1
330
EA
100
AcDbEntity
  8
10
 62
     0
100
AcDbLine
 10
0.0
 20
2.5
 30
0.0
 11
0.0
 21
4.9902758136
 31
0.0
  0
LINE
  5
F2
330
EA
100
AcDbEntity
  8
10
 62
     0
100
AcDbLine
 10
-2.5
 20
0.0
 30
0.0
 11
-4.9902758136
 21
0.0
 31
0.0
  0
LINE
  5
F3
330
EA
100
AcDbEntity
  8
10
 62
     0
100
AcDbLine
 10
0.0
 20
-2.5
 30
0.0
 11
0.0
 21
-4.9902758136
 31
0.0
  0
LINE
  5
F4
330
EA
100
AcDbEntity
  8
10
 62
     0
100
AcDbLine
 10
2.5
 20
0.0
 30
0.0
 11
4.9902758136
 21
0.0
 31
0.0
  0
ENDBLK
  5
EC
330
EA
100
AcDbEntity
  8
0
100
AcDbBlockEnd
  0
BLOCK
  5
F7
330
F6
100
AcDbEntity
  8
0
100
AcDbBlockBegin
  2
SW_CENTERMARKSYMBOL_3
 70
     0
 10
0.0
 20
0.0
 30
0.0
  3
SW_CENTERMARKSYMBOL_3
  1

  0
LINE
  5
F9
330
F6
100
AcDbEntity
  8
10
 62
     0
100
AcDbLine
 10
0.0
 20
0.0
 30
0.0
 11
0.0
 21
2.5
 31
0.0
  0
LINE
  5
FA
330
F6
100
AcDbEntity
  8
10
 62
     0
100
AcDbLine
 10
0.0
 20
0.0
 30
0.0
 11
-2.5
 21
0.0
 31
0.0
  0
LINE
  5
FB
330
F6
100
AcDbEntity
  8
10
 62
     0
100
AcDbLine
 10
0.0
 20
0.0
 30
0.0
 11
0.0
 21
-2.5
 31
0.0
  0
LINE
  5
FC
330
F6
100
AcDbEntity
  8
10
 62
     0
100
AcDbLine
 10
0.0
 20
0.0
 30
0.0
 11
2.5
 21
0.0
 31
0.0
  0
LINE
  5
FD
330
F6
100
AcDbEntity
  8
10
 62
     0
100
AcDbLine
 10
0.0
 20
5.0
 30
0.0
 11
0.0
 21
10.1645127727
 31
0.0
  0
LINE
  5
FE
330
F6
100
AcDbEntity
  8
10
 62
     0
100
AcDbLine
 10
-5.0
 20
0.0
 30
0.0
 11
-10.1645127727
 21
0.0
 31
0.0
  0
LINE
  5
FF
330
F6
100
AcDbEntity
  8
10
 62
     0
100
AcDbLine
 10
0.0
 20
-5.0
 30
0.0
 11
0.0
 21
-10.1645127727
 31
0.0
  0
LINE
  5
100
330
F6
100
AcDbEntity
  8
10
 62
     0
100
AcDbLine
 10
5.0
 20
0.0
 30
0.0
 11
10.1645127727
 21
0.0
 31
0.0
  0
ENDBLK
  5
F8
330
F6
100
AcDbEntity
  8
0
100
AcDbBlockEnd
  0
ENDSEC
  0
SECTION
  2
ENTITIES
  0
LINE
  5
70
330
1F
100
AcDbEntity
  8
0
  6
Continuous
 62
     7
370
    25
100
AcDbLine
 10
70.9487100966
 20
96.2410721627
 30
0.0
 11
68.2647489512
 21
96.2410721627
 31
0.0
  0
LINE
  5
71
330
1F
100
AcDbEntity
  8
0
  6
Continuous
 62
     7
370
    25
100
AcDbLine
 10
68.2647489512
 20
80.9120466173
 30
0.0
 11
70.9487100966
 21
80.9120466173
 31
0.0
  0
SPLINE
  5
72
330
1F
100
AcDbEntity
  8
0
  6
Continuous
 62
     7
370
    25
100
AcDbSpline
210
0.0
220
0.0
230
1.0
 70
     8
 71
     3
 72
    20
 73
    16
 74
     0
 42
0.00000001
 43
0.00000001
 40
0.0
 40
0.0
 40
0.0
 40
0.0
 40
0.0881919986687287
 40
0.1701342646954021
 40
0.2446080191507115
 40
0.3106674499490627
 40
0.3844967191746692
 40
0.441167027985912
 40
0.4913050027494624
 40
0.5832710120750572
 40
0.6973516944128046
 40
0.7633544645151605
 40
0.8356146125946206
 40
0.9144054350016892
 40
1.0
 40
1.0
 40
1.0
 40
1.0
 10
64.07852735367892
 20
27.82100396999195
 30
0.0
 10
64.38779693335681
 20
27.76555192046647
 30
0.0
 10
64.98441968060621
 20
27.65857743509041
 30
0.0
 10
65.81235734385271
 20
27.38506694297765
 30
0.0
 10
66.53626376362281
 20
27.06733375668385
 30
0.0
 10
67.2010212121365
 20
26.6977478334498
 30
0.0
 10
67.77626350210893
 20
26.30430274026293
 30
0.0
 10
68.27056553100603
 20
25.90192257150991
 30
0.0
 10
68.78126045394077
 20
25.41336322750015
 30
0.0
 10
69.36617192006807
 20
24.70637527932654
 30
0.0
 10
69.86647720954721
 20
23.89460485647126
 30
0.0
 10
70.23464185076212
 20
23.1255388883262
 30
0.0
 10
70.48987320021303
 20
22.46434982058795
 30
0.0
 10
70.70415843808041
 20
21.75379398131005
 30
0.0
 10
70.79325432223881
 20
21.28752434223838
 30
0.0
 10
70.83964605795235
 20
21.04474031162477
 30
0.0
  0
SPLINE
  5
73
330
1F
100
AcDbEntity
  8
0
  6
Continuous
 62
     7
370
    25
100
AcDbSpline
210
0.0
220
0.0
230
1.0
 70
     8
 71
     3
 72
    29
 73
    25
 74
     0
 42
0.00000001
 43
0.00000001
 40
0.0
 40
0.0
 40
0.0
 40
0.0
 40
0.1039742121034753
 40
0.194598114457665
 40
0.2667176172262141
 40
0.3238852529092484
 40
0.3862604447064666
 40
0.455944274503425
 40
0.5249025967830461
 40
0.5830912153006038
 40
0.6294978556385156
 40
0.6492583128800035
 40
0.6717456352384867
 40
0.7008208039318611
 40
0.7340333882629244
 40
0.7632330874431168
 40
0.7878832205214982
 40
0.8077101729816761
 40
0.82417816686032
 40
0.8710878743460128
 40
0.9029182000948492
 40
0.9392388659301023
 40
0.9793171641304704
 40
1.0
 40
1.0
 40
1.0
 40
1.0
 10
47.13801903967814
 20
90.7035243557753
 30
0.0
 10
47.0021052786278
 20
91.15320238420979
 30
0.0
 10
46.74772911078608
 20
91.99481969177162
 30
0.0
 10
46.05627932836569
 20
92.99356957428087
 30
0.0
 10
45.35564283858476
 20
93.68698017132688
 30
0.0
 10
44.6418757446411
 20
94.18538596534663
 30
0.0
 10
43.88030432009629
 20
94.53046470405992
 30
0.0
 10
43.04523940956416
 20
94.74686222002568
 30
0.0
 10
42.18108234673804
 20
94.83377348598648
 30
0.0
 10
41.41135082444415
 20
94.81298419894914
 30
0.0
 10
40.83898225077743
 20
94.74731182331237
 30
0.0
 10
40.48299490873287
 20
94.6661740402038
 30
0.0
 10
40.25923961514354
 20
94.59822427749565
 30
0.0
 10
40.0280939282389
 20
94.51007912069521
 30
0.0
 10
39.74590399651069
 20
94.39488353445361
 30
0.0
 10
39.40625451357204
 20
94.27266801645801
 30
0.0
 10
39.09328847902064
 20
94.17249396319733
 30
0.0
 10
38.82081322635664
 20
94.0981762017472
 30
0.0
 10
38.51992633934736
 20
94.05653203403847
 30
0.0
 10
38.20667579833951
 20
94.00321663016149
 30
0.0
 10
37.88223971371099
 20
93.94383921570854
 30
0.0
 10
37.6573221430501
 20
93.90475402215073
 30
0.0
 10
37.51918215532633
 20
93.8835705651197
 30
0.0
 10
37.52995205005865
 20
93.89364313912435
 30
0.0
 10
37.53361807717434
 20
93.89707180118128
 30
0.0
  0
SPLINE
  5
74
330
1F
100
AcDbEntity
  8
0
  6
Continuous
 62
     7
370
    25
100
AcDbSpline
210
0.0
220
0.0
230
1.0
 70
     8
 71
     3
 72
    44
 73
    40
 74
     0
 42
0.00000001
 43
0.00000001
 40
0.0
 40
0.0
 40
0.0
 40
0.0
 40
0.005808624949164
 40
0.0119149257388669
 40
0.0174961669783712
 40
0.0357302991802574
 40
0.0496051318441343
 40
0.0609981322813193
 40
0.0788485339612096
 40
0.0944927152333998
 40
0.1202673266873424
 40
0.1520669655483347
 40
0.1891427851547308
 40
0.2174193771281763
 40
0.2427052058763653
 40
0.26308924720912
 40
0.2794347509086977
 40
0.2962296140226409
 40
0.3092462375529821
 40
0.3209192402294974
 40
0.3317960453914016
 40
0.3429557424590893
 40
0.3562961115375023
 40
0.3688480474396034
 40
0.3846787090010288
 40
0.4045865492213455
 40
0.4295999786119115
 40
0.4497603419430681
 40
0.4732322217031409
 40
0.5006018398203754
 40
0.53254566746527
 40
0.5698062145709646
 40
0.6132015794871679
 40
0.6636837968249432
 40
0.7214152342983892
 40
0.7860023138301565
 40
0.8569605335518126
 40
0.9337149880876081
 40
1.0
 40
1.0
 40
1.0
 40
1.0
 10
58.25369931205719
 20
42.44310529610703
 30
0.0
 10
58.15839415374842
 20
42.46923193462651
 30
0.0
 10
57.96289971337431
 20
42.52282412907702
 30
0.0
 10
57.67987643333058
 20
42.6153563887718
 30
0.0
 10
57.20208328497567
 20
42.79079589923076
 30
0.0
 10
56.61878454372444
 20
43.06366870521163
 30
0.0
 10
56.00009538687536
 20
43.47359261545274
 30
0.0
 10
55.44131573093626
 20
43.95085727035617
 30
0.0
 10
54.93380291991328
 20
44.52637572256095
 30
0.0
 10
54.37748476824482
 20
45.3695586269997
 30
0.0
 10
53.82883200589511
 20
46.49221450743475
 30
0.0
 10
53.29991091978824
 20
48.01627008251621
 30
0.0
 10
52.91040349142677
 20
49.62403315566485
 30
0.0
 10
52.61014138078876
 20
51.13631309060897
 30
0.0
 10
52.37259893842755
 20
52.3716137965714
 30
0.0
 10
52.17679026945302
 20
53.40823564741487
 30
0.0
 10
52.01348507151292
 20
54.30399088710009
 30
0.0
 10
51.88054575939349
 20
55.07786216161627
 30
0.0
 10
51.77143309144158
 20
55.77510554398728
 30
0.0
 10
51.68978016925075
 20
56.37465161785241
 30
0.0
 10
51.62723172185564
 20
56.94473753978875
 30
0.0
 10
51.5777718859084
 20
57.54456837729651
 30
0.0
 10
51.54042513146035
 20
58.17378538271215
 30
0.0
 10
51.50292188049266
 20
58.88254433585483
 30
0.0
 10
51.45966903801566
 20
59.70288323347616
 30
0.0
 10
51.39832256870731
 20
60.73453308973298
 30
0.0
 10
51.32126992735861
 20
61.83898595273913
 30
0.0
 10
51.22905378591173
 20
63.00309161785226
 30
0.0
 10
51.12391247850374
 20
64.20634275922033
 30
0.0
 10
50.99045215459704
 20
65.60829080829734
 30
0.0
 10
50.82276460919358
 20
67.24255799362474
 30
0.0
 10
50.61426000816847
 20
69.14664062446192
 30
0.0
 10
50.35741019972766
 20
71.362624705888
 30
0.0
 10
50.04624733729413
 20
73.92285220296054
 30
0.0
 10
49.66270843382221
 20
76.83732057529299
 30
0.0
 10
49.18950883019343
 20
80.09112146932763
 30
0.0
 10
48.60437359915671
 20
83.6549700436589
 30
0.0
 10
47.94873514476941
 20
87.23643435845483
 30
0.0
 10
47.42929004106431
 20
89.61375157235412
 30
0.0
 10
47.18857728016066
 20
90.71540906420395
 30
0.0
  0
SPLINE
  5
75
330
1F
100
AcDbEntity
  8
0
  6
Continuous
 62
     7
370
    25
100
AcDbSpline
210
0.0
220
0.0
230
1.0
 70
     8
 71
     3
 72
    46
 73
    42
 74
     0
 42
0.00000001
 43
0.00000001
 40
0.0
 40
0.0
 40
0.0
 40
0.0
 40
0.0424440787381798
 40
0.0946730617492482
 40
0.1435516697542427
 40
0.1886451810270076
 40
0.2295919314245735
 40
0.2661019917140096
 40
0.2979131855480937
 40
0.329269460170368
 40
0.3552983682371414
 40
0.3768373802435546
 40
0.39462261248692
 40
0.4093202346475162
 40
0.421573501535539
 40
0.4384440240491582
 40
0.4520335978899646
 40
0.464032563473113
 40
0.4758236263051681
 40
0.4890043286776866
 40
0.5039132289763771
 40
0.52114823904121
 40
0.5453560324812416
 40
0.5731997284242326
 40
0.6033120767307033
 40
0.6373298934854453
 40
0.6711502819853483
 40
0.7012738236415065
 40
0.7240504349515052
 40
0.750398213077906
 40
0.7807473080938622
 40
0.8154286740974407
 40
0.8411052292952687
 40
0.8689946501045335
 40
0.899211157611918
 40
0.9152093103023567
 40
0.9318135681486264
 40
0.9490400052106351
 40
0.9669107189105014
 40
0.9854549242699625
 40
1.0
 40
1.0
 40
1.0
 40
1.0
 10
34.10968306597879
 20
87.7000273473477
 30
0.0
 10
34.30953097911917
 20
86.78378352581873
 30
0.0
 10
34.75529901988425
 20
84.74006834877216
 30
0.0
 10
35.3295394093134
 20
81.62040177410458
 30
0.0
 10
35.85974890993407
 20
78.43404628329479
 30
0.0
 10
36.29718329084531
 20
75.48534144100736
 30
0.0
 10
36.6590309023634
 20
72.80201021152766
 30
0.0
 10
36.95649502283882
 20
70.40626462179058
 30
0.0
 10
37.21333140746773
 20
68.21905907832647
 30
0.0
 10
37.43174706086887
 20
66.2605257149871
 30
0.0
 10
37.61223220840539
 20
64.52616398101115
 30
0.0
 10
37.75040296489694
 20
63.08889531576871
 30
0.0
 10
37.85472117295293
 20
61.89991772492196
 30
0.0
 10
37.93286253005039
 20
60.9146226367413
 30
0.0
 10
38.00124119347599
 20
59.94886236060423
 30
0.0
 10
38.05830201845627
 20
59.00687927195933
 30
0.0
 10
38.10684494602976
 20
58.07006740373843
 30
0.0
 10
38.14985131252219
 20
57.24533677878912
 30
0.0
 10
38.20276424200325
 20
56.43020617713733
 30
0.0
 10
38.277900769142
 20
55.55221844606181
 30
0.0
 10
38.39165669909814
 20
54.55718260643785
 30
0.0
 10
38.56662948231267
 20
53.32439550089765
 30
0.0
 10
38.82185923684344
 20
51.81488361259202
 30
0.0
 10
39.15690953190433
 20
50.0307490487255
 30
0.0
 10
39.53765790040228
 20
48.03478675987165
 30
0.0
 10
39.98221485943113
 20
45.91625366296274
 30
0.0
 10
40.5513306682533
 20
43.82646577975802
 30
0.0
 10
41.17681611645978
 20
42.01375494915424
 30
0.0
 10
41.8597158439767
 20
40.40042748426056
 30
0.0
 10
42.65304655515044
 20
38.83212502436592
 30
0.0
 10
43.71632320139183
 20
37.11245043022234
 30
0.0
 10
44.94783108181606
 20
35.52534932989503
 30
0.0
 10
46.29674946868877
 20
34.11426481518939
 30
0.0
 10
47.69943667219537
 20
32.90169261982347
 30
0.0
 10
49.04615659400785
 20
31.96464210028913
 30
0.0
 10
50.24573878728369
 20
31.26547273287503
 30
0.0
 10
51.22716475674221
 20
30.76535402633024
 30
0.0
 10
52.2734091064582
 20
30.30530193920251
 30
0.0
 10
53.38465116974407
 20
29.8918897569285
 30
0.0
 10
54.46017337241341
 20
29.5560097499767
 30
0.0
 10
55.17024907909132
 20
29.38166207824818
 30
0.0
 10
55.48237749613837
 20
29.30502396447992
 30
0.0
  0
LINE
  5
76
330
1F
100
AcDbEntity
  8
0
  6
Continuous
 62
     7
370
    25
100
AcDbLine
 10
61.2445052315
 20
41.8530003092
 30
0.0
 11
58.267637323
 21
42.4300542824
 31
0.0
  0
SPLINE
  5
77
330
1F
100
AcDbEntity
  8
0
  6
Continuous
 62
     7
370
    25
100
AcDbSpline
210
0.0
220
0.0
230
1.0
 70
     8
 71
     3
 72
     9
 73
     5
 74
     0
 42
0.00000001
 43
0.00000001
 40
0.0
 40
0.0
 40
0.0
 40
0.0
 40
0.4671767117302729
 40
0.9999999999999999
 40
0.9999999999999999
 40
0.9999999999999999
 40
0.9999999999999999
 10
55.43297298779447
 20
29.31198330636887
 30
0.0
 10
56.77132810490953
 20
29.04800138320057
 30
0.0
 10
59.63610086329086
 20
28.48294341575481
 30
0.0
 10
62.51078326611959
 20
27.97061779344454
 30
0.0
 10
64.04248099672591
 20
27.69763877070035
 30
0.0
  0
SPLINE
  5
78
330
1F
100
AcDbEntity
  8
0
  6
Continuous
 62
     7
370
    25
100
AcDbSpline
210
0.0
220
0.0
230
1.0
 70
     8
 71
     3
 72
    15
 73
    11
 74
     0
 42
0.00000001
 43
0.00000001
 40
0.0
 40
0.0
 40
0.0
 40
0.0
 40
0.1177888692184752
 40
0.241639922809533
 40
0.3698863064036678
 40
0.5006893461522457
 40
0.6314930626988576
 40
0.7597404782717815
 40
0.8831638671910588
 40
1.0
 40
1.0
 40
1.0
 40
1.0
 10
37.98069568505351
 20
94.04625097555882
 30
0.0
 10
37.67429558384008
 20
93.94724478396785
 30
0.0
 10
37.04572603140878
 20
93.74413689565512
 30
0.0
 10
36.17598972998471
 20
93.2187607833238
 30
0.0
 10
35.38769459519578
 20
92.52181715943834
 30
0.0
 10
34.74284818421461
 20
91.66534662311243
 30
0.0
 10
34.27939315131155
 20
90.69827771755021
 30
0.0
 10
34.02416338557229
 20
89.67964657087398
 30
0.0
 10
33.95757219569845
 20
88.66640717101065
 30
0.0
 10
34.06585707944411
 20
88.01747922863466
 30
0.0
 10
34.11851508428615
 20
87.70191116825768
 30
0.0
  0
LINE
  5
79
330
1F
100
AcDbEntity
  8
0
  6
Continuous
 62
     7
370
    25
100
AcDbLine
 10
70.9106919069
 20
48.9593093215
 30
0.0
 11
70.8736562296
 21
48.6685762426
 31
0.0
  0
LINE
  5
7A
330
1F
100
AcDbEntity
  8
0
  6
Continuous
 62
     7
370
    25
100
AcDbLine
 10
130.3160388546
 20
96.7695649161
 30
0.0
 11
70.9487100966
 21
96.7695649161
 31
0.0
  0
LINE
  5
7B
330
1F
100
AcDbEntity
  8
0
  6
Continuous
 62
     7
370
    25
100
AcDbLine
 10
79.0005935329
 20
83.349759189
 30
0.0
 11
79.0005935329
 21
17.2304350839
 31
0.0
  0
LINE
  5
7C
330
1F
100
AcDbEntity
  8
0
  6
Continuous
 62
     7
370
    25
100
AcDbLine
 10
79.0005935329
 20
17.2304350839
 30
0.0
 11
70.9487100966
 21
17.2304350839
 31
0.0
  0
LINE
  5
7D
330
1F
100
AcDbEntity
  8
0
  6
Continuous
 62
     7
370
    25
100
AcDbLine
 10
129.9958552962
 20
18.9883924103
 30
0.0
 11
132.9978519715
 21
93.9782453249
 31
0.0
  0
ARC
  5
7E
330
1F
100
AcDbEntity
  8
0
  6
Continuous
 62
     7
370
    25
100
AcDbCircle
 10
130.3160388546
 20
94.0856037707
 30
0.0
 40
2.683961145435759
100
AcDbArc
 50
357.707557224
 51
90.0
  0
LINE
  5
7F
330
1F
100
AcDbEntity
  8
0
  6
Continuous
 62
     7
370
    25
100
AcDbLine
 10
70.9487100966
 20
96.7695649161
 30
0.0
 11
70.9487100966
 21
17.2304350839
 31
0.0
  0
LINE
  5
80
330
1F
100
AcDbEntity
  8
0
  6
Continuous
 62
     7
370
    25
100
AcDbLine
 10
81.6845546784
 20
86.0337203344
 30
0.0
 11
124.5183388206
 21
86.0337203344
 31
0.0
  0
ARC
  5
81
330
1F
100
AcDbEntity
  8
0
  6
Continuous
 62
     7
370
    25
100
AcDbCircle
 10
124.5183388206
 20
83.349759189
 30
0.0
 40
2.683961145435763
100
AcDbArc
 50
357.707557224
 51
90.0
  0
LINE
  5
82
330
1F
100
AcDbEntity
  8
0
  6
Continuous
 62
     7
370
    25
100
AcDbLine
 10
127.2001519376
 20
83.2424007431
 30
0.0
 11
124.6279330053
 21
18.9883924103
 31
0.0
  0
LINE
  5
83
330
1F
100
AcDbEntity
  8
0
  6
Continuous
 62
     7
370
    25
100
AcDbLine
 10
124.6279330053
 20
18.9883924103
 30
0.0
 11
129.9958552962
 21
18.9883924103
 31
0.0
  0
ARC
  5
84
330
1F
100
AcDbEntity
  8
0
  6
Continuous
 62
     7
370
    25
100
AcDbCircle
 10
81.6845546784
 20
83.349759189
 30
0.0
 40
2.683961145435759
100
AcDbArc
 50
90.0
 51
180.0
  0
LINE
  5
85
330
1F
100
AcDbEntity
  8
0
  6
Continuous
 62
     7
370
    25
100
AcDbLine
 10
68.2647489512
 20
88.57655939
 30
0.0
 11
68.2647489512
 21
80.9120466173
 31
0.0
  0
LINE
  5
86
330
1F
100
AcDbEntity
  8
0
  6
Continuous
 62
     7
370
    25
100
AcDbLine
 10
68.2647489512
 20
96.2410721627
 30
0.0
 11
68.2647489512
 21
88.57655939
 31
0.0
  0
LINE
  5
87
330
1F
100
AcDbEntity
  8
0
  6
Continuous
 62
     7
370
    25
100
AcDbLine
 10
64.0967672485
 20
27.6859140883
 30
0.0
 11
64.0784349789
 21
27.8216822489
 31
0.0
  0
ARC
  5
88
330
1F
100
AcDbEntity
  8
0
  6
Continuous
 62
     7
370
    25
100
AcDbCircle
 10
62.896829796
 20
49.7408475185
 30
0.0
 40
8.051880300564147
100
AcDbArc
 50
258.5605119203
 51
359.999940043
  0
LWPOLYLINE
  5
89
330
1F
100
AcDbEntity
  8
0
  6
Continuous
 62
     7
370
    25
100
AcDbPolyline
 90
        3
 70
   128
 43
0.0
 10
70.9487100966
 20
19.7239673445
 10
70.8923053338
 20
20.6753582832
 10
70.7412882601
 20
21.5397972893
  0
ARC
  5
8A
330
1F
100
AcDbEntity
  8
0
  6
Continuous
 62
     7
370
    25
100
AcDbCircle
 10
62.8968332345
 20
19.7239585362
 30
0.0
 40
8.051878399779808
100
AcDbArc
 50
13.6558966533
 51
81.4295623206
  0
ARC
  5
8B
330
1F
100
AcDbEntity
  8
0
  6
Continuous
 62
     7
370
    25
100
AcDbCircle
 10
41.9361631631
 20
89.5964551387
 30
0.0
 40
5.320537247823096
100
AcDbArc
 50
67.5869797726
 51
104.9491955019
  0
LWPOLYLINE
  5
8C
330
1F
100
AcDbEntity
  8
0
  6
Continuous
 62
     7
370
    25
100
AcDbPolyline
 90
        3
 70
   128
 43
0.0
 10
46.7316020343
 20
91.9278123341
 10
46.9351003989
 20
91.4622057441
 10
47.1615279012
 20
90.7089720108
  0
LINE
  5
8D
330
1F
100
AcDbEntity
  8
0
  6
Continuous
 62
     7
370
    25
100
AcDbLine
 10
47.197672875
 20
90.717347896
 30
0.0
 11
47.1141350513
 21
90.6979901023
 31
0.0
  0
LINE
  5
8E
330
1F
100
AcDbEntity
  8
0
  6
Continuous
 62
     7
370
    25
100
AcDbLine
 10
37.9806956851
 20
94.0462509756
 30
0.0
 11
37.5340924417
 21
93.9054547152
 31
0.0
  0
SPLINE
  5
8F
330
1F
100
AcDbEntity
  8
0
  6
Continuous
 62
     7
370
    25
100
AcDbSpline
210
0.0
220
0.0
230
1.0
 70
    24
 71
     3
 72
    22
 73
    18
 74
     0
 42
0.00000001
 43
0.00000001
 40
0.003274477940482
 40
0.003274477940482
 40
0.003274477940482
 40
0.003274477940482
 40
0.0036704043976384
 40
0.0036704043976384
 40
0.0040663308547947
 40
0.0040663308547947
 40
0.0044622573119511
 40
0.0044622573119511
 40
0.0048581837691074
 40
0.0048581837691074
 40
0.0052541102262638
 40
0.0052541102262638
 40
0.0056500366834201
 40
0.0056500366834201
 40
0.0060459631405765
 40
0.0060459631405765
 40
0.0064418895977328
 40
0.0064418895977328
 40
0.0064418895977328
 40
0.0064418895977328
 10
37.98069568505352
 20
94.04625097555882
 30
0.0
 10
37.99858826505333
 20
94.05103532473805
 30
0.0
 10
38.04991003142019
 20
94.06475840161092
 30
0.0
 10
38.21262593946273
 20
94.10826748308995
 30
0.0
 10
38.32235553513278
 20
94.1376083998824
 30
0.0
 10
38.58873306067613
 20
94.20883586376394
 30
0.0
 10
38.74082189637955
 20
94.24950334135899
 30
0.0
 10
39.06671973822502
 20
94.33664611630515
 30
0.0
 10
39.23918267010893
 20
94.3827614829324
 30
0.0
 10
39.57566342323927
 20
94.47273405340937
 30
0.0
 10
39.74185498123976
 20
94.51717249907315
 30
0.0
 10
40.03903980881982
 20
94.59663761734632
 30
0.0
 10
40.17310613063834
 20
94.63248600236152
 30
0.0
 10
40.38671532716314
 20
94.68960358876156
 30
0.0
 10
40.46791005502364
 20
94.71131448398162
 30
0.0
 10
40.56525789729771
 20
94.73734460760178
 30
0.0
 10
40.58165554010613
 20
94.74172922116297
 30
0.0
 10
40.56366433156573
 20
94.7369184994105
 30
0.0
  0
SPLINE
  5
90
330
1F
100
AcDbEntity
  8
0
  6
Continuous
 62
     7
370
    25
100
AcDbSpline
210
0.0
220
0.0
230
1.0
 70
     8
 71
     3
 72
    25
 73
    21
 74
     0
 42
0.00000001
 43
0.00000001
 40
0.0
 40
0.0
 40
0.0
 40
0.0
 40
0.024535068408067
 40
0.0499638162561988
 40
0.0762627767903243
 40
0.1034040505875039
 40
0.131355116380008
 40
0.1600787032719778
 40
0.1895327349957839
 40
0.2196703557719584
 40
0.2504400456192692
 40
0.4120959643925667
 40
0.5002696582387387
 40
0.639116064089635
 40
0.7500539175245047
 40
0.8027372251495325
 40
0.8542815595139044
 40
0.9044582476874108
 40
0.9530798101141222
 40
1.0
 40
1.0
 40
1.0
 40
1.0
 10
56.85889220858696
 20
35.87403023041315
 30
0.0
 10
56.87657155422605
 20
35.95834004085137
 30
0.0
 10
56.91257420815592
 20
36.13003061074378
 30
0.0
 10
56.96753788992272
 20
36.39167928887775
 30
0.0
 10
57.02428044154907
 20
36.66139324895229
 30
0.0
 10
57.0826411931448
 20
36.93831577053222
 30
0.0
 10
57.14242120221577
 20
37.22145814598836
 30
0.0
 10
57.20339484610755
 20
37.50970368740324
 30
0.0
 10
57.26530176108383
 20
37.80179749178551
 30
0.0
 10
57.32787054929776
 20
38.09641875404965
 30
0.0
 10
57.47953824922945
 20
38.80939915838182
 30
0.0
 10
57.66141747594873
 20
39.65677065203345
 30
0.0
 10
57.87884841749526
 20
40.66497360531411
 30
0.0
 10
58.03914481117385
 20
41.3970920619924
 30
0.0
 10
58.1448736627466
 20
41.87818335539135
 30
0.0
 10
58.20124128671809
 20
42.13215433039416
 30
0.0
 10
58.23267012654463
 20
42.27334104128195
 30
0.0
 10
58.25414797938642
 20
42.36992423221906
 30
0.0
 10
58.26696372178382
 20
42.42789519942342
 30
0.0
 10
58.26849297539629
 20
42.43489473597997
 30
0.0
 10
58.26924398600833
 20
42.43833218166623
 30
0.0
  0
SPLINE
  5
91
330
1F
100
AcDbEntity
  8
0
  6
Continuous
 62
     7
370
    25
100
AcDbSpline
210
0.0
220
0.0
230
1.0
 70
     8
 71
     3
 72
    30
 73
    26
 74
     0
 42
0.00000001
 43
0.00000001
 40
0.0
 40
0.0
 40
0.0
 40
0.0
 40
0.0257988091987731
 40
0.0503966326034208
 40
0.0737792457371906
 40
0.0959372980950385
 40
0.1168656992612891
 40
0.1365630121198111
 40
0.1550308654919647
 40
0.1722733955645098
 40
0.1882967227810384
 40
0.2031084685346944
 40
0.2167173140461428
 40
0.2291326022388013
 40
0.2403639822128828
 40
0.2504210950389956
 40
0.3822668970697021
 40
0.5003189217247336
 40
0.6287880898814759
 40
0.7500849205135863
 40
0.8007778832231913
 40
0.8515001548458164
 40
0.9018471022248004
 40
0.9514533125162968
 40
1.0
 40
1.0
 40
1.0
 40
1.0
 10
56.85889220858702
 20
35.8740302304131
 30
0.0
 10
56.84031697181466
 20
35.78536629741201
 30
0.0
 10
56.80403121242453
 20
35.61216591354147
 30
0.0
 10
56.75104397730499
 20
35.35900260818492
 30
0.0
 10
56.70083061106917
 20
35.11904769520652
 30
0.0
 10
56.65343987473276
 20
34.89259011218105
 30
0.0
 10
56.60889205276833
 20
34.67978508768173
 30
0.0
 10
56.56718989842321
 20
34.48067241743212
 30
0.0
 10
56.52831993916042
 20
34.29519607336638
 30
0.0
 10
56.49225603135646
 20
34.12322252556397
 30
0.0
 10
56.45896204797162
 20
33.9645578681802
 30
0.0
 10
56.42839474804438
 20
33.81896371045153
 30
0.0
 10
56.40050542367045
 20
33.68617070645747
 30
0.0
 10
56.37524433791798
 20
33.56589311805221
 30
0.0
 10
56.35255496108172
 20
33.4578332289236
 30
0.0
 10
56.25028990415633
 20
32.97012154836543
 30
0.0
 10
56.08444538999975
 20
32.1777762525165
 30
0.0
 10
55.87348038197428
 20
31.17206681575822
 30
0.0
 10
55.70501290876391
 20
30.36731458201592
 30
0.0
 10
55.60279818023531
 20
29.88019659314595
 30
0.0
 10
55.54742350069687
 20
29.61563655184338
 30
0.0
 10
55.51792291909499
 20
29.47461365894295
 30
0.0
 10
55.4971383383479
 20
29.37543163342444
 30
0.0
 10
55.48431056198462
 20
29.31447867598727
 30
0.0
 10
55.48273303182344
 20
29.30703837120103
 30
0.0
 10
55.48195278115874
 20
29.30335837642321
 30
0.0
  0
LINE
  5
92
330
1F
100
AcDbEntity
  8
0
  6
HIDDEN
 62
     7
370
    18
100
AcDbLine
 10
61.29987474
 20
41.8489308882
 30
0.0
 11
61.3305627406
 21
41.7100462692
 31
0.0
  0
LINE
  5
93
330
1F
100
AcDbEntity
  8
0
  6
HIDDEN
 62
     7
370
    18
100
AcDbLine
 10
70.9487100966
 20
87.4047494778
 30
0.0
 11
68.2647489512
 21
87.4047494778
 31
0.0
  0
LINE
  5
94
330
1F
100
AcDbEntity
  8
0
  6
HIDDEN
 62
     7
370
    18
100
AcDbLine
 10
68.2647489512
 20
82.4241978505
 30
0.0
 11
70.9487100966
 21
82.4241978505
 31
0.0
  0
SPLINE
  5
95
330
1F
100
AcDbEntity
  8
0
  6
HIDDEN
 62
     7
370
    18
100
AcDbSpline
210
0.0
220
0.0
230
1.0
 70
     8
 71
     3
 72
    22
 73
    18
 74
     0
 42
0.00000001
 43
0.00000001
 40
0.0
 40
0.0
 40
0.0
 40
0.0
 40
0.0362011673688412
 40
0.0991012509149821
 40
0.1548610156269444
 40
0.2059481494226424
 40
0.2548060205236774
 40
0.3283639996379709
 40
0.40491803221262
 40
0.4574117457722133
 40
0.5108209524385664
 40
0.565258922793395
 40
0.6296403428203844
 40
0.7072709794240675
 40
0.7965853977759457
 40
0.8952048630473192
 40
1.0
 40
1.0
 40
1.0
 40
1.0
 10
70.87365622959949
 20
48.66857624262429
 30
0.0
 10
70.86282847576636
 20
48.57553688772159
 30
0.0
 10
70.8331873335753
 20
48.32084022666539
 30
0.0
 10
70.73379371671118
 20
47.78867521819299
 30
0.0
 10
70.56895426488332
 20
47.13450485422752
 30
0.0
 10
70.34638899525974
 20
46.47766346827219
 30
0.0
 10
70.0182195510361
 20
45.73661938425039
 30
0.0
 10
69.53914710108809
 20
44.95085788007584
 30
0.0
 10
68.95421953719556
 20
44.2269413951045
 30
0.0
 10
68.35647766825026
 20
43.63583748196446
 30
0.0
 10
67.78497325089715
 20
43.16595617993982
 30
0.0
 10
67.12568569603373
 20
42.7193940067329
 30
0.0
 10
66.32383621392145
 20
42.28834262574095
 30
0.0
 10
65.32206938509098
 20
41.89691302353314
 30
0.0
 10
64.11766558552033
 20
41.61822052149011
 30
0.0
 10
62.75168461625934
 20
41.509441389149
 30
0.0
 10
61.81366925334791
 20
41.64225541314916
 30
0.0
 10
61.33042248863557
 20
41.7106785434562
 30
0.0
  0
LINE
  5
96
330
1F
100
AcDbEntity
  8
0
  6
Continuous
 62
     7
370
    25
100
AcDbLine
 10
133.0
 20
134.5153399774
 30
0.0
 11
133.0
 21
181.4846600226
 31
0.0
  0
LINE
  5
97
330
1F
100
AcDbEntity
  8
0
  6
Continuous
 62
     7
370
    25
100
AcDbLine
 10
70.9487100966
 20
179.6531913304
 30
0.0
 11
68.2647489512
 21
179.6531913304
 31
0.0
  0
LINE
  5
98
330
1F
100
AcDbEntity
  8
0
  6
Continuous
 62
     7
370
    25
100
AcDbLine
 10
68.2647489512
 20
164.324165785
 30
0.0
 11
70.9487100966
 21
164.324165785
 31
0.0
  0
LINE
  5
99
330
1F
100
AcDbEntity
  8
0
  6
Continuous
 62
     7
370
    25
100
AcDbLine
 10
70.9487100966
 20
151.675834215
 30
0.0
 11
68.2647489512
 21
151.675834215
 31
0.0
  0
LINE
  5
9A
330
1F
100
AcDbEntity
  8
0
  6
Continuous
 62
     7
370
    25
100
AcDbLine
 10
68.2647489512
 20
136.3468086696
 30
0.0
 11
70.9487100966
 21
136.3468086696
 31
0.0
  0
SPLINE
  5
9B
330
1F
100
AcDbEntity
  8
0
  6
Continuous
 62
     7
370
    25
100
AcDbSpline
210
0.0
220
0.0
230
1.0
 70
     8
 71
     3
 72
    19
 73
    15
 74
     0
 42
0.00000001
 43
0.00000001
 40
0.0
 40
0.0
 40
0.0
 40
0.0
 40
0.0603978963518503
 40
0.1393033410404514
 40
0.2366335885963341
 40
0.3524109560329731
 40
0.4175084362002582
 40
0.4867637479192451
 40
0.5611005855903562
 40
0.6397081235508405
 40
0.7227470347819971
 40
0.810746556238053
 40
0.9027033237065079
 40
0.9999999999999999
 40
0.9999999999999999
 40
0.9999999999999999
 40
0.9999999999999999
 10
40.65704235745716
 20
164.7099802677367
 30
0.0
 10
40.43587242279492
 20
164.7028300620591
 30
0.0
 10
39.92576010602372
 20
164.6863386343742
 30
0.0
 10
39.05157136179995
 20
164.5294681521534
 30
0.0
 10
38.01385106715914
 20
164.1907842745855
 30
0.0
 10
37.09649367774725
 20
163.6936822330006
 30
0.0
 10
36.35255269427279
 20
163.1321929455609
 30
0.0
 10
35.78786491316435
 20
162.5964562856433
 30
0.0
 10
35.25918996116915
 20
161.9576990796675
 30
0.0
 10
34.78836928833181
 20
161.2126869834387
 30
0.0
 10
34.39997207576572
 20
160.3637894818892
 30
0.0
 10
34.12461708731878
 20
159.4201892300471
 30
0.0
 10
33.9752452047317
 20
158.3913312543325
 30
0.0
 10
34.01548491766096
 20
157.6866788956681
 30
0.0
 10
34.03617246894244
 20
157.3244116043703
 30
0.0
  0
SPLINE
  5
9C
330
1F
100
AcDbEntity
  8
0
  6
Continuous
 62
     7
370
    25
100
AcDbSpline
210
0.0
220
0.0
230
1.0
 70
     8
 71
     3
 72
    15
 73
    11
 74
     0
 42
0.00000001
 43
0.00000001
 40
0.0
 40
0.0
 40
0.0
 40
0.0
 40
0.1570422825258466
 40
0.3044357362040912
 40
0.4426388155991979
 40
0.5724613345083197
 40
0.6926527354275532
 40
0.8045100395880291
 40
0.9065944945437566
 40
1.0
 40
1.0
 40
1.0
 40
1.0
 10
34.03617247437618
 20
157.3244116074882
 30
0.0
 10
34.12086015579192
 20
156.8155842392581
 30
0.0
 10
34.28503222604299
 20
155.8291923455817
 30
0.0
 10
34.92077960574764
 20
154.5094715785347
 30
0.0
 10
35.7394092020488
 20
153.417539686054
 30
0.0
 10
36.69333614801305
 20
152.568680484367
 30
0.0
 10
37.71044865186602
 20
151.952194068911
 30
0.0
 10
38.73222425029381
 20
151.55366228635
 30
0.0
 10
39.71772242639875
 20
151.3288085258784
 30
0.0
 10
40.35477369024132
 20
151.3027351443201
 30
0.0
 10
40.65915809532973
 20
151.2902772289455
 30
0.0
  0
SPLINE
  5
9D
330
1F
100
AcDbEntity
  8
0
  6
Continuous
 62
     7
370
    25
100
AcDbSpline
210
0.0
220
0.0
230
1.0
 70
    24
 71
     3
 72
    44
 73
    40
 74
     0
 42
0.00000001
 43
0.00000001
 40
0.0
 40
0.0
 40
0.0
 40
0.0
 40
0.0270883591460146
 40
0.0567615324402173
 40
0.0834599335773328
 40
0.107838918362926
 40
0.130368471604477
 40
0.1513628024089154
 40
0.1803662184817087
 40
0.2066642247058917
 40
0.2303605294799121
 40
0.2514784960703259
 40
0.2756662418857355
 40
0.2958524209584182
 40
0.3167256479444638
 40
0.3385162006973734
 40
0.3600223117815294
 40
0.3804807734249174
 40
0.3968224831998431
 40
0.411964663932536
 40
0.4260734141420948
 40
0.4396544067467562
 40
0.4536243107426328
 40
0.4693833664418948
 40
0.4888970587638291
 40
0.5030282447660591
 40
0.5199551254597916
 40
0.5404119066253023
 40
0.5585705234640267
 40
0.5795767913837089
 40
0.6038607477877636
 40
0.6318907856357519
 40
0.6691664414606153
 40
0.712712289328357
 40
0.7624883056619908
 40
0.818062981076385
 40
0.8789194275629574
 40
0.9444569690810066
 40
1.0
 40
1.0
 40
1.0
 40
1.0
 10
56.86209004929309
 20
164.7099028635894
 30
0.0
 10
56.34911042328648
 20
164.7099028635894
 30
0.0
 10
55.27420184260087
 20
164.7099028635894
 30
0.0
 10
53.77458196753121
 20
164.7099028635894
 30
0.0
 10
52.41297016860616
 20
164.7099028635894
 30
0.0
 10
51.27498617880074
 20
164.7099028635894
 30
0.0
 10
50.32663910911752
 20
164.7099028635894
 30
0.0
 10
49.42266954313491
 20
164.7099028635894
 30
0.0
 10
48.6049996156984
 20
164.7099028635894
 30
0.0
 10
47.90429738816211
 20
164.7099028635894
 30
0.0
 10
47.37982477398304
 20
164.7099028635894
 30
0.0
 10
46.95167493508438
 20
164.7099028635894
 30
0.0
 10
46.61174544348732
 20
164.7099028635894
 30
0.0
 10
46.32374868822346
 20
164.7099028635893
 30
0.0
 10
46.08002125325844
 20
164.7099028635893
 30
0.0
 10
45.84295902809638
 20
164.7099028635894
 30
0.0
 10
45.60955514174678
 20
164.7099028635888
 30
0.0
 10
45.40438945718261
 20
164.7099028635885
 30
0.0
 10
45.23407823429219
 20
164.7099028635904
 30
0.0
 10
45.10007948289243
 20
164.7099028635904
 30
0.0
 10
44.99390931421403
 20
164.7099028635896
 30
0.0
 10
44.91433808695882
 20
164.7099028635893
 30
0.0
 10
44.85566653682653
 20
164.7099028635894
 30
0.0
 10
44.80531460557299
 20
164.7099028635894
 30
0.0
 10
44.75473317410043
 20
164.7099028635894
 30
0.0
 10
44.69413183467555
 20
164.7099028635894
 30
0.0
 10
44.62370146391633
 20
164.7099028635894
 30
0.0
 10
44.53727438678077
 20
164.7099028635894
 30
0.0
 10
44.43487792146504
 20
164.7099028635894
 30
0.0
 10
44.31719855026245
 20
164.7099028635894
 30
0.0
 10
44.17166310027849
 20
164.7099028635894
 30
0.0
 10
43.98295452574139
 20
164.7099028635894
 30
0.0
 10
43.7402771550553
 20
164.7099028635894
 30
0.0
 10
43.43454506424686
 20
164.7099028635894
 30
0.0
 10
43.05785017194952
 20
164.7099028635894
 30
0.0
 10
42.59385452924028
 20
164.7099028635894
 30
0.0
 10
42.02138413382038
 20
164.7099028635894
 30
0.0
 10
41.38477017570778
 20
164.7099028635894
 30
0.0
 10
40.88072773985839
 20
164.7099028635894
 30
0.0
 10
40.64950943591931
 20
164.7099028635894
 30
0.0
  0
SPLINE
  5
9E
330
1F
100
AcDbEntity
  8
0
  6
Continuous
 62
     7
370
    25
100
AcDbSpline
210
0.0
220
0.0
230
1.0
 70
    24
 71
     3
 72
    42
 73
    38
 74
     0
 42
0.00000001
 43
0.00000001
 40
0.0
 40
0.0
 40
0.0
 40
0.0
 40
0.0488218935558778
 40
0.1088756260162014
 40
0.1655964204582825
 40
0.2184391011285861
 40
0.2668890000336339
 40
0.3104642815415442
 40
0.348768240722089
 40
0.3820050398485125
 40
0.4107287965671741
 40
0.4354693580112437
 40
0.4567270722327961
 40
0.4749735509679829
 40
0.5005111324948188
 40
0.5205404461138673
 40
0.5368879044283194
 40
0.5511704782559216
 40
0.5648132804763885
 40
0.5790648278087362
 40
0.5950049049109072
 40
0.6217239809095295
 40
0.6534008121461887
 40
0.68924445708378
 40
0.7264510713864683
 40
0.7612816663412363
 40
0.7808545926088536
 40
0.7991866854000796
 40
0.8207271283150332
 40
0.8463499896675578
 40
0.8658747319017637
 40
0.8875724774045942
 40
0.9117816383163555
 40
0.9319099920663834
 40
0.954081725301077
 40
0.9787316566860346
 40
1.0
 40
1.0
 40
1.0
 40
1.0
 10
40.65059572559794
 20
151.2900971364106
 30
0.0
 10
40.85460824610763
 20
151.2900971364106
 30
0.0
 10
41.30956788138298
 20
151.2900971364106
 30
0.0
 10
41.90065739093195
 20
151.2900971364106
 30
0.0
 10
42.44954373165005
 20
151.2900971364106
 30
0.0
 10
42.90630522372673
 20
151.2900971364106
 30
0.0
 10
43.28671631746477
 20
151.2900971364106
 30
0.0
 10
43.60141085124125
 20
151.2900971364106
 30
0.0
 10
43.86442563726452
 20
151.2900971364106
 30
0.0
 10
44.08238864965979
 20
151.2900971364106
 30
0.0
 10
44.25961053062142
 20
151.2900971364106
 30
0.0
 10
44.4018580527266
 20
151.2900971364106
 30
0.0
 10
44.51438227412822
 20
151.2900971364106
 30
0.0
 10
44.61786612114982
 20
151.2900971364107
 30
0.0
 10
44.70584446660461
 20
151.2900971364106
 30
0.0
 10
44.77537775844359
 20
151.2900971364106
 30
0.0
 10
44.82555955471697
 20
151.2900971364106
 30
0.0
 10
44.87462767979328
 20
151.2900971364107
 30
0.0
 10
44.93898448771944
 20
151.2900971364105
 30
0.0
 10
45.03182506057138
 20
151.2900971364112
 30
0.0
 10
45.18519236756991
 20
151.2900971364121
 30
0.0
 10
45.4269642683783
 20
151.2900971364092
 30
0.0
 10
45.76802259037296
 20
151.2900971364105
 30
0.0
 10
46.15042966357521
 20
151.2900971364108
 30
0.0
 10
46.59630762745356
 20
151.2900971364106
 30
0.0
 10
47.09868034374918
 20
151.2900971364106
 30
0.0
 10
47.59437039511194
 20
151.2900971364106
 30
0.0
 10
48.06258560487781
 20
151.2900971364106
 30
0.0
 10
48.65861570483059
 20
151.2900971364106
 30
0.0
 10
49.37075500000935
 20
151.2900971364106
 30
0.0
 10
50.18984640819373
 20
151.2900971364106
 30
0.0
 10
51.08518623401322
 20
151.2900971364106
 30
0.0
 10
52.08790768901077
 20
151.2900971364106
 30
0.0
 10
53.18025423655334
 20
151.2900971364106
 30
0.0
 10
54.34713777680415
 20
151.2900971364106
 30
0.0
 10
55.58773129208818
 20
151.2900971364106
 30
0.0
 10
56.4581120456839
 20
151.2900971364106
 30
0.0
 10
56.86125342681634
 20
151.2900971364106
 30
0.0
  0
SPLINE
  5
9F
330
1F
100
AcDbEntity
  8
0
  6
Continuous
 62
     7
370
    25
100
AcDbSpline
210
0.0
220
0.0
230
1.0
 70
     8
 71
     3
 72
    12
 73
     8
 74
     0
 42
0.00000001
 43
0.00000001
 40
0.0
 40
0.0
 40
0.0
 40
0.0
 40
0.2076361560861588
 40
0.3853028669373151
 40
0.5790101580579659
 40
0.7853190009266758
 40
1.0
 40
1.0
 40
1.0
 40
1.0
 10
68.2647523587271
 20
166.7602699263769
 30
0.0
 10
67.9498372798045
 20
166.5023225989936
 30
0.0
 10
67.36546081552285
 20
166.0236591203731
 30
0.0
 10
66.36996303645154
 20
165.4716727693377
 30
0.0
 10
65.31743117913835
 20
165.0538803468345
 30
0.0
 10
64.14190467808014
 20
164.7662762684147
 30
0.0
 10
63.31732537429612
 20
164.7289415750541
 30
0.0
 10
62.89683658545756
 20
164.7099029939002
 30
0.0
  0
SPLINE
  5
A0
330
1F
100
AcDbEntity
  8
0
  6
Continuous
 62
     7
370
    25
100
AcDbSpline
210
0.0
220
0.0
230
1.0
 70
     8
 71
     3
 72
    13
 73
     9
 74
     0
 42
0.00000001
 43
0.00000001
 40
0.0
 40
0.0
 40
0.0
 40
0.0
 40
0.1986225394845053
 40
0.3854370920823464
 40
0.556604282937938
 40
0.7091280718221243
 40
0.8798952203882819
 40
0.9999999999999999
 40
0.9999999999999999
 40
0.9999999999999999
 40
0.9999999999999999
 10
62.89682795112216
 20
151.2900971423431
 30
0.0
 10
63.28619612564673
 20
151.2738506569019
 30
0.0
 10
64.04178477801051
 20
151.2423235295111
 30
0.0
 10
65.11040016761629
 20
151.001923445472
 30
0.0
 10
66.05454672257139
 20
150.6663379279174
 30
0.0
 10
66.92172812352263
 20
150.2316751910686
 30
0.0
 10
67.6549587214871
 20
149.760043859022
 30
0.0
 10
68.08654245003221
 20
149.3875475333397
 30
0.0
 10
68.26474895117387
 20
149.2337389847372
 30
0.0
  0
SPLINE
  5
A1
330
1F
100
AcDbEntity
  8
0
  6
Continuous
 62
     7
370
    25
100
AcDbSpline
210
0.0
220
0.0
230
1.0
 70
    24
 71
     3
 72
     9
 73
     5
 74
     0
 42
0.00000001
 43
0.00000001
 40
0.0
 40
0.0
 40
0.0
 40
0.0
 40
0.3501512142683879
 40
1.0
 40
1.0
 40
1.0
 40
1.0
 10
62.89076741390645
 20
164.7099028635894
 30
0.0
 10
62.18536322580817
 20
164.7099028635894
 30
0.0
 10
60.17079306482169
 20
164.7099028635894
 30
0.0
 10
58.16281744093223
 20
164.7099028635894
 30
0.0
 10
56.85793691996898
 20
164.7099028635894
 30
0.0
  0
SPLINE
  5
A2
330
1F
100
AcDbEntity
  8
0
  6
Continuous
 62
     7
370
    25
100
AcDbSpline
210
0.0
220
0.0
230
1.0
 70
    24
 71
     3
 72
     9
 73
     5
 74
     0
 42
0.00000001
 43
0.00000001
 40
0.0
 40
0.0
 40
0.0
 40
0.0
 40
0.6498520969735629
 40
1.0
 40
1.0
 40
1.0
 40
1.0
 10
56.85794064391214
 20
151.2900971364106
 30
0.0
 10
58.16281991971341
 20
151.2900971364106
 30
0.0
 10
60.17078339613862
 20
151.2900971364106
 30
0.0
 10
62.18534136979041
 20
151.2900971364106
 30
0.0
 10
62.89073461978977
 20
151.2900971364106
 30
0.0
  0
LINE
  5
A3
330
1F
100
AcDbEntity
  8
0
  6
Continuous
 62
     7
370
    25
100
AcDbLine
 10
133.0
 20
134.5153399774
 30
0.0
 11
130.3160388546
 21
134.5153399774
 31
0.0
  0
LINE
  5
A4
330
1F
100
AcDbEntity
  8
0
  6
Continuous
 62
     7
370
    25
100
AcDbLine
 10
133.0
 20
181.4846600226
 30
0.0
 11
130.3160388546
 21
181.4846600226
 31
0.0
  0
LINE
  5
A5
330
1F
100
AcDbEntity
  8
0
  6
Continuous
 62
     7
370
    25
100
AcDbLine
 10
130.3160388546
 20
134.5153399774
 30
0.0
 11
70.9487100966
 21
134.5153399774
 31
0.0
  0
LINE
  5
A6
330
1F
100
AcDbEntity
  8
0
  6
Continuous
 62
     7
370
    25
100
AcDbLine
 10
70.9487100966
 20
134.5153399774
 30
0.0
 11
70.9487100966
 21
181.4846600226
 31
0.0
  0
LINE
  5
A7
330
1F
100
AcDbEntity
  8
0
  6
Continuous
 62
     7
370
    25
100
AcDbLine
 10
130.3160388546
 20
181.4846600226
 30
0.0
 11
70.9487100966
 21
181.4846600226
 31
0.0
  0
LINE
  5
A8
330
1F
100
AcDbEntity
  8
0
  6
Continuous
 62
     7
370
    25
100
AcDbLine
 10
68.2647489512
 20
164.324165785
 30
0.0
 11
68.2647489512
 21
179.6531913304
 31
0.0
  0
LINE
  5
A9
330
1F
100
AcDbEntity
  8
0
  6
Continuous
 62
     7
370
    25
100
AcDbLine
 10
68.2647489512
 20
151.675834215
 30
0.0
 11
68.2647489512
 21
136.3468086696
 31
0.0
  0
SPLINE
  5
AA
330
1F
100
AcDbEntity
  8
0
  6
Continuous
 62
     7
370
    25
100
AcDbSpline
210
0.0
220
0.0
230
1.0
 70
     8
 71
     3
 72
    26
 73
    22
 74
     0
 42
0.00000001
 43
0.00000001
 40
0.0
 40
0.0
 40
0.0
 40
0.0
 40
0.0232504578046479
 40
0.0469421948457677
 40
0.0710607214960454
 40
0.0955890623509187
 40
0.120507689144334
 40
0.1457944776945437
 40
0.1714246921641987
 40
0.1973709996099419
 40
0.2236035173460515
 40
0.2500898950526932
 40
0.3609925230599615
 40
0.4998059309286366
 40
0.5879613683027529
 40
0.7495668095377019
 40
0.8044972575935939
 40
0.857248530567178
 40
0.9075529522608585
 40
0.9551929307532401
 40
1.0
 40
1.0
 40
1.0
 40
1.0
 10
58.26924398600834
 20
157.9999999999999
 30
0.0
 10
58.26906006941478
 20
158.0816330600844
 30
0.0
 10
58.26868874560502
 20
158.24644852499
 30
0.0
 10
58.2656243819451
 20
158.4956094139364
 30
0.0
 10
58.26058347594974
 20
158.748548431722
 30
0.0
 10
58.25327860645298
 20
159.004678118824
 30
0.0
 10
58.24366647612149
 20
159.2633509466565
 30
0.0
 10
58.23165725853398
 20
159.5238618117349
 30
0.0
 10
58.21719751346127
 20
159.785453616933
 30
0.0
 10
58.20025125759078
 20
160.0473171955345
 30
0.0
 10
58.18080528535715
 20
160.3086194581845
 30
0.0
 10
58.13563870587409
 20
160.8438548140526
 30
0.0
 10
58.03905846121656
 20
161.7086503523177
 30
0.0
 10
57.87879986715839
 20
162.6417192844131
 30
0.0
 10
57.66139792281223
 20
163.5393900129899
 30
0.0
 10
57.46400251072712
 20
164.0779325790312
 30
0.0
 10
57.27920181795031
 20
164.4018158199542
 30
0.0
 10
57.1681080081726
 20
164.5476191512906
 30
0.0
 10
57.06056465473534
 20
164.6441392807899
 30
0.0
 10
56.95783735991223
 20
164.7000761262819
 30
0.0
 10
56.89119318695981
 20
164.7066948920642
 30
0.0
 10
56.85889220877392
 20
164.7099028635894
 30
0.0
  0
SPLINE
  5
AB
330
1F
100
AcDbEntity
  8
0
  6
Continuous
 62
     7
370
    25
100
AcDbSpline
210
0.0
220
0.0
230
1.0
 70
     8
 71
     3
 72
    25
 73
    21
 74
     0
 42
0.00000001
 43
0.00000001
 40
0.0
 40
0.0
 40
0.0
 40
0.0
 40
0.024535068408067
 40
0.0499638162561988
 40
0.0762627767903243
 40
0.1034040505875039
 40
0.131355116380008
 40
0.1600787032719778
 40
0.1895327349957839
 40
0.2196703557719584
 40
0.2504400456192692
 40
0.4120959643925667
 40
0.5002696582387387
 40
0.639116064089635
 40
0.7500539175245047
 40
0.8027372251495325
 40
0.8542815595139044
 40
0.9044582476874108
 40
0.9530798101141222
 40
1.0
 40
1.0
 40
1.0
 40
1.0
 10
56.85889220858696
 20
151.2900971364106
 30
0.0
 10
56.87657155422605
 20
151.2910566602249
 30
0.0
 10
56.91257420815592
 20
151.2930106581005
 30
0.0
 10
56.96753788992272
 20
151.3092372520807
 30
0.0
 10
57.02428044154907
 20
151.3364376797207
 30
0.0
 10
57.0826411931448
 20
151.3766174044251
 30
0.0
 10
57.14242120221577
 20
151.4304795840738
 30
0.0
 10
57.20339484610755
 20
151.4990035928538
 30
0.0
 10
57.26530176108383
 20
151.5829595085098
 30
0.0
 10
57.32787054929776
 20
151.6830684065614
 30
0.0
 10
57.47953824922945
 20
151.9645106967619
 30
0.0
 10
57.66141747594873
 20
152.4606258475897
 30
0.0
 10
57.87884841749526
 20
153.3585081292246
 30
0.0
 10
58.03914481117385
 20
154.2919475824677
 30
0.0
 10
58.1448736627466
 20
155.2388536140611
 30
0.0
 10
58.20124128671809
 20
155.9488208027816
 30
0.0
 10
58.23267012654463
 20
156.4719392590114
 30
0.0
 10
58.25414797938642
 20
156.9908434764587
 30
0.0
 10
58.26696372178382
 20
157.4997301816714
 30
0.0
 10
58.26849297539629
 20
157.8352349090015
 30
0.0
 10
58.26924398600833
 20
157.9999999999999
 30
0.0
  0
SPLINE
  5
AC
330
1F
100
AcDbEntity
  8
0
  6
HIDDEN
 62
     7
370
    18
100
AcDbSpline
210
0.0
220
0.0
230
1.0
 70
     8
 71
     3
 72
    30
 73
    26
 74
     0
 42
0.00000001
 43
0.00000001
 40
0.0
 40
0.0
 40
0.0
 40
0.0
 40
0.0257988091987731
 40
0.0503966326034208
 40
0.0737792457371906
 40
0.0959372980950385
 40
0.1168656992612891
 40
0.1365630121198111
 40
0.1550308654919647
 40
0.1722733955645098
 40
0.1882967227810384
 40
0.2031084685346944
 40
0.2167173140461428
 40
0.2291326022388013
 40
0.2403639822128828
 40
0.2504210950389956
 40
0.3822668970697021
 40
0.5003189217247336
 40
0.6287880898814759
 40
0.7500849205135863
 40
0.8007778832231913
 40
0.8515001548458164
 40
0.9018471022248004
 40
0.9514533125162968
 40
1.0
 40
1.0
 40
1.0
 40
1.0
 10
56.85889220858702
 20
151.2900971364106
 30
0.0
 10
56.84031697181466
 20
151.2911514374833
 30
0.0
 10
56.80403121242453
 20
151.2932109598203
 30
0.0
 10
56.75104397730499
 20
151.3092660708526
 30
0.0
 10
56.70083061106917
 20
151.3330684974387
 30
0.0
 10
56.65343987473276
 20
151.3640783310234
 30
0.0
 10
56.60889205276833
 20
151.4006909890738
 30
0.0
 10
56.56718989842321
 20
151.4416618842586
 30
0.0
 10
56.52831993916042
 20
151.4857643377649
 30
0.0
 10
56.49225603135646
 20
151.5318801950826
 30
0.0
 10
56.45896204797162
 20
151.5789807059888
 30
0.0
 10
56.42839474804438
 20
151.6261313183405
 30
0.0
 10
56.40050542367045
 20
151.6724891765903
 30
0.0
 10
56.37524433791798
 20
151.7172986233917
 30
0.0
 10
56.35255496108172
 20
151.7598931288564
 30
0.0
 10
56.25028990415633
 20
151.9617292765075
 30
0.0
 10
56.08444538999975
 20
152.4000457857365
 30
0.0
 10
55.87348038197428
 20
153.2530317018405
 30
0.0
 10
55.70501290876391
 20
154.260518357043
 30
0.0
 10
55.60279818023531
 20
155.1985612138357
 30
0.0
 10
55.54742350069687
 20
155.9329796325615
 30
0.0
 10
55.51792291909499
 20
156.4466558337816
 30
0.0
 10
55.4971383383479
 20
156.9663293991886
 30
0.0
 10
55.48431056198462
 20
157.4847981817353
 30
0.0
 10
55.48273303182344
 20
157.8295063914585
 30
0.0
 10
55.48195278115874
 20
158.0
 30
0.0
  0
SPLINE
  5
AD
330
1F
100
AcDbEntity
  8
0
  6
HIDDEN
 62
     7
370
    18
100
AcDbSpline
210
0.0
220
0.0
230
1.0
 70
     8
 71
     3
 72
    28
 73
    24
 74
     0
 42
0.00000001
 43
0.00000001
 40
0.0
 40
0.0
 40
0.0
 40
0.0
 40
0.0241345564698859
 40
0.0485705389162101
 40
0.0732728062176657
 40
0.0982029988984054
 40
0.1233196515618245
 40
0.1485783538759047
 40
0.1739319600749219
 40
0.1993308454810852
 40
0.2247232070247492
 40
0.2500554032270885
 40
0.3713122705971368
 40
0.4997506075256237
 40
0.617764938018328
 40
0.7495768971031247
 40
0.7708664308076204
 40
0.7968918779597323
 40
0.8277282883821889
 40
0.8634397194929374
 40
0.9040658088242598
 40
0.9496057296454194
 40
1.0
 40
1.0
 40
1.0
 40
1.0
 10
55.48195278115874
 20
158.0
 30
0.0
 10
55.48214543618842
 20
158.084745765465
 30
0.0
 10
55.4825331523923
 20
158.2552957196204
 30
0.0
 10
55.48568321586256
 20
158.5122133252983
 30
0.0
 10
55.49077361882436
 20
158.7711558595569
 30
0.0
 10
55.49802948635789
 20
159.0313032094032
 30
0.0
 10
55.50742406904717
 20
159.2917904289812
 30
0.0
 10
55.51897913761877
 20
159.5517169741224
 30
0.0
 10
55.53268202429276
 20
159.8101596971368
 30
0.0
 10
55.54850648542075
 20
160.0661778453112
 30
0.0
 10
55.56640838660866
 20
160.3188532530382
 30
0.0
 10
55.61149949907733
 20
160.8812802037813
 30
0.0
 10
55.70509540340024
 20
161.7400753823503
 30
0.0
 10
55.87352070359864
 20
162.7471451037464
 30
0.0
 10
56.08445950218058
 20
163.5999330814515
 30
0.0
 10
56.25735544250568
 20
164.0570365900806
 30
0.0
 10
56.37747904412944
 20
164.2880210762109
 30
0.0
 10
56.43070420914791
 20
164.3793114988566
 30
0.0
 10
56.49462443084184
 20
164.4736408552807
 30
0.0
 10
56.56961737323137
 20
164.5640515849867
 30
0.0
 10
56.65591808375903
 20
164.6412389645952
 30
0.0
 10
56.75354230709999
 20
164.6982608613901
 30
0.0
 10
56.82261060387453
 20
164.7058934576258
 30
0.0
 10
56.85889220877397
 20
164.7099028635894
 30
0.0
  0
LINE
  5
AE
330
1F
100
AcDbEntity
  8
0
  6
HIDDEN
 62
     7
370
    18
100
AcDbLine
 10
79.0005935329
 20
181.4846600226
 30
0.0
 11
79.0005935329
 21
134.5153399774
 31
0.0
  0
LINE
  5
AF
330
1F
100
AcDbEntity
  8
0
  6
HIDDEN
 62
     7
370
    18
100
AcDbLine
 10
124.6279330053
 20
134.5153399774
 30
0.0
 11
124.6279330053
 21
181.4846600226
 31
0.0
  0
LINE
  5
B0
330
1F
100
AcDbEntity
  8
0
  6
HIDDEN
 62
     7
370
    18
100
AcDbLine
 10
129.9958552962
 20
134.5153399774
 30
0.0
 11
129.9958552962
 21
181.4846600226
 31
0.0
  0
LINE
  5
B1
330
1F
100
AcDbEntity
  8
0
  6
HIDDEN
 62
     7
370
    18
100
AcDbLine
 10
70.9487100966
 20
173.3496549657
 30
0.0
 11
68.2647489512
 21
173.3496549657
 31
0.0
  0
LINE
  5
B2
330
1F
100
AcDbEntity
  8
0
  6
HIDDEN
 62
     7
370
    18
100
AcDbLine
 10
68.2647489512
 20
168.3691033385
 30
0.0
 11
70.9487100966
 21
168.3691033385
 31
0.0
  0
LINE
  5
B3
330
1F
100
AcDbEntity
  8
0
  6
HIDDEN
 62
     7
370
    18
100
AcDbLine
 10
70.9487100966
 20
147.6308966615
 30
0.0
 11
68.2647489512
 21
147.6308966615
 31
0.0
  0
LINE
  5
B4
330
1F
100
AcDbEntity
  8
0
  6
HIDDEN
 62
     7
370
    18
100
AcDbLine
 10
68.2647489512
 20
142.6503450343
 30
0.0
 11
70.9487100966
 21
142.6503450343
 31
0.0
  0
LINE
  5
B5
330
1F
100
AcDbEntity
  8
0
  6
HIDDEN
 62
     7
370
    18
100
AcDbLine
 10
127.202299966
 20
134.5153399774
 30
0.0
 11
127.202299966
 21
181.4846600226
 31
0.0
  0
SPLINE
  5
B6
330
1F
100
AcDbEntity
  8
0
  6
HIDDEN
 62
     7
370
    18
100
AcDbSpline
210
0.0
220
0.0
230
1.0
 70
     8
 71
     3
 72
    14
 73
    10
 74
     0
 42
0.00000001
 43
0.00000001
 40
0.0
 40
0.0
 40
0.0
 40
0.0
 40
0.1853557990729905
 40
0.3308411557951112
 40
0.4346568150338718
 40
0.5821952363886794
 40
0.7354053297945435
 40
0.8514804916753141
 40
1.0
 40
1.0
 40
1.0
 40
1.0
 10
70.94871009660963
 20
172.7616592594995
 30
0.0
 10
70.93018942840087
 20
172.3432816270121
 30
0.0
 10
70.89713192867906
 20
171.5965203161536
 30
0.0
 10
70.67754491758963
 20
170.6365870932456
 30
0.0
 10
70.39537828790857
 20
169.7863314950629
 30
0.0
 10
70.01571731956619
 20
168.953165331224
 30
0.0
 10
69.51838718682653
 20
168.1524810561031
 30
0.0
 10
68.9378668454056
 20
167.4068174965922
 30
0.0
 10
68.50674510020937
 20
166.992711542345
 30
0.0
 10
68.2647523587271
 20
166.7602699263769
 30
0.0
  0
SPLINE
  5
B7
330
1F
100
AcDbEntity
  8
0
  6
HIDDEN
 62
     7
370
    18
100
AcDbSpline
210
0.0
220
0.0
230
1.0
 70
     8
 71
     3
 72
    14
 73
    10
 74
     0
 42
0.00000001
 43
0.00000001
 40
0.0
 40
0.0
 40
0.0
 40
0.0
 40
0.0150702742983689
 40
0.1342197786614698
 40
0.3191403329094279
 40
0.5113163325825536
 40
0.7378613547136167
 40
0.8653646268425306
 40
1.0
 40
1.0
 40
1.0
 40
1.0
 10
68.26474895117387
 20
149.2337389847372
 30
0.0
 10
68.29100002341463
 20
149.2121722889027
 30
0.0
 10
68.52479889369535
 20
149.0200936920525
 30
0.0
 10
69.01764621414915
 20
148.4919509300937
 30
0.0
 10
69.70426697213846
 20
147.6057020742165
 30
0.0
 10
70.34768823674142
 20
146.3987468195064
 30
0.0
 10
70.73021055268585
 20
145.2211700715949
 30
0.0
 10
70.9194434949747
 20
144.1330654474067
 30
0.0
 10
70.93877920484503
 20
143.5418597075969
 30
0.0
 10
70.94871009660963
 20
143.2382142633887
 30
0.0
  0
LINE
  5
B8
330
1F
100
AcDbEntity
  8
0
  6
Continuous
 62
     7
370
    25
100
AcDbLine
 10
199.5153399774
 20
93.9782453249
 30
0.0
 11
199.5153399774
 21
96.7695649161
 31
0.0
  0
LINE
  5
B9
330
1F
100
AcDbEntity
  8
0
  6
Continuous
 62
     7
370
    25
100
AcDbLine
 10
199.5153399774
 20
96.7695649161
 30
0.0
 11
246.4846600226
 21
96.7695649161
 31
0.0
  0
LINE
  5
BA
330
1F
100
AcDbEntity
  8
0
  6
Continuous
 62
     7
370
    25
100
AcDbLine
 10
246.4846600226
 20
93.9782453249
 30
0.0
 11
246.4846600226
 21
96.7695649161
 31
0.0
  0
LINE
  5
BB
330
1F
100
AcDbEntity
  8
0
  6
Continuous
 62
     7
370
    25
100
AcDbLine
 10
199.5153399774
 20
18.9883924103
 30
0.0
 11
246.4846600226
 21
18.9883924103
 31
0.0
  0
LINE
  5
BC
330
1F
100
AcDbEntity
  8
0
  6
Continuous
 62
     7
370
    25
100
AcDbLine
 10
199.5153399774
 20
18.9883924103
 30
0.0
 11
199.5153399774
 21
93.9782453249
 31
0.0
  0
LINE
  5
BD
330
1F
100
AcDbEntity
  8
0
  6
Continuous
 62
     7
370
    25
100
AcDbLine
 10
246.4846600226
 20
18.9883924103
 30
0.0
 11
246.4846600226
 21
93.9782453249
 31
0.0
  0
LINE
  5
BE
330
1F
100
AcDbEntity
  8
0
  6
Continuous
 62
     7
370
    25
100
AcDbLine
 10
199.5153399774
 20
17.2304350839
 30
0.0
 11
246.4846600226
 21
17.2304350839
 31
0.0
  0
LINE
  5
BF
330
1F
100
AcDbEntity
  8
0
  6
Continuous
 62
     7
370
    25
100
AcDbLine
 10
199.5153399774
 20
18.9883924103
 30
0.0
 11
199.5153399774
 21
17.2304350839
 31
0.0
  0
LINE
  5
C0
330
1F
100
AcDbEntity
  8
0
  6
Continuous
 62
     7
370
    25
100
AcDbLine
 10
246.4846600226
 20
18.9883924103
 30
0.0
 11
246.4846600226
 21
17.2304350839
 31
0.0
  0
LINE
  5
C1
330
1F
100
AcDbEntity
  8
0
  6
HIDDEN
 62
     7
370
    18
100
AcDbLine
 10
199.5153399774
 20
86.0337203344
 30
0.0
 11
246.4846600226
 21
86.0337203344
 31
0.0
  0
CIRCLE
  5
C2
330
1F
100
AcDbEntity
  8
0
  6
HIDDEN
 62
     7
370
    18
100
AcDbCircle
 10
236.9886785577
 20
88.57655939
 30
0.0
 40
7.664512772714687
  0
CIRCLE
  5
C3
330
1F
100
AcDbEntity
  8
0
  6
HIDDEN
 62
     7
370
    18
100
AcDbCircle
 10
235.8593791521
 20
84.9144736642
 30
0.0
 40
2.490275813639471
  0
CIRCLE
  5
C4
330
1F
100
AcDbEntity
  8
0
  6
HIDDEN
 62
     7
370
    18
100
AcDbCircle
 10
209.0113214423
 20
88.57655939
 30
0.0
 40
7.664512772714659
  0
CIRCLE
  5
C5
330
1F
100
AcDbEntity
  8
0
  6
HIDDEN
 62
     7
370
    18
100
AcDbCircle
 10
210.1406208479
 20
84.9144736642
 30
0.0
 40
2.490275813639499
  0
SPLINE
  5
C6
330
1F
100
AcDbEntity
  8
0
  6
HIDDEN
 62
     7
370
    18
100
AcDbSpline
210
0.0
220
0.0
230
1.0
 70
     8
 71
     3
 72
    25
 73
    21
 74
     0
 42
0.00000001
 43
0.00000001
 40
0.0
 40
0.0
 40
0.0
 40
0.0
 40
0.024535068408067
 40
0.0499638162561988
 40
0.0762627767903243
 40
0.1034040505875039
 40
0.131355116380008
 40
0.1600787032719778
 40
0.1895327349957839
 40
0.2196703557719584
 40
0.2504400456192692
 40
0.4120959643925667
 40
0.5002696582387387
 40
0.639116064089635
 40
0.7500539175245047
 40
0.8027372251495325
 40
0.8542815595139044
 40
0.9044582476874108
 40
0.9530798101141222
 40
1.0
 40
1.0
 40
1.0
 40
1.0
 10
216.2900971364106
 20
35.87403023041315
 30
0.0
 10
216.2910566602249
 20
35.95834004085137
 30
0.0
 10
216.2930106581005
 20
36.13003061074378
 30
0.0
 10
216.3092372520807
 20
36.39167928887775
 30
0.0
 10
216.3364376797207
 20
36.66139324895229
 30
0.0
 10
216.3766174044251
 20
36.93831577053222
 30
0.0
 10
216.4304795840738
 20
37.22145814598836
 30
0.0
 10
216.4990035928538
 20
37.50970368740324
 30
0.0
 10
216.5829595085098
 20
37.80179749178551
 30
0.0
 10
216.6830684065614
 20
38.09641875404965
 30
0.0
 10
216.9645106967619
 20
38.80939915838182
 30
0.0
 10
217.4606258475897
 20
39.65677065203345
 30
0.0
 10
218.3585081292246
 20
40.66497360531411
 30
0.0
 10
219.2919475824677
 20
41.3970920619924
 30
0.0
 10
220.2388536140611
 20
41.87818335539135
 30
0.0
 10
220.9488208027816
 20
42.13215433039416
 30
0.0
 10
221.4719392590114
 20
42.27334104128195
 30
0.0
 10
221.9908434764587
 20
42.36992423221906
 30
0.0
 10
222.4997301816714
 20
42.42789519942342
 30
0.0
 10
222.8352349090015
 20
42.43489473597997
 30
0.0
 10
222.9999999999999
 20
42.43833218166623
 30
0.0
  0
SPLINE
  5
C7
330
1F
100
AcDbEntity
  8
0
  6
HIDDEN
 62
     7
370
    18
100
AcDbSpline
210
0.0
220
0.0
230
1.0
 70
     8
 71
     3
 72
    26
 73
    22
 74
     0
 42
0.00000001
 43
0.00000001
 40
0.0
 40
0.0
 40
0.0
 40
0.0
 40
0.0232504578046479
 40
0.0469421948457677
 40
0.0710607214960454
 40
0.0955890623509187
 40
0.120507689144334
 40
0.1457944776945437
 40
0.1714246921641987
 40
0.1973709996099419
 40
0.2236035173460515
 40
0.2500898950526932
 40
0.3609925230599615
 40
0.4998059309286366
 40
0.5879613683027529
 40
0.7495668095377019
 40
0.8044972575935939
 40
0.857248530567178
 40
0.9075529522608585
 40
0.9551929307532401
 40
1.0
 40
1.0
 40
1.0
 40
1.0
 10
222.9999999999999
 20
42.43833218166623
 30
0.0
 10
223.0816330600844
 20
42.43748969933277
 30
0.0
 10
223.24644852499
 20
42.43578874487487
 30
0.0
 10
223.4956094139364
 20
42.42184716730169
 30
0.0
 10
223.748548431722
 20
42.39902462568286
 30
0.0
 10
224.004678118824
 20
42.36606083713905
 30
0.0
 10
224.2633509466565
 20
42.322789258661
 30
0.0
 10
224.5238618117349
 20
42.26880223077444
 30
0.0
 10
224.785453616933
 20
42.20382764560901
 30
0.0
 10
225.0473171955345
 20
42.12763838921039
 30
0.0
 10
225.3086194581845
 20
42.04007659790965
 30
0.0
 10
225.8438548140526
 20
41.83616370608763
 30
0.0
 10
226.7086503523177
 20
41.39670145288621
 30
0.0
 10
227.6417192844131
 20
40.66474272963357
 30
0.0
 10
228.5393900129899
 20
39.65669933619052
 30
0.0
 10
229.0779325790312
 20
38.73692186945658
 30
0.0
 10
229.4018158199543
 20
37.86747977009486
 30
0.0
 10
229.5476191512906
 20
37.34317791566627
 30
0.0
 10
229.6441392807899
 20
36.83378879703846
 30
0.0
 10
229.7000761262819
 20
36.34573706542055
 30
0.0
 10
229.7066948920642
 20
36.02802051779126
 30
0.0
 10
229.7099028635894
 20
35.87403023147475
 30
0.0
  0
SPLINE
  5
C8
330
1F
100
AcDbEntity
  8
0
  6
HIDDEN
 62
     7
370
    18
100
AcDbSpline
210
0.0
220
0.0
230
1.0
 70
     8
 71
     3
 72
    28
 73
    24
 74
     0
 42
0.00000001
 43
0.00000001
 40
0.0
 40
0.0
 40
0.0
 40
0.0
 40
0.0241345564698859
 40
0.0485705389162101
 40
0.0732728062176657
 40
0.0982029988984054
 40
0.1233196515618245
 40
0.1485783538759047
 40
0.1739319600749219
 40
0.1993308454810852
 40
0.2247232070247492
 40
0.2500554032270885
 40
0.3713122705971368
 40
0.4997506075256237
 40
0.617764938018328
 40
0.7495768971031247
 40
0.7708664308076204
 40
0.7968918779597323
 40
0.8277282883821889
 40
0.8634397194929374
 40
0.9040658088242598
 40
0.9496057296454194
 40
1.0
 40
1.0
 40
1.0
 40
1.0
 10
223.0
 20
29.30335837642321
 30
0.0
 10
223.084745765465
 20
29.30426665752651
 30
0.0
 10
223.2552957196204
 20
29.30609456361336
 30
0.0
 10
223.5122133252983
 20
29.32100773569875
 30
0.0
 10
223.7711558595569
 20
29.34518206527924
 30
0.0
 10
224.0313032094032
 20
29.3797178544642
 30
0.0
 10
224.2917904289812
 20
29.42451415473213
 30
0.0
 10
224.5517169741224
 20
29.47968355701151
 30
0.0
 10
224.8101596971368
 20
29.54516058213176
 30
0.0
 10
225.0661778453112
 20
29.62079716028049
 30
0.0
 10
225.3188532530382
 20
29.7063496798146
 30
0.0
 10
225.8812802037813
 20
29.92164873570606
 30
0.0
 10
226.7400753823503
 20
30.36771083872503
 30
0.0
 10
227.7471451037464
 20
31.17227549586612
 30
0.0
 10
228.5999330814515
 20
32.17777984889852
 30
0.0
 10
229.0570365900806
 20
33.00405615762888
 30
0.0
 10
229.2880210762109
 20
33.57658380328099
 30
0.0
 10
229.3793114988566
 20
33.82992412067339
 30
0.0
 10
229.4736408552807
 20
34.13446131710378
 30
0.0
 10
229.5640515849867
 20
34.49219964741868
 30
0.0
 10
229.6412389645952
 20
34.9043851275725
 30
0.0
 10
229.6982608613901
 20
35.37101965227382
 30
0.0
 10
229.7058934576258
 20
35.70079769110383
 30
0.0
 10
229.7099028635894
 20
35.87403023147474
 30
0.0
  0
SPLINE
  5
C9
330
1F
100
AcDbEntity
  8
0
  6
HIDDEN
 62
     7
370
    18
100
AcDbSpline
210
0.0
220
0.0
230
1.0
 70
     8
 71
     3
 72
    30
 73
    26
 74
     0
 42
0.00000001
 43
0.00000001
 40
0.0
 40
0.0
 40
0.0
 40
0.0
 40
0.0257988091987731
 40
0.0503966326034208
 40
0.0737792457371906
 40
0.0959372980950385
 40
0.1168656992612891
 40
0.1365630121198111
 40
0.1550308654919647
 40
0.1722733955645098
 40
0.1882967227810384
 40
0.2031084685346944
 40
0.2167173140461428
 40
0.2291326022388013
 40
0.2403639822128828
 40
0.2504210950389956
 40
0.3822668970697021
 40
0.5003189217247336
 40
0.6287880898814759
 40
0.7500849205135863
 40
0.8007778832231913
 40
0.8515001548458164
 40
0.9018471022248004
 40
0.9514533125162968
 40
1.0
 40
1.0
 40
1.0
 40
1.0
 10
216.2900971364106
 20
35.8740302304131
 30
0.0
 10
216.2911514374833
 20
35.78536629741201
 30
0.0
 10
216.2932109598203
 20
35.61216591354147
 30
0.0
 10
216.3092660708526
 20
35.35900260818492
 30
0.0
 10
216.3330684974387
 20
35.11904769520652
 30
0.0
 10
216.3640783310234
 20
34.89259011218105
 30
0.0
 10
216.4006909890738
 20
34.67978508768173
 30
0.0
 10
216.4416618842586
 20
34.48067241743212
 30
0.0
 10
216.4857643377649
 20
34.29519607336638
 30
0.0
 10
216.5318801950826
 20
34.12322252556397
 30
0.0
 10
216.5789807059888
 20
33.9645578681802
 30
0.0
 10
216.6261313183405
 20
33.81896371045153
 30
0.0
 10
216.6724891765903
 20
33.68617070645747
 30
0.0
 10
216.7172986233918
 20
33.56589311805221
 30
0.0
 10
216.7598931288564
 20
33.4578332289236
 30
0.0
 10
216.9617292765075
 20
32.97012154836543
 30
0.0
 10
217.4000457857365
 20
32.1777762525165
 30
0.0
 10
218.2530317018405
 20
31.17206681575822
 30
0.0
 10
219.260518357043
 20
30.36731458201592
 30
0.0
 10
220.1985612138357
 20
29.88019659314595
 30
0.0
 10
220.9329796325615
 20
29.61563655184338
 30
0.0
 10
221.4466558337816
 20
29.47461365894295
 30
0.0
 10
221.9663293991886
 20
29.37543163342444
 30
0.0
 10
222.4847981817353
 20
29.31447867598727
 30
0.0
 10
222.8295063914585
 20
29.30703837120103
 30
0.0
 10
223.0
 20
29.30335837642321
 30
0.0
  0
SPLINE
  5
CA
330
1F
100
AcDbEntity
  8
0
  6
HIDDEN
 62
     7
370
    18
100
AcDbSpline
210
0.0
220
0.0
230
1.0
 70
     8
 71
     3
 72
    15
 73
    11
 74
     0
 42
0.00000001
 43
0.00000001
 40
0.0
 40
0.0
 40
0.0
 40
0.0
 40
0.1465583317554564
 40
0.287097142788612
 40
0.4214998223828822
 40
0.550070506827575
 40
0.6730638938027773
 40
0.7888512796839047
 40
0.8982895510028678
 40
0.9999999999999999
 40
0.9999999999999999
 40
0.9999999999999999
 40
0.9999999999999999
 10
222.9886349114225
 20
41.72011062425133
 30
0.0
 10
223.5175849936858
 20
41.68126383128353
 30
0.0
 10
224.5537598428168
 20
41.60516578121725
 30
0.0
 10
225.9858503422704
 20
41.03943086272799
 30
0.0
 10
227.2047754783845
 20
40.23121921707738
 30
0.0
 10
228.1819963616135
 20
39.22773759889442
 30
0.0
 10
228.9087422502822
 20
38.11263634584964
 30
0.0
 10
229.3899229855274
 20
36.9518328993739
 30
0.0
 10
229.6637332415426
 20
35.80464385087028
 30
0.0
 10
229.6948932172621
 20
35.05579238314721
 30
0.0
 10
229.7099029938614
 20
34.69507023953085
 30
0.0
  0
SPLINE
  5
CB
330
1F
100
AcDbEntity
  8
0
  6
HIDDEN
 62
     7
370
    18
100
AcDbSpline
210
0.0
220
0.0
230
1.0
 70
     8
 71
     3
 72
    15
 73
    11
 74
     0
 42
0.00000001
 43
0.00000001
 40
0.0
 40
0.0
 40
0.0
 40
0.0
 40
0.1012658758658372
 40
0.2105016885598433
 40
0.3261346955660749
 40
0.4491070755299464
 40
0.5776895088133912
 40
0.7123777017735816
 40
0.8531397480276616
 40
0.9999999999999999
 40
0.9999999999999999
 40
0.9999999999999999
 40
0.9999999999999999
 10
216.2900971423015
 20
34.69510525535697
 30
0.0
 10
216.30488343945
 20
35.05335259849598
 30
0.0
 10
216.3356197609474
 20
35.79804245584485
 30
0.0
 10
216.6065601794973
 20
36.940347446701
 30
0.0
 10
217.0837277812352
 20
38.09843828640822
 30
0.0
 10
217.8059054205464
 20
39.2125406041085
 30
0.0
 10
218.7787301788315
 20
40.21761389790117
 30
0.0
 10
219.994131401394
 20
41.02919224352298
 30
0.0
 10
221.4241027898033
 20
41.59971892173881
 30
0.0
 10
222.4598045096153
 20
41.67941680177611
 30
0.0
 10
222.9886349114225
 20
41.72011062425133
 30
0.0
  0
SPLINE
  5
CC
330
1F
100
AcDbEntity
  8
0
  6
HIDDEN
 62
     7
370
    18
100
AcDbSpline
210
0.0
220
0.0
230
1.0
 70
    24
 71
     3
 72
     9
 73
     5
 74
     0
 42
0.00000001
 43
0.00000001
 40
0.0
 40
0.0
 40
0.0
 40
0.0
 40
0.3501512142683933
 40
1.0
 40
1.0
 40
1.0
 40
1.0
 10
229.7099028635894
 20
34.72426660052445
 30
0.0
 10
229.7099028635894
 20
34.85117950605704
 30
0.0
 10
229.7099028635894
 20
35.21363121366504
 30
0.0
 10
229.7099028635894
 20
35.61115516817216
 30
0.0
 10
229.7099028635894
 20
35.86948562730784
 30
0.0
  0
SPLINE
  5
CD
330
1F
100
AcDbEntity
  8
0
  6
HIDDEN
 62
     7
370
    18
100
AcDbSpline
210
0.0
220
0.0
230
1.0
 70
    24
 71
     3
 72
     9
 73
     5
 74
     0
 42
0.00000001
 43
0.00000001
 40
0.0
 40
0.0
 40
0.0
 40
0.0
 40
0.6498520969735704
 40
1.0
 40
1.0
 40
1.0
 40
1.0
 10
216.2900971364106
 20
35.86948490467346
 30
0.0
 10
216.2900971364106
 20
35.611154665953
 30
0.0
 10
216.2900971364106
 20
35.21363307615815
 30
0.0
 10
216.2900971364106
 20
34.8511835212162
 30
0.0
 10
216.2900971364106
 20
34.72427256960042
 30
0.0
  0
SPLINE
  5
CE
330
1F
100
AcDbEntity
  8
0
  6
HIDDEN
 62
     7
370
    18
100
AcDbSpline
210
0.0
220
0.0
230
1.0
 70
    24
 71
     3
 72
    43
 73
    39
 74
     0
 42
0.00000001
 43
0.00000001
 40
0.0
 40
0.0
 40
0.0
 40
0.0
 40
0.0228875958842347
 40
0.0494074133387166
 40
0.0736993926763092
 40
0.0962183690982545
 40
0.1240763840347109
 40
0.1499951342337928
 40
0.1743230396177413
 40
0.2081621041177085
 40
0.2389303084691695
 40
0.2665205982100065
 40
0.2907904338857528
 40
0.323046697795042
 40
0.3502232316435102
 40
0.3731887484340963
 40
0.3925786823470153
 40
0.4091756322363811
 40
0.4203964682804549
 40
0.4314529907226835
 40
0.4426301074052692
 40
0.4544854577559309
 40
0.4679061656411556
 40
0.4841718810063934
 40
0.5050266071603616
 40
0.5201957195840917
 40
0.5382423409041398
 40
0.5597938754243604
 40
0.5855614949444933
 40
0.6163460735075466
 40
0.6530442971386239
 40
0.6899543058690021
 40
0.7322580374990943
 40
0.7797396830968245
 40
0.8320771361231437
 40
0.8888809079789387
 40
0.9496940440532493
 40
1.0
 40
1.0
 40
1.0
 40
1.0
 10
229.7099028635894
 20
35.88637304497257
 30
0.0
 10
229.7099028635894
 20
35.99773136269896
 30
0.0
 10
229.7099028635894
 20
36.23812036906031
 30
0.0
 10
229.7099028635894
 20
36.78658893797437
 30
0.0
 10
229.7099028635894
 20
37.46670517806519
 30
0.0
 10
229.7099028635894
 20
38.30339955904113
 30
0.0
 10
229.7099028635894
 20
39.30442174765542
 30
0.0
 10
229.7099028635894
 20
40.46748612761154
 30
0.0
 10
229.7099028635894
 20
41.83108513916577
 30
0.0
 10
229.7099028635894
 20
43.37944367305895
 30
0.0
 10
229.7099028635894
 20
45.06177585787871
 30
0.0
 10
229.7099028635894
 20
46.60938565222373
 30
0.0
 10
229.7099028635893
 20
48.20725126914144
 30
0.0
 10
229.7099028635894
 20
49.81227690587975
 30
0.0
 10
229.7099028635893
 20
51.39393092365285
 30
0.0
 10
229.7099028635882
 20
52.72995678834682
 30
0.0
 10
229.70990286359
 20
53.86504131107808
 30
0.0
 10
229.7099028635905
 20
54.77673639481781
 30
0.0
 10
229.70990286359
 20
55.52980284512679
 30
0.0
 10
229.7099028635894
 20
56.17963805688935
 30
0.0
 10
229.7099028635894
 20
56.84342064776201
 30
0.0
 10
229.7099028635894
 20
57.55443170747329
 30
0.0
 10
229.7099028635894
 20
58.36531346563032
 30
0.0
 10
229.7099028635894
 20
59.35192786659559
 30
0.0
 10
229.7099028635894
 20
60.37220206575653
 30
0.0
 10
229.7099028635894
 20
61.42650060176171
 30
0.0
 10
229.7099028635894
 20
62.49370526381289
 30
0.0
 10
229.7099028635894
 20
63.76650737476488
 30
0.0
 10
229.7099028635894
 20
65.28616130041688
 30
0.0
 10
229.7099028635894
 20
67.09908251408118
 30
0.0
 10
229.7099028635894
 20
69.12700941705356
 30
0.0
 10
229.7099028635894
 20
71.37719552829596
 30
0.0
 10
229.7099028635894
 20
73.83480031722443
 30
0.0
 10
229.7099028635894
 20
76.5878996745806
 30
0.0
 10
229.7099028635894
 20
79.61619689828932
 30
0.0
 10
229.7099028635894
 20
82.89298115133559
 30
0.0
 10
229.7099028635894
 20
86.12117213106119
 30
0.0
 10
229.7099028635894
 20
88.24321853937322
 30
0.0
 10
229.7099028635894
 20
89.20391369258118
 30
0.0
  0
SPLINE
  5
CF
330
1F
100
AcDbEntity
  8
0
  6
HIDDEN
 62
     7
370
    18
100
AcDbSpline
210
0.0
220
0.0
230
1.0
 70
    24
 71
     3
 72
    43
 73
    39
 74
     0
 42
0.00000001
 43
0.00000001
 40
0.0
 40
0.0
 40
0.0
 40
0.0
 40
0.0518879214906306
 40
0.1140096693481041
 40
0.1718244429888012
 40
0.224862089458537
 40
0.2727314303409775
 40
0.3151195003013045
 40
0.3518625687275123
 40
0.3834103452003062
 40
0.4104370900963085
 40
0.4335550753447154
 40
0.4533165985621776
 40
0.4702175568673044
 40
0.4937857271596277
 40
0.5121266528411165
 40
0.5267617810154552
 40
0.5388797778242804
 40
0.5494327534987418
 40
0.560089107639786
 40
0.5718856783021333
 40
0.5883275025587479
 40
0.6096241982740721
 40
0.638070720643434
 40
0.6715114515567739
 40
0.7076681377168424
 40
0.7427823875365632
 40
0.7666901565708392
 40
0.788299094157029
 40
0.8123656741543385
 40
0.8402365156822343
 40
0.8610902364533561
 40
0.8839760226413687
 40
0.9092382841138453
 40
0.9300780899359661
 40
0.9529043194762914
 40
0.9781622744453452
 40
1.0
 40
1.0
 40
1.0
 40
1.0
 10
216.2900971364106
 20
89.20388826230949
 30
0.0
 10
216.2900971364106
 20
88.2129121463187
 30
0.0
 10
216.2900971364106
 20
86.03551023715995
 30
0.0
 10
216.2900971364106
 20
82.73168148322168
 30
0.0
 10
216.2900971364106
 20
79.395967445507
 30
0.0
 10
216.2900971364106
 20
76.3264406103287
 30
0.0
 10
216.2900971364106
 20
73.55010831715137
 30
0.0
 10
216.2900971364106
 20
71.08620937223755
 30
0.0
 10
216.2900971364106
 20
68.93738542355464
 30
0.0
 10
216.2900971364106
 20
67.08560052332177
 30
0.0
 10
216.2900971364106
 20
65.49742130616431
 30
0.0
 10
216.2900971364106
 20
64.13744316815658
 30
0.0
 10
216.2900971364106
 20
62.97366589661699
 30
0.0
 10
216.2900971364106
 20
61.80036952845475
 30
0.0
 10
216.2900971364106
 20
60.65385525942986
 30
0.0
 10
216.2900971364106
 20
59.55064035462124
 30
0.0
 10
216.2900971364106
 20
58.67041442931733
 30
0.0
 10
216.2900971364106
 20
57.94213607482632
 30
0.0
 10
216.2900971364107
 20
57.29174301289961
 30
0.0
 10
216.2900971364106
 20
56.64821293532645
 30
0.0
 10
216.2900971364108
 20
55.89128056646449
 30
0.0
 10
216.290097136412
 20
54.9304589697858
 30
0.0
 10
216.2900971364109
 20
53.65231119767704
 30
0.0
 10
216.2900971364094
 20
52.05214814805631
 30
0.0
 10
216.290097136411
 20
50.17001801267908
 30
0.0
 10
216.2900971364106
 20
48.16076567986097
 30
0.0
 10
216.2900971364106
 20
46.35408677538542
 30
0.0
 10
216.2900971364106
 20
44.85283499496555
 30
0.0
 10
216.2900971364106
 20
43.58611358396803
 30
0.0
 10
216.2900971364106
 20
42.28932458234225
 30
0.0
 10
216.2900971364106
 20
41.0708097295447
 30
0.0
 10
216.2900971364106
 20
39.95626911138242
 30
0.0
 10
216.2900971364106
 20
38.97041702471854
 30
0.0
 10
216.2900971364106
 20
38.09991745926551
 30
0.0
 10
216.2900971364106
 20
37.35297520714006
 30
0.0
 10
216.2900971364106
 20
36.73065387547351
 30
0.0
 10
216.2900971364106
 20
36.21976047779045
 30
0.0
 10
216.2900971364106
 20
35.99150329858263
 30
0.0
 10
216.2900971364106
 20
35.88566306907558
 30
0.0
  0
SPLINE
  5
D0
330
1F
100
AcDbEntity
  8
0
  6
HIDDEN
 62
     7
370
    18
100
AcDbSpline
210
0.0
220
0.0
230
1.0
 70
     8
 71
     3
 72
    21
 73
    17
 74
     0
 42
0.00000001
 43
0.00000001
 40
0.0
 40
0.0
 40
0.0
 40
0.0
 40
0.1017555547533891
 40
0.1933373955525571
 40
0.2736030901732351
 40
0.3410225935169983
 40
0.4095457453159813
 40
0.4628504851455495
 40
0.5085527325254819
 40
0.5457792468915915
 40
0.5831787689430106
 40
0.6478233324450745
 40
0.7151875489167919
 40
0.7977594800278212
 40
0.893684250829138
 40
1.0
 40
1.0
 40
1.0
 40
1.0
 10
223.3126545843174
 20
94.91038882524886
 30
0.0
 10
222.9627578096817
 20
94.90719430383288
 30
0.0
 10
222.2979476056169
 20
94.90112465532968
 30
0.0
 10
221.3530715694928
 20
94.78096062152508
 30
0.0
 10
220.5825682878205
 20
94.61369763251956
 30
0.0
 10
219.9354757372591
 20
94.40668837214744
 30
0.0
 10
219.3744894549552
 20
94.15994458153271
 30
0.0
 10
218.8785925238502
 20
93.8745717673985
 30
0.0
 10
218.505842415861
 20
93.61570368329778
 30
0.0
 10
218.1895620817474
 20
93.35965003307811
 30
0.0
 10
217.8351617225902
 20
93.02951675491725
 30
0.0
 10
217.4451799885036
 20
92.58898695548568
 30
0.0
 10
217.022987649996
 20
91.97393986774992
 30
0.0
 10
216.6461653085578
 20
91.20888569075096
 30
0.0
 10
216.3512853763388
 20
90.26349775037865
 30
0.0
 10
216.3112990459121
 20
89.56954016268449
 30
0.0
 10
216.2902786456654
 20
89.20473383782607
 30
0.0
  0
SPLINE
  5
D1
330
1F
100
AcDbEntity
  8
0
  6
HIDDEN
 62
     7
370
    18
100
AcDbSpline
210
0.0
220
0.0
230
1.0
 70
     8
 71
     3
 72
    19
 73
    15
 74
     0
 42
0.00000001
 43
0.00000001
 40
0.0
 40
0.0
 40
0.0
 40
0.0
 40
0.1357478659447175
 40
0.2502442686423406
 40
0.3417112549194332
 40
0.4301411610908649
 40
0.4742345397381728
 40
0.5196754341769007
 40
0.575606412912161
 40
0.643437638417258
 40
0.7217614073387388
 40
0.8090726050760942
 40
0.9027413265114282
 40
1.0
 40
1.0
 40
1.0
 40
1.0
 10
229.709980431792
 20
89.20596543602527
 30
0.0
 10
229.6791168730192
 20
89.6482576569041
 30
0.0
 10
229.622221476255
 20
90.46360081217028
 30
0.0
 10
229.2285339151054
 20
91.51706457760179
 30
0.0
 10
228.7452592240273
 20
92.34833755192686
 30
0.0
 10
228.2830362511418
 20
92.90887767555672
 30
0.0
 10
227.8716496043933
 20
93.30590976470819
 30
0.0
 10
227.5099338946706
 20
93.60429733217856
 30
0.0
 10
227.0925416761391
 20
93.88857439840228
 30
0.0
 10
226.571413623597
 20
94.17118832217828
 30
0.0
 10
225.9205784829664
 20
94.43827757286843
 30
0.0
 10
225.1373188688465
 20
94.66686846436856
 30
0.0
 10
224.2377177851697
 20
94.84194685200592
 30
0.0
 10
223.6248501422522
 20
94.88729065516371
 30
0.0
 10
223.3126545351315
 20
94.91038884988748
 30
0.0
  0
INSERT
  5
DD
330
1F
100
AcDbEntity
  8
10
100
AcDbBlockReference
  2
SW_CENTERMARKSYMBOL_0
 10
209.0113214423
 20
88.57655939
 30
0.0
  0
INSERT
  5
E9
330
1F
100
AcDbEntity
  8
10
100
AcDbBlockReference
  2
SW_CENTERMARKSYMBOL_1
 10
210.1406208479
 20
84.9144736642
 30
0.0
  0
INSERT
  5
F5
330
1F
100
AcDbEntity
  8
10
100
AcDbBlockReference
  2
SW_CENTERMARKSYMBOL_2
 10
235.8593791521
 20
84.9144736642
 30
0.0
  0
INSERT
  5
101
330
1F
100
AcDbEntity
  8
10
100
AcDbBlockReference
  2
SW_CENTERMARKSYMBOL_3
 10
236.9886785577
 20
88.57655939
 30
0.0
  0
ENDSEC
  0
SECTION
  2
OBJECTS
  0
DICTIONARY
  5
C
330
0
100
AcDbDictionary
281
     1
  3
ACAD_GROUP
350
D
  3
ACAD_LAYOUT
350
1A
  3
ACAD_MLINESTYLE
350
17
  3
ACAD_PLOTSETTINGS
350
19
  3
ACAD_PLOTSTYLENAME
350
E
  3
ACAD_SCALELIST
350
47
  3
DWGPROPS
350
102
  0
DICTIONARY
  5
D
102
{ACAD_REACTORS
330
C
102
}
330
C
100
AcDbDictionary
281
     1
  0
DICTIONARY
  5
1A
102
{ACAD_REACTORS
330
C
102
}
330
C
100
AcDbDictionary
281
     1
  3
Layout1
350
1E
  3
Layout2
350
26
  3
Model
350
22
  0
DICTIONARY
  5
17
102
{ACAD_REACTORS
330
C
102
}
330
C
100
AcDbDictionary
281
     1
  3
Standard
350
18
  0
DICTIONARY
  5
19
102
{ACAD_REACTORS
330
C
102
}
330
C
100
AcDbDictionary
281
     1
  0
ACDBDICTIONARYWDFLT
  5
E
102
{ACAD_REACTORS
330
C
102
}
330
C
100
AcDbDictionary
281
     1
  3
Normal
350
F
100
AcDbDictionaryWithDefault
340
F
  0
DICTIONARY
  5
47
102
{ACAD_REACTORS
330
C
102
}
330
C
100
AcDbDictionary
281
     1
  3
A0
350
48
  3
A1
350
49
  3
A2
350
4A
  3
A3
350
4B
  3
A4
350
4C
  3
A5
350
4D
  3
A6
350
4E
  3
A7
350
4F
  3
A8
350
50
  3
A9
350
51
  3
B0
350
52
  3
B1
350
53
  3
B2
350
54
  3
B3
350
55
  3
B4
350
56
  3
B5
350
57
  3
B6
350
58
  0
XRECORD
  5
102
102
{ACAD_REACTORS
330
C
102
}
330
C
100
AcDbXrecord
280
     1
  1
DWGPROPS COOKIE
  2

  3

  4

  6

  7

  8

  9

300
=
301
=
302
=
303
=
304
=
305
=
306
=
307
=
308
=
309
=
 40
0.0
 41
2461213.02516706
 42
2461213.025167465
  1

 90
        0
  0
LAYOUT
  5
1E
102
{ACAD_REACTORS
330
1A
102
}
330
1A
100
AcDbPlotSettings
  1

  2
none_device
  4

  6

 40
0.0
 41
0.0
 42
0.0
 43
0.0
 44
0.0
 45
0.0
 46
0.0
 47
0.0
 48
0.0
 49
0.0
140
0.0
141
0.0
142
1.0
143
1.0
 70
   688
 72
     1
 73
     0
 74
     5
  7

 75
    16
147
1.0
148
0.0
149
0.0
100
AcDbLayout
  1
Layout1
 70
     1
 71
     1
 10
0.0
 20
0.0
 11
420.0
 21
297.0
 12
0.0
 22
0.0
 32
0.0
 14
1.0000000000E+20
 24
1.0000000000E+20
 34
1.0000000000E+20
 15
-1.0000000000E+20
 25
-1.0000000000E+20
 35
-1.0000000000E+20
146
0.0
 13
0.0
 23
0.0
 33
0.0
 16
1.0
 26
0.0
 36
0.0
 17
0.0
 27
1.0
 37
0.0
 76
     0
330
1B
  0
LAYOUT
  5
26
102
{ACAD_REACTORS
330
1A
102
}
330
1A
100
AcDbPlotSettings
  1

  2
none_device
  4

  6

 40
0.0
 41
0.0
 42
0.0
 43
0.0
 44
0.0
 45
0.0
 46
0.0
 47
0.0
 48
0.0
 49
0.0
140
0.0
141
0.0
142
1.0
143
1.0
 70
   688
 72
     1
 73
     0
 74
     5
  7

 75
    16
147
1.0
148
0.0
149
0.0
100
AcDbLayout
  1
Layout2
 70
     1
 71
     2
 10
0.0
 20
0.0
 11
0.0
 21
0.0
 12
0.0
 22
0.0
 32
0.0
 14
0.0
 24
0.0
 34
0.0
 15
0.0
 25
0.0
 35
0.0
146
0.0
 13
0.0
 23
0.0
 33
0.0
 16
1.0
 26
0.0
 36
0.0
 17
0.0
 27
1.0
 37
0.0
 76
     0
330
23
  0
LAYOUT
  5
22
102
{ACAD_REACTORS
330
1A
102
}
330
1A
100
AcDbPlotSettings
  1

  2
none_device
  4
Letter_(8.50_x_11.00_Inches)
  6

 40
6.35
 41
6.35
 42
6.35000508
 43
6.35000508
 44
215.9
 45
279.4
 46
0.0
 47
0.0
 48
0.0
 49
0.0
140
0.0
141
0.0
142
1.0
143
1.0
 70
  1712
 72
     1
 73
     0
 74
     0
  7

 75
     0
147
1.0
148
0.0
149
0.0
100
AcDbLayout
  1
Model
 70
     1
 71
     0
 10
0.0
 20
0.0
 11
297.0
 21
210.0
 12
0.0
 22
0.0
 32
0.0
 14
0.0
 24
0.0
 34
0.0
 15
297.0
 25
210.0
 35
0.0
146
0.0
 13
0.0
 23
0.0
 33
0.0
 16
1.0
 26
0.0
 36
0.0
 17
0.0
 27
1.0
 37
0.0
 76
     0
330
1F
331
29
  0
MLINESTYLE
  5
18
102
{ACAD_REACTORS
330
17
102
}
330
17
100
AcDbMlineStyle
  2
Standard
 70
     0
  3

 62
   256
 51
90.0
 52
90.0
 71
     2
 49
0.5
 62
   256
  6
BYLAYER
 49
-0.5
 62
   256
  6
BYLAYER
  0
ACDBPLACEHOLDER
  5
F
102
{ACAD_REACTORS
330
E
102
}
330
E
  0
SCALE
  5
48
102
{ACAD_REACTORS
330
47
102
}
330
47
100
AcDbScale
 70
     0
300
1:1
140
1.0
141
1.0
290
     1
  0
SCALE
  5
49
102
{ACAD_REACTORS
330
47
102
}
330
47
100
AcDbScale
 70
     0
300
1:2
140
1.0
141
2.0
290
     0
  0
SCALE
  5
4A
102
{ACAD_REACTORS
330
47
102
}
330
47
100
AcDbScale
 70
     0
300
1:4
140
1.0
141
4.0
290
     0
  0
SCALE
  5
4B
102
{ACAD_REACTORS
330
47
102
}
330
47
100
AcDbScale
 70
     0
300
1:5
140
1.0
141
5.0
290
     0
  0
SCALE
  5
4C
102
{ACAD_REACTORS
330
47
102
}
330
47
100
AcDbScale
 70
     0
300
1:8
140
1.0
141
8.0
290
     0
  0
SCALE
  5
4D
102
{ACAD_REACTORS
330
47
102
}
330
47
100
AcDbScale
 70
     0
300
1:10
140
1.0
141
10.0
290
     0
  0
SCALE
  5
4E
102
{ACAD_REACTORS
330
47
102
}
330
47
100
AcDbScale
 70
     0
300
1:16
140
1.0
141
16.0
290
     0
  0
SCALE
  5
4F
102
{ACAD_REACTORS
330
47
102
}
330
47
100
AcDbScale
 70
     0
300
1:20
140
1.0
141
20.0
290
     0
  0
SCALE
  5
50
102
{ACAD_REACTORS
330
47
102
}
330
47
100
AcDbScale
 70
     0
300
1:30
140
1.0
141
30.0
290
     0
  0
SCALE
  5
51
102
{ACAD_REACTORS
330
47
102
}
330
47
100
AcDbScale
 70
     0
300
1:40
140
1.0
141
40.0
290
     0
  0
SCALE
  5
52
102
{ACAD_REACTORS
330
47
102
}
330
47
100
AcDbScale
 70
     0
300
1:50
140
1.0
141
50.0
290
     0
  0
SCALE
  5
53
102
{ACAD_REACTORS
330
47
102
}
330
47
100
AcDbScale
 70
     0
300
1:100
140
1.0
141
100.0
290
     0
  0
SCALE
  5
54
102
{ACAD_REACTORS
330
47
102
}
330
47
100
AcDbScale
 70
     0
300
2:1
140
2.0
141
1.0
290
     0
  0
SCALE
  5
55
102
{ACAD_REACTORS
330
47
102
}
330
47
100
AcDbScale
 70
     0
300
4:1
140
4.0
141
1.0
290
     0
  0
SCALE
  5
56
102
{ACAD_REACTORS
330
47
102
}
330
47
100
AcDbScale
 70
     0
300
8:1
140
8.0
141
1.0
290
     0
  0
SCALE
  5
57
102
{ACAD_REACTORS
330
47
102
}
330
47
100
AcDbScale
 70
     0
300
10:1
140
10.0
141
1.0
290
     0
  0
SCALE
  5
58
102
{ACAD_REACTORS
330
47
102
}
330
47
100
AcDbScale
 70
     0
300
100:1
140
100.0
141
1.0
290
     0
  0
ENDSEC
  0
EOF
