  0
SECTION
  2
HEADER
  9
$ACADVER
  1
AC1015
  9
$ACADMAINTVER
 70
     6
  9
$DWGCODEPAGE
  3
ANSI_936
  9
$INSBASE
 10
0.0
 20
0.0
 30
0.0
  9
$EXTMIN
 10
0.0
 20
0.0
 30
0.0
  9
$EXTMAX
 10
297.0
 20
210.0
 30
0.0
  9
$LIMMIN
 10
0.0
 20
0.0
  9
$LIMMAX
 10
297.0
 20
210.0
  9
$ORTHOMODE
 70
     0
  9
$REGENMODE
 70
     1
  9
$FILLMODE
 70
     1
  9
$QTEXTMODE
 70
     0
  9
$MIRRTEXT
 70
     1
  9
$LTSCALE
 40
1.0
  9
$ATTMODE
 70
     1
  9
$TEXTSIZE
 40
3.5
  9
$TRACEWID
 40
1.0
  9
$TEXTSTYLE
  7
Standard
  9
$CLAYER
  8
0
  9
$CELTYPE
  6
ByLayer
  9
$CECOLOR
 62
   256
  9
$CELTSCALE
 40
1.0
  9
$DISPSILH
 70
     0
  9
$DIMSCALE
 40
1.0
  9
$DIMASZ
 40
4.08
  9
$DIMEXO
 40
0.0
  9
$DIMDLI
 40
3.75
  9
$DIMRND
 40
0.0
  9
$DIMDLE
 40
0.0
  9
$DIMEXE
 40
2.0
  9
$DIMTP
 40
0.0
  9
$DIMTM
 40
0.0
  9
$DIMTXT
 40
3.5
  9
$DIMCEN
 40
2.5
  9
$DIMTSZ
 40
0.0
  9
$DIMTOL
 70
     0
  9
$DIMLIM
 70
     0
  9
$DIMTIH
 70
     1
  9
$DIMTOH
 70
     1
  9
$DIMSE1
 70
     0
  9
$DIMSE2
 70
     0
  9
$DIMTAD
 70
     1
  9
$DIMZIN
 70
     0
  9
$DIMBLK
  1

  9
$DIMASO
 70
     1
  9
$DIMSHO
 70
     1
  9
$DIMPOST
  1

  9
$DIMAPOST
  1

  9
$DIMALT
 70
     0
  9
$DIMALTD
 70
     3
  9
$DIMALTF
 40
0.0393700787
  9
$DIMLFAC
 40
2.0
  9
$DIMTOFL
 70
     1
  9
$DIMTVP
 40
0.0
  9
$DIMTIX
 70
     0
  9
$DIMSOXD
 70
     0
  9
$DIMSAH
 70
     0
  9
$DIMBLK1
  1

  9
$DIMBLK2
  1

  9
$DIMSTYLE
  2
ISO-25
  9
$DIMCLRD
 70
     0
  9
$DIMCLRE
 70
     0
  9
$DIMCLRT
 70
     0
  9
$DIMTFAC
 40
1.0
  9
$DIMGAP
 40
1.524
  9
$DIMJUST
 70
     0
  9
$DIMSD1
 70
     0
  9
$DIMSD2
 70
     0
  9
$DIMTOLJ
 70
     0
  9
$DIMTZIN
 70
     0
  9
$DIMALTZ
 70
     0
  9
$DIMALTTZ
 70
     0
  9
$DIMUPT
 70
     0
  9
$DIMDEC
 70
     2
  9
$DIMTDEC
 70
     2
  9
$DIMALTU
 70
     2
  9
$DIMALTTD
 70
     3
  9
$DIMTXSTY
  7
Standard
  9
$DIMAUNIT
 70
     0
  9
$DIMADEC
 70
     2
  9
$DIMALTRND
 40
0.0
  9
$DIMAZIN
 70
     0
  9
$DIMDSEP
 70
    44
  9
$DIMATFIT
 70
     3
  9
$DIMFRAC
 70
     0
  9
$DIMLDRBLK
  1

  9
$DIMLUNIT
 70
     2
  9
$DIMLWD
 70
    -2
  9
$DIMLWE
 70
    -2
  9
$DIMTMOVE
 70
     0
  9
$LUNITS
 70
     2
  9
$LUPREC
 70
     2
  9
$SKETCHINC
 40
1.0
  9
$FILLETRAD
 40
0.0
  9
$AUNITS
 70
     0
  9
$AUPREC
 70
     2
  9
$MENU
  1
.
  9
$ELEVATION
 40
0.0
  9
$PELEVATION
 40
0.0
  9
$THICKNESS
 40
0.0
  9
$LIMCHECK
 70
     0
  9
$CHAMFERA
 40
0.0
  9
$CHAMFERB
 40
0.0
  9
$CHAMFERC
 40
0.0
  9
$CHAMFERD
 40
0.0
  9
$SKPOLY
 70
     0
  9
$TDCREATE
 40
2461215.63250294
  9
$TDUCREATE
 40
2461215.299169607
  9
$TDUPDATE
 40
2461215.632503611
  9
$TDUUPDATE
 40
2461215.299170278
  9
$TDINDWG
 40
0.0000000116
  9
$TDUSRTIMER
 40
0.0000000116
  9
$USRTIMER
 70
     1
  9
$ANGBASE
 50
0.0
  9
$ANGDIR
 70
     0
  9
$PDMODE
 70
     0
  9
$PDSIZE
 40
-1.0
  9
$PLINEWID
 40
0.0
  9
$SPLFRAME
 70
     0
  9
$SPLINETYPE
 70
     6
  9
$SPLINESEGS
 70
     8
  9
$HANDSEED
  5
11A
  9
$SURFTAB1
 70
     6
  9
$SURFTAB2
 70
     6
  9
$SURFTYPE
 70
     6
  9
$SURFU
 70
     6
  9
$SURFV
 70
     6
  9
$UCSBASE
  2

  9
$UCSNAME
  2

  9
$UCSORG
 10
0.0
 20
0.0
 30
0.0
  9
$UCSXDIR
 10
1.0
 20
0.0
 30
0.0
  9
$UCSYDIR
 10
0.0
 20
1.0
 30
0.0
  9
$UCSORTHOREF
  2

  9
$UCSORTHOVIEW
 70
     0
  9
$UCSORGTOP
 10
0.0
 20
0.0
 30
0.0
  9
$UCSORGBOTTOM
 10
0.0
 20
0.0
 30
0.0
  9
$UCSORGLEFT
 10
0.0
 20
0.0
 30
0.0
  9
$UCSORGRIGHT
 10
0.0
 20
0.0
 30
0.0
  9
$UCSORGFRONT
 10
0.0
 20
0.0
 30
0.0
  9
$UCSORGBACK
 10
0.0
 20
0.0
 30
0.0
  9
$PUCSBASE
  2

  9
$PUCSNAME
  2

  9
$PUCSORG
 10
0.0
 20
0.0
 30
0.0
  9
$PUCSXDIR
 10
1.0
 20
0.0
 30
0.0
  9
$PUCSYDIR
 10
0.0
 20
1.0
 30
0.0
  9
$PUCSORTHOREF
  2

  9
$PUCSORTHOVIEW
 70
     0
  9
$PUCSORGTOP
 10
0.0
 20
0.0
 30
0.0
  9
$PUCSORGBOTTOM
 10
0.0
 20
0.0
 30
0.0
  9
$PUCSORGLEFT
 10
0.0
 20
0.0
 30
0.0
  9
$PUCSORGRIGHT
 10
0.0
 20
0.0
 30
0.0
  9
$PUCSORGFRONT
 10
0.0
 20
0.0
 30
0.0
  9
$PUCSORGBACK
 10
0.0
 20
0.0
 30
0.0
  9
$USERI1
 70
     0
  9
$USERI2
 70
     0
  9
$USERI3
 70
     0
  9
$USERI4
 70
     0
  9
$USERI5
 70
     0
  9
$USERR1
 40
0.0
  9
$USERR2
 40
0.0
  9
$USERR3
 40
0.0
  9
$USERR4
 40
0.0
  9
$USERR5
 40
0.0
  9
$WORLDVIEW
 70
     1
  9
$SHADEDGE
 70
     3
  9
$SHADEDIF
 70
    70
  9
$TILEMODE
 70
     1
  9
$MAXACTVP
 70
    64
  9
$PINSBASE
 10
0.0
 20
0.0
 30
0.0
  9
$PLIMCHECK
 70
     0
  9
$PEXTMIN
 10
1.0000000000E+20
 20
1.0000000000E+20
 30
1.0000000000E+20
  9
$PEXTMAX
 10
-1.0000000000E+20
 20
-1.0000000000E+20
 30
-1.0000000000E+20
  9
$PLIMMIN
 10
0.0
 20
0.0
  9
$PLIMMAX
 10
420.0
 20
297.0
  9
$UNITMODE
 70
     0
  9
$VISRETAIN
 70
     1
  9
$PLINEGEN
 70
     0
  9
$PSLTSCALE
 70
     1
  9
$TREEDEPTH
 70
  3020
  9
$CMLSTYLE
  2
Standard
  9
$CMLJUST
 70
     0
  9
$CMLSCALE
 40
20.0
  9
$PROXYGRAPHICS
 70
     1
  9
$MEASUREMENT
 70
     1
  9
$CELWEIGHT
370
    -1
  9
$ENDCAPS
280
     0
  9
$JOINSTYLE
280
     0
  9
$LWDISPLAY
290
     1
  9
$INSUNITS
 70
     4
  9
$HYPERLINKBASE
  1

  9
$STYLESHEET
  1

  9
$XEDIT
290
     1
  9
$CEPSNTYPE
380
     0
  9
$PSTYLEMODE
290
     1
  9
$FINGERPRINTGUID
  2
{730397cb-d89d-4303-8cfb-6b3453f25351}
  9
$VERSIONGUID
  2
{FAEB1C32-E019-11D5-929B-00C0DF256EC4}
  9
$EXTNAMES
290
     1
  9
$PSVPSCALE
 40
0.0
  9
$OLESTARTUP
290
     0
  0
ENDSEC
  0
SECTION
  2
CLASSES
  0
CLASS
  1
ACDBDICTIONARYWDFLT
  2
AcDbDictionaryWithDefault
  3
ObjectDBX Classes
 90
        0
280
     0
281
     0
  0
CLASS
  1
VISUALSTYLE
  2
AcDbVisualStyle
  3
ObjectDBX Classes
 90
     4095
280
     0
281
     0
  0
CLASS
  1
MATERIAL
  2
AcDbMaterial
  3
ObjectDBX Classes
 90
     1153
280
     0
281
     0
  0
CLASS
  1
SCALE
  2
AcDbScale
  3
ObjectDBX Classes
 90
     1153
280
     0
281
     0
  0
CLASS
  1
TABLESTYLE
  2
AcDbTableStyle
  3
ObjectDBX Classes
 90
     4095
280
     0
281
     0
  0
CLASS
  1
MLEADERSTYLE
  2
AcDbMLeaderStyle
  3
ACDB_MLEADERSTYLE_CLASS
 90
     4095
280
     0
281
     0
  0
CLASS
  1
SUN
  2
AcDbSun
  3
SCENEOE
 90
     1153
280
     0
281
     0
  0
CLASS
  1
ACDBPLACEHOLDER
  2
AcDbPlaceHolder
  3
ObjectDBX Classes
 90
        0
280
     0
281
     0
  0
CLASS
  1
LAYOUT
  2
AcDbLayout
  3
ObjectDBX Classes
 90
        0
280
     0
281
     0
  0
ENDSEC
  0
SECTION
  2
TABLES
  0
TABLE
  2
VPORT
  5
8
330
0
100
AcDbSymbolTable
 70
     1
  0
VPORT
  5
29
330
8
100
AcDbSymbolTableRecord
100
AcDbViewportTableRecord
  2
*Active
 70
     0
 10
0.0
 20
0.0
 11
1.0
 21
1.0
 12
148.5
 22
105.0
 13
0.0
 23
0.0
 14
10.0
 24
10.0
 15
10.0
 25
10.0
 16
0.0
 26
0.0
 36
1.0
 17
0.0
 27
0.0
 37
0.0
 40
210.0
 41
1.4142857143
 42
50.0
 43
0.0
 44
0.0
 50
0.0
 51
0.0
 71
     0
 72
  2000
 73
     1
 74
     3
 75
     0
 76
     0
 77
     0
 78
     0
281
     0
 65
     1
110
0.0
120
0.0
130
0.0
111
1.0
121
0.0
131
0.0
112
0.0
122
1.0
132
0.0
 79
     0
146
0.0
  0
ENDTAB
  0
TABLE
  2
LTYPE
  5
5
330
0
100
AcDbSymbolTable
 70
     6
  0
LTYPE
  5
14
330
5
100
AcDbSymbolTableRecord
100
AcDbLinetypeTableRecord
  2
ByBlock
 70
     0
  3

 72
    65
 73
     0
 40
0.0
  0
LTYPE
  5
15
330
5
100
AcDbSymbolTableRecord
100
AcDbLinetypeTableRecord
  2
ByLayer
 70
     0
  3

 72
    65
 73
     0
 40
0.0
  0
LTYPE
  5
16
330
5
100
AcDbSymbolTableRecord
100
AcDbLinetypeTableRecord
  2
Continuous
 70
     0
  3
Solid line
 72
    65
 73
     0
 40
0.0
  0
LTYPE
  5
5E
330
5
100
AcDbSymbolTableRecord
100
AcDbLinetypeTableRecord
  2
HIDDEN
 70
     0
  3
Hidden __ __ __ __ __ __ __ __ __ __ __ __ __ __
 72
    65
 73
     2
 40
1.905
 49
1.27
 74
     0
 49
-0.635
 74
     0
  0
LTYPE
  5
5F
330
5
100
AcDbSymbolTableRecord
100
AcDbLinetypeTableRecord
  2
PHANTOM
 70
     0
  3
Phantom ______  __  __  ______  __  __  ______
 72
    65
 73
     6
 40
12.7
 49
6.35
 74
     0
 49
-1.27
 74
     0
 49
1.27
 74
     0
 49
-1.27
 74
     0
 49
1.27
 74
     0
 49
-1.27
 74
     0
  0
LTYPE
  5
60
330
5
100
AcDbSymbolTableRecord
100
AcDbLinetypeTableRecord
  2
CENTER
 70
     0
  3
Center ____ _ ____ _ ____ _ ____ _ ____ _ ____
 72
    65
 73
     4
 40
10.16
 49
6.35
 74
     0
 49
-1.27
 74
     0
 49
1.27
 74
     0
 49
-1.27
 74
     0
  0
LTYPE
  5
61
330
5
100
AcDbSymbolTableRecord
100
AcDbLinetypeTableRecord
  2
CENTERX2
 70
     0
  3
Center (2x) ________  __  ________  __  _____
 72
    65
 73
     4
 40
20.32
 49
12.7
 74
     0
 49
-2.54
 74
     0
 49
2.54
 74
     0
 49
-2.54
 74
     0
  0
LTYPE
  5
62
330
5
100
AcDbSymbolTableRecord
100
AcDbLinetypeTableRecord
  2
DOT2
 70
     0
  3
Dot (.5x) ........................................
 72
    65
 73
     2
 40
0.635
 49
0.0
 74
     0
 49
-0.635
 74
     0
  0
ENDTAB
  0
TABLE
  2
LAYER
  5
2
330
0
100
AcDbSymbolTable
 70
    14
  0
LAYER
  5
10
330
2
100
AcDbSymbolTableRecord
100
AcDbLayerTableRecord
  2
0
 70
     0
 62
     7
  6
Continuous
370
    -3
390
F
  0
LAYER
  5
63
330
2
100
AcDbSymbolTableRecord
100
AcDbLayerTableRecord
  2
SLD-0
 70
     0
 62
     7
  6
Continuous
370
    -3
390
F
  0
LAYER
  5
64
330
2
100
AcDbSymbolTableRecord
100
AcDbLayerTableRecord
  2
5
 70
     0
 62
     7
  6
Continuous
370
    -3
390
F
  0
LAYER
  5
65
330
2
100
AcDbSymbolTableRecord
100
AcDbLayerTableRecord
  2
9
 70
     0
 62
     7
  6
Continuous
370
    -3
390
F
  0
LAYER
  5
66
330
2
100
AcDbSymbolTableRecord
100
AcDbLayerTableRecord
  2
10
 70
     0
 62
     7
  6
Continuous
370
    -3
390
F
  0
LAYER
  5
67
330
2
100
AcDbSymbolTableRecord
100
AcDbLayerTableRecord
  2
轮廓实线层
 70
     0
 62
     7
  6
Continuous
370
    50
390
F
  0
LAYER
  5
68
330
2
100
AcDbSymbolTableRecord
100
AcDbLayerTableRecord
  2
细线层
 70
     0
 62
     4
  6
Continuous
370
    25
390
F
  0
LAYER
  5
69
330
2
100
AcDbSymbolTableRecord
100
AcDbLayerTableRecord
  2
中心线层
 70
     0
 62
     1
  6
CENTERX2
370
    25
390
F
  0
LAYER
  5
6A
330
2
100
AcDbSymbolTableRecord
100
AcDbLayerTableRecord
  2
虚线层
 70
     0
 62
     6
  6
HIDDEN
370
    25
390
F
  0
LAYER
  5
6B
330
2
100
AcDbSymbolTableRecord
100
AcDbLayerTableRecord
  2
剖面线层
 70
     0
 62
     2
  6
Continuous
370
    25
390
F
  0
LAYER
  5
6C
330
2
100
AcDbSymbolTableRecord
100
AcDbLayerTableRecord
  2
文字层
 70
     0
 62
     3
  6
Continuous
370
    25
390
F
  0
LAYER
  5
6D
330
2
100
AcDbSymbolTableRecord
100
AcDbLayerTableRecord
  2
标注层
 70
     0
 62
     4
  6
Continuous
370
    25
390
F
  0
LAYER
  5
6E
330
2
100
AcDbSymbolTableRecord
100
AcDbLayerTableRecord
  2
符号标注层
 70
     0
 62
    31
  6
Continuous
370
    25
390
F
  0
LAYER
  5
6F
330
2
100
AcDbSymbolTableRecord
100
AcDbLayerTableRecord
  2
双点划线层
 70
     0
 62
     6
  6
PHANTOM
370
    25
390
F
  0
ENDTAB
  0
TABLE
  2
STYLE
  5
3
330
0
100
AcDbSymbolTable
 70
     1
  0
STYLE
  5
11
330
3
100
AcDbSymbolTableRecord
100
AcDbTextStyleTableRecord
  2
Standard
 70
     0
 40
0.0
 41
1.0
 50
0.0
 71
     0
 42
3.5
  3
txt
  4

  0
ENDTAB
  0
TABLE
  2
VIEW
  5
6
330
0
100
AcDbSymbolTable
 70
     0
  0
ENDTAB
  0
TABLE
  2
UCS
  5
7
330
0
100
AcDbSymbolTable
 70
     0
  0
ENDTAB
  0
TABLE
  2
APPID
  5
9
330
0
100
AcDbSymbolTable
 70
     1
  0
APPID
  5
12
330
9
100
AcDbSymbolTableRecord
100
AcDbRegAppTableRecord
  2
ACAD
 70
     0
  0
ENDTAB
  0
TABLE
  2
DIMSTYLE
  5
A
330
0
100
AcDbSymbolTable
 70
     1
100
AcDbDimStyleTable
  0
DIMSTYLE
105
27
330
A
100
AcDbSymbolTableRecord
100
AcDbDimStyleTableRecord
  2
ISO-25
 70
     0
 41
2.5
 42
0.625
 43
3.75
 44
1.25
 73
     0
 74
     0
 77
     1
 78
     8
140
2.5
141
2.5
143
0.0393700787
147
0.625
171
     3
172
     1
178
     0
271
     2
272
     2
274
     3
278
    44
283
     0
284
     8
340
11
  0
ENDTAB
  0
TABLE
  2
BLOCK_RECORD
  5
1
330
0
100
AcDbSymbolTable
 70
     6
  0
BLOCK_RECORD
  5
1F
330
1
100
AcDbSymbolTableRecord
100
AcDbBlockTableRecord
  2
*Model_Space
340
22
  0
BLOCK_RECORD
  5
1B
330
1
100
AcDbSymbolTableRecord
100
AcDbBlockTableRecord
  2
*Paper_Space
340
1E
  0
BLOCK_RECORD
  5
23
330
1
100
AcDbSymbolTableRecord
100
AcDbBlockTableRecord
  2
*Paper_Space0
340
26
  0
BLOCK_RECORD
  5
B0
330
1
100
AcDbSymbolTableRecord
100
AcDbBlockTableRecord
  2
SW_CENTERMARKSYMBOL_0
340
0
102
{BLKREFS
331
BB
102
}
  0
BLOCK_RECORD
  5
BC
330
1
100
AcDbSymbolTableRecord
100
AcDbBlockTableRecord
  2
SW_CENTERMARKSYMBOL_1
340
0
102
{BLKREFS
331
C7
102
}
  0
BLOCK_RECORD
  5
C8
330
1
100
AcDbSymbolTableRecord
100
AcDbBlockTableRecord
  2
SW_CENTERMARKSYMBOL_2
340
0
102
{BLKREFS
331
D3
102
}
  0
BLOCK_RECORD
  5
D4
330
1
100
AcDbSymbolTableRecord
100
AcDbBlockTableRecord
  2
SW_CENTERMARKSYMBOL_3
340
0
102
{BLKREFS
331
DF
102
}
  0
BLOCK_RECORD
  5
E0
330
1
100
AcDbSymbolTableRecord
100
AcDbBlockTableRecord
  2
SW_CENTERMARKSYMBOL_4
340
0
102
{BLKREFS
331
EB
102
}
  0
ENDTAB
  0
ENDSEC
  0
SECTION
  2
BLOCKS
  0
BLOCK
  5
20
330
1F
100
AcDbEntity
  8
0
100
AcDbBlockBegin
  2
*Model_Space
 70
     0
 10
0.0
 20
0.0
 30
0.0
  3
*Model_Space
  1

  0
ENDBLK
  5
21
330
1F
100
AcDbEntity
  8
0
100
AcDbBlockEnd
  0
BLOCK
  5
1C
330
1B
100
AcDbEntity
 67
     1
  8
0
100
AcDbBlockBegin
  2
*Paper_Space
 70
     0
 10
0.0
 20
0.0
 30
0.0
  3
*Paper_Space
  1

  0
ENDBLK
  5
1D
330
1B
100
AcDbEntity
 67
     1
  8
0
100
AcDbBlockEnd
  0
BLOCK
  5
24
330
23
100
AcDbEntity
  8
0
100
AcDbBlockBegin
  2
*Paper_Space0
 70
     0
 10
0.0
 20
0.0
 30
0.0
  3
*Paper_Space0
  1

  0
ENDBLK
  5
25
330
23
100
AcDbEntity
  8
0
100
AcDbBlockEnd
  0
BLOCK
  5
B1
330
B0
100
AcDbEntity
  8
0
100
AcDbBlockBegin
  2
SW_CENTERMARKSYMBOL_0
 70
     0
 10
0.0
 20
0.0
 30
0.0
  3
SW_CENTERMARKSYMBOL_0
  1

  0
LINE
  5
B3
330
B0
100
AcDbEntity
  8
10
 62
     0
100
AcDbLine
 10
0.0
 20
0.0
 30
0.0
 11
0.0
 21
2.5
 31
0.0
  0
LINE
  5
B4
330
B0
100
AcDbEntity
  8
10
 62
     0
100
AcDbLine
 10
0.0
 20
0.0
 30
0.0
 11
-2.5
 21
0.0
 31
0.0
  0
LINE
  5
B5
330
B0
100
AcDbEntity
  8
10
 62
     0
100
AcDbLine
 10
0.0
 20
0.0
 30
0.0
 11
0.0
 21
-2.5
 31
0.0
  0
LINE
  5
B6
330
B0
100
AcDbEntity
  8
10
 62
     0
100
AcDbLine
 10
0.0
 20
0.0
 30
0.0
 11
2.5
 21
0.0
 31
0.0
  0
LINE
  5
B7
330
B0
100
AcDbEntity
  8
10
 62
     0
100
AcDbLine
 10
0.0
 20
5.0
 30
0.0
 11
0.0
 21
8.7499999659
 31
0.0
  0
LINE
  5
B8
330
B0
100
AcDbEntity
  8
10
 62
     0
100
AcDbLine
 10
-5.0
 20
0.0
 30
0.0
 11
-8.7499999659
 21
0.0
 31
0.0
  0
LINE
  5
B9
330
B0
100
AcDbEntity
  8
10
 62
     0
100
AcDbLine
 10
0.0
 20
-5.0
 30
0.0
 11
0.0
 21
-8.7499999659
 31
0.0
  0
LINE
  5
BA
330
B0
100
AcDbEntity
  8
10
 62
     0
100
AcDbLine
 10
5.0
 20
0.0
 30
0.0
 11
8.7499999659
 21
0.0
 31
0.0
  0
ENDBLK
  5
B2
330
B0
100
AcDbEntity
  8
0
100
AcDbBlockEnd
  0
BLOCK
  5
BD
330
BC
100
AcDbEntity
  8
0
100
AcDbBlockBegin
  2
SW_CENTERMARKSYMBOL_1
 70
     0
 10
0.0
 20
0.0
 30
0.0
  3
SW_CENTERMARKSYMBOL_1
  1

  0
LINE
  5
BF
330
BC
100
AcDbEntity
  8
10
 62
     0
100
AcDbLine
 10
0.0
 20
0.0
 30
0.0
 11
0.0
 21
2.5
 31
0.0
  0
LINE
  5
C0
330
BC
100
AcDbEntity
  8
10
 62
     0
100
AcDbLine
 10
0.0
 20
0.0
 30
0.0
 11
-2.5
 21
0.0
 31
0.0
  0
LINE
  5
C1
330
BC
100
AcDbEntity
  8
10
 62
     0
100
AcDbLine
 10
0.0
 20
0.0
 30
0.0
 11
0.0
 21
-2.5
 31
0.0
  0
LINE
  5
C2
330
BC
100
AcDbEntity
  8
10
 62
     0
100
AcDbLine
 10
0.0
 20
0.0
 30
0.0
 11
2.5
 21
0.0
 31
0.0
  0
LINE
  5
C3
330
BC
100
AcDbEntity
  8
10
 62
     0
100
AcDbLine
 10
0.0
 20
5.0
 30
0.0
 11
0.0
 21
8.7499999659
 31
0.0
  0
LINE
  5
C4
330
BC
100
AcDbEntity
  8
10
 62
     0
100
AcDbLine
 10
-5.0
 20
0.0
 30
0.0
 11
-8.7499999659
 21
0.0
 31
0.0
  0
LINE
  5
C5
330
BC
100
AcDbEntity
  8
10
 62
     0
100
AcDbLine
 10
0.0
 20
-5.0
 30
0.0
 11
0.0
 21
-8.7499999659
 31
0.0
  0
LINE
  5
C6
330
BC
100
AcDbEntity
  8
10
 62
     0
100
AcDbLine
 10
5.0
 20
0.0
 30
0.0
 11
8.7499999659
 21
0.0
 31
0.0
  0
ENDBLK
  5
BE
330
BC
100
AcDbEntity
  8
0
100
AcDbBlockEnd
  0
BLOCK
  5
C9
330
C8
100
AcDbEntity
  8
0
100
AcDbBlockBegin
  2
SW_CENTERMARKSYMBOL_2
 70
     0
 10
0.0
 20
0.0
 30
0.0
  3
SW_CENTERMARKSYMBOL_2
  1

  0
LINE
  5
CB
330
C8
100
AcDbEntity
  8
10
 62
     0
100
AcDbLine
 10
0.0
 20
0.0
 30
0.0
 11
0.0
 21
2.5
 31
0.0
  0
LINE
  5
CC
330
C8
100
AcDbEntity
  8
10
 62
     0
100
AcDbLine
 10
0.0
 20
0.0
 30
0.0
 11
-2.5
 21
0.0
 31
0.0
  0
LINE
  5
CD
330
C8
100
AcDbEntity
  8
10
 62
     0
100
AcDbLine
 10
0.0
 20
0.0
 30
0.0
 11
0.0
 21
-2.5
 31
0.0
  0
LINE
  5
CE
330
C8
100
AcDbEntity
  8
10
 62
     0
100
AcDbLine
 10
0.0
 20
0.0
 30
0.0
 11
2.5
 21
0.0
 31
0.0
  0
LINE
  5
CF
330
C8
100
AcDbEntity
  8
10
 62
     0
100
AcDbLine
 10
0.0
 20
5.0
 30
0.0
 11
0.0
 21
8.7499999659
 31
0.0
  0
LINE
  5
D0
330
C8
100
AcDbEntity
  8
10
 62
     0
100
AcDbLine
 10
-5.0
 20
0.0
 30
0.0
 11
-8.7499999659
 21
0.0
 31
0.0
  0
LINE
  5
D1
330
C8
100
AcDbEntity
  8
10
 62
     0
100
AcDbLine
 10
0.0
 20
-5.0
 30
0.0
 11
0.0
 21
-8.7499999659
 31
0.0
  0
LINE
  5
D2
330
C8
100
AcDbEntity
  8
10
 62
     0
100
AcDbLine
 10
5.0
 20
0.0
 30
0.0
 11
8.7499999659
 21
0.0
 31
0.0
  0
ENDBLK
  5
CA
330
C8
100
AcDbEntity
  8
0
100
AcDbBlockEnd
  0
BLOCK
  5
D5
330
D4
100
AcDbEntity
  8
0
100
AcDbBlockBegin
  2
SW_CENTERMARKSYMBOL_3
 70
     0
 10
0.0
 20
0.0
 30
0.0
  3
SW_CENTERMARKSYMBOL_3
  1

  0
LINE
  5
D7
330
D4
100
AcDbEntity
  8
10
 62
     0
100
AcDbLine
 10
0.0
 20
0.0
 30
0.0
 11
0.0
 21
2.5
 31
0.0
  0
LINE
  5
D8
330
D4
100
AcDbEntity
  8
10
 62
     0
100
AcDbLine
 10
0.0
 20
0.0
 30
0.0
 11
-2.5
 21
0.0
 31
0.0
  0
LINE
  5
D9
330
D4
100
AcDbEntity
  8
10
 62
     0
100
AcDbLine
 10
0.0
 20
0.0
 30
0.0
 11
0.0
 21
-2.5
 31
0.0
  0
LINE
  5
DA
330
D4
100
AcDbEntity
  8
10
 62
     0
100
AcDbLine
 10
0.0
 20
0.0
 30
0.0
 11
2.5
 21
0.0
 31
0.0
  0
LINE
  5
DB
330
D4
100
AcDbEntity
  8
10
 62
     0
100
AcDbLine
 10
0.0
 20
5.0
 30
0.0
 11
0.0
 21
8.7499999659
 31
0.0
  0
LINE
  5
DC
330
D4
100
AcDbEntity
  8
10
 62
     0
100
AcDbLine
 10
-5.0
 20
0.0
 30
0.0
 11
-8.7499999659
 21
0.0
 31
0.0
  0
LINE
  5
DD
330
D4
100
AcDbEntity
  8
10
 62
     0
100
AcDbLine
 10
0.0
 20
-5.0
 30
0.0
 11
0.0
 21
-8.7499999659
 31
0.0
  0
LINE
  5
DE
330
D4
100
AcDbEntity
  8
10
 62
     0
100
AcDbLine
 10
5.0
 20
0.0
 30
0.0
 11
8.7499999659
 21
0.0
 31
0.0
  0
ENDBLK
  5
D6
330
D4
100
AcDbEntity
  8
0
100
AcDbBlockEnd
  0
BLOCK
  5
E1
330
E0
100
AcDbEntity
  8
0
100
AcDbBlockBegin
  2
SW_CENTERMARKSYMBOL_4
 70
     0
 10
0.0
 20
0.0
 30
0.0
  3
SW_CENTERMARKSYMBOL_4
  1

  0
LINE
  5
E3
330
E0
100
AcDbEntity
  8
10
 62
     0
100
AcDbLine
 10
0.0
 20
0.0
 30
0.0
 11
0.0
 21
2.5
 31
0.0
  0
LINE
  5
E4
330
E0
100
AcDbEntity
  8
10
 62
     0
100
AcDbLine
 10
0.0
 20
0.0
 30
0.0
 11
-2.5
 21
0.0
 31
0.0
  0
LINE
  5
E5
330
E0
100
AcDbEntity
  8
10
 62
     0
100
AcDbLine
 10
0.0
 20
0.0
 30
0.0
 11
0.0
 21
-2.5
 31
0.0
  0
LINE
  5
E6
330
E0
100
AcDbEntity
  8
10
 62
     0
100
AcDbLine
 10
0.0
 20
0.0
 30
0.0
 11
2.5
 21
0.0
 31
0.0
  0
LINE
  5
E7
330
E0
100
AcDbEntity
  8
10
 62
     0
100
AcDbLine
 10
0.0
 20
5.0
 30
0.0
 11
0.0
 21
25.9374998723
 31
0.0
  0
LINE
  5
E8
330
E0
100
AcDbEntity
  8
10
 62
     0
100
AcDbLine
 10
-5.0
 20
0.0
 30
0.0
 11
-25.9374998723
 21
0.0
 31
0.0
  0
LINE
  5
E9
330
E0
100
AcDbEntity
  8
10
 62
     0
100
AcDbLine
 10
0.0
 20
-5.0
 30
0.0
 11
0.0
 21
-25.9374998723
 31
0.0
  0
LINE
  5
EA
330
E0
100
AcDbEntity
  8
10
 62
     0
100
AcDbLine
 10
5.0
 20
0.0
 30
0.0
 11
25.9374998723
 21
0.0
 31
0.0
  0
ENDBLK
  5
E2
330
E0
100
AcDbEntity
  8
0
100
AcDbBlockEnd
  0
ENDSEC
  0
SECTION
  2
ENTITIES
  0
ARC
  5
70
330
1F
100
AcDbEntity
  8
0
  6
Continuous
 62
     7
370
    25
100
AcDbCircle
 10
82.9999997275
 20
31.9698600861
 30
0.0
 40
26.95312485309793
100
AcDbArc
 50
13.4209952243
 51
166.5790047757
  0
SPLINE
  5
71
330
1F
100
AcDbEntity
  8
0
  6
Continuous
 62
     7
370
    25
100
AcDbSpline
210
0.0
220
0.0
230
1.0
 70
    24
 71
     3
 72
    20
 73
    16
 74
     0
 42
0.00000001
 43
0.00000001
 40
0.0
 40
0.0
 40
0.0
 40
0.0
 40
0.1249999999999996
 40
0.1249999999999996
 40
0.2499999999999992
 40
0.2499999999999992
 40
0.3749999999999988
 40
0.3749999999999988
 40
0.4999999999999984
 40
0.4999999999999984
 40
0.624999999999998
 40
0.624999999999998
 40
0.7499999999999977
 40
0.7499999999999977
 40
1.0
 40
1.0
 40
1.0
 40
1.0
 10
53.57965234550691
 20
38.22579755199637
 30
0.0
 10
53.78852254805358
 20
38.22579755199637
 30
0.0
 10
53.99402216025594
 20
38.22579755199637
 30
0.0
 10
54.39855922939872
 20
38.22579755199637
 30
0.0
 10
54.5994952042162
 20
38.22579755199637
 30
0.0
 10
54.98483812579412
 20
38.22579755199637
 30
0.0
 10
55.16788757480548
 20
38.22579755199637
 30
0.0
 10
55.51488811398275
 20
38.22579755199637
 30
0.0
 10
55.68017331604332
 20
38.22579755199637
 30
0.0
 10
55.97776080689975
 20
38.22579755199637
 30
0.0
 10
56.11151946649966
 20
38.22579755199637
 30
0.0
 10
56.34822433919137
 20
38.22579755199637
 30
0.0
 10
56.45041138934693
 20
38.22579755199637
 30
0.0
 10
56.69539552461475
 20
38.22579755199637
 30
0.0
 10
56.78294066722159
 20
38.22579755199637
 30
0.0
 10
56.78294066722162
 20
38.22579755199637
 30
0.0
  0
SPLINE
  5
72
330
1F
100
AcDbEntity
  8
0
  6
Continuous
 62
     7
370
    25
100
AcDbSpline
210
0.0
220
0.0
230
1.0
 70
    24
 71
     3
 72
    20
 73
    16
 74
     0
 42
0.00000001
 43
0.00000001
 40
0.0
 40
0.0
 40
0.0
 40
0.0
 40
0.1249999999999998
 40
0.1249999999999998
 40
0.2499999999999995
 40
0.2499999999999995
 40
0.3749999999999992
 40
0.3749999999999992
 40
0.499999999999999
 40
0.499999999999999
 40
0.7499999999999984
 40
0.7499999999999984
 40
0.8749999999999992
 40
0.8749999999999992
 40
1.0
 40
1.0
 40
1.0
 40
1.0
 10
109.2170587877477
 20
38.22579755199637
 30
0.0
 10
109.2170587877477
 20
38.22579755199637
 30
0.0
 10
109.2383818619439
 20
38.22579755199637
 30
0.0
 10
109.3217823344356
 20
38.22579755199637
 30
0.0
 10
109.3849634749044
 20
38.22579755199637
 30
0.0
 10
109.5487745101811
 20
38.22579755199636
 30
0.0
 10
109.6488346681057
 20
38.22579755199636
 30
0.0
 10
109.8847606199045
 20
38.22579755199637
 30
0.0
 10
110.0210694132836
 20
38.22579755199637
 30
0.0
 10
110.4662712680643
 20
38.22579755199636
 30
0.0
 10
110.8228459034195
 20
38.22579755199637
 30
0.0
 10
111.39645520271
 20
38.22579755199637
 30
0.0
 10
111.5971044957993
 20
38.22579755199637
 30
0.0
 10
112.0051762378149
 20
38.22579755199637
 30
0.0
 10
112.2115670993789
 20
38.22579755199637
 30
0.0
 10
112.4203471094624
 20
38.22579755199637
 30
0.0
  0
LINE
  5
73
330
1F
100
AcDbEntity
  8
0
  6
Continuous
 62
     7
370
    25
100
AcDbLine
 10
133.0
 20
38.225797552
 30
0.0
 11
133.0
 21
52.2823599754
 31
0.0
  0
LINE
  5
74
330
1F
100
AcDbEntity
  8
0
  6
Continuous
 62
     7
370
    25
100
AcDbLine
 10
126.7500000341
 20
58.5323599413
 30
0.0
 11
133.0
 21
52.2823599754
 31
0.0
  0
LINE
  5
75
330
1F
100
AcDbEntity
  8
0
  6
Continuous
 62
     7
370
    25
100
AcDbLine
 10
126.7500000341
 20
38.225797552
 30
0.0
 11
133.0
 21
38.225797552
 31
0.0
  0
LINE
  5
76
330
1F
100
AcDbEntity
  8
0
  6
Continuous
 62
     7
370
    25
100
AcDbLine
 10
33.0
 20
52.2823599754
 30
0.0
 11
33.0
 21
38.225797552
 31
0.0
  0
LINE
  5
77
330
1F
100
AcDbEntity
  8
0
  6
Continuous
 62
     7
370
    25
100
AcDbLine
 10
33.0
 20
52.2823599754
 30
0.0
 11
39.2499999659
 21
58.5323599413
 31
0.0
  0
LINE
  5
78
330
1F
100
AcDbEntity
  8
0
  6
Continuous
 62
     7
370
    25
100
AcDbLine
 10
33.0
 20
38.225797552
 30
0.0
 11
39.2499999659
 21
38.225797552
 31
0.0
  0
LINE
  5
79
330
1F
100
AcDbEntity
  8
0
  6
Continuous
 62
     7
370
    25
100
AcDbLine
 10
109.5625001277
 20
75.7198598476
 30
0.0
 11
126.7500000341
 21
58.5323599413
 31
0.0
  0
LINE
  5
7A
330
1F
100
AcDbEntity
  8
0
  6
Continuous
 62
     7
370
    25
100
AcDbLine
 10
39.2499999659
 20
58.5323599413
 30
0.0
 11
56.4374998723
 21
75.7198598476
 31
0.0
  0
LINE
  5
7B
330
1F
100
AcDbEntity
  8
0
  6
Continuous
 62
     7
370
    25
100
AcDbLine
 10
109.5625001277
 20
75.7198598476
 30
0.0
 11
56.4374998723
 21
75.7198598476
 31
0.0
  0
LINE
  5
7C
330
1F
100
AcDbEntity
  8
0
  6
Continuous
 62
     7
370
    25
100
AcDbLine
 10
112.4203471095
 20
38.225797552
 30
0.0
 11
126.7500000341
 21
38.225797552
 31
0.0
  0
LINE
  5
7D
330
1F
100
AcDbEntity
  8
0
  6
Continuous
 62
     7
370
    25
100
AcDbLine
 10
39.2499999659
 20
38.225797552
 30
0.0
 11
53.5796523455
 21
38.225797552
 31
0.0
  0
LINE
  5
7E
330
1F
100
AcDbEntity
  8
0
  6
HIDDEN
 62
     7
370
    18
100
AcDbLine
 10
49.4062499106
 20
52.2823599754
 30
0.0
 11
36.9062499787
 21
52.2823599754
 31
0.0
  0
LINE
  5
7F
330
1F
100
AcDbEntity
  8
0
  6
HIDDEN
 62
     7
370
    18
100
AcDbLine
 10
129.0261399635
 20
52.2823599754
 30
0.0
 11
116.5261400316
 21
52.2823599754
 31
0.0
  0
LINE
  5
80
330
1F
100
AcDbEntity
  8
0
  6
HIDDEN
 62
     7
370
    18
100
AcDbLine
 10
129.1357622868
 20
52.2823599754
 30
0.0
 11
129.0261399635
 21
52.2823599754
 31
0.0
  0
LINE
  5
81
330
1F
100
AcDbEntity
  8
0
  6
HIDDEN
 62
     7
370
    18
100
AcDbLine
 10
49.4062499106
 20
52.2823599754
 30
0.0
 11
49.4062499106
 21
68.688609886
 31
0.0
  0
LINE
  5
82
330
1F
100
AcDbEntity
  8
0
  6
HIDDEN
 62
     7
370
    18
100
AcDbLine
 10
36.9062499787
 20
56.1886099541
 30
0.0
 11
36.9062499787
 21
52.2823599754
 31
0.0
  0
LINE
  5
83
330
1F
100
AcDbEntity
  8
0
  6
HIDDEN
 62
     7
370
    18
100
AcDbLine
 10
129.0261399635
 20
52.2823599754
 30
0.0
 11
129.0261399635
 21
56.2562200119
 31
0.0
  0
LINE
  5
84
330
1F
100
AcDbEntity
  8
0
  6
HIDDEN
 62
     7
370
    18
100
AcDbLine
 10
116.5261400316
 20
68.7562199438
 30
0.0
 11
116.5261400316
 21
52.2823599754
 31
0.0
  0
LINE
  5
85
330
1F
100
AcDbEntity
  8
0
  6
HIDDEN
 62
     7
370
    18
100
AcDbLine
 10
48.1171874176
 20
38.225797552
 30
0.0
 11
48.1171874176
 21
52.2823599754
 31
0.0
  0
LINE
  5
86
330
1F
100
AcDbEntity
  8
0
  6
HIDDEN
 62
     7
370
    18
100
AcDbLine
 10
38.1953124717
 20
52.2823599754
 30
0.0
 11
38.1953124717
 21
38.225797552
 31
0.0
  0
LINE
  5
87
330
1F
100
AcDbEntity
  8
0
  6
HIDDEN
 62
     7
370
    18
100
AcDbLine
 10
127.7370774705
 20
38.225797552
 30
0.0
 11
127.7370774705
 21
52.2823599754
 31
0.0
  0
LINE
  5
88
330
1F
100
AcDbEntity
  8
0
  6
HIDDEN
 62
     7
370
    18
100
AcDbLine
 10
117.8152025246
 20
52.2823599754
 30
0.0
 11
117.8152025246
 21
38.225797552
 31
0.0
  0
ARC
  5
89
330
1F
100
AcDbEntity
  8
0
  6
HIDDEN
 62
     7
370
    18
100
AcDbCircle
 10
109.8645282371
 20
72.5948598647
 30
0.0
 40
3.124999982967793
100
AcDbArc
 50
95.4578899369
 51
180.0
  0
ARC
  5
8A
330
1F
100
AcDbEntity
  8
0
  6
HIDDEN
 62
     7
370
    18
100
AcDbCircle
 10
56.7395285266
 20
72.5948598647
 30
0.0
 40
3.124999982967793
100
AcDbArc
 50
0.0
 51
90.0
  0
LINE
  5
8B
330
1F
100
AcDbEntity
  8
0
  6
HIDDEN
 62
     7
370
    18
100
AcDbLine
 10
106.7395282541
 20
44.7333127804
 30
0.0
 11
106.7395282541
 21
72.5948598647
 31
0.0
  0
LINE
  5
8C
330
1F
100
AcDbEntity
  8
0
  6
HIDDEN
 62
     7
370
    18
100
AcDbLine
 10
59.8645285096
 20
72.5948598647
 30
0.0
 11
59.8645285096
 21
45.8378650038
 31
0.0
  0
LINE
  5
8D
330
1F
100
AcDbEntity
  8
0
  6
HIDDEN
 62
     7
370
    18
100
AcDbLine
 10
129.1357622868
 20
52.2823599754
 30
0.0
 11
129.1357622868
 21
56.1465976886
 31
0.0
  0
LINE
  5
8E
330
1F
100
AcDbEntity
  8
0
  6
HIDDEN
 62
     7
370
    18
100
AcDbLine
 10
116.6357623549
 20
68.6465976205
 30
0.0
 11
116.6357623549
 21
52.2823599754
 31
0.0
  0
LINE
  5
8F
330
1F
100
AcDbEntity
  8
0
  6
HIDDEN
 62
     7
370
    18
100
AcDbLine
 10
127.8466997938
 20
38.225797552
 30
0.0
 11
127.8466997938
 21
52.2823599754
 31
0.0
  0
LINE
  5
90
330
1F
100
AcDbEntity
  8
0
  6
HIDDEN
 62
     7
370
    18
100
AcDbLine
 10
117.9248248479
 20
52.2823599754
 30
0.0
 11
117.9248248479
 21
38.225797552
 31
0.0
  0
LINE
  5
91
330
1F
100
AcDbEntity
  8
0
  6
Continuous
 62
     7
370
    25
100
AcDbLine
 10
109.5625001277
 20
198.2317185307
 30
0.0
 11
109.5625001277
 21
163.9025575297
 31
0.0
  0
LINE
  5
92
330
1F
100
AcDbEntity
  8
0
  6
Continuous
 62
     7
370
    25
100
AcDbLine
 10
126.7500000341
 20
198.2317185307
 30
0.0
 11
109.5625001277
 21
198.2317185307
 31
0.0
  0
ARC
  5
93
330
1F
100
AcDbEntity
  8
0
  6
Continuous
 62
     7
370
    25
100
AcDbCircle
 10
126.7500000341
 20
191.9817185648
 30
0.0
 40
6.249999965936269
100
AcDbArc
 50
0.0
 51
90.0
  0
LINE
  5
94
330
1F
100
AcDbEntity
  8
0
  6
Continuous
 62
     7
370
    25
100
AcDbLine
 10
133.0
 20
124.0182814352
 30
0.0
 11
133.0
 21
191.9817185648
 31
0.0
  0
ARC
  5
95
330
1F
100
AcDbEntity
  8
0
  6
Continuous
 62
     7
370
    25
100
AcDbCircle
 10
126.7500000341
 20
124.0182814352
 30
0.0
 40
6.249999965936269
100
AcDbArc
 50
270.0
 51
0.0
  0
LINE
  5
96
330
1F
100
AcDbEntity
  8
0
  6
Continuous
 62
     7
370
    25
100
AcDbLine
 10
109.5625001277
 20
117.7682814693
 30
0.0
 11
126.7500000341
 21
117.7682814693
 31
0.0
  0
LINE
  5
97
330
1F
100
AcDbEntity
  8
0
  6
Continuous
 62
     7
370
    25
100
AcDbLine
 10
109.5625001277
 20
155.9140602388
 30
0.0
 11
109.5625001277
 21
117.7682814693
 31
0.0
  0
SPLINE
  5
98
330
1F
100
AcDbEntity
  8
0
  6
Continuous
 62
     7
370
    25
100
AcDbSpline
210
0.0
220
0.0
230
1.0
 70
     8
 71
     3
 72
    13
 73
     9
 74
     0
 42
0.00000001
 43
0.00000001
 40
0.0
 40
0.0
 40
0.0
 40
0.0
 40
0.25
 40
0.25
 40
0.5
 40
0.75
 40
0.75
 40
1.0
 40
1.0
 40
1.0
 40
1.0
 10
109.5625001277407
 20
155.914060238815
 30
0.0
 10
109.5625001277407
 20
156.579766339894
 30
0.0
 10
109.5668455954641
 20
157.2454636210061
 30
0.0
 10
109.5734598904239
 20
158.5768623981653
 30
0.0
 10
109.5782625125188
 20
159.9082648524671
 30
0.0
 10
109.5734601957353
 20
161.2396868018616
 30
0.0
 10
109.5668458380466
 20
162.5711124291456
 30
0.0
 10
109.5625001277408
 20
163.2368195557489
 30
0.0
 10
109.5625001277407
 20
163.9025575296517
 30
0.0
  0
CIRCLE
  5
99
330
1F
100
AcDbEntity
  8
0
  6
Continuous
 62
     7
370
    25
100
AcDbCircle
 10
122.7761399975
 20
137.3111041425
 30
0.0
 40
6.249999965936098
  0
CIRCLE
  5
9A
330
1F
100
AcDbEntity
  8
0
  6
Continuous
 62
     7
370
    25
100
AcDbCircle
 10
122.8857623208
 20
176.3366512359
 30
0.0
 40
6.249999965935231
  0
CIRCLE
  5
9B
330
1F
100
AcDbEntity
  8
0
  6
Continuous
 62
     7
370
    25
100
AcDbCircle
 10
83.3020283818
 20
159.9083088842
 30
0.0
 40
23.4374998722584
  0
LINE
  5
9C
330
1F
100
AcDbEntity
  8
0
  6
Continuous
 62
     7
370
    25
100
AcDbLine
 10
109.5625001277
 20
117.7682814693
 30
0.0
 11
56.4374998723
 21
117.7682814693
 31
0.0
  0
LINE
  5
9D
330
1F
100
AcDbEntity
  8
0
  6
Continuous
 62
     7
370
    25
100
AcDbLine
 10
56.4374998723
 20
117.7682814693
 30
0.0
 11
56.4374998723
 21
198.2317185307
 31
0.0
  0
LINE
  5
9E
330
1F
100
AcDbEntity
  8
0
  6
Continuous
 62
     7
370
    25
100
AcDbLine
 10
109.5625001277
 20
198.2317185307
 30
0.0
 11
56.4374998723
 21
198.2317185307
 31
0.0
  0
ARC
  5
9F
330
1F
100
AcDbEntity
  8
0
  6
Continuous
 62
     7
370
    25
100
AcDbCircle
 10
39.2499999659
 20
124.0182814352
 30
0.0
 40
6.249999965935572
100
AcDbArc
 50
180.0
 51
270.0
  0
LINE
  5
A0
330
1F
100
AcDbEntity
  8
0
  6
Continuous
 62
     7
370
    25
100
AcDbLine
 10
33.0
 20
191.9817185648
 30
0.0
 11
33.0
 21
124.0182814352
 31
0.0
  0
ARC
  5
A1
330
1F
100
AcDbEntity
  8
0
  6
Continuous
 62
     7
370
    25
100
AcDbCircle
 10
39.2499999659
 20
191.9817185648
 30
0.0
 40
6.249999965935558
100
AcDbArc
 50
90.0
 51
180.0
  0
LINE
  5
A2
330
1F
100
AcDbEntity
  8
0
  6
Continuous
 62
     7
370
    25
100
AcDbLine
 10
39.2499999659
 20
117.7682814693
 30
0.0
 11
56.4374998723
 21
117.7682814693
 31
0.0
  0
CIRCLE
  5
A3
330
1F
100
AcDbEntity
  8
0
  6
Continuous
 62
     7
370
    25
100
AcDbCircle
 10
43.1562499446
 20
176.35671865
 30
0.0
 40
6.249999965935231
  0
CIRCLE
  5
A4
330
1F
100
AcDbEntity
  8
0
  6
Continuous
 62
     7
370
    25
100
AcDbCircle
 10
43.1562499446
 20
137.0918594959
 30
0.0
 40
6.249999965935231
  0
LINE
  5
A5
330
1F
100
AcDbEntity
  8
0
  6
Continuous
 62
     7
370
    25
100
AcDbLine
 10
56.4374998723
 20
198.2317185307
 30
0.0
 11
39.2499999659
 21
198.2317185307
 31
0.0
  0
CIRCLE
  5
A6
330
1F
100
AcDbEntity
  8
0
  6
Continuous
 62
     7
370
    25
100
AcDbCircle
 10
43.1562499446
 20
176.35671865
 30
0.0
 40
4.960937472961348
  0
CIRCLE
  5
A7
330
1F
100
AcDbEntity
  8
0
  6
Continuous
 62
     7
370
    25
100
AcDbCircle
 10
122.8857623208
 20
176.3366512359
 30
0.0
 40
4.960937472961348
  0
CIRCLE
  5
A8
330
1F
100
AcDbEntity
  8
0
  6
Continuous
 62
     7
370
    25
100
AcDbCircle
 10
122.7761399975
 20
137.3111041425
 30
0.0
 40
4.960937472961376
  0
CIRCLE
  5
A9
330
1F
100
AcDbEntity
  8
0
  6
Continuous
 62
     7
370
    25
100
AcDbCircle
 10
43.1562499446
 20
137.0918594959
 30
0.0
 40
4.960937472961376
  0
SPLINE
  5
AA
330
1F
100
AcDbEntity
  8
0
  6
HIDDEN
 62
     7
370
    18
100
AcDbSpline
210
0.0
220
0.0
230
1.0
 70
     8
 71
     3
 72
    20
 73
    16
 74
     0
 42
0.00000001
 43
0.00000001
 40
0.0
 40
0.0
 40
0.0
 40
0.0
 40
0.1249999999999999
 40
0.1249999999999999
 40
0.2499999999999998
 40
0.2499999999999998
 40
0.3749999999999997
 40
0.3749999999999997
 40
0.4999999999999996
 40
0.4999999999999996
 40
0.6249999999999994
 40
0.6249999999999994
 40
0.7499999999999993
 40
0.7499999999999993
 40
1.0
 40
1.0
 40
1.0
 40
1.0
 10
112.4203471094624
 20
198.2317185307247
 30
0.0
 10
112.2114769069157
 20
198.2317185307244
 30
0.0
 10
112.0059772947134
 20
198.2118765904609
 30
0.0
 10
111.6014402255706
 20
198.1341513921346
 30
0.0
 10
111.4005042507531
 20
198.0754463793331
 30
0.0
 10
111.0151613291752
 20
197.9212919784417
 30
0.0
 10
110.8321118801638
 20
197.8268685021803
 30
0.0
 10
110.4851113409865
 20
197.6035915980199
 30
0.0
 10
110.319826138926
 20
197.4730976091352
 30
0.0
 10
110.0222386480696
 20
197.1866113538395
 30
0.0
 10
109.8884799884696
 20
197.0301428332707
 30
0.0
 10
109.6517751157779
 20
196.6901020750956
 30
0.0
 10
109.5495880656224
 20
196.5065693030032
 30
0.0
 10
109.3046039303545
 20
195.9392733205158
 30
0.0
 10
109.2170587877477
 20
195.5247515145329
 30
0.0
 10
109.2170587877477
 20
195.1067185477571
 30
0.0
  0
SPLINE
  5
AB
330
1F
100
AcDbEntity
  8
0
  6
HIDDEN
 62
     7
370
    18
100
AcDbSpline
210
0.0
220
0.0
230
1.0
 70
     8
 71
     3
 72
    20
 73
    16
 74
     0
 42
0.00000001
 43
0.00000001
 40
0.0
 40
0.0
 40
0.0
 40
0.0
 40
0.124999999999999
 40
0.124999999999999
 40
0.2499999999999981
 40
0.2499999999999981
 40
0.3749999999999971
 40
0.3749999999999971
 40
0.4999999999999961
 40
0.4999999999999961
 40
0.749999999999997
 40
0.749999999999997
 40
0.8749999999999986
 40
0.8749999999999986
 40
1.0
 40
1.0
 40
1.0
 40
1.0
 10
56.78294066722162
 20
195.106718547757
 30
0.0
 10
56.7829406672216
 20
195.3156386091281
 30
0.0
 10
56.76161759302533
 20
195.5209041185551
 30
0.0
 10
56.67821712053365
 20
195.9244502724207
 30
0.0
 10
56.61503598006483
 20
196.1249020684647
 30
0.0
 10
56.45122494478809
 20
196.5051348914991
 30
0.0
 10
56.35116478686349
 20
196.6851919897868
 30
0.0
 10
56.11523883506473
 20
197.0254666245905
 30
0.0
 10
55.97893004168562
 20
197.1852892253398
 30
0.0
 10
55.533728186905
 20
197.6144696694584
 30
0.0
 10
55.17715355154977
 20
197.843976481983
 30
0.0
 10
54.60354425225924
 20
198.0740150218274
 30
0.0
 10
54.40289495916992
 20
198.1331478888967
 30
0.0
 10
53.99482321715439
 20
198.2118910117422
 30
0.0
 10
53.78843235559046
 20
198.2317185307244
 30
0.0
 10
53.57965234550691
 20
198.2317185307247
 30
0.0
  0
SPLINE
  5
AC
330
1F
100
AcDbEntity
  8
0
  6
HIDDEN
 62
     7
370
    18
100
AcDbSpline
210
0.0
220
0.0
230
1.0
 70
     8
 71
     3
 72
    20
 73
    16
 74
     0
 42
0.00000001
 43
0.00000001
 40
0.0
 40
0.0
 40
0.0
 40
0.0
 40
0.1249999999999996
 40
0.1249999999999996
 40
0.2499999999999992
 40
0.2499999999999992
 40
0.3749999999999988
 40
0.3749999999999988
 40
0.4999999999999984
 40
0.4999999999999984
 40
0.624999999999998
 40
0.624999999999998
 40
0.7499999999999977
 40
0.7499999999999977
 40
1.0
 40
1.0
 40
1.0
 40
1.0
 10
53.57965234550691
 20
117.7682814692753
 30
0.0
 10
53.78852254805358
 20
117.7682814692756
 30
0.0
 10
53.99402216025594
 20
117.7881234095391
 30
0.0
 10
54.39855922939872
 20
117.8658486078654
 30
0.0
 10
54.5994952042162
 20
117.9245536206669
 30
0.0
 10
54.98483812579412
 20
118.0787080215584
 30
0.0
 10
55.16788757480548
 20
118.1731314978197
 30
0.0
 10
55.51488811398275
 20
118.3964084019801
 30
0.0
 10
55.68017331604332
 20
118.5269023908648
 30
0.0
 10
55.97776080689975
 20
118.8133886461605
 30
0.0
 10
56.11151946649966
 20
118.9698571667293
 30
0.0
 10
56.34822433919137
 20
119.3098979249045
 30
0.0
 10
56.45041138934693
 20
119.4934306969968
 30
0.0
 10
56.69539552461475
 20
120.0607266794841
 30
0.0
 10
56.78294066722159
 20
120.4752484854672
 30
0.0
 10
56.78294066722162
 20
120.8932814522429
 30
0.0
  0
SPLINE
  5
AD
330
1F
100
AcDbEntity
  8
0
  6
HIDDEN
 62
     7
370
    18
100
AcDbSpline
210
0.0
220
0.0
230
1.0
 70
     8
 71
     3
 72
    20
 73
    16
 74
     0
 42
0.00000001
 43
0.00000001
 40
0.0
 40
0.0
 40
0.0
 40
0.0
 40
0.1249999999999998
 40
0.1249999999999998
 40
0.2499999999999995
 40
0.2499999999999995
 40
0.3749999999999992
 40
0.3749999999999992
 40
0.499999999999999
 40
0.499999999999999
 40
0.7499999999999984
 40
0.7499999999999984
 40
0.8749999999999992
 40
0.8749999999999992
 40
1.0
 40
1.0
 40
1.0
 40
1.0
 10
109.2170587877477
 20
120.893281452243
 30
0.0
 10
109.2170587877477
 20
120.6843613908719
 30
0.0
 10
109.2383818619439
 20
120.4790958814452
 30
0.0
 10
109.3217823344356
 20
120.0755497275795
 30
0.0
 10
109.3849634749044
 20
119.8750979315355
 30
0.0
 10
109.5487745101811
 20
119.494865108501
 30
0.0
 10
109.6488346681057
 20
119.3148080102134
 30
0.0
 10
109.8847606199045
 20
118.9745333754096
 30
0.0
 10
110.0210694132836
 20
118.8147107746603
 30
0.0
 10
110.4662712680643
 20
118.3855303305416
 30
0.0
 10
110.8228459034195
 20
118.156023518017
 30
0.0
 10
111.39645520271
 20
117.9259849781727
 30
0.0
 10
111.5971044957993
 20
117.8668521111033
 30
0.0
 10
112.0051762378149
 20
117.7881089882578
 30
0.0
 10
112.2115670993789
 20
117.7682814692757
 30
0.0
 10
112.4203471094624
 20
117.7682814692753
 30
0.0
  0
LINE
  5
AE
330
1F
100
AcDbEntity
  8
0
  6
HIDDEN
 62
     7
370
    18
100
AcDbLine
 10
56.7829406672
 20
195.1067185478
 30
0.0
 11
56.7829406672
 21
120.8932814522
 31
0.0
  0
LINE
  5
AF
330
1F
100
AcDbEntity
  8
0
  6
HIDDEN
 62
     7
370
    18
100
AcDbLine
 10
109.2170587877
 20
195.1067185478
 30
0.0
 11
109.2170587877
 21
120.8932814522
 31
0.0
  0
INSERT
  5
BB
330
1F
100
AcDbEntity
  8
10
100
AcDbBlockReference
  2
SW_CENTERMARKSYMBOL_0
 10
122.7761399975
 20
137.3111041425
 30
0.0
  0
INSERT
  5
C7
330
1F
100
AcDbEntity
  8
10
100
AcDbBlockReference
  2
SW_CENTERMARKSYMBOL_1
 10
122.8857623208
 20
176.3366512359
 30
0.0
  0
INSERT
  5
D3
330
1F
100
AcDbEntity
  8
10
100
AcDbBlockReference
  2
SW_CENTERMARKSYMBOL_2
 10
43.1562499446
 20
137.0918594959
 30
0.0
  0
INSERT
  5
DF
330
1F
100
AcDbEntity
  8
10
100
AcDbBlockReference
  2
SW_CENTERMARKSYMBOL_3
 10
43.1562499446
 20
176.35671865
 30
0.0
  0
INSERT
  5
EB
330
1F
100
AcDbEntity
  8
10
100
AcDbBlockReference
  2
SW_CENTERMARKSYMBOL_4
 10
83.3020283818
 20
159.9083088842
 30
0.0
  0
LINE
  5
EC
330
1F
100
AcDbEntity
  8
0
  6
Continuous
 62
     7
370
    25
100
AcDbLine
 10
263.2317185307
 20
38.225797552
 30
0.0
 11
263.2317185307
 21
58.5323599413
 31
0.0
  0
ARC
  5
ED
330
1F
100
AcDbEntity
  8
0
  6
Continuous
 62
     7
370
    25
100
AcDbCircle
 10
256.9817185648
 20
58.5323599413
 30
0.0
 40
6.249999965935579
100
AcDbArc
 50
270.0
 51
0.0
  0
LINE
  5
EE
330
1F
100
AcDbEntity
  8
0
  6
Continuous
 62
     7
370
    25
100
AcDbLine
 10
256.9817185648
 20
38.225797552
 30
0.0
 11
263.2317185307
 21
38.225797552
 31
0.0
  0
LINE
  5
EF
330
1F
100
AcDbEntity
  8
0
  6
Continuous
 62
     7
370
    25
100
AcDbLine
 10
263.2317185307
 20
75.7198598476
 30
0.0
 11
228.9025575297
 21
75.7198598476
 31
0.0
  0
LINE
  5
F0
330
1F
100
AcDbEntity
  8
0
  6
Continuous
 62
     7
370
    25
100
AcDbLine
 10
263.2317185307
 20
58.5323599413
 30
0.0
 11
263.2317185307
 21
75.7198598476
 31
0.0
  0
LINE
  5
F1
330
1F
100
AcDbEntity
  8
0
  6
Continuous
 62
     7
370
    25
100
AcDbLine
 10
189.0182814352
 20
52.2823599754
 30
0.0
 11
256.9817185648
 21
52.2823599754
 31
0.0
  0
ARC
  5
F2
330
1F
100
AcDbEntity
  8
0
  6
Continuous
 62
     7
370
    25
100
AcDbCircle
 10
189.0182814352
 20
58.5323599413
 30
0.0
 40
6.249999965935579
100
AcDbArc
 50
180.0
 51
270.0
  0
LINE
  5
F3
330
1F
100
AcDbEntity
  8
0
  6
Continuous
 62
     7
370
    25
100
AcDbLine
 10
182.7682814693
 20
75.7198598476
 30
0.0
 11
182.7682814693
 21
58.5323599413
 31
0.0
  0
LINE
  5
F4
330
1F
100
AcDbEntity
  8
0
  6
Continuous
 62
     7
370
    25
100
AcDbLine
 10
220.9140602388
 20
75.7198598476
 30
0.0
 11
182.7682814693
 21
75.7198598476
 31
0.0
  0
SPLINE
  5
F5
330
1F
100
AcDbEntity
  8
0
  6
Continuous
 62
     7
370
    25
100
AcDbSpline
210
0.0
220
0.0
230
1.0
 70
     8
 71
     3
 72
    13
 73
     9
 74
     0
 42
0.00000001
 43
0.00000001
 40
0.0
 40
0.0
 40
0.0
 40
0.0
 40
0.25
 40
0.25
 40
0.5
 40
0.75
 40
0.75
 40
1.0
 40
1.0
 40
1.0
 40
1.0
 10
220.914060238815
 20
75.71985984764224
 30
0.0
 10
221.579766339894
 20
75.71985984764218
 30
0.0
 10
222.2454636210061
 20
75.71551437991913
 30
0.0
 10
223.5768623981653
 20
75.70890008495934
 30
0.0
 10
224.9082648524671
 20
75.70409746286447
 30
0.0
 10
226.2396868018616
 20
75.70889977964795
 30
0.0
 10
227.5711124291456
 20
75.71551413733664
 30
0.0
 10
228.2368195557489
 20
75.71985984764234
 30
0.0
 10
228.9025575296517
 20
75.7198598476424
 30
0.0
  0
CIRCLE
  5
F6
330
1F
100
AcDbEntity
  8
0
  6
Continuous
 62
     7
370
    25
100
AcDbCircle
 10
202.3111041425
 20
62.5062199779
 30
0.0
 40
6.249999965936119
  0
CIRCLE
  5
F7
330
1F
100
AcDbEntity
  8
0
  6
Continuous
 62
     7
370
    25
100
AcDbCircle
 10
241.3366512359
 20
62.3965976546
 30
0.0
 40
6.249999965935231
  0
LINE
  5
F8
330
1F
100
AcDbEntity
  8
0
  6
Continuous
 62
     7
370
    25
100
AcDbLine
 10
256.9817185648
 20
38.225797552
 30
0.0
 11
189.0182814352
 21
38.225797552
 31
0.0
  0
LINE
  5
F9
330
1F
100
AcDbEntity
  8
0
  6
Continuous
 62
     7
370
    25
100
AcDbLine
 10
182.7682814693
 20
58.5323599413
 30
0.0
 11
182.7682814693
 21
38.225797552
 31
0.0
  0
LINE
  5
FA
330
1F
100
AcDbEntity
  8
0
  6
Continuous
 62
     7
370
    25
100
AcDbLine
 10
182.7682814693
 20
38.225797552
 30
0.0
 11
189.0182814352
 21
38.225797552
 31
0.0
  0
LINE
  5
FB
330
1F
100
AcDbEntity
  8
0
  6
Continuous
 62
     7
370
    25
100
AcDbLine
 10
228.9025575297
 20
75.7198598476
 30
0.0
 11
220.9140602388
 21
75.7198598476
 31
0.0
  0
SPLINE
  5
FC
330
1F
100
AcDbEntity
  8
0
  6
HIDDEN
 62
     7
370
    18
100
AcDbSpline
210
0.0
220
0.0
230
1.0
 70
     8
 71
     3
 72
    29
 73
    25
 74
     0
 42
0.00000001
 43
0.00000001
 40
0.0
 40
0.0
 40
0.0
 40
0.0
 40
0.0271973147513385
 40
0.0543982055792938
 40
0.1106620069344332
 40
0.1503921552460942
 40
0.1901413606796669
 40
0.2308925799447684
 40
0.2716515677265776
 40
0.3361398006672202
 40
0.4006363412461448
 40
0.4669870203175049
 40
0.5333289131162469
 40
0.5831412097063556
 40
0.6329475970137249
 40
0.6840298801624327
 40
0.7351028553318771
 40
0.7753307472701206
 40
0.8155544892348069
 40
0.8568784458312041
 40
0.898198299915865
 40
0.9450821354862793
 40
0.9924945127818564
 40
1.0
 40
1.0
 40
1.0
 40
1.0
 10
224.9083088842333
 20
44.73331278044089
 30
0.0
 10
225.273383781164
 20
44.74270782464656
 30
0.0
 10
226.003581577404
 20
44.7614991483783
 30
0.0
 10
227.4746192193291
 20
44.95802821959097
 30
0.0
 10
229.0693422157944
 20
45.36542536176051
 30
0.0
 10
230.7388943899523
 20
45.99740963388713
 30
0.0
 10
232.1556283892164
 20
46.65429434248352
 30
0.0
 10
233.5239229388924
 20
47.38713580105502
 30
0.0
 10
235.1020590472836
 20
48.32943996547252
 30
0.0
 10
236.8432349876155
 20
49.48026336355399
 30
0.0
 10
238.7211055434674
 20
50.83561057153971
 30
0.0
 10
240.4944022679058
 20
52.19313942112972
 30
0.0
 10
242.0144198171353
 20
53.41213095224797
 30
0.0
 10
243.2919161973292
 20
54.46626090335476
 30
0.0
 10
244.3628931531058
 20
55.36917580294946
 30
0.0
 10
245.3418772319744
 20
56.20935991865206
 30
0.0
 10
246.1528259079486
 20
56.91669423792832
 30
0.0
 10
246.8027010856266
 20
57.49092589468984
 30
0.0
 10
247.3175244777268
 20
57.95135900183981
 30
0.0
 10
247.7390274705196
 20
58.33360996680945
 30
0.0
 10
248.0761313114696
 20
58.64520889079652
 30
0.0
 10
248.2866193886559
 20
58.84848453358265
 30
0.0
 10
248.3680769812363
 20
58.93465291502354
 30
0.0
 10
248.3393016978273
 20
58.91789282508108
 30
0.0
 10
248.3353690517979
 20
58.91560226549812
 30
0.0
  0
SPLINE
  5
FD
330
1F
100
AcDbEntity
  8
0
  6
HIDDEN
 62
     7
370
    18
100
AcDbSpline
210
0.0
220
0.0
230
1.0
 70
     8
 71
     3
 72
    46
 73
    42
 74
     0
 42
0.00000001
 43
0.00000001
 40
0.0
 40
0.0
 40
0.0
 40
0.0
 40
0.0212491740524708
 40
0.0432170836301707
 40
0.0651869919807023
 40
0.0864113004177519
 40
0.1076377640124289
 40
0.1293838933396482
 40
0.1511322251931841
 40
0.1803311696646704
 40
0.2095354421519288
 40
0.2395672372791638
 40
0.2696022133741788
 40
0.2994682555914126
 40
0.3293337108927126
 40
0.3599338855082765
 40
0.3905232730036198
 40
0.4227146392121868
 40
0.4391164529532124
 40
0.4555140956194009
 40
0.4828319859469569
 40
0.5109259958557129
 40
0.538254549662621
 40
0.566267285886219
 40
0.5889310529163312
 40
0.61160463246824
 40
0.6348511625134869
 40
0.6581015499910414
 40
0.6913860288655702
 40
0.7246724311491707
 40
0.7589301418983075
 40
0.7931824327344847
 40
0.8182894116622977
 40
0.8433934623087762
 40
0.8691431754979704
 40
0.8948885593216946
 40
0.9156769808530542
 40
0.9364634283671934
 40
0.9578268895948706
 40
0.9791886215992884
 40
1.0
 40
1.0
 40
1.0
 40
1.0
 10
248.2899821406232
 20
58.89086309420979
 30
0.0
 10
248.2423220509801
 20
58.8555053434799
 30
0.0
 10
248.1453898090566
 20
58.78359389569867
 30
0.0
 10
247.8559289650173
 20
58.55130666126554
 30
0.0
 10
247.4666235899099
 20
58.23396429629648
 30
0.0
 10
246.979278256517
 20
57.83400284585539
 30
0.0
 10
246.4037496599633
 20
57.36168330836867
 30
0.0
 10
245.7372101443115
 20
56.8166295057399
 30
0.0
 10
244.8994869536303
 20
56.13657966654795
 30
0.0
 10
243.8694053777765
 20
55.30996388548731
 30
0.0
 10
242.6136644243548
 20
54.32209030677345
 30
0.0
 10
241.2354503846055
 20
53.26561177315943
 30
0.0
 10
239.7427710769131
 20
52.16242395125438
 30
0.0
 10
238.1550947306392
 20
51.04202036887189
 30
0.0
 10
236.4593891730581
 20
49.92083179936379
 30
0.0
 10
234.6491762713582
 20
48.82269764447722
 30
0.0
 10
232.6788476772327
 20
47.77410141855579
 30
0.0
 10
230.9011076643496
 20
46.99702662230067
 30
0.0
 10
229.3729807842087
 20
46.47807049330878
 30
0.0
 10
227.9186565313121
 20
46.08890061827044
 30
0.0
 10
226.1221939124528
 20
45.79806759889879
 30
0.0
 10
224.0139314146119
 20
45.77352558280035
 30
0.0
 10
221.9174017332489
 20
46.06677703905527
 30
0.0
 10
220.0321258540676
 20
46.59039222137379
 30
0.0
 10
218.3413647106762
 20
47.23885256378944
 30
0.0
 10
216.8291668098335
 20
47.94141163766124
 30
0.0
 10
215.3709476940333
 20
48.7175499029044
 30
0.0
 10
213.7636243300013
 20
49.66616959535467
 30
0.0
 10
212.0484283560275
 20
50.77545911910844
 30
0.0
 10
210.2456201991662
 20
52.03605210816435
 30
0.0
 10
208.5496711313752
 20
53.28726675489683
 30
0.0
 10
207.1138266366895
 20
54.39158518686572
 30
0.0
 10
205.9250565051994
 20
55.32842286296326
 30
0.0
 10
204.9442928240195
 20
56.1145798038072
 30
0.0
 10
204.0552393580125
 20
56.83604131812845
 30
0.0
 10
203.3213020750355
 20
57.43674781137943
 30
0.0
 10
202.7368348806368
 20
57.91653927876524
 30
0.0
 10
202.2779486026835
 20
58.29291571702149
 30
0.0
 10
201.9145471493685
 20
58.58859675498719
 30
0.0
 10
201.6465122148255
 20
58.80287841554306
 30
0.0
 10
201.559396834465
 20
58.86657262246456
 30
0.0
 10
201.5164075664744
 20
58.89800412536874
 30
0.0
  0
SPLINE
  5
FE
330
1F
100
AcDbEntity
  8
0
  6
HIDDEN
 62
     7
370
    18
100
AcDbSpline
210
0.0
220
0.0
230
1.0
 70
     8
 71
     3
 72
    29
 73
    25
 74
     0
 42
0.00000001
 43
0.00000001
 40
0.0
 40
0.0
 40
0.0
 40
0.0
 40
0.0105523271729907
 40
0.0511795166633561
 40
0.0918083341206459
 40
0.1286091973879513
 40
0.1654124920096678
 40
0.2031224644999916
 40
0.2408356408267189
 40
0.2897818532829626
 40
0.3387364226486168
 40
0.3890869159086168
 40
0.4394443332628529
 40
0.5026371383574019
 40
0.5658393964888887
 40
0.6308485022477852
 40
0.6958549525736523
 40
0.7746431525679902
 40
0.8146965020467862
 40
0.8547366529409622
 40
0.9090021758043788
 40
0.9368171081124372
 40
0.9646251911042787
 40
1.0
 40
1.0
 40
1.0
 40
1.0
 10
201.4832846150945
 20
58.91383115418375
 30
0.0
 10
201.4783475408852
 20
58.91653747470548
 30
0.0
 10
201.4544023894869
 20
58.92966331642437
 30
0.0
 10
201.5235478904043
 20
58.85568560549215
 30
0.0
 10
201.6893530442466
 20
58.69388234822129
 30
0.0
 10
201.9561788226916
 20
58.44529605525373
 30
0.0
 10
202.3000718374897
 20
58.1312773649301
 30
0.0
 10
202.731204322733
 20
57.74316915422703
 30
0.0
 10
203.2957921532325
 20
57.24096113248297
 30
0.0
 10
204.013647002855
 20
56.61022747994885
 30
0.0
 10
204.9107511081215
 20
55.83357754304805
 30
0.0
 10
205.9205494101392
 20
54.97336938315672
 30
0.0
 10
207.1297819552522
 20
53.96334364620139
 30
0.0
 10
208.5481867614361
 20
52.80809717727125
 30
0.0
 10
210.2092121017494
 20
51.5064412619774
 30
0.0
 10
212.0054704358689
 20
50.16613107411196
 30
0.0
 10
214.0784364265767
 20
48.72916314462415
 30
0.0
 10
216.0384102782001
 20
47.51559244824344
 30
0.0
 10
217.8406440377471
 20
46.56460771482524
 30
0.0
 10
219.4322832381594
 20
45.84319076584532
 30
0.0
 10
220.9565580487975
 20
45.30723593291595
 30
0.0
 10
222.3810420063847
 20
44.97098153489278
 30
0.0
 10
223.5849077365334
 20
44.77608820918158
 30
0.0
 10
224.4333073133748
 20
44.74866594518711
 30
0.0
 10
224.9083088842333
 20
44.73331278044089
 30
0.0
  0
CIRCLE
  5
FF
330
1F
100
AcDbEntity
  8
0
  6
HIDDEN
 62
     7
370
    18
100
AcDbCircle
 10
241.35671865
 20
62.43860992
 30
0.0
 40
6.249999965935224
  0
CIRCLE
  5
100
330
1F
100
AcDbEntity
  8
0
  6
HIDDEN
 62
     7
370
    18
100
AcDbCircle
 10
202.0918594959
 20
62.43860992
 30
0.0
 40
6.249999965935224
  0
LINE
  5
101
330
1F
100
AcDbEntity
  8
0
  6
HIDDEN
 62
     7
370
    18
100
AcDbLine
 10
247.5866512019
 20
52.2823599754
 30
0.0
 11
247.5866512019
 21
62.3965976546
 31
0.0
  0
LINE
  5
102
330
1F
100
AcDbEntity
  8
0
  6
HIDDEN
 62
     7
370
    18
100
AcDbLine
 10
235.08665127
 20
62.3965976546
 30
0.0
 11
235.08665127
 21
52.2823599754
 31
0.0
  0
LINE
  5
103
330
1F
100
AcDbEntity
  8
0
  6
HIDDEN
 62
     7
370
    18
100
AcDbLine
 10
208.5611041085
 20
52.2823599754
 30
0.0
 11
208.5611041085
 21
62.5062199779
 31
0.0
  0
LINE
  5
104
330
1F
100
AcDbEntity
  8
0
  6
HIDDEN
 62
     7
370
    18
100
AcDbLine
 10
196.0611041766
 20
62.5062199779
 30
0.0
 11
196.0611041766
 21
52.2823599754
 31
0.0
  0
LINE
  5
105
330
1F
100
AcDbEntity
  8
0
  6
HIDDEN
 62
     7
370
    18
100
AcDbLine
 10
246.2975887089
 20
38.225797552
 30
0.0
 11
246.2975887089
 21
52.2823599754
 31
0.0
  0
LINE
  5
106
330
1F
100
AcDbEntity
  8
0
  6
HIDDEN
 62
     7
370
    18
100
AcDbLine
 10
236.375713763
 20
52.2823599754
 30
0.0
 11
236.375713763
 21
38.225797552
 31
0.0
  0
LINE
  5
107
330
1F
100
AcDbEntity
  8
0
  6
HIDDEN
 62
     7
370
    18
100
AcDbLine
 10
207.2720416155
 20
38.225797552
 30
0.0
 11
207.2720416155
 21
52.2823599754
 31
0.0
  0
LINE
  5
108
330
1F
100
AcDbEntity
  8
0
  6
HIDDEN
 62
     7
370
    18
100
AcDbLine
 10
197.3501666696
 20
52.2823599754
 30
0.0
 11
197.3501666696
 21
38.225797552
 31
0.0
  0
ARC
  5
109
330
1F
100
AcDbEntity
  8
0
  6
HIDDEN
 62
     7
370
    18
100
AcDbCircle
 10
260.1067185478
 20
62.0479849222
 30
0.0
 40
3.124999982967793
100
AcDbArc
 50
270.0
 51
0.0
  0
ARC
  5
10A
330
1F
100
AcDbEntity
  8
0
  6
HIDDEN
 62
     7
370
    18
100
AcDbCircle
 10
185.8932814522
 20
62.0479849222
 30
0.0
 40
3.124999982967793
100
AcDbArc
 50
180.0
 51
270.0
  0
ARC
  5
10B
330
1F
100
AcDbEntity
  8
0
  6
HIDDEN
 62
     7
370
    18
100
AcDbCircle
 10
251.4708087395
 20
72.5948598647
 30
0.0
 40
3.124999982967779
100
AcDbArc
 50
90.0
 51
180.0
  0
ARC
  5
10C
330
1F
100
AcDbEntity
  8
0
  6
HIDDEN
 62
     7
370
    18
100
AcDbCircle
 10
198.345809029
 20
72.5948598647
 30
0.0
 40
3.124999982967779
100
AcDbArc
 50
0.0
 51
90.0
  0
LINE
  5
10D
330
1F
100
AcDbEntity
  8
0
  6
HIDDEN
 62
     7
370
    18
100
AcDbLine
 10
201.4832846151
 20
58.9229849392
 30
0.0
 11
185.8932814522
 21
58.9229849392
 31
0.0
  0
LINE
  5
10E
330
1F
100
AcDbEntity
  8
0
  6
HIDDEN
 62
     7
370
    18
100
AcDbLine
 10
260.1067185478
 20
58.9229849392
 30
0.0
 11
248.3353690518
 21
58.9229849392
 31
0.0
  0
LINE
  5
10F
330
1F
100
AcDbEntity
  8
0
  6
HIDDEN
 62
     7
370
    18
100
AcDbLine
 10
248.3458087565
 20
58.9212926647
 30
0.0
 11
248.3458087565
 21
72.5948598647
 31
0.0
  0
LINE
  5
110
330
1F
100
AcDbEntity
  8
0
  6
HIDDEN
 62
     7
370
    18
100
AcDbLine
 10
201.470809012
 20
72.5948598647
 30
0.0
 11
201.470809012
 21
58.9179625756
 31
0.0
  0
LINE
  5
111
330
1F
100
AcDbEntity
  8
0
  6
HIDDEN
 62
     7
370
    18
100
AcDbLine
 10
247.6067186159
 20
52.2823599754
 30
0.0
 11
247.6067186159
 21
62.43860992
 31
0.0
  0
LINE
  5
112
330
1F
100
AcDbEntity
  8
0
  6
HIDDEN
 62
     7
370
    18
100
AcDbLine
 10
235.106718684
 20
62.43860992
 30
0.0
 11
235.106718684
 21
52.2823599754
 31
0.0
  0
LINE
  5
113
330
1F
100
AcDbEntity
  8
0
  6
HIDDEN
 62
     7
370
    18
100
AcDbLine
 10
208.3418594619
 20
52.2823599754
 30
0.0
 11
208.3418594619
 21
62.43860992
 31
0.0
  0
LINE
  5
114
330
1F
100
AcDbEntity
  8
0
  6
HIDDEN
 62
     7
370
    18
100
AcDbLine
 10
195.84185953
 20
62.43860992
 30
0.0
 11
195.84185953
 21
52.2823599754
 31
0.0
  0
LINE
  5
115
330
1F
100
AcDbEntity
  8
0
  6
HIDDEN
 62
     7
370
    18
100
AcDbLine
 10
246.3176561229
 20
38.225797552
 30
0.0
 11
246.3176561229
 21
52.2823599754
 31
0.0
  0
LINE
  5
116
330
1F
100
AcDbEntity
  8
0
  6
HIDDEN
 62
     7
370
    18
100
AcDbLine
 10
236.395781177
 20
52.2823599754
 30
0.0
 11
236.395781177
 21
38.225797552
 31
0.0
  0
LINE
  5
117
330
1F
100
AcDbEntity
  8
0
  6
HIDDEN
 62
     7
370
    18
100
AcDbLine
 10
207.0527969689
 20
38.225797552
 30
0.0
 11
207.0527969689
 21
52.2823599754
 31
0.0
  0
LINE
  5
118
330
1F
100
AcDbEntity
  8
0
  6
HIDDEN
 62
     7
370
    18
100
AcDbLine
 10
197.130922023
 20
52.2823599754
 30
0.0
 11
197.130922023
 21
38.225797552
 31
0.0
  0
ENDSEC
  0
SECTION
  2
OBJECTS
  0
DICTIONARY
  5
C
330
0
100
AcDbDictionary
281
     1
  3
ACAD_GROUP
350
D
  3
ACAD_LAYOUT
350
1A
  3
ACAD_MLINESTYLE
350
17
  3
ACAD_PLOTSETTINGS
350
19
  3
ACAD_PLOTSTYLENAME
350
E
  3
ACAD_SCALELIST
350
47
  3
DWGPROPS
350
119
  0
DICTIONARY
  5
D
102
{ACAD_REACTORS
330
C
102
}
330
C
100
AcDbDictionary
281
     1
  0
DICTIONARY
  5
1A
102
{ACAD_REACTORS
330
C
102
}
330
C
100
AcDbDictionary
281
     1
  3
Layout1
350
1E
  3
Layout2
350
26
  3
Model
350
22
  0
DICTIONARY
  5
17
102
{ACAD_REACTORS
330
C
102
}
330
C
100
AcDbDictionary
281
     1
  3
Standard
350
18
  0
DICTIONARY
  5
19
102
{ACAD_REACTORS
330
C
102
}
330
C
100
AcDbDictionary
281
     1
  0
ACDBDICTIONARYWDFLT
  5
E
102
{ACAD_REACTORS
330
C
102
}
330
C
100
AcDbDictionary
281
     1
  3
Normal
350
F
100
AcDbDictionaryWithDefault
340
F
  0
DICTIONARY
  5
47
102
{ACAD_REACTORS
330
C
102
}
330
C
100
AcDbDictionary
281
     1
  3
A0
350
48
  3
A1
350
49
  3
A2
350
4A
  3
A3
350
4B
  3
A4
350
4C
  3
A5
350
4D
  3
A6
350
4E
  3
A7
350
4F
  3
A8
350
50
  3
A9
350
51
  3
B0
350
52
  3
B1
350
53
  3
B2
350
54
  3
B3
350
55
  3
B4
350
56
  3
B5
350
57
  3
B6
350
58
  0
XRECORD
  5
119
102
{ACAD_REACTORS
330
C
102
}
330
C
100
AcDbXrecord
280
     1
  1
DWGPROPS COOKIE
  2

  3

  4

  6

  7

  8

  9

300
=
301
=
302
=
303
=
304
=
305
=
306
=
307
=
308
=
309
=
 40
0.0
 41
2461215.299169607
 42
2461215.299170278
  1

 90
        0
  0
LAYOUT
  5
1E
102
{ACAD_REACTORS
330
1A
102
}
330
1A
100
AcDbPlotSettings
  1

  2
none_device
  4

  6

 40
0.0
 41
0.0
 42
0.0
 43
0.0
 44
0.0
 45
0.0
 46
0.0
 47
0.0
 48
0.0
 49
0.0
140
0.0
141
0.0
142
1.0
143
1.0
 70
   688
 72
     1
 73
     0
 74
     5
  7

 75
    16
147
1.0
148
0.0
149
0.0
100
AcDbLayout
  1
Layout1
 70
     1
 71
     1
 10
0.0
 20
0.0
 11
420.0
 21
297.0
 12
0.0
 22
0.0
 32
0.0
 14
1.0000000000E+20
 24
1.0000000000E+20
 34
1.0000000000E+20
 15
-1.0000000000E+20
 25
-1.0000000000E+20
 35
-1.0000000000E+20
146
0.0
 13
0.0
 23
0.0
 33
0.0
 16
1.0
 26
0.0
 36
0.0
 17
0.0
 27
1.0
 37
0.0
 76
     0
330
1B
  0
LAYOUT
  5
26
102
{ACAD_REACTORS
330
1A
102
}
330
1A
100
AcDbPlotSettings
  1

  2
none_device
  4

  6

 40
0.0
 41
0.0
 42
0.0
 43
0.0
 44
0.0
 45
0.0
 46
0.0
 47
0.0
 48
0.0
 49
0.0
140
0.0
141
0.0
142
1.0
143
1.0
 70
   688
 72
     1
 73
     0
 74
     5
  7

 75
    16
147
1.0
148
0.0
149
0.0
100
AcDbLayout
  1
Layout2
 70
     1
 71
     2
 10
0.0
 20
0.0
 11
0.0
 21
0.0
 12
0.0
 22
0.0
 32
0.0
 14
0.0
 24
0.0
 34
0.0
 15
0.0
 25
0.0
 35
0.0
146
0.0
 13
0.0
 23
0.0
 33
0.0
 16
1.0
 26
0.0
 36
0.0
 17
0.0
 27
1.0
 37
0.0
 76
     0
330
23
  0
LAYOUT
  5
22
102
{ACAD_REACTORS
330
1A
102
}
330
1A
100
AcDbPlotSettings
  1

  2
none_device
  4
Letter_(8.50_x_11.00_Inches)
  6

 40
6.35
 41
6.35
 42
6.35000508
 43
6.35000508
 44
215.9
 45
279.4
 46
0.0
 47
0.0
 48
0.0
 49
0.0
140
0.0
141
0.0
142
1.0
143
1.0
 70
  1712
 72
     1
 73
     0
 74
     0
  7

 75
     0
147
1.0
148
0.0
149
0.0
100
AcDbLayout
  1
Model
 70
     1
 71
     0
 10
0.0
 20
0.0
 11
297.0
 21
210.0
 12
0.0
 22
0.0
 32
0.0
 14
0.0
 24
0.0
 34
0.0
 15
297.0
 25
210.0
 35
0.0
146
0.0
 13
0.0
 23
0.0
 33
0.0
 16
1.0
 26
0.0
 36
0.0
 17
0.0
 27
1.0
 37
0.0
 76
     0
330
1F
331
29
  0
MLINESTYLE
  5
18
102
{ACAD_REACTORS
330
17
102
}
330
17
100
AcDbMlineStyle
  2
Standard
 70
     0
  3

 62
   256
 51
90.0
 52
90.0
 71
     2
 49
0.5
 62
   256
  6
BYLAYER
 49
-0.5
 62
   256
  6
BYLAYER
  0
ACDBPLACEHOLDER
  5
F
102
{ACAD_REACTORS
330
E
102
}
330
E
  0
SCALE
  5
48
102
{ACAD_REACTORS
330
47
102
}
330
47
100
AcDbScale
 70
     0
300
1:1
140
1.0
141
1.0
290
     1
  0
SCALE
  5
49
102
{ACAD_REACTORS
330
47
102
}
330
47
100
AcDbScale
 70
     0
300
1:2
140
1.0
141
2.0
290
     0
  0
SCALE
  5
4A
102
{ACAD_REACTORS
330
47
102
}
330
47
100
AcDbScale
 70
     0
300
1:4
140
1.0
141
4.0
290
     0
  0
SCALE
  5
4B
102
{ACAD_REACTORS
330
47
102
}
330
47
100
AcDbScale
 70
     0
300
1:5
140
1.0
141
5.0
290
     0
  0
SCALE
  5
4C
102
{ACAD_REACTORS
330
47
102
}
330
47
100
AcDbScale
 70
     0
300
1:8
140
1.0
141
8.0
290
     0
  0
SCALE
  5
4D
102
{ACAD_REACTORS
330
47
102
}
330
47
100
AcDbScale
 70
     0
300
1:10
140
1.0
141
10.0
290
     0
  0
SCALE
  5
4E
102
{ACAD_REACTORS
330
47
102
}
330
47
100
AcDbScale
 70
     0
300
1:16
140
1.0
141
16.0
290
     0
  0
SCALE
  5
4F
102
{ACAD_REACTORS
330
47
102
}
330
47
100
AcDbScale
 70
     0
300
1:20
140
1.0
141
20.0
290
     0
  0
SCALE
  5
50
102
{ACAD_REACTORS
330
47
102
}
330
47
100
AcDbScale
 70
     0
300
1:30
140
1.0
141
30.0
290
     0
  0
SCALE
  5
51
102
{ACAD_REACTORS
330
47
102
}
330
47
100
AcDbScale
 70
     0
300
1:40
140
1.0
141
40.0
290
     0
  0
SCALE
  5
52
102
{ACAD_REACTORS
330
47
102
}
330
47
100
AcDbScale
 70
     0
300
1:50
140
1.0
141
50.0
290
     0
  0
SCALE
  5
53
102
{ACAD_REACTORS
330
47
102
}
330
47
100
AcDbScale
 70
     0
300
1:100
140
1.0
141
100.0
290
     0
  0
SCALE
  5
54
102
{ACAD_REACTORS
330
47
102
}
330
47
100
AcDbScale
 70
     0
300
2:1
140
2.0
141
1.0
290
     0
  0
SCALE
  5
55
102
{ACAD_REACTORS
330
47
102
}
330
47
100
AcDbScale
 70
     0
300
4:1
140
4.0
141
1.0
290
     0
  0
SCALE
  5
56
102
{ACAD_REACTORS
330
47
102
}
330
47
100
AcDbScale
 70
     0
300
8:1
140
8.0
141
1.0
290
     0
  0
SCALE
  5
57
102
{ACAD_REACTORS
330
47
102
}
330
47
100
AcDbScale
 70
     0
300
10:1
140
10.0
141
1.0
290
     0
  0
SCALE
  5
58
102
{ACAD_REACTORS
330
47
102
}
330
47
100
AcDbScale
 70
     0
300
100:1
140
100.0
141
1.0
290
     0
  0
ENDSEC
  0
EOF
