  0
SECTION
  2
HEADER
  9
$ACADVER
  1
AC1015
  9
$ACADMAINTVER
 70
     6
  9
$DWGCODEPAGE
  3
ANSI_936
  9
$INSBASE
 10
0.0
 20
0.0
 30
0.0
  9
$EXTMIN
 10
0.0
 20
0.0
 30
0.0
  9
$EXTMAX
 10
297.0
 20
210.0
 30
0.0
  9
$LIMMIN
 10
0.0
 20
0.0
  9
$LIMMAX
 10
297.0
 20
210.0
  9
$ORTHOMODE
 70
     0
  9
$REGENMODE
 70
     1
  9
$FILLMODE
 70
     1
  9
$QTEXTMODE
 70
     0
  9
$MIRRTEXT
 70
     1
  9
$LTSCALE
 40
1.0
  9
$ATTMODE
 70
     1
  9
$TEXTSIZE
 40
3.5
  9
$TRACEWID
 40
1.0
  9
$TEXTSTYLE
  7
Standard
  9
$CLAYER
  8
0
  9
$CELTYPE
  6
ByLayer
  9
$CECOLOR
 62
   256
  9
$CELTSCALE
 40
1.0
  9
$DISPSILH
 70
     0
  9
$DIMSCALE
 40
1.0
  9
$DIMASZ
 40
4.08
  9
$DIMEXO
 40
0.0
  9
$DIMDLI
 40
3.75
  9
$DIMRND
 40
0.0
  9
$DIMDLE
 40
0.0
  9
$DIMEXE
 40
2.0
  9
$DIMTP
 40
0.0
  9
$DIMTM
 40
0.0
  9
$DIMTXT
 40
3.5
  9
$DIMCEN
 40
2.5
  9
$DIMTSZ
 40
0.0
  9
$DIMTOL
 70
     0
  9
$DIMLIM
 70
     0
  9
$DIMTIH
 70
     1
  9
$DIMTOH
 70
     1
  9
$DIMSE1
 70
     0
  9
$DIMSE2
 70
     0
  9
$DIMTAD
 70
     1
  9
$DIMZIN
 70
     0
  9
$DIMBLK
  1

  9
$DIMASO
 70
     1
  9
$DIMSHO
 70
     1
  9
$DIMPOST
  1

  9
$DIMAPOST
  1

  9
$DIMALT
 70
     0
  9
$DIMALTD
 70
     3
  9
$DIMALTF
 40
0.0393700787
  9
$DIMLFAC
 40
2.0
  9
$DIMTOFL
 70
     1
  9
$DIMTVP
 40
0.0
  9
$DIMTIX
 70
     0
  9
$DIMSOXD
 70
     0
  9
$DIMSAH
 70
     0
  9
$DIMBLK1
  1

  9
$DIMBLK2
  1

  9
$DIMSTYLE
  2
ISO-25
  9
$DIMCLRD
 70
     0
  9
$DIMCLRE
 70
     0
  9
$DIMCLRT
 70
     0
  9
$DIMTFAC
 40
1.0
  9
$DIMGAP
 40
1.524
  9
$DIMJUST
 70
     0
  9
$DIMSD1
 70
     0
  9
$DIMSD2
 70
     0
  9
$DIMTOLJ
 70
     0
  9
$DIMTZIN
 70
     0
  9
$DIMALTZ
 70
     0
  9
$DIMALTTZ
 70
     0
  9
$DIMUPT
 70
     0
  9
$DIMDEC
 70
     2
  9
$DIMTDEC
 70
     2
  9
$DIMALTU
 70
     2
  9
$DIMALTTD
 70
     3
  9
$DIMTXSTY
  7
Standard
  9
$DIMAUNIT
 70
     0
  9
$DIMADEC
 70
     2
  9
$DIMALTRND
 40
0.0
  9
$DIMAZIN
 70
     0
  9
$DIMDSEP
 70
    44
  9
$DIMATFIT
 70
     3
  9
$DIMFRAC
 70
     0
  9
$DIMLDRBLK
  1

  9
$DIMLUNIT
 70
     2
  9
$DIMLWD
 70
    -2
  9
$DIMLWE
 70
    -2
  9
$DIMTMOVE
 70
     0
  9
$LUNITS
 70
     2
  9
$LUPREC
 70
     2
  9
$SKETCHINC
 40
1.0
  9
$FILLETRAD
 40
0.0
  9
$AUNITS
 70
     0
  9
$AUPREC
 70
     2
  9
$MENU
  1
.
  9
$ELEVATION
 40
0.0
  9
$PELEVATION
 40
0.0
  9
$THICKNESS
 40
0.0
  9
$LIMCHECK
 70
     0
  9
$CHAMFERA
 40
0.0
  9
$CHAMFERB
 40
0.0
  9
$CHAMFERC
 40
0.0
  9
$CHAMFERD
 40
0.0
  9
$SKPOLY
 70
     0
  9
$TDCREATE
 40
2461215.645997257
  9
$TDUCREATE
 40
2461215.312663924
  9
$TDUPDATE
 40
2461215.645997489
  9
$TDUUPDATE
 40
2461215.312664155
  9
$TDINDWG
 40
0.0000000116
  9
$TDUSRTIMER
 40
0.0000000116
  9
$USRTIMER
 70
     1
  9
$ANGBASE
 50
0.0
  9
$ANGDIR
 70
     0
  9
$PDMODE
 70
     0
  9
$PDSIZE
 40
-1.0
  9
$PLINEWID
 40
0.0
  9
$SPLFRAME
 70
     0
  9
$SPLINETYPE
 70
     6
  9
$SPLINESEGS
 70
     8
  9
$HANDSEED
  5
12F
  9
$SURFTAB1
 70
     6
  9
$SURFTAB2
 70
     6
  9
$SURFTYPE
 70
     6
  9
$SURFU
 70
     6
  9
$SURFV
 70
     6
  9
$UCSBASE
  2

  9
$UCSNAME
  2

  9
$UCSORG
 10
0.0
 20
0.0
 30
0.0
  9
$UCSXDIR
 10
1.0
 20
0.0
 30
0.0
  9
$UCSYDIR
 10
0.0
 20
1.0
 30
0.0
  9
$UCSORTHOREF
  2

  9
$UCSORTHOVIEW
 70
     0
  9
$UCSORGTOP
 10
0.0
 20
0.0
 30
0.0
  9
$UCSORGBOTTOM
 10
0.0
 20
0.0
 30
0.0
  9
$UCSORGLEFT
 10
0.0
 20
0.0
 30
0.0
  9
$UCSORGRIGHT
 10
0.0
 20
0.0
 30
0.0
  9
$UCSORGFRONT
 10
0.0
 20
0.0
 30
0.0
  9
$UCSORGBACK
 10
0.0
 20
0.0
 30
0.0
  9
$PUCSBASE
  2

  9
$PUCSNAME
  2

  9
$PUCSORG
 10
0.0
 20
0.0
 30
0.0
  9
$PUCSXDIR
 10
1.0
 20
0.0
 30
0.0
  9
$PUCSYDIR
 10
0.0
 20
1.0
 30
0.0
  9
$PUCSORTHOREF
  2

  9
$PUCSORTHOVIEW
 70
     0
  9
$PUCSORGTOP
 10
0.0
 20
0.0
 30
0.0
  9
$PUCSORGBOTTOM
 10
0.0
 20
0.0
 30
0.0
  9
$PUCSORGLEFT
 10
0.0
 20
0.0
 30
0.0
  9
$PUCSORGRIGHT
 10
0.0
 20
0.0
 30
0.0
  9
$PUCSORGFRONT
 10
0.0
 20
0.0
 30
0.0
  9
$PUCSORGBACK
 10
0.0
 20
0.0
 30
0.0
  9
$USERI1
 70
     0
  9
$USERI2
 70
     0
  9
$USERI3
 70
     0
  9
$USERI4
 70
     0
  9
$USERI5
 70
     0
  9
$USERR1
 40
0.0
  9
$USERR2
 40
0.0
  9
$USERR3
 40
0.0
  9
$USERR4
 40
0.0
  9
$USERR5
 40
0.0
  9
$WORLDVIEW
 70
     1
  9
$SHADEDGE
 70
     3
  9
$SHADEDIF
 70
    70
  9
$TILEMODE
 70
     1
  9
$MAXACTVP
 70
    64
  9
$PINSBASE
 10
0.0
 20
0.0
 30
0.0
  9
$PLIMCHECK
 70
     0
  9
$PEXTMIN
 10
1.0000000000E+20
 20
1.0000000000E+20
 30
1.0000000000E+20
  9
$PEXTMAX
 10
-1.0000000000E+20
 20
-1.0000000000E+20
 30
-1.0000000000E+20
  9
$PLIMMIN
 10
0.0
 20
0.0
  9
$PLIMMAX
 10
420.0
 20
297.0
  9
$UNITMODE
 70
     0
  9
$VISRETAIN
 70
     1
  9
$PLINEGEN
 70
     0
  9
$PSLTSCALE
 70
     1
  9
$TREEDEPTH
 70
  3020
  9
$CMLSTYLE
  2
Standard
  9
$CMLJUST
 70
     0
  9
$CMLSCALE
 40
20.0
  9
$PROXYGRAPHICS
 70
     1
  9
$MEASUREMENT
 70
     1
  9
$CELWEIGHT
370
    -1
  9
$ENDCAPS
280
     0
  9
$JOINSTYLE
280
     0
  9
$LWDISPLAY
290
     1
  9
$INSUNITS
 70
     4
  9
$HYPERLINKBASE
  1

  9
$STYLESHEET
  1

  9
$XEDIT
290
     1
  9
$CEPSNTYPE
380
     0
  9
$PSTYLEMODE
290
     1
  9
$FINGERPRINTGUID
  2
{c4c0a980-659e-4b7c-8deb-7c4839068426}
  9
$VERSIONGUID
  2
{FAEB1C32-E019-11D5-929B-00C0DF256EC4}
  9
$EXTNAMES
290
     1
  9
$PSVPSCALE
 40
0.0
  9
$OLESTARTUP
290
     0
  0
ENDSEC
  0
SECTION
  2
CLASSES
  0
CLASS
  1
ACDBDICTIONARYWDFLT
  2
AcDbDictionaryWithDefault
  3
ObjectDBX Classes
 90
        0
280
     0
281
     0
  0
CLASS
  1
VISUALSTYLE
  2
AcDbVisualStyle
  3
ObjectDBX Classes
 90
     4095
280
     0
281
     0
  0
CLASS
  1
MATERIAL
  2
AcDbMaterial
  3
ObjectDBX Classes
 90
     1153
280
     0
281
     0
  0
CLASS
  1
SCALE
  2
AcDbScale
  3
ObjectDBX Classes
 90
     1153
280
     0
281
     0
  0
CLASS
  1
TABLESTYLE
  2
AcDbTableStyle
  3
ObjectDBX Classes
 90
     4095
280
     0
281
     0
  0
CLASS
  1
MLEADERSTYLE
  2
AcDbMLeaderStyle
  3
ACDB_MLEADERSTYLE_CLASS
 90
     4095
280
     0
281
     0
  0
CLASS
  1
SUN
  2
AcDbSun
  3
SCENEOE
 90
     1153
280
     0
281
     0
  0
CLASS
  1
ACDBPLACEHOLDER
  2
AcDbPlaceHolder
  3
ObjectDBX Classes
 90
        0
280
     0
281
     0
  0
CLASS
  1
LAYOUT
  2
AcDbLayout
  3
ObjectDBX Classes
 90
        0
280
     0
281
     0
  0
ENDSEC
  0
SECTION
  2
TABLES
  0
TABLE
  2
VPORT
  5
8
330
0
100
AcDbSymbolTable
 70
     1
  0
VPORT
  5
29
330
8
100
AcDbSymbolTableRecord
100
AcDbViewportTableRecord
  2
*Active
 70
     0
 10
0.0
 20
0.0
 11
1.0
 21
1.0
 12
148.5
 22
105.0
 13
0.0
 23
0.0
 14
10.0
 24
10.0
 15
10.0
 25
10.0
 16
0.0
 26
0.0
 36
1.0
 17
0.0
 27
0.0
 37
0.0
 40
210.0
 41
1.4142857143
 42
50.0
 43
0.0
 44
0.0
 50
0.0
 51
0.0
 71
     0
 72
  2000
 73
     1
 74
     3
 75
     0
 76
     0
 77
     0
 78
     0
281
     0
 65
     1
110
0.0
120
0.0
130
0.0
111
1.0
121
0.0
131
0.0
112
0.0
122
1.0
132
0.0
 79
     0
146
0.0
  0
ENDTAB
  0
TABLE
  2
LTYPE
  5
5
330
0
100
AcDbSymbolTable
 70
     6
  0
LTYPE
  5
14
330
5
100
AcDbSymbolTableRecord
100
AcDbLinetypeTableRecord
  2
ByBlock
 70
     0
  3

 72
    65
 73
     0
 40
0.0
  0
LTYPE
  5
15
330
5
100
AcDbSymbolTableRecord
100
AcDbLinetypeTableRecord
  2
ByLayer
 70
     0
  3

 72
    65
 73
     0
 40
0.0
  0
LTYPE
  5
16
330
5
100
AcDbSymbolTableRecord
100
AcDbLinetypeTableRecord
  2
Continuous
 70
     0
  3
Solid line
 72
    65
 73
     0
 40
0.0
  0
LTYPE
  5
5E
330
5
100
AcDbSymbolTableRecord
100
AcDbLinetypeTableRecord
  2
HIDDEN
 70
     0
  3
Hidden __ __ __ __ __ __ __ __ __ __ __ __ __ __
 72
    65
 73
     2
 40
1.905
 49
1.27
 74
     0
 49
-0.635
 74
     0
  0
LTYPE
  5
5F
330
5
100
AcDbSymbolTableRecord
100
AcDbLinetypeTableRecord
  2
PHANTOM
 70
     0
  3
Phantom ______  __  __  ______  __  __  ______
 72
    65
 73
     6
 40
12.7
 49
6.35
 74
     0
 49
-1.27
 74
     0
 49
1.27
 74
     0
 49
-1.27
 74
     0
 49
1.27
 74
     0
 49
-1.27
 74
     0
  0
LTYPE
  5
60
330
5
100
AcDbSymbolTableRecord
100
AcDbLinetypeTableRecord
  2
CENTER
 70
     0
  3
Center ____ _ ____ _ ____ _ ____ _ ____ _ ____
 72
    65
 73
     4
 40
10.16
 49
6.35
 74
     0
 49
-1.27
 74
     0
 49
1.27
 74
     0
 49
-1.27
 74
     0
  0
LTYPE
  5
61
330
5
100
AcDbSymbolTableRecord
100
AcDbLinetypeTableRecord
  2
CENTERX2
 70
     0
  3
Center (2x) ________  __  ________  __  _____
 72
    65
 73
     4
 40
20.32
 49
12.7
 74
     0
 49
-2.54
 74
     0
 49
2.54
 74
     0
 49
-2.54
 74
     0
  0
LTYPE
  5
62
330
5
100
AcDbSymbolTableRecord
100
AcDbLinetypeTableRecord
  2
DOT2
 70
     0
  3
Dot (.5x) ........................................
 72
    65
 73
     2
 40
0.635
 49
0.0
 74
     0
 49
-0.635
 74
     0
  0
ENDTAB
  0
TABLE
  2
LAYER
  5
2
330
0
100
AcDbSymbolTable
 70
    14
  0
LAYER
  5
10
330
2
100
AcDbSymbolTableRecord
100
AcDbLayerTableRecord
  2
0
 70
     0
 62
     7
  6
Continuous
370
    -3
390
F
  0
LAYER
  5
63
330
2
100
AcDbSymbolTableRecord
100
AcDbLayerTableRecord
  2
SLD-0
 70
     0
 62
     7
  6
Continuous
370
    -3
390
F
  0
LAYER
  5
64
330
2
100
AcDbSymbolTableRecord
100
AcDbLayerTableRecord
  2
5
 70
     0
 62
     7
  6
Continuous
370
    -3
390
F
  0
LAYER
  5
65
330
2
100
AcDbSymbolTableRecord
100
AcDbLayerTableRecord
  2
9
 70
     0
 62
     7
  6
Continuous
370
    -3
390
F
  0
LAYER
  5
66
330
2
100
AcDbSymbolTableRecord
100
AcDbLayerTableRecord
  2
10
 70
     0
 62
     7
  6
Continuous
370
    -3
390
F
  0
LAYER
  5
67
330
2
100
AcDbSymbolTableRecord
100
AcDbLayerTableRecord
  2
轮廓实线层
 70
     0
 62
     7
  6
Continuous
370
    50
390
F
  0
LAYER
  5
68
330
2
100
AcDbSymbolTableRecord
100
AcDbLayerTableRecord
  2
细线层
 70
     0
 62
     4
  6
Continuous
370
    25
390
F
  0
LAYER
  5
69
330
2
100
AcDbSymbolTableRecord
100
AcDbLayerTableRecord
  2
中心线层
 70
     0
 62
     1
  6
CENTERX2
370
    25
390
F
  0
LAYER
  5
6A
330
2
100
AcDbSymbolTableRecord
100
AcDbLayerTableRecord
  2
虚线层
 70
     0
 62
     6
  6
HIDDEN
370
    25
390
F
  0
LAYER
  5
6B
330
2
100
AcDbSymbolTableRecord
100
AcDbLayerTableRecord
  2
剖面线层
 70
     0
 62
     2
  6
Continuous
370
    25
390
F
  0
LAYER
  5
6C
330
2
100
AcDbSymbolTableRecord
100
AcDbLayerTableRecord
  2
文字层
 70
     0
 62
     3
  6
Continuous
370
    25
390
F
  0
LAYER
  5
6D
330
2
100
AcDbSymbolTableRecord
100
AcDbLayerTableRecord
  2
标注层
 70
     0
 62
     4
  6
Continuous
370
    25
390
F
  0
LAYER
  5
6E
330
2
100
AcDbSymbolTableRecord
100
AcDbLayerTableRecord
  2
符号标注层
 70
     0
 62
    31
  6
Continuous
370
    25
390
F
  0
LAYER
  5
6F
330
2
100
AcDbSymbolTableRecord
100
AcDbLayerTableRecord
  2
双点划线层
 70
     0
 62
     6
  6
PHANTOM
370
    25
390
F
  0
ENDTAB
  0
TABLE
  2
STYLE
  5
3
330
0
100
AcDbSymbolTable
 70
     1
  0
STYLE
  5
11
330
3
100
AcDbSymbolTableRecord
100
AcDbTextStyleTableRecord
  2
Standard
 70
     0
 40
0.0
 41
1.0
 50
0.0
 71
     0
 42
3.5
  3
txt
  4

  0
ENDTAB
  0
TABLE
  2
VIEW
  5
6
330
0
100
AcDbSymbolTable
 70
     0
  0
ENDTAB
  0
TABLE
  2
UCS
  5
7
330
0
100
AcDbSymbolTable
 70
     0
  0
ENDTAB
  0
TABLE
  2
APPID
  5
9
330
0
100
AcDbSymbolTable
 70
     1
  0
APPID
  5
12
330
9
100
AcDbSymbolTableRecord
100
AcDbRegAppTableRecord
  2
ACAD
 70
     0
  0
ENDTAB
  0
TABLE
  2
DIMSTYLE
  5
A
330
0
100
AcDbSymbolTable
 70
     1
100
AcDbDimStyleTable
  0
DIMSTYLE
105
27
330
A
100
AcDbSymbolTableRecord
100
AcDbDimStyleTableRecord
  2
ISO-25
 70
     0
 41
2.5
 42
0.625
 43
3.75
 44
1.25
 73
     0
 74
     0
 77
     1
 78
     8
140
2.5
141
2.5
143
0.0393700787
147
0.625
171
     3
172
     1
178
     0
271
     2
272
     2
274
     3
278
    44
283
     0
284
     8
340
11
  0
ENDTAB
  0
TABLE
  2
BLOCK_RECORD
  5
1
330
0
100
AcDbSymbolTable
 70
     1
  0
BLOCK_RECORD
  5
1F
330
1
100
AcDbSymbolTableRecord
100
AcDbBlockTableRecord
  2
*Model_Space
340
22
  0
BLOCK_RECORD
  5
1B
330
1
100
AcDbSymbolTableRecord
100
AcDbBlockTableRecord
  2
*Paper_Space
340
1E
  0
BLOCK_RECORD
  5
23
330
1
100
AcDbSymbolTableRecord
100
AcDbBlockTableRecord
  2
*Paper_Space0
340
26
  0
ENDTAB
  0
ENDSEC
  0
SECTION
  2
BLOCKS
  0
BLOCK
  5
20
330
1F
100
AcDbEntity
  8
0
100
AcDbBlockBegin
  2
*Model_Space
 70
     0
 10
0.0
 20
0.0
 30
0.0
  3
*Model_Space
  1

  0
ENDBLK
  5
21
330
1F
100
AcDbEntity
  8
0
100
AcDbBlockEnd
  0
BLOCK
  5
1C
330
1B
100
AcDbEntity
 67
     1
  8
0
100
AcDbBlockBegin
  2
*Paper_Space
 70
     0
 10
0.0
 20
0.0
 30
0.0
  3
*Paper_Space
  1

  0
ENDBLK
  5
1D
330
1B
100
AcDbEntity
 67
     1
  8
0
100
AcDbBlockEnd
  0
BLOCK
  5
24
330
23
100
AcDbEntity
  8
0
100
AcDbBlockBegin
  2
*Paper_Space0
 70
     0
 10
0.0
 20
0.0
 30
0.0
  3
*Paper_Space0
  1

  0
ENDBLK
  5
25
330
23
100
AcDbEntity
  8
0
100
AcDbBlockEnd
  0
ENDSEC
  0
SECTION
  2
ENTITIES
  0
LINE
  5
70
330
1F
100
AcDbEntity
  8
0
  6
Continuous
 62
     7
370
    25
100
AcDbLine
 10
71.8666666667
 20
42.4111111111
 30
0.0
 11
51.3176260925
 21
42.4111111111
 31
0.0
  0
ARC
  5
71
330
1F
100
AcDbEntity
  8
0
  6
Continuous
 62
     7
370
    25
100
AcDbCircle
 10
51.3176260925
 20
59.0777777778
 30
0.0
 40
16.66666666666634
100
AcDbArc
 50
259.1307341776
 51
270.0
  0
SPLINE
  5
72
330
1F
100
AcDbEntity
  8
0
  6
Continuous
 62
     7
370
    25
100
AcDbSpline
210
0.0
220
0.0
230
1.0
 70
     8
 71
     3
 72
     8
 73
     4
 74
     0
 42
0.00000001
 43
0.00000001
 40
0.0
 40
0.0
 40
0.0
 40
0.0
 40
1.0
 40
1.0
 40
1.0
 40
1.0
 10
48.30530150327701
 20
43.224703385593
 30
0.0
 10
48.26160334323919
 20
43.05319877540769
 30
0.0
 10
48.21810962696212
 20
42.88166775017297
 30
0.0
 10
48.17481474592949
 20
42.71011103453412
 30
0.0
  0
SPLINE
  5
73
330
1F
100
AcDbEntity
  8
0
  6
Continuous
 62
     7
370
    25
100
AcDbSpline
210
0.0
220
0.0
230
1.0
 70
     8
 71
     3
 72
    10
 73
     6
 74
     0
 42
0.00000001
 43
0.00000001
 40
0.0
 40
0.0
 40
0.0
 40
0.0
 40
0.4999999999999994
 40
0.4999999999999994
 40
1.0
 40
1.0
 40
1.0
 40
1.0
 10
56.25220150064386
 20
45.18888888888893
 30
0.0
 10
54.87791608142516
 20
44.96227179257116
 30
0.0
 10
53.53629587033287
 20
44.6695745979271
 30
0.0
 10
50.89395304276987
 20
44.00144640013744
 30
0.0
 10
49.5932777911125
 20
43.62591958031888
 30
0.0
 10
48.30530150327721
 20
43.22470338559297
 30
0.0
  0
LINE
  5
74
330
1F
100
AcDbEntity
  8
0
  6
Continuous
 62
     7
370
    25
100
AcDbLine
 10
56.2522015006
 20
45.1888888889
 30
0.0
 11
74.8661293746
 21
45.1888888889
 31
0.0
  0
SPLINE
  5
75
330
1F
100
AcDbEntity
  8
0
  6
Continuous
 62
     7
370
    25
100
AcDbSpline
210
0.0
220
0.0
230
1.0
 70
     8
 71
     3
 72
    10
 73
     6
 74
     0
 42
0.00000001
 43
0.00000001
 40
0.0
 40
0.0
 40
0.0
 40
0.0
 40
0.3254480145550872
 40
0.6587173641246267
 40
1.0
 40
1.0
 40
1.0
 40
1.0
 10
75.5854740666959
 20
44.68512979646649
 30
0.0
 10
75.5051719069431
 20
44.73813836075833
 30
0.0
 10
75.34263772440032
 20
44.84542941857622
 30
0.0
 10
75.10289038769871
 20
45.01350386084446
 30
0.0
 10
74.94567226569498
 20
45.1299660451427
 30
0.0
 10
74.86612937464648
 20
45.18888888888898
 30
0.0
  0
ARC
  5
76
330
1F
100
AcDbEntity
  8
0
  6
Continuous
 62
     7
370
    25
100
AcDbCircle
 10
71.8666666667
 20
46.5888888889
 30
0.0
 40
4.177777777777962
100
AcDbArc
 50
270.0
 51
332.8908531857
  0
SPLINE
  5
77
330
1F
100
AcDbEntity
  8
0
  6
Continuous
 62
     7
370
    25
100
AcDbSpline
210
0.0
220
0.0
230
1.0
 70
     8
 71
     3
 72
    12
 73
     8
 74
     0
 42
0.00000001
 43
0.00000001
 40
0.0
 40
0.0
 40
0.0
 40
0.0
 40
0.2500000000000001
 40
0.2500000000000001
 40
0.5000000000000001
 40
0.5000000000000001
 40
1.0
 40
1.0
 40
1.0
 40
1.0
 10
76.04444444444445
 20
46.58888888888907
 30
0.0
 10
76.04444444444445
 20
46.40278320100053
 30
0.0
 10
76.03212154952767
 20
46.22317269495051
 30
0.0
 10
75.98664285374468
 20
45.87435482142298
 30
0.0
 10
75.95302686349577
 20
45.70440378145773
 30
0.0
 10
75.83034592579475
 20
45.22860233699481
 30
0.0
 10
75.718275008375
 20
44.94454346209927
 30
0.0
 10
75.58547406669595
 20
44.68512979646657
 30
0.0
  0
ARC
  5
78
330
1F
100
AcDbEntity
  8
0
  6
Continuous
 62
     7
370
    25
100
AcDbCircle
 10
80.2222222222
 20
46.7457685716
 30
0.0
 40
5.577777777777799
100
AcDbArc
 50
100.9276639093
 51
196.2078012993
  0
ARC
  5
79
330
1F
100
AcDbEntity
  8
0
  6
Continuous
 62
     7
370
    25
100
AcDbCircle
 10
80.2222222222
 20
46.7457685716
 30
0.0
 40
4.177777777777777
100
AcDbArc
 50
100.9276639093
 51
180.0
  0
SPLINE
  5
7A
330
1F
100
AcDbEntity
  8
0
  6
Continuous
 62
     7
370
    25
100
AcDbSpline
210
0.0
220
0.0
230
1.0
 70
    24
 71
     3
 72
     8
 73
     4
 74
     0
 42
0.00000001
 43
0.00000001
 40
0.0
 40
0.0
 40
0.0
 40
0.0
 40
1.0
 40
1.0
 40
1.0
 40
1.0
 10
76.04444444444445
 20
46.74576857159396
 30
0.0
 10
76.04444444444445
 20
46.69345692264584
 30
0.0
 10
76.04444444444445
 20
46.64116372100735
 30
0.0
 10
76.04444444444445
 20
46.58888888888907
 30
0.0
  0
ARC
  5
7B
330
1F
100
AcDbEntity
  8
0
  6
Continuous
 62
     7
370
    25
100
AcDbCircle
 10
61.8675134595
 20
68.1111111111
 30
0.0
 40
23.59999999999994
100
AcDbArc
 50
210.0
 51
256.2351907457
  0
LINE
  5
7C
330
1F
100
AcDbEntity
  8
0
  6
Continuous
 62
     7
370
    25
100
AcDbLine
 10
41.0315837447
 20
57.0
 30
0.0
 11
41.4293139302
 21
56.3111111111
 31
0.0
  0
LINE
  5
7D
330
1F
100
AcDbEntity
  8
0
  6
Continuous
 62
     7
370
    25
100
AcDbLine
 10
41.4293139302
 20
57.6888888889
 30
0.0
 11
41.0315837447
 21
57.0
 31
0.0
  0
ARC
  5
7E
330
1F
100
AcDbEntity
  8
0
  6
Continuous
 62
     7
370
    25
100
AcDbCircle
 10
61.8675134595
 20
45.8888888889
 30
0.0
 40
23.60000000000002
100
AcDbArc
 50
103.7648092543
 51
150.0
  0
LINE
  5
7F
330
1F
100
AcDbEntity
  8
0
  6
Continuous
 62
     7
370
    25
100
AcDbLine
 10
74.8661293746
 20
68.8111111111
 30
0.0
 11
56.2522015006
 21
68.8111111111
 31
0.0
  0
ARC
  5
80
330
1F
100
AcDbEntity
  8
0
  6
Continuous
 62
     7
370
    25
100
AcDbCircle
 10
80.2222222222
 20
67.2542314284
 30
0.0
 40
5.577777777777794
100
AcDbArc
 50
163.7921987007
 51
259.0723360907
  0
ARC
  5
81
330
1F
100
AcDbEntity
  8
0
  6
Continuous
 62
     7
370
    25
100
AcDbCircle
 10
87.8555555556
 20
106.7907546274
 30
0.0
 40
45.84444444444448
100
AcDbArc
 50
259.0723360907
 51
280.9276639093
  0
ARC
  5
82
330
1F
100
AcDbEntity
  8
0
  6
Continuous
 62
     7
370
    25
100
AcDbCircle
 10
95.4888888889
 20
67.2542314284
 30
0.0
 40
5.577777777777783
100
AcDbArc
 50
280.9276639093
 51
0.0
  0
LINE
  5
83
330
1F
100
AcDbEntity
  8
0
  6
Continuous
 62
     7
370
    25
100
AcDbLine
 10
101.0666666667
 20
73.6555555556
 30
0.0
 11
101.0666666667
 21
67.2542314284
 31
0.0
  0
ARC
  5
84
330
1F
100
AcDbEntity
  8
0
  6
Continuous
 62
     7
370
    25
100
AcDbCircle
 10
103.8444444444
 20
73.6555555556
 30
0.0
 40
2.777777777777786
100
AcDbArc
 50
90.0
 51
180.0
  0
LINE
  5
85
330
1F
100
AcDbEntity
  8
0
  6
Continuous
 62
     7
370
    25
100
AcDbLine
 10
122.4341969935
 20
76.4333333333
 30
0.0
 11
103.8444444444
 21
76.4333333333
 31
0.0
  0
ARC
  5
86
330
1F
100
AcDbEntity
  8
0
  6
Continuous
 62
     7
370
    25
100
AcDbCircle
 10
122.4341969935
 20
69.5
 30
0.0
 40
6.933333333333402
100
AcDbArc
 50
20.2522467422
 51
90.0
  0
ARC
  5
87
330
1F
100
AcDbEntity
  8
0
  6
Continuous
 62
     7
370
    25
100
AcDbCircle
 10
88.5555555556
 20
57.0
 30
0.0
 40
43.04444444444447
100
AcDbArc
 50
339.7477532578
 51
20.2522467422
  0
ARC
  5
88
330
1F
100
AcDbEntity
  8
0
  6
Continuous
 62
     7
370
    25
100
AcDbCircle
 10
122.4341969935
 20
44.5
 30
0.0
 40
6.933333333333399
100
AcDbArc
 50
270.0
 51
339.7477532578
  0
LINE
  5
89
330
1F
100
AcDbEntity
  8
0
  6
Continuous
 62
     7
370
    25
100
AcDbLine
 10
103.8444444444
 20
37.5666666667
 30
0.0
 11
122.4341969935
 21
37.5666666667
 31
0.0
  0
ARC
  5
8A
330
1F
100
AcDbEntity
  8
0
  6
Continuous
 62
     7
370
    25
100
AcDbCircle
 10
103.8444444444
 20
40.3444444444
 30
0.0
 40
2.777777777777786
100
AcDbArc
 50
180.0
 51
270.0
  0
LINE
  5
8B
330
1F
100
AcDbEntity
  8
0
  6
Continuous
 62
     7
370
    25
100
AcDbLine
 10
101.0666666667
 20
46.7457685716
 30
0.0
 11
101.0666666667
 21
40.3444444444
 31
0.0
  0
ARC
  5
8C
330
1F
100
AcDbEntity
  8
0
  6
Continuous
 62
     7
370
    25
100
AcDbCircle
 10
95.4888888889
 20
46.7457685716
 30
0.0
 40
5.577777777777783
100
AcDbArc
 50
0.0
 51
79.0723360907
  0
ARC
  5
8D
330
1F
100
AcDbEntity
  8
0
  6
Continuous
 62
     7
370
    25
100
AcDbCircle
 10
87.8555555556
 20
7.2092453726
 30
0.0
 40
45.84444444444448
100
AcDbArc
 50
79.0723360907
 51
100.9276639093
  0
LINE
  5
8E
330
1F
100
AcDbEntity
  8
0
  6
Continuous
 62
     7
370
    25
100
AcDbLine
 10
112.1555555556
 20
72.9888888889
 30
0.0
 11
121.9111111111
 21
72.9888888889
 31
0.0
  0
LINE
  5
8F
330
1F
100
AcDbEntity
  8
0
  6
Continuous
 62
     7
370
    25
100
AcDbLine
 10
112.1555555556
 20
41.0111111111
 30
0.0
 11
112.1555555556
 21
72.9888888889
 31
0.0
  0
LINE
  5
90
330
1F
100
AcDbEntity
  8
0
  6
Continuous
 62
     7
370
    25
100
AcDbLine
 10
121.9111111111
 20
41.0111111111
 30
0.0
 11
112.1555555556
 21
41.0111111111
 31
0.0
  0
LINE
  5
91
330
1F
100
AcDbEntity
  8
0
  6
Continuous
 62
     7
370
    25
100
AcDbLine
 10
121.9111111111
 20
72.9888888889
 30
0.0
 11
121.9111111111
 21
41.0111111111
 31
0.0
  0
ARC
  5
92
330
1F
100
AcDbEntity
  8
0
  6
Continuous
 62
     7
370
    25
100
AcDbCircle
 10
61.8675134595
 20
68.1111111111
 30
0.0
 40
28.34196328107358
100
AcDbArc
 50
210.0
 51
241.411178463
  0
LINE
  5
93
330
1F
100
AcDbEntity
  8
0
  6
Continuous
 62
     7
370
    25
100
AcDbLine
 10
37.3226532649
 20
53.9401294706
 30
0.0
 11
35.5560361911
 21
57.0
 31
0.0
  0
LINE
  5
94
330
1F
100
AcDbEntity
  8
0
  6
Continuous
 62
     7
370
    25
100
AcDbLine
 10
41.0315837447
 20
57.0
 30
0.0
 11
35.5560361911
 21
57.0
 31
0.0
  0
LINE
  5
95
330
1F
100
AcDbEntity
  8
0
  6
Continuous
 62
     7
370
    25
100
AcDbLine
 10
121.9111111111
 20
41.0111111111
 30
0.0
 11
120.5111111111
 21
42.4111111111
 31
0.0
  0
LINE
  5
96
330
1F
100
AcDbEntity
  8
0
  6
Continuous
 62
     7
370
    25
100
AcDbLine
 10
120.5111111111
 20
42.4111111111
 30
0.0
 11
120.5111111111
 21
71.5888888889
 31
0.0
  0
LINE
  5
97
330
1F
100
AcDbEntity
  8
0
  6
Continuous
 62
     7
370
    25
100
AcDbLine
 10
121.9111111111
 20
72.9888888889
 30
0.0
 11
120.5111111111
 21
71.5888888889
 31
0.0
  0
LINE
  5
98
330
1F
100
AcDbEntity
  8
0
  6
Continuous
 62
     7
370
    25
100
AcDbLine
 10
113.5555555556
 20
71.5888888889
 30
0.0
 11
113.5555555556
 21
42.4111111111
 31
0.0
  0
LINE
  5
99
330
1F
100
AcDbEntity
  8
0
  6
Continuous
 62
     7
370
    25
100
AcDbLine
 10
113.5555555556
 20
42.4111111111
 30
0.0
 11
112.1555555556
 21
41.0111111111
 31
0.0
  0
LINE
  5
9A
330
1F
100
AcDbEntity
  8
0
  6
Continuous
 62
     7
370
    25
100
AcDbLine
 10
113.5555555556
 20
71.5888888889
 30
0.0
 11
112.1555555556
 21
72.9888888889
 31
0.0
  0
ARC
  5
9B
330
1F
100
AcDbEntity
  8
0
  6
Continuous
 62
     7
370
    25
100
AcDbCircle
 10
61.8675134595
 20
45.8888888889
 30
0.0
 40
28.3419632810737
100
AcDbArc
 50
118.588821537
 51
150.0
  0
SPLINE
  5
9C
330
1F
100
AcDbEntity
  8
0
  6
Continuous
 62
     7
370
    25
100
AcDbSpline
210
0.0
220
0.0
230
1.0
 70
     8
 71
     3
 72
    10
 73
     6
 74
     0
 42
0.00000001
 43
0.00000001
 40
0.0
 40
0.0
 40
0.0
 40
0.0
 40
0.5
 40
0.5
 40
1.0
 40
1.0
 40
1.0
 40
1.0
 10
48.30530150327796
 20
70.77529661440727
 30
0.0
 10
49.59327779111354
 20
70.37408041968129
 30
0.0
 10
50.89395304277119
 20
69.99855359986269
 30
0.0
 10
53.53629587033485
 20
69.33042540207299
 30
0.0
 10
54.87791608142699
 20
69.03772820742903
 30
0.0
 10
56.25220150064602
 20
68.8111111111113
 30
0.0
  0
LINE
  5
9D
330
1F
100
AcDbEntity
  8
0
  6
Continuous
 62
     7
370
    25
100
AcDbLine
 10
113.5555555556
 20
42.4111111111
 30
0.0
 11
120.5111111111
 21
42.4111111111
 31
0.0
  0
SPLINE
  5
9E
330
1F
100
AcDbEntity
  8
0
  6
Continuous
 62
     7
370
    25
100
AcDbSpline
210
0.0
220
0.0
230
1.0
 70
     8
 71
     3
 72
     8
 73
     4
 74
     0
 42
0.00000001
 43
0.00000001
 40
0.0
 40
0.0
 40
0.0
 40
0.0
 40
1.0
 40
1.0
 40
1.0
 40
1.0
 10
48.17481474593036
 20
71.28988896546606
 30
0.0
 10
48.21810962696291
 20
71.1183322498273
 30
0.0
 10
48.26160334323998
 20
70.94680122459258
 30
0.0
 10
48.30530150327788
 20
70.77529661440718
 30
0.0
  0
ARC
  5
9F
330
1F
100
AcDbEntity
  8
0
  6
Continuous
 62
     7
370
    25
100
AcDbCircle
 10
51.3176260925
 20
54.9222222222
 30
0.0
 40
16.66666666666661
100
AcDbArc
 50
90.0
 51
100.8692658224
  0
LINE
  5
A0
330
1F
100
AcDbEntity
  8
0
  6
Continuous
 62
     7
370
    25
100
AcDbLine
 10
51.3176260925
 20
71.5888888889
 30
0.0
 11
71.8666666667
 21
71.5888888889
 31
0.0
  0
ARC
  5
A1
330
1F
100
AcDbEntity
  8
0
  6
Continuous
 62
     7
370
    25
100
AcDbCircle
 10
71.8666666667
 20
67.4111111111
 30
0.0
 40
4.177777777777775
100
AcDbArc
 50
27.1091468143
 51
90.0
  0
SPLINE
  5
A2
330
1F
100
AcDbEntity
  8
0
  6
Continuous
 62
     7
370
    25
100
AcDbSpline
210
0.0
220
0.0
230
1.0
 70
     8
 71
     3
 72
     9
 73
     5
 74
     0
 42
0.00000001
 43
0.00000001
 40
0.0
 40
0.0
 40
0.0
 40
0.0
 40
0.5089083642343543
 40
1.0
 40
1.0
 40
1.0
 40
1.0
 10
74.86612937464655
 20
68.8111111111113
 30
0.0
 10
74.98491337790993
 20
68.89888364835937
 30
0.0
 10
75.21832279227887
 20
69.07135583277734
 30
0.0
 10
75.46455264536807
 20
69.2346686466349
 30
0.0
 10
75.58547406669598
 20
69.31487020353369
 30
0.0
  0
LINE
  5
A3
330
1F
100
AcDbEntity
  8
0
  6
Continuous
 62
     7
370
    25
100
AcDbLine
 10
99.6666666667
 20
40.3444444444
 30
0.0
 11
99.6666666667
 21
46.7457685716
 31
0.0
  0
ARC
  5
A4
330
1F
100
AcDbEntity
  8
0
  6
Continuous
 62
     7
370
    25
100
AcDbCircle
 10
103.8444444444
 20
73.6555555556
 30
0.0
 40
4.177777777777791
100
AcDbArc
 50
90.0
 51
180.0
  0
ARC
  5
A5
330
1F
100
AcDbEntity
  8
0
  6
Continuous
 62
     7
370
    25
100
AcDbCircle
 10
95.4888888889
 20
46.7457685716
 30
0.0
 40
4.177777777777791
100
AcDbArc
 50
0.0
 51
79.0723360907
  0
LINE
  5
A6
330
1F
100
AcDbEntity
  8
0
  6
Continuous
 62
     7
370
    25
100
AcDbLine
 10
99.6666666667
 20
67.2542314284
 30
0.0
 11
99.6666666667
 21
73.6555555556
 31
0.0
  0
ARC
  5
A7
330
1F
100
AcDbEntity
  8
0
  6
Continuous
 62
     7
370
    25
100
AcDbCircle
 10
87.8555555556
 20
7.2092453726
 30
0.0
 40
44.44444444444447
100
AcDbArc
 50
79.0723360907
 51
100.9276639093
  0
ARC
  5
A8
330
1F
100
AcDbEntity
  8
0
  6
Continuous
 62
     7
370
    25
100
AcDbCircle
 10
95.4888888889
 20
67.2542314284
 30
0.0
 40
4.177777777777791
100
AcDbArc
 50
280.9276639093
 51
0.0
  0
LINE
  5
A9
330
1F
100
AcDbEntity
  8
0
  6
Continuous
 62
     7
370
    25
100
AcDbLine
 10
120.5111111111
 20
71.5888888889
 30
0.0
 11
113.5555555556
 21
71.5888888889
 31
0.0
  0
ARC
  5
AA
330
1F
100
AcDbEntity
  8
0
  6
Continuous
 62
     7
370
    25
100
AcDbCircle
 10
87.8555555556
 20
106.7907546274
 30
0.0
 40
44.44444444444448
100
AcDbArc
 50
259.0723360907
 51
280.9276639093
  0
SPLINE
  5
AB
330
1F
100
AcDbEntity
  8
0
  6
Continuous
 62
     7
370
    25
100
AcDbSpline
210
0.0
220
0.0
230
1.0
 70
     8
 71
     3
 72
    12
 73
     8
 74
     0
 42
0.00000001
 43
0.00000001
 40
0.0
 40
0.0
 40
0.0
 40
0.0
 40
0.5
 40
0.5
 40
0.75
 40
0.75
 40
1.0
 40
1.0
 40
1.0
 40
1.0
 10
75.585474066696
 20
69.31487020353369
 30
0.0
 10
75.71803186231908
 20
69.05593149996724
 30
0.0
 10
75.82892052332164
 20
68.77597806261407
 30
0.0
 10
75.95261894577715
 20
68.29764576817364
 30
0.0
 10
75.9859752523335
 20
68.12948704958282
 30
0.0
 10
76.03178148271864
 20
67.78068624829959
 30
0.0
 10
76.04444444444447
 20
67.5967843016595
 30
0.0
 10
76.04444444444447
 20
67.4111111111113
 30
0.0
  0
SPLINE
  5
AC
330
1F
100
AcDbEntity
  8
0
  6
Continuous
 62
     7
370
    25
100
AcDbSpline
210
0.0
220
0.0
230
1.0
 70
    24
 71
     3
 72
     8
 73
     4
 74
     0
 42
0.00000001
 43
0.00000001
 40
0.0
 40
0.0
 40
0.0
 40
0.0
 40
1.0
 40
1.0
 40
1.0
 40
1.0
 10
76.04444444444445
 20
67.41111111111128
 30
0.0
 10
76.04444444444445
 20
67.35883627899284
 30
0.0
 10
76.04444444444445
 20
67.30654307735435
 30
0.0
 10
76.04444444444445
 20
67.25423142840604
 30
0.0
  0
ARC
  5
AD
330
1F
100
AcDbEntity
  8
0
  6
Continuous
 62
     7
370
    25
100
AcDbCircle
 10
80.2222222222
 20
67.2542314284
 30
0.0
 40
4.177777777777777
100
AcDbArc
 50
180.0
 51
259.0723360907
  0
LINE
  5
AE
330
1F
100
AcDbEntity
  8
0
  6
Continuous
 62
     7
370
    25
100
AcDbLine
 10
103.8444444444
 20
77.8333333333
 30
0.0
 11
122.4341969935
 21
77.8333333333
 31
0.0
  0
ARC
  5
AF
330
1F
100
AcDbEntity
  8
0
  6
Continuous
 62
     7
370
    25
100
AcDbCircle
 10
88.5555555556
 20
57.0
 30
0.0
 40
44.44444444444449
100
AcDbArc
 50
339.7477532578
 51
20.2522467422
  0
LINE
  5
B0
330
1F
100
AcDbEntity
  8
0
  6
Continuous
 62
     7
370
    25
100
AcDbLine
 10
35.5560361911
 20
57.0
 30
0.0
 11
37.3226532649
 21
60.0598705294
 31
0.0
  0
ARC
  5
B1
330
1F
100
AcDbEntity
  8
0
  6
Continuous
 62
     7
370
    25
100
AcDbCircle
 10
122.4341969935
 20
69.5
 30
0.0
 40
8.333333333333417
100
AcDbArc
 50
20.2522467422
 51
90.0
  0
ARC
  5
B2
330
1F
100
AcDbEntity
  8
0
  6
Continuous
 62
     7
370
    25
100
AcDbCircle
 10
122.4341969935
 20
44.5
 30
0.0
 40
8.333333333333414
100
AcDbArc
 50
270.0
 51
339.7477532578
  0
LINE
  5
B3
330
1F
100
AcDbEntity
  8
0
  6
Continuous
 62
     7
370
    25
100
AcDbLine
 10
122.4341969935
 20
36.1666666667
 30
0.0
 11
103.8444444444
 21
36.1666666667
 31
0.0
  0
ARC
  5
B4
330
1F
100
AcDbEntity
  8
0
  6
Continuous
 62
     7
370
    25
100
AcDbCircle
 10
103.8444444444
 20
40.3444444444
 30
0.0
 40
4.177777777777784
100
AcDbArc
 50
180.0
 51
270.0
  0
ARC
  5
B5
330
1F
100
AcDbEntity
  8
0
  6
Continuous
 62
     7
370
    25
100
AcDbCircle
 10
61.8675134595
 20
68.1111111111
 30
0.0
 40
30.55555555555643
100
AcDbArc
 50
210.0
 51
220.571766951
  0
SPLINE
  5
B6
330
1F
100
AcDbEntity
  8
0
  6
Continuous
 62
     7
370
    25
100
AcDbSpline
210
0.0
220
0.0
230
1.0
 70
     8
 71
     3
 72
    18
 73
    14
 74
     0
 42
0.00000001
 43
0.00000001
 40
0.0
 40
0.0
 40
0.0
 40
0.0
 40
0.2500000000000006
 40
0.2500000000000006
 40
0.3750000000000008
 40
0.3750000000000008
 40
0.5000000000000011
 40
0.5000000000000011
 40
0.7500000000000014
 40
0.7500000000000014
 40
0.8750000000000007
 40
0.8750000000000007
 40
1.0
 40
1.0
 40
1.0
 40
1.0
 10
48.17481474592942
 20
42.71011103453416
 30
0.0
 10
47.27468672891723
 20
42.88294767579615
 30
0.0
 10
46.39264913442715
 20
43.1288069342243
 30
0.0
 10
45.09786229956428
 20
43.60831951495182
 30
0.0
 10
44.67099764723341
 20
43.78669697484043
 30
0.0
 10
43.82718699671236
 20
44.18186746777168
 30
0.0
 10
43.40827831054126
 20
44.39982325244411
 30
0.0
 10
42.18241937329506
 20
45.10583480633289
 30
0.0
 10
41.41166163100485
 20
45.64145988470837
 30
0.0
 10
40.32485643768395
 20
46.54150874512138
 30
0.0
 10
39.97420240186178
 20
46.85771130618419
 30
0.0
 10
39.29680726844357
 20
47.52341927569034
 30
0.0
 10
38.96926011233511
 20
47.87398317728957
 30
0.0
 10
38.65776125203958
 20
48.23777777777728
 30
0.0
  0
ARC
  5
B7
330
1F
100
AcDbEntity
  8
0
  6
Continuous
 62
     7
370
    25
100
AcDbCircle
 10
61.8675134595
 20
45.8888888889
 30
0.0
 40
30.55555555555769
100
AcDbArc
 50
139.428233049
 51
150.0
  0
SPLINE
  5
B8
330
1F
100
AcDbEntity
  8
0
  6
Continuous
 62
     7
370
    25
100
AcDbSpline
210
0.0
220
0.0
230
1.0
 70
     8
 71
     3
 72
    18
 73
    14
 74
     0
 42
0.00000001
 43
0.00000001
 40
0.0
 40
0.0
 40
0.0
 40
0.0
 40
0.2500000000000006
 40
0.2500000000000006
 40
0.3750000000000008
 40
0.3750000000000008
 40
0.5000000000000011
 40
0.5000000000000011
 40
0.7500000000000014
 40
0.7500000000000014
 40
0.8750000000000007
 40
0.8750000000000007
 40
1.0
 40
1.0
 40
1.0
 40
1.0
 10
38.65776125203953
 20
65.76222222222293
 30
0.0
 10
39.28039902488786
 20
66.48939104591308
 30
0.0
 10
39.95507651940692
 20
67.15148501033818
 30
0.0
 10
41.04109104420131
 20
68.05202652466474
 30
0.0
 10
41.41550076201782
 20
68.33668265286374
 30
0.0
 10
42.18926802523852
 20
68.87474578255451
 30
0.0
 10
42.59078591655931
 20
69.12932455535076
 30
0.0
 10
43.81485102879877
 20
69.83439904687378
 30
0.0
 10
44.65571994707337
 20
70.22730782143944
 30
0.0
 10
45.95139968550912
 20
70.7080895457173
 30
0.0
 10
46.3890541108936
 20
70.85014926164894
 30
0.0
 10
47.27574970118029
 20
71.09791128910283
 30
0.0
 10
47.72493689399811
 20
71.20350638939189
 30
0.0
 10
48.17481474593035
 20
71.28988896546612
 30
0.0
  0
LINE
  5
B9
330
1F
100
AcDbEntity
  8
0
  6
Continuous
 62
     7
370
    25
100
AcDbLine
 10
35.4056261216
 20
61.1666666667
 30
0.0
 11
33.0
 21
57.0
 31
0.0
  0
LINE
  5
BA
330
1F
100
AcDbEntity
  8
0
  6
Continuous
 62
     7
370
    25
100
AcDbLine
 10
33.0
 20
57.0
 30
0.0
 11
35.5560361911
 21
57.0
 31
0.0
  0
LINE
  5
BB
330
1F
100
AcDbEntity
  8
0
  6
Continuous
 62
     7
370
    25
100
AcDbLine
 10
33.0
 20
57.0
 30
0.0
 11
35.4056261216
 21
52.8333333333
 31
0.0
  0
LWPOLYLINE
  5
BC
330
1F
100
AcDbEntity
  8
0
  6
HIDDEN
 62
     7
370
    18
100
AcDbPolyline
 90
        3
 70
   128
 43
0.0
 10
75.274017694
 20
69.8285035362
 10
74.9766480361
 20
69.1504266706
 10
74.8661293746
 20
68.8111111111
  0
LWPOLYLINE
  5
BD
330
1F
100
AcDbEntity
  8
0
  6
HIDDEN
 62
     7
370
    18
100
AcDbPolyline
 90
        3
 70
   128
 43
0.0
 10
74.8661293746
 20
45.1888888889
 10
74.9766480361
 20
44.8495733294
 10
75.274017694
 20
44.1714964638
  0
LINE
  5
BE
330
1F
100
AcDbEntity
  8
0
  6
Continuous
 62
     7
370
    25
100
AcDbLine
 10
133.0
 20
158.6888888889
 30
0.0
 11
131.6
 21
160.0888888889
 31
0.0
  0
LINE
  5
BF
330
1F
100
AcDbEntity
  8
0
  6
Continuous
 62
     7
370
    25
100
AcDbLine
 10
133.0
 20
157.3111111111
 30
0.0
 11
133.0
 21
158.6888888889
 31
0.0
  0
LINE
  5
C0
330
1F
100
AcDbEntity
  8
0
  6
Continuous
 62
     7
370
    25
100
AcDbLine
 10
131.6
 20
155.9111111111
 30
0.0
 11
133.0
 21
157.3111111111
 31
0.0
  0
LINE
  5
C1
330
1F
100
AcDbEntity
  8
0
  6
Continuous
 62
     7
370
    25
100
AcDbLine
 10
101.0666666667
 20
160.0888888889
 30
0.0
 11
103.8444444444
 21
160.0888888889
 31
0.0
  0
LINE
  5
C2
330
1F
100
AcDbEntity
  8
0
  6
Continuous
 62
     7
370
    25
100
AcDbLine
 10
103.8444444444
 20
158.6888888889
 30
0.0
 11
99.6666666667
 21
158.6888888889
 31
0.0
  0
LINE
  5
C3
330
1F
100
AcDbEntity
  8
0
  6
Continuous
 62
     7
370
    25
100
AcDbLine
 10
101.0666666667
 20
160.0888888889
 30
0.0
 11
99.6666666667
 21
158.6888888889
 31
0.0
  0
LINE
  5
C4
330
1F
100
AcDbEntity
  8
0
  6
Continuous
 62
     7
370
    25
100
AcDbLine
 10
130.2523450176
 20
158.6888888889
 30
0.0
 11
122.4341969935
 21
158.6888888889
 31
0.0
  0
LINE
  5
C5
330
1F
100
AcDbEntity
  8
0
  6
Continuous
 62
     7
370
    25
100
AcDbLine
 10
122.4341969935
 20
160.0888888889
 30
0.0
 11
128.9388961496
 21
160.0888888889
 31
0.0
  0
LINE
  5
C6
330
1F
100
AcDbEntity
  8
0
  6
Continuous
 62
     7
370
    25
100
AcDbLine
 10
122.4341969935
 20
158.6888888889
 30
0.0
 11
103.8444444444
 21
158.6888888889
 31
0.0
  0
LINE
  5
C7
330
1F
100
AcDbEntity
  8
0
  6
Continuous
 62
     7
370
    25
100
AcDbLine
 10
103.8444444444
 20
160.0888888889
 30
0.0
 11
122.4341969935
 21
160.0888888889
 31
0.0
  0
LINE
  5
C8
330
1F
100
AcDbEntity
  8
0
  6
Continuous
 62
     7
370
    25
100
AcDbLine
 10
103.8444444444
 20
157.3111111111
 30
0.0
 11
122.4341969935
 21
157.3111111111
 31
0.0
  0
LINE
  5
C9
330
1F
100
AcDbEntity
  8
0
  6
Continuous
 62
     7
370
    25
100
AcDbLine
 10
99.6666666667
 20
157.3111111111
 30
0.0
 11
103.8444444444
 21
157.3111111111
 31
0.0
  0
LINE
  5
CA
330
1F
100
AcDbEntity
  8
0
  6
Continuous
 62
     7
370
    25
100
AcDbLine
 10
99.6666666667
 20
157.3111111111
 30
0.0
 11
99.6666666667
 21
158.6888888889
 31
0.0
  0
LINE
  5
CB
330
1F
100
AcDbEntity
  8
0
  6
Continuous
 62
     7
370
    25
100
AcDbLine
 10
122.4341969935
 20
157.3111111111
 30
0.0
 11
130.2523450176
 21
157.3111111111
 31
0.0
  0
LINE
  5
CC
330
1F
100
AcDbEntity
  8
0
  6
Continuous
 62
     7
370
    25
100
AcDbLine
 10
122.4341969935
 20
155.9111111111
 30
0.0
 11
103.8444444444
 21
155.9111111111
 31
0.0
  0
LINE
  5
CD
330
1F
100
AcDbEntity
  8
0
  6
Continuous
 62
     7
370
    25
100
AcDbLine
 10
128.9388961496
 20
155.9111111111
 30
0.0
 11
122.4341969935
 21
155.9111111111
 31
0.0
  0
LINE
  5
CE
330
1F
100
AcDbEntity
  8
0
  6
Continuous
 62
     7
370
    25
100
AcDbLine
 10
103.8444444444
 20
155.9111111111
 30
0.0
 11
101.0666666667
 21
155.9111111111
 31
0.0
  0
LINE
  5
CF
330
1F
100
AcDbEntity
  8
0
  6
Continuous
 62
     7
370
    25
100
AcDbLine
 10
99.6666666667
 20
157.3111111111
 30
0.0
 11
101.0666666667
 21
155.9111111111
 31
0.0
  0
LINE
  5
D0
330
1F
100
AcDbEntity
  8
0
  6
Continuous
 62
     7
370
    25
100
AcDbLine
 10
133.0
 20
158.6888888889
 30
0.0
 11
130.2523450176
 21
158.6888888889
 31
0.0
  0
LINE
  5
D1
330
1F
100
AcDbEntity
  8
0
  6
Continuous
 62
     7
370
    25
100
AcDbLine
 10
128.9388961496
 20
160.0888888889
 30
0.0
 11
131.6
 21
160.0888888889
 31
0.0
  0
LINE
  5
D2
330
1F
100
AcDbEntity
  8
0
  6
Continuous
 62
     7
370
    25
100
AcDbLine
 10
130.2523450176
 20
157.3111111111
 30
0.0
 11
133.0
 21
157.3111111111
 31
0.0
  0
LINE
  5
D3
330
1F
100
AcDbEntity
  8
0
  6
Continuous
 62
     7
370
    25
100
AcDbLine
 10
131.6
 20
155.9111111111
 30
0.0
 11
128.9388961496
 21
155.9111111111
 31
0.0
  0
SPLINE
  5
D4
330
1F
100
AcDbEntity
  8
0
  6
Continuous
 62
     7
370
    25
100
AcDbSpline
210
0.0
220
0.0
230
1.0
 70
     8
 71
     3
 72
    12
 73
     8
 74
     0
 42
0.00000001
 43
0.00000001
 40
0.0
 40
0.0
 40
0.0
 40
0.0
 40
0.5
 40
0.5
 40
0.75
 40
0.75
 40
1.0
 40
1.0
 40
1.0
 40
1.0
 10
75.585474066696
 20
156.4148702035336
 30
0.0
 10
75.71803186231908
 20
156.6411634670212
 30
0.0
 10
75.82892052332164
 20
156.8482431704504
 30
0.0
 10
75.95261894577715
 20
157.0959490264953
 30
0.0
 10
75.9859752523335
 20
157.1664424568123
 30
0.0
 10
76.03178148271864
 20
157.2688615626079
 30
0.0
 10
76.04444444444447
 20
157.3011993539466
 30
0.0
 10
76.04444444444447
 20
157.3081666551907
 30
0.0
  0
ARC
  5
D5
330
1F
100
AcDbEntity
  8
0
  6
Continuous
 62
     7
370
    25
100
AcDbCircle
 10
71.8666666667
 20
154.5111111111
 30
0.0
 40
4.177777777777777
100
AcDbArc
 50
27.1091468143
 51
90.0
  0
SPLINE
  5
D6
330
1F
100
AcDbEntity
  8
0
  6
Continuous
 62
     7
370
    25
100
AcDbSpline
210
0.0
220
0.0
230
1.0
 70
     8
 71
     3
 72
    14
 73
    10
 74
     0
 42
0.00000001
 43
0.00000001
 40
0.0
 40
0.0
 40
0.0
 40
0.0
 40
0.25
 40
0.25
 40
0.5
 40
0.5
 40
0.75
 40
0.75
 40
1.0
 40
1.0
 40
1.0
 40
1.0
 10
76.04444444444445
 20
158.6918333448095
 30
0.0
 10
76.04444444444445
 20
158.7013034603563
 30
0.0
 10
76.02193561973176
 20
158.7557312629116
 30
0.0
 10
75.94035720745308
 20
158.9298699469801
 30
0.0
 10
75.88291515012305
 20
159.0456266092697
 30
0.0
 10
75.74454731383564
 20
159.3068665440752
 30
0.0
 10
75.66270854632704
 20
159.4540002242148
 30
0.0
 10
75.48169601828893
 20
159.7614584165873
 30
0.0
 10
75.38210815474667
 20
159.92268340141
 30
0.0
 10
75.27401769399832
 20
160.0888888888889
 30
0.0
  0
LINE
  5
D7
330
1F
100
AcDbEntity
  8
0
  6
Continuous
 62
     7
370
    25
100
AcDbLine
 10
76.0444444444
 20
158.6918333448
 30
0.0
 11
76.0444444444
 21
157.3081666552
 31
0.0
  0
LINE
  5
D8
330
1F
100
AcDbEntity
  8
0
  6
Continuous
 62
     7
370
    25
100
AcDbLine
 10
71.8666666667
 20
160.0888888889
 30
0.0
 11
75.274017694
 21
160.0888888889
 31
0.0
  0
SPLINE
  5
D9
330
1F
100
AcDbEntity
  8
0
  6
Continuous
 62
     7
370
    25
100
AcDbSpline
210
0.0
220
0.0
230
1.0
 70
     8
 71
     3
 72
    10
 73
     6
 74
     0
 42
0.00000001
 43
0.00000001
 40
0.0
 40
0.0
 40
0.0
 40
0.0
 40
0.5
 40
0.5
 40
1.0
 40
1.0
 40
1.0
 40
1.0
 10
48.30530150327796
 20
157.8752966144071
 30
0.0
 10
49.59327779111354
 20
157.4740804196812
 30
0.0
 10
50.89395304277119
 20
157.0985535998626
 30
0.0
 10
53.53629587033485
 20
156.4304254020729
 30
0.0
 10
54.87791608142699
 20
156.1377282074289
 30
0.0
 10
56.25220150064602
 20
155.9111111111112
 30
0.0
  0
SPLINE
  5
DA
330
1F
100
AcDbEntity
  8
0
  6
Continuous
 62
     7
370
    25
100
AcDbSpline
210
0.0
220
0.0
230
1.0
 70
     8
 71
     3
 72
     8
 73
     4
 74
     0
 42
0.00000001
 43
0.00000001
 40
0.0
 40
0.0
 40
0.0
 40
0.0
 40
1.0
 40
1.0
 40
1.0
 40
1.0
 10
48.17481474593036
 20
158.389888965466
 30
0.0
 10
48.21810962696291
 20
158.2183322498272
 30
0.0
 10
48.26160334323998
 20
158.0468012245924
 30
0.0
 10
48.30530150327788
 20
157.8752966144071
 30
0.0
  0
ARC
  5
DB
330
1F
100
AcDbEntity
  8
0
  6
Continuous
 62
     7
370
    25
100
AcDbCircle
 10
51.3176260925
 20
142.0222222222
 30
0.0
 40
16.66666666666666
100
AcDbArc
 50
90.0
 51
100.8692658224
  0
LINE
  5
DC
330
1F
100
AcDbEntity
  8
0
  6
Continuous
 62
     7
370
    25
100
AcDbLine
 10
51.3176260925
 20
158.6888888889
 30
0.0
 11
71.8666666667
 21
158.6888888889
 31
0.0
  0
SPLINE
  5
DD
330
1F
100
AcDbEntity
  8
0
  6
Continuous
 62
     7
370
    25
100
AcDbSpline
210
0.0
220
0.0
230
1.0
 70
     8
 71
     3
 72
     9
 73
     5
 74
     0
 42
0.00000001
 43
0.00000001
 40
0.0
 40
0.0
 40
0.0
 40
0.0
 40
0.5089083642343543
 40
1.0
 40
1.0
 40
1.0
 40
1.0
 10
74.86612937464655
 20
155.9111111111112
 30
0.0
 10
74.98491337790993
 20
155.9988836483592
 30
0.0
 10
75.21832279227887
 20
156.1713558327772
 30
0.0
 10
75.46455264536807
 20
156.3346686466348
 30
0.0
 10
75.58547406669598
 20
156.4148702035336
 30
0.0
  0
LINE
  5
DE
330
1F
100
AcDbEntity
  8
0
  6
Continuous
 62
     7
370
    25
100
AcDbLine
 10
74.8661293746
 20
155.9111111111
 30
0.0
 11
56.2522015006
 21
155.9111111111
 31
0.0
  0
SPLINE
  5
DF
330
1F
100
AcDbEntity
  8
0
  6
Continuous
 62
     7
370
    25
100
AcDbSpline
210
0.0
220
0.0
230
1.0
 70
     8
 71
     3
 72
    18
 73
    14
 74
     0
 42
0.00000001
 43
0.00000001
 40
0.0
 40
0.0
 40
0.0
 40
0.0
 40
0.2500000000000006
 40
0.2500000000000006
 40
0.3750000000000008
 40
0.3750000000000008
 40
0.5000000000000011
 40
0.5000000000000011
 40
0.7500000000000014
 40
0.7500000000000014
 40
0.8750000000000007
 40
0.8750000000000007
 40
1.0
 40
1.0
 40
1.0
 40
1.0
 10
38.65776125203953
 20
160.0888888888889
 30
0.0
 10
39.28039902488786
 20
160.088888888889
 30
0.0
 10
39.95507651940692
 20
160.0517467235391
 30
0.0
 10
41.04109104420131
 20
159.942619872592
 30
0.0
 10
41.41550076201782
 20
159.8972787230962
 30
0.0
 10
42.18926802523852
 20
159.7883142768361
 30
0.0
 10
42.59078591655931
 20
159.7242856643003
 30
0.0
 10
43.81485102879877
 20
159.5069915892288
 30
0.0
 10
44.65571994707337
 20
159.3293024296567
 30
0.0
 10
45.95139968550912
 20
159.0140766159353
 30
0.0
 10
46.3890541108936
 20
158.9008344516927
 30
0.0
 10
47.27574970118029
 20
158.6575033418811
 30
0.0
 10
47.72493689399811
 20
158.5273217940228
 30
0.0
 10
48.17481474593035
 20
158.389888965466
 30
0.0
  0
LINE
  5
E0
330
1F
100
AcDbEntity
  8
0
  6
Continuous
 62
     7
370
    25
100
AcDbLine
 10
37.3226532649
 20
157.8752966144
 30
0.0
 11
48.3053015033
 21
157.8752966144
 31
0.0
  0
LINE
  5
E1
330
1F
100
AcDbEntity
  8
0
  6
Continuous
 62
     7
370
    25
100
AcDbLine
 10
35.4056261216
 20
160.0888888889
 30
0.0
 11
38.657761252
 21
160.0888888889
 31
0.0
  0
LINE
  5
E2
330
1F
100
AcDbEntity
  8
0
  6
Continuous
 62
     7
370
    25
100
AcDbLine
 10
51.3176260925
 20
160.0888888889
 30
0.0
 11
38.657761252
 21
160.0888888889
 31
0.0
  0
LINE
  5
E3
330
1F
100
AcDbEntity
  8
0
  6
Continuous
 62
     7
370
    25
100
AcDbLine
 10
71.8666666667
 20
160.0888888889
 30
0.0
 11
51.3176260925
 21
160.0888888889
 31
0.0
  0
LINE
  5
E4
330
1F
100
AcDbEntity
  8
0
  6
Continuous
 62
     7
370
    25
100
AcDbLine
 10
56.2522015006
 20
155.9111111111
 30
0.0
 11
41.4293139302
 21
155.9111111111
 31
0.0
  0
LINE
  5
E5
330
1F
100
AcDbEntity
  8
0
  6
Continuous
 62
     7
370
    25
100
AcDbLine
 10
79.4302428256
 20
158.6888888889
 30
0.0
 11
76.0444444444
 21
158.6888888889
 31
0.0
  0
LINE
  5
E6
330
1F
100
AcDbEntity
  8
0
  6
Continuous
 62
     7
370
    25
100
AcDbLine
 10
75.274017694
 20
160.0888888889
 30
0.0
 11
79.1648454746
 21
160.0888888889
 31
0.0
  0
LINE
  5
E7
330
1F
100
AcDbEntity
  8
0
  6
Continuous
 62
     7
370
    25
100
AcDbLine
 10
76.0444444444
 20
157.3111111111
 30
0.0
 11
79.4302428256
 21
157.3111111111
 31
0.0
  0
LINE
  5
E8
330
1F
100
AcDbEntity
  8
0
  6
Continuous
 62
     7
370
    25
100
AcDbLine
 10
79.1648454746
 20
155.9111111111
 30
0.0
 11
74.8661293746
 21
155.9111111111
 31
0.0
  0
LINE
  5
E9
330
1F
100
AcDbEntity
  8
0
  6
Continuous
 62
     7
370
    25
100
AcDbLine
 10
99.6666666667
 20
158.6888888889
 30
0.0
 11
96.2808682855
 21
158.6888888889
 31
0.0
  0
LINE
  5
EA
330
1F
100
AcDbEntity
  8
0
  6
Continuous
 62
     7
370
    25
100
AcDbLine
 10
96.5462656365
 20
160.0888888889
 30
0.0
 11
101.0666666667
 21
160.0888888889
 31
0.0
  0
LINE
  5
EB
330
1F
100
AcDbEntity
  8
0
  6
Continuous
 62
     7
370
    25
100
AcDbLine
 10
96.2808682855
 20
157.3111111111
 30
0.0
 11
99.6666666667
 21
157.3111111111
 31
0.0
  0
LINE
  5
EC
330
1F
100
AcDbEntity
  8
0
  6
Continuous
 62
     7
370
    25
100
AcDbLine
 10
101.0666666667
 20
155.9111111111
 30
0.0
 11
96.5462656365
 21
155.9111111111
 31
0.0
  0
LINE
  5
ED
330
1F
100
AcDbEntity
  8
0
  6
Continuous
 62
     7
370
    25
100
AcDbLine
 10
96.2808682855
 20
158.6888888889
 30
0.0
 11
79.4302428256
 21
158.6888888889
 31
0.0
  0
LINE
  5
EE
330
1F
100
AcDbEntity
  8
0
  6
Continuous
 62
     7
370
    25
100
AcDbLine
 10
79.1648454746
 20
160.0888888889
 30
0.0
 11
96.5462656365
 21
160.0888888889
 31
0.0
  0
LINE
  5
EF
330
1F
100
AcDbEntity
  8
0
  6
Continuous
 62
     7
370
    25
100
AcDbLine
 10
79.4302428256
 20
157.3111111111
 30
0.0
 11
96.2808682855
 21
157.3111111111
 31
0.0
  0
LINE
  5
F0
330
1F
100
AcDbEntity
  8
0
  6
Continuous
 62
     7
370
    25
100
AcDbLine
 10
96.5462656365
 20
155.9111111111
 30
0.0
 11
79.1648454746
 21
155.9111111111
 31
0.0
  0
LINE
  5
F1
330
1F
100
AcDbEntity
  8
0
  6
Continuous
 62
     7
370
    25
100
AcDbLine
 10
35.5560361911
 20
157.8752966144
 30
0.0
 11
37.3226532649
 21
157.8752966144
 31
0.0
  0
LINE
  5
F2
330
1F
100
AcDbEntity
  8
0
  6
Continuous
 62
     7
370
    25
100
AcDbLine
 10
33.0
 20
160.0888888889
 30
0.0
 11
35.5560361911
 21
157.8752966144
 31
0.0
  0
LINE
  5
F3
330
1F
100
AcDbEntity
  8
0
  6
Continuous
 62
     7
370
    25
100
AcDbLine
 10
35.4056261216
 20
160.0888888889
 30
0.0
 11
33.0
 21
160.0888888889
 31
0.0
  0
LINE
  5
F4
330
1F
100
AcDbEntity
  8
0
  6
Continuous
 62
     7
370
    25
100
AcDbLine
 10
41.0315837447
 20
155.9111111111
 30
0.0
 11
35.5560361911
 21
157.8752966144
 31
0.0
  0
LINE
  5
F5
330
1F
100
AcDbEntity
  8
0
  6
Continuous
 62
     7
370
    25
100
AcDbLine
 10
41.4293139302
 20
155.9111111111
 30
0.0
 11
41.0315837447
 21
155.9111111111
 31
0.0
  0
LINE
  5
F6
330
1F
100
AcDbEntity
  8
0
  6
HIDDEN
 62
     7
370
    18
100
AcDbLine
 10
112.1555555556
 20
160.0888888889
 30
0.0
 11
113.5555555556
 21
158.6888888889
 31
0.0
  0
LINE
  5
F7
330
1F
100
AcDbEntity
  8
0
  6
HIDDEN
 62
     7
370
    18
100
AcDbLine
 10
120.5111111111
 20
158.6888888889
 30
0.0
 11
121.9111111111
 21
160.0888888889
 31
0.0
  0
LINE
  5
F8
330
1F
100
AcDbEntity
  8
0
  6
HIDDEN
 62
     7
370
    18
100
AcDbLine
 10
121.9111111111
 20
155.9111111111
 30
0.0
 11
120.5111111111
 21
157.3111111111
 31
0.0
  0
LINE
  5
F9
330
1F
100
AcDbEntity
  8
0
  6
HIDDEN
 62
     7
370
    18
100
AcDbLine
 10
113.5555555556
 20
157.3111111111
 30
0.0
 11
112.1555555556
 21
155.9111111111
 31
0.0
  0
LINE
  5
FA
330
1F
100
AcDbEntity
  8
0
  6
HIDDEN
 62
     7
370
    18
100
AcDbLine
 10
120.5111111111
 20
157.3111111111
 30
0.0
 11
120.5111111111
 21
158.6888888889
 31
0.0
  0
LINE
  5
FB
330
1F
100
AcDbEntity
  8
0
  6
HIDDEN
 62
     7
370
    18
100
AcDbLine
 10
113.5555555556
 20
157.3111111111
 30
0.0
 11
113.5555555556
 21
158.6888888889
 31
0.0
  0
LINE
  5
FC
330
1F
100
AcDbEntity
  8
0
  6
HIDDEN
 62
     7
370
    18
100
AcDbLine
 10
74.6444444444
 20
160.0888888889
 30
0.0
 11
76.0444444444
 21
158.6888888889
 31
0.0
  0
LINE
  5
FD
330
1F
100
AcDbEntity
  8
0
  6
HIDDEN
 62
     7
370
    18
100
AcDbLine
 10
76.0444444444
 20
157.3111111111
 30
0.0
 11
74.6444444444
 21
155.9111111111
 31
0.0
  0
LINE
  5
FE
330
1F
100
AcDbEntity
  8
0
  6
Continuous
 62
     7
370
    25
100
AcDbLine
 10
223.6888888889
 20
41.6153846154
 30
0.0
 11
223.6888888889
 21
72.3846153846
 31
0.0
  0
LINE
  5
FF
330
1F
100
AcDbEntity
  8
0
  6
Continuous
 62
     7
370
    25
100
AcDbLine
 10
225.0888888889
 20
71.9
 30
0.0
 11
225.0888888889
 21
42.1
 31
0.0
  0
LINE
  5
100
330
1F
100
AcDbEntity
  8
0
  6
Continuous
 62
     7
370
    25
100
AcDbLine
 10
222.3111111111
 20
72.3846153846
 30
0.0
 11
222.3111111111
 21
41.6153846154
 31
0.0
  0
LINE
  5
101
330
1F
100
AcDbEntity
  8
0
  6
Continuous
 62
     7
370
    25
100
AcDbLine
 10
220.9111111111
 20
42.1
 30
0.0
 11
220.9111111111
 21
71.9
 31
0.0
  0
LINE
  5
102
330
1F
100
AcDbEntity
  8
0
  6
Continuous
 62
     7
370
    25
100
AcDbLine
 10
223.6888888889
 20
72.3846153846
 30
0.0
 11
223.6888888889
 21
77.8333333333
 31
0.0
  0
LINE
  5
103
330
1F
100
AcDbEntity
  8
0
  6
Continuous
 62
     7
370
    25
100
AcDbLine
 10
223.6888888889
 20
77.8333333333
 30
0.0
 11
225.0888888889
 21
76.4333333333
 31
0.0
  0
LINE
  5
104
330
1F
100
AcDbEntity
  8
0
  6
Continuous
 62
     7
370
    25
100
AcDbLine
 10
225.0888888889
 20
76.4333333333
 30
0.0
 11
225.0888888889
 21
71.9
 31
0.0
  0
LINE
  5
105
330
1F
100
AcDbEntity
  8
0
  6
Continuous
 62
     7
370
    25
100
AcDbLine
 10
223.6888888889
 20
36.1666666667
 30
0.0
 11
223.6888888889
 21
41.6153846154
 31
0.0
  0
LINE
  5
106
330
1F
100
AcDbEntity
  8
0
  6
Continuous
 62
     7
370
    25
100
AcDbLine
 10
223.6888888889
 20
36.1666666667
 30
0.0
 11
225.0888888889
 21
37.5666666667
 31
0.0
  0
LINE
  5
107
330
1F
100
AcDbEntity
  8
0
  6
Continuous
 62
     7
370
    25
100
AcDbLine
 10
225.0888888889
 20
42.1
 30
0.0
 11
225.0888888889
 21
37.5666666667
 31
0.0
  0
LINE
  5
108
330
1F
100
AcDbEntity
  8
0
  6
Continuous
 62
     7
370
    25
100
AcDbLine
 10
222.3111111111
 20
77.8333333333
 30
0.0
 11
222.3111111111
 21
72.3846153846
 31
0.0
  0
LINE
  5
109
330
1F
100
AcDbEntity
  8
0
  6
Continuous
 62
     7
370
    25
100
AcDbLine
 10
222.3111111111
 20
77.8333333333
 30
0.0
 11
220.9111111111
 21
76.4333333333
 31
0.0
  0
LINE
  5
10A
330
1F
100
AcDbEntity
  8
0
  6
Continuous
 62
     7
370
    25
100
AcDbLine
 10
220.9111111111
 20
71.9
 30
0.0
 11
220.9111111111
 21
76.4333333333
 31
0.0
  0
LINE
  5
10B
330
1F
100
AcDbEntity
  8
0
  6
Continuous
 62
     7
370
    25
100
AcDbLine
 10
223.6888888889
 20
36.1666666667
 30
0.0
 11
222.3111111111
 21
36.1666666667
 31
0.0
  0
LINE
  5
10C
330
1F
100
AcDbEntity
  8
0
  6
Continuous
 62
     7
370
    25
100
AcDbLine
 10
222.3111111111
 20
41.6153846154
 30
0.0
 11
222.3111111111
 21
36.1666666667
 31
0.0
  0
LINE
  5
10D
330
1F
100
AcDbEntity
  8
0
  6
Continuous
 62
     7
370
    25
100
AcDbLine
 10
222.3111111111
 20
77.8333333333
 30
0.0
 11
223.6888888889
 21
77.8333333333
 31
0.0
  0
LINE
  5
10E
330
1F
100
AcDbEntity
  8
0
  6
Continuous
 62
     7
370
    25
100
AcDbLine
 10
220.9111111111
 20
37.5666666667
 30
0.0
 11
222.3111111111
 21
36.1666666667
 31
0.0
  0
LINE
  5
10F
330
1F
100
AcDbEntity
  8
0
  6
Continuous
 62
     7
370
    25
100
AcDbLine
 10
220.9111111111
 20
37.5666666667
 30
0.0
 11
220.9111111111
 21
42.1
 31
0.0
  0
LINE
  5
110
330
1F
100
AcDbEntity
  8
0
  6
HIDDEN
 62
     7
370
    18
100
AcDbLine
 10
223.6888888889
 20
71.5888888889
 30
0.0
 11
225.0888888889
 21
72.9888888889
 31
0.0
  0
LINE
  5
111
330
1F
100
AcDbEntity
  8
0
  6
HIDDEN
 62
     7
370
    18
100
AcDbLine
 10
223.6888888889
 20
42.4111111111
 30
0.0
 11
225.0888888889
 21
41.0111111111
 31
0.0
  0
LINE
  5
112
330
1F
100
AcDbEntity
  8
0
  6
HIDDEN
 62
     7
370
    18
100
AcDbLine
 10
220.9111111111
 20
72.9888888889
 30
0.0
 11
222.3111111111
 21
71.5888888889
 31
0.0
  0
LINE
  5
113
330
1F
100
AcDbEntity
  8
0
  6
HIDDEN
 62
     7
370
    18
100
AcDbLine
 10
220.9111111111
 20
41.0111111111
 30
0.0
 11
222.3111111111
 21
42.4111111111
 31
0.0
  0
LINE
  5
114
330
1F
100
AcDbEntity
  8
0
  6
HIDDEN
 62
     7
370
    18
100
AcDbLine
 10
222.3111111111
 20
42.4111111111
 30
0.0
 11
223.6888888889
 21
42.4111111111
 31
0.0
  0
LINE
  5
115
330
1F
100
AcDbEntity
  8
0
  6
HIDDEN
 62
     7
370
    18
100
AcDbLine
 10
222.3111111111
 20
71.5888888889
 30
0.0
 11
223.6888888889
 21
71.5888888889
 31
0.0
  0
SPLINE
  5
116
330
1F
100
AcDbEntity
  8
0
  6
HIDDEN
 62
     7
370
    18
100
AcDbSpline
210
0.0
220
0.0
230
1.0
 70
     8
 71
     3
 72
    14
 73
    10
 74
     0
 42
0.00000001
 43
0.00000001
 40
0.0
 40
0.0
 40
0.0
 40
0.0
 40
0.25
 40
0.25
 40
0.5
 40
0.5
 40
0.75
 40
0.75
 40
1.0
 40
1.0
 40
1.0
 40
1.0
 10
223.6918333448095
 20
67.41111111111128
 30
0.0
 10
223.7013034603563
 20
67.66348236747478
 30
0.0
 10
223.7557312629116
 20
67.90395152864755
 30
0.0
 10
223.9298699469801
 20
68.3672476742503
 30
0.0
 10
224.0456266092697
 20
68.5807872615971
 30
0.0
 10
224.3068665440752
 20
68.9796887675228
 30
0.0
 10
224.4540002242148
 20
69.16675829258713
 30
0.0
 10
224.7614584165873
 20
69.51439277671601
 30
0.0
 10
224.9226834014101
 20
69.67614840404667
 30
0.0
 10
225.0888888888889
 20
69.82850353623299
 30
0.0
  0
SPLINE
  5
117
330
1F
100
AcDbEntity
  8
0
  6
HIDDEN
 62
     7
370
    18
100
AcDbSpline
210
0.0
220
0.0
230
1.0
 70
     8
 71
     3
 72
    16
 73
    12
 74
     0
 42
0.00000001
 43
0.00000001
 40
0.0
 40
0.0
 40
0.0
 40
0.0
 40
0.2499999999999996
 40
0.2499999999999996
 40
0.4999999999999992
 40
0.4999999999999992
 40
0.7499999999999989
 40
0.7499999999999989
 40
0.8749999999999994
 40
0.8749999999999994
 40
1.0
 40
1.0
 40
1.0
 40
1.0
 10
225.088888888889
 20
44.17149646376719
 30
0.0
 10
224.9228627910693
 20
44.32368715532244
 30
0.0
 10
224.7622991365633
 20
44.48483192438974
 30
0.0
 10
224.4570263678985
 20
44.82964705773722
 30
0.0
 10
224.3121296100549
 20
45.01312094618448
 30
0.0
 10
224.0489547146582
 20
45.41331193416615
 30
0.0
 10
223.9317581396744
 20
45.62913585452372
 30
0.0
 10
223.8011736677856
 20
45.97446824143798
 30
0.0
 10
223.7648049892321
 20
46.09479212938711
 30
0.0
 10
223.7126234964294
 20
46.33881685211948
 30
0.0
 10
223.6965660488553
 20
46.46276598572798
 30
0.0
 10
223.6918333448095
 20
46.58888888888907
 30
0.0
  0
SPLINE
  5
118
330
1F
100
AcDbEntity
  8
0
  6
HIDDEN
 62
     7
370
    18
100
AcDbSpline
210
0.0
220
0.0
230
1.0
 70
     8
 71
     3
 72
    12
 73
     8
 74
     0
 42
0.00000001
 43
0.00000001
 40
0.0
 40
0.0
 40
0.0
 40
0.0
 40
0.2500000000000001
 40
0.2500000000000001
 40
0.5000000000000001
 40
0.5000000000000001
 40
1.0
 40
1.0
 40
1.0
 40
1.0
 10
222.3081666551906
 20
46.58888888888907
 30
0.0
 10
222.3011831246824
 20
46.40278320100053
 30
0.0
 10
222.2696821327646
 20
46.22317269495051
 30
0.0
 10
222.1678762686824
 20
45.87435482142298
 30
0.0
 10
222.0968100769086
 20
45.70440378145773
 30
0.0
 10
221.8510103436176
 20
45.22860233699481
 30
0.0
 10
221.6415785487164
 20
44.94454346209927
 30
0.0
 10
221.4148702035336
 20
44.68512979646657
 30
0.0
  0
SPLINE
  5
119
330
1F
100
AcDbEntity
  8
0
  6
HIDDEN
 62
     7
370
    18
100
AcDbSpline
210
0.0
220
0.0
230
1.0
 70
    24
 71
     3
 72
    10
 73
     6
 74
     0
 42
0.00000001
 43
0.00000001
 40
0.0
 40
0.0
 40
0.0
 40
0.0
 40
0.3254480145550872
 40
0.6587173641246267
 40
1.0
 40
1.0
 40
1.0
 40
1.0
 10
221.4148702035335
 20
44.68512979646649
 30
0.0
 10
221.3618616392417
 20
44.73813836075833
 30
0.0
 10
221.2545705814238
 20
44.84542941857622
 30
0.0
 10
221.0864961391556
 20
45.01350386084446
 30
0.0
 10
220.9700339548573
 20
45.1299660451427
 30
0.0
 10
220.9111111111111
 20
45.18888888888898
 30
0.0
  0
SPLINE
  5
11A
330
1F
100
AcDbEntity
  8
0
  6
HIDDEN
 62
     7
370
    18
100
AcDbSpline
210
0.0
220
0.0
230
1.0
 70
     8
 71
     3
 72
    12
 73
     8
 74
     0
 42
0.00000001
 43
0.00000001
 40
0.0
 40
0.0
 40
0.0
 40
0.0
 40
0.5
 40
0.5
 40
0.75
 40
0.75
 40
1.0
 40
1.0
 40
1.0
 40
1.0
 10
221.4148702035336
 20
69.31487020353369
 30
0.0
 10
221.6411634670212
 20
69.05593149996724
 30
0.0
 10
221.8482431704504
 20
68.77597806261407
 30
0.0
 10
222.0959490264953
 20
68.29764576817364
 30
0.0
 10
222.1664424568123
 20
68.12948704958282
 30
0.0
 10
222.2688615626079
 20
67.78068624829959
 30
0.0
 10
222.3011993539466
 20
67.5967843016595
 30
0.0
 10
222.3081666551907
 20
67.4111111111113
 30
0.0
  0
SPLINE
  5
11B
330
1F
100
AcDbEntity
  8
0
  6
HIDDEN
 62
     7
370
    18
100
AcDbSpline
210
0.0
220
0.0
230
1.0
 70
    24
 71
     3
 72
     9
 73
     5
 74
     0
 42
0.00000001
 43
0.00000001
 40
0.0
 40
0.0
 40
0.0
 40
0.0
 40
0.5089083642343543
 40
1.0
 40
1.0
 40
1.0
 40
1.0
 10
220.9111111111112
 20
68.8111111111113
 30
0.0
 10
220.9988836483592
 20
68.89888364835937
 30
0.0
 10
221.1713558327772
 20
69.07135583277734
 30
0.0
 10
221.3346686466348
 20
69.2346686466349
 30
0.0
 10
221.4148702035336
 20
69.31487020353369
 30
0.0
  0
LINE
  5
11C
330
1F
100
AcDbEntity
  8
0
  6
HIDDEN
 62
     7
370
    18
100
AcDbLine
 10
223.6888888889
 20
71.5888888889
 30
0.0
 11
221.4148702035
 21
69.3148702035
 31
0.0
  0
LINE
  5
11D
330
1F
100
AcDbEntity
  8
0
  6
HIDDEN
 62
     7
370
    18
100
AcDbLine
 10
223.6888888889
 20
71.5888888889
 30
0.0
 11
225.0888888889
 21
71.5888888889
 31
0.0
  0
LINE
  5
11E
330
1F
100
AcDbEntity
  8
0
  6
HIDDEN
 62
     7
370
    18
100
AcDbLine
 10
225.0888888889
 20
42.4111111111
 30
0.0
 11
223.6888888889
 21
42.4111111111
 31
0.0
  0
LINE
  5
11F
330
1F
100
AcDbEntity
  8
0
  6
HIDDEN
 62
     7
370
    18
100
AcDbLine
 10
221.4148702035
 20
44.6851297965
 30
0.0
 11
223.6888888889
 21
42.4111111111
 31
0.0
  0
SPLINE
  5
120
330
1F
100
AcDbEntity
  8
0
  6
HIDDEN
 62
     7
370
    18
100
AcDbSpline
210
0.0
220
0.0
230
1.0
 70
     8
 71
     3
 72
    18
 73
    14
 74
     0
 42
0.00000001
 43
0.00000001
 40
0.0
 40
0.0
 40
0.0
 40
0.0
 40
0.2500000000000006
 40
0.2500000000000006
 40
0.3750000000000008
 40
0.3750000000000008
 40
0.5000000000000011
 40
0.5000000000000011
 40
0.7500000000000014
 40
0.7500000000000014
 40
0.8750000000000007
 40
0.8750000000000007
 40
1.0
 40
1.0
 40
1.0
 40
1.0
 10
225.0888888888889
 20
65.76222222222293
 30
0.0
 10
225.088888888889
 20
66.48939104591308
 30
0.0
 10
225.0517467235391
 20
67.15148501033818
 30
0.0
 10
224.942619872592
 20
68.05202652466474
 30
0.0
 10
224.8972787230962
 20
68.33668265286374
 30
0.0
 10
224.7883142768361
 20
68.87474578255451
 30
0.0
 10
224.7242856643003
 20
69.12932455535076
 30
0.0
 10
224.5069915892288
 20
69.83439904687378
 30
0.0
 10
224.3293024296567
 20
70.22730782143944
 30
0.0
 10
224.0140766159353
 20
70.7080895457173
 30
0.0
 10
223.9008344516927
 20
70.85014926164894
 30
0.0
 10
223.6575033418811
 20
71.09791128910283
 30
0.0
 10
223.5273217940228
 20
71.20350638939189
 30
0.0
 10
223.389888965466
 20
71.28988896546612
 30
0.0
  0
SPLINE
  5
121
330
1F
100
AcDbEntity
  8
0
  6
HIDDEN
 62
     7
370
    18
100
AcDbSpline
210
0.0
220
0.0
230
1.0
 70
     8
 71
     3
 72
    18
 73
    14
 74
     0
 42
0.00000001
 43
0.00000001
 40
0.0
 40
0.0
 40
0.0
 40
0.0
 40
0.2500000000000006
 40
0.2500000000000006
 40
0.3750000000000008
 40
0.3750000000000008
 40
0.5000000000000011
 40
0.5000000000000011
 40
0.7500000000000014
 40
0.7500000000000014
 40
0.8750000000000007
 40
0.8750000000000007
 40
1.0
 40
1.0
 40
1.0
 40
1.0
 10
223.3898889654659
 20
42.71011103453416
 30
0.0
 10
223.664868360228
 20
42.88294767579615
 30
0.0
 10
223.9065157705379
 20
43.1288069342243
 30
0.0
 10
224.221836506887
 20
43.60831951495182
 30
0.0
 10
224.3190379557272
 20
43.78669697484043
 30
0.0
 10
224.4975286491494
 20
44.18186746777168
 30
0.0
 10
224.5791557340053
 20
44.39982325244411
 30
0.0
 10
224.7967981906556
 20
45.10583480633289
 30
0.0
 10
224.9051531909999
 20
45.64145988470837
 30
0.0
 10
225.0147031038364
 20
46.54150874512138
 30
0.0
 10
225.0423305113245
 20
46.85771130618419
 30
0.0
 10
225.0794406065247
 20
47.52341927569034
 30
0.0
 10
225.0888888888887
 20
47.87398317728957
 30
0.0
 10
225.0888888888887
 20
48.23777777777728
 30
0.0
  0
LINE
  5
122
330
1F
100
AcDbEntity
  8
0
  6
HIDDEN
 62
     7
370
    18
100
AcDbLine
 10
222.8752966144
 20
60.0598705294
 30
0.0
 11
222.8752966144
 21
70.7752966144
 31
0.0
  0
LINE
  5
123
330
1F
100
AcDbEntity
  8
0
  6
HIDDEN
 62
     7
370
    18
100
AcDbLine
 10
222.8752966144
 20
43.2247033856
 30
0.0
 11
222.8752966144
 21
53.9401294706
 31
0.0
  0
LINE
  5
124
330
1F
100
AcDbEntity
  8
0
  6
HIDDEN
 62
     7
370
    18
100
AcDbLine
 10
220.9111111111
 20
57.0
 30
0.0
 11
222.8752966144
 21
57.0
 31
0.0
  0
LINE
  5
125
330
1F
100
AcDbEntity
  8
0
  6
HIDDEN
 62
     7
370
    18
100
AcDbLine
 10
222.8752966144
 20
53.9401294706
 30
0.0
 11
222.8752966144
 21
57.0
 31
0.0
  0
LINE
  5
126
330
1F
100
AcDbEntity
  8
0
  6
HIDDEN
 62
     7
370
    18
100
AcDbLine
 10
225.0888888889
 20
57.0
 30
0.0
 11
222.8752966144
 21
57.0
 31
0.0
  0
LINE
  5
127
330
1F
100
AcDbEntity
  8
0
  6
HIDDEN
 62
     7
370
    18
100
AcDbLine
 10
222.8752966144
 20
57.0
 30
0.0
 11
222.8752966144
 21
60.0598705294
 31
0.0
  0
LINE
  5
128
330
1F
100
AcDbEntity
  8
0
  6
HIDDEN
 62
     7
370
    18
100
AcDbLine
 10
225.0888888889
 20
53.053689817
 30
0.0
 11
223.6888888889
 21
51.653689817
 31
0.0
  0
LINE
  5
129
330
1F
100
AcDbEntity
  8
0
  6
HIDDEN
 62
     7
370
    18
100
AcDbLine
 10
223.6888888889
 20
62.346310183
 30
0.0
 11
225.0888888889
 21
60.946310183
 31
0.0
  0
LINE
  5
12A
330
1F
100
AcDbEntity
  8
0
  6
HIDDEN
 62
     7
370
    18
100
AcDbLine
 10
220.9111111111
 20
60.946310183
 30
0.0
 11
222.3111111111
 21
62.346310183
 31
0.0
  0
LINE
  5
12B
330
1F
100
AcDbEntity
  8
0
  6
HIDDEN
 62
     7
370
    18
100
AcDbLine
 10
222.3111111111
 20
51.653689817
 30
0.0
 11
220.9111111111
 21
53.053689817
 31
0.0
  0
LINE
  5
12C
330
1F
100
AcDbEntity
  8
0
  6
HIDDEN
 62
     7
370
    18
100
AcDbLine
 10
222.3111111111
 20
62.346310183
 30
0.0
 11
223.6888888889
 21
62.346310183
 31
0.0
  0
LINE
  5
12D
330
1F
100
AcDbEntity
  8
0
  6
HIDDEN
 62
     7
370
    18
100
AcDbLine
 10
223.6888888889
 20
51.653689817
 30
0.0
 11
222.3111111111
 21
51.653689817
 31
0.0
  0
ENDSEC
  0
SECTION
  2
OBJECTS
  0
DICTIONARY
  5
C
330
0
100
AcDbDictionary
281
     1
  3
ACAD_GROUP
350
D
  3
ACAD_LAYOUT
350
1A
  3
ACAD_MLINESTYLE
350
17
  3
ACAD_PLOTSETTINGS
350
19
  3
ACAD_PLOTSTYLENAME
350
E
  3
ACAD_SCALELIST
350
47
  3
DWGPROPS
350
12E
  0
DICTIONARY
  5
D
102
{ACAD_REACTORS
330
C
102
}
330
C
100
AcDbDictionary
281
     1
  0
DICTIONARY
  5
1A
102
{ACAD_REACTORS
330
C
102
}
330
C
100
AcDbDictionary
281
     1
  3
Layout1
350
1E
  3
Layout2
350
26
  3
Model
350
22
  0
DICTIONARY
  5
17
102
{ACAD_REACTORS
330
C
102
}
330
C
100
AcDbDictionary
281
     1
  3
Standard
350
18
  0
DICTIONARY
  5
19
102
{ACAD_REACTORS
330
C
102
}
330
C
100
AcDbDictionary
281
     1
  0
ACDBDICTIONARYWDFLT
  5
E
102
{ACAD_REACTORS
330
C
102
}
330
C
100
AcDbDictionary
281
     1
  3
Normal
350
F
100
AcDbDictionaryWithDefault
340
F
  0
DICTIONARY
  5
47
102
{ACAD_REACTORS
330
C
102
}
330
C
100
AcDbDictionary
281
     1
  3
A0
350
48
  3
A1
350
49
  3
A2
350
4A
  3
A3
350
4B
  3
A4
350
4C
  3
A5
350
4D
  3
A6
350
4E
  3
A7
350
4F
  3
A8
350
50
  3
A9
350
51
  3
B0
350
52
  3
B1
350
53
  3
B2
350
54
  3
B3
350
55
  3
B4
350
56
  3
B5
350
57
  3
B6
350
58
  0
XRECORD
  5
12E
102
{ACAD_REACTORS
330
C
102
}
330
C
100
AcDbXrecord
280
     1
  1
DWGPROPS COOKIE
  2

  3

  4

  6

  7

  8

  9

300
=
301
=
302
=
303
=
304
=
305
=
306
=
307
=
308
=
309
=
 40
0.0
 41
2461215.312663924
 42
2461215.312664155
  1

 90
        0
  0
LAYOUT
  5
1E
102
{ACAD_REACTORS
330
1A
102
}
330
1A
100
AcDbPlotSettings
  1

  2
none_device
  4

  6

 40
0.0
 41
0.0
 42
0.0
 43
0.0
 44
0.0
 45
0.0
 46
0.0
 47
0.0
 48
0.0
 49
0.0
140
0.0
141
0.0
142
1.0
143
1.0
 70
   688
 72
     1
 73
     0
 74
     5
  7

 75
    16
147
1.0
148
0.0
149
0.0
100
AcDbLayout
  1
Layout1
 70
     1
 71
     1
 10
0.0
 20
0.0
 11
420.0
 21
297.0
 12
0.0
 22
0.0
 32
0.0
 14
1.0000000000E+20
 24
1.0000000000E+20
 34
1.0000000000E+20
 15
-1.0000000000E+20
 25
-1.0000000000E+20
 35
-1.0000000000E+20
146
0.0
 13
0.0
 23
0.0
 33
0.0
 16
1.0
 26
0.0
 36
0.0
 17
0.0
 27
1.0
 37
0.0
 76
     0
330
1B
  0
LAYOUT
  5
26
102
{ACAD_REACTORS
330
1A
102
}
330
1A
100
AcDbPlotSettings
  1

  2
none_device
  4

  6

 40
0.0
 41
0.0
 42
0.0
 43
0.0
 44
0.0
 45
0.0
 46
0.0
 47
0.0
 48
0.0
 49
0.0
140
0.0
141
0.0
142
1.0
143
1.0
 70
   688
 72
     1
 73
     0
 74
     5
  7

 75
    16
147
1.0
148
0.0
149
0.0
100
AcDbLayout
  1
Layout2
 70
     1
 71
     2
 10
0.0
 20
0.0
 11
0.0
 21
0.0
 12
0.0
 22
0.0
 32
0.0
 14
0.0
 24
0.0
 34
0.0
 15
0.0
 25
0.0
 35
0.0
146
0.0
 13
0.0
 23
0.0
 33
0.0
 16
1.0
 26
0.0
 36
0.0
 17
0.0
 27
1.0
 37
0.0
 76
     0
330
23
  0
LAYOUT
  5
22
102
{ACAD_REACTORS
330
1A
102
}
330
1A
100
AcDbPlotSettings
  1

  2
none_device
  4
Letter_(8.50_x_11.00_Inches)
  6

 40
6.35
 41
6.35
 42
6.35000508
 43
6.35000508
 44
215.9
 45
279.4
 46
0.0
 47
0.0
 48
0.0
 49
0.0
140
0.0
141
0.0
142
1.0
143
1.0
 70
  1712
 72
     1
 73
     0
 74
     0
  7

 75
     0
147
1.0
148
0.0
149
0.0
100
AcDbLayout
  1
Model
 70
     1
 71
     0
 10
0.0
 20
0.0
 11
297.0
 21
210.0
 12
0.0
 22
0.0
 32
0.0
 14
0.0
 24
0.0
 34
0.0
 15
297.0
 25
210.0
 35
0.0
146
0.0
 13
0.0
 23
0.0
 33
0.0
 16
1.0
 26
0.0
 36
0.0
 17
0.0
 27
1.0
 37
0.0
 76
     0
330
1F
331
29
  0
MLINESTYLE
  5
18
102
{ACAD_REACTORS
330
17
102
}
330
17
100
AcDbMlineStyle
  2
Standard
 70
     0
  3

 62
   256
 51
90.0
 52
90.0
 71
     2
 49
0.5
 62
   256
  6
BYLAYER
 49
-0.5
 62
   256
  6
BYLAYER
  0
ACDBPLACEHOLDER
  5
F
102
{ACAD_REACTORS
330
E
102
}
330
E
  0
SCALE
  5
48
102
{ACAD_REACTORS
330
47
102
}
330
47
100
AcDbScale
 70
     0
300
1:1
140
1.0
141
1.0
290
     1
  0
SCALE
  5
49
102
{ACAD_REACTORS
330
47
102
}
330
47
100
AcDbScale
 70
     0
300
1:2
140
1.0
141
2.0
290
     0
  0
SCALE
  5
4A
102
{ACAD_REACTORS
330
47
102
}
330
47
100
AcDbScale
 70
     0
300
1:4
140
1.0
141
4.0
290
     0
  0
SCALE
  5
4B
102
{ACAD_REACTORS
330
47
102
}
330
47
100
AcDbScale
 70
     0
300
1:5
140
1.0
141
5.0
290
     0
  0
SCALE
  5
4C
102
{ACAD_REACTORS
330
47
102
}
330
47
100
AcDbScale
 70
     0
300
1:8
140
1.0
141
8.0
290
     0
  0
SCALE
  5
4D
102
{ACAD_REACTORS
330
47
102
}
330
47
100
AcDbScale
 70
     0
300
1:10
140
1.0
141
10.0
290
     0
  0
SCALE
  5
4E
102
{ACAD_REACTORS
330
47
102
}
330
47
100
AcDbScale
 70
     0
300
1:16
140
1.0
141
16.0
290
     0
  0
SCALE
  5
4F
102
{ACAD_REACTORS
330
47
102
}
330
47
100
AcDbScale
 70
     0
300
1:20
140
1.0
141
20.0
290
     0
  0
SCALE
  5
50
102
{ACAD_REACTORS
330
47
102
}
330
47
100
AcDbScale
 70
     0
300
1:30
140
1.0
141
30.0
290
     0
  0
SCALE
  5
51
102
{ACAD_REACTORS
330
47
102
}
330
47
100
AcDbScale
 70
     0
300
1:40
140
1.0
141
40.0
290
     0
  0
SCALE
  5
52
102
{ACAD_REACTORS
330
47
102
}
330
47
100
AcDbScale
 70
     0
300
1:50
140
1.0
141
50.0
290
     0
  0
SCALE
  5
53
102
{ACAD_REACTORS
330
47
102
}
330
47
100
AcDbScale
 70
     0
300
1:100
140
1.0
141
100.0
290
     0
  0
SCALE
  5
54
102
{ACAD_REACTORS
330
47
102
}
330
47
100
AcDbScale
 70
     0
300
2:1
140
2.0
141
1.0
290
     0
  0
SCALE
  5
55
102
{ACAD_REACTORS
330
47
102
}
330
47
100
AcDbScale
 70
     0
300
4:1
140
4.0
141
1.0
290
     0
  0
SCALE
  5
56
102
{ACAD_REACTORS
330
47
102
}
330
47
100
AcDbScale
 70
     0
300
8:1
140
8.0
141
1.0
290
     0
  0
SCALE
  5
57
102
{ACAD_REACTORS
330
47
102
}
330
47
100
AcDbScale
 70
     0
300
10:1
140
10.0
141
1.0
290
     0
  0
SCALE
  5
58
102
{ACAD_REACTORS
330
47
102
}
330
47
100
AcDbScale
 70
     0
300
100:1
140
100.0
141
1.0
290
     0
  0
ENDSEC
  0
EOF
