  0
SECTION
  2
HEADER
  9
$ACADVER
  1
AC1015
  9
$ACADMAINTVER
 70
     6
  9
$DWGCODEPAGE
  3
ANSI_936
  9
$INSBASE
 10
0.0
 20
0.0
 30
0.0
  9
$EXTMIN
 10
0.0
 20
0.0
 30
0.0
  9
$EXTMAX
 10
297.0
 20
210.0
 30
0.0
  9
$LIMMIN
 10
0.0
 20
0.0
  9
$LIMMAX
 10
297.0
 20
210.0
  9
$ORTHOMODE
 70
     0
  9
$REGENMODE
 70
     1
  9
$FILLMODE
 70
     1
  9
$QTEXTMODE
 70
     0
  9
$MIRRTEXT
 70
     1
  9
$LTSCALE
 40
1.0
  9
$ATTMODE
 70
     1
  9
$TEXTSIZE
 40
3.5
  9
$TRACEWID
 40
1.0
  9
$TEXTSTYLE
  7
Standard
  9
$CLAYER
  8
0
  9
$CELTYPE
  6
ByLayer
  9
$CECOLOR
 62
   256
  9
$CELTSCALE
 40
1.0
  9
$DISPSILH
 70
     0
  9
$DIMSCALE
 40
1.0
  9
$DIMASZ
 40
4.08
  9
$DIMEXO
 40
0.0
  9
$DIMDLI
 40
3.75
  9
$DIMRND
 40
0.0
  9
$DIMDLE
 40
0.0
  9
$DIMEXE
 40
2.0
  9
$DIMTP
 40
0.0
  9
$DIMTM
 40
0.0
  9
$DIMTXT
 40
3.5
  9
$DIMCEN
 40
2.5
  9
$DIMTSZ
 40
0.0
  9
$DIMTOL
 70
     0
  9
$DIMLIM
 70
     0
  9
$DIMTIH
 70
     1
  9
$DIMTOH
 70
     1
  9
$DIMSE1
 70
     0
  9
$DIMSE2
 70
     0
  9
$DIMTAD
 70
     1
  9
$DIMZIN
 70
     0
  9
$DIMBLK
  1

  9
$DIMASO
 70
     1
  9
$DIMSHO
 70
     1
  9
$DIMPOST
  1

  9
$DIMAPOST
  1

  9
$DIMALT
 70
     0
  9
$DIMALTD
 70
     3
  9
$DIMALTF
 40
0.0393700787
  9
$DIMLFAC
 40
2.0
  9
$DIMTOFL
 70
     1
  9
$DIMTVP
 40
0.0
  9
$DIMTIX
 70
     0
  9
$DIMSOXD
 70
     0
  9
$DIMSAH
 70
     0
  9
$DIMBLK1
  1

  9
$DIMBLK2
  1

  9
$DIMSTYLE
  2
ISO-25
  9
$DIMCLRD
 70
     0
  9
$DIMCLRE
 70
     0
  9
$DIMCLRT
 70
     0
  9
$DIMTFAC
 40
1.0
  9
$DIMGAP
 40
1.524
  9
$DIMJUST
 70
     0
  9
$DIMSD1
 70
     0
  9
$DIMSD2
 70
     0
  9
$DIMTOLJ
 70
     0
  9
$DIMTZIN
 70
     0
  9
$DIMALTZ
 70
     0
  9
$DIMALTTZ
 70
     0
  9
$DIMUPT
 70
     0
  9
$DIMDEC
 70
     2
  9
$DIMTDEC
 70
     2
  9
$DIMALTU
 70
     2
  9
$DIMALTTD
 70
     3
  9
$DIMTXSTY
  7
Standard
  9
$DIMAUNIT
 70
     0
  9
$DIMADEC
 70
     2
  9
$DIMALTRND
 40
0.0
  9
$DIMAZIN
 70
     0
  9
$DIMDSEP
 70
    44
  9
$DIMATFIT
 70
     3
  9
$DIMFRAC
 70
     0
  9
$DIMLDRBLK
  1

  9
$DIMLUNIT
 70
     2
  9
$DIMLWD
 70
    -2
  9
$DIMLWE
 70
    -2
  9
$DIMTMOVE
 70
     0
  9
$LUNITS
 70
     2
  9
$LUPREC
 70
     2
  9
$SKETCHINC
 40
1.0
  9
$FILLETRAD
 40
0.0
  9
$AUNITS
 70
     0
  9
$AUPREC
 70
     2
  9
$MENU
  1
.
  9
$ELEVATION
 40
0.0
  9
$PELEVATION
 40
0.0
  9
$THICKNESS
 40
0.0
  9
$LIMCHECK
 70
     0
  9
$CHAMFERA
 40
0.0
  9
$CHAMFERB
 40
0.0
  9
$CHAMFERC
 40
0.0
  9
$CHAMFERD
 40
0.0
  9
$SKPOLY
 70
     0
  9
$TDCREATE
 40
2461214.939106794
  9
$TDUCREATE
 40
2461214.605773461
  9
$TDUPDATE
 40
2461214.93910706
  9
$TDUUPDATE
 40
2461214.605773727
  9
$TDINDWG
 40
0.0000000116
  9
$TDUSRTIMER
 40
0.0000000116
  9
$USRTIMER
 70
     1
  9
$ANGBASE
 50
0.0
  9
$ANGDIR
 70
     0
  9
$PDMODE
 70
     0
  9
$PDSIZE
 40
-1.0
  9
$PLINEWID
 40
0.0
  9
$SPLFRAME
 70
     0
  9
$SPLINETYPE
 70
     6
  9
$SPLINESEGS
 70
     8
  9
$HANDSEED
  5
164
  9
$SURFTAB1
 70
     6
  9
$SURFTAB2
 70
     6
  9
$SURFTYPE
 70
     6
  9
$SURFU
 70
     6
  9
$SURFV
 70
     6
  9
$UCSBASE
  2

  9
$UCSNAME
  2

  9
$UCSORG
 10
0.0
 20
0.0
 30
0.0
  9
$UCSXDIR
 10
1.0
 20
0.0
 30
0.0
  9
$UCSYDIR
 10
0.0
 20
1.0
 30
0.0
  9
$UCSORTHOREF
  2

  9
$UCSORTHOVIEW
 70
     0
  9
$UCSORGTOP
 10
0.0
 20
0.0
 30
0.0
  9
$UCSORGBOTTOM
 10
0.0
 20
0.0
 30
0.0
  9
$UCSORGLEFT
 10
0.0
 20
0.0
 30
0.0
  9
$UCSORGRIGHT
 10
0.0
 20
0.0
 30
0.0
  9
$UCSORGFRONT
 10
0.0
 20
0.0
 30
0.0
  9
$UCSORGBACK
 10
0.0
 20
0.0
 30
0.0
  9
$PUCSBASE
  2

  9
$PUCSNAME
  2

  9
$PUCSORG
 10
0.0
 20
0.0
 30
0.0
  9
$PUCSXDIR
 10
1.0
 20
0.0
 30
0.0
  9
$PUCSYDIR
 10
0.0
 20
1.0
 30
0.0
  9
$PUCSORTHOREF
  2

  9
$PUCSORTHOVIEW
 70
     0
  9
$PUCSORGTOP
 10
0.0
 20
0.0
 30
0.0
  9
$PUCSORGBOTTOM
 10
0.0
 20
0.0
 30
0.0
  9
$PUCSORGLEFT
 10
0.0
 20
0.0
 30
0.0
  9
$PUCSORGRIGHT
 10
0.0
 20
0.0
 30
0.0
  9
$PUCSORGFRONT
 10
0.0
 20
0.0
 30
0.0
  9
$PUCSORGBACK
 10
0.0
 20
0.0
 30
0.0
  9
$USERI1
 70
     0
  9
$USERI2
 70
     0
  9
$USERI3
 70
     0
  9
$USERI4
 70
     0
  9
$USERI5
 70
     0
  9
$USERR1
 40
0.0
  9
$USERR2
 40
0.0
  9
$USERR3
 40
0.0
  9
$USERR4
 40
0.0
  9
$USERR5
 40
0.0
  9
$WORLDVIEW
 70
     1
  9
$SHADEDGE
 70
     3
  9
$SHADEDIF
 70
    70
  9
$TILEMODE
 70
     1
  9
$MAXACTVP
 70
    64
  9
$PINSBASE
 10
0.0
 20
0.0
 30
0.0
  9
$PLIMCHECK
 70
     0
  9
$PEXTMIN
 10
1.0000000000E+20
 20
1.0000000000E+20
 30
1.0000000000E+20
  9
$PEXTMAX
 10
-1.0000000000E+20
 20
-1.0000000000E+20
 30
-1.0000000000E+20
  9
$PLIMMIN
 10
0.0
 20
0.0
  9
$PLIMMAX
 10
420.0
 20
297.0
  9
$UNITMODE
 70
     0
  9
$VISRETAIN
 70
     1
  9
$PLINEGEN
 70
     0
  9
$PSLTSCALE
 70
     1
  9
$TREEDEPTH
 70
  3020
  9
$CMLSTYLE
  2
Standard
  9
$CMLJUST
 70
     0
  9
$CMLSCALE
 40
20.0
  9
$PROXYGRAPHICS
 70
     1
  9
$MEASUREMENT
 70
     1
  9
$CELWEIGHT
370
    -1
  9
$ENDCAPS
280
     0
  9
$JOINSTYLE
280
     0
  9
$LWDISPLAY
290
     1
  9
$INSUNITS
 70
     4
  9
$HYPERLINKBASE
  1

  9
$STYLESHEET
  1

  9
$XEDIT
290
     1
  9
$CEPSNTYPE
380
     0
  9
$PSTYLEMODE
290
     1
  9
$FINGERPRINTGUID
  2
{29d8e59d-da93-4d53-86b4-8464e2fd7e97}
  9
$VERSIONGUID
  2
{FAEB1C32-E019-11D5-929B-00C0DF256EC4}
  9
$EXTNAMES
290
     1
  9
$PSVPSCALE
 40
0.0
  9
$OLESTARTUP
290
     0
  0
ENDSEC
  0
SECTION
  2
CLASSES
  0
CLASS
  1
ACDBDICTIONARYWDFLT
  2
AcDbDictionaryWithDefault
  3
ObjectDBX Classes
 90
        0
280
     0
281
     0
  0
CLASS
  1
VISUALSTYLE
  2
AcDbVisualStyle
  3
ObjectDBX Classes
 90
     4095
280
     0
281
     0
  0
CLASS
  1
MATERIAL
  2
AcDbMaterial
  3
ObjectDBX Classes
 90
     1153
280
     0
281
     0
  0
CLASS
  1
SCALE
  2
AcDbScale
  3
ObjectDBX Classes
 90
     1153
280
     0
281
     0
  0
CLASS
  1
TABLESTYLE
  2
AcDbTableStyle
  3
ObjectDBX Classes
 90
     4095
280
     0
281
     0
  0
CLASS
  1
MLEADERSTYLE
  2
AcDbMLeaderStyle
  3
ACDB_MLEADERSTYLE_CLASS
 90
     4095
280
     0
281
     0
  0
CLASS
  1
SUN
  2
AcDbSun
  3
SCENEOE
 90
     1153
280
     0
281
     0
  0
CLASS
  1
ACDBPLACEHOLDER
  2
AcDbPlaceHolder
  3
ObjectDBX Classes
 90
        0
280
     0
281
     0
  0
CLASS
  1
LAYOUT
  2
AcDbLayout
  3
ObjectDBX Classes
 90
        0
280
     0
281
     0
  0
ENDSEC
  0
SECTION
  2
TABLES
  0
TABLE
  2
VPORT
  5
8
330
0
100
AcDbSymbolTable
 70
     1
  0
VPORT
  5
29
330
8
100
AcDbSymbolTableRecord
100
AcDbViewportTableRecord
  2
*Active
 70
     0
 10
0.0
 20
0.0
 11
1.0
 21
1.0
 12
148.5
 22
105.0
 13
0.0
 23
0.0
 14
10.0
 24
10.0
 15
10.0
 25
10.0
 16
0.0
 26
0.0
 36
1.0
 17
0.0
 27
0.0
 37
0.0
 40
210.0
 41
1.4142857143
 42
50.0
 43
0.0
 44
0.0
 50
0.0
 51
0.0
 71
     0
 72
  2000
 73
     1
 74
     3
 75
     0
 76
     0
 77
     0
 78
     0
281
     0
 65
     1
110
0.0
120
0.0
130
0.0
111
1.0
121
0.0
131
0.0
112
0.0
122
1.0
132
0.0
 79
     0
146
0.0
  0
ENDTAB
  0
TABLE
  2
LTYPE
  5
5
330
0
100
AcDbSymbolTable
 70
     6
  0
LTYPE
  5
14
330
5
100
AcDbSymbolTableRecord
100
AcDbLinetypeTableRecord
  2
ByBlock
 70
     0
  3

 72
    65
 73
     0
 40
0.0
  0
LTYPE
  5
15
330
5
100
AcDbSymbolTableRecord
100
AcDbLinetypeTableRecord
  2
ByLayer
 70
     0
  3

 72
    65
 73
     0
 40
0.0
  0
LTYPE
  5
16
330
5
100
AcDbSymbolTableRecord
100
AcDbLinetypeTableRecord
  2
Continuous
 70
     0
  3
Solid line
 72
    65
 73
     0
 40
0.0
  0
LTYPE
  5
5E
330
5
100
AcDbSymbolTableRecord
100
AcDbLinetypeTableRecord
  2
HIDDEN
 70
     0
  3
Hidden __ __ __ __ __ __ __ __ __ __ __ __ __ __
 72
    65
 73
     2
 40
1.905
 49
1.27
 74
     0
 49
-0.635
 74
     0
  0
LTYPE
  5
5F
330
5
100
AcDbSymbolTableRecord
100
AcDbLinetypeTableRecord
  2
PHANTOM
 70
     0
  3
Phantom ______  __  __  ______  __  __  ______
 72
    65
 73
     6
 40
12.7
 49
6.35
 74
     0
 49
-1.27
 74
     0
 49
1.27
 74
     0
 49
-1.27
 74
     0
 49
1.27
 74
     0
 49
-1.27
 74
     0
  0
LTYPE
  5
60
330
5
100
AcDbSymbolTableRecord
100
AcDbLinetypeTableRecord
  2
CENTER
 70
     0
  3
Center ____ _ ____ _ ____ _ ____ _ ____ _ ____
 72
    65
 73
     4
 40
10.16
 49
6.35
 74
     0
 49
-1.27
 74
     0
 49
1.27
 74
     0
 49
-1.27
 74
     0
  0
LTYPE
  5
61
330
5
100
AcDbSymbolTableRecord
100
AcDbLinetypeTableRecord
  2
CENTERX2
 70
     0
  3
Center (2x) ________  __  ________  __  _____
 72
    65
 73
     4
 40
20.32
 49
12.7
 74
     0
 49
-2.54
 74
     0
 49
2.54
 74
     0
 49
-2.54
 74
     0
  0
LTYPE
  5
62
330
5
100
AcDbSymbolTableRecord
100
AcDbLinetypeTableRecord
  2
DOT2
 70
     0
  3
Dot (.5x) ........................................
 72
    65
 73
     2
 40
0.635
 49
0.0
 74
     0
 49
-0.635
 74
     0
  0
ENDTAB
  0
TABLE
  2
LAYER
  5
2
330
0
100
AcDbSymbolTable
 70
    14
  0
LAYER
  5
10
330
2
100
AcDbSymbolTableRecord
100
AcDbLayerTableRecord
  2
0
 70
     0
 62
     7
  6
Continuous
370
    -3
390
F
  0
LAYER
  5
63
330
2
100
AcDbSymbolTableRecord
100
AcDbLayerTableRecord
  2
SLD-0
 70
     0
 62
     7
  6
Continuous
370
    -3
390
F
  0
LAYER
  5
64
330
2
100
AcDbSymbolTableRecord
100
AcDbLayerTableRecord
  2
5
 70
     0
 62
     7
  6
Continuous
370
    -3
390
F
  0
LAYER
  5
65
330
2
100
AcDbSymbolTableRecord
100
AcDbLayerTableRecord
  2
9
 70
     0
 62
     7
  6
Continuous
370
    -3
390
F
  0
LAYER
  5
66
330
2
100
AcDbSymbolTableRecord
100
AcDbLayerTableRecord
  2
10
 70
     0
 62
     7
  6
Continuous
370
    -3
390
F
  0
LAYER
  5
67
330
2
100
AcDbSymbolTableRecord
100
AcDbLayerTableRecord
  2
轮廓实线层
 70
     0
 62
     7
  6
Continuous
370
    50
390
F
  0
LAYER
  5
68
330
2
100
AcDbSymbolTableRecord
100
AcDbLayerTableRecord
  2
细线层
 70
     0
 62
     4
  6
Continuous
370
    25
390
F
  0
LAYER
  5
69
330
2
100
AcDbSymbolTableRecord
100
AcDbLayerTableRecord
  2
中心线层
 70
     0
 62
     1
  6
CENTERX2
370
    25
390
F
  0
LAYER
  5
6A
330
2
100
AcDbSymbolTableRecord
100
AcDbLayerTableRecord
  2
虚线层
 70
     0
 62
     6
  6
HIDDEN
370
    25
390
F
  0
LAYER
  5
6B
330
2
100
AcDbSymbolTableRecord
100
AcDbLayerTableRecord
  2
剖面线层
 70
     0
 62
     2
  6
Continuous
370
    25
390
F
  0
LAYER
  5
6C
330
2
100
AcDbSymbolTableRecord
100
AcDbLayerTableRecord
  2
文字层
 70
     0
 62
     3
  6
Continuous
370
    25
390
F
  0
LAYER
  5
6D
330
2
100
AcDbSymbolTableRecord
100
AcDbLayerTableRecord
  2
标注层
 70
     0
 62
     4
  6
Continuous
370
    25
390
F
  0
LAYER
  5
6E
330
2
100
AcDbSymbolTableRecord
100
AcDbLayerTableRecord
  2
符号标注层
 70
     0
 62
    31
  6
Continuous
370
    25
390
F
  0
LAYER
  5
6F
330
2
100
AcDbSymbolTableRecord
100
AcDbLayerTableRecord
  2
双点划线层
 70
     0
 62
     6
  6
PHANTOM
370
    25
390
F
  0
ENDTAB
  0
TABLE
  2
STYLE
  5
3
330
0
100
AcDbSymbolTable
 70
     1
  0
STYLE
  5
11
330
3
100
AcDbSymbolTableRecord
100
AcDbTextStyleTableRecord
  2
Standard
 70
     0
 40
0.0
 41
1.0
 50
0.0
 71
     0
 42
3.5
  3
txt
  4

  0
ENDTAB
  0
TABLE
  2
VIEW
  5
6
330
0
100
AcDbSymbolTable
 70
     0
  0
ENDTAB
  0
TABLE
  2
UCS
  5
7
330
0
100
AcDbSymbolTable
 70
     0
  0
ENDTAB
  0
TABLE
  2
APPID
  5
9
330
0
100
AcDbSymbolTable
 70
     1
  0
APPID
  5
12
330
9
100
AcDbSymbolTableRecord
100
AcDbRegAppTableRecord
  2
ACAD
 70
     0
  0
ENDTAB
  0
TABLE
  2
DIMSTYLE
  5
A
330
0
100
AcDbSymbolTable
 70
     1
100
AcDbDimStyleTable
  0
DIMSTYLE
105
27
330
A
100
AcDbSymbolTableRecord
100
AcDbDimStyleTableRecord
  2
ISO-25
 70
     0
 41
2.5
 42
0.625
 43
3.75
 44
1.25
 73
     0
 74
     0
 77
     1
 78
     8
140
2.5
141
2.5
143
0.0393700787
147
0.625
171
     3
172
     1
178
     0
271
     2
272
     2
274
     3
278
    44
283
     0
284
     8
340
11
  0
ENDTAB
  0
TABLE
  2
BLOCK_RECORD
  5
1
330
0
100
AcDbSymbolTable
 70
     5
  0
BLOCK_RECORD
  5
1F
330
1
100
AcDbSymbolTableRecord
100
AcDbBlockTableRecord
  2
*Model_Space
340
22
  0
BLOCK_RECORD
  5
1B
330
1
100
AcDbSymbolTableRecord
100
AcDbBlockTableRecord
  2
*Paper_Space
340
1E
  0
BLOCK_RECORD
  5
23
330
1
100
AcDbSymbolTableRecord
100
AcDbBlockTableRecord
  2
*Paper_Space0
340
26
  0
BLOCK_RECORD
  5
B1
330
1
100
AcDbSymbolTableRecord
100
AcDbBlockTableRecord
  2
SW_CENTERMARKSYMBOL_0
340
0
102
{BLKREFS
331
BC
102
}
  0
BLOCK_RECORD
  5
BD
330
1
100
AcDbSymbolTableRecord
100
AcDbBlockTableRecord
  2
SW_CENTERMARKSYMBOL_1
340
0
102
{BLKREFS
331
C8
102
}
  0
BLOCK_RECORD
  5
C9
330
1
100
AcDbSymbolTableRecord
100
AcDbBlockTableRecord
  2
SW_CENTERMARKSYMBOL_2
340
0
102
{BLKREFS
331
D4
102
}
  0
BLOCK_RECORD
  5
D5
330
1
100
AcDbSymbolTableRecord
100
AcDbBlockTableRecord
  2
SW_CENTERMARKSYMBOL_3
340
0
102
{BLKREFS
331
E0
102
}
  0
ENDTAB
  0
ENDSEC
  0
SECTION
  2
BLOCKS
  0
BLOCK
  5
20
330
1F
100
AcDbEntity
  8
0
100
AcDbBlockBegin
  2
*Model_Space
 70
     0
 10
0.0
 20
0.0
 30
0.0
  3
*Model_Space
  1

  0
ENDBLK
  5
21
330
1F
100
AcDbEntity
  8
0
100
AcDbBlockEnd
  0
BLOCK
  5
1C
330
1B
100
AcDbEntity
 67
     1
  8
0
100
AcDbBlockBegin
  2
*Paper_Space
 70
     0
 10
0.0
 20
0.0
 30
0.0
  3
*Paper_Space
  1

  0
ENDBLK
  5
1D
330
1B
100
AcDbEntity
 67
     1
  8
0
100
AcDbBlockEnd
  0
BLOCK
  5
24
330
23
100
AcDbEntity
  8
0
100
AcDbBlockBegin
  2
*Paper_Space0
 70
     0
 10
0.0
 20
0.0
 30
0.0
  3
*Paper_Space0
  1

  0
ENDBLK
  5
25
330
23
100
AcDbEntity
  8
0
100
AcDbBlockEnd
  0
BLOCK
  5
B2
330
B1
100
AcDbEntity
  8
0
100
AcDbBlockBegin
  2
SW_CENTERMARKSYMBOL_0
 70
     0
 10
0.0
 20
0.0
 30
0.0
  3
SW_CENTERMARKSYMBOL_0
  1

  0
LINE
  5
B4
330
B1
100
AcDbEntity
  8
10
 62
     0
100
AcDbLine
 10
0.0
 20
0.0
 30
0.0
 11
0.0
 21
2.5
 31
0.0
  0
LINE
  5
B5
330
B1
100
AcDbEntity
  8
10
 62
     0
100
AcDbLine
 10
0.0
 20
0.0
 30
0.0
 11
-2.5
 21
0.0
 31
0.0
  0
LINE
  5
B6
330
B1
100
AcDbEntity
  8
10
 62
     0
100
AcDbLine
 10
0.0
 20
0.0
 30
0.0
 11
0.0
 21
-2.5
 31
0.0
  0
LINE
  5
B7
330
B1
100
AcDbEntity
  8
10
 62
     0
100
AcDbLine
 10
0.0
 20
0.0
 30
0.0
 11
2.5
 21
0.0
 31
0.0
  0
LINE
  5
B8
330
B1
100
AcDbEntity
  8
10
 62
     0
100
AcDbLine
 10
0.0
 20
2.5
 30
0.0
 11
0.0
 21
4.8259859335
 31
0.0
  0
LINE
  5
B9
330
B1
100
AcDbEntity
  8
10
 62
     0
100
AcDbLine
 10
-2.5
 20
0.0
 30
0.0
 11
-4.8259859335
 21
0.0
 31
0.0
  0
LINE
  5
BA
330
B1
100
AcDbEntity
  8
10
 62
     0
100
AcDbLine
 10
0.0
 20
-2.5
 30
0.0
 11
0.0
 21
-4.8259859335
 31
0.0
  0
LINE
  5
BB
330
B1
100
AcDbEntity
  8
10
 62
     0
100
AcDbLine
 10
2.5
 20
0.0
 30
0.0
 11
4.8259859335
 21
0.0
 31
0.0
  0
ENDBLK
  5
B3
330
B1
100
AcDbEntity
  8
0
100
AcDbBlockEnd
  0
BLOCK
  5
BE
330
BD
100
AcDbEntity
  8
0
100
AcDbBlockBegin
  2
SW_CENTERMARKSYMBOL_1
 70
     0
 10
0.0
 20
0.0
 30
0.0
  3
SW_CENTERMARKSYMBOL_1
  1

  0
LINE
  5
C0
330
BD
100
AcDbEntity
  8
10
 62
     0
100
AcDbLine
 10
0.0
 20
0.0
 30
0.0
 11
0.0
 21
2.5
 31
0.0
  0
LINE
  5
C1
330
BD
100
AcDbEntity
  8
10
 62
     0
100
AcDbLine
 10
0.0
 20
0.0
 30
0.0
 11
-2.5
 21
0.0
 31
0.0
  0
LINE
  5
C2
330
BD
100
AcDbEntity
  8
10
 62
     0
100
AcDbLine
 10
0.0
 20
0.0
 30
0.0
 11
0.0
 21
-2.5
 31
0.0
  0
LINE
  5
C3
330
BD
100
AcDbEntity
  8
10
 62
     0
100
AcDbLine
 10
0.0
 20
0.0
 30
0.0
 11
2.5
 21
0.0
 31
0.0
  0
LINE
  5
C4
330
BD
100
AcDbEntity
  8
10
 62
     0
100
AcDbLine
 10
0.0
 20
2.5
 30
0.0
 11
0.0
 21
4.8259859335
 31
0.0
  0
LINE
  5
C5
330
BD
100
AcDbEntity
  8
10
 62
     0
100
AcDbLine
 10
-2.5
 20
0.0
 30
0.0
 11
-4.8259859335
 21
0.0
 31
0.0
  0
LINE
  5
C6
330
BD
100
AcDbEntity
  8
10
 62
     0
100
AcDbLine
 10
0.0
 20
-2.5
 30
0.0
 11
0.0
 21
-4.8259859335
 31
0.0
  0
LINE
  5
C7
330
BD
100
AcDbEntity
  8
10
 62
     0
100
AcDbLine
 10
2.5
 20
0.0
 30
0.0
 11
4.8259859335
 21
0.0
 31
0.0
  0
ENDBLK
  5
BF
330
BD
100
AcDbEntity
  8
0
100
AcDbBlockEnd
  0
BLOCK
  5
CA
330
C9
100
AcDbEntity
  8
0
100
AcDbBlockBegin
  2
SW_CENTERMARKSYMBOL_2
 70
     0
 10
0.0
 20
0.0
 30
0.0
  3
SW_CENTERMARKSYMBOL_2
  1

  0
LINE
  5
CC
330
C9
100
AcDbEntity
  8
10
 62
     0
100
AcDbLine
 10
0.0
 20
0.0
 30
0.0
 11
0.0
 21
2.5
 31
0.0
  0
LINE
  5
CD
330
C9
100
AcDbEntity
  8
10
 62
     0
100
AcDbLine
 10
0.0
 20
0.0
 30
0.0
 11
-2.5
 21
0.0
 31
0.0
  0
LINE
  5
CE
330
C9
100
AcDbEntity
  8
10
 62
     0
100
AcDbLine
 10
0.0
 20
0.0
 30
0.0
 11
0.0
 21
-2.5
 31
0.0
  0
LINE
  5
CF
330
C9
100
AcDbEntity
  8
10
 62
     0
100
AcDbLine
 10
0.0
 20
0.0
 30
0.0
 11
2.5
 21
0.0
 31
0.0
  0
LINE
  5
D0
330
C9
100
AcDbEntity
  8
10
 62
     0
100
AcDbLine
 10
0.0
 20
2.5
 30
0.0
 11
0.0
 21
4.8259859335
 31
0.0
  0
LINE
  5
D1
330
C9
100
AcDbEntity
  8
10
 62
     0
100
AcDbLine
 10
-2.5
 20
0.0
 30
0.0
 11
-4.8259859335
 21
0.0
 31
0.0
  0
LINE
  5
D2
330
C9
100
AcDbEntity
  8
10
 62
     0
100
AcDbLine
 10
0.0
 20
-2.5
 30
0.0
 11
0.0
 21
-4.8259859335
 31
0.0
  0
LINE
  5
D3
330
C9
100
AcDbEntity
  8
10
 62
     0
100
AcDbLine
 10
2.5
 20
0.0
 30
0.0
 11
4.8259859335
 21
0.0
 31
0.0
  0
ENDBLK
  5
CB
330
C9
100
AcDbEntity
  8
0
100
AcDbBlockEnd
  0
BLOCK
  5
D6
330
D5
100
AcDbEntity
  8
0
100
AcDbBlockBegin
  2
SW_CENTERMARKSYMBOL_3
 70
     0
 10
0.0
 20
0.0
 30
0.0
  3
SW_CENTERMARKSYMBOL_3
  1

  0
LINE
  5
D8
330
D5
100
AcDbEntity
  8
10
 62
     0
100
AcDbLine
 10
0.0
 20
0.0
 30
0.0
 11
0.0
 21
2.5
 31
0.0
  0
LINE
  5
D9
330
D5
100
AcDbEntity
  8
10
 62
     0
100
AcDbLine
 10
0.0
 20
0.0
 30
0.0
 11
-2.5
 21
0.0
 31
0.0
  0
LINE
  5
DA
330
D5
100
AcDbEntity
  8
10
 62
     0
100
AcDbLine
 10
0.0
 20
0.0
 30
0.0
 11
0.0
 21
-2.5
 31
0.0
  0
LINE
  5
DB
330
D5
100
AcDbEntity
  8
10
 62
     0
100
AcDbLine
 10
0.0
 20
0.0
 30
0.0
 11
2.5
 21
0.0
 31
0.0
  0
LINE
  5
DC
330
D5
100
AcDbEntity
  8
10
 62
     0
100
AcDbLine
 10
0.0
 20
2.5
 30
0.0
 11
0.0
 21
4.8259859335
 31
0.0
  0
LINE
  5
DD
330
D5
100
AcDbEntity
  8
10
 62
     0
100
AcDbLine
 10
-2.5
 20
0.0
 30
0.0
 11
-4.8259859335
 21
0.0
 31
0.0
  0
LINE
  5
DE
330
D5
100
AcDbEntity
  8
10
 62
     0
100
AcDbLine
 10
0.0
 20
-2.5
 30
0.0
 11
0.0
 21
-4.8259859335
 31
0.0
  0
LINE
  5
DF
330
D5
100
AcDbEntity
  8
10
 62
     0
100
AcDbLine
 10
2.5
 20
0.0
 30
0.0
 11
4.8259859335
 21
0.0
 31
0.0
  0
ENDBLK
  5
D7
330
D5
100
AcDbEntity
  8
0
100
AcDbBlockEnd
  0
ENDSEC
  0
SECTION
  2
ENTITIES
  0
SPLINE
  5
70
330
1F
100
AcDbEntity
  8
0
  6
Continuous
 62
     7
370
    25
100
AcDbSpline
210
0.0
220
0.0
230
1.0
 70
     8
 71
     3
 72
    21
 73
    17
 74
     0
 42
0.00000001
 43
0.00000001
 40
0.0
 40
0.0
 40
0.0
 40
0.0
 40
0.092095993838958
 40
0.1664634587029219
 40
0.2289031788352718
 40
0.2819693057450745
 40
0.3763483292206343
 40
0.4649399603384012
 40
0.5504200891226521
 40
0.620484678782472
 40
0.6689970790165737
 40
0.7452248787437353
 40
0.794130131804114
 40
0.8513108344906535
 40
0.918834307408938
 40
1.0
 40
1.0
 40
1.0
 40
1.0
 10
80.90306348666581
 20
72.64908411198942
 30
0.0
 10
80.92274625489522
 20
72.45596622221316
 30
0.0
 10
80.95832284774943
 20
72.10690574162615
 30
0.0
 10
81.16090067250317
 20
71.66744534636572
 30
0.0
 10
81.41298198129115
 20
71.35994074529134
 30
0.0
 10
81.76051741620452
 20
71.08879788146749
 30
0.0
 10
82.21875593051186
 20
70.88788563812426
 30
0.0
 10
82.77694250657754
 20
70.78663115582457
 30
0.0
 10
83.29165548820599
 20
70.79703902719619
 30
0.0
 10
83.71430327358487
 20
70.88135702959484
 30
0.0
 10
84.09466115399628
 20
71.02201745627849
 30
0.0
 10
84.41077415729417
 20
71.21434594687754
 30
0.0
 10
84.68576243151824
 20
71.48088223079534
 30
0.0
 10
84.89001828197404
 20
71.7790092411349
 30
0.0
 10
85.05041316510358
 20
72.17524899255396
 30
0.0
 10
85.08050832116109
 20
72.48176480466311
 30
0.0
 10
85.09693651333419
 20
72.64908411198942
 30
0.0
  0
SPLINE
  5
71
330
1F
100
AcDbEntity
  8
0
  6
Continuous
 62
     7
370
    25
100
AcDbSpline
210
0.0
220
0.0
230
1.0
 70
     8
 71
     3
 72
    21
 73
    17
 74
     0
 42
0.00000001
 43
0.00000001
 40
0.0
 40
0.0
 40
0.0
 40
0.0
 40
0.0920959938389571
 40
0.1664634587029195
 40
0.2289031788352643
 40
0.281969305745069
 40
0.3763483292206219
 40
0.4649399603383907
 40
0.550420089122652
 40
0.6204846787824654
 40
0.6689970790165688
 40
0.7452248787437344
 40
0.7941301318041153
 40
0.8513108344906537
 40
0.918834307408936
 40
0.9999999999999999
 40
0.9999999999999999
 40
0.9999999999999999
 40
0.9999999999999999
 10
61.18224597036662
 20
31.22762504428255
 30
0.0
 10
61.33964958472339
 20
31.34122976647415
 30
0.0
 10
61.62415653194183
 20
31.54657023995949
 30
0.0
 10
61.90345148581762
 20
31.94173798006983
 30
0.0
 10
62.04371762773463
 20
32.31379909783663
 30
0.0
 10
62.10476651840427
 20
32.75034504509877
 30
0.0
 10
62.04964236791712
 20
33.24764736115296
 30
0.0
 10
61.85823803380283
 20
33.78167835722712
 30
0.0
 10
61.59186806198151
 20
34.22222893928922
 30
0.0
 10
61.30752263721848
 20
34.54609365708122
 30
0.0
 10
60.99552819419761
 20
34.80516303070529
 30
0.0
 10
60.67091033381837
 20
34.98276067672833
 30
0.0
 10
60.30258900380321
 20
35.08763936599032
 30
0.0
 10
59.94227551406698
 20
35.11546661618689
 30
0.0
 10
59.51892438178406
 20
35.05625278390459
 30
0.0
 10
59.23842632380719
 20
34.92905804752669
 30
0.0
 10
59.08530945703246
 20
34.8596256256237
 30
0.0
  0
SPLINE
  5
72
330
1F
100
AcDbEntity
  8
0
  6
Continuous
 62
     7
370
    25
100
AcDbSpline
210
0.0
220
0.0
230
1.0
 70
     8
 71
     3
 72
    21
 73
    17
 74
     0
 42
0.00000001
 43
0.00000001
 40
0.0
 40
0.0
 40
0.0
 40
0.0
 40
0.0920959938389555
 40
0.1664634587029179
 40
0.2289031788352674
 40
0.2819693057450704
 40
0.3763483292206293
 40
0.4649399603383965
 40
0.5504200891226501
 40
0.6204846787824718
 40
0.6689970790165715
 40
0.7452248787437298
 40
0.7941301318041085
 40
0.8513108344906494
 40
0.918834307408935
 40
1.0
 40
1.0
 40
1.0
 40
1.0
 10
106.9146905429675
 20
34.85962562562367
 30
0.0
 10
106.7376041603814
 20
34.93913879320834
 30
0.0
 10
106.4175206203087
 20
35.08285880030998
 30
0.0
 10
105.9356478416792
 20
35.12715145546005
 30
0.0
 10
105.5433003909742
 20
35.06259493876762
 30
0.0
 10
105.1347160653912
 20
34.89719185532929
 30
0.0
 10
104.731601701571
 20
34.60080178261829
 30
0.0
 10
104.3648194596196
 20
34.16802526884382
 30
0.0
 10
104.1164764498125
 20
33.7170668154101
 30
0.0
 10
103.9781740891967
 20
33.30888409521944
 30
0.0
 10
103.9098106518062
 20
32.90915429491173
 30
0.0
 10
103.9183155088875
 20
32.53922815828966
 30
0.0
 10
104.0116485646786
 20
32.1678131851099
 30
0.0
 10
104.167706203959
 20
31.84185892457379
 30
0.0
 10
104.4306624531124
 20
31.50483300543705
 30
0.0
 10
104.6810653550318
 20
31.32551192970582
 30
0.0
 10
104.8177540296334
 20
31.22762504428251
 30
0.0
  0
ARC
  5
73
330
1F
100
AcDbEntity
  8
0
  6
Continuous
 62
     7
370
    25
100
AcDbCircle
 10
83.0
 20
46.2454449273
 30
0.0
 40
27.40202606551843
100
AcDbArc
 50
75.0
 51
105.0
  0
LINE
  5
74
330
1F
100
AcDbEntity
  8
0
  6
Continuous
 62
     7
370
    25
100
AcDbLine
 10
91.2467049072
 20
77.0225666358
 30
0.0
 11
90.0921662202
 21
72.7137695966
 31
0.0
  0
LINE
  5
75
330
1F
100
AcDbEntity
  8
0
  6
Continuous
 62
     7
370
    25
100
AcDbLine
 10
75.9078337798
 20
72.7137695966
 30
0.0
 11
74.7532950928
 21
77.0225666358
 31
0.0
  0
ARC
  5
76
330
1F
100
AcDbEntity
  8
0
  6
Continuous
 62
     7
370
    25
100
AcDbCircle
 10
83.0
 20
46.2454449273
 30
0.0
 40
31.86282100641674
100
AcDbArc
 50
75.0
 51
105.0
  0
SPLINE
  5
77
330
1F
100
AcDbEntity
  8
0
  6
Continuous
 62
     7
370
    25
100
AcDbSpline
210
0.0
220
0.0
230
1.0
 70
     8
 71
     3
 72
    17
 73
    13
 74
     0
 42
0.00000001
 43
0.00000001
 40
0.0
 40
0.0
 40
0.0
 40
0.0
 40
0.041874458937926
 40
0.1458471206654194
 40
0.2541580552731305
 40
0.3601740189794462
 40
0.4660769225166275
 40
0.5745110832409847
 40
0.6784067492534587
 40
0.787673371675306
 40
0.891579838488127
 40
1.0
 40
1.0
 40
1.0
 40
1.0
 10
106.8803260676827
 20
34.84292154614431
 30
0.0
 10
106.9056901974088
 20
34.83912680725158
 30
0.0
 10
106.9940324800927
 20
34.8259098784788
 30
0.0
 10
107.0182145211093
 20
34.58384405973759
 30
0.0
 10
106.9509382354408
 20
34.16475741238657
 30
0.0
 10
106.7459190663548
 20
33.59689121599077
 30
0.0
 10
106.4465474670953
 20
32.97459202906241
 30
0.0
 10
106.079215188521
 20
32.36214828068402
 30
0.0
 10
105.6841957285141
 20
31.82231253697867
 30
0.0
 10
105.3138691784271
 20
31.42808671989951
 30
0.0
 10
104.9946421113348
 20
31.20351281769029
 30
0.0
 10
104.8671044724785
 20
31.22619605559625
 30
0.0
 10
104.8019800388983
 20
31.23777877763531
 30
0.0
  0
ARC
  5
78
330
1F
100
AcDbEntity
  8
0
  6
Continuous
 62
     7
370
    25
100
AcDbCircle
 10
83.0
 20
46.2454449273
 30
0.0
 40
22.30397470449175
100
AcDbArc
 50
323.1301023542
 51
345.0
  0
LINE
  5
79
330
1F
100
AcDbEntity
  8
0
  6
Continuous
 62
     7
370
    25
100
AcDbLine
 10
109.4683246693
 20
39.1532787071
 30
0.0
 11
104.543985196
 21
40.4727514923
 31
0.0
  0
ARC
  5
7A
330
1F
100
AcDbEntity
  8
0
  6
Continuous
 62
     7
370
    25
100
AcDbCircle
 10
83.0
 20
46.2454449273
 30
0.0
 40
27.40202606551833
100
AcDbArc
 50
315.0
 51
345.0
  0
LINE
  5
7B
330
1F
100
AcDbEntity
  8
0
  6
Continuous
 62
     7
370
    25
100
AcDbLine
 10
100.8431797636
 20
28.4022651637
 30
0.0
 11
100.8431797636
 21
32.8630601046
 31
0.0
  0
LINE
  5
7C
330
1F
100
AcDbEntity
  8
0
  6
Continuous
 62
     7
370
    25
100
AcDbLine
 10
100.8431797636
 20
28.4022651637
 30
0.0
 11
102.3761584492
 21
26.8692864781
 31
0.0
  0
LINE
  5
7D
330
1F
100
AcDbEntity
  8
0
  6
Continuous
 62
     7
370
    25
100
AcDbLine
 10
109.4683246693
 20
39.1532787071
 30
0.0
 11
113.7771217085
 21
37.9987400201
 31
0.0
  0
LINE
  5
7E
330
1F
100
AcDbEntity
  8
0
  6
Continuous
 62
     7
370
    25
100
AcDbLine
 10
105.5304168014
 20
23.7150281259
 30
0.0
 11
102.3761584492
 21
26.8692864781
 31
0.0
  0
ARC
  5
7F
330
1F
100
AcDbEntity
  8
0
  6
Continuous
 62
     7
370
    25
100
AcDbCircle
 10
83.0
 20
46.2454449273
 30
0.0
 40
31.86282100641679
100
AcDbArc
 50
315.0
 51
345.0
  0
ARC
  5
80
330
1F
100
AcDbEntity
  8
0
  6
Continuous
 62
     7
370
    25
100
AcDbCircle
 10
83.0
 20
46.2454449273
 30
0.0
 40
27.40202606551844
100
AcDbArc
 50
195.0
 51
225.0
  0
LINE
  5
81
330
1F
100
AcDbEntity
  8
0
  6
Continuous
 62
     7
370
    25
100
AcDbLine
 10
63.6238415508
 20
26.8692864781
 30
0.0
 11
60.4695831986
 21
23.7150281259
 31
0.0
  0
LINE
  5
82
330
1F
100
AcDbEntity
  8
0
  6
Continuous
 62
     7
370
    25
100
AcDbLine
 10
52.2228782915
 20
37.9987400201
 30
0.0
 11
56.5316753307
 21
39.1532787071
 31
0.0
  0
ARC
  5
83
330
1F
100
AcDbEntity
  8
0
  6
Continuous
 62
     7
370
    25
100
AcDbCircle
 10
83.0
 20
46.2454449273
 30
0.0
 40
31.86282100641678
100
AcDbArc
 50
195.0
 51
225.0
  0
SPLINE
  5
84
330
1F
100
AcDbEntity
  8
0
  6
Continuous
 62
     7
370
    25
100
AcDbSpline
210
0.0
220
0.0
230
1.0
 70
     8
 71
     3
 72
    17
 73
    13
 74
     0
 42
0.00000001
 43
0.00000001
 40
0.0
 40
0.0
 40
0.0
 40
0.0
 40
0.041874458937983
 40
0.1458471206654654
 40
0.2541580552731681
 40
0.3601740189794764
 40
0.4660769225166449
 40
0.5745110832409978
 40
0.6784067492534759
 40
0.7876733716753396
 40
0.89157983848814
 40
1.0
 40
1.0
 40
1.0
 40
1.0
 10
61.18496205083314
 20
31.26573759260669
 30
0.0
 10
61.16899364568825
 20
31.24566898136537
 30
0.0
 10
61.11337630826903
 20
31.17577078471913
 30
0.0
 10
60.89165013934294
 20
31.2758614322541
 30
0.0
 10
60.56234859918429
 20
31.54366772839075
 30
0.0
 10
60.17307163169812
 20
32.00515263527992
 30
0.0
 10
59.78383052669355
 20
32.57556563887447
 30
0.0
 10
59.437104821496
 20
33.19990659793898
 30
0.0
 10
59.16710308357974
 20
33.81192135714693
 30
0.0
 10
59.01085678620507
 20
34.32974646575774
 30
0.0
 10
58.975983615411
 20
34.71849216653979
 30
0.0
 10
59.05939669510585
 20
34.81760138277501
 30
0.0
 10
59.10198984342679
 20
34.868209435643
 30
0.0
  0
ARC
  5
85
330
1F
100
AcDbEntity
  8
0
  6
Continuous
 62
     7
370
    25
100
AcDbCircle
 10
83.0
 20
46.2454449273
 30
0.0
 40
22.30397470449173
100
AcDbArc
 50
195.0
 51
216.8698976458
  0
LINE
  5
86
330
1F
100
AcDbEntity
  8
0
  6
Continuous
 62
     7
370
    25
100
AcDbLine
 10
65.1568202364
 20
28.4022651637
 30
0.0
 11
65.1568202364
 21
32.8630601046
 31
0.0
  0
LINE
  5
87
330
1F
100
AcDbEntity
  8
0
  6
Continuous
 62
     7
370
    25
100
AcDbLine
 10
63.6238415508
 20
26.8692864781
 30
0.0
 11
65.1568202364
 21
28.4022651637
 31
0.0
  0
LINE
  5
88
330
1F
100
AcDbEntity
  8
0
  6
Continuous
 62
     7
370
    25
100
AcDbLine
 10
61.456014804
 20
40.4727514923
 30
0.0
 11
56.5316753307
 21
39.1532787071
 31
0.0
  0
SPLINE
  5
89
330
1F
100
AcDbEntity
  8
0
  6
Continuous
 62
     7
370
    25
100
AcDbSpline
210
0.0
220
0.0
230
1.0
 70
     8
 71
     3
 72
    17
 73
    13
 74
     0
 42
0.00000001
 43
0.00000001
 40
0.0
 40
0.0
 40
0.0
 40
0.0
 40
0.0418744589379403
 40
0.1458471206654253
 40
0.2541580552731312
 40
0.3601740189794455
 40
0.4660769225166204
 40
0.5745110832409858
 40
0.6784067492534697
 40
0.7876733716753308
 40
0.8915798384881363
 40
0.9999999999999999
 40
0.9999999999999999
 40
0.9999999999999999
 40
0.9999999999999999
 10
80.9347118814842
 20
72.62767564314463
 30
0.0
 10
80.92531615690302
 20
72.65153899327863
 30
0.0
 10
80.89259121163828
 20
72.73465411869763
 30
0.0
 10
81.09013533954779
 20
72.87662928990396
 30
0.0
 10
81.48671316537485
 20
73.0279096411183
 30
0.0
 10
82.08100930194703
 20
73.13429093062499
 30
0.0
 10
82.7696220062112
 20
73.18617711395872
 30
0.0
 10
83.483679989983
 20
73.17427990327263
 30
0.0
 10
84.14870118790624
 20
73.10210088777006
 30
0.0
 10
84.67527403536796
 20
72.97850159623844
 30
0.0
 10
85.02937427325425
 20
72.81432979766554
 30
0.0
 10
85.07349883241571
 20
72.69253734352435
 30
0.0
 10
85.09603011767499
 20
72.63034656861728
 30
0.0
  0
LINE
  5
8A
330
1F
100
AcDbEntity
  8
0
  6
Continuous
 62
     7
370
    25
100
AcDbLine
 10
89.3178366964
 20
69.823932472
 30
0.0
 11
76.6821633036
 21
69.823932472
 31
0.0
  0
LINE
  5
8B
330
1F
100
AcDbEntity
  8
0
  6
Continuous
 62
     7
370
    25
100
AcDbLine
 10
89.3178366964
 20
69.823932472
 30
0.0
 11
90.0921662202
 21
72.7137695966
 31
0.0
  0
LINE
  5
8C
330
1F
100
AcDbEntity
  8
0
  6
Continuous
 62
     7
370
    25
100
AcDbLine
 10
75.9078337798
 20
72.7137695966
 30
0.0
 11
76.6821633036
 21
69.823932472
 31
0.0
  0
LINE
  5
8D
330
1F
100
AcDbEntity
  8
0
  6
Continuous
 62
     7
370
    25
100
AcDbLine
 10
113.6110576557
 20
37.4022265265
 30
0.0
 11
131.7254871597
 21
26.9438557761
 31
0.0
  0
ARC
  5
8E
330
1F
100
AcDbEntity
  8
0
  6
Continuous
 62
     7
370
    25
100
AcDbCircle
 10
130.4509743195
 20
24.7363347819
 30
0.0
 40
2.549025680513371
100
AcDbArc
 50
330.0
 51
60.0
  0
LINE
  5
8F
330
1F
100
AcDbEntity
  8
0
  6
Continuous
 62
     7
370
    25
100
AcDbLine
 10
127.5604439527
 20
14.6317379647
 30
0.0
 11
132.6584953137
 21
23.4618219416
 31
0.0
  0
ARC
  5
90
330
1F
100
AcDbEntity
  8
0
  6
Continuous
 62
     7
370
    25
100
AcDbCircle
 10
125.3529229585
 20
15.906250805
 30
0.0
 40
2.549025680513304
100
AcDbArc
 50
240.0
 51
330.0
  0
LINE
  5
91
330
1F
100
AcDbEntity
  8
0
  6
Continuous
 62
     7
370
    25
100
AcDbLine
 10
105.9639806142
 20
24.1571005611
 30
0.0
 11
124.0784101182
 21
13.6987298108
 31
0.0
  0
LINE
  5
92
330
1F
100
AcDbEntity
  8
0
  6
Continuous
 62
     7
370
    25
100
AcDbLine
 10
60.0360193858
 20
24.1571005611
 30
0.0
 11
41.9215898818
 21
13.6987298108
 31
0.0
  0
LINE
  5
93
330
1F
100
AcDbEntity
  8
0
  6
Continuous
 62
     7
370
    25
100
AcDbLine
 10
33.3415046863
 20
23.4618219416
 30
0.0
 11
38.4395560473
 21
14.6317379647
 31
0.0
  0
LINE
  5
94
330
1F
100
AcDbEntity
  8
0
  6
Continuous
 62
     7
370
    25
100
AcDbLine
 10
52.3889423443
 20
37.4022265265
 30
0.0
 11
34.2745128403
 21
26.9438557761
 31
0.0
  0
ARC
  5
95
330
1F
100
AcDbEntity
  8
0
  6
Continuous
 62
     7
370
    25
100
AcDbCircle
 10
35.5490256805
 20
24.7363347819
 30
0.0
 40
2.549025680513425
100
AcDbArc
 50
120.0
 51
210.0
  0
ARC
  5
96
330
1F
100
AcDbEntity
  8
0
  6
Continuous
 62
     7
370
    25
100
AcDbCircle
 10
40.6470770415
 20
15.906250805
 30
0.0
 40
2.549025680513361
100
AcDbArc
 50
210.0
 51
300.0
  0
LINE
  5
97
330
1F
100
AcDbEntity
  8
0
  6
Continuous
 62
     7
370
    25
100
AcDbLine
 10
75.3529229585
 20
77.1770076943
 30
0.0
 11
75.3529229585
 21
98.093749195
 31
0.0
  0
LINE
  5
98
330
1F
100
AcDbEntity
  8
0
  6
Continuous
 62
     7
370
    25
100
AcDbLine
 10
88.098051361
 20
100.6427748755
 30
0.0
 11
77.901948639
 21
100.6427748755
 31
0.0
  0
LINE
  5
99
330
1F
100
AcDbEntity
  8
0
  6
Continuous
 62
     7
370
    25
100
AcDbLine
 10
90.6470770415
 20
77.1770076943
 30
0.0
 11
90.6470770415
 21
98.093749195
 31
0.0
  0
ARC
  5
9A
330
1F
100
AcDbEntity
  8
0
  6
Continuous
 62
     7
370
    25
100
AcDbCircle
 10
88.098051361
 20
98.093749195
 30
0.0
 40
2.549025680513338
100
AcDbArc
 50
0.0
 51
90.0
  0
ARC
  5
9B
330
1F
100
AcDbEntity
  8
0
  6
Continuous
 62
     7
370
    25
100
AcDbCircle
 10
77.901948639
 20
98.093749195
 30
0.0
 40
2.549025680513338
100
AcDbArc
 50
90.0
 51
180.0
  0
ARC
  5
9C
330
1F
100
AcDbEntity
  8
0
  6
Continuous
 62
     7
370
    25
100
AcDbCircle
 10
83.0
 20
46.2454449273
 30
0.0
 40
14.6568976629517
100
AcDbArc
 50
73.0425737058
 51
106.9574262942
  0
ARC
  5
9D
330
1F
100
AcDbEntity
  8
0
  6
Continuous
 62
     7
370
    25
100
AcDbCircle
 10
83.0
 20
46.2454449273
 30
0.0
 40
14.65689766295171
100
AcDbArc
 50
253.0425737058
 51
286.9574262942
  0
LINE
  5
9E
330
1F
100
AcDbEntity
  8
0
  6
Continuous
 62
     7
370
    25
100
AcDbLine
 10
78.7251539765
 20
60.2650861701
 30
0.0
 11
67.7058459169
 21
60.2650861701
 31
0.0
  0
LINE
  5
9F
330
1F
100
AcDbEntity
  8
0
  6
Continuous
 62
     7
370
    25
100
AcDbLine
 10
98.2941540831
 20
32.2258036845
 30
0.0
 11
98.2941540831
 21
60.2650861701
 31
0.0
  0
LINE
  5
A0
330
1F
100
AcDbEntity
  8
0
  6
Continuous
 62
     7
370
    25
100
AcDbLine
 10
87.2748460235
 20
32.2258036845
 30
0.0
 11
98.2941540831
 21
32.2258036845
 31
0.0
  0
LINE
  5
A1
330
1F
100
AcDbEntity
  8
0
  6
Continuous
 62
     7
370
    25
100
AcDbLine
 10
87.2748460235
 20
60.2650861701
 30
0.0
 11
98.2941540831
 21
60.2650861701
 31
0.0
  0
CIRCLE
  5
A2
330
1F
100
AcDbEntity
  8
0
  6
Continuous
 62
     7
370
    25
100
AcDbCircle
 10
70.8602651966
 20
64.0503893057
 30
0.0
 40
2.325985933468417
  0
CIRCLE
  5
A3
330
1F
100
AcDbEntity
  8
0
  6
Continuous
 62
     7
370
    25
100
AcDbCircle
 10
70.8602651966
 20
28.4405005489
 30
0.0
 40
2.325985933468417
  0
CIRCLE
  5
A4
330
1F
100
AcDbEntity
  8
0
  6
Continuous
 62
     7
370
    25
100
AcDbCircle
 10
95.1397348034
 20
64.0503893057
 30
0.0
 40
2.325985933468431
  0
CIRCLE
  5
A5
330
1F
100
AcDbEntity
  8
0
  6
Continuous
 62
     7
370
    25
100
AcDbCircle
 10
95.1397348034
 20
28.4405005489
 30
0.0
 40
2.325985933468431
  0
LINE
  5
A6
330
1F
100
AcDbEntity
  8
0
  6
Continuous
 62
     7
370
    25
100
AcDbLine
 10
67.7058459169
 20
32.2258036845
 30
0.0
 11
67.7058459169
 21
60.2650861701
 31
0.0
  0
LINE
  5
A7
330
1F
100
AcDbEntity
  8
0
  6
Continuous
 62
     7
370
    25
100
AcDbLine
 10
78.7251539765
 20
32.2258036845
 30
0.0
 11
67.7058459169
 21
32.2258036845
 31
0.0
  0
ARC
  5
A8
330
1F
100
AcDbEntity
  8
0
  6
Continuous
 62
     7
370
    25
100
AcDbCircle
 10
83.0
 20
46.2454449273
 30
0.0
 40
31.86282100641679
100
AcDbArc
 50
225.0
 51
315.0
  0
ARC
  5
A9
330
1F
100
AcDbEntity
  8
0
  6
Continuous
 62
     7
370
    25
100
AcDbCircle
 10
83.0
 20
46.2454449273
 30
0.0
 40
31.86282100641675
100
AcDbArc
 50
345.0
 51
75.0
  0
ARC
  5
AA
330
1F
100
AcDbEntity
  8
0
  6
Continuous
 62
     7
370
    25
100
AcDbCircle
 10
83.0
 20
46.2454449273
 30
0.0
 40
31.86282100641673
100
AcDbArc
 50
105.0
 51
195.0
  0
SPLINE
  5
AB
330
1F
100
AcDbEntity
  8
0
  6
HIDDEN
 62
     7
370
    18
100
AcDbSpline
210
0.0
220
0.0
230
1.0
 70
     8
 71
     3
 72
    12
 73
     8
 74
     0
 42
0.00000001
 43
0.00000001
 40
0.0
 40
0.0
 40
0.0
 40
0.0
 40
0.2139596397551277
 40
0.4296093251240126
 40
0.6509007691993227
 40
0.8626080039032454
 40
1.0
 40
1.0
 40
1.0
 40
1.0
 10
105.3852346195834
 20
33.32132369380908
 30
0.0
 10
105.5064897618954
 20
33.5189342707473
 30
0.0
 10
105.7499578286583
 20
33.91571633063933
 30
0.0
 10
106.1451475782705
 20
34.41795916103047
 30
0.0
 10
106.4980376734436
 20
34.75406837481737
 30
0.0
 10
106.7612936926782
 20
34.91062421692067
 30
0.0
 10
106.8467096431763
 20
34.8620417369407
 30
0.0
 10
106.8803260676827
 20
34.84292154614431
 30
0.0
  0
ARC
  5
AC
330
1F
100
AcDbEntity
  8
0
  6
HIDDEN
 62
     7
370
    18
100
AcDbCircle
 10
107.6077934931
 20
31.5757456276
 30
0.0
 40
2.826094607696919
100
AcDbArc
 50
141.8542225997
 51
186.8683223902
  0
SPLINE
  5
AD
330
1F
100
AcDbEntity
  8
0
  6
HIDDEN
 62
     7
370
    18
100
AcDbSpline
210
0.0
220
0.0
230
1.0
 70
     8
 71
     3
 72
    12
 73
     8
 74
     0
 42
0.00000001
 43
0.00000001
 40
0.0
 40
0.0
 40
0.0
 40
0.0
 40
0.2139596397551512
 40
0.429609325124078
 40
0.6509007691994155
 40
0.8626080039033652
 40
0.9999999999999999
 40
0.9999999999999999
 40
0.9999999999999999
 40
0.9999999999999999
 10
60.61476538041662
 20
33.32132369380908
 30
0.0
 10
60.72527358894563
 20
33.1175083717583
 30
0.0
 10
60.94716289919661
 20
32.7082678109853
 30
0.0
 10
61.18452307437781
 20
32.11490203331031
 30
0.0
 10
61.29915714437672
 20
31.64123563925304
 30
0.0
 10
61.30311047113172
 20
31.33497131784514
 30
0.0
 10
61.21832883404116
 20
31.28529017481538
 30
0.0
 10
61.18496205083314
 20
31.26573759260669
 30
0.0
  0
ARC
  5
AE
330
1F
100
AcDbEntity
  8
0
  6
HIDDEN
 62
     7
370
    18
100
AcDbCircle
 10
57.991770994
 20
32.269320281
 30
0.0
 40
2.826094607697146
100
AcDbArc
 50
21.8542225997
 51
66.8683223901
  0
SPLINE
  5
AF
330
1F
100
AcDbEntity
  8
0
  6
HIDDEN
 62
     7
370
    18
100
AcDbSpline
210
0.0
220
0.0
230
1.0
 70
     8
 71
     3
 72
    12
 73
     8
 74
     0
 42
0.00000001
 43
0.00000001
 40
0.0
 40
0.0
 40
0.0
 40
0.0
 40
0.2139596397551316
 40
0.4296093251240009
 40
0.6509007691993408
 40
0.8626080039032775
 40
1.0
 40
1.0
 40
1.0
 40
1.0
 10
83.0
 20
72.09368739427724
 30
0.0
 10
82.76823664915901
 20
72.09989213938987
 30
0.0
 10
82.30287927214516
 20
72.11235064027092
 30
0.0
 10
81.67032934735171
 20
72.20347358755467
 30
0.0
 10
81.20280518217967
 20
72.34103076782507
 30
0.0
 10
80.93559583619006
 20
72.49073924712975
 30
0.0
 10
80.93496152278253
 20
72.58900287013952
 30
0.0
 10
80.9347118814842
 20
72.62767564314463
 30
0.0
  0
ARC
  5
B0
330
1F
100
AcDbEntity
  8
0
  6
HIDDEN
 62
     7
370
    18
100
AcDbCircle
 10
83.4004355129
 20
74.8912688733
 30
0.0
 40
2.826094607698405
100
AcDbArc
 50
261.8542225997
 51
306.8683223901
  0
INSERT
  5
BC
330
1F
100
AcDbEntity
  8
10
100
AcDbBlockReference
  2
SW_CENTERMARKSYMBOL_0
 10
95.1397348034
 20
28.4405005489
 30
0.0
  0
INSERT
  5
C8
330
1F
100
AcDbEntity
  8
10
100
AcDbBlockReference
  2
SW_CENTERMARKSYMBOL_1
 10
95.1397348034
 20
64.0503893057
 30
0.0
  0
INSERT
  5
D4
330
1F
100
AcDbEntity
  8
10
100
AcDbBlockReference
  2
SW_CENTERMARKSYMBOL_2
 10
70.8602651966
 20
28.4405005489
 30
0.0
  0
INSERT
  5
E0
330
1F
100
AcDbEntity
  8
10
100
AcDbBlockReference
  2
SW_CENTERMARKSYMBOL_3
 10
70.8602651966
 20
64.0503893057
 30
0.0
  0
LINE
  5
E1
330
1F
100
AcDbEntity
  8
0
  6
Continuous
 62
     7
370
    25
100
AcDbLine
 10
51.1371789936
 20
180.3039747045
 30
0.0
 11
51.1371789936
 21
173.9314105032
 31
0.0
  0
LINE
  5
E2
330
1F
100
AcDbEntity
  8
0
  6
Continuous
 62
     7
370
    25
100
AcDbLine
 10
114.8628210064
 20
173.9314105032
 30
0.0
 11
114.8628210064
 21
180.3039747045
 31
0.0
  0
SPLINE
  5
E3
330
1F
100
AcDbEntity
  8
0
  6
Continuous
 62
     7
370
    25
100
AcDbSpline
210
0.0
220
0.0
230
1.0
 70
     8
 71
     3
 72
    20
 73
    16
 74
     0
 42
0.00000001
 43
0.00000001
 40
0.0
 40
0.0
 40
0.0
 40
0.0
 40
0.1217169773229506
 40
0.218974533608038
 40
0.2981007460879983
 40
0.3618522134252095
 40
0.4245362905547109
 40
0.4676464890881997
 40
0.5056614891271266
 40
0.5676416484992811
 40
0.666340615320383
 40
0.7316920783345535
 40
0.8072796608906809
 40
0.8953470963431024
 40
1.0
 40
1.0
 40
1.0
 40
1.0
 10
59.53326334557178
 20
140.7628771354443
 30
0.0
 10
59.78888176685793
 20
140.7198658801169
 30
0.0
 10
60.24875125929726
 20
140.6424866206054
 30
0.0
 10
60.85971899476448
 20
140.8242947278647
 30
0.0
 10
61.28336930396431
 20
141.1023623403409
 30
0.0
 10
61.5825696702481
 20
141.4185754769979
 30
0.0
 10
61.77818724133312
 20
141.7211278687864
 30
0.0
 10
61.90613993636556
 20
141.9972636094131
 30
0.0
 10
62.00598652457222
 20
142.2831707612688
 30
0.0
 10
62.09274627438859
 20
142.6950566770927
 30
0.0
 10
62.09007883437766
 20
143.1801189332301
 30
0.0
 10
61.96628964056951
 20
143.672406811424
 30
0.0
 10
61.73875572989601
 20
144.0970518684288
 30
0.0
 10
61.34603604640687
 20
144.5066351754305
 30
0.0
 10
60.97429665237586
 20
144.6750559089087
 30
0.0
 10
60.77243105184403
 20
144.7665134005049
 30
0.0
  0
SPLINE
  5
E4
330
1F
100
AcDbEntity
  8
0
  6
Continuous
 62
     7
370
    25
100
AcDbSpline
210
0.0
220
0.0
230
1.0
 70
     8
 71
     3
 72
    19
 73
    15
 74
     0
 42
0.00000001
 43
0.00000001
 40
0.0
 40
0.0
 40
0.0
 40
0.0
 40
0.1057084863466386
 40
0.1859112110436557
 40
0.2887683952045476
 40
0.3614062812920769
 40
0.4367078859231578
 40
0.5372919442324354
 40
0.6186954269074422
 40
0.6727696576870247
 40
0.7509725348079282
 40
0.8575376638145162
 40
0.9237351749276062
 40
1.0
 40
1.0
 40
1.0
 40
1.0
 10
105.227568948156
 20
144.7665134005049
 30
0.0
 10
105.023166170537
 20
144.6739880008497
 30
0.0
 10
104.6636797258705
 20
144.5112620958946
 30
0.0
 10
104.2302598183228
 20
144.0737873213234
 30
0.0
 10
103.984811404836
 20
143.5808505206717
 30
0.0
 10
103.9025074766093
 20
143.0590487536293
 30
0.0
 10
103.9247399220982
 20
142.5317408241027
 30
0.0
 10
104.0733501621202
 20
142.0026097299738
 30
0.0
 10
104.3115825884753
 20
141.5595007821994
 30
0.0
 10
104.6000423702401
 20
141.2134735241839
 30
0.0
 10
105.0042727473871
 20
140.898222511185
 30
0.0
 10
105.5064806885825
 20
140.7144217339954
 30
0.0
 10
106.0218621254379
 20
140.6741749157634
 30
0.0
 10
106.3116197593091
 20
140.731948835417
 30
0.0
 10
106.4667366544287
 20
140.7628771354443
 30
0.0
  0
LINE
  5
E5
330
1F
100
AcDbEntity
  8
0
  6
Continuous
 62
     7
370
    25
100
AcDbLine
 10
33.0
 20
180.3039747045
 30
0.0
 11
33.0
 21
173.9314105032
 31
0.0
  0
LINE
  5
E6
330
1F
100
AcDbEntity
  8
0
  6
Continuous
 62
     7
370
    25
100
AcDbLine
 10
133.0
 20
173.9314105032
 30
0.0
 11
133.0
 21
180.3039747045
 31
0.0
  0
LINE
  5
E7
330
1F
100
AcDbEntity
  8
0
  6
Continuous
 62
     7
370
    25
100
AcDbLine
 10
88.098051361
 20
180.3039747045
 30
0.0
 11
90.6470770415
 21
180.3039747045
 31
0.0
  0
LINE
  5
E8
330
1F
100
AcDbEntity
  8
0
  6
Continuous
 62
     7
370
    25
100
AcDbLine
 10
90.6470770415
 20
180.3039747045
 30
0.0
 11
90.6470770415
 21
173.9314105032
 31
0.0
  0
LINE
  5
E9
330
1F
100
AcDbEntity
  8
0
  6
Continuous
 62
     7
370
    25
100
AcDbLine
 10
90.6470770415
 20
173.9314105032
 30
0.0
 11
88.098051361
 21
173.9314105032
 31
0.0
  0
LINE
  5
EA
330
1F
100
AcDbEntity
  8
0
  6
Continuous
 62
     7
370
    25
100
AcDbLine
 10
88.098051361
 20
180.3039747045
 30
0.0
 11
77.901948639
 21
180.3039747045
 31
0.0
  0
LINE
  5
EB
330
1F
100
AcDbEntity
  8
0
  6
Continuous
 62
     7
370
    25
100
AcDbLine
 10
88.098051361
 20
173.9314105032
 30
0.0
 11
77.901948639
 21
173.9314105032
 31
0.0
  0
LINE
  5
EC
330
1F
100
AcDbEntity
  8
0
  6
Continuous
 62
     7
370
    25
100
AcDbLine
 10
75.3529229585
 20
173.9314105032
 30
0.0
 11
75.3529229585
 21
180.3039747045
 31
0.0
  0
LINE
  5
ED
330
1F
100
AcDbEntity
  8
0
  6
Continuous
 62
     7
370
    25
100
AcDbLine
 10
75.3529229585
 20
180.3039747045
 30
0.0
 11
77.901948639
 21
180.3039747045
 31
0.0
  0
LINE
  5
EE
330
1F
100
AcDbEntity
  8
0
  6
Continuous
 62
     7
370
    25
100
AcDbLine
 10
77.901948639
 20
173.9314105032
 30
0.0
 11
75.3529229585
 21
173.9314105032
 31
0.0
  0
LINE
  5
EF
330
1F
100
AcDbEntity
  8
0
  6
Continuous
 62
     7
370
    25
100
AcDbLine
 10
113.7771217085
 20
173.9314105032
 30
0.0
 11
113.7771217085
 21
135.6960252955
 31
0.0
  0
LINE
  5
F0
330
1F
100
AcDbEntity
  8
0
  6
Continuous
 62
     7
370
    25
100
AcDbLine
 10
114.8628210064
 20
173.9314105032
 30
0.0
 11
91.2467049072
 21
173.9314105032
 31
0.0
  0
LINE
  5
F1
330
1F
100
AcDbEntity
  8
0
  6
Continuous
 62
     7
370
    25
100
AcDbLine
 10
91.2467049072
 20
135.6960252955
 30
0.0
 11
91.2467049072
 21
173.9314105032
 31
0.0
  0
LINE
  5
F2
330
1F
100
AcDbEntity
  8
0
  6
Continuous
 62
     7
370
    25
100
AcDbLine
 10
91.2467049072
 20
135.6960252955
 30
0.0
 11
74.7532950928
 21
135.6960252955
 31
0.0
  0
LINE
  5
F3
330
1F
100
AcDbEntity
  8
0
  6
Continuous
 62
     7
370
    25
100
AcDbLine
 10
74.7532950928
 20
173.9314105032
 30
0.0
 11
74.7532950928
 21
135.6960252955
 31
0.0
  0
LINE
  5
F4
330
1F
100
AcDbEntity
  8
0
  6
Continuous
 62
     7
370
    25
100
AcDbLine
 10
74.7532950928
 20
173.9314105032
 30
0.0
 11
51.1371789936
 21
173.9314105032
 31
0.0
  0
LINE
  5
F5
330
1F
100
AcDbEntity
  8
0
  6
Continuous
 62
     7
370
    25
100
AcDbLine
 10
52.2228782915
 20
135.6960252955
 30
0.0
 11
52.2228782915
 21
173.9314105032
 31
0.0
  0
LINE
  5
F6
330
1F
100
AcDbEntity
  8
0
  6
Continuous
 62
     7
370
    25
100
AcDbLine
 10
114.8628210064
 20
180.3039747045
 30
0.0
 11
90.6470770415
 21
180.3039747045
 31
0.0
  0
LINE
  5
F7
330
1F
100
AcDbEntity
  8
0
  6
Continuous
 62
     7
370
    25
100
AcDbLine
 10
75.3529229585
 20
180.3039747045
 30
0.0
 11
51.1371789936
 21
180.3039747045
 31
0.0
  0
ARC
  5
F8
330
1F
100
AcDbEntity
  8
0
  6
Continuous
 62
     7
370
    25
100
AcDbCircle
 10
84.596953252
 20
135.7351916671
 30
0.0
 40
28.06530525055912
100
AcDbArc
 50
145.5417797977
 51
180.0799588139
  0
LINE
  5
F9
330
1F
100
AcDbEntity
  8
0
  6
Continuous
 62
     7
370
    25
100
AcDbLine
 10
52.2228782915
 20
135.6960252955
 30
0.0
 11
56.5316753307
 21
135.6960252955
 31
0.0
  0
LINE
  5
FA
330
1F
100
AcDbEntity
  8
0
  6
Continuous
 62
     7
370
    25
100
AcDbLine
 10
61.456014804
 20
173.9314105032
 30
0.0
 11
61.456014804
 21
151.6146855682
 31
0.0
  0
LINE
  5
FB
330
1F
100
AcDbEntity
  8
0
  6
Continuous
 62
     7
370
    25
100
AcDbLine
 10
65.1568202364
 20
151.6146855682
 30
0.0
 11
65.1568202364
 21
173.9314105032
 31
0.0
  0
LINE
  5
FC
330
1F
100
AcDbEntity
  8
0
  6
Continuous
 62
     7
370
    25
100
AcDbLine
 10
65.1568202364
 20
151.6146855682
 30
0.0
 11
61.456014804
 21
151.6146855682
 31
0.0
  0
LINE
  5
FD
330
1F
100
AcDbEntity
  8
0
  6
Continuous
 62
     7
370
    25
100
AcDbLine
 10
109.4683246693
 20
135.6960252955
 30
0.0
 11
113.7771217085
 21
135.6960252955
 31
0.0
  0
ARC
  5
FE
330
1F
100
AcDbEntity
  8
0
  6
Continuous
 62
     7
370
    25
100
AcDbCircle
 10
81.4151130693
 20
135.7389243093
 30
0.0
 40
28.05324440062741
100
AcDbArc
 50
359.9123832753
 51
34.4658781131
  0
LINE
  5
FF
330
1F
100
AcDbEntity
  8
0
  6
Continuous
 62
     7
370
    25
100
AcDbLine
 10
104.543985196
 20
151.6146855682
 30
0.0
 11
104.543985196
 21
173.9314105032
 31
0.0
  0
LINE
  5
100
330
1F
100
AcDbEntity
  8
0
  6
Continuous
 62
     7
370
    25
100
AcDbLine
 10
104.543985196
 20
151.6146855682
 30
0.0
 11
100.8431797636
 21
151.6146855682
 31
0.0
  0
LINE
  5
101
330
1F
100
AcDbEntity
  8
0
  6
Continuous
 62
     7
370
    25
100
AcDbLine
 10
100.8431797636
 20
151.6146855682
 30
0.0
 11
100.8431797636
 21
173.9314105032
 31
0.0
  0
LINE
  5
102
330
1F
100
AcDbEntity
  8
0
  6
Continuous
 62
     7
370
    25
100
AcDbLine
 10
60.6147653804
 20
144.7921450102
 30
0.0
 11
60.7890315748
 21
144.7297369646
 31
0.0
  0
LWPOLYLINE
  5
103
330
1F
100
AcDbEntity
  8
0
  6
Continuous
 62
     7
370
    25
100
AcDbPolyline
 90
       12
 70
   128
 43
0.0
 10
59.5665493157
 20
140.7839905613
 10
59.4460021957
 20
140.7991037015
 10
59.1891730931
 20
141.0559179852
 10
59.0297414109
 20
141.5231916253
 10
59.0019631404
 20
142.1067278587
 10
59.1019898434
 20
142.7893077246
 10
59.319168528
 20
143.4535914959
 10
59.6278815856
 20
144.0439343448
 10
60.0031720462
 20
144.4972524607
 10
60.3792436958
 20
144.7438083385
 10
60.6147653804
 20
144.7921450102
 10
60.6147653804
 20
144.7921450102
  0
LINE
  5
104
330
1F
100
AcDbEntity
  8
0
  6
Continuous
 62
     7
370
    25
100
AcDbLine
 10
56.5316753307
 20
135.6960252955
 30
0.0
 11
63.6238415508
 21
135.6960252955
 31
0.0
  0
LINE
  5
105
330
1F
100
AcDbEntity
  8
0
  6
Continuous
 62
     7
370
    25
100
AcDbLine
 10
65.1568202364
 20
146.3783894694
 30
0.0
 11
65.1568202364
 21
151.6146855682
 31
0.0
  0
ARC
  5
106
330
1F
100
AcDbEntity
  8
0
  6
Continuous
 62
     7
370
    25
100
AcDbCircle
 10
101.0189954883
 20
135.7807902457
 30
0.0
 40
37.39525000727731
100
AcDbArc
 50
163.5371103022
 51
180.1298741966
  0
SPLINE
  5
107
330
1F
100
AcDbEntity
  8
0
  6
Continuous
 62
     7
370
    25
100
AcDbSpline
210
0.0
220
0.0
230
1.0
 70
     8
 71
     3
 72
    17
 73
    13
 74
     0
 42
0.00000001
 43
0.00000001
 40
0.0
 40
0.0
 40
0.0
 40
0.0
 40
0.0567053224817328
 40
0.1603273910175878
 40
0.2647679598211469
 40
0.3719408696774814
 40
0.4744720835509636
 40
0.5823595503745259
 40
0.6850240777040151
 40
0.7919722958352384
 40
0.8966544172934324
 40
1.0
 40
1.0
 40
1.0
 40
1.0
 10
105.206213541387
 20
144.7514964002226
 30
0.0
 10
105.2645869431741
 20
144.7700829460364
 30
0.0
 10
105.4296306252086
 20
144.8226341399622
 30
0.0
 10
105.7536848018596
 20
144.7099290138949
 30
0.0
 10
106.1433216460447
 20
144.3859916954844
 30
0.0
 10
106.5015127772309
 20
143.8688786094642
 30
0.0
 10
106.788927499415
 20
143.2268053973787
 30
0.0
 10
106.9699315167782
 20
142.539173578258
 30
0.0
 10
107.023282488195
 20
141.8709985092468
 30
0.0
 10
106.9487756023646
 20
141.3078323050958
 30
0.0
 10
106.7502116905316
 20
140.9005889239563
 30
0.0
 10
106.54352299965
 20
140.8051481394219
 30
0.0
 10
106.4408426221311
 20
140.7577343416719
 30
0.0
  0
LINE
  5
108
330
1F
100
AcDbEntity
  8
0
  6
Continuous
 62
     7
370
    25
100
AcDbLine
 10
102.3761584492
 20
135.6960252955
 30
0.0
 11
109.4683246693
 21
135.6960252955
 31
0.0
  0
ARC
  5
109
330
1F
100
AcDbEntity
  8
0
  6
Continuous
 62
     7
370
    25
100
AcDbCircle
 10
64.9810045117
 20
135.7807902457
 30
0.0
 40
37.39525000726622
100
AcDbArc
 50
359.8701258034
 51
16.4628896978
  0
LINE
  5
10A
330
1F
100
AcDbEntity
  8
0
  6
Continuous
 62
     7
370
    25
100
AcDbLine
 10
100.8431797636
 20
146.3783894694
 30
0.0
 11
100.8431797636
 21
151.6146855682
 31
0.0
  0
LINE
  5
10B
330
1F
100
AcDbEntity
  8
0
  6
Continuous
 62
     7
370
    25
100
AcDbLine
 10
51.1371789936
 20
173.9314105032
 30
0.0
 11
34.2745128403
 21
173.9314105032
 31
0.0
  0
LINE
  5
10C
330
1F
100
AcDbEntity
  8
0
  6
Continuous
 62
     7
370
    25
100
AcDbLine
 10
51.1371789936
 20
180.3039747045
 30
0.0
 11
34.2745128403
 21
180.3039747045
 31
0.0
  0
LINE
  5
10D
330
1F
100
AcDbEntity
  8
0
  6
Continuous
 62
     7
370
    25
100
AcDbLine
 10
114.8628210064
 20
173.9314105032
 30
0.0
 11
131.7254871597
 21
173.9314105032
 31
0.0
  0
LINE
  5
10E
330
1F
100
AcDbEntity
  8
0
  6
Continuous
 62
     7
370
    25
100
AcDbLine
 10
114.8628210064
 20
180.3039747045
 30
0.0
 11
131.7254871597
 21
180.3039747045
 31
0.0
  0
LINE
  5
10F
330
1F
100
AcDbEntity
  8
0
  6
Continuous
 62
     7
370
    25
100
AcDbLine
 10
34.2745128403
 20
173.9314105032
 30
0.0
 11
33.0
 21
173.9314105032
 31
0.0
  0
LINE
  5
110
330
1F
100
AcDbEntity
  8
0
  6
Continuous
 62
     7
370
    25
100
AcDbLine
 10
33.0
 20
180.3039747045
 30
0.0
 11
34.2745128403
 21
180.3039747045
 31
0.0
  0
LINE
  5
111
330
1F
100
AcDbEntity
  8
0
  6
Continuous
 62
     7
370
    25
100
AcDbLine
 10
133.0
 20
173.9314105032
 30
0.0
 11
131.7254871597
 21
173.9314105032
 31
0.0
  0
LINE
  5
112
330
1F
100
AcDbEntity
  8
0
  6
Continuous
 62
     7
370
    25
100
AcDbLine
 10
131.7254871597
 20
180.3039747045
 30
0.0
 11
133.0
 21
180.3039747045
 31
0.0
  0
LINE
  5
113
330
1F
100
AcDbEntity
  8
0
  6
HIDDEN
 62
     7
370
    18
100
AcDbLine
 10
60.4695831986
 20
173.9314105032
 30
0.0
 11
60.4695831986
 21
135.6960252955
 31
0.0
  0
LINE
  5
114
330
1F
100
AcDbEntity
  8
0
  6
HIDDEN
 62
     7
370
    18
100
AcDbLine
 10
105.5304168014
 20
135.6960252955
 30
0.0
 11
105.5304168014
 21
173.9314105032
 31
0.0
  0
LINE
  5
115
330
1F
100
AcDbEntity
  8
0
  6
HIDDEN
 62
     7
370
    18
100
AcDbLine
 10
60.0360193858
 20
173.9314105032
 30
0.0
 11
60.0360193858
 21
180.3039747045
 31
0.0
  0
LINE
  5
116
330
1F
100
AcDbEntity
  8
0
  6
HIDDEN
 62
     7
370
    18
100
AcDbLine
 10
52.3889423443
 20
173.9314105032
 30
0.0
 11
52.3889423443
 21
180.3039747045
 31
0.0
  0
LINE
  5
117
330
1F
100
AcDbEntity
  8
0
  6
HIDDEN
 62
     7
370
    18
100
AcDbLine
 10
113.6110576557
 20
173.9314105032
 30
0.0
 11
113.6110576557
 21
180.3039747045
 31
0.0
  0
LINE
  5
118
330
1F
100
AcDbEntity
  8
0
  6
HIDDEN
 62
     7
370
    18
100
AcDbLine
 10
105.9639806142
 20
173.9314105032
 30
0.0
 11
105.9639806142
 21
180.3039747045
 31
0.0
  0
LINE
  5
119
330
1F
100
AcDbEntity
  8
0
  6
HIDDEN
 62
     7
370
    18
100
AcDbLine
 10
90.6470770415
 20
173.9314105032
 30
0.0
 11
91.2467049072
 21
173.9314105032
 31
0.0
  0
LINE
  5
11A
330
1F
100
AcDbEntity
  8
0
  6
HIDDEN
 62
     7
370
    18
100
AcDbLine
 10
74.7532950928
 20
173.9314105032
 30
0.0
 11
75.3529229585
 21
173.9314105032
 31
0.0
  0
ARC
  5
11B
330
1F
100
AcDbEntity
  8
0
  6
HIDDEN
 62
     7
370
    18
100
AcDbCircle
 10
-6.2765425807
 20
135.9517697939
 30
0.0
 40
96.36904814921552
100
AcDbArc
 50
359.8479480925
 51
7.2697295314
  0
ARC
  5
11C
330
1F
100
AcDbEntity
  8
0
  6
HIDDEN
 62
     7
370
    18
100
AcDbCircle
 10
172.2765425807
 20
135.9517697939
 30
0.0
 40
96.36904814921652
100
AcDbArc
 50
172.7302704686
 51
180.1520519075
  0
SPLINE
  5
11D
330
1F
100
AcDbEntity
  8
0
  6
HIDDEN
 62
     7
370
    18
100
AcDbSpline
210
0.0
220
0.0
230
1.0
 70
    11
 71
     3
 72
    56
 73
    52
 74
     0
 42
0.00000001
 43
0.00000001
 40
0.0
 40
0.0
 40
0.0
 40
0.0
 40
0.0312499999999998
 40
0.0312499999999998
 40
0.0624999999999996
 40
0.0624999999999996
 40
0.0937499999999994
 40
0.0937499999999994
 40
0.1249999999999992
 40
0.1249999999999992
 40
0.2499999999999985
 40
0.2499999999999985
 40
0.2812499999999987
 40
0.2812499999999987
 40
0.3124999999999985
 40
0.3124999999999985
 40
0.3437499999999983
 40
0.3437499999999983
 40
0.3749999999999981
 40
0.3749999999999981
 40
0.4062499999999979
 40
0.4062499999999979
 40
0.4374999999999977
 40
0.4374999999999977
 40
0.4687499999999975
 40
0.4687499999999975
 40
0.4999999999999973
 40
0.4999999999999973
 40
0.6249999999999967
 40
0.6249999999999967
 40
0.6562499999999967
 40
0.6562499999999967
 40
0.6874999999999967
 40
0.6874999999999967
 40
0.7187499999999968
 40
0.7187499999999968
 40
0.7499999999999968
 40
0.7499999999999968
 40
0.7812499999999971
 40
0.7812499999999971
 40
0.8124999999999974
 40
0.8124999999999974
 40
0.8437499999999979
 40
0.8437499999999979
 40
0.8749999999999982
 40
0.8749999999999982
 40
0.9062499999999986
 40
0.9062499999999986
 40
0.9374999999999989
 40
0.9374999999999989
 40
1.0
 40
1.0
 40
1.0
 40
1.0
 10
83.00000000000001
 20
144.7921450101792
 30
0.0
 10
82.86152783579699
 20
144.7921450101792
 30
0.0
 10
82.7255046007424
 20
144.7783380085589
 30
0.0
 10
82.45787280232416
 20
144.7258023933126
 30
0.0
 10
82.32493724464564
 20
144.6864524524806
 30
0.0
 10
82.07132929738033
 20
144.5848945062132
 30
0.0
 10
81.95072707763094
 20
144.5230809937894
 30
0.0
 10
81.72215705628369
 20
144.3769867584895
 30
0.0
 10
81.6139328265413
 20
144.2920221661417
 30
0.0
 10
81.13161568453833
 20
143.8259257351048
 30
0.0
 10
80.90427622140231
 20
143.2961087827118
 30
0.0
 10
80.90373233442924
 20
142.6371450399773
 30
0.0
 10
80.91799305653355
 20
142.5031589972324
 30
0.0
 10
80.97255291217843
 20
142.2437116305831
 30
0.0
 10
81.01253872378533
 20
142.1175590130922
 30
0.0
 10
81.11751020488613
 20
141.8722675353985
 30
0.0
 10
81.18258089772861
 20
141.7537604164579
 30
0.0
 10
81.33309787799729
 20
141.5339002797927
 30
0.0
 10
81.4190301006318
 20
141.4312358361991
 30
0.0
 10
81.61459213911772
 20
141.2420728636184
 30
0.0
 10
81.72101601435651
 20
141.1587416938815
 30
0.0
 10
81.94856984734686
 20
141.0130481982768
 30
0.0
 10
82.0711927951635
 20
140.9500782471462
 30
0.0
 10
82.32502157761365
 20
140.8484282183545
 30
0.0
 10
82.45554390625536
 20
140.8096821869202
 30
0.0
 10
82.72390544886008
 20
140.7566988613976
 30
0.0
 10
82.86270826542375
 20
140.7427263207736
 30
0.0
 10
83.545381429386
 20
140.7424743167597
 30
0.0
 10
84.09404412893078
 20
140.9617706519417
 30
0.0
 10
84.57689854814566
 20
141.4269228371169
 30
0.0
 10
84.664910478876
 20
141.531292879376
 30
0.0
 10
84.8165118772244
 20
141.7521391616103
 30
0.0
 10
84.8806418074809
 20
141.8686459264656
 30
0.0
 10
84.98604049734261
 20
142.1135636774804
 30
0.0
 10
85.02690594670202
 20
142.2419319456417
 30
0.0
 10
85.08154795695381
 20
142.5001972315272
 30
0.0
 10
85.09597498159332
 20
142.6313899665663
 30
0.0
 10
85.09634058440926
 20
142.8983618959045
 30
0.0
 10
85.08214681824988
 20
143.0304459631954
 30
0.0
 10
85.02803514035519
 20
143.2889611985925
 30
0.0
 10
84.98755479229952
 20
143.417114976696
 30
0.0
 10
84.88250829747933
 20
143.6626292222968
 30
0.0
 10
84.81859827290083
 20
143.7792013989024
 30
0.0
 10
84.66778634092903
 20
143.9998698348546
 30
0.0
 10
84.57987514490785
 20
144.1046235250664
 30
0.0
 10
84.38681130541018
 20
144.2914107365071
 30
0.0
 10
84.28110779580133
 20
144.3746178717462
 30
0.0
 10
84.05215553006482
 20
144.5215131624543
 30
0.0
 10
83.92963372517076
 20
144.5843918000838
 30
0.0
 10
83.55120204929948
 20
144.7362846647127
 30
0.0
 10
83.27694432840603
 20
144.7921450101792
 30
0.0
 10
83.0
 20
144.7921450101792
 30
0.0
  0
ARC
  5
11E
330
1F
100
AcDbEntity
  8
0
  6
HIDDEN
 62
     7
370
    18
100
AcDbCircle
 10
83.0
 20
135.6960252955
 30
0.0
 40
13.96158864877109
100
AcDbArc
 50
63.094802707
 51
116.905197293
  0
LINE
  5
11F
330
1F
100
AcDbEntity
  8
0
  6
HIDDEN
 62
     7
370
    18
100
AcDbLine
 10
89.3178366964
 20
173.9314105032
 30
0.0
 11
89.3178366964
 21
148.1463625229
 31
0.0
  0
LINE
  5
120
330
1F
100
AcDbEntity
  8
0
  6
HIDDEN
 62
     7
370
    18
100
AcDbLine
 10
76.6821633036
 20
148.1463625229
 30
0.0
 11
76.6821633036
 21
173.9314105032
 31
0.0
  0
LINE
  5
121
330
1F
100
AcDbEntity
  8
0
  6
HIDDEN
 62
     7
370
    18
100
AcDbLine
 10
78.7251539765
 20
173.9314105032
 30
0.0
 11
78.7251539765
 21
180.3039747045
 31
0.0
  0
LINE
  5
122
330
1F
100
AcDbEntity
  8
0
  6
HIDDEN
 62
     7
370
    18
100
AcDbLine
 10
98.2941540831
 20
180.3039747045
 30
0.0
 11
98.2941540831
 21
173.9314105032
 31
0.0
  0
LINE
  5
123
330
1F
100
AcDbEntity
  8
0
  6
HIDDEN
 62
     7
370
    18
100
AcDbLine
 10
87.2748460235
 20
173.9314105032
 30
0.0
 11
87.2748460235
 21
180.3039747045
 31
0.0
  0
LINE
  5
124
330
1F
100
AcDbEntity
  8
0
  6
HIDDEN
 62
     7
370
    18
100
AcDbLine
 10
67.7058459169
 20
180.3039747045
 30
0.0
 11
67.7058459169
 21
173.9314105032
 31
0.0
  0
SPLINE
  5
125
330
1F
100
AcDbEntity
  8
0
  6
HIDDEN
 62
     7
370
    18
100
AcDbSpline
210
0.0
220
0.0
230
1.0
 70
     8
 71
     3
 72
    17
 73
    13
 74
     0
 42
0.00000001
 43
0.00000001
 40
0.0
 40
0.0
 40
0.0
 40
0.0
 40
0.0484324168968677
 40
0.1575451359812543
 40
0.2695124274329567
 40
0.3766303765682206
 40
0.4893441907028911
 40
0.5966014170734398
 40
0.7083339652126146
 40
0.8176990428129485
 40
0.9269474885991744
 40
0.9999999999999999
 40
0.9999999999999999
 40
0.9999999999999999
 40
0.9999999999999999
 10
60.78903157484635
 20
144.7297369646395
 30
0.0
 10
60.83760916785248
 20
144.7171082870466
 30
0.0
 10
60.99562654518234
 20
144.6760286371735
 30
0.0
 10
61.18172384644775
 20
144.3769997950511
 30
0.0
 10
61.30297250357714
 20
143.8711717176204
 30
0.0
 10
61.29151515321365
 20
143.2262442071375
 30
0.0
 10
61.15393199067486
 20
142.5390136979443
 30
0.0
 10
60.89676355680178
 20
141.8721253909216
 30
0.0
 10
60.56058018887927
 20
141.3032979083075
 30
0.0
 10
60.17501605949904
 20
140.9155425477839
 30
0.0
 10
59.82438861704299
 20
140.7192353133389
 30
0.0
 10
59.64031298379552
 20
140.7654651286532
 30
0.0
 10
59.56654931571654
 20
140.7839905613356
 30
0.0
  0
SPLINE
  5
126
330
1F
100
AcDbEntity
  8
0
  6
HIDDEN
 62
     7
370
    18
100
AcDbSpline
210
0.0
220
0.0
230
1.0
 70
     8
 71
     3
 72
    18
 73
    14
 74
     0
 42
0.00000001
 43
0.00000001
 40
0.0
 40
0.0
 40
0.0
 40
0.0
 40
0.0012785710011589
 40
0.1130398118223171
 40
0.2201233035183661
 40
0.3327425484189224
 40
0.4398371723157518
 40
0.551583984387268
 40
0.6606559559289024
 40
0.7700056184946524
 40
0.8816531954800243
 40
0.9888051358393682
 40
1.0
 40
1.0
 40
1.0
 40
1.0
 10
106.4408426221311
 20
140.7577343416719
 30
0.0
 10
106.4397007732809
 20
140.7569985477992
 30
0.0
 10
106.3387487111419
 20
140.6919462348368
 30
0.0
 10
106.0733789099319
 20
140.7765074378694
 30
0.0
 10
105.686198150006
 20
141.0246326705939
 30
0.0
 10
105.311881747506
 20
141.4910999313611
 30
0.0
 10
105.0004070482787
 20
142.1032142236825
 30
0.0
 10
104.7815838763756
 20
142.7845159186756
 30
0.0
 10
104.6907604438567
 20
143.466032470899
 30
0.0
 10
104.7232682773309
 20
144.0754251585941
 30
0.0
 10
104.8927864825153
 20
144.5160150659371
 30
0.0
 10
105.0746968450388
 20
144.7247036130458
 30
0.0
 10
105.1948479972693
 20
144.7491809937902
 30
0.0
 10
105.206213541387
 20
144.7514964002226
 30
0.0
  0
LINE
  5
127
330
1F
100
AcDbEntity
  8
0
  6
HIDDEN
 62
     7
370
    18
100
AcDbLine
 10
80.9371192757
 20
142.4145279261
 30
0.0
 11
81.0221800662
 21
142.1891102791
 31
0.0
  0
LINE
  5
128
330
1F
100
AcDbEntity
  8
0
  6
HIDDEN
 62
     7
370
    18
100
AcDbLine
 10
84.9973249581
 20
142.2136930412
 30
0.0
 11
85.0628807243
 21
142.4145279261
 31
0.0
  0
LINE
  5
129
330
1F
100
AcDbEntity
  8
0
  6
HIDDEN
 62
     7
370
    18
100
AcDbLine
 10
97.4657207369
 20
173.9314105032
 30
0.0
 11
97.4657207369
 21
180.3039747045
 31
0.0
  0
LINE
  5
12A
330
1F
100
AcDbEntity
  8
0
  6
HIDDEN
 62
     7
370
    18
100
AcDbLine
 10
92.81374887
 20
180.3039747045
 30
0.0
 11
92.81374887
 21
173.9314105032
 31
0.0
  0
LINE
  5
12B
330
1F
100
AcDbEntity
  8
0
  6
HIDDEN
 62
     7
370
    18
100
AcDbLine
 10
73.18625113
 20
173.9314105032
 30
0.0
 11
73.18625113
 21
180.3039747045
 31
0.0
  0
LINE
  5
12C
330
1F
100
AcDbEntity
  8
0
  6
HIDDEN
 62
     7
370
    18
100
AcDbLine
 10
68.5342792631
 20
180.3039747045
 30
0.0
 11
68.5342792631
 21
173.9314105032
 31
0.0
  0
LINE
  5
12D
330
1F
100
AcDbEntity
  8
0
  6
Continuous
 62
     7
370
    25
100
AcDbLine
 10
238.9314105032
 20
13.3572251245
 30
0.0
 11
245.3039747045
 21
13.3572251245
 31
0.0
  0
LINE
  5
12E
330
1F
100
AcDbEntity
  8
0
  6
Continuous
 62
     7
370
    25
100
AcDbLine
 10
238.9314105032
 20
78.1082659337
 30
0.0
 11
200.6960252955
 21
78.1082659337
 31
0.0
  0
SPLINE
  5
12F
330
1F
100
AcDbEntity
  8
0
  6
Continuous
 62
     7
370
    25
100
AcDbSpline
210
0.0
220
0.0
230
1.0
 70
     8
 71
     3
 72
    16
 73
    12
 74
     0
 42
0.00000001
 43
0.00000001
 40
0.0
 40
0.0
 40
0.0
 40
0.0
 40
0.0264335078107676
 40
0.1067501199255774
 40
0.2798507536336162
 40
0.4914748178750167
 40
0.7375627520612044
 40
0.8328255927306675
 40
0.9168596710555121
 40
0.994560364411113
 40
1.0
 40
1.0
 40
1.0
 40
1.0
 10
205.7607288851854
 20
72.20263168381197
 30
0.0
 10
205.7691581504883
 20
72.1656794352694
 30
0.0
 10
205.8031992277608
 20
72.01645001813425
 30
0.0
 10
206.0035974542587
 20
71.66038219599605
 30
0.0
 10
206.4983790136828
 20
71.20137998544044
 30
0.0
 10
207.3213771318719
 20
70.78295018350605
 30
0.0
 10
208.1387629255808
 20
70.7627701393258
 30
0.0
 10
208.737203784412
 20
70.89421890343823
 30
0.0
 10
209.0662502392867
 20
71.06174371357405
 30
0.0
 10
209.2645537602371
 20
71.20435236849669
 30
0.0
 10
209.3388582836164
 20
71.29737164151553
 30
0.0
 10
209.3437198175424
 20
71.30345762835717
 30
0.0
  0
LINE
  5
130
330
1F
100
AcDbEntity
  8
0
  6
Continuous
 62
     7
370
    25
100
AcDbLine
 10
245.3039747045
 20
26.9438557761
 30
0.0
 11
245.3039747045
 21
23.4618219416
 31
0.0
  0
LINE
  5
131
330
1F
100
AcDbEntity
  8
0
  6
Continuous
 62
     7
370
    25
100
AcDbLine
 10
238.9314105032
 20
23.4618219416
 30
0.0
 11
238.9314105032
 21
26.9438557761
 31
0.0
  0
LINE
  5
132
330
1F
100
AcDbEntity
  8
0
  6
Continuous
 62
     7
370
    25
100
AcDbLine
 10
238.9314105032
 20
14.6317379647
 30
0.0
 11
238.9314105032
 21
23.4618219416
 31
0.0
  0
LINE
  5
133
330
1F
100
AcDbEntity
  8
0
  6
Continuous
 62
     7
370
    25
100
AcDbLine
 10
245.3039747045
 20
14.6317379647
 30
0.0
 11
245.3039747045
 21
23.4618219416
 31
0.0
  0
LINE
  5
134
330
1F
100
AcDbEntity
  8
0
  6
Continuous
 62
     7
370
    25
100
AcDbLine
 10
238.9314105032
 20
37.4022265265
 30
0.0
 11
245.3039747045
 21
37.4022265265
 31
0.0
  0
LINE
  5
135
330
1F
100
AcDbEntity
  8
0
  6
Continuous
 62
     7
370
    25
100
AcDbLine
 10
238.9314105032
 20
37.4022265265
 30
0.0
 11
238.9314105032
 21
26.9438557761
 31
0.0
  0
LINE
  5
136
330
1F
100
AcDbEntity
  8
0
  6
Continuous
 62
     7
370
    25
100
AcDbLine
 10
245.3039747045
 20
37.4022265265
 30
0.0
 11
245.3039747045
 21
26.9438557761
 31
0.0
  0
LINE
  5
137
330
1F
100
AcDbEntity
  8
0
  6
Continuous
 62
     7
370
    25
100
AcDbLine
 10
238.9314105032
 20
13.3572251245
 30
0.0
 11
238.9314105032
 21
14.6317379647
 31
0.0
  0
LINE
  5
138
330
1F
100
AcDbEntity
  8
0
  6
Continuous
 62
     7
370
    25
100
AcDbLine
 10
245.3039747045
 20
14.6317379647
 30
0.0
 11
245.3039747045
 21
13.3572251245
 31
0.0
  0
LINE
  5
139
330
1F
100
AcDbEntity
  8
0
  6
Continuous
 62
     7
370
    25
100
AcDbLine
 10
200.6960252955
 20
23.7150281259
 30
0.0
 11
238.9314105032
 21
23.7150281259
 31
0.0
  0
LINE
  5
13A
330
1F
100
AcDbEntity
  8
0
  6
Continuous
 62
     7
370
    25
100
AcDbLine
 10
200.6960252955
 20
23.7150281259
 30
0.0
 11
200.6960252955
 21
37.9987400201
 31
0.0
  0
LINE
  5
13B
330
1F
100
AcDbEntity
  8
0
  6
Continuous
 62
     7
370
    25
100
AcDbLine
 10
238.9314105032
 20
37.9987400201
 30
0.0
 11
200.6960252955
 21
37.9987400201
 31
0.0
  0
LINE
  5
13C
330
1F
100
AcDbEntity
  8
0
  6
Continuous
 62
     7
370
    25
100
AcDbLine
 10
238.9314105032
 20
37.9987400201
 30
0.0
 11
238.9314105032
 21
77.0225666358
 31
0.0
  0
LINE
  5
13D
330
1F
100
AcDbEntity
  8
0
  6
Continuous
 62
     7
370
    25
100
AcDbLine
 10
200.6960252955
 20
77.0225666358
 30
0.0
 11
238.9314105032
 21
77.0225666358
 31
0.0
  0
LINE
  5
13E
330
1F
100
AcDbEntity
  8
0
  6
Continuous
 62
     7
370
    25
100
AcDbLine
 10
200.6960252955
 20
77.0225666358
 30
0.0
 11
200.6960252955
 21
78.1082659337
 31
0.0
  0
LINE
  5
13F
330
1F
100
AcDbEntity
  8
0
  6
Continuous
 62
     7
370
    25
100
AcDbLine
 10
238.9314105032
 20
77.1770076943
 30
0.0
 11
245.3039747045
 21
77.1770076943
 31
0.0
  0
LINE
  5
140
330
1F
100
AcDbEntity
  8
0
  6
Continuous
 62
     7
370
    25
100
AcDbLine
 10
245.3039747045
 20
37.4022265265
 30
0.0
 11
245.3039747045
 21
77.1770076943
 31
0.0
  0
LINE
  5
141
330
1F
100
AcDbEntity
  8
0
  6
Continuous
 62
     7
370
    25
100
AcDbLine
 10
200.6960252955
 20
39.1532787071
 30
0.0
 11
200.6960252955
 21
37.9987400201
 31
0.0
  0
ARC
  5
142
330
1F
100
AcDbEntity
  8
0
  6
Continuous
 62
     7
370
    25
100
AcDbCircle
 10
201.2935314776
 20
128.6290754487
 30
0.0
 40
89.47779174840159
100
AcDbArc
 50
269.6173929169
 51
279.8592582343
  0
LINE
  5
143
330
1F
100
AcDbEntity
  8
0
  6
Continuous
 62
     7
370
    25
100
AcDbLine
 10
216.6146855682
 20
40.4727514923
 30
0.0
 11
238.9314105032
 21
40.4727514923
 31
0.0
  0
ARC
  5
144
330
1F
100
AcDbEntity
  8
0
  6
Continuous
 62
     7
370
    25
100
AcDbCircle
 10
200.7143869244
 20
44.527952937
 30
0.0
 40
28.18582264048078
100
AcDbArc
 50
63.8277045722
 51
90.0373252868
  0
LINE
  5
145
330
1F
100
AcDbEntity
  8
0
  6
Continuous
 62
     7
370
    25
100
AcDbLine
 10
200.6960252955
 20
77.0225666358
 30
0.0
 11
200.6960252955
 21
72.7137695966
 31
0.0
  0
LINE
  5
146
330
1F
100
AcDbEntity
  8
0
  6
Continuous
 62
     7
370
    25
100
AcDbLine
 10
238.9314105032
 20
69.823932472
 30
0.0
 11
213.1463625229
 21
69.823932472
 31
0.0
  0
LINE
  5
147
330
1F
100
AcDbEntity
  8
0
  6
Continuous
 62
     7
370
    25
100
AcDbLine
 10
238.9314105032
 20
77.1770076943
 30
0.0
 11
238.9314105032
 21
98.093749195
 31
0.0
  0
LINE
  5
148
330
1F
100
AcDbEntity
  8
0
  6
Continuous
 62
     7
370
    25
100
AcDbLine
 10
245.3039747045
 20
77.1770076943
 30
0.0
 11
245.3039747045
 21
98.093749195
 31
0.0
  0
LINE
  5
149
330
1F
100
AcDbEntity
  8
0
  6
Continuous
 62
     7
370
    25
100
AcDbLine
 10
238.9314105032
 20
100.6427748755
 30
0.0
 11
245.3039747045
 21
100.6427748755
 31
0.0
  0
LINE
  5
14A
330
1F
100
AcDbEntity
  8
0
  6
Continuous
 62
     7
370
    25
100
AcDbLine
 10
238.9314105032
 20
98.093749195
 30
0.0
 11
238.9314105032
 21
100.6427748755
 31
0.0
  0
LINE
  5
14B
330
1F
100
AcDbEntity
  8
0
  6
Continuous
 62
     7
370
    25
100
AcDbLine
 10
245.3039747045
 20
100.6427748755
 30
0.0
 11
245.3039747045
 21
98.093749195
 31
0.0
  0
LINE
  5
14C
330
1F
100
AcDbEntity
  8
0
  6
HIDDEN
 62
     7
370
    18
100
AcDbLine
 10
238.9314105032
 20
24.1571005611
 30
0.0
 11
245.3039747045
 21
24.1571005611
 31
0.0
  0
SPLINE
  5
14D
330
1F
100
AcDbEntity
  8
0
  6
HIDDEN
 62
     7
370
    18
100
AcDbSpline
210
0.0
220
0.0
230
1.0
 70
    11
 71
     3
 72
    56
 73
    52
 74
     0
 42
0.00000001
 43
0.00000001
 40
0.0
 40
0.0
 40
0.0
 40
0.0
 40
0.03125
 40
0.03125
 40
0.0625000000000001
 40
0.0625000000000001
 40
0.0937500000000001
 40
0.0937500000000001
 40
0.1250000000000002
 40
0.1250000000000002
 40
0.2499999999999997
 40
0.2499999999999997
 40
0.2812499999999996
 40
0.2812499999999996
 40
0.3124999999999998
 40
0.3124999999999998
 40
0.3437500000000001
 40
0.3437500000000001
 40
0.3750000000000003
 40
0.3750000000000003
 40
0.4062500000000006
 40
0.4062500000000006
 40
0.4375000000000009
 40
0.4375000000000009
 40
0.4687500000000011
 40
0.4687500000000011
 40
0.5000000000000013
 40
0.5000000000000013
 40
0.625000000000001
 40
0.625000000000001
 40
0.6562500000000011
 40
0.6562500000000011
 40
0.6875000000000013
 40
0.6875000000000013
 40
0.7187500000000017
 40
0.7187500000000017
 40
0.7500000000000014
 40
0.7500000000000014
 40
0.7812500000000012
 40
0.7812500000000012
 40
0.8125000000000011
 40
0.8125000000000011
 40
0.8437500000000009
 40
0.8437500000000009
 40
0.8750000000000007
 40
0.8750000000000007
 40
0.9062500000000006
 40
0.9062500000000006
 40
0.9375000000000003
 40
0.9375000000000003
 40
1.0
 40
1.0
 40
1.0
 40
1.0
 10
209.7921450101792
 20
33.32132369380908
 30
0.0
 10
209.7921450101792
 20
33.44124410572589
 30
0.0
 10
209.7783380085589
 20
33.55716468939949
 30
0.0
 10
209.7258023933125
 20
33.78185437767399
 30
0.0
 10
209.6864524524806
 20
33.89168954230974
 30
0.0
 10
209.5848945062132
 20
34.09771438878062
 30
0.0
 10
209.5230809937894
 20
34.19389574861987
 30
0.0
 10
209.3769867584896
 20
34.37231823121809
 30
0.0
 10
209.2920221661417
 20
34.45468938821907
 30
0.0
 10
208.8259257351049
 20
34.80994286951351
 30
0.0
 10
208.2961087827118
 20
34.93584194520495
 30
0.0
 10
207.6371450399773
 20
34.84802972546014
 30
0.0
 10
207.5031589972324
 20
34.81769958341581
 30
0.0
 10
207.2437116305831
 20
34.73564200592217
 30
0.0
 10
207.1175590130922
 20
34.68409371770178
 30
0.0
 10
206.8722675353985
 20
34.56032267384863
 30
0.0
 10
206.7537604164579
 20
34.48811129429408
 30
0.0
 10
206.5339002797927
 20
34.32835182198738
 30
0.0
 10
206.4312358361991
 20
34.2402071320215
 30
0.0
 10
206.2420728636184
 20
34.04550281924887
 30
0.0
 10
206.1587416938815
 20
33.94214360855644
 30
0.0
 10
206.0130481982768
 20
33.72550914196116
 30
0.0
 10
205.9500782471462
 20
33.61085956483327
 30
0.0
 10
205.8484282183544
 20
33.37741875851547
 30
0.0
 10
205.8096821869201
 20
33.25921025284554
 30
0.0
 10
205.7566988613975
 20
33.01975179803342
 30
0.0
 10
205.7427263207735
 20
32.8977024780845
 30
0.0
 10
205.7424743167596
 20
32.30645697081176
 30
0.0
 10
205.9617706519416
 20
31.86067926455977
 30
0.0
 10
206.4269228371168
 20
31.50483559604175
 30
0.0
 10
206.531292879376
 20
31.44256877605871
 30
0.0
 10
206.7521391616102
 20
31.34081783025164
 30
0.0
 10
206.8686459264655
 20
31.30087024348932
 30
0.0
 10
207.1135636774803
 20
31.24240463026541
 30
0.0
 10
207.2419319456416
 20
31.22423055937982
 30
0.0
 10
207.5001972315271
 20
31.2115578818904
 30
0.0
 10
207.6313899665662
 20
31.21666943605351
 30
0.0
 10
207.8983618959045
 20
31.25212105077021
 30
0.0
 10
208.0304459631953
 20
31.28207995652701
 30
0.0
 10
208.2889611985924
 20
31.36352864508368
 30
0.0
 10
208.4171149766959
 20
31.41573631925672
 30
0.0
 10
208.6626292222968
 20
31.5396016529656
 30
0.0
 10
208.7792013989023
 20
31.61058514453846
 30
0.0
 10
208.9998698348545
 20
31.770803892554
 30
0.0
 10
209.1046235250663
 20
31.86100103259803
 30
0.0
 10
209.2914107365071
 20
32.05322443572046
 30
0.0
 10
209.3746178717461
 20
32.15588529103296
 30
0.0
 10
209.5215131624543
 20
32.37379578930074
 30
0.0
 10
209.5843918000838
 20
32.48830833602022
 30
0.0
 10
209.7362846647127
 20
32.83638899270065
 30
0.0
 10
209.7921450101792
 20
33.08148286997546
 30
0.0
 10
209.7921450101792
 20
33.32132369380908
 30
0.0
  0
ARC
  5
14E
330
1F
100
AcDbEntity
  8
0
  6
HIDDEN
 62
     7
370
    18
100
AcDbCircle
 10
200.7807902457
 20
64.2644404156
 30
0.0
 40
37.39525000726695
100
AcDbArc
 50
269.8701258034
 51
286.4628896978
  0
LINE
  5
14F
330
1F
100
AcDbEntity
  8
0
  6
HIDDEN
 62
     7
370
    18
100
AcDbLine
 10
216.6146855682
 20
40.4727514923
 30
0.0
 11
216.6146855682
 21
32.8630601046
 31
0.0
  0
LINE
  5
150
330
1F
100
AcDbEntity
  8
0
  6
HIDDEN
 62
     7
370
    18
100
AcDbLine
 10
238.9314105032
 20
37.4022265265
 30
0.0
 11
238.9314105032
 21
37.9987400201
 31
0.0
  0
LINE
  5
151
330
1F
100
AcDbEntity
  8
0
  6
HIDDEN
 62
     7
370
    18
100
AcDbLine
 10
216.6146855682
 20
32.8630601046
 30
0.0
 11
238.9314105032
 21
32.8630601046
 31
0.0
  0
LINE
  5
152
330
1F
100
AcDbEntity
  8
0
  6
HIDDEN
 62
     7
370
    18
100
AcDbLine
 10
238.9314105032
 20
28.4022651637
 30
0.0
 11
211.3783894694
 21
28.4022651637
 31
0.0
  0
ARC
  5
153
330
1F
100
AcDbEntity
  8
0
  6
HIDDEN
 62
     7
370
    18
100
AcDbCircle
 10
200.6960252955
 20
46.2454449273
 30
0.0
 40
20.79644124410331
100
AcDbArc
 50
300.9081355506
 51
319.9471467684
  0
LINE
  5
154
330
1F
100
AcDbEntity
  8
0
  6
HIDDEN
 62
     7
370
    18
100
AcDbLine
 10
245.3039747045
 20
32.2258036845
 30
0.0
 11
238.9314105032
 21
32.2258036845
 31
0.0
  0
LINE
  5
155
330
1F
100
AcDbEntity
  8
0
  6
HIDDEN
 62
     7
370
    18
100
AcDbLine
 10
245.3039747045
 20
60.2650861701
 30
0.0
 11
238.9314105032
 21
60.2650861701
 31
0.0
  0
LWPOLYLINE
  5
156
330
1F
100
AcDbEntity
  8
0
  6
HIDDEN
 62
     7
370
    18
100
AcDbPolyline
 90
       12
 70
   128
 43
0.0
 10
205.7696139227
 20
73.171593652
 10
205.7991037015
 20
73.1637519107
 10
206.0559179852
 20
73.0949317356
 10
206.5231916253
 20
72.9696533692
 10
207.1067278587
 20
72.8134247567
 10
207.7893077246
 20
72.6303465686
 10
208.4535914959
 20
72.4525372449
 10
209.0439343448
 20
72.2942086714
 10
209.4972524607
 20
72.1728405284
 10
209.7438083385
 20
72.1067594777
 10
209.7921450102
 20
72.0936873943
 10
209.7921450102
 20
72.0936873943
  0
LINE
  5
157
330
1F
100
AcDbEntity
  8
0
  6
HIDDEN
 62
     7
370
    18
100
AcDbLine
 10
238.9314105032
 20
14.3826239209
 30
0.0
 11
245.3039747045
 21
14.3826239209
 31
0.0
  0
SPLINE
  5
158
330
1F
100
AcDbEntity
  8
0
  6
HIDDEN
 62
     7
370
    18
100
AcDbSpline
210
0.0
220
0.0
230
1.0
 70
     8
 71
     3
 72
    18
 73
    14
 74
     0
 42
0.00000001
 43
0.00000001
 40
0.0
 40
0.0
 40
0.0
 40
0.0
 40
0.0776412564608803
 40
0.1472347642286506
 40
0.2658890446622897
 40
0.3646687778220636
 40
0.4550841659744225
 40
0.5408849893610073
 40
0.6451861990972757
 40
0.7141654582935727
 40
0.7958076495518681
 40
0.8907649003684155
 40
1.0
 40
1.0
 40
1.0
 40
1.0
 10
209.5546348951378
 20
34.13878432806555
 30
0.0
 10
209.4586343326549
 20
34.27013965928964
 30
0.0
 10
209.2765839534198
 20
34.51923494837347
 30
0.0
 10
208.8360462140252
 20
34.86569680030878
 30
0.0
 10
208.2694402446033
 20
35.09475990334984
 30
0.0
 10
207.6232216402384
 20
35.13125839231884
 30
0.0
 10
207.0588723300829
 20
34.9961752370409
 30
0.0
 10
206.5357130505114
 20
34.72147834914884
 30
0.0
 10
206.1388516678643
 20
34.34019974228674
 30
0.0
 10
205.8649121894607
 20
33.87959849164135
 30
0.0
 10
205.7047376780236
 20
33.3898482041249
 30
0.0
 10
205.6628435009552
 20
32.78521737425588
 30
0.0
 10
205.7989831654794
 20
32.38044359183955
 30
0.0
 10
205.871812680324
 20
32.16390509588972
 30
0.0
  0
LINE
  5
159
330
1F
100
AcDbEntity
  8
0
  6
HIDDEN
 62
     7
370
    18
100
AcDbLine
 10
238.9314105032
 20
26.1145146154
 30
0.0
 11
245.3039747045
 21
26.1145146154
 31
0.0
  0
LINE
  5
15A
330
1F
100
AcDbEntity
  8
0
  6
HIDDEN
 62
     7
370
    18
100
AcDbLine
 10
245.3039747045
 20
30.7664864824
 30
0.0
 11
238.9314105032
 21
30.7664864824
 31
0.0
  0
LINE
  5
15B
330
1F
100
AcDbEntity
  8
0
  6
HIDDEN
 62
     7
370
    18
100
AcDbLine
 10
238.9314105032
 20
61.7244033722
 30
0.0
 11
245.3039747045
 21
61.7244033722
 31
0.0
  0
LINE
  5
15C
330
1F
100
AcDbEntity
  8
0
  6
HIDDEN
 62
     7
370
    18
100
AcDbLine
 10
245.3039747045
 20
66.3763752392
 30
0.0
 11
238.9314105032
 21
66.3763752392
 31
0.0
  0
ARC
  5
15D
330
1F
100
AcDbEntity
  8
0
  6
HIDDEN
 62
     7
370
    18
100
AcDbCircle
 10
200.6960252955
 20
46.2454449273
 30
0.0
 40
27.40202606551841
100
AcDbArc
 50
79.3299170852
 51
90.0
  0
ARC
  5
15E
330
1F
100
AcDbEntity
  8
0
  6
HIDDEN
 62
     7
370
    18
100
AcDbCircle
 10
200.6960252955
 20
46.2454449273
 30
0.0
 40
27.4020260655184
100
AcDbArc
 50
59.3688462944
 51
70.6134663407
  0
LINE
  5
15F
330
1F
100
AcDbEntity
  8
0
  6
HIDDEN
 62
     7
370
    18
100
AcDbLine
 10
238.9314105032
 20
31.5885472643
 30
0.0
 11
245.3039747045
 21
31.5885472643
 31
0.0
  0
LINE
  5
160
330
1F
100
AcDbEntity
  8
0
  6
HIDDEN
 62
     7
370
    18
100
AcDbLine
 10
245.3039747045
 20
60.9023425903
 30
0.0
 11
238.9314105032
 21
60.9023425903
 31
0.0
  0
SPLINE
  5
161
330
1F
100
AcDbEntity
  8
0
  6
HIDDEN
 62
     7
370
    18
100
AcDbSpline
210
0.0
220
0.0
230
1.0
 70
     8
 71
     3
 72
     9
 73
     5
 74
     0
 42
0.00000001
 43
0.00000001
 40
0.0
 40
0.0
 40
0.0
 40
0.0
 40
0.7660860220129208
 40
1.0
 40
1.0
 40
1.0
 40
1.0
 10
205.7470323464898
 20
73.19867538729737
 30
0.0
 10
205.7025950070507
 20
72.93973262071981
 30
0.0
 10
205.6445893286253
 20
72.60172519187108
 30
0.0
 10
205.7387122242501
 20
72.27828813290351
 30
0.0
 10
205.7607288851854
 20
72.20263168381197
 30
0.0
  0
SPLINE
  5
162
330
1F
100
AcDbEntity
  8
0
  6
HIDDEN
 62
     7
370
    18
100
AcDbSpline
210
0.0
220
0.0
230
1.0
 70
     8
 71
     3
 72
     9
 73
     5
 74
     0
 42
0.00000001
 43
0.00000001
 40
0.0
 40
0.0
 40
0.0
 40
0.0
 40
0.3193499520487882
 40
0.9999999999999999
 40
0.9999999999999999
 40
0.9999999999999999
 40
0.9999999999999999
 10
209.3437198175424
 20
71.30345762835717
 30
0.0
 10
209.4096158381478
 20
71.37876074283966
 30
0.0
 10
209.6159600701808
 20
71.61456198219919
 30
0.0
 10
209.7244776254595
 20
71.9112143183672
 30
0.0
 10
209.7983401046635
 20
72.11313074520477
 30
0.0
  0
ENDSEC
  0
SECTION
  2
OBJECTS
  0
DICTIONARY
  5
C
330
0
100
AcDbDictionary
281
     1
  3
ACAD_GROUP
350
D
  3
ACAD_LAYOUT
350
1A
  3
ACAD_MLINESTYLE
350
17
  3
ACAD_PLOTSETTINGS
350
19
  3
ACAD_PLOTSTYLENAME
350
E
  3
ACAD_SCALELIST
350
47
  3
DWGPROPS
350
163
  0
DICTIONARY
  5
D
102
{ACAD_REACTORS
330
C
102
}
330
C
100
AcDbDictionary
281
     1
  0
DICTIONARY
  5
1A
102
{ACAD_REACTORS
330
C
102
}
330
C
100
AcDbDictionary
281
     1
  3
Layout1
350
1E
  3
Layout2
350
26
  3
Model
350
22
  0
DICTIONARY
  5
17
102
{ACAD_REACTORS
330
C
102
}
330
C
100
AcDbDictionary
281
     1
  3
Standard
350
18
  0
DICTIONARY
  5
19
102
{ACAD_REACTORS
330
C
102
}
330
C
100
AcDbDictionary
281
     1
  0
ACDBDICTIONARYWDFLT
  5
E
102
{ACAD_REACTORS
330
C
102
}
330
C
100
AcDbDictionary
281
     1
  3
Normal
350
F
100
AcDbDictionaryWithDefault
340
F
  0
DICTIONARY
  5
47
102
{ACAD_REACTORS
330
C
102
}
330
C
100
AcDbDictionary
281
     1
  3
A0
350
48
  3
A1
350
49
  3
A2
350
4A
  3
A3
350
4B
  3
A4
350
4C
  3
A5
350
4D
  3
A6
350
4E
  3
A7
350
4F
  3
A8
350
50
  3
A9
350
51
  3
B0
350
52
  3
B1
350
53
  3
B2
350
54
  3
B3
350
55
  3
B4
350
56
  3
B5
350
57
  3
B6
350
58
  0
XRECORD
  5
163
102
{ACAD_REACTORS
330
C
102
}
330
C
100
AcDbXrecord
280
     1
  1
DWGPROPS COOKIE
  2

  3

  4

  6

  7

  8

  9

300
=
301
=
302
=
303
=
304
=
305
=
306
=
307
=
308
=
309
=
 40
0.0
 41
2461214.605773461
 42
2461214.605773727
  1

 90
        0
  0
LAYOUT
  5
1E
102
{ACAD_REACTORS
330
1A
102
}
330
1A
100
AcDbPlotSettings
  1

  2
none_device
  4

  6

 40
0.0
 41
0.0
 42
0.0
 43
0.0
 44
0.0
 45
0.0
 46
0.0
 47
0.0
 48
0.0
 49
0.0
140
0.0
141
0.0
142
1.0
143
1.0
 70
   688
 72
     1
 73
     0
 74
     5
  7

 75
    16
147
1.0
148
0.0
149
0.0
100
AcDbLayout
  1
Layout1
 70
     1
 71
     1
 10
0.0
 20
0.0
 11
420.0
 21
297.0
 12
0.0
 22
0.0
 32
0.0
 14
1.0000000000E+20
 24
1.0000000000E+20
 34
1.0000000000E+20
 15
-1.0000000000E+20
 25
-1.0000000000E+20
 35
-1.0000000000E+20
146
0.0
 13
0.0
 23
0.0
 33
0.0
 16
1.0
 26
0.0
 36
0.0
 17
0.0
 27
1.0
 37
0.0
 76
     0
330
1B
  0
LAYOUT
  5
26
102
{ACAD_REACTORS
330
1A
102
}
330
1A
100
AcDbPlotSettings
  1

  2
none_device
  4

  6

 40
0.0
 41
0.0
 42
0.0
 43
0.0
 44
0.0
 45
0.0
 46
0.0
 47
0.0
 48
0.0
 49
0.0
140
0.0
141
0.0
142
1.0
143
1.0
 70
   688
 72
     1
 73
     0
 74
     5
  7

 75
    16
147
1.0
148
0.0
149
0.0
100
AcDbLayout
  1
Layout2
 70
     1
 71
     2
 10
0.0
 20
0.0
 11
0.0
 21
0.0
 12
0.0
 22
0.0
 32
0.0
 14
0.0
 24
0.0
 34
0.0
 15
0.0
 25
0.0
 35
0.0
146
0.0
 13
0.0
 23
0.0
 33
0.0
 16
1.0
 26
0.0
 36
0.0
 17
0.0
 27
1.0
 37
0.0
 76
     0
330
23
  0
LAYOUT
  5
22
102
{ACAD_REACTORS
330
1A
102
}
330
1A
100
AcDbPlotSettings
  1

  2
none_device
  4
Letter_(8.50_x_11.00_Inches)
  6

 40
6.35
 41
6.35
 42
6.35000508
 43
6.35000508
 44
215.9
 45
279.4
 46
0.0
 47
0.0
 48
0.0
 49
0.0
140
0.0
141
0.0
142
1.0
143
1.0
 70
  1712
 72
     1
 73
     0
 74
     0
  7

 75
     0
147
1.0
148
0.0
149
0.0
100
AcDbLayout
  1
Model
 70
     1
 71
     0
 10
0.0
 20
0.0
 11
297.0
 21
210.0
 12
0.0
 22
0.0
 32
0.0
 14
0.0
 24
0.0
 34
0.0
 15
297.0
 25
210.0
 35
0.0
146
0.0
 13
0.0
 23
0.0
 33
0.0
 16
1.0
 26
0.0
 36
0.0
 17
0.0
 27
1.0
 37
0.0
 76
     0
330
1F
331
29
  0
MLINESTYLE
  5
18
102
{ACAD_REACTORS
330
17
102
}
330
17
100
AcDbMlineStyle
  2
Standard
 70
     0
  3

 62
   256
 51
90.0
 52
90.0
 71
     2
 49
0.5
 62
   256
  6
BYLAYER
 49
-0.5
 62
   256
  6
BYLAYER
  0
ACDBPLACEHOLDER
  5
F
102
{ACAD_REACTORS
330
E
102
}
330
E
  0
SCALE
  5
48
102
{ACAD_REACTORS
330
47
102
}
330
47
100
AcDbScale
 70
     0
300
1:1
140
1.0
141
1.0
290
     1
  0
SCALE
  5
49
102
{ACAD_REACTORS
330
47
102
}
330
47
100
AcDbScale
 70
     0
300
1:2
140
1.0
141
2.0
290
     0
  0
SCALE
  5
4A
102
{ACAD_REACTORS
330
47
102
}
330
47
100
AcDbScale
 70
     0
300
1:4
140
1.0
141
4.0
290
     0
  0
SCALE
  5
4B
102
{ACAD_REACTORS
330
47
102
}
330
47
100
AcDbScale
 70
     0
300
1:5
140
1.0
141
5.0
290
     0
  0
SCALE
  5
4C
102
{ACAD_REACTORS
330
47
102
}
330
47
100
AcDbScale
 70
     0
300
1:8
140
1.0
141
8.0
290
     0
  0
SCALE
  5
4D
102
{ACAD_REACTORS
330
47
102
}
330
47
100
AcDbScale
 70
     0
300
1:10
140
1.0
141
10.0
290
     0
  0
SCALE
  5
4E
102
{ACAD_REACTORS
330
47
102
}
330
47
100
AcDbScale
 70
     0
300
1:16
140
1.0
141
16.0
290
     0
  0
SCALE
  5
4F
102
{ACAD_REACTORS
330
47
102
}
330
47
100
AcDbScale
 70
     0
300
1:20
140
1.0
141
20.0
290
     0
  0
SCALE
  5
50
102
{ACAD_REACTORS
330
47
102
}
330
47
100
AcDbScale
 70
     0
300
1:30
140
1.0
141
30.0
290
     0
  0
SCALE
  5
51
102
{ACAD_REACTORS
330
47
102
}
330
47
100
AcDbScale
 70
     0
300
1:40
140
1.0
141
40.0
290
     0
  0
SCALE
  5
52
102
{ACAD_REACTORS
330
47
102
}
330
47
100
AcDbScale
 70
     0
300
1:50
140
1.0
141
50.0
290
     0
  0
SCALE
  5
53
102
{ACAD_REACTORS
330
47
102
}
330
47
100
AcDbScale
 70
     0
300
1:100
140
1.0
141
100.0
290
     0
  0
SCALE
  5
54
102
{ACAD_REACTORS
330
47
102
}
330
47
100
AcDbScale
 70
     0
300
2:1
140
2.0
141
1.0
290
     0
  0
SCALE
  5
55
102
{ACAD_REACTORS
330
47
102
}
330
47
100
AcDbScale
 70
     0
300
4:1
140
4.0
141
1.0
290
     0
  0
SCALE
  5
56
102
{ACAD_REACTORS
330
47
102
}
330
47
100
AcDbScale
 70
     0
300
8:1
140
8.0
141
1.0
290
     0
  0
SCALE
  5
57
102
{ACAD_REACTORS
330
47
102
}
330
47
100
AcDbScale
 70
     0
300
10:1
140
10.0
141
1.0
290
     0
  0
SCALE
  5
58
102
{ACAD_REACTORS
330
47
102
}
330
47
100
AcDbScale
 70
     0
300
100:1
140
100.0
141
1.0
290
     0
  0
ENDSEC
  0
EOF
