  0
SECTION
  2
HEADER
  9
$ACADVER
  1
AC1015
  9
$ACADMAINTVER
 70
     6
  9
$DWGCODEPAGE
  3
ANSI_936
  9
$INSBASE
 10
0.0
 20
0.0
 30
0.0
  9
$EXTMIN
 10
0.0
 20
0.0
 30
0.0
  9
$EXTMAX
 10
297.0
 20
210.0
 30
0.0
  9
$LIMMIN
 10
0.0
 20
0.0
  9
$LIMMAX
 10
297.0
 20
210.0
  9
$ORTHOMODE
 70
     0
  9
$REGENMODE
 70
     1
  9
$FILLMODE
 70
     1
  9
$QTEXTMODE
 70
     0
  9
$MIRRTEXT
 70
     1
  9
$LTSCALE
 40
1.0
  9
$ATTMODE
 70
     1
  9
$TEXTSIZE
 40
3.5
  9
$TRACEWID
 40
1.0
  9
$TEXTSTYLE
  7
Standard
  9
$CLAYER
  8
0
  9
$CELTYPE
  6
ByLayer
  9
$CECOLOR
 62
   256
  9
$CELTSCALE
 40
1.0
  9
$DISPSILH
 70
     0
  9
$DIMSCALE
 40
1.0
  9
$DIMASZ
 40
4.08
  9
$DIMEXO
 40
0.0
  9
$DIMDLI
 40
3.75
  9
$DIMRND
 40
0.0
  9
$DIMDLE
 40
0.0
  9
$DIMEXE
 40
2.0
  9
$DIMTP
 40
0.0
  9
$DIMTM
 40
0.0
  9
$DIMTXT
 40
3.5
  9
$DIMCEN
 40
2.5
  9
$DIMTSZ
 40
0.0
  9
$DIMTOL
 70
     0
  9
$DIMLIM
 70
     0
  9
$DIMTIH
 70
     1
  9
$DIMTOH
 70
     1
  9
$DIMSE1
 70
     0
  9
$DIMSE2
 70
     0
  9
$DIMTAD
 70
     1
  9
$DIMZIN
 70
     0
  9
$DIMBLK
  1

  9
$DIMASO
 70
     1
  9
$DIMSHO
 70
     1
  9
$DIMPOST
  1

  9
$DIMAPOST
  1

  9
$DIMALT
 70
     0
  9
$DIMALTD
 70
     3
  9
$DIMALTF
 40
0.0393700787
  9
$DIMLFAC
 40
2.0
  9
$DIMTOFL
 70
     1
  9
$DIMTVP
 40
0.0
  9
$DIMTIX
 70
     0
  9
$DIMSOXD
 70
     0
  9
$DIMSAH
 70
     0
  9
$DIMBLK1
  1

  9
$DIMBLK2
  1

  9
$DIMSTYLE
  2
ISO-25
  9
$DIMCLRD
 70
     0
  9
$DIMCLRE
 70
     0
  9
$DIMCLRT
 70
     0
  9
$DIMTFAC
 40
1.0
  9
$DIMGAP
 40
1.524
  9
$DIMJUST
 70
     0
  9
$DIMSD1
 70
     0
  9
$DIMSD2
 70
     0
  9
$DIMTOLJ
 70
     0
  9
$DIMTZIN
 70
     0
  9
$DIMALTZ
 70
     0
  9
$DIMALTTZ
 70
     0
  9
$DIMUPT
 70
     0
  9
$DIMDEC
 70
     2
  9
$DIMTDEC
 70
     2
  9
$DIMALTU
 70
     2
  9
$DIMALTTD
 70
     3
  9
$DIMTXSTY
  7
Standard
  9
$DIMAUNIT
 70
     0
  9
$DIMADEC
 70
     2
  9
$DIMALTRND
 40
0.0
  9
$DIMAZIN
 70
     0
  9
$DIMDSEP
 70
    44
  9
$DIMATFIT
 70
     3
  9
$DIMFRAC
 70
     0
  9
$DIMLDRBLK
  1

  9
$DIMLUNIT
 70
     2
  9
$DIMLWD
 70
    -2
  9
$DIMLWE
 70
    -2
  9
$DIMTMOVE
 70
     0
  9
$LUNITS
 70
     2
  9
$LUPREC
 70
     2
  9
$SKETCHINC
 40
1.0
  9
$FILLETRAD
 40
0.0
  9
$AUNITS
 70
     0
  9
$AUPREC
 70
     2
  9
$MENU
  1
.
  9
$ELEVATION
 40
0.0
  9
$PELEVATION
 40
0.0
  9
$THICKNESS
 40
0.0
  9
$LIMCHECK
 70
     0
  9
$CHAMFERA
 40
0.0
  9
$CHAMFERB
 40
0.0
  9
$CHAMFERC
 40
0.0
  9
$CHAMFERD
 40
0.0
  9
$SKPOLY
 70
     0
  9
$TDCREATE
 40
2461213.898684109
  9
$TDUCREATE
 40
2461213.565350776
  9
$TDUPDATE
 40
2461213.898684283
  9
$TDUUPDATE
 40
2461213.56535095
  9
$TDINDWG
 40
0.0000000116
  9
$TDUSRTIMER
 40
0.0000000116
  9
$USRTIMER
 70
     1
  9
$ANGBASE
 50
0.0
  9
$ANGDIR
 70
     0
  9
$PDMODE
 70
     0
  9
$PDSIZE
 40
-1.0
  9
$PLINEWID
 40
0.0
  9
$SPLFRAME
 70
     0
  9
$SPLINETYPE
 70
     6
  9
$SPLINESEGS
 70
     8
  9
$HANDSEED
  5
B2
  9
$SURFTAB1
 70
     6
  9
$SURFTAB2
 70
     6
  9
$SURFTYPE
 70
     6
  9
$SURFU
 70
     6
  9
$SURFV
 70
     6
  9
$UCSBASE
  2

  9
$UCSNAME
  2

  9
$UCSORG
 10
0.0
 20
0.0
 30
0.0
  9
$UCSXDIR
 10
1.0
 20
0.0
 30
0.0
  9
$UCSYDIR
 10
0.0
 20
1.0
 30
0.0
  9
$UCSORTHOREF
  2

  9
$UCSORTHOVIEW
 70
     0
  9
$UCSORGTOP
 10
0.0
 20
0.0
 30
0.0
  9
$UCSORGBOTTOM
 10
0.0
 20
0.0
 30
0.0
  9
$UCSORGLEFT
 10
0.0
 20
0.0
 30
0.0
  9
$UCSORGRIGHT
 10
0.0
 20
0.0
 30
0.0
  9
$UCSORGFRONT
 10
0.0
 20
0.0
 30
0.0
  9
$UCSORGBACK
 10
0.0
 20
0.0
 30
0.0
  9
$PUCSBASE
  2

  9
$PUCSNAME
  2

  9
$PUCSORG
 10
0.0
 20
0.0
 30
0.0
  9
$PUCSXDIR
 10
1.0
 20
0.0
 30
0.0
  9
$PUCSYDIR
 10
0.0
 20
1.0
 30
0.0
  9
$PUCSORTHOREF
  2

  9
$PUCSORTHOVIEW
 70
     0
  9
$PUCSORGTOP
 10
0.0
 20
0.0
 30
0.0
  9
$PUCSORGBOTTOM
 10
0.0
 20
0.0
 30
0.0
  9
$PUCSORGLEFT
 10
0.0
 20
0.0
 30
0.0
  9
$PUCSORGRIGHT
 10
0.0
 20
0.0
 30
0.0
  9
$PUCSORGFRONT
 10
0.0
 20
0.0
 30
0.0
  9
$PUCSORGBACK
 10
0.0
 20
0.0
 30
0.0
  9
$USERI1
 70
     0
  9
$USERI2
 70
     0
  9
$USERI3
 70
     0
  9
$USERI4
 70
     0
  9
$USERI5
 70
     0
  9
$USERR1
 40
0.0
  9
$USERR2
 40
0.0
  9
$USERR3
 40
0.0
  9
$USERR4
 40
0.0
  9
$USERR5
 40
0.0
  9
$WORLDVIEW
 70
     1
  9
$SHADEDGE
 70
     3
  9
$SHADEDIF
 70
    70
  9
$TILEMODE
 70
     1
  9
$MAXACTVP
 70
    64
  9
$PINSBASE
 10
0.0
 20
0.0
 30
0.0
  9
$PLIMCHECK
 70
     0
  9
$PEXTMIN
 10
1.0000000000E+20
 20
1.0000000000E+20
 30
1.0000000000E+20
  9
$PEXTMAX
 10
-1.0000000000E+20
 20
-1.0000000000E+20
 30
-1.0000000000E+20
  9
$PLIMMIN
 10
0.0
 20
0.0
  9
$PLIMMAX
 10
420.0
 20
297.0
  9
$UNITMODE
 70
     0
  9
$VISRETAIN
 70
     1
  9
$PLINEGEN
 70
     0
  9
$PSLTSCALE
 70
     1
  9
$TREEDEPTH
 70
  3020
  9
$CMLSTYLE
  2
Standard
  9
$CMLJUST
 70
     0
  9
$CMLSCALE
 40
20.0
  9
$PROXYGRAPHICS
 70
     1
  9
$MEASUREMENT
 70
     1
  9
$CELWEIGHT
370
    -1
  9
$ENDCAPS
280
     0
  9
$JOINSTYLE
280
     0
  9
$LWDISPLAY
290
     1
  9
$INSUNITS
 70
     4
  9
$HYPERLINKBASE
  1

  9
$STYLESHEET
  1

  9
$XEDIT
290
     1
  9
$CEPSNTYPE
380
     0
  9
$PSTYLEMODE
290
     1
  9
$FINGERPRINTGUID
  2
{f39b1a9c-e4b6-43d2-9516-cf2518bc7061}
  9
$VERSIONGUID
  2
{FAEB1C32-E019-11D5-929B-00C0DF256EC4}
  9
$EXTNAMES
290
     1
  9
$PSVPSCALE
 40
0.0
  9
$OLESTARTUP
290
     0
  0
ENDSEC
  0
SECTION
  2
CLASSES
  0
CLASS
  1
ACDBDICTIONARYWDFLT
  2
AcDbDictionaryWithDefault
  3
ObjectDBX Classes
 90
        0
280
     0
281
     0
  0
CLASS
  1
VISUALSTYLE
  2
AcDbVisualStyle
  3
ObjectDBX Classes
 90
     4095
280
     0
281
     0
  0
CLASS
  1
MATERIAL
  2
AcDbMaterial
  3
ObjectDBX Classes
 90
     1153
280
     0
281
     0
  0
CLASS
  1
SCALE
  2
AcDbScale
  3
ObjectDBX Classes
 90
     1153
280
     0
281
     0
  0
CLASS
  1
TABLESTYLE
  2
AcDbTableStyle
  3
ObjectDBX Classes
 90
     4095
280
     0
281
     0
  0
CLASS
  1
MLEADERSTYLE
  2
AcDbMLeaderStyle
  3
ACDB_MLEADERSTYLE_CLASS
 90
     4095
280
     0
281
     0
  0
CLASS
  1
SUN
  2
AcDbSun
  3
SCENEOE
 90
     1153
280
     0
281
     0
  0
CLASS
  1
ACDBPLACEHOLDER
  2
AcDbPlaceHolder
  3
ObjectDBX Classes
 90
        0
280
     0
281
     0
  0
CLASS
  1
LAYOUT
  2
AcDbLayout
  3
ObjectDBX Classes
 90
        0
280
     0
281
     0
  0
ENDSEC
  0
SECTION
  2
TABLES
  0
TABLE
  2
VPORT
  5
8
330
0
100
AcDbSymbolTable
 70
     1
  0
VPORT
  5
29
330
8
100
AcDbSymbolTableRecord
100
AcDbViewportTableRecord
  2
*Active
 70
     0
 10
0.0
 20
0.0
 11
1.0
 21
1.0
 12
148.5
 22
105.0
 13
0.0
 23
0.0
 14
10.0
 24
10.0
 15
10.0
 25
10.0
 16
0.0
 26
0.0
 36
1.0
 17
0.0
 27
0.0
 37
0.0
 40
210.0
 41
1.4142857143
 42
50.0
 43
0.0
 44
0.0
 50
0.0
 51
0.0
 71
     0
 72
  2000
 73
     1
 74
     3
 75
     0
 76
     0
 77
     0
 78
     0
281
     0
 65
     1
110
0.0
120
0.0
130
0.0
111
1.0
121
0.0
131
0.0
112
0.0
122
1.0
132
0.0
 79
     0
146
0.0
  0
ENDTAB
  0
TABLE
  2
LTYPE
  5
5
330
0
100
AcDbSymbolTable
 70
     6
  0
LTYPE
  5
14
330
5
100
AcDbSymbolTableRecord
100
AcDbLinetypeTableRecord
  2
ByBlock
 70
     0
  3

 72
    65
 73
     0
 40
0.0
  0
LTYPE
  5
15
330
5
100
AcDbSymbolTableRecord
100
AcDbLinetypeTableRecord
  2
ByLayer
 70
     0
  3

 72
    65
 73
     0
 40
0.0
  0
LTYPE
  5
16
330
5
100
AcDbSymbolTableRecord
100
AcDbLinetypeTableRecord
  2
Continuous
 70
     0
  3
Solid line
 72
    65
 73
     0
 40
0.0
  0
LTYPE
  5
5E
330
5
100
AcDbSymbolTableRecord
100
AcDbLinetypeTableRecord
  2
HIDDEN
 70
     0
  3
Hidden __ __ __ __ __ __ __ __ __ __ __ __ __ __
 72
    65
 73
     2
 40
1.905
 49
1.27
 74
     0
 49
-0.635
 74
     0
  0
LTYPE
  5
5F
330
5
100
AcDbSymbolTableRecord
100
AcDbLinetypeTableRecord
  2
PHANTOM
 70
     0
  3
Phantom ______  __  __  ______  __  __  ______
 72
    65
 73
     6
 40
12.7
 49
6.35
 74
     0
 49
-1.27
 74
     0
 49
1.27
 74
     0
 49
-1.27
 74
     0
 49
1.27
 74
     0
 49
-1.27
 74
     0
  0
LTYPE
  5
60
330
5
100
AcDbSymbolTableRecord
100
AcDbLinetypeTableRecord
  2
CENTER
 70
     0
  3
Center ____ _ ____ _ ____ _ ____ _ ____ _ ____
 72
    65
 73
     4
 40
10.16
 49
6.35
 74
     0
 49
-1.27
 74
     0
 49
1.27
 74
     0
 49
-1.27
 74
     0
  0
LTYPE
  5
61
330
5
100
AcDbSymbolTableRecord
100
AcDbLinetypeTableRecord
  2
CENTERX2
 70
     0
  3
Center (2x) ________  __  ________  __  _____
 72
    65
 73
     4
 40
20.32
 49
12.7
 74
     0
 49
-2.54
 74
     0
 49
2.54
 74
     0
 49
-2.54
 74
     0
  0
LTYPE
  5
62
330
5
100
AcDbSymbolTableRecord
100
AcDbLinetypeTableRecord
  2
DOT2
 70
     0
  3
Dot (.5x) ........................................
 72
    65
 73
     2
 40
0.635
 49
0.0
 74
     0
 49
-0.635
 74
     0
  0
ENDTAB
  0
TABLE
  2
LAYER
  5
2
330
0
100
AcDbSymbolTable
 70
    14
  0
LAYER
  5
10
330
2
100
AcDbSymbolTableRecord
100
AcDbLayerTableRecord
  2
0
 70
     0
 62
     7
  6
Continuous
370
    -3
390
F
  0
LAYER
  5
63
330
2
100
AcDbSymbolTableRecord
100
AcDbLayerTableRecord
  2
SLD-0
 70
     0
 62
     7
  6
Continuous
370
    -3
390
F
  0
LAYER
  5
64
330
2
100
AcDbSymbolTableRecord
100
AcDbLayerTableRecord
  2
5
 70
     0
 62
     7
  6
Continuous
370
    -3
390
F
  0
LAYER
  5
65
330
2
100
AcDbSymbolTableRecord
100
AcDbLayerTableRecord
  2
9
 70
     0
 62
     7
  6
Continuous
370
    -3
390
F
  0
LAYER
  5
66
330
2
100
AcDbSymbolTableRecord
100
AcDbLayerTableRecord
  2
10
 70
     0
 62
     7
  6
Continuous
370
    -3
390
F
  0
LAYER
  5
67
330
2
100
AcDbSymbolTableRecord
100
AcDbLayerTableRecord
  2
轮廓实线层
 70
     0
 62
     7
  6
Continuous
370
    50
390
F
  0
LAYER
  5
68
330
2
100
AcDbSymbolTableRecord
100
AcDbLayerTableRecord
  2
细线层
 70
     0
 62
     4
  6
Continuous
370
    25
390
F
  0
LAYER
  5
69
330
2
100
AcDbSymbolTableRecord
100
AcDbLayerTableRecord
  2
中心线层
 70
     0
 62
     1
  6
CENTERX2
370
    25
390
F
  0
LAYER
  5
6A
330
2
100
AcDbSymbolTableRecord
100
AcDbLayerTableRecord
  2
虚线层
 70
     0
 62
     6
  6
HIDDEN
370
    25
390
F
  0
LAYER
  5
6B
330
2
100
AcDbSymbolTableRecord
100
AcDbLayerTableRecord
  2
剖面线层
 70
     0
 62
     2
  6
Continuous
370
    25
390
F
  0
LAYER
  5
6C
330
2
100
AcDbSymbolTableRecord
100
AcDbLayerTableRecord
  2
文字层
 70
     0
 62
     3
  6
Continuous
370
    25
390
F
  0
LAYER
  5
6D
330
2
100
AcDbSymbolTableRecord
100
AcDbLayerTableRecord
  2
标注层
 70
     0
 62
     4
  6
Continuous
370
    25
390
F
  0
LAYER
  5
6E
330
2
100
AcDbSymbolTableRecord
100
AcDbLayerTableRecord
  2
符号标注层
 70
     0
 62
    31
  6
Continuous
370
    25
390
F
  0
LAYER
  5
6F
330
2
100
AcDbSymbolTableRecord
100
AcDbLayerTableRecord
  2
双点划线层
 70
     0
 62
     6
  6
PHANTOM
370
    25
390
F
  0
ENDTAB
  0
TABLE
  2
STYLE
  5
3
330
0
100
AcDbSymbolTable
 70
     1
  0
STYLE
  5
11
330
3
100
AcDbSymbolTableRecord
100
AcDbTextStyleTableRecord
  2
Standard
 70
     0
 40
0.0
 41
1.0
 50
0.0
 71
     0
 42
3.5
  3
txt
  4

  0
ENDTAB
  0
TABLE
  2
VIEW
  5
6
330
0
100
AcDbSymbolTable
 70
     0
  0
ENDTAB
  0
TABLE
  2
UCS
  5
7
330
0
100
AcDbSymbolTable
 70
     0
  0
ENDTAB
  0
TABLE
  2
APPID
  5
9
330
0
100
AcDbSymbolTable
 70
     1
  0
APPID
  5
12
330
9
100
AcDbSymbolTableRecord
100
AcDbRegAppTableRecord
  2
ACAD
 70
     0
  0
ENDTAB
  0
TABLE
  2
DIMSTYLE
  5
A
330
0
100
AcDbSymbolTable
 70
     1
100
AcDbDimStyleTable
  0
DIMSTYLE
105
27
330
A
100
AcDbSymbolTableRecord
100
AcDbDimStyleTableRecord
  2
ISO-25
 70
     0
 41
2.5
 42
0.625
 43
3.75
 44
1.25
 73
     0
 74
     0
 77
     1
 78
     8
140
2.5
141
2.5
143
0.0393700787
147
0.625
171
     3
172
     1
178
     0
271
     2
272
     2
274
     3
278
    44
283
     0
284
     8
340
11
  0
ENDTAB
  0
TABLE
  2
BLOCK_RECORD
  5
1
330
0
100
AcDbSymbolTable
 70
     1
  0
BLOCK_RECORD
  5
1F
330
1
100
AcDbSymbolTableRecord
100
AcDbBlockTableRecord
  2
*Model_Space
340
22
  0
BLOCK_RECORD
  5
1B
330
1
100
AcDbSymbolTableRecord
100
AcDbBlockTableRecord
  2
*Paper_Space
340
1E
  0
BLOCK_RECORD
  5
23
330
1
100
AcDbSymbolTableRecord
100
AcDbBlockTableRecord
  2
*Paper_Space0
340
26
  0
ENDTAB
  0
ENDSEC
  0
SECTION
  2
BLOCKS
  0
BLOCK
  5
20
330
1F
100
AcDbEntity
  8
0
100
AcDbBlockBegin
  2
*Model_Space
 70
     0
 10
0.0
 20
0.0
 30
0.0
  3
*Model_Space
  1

  0
ENDBLK
  5
21
330
1F
100
AcDbEntity
  8
0
100
AcDbBlockEnd
  0
BLOCK
  5
1C
330
1B
100
AcDbEntity
 67
     1
  8
0
100
AcDbBlockBegin
  2
*Paper_Space
 70
     0
 10
0.0
 20
0.0
 30
0.0
  3
*Paper_Space
  1

  0
ENDBLK
  5
1D
330
1B
100
AcDbEntity
 67
     1
  8
0
100
AcDbBlockEnd
  0
BLOCK
  5
24
330
23
100
AcDbEntity
  8
0
100
AcDbBlockBegin
  2
*Paper_Space0
 70
     0
 10
0.0
 20
0.0
 30
0.0
  3
*Paper_Space0
  1

  0
ENDBLK
  5
25
330
23
100
AcDbEntity
  8
0
100
AcDbBlockEnd
  0
ENDSEC
  0
SECTION
  2
ENTITIES
  0
ARC
  5
70
330
1F
100
AcDbEntity
  8
0
  6
Continuous
 62
     7
370
    25
100
AcDbCircle
 10
34.8486726291
 20
94.0658862136
 30
0.0
 40
1.848672629104854
100
AcDbArc
 50
90.0
 51
182.4831379778
  0
ARC
  5
71
330
1F
100
AcDbEntity
  8
0
  6
Continuous
 62
     7
370
    25
100
AcDbCircle
 10
105.8724478589
 20
94.0658862136
 30
0.0
 40
1.84867262910484
100
AcDbArc
 50
357.5168620222
 51
90.0
  0
ARC
  5
72
330
1F
100
AcDbEntity
  8
0
  6
Continuous
 62
     7
370
    25
100
AcDbCircle
 10
-164.3849921341
 20
105.7858941038
 30
0.0
 40
272.360118702184
100
AcDbArc
 50
356.6912751629
 51
357.5168620222
  0
ARC
  5
73
330
1F
100
AcDbEntity
  8
0
  6
Continuous
 62
     7
370
    25
100
AcDbCircle
 10
-164.3849921341
 20
105.7858941038
 30
0.0
 40
272.360118702184
100
AcDbArc
 50
346.8315361818
 51
353.3906553521
  0
ARC
  5
74
330
1F
100
AcDbEntity
  8
0
  6
Continuous
 62
     7
370
    25
100
AcDbCircle
 10
-164.3849921341
 20
105.7858941038
 30
0.0
 40
272.360118702184
100
AcDbArc
 50
341.4961497049
 51
343.1523989099
  0
ARC
  5
75
330
1F
100
AcDbEntity
  8
0
  6
Continuous
 62
     7
370
    25
100
AcDbCircle
 10
305.1061126222
 20
105.7858941038
 30
0.0
 40
272.360118702184
100
AcDbArc
 50
182.4831379778
 51
198.5038502951
  0
ARC
  5
76
330
1F
100
AcDbEntity
  8
0
  6
Continuous
 62
     7
370
    25
100
AcDbCircle
 10
92.1416424926
 20
19.9341137864
 30
0.0
 40
1.848672629104851
100
AcDbArc
 50
270.0
 51
341.4961497049
  0
ARC
  5
77
330
1F
100
AcDbEntity
  8
0
  6
Continuous
 62
     7
370
    25
100
AcDbCircle
 10
48.5794779955
 20
19.9341137864
 30
0.0
 40
1.848672629104844
100
AcDbArc
 50
198.5038502951
 51
270.0
  0
SPLINE
  5
78
330
1F
100
AcDbEntity
  8
0
  6
Continuous
 62
     7
370
    25
100
AcDbSpline
210
0.0
220
0.0
230
1.0
 70
     8
 71
     3
 72
    11
 73
     7
 74
     0
 42
0.00000001
 43
0.00000001
 40
0.0
 40
0.0
 40
0.0
 40
0.0
 40
0.2477299649234019
 40
0.5000747750268224
 40
0.7523825774654446
 40
0.9999999999999999
 40
0.9999999999999999
 40
0.9999999999999999
 40
0.9999999999999999
 10
106.1649877151378
 20
74.43747299283685
 30
0.0
 10
106.2050193740004
 20
74.67014800934166
 30
0.0
 10
106.2858284226993
 20
75.13983243596714
 30
0.0
 10
106.5777763542381
 20
75.7991137275686
 30
0.0
 10
106.9764031204507
 20
76.40004424454112
 30
0.0
 10
107.3290867887981
 20
76.72122156787303
 30
0.0
 10
107.5037741551554
 20
76.88030356055357
 30
0.0
  0
SPLINE
  5
79
330
1F
100
AcDbEntity
  8
0
  6
Continuous
 62
     7
370
    25
100
AcDbSpline
210
0.0
220
0.0
230
1.0
 70
     8
 71
     3
 72
    11
 73
     7
 74
     0
 42
0.00000001
 43
0.00000001
 40
0.0
 40
0.0
 40
0.0
 40
0.0
 40
0.2461418496472106
 40
0.5000001956564961
 40
0.7538584438337196
 40
1.0
 40
1.0
 40
1.0
 40
1.0
 10
96.28509831288191
 20
26.84834515110613
 30
0.0
 10
96.39226599276273
 20
27.12944619273656
 30
0.0
 10
96.60996103724732
 20
27.70046073583804
 30
0.0
 10
97.19317725343794
 20
28.42336757583859
 30
0.0
 10
97.91961637940283
 20
29.00217826165616
 30
0.0
 10
98.49194457199492
 20
29.21639831992436
 30
0.0
 10
98.77369218617133
 20
29.32185527819938
 30
0.0
  0
SPLINE
  5
7A
330
1F
100
AcDbEntity
  8
0
  6
Continuous
 62
     7
370
    25
100
AcDbSpline
210
0.0
220
0.0
230
1.0
 70
     8
 71
     3
 72
    17
 73
    13
 74
     0
 42
0.00000001
 43
0.00000001
 40
0.0
 40
0.0
 40
0.0
 40
0.0
 40
0.0998118878792436
 40
0.1944302011530397
 40
0.2806280332161089
 40
0.3558903945239443
 40
0.4704085222953342
 40
0.5674574877726069
 40
0.6558321134633593
 40
0.7474393764329469
 40
0.8637338322697662
 40
1.0
 40
1.0
 40
1.0
 40
1.0
 10
112.0896006140171
 20
86.26135450232435
 30
0.0
 10
111.8625720524725
 20
86.21871580908339
 30
0.0
 10
111.4203280490125
 20
86.13565706848755
 30
0.0
 10
110.7681885559349
 20
86.16587412559117
 30
0.0
 10
110.1875324294467
 20
86.28565682786548
 30
0.0
 10
109.5890113896853
 20
86.50925105173982
 30
0.0
 10
109.0148320634996
 20
86.84920197430789
 30
0.0
 10
108.498004639388
 20
87.31557654514636
 30
0.0
 10
108.1052076726546
 20
87.8163670217497
 30
0.0
 10
107.7805591359206
 20
88.41491768594493
 30
0.0
 10
107.5320904520329
 20
89.18437230293958
 30
0.0
 10
107.5249481793927
 20
89.75732607433923
 30
0.0
 10
107.5210946486727
 20
90.06645666489818
 30
0.0
  0
SPLINE
  5
7B
330
1F
100
AcDbEntity
  8
0
  6
Continuous
 62
     7
370
    25
100
AcDbSpline
210
0.0
220
0.0
230
1.0
 70
     8
 71
     3
 72
    43
 73
    39
 74
     0
 42
0.00000001
 43
0.00000001
 40
0.0
 40
0.0
 40
0.0
 40
0.0
 40
0.0338982393022956
 40
0.0726659993608694
 40
0.1095280099033488
 40
0.1543603850795749
 40
0.1965069370352658
 40
0.2360876503579211
 40
0.2731462646138079
 40
0.3078725760000657
 40
0.340681205532241
 40
0.3715616334592574
 40
0.4051329452343277
 40
0.4360256635946655
 40
0.4641922622370435
 40
0.4903850954054992
 40
0.5163500370357792
 40
0.5420377608076393
 40
0.5673606694507973
 40
0.5910017409278089
 40
0.6206281948662836
 40
0.6496084403163748
 40
0.6784303996310544
 40
0.7073181520628768
 40
0.7358464904428483
 40
0.7640628553930631
 40
0.7792203658406555
 40
0.7967016473379498
 40
0.8165493670085991
 40
0.8330152348904993
 40
0.8508724427849399
 40
0.8701901196172542
 40
0.8910840299038547
 40
0.913662514246286
 40
0.9380727106918564
 40
0.9645251103981802
 40
0.9932860125865253
 40
1.0
 40
1.0
 40
1.0
 40
1.0
 10
98.76996336248511
 20
29.34264755830931
 30
0.0
 10
99.70310549827683
 20
29.63347840039813
 30
0.0
 10
101.7034367024538
 20
30.25691826690226
 30
0.0
 10
104.5991460451728
 20
31.52772414663758
 30
0.0
 10
107.678936103071
 20
33.13269197507245
 30
0.0
 10
110.7087785859162
 20
35.0264620051824
 30
0.0
 10
113.6592095609726
 20
37.17401154642022
 30
0.0
 10
116.3046927351342
 20
39.34875551652049
 30
0.0
 10
118.6848746755839
 20
41.50252008701814
 30
0.0
 10
120.8437859082988
 20
43.60677115995408
 30
0.0
 10
122.7858418666594
 20
45.67487286806202
 30
0.0
 10
124.6044740410231
 20
47.80882576106468
 30
0.0
 10
126.2703919489129
 20
49.99574623817965
 30
0.0
 10
127.7574071563557
 20
52.21439414797724
 30
0.0
 10
129.0021287276976
 20
54.33394430582549
 30
0.0
 10
130.0594270594531
 20
56.39436615730343
 30
0.0
 10
130.9646078671571
 20
58.44840981828001
 30
0.0
 10
131.725710221088
 20
60.53370339105636
 30
0.0
 10
132.3169604047984
 20
62.60422916646324
 30
0.0
 10
132.7691297468028
 20
64.82550438288766
 30
0.0
 10
133.0233843814976
 20
67.18694299349093
 30
0.0
 10
132.9996534575922
 20
69.71235029114325
 30
0.0
 10
132.6578674170755
 20
72.19443851713274
 30
0.0
 10
131.9869667894571
 20
74.59484506020057
 30
0.0
 10
131.024254897122
 20
76.8737783869008
 30
0.0
 10
129.9807464125147
 20
78.67064953497672
 30
0.0
 10
128.9575674124475
 20
80.09617081676595
 30
0.0
 10
127.9872789832694
 20
81.25848487572135
 30
0.0
 10
126.8928602577968
 20
82.35969186047065
 30
0.0
 10
125.6987573867899
 20
83.36758279832976
 30
0.0
 10
124.4349417728678
 20
84.2612622935087
 30
0.0
 10
122.9799311439913
 20
85.09335584304388
 30
0.0
 10
121.3187116284291
 20
85.82041504673155
 30
0.0
 10
119.4411159723724
 20
86.38570117555828
 30
0.0
 10
117.3447775437833
 20
86.72958534467037
 30
0.0
 10
115.0459850231192
 20
86.75711541398324
 30
0.0
 10
113.2592843795756
 20
86.56164266975256
 30
0.0
 10
112.2731278484221
 20
86.29118555181678
 30
0.0
 10
112.0864875907019
 20
86.2399987629053
 30
0.0
  0
SPLINE
  5
7C
330
1F
100
AcDbEntity
  8
0
  6
Continuous
 62
     7
370
    25
100
AcDbSpline
210
0.0
220
0.0
230
1.0
 70
     8
 71
     3
 72
    41
 73
    37
 74
     0
 42
0.00000001
 43
0.00000001
 40
0.0
 40
0.0
 40
0.0
 40
0.0
 40
0.0159051836301325
 40
0.0389030998334663
 40
0.0589315867210643
 40
0.0844889572836345
 40
0.105627959553305
 40
0.1284019153062711
 40
0.1462845990296063
 40
0.1614659121982865
 40
0.1849951279842491
 40
0.2100330490050432
 40
0.2359274202913973
 40
0.2623196563169903
 40
0.2889762195682233
 40
0.3152067207671671
 40
0.3407393872676438
 40
0.3647967070323301
 40
0.3940840945031872
 40
0.4210448152691496
 40
0.4471316785412812
 40
0.4662605117286856
 40
0.4850033691524204
 40
0.5045551137388271
 40
0.5305655064898546
 40
0.5614667516671477
 40
0.597189136749142
 40
0.6373186740154951
 40
0.6814916765990396
 40
0.7299459551737967
 40
0.7830389398185781
 40
0.8411022088225707
 40
0.9039227858125594
 40
0.947955019815657
 40
0.9936151404758319
 40
1.0
 40
1.0
 40
1.0
 40
1.0
 10
107.5098785568121
 20
76.8720265822582
 30
0.0
 10
107.7698503401856
 20
77.08600799931521
 30
0.0
 10
108.4057253151403
 20
77.60939337001314
 30
0.0
 10
109.4343923070019
 20
78.31827526593813
 30
0.0
 10
110.6863092437923
 20
79.05477698359678
 30
0.0
 10
111.9695792060299
 20
79.65271591083851
 30
0.0
 10
113.3670659294138
 20
80.11863421875096
 30
0.0
 10
114.6536863231931
 20
80.37658490733803
 30
0.0
 10
115.8354236100827
 20
80.45782807450034
 30
0.0
 10
117.0340878660442
 20
80.40675260951136
 30
0.0
 10
118.3681733185087
 20
80.16552943588836
 30
0.0
 10
119.8572192335372
 20
79.62679333209303
 30
0.0
 10
121.2880801719505
 20
78.81757007706999
 30
0.0
 10
122.6018627368482
 20
77.7752477589436
 30
0.0
 10
123.7570616852923
 20
76.55091650025234
 30
0.0
 10
124.7289433159807
 20
75.199869365112
 30
0.0
 10
125.4974055574207
 20
73.78645561396625
 30
0.0
 10
126.1187269998611
 20
72.23345700456515
 30
0.0
 10
126.5451464192847
 20
70.58125226190907
 30
0.0
 10
126.7257403532137
 20
68.84268647568561
 30
0.0
 10
126.6974952872227
 20
67.31217250728416
 30
0.0
 10
126.5509808972124
 20
65.96539129438558
 30
0.0
 10
126.3382913067173
 20
64.7679574816113
 30
0.0
 10
126.018610597312
 20
63.44425253551615
 30
0.0
 10
125.5366310453839
 20
61.89795714566129
 30
0.0
 10
124.8214563027412
 20
60.07067335315378
 30
0.0
 10
123.8482116947293
 20
58.02952220188268
 30
0.0
 10
122.5949879048348
 20
55.81737451512134
 30
0.0
 10
121.0324933810549
 20
53.47900187629114
 30
0.0
 10
119.133379026908
 20
51.0456173680122
 30
0.0
 10
116.8738093676773
 20
48.53090572092946
 30
0.0
 10
114.2451751288371
 20
45.95045378354557
 30
0.0
 10
111.6365590967702
 20
43.62682093287497
 30
0.0
 10
109.0952505786825
 20
41.63729469404869
 30
0.0
 10
107.4542321388892
 20
40.42985272885531
 30
0.0
 10
106.511679567693
 20
39.85964744558284
 30
0.0
 10
106.3960475559232
 20
39.7896948657041
 30
0.0
  0
SPLINE
  5
7D
330
1F
100
AcDbEntity
  8
0
  6
Continuous
 62
     7
370
    25
100
AcDbSpline
210
0.0
220
0.0
230
1.0
 70
     8
 71
     3
 72
    18
 73
    14
 74
     0
 42
0.00000001
 43
0.00000001
 40
0.0
 40
0.0
 40
0.0
 40
0.0
 40
0.1356857486563879
 40
0.2622289610647062
 40
0.3664728403280977
 40
0.4456747366429407
 40
0.5482996899585193
 40
0.6123537715531144
 40
0.6835315410995388
 40
0.7601542018074001
 40
0.840053119780584
 40
0.9207950057829698
 40
1.0
 40
1.0
 40
1.0
 40
1.0
 10
106.4206304186531
 20
39.79102488738697
 30
0.0
 10
106.0662886206865
 20
39.60626494098331
 30
0.0
 10
105.3814806547602
 20
39.24919421490067
 30
0.0
 10
104.2899121631164
 20
39.15680844566539
 30
0.0
 10
103.3914044980646
 20
39.31181378145586
 30
0.0
 10
102.6148429173444
 20
39.63271277940683
 30
0.0
 10
102.0188760885859
 20
40.04672709487954
 30
0.0
 10
101.5360144844338
 20
40.54912486426546
 30
0.0
 10
101.1823440210457
 20
41.06016316795854
 30
0.0
 10
100.903130547223
 20
41.66786435670429
 30
0.0
 10
100.7364130794267
 20
42.34359286159292
 30
0.0
 10
100.6911097048248
 20
43.04887710032147
 30
0.0
 10
100.772845899277
 20
43.51005081265514
 30
0.0
 10
100.8133213046117
 20
43.73842201419611
 30
0.0
  0
LINE
  5
7E
330
1F
100
AcDbEntity
  8
0
  6
Continuous
 62
     7
370
    25
100
AcDbLine
 10
34.8486726291
 20
95.9145588427
 30
0.0
 11
105.872447857
 21
95.9145588427
 31
0.0
  0
LINE
  5
7F
330
1F
100
AcDbEntity
  8
0
  6
Continuous
 62
     7
370
    25
100
AcDbLine
 10
92.1416424926
 20
18.0854411573
 30
0.0
 11
48.5794780026
 21
18.0854411573
 31
0.0
  0
LINE
  5
80
330
1F
100
AcDbEntity
  8
0
  6
HIDDEN
 62
     7
370
    18
100
AcDbLine
 10
54.7758072452
 20
23.8163263076
 30
0.0
 11
85.9453132444
 21
23.8163263076
 31
0.0
  0
SPLINE
  5
81
330
1F
100
AcDbEntity
  8
0
  6
HIDDEN
 62
     7
370
    18
100
AcDbSpline
210
0.0
220
0.0
230
1.0
 70
     8
 71
     3
 72
     9
 73
     5
 74
     0
 42
0.00000001
 43
0.00000001
 40
0.0
 40
0.0
 40
0.0
 40
0.0
 40
0.0175859188412361
 40
1.0
 40
1.0
 40
1.0
 40
1.0
 10
107.5038147387589
 20
76.87957074326914
 30
0.0
 10
107.5038181118626
 20
76.87951491483122
 30
0.0
 10
107.5040099189357
 20
76.87634030459762
 30
0.0
 10
107.503634552599
 20
76.8825958470119
 30
0.0
 10
107.5032657874242
 20
76.888741379965
 30
0.0
  0
ARC
  5
82
330
1F
100
AcDbEntity
  8
0
  6
HIDDEN
 62
     7
370
    18
100
AcDbCircle
 10
36.8841382755
 20
94.0658862136
 30
0.0
 40
1.848672629104854
100
AcDbArc
 50
2.5019579997
 51
90.0
  0
ARC
  5
83
330
1F
100
AcDbEntity
  8
0
  6
HIDDEN
 62
     7
370
    18
100
AcDbCircle
 10
103.8369822125
 20
94.0658862136
 30
0.0
 40
1.84867262910484
100
AcDbArc
 50
90.0
 51
177.4980420003
  0
ARC
  5
84
330
1F
100
AcDbEntity
  8
0
  6
HIDDEN
 62
     7
370
    18
100
AcDbCircle
 10
-164.3849921341
 20
105.7858941038
 30
0.0
 40
266.629233551959
100
AcDbArc
 50
342.8297239337
 51
357.4980420003
  0
ARC
  5
85
330
1F
100
AcDbEntity
  8
0
  6
HIDDEN
 62
     7
370
    18
100
AcDbCircle
 10
305.1061126222
 20
105.7858941038
 30
0.0
 40
266.629233551959
100
AcDbArc
 50
182.5019579997
 51
197.1702760663
  0
ARC
  5
86
330
1F
100
AcDbEntity
  8
0
  6
HIDDEN
 62
     7
370
    18
100
AcDbCircle
 10
85.9453132444
 20
28.4380078803
 30
0.0
 40
4.621681572762117
100
AcDbArc
 50
270.0
 51
342.8297239337
  0
ARC
  5
87
330
1F
100
AcDbEntity
  8
0
  6
HIDDEN
 62
     7
370
    18
100
AcDbCircle
 10
54.7758072437
 20
28.4380078803
 30
0.0
 40
4.621681572762109
100
AcDbArc
 50
197.1702760663
 51
270.0
  0
CIRCLE
  5
88
330
1F
100
AcDbEntity
  8
0
  6
Continuous
 62
     7
370
    25
100
AcDbCircle
 10
70.360560244
 20
158.0
 30
0.0
 40
37.36056024401462
  0
SPLINE
  5
89
330
1F
100
AcDbEntity
  8
0
  6
Continuous
 62
     7
370
    25
100
AcDbSpline
210
0.0
220
0.0
230
1.0
 70
     8
 71
     3
 72
    16
 73
    12
 74
     0
 42
0.00000001
 43
0.00000001
 40
0.0
 40
0.0
 40
0.0
 40
0.0
 40
0.1732000536030599
 40
0.3239849053772925
 40
0.4486835597580877
 40
0.5455181830698334
 40
0.614979638847252
 40
0.6790392355204481
 40
0.7548406129291949
 40
0.8479549193972041
 40
1.0
 40
1.0
 40
1.0
 40
1.0
 10
109.4505575990958
 20
164.0081968142564
 30
0.0
 10
109.2284656830806
 20
164.0198520419126
 30
0.0
 10
108.8130245391641
 20
164.0416541011544
 30
0.0
 10
108.2579656177074
 20
164.196171907867
 30
0.0
 10
107.8232336307854
 20
164.3830522834639
 30
0.0
 10
107.5098488494061
 20
164.5649026655729
 30
0.0
 10
107.283150158707
 20
164.7254199062948
 30
0.0
 10
107.1319224950199
 20
164.8498666620492
 30
0.0
 10
107.0277402998896
 20
164.9410136558208
 30
0.0
 10
106.9392260146271
 20
165.0171026860153
 30
0.0
 10
106.9277517332469
 20
164.9903075236479
 30
0.0
 10
106.920635513639
 20
164.9736894668376
 30
0.0
  0
SPLINE
  5
8A
330
1F
100
AcDbEntity
  8
0
  6
Continuous
 62
     7
370
    25
100
AcDbSpline
210
0.0
220
0.0
230
1.0
 70
     8
 71
     3
 72
    13
 73
     9
 74
     0
 42
0.00000001
 43
0.00000001
 40
0.0
 40
0.0
 40
0.0
 40
0.0
 40
0.0524599477299743
 40
0.2645541429753978
 40
0.4465839242283769
 40
0.6044795965309049
 40
0.7451888521121056
 40
0.9999999999999999
 40
0.9999999999999999
 40
0.9999999999999999
 40
0.9999999999999999
 10
107.0646876757198
 20
151.3068623917958
 30
0.0
 10
107.080327686925
 20
151.3123820638324
 30
0.0
 10
107.1591998539698
 20
151.3402176254052
 30
0.0
 10
107.395674922356
 20
151.4588446363672
 30
0.0
 10
107.7501245786675
 20
151.6188671330774
 30
0.0
 10
108.1465964905383
 20
151.7699646969263
 30
0.0
 10
108.6803384314975
 20
151.9334240820362
 30
0.0
 10
109.1502928017099
 20
151.9689047811057
 30
0.0
 10
109.4530574921745
 20
151.9917629638404
 30
0.0
  0
SPLINE
  5
8B
330
1F
100
AcDbEntity
  8
0
  6
Continuous
 62
     7
370
    25
100
AcDbSpline
210
0.0
220
0.0
230
1.0
 70
    24
 71
     3
 72
     9
 73
     5
 74
     0
 42
0.00000001
 43
0.00000001
 40
0.0
 40
0.0
 40
0.0
 40
0.0
 40
0.0777510864859526
 40
1.0
 40
1.0
 40
1.0
 40
1.0
 10
129.8271420355834
 20
151.9918139554093
 30
0.0
 10
129.8302253575971
 20
151.9918139554093
 30
0.0
 10
129.8698816782101
 20
151.9918139554093
 30
0.0
 10
129.7732117374
 20
151.9918139554093
 30
0.0
 10
129.6840579895184
 20
151.9918139554092
 30
0.0
  0
SPLINE
  5
8C
330
1F
100
AcDbEntity
  8
0
  6
Continuous
 62
     7
370
    25
100
AcDbSpline
210
0.0
220
0.0
230
1.0
 70
    24
 71
     3
 72
    28
 73
    24
 74
     0
 42
0.00000001
 43
0.00000001
 40
0.0
 40
0.0
 40
0.0
 40
0.0
 40
0.0018857973330418
 40
0.0589111697841835
 40
0.1082802840893857
 40
0.1509802507507815
 40
0.2040784144665104
 40
0.2479048633606384
 40
0.2888363858912424
 40
0.3274243041684296
 40
0.3519735584140249
 40
0.3759093466599461
 40
0.4049555285529561
 40
0.4413646739151684
 40
0.4850958966928731
 40
0.5361809181459278
 40
0.5947285372047613
 40
0.6608569422845866
 40
0.7346046327293674
 40
0.7948923184100312
 40
0.8593310537249326
 40
0.9277666536687909
 40
0.9999999999999999
 40
0.9999999999999999
 40
0.9999999999999999
 40
0.9999999999999999
 10
109.4488133782434
 20
151.9918139554093
 30
0.0
 10
109.4638075682046
 20
151.9918139554093
 30
0.0
 10
109.9322170070675
 20
151.9918139554093
 30
0.0
 10
110.8523272787742
 20
151.9918139554092
 30
0.0
 10
112.1368918618928
 20
151.9918139554093
 30
0.0
 10
113.4261477928783
 20
151.9918139554092
 30
0.0
 10
114.6897201509585
 20
151.9918139554093
 30
0.0
 10
115.9495880474095
 20
151.9918139554092
 30
0.0
 10
117.0766799805869
 20
151.9918139554092
 30
0.0
 10
118.0199912626747
 20
151.9918139554093
 30
0.0
 10
118.7990389212936
 20
151.9918139554092
 30
0.0
 10
119.4839030792907
 20
151.9918139554093
 30
0.0
 10
120.260053796868
 20
151.9918139554092
 30
0.0
 10
121.1837294772023
 20
151.9918139554093
 30
0.0
 10
122.2512932750586
 20
151.9918139554093
 30
0.0
 10
123.4310406017327
 20
151.9918139554092
 30
0.0
 10
124.6820785466796
 20
151.9918139554093
 30
0.0
 10
125.9533039655259
 20
151.9918139554092
 30
0.0
 10
127.0652142298565
 20
151.9918139554093
 30
0.0
 10
127.9974873197419
 20
151.9918139554093
 30
0.0
 10
128.7383866161681
 20
151.9918139554092
 30
0.0
 10
129.3476551937516
 20
151.9918139554093
 30
0.0
 10
129.569923475719
 20
151.9918139554092
 30
0.0
 10
129.6840579895184
 20
151.9918139554093
 30
0.0
  0
SPLINE
  5
8D
330
1F
100
AcDbEntity
  8
0
  6
Continuous
 62
     7
370
    25
100
AcDbSpline
210
0.0
220
0.0
230
1.0
 70
    24
 71
     3
 72
     9
 73
     5
 74
     0
 42
0.00000001
 43
0.00000001
 40
0.0
 40
0.0
 40
0.0
 40
0.0
 40
0.8607712496383929
 40
1.0
 40
1.0
 40
1.0
 40
1.0
 10
129.6840579895184
 20
164.0081860445908
 30
0.0
 10
129.7670748536577
 20
164.0081860445907
 30
0.0
 10
129.8635195991974
 20
164.0081860445907
 30
0.0
 10
129.8258742034677
 20
164.0081860445908
 30
0.0
 10
129.8206328820634
 20
164.0081860445907
 30
0.0
  0
SPLINE
  5
8E
330
1F
100
AcDbEntity
  8
0
  6
Continuous
 62
     7
370
    25
100
AcDbSpline
210
0.0
220
0.0
230
1.0
 70
    24
 71
     3
 72
    28
 73
    24
 74
     0
 42
0.00000001
 43
0.00000001
 40
0.0
 40
0.0
 40
0.0
 40
0.0
 40
0.0671319359872164
 40
0.1303991356051351
 40
0.1896336947236183
 40
0.2447080880116278
 40
0.3115127173392448
 40
0.3706994756278778
 40
0.422264546778312
 40
0.4741518148683598
 40
0.5152410214662598
 40
0.5469234123425102
 40
0.5772605725298144
 40
0.6076200921171864
 40
0.6456807537991397
 40
0.6841918538548067
 40
0.714011732372823
 40
0.7494713811431732
 40
0.7909987790571205
 40
0.8392322462811179
 40
0.8951020727315011
 40
0.959925677279819
 40
1.0
 40
1.0
 40
1.0
 40
1.0
 10
129.6840579895184
 20
164.0081860445907
 30
0.0
 10
129.5795272492438
 20
164.0081860445907
 30
0.0
 10
129.3764835268256
 20
164.0081860445907
 30
0.0
 10
128.8353417836999
 20
164.0081860445907
 30
0.0
 10
128.1853535072856
 20
164.0081860445907
 30
0.0
 10
127.3773288380656
 20
164.0081860445908
 30
0.0
 10
126.4259145510474
 20
164.0081860445907
 30
0.0
 10
125.3537038317403
 20
164.0081860445907
 30
0.0
 10
124.2650825828583
 20
164.0081860445907
 30
0.0
 10
123.2137893217239
 20
164.0081860445907
 30
0.0
 10
122.2476483325727
 20
164.0081860445908
 30
0.0
 10
121.4135917761913
 20
164.0081860445908
 30
0.0
 10
120.6420672718344
 20
164.0081860445907
 30
0.0
 10
119.7948924715747
 20
164.0081860445907
 30
0.0
 10
118.8541766000024
 20
164.0081860445907
 30
0.0
 10
117.8986011064511
 20
164.0081860445908
 30
0.0
 10
116.9556637935501
 20
164.0081860445907
 30
0.0
 10
115.9792061281334
 20
164.0081860445908
 30
0.0
 10
114.8339040496358
 20
164.0081860445908
 30
0.0
 10
113.5121331608415
 20
164.0081860445907
 30
0.0
 10
112.010818530694
 20
164.0081860445907
 30
0.0
 10
110.6216523070555
 20
164.0081860445908
 30
0.0
 10
109.7642500637487
 20
164.0081860445907
 30
0.0
 10
109.4366953151087
 20
164.0081860445907
 30
0.0
  0
SPLINE
  5
8F
330
1F
100
AcDbEntity
  8
0
  6
Continuous
 62
     7
370
    25
100
AcDbSpline
210
0.0
220
0.0
230
1.0
 70
     8
 71
     3
 72
    23
 73
    19
 74
     0
 42
0.00000001
 43
0.00000001
 40
0.0
 40
0.0
 40
0.0
 40
0.0
 40
0.0567524168460154
 40
0.1127375733035323
 40
0.17031653046211
 40
0.2299137064778706
 40
0.2894151089513246
 40
0.3452359731820978
 40
0.3939527471523809
 40
0.4434375507532077
 40
0.5058843789376357
 40
0.5799172849537894
 40
0.6614718677493483
 40
0.7441697675802676
 40
0.8212683528929705
 40
0.8886494594677092
 40
0.9468302744277002
 40
1.0
 40
1.0
 40
1.0
 40
1.0
 10
129.6840579895184
 20
151.9918139554093
 30
0.0
 10
129.9019532954986
 20
152.0094141453249
 30
0.0
 10
130.3347980868858
 20
152.0443765806015
 30
0.0
 10
130.991378526861
 20
152.3867846466385
 30
0.0
 10
131.5769252644401
 20
152.9466746147104
 30
0.0
 10
132.060309094522
 20
153.6809169199025
 30
0.0
 10
132.4273018225772
 20
154.5049617165427
 30
0.0
 10
132.6816900035714
 20
155.334302780846
 30
0.0
 10
132.8522759496594
 20
156.1477105463161
 30
0.0
 10
132.966329875957
 20
157.0070548765635
 30
0.0
 10
133.0167809833186
 20
158.0006279736264
 30
0.0
 10
132.9640706652351
 20
159.1591044967517
 30
0.0
 10
132.7635165728253
 20
160.4040362756395
 30
0.0
 10
132.3906150977912
 20
161.617290842315
 30
0.0
 10
131.8506276720493
 20
162.6729281396932
 30
0.0
 10
131.1785735582848
 20
163.4576104754084
 30
0.0
 10
130.4231754985816
 20
163.9335244601896
 30
0.0
 10
129.9229262824835
 20
163.9840568838047
 30
0.0
 10
129.6840579895184
 20
164.0081860445907
 30
0.0
  0
SPLINE
  5
90
330
1F
100
AcDbEntity
  8
0
  6
HIDDEN
 62
     7
370
    18
100
AcDbSpline
210
0.0
220
0.0
230
1.0
 70
     8
 71
     3
 72
    23
 73
    19
 74
     0
 42
0.00000001
 43
0.00000001
 40
0.0
 40
0.0
 40
0.0
 40
0.0
 40
0.0215317182930759
 40
0.0565943868084727
 40
0.0948842624797911
 40
0.1702288861427061
 40
0.2437575508391204
 40
0.314164115230306
 40
0.381342209075999
 40
0.4515535713630384
 40
0.5353905963605794
 40
0.5982962652382452
 40
0.6672962749524266
 40
0.7419174827459729
 40
0.8010981810489467
 40
0.8638966680671286
 40
0.9302145436498563
 40
1.0
 40
1.0
 40
1.0
 40
1.0
 10
106.920635513639
 20
164.9736894668376
 30
0.0
 10
106.909460685366
 20
164.9740364584716
 30
0.0
 10
106.880088549562
 20
164.9749484980257
 30
0.0
 10
106.8997040359769
 20
164.8365149082516
 30
0.0
 10
106.9358348242052
 20
164.5618243612748
 30
0.0
 10
107.017752061543
 20
164.0437752707814
 30
0.0
 10
107.1514531897219
 20
163.2038027447946
 30
0.0
 10
107.2915656061351
 20
162.2148034330931
 30
0.0
 10
107.4220076522843
 20
161.1100817960003
 30
0.0
 10
107.5299887516046
 20
159.8578168538978
 30
0.0
 10
107.580187665251
 20
158.5966119961488
 30
0.0
 10
107.5782064991386
 20
157.3350426176115
 30
0.0
 10
107.5308829704339
 20
156.1370794799786
 30
0.0
 10
107.4377672619665
 20
154.9910362674174
 30
0.0
 10
107.3095307796002
 20
153.9301619020178
 30
0.0
 10
107.1580206547561
 20
152.9795570203365
 30
0.0
 10
106.9737008054449
 20
152.0598360457088
 30
0.0
 10
106.8379944977637
 20
151.5514508762319
 30
0.0
 10
106.7684126111439
 20
151.2907820847354
 30
0.0
  0
LINE
  5
91
330
1F
100
AcDbEntity
  8
0
  6
HIDDEN
 62
     7
370
    18
100
AcDbLine
 10
106.7684240833
 20
151.2908054529
 30
0.0
 11
106.820636728
 21
151.2672551235
 31
0.0
  0
LINE
  5
92
330
1F
100
AcDbEntity
  8
0
  6
HIDDEN
 62
     7
370
    18
100
AcDbLine
 10
106.8822721542
 20
151.2394546818
 30
0.0
 11
107.0646876757
 21
151.3068623918
 31
0.0
  0
SPLINE
  5
93
330
1F
100
AcDbEntity
  8
0
  6
HIDDEN
 62
     7
370
    18
100
AcDbSpline
210
0.0
220
0.0
230
1.0
 70
    24
 71
     3
 72
    11
 73
     7
 74
     0
 42
0.00000001
 43
0.00000001
 40
0.0
 40
0.0
 40
0.0
 40
0.0
 40
0.2888872185786573
 40
0.6264627576460512
 40
0.9627586374364678
 40
1.0
 40
1.0
 40
1.0
 40
1.0
 10
100.4742720930459
 20
151.9918139554092
 30
0.0
 10
101.3752811641986
 20
151.9918139554093
 30
0.0
 10
103.3291530944125
 20
151.9918139554093
 30
0.0
 10
106.167708721905
 20
151.9918139554093
 30
0.0
 10
108.2262935035747
 20
151.9918139554093
 30
0.0
 10
109.2296827536198
 20
151.9918139554092
 30
0.0
 10
109.3297198546536
 20
151.9918139554092
 30
0.0
  0
SPLINE
  5
94
330
1F
100
AcDbEntity
  8
0
  6
HIDDEN
 62
     7
370
    18
100
AcDbSpline
210
0.0
220
0.0
230
1.0
 70
    24
 71
     3
 72
    11
 73
     7
 74
     0
 42
0.00000001
 43
0.00000001
 40
0.0
 40
0.0
 40
0.0
 40
0.0
 40
0.1857752870346629
 40
0.474460670894564
 40
0.7719061408489774
 40
1.0
 40
1.0
 40
1.0
 40
1.0
 10
109.3176017915189
 20
164.0081860445908
 30
0.0
 10
108.8057892308921
 20
164.0081860445908
 30
0.0
 10
107.4986458817233
 20
164.0081860445907
 30
0.0
 10
105.2617597516251
 20
164.0081860445908
 30
0.0
 10
102.8345916608979
 20
164.0081860445907
 30
0.0
 10
101.194699329062
 20
164.0081860445908
 30
0.0
 10
100.482955507344
 20
164.0081860445908
 30
0.0
  0
SPLINE
  5
95
330
1F
100
AcDbEntity
  8
0
  6
HIDDEN
 62
     7
370
    18
100
AcDbSpline
210
0.0
220
0.0
230
1.0
 70
     8
 71
     3
 72
    23
 73
    19
 74
     0
 42
0.00000001
 43
0.00000001
 40
0.0
 40
0.0
 40
0.0
 40
0.0
 40
0.0525571272256226
 40
0.105926239852903
 40
0.1622283980513754
 40
0.2215522937796748
 40
0.2815093065724257
 40
0.338310680694506
 40
0.3882684766850703
 40
0.438987061671819
 40
0.5026420864993898
 40
0.5778235545203534
 40
0.66051146489706
 40
0.7443318829111362
 40
0.8224504656824723
 40
0.8905047424025601
 40
0.9485220229219463
 40
1.0
 40
1.0
 40
1.0
 40
1.0
 10
129.6840579895185
 20
151.9918139554093
 30
0.0
 10
129.519763009353
 20
152.0100828579741
 30
0.0
 10
129.1886347610198
 20
152.0469029099268
 30
0.0
 10
128.6195891564805
 20
152.3930120070684
 30
0.0
 10
128.0850510784475
 20
152.9525336441279
 30
0.0
 10
127.6242981934761
 20
153.6857860980701
 30
0.0
 10
127.2653754707809
 20
154.5090267768381
 30
0.0
 10
127.0128493079692
 20
155.3377772438068
 30
0.0
 10
126.8442568566553
 20
156.1473835343276
 30
0.0
 10
126.7340160002547
 20
157.0043472311092
 30
0.0
 10
126.6867121072932
 20
157.9986819485759
 30
0.0
 10
126.7400757433061
 20
159.1581605099928
 30
0.0
 10
126.9345905925894
 20
160.4038988494938
 30
0.0
 10
127.2899538030093
 20
161.6171130727554
 30
0.0
 10
127.7957430233088
 20
162.6717490491828
 30
0.0
 10
128.4081333496854
 20
163.4530468037052
 30
0.0
 10
129.0722090108497
 20
163.9297025821678
 30
0.0
 10
129.4883934881332
 20
163.983087649272
 30
0.0
 10
129.6840579895184
 20
164.0081860445907
 30
0.0
  0
SPLINE
  5
96
330
1F
100
AcDbEntity
  8
0
  6
HIDDEN
 62
     7
370
    18
100
AcDbSpline
210
0.0
220
0.0
230
1.0
 70
     8
 71
     3
 72
    29
 73
    25
 74
     0
 42
0.00000001
 43
0.00000001
 40
0.0
 40
0.0
 40
0.0
 40
0.0
 40
0.0467451816627173
 40
0.0829450868024449
 40
0.1072443875767615
 40
0.1300665510090354
 40
0.1746728177415121
 40
0.2251270358198353
 40
0.2837920038000537
 40
0.3432543124815763
 40
0.3972430260145648
 40
0.4458083170413969
 40
0.4958661098168032
 40
0.5492563827036419
 40
0.6006237560035234
 40
0.646539174636745
 40
0.6681987463498777
 40
0.6945022801489896
 40
0.7272040881630705
 40
0.7668104172197653
 40
0.8135215955081694
 40
0.8675991313974212
 40
0.9297223842417396
 40
1.0
 40
1.0
 40
1.0
 40
1.0
 10
100.4418935380072
 20
164.0081820594106
 30
0.0
 10
100.2123314834283
 20
164.0220047384601
 30
0.0
 10
99.80499443036081
 20
164.0465318292278
 30
0.0
 10
99.34111986475456
 20
164.2123307134425
 30
0.0
 10
99.12055380511897
 20
164.3221232537892
 30
0.0
 10
98.94687494191339
 20
164.4284328409821
 30
0.0
 10
98.87539334778477
 20
164.4908473274928
 30
0.0
 10
98.9904327873602
 20
164.368476659485
 30
0.0
 10
99.25377714988626
 20
163.9989336460283
 30
0.0
 10
99.54158270461843
 20
163.4829558376719
 30
0.0
 10
99.79142585063693
 20
162.927841640812
 30
0.0
 10
100.0161986004858
 20
162.3360116875558
 30
0.0
 10
100.2441274173324
 20
161.615925296327
 30
0.0
 10
100.4521142156263
 20
160.7577405568921
 30
0.0
 10
100.6059607662117
 20
159.838147253714
 30
0.0
 10
100.6813626618393
 20
159.0667222972255
 30
0.0
 10
100.7120267800034
 20
158.4442991789808
 30
0.0
 10
100.7203132080127
 20
157.9047011557074
 30
0.0
 10
100.7029211418568
 20
157.2483972494954
 30
0.0
 10
100.6426167668335
 20
156.4740441584241
 30
0.0
 10
100.5214604479962
 20
155.6023106706311
 30
0.0
 10
100.3232859391398
 20
154.6667493788802
 30
0.0
 10
100.0400398528218
 20
153.6948242952801
 30
0.0
 10
99.79691934992096
 20
153.1174890952031
 30
0.0
 10
99.66787239225253
 20
152.8110429080824
 30
0.0
  0
SPLINE
  5
97
330
1F
100
AcDbEntity
  8
0
  6
HIDDEN
 62
     7
370
    18
100
AcDbSpline
210
0.0
220
0.0
230
1.0
 70
     8
 71
     3
 72
    15
 73
    11
 74
     0
 42
0.00000001
 43
0.00000001
 40
0.0
 40
0.0
 40
0.0
 40
0.0
 40
0.2076519006448745
 40
0.3756569389764093
 40
0.5046441624753986
 40
0.5957005498896422
 40
0.6605876922003248
 40
0.7507093171893927
 40
0.8686556883550967
 40
0.9999999999999999
 40
0.9999999999999999
 40
0.9999999999999999
 40
0.9999999999999999
 10
99.73495644517608
 20
152.9486924522988
 30
0.0
 10
99.62111910909526
 20
152.7005108579158
 30
0.0
 10
99.41517933642503
 20
152.2515328434276
 30
0.0
 10
99.15448064453696
 20
151.8372944933688
 30
0.0
 10
98.99260584708142
 20
151.6218457897291
 30
0.0
 10
98.9121823373764
 20
151.54041413094
 30
0.0
 10
99.00631487333308
 20
151.6127138783724
 30
0.0
 10
99.32576676580895
 20
151.7943181584758
 30
0.0
 10
99.81215001032997
 20
151.9563617623599
 30
0.0
 10
100.2227096709757
 20
151.9795824219552
 30
0.0
 10
100.4390221115719
 20
151.991816740206
 30
0.0
  0
SPLINE
  5
98
330
1F
100
AcDbEntity
  8
0
  6
Continuous
 62
     7
370
    25
100
AcDbSpline
210
0.0
220
0.0
230
1.0
 70
    24
 71
     3
 72
    38
 73
    34
 74
     0
 42
0.00000001
 43
0.00000001
 40
0.0
 40
0.0
 40
0.0
 40
0.0
 40
0.0351326609381109
 40
0.0778611903525611
 40
0.1187975276346321
 40
0.1580489230887551
 40
0.2048102362691131
 40
0.249020224988535
 40
0.2906467639053675
 40
0.3297501907003266
 40
0.3780380496913468
 40
0.4220293369819363
 40
0.4618249481026281
 40
0.4975152745372259
 40
0.5315506449057207
 40
0.565220593184189
 40
0.5982616958894792
 40
0.6287565965204245
 40
0.6573958913934826
 40
0.6853594465169346
 40
0.7133585773068215
 40
0.7425260653053478
 40
0.7651854120086745
 40
0.7884800863341992
 40
0.8123849208093641
 40
0.839412043665612
 40
0.8602252494049135
 40
0.8832528987069002
 40
0.9085214026949112
 40
0.9290208416273926
 40
0.9509558906631373
 40
0.9745131893055675
 40
1.0
 40
1.0
 40
1.0
 40
1.0
 10
229.0081860445907
 20
33.2544333894476
 30
0.0
 10
229.0081860445908
 20
33.55716930128003
 30
0.0
 10
229.0081860445908
 20
34.22809424201438
 30
0.0
 10
229.0081860445908
 20
35.51515921132308
 30
0.0
 10
229.0081860445908
 20
36.99607042587991
 30
0.0
 10
229.0081860445908
 20
38.68330343542018
 30
0.0
 10
229.0081860445907
 20
40.55530917896488
 30
0.0
 10
229.0081860445907
 20
42.5897275658557
 30
0.0
 10
229.0081860445908
 20
44.59690780461919
 30
0.0
 10
229.0081860445907
 20
46.75450040054846
 30
0.0
 10
229.0081860445908
 20
49.06397928994777
 30
0.0
 10
229.0081860445907
 20
51.51734131252456
 30
0.0
 10
229.0081860445907
 20
53.84971362672164
 30
0.0
 10
229.0081860445908
 20
56.07966806416176
 30
0.0
 10
229.0081860445908
 20
58.26033923655508
 30
0.0
 10
229.0081860445907
 20
60.45511103334589
 30
0.0
 10
229.0081860445908
 20
62.63657210240414
 30
0.0
 10
229.0081860445907
 20
64.75642111808651
 30
0.0
 10
229.0081860445907
 20
66.79427393702841
 30
0.0
 10
229.0081860445908
 20
68.7904028534861
 30
0.0
 10
229.0081860445908
 20
70.79245836258978
 30
0.0
 10
229.0081860445907
 20
72.63267272776469
 30
0.0
 10
229.0081860445907
 20
74.305547902908
 30
0.0
 10
229.0081860445907
 20
75.79992792387812
 30
0.0
 10
229.0081860445907
 20
77.30450660924501
 30
0.0
 10
229.0081860445908
 20
78.65516994879981
 30
0.0
 10
229.0081860445907
 20
79.87087292910105
 30
0.0
 10
229.0081860445907
 20
80.93516950297185
 30
0.0
 10
229.0081860445907
 20
81.83950825731313
 30
0.0
 10
229.0081860445907
 20
82.56267754385391
 30
0.0
 10
229.0081860445908
 20
83.09644026873475
 30
0.0
 10
229.0081860445908
 20
83.47863992570984
 30
0.0
 10
229.0081860445908
 20
83.53532498262989
 30
0.0
 10
229.0081860445907
 20
83.56478257365272
 30
0.0
  0
SPLINE
  5
99
330
1F
100
AcDbEntity
  8
0
  6
Continuous
 62
     7
370
    25
100
AcDbSpline
210
0.0
220
0.0
230
1.0
 70
     8
 71
     3
 72
    28
 73
    24
 74
     0
 42
0.00000001
 43
0.00000001
 40
0.0
 40
0.0
 40
0.0
 40
0.0
 40
0.0339431532590004
 40
0.0705924364436984
 40
0.1101112335221209
 40
0.1511675422004405
 40
0.2037228753708331
 40
0.2471902166657953
 40
0.2783743634473375
 40
0.3741322513515347
 40
0.4769255439312153
 40
0.5178670573318879
 40
0.5577898694235693
 40
0.5962581878667514
 40
0.6329199101104285
 40
0.6744200263170526
 40
0.7239791228887529
 40
0.7829381193114573
 40
0.8448900567584318
 40
0.8894451343620232
 40
0.930247474301399
 40
0.9668334043865868
 40
0.9999999999999999
 40
0.9999999999999999
 40
0.9999999999999999
 40
0.9999999999999999
 10
229.0081860445907
 20
83.56478257365274
 30
0.0
 10
228.9930754337884
 20
83.73209233166243
 30
0.0
 10
228.9616495133812
 20
84.0800506774469
 30
0.0
 10
228.7174339344749
 20
84.57471631926045
 30
0.0
 10
228.3550162148599
 20
85.02549603317907
 30
0.0
 10
227.8543217783371
 20
85.45179932344622
 30
0.0
 10
227.277234255693
 20
85.80428235562366
 30
0.0
 10
226.7078174172005
 20
86.06465660839244
 30
0.0
 10
225.9213798357334
 20
86.3537534957003
 30
0.0
 10
224.8191422664874
 20
86.62056407436373
 30
0.0
 10
223.6437786569041
 20
86.73413585225755
 30
0.0
 10
222.740852306944
 20
86.73717905328417
 30
0.0
 10
222.1547971581955
 20
86.70826559378014
 30
0.0
 10
221.5919958414318
 20
86.65107708970757
 30
0.0
 10
221.0252454574135
 20
86.563635045008
 30
0.0
 10
220.4109416210425
 20
86.43266786174577
 30
0.0
 10
219.7021230151252
 20
86.22690243567376
 30
0.0
 10
218.9229338873547
 20
85.91385688416949
 30
0.0
 10
218.2147009665137
 20
85.50629636677226
 30
0.0
 10
217.6558073022579
 20
85.03963772927618
 30
0.0
 10
217.2787469673619
 20
84.57026001051855
 30
0.0
 10
217.0366074065904
 20
84.07208667820034
 30
0.0
 10
217.0062490405763
 20
83.7282658008127
 30
0.0
 10
216.9918139554093
 20
83.56478257365274
 30
0.0
  0
SPLINE
  5
9A
330
1F
100
AcDbEntity
  8
0
  6
Continuous
 62
     7
370
    25
100
AcDbSpline
210
0.0
220
0.0
230
1.0
 70
    24
 71
     3
 72
    39
 73
    35
 74
     0
 42
0.00000001
 43
0.00000001
 40
0.0
 40
0.0
 40
0.0
 40
0.0
 40
0.025486427413876
 40
0.049043371792501
 40
0.0709780909604602
 40
0.0914772216144182
 40
0.116745345604854
 40
0.1397726486081079
 40
0.160585541350339
 40
0.1876122577622179
 40
0.2115167327471989
 40
0.234811056758365
 40
0.2574700627016365
 40
0.2866371120681516
 40
0.3146358217962367
 40
0.3425989563928875
 40
0.3640142840250056
 40
0.3857928912228037
 40
0.4099340408012393
 40
0.4347870254488773
 40
0.4684564673855883
 40
0.5024913259169664
 40
0.5381811156265754
 40
0.5779761282854134
 40
0.6219667540179414
 40
0.6702538868373864
 40
0.7093567255798282
 40
0.7509826385006035
 40
0.7951919623730468
 40
0.8419525723386181
 40
0.8812033775150139
 40
0.9221390991805478
 40
0.96486698602678
 40
1.0
 40
1.0
 40
1.0
 40
1.0
 10
216.9918139554093
 20
83.56478257365272
 30
0.0
 10
216.9918139554093
 20
83.53532498263081
 30
0.0
 10
216.9918139554093
 20
83.47863992571256
 30
0.0
 10
216.9918139554093
 20
83.09644026872509
 30
0.0
 10
216.9918139554093
 20
82.56267754388652
 30
0.0
 10
216.9918139554093
 20
81.83950825718885
 30
0.0
 10
216.9918139554093
 20
80.93516950353644
 30
0.0
 10
216.9918139554093
 20
79.870872927289
 30
0.0
 10
216.9918139554093
 20
78.65516995561383
 30
0.0
 10
216.9918139554093
 20
77.30450657679489
 30
0.0
 10
216.9918139554093
 20
75.79992802759425
 30
0.0
 10
216.9918139554093
 20
74.30554752986107
 30
0.0
 10
216.9918139554093
 20
72.6326742428427
 30
0.0
 10
216.9918139554093
 20
70.79245099422519
 30
0.0
 10
216.9918139554093
 20
68.79042890531841
 30
0.0
 10
216.9918139554093
 20
66.96462361397957
 30
0.0
 10
216.9918139554093
 20
65.29825750267996
 30
0.0
 10
216.9918139554093
 20
63.73872313423239
 30
0.0
 10
216.9918139554093
 20
62.12494783051567
 30
0.0
 10
216.9918139554093
 20
60.2768409542217
 30
0.0
 10
216.9918139554093
 20
58.26030855359461
 30
0.0
 10
216.9918139554093
 20
56.07967673848864
 30
0.0
 10
216.9918139554093
 20
53.84971095992601
 30
0.0
 10
216.9918139554093
 20
51.51734214540941
 30
0.0
 10
216.9918139554093
 20
49.06397903043994
 30
0.0
 10
216.9918139554093
 20
46.75450045750788
 30
0.0
 10
216.9918139554093
 20
44.59690778994638
 30
0.0
 10
216.9918139554093
 20
42.58972756936175
 30
0.0
 10
216.9918139554093
 20
40.55530918120355
 30
0.0
 10
216.9918139554093
 20
38.68330342269761
 30
0.0
 10
216.9918139554093
 20
36.99607046641295
 30
0.0
 10
216.9918139554093
 20
35.51515904863372
 30
0.0
 10
216.9918139554093
 20
34.22808528122483
 30
0.0
 10
216.9918139554093
 20
33.5571530792584
 30
0.0
 10
216.9918139554093
 20
33.25440972311063
 30
0.0
  0
ARC
  5
9B
330
1F
100
AcDbEntity
  8
0
  6
Continuous
 62
     7
370
    25
100
AcDbCircle
 10
187.4881123851
 20
94.0658862136
 30
0.0
 40
1.848672629104857
100
AcDbArc
 50
90.0
 51
182.4831379778
  0
ARC
  5
9C
330
1F
100
AcDbEntity
  8
0
  6
Continuous
 62
     7
370
    25
100
AcDbCircle
 10
258.5118876149
 20
94.0658862136
 30
0.0
 40
1.848672629104886
100
AcDbArc
 50
357.5168620222
 51
90.0
  0
ARC
  5
9D
330
1F
100
AcDbEntity
  8
0
  6
Continuous
 62
     7
370
    25
100
AcDbCircle
 10
-11.7455523781
 20
105.7858941038
 30
0.0
 40
272.3601187021841
100
AcDbArc
 50
341.4961497049
 51
357.5168620222
  0
ARC
  5
9E
330
1F
100
AcDbEntity
  8
0
  6
Continuous
 62
     7
370
    25
100
AcDbCircle
 10
457.7455523781
 20
105.7858941038
 30
0.0
 40
272.360118702184
100
AcDbArc
 50
182.4831379778
 51
198.5038502951
  0
ARC
  5
9F
330
1F
100
AcDbEntity
  8
0
  6
Continuous
 62
     7
370
    25
100
AcDbCircle
 10
244.7810822485
 20
19.9341137864
 30
0.0
 40
1.848672629104851
100
AcDbArc
 50
270.0
 51
341.4961497049
  0
ARC
  5
A0
330
1F
100
AcDbEntity
  8
0
  6
Continuous
 62
     7
370
    25
100
AcDbCircle
 10
201.2189177515
 20
19.9341137864
 30
0.0
 40
1.848672629104851
100
AcDbArc
 50
198.5038502951
 51
270.0
  0
LINE
  5
A1
330
1F
100
AcDbEntity
  8
0
  6
Continuous
 62
     7
370
    25
100
AcDbLine
 10
187.4881123851
 20
95.9145588427
 30
0.0
 11
258.5118876149
 21
95.9145588427
 31
0.0
  0
LINE
  5
A2
330
1F
100
AcDbEntity
  8
0
  6
Continuous
 62
     7
370
    25
100
AcDbLine
 10
223.0
 20
18.0854411573
 30
0.0
 11
201.2189177515
 21
18.0854411573
 31
0.0
  0
LINE
  5
A3
330
1F
100
AcDbEntity
  8
0
  6
Continuous
 62
     7
370
    25
100
AcDbLine
 10
244.7810822485
 20
18.0854411573
 30
0.0
 11
223.0
 21
18.0854411573
 31
0.0
  0
LINE
  5
A4
330
1F
100
AcDbEntity
  8
0
  6
HIDDEN
 62
     7
370
    18
100
AcDbLine
 10
223.0
 20
23.8163263076
 30
0.0
 11
238.5847530004
 21
23.8163263076
 31
0.0
  0
LINE
  5
A5
330
1F
100
AcDbEntity
  8
0
  6
HIDDEN
 62
     7
370
    18
100
AcDbLine
 10
207.4152469996
 20
23.8163263076
 30
0.0
 11
223.0
 21
23.8163263076
 31
0.0
  0
SPLINE
  5
A6
330
1F
100
AcDbEntity
  8
0
  6
HIDDEN
 62
     7
370
    18
100
AcDbSpline
210
0.0
220
0.0
230
1.0
 70
     8
 71
     3
 72
    23
 73
    19
 74
     0
 42
0.00000001
 43
0.00000001
 40
0.0
 40
0.0
 40
0.0
 40
0.0
 40
0.0400775206939085
 40
0.0856831618283363
 40
0.13863422994622
 40
0.1979715652518414
 40
0.260092913941239
 40
0.3201326907772115
 40
0.3735221967065184
 40
0.4278804357469115
 40
0.4960263707469756
 40
0.5762558293194632
 40
0.6639978683390985
 40
0.7520643499384027
 40
0.8326432235485696
 40
0.9004414299763132
 40
0.9549473490384612
 40
1.0
 40
1.0
 40
1.0
 40
1.0
 10
229.0081860445907
 20
83.56478257365272
 30
0.0
 10
228.9873615411179
 20
83.36943578399202
 30
0.0
 10
228.9428400919324
 20
82.9517969105951
 30
0.0
 10
228.5830914821606
 20
82.35249387841851
 30
0.0
 10
228.0275566212948
 20
81.80859123901267
 30
0.0
 10
227.3001893255195
 20
81.3493521331076
 30
0.0
 10
226.4826509278138
 20
80.99418861988997
 30
0.0
 10
225.6576129854987
 20
80.74554973311912
 30
0.0
 10
224.8516063144005
 20
80.57949541263993
 30
0.0
 10
223.9962260612042
 20
80.46966586071139
 30
0.0
 10
223.0030418776147
 20
80.42170123773569
 30
0.0
 10
221.8452908362556
 20
80.47340785055087
 30
0.0
 10
220.6021788247949
 20
80.6662911830438
 30
0.0
 10
219.3934984460345
 20
81.02221861986868
 30
0.0
 10
218.3437322122113
 20
81.53285526025424
 30
0.0
 10
217.5672242684761
 20
82.16038887319243
 30
0.0
 10
217.0786980642991
 20
82.85592059542809
 30
0.0
 10
217.0188821137807
 20
83.34394140332526
 30
0.0
 10
216.9918139554093
 20
83.56478257365274
 30
0.0
  0
SPLINE
  5
A7
330
1F
100
AcDbEntity
  8
0
  6
HIDDEN
 62
     7
370
    18
100
AcDbSpline
210
0.0
220
0.0
230
1.0
 70
     8
 71
     3
 72
    23
 73
    19
 74
     0
 42
0.00000001
 43
0.00000001
 40
0.0
 40
0.0
 40
0.0
 40
0.0
 40
0.0750460835566602
 40
0.1516776222483729
 40
0.227980633856548
 40
0.3029030368841731
 40
0.3737153767468826
 40
0.4385431134674912
 40
0.4971383849616303
 40
0.548585603004014
 40
0.5928874012346388
 40
0.6391832158420165
 40
0.6908091006429513
 40
0.7461248225383154
 40
0.8036169397248846
 40
0.8632427974297521
 40
0.9273489500694185
 40
1.0
 40
1.0
 40
1.0
 40
1.0
 10
217.8026537495754
 20
84.19380695038333
 30
0.0
 10
218.0335996350871
 20
84.43155017208693
 30
0.0
 10
218.5003704660529
 20
84.9120592788206
 30
0.0
 10
219.4260168462113
 20
85.44304904328506
 30
0.0
 10
220.4247726842603
 20
85.82531608998562
 30
0.0
 10
221.4504952990068
 20
86.06000613622761
 30
0.0
 10
222.444124202043
 20
86.16899981764767
 30
0.0
 10
223.367008593079
 20
86.17536519359726
 30
0.0
 10
224.1938711678213
 20
86.10430259961014
 30
0.0
 10
224.9142328141331
 20
85.97917798795866
 30
0.0
 10
225.5626106518749
 20
85.81315890553928
 30
0.0
 10
226.1969718581502
 20
85.59016433020525
 30
0.0
 10
226.8537283791142
 20
85.28049884766364
 30
0.0
 10
227.5106733504614
 20
84.86211018835243
 30
0.0
 10
228.1191447983171
 20
84.32004636452898
 30
0.0
 10
228.615026846991
 20
83.63946768845835
 30
0.0
 10
228.9495476411434
 20
82.81760335594443
 30
0.0
 10
228.9878488511871
 20
82.23162670952513
 30
0.0
 10
229.0081960290395
 20
81.92033181757753
 30
0.0
  0
SPLINE
  5
A8
330
1F
100
AcDbEntity
  8
0
  6
HIDDEN
 62
     7
370
    18
100
AcDbSpline
210
0.0
220
0.0
230
1.0
 70
     8
 71
     3
 72
    11
 73
     7
 74
     0
 42
0.00000001
 43
0.00000001
 40
0.0
 40
0.0
 40
0.0
 40
0.0
 40
0.2526543895597303
 40
0.500270583332475
 40
0.7455156407880477
 40
0.9999999999999999
 40
0.9999999999999999
 40
0.9999999999999999
 40
0.9999999999999999
 10
216.9917628869799
 20
81.92191153107164
 30
0.0
 10
217.0009435840409
 20
82.12202766400026
 30
0.0
 10
217.019121905352
 20
82.51826940248297
 30
0.0
 10
217.1763122008032
 20
83.10763678028928
 30
0.0
 10
217.4303679681278
 20
83.6792233545614
 30
0.0
 10
217.6770404378648
 20
84.0201844647955
 30
0.0
 10
217.8026569881469
 20
84.19381696822656
 30
0.0
  0
SPLINE
  5
A9
330
1F
100
AcDbEntity
  8
0
  6
HIDDEN
 62
     7
370
    18
100
AcDbSpline
210
0.0
220
0.0
230
1.0
 70
     8
 71
     3
 72
    21
 73
    17
 74
     0
 42
0.00000001
 43
0.00000001
 40
0.0
 40
0.0
 40
0.0
 40
0.0
 40
0.0559757093203816
 40
0.1059229118142362
 40
0.1888948350122452
 40
0.2512335201880188
 40
0.2968696945283794
 40
0.3803462357797801
 40
0.4664138449772023
 40
0.554727090685224
 40
0.6007440197200007
 40
0.6583231149420352
 40
0.7284640765638386
 40
0.8109516399478384
 40
0.9031520983746064
 40
1.0
 40
1.0
 40
1.0
 40
1.0
 10
218.9228183633649
 20
37.40405039127843
 30
0.0
 10
219.1024143629594
 20
37.57130151952864
 30
0.0
 10
219.4422641202597
 20
37.88779105978762
 30
0.0
 10
220.146934408077
 20
38.38891429647645
 30
0.0
 10
220.9735706216347
 20
38.82123232336716
 30
0.0
 10
221.878682687459
 20
39.09452660288641
 30
0.0
 10
222.8282671852077
 20
39.22841108453178
 30
0.0
 10
223.9253896348376
 20
39.16730180494883
 30
0.0
 10
225.1451880365332
 20
38.78381523404578
 30
0.0
 10
226.0535861230298
 20
38.26371120397527
 30
0.0
 10
226.7469669851452
 20
37.72655028141634
 30
0.0
 10
227.3318103678593
 20
37.16777324937102
 30
0.0
 10
227.9404929128858
 20
36.41974157205283
 30
0.0
 10
228.4903347522921
 20
35.48009940730722
 30
0.0
 10
228.9126347401006
 20
34.38839539507124
 30
0.0
 10
228.9758166533059
 20
33.60911026662758
 30
0.0
 10
229.0081842216514
 20
33.20988898040844
 30
0.0
  0
SPLINE
  5
AA
330
1F
100
AcDbEntity
  8
0
  6
HIDDEN
 62
     7
370
    18
100
AcDbSpline
210
0.0
220
0.0
230
1.0
 70
     8
 71
     3
 72
    11
 73
     7
 74
     0
 42
0.00000001
 43
0.00000001
 40
0.0
 40
0.0
 40
0.0
 40
0.0
 40
0.2341294137986138
 40
0.4837179535197434
 40
0.7424388599262124
 40
1.0
 40
1.0
 40
1.0
 40
1.0
 10
216.9918222821669
 20
33.20509147144729
 30
0.0
 10
217.0149209154655
 20
33.54718911055573
 30
0.0
 10
217.0626433414821
 20
34.25397245404373
 30
0.0
 10
217.4369103476273
 20
35.32883290775597
 30
0.0
 10
218.0238232932615
 20
36.41396275741638
 30
0.0
 10
218.6235716750959
 20
37.07448355821703
 30
0.0
 10
218.9227722342395
 20
37.40400206783109
 30
0.0
  0
ARC
  5
AB
330
1F
100
AcDbEntity
  8
0
  6
HIDDEN
 62
     7
370
    18
100
AcDbCircle
 10
189.5235780315
 20
94.0658862136
 30
0.0
 40
1.848672629104854
100
AcDbArc
 50
2.5019579997
 51
90.0
  0
ARC
  5
AC
330
1F
100
AcDbEntity
  8
0
  6
HIDDEN
 62
     7
370
    18
100
AcDbCircle
 10
256.4764219685
 20
94.0658862136
 30
0.0
 40
1.848672629104875
100
AcDbArc
 50
90.0
 51
177.4980420003
  0
ARC
  5
AD
330
1F
100
AcDbEntity
  8
0
  6
HIDDEN
 62
     7
370
    18
100
AcDbCircle
 10
-11.7455523781
 20
105.7858941038
 30
0.0
 40
266.629233551959
100
AcDbArc
 50
342.8297239337
 51
357.4980420003
  0
ARC
  5
AE
330
1F
100
AcDbEntity
  8
0
  6
HIDDEN
 62
     7
370
    18
100
AcDbCircle
 10
457.7455523781
 20
105.7858941038
 30
0.0
 40
266.629233551959
100
AcDbArc
 50
182.5019579997
 51
197.1702760663
  0
ARC
  5
AF
330
1F
100
AcDbEntity
  8
0
  6
HIDDEN
 62
     7
370
    18
100
AcDbCircle
 10
238.5847530004
 20
28.4380078803
 30
0.0
 40
4.62168157276213
100
AcDbArc
 50
270.0
 51
342.8297239337
  0
ARC
  5
B0
330
1F
100
AcDbEntity
  8
0
  6
HIDDEN
 62
     7
370
    18
100
AcDbCircle
 10
207.4152469996
 20
28.4380078803
 30
0.0
 40
4.621681572762103
100
AcDbArc
 50
197.1702760663
 51
270.0
  0
ENDSEC
  0
SECTION
  2
OBJECTS
  0
DICTIONARY
  5
C
330
0
100
AcDbDictionary
281
     1
  3
ACAD_GROUP
350
D
  3
ACAD_LAYOUT
350
1A
  3
ACAD_MLINESTYLE
350
17
  3
ACAD_PLOTSETTINGS
350
19
  3
ACAD_PLOTSTYLENAME
350
E
  3
ACAD_SCALELIST
350
47
  3
DWGPROPS
350
B1
  0
DICTIONARY
  5
D
102
{ACAD_REACTORS
330
C
102
}
330
C
100
AcDbDictionary
281
     1
  0
DICTIONARY
  5
1A
102
{ACAD_REACTORS
330
C
102
}
330
C
100
AcDbDictionary
281
     1
  3
Layout1
350
1E
  3
Layout2
350
26
  3
Model
350
22
  0
DICTIONARY
  5
17
102
{ACAD_REACTORS
330
C
102
}
330
C
100
AcDbDictionary
281
     1
  3
Standard
350
18
  0
DICTIONARY
  5
19
102
{ACAD_REACTORS
330
C
102
}
330
C
100
AcDbDictionary
281
     1
  0
ACDBDICTIONARYWDFLT
  5
E
102
{ACAD_REACTORS
330
C
102
}
330
C
100
AcDbDictionary
281
     1
  3
Normal
350
F
100
AcDbDictionaryWithDefault
340
F
  0
DICTIONARY
  5
47
102
{ACAD_REACTORS
330
C
102
}
330
C
100
AcDbDictionary
281
     1
  3
A0
350
48
  3
A1
350
49
  3
A2
350
4A
  3
A3
350
4B
  3
A4
350
4C
  3
A5
350
4D
  3
A6
350
4E
  3
A7
350
4F
  3
A8
350
50
  3
A9
350
51
  3
B0
350
52
  3
B1
350
53
  3
B2
350
54
  3
B3
350
55
  3
B4
350
56
  3
B5
350
57
  3
B6
350
58
  0
XRECORD
  5
B1
102
{ACAD_REACTORS
330
C
102
}
330
C
100
AcDbXrecord
280
     1
  1
DWGPROPS COOKIE
  2

  3

  4

  6

  7

  8

  9

300
=
301
=
302
=
303
=
304
=
305
=
306
=
307
=
308
=
309
=
 40
0.0
 41
2461213.565350776
 42
2461213.56535095
  1

 90
        0
  0
LAYOUT
  5
1E
102
{ACAD_REACTORS
330
1A
102
}
330
1A
100
AcDbPlotSettings
  1

  2
none_device
  4

  6

 40
0.0
 41
0.0
 42
0.0
 43
0.0
 44
0.0
 45
0.0
 46
0.0
 47
0.0
 48
0.0
 49
0.0
140
0.0
141
0.0
142
1.0
143
1.0
 70
   688
 72
     1
 73
     0
 74
     5
  7

 75
    16
147
1.0
148
0.0
149
0.0
100
AcDbLayout
  1
Layout1
 70
     1
 71
     1
 10
0.0
 20
0.0
 11
420.0
 21
297.0
 12
0.0
 22
0.0
 32
0.0
 14
1.0000000000E+20
 24
1.0000000000E+20
 34
1.0000000000E+20
 15
-1.0000000000E+20
 25
-1.0000000000E+20
 35
-1.0000000000E+20
146
0.0
 13
0.0
 23
0.0
 33
0.0
 16
1.0
 26
0.0
 36
0.0
 17
0.0
 27
1.0
 37
0.0
 76
     0
330
1B
  0
LAYOUT
  5
26
102
{ACAD_REACTORS
330
1A
102
}
330
1A
100
AcDbPlotSettings
  1

  2
none_device
  4

  6

 40
0.0
 41
0.0
 42
0.0
 43
0.0
 44
0.0
 45
0.0
 46
0.0
 47
0.0
 48
0.0
 49
0.0
140
0.0
141
0.0
142
1.0
143
1.0
 70
   688
 72
     1
 73
     0
 74
     5
  7

 75
    16
147
1.0
148
0.0
149
0.0
100
AcDbLayout
  1
Layout2
 70
     1
 71
     2
 10
0.0
 20
0.0
 11
0.0
 21
0.0
 12
0.0
 22
0.0
 32
0.0
 14
0.0
 24
0.0
 34
0.0
 15
0.0
 25
0.0
 35
0.0
146
0.0
 13
0.0
 23
0.0
 33
0.0
 16
1.0
 26
0.0
 36
0.0
 17
0.0
 27
1.0
 37
0.0
 76
     0
330
23
  0
LAYOUT
  5
22
102
{ACAD_REACTORS
330
1A
102
}
330
1A
100
AcDbPlotSettings
  1

  2
none_device
  4
Letter_(8.50_x_11.00_Inches)
  6

 40
6.35
 41
6.35
 42
6.35000508
 43
6.35000508
 44
215.9
 45
279.4
 46
0.0
 47
0.0
 48
0.0
 49
0.0
140
0.0
141
0.0
142
1.0
143
1.0
 70
  1712
 72
     1
 73
     0
 74
     0
  7

 75
     0
147
1.0
148
0.0
149
0.0
100
AcDbLayout
  1
Model
 70
     1
 71
     0
 10
0.0
 20
0.0
 11
297.0
 21
210.0
 12
0.0
 22
0.0
 32
0.0
 14
0.0
 24
0.0
 34
0.0
 15
297.0
 25
210.0
 35
0.0
146
0.0
 13
0.0
 23
0.0
 33
0.0
 16
1.0
 26
0.0
 36
0.0
 17
0.0
 27
1.0
 37
0.0
 76
     0
330
1F
331
29
  0
MLINESTYLE
  5
18
102
{ACAD_REACTORS
330
17
102
}
330
17
100
AcDbMlineStyle
  2
Standard
 70
     0
  3

 62
   256
 51
90.0
 52
90.0
 71
     2
 49
0.5
 62
   256
  6
BYLAYER
 49
-0.5
 62
   256
  6
BYLAYER
  0
ACDBPLACEHOLDER
  5
F
102
{ACAD_REACTORS
330
E
102
}
330
E
  0
SCALE
  5
48
102
{ACAD_REACTORS
330
47
102
}
330
47
100
AcDbScale
 70
     0
300
1:1
140
1.0
141
1.0
290
     1
  0
SCALE
  5
49
102
{ACAD_REACTORS
330
47
102
}
330
47
100
AcDbScale
 70
     0
300
1:2
140
1.0
141
2.0
290
     0
  0
SCALE
  5
4A
102
{ACAD_REACTORS
330
47
102
}
330
47
100
AcDbScale
 70
     0
300
1:4
140
1.0
141
4.0
290
     0
  0
SCALE
  5
4B
102
{ACAD_REACTORS
330
47
102
}
330
47
100
AcDbScale
 70
     0
300
1:5
140
1.0
141
5.0
290
     0
  0
SCALE
  5
4C
102
{ACAD_REACTORS
330
47
102
}
330
47
100
AcDbScale
 70
     0
300
1:8
140
1.0
141
8.0
290
     0
  0
SCALE
  5
4D
102
{ACAD_REACTORS
330
47
102
}
330
47
100
AcDbScale
 70
     0
300
1:10
140
1.0
141
10.0
290
     0
  0
SCALE
  5
4E
102
{ACAD_REACTORS
330
47
102
}
330
47
100
AcDbScale
 70
     0
300
1:16
140
1.0
141
16.0
290
     0
  0
SCALE
  5
4F
102
{ACAD_REACTORS
330
47
102
}
330
47
100
AcDbScale
 70
     0
300
1:20
140
1.0
141
20.0
290
     0
  0
SCALE
  5
50
102
{ACAD_REACTORS
330
47
102
}
330
47
100
AcDbScale
 70
     0
300
1:30
140
1.0
141
30.0
290
     0
  0
SCALE
  5
51
102
{ACAD_REACTORS
330
47
102
}
330
47
100
AcDbScale
 70
     0
300
1:40
140
1.0
141
40.0
290
     0
  0
SCALE
  5
52
102
{ACAD_REACTORS
330
47
102
}
330
47
100
AcDbScale
 70
     0
300
1:50
140
1.0
141
50.0
290
     0
  0
SCALE
  5
53
102
{ACAD_REACTORS
330
47
102
}
330
47
100
AcDbScale
 70
     0
300
1:100
140
1.0
141
100.0
290
     0
  0
SCALE
  5
54
102
{ACAD_REACTORS
330
47
102
}
330
47
100
AcDbScale
 70
     0
300
2:1
140
2.0
141
1.0
290
     0
  0
SCALE
  5
55
102
{ACAD_REACTORS
330
47
102
}
330
47
100
AcDbScale
 70
     0
300
4:1
140
4.0
141
1.0
290
     0
  0
SCALE
  5
56
102
{ACAD_REACTORS
330
47
102
}
330
47
100
AcDbScale
 70
     0
300
8:1
140
8.0
141
1.0
290
     0
  0
SCALE
  5
57
102
{ACAD_REACTORS
330
47
102
}
330
47
100
AcDbScale
 70
     0
300
10:1
140
10.0
141
1.0
290
     0
  0
SCALE
  5
58
102
{ACAD_REACTORS
330
47
102
}
330
47
100
AcDbScale
 70
     0
300
100:1
140
100.0
141
1.0
290
     0
  0
ENDSEC
  0
EOF
