  0
SECTION
  2
HEADER
  9
$ACADVER
  1
AC1015
  9
$ACADMAINTVER
 70
     6
  9
$DWGCODEPAGE
  3
ANSI_936
  9
$INSBASE
 10
0.0
 20
0.0
 30
0.0
  9
$EXTMIN
 10
0.0
 20
0.0
 30
0.0
  9
$EXTMAX
 10
297.0
 20
210.0
 30
0.0
  9
$LIMMIN
 10
0.0
 20
0.0
  9
$LIMMAX
 10
297.0
 20
210.0
  9
$ORTHOMODE
 70
     0
  9
$REGENMODE
 70
     1
  9
$FILLMODE
 70
     1
  9
$QTEXTMODE
 70
     0
  9
$MIRRTEXT
 70
     1
  9
$LTSCALE
 40
1.0
  9
$ATTMODE
 70
     1
  9
$TEXTSIZE
 40
3.5
  9
$TRACEWID
 40
1.0
  9
$TEXTSTYLE
  7
Standard
  9
$CLAYER
  8
0
  9
$CELTYPE
  6
ByLayer
  9
$CECOLOR
 62
   256
  9
$CELTSCALE
 40
1.0
  9
$DISPSILH
 70
     0
  9
$DIMSCALE
 40
1.0
  9
$DIMASZ
 40
4.08
  9
$DIMEXO
 40
0.0
  9
$DIMDLI
 40
3.75
  9
$DIMRND
 40
0.0
  9
$DIMDLE
 40
0.0
  9
$DIMEXE
 40
2.0
  9
$DIMTP
 40
0.0
  9
$DIMTM
 40
0.0
  9
$DIMTXT
 40
3.5
  9
$DIMCEN
 40
2.5
  9
$DIMTSZ
 40
0.0
  9
$DIMTOL
 70
     0
  9
$DIMLIM
 70
     0
  9
$DIMTIH
 70
     1
  9
$DIMTOH
 70
     1
  9
$DIMSE1
 70
     0
  9
$DIMSE2
 70
     0
  9
$DIMTAD
 70
     1
  9
$DIMZIN
 70
     0
  9
$DIMBLK
  1

  9
$DIMASO
 70
     1
  9
$DIMSHO
 70
     1
  9
$DIMPOST
  1

  9
$DIMAPOST
  1

  9
$DIMALT
 70
     0
  9
$DIMALTD
 70
     3
  9
$DIMALTF
 40
0.0393700787
  9
$DIMLFAC
 40
2.0
  9
$DIMTOFL
 70
     1
  9
$DIMTVP
 40
0.0
  9
$DIMTIX
 70
     0
  9
$DIMSOXD
 70
     0
  9
$DIMSAH
 70
     0
  9
$DIMBLK1
  1

  9
$DIMBLK2
  1

  9
$DIMSTYLE
  2
ISO-25
  9
$DIMCLRD
 70
     0
  9
$DIMCLRE
 70
     0
  9
$DIMCLRT
 70
     0
  9
$DIMTFAC
 40
1.0
  9
$DIMGAP
 40
1.524
  9
$DIMJUST
 70
     0
  9
$DIMSD1
 70
     0
  9
$DIMSD2
 70
     0
  9
$DIMTOLJ
 70
     0
  9
$DIMTZIN
 70
     0
  9
$DIMALTZ
 70
     0
  9
$DIMALTTZ
 70
     0
  9
$DIMUPT
 70
     0
  9
$DIMDEC
 70
     2
  9
$DIMTDEC
 70
     2
  9
$DIMALTU
 70
     2
  9
$DIMALTTD
 70
     3
  9
$DIMTXSTY
  7
Standard
  9
$DIMAUNIT
 70
     0
  9
$DIMADEC
 70
     2
  9
$DIMALTRND
 40
0.0
  9
$DIMAZIN
 70
     0
  9
$DIMDSEP
 70
    44
  9
$DIMATFIT
 70
     3
  9
$DIMFRAC
 70
     0
  9
$DIMLDRBLK
  1

  9
$DIMLUNIT
 70
     2
  9
$DIMLWD
 70
    -2
  9
$DIMLWE
 70
    -2
  9
$DIMTMOVE
 70
     0
  9
$LUNITS
 70
     2
  9
$LUPREC
 70
     2
  9
$SKETCHINC
 40
1.0
  9
$FILLETRAD
 40
0.0
  9
$AUNITS
 70
     0
  9
$AUPREC
 70
     2
  9
$MENU
  1
.
  9
$ELEVATION
 40
0.0
  9
$PELEVATION
 40
0.0
  9
$THICKNESS
 40
0.0
  9
$LIMCHECK
 70
     0
  9
$CHAMFERA
 40
0.0
  9
$CHAMFERB
 40
0.0
  9
$CHAMFERC
 40
0.0
  9
$CHAMFERD
 40
0.0
  9
$SKPOLY
 70
     0
  9
$TDCREATE
 40
2461215.65452441
  9
$TDUCREATE
 40
2461215.321191076
  9
$TDUPDATE
 40
2461215.654524861
  9
$TDUUPDATE
 40
2461215.321191528
  9
$TDINDWG
 40
0.0000000116
  9
$TDUSRTIMER
 40
0.0000000116
  9
$USRTIMER
 70
     1
  9
$ANGBASE
 50
0.0
  9
$ANGDIR
 70
     0
  9
$PDMODE
 70
     0
  9
$PDSIZE
 40
-1.0
  9
$PLINEWID
 40
0.0
  9
$SPLFRAME
 70
     0
  9
$SPLINETYPE
 70
     6
  9
$SPLINESEGS
 70
     8
  9
$HANDSEED
  5
1AA
  9
$SURFTAB1
 70
     6
  9
$SURFTAB2
 70
     6
  9
$SURFTYPE
 70
     6
  9
$SURFU
 70
     6
  9
$SURFV
 70
     6
  9
$UCSBASE
  2

  9
$UCSNAME
  2

  9
$UCSORG
 10
0.0
 20
0.0
 30
0.0
  9
$UCSXDIR
 10
1.0
 20
0.0
 30
0.0
  9
$UCSYDIR
 10
0.0
 20
1.0
 30
0.0
  9
$UCSORTHOREF
  2

  9
$UCSORTHOVIEW
 70
     0
  9
$UCSORGTOP
 10
0.0
 20
0.0
 30
0.0
  9
$UCSORGBOTTOM
 10
0.0
 20
0.0
 30
0.0
  9
$UCSORGLEFT
 10
0.0
 20
0.0
 30
0.0
  9
$UCSORGRIGHT
 10
0.0
 20
0.0
 30
0.0
  9
$UCSORGFRONT
 10
0.0
 20
0.0
 30
0.0
  9
$UCSORGBACK
 10
0.0
 20
0.0
 30
0.0
  9
$PUCSBASE
  2

  9
$PUCSNAME
  2

  9
$PUCSORG
 10
0.0
 20
0.0
 30
0.0
  9
$PUCSXDIR
 10
1.0
 20
0.0
 30
0.0
  9
$PUCSYDIR
 10
0.0
 20
1.0
 30
0.0
  9
$PUCSORTHOREF
  2

  9
$PUCSORTHOVIEW
 70
     0
  9
$PUCSORGTOP
 10
0.0
 20
0.0
 30
0.0
  9
$PUCSORGBOTTOM
 10
0.0
 20
0.0
 30
0.0
  9
$PUCSORGLEFT
 10
0.0
 20
0.0
 30
0.0
  9
$PUCSORGRIGHT
 10
0.0
 20
0.0
 30
0.0
  9
$PUCSORGFRONT
 10
0.0
 20
0.0
 30
0.0
  9
$PUCSORGBACK
 10
0.0
 20
0.0
 30
0.0
  9
$USERI1
 70
     0
  9
$USERI2
 70
     0
  9
$USERI3
 70
     0
  9
$USERI4
 70
     0
  9
$USERI5
 70
     0
  9
$USERR1
 40
0.0
  9
$USERR2
 40
0.0
  9
$USERR3
 40
0.0
  9
$USERR4
 40
0.0
  9
$USERR5
 40
0.0
  9
$WORLDVIEW
 70
     1
  9
$SHADEDGE
 70
     3
  9
$SHADEDIF
 70
    70
  9
$TILEMODE
 70
     1
  9
$MAXACTVP
 70
    64
  9
$PINSBASE
 10
0.0
 20
0.0
 30
0.0
  9
$PLIMCHECK
 70
     0
  9
$PEXTMIN
 10
1.0000000000E+20
 20
1.0000000000E+20
 30
1.0000000000E+20
  9
$PEXTMAX
 10
-1.0000000000E+20
 20
-1.0000000000E+20
 30
-1.0000000000E+20
  9
$PLIMMIN
 10
0.0
 20
0.0
  9
$PLIMMAX
 10
420.0
 20
297.0
  9
$UNITMODE
 70
     0
  9
$VISRETAIN
 70
     1
  9
$PLINEGEN
 70
     0
  9
$PSLTSCALE
 70
     1
  9
$TREEDEPTH
 70
  3020
  9
$CMLSTYLE
  2
Standard
  9
$CMLJUST
 70
     0
  9
$CMLSCALE
 40
20.0
  9
$PROXYGRAPHICS
 70
     1
  9
$MEASUREMENT
 70
     1
  9
$CELWEIGHT
370
    -1
  9
$ENDCAPS
280
     0
  9
$JOINSTYLE
280
     0
  9
$LWDISPLAY
290
     1
  9
$INSUNITS
 70
     4
  9
$HYPERLINKBASE
  1

  9
$STYLESHEET
  1

  9
$XEDIT
290
     1
  9
$CEPSNTYPE
380
     0
  9
$PSTYLEMODE
290
     1
  9
$FINGERPRINTGUID
  2
{95fff40a-74b5-4e1f-85e5-c1794f4938f0}
  9
$VERSIONGUID
  2
{FAEB1C32-E019-11D5-929B-00C0DF256EC4}
  9
$EXTNAMES
290
     1
  9
$PSVPSCALE
 40
0.0
  9
$OLESTARTUP
290
     0
  0
ENDSEC
  0
SECTION
  2
CLASSES
  0
CLASS
  1
ACDBDICTIONARYWDFLT
  2
AcDbDictionaryWithDefault
  3
ObjectDBX Classes
 90
        0
280
     0
281
     0
  0
CLASS
  1
VISUALSTYLE
  2
AcDbVisualStyle
  3
ObjectDBX Classes
 90
     4095
280
     0
281
     0
  0
CLASS
  1
MATERIAL
  2
AcDbMaterial
  3
ObjectDBX Classes
 90
     1153
280
     0
281
     0
  0
CLASS
  1
SCALE
  2
AcDbScale
  3
ObjectDBX Classes
 90
     1153
280
     0
281
     0
  0
CLASS
  1
TABLESTYLE
  2
AcDbTableStyle
  3
ObjectDBX Classes
 90
     4095
280
     0
281
     0
  0
CLASS
  1
MLEADERSTYLE
  2
AcDbMLeaderStyle
  3
ACDB_MLEADERSTYLE_CLASS
 90
     4095
280
     0
281
     0
  0
CLASS
  1
SUN
  2
AcDbSun
  3
SCENEOE
 90
     1153
280
     0
281
     0
  0
CLASS
  1
ACDBPLACEHOLDER
  2
AcDbPlaceHolder
  3
ObjectDBX Classes
 90
        0
280
     0
281
     0
  0
CLASS
  1
LAYOUT
  2
AcDbLayout
  3
ObjectDBX Classes
 90
        0
280
     0
281
     0
  0
ENDSEC
  0
SECTION
  2
TABLES
  0
TABLE
  2
VPORT
  5
8
330
0
100
AcDbSymbolTable
 70
     1
  0
VPORT
  5
29
330
8
100
AcDbSymbolTableRecord
100
AcDbViewportTableRecord
  2
*Active
 70
     0
 10
0.0
 20
0.0
 11
1.0
 21
1.0
 12
148.5
 22
105.0
 13
0.0
 23
0.0
 14
10.0
 24
10.0
 15
10.0
 25
10.0
 16
0.0
 26
0.0
 36
1.0
 17
0.0
 27
0.0
 37
0.0
 40
210.0
 41
1.4142857143
 42
50.0
 43
0.0
 44
0.0
 50
0.0
 51
0.0
 71
     0
 72
  2000
 73
     1
 74
     3
 75
     0
 76
     0
 77
     0
 78
     0
281
     0
 65
     1
110
0.0
120
0.0
130
0.0
111
1.0
121
0.0
131
0.0
112
0.0
122
1.0
132
0.0
 79
     0
146
0.0
  0
ENDTAB
  0
TABLE
  2
LTYPE
  5
5
330
0
100
AcDbSymbolTable
 70
     6
  0
LTYPE
  5
14
330
5
100
AcDbSymbolTableRecord
100
AcDbLinetypeTableRecord
  2
ByBlock
 70
     0
  3

 72
    65
 73
     0
 40
0.0
  0
LTYPE
  5
15
330
5
100
AcDbSymbolTableRecord
100
AcDbLinetypeTableRecord
  2
ByLayer
 70
     0
  3

 72
    65
 73
     0
 40
0.0
  0
LTYPE
  5
16
330
5
100
AcDbSymbolTableRecord
100
AcDbLinetypeTableRecord
  2
Continuous
 70
     0
  3
Solid line
 72
    65
 73
     0
 40
0.0
  0
LTYPE
  5
5E
330
5
100
AcDbSymbolTableRecord
100
AcDbLinetypeTableRecord
  2
HIDDEN
 70
     0
  3
Hidden __ __ __ __ __ __ __ __ __ __ __ __ __ __
 72
    65
 73
     2
 40
1.905
 49
1.27
 74
     0
 49
-0.635
 74
     0
  0
LTYPE
  5
5F
330
5
100
AcDbSymbolTableRecord
100
AcDbLinetypeTableRecord
  2
PHANTOM
 70
     0
  3
Phantom ______  __  __  ______  __  __  ______
 72
    65
 73
     6
 40
12.7
 49
6.35
 74
     0
 49
-1.27
 74
     0
 49
1.27
 74
     0
 49
-1.27
 74
     0
 49
1.27
 74
     0
 49
-1.27
 74
     0
  0
LTYPE
  5
60
330
5
100
AcDbSymbolTableRecord
100
AcDbLinetypeTableRecord
  2
CENTER
 70
     0
  3
Center ____ _ ____ _ ____ _ ____ _ ____ _ ____
 72
    65
 73
     4
 40
10.16
 49
6.35
 74
     0
 49
-1.27
 74
     0
 49
1.27
 74
     0
 49
-1.27
 74
     0
  0
LTYPE
  5
61
330
5
100
AcDbSymbolTableRecord
100
AcDbLinetypeTableRecord
  2
CENTERX2
 70
     0
  3
Center (2x) ________  __  ________  __  _____
 72
    65
 73
     4
 40
20.32
 49
12.7
 74
     0
 49
-2.54
 74
     0
 49
2.54
 74
     0
 49
-2.54
 74
     0
  0
LTYPE
  5
62
330
5
100
AcDbSymbolTableRecord
100
AcDbLinetypeTableRecord
  2
DOT2
 70
     0
  3
Dot (.5x) ........................................
 72
    65
 73
     2
 40
0.635
 49
0.0
 74
     0
 49
-0.635
 74
     0
  0
ENDTAB
  0
TABLE
  2
LAYER
  5
2
330
0
100
AcDbSymbolTable
 70
    14
  0
LAYER
  5
10
330
2
100
AcDbSymbolTableRecord
100
AcDbLayerTableRecord
  2
0
 70
     0
 62
     7
  6
Continuous
370
    -3
390
F
  0
LAYER
  5
63
330
2
100
AcDbSymbolTableRecord
100
AcDbLayerTableRecord
  2
SLD-0
 70
     0
 62
     7
  6
Continuous
370
    -3
390
F
  0
LAYER
  5
64
330
2
100
AcDbSymbolTableRecord
100
AcDbLayerTableRecord
  2
5
 70
     0
 62
     7
  6
Continuous
370
    -3
390
F
  0
LAYER
  5
65
330
2
100
AcDbSymbolTableRecord
100
AcDbLayerTableRecord
  2
9
 70
     0
 62
     7
  6
Continuous
370
    -3
390
F
  0
LAYER
  5
66
330
2
100
AcDbSymbolTableRecord
100
AcDbLayerTableRecord
  2
10
 70
     0
 62
     7
  6
Continuous
370
    -3
390
F
  0
LAYER
  5
67
330
2
100
AcDbSymbolTableRecord
100
AcDbLayerTableRecord
  2
轮廓实线层
 70
     0
 62
     7
  6
Continuous
370
    50
390
F
  0
LAYER
  5
68
330
2
100
AcDbSymbolTableRecord
100
AcDbLayerTableRecord
  2
细线层
 70
     0
 62
     4
  6
Continuous
370
    25
390
F
  0
LAYER
  5
69
330
2
100
AcDbSymbolTableRecord
100
AcDbLayerTableRecord
  2
中心线层
 70
     0
 62
     1
  6
CENTERX2
370
    25
390
F
  0
LAYER
  5
6A
330
2
100
AcDbSymbolTableRecord
100
AcDbLayerTableRecord
  2
虚线层
 70
     0
 62
     6
  6
HIDDEN
370
    25
390
F
  0
LAYER
  5
6B
330
2
100
AcDbSymbolTableRecord
100
AcDbLayerTableRecord
  2
剖面线层
 70
     0
 62
     2
  6
Continuous
370
    25
390
F
  0
LAYER
  5
6C
330
2
100
AcDbSymbolTableRecord
100
AcDbLayerTableRecord
  2
文字层
 70
     0
 62
     3
  6
Continuous
370
    25
390
F
  0
LAYER
  5
6D
330
2
100
AcDbSymbolTableRecord
100
AcDbLayerTableRecord
  2
标注层
 70
     0
 62
     4
  6
Continuous
370
    25
390
F
  0
LAYER
  5
6E
330
2
100
AcDbSymbolTableRecord
100
AcDbLayerTableRecord
  2
符号标注层
 70
     0
 62
    31
  6
Continuous
370
    25
390
F
  0
LAYER
  5
6F
330
2
100
AcDbSymbolTableRecord
100
AcDbLayerTableRecord
  2
双点划线层
 70
     0
 62
     6
  6
PHANTOM
370
    25
390
F
  0
ENDTAB
  0
TABLE
  2
STYLE
  5
3
330
0
100
AcDbSymbolTable
 70
     1
  0
STYLE
  5
11
330
3
100
AcDbSymbolTableRecord
100
AcDbTextStyleTableRecord
  2
Standard
 70
     0
 40
0.0
 41
1.0
 50
0.0
 71
     0
 42
3.5
  3
txt
  4

  0
ENDTAB
  0
TABLE
  2
VIEW
  5
6
330
0
100
AcDbSymbolTable
 70
     0
  0
ENDTAB
  0
TABLE
  2
UCS
  5
7
330
0
100
AcDbSymbolTable
 70
     0
  0
ENDTAB
  0
TABLE
  2
APPID
  5
9
330
0
100
AcDbSymbolTable
 70
     1
  0
APPID
  5
12
330
9
100
AcDbSymbolTableRecord
100
AcDbRegAppTableRecord
  2
ACAD
 70
     0
  0
ENDTAB
  0
TABLE
  2
DIMSTYLE
  5
A
330
0
100
AcDbSymbolTable
 70
     1
100
AcDbDimStyleTable
  0
DIMSTYLE
105
27
330
A
100
AcDbSymbolTableRecord
100
AcDbDimStyleTableRecord
  2
ISO-25
 70
     0
 41
2.5
 42
0.625
 43
3.75
 44
1.25
 73
     0
 74
     0
 77
     1
 78
     8
140
2.5
141
2.5
143
0.0393700787
147
0.625
171
     3
172
     1
178
     0
271
     2
272
     2
274
     3
278
    44
283
     0
284
     8
340
11
  0
ENDTAB
  0
TABLE
  2
BLOCK_RECORD
  5
1
330
0
100
AcDbSymbolTable
 70
     1
  0
BLOCK_RECORD
  5
1F
330
1
100
AcDbSymbolTableRecord
100
AcDbBlockTableRecord
  2
*Model_Space
340
22
  0
BLOCK_RECORD
  5
1B
330
1
100
AcDbSymbolTableRecord
100
AcDbBlockTableRecord
  2
*Paper_Space
340
1E
  0
BLOCK_RECORD
  5
23
330
1
100
AcDbSymbolTableRecord
100
AcDbBlockTableRecord
  2
*Paper_Space0
340
26
  0
ENDTAB
  0
ENDSEC
  0
SECTION
  2
BLOCKS
  0
BLOCK
  5
20
330
1F
100
AcDbEntity
  8
0
100
AcDbBlockBegin
  2
*Model_Space
 70
     0
 10
0.0
 20
0.0
 30
0.0
  3
*Model_Space
  1

  0
ENDBLK
  5
21
330
1F
100
AcDbEntity
  8
0
100
AcDbBlockEnd
  0
BLOCK
  5
1C
330
1B
100
AcDbEntity
 67
     1
  8
0
100
AcDbBlockBegin
  2
*Paper_Space
 70
     0
 10
0.0
 20
0.0
 30
0.0
  3
*Paper_Space
  1

  0
ENDBLK
  5
1D
330
1B
100
AcDbEntity
 67
     1
  8
0
100
AcDbBlockEnd
  0
BLOCK
  5
24
330
23
100
AcDbEntity
  8
0
100
AcDbBlockBegin
  2
*Paper_Space0
 70
     0
 10
0.0
 20
0.0
 30
0.0
  3
*Paper_Space0
  1

  0
ENDBLK
  5
25
330
23
100
AcDbEntity
  8
0
100
AcDbBlockEnd
  0
ENDSEC
  0
SECTION
  2
ENTITIES
  0
LINE
  5
70
330
1F
100
AcDbEntity
  8
0
  6
Continuous
 62
     7
370
    25
100
AcDbLine
 10
33.1977764001
 20
56.9999999998
 30
0.0
 11
33.1977764001
 21
45.4569859532
 31
0.0
  0
SPLINE
  5
71
330
1F
100
AcDbEntity
  8
0
  6
Continuous
 62
     7
370
    25
100
AcDbSpline
210
0.0
220
0.0
230
1.0
 70
     8
 71
     3
 72
    26
 73
    22
 74
     0
 42
0.00000001
 43
0.00000001
 40
0.0
 40
0.0
 40
0.0
 40
0.0
 40
0.0397359344294475
 40
0.0798239247120557
 40
0.1202639828502599
 40
0.1610561203001503
 40
0.2022003479617149
 40
0.2436966761700901
 40
0.2855451146880786
 40
0.3277456727002513
 40
0.3702983588088536
 40
0.413203181031833
 40
0.4564601468031658
 40
0.5000692629757986
 40
0.5574760260060069
 40
0.619554557685231
 40
0.6863042330859802
 40
0.7577243730836817
 40
0.8338142455350661
 40
0.9145730662664198
 40
1.0
 40
1.0
 40
1.0
 40
1.0
 10
35.78112728430067
 20
57.00000000000224
 30
0.0
 10
35.72392863977869
 20
56.99999958451411
 30
0.0
 10
35.60902457725915
 20
56.99999874985669
 30
0.0
 10
35.43887647476756
 20
56.99999391787103
 30
0.0
 10
35.27010801970781
 20
56.9999885588073
 30
0.0
 10
35.10349955432347
 20
56.99998356988699
 30
0.0
 10
34.93962280628566
 20
56.99998004303477
 30
0.0
 10
34.77912530916706
 20
56.99997859528954
 30
0.0
 10
34.62265032845173
 20
56.99997951156842
 30
0.0
 10
34.47085551062636
 20
56.99998270001473
 30
0.0
 10
34.32440430416089
 20
56.99998757298729
 30
0.0
 10
34.18396514523116
 20
56.9999934222778
 30
0.0
 10
34.05020587658689
 20
56.99999787092526
 30
0.0
 10
33.91080703479841
 20
57.00000309715052
 30
0.0
 10
33.76608327496049
 20
56.99998650416628
 30
0.0
 10
33.61928627281077
 20
56.99995295678286
 30
0.0
 10
33.48407552005546
 20
56.9999286339567
 30
0.0
 10
33.36641297514216
 20
56.9999254970706
 30
0.0
 10
33.27393382729798
 20
56.99994622035439
 30
0.0
 10
33.2102691722224
 20
56.99998533949557
 30
0.0
 10
33.20201791598793
 20
56.99999502250095
 30
0.0
 10
33.19777640009006
 20
57.00000000000015
 30
0.0
  0
LINE
  5
72
330
1F
100
AcDbEntity
  8
0
  6
Continuous
 62
     7
370
    25
100
AcDbLine
 10
35.7811272842
 20
45.0978654798
 30
0.0
 11
35.7811272843
 21
56.9999999998
 31
0.0
  0
SPLINE
  5
73
330
1F
100
AcDbEntity
  8
0
  6
Continuous
 62
     7
370
    25
100
AcDbSpline
210
0.0
220
0.0
230
1.0
 70
     8
 71
     3
 72
    18
 73
    14
 74
     0
 42
0.00000001
 43
0.00000001
 40
0.0
 40
0.0
 40
0.0
 40
0.0
 40
0.2500000000000003
 40
0.2500000000000003
 40
0.5000000000000007
 40
0.5000000000000007
 40
0.750000000000001
 40
0.750000000000001
 40
0.8750000000000006
 40
0.8750000000000006
 40
0.9375000000000003
 40
0.9375000000000003
 40
1.0
 40
1.0
 40
1.0
 40
1.0
 10
35.78112728425689
 20
45.09786548235418
 30
0.0
 10
35.4158519116185
 20
45.106400131778
 30
0.0
 10
35.07303355932947
 20
45.1217613756796
 30
0.0
 10
34.43631414958435
 20
45.16579314697704
 30
0.0
 10
34.15828490738546
 20
45.19339863084178
 30
0.0
 10
33.6890966584555
 20
45.25892371330431
 30
0.0
 10
33.50833286507469
 20
45.2954314748019
 30
0.0
 10
33.32217489336186
 20
45.35472641243858
 30
0.0
 10
33.27589188735969
 20
45.37478989934311
 30
0.0
 10
33.22923537359566
 20
45.40530789687492
 30
0.0
 10
33.21749936895952
 20
45.41555146894908
 30
0.0
 10
33.20176487302726
 20
45.43618145204295
 30
0.0
 10
33.19777640009008
 20
45.44668719670695
 30
0.0
 10
33.19777640009006
 20
45.45698595316741
 30
0.0
  0
LINE
  5
74
330
1F
100
AcDbEntity
  8
0
  6
Continuous
 62
     7
370
    25
100
AcDbLine
 10
35.7811272842
 20
68.9021345192
 30
0.0
 11
35.7811272843
 21
56.9999999998
 31
0.0
  0
LINE
  5
75
330
1F
100
AcDbEntity
  8
0
  6
Continuous
 62
     7
370
    25
100
AcDbLine
 10
33.1977764001
 20
56.9999999998
 30
0.0
 11
33.1977764001
 21
68.5430140459
 31
0.0
  0
SPLINE
  5
76
330
1F
100
AcDbEntity
  8
0
  6
Continuous
 62
     7
370
    25
100
AcDbSpline
210
0.0
220
0.0
230
1.0
 70
     8
 71
     3
 72
    18
 73
    14
 74
     0
 42
0.00000001
 43
0.00000001
 40
0.0
 40
0.0
 40
0.0
 40
0.0
 40
0.2500000000000001
 40
0.2500000000000001
 40
0.5000000000000002
 40
0.5000000000000002
 40
0.7500000000000003
 40
0.7500000000000003
 40
0.8749999999999999
 40
0.8749999999999999
 40
0.9375
 40
0.9375
 40
1.0
 40
1.0
 40
1.0
 40
1.0
 10
35.78112728425689
 20
68.90213451665277
 30
0.0
 10
35.41585191162051
 20
68.89359986723015
 30
0.0
 10
35.07303355932383
 20
68.87823862333208
 30
0.0
 10
34.43631414958023
 20
68.8342068520408
 30
0.0
 10
34.15828490738201
 20
68.80660136818001
 30
0.0
 10
33.68909665845357
 20
68.74107628572685
 30
0.0
 10
33.50833286507341
 20
68.7045685242345
 30
0.0
 10
33.32217489336133
 20
68.64527358660646
 30
0.0
 10
33.27589188735936
 20
68.62521009970493
 30
0.0
 10
33.22923537359553
 20
68.59469210217762
 30
0.0
 10
33.21749936895942
 20
68.58444853010491
 30
0.0
 10
33.20176487302724
 20
68.56381854701402
 30
0.0
 10
33.19777640009006
 20
68.55331280235175
 30
0.0
 10
33.19777640009006
 20
68.5430140458928
 30
0.0
  0
LINE
  5
77
330
1F
100
AcDbEntity
  8
0
  6
Continuous
 62
     7
370
    25
100
AcDbLine
 10
130.2348939866
 20
56.9999999996
 30
0.0
 11
130.2348939866
 21
68.9021345192
 31
0.0
  0
SPLINE
  5
78
330
1F
100
AcDbEntity
  8
0
  6
Continuous
 62
     7
370
    25
100
AcDbSpline
210
0.0
220
0.0
230
1.0
 70
     8
 71
     3
 72
    18
 73
    14
 74
     0
 42
0.00000001
 43
0.00000001
 40
0.0
 40
0.0
 40
0.0
 40
0.0
 40
0.2499999999999982
 40
0.2499999999999982
 40
0.4999999999999964
 40
0.4999999999999964
 40
0.6249999999999973
 40
0.6249999999999973
 40
0.7499999999999982
 40
0.7499999999999982
 40
0.8749999999999991
 40
0.8749999999999991
 40
1.0
 40
1.0
 40
1.0
 40
1.0
 10
130.2348939866065
 20
68.90213451665277
 30
0.0
 10
130.5729470688383
 20
68.89423591532562
 30
0.0
 10
130.8911222447635
 20
68.8805047843697
 30
0.0
 10
131.4881628871745
 20
68.84157298406149
 30
0.0
 10
131.754547146874
 20
68.81709878716372
 30
0.0
 10
132.0990553632878
 20
68.77371121732372
 30
0.0
 10
132.2041806631547
 20
68.75814346871037
 30
0.0
 10
132.3893324753561
 20
68.72576668891044
 30
0.0
 10
132.4703601408436
 20
68.70883770621873
 30
0.0
 10
132.6090172167967
 20
68.67349181441696
 30
0.0
 10
132.6664952399827
 20
68.65503104634678
 30
0.0
 10
132.7540041624429
 20
68.617750196305
 30
0.0
 10
132.7846643158587
 20
68.59879339459907
 30
0.0
 10
132.8019263427794
 20
68.579516552072
 30
0.0
  0
LINE
  5
79
330
1F
100
AcDbEntity
  8
0
  6
Continuous
 62
     7
370
    25
100
AcDbLine
 10
132.8182448708
 20
57.0
 30
0.0
 11
132.8182448708
 21
68.543014049
 31
0.0
  0
SPLINE
  5
7A
330
1F
100
AcDbEntity
  8
0
  6
Continuous
 62
     7
370
    25
100
AcDbSpline
210
0.0
220
0.0
230
1.0
 70
    24
 71
     3
 72
    18
 73
    14
 74
     0
 42
0.00000001
 43
0.00000001
 40
0.0
 40
0.0
 40
0.0
 40
0.0
 40
0.0624999999999998
 40
0.0624999999999998
 40
0.1249999999999995
 40
0.1249999999999995
 40
0.2500000000000005
 40
0.2500000000000005
 40
0.5000000000000003
 40
0.5000000000000003
 40
0.7500000000000001
 40
0.7500000000000001
 40
1.0
 40
1.0
 40
1.0
 40
1.0
 10
132.8179373386822
 20
56.99999999959643
 30
0.0
 10
132.8166846813784
 20
56.99999999959643
 30
0.0
 10
132.8114865993697
 20
56.99999999959569
 30
0.0
 10
132.7935064021481
 20
56.99999999959603
 30
0.0
 10
132.7807180464546
 20
56.99999999959641
 30
0.0
 10
132.7310968813256
 20
56.99999999959641
 30
0.0
 10
132.6830918209543
 20
56.99999999959639
 30
0.0
 10
132.4924697692588
 20
56.99999999959639
 30
0.0
 10
132.3110973098694
 20
56.99999999959634
 30
0.0
 10
131.8416431026456
 20
56.99999999959634
 30
0.0
 10
131.565898967932
 20
56.99999999959634
 30
0.0
 10
130.9344545922448
 20
56.99999999959634
 30
0.0
 10
130.5957715244428
 20
56.99999999959634
 30
0.0
 10
130.2348939865618
 20
56.99999999959634
 30
0.0
  0
LINE
  5
7B
330
1F
100
AcDbEntity
  8
0
  6
Continuous
 62
     7
370
    25
100
AcDbLine
 10
132.8182448708
 20
57.0
 30
0.0
 11
132.8182448708
 21
45.456985951
 31
0.0
  0
SPLINE
  5
7C
330
1F
100
AcDbEntity
  8
0
  6
Continuous
 62
     7
370
    25
100
AcDbSpline
210
0.0
220
0.0
230
1.0
 70
     8
 71
     3
 72
    18
 73
    14
 74
     0
 42
0.00000001
 43
0.00000001
 40
0.0
 40
0.0
 40
0.0
 40
0.0
 40
0.2499999999999983
 40
0.2499999999999983
 40
0.4999999999999967
 40
0.4999999999999967
 40
0.6249999999999974
 40
0.6249999999999974
 40
0.7499999999999983
 40
0.7499999999999983
 40
0.8749999999999991
 40
0.8749999999999991
 40
1.0
 40
1.0
 40
1.0
 40
1.0
 10
130.2348939866065
 20
45.09786548235418
 30
0.0
 10
130.5729470688392
 20
45.10576408368244
 30
0.0
 10
130.8911222447561
 20
45.1194952146417
 30
0.0
 10
131.488162887167
 20
45.15842701495518
 30
0.0
 10
131.7545471468669
 20
45.18290121185622
 30
0.0
 10
132.0990553632813
 20
45.2262887817022
 30
0.0
 10
132.2041806631487
 20
45.24185653031778
 30
0.0
 10
132.3893324753508
 20
45.27423331012223
 30
0.0
 10
132.4703601408387
 20
45.29116229281618
 30
0.0
 10
132.6090172167927
 20
45.32650818462293
 30
0.0
 10
132.6664952399792
 20
45.34496895269582
 30
0.0
 10
132.7540041624405
 20
45.38224980274296
 30
0.0
 10
132.7846643158569
 20
45.40120660445164
 30
0.0
 10
132.8019263427782
 20
45.42048344698145
 30
0.0
  0
LINE
  5
7D
330
1F
100
AcDbEntity
  8
0
  6
Continuous
 62
     7
370
    25
100
AcDbLine
 10
130.2348939866
 20
56.9999999996
 30
0.0
 11
130.2348939866
 21
45.0978654798
 31
0.0
  0
LINE
  5
7E
330
1F
100
AcDbEntity
  8
0
  6
Continuous
 62
     7
370
    25
100
AcDbLine
 10
33.1977764001
 20
45.4569859532
 30
0.0
 11
33.1977764001
 21
33.9113014728
 31
0.0
  0
SPLINE
  5
7F
330
1F
100
AcDbEntity
  8
0
  6
Continuous
 62
     7
370
    25
100
AcDbSpline
210
0.0
220
0.0
230
1.0
 70
    24
 71
     3
 72
    10
 73
     6
 74
     0
 42
0.00000001
 43
0.00000001
 40
0.0
 40
0.0
 40
0.0
 40
0.0
 40
0.5
 40
0.5
 40
1.0
 40
1.0
 40
1.0
 40
1.0
 10
35.7811272841909
 20
44.08324557916588
 30
0.0
 10
36.17288586173753
 20
44.08324557916588
 30
0.0
 10
36.57774856683326
 20
44.08324557916587
 30
0.0
 10
37.35500793963507
 20
44.08324557916588
 30
0.0
 10
37.73525752446442
 20
44.08324557916588
 30
0.0
 10
38.07865634129129
 20
44.08324557916588
 30
0.0
  0
SPLINE
  5
80
330
1F
100
AcDbEntity
  8
0
  6
Continuous
 62
     7
370
    25
100
AcDbSpline
210
0.0
220
0.0
230
1.0
 70
     8
 71
     3
 72
    12
 73
     8
 74
     0
 42
0.00000001
 43
0.00000001
 40
0.0
 40
0.0
 40
0.0
 40
0.0
 40
0.499999999999996
 40
0.499999999999996
 40
0.749999999999998
 40
0.749999999999998
 40
1.0
 40
1.0
 40
1.0
 40
1.0
 10
38.07865634140592
 20
44.08324557893619
 30
0.0
 10
37.81470182304463
 20
43.90501303678764
 30
0.0
 10
37.54556614439791
 20
43.71152352281813
 30
0.0
 10
37.13072618686085
 20
43.41012001839398
 30
0.0
 10
36.99007016990591
 20
43.30729203694511
 30
0.0
 10
36.70909365785489
 20
43.10230414949316
 30
0.0
 10
36.56671621653934
 20
42.99865090893443
 30
0.0
 10
36.42696500529859
 20
42.89788230968841
 30
0.0
  0
LINE
  5
81
330
1F
100
AcDbEntity
  8
0
  6
Continuous
 62
     7
370
    25
100
AcDbLine
 10
35.7811272842
 20
44.0832455792
 30
0.0
 11
35.7811272842
 21
45.0978654798
 31
0.0
  0
LINE
  5
82
330
1F
100
AcDbEntity
  8
0
  6
Continuous
 62
     7
370
    25
100
AcDbLine
 10
33.1977764001
 20
68.5430140459
 30
0.0
 11
33.1977764001
 21
80.0886985272
 31
0.0
  0
SPLINE
  5
83
330
1F
100
AcDbEntity
  8
0
  6
Continuous
 62
     7
370
    25
100
AcDbSpline
210
0.0
220
0.0
230
1.0
 70
     8
 71
     3
 72
    12
 73
     8
 74
     0
 42
0.00000001
 43
0.00000001
 40
0.0
 40
0.0
 40
0.0
 40
0.0
 40
0.4999999999999993
 40
0.4999999999999993
 40
0.7499999999999997
 40
0.7499999999999997
 40
1.0
 40
1.0
 40
1.0
 40
1.0
 10
38.07865634113066
 20
69.91675442050627
 30
0.0
 10
37.81470185663365
 20
70.09498693981698
 30
0.0
 10
37.54556600442444
 20
70.28847657752257
 30
0.0
 10
37.13072609728674
 20
70.58988004642747
 30
0.0
 10
36.99007009798895
 20
70.69270801502869
 30
0.0
 10
36.70909362200747
 20
70.89769587636683
 30
0.0
 10
36.56671638570143
 20
71.00134935992271
 30
0.0
 10
36.42696500529859
 20
71.10211768946793
 30
0.0
  0
SPLINE
  5
84
330
1F
100
AcDbEntity
  8
0
  6
Continuous
 62
     7
370
    25
100
AcDbSpline
210
0.0
220
0.0
230
1.0
 70
     8
 71
     3
 72
    11
 73
     7
 74
     0
 42
0.00000001
 43
0.00000001
 40
0.0
 40
0.0
 40
0.0
 40
0.0
 40
0.2503060042723632
 40
0.5004061579053405
 40
0.7503032267969393
 40
1.0
 40
1.0
 40
1.0
 40
1.0
 10
35.78112728419119
 20
69.91675442085557
 30
0.0
 10
35.83443815156294
 20
69.91675447618096
 30
0.0
 10
35.94101604366603
 20
69.91675458678621
 30
0.0
 10
36.1024963843081
 20
69.91675474488298
 30
0.0
 10
36.26455340493413
 20
69.9167544318461
 30
0.0
 10
36.37284227679535
 20
69.91675446645355
 30
0.0
 10
36.42696500529852
 20
69.91675448375035
 30
0.0
  0
SPLINE
  5
85
330
1F
100
AcDbEntity
  8
0
  6
Continuous
 62
     7
370
    25
100
AcDbSpline
210
0.0
220
0.0
230
1.0
 70
    24
 71
     3
 72
    10
 73
     6
 74
     0
 42
0.00000001
 43
0.00000001
 40
0.0
 40
0.0
 40
0.0
 40
0.0
 40
0.5
 40
0.5
 40
1.0
 40
1.0
 40
1.0
 40
1.0
 10
36.42696500529859
 20
69.91675442083412
 30
0.0
 10
36.71809482058917
 20
69.91675442083412
 30
0.0
 10
37.00262226343597
 20
69.91675442083412
 30
0.0
 10
37.55884353417811
 20
69.91675442083412
 30
0.0
 10
37.82864279488114
 20
69.91675442083412
 30
0.0
 10
38.07865634129129
 20
69.91675442083412
 30
0.0
  0
LINE
  5
86
330
1F
100
AcDbEntity
  8
0
  6
Continuous
 62
     7
370
    25
100
AcDbLine
 10
35.7811272843
 20
69.9167544208
 30
0.0
 11
35.7811272842
 21
68.9021345192
 31
0.0
  0
SPLINE
  5
87
330
1F
100
AcDbEntity
  8
0
  6
Continuous
 62
     7
370
    25
100
AcDbSpline
210
0.0
220
0.0
230
1.0
 70
     8
 71
     3
 72
    14
 73
    10
 74
     0
 42
0.00000001
 43
0.00000001
 40
0.0
 40
0.0
 40
0.0
 40
0.0
 40
0.0001208275061118
 40
0.0001208275061118
 40
0.0001208275061118
 40
0.0002706089524207
 40
0.0002706089524207
 40
0.0002706089524207
 40
0.0003674403898713
 40
0.0003674403898713
 40
0.0003674403898713
 40
0.0003674403898713
 10
129.9119824004146
 20
70.86790224467555
 30
0.0
 10
129.9445311198542
 20
70.84420261540855
 30
0.0
 10
129.9787862767911
 20
70.82281930774454
 30
0.0
 10
130.0137443815922
 20
70.80301542456938
 30
0.0
 10
130.05708690152
 20
70.77846174221014
 30
0.0
 10
130.1016994305013
 20
70.75625681151072
 30
0.0
 10
130.1467838153597
 20
70.73565791079928
 30
0.0
 10
130.1759530045599
 20
70.72233060836285
 30
0.0
 10
130.2053671804425
 20
70.70967315474594
 30
0.0
 10
130.2349074030394
 20
70.69756654753463
 30
0.0
  0
SPLINE
  5
88
330
1F
100
AcDbEntity
  8
0
  6
Continuous
 62
     7
370
    25
100
AcDbSpline
210
0.0
220
0.0
230
1.0
 70
     8
 71
     3
 72
     8
 73
     4
 74
     0
 42
0.00000001
 43
0.00000001
 40
0.0
 40
0.0
 40
0.0
 40
0.0
 40
1.0
 40
1.0
 40
1.0
 40
1.0
 10
129.5890562655647
 20
71.10211768979187
 30
0.0
 10
129.6968311892791
 20
71.02440618261477
 30
0.0
 10
129.8044248432984
 20
70.9462478308133
 30
0.0
 10
129.9119751268929
 20
70.86789218204646
 30
0.0
  0
LINE
  5
89
330
1F
100
AcDbEntity
  8
0
  6
Continuous
 62
     7
370
    25
100
AcDbLine
 10
132.8182448708
 20
68.543014049
 30
0.0
 11
132.8182448708
 21
80.0886985272
 31
0.0
  0
LINE
  5
8A
330
1F
100
AcDbEntity
  8
0
  6
Continuous
 62
     7
370
    25
100
AcDbLine
 10
130.2348939866
 20
70.6975313828
 30
0.0
 11
130.2348939866
 21
68.9021345192
 31
0.0
  0
LINE
  5
8B
330
1F
100
AcDbEntity
  8
0
  6
Continuous
 62
     7
370
    25
100
AcDbLine
 10
132.8182448708
 20
45.456985951
 30
0.0
 11
132.8182448708
 21
33.9113014728
 31
0.0
  0
SPLINE
  5
8C
330
1F
100
AcDbEntity
  8
0
  6
Continuous
 62
     7
370
    25
100
AcDbSpline
210
0.0
220
0.0
230
1.0
 70
     8
 71
     3
 72
     8
 73
     4
 74
     0
 42
0.00000001
 43
0.00000001
 40
0.0
 40
0.0
 40
0.0
 40
0.0
 40
1.0
 40
1.0
 40
1.0
 40
1.0
 10
129.5890562655647
 20
42.89788230940082
 30
0.0
 10
129.6968311892791
 20
42.97559381657794
 30
0.0
 10
129.8044248432984
 20
43.05375216837939
 30
0.0
 10
129.9119751268929
 20
43.13210781714623
 30
0.0
  0
SPLINE
  5
8D
330
1F
100
AcDbEntity
  8
0
  6
Continuous
 62
     7
370
    25
100
AcDbSpline
210
0.0
220
0.0
230
1.0
 70
     8
 71
     3
 72
    14
 73
    10
 74
     0
 42
0.00000001
 43
0.00000001
 40
0.0
 40
0.0
 40
0.0
 40
0.0
 40
0.0001208275061119
 40
0.0001208275061119
 40
0.0001208275061119
 40
0.0002706089524881
 40
0.0002706089524881
 40
0.0002706089524881
 40
0.0003674403902181
 40
0.0003674403902181
 40
0.0003674403902181
 40
0.0003674403902181
 10
129.9119824001501
 20
43.13209775487979
 30
0.0
 10
129.944531119589
 20
43.15579738414785
 30
0.0
 10
129.978786276474
 20
43.17718069190131
 30
0.0
 10
130.0137443813047
 20
43.19698457502347
 30
0.0
 10
130.0570869012979
 20
43.22153825733319
 30
0.0
 10
130.1016994301579
 20
43.24374318836678
 30
0.0
 10
130.1467838151193
 20
43.26434208892434
 30
0.0
 10
130.1759530044637
 20
43.27766939129663
 30
0.0
 10
130.2053671805148
 20
43.29032684476919
 30
0.0
 10
130.2349074031719
 20
43.30243345211949
 30
0.0
  0
LINE
  5
8E
330
1F
100
AcDbEntity
  8
0
  6
Continuous
 62
     7
370
    25
100
AcDbLine
 10
130.2348939866
 20
43.3024686172
 30
0.0
 11
130.2348939866
 21
45.0978654798
 31
0.0
  0
LINE
  5
8F
330
1F
100
AcDbEntity
  8
0
  6
Continuous
 62
     7
370
    25
100
AcDbLine
 10
129.9119751261
 20
44.0832455792
 30
0.0
 11
38.0786563413
 21
44.0832455791
 31
0.0
  0
LINE
  5
90
330
1F
100
AcDbEntity
  8
0
  6
Continuous
 62
     7
370
    25
100
AcDbLine
 10
129.9119751261
 20
69.9167544208
 30
0.0
 11
38.0786563413
 21
69.9167544208
 31
0.0
  0
SPLINE
  5
91
330
1F
100
AcDbEntity
  8
0
  6
Continuous
 62
     7
370
    25
100
AcDbSpline
210
0.0
220
0.0
230
1.0
 70
    24
 71
     3
 72
     8
 73
     4
 74
     0
 42
0.00000001
 43
0.00000001
 40
0.0
 40
0.0
 40
0.0
 40
0.0
 40
1.0
 40
1.0
 40
1.0
 40
1.0
 10
130.2348939785335
 20
69.91675442083412
 30
0.0
 10
130.1276573363407
 20
69.91675442083412
 30
0.0
 10
130.020017718858
 20
69.91675442083412
 30
0.0
 10
129.9119751260856
 20
69.91675442083412
 30
0.0
  0
SPLINE
  5
92
330
1F
100
AcDbEntity
  8
0
  6
Continuous
 62
     7
370
    25
100
AcDbSpline
210
0.0
220
0.0
230
1.0
 70
    24
 71
     3
 72
     8
 73
     4
 74
     0
 42
0.00000001
 43
0.00000001
 40
0.0
 40
0.0
 40
0.0
 40
0.0
 40
1.0
 40
1.0
 40
1.0
 40
1.0
 10
130.2348939785335
 20
44.08324557916588
 30
0.0
 10
130.1276573363407
 20
44.08324557916588
 30
0.0
 10
130.020017718858
 20
44.08324557916588
 30
0.0
 10
129.9119751260856
 20
44.08324557916588
 30
0.0
  0
ARC
  5
93
330
1F
100
AcDbEntity
  8
0
  6
Continuous
 62
     7
370
    25
100
AcDbCircle
 10
36.4269650053
 20
80.0886985272
 30
0.0
 40
3.229188605208535
100
AcDbArc
 50
90.0
 51
180.0
  0
ARC
  5
94
330
1F
100
AcDbEntity
  8
0
  6
Continuous
 62
     7
370
    25
100
AcDbCircle
 10
129.5890562656
 20
80.0886985272
 30
0.0
 40
3.229188605208549
100
AcDbArc
 50
0.0
 51
90.0
  0
ARC
  5
95
330
1F
100
AcDbEntity
  8
0
  6
Continuous
 62
     7
370
    25
100
AcDbCircle
 10
129.5890562656
 20
33.9113014728
 30
0.0
 40
3.229188605208549
100
AcDbArc
 50
270.0
 51
0.0
  0
ARC
  5
96
330
1F
100
AcDbEntity
  8
0
  6
Continuous
 62
     7
370
    25
100
AcDbCircle
 10
36.4269650053
 20
33.9113014728
 30
0.0
 40
3.229188605208535
100
AcDbArc
 50
180.0
 51
270.0
  0
LINE
  5
97
330
1F
100
AcDbEntity
  8
0
  6
Continuous
 62
     7
370
    25
100
AcDbLine
 10
36.4269650053
 20
30.6821128676
 30
0.0
 11
129.5890562656
 21
30.6821128676
 31
0.0
  0
LINE
  5
98
330
1F
100
AcDbEntity
  8
0
  6
Continuous
 62
     7
370
    25
100
AcDbLine
 10
36.4269650053
 20
83.3178871324
 30
0.0
 11
129.5890562656
 21
83.3178871324
 31
0.0
  0
LINE
  5
99
330
1F
100
AcDbEntity
  8
0
  6
HIDDEN
 62
     7
370
    18
100
AcDbLine
 10
131.5265694287
 20
68.786538409
 30
0.0
 11
131.5265694287
 21
45.213461591
 31
0.0
  0
LINE
  5
9A
330
1F
100
AcDbEntity
  8
0
  6
HIDDEN
 62
     7
370
    18
100
AcDbLine
 10
34.4894518422
 20
68.786538409
 30
0.0
 11
34.4894518422
 21
45.213461591
 31
0.0
  0
SPLINE
  5
9B
330
1F
100
AcDbEntity
  8
0
  6
HIDDEN
 62
     7
370
    18
100
AcDbSpline
210
0.0
220
0.0
230
1.0
 70
     8
 71
     3
 72
    22
 73
    18
 74
     0
 42
0.00000001
 43
0.00000001
 40
0.0
 40
0.0
 40
0.0
 40
0.0
 40
0.125
 40
0.125
 40
0.25
 40
0.25
 40
0.375
 40
0.375
 40
0.5
 40
0.5
 40
0.625
 40
0.625
 40
0.75
 40
0.75
 40
0.875
 40
0.875
 40
1.0
 40
1.0
 40
1.0
 40
1.0
 10
131.5265694286899
 20
68.78653840891384
 30
0.0
 10
131.5265694286959
 20
68.93754257468612
 30
0.0
 10
131.5125715510344
 20
69.08611079239799
 30
0.0
 10
131.4577958780289
 20
69.37859518066743
 30
0.0
 10
131.4165989819826
 20
69.52354426937622
 30
0.0
 10
131.3077123192014
 20
69.80378767003627
 30
0.0
 10
131.2410102736616
 20
69.93714948294821
 30
0.0
 10
131.0836156173116
 20
70.19068489057284
 30
0.0
 10
130.9917750650995
 20
70.31200658205442
 30
0.0
 10
130.788491317692
 20
70.53381091251212
 30
0.0
 10
130.6775288576076
 20
70.63431851248797
 30
0.0
 10
130.4369814902198
 20
70.81462089085485
 30
0.0
 10
130.3059982813816
 20
70.89489733479593
 30
0.0
 10
130.0348784409088
 20
71.02776015881668
 30
0.0
 10
129.8940271704828
 20
71.08120389590822
 30
0.0
 10
129.6015786499659
 20
71.16175451886537
 30
0.0
 10
129.4497779284791
 20
71.18861423700383
 30
0.0
 10
129.2969515337267
 20
71.2007855158824
 30
0.0
  0
SPLINE
  5
9C
330
1F
100
AcDbEntity
  8
0
  6
HIDDEN
 62
     7
370
    18
100
AcDbSpline
210
0.0
220
0.0
230
1.0
 70
     8
 71
     3
 72
    22
 73
    18
 74
     0
 42
0.00000001
 43
0.00000001
 40
0.0
 40
0.0
 40
0.0
 40
0.0
 40
0.125
 40
0.125
 40
0.25
 40
0.25
 40
0.375
 40
0.375
 40
0.5
 40
0.5
 40
0.625
 40
0.625
 40
0.75
 40
0.75
 40
0.875
 40
0.875
 40
1.0
 40
1.0
 40
1.0
 40
1.0
 10
131.5265694286899
 20
45.21346159108618
 30
0.0
 10
131.5265694286959
 20
45.06245742530975
 30
0.0
 10
131.5125715510336
 20
44.9138892075939
 30
0.0
 10
131.4577958780252
 20
44.62140481931669
 30
0.0
 10
131.4165989819765
 20
44.47645573060385
 30
0.0
 10
131.3077123191896
 20
44.19621232993761
 30
0.0
 10
131.2410102736464
 20
44.06285051702291
 30
0.0
 10
131.083615617288
 20
43.80931510939351
 30
0.0
 10
130.991775065071
 20
43.68799341790984
 30
0.0
 10
130.7884913176538
 20
43.46618908745067
 30
0.0
 10
130.677528857564
 20
43.36568148747457
 30
0.0
 10
130.4369814901645
 20
43.18537910910847
 30
0.0
 10
130.3059982813201
 20
43.10510266516882
 30
0.0
 10
130.0348784408365
 20
42.97223984115304
 30
0.0
 10
129.8940271704047
 20
42.91879610406461
 30
0.0
 10
129.6015786498756
 20
42.83824548111546
 30
0.0
 10
129.4497779284036
 20
42.81138576298507
 30
0.0
 10
129.2969515336466
 20
42.79921448411124
 30
0.0
  0
SPLINE
  5
9D
330
1F
100
AcDbEntity
  8
0
  6
HIDDEN
 62
     7
370
    18
100
AcDbSpline
210
0.0
220
0.0
230
1.0
 70
     8
 71
     3
 72
    22
 73
    18
 74
     0
 42
0.00000001
 43
0.00000001
 40
0.0
 40
0.0
 40
0.0
 40
0.0
 40
0.125
 40
0.125
 40
0.25
 40
0.25
 40
0.375
 40
0.375
 40
0.5
 40
0.5
 40
0.625
 40
0.625
 40
0.75
 40
0.75
 40
0.875
 40
0.875
 40
1.0
 40
1.0
 40
1.0
 40
1.0
 10
34.48945184217348
 20
45.21346159108618
 30
0.0
 10
34.48945184216741
 20
45.06245742531023
 30
0.0
 10
34.50344971982963
 20
44.91388920759483
 30
0.0
 10
34.55822539283771
 20
44.62140481931851
 30
0.0
 10
34.59942228888614
 20
44.47645573060613
 30
0.0
 10
34.70830895167238
 20
44.19621232994061
 30
0.0
 10
34.77501099721523
 20
44.06285051702622
 30
0.0
 10
34.93240565357266
 20
43.80931510939737
 30
0.0
 10
35.02424620578912
 20
43.68799341791393
 30
0.0
 10
35.22752995320523
 20
43.46618908745493
 30
0.0
 10
35.33849241329435
 20
43.36568148747886
 30
0.0
 10
35.57903978069251
 20
43.18537910911267
 30
0.0
 10
35.71002298953618
 20
43.10510266517286
 30
0.0
 10
35.98114283001858
 20
42.97223984115651
 30
0.0
 10
36.12199410044974
 20
42.91879610406772
 30
0.0
 10
36.41444262097738
 20
42.83824548111766
 30
0.0
 10
36.56624334246024
 20
42.81138576298503
 30
0.0
 10
36.71906973721676
 20
42.79921448411124
 30
0.0
  0
SPLINE
  5
9E
330
1F
100
AcDbEntity
  8
0
  6
HIDDEN
 62
     7
370
    18
100
AcDbSpline
210
0.0
220
0.0
230
1.0
 70
     8
 71
     3
 72
    22
 73
    18
 74
     0
 42
0.00000001
 43
0.00000001
 40
0.0
 40
0.0
 40
0.0
 40
0.0
 40
0.125
 40
0.125
 40
0.25
 40
0.25
 40
0.375
 40
0.375
 40
0.5
 40
0.5
 40
0.625
 40
0.625
 40
0.75
 40
0.75
 40
0.875
 40
0.875
 40
1.0
 40
1.0
 40
1.0
 40
1.0
 10
34.48945184217348
 20
68.78653840891384
 30
0.0
 10
34.48945184216741
 20
68.9375425746841
 30
0.0
 10
34.50344971983451
 20
69.0861107924416
 30
0.0
 10
34.55822539284429
 20
69.37859518070624
 30
0.0
 10
34.59942228889263
 20
69.52354426941305
 30
0.0
 10
34.70830895167635
 20
69.80378767006715
 30
0.0
 10
34.77501099721697
 20
69.93714948297632
 30
0.0
 10
34.93240565356821
 20
70.19068489059576
 30
0.0
 10
35.02424620578053
 20
70.31200658207491
 30
0.0
 10
35.22752995318735
 20
70.53381091252737
 30
0.0
 10
35.33849241327113
 20
70.63431851250091
 30
0.0
 10
35.57903978065718
 20
70.81462089086371
 30
0.0
 10
35.71002298949424
 20
70.89489733480286
 30
0.0
 10
35.9811428299639
 20
71.02776015882044
 30
0.0
 10
36.12199410038829
 20
71.08120389591075
 30
0.0
 10
36.4144426209015
 20
71.16175451886608
 30
0.0
 10
36.56624334238631
 20
71.188614237004
 30
0.0
 10
36.71906973713664
 20
71.2007855158824
 30
0.0
  0
ARC
  5
9F
330
1F
100
AcDbEntity
  8
0
  6
HIDDEN
 62
     7
370
    18
100
AcDbCircle
 10
36.9113432961
 20
45.213461591
 30
0.0
 40
2.421891454157383
100
AcDbArc
 50
265.446505792
 51
270.0
  0
ARC
  5
A0
330
1F
100
AcDbEntity
  8
0
  6
HIDDEN
 62
     7
370
    18
100
AcDbCircle
 10
129.1046779748
 20
45.213461591
 30
0.0
 40
2.421891454157383
100
AcDbArc
 50
270.0
 51
274.553494208
  0
LINE
  5
A1
330
1F
100
AcDbEntity
  8
0
  6
HIDDEN
 62
     7
370
    18
100
AcDbLine
 10
36.9113432961
 20
42.7915701371
 30
0.0
 11
129.1046779748
 21
42.7915701371
 31
0.0
  0
ARC
  5
A2
330
1F
100
AcDbEntity
  8
0
  6
HIDDEN
 62
     7
370
    18
100
AcDbCircle
 10
36.9113432961
 20
68.786538409
 30
0.0
 40
2.421891453906369
100
AcDbArc
 50
90.0
 51
94.5534942095
  0
ARC
  5
A3
330
1F
100
AcDbEntity
  8
0
  6
HIDDEN
 62
     7
370
    18
100
AcDbCircle
 10
129.1046779748
 20
68.786538409
 30
0.0
 40
2.421891453906369
100
AcDbArc
 50
85.4465057905
 51
90.0
  0
LINE
  5
A4
330
1F
100
AcDbEntity
  8
0
  6
HIDDEN
 62
     7
370
    18
100
AcDbLine
 10
36.9113432961
 20
71.2084298629
 30
0.0
 11
129.1046779748
 21
71.2084298629
 31
0.0
  0
LINE
  5
A5
330
1F
100
AcDbEntity
  8
0
  6
HIDDEN
 62
     7
370
    18
100
AcDbLine
 10
36.7190697372
 20
71.2007855153
 30
0.0
 11
129.2969515337
 21
71.2007855153
 31
0.0
  0
LINE
  5
A6
330
1F
100
AcDbEntity
  8
0
  6
HIDDEN
 62
     7
370
    18
100
AcDbLine
 10
36.7190697372
 20
42.7992144839
 30
0.0
 11
129.2969515337
 21
42.7992144839
 31
0.0
  0
LINE
  5
A7
330
1F
100
AcDbEntity
  8
0
  6
HIDDEN
 62
     7
370
    18
100
AcDbLine
 10
131.4458397136
 20
79.2814013759
 30
0.0
 11
131.4458397136
 21
80.2859152439
 31
0.0
  0
LINE
  5
A8
330
1F
100
AcDbEntity
  8
0
  6
HIDDEN
 62
     7
370
    18
100
AcDbLine
 10
124.9874625031
 20
72.8230241655
 30
0.0
 11
111.1748727165
 21
72.8230241655
 31
0.0
  0
LINE
  5
A9
330
1F
100
AcDbEntity
  8
0
  6
HIDDEN
 62
     7
370
    18
100
AcDbLine
 10
111.1748727165
 20
81.2904291122
 30
0.0
 11
111.1748727165
 21
72.8230241655
 31
0.0
  0
LINE
  5
AA
330
1F
100
AcDbEntity
  8
0
  6
HIDDEN
 62
     7
370
    18
100
AcDbLine
 10
131.4458397136
 20
34.7185986241
 30
0.0
 11
131.4458397136
 21
33.7140847561
 31
0.0
  0
LINE
  5
AB
330
1F
100
AcDbEntity
  8
0
  6
HIDDEN
 62
     7
370
    18
100
AcDbLine
 10
124.9874625031
 20
41.1769758345
 30
0.0
 11
111.1748727165
 21
41.1769758345
 31
0.0
  0
LINE
  5
AC
330
1F
100
AcDbEntity
  8
0
  6
HIDDEN
 62
     7
370
    18
100
AcDbLine
 10
111.1748727165
 20
32.7095708878
 30
0.0
 11
111.1748727165
 21
41.1769758345
 31
0.0
  0
SPLINE
  5
AD
330
1F
100
AcDbEntity
  8
0
  6
HIDDEN
 62
     7
370
    18
100
AcDbSpline
210
0.0
220
0.0
230
1.0
 70
     8
 71
     3
 72
    14
 73
    10
 74
     0
 42
0.00000001
 43
0.00000001
 40
0.0
 40
0.0
 40
0.0
 40
0.0
 40
0.25
 40
0.25
 40
0.5
 40
0.5
 40
0.75
 40
0.75
 40
1.0
 40
1.0
 40
1.0
 40
1.0
 10
131.4458397135597
 20
79.28140137593887
 30
0.0
 10
131.4458397135596
 20
78.43600177212953
 30
0.0
 10
131.2777451057219
 20
77.5909318722818
 30
0.0
 10
130.6307001853328
 20
76.02883149503008
 30
0.0
 10
130.1520046971305
 20
75.31241619956991
 30
0.0
 10
128.9564241052262
 20
74.11684106485555
 30
0.0
 10
128.2400096579805
 20
73.6381514737904
 30
0.0
 10
126.6779181424958
 20
72.99111583550659
 30
0.0
 10
125.832862104181
 20
72.8230241655218
 30
0.0
 10
124.9874625031426
 20
72.8230241655218
 30
0.0
  0
SPLINE
  5
AE
330
1F
100
AcDbEntity
  8
0
  6
HIDDEN
 62
     7
370
    18
100
AcDbSpline
210
0.0
220
0.0
230
1.0
 70
     8
 71
     3
 72
    28
 73
    24
 74
     0
 42
0.00000001
 43
0.00000001
 40
0.0
 40
0.0
 40
0.0
 40
0.0
 40
0.023324843753139
 40
0.0467203004710443
 40
0.0701952380458077
 40
0.0937584346323657
 40
0.1174185701501989
 40
0.1411842183034631
 40
0.1650638391466357
 40
0.1890657722166683
 40
0.2131982302466303
 40
0.2374692934699706
 40
0.3558559342985
 40
0.4821296278896311
 40
0.5437690335219774
 40
0.6085923663346247
 40
0.6707974939193325
 40
0.7374992282537639
 40
0.7991658467494347
 40
0.8682459375041689
 40
0.9023810416823305
 40
0.9462995978245603
 40
1.0
 40
1.0
 40
1.0
 40
1.0
 10
131.4458397135597
 20
34.71859862406112
 30
0.0
 10
131.4449031768963
 20
34.80214977011203
 30
0.0
 10
131.4430272683254
 20
34.96950500256343
 30
0.0
 10
131.4278322552175
 20
35.22047345558832
 30
0.0
 10
131.4035088047967
 20
35.47134025132245
 30
0.0
 10
131.3691255343174
 20
35.72171581613672
 30
0.0
 10
131.3248981358659
 20
35.97120640430336
 30
0.0
 10
131.2707534821039
 20
36.21941423137709
 30
0.0
 10
131.2067156998866
 20
36.46593978063891
 30
0.0
 10
131.1328068454852
 20
36.71037613390812
 30
0.0
 10
131.0490574700582
 20
36.95233336082426
 30
0.0
 10
130.8349244810589
 20
37.49977895378697
 30
0.0
 10
130.3900512126537
 20
38.33322034307718
 30
0.0
 10
129.7214223909427
 20
39.14740768762137
 30
0.0
 10
129.09196153044
 20
39.7183827699246
 30
0.0
 10
128.5875709425995
 20
40.09284670388011
 30
0.0
 10
128.0402077788281
 20
40.42172039052042
 30
0.0
 10
127.477248409052
 20
40.68874535662751
 30
0.0
 10
126.8746217673244
 20
40.90593210857607
 30
0.0
 10
126.3584726750678
 20
41.03671041128937
 30
0.0
 10
125.8926288482649
 20
41.11666294498276
 30
0.0
 10
125.472425250733
 20
41.16595379616859
 30
0.0
 10
125.1595666840012
 20
41.17306431986374
 30
0.0
 10
124.9874625031426
 20
41.17697583447819
 30
0.0
  0
LINE
  5
AF
330
1F
100
AcDbEntity
  8
0
  6
HIDDEN
 62
     7
370
    18
100
AcDbLine
 10
110.206116135
 20
72.8230241655
 30
0.0
 11
89.292396951
 21
72.8230241655
 31
0.0
  0
LINE
  5
B0
330
1F
100
AcDbEntity
  8
0
  6
HIDDEN
 62
     7
370
    18
100
AcDbLine
 10
89.292396951
 20
81.2904291122
 30
0.0
 11
89.292396951
 21
72.8230241655
 31
0.0
  0
LINE
  5
B1
330
1F
100
AcDbEntity
  8
0
  6
HIDDEN
 62
     7
370
    18
100
AcDbLine
 10
110.206116135
 20
81.2904291122
 30
0.0
 11
110.206116135
 21
72.8230241655
 31
0.0
  0
LINE
  5
B2
330
1F
100
AcDbEntity
  8
0
  6
HIDDEN
 62
     7
370
    18
100
AcDbLine
 10
110.206116135
 20
41.1769758345
 30
0.0
 11
89.292396951
 21
41.1769758345
 31
0.0
  0
LINE
  5
B3
330
1F
100
AcDbEntity
  8
0
  6
HIDDEN
 62
     7
370
    18
100
AcDbLine
 10
110.206116135
 20
32.7095708878
 30
0.0
 11
110.206116135
 21
41.1769758345
 31
0.0
  0
LINE
  5
B4
330
1F
100
AcDbEntity
  8
0
  6
HIDDEN
 62
     7
370
    18
100
AcDbLine
 10
89.292396951
 20
32.7095708878
 30
0.0
 11
89.292396951
 21
41.1769758345
 31
0.0
  0
LINE
  5
B5
330
1F
100
AcDbEntity
  8
0
  6
HIDDEN
 62
     7
370
    18
100
AcDbLine
 10
88.3236403694
 20
82.0262116904
 30
0.0
 11
88.3236403694
 21
77.2516256807
 31
0.0
  0
LINE
  5
B6
330
1F
100
AcDbEntity
  8
0
  6
HIDDEN
 62
     7
370
    18
100
AcDbLine
 10
68.5518225224
 20
82.0262116904
 30
0.0
 11
88.3236403694
 21
82.0262116904
 31
0.0
  0
LINE
  5
B7
330
1F
100
AcDbEntity
  8
0
  6
HIDDEN
 62
     7
370
    18
100
AcDbLine
 10
68.5518225224
 20
77.2516256807
 30
0.0
 11
68.5518225224
 21
82.0262116904
 31
0.0
  0
LINE
  5
B8
330
1F
100
AcDbEntity
  8
0
  6
HIDDEN
 62
     7
370
    18
100
AcDbLine
 10
68.5518225224
 20
31.9737883096
 30
0.0
 11
88.3236403694
 21
31.9737883096
 31
0.0
  0
LINE
  5
B9
330
1F
100
AcDbEntity
  8
0
  6
HIDDEN
 62
     7
370
    18
100
AcDbLine
 10
68.5518225224
 20
36.7483743185
 30
0.0
 11
68.5518225224
 21
31.9737883096
 31
0.0
  0
LINE
  5
BA
330
1F
100
AcDbEntity
  8
0
  6
HIDDEN
 62
     7
370
    18
100
AcDbLine
 10
88.3236403694
 20
31.9737883096
 30
0.0
 11
88.3236403694
 21
36.7483743185
 31
0.0
  0
LINE
  5
BB
330
1F
100
AcDbEntity
  8
0
  6
HIDDEN
 62
     7
370
    18
100
AcDbLine
 10
131.4458397136
 20
81.8647522601
 30
0.0
 11
131.4458397136
 21
80.2859152441
 31
0.0
  0
LINE
  5
BC
330
1F
100
AcDbEntity
  8
0
  6
HIDDEN
 62
     7
370
    18
100
AcDbLine
 10
131.4458397136
 20
81.8647522601
 30
0.0
 11
128.2166511084
 21
81.8647522601
 31
0.0
  0
LINE
  5
BD
330
1F
100
AcDbEntity
  8
0
  6
HIDDEN
 62
     7
370
    18
100
AcDbLine
 10
131.4458397136
 20
32.1352477399
 30
0.0
 11
128.2166511084
 21
32.1352477399
 31
0.0
  0
LINE
  5
BE
330
1F
100
AcDbEntity
  8
0
  6
HIDDEN
 62
     7
370
    18
100
AcDbLine
 10
131.4458397136
 20
32.1352477399
 30
0.0
 11
131.4458397136
 21
33.7140847559
 31
0.0
  0
LINE
  5
BF
330
1F
100
AcDbEntity
  8
0
  6
HIDDEN
 62
     7
370
    18
100
AcDbLine
 10
89.292396951
 20
81.8647522601
 30
0.0
 11
89.292396951
 21
81.2904291122
 31
0.0
  0
LINE
  5
C0
330
1F
100
AcDbEntity
  8
0
  6
HIDDEN
 62
     7
370
    18
100
AcDbLine
 10
111.1748727165
 20
81.8390539969
 30
0.0
 11
111.1748727165
 21
81.2904291122
 31
0.0
  0
LINE
  5
C1
330
1F
100
AcDbEntity
  8
0
  6
HIDDEN
 62
     7
370
    18
100
AcDbLine
 10
110.206116135
 20
81.8390539969
 30
0.0
 11
110.206116135
 21
81.2904291122
 31
0.0
  0
LINE
  5
C2
330
1F
100
AcDbEntity
  8
0
  6
HIDDEN
 62
     7
370
    18
100
AcDbLine
 10
111.1748727165
 20
32.1609460022
 30
0.0
 11
111.1748727165
 21
32.7095708878
 31
0.0
  0
LINE
  5
C3
330
1F
100
AcDbEntity
  8
0
  6
HIDDEN
 62
     7
370
    18
100
AcDbLine
 10
110.206116135
 20
32.1609460022
 30
0.0
 11
110.206116135
 21
32.7095708878
 31
0.0
  0
LINE
  5
C4
330
1F
100
AcDbEntity
  8
0
  6
HIDDEN
 62
     7
370
    18
100
AcDbLine
 10
89.292396951
 20
32.1352477399
 30
0.0
 11
89.292396951
 21
32.7095708878
 31
0.0
  0
LINE
  5
C5
330
1F
100
AcDbEntity
  8
0
  6
HIDDEN
 62
     7
370
    18
100
AcDbLine
 10
68.5518225224
 20
73.4823927705
 30
0.0
 11
88.3236403694
 21
73.4823927705
 31
0.0
  0
LINE
  5
C6
330
1F
100
AcDbEntity
  8
0
  6
HIDDEN
 62
     7
370
    18
100
AcDbLine
 10
68.5518225224
 20
72.8230241655
 30
0.0
 11
68.5518225224
 21
77.2516256807
 31
0.0
  0
LINE
  5
C7
330
1F
100
AcDbEntity
  8
0
  6
HIDDEN
 62
     7
370
    18
100
AcDbLine
 10
88.3236403694
 20
72.8230241655
 30
0.0
 11
88.3236403694
 21
77.2516256807
 31
0.0
  0
LINE
  5
C8
330
1F
100
AcDbEntity
  8
0
  6
HIDDEN
 62
     7
370
    18
100
AcDbLine
 10
68.5518225224
 20
40.5176072287
 30
0.0
 11
88.3236403694
 21
40.5176072287
 31
0.0
  0
LINE
  5
C9
330
1F
100
AcDbEntity
  8
0
  6
HIDDEN
 62
     7
370
    18
100
AcDbLine
 10
68.5518225224
 20
41.1769758345
 30
0.0
 11
68.5518225224
 21
36.7483743185
 31
0.0
  0
LINE
  5
CA
330
1F
100
AcDbEntity
  8
0
  6
HIDDEN
 62
     7
370
    18
100
AcDbLine
 10
88.3236403694
 20
41.1769758345
 30
0.0
 11
88.3236403694
 21
36.7483743185
 31
0.0
  0
LINE
  5
CB
330
1F
100
AcDbEntity
  8
0
  6
HIDDEN
 62
     7
370
    18
100
AcDbLine
 10
110.206116135
 20
32.1609460022
 30
0.0
 11
111.1748727165
 21
32.1609460022
 31
0.0
  0
LINE
  5
CC
330
1F
100
AcDbEntity
  8
0
  6
HIDDEN
 62
     7
370
    18
100
AcDbLine
 10
110.206116135
 20
81.8390539969
 30
0.0
 11
111.1748727165
 21
81.8390539969
 31
0.0
  0
LINE
  5
CD
330
1F
100
AcDbEntity
  8
0
  6
HIDDEN
 62
     7
370
    18
100
AcDbLine
 10
128.2166511084
 20
32.1352477399
 30
0.0
 11
89.292396951
 21
32.1352477399
 31
0.0
  0
LINE
  5
CE
330
1F
100
AcDbEntity
  8
0
  6
HIDDEN
 62
     7
370
    18
100
AcDbLine
 10
128.2166511084
 20
81.8647522601
 30
0.0
 11
89.292396951
 21
81.8647522601
 31
0.0
  0
ARC
  5
CF
330
1F
100
AcDbEntity
  8
0
  6
HIDDEN
 62
     7
370
    18
100
AcDbCircle
 10
76.5496334848
 20
36.212098354
 30
0.0
 40
2.018242878387859
100
AcDbArc
 50
85.2820895157
 51
267.5839514516
  0
LINE
  5
D0
330
1F
100
AcDbEntity
  8
0
  6
HIDDEN
 62
     7
370
    18
100
AcDbLine
 10
76.4645534342
 20
34.1956495693
 30
0.0
 11
79.5117582101
 21
34.1948140838
 31
0.0
  0
ARC
  5
D1
330
1F
100
AcDbEntity
  8
0
  6
HIDDEN
 62
     7
370
    18
100
AcDbCircle
 10
83.0080106952
 20
36.212098354
 30
0.0
 40
4.036485756980889
100
AcDbArc
 50
209.9842893055
 51
150.0622868194
  0
LINE
  5
D2
330
1F
100
AcDbEntity
  8
0
  6
HIDDEN
 62
     7
370
    18
100
AcDbLine
 10
76.7156340632
 20
38.2235028691
 30
0.0
 11
79.5101195018
 21
38.2265398306
 31
0.0
  0
ARC
  5
D3
330
1F
100
AcDbEntity
  8
0
  6
HIDDEN
 62
     7
370
    18
100
AcDbCircle
 10
83.0080106952
 20
77.787901646
 30
0.0
 40
4.036485757010965
100
AcDbArc
 50
209.9377131905
 51
150.0157107044
  0
LINE
  5
D4
330
1F
100
AcDbEntity
  8
0
  6
HIDDEN
 62
     7
370
    18
100
AcDbLine
 10
76.7156340632
 20
75.7764971309
 30
0.0
 11
79.5101195018
 21
75.7734601686
 31
0.0
  0
LINE
  5
D5
330
1F
100
AcDbEntity
  8
0
  6
HIDDEN
 62
     7
370
    18
100
AcDbLine
 10
76.4645534342
 20
79.8043504299
 30
0.0
 11
79.5117582101
 21
79.8051859154
 31
0.0
  0
ARC
  5
D6
330
1F
100
AcDbEntity
  8
0
  6
HIDDEN
 62
     7
370
    18
100
AcDbCircle
 10
76.5496334848
 20
77.787901646
 30
0.0
 40
2.018242878257718
100
AcDbArc
 50
92.4160485494
 51
274.7179104843
  0
ARC
  5
D7
330
1F
100
AcDbEntity
  8
0
  6
HIDDEN
 62
     7
370
    18
100
AcDbCircle
 10
129.0239482597
 20
38.7550843806
 30
0.0
 40
2.421891453906426
100
AcDbArc
 50
0.0
 51
90.0
  0
LINE
  5
D8
330
1F
100
AcDbEntity
  8
0
  6
HIDDEN
 62
     7
370
    18
100
AcDbLine
 10
36.9920730112
 20
41.1769758345
 30
0.0
 11
68.5518225224
 21
41.1769758345
 31
0.0
  0
LINE
  5
D9
330
1F
100
AcDbEntity
  8
0
  6
HIDDEN
 62
     7
370
    18
100
AcDbLine
 10
88.3236403694
 20
41.1769758345
 30
0.0
 11
89.292396951
 21
41.1769758345
 31
0.0
  0
LINE
  5
DA
330
1F
100
AcDbEntity
  8
0
  6
HIDDEN
 62
     7
370
    18
100
AcDbLine
 10
110.206116135
 20
41.1769758345
 30
0.0
 11
111.1748727165
 21
41.1769758345
 31
0.0
  0
LINE
  5
DB
330
1F
100
AcDbEntity
  8
0
  6
HIDDEN
 62
     7
370
    18
100
AcDbLine
 10
124.9874625031
 20
41.1769758345
 30
0.0
 11
129.0239482597
 21
41.1769758345
 31
0.0
  0
LINE
  5
DC
330
1F
100
AcDbEntity
  8
0
  6
HIDDEN
 62
     7
370
    18
100
AcDbLine
 10
34.5701815573
 20
38.7550843806
 30
0.0
 11
34.5701815573
 21
31.2693298079
 31
0.0
  0
ARC
  5
DD
330
1F
100
AcDbEntity
  8
0
  6
HIDDEN
 62
     7
370
    18
100
AcDbCircle
 10
36.9920730112
 20
38.7550843806
 30
0.0
 40
2.421891453906397
100
AcDbArc
 50
90.0
 51
180.0
  0
LINE
  5
DE
330
1F
100
AcDbEntity
  8
0
  6
HIDDEN
 62
     7
370
    18
100
AcDbLine
 10
131.4458397136
 20
38.7550843806
 30
0.0
 11
131.4458397136
 21
34.7185986241
 31
0.0
  0
LINE
  5
DF
330
1F
100
AcDbEntity
  8
0
  6
HIDDEN
 62
     7
370
    18
100
AcDbLine
 10
131.4458397136
 20
32.1352477399
 30
0.0
 11
131.4458397136
 21
31.2693298079
 31
0.0
  0
LINE
  5
E0
330
1F
100
AcDbEntity
  8
0
  6
HIDDEN
 62
     7
370
    18
100
AcDbLine
 10
131.4458397136
 20
75.2449156194
 30
0.0
 11
131.4458397136
 21
79.2814013759
 31
0.0
  0
LINE
  5
E1
330
1F
100
AcDbEntity
  8
0
  6
HIDDEN
 62
     7
370
    18
100
AcDbLine
 10
131.4458397136
 20
81.8647522601
 30
0.0
 11
131.4458397136
 21
82.7306701913
 31
0.0
  0
ARC
  5
E2
330
1F
100
AcDbEntity
  8
0
  6
HIDDEN
 62
     7
370
    18
100
AcDbCircle
 10
129.0239482597
 20
75.2449156194
 30
0.0
 40
2.421891453906426
100
AcDbArc
 50
270.0
 51
0.0
  0
LINE
  5
E3
330
1F
100
AcDbEntity
  8
0
  6
HIDDEN
 62
     7
370
    18
100
AcDbLine
 10
36.9920730112
 20
72.8230241655
 30
0.0
 11
68.5518225224
 21
72.8230241655
 31
0.0
  0
LINE
  5
E4
330
1F
100
AcDbEntity
  8
0
  6
HIDDEN
 62
     7
370
    18
100
AcDbLine
 10
88.3236403694
 20
72.8230241655
 30
0.0
 11
89.292396951
 21
72.8230241655
 31
0.0
  0
LINE
  5
E5
330
1F
100
AcDbEntity
  8
0
  6
HIDDEN
 62
     7
370
    18
100
AcDbLine
 10
110.206116135
 20
72.8230241655
 30
0.0
 11
111.1748727165
 21
72.8230241655
 31
0.0
  0
LINE
  5
E6
330
1F
100
AcDbEntity
  8
0
  6
HIDDEN
 62
     7
370
    18
100
AcDbLine
 10
124.9874625031
 20
72.8230241655
 30
0.0
 11
129.0239482597
 21
72.8230241655
 31
0.0
  0
ARC
  5
E7
330
1F
100
AcDbEntity
  8
0
  6
HIDDEN
 62
     7
370
    18
100
AcDbCircle
 10
36.9920730112
 20
75.2449156194
 30
0.0
 40
2.421891453906397
100
AcDbArc
 50
180.0
 51
270.0
  0
LINE
  5
E8
330
1F
100
AcDbEntity
  8
0
  6
HIDDEN
 62
     7
370
    18
100
AcDbLine
 10
34.5701815573
 20
75.2449156194
 30
0.0
 11
34.5701815573
 21
82.7306701913
 31
0.0
  0
LINE
  5
E9
330
1F
100
AcDbEntity
  8
0
  6
HIDDEN
 62
     7
370
    18
100
AcDbLine
 10
68.5518225224
 20
72.8230241655
 30
0.0
 11
88.3236403694
 21
72.8230241655
 31
0.0
  0
LINE
  5
EA
330
1F
100
AcDbEntity
  8
0
  6
HIDDEN
 62
     7
370
    18
100
AcDbLine
 10
88.3236403694
 20
41.1769758345
 30
0.0
 11
68.5518225224
 21
41.1769758345
 31
0.0
  0
LINE
  5
EB
330
1F
100
AcDbEntity
  8
0
  6
Continuous
 62
     7
370
    25
100
AcDbLine
 10
36.6524267943
 20
151.5859285998
 30
0.0
 11
129.8162044401
 21
151.5859285998
 31
0.0
  0
LINE
  5
EC
330
1F
100
AcDbEntity
  8
0
  6
Continuous
 62
     7
370
    25
100
AcDbLine
 10
131.4458397136
 20
165.7078514111
 30
0.0
 11
129.5890562656
 21
165.7078514111
 31
0.0
  0
LINE
  5
ED
330
1F
100
AcDbEntity
  8
0
  6
Continuous
 62
     7
370
    25
100
AcDbLine
 10
131.4458397136
 20
165.7093068774
 30
0.0
 11
131.4458397136
 21
165.7078514111
 31
0.0
  0
LINE
  5
EE
330
1F
100
AcDbEntity
  8
0
  6
Continuous
 62
     7
370
    25
100
AcDbLine
 10
132.8182448708
 20
165.7093068774
 30
0.0
 11
131.4458397136
 21
165.7093068774
 31
0.0
  0
LINE
  5
EF
330
1F
100
AcDbEntity
  8
0
  6
Continuous
 62
     7
370
    25
100
AcDbLine
 10
132.8182448708
 20
157.3102001804
 30
0.0
 11
132.8182448708
 21
165.7093068774
 31
0.0
  0
LINE
  5
F0
330
1F
100
AcDbEntity
  8
0
  6
Continuous
 62
     7
370
    25
100
AcDbLine
 10
36.4269650053
 20
165.7078514111
 30
0.0
 11
129.5890562656
 21
165.7078514111
 31
0.0
  0
LINE
  5
F1
330
1F
100
AcDbEntity
  8
0
  6
Continuous
 62
     7
370
    25
100
AcDbLine
 10
34.5701815573
 20
165.7093068774
 30
0.0
 11
34.5701815573
 21
165.7078514111
 31
0.0
  0
LINE
  5
F2
330
1F
100
AcDbEntity
  8
0
  6
Continuous
 62
     7
370
    25
100
AcDbLine
 10
33.1977764001
 20
157.3102001804
 30
0.0
 11
33.1977764001
 21
165.7093068774
 31
0.0
  0
LINE
  5
F3
330
1F
100
AcDbEntity
  8
0
  6
Continuous
 62
     7
370
    25
100
AcDbLine
 10
33.1977764001
 20
165.7093068774
 30
0.0
 11
34.5701815573
 21
165.7093068774
 31
0.0
  0
LINE
  5
F4
330
1F
100
AcDbEntity
  8
0
  6
Continuous
 62
     7
370
    25
100
AcDbLine
 10
34.5701815573
 20
165.7078514111
 30
0.0
 11
36.4269650053
 21
165.7078514111
 31
0.0
  0
SPLINE
  5
F5
330
1F
100
AcDbEntity
  8
0
  6
Continuous
 62
     7
370
    25
100
AcDbSpline
210
0.0
220
0.0
230
1.0
 70
     8
 71
     3
 72
    18
 73
    14
 74
     0
 42
0.00000001
 43
0.00000001
 40
0.0
 40
0.0
 40
0.0
 40
0.0
 40
0.2499999999999982
 40
0.2499999999999982
 40
0.4999999999999964
 40
0.4999999999999964
 40
0.6249999999999973
 40
0.6249999999999973
 40
0.7499999999999982
 40
0.7499999999999982
 40
0.8749999999999991
 40
0.8749999999999991
 40
1.0
 40
1.0
 40
1.0
 40
1.0
 10
130.2348939866065
 20
151.507347004354
 30
0.0
 10
130.5729470688383
 20
151.5761110910282
 30
0.0
 10
130.8911222447635
 20
151.6956682750174
 30
0.0
 10
131.4881628871745
 20
152.0352363460176
 30
0.0
 10
131.754547146874
 20
152.2489193607531
 30
0.0
 10
132.0990553632878
 20
152.6286566261018
 30
0.0
 10
132.2041806631547
 20
152.7650442956746
 30
0.0
 10
132.3893324753561
 20
153.0490588715167
 30
0.0
 10
132.4703601408436
 20
153.197734739664
 30
0.0
 10
132.6090172167967
 20
153.5085993333861
 30
0.0
 10
132.6664952399827
 20
153.6711791487732
 30
0.0
 10
132.7540041624429
 20
154.0000151175965
 30
0.0
 10
132.7846643158587
 20
154.1674720220512
 30
0.0
 10
132.8019263427794
 20
154.3380387731923
 30
0.0
  0
LINE
  5
F6
330
1F
100
AcDbEntity
  8
0
  6
Continuous
 62
     7
370
    25
100
AcDbLine
 10
130.2348939866
 20
151.6208762552
 30
0.0
 11
130.2348939866
 21
151.5073470045
 31
0.0
  0
SPLINE
  5
F7
330
1F
100
AcDbEntity
  8
0
  6
Continuous
 62
     7
370
    25
100
AcDbSpline
210
0.0
220
0.0
230
1.0
 70
     8
 71
     3
 72
    14
 73
    10
 74
     0
 42
0.00000001
 43
0.00000001
 40
0.0
 40
0.0
 40
0.0
 40
0.0
 40
0.0001208275061118
 40
0.0001208275061118
 40
0.0001208275061118
 40
0.0002706089524207
 40
0.0002706089524207
 40
0.0002706089524207
 40
0.0003674403898713
 40
0.0003674403898713
 40
0.0003674403898713
 40
0.0003674403898713
 10
129.9119824004146
 20
151.5874335156064
 30
0.0
 10
129.9445311198542
 20
151.5884588693283
 30
0.0
 10
129.9787862767911
 20
151.5904130842659
 30
0.0
 10
130.0137443815922
 20
151.5932202242159
 30
0.0
 10
130.05708690152
 20
151.5967006336922
 30
0.0
 10
130.1016994305013
 20
151.6015050593843
 30
0.0
 10
130.1467838153597
 20
151.6075593250404
 30
0.0
 10
130.1759530045599
 20
151.6114763801571
 30
0.0
 10
130.2053671804425
 20
151.6159216157651
 30
0.0
 10
130.2349074030394
 20
151.6208821823022
 30
0.0
  0
SPLINE
  5
F8
330
1F
100
AcDbEntity
  8
0
  6
Continuous
 62
     7
370
    25
100
AcDbSpline
210
0.0
220
0.0
230
1.0
 70
     8
 71
     3
 72
     8
 73
     4
 74
     0
 42
0.00000001
 43
0.00000001
 40
0.0
 40
0.0
 40
0.0
 40
0.0
 40
1.0
 40
1.0
 40
1.0
 40
1.0
 10
129.5890562655647
 20
151.5943374949047
 30
0.0
 10
129.6968311892791
 20
151.5863751747685
 30
0.0
 10
129.8044248432984
 20
151.5840483038039
 30
0.0
 10
129.9119751268929
 20
151.5874318217909
 30
0.0
  0
LINE
  5
F9
330
1F
100
AcDbEntity
  8
0
  6
Continuous
 62
     7
370
    25
100
AcDbLine
 10
132.8182448708
 20
154.661358998
 30
0.0
 11
132.8182448708
 21
157.3102001804
 31
0.0
  0
SPLINE
  5
FA
330
1F
100
AcDbEntity
  8
0
  6
Continuous
 62
     7
370
    25
100
AcDbSpline
210
0.0
220
0.0
230
1.0
 70
     8
 71
     3
 72
     9
 73
     5
 74
     0
 42
0.00000001
 43
0.00000001
 40
0.0
 40
0.0
 40
0.0
 40
0.0
 40
0.73839663116614
 40
1.0
 40
1.0
 40
1.0
 40
1.0
 10
36.42696500529859
 20
151.494166570059
 30
0.0
 10
36.6066647416465
 20
151.4980438382199
 30
0.0
 10
36.85002952523727
 20
151.503294767053
 30
0.0
 10
37.08320428086063
 20
151.5687938254495
 30
0.0
 10
37.14420358245874
 20
151.5859285997814
 30
0.0
  0
SPLINE
  5
FB
330
1F
100
AcDbEntity
  8
0
  6
Continuous
 62
     7
370
    25
100
AcDbSpline
210
0.0
220
0.0
230
1.0
 70
     8
 71
     3
 72
    11
 73
     7
 74
     0
 42
0.00000001
 43
0.00000001
 40
0.0
 40
0.0
 40
0.0
 40
0.0
 40
0.2503060042723632
 40
0.5004061579053405
 40
0.7503032267969393
 40
1.0
 40
1.0
 40
1.0
 40
1.0
 10
35.78112728419119
 20
151.5595542749912
 30
0.0
 10
35.83443815156294
 20
151.5494473759163
 30
0.0
 10
35.94101604366603
 20
151.529241889639
 30
0.0
 10
36.1024963843081
 20
151.5093666474579
 30
0.0
 10
36.26455340493413
 20
151.4965059405853
 30
0.0
 10
36.37284227679535
 20
151.4949461531825
 30
0.0
 10
36.42696500529852
 20
151.4941665721537
 30
0.0
  0
LINE
  5
FC
330
1F
100
AcDbEntity
  8
0
  6
Continuous
 62
     7
370
    25
100
AcDbLine
 10
35.7811272843
 20
151.5595542753
 30
0.0
 11
35.7811272842
 21
151.5073470045
 31
0.0
  0
SPLINE
  5
FD
330
1F
100
AcDbEntity
  8
0
  6
Continuous
 62
     7
370
    25
100
AcDbSpline
210
0.0
220
0.0
230
1.0
 70
     8
 71
     3
 72
    18
 73
    14
 74
     0
 42
0.00000001
 43
0.00000001
 40
0.0
 40
0.0
 40
0.0
 40
0.0
 40
0.2500000000000001
 40
0.2500000000000001
 40
0.5000000000000002
 40
0.5000000000000002
 40
0.7500000000000003
 40
0.7500000000000003
 40
0.8749999999999999
 40
0.8749999999999999
 40
0.9375
 40
0.9375
 40
1.0
 40
1.0
 40
1.0
 40
1.0
 10
35.78112728425689
 20
151.507347004354
 30
0.0
 10
35.41585191162051
 20
151.5816484342303
 30
0.0
 10
35.07303355932383
 20
151.7153959962918
 30
0.0
 10
34.43631414958023
 20
152.0995320319724
 30
0.0
 10
34.15828490738201
 20
152.3406384280243
 30
0.0
 10
33.68909665845357
 20
152.9145285848961
 30
0.0
 10
33.50833286507341
 20
153.2349620991073
 30
0.0
 10
33.32217489336133
 20
153.757172078367
 30
0.0
 10
33.27589188735936
 20
153.9341441753263
 30
0.0
 10
33.22923537359553
 20
154.2037932663073
 30
0.0
 10
33.21749936895942
 20
154.2943787400544
 30
0.0
 10
33.20176487302724
 20
154.4769740399601
 30
0.0
 10
33.19777640009006
 20
154.5700495879565
 30
0.0
 10
33.19777640009006
 20
154.6613589976332
 30
0.0
  0
LINE
  5
FE
330
1F
100
AcDbEntity
  8
0
  6
Continuous
 62
     7
370
    25
100
AcDbLine
 10
33.1977764001
 20
154.6613589976
 30
0.0
 11
33.1977764001
 21
157.3102001804
 31
0.0
  0
SPLINE
  5
FF
330
1F
100
AcDbEntity
  8
0
  6
Continuous
 62
     7
370
    25
100
AcDbSpline
210
0.0
220
0.0
230
1.0
 70
     8
 71
     3
 72
     9
 73
     5
 74
     0
 42
0.00000001
 43
0.00000001
 40
0.0
 40
0.0
 40
0.0
 40
0.0
 40
0.0366165968370389
 40
1.0
 40
1.0
 40
1.0
 40
1.0
 10
36.4269650052194
 20
151.5943374948683
 30
0.0
 10
36.42972111126245
 20
151.5941323777456
 30
0.0
 10
36.50499042302611
 20
151.5885306249784
 30
0.0
 10
36.58008343390638
 20
151.5945461771713
 30
0.0
 10
36.65242679428196
 20
151.6003414603147
 30
0.0
  0
LINE
  5
100
330
1F
100
AcDbEntity
  8
0
  6
Continuous
 62
     7
370
    25
100
AcDbLine
 10
131.4458397136
 20
165.7093068774
 30
0.0
 11
129.0239482597
 21
165.7093068774
 31
0.0
  0
LINE
  5
101
330
1F
100
AcDbEntity
  8
0
  6
Continuous
 62
     7
370
    25
100
AcDbLine
 10
36.9920730112
 20
165.7093068774
 30
0.0
 11
34.5701815573
 21
165.7093068774
 31
0.0
  0
LINE
  5
102
330
1F
100
AcDbEntity
  8
0
  6
Continuous
 62
     7
370
    25
100
AcDbLine
 10
36.9920730112
 20
165.7093068774
 30
0.0
 11
129.0239482597
 21
165.7093068774
 31
0.0
  0
SPLINE
  5
103
330
1F
100
AcDbEntity
  8
0
  6
Continuous
 62
     7
370
    25
100
AcDbSpline
210
0.0
220
0.0
230
1.0
 70
     8
 71
     3
 72
    26
 73
    22
 74
     0
 42
0.00000001
 43
0.00000001
 40
0.0
 40
0.0
 40
0.0
 40
0.0
 40
0.0397359344294475
 40
0.0798239247120557
 40
0.1202639828502599
 40
0.1610561203001503
 40
0.2022003479617149
 40
0.2436966761700901
 40
0.2855451146880786
 40
0.3277456727002513
 40
0.3702983588088536
 40
0.413203181031833
 40
0.4564601468031658
 40
0.5000692629757986
 40
0.5574760260060069
 40
0.619554557685231
 40
0.6863042330859802
 40
0.7577243730836817
 40
0.8338142455350661
 40
0.9145730662664198
 40
1.0
 40
1.0
 40
1.0
 40
1.0
 10
35.78112728430067
 20
150.2906931227887
 30
0.0
 10
35.72392863977869
 20
150.3033092572152
 30
0.0
 10
35.60902457725915
 20
150.3286533035822
 30
0.0
 10
35.43887647476756
 20
150.3787447347958
 30
0.0
 10
35.27010801970781
 20
150.4379778901582
 30
0.0
 10
35.10349955432347
 20
150.5072830198853
 30
0.0
 10
34.93962280628566
 20
150.5864492436667
 30
0.0
 10
34.77912530916706
 20
150.6755262327096
 30
0.0
 10
34.62265032845173
 20
150.7744411774713
 30
0.0
 10
34.47085551062636
 20
150.8831002801535
 30
0.0
 10
34.32440430416089
 20
151.0013591646124
 30
0.0
 10
34.18396514523116
 20
151.129027998702
 30
0.0
 10
34.05020587658689
 20
151.2658713341462
 30
0.0
 10
33.91080703479841
 20
151.426571148105
 30
0.0
 10
33.76608327496049
 20
151.6187869254807
 30
0.0
 10
33.61928627281077
 20
151.8510779315973
 30
0.0
 10
33.48407552005546
 20
152.1138334107064
 30
0.0
 10
33.36641297514216
 20
152.4074452745433
 30
0.0
 10
33.27393382729798
 20
152.7313563815775
 30
0.0
 10
33.2102691722224
 20
153.0838279351744
 30
0.0
 10
33.20201791598793
 20
153.3288793992916
 30
0.0
 10
33.19777640009006
 20
153.4548468461034
 30
0.0
  0
LINE
  5
104
330
1F
100
AcDbEntity
  8
0
  6
Continuous
 62
     7
370
    25
100
AcDbLine
 10
35.7811272842
 20
151.5073470045
 30
0.0
 11
35.7811272843
 21
150.2906931226
 31
0.0
  0
LINE
  5
105
330
1F
100
AcDbEntity
  8
0
  6
Continuous
 62
     7
370
    25
100
AcDbLine
 10
33.1977764001
 20
153.4548468461
 30
0.0
 11
33.1977764001
 21
154.6613589976
 31
0.0
  0
SPLINE
  5
106
330
1F
100
AcDbEntity
  8
0
  6
Continuous
 62
     7
370
    25
100
AcDbSpline
210
0.0
220
0.0
230
1.0
 70
     8
 71
     3
 72
     8
 73
     4
 74
     0
 42
0.00000001
 43
0.00000001
 40
0.0
 40
0.0
 40
0.0
 40
0.0
 40
1.0
 40
1.0
 40
1.0
 40
1.0
 10
132.8182448707733
 20
153.4548468461034
 30
0.0
 10
132.8182448707733
 20
153.439987955936
 30
0.0
 10
132.8181423311183
 20
153.4251318404488
 30
0.0
 10
132.8179373381892
 20
153.4102784972201
 30
0.0
  0
SPLINE
  5
107
330
1F
100
AcDbEntity
  8
0
  6
Continuous
 62
     7
370
    25
100
AcDbSpline
210
0.0
220
0.0
230
1.0
 70
     8
 71
     3
 72
    18
 73
    14
 74
     0
 42
0.00000001
 43
0.00000001
 40
0.0
 40
0.0
 40
0.0
 40
0.0
 40
0.0624999999999998
 40
0.0624999999999998
 40
0.1249999999999995
 40
0.1249999999999995
 40
0.2500000000000005
 40
0.2500000000000005
 40
0.5000000000000003
 40
0.5000000000000003
 40
0.7500000000000001
 40
0.7500000000000001
 40
1.0
 40
1.0
 40
1.0
 40
1.0
 10
132.8179373386822
 20
153.410278497215
 30
0.0
 10
132.8166846813784
 20
153.3195136500297
 30
0.0
 10
132.8114865993697
 20
153.226997295963
 30
0.0
 10
132.7935064021481
 20
153.0455940731714
 30
0.0
 10
132.7807180464546
 20
152.9556202216768
 30
0.0
 10
132.7310968813256
 20
152.6878553766061
 30
0.0
 10
132.6830918209543
 20
152.5122050270309
 30
0.0
 10
132.4924697692588
 20
151.9941840245849
 30
0.0
 10
132.3110973098694
 20
151.6788828045085
 30
0.0
 10
131.8416431026456
 20
151.1118326401889
 30
0.0
 10
131.565898967932
 20
150.8748887489713
 30
0.0
 10
130.9344545922448
 20
150.4960859899271
 30
0.0
 10
130.5957715244428
 20
150.3643615519754
 30
0.0
 10
130.2348939865618
 20
150.2906931227931
 30
0.0
  0
LINE
  5
108
330
1F
100
AcDbEntity
  8
0
  6
Continuous
 62
     7
370
    25
100
AcDbLine
 10
130.2348939866
 20
150.2906931226
 30
0.0
 11
130.2348939866
 21
151.5073470045
 31
0.0
  0
LINE
  5
109
330
1F
100
AcDbEntity
  8
0
  6
Continuous
 62
     7
370
    25
100
AcDbLine
 10
132.8182448708
 20
153.4548468461
 30
0.0
 11
132.8182448708
 21
154.661358998
 31
0.0
  0
LINE
  5
10A
330
1F
100
AcDbEntity
  8
0
  6
HIDDEN
 62
     7
370
    18
100
AcDbLine
 10
88.3236403694
 20
164.0932571085
 30
0.0
 11
68.5518225224
 21
164.0932571085
 31
0.0
  0
LINE
  5
10B
330
1F
100
AcDbEntity
  8
0
  6
HIDDEN
 62
     7
370
    18
100
AcDbLine
 10
68.5518225224
 20
158.5679819256
 30
0.0
 11
68.5518225224
 21
164.0932571085
 31
0.0
  0
LINE
  5
10C
330
1F
100
AcDbEntity
  8
0
  6
HIDDEN
 62
     7
370
    18
100
AcDbLine
 10
88.3236403694
 20
158.5679819256
 30
0.0
 11
88.3236403694
 21
164.0932571085
 31
0.0
  0
LINE
  5
10D
330
1F
100
AcDbEntity
  8
0
  6
HIDDEN
 62
     7
370
    18
100
AcDbLine
 10
68.5518225224
 20
154.9351447448
 30
0.0
 11
68.5518225224
 21
158.5679819256
 31
0.0
  0
LINE
  5
10E
330
1F
100
AcDbEntity
  8
0
  6
HIDDEN
 62
     7
370
    18
100
AcDbLine
 10
88.3236403694
 20
158.5679819256
 30
0.0
 11
88.3236403694
 21
154.9351447448
 31
0.0
  0
LINE
  5
10F
330
1F
100
AcDbEntity
  8
0
  6
HIDDEN
 62
     7
370
    18
100
AcDbLine
 10
89.292396951
 20
155.300379445
 30
0.0
 11
89.292396951
 21
164.0932571085
 31
0.0
  0
LINE
  5
110
330
1F
100
AcDbEntity
  8
0
  6
HIDDEN
 62
     7
370
    18
100
AcDbLine
 10
131.4458397136
 20
164.0932571085
 30
0.0
 11
131.4458397136
 21
158.6981416566
 31
0.0
  0
LINE
  5
111
330
1F
100
AcDbEntity
  8
0
  6
HIDDEN
 62
     7
370
    18
100
AcDbLine
 10
131.4458397136
 20
164.0932571085
 30
0.0
 11
89.292396951
 21
164.0932571085
 31
0.0
  0
ELLIPSE
  5
112
330
1F
100
AcDbEntity
  8
0
  6
HIDDEN
 62
     7
370
    18
100
AcDbEllipse
 10
128.2166511084
 20
158.6981448785
 30
0.0
 11
0.0
 21
-3.3977654343702
 31
0.0
210
0.0
220
0.0
230
1.0
 40
0.9503859721
 41
0.0
 42
1.570795378547303
  0
LINE
  5
113
330
1F
100
AcDbEntity
  8
0
  6
HIDDEN
 62
     7
370
    18
100
AcDbLine
 10
131.4458397136
 20
158.6981416566
 30
0.0
 11
131.4458397136
 21
158.1813718868
 31
0.0
  0
LINE
  5
114
330
1F
100
AcDbEntity
  8
0
  6
HIDDEN
 62
     7
370
    18
100
AcDbLine
 10
128.2166511084
 20
155.300379445
 30
0.0
 11
89.292396951
 21
155.300379445
 31
0.0
  0
LINE
  5
115
330
1F
100
AcDbEntity
  8
0
  6
HIDDEN
 62
     7
370
    18
100
AcDbLine
 10
89.292396951
 20
155.300379445
 30
0.0
 11
89.292396951
 21
155.1123963354
 31
0.0
  0
LINE
  5
116
330
1F
100
AcDbEntity
  8
0
  6
HIDDEN
 62
     7
370
    18
100
AcDbLine
 10
110.206116135
 20
155.2919680836
 30
0.0
 11
110.206116135
 21
155.1123963354
 31
0.0
  0
LINE
  5
117
330
1F
100
AcDbEntity
  8
0
  6
HIDDEN
 62
     7
370
    18
100
AcDbLine
 10
111.1748727165
 20
155.2919680836
 30
0.0
 11
111.1748727165
 21
164.0932571085
 31
0.0
  0
LINE
  5
118
330
1F
100
AcDbEntity
  8
0
  6
HIDDEN
 62
     7
370
    18
100
AcDbLine
 10
110.206116135
 20
155.2919680836
 30
0.0
 11
110.206116135
 21
164.0932571085
 31
0.0
  0
LINE
  5
119
330
1F
100
AcDbEntity
  8
0
  6
HIDDEN
 62
     7
370
    18
100
AcDbLine
 10
110.206116135
 20
155.2919680836
 30
0.0
 11
111.1748727165
 21
155.2919680836
 31
0.0
  0
LINE
  5
11A
330
1F
100
AcDbEntity
  8
0
  6
HIDDEN
 62
     7
370
    18
100
AcDbLine
 10
111.1748727165
 20
155.2919680836
 30
0.0
 11
111.1748727165
 21
155.1123963354
 31
0.0
  0
LINE
  5
11B
330
1F
100
AcDbEntity
  8
0
  6
HIDDEN
 62
     7
370
    18
100
AcDbLine
 10
79.5117582101
 20
164.0932571085
 30
0.0
 11
79.5117582101
 21
165.7078514111
 31
0.0
  0
LINE
  5
11C
330
1F
100
AcDbEntity
  8
0
  6
HIDDEN
 62
     7
370
    18
100
AcDbLine
 10
79.5101195018
 20
164.0932571085
 30
0.0
 11
79.5101195018
 21
165.7078514111
 31
0.0
  0
SPLINE
  5
11D
330
1F
100
AcDbEntity
  8
0
  6
HIDDEN
 62
     7
370
    18
100
AcDbSpline
210
0.0
220
0.0
230
1.0
 70
     8
 71
     3
 72
    10
 73
     6
 74
     0
 42
0.00000001
 43
0.00000001
 40
0.0
 40
0.0
 40
0.0
 40
0.0
 40
0.3585553327929866
 40
0.6776644939733699
 40
1.0
 40
1.0
 40
1.0
 40
1.0
 10
37.14420358245873
 20
151.5859285997814
 30
0.0
 10
37.26190129791058
 20
151.6123607353573
 30
0.0
 10
37.48434831093425
 20
151.6623170967372
 30
0.0
 10
37.7954983181245
 20
151.792703506215
 30
0.0
 10
37.98395436750553
 20
151.8971017550377
 30
0.0
 10
38.07865634126349
 20
151.9495634311306
 30
0.0
  0
SPLINE
  5
11E
330
1F
100
AcDbEntity
  8
0
  6
HIDDEN
 62
     7
370
    18
100
AcDbSpline
210
0.0
220
0.0
230
1.0
 70
     8
 71
     3
 72
    10
 73
     6
 74
     0
 42
0.00000001
 43
0.00000001
 40
0.0
 40
0.0
 40
0.0
 40
0.0
 40
0.2760711740407418
 40
0.6335466979825436
 40
1.0
 40
1.0
 40
1.0
 40
1.0
 10
36.65242679428196
 20
151.6003414603147
 30
0.0
 10
36.78679288389029
 20
151.5998400842816
 30
0.0
 10
37.09514522342005
 20
151.5986894928396
 30
0.0
 10
37.57597135592399
 20
151.7110780425595
 30
0.0
 10
37.90971504258862
 20
151.8694137699408
 30
0.0
 10
38.07865634126349
 20
151.9495634311306
 30
0.0
  0
SPLINE
  5
11F
330
1F
100
AcDbEntity
  8
0
  6
HIDDEN
 62
     7
370
    18
100
AcDbSpline
210
0.0
220
0.0
230
1.0
 70
     8
 71
     3
 72
    28
 73
    24
 74
     0
 42
0.00000001
 43
0.00000001
 40
0.0
 40
0.0
 40
0.0
 40
0.0
 40
0.0233248437488689
 40
0.0467203004634543
 40
0.0701952380358486
 40
0.0937584346209889
 40
0.1174185701383521
 40
0.1411842182920912
 40
0.1650638391366803
 40
0.1890657722090665
 40
0.2131982302423125
 40
0.2374692934698601
 40
0.3558559343197651
 40
0.4821296278898477
 40
0.5437690334344243
 40
0.608592366334718
 40
0.6707974936649481
 40
0.7374992282538669
 40
0.7991658464926048
 40
0.8682459375042364
 40
0.902381041464885
 40
0.9462995976071187
 40
1.0
 40
1.0
 40
1.0
 40
1.0
 10
128.2166511054631
 20
154.7919702284887
 30
0.0
 10
128.2161765666179
 20
154.7929067651517
 30
0.0
 10
128.215226052322
 20
154.794782673722
 30
0.0
 10
128.2075622026256
 20
154.8099776868251
 30
0.0
 10
128.1953363316682
 20
154.8343011372398
 30
0.0
 10
128.1780967735688
 20
154.8686844077126
 30
0.0
 10
128.1559652488075
 20
154.9129118061584
 30
0.0
 10
128.1289091452629
 20
154.9670564599166
 30
0.0
 10
128.096936976919
 20
155.0310942421333
 30
0.0
 10
128.0600479691203
 20
155.1050030965386
 30
0.0
 10
128.0182370961486
 20
155.1887524719748
 30
0.0
 10
127.9112494230096
 20
155.4028854610104
 30
0.0
 10
127.6881937411553
 20
155.8477587294433
 30
0.0
 10
127.3545413858243
 20
156.5163875509796
 30
0.0
 10
127.0396464275178
 20
157.1458484113552
 30
0.0
 10
126.7875544031644
 20
157.6502389985263
 30
0.0
 10
126.5137497867453
 20
158.1976021624837
 30
0.0
 10
126.2324175690068
 20
158.7605615314613
 30
0.0
 10
125.9308809848624
 20
159.3631881739205
 30
0.0
 10
125.6730936950727
 20
159.8793372654841
 30
0.0
 10
125.4398330564599
 20
160.345181092408
 30
0.0
 10
125.2297437975193
 20
160.7653846899206
 30
0.0
 10
125.073443589241
 20
161.0782432573499
 30
0.0
 10
124.9874625031426
 20
161.2503474389057
 30
0.0
  0
LINE
  5
120
330
1F
100
AcDbEntity
  8
0
  6
HIDDEN
 62
     7
370
    18
100
AcDbLine
 10
111.1748727165
 20
155.1123963354
 30
0.0
 11
111.1748727165
 21
154.7919702285
 31
0.0
  0
SPLINE
  5
121
330
1F
100
AcDbEntity
  8
0
  6
HIDDEN
 62
     7
370
    18
100
AcDbSpline
210
0.0
220
0.0
230
1.0
 70
     8
 71
     3
 72
    14
 73
    10
 74
     0
 42
0.00000001
 43
0.00000001
 40
0.0
 40
0.0
 40
0.0
 40
0.0
 40
0.25
 40
0.25
 40
0.5
 40
0.5
 40
0.75
 40
0.75
 40
1.0
 40
1.0
 40
1.0
 40
1.0
 10
128.2166511083511
 20
154.7919702284887
 30
0.0
 10
128.6393509078339
 20
154.7919702284887
 30
0.0
 10
129.0618843936087
 20
154.8760173641516
 30
0.0
 10
129.8429317807412
 20
155.1995377845667
 30
0.0
 10
130.2011383739434
 20
155.4388837779331
 30
0.0
 10
130.7989261633079
 20
156.0366715681049
 30
0.0
 10
131.0382721566743
 20
156.3948781604998
 30
0.0
 10
131.3617925770894
 20
157.1759255476323
 30
0.0
 10
131.4458397135597
 20
157.5984590334071
 30
0.0
 10
131.4458397135597
 20
158.0211588336972
 30
0.0
  0
LINE
  5
122
330
1F
100
AcDbEntity
  8
0
  6
HIDDEN
 62
     7
370
    18
100
AcDbLine
 10
131.4458397136
 20
158.0211588337
 30
0.0
 11
131.4458397136
 21
158.1813718872
 31
0.0
  0
LINE
  5
123
330
1F
100
AcDbEntity
  8
0
  6
HIDDEN
 62
     7
370
    18
100
AcDbLine
 10
110.206116135
 20
155.1123963354
 30
0.0
 11
110.206116135
 21
154.7919702285
 31
0.0
  0
LINE
  5
124
330
1F
100
AcDbEntity
  8
0
  6
HIDDEN
 62
     7
370
    18
100
AcDbLine
 10
89.292396951
 20
155.1123963354
 30
0.0
 11
89.292396951
 21
154.7919702285
 31
0.0
  0
LINE
  5
125
330
1F
100
AcDbEntity
  8
0
  6
HIDDEN
 62
     7
370
    18
100
AcDbLine
 10
76.7156340632
 20
164.0932571085
 30
0.0
 11
76.7156340632
 21
165.7078514111
 31
0.0
  0
LINE
  5
126
330
1F
100
AcDbEntity
  8
0
  6
HIDDEN
 62
     7
370
    18
100
AcDbLine
 10
76.4645534342
 20
164.0932571085
 30
0.0
 11
76.4645534342
 21
165.7078514111
 31
0.0
  0
LINE
  5
127
330
1F
100
AcDbEntity
  8
0
  6
HIDDEN
 62
     7
370
    18
100
AcDbLine
 10
129.2969515337
 20
152.5503633112
 30
0.0
 11
129.1046779748
 21
152.5503633112
 31
0.0
  0
LINE
  5
128
330
1F
100
AcDbEntity
  8
0
  6
HIDDEN
 62
     7
370
    18
100
AcDbLine
 10
129.2969515337
 20
152.5503633112
 30
0.0
 11
129.2969515337
 21
152.8078876894
 31
0.0
  0
SPLINE
  5
129
330
1F
100
AcDbEntity
  8
0
  6
HIDDEN
 62
     7
370
    18
100
AcDbSpline
210
0.0
220
0.0
230
1.0
 70
     8
 71
     3
 72
    22
 73
    18
 74
     0
 42
0.00000001
 43
0.00000001
 40
0.0
 40
0.0
 40
0.0
 40
0.0
 40
0.125
 40
0.125
 40
0.25
 40
0.25
 40
0.375
 40
0.375
 40
0.5
 40
0.5
 40
0.625
 40
0.625
 40
0.75
 40
0.75
 40
0.875
 40
0.875
 40
1.0
 40
1.0
 40
1.0
 40
1.0
 10
131.5265694286899
 20
152.3447163782784
 30
0.0
 10
131.5265694286959
 20
152.3709055107323
 30
0.0
 10
131.5125715510344
 20
152.3971902364631
 30
0.0
 10
131.4577958780289
 20
152.4498965491198
 30
0.0
 10
131.4165989819826
 20
152.4765122491142
 30
0.0
 10
131.3077123192014
 20
152.5288543802196
 30
0.0
 10
131.2410102736616
 20
152.5542110943344
 30
0.0
 10
131.0836156173116
 20
152.6031163518407
 30
0.0
 10
130.9917750650995
 20
152.626895671702
 30
0.0
 10
130.788491317692
 20
152.6709015593732
 30
0.0
 10
130.6775288576076
 20
152.6911231672869
 30
0.0
 10
130.4369814902198
 20
152.7277314935293
 30
0.0
 10
130.3059982813816
 20
152.7442204680241
 30
0.0
 10
130.0348784409088
 20
152.7716820120174
 30
0.0
 10
129.8940271704828
 20
152.7828267679565
 30
0.0
 10
129.6015786499659
 20
152.7996751408991
 30
0.0
 10
129.4497779284791
 20
152.8053269554625
 30
0.0
 10
129.2969515337267
 20
152.8078876895728
 30
0.0
  0
LINE
  5
12A
330
1F
100
AcDbEntity
  8
0
  6
HIDDEN
 62
     7
370
    18
100
AcDbLine
 10
131.5265694287
 20
165.7093068774
 30
0.0
 11
131.5265694287
 21
152.3447163783
 31
0.0
  0
LINE
  5
12B
330
1F
100
AcDbEntity
  8
0
  6
HIDDEN
 62
     7
370
    18
100
AcDbLine
 10
36.7190697372
 20
152.5503633112
 30
0.0
 11
36.9113432961
 21
152.5503633112
 31
0.0
  0
LINE
  5
12C
330
1F
100
AcDbEntity
  8
0
  6
HIDDEN
 62
     7
370
    18
100
AcDbLine
 10
34.4894518422
 20
165.7093068774
 30
0.0
 11
34.4894518422
 21
152.3447163783
 31
0.0
  0
SPLINE
  5
12D
330
1F
100
AcDbEntity
  8
0
  6
HIDDEN
 62
     7
370
    18
100
AcDbSpline
210
0.0
220
0.0
230
1.0
 70
     8
 71
     3
 72
    22
 73
    18
 74
     0
 42
0.00000001
 43
0.00000001
 40
0.0
 40
0.0
 40
0.0
 40
0.0
 40
0.125
 40
0.125
 40
0.25
 40
0.25
 40
0.375
 40
0.375
 40
0.5
 40
0.5
 40
0.625
 40
0.625
 40
0.75
 40
0.75
 40
0.875
 40
0.875
 40
1.0
 40
1.0
 40
1.0
 40
1.0
 10
34.48945184217348
 20
152.3447163782784
 30
0.0
 10
34.48945184216741
 20
152.3709055107319
 30
0.0
 10
34.50344971983451
 20
152.3971902364709
 30
0.0
 10
34.55822539284429
 20
152.4498965491269
 30
0.0
 10
34.59942228889263
 20
152.476512249121
 30
0.0
 10
34.70830895167635
 20
152.5288543802254
 30
0.0
 10
34.77501099721697
 20
152.5542110943398
 30
0.0
 10
34.93240565356821
 20
152.6031163518452
 30
0.0
 10
35.02424620578053
 20
152.626895671706
 30
0.0
 10
35.22752995318735
 20
152.6709015593762
 30
0.0
 10
35.33849241327113
 20
152.6911231672896
 30
0.0
 10
35.57903978065718
 20
152.7277314935311
 30
0.0
 10
35.71002298949424
 20
152.7442204680256
 30
0.0
 10
35.9811428299639
 20
152.7716820120181
 30
0.0
 10
36.12199410038829
 20
152.782826767957
 30
0.0
 10
36.4144426209015
 20
152.7996751408992
 30
0.0
 10
36.56624334238631
 20
152.8053269554626
 30
0.0
 10
36.71906973713664
 20
152.8078876895728
 30
0.0
  0
LINE
  5
12E
330
1F
100
AcDbEntity
  8
0
  6
HIDDEN
 62
     7
370
    18
100
AcDbLine
 10
36.7190697372
 20
152.8078876894
 30
0.0
 11
36.7190697372
 21
152.5503633112
 31
0.0
  0
LINE
  5
12F
330
1F
100
AcDbEntity
  8
0
  6
HIDDEN
 62
     7
370
    18
100
AcDbLine
 10
131.5265694287
 20
152.3447163783
 30
0.0
 11
131.5265694287
 21
151.3302003707
 31
0.0
  0
LINE
  5
130
330
1F
100
AcDbEntity
  8
0
  6
HIDDEN
 62
     7
370
    18
100
AcDbLine
 10
36.7190697372
 20
152.8078876894
 30
0.0
 11
129.2969515337
 21
152.8078876894
 31
0.0
  0
LINE
  5
131
330
1F
100
AcDbEntity
  8
0
  6
HIDDEN
 62
     7
370
    18
100
AcDbLine
 10
34.4894518422
 20
152.3447163783
 30
0.0
 11
34.4894518422
 21
151.3302003707
 31
0.0
  0
LINE
  5
132
330
1F
100
AcDbEntity
  8
0
  6
HIDDEN
 62
     7
370
    18
100
AcDbLine
 10
36.9113432961
 20
152.5503633112
 30
0.0
 11
129.1046779748
 21
152.5503633112
 31
0.0
  0
LINE
  5
133
330
1F
100
AcDbEntity
  8
0
  6
HIDDEN
 62
     7
370
    18
100
AcDbLine
 10
129.9119751261
 20
151.9495617241
 30
0.0
 11
38.0786563413
 21
151.9495634311
 31
0.0
  0
SPLINE
  5
134
330
1F
100
AcDbEntity
  8
0
  6
HIDDEN
 62
     7
370
    18
100
AcDbSpline
210
0.0
220
0.0
230
1.0
 70
    24
 71
     3
 72
     8
 73
     4
 74
     0
 42
0.00000001
 43
0.00000001
 40
0.0
 40
0.0
 40
0.0
 40
0.0
 40
1.0
 40
1.0
 40
1.0
 40
1.0
 10
130.2348939866065
 20
151.9699208879561
 30
0.0
 10
130.2348939866065
 20
151.78515442207
 30
0.0
 10
130.2348939866065
 20
151.6645424017412
 30
0.0
 10
130.2348939866065
 20
151.6208858890842
 30
0.0
  0
LINE
  5
135
330
1F
100
AcDbEntity
  8
0
  6
HIDDEN
 62
     7
370
    18
100
AcDbLine
 10
35.7811272843
 20
152.5523959958
 30
0.0
 11
35.7811272843
 21
152.5503633112
 31
0.0
  0
LINE
  5
136
330
1F
100
AcDbEntity
  8
0
  6
HIDDEN
 62
     7
370
    18
100
AcDbLine
 10
130.2348939866
 20
152.5523959958
 30
0.0
 11
130.2348939866
 21
152.5503633112
 31
0.0
  0
LINE
  5
137
330
1F
100
AcDbEntity
  8
0
  6
HIDDEN
 62
     7
370
    18
100
AcDbLine
 10
35.7811272843
 20
152.5503633112
 30
0.0
 11
36.7190697372
 21
152.5503633112
 31
0.0
  0
LINE
  5
138
330
1F
100
AcDbEntity
  8
0
  6
HIDDEN
 62
     7
370
    18
100
AcDbLine
 10
129.2969515337
 20
152.5503633112
 30
0.0
 11
130.2348939866
 21
152.5503633112
 31
0.0
  0
LINE
  5
139
330
1F
100
AcDbEntity
  8
0
  6
HIDDEN
 62
     7
370
    18
100
AcDbLine
 10
35.7811272843
 20
151.5595542753
 30
0.0
 11
35.7811272843
 21
152.5503633112
 31
0.0
  0
LINE
  5
13A
330
1F
100
AcDbEntity
  8
0
  6
HIDDEN
 62
     7
370
    18
100
AcDbLine
 10
130.2348939826
 20
151.9699204279
 30
0.0
 11
130.2348939866
 21
152.5503633112
 31
0.0
  0
SPLINE
  5
13B
330
1F
100
AcDbEntity
  8
0
  6
HIDDEN
 62
     7
370
    18
100
AcDbSpline
210
0.0
220
0.0
230
1.0
 70
     8
 71
     3
 72
     8
 73
     4
 74
     0
 42
0.00000001
 43
0.00000001
 40
0.0
 40
0.0
 40
0.0
 40
0.0
 40
1.0
 40
1.0
 40
1.0
 40
1.0
 10
130.2348939785335
 20
151.969919741675
 30
0.0
 10
130.1276573363407
 20
151.9563477299899
 30
0.0
 10
130.020017718858
 20
151.9495617241475
 30
0.0
 10
129.9119751260856
 20
151.9495617241475
 30
0.0
  0
SPLINE
  5
13C
330
1F
100
AcDbEntity
  8
0
  6
HIDDEN
 62
     7
370
    18
100
AcDbSpline
210
0.0
220
0.0
230
1.0
 70
     8
 71
     3
 72
     8
 73
     4
 74
     0
 42
0.00000001
 43
0.00000001
 40
0.0
 40
0.0
 40
0.0
 40
0.0
 40
1.0
 40
1.0
 40
1.0
 40
1.0
 10
37.49405161394807
 20
151.6759756728219
 30
0.0
 10
37.69809153504232
 20
151.7475739324122
 30
0.0
 10
37.89295698686134
 20
151.8387768389413
 30
0.0
 10
38.07865634129129
 20
151.9495651381139
 30
0.0
  0
LINE
  5
13D
330
1F
100
AcDbEntity
  8
0
  6
HIDDEN
 62
     7
370
    18
100
AcDbLine
 10
129.9119751261
 20
151.9495617241
 30
0.0
 11
38.0786563413
 21
151.9495644554
 31
0.0
  0
LINE
  5
13E
330
1F
100
AcDbEntity
  8
0
  6
HIDDEN
 62
     7
370
    18
100
AcDbLine
 10
68.5518225224
 20
154.9351447448
 30
0.0
 11
88.3236403694
 21
154.9351447448
 31
0.0
  0
LINE
  5
13F
330
1F
100
AcDbEntity
  8
0
  6
HIDDEN
 62
     7
370
    18
100
AcDbLine
 10
87.0444964517
 20
164.0932571085
 30
0.0
 11
87.0444964517
 21
165.7078514111
 31
0.0
  0
LINE
  5
140
330
1F
100
AcDbEntity
  8
0
  6
HIDDEN
 62
     7
370
    18
100
AcDbLine
 10
111.1748727165
 20
154.7919702285
 30
0.0
 11
128.2196415153
 21
154.7919702285
 31
0.0
  0
LINE
  5
141
330
1F
100
AcDbEntity
  8
0
  6
HIDDEN
 62
     7
370
    18
100
AcDbLine
 10
89.292396951
 20
154.7919702285
 30
0.0
 11
110.206116135
 21
154.7919702285
 31
0.0
  0
LINE
  5
142
330
1F
100
AcDbEntity
  8
0
  6
HIDDEN
 62
     7
370
    18
100
AcDbLine
 10
74.5313906065
 20
165.7078514111
 30
0.0
 11
74.5313906065
 21
164.0932571085
 31
0.0
  0
LINE
  5
143
330
1F
100
AcDbEntity
  8
0
  6
HIDDEN
 62
     7
370
    18
100
AcDbLine
 10
130.2348939866
 20
151.3302003707
 30
0.0
 11
131.5265694287
 21
151.3302003707
 31
0.0
  0
LINE
  5
144
330
1F
100
AcDbEntity
  8
0
  6
HIDDEN
 62
     7
370
    18
100
AcDbLine
 10
34.4894518422
 20
151.3302003707
 30
0.0
 11
35.7811272843
 21
151.3302003707
 31
0.0
  0
ARC
  5
145
330
1F
100
AcDbEntity
  8
0
  6
Continuous
 62
     7
370
    25
100
AcDbCircle
 10
249.8421891099
 20
46.3044567878
 30
0.0
 40
33.42191476693273
100
AcDbArc
 50
183.810765299
 51
185.8501102978
  0
ARC
  5
146
330
1F
100
AcDbEntity
  8
0
  6
Continuous
 62
     7
370
    25
100
AcDbCircle
 10
249.8421891099
 20
67.6955432122
 30
0.0
 40
33.42191476693273
100
AcDbArc
 50
174.1508608913
 51
176.188792968
  0
SPLINE
  5
147
330
1F
100
AcDbEntity
  8
0
  6
Continuous
 62
     7
370
    25
100
AcDbSpline
210
0.0
220
0.0
230
1.0
 70
     8
 71
     3
 72
    18
 73
    14
 74
     0
 42
0.00000001
 43
0.00000001
 40
0.0
 40
0.0
 40
0.0
 40
0.0
 40
0.2499999999999983
 40
0.2499999999999983
 40
0.4999999999999967
 40
0.4999999999999967
 40
0.6249999999999974
 40
0.6249999999999974
 40
0.7499999999999983
 40
0.7499999999999983
 40
0.8749999999999991
 40
0.8749999999999991
 40
1.0
 40
1.0
 40
1.0
 40
1.0
 10
216.5073470043754
 20
45.09786548235418
 30
0.0
 10
216.5761110910492
 20
45.10576408368244
 30
0.0
 10
216.6956682750496
 20
45.1194952146417
 30
0.0
 10
217.0352363460466
 20
45.15842701495518
 30
0.0
 10
217.2489193607805
 20
45.18290121185622
 30
0.0
 10
217.6286566261265
 20
45.2262887817022
 30
0.0
 10
217.7650442956984
 20
45.24185653031778
 30
0.0
 10
218.0490588715388
 20
45.27423331012223
 30
0.0
 10
218.1977347396854
 20
45.29116229281618
 30
0.0
 10
218.5085993334056
 20
45.32650818462293
 30
0.0
 10
218.6711791487919
 20
45.34496895269582
 30
0.0
 10
219.0000151176137
 20
45.38224980274296
 30
0.0
 10
219.1674720220678
 20
45.40120660445164
 30
0.0
 10
219.3380387732082
 20
45.42048344698145
 30
0.0
  0
ARC
  5
148
330
1F
100
AcDbEntity
  8
0
  6
Continuous
 62
     7
370
    25
100
AcDbCircle
 10
281.3461404943
 20
57.7390346706
 30
0.0
 40
66.05958143774046
100
AcDbArc
 50
180.6410039234
 51
191.032169679
  0
SPLINE
  5
149
330
1F
100
AcDbEntity
  8
0
  6
Continuous
 62
     7
370
    25
100
AcDbSpline
210
0.0
220
0.0
230
1.0
 70
    24
 71
     3
 72
    18
 73
    14
 74
     0
 42
0.00000001
 43
0.00000001
 40
0.0
 40
0.0
 40
0.0
 40
0.0
 40
0.0624999999999998
 40
0.0624999999999998
 40
0.1249999999999995
 40
0.1249999999999995
 40
0.2500000000000005
 40
0.2500000000000005
 40
0.5000000000000003
 40
0.5000000000000003
 40
0.7500000000000001
 40
0.7500000000000001
 40
1.0
 40
1.0
 40
1.0
 40
1.0
 10
218.4102784972151
 20
56.99999999959643
 30
0.0
 10
218.3195136500297
 20
56.99999999959643
 30
0.0
 10
218.226997295963
 20
56.99999999959569
 30
0.0
 10
218.0455940731714
 20
56.99999999959603
 30
0.0
 10
217.9556202216768
 20
56.99999999959641
 30
0.0
 10
217.6878553766061
 20
56.99999999959641
 30
0.0
 10
217.5122050270309
 20
56.99999999959639
 30
0.0
 10
216.9941840245849
 20
56.99999999959639
 30
0.0
 10
216.6788828045085
 20
56.99999999959634
 30
0.0
 10
216.1118326401889
 20
56.99999999959634
 30
0.0
 10
215.8748887489713
 20
56.99999999959634
 30
0.0
 10
215.4960859899271
 20
56.99999999959634
 30
0.0
 10
215.3643615519754
 20
56.99999999959634
 30
0.0
 10
215.2906931227931
 20
56.99999999959634
 30
0.0
  0
ARC
  5
14A
330
1F
100
AcDbEntity
  8
0
  6
Continuous
 62
     7
370
    25
100
AcDbCircle
 10
281.3461404943
 20
56.2609653286
 30
0.0
 40
66.05958143774046
100
AcDbArc
 50
168.9678303212
 51
179.3589960766
  0
SPLINE
  5
14B
330
1F
100
AcDbEntity
  8
0
  6
Continuous
 62
     7
370
    25
100
AcDbSpline
210
0.0
220
0.0
230
1.0
 70
     8
 71
     3
 72
    18
 73
    14
 74
     0
 42
0.00000001
 43
0.00000001
 40
0.0
 40
0.0
 40
0.0
 40
0.0
 40
0.2499999999999982
 40
0.2499999999999982
 40
0.4999999999999964
 40
0.4999999999999964
 40
0.6249999999999973
 40
0.6249999999999973
 40
0.7499999999999982
 40
0.7499999999999982
 40
0.8749999999999991
 40
0.8749999999999991
 40
1.0
 40
1.0
 40
1.0
 40
1.0
 10
216.507347004354
 20
68.90213451665277
 30
0.0
 10
216.5761110910282
 20
68.89423591532562
 30
0.0
 10
216.6956682750174
 20
68.8805047843697
 30
0.0
 10
217.0352363460176
 20
68.84157298406149
 30
0.0
 10
217.2489193607531
 20
68.81709878716372
 30
0.0
 10
217.6286566261018
 20
68.77371121732372
 30
0.0
 10
217.7650442956746
 20
68.75814346871037
 30
0.0
 10
218.0490588715167
 20
68.72576668891044
 30
0.0
 10
218.197734739664
 20
68.70883770621873
 30
0.0
 10
218.5085993333861
 20
68.67349181441696
 30
0.0
 10
218.6711791487732
 20
68.65503104634678
 30
0.0
 10
219.0000151175965
 20
68.617750196305
 30
0.0
 10
219.1674720220512
 20
68.59879339459907
 30
0.0
 10
219.3380387731923
 20
68.579516552072
 30
0.0
  0
ARC
  5
14C
330
1F
100
AcDbEntity
  8
0
  6
Continuous
 62
     7
370
    25
100
AcDbCircle
 10
249.8421891099
 20
67.6955432122
 30
0.0
 40
33.35667190792635
100
AcDbArc
 50
174.8365865914
 51
177.9270211794
  0
SPLINE
  5
14D
330
1F
100
AcDbEntity
  8
0
  6
Continuous
 62
     7
370
    25
100
AcDbSpline
210
0.0
220
0.0
230
1.0
 70
     8
 71
     3
 72
    14
 73
    10
 74
     0
 42
0.00000001
 43
0.00000001
 40
0.0
 40
0.0
 40
0.0
 40
0.0
 40
0.0001208275061118
 40
0.0001208275061118
 40
0.0001208275061118
 40
0.0002706089524207
 40
0.0002706089524207
 40
0.0002706089524207
 40
0.0003674403898713
 40
0.0003674403898713
 40
0.0003674403898713
 40
0.0003674403898713
 10
216.5874335156064
 20
70.86790224467555
 30
0.0
 10
216.5884588693283
 20
70.84420261540855
 30
0.0
 10
216.5904130842659
 20
70.82281930774454
 30
0.0
 10
216.5932202242159
 20
70.80301542456938
 30
0.0
 10
216.5967006336922
 20
70.77846174221014
 30
0.0
 10
216.6015050593843
 20
70.75625681151072
 30
0.0
 10
216.6075593250404
 20
70.73565791079928
 30
0.0
 10
216.6114763801571
 20
70.72233060836285
 30
0.0
 10
216.6159216157651
 20
70.70967315474594
 30
0.0
 10
216.6208821823022
 20
70.69756654753463
 30
0.0
  0
SPLINE
  5
14E
330
1F
100
AcDbEntity
  8
0
  6
Continuous
 62
     7
370
    25
100
AcDbSpline
210
0.0
220
0.0
230
1.0
 70
     8
 71
     3
 72
     8
 73
     4
 74
     0
 42
0.00000001
 43
0.00000001
 40
0.0
 40
0.0
 40
0.0
 40
0.0
 40
1.0
 40
1.0
 40
1.0
 40
1.0
 10
216.5943374949047
 20
71.10211768979187
 30
0.0
 10
216.5863751747685
 20
71.02440618261477
 30
0.0
 10
216.5840483038039
 20
70.9462478308133
 30
0.0
 10
216.5874318217909
 20
70.86789218204646
 30
0.0
  0
ARC
  5
14F
330
1F
100
AcDbEntity
  8
0
  6
Continuous
 62
     7
370
    25
100
AcDbCircle
 10
249.8421891099
 20
67.6955432122
 30
0.0
 40
33.42191476683281
100
AcDbArc
 50
155.7657473962
 51
174.1498897034
  0
ARC
  5
150
330
1F
100
AcDbEntity
  8
0
  6
Continuous
 62
     7
370
    25
100
AcDbCircle
 10
249.8421891099
 20
46.3044567878
 30
0.0
 40
33.4219147669151
100
AcDbArc
 50
185.8501102979
 51
204.2342526051
  0
SPLINE
  5
151
330
1F
100
AcDbEntity
  8
0
  6
Continuous
 62
     7
370
    25
100
AcDbSpline
210
0.0
220
0.0
230
1.0
 70
     8
 71
     3
 72
     8
 73
     4
 74
     0
 42
0.00000001
 43
0.00000001
 40
0.0
 40
0.0
 40
0.0
 40
0.0
 40
1.0
 40
1.0
 40
1.0
 40
1.0
 10
216.5943374949047
 20
42.89788230940082
 30
0.0
 10
216.5863751747685
 20
42.97559381657794
 30
0.0
 10
216.5840483038039
 20
43.05375216837939
 30
0.0
 10
216.5874318217909
 20
43.13210781714623
 30
0.0
  0
SPLINE
  5
152
330
1F
100
AcDbEntity
  8
0
  6
Continuous
 62
     7
370
    25
100
AcDbSpline
210
0.0
220
0.0
230
1.0
 70
     8
 71
     3
 72
    14
 73
    10
 74
     0
 42
0.00000001
 43
0.00000001
 40
0.0
 40
0.0
 40
0.0
 40
0.0
 40
0.0001208275061119
 40
0.0001208275061119
 40
0.0001208275061119
 40
0.0002706089524881
 40
0.0002706089524881
 40
0.0002706089524881
 40
0.0003674403902181
 40
0.0003674403902181
 40
0.0003674403902181
 40
0.0003674403902181
 10
216.5874335156221
 20
43.13209775487979
 30
0.0
 10
216.5884588693408
 20
43.15579738414785
 30
0.0
 10
216.5904130842601
 20
43.17718069190131
 30
0.0
 10
216.5932202242156
 20
43.19698457502347
 30
0.0
 10
216.596700633701
 20
43.22153825733319
 30
0.0
 10
216.6015050593387
 20
43.24374318836678
 30
0.0
 10
216.6075593250233
 20
43.26434208892434
 30
0.0
 10
216.6114763801689
 20
43.27766939129663
 30
0.0
 10
216.6159216158205
 20
43.29032684476919
 30
0.0
 10
216.6208821823585
 20
43.30243345211949
 30
0.0
  0
ARC
  5
153
330
1F
100
AcDbEntity
  8
0
  6
Continuous
 62
     7
370
    25
100
AcDbCircle
 10
249.8421891099
 20
46.3044567878
 30
0.0
 40
33.35667190792662
100
AcDbArc
 50
182.0729788223
 51
185.1634134086
  0
LINE
  5
154
330
1F
100
AcDbEntity
  8
0
  6
Continuous
 62
     7
370
    25
100
AcDbLine
 10
230.7093068774
 20
33.9113014728
 30
0.0
 11
230.7093068774
 21
80.0886985272
 31
0.0
  0
LINE
  5
155
330
1F
100
AcDbEntity
  8
0
  6
Continuous
 62
     7
370
    25
100
AcDbLine
 10
230.7078514111
 20
83.3178871324
 30
0.0
 11
222.3102001804
 21
83.3178871324
 31
0.0
  0
LINE
  5
156
330
1F
100
AcDbEntity
  8
0
  6
Continuous
 62
     7
370
    25
100
AcDbLine
 10
230.7078514111
 20
82.7306701913
 30
0.0
 11
230.7078514111
 21
83.3178871324
 31
0.0
  0
LINE
  5
157
330
1F
100
AcDbEntity
  8
0
  6
Continuous
 62
     7
370
    25
100
AcDbLine
 10
230.7093068774
 20
82.7306701913
 30
0.0
 11
230.7078514111
 21
82.7306701913
 31
0.0
  0
LINE
  5
158
330
1F
100
AcDbEntity
  8
0
  6
Continuous
 62
     7
370
    25
100
AcDbLine
 10
230.7093068774
 20
80.0886985272
 30
0.0
 11
230.7093068774
 21
82.7306701913
 31
0.0
  0
LINE
  5
159
330
1F
100
AcDbEntity
  8
0
  6
Continuous
 62
     7
370
    25
100
AcDbLine
 10
230.7093068774
 20
31.2693298079
 30
0.0
 11
230.7078514111
 21
31.2693298079
 31
0.0
  0
LINE
  5
15A
330
1F
100
AcDbEntity
  8
0
  6
Continuous
 62
     7
370
    25
100
AcDbLine
 10
230.7078514111
 20
31.2693298079
 30
0.0
 11
230.7078514111
 21
30.6821128676
 31
0.0
  0
LINE
  5
15B
330
1F
100
AcDbEntity
  8
0
  6
Continuous
 62
     7
370
    25
100
AcDbLine
 10
230.7078514111
 20
30.6821128676
 30
0.0
 11
222.3102001804
 21
30.6821128676
 31
0.0
  0
LINE
  5
15C
330
1F
100
AcDbEntity
  8
0
  6
Continuous
 62
     7
370
    25
100
AcDbLine
 10
230.7093068774
 20
33.9113014728
 30
0.0
 11
230.7093068774
 21
31.2693298079
 31
0.0
  0
ARC
  5
15D
330
1F
100
AcDbEntity
  8
0
  6
Continuous
 62
     7
370
    25
100
AcDbCircle
 10
222.3102001804
 20
80.0886985272
 30
0.0
 40
3.229188605208535
100
AcDbArc
 50
90.0
 51
155.7657473967
  0
ARC
  5
15E
330
1F
100
AcDbEntity
  8
0
  6
Continuous
 62
     7
370
    25
100
AcDbCircle
 10
222.3102001804
 20
33.9113014728
 30
0.0
 40
3.229188605208535
100
AcDbArc
 50
204.2342526163
 51
270.0
  0
SPLINE
  5
15F
330
1F
100
AcDbEntity
  8
0
  6
Continuous
 62
     7
370
    25
100
AcDbSpline
210
0.0
220
0.0
230
1.0
 70
    24
 71
     3
 72
    11
 73
     7
 74
     0
 42
0.00000001
 43
0.00000001
 40
0.0
 40
0.0
 40
0.0
 40
0.0
 40
0.002921218223006
 40
0.3402839414151541
 40
0.6874381326816589
 40
1.0
 40
1.0
 40
1.0
 40
1.0
 10
216.4946335484948
 20
44.08324557916588
 30
0.0
 10
216.4944767277946
 20
44.08324557916588
 30
0.0
 10
216.4762091551959
 20
44.08324557916575
 30
0.0
 10
216.5347433526177
 20
44.0832455791596
 30
0.0
 10
216.6480546314056
 20
44.08324557918775
 30
0.0
 10
216.8096626235595
 20
44.08324557912385
 30
0.0
 10
216.8862296483331
 20
44.08324557909357
 30
0.0
  0
LINE
  5
160
330
1F
100
AcDbEntity
  8
0
  6
HIDDEN
 62
     7
370
    18
100
AcDbLine
 10
217.5503633112
 20
71.2084298629
 30
0.0
 11
230.7093068774
 21
71.2084298629
 31
0.0
  0
LINE
  5
161
330
1F
100
AcDbEntity
  8
0
  6
HIDDEN
 62
     7
370
    18
100
AcDbLine
 10
217.5503633112
 20
71.2007855153
 30
0.0
 11
217.5503633112
 21
71.2084298629
 31
0.0
  0
LINE
  5
162
330
1F
100
AcDbEntity
  8
0
  6
HIDDEN
 62
     7
370
    18
100
AcDbLine
 10
217.5503633112
 20
71.2007855153
 30
0.0
 11
217.8078876894
 21
71.2007855156
 31
0.0
  0
SPLINE
  5
163
330
1F
100
AcDbEntity
  8
0
  6
HIDDEN
 62
     7
370
    18
100
AcDbSpline
210
0.0
220
0.0
230
1.0
 70
     8
 71
     3
 72
    22
 73
    18
 74
     0
 42
0.00000001
 43
0.00000001
 40
0.0
 40
0.0
 40
0.0
 40
0.0
 40
0.125
 40
0.125
 40
0.25
 40
0.25
 40
0.375
 40
0.375
 40
0.5
 40
0.5
 40
0.625
 40
0.625
 40
0.75
 40
0.75
 40
0.875
 40
0.875
 40
1.0
 40
1.0
 40
1.0
 40
1.0
 10
217.3447163782784
 20
68.78653840891384
 30
0.0
 10
217.3709055107323
 20
68.93754257468612
 30
0.0
 10
217.3971902364631
 20
69.08611079239799
 30
0.0
 10
217.4498965491198
 20
69.37859518066743
 30
0.0
 10
217.4765122491142
 20
69.52354426937622
 30
0.0
 10
217.5288543802196
 20
69.80378767003627
 30
0.0
 10
217.5542110943344
 20
69.93714948294821
 30
0.0
 10
217.6031163518407
 20
70.19068489057284
 30
0.0
 10
217.626895671702
 20
70.31200658205442
 30
0.0
 10
217.6709015593732
 20
70.53381091251212
 30
0.0
 10
217.6911231672869
 20
70.63431851248797
 30
0.0
 10
217.7277314935293
 20
70.81462089085485
 30
0.0
 10
217.7442204680241
 20
70.89489733479593
 30
0.0
 10
217.7716820120174
 20
71.02776015881668
 30
0.0
 10
217.7828267679565
 20
71.08120389590822
 30
0.0
 10
217.7996751408991
 20
71.16175451886537
 30
0.0
 10
217.8053269554625
 20
71.18861423700383
 30
0.0
 10
217.8078876895728
 20
71.2007855158824
 30
0.0
  0
SPLINE
  5
164
330
1F
100
AcDbEntity
  8
0
  6
HIDDEN
 62
     7
370
    18
100
AcDbSpline
210
0.0
220
0.0
230
1.0
 70
     8
 71
     3
 72
    22
 73
    18
 74
     0
 42
0.00000001
 43
0.00000001
 40
0.0
 40
0.0
 40
0.0
 40
0.0
 40
0.125
 40
0.125
 40
0.25
 40
0.25
 40
0.375
 40
0.375
 40
0.5
 40
0.5
 40
0.625
 40
0.625
 40
0.75
 40
0.75
 40
0.875
 40
0.875
 40
1.0
 40
1.0
 40
1.0
 40
1.0
 10
217.3447163782784
 20
45.21346159108618
 30
0.0
 10
217.370905510733
 20
45.06245742530975
 30
0.0
 10
217.3971902364645
 20
44.9138892075939
 30
0.0
 10
217.4498965491227
 20
44.62140481931669
 30
0.0
 10
217.4765122491179
 20
44.47645573060385
 30
0.0
 10
217.5288543802245
 20
44.19621232993761
 30
0.0
 10
217.55421109434
 20
44.06285051702291
 30
0.0
 10
217.6031163518473
 20
43.80931510939351
 30
0.0
 10
217.626895671709
 20
43.68799341790984
 30
0.0
 10
217.6709015593806
 20
43.46618908745067
 30
0.0
 10
217.6911231672945
 20
43.36568148747457
 30
0.0
 10
217.7277314935368
 20
43.18537910910847
 30
0.0
 10
217.7442204680314
 20
43.10510266516882
 30
0.0
 10
217.7716820120236
 20
42.97223984115304
 30
0.0
 10
217.7828267679621
 20
42.91879610406461
 30
0.0
 10
217.7996751409031
 20
42.83824548111546
 30
0.0
 10
217.8053269554649
 20
42.81138576298507
 30
0.0
 10
217.8078876895742
 20
42.79921448411124
 30
0.0
  0
LINE
  5
165
330
1F
100
AcDbEntity
  8
0
  6
HIDDEN
 62
     7
370
    18
100
AcDbLine
 10
217.5503633112
 20
42.7992144839
 30
0.0
 11
217.8078876894
 21
42.7992144839
 31
0.0
  0
LINE
  5
166
330
1F
100
AcDbEntity
  8
0
  6
HIDDEN
 62
     7
370
    18
100
AcDbLine
 10
217.5503633112
 20
42.7992144839
 30
0.0
 11
217.5503633112
 21
42.7915701371
 31
0.0
  0
LINE
  5
167
330
1F
100
AcDbEntity
  8
0
  6
HIDDEN
 62
     7
370
    18
100
AcDbLine
 10
217.5503633112
 20
42.7915701371
 30
0.0
 11
230.7093068774
 21
42.7915701371
 31
0.0
  0
ARC
  5
168
330
1F
100
AcDbEntity
  8
0
  6
HIDDEN
 62
     7
370
    18
100
AcDbCircle
 10
285.3048293341
 20
57.0
 30
0.0
 40
68.9746289633207
100
AcDbArc
 50
170.1608822782
 51
189.8391177218
  0
LINE
  5
169
330
1F
100
AcDbEntity
  8
0
  6
HIDDEN
 62
     7
370
    18
100
AcDbLine
 10
229.0932571085
 20
72.8230241655
 30
0.0
 11
226.2503474389
 21
72.8230241655
 31
0.0
  0
LINE
  5
16A
330
1F
100
AcDbEntity
  8
0
  6
HIDDEN
 62
     7
370
    18
100
AcDbLine
 10
229.0932571085
 20
79.2814013759
 30
0.0
 11
229.0932571085
 21
72.8230241655
 31
0.0
  0
ARC
  5
16B
330
1F
100
AcDbEntity
  8
0
  6
HIDDEN
 62
     7
370
    18
100
AcDbCircle
 10
226.2503474389
 20
79.2814013759
 30
0.0
 40
6.458377210417041
100
AcDbArc
 50
161.876084671
 51
180.0
  0
LINE
  5
16C
330
1F
100
AcDbEntity
  8
0
  6
HIDDEN
 62
     7
370
    18
100
AcDbLine
 10
229.0932571085
 20
41.1769758345
 30
0.0
 11
226.2503474389
 21
41.1769758345
 31
0.0
  0
LINE
  5
16D
330
1F
100
AcDbEntity
  8
0
  6
HIDDEN
 62
     7
370
    18
100
AcDbLine
 10
229.0932571085
 20
34.7185986241
 30
0.0
 11
229.0932571085
 21
41.1769758345
 31
0.0
  0
ARC
  5
16E
330
1F
100
AcDbEntity
  8
0
  6
HIDDEN
 62
     7
370
    18
100
AcDbCircle
 10
226.2503474389
 20
34.7185986241
 30
0.0
 40
6.458377210417041
100
AcDbArc
 50
180.0
 51
198.123915329
  0
SPLINE
  5
16F
330
1F
100
AcDbEntity
  8
0
  6
HIDDEN
 62
     7
370
    18
100
AcDbSpline
210
0.0
220
0.0
230
1.0
 70
     8
 71
     3
 72
    28
 73
    24
 74
     0
 42
0.00000001
 43
0.00000001
 40
0.0
 40
0.0
 40
0.0
 40
0.0
 40
0.0233248437488689
 40
0.0467203004634543
 40
0.0701952380358486
 40
0.0937584346209889
 40
0.1174185701383521
 40
0.1411842182920912
 40
0.1650638391366803
 40
0.1890657722090665
 40
0.2131982302423125
 40
0.2374692934698601
 40
0.3558559343197651
 40
0.4821296278898477
 40
0.5437690334344243
 40
0.608592366334718
 40
0.6707974936649481
 40
0.7374992282538669
 40
0.7991658464926048
 40
0.8682459375042364
 40
0.902381041464885
 40
0.9462995976071187
 40
1.0
 40
1.0
 40
1.0
 40
1.0
 10
219.7919702284887
 20
79.28140137593887
 30
0.0
 10
219.7929067651517
 20
79.19785022990327
 30
0.0
 10
219.794782673722
 20
79.03049499747908
 30
0.0
 10
219.8099776868251
 20
78.77952654448973
 30
0.0
 10
219.8343011372398
 20
78.52865974878068
 30
0.0
 10
219.8686844077126
 20
78.27828418398099
 30
0.0
 10
219.9129118061584
 20
78.02879359581856
 30
0.0
 10
219.9670564599166
 20
77.7805857687388
 30
0.0
 10
220.0310942421333
 20
77.53406021946107
 30
0.0
 10
220.1050030965386
 20
77.28962386616635
 30
0.0
 10
220.1887524719748
 20
77.04766663921566
 30
0.0
 10
220.4028854610104
 20
76.50022104615422
 30
0.0
 10
220.8477587294433
 20
75.66677965684802
 30
0.0
 10
221.5163875509796
 20
74.85259231255445
 30
0.0
 10
222.1458484113552
 20
74.28161723028241
 30
0.0
 10
222.6502389985263
 20
73.90715329676893
 30
0.0
 10
223.1976021624837
 20
73.5782796098721
 30
0.0
 10
223.7605615314613
 20
73.31125464401224
 30
0.0
 10
224.3631881739205
 20
73.09406789166678
 30
0.0
 10
224.8793372654841
 20
72.96328958902299
 30
0.0
 10
225.345181092408
 20
72.88333705522986
 30
0.0
 10
225.7653846899206
 20
72.83404620390445
 30
0.0
 10
226.0782432573499
 20
72.82693568016678
 30
0.0
 10
226.2503474389057
 20
72.8230241655218
 30
0.0
  0
SPLINE
  5
170
330
1F
100
AcDbEntity
  8
0
  6
HIDDEN
 62
     7
370
    18
100
AcDbSpline
210
0.0
220
0.0
230
1.0
 70
     8
 71
     3
 72
    14
 73
    10
 74
     0
 42
0.00000001
 43
0.00000001
 40
0.0
 40
0.0
 40
0.0
 40
0.0
 40
0.25
 40
0.25
 40
0.5
 40
0.5
 40
0.75
 40
0.75
 40
1.0
 40
1.0
 40
1.0
 40
1.0
 10
219.7919702284887
 20
34.71859862406113
 30
0.0
 10
219.7919702284887
 20
35.56399822625589
 30
0.0
 10
219.9600648507825
 20
36.40906826150472
 30
0.0
 10
220.6071099575668
 20
37.97116889485627
 30
0.0
 10
221.0858056057882
 20
38.68758428595452
 30
0.0
 10
222.2813864267352
 20
39.88315940037666
 30
0.0
 10
222.9978009325161
 20
40.36184888202529
 30
0.0
 10
224.5598922992142
 20
41.00888428261339
 30
0.0
 10
225.4049478363608
 20
41.1769758344782
 30
0.0
 10
226.2503474389057
 20
41.1769758344782
 30
0.0
  0
LINE
  5
171
330
1F
100
AcDbEntity
  8
0
  6
HIDDEN
 62
     7
370
    18
100
AcDbLine
 10
230.7078514111
 20
38.7550843806
 30
0.0
 11
230.7078514111
 21
41.1769758345
 31
0.0
  0
LINE
  5
172
330
1F
100
AcDbEntity
  8
0
  6
HIDDEN
 62
     7
370
    18
100
AcDbLine
 10
230.7093068774
 20
41.1769758345
 30
0.0
 11
230.7078514111
 21
41.1769758345
 31
0.0
  0
LINE
  5
173
330
1F
100
AcDbEntity
  8
0
  6
HIDDEN
 62
     7
370
    18
100
AcDbLine
 10
229.0932571085
 20
81.8647522601
 30
0.0
 11
223.6981416566
 21
81.8647522601
 31
0.0
  0
LINE
  5
174
330
1F
100
AcDbEntity
  8
0
  6
HIDDEN
 62
     7
370
    18
100
AcDbLine
 10
230.7078514111
 20
75.2449156194
 30
0.0
 11
230.7078514111
 21
72.8230241655
 31
0.0
  0
LINE
  5
175
330
1F
100
AcDbEntity
  8
0
  6
HIDDEN
 62
     7
370
    18
100
AcDbLine
 10
230.7093068774
 20
72.8230241655
 30
0.0
 11
230.7078514111
 21
72.8230241655
 31
0.0
  0
LINE
  5
176
330
1F
100
AcDbEntity
  8
0
  6
HIDDEN
 62
     7
370
    18
100
AcDbLine
 10
229.0932571085
 20
32.1352477399
 30
0.0
 11
223.6981416566
 21
32.1352477399
 31
0.0
  0
LINE
  5
177
330
1F
100
AcDbEntity
  8
0
  6
HIDDEN
 62
     7
370
    18
100
AcDbLine
 10
230.7078514111
 20
38.7550843806
 30
0.0
 11
230.7078514111
 21
31.2693298079
 31
0.0
  0
LINE
  5
178
330
1F
100
AcDbEntity
  8
0
  6
HIDDEN
 62
     7
370
    18
100
AcDbLine
 10
230.7078514111
 20
75.2449156194
 30
0.0
 11
230.7078514111
 21
82.7306701913
 31
0.0
  0
LINE
  5
179
330
1F
100
AcDbEntity
  8
0
  6
HIDDEN
 62
     7
370
    18
100
AcDbLine
 10
229.0932571085
 20
32.1352477399
 30
0.0
 11
229.0932571085
 21
34.7185986241
 31
0.0
  0
LINE
  5
17A
330
1F
100
AcDbEntity
  8
0
  6
HIDDEN
 62
     7
370
    18
100
AcDbLine
 10
229.0932571085
 20
81.8647522601
 30
0.0
 11
229.0932571085
 21
79.2814013759
 31
0.0
  0
LINE
  5
17B
330
1F
100
AcDbEntity
  8
0
  6
HIDDEN
 62
     7
370
    18
100
AcDbLine
 10
220.1123963354
 20
81.2904291122
 30
0.0
 11
220.300379445
 21
81.8647522601
 31
0.0
  0
LINE
  5
17C
330
1F
100
AcDbEntity
  8
0
  6
HIDDEN
 62
     7
370
    18
100
AcDbLine
 10
223.6981416566
 20
81.8647522601
 30
0.0
 11
220.3003794442
 21
81.8647522601
 31
0.0
  0
LINE
  5
17D
330
1F
100
AcDbEntity
  8
0
  6
HIDDEN
 62
     7
370
    18
100
AcDbLine
 10
220.1123963354
 20
32.7095708878
 30
0.0
 11
220.300379445
 21
32.1352477399
 31
0.0
  0
LINE
  5
17E
330
1F
100
AcDbEntity
  8
0
  6
HIDDEN
 62
     7
370
    18
100
AcDbLine
 10
223.6981416566
 20
32.1352477399
 30
0.0
 11
220.3003794442
 21
32.1352477399
 31
0.0
  0
SPLINE
  5
17F
330
1F
100
AcDbEntity
  8
0
  6
HIDDEN
 62
     7
370
    18
100
AcDbSpline
210
0.0
220
0.0
230
1.0
 70
     8
 71
     3
 72
     8
 73
     4
 74
     0
 42
0.00000001
 43
0.00000001
 40
0.0
 40
0.0
 40
0.0
 40
0.0
 40
1.0
 40
1.0
 40
1.0
 40
1.0
 10
216.9699208879561
 20
69.9167546951435
 30
0.0
 10
216.78515442207
 20
70.14078160768885
 30
0.0
 10
216.6645424017412
 20
70.41041742629974
 30
0.0
 10
216.6208858890842
 20
70.69753284763213
 30
0.0
  0
SPLINE
  5
180
330
1F
100
AcDbEntity
  8
0
  6
HIDDEN
 62
     7
370
    18
100
AcDbSpline
210
0.0
220
0.0
230
1.0
 70
    24
 71
     3
 72
     8
 73
     4
 74
     0
 42
0.00000001
 43
0.00000001
 40
0.0
 40
0.0
 40
0.0
 40
0.0
 40
1.0
 40
1.0
 40
1.0
 40
1.0
 10
216.969919741675
 20
69.91675442083412
 30
0.0
 10
216.9563477299899
 20
69.91675442083412
 30
0.0
 10
216.9495617241475
 20
69.91675442083412
 30
0.0
 10
216.9495617241475
 20
69.91675442083412
 30
0.0
  0
SPLINE
  5
181
330
1F
100
AcDbEntity
  8
0
  6
HIDDEN
 62
     7
370
    18
100
AcDbSpline
210
0.0
220
0.0
230
1.0
 70
     8
 71
     3
 72
    12
 73
     8
 74
     0
 42
0.00000001
 43
0.00000001
 40
0.0010109359111025
 40
0.0010109359111025
 40
0.0010109359111025
 40
0.0010109359111025
 40
0.2187931869111025
 40
0.2187931869111025
 40
0.4687931869111026
 40
0.4687931869111026
 40
0.717782251
 40
0.717782251
 40
0.717782251
 40
0.717782251
 10
216.5874339837327
 20
70.86789142318715
 30
0.0
 10
216.5919725275876
 20
70.76297843326522
 30
0.0
 10
216.606760175396
 20
70.65850927029082
 30
0.0
 10
216.6599974239815
 20
70.43932359948909
 30
0.0
 10
216.7016214608566
 20
70.32538725071191
 30
0.0
 10
216.8089237455842
 20
70.11003314380778
 30
0.0
 10
216.874499580989
 20
70.00857558432102
 30
0.0
 10
216.9504881588877
 20
69.91562432887248
 30
0.0
  0
SPLINE
  5
182
330
1F
100
AcDbEntity
  8
0
  6
HIDDEN
 62
     7
370
    18
100
AcDbSpline
210
0.0
220
0.0
230
1.0
 70
     8
 71
     3
 72
     8
 73
     4
 74
     0
 42
0.00000001
 43
0.00000001
 40
0.0
 40
0.0
 40
0.0
 40
0.0
 40
1.0
 40
1.0
 40
1.0
 40
1.0
 10
216.5874318213469
 20
43.13210781716541
 30
0.0
 10
216.6023422406162
 20
43.47740389795267
 30
0.0
 10
216.731736576331
 20
43.81679493644955
 30
0.0
 10
216.9504881563059
 20
44.08437567243086
 30
0.0
  0
SPLINE
  5
183
330
1F
100
AcDbEntity
  8
0
  6
HIDDEN
 62
     7
370
    18
100
AcDbSpline
210
0.0
220
0.0
230
1.0
 70
    24
 71
     3
 72
     8
 73
     4
 74
     0
 42
0.00000001
 43
0.00000001
 40
0.0
 40
0.0
 40
0.0
 40
0.0
 40
1.0
 40
1.0
 40
1.0
 40
1.0
 10
216.969919741675
 20
44.08324557916588
 30
0.0
 10
216.9563477299899
 20
44.08324557916588
 30
0.0
 10
216.9495617241475
 20
44.08324557916588
 30
0.0
 10
216.9495617241475
 20
44.08324557916588
 30
0.0
  0
SPLINE
  5
184
330
1F
100
AcDbEntity
  8
0
  6
HIDDEN
 62
     7
370
    18
100
AcDbSpline
210
0.0
220
0.0
230
1.0
 70
     8
 71
     3
 72
     8
 73
     4
 74
     0
 42
0.00000001
 43
0.00000001
 40
0.0
 40
0.0
 40
0.0
 40
0.0
 40
1.0
 40
1.0
 40
1.0
 40
1.0
 10
216.9699208884971
 20
44.08324530472026
 30
0.0
 10
216.7851544209191
 20
43.85921839318506
 30
0.0
 10
216.6645424019948
 20
43.58958257370478
 30
0.0
 10
216.620885889179
 20
43.30246715235337
 30
0.0
  0
LINE
  5
185
330
1F
100
AcDbEntity
  8
0
  6
HIDDEN
 62
     7
370
    18
100
AcDbLine
 10
216.9699204283
 20
44.0832455792
 30
0.0
 11
217.5503633112
 21
44.0832455792
 31
0.0
  0
LINE
  5
186
330
1F
100
AcDbEntity
  8
0
  6
HIDDEN
 62
     7
370
    18
100
AcDbLine
 10
216.9699204279
 20
69.9167544208
 30
0.0
 11
217.5503633112
 21
69.9167544208
 31
0.0
  0
LINE
  5
187
330
1F
100
AcDbEntity
  8
0
  6
HIDDEN
 62
     7
370
    18
100
AcDbLine
 10
217.5523959958
 20
44.0730043133
 30
0.0
 11
217.5503633112
 21
44.0832455792
 31
0.0
  0
LINE
  5
188
330
1F
100
AcDbEntity
  8
0
  6
HIDDEN
 62
     7
370
    18
100
AcDbLine
 10
217.5523959958
 20
69.9269956867
 30
0.0
 11
217.5503633112
 21
69.9167544208
 31
0.0
  0
LINE
  5
189
330
1F
100
AcDbEntity
  8
0
  6
HIDDEN
 62
     7
370
    18
100
AcDbLine
 10
220.2919680836
 20
81.8390539969
 30
0.0
 11
229.0932571085
 21
81.8390539969
 31
0.0
  0
LINE
  5
18A
330
1F
100
AcDbEntity
  8
0
  6
HIDDEN
 62
     7
370
    18
100
AcDbLine
 10
220.2919680836
 20
32.1609460022
 30
0.0
 11
229.0932571085
 21
32.1609460022
 31
0.0
  0
LWPOLYLINE
  5
18B
330
1F
100
AcDbEntity
  8
0
  6
HIDDEN
 62
     7
370
    18
100
AcDbPolyline
 90
        3
 70
   128
 43
0.0
 10
219.7919702285
 20
79.2814013759
 10
219.8040223757
 20
78.8870292507
 10
219.8336352194
 20
78.5489804014
  0
LWPOLYLINE
  5
18C
330
1F
100
AcDbEntity
  8
0
  6
HIDDEN
 62
     7
370
    18
100
AcDbPolyline
 90
        3
 70
   128
 43
0.0
 10
219.7919702285
 20
34.7185986241
 10
219.8040223757
 20
35.1129707493
 10
219.8336331805
 20
35.4510017353
  0
LWPOLYLINE
  5
18D
330
1F
100
AcDbEntity
  8
0
  6
HIDDEN
 62
     7
370
    18
100
AcDbPolyline
 90
        3
 70
   128
 43
0.0
 10
224.9210979596
 20
41.038704004
 10
225.4399743086
 20
41.1259328266
 10
226.2503474389
 20
41.1769758345
  0
LINE
  5
18E
330
1F
100
AcDbEntity
  8
0
  6
HIDDEN
 62
     7
370
    18
100
AcDbLine
 10
229.0932571085
 20
81.8647522601
 30
0.0
 11
229.0932571085
 21
82.0262116904
 31
0.0
  0
ARC
  5
18F
330
1F
100
AcDbEntity
  8
0
  6
HIDDEN
 62
     7
370
    18
100
AcDbCircle
 10
226.2503474389
 20
79.2814013759
 30
0.0
 40
6.458377210672871
100
AcDbArc
 50
270.0
 51
296.1159709695
  0
LINE
  5
190
330
1F
100
AcDbEntity
  8
0
  6
HIDDEN
 62
     7
370
    18
100
AcDbLine
 10
223.5679819256
 20
82.0262116904
 30
0.0
 11
229.0932571085
 21
82.0262116904
 31
0.0
  0
ARC
  5
191
330
1F
100
AcDbEntity
  8
0
  6
HIDDEN
 62
     7
370
    18
100
AcDbCircle
 10
226.2503474389
 20
34.7185986241
 30
0.0
 40
6.458377210417069
100
AcDbArc
 50
63.8840290274
 51
90.0
  0
LINE
  5
192
330
1F
100
AcDbEntity
  8
0
  6
HIDDEN
 62
     7
370
    18
100
AcDbLine
 10
223.5679819256
 20
31.9737883096
 30
0.0
 11
229.0932571085
 21
31.9737883096
 31
0.0
  0
LINE
  5
193
330
1F
100
AcDbEntity
  8
0
  6
HIDDEN
 62
     7
370
    18
100
AcDbLine
 10
229.0932571085
 20
32.1352477399
 30
0.0
 11
229.0932571085
 21
31.9737883096
 31
0.0
  0
ARC
  5
194
330
1F
100
AcDbEntity
  8
0
  6
HIDDEN
 62
     7
370
    18
100
AcDbCircle
 10
223.5679819256
 20
35.6066254905
 30
0.0
 40
3.632837180859607
100
AcDbArc
 50
161.6823015897
 51
270.0
  0
ARC
  5
195
330
1F
100
AcDbEntity
  8
0
  6
HIDDEN
 62
     7
370
    18
100
AcDbCircle
 10
223.5679819256
 20
78.3933745095
 30
0.0
 40
3.63283718085961
100
AcDbArc
 50
90.0
 51
198.3176984224
  0
LINE
  5
196
330
1F
100
AcDbEntity
  8
0
  6
HIDDEN
 62
     7
370
    18
100
AcDbLine
 10
229.0932571085
 20
34.1948140838
 30
0.0
 11
230.7078514111
 21
34.1948140838
 31
0.0
  0
LINE
  5
197
330
1F
100
AcDbEntity
  8
0
  6
HIDDEN
 62
     7
370
    18
100
AcDbLine
 10
229.0932571085
 20
38.2265398306
 30
0.0
 11
230.7078514111
 21
38.2265398306
 31
0.0
  0
LINE
  5
198
330
1F
100
AcDbEntity
  8
0
  6
HIDDEN
 62
     7
370
    18
100
AcDbLine
 10
229.0932571085
 20
79.8051859154
 30
0.0
 11
230.7078514111
 21
79.8051859154
 31
0.0
  0
LINE
  5
199
330
1F
100
AcDbEntity
  8
0
  6
HIDDEN
 62
     7
370
    18
100
AcDbLine
 10
229.0932571085
 20
75.7734601686
 30
0.0
 11
230.7078514111
 21
75.7734601686
 31
0.0
  0
LINE
  5
19A
330
1F
100
AcDbEntity
  8
0
  6
HIDDEN
 62
     7
370
    18
100
AcDbLine
 10
229.0932571085
 20
34.1956495693
 30
0.0
 11
230.7078514111
 21
34.1956495693
 31
0.0
  0
LINE
  5
19B
330
1F
100
AcDbEntity
  8
0
  6
HIDDEN
 62
     7
370
    18
100
AcDbLine
 10
229.0932571085
 20
79.8043504299
 30
0.0
 11
230.7078514111
 21
79.8043504299
 31
0.0
  0
LINE
  5
19C
330
1F
100
AcDbEntity
  8
0
  6
HIDDEN
 62
     7
370
    18
100
AcDbLine
 10
229.0932571085
 20
38.2235028691
 30
0.0
 11
230.7078514111
 21
38.2235028691
 31
0.0
  0
LINE
  5
19D
330
1F
100
AcDbEntity
  8
0
  6
HIDDEN
 62
     7
370
    18
100
AcDbLine
 10
229.0932571085
 20
75.7764971309
 30
0.0
 11
230.7078514111
 21
75.7764971309
 31
0.0
  0
SPLINE
  5
19E
330
1F
100
AcDbEntity
  8
0
  6
HIDDEN
 62
     7
370
    18
100
AcDbSpline
210
0.0
220
0.0
230
1.0
 70
     8
 71
     3
 72
     9
 73
     5
 74
     0
 42
0.00000001
 43
0.00000001
 40
0.0
 40
0.0
 40
0.0
 40
0.0
 40
0.9416198493501939
 40
1.0
 40
1.0
 40
1.0
 40
1.0
 10
219.2387537443892
 20
45.40923420423174
 30
0.0
 10
219.371068147711
 20
45.42420018533692
 30
0.0
 10
219.5115860046925
 20
45.44009405282019
 30
0.0
 10
219.6530975333505
 20
45.45605419752133
 30
0.0
 10
219.6613589977122
 20
45.45698595317337
 30
0.0
  0
SPLINE
  5
19F
330
1F
100
AcDbEntity
  8
0
  6
HIDDEN
 62
     7
370
    18
100
AcDbSpline
210
0.0
220
0.0
230
1.0
 70
     8
 71
     3
 72
     9
 73
     5
 74
     0
 42
0.00000001
 43
0.00000001
 40
0.0
 40
0.0
 40
0.0
 40
0.0
 40
0.9416198206205177
 40
1.0
 40
1.0
 40
1.0
 40
1.0
 10
219.2387539529423
 20
68.5907657712505
 30
0.0
 10
219.3710682869013
 20
68.57579979799354
 30
0.0
 10
219.5115860745067
 20
68.55990593836015
 30
0.0
 10
219.653097533298
 20
68.54394580154168
 30
0.0
 10
219.6613589976465
 20
68.5430140458913
 30
0.0
  0
SPLINE
  5
1A0
330
1F
100
AcDbEntity
  8
0
  6
HIDDEN
 62
     7
370
    18
100
AcDbSpline
210
0.0
220
0.0
230
1.0
 70
     8
 71
     3
 72
    11
 73
     7
 74
     0
 42
0.00000001
 43
0.00000001
 40
0.0
 40
0.0
 40
0.0
 40
0.0
 40
0.2503060042723632
 40
0.5004061579053405
 40
0.7503032267969393
 40
1.0
 40
1.0
 40
1.0
 40
1.0
 10
216.5595542749912
 20
69.91675442085557
 30
0.0
 10
216.5494473759163
 20
69.91675447618096
 30
0.0
 10
216.5292418896391
 20
69.91675458678621
 30
0.0
 10
216.5093666474579
 20
69.91675474488298
 30
0.0
 10
216.4965059405853
 20
69.9167544318461
 30
0.0
 10
216.4949461531825
 20
69.91675446645355
 30
0.0
 10
216.4941665721537
 20
69.91675448375035
 30
0.0
  0
SPLINE
  5
1A1
330
1F
100
AcDbEntity
  8
0
  6
HIDDEN
 62
     7
370
    18
100
AcDbSpline
210
0.0
220
0.0
230
1.0
 70
     8
 71
     3
 72
    11
 73
     7
 74
     0
 42
0.00000001
 43
0.00000001
 40
0.0
 40
0.0
 40
0.0
 40
0.0
 40
0.3351652677444265
 40
0.680058225689904
 40
0.8813273577042015
 40
1.0
 40
1.0
 40
1.0
 40
1.0
 10
216.494166570059
 20
69.91675445230153
 30
0.0
 10
216.5026160505443
 20
69.91675443898754
 30
0.0
 10
216.5197602455424
 20
69.91675441197313
 30
0.0
 10
216.6440571700387
 20
69.91675442217868
 30
0.0
 10
216.7734225863428
 20
69.91675442069614
 30
0.0
 10
216.8557083488658
 20
69.91675442079679
 30
0.0
 10
216.886229742588
 20
69.91675442083412
 30
0.0
  0
SPLINE
  5
1A2
330
1F
100
AcDbEntity
  8
0
  6
HIDDEN
 62
     7
370
    18
100
AcDbSpline
210
0.0
220
0.0
230
1.0
 70
     8
 71
     3
 72
    15
 73
    11
 74
     0
 42
0.00000001
 43
0.00000001
 40
0.0
 40
0.0
 40
0.0
 40
0.0
 40
0.2831014136086747
 40
0.4014950662611264
 40
0.4534947533822157
 40
0.5023041323724691
 40
0.5510779440384664
 40
0.6028853676238294
 40
0.7203075976157539
 40
1.0
 40
1.0
 40
1.0
 40
1.0
 10
216.6028178707222
 20
70.70469374875454
 30
0.0
 10
216.6089517656728
 20
70.66983317101212
 30
0.0
 10
216.6176508693907
 20
70.62039382066698
 30
0.0
 10
216.6363291304991
 20
70.55206087457215
 30
0.0
 10
216.6471963428426
 20
70.51401566885579
 30
0.0
 10
216.6552855201381
 20
70.48618899385909
 30
0.0
 10
216.6633573044616
 20
70.45852607251292
 30
0.0
 10
216.674480244589
 20
70.42110285334743
 30
0.0
 10
216.6950063153104
 20
70.35482301771412
 30
0.0
 10
216.714125463661
 20
70.30869371175682
 30
0.0
 10
216.7275912997137
 20
70.27620431108599
 30
0.0
  0
LINE
  5
1A3
330
1F
100
AcDbEntity
  8
0
  6
HIDDEN
 62
     7
370
    18
100
AcDbLine
 10
230.7078514111
 20
40.2485841105
 30
0.0
 11
229.0932571085
 21
40.2485841105
 31
0.0
  0
LINE
  5
1A4
330
1F
100
AcDbEntity
  8
0
  6
HIDDEN
 62
     7
370
    18
100
AcDbLine
 10
229.0932571085
 20
32.1756125975
 30
0.0
 11
230.7078514111
 21
32.1756125975
 31
0.0
  0
LINE
  5
1A5
330
1F
100
AcDbEntity
  8
0
  6
HIDDEN
 62
     7
370
    18
100
AcDbLine
 10
230.7078514111
 20
81.8243874025
 30
0.0
 11
229.0932571085
 21
81.8243874025
 31
0.0
  0
LINE
  5
1A6
330
1F
100
AcDbEntity
  8
0
  6
HIDDEN
 62
     7
370
    18
100
AcDbLine
 10
229.0932571085
 20
73.7514158895
 30
0.0
 11
230.7078514111
 21
73.7514158895
 31
0.0
  0
LINE
  5
1A7
330
1F
100
AcDbEntity
  8
0
  6
HIDDEN
 62
     7
370
    18
100
AcDbLine
 10
229.0932571085
 20
75.7696587678
 30
0.0
 11
230.7078514111
 21
75.7696587678
 31
0.0
  0
LINE
  5
1A8
330
1F
100
AcDbEntity
  8
0
  6
HIDDEN
 62
     7
370
    18
100
AcDbLine
 10
230.7078514111
 20
38.2303412322
 30
0.0
 11
229.0932571085
 21
38.2303412322
 31
0.0
  0
ENDSEC
  0
SECTION
  2
OBJECTS
  0
DICTIONARY
  5
C
330
0
100
AcDbDictionary
281
     1
  3
ACAD_GROUP
350
D
  3
ACAD_LAYOUT
350
1A
  3
ACAD_MLINESTYLE
350
17
  3
ACAD_PLOTSETTINGS
350
19
  3
ACAD_PLOTSTYLENAME
350
E
  3
ACAD_SCALELIST
350
47
  3
DWGPROPS
350
1A9
  0
DICTIONARY
  5
D
102
{ACAD_REACTORS
330
C
102
}
330
C
100
AcDbDictionary
281
     1
  0
DICTIONARY
  5
1A
102
{ACAD_REACTORS
330
C
102
}
330
C
100
AcDbDictionary
281
     1
  3
Layout1
350
1E
  3
Layout2
350
26
  3
Model
350
22
  0
DICTIONARY
  5
17
102
{ACAD_REACTORS
330
C
102
}
330
C
100
AcDbDictionary
281
     1
  3
Standard
350
18
  0
DICTIONARY
  5
19
102
{ACAD_REACTORS
330
C
102
}
330
C
100
AcDbDictionary
281
     1
  0
ACDBDICTIONARYWDFLT
  5
E
102
{ACAD_REACTORS
330
C
102
}
330
C
100
AcDbDictionary
281
     1
  3
Normal
350
F
100
AcDbDictionaryWithDefault
340
F
  0
DICTIONARY
  5
47
102
{ACAD_REACTORS
330
C
102
}
330
C
100
AcDbDictionary
281
     1
  3
A0
350
48
  3
A1
350
49
  3
A2
350
4A
  3
A3
350
4B
  3
A4
350
4C
  3
A5
350
4D
  3
A6
350
4E
  3
A7
350
4F
  3
A8
350
50
  3
A9
350
51
  3
B0
350
52
  3
B1
350
53
  3
B2
350
54
  3
B3
350
55
  3
B4
350
56
  3
B5
350
57
  3
B6
350
58
  0
XRECORD
  5
1A9
102
{ACAD_REACTORS
330
C
102
}
330
C
100
AcDbXrecord
280
     1
  1
DWGPROPS COOKIE
  2

  3

  4

  6

  7

  8

  9

300
=
301
=
302
=
303
=
304
=
305
=
306
=
307
=
308
=
309
=
 40
0.0
 41
2461215.321191076
 42
2461215.321191528
  1

 90
        0
  0
LAYOUT
  5
1E
102
{ACAD_REACTORS
330
1A
102
}
330
1A
100
AcDbPlotSettings
  1

  2
none_device
  4

  6

 40
0.0
 41
0.0
 42
0.0
 43
0.0
 44
0.0
 45
0.0
 46
0.0
 47
0.0
 48
0.0
 49
0.0
140
0.0
141
0.0
142
1.0
143
1.0
 70
   688
 72
     1
 73
     0
 74
     5
  7

 75
    16
147
1.0
148
0.0
149
0.0
100
AcDbLayout
  1
Layout1
 70
     1
 71
     1
 10
0.0
 20
0.0
 11
420.0
 21
297.0
 12
0.0
 22
0.0
 32
0.0
 14
1.0000000000E+20
 24
1.0000000000E+20
 34
1.0000000000E+20
 15
-1.0000000000E+20
 25
-1.0000000000E+20
 35
-1.0000000000E+20
146
0.0
 13
0.0
 23
0.0
 33
0.0
 16
1.0
 26
0.0
 36
0.0
 17
0.0
 27
1.0
 37
0.0
 76
     0
330
1B
  0
LAYOUT
  5
26
102
{ACAD_REACTORS
330
1A
102
}
330
1A
100
AcDbPlotSettings
  1

  2
none_device
  4

  6

 40
0.0
 41
0.0
 42
0.0
 43
0.0
 44
0.0
 45
0.0
 46
0.0
 47
0.0
 48
0.0
 49
0.0
140
0.0
141
0.0
142
1.0
143
1.0
 70
   688
 72
     1
 73
     0
 74
     5
  7

 75
    16
147
1.0
148
0.0
149
0.0
100
AcDbLayout
  1
Layout2
 70
     1
 71
     2
 10
0.0
 20
0.0
 11
0.0
 21
0.0
 12
0.0
 22
0.0
 32
0.0
 14
0.0
 24
0.0
 34
0.0
 15
0.0
 25
0.0
 35
0.0
146
0.0
 13
0.0
 23
0.0
 33
0.0
 16
1.0
 26
0.0
 36
0.0
 17
0.0
 27
1.0
 37
0.0
 76
     0
330
23
  0
LAYOUT
  5
22
102
{ACAD_REACTORS
330
1A
102
}
330
1A
100
AcDbPlotSettings
  1

  2
none_device
  4
Letter_(8.50_x_11.00_Inches)
  6

 40
6.35
 41
6.35
 42
6.35000508
 43
6.35000508
 44
215.9
 45
279.4
 46
0.0
 47
0.0
 48
0.0
 49
0.0
140
0.0
141
0.0
142
1.0
143
1.0
 70
  1712
 72
     1
 73
     0
 74
     0
  7

 75
     0
147
1.0
148
0.0
149
0.0
100
AcDbLayout
  1
Model
 70
     1
 71
     0
 10
0.0
 20
0.0
 11
297.0
 21
210.0
 12
0.0
 22
0.0
 32
0.0
 14
0.0
 24
0.0
 34
0.0
 15
297.0
 25
210.0
 35
0.0
146
0.0
 13
0.0
 23
0.0
 33
0.0
 16
1.0
 26
0.0
 36
0.0
 17
0.0
 27
1.0
 37
0.0
 76
     0
330
1F
331
29
  0
MLINESTYLE
  5
18
102
{ACAD_REACTORS
330
17
102
}
330
17
100
AcDbMlineStyle
  2
Standard
 70
     0
  3

 62
   256
 51
90.0
 52
90.0
 71
     2
 49
0.5
 62
   256
  6
BYLAYER
 49
-0.5
 62
   256
  6
BYLAYER
  0
ACDBPLACEHOLDER
  5
F
102
{ACAD_REACTORS
330
E
102
}
330
E
  0
SCALE
  5
48
102
{ACAD_REACTORS
330
47
102
}
330
47
100
AcDbScale
 70
     0
300
1:1
140
1.0
141
1.0
290
     1
  0
SCALE
  5
49
102
{ACAD_REACTORS
330
47
102
}
330
47
100
AcDbScale
 70
     0
300
1:2
140
1.0
141
2.0
290
     0
  0
SCALE
  5
4A
102
{ACAD_REACTORS
330
47
102
}
330
47
100
AcDbScale
 70
     0
300
1:4
140
1.0
141
4.0
290
     0
  0
SCALE
  5
4B
102
{ACAD_REACTORS
330
47
102
}
330
47
100
AcDbScale
 70
     0
300
1:5
140
1.0
141
5.0
290
     0
  0
SCALE
  5
4C
102
{ACAD_REACTORS
330
47
102
}
330
47
100
AcDbScale
 70
     0
300
1:8
140
1.0
141
8.0
290
     0
  0
SCALE
  5
4D
102
{ACAD_REACTORS
330
47
102
}
330
47
100
AcDbScale
 70
     0
300
1:10
140
1.0
141
10.0
290
     0
  0
SCALE
  5
4E
102
{ACAD_REACTORS
330
47
102
}
330
47
100
AcDbScale
 70
     0
300
1:16
140
1.0
141
16.0
290
     0
  0
SCALE
  5
4F
102
{ACAD_REACTORS
330
47
102
}
330
47
100
AcDbScale
 70
     0
300
1:20
140
1.0
141
20.0
290
     0
  0
SCALE
  5
50
102
{ACAD_REACTORS
330
47
102
}
330
47
100
AcDbScale
 70
     0
300
1:30
140
1.0
141
30.0
290
     0
  0
SCALE
  5
51
102
{ACAD_REACTORS
330
47
102
}
330
47
100
AcDbScale
 70
     0
300
1:40
140
1.0
141
40.0
290
     0
  0
SCALE
  5
52
102
{ACAD_REACTORS
330
47
102
}
330
47
100
AcDbScale
 70
     0
300
1:50
140
1.0
141
50.0
290
     0
  0
SCALE
  5
53
102
{ACAD_REACTORS
330
47
102
}
330
47
100
AcDbScale
 70
     0
300
1:100
140
1.0
141
100.0
290
     0
  0
SCALE
  5
54
102
{ACAD_REACTORS
330
47
102
}
330
47
100
AcDbScale
 70
     0
300
2:1
140
2.0
141
1.0
290
     0
  0
SCALE
  5
55
102
{ACAD_REACTORS
330
47
102
}
330
47
100
AcDbScale
 70
     0
300
4:1
140
4.0
141
1.0
290
     0
  0
SCALE
  5
56
102
{ACAD_REACTORS
330
47
102
}
330
47
100
AcDbScale
 70
     0
300
8:1
140
8.0
141
1.0
290
     0
  0
SCALE
  5
57
102
{ACAD_REACTORS
330
47
102
}
330
47
100
AcDbScale
 70
     0
300
10:1
140
10.0
141
1.0
290
     0
  0
SCALE
  5
58
102
{ACAD_REACTORS
330
47
102
}
330
47
100
AcDbScale
 70
     0
300
100:1
140
100.0
141
1.0
290
     0
  0
ENDSEC
  0
EOF
