ISO-10303-21;
HEADER;
FILE_DESCRIPTION (( 'STEP AP203' ),
    '1' );
FILE_NAME ('006014.step',
    '2026-06-29T03:46:36',
    ( '' ),
    ( '' ),
    'SwSTEP 2.0',
    'SolidWorks 2025',
    '' );
FILE_SCHEMA (( 'CONFIG_CONTROL_DESIGN' ));
ENDSEC;

DATA;
#1 = VECTOR ( 'NONE', #973, 1000.000000000000000 ) ;
#2 = ORIENTED_EDGE ( 'NONE', *, *, #884, .F. ) ;
#3 = LOCAL_TIME ( 11, 46, 36.00000000000000000, #1034 ) ;
#4 = CARTESIAN_POINT ( 'NONE',  ( 0.3348973726205890511, -0.6234186453783159276, -0.1665324950574560980 ) ) ;
#5 = ORIENTED_EDGE ( 'NONE', *, *, #204, .T. ) ;
#6 = EDGE_LOOP ( 'NONE', ( #383, #848 ) ) ;
#7 = EDGE_CURVE ( 'NONE', #838, #207, #524, .T. ) ;
#8 = CARTESIAN_POINT ( 'NONE',  ( 0.5625000000000000000, -0.9000000000000000222, -0.1874999999999998612 ) ) ;
#9 = ORIENTED_EDGE ( 'NONE', *, *, #7, .F. ) ;
#10 = CARTESIAN_POINT ( 'NONE',  ( 0.3158009865436319230, 0.4736471076868399854, -0.1874999999999999722 ) ) ;
#11 = AXIS2_PLACEMENT_3D ( 'NONE', #826, #485, #238 ) ;
#12 = PERSON_AND_ORGANIZATION ( #565, #806 ) ;
#13 = DIRECTION ( 'NONE',  ( -0.000000000000000000, 1.000000000000000000, 0.000000000000000000 ) ) ;
#14 = ORIENTED_EDGE ( 'NONE', *, *, #643, .F. ) ;
#15 = DIRECTION ( 'NONE',  ( 0.000000000000000000, 0.000000000000000000, -1.000000000000000000 ) ) ;
#16 = B_SPLINE_CURVE_WITH_KNOTS ( 'NONE', 3,
 ( #1044, #370, #217, #609, #701, #305 ),
 .UNSPECIFIED., .F., .F.,
 ( 4, 2, 4 ),
 ( 0.0003023361049921031735, 0.0004533459878041876394, 0.0006043558706162721053 ),
 .UNSPECIFIED. ) ;
#17 = CC_DESIGN_APPROVAL ( #881, ( #1075 ) ) ;
#18 = CYLINDRICAL_SURFACE ( 'NONE', #871, 0.09374999999999993061 ) ;
#19 = CARTESIAN_POINT ( 'NONE',  ( -0.1283009865436320895, 0.5249999999999996891, -0.1874999999999999167 ) ) ;
#20 = VERTEX_POINT ( 'NONE', #134 ) ;
#21 = DIRECTION ( 'NONE',  ( -1.000000000000000000, 0.000000000000000000, 0.000000000000000000 ) ) ;
#22 = EDGE_LOOP ( 'NONE', ( #225, #417, #499, #205, #44, #950 ) ) ;
#23 = DIRECTION ( 'NONE',  ( -1.000000000000000000, 0.000000000000000000, 0.000000000000000000 ) ) ;
#24 = CARTESIAN_POINT ( 'NONE',  ( 0.2812500000000000000, -0.9000000000000000222, -0.1874999999999998612 ) ) ;
#25 = EDGE_LOOP ( 'NONE', ( #113, #396 ) ) ;
#26 = EDGE_CURVE ( 'NONE', #56, #606, #698, .T. ) ;
#27 = CARTESIAN_POINT ( 'NONE',  ( 0.5625000000000000000, -0.5249999999999996891, 0.1874999999999998057 ) ) ;
#28 = EDGE_LOOP ( 'NONE', ( #550, #116 ) ) ;
#29 = CARTESIAN_POINT ( 'NONE',  ( -0.4500000000000000111, 0.5249999999999996891, -0.1874999999999999167 ) ) ;
#30 = AXIS2_PLACEMENT_3D ( 'NONE', #929, #181, #511 ) ;
#31 = ORIENTED_EDGE ( 'NONE', *, *, #691, .F. ) ;
#32 = LINE ( 'NONE', #351, #559 ) ;
#33 = AXIS2_PLACEMENT_3D ( 'NONE', #543, #137, #466 ) ;
#34 = CALENDAR_DATE ( 2026, 29, 6 ) ;
#35 = ORIENTED_EDGE ( 'NONE', *, *, #250, .F. ) ;
#36 = DIRECTION ( 'NONE',  ( 0.7071067811865474617, 0.000000000000000000, 0.7071067811865475727 ) ) ;
#37 = DIRECTION ( 'NONE',  ( -1.000000000000000000, 0.000000000000000000, 0.000000000000000000 ) ) ;
#38 = ORIENTED_EDGE ( 'NONE', *, *, #817, .F. ) ;
#39 = LINE ( 'NONE', #27, #1039 ) ;
#40 = ADVANCED_FACE ( 'NONE', ( #539 ), #625, .F. ) ;
#41 = ORIENTED_EDGE ( 'NONE', *, *, #460, .F. ) ;
#42 = CARTESIAN_POINT ( 'NONE',  ( -0.1968750000000003553, -0.7124999999999994671, -6.505213034913027837E-17 ) ) ;
#43 = CARTESIAN_POINT ( 'NONE',  ( 0.3158009865436318675, 0.5249999999999996891, 0.1874999999999998057 ) ) ;
#44 = ORIENTED_EDGE ( 'NONE', *, *, #999, .T. ) ;
#45 = DIRECTION ( 'NONE',  ( -1.000000000000000000, 0.000000000000000000, 0.000000000000000000 ) ) ;
#46 = ORIENTED_EDGE ( 'NONE', *, *, #976, .T. ) ;
#47 = LINE ( 'NONE', #966, #497 ) ;
#48 = AXIS2_PLACEMENT_3D ( 'NONE', #404, #904, #60 ) ;
#49 = CARTESIAN_POINT ( 'NONE',  ( -0.4500000000000000111, 0.5249999999999996891, 0.1874999999999998057 ) ) ;
#50 = CIRCLE ( 'NONE', #707, 0.1874999999999998612 ) ;
#51 = ORIENTED_EDGE ( 'NONE', *, *, #780, .T. ) ;
#52 = CARTESIAN_POINT ( 'NONE',  ( -0.5625000000000000000, 0.5249999999999996891, -6.505213034913027837E-17 ) ) ;
#53 = APPROVAL_DATE_TIME ( #952, #721 ) ;
#54 = DIRECTION ( 'NONE',  ( 0.000000000000000000, 0.000000000000000000, -1.000000000000000000 ) ) ;
#55 = DIRECTION ( 'NONE',  ( 0.000000000000000000, 0.000000000000000000, -1.000000000000000000 ) ) ;
#56 = VERTEX_POINT ( 'NONE', #220 ) ;
#57 = EDGE_CURVE ( 'NONE', #363, #660, #810, .T. ) ;
#58 = CARTESIAN_POINT ( 'NONE',  ( -0.4500000000000000111, 0.5249999999999996891, 0.09374999999999986122 ) ) ;
#59 = CARTESIAN_POINT ( 'NONE',  ( 0.5625000000000000000, -0.5249999999999996891, -0.09375000000000000000 ) ) ;
#60 = DIRECTION ( 'NONE',  ( 0.000000000000000000, 0.000000000000000000, -1.000000000000000000 ) ) ;
#61 = EDGE_LOOP ( 'NONE', ( #557, #603, #708, #14 ) ) ;
#62 = CARTESIAN_POINT ( 'NONE',  ( 0.5625000000000000000, -0.5249999999999996891, -6.505213034913027837E-17 ) ) ;
#63 = EDGE_CURVE ( 'NONE', #660, #838, #724, .T. ) ;
#64 = CARTESIAN_POINT ( 'NONE',  ( -0.1968750000000003830, 0.9000000000000000222, -6.505213034913027837E-17 ) ) ;
#65 = CARTESIAN_POINT ( 'NONE',  ( 0.5625000000000000000, 0.9000000000000000222, -0.1874999999999998612 ) ) ;
#66 = ORIENTED_EDGE ( 'NONE', *, *, #828, .T. ) ;
#67 = CARTESIAN_POINT ( 'NONE',  ( -0.5625000000000000000, -0.9000000000000000222, -0.4687500000000004996 ) ) ;
#68 = CARTESIAN_POINT ( 'NONE',  ( -0.1819147013684131731, -0.6909072090562243806, 0.09946908892383900247 ) ) ;
#69 = DIRECTION ( 'NONE',  ( 0.000000000000000000, 1.000000000000000000, 0.000000000000000000 ) ) ;
#70 = AXIS2_PLACEMENT_3D ( 'NONE', #218, #955, #55 ) ;
#71 = LINE ( 'NONE', #245, #705 ) ;
#72 = ORIENTED_EDGE ( 'NONE', *, *, #215, .F. ) ;
#73 = LINE ( 'NONE', #727, #680 ) ;
#74 = EDGE_CURVE ( 'NONE', #777, #421, #784, .T. ) ;
#75 = CARTESIAN_POINT ( 'NONE',  ( -0.5625000000000000000, 0.5249999999999996891, 0.09374999999999986122 ) ) ;
#76 = ORIENTED_EDGE ( 'NONE', *, *, #1055, .F. ) ;
#77 = DATE_AND_TIME ( #1070, #639 ) ;
#78 = CARTESIAN_POINT ( 'NONE',  ( 0.5625000000000000000, -0.5249999999999996891, -0.1874999999999999167 ) ) ;
#79 = CARTESIAN_POINT ( 'NONE',  ( -0.1968750000000003830, 0.7124999999999994671, -0.05123972105851035130 ) ) ;
#80 = VECTOR ( 'NONE', #824, 1000.000000000000000 ) ;
#81 = ORIENTED_EDGE ( 'NONE', *, *, #626, .F. ) ;
#82 = AXIS2_PLACEMENT_3D ( 'NONE', #399, #547, #231 ) ;
#83 = CARTESIAN_POINT ( 'NONE',  ( 0.5625000000000000000, -0.5249999999999996891, -6.505213034913027837E-17 ) ) ;
#84 = CIRCLE ( 'NONE', #418, 0.2812500000000001665 ) ;
#85 = AXIS2_PLACEMENT_3D ( 'NONE', #576, #1009, #265 ) ;
#86 = VERTEX_POINT ( 'NONE', #143 ) ;
#87 = EDGE_CURVE ( 'NONE', #180, #624, #597, .T. ) ;
#88 = DIRECTION ( 'NONE',  ( 0.000000000000000000, 1.000000000000000000, 0.000000000000000000 ) ) ;
#89 = EDGE_LOOP ( 'NONE', ( #880, #259, #293, #500 ) ) ;
#90 = PERSON_AND_ORGANIZATION ( #565, #806 ) ;
#91 = DIRECTION ( 'NONE',  ( -1.000000000000000000, 0.000000000000000000, 0.000000000000000000 ) ) ;
#92 = CARTESIAN_POINT ( 'NONE',  ( 0.5625000000000000000, 0.5249999999999996891, -6.505213034913027837E-17 ) ) ;
#93 = VERTEX_POINT ( 'NONE', #713 ) ;
#94 = CARTESIAN_POINT ( 'NONE',  ( 0.3158009865436318675, -0.5249999999999996891, 0.1874999999999998057 ) ) ;
#95 = AXIS2_PLACEMENT_3D ( 'NONE', #556, #977, #317 ) ;
#96 = AXIS2_PLACEMENT_3D ( 'NONE', #855, #759, #15 ) ;
#97 = APPROVAL_DATE_TIME ( #77, #881 ) ;
#98 = DIRECTION ( 'NONE',  ( 0.7071067811865474617, 0.000000000000000000, 0.7071067811865475727 ) ) ;
#99 = VERTEX_POINT ( 'NONE', #629 ) ;
#100 = CIRCLE ( 'NONE', #244, 0.2812500000000001665 ) ;
#101 = LINE ( 'NONE', #434, #636 ) ;
#102 = FACE_OUTER_BOUND ( 'NONE', #634, .T. ) ;
#103 = LOCAL_TIME ( 11, 46, 36.00000000000000000, #337 ) ;
#104 = CIRCLE ( 'NONE', #750, 0.09374999999999993061 ) ;
#105 = FACE_OUTER_BOUND ( 'NONE', #22, .T. ) ;
#106 = EDGE_CURVE ( 'NONE', #936, #285, #957, .T. ) ;
#107 = CARTESIAN_POINT ( 'NONE',  ( -0.1968750000000003553, 0.3374999999999998002, -6.505213034913027837E-17 ) ) ;
#108 = ORIENTED_EDGE ( 'NONE', *, *, #1042, .T. ) ;
#109 = CARTESIAN_POINT ( 'NONE',  ( -0.4500000000000000111, 0.5249999999999996891, -6.505213034913027837E-17 ) ) ;
#110 = VERTEX_POINT ( 'NONE', #380 ) ;
#111 = DIRECTION ( 'NONE',  ( 0.000000000000000000, -1.000000000000000000, 0.000000000000000000 ) ) ;
#112 = CARTESIAN_POINT ( 'NONE',  ( -0.1819147013684132008, 0.3590927909437751642, 0.09946908892383893308 ) ) ;
#113 = ORIENTED_EDGE ( 'NONE', *, *, #235, .F. ) ;
#114 = CARTESIAN_POINT ( 'NONE',  ( 0.5625000000000000000, -0.5249999999999996891, -6.505213034913027837E-17 ) ) ;
#115 = CARTESIAN_POINT ( 'NONE',  ( -0.1283009865436320618, 0.5249999999999996891, 0.1874999999999998057 ) ) ;
#116 = ORIENTED_EDGE ( 'NONE', *, *, #534, .T. ) ;
#117 = FACE_OUTER_BOUND ( 'NONE', #1067, .T. ) ;
#118 = CIRCLE ( 'NONE', #800, 0.2812500000000001665 ) ;
#119 = DIRECTION ( 'NONE',  ( -1.000000000000000000, 0.000000000000000000, 0.000000000000000000 ) ) ;
#120 = VERTEX_POINT ( 'NONE', #230 ) ;
#121 = FACE_OUTER_BOUND ( 'NONE', #353, .T. ) ;
#122 = EDGE_CURVE ( 'NONE', #725, #331, #282, .T. ) ;
#123 = AXIS2_PLACEMENT_3D ( 'NONE', #347, #836, #270 ) ;
#124 = ORIENTED_EDGE ( 'NONE', *, *, #657, .T. ) ;
#125 = CARTESIAN_POINT ( 'NONE',  ( -0.1474687220768669538, -0.6235836048760067252, -0.1664367902087373063 ) ) ;
#126 = CIRCLE ( 'NONE', #191, 0.2812500000000001665 ) ;
#127 = FACE_OUTER_BOUND ( 'NONE', #786, .T. ) ;
#128 = ORIENTED_EDGE ( 'NONE', *, *, #57, .F. ) ;
#129 = DIRECTION ( 'NONE',  ( 0.000000000000000000, 0.000000000000000000, -1.000000000000000000 ) ) ;
#130 = ORIENTED_EDGE ( 'NONE', *, *, #529, .F. ) ;
#131 = FACE_OUTER_BOUND ( 'NONE', #527, .T. ) ;
#132 = CYLINDRICAL_SURFACE ( 'NONE', #941, 0.1874999999999998612 ) ;
#133 = VERTEX_POINT ( 'NONE', #320 ) ;
#134 = CARTESIAN_POINT ( 'NONE',  ( -0.1968750000000003553, 0.7124999999999994671, -6.505213034913027837E-17 ) ) ;
#135 = APPLICATION_CONTEXT ( 'configuration controlled 3d designs of mechanical parts and assemblies' ) ;
#136 = EDGE_CURVE ( 'NONE', #1043, #877, #541, .T. ) ;
#137 = DIRECTION ( 'NONE',  ( 0.000000000000000000, 0.000000000000000000, 1.000000000000000000 ) ) ;
#138 = VECTOR ( 'NONE', #163, 1000.000000000000000 ) ;
#139 = EDGE_CURVE ( 'NONE', #216, #201, #619, .T. ) ;
#140 = LINE ( 'NONE', #891, #649 ) ;
#141 = AXIS2_PLACEMENT_3D ( 'NONE', #650, #907, #1064 ) ;
#142 = VERTEX_POINT ( 'NONE', #58 ) ;
#143 = CARTESIAN_POINT ( 'NONE',  ( 0.2812500000000000000, -0.9000000000000000222, -0.4687500000000004996 ) ) ;
#144 = FACE_OUTER_BOUND ( 'NONE', #25, .T. ) ;
#145 = AXIS2_PLACEMENT_3D ( 'NONE', #309, #1061, #816 ) ;
#146 = FACE_OUTER_BOUND ( 'NONE', #6, .T. ) ;
#147 = CC_DESIGN_DATE_AND_TIME_ASSIGNMENT ( #1015, #1076, ( #1075 ) ) ;
#148 = LINE ( 'NONE', #1041, #654 ) ;
#149 = LINE ( 'NONE', #59, #1062 ) ;
#150 = CARTESIAN_POINT ( 'NONE',  ( 0.4801237822087165985, -0.9000000000000000222, 0.3863737822087164875 ) ) ;
#151 = DIRECTION ( 'NONE',  ( 0.000000000000000000, 0.000000000000000000, -1.000000000000000000 ) ) ;
#152 = DIRECTION ( 'NONE',  ( -1.000000000000000000, 0.000000000000000000, 0.000000000000000000 ) ) ;
#153 = LINE ( 'NONE', #813, #138 ) ;
#154 = EDGE_LOOP ( 'NONE', ( #128, #350, #599, #942 ) ) ;
#155 = PLANE ( 'NONE',  #714 ) ;
#156 = CIRCLE ( 'NONE', #934, 0.1874999999999998612 ) ;
#157 = ADVANCED_FACE ( 'NONE', ( #314 ), #503, .F. ) ;
#158 = CARTESIAN_POINT ( 'NONE',  ( -0.4500000000000000111, -0.5249999999999996891, -6.505213034913027837E-17 ) ) ;
#159 = CARTESIAN_POINT ( 'NONE',  ( -0.1473973726205893009, 0.6234186453783159276, -0.1665324950574561536 ) ) ;
#160 = VERTEX_POINT ( 'NONE', #19 ) ;
#161 = AXIS2_PLACEMENT_3D ( 'NONE', #432, #1007, #905 ) ;
#162 = CARTESIAN_POINT ( 'NONE',  ( 0.3158009865436318675, 0.5249999999999996891, -0.1874999999999999167 ) ) ;
#163 = DIRECTION ( 'NONE',  ( 0.000000000000000000, 1.000000000000000000, 0.000000000000000000 ) ) ;
#164 = DESIGN_CONTEXT ( 'detailed design', #514, 'design' ) ;
#165 = ADVANCED_FACE ( 'NONE', ( #753, #427 ), #1004, .T. ) ;
#166 = CARTESIAN_POINT ( 'NONE',  ( -0.1968750000000003553, 0.7124999999999994671, -6.505213034913027837E-17 ) ) ;
#167 = EDGE_CURVE ( 'NONE', #142, #421, #927, .T. ) ;
#168 = EDGE_LOOP ( 'NONE', ( #76, #38, #448, #574, #996 ) ) ;
#169 = ORIENTED_EDGE ( 'NONE', *, *, #657, .F. ) ;
#170 = AXIS2_PLACEMENT_3D ( 'NONE', #857, #111, #776 ) ;
#171 = CARTESIAN_POINT ( 'NONE',  ( 0.4801237822087164320, 0.9000000000000000222, 0.3863737822087163210 ) ) ;
#172 = CIRCLE ( 'NONE', #890, 0.1874999999999998612 ) ;
#173 = AXIS2_PLACEMENT_3D ( 'NONE', #62, #805, #151 ) ;
#174 = ORIENTED_EDGE ( 'NONE', *, *, #923, .F. ) ;
#175 = LINE ( 'NONE', #8, #744 ) ;
#176 = ORIENTED_EDGE ( 'NONE', *, *, #594, .T. ) ;
#177 = CARTESIAN_POINT ( 'NONE',  ( -0.3750000000000002776, 0.9000000000000000222, -0.4687500000000004996 ) ) ;
#178 = COORDINATED_UNIVERSAL_TIME_OFFSET ( 8, 0, .AHEAD. ) ;
#179 = DIRECTION ( 'NONE',  ( 0.000000000000000000, -1.000000000000000000, 0.000000000000000000 ) ) ;
#180 = VERTEX_POINT ( 'NONE', #590 ) ;
#181 = DIRECTION ( 'NONE',  ( 1.000000000000000000, 0.000000000000000000, 0.000000000000000000 ) ) ;
#182 = CARTESIAN_POINT ( 'NONE',  ( 0.3158009865436320340, -0.4736471076868402630, 0.1874999999999998612 ) ) ;
#183 = VECTOR ( 'NONE', #251, 1000.000000000000000 ) ;
#184 = EDGE_CURVE ( 'NONE', #216, #86, #100, .T. ) ;
#185 = CIRCLE ( 'NONE', #1018, 0.09374999999999993061 ) ;
#186 = APPROVAL_STATUS ( 'not_yet_approved' ) ;
#187 = CARTESIAN_POINT ( 'NONE',  ( -0.1474687220768668983, 0.6235836048760067252, 0.1664367902087371676 ) ) ;
#188 = DIRECTION ( 'NONE',  ( 0.7071067811865474617, 0.000000000000000000, -0.7071067811865475727 ) ) ;
#189 = ORIENTED_EDGE ( 'NONE', *, *, #204, .F. ) ;
#190 = DIRECTION ( 'NONE',  ( -1.000000000000000000, 0.000000000000000000, 0.000000000000000000 ) ) ;
#191 = AXIS2_PLACEMENT_3D ( 'NONE', #236, #719, #473 ) ;
#192 = DATE_AND_TIME ( #653, #103 ) ;
#193 = EDGE_LOOP ( 'NONE', ( #794, #124, #830, #814, #504 ) ) ;
#194 = CARTESIAN_POINT ( 'NONE',  ( 0.3843750000000002998, -0.3374999999999998002, -6.505213034913027837E-17 ) ) ;
#195 = UNCERTAINTY_MEASURE_WITH_UNIT (LENGTH_MEASURE( 1.000000000000000082E-05 ), #1048, 'distance_accuracy_value', 'NONE');
#196 = CARTESIAN_POINT ( 'NONE',  ( -0.1283009865436320618, 0.4738668561885068242, 0.1874999999999998057 ) ) ;
#197 = VERTEX_POINT ( 'NONE', #515 ) ;
#198 = FACE_OUTER_BOUND ( 'NONE', #266, .T. ) ;
#199 = CARTESIAN_POINT ( 'NONE',  ( -0.1968750000000003830, -0.3374999999999998002, -6.505213034913027837E-17 ) ) ;
#200 = SECURITY_CLASSIFICATION_LEVEL ( 'unclassified' ) ;
#201 = VERTEX_POINT ( 'NONE', #853 ) ;
#202 = CARTESIAN_POINT ( 'NONE',  ( 0.3843750000000002442, 0.3374999999999998557, 0.05129339019814160155 ) ) ;
#203 = DIRECTION ( 'NONE',  ( -1.000000000000000000, 0.000000000000000000, 0.000000000000000000 ) ) ;
#204 = EDGE_CURVE ( 'NONE', #928, #936, #833, .T. ) ;
#205 = ORIENTED_EDGE ( 'NONE', *, *, #529, .T. ) ;
#206 = CARTESIAN_POINT ( 'NONE',  ( 0.3694819752863245932, -0.6910131846126994493, 0.09929529102674289343 ) ) ;
#207 = VERTEX_POINT ( 'NONE', #208 ) ;
#208 = CARTESIAN_POINT ( 'NONE',  ( -0.5625000000000000000, -0.9000000000000000222, -0.4687500000000004996 ) ) ;
#209 = ORIENTED_EDGE ( 'NONE', *, *, #563, .F. ) ;
#210 = ORIENTED_EDGE ( 'NONE', *, *, #1042, .F. ) ;
#211 = CARTESIAN_POINT ( 'NONE',  ( 0.5625000000000000000, -0.9000000000000000222, -0.4687500000000004996 ) ) ;
#212 = B_SPLINE_CURVE_WITH_KNOTS ( 'NONE', 3,
 ( #1006, #269, #273, #517, #182, #94 ),
 .UNSPECIFIED., .F., .F.,
 ( 4, 2, 4 ),
 ( 0.000000000000000000, 0.0001512829048301277406, 0.0003025658096602554812 ),
 .UNSPECIFIED. ) ;
#213 = EDGE_LOOP ( 'NONE', ( #451, #1000, #290, #272, #332, #1032, #646, #997, #577, #340, #533, #423, #754, #5, #595, #591 ) ) ;
#214 = CARTESIAN_POINT ( 'NONE',  ( 0.3843750000000002998, 0.7124999999999995781, -6.505213034913027837E-17 ) ) ;
#215 = EDGE_CURVE ( 'NONE', #797, #336, #866, .T. ) ;
#216 = VERTEX_POINT ( 'NONE', #391 ) ;
#217 = CARTESIAN_POINT ( 'NONE',  ( -0.1819147013684131453, -0.3590927909437752197, -0.09946908892383909961 ) ) ;
#218 = CARTESIAN_POINT ( 'NONE',  ( 0.5625000000000000000, -0.5249999999999996891, -6.505213034913027837E-17 ) ) ;
#219 = ORIENTED_EDGE ( 'NONE', *, *, #184, .T. ) ;
#220 = CARTESIAN_POINT ( 'NONE',  ( 0.3158009865436318675, 0.5249999999999996891, -0.1874999999999999167 ) ) ;
#221 = EDGE_CURVE ( 'NONE', #671, #956, #484, .T. ) ;
#222 = DIRECTION ( 'NONE',  ( 0.000000000000000000, 0.000000000000000000, -1.000000000000000000 ) ) ;
#223 = DIRECTION ( 'NONE',  ( -1.000000000000000000, 0.000000000000000000, 0.000000000000000000 ) ) ;
#224 = AXIS2_PLACEMENT_3D ( 'NONE', #690, #951, #435 ) ;
#225 = ORIENTED_EDGE ( 'NONE', *, *, #771, .T. ) ;
#226 = DIRECTION ( 'NONE',  ( 1.000000000000000000, 0.000000000000000000, 0.000000000000000000 ) ) ;
#227 = AXIS2_PLACEMENT_3D ( 'NONE', #933, #88, #666 ) ;
#228 = DIRECTION ( 'NONE',  ( 1.000000000000000000, 0.000000000000000000, 0.000000000000000000 ) ) ;
#229 = CARTESIAN_POINT ( 'NONE',  ( -0.1968750000000004108, -0.3374999999999998557, 0.05129339019814174727 ) ) ;
#230 = CARTESIAN_POINT ( 'NONE',  ( -0.5625000000000000000, 0.9000000000000000222, -0.4687500000000004996 ) ) ;
#231 = DIRECTION ( 'NONE',  ( -1.000000000000000000, 0.000000000000000000, 0.000000000000000000 ) ) ;
#232 = ADVANCED_FACE ( 'NONE', ( #616 ), #537, .F. ) ;
#233 = DIRECTION ( 'NONE',  ( 0.000000000000000000, 1.000000000000000000, 0.000000000000000000 ) ) ;
#234 = ORIENTED_EDGE ( 'NONE', *, *, #221, .T. ) ;
#235 = EDGE_CURVE ( 'NONE', #624, #180, #617, .T. ) ;
#236 = CARTESIAN_POINT ( 'NONE',  ( 0.2812500000000000000, 0.9000000000000000222, -0.1874999999999998612 ) ) ;
#237 = B_SPLINE_CURVE_WITH_KNOTS ( 'NONE', 3,
 ( #412, #403, #1068, #980, #10, #162 ),
 .UNSPECIFIED., .F., .F.,
 ( 4, 2, 4 ),
 ( 0.0006047997903331184429, 0.0007557586644127822079, 0.0009067175384924458644 ),
 .UNSPECIFIED. ) ;
#238 = DIRECTION ( 'NONE',  ( 0.7071067811865474617, 0.000000000000000000, 0.7071067811865475727 ) ) ;
#239 = LINE ( 'NONE', #723, #80 ) ;
#240 = CIRCLE ( 'NONE', #798, 0.09374999999999993061 ) ;
#241 = ORIENTED_EDGE ( 'NONE', *, *, #658, .F. ) ;
#242 = EDGE_CURVE ( 'NONE', #409, #287, #450, .T. ) ;
#243 = CYLINDRICAL_SURFACE ( 'NONE', #318, 0.09374999999999993061 ) ;
#244 = AXIS2_PLACEMENT_3D ( 'NONE', #24, #678, #188 ) ;
#245 = CARTESIAN_POINT ( 'NONE',  ( 0.5625000000000000000, -0.9000000000000000222, 0.1874999999999998612 ) ) ;
#246 = PERSON_AND_ORGANIZATION_ROLE ( 'design_owner' ) ;
#247 = ORIENTED_EDGE ( 'NONE', *, *, #460, .T. ) ;
#248 = AXIS2_PLACEMENT_3D ( 'NONE', #114, #1059, #301 ) ;
#249 = ORIENTED_EDGE ( 'NONE', *, *, #415, .F. ) ;
#250 = EDGE_CURVE ( 'NONE', #160, #743, #803, .T. ) ;
#251 = DIRECTION ( 'NONE',  ( 0.000000000000000000, -1.000000000000000000, 0.000000000000000000 ) ) ;
#252 = ORIENTED_EDGE ( 'NONE', *, *, #1055, .T. ) ;
#253 = CARTESIAN_POINT ( 'NONE',  ( -0.1968750000000003830, 0.9000000000000000222, -6.505213034913027837E-17 ) ) ;
#254 = ORIENTED_EDGE ( 'NONE', *, *, #910, .T. ) ;
#255 = ADVANCED_FACE ( 'NONE', ( #688 ), #132, .F. ) ;
#256 = ORIENTED_EDGE ( 'NONE', *, *, #184, .F. ) ;
#257 = CARTESIAN_POINT ( 'NONE',  ( 0.3843750000000002998, 0.7124999999999995781, -6.505213034913027837E-17 ) ) ;
#258 = VECTOR ( 'NONE', #1036, 1000.000000000000000 ) ;
#259 = ORIENTED_EDGE ( 'NONE', *, *, #438, .F. ) ;
#260 = LINE ( 'NONE', #177, #296 ) ;
#261 = LOCAL_TIME ( 11, 46, 36.00000000000000000, #178 ) ;
#262 = PERSON_AND_ORGANIZATION ( #565, #806 ) ;
#263 = CARTESIAN_POINT ( 'NONE',  ( 0.3349687220768667872, -0.4264163951239925421, -0.1664367902087373063 ) ) ;
#264 = ORIENTED_EDGE ( 'NONE', *, *, #938, .F. ) ;
#265 = DIRECTION ( 'NONE',  ( 1.000000000000000000, 0.000000000000000000, 0.000000000000000000 ) ) ;
#266 = EDGE_LOOP ( 'NONE', ( #915, #254, #692, #1030, #676 ) ) ;
#267 = ADVANCED_FACE ( 'NONE', ( #127 ), #307, .T. ) ;
#268 = PLANE ( 'NONE',  #30 ) ;
#269 = CARTESIAN_POINT ( 'NONE',  ( 0.3843750000000001887, -0.3374999999999998002, 0.05123972105851016395 ) ) ;
#270 = DIRECTION ( 'NONE',  ( 0.7071067811865474617, 0.000000000000000000, -0.7071067811865475727 ) ) ;
#271 = DIRECTION ( 'NONE',  ( -1.000000000000000000, 0.000000000000000000, 0.000000000000000000 ) ) ;
#272 = ORIENTED_EDGE ( 'NONE', *, *, #613, .T. ) ;
#273 = CARTESIAN_POINT ( 'NONE',  ( 0.3694147013684131453, -0.3590927909437751087, 0.09946908892383887757 ) ) ;
#274 = CIRCLE ( 'NONE', #886, 0.2906250000000002998 ) ;
#275 = AXIS2_PLACEMENT_3D ( 'NONE', #441, #773, #359 ) ;
#276 = MECHANICAL_CONTEXT ( 'NONE', #135, 'mechanical' ) ;
#277 = ORIENTED_EDGE ( 'NONE', *, *, #284, .T. ) ;
#278 = CARTESIAN_POINT ( 'NONE',  ( 0.5625000000000000000, 0.5249999999999996891, -6.505213034913027837E-17 ) ) ;
#279 = ORIENTED_EDGE ( 'NONE', *, *, #106, .F. ) ;
#280 = DIRECTION ( 'NONE',  ( 0.000000000000000000, -1.000000000000000000, 0.000000000000000000 ) ) ;
#281 = CARTESIAN_POINT ( 'NONE',  ( -0.1968750000000003553, 0.3374999999999998002, -6.505213034913027837E-17 ) ) ;
#282 = CIRCLE ( 'NONE', #145, 0.2906250000000002998 ) ;
#283 = CC_DESIGN_APPROVAL ( #495, ( #852 ) ) ;
#284 = EDGE_CURVE ( 'NONE', #142, #867, #104, .T. ) ;
#285 = VERTEX_POINT ( 'NONE', #49 ) ;
#286 = CARTESIAN_POINT ( 'NONE',  ( -0.5625000000000000000, -0.5249999999999996891, -0.09375000000000000000 ) ) ;
#287 = VERTEX_POINT ( 'NONE', #623 ) ;
#288 = CARTESIAN_POINT ( 'NONE',  ( 0.5625000000000000000, -0.9000000000000000222, -0.1874999999999998612 ) ) ;
#289 = CARTESIAN_POINT ( 'NONE',  ( 0.3158009865436318675, 0.5249999999999996891, 0.1874999999999998057 ) ) ;
#290 = ORIENTED_EDGE ( 'NONE', *, *, #303, .T. ) ;
#291 = CARTESIAN_POINT ( 'NONE',  ( 0.5625000000000000000, -0.9000000000000000222, -0.4687500000000004996 ) ) ;
#292 = CARTESIAN_POINT ( 'NONE',  ( 0.3694147013684130898, 0.6909072090562242696, 0.09946908892383901635 ) ) ;
#293 = ORIENTED_EDGE ( 'NONE', *, *, #571, .T. ) ;
#294 = CARTESIAN_POINT ( 'NONE',  ( -0.1968750000000003830, 0.9000000000000000222, -6.505213034913027837E-17 ) ) ;
#295 = PERSON_AND_ORGANIZATION ( #565, #806 ) ;
#296 = VECTOR ( 'NONE', #505, 1000.000000000000000 ) ;
#297 = ORIENTED_EDGE ( 'NONE', *, *, #819, .T. ) ;
#298 = DIRECTION ( 'NONE',  ( 0.000000000000000000, 1.000000000000000000, 0.000000000000000000 ) ) ;
#299 = PLANE ( 'NONE',  #844 ) ;
#300 = EDGE_LOOP ( 'NONE', ( #618, #405, #1046, #689, #704, #487, #789, #256 ) ) ;
#301 = DIRECTION ( 'NONE',  ( 0.000000000000000000, 0.000000000000000000, -1.000000000000000000 ) ) ;
#302 = CARTESIAN_POINT ( 'NONE',  ( -0.1283009865436320618, -0.5249999999999996891, 0.1874999999999998057 ) ) ;
#303 = EDGE_CURVE ( 'NONE', #606, #994, #858, .T. ) ;
#304 = ORIENTED_EDGE ( 'NONE', *, *, #122, .T. ) ;
#305 = CARTESIAN_POINT ( 'NONE',  ( -0.1283009865436320618, -0.5249999999999996891, -0.1874999999999999167 ) ) ;
#306 = CC_DESIGN_SECURITY_CLASSIFICATION ( #601, ( #852 ) ) ;
#307 = CYLINDRICAL_SURFACE ( 'NONE', #760, 0.2812500000000001665 ) ;
#308 = EDGE_LOOP ( 'NONE', ( #856, #482 ) ) ;
#309 = CARTESIAN_POINT ( 'NONE',  ( 0.09374999999999993061, -0.9000000000000000222, -6.505213034913027837E-17 ) ) ;
#310 = ADVANCED_FACE ( 'NONE', ( #378 ), #972, .F. ) ;
#311 = DIRECTION ( 'NONE',  ( 0.000000000000000000, -1.000000000000000000, 0.000000000000000000 ) ) ;
#312 = FACE_BOUND ( 'NONE', #308, .T. ) ;
#313 = FACE_BOUND ( 'NONE', #1054, .T. ) ;
#314 = FACE_OUTER_BOUND ( 'NONE', #61, .T. ) ;
#315 = ORIENTED_EDGE ( 'NONE', *, *, #425, .F. ) ;
#316 = DIRECTION ( 'NONE',  ( 1.000000000000000000, 0.000000000000000000, 0.000000000000000000 ) ) ;
#317 = DIRECTION ( 'NONE',  ( 0.000000000000000000, 1.000000000000000000, 0.000000000000000000 ) ) ;
#318 = AXIS2_PLACEMENT_3D ( 'NONE', #812, #665, #222 ) ;
#319 = ORIENTED_EDGE ( 'NONE', *, *, #969, .F. ) ;
#320 = CARTESIAN_POINT ( 'NONE',  ( 0.3158009865436318675, -0.5249999999999996891, 0.1874999999999998057 ) ) ;
#321 = EDGE_CURVE ( 'NONE', #946, #483, #140, .T. ) ;
#322 = VECTOR ( 'NONE', #878, 1000.000000000000000 ) ;
#323 = ADVANCED_FACE ( 'NONE', ( #312, #146 ), #299, .T. ) ;
#324 = LINE ( 'NONE', #78, #362 ) ;
#325 = AXIS2_PLACEMENT_3D ( 'NONE', #52, #226, #459 ) ;
#326 = ADVANCED_FACE ( 'NONE', ( #1026 ), #948, .F. ) ;
#327 = APPROVAL_PERSON_ORGANIZATION ( #12, #881, #488 ) ;
#328 = CARTESIAN_POINT ( 'NONE',  ( -0.1819819752863247597, -0.3589868153872997625, 0.09929529102674285179 ) ) ;
#329 = CARTESIAN_POINT ( 'NONE',  ( -0.5625000000000000000, 0.5249999999999996891, -6.505213034913027837E-17 ) ) ;
#330 = CARTESIAN_POINT ( 'NONE',  ( 0.2812500000000000000, 0.9000000000000000222, 0.4687499999999996669 ) ) ;
#331 = VERTEX_POINT ( 'NONE', #395 ) ;
#332 = ORIENTED_EDGE ( 'NONE', *, *, #242, .T. ) ;
#333 = CARTESIAN_POINT ( 'NONE',  ( -0.4500000000000000111, 0.5249999999999996891, -0.09375000000000000000 ) ) ;
#334 = PLANE ( 'NONE',  #95 ) ;
#335 = AXIS2_PLACEMENT_3D ( 'NONE', #746, #1079, #339 ) ;
#336 = VERTEX_POINT ( 'NONE', #65 ) ;
#337 = COORDINATED_UNIVERSAL_TIME_OFFSET ( 8, 0, .AHEAD. ) ;
#338 = CIRCLE ( 'NONE', #96, 0.1874999999999998612 ) ;
#339 = DIRECTION ( 'NONE',  ( 0.000000000000000000, 1.000000000000000000, 0.000000000000000000 ) ) ;
#340 = ORIENTED_EDGE ( 'NONE', *, *, #348, .F. ) ;
#341 = CARTESIAN_POINT ( 'NONE',  ( 0.3158009865436318675, 0.5249999999999996891, 0.1874999999999998057 ) ) ;
#342 = ORIENTED_EDGE ( 'NONE', *, *, #963, .F. ) ;
#343 = ORIENTED_EDGE ( 'NONE', *, *, #438, .T. ) ;
#344 = CARTESIAN_POINT ( 'NONE',  ( 0.3843750000000002998, -0.3374999999999998002, -0.05107389631700423593 ) ) ;
#345 = ORIENTED_EDGE ( 'NONE', *, *, #479, .F. ) ;
#346 = CARTESIAN_POINT ( 'NONE',  ( -0.5625000000000000000, 0.5249999999999996891, -0.09375000000000000000 ) ) ;
#347 = CARTESIAN_POINT ( 'NONE',  ( 0.2812500000000000000, -0.9000000000000000222, -0.1874999999999998612 ) ) ;
#348 = EDGE_CURVE ( 'NONE', #1043, #725, #239, .T. ) ;
#349 = VECTOR ( 'NONE', #223, 1000.000000000000000 ) ;
#350 = ORIENTED_EDGE ( 'NONE', *, *, #630, .F. ) ;
#351 = CARTESIAN_POINT ( 'NONE',  ( 0.3843750000000002442, 0.9000000000000000222, -1.006434279493502646E-16 ) ) ;
#352 = DIRECTION ( 'NONE',  ( 1.000000000000000000, 0.000000000000000000, 0.000000000000000000 ) ) ;
#353 = EDGE_LOOP ( 'NONE', ( #209, #736, #711, #35, #614 ) ) ;
#354 = CARTESIAN_POINT ( 'NONE',  ( 0.3158009865436318675, -0.5249999999999996891, 0.1874999999999998057 ) ) ;
#355 = VERTEX_POINT ( 'NONE', #1074 ) ;
#356 = DIRECTION ( 'NONE',  ( 0.000000000000000000, 0.000000000000000000, -1.000000000000000000 ) ) ;
#357 = ORIENTED_EDGE ( 'NONE', *, *, #167, .F. ) ;
#358 = CARTESIAN_POINT ( 'NONE',  ( 0.4801237822087164320, -0.9000000000000000222, 0.3863737822087163210 ) ) ;
#359 = DIRECTION ( 'NONE',  ( 0.7071067811865474617, 0.000000000000000000, 0.7071067811865475727 ) ) ;
#360 = EDGE_CURVE ( 'NONE', #877, #921, #570, .T. ) ;
#361 = DATE_TIME_ROLE ( 'classification_date' ) ;
#362 = VECTOR ( 'NONE', #407, 1000.000000000000000 ) ;
#363 = VERTEX_POINT ( 'NONE', #330 ) ;
#364 = CARTESIAN_POINT ( 'NONE',  ( -0.1968750000000003830, -0.7124999999999995781, -0.05129339019814179584 ) ) ;
#365 = DIRECTION ( 'NONE',  ( 0.7071067811865474617, 0.000000000000000000, -0.7071067811865475727 ) ) ;
#366 = ORIENTED_EDGE ( 'NONE', *, *, #643, .T. ) ;
#367 = CARTESIAN_POINT ( 'NONE',  ( 0.5625000000000000000, -0.5249999999999996891, -6.505213034913027837E-17 ) ) ;
#368 = VECTOR ( 'NONE', #720, 1000.000000000000000 ) ;
#369 = ORIENTED_EDGE ( 'NONE', *, *, #472, .T. ) ;
#370 = CARTESIAN_POINT ( 'NONE',  ( -0.1968750000000003275, -0.3374999999999998002, -0.05123972105851029579 ) ) ;
#371 = B_SPLINE_CURVE_WITH_KNOTS ( 'NONE', 3,
 ( #166, #79, #560, #159, #989, #652 ),
 .UNSPECIFIED., .F., .F.,
 ( 4, 2, 4 ),
 ( 0.0003023361049921031735, 0.0004533459878041877478, 0.0006043558706162723221 ),
 .UNSPECIFIED. ) ;
#372 = DIRECTION ( 'NONE',  ( 0.000000000000000000, 0.000000000000000000, -1.000000000000000000 ) ) ;
#373 = ORIENTED_EDGE ( 'NONE', *, *, #215, .T. ) ;
#374 = PRODUCT_DEFINITION_SHAPE ( 'NONE', 'NONE',  #1075 ) ;
#375 = CARTESIAN_POINT ( 'NONE',  ( 0.3349687220768667872, -0.6235836048760066141, 0.1664367902087372786 ) ) ;
#376 = EDGE_LOOP ( 'NONE', ( #621, #1035 ) ) ;
#377 = DIRECTION ( 'NONE',  ( -1.000000000000000000, 0.000000000000000000, 0.000000000000000000 ) ) ;
#378 = FACE_OUTER_BOUND ( 'NONE', #387, .T. ) ;
#379 = ORIENTED_EDGE ( 'NONE', *, *, #567, .T. ) ;
#380 = CARTESIAN_POINT ( 'NONE',  ( 0.5625000000000000000, -0.9000000000000000222, 0.1874999999999998612 ) ) ;
#381 = AXIS2_PLACEMENT_3D ( 'NONE', #1037, #1045, #885 ) ;
#382 = AXIS2_PLACEMENT_3D ( 'NONE', #893, #558, #490 ) ;
#383 = ORIENTED_EDGE ( 'NONE', *, *, #976, .F. ) ;
#384 = LINE ( 'NONE', #709, #322 ) ;
#385 = CARTESIAN_POINT ( 'NONE',  ( -0.4500000000000000111, 0.5249999999999996891, -6.505213034913027837E-17 ) ) ;
#386 = ADVANCED_FACE ( 'NONE', ( #911 ), #984, .F. ) ;
#387 = EDGE_LOOP ( 'NONE', ( #718, #535, #521, #781, #174 ) ) ;
#388 = CARTESIAN_POINT ( 'NONE',  ( 0.3158009865436318675, 0.5762965727366839985, -0.1874999999999999722 ) ) ;
#389 = CYLINDRICAL_SURFACE ( 'NONE', #170, 0.2906250000000002998 ) ;
#390 = APPROVAL_PERSON_ORGANIZATION ( #262, #495, #669 ) ;
#391 = CARTESIAN_POINT ( 'NONE',  ( 0.4801237822087164320, -0.9000000000000000222, -0.3863737822087163210 ) ) ;
#392 = CARTESIAN_POINT ( 'NONE',  ( 0.2812500000000000000, -0.9000000000000000222, 0.4687499999999996669 ) ) ;
#393 = EDGE_CURVE ( 'NONE', #20, #160, #371, .T. ) ;
#394 = DIRECTION ( 'NONE',  ( 0.7071067811865474617, 0.000000000000000000, -0.7071067811865475727 ) ) ;
#395 = CARTESIAN_POINT ( 'NONE',  ( 0.3843750000000002442, -0.9000000000000000222, -1.006434279493502646E-16 ) ) ;
#396 = ORIENTED_EDGE ( 'NONE', *, *, #87, .F. ) ;
#397 = CARTESIAN_POINT ( 'NONE',  ( 0.3843750000000002998, 0.7124999999999995781, -0.05107389631700420124 ) ) ;
#398 = EDGE_CURVE ( 'NONE', #1023, #584, #908, .T. ) ;
#399 = CARTESIAN_POINT ( 'NONE',  ( 0.09374999999999993061, 0.9000000000000000222, -6.505213034913027837E-17 ) ) ;
#400 = CARTESIAN_POINT ( 'NONE',  ( -0.1283009865436320618, -0.5249999999999996891, 0.1874999999999998057 ) ) ;
#401 = DIRECTION ( 'NONE',  ( -1.000000000000000000, 0.000000000000000000, 0.000000000000000000 ) ) ;
#402 = AXIS2_PLACEMENT_3D ( 'NONE', #1024, #298, #36 ) ;
#403 = CARTESIAN_POINT ( 'NONE',  ( 0.3843750000000002998, 0.3374999999999998557, -0.05123972105851030273 ) ) ;
#404 = CARTESIAN_POINT ( 'NONE',  ( 0.5625000000000000000, 0.5249999999999996891, -6.505213034913027837E-17 ) ) ;
#405 = ORIENTED_EDGE ( 'NONE', *, *, #647, .T. ) ;
#406 = APPROVAL_STATUS ( 'not_yet_approved' ) ;
#407 = DIRECTION ( 'NONE',  ( -1.000000000000000000, 0.000000000000000000, 0.000000000000000000 ) ) ;
#408 = CARTESIAN_POINT ( 'NONE',  ( 0.3843750000000002442, 0.3374999999999998002, -1.006434279493502646E-16 ) ) ;
#409 = VERTEX_POINT ( 'NONE', #408 ) ;
#410 = PERSON_AND_ORGANIZATION_ROLE ( 'creator' ) ;
#411 = EDGE_LOOP ( 'NONE', ( #304, #493 ) ) ;
#412 = CARTESIAN_POINT ( 'NONE',  ( 0.3843750000000002442, 0.3374999999999998002, -1.006434279493502646E-16 ) ) ;
#413 = PLANE ( 'NONE',  #335 ) ;
#414 = AXIS2_PLACEMENT_3D ( 'NONE', #507, #13, #352 ) ;
#415 = EDGE_CURVE ( 'NONE', #671, #477, #993, .T. ) ;
#416 = CIRCLE ( 'NONE', #726, 0.09374999999999993061 ) ;
#417 = ORIENTED_EDGE ( 'NONE', *, *, #139, .T. ) ;
#418 = AXIS2_PLACEMENT_3D ( 'NONE', #433, #749, #98 ) ;
#419 = CARTESIAN_POINT ( 'NONE',  ( 0.3694147013684130898, -0.6909072090562242696, -0.09946908892383912737 ) ) ;
#420 = VECTOR ( 'NONE', #962, 1000.000000000000000 ) ;
#421 = VERTEX_POINT ( 'NONE', #75 ) ;
#422 = DIRECTION ( 'NONE',  ( 0.7071067811865474617, 0.000000000000000000, 0.7071067811865475727 ) ) ;
#423 = ORIENTED_EDGE ( 'NONE', *, *, #360, .T. ) ;
#424 = EDGE_LOOP ( 'NONE', ( #234, #241, #454, #249 ) ) ;
#425 = EDGE_CURVE ( 'NONE', #207, #86, #728, .T. ) ;
#426 = CARTESIAN_POINT ( 'NONE',  ( 0.3158009865436319785, -0.5763528923131594484, -0.1874999999999999722 ) ) ;
#427 = FACE_OUTER_BOUND ( 'NONE', #870, .T. ) ;
#428 = ORIENTED_EDGE ( 'NONE', *, *, #819, .F. ) ;
#429 = AXIS2_PLACEMENT_3D ( 'NONE', #674, #937, #523 ) ;
#430 = CYLINDRICAL_SURFACE ( 'NONE', #429, 0.1874999999999998612 ) ;
#431 = PRODUCT_RELATED_PRODUCT_CATEGORY ( 'detail', '', ( #694 ) ) ;
#432 = CARTESIAN_POINT ( 'NONE',  ( 0.000000000000000000, 0.000000000000000000, 0.000000000000000000 ) ) ;
#433 = CARTESIAN_POINT ( 'NONE',  ( 0.2812500000000000000, -0.9000000000000000222, 0.1874999999999998612 ) ) ;
#434 = CARTESIAN_POINT ( 'NONE',  ( -0.5625000000000000000, 0.9000000000000000222, -0.2343750000000001388 ) ) ;
#435 = DIRECTION ( 'NONE',  ( 0.000000000000000000, 0.000000000000000000, -1.000000000000000000 ) ) ;
#436 = CYLINDRICAL_SURFACE ( 'NONE', #1065, 0.2812500000000001665 ) ;
#437 = ADVANCED_FACE ( 'NONE', ( #739 ), #334, .T. ) ;
#438 = EDGE_CURVE ( 'NONE', #956, #93, #71, .T. ) ;
#439 = VERTEX_POINT ( 'NONE', #476 ) ;
#440 = LINE ( 'NONE', #288, #888 ) ;
#441 = CARTESIAN_POINT ( 'NONE',  ( 0.2812500000000000000, -0.9000000000000000222, 0.1874999999999998612 ) ) ;
#442 = PERSON_AND_ORGANIZATION ( #565, #806 ) ;
#443 = ORIENTED_EDGE ( 'NONE', *, *, #949, .F. ) ;
#444 = CARTESIAN_POINT ( 'NONE',  ( -0.1968750000000003830, -0.9000000000000000222, -6.505213034913027837E-17 ) ) ;
#445 = ORIENTED_EDGE ( 'NONE', *, *, #587, .F. ) ;
#446 = CARTESIAN_POINT ( 'NONE',  ( -0.1283009865436322561, 0.4737034272633151022, -0.1874999999999999722 ) ) ;
#447 = AXIS2_PLACEMENT_3D ( 'NONE', #818, #475, #394 ) ;
#448 = ORIENTED_EDGE ( 'NONE', *, *, #691, .T. ) ;
#449 = CARTESIAN_POINT ( 'NONE',  ( 0.2812500000000000000, -0.9000000000000000222, 0.4687499999999996669 ) ) ;
#450 = LINE ( 'NONE', #695, #822 ) ;
#451 = ORIENTED_EDGE ( 'NONE', *, *, #534, .F. ) ;
#452 = CARTESIAN_POINT ( 'NONE',  ( -0.1968750000000003553, 0.3374999999999998002, -6.505213034913027837E-17 ) ) ;
#453 = CLOSED_SHELL ( 'NONE', ( #979, #931, #1047, #40, #157, #920, #585, #548, #740, #323, #790, #1038, #501, #437, #734, #540, #737, #1051, #165, #386, #663, #267, #876, #561, #232, #310, #326, #255 ) ) ;
#454 = ORIENTED_EDGE ( 'NONE', *, *, #647, .F. ) ;
#455 = FACE_OUTER_BOUND ( 'NONE', #154, .T. ) ;
#456 = CARTESIAN_POINT ( 'NONE',  ( 0.3158009865436320895, 0.5763528923131594484, 0.1874999999999998612 ) ) ;
#457 = ORIENTED_EDGE ( 'NONE', *, *, #763, .T. ) ;
#458 = DIRECTION ( 'NONE',  ( 0.000000000000000000, 1.000000000000000000, 0.000000000000000000 ) ) ;
#459 = DIRECTION ( 'NONE',  ( 0.000000000000000000, 0.000000000000000000, -1.000000000000000000 ) ) ;
#460 = EDGE_CURVE ( 'NONE', #684, #483, #986, .T. ) ;
#461 = VERTEX_POINT ( 'NONE', #1066 ) ;
#462 = CARTESIAN_POINT ( 'NONE',  ( -0.1819819752863247875, -0.6910131846126994493, -0.09929529102674289343 ) ) ;
#463 = CARTESIAN_POINT ( 'NONE',  ( 0.5625000000000000000, 0.5249999999999996891, -6.505213034913027837E-17 ) ) ;
#464 = ORIENTED_EDGE ( 'NONE', *, *, #788, .T. ) ;
#465 = CIRCLE ( 'NONE', #447, 0.2812500000000001665 ) ;
#466 = DIRECTION ( 'NONE',  ( 1.000000000000000000, 0.000000000000000000, 0.000000000000000000 ) ) ;
#467 = DIRECTION ( 'NONE',  ( -1.000000000000000000, 0.000000000000000000, 0.000000000000000000 ) ) ;
#468 = CARTESIAN_POINT ( 'NONE',  ( 0.4801237822087165985, -0.9000000000000000222, -0.3863737822087164875 ) ) ;
#469 = VECTOR ( 'NONE', #478, 1000.000000000000000 ) ;
#470 = CARTESIAN_POINT ( 'NONE',  ( -0.5625000000000000000, -0.9000000000000000222, -0.4687500000000004996 ) ) ;
#471 = DIRECTION ( 'NONE',  ( 1.000000000000000000, 0.000000000000000000, 0.000000000000000000 ) ) ;
#472 = EDGE_CURVE ( 'NONE', #86, #758, #153, .T. ) ;
#473 = DIRECTION ( 'NONE',  ( 0.7071067811865474617, 0.000000000000000000, -0.7071067811865475727 ) ) ;
#474 = CARTESIAN_POINT ( 'NONE',  ( -0.5625000000000000000, -0.9000000000000000222, -0.2343750000000001388 ) ) ;
#475 = DIRECTION ( 'NONE',  ( 0.000000000000000000, 1.000000000000000000, 0.000000000000000000 ) ) ;
#476 = CARTESIAN_POINT ( 'NONE',  ( 0.3158009865436318675, -0.5249999999999996891, -0.1874999999999999167 ) ) ;
#477 = VERTEX_POINT ( 'NONE', #481 ) ;
#478 = DIRECTION ( 'NONE',  ( -1.000000000000000000, 0.000000000000000000, 0.000000000000000000 ) ) ;
#479 = EDGE_CURVE ( 'NONE', #946, #461, #240, .T. ) ;
#480 = CARTESIAN_POINT ( 'NONE',  ( 0.2812500000000000000, 0.9000000000000000222, -0.4687500000000004996 ) ) ;
#481 = CARTESIAN_POINT ( 'NONE',  ( 0.5625000000000000000, -0.9000000000000000222, -0.1874999999999998612 ) ) ;
#482 = ORIENTED_EDGE ( 'NONE', *, *, #284, .F. ) ;
#483 = VERTEX_POINT ( 'NONE', #492 ) ;
#484 = CIRCLE ( 'NONE', #70, 0.1874999999999998612 ) ;
#485 = DIRECTION ( 'NONE',  ( 0.000000000000000000, -1.000000000000000000, 0.000000000000000000 ) ) ;
#486 = CARTESIAN_POINT ( 'NONE',  ( 0.5625000000000000000, -0.9000000000000000222, -0.1874999999999998612 ) ) ;
#487 = ORIENTED_EDGE ( 'NONE', *, *, #7, .T. ) ;
#488 = APPROVAL_ROLE ( '' ) ;
#489 = ORIENTED_EDGE ( 'NONE', *, *, #763, .F. ) ;
#490 = DIRECTION ( 'NONE',  ( 0.7071067811865474617, 0.000000000000000000, 0.7071067811865475727 ) ) ;
#491 = CC_DESIGN_PERSON_AND_ORGANIZATION_ASSIGNMENT ( #932, #246, ( #694 ) ) ;
#492 = CARTESIAN_POINT ( 'NONE',  ( -0.5625000000000000000, -0.5249999999999996891, 0.09374999999999986122 ) ) ;
#493 = ORIENTED_EDGE ( 'NONE', *, *, #587, .T. ) ;
#494 = DIRECTION ( 'NONE',  ( 1.000000000000000000, 0.000000000000000000, 0.000000000000000000 ) ) ;
#495 = APPROVAL ( #406, '未' ) ;
#496 = VECTOR ( 'NONE', #280, 1000.000000000000000 ) ;
#497 = VECTOR ( 'NONE', #883, 1000.000000000000000 ) ;
#498 = CYLINDRICAL_SURFACE ( 'NONE', #123, 0.2812500000000001665 ) ;
#499 = ORIENTED_EDGE ( 'NONE', *, *, #894, .T. ) ;
#500 = ORIENTED_EDGE ( 'NONE', *, *, #999, .F. ) ;
#501 = ADVANCED_FACE ( 'NONE', ( #820 ), #413, .T. ) ;
#502 = CARTESIAN_POINT ( 'NONE',  ( 0.3158009865436318675, -0.5249999999999996891, -0.1874999999999999167 ) ) ;
#503 = CYLINDRICAL_SURFACE ( 'NONE', #687, 0.09374999999999993061 ) ;
#504 = ORIENTED_EDGE ( 'NONE', *, *, #716, .F. ) ;
#505 = DIRECTION ( 'NONE',  ( -1.000000000000000000, 0.000000000000000000, 0.000000000000000000 ) ) ;
#506 = APPROVAL_DATE_TIME ( #192, #495 ) ;
#507 = CARTESIAN_POINT ( 'NONE',  ( 0.09374999999999993061, -0.9000000000000000222, -6.505213034913027837E-17 ) ) ;
#508 = AXIS2_PLACEMENT_3D ( 'NONE', #553, #895, #655 ) ;
#509 = ORIENTED_EDGE ( 'NONE', *, *, #26, .T. ) ;
#510 = CIRCLE ( 'NONE', #382, 0.2812500000000001665 ) ;
#511 = DIRECTION ( 'NONE',  ( 0.000000000000000000, 1.000000000000000000, 0.000000000000000000 ) ) ;
#512 = CYLINDRICAL_SURFACE ( 'NONE', #847, 0.1874999999999998612 ) ;
#513 = CARTESIAN_POINT ( 'NONE',  ( -0.1968750000000003553, 0.7124999999999994671, -6.505213034913027837E-17 ) ) ;
#514 = APPLICATION_CONTEXT ( 'configuration controlled 3d designs of mechanical parts and assemblies' ) ;
#515 = CARTESIAN_POINT ( 'NONE',  ( -0.5625000000000000000, 0.9000000000000000222, 0.4687499999999996669 ) ) ;
#516 = ORIENTED_EDGE ( 'NONE', *, *, #26, .F. ) ;
#517 = CARTESIAN_POINT ( 'NONE',  ( 0.3348973726205891621, -0.4265813546216835062, 0.1665324950574560148 ) ) ;
#518 = EDGE_LOOP ( 'NONE', ( #379, #637, #51, #729 ) ) ;
#519 = FACE_OUTER_BOUND ( 'NONE', #213, .T. ) ;
#520 = CC_DESIGN_PERSON_AND_ORGANIZATION_ASSIGNMENT ( #990, #829, ( #852 ) ) ;
#521 = ORIENTED_EDGE ( 'NONE', *, *, #748, .T. ) ;
#522 = CYLINDRICAL_SURFACE ( 'NONE', #248, 0.1874999999999998612 ) ;
#523 = DIRECTION ( 'NONE',  ( 0.000000000000000000, 0.000000000000000000, -1.000000000000000000 ) ) ;
#524 = LINE ( 'NONE', #474, #638 ) ;
#525 = CARTESIAN_POINT ( 'NONE',  ( -0.1283009865436322283, -0.5762965727366838875, -0.1875000000000000000 ) ) ;
#526 = DIRECTION ( 'NONE',  ( 0.000000000000000000, 0.000000000000000000, -1.000000000000000000 ) ) ;
#527 = EDGE_LOOP ( 'NONE', ( #569, #315, #297, #443 ) ) ;
#528 = CARTESIAN_POINT ( 'NONE',  ( -0.4500000000000000111, 0.5249999999999996891, -6.505213034913027837E-17 ) ) ;
#529 = EDGE_CURVE ( 'NONE', #336, #696, #175, .T. ) ;
#530 = VERTEX_POINT ( 'NONE', #253 ) ;
#531 = CARTESIAN_POINT ( 'NONE',  ( 0.3843750000000002442, 0.3374999999999998002, -1.006434279493502646E-16 ) ) ;
#532 = DIRECTION ( 'NONE',  ( 0.000000000000000000, 0.000000000000000000, -1.000000000000000000 ) ) ;
#533 = ORIENTED_EDGE ( 'NONE', *, *, #136, .T. ) ;
#534 = EDGE_CURVE ( 'NONE', #355, #530, #274, .T. ) ;
#535 = ORIENTED_EDGE ( 'NONE', *, *, #221, .F. ) ;
#536 = CYLINDRICAL_SURFACE ( 'NONE', #402, 0.2812500000000001665 ) ;
#537 = CYLINDRICAL_SURFACE ( 'NONE', #1001, 0.1874999999999998612 ) ;
#538 = EDGE_LOOP ( 'NONE', ( #9, #909, #210, #428 ) ) ;
#539 = FACE_OUTER_BOUND ( 'NONE', #193, .T. ) ;
#540 = ADVANCED_FACE ( 'NONE', ( #659, #1003 ), #588, .F. ) ;
#541 = B_SPLINE_CURVE_WITH_KNOTS ( 'NONE', 3,
 ( #546, #1053, #68, #554, #706, #302 ),
 .UNSPECIFIED., .F., .F.,
 ( 4, 2, 4 ),
 ( 0.0009060444061086818943, 0.001056730842952366845, 0.001207417279796051688 ),
 .UNSPECIFIED. ) ;
#542 = ORIENTED_EDGE ( 'NONE', *, *, #938, .T. ) ;
#543 = CARTESIAN_POINT ( 'NONE',  ( -0.3750000000000002776, -0.9000000000000000222, 0.4687499999999996669 ) ) ;
#544 = CARTESIAN_POINT ( 'NONE',  ( 0.5625000000000000000, -0.5249999999999996891, -6.505213034913027837E-17 ) ) ;
#545 = B_SPLINE_CURVE_WITH_KNOTS ( 'NONE', 3,
 ( #341, #998, #919, #839, #202, #531 ),
 .UNSPECIFIED., .F., .F.,
 ( 4, 2, 4 ),
 ( 0.0003025658096602555896, 0.0004536827999966870162, 0.0006047997903331184429 ),
 .UNSPECIFIED. ) ;
#546 = CARTESIAN_POINT ( 'NONE',  ( -0.1968750000000003553, -0.7124999999999994671, -6.505213034913027837E-17 ) ) ;
#547 = DIRECTION ( 'NONE',  ( 0.000000000000000000, -1.000000000000000000, 0.000000000000000000 ) ) ;
#548 = ADVANCED_FACE ( 'NONE', ( #846 ), #436, .T. ) ;
#549 = DIRECTION ( 'NONE',  ( 0.000000000000000000, 0.000000000000000000, -1.000000000000000000 ) ) ;
#550 = ORIENTED_EDGE ( 'NONE', *, *, #884, .T. ) ;
#551 = CARTESIAN_POINT ( 'NONE',  ( -0.1283009865436320618, -0.5249999999999996891, 0.1874999999999998057 ) ) ;
#552 = B_SPLINE_CURVE_WITH_KNOTS ( 'NONE', 3,
 ( #593, #446, #849, #586, #600, #452 ),
 .UNSPECIFIED., .F., .F.,
 ( 4, 2, 4 ),
 ( 0.0006043558706162723221, 0.0007552001383624772166, 0.0009060444061086822196 ),
 .UNSPECIFIED. ) ;
#553 = CARTESIAN_POINT ( 'NONE',  ( 0.09374999999999993061, 0.9000000000000000222, -6.505213034913027837E-17 ) ) ;
#554 = CARTESIAN_POINT ( 'NONE',  ( -0.1473973726205892454, -0.6234186453783157056, 0.1665324950574561258 ) ) ;
#555 = DIRECTION ( 'NONE',  ( 0.000000000000000000, 1.000000000000000000, 0.000000000000000000 ) ) ;
#556 = CARTESIAN_POINT ( 'NONE',  ( 0.5625000000000000000, -0.9000000000000000222, 0.4687499999999996669 ) ) ;
#557 = ORIENTED_EDGE ( 'NONE', *, *, #859, .T. ) ;
#558 = DIRECTION ( 'NONE',  ( 0.000000000000000000, -1.000000000000000000, 0.000000000000000000 ) ) ;
#559 = VECTOR ( 'NONE', #842, 1000.000000000000000 ) ;
#560 = CARTESIAN_POINT ( 'NONE',  ( -0.1819147013684131453, 0.6909072090562243806, -0.09946908892383909961 ) ) ;
#561 = ADVANCED_FACE ( 'NONE', ( #572 ), #18, .F. ) ;
#562 = DIRECTION ( 'NONE',  ( 0.000000000000000000, 0.000000000000000000, -1.000000000000000000 ) ) ;
#563 = EDGE_CURVE ( 'NONE', #936, #20, #1073, .T. ) ;
#564 = DIRECTION ( 'NONE',  ( 0.000000000000000000, 1.000000000000000000, 0.000000000000000000 ) ) ;
#565 = PERSON ( '未', '未', '未', ('未'), ('未'), ('未') ) ;
#566 = CC_DESIGN_DATE_AND_TIME_ASSIGNMENT ( #801, #361, ( #601 ) ) ;
#567 = EDGE_CURVE ( 'NONE', #660, #1023, #84, .T. ) ;
#568 = CARTESIAN_POINT ( 'NONE',  ( -0.5625000000000000000, -0.5249999999999996891, -6.505213034913027837E-17 ) ) ;
#569 = ORIENTED_EDGE ( 'NONE', *, *, #472, .F. ) ;
#570 = B_SPLINE_CURVE_WITH_KNOTS ( 'NONE', 3,
 ( #400, #735, #645, #328, #229, #1069 ),
 .UNSPECIFIED., .F., .F.,
 ( 4, 2, 4 ),
 ( 0.000000000000000000, 0.0001511680524960515868, 0.0003023361049921031735 ),
 .UNSPECIFIED. ) ;
#571 = EDGE_CURVE ( 'NONE', #956, #671, #172, .T. ) ;
#572 = FACE_OUTER_BOUND ( 'NONE', #862, .T. ) ;
#573 = EDGE_CURVE ( 'NONE', #838, #197, #752, .T. ) ;
#574 = ORIENTED_EDGE ( 'NONE', *, *, #828, .F. ) ;
#575 = CIRCLE ( 'NONE', #141, 0.1874999999999998612 ) ;
#576 = CARTESIAN_POINT ( 'NONE',  ( 0.09374999999999993061, 0.9000000000000000222, -6.505213034913027837E-17 ) ) ;
#577 = ORIENTED_EDGE ( 'NONE', *, *, #122, .F. ) ;
#578 = VECTOR ( 'NONE', #1052, 1000.000000000000000 ) ;
#579 = CARTESIAN_POINT ( 'NONE',  ( 0.2812500000000000000, -0.9000000000000000222, 0.1874999999999998612 ) ) ;
#580 = ORIENTED_EDGE ( 'NONE', *, *, #136, .F. ) ;
#581 = CYLINDRICAL_SURFACE ( 'NONE', #974, 0.09374999999999993061 ) ;
#582 = CARTESIAN_POINT ( 'NONE',  ( -0.1283009865436320618, 0.5249999999999996891, 0.1874999999999998057 ) ) ;
#583 = CARTESIAN_POINT ( 'NONE',  ( 0.5625000000000000000, 0.5249999999999996891, 0.09374999999999986122 ) ) ;
#584 = VERTEX_POINT ( 'NONE', #171 ) ;
#585 = ADVANCED_FACE ( 'NONE', ( #105 ), #498, .T. ) ;
#586 = CARTESIAN_POINT ( 'NONE',  ( -0.1819819752863247875, 0.3589868153872997070, -0.09929529102674286567 ) ) ;
#587 = EDGE_CURVE ( 'NONE', #331, #725, #918, .T. ) ;
#588 = PLANE ( 'NONE',  #414 ) ;
#589 = AXIS2_PLACEMENT_3D ( 'NONE', #568, #899, #633 ) ;
#590 = CARTESIAN_POINT ( 'NONE',  ( -0.4500000000000000111, -0.5249999999999996891, 0.1874999999999998057 ) ) ;
#591 = ORIENTED_EDGE ( 'NONE', *, *, #843, .F. ) ;
#592 = CIRCLE ( 'NONE', #82, 0.2906250000000002998 ) ;
#593 = CARTESIAN_POINT ( 'NONE',  ( -0.1283009865436320895, 0.5249999999999996891, -0.1874999999999999167 ) ) ;
#594 = EDGE_CURVE ( 'NONE', #439, #287, #768, .T. ) ;
#595 = ORIENTED_EDGE ( 'NONE', *, *, #563, .T. ) ;
#596 = CARTESIAN_POINT ( 'NONE',  ( -0.1968750000000004108, 0.7124999999999995781, 0.05129339019814171258 ) ) ;
#597 = CIRCLE ( 'NONE', #1022, 0.1874999999999998612 ) ;
#598 = CARTESIAN_POINT ( 'NONE',  ( -0.1968750000000003830, 0.3374999999999998002, 0.05123972105851017089 ) ) ;
#599 = ORIENTED_EDGE ( 'NONE', *, *, #573, .F. ) ;
#600 = CARTESIAN_POINT ( 'NONE',  ( -0.1968750000000003830, 0.3374999999999998002, -0.05129339019814180972 ) ) ;
#601 = SECURITY_CLASSIFICATION ( '', '', #200 ) ;
#602 = COORDINATED_UNIVERSAL_TIME_OFFSET ( 8, 0, .AHEAD. ) ;
#603 = ORIENTED_EDGE ( 'NONE', *, *, #167, .T. ) ;
#604 = CARTESIAN_POINT ( 'NONE',  ( 0.5625000000000000000, 0.5249999999999996891, -0.1874999999999998612 ) ) ;
#605 = CARTESIAN_POINT ( 'NONE',  ( -0.4500000000000000111, 0.5249999999999996891, -6.505213034913027837E-17 ) ) ;
#606 = VERTEX_POINT ( 'NONE', #257 ) ;
#607 = DIRECTION ( 'NONE',  ( 0.000000000000000000, 0.000000000000000000, -1.000000000000000000 ) ) ;
#608 = ORIENTED_EDGE ( 'NONE', *, *, #804, .F. ) ;
#609 = CARTESIAN_POINT ( 'NONE',  ( -0.1473973726205893287, -0.4265813546216834506, -0.1665324950574561536 ) ) ;
#610 = CARTESIAN_POINT ( 'NONE',  ( 0.3348973726205891066, 0.6234186453783159276, 0.1665324950574560425 ) ) ;
#611 = EDGE_CURVE ( 'NONE', #664, #439, #1029, .T. ) ;
#612 = ORIENTED_EDGE ( 'NONE', *, *, #1071, .T. ) ;
#613 = EDGE_CURVE ( 'NONE', #994, #409, #545, .T. ) ;
#614 = ORIENTED_EDGE ( 'NONE', *, *, #393, .F. ) ;
#615 = DIRECTION ( 'NONE',  ( -1.000000000000000000, 0.000000000000000000, 0.000000000000000000 ) ) ;
#616 = FACE_OUTER_BOUND ( 'NONE', #741, .T. ) ;
#617 = CIRCLE ( 'NONE', #850, 0.1874999999999998612 ) ;
#618 = ORIENTED_EDGE ( 'NONE', *, *, #771, .F. ) ;
#619 = LINE ( 'NONE', #468, #420 ) ;
#620 =( GEOMETRIC_REPRESENTATION_CONTEXT ( 3 ) GLOBAL_UNCERTAINTY_ASSIGNED_CONTEXT ( ( #195 ) ) GLOBAL_UNIT_ASSIGNED_CONTEXT ( ( #1048, #968, #809 ) ) REPRESENTATION_CONTEXT ( 'NONE', 'WORKASPACE' ) );
#621 = ORIENTED_EDGE ( 'NONE', *, *, #74, .T. ) ;
#622 = LINE ( 'NONE', #211, #1021 ) ;
#623 = CARTESIAN_POINT ( 'NONE',  ( 0.3843750000000002998, -0.3374999999999998002, -6.505213034913027837E-17 ) ) ;
#624 = VERTEX_POINT ( 'NONE', #715 ) ;
#625 = CYLINDRICAL_SURFACE ( 'NONE', #173, 0.1874999999999998612 ) ;
#626 = EDGE_CURVE ( 'NONE', #99, #1043, #732, .T. ) ;
#627 = LINE ( 'NONE', #686, #578 ) ;
#628 = DIRECTION ( 'NONE',  ( 1.000000000000000000, 0.000000000000000000, 0.000000000000000000 ) ) ;
#629 = CARTESIAN_POINT ( 'NONE',  ( -0.1283009865436320618, -0.5249999999999996891, -0.1874999999999999167 ) ) ;
#630 = EDGE_CURVE ( 'NONE', #197, #363, #47, .T. ) ;
#631 = CIRCLE ( 'NONE', #778, 0.09374999999999993061 ) ;
#632 = LINE ( 'NONE', #470, #987 ) ;
#633 = DIRECTION ( 'NONE',  ( 0.000000000000000000, 0.000000000000000000, -1.000000000000000000 ) ) ;
#634 = EDGE_LOOP ( 'NONE', ( #841, #252, #747, #516, #31 ) ) ;
#635 = CARTESIAN_POINT ( 'NONE',  ( 0.3694819752863245932, 0.6910131846126992272, -0.09929529102674307384 ) ) ;
#636 = VECTOR ( 'NONE', #766, 1000.000000000000000 ) ;
#637 = ORIENTED_EDGE ( 'NONE', *, *, #398, .T. ) ;
#638 = VECTOR ( 'NONE', #129, 1000.000000000000000 ) ;
#639 = LOCAL_TIME ( 11, 46, 36.00000000000000000, #761 ) ;
#640 = CARTESIAN_POINT ( 'NONE',  ( -0.4500000000000000111, 0.5249999999999996891, -6.505213034913027837E-17 ) ) ;
#641 = EDGE_CURVE ( 'NONE', #355, #606, #627, .T. ) ;
#642 = CARTESIAN_POINT ( 'NONE',  ( -0.4500000000000000111, -0.5249999999999996891, -6.505213034913027837E-17 ) ) ;
#643 = EDGE_CURVE ( 'NONE', #867, #777, #1031, .T. ) ;
#644 = DIRECTION ( 'NONE',  ( 1.000000000000000000, 0.000000000000000000, 0.000000000000000000 ) ) ;
#645 = CARTESIAN_POINT ( 'NONE',  ( -0.1474687220768668983, -0.4264163951239926531, 0.1664367902087371676 ) ) ;
#646 = ORIENTED_EDGE ( 'NONE', *, *, #923, .T. ) ;
#647 = EDGE_CURVE ( 'NONE', #477, #110, #622, .T. ) ;
#648 = ORIENTED_EDGE ( 'NONE', *, *, #250, .T. ) ;
#649 = VECTOR ( 'NONE', #467, 1000.000000000000000 ) ;
#650 = CARTESIAN_POINT ( 'NONE',  ( 0.5625000000000000000, 0.5249999999999996891, -6.505213034913027837E-17 ) ) ;
#651 = AXIS2_PLACEMENT_3D ( 'NONE', #158, #755, #555 ) ;
#652 = CARTESIAN_POINT ( 'NONE',  ( -0.1283009865436320895, 0.5249999999999996891, -0.1874999999999999167 ) ) ;
#653 = CALENDAR_DATE ( 2026, 29, 6 ) ;
#654 = VECTOR ( 'NONE', #712, 1000.000000000000000 ) ;
#655 = DIRECTION ( 'NONE',  ( -1.000000000000000000, 0.000000000000000000, 0.000000000000000000 ) ) ;
#656 = ORIENTED_EDGE ( 'NONE', *, *, #949, .T. ) ;
#657 = EDGE_CURVE ( 'NONE', #877, #180, #693, .T. ) ;
#658 = EDGE_CURVE ( 'NONE', #110, #956, #795, .T. ) ;
#659 = FACE_BOUND ( 'NONE', #411, .T. ) ;
#660 = VERTEX_POINT ( 'NONE', #449 ) ;
#661 = ORIENTED_EDGE ( 'NONE', *, *, #991, .T. ) ;
#662 = CARTESIAN_POINT ( 'NONE',  ( 0.3843750000000002442, -0.7124999999999994671, -0.05123972105851042069 ) ) ;
#663 = ADVANCED_FACE ( 'NONE', ( #117 ), #536, .T. ) ;
#664 = VERTEX_POINT ( 'NONE', #783 ) ;
#665 = DIRECTION ( 'NONE',  ( -1.000000000000000000, 0.000000000000000000, 0.000000000000000000 ) ) ;
#666 = DIRECTION ( 'NONE',  ( -1.000000000000000000, 0.000000000000000000, 0.000000000000000000 ) ) ;
#667 = ORIENTED_EDGE ( 'NONE', *, *, #716, .T. ) ;
#668 = DIRECTION ( 'NONE',  ( -1.000000000000000000, 0.000000000000000000, 0.000000000000000000 ) ) ;
#669 = APPROVAL_ROLE ( '' ) ;
#670 = DIRECTION ( 'NONE',  ( -1.000000000000000000, 0.000000000000000000, 0.000000000000000000 ) ) ;
#671 = VERTEX_POINT ( 'NONE', #802 ) ;
#672 = CC_DESIGN_PERSON_AND_ORGANIZATION_ASSIGNMENT ( #675, #410, ( #1075 ) ) ;
#673 = DIRECTION ( 'NONE',  ( 0.000000000000000000, -1.000000000000000000, 0.000000000000000000 ) ) ;
#674 = CARTESIAN_POINT ( 'NONE',  ( 0.5625000000000000000, 0.5249999999999996891, -6.505213034913027837E-17 ) ) ;
#675 = PERSON_AND_ORGANIZATION ( #565, #806 ) ;
#676 = ORIENTED_EDGE ( 'NONE', *, *, #748, .F. ) ;
#677 = DIRECTION ( 'NONE',  ( 0.000000000000000000, 1.000000000000000000, 0.000000000000000000 ) ) ;
#678 = DIRECTION ( 'NONE',  ( 0.000000000000000000, 1.000000000000000000, 0.000000000000000000 ) ) ;
#679 = EDGE_LOOP ( 'NONE', ( #793, #2, #965, #917, #542, #751, #667, #775, #772, #445, #319, #953, #176, #1016, #66, #509 ) ) ;
#680 = VECTOR ( 'NONE', #152, 1000.000000000000000 ) ;
#681 = LINE ( 'NONE', #294, #496 ) ;
#682 = DIRECTION ( 'NONE',  ( -1.000000000000000000, 0.000000000000000000, 0.000000000000000000 ) ) ;
#683 = APPROVAL_ROLE ( '' ) ;
#684 = VERTEX_POINT ( 'NONE', #286 ) ;
#685 = VECTOR ( 'NONE', #677, 1000.000000000000000 ) ;
#686 = CARTESIAN_POINT ( 'NONE',  ( 0.3843750000000002442, 0.9000000000000000222, -1.006434279493502646E-16 ) ) ;
#687 = AXIS2_PLACEMENT_3D ( 'NONE', #92, #935, #840 ) ;
#688 = FACE_OUTER_BOUND ( 'NONE', #168, .T. ) ;
#689 = ORIENTED_EDGE ( 'NONE', *, *, #567, .F. ) ;
#690 = CARTESIAN_POINT ( 'NONE',  ( -0.4500000000000000111, -0.5249999999999996891, -6.505213034913027837E-17 ) ) ;
#691 = EDGE_CURVE ( 'NONE', #696, #56, #384, .T. ) ;
#692 = ORIENTED_EDGE ( 'NONE', *, *, #897, .F. ) ;
#693 = LINE ( 'NONE', #865, #731 ) ;
#694 = PRODUCT ( '006014', '006014', '', ( #276 ) ) ;
#695 = CARTESIAN_POINT ( 'NONE',  ( 0.3843750000000002442, 0.9000000000000000222, -1.006434279493502646E-16 ) ) ;
#696 = VERTEX_POINT ( 'NONE', #604 ) ;
#697 = LINE ( 'NONE', #1033, #831 ) ;
#698 = B_SPLINE_CURVE_WITH_KNOTS ( 'NONE', 3,
 ( #887, #388, #978, #635, #397, #214 ),
 .UNSPECIFIED., .F., .F.,
 ( 4, 2, 4 ),
 ( 0.0009067175384924458644, 0.001057510853448360598, 0.001208304168404275222 ),
 .UNSPECIFIED. ) ;
#699 = PERSON_AND_ORGANIZATION_ROLE ( 'classification_officer' ) ;
#700 = ORIENTED_EDGE ( 'NONE', *, *, #1013, .F. ) ;
#701 = CARTESIAN_POINT ( 'NONE',  ( -0.1283009865436322283, -0.4736471076868398744, -0.1875000000000000000 ) ) ;
#702 = CC_DESIGN_PERSON_AND_ORGANIZATION_ASSIGNMENT ( #442, #699, ( #601 ) ) ;
#703 = CARTESIAN_POINT ( 'NONE',  ( 0.2812500000000000000, -0.9000000000000000222, -0.1874999999999998612 ) ) ;
#704 = ORIENTED_EDGE ( 'NONE', *, *, #63, .T. ) ;
#705 = VECTOR ( 'NONE', #564, 1000.000000000000000 ) ;
#706 = CARTESIAN_POINT ( 'NONE',  ( -0.1283009865436320618, -0.5761331438114923875, 0.1874999999999998335 ) ) ;
#707 = AXIS2_PLACEMENT_3D ( 'NONE', #109, #668, #930 ) ;
#708 = ORIENTED_EDGE ( 'NONE', *, *, #74, .F. ) ;
#709 = CARTESIAN_POINT ( 'NONE',  ( 0.5625000000000000000, 0.5249999999999996891, -0.1874999999999999167 ) ) ;
#710 = CARTESIAN_POINT ( 'NONE',  ( 0.3843750000000002998, 0.7124999999999995781, -6.505213034913027837E-17 ) ) ;
#711 = ORIENTED_EDGE ( 'NONE', *, *, #922, .T. ) ;
#712 = DIRECTION ( 'NONE',  ( -1.000000000000000000, 0.000000000000000000, 0.000000000000000000 ) ) ;
#713 = CARTESIAN_POINT ( 'NONE',  ( 0.5625000000000000000, 0.5249999999999996891, 0.1874999999999998612 ) ) ;
#714 = AXIS2_PLACEMENT_3D ( 'NONE', #67, #401, #892 ) ;
#715 = CARTESIAN_POINT ( 'NONE',  ( -0.4500000000000000111, -0.5249999999999996891, -0.1874999999999999167 ) ) ;
#716 = EDGE_CURVE ( 'NONE', #921, #99, #16, .T. ) ;
#717 = DIRECTION ( 'NONE',  ( 0.000000000000000000, 0.000000000000000000, -1.000000000000000000 ) ) ;
#718 = ORIENTED_EDGE ( 'NONE', *, *, #910, .F. ) ;
#719 = DIRECTION ( 'NONE',  ( 0.000000000000000000, -1.000000000000000000, 0.000000000000000000 ) ) ;
#720 = DIRECTION ( 'NONE',  ( -1.000000000000000000, 0.000000000000000000, 0.000000000000000000 ) ) ;
#721 = APPROVAL ( #774, '未' ) ;
#722 = PLANE ( 'NONE',  #651 ) ;
#723 = CARTESIAN_POINT ( 'NONE',  ( -0.1968750000000003830, 0.9000000000000000222, -6.505213034913027837E-17 ) ) ;
#724 = LINE ( 'NONE', #875, #368 ) ;
#725 = VERTEX_POINT ( 'NONE', #444 ) ;
#726 = AXIS2_PLACEMENT_3D ( 'NONE', #329, #316, #733 ) ;
#727 = CARTESIAN_POINT ( 'NONE',  ( 0.5625000000000000000, -0.5249999999999996891, -0.1874999999999999167 ) ) ;
#728 = LINE ( 'NONE', #827, #1077 ) ;
#729 = ORIENTED_EDGE ( 'NONE', *, *, #57, .T. ) ;
#730 = FACE_BOUND ( 'NONE', #376, .T. ) ;
#731 = VECTOR ( 'NONE', #377, 1000.000000000000000 ) ;
#732 = B_SPLINE_CURVE_WITH_KNOTS ( 'NONE', 3,
 ( #872, #525, #125, #462, #364, #42 ),
 .UNSPECIFIED., .F., .F.,
 ( 4, 2, 4 ),
 ( 0.0006043558706162721053, 0.0007552001383624769998, 0.0009060444061086818943 ),
 .UNSPECIFIED. ) ;
#733 = DIRECTION ( 'NONE',  ( 0.000000000000000000, 0.000000000000000000, -1.000000000000000000 ) ) ;
#734 = ADVANCED_FACE ( 'NONE', ( #131 ), #947, .T. ) ;
#735 = CARTESIAN_POINT ( 'NONE',  ( -0.1283009865436320063, -0.4737034272633151022, 0.1874999999999998057 ) ) ;
#736 = ORIENTED_EDGE ( 'NONE', *, *, #106, .T. ) ;
#737 = ADVANCED_FACE ( 'NONE', ( #455 ), #954, .T. ) ;
#738 = CARTESIAN_POINT ( 'NONE',  ( 0.5625000000000000000, 0.9000000000000000222, 0.1874999999999998612 ) ) ;
#739 = FACE_OUTER_BOUND ( 'NONE', #89, .T. ) ;
#740 = ADVANCED_FACE ( 'NONE', ( #519 ), #389, .F. ) ;
#741 = EDGE_LOOP ( 'NONE', ( #169, #580, #81, #464, #1019 ) ) ;
#742 = CALENDAR_DATE ( 2026, 29, 6 ) ;
#743 = VERTEX_POINT ( 'NONE', #29 ) ;
#744 = VECTOR ( 'NONE', #762, 1000.000000000000000 ) ;
#745 = CIRCLE ( 'NONE', #275, 0.2812500000000001665 ) ;
#746 = CARTESIAN_POINT ( 'NONE',  ( 0.5625000000000000000, -0.9000000000000000222, 0.4687499999999996669 ) ) ;
#747 = ORIENTED_EDGE ( 'NONE', *, *, #303, .F. ) ;
#748 = EDGE_CURVE ( 'NONE', #671, #439, #73, .T. ) ;
#749 = DIRECTION ( 'NONE',  ( 0.000000000000000000, 1.000000000000000000, 0.000000000000000000 ) ) ;
#750 = AXIS2_PLACEMENT_3D ( 'NONE', #385, #628, #372 ) ;
#751 = ORIENTED_EDGE ( 'NONE', *, *, #1025, .T. ) ;
#752 = LINE ( 'NONE', #1008, #685 ) ;
#753 = FACE_BOUND ( 'NONE', #28, .T. ) ;
#754 = ORIENTED_EDGE ( 'NONE', *, *, #1025, .F. ) ;
#755 = DIRECTION ( 'NONE',  ( 1.000000000000000000, 0.000000000000000000, 0.000000000000000000 ) ) ;
#756 = APPLICATION_PROTOCOL_DEFINITION ( 'international standard', 'config_control_design', 1994, #514 ) ;
#757 = CARTESIAN_POINT ( 'NONE',  ( -0.1283009865436320063, 0.5762965727366839985, 0.1874999999999998057 ) ) ;
#758 = VERTEX_POINT ( 'NONE', #480 ) ;
#759 = DIRECTION ( 'NONE',  ( -1.000000000000000000, 0.000000000000000000, 0.000000000000000000 ) ) ;
#760 = AXIS2_PLACEMENT_3D ( 'NONE', #703, #796, #365 ) ;
#761 = COORDINATED_UNIVERSAL_TIME_OFFSET ( 8, 0, .AHEAD. ) ;
#762 = DIRECTION ( 'NONE',  ( 0.000000000000000000, -1.000000000000000000, 0.000000000000000000 ) ) ;
#763 = EDGE_CURVE ( 'NONE', #797, #584, #1078, .T. ) ;
#764 = APPROVAL_PERSON_ORGANIZATION ( #295, #721, #683 ) ;
#765 = ORIENTED_EDGE ( 'NONE', *, *, #630, .T. ) ;
#766 = DIRECTION ( 'NONE',  ( 0.000000000000000000, 0.000000000000000000, 1.000000000000000000 ) ) ;
#767 = CARTESIAN_POINT ( 'NONE',  ( 0.5625000000000000000, 0.5249999999999996891, -6.505213034913027837E-17 ) ) ;
#768 = B_SPLINE_CURVE_WITH_KNOTS ( 'NONE', 3,
 ( #851, #770, #263, #1017, #344, #194 ),
 .UNSPECIFIED., .F., .F.,
 ( 4, 2, 4 ),
 ( 0.0009067175384924465150, 0.001057510853448361248, 0.001208304168404276090 ),
 .UNSPECIFIED. ) ;
#769 = ORIENTED_EDGE ( 'NONE', *, *, #139, .F. ) ;
#770 = CARTESIAN_POINT ( 'NONE',  ( 0.3158009865436318675, -0.4737034272633151022, -0.1874999999999999167 ) ) ;
#771 = EDGE_CURVE ( 'NONE', #477, #216, #465, .T. ) ;
#772 = ORIENTED_EDGE ( 'NONE', *, *, #348, .T. ) ;
#773 = DIRECTION ( 'NONE',  ( 0.000000000000000000, 1.000000000000000000, 0.000000000000000000 ) ) ;
#774 = APPROVAL_STATUS ( 'not_yet_approved' ) ;
#775 = ORIENTED_EDGE ( 'NONE', *, *, #626, .T. ) ;
#776 = DIRECTION ( 'NONE',  ( -1.000000000000000000, 0.000000000000000000, 0.000000000000000000 ) ) ;
#777 = VERTEX_POINT ( 'NONE', #346 ) ;
#778 = AXIS2_PLACEMENT_3D ( 'NONE', #640, #644, #1072 ) ;
#779 = CARTESIAN_POINT ( 'NONE',  ( 0.5625000000000000000, -0.5249999999999996891, 0.1874999999999998612 ) ) ;
#780 = EDGE_CURVE ( 'NONE', #584, #363, #510, .T. ) ;
#781 = ORIENTED_EDGE ( 'NONE', *, *, #611, .F. ) ;
#782 = AXIS2_PLACEMENT_3D ( 'NONE', #291, #54, #311 ) ;
#783 = CARTESIAN_POINT ( 'NONE',  ( 0.3843750000000002442, -0.7124999999999994671, -1.006434279493502646E-16 ) ) ;
#784 = CIRCLE ( 'NONE', #325, 0.09374999999999993061 ) ;
#785 = CARTESIAN_POINT ( 'NONE',  ( 0.5625000000000000000, 0.5249999999999996891, -0.1874999999999999167 ) ) ;
#786 = EDGE_LOOP ( 'NONE', ( #769, #219, #369, #612 ) ) ;
#787 = CARTESIAN_POINT ( 'NONE',  ( 0.3843750000000002998, -0.7124999999999995781, 0.05129339019814167094 ) ) ;
#788 = EDGE_CURVE ( 'NONE', #99, #624, #324, .T. ) ;
#789 = ORIENTED_EDGE ( 'NONE', *, *, #425, .T. ) ;
#790 = ADVANCED_FACE ( 'NONE', ( #1056, #144 ), #722, .T. ) ;
#791 = CARTESIAN_POINT ( 'NONE',  ( 0.5625000000000000000, 0.5249999999999996891, -0.09375000000000000000 ) ) ;
#792 = CARTESIAN_POINT ( 'NONE',  ( 0.3843750000000002442, 0.7124999999999994671, 0.05123972105851017089 ) ) ;
#793 = ORIENTED_EDGE ( 'NONE', *, *, #641, .F. ) ;
#794 = ORIENTED_EDGE ( 'NONE', *, *, #360, .F. ) ;
#795 = LINE ( 'NONE', #959, #258 ) ;
#796 = DIRECTION ( 'NONE',  ( 0.000000000000000000, 1.000000000000000000, 0.000000000000000000 ) ) ;
#797 = VERTEX_POINT ( 'NONE', #738 ) ;
#798 = AXIS2_PLACEMENT_3D ( 'NONE', #642, #494, #981 ) ;
#799 = DIRECTION ( 'NONE',  ( 0.000000000000000000, 0.000000000000000000, -1.000000000000000000 ) ) ;
#800 = AXIS2_PLACEMENT_3D ( 'NONE', #898, #889, #807 ) ;
#801 = DATE_AND_TIME ( #964, #3 ) ;
#802 = CARTESIAN_POINT ( 'NONE',  ( 0.5625000000000000000, -0.5249999999999996891, -0.1874999999999998612 ) ) ;
#803 = LINE ( 'NONE', #785, #349 ) ;
#804 = EDGE_CURVE ( 'NONE', #421, #777, #416, .T. ) ;
#805 = DIRECTION ( 'NONE',  ( -1.000000000000000000, 0.000000000000000000, 0.000000000000000000 ) ) ;
#806 = ORGANIZATION ( '未', '未', '' ) ;
#807 = DIRECTION ( 'NONE',  ( 0.7071067811865474617, 0.000000000000000000, -0.7071067811865475727 ) ) ;
#808 = DIRECTION ( 'NONE',  ( 0.000000000000000000, 1.000000000000000000, 0.000000000000000000 ) ) ;
#809 =( NAMED_UNIT ( * ) SI_UNIT ( $, .STERADIAN. ) SOLID_ANGLE_UNIT ( ) );
#810 = LINE ( 'NONE', #392, #1 ) ;
#811 = B_SPLINE_CURVE_WITH_KNOTS ( 'NONE', 3,
 ( #354, #1020, #375, #206, #787, #924 ),
 .UNSPECIFIED., .F., .F.,
 ( 4, 2, 4 ),
 ( 0.0003025658096602554812, 0.0004536827999966871246, 0.0006047997903331187681 ),
 .UNSPECIFIED. ) ;
#812 = CARTESIAN_POINT ( 'NONE',  ( 0.5625000000000000000, -0.5249999999999996891, -6.505213034913027837E-17 ) ) ;
#813 = CARTESIAN_POINT ( 'NONE',  ( 0.2812500000000000000, -0.9000000000000000222, -0.4687500000000004996 ) ) ;
#814 = ORIENTED_EDGE ( 'NONE', *, *, #788, .F. ) ;
#815 = FACE_OUTER_BOUND ( 'NONE', #538, .T. ) ;
#816 = DIRECTION ( 'NONE',  ( -1.000000000000000000, 0.000000000000000000, 0.000000000000000000 ) ) ;
#817 = EDGE_CURVE ( 'NONE', #696, #93, #575, .T. ) ;
#818 = CARTESIAN_POINT ( 'NONE',  ( 0.2812500000000000000, -0.9000000000000000222, -0.1874999999999998612 ) ) ;
#819 = EDGE_CURVE ( 'NONE', #207, #120, #632, .T. ) ;
#820 = FACE_OUTER_BOUND ( 'NONE', #900, .T. ) ;
#821 = EDGE_LOOP ( 'NONE', ( #1010, #985, #939, #1005 ) ) ;
#822 = VECTOR ( 'NONE', #873, 1000.000000000000000 ) ;
#823 = CARTESIAN_POINT ( 'NONE',  ( -0.5625000000000000000, -0.5249999999999996891, -6.505213034913027837E-17 ) ) ;
#824 = DIRECTION ( 'NONE',  ( 0.000000000000000000, -1.000000000000000000, 0.000000000000000000 ) ) ;
#825 = ORIENTED_EDGE ( 'NONE', *, *, #321, .T. ) ;
#826 = CARTESIAN_POINT ( 'NONE',  ( 0.2812500000000000000, 0.9000000000000000222, 0.1874999999999998612 ) ) ;
#827 = CARTESIAN_POINT ( 'NONE',  ( -0.3750000000000002776, -0.9000000000000000222, -0.4687500000000004996 ) ) ;
#828 = EDGE_CURVE ( 'NONE', #409, #56, #237, .T. ) ;
#829 = PERSON_AND_ORGANIZATION_ROLE ( 'creator' ) ;
#830 = ORIENTED_EDGE ( 'NONE', *, *, #87, .T. ) ;
#831 = VECTOR ( 'NONE', #458, 1000.000000000000000 ) ;
#832 = CARTESIAN_POINT ( 'NONE',  ( 0.09374999999999993061, 0.9000000000000000222, -6.505213034913027837E-17 ) ) ;
#833 = B_SPLINE_CURVE_WITH_KNOTS ( 'NONE', 3,
 ( #107, #598, #112, #916, #196, #860 ),
 .UNSPECIFIED., .F., .F.,
 ( 4, 2, 4 ),
 ( 0.0009060444061086822196, 0.001056730842952367279, 0.001207417279796052121 ),
 .UNSPECIFIED. ) ;
#834 = ORIENTED_EDGE ( 'NONE', *, *, #1013, .T. ) ;
#835 = VECTOR ( 'NONE', #615, 1000.000000000000000 ) ;
#836 = DIRECTION ( 'NONE',  ( 0.000000000000000000, 1.000000000000000000, 0.000000000000000000 ) ) ;
#837 = ORIENTED_EDGE ( 'NONE', *, *, #963, .T. ) ;
#838 = VERTEX_POINT ( 'NONE', #983 ) ;
#839 = CARTESIAN_POINT ( 'NONE',  ( 0.3694819752863247042, 0.3589868153872998735, 0.09929529102674283791 ) ) ;
#840 = DIRECTION ( 'NONE',  ( 0.000000000000000000, 0.000000000000000000, -1.000000000000000000 ) ) ;
#841 = ORIENTED_EDGE ( 'NONE', *, *, #945, .F. ) ;
#842 = DIRECTION ( 'NONE',  ( 0.000000000000000000, -1.000000000000000000, 0.000000000000000000 ) ) ;
#843 = EDGE_CURVE ( 'NONE', #530, #20, #903, .T. ) ;
#844 = AXIS2_PLACEMENT_3D ( 'NONE', #605, #471, #808 ) ;
#845 = PERSON_AND_ORGANIZATION_ROLE ( 'design_supplier' ) ;
#846 = FACE_OUTER_BOUND ( 'NONE', #518, .T. ) ;
#847 = AXIS2_PLACEMENT_3D ( 'NONE', #767, #1028, #1012 ) ;
#848 = ORIENTED_EDGE ( 'NONE', *, *, #922, .F. ) ;
#849 = CARTESIAN_POINT ( 'NONE',  ( -0.1474687220768668705, 0.4264163951239925976, -0.1664367902087373063 ) ) ;
#850 = AXIS2_PLACEMENT_3D ( 'NONE', #879, #203, #532 ) ;
#851 = CARTESIAN_POINT ( 'NONE',  ( 0.3158009865436318675, -0.5249999999999996891, -0.1874999999999999167 ) ) ;
#852 = PRODUCT_DEFINITION_FORMATION_WITH_SPECIFIED_SOURCE ( '�', '', #694, .NOT_KNOWN. ) ;
#853 = CARTESIAN_POINT ( 'NONE',  ( 0.4801237822087164320, 0.9000000000000000222, -0.3863737822087163210 ) ) ;
#854 = ORIENTED_EDGE ( 'NONE', *, *, #658, .T. ) ;
#855 = CARTESIAN_POINT ( 'NONE',  ( 0.5625000000000000000, 0.5249999999999996891, -6.505213034913027837E-17 ) ) ;
#856 = ORIENTED_EDGE ( 'NONE', *, *, #859, .F. ) ;
#857 = CARTESIAN_POINT ( 'NONE',  ( 0.09374999999999993061, 0.9000000000000000222, -6.505213034913027837E-17 ) ) ;
#858 = B_SPLINE_CURVE_WITH_KNOTS ( 'NONE', 3,
 ( #710, #792, #292, #610, #456, #43 ),
 .UNSPECIFIED., .F., .F.,
 ( 4, 2, 4 ),
 ( 0.000000000000000000, 0.0001512829048301277948, 0.0003025658096602555896 ),
 .UNSPECIFIED. ) ;
#859 = EDGE_CURVE ( 'NONE', #867, #142, #631, .T. ) ;
#860 = CARTESIAN_POINT ( 'NONE',  ( -0.1283009865436320618, 0.5249999999999996891, 0.1874999999999998057 ) ) ;
#861 = EDGE_CURVE ( 'NONE', #483, #684, #185, .T. ) ;
#862 = EDGE_LOOP ( 'NONE', ( #357, #277, #366, #608 ) ) ;
#863 = DIRECTION ( 'NONE',  ( -1.000000000000000000, 0.000000000000000000, 0.000000000000000000 ) ) ;
#864 = ORIENTED_EDGE ( 'NONE', *, *, #398, .F. ) ;
#865 = CARTESIAN_POINT ( 'NONE',  ( 0.5625000000000000000, -0.5249999999999996891, 0.1874999999999998057 ) ) ;
#866 = LINE ( 'NONE', #967, #869 ) ;
#867 = VERTEX_POINT ( 'NONE', #333 ) ;
#868 = DIRECTION ( 'NONE',  ( 0.000000000000000000, 0.000000000000000000, -1.000000000000000000 ) ) ;
#869 = VECTOR ( 'NONE', #526, 1000.000000000000000 ) ;
#870 = EDGE_LOOP ( 'NONE', ( #982, #656, #108, #765, #874, #489, #373, #1058 ) ) ;
#871 = AXIS2_PLACEMENT_3D ( 'NONE', #278, #91, #914 ) ;
#872 = CARTESIAN_POINT ( 'NONE',  ( -0.1283009865436320618, -0.5249999999999996891, -0.1874999999999999167 ) ) ;
#873 = DIRECTION ( 'NONE',  ( 0.000000000000000000, -1.000000000000000000, 0.000000000000000000 ) ) ;
#874 = ORIENTED_EDGE ( 'NONE', *, *, #780, .F. ) ;
#875 = CARTESIAN_POINT ( 'NONE',  ( 0.5625000000000000000, -0.9000000000000000222, 0.4687499999999996669 ) ) ;
#876 = ADVANCED_FACE ( 'NONE', ( #988 ), #243, .F. ) ;
#877 = VERTEX_POINT ( 'NONE', #551 ) ;
#878 = DIRECTION ( 'NONE',  ( -1.000000000000000000, 0.000000000000000000, 0.000000000000000000 ) ) ;
#879 = CARTESIAN_POINT ( 'NONE',  ( -0.4500000000000000111, -0.5249999999999996891, -6.505213034913027837E-17 ) ) ;
#880 = ORIENTED_EDGE ( 'NONE', *, *, #817, .T. ) ;
#881 = APPROVAL ( #186, '未' ) ;
#882 = ORIENTED_EDGE ( 'NONE', *, *, #945, .T. ) ;
#883 = DIRECTION ( 'NONE',  ( 1.000000000000000000, 0.000000000000000000, 0.000000000000000000 ) ) ;
#884 = EDGE_CURVE ( 'NONE', #530, #355, #592, .T. ) ;
#885 = DIRECTION ( 'NONE',  ( 0.000000000000000000, 0.000000000000000000, -1.000000000000000000 ) ) ;
#886 = AXIS2_PLACEMENT_3D ( 'NONE', #832, #179, #23 ) ;
#887 = CARTESIAN_POINT ( 'NONE',  ( 0.3158009865436318675, 0.5249999999999996891, -0.1874999999999999167 ) ) ;
#888 = VECTOR ( 'NONE', #673, 1000.000000000000000 ) ;
#889 = DIRECTION ( 'NONE',  ( 0.000000000000000000, -1.000000000000000000, 0.000000000000000000 ) ) ;
#890 = AXIS2_PLACEMENT_3D ( 'NONE', #83, #670, #356 ) ;
#891 = CARTESIAN_POINT ( 'NONE',  ( 0.5625000000000000000, -0.5249999999999996891, 0.09374999999999986122 ) ) ;
#892 = DIRECTION ( 'NONE',  ( 0.000000000000000000, 0.000000000000000000, 1.000000000000000000 ) ) ;
#893 = CARTESIAN_POINT ( 'NONE',  ( 0.2812500000000000000, 0.9000000000000000222, 0.1874999999999998612 ) ) ;
#894 = EDGE_CURVE ( 'NONE', #201, #336, #118, .T. ) ;
#895 = DIRECTION ( 'NONE',  ( 0.000000000000000000, -1.000000000000000000, 0.000000000000000000 ) ) ;
#896 = EDGE_CURVE ( 'NONE', #461, #684, #149, .T. ) ;
#897 = EDGE_CURVE ( 'NONE', #287, #133, #212, .T. ) ;
#898 = CARTESIAN_POINT ( 'NONE',  ( 0.2812500000000000000, 0.9000000000000000222, -0.1874999999999998612 ) ) ;
#899 = DIRECTION ( 'NONE',  ( 1.000000000000000000, 0.000000000000000000, 0.000000000000000000 ) ) ;
#900 = EDGE_LOOP ( 'NONE', ( #882, #130, #72, #700 ) ) ;
#901 = CC_DESIGN_PERSON_AND_ORGANIZATION_ASSIGNMENT ( #90, #845, ( #852 ) ) ;
#902 = CIRCLE ( 'NONE', #224, 0.09374999999999993061 ) ;
#903 = LINE ( 'NONE', #64, #913 ) ;
#904 = DIRECTION ( 'NONE',  ( -1.000000000000000000, 0.000000000000000000, 0.000000000000000000 ) ) ;
#905 = DIRECTION ( 'NONE',  ( 1.000000000000000000, 0.000000000000000000, 0.000000000000000000 ) ) ;
#906 = VECTOR ( 'NONE', #271, 1000.000000000000000 ) ;
#907 = DIRECTION ( 'NONE',  ( -1.000000000000000000, 0.000000000000000000, 0.000000000000000000 ) ) ;
#908 = LINE ( 'NONE', #150, #1014 ) ;
#909 = ORIENTED_EDGE ( 'NONE', *, *, #573, .T. ) ;
#910 = EDGE_CURVE ( 'NONE', #956, #133, #39, .T. ) ;
#911 = FACE_OUTER_BOUND ( 'NONE', #679, .T. ) ;
#912 = ORIENTED_EDGE ( 'NONE', *, *, #861, .T. ) ;
#913 = VECTOR ( 'NONE', #975, 1000.000000000000000 ) ;
#914 = DIRECTION ( 'NONE',  ( 0.000000000000000000, 0.000000000000000000, -1.000000000000000000 ) ) ;
#915 = ORIENTED_EDGE ( 'NONE', *, *, #571, .F. ) ;
#916 = CARTESIAN_POINT ( 'NONE',  ( -0.1473973726205892731, 0.4265813546216835617, 0.1665324950574560703 ) ) ;
#917 = ORIENTED_EDGE ( 'NONE', *, *, #393, .T. ) ;
#918 = CIRCLE ( 'NONE', #227, 0.2906250000000002998 ) ;
#919 = CARTESIAN_POINT ( 'NONE',  ( 0.3349687220768670093, 0.4264163951239925976, 0.1664367902087371398 ) ) ;
#920 = ADVANCED_FACE ( 'NONE', ( #944 ), #581, .F. ) ;
#921 = VERTEX_POINT ( 'NONE', #199 ) ;
#922 = EDGE_CURVE ( 'NONE', #285, #743, #156, .T. ) ;
#923 = EDGE_CURVE ( 'NONE', #133, #664, #811, .T. ) ;
#924 = CARTESIAN_POINT ( 'NONE',  ( 0.3843750000000002442, -0.7124999999999994671, -1.006434279493502646E-16 ) ) ;
#925 = APPLICATION_PROTOCOL_DEFINITION ( 'international standard', 'config_control_design', 1994, #135 ) ;
#926 = CARTESIAN_POINT ( 'NONE',  ( -0.1819819752863246765, 0.6910131846126992272, 0.09929529102674289343 ) ) ;
#927 = LINE ( 'NONE', #583, #906 ) ;
#928 = VERTEX_POINT ( 'NONE', #281 ) ;
#929 = CARTESIAN_POINT ( 'NONE',  ( 0.5625000000000000000, -0.9000000000000000222, 0.4687499999999996669 ) ) ;
#930 = DIRECTION ( 'NONE',  ( 0.000000000000000000, 0.000000000000000000, -1.000000000000000000 ) ) ;
#931 = ADVANCED_FACE ( 'NONE', ( #121 ), #430, .F. ) ;
#932 = PERSON_AND_ORGANIZATION ( #565, #806 ) ;
#933 = CARTESIAN_POINT ( 'NONE',  ( 0.09374999999999993061, -0.9000000000000000222, -6.505213034913027837E-17 ) ) ;
#934 = AXIS2_PLACEMENT_3D ( 'NONE', #528, #863, #607 ) ;
#935 = DIRECTION ( 'NONE',  ( -1.000000000000000000, 0.000000000000000000, 0.000000000000000000 ) ) ;
#936 = VERTEX_POINT ( 'NONE', #115 ) ;
#937 = DIRECTION ( 'NONE',  ( -1.000000000000000000, 0.000000000000000000, 0.000000000000000000 ) ) ;
#938 = EDGE_CURVE ( 'NONE', #160, #928, #552, .T. ) ;
#939 = ORIENTED_EDGE ( 'NONE', *, *, #896, .T. ) ;
#940 = CARTESIAN_POINT ( 'NONE',  ( 0.3843750000000002442, -0.7124999999999994671, -1.006434279493502646E-16 ) ) ;
#941 = AXIS2_PLACEMENT_3D ( 'NONE', #463, #37, #549 ) ;
#942 = ORIENTED_EDGE ( 'NONE', *, *, #63, .F. ) ;
#943 = FACE_OUTER_BOUND ( 'NONE', #424, .T. ) ;
#944 = FACE_OUTER_BOUND ( 'NONE', #1040, .T. ) ;
#945 = EDGE_CURVE ( 'NONE', #93, #696, #338, .T. ) ;
#946 = VERTEX_POINT ( 'NONE', #1002 ) ;
#947 = PLANE ( 'NONE',  #782 ) ;
#948 = CYLINDRICAL_SURFACE ( 'NONE', #48, 0.1874999999999998612 ) ;
#949 = EDGE_CURVE ( 'NONE', #758, #120, #260, .T. ) ;
#950 = ORIENTED_EDGE ( 'NONE', *, *, #415, .T. ) ;
#951 = DIRECTION ( 'NONE',  ( 1.000000000000000000, 0.000000000000000000, 0.000000000000000000 ) ) ;
#952 = DATE_AND_TIME ( #34, #960 ) ;
#953 = ORIENTED_EDGE ( 'NONE', *, *, #611, .T. ) ;
#954 = PLANE ( 'NONE',  #33 ) ;
#955 = DIRECTION ( 'NONE',  ( -1.000000000000000000, 0.000000000000000000, 0.000000000000000000 ) ) ;
#956 = VERTEX_POINT ( 'NONE', #779 ) ;
#957 = LINE ( 'NONE', #1049, #469 ) ;
#958 = EDGE_LOOP ( 'NONE', ( #279, #189, #264, #648, #46 ) ) ;
#959 = CARTESIAN_POINT ( 'NONE',  ( 0.5625000000000000000, -0.9000000000000000222, 0.1874999999999998612 ) ) ;
#960 = LOCAL_TIME ( 11, 46, 36.00000000000000000, #602 ) ;
#961 = EDGE_LOOP ( 'NONE', ( #342, #345 ) ) ;
#962 = DIRECTION ( 'NONE',  ( 0.000000000000000000, 1.000000000000000000, 0.000000000000000000 ) ) ;
#963 = EDGE_CURVE ( 'NONE', #461, #946, #902, .T. ) ;
#964 = CALENDAR_DATE ( 2026, 29, 6 ) ;
#965 = ORIENTED_EDGE ( 'NONE', *, *, #843, .T. ) ;
#966 = CARTESIAN_POINT ( 'NONE',  ( 0.5625000000000000000, 0.9000000000000000222, 0.4687499999999996669 ) ) ;
#967 = CARTESIAN_POINT ( 'NONE',  ( 0.5625000000000000000, 0.9000000000000000222, -0.4687500000000004996 ) ) ;
#968 =( NAMED_UNIT ( * ) PLANE_ANGLE_UNIT ( ) SI_UNIT ( $, .RADIAN. ) );
#969 = EDGE_CURVE ( 'NONE', #664, #331, #32, .T. ) ;
#970 = CARTESIAN_POINT ( 'NONE',  ( -0.4500000000000000111, -0.5249999999999996891, -6.505213034913027837E-17 ) ) ;
#971 = DIRECTION ( 'NONE',  ( 0.000000000000000000, 0.000000000000000000, 1.000000000000000000 ) ) ;
#972 = CYLINDRICAL_SURFACE ( 'NONE', #381, 0.1874999999999998612 ) ;
#973 = DIRECTION ( 'NONE',  ( 0.000000000000000000, -1.000000000000000000, 0.000000000000000000 ) ) ;
#974 = AXIS2_PLACEMENT_3D ( 'NONE', #367, #21, #868 ) ;
#975 = DIRECTION ( 'NONE',  ( 0.000000000000000000, -1.000000000000000000, 0.000000000000000000 ) ) ;
#976 = EDGE_CURVE ( 'NONE', #743, #285, #50, .T. ) ;
#977 = DIRECTION ( 'NONE',  ( 1.000000000000000000, 0.000000000000000000, 0.000000000000000000 ) ) ;
#978 = CARTESIAN_POINT ( 'NONE',  ( 0.3349687220768666762, 0.6235836048760067252, -0.1664367902087373063 ) ) ;
#979 = ADVANCED_FACE ( 'NONE', ( #102 ), #512, .F. ) ;
#980 = CARTESIAN_POINT ( 'NONE',  ( 0.3348973726205892176, 0.4265813546216836172, -0.1665324950574561813 ) ) ;
#981 = DIRECTION ( 'NONE',  ( 0.000000000000000000, 0.000000000000000000, -1.000000000000000000 ) ) ;
#982 = ORIENTED_EDGE ( 'NONE', *, *, #1071, .F. ) ;
#983 = CARTESIAN_POINT ( 'NONE',  ( -0.5625000000000000000, -0.9000000000000000222, 0.4687499999999996669 ) ) ;
#984 = CYLINDRICAL_SURFACE ( 'NONE', #508, 0.2906250000000002998 ) ;
#985 = ORIENTED_EDGE ( 'NONE', *, *, #479, .T. ) ;
#986 = CIRCLE ( 'NONE', #589, 0.09374999999999993061 ) ;
#987 = VECTOR ( 'NONE', #69, 1000.000000000000000 ) ;
#988 = FACE_OUTER_BOUND ( 'NONE', #821, .T. ) ;
#989 = CARTESIAN_POINT ( 'NONE',  ( -0.1283009865436322283, 0.5763528923131593373, -0.1875000000000000000 ) ) ;
#990 = PERSON_AND_ORGANIZATION ( #565, #806 ) ;
#991 = EDGE_CURVE ( 'NONE', #1023, #110, #745, .T. ) ;
#992 = CC_DESIGN_APPROVAL ( #721, ( #601 ) ) ;
#993 = LINE ( 'NONE', #486, #183 ) ;
#994 = VERTEX_POINT ( 'NONE', #289 ) ;
#995 = DIRECTION ( 'NONE',  ( 0.000000000000000000, 1.000000000000000000, 0.000000000000000000 ) ) ;
#996 = ORIENTED_EDGE ( 'NONE', *, *, #613, .F. ) ;
#997 = ORIENTED_EDGE ( 'NONE', *, *, #969, .T. ) ;
#998 = CARTESIAN_POINT ( 'NONE',  ( 0.3158009865436321451, 0.4737034272633151577, 0.1874999999999998612 ) ) ;
#999 = EDGE_CURVE ( 'NONE', #696, #671, #440, .T. ) ;
#1000 = ORIENTED_EDGE ( 'NONE', *, *, #641, .T. ) ;
#1001 = AXIS2_PLACEMENT_3D ( 'NONE', #544, #119, #717 ) ;
#1002 = CARTESIAN_POINT ( 'NONE',  ( -0.4500000000000000111, -0.5249999999999996891, 0.09374999999999986122 ) ) ;
#1003 = FACE_OUTER_BOUND ( 'NONE', #300, .T. ) ;
#1004 = PLANE ( 'NONE',  #85 ) ;
#1005 = ORIENTED_EDGE ( 'NONE', *, *, #861, .F. ) ;
#1006 = CARTESIAN_POINT ( 'NONE',  ( 0.3843750000000002998, -0.3374999999999998002, -6.505213034913027837E-17 ) ) ;
#1007 = DIRECTION ( 'NONE',  ( 0.000000000000000000, 0.000000000000000000, 1.000000000000000000 ) ) ;
#1008 = CARTESIAN_POINT ( 'NONE',  ( -0.5625000000000000000, -0.9000000000000000222, 0.4687499999999996669 ) ) ;
#1009 = DIRECTION ( 'NONE',  ( -0.000000000000000000, 1.000000000000000000, 0.000000000000000000 ) ) ;
#1010 = ORIENTED_EDGE ( 'NONE', *, *, #321, .F. ) ;
#1011 = CARTESIAN_POINT ( 'NONE',  ( -0.1968750000000003553, -0.7124999999999994671, -6.505213034913027837E-17 ) ) ;
#1012 = DIRECTION ( 'NONE',  ( 0.000000000000000000, 0.000000000000000000, -1.000000000000000000 ) ) ;
#1013 = EDGE_CURVE ( 'NONE', #93, #797, #697, .T. ) ;
#1014 = VECTOR ( 'NONE', #233, 1000.000000000000000 ) ;
#1015 = DATE_AND_TIME ( #742, #261 ) ;
#1016 = ORIENTED_EDGE ( 'NONE', *, *, #242, .F. ) ;
#1017 = CARTESIAN_POINT ( 'NONE',  ( 0.3694819752863245932, -0.3589868153872997070, -0.09929529102674289343 ) ) ;
#1018 = AXIS2_PLACEMENT_3D ( 'NONE', #823, #228, #562 ) ;
#1019 = ORIENTED_EDGE ( 'NONE', *, *, #235, .T. ) ;
#1020 = CARTESIAN_POINT ( 'NONE',  ( 0.3158009865436322006, -0.5762965727366839985, 0.1874999999999998335 ) ) ;
#1021 = VECTOR ( 'NONE', #971, 1000.000000000000000 ) ;
#1022 = AXIS2_PLACEMENT_3D ( 'NONE', #970, #45, #799 ) ;
#1023 = VERTEX_POINT ( 'NONE', #358 ) ;
#1024 = CARTESIAN_POINT ( 'NONE',  ( 0.2812500000000000000, -0.9000000000000000222, 0.1874999999999998612 ) ) ;
#1025 = EDGE_CURVE ( 'NONE', #928, #921, #681, .T. ) ;
#1026 = FACE_OUTER_BOUND ( 'NONE', #958, .T. ) ;
#1027 = ORIENTED_EDGE ( 'NONE', *, *, #896, .F. ) ;
#1028 = DIRECTION ( 'NONE',  ( -1.000000000000000000, 0.000000000000000000, 0.000000000000000000 ) ) ;
#1029 = B_SPLINE_CURVE_WITH_KNOTS ( 'NONE', 3,
 ( #940, #662, #419, #4, #426, #502 ),
 .UNSPECIFIED., .F., .F.,
 ( 4, 2, 4 ),
 ( 0.0006047997903331187681, 0.0007557586644127826415, 0.0009067175384924465150 ),
 .UNSPECIFIED. ) ;
#1030 = ORIENTED_EDGE ( 'NONE', *, *, #594, .F. ) ;
#1031 = LINE ( 'NONE', #791, #835 ) ;
#1032 = ORIENTED_EDGE ( 'NONE', *, *, #897, .T. ) ;
#1033 = CARTESIAN_POINT ( 'NONE',  ( 0.5625000000000000000, -0.9000000000000000222, 0.1874999999999998612 ) ) ;
#1034 = COORDINATED_UNIVERSAL_TIME_OFFSET ( 8, 0, .AHEAD. ) ;
#1035 = ORIENTED_EDGE ( 'NONE', *, *, #804, .T. ) ;
#1036 = DIRECTION ( 'NONE',  ( 0.000000000000000000, 1.000000000000000000, 0.000000000000000000 ) ) ;
#1037 = CARTESIAN_POINT ( 'NONE',  ( 0.5625000000000000000, -0.5249999999999996891, -6.505213034913027837E-17 ) ) ;
#1038 = ADVANCED_FACE ( 'NONE', ( #943 ), #268, .T. ) ;
#1039 = VECTOR ( 'NONE', #682, 1000.000000000000000 ) ;
#1040 = EDGE_LOOP ( 'NONE', ( #837, #825, #41, #1027 ) ) ;
#1041 = CARTESIAN_POINT ( 'NONE',  ( 0.5625000000000000000, 0.5249999999999996891, 0.1874999999999998057 ) ) ;
#1042 = EDGE_CURVE ( 'NONE', #120, #197, #101, .T. ) ;
#1043 = VERTEX_POINT ( 'NONE', #1011 ) ;
#1044 = CARTESIAN_POINT ( 'NONE',  ( -0.1968750000000003830, -0.3374999999999998002, -6.505213034913027837E-17 ) ) ;
#1045 = DIRECTION ( 'NONE',  ( -1.000000000000000000, 0.000000000000000000, 0.000000000000000000 ) ) ;
#1046 = ORIENTED_EDGE ( 'NONE', *, *, #991, .F. ) ;
#1047 = ADVANCED_FACE ( 'NONE', ( #198 ), #522, .F. ) ;
#1048 =( LENGTH_UNIT ( ) NAMED_UNIT ( * ) SI_UNIT ( .MILLI., .METRE. ) );
#1049 = CARTESIAN_POINT ( 'NONE',  ( 0.5625000000000000000, 0.5249999999999996891, 0.1874999999999998057 ) ) ;
#1050 = SHAPE_DEFINITION_REPRESENTATION ( #374, #1063 ) ;
#1051 = ADVANCED_FACE ( 'NONE', ( #730, #313, #815 ), #155, .T. ) ;
#1052 = DIRECTION ( 'NONE',  ( 0.000000000000000000, -1.000000000000000000, 0.000000000000000000 ) ) ;
#1053 = CARTESIAN_POINT ( 'NONE',  ( -0.1968750000000003275, -0.7124999999999994671, 0.05123972105851013620 ) ) ;
#1054 = EDGE_LOOP ( 'NONE', ( #247, #912 ) ) ;
#1055 = EDGE_CURVE ( 'NONE', #93, #994, #148, .T. ) ;
#1056 = FACE_BOUND ( 'NONE', #961, .T. ) ;
#1057 = DIRECTION ( 'NONE',  ( 1.000000000000000000, 0.000000000000000000, 0.000000000000000000 ) ) ;
#1058 = ORIENTED_EDGE ( 'NONE', *, *, #894, .F. ) ;
#1059 = DIRECTION ( 'NONE',  ( -1.000000000000000000, 0.000000000000000000, 0.000000000000000000 ) ) ;
#1060 = MANIFOLD_SOLID_BREP ( 'NONE', #453 ) ;
#1061 = DIRECTION ( 'NONE',  ( 0.000000000000000000, 1.000000000000000000, 0.000000000000000000 ) ) ;
#1062 = VECTOR ( 'NONE', #190, 1000.000000000000000 ) ;
#1063 = ADVANCED_BREP_SHAPE_REPRESENTATION ( '006014', ( #1060, #161 ), #620 ) ;
#1064 = DIRECTION ( 'NONE',  ( 0.000000000000000000, 0.000000000000000000, -1.000000000000000000 ) ) ;
#1065 = AXIS2_PLACEMENT_3D ( 'NONE', #579, #995, #422 ) ;
#1066 = CARTESIAN_POINT ( 'NONE',  ( -0.4500000000000000111, -0.5249999999999996891, -0.09375000000000000000 ) ) ;
#1067 = EDGE_LOOP ( 'NONE', ( #864, #661, #854, #343, #834, #457 ) ) ;
#1068 = CARTESIAN_POINT ( 'NONE',  ( 0.3694147013684130898, 0.3590927909437752197, -0.09946908892383907186 ) ) ;
#1069 = CARTESIAN_POINT ( 'NONE',  ( -0.1968750000000003830, -0.3374999999999998002, -6.505213034913027837E-17 ) ) ;
#1070 = CALENDAR_DATE ( 2026, 29, 6 ) ;
#1071 = EDGE_CURVE ( 'NONE', #758, #201, #126, .T. ) ;
#1072 = DIRECTION ( 'NONE',  ( 0.000000000000000000, 0.000000000000000000, -1.000000000000000000 ) ) ;
#1073 = B_SPLINE_CURVE_WITH_KNOTS ( 'NONE', 3,
 ( #582, #757, #187, #926, #596, #513 ),
 .UNSPECIFIED., .F., .F.,
 ( 4, 2, 4 ),
 ( 0.000000000000000000, 0.0001511680524960515868, 0.0003023361049921031735 ),
 .UNSPECIFIED. ) ;
#1074 = CARTESIAN_POINT ( 'NONE',  ( 0.3843750000000002442, 0.9000000000000000222, -1.006434279493502646E-16 ) ) ;
#1075 = PRODUCT_DEFINITION ( '�', '', #852, #164 ) ;
#1076 = DATE_TIME_ROLE ( 'creation_date' ) ;
#1077 = VECTOR ( 'NONE', #1057, 1000.000000000000000 ) ;
#1078 = CIRCLE ( 'NONE', #11, 0.2812500000000001665 ) ;
#1079 = DIRECTION ( 'NONE',  ( 1.000000000000000000, 0.000000000000000000, 0.000000000000000000 ) ) ;
ENDSEC;
END-ISO-10303-21;
