  0
SECTION
  2
HEADER
  9
$ACADVER
  1
AC1015
  9
$ACADMAINTVER
 70
     6
  9
$DWGCODEPAGE
  3
ANSI_936
  9
$INSBASE
 10
0.0
 20
0.0
 30
0.0
  9
$EXTMIN
 10
0.0
 20
0.0
 30
0.0
  9
$EXTMAX
 10
297.0
 20
210.0
 30
0.0
  9
$LIMMIN
 10
0.0
 20
0.0
  9
$LIMMAX
 10
297.0
 20
210.0
  9
$ORTHOMODE
 70
     0
  9
$REGENMODE
 70
     1
  9
$FILLMODE
 70
     1
  9
$QTEXTMODE
 70
     0
  9
$MIRRTEXT
 70
     1
  9
$LTSCALE
 40
1.0
  9
$ATTMODE
 70
     1
  9
$TEXTSIZE
 40
3.5
  9
$TRACEWID
 40
1.0
  9
$TEXTSTYLE
  7
Standard
  9
$CLAYER
  8
0
  9
$CELTYPE
  6
ByLayer
  9
$CECOLOR
 62
   256
  9
$CELTSCALE
 40
1.0
  9
$DISPSILH
 70
     0
  9
$DIMSCALE
 40
1.0
  9
$DIMASZ
 40
4.08
  9
$DIMEXO
 40
0.0
  9
$DIMDLI
 40
3.75
  9
$DIMRND
 40
0.0
  9
$DIMDLE
 40
0.0
  9
$DIMEXE
 40
2.0
  9
$DIMTP
 40
0.0
  9
$DIMTM
 40
0.0
  9
$DIMTXT
 40
3.5
  9
$DIMCEN
 40
2.5
  9
$DIMTSZ
 40
0.0
  9
$DIMTOL
 70
     0
  9
$DIMLIM
 70
     0
  9
$DIMTIH
 70
     1
  9
$DIMTOH
 70
     1
  9
$DIMSE1
 70
     0
  9
$DIMSE2
 70
     0
  9
$DIMTAD
 70
     1
  9
$DIMZIN
 70
     0
  9
$DIMBLK
  1

  9
$DIMASO
 70
     1
  9
$DIMSHO
 70
     1
  9
$DIMPOST
  1

  9
$DIMAPOST
  1

  9
$DIMALT
 70
     0
  9
$DIMALTD
 70
     3
  9
$DIMALTF
 40
0.0393700787
  9
$DIMLFAC
 40
2.0
  9
$DIMTOFL
 70
     1
  9
$DIMTVP
 40
0.0
  9
$DIMTIX
 70
     0
  9
$DIMSOXD
 70
     0
  9
$DIMSAH
 70
     0
  9
$DIMBLK1
  1

  9
$DIMBLK2
  1

  9
$DIMSTYLE
  2
ISO-25
  9
$DIMCLRD
 70
     0
  9
$DIMCLRE
 70
     0
  9
$DIMCLRT
 70
     0
  9
$DIMTFAC
 40
1.0
  9
$DIMGAP
 40
1.524
  9
$DIMJUST
 70
     0
  9
$DIMSD1
 70
     0
  9
$DIMSD2
 70
     0
  9
$DIMTOLJ
 70
     0
  9
$DIMTZIN
 70
     0
  9
$DIMALTZ
 70
     0
  9
$DIMALTTZ
 70
     0
  9
$DIMUPT
 70
     0
  9
$DIMDEC
 70
     2
  9
$DIMTDEC
 70
     2
  9
$DIMALTU
 70
     2
  9
$DIMALTTD
 70
     3
  9
$DIMTXSTY
  7
Standard
  9
$DIMAUNIT
 70
     0
  9
$DIMADEC
 70
     2
  9
$DIMALTRND
 40
0.0
  9
$DIMAZIN
 70
     0
  9
$DIMDSEP
 70
    44
  9
$DIMATFIT
 70
     3
  9
$DIMFRAC
 70
     0
  9
$DIMLDRBLK
  1

  9
$DIMLUNIT
 70
     2
  9
$DIMLWD
 70
    -2
  9
$DIMLWE
 70
    -2
  9
$DIMTMOVE
 70
     0
  9
$LUNITS
 70
     2
  9
$LUPREC
 70
     2
  9
$SKETCHINC
 40
1.0
  9
$FILLETRAD
 40
0.0
  9
$AUNITS
 70
     0
  9
$AUPREC
 70
     2
  9
$MENU
  1
.
  9
$ELEVATION
 40
0.0
  9
$PELEVATION
 40
0.0
  9
$THICKNESS
 40
0.0
  9
$LIMCHECK
 70
     0
  9
$CHAMFERA
 40
0.0
  9
$CHAMFERB
 40
0.0
  9
$CHAMFERC
 40
0.0
  9
$CHAMFERD
 40
0.0
  9
$SKPOLY
 70
     0
  9
$TDCREATE
 40
2461215.67484566
  9
$TDUCREATE
 40
2461215.341512327
  9
$TDUPDATE
 40
2461215.674846551
  9
$TDUUPDATE
 40
2461215.341513218
  9
$TDINDWG
 40
0.0000000116
  9
$TDUSRTIMER
 40
0.0000000116
  9
$USRTIMER
 70
     1
  9
$ANGBASE
 50
0.0
  9
$ANGDIR
 70
     0
  9
$PDMODE
 70
     0
  9
$PDSIZE
 40
-1.0
  9
$PLINEWID
 40
0.0
  9
$SPLFRAME
 70
     0
  9
$SPLINETYPE
 70
     6
  9
$SPLINESEGS
 70
     8
  9
$HANDSEED
  5
111
  9
$SURFTAB1
 70
     6
  9
$SURFTAB2
 70
     6
  9
$SURFTYPE
 70
     6
  9
$SURFU
 70
     6
  9
$SURFV
 70
     6
  9
$UCSBASE
  2

  9
$UCSNAME
  2

  9
$UCSORG
 10
0.0
 20
0.0
 30
0.0
  9
$UCSXDIR
 10
1.0
 20
0.0
 30
0.0
  9
$UCSYDIR
 10
0.0
 20
1.0
 30
0.0
  9
$UCSORTHOREF
  2

  9
$UCSORTHOVIEW
 70
     0
  9
$UCSORGTOP
 10
0.0
 20
0.0
 30
0.0
  9
$UCSORGBOTTOM
 10
0.0
 20
0.0
 30
0.0
  9
$UCSORGLEFT
 10
0.0
 20
0.0
 30
0.0
  9
$UCSORGRIGHT
 10
0.0
 20
0.0
 30
0.0
  9
$UCSORGFRONT
 10
0.0
 20
0.0
 30
0.0
  9
$UCSORGBACK
 10
0.0
 20
0.0
 30
0.0
  9
$PUCSBASE
  2

  9
$PUCSNAME
  2

  9
$PUCSORG
 10
0.0
 20
0.0
 30
0.0
  9
$PUCSXDIR
 10
1.0
 20
0.0
 30
0.0
  9
$PUCSYDIR
 10
0.0
 20
1.0
 30
0.0
  9
$PUCSORTHOREF
  2

  9
$PUCSORTHOVIEW
 70
     0
  9
$PUCSORGTOP
 10
0.0
 20
0.0
 30
0.0
  9
$PUCSORGBOTTOM
 10
0.0
 20
0.0
 30
0.0
  9
$PUCSORGLEFT
 10
0.0
 20
0.0
 30
0.0
  9
$PUCSORGRIGHT
 10
0.0
 20
0.0
 30
0.0
  9
$PUCSORGFRONT
 10
0.0
 20
0.0
 30
0.0
  9
$PUCSORGBACK
 10
0.0
 20
0.0
 30
0.0
  9
$USERI1
 70
     0
  9
$USERI2
 70
     0
  9
$USERI3
 70
     0
  9
$USERI4
 70
     0
  9
$USERI5
 70
     0
  9
$USERR1
 40
0.0
  9
$USERR2
 40
0.0
  9
$USERR3
 40
0.0
  9
$USERR4
 40
0.0
  9
$USERR5
 40
0.0
  9
$WORLDVIEW
 70
     1
  9
$SHADEDGE
 70
     3
  9
$SHADEDIF
 70
    70
  9
$TILEMODE
 70
     1
  9
$MAXACTVP
 70
    64
  9
$PINSBASE
 10
0.0
 20
0.0
 30
0.0
  9
$PLIMCHECK
 70
     0
  9
$PEXTMIN
 10
1.0000000000E+20
 20
1.0000000000E+20
 30
1.0000000000E+20
  9
$PEXTMAX
 10
-1.0000000000E+20
 20
-1.0000000000E+20
 30
-1.0000000000E+20
  9
$PLIMMIN
 10
0.0
 20
0.0
  9
$PLIMMAX
 10
420.0
 20
297.0
  9
$UNITMODE
 70
     0
  9
$VISRETAIN
 70
     1
  9
$PLINEGEN
 70
     0
  9
$PSLTSCALE
 70
     1
  9
$TREEDEPTH
 70
  3020
  9
$CMLSTYLE
  2
Standard
  9
$CMLJUST
 70
     0
  9
$CMLSCALE
 40
20.0
  9
$PROXYGRAPHICS
 70
     1
  9
$MEASUREMENT
 70
     1
  9
$CELWEIGHT
370
    -1
  9
$ENDCAPS
280
     0
  9
$JOINSTYLE
280
     0
  9
$LWDISPLAY
290
     1
  9
$INSUNITS
 70
     4
  9
$HYPERLINKBASE
  1

  9
$STYLESHEET
  1

  9
$XEDIT
290
     1
  9
$CEPSNTYPE
380
     0
  9
$PSTYLEMODE
290
     1
  9
$FINGERPRINTGUID
  2
{1bfa91eb-5068-4c98-930d-ac7faaf9d32a}
  9
$VERSIONGUID
  2
{FAEB1C32-E019-11D5-929B-00C0DF256EC4}
  9
$EXTNAMES
290
     1
  9
$PSVPSCALE
 40
0.0
  9
$OLESTARTUP
290
     0
  0
ENDSEC
  0
SECTION
  2
CLASSES
  0
CLASS
  1
ACDBDICTIONARYWDFLT
  2
AcDbDictionaryWithDefault
  3
ObjectDBX Classes
 90
        0
280
     0
281
     0
  0
CLASS
  1
VISUALSTYLE
  2
AcDbVisualStyle
  3
ObjectDBX Classes
 90
     4095
280
     0
281
     0
  0
CLASS
  1
MATERIAL
  2
AcDbMaterial
  3
ObjectDBX Classes
 90
     1153
280
     0
281
     0
  0
CLASS
  1
SCALE
  2
AcDbScale
  3
ObjectDBX Classes
 90
     1153
280
     0
281
     0
  0
CLASS
  1
TABLESTYLE
  2
AcDbTableStyle
  3
ObjectDBX Classes
 90
     4095
280
     0
281
     0
  0
CLASS
  1
MLEADERSTYLE
  2
AcDbMLeaderStyle
  3
ACDB_MLEADERSTYLE_CLASS
 90
     4095
280
     0
281
     0
  0
CLASS
  1
SUN
  2
AcDbSun
  3
SCENEOE
 90
     1153
280
     0
281
     0
  0
CLASS
  1
ACDBPLACEHOLDER
  2
AcDbPlaceHolder
  3
ObjectDBX Classes
 90
        0
280
     0
281
     0
  0
CLASS
  1
LAYOUT
  2
AcDbLayout
  3
ObjectDBX Classes
 90
        0
280
     0
281
     0
  0
ENDSEC
  0
SECTION
  2
TABLES
  0
TABLE
  2
VPORT
  5
8
330
0
100
AcDbSymbolTable
 70
     1
  0
VPORT
  5
29
330
8
100
AcDbSymbolTableRecord
100
AcDbViewportTableRecord
  2
*Active
 70
     0
 10
0.0
 20
0.0
 11
1.0
 21
1.0
 12
148.5
 22
105.0
 13
0.0
 23
0.0
 14
10.0
 24
10.0
 15
10.0
 25
10.0
 16
0.0
 26
0.0
 36
1.0
 17
0.0
 27
0.0
 37
0.0
 40
210.0
 41
1.4142857143
 42
50.0
 43
0.0
 44
0.0
 50
0.0
 51
0.0
 71
     0
 72
  2000
 73
     1
 74
     3
 75
     0
 76
     0
 77
     0
 78
     0
281
     0
 65
     1
110
0.0
120
0.0
130
0.0
111
1.0
121
0.0
131
0.0
112
0.0
122
1.0
132
0.0
 79
     0
146
0.0
  0
ENDTAB
  0
TABLE
  2
LTYPE
  5
5
330
0
100
AcDbSymbolTable
 70
     6
  0
LTYPE
  5
14
330
5
100
AcDbSymbolTableRecord
100
AcDbLinetypeTableRecord
  2
ByBlock
 70
     0
  3

 72
    65
 73
     0
 40
0.0
  0
LTYPE
  5
15
330
5
100
AcDbSymbolTableRecord
100
AcDbLinetypeTableRecord
  2
ByLayer
 70
     0
  3

 72
    65
 73
     0
 40
0.0
  0
LTYPE
  5
16
330
5
100
AcDbSymbolTableRecord
100
AcDbLinetypeTableRecord
  2
Continuous
 70
     0
  3
Solid line
 72
    65
 73
     0
 40
0.0
  0
LTYPE
  5
5E
330
5
100
AcDbSymbolTableRecord
100
AcDbLinetypeTableRecord
  2
HIDDEN
 70
     0
  3
Hidden __ __ __ __ __ __ __ __ __ __ __ __ __ __
 72
    65
 73
     2
 40
1.905
 49
1.27
 74
     0
 49
-0.635
 74
     0
  0
LTYPE
  5
5F
330
5
100
AcDbSymbolTableRecord
100
AcDbLinetypeTableRecord
  2
PHANTOM
 70
     0
  3
Phantom ______  __  __  ______  __  __  ______
 72
    65
 73
     6
 40
12.7
 49
6.35
 74
     0
 49
-1.27
 74
     0
 49
1.27
 74
     0
 49
-1.27
 74
     0
 49
1.27
 74
     0
 49
-1.27
 74
     0
  0
LTYPE
  5
60
330
5
100
AcDbSymbolTableRecord
100
AcDbLinetypeTableRecord
  2
CENTER
 70
     0
  3
Center ____ _ ____ _ ____ _ ____ _ ____ _ ____
 72
    65
 73
     4
 40
10.16
 49
6.35
 74
     0
 49
-1.27
 74
     0
 49
1.27
 74
     0
 49
-1.27
 74
     0
  0
LTYPE
  5
61
330
5
100
AcDbSymbolTableRecord
100
AcDbLinetypeTableRecord
  2
CENTERX2
 70
     0
  3
Center (2x) ________  __  ________  __  _____
 72
    65
 73
     4
 40
20.32
 49
12.7
 74
     0
 49
-2.54
 74
     0
 49
2.54
 74
     0
 49
-2.54
 74
     0
  0
LTYPE
  5
62
330
5
100
AcDbSymbolTableRecord
100
AcDbLinetypeTableRecord
  2
DOT2
 70
     0
  3
Dot (.5x) ........................................
 72
    65
 73
     2
 40
0.635
 49
0.0
 74
     0
 49
-0.635
 74
     0
  0
ENDTAB
  0
TABLE
  2
LAYER
  5
2
330
0
100
AcDbSymbolTable
 70
    14
  0
LAYER
  5
10
330
2
100
AcDbSymbolTableRecord
100
AcDbLayerTableRecord
  2
0
 70
     0
 62
     7
  6
Continuous
370
    -3
390
F
  0
LAYER
  5
63
330
2
100
AcDbSymbolTableRecord
100
AcDbLayerTableRecord
  2
SLD-0
 70
     0
 62
     7
  6
Continuous
370
    -3
390
F
  0
LAYER
  5
64
330
2
100
AcDbSymbolTableRecord
100
AcDbLayerTableRecord
  2
5
 70
     0
 62
     7
  6
Continuous
370
    -3
390
F
  0
LAYER
  5
65
330
2
100
AcDbSymbolTableRecord
100
AcDbLayerTableRecord
  2
9
 70
     0
 62
     7
  6
Continuous
370
    -3
390
F
  0
LAYER
  5
66
330
2
100
AcDbSymbolTableRecord
100
AcDbLayerTableRecord
  2
10
 70
     0
 62
     7
  6
Continuous
370
    -3
390
F
  0
LAYER
  5
67
330
2
100
AcDbSymbolTableRecord
100
AcDbLayerTableRecord
  2
轮廓实线层
 70
     0
 62
     7
  6
Continuous
370
    50
390
F
  0
LAYER
  5
68
330
2
100
AcDbSymbolTableRecord
100
AcDbLayerTableRecord
  2
细线层
 70
     0
 62
     4
  6
Continuous
370
    25
390
F
  0
LAYER
  5
69
330
2
100
AcDbSymbolTableRecord
100
AcDbLayerTableRecord
  2
中心线层
 70
     0
 62
     1
  6
CENTERX2
370
    25
390
F
  0
LAYER
  5
6A
330
2
100
AcDbSymbolTableRecord
100
AcDbLayerTableRecord
  2
虚线层
 70
     0
 62
     6
  6
HIDDEN
370
    25
390
F
  0
LAYER
  5
6B
330
2
100
AcDbSymbolTableRecord
100
AcDbLayerTableRecord
  2
剖面线层
 70
     0
 62
     2
  6
Continuous
370
    25
390
F
  0
LAYER
  5
6C
330
2
100
AcDbSymbolTableRecord
100
AcDbLayerTableRecord
  2
文字层
 70
     0
 62
     3
  6
Continuous
370
    25
390
F
  0
LAYER
  5
6D
330
2
100
AcDbSymbolTableRecord
100
AcDbLayerTableRecord
  2
标注层
 70
     0
 62
     4
  6
Continuous
370
    25
390
F
  0
LAYER
  5
6E
330
2
100
AcDbSymbolTableRecord
100
AcDbLayerTableRecord
  2
符号标注层
 70
     0
 62
    31
  6
Continuous
370
    25
390
F
  0
LAYER
  5
6F
330
2
100
AcDbSymbolTableRecord
100
AcDbLayerTableRecord
  2
双点划线层
 70
     0
 62
     6
  6
PHANTOM
370
    25
390
F
  0
ENDTAB
  0
TABLE
  2
STYLE
  5
3
330
0
100
AcDbSymbolTable
 70
     1
  0
STYLE
  5
11
330
3
100
AcDbSymbolTableRecord
100
AcDbTextStyleTableRecord
  2
Standard
 70
     0
 40
0.0
 41
1.0
 50
0.0
 71
     0
 42
3.5
  3
txt
  4

  0
ENDTAB
  0
TABLE
  2
VIEW
  5
6
330
0
100
AcDbSymbolTable
 70
     0
  0
ENDTAB
  0
TABLE
  2
UCS
  5
7
330
0
100
AcDbSymbolTable
 70
     0
  0
ENDTAB
  0
TABLE
  2
APPID
  5
9
330
0
100
AcDbSymbolTable
 70
     1
  0
APPID
  5
12
330
9
100
AcDbSymbolTableRecord
100
AcDbRegAppTableRecord
  2
ACAD
 70
     0
  0
ENDTAB
  0
TABLE
  2
DIMSTYLE
  5
A
330
0
100
AcDbSymbolTable
 70
     1
100
AcDbDimStyleTable
  0
DIMSTYLE
105
27
330
A
100
AcDbSymbolTableRecord
100
AcDbDimStyleTableRecord
  2
ISO-25
 70
     0
 41
2.5
 42
0.625
 43
3.75
 44
1.25
 73
     0
 74
     0
 77
     1
 78
     8
140
2.5
141
2.5
143
0.0393700787
147
0.625
171
     3
172
     1
178
     0
271
     2
272
     2
274
     3
278
    44
283
     0
284
     8
340
11
  0
ENDTAB
  0
TABLE
  2
BLOCK_RECORD
  5
1
330
0
100
AcDbSymbolTable
 70
     1
  0
BLOCK_RECORD
  5
1F
330
1
100
AcDbSymbolTableRecord
100
AcDbBlockTableRecord
  2
*Model_Space
340
22
  0
BLOCK_RECORD
  5
1B
330
1
100
AcDbSymbolTableRecord
100
AcDbBlockTableRecord
  2
*Paper_Space
340
1E
  0
BLOCK_RECORD
  5
23
330
1
100
AcDbSymbolTableRecord
100
AcDbBlockTableRecord
  2
*Paper_Space0
340
26
  0
ENDTAB
  0
ENDSEC
  0
SECTION
  2
BLOCKS
  0
BLOCK
  5
20
330
1F
100
AcDbEntity
  8
0
100
AcDbBlockBegin
  2
*Model_Space
 70
     0
 10
0.0
 20
0.0
 30
0.0
  3
*Model_Space
  1

  0
ENDBLK
  5
21
330
1F
100
AcDbEntity
  8
0
100
AcDbBlockEnd
  0
BLOCK
  5
1C
330
1B
100
AcDbEntity
 67
     1
  8
0
100
AcDbBlockBegin
  2
*Paper_Space
 70
     0
 10
0.0
 20
0.0
 30
0.0
  3
*Paper_Space
  1

  0
ENDBLK
  5
1D
330
1B
100
AcDbEntity
 67
     1
  8
0
100
AcDbBlockEnd
  0
BLOCK
  5
24
330
23
100
AcDbEntity
  8
0
100
AcDbBlockBegin
  2
*Paper_Space0
 70
     0
 10
0.0
 20
0.0
 30
0.0
  3
*Paper_Space0
  1

  0
ENDBLK
  5
25
330
23
100
AcDbEntity
  8
0
100
AcDbBlockEnd
  0
ENDSEC
  0
SECTION
  2
ENTITIES
  0
SPLINE
  5
70
330
1F
100
AcDbEntity
  8
0
  6
Continuous
 62
     7
370
    25
100
AcDbSpline
210
0.0
220
0.0
230
1.0
 70
     8
 71
     3
 72
    13
 73
     9
 74
     0
 42
0.00000001
 43
0.00000001
 40
0.0
 40
0.0
 40
0.0
 40
0.0
 40
0.24398238006548
 40
0.3744080046936442
 40
0.5066105207427654
 40
0.6377123828694606
 40
0.7651039550934872
 40
1.0
 40
1.0
 40
1.0
 40
1.0
 10
130.0588235294118
 20
50.05496566573354
 30
0.0
 10
130.046834253238
 20
50.17335212199125
 30
0.0
 10
130.0284358714829
 20
50.35502440856499
 30
0.0
 10
129.9156846770157
 20
50.57483689718818
 30
0.0
 10
129.7990484701709
 20
50.7258918309038
 30
0.0
 10
129.6541129893646
 20
50.84770881239333
 30
0.0
 10
129.4437897325869
 20
50.96535570569822
 30
0.0
 10
129.2678924753077
 20
50.98494763388143
 30
0.0
 10
129.1538461538462
 20
50.99765043194772
 30
0.0
  0
SPLINE
  5
71
330
1F
100
AcDbEntity
  8
0
  6
Continuous
 62
     7
370
    25
100
AcDbSpline
210
0.0
220
0.0
230
1.0
 70
     8
 71
     3
 72
    13
 73
     9
 74
     0
 42
0.00000001
 43
0.00000001
 40
0.0
 40
0.0
 40
0.0
 40
0.0
 40
0.2348960449065167
 40
0.3622876171305471
 40
0.4933894792572382
 40
0.6255919953063589
 40
0.7560176199345225
 40
1.0
 40
1.0
 40
1.0
 40
1.0
 10
36.84615384615386
 20
50.99765043194772
 30
0.0
 10
36.73210752469233
 20
50.98494763388143
 30
0.0
 10
36.55621026741306
 20
50.96535570569822
 30
0.0
 10
36.34588701063544
 20
50.84770881239334
 30
0.0
 10
36.2009515298291
 20
50.72589183090379
 30
0.0
 10
36.08431532298429
 20
50.57483689718818
 30
0.0
 10
35.97156412851706
 20
50.35502440856499
 30
0.0
 10
35.95316574676205
 20
50.17335212199125
 30
0.0
 10
35.94117647058825
 20
50.05496566573354
 30
0.0
  0
SPLINE
  5
72
330
1F
100
AcDbEntity
  8
0
  6
Continuous
 62
     7
370
    25
100
AcDbSpline
210
0.0
220
0.0
230
1.0
 70
     8
 71
     3
 72
    13
 73
     9
 74
     0
 42
0.00000001
 43
0.00000001
 40
0.0
 40
0.0
 40
0.0
 40
0.0
 40
0.2439823800645876
 40
0.3744080046930913
 40
0.5066105207425639
 40
0.6377123828696258
 40
0.7651039550939843
 40
1.0
 40
1.0
 40
1.0
 40
1.0
 10
35.94117647058825
 20
49.11228089951936
 30
0.0
 10
35.96515502293565
 20
48.87550798700482
 30
0.0
 10
36.00195178644554
 20
48.51216341385788
 30
0.0
 10
36.22745417537944
 20
48.07253843661144
 30
0.0
 10
36.46072658906954
 20
47.77042856917921
 30
0.0
 10
36.75059755068296
 20
47.52679460619948
 30
0.0
 10
37.17124406423859
 20
47.29150081958983
 30
0.0
 10
37.52303857879691
 20
47.2523169632235
 30
0.0
 10
37.75113122171948
 20
47.22691136709101
 30
0.0
  0
SPLINE
  5
73
330
1F
100
AcDbEntity
  8
0
  6
Continuous
 62
     7
370
    25
100
AcDbSpline
210
0.0
220
0.0
230
1.0
 70
     8
 71
     3
 72
    13
 73
     9
 74
     0
 42
0.00000001
 43
0.00000001
 40
0.0
 40
0.0
 40
0.0
 40
0.0
 40
0.2348960449060176
 40
0.3622876171303779
 40
0.4933894792574378
 40
0.6255919953069087
 40
0.7560176199354132
 40
0.9999999999999999
 40
0.9999999999999999
 40
0.9999999999999999
 40
0.9999999999999999
 10
128.2488687782806
 20
47.22691136709101
 30
0.0
 10
128.4769614212031
 20
47.2523169632235
 30
0.0
 10
128.8287559357614
 20
47.29150081958982
 30
0.0
 10
129.2494024493171
 20
47.52679460619948
 30
0.0
 10
129.5392734109305
 20
47.7704285691792
 30
0.0
 10
129.7725458246206
 20
48.07253843661145
 30
0.0
 10
129.9980482135545
 20
48.51216341385788
 30
0.0
 10
130.0348449770644
 20
48.87550798700482
 30
0.0
 10
130.0588235294118
 20
49.11228089951936
 30
0.0
  0
LINE
  5
74
330
1F
100
AcDbEntity
  8
0
  6
Continuous
 62
     7
370
    25
100
AcDbLine
 10
130.0588235294
 20
49.1122808995
 30
0.0
 11
130.0588235294
 21
50.0549656657
 31
0.0
  0
LINE
  5
75
330
1F
100
AcDbEntity
  8
0
  6
Continuous
 62
     7
370
    25
100
AcDbLine
 10
35.9411764706
 20
50.0549656657
 30
0.0
 11
35.9411764706
 21
49.1122808995
 31
0.0
  0
LINE
  5
76
330
1F
100
AcDbEntity
  8
0
  6
Continuous
 62
     7
370
    25
100
AcDbLine
 10
129.1538461537
 20
50.9976504319
 30
0.0
 11
36.8461538466
 21
50.9976504319
 31
0.0
  0
LINE
  5
77
330
1F
100
AcDbEntity
  8
0
  6
Continuous
 62
     7
370
    25
100
AcDbLine
 10
83.0
 20
47.2269113671
 30
0.0
 11
128.2488687677
 21
47.2269113671
 31
0.0
  0
LINE
  5
78
330
1F
100
AcDbEntity
  8
0
  6
Continuous
 62
     7
370
    25
100
AcDbLine
 10
37.7511312222
 20
47.2269113671
 30
0.0
 11
83.0
 21
47.2269113671
 31
0.0
  0
SPLINE
  5
79
330
1F
100
AcDbEntity
  8
0
  6
Continuous
 62
     7
370
    25
100
AcDbSpline
210
0.0
220
0.0
230
1.0
 70
     8
 71
     3
 72
    16
 73
    12
 74
     0
 42
0.00000001
 43
0.00000001
 40
0.0
 40
0.0
 40
0.0
 40
0.0
 40
0.2499999999999998
 40
0.2499999999999998
 40
0.4999999999999996
 40
0.4999999999999996
 40
0.6249999999999997
 40
0.6249999999999997
 40
0.7499999999999998
 40
0.7499999999999998
 40
1.0
 40
1.0
 40
1.0
 40
1.0
 10
114.2014745764678
 20
60.80170421730839
 30
0.0
 10
113.4196516636596
 20
60.80197769407268
 30
0.0
 10
112.5497121523714
 20
60.80259117312522
 30
0.0
 10
110.6572235066849
 20
60.80353562588666
 30
0.0
 10
109.6329711644936
 20
60.80386521202249
 30
0.0
 10
107.9764222792494
 20
60.8038766491288
 30
0.0
 10
107.4027417612403
 20
60.80380434271504
 30
0.0
 10
106.2211656092404
 20
60.80352663598472
 30
0.0
 10
105.6142219720278
 20
60.80332190479174
 30
0.0
 10
103.7449114536063
 20
60.80260734409005
 30
0.0
 10
102.4342863569586
 20
60.80197580843662
 30
0.0
 10
101.0566757701843
 20
60.80169884463086
 30
0.0
  0
SPLINE
  5
7A
330
1F
100
AcDbEntity
  8
0
  6
Continuous
 62
     7
370
    25
100
AcDbSpline
210
0.0
220
0.0
230
1.0
 70
    24
 71
     3
 72
    30
 73
    26
 74
     0
 42
0.00000001
 43
0.00000001
 40
0.0
 40
0.0
 40
0.0
 40
0.0
 40
0.2499999999999978
 40
0.2499999999999978
 40
0.3749999999999967
 40
0.3749999999999967
 40
0.437499999999997
 40
0.437499999999997
 40
0.4999999999999973
 40
0.4999999999999973
 40
0.5624999999999977
 40
0.5624999999999977
 40
0.5937499999999978
 40
0.5937499999999978
 40
0.624999999999998
 40
0.624999999999998
 40
0.6562499999999981
 40
0.6562499999999981
 40
0.6874999999999983
 40
0.6874999999999983
 40
0.7499999999999987
 40
0.7499999999999987
 40
0.8749999999999993
 40
0.8749999999999993
 40
1.0
 40
1.0
 40
1.0
 40
1.0
 10
101.0566757887453
 20
66.23029770749768
 30
0.0
 10
101.0566757887453
 20
65.79252201174643
 30
0.0
 10
101.0566757887453
 20
65.33556002784674
 30
0.0
 10
101.0566757887453
 20
64.57968423926248
 30
0.0
 10
101.0566757887453
 20
64.3169612601381
 30
0.0
 10
101.0566757887453
 20
63.89249388363692
 30
0.0
 10
101.0566757887445
 20
63.74508332725089
 30
0.0
 10
101.0566757887445
 20
63.43668744493476
 30
0.0
 10
101.0566757887453
 20
63.27472450631463
 30
0.0
 10
101.0566757887453
 20
62.93460299713284
 30
0.0
 10
101.0566757887453
 20
62.75809476750416
 30
0.0
 10
101.0566757887453
 20
62.48107917520834
 30
0.0
 10
101.0566757887453
 20
62.39048677274774
 30
0.0
 10
101.0566757887453
 20
62.21332595548299
 30
0.0
 10
101.0566757887449
 20
62.1289146035381
 30
0.0
 10
101.0566757887449
 20
61.97314599111295
 30
0.0
 10
101.0566757887452
 20
61.90070414264679
 30
0.0
 10
101.0566757887452
 20
61.77018310859525
 30
0.0
 10
101.0566757887453
 20
61.71103574354825
 30
0.0
 10
101.0566757887453
 20
61.54687150912146
 30
0.0
 10
101.0566757887453
 20
61.45746613696993
 30
0.0
 10
101.0566757887453
 20
61.22409339028214
 30
0.0
 10
101.0566757887453
 20
61.11224414423906
 30
0.0
 10
101.0566757887453
 20
60.92991454419712
 30
0.0
 10
101.0566757887453
 20
60.85990882674918
 30
0.0
 10
101.0566757887453
 20
60.80169884551712
 30
0.0
  0
SPLINE
  5
7B
330
1F
100
AcDbEntity
  8
0
  6
Continuous
 62
     7
370
    25
100
AcDbSpline
210
0.0
220
0.0
230
1.0
 70
    24
 71
     3
 72
     8
 73
     4
 74
     0
 42
0.00000001
 43
0.00000001
 40
0.5317160015987175
 40
0.5317160015987175
 40
0.5317160015987175
 40
0.5317160015987175
 40
1.0485618161656
 40
1.0485618161656
 40
1.0485618161656
 40
1.0485618161656
 10
114.2008819431384
 20
66.23067493342886
 30
0.0
 10
111.0347299500899
 20
66.23067493342886
 30
0.0
 10
106.4577602368811
 20
66.23067493342886
 30
0.0
 10
101.0563258061521
 20
66.23067493342886
 30
0.0
  0
SPLINE
  5
7C
330
1F
100
AcDbEntity
  8
0
  6
Continuous
 62
     7
370
    25
100
AcDbSpline
210
0.0
220
0.0
230
1.0
 70
     8
 71
     3
 72
    30
 73
    26
 74
     0
 42
0.00000001
 43
0.00000001
 40
0.0
 40
0.0
 40
0.0
 40
0.0
 40
0.1250000000000017
 40
0.1250000000000017
 40
0.2500000000000034
 40
0.2500000000000034
 40
0.3125000000000043
 40
0.3125000000000043
 40
0.3750000000000052
 40
0.3750000000000052
 40
0.4062500000000049
 40
0.4062500000000049
 40
0.4375000000000046
 40
0.4375000000000046
 40
0.500000000000004
 40
0.500000000000004
 40
0.5625000000000034
 40
0.5625000000000034
 40
0.6250000000000028
 40
0.6250000000000028
 40
0.7500000000000019
 40
0.7500000000000019
 40
0.8750000000000009
 40
0.8750000000000009
 40
1.0
 40
1.0
 40
1.0
 40
1.0
 10
114.2014745707669
 20
60.80170421819068
 30
0.0
 10
114.5487422343688
 20
60.86095846019901
 30
0.0
 10
114.8922151838222
 20
60.93230701108051
 30
0.0
 10
115.5657548435409
 20
61.11773175746343
 30
0.0
 10
115.8964831514346
 20
61.22969934457894
 30
0.0
 10
116.3697020638511
 20
61.47055207195375
 30
0.0
 10
116.5243948860166
 20
61.56427337679131
 30
0.0
 10
116.8015435230134
 20
61.78965611843346
 30
0.0
 10
116.9244967170636
 20
61.92221724931497
 30
0.0
 10
117.0529183465293
 20
62.1570018229009
 30
0.0
 10
117.0861435470752
 20
62.24194211365607
 30
0.0
 10
117.127731116325
 20
62.415153835936
 30
0.0
 10
117.136887124276
 20
62.50586367345245
 30
0.0
 10
117.1332034919576
 20
62.77372938107181
 30
0.0
 10
117.0907865869632
 20
62.95083290794818
 30
0.0
 10
116.9671893091221
 20
63.28431239459412
 30
0.0
 10
116.8859249847605
 20
63.4427509128594
 30
0.0
 10
116.7015095787261
 20
63.74930202870968
 30
0.0
 10
116.5999431694303
 20
63.89439841844319
 30
0.0
 10
116.2782444130432
 20
64.3148306193147
 30
0.0
 10
116.0414191786703
 20
64.5755774553726
 30
0.0
 10
115.5452068902909
 20
65.07735291943688
 30
0.0
 10
115.2848372429098
 20
65.31821635317654
 30
0.0
 10
114.7517244197725
 20
65.78454254579044
 30
0.0
 10
114.4787084966092
 20
66.01008484451437
 30
0.0
 10
114.2011751492734
 20
66.23029758004796
 30
0.0
  0
SPLINE
  5
7D
330
1F
100
AcDbEntity
  8
0
  6
Continuous
 62
     7
370
    25
100
AcDbSpline
210
0.0
220
0.0
230
1.0
 70
    24
 71
     3
 72
     8
 73
     4
 74
     0
 42
0.00000001
 43
0.00000001
 40
2.102510371904772
 40
2.102510371904772
 40
2.102510371904772
 40
2.102510371904772
 40
2.619356285790351
 40
2.619356285790351
 40
2.619356285790351
 40
2.619356285790351
 10
64.64710184268598
 20
66.23067493342886
 30
0.0
 10
59.27550113110783
 20
66.23067493342886
 30
0.0
 10
54.74153784131982
 20
66.23067493342886
 30
0.0
 10
51.6265223772732
 20
66.23067493342886
 30
0.0
  0
SPLINE
  5
7E
330
1F
100
AcDbEntity
  8
0
  6
Continuous
 62
     7
370
    25
100
AcDbSpline
210
0.0
220
0.0
230
1.0
 70
    24
 71
     3
 72
    30
 73
    26
 74
     0
 42
0.00000001
 43
0.00000001
 40
0.0
 40
0.0
 40
0.0
 40
0.0
 40
0.1249999999999981
 40
0.1249999999999981
 40
0.2499999999999963
 40
0.2499999999999963
 40
0.3124999999999953
 40
0.3124999999999953
 40
0.3749999999999944
 40
0.3749999999999944
 40
0.4062499999999947
 40
0.4062499999999947
 40
0.4374999999999949
 40
0.4374999999999949
 40
0.4687499999999952
 40
0.4687499999999952
 40
0.4999999999999954
 40
0.4999999999999954
 40
0.5624999999999963
 40
0.5624999999999963
 40
0.6249999999999971
 40
0.6249999999999971
 40
0.7499999999999974
 40
0.7499999999999974
 40
1.0
 40
1.0
 40
1.0
 40
1.0
 10
64.64673147943208
 20
60.80170420100921
 30
0.0
 10
64.64673147943208
 20
60.85968439263636
 30
0.0
 10
64.64673147943208
 20
60.92933573633556
 30
0.0
 10
64.64673147943208
 20
61.10987876143916
 30
0.0
 10
64.6467314794321
 20
61.21873285261294
 30
0.0
 10
64.6467314794321
 20
61.4524310624036
 30
0.0
 10
64.64673147943208
 20
61.54213934262015
 30
0.0
 10
64.64673147943206
 20
61.76022235260341
 30
0.0
 10
64.64673147943205
 20
61.88841857029157
 30
0.0
 10
64.64673147943205
 20
62.12450976613339
 30
0.0
 10
64.64673147943206
 20
62.20794280832038
 30
0.0
 10
64.64673147943206
 20
62.38566132875941
 30
0.0
 10
64.64673147943245
 20
62.47817387257926
 30
0.0
 10
64.64673147943243
 20
62.66253845127952
 30
0.0
 10
64.64673147943212
 20
62.75563585794804
 30
0.0
 10
64.64673147943212
 20
62.93512836441136
 30
0.0
 10
64.64673147943208
 20
63.02275899473432
 30
0.0
 10
64.64673147943208
 20
63.28103284774902
 30
0.0
 10
64.64673147943206
 20
63.44267430279131
 30
0.0
 10
64.64673147943206
 20
63.75084375600669
 30
0.0
 10
64.64673147943206
 20
63.89851570210993
 30
0.0
 10
64.64673147943205
 20
64.32576268593134
 30
0.0
 10
64.64673147943206
 20
64.58711087571093
 30
0.0
 10
64.64673147943206
 20
65.33780967715819
 30
0.0
 10
64.64673147943205
 20
65.79342057364914
 30
0.0
 10
64.64673147943205
 20
66.23028021630398
 30
0.0
  0
SPLINE
  5
7F
330
1F
100
AcDbEntity
  8
0
  6
Continuous
 62
     7
370
    25
100
AcDbSpline
210
0.0
220
0.0
230
1.0
 70
     8
 71
     3
 72
    16
 73
    12
 74
     0
 42
0.00000001
 43
0.00000001
 40
0.0
 40
0.0
 40
0.0
 40
0.0
 40
0.2500000000000001
 40
0.2500000000000001
 40
0.5000000000000002
 40
0.5000000000000002
 40
0.6250000000000002
 40
0.6250000000000002
 40
0.7500000000000003
 40
0.7500000000000003
 40
1.0
 40
1.0
 40
1.0
 40
1.0
 10
64.64673149899134
 20
60.80170420006618
 30
0.0
 10
63.2767241218259
 20
60.80198607000394
 30
0.0
 10
61.96500343158355
 20
60.80262228763016
 30
0.0
 10
59.49346440775965
 20
60.80356980227012
 30
0.0
 10
58.32925320952495
 20
60.80388310700231
 30
0.0
 10
56.68821969780921
 20
60.80386749944904
 30
0.0
 10
56.15765696284583
 20
60.80378622420856
 30
0.0
 10
55.13816124320424
 20
60.80349642605424
 30
0.0
 10
54.64973614371001
 20
60.80328864428728
 30
0.0
 10
53.24705764698352
 20
60.80257676804927
 30
0.0
 10
52.39515179763681
 20
60.80196757052419
 30
0.0
 10
51.62595116106385
 20
60.80169885797353
 30
0.0
  0
SPLINE
  5
80
330
1F
100
AcDbEntity
  8
0
  6
Continuous
 62
     7
370
    25
100
AcDbSpline
210
0.0
220
0.0
230
1.0
 70
     8
 71
     3
 72
    30
 73
    26
 74
     0
 42
0.00000001
 43
0.00000001
 40
0.0
 40
0.0
 40
0.0
 40
0.0
 40
0.2499999999999968
 40
0.2499999999999968
 40
0.3749999999999961
 40
0.3749999999999961
 40
0.4374999999999956
 40
0.4374999999999956
 40
0.4999999999999951
 40
0.4999999999999951
 40
0.5624999999999947
 40
0.5624999999999947
 40
0.5937499999999946
 40
0.5937499999999946
 40
0.6249999999999944
 40
0.6249999999999944
 40
0.6562499999999944
 40
0.6562499999999944
 40
0.6874999999999943
 40
0.6874999999999943
 40
0.7499999999999963
 40
0.7499999999999963
 40
0.8749999999999981
 40
0.8749999999999981
 40
1.0
 40
1.0
 40
1.0
 40
1.0
 10
51.62623880953281
 20
66.2303144240775
 30
0.0
 10
51.07393660063323
 20
65.78965086911751
 30
0.0
 10
50.53829699389227
 20
65.33038422505794
 30
0.0
 10
49.79467808350539
 20
64.57467487724433
 30
0.0
 10
49.55758653249154
 20
64.31218635888308
 30
0.0
 10
49.23719328013896
 20
63.89084980475376
 30
0.0
 10
49.13585561772929
 20
63.74491818344395
 30
0.0
 10
48.95453367636023
 20
63.44149127956103
 30
0.0
 10
48.87424910151871
 20
63.28438944673838
 30
0.0
 10
48.75115908895958
 20
62.95072315948751
 30
0.0
 10
48.709711904499
 20
62.77731197715128
 30
0.0
 10
48.70505018009064
 20
62.51094857189752
 30
0.0
 10
48.71329186786436
 20
62.42315950459091
 30
0.0
 10
48.75319182019161
 20
62.24996886554415
 30
0.0
 10
48.78492155893626
 20
62.16630518845576
 30
0.0
 10
48.86764609031749
 20
62.01058248917541
 30
0.0
 10
48.91947625500905
 20
61.93686845617827
 30
0.0
 10
49.03463914784765
 20
61.80313727990274
 30
0.0
 10
49.09822179514352
 20
61.74227064596626
 30
0.0
 10
49.30227982464003
 20
61.5729758488576
 30
0.0
 10
49.45362369392583
 20
61.47949858541863
 30
0.0
 10
49.92096980469871
 20
61.23722653724307
 30
0.0
 10
50.2573950342431
 20
61.12130106933368
 30
0.0
 10
50.93444715846611
 20
60.93316468189421
 30
0.0
 10
51.27863289223237
 20
60.86128991259589
 30
0.0
 10
51.62595116630163
 20
60.80169885880328
 30
0.0
  0
LINE
  5
81
330
1F
100
AcDbEntity
  8
0
  6
Continuous
 62
     7
370
    25
100
AcDbLine
 10
114.2014745656
 20
56.6537590854
 30
0.0
 11
114.201474571
 21
60.8017042173
 31
0.0
  0
SPLINE
  5
82
330
1F
100
AcDbEntity
  8
0
  6
Continuous
 62
     7
370
    25
100
AcDbSpline
210
0.0
220
0.0
230
1.0
 70
     8
 71
     3
 72
    26
 73
    22
 74
     0
 42
0.00000001
 43
0.00000001
 40
0.0
 40
0.0
 40
0.0
 40
0.0
 40
0.1250000000000013
 40
0.1250000000000013
 40
0.2500000000000027
 40
0.2500000000000027
 40
0.3750000000000035
 40
0.3750000000000035
 40
0.4375000000000036
 40
0.4375000000000036
 40
0.5000000000000037
 40
0.5000000000000037
 40
0.6250000000000024
 40
0.6250000000000024
 40
0.687500000000002
 40
0.687500000000002
 40
0.7500000000000016
 40
0.7500000000000016
 40
0.8750000000000008
 40
0.8750000000000008
 40
1.0
 40
1.0
 40
1.0
 40
1.0
 10
116.8136082458554
 20
50.99765048813611
 30
0.0
 10
116.6797533693473
 20
50.99765048813611
 30
0.0
 10
116.5424400918663
 20
51.03260264339943
 30
0.0
 10
116.2615349850634
 20
51.16785866584242
 30
0.0
 10
116.1173597489512
 20
51.26870515293204
 30
0.0
 10
115.8262244989562
 20
51.53656592277377
 30
0.0
 10
115.6823691133671
 20
51.70047017135497
 30
0.0
 10
115.4708204195175
 20
51.99078289133834
 30
0.0
 10
115.40101957507
 20
52.09501762259912
 30
0.0
 10
115.2632732107685
 20
52.31903202657892
 30
0.0
 10
115.1949610087909
 20
52.43953941924848
 30
0.0
 10
114.9967381198001
 20
52.82004006890627
 30
0.0
 10
114.8737111154543
 20
53.09777002402277
 30
0.0
 10
114.7060574280886
 20
53.55209351368556
 30
0.0
 10
114.6530073992796
 20
53.70986916667852
 30
0.0
 10
114.5534268518938
 20
54.03902267195176
 30
0.0
 10
114.506683196079
 20
54.21149472735003
 30
0.0
 10
114.3810760814939
 20
54.7372701870713
 30
0.0
 10
114.3156008526112
 20
55.10168819824033
 30
0.0
 10
114.2256234590869
 20
55.8598582280738
 30
0.0
 10
114.2014745656183
 20
56.2568553045684
 30
0.0
 10
114.2014745656183
 20
56.65375908542118
 30
0.0
  0
SPLINE
  5
83
330
1F
100
AcDbEntity
  8
0
  6
Continuous
 62
     7
370
    25
100
AcDbSpline
210
0.0
220
0.0
230
1.0
 70
     8
 71
     3
 72
    22
 73
    18
 74
     0
 42
0.00000001
 43
0.00000001
 40
0.0
 40
0.0
 40
0.0
 40
0.0
 40
0.1249999999999998
 40
0.1249999999999998
 40
0.2499999999999997
 40
0.2499999999999997
 40
0.3749999999999995
 40
0.3749999999999995
 40
0.4999999999999993
 40
0.4999999999999993
 40
0.6249999999999991
 40
0.6249999999999991
 40
0.7499999999999994
 40
0.7499999999999994
 40
0.8749999999999997
 40
0.8749999999999997
 40
1.0
 40
1.0
 40
1.0
 40
1.0
 10
101.0566757887453
 20
56.65375908542117
 30
0.0
 10
101.0566757887453
 20
56.26720908023479
 30
0.0
 10
101.0190425402136
 20
55.88840292530179
 30
0.0
 10
100.872668656373
 20
55.14532505786574
 30
0.0
 10
100.7619288762336
 20
54.77770707599343
 30
0.0
 10
100.4791614146146
 20
54.08783836759136
 30
0.0
 10
100.3071684026244
 20
53.76222043643515
 30
0.0
 10
99.9028152031991
 20
53.14796237144785
 30
0.0
 10
99.67504672296639
 20
52.8667002597149
 30
0.0
 10
99.17545081375003
 20
52.35724285106279
 30
0.0
 10
98.89995819419492
 20
52.1262240260651
 30
0.0
 10
98.31722474353383
 20
51.72736385575735
 30
0.0
 10
98.01069558382322
 20
51.55898160373881
 30
0.0
 10
97.36650083712242
 20
51.28355247733906
 30
0.0
 10
97.02640380792224
 20
51.17653653278826
 30
0.0
 10
96.33721975984014
 20
51.03434170033031
 30
0.0
 10
95.98572364076712
 20
50.9976504881361
 30
0.0
 10
95.62681153535158
 20
50.99765048813611
 30
0.0
  0
LINE
  5
84
330
1F
100
AcDbEntity
  8
0
  6
Continuous
 62
     7
370
    25
100
AcDbLine
 10
101.0566757795
 20
60.8016988446
 30
0.0
 11
101.0566757887
 21
56.6537590854
 31
0.0
  0
LINE
  5
85
330
1F
100
AcDbEntity
  8
0
  6
Continuous
 62
     7
370
    25
100
AcDbLine
 10
51.6259511661
 20
60.801698858
 30
0.0
 11
51.6259511711
 21
56.6537590854
 31
0.0
  0
SPLINE
  5
86
330
1F
100
AcDbEntity
  8
0
  6
Continuous
 62
     7
370
    25
100
AcDbSpline
210
0.0
220
0.0
230
1.0
 70
     8
 71
     3
 72
    22
 73
    18
 74
     0
 42
0.00000001
 43
0.00000001
 40
0.0
 40
0.0
 40
0.0
 40
0.0
 40
0.1250000000000001
 40
0.1250000000000001
 40
0.2500000000000002
 40
0.2500000000000002
 40
0.3750000000000003
 40
0.3750000000000003
 40
0.5000000000000004
 40
0.5000000000000004
 40
0.6250000000000006
 40
0.6250000000000006
 40
0.7500000000000007
 40
0.7500000000000007
 40
0.8750000000000003
 40
0.8750000000000003
 40
1.0
 40
1.0
 40
1.0
 40
1.0
 10
51.62595117111703
 20
56.65375908542117
 30
0.0
 10
51.62595117111702
 20
56.25879304303344
 30
0.0
 10
51.60326030511081
 20
55.87224821101302
 30
0.0
 10
51.51630886129681
 20
55.11490013486894
 30
0.0
 10
51.45095541539472
 20
54.74143218036311
 30
0.0
 10
51.28854433537539
 20
54.04436247830068
 30
0.0
 10
51.19090591371514
 20
53.71528387620906
 30
0.0
 10
50.96971988033363
 20
53.10057432051878
 30
0.0
 10
50.84894132241654
 20
52.82209435908628
 30
0.0
 10
50.59222717293792
 20
52.3172886660287
 30
0.0
 10
50.45521492267316
 20
52.0900137090379
 30
0.0
 10
50.17862487281305
 20
51.70114386772396
 30
0.0
 10
50.03816355700283
 20
51.53736935661054
 30
0.0
 10
49.75522609634645
 20
51.27032675240154
 30
0.0
 10
49.61330434341707
 20
51.16824755108249
 30
0.0
 10
49.338706429741
 20
51.03255574839095
 30
0.0
 10
49.20477608573974
 20
50.99765048813611
 30
0.0
 10
49.07452121328716
 20
50.99765048813611
 30
0.0
  0
SPLINE
  5
87
330
1F
100
AcDbEntity
  8
0
  6
Continuous
 62
     7
370
    25
100
AcDbSpline
210
0.0
220
0.0
230
1.0
 70
     8
 71
     3
 72
    26
 73
    22
 74
     0
 42
0.00000001
 43
0.00000001
 40
0.0
 40
0.0
 40
0.0
 40
0.0
 40
0.1250000000000002
 40
0.1250000000000002
 40
0.1875
 40
0.1875
 40
0.2499999999999998
 40
0.2499999999999998
 40
0.3749999999999994
 40
0.3749999999999994
 40
0.4999999999999996
 40
0.4999999999999996
 40
0.6249999999999997
 40
0.6249999999999997
 40
0.7499999999999997
 40
0.7499999999999997
 40
0.8749999999999998
 40
0.8749999999999998
 40
0.9374999999999999
 40
0.9374999999999999
 40
1.0
 40
1.0
 40
1.0
 40
1.0
 10
70.07659573282574
 20
50.99765048813611
 30
0.0
 10
69.71769671974646
 20
50.99765048813611
 30
0.0
 10
69.36719401435121
 20
51.03432968152668
 30
0.0
 10
68.85299199953896
 20
51.14012933872804
 30
0.0
 10
68.68352831995112
 20
51.18392886920154
 30
0.0
 10
68.34842925911332
 20
51.28867343834482
 30
0.0
 10
68.18197507694957
 20
51.35000239006482
 30
0.0
 10
67.69614663508902
 20
51.55710661981974
 30
0.0
 10
67.3895763844434
 20
51.725482379508
 30
0.0
 10
66.80925075296312
 20
52.12181842851928
 30
0.0
 10
66.53292285608397
 20
52.35272898525113
 30
0.0
 10
66.03169573014503
 20
52.86275772290104
 30
0.0
 10
65.80579777801692
 20
53.1414671427853
 30
0.0
 10
65.40414594503848
 20
53.74884130945121
 30
0.0
 10
65.22735748551545
 20
54.08150347763576
 30
0.0
 10
64.94393465208012
 20
54.77048244355346
 30
0.0
 10
64.83484550078022
 20
55.12921343669282
 30
0.0
 10
64.72293608988947
 20
55.69035035307515
 30
0.0
 10
64.69429395952214
 20
55.88218523713967
 30
0.0
 10
64.6562961180287
 20
56.26654888107831
 30
0.0
 10
64.64673147943205
 20
56.45967464520579
 30
0.0
 10
64.64673147943206
 20
56.65375908542118
 30
0.0
  0
LINE
  5
88
330
1F
100
AcDbEntity
  8
0
  6
Continuous
 62
     7
370
    25
100
AcDbLine
 10
64.6467314794
 20
56.6537590854
 30
0.0
 11
64.6467314892
 21
60.8017042001
 31
0.0
  0
SPLINE
  5
89
330
1F
100
AcDbEntity
  8
0
  6
Continuous
 62
     7
370
    25
100
AcDbSpline
210
0.0
220
0.0
230
1.0
 70
     8
 71
     3
 72
    22
 73
    18
 74
     0
 42
0.00000001
 43
0.00000001
 40
0.0
 40
0.0
 40
0.0
 40
0.0
 40
0.125
 40
0.125
 40
0.25
 40
0.25
 40
0.375
 40
0.375
 40
0.5
 40
0.5
 40
0.625
 40
0.625
 40
0.75
 40
0.75
 40
0.875
 40
0.875
 40
1.0
 40
1.0
 40
1.0
 40
1.0
 10
114.374048828883
 20
56.65375908542117
 30
0.0
 10
114.374048828883
 20
56.25879304303344
 30
0.0
 10
114.3967396948892
 20
55.87224821101302
 30
0.0
 10
114.4836911387032
 20
55.11490013486894
 30
0.0
 10
114.5490445846053
 20
54.74143218036311
 30
0.0
 10
114.7114556646246
 20
54.04436247830068
 30
0.0
 10
114.8090940862849
 20
53.71528387620906
 30
0.0
 10
115.0302801196664
 20
53.10057432051877
 30
0.0
 10
115.1510586775835
 20
52.82209435908628
 30
0.0
 10
115.4077728270621
 20
52.3172886660287
 30
0.0
 10
115.5447850773268
 20
52.09001370903789
 30
0.0
 10
115.821375127187
 20
51.70114386772396
 30
0.0
 10
115.9618364429972
 20
51.53736935661053
 30
0.0
 10
116.2447739036536
 20
51.27032675240154
 30
0.0
 10
116.3866956565829
 20
51.16824755108249
 30
0.0
 10
116.661293570259
 20
51.03255574839095
 30
0.0
 10
116.7952239142603
 20
50.9976504881361
 30
0.0
 10
116.9254787867129
 20
50.99765048813611
 30
0.0
  0
LINE
  5
8A
330
1F
100
AcDbEntity
  8
0
  6
Continuous
 62
     7
370
    25
100
AcDbLine
 10
64.755469243
 20
66.2306749334
 30
0.0
 11
64.9433242113
 21
66.2306749334
 31
0.0
  0
SPLINE
  5
8B
330
1F
100
AcDbEntity
  8
0
  6
Continuous
 62
     7
370
    25
100
AcDbSpline
210
0.0
220
0.0
230
1.0
 70
    24
 71
     3
 72
     8
 73
     4
 74
     0
 42
0.00000001
 43
0.00000001
 40
0.0
 40
0.0
 40
0.0
 40
0.0
 40
1.0
 40
1.0
 40
1.0
 40
1.0
 10
64.9433242112548
 20
56.65375908542118
 30
0.0
 10
64.9433242112548
 20
59.61821007007602
 30
0.0
 10
64.9433242112548
 20
62.79904017391358
 30
0.0
 10
64.9433242112548
 20
66.23067493342886
 30
0.0
  0
SPLINE
  5
8C
330
1F
100
AcDbEntity
  8
0
  6
Continuous
 62
     7
370
    25
100
AcDbSpline
210
0.0
220
0.0
230
1.0
 70
     8
 71
     3
 72
    26
 73
    22
 74
     0
 42
0.00000001
 43
0.00000001
 40
0.0
 40
0.0
 40
0.0
 40
0.0
 40
0.1249999999999998
 40
0.1249999999999998
 40
0.1875
 40
0.1875
 40
0.2500000000000002
 40
0.2500000000000002
 40
0.3750000000000004
 40
0.3750000000000004
 40
0.4375000000000001
 40
0.4375000000000001
 40
0.4999999999999998
 40
0.4999999999999998
 40
0.6249999999999999
 40
0.6249999999999999
 40
0.7499999999999999
 40
0.7499999999999999
 40
0.875
 40
0.875
 40
1.0
 40
1.0
 40
1.0
 40
1.0
 10
70.37318846464846
 20
50.99765048813611
 30
0.0
 10
70.03335525379356
 20
50.99765048813611
 30
0.0
 10
69.69686652696481
 20
51.03057360843049
 30
0.0
 10
69.1966836639063
 20
51.12918722157519
 30
0.0
 10
69.0307136045821
 20
51.1703185624825
 30
0.0
 10
68.70019494809557
 20
51.26983250979907
 30
0.0
 10
68.53472521242287
 20
51.32861684079087
 30
0.0
 10
68.04796815751595
 20
51.52958250934449
 30
0.0
 10
67.7371447280685
 20
51.69520199387399
 30
0.0
 10
67.2909670353263
 20
51.99358720544922
 30
0.0
 10
67.1456069356601
 20
52.10144048150132
 30
0.0
 10
66.8618668028588
 20
52.33532808198484
 30
0.0
 10
66.72299023678615
 20
52.46203342869344
 30
0.0
 10
66.32864988479663
 20
52.86069819870239
 30
0.0
 10
66.09149973555218
 20
53.15362719343013
 30
0.0
 10
65.67123029031794
 20
53.79820540454013
 30
0.0
 10
65.49569856531909
 20
54.13909950746493
 30
0.0
 10
65.21561048660641
 20
54.84442081443559
 30
0.0
 10
65.11052627791973
 20
55.21298840215574
 30
0.0
 10
64.97550811977361
 20
55.93679569053645
 30
0.0
 10
64.94332421125473
 20
56.29914208182085
 30
0.0
 10
64.94332421125475
 20
56.65375908542116
 30
0.0
  0
LINE
  5
8D
330
1F
100
AcDbEntity
  8
0
  6
Continuous
 62
     7
370
    25
100
AcDbLine
 10
114.2570344078
 20
66.2306749334
 30
0.0
 11
114.3740488289
 21
66.2306749334
 31
0.0
  0
SPLINE
  5
8E
330
1F
100
AcDbEntity
  8
0
  6
Continuous
 62
     7
370
    25
100
AcDbSpline
210
0.0
220
0.0
230
1.0
 70
     8
 71
     3
 72
    30
 73
    26
 74
     0
 42
0.00000001
 43
0.00000001
 40
0.0
 40
0.0
 40
0.0
 40
0.0
 40
0.2499999999999973
 40
0.2499999999999973
 40
0.374999999999996
 40
0.374999999999996
 40
0.4374999999999961
 40
0.4374999999999961
 40
0.4999999999999962
 40
0.4999999999999962
 40
0.5624999999999963
 40
0.5624999999999963
 40
0.5937499999999962
 40
0.5937499999999962
 40
0.6249999999999961
 40
0.6249999999999961
 40
0.656249999999996
 40
0.656249999999996
 40
0.6874999999999959
 40
0.6874999999999959
 40
0.7499999999999976
 40
0.7499999999999976
 40
0.8749999999999988
 40
0.8749999999999988
 40
1.0
 40
1.0
 40
1.0
 40
1.0
 10
114.3737612177833
 20
66.23031445831978
 30
0.0
 10
114.9260638746364
 20
65.78965053879719
 30
0.0
 10
115.4617039472417
 20
65.33038353566124
 30
0.0
 10
116.2053236138706
 20
64.5746736612572
 30
0.0
 10
116.4424153721675
 20
64.31218502621161
 30
0.0
 10
116.7628089899007
 20
63.89084830914746
 30
0.0
 10
116.8641467791813
 20
63.74491665003408
 30
0.0
 10
117.0454691072206
 20
63.44148946894183
 30
0.0
 10
117.1257538744357
 20
63.28438749665975
 30
0.0
 10
117.2488442643937
 20
62.95072092539021
 30
0.0
 10
117.2902915852463
 20
62.77730991684989
 30
0.0
 10
117.294953602958
 20
62.51094623843471
 30
0.0
 10
117.2867120012983
 20
62.42315708320564
 30
0.0
 10
117.2468121902229
 20
62.24996627611742
 30
0.0
 10
117.2150824926273
 20
62.16630247772312
 30
0.0
 10
117.1323579784459
 20
62.01057959681723
 30
0.0
 10
117.0805277808988
 20
61.93686548538348
 30
0.0
 10
116.9653647540369
 20
61.80313422465091
 30
0.0
 10
116.9017820070262
 20
61.74226758110316
 30
0.0
 10
116.697723592168
 20
61.57297284118221
 30
0.0
 10
116.5463794434365
 20
61.47949578908023
 30
0.0
 10
116.0790323704062
 20
61.237224561292
 30
0.0
 10
115.7426065054359
 20
61.12129992519078
 30
0.0
 10
115.0655534934559
 20
60.93316450485014
 30
0.0
 10
114.7213673968862
 20
60.86128994922355
 30
0.0
 10
114.3740488336977
 20
60.80169884675365
 30
0.0
  0
LINE
  5
8F
330
1F
100
AcDbEntity
  8
0
  6
Continuous
 62
     7
370
    25
100
AcDbLine
 10
114.3740488339
 20
60.8016988459
 30
0.0
 11
114.3740488289
 21
56.6537590854
 31
0.0
  0
SPLINE
  5
90
330
1F
100
AcDbEntity
  8
0
  6
HIDDEN
 62
     7
370
    18
100
AcDbSpline
210
0.0
220
0.0
230
1.0
 70
     8
 71
     3
 72
    28
 73
    24
 74
     0
 42
0.00000001
 43
0.00000001
 40
0.0
 40
0.0
 40
0.0
 40
0.0
 40
0.1250000000000001
 40
0.1250000000000001
 40
0.1875000000000003
 40
0.1875000000000003
 40
0.2500000000000005
 40
0.2500000000000005
 40
0.3125000000000007
 40
0.3125000000000007
 40
0.3750000000000009
 40
0.3750000000000009
 40
0.5000000000000012
 40
0.5000000000000012
 40
0.6250000000000016
 40
0.6250000000000016
 40
0.6875000000000011
 40
0.6875000000000011
 40
0.7500000000000008
 40
0.7500000000000008
 40
0.8750000000000003
 40
0.8750000000000003
 40
1.0
 40
1.0
 40
1.0
 40
1.0
 10
106.7721273556414
 20
56.65375908542118
 30
0.0
 10
106.6228451376403
 20
56.28873807833682
 30
0.0
 10
106.4979157815586
 20
55.92100294709692
 30
0.0
 10
106.3523601601316
 20
55.36450720006334
 30
0.0
 10
106.3106313414973
 20
55.17677807903453
 30
0.0
 10
106.2439953814113
 20
54.80783903369494
 30
0.0
 10
106.2189581617798
 20
54.62671751943402
 30
0.0
 10
106.185133442281
 20
54.27120107259881
 30
0.0
 10
106.1763457410304
 20
54.09680560451017
 30
0.0
 10
106.1749904287933
 20
53.75500084429868
 30
0.0
 10
106.1825870080631
 20
53.58742997365093
 30
0.0
 10
106.2278857491784
 20
53.1100284006415
 30
0.0
 10
106.2879491749975
 20
52.81907089542222
 30
0.0
 10
106.4568687765034
 20
52.29402773031834
 30
0.0
 10
106.5630798492339
 20
52.0670567536805
 30
0.0
 10
106.7469952338878
 20
51.7734046547912
 30
0.0
 10
106.8127774740548
 20
51.68309008620353
 30
0.0
 10
106.9497163202978
 20
51.52044135802255
 30
0.0
 10
107.0209659444126
 20
51.4478288549642
 30
0.0
 10
107.241832915837
 20
51.25456575148498
 30
0.0
 10
107.3991157772567
 20
51.15802414304977
 30
0.0
 10
107.7262885038666
 20
51.02934202102161
 30
0.0
 10
107.8943619371571
 20
50.99765048813611
 30
0.0
 10
108.0662434607621
 20
50.99765048813611
 30
0.0
  0
SPLINE
  5
91
330
1F
100
AcDbEntity
  8
0
  6
HIDDEN
 62
     7
370
    18
100
AcDbSpline
210
0.0
220
0.0
230
1.0
 70
     8
 71
     3
 72
    26
 73
    22
 74
     0
 42
0.00000001
 43
0.00000001
 40
0.0
 40
0.0
 40
0.0
 40
0.0
 40
0.125
 40
0.125
 40
0.2500000000000001
 40
0.2500000000000001
 40
0.3750000000000001
 40
0.3750000000000001
 40
0.5000000000000001
 40
0.5000000000000001
 40
0.6250000000000001
 40
0.6250000000000001
 40
0.6875000000000001
 40
0.6875000000000001
 40
0.7500000000000002
 40
0.7500000000000002
 40
0.8125000000000002
 40
0.8125000000000002
 40
0.8750000000000001
 40
0.8750000000000001
 40
1.0
 40
1.0
 40
1.0
 40
1.0
 10
57.7830499556799
 20
50.99765048813611
 30
0.0
 10
57.95076248562437
 20
50.99765048813611
 30
0.0
 10
58.1135778118588
 20
51.02964400947631
 30
0.0
 10
58.42837139516897
 20
51.15724084533221
 30
0.0
 10
58.58083961421123
 20
51.25317289558751
 30
0.0
 10
58.86897224463048
 20
51.51424422465821
 30
0.0
 10
59.00087363761801
 20
51.67575699761579
 30
0.0
 10
59.23478513380282
 20
52.06345374772618
 30
0.0
 10
59.33742826837455
 20
52.29116745983253
 30
0.0
 10
59.4987705895245
 20
52.81666929647925
 30
0.0
 10
59.5552568680729
 20
53.10652498462786
 30
0.0
 10
59.59646603328295
 20
53.58469991755325
 30
0.0
 10
59.60280667057044
 20
53.75258633601173
 30
0.0
 10
59.59933286260296
 20
54.09415358464779
 30
0.0
 10
59.58968640159354
 20
54.2685439680545
 30
0.0
 10
59.55448039967555
 20
54.62429966423149
 30
0.0
 10
59.52892088353871
 20
54.80566538584025
 30
0.0
 10
59.46151468194263
 20
55.17536989524069
 30
0.0
 10
59.4196819956882
 20
55.3629564255919
 30
0.0
 10
59.2742791733581
 20
55.91958222930783
 30
0.0
 10
59.15005117953483
 20
56.28784486283212
 30
0.0
 10
59.0018133213977
 20
56.65375908542118
 30
0.0
  0
SPLINE
  5
92
330
1F
100
AcDbEntity
  8
0
  6
HIDDEN
 62
     7
370
    18
100
AcDbSpline
210
0.0
220
0.0
230
1.0
 70
     8
 71
     3
 72
     8
 73
     4
 74
     0
 42
0.00000001
 43
0.00000001
 40
0.0
 40
0.0
 40
0.0
 40
0.0
 40
1.0
 40
1.0
 40
1.0
 40
1.0
 10
110.5851414908299
 20
66.23067493342886
 30
0.0
 10
109.2493187147879
 20
62.79509198988715
 30
0.0
 10
107.9829582416056
 20
59.61445135889978
 30
0.0
 10
106.7721273556414
 20
56.65375908542118
 30
0.0
  0
SPLINE
  5
93
330
1F
100
AcDbEntity
  8
0
  6
HIDDEN
 62
     7
370
    18
100
AcDbSpline
210
0.0
220
0.0
230
1.0
 70
     8
 71
     3
 72
     8
 73
     4
 74
     0
 42
0.00000001
 43
0.00000001
 40
0.0
 40
0.0
 40
0.0
 40
0.0
 40
1.0
 40
1.0
 40
1.0
 40
1.0
 10
59.00181332139764
 20
56.65375908542118
 30
0.0
 10
57.80086556536783
 20
59.61821007007602
 30
0.0
 10
56.54472943775237
 20
62.79904017391358
 30
0.0
 10
55.21981000933712
 20
66.23067493342886
 30
0.0
  0
SPLINE
  5
94
330
1F
100
AcDbEntity
  8
0
  6
HIDDEN
 62
     7
370
    18
100
AcDbSpline
210
0.0
220
0.0
230
1.0
 70
    24
 71
     3
 72
     8
 73
     4
 74
     0
 42
0.00000001
 43
0.00000001
 40
0.0
 40
0.0
 40
0.0
 40
0.0
 40
1.0
 40
1.0
 40
1.0
 40
1.0
 10
101.3532685205679
 20
66.23067493342886
 30
0.0
 10
101.3532685205679
 20
62.79509198988589
 30
0.0
 10
101.3532685205679
 20
59.61445135890087
 30
0.0
 10
101.3532685205679
 20
56.65375908542118
 30
0.0
  0
SPLINE
  5
95
330
1F
100
AcDbEntity
  8
0
  6
HIDDEN
 62
     7
370
    18
100
AcDbSpline
210
0.0
220
0.0
230
1.0
 70
     8
 71
     3
 72
     8
 73
     4
 74
     0
 42
0.00000001
 43
0.00000001
 40
0.0
 40
0.0
 40
0.0
 40
0.0
 40
1.0
 40
1.0
 40
1.0
 40
1.0
 10
106.9981866786024
 20
56.65375908542118
 30
0.0
 10
108.1991344346323
 20
59.61821007007645
 30
0.0
 10
109.455270562247
 20
62.79904017391197
 30
0.0
 10
110.7801899906629
 20
66.23067493342886
 30
0.0
  0
SPLINE
  5
96
330
1F
100
AcDbEntity
  8
0
  6
HIDDEN
 62
     7
370
    18
100
AcDbSpline
210
0.0
220
0.0
230
1.0
 70
     8
 71
     3
 72
    28
 73
    24
 74
     0
 42
0.00000001
 43
0.00000001
 40
0.0
 40
0.0
 40
0.0
 40
0.0
 40
0.1249999999999995
 40
0.1249999999999995
 40
0.249999999999999
 40
0.249999999999999
 40
0.3749999999999989
 40
0.3749999999999989
 40
0.4374999999999991
 40
0.4374999999999991
 40
0.4999999999999992
 40
0.4999999999999992
 40
0.6249999999999994
 40
0.6249999999999994
 40
0.6874999999999996
 40
0.6874999999999996
 40
0.7499999999999997
 40
0.7499999999999997
 40
0.8124999999999998
 40
0.8124999999999998
 40
0.8749999999999998
 40
0.8749999999999998
 40
1.0
 40
1.0
 40
1.0
 40
1.0
 10
108.2169500406223
 20
50.99765048813611
 30
0.0
 10
108.0492371981633
 20
50.99765048861062
 30
0.0
 10
107.8864196459441
 20
51.02964412444555
 30
0.0
 10
107.5716185585254
 20
51.15724583295951
 30
0.0
 10
107.4191325892835
 20
51.25319428067554
 30
0.0
 10
107.1310169157205
 20
51.51425784754204
 30
0.0
 10
106.9991160908275
 20
51.67576938205986
 30
0.0
 10
106.8236767579805
 20
51.96655837050376
 30
0.0
 10
106.7689677814638
 20
52.07163531334965
 30
0.0
 10
106.6683429408655
 20
52.29930980276021
 30
0.0
 10
106.6222017474191
 20
52.4226430357319
 30
0.0
 10
106.501217240551
 20
52.81673282453253
 30
0.0
 10
106.444732961092
 20
53.10658027152297
 30
0.0
 10
106.4035285548828
 20
53.58479409207057
 30
0.0
 10
106.3971917866995
 20
53.75268504263135
 30
0.0
 10
106.4006703648942
 20
54.09422041382642
 30
0.0
 10
106.4103177066177
 20
54.26860210251675
 30
0.0
 10
106.4455268906552
 20
54.62435670634539
 30
0.0
 10
106.4710886929616
 20
54.80573002050186
 30
0.0
 10
106.538505441208
 20
55.17546814967416
 30
0.0
 10
106.5803348801349
 20
55.36302627308472
 30
0.0
 10
106.7257294092547
 20
55.91960459450369
 30
0.0
 10
106.8499508626887
 20
56.28784990391022
 30
0.0
 10
106.9981866786023
 20
56.65375908542118
 30
0.0
  0
SPLINE
  5
97
330
1F
100
AcDbEntity
  8
0
  6
HIDDEN
 62
     7
370
    18
100
AcDbSpline
210
0.0
220
0.0
230
1.0
 70
     8
 71
     3
 72
    26
 73
    22
 74
     0
 42
0.00000001
 43
0.00000001
 40
0.0
 40
0.0
 40
0.0
 40
0.0
 40
0.1250000000000007
 40
0.1250000000000007
 40
0.187500000000001
 40
0.187500000000001
 40
0.2500000000000013
 40
0.2500000000000013
 40
0.3125000000000016
 40
0.3125000000000016
 40
0.3750000000000019
 40
0.3750000000000019
 40
0.5000000000000018
 40
0.5000000000000018
 40
0.6250000000000017
 40
0.6250000000000017
 40
0.7500000000000011
 40
0.7500000000000011
 40
0.8750000000000007
 40
0.8750000000000007
 40
1.0
 40
1.0
 40
1.0
 40
1.0
 10
101.3532685205679
 20
56.65375908542116
 30
0.0
 10
101.3532685205679
 20
56.29969397681263
 30
0.0
 10
101.3217270102935
 20
55.94189403956966
 30
0.0
 10
101.2208170537389
 20
55.3984686917868
 30
0.0
 10
101.1778138153119
 20
55.21499300802061
 30
0.0
 10
101.0734870650545
 20
54.85157852732055
 30
0.0
 10
101.0126105033632
 20
54.67273211177705
 30
0.0
 10
100.8732547882951
 20
54.32084675307546
 30
0.0
 10
100.7947776316507
 20
54.14780704648481
 30
0.0
 10
100.6195048985972
 20
53.80782033668578
 30
0.0
 10
100.5218616765143
 20
53.63971139602494
 30
0.0
 10
100.2084612923503
 20
53.15830523599249
 30
0.0
 10
99.97173518611739
 20
52.86491549104443
 30
0.0
 10
99.44392464663213
 20
52.33055415723307
 30
0.0
 10
99.15986243286213
 20
52.09709079733462
 30
0.0
 10
98.56128487740892
 20
51.69607833327846
 30
0.0
 10
98.24432362820998
 20
51.52769981542345
 30
0.0
 10
97.60112338827071
 20
51.26235842128639
 30
0.0
 10
97.27095687032056
 20
51.16302541357413
 30
0.0
 10
96.5987881762269
 20
51.0302740079398
 30
0.0
 10
96.26172550900915
 20
50.99765048813611
 30
0.0
 10
95.92340426717429
 20
50.99765048813611
 30
0.0
  0
SPLINE
  5
98
330
1F
100
AcDbEntity
  8
0
  6
HIDDEN
 62
     7
370
    18
100
AcDbSpline
210
0.0
220
0.0
230
1.0
 70
     8
 71
     3
 72
    28
 73
    24
 74
     0
 42
0.00000001
 43
0.00000001
 40
0.0
 40
0.0
 40
0.0
 40
0.0
 40
0.1249999999999994
 40
0.1249999999999994
 40
0.1874999999999993
 40
0.1874999999999993
 40
0.2499999999999992
 40
0.2499999999999992
 40
0.3124999999999991
 40
0.3124999999999991
 40
0.3749999999999989
 40
0.3749999999999989
 40
0.4999999999999984
 40
0.4999999999999984
 40
0.624999999999998
 40
0.624999999999998
 40
0.687499999999998
 40
0.687499999999998
 40
0.7499999999999981
 40
0.7499999999999981
 40
0.8749999999999991
 40
0.8749999999999991
 40
1.0
 40
1.0
 40
1.0
 40
1.0
 10
59.22787264435865
 20
56.65375908542118
 30
0.0
 10
59.37715486235971
 20
56.28873807833682
 30
0.0
 10
59.50208421844144
 20
55.92100294709691
 30
0.0
 10
59.64763983986841
 20
55.36450720006333
 30
0.0
 10
59.68936865850273
 20
55.17677807903453
 30
0.0
 10
59.75600461858872
 20
54.80783903369493
 30
0.0
 10
59.78104183822023
 20
54.62671751943402
 30
0.0
 10
59.81486655771898
 20
54.27120107259881
 30
0.0
 10
59.82365425896965
 20
54.09680560451016
 30
0.0
 10
59.82500957120667
 20
53.75500084429867
 30
0.0
 10
59.81741299193696
 20
53.58742997365093
 30
0.0
 10
59.77211425082162
 20
53.1100284006415
 30
0.0
 10
59.71205082500257
 20
52.81907089542222
 30
0.0
 10
59.54313122349658
 20
52.29402773031834
 30
0.0
 10
59.43692015076616
 20
52.0670567536805
 30
0.0
 10
59.25300476611223
 20
51.7734046547912
 30
0.0
 10
59.18722252594517
 20
51.68309008620353
 30
0.0
 10
59.05028367970226
 20
51.52044135802254
 30
0.0
 10
58.97903405558743
 20
51.4478288549642
 30
0.0
 10
58.75816708416305
 20
51.25456575148498
 30
0.0
 10
58.6008842227433
 20
51.15802414304977
 30
0.0
 10
58.27371149613344
 20
51.02934202102161
 30
0.0
 10
58.1056380628429
 20
50.99765048813611
 30
0.0
 10
57.93375653923788
 20
50.99765048813611
 30
0.0
  0
SPLINE
  5
99
330
1F
100
AcDbEntity
  8
0
  6
HIDDEN
 62
     7
370
    18
100
AcDbSpline
210
0.0
220
0.0
230
1.0
 70
     8
 71
     3
 72
    26
 73
    22
 74
     0
 42
0.00000001
 43
0.00000001
 40
0.0
 40
0.0
 40
0.0
 40
0.0
 40
0.1250000000000008
 40
0.1250000000000008
 40
0.2500000000000016
 40
0.2500000000000016
 40
0.3750000000000014
 40
0.3750000000000014
 40
0.4375000000000015
 40
0.4375000000000015
 40
0.5000000000000014
 40
0.5000000000000014
 40
0.6250000000000016
 40
0.6250000000000016
 40
0.6875000000000013
 40
0.6875000000000013
 40
0.750000000000001
 40
0.750000000000001
 40
0.8750000000000006
 40
0.8750000000000006
 40
1.0
 40
1.0
 40
1.0
 40
1.0
 10
49.18639175414462
 20
50.99765048813611
 30
0.0
 10
49.32024667165938
 20
50.9976504881361
 30
0.0
 10
49.45755994047273
 20
51.03260266343231
 30
0.0
 10
49.73846492291137
 20
51.16785861707055
 30
0.0
 10
49.88263973203314
 20
51.26870471810545
 30
0.0
 10
50.17377543560005
 20
51.53656581986493
 30
0.0
 10
50.31763087653029
 20
51.70047017501398
 30
0.0
 10
50.52917942147158
 20
51.99078266436275
 30
0.0
 10
50.5989801775053
 20
52.09501725378136
 30
0.0
 10
50.73672629184187
 20
52.31903118411883
 30
0.0
 10
50.80503829898577
 20
52.43953814066105
 30
0.0
 10
51.00326184550783
 20
52.82003990196001
 30
0.0
 10
51.12628899533794
 20
53.09777030531028
 30
0.0
 10
51.29394260120669
 20
53.55209360254639
 30
0.0
 10
51.3469925529804
 20
53.7098690463758
 30
0.0
 10
51.4465728782527
 20
54.0390217424807
 30
0.0
 10
51.49331656091307
 20
54.21149374671911
 30
0.0
 10
51.61892410209027
 20
54.73727088239225
 30
0.0
 10
51.68439931098713
 20
55.10168934446217
 30
0.0
 10
51.77437654337068
 20
55.85985848107678
 30
0.0
 10
51.79852543438173
 20
56.25685516879179
 30
0.0
 10
51.79852543438172
 20
56.65375908542117
 30
0.0
  0
SPLINE
  5
9A
330
1F
100
AcDbEntity
  8
0
  6
HIDDEN
 62
     7
370
    18
100
AcDbSpline
210
0.0
220
0.0
230
1.0
 70
     8
 71
     3
 72
     8
 73
     4
 74
     0
 42
0.00000001
 43
0.00000001
 40
0.0
 40
0.0
 40
0.0
 40
0.0
 40
1.0
 40
1.0
 40
1.0
 40
1.0
 10
55.41485850917008
 20
66.23067493342886
 30
0.0
 10
56.75068128521263
 20
62.79509198988589
 30
0.0
 10
58.01704175839397
 20
59.61445135890087
 30
0.0
 10
59.22787264435861
 20
56.65375908542118
 30
0.0
  0
SPLINE
  5
9B
330
1F
100
AcDbEntity
  8
0
  6
HIDDEN
 62
     7
370
    18
100
AcDbSpline
210
0.0
220
0.0
230
1.0
 70
     8
 71
     3
 72
    11
 73
     7
 74
     0
 42
0.00000001
 43
0.00000001
 40
0.0
 40
0.0
 40
0.0
 40
0.0
 40
0.2625778100977546
 40
0.5251528834334465
 40
0.7887521781792195
 40
1.0
 40
1.0
 40
1.0
 40
1.0
 10
101.3532685107883
 20
60.80170420032831
 30
0.0
 10
101.9879491624637
 20
60.80188450337153
 30
0.0
 10
103.257303850747
 20
60.80224510757875
 30
0.0
 10
105.0572308781612
 20
60.80303285757261
 30
0.0
 10
106.6720528437382
 20
60.8036326535111
 30
0.0
 10
107.63636323472
 20
60.80375481314029
 30
0.0
 10
108.0653612480742
 20
60.80380915895957
 30
0.0
  0
SPLINE
  5
9C
330
1F
100
AcDbEntity
  8
0
  6
HIDDEN
 62
     7
370
    18
100
AcDbSpline
210
0.0
220
0.0
230
1.0
 70
     8
 71
     3
 72
     9
 73
     5
 74
     0
 42
0.00000001
 43
0.00000001
 40
0.0
 40
0.0
 40
0.0
 40
0.0
 40
0.4298649724164001
 40
1.0
 40
1.0
 40
1.0
 40
1.0
 10
110.5164731699694
 20
60.80351305491605
 30
0.0
 10
111.1350288940529
 20
60.80327656405099
 30
0.0
 10
112.5739824347576
 20
60.80272641253776
 30
0.0
 10
113.7204229430758
 20
60.80207196779644
 30
0.0
 10
114.3740488339088
 20
60.8016988459258
 30
0.0
  0
SPLINE
  5
9D
330
1F
100
AcDbEntity
  8
0
  6
HIDDEN
 62
     7
370
    18
100
AcDbSpline
210
0.0
220
0.0
230
1.0
 70
     8
 71
     3
 72
    10
 73
     6
 74
     0
 42
0.00000001
 43
0.00000001
 40
0.0
 40
0.0
 40
0.0
 40
0.0
 40
0.3437746607707278
 40
0.6875522265051882
 40
1.0
 40
1.0
 40
1.0
 40
1.0
 10
51.79852542895775
 20
60.80170420370331
 30
0.0
 10
52.17747913241862
 20
60.80187681301375
 30
0.0
 10
52.93538974157395
 20
60.80222203309323
 30
0.0
 10
54.16876055386387
 20
60.80299843582362
 30
0.0
 10
55.06147966652809
 20
60.8033479083191
 30
0.0
 10
55.48652893304345
 20
60.80351430223378
 30
0.0
  0
SPLINE
  5
9E
330
1F
100
AcDbEntity
  8
0
  6
HIDDEN
 62
     7
370
    18
100
AcDbSpline
210
0.0
220
0.0
230
1.0
 70
     8
 71
     3
 72
    10
 73
     6
 74
     0
 42
0.00000001
 43
0.00000001
 40
0.0
 40
0.0
 40
0.0
 40
0.0
 40
0.1293566272473652
 40
0.5621625364065743
 40
1.0
 40
1.0
 40
1.0
 40
1.0
 10
57.93505215027808
 20
60.80380911175679
 30
0.0
 10
58.20461468663977
 20
60.80380099985862
 30
0.0
 10
59.37608894648957
 20
60.803765746889
 30
0.0
 10
61.66450691963547
 20
60.80276742791342
 30
0.0
 10
63.84618239718168
 20
60.80205641055129
 30
0.0
 10
64.94332422053556
 20
60.80169884734212
 30
0.0
  0
SPLINE
  5
9F
330
1F
100
AcDbEntity
  8
0
  6
HIDDEN
 62
     7
370
    18
100
AcDbSpline
210
0.0
220
0.0
230
1.0
 70
     8
 71
     3
 72
    30
 73
    26
 74
     0
 42
0.00000001
 43
0.00000001
 40
0.0
 40
0.0
 40
0.0
 40
0.0
 40
0.1249999999999983
 40
0.1249999999999983
 40
0.2499999999999965
 40
0.2499999999999965
 40
0.3124999999999967
 40
0.3124999999999967
 40
0.3749999999999969
 40
0.3749999999999969
 40
0.406249999999997
 40
0.406249999999997
 40
0.437499999999997
 40
0.437499999999997
 40
0.4999999999999972
 40
0.4999999999999972
 40
0.5624999999999974
 40
0.5624999999999974
 40
0.6249999999999977
 40
0.6249999999999977
 40
0.7499999999999984
 40
0.7499999999999984
 40
0.8749999999999993
 40
0.8749999999999993
 40
1.0
 40
1.0
 40
1.0
 40
1.0
 10
51.79852542923395
 20
60.80170420458357
 30
0.0
 10
51.45125809313946
 20
60.86095839053131
 30
0.0
 10
51.10778558510724
 20
60.93230713780875
 30
0.0
 10
50.43424707433736
 20
61.11773273435891
 30
0.0
 10
50.10351949859739
 20
61.22970107301488
 30
0.0
 10
49.63030173879823
 20
61.4705544343684
 30
0.0
 10
49.47560911975924
 20
61.5642759461828
 30
0.0
 10
49.19846087729096
 20
61.78965872517328
 30
0.0
 10
49.07550764096494
 20
61.92221990960896
 30
0.0
 10
48.94708595055261
 20
62.15700404163029
 30
0.0
 10
48.91386062337406
 20
62.24194429890912
 30
0.0
 10
48.87227284222813
 20
62.41515583134441
 30
0.0
 10
48.86311670484424
 20
62.50586553925408
 30
0.0
 10
48.86679995546962
 20
62.77373119721348
 30
0.0
 10
48.90921660586616
 20
62.95083456059164
 30
0.0
 10
49.03281350908014
 20
63.28431402155346
 30
0.0
 10
49.11407751802774
 20
63.44275223002223
 30
0.0
 10
49.29849273410995
 20
63.74930348045645
 30
0.0
 10
49.40005904975194
 20
63.89439987577546
 30
0.0
 10
49.72175749506974
 20
64.31483200973032
 30
0.0
 10
49.95858248401039
 20
64.57557868976895
 30
0.0
 10
50.45479420283221
 20
65.0773537645953
 30
0.0
 10
50.71516353321111
 20
65.31821696947674
 30
0.0
 10
51.24827595887662
 20
65.78454289457689
 30
0.0
 10
51.52129167925389
 20
66.01008504336208
 30
0.0
 10
51.79882481991627
 20
66.23029761888493
 30
0.0
  0
LINE
  5
A0
330
1F
100
AcDbEntity
  8
0
  6
HIDDEN
 62
     7
370
    18
100
AcDbLine
 10
51.7985254344
 20
56.6537590854
 30
0.0
 11
51.798525429
 21
60.8017042037
 31
0.0
  0
SPLINE
  5
A1
330
1F
100
AcDbEntity
  8
0
  6
Continuous
 62
     7
370
    25
100
AcDbSpline
210
0.0
220
0.0
230
1.0
 70
     8
 71
     3
 72
    13
 73
     9
 74
     0
 42
0.00000001
 43
0.00000001
 40
0.0
 40
0.0
 40
0.0
 40
0.0
 40
0.1637439570762117
 40
0.3329436530168056
 40
0.5011939433703789
 40
0.6684510928890622
 40
0.8346992212382385
 40
1.0
 40
1.0
 40
1.0
 40
1.0
 10
117.2856118011486
 20
177.1857815717595
 30
0.0
 10
116.6818003347632
 20
178.3306458000741
 30
0.0
 10
115.4540591775232
 20
180.6585196660141
 30
0.0
 10
113.1835414962163
 20
183.9127851024294
 30
0.0
 10
110.6178171026814
 20
186.9707153574071
 30
0.0
 10
107.7719245013893
 20
189.736430044634
 30
0.0
 10
104.7001440818984
 20
192.2195356316537
 30
0.0
 10
102.4649210701546
 20
193.5883736002141
 30
0.0
 10
101.3505029658481
 20
194.2708369633824
 30
0.0
  0
SPLINE
  5
A2
330
1F
100
AcDbEntity
  8
0
  6
Continuous
 62
     7
370
    25
100
AcDbSpline
210
0.0
220
0.0
230
1.0
 70
     8
 71
     3
 72
    13
 73
     9
 74
     0
 42
0.00000001
 43
0.00000001
 40
0.0
 40
0.0
 40
0.0
 40
0.0
 40
0.165324599862762
 40
0.331590841784475
 40
0.4988639020782164
 40
0.6671313061616696
 40
0.836352633249415
 40
1.0
 40
1.0
 40
1.0
 40
1.0
 10
64.94506459490786
 20
194.4379014085047
 30
0.0
 10
63.82513615235924
 20
193.7656907208881
 30
0.0
 10
61.57890047230109
 20
192.417440624119
 30
0.0
 10
58.48696988369415
 20
189.962561482381
 30
0.0
 10
55.61864487964719
 20
187.2230057127853
 30
0.0
 10
53.02812477122987
 20
184.1886604278402
 30
0.0
 10
50.73174114722678
 20
180.9560879289542
 30
0.0
 10
49.48561451540085
 20
178.6404888780352
 30
0.0
 10
48.8729845333361
 20
177.5020769632244
 30
0.0
  0
SPLINE
  5
A3
330
1F
100
AcDbEntity
  8
0
  6
Continuous
 62
     7
370
    25
100
AcDbSpline
210
0.0
220
0.0
230
1.0
 70
     8
 71
     3
 72
    13
 73
     9
 74
     0
 42
0.00000001
 43
0.00000001
 40
0.0
 40
0.0
 40
0.0
 40
0.0
 40
0.1637439604527355
 40
0.3329436554017584
 40
0.5011939403867574
 40
0.6684510845175803
 40
0.8346992122382721
 40
1.0
 40
1.0
 40
1.0
 40
1.0
 10
48.71439214023287
 20
138.8142185209816
 30
0.0
 10
49.31820334543788
 20
137.6693547467198
 30
0.0
 10
50.54594395509245
 20
135.3414818353413
 30
0.0
 10
52.81646066494418
 20
132.087217812079
 30
0.0
 10
55.38218371819417
 20
129.0292887806634
 30
0.0
 10
58.22807481084035
 20
126.2635750947226
 30
0.0
 10
61.29985367289148
 20
123.7804702279355
 30
0.0
 10
63.53507558469923
 20
122.4116324751011
 30
0.0
 10
64.64949317314611
 20
121.7291691995622
 30
0.0
  0
SPLINE
  5
A4
330
1F
100
AcDbEntity
  8
0
  6
Continuous
 62
     7
370
    25
100
AcDbSpline
210
0.0
220
0.0
230
1.0
 70
     8
 71
     3
 72
    13
 73
     9
 74
     0
 42
0.00000001
 43
0.00000001
 40
0.0
 40
0.0
 40
0.0
 40
0.0
 40
0.165324597536907
 40
0.3315908459201669
 40
0.4988639169420059
 40
0.6671313309855915
 40
0.836352661844552
 40
1.0
 40
1.0
 40
1.0
 40
1.0
 10
101.0549552282169
 20
121.5621057400716
 30
0.0
 10
102.1748824691288
 20
122.2343165245788
 30
0.0
 10
104.421115798686
 20
123.5825668514646
 30
0.0
 10
107.5130430941819
 20
126.0374456351832
 30
0.0
 10
110.3813651633205
 20
128.7770005508514
 30
0.0
 10
112.971882699145
 20
131.8113444063337
 30
0.0
 10
115.2682641608428
 20
135.0439147081537
 30
0.0
 10
116.514389535318
 20
137.3595120172395
 30
0.0
 10
117.1270188378734
 20
138.4979229616935
 30
0.0
  0
SPLINE
  5
A5
330
1F
100
AcDbEntity
  8
0
  6
Continuous
 62
     7
370
    25
100
AcDbSpline
210
0.0
220
0.0
230
1.0
 70
     8
 71
     3
 72
     8
 73
     4
 74
     0
 42
0.00000001
 43
0.00000001
 40
3.673308654715603
 40
3.673308654715603
 40
3.673308654715603
 40
3.673308654715603
 40
4.19015446971571
 40
4.19015446971571
 40
4.19015446971571
 40
4.19015446971571
 10
51.79911799589297
 20
177.50001907782
 30
0.0
 10
54.96526979160902
 20
183.2073369712625
 30
0.0
 10
59.54223978342741
 20
188.0246634002738
 30
0.0
 10
64.94367420132367
 20
191.3343556951411
 30
0.0
  0
ELLIPSE
  5
A6
330
1F
100
AcDbEntity
  8
0
  6
Continuous
 62
     7
370
    25
100
AcDbEllipse
 10
83.0
 20
158.0
 30
0.0
 11
0.0
 21
-35.20360097193344
 31
0.0
210
0.0
220
0.0
230
1.0
 40
0.9411764706
 41
3.71795654475684
 42
4.125311168185454
  0
LINE
  5
A7
330
1F
100
AcDbEntity
  8
0
  6
Continuous
 62
     7
370
    25
100
AcDbLine
 10
64.9433242113
 20
187.5164518651
 30
0.0
 11
64.9433242113
 21
191.3349268807
 31
0.0
  0
LINE
  5
A8
330
1F
100
AcDbEntity
  8
0
  6
Continuous
 62
     7
370
    25
100
AcDbLine
 10
51.7985254344
 20
177.5003478031
 30
0.0
 11
55.4148585092
 21
177.5003478031
 31
0.0
  0
SPLINE
  5
A9
330
1F
100
AcDbEntity
  8
0
  6
Continuous
 62
     7
370
    25
100
AcDbSpline
210
0.0
220
0.0
230
1.0
 70
     8
 71
     3
 72
     8
 73
     4
 74
     0
 42
0.00000001
 43
0.00000001
 40
5.244103025485165
 40
5.244103025485165
 40
5.244103025485165
 40
5.244103025485165
 40
5.760948939802023
 40
5.760948939802023
 40
5.760948939802023
 40
5.760948939802023
 10
101.3528981565855
 20
191.1509753370453
 30
0.0
 10
106.7244988868636
 20
187.7869498080854
 30
0.0
 10
111.2584623958148
 20
182.9239269197512
 30
0.0
 10
114.3734776769611
 20
177.1849080166371
 30
0.0
  0
ELLIPSE
  5
AA
330
1F
100
AcDbEntity
  8
0
  6
Continuous
 62
     7
370
    25
100
AcDbEllipse
 10
83.0
 20
158.0
 30
0.0
 11
0.0
 21
-35.20360097193344
 31
0.0
210
0.0
220
0.0
230
1.0
 40
0.9411764706
 41
2.147160217961929
 42
2.554514841390548
  0
LINE
  5
AB
330
1F
100
AcDbEntity
  8
0
  6
Continuous
 62
     7
370
    25
100
AcDbLine
 10
110.7801899907
 20
177.1852180255
 30
0.0
 11
114.3740488289
 21
177.1852180255
 31
0.0
  0
LINE
  5
AC
330
1F
100
AcDbEntity
  8
0
  6
Continuous
 62
     7
370
    25
100
AcDbLine
 10
101.3532685206
 20
191.151566726
 30
0.0
 11
101.3532685206
 21
187.309212834
 31
0.0
  0
ELLIPSE
  5
AD
330
1F
100
AcDbEntity
  8
0
  6
Continuous
 62
     7
370
    25
100
AcDbEllipse
 10
83.0
 20
158.0
 30
0.0
 11
0.0
 21
-35.20360097193344
 31
0.0
210
0.0
220
0.0
230
1.0
 40
0.9411764706
 41
5.288752871551737
 42
5.696107494980353
  0
SPLINE
  5
AE
330
1F
100
AcDbEntity
  8
0
  6
Continuous
 62
     7
370
    25
100
AcDbSpline
210
0.0
220
0.0
230
1.0
 70
     8
 71
     3
 72
     8
 73
     4
 74
     0
 42
0.00000001
 43
0.00000001
 40
2.102510371904772
 40
2.102510371904772
 40
2.102510371904772
 40
2.102510371904772
 40
2.619356285790351
 40
2.619356285790351
 40
2.619356285790351
 40
2.619356285790351
 10
64.64710184268598
 20
124.8490246617882
 30
0.0
 10
59.27550113110783
 20
128.2130501976278
 30
0.0
 10
54.74153784131982
 20
133.0760732866709
 30
0.0
 10
51.6265223772732
 20
138.8150920128278
 30
0.0
  0
LINE
  5
AF
330
1F
100
AcDbEntity
  8
0
  6
Continuous
 62
     7
370
    25
100
AcDbLine
 10
55.2198100093
 20
138.8147819745
 30
0.0
 11
51.6259511711
 21
138.8147819745
 31
0.0
  0
LINE
  5
B0
330
1F
100
AcDbEntity
  8
0
  6
Continuous
 62
     7
370
    25
100
AcDbLine
 10
64.6467314794
 20
124.848433274
 30
0.0
 11
64.6467314794
 21
128.690787166
 31
0.0
  0
SPLINE
  5
B1
330
1F
100
AcDbEntity
  8
0
  6
Continuous
 62
     7
370
    25
100
AcDbSpline
210
0.0
220
0.0
230
1.0
 70
     8
 71
     3
 72
     8
 73
     4
 74
     0
 42
0.00000001
 43
0.00000001
 40
0.5317160015987175
 40
0.5317160015987175
 40
0.5317160015987175
 40
0.5317160015987175
 40
1.0485618161656
 40
1.0485618161656
 40
1.0485618161656
 40
1.0485618161656
 10
114.2008819431384
 20
138.4999809560341
 30
0.0
 10
111.0347299500899
 20
132.7926632549186
 30
0.0
 10
106.4577602368811
 20
127.9753365557281
 30
0.0
 10
101.0563258061521
 20
124.6656442926654
 30
0.0
  0
ELLIPSE
  5
B2
330
1F
100
AcDbEntity
  8
0
  6
Continuous
 62
     7
370
    25
100
AcDbEllipse
 10
83.0
 20
158.0
 30
0.0
 11
0.0
 21
-35.20360097193344
 31
0.0
210
0.0
220
0.0
230
1.0
 40
0.9411764706
 41
0.5763638911670357
 42
0.9837185145956476
  0
LINE
  5
B3
330
1F
100
AcDbEntity
  8
0
  6
Continuous
 62
     7
370
    25
100
AcDbLine
 10
101.0566757887
 20
128.4835481349
 30
0.0
 11
101.0566757887
 21
124.6650731193
 31
0.0
  0
LINE
  5
B4
330
1F
100
AcDbEntity
  8
0
  6
Continuous
 62
     7
370
    25
100
AcDbLine
 10
114.2014745656
 20
138.4996521969
 30
0.0
 11
110.5851414908
 21
138.4996521969
 31
0.0
  0
SPLINE
  5
B5
330
1F
100
AcDbEntity
  8
0
  6
Continuous
 62
     7
370
    25
100
AcDbSpline
210
0.0
220
0.0
230
1.0
 70
    24
 71
     3
 72
    12
 73
     8
 74
     0
 42
0.00000001
 43
0.00000001
 40
0.0
 40
0.0
 40
0.0
 40
0.0
 40
0.4752196241297643
 40
0.739507281802802
 40
0.8858320777142187
 40
0.9855365523671672
 40
1.0
 40
1.0
 40
1.0
 40
1.0
 10
114.3737612177833
 20
177.1852180255418
 30
0.0
 10
114.9551870781722
 20
177.1852180255417
 30
0.0
 10
115.8599659125341
 20
177.1852180255415
 30
0.0
 10
116.7953237746409
 20
177.1852180255415
 30
0.0
 10
117.1732907334302
 20
177.185218025542
 30
0.0
 10
117.3092732822302
 20
177.1852180255418
 30
0.0
 10
117.2873688853345
 20
177.1852180255418
 30
0.0
 10
117.2845939106211
 20
177.1852180255418
 30
0.0
  0
SPLINE
  5
B6
330
1F
100
AcDbEntity
  8
0
  6
Continuous
 62
     7
370
    25
100
AcDbSpline
210
0.0
220
0.0
230
1.0
 70
    24
 71
     3
 72
    12
 73
     8
 74
     0
 42
0.00000001
 43
0.00000001
 40
0.0
 40
0.0
 40
0.0
 40
0.0
 40
0.0193285846573604
 40
0.1200937704499212
 40
0.3178728370735153
 40
0.6556083051765018
 40
1.0
 40
1.0
 40
1.0
 40
1.0
 10
101.3532685205679
 20
194.2586652843834
 30
0.0
 10
101.3532685205679
 20
194.2616276253131
 30
0.0
 10
101.3532685205679
 20
194.2800334578099
 30
0.0
 10
101.3532685205679
 20
194.0957000222663
 30
0.0
 10
101.3532685205678
 20
193.5255304412056
 30
0.0
 10
101.3532685205675
 20
192.4790891813488
 30
0.0
 10
101.3532685205678
 20
191.5967476721797
 30
0.0
 10
101.3532685205679
 20
191.1512719540568
 30
0.0
  0
SPLINE
  5
B7
330
1F
100
AcDbEntity
  8
0
  6
Continuous
 62
     7
370
    25
100
AcDbSpline
210
0.0
220
0.0
230
1.0
 70
    24
 71
     3
 72
    12
 73
     8
 74
     0
 42
0.00000001
 43
0.00000001
 40
0.0
 40
0.0
 40
0.0
 40
0.0
 40
0.46431116536751
 40
0.747427698215263
 40
0.8715569507263392
 40
0.9971380067207998
 40
1.0
 40
1.0
 40
1.0
 40
1.0
 10
64.94332421125482
 20
191.3346436024969
 30
0.0
 10
64.94332421125459
 20
191.930545820007
 30
0.0
 10
64.94332421125425
 20
192.8898030078939
 30
0.0
 10
64.94332421125645
 20
193.878004521741
 30
0.0
 10
64.94332421125448
 20
194.3036266371977
 30
0.0
 10
64.94332421125488
 20
194.467800251398
 30
0.0
 10
64.94332421125482
 20
194.4354554148854
 30
0.0
 10
64.94332421125482
 20
194.4347347008784
 30
0.0
  0
SPLINE
  5
B8
330
1F
100
AcDbEntity
  8
0
  6
Continuous
 62
     7
370
    25
100
AcDbSpline
210
0.0
220
0.0
230
1.0
 70
    24
 71
     3
 72
    12
 73
     8
 74
     0
 42
0.00000001
 43
0.00000001
 40
0.0
 40
0.0
 40
0.0
 40
0.0
 40
0.0711279558130256
 40
0.223071929096921
 40
0.4570017063455027
 40
0.6967890629198413
 40
1.0
 40
1.0
 40
1.0
 40
1.0
 10
48.8760469772954
 20
177.5003478031035
 30
0.0
 10
48.88174618654152
 20
177.5003478031035
 30
0.0
 10
48.89962008136006
 20
177.5003478031035
 30
0.0
 10
49.24965509597136
 20
177.5003478031035
 30
0.0
 10
49.86494976598606
 20
177.5003478031035
 30
0.0
 10
50.75302050767426
 20
177.5003478031035
 30
0.0
 10
51.42409562292771
 20
177.5003478031035
 30
0.0
 10
51.79882481991602
 20
177.5003478031035
 30
0.0
  0
SPLINE
  5
B9
330
1F
100
AcDbEntity
  8
0
  6
Continuous
 62
     7
370
    25
100
AcDbSpline
210
0.0
220
0.0
230
1.0
 70
    24
 71
     3
 72
    12
 73
     8
 74
     0
 42
0.00000001
 43
0.00000001
 40
0.0
 40
0.0
 40
0.0
 40
0.0
 40
0.4752216693802709
 40
0.73950460649772
 40
0.8858338664762049
 40
0.9855364266752931
 40
1.0
 40
1.0
 40
1.0
 40
1.0
 10
51.62623880953281
 20
138.8147819744582
 30
0.0
 10
51.04481095367529
 20
138.8147819744583
 30
0.0
 10
50.14003618127602
 20
138.8147819744585
 30
0.0
 10
49.20467868904489
 20
138.8147819744585
 30
0.0
 10
48.82671285351478
 20
138.8147819744581
 30
0.0
 10
48.69073081851611
 20
138.8147819744582
 30
0.0
 10
48.71263486532196
 20
138.8147819744582
 30
0.0
 10
48.71540986327718
 20
138.8147819744582
 30
0.0
  0
SPLINE
  5
BA
330
1F
100
AcDbEntity
  8
0
  6
Continuous
 62
     7
370
    25
100
AcDbSpline
210
0.0
220
0.0
230
1.0
 70
    24
 71
     3
 72
    12
 73
     8
 74
     0
 42
0.00000001
 43
0.00000001
 40
0.0
 40
0.0
 40
0.0
 40
0.0
 40
0.019329553897083
 40
0.1200954657863579
 40
0.3178767009758646
 40
0.6556103376811732
 40
1.0
 40
1.0
 40
1.0
 40
1.0
 10
64.64673147943205
 20
121.7413389503663
 30
0.0
 10
64.64673147943205
 20
121.7383765819958
 30
0.0
 10
64.64673147943205
 20
121.7199712421113
 30
0.0
 10
64.64673147943206
 20
121.9043079213239
 30
0.0
 10
64.6467314794321
 20
122.4744812759228
 30
0.0
 10
64.64673147943243
 20
123.5209196420459
 30
0.0
 10
64.64673147943218
 20
124.4032553578629
 30
0.0
 10
64.64673147943205
 20
124.8487280453621
 30
0.0
  0
SPLINE
  5
BB
330
1F
100
AcDbEntity
  8
0
  6
Continuous
 62
     7
370
    25
100
AcDbSpline
210
0.0
220
0.0
230
1.0
 70
    24
 71
     3
 72
    12
 73
     8
 74
     0
 42
0.00000001
 43
0.00000001
 40
0.0
 40
0.0
 40
0.0
 40
0.0
 40
0.4643091902836975
 40
0.747430672531408
 40
0.8715559228341552
 40
0.9971327646060515
 40
1.0
 40
1.0
 40
1.0
 40
1.0
 10
101.0566757887453
 20
124.6653563914546
 30
0.0
 10
101.0566757887455
 20
124.0694559492959
 30
0.0
 10
101.0566757887458
 20
123.1101937215285
 30
0.0
 10
101.0566757887437
 20
122.1219923682443
 30
0.0
 10
101.0566757887456
 20
121.6963714144739
 30
0.0
 10
101.0566757887452
 20
121.5322018286464
 30
0.0
 10
101.0566757887453
 20
121.5645432404321
 30
0.0
 10
101.0566757887453
 20
121.5652651922933
 30
0.0
  0
SPLINE
  5
BC
330
1F
100
AcDbEntity
  8
0
  6
Continuous
 62
     7
370
    25
100
AcDbSpline
210
0.0
220
0.0
230
1.0
 70
    24
 71
     3
 72
    12
 73
     8
 74
     0
 42
0.00000001
 43
0.00000001
 40
0.0
 40
0.0
 40
0.0
 40
0.0
 40
0.0711263145236691
 40
0.2230686242641806
 40
0.4569945517252904
 40
0.696777988088451
 40
1.0
 40
1.0
 40
1.0
 40
1.0
 10
117.1239562601386
 20
138.4996521968965
 30
0.0
 10
117.1182576737154
 20
138.4996521968965
 30
0.0
 10
117.1003855845712
 20
138.4996521968965
 30
0.0
 10
116.7503581099759
 20
138.4996521968965
 30
0.0
 10
116.1350753479967
 20
138.4996521968965
 30
0.0
 10
115.2470028023224
 20
138.4996521968965
 30
0.0
 10
114.5759183241174
 20
138.4996521968965
 30
0.0
 10
114.2011751492737
 20
138.4996521968965
 30
0.0
  0
SPLINE
  5
BD
330
1F
100
AcDbEntity
  8
0
  6
Continuous
 62
     7
370
    25
100
AcDbSpline
210
0.0
220
0.0
230
1.0
 70
     8
 71
     3
 72
    28
 73
    24
 74
     0
 42
0.00000001
 43
0.00000001
 40
0.0
 40
0.0
 40
0.0
 40
0.0
 40
0.1249999999999995
 40
0.1249999999999995
 40
0.249999999999999
 40
0.249999999999999
 40
0.3749999999999989
 40
0.3749999999999989
 40
0.4374999999999991
 40
0.4374999999999991
 40
0.4999999999999992
 40
0.4999999999999992
 40
0.6249999999999994
 40
0.6249999999999994
 40
0.6874999999999996
 40
0.6874999999999996
 40
0.7499999999999997
 40
0.7499999999999997
 40
0.8124999999999998
 40
0.8124999999999998
 40
0.8749999999999998
 40
0.8749999999999998
 40
1.0
 40
1.0
 40
1.0
 40
1.0
 10
108.2169500406223
 20
171.4159872641575
 30
0.0
 10
108.0492371981633
 20
171.7718595092295
 30
0.0
 10
107.8864196459441
 20
172.1242028973721
 30
0.0
 10
107.5716185585254
 20
172.8223686430202
 30
0.0
 10
107.4191325892835
 20
173.1692850716353
 30
0.0
 10
107.1310169157205
 20
173.8525516830511
 30
0.0
 10
106.9991160908275
 20
174.1800271976117
 30
0.0
 10
106.8236767579805
 20
174.650325159445
 30
0.0
 10
106.7689677814638
 20
174.8035821003657
 30
0.0
 10
106.6683429408655
 20
175.1028053390156
 30
0.0
 10
106.6222017474191
 20
175.2495565614415
 30
0.0
 10
106.501217240551
 20
175.6724839077546
 30
0.0
 10
106.444732961092
 20
175.9270909453002
 30
0.0
 10
106.4035285548828
 20
176.266160334478
 30
0.0
 10
106.3971917866995
 20
176.3725318775514
 30
0.0
 10
106.4006703648942
 20
176.5645475080006
 30
0.0
 10
106.4103177066177
 20
176.6508748202925
 30
0.0
 10
106.4455268906552
 20
176.8046787317093
 30
0.0
 10
106.4710886929616
 20
176.8721544456023
 30
0.0
 10
106.538505441208
 20
176.988178420644
 30
0.0
 10
106.5803348801349
 20
177.0363038403802
 30
0.0
 10
106.7257294092547
 20
177.1494150478284
 30
0.0
 10
106.8499508626887
 20
177.1852180255419
 30
0.0
 10
106.9981866786023
 20
177.1852180255418
 30
0.0
  0
ELLIPSE
  5
BE
330
1F
100
AcDbEntity
  8
0
  6
Continuous
 62
     7
370
    25
100
AcDbEllipse
 10
83.0
 20
158.0
 30
0.0
 11
0.0
 21
-29.96421310155731
 31
0.0
210
0.0
220
0.0
230
1.0
 40
0.9411764706
 41
2.035025487140761
 42
2.665566736991718
  0
SPLINE
  5
BF
330
1F
100
AcDbEntity
  8
0
  6
Continuous
 62
     7
370
    25
100
AcDbSpline
210
0.0
220
0.0
230
1.0
 70
     8
 71
     3
 72
    26
 73
    22
 74
     0
 42
0.00000001
 43
0.00000001
 40
0.0
 40
0.0
 40
0.0
 40
0.0
 40
0.1250000000000007
 40
0.1250000000000007
 40
0.187500000000001
 40
0.187500000000001
 40
0.2500000000000013
 40
0.2500000000000013
 40
0.3125000000000016
 40
0.3125000000000016
 40
0.3750000000000019
 40
0.3750000000000019
 40
0.5000000000000018
 40
0.5000000000000018
 40
0.6250000000000017
 40
0.6250000000000017
 40
0.7500000000000011
 40
0.7500000000000011
 40
0.8750000000000007
 40
0.8750000000000007
 40
1.0
 40
1.0
 40
1.0
 40
1.0
 10
101.3532685205679
 20
183.257885315369
 30
0.0
 10
101.3532685205679
 20
183.104033618657
 30
0.0
 10
101.3217270102935
 20
182.9740026495125
 30
0.0
 10
101.2208170537389
 20
182.8205879106166
 30
0.0
 10
101.1778138153119
 20
182.7762012163944
 30
0.0
 10
101.0734870650545
 20
182.7040851415389
 30
0.0
 10
101.0126105033632
 20
182.6764621633642
 30
0.0
 10
100.8732547882951
 20
182.6379549662736
 30
0.0
 10
100.7947776316507
 20
182.6270699787879
 30
0.0
 10
100.6195048985972
 20
182.6221896823747
 30
0.0
 10
100.5218616765143
 20
182.628368424407
 30
0.0
 10
100.2084612923503
 20
182.6713623270919
 30
0.0
 10
99.97173518611739
 20
182.7318250091377
 30
0.0
 10
99.44392464663213
 20
182.9069690140718
 30
0.0
 10
99.15986243286213
 20
183.0193625720783
 30
0.0
 10
98.56128487740892
 20
183.2794895148085
 30
0.0
 10
98.24432362820998
 20
183.4284618502633
 30
0.0
 10
97.60112338827071
 20
183.744583466842
 30
0.0
 10
97.27095687032056
 20
183.9135271742349
 30
0.0
 10
96.5987881762269
 20
184.2663179175495
 30
0.0
 10
96.26172550900915
 20
184.4475536105921
 30
0.0
 10
95.92340426717429
 20
184.6328836770599
 30
0.0
  0
SPLINE
  5
C0
330
1F
100
AcDbEntity
  8
0
  6
Continuous
 62
     7
370
    25
100
AcDbSpline
210
0.0
220
0.0
230
1.0
 70
    24
 71
     3
 72
     8
 73
     4
 74
     0
 42
0.00000001
 43
0.00000001
 40
0.0
 40
0.0
 40
0.0
 40
0.0
 40
1.0
 40
1.0
 40
1.0
 40
1.0
 10
106.9981866786024
 20
177.1852180255418
 30
0.0
 10
108.1991344346323
 20
177.1852180255418
 30
0.0
 10
109.455270562247
 20
177.1852180255418
 30
0.0
 10
110.7801899906629
 20
177.1852180255418
 30
0.0
  0
SPLINE
  5
C1
330
1F
100
AcDbEntity
  8
0
  6
Continuous
 62
     7
370
    25
100
AcDbSpline
210
0.0
220
0.0
230
1.0
 70
    24
 71
     3
 72
     8
 73
     4
 74
     0
 42
0.00000001
 43
0.00000001
 40
0.0
 40
0.0
 40
0.0
 40
0.0
 40
1.0
 40
1.0
 40
1.0
 40
1.0
 10
101.3532685205679
 20
187.3092128340068
 30
0.0
 10
101.3532685205679
 20
185.8899011344615
 30
0.0
 10
101.3532685205679
 20
184.5443931317063
 30
0.0
 10
101.3532685205679
 20
183.257885315369
 30
0.0
  0
SPLINE
  5
C2
330
1F
100
AcDbEntity
  8
0
  6
Continuous
 62
     7
370
    25
100
AcDbSpline
210
0.0
220
0.0
230
1.0
 70
     8
 71
     3
 72
    26
 73
    22
 74
     0
 42
0.00000001
 43
0.00000001
 40
0.0
 40
0.0
 40
0.0
 40
0.0
 40
0.1249999999999998
 40
0.1249999999999998
 40
0.1875
 40
0.1875
 40
0.2500000000000002
 40
0.2500000000000002
 40
0.3750000000000004
 40
0.3750000000000004
 40
0.4375000000000001
 40
0.4375000000000001
 40
0.4999999999999998
 40
0.4999999999999998
 40
0.6249999999999999
 40
0.6249999999999999
 40
0.7499999999999999
 40
0.7499999999999999
 40
0.875
 40
0.875
 40
1.0
 40
1.0
 40
1.0
 40
1.0
 10
70.37318846464846
 20
184.7930094220901
 30
0.0
 10
70.03335525379356
 20
184.6122104746326
 30
0.0
 10
69.69686652696481
 20
184.4367219342913
 30
0.0
 10
69.1966836639063
 20
184.1823144738711
 30
0.0
 10
69.0307136045821
 20
184.0990044195878
 30
0.0
 10
68.70019494809557
 20
183.9358167636485
 30
0.0
 10
68.53472521242287
 20
183.8555039204614
 30
0.0
 10
68.04796815751595
 20
183.6244109532221
 30
0.0
 10
67.7371447280685
 20
183.4836495264993
 30
0.0
 10
67.2909670353263
 20
183.2971000556301
 30
0.0
 10
67.1456069356601
 20
183.2390559262243
 30
0.0
 10
66.8618668028588
 20
183.1326630035542
 30
0.0
 10
66.72299023678615
 20
183.0842111896671
 30
0.0
 10
66.32864988479663
 20
182.9596011557284
 30
0.0
 10
66.09149973555218
 20
182.9024210659173
 30
0.0
 10
65.67123029031794
 20
182.8505754832859
 30
0.0
 10
65.49569856531909
 20
182.8573058409073
 30
0.0
 10
65.21561048660641
 20
182.9369009969804
 30
0.0
 10
65.11052627791973
 20
183.0111296387714
 30
0.0
 10
64.97550811977361
 20
183.2147919147316
 30
0.0
 10
64.94332421125473
 20
183.3454333536567
 30
0.0
 10
64.94332421125475
 20
183.4980733460149
 30
0.0
  0
ELLIPSE
  5
C3
330
1F
100
AcDbEntity
  8
0
  6
Continuous
 62
     7
370
    25
100
AcDbEllipse
 10
83.0
 20
158.0
 30
0.0
 11
0.0
 21
-29.96421310155731
 31
0.0
210
0.0
220
0.0
230
1.0
 40
0.9411764706
 41
3.605821813789246
 42
4.236363063786628
  0
SPLINE
  5
C4
330
1F
100
AcDbEntity
  8
0
  6
Continuous
 62
     7
370
    25
100
AcDbSpline
210
0.0
220
0.0
230
1.0
 70
     8
 71
     3
 72
    28
 73
    24
 74
     0
 42
0.00000001
 43
0.00000001
 40
0.0
 40
0.0
 40
0.0
 40
0.0
 40
0.1249999999999994
 40
0.1249999999999994
 40
0.1874999999999993
 40
0.1874999999999993
 40
0.2499999999999992
 40
0.2499999999999992
 40
0.3124999999999991
 40
0.3124999999999991
 40
0.3749999999999989
 40
0.3749999999999989
 40
0.4999999999999984
 40
0.4999999999999984
 40
0.624999999999998
 40
0.624999999999998
 40
0.687499999999998
 40
0.687499999999998
 40
0.7499999999999981
 40
0.7499999999999981
 40
0.8749999999999991
 40
0.8749999999999991
 40
1.0
 40
1.0
 40
1.0
 40
1.0
 10
59.22787264435865
 20
177.5003478031035
 30
0.0
 10
59.37715486235971
 20
177.5003478031035
 30
0.0
 10
59.50208421844144
 20
177.4647257273544
 30
0.0
 10
59.64763983986841
 20
177.3517859178445
 30
0.0
 10
59.68936865850273
 20
177.3036538324868
 30
0.0
 10
59.75600461858872
 20
177.1880108509473
 30
0.0
 10
59.78104183822023
 20
177.1207266300439
 30
0.0
 10
59.81486655771898
 20
176.9672293267745
 30
0.0
 10
59.82365425896965
 20
176.881017517383
 30
0.0
 10
59.82500957120667
 20
176.68907521324
 30
0.0
 10
59.81741299193696
 20
176.5830070882671
 30
0.0
 10
59.77211425082162
 20
176.244965335602
 30
0.0
 10
59.71205082500257
 20
175.9897532380387
 30
0.0
 10
59.54313122349658
 20
175.4270256389018
 30
0.0
 10
59.43692015076616
 20
175.1276054839851
 30
0.0
 10
59.25300476611223
 20
174.6532553004479
 30
0.0
 10
59.18722252594517
 20
174.4901598026587
 30
0.0
 10
59.05028367970226
 20
174.1606278952369
 30
0.0
 10
58.97903405558743
 20
173.9938977635105
 30
0.0
 10
58.75816708416305
 20
173.4878496031442
 30
0.0
 10
58.6008842227433
 20
173.1413080542874
 30
0.0
 10
58.27371149613344
 20
172.4381269208956
 30
0.0
 10
58.1056380628429
 20
172.0853348954957
 30
0.0
 10
57.93375653923788
 20
171.7311170338727
 30
0.0
  0
SPLINE
  5
C5
330
1F
100
AcDbEntity
  8
0
  6
Continuous
 62
     7
370
    25
100
AcDbSpline
210
0.0
220
0.0
230
1.0
 70
    24
 71
     3
 72
     8
 73
     4
 74
     0
 42
0.00000001
 43
0.00000001
 40
0.0
 40
0.0
 40
0.0
 40
0.0
 40
1.0
 40
1.0
 40
1.0
 40
1.0
 10
64.9433242112548
 20
183.4980733460149
 30
0.0
 10
64.9433242112548
 20
184.7740803367967
 30
0.0
 10
64.9433242112548
 20
186.1087249723881
 30
0.0
 10
64.9433242112548
 20
187.5164518650792
 30
0.0
  0
SPLINE
  5
C6
330
1F
100
AcDbEntity
  8
0
  6
Continuous
 62
     7
370
    25
100
AcDbSpline
210
0.0
220
0.0
230
1.0
 70
    24
 71
     3
 72
     8
 73
     4
 74
     0
 42
0.00000001
 43
0.00000001
 40
0.0
 40
0.0
 40
0.0
 40
0.0
 40
1.0
 40
1.0
 40
1.0
 40
1.0
 10
55.41485850917008
 20
177.5003478031035
 30
0.0
 10
56.75068128521263
 20
177.5003478031035
 30
0.0
 10
58.01704175839397
 20
177.5003478031035
 30
0.0
 10
59.22787264435861
 20
177.5003478031035
 30
0.0
  0
ELLIPSE
  5
C7
330
1F
100
AcDbEntity
  8
0
  6
Continuous
 62
     7
370
    25
100
AcDbEllipse
 10
83.0
 20
158.0
 30
0.0
 11
0.0
 21
-29.96421310155731
 31
0.0
210
0.0
220
0.0
230
1.0
 40
0.9411764706
 41
5.176618140584139
 42
5.807159390581527
  0
SPLINE
  5
C8
330
1F
100
AcDbEntity
  8
0
  6
Continuous
 62
     7
370
    25
100
AcDbSpline
210
0.0
220
0.0
230
1.0
 70
     8
 71
     3
 72
    26
 73
    22
 74
     0
 42
0.00000001
 43
0.00000001
 40
0.0
 40
0.0
 40
0.0
 40
0.0
 40
0.1249999999999998
 40
0.1249999999999998
 40
0.1874999999999996
 40
0.1874999999999996
 40
0.2499999999999995
 40
0.2499999999999995
 40
0.3124999999999994
 40
0.3124999999999994
 40
0.3749999999999992
 40
0.3749999999999992
 40
0.4999999999999997
 40
0.4999999999999997
 40
0.6250000000000001
 40
0.6250000000000001
 40
0.75
 40
0.75
 40
0.875
 40
0.875
 40
1.0
 40
1.0
 40
1.0
 40
1.0
 10
64.64673147943206
 20
132.742114684631
 30
0.0
 10
64.64673147943206
 20
132.8959656446362
 30
0.0
 10
64.67827241809765
 20
133.0260012680034
 30
0.0
 10
64.779191968369
 20
133.1794234122323
 30
0.0
 10
64.82220450787909
 20
133.2238141181881
 30
0.0
 10
64.9265234510644
 20
133.2959194583716
 30
0.0
 10
64.98739780865655
 20
133.3235413143373
 30
0.0
 10
65.12675971730243
 20
133.3620478608655
 30
0.0
 10
65.20524523500804
 20
133.3729333425668
 30
0.0
 10
65.38055324626578
 20
133.3778092507156
 30
0.0
 10
65.47821226112234
 20
133.3716240827571
 30
0.0
 10
65.7915673067301
 20
133.3286284466663
 30
0.0
 10
66.02829008555295
 20
133.2681699991496
 30
0.0
 10
66.55619710838052
 20
133.0929871886547
 30
0.0
 10
66.84015932837015
 20
132.9806289792608
 30
0.0
 10
67.43877433151043
 20
132.7204837460986
 30
0.0
 10
67.75570759112183
 20
132.5715230729764
 30
0.0
 10
68.3988832946345
 20
132.2554129816189
 30
0.0
 10
68.72914704650287
 20
132.08641886094
 30
0.0
 10
69.40123813823898
 20
131.7336676946896
 30
0.0
 10
69.73827921342526
 20
131.5524438024905
 30
0.0
 10
70.07659573282574
 20
131.3671163229401
 30
0.0
  0
SPLINE
  5
C9
330
1F
100
AcDbEntity
  8
0
  6
Continuous
 62
     7
370
    25
100
AcDbSpline
210
0.0
220
0.0
230
1.0
 70
     8
 71
     3
 72
    26
 73
    22
 74
     0
 42
0.00000001
 43
0.00000001
 40
0.0
 40
0.0
 40
0.0
 40
0.0
 40
0.125
 40
0.125
 40
0.2500000000000001
 40
0.2500000000000001
 40
0.3750000000000001
 40
0.3750000000000001
 40
0.5000000000000001
 40
0.5000000000000001
 40
0.6250000000000001
 40
0.6250000000000001
 40
0.6875000000000001
 40
0.6875000000000001
 40
0.7500000000000002
 40
0.7500000000000002
 40
0.8125000000000002
 40
0.8125000000000002
 40
0.8750000000000001
 40
0.8750000000000001
 40
1.0
 40
1.0
 40
1.0
 40
1.0
 10
57.7830499556799
 20
144.584012743689
 30
0.0
 10
57.95076248562437
 20
144.2281411618233
 30
0.0
 10
58.1135778118588
 20
143.8758025007241
 30
0.0
 10
58.42837139516897
 20
143.1776538776512
 30
0.0
 10
58.58083961421123
 20
142.830779505017
 30
0.0
 10
58.86897224463048
 20
142.1474753657956
 30
0.0
 10
59.00087363761801
 20
141.8199982061863
 30
0.0
 10
59.23478513380282
 20
141.1929589303672
 30
0.0
 10
59.33742826837455
 20
140.891552495867
 30
0.0
 10
59.4987705895245
 20
140.327571529507
 30
0.0
 10
59.5552568680729
 20
140.0729566895172
 30
0.0
 10
59.59646603328295
 20
139.7339022226841
 30
0.0
 10
59.60280667057044
 20
139.6275274125672
 30
0.0
 10
59.59933286260296
 20
139.4354862701001
 30
0.0
 10
59.58968640159354
 20
139.3491526803088
 30
0.0
 10
59.55448039967555
 20
139.1953435629143
 30
0.0
 10
59.52892088353871
 20
139.127868946914
 30
0.0
 10
59.46151468194263
 20
139.0118493028739
 30
0.0
 10
59.4196819956882
 20
138.963712270929
 30
0.0
 10
59.2742791733581
 20
138.8505856652386
 30
0.0
 10
59.15005117953483
 20
138.8147819744582
 30
0.0
 10
59.0018133213977
 20
138.8147819744582
 30
0.0
  0
SPLINE
  5
CA
330
1F
100
AcDbEntity
  8
0
  6
Continuous
 62
     7
370
    25
100
AcDbSpline
210
0.0
220
0.0
230
1.0
 70
    24
 71
     3
 72
     8
 73
     4
 74
     0
 42
0.00000001
 43
0.00000001
 40
0.0
 40
0.0
 40
0.0
 40
0.0
 40
1.0
 40
1.0
 40
1.0
 40
1.0
 10
59.00181332139764
 20
138.8147819744582
 30
0.0
 10
57.80086556536783
 20
138.8147819744582
 30
0.0
 10
56.54472943775237
 20
138.8147819744582
 30
0.0
 10
55.21981000933712
 20
138.8147819744582
 30
0.0
  0
SPLINE
  5
CB
330
1F
100
AcDbEntity
  8
0
  6
Continuous
 62
     7
370
    25
100
AcDbSpline
210
0.0
220
0.0
230
1.0
 70
    24
 71
     3
 72
     8
 73
     4
 74
     0
 42
0.00000001
 43
0.00000001
 40
0.0
 40
0.0
 40
0.0
 40
0.0
 40
1.0
 40
1.0
 40
1.0
 40
1.0
 10
64.64673147943206
 20
128.6907871659932
 30
0.0
 10
64.64673147943206
 20
130.110098865538
 30
0.0
 10
64.64673147943206
 20
131.4556068682941
 30
0.0
 10
64.64673147943206
 20
132.742114684631
 30
0.0
  0
SPLINE
  5
CC
330
1F
100
AcDbEntity
  8
0
  6
Continuous
 62
     7
370
    25
100
AcDbSpline
210
0.0
220
0.0
230
1.0
 70
     8
 71
     3
 72
    26
 73
    22
 74
     0
 42
0.00000001
 43
0.00000001
 40
0.0
 40
0.0
 40
0.0
 40
0.0
 40
0.1250000000000008
 40
0.1250000000000008
 40
0.1875000000000012
 40
0.1875000000000012
 40
0.2500000000000017
 40
0.2500000000000017
 40
0.3750000000000025
 40
0.3750000000000025
 40
0.4375000000000024
 40
0.4375000000000024
 40
0.5000000000000024
 40
0.5000000000000024
 40
0.6250000000000018
 40
0.6250000000000018
 40
0.7500000000000012
 40
0.7500000000000012
 40
0.8750000000000006
 40
0.8750000000000006
 40
1.0
 40
1.0
 40
1.0
 40
1.0
 10
95.62681154431367
 20
131.2069905826779
 30
0.0
 10
95.96664475500036
 20
131.3877895299816
 30
0.0
 10
96.30313347734558
 20
131.5632780679375
 30
0.0
 10
96.8033163400738
 20
131.8176855281349
 30
0.0
 10
96.96928639927808
 20
131.9009955823387
 30
0.0
 10
97.29980505550459
 20
132.0641832381082
 30
0.0
 10
97.46527479103065
 20
132.144496081202
 30
0.0
 10
97.95203184563361
 20
132.3755890482251
 30
0.0
 10
98.26285527484262
 20
132.5163504747829
 30
0.0
 10
98.7090329671791
 20
132.7028999453848
 30
0.0
 10
98.85439306670196
 20
132.7609440746983
 30
0.0
 10
99.13813319920092
 20
132.8673369971811
 30
0.0
 10
99.27700976514936
 20
132.9157888109859
 30
0.0
 10
99.67135011679608
 20
133.0403988446918
 30
0.0
 10
99.90850026578272
 20
133.0975789343431
 30
0.0
 10
100.3287697104865
 20
133.1494245167176
 30
0.0
 10
100.5043014353615
 20
133.1426941590025
 30
0.0
 10
100.784389513723
 20
133.0630990028228
 30
0.0
 10
100.8894737222889
 20
132.9888703610163
 30
0.0
 10
101.0244918802716
 20
132.785208085098
 30
0.0
 10
101.0566757887454
 20
132.6545666462549
 30
0.0
 10
101.0566757887454
 20
132.5019266539851
 30
0.0
  0
ELLIPSE
  5
CD
330
1F
100
AcDbEntity
  8
0
  6
Continuous
 62
     7
370
    25
100
AcDbEllipse
 10
83.0
 20
158.0
 30
0.0
 11
0.0
 21
-29.96421310155731
 31
0.0
210
0.0
220
0.0
230
1.0
 40
0.9411764706
 41
0.4642291603771381
 42
1.094770410196822
  0
SPLINE
  5
CE
330
1F
100
AcDbEntity
  8
0
  6
Continuous
 62
     7
370
    25
100
AcDbSpline
210
0.0
220
0.0
230
1.0
 70
     8
 71
     3
 72
    28
 73
    24
 74
     0
 42
0.00000001
 43
0.00000001
 40
0.0
 40
0.0
 40
0.0
 40
0.0
 40
0.1250000000000001
 40
0.1250000000000001
 40
0.1875000000000003
 40
0.1875000000000003
 40
0.2500000000000005
 40
0.2500000000000005
 40
0.3125000000000007
 40
0.3125000000000007
 40
0.3750000000000009
 40
0.3750000000000009
 40
0.5000000000000012
 40
0.5000000000000012
 40
0.6250000000000016
 40
0.6250000000000016
 40
0.6875000000000011
 40
0.6875000000000011
 40
0.7500000000000008
 40
0.7500000000000008
 40
0.8750000000000003
 40
0.8750000000000003
 40
1.0
 40
1.0
 40
1.0
 40
1.0
 10
106.7721273556414
 20
138.4996521968965
 30
0.0
 10
106.6228451376403
 20
138.4996521968965
 30
0.0
 10
106.4979157815586
 20
138.5352742726456
 30
0.0
 10
106.3523601601316
 20
138.6482140821555
 30
0.0
 10
106.3106313414973
 20
138.6963461675132
 30
0.0
 10
106.2439953814113
 20
138.8119891490527
 30
0.0
 10
106.2189581617798
 20
138.8792733699561
 30
0.0
 10
106.185133442281
 20
139.0327706732255
 30
0.0
 10
106.1763457410304
 20
139.118982482617
 30
0.0
 10
106.1749904287933
 20
139.31092478676
 30
0.0
 10
106.1825870080631
 20
139.4169929117329
 30
0.0
 10
106.2278857491784
 20
139.755034664398
 30
0.0
 10
106.2879491749975
 20
140.0102467619613
 30
0.0
 10
106.4568687765034
 20
140.5729743610982
 30
0.0
 10
106.5630798492339
 20
140.8723945160149
 30
0.0
 10
106.7469952338878
 20
141.3467446995522
 30
0.0
 10
106.8127774740548
 20
141.5098401973413
 30
0.0
 10
106.9497163202978
 20
141.8393721047631
 30
0.0
 10
107.0209659444126
 20
142.0061022364895
 30
0.0
 10
107.241832915837
 20
142.5121503968558
 30
0.0
 10
107.3991157772567
 20
142.8586919457126
 30
0.0
 10
107.7262885038666
 20
143.5618730791044
 30
0.0
 10
107.8943619371571
 20
143.9146651045043
 30
0.0
 10
108.0662434607621
 20
144.2688829661273
 30
0.0
  0
SPLINE
  5
CF
330
1F
100
AcDbEntity
  8
0
  6
Continuous
 62
     7
370
    25
100
AcDbSpline
210
0.0
220
0.0
230
1.0
 70
    24
 71
     3
 72
     8
 73
     4
 74
     0
 42
0.00000001
 43
0.00000001
 40
0.0
 40
0.0
 40
0.0
 40
0.0
 40
1.0
 40
1.0
 40
1.0
 40
1.0
 10
101.0566757887453
 20
132.5019266539851
 30
0.0
 10
101.0566757887453
 20
131.2259196632027
 30
0.0
 10
101.0566757887453
 20
129.8912750276108
 30
0.0
 10
101.0566757887453
 20
128.4835481349208
 30
0.0
  0
SPLINE
  5
D0
330
1F
100
AcDbEntity
  8
0
  6
Continuous
 62
     7
370
    25
100
AcDbSpline
210
0.0
220
0.0
230
1.0
 70
    24
 71
     3
 72
     8
 73
     4
 74
     0
 42
0.00000001
 43
0.00000001
 40
0.0
 40
0.0
 40
0.0
 40
0.0
 40
1.0
 40
1.0
 40
1.0
 40
1.0
 10
110.5851414908299
 20
138.4996521968965
 30
0.0
 10
109.2493187147879
 20
138.4996521968965
 30
0.0
 10
107.9829582416056
 20
138.4996521968965
 30
0.0
 10
106.7721273556414
 20
138.4996521968965
 30
0.0
  0
SPLINE
  5
D1
330
1F
100
AcDbEntity
  8
0
  6
Continuous
 62
     7
370
    25
100
AcDbSpline
210
0.0
220
0.0
230
1.0
 70
     8
 71
     3
 72
    22
 73
    18
 74
     0
 42
0.00000001
 43
0.00000001
 40
0.0
 40
0.0
 40
0.0
 40
0.0
 40
0.1250000000000001
 40
0.1250000000000001
 40
0.2500000000000002
 40
0.2500000000000002
 40
0.3750000000000003
 40
0.3750000000000003
 40
0.5000000000000004
 40
0.5000000000000004
 40
0.6250000000000006
 40
0.6250000000000006
 40
0.7500000000000007
 40
0.7500000000000007
 40
0.8750000000000003
 40
0.8750000000000003
 40
1.0
 40
1.0
 40
1.0
 40
1.0
 10
51.62595117111703
 20
138.8147819744582
 30
0.0
 10
51.62595117111702
 20
138.8147819744582
 30
0.0
 10
51.60326030511081
 20
138.8565063430896
 30
0.0
 10
51.51630886129681
 20
139.0184035308475
 30
0.0
 10
51.45095541539472
 20
139.1406953507577
 30
0.0
 10
51.28854433537539
 20
139.4507478238059
 30
0.0
 10
51.19090591371514
 20
139.639612840205
 30
0.0
 10
50.96971988033363
 20
140.078972302551
 30
0.0
 10
50.84894132241654
 20
140.3239995575711
 30
0.0
 10
50.59222717293792
 20
140.8614049145868
 30
0.0
 10
50.45521492267316
 20
141.1562774963612
 30
0.0
 10
50.17862487281305
 20
141.7734544333085
 30
0.0
 10
50.03816355700283
 20
142.0974572567202
 30
0.0
 10
49.75522609634645
 20
142.7768655970414
 30
0.0
 10
49.61330434341707
 20
143.1312445695659
 30
0.0
 10
49.338706429741
 20
143.8474268611962
 30
0.0
 10
49.20477608573974
 20
144.2121735164123
 30
0.0
 10
49.07452121328716
 20
144.584012743689
 30
0.0
  0
SPLINE
  5
D2
330
1F
100
AcDbEntity
  8
0
  6
Continuous
 62
     7
370
    25
100
AcDbSpline
210
0.0
220
0.0
230
1.0
 70
     8
 71
     3
 72
    22
 73
    18
 74
     0
 42
0.00000001
 43
0.00000001
 40
0.0
 40
0.0
 40
0.0
 40
0.0
 40
0.125
 40
0.125
 40
0.25
 40
0.25
 40
0.375
 40
0.375
 40
0.5
 40
0.5
 40
0.625
 40
0.625
 40
0.75
 40
0.75
 40
0.875
 40
0.875
 40
1.0
 40
1.0
 40
1.0
 40
1.0
 10
114.374048828883
 20
177.1852180255418
 30
0.0
 10
114.374048828883
 20
177.1852180255418
 30
0.0
 10
114.3967396948892
 20
177.1434936569104
 30
0.0
 10
114.4836911387032
 20
176.9815964691525
 30
0.0
 10
114.5490445846053
 20
176.8593046492423
 30
0.0
 10
114.7114556646246
 20
176.5492521761942
 30
0.0
 10
114.8090940862849
 20
176.360387159795
 30
0.0
 10
115.0302801196664
 20
175.9210276974491
 30
0.0
 10
115.1510586775835
 20
175.6760004424289
 30
0.0
 10
115.4077728270621
 20
175.1385950854132
 30
0.0
 10
115.5447850773268
 20
174.8437225036388
 30
0.0
 10
115.821375127187
 20
174.2265455666915
 30
0.0
 10
115.9618364429972
 20
173.9025427432798
 30
0.0
 10
116.2447739036536
 20
173.2231344029586
 30
0.0
 10
116.3866956565829
 20
172.8687554304341
 30
0.0
 10
116.661293570259
 20
172.1525731388038
 30
0.0
 10
116.7952239142603
 20
171.7878264835877
 30
0.0
 10
116.9254787867129
 20
171.415987256311
 30
0.0
  0
SPLINE
  5
D3
330
1F
100
AcDbEntity
  8
0
  6
Continuous
 62
     7
370
    25
100
AcDbSpline
210
0.0
220
0.0
230
1.0
 70
     8
 71
     3
 72
    26
 73
    22
 74
     0
 42
0.00000001
 43
0.00000001
 40
0.0
 40
0.0
 40
0.0
 40
0.0
 40
0.1250000000000008
 40
0.1250000000000008
 40
0.2500000000000016
 40
0.2500000000000016
 40
0.3750000000000014
 40
0.3750000000000014
 40
0.4375000000000015
 40
0.4375000000000015
 40
0.5000000000000014
 40
0.5000000000000014
 40
0.6250000000000016
 40
0.6250000000000016
 40
0.6875000000000013
 40
0.6875000000000013
 40
0.750000000000001
 40
0.750000000000001
 40
0.8750000000000006
 40
0.8750000000000006
 40
1.0
 40
1.0
 40
1.0
 40
1.0
 10
49.18639175414462
 20
171.7311170338727
 30
0.0
 10
49.32024667165938
 20
172.1032326159686
 30
0.0
 10
49.45755994047273
 20
172.4676444712979
 30
0.0
 10
49.73846492291137
 20
173.1821377018849
 30
0.0
 10
49.88263973203314
 20
173.5335651515148
 30
0.0
 10
50.17377543560005
 20
174.2161952702684
 30
0.0
 10
50.31763087653029
 20
174.5402582408934
 30
0.0
 10
50.52917942147158
 20
175.0015341172882
 30
0.0
 10
50.5989801775053
 20
175.1511279528377
 30
0.0
 10
50.73672629184187
 20
175.4418074202922
 30
0.0
 10
50.80503829898577
 20
175.5836364406407
 30
0.0
 10
51.00326184550783
 20
175.9893992823642
 30
0.0
 10
51.12628899533794
 20
176.2334198056811
 30
0.0
 10
51.29394260120669
 20
176.5592315087583
 30
0.0
 10
51.3469925529804
 20
176.6610824127103
 30
0.0
 10
51.4465728782527
 20
176.8505030486614
 30
0.0
 10
51.49331656091307
 20
176.9384641829193
 30
0.0
 10
51.61892410209027
 20
177.1730837761797
 30
0.0
 10
51.68439931098713
 20
177.2929524089009
 30
0.0
 10
51.77437654337068
 20
177.4568931558942
 30
0.0
 10
51.79852543438173
 20
177.5003478031035
 30
0.0
 10
51.79852543438172
 20
177.5003478031035
 30
0.0
  0
SPLINE
  5
D4
330
1F
100
AcDbEntity
  8
0
  6
Continuous
 62
     7
370
    25
100
AcDbSpline
210
0.0
220
0.0
230
1.0
 70
     8
 71
     3
 72
    26
 73
    22
 74
     0
 42
0.00000001
 43
0.00000001
 40
0.0
 40
0.0
 40
0.0
 40
0.0
 40
0.1250000000000013
 40
0.1250000000000013
 40
0.2500000000000027
 40
0.2500000000000027
 40
0.3750000000000035
 40
0.3750000000000035
 40
0.4375000000000036
 40
0.4375000000000036
 40
0.5000000000000037
 40
0.5000000000000037
 40
0.6250000000000024
 40
0.6250000000000024
 40
0.687500000000002
 40
0.687500000000002
 40
0.7500000000000016
 40
0.7500000000000016
 40
0.8750000000000008
 40
0.8750000000000008
 40
1.0
 40
1.0
 40
1.0
 40
1.0
 10
116.8136082458554
 20
144.2688829661273
 30
0.0
 10
116.6797533693473
 20
143.8967674980295
 30
0.0
 10
116.5424400918663
 20
143.5323556088093
 30
0.0
 10
116.2615349850634
 20
142.8178620661934
 30
0.0
 10
116.1173597489512
 20
142.4664336137846
 30
0.0
 10
115.8262244989562
 20
141.7838045940417
 30
0.0
 10
115.6823691133671
 20
141.4597417316915
 30
0.0
 10
115.4708204195175
 20
140.998465538686
 30
0.0
 10
115.40101957507
 20
140.8488715167552
 30
0.0
 10
115.2632732107685
 20
140.5581915383665
 30
0.0
 10
115.1949610087909
 20
140.4163621329978
 30
0.0
 10
114.9967381198001
 20
140.010600665387
 30
0.0
 10
114.8737111154543
 20
139.7665804113062
 30
0.0
 10
114.7060574280886
 20
139.4407685473342
 30
0.0
 10
114.6530073992796
 20
139.3389174944778
 30
0.0
 10
114.5534268518938
 20
139.1494964400272
 30
0.0
 10
114.506683196079
 20
139.0615353621465
 30
0.0
 10
114.3810760814939
 20
138.826916568783
 30
0.0
 10
114.3156008526112
 20
138.7070478900368
 30
0.0
 10
114.2256234590869
 20
138.5431068477259
 30
0.0
 10
114.2014745656183
 20
138.4996521968965
 30
0.0
 10
114.2014745656183
 20
138.4996521968965
 30
0.0
  0
SPLINE
  5
D5
330
1F
100
AcDbEntity
  8
0
  6
Continuous
 62
     7
370
    25
100
AcDbSpline
210
0.0
220
0.0
230
1.0
 70
     8
 71
     3
 72
    22
 73
    18
 74
     0
 42
0.00000001
 43
0.00000001
 40
0.0
 40
0.0
 40
0.0
 40
0.0
 40
0.125
 40
0.125
 40
0.25
 40
0.25
 40
0.375
 40
0.375
 40
0.5
 40
0.5
 40
0.625
 40
0.625
 40
0.75
 40
0.75
 40
0.875
 40
0.875
 40
1.0
 40
1.0
 40
1.0
 40
1.0
 10
64.9433242112548
 20
191.3349268806882
 30
0.0
 10
64.9433242112548
 20
191.3349268806882
 30
0.0
 10
64.98095777589307
 20
191.358028041694
 30
0.0
 10
65.12732290297531
 20
191.4468012459379
 30
0.0
 10
65.23805905257841
 20
191.5136506542069
 30
0.0
 10
65.52082586248554
 20
191.6810681381096
 30
0.0
 10
65.69281084146688
 20
191.7816239317944
 30
0.0
 10
66.09711194495418
 20
192.0119421960654
 30
0.0
 10
66.324929219962
 20
192.1390867615346
 30
0.0
 10
66.82451293416925
 20
192.4093651046306
 30
0.0
 10
67.09997506286058
 20
192.5544208337352
 30
0.0
 10
67.6827494666233
 20
192.8503338843281
 30
0.0
 10
67.98928162989458
 20
193.0009012932021
 30
0.0
 10
68.63343508410857
 20
193.3047578166384
 30
0.0
 10
68.9735306669678
 20
193.4590363782976
 30
0.0
 10
69.66276608382671
 20
193.7579986922605
 30
0.0
 10
70.01427629868233
 20
193.9038877373709
 30
0.0
 10
70.37318846464846
 20
194.0458212108823
 30
0.0
  0
SPLINE
  5
D6
330
1F
100
AcDbEntity
  8
0
  6
Continuous
 62
     7
370
    25
100
AcDbSpline
210
0.0
220
0.0
230
1.0
 70
     8
 71
     3
 72
    22
 73
    18
 74
     0
 42
0.00000001
 43
0.00000001
 40
0.0
 40
0.0
 40
0.0
 40
0.0
 40
0.1249999999999998
 40
0.1249999999999998
 40
0.2499999999999997
 40
0.2499999999999997
 40
0.3749999999999995
 40
0.3749999999999995
 40
0.4999999999999993
 40
0.4999999999999993
 40
0.6249999999999991
 40
0.6249999999999991
 40
0.7499999999999994
 40
0.7499999999999994
 40
0.8749999999999997
 40
0.8749999999999997
 40
1.0
 40
1.0
 40
1.0
 40
1.0
 10
101.0566757887453
 20
124.6650731193119
 30
0.0
 10
101.0566757887453
 20
124.6650731193119
 30
0.0
 10
101.0190425402136
 20
124.6419721367086
 30
0.0
 10
100.872668656373
 20
124.5531936479707
 30
0.0
 10
100.7619288762336
 20
124.4863421216378
 30
0.0
 10
100.4791614146146
 20
124.3189244062397
 30
0.0
 10
100.3071684026244
 20
124.2183638384911
 30
0.0
 10
99.9028152031991
 20
123.9880167082002
 30
0.0
 10
99.67504672296639
 20
123.8608999110093
 30
0.0
 10
99.17545081375003
 20
123.5906155951827
 30
0.0
 10
98.89995819419492
 20
123.4455447378174
 30
0.0
 10
98.31722474353383
 20
123.149653559198
 30
0.0
 10
98.01069558382322
 20
122.9990874204004
 30
0.0
 10
97.36650083712242
 20
122.6952124943276
 30
0.0
 10
97.02640380792224
 20
122.5409346918149
 30
0.0
 10
96.33721975984014
 20
122.2419956751139
 30
0.0
 10
95.98572364076712
 20
122.0961122386841
 30
0.0
 10
95.62681153535158
 20
121.9541787891177
 30
0.0
  0
SPLINE
  5
D7
330
1F
100
AcDbEntity
  8
0
  6
Continuous
 62
     7
370
    25
100
AcDbSpline
210
0.0
220
0.0
230
1.0
 70
     8
 71
     3
 72
    26
 73
    22
 74
     0
 42
0.00000001
 43
0.00000001
 40
0.0
 40
0.0
 40
0.0
 40
0.0
 40
0.1249999999999989
 40
0.1249999999999989
 40
0.1874999999999987
 40
0.1874999999999987
 40
0.2499999999999984
 40
0.2499999999999984
 40
0.3749999999999983
 40
0.3749999999999983
 40
0.4999999999999987
 40
0.4999999999999987
 40
0.6249999999999989
 40
0.6249999999999989
 40
0.7499999999999992
 40
0.7499999999999992
 40
0.8749999999999994
 40
0.8749999999999994
 40
0.9374999999999998
 40
0.9374999999999998
 40
1.0
 40
1.0
 40
1.0
 40
1.0
 10
95.9234042671743
 20
193.9269587612214
 30
0.0
 10
96.28230328025359
 20
193.7812161265962
 30
0.0
 10
96.63280598564882
 20
193.6319347684297
 30
0.0
 10
97.14700800046107
 20
193.4032775628505
 30
0.0
 10
97.31647168004889
 20
193.3262722549908
 30
0.0
 10
97.65157074088671
 20
193.1708264551651
 30
0.0
 10
97.81802492305046
 20
193.0919842515596
 30
0.0
 10
98.30385336491099
 20
192.8573384274551
 30
0.0
 10
98.61042361555661
 20
192.7031673581136
 30
0.0
 10
99.19074924703689
 20
192.4016833819689
 30
0.0
 10
99.46707714391601
 20
192.2528921602031
 30
0.0
 10
99.96830426985497
 20
191.9756029739128
 30
0.0
 10
100.194202221983
 20
191.8466930624037
 30
0.0
 10
100.5958540549615
 20
191.6128527680791
 30
0.0
 10
100.7726425144845
 20
191.5072519820988
 30
0.0
 10
101.0560653479198
 20
191.3357504874071
 30
0.0
 10
101.1651544992197
 20
191.2684529772461
 30
0.0
 10
101.2770639101105
 20
191.1990920204657
 30
0.0
 10
101.3057060404778
 20
191.1812488598361
 30
0.0
 10
101.3437038819713
 20
191.1575506149491
 30
0.0
 10
101.3532685205679
 20
191.1515667259695
 30
0.0
 10
101.3532685205679
 20
191.1515667259695
 30
0.0
  0
SPLINE
  5
D8
330
1F
100
AcDbEntity
  8
0
  6
Continuous
 62
     7
370
    25
100
AcDbSpline
210
0.0
220
0.0
230
1.0
 70
     8
 71
     3
 72
    26
 73
    22
 74
     0
 42
0.00000001
 43
0.00000001
 40
0.0
 40
0.0
 40
0.0
 40
0.0
 40
0.1250000000000002
 40
0.1250000000000002
 40
0.1875
 40
0.1875
 40
0.2499999999999998
 40
0.2499999999999998
 40
0.3749999999999994
 40
0.3749999999999994
 40
0.4999999999999996
 40
0.4999999999999996
 40
0.6249999999999997
 40
0.6249999999999997
 40
0.7499999999999997
 40
0.7499999999999997
 40
0.8749999999999998
 40
0.8749999999999998
 40
0.9374999999999999
 40
0.9374999999999999
 40
1.0
 40
1.0
 40
1.0
 40
1.0
 10
70.07659573282574
 20
122.0730412387787
 30
0.0
 10
69.71769671974646
 20
122.2187838734038
 30
0.0
 10
69.36719401435121
 20
122.3680652315703
 30
0.0
 10
68.85299199953896
 20
122.5967224371495
 30
0.0
 10
68.68352831995112
 20
122.6737277450092
 30
0.0
 10
68.34842925911332
 20
122.8291735448349
 30
0.0
 10
68.18197507694957
 20
122.9080157484404
 30
0.0
 10
67.69614663508902
 20
123.1426615725449
 30
0.0
 10
67.3895763844434
 20
123.2968326418864
 30
0.0
 10
66.80925075296312
 20
123.5983166180311
 30
0.0
 10
66.53292285608397
 20
123.747107839797
 30
0.0
 10
66.03169573014503
 20
124.0243970260872
 30
0.0
 10
65.80579777801692
 20
124.1533069375963
 30
0.0
 10
65.40414594503848
 20
124.387147231921
 30
0.0
 10
65.22735748551545
 20
124.4927480179013
 30
0.0
 10
64.94393465208012
 20
124.664249512593
 30
0.0
 10
64.83484550078022
 20
124.7315470227539
 30
0.0
 10
64.72293608988947
 20
124.8009079795344
 30
0.0
 10
64.69429395952214
 20
124.8187511401639
 30
0.0
 10
64.6562961180287
 20
124.8424493850509
 30
0.0
 10
64.64673147943205
 20
124.8484332740305
 30
0.0
 10
64.64673147943206
 20
124.8484332740306
 30
0.0
  0
ELLIPSE
  5
D9
330
1F
100
AcDbEntity
  8
0
  6
Continuous
 62
     7
370
    25
100
AcDbEllipse
 10
83.0
 20
158.0
 30
0.0
 11
1.421085471520200E-14
 21
-49.99999999999999
 31
0.0
210
0.0
220
0.0
230
1.0
 40
0.9411764706
 41
0.0
 42
6.283185307179586
  0
SPLINE
  5
DA
330
1F
100
AcDbEntity
  8
0
  6
HIDDEN
 62
     7
370
    18
100
AcDbSpline
210
0.0
220
0.0
230
1.0
 70
     8
 71
     3
 72
    16
 73
    12
 74
     0
 42
0.00000001
 43
0.00000001
 40
0.0
 40
0.0
 40
0.0
 40
0.0
 40
0.2499999999999999
 40
0.2499999999999999
 40
0.4999999999999998
 40
0.4999999999999998
 40
0.6249999999999999
 40
0.6249999999999999
 40
0.7500000000000001
 40
0.7500000000000001
 40
1.0
 40
1.0
 40
1.0
 40
1.0
 10
101.3532685010086
 20
191.1515667381937
 30
0.0
 10
102.7232758724545
 20
190.2953373269361
 30
0.0
 10
104.0349965337793
 20
189.3457415755632
 30
0.0
 10
106.5065355919009
 20
187.2963920568727
 30
0.0
 10
107.6707468543289
 20
186.1944034692965
 30
0.0
 10
109.3117805067201
 20
184.4276691656047
 30
0.0
 10
109.8423433207343
 20
183.8182840278584
 30
0.0
 10
110.8618389295955
 20
182.5687591904859
 30
0.0
 10
111.3502639859009
 20
181.929470311816
 30
0.0
 10
112.7529423828332
 20
179.9689586029173
 30
0.0
 10
113.6048482052403
 20
178.6052605006194
 30
0.0
 10
114.3740488389348
 20
177.185218006985
 30
0.0
  0
SPLINE
  5
DB
330
1F
100
AcDbEntity
  8
0
  6
HIDDEN
 62
     7
370
    18
100
AcDbSpline
210
0.0
220
0.0
230
1.0
 70
    24
 71
     3
 72
    10
 73
     6
 74
     0
 42
0.00000001
 43
0.00000001
 40
0.0
 40
0.0
 40
0.0
 40
0.0
 40
0.4342534523959932
 40
0.7643657821880201
 40
1.0
 40
1.0
 40
1.0
 40
1.0
 10
101.3532685205679
 20
193.8163624091666
 30
0.0
 10
101.3532685205679
 20
193.9227066966648
 30
0.0
 10
101.3532685205679
 20
194.1098921618495
 30
0.0
 10
101.3532685205679
 20
194.2558404935116
 30
0.0
 10
101.3532685205679
 20
194.2578346962082
 30
0.0
 10
101.3532685205679
 20
194.2586652843834
 30
0.0
  0
SPLINE
  5
DC
330
1F
100
AcDbEntity
  8
0
  6
HIDDEN
 62
     7
370
    18
100
AcDbSpline
210
0.0
220
0.0
230
1.0
 70
     8
 71
     3
 72
    16
 73
    12
 74
     0
 42
0.00000001
 43
0.00000001
 40
0.0
 40
0.0
 40
0.0
 40
0.0
 40
0.2499999999999998
 40
0.2499999999999998
 40
0.4999999999999997
 40
0.4999999999999997
 40
0.6249999999999996
 40
0.6249999999999996
 40
0.7499999999999996
 40
0.7499999999999996
 40
1.0
 40
1.0
 40
1.0
 40
1.0
 10
51.79852542353384
 20
177.5003477835089
 30
0.0
 10
52.58034833704492
 20
178.9125569761747
 30
0.0
 10
53.45028786539164
 20
180.2763625182827
 30
0.0
 10
55.34277648224452
 20
182.8687683668963
 30
0.0
 10
56.36702877363922
 20
184.1013174191959
 30
0.0
 10
58.02357749996457
 20
185.8520830859389
 30
0.0
 10
58.5972579143853
 20
186.4205526289707
 30
0.0
 10
59.77883417462536
 20
187.5169918911655
 30
0.0
 10
60.38577785956926
 20
188.0442763290097
 30
0.0
 10
62.25508849720346
 20
189.5633073644558
 30
0.0
 10
63.56571364159433
 20
190.4925185819949
 30
0.0
 10
64.9433242298163
 20
191.3349268920385
 30
0.0
  0
SPLINE
  5
DD
330
1F
100
AcDbEntity
  8
0
  6
HIDDEN
 62
     7
370
    18
100
AcDbSpline
210
0.0
220
0.0
230
1.0
 70
     8
 71
     3
 72
    16
 73
    12
 74
     0
 42
0.00000001
 43
0.00000001
 40
0.0
 40
0.0
 40
0.0
 40
0.0
 40
0.2500000000000001
 40
0.2500000000000001
 40
0.5000000000000002
 40
0.5000000000000002
 40
0.6250000000000002
 40
0.6250000000000002
 40
0.7500000000000003
 40
0.7500000000000003
 40
1.0
 40
1.0
 40
1.0
 40
1.0
 10
64.64673149899134
 20
124.8484332618064
 30
0.0
 10
63.2767241218259
 20
125.7046626766385
 30
0.0
 10
61.96500343158355
 20
126.6542584518626
 30
0.0
 10
59.49346440775965
 20
128.7036079447034
 30
0.0
 10
58.32925320952495
 20
129.8055964765637
 30
0.0
 10
56.68821969780921
 20
131.5723306068969
 30
0.0
 10
56.15765696284583
 20
132.181715636725
 30
0.0
 10
55.13816124320424
 20
133.4312405855778
 30
0.0
 10
54.64973614371001
 20
134.0705295129935
 30
0.0
 10
53.24705764698352
 20
136.0310413434769
 30
0.0
 10
52.39515179763681
 20
137.3947394940687
 30
0.0
 10
51.62595116106385
 20
138.8147819930176
 30
0.0
  0
SPLINE
  5
DE
330
1F
100
AcDbEntity
  8
0
  6
HIDDEN
 62
     7
370
    18
100
AcDbSpline
210
0.0
220
0.0
230
1.0
 70
    24
 71
     3
 72
    10
 73
     6
 74
     0
 42
0.00000001
 43
0.00000001
 40
0.0
 40
0.0
 40
0.0
 40
0.0
 40
0.434255854825958
 40
0.7643695379464498
 40
1.0
 40
1.0
 40
1.0
 40
1.0
 10
64.64673147943205
 20
122.1836378161048
 30
0.0
 10
64.64673147943205
 20
122.0772938086285
 30
0.0
 10
64.64673147943208
 20
121.8901089521558
 30
0.0
 10
64.64673147943205
 20
121.7441626994585
 30
0.0
 10
64.64673147943205
 20
121.742169225368
 30
0.0
 10
64.64673147943205
 20
121.7413389503663
 30
0.0
  0
SPLINE
  5
DF
330
1F
100
AcDbEntity
  8
0
  6
HIDDEN
 62
     7
370
    18
100
AcDbSpline
210
0.0
220
0.0
230
1.0
 70
     8
 71
     3
 72
    16
 73
    12
 74
     0
 42
0.00000001
 43
0.00000001
 40
0.0
 40
0.0
 40
0.0
 40
0.0
 40
0.2499999999999998
 40
0.2499999999999998
 40
0.4999999999999996
 40
0.4999999999999996
 40
0.6249999999999997
 40
0.6249999999999997
 40
0.7499999999999998
 40
0.7499999999999998
 40
1.0
 40
1.0
 40
1.0
 40
1.0
 10
114.2014745764678
 20
138.499652216494
 30
0.0
 10
113.4196516636596
 20
137.0874430250975
 30
0.0
 10
112.5497121523714
 20
135.7236375064535
 30
0.0
 10
110.6572235066849
 20
133.131231617535
 30
0.0
 10
109.6329711644936
 20
131.8986825001542
 30
0.0
 10
107.9764222792494
 20
130.1479166883497
 30
0.0
 10
107.4027417612403
 20
129.5794470590594
 30
0.0
 10
106.2211656092404
 20
128.4830079192415
 30
0.0
 10
105.6142219720278
 20
127.9557235294481
 30
0.0
 10
103.7449114536063
 20
126.4366926049622
 30
0.0
 10
102.4342863569586
 20
125.5074814171202
 30
0.0
 10
101.0566757701843
 20
124.6650731079618
 30
0.0
  0
SPLINE
  5
E0
330
1F
100
AcDbEntity
  8
0
  6
Continuous
 62
     7
370
    25
100
AcDbSpline
210
0.0
220
0.0
230
1.0
 70
     8
 71
     3
 72
    13
 73
     9
 74
     0
 42
0.00000001
 43
0.00000001
 40
0.0
 40
0.0
 40
0.0
 40
0.0
 40
0.2372483635095027
 40
0.3654171864101356
 40
0.4967924993685957
 40
0.6287019159847985
 40
0.7583429759770217
 40
1.0
 40
1.0
 40
1.0
 40
1.0
 10
173.0
 20
49.11228089951936
 30
0.0
 10
173.0257959293168
 20
48.87490576490804
 30
0.0
 10
173.0655276086943
 20
48.50929332176923
 30
0.0
 10
173.3054275295217
 20
48.07071111585896
 30
0.0
 10
173.5537783717145
 20
47.76870578333326
 30
0.0
 10
173.8619032828917
 20
47.52553632966604
 30
0.0
 10
174.3099742446788
 20
47.29053257541867
 30
0.0
 10
174.6813617195665
 20
47.25199397374129
 30
0.0
 10
174.9230769230769
 20
47.22691136709101
 30
0.0
  0
SPLINE
  5
E1
330
1F
100
AcDbEntity
  8
0
  6
Continuous
 62
     7
370
    25
100
AcDbSpline
210
0.0
220
0.0
230
1.0
 70
     8
 71
     3
 72
    13
 73
     9
 74
     0
 42
0.00000001
 43
0.00000001
 40
0.0
 40
0.0
 40
0.0
 40
0.0
 40
0.2416570240229783
 40
0.3712980840152015
 40
0.5032075006314044
 40
0.6345828135898645
 40
0.7627516364904974
 40
1.0
 40
1.0
 40
1.0
 40
1.0
 10
271.076923076923
 20
47.22691136709101
 30
0.0
 10
271.3186382804335
 20
47.2519939737413
 30
0.0
 10
271.6900257553212
 20
47.29053257541867
 30
0.0
 10
272.1380967171083
 20
47.52553632966604
 30
0.0
 10
272.4462216282855
 20
47.76870578333326
 30
0.0
 10
272.6945724704784
 20
48.07071111585896
 30
0.0
 10
272.9344723913057
 20
48.50929332176923
 30
0.0
 10
272.9742040706832
 20
48.87490576490804
 30
0.0
 10
273.0
 20
49.11228089951936
 30
0.0
  0
LINE
  5
E2
330
1F
100
AcDbEntity
  8
0
  6
Continuous
 62
     7
370
    25
100
AcDbLine
 10
273.0
 20
49.1122808995
 30
0.0
 11
273.0
 21
50.0549656657
 31
0.0
  0
LINE
  5
E3
330
1F
100
AcDbEntity
  8
0
  6
Continuous
 62
     7
370
    25
100
AcDbLine
 10
173.0
 20
50.0549656657
 30
0.0
 11
173.0
 21
49.1122808995
 31
0.0
  0
SPLINE
  5
E4
330
1F
100
AcDbEntity
  8
0
  6
Continuous
 62
     7
370
    25
100
AcDbSpline
210
0.0
220
0.0
230
1.0
 70
     8
 71
     3
 72
    13
 73
     9
 74
     0
 42
0.00000001
 43
0.00000001
 40
0.0
 40
0.0
 40
0.0
 40
0.0
 40
0.2372483635103683
 40
0.3654171864106707
 40
0.4967924993687819
 40
0.6287019159846222
 40
0.758342975976506
 40
0.9999999999999999
 40
0.9999999999999999
 40
0.9999999999999999
 40
0.9999999999999999
 10
273.0
 20
50.05496566573354
 30
0.0
 10
272.9871020353415
 20
50.17365323303964
 30
0.0
 10
272.9672361956527
 20
50.35645945460932
 30
0.0
 10
272.8472862352387
 20
50.57575055756441
 30
0.0
 10
272.7231108141425
 20
50.72675322382677
 30
0.0
 10
272.5690483585543
 20
50.84833795066005
 30
0.0
 10
272.345012877661
 20
50.96583982778379
 30
0.0
 10
272.159319140217
 20
50.98510912862253
 30
0.0
 10
272.0384615384615
 20
50.99765043194772
 30
0.0
  0
SPLINE
  5
E5
330
1F
100
AcDbEntity
  8
0
  6
Continuous
 62
     7
370
    25
100
AcDbSpline
210
0.0
220
0.0
230
1.0
 70
     8
 71
     3
 72
    13
 73
     9
 74
     0
 42
0.00000001
 43
0.00000001
 40
0.0
 40
0.0
 40
0.0
 40
0.0
 40
0.241657024023494
 40
0.3712980840153777
 40
0.5032075006312181
 40
0.6345828135893293
 40
0.7627516364896317
 40
1.0
 40
1.0
 40
1.0
 40
1.0
 10
173.9615384615385
 20
50.99765043194772
 30
0.0
 10
173.840680859783
 20
50.98510912862253
 30
0.0
 10
173.654987122339
 20
50.9658398277838
 30
0.0
 10
173.4309516414457
 20
50.84833795066005
 30
0.0
 10
173.2768891858575
 20
50.72675322382677
 30
0.0
 10
173.1527137647613
 20
50.57575055756441
 30
0.0
 10
173.0327638043474
 20
50.35645945460932
 30
0.0
 10
173.0128979646585
 20
50.17365323303964
 30
0.0
 10
173.0
 20
50.05496566573354
 30
0.0
  0
LINE
  5
E6
330
1F
100
AcDbEntity
  8
0
  6
Continuous
 62
     7
370
    25
100
AcDbLine
 10
174.9230769231
 20
47.2269113671
 30
0.0
 11
271.0769230769
 21
47.2269113671
 31
0.0
  0
LINE
  5
E7
330
1F
100
AcDbEntity
  8
0
  6
Continuous
 62
     7
370
    25
100
AcDbLine
 10
272.0384615385
 20
50.9976504319
 30
0.0
 11
173.9615384638
 21
50.9976504319
 31
0.0
  0
SPLINE
  5
E8
330
1F
100
AcDbEntity
  8
0
  6
Continuous
 62
     7
370
    25
100
AcDbSpline
210
0.0
220
0.0
230
1.0
 70
     8
 71
     3
 72
    16
 73
    12
 74
     0
 42
0.00000001
 43
0.00000001
 40
0.0
 40
0.0
 40
0.0
 40
0.0
 40
0.2499999999999999
 40
0.2499999999999999
 40
0.4999999999999998
 40
0.4999999999999998
 40
0.6249999999999999
 40
0.6249999999999999
 40
0.7500000000000001
 40
0.7500000000000001
 40
1.0
 40
1.0
 40
1.0
 40
1.0
 10
256.1515667381937
 20
60.80170420032629
 30
0.0
 10
255.2953373269361
 20
60.80198606950052
 30
0.0
 10
254.3457415755632
 20
60.80262228286176
 30
0.0
 10
252.2963920568728
 20
60.80356978706821
 30
0.0
 10
251.1944034692965
 20
60.80388308566327
 30
0.0
 10
249.4276691656047
 20
60.80386747144223
 30
0.0
 10
248.8182840278584
 20
60.80378619438476
 30
0.0
 10
247.5687591904859
 20
60.80349639421193
 30
0.0
 10
246.929470311816
 20
60.80328861221521
 30
0.0
 10
244.9689586029173
 20
60.8025767384044
 30
0.0
 10
243.6052605006195
 20
60.80196754665323
 30
0.0
 10
242.185218006985
 20
60.801698845924
 30
0.0
  0
SPLINE
  5
E9
330
1F
100
AcDbEntity
  8
0
  6
Continuous
 62
     7
370
    25
100
AcDbSpline
210
0.0
220
0.0
230
1.0
 70
    24
 71
     3
 72
    30
 73
    26
 74
     0
 42
0.00000001
 43
0.00000001
 40
0.0
 40
0.0
 40
0.0
 40
0.0
 40
0.2499999999999973
 40
0.2499999999999973
 40
0.374999999999996
 40
0.374999999999996
 40
0.4374999999999961
 40
0.4374999999999961
 40
0.4999999999999962
 40
0.4999999999999962
 40
0.5624999999999963
 40
0.5624999999999963
 40
0.5937499999999962
 40
0.5937499999999962
 40
0.6249999999999961
 40
0.6249999999999961
 40
0.656249999999996
 40
0.656249999999996
 40
0.6874999999999959
 40
0.6874999999999959
 40
0.7499999999999976
 40
0.7499999999999976
 40
0.8749999999999988
 40
0.8749999999999988
 40
1.0
 40
1.0
 40
1.0
 40
1.0
 10
242.1852180255418
 20
66.23031445831978
 30
0.0
 10
242.1852180255418
 20
65.78965053879719
 30
0.0
 10
242.1852180255419
 20
65.33038353566124
 30
0.0
 10
242.1852180255419
 20
64.5746736612572
 30
0.0
 10
242.1852180255418
 20
64.31218502621161
 30
0.0
 10
242.1852180255418
 20
63.89084830914746
 30
0.0
 10
242.1852180255418
 20
63.74491665003408
 30
0.0
 10
242.1852180255418
 20
63.44148946894183
 30
0.0
 10
242.1852180255418
 20
63.28438749665975
 30
0.0
 10
242.1852180255418
 20
62.95072092539021
 30
0.0
 10
242.1852180255418
 20
62.77730991684989
 30
0.0
 10
242.1852180255418
 20
62.51094623843471
 30
0.0
 10
242.1852180255418
 20
62.42315708320564
 30
0.0
 10
242.1852180255418
 20
62.24996627611742
 30
0.0
 10
242.1852180255418
 20
62.16630247772312
 30
0.0
 10
242.1852180255418
 20
62.01057959681723
 30
0.0
 10
242.1852180255418
 20
61.93686548538348
 30
0.0
 10
242.1852180255418
 20
61.80313422465091
 30
0.0
 10
242.1852180255414
 20
61.74226758110316
 30
0.0
 10
242.1852180255414
 20
61.57297284118221
 30
0.0
 10
242.1852180255419
 20
61.47949578908023
 30
0.0
 10
242.1852180255419
 20
61.237224561292
 30
0.0
 10
242.1852180255418
 20
61.12129992519078
 30
0.0
 10
242.1852180255419
 20
60.93316450485014
 30
0.0
 10
242.1852180255418
 20
60.86128994922355
 30
0.0
 10
242.1852180255418
 20
60.80169884675365
 30
0.0
  0
SPLINE
  5
EA
330
1F
100
AcDbEntity
  8
0
  6
Continuous
 62
     7
370
    25
100
AcDbSpline
210
0.0
220
0.0
230
1.0
 70
    24
 71
     3
 72
     8
 73
     4
 74
     0
 42
0.00000001
 43
0.00000001
 40
5.244103025485165
 40
5.244103025485165
 40
5.244103025485165
 40
5.244103025485165
 40
5.760948939802023
 40
5.760948939802023
 40
5.760948939802023
 40
5.760948939802023
 10
256.1509753370453
 20
66.23067493342886
 30
0.0
 10
252.7869498080854
 20
66.23067493342886
 30
0.0
 10
247.9239269197512
 20
66.23067493342886
 30
0.0
 10
242.1849080166371
 20
66.23067493342886
 30
0.0
  0
SPLINE
  5
EB
330
1F
100
AcDbEntity
  8
0
  6
Continuous
 62
     7
370
    25
100
AcDbSpline
210
0.0
220
0.0
230
1.0
 70
     8
 71
     3
 72
    30
 73
    26
 74
     0
 42
0.00000001
 43
0.00000001
 40
0.0
 40
0.0
 40
0.0
 40
0.0
 40
0.1249999999999985
 40
0.1249999999999985
 40
0.2499999999999971
 40
0.2499999999999971
 40
0.3124999999999963
 40
0.3124999999999963
 40
0.3749999999999956
 40
0.3749999999999956
 40
0.4062499999999952
 40
0.4062499999999952
 40
0.4374999999999948
 40
0.4374999999999948
 40
0.4687499999999945
 40
0.4687499999999945
 40
0.4999999999999941
 40
0.4999999999999941
 40
0.5624999999999944
 40
0.5624999999999944
 40
0.6249999999999949
 40
0.6249999999999949
 40
0.7499999999999971
 40
0.7499999999999971
 40
1.0
 40
1.0
 40
1.0
 40
1.0
 10
256.1515667318166
 20
60.80170420126931
 30
0.0
 10
256.5126056027242
 20
60.85968445613018
 30
0.0
 10
256.8703571604832
 20
60.92933562332614
 30
0.0
 10
257.574244352543
 20
61.1098778451994
 30
0.0
 10
257.92095393463
 20
61.2187312192562
 30
0.0
 10
258.4211840151406
 20
61.45242875501516
 30
0.0
 10
258.5835943274076
 20
61.54213679256703
 30
0.0
 10
258.881327894077
 20
61.76021976750066
 30
0.0
 10
259.0166463351457
 20
61.88841631291063
 30
0.0
 10
259.1653851266398
 20
62.12450766478263
 30
0.0
 10
259.2039628123042
 20
62.20794082331393
 30
0.0
 10
259.2559073727379
 20
62.38565974904403
 30
0.0
 10
259.2685135621031
 20
62.47817225206022
 30
0.0
 10
259.269935460536
 20
62.66253705195938
 30
0.0
 10
259.2588264058678
 20
62.7556344758894
 30
0.0
 10
259.2201714417105
 20
62.93512704334131
 30
0.0
 10
259.1926667778524
 20
63.0227577376718
 30
0.0
 10
259.0923033819744
 20
63.28103184695588
 30
0.0
 10
259.0038948897733
 20
63.44267315154198
 30
0.0
 10
258.8068190284346
 20
63.7508427530822
 30
0.0
 10
258.6969079757446
 20
63.8985149034022
 30
0.0
 10
258.3485961506277
 20
64.32576186164543
 30
0.0
 10
258.0950688386935
 20
64.58711010810059
 30
0.0
 10
257.3042135331656
 20
65.33780914460827
 30
0.0
 10
256.7362545274574
 20
65.79342029360157
 30
0.0
 10
256.1512719540568
 20
66.23028021552643
 30
0.0
  0
SPLINE
  5
EC
330
1F
100
AcDbEntity
  8
0
  6
Continuous
 62
     7
370
    25
100
AcDbSpline
210
0.0
220
0.0
230
1.0
 70
     8
 71
     3
 72
    16
 73
    12
 74
     0
 42
0.00000001
 43
0.00000001
 40
0.0
 40
0.0
 40
0.0
 40
0.0
 40
0.2499999999999998
 40
0.2499999999999998
 40
0.4999999999999996
 40
0.4999999999999996
 40
0.6249999999999997
 40
0.6249999999999997
 40
0.7499999999999998
 40
0.7499999999999998
 40
1.0
 40
1.0
 40
1.0
 40
1.0
 10
203.499652216494
 20
60.80170421730839
 30
0.0
 10
202.0874430250975
 20
60.80197769407268
 30
0.0
 10
200.7236375064535
 20
60.80259117312522
 30
0.0
 10
198.131231617535
 20
60.80353562588666
 30
0.0
 10
196.8986825001542
 20
60.80386521202249
 30
0.0
 10
195.1479166883497
 20
60.8038766491288
 30
0.0
 10
194.5794470590594
 20
60.80380434271504
 30
0.0
 10
193.4830079192415
 20
60.80352663598472
 30
0.0
 10
192.9557235294481
 20
60.80332190479174
 30
0.0
 10
191.4366926049622
 20
60.80260734409005
 30
0.0
 10
190.5074814171202
 20
60.80197580843662
 30
0.0
 10
189.6650731079618
 20
60.80169884463086
 30
0.0
  0
SPLINE
  5
ED
330
1F
100
AcDbEntity
  8
0
  6
Continuous
 62
     7
370
    25
100
AcDbSpline
210
0.0
220
0.0
230
1.0
 70
     8
 71
     3
 72
    30
 73
    26
 74
     0
 42
0.00000001
 43
0.00000001
 40
0.0
 40
0.0
 40
0.0
 40
0.0
 40
0.2499999999999978
 40
0.2499999999999978
 40
0.3749999999999967
 40
0.3749999999999967
 40
0.437499999999997
 40
0.437499999999997
 40
0.4999999999999973
 40
0.4999999999999973
 40
0.5624999999999977
 40
0.5624999999999977
 40
0.5937499999999978
 40
0.5937499999999978
 40
0.624999999999998
 40
0.624999999999998
 40
0.6562499999999981
 40
0.6562499999999981
 40
0.6874999999999983
 40
0.6874999999999983
 40
0.7499999999999987
 40
0.7499999999999987
 40
0.8749999999999993
 40
0.8749999999999993
 40
1.0
 40
1.0
 40
1.0
 40
1.0
 10
189.6653563914545
 20
66.23029770749768
 30
0.0
 10
189.0823822136996
 20
65.79252201174643
 30
0.0
 10
188.5155018971813
 20
65.33556002784674
 30
0.0
 10
187.7242619441746
 20
64.57968423926248
 30
0.0
 10
187.471562614816
 20
64.3169612601381
 30
0.0
 10
187.1282118991366
 20
63.89249388363692
 30
0.0
 10
187.0192929317808
 20
63.74508332725089
 30
0.0
 10
186.8237994424288
 20
63.43668744493476
 30
0.0
 10
186.7363455981323
 20
63.27472450631463
 30
0.0
 10
186.60563742304
 20
62.93460299713284
 30
0.0
 10
186.5621756642803
 20
62.75809476750416
 30
0.0
 10
186.5635345229931
 20
62.48107917520834
 30
0.0
 10
186.5755026077905
 20
62.39048677274774
 30
0.0
 10
186.6259756295038
 20
62.21332595548299
 30
0.0
 10
186.6643261791688
 20
62.1289146035381
 30
0.0
 10
186.7607895668937
 20
61.97314599111295
 30
0.0
 10
186.819496299128
 20
61.90070414264679
 30
0.0
 10
186.9471425850379
 20
61.77018310859525
 30
0.0
 10
187.0166995076655
 20
61.71103574354825
 30
0.0
 10
187.2378241337421
 20
61.54687150912146
 30
0.0
 10
187.3978123550007
 20
61.45746613696993
 30
0.0
 10
187.8908598854565
 20
61.22409339028214
 30
0.0
 10
188.2417141012679
 20
61.11224414423906
 30
0.0
 10
188.9469401652551
 20
60.92991454419712
 30
0.0
 10
189.3045999196297
 20
60.85990882674918
 30
0.0
 10
189.6650731138477
 20
60.80169884551712
 30
0.0
  0
SPLINE
  5
EE
330
1F
100
AcDbEntity
  8
0
  6
Continuous
 62
     7
370
    25
100
AcDbSpline
210
0.0
220
0.0
230
1.0
 70
    24
 71
     3
 72
     8
 73
     4
 74
     0
 42
0.00000001
 43
0.00000001
 40
0.5317160015987175
 40
0.5317160015987175
 40
0.5317160015987175
 40
0.5317160015987175
 40
1.0485618161656
 40
1.0485618161656
 40
1.0485618161656
 40
1.0485618161656
 10
203.4999809560341
 20
66.23067493342886
 30
0.0
 10
197.7926632549186
 20
66.23067493342886
 30
0.0
 10
192.9753365557281
 20
66.23067493342886
 30
0.0
 10
189.6656442926654
 20
66.23067493342886
 30
0.0
  0
SPLINE
  5
EF
330
1F
100
AcDbEntity
  8
0
  6
Continuous
 62
     7
370
    25
100
AcDbSpline
210
0.0
220
0.0
230
1.0
 70
    24
 71
     3
 72
    30
 73
    26
 74
     0
 42
0.00000001
 43
0.00000001
 40
0.0
 40
0.0
 40
0.0
 40
0.0
 40
0.1250000000000017
 40
0.1250000000000017
 40
0.2500000000000034
 40
0.2500000000000034
 40
0.3125000000000043
 40
0.3125000000000043
 40
0.3750000000000052
 40
0.3750000000000052
 40
0.4062500000000049
 40
0.4062500000000049
 40
0.4375000000000046
 40
0.4375000000000046
 40
0.500000000000004
 40
0.500000000000004
 40
0.5625000000000034
 40
0.5625000000000034
 40
0.6250000000000028
 40
0.6250000000000028
 40
0.7500000000000019
 40
0.7500000000000019
 40
0.8750000000000009
 40
0.8750000000000009
 40
1.0
 40
1.0
 40
1.0
 40
1.0
 10
203.4996521968965
 20
60.80170421819068
 30
0.0
 10
203.4996521968965
 20
60.86095846019901
 30
0.0
 10
203.4996521968965
 20
60.93230701108051
 30
0.0
 10
203.4996521968965
 20
61.11773175746343
 30
0.0
 10
203.4996521968971
 20
61.22969934457894
 30
0.0
 10
203.4996521968971
 20
61.47055207195375
 30
0.0
 10
203.4996521968966
 20
61.56427337679131
 30
0.0
 10
203.4996521968966
 20
61.78965611843346
 30
0.0
 10
203.4996521968968
 20
61.92221724931497
 30
0.0
 10
203.4996521968968
 20
62.1570018229009
 30
0.0
 10
203.4996521968965
 20
62.24194211365607
 30
0.0
 10
203.4996521968965
 20
62.415153835936
 30
0.0
 10
203.4996521968965
 20
62.50586367345245
 30
0.0
 10
203.4996521968965
 20
62.77372938107181
 30
0.0
 10
203.4996521968965
 20
62.95083290794818
 30
0.0
 10
203.4996521968965
 20
63.28431239459412
 30
0.0
 10
203.4996521968965
 20
63.4427509128594
 30
0.0
 10
203.4996521968965
 20
63.74930202870968
 30
0.0
 10
203.4996521968965
 20
63.89439841844319
 30
0.0
 10
203.4996521968965
 20
64.3148306193147
 30
0.0
 10
203.4996521968965
 20
64.5755774553726
 30
0.0
 10
203.4996521968965
 20
65.07735291943688
 30
0.0
 10
203.4996521968965
 20
65.31821635317654
 30
0.0
 10
203.4996521968965
 20
65.78454254579044
 30
0.0
 10
203.4996521968971
 20
66.01008484451437
 30
0.0
 10
203.4996521968971
 20
66.23029758004796
 30
0.0
  0
SPLINE
  5
F0
330
1F
100
AcDbEntity
  8
0
  6
Continuous
 62
     7
370
    25
100
AcDbSpline
210
0.0
220
0.0
230
1.0
 70
     8
 71
     3
 72
    22
 73
    18
 74
     0
 42
0.00000001
 43
0.00000001
 40
0.0
 40
0.0
 40
0.0
 40
0.0
 40
0.125
 40
0.125
 40
0.25
 40
0.25
 40
0.375
 40
0.375
 40
0.5
 40
0.5
 40
0.625
 40
0.625
 40
0.75
 40
0.75
 40
0.875
 40
0.875
 40
1.0
 40
1.0
 40
1.0
 40
1.0
 10
242.1852180255418
 20
56.65375908542117
 30
0.0
 10
242.1852180255418
 20
56.25879304303344
 30
0.0
 10
242.1434936569104
 20
55.87224821101302
 30
0.0
 10
241.9815964691525
 20
55.11490013486894
 30
0.0
 10
241.8593046492423
 20
54.74143218036311
 30
0.0
 10
241.5492521761942
 20
54.04436247830068
 30
0.0
 10
241.360387159795
 20
53.71528387620906
 30
0.0
 10
240.9210276974491
 20
53.10057432051877
 30
0.0
 10
240.6760004424289
 20
52.82209435908628
 30
0.0
 10
240.1385950854132
 20
52.3172886660287
 30
0.0
 10
239.8437225036388
 20
52.09001370903789
 30
0.0
 10
239.2265455666915
 20
51.70114386772396
 30
0.0
 10
238.9025427432798
 20
51.53736935661053
 30
0.0
 10
238.2231344029586
 20
51.27032675240154
 30
0.0
 10
237.8687554304341
 20
51.16824755108249
 30
0.0
 10
237.1525731388038
 20
51.03255574839095
 30
0.0
 10
236.7878264835877
 20
50.9976504881361
 30
0.0
 10
236.415987256311
 20
50.99765048813611
 30
0.0
  0
LINE
  5
F1
330
1F
100
AcDbEntity
  8
0
  6
Continuous
 62
     7
370
    25
100
AcDbLine
 10
256.151566726
 20
56.6537590854
 30
0.0
 11
256.1515667321
 21
60.8017042003
 31
0.0
  0
SPLINE
  5
F2
330
1F
100
AcDbEntity
  8
0
  6
Continuous
 62
     7
370
    25
100
AcDbSpline
210
0.0
220
0.0
230
1.0
 70
     8
 71
     3
 72
    26
 73
    22
 74
     0
 42
0.00000001
 43
0.00000001
 40
0.0
 40
0.0
 40
0.0
 40
0.0
 40
0.1249999999999989
 40
0.1249999999999989
 40
0.1874999999999987
 40
0.1874999999999987
 40
0.2499999999999984
 40
0.2499999999999984
 40
0.3749999999999983
 40
0.3749999999999983
 40
0.4999999999999987
 40
0.4999999999999987
 40
0.6249999999999989
 40
0.6249999999999989
 40
0.7499999999999992
 40
0.7499999999999992
 40
0.8749999999999994
 40
0.8749999999999994
 40
0.9374999999999998
 40
0.9374999999999998
 40
1.0
 40
1.0
 40
1.0
 40
1.0
 10
258.9269587612213
 20
50.99765048813611
 30
0.0
 10
258.7812161265962
 20
50.99765048813611
 30
0.0
 10
258.6319347684297
 20
51.03432968152668
 30
0.0
 10
258.4032775628505
 20
51.14012933872804
 30
0.0
 10
258.3262722549908
 20
51.18392886920154
 30
0.0
 10
258.1708264551651
 20
51.28867343834482
 30
0.0
 10
258.0919842515597
 20
51.35000239006482
 30
0.0
 10
257.8573384274551
 20
51.55710661981975
 30
0.0
 10
257.7031673581136
 20
51.72548237950801
 30
0.0
 10
257.401683381969
 20
52.12181842851929
 30
0.0
 10
257.252892160203
 20
52.35272898525114
 30
0.0
 10
256.9756029739129
 20
52.86275772290105
 30
0.0
 10
256.8466930624037
 20
53.14146714278532
 30
0.0
 10
256.6128527680791
 20
53.74884130945123
 30
0.0
 10
256.5072519820988
 20
54.08150347763577
 30
0.0
 10
256.3357504874071
 20
54.77048244355348
 30
0.0
 10
256.2684529772461
 20
55.12921343669284
 30
0.0
 10
256.1990920204656
 20
55.69035035307517
 30
0.0
 10
256.1812488598362
 20
55.88218523713968
 30
0.0
 10
256.1575506149492
 20
56.26654888107832
 30
0.0
 10
256.1515667259695
 20
56.45967464520579
 30
0.0
 10
256.1515667259695
 20
56.65375908542118
 30
0.0
  0
LINE
  5
F3
330
1F
100
AcDbEntity
  8
0
  6
Continuous
 62
     7
370
    25
100
AcDbLine
 10
242.1852180163
 20
60.8016988459
 30
0.0
 11
242.1852180255
 21
56.6537590854
 31
0.0
  0
SPLINE
  5
F4
330
1F
100
AcDbEntity
  8
0
  6
Continuous
 62
     7
370
    25
100
AcDbSpline
210
0.0
220
0.0
230
1.0
 70
     8
 71
     3
 72
    22
 73
    18
 74
     0
 42
0.00000001
 43
0.00000001
 40
0.0
 40
0.0
 40
0.0
 40
0.0
 40
0.1249999999999998
 40
0.1249999999999998
 40
0.2499999999999997
 40
0.2499999999999997
 40
0.3749999999999995
 40
0.3749999999999995
 40
0.4999999999999993
 40
0.4999999999999993
 40
0.6249999999999991
 40
0.6249999999999991
 40
0.7499999999999994
 40
0.7499999999999994
 40
0.8749999999999997
 40
0.8749999999999997
 40
1.0
 40
1.0
 40
1.0
 40
1.0
 10
189.6650731193118
 20
56.65375908542117
 30
0.0
 10
189.6650731193118
 20
56.26720908023479
 30
0.0
 10
189.6419721367086
 20
55.88840292530179
 30
0.0
 10
189.5531936479707
 20
55.14532505786574
 30
0.0
 10
189.4863421216378
 20
54.77770707599343
 30
0.0
 10
189.3189244062397
 20
54.08783836759136
 30
0.0
 10
189.2183638384911
 20
53.76222043643515
 30
0.0
 10
188.9880167082003
 20
53.14796237144785
 30
0.0
 10
188.8608999110093
 20
52.8667002597149
 30
0.0
 10
188.5906155951827
 20
52.35724285106279
 30
0.0
 10
188.4455447378174
 20
52.1262240260651
 30
0.0
 10
188.149653559198
 20
51.72736385575735
 30
0.0
 10
187.9990874204004
 20
51.55898160373881
 30
0.0
 10
187.6952124943276
 20
51.28355247733906
 30
0.0
 10
187.5409346918149
 20
51.17653653278826
 30
0.0
 10
187.2419956751139
 20
51.03434170033031
 30
0.0
 10
187.096112238684
 20
50.9976504881361
 30
0.0
 10
186.9541787891177
 20
50.99765048813611
 30
0.0
  0
LINE
  5
F5
330
1F
100
AcDbEntity
  8
0
  6
Continuous
 62
     7
370
    25
100
AcDbLine
 10
189.6650731136
 20
60.8016988446
 30
0.0
 11
189.6650731193
 21
56.6537590854
 31
0.0
  0
SPLINE
  5
F6
330
1F
100
AcDbEntity
  8
0
  6
Continuous
 62
     7
370
    25
100
AcDbSpline
210
0.0
220
0.0
230
1.0
 70
     8
 71
     3
 72
    26
 73
    22
 74
     0
 42
0.00000001
 43
0.00000001
 40
0.0
 40
0.0
 40
0.0
 40
0.0
 40
0.1250000000000013
 40
0.1250000000000013
 40
0.2500000000000027
 40
0.2500000000000027
 40
0.3750000000000035
 40
0.3750000000000035
 40
0.4375000000000036
 40
0.4375000000000036
 40
0.5000000000000037
 40
0.5000000000000037
 40
0.6250000000000024
 40
0.6250000000000024
 40
0.687500000000002
 40
0.687500000000002
 40
0.7500000000000016
 40
0.7500000000000016
 40
0.8750000000000008
 40
0.8750000000000008
 40
1.0
 40
1.0
 40
1.0
 40
1.0
 10
209.2688829661273
 20
50.99765048813611
 30
0.0
 10
208.8967674980295
 20
50.99765048813611
 30
0.0
 10
208.5323556088093
 20
51.03260264339943
 30
0.0
 10
207.8178620661934
 20
51.16785866584242
 30
0.0
 10
207.4664336137846
 20
51.26870515293204
 30
0.0
 10
206.7838045940417
 20
51.53656592277377
 30
0.0
 10
206.4597417316915
 20
51.70047017135497
 30
0.0
 10
205.998465538686
 20
51.99078289133834
 30
0.0
 10
205.8488715167553
 20
52.09501762259912
 30
0.0
 10
205.5581915383665
 20
52.31903202657892
 30
0.0
 10
205.4163621329978
 20
52.43953941924848
 30
0.0
 10
205.010600665387
 20
52.82004006890627
 30
0.0
 10
204.7665804113062
 20
53.09777002402277
 30
0.0
 10
204.4407685473342
 20
53.55209351368556
 30
0.0
 10
204.3389174944778
 20
53.70986916667852
 30
0.0
 10
204.1494964400273
 20
54.03902267195176
 30
0.0
 10
204.0615353621465
 20
54.21149472735003
 30
0.0
 10
203.826916568783
 20
54.7372701870713
 30
0.0
 10
203.7070478900368
 20
55.10168819824033
 30
0.0
 10
203.5431068477259
 20
55.8598582280738
 30
0.0
 10
203.4996521968965
 20
56.2568553045684
 30
0.0
 10
203.4996521968965
 20
56.65375908542118
 30
0.0
  0
LINE
  5
F7
330
1F
100
AcDbEntity
  8
0
  6
Continuous
 62
     7
370
    25
100
AcDbLine
 10
203.4996521969
 20
56.6537590854
 30
0.0
 11
203.4996522067
 21
60.8017042173
 31
0.0
  0
SPLINE
  5
F8
330
1F
100
AcDbEntity
  8
0
  6
Continuous
 62
     7
370
    25
100
AcDbSpline
210
0.0
220
0.0
230
1.0
 70
     8
 71
     3
 72
    22
 73
    18
 74
     0
 42
0.00000001
 43
0.00000001
 40
0.0
 40
0.0
 40
0.0
 40
0.0
 40
0.125
 40
0.125
 40
0.25
 40
0.25
 40
0.375
 40
0.375
 40
0.5
 40
0.5
 40
0.625
 40
0.625
 40
0.75
 40
0.75
 40
0.875
 40
0.875
 40
1.0
 40
1.0
 40
1.0
 40
1.0
 10
256.3349268806882
 20
56.65375908542118
 30
0.0
 10
256.3349268806882
 20
56.267207091481
 30
0.0
 10
256.3580280416941
 20
55.88840834372058
 30
0.0
 10
256.4468012459379
 20
55.14536088469264
 30
0.0
 10
256.513650654207
 20
54.77774208003357
 30
0.0
 10
256.6810681381096
 20
54.08786385425654
 30
0.0
 10
256.7816239317944
 20
53.76226200407402
 30
0.0
 10
257.0119421960654
 20
53.14806300685938
 30
0.0
 10
257.1390867615347
 20
52.8667287520133
 30
0.0
 10
257.4093651046306
 20
52.35727585883438
 30
0.0
 10
257.5544208337352
 20
52.12627414041367
 30
0.0
 10
257.8503338843281
 20
51.72737707749029
 30
0.0
 10
258.0009012932021
 20
51.55899473593733
 30
0.0
 10
258.3047578166384
 20
51.28357648524419
 30
0.0
 10
258.4590363782976
 20
51.17655284276665
 30
0.0
 10
258.7579986922605
 20
51.03434183082501
 30
0.0
 10
258.903887737371
 20
50.99765048813611
 30
0.0
 10
259.0458212108824
 20
50.99765048813611
 30
0.0
  0
LINE
  5
F9
330
1F
100
AcDbEntity
  8
0
  6
Continuous
 62
     7
370
    25
100
AcDbLine
 10
203.6079693279
 20
66.2306749334
 30
0.0
 11
203.8147819745
 21
66.2306749334
 31
0.0
  0
SPLINE
  5
FA
330
1F
100
AcDbEntity
  8
0
  6
Continuous
 62
     7
370
    25
100
AcDbSpline
210
0.0
220
0.0
230
1.0
 70
    24
 71
     3
 72
     8
 73
     4
 74
     0
 42
0.00000001
 43
0.00000001
 40
0.0
 40
0.0
 40
0.0
 40
0.0
 40
1.0
 40
1.0
 40
1.0
 40
1.0
 10
203.8147819744582
 20
56.65375908542118
 30
0.0
 10
203.8147819744582
 20
59.61821007007602
 30
0.0
 10
203.8147819744582
 20
62.79904017391358
 30
0.0
 10
203.8147819744582
 20
66.23067493342886
 30
0.0
  0
SPLINE
  5
FB
330
1F
100
AcDbEntity
  8
0
  6
Continuous
 62
     7
370
    25
100
AcDbSpline
210
0.0
220
0.0
230
1.0
 70
     8
 71
     3
 72
    26
 73
    22
 74
     0
 42
0.00000001
 43
0.00000001
 40
0.0
 40
0.0
 40
0.0
 40
0.0
 40
0.125
 40
0.125
 40
0.2500000000000001
 40
0.2500000000000001
 40
0.3750000000000001
 40
0.3750000000000001
 40
0.5000000000000001
 40
0.5000000000000001
 40
0.6250000000000001
 40
0.6250000000000001
 40
0.6875000000000001
 40
0.6875000000000001
 40
0.7500000000000002
 40
0.7500000000000002
 40
0.8125000000000002
 40
0.8125000000000002
 40
0.8750000000000001
 40
0.8750000000000001
 40
1.0
 40
1.0
 40
1.0
 40
1.0
 10
209.584012743689
 20
50.99765048813611
 30
0.0
 10
209.2281411618233
 20
50.99765048813611
 30
0.0
 10
208.8758025007241
 20
51.02964400947631
 30
0.0
 10
208.1776538776512
 20
51.15724084533221
 30
0.0
 10
207.830779505017
 20
51.25317289558751
 30
0.0
 10
207.1474753657956
 20
51.51424422465821
 30
0.0
 10
206.8199982061863
 20
51.67575699761579
 30
0.0
 10
206.1929589303672
 20
52.06345374772618
 30
0.0
 10
205.891552495867
 20
52.29116745983253
 30
0.0
 10
205.327571529507
 20
52.81666929647925
 30
0.0
 10
205.0729566895172
 20
53.10652498462786
 30
0.0
 10
204.7339022226841
 20
53.58469991755325
 30
0.0
 10
204.6275274125672
 20
53.75258633601173
 30
0.0
 10
204.4354862701001
 20
54.09415358464779
 30
0.0
 10
204.3491526803088
 20
54.2685439680545
 30
0.0
 10
204.1953435629143
 20
54.62429966423149
 30
0.0
 10
204.127868946914
 20
54.80566538584025
 30
0.0
 10
204.0118493028739
 20
55.17536989524069
 30
0.0
 10
203.963712270929
 20
55.3629564255919
 30
0.0
 10
203.8505856652386
 20
55.91958222930783
 30
0.0
 10
203.8147819744582
 20
56.28784486283212
 30
0.0
 10
203.8147819744582
 20
56.65375908542118
 30
0.0
  0
LINE
  5
FC
330
1F
100
AcDbEntity
  8
0
  6
Continuous
 62
     7
370
    25
100
AcDbLine
 10
256.2071278017
 20
66.2306749334
 30
0.0
 11
256.3349268807
 21
66.2306749334
 31
0.0
  0
SPLINE
  5
FD
330
1F
100
AcDbEntity
  8
0
  6
Continuous
 62
     7
370
    25
100
AcDbSpline
210
0.0
220
0.0
230
1.0
 70
     8
 71
     3
 72
    30
 73
    26
 74
     0
 42
0.00000001
 43
0.00000001
 40
0.0
 40
0.0
 40
0.0
 40
0.0
 40
0.250000000000001
 40
0.250000000000001
 40
0.3750000000000015
 40
0.3750000000000015
 40
0.4375000000000018
 40
0.4375000000000018
 40
0.500000000000002
 40
0.500000000000002
 40
0.5625000000000022
 40
0.5625000000000022
 40
0.5937500000000023
 40
0.5937500000000023
 40
0.6250000000000024
 40
0.6250000000000024
 40
0.6562500000000027
 40
0.6562500000000027
 40
0.6875000000000028
 40
0.6875000000000028
 40
0.750000000000003
 40
0.750000000000003
 40
0.8750000000000014
 40
0.8750000000000014
 40
1.0
 40
1.0
 40
1.0
 40
1.0
 10
256.3346436024969
 20
66.23029769944243
 30
0.0
 10
256.9176169809039
 20
65.79252260459636
 30
0.0
 10
257.4844964948389
 20
65.33556123192007
 30
0.0
 10
258.2757352814092
 20
64.57968645684022
 30
0.0
 10
258.5284342978215
 20
64.31696376134957
 30
0.0
 10
258.8717845637497
 20
63.89249687023607
 30
0.0
 10
258.9807033942363
 20
63.74508646551626
 30
0.0
 10
259.1761965327599
 20
63.43669112806045
 30
0.0
 10
259.263650243805
 20
63.27472847278659
 30
0.0
 10
259.3943583534997
 20
62.93460747699926
 30
0.0
 10
259.4378200157157
 20
62.75810133454797
 30
0.0
 10
259.4364617443084
 20
62.48108475247009
 30
0.0
 10
259.4244937875974
 20
62.39049232840252
 30
0.0
 10
259.3740214301279
 20
62.21333209290931
 30
0.0
 10
259.3356708641147
 20
62.12892004413886
 30
0.0
 10
259.239207972137
 20
61.97315141968328
 30
0.0
 10
259.1805013474079
 20
61.90070933383323
 30
0.0
 10
259.0528552899928
 20
61.77018793224281
 30
0.0
 10
258.9832985901703
 20
61.71104049442599
 30
0.0
 10
258.7621749990165
 20
61.54687614340992
 30
0.0
 10
258.6021862829091
 20
61.45746987103839
 30
0.0
 10
258.1091397083944
 20
61.22409591576939
 30
0.0
 10
257.7582860777513
 20
61.11224573962336
 30
0.0
 10
257.0530599051966
 20
60.92991483826696
 30
0.0
 10
256.6954001183221
 20
60.85990883621731
 30
0.0
 10
256.3349268861525
 20
60.80169884822637
 30
0.0
  0
LINE
  5
FE
330
1F
100
AcDbEntity
  8
0
  6
Continuous
 62
     7
370
    25
100
AcDbLine
 10
256.3349268864
 20
60.8016988473
 30
0.0
 11
256.3349268807
 21
56.6537590854
 31
0.0
  0
SPLINE
  5
FF
330
1F
100
AcDbEntity
  8
0
  6
HIDDEN
 62
     7
370
    18
100
AcDbSpline
210
0.0
220
0.0
230
1.0
 70
     8
 71
     3
 72
    26
 73
    22
 74
     0
 42
0.00000001
 43
0.00000001
 40
0.0
 40
0.0
 40
0.0
 40
0.0
 40
0.1250000000000007
 40
0.1250000000000007
 40
0.187500000000001
 40
0.187500000000001
 40
0.2500000000000013
 40
0.2500000000000013
 40
0.3125000000000016
 40
0.3125000000000016
 40
0.3750000000000019
 40
0.3750000000000019
 40
0.5000000000000018
 40
0.5000000000000018
 40
0.6250000000000017
 40
0.6250000000000017
 40
0.7500000000000011
 40
0.7500000000000011
 40
0.8750000000000007
 40
0.8750000000000007
 40
1.0
 40
1.0
 40
1.0
 40
1.0
 10
248.257885315369
 20
56.65375908542116
 30
0.0
 10
248.104033618657
 20
56.29969397681263
 30
0.0
 10
247.9740026495125
 20
55.94189403956966
 30
0.0
 10
247.8205879106166
 20
55.3984686917868
 30
0.0
 10
247.7762012163944
 20
55.21499300802061
 30
0.0
 10
247.7040851415389
 20
54.85157852732055
 30
0.0
 10
247.6764621633642
 20
54.67273211177705
 30
0.0
 10
247.6379549662736
 20
54.32084675307546
 30
0.0
 10
247.6270699787879
 20
54.14780704648481
 30
0.0
 10
247.6221896823747
 20
53.80782033668578
 30
0.0
 10
247.628368424407
 20
53.63971139602494
 30
0.0
 10
247.6713623270919
 20
53.15830523599249
 30
0.0
 10
247.7318250091377
 20
52.86491549104443
 30
0.0
 10
247.9069690140718
 20
52.33055415723307
 30
0.0
 10
248.0193625720783
 20
52.09709079733462
 30
0.0
 10
248.2794895148085
 20
51.69607833327846
 30
0.0
 10
248.4284618502633
 20
51.52769981542345
 30
0.0
 10
248.744583466842
 20
51.26235842128639
 30
0.0
 10
248.9135271742349
 20
51.16302541357413
 30
0.0
 10
249.2663179175495
 20
51.0302740079398
 30
0.0
 10
249.4475536105921
 20
50.99765048813611
 30
0.0
 10
249.6328836770599
 20
50.99765048813611
 30
0.0
  0
SPLINE
  5
100
330
1F
100
AcDbEntity
  8
0
  6
HIDDEN
 62
     7
370
    18
100
AcDbSpline
210
0.0
220
0.0
230
1.0
 70
     8
 71
     3
 72
    26
 73
    22
 74
     0
 42
0.00000001
 43
0.00000001
 40
0.0
 40
0.0
 40
0.0
 40
0.0
 40
0.1250000000000008
 40
0.1250000000000008
 40
0.1875000000000012
 40
0.1875000000000012
 40
0.2500000000000017
 40
0.2500000000000017
 40
0.3750000000000025
 40
0.3750000000000025
 40
0.4375000000000024
 40
0.4375000000000024
 40
0.5000000000000024
 40
0.5000000000000024
 40
0.6250000000000018
 40
0.6250000000000018
 40
0.7500000000000012
 40
0.7500000000000012
 40
0.8750000000000006
 40
0.8750000000000006
 40
1.0
 40
1.0
 40
1.0
 40
1.0
 10
196.2069905826779
 20
50.99765048813611
 30
0.0
 10
196.3877895299816
 20
50.99765048872037
 30
0.0
 10
196.5632780679375
 20
51.03057360900447
 30
0.0
 10
196.8176855281349
 20
51.1291872224978
 30
0.0
 10
196.9009955823387
 20
51.17031856351134
 30
0.0
 10
197.0641832381082
 20
51.26983251101639
 30
0.0
 10
197.144496081202
 20
51.32861684208682
 30
0.0
 10
197.3755890482251
 20
51.52958251090455
 30
0.0
 10
197.5163504747829
 20
51.69520199556791
 30
0.0
 10
197.7028999453848
 20
51.99358720725111
 30
0.0
 10
197.7609440746983
 20
52.10144048332354
 30
0.0
 10
197.8673369971811
 20
52.3353280838074
 30
0.0
 10
197.9157888109859
 20
52.46203343052582
 30
0.0
 10
198.0403988446918
 20
52.86069820056105
 30
0.0
 10
198.0975789343431
 20
53.15362719523427
 30
0.0
 10
198.1494245167176
 20
53.7982054060169
 30
0.0
 10
198.1426941590025
 20
54.13909950893581
 30
0.0
 10
198.0630990028228
 20
54.84442081550772
 30
0.0
 10
197.9888703610163
 20
55.21298840303696
 30
0.0
 10
197.785208085098
 20
55.93679569101504
 30
0.0
 10
197.6545666462549
 20
56.29914208202629
 30
0.0
 10
197.5019266539851
 20
56.65375908542116
 30
0.0
  0
SPLINE
  5
101
330
1F
100
AcDbEntity
  8
0
  6
HIDDEN
 62
     7
370
    18
100
AcDbSpline
210
0.0
220
0.0
230
1.0
 70
     8
 71
     3
 72
     8
 73
     4
 74
     0
 42
0.00000001
 43
0.00000001
 40
0.0
 40
0.0
 40
0.0
 40
0.0
 40
1.0
 40
1.0
 40
1.0
 40
1.0
 10
252.3092128340068
 20
66.23067493342886
 30
0.0
 10
250.8899011344615
 20
62.79509198988589
 30
0.0
 10
249.5443931317064
 20
59.61445135890087
 30
0.0
 10
248.257885315369
 20
56.65375908542118
 30
0.0
  0
SPLINE
  5
102
330
1F
100
AcDbEntity
  8
0
  6
HIDDEN
 62
     7
370
    18
100
AcDbSpline
210
0.0
220
0.0
230
1.0
 70
     8
 71
     3
 72
     8
 73
     4
 74
     0
 42
0.00000001
 43
0.00000001
 40
0.0
 40
0.0
 40
0.0
 40
0.0
 40
1.0
 40
1.0
 40
1.0
 40
1.0
 10
197.5019266539851
 20
56.65375908542118
 30
0.0
 10
196.2259196632027
 20
59.61821007007749
 30
0.0
 10
194.8912750276108
 20
62.79904017391608
 30
0.0
 10
193.4835481349208
 20
66.23067493342886
 30
0.0
  0
SPLINE
  5
103
330
1F
100
AcDbEntity
  8
0
  6
HIDDEN
 62
     7
370
    18
100
AcDbSpline
210
0.0
220
0.0
230
1.0
 70
     8
 71
     3
 72
    26
 73
    22
 74
     0
 42
0.00000001
 43
0.00000001
 40
0.0
 40
0.0
 40
0.0
 40
0.0
 40
0.1249999999999998
 40
0.1249999999999998
 40
0.1875
 40
0.1875
 40
0.2500000000000002
 40
0.2500000000000002
 40
0.3750000000000004
 40
0.3750000000000004
 40
0.4375000000000001
 40
0.4375000000000001
 40
0.4999999999999998
 40
0.4999999999999998
 40
0.6249999999999999
 40
0.6249999999999999
 40
0.7499999999999999
 40
0.7499999999999999
 40
0.875
 40
0.875
 40
1.0
 40
1.0
 40
1.0
 40
1.0
 10
249.7930094220901
 20
50.99765048813611
 30
0.0
 10
249.6122104746326
 20
50.99765048813611
 30
0.0
 10
249.4367219342913
 20
51.03057360843049
 30
0.0
 10
249.1823144738711
 20
51.12918722157519
 30
0.0
 10
249.0990044195878
 20
51.1703185624825
 30
0.0
 10
248.9358167636485
 20
51.26983250979907
 30
0.0
 10
248.8555039204614
 20
51.32861684079087
 30
0.0
 10
248.6244109532221
 20
51.52958250934449
 30
0.0
 10
248.4836495264993
 20
51.69520199387399
 30
0.0
 10
248.2971000556301
 20
51.99358720544922
 30
0.0
 10
248.2390559262243
 20
52.10144048150132
 30
0.0
 10
248.1326630035543
 20
52.33532808198484
 30
0.0
 10
248.0842111896671
 20
52.46203342869344
 30
0.0
 10
247.9596011557284
 20
52.86069819870239
 30
0.0
 10
247.9024210659173
 20
53.15362719343013
 30
0.0
 10
247.8505754832859
 20
53.79820540454013
 30
0.0
 10
247.8573058409073
 20
54.13909950746493
 30
0.0
 10
247.9369009969804
 20
54.84442081443559
 30
0.0
 10
248.0111296387714
 20
55.21298840215574
 30
0.0
 10
248.2147919147316
 20
55.93679569053645
 30
0.0
 10
248.3454333536567
 20
56.29914208182085
 30
0.0
 10
248.4980733460149
 20
56.65375908542116
 30
0.0
  0
SPLINE
  5
104
330
1F
100
AcDbEntity
  8
0
  6
HIDDEN
 62
     7
370
    18
100
AcDbSpline
210
0.0
220
0.0
230
1.0
 70
     8
 71
     3
 72
     8
 73
     4
 74
     0
 42
0.00000001
 43
0.00000001
 40
0.0
 40
0.0
 40
0.0
 40
0.0
 40
1.0
 40
1.0
 40
1.0
 40
1.0
 10
248.4980733460149
 20
56.65375908542118
 30
0.0
 10
249.7740803367967
 20
59.61821007007602
 30
0.0
 10
251.1087249723881
 20
62.79904017391358
 30
0.0
 10
252.5164518650792
 20
66.23067493342886
 30
0.0
  0
SPLINE
  5
105
330
1F
100
AcDbEntity
  8
0
  6
HIDDEN
 62
     7
370
    18
100
AcDbSpline
210
0.0
220
0.0
230
1.0
 70
     8
 71
     3
 72
    28
 73
    24
 74
     0
 42
0.00000001
 43
0.00000001
 40
0.0
 40
0.0
 40
0.0
 40
0.0
 40
0.1249999999999994
 40
0.1249999999999994
 40
0.1874999999999993
 40
0.1874999999999993
 40
0.2499999999999992
 40
0.2499999999999992
 40
0.3124999999999991
 40
0.3124999999999991
 40
0.3749999999999989
 40
0.3749999999999989
 40
0.4999999999999984
 40
0.4999999999999984
 40
0.624999999999998
 40
0.624999999999998
 40
0.687499999999998
 40
0.687499999999998
 40
0.7499999999999981
 40
0.7499999999999981
 40
0.8749999999999991
 40
0.8749999999999991
 40
1.0
 40
1.0
 40
1.0
 40
1.0
 10
242.5003478031035
 20
56.65375908542118
 30
0.0
 10
242.5003478031035
 20
56.28873807833682
 30
0.0
 10
242.4647257273544
 20
55.92100294709691
 30
0.0
 10
242.3517859178445
 20
55.36450720006333
 30
0.0
 10
242.3036538324868
 20
55.17677807903453
 30
0.0
 10
242.1880108509473
 20
54.80783903369493
 30
0.0
 10
242.1207266300439
 20
54.62671751943402
 30
0.0
 10
241.9672293267745
 20
54.27120107259881
 30
0.0
 10
241.881017517383
 20
54.09680560451016
 30
0.0
 10
241.68907521324
 20
53.75500084429867
 30
0.0
 10
241.5830070882671
 20
53.58742997365093
 30
0.0
 10
241.244965335602
 20
53.1100284006415
 30
0.0
 10
240.9897532380387
 20
52.81907089542222
 30
0.0
 10
240.4270256389018
 20
52.29402773031834
 30
0.0
 10
240.1276054839851
 20
52.0670567536805
 30
0.0
 10
239.6532553004479
 20
51.7734046547912
 30
0.0
 10
239.4901598026587
 20
51.68309008620353
 30
0.0
 10
239.1606278952369
 20
51.52044135802254
 30
0.0
 10
238.9938977635105
 20
51.4478288549642
 30
0.0
 10
238.4878496031442
 20
51.25456575148498
 30
0.0
 10
238.1413080542874
 20
51.15802414304977
 30
0.0
 10
237.4381269208956
 20
51.02934202102161
 30
0.0
 10
237.0853348954957
 20
50.99765048813611
 30
0.0
 10
236.7311170338727
 20
50.99765048813611
 30
0.0
  0
SPLINE
  5
106
330
1F
100
AcDbEntity
  8
0
  6
HIDDEN
 62
     7
370
    18
100
AcDbSpline
210
0.0
220
0.0
230
1.0
 70
    24
 71
     3
 72
     8
 73
     4
 74
     0
 42
0.00000001
 43
0.00000001
 40
0.0
 40
0.0
 40
0.0
 40
0.0
 40
1.0
 40
1.0
 40
1.0
 40
1.0
 10
242.5003478031035
 20
66.23067493342886
 30
0.0
 10
242.5003478031035
 20
62.79509198988589
 30
0.0
 10
242.5003478031035
 20
59.61445135890087
 30
0.0
 10
242.5003478031035
 20
56.65375908542118
 30
0.0
  0
SPLINE
  5
107
330
1F
100
AcDbEntity
  8
0
  6
HIDDEN
 62
     7
370
    18
100
AcDbSpline
210
0.0
220
0.0
230
1.0
 70
     8
 71
     3
 72
    26
 73
    22
 74
     0
 42
0.00000001
 43
0.00000001
 40
0.0
 40
0.0
 40
0.0
 40
0.0
 40
0.1249999999999998
 40
0.1249999999999998
 40
0.1874999999999996
 40
0.1874999999999996
 40
0.2499999999999995
 40
0.2499999999999995
 40
0.3124999999999994
 40
0.3124999999999994
 40
0.3749999999999992
 40
0.3749999999999992
 40
0.4999999999999997
 40
0.4999999999999997
 40
0.6250000000000001
 40
0.6250000000000001
 40
0.75
 40
0.75
 40
0.875
 40
0.875
 40
1.0
 40
1.0
 40
1.0
 40
1.0
 10
197.742114684631
 20
56.65375908542117
 30
0.0
 10
197.8959656446362
 20
56.29969567222594
 30
0.0
 10
198.0260012680034
 20
55.9418861433805
 30
0.0
 10
198.1794234122323
 20
55.39842559341504
 30
0.0
 10
198.2238141181881
 20
55.21492304610294
 30
0.0
 10
198.2959194583716
 20
54.85154803134158
 30
0.0
 10
198.3235413143373
 20
54.67270837359091
 30
0.0
 10
198.3620478608655
 20
54.32081287523386
 30
0.0
 10
198.3729333425668
 20
54.1477562604105
 30
0.0
 10
198.3778092507156
 20
53.80771398297387
 30
0.0
 10
198.3716240827571
 20
53.63959115742453
 30
0.0
 10
198.3286284466663
 20
53.15827464117091
 30
0.0
 10
198.2681699991496
 20
52.86487981290018
 30
0.0
 10
198.0929871886547
 20
52.33044098671912
 30
0.0
 10
197.9806289792608
 20
52.09707231172671
 30
0.0
 10
197.7204837460986
 20
51.69604257407985
 30
0.0
 10
197.5715230729764
 20
51.52768548172325
 30
0.0
 10
197.2554129816189
 20
51.2623571191447
 30
0.0
 10
197.08641886094
 20
51.16300046455515
 30
0.0
 10
196.7336676946896
 20
51.03027323750715
 30
0.0
 10
196.5524438024905
 20
50.99765048813611
 30
0.0
 10
196.3671163229401
 20
50.99765048813611
 30
0.0
  0
SPLINE
  5
108
330
1F
100
AcDbEntity
  8
0
  6
HIDDEN
 62
     7
370
    18
100
AcDbSpline
210
0.0
220
0.0
230
1.0
 70
     8
 71
     3
 72
    26
 73
    22
 74
     0
 42
0.00000001
 43
0.00000001
 40
0.0
 40
0.0
 40
0.0
 40
0.0
 40
0.1250000000000002
 40
0.1250000000000002
 40
0.1875
 40
0.1875
 40
0.2499999999999998
 40
0.2499999999999998
 40
0.3749999999999994
 40
0.3749999999999994
 40
0.4999999999999996
 40
0.4999999999999996
 40
0.6249999999999997
 40
0.6249999999999997
 40
0.7499999999999997
 40
0.7499999999999997
 40
0.8749999999999998
 40
0.8749999999999998
 40
0.9374999999999999
 40
0.9374999999999999
 40
1.0
 40
1.0
 40
1.0
 40
1.0
 10
187.0730412387787
 20
50.99765048813611
 30
0.0
 10
187.2187838734038
 20
50.99765048813611
 30
0.0
 10
187.3680652315703
 20
51.03432968152668
 30
0.0
 10
187.5967224371495
 20
51.14012933872804
 30
0.0
 10
187.6737277450092
 20
51.18392886920154
 30
0.0
 10
187.8291735448349
 20
51.28867343834482
 30
0.0
 10
187.9080157484404
 20
51.35000239006482
 30
0.0
 10
188.1426615725449
 20
51.55710661981974
 30
0.0
 10
188.2968326418864
 20
51.725482379508
 30
0.0
 10
188.5983166180311
 20
52.12181842851928
 30
0.0
 10
188.747107839797
 20
52.35272898525113
 30
0.0
 10
189.0243970260872
 20
52.86275772290104
 30
0.0
 10
189.1533069375963
 20
53.1414671427853
 30
0.0
 10
189.387147231921
 20
53.74884130945121
 30
0.0
 10
189.4927480179013
 20
54.08150347763576
 30
0.0
 10
189.664249512593
 20
54.77048244355346
 30
0.0
 10
189.7315470227539
 20
55.12921343669282
 30
0.0
 10
189.8009079795344
 20
55.69035035307515
 30
0.0
 10
189.8187511401639
 20
55.88218523713967
 30
0.0
 10
189.8424493850509
 20
56.26654888107831
 30
0.0
 10
189.8484332740306
 20
56.45967464520579
 30
0.0
 10
189.8484332740306
 20
56.65375908542118
 30
0.0
  0
SPLINE
  5
109
330
1F
100
AcDbEntity
  8
0
  6
HIDDEN
 62
     7
370
    18
100
AcDbSpline
210
0.0
220
0.0
230
1.0
 70
     8
 71
     3
 72
     8
 73
     4
 74
     0
 42
0.00000001
 43
0.00000001
 40
0.0
 40
0.0
 40
0.0
 40
0.0
 40
1.0
 40
1.0
 40
1.0
 40
1.0
 10
193.6907871659932
 20
66.23067493342886
 30
0.0
 10
195.110098865538
 20
62.79509198988715
 30
0.0
 10
196.4556068682941
 20
59.61445135889978
 30
0.0
 10
197.742114684631
 20
56.65375908542118
 30
0.0
  0
SPLINE
  5
10A
330
1F
100
AcDbEntity
  8
0
  6
HIDDEN
 62
     7
370
    18
100
AcDbSpline
210
0.0
220
0.0
230
1.0
 70
     8
 71
     3
 72
    11
 73
     7
 74
     0
 42
0.00000001
 43
0.00000001
 40
0.0
 40
0.0
 40
0.0
 40
0.0
 40
0.2613535660541546
 40
0.5227093405975245
 40
0.784988988750092
 40
1.0
 40
1.0
 40
1.0
 40
1.0
 10
242.5003477933062
 20
60.80170420370331
 30
0.0
 10
243.1577761264551
 20
60.80187871251746
 30
0.0
 10
244.4726383481519
 20
60.80222773162041
 30
0.0
 10
246.3559475181812
 20
60.80300087595975
 30
0.0
 10
248.0675509417673
 20
60.80360877299857
 30
0.0
 10
249.1039125870356
 20
60.80374460419621
 30
0.0
 10
249.5707752020483
 20
60.80380579375145
 30
0.0
  0
SPLINE
  5
10B
330
1F
100
AcDbEntity
  8
0
  6
HIDDEN
 62
     7
370
    18
100
AcDbSpline
210
0.0
220
0.0
230
1.0
 70
     8
 71
     3
 72
     9
 73
     5
 74
     0
 42
0.00000001
 43
0.00000001
 40
0.0
 40
0.0
 40
0.0
 40
0.0
 40
0.4016763092642311
 40
1.0
 40
1.0
 40
1.0
 40
1.0
 10
252.3713448770554
 20
60.80345358950056
 30
0.0
 10
252.9620951928491
 20
60.803246596588
 30
0.0
 10
254.4328075604164
 20
60.80273127390709
 30
0.0
 10
255.6228789689627
 20
60.80208533055346
 30
0.0
 10
256.3349268863633
 20
60.80169884734212
 30
0.0
  0
SPLINE
  5
10C
330
1F
100
AcDbEntity
  8
0
  6
HIDDEN
 62
     7
370
    18
100
AcDbSpline
210
0.0
220
0.0
230
1.0
 70
     8
 71
     3
 72
    10
 73
     6
 74
     0
 42
0.00000001
 43
0.00000001
 40
0.0
 40
0.0
 40
0.0
 40
0.0
 40
0.3618555151792927
 40
0.7237072588209035
 40
1.0
 40
1.0
 40
1.0
 40
1.0
 10
189.8484332679184
 20
60.8017042000682
 30
0.0
 10
190.2620121053996
 20
60.8018821464383
 30
0.0
 10
191.0891654697239
 20
60.80223803732381
 30
0.0
 10
192.3583115215182
 20
60.80299535128288
 30
0.0
 10
193.2446547627223
 20
60.80331507721925
 30
0.0
 10
193.6284083006169
 20
60.80345350661491
 30
0.0
  0
SPLINE
  5
10D
330
1F
100
AcDbEntity
  8
0
  6
HIDDEN
 62
     7
370
    18
100
AcDbSpline
210
0.0
220
0.0
230
1.0
 70
     8
 71
     3
 72
    10
 73
     6
 74
     0
 42
0.00000001
 43
0.00000001
 40
0.0
 40
0.0
 40
0.0
 40
0.0
 40
0.1329549972156157
 40
0.5641958464517843
 40
1.0
 40
1.0
 40
1.0
 40
1.0
 10
196.4292326593351
 20
60.80380581997058
 30
0.0
 10
196.726247525768
 20
60.80379371444506
 30
0.0
 10
197.9866330508346
 20
60.80374234452767
 30
0.0
 10
200.411086873733
 20
60.80273379115351
 30
0.0
 10
202.6762430675925
 20
60.80204504400577
 30
0.0
 10
203.8147819837379
 20
60.80169885797532
 30
0.0
  0
SPLINE
  5
10E
330
1F
100
AcDbEntity
  8
0
  6
HIDDEN
 62
     7
370
    18
100
AcDbSpline
210
0.0
220
0.0
230
1.0
 70
     8
 71
     3
 72
    30
 73
    26
 74
     0
 42
0.00000001
 43
0.00000001
 40
0.0
 40
0.0
 40
0.0
 40
0.0
 40
0.1249999999999981
 40
0.1249999999999981
 40
0.2499999999999963
 40
0.2499999999999963
 40
0.3124999999999953
 40
0.3124999999999953
 40
0.3749999999999944
 40
0.3749999999999944
 40
0.4062499999999947
 40
0.4062499999999947
 40
0.4374999999999949
 40
0.4374999999999949
 40
0.4687499999999952
 40
0.4687499999999952
 40
0.4999999999999954
 40
0.4999999999999954
 40
0.5624999999999963
 40
0.5624999999999963
 40
0.6249999999999971
 40
0.6249999999999971
 40
0.7499999999999974
 40
0.7499999999999974
 40
1.0
 40
1.0
 40
1.0
 40
1.0
 10
189.8484332681834
 20
60.80170420100921
 30
0.0
 10
189.4873947929011
 20
60.85968439263636
 30
0.0
 10
189.1296437276119
 20
60.92933573633556
 30
0.0
 10
188.425757750902
 20
61.10987876143916
 30
0.0
 10
188.0790489120365
 20
61.21873285261294
 30
0.0
 10
187.5788200101184
 20
61.4524310624036
 30
0.0
 10
187.4164098745264
 20
61.54213934262015
 30
0.0
 10
187.1186768010053
 20
61.76022235260341
 30
0.0
 10
186.9833586300994
 20
61.88841857029157
 30
0.0
 10
186.8346195449989
 20
62.12450976613339
 30
0.0
 10
186.7960417657701
 20
62.20794280832038
 30
0.0
 10
186.7440969695736
 20
62.38566132875941
 30
0.0
 10
186.7314905809945
 20
62.47817387257926
 30
0.0
 10
186.7300683435031
 20
62.66253845127952
 30
0.0
 10
186.7411772268297
 20
62.75563585794804
 30
0.0
 10
186.7798318881621
 20
62.93512836441136
 30
0.0
 10
186.8073364039546
 20
63.02275899473432
 30
0.0
 10
186.9076993285143
 20
63.28103284774902
 30
0.0
 10
186.9961076918205
 20
63.44267430279131
 30
0.0
 10
187.1931831326324
 20
63.75084375600669
 30
0.0
 10
187.3030938898226
 20
63.89851570210993
 30
0.0
 10
187.6514053715069
 20
64.32576268593134
 30
0.0
 10
187.9049324861107
 20
64.58711087571093
 30
0.0
 10
188.69578720855
 20
65.33780967715819
 30
0.0
 10
189.2637458450565
 20
65.79342057364914
 30
0.0
 10
189.8487280453621
 20
66.23028021630398
 30
0.0
  0
LINE
  5
10F
330
1F
100
AcDbEntity
  8
0
  6
HIDDEN
 62
     7
370
    18
100
AcDbLine
 10
189.848433274
 20
56.6537590854
 30
0.0
 11
189.8484332679
 21
60.8017042001
 31
0.0
  0
ENDSEC
  0
SECTION
  2
OBJECTS
  0
DICTIONARY
  5
C
330
0
100
AcDbDictionary
281
     1
  3
ACAD_GROUP
350
D
  3
ACAD_LAYOUT
350
1A
  3
ACAD_MLINESTYLE
350
17
  3
ACAD_PLOTSETTINGS
350
19
  3
ACAD_PLOTSTYLENAME
350
E
  3
ACAD_SCALELIST
350
47
  3
DWGPROPS
350
110
  0
DICTIONARY
  5
D
102
{ACAD_REACTORS
330
C
102
}
330
C
100
AcDbDictionary
281
     1
  0
DICTIONARY
  5
1A
102
{ACAD_REACTORS
330
C
102
}
330
C
100
AcDbDictionary
281
     1
  3
Layout1
350
1E
  3
Layout2
350
26
  3
Model
350
22
  0
DICTIONARY
  5
17
102
{ACAD_REACTORS
330
C
102
}
330
C
100
AcDbDictionary
281
     1
  3
Standard
350
18
  0
DICTIONARY
  5
19
102
{ACAD_REACTORS
330
C
102
}
330
C
100
AcDbDictionary
281
     1
  0
ACDBDICTIONARYWDFLT
  5
E
102
{ACAD_REACTORS
330
C
102
}
330
C
100
AcDbDictionary
281
     1
  3
Normal
350
F
100
AcDbDictionaryWithDefault
340
F
  0
DICTIONARY
  5
47
102
{ACAD_REACTORS
330
C
102
}
330
C
100
AcDbDictionary
281
     1
  3
A0
350
48
  3
A1
350
49
  3
A2
350
4A
  3
A3
350
4B
  3
A4
350
4C
  3
A5
350
4D
  3
A6
350
4E
  3
A7
350
4F
  3
A8
350
50
  3
A9
350
51
  3
B0
350
52
  3
B1
350
53
  3
B2
350
54
  3
B3
350
55
  3
B4
350
56
  3
B5
350
57
  3
B6
350
58
  0
XRECORD
  5
110
102
{ACAD_REACTORS
330
C
102
}
330
C
100
AcDbXrecord
280
     1
  1
DWGPROPS COOKIE
  2

  3

  4

  6

  7

  8

  9

300
=
301
=
302
=
303
=
304
=
305
=
306
=
307
=
308
=
309
=
 40
0.0
 41
2461215.341512327
 42
2461215.341513218
  1

 90
        0
  0
LAYOUT
  5
1E
102
{ACAD_REACTORS
330
1A
102
}
330
1A
100
AcDbPlotSettings
  1

  2
none_device
  4

  6

 40
0.0
 41
0.0
 42
0.0
 43
0.0
 44
0.0
 45
0.0
 46
0.0
 47
0.0
 48
0.0
 49
0.0
140
0.0
141
0.0
142
1.0
143
1.0
 70
   688
 72
     1
 73
     0
 74
     5
  7

 75
    16
147
1.0
148
0.0
149
0.0
100
AcDbLayout
  1
Layout1
 70
     1
 71
     1
 10
0.0
 20
0.0
 11
420.0
 21
297.0
 12
0.0
 22
0.0
 32
0.0
 14
1.0000000000E+20
 24
1.0000000000E+20
 34
1.0000000000E+20
 15
-1.0000000000E+20
 25
-1.0000000000E+20
 35
-1.0000000000E+20
146
0.0
 13
0.0
 23
0.0
 33
0.0
 16
1.0
 26
0.0
 36
0.0
 17
0.0
 27
1.0
 37
0.0
 76
     0
330
1B
  0
LAYOUT
  5
26
102
{ACAD_REACTORS
330
1A
102
}
330
1A
100
AcDbPlotSettings
  1

  2
none_device
  4

  6

 40
0.0
 41
0.0
 42
0.0
 43
0.0
 44
0.0
 45
0.0
 46
0.0
 47
0.0
 48
0.0
 49
0.0
140
0.0
141
0.0
142
1.0
143
1.0
 70
   688
 72
     1
 73
     0
 74
     5
  7

 75
    16
147
1.0
148
0.0
149
0.0
100
AcDbLayout
  1
Layout2
 70
     1
 71
     2
 10
0.0
 20
0.0
 11
0.0
 21
0.0
 12
0.0
 22
0.0
 32
0.0
 14
0.0
 24
0.0
 34
0.0
 15
0.0
 25
0.0
 35
0.0
146
0.0
 13
0.0
 23
0.0
 33
0.0
 16
1.0
 26
0.0
 36
0.0
 17
0.0
 27
1.0
 37
0.0
 76
     0
330
23
  0
LAYOUT
  5
22
102
{ACAD_REACTORS
330
1A
102
}
330
1A
100
AcDbPlotSettings
  1

  2
none_device
  4
Letter_(8.50_x_11.00_Inches)
  6

 40
6.35
 41
6.35
 42
6.35000508
 43
6.35000508
 44
215.9
 45
279.4
 46
0.0
 47
0.0
 48
0.0
 49
0.0
140
0.0
141
0.0
142
1.0
143
1.0
 70
  1712
 72
     1
 73
     0
 74
     0
  7

 75
     0
147
1.0
148
0.0
149
0.0
100
AcDbLayout
  1
Model
 70
     1
 71
     0
 10
0.0
 20
0.0
 11
297.0
 21
210.0
 12
0.0
 22
0.0
 32
0.0
 14
0.0
 24
0.0
 34
0.0
 15
297.0
 25
210.0
 35
0.0
146
0.0
 13
0.0
 23
0.0
 33
0.0
 16
1.0
 26
0.0
 36
0.0
 17
0.0
 27
1.0
 37
0.0
 76
     0
330
1F
331
29
  0
MLINESTYLE
  5
18
102
{ACAD_REACTORS
330
17
102
}
330
17
100
AcDbMlineStyle
  2
Standard
 70
     0
  3

 62
   256
 51
90.0
 52
90.0
 71
     2
 49
0.5
 62
   256
  6
BYLAYER
 49
-0.5
 62
   256
  6
BYLAYER
  0
ACDBPLACEHOLDER
  5
F
102
{ACAD_REACTORS
330
E
102
}
330
E
  0
SCALE
  5
48
102
{ACAD_REACTORS
330
47
102
}
330
47
100
AcDbScale
 70
     0
300
1:1
140
1.0
141
1.0
290
     1
  0
SCALE
  5
49
102
{ACAD_REACTORS
330
47
102
}
330
47
100
AcDbScale
 70
     0
300
1:2
140
1.0
141
2.0
290
     0
  0
SCALE
  5
4A
102
{ACAD_REACTORS
330
47
102
}
330
47
100
AcDbScale
 70
     0
300
1:4
140
1.0
141
4.0
290
     0
  0
SCALE
  5
4B
102
{ACAD_REACTORS
330
47
102
}
330
47
100
AcDbScale
 70
     0
300
1:5
140
1.0
141
5.0
290
     0
  0
SCALE
  5
4C
102
{ACAD_REACTORS
330
47
102
}
330
47
100
AcDbScale
 70
     0
300
1:8
140
1.0
141
8.0
290
     0
  0
SCALE
  5
4D
102
{ACAD_REACTORS
330
47
102
}
330
47
100
AcDbScale
 70
     0
300
1:10
140
1.0
141
10.0
290
     0
  0
SCALE
  5
4E
102
{ACAD_REACTORS
330
47
102
}
330
47
100
AcDbScale
 70
     0
300
1:16
140
1.0
141
16.0
290
     0
  0
SCALE
  5
4F
102
{ACAD_REACTORS
330
47
102
}
330
47
100
AcDbScale
 70
     0
300
1:20
140
1.0
141
20.0
290
     0
  0
SCALE
  5
50
102
{ACAD_REACTORS
330
47
102
}
330
47
100
AcDbScale
 70
     0
300
1:30
140
1.0
141
30.0
290
     0
  0
SCALE
  5
51
102
{ACAD_REACTORS
330
47
102
}
330
47
100
AcDbScale
 70
     0
300
1:40
140
1.0
141
40.0
290
     0
  0
SCALE
  5
52
102
{ACAD_REACTORS
330
47
102
}
330
47
100
AcDbScale
 70
     0
300
1:50
140
1.0
141
50.0
290
     0
  0
SCALE
  5
53
102
{ACAD_REACTORS
330
47
102
}
330
47
100
AcDbScale
 70
     0
300
1:100
140
1.0
141
100.0
290
     0
  0
SCALE
  5
54
102
{ACAD_REACTORS
330
47
102
}
330
47
100
AcDbScale
 70
     0
300
2:1
140
2.0
141
1.0
290
     0
  0
SCALE
  5
55
102
{ACAD_REACTORS
330
47
102
}
330
47
100
AcDbScale
 70
     0
300
4:1
140
4.0
141
1.0
290
     0
  0
SCALE
  5
56
102
{ACAD_REACTORS
330
47
102
}
330
47
100
AcDbScale
 70
     0
300
8:1
140
8.0
141
1.0
290
     0
  0
SCALE
  5
57
102
{ACAD_REACTORS
330
47
102
}
330
47
100
AcDbScale
 70
     0
300
10:1
140
10.0
141
1.0
290
     0
  0
SCALE
  5
58
102
{ACAD_REACTORS
330
47
102
}
330
47
100
AcDbScale
 70
     0
300
100:1
140
100.0
141
1.0
290
     0
  0
ENDSEC
  0
EOF
