  0
SECTION
  2
HEADER
  9
$ACADVER
  1
AC1015
  9
$ACADMAINTVER
 70
     6
  9
$DWGCODEPAGE
  3
ANSI_936
  9
$INSBASE
 10
0.0
 20
0.0
 30
0.0
  9
$EXTMIN
 10
0.0
 20
0.0
 30
0.0
  9
$EXTMAX
 10
297.0
 20
210.0
 30
0.0
  9
$LIMMIN
 10
0.0
 20
0.0
  9
$LIMMAX
 10
297.0
 20
210.0
  9
$ORTHOMODE
 70
     0
  9
$REGENMODE
 70
     1
  9
$FILLMODE
 70
     1
  9
$QTEXTMODE
 70
     0
  9
$MIRRTEXT
 70
     1
  9
$LTSCALE
 40
1.0
  9
$ATTMODE
 70
     1
  9
$TEXTSIZE
 40
3.5
  9
$TRACEWID
 40
1.0
  9
$TEXTSTYLE
  7
Standard
  9
$CLAYER
  8
0
  9
$CELTYPE
  6
ByLayer
  9
$CECOLOR
 62
   256
  9
$CELTSCALE
 40
1.0
  9
$DISPSILH
 70
     0
  9
$DIMSCALE
 40
1.0
  9
$DIMASZ
 40
4.08
  9
$DIMEXO
 40
0.0
  9
$DIMDLI
 40
3.75
  9
$DIMRND
 40
0.0
  9
$DIMDLE
 40
0.0
  9
$DIMEXE
 40
2.0
  9
$DIMTP
 40
0.0
  9
$DIMTM
 40
0.0
  9
$DIMTXT
 40
3.5
  9
$DIMCEN
 40
2.5
  9
$DIMTSZ
 40
0.0
  9
$DIMTOL
 70
     0
  9
$DIMLIM
 70
     0
  9
$DIMTIH
 70
     1
  9
$DIMTOH
 70
     1
  9
$DIMSE1
 70
     0
  9
$DIMSE2
 70
     0
  9
$DIMTAD
 70
     1
  9
$DIMZIN
 70
     0
  9
$DIMBLK
  1

  9
$DIMASO
 70
     1
  9
$DIMSHO
 70
     1
  9
$DIMPOST
  1

  9
$DIMAPOST
  1

  9
$DIMALT
 70
     0
  9
$DIMALTD
 70
     3
  9
$DIMALTF
 40
0.0393700787
  9
$DIMLFAC
 40
2.0
  9
$DIMTOFL
 70
     1
  9
$DIMTVP
 40
0.0
  9
$DIMTIX
 70
     0
  9
$DIMSOXD
 70
     0
  9
$DIMSAH
 70
     0
  9
$DIMBLK1
  1

  9
$DIMBLK2
  1

  9
$DIMSTYLE
  2
ISO-25
  9
$DIMCLRD
 70
     0
  9
$DIMCLRE
 70
     0
  9
$DIMCLRT
 70
     0
  9
$DIMTFAC
 40
1.0
  9
$DIMGAP
 40
1.524
  9
$DIMJUST
 70
     0
  9
$DIMSD1
 70
     0
  9
$DIMSD2
 70
     0
  9
$DIMTOLJ
 70
     0
  9
$DIMTZIN
 70
     0
  9
$DIMALTZ
 70
     0
  9
$DIMALTTZ
 70
     0
  9
$DIMUPT
 70
     0
  9
$DIMDEC
 70
     2
  9
$DIMTDEC
 70
     2
  9
$DIMALTU
 70
     2
  9
$DIMALTTD
 70
     3
  9
$DIMTXSTY
  7
Standard
  9
$DIMAUNIT
 70
     0
  9
$DIMADEC
 70
     2
  9
$DIMALTRND
 40
0.0
  9
$DIMAZIN
 70
     0
  9
$DIMDSEP
 70
    44
  9
$DIMATFIT
 70
     3
  9
$DIMFRAC
 70
     0
  9
$DIMLDRBLK
  1

  9
$DIMLUNIT
 70
     2
  9
$DIMLWD
 70
    -2
  9
$DIMLWE
 70
    -2
  9
$DIMTMOVE
 70
     0
  9
$LUNITS
 70
     2
  9
$LUPREC
 70
     2
  9
$SKETCHINC
 40
1.0
  9
$FILLETRAD
 40
0.0
  9
$AUNITS
 70
     0
  9
$AUPREC
 70
     2
  9
$MENU
  1
.
  9
$ELEVATION
 40
0.0
  9
$PELEVATION
 40
0.0
  9
$THICKNESS
 40
0.0
  9
$LIMCHECK
 70
     0
  9
$CHAMFERA
 40
0.0
  9
$CHAMFERB
 40
0.0
  9
$CHAMFERC
 40
0.0
  9
$CHAMFERD
 40
0.0
  9
$SKPOLY
 70
     0
  9
$TDCREATE
 40
2461214.909033461
  9
$TDUCREATE
 40
2461214.575700128
  9
$TDUPDATE
 40
2461214.909033739
  9
$TDUUPDATE
 40
2461214.575700405
  9
$TDINDWG
 40
0.0000000116
  9
$TDUSRTIMER
 40
0.0000000116
  9
$USRTIMER
 70
     1
  9
$ANGBASE
 50
0.0
  9
$ANGDIR
 70
     0
  9
$PDMODE
 70
     0
  9
$PDSIZE
 40
-1.0
  9
$PLINEWID
 40
0.0
  9
$SPLFRAME
 70
     0
  9
$SPLINETYPE
 70
     6
  9
$SPLINESEGS
 70
     8
  9
$HANDSEED
  5
86
  9
$SURFTAB1
 70
     6
  9
$SURFTAB2
 70
     6
  9
$SURFTYPE
 70
     6
  9
$SURFU
 70
     6
  9
$SURFV
 70
     6
  9
$UCSBASE
  2

  9
$UCSNAME
  2

  9
$UCSORG
 10
0.0
 20
0.0
 30
0.0
  9
$UCSXDIR
 10
1.0
 20
0.0
 30
0.0
  9
$UCSYDIR
 10
0.0
 20
1.0
 30
0.0
  9
$UCSORTHOREF
  2

  9
$UCSORTHOVIEW
 70
     0
  9
$UCSORGTOP
 10
0.0
 20
0.0
 30
0.0
  9
$UCSORGBOTTOM
 10
0.0
 20
0.0
 30
0.0
  9
$UCSORGLEFT
 10
0.0
 20
0.0
 30
0.0
  9
$UCSORGRIGHT
 10
0.0
 20
0.0
 30
0.0
  9
$UCSORGFRONT
 10
0.0
 20
0.0
 30
0.0
  9
$UCSORGBACK
 10
0.0
 20
0.0
 30
0.0
  9
$PUCSBASE
  2

  9
$PUCSNAME
  2

  9
$PUCSORG
 10
0.0
 20
0.0
 30
0.0
  9
$PUCSXDIR
 10
1.0
 20
0.0
 30
0.0
  9
$PUCSYDIR
 10
0.0
 20
1.0
 30
0.0
  9
$PUCSORTHOREF
  2

  9
$PUCSORTHOVIEW
 70
     0
  9
$PUCSORGTOP
 10
0.0
 20
0.0
 30
0.0
  9
$PUCSORGBOTTOM
 10
0.0
 20
0.0
 30
0.0
  9
$PUCSORGLEFT
 10
0.0
 20
0.0
 30
0.0
  9
$PUCSORGRIGHT
 10
0.0
 20
0.0
 30
0.0
  9
$PUCSORGFRONT
 10
0.0
 20
0.0
 30
0.0
  9
$PUCSORGBACK
 10
0.0
 20
0.0
 30
0.0
  9
$USERI1
 70
     0
  9
$USERI2
 70
     0
  9
$USERI3
 70
     0
  9
$USERI4
 70
     0
  9
$USERI5
 70
     0
  9
$USERR1
 40
0.0
  9
$USERR2
 40
0.0
  9
$USERR3
 40
0.0
  9
$USERR4
 40
0.0
  9
$USERR5
 40
0.0
  9
$WORLDVIEW
 70
     1
  9
$SHADEDGE
 70
     3
  9
$SHADEDIF
 70
    70
  9
$TILEMODE
 70
     1
  9
$MAXACTVP
 70
    64
  9
$PINSBASE
 10
0.0
 20
0.0
 30
0.0
  9
$PLIMCHECK
 70
     0
  9
$PEXTMIN
 10
1.0000000000E+20
 20
1.0000000000E+20
 30
1.0000000000E+20
  9
$PEXTMAX
 10
-1.0000000000E+20
 20
-1.0000000000E+20
 30
-1.0000000000E+20
  9
$PLIMMIN
 10
0.0
 20
0.0
  9
$PLIMMAX
 10
420.0
 20
297.0
  9
$UNITMODE
 70
     0
  9
$VISRETAIN
 70
     1
  9
$PLINEGEN
 70
     0
  9
$PSLTSCALE
 70
     1
  9
$TREEDEPTH
 70
  3020
  9
$CMLSTYLE
  2
Standard
  9
$CMLJUST
 70
     0
  9
$CMLSCALE
 40
20.0
  9
$PROXYGRAPHICS
 70
     1
  9
$MEASUREMENT
 70
     1
  9
$CELWEIGHT
370
    -1
  9
$ENDCAPS
280
     0
  9
$JOINSTYLE
280
     0
  9
$LWDISPLAY
290
     1
  9
$INSUNITS
 70
     4
  9
$HYPERLINKBASE
  1

  9
$STYLESHEET
  1

  9
$XEDIT
290
     1
  9
$CEPSNTYPE
380
     0
  9
$PSTYLEMODE
290
     1
  9
$FINGERPRINTGUID
  2
{9a86da91-2a4b-47b1-93c7-b50fedbbb9e5}
  9
$VERSIONGUID
  2
{FAEB1C32-E019-11D5-929B-00C0DF256EC4}
  9
$EXTNAMES
290
     1
  9
$PSVPSCALE
 40
0.0
  9
$OLESTARTUP
290
     0
  0
ENDSEC
  0
SECTION
  2
CLASSES
  0
CLASS
  1
ACDBDICTIONARYWDFLT
  2
AcDbDictionaryWithDefault
  3
ObjectDBX Classes
 90
        0
280
     0
281
     0
  0
CLASS
  1
VISUALSTYLE
  2
AcDbVisualStyle
  3
ObjectDBX Classes
 90
     4095
280
     0
281
     0
  0
CLASS
  1
MATERIAL
  2
AcDbMaterial
  3
ObjectDBX Classes
 90
     1153
280
     0
281
     0
  0
CLASS
  1
SCALE
  2
AcDbScale
  3
ObjectDBX Classes
 90
     1153
280
     0
281
     0
  0
CLASS
  1
TABLESTYLE
  2
AcDbTableStyle
  3
ObjectDBX Classes
 90
     4095
280
     0
281
     0
  0
CLASS
  1
MLEADERSTYLE
  2
AcDbMLeaderStyle
  3
ACDB_MLEADERSTYLE_CLASS
 90
     4095
280
     0
281
     0
  0
CLASS
  1
SUN
  2
AcDbSun
  3
SCENEOE
 90
     1153
280
     0
281
     0
  0
CLASS
  1
ACDBPLACEHOLDER
  2
AcDbPlaceHolder
  3
ObjectDBX Classes
 90
        0
280
     0
281
     0
  0
CLASS
  1
LAYOUT
  2
AcDbLayout
  3
ObjectDBX Classes
 90
        0
280
     0
281
     0
  0
ENDSEC
  0
SECTION
  2
TABLES
  0
TABLE
  2
VPORT
  5
8
330
0
100
AcDbSymbolTable
 70
     1
  0
VPORT
  5
29
330
8
100
AcDbSymbolTableRecord
100
AcDbViewportTableRecord
  2
*Active
 70
     0
 10
0.0
 20
0.0
 11
1.0
 21
1.0
 12
148.5
 22
105.0
 13
0.0
 23
0.0
 14
10.0
 24
10.0
 15
10.0
 25
10.0
 16
0.0
 26
0.0
 36
1.0
 17
0.0
 27
0.0
 37
0.0
 40
210.0
 41
1.4142857143
 42
50.0
 43
0.0
 44
0.0
 50
0.0
 51
0.0
 71
     0
 72
  2000
 73
     1
 74
     3
 75
     0
 76
     0
 77
     0
 78
     0
281
     0
 65
     1
110
0.0
120
0.0
130
0.0
111
1.0
121
0.0
131
0.0
112
0.0
122
1.0
132
0.0
 79
     0
146
0.0
  0
ENDTAB
  0
TABLE
  2
LTYPE
  5
5
330
0
100
AcDbSymbolTable
 70
     6
  0
LTYPE
  5
14
330
5
100
AcDbSymbolTableRecord
100
AcDbLinetypeTableRecord
  2
ByBlock
 70
     0
  3

 72
    65
 73
     0
 40
0.0
  0
LTYPE
  5
15
330
5
100
AcDbSymbolTableRecord
100
AcDbLinetypeTableRecord
  2
ByLayer
 70
     0
  3

 72
    65
 73
     0
 40
0.0
  0
LTYPE
  5
16
330
5
100
AcDbSymbolTableRecord
100
AcDbLinetypeTableRecord
  2
Continuous
 70
     0
  3
Solid line
 72
    65
 73
     0
 40
0.0
  0
LTYPE
  5
5E
330
5
100
AcDbSymbolTableRecord
100
AcDbLinetypeTableRecord
  2
HIDDEN
 70
     0
  3
Hidden __ __ __ __ __ __ __ __ __ __ __ __ __ __
 72
    65
 73
     2
 40
1.905
 49
1.27
 74
     0
 49
-0.635
 74
     0
  0
LTYPE
  5
5F
330
5
100
AcDbSymbolTableRecord
100
AcDbLinetypeTableRecord
  2
PHANTOM
 70
     0
  3
Phantom ______  __  __  ______  __  __  ______
 72
    65
 73
     6
 40
12.7
 49
6.35
 74
     0
 49
-1.27
 74
     0
 49
1.27
 74
     0
 49
-1.27
 74
     0
 49
1.27
 74
     0
 49
-1.27
 74
     0
  0
LTYPE
  5
60
330
5
100
AcDbSymbolTableRecord
100
AcDbLinetypeTableRecord
  2
CENTER
 70
     0
  3
Center ____ _ ____ _ ____ _ ____ _ ____ _ ____
 72
    65
 73
     4
 40
10.16
 49
6.35
 74
     0
 49
-1.27
 74
     0
 49
1.27
 74
     0
 49
-1.27
 74
     0
  0
LTYPE
  5
61
330
5
100
AcDbSymbolTableRecord
100
AcDbLinetypeTableRecord
  2
CENTERX2
 70
     0
  3
Center (2x) ________  __  ________  __  _____
 72
    65
 73
     4
 40
20.32
 49
12.7
 74
     0
 49
-2.54
 74
     0
 49
2.54
 74
     0
 49
-2.54
 74
     0
  0
LTYPE
  5
62
330
5
100
AcDbSymbolTableRecord
100
AcDbLinetypeTableRecord
  2
DOT2
 70
     0
  3
Dot (.5x) ........................................
 72
    65
 73
     2
 40
0.635
 49
0.0
 74
     0
 49
-0.635
 74
     0
  0
ENDTAB
  0
TABLE
  2
LAYER
  5
2
330
0
100
AcDbSymbolTable
 70
    14
  0
LAYER
  5
10
330
2
100
AcDbSymbolTableRecord
100
AcDbLayerTableRecord
  2
0
 70
     0
 62
     7
  6
Continuous
370
    -3
390
F
  0
LAYER
  5
63
330
2
100
AcDbSymbolTableRecord
100
AcDbLayerTableRecord
  2
SLD-0
 70
     0
 62
     7
  6
Continuous
370
    -3
390
F
  0
LAYER
  5
64
330
2
100
AcDbSymbolTableRecord
100
AcDbLayerTableRecord
  2
5
 70
     0
 62
     7
  6
Continuous
370
    -3
390
F
  0
LAYER
  5
65
330
2
100
AcDbSymbolTableRecord
100
AcDbLayerTableRecord
  2
9
 70
     0
 62
     7
  6
Continuous
370
    -3
390
F
  0
LAYER
  5
66
330
2
100
AcDbSymbolTableRecord
100
AcDbLayerTableRecord
  2
10
 70
     0
 62
     7
  6
Continuous
370
    -3
390
F
  0
LAYER
  5
67
330
2
100
AcDbSymbolTableRecord
100
AcDbLayerTableRecord
  2
轮廓实线层
 70
     0
 62
     7
  6
Continuous
370
    50
390
F
  0
LAYER
  5
68
330
2
100
AcDbSymbolTableRecord
100
AcDbLayerTableRecord
  2
细线层
 70
     0
 62
     4
  6
Continuous
370
    25
390
F
  0
LAYER
  5
69
330
2
100
AcDbSymbolTableRecord
100
AcDbLayerTableRecord
  2
中心线层
 70
     0
 62
     1
  6
CENTERX2
370
    25
390
F
  0
LAYER
  5
6A
330
2
100
AcDbSymbolTableRecord
100
AcDbLayerTableRecord
  2
虚线层
 70
     0
 62
     6
  6
HIDDEN
370
    25
390
F
  0
LAYER
  5
6B
330
2
100
AcDbSymbolTableRecord
100
AcDbLayerTableRecord
  2
剖面线层
 70
     0
 62
     2
  6
Continuous
370
    25
390
F
  0
LAYER
  5
6C
330
2
100
AcDbSymbolTableRecord
100
AcDbLayerTableRecord
  2
文字层
 70
     0
 62
     3
  6
Continuous
370
    25
390
F
  0
LAYER
  5
6D
330
2
100
AcDbSymbolTableRecord
100
AcDbLayerTableRecord
  2
标注层
 70
     0
 62
     4
  6
Continuous
370
    25
390
F
  0
LAYER
  5
6E
330
2
100
AcDbSymbolTableRecord
100
AcDbLayerTableRecord
  2
符号标注层
 70
     0
 62
    31
  6
Continuous
370
    25
390
F
  0
LAYER
  5
6F
330
2
100
AcDbSymbolTableRecord
100
AcDbLayerTableRecord
  2
双点划线层
 70
     0
 62
     6
  6
PHANTOM
370
    25
390
F
  0
ENDTAB
  0
TABLE
  2
STYLE
  5
3
330
0
100
AcDbSymbolTable
 70
     1
  0
STYLE
  5
11
330
3
100
AcDbSymbolTableRecord
100
AcDbTextStyleTableRecord
  2
Standard
 70
     0
 40
0.0
 41
1.0
 50
0.0
 71
     0
 42
3.5
  3
txt
  4

  0
ENDTAB
  0
TABLE
  2
VIEW
  5
6
330
0
100
AcDbSymbolTable
 70
     0
  0
ENDTAB
  0
TABLE
  2
UCS
  5
7
330
0
100
AcDbSymbolTable
 70
     0
  0
ENDTAB
  0
TABLE
  2
APPID
  5
9
330
0
100
AcDbSymbolTable
 70
     1
  0
APPID
  5
12
330
9
100
AcDbSymbolTableRecord
100
AcDbRegAppTableRecord
  2
ACAD
 70
     0
  0
ENDTAB
  0
TABLE
  2
DIMSTYLE
  5
A
330
0
100
AcDbSymbolTable
 70
     1
100
AcDbDimStyleTable
  0
DIMSTYLE
105
27
330
A
100
AcDbSymbolTableRecord
100
AcDbDimStyleTableRecord
  2
ISO-25
 70
     0
 41
2.5
 42
0.625
 43
3.75
 44
1.25
 73
     0
 74
     0
 77
     1
 78
     8
140
2.5
141
2.5
143
0.0393700787
147
0.625
171
     3
172
     1
178
     0
271
     2
272
     2
274
     3
278
    44
283
     0
284
     8
340
11
  0
ENDTAB
  0
TABLE
  2
BLOCK_RECORD
  5
1
330
0
100
AcDbSymbolTable
 70
     1
  0
BLOCK_RECORD
  5
1F
330
1
100
AcDbSymbolTableRecord
100
AcDbBlockTableRecord
  2
*Model_Space
340
22
  0
BLOCK_RECORD
  5
1B
330
1
100
AcDbSymbolTableRecord
100
AcDbBlockTableRecord
  2
*Paper_Space
340
1E
  0
BLOCK_RECORD
  5
23
330
1
100
AcDbSymbolTableRecord
100
AcDbBlockTableRecord
  2
*Paper_Space0
340
26
  0
ENDTAB
  0
ENDSEC
  0
SECTION
  2
BLOCKS
  0
BLOCK
  5
20
330
1F
100
AcDbEntity
  8
0
100
AcDbBlockBegin
  2
*Model_Space
 70
     0
 10
0.0
 20
0.0
 30
0.0
  3
*Model_Space
  1

  0
ENDBLK
  5
21
330
1F
100
AcDbEntity
  8
0
100
AcDbBlockEnd
  0
BLOCK
  5
1C
330
1B
100
AcDbEntity
 67
     1
  8
0
100
AcDbBlockBegin
  2
*Paper_Space
 70
     0
 10
0.0
 20
0.0
 30
0.0
  3
*Paper_Space
  1

  0
ENDBLK
  5
1D
330
1B
100
AcDbEntity
 67
     1
  8
0
100
AcDbBlockEnd
  0
BLOCK
  5
24
330
23
100
AcDbEntity
  8
0
100
AcDbBlockBegin
  2
*Paper_Space0
 70
     0
 10
0.0
 20
0.0
 30
0.0
  3
*Paper_Space0
  1

  0
ENDBLK
  5
25
330
23
100
AcDbEntity
  8
0
100
AcDbBlockEnd
  0
ENDSEC
  0
SECTION
  2
ENTITIES
  0
SPLINE
  5
70
330
1F
100
AcDbEntity
  8
0
  6
Continuous
 62
     7
370
    25
100
AcDbSpline
210
0.0
220
0.0
230
1.0
 70
    11
 71
     3
 72
    67
 73
    63
 74
     0
 42
0.00000001
 43
0.00000001
 40
0.0
 40
0.0
 40
0.0
 40
0.0
 40
0.0182636660999485
 40
0.035297473425952
 40
0.0511028127275992
 40
0.0656784683125622
 40
0.0831957562671059
 40
0.0985287914434663
 40
0.1116755798371898
 40
0.1226353600467164
 40
0.1317532598122083
 40
0.1407261067000136
 40
0.1497823024697434
 40
0.1589215312707181
 40
0.1681437040026781
 40
0.1868302050426638
 40
0.2056955222994551
 40
0.2245605870048744
 40
0.2434270367765154
 40
0.2622925213561056
 40
0.281157576738327
 40
0.3000240100790803
 40
0.3188890282726911
 40
0.3377541557691822
 40
0.3566194760616497
 40
0.3754857252419637
 40
0.3943515693644081
 40
0.4132155881349186
 40
0.4320823552652027
 40
0.4509499178804071
 40
0.4698129329397737
 40
0.4886735961390962
 40
0.5075395385364244
 40
0.5264081384894257
 40
0.5452739735316889
 40
0.5641380176163253
 40
0.5830039516928687
 40
0.6018693520312013
 40
0.6207321055819983
 40
0.6395984759991157
 40
0.6584695541791853
 40
0.6773381955578291
 40
0.6962005242194401
 40
0.7150637209897336
 40
0.7339304998937366
 40
0.7527964098175441
 40
0.7716606103941841
 40
0.790527153813093
 40
0.8093935760222961
 40
0.8279508264436893
 40
0.8456405396381524
 40
0.8558363058627706
 40
0.8657154017577127
 40
0.8756185298100437
 40
0.8873013527917907
 40
0.9010130633309009
 40
0.9139904757792858
 40
0.9283760564764884
 40
0.9441702831541721
 40
0.961372763235024
 40
0.9799821210898872
 40
0.9999999999999999
 40
0.9999999999999999
 40
0.9999999999999999
 40
0.9999999999999999
 10
97.95838713440264
 20
52.45105451483865
 30
0.0
 10
98.11363615227664
 20
53.0304454998963
 30
0.0
 10
98.41367985942853
 20
54.15021180455764
 30
0.0
 10
98.6148527742131
 20
55.8196502852364
 30
0.0
 10
98.65302033304661
 20
57.37657413351734
 30
0.0
 10
98.53930464789951
 20
58.94612946414377
 30
0.0
 10
98.27063598791807
 20
60.48192409313724
 30
0.0
 10
97.85809279106545
 20
61.93581978356085
 30
0.0
 10
97.39515553790748
 20
63.14560578162914
 30
0.0
 10
96.92909169761573
 20
64.13187405663523
 30
0.0
 10
96.46786528785759
 20
64.96645566616924
 30
0.0
 10
95.99336935639967
 20
65.72067200174108
 30
0.0
 10
95.47670365335372
 20
66.44750888609367
 30
0.0
 10
94.91435277562823
 20
67.15017190784354
 30
0.0
 10
94.10100738127603
 20
68.05408069382342
 30
0.0
 10
92.97536034300126
 20
69.10257304150122
 30
0.0
 10
91.47928814914813
 20
70.19937173684768
 30
0.0
 10
89.8583383282755
 20
71.11392340467737
 30
0.0
 10
88.14065467684715
 20
71.83018349554584
 30
0.0
 10
86.35057584306145
 20
72.33941969157951
 30
0.0
 10
84.5126328544312
 20
72.63208929460427
 30
0.0
 10
82.65306280825239
 20
72.70634095039496
 30
0.0
 10
80.79774990323426
 20
72.55935342949
 30
0.0
 10
78.97304801232937
 20
72.19359506830418
 30
0.0
 10
77.20390762141201
 20
71.61588494313925
 30
0.0
 10
75.51587494655088
 20
70.8321490614295
 30
0.0
 10
73.9318433113325
 20
69.85523655052178
 30
0.0
 10
72.47533072580995
 20
68.69656941574196
 30
0.0
 10
71.16695148844266
 20
67.3729888361363
 30
0.0
 10
70.02246954667228
 20
65.90554921558505
 30
0.0
 10
69.05802212869085
 20
64.31402498946774
 30
0.0
 10
68.29149201348093
 20
62.61825235457815
 30
0.0
 10
67.73185336500782
 20
60.84340207603609
 30
0.0
 10
67.38383852922986
 20
59.0151398820622
 30
0.0
 10
67.25314662273958
 20
57.15853441502224
 30
0.0
 10
67.3461432498555
 20
55.29972269582176
 30
0.0
 10
67.65780604291908
 20
53.46505513128401
 30
0.0
 10
68.18201299720425
 20
51.67949801195168
 30
0.0
 10
68.91356509212609
 20
49.96820191473491
 30
0.0
 10
69.84530617297956
 20
48.35695001596017
 30
0.0
 10
70.95996167111468
 20
46.86634944340065
 30
0.0
 10
72.24146808788534
 20
45.51656974281475
 30
0.0
 10
73.674377471126
 20
44.32890072606197
 30
0.0
 10
75.23925026402782
 20
43.32173080372203
 30
0.0
 10
76.9113976299824
 20
42.50505320070975
 30
0.0
 10
78.66775614872921
 20
41.88960059407815
 30
0.0
 10
80.48494943010834
 20
41.48747041228545
 30
0.0
 10
82.33700751937454
 20
41.30425536519594
 30
0.0
 10
84.18762694846697
 20
41.34051661449274
 30
0.0
 10
85.98284942622642
 20
41.58742848984182
 30
0.0
 10
87.46191868955435
 20
41.96698012072326
 30
0.0
 10
88.63110453898413
 20
42.3789650411691
 30
0.0
 10
89.53694584758968
 20
42.76358154443284
 30
0.0
 10
90.46087960285527
 20
43.22534642990588
 30
0.0
 10
91.45996594801082
 20
43.81286091928455
 30
0.0
 10
92.49196993080018
 20
44.53651584162674
 30
0.0
 10
93.52810814499996
 20
45.40028712525772
 30
0.0
 10
94.53520097648253
 20
46.39811085878387
 30
0.0
 10
95.53262098952383
 20
47.59404466878944
 30
0.0
 10
96.47535756698238
 20
49.00317058964304
 30
0.0
 10
97.333302841289
 20
50.62878682246018
 30
0.0
 10
97.74502134009698
 20
51.82904305509593
 30
0.0
 10
97.95838713440264
 20
52.45105451483865
 30
0.0
  0
SPLINE
  5
71
330
1F
100
AcDbEntity
  8
0
  6
Continuous
 62
     7
370
    25
100
AcDbSpline
210
0.0
220
0.0
230
1.0
 70
    11
 71
     3
 72
    67
 73
    63
 74
     0
 42
0.00000001
 43
0.00000001
 40
0.0
 40
0.0
 40
0.0
 40
0.0
 40
0.0150181850395762
 40
0.0282955242250447
 40
0.0398308937221967
 40
0.0496239798771463
 40
0.0576750209670942
 40
0.0653984895509326
 40
0.0724915854969792
 40
0.079688923857334
 40
0.0869903437026393
 40
0.1067993378062237
 40
0.1266529686032633
 40
0.1465057367784841
 40
0.1663593152004884
 40
0.1862129298274642
 40
0.2060657203220435
 40
0.225919267331572
 40
0.2457721273933564
 40
0.2656263005955258
 40
0.2854795857482187
 40
0.3053320300577928
 40
0.3251853338237191
 40
0.3450388508884765
 40
0.3648929851817406
 40
0.3847449632381936
 40
0.4045988787023238
 40
0.4244551595200839
 40
0.4443077006364869
 40
0.4641563610865505
 40
0.4840099203283146
 40
0.5038656380045321
 40
0.5237183765924901
 40
0.543571279964583
 40
0.5634274798715894
 40
0.5832811078695684
 40
0.603130150611722
 40
0.6229827458358493
 40
0.6428390743664769
 40
0.6626926615847846
 40
0.6825444229120097
 40
0.7023984966528711
 40
0.7222521135783534
 40
0.7421054815661472
 40
0.7619577058387982
 40
0.7818109374329473
 40
0.8016654316079165
 40
0.8215185454604451
 40
0.8413719560043058
 40
0.8612243835367206
 40
0.876118569695486
 40
0.8910133168912876
 40
0.9059074118974396
 40
0.920267624312603
 40
0.9270318175277314
 40
0.933517290677225
 40
0.9403074563899024
 40
0.9487755824532972
 40
0.9589789662019128
 40
0.9709179307892786
 40
0.9845920793378427
 40
1.0
 40
1.0
 40
1.0
 40
1.0
 10
103.3777865013112
 20
53.97206411768793
 30
0.0
 10
103.4555721476849
 20
54.61670290119926
 30
0.0
 10
103.6021268502356
 20
55.83125660840029
 30
0.0
 10
103.6126840432471
 20
57.55521123324397
 30
0.0
 10
103.5152553157927
 20
59.04800150430673
 30
0.0
 10
103.3457351108211
 20
60.3068392368525
 30
0.0
 10
103.137127963125
 20
61.39199426491665
 30
0.0
 10
102.9026582580715
 20
62.35212314045802
 30
0.0
 10
102.6343801046387
 20
63.26487178818724
 30
0.0
 10
102.3314668786237
 20
64.14751020726322
 30
0.0
 10
101.7871622201087
 20
65.52652481342085
 30
0.0
 10
100.8810472544266
 20
67.34850110330957
 30
0.0
 10
99.45533492938058
 20
69.49596750815502
 30
0.0
 10
97.77283925205396
 20
71.45179336335235
 30
0.0
 10
95.85891229169094
 20
73.18161602536836
 30
0.0
 10
93.74583427973933
 20
74.66161630503403
 30
0.0
 10
91.4641130605233
 20
75.86557431578368
 30
0.0
 10
89.05081204466775
 20
76.77720733069994
 30
0.0
 10
86.54265044702899
 20
77.38145986603837
 30
0.0
 10
83.97878805636456
 20
77.66786581256768
 30
0.0
 10
81.39914424765807
 20
77.63480192260222
 30
0.0
 10
78.8440175027745
 20
77.27875010077774
 30
0.0
 10
76.35260235886852
 20
76.60946356652393
 30
0.0
 10
73.96384972114382
 20
75.63489147816674
 30
0.0
 10
71.7148979642305
 20
74.37096916509181
 30
0.0
 10
69.64065061934599
 20
72.83681260301375
 30
0.0
 10
67.77571320367862
 20
71.0540550942514
 30
0.0
 10
66.1448055124542
 20
69.05524906263948
 30
0.0
 10
64.77255143000305
 20
66.87074063318822
 30
0.0
 10
63.68643713080414
 20
64.53070426685102
 30
0.0
 10
62.90206867637691
 20
62.07313500174634
 30
0.0
 10
62.42622597020979
 20
59.53764618338035
 30
0.0
 10
62.26791650294079
 20
56.96250521931574
 30
0.0
 10
62.43571113813285
 20
54.38794908980254
 30
0.0
 10
62.92072879860555
 20
51.85417352157852
 30
0.0
 10
63.71401871207681
 20
49.39941686500569
 30
0.0
 10
64.80885446217802
 20
47.06342270284314
 30
0.0
 10
66.18906053344418
 20
44.88391628503329
 30
0.0
 10
67.82718707753016
 20
42.89103167339383
 30
0.0
 10
69.69865059564928
 20
41.11514339262441
 30
0.0
 10
71.7786012004305
 20
39.58877599629484
 30
0.0
 10
74.03214881276261
 20
38.33309402720458
 30
0.0
 10
76.42442802787147
 20
37.36722042665954
 30
0.0
 10
78.91818141225606
 20
36.70672526368148
 30
0.0
 10
81.47458489084951
 20
36.35990414040476
 30
0.0
 10
84.05434421753236
 20
36.33649519915571
 30
0.0
 10
86.61713372460387
 20
36.63249634001066
 30
0.0
 10
89.12305372226416
 20
37.24609847289203
 30
0.0
 10
91.53298026715187
 20
38.16635516834077
 30
0.0
 10
93.62088677358679
 20
39.27780448958544
 30
0.0
 10
95.39459025593169
 20
40.48864752146979
 30
0.0
 10
96.8830781352072
 20
41.72230989749843
 30
0.0
 10
98.23365222659545
 20
43.07303961297711
 30
0.0
 10
99.22905531318968
 20
44.27212694690531
 30
0.0
 10
99.92881724690238
 20
45.23847911760784
 30
0.0
 10
100.4072417919906
 20
45.96035710755273
 30
0.0
 10
100.8933740704817
 20
46.76450407428165
 30
0.0
 10
101.4169244952992
 20
47.73250011224587
 30
0.0
 10
101.9772479216021
 20
48.93153237443297
 30
0.0
 10
102.5311347139717
 20
50.3774513983104
 30
0.0
 10
103.0426586680712
 20
52.07786990976118
 30
0.0
 10
103.2617239200205
 20
53.31606050523835
 30
0.0
 10
103.3777865013112
 20
53.97206411768793
 30
0.0
  0
SPLINE
  5
72
330
1F
100
AcDbEntity
  8
0
  6
HIDDEN
 62
     7
370
    18
100
AcDbSpline
210
0.0
220
0.0
230
1.0
 70
    11
 71
     3
 72
    48
 73
    44
 74
     0
 42
0.00000001
 43
0.00000001
 40
0.0
 40
0.0
 40
0.0
 40
0.0
 40
0.0265385485326965
 40
0.051096434645043
 40
0.0736736701274213
 40
0.0942683713081509
 40
0.1186334813655679
 40
0.139476176005283
 40
0.156793134387
 40
0.1761489447336592
 40
0.1890673926565528
 40
0.2015240324376686
 40
0.214140060972011
 40
0.2398278259544383
 40
0.265890543358527
 40
0.2919538789893372
 40
0.3180182007206208
 40
0.3440848335645026
 40
0.370148055869785
 40
0.3962148176637683
 40
0.4222772652409325
 40
0.4481853264416453
 40
0.4735212276121616
 40
0.4982651816153782
 40
0.522718471864059
 40
0.5469889770240242
 40
0.5714004623024999
 40
0.5971561712921277
 40
0.6243643410941615
 40
0.6530131106857907
 40
0.6821287579825019
 40
0.7098748349158754
 40
0.7362074189228145
 40
0.7611307436917865
 40
0.7847462285218959
 40
0.8106171964302321
 40
0.8404848103097653
 40
0.874340207591762
 40
0.9121806101805452
 40
0.9326354768342643
 40
0.9540900159179875
 40
0.9765452740811935
 40
1.0
 40
1.0
 40
1.0
 40
1.0
 10
87.46779887904664
 20
59.13156830401549
 30
0.0
 10
87.57418614163304
 20
58.87538348784788
 30
0.0
 10
87.77902062243042
 20
58.38213380238626
 30
0.0
 10
87.9244559048195
 20
57.62285997299873
 30
0.0
 10
87.96095278675587
 20
56.91572982192867
 30
0.0
 10
87.90037849872898
 20
56.21195680529022
 30
0.0
 10
87.74512032625411
 20
55.54072096549843
 30
0.0
 10
87.50950755006431
 20
54.93074441088238
 30
0.0
 10
87.22728701711476
 20
54.40023116689613
 30
0.0
 10
86.93282548264382
 20
53.97341538955352
 30
0.0
 10
86.63020695555961
 20
53.61781849625381
 30
0.0
 10
86.34978834218435
 20
53.33732696402603
 30
0.0
 10
85.94698703051537
 20
52.99318865017234
 30
0.0
 10
85.38555629142276
 20
52.61949098186791
 30
0.0
 10
84.64269284239339
 20
52.28418055104435
 30
0.0
 10
83.8513231305697
 20
52.07292365034293
 30
0.0
 10
83.03603433184556
 20
51.9941337285509
 30
0.0
 10
82.21875865596222
 20
52.04854222415462
 30
0.0
 10
81.4213773488889
 20
52.23627781598664
 30
0.0
 10
80.6655008383454
 20
52.55155331004993
 30
0.0
 10
79.97147964519306
 20
52.98350487879276
 30
0.0
 10
79.36400204349974
 20
53.51907043489398
 30
0.0
 10
78.85892794516387
 20
54.13391140235705
 30
0.0
 10
78.46308309684352
 20
54.80650255855029
 30
0.0
 10
78.18128192168581
 20
55.52224380534817
 30
0.0
 10
78.0118340748892
 20
56.26877369938349
 30
0.0
 10
77.95620401768181
 20
57.04604181193269
 30
0.0
 10
78.02774165879894
 20
57.85329948507805
 30
0.0
 10
78.24163857225194
 20
58.68125997410086
 30
0.0
 10
78.61211056166658
 20
59.49166479311526
 30
0.0
 10
79.12730042381322
 20
60.22560127589125
 30
0.0
 10
79.74548092883363
 20
60.84054282556851
 30
0.0
 10
80.42338834465644
 20
61.3154255512185
 30
0.0
 10
81.12915277114097
 20
61.65678927237791
 30
0.0
 10
81.87366348295575
 20
61.88523349601045
 30
0.0
 10
82.6963253153224
 20
62.00378654000854
 30
0.0
 10
83.6357254654753
 20
61.97294950734925
 30
0.0
 10
84.67388515865896
 20
61.7268055749629
 30
0.0
 10
85.54453000488952
 20
61.2971060496714
 30
0.0
 10
86.21251624770764
 20
60.79815289629826
 30
0.0
 10
86.69329955874586
 20
60.32745518071913
 30
0.0
 10
87.13028116916367
 20
59.77283617854157
 30
0.0
 10
87.35367189173631
 20
59.34840424605817
 30
0.0
 10
87.46779887904664
 20
59.13156830401549
 30
0.0
  0
SPLINE
  5
73
330
1F
100
AcDbEntity
  8
0
  6
HIDDEN
 62
     7
370
    18
100
AcDbSpline
210
0.0
220
0.0
230
1.0
 70
    11
 71
     3
 72
    51
 73
    47
 74
     0
 42
0.00000001
 43
0.00000001
 40
0.0
 40
0.0
 40
0.0
 40
0.0
 40
0.022052826661084
 40
0.0432331105399384
 40
0.0635412431281476
 40
0.0923455027266448
 40
0.119191621113742
 40
0.1440778637438365
 40
0.1670027145074579
 40
0.1879662656466606
 40
0.2069678703942399
 40
0.229241074072546
 40
0.2480271991657861
 40
0.2641145483123193
 40
0.2881665718194356
 40
0.3125105117255784
 40
0.3371480445738098
 40
0.3620771983651606
 40
0.3872632415659691
 40
0.4124884848126569
 40
0.4377149567033808
 40
0.4629379975088674
 40
0.4881650467037735
 40
0.5133880035963225
 40
0.5386051176080963
 40
0.5638318105068654
 40
0.5890604303872552
 40
0.6142869707633148
 40
0.6393927677393303
 40
0.6638276483471997
 40
0.6875338846831107
 40
0.7105141862468699
 40
0.7254311336515541
 40
0.7400177503622393
 40
0.7554495938258466
 40
0.7732280507823595
 40
0.793355768367846
 40
0.8158278592146891
 40
0.834231244831037
 40
0.8539554475917054
 40
0.8749975571424091
 40
0.8973594385735059
 40
0.921042657725086
 40
0.9460432696754679
 40
0.9723625352545606
 40
0.9999999999999999
 40
0.9999999999999999
 40
0.9999999999999999
 40
0.9999999999999999
 10
90.71930584013899
 20
51.81678148792432
 30
0.0
 10
90.94439401293849
 20
52.18459510833559
 30
0.0
 10
91.38566451333408
 20
52.90566942473589
 30
0.0
 10
91.84314854726384
 20
54.06484846558611
 30
0.0
 10
92.19101193839515
 20
55.39494198112281
 30
0.0
 10
92.33761670380521
 20
56.87970958934807
 30
0.0
 10
92.2189819987771
 20
58.45470372357156
 30
0.0
 10
91.87312937010498
 20
59.87677013984114
 30
0.0
 10
91.36342570647822
 20
61.12390819434049
 30
0.0
 10
90.74435992106201
 20
62.18835113680643
 30
0.0
 10
90.00595495253332
 20
63.15671372979781
 30
0.0
 10
89.17702997565551
 20
63.99171956418873
 30
0.0
 10
88.2939236978337
 20
64.67765426788385
 30
0.0
 10
87.3123601663209
 20
65.28096244072425
 30
0.0
 10
86.1605895585767
 20
65.80152488116015
 30
0.0
 10
84.7823694318345
 20
66.18759755867961
 30
0.0
 10
83.34383241900373
 20
66.35912007317864
 30
0.0
 10
81.87947755786723
 20
66.3053417144671
 30
0.0
 10
80.43040915993235
 20
66.01944694754695
 30
0.0
 10
79.03883408864662
 20
65.50742327465922
 30
0.0
 10
77.74479857869865
 20
64.78183426443702
 30
0.0
 10
76.5819998190036
 20
63.86030093854259
 30
0.0
 10
75.5801118534275
 20
62.76634591683174
 30
0.0
 10
74.76062741499767
 20
61.52989382574417
 30
0.0
 10
74.14895749536743
 20
60.17828379472983
 30
0.0
 10
73.758901895016
 20
58.74711667663563
 30
0.0
 10
73.59653478924366
 20
57.27233679425868
 30
0.0
 10
73.67173972028404
 20
55.79281346987994
 30
0.0
 10
73.97467889613543
 20
54.35892549021024
 30
0.0
 10
74.48371152566745
 20
53.01652964525485
 30
0.0
 10
75.17131731072433
 20
51.80435316117268
 30
0.0
 10
75.91301357417446
 20
50.85216200209506
 30
0.0
 10
76.63443649673219
 20
50.12265888026552
 30
0.0
 10
77.30766308670341
 20
49.55821587608521
 30
0.0
 10
78.0780316679659
 20
49.02909808147472
 30
0.0
 10
78.9947738512633
 20
48.53077973994165
 30
0.0
 10
80.09214079195391
 20
48.09217229723982
 30
0.0
 10
81.25117551037962
 20
47.80059186734609
 30
0.0
 10
82.42864941630977
 20
47.66225253570339
 30
0.0
 10
83.58672529620276
 20
47.66497478618058
 30
0.0
 10
84.81238613449824
 20
47.82500667401187
 30
0.0
 10
86.07966989420076
 20
48.17181245202465
 30
0.0
 10
87.3566010689089
 20
48.72749888636726
 30
0.0
 10
88.5957124304955
 20
49.51611755846793
 30
0.0
 10
89.76708511365331
 20
50.53473737070605
 30
0.0
 10
90.39677104785927
 20
51.3825294058818
 30
0.0
 10
90.719305840139
 20
51.81678148792432
 30
0.0
  0
SPLINE
  5
74
330
1F
100
AcDbEntity
  8
0
  6
HIDDEN
 62
     7
370
    18
100
AcDbSpline
210
0.0
220
0.0
230
1.0
 70
    11
 71
     3
 72
    45
 73
    41
 74
     0
 42
0.00000001
 43
0.00000001
 40
0.0
 40
0.0
 40
0.0
 40
0.0
 40
0.0352686047914628
 40
0.0656374043933581
 40
0.0910978575748963
 40
0.1116435089087428
 40
0.1317256805190747
 40
0.1497591938441928
 40
0.168126313182397
 40
0.1962444367544603
 40
0.2245423822433439
 40
0.2528382804448345
 40
0.281137493409388
 40
0.3094334600252087
 40
0.3377323751239468
 40
0.3660282200736423
 40
0.3943228429155838
 40
0.4226285870788066
 40
0.450925552843587
 40
0.479222394933023
 40
0.507519674716374
 40
0.535815174981932
 40
0.5641173132175348
 40
0.5924100137268229
 40
0.6207063159090614
 40
0.6490069864464355
 40
0.6773024954878962
 40
0.7056010392688815
 40
0.7338984085700094
 40
0.7621951594744015
 40
0.7904934466928454
 40
0.818740919239941
 40
0.8456097785187745
 40
0.8624329591821306
 40
0.8792697007855136
 40
0.900999790216585
 40
0.9210015171369417
 40
0.9441705117846083
 40
0.9705045903421757
 40
0.9999999999999999
 40
0.9999999999999999
 40
0.9999999999999999
 40
0.9999999999999999
 10
87.68844860500118
 20
57.46585913177677
 30
0.0
 10
87.70066732876708
 20
57.11418816300436
 30
0.0
 10
87.72340725051147
 20
56.45970325419658
 30
0.0
 10
87.51443738008523
 20
55.56992050041301
 30
0.0
 10
87.22401908242215
 20
54.86646717236636
 30
0.0
 10
86.88553113711026
 20
54.30144585557925
 30
0.0
 10
86.52447459066012
 20
53.84200751446827
 30
0.0
 10
86.12630445188074
 20
53.44481062308896
 30
0.0
 10
85.62303744952706
 20
53.04570098529923
 30
0.0
 10
84.97629965143412
 20
52.67165901227423
 30
0.0
 10
84.18076507438397
 20
52.38369383176768
 30
0.0
 10
83.34490673444346
 20
52.24109828453567
 30
0.0
 10
82.4970844694683
 20
52.24814367508113
 30
0.0
 10
81.66374572274985
 20
52.40513258586616
 30
0.0
 10
80.87184135814657
 20
52.70792113615735
 30
0.0
 10
80.14475885271762
 20
53.14407113152011
 30
0.0
 10
79.50760017190413
 20
53.70371684716603
 30
0.0
 10
78.97912263818196
 20
54.36671111409611
 30
0.0
 10
78.57544572519419
 20
55.11252807239726
 30
0.0
 10
78.31187368583606
 20
55.91838560303633
 30
0.0
 10
78.1927731061442
 20
56.75781625192148
 30
0.0
 10
78.22567103118315
 20
57.60518915919139
 30
0.0
 10
78.4072779954451
 20
58.43328715045685
 30
0.0
 10
78.73176905554168
 20
59.21672853759662
 30
0.0
 10
79.19159672369969
 20
59.92908499584878
 30
0.0
 10
79.76846340460882
 20
60.55040784401083
 30
0.0
 10
80.4468092768618
 20
61.0592672696941
 30
0.0
 10
81.20441609606743
 20
61.43998957182605
 30
0.0
 10
82.01743925853404
 20
61.6806511046312
 30
0.0
 10
82.86016526930528
 20
61.77415204550655
 30
0.0
 10
83.70566445028169
 20
61.71675554263396
 30
0.0
 10
84.51375173071754
 20
61.51424183920593
 30
0.0
 10
85.17017906947031
 20
61.2224789965715
 30
0.0
 10
85.6818747884256
 20
60.90457523502712
 30
0.0
 10
86.11696503787027
 20
60.5659679513919
 30
0.0
 10
86.53104309764845
 20
60.15448357943989
 30
0.0
 10
86.92622895807881
 20
59.64264864722991
 30
0.0
 10
87.27017793780625
 20
59.04181497844863
 30
0.0
 10
87.56017793219779
 20
58.30631909431585
 30
0.0
 10
87.64410754939227
 20
57.75639227642728
 30
0.0
 10
87.68844860500118
 20
57.46585913177677
 30
0.0
  0
SPLINE
  5
75
330
1F
100
AcDbEntity
  8
0
  6
Continuous
 62
     7
370
    25
100
AcDbSpline
210
0.0
220
0.0
230
1.0
 70
     8
 71
     3
 72
    15
 73
    11
 74
     0
 42
0.00000001
 43
0.00000001
 40
0.0
 40
0.0
 40
0.0
 40
0.0
 40
0.1317373306758274
 40
0.2666351120079747
 40
0.4016813317298854
 40
0.5336608454465798
 40
0.6594783628634233
 40
0.7783776820809165
 40
0.8911958298233518
 40
1.0
 40
1.0
 40
1.0
 40
1.0
 10
103.5596179074342
 20
207.4246779719374
 30
0.0
 10
103.5712132677829
 20
207.4549837103511
 30
0.0
 10
103.5946821675208
 20
207.516322238428
 30
0.0
 10
103.6040391050635
 20
207.6155849041643
 30
0.0
 10
103.5940572062908
 20
207.7142582324048
 30
0.0
 10
103.5640299126052
 20
207.8066717623944
 30
0.0
 10
103.5157314572679
 20
207.8867214860098
 30
0.0
 10
103.4516915670462
 20
207.947721720171
 30
0.0
 10
103.3769896883531
 20
207.9893861001564
 30
0.0
 10
103.3224176590623
 20
207.995068429037
 30
0.0
 10
103.2956258430684
 20
207.9978581348947
 30
0.0
  0
SPLINE
  5
76
330
1F
100
AcDbEntity
  8
0
  6
Continuous
 62
     7
370
    25
100
AcDbSpline
210
0.0
220
0.0
230
1.0
 70
     8
 71
     3
 72
    15
 73
    11
 74
     0
 42
0.00000001
 43
0.00000001
 40
0.0
 40
0.0
 40
0.0
 40
0.0
 40
0.1088007259553892
 40
0.2216194006455113
 40
0.3405204578691381
 40
0.4663390396558662
 40
0.598318894300986
 40
0.7333652752792057
 40
0.8682631901476506
 40
0.9999999999999999
 40
0.9999999999999999
 40
0.9999999999999999
 40
0.9999999999999999
 10
62.62739680300368
 20
207.9978581348947
 30
0.0
 10
62.6006058927095
 20
207.9950683086177
 30
0.0
 10
62.54603469908912
 20
207.989385629371
 30
0.0
 10
62.47133330070042
 20
207.9477213918719
 30
0.0
 10
62.40729194059472
 20
207.8867217525389
 30
0.0
 10
62.35899203930246
 20
207.8066720249427
 30
0.0
 10
62.32896433681237
 20
207.7142582946552
 30
0.0
 10
62.31898252237356
 20
207.6155848809649
 30
0.0
 10
62.32833953269826
 20
207.5163225207429
 30
0.0
 10
62.35180718910203
 20
207.454983752979
 30
0.0
 10
62.36340190615393
 20
207.4246779719373
 30
0.0
  0
SPLINE
  5
77
330
1F
100
AcDbEntity
  8
0
  6
Continuous
 62
     7
370
    25
100
AcDbSpline
210
0.0
220
0.0
230
1.0
 70
     8
 71
     3
 72
    73
 73
    69
 74
     0
 42
0.00000001
 43
0.00000001
 40
0.0
 40
0.0
 40
0.0
 40
0.0
 40
0.0098934686047868
 40
0.018621870232149
 40
0.0263408796334093
 40
0.0362227059893582
 40
0.0441916241992514
 40
0.0542959170011326
 40
0.0654573995610967
 40
0.077806906523114
 40
0.0912417459588045
 40
0.1051094990500091
 40
0.1186669211644631
 40
0.1313391801796341
 40
0.1425349244968766
 40
0.1487295340591758
 40
0.1538702431558694
 40
0.1581510482417178
 40
0.1617276336213785
 40
0.164905895710791
 40
0.1680739605934162
 40
0.1754192377011809
 40
0.1844138815934973
 40
0.1948410198572327
 40
0.2063221360755245
 40
0.2183675220752066
 40
0.2344363134130815
 40
0.2506375191428856
 40
0.2674253096780633
 40
0.2855226974693525
 40
0.3051458479040628
 40
0.3263127131961602
 40
0.348846622754612
 40
0.3723671911903726
 40
0.4041014469364697
 40
0.4379160154854771
 40
0.4734477975725785
 40
0.515041787855239
 40
0.5569911920681104
 40
0.5983244970737495
 40
0.6382161830718568
 40
0.6686373353062545
 40
0.6974247738920965
 40
0.7247561482233575
 40
0.7508861864619267
 40
0.7755894423935784
 40
0.7949652213044378
 40
0.813202880014266
 40
0.8302740190975788
 40
0.8461523420972941
 40
0.8611116011674649
 40
0.8769167082381426
 40
0.8890603336993175
 40
0.9008758856784224
 40
0.9117862467874286
 40
0.9168134820381965
 40
0.9215504436943531
 40
0.926133091697368
 40
0.9307568767373797
 40
0.9357315124777367
 40
0.9385830545846287
 40
0.9421681751501239
 40
0.9483131438121779
 40
0.9562429504288354
 40
0.9660825990504927
 40
0.9776647270277466
 40
0.9904723080918701
 40
1.0
 40
1.0
 40
1.0
 40
1.0
 10
62.36340190615393
 20
207.4246779719374
 30
0.0
 10
62.53570925772599
 20
207.0821619317605
 30
0.0
 10
62.86003283615911
 20
206.437464959708
 30
0.0
 10
63.44209009549963
 20
205.5966453560999
 30
0.0
 10
64.09838398126988
 20
204.8154352987869
 30
0.0
 10
64.81642470262058
 20
204.1302092336464
 30
0.0
 10
65.67264060941982
 20
203.4664212386754
 30
0.0
 10
66.63062165131929
 20
202.8600549134906
 30
0.0
 10
67.79534174031652
 20
202.2754055118603
 30
0.0
 10
69.12684847949642
 20
201.7488845696518
 30
0.0
 10
70.59306409788427
 20
201.2908455241771
 30
0.0
 10
72.12676771467028
 20
200.9022795741466
 30
0.0
 10
73.64081350405591
 20
200.5598373044096
 30
0.0
 10
75.05138224876902
 20
200.2300083992411
 30
0.0
 10
76.17256737384858
 20
199.9120230151423
 30
0.0
 10
76.98280434211483
 20
199.5844196771723
 30
0.0
 10
77.50841647857403
 20
199.2801521669489
 30
0.0
 10
77.88633368454363
 20
198.9399179029758
 30
0.0
 10
78.1143902575931
 20
198.5712095246434
 30
0.0
 10
78.21413545715295
 20
198.1952183898089
 30
0.0
 10
78.21711068311821
 20
197.6609179489371
 30
0.0
 10
78.00094562673762
 20
196.9249965964673
 30
0.0
 10
77.53043386731535
 20
196.0009176097833
 30
0.0
 10
76.90138993111162
 20
194.982353069792
 30
0.0
 10
76.18675405283372
 20
193.8794498251746
 30
0.0
 10
75.38707810934747
 20
192.5712916211167
 30
0.0
 10
74.60505774423024
 20
191.0404279460611
 30
0.0
 10
73.96922405141919
 20
189.243546739893
 30
0.0
 10
73.5975507719841
 20
187.294374816088
 30
0.0
 10
73.4643310204038
 20
185.1842105335597
 30
0.0
 10
73.54155852226276
 20
182.9035580208359
 30
0.0
 10
73.77344423229543
 20
180.4623478132499
 30
0.0
 10
74.1165661718034
 20
177.8824728526152
 30
0.0
 10
74.57551929640115
 20
174.9062481684958
 30
0.0
 10
75.1343105524989
 20
171.503804322437
 30
0.0
 10
75.76273188834048
 20
167.6415924351402
 30
0.0
 10
76.41011371927806
 20
163.3958678945276
 30
0.0
 10
77.02101941121923
 20
158.8265126471898
 30
0.0
 10
77.53150849623276
 20
154.0186238844726
 30
0.0
 10
77.87446773107774
 20
149.2615689106063
 30
0.0
 10
78.00354718658437
 20
144.9399366150338
 30
0.0
 10
77.95044993286585
 20
141.1029160474629
 30
0.0
 10
77.7543640228007
 20
137.7572546925617
 30
0.0
 10
77.40434070120769
 20
134.5910039777179
 30
0.0
 10
76.90014185628523
 20
131.6055502065388
 30
0.0
 10
76.26838859775744
 20
128.9594406904394
 30
0.0
 10
75.53776570054134
 20
126.6584230716459
 30
0.0
 10
74.75776269867629
 20
124.688515108936
 30
0.0
 10
73.89272944789492
 20
122.9034810427023
 30
0.0
 10
72.94822070066775
 20
121.3048745776993
 30
0.0
 10
71.90334554357509
 20
119.8298805259224
 30
0.0
 10
70.83508305295885
 20
118.55576062856
 30
0.0
 10
69.7776829431715
 20
117.4363335713171
 30
0.0
 10
68.82721697136265
 20
116.4788227081907
 30
0.0
 10
68.09377831357914
 20
115.6905178884108
 30
0.0
 10
67.63107102936613
 20
115.0350593423074
 30
0.0
 10
67.38644724585967
 20
114.5325071264764
 30
0.0
 10
67.26803735407785
 20
113.9991816969825
 30
0.0
 10
67.30971460582735
 20
113.4435320751348
 30
0.0
 10
67.48425647996066
 20
112.9879978313199
 30
0.0
 10
67.71026084646282
 20
112.6078164694537
 30
0.0
 10
68.00504549031983
 20
112.2187162728054
 30
0.0
 10
68.4879768441183
 20
111.7313379483556
 30
0.0
 10
69.22626125775976
 20
111.1684916575462
 30
0.0
 10
70.20655446021794
 20
110.5899231067669
 30
0.0
 10
71.40494587349616
 20
110.0211436557915
 30
0.0
 10
72.62818818968553
 20
109.542622655739
 30
0.0
 10
73.43932525321544
 20
109.2433049274931
 30
0.0
 10
73.78533687555733
 20
109.1156231614851
 30
0.0
  0
SPLINE
  5
78
330
1F
100
AcDbEntity
  8
0
  6
Continuous
 62
     7
370
    25
100
AcDbSpline
210
0.0
220
0.0
230
1.0
 70
     8
 71
     3
 72
    71
 73
    67
 74
     0
 42
0.00000001
 43
0.00000001
 40
0.0
 40
0.0
 40
0.0
 40
0.0
 40
0.0091116752806399
 40
0.0215582576968151
 40
0.0328913587991894
 40
0.0426225950891414
 40
0.050562280282624
 40
0.0567978202833532
 40
0.0604838656532264
 40
0.0634334726214283
 40
0.068342461769872
 40
0.072860913138959
 40
0.0772925244983348
 40
0.0818205181403238
 40
0.0866002945897448
 40
0.0995315819786338
 40
0.1137080029082271
 40
0.1281730858927458
 40
0.1420869414661251
 40
0.1554775726645681
 40
0.1743516842577995
 40
0.1948554717072208
 40
0.2169433662120792
 40
0.2403689974635356
 40
0.2651995082235505
 40
0.2912375710538215
 40
0.3184356140569753
 40
0.3472050181268239
 40
0.3851042699091954
 40
0.4246306147244084
 40
0.4650960898338184
 40
0.5056725782697202
 40
0.5454536067424373
 40
0.5835563643026538
 40
0.6191268908680099
 40
0.6531220108200173
 40
0.6746954948832808
 40
0.694995767607077
 40
0.7138696573558301
 40
0.7313279040095706
 40
0.7476646283966719
 40
0.7633935420137328
 40
0.7789573286655097
 40
0.794501090654644
 40
0.8090645241301821
 40
0.8187254195133586
 40
0.8269427122425786
 40
0.8336436760469715
 40
0.8365990979353609
 40
0.8394520246745593
 40
0.8423768759804264
 40
0.8456880090789918
 40
0.8496668140917185
 40
0.8544934722881422
 40
0.8624885643214761
 40
0.872517398993692
 40
0.8850388995852027
 40
0.9000521457660581
 40
0.9171825070780795
 40
0.9358713160306387
 40
0.9506369548582864
 40
0.9660100930611699
 40
0.9740013102272868
 40
0.982268951350157
 40
0.990900247398567
 40
1.0
 40
1.0
 40
1.0
 40
1.0
 10
92.1377465127798
 20
109.1155434936042
 30
0.0
 10
92.46862086796261
 20
109.2377162270813
 30
0.0
 10
93.25147082635117
 20
109.5267773701423
 30
0.0
 10
94.43853596581692
 20
109.9884355246977
 30
0.0
 10
95.6150014044009
 20
110.5380731029156
 30
0.0
 10
96.58941242895355
 20
111.0994397292786
 30
0.0
 10
97.33727406605115
 20
111.648504529498
 30
0.0
 10
97.83717246016298
 20
112.129506343481
 30
0.0
 10
98.15031325419403
 20
112.5184067895867
 30
0.0
 10
98.39155919065244
 20
112.8952185393666
 30
0.0
 10
98.58469279024217
 20
113.3391610777903
 30
0.0
 10
98.65851523979121
 20
113.8780397177338
 30
0.0
 10
98.5785175705111
 20
114.4001699541624
 30
0.0
 10
98.37156406094398
 20
114.8943791337433
 30
0.0
 10
97.90226552993033
 20
115.6194584732171
 30
0.0
 10
97.05365807953095
 20
116.5233241121807
 30
0.0
 10
95.91999701498345
 20
117.6629302455728
 30
0.0
 10
94.80437428910341
 20
118.8769305395073
 30
0.0
 10
93.7917429553006
 20
120.1391626255664
 30
0.0
 10
92.77628394174312
 20
121.6122073583082
 30
0.0
 10
91.76562277548237
 20
123.3912761521622
 30
0.0
 10
90.78839975525615
 20
125.5641195026988
 30
0.0
 10
89.93811704821692
 20
127.9771073577017
 30
0.0
 10
89.23786407575702
 20
130.6112569713173
 30
0.0
 10
88.69354735247987
 20
133.4372469893976
 30
0.0
 10
88.29589783773548
 20
136.434505002081
 30
0.0
 10
88.04228936974795
 20
139.6001632877848
 30
0.0
 10
87.92087330058177
 20
143.232895023383
 30
0.0
 10
87.96845648303227
 20
147.3450719502364
 30
0.0
 10
88.21855177929993
 20
151.9030835305577
 30
0.0
 10
88.64399757797413
 20
156.5517992080795
 30
0.0
 10
89.20556629969562
 20
161.1956628208497
 30
0.0
 10
89.86067933451903
 20
165.7346120765603
 30
0.0
 10
90.55252184754207
 20
170.0717789516119
 30
0.0
 10
91.23133935685827
 20
174.1840144222273
 30
0.0
 10
91.78097512749137
 20
177.6692445725629
 30
0.0
 10
92.16238536002018
 20
180.5817264400849
 30
0.0
 10
92.38113303736223
 20
182.9238941288818
 30
0.0
 10
92.4566926146308
 20
185.1169466372459
 30
0.0
 10
92.33887557389315
 20
187.156088574095
 30
0.0
 10
92.00132532757779
 20
189.0491760093644
 30
0.0
 10
91.41606045500987
 20
190.8043937384815
 30
0.0
 10
90.61825504001914
 20
192.4369760115812
 30
0.0
 10
89.69739719605977
 20
193.9475094950685
 30
0.0
 10
88.85466595396527
 20
195.2354756855958
 30
0.0
 10
88.21707242595336
 20
196.3190066100657
 30
0.0
 10
87.82246247258176
 20
197.1868160494046
 30
0.0
 10
87.68138393092711
 20
197.8788880117258
 30
0.0
 10
87.74322562075551
 20
198.3638381428469
 30
0.0
 10
87.86906497692054
 20
198.6814096985476
 30
0.0
 10
88.07497504112528
 20
198.9704245446293
 30
0.0
 10
88.36945137151382
 20
199.2379772974313
 30
0.0
 10
88.76683070364862
 20
199.4904304596705
 30
0.0
 10
89.35791889057843
 20
199.7649026739413
 30
0.0
 10
90.19834209288966
 20
200.0456553725329
 30
0.0
 10
91.34281009555082
 20
200.3438986862189
 30
0.0
 10
92.76065465786719
 20
200.6669155800438
 30
0.0
 10
94.44556521070996
 20
201.0553595411515
 30
0.0
 10
96.34308285330341
 20
201.5807897666442
 30
0.0
 10
98.17965595504094
 20
202.2745387997273
 30
0.0
 10
99.85128484857819
 20
203.1675499583937
 30
0.0
 10
101.0404459983987
 20
204.0549132592377
 30
0.0
 10
101.9139399228629
 20
204.9157068067501
 30
0.0
 10
102.5289608334307
 20
205.6591636965881
 30
0.0
 10
103.0945883437585
 20
206.4948635531743
 30
0.0
 10
103.4018821839583
 20
207.1093284191324
 30
0.0
 10
103.5595884751645
 20
207.4246779719374
 30
0.0
  0
SPLINE
  5
79
330
1F
100
AcDbEntity
  8
0
  6
Continuous
 62
     7
370
    25
100
AcDbSpline
210
0.0
220
0.0
230
1.0
 70
     8
 71
     3
 72
    11
 73
     7
 74
     0
 42
0.00000001
 43
0.00000001
 40
0.0
 40
0.0
 40
0.0
 40
0.0
 40
0.2760026981178497
 40
0.5340028917162134
 40
0.7750609846207683
 40
1.0
 40
1.0
 40
1.0
 40
1.0
 10
73.78539732324181
 20
109.1157840172108
 30
0.0
 10
74.32864954536689
 20
108.9299120569996
 30
0.0
 10
75.3797199136072
 20
108.5702917890871
 30
0.0
 10
76.95860670327507
 20
108.2354877350737
 30
0.0
 10
78.45269580216167
 20
108.03699989127
 30
0.0
 10
79.42162155221996
 20
108.0139745955428
 30
0.0
 10
79.88932660943881
 20
108.0028601760376
 30
0.0
  0
SPLINE
  5
7A
330
1F
100
AcDbEntity
  8
0
  6
Continuous
 62
     7
370
    25
100
AcDbSpline
210
0.0
220
0.0
230
1.0
 70
     8
 71
     3
 72
    12
 73
     8
 74
     0
 42
0.00000001
 43
0.00000001
 40
0.0
 40
0.0
 40
0.0
 40
0.0
 40
0.1389733801332685
 40
0.3079032943739196
 40
0.5071834787536927
 40
0.737513446940254
 40
1.0
 40
1.0
 40
1.0
 40
1.0
 10
86.03387287884955
 20
108.0028601760376
 30
0.0
 10
86.32277710386053
 20
108.0071970562576
 30
0.0
 10
86.96286056843574
 20
108.0168056568813
 30
0.0
 10
88.01438500814541
 20
108.1059330151511
 30
0.0
 10
89.24542584866478
 20
108.2902437900395
 30
0.0
 10
90.65179372687406
 20
108.6054558522654
 30
0.0
 10
91.62132294495515
 20
108.9384323215767
 30
0.0
 10
92.13771874658376
 20
109.1157840172108
 30
0.0
  0
LINE
  5
7B
330
1F
100
AcDbEntity
  8
0
  6
Continuous
 62
     7
370
    25
100
AcDbLine
 10
103.2956258431
 20
207.9978581349
 30
0.0
 11
62.627396803
 21
207.9978581349
 31
0.0
  0
SPLINE
  5
7C
330
1F
100
AcDbEntity
  8
0
  6
Continuous
 62
     7
370
    25
100
AcDbSpline
210
0.0
220
0.0
230
1.0
 70
    24
 71
     3
 72
    22
 73
    18
 74
     0
 42
0.00000001
 43
0.00000001
 40
0.0
 40
0.0
 40
0.0
 40
0.0
 40
0.125
 40
0.125
 40
0.2499999999999999
 40
0.2499999999999999
 40
0.3749999999999999
 40
0.3749999999999999
 40
0.5
 40
0.5
 40
0.6250000000000001
 40
0.6250000000000001
 40
0.75
 40
0.75
 40
0.875
 40
0.875
 40
1.0
 40
1.0
 40
1.0
 40
1.0
 10
79.88932660943881
 20
108.0028601760376
 30
0.0
 10
79.88932660943881
 20
108.0028601760376
 30
0.0
 10
79.96954574817941
 20
108.0028601760376
 30
0.0
 10
80.27679148439269
 20
108.0028601760376
 30
0.0
 10
80.50516827517883
 20
108.0028601760376
 30
0.0
 10
81.07349540371912
 20
108.0028601760376
 30
0.0
 10
81.41437341021587
 20
108.0028601760376
 30
0.0
 10
82.15751909464228
 20
108.0028601760376
 30
0.0
 10
82.55944042840873
 20
108.0028601760376
 30
0.0
 10
83.36352765322778
 20
108.0028601760376
 30
0.0
 10
83.76578797795558
 20
108.0028601760376
 30
0.0
 10
84.50950335303267
 20
108.0028601760376
 30
0.0
 10
84.84930030555012
 20
108.0028601760376
 30
0.0
 10
85.41762188774312
 20
108.0028601760376
 30
0.0
 10
85.64666399860552
 20
108.0028601760376
 30
0.0
 10
85.95424620743566
 20
108.0028601760376
 30
0.0
 10
86.03375921798172
 20
108.0028601760376
 30
0.0
 10
86.03387287884955
 20
108.0028601760376
 30
0.0
  0
SPLINE
  5
7D
330
1F
100
AcDbEntity
  8
0
  6
Continuous
 62
     7
370
    25
100
AcDbSpline
210
0.0
220
0.0
230
1.0
 70
     8
 71
     3
 72
    15
 73
    11
 74
     0
 42
0.00000001
 43
0.00000001
 40
0.0
 40
0.0
 40
0.0
 40
0.0
 40
0.1317364032292115
 40
0.2666324275319862
 40
0.401676903656756
 40
0.5336550882204372
 40
0.6594718290652056
 40
0.7783711677316505
 40
0.8911910990500808
 40
1.0
 40
1.0
 40
1.0
 40
1.0
 10
272.4246779719373
 20
36.40187344258432
 30
0.0
 10
272.4549836594063
 20
36.39027740158408
 30
0.0
 10
272.516321898646
 20
36.36680719527917
 30
0.0
 10
272.6155849360377
 20
36.35745001822202
 30
0.0
 10
272.7142583698401
 20
36.3674323270815
 30
0.0
 10
272.8066719367853
 20
36.39746037459253
 30
0.0
 10
272.8867216882909
 20
36.44575954287074
 30
0.0
 10
272.9477221753863
 20
36.50980050809166
 30
0.0
 10
272.9893864381835
 20
36.58450474392356
 30
0.0
 10
272.9950685139899
 20
36.63907858292134
 30
0.0
 10
272.9978581348947
 20
36.66587166476538
 30
0.0
  0
SPLINE
  5
7E
330
1F
100
AcDbEntity
  8
0
  6
Continuous
 62
     7
370
    25
100
AcDbSpline
210
0.0
220
0.0
230
1.0
 70
     8
 71
     3
 72
    15
 73
    11
 74
     0
 42
0.00000001
 43
0.00000001
 40
0.0
 40
0.0
 40
0.0
 40
0.0
 40
0.1088051912393299
 40
0.2216242281961184
 40
0.3405240366526919
 40
0.4663415267028103
 40
0.5983205834502655
 40
0.7333661232568649
 40
0.8682632083239765
 40
1.0
 40
1.0
 40
1.0
 40
1.0
 10
272.9978581348947
 20
77.33454005253739
 30
0.0
 10
272.9950684312017
 20
77.36133213737688
 30
0.0
 10
272.989386111077
 20
77.41590467253518
 30
0.0
 10
272.9477218190593
 20
77.49060738207356
 30
0.0
 10
272.8867216435785
 20
77.55464811126606
 30
0.0
 10
272.8066719074536
 20
77.60294725160485
 30
0.0
 10
272.7142583071081
 20
77.63297496470534
 30
0.0
 10
272.6155849120273
 20
77.64295700849691
 30
0.0
 10
272.5163221780194
 20
77.6335999548435
 30
0.0
 10
272.4549837013548
 20
77.61013086240669
 30
0.0
 10
272.4246779719373
 20
77.59853540057364
 30
0.0
  0
SPLINE
  5
7F
330
1F
100
AcDbEntity
  8
0
  6
Continuous
 62
     7
370
    25
100
AcDbSpline
210
0.0
220
0.0
230
1.0
 70
     8
 71
     3
 72
    74
 73
    70
 74
     0
 42
0.00000001
 43
0.00000001
 40
0.0
 40
0.0
 40
0.0
 40
0.0
 40
0.0103423970737359
 40
0.0200220301212616
 40
0.0291918496558422
 40
0.0422273109077399
 40
0.0545909897106
 40
0.0701265723846835
 40
0.0844482328852914
 40
0.0973220563915315
 40
0.1145017031849317
 40
0.130549495506104
 40
0.1378362596259949
 40
0.144446562639751
 40
0.1502490955739609
 40
0.1548628470285723
 40
0.1584413848803492
 40
0.161350424422923
 40
0.1641541799038245
 40
0.1671098444111313
 40
0.1739961817618013
 40
0.1824967672056188
 40
0.1922385239777444
 40
0.2028296103313853
 40
0.2138807354377815
 40
0.2250925927760882
 40
0.2402849985750133
 40
0.2560382857010317
 40
0.2729219492467457
 40
0.2916210851427175
 40
0.3122139083040563
 40
0.3347568638375387
 40
0.3591386773253538
 40
0.3849705683830976
 40
0.4202088289155939
 40
0.4560537741256505
 40
0.4913699460144616
 40
0.5258633149644193
 40
0.5581372705701765
 40
0.5895170409497402
 40
0.6213948024980779
 40
0.6533701608742996
 40
0.684450544691863
 40
0.7147830885807933
 40
0.7439991249864012
 40
0.7717502122540346
 40
0.7916133783572061
 40
0.8105033303448824
 40
0.8285525100489318
 40
0.8456412007768569
 40
0.861684721424015
 40
0.8765944140700888
 40
0.8849324957562386
 40
0.8928150669696288
 40
0.9010275362153126
 40
0.9094399496980894
 40
0.9175400120577204
 40
0.9220942869164012
 40
0.9259781858677101
 40
0.9296728068724014
 40
0.9322345935545489
 40
0.935566111837923
 40
0.9398427411043903
 40
0.9452619339380222
 40
0.9520052443112841
 40
0.9601893876902505
 40
0.973263207360055
 40
0.9881542897397635
 40
1.0
 40
1.0
 40
1.0
 40
1.0
 10
272.4246779719373
 20
77.5987838552497
 30
0.0
 10
272.0668586961296
 20
77.41806618522506
 30
0.0
 10
271.3741500071175
 20
77.06821163923526
 30
0.0
 10
270.4492270923707
 20
76.41207722140942
 30
0.0
 10
269.5236870918697
 20
75.59245319250401
 30
0.0
 10
268.649269120955
 20
74.57174421455255
 30
0.0
 10
267.7897736972742
 20
73.23590306114862
 30
0.0
 10
267.0883093355323
 20
71.75446504416024
 30
0.0
 10
266.5347178729096
 20
70.19383041360119
 30
0.0
 10
266.0693681739481
 20
68.53934685508604
 30
0.0
 10
265.6658578067103
 20
66.80066163395982
 30
0.0
 10
265.3205138806517
 20
65.270505054895
 30
0.0
 10
265.0155942352578
 20
64.15174370173116
 30
0.0
 10
264.7741851382145
 20
63.42765339723132
 30
0.0
 10
264.5051443711772
 20
62.8240744316117
 30
0.0
 10
264.2106207431092
 20
62.36586861079906
 30
0.0
 10
263.9066445582906
 20
62.05685191130649
 30
0.0
 10
263.5978502008081
 20
61.86584406394778
 30
0.0
 10
263.2749323761692
 20
61.76286612301045
 30
0.0
 10
262.7823820315591
 20
61.729382889772
 30
0.0
 10
262.0799044986263
 20
61.90007600928275
 30
0.0
 10
261.2008843712347
 20
62.32010477510179
 30
0.0
 10
260.2427132082339
 20
62.89461880230215
 30
0.0
 10
259.2223154467383
 20
63.55374511790716
 30
0.0
 10
258.1456715522619
 20
64.23136686989633
 30
0.0
 10
256.8815104696693
 20
64.94308245622348
 30
0.0
 10
255.391001301468
 20
65.61785059208142
 30
0.0
 10
253.6087669164334
 20
66.14347415591996
 30
0.0
 10
251.6366936277787
 20
66.43181324938837
 30
0.0
 10
249.4591473839568
 20
66.49434893588705
 30
0.0
 10
247.0674980598534
 20
66.3557723472532
 30
0.0
 10
244.4690159681316
 20
66.06711430881614
 30
0.0
 10
241.680863128594
 20
65.66586587365407
 30
0.0
 10
238.4142116401653
 20
65.14370754334955
 30
0.0
 10
234.7124384701577
 20
64.53267729856663
 30
0.0
 10
230.6441768775578
 20
63.88753713922195
 30
0.0
 10
226.5958301376271
 20
63.30260183868733
 30
0.0
 10
222.6739006894628
 20
62.81389440178715
 30
0.0
 10
218.8933505078707
 20
62.43065256932668
 30
0.0
 10
215.2049509365858
 20
62.15355320300066
 30
0.0
 10
211.5209945923343
 20
61.99289791885859
 30
0.0
 10
207.8449781069506
 20
61.96748812694988
 30
0.0
 10
204.230643245307
 20
62.09718563143208
 30
0.0
 10
200.7338229423571
 20
62.40547536537695
 30
0.0
 10
197.3889107412823
 20
62.90398797501751
 30
0.0
 10
194.481981250512
 20
63.54893106558265
 30
0.0
 10
192.0167482388295
 20
64.2980648311022
 30
0.0
 10
189.961092475055
 20
65.08432796228588
 30
0.0
 10
188.0677835713949
 20
65.9786193839176
 30
0.0
 10
186.3536603034256
 20
66.9776862075581
 30
0.0
 10
184.8345465004319
 20
68.05477844457378
 30
0.0
 10
183.6686479652327
 20
69.03380391015062
 30
0.0
 10
182.7845506517936
 20
69.85301283808388
 30
0.0
 10
182.1065114657971
 20
70.51250767613423
 30
0.0
 10
181.4301862550764
 20
71.17814005252222
 30
0.0
 10
180.7290887270405
 20
71.82918250278607
 30
0.0
 10
180.0731215640863
 20
72.32302613483944
 30
0.0
 10
179.4854981430892
 20
72.58830206490427
 30
0.0
 10
179.0213460525148
 20
72.68353824504095
 30
0.0
 10
178.6252356200334
 20
72.66889832279958
 30
0.0
 10
178.2625871001529
 20
72.5839542598458
 30
0.0
 10
177.8974075587523
 20
72.4316932639672
 30
0.0
 10
177.4686118612262
 20
72.16213775395143
 30
0.0
 10
176.9862402865818
 20
71.74357083045835
 30
0.0
 10
176.466478962265
 20
71.14864595669883
 30
0.0
 10
175.8589090509627
 20
70.24827622215483
 30
0.0
 10
175.2111672885663
 20
69.004182952886
 30
0.0
 10
174.6303439346676
 20
67.57548834511228
 30
0.0
 10
174.273201586621
 20
66.60403453159257
 30
0.0
 10
174.1149700128644
 20
66.17363285398207
 30
0.0
  0
SPLINE
  5
80
330
1F
100
AcDbEntity
  8
0
  6
Continuous
 62
     7
370
    25
100
AcDbSpline
210
0.0
220
0.0
230
1.0
 70
     8
 71
     3
 72
    74
 73
    70
 74
     0
 42
0.00000001
 43
0.00000001
 40
0.0
 40
0.0
 40
0.0
 40
0.0
 40
0.0119408193461722
 40
0.0269338509241575
 40
0.0400657135153717
 40
0.048262411380953
 40
0.054998115297171
 40
0.0603963584743217
 40
0.0646449761245501
 40
0.067945610072489
 40
0.0704752727961546
 40
0.0723702033896922
 40
0.0740488573216649
 40
0.0802939770579528
 40
0.0869442793300991
 40
0.094813093959937
 40
0.1040089965068411
 40
0.1145271113268399
 40
0.1304844622529116
 40
0.1480105733238569
 40
0.1668262587045734
 40
0.1867984474635858
 40
0.2077320599367164
 40
0.2294257664277284
 40
0.2561583578997918
 40
0.2832006664074446
 40
0.310122056555837
 40
0.3380490798759422
 40
0.3675388937550542
 40
0.4062146737999775
 40
0.4463333886516878
 40
0.4871319113055861
 40
0.5277005320895066
 40
0.5593680471835022
 40
0.5898008909412573
 40
0.618552298902889
 40
0.6463526944309844
 40
0.672947473445015
 40
0.6937039823777361
 40
0.712990912473599
 40
0.7308062855318757
 40
0.7474480681923268
 40
0.7634529461065226
 40
0.7792878914091305
 40
0.7911840753468671
 40
0.8026688307188916
 40
0.8132186680661037
 40
0.8224601190205102
 40
0.8301157265368772
 40
0.8333928035925334
 40
0.8364708980121148
 40
0.8398610389447502
 40
0.8439436943532529
 40
0.8490282639662478
 40
0.8553757948874249
 40
0.8658623170829733
 40
0.8767586820580825
 40
0.8869830484550653
 40
0.8961912540205622
 40
0.9057400885489197
 40
0.9157954029233377
 40
0.9262394728551403
 40
0.9372629901862741
 40
0.949969433147761
 40
0.9606617948001746
 40
0.9724039140939378
 40
0.9809046067284218
 40
0.9900553735432027
 40
0.9999999999999999
 40
0.9999999999999999
 40
0.9999999999999999
 40
0.9999999999999999
 10
174.1161322419804
 20
47.82417699078074
 30
0.0
 10
174.2756041422259
 20
47.39033194476114
 30
0.0
 10
174.6353108142125
 20
46.41174601569572
 30
0.0
 10
175.2209988507007
 20
44.97440984669493
 30
0.0
 10
175.8743021742547
 20
43.7256368767376
 30
0.0
 10
176.4867267508352
 20
42.82558292400486
 30
0.0
 10
177.0094558151853
 20
42.23406009320396
 30
0.0
 10
177.4932404988981
 20
41.82047237058679
 30
0.0
 10
177.9219631906112
 20
41.55657188828042
 30
0.0
 10
178.2855037994045
 20
41.40977175737764
 30
0.0
 10
178.5785999589577
 20
41.34472192030793
 30
0.0
 10
178.8146198963421
 20
41.32537391850121
 30
0.0
 10
179.1951724051021
 20
41.3366589668845
 30
0.0
 10
179.7495156614856
 20
41.4971354706811
 30
0.0
 10
180.4322461506594
 20
41.93071767221709
 30
0.0
 10
181.1277641972101
 20
42.53193472627161
 30
0.0
 10
181.8928805465716
 20
43.276750484059
 30
0.0
 10
182.8775873161491
 20
44.24479661193077
 30
0.0
 10
184.1394353624009
 20
45.3907734075943
 30
0.0
 10
185.7474448985604
 20
46.62570308290226
 30
0.0
 10
187.6014066411333
 20
47.77959778723145
 30
0.0
 10
189.6788239904832
 20
48.80174406975637
 30
0.0
 10
191.939365425024
 20
49.68210328660475
 30
0.0
 10
194.5116939032017
 20
50.46026101761834
 30
0.0
 10
197.3677833095981
 20
51.08850102036737
 30
0.0
 10
200.4582408350395
 20
51.55606708290197
 30
0.0
 10
203.6153521726743
 20
51.85735609397155
 30
0.0
 10
206.8776622145883
 20
52.01053111190923
 30
0.0
 10
210.5983404953235
 20
52.03152308289031
 30
0.0
 10
214.7888466282816
 20
51.88237497060008
 30
0.0
 10
219.4062099391242
 20
51.53308178418122
 30
0.0
 10
224.082465610733
 20
51.02751907648297
 30
0.0
 10
228.4194075797271
 20
50.44365457962117
 30
0.0
 10
232.3487899141682
 20
49.84643100666986
 30
0.0
 10
235.8207194139778
 20
49.28527186608011
 30
0.0
 10
239.1433278470513
 20
48.73867311105487
 30
0.0
 10
242.3224669968619
 20
48.23547018479786
 30
0.0
 10
245.2051189722814
 20
47.83953680082382
 30
0.0
 10
247.7735138891719
 20
47.59056617117305
 30
0.0
 10
250.0136760633618
 20
47.50364592739636
 30
0.0
 10
252.0949986624294
 20
47.61479358674799
 30
0.0
 10
254.0251578683793
 20
47.9529020172705
 30
0.0
 10
255.8124031034827
 20
48.5475719087155
 30
0.0
 10
257.3356672420377
 20
49.29530832092663
 30
0.0
 10
258.6398039140531
 20
50.07347039658641
 30
0.0
 10
259.7434807927209
 20
50.7854136317811
 30
0.0
 10
260.7678445407683
 20
51.43183780024125
 30
0.0
 10
261.7018968172301
 20
51.93892925517683
 30
0.0
 10
262.4441248162257
 20
52.20779980195048
 30
0.0
 10
262.9866793331549
 20
52.26424220780216
 30
0.0
 10
263.3651923647402
 20
52.2218194674897
 30
0.0
 10
263.7487935196653
 20
52.06452530598055
 30
0.0
 10
264.12611616434
 20
51.74666501349713
 30
0.0
 10
264.4706732507078
 20
51.24874094183996
 30
0.0
 10
264.8226606136799
 20
50.47379629146202
 30
0.0
 10
265.1361688366798
 20
49.44492223292949
 30
0.0
 10
265.4273613077782
 20
48.25667521897582
 30
0.0
 10
265.687203092787
 20
47.11165679037273
 30
0.0
 10
265.9410652556478
 20
46.01885212837742
 30
0.0
 10
266.2144689364374
 20
44.93739052254778
 30
0.0
 10
266.5385263176943
 20
43.81988354946166
 30
0.0
 10
266.9377064121592
 20
42.66600281334505
 30
0.0
 10
267.4532883719561
 20
41.44636683662481
 30
0.0
 10
268.0881209475831
 20
40.27124224596464
 30
0.0
 10
268.8695092424089
 20
39.15454097619737
 30
0.0
 10
269.6757460511869
 20
38.2631584287702
 30
0.0
 10
270.5403439170999
 20
37.52113759974443
 30
0.0
 10
271.419439493682
 20
36.90835904074056
 30
0.0
 10
272.0804384962154
 20
36.57561989054883
 30
0.0
 10
272.4246779719373
 20
36.40233377336087
 30
0.0
  0
SPLINE
  5
81
330
1F
100
AcDbEntity
  8
0
  6
Continuous
 62
     7
370
    25
100
AcDbSpline
210
0.0
220
0.0
230
1.0
 70
     8
 71
     3
 72
    11
 73
     7
 74
     0
 42
0.00000001
 43
0.00000001
 40
0.0
 40
0.0
 40
0.0
 40
0.0
 40
0.2760054598753376
 40
0.5340057784860311
 40
0.7750626917646231
 40
1.0
 40
1.0
 40
1.0
 40
1.0
 10
174.1157840172108
 20
66.17347578260957
 30
0.0
 10
173.9299123291372
 20
65.63040869096444
 30
0.0
 10
173.5702942421142
 20
64.57970134200446
 30
0.0
 10
173.2354882683637
 20
63.00133521257593
 30
0.0
 10
173.0370000297706
 20
61.5077364061254
 30
0.0
 10
173.013974630179
 20
60.53912420473827
 30
0.0
 10
173.0028601760376
 20
60.07157115097701
 30
0.0
  0
SPLINE
  5
82
330
1F
100
AcDbEntity
  8
0
  6
Continuous
 62
     7
370
    25
100
AcDbSpline
210
0.0
220
0.0
230
1.0
 70
     8
 71
     3
 72
    12
 73
     8
 74
     0
 42
0.00000001
 43
0.00000001
 40
0.0
 40
0.0
 40
0.0
 40
0.0
 40
0.1389736835122608
 40
0.3079038886209876
 40
0.507184247824642
 40
0.7375141023090898
 40
1.0
 40
1.0
 40
1.0
 40
1.0
 10
173.0028601760376
 20
53.92795122105765
 30
0.0
 10
173.0071970549259
 20
53.63903734117934
 30
0.0
 10
173.016805650168
 20
52.99893264766548
 30
0.0
 10
173.1059329579187
 20
51.94737364513445
 30
0.0
 10
173.2902436483741
 20
50.71629279290548
 30
0.0
 10
173.6054553729549
 20
49.30987996334677
 30
0.0
 10
173.9384322633405
 20
48.34031838533563
 30
0.0
 10
174.1157840172108
 20
47.8239058314603
 30
0.0
  0
SPLINE
  5
83
330
1F
100
AcDbEntity
  8
0
  6
Continuous
 62
     7
370
    25
100
AcDbSpline
210
0.0
220
0.0
230
1.0
 70
    24
 71
     3
 72
    34
 73
    30
 74
     0
 42
0.00000001
 43
0.00000001
 40
0.0
 40
0.0
 40
0.0
 40
0.0
 40
0.0625
 40
0.0625
 40
0.125
 40
0.125
 40
0.1874999999999999
 40
0.1874999999999999
 40
0.2499999999999999
 40
0.2499999999999999
 40
0.3749999999999999
 40
0.3749999999999999
 40
0.4374999999999999
 40
0.4374999999999999
 40
0.4999999999999999
 40
0.4999999999999999
 40
0.5624999999999999
 40
0.5624999999999999
 40
0.6249999999999999
 40
0.6249999999999999
 40
0.7499999999999999
 40
0.7499999999999999
 40
0.8124999999999999
 40
0.8124999999999999
 40
0.8749999999999999
 40
0.8749999999999999
 40
0.9374999999999999
 40
0.9374999999999999
 40
1.0
 40
1.0
 40
1.0
 40
1.0
 10
272.9978581348947
 20
36.66587166476535
 30
0.0
 10
272.9978581348947
 20
36.66620276169058
 30
0.0
 10
272.9978581348947
 20
36.79718062369447
 30
0.0
 10
272.9978581348947
 20
37.31623133262442
 30
0.0
 10
272.9978581348947
 20
37.70506321106757
 30
0.0
 10
272.9978581348947
 20
38.72347890336803
 30
0.0
 10
272.9978581348947
 20
39.35343652886088
 30
0.0
 10
272.9978581348947
 20
40.83268680783647
 30
0.0
 10
272.9978581348947
 20
41.6809788275425
 30
0.0
 10
272.9978581348947
 20
44.50359922462165
 30
0.0
 10
272.9978581348947
 20
46.75936503274953
 30
0.0
 10
272.9978581348947
 20
50.44845190172533
 30
0.0
 10
272.9978581348947
 20
51.7282534825472
 30
0.0
 10
272.9978581348947
 20
54.33876545253378
 30
0.0
 10
272.9978581348947
 20
55.66962306818449
 30
0.0
 10
272.9978581348947
 20
58.33141284505732
 30
0.0
 10
272.9978581348947
 20
59.66225196936846
 30
0.0
 10
272.9978581348947
 20
62.27269673386342
 30
0.0
 10
272.9978581348947
 20
63.55245286567641
 30
0.0
 10
272.9978581348947
 20
67.24143872029917
 30
0.0
 10
272.9978581348947
 20
69.49721334566935
 30
0.0
 10
272.9978581348947
 20
72.3198363352961
 30
0.0
 10
272.9978581348947
 20
73.16813050774135
 30
0.0
 10
272.9978581348947
 20
74.6474171258067
 30
0.0
 10
272.9978581348947
 20
75.27742270463933
 30
0.0
 10
272.9978581348947
 20
76.29588565781506
 30
0.0
 10
272.9978581348947
 20
76.68470592009103
 30
0.0
 10
272.9978581348947
 20
77.20353209360495
 30
0.0
 10
272.9978581348947
 20
77.33432127760811
 30
0.0
 10
272.9978581348947
 20
77.33454005253738
 30
0.0
  0
SPLINE
  5
84
330
1F
100
AcDbEntity
  8
0
  6
Continuous
 62
     7
370
    25
100
AcDbSpline
210
0.0
220
0.0
230
1.0
 70
    24
 71
     3
 72
    22
 73
    18
 74
     0
 42
0.00000001
 43
0.00000001
 40
0.0
 40
0.0
 40
0.0
 40
0.0
 40
0.125
 40
0.125
 40
0.25
 40
0.25
 40
0.375
 40
0.375
 40
0.5
 40
0.5
 40
0.625
 40
0.625
 40
0.75
 40
0.75
 40
0.875
 40
0.875
 40
1.0
 40
1.0
 40
1.0
 40
1.0
 10
173.0028601760376
 20
60.07157115097701
 30
0.0
 10
173.0028601760376
 20
60.07225140996105
 30
0.0
 10
173.0028601760376
 20
59.99379181505624
 30
0.0
 10
173.0028601760376
 20
59.68562275828331
 30
0.0
 10
173.0028601760376
 20
59.4565233630255
 30
0.0
 10
173.0028601760376
 20
58.8874910320561
 30
0.0
 10
173.0028601760376
 20
58.5481048997101
 30
0.0
 10
173.0028601760376
 20
57.80492548821603
 30
0.0
 10
173.0028601760376
 20
57.40230813134846
 30
0.0
 10
173.0028601760376
 20
56.59806377062535
 30
0.0
 10
173.0028601760376
 20
56.19645017784896
 30
0.0
 10
173.0028601760376
 20
55.45304664244146
 30
0.0
 10
173.0028601760376
 20
55.11127918452234
 30
0.0
 10
173.0028601760376
 20
54.54359361856246
 30
0.0
 10
173.0028601760376
 20
54.31666516111013
 30
0.0
 10
173.0028601760376
 20
54.0075529166771
 30
0.0
 10
173.0028601760376
 20
53.92766747964792
 30
0.0
 10
173.0028601760376
 20
53.92795122105765
 30
0.0
  0
ENDSEC
  0
SECTION
  2
OBJECTS
  0
DICTIONARY
  5
C
330
0
100
AcDbDictionary
281
     1
  3
ACAD_GROUP
350
D
  3
ACAD_LAYOUT
350
1A
  3
ACAD_MLINESTYLE
350
17
  3
ACAD_PLOTSETTINGS
350
19
  3
ACAD_PLOTSTYLENAME
350
E
  3
ACAD_SCALELIST
350
47
  3
DWGPROPS
350
85
  0
DICTIONARY
  5
D
102
{ACAD_REACTORS
330
C
102
}
330
C
100
AcDbDictionary
281
     1
  0
DICTIONARY
  5
1A
102
{ACAD_REACTORS
330
C
102
}
330
C
100
AcDbDictionary
281
     1
  3
Layout1
350
1E
  3
Layout2
350
26
  3
Model
350
22
  0
DICTIONARY
  5
17
102
{ACAD_REACTORS
330
C
102
}
330
C
100
AcDbDictionary
281
     1
  3
Standard
350
18
  0
DICTIONARY
  5
19
102
{ACAD_REACTORS
330
C
102
}
330
C
100
AcDbDictionary
281
     1
  0
ACDBDICTIONARYWDFLT
  5
E
102
{ACAD_REACTORS
330
C
102
}
330
C
100
AcDbDictionary
281
     1
  3
Normal
350
F
100
AcDbDictionaryWithDefault
340
F
  0
DICTIONARY
  5
47
102
{ACAD_REACTORS
330
C
102
}
330
C
100
AcDbDictionary
281
     1
  3
A0
350
48
  3
A1
350
49
  3
A2
350
4A
  3
A3
350
4B
  3
A4
350
4C
  3
A5
350
4D
  3
A6
350
4E
  3
A7
350
4F
  3
A8
350
50
  3
A9
350
51
  3
B0
350
52
  3
B1
350
53
  3
B2
350
54
  3
B3
350
55
  3
B4
350
56
  3
B5
350
57
  3
B6
350
58
  0
XRECORD
  5
85
102
{ACAD_REACTORS
330
C
102
}
330
C
100
AcDbXrecord
280
     1
  1
DWGPROPS COOKIE
  2

  3

  4

  6

  7

  8

  9

300
=
301
=
302
=
303
=
304
=
305
=
306
=
307
=
308
=
309
=
 40
0.0
 41
2461214.575700128
 42
2461214.575700405
  1

 90
        0
  0
LAYOUT
  5
1E
102
{ACAD_REACTORS
330
1A
102
}
330
1A
100
AcDbPlotSettings
  1

  2
none_device
  4

  6

 40
0.0
 41
0.0
 42
0.0
 43
0.0
 44
0.0
 45
0.0
 46
0.0
 47
0.0
 48
0.0
 49
0.0
140
0.0
141
0.0
142
1.0
143
1.0
 70
   688
 72
     1
 73
     0
 74
     5
  7

 75
    16
147
1.0
148
0.0
149
0.0
100
AcDbLayout
  1
Layout1
 70
     1
 71
     1
 10
0.0
 20
0.0
 11
420.0
 21
297.0
 12
0.0
 22
0.0
 32
0.0
 14
1.0000000000E+20
 24
1.0000000000E+20
 34
1.0000000000E+20
 15
-1.0000000000E+20
 25
-1.0000000000E+20
 35
-1.0000000000E+20
146
0.0
 13
0.0
 23
0.0
 33
0.0
 16
1.0
 26
0.0
 36
0.0
 17
0.0
 27
1.0
 37
0.0
 76
     0
330
1B
  0
LAYOUT
  5
26
102
{ACAD_REACTORS
330
1A
102
}
330
1A
100
AcDbPlotSettings
  1

  2
none_device
  4

  6

 40
0.0
 41
0.0
 42
0.0
 43
0.0
 44
0.0
 45
0.0
 46
0.0
 47
0.0
 48
0.0
 49
0.0
140
0.0
141
0.0
142
1.0
143
1.0
 70
   688
 72
     1
 73
     0
 74
     5
  7

 75
    16
147
1.0
148
0.0
149
0.0
100
AcDbLayout
  1
Layout2
 70
     1
 71
     2
 10
0.0
 20
0.0
 11
0.0
 21
0.0
 12
0.0
 22
0.0
 32
0.0
 14
0.0
 24
0.0
 34
0.0
 15
0.0
 25
0.0
 35
0.0
146
0.0
 13
0.0
 23
0.0
 33
0.0
 16
1.0
 26
0.0
 36
0.0
 17
0.0
 27
1.0
 37
0.0
 76
     0
330
23
  0
LAYOUT
  5
22
102
{ACAD_REACTORS
330
1A
102
}
330
1A
100
AcDbPlotSettings
  1

  2
none_device
  4
Letter_(8.50_x_11.00_Inches)
  6

 40
6.35
 41
6.35
 42
6.35000508
 43
6.35000508
 44
215.9
 45
279.4
 46
0.0
 47
0.0
 48
0.0
 49
0.0
140
0.0
141
0.0
142
1.0
143
1.0
 70
  1712
 72
     1
 73
     0
 74
     0
  7

 75
     0
147
1.0
148
0.0
149
0.0
100
AcDbLayout
  1
Model
 70
     1
 71
     0
 10
0.0
 20
0.0
 11
297.0
 21
210.0
 12
0.0
 22
0.0
 32
0.0
 14
0.0
 24
0.0
 34
0.0
 15
297.0
 25
210.0
 35
0.0
146
0.0
 13
0.0
 23
0.0
 33
0.0
 16
1.0
 26
0.0
 36
0.0
 17
0.0
 27
1.0
 37
0.0
 76
     0
330
1F
331
29
  0
MLINESTYLE
  5
18
102
{ACAD_REACTORS
330
17
102
}
330
17
100
AcDbMlineStyle
  2
Standard
 70
     0
  3

 62
   256
 51
90.0
 52
90.0
 71
     2
 49
0.5
 62
   256
  6
BYLAYER
 49
-0.5
 62
   256
  6
BYLAYER
  0
ACDBPLACEHOLDER
  5
F
102
{ACAD_REACTORS
330
E
102
}
330
E
  0
SCALE
  5
48
102
{ACAD_REACTORS
330
47
102
}
330
47
100
AcDbScale
 70
     0
300
1:1
140
1.0
141
1.0
290
     1
  0
SCALE
  5
49
102
{ACAD_REACTORS
330
47
102
}
330
47
100
AcDbScale
 70
     0
300
1:2
140
1.0
141
2.0
290
     0
  0
SCALE
  5
4A
102
{ACAD_REACTORS
330
47
102
}
330
47
100
AcDbScale
 70
     0
300
1:4
140
1.0
141
4.0
290
     0
  0
SCALE
  5
4B
102
{ACAD_REACTORS
330
47
102
}
330
47
100
AcDbScale
 70
     0
300
1:5
140
1.0
141
5.0
290
     0
  0
SCALE
  5
4C
102
{ACAD_REACTORS
330
47
102
}
330
47
100
AcDbScale
 70
     0
300
1:8
140
1.0
141
8.0
290
     0
  0
SCALE
  5
4D
102
{ACAD_REACTORS
330
47
102
}
330
47
100
AcDbScale
 70
     0
300
1:10
140
1.0
141
10.0
290
     0
  0
SCALE
  5
4E
102
{ACAD_REACTORS
330
47
102
}
330
47
100
AcDbScale
 70
     0
300
1:16
140
1.0
141
16.0
290
     0
  0
SCALE
  5
4F
102
{ACAD_REACTORS
330
47
102
}
330
47
100
AcDbScale
 70
     0
300
1:20
140
1.0
141
20.0
290
     0
  0
SCALE
  5
50
102
{ACAD_REACTORS
330
47
102
}
330
47
100
AcDbScale
 70
     0
300
1:30
140
1.0
141
30.0
290
     0
  0
SCALE
  5
51
102
{ACAD_REACTORS
330
47
102
}
330
47
100
AcDbScale
 70
     0
300
1:40
140
1.0
141
40.0
290
     0
  0
SCALE
  5
52
102
{ACAD_REACTORS
330
47
102
}
330
47
100
AcDbScale
 70
     0
300
1:50
140
1.0
141
50.0
290
     0
  0
SCALE
  5
53
102
{ACAD_REACTORS
330
47
102
}
330
47
100
AcDbScale
 70
     0
300
1:100
140
1.0
141
100.0
290
     0
  0
SCALE
  5
54
102
{ACAD_REACTORS
330
47
102
}
330
47
100
AcDbScale
 70
     0
300
2:1
140
2.0
141
1.0
290
     0
  0
SCALE
  5
55
102
{ACAD_REACTORS
330
47
102
}
330
47
100
AcDbScale
 70
     0
300
4:1
140
4.0
141
1.0
290
     0
  0
SCALE
  5
56
102
{ACAD_REACTORS
330
47
102
}
330
47
100
AcDbScale
 70
     0
300
8:1
140
8.0
141
1.0
290
     0
  0
SCALE
  5
57
102
{ACAD_REACTORS
330
47
102
}
330
47
100
AcDbScale
 70
     0
300
10:1
140
10.0
141
1.0
290
     0
  0
SCALE
  5
58
102
{ACAD_REACTORS
330
47
102
}
330
47
100
AcDbScale
 70
     0
300
100:1
140
100.0
141
1.0
290
     0
  0
ENDSEC
  0
EOF
