  0
SECTION
  2
HEADER
  9
$ACADVER
  1
AC1015
  9
$ACADMAINTVER
 70
     6
  9
$DWGCODEPAGE
  3
ANSI_936
  9
$INSBASE
 10
0.0
 20
0.0
 30
0.0
  9
$EXTMIN
 10
0.0
 20
0.0
 30
0.0
  9
$EXTMAX
 10
297.0
 20
210.0
 30
0.0
  9
$LIMMIN
 10
0.0
 20
0.0
  9
$LIMMAX
 10
297.0
 20
210.0
  9
$ORTHOMODE
 70
     0
  9
$REGENMODE
 70
     1
  9
$FILLMODE
 70
     1
  9
$QTEXTMODE
 70
     0
  9
$MIRRTEXT
 70
     1
  9
$LTSCALE
 40
1.0
  9
$ATTMODE
 70
     1
  9
$TEXTSIZE
 40
3.5
  9
$TRACEWID
 40
1.0
  9
$TEXTSTYLE
  7
Standard
  9
$CLAYER
  8
0
  9
$CELTYPE
  6
ByLayer
  9
$CECOLOR
 62
   256
  9
$CELTSCALE
 40
1.0
  9
$DISPSILH
 70
     0
  9
$DIMSCALE
 40
1.0
  9
$DIMASZ
 40
4.08
  9
$DIMEXO
 40
0.0
  9
$DIMDLI
 40
3.75
  9
$DIMRND
 40
0.0
  9
$DIMDLE
 40
0.0
  9
$DIMEXE
 40
2.0
  9
$DIMTP
 40
0.0
  9
$DIMTM
 40
0.0
  9
$DIMTXT
 40
3.5
  9
$DIMCEN
 40
2.5
  9
$DIMTSZ
 40
0.0
  9
$DIMTOL
 70
     0
  9
$DIMLIM
 70
     0
  9
$DIMTIH
 70
     1
  9
$DIMTOH
 70
     1
  9
$DIMSE1
 70
     0
  9
$DIMSE2
 70
     0
  9
$DIMTAD
 70
     1
  9
$DIMZIN
 70
     0
  9
$DIMBLK
  1

  9
$DIMASO
 70
     1
  9
$DIMSHO
 70
     1
  9
$DIMPOST
  1

  9
$DIMAPOST
  1

  9
$DIMALT
 70
     0
  9
$DIMALTD
 70
     3
  9
$DIMALTF
 40
0.0393700787
  9
$DIMLFAC
 40
2.0
  9
$DIMTOFL
 70
     1
  9
$DIMTVP
 40
0.0
  9
$DIMTIX
 70
     0
  9
$DIMSOXD
 70
     0
  9
$DIMSAH
 70
     0
  9
$DIMBLK1
  1

  9
$DIMBLK2
  1

  9
$DIMSTYLE
  2
ISO-25
  9
$DIMCLRD
 70
     0
  9
$DIMCLRE
 70
     0
  9
$DIMCLRT
 70
     0
  9
$DIMTFAC
 40
1.0
  9
$DIMGAP
 40
1.524
  9
$DIMJUST
 70
     0
  9
$DIMSD1
 70
     0
  9
$DIMSD2
 70
     0
  9
$DIMTOLJ
 70
     0
  9
$DIMTZIN
 70
     0
  9
$DIMALTZ
 70
     0
  9
$DIMALTTZ
 70
     0
  9
$DIMUPT
 70
     0
  9
$DIMDEC
 70
     2
  9
$DIMTDEC
 70
     2
  9
$DIMALTU
 70
     2
  9
$DIMALTTD
 70
     3
  9
$DIMTXSTY
  7
Standard
  9
$DIMAUNIT
 70
     0
  9
$DIMADEC
 70
     2
  9
$DIMALTRND
 40
0.0
  9
$DIMAZIN
 70
     0
  9
$DIMDSEP
 70
    44
  9
$DIMATFIT
 70
     3
  9
$DIMFRAC
 70
     0
  9
$DIMLDRBLK
  1

  9
$DIMLUNIT
 70
     2
  9
$DIMLWD
 70
    -2
  9
$DIMLWE
 70
    -2
  9
$DIMTMOVE
 70
     0
  9
$LUNITS
 70
     2
  9
$LUPREC
 70
     2
  9
$SKETCHINC
 40
1.0
  9
$FILLETRAD
 40
0.0
  9
$AUNITS
 70
     0
  9
$AUPREC
 70
     2
  9
$MENU
  1
.
  9
$ELEVATION
 40
0.0
  9
$PELEVATION
 40
0.0
  9
$THICKNESS
 40
0.0
  9
$LIMCHECK
 70
     0
  9
$CHAMFERA
 40
0.0
  9
$CHAMFERB
 40
0.0
  9
$CHAMFERC
 40
0.0
  9
$CHAMFERD
 40
0.0
  9
$SKPOLY
 70
     0
  9
$TDCREATE
 40
2461214.122177986
  9
$TDUCREATE
 40
2461213.788844653
  9
$TDUPDATE
 40
2461214.122178357
  9
$TDUUPDATE
 40
2461213.788845023
  9
$TDINDWG
 40
0.0000000116
  9
$TDUSRTIMER
 40
0.0000000116
  9
$USRTIMER
 70
     1
  9
$ANGBASE
 50
0.0
  9
$ANGDIR
 70
     0
  9
$PDMODE
 70
     0
  9
$PDSIZE
 40
-1.0
  9
$PLINEWID
 40
0.0
  9
$SPLFRAME
 70
     0
  9
$SPLINETYPE
 70
     6
  9
$SPLINESEGS
 70
     8
  9
$HANDSEED
  5
11B
  9
$SURFTAB1
 70
     6
  9
$SURFTAB2
 70
     6
  9
$SURFTYPE
 70
     6
  9
$SURFU
 70
     6
  9
$SURFV
 70
     6
  9
$UCSBASE
  2

  9
$UCSNAME
  2

  9
$UCSORG
 10
0.0
 20
0.0
 30
0.0
  9
$UCSXDIR
 10
1.0
 20
0.0
 30
0.0
  9
$UCSYDIR
 10
0.0
 20
1.0
 30
0.0
  9
$UCSORTHOREF
  2

  9
$UCSORTHOVIEW
 70
     0
  9
$UCSORGTOP
 10
0.0
 20
0.0
 30
0.0
  9
$UCSORGBOTTOM
 10
0.0
 20
0.0
 30
0.0
  9
$UCSORGLEFT
 10
0.0
 20
0.0
 30
0.0
  9
$UCSORGRIGHT
 10
0.0
 20
0.0
 30
0.0
  9
$UCSORGFRONT
 10
0.0
 20
0.0
 30
0.0
  9
$UCSORGBACK
 10
0.0
 20
0.0
 30
0.0
  9
$PUCSBASE
  2

  9
$PUCSNAME
  2

  9
$PUCSORG
 10
0.0
 20
0.0
 30
0.0
  9
$PUCSXDIR
 10
1.0
 20
0.0
 30
0.0
  9
$PUCSYDIR
 10
0.0
 20
1.0
 30
0.0
  9
$PUCSORTHOREF
  2

  9
$PUCSORTHOVIEW
 70
     0
  9
$PUCSORGTOP
 10
0.0
 20
0.0
 30
0.0
  9
$PUCSORGBOTTOM
 10
0.0
 20
0.0
 30
0.0
  9
$PUCSORGLEFT
 10
0.0
 20
0.0
 30
0.0
  9
$PUCSORGRIGHT
 10
0.0
 20
0.0
 30
0.0
  9
$PUCSORGFRONT
 10
0.0
 20
0.0
 30
0.0
  9
$PUCSORGBACK
 10
0.0
 20
0.0
 30
0.0
  9
$USERI1
 70
     0
  9
$USERI2
 70
     0
  9
$USERI3
 70
     0
  9
$USERI4
 70
     0
  9
$USERI5
 70
     0
  9
$USERR1
 40
0.0
  9
$USERR2
 40
0.0
  9
$USERR3
 40
0.0
  9
$USERR4
 40
0.0
  9
$USERR5
 40
0.0
  9
$WORLDVIEW
 70
     1
  9
$SHADEDGE
 70
     3
  9
$SHADEDIF
 70
    70
  9
$TILEMODE
 70
     1
  9
$MAXACTVP
 70
    64
  9
$PINSBASE
 10
0.0
 20
0.0
 30
0.0
  9
$PLIMCHECK
 70
     0
  9
$PEXTMIN
 10
1.0000000000E+20
 20
1.0000000000E+20
 30
1.0000000000E+20
  9
$PEXTMAX
 10
-1.0000000000E+20
 20
-1.0000000000E+20
 30
-1.0000000000E+20
  9
$PLIMMIN
 10
0.0
 20
0.0
  9
$PLIMMAX
 10
420.0
 20
297.0
  9
$UNITMODE
 70
     0
  9
$VISRETAIN
 70
     1
  9
$PLINEGEN
 70
     0
  9
$PSLTSCALE
 70
     1
  9
$TREEDEPTH
 70
  3020
  9
$CMLSTYLE
  2
Standard
  9
$CMLJUST
 70
     0
  9
$CMLSCALE
 40
20.0
  9
$PROXYGRAPHICS
 70
     1
  9
$MEASUREMENT
 70
     1
  9
$CELWEIGHT
370
    -1
  9
$ENDCAPS
280
     0
  9
$JOINSTYLE
280
     0
  9
$LWDISPLAY
290
     1
  9
$INSUNITS
 70
     4
  9
$HYPERLINKBASE
  1

  9
$STYLESHEET
  1

  9
$XEDIT
290
     1
  9
$CEPSNTYPE
380
     0
  9
$PSTYLEMODE
290
     1
  9
$FINGERPRINTGUID
  2
{a88cd046-2fc6-4ce7-b85e-f30ddc0eba2c}
  9
$VERSIONGUID
  2
{FAEB1C32-E019-11D5-929B-00C0DF256EC4}
  9
$EXTNAMES
290
     1
  9
$PSVPSCALE
 40
0.0
  9
$OLESTARTUP
290
     0
  0
ENDSEC
  0
SECTION
  2
CLASSES
  0
CLASS
  1
ACDBDICTIONARYWDFLT
  2
AcDbDictionaryWithDefault
  3
ObjectDBX Classes
 90
        0
280
     0
281
     0
  0
CLASS
  1
VISUALSTYLE
  2
AcDbVisualStyle
  3
ObjectDBX Classes
 90
     4095
280
     0
281
     0
  0
CLASS
  1
MATERIAL
  2
AcDbMaterial
  3
ObjectDBX Classes
 90
     1153
280
     0
281
     0
  0
CLASS
  1
SCALE
  2
AcDbScale
  3
ObjectDBX Classes
 90
     1153
280
     0
281
     0
  0
CLASS
  1
TABLESTYLE
  2
AcDbTableStyle
  3
ObjectDBX Classes
 90
     4095
280
     0
281
     0
  0
CLASS
  1
MLEADERSTYLE
  2
AcDbMLeaderStyle
  3
ACDB_MLEADERSTYLE_CLASS
 90
     4095
280
     0
281
     0
  0
CLASS
  1
SUN
  2
AcDbSun
  3
SCENEOE
 90
     1153
280
     0
281
     0
  0
CLASS
  1
ACDBPLACEHOLDER
  2
AcDbPlaceHolder
  3
ObjectDBX Classes
 90
        0
280
     0
281
     0
  0
CLASS
  1
LAYOUT
  2
AcDbLayout
  3
ObjectDBX Classes
 90
        0
280
     0
281
     0
  0
ENDSEC
  0
SECTION
  2
TABLES
  0
TABLE
  2
VPORT
  5
8
330
0
100
AcDbSymbolTable
 70
     1
  0
VPORT
  5
29
330
8
100
AcDbSymbolTableRecord
100
AcDbViewportTableRecord
  2
*Active
 70
     0
 10
0.0
 20
0.0
 11
1.0
 21
1.0
 12
148.5
 22
105.0
 13
0.0
 23
0.0
 14
10.0
 24
10.0
 15
10.0
 25
10.0
 16
0.0
 26
0.0
 36
1.0
 17
0.0
 27
0.0
 37
0.0
 40
210.0
 41
1.4142857143
 42
50.0
 43
0.0
 44
0.0
 50
0.0
 51
0.0
 71
     0
 72
  2000
 73
     1
 74
     3
 75
     0
 76
     0
 77
     0
 78
     0
281
     0
 65
     1
110
0.0
120
0.0
130
0.0
111
1.0
121
0.0
131
0.0
112
0.0
122
1.0
132
0.0
 79
     0
146
0.0
  0
ENDTAB
  0
TABLE
  2
LTYPE
  5
5
330
0
100
AcDbSymbolTable
 70
     6
  0
LTYPE
  5
14
330
5
100
AcDbSymbolTableRecord
100
AcDbLinetypeTableRecord
  2
ByBlock
 70
     0
  3

 72
    65
 73
     0
 40
0.0
  0
LTYPE
  5
15
330
5
100
AcDbSymbolTableRecord
100
AcDbLinetypeTableRecord
  2
ByLayer
 70
     0
  3

 72
    65
 73
     0
 40
0.0
  0
LTYPE
  5
16
330
5
100
AcDbSymbolTableRecord
100
AcDbLinetypeTableRecord
  2
Continuous
 70
     0
  3
Solid line
 72
    65
 73
     0
 40
0.0
  0
LTYPE
  5
5E
330
5
100
AcDbSymbolTableRecord
100
AcDbLinetypeTableRecord
  2
HIDDEN
 70
     0
  3
Hidden __ __ __ __ __ __ __ __ __ __ __ __ __ __
 72
    65
 73
     2
 40
1.905
 49
1.27
 74
     0
 49
-0.635
 74
     0
  0
LTYPE
  5
5F
330
5
100
AcDbSymbolTableRecord
100
AcDbLinetypeTableRecord
  2
PHANTOM
 70
     0
  3
Phantom ______  __  __  ______  __  __  ______
 72
    65
 73
     6
 40
12.7
 49
6.35
 74
     0
 49
-1.27
 74
     0
 49
1.27
 74
     0
 49
-1.27
 74
     0
 49
1.27
 74
     0
 49
-1.27
 74
     0
  0
LTYPE
  5
60
330
5
100
AcDbSymbolTableRecord
100
AcDbLinetypeTableRecord
  2
CENTER
 70
     0
  3
Center ____ _ ____ _ ____ _ ____ _ ____ _ ____
 72
    65
 73
     4
 40
10.16
 49
6.35
 74
     0
 49
-1.27
 74
     0
 49
1.27
 74
     0
 49
-1.27
 74
     0
  0
LTYPE
  5
61
330
5
100
AcDbSymbolTableRecord
100
AcDbLinetypeTableRecord
  2
CENTERX2
 70
     0
  3
Center (2x) ________  __  ________  __  _____
 72
    65
 73
     4
 40
20.32
 49
12.7
 74
     0
 49
-2.54
 74
     0
 49
2.54
 74
     0
 49
-2.54
 74
     0
  0
LTYPE
  5
62
330
5
100
AcDbSymbolTableRecord
100
AcDbLinetypeTableRecord
  2
DOT2
 70
     0
  3
Dot (.5x) ........................................
 72
    65
 73
     2
 40
0.635
 49
0.0
 74
     0
 49
-0.635
 74
     0
  0
ENDTAB
  0
TABLE
  2
LAYER
  5
2
330
0
100
AcDbSymbolTable
 70
    14
  0
LAYER
  5
10
330
2
100
AcDbSymbolTableRecord
100
AcDbLayerTableRecord
  2
0
 70
     0
 62
     7
  6
Continuous
370
    -3
390
F
  0
LAYER
  5
63
330
2
100
AcDbSymbolTableRecord
100
AcDbLayerTableRecord
  2
SLD-0
 70
     0
 62
     7
  6
Continuous
370
    -3
390
F
  0
LAYER
  5
64
330
2
100
AcDbSymbolTableRecord
100
AcDbLayerTableRecord
  2
5
 70
     0
 62
     7
  6
Continuous
370
    -3
390
F
  0
LAYER
  5
65
330
2
100
AcDbSymbolTableRecord
100
AcDbLayerTableRecord
  2
9
 70
     0
 62
     7
  6
Continuous
370
    -3
390
F
  0
LAYER
  5
66
330
2
100
AcDbSymbolTableRecord
100
AcDbLayerTableRecord
  2
10
 70
     0
 62
     7
  6
Continuous
370
    -3
390
F
  0
LAYER
  5
67
330
2
100
AcDbSymbolTableRecord
100
AcDbLayerTableRecord
  2
轮廓实线层
 70
     0
 62
     7
  6
Continuous
370
    50
390
F
  0
LAYER
  5
68
330
2
100
AcDbSymbolTableRecord
100
AcDbLayerTableRecord
  2
细线层
 70
     0
 62
     4
  6
Continuous
370
    25
390
F
  0
LAYER
  5
69
330
2
100
AcDbSymbolTableRecord
100
AcDbLayerTableRecord
  2
中心线层
 70
     0
 62
     1
  6
CENTERX2
370
    25
390
F
  0
LAYER
  5
6A
330
2
100
AcDbSymbolTableRecord
100
AcDbLayerTableRecord
  2
虚线层
 70
     0
 62
     6
  6
HIDDEN
370
    25
390
F
  0
LAYER
  5
6B
330
2
100
AcDbSymbolTableRecord
100
AcDbLayerTableRecord
  2
剖面线层
 70
     0
 62
     2
  6
Continuous
370
    25
390
F
  0
LAYER
  5
6C
330
2
100
AcDbSymbolTableRecord
100
AcDbLayerTableRecord
  2
文字层
 70
     0
 62
     3
  6
Continuous
370
    25
390
F
  0
LAYER
  5
6D
330
2
100
AcDbSymbolTableRecord
100
AcDbLayerTableRecord
  2
标注层
 70
     0
 62
     4
  6
Continuous
370
    25
390
F
  0
LAYER
  5
6E
330
2
100
AcDbSymbolTableRecord
100
AcDbLayerTableRecord
  2
符号标注层
 70
     0
 62
    31
  6
Continuous
370
    25
390
F
  0
LAYER
  5
6F
330
2
100
AcDbSymbolTableRecord
100
AcDbLayerTableRecord
  2
双点划线层
 70
     0
 62
     6
  6
PHANTOM
370
    25
390
F
  0
ENDTAB
  0
TABLE
  2
STYLE
  5
3
330
0
100
AcDbSymbolTable
 70
     1
  0
STYLE
  5
11
330
3
100
AcDbSymbolTableRecord
100
AcDbTextStyleTableRecord
  2
Standard
 70
     0
 40
0.0
 41
1.0
 50
0.0
 71
     0
 42
3.5
  3
txt
  4

  0
ENDTAB
  0
TABLE
  2
VIEW
  5
6
330
0
100
AcDbSymbolTable
 70
     0
  0
ENDTAB
  0
TABLE
  2
UCS
  5
7
330
0
100
AcDbSymbolTable
 70
     0
  0
ENDTAB
  0
TABLE
  2
APPID
  5
9
330
0
100
AcDbSymbolTable
 70
     1
  0
APPID
  5
12
330
9
100
AcDbSymbolTableRecord
100
AcDbRegAppTableRecord
  2
ACAD
 70
     0
  0
ENDTAB
  0
TABLE
  2
DIMSTYLE
  5
A
330
0
100
AcDbSymbolTable
 70
     1
100
AcDbDimStyleTable
  0
DIMSTYLE
105
27
330
A
100
AcDbSymbolTableRecord
100
AcDbDimStyleTableRecord
  2
ISO-25
 70
     0
 41
2.5
 42
0.625
 43
3.75
 44
1.25
 73
     0
 74
     0
 77
     1
 78
     8
140
2.5
141
2.5
143
0.0393700787
147
0.625
171
     3
172
     1
178
     0
271
     2
272
     2
274
     3
278
    44
283
     0
284
     8
340
11
  0
ENDTAB
  0
TABLE
  2
BLOCK_RECORD
  5
1
330
0
100
AcDbSymbolTable
 70
     2
  0
BLOCK_RECORD
  5
1F
330
1
100
AcDbSymbolTableRecord
100
AcDbBlockTableRecord
  2
*Model_Space
340
22
  0
BLOCK_RECORD
  5
1B
330
1
100
AcDbSymbolTableRecord
100
AcDbBlockTableRecord
  2
*Paper_Space
340
1E
  0
BLOCK_RECORD
  5
23
330
1
100
AcDbSymbolTableRecord
100
AcDbBlockTableRecord
  2
*Paper_Space0
340
26
  0
BLOCK_RECORD
  5
94
330
1
100
AcDbSymbolTableRecord
100
AcDbBlockTableRecord
  2
SW_CENTERMARKSYMBOL_0
340
0
102
{BLKREFS
331
9F
102
}
  0
ENDTAB
  0
ENDSEC
  0
SECTION
  2
BLOCKS
  0
BLOCK
  5
20
330
1F
100
AcDbEntity
  8
0
100
AcDbBlockBegin
  2
*Model_Space
 70
     0
 10
0.0
 20
0.0
 30
0.0
  3
*Model_Space
  1

  0
ENDBLK
  5
21
330
1F
100
AcDbEntity
  8
0
100
AcDbBlockEnd
  0
BLOCK
  5
1C
330
1B
100
AcDbEntity
 67
     1
  8
0
100
AcDbBlockBegin
  2
*Paper_Space
 70
     0
 10
0.0
 20
0.0
 30
0.0
  3
*Paper_Space
  1

  0
ENDBLK
  5
1D
330
1B
100
AcDbEntity
 67
     1
  8
0
100
AcDbBlockEnd
  0
BLOCK
  5
24
330
23
100
AcDbEntity
  8
0
100
AcDbBlockBegin
  2
*Paper_Space0
 70
     0
 10
0.0
 20
0.0
 30
0.0
  3
*Paper_Space0
  1

  0
ENDBLK
  5
25
330
23
100
AcDbEntity
  8
0
100
AcDbBlockEnd
  0
BLOCK
  5
95
330
94
100
AcDbEntity
  8
0
100
AcDbBlockBegin
  2
SW_CENTERMARKSYMBOL_0
 70
     0
 10
0.0
 20
0.0
 30
0.0
  3
SW_CENTERMARKSYMBOL_0
  1

  0
LINE
  5
97
330
94
100
AcDbEntity
  8
10
 62
     0
100
AcDbLine
 10
0.0
 20
0.0
 30
0.0
 11
0.0
 21
2.5
 31
0.0
  0
LINE
  5
98
330
94
100
AcDbEntity
  8
10
 62
     0
100
AcDbLine
 10
0.0
 20
0.0
 30
0.0
 11
-2.5
 21
0.0
 31
0.0
  0
LINE
  5
99
330
94
100
AcDbEntity
  8
10
 62
     0
100
AcDbLine
 10
0.0
 20
0.0
 30
0.0
 11
0.0
 21
-2.5
 31
0.0
  0
LINE
  5
9A
330
94
100
AcDbEntity
  8
10
 62
     0
100
AcDbLine
 10
0.0
 20
0.0
 30
0.0
 11
2.5
 21
0.0
 31
0.0
  0
LINE
  5
9B
330
94
100
AcDbEntity
  8
10
 62
     0
100
AcDbLine
 10
0.0
 20
5.0
 30
0.0
 11
0.0
 21
14.6212121212
 31
0.0
  0
LINE
  5
9C
330
94
100
AcDbEntity
  8
10
 62
     0
100
AcDbLine
 10
-5.0
 20
0.0
 30
0.0
 11
-14.6212121212
 21
0.0
 31
0.0
  0
LINE
  5
9D
330
94
100
AcDbEntity
  8
10
 62
     0
100
AcDbLine
 10
0.0
 20
-5.0
 30
0.0
 11
0.0
 21
-14.6212121212
 31
0.0
  0
LINE
  5
9E
330
94
100
AcDbEntity
  8
10
 62
     0
100
AcDbLine
 10
5.0
 20
0.0
 30
0.0
 11
14.6212121212
 21
0.0
 31
0.0
  0
ENDBLK
  5
96
330
94
100
AcDbEntity
  8
0
100
AcDbBlockEnd
  0
ENDSEC
  0
SECTION
  2
ENTITIES
  0
CIRCLE
  5
70
330
1F
100
AcDbEntity
  8
0
  6
Continuous
 62
     7
370
    25
100
AcDbCircle
 10
83.0
 20
57.0
 30
0.0
 40
3.030303030303045
  0
CIRCLE
  5
71
330
1F
100
AcDbEntity
  8
0
  6
Continuous
 62
     7
370
    25
100
AcDbCircle
 10
83.0
 20
57.0
 30
0.0
 40
12.12121212121212
  0
CIRCLE
  5
72
330
1F
100
AcDbEntity
  8
0
  6
HIDDEN
 62
     7
370
    18
100
AcDbCircle
 10
83.0
 20
57.0
 30
0.0
 40
9.393939393939405
  0
CIRCLE
  5
73
330
1F
100
AcDbEntity
  8
0
  6
HIDDEN
 62
     7
370
    18
100
AcDbCircle
 10
83.0
 20
57.0
 30
0.0
 40
7.651515151515156
  0
SPLINE
  5
74
330
1F
100
AcDbEntity
  8
0
  6
HIDDEN
 62
     7
370
    18
100
AcDbSpline
210
0.0
220
0.0
230
1.0
 70
     8
 71
     3
 72
    14
 73
    10
 74
     0
 42
0.00000001
 43
0.00000001
 40
0.0
 40
0.0
 40
0.0
 40
0.0
 40
0.1746626710749337
 40
0.3797890517894904
 40
0.4841628137239299
 40
0.6950108789199811
 40
0.8027982668951287
 40
0.9140065372335223
 40
1.0
 40
1.0
 40
1.0
 40
1.0
 10
90.38228999098854
 20
60.01057645666413
 30
0.0
 10
90.38652533329882
 20
59.99632042231946
 30
0.0
 10
90.3957347232052
 20
59.96532189394061
 30
0.0
 10
90.49567203216552
 20
59.61145869661151
 30
0.0
 10
90.62398379220568
 20
59.09867530752714
 30
0.0
 10
90.74056506093578
 20
58.55522818794759
 30
0.0
 10
90.82963290799954
 20
57.92649754541284
 30
0.0
 10
90.87180184596063
 20
57.45144068348789
 30
0.0
 10
90.87666653929281
 20
57.13708194267683
 30
0.0
 10
90.87878787878788
 20
57.0
 30
0.0
  0
SPLINE
  5
75
330
1F
100
AcDbEntity
  8
0
  6
HIDDEN
 62
     7
370
    18
100
AcDbSpline
210
0.0
220
0.0
230
1.0
 70
     8
 71
     3
 72
    20
 73
    16
 74
     0
 42
0.00000001
 43
0.00000001
 40
0.0
 40
0.0
 40
0.0
 40
0.0
 40
0.0611294889543729
 40
0.1235952903076851
 40
0.183080026158672
 40
0.2466951314067636
 40
0.3253504059373808
 40
0.4091707302550592
 40
0.4943090973532583
 40
0.580863725922948
 40
0.6626703941293473
 40
0.7446194861793034
 40
0.8750218828992654
 40
0.999963433597502
 40
1.0
 40
1.0
 40
1.0
 40
1.0
 10
90.87878787878789
 20
57.0
 30
0.0
 10
90.87771681706543
 20
56.90239691532995
 30
0.0
 10
90.87555127982985
 20
56.70505710779902
 30
0.0
 10
90.85885233505948
 20
56.41587609536651
 30
0.0
 10
90.83289588964665
 20
56.12902341265225
 30
0.0
 10
90.7956430281307
 20
55.82685598162544
 30
0.0
 10
90.74466305732778
 20
55.50442408691841
 30
0.0
 10
90.68203566182589
 20
55.17655179218114
 30
0.0
 10
90.61476146091162
 20
54.87046570036508
 30
0.0
 10
90.54992787424086
 20
54.60387648092311
 30
0.0
 10
90.49216898133103
 20
54.38173638770275
 30
0.0
 10
90.43387400073367
 20
54.16908260606446
 30
0.0
 10
90.39171112676576
 20
54.01996145978943
 30
0.0
 10
90.37085078888656
 20
53.95005497511357
 30
0.0
 10
90.37660989001888
 20
53.96970848457289
 30
0.0
 10
90.37661157503075
 20
53.96971423484465
 30
0.0
  0
LINE
  5
76
330
1F
100
AcDbEntity
  8
0
  6
HIDDEN
 62
     7
370
    18
100
AcDbLine
 10
75.1212121212
 20
57.0
 30
0.0
 11
75.125946359
 21
57.1398881396
 31
0.0
  0
SPLINE
  5
77
330
1F
100
AcDbEntity
  8
0
  6
HIDDEN
 62
     7
370
    18
100
AcDbSpline
210
0.0
220
0.0
230
1.0
 70
     8
 71
     3
 72
    23
 73
    19
 74
     0
 42
0.00000001
 43
0.00000001
 40
0.0
 40
0.0
 40
0.0
 40
0.0
 40
0.0316918127272898
 40
0.0843287338891078
 40
0.1868186882086325
 40
0.2921046525612128
 40
0.3459346676950708
 40
0.3981951675973024
 40
0.4520050314207204
 40
0.5034480422369922
 40
0.5565242679005947
 40
0.6562532218251604
 40
0.7603911738505125
 40
0.8142830682636907
 40
0.8697778705874909
 40
0.9228585997060782
 40
0.977596058973835
 40
1.0
 40
1.0
 40
1.0
 40
1.0
 10
75.62069109139505
 20
60.02100010696801
 30
0.0
 10
75.62088048698864
 20
60.02167990240463
 30
0.0
 10
75.62138444966031
 20
60.02348876985462
 30
0.0
 10
75.58672324584353
 20
59.90377869129244
 30
0.0
 10
75.49001880218455
 20
59.56112500621431
 30
0.0
 10
75.34827736416035
 20
58.98531099678421
 30
0.0
 10
75.241348622555
 20
58.42284945146206
 30
0.0
 10
75.17376369910602
 20
57.95597900340657
 30
0.0
 10
75.12996318592235
 20
57.46728136270922
 30
0.0
 10
75.11589370133775
 20
56.96154698542908
 30
0.0
 10
75.14004577319804
 20
56.31083299329805
 30
0.0
 10
75.24027364484942
 20
55.52928651633331
 30
0.0
 10
75.38190676051804
 20
54.87596105005296
 30
0.0
 10
75.4872457842516
 20
54.45792575981714
 30
0.0
 10
75.55456727656401
 20
54.21030991162508
 30
0.0
 10
75.60095430559332
 20
54.04676121902767
 30
0.0
 10
75.62341826515502
 20
53.96958646819552
 30
0.0
 10
75.62119692647249
 20
53.97721607267487
 30
0.0
 10
75.6205517898707
 20
53.97943191537615
 30
0.0
  0
SPLINE
  5
78
330
1F
100
AcDbEntity
  8
0
  6
HIDDEN
 62
     7
370
    18
100
AcDbSpline
210
0.0
220
0.0
230
1.0
 70
     8
 71
     3
 72
     9
 73
     5
 74
     0
 42
0.00000001
 43
0.00000001
 40
0.0
 40
0.0
 40
0.0
 40
0.0
 40
0.5917369042965971
 40
1.0
 40
1.0
 40
1.0
 40
1.0
 10
74.29863494478333
 20
54.08446240087884
 30
0.0
 10
74.31974892392122
 20
54.02019097317097
 30
0.0
 10
74.3554302866765
 20
53.9115761018638
 30
0.0
 10
74.35914464528751
 20
53.90120818385913
 30
0.0
 10
74.36066108083261
 20
53.89697534555854
 30
0.0
  0
LINE
  5
79
330
1F
100
AcDbEntity
  8
0
  6
HIDDEN
 62
     7
370
    18
100
AcDbLine
 10
74.3414091282
 20
53.9545264182
 30
0.0
 11
74.2716412304
 21
54.1737556975
 31
0.0
  0
LINE
  5
7A
330
1F
100
AcDbEntity
  8
0
  6
HIDDEN
 62
     7
370
    18
100
AcDbLine
 10
73.8333333333
 20
57.0
 30
0.0
 11
73.8354449352
 21
57.0448241613
 31
0.0
  0
LINE
  5
7B
330
1F
100
AcDbEntity
  8
0
  6
HIDDEN
 62
     7
370
    18
100
AcDbLine
 10
74.2581409475
 20
59.7825533223
 30
0.0
 11
74.3073085239
 21
59.9418612119
 31
0.0
  0
SPLINE
  5
7C
330
1F
100
AcDbEntity
  8
0
  6
HIDDEN
 62
     7
370
    18
100
AcDbSpline
210
0.0
220
0.0
230
1.0
 70
     8
 71
     3
 72
     9
 73
     5
 74
     0
 42
0.00000001
 43
0.00000001
 40
0.0
 40
0.0
 40
0.0
 40
0.0
 40
0.3681790920326837
 40
0.9999999999999999
 40
0.9999999999999999
 40
0.9999999999999999
 40
0.9999999999999999
 10
74.3554354504946
 20
60.08768457496019
 30
0.0
 10
74.3563313893755
 20
60.09049423864284
 30
0.0
 10
74.35876482163792
 20
60.09812548045819
 30
0.0
 10
74.32191507934004
 20
59.98622998906616
 30
0.0
 10
74.29863264170302
 20
59.9155320780974
 30
0.0
  0
LINE
  5
7D
330
1F
100
AcDbEntity
  8
0
  6
HIDDEN
 62
     7
370
    18
100
AcDbLine
 10
91.7109808767
 20
59.8848395335
 30
0.0
 11
91.696521411
 21
59.9302383188
 31
0.0
  0
SPLINE
  5
7E
330
1F
100
AcDbEntity
  8
0
  6
HIDDEN
 62
     7
370
    18
100
AcDbSpline
210
0.0
220
0.0
230
1.0
 70
     8
 71
     3
 72
     9
 73
     5
 74
     0
 42
0.00000001
 43
0.00000001
 40
0.0
 40
0.0
 40
0.0
 40
0.0
 40
0.3681789834298596
 40
1.0
 40
1.0
 40
1.0
 40
1.0
 10
91.64456455033047
 20
60.08768457257485
 30
0.0
 10
91.64366860960918
 20
60.09049424140454
 30
0.0
 10
91.64123517163031
 20
60.09812549945057
 30
0.0
 10
91.67808489987404
 20
59.98623005287587
 30
0.0
 10
91.70136733263334
 20
59.91553215807146
 30
0.0
  0
SPLINE
  5
7F
330
1F
100
AcDbEntity
  8
0
  6
HIDDEN
 62
     7
370
    18
100
AcDbSpline
210
0.0
220
0.0
230
1.0
 70
     8
 71
     3
 72
     9
 73
     5
 74
     0
 42
0.00000001
 43
0.00000001
 40
0.0
 40
0.0
 40
0.0
 40
0.0
 40
0.5917369011965325
 40
1.0
 40
1.0
 40
1.0
 40
1.0
 10
91.70136505583638
 20
54.08446240283469
 30
0.0
 10
91.68025107662542
 20
54.02019097480786
 30
0.0
 10
91.64456971355976
 20
53.91157610239266
 30
0.0
 10
91.64085535469926
 20
53.90120818379982
 30
0.0
 10
91.63933891904078
 20
53.89697534522695
 30
0.0
  0
LINE
  5
80
330
1F
100
AcDbEntity
  8
0
  6
HIDDEN
 62
     7
370
    18
100
AcDbLine
 10
91.658590868
 20
53.9545264067
 30
0.0
 11
91.7269572252
 21
54.1693516726
 31
0.0
  0
SPLINE
  5
81
330
1F
100
AcDbEntity
  8
0
  6
HIDDEN
 62
     7
370
    18
100
AcDbSpline
210
0.0
220
0.0
230
1.0
 70
     8
 71
     3
 72
    14
 73
    10
 74
     0
 42
0.00000001
 43
0.00000001
 40
0.0
 40
0.0
 40
0.0
 40
0.0
 40
0.25
 40
0.25
 40
0.5
 40
0.5
 40
0.75
 40
0.75
 40
1.0
 40
1.0
 40
1.0
 40
1.0
 10
92.16666666666667
 20
57.0
 30
0.0
 10
92.16666678699487
 20
56.64197005846601
 30
0.0
 10
92.14469474250086
 20
56.2910087916782
 30
0.0
 10
92.07318085650688
 20
55.65299172942803
 30
0.0
 10
92.02391528251027
 20
55.36367958880099
 30
0.0
 10
91.9206447099274
 20
54.86332204828029
 30
0.0
 10
91.86721160803549
 20
54.65329073607111
 30
0.0
 10
91.77355008916201
 20
54.31394808139174
 30
0.0
 10
91.73230811898152
 20
54.18105040062882
 30
0.0
 10
91.70138214944092
 20
54.08451575959697
 30
0.0
  0
SPLINE
  5
82
330
1F
100
AcDbEntity
  8
0
  6
HIDDEN
 62
     7
370
    18
100
AcDbSpline
210
0.0
220
0.0
230
1.0
 70
     8
 71
     3
 72
    14
 73
    10
 74
     0
 42
0.00000001
 43
0.00000001
 40
0.0
 40
0.0
 40
0.0
 40
0.0
 40
0.25
 40
0.25
 40
0.5
 40
0.5
 40
0.75
 40
0.75
 40
1.0
 40
1.0
 40
1.0
 40
1.0
 10
91.70136733263287
 20
59.91553215807131
 30
0.0
 10
91.73655606690586
 20
59.8056803190596
 30
0.0
 10
91.78421994712177
 20
59.65106175266695
 30
0.0
 10
91.88691686574982
 20
59.27039837743761
 30
0.0
 10
91.94291823082582
 20
59.0396454905082
 30
0.0
 10
92.04261731292715
 20
58.52890814209557
 30
0.0
 10
92.08746027401322
 20
58.24245312729307
 30
0.0
 10
92.14952331306809
 20
57.6358068725421
 30
0.0
 10
92.16666655104542
 20
57.32056893010117
 30
0.0
 10
92.16666666666667
 20
57.0
 30
0.0
  0
SPLINE
  5
83
330
1F
100
AcDbEntity
  8
0
  6
HIDDEN
 62
     7
370
    18
100
AcDbSpline
210
0.0
220
0.0
230
1.0
 70
     8
 71
     3
 72
    26
 73
    22
 74
     0
 42
0.00000001
 43
0.00000001
 40
0.0
 40
0.0
 40
0.0
 40
0.0
 40
0.2500000000000001
 40
0.2500000000000001
 40
0.375
 40
0.375
 40
0.5
 40
0.5
 40
0.6249999999999999
 40
0.6249999999999999
 40
0.6874999999999999
 40
0.6874999999999999
 40
0.7499999999999999
 40
0.7499999999999999
 40
0.8125
 40
0.8125
 40
0.875
 40
0.875
 40
0.9375
 40
0.9375
 40
1.0
 40
1.0
 40
1.0
 40
1.0
 10
74.298632641703
 20
59.91553207809741
 30
0.0
 10
74.22816702454655
 20
59.69555331607057
 30
0.0
 10
74.106880166038
 20
59.29570811303111
 30
0.0
 10
73.9564209311281
 20
58.52349857627267
 30
0.0
 10
73.91233723551088
 20
58.24100252653399
 30
0.0
 10
73.85034245667099
 20
57.63396327197365
 30
0.0
 10
73.83339517721754
 20
57.32216004980016
 30
0.0
 10
73.8332718334495
 20
56.68140787093487
 30
0.0
 10
73.85024785311842
 20
56.36770662875475
 30
0.0
 10
73.89664101295931
 20
55.91276751045336
 30
0.0
 10
73.915520691758
 20
55.76496748129695
 30
0.0
 10
73.95782373835793
 20
55.48333581136929
 30
0.0
 10
73.98135523360799
 20
55.34843336810188
 30
0.0
 10
74.03161600523721
 20
55.09035758664142
 30
0.0
 10
74.0582880668476
 20
54.96767086069776
 30
0.0
 10
74.11138442059168
 20
54.74163598413562
 30
0.0
 10
74.13802030817787
 20
54.6372144460387
 30
0.0
 10
74.18970654175065
 20
54.44554412050569
 30
0.0
 10
74.21483591606037
 20
54.35800518028921
 30
0.0
 10
74.26041208987604
 20
54.20529081417789
 30
0.0
 10
74.28101440498865
 20
54.13946342581342
 30
0.0
 10
74.29863494478155
 20
54.08446240087861
 30
0.0
  0
ARC
  5
84
330
1F
100
AcDbEntity
  8
0
  6
HIDDEN
 62
     7
370
    18
100
AcDbCircle
 10
83.0
 20
57.0
 30
0.0
 40
9.166666666666671
100
AcDbArc
 50
0.0
 51
176.5706508113
  0
ARC
  5
85
330
1F
100
AcDbEntity
  8
0
  6
HIDDEN
 62
     7
370
    18
100
AcDbCircle
 10
83.0
 20
57.0
 30
0.0
 40
9.166666666666675
100
AcDbArc
 50
188.9621284194
 51
354.2450349635
  0
LINE
  5
86
330
1F
100
AcDbEntity
  8
0
  6
HIDDEN
 62
     7
370
    18
100
AcDbLine
 10
91.2944308816
 20
61.4287459376
 30
0.0
 11
90.3711067385
 21
60.0219232923
 31
0.0
  0
LINE
  5
87
330
1F
100
AcDbEntity
  8
0
  6
HIDDEN
 62
     7
370
    18
100
AcDbLine
 10
90.3766065158
 20
53.9696969697
 30
0.0
 11
91.288933803
 21
52.5796296821
 31
0.0
  0
LINE
  5
88
330
1F
100
AcDbEntity
  8
0
  6
HIDDEN
 62
     7
370
    18
100
AcDbLine
 10
74.7110661969
 20
52.5796296825
 30
0.0
 11
75.6288934978
 21
53.9780770651
 31
0.0
  0
LINE
  5
89
330
1F
100
AcDbEntity
  8
0
  6
HIDDEN
 62
     7
370
    18
100
AcDbLine
 10
75.6288934964
 20
60.02192293
 30
0.0
 11
74.7110661949
 21
61.4203703138
 31
0.0
  0
LINE
  5
8A
330
1F
100
AcDbEntity
  8
0
  6
HIDDEN
 62
     7
370
    18
100
AcDbLine
 10
83.0
 20
53.9696969697
 30
0.0
 11
90.3766162583
 21
53.9696969697
 31
0.0
  0
LINE
  5
8B
330
1F
100
AcDbEntity
  8
0
  6
HIDDEN
 62
     7
370
    18
100
AcDbLine
 10
90.3823206013
 20
60.0303030303
 30
0.0
 11
83.0
 21
60.0303030303
 31
0.0
  0
LINE
  5
8C
330
1F
100
AcDbEntity
  8
0
  6
HIDDEN
 62
     7
370
    18
100
AcDbLine
 10
75.6205517457
 20
53.9696969697
 30
0.0
 11
83.0
 21
53.9696969697
 31
0.0
  0
LINE
  5
8D
330
1F
100
AcDbEntity
  8
0
  6
HIDDEN
 62
     7
370
    18
100
AcDbLine
 10
83.0
 20
60.0303030303
 30
0.0
 11
75.620690449
 21
60.0303030303
 31
0.0
  0
LINE
  5
8E
330
1F
100
AcDbEntity
  8
0
  6
HIDDEN
 62
     7
370
    18
100
AcDbLine
 10
74.3606610808
 20
53.8939393939
 30
0.0
 11
91.639338919
 21
53.8939393939
 31
0.0
  0
LINE
  5
8F
330
1F
100
AcDbEntity
  8
0
  6
HIDDEN
 62
     7
370
    18
100
AcDbLine
 10
91.6445645503
 20
60.1060606061
 30
0.0
 11
74.3554354505
 21
60.1060606061
 31
0.0
  0
LINE
  5
90
330
1F
100
AcDbEntity
  8
0
  6
HIDDEN
 62
     7
370
    18
100
AcDbLine
 10
91.637382839
 20
53.8952577343
 30
0.0
 11
91.7878428917
 21
53.6803743212
 31
0.0
  0
LINE
  5
91
330
1F
100
AcDbEntity
  8
0
  6
HIDDEN
 62
     7
370
    18
100
AcDbLine
 10
74.2121571083
 20
53.6803743212
 30
0.0
 11
74.362617161
 21
53.8952577343
 31
0.0
  0
LINE
  5
92
330
1F
100
AcDbEntity
  8
0
  6
HIDDEN
 62
     7
370
    18
100
AcDbLine
 10
74.361119336
 20
60.1043798232
 30
0.0
 11
74.2115128162
 21
60.3179189223
 31
0.0
  0
LINE
  5
93
330
1F
100
AcDbEntity
  8
0
  6
HIDDEN
 62
     7
370
    18
100
AcDbLine
 10
91.7884871847
 20
60.3179189198
 30
0.0
 11
91.6388806649
 21
60.1043798207
 31
0.0
  0
INSERT
  5
9F
330
1F
100
AcDbEntity
  8
10
100
AcDbBlockReference
  2
SW_CENTERMARKSYMBOL_0
 10
83.0
 20
57.0
 30
0.0
  0
LINE
  5
A0
330
1F
100
AcDbEntity
  8
0
  6
Continuous
 62
     7
370
    25
100
AcDbLine
 10
95.1212121212
 20
108.0
 30
0.0
 11
95.1212121212
 21
115.5757575758
 31
0.0
  0
LINE
  5
A1
330
1F
100
AcDbEntity
  8
0
  6
Continuous
 62
     7
370
    25
100
AcDbLine
 10
70.8787878788
 20
115.5757575758
 30
0.0
 11
70.8787878788
 21
108.0
 31
0.0
  0
LINE
  5
A2
330
1F
100
AcDbEntity
  8
0
  6
Continuous
 62
     7
370
    25
100
AcDbLine
 10
92.3939393939
 20
207.7727272727
 30
0.0
 11
92.1666666667
 21
208.0
 31
0.0
  0
LINE
  5
A3
330
1F
100
AcDbEntity
  8
0
  6
Continuous
 62
     7
370
    25
100
AcDbLine
 10
73.8333333333
 20
208.0
 30
0.0
 11
73.6060606061
 21
207.7727272727
 31
0.0
  0
LINE
  5
A4
330
1F
100
AcDbEntity
  8
0
  6
Continuous
 62
     7
370
    25
100
AcDbLine
 10
73.6060606061
 20
193.3048976654
 30
0.0
 11
73.6060606061
 21
176.1818181818
 31
0.0
  0
LINE
  5
A5
330
1F
100
AcDbEntity
  8
0
  6
Continuous
 62
     7
370
    25
100
AcDbLine
 10
73.6060606061
 20
207.7727272727
 30
0.0
 11
73.6060606061
 21
199.9696969697
 31
0.0
  0
LINE
  5
A6
330
1F
100
AcDbEntity
  8
0
  6
Continuous
 62
     7
370
    25
100
AcDbLine
 10
92.3939393939
 20
199.96969697
 30
0.0
 11
92.3939393939
 21
207.7727272727
 31
0.0
  0
LINE
  5
A7
330
1F
100
AcDbEntity
  8
0
  6
Continuous
 62
     7
370
    25
100
AcDbLine
 10
92.3939393939
 20
176.1818181818
 30
0.0
 11
92.3939393939
 21
193.303030303
 31
0.0
  0
LINE
  5
A8
330
1F
100
AcDbEntity
  8
0
  6
Continuous
 62
     7
370
    25
100
AcDbLine
 10
92.3939393939
 20
154.2121212121
 30
0.0
 11
92.3939393939
 21
173.1515151515
 31
0.0
  0
LINE
  5
A9
330
1F
100
AcDbEntity
  8
0
  6
Continuous
 62
     7
370
    25
100
AcDbLine
 10
92.3939393939
 20
123.1515151515
 30
0.0
 11
92.3939393939
 21
145.1212121212
 31
0.0
  0
LINE
  5
AA
330
1F
100
AcDbEntity
  8
0
  6
Continuous
 62
     7
370
    25
100
AcDbLine
 10
73.6060606061
 20
145.1212121212
 30
0.0
 11
73.6060606061
 21
123.1515151515
 31
0.0
  0
LINE
  5
AB
330
1F
100
AcDbEntity
  8
0
  6
Continuous
 62
     7
370
    25
100
AcDbLine
 10
73.6060606061
 20
173.1515151515
 30
0.0
 11
73.6060606061
 21
154.2121212121
 31
0.0
  0
LINE
  5
AC
330
1F
100
AcDbEntity
  8
0
  6
Continuous
 62
     7
370
    25
100
AcDbLine
 10
92.3939393939
 20
115.5757575758
 30
0.0
 11
92.3939393939
 21
120.1212121212
 31
0.0
  0
LINE
  5
AD
330
1F
100
AcDbEntity
  8
0
  6
Continuous
 62
     7
370
    25
100
AcDbLine
 10
73.6060606061
 20
120.1212121212
 30
0.0
 11
73.6060606061
 21
115.5757575758
 31
0.0
  0
LINE
  5
AE
330
1F
100
AcDbEntity
  8
0
  6
Continuous
 62
     7
370
    25
100
AcDbLine
 10
90.6515151515
 20
173.1515151515
 30
0.0
 11
90.6515151515
 21
176.1818181818
 31
0.0
  0
LINE
  5
AF
330
1F
100
AcDbEntity
  8
0
  6
Continuous
 62
     7
370
    25
100
AcDbLine
 10
75.3484848485
 20
176.1818181818
 30
0.0
 11
75.3484848485
 21
173.1515151515
 31
0.0
  0
LINE
  5
B0
330
1F
100
AcDbEntity
  8
0
  6
Continuous
 62
     7
370
    25
100
AcDbLine
 10
90.6515151515
 20
120.1212121212
 30
0.0
 11
90.6515151515
 21
123.1515151515
 31
0.0
  0
LINE
  5
B1
330
1F
100
AcDbEntity
  8
0
  6
Continuous
 62
     7
370
    25
100
AcDbLine
 10
75.3484848485
 20
123.1515151515
 30
0.0
 11
75.3484848485
 21
120.1212121212
 31
0.0
  0
LINE
  5
B2
330
1F
100
AcDbEntity
  8
0
  6
Continuous
 62
     7
370
    25
100
AcDbLine
 10
95.1212121212
 20
115.5757575758
 30
0.0
 11
70.8787878788
 21
115.5757575758
 31
0.0
  0
LINE
  5
B3
330
1F
100
AcDbEntity
  8
0
  6
Continuous
 62
     7
370
    25
100
AcDbLine
 10
95.1212121212
 20
108.0
 30
0.0
 11
70.8787878788
 21
108.0
 31
0.0
  0
LINE
  5
B4
330
1F
100
AcDbEntity
  8
0
  6
Continuous
 62
     7
370
    25
100
AcDbLine
 10
92.3939393939
 20
207.7727272727
 30
0.0
 11
73.6060606061
 21
207.7727272727
 31
0.0
  0
LINE
  5
B5
330
1F
100
AcDbEntity
  8
0
  6
Continuous
 62
     7
370
    25
100
AcDbLine
 10
92.1666666667
 20
208.0
 30
0.0
 11
73.8333333333
 21
208.0
 31
0.0
  0
LINE
  5
B6
330
1F
100
AcDbEntity
  8
0
  6
Continuous
 62
     7
370
    25
100
AcDbLine
 10
92.3939393939
 20
176.1818181818
 30
0.0
 11
73.6060606061
 21
176.1818181818
 31
0.0
  0
SPLINE
  5
B7
330
1F
100
AcDbEntity
  8
0
  6
Continuous
 62
     7
370
    25
100
AcDbSpline
210
0.0
220
0.0
230
1.0
 70
     8
 71
     3
 72
    15
 73
    11
 74
     0
 42
0.00000001
 43
0.00000001
 40
0.0
 40
0.0
 40
0.0
 40
0.0
 40
0.111351770925875
 40
0.2235267106738969
 40
0.3402596578926204
 40
0.4619693006836803
 40
0.5901799538768959
 40
0.7241922224194697
 40
0.8630134011105568
 40
1.0
 40
1.0
 40
1.0
 40
1.0
 10
74.14121599104145
 20
195.5085486144879
 30
0.0
 10
74.12162580557734
 20
195.3677058700187
 30
0.0
 10
74.08230061405251
 20
195.0849792000096
 30
0.0
 10
74.00479183776383
 20
194.6918555503611
 30
0.0
 10
73.91903516797169
 20
194.3242915005661
 30
0.0
 10
73.82840853978992
 20
193.990415739369
 30
0.0
 10
73.74101321232725
 20
193.7020431344197
 30
0.0
 10
73.66744340907758
 20
193.4786461172654
 30
0.0
 10
73.61582289121067
 20
193.330639387446
 30
0.0
 10
73.60973812343067
 20
193.3134401048119
 30
0.0
 10
73.60671597644655
 20
193.3048976653924
 30
0.0
  0
LINE
  5
B8
330
1F
100
AcDbEntity
  8
0
  6
Continuous
 62
     7
370
    25
100
AcDbLine
 10
74.0086185733
 20
194.7223479849
 30
0.0
 11
74.1412153949
 21
195.5085532146
 31
0.0
  0
SPLINE
  5
B9
330
1F
100
AcDbEntity
  8
0
  6
Continuous
 62
     7
370
    25
100
AcDbSpline
210
0.0
220
0.0
230
1.0
 70
     8
 71
     3
 72
    18
 73
    14
 74
     0
 42
0.00000001
 43
0.00000001
 40
0.0
 40
0.0
 40
0.0
 40
0.0
 40
0.1250000000000007
 40
0.1250000000000007
 40
0.2500000000000013
 40
0.2500000000000013
 40
0.3750000000000021
 40
0.3750000000000021
 40
0.5000000000000029
 40
0.5000000000000029
 40
0.7500000000000014
 40
0.7500000000000014
 40
1.0
 40
1.0
 40
1.0
 40
1.0
 10
73.60606060606061
 20
199.969696969697
 30
0.0
 10
73.60606060769547
 20
199.9696969021209
 30
0.0
 10
73.62365868563626
 20
199.9204483056371
 30
0.0
 10
73.6837585267612
 20
199.7446740764221
 30
0.0
 10
73.72595938824682
 20
199.6181161038946
 30
0.0
 10
73.81958039782576
 20
199.3114571161965
 30
0.0
 10
73.87085107444548
 20
199.1314948655423
 30
0.0
 10
73.96840919431979
 20
198.7430205868274
 30
0.0
 10
74.01451059013452
 20
198.5360093779406
 30
0.0
 10
74.13527813006381
 20
197.8862346865314
 30
0.0
 10
74.19126315507194
 20
197.4132888184393
 30
0.0
 10
74.22315518860896
 20
196.4541440817194
 30
0.0
 10
74.19890422279467
 20
195.9685540564446
 30
0.0
 10
74.1412160107091
 20
195.5085487713197
 30
0.0
  0
SPLINE
  5
BA
330
1F
100
AcDbEntity
  8
0
  6
Continuous
 62
     7
370
    25
100
AcDbSpline
210
0.0
220
0.0
230
1.0
 70
     8
 71
     3
 72
    18
 73
    14
 74
     0
 42
0.00000001
 43
0.00000001
 40
0.0
 40
0.0
 40
0.0
 40
0.0
 40
0.1250000000000008
 40
0.1250000000000008
 40
0.2500000000000016
 40
0.2500000000000016
 40
0.3750000000000023
 40
0.3750000000000023
 40
0.5000000000000031
 40
0.5000000000000031
 40
0.7500000000000016
 40
0.7500000000000016
 40
1.0
 40
1.0
 40
1.0
 40
1.0
 10
92.3939393939394
 20
199.969696969697
 30
0.0
 10
92.3939393939394
 20
199.9696969068391
 30
0.0
 10
92.37634131880361
 20
199.920448318089
 30
0.0
 10
92.31624148386327
 20
199.7446741080354
 30
0.0
 10
92.2740406257349
 20
199.6181161469174
 30
0.0
 10
92.18041962168653
 20
199.3114571828876
 30
0.0
 10
92.12914894720495
 20
199.1314949444513
 30
0.0
 10
92.03159082938045
 20
198.74302068851
 30
0.0
 10
91.98548943365543
 20
198.5360094903095
 30
0.0
 10
91.86472189143925
 20
197.8862348334435
 30
0.0
 10
91.80873686067915
 20
197.4132889880905
 30
0.0
 10
91.7768448081726
 20
196.4541442891075
 30
0.0
 10
91.80109576124791
 20
195.9685542775408
 30
0.0
 10
91.85878396034244
 20
195.5085490017061
 30
0.0
  0
SPLINE
  5
BB
330
1F
100
AcDbEntity
  8
0
  6
Continuous
 62
     7
370
    25
100
AcDbSpline
210
0.0
220
0.0
230
1.0
 70
     8
 71
     3
 72
    14
 73
    10
 74
     0
 42
0.00000001
 43
0.00000001
 40
0.0
 40
0.0
 40
0.0
 40
0.0
 40
0.2500000000000001
 40
0.2500000000000001
 40
0.5000000000000001
 40
0.5000000000000001
 40
0.7500000000000002
 40
0.7500000000000002
 40
1.0
 40
1.0
 40
1.0
 40
1.0
 10
91.85878381325001
 20
195.5085501746197
 30
0.0
 10
91.89381569852691
 20
195.2292058917671
 30
0.0
 10
91.94075560897252
 20
194.9590744072719
 30
0.0
 10
92.04792376655914
 20
194.4540199906096
 30
0.0
 10
92.10809558115386
 20
194.2192754019442
 30
0.0
 10
92.22625917387134
 20
193.8039412067737
 30
0.0
 10
92.2840007380096
 20
193.6248018730871
 30
0.0
 10
92.3682609787089
 20
193.3741222076272
 30
0.0
 10
92.39393939581677
 20
193.3030302254189
 30
0.0
 10
92.3939393939394
 20
193.3030303029788
 30
0.0
  0
LINE
  5
BC
330
1F
100
AcDbEntity
  8
0
  6
Continuous
 62
     7
370
    25
100
AcDbLine
 10
92.3939393939
 20
173.1515151515
 30
0.0
 11
73.6060606061
 21
173.1515151515
 31
0.0
  0
SPLINE
  5
BD
330
1F
100
AcDbEntity
  8
0
  6
Continuous
 62
     7
370
    25
100
AcDbSpline
210
0.0
220
0.0
230
1.0
 70
     8
 71
     3
 72
    21
 73
    17
 74
     0
 42
0.00000001
 43
0.00000001
 40
0.0
 40
0.0
 40
0.0
 40
0.0
 40
0.0732999644375113
 40
0.1433704042930409
 40
0.2096834236349616
 40
0.2716324862355656
 40
0.3498698869888033
 40
0.4256484941795103
 40
0.5004258070697436
 40
0.5751114549589346
 40
0.6507742706185302
 40
0.7290180742800364
 40
0.7909630564179114
 40
0.8572422993840394
 40
0.9273228697261449
 40
0.9999999999999999
 40
0.9999999999999999
 40
0.9999999999999999
 40
0.9999999999999999
 10
73.60606060606061
 20
154.2121212121485
 30
0.0
 10
73.61758108280718
 20
154.1886211046176
 30
0.0
 10
73.64011445538762
 20
154.1426562812581
 30
0.0
 10
73.80316254547317
 20
153.7925341608316
 30
0.0
 10
74.01066769826055
 20
153.296385911086
 30
0.0
 10
74.25261073958026
 20
152.6220504924944
 30
0.0
 10
74.49133388461765
 20
151.7678787614279
 30
0.0
 10
74.66941568192378
 20
150.7383766799495
 30
0.0
 10
74.73208715406952
 20
149.6608656382378
 30
0.0
 10
74.6680662026665
 20
148.5843420123702
 30
0.0
 10
74.48936202498125
 20
147.5565543140086
 30
0.0
 10
74.25031806643717
 20
146.7041426428711
 30
0.0
 10
74.00847422164608
 20
146.031359001556
 30
0.0
 10
73.8014209757093
 20
145.5368614394328
 30
0.0
 10
73.63954453814611
 20
145.1899083330748
 30
0.0
 10
73.61756143737857
 20
145.1448169107071
 30
0.0
 10
73.60636996629567
 20
145.1218611250401
 30
0.0
  0
SPLINE
  5
BE
330
1F
100
AcDbEntity
  8
0
  6
Continuous
 62
     7
370
    25
100
AcDbSpline
210
0.0
220
0.0
230
1.0
 70
     8
 71
     3
 72
    38
 73
    34
 74
     0
 42
0.00000001
 43
0.00000001
 40
0.0
 40
0.0
 40
0.0
 40
0.0
 40
0.0625
 40
0.0625
 40
0.1249999999999999
 40
0.1249999999999999
 40
0.1875
 40
0.1875
 40
0.25
 40
0.25
 40
0.3125
 40
0.3125
 40
0.3750000000000001
 40
0.3750000000000001
 40
0.4375000000000001
 40
0.4375000000000001
 40
0.5000000000000001
 40
0.5000000000000001
 40
0.5625000000000001
 40
0.5625000000000001
 40
0.625
 40
0.625
 40
0.6875
 40
0.6875
 40
0.75
 40
0.75
 40
0.8125
 40
0.8125
 40
0.8749999999999999
 40
0.8749999999999999
 40
0.9374999999999999
 40
0.9374999999999999
 40
1.0
 40
1.0
 40
1.0
 40
1.0
 10
92.3939393939394
 20
154.2121212121212
 30
0.0
 10
92.3939393939394
 20
154.2121212106731
 30
0.0
 10
92.37943598149909
 20
154.1822158992889
 30
0.0
 10
92.32414942723467
 20
154.0656526122356
 30
0.0
 10
92.28263878879217
 20
153.9773823418284
 30
0.0
 10
92.18053518546857
 20
153.7493830828187
 30
0.0
 10
92.11996373641712
 20
153.6097207705374
 30
0.0
 10
91.98611804982467
 20
153.2776894648058
 30
0.0
 10
91.91421005550829
 20
153.0885568276543
 30
0.0
 10
91.77077820561254
 20
152.6713087222824
 30
0.0
 10
91.69813764395506
 20
152.4394987888235
 30
0.0
 10
91.56456428708066
 20
151.9460383626568
 30
0.0
 10
91.5037853121125
 20
151.6857076611323
 30
0.0
 10
91.40107872188213
 20
151.1373453737495
 30
0.0
 10
91.35926564374462
 20
150.8474425354279
 30
0.0
 10
91.30359137909102
 20
150.2646416257941
 30
0.0
 10
91.28899269935725
 20
149.9688429461771
 30
0.0
 10
91.28887526110536
 20
149.3681138181581
 30
0.0
 10
91.3035695225422
 20
149.0688810111759
 30
0.0
 10
91.35922049672031
 20
148.4864570783125
 30
0.0
 10
91.4006797766567
 20
148.1983336276345
 30
0.0
 10
91.50374969397214
 20
147.6473506261191
 30
0.0
 10
91.56460491676766
 20
147.3868576319655
 30
0.0
 10
91.6978188325964
 20
146.8947866134588
 30
0.0
 10
91.77071258484824
 20
146.662193579471
 30
0.0
 10
91.91417786853091
 20
146.2448794348241
 30
0.0
 10
91.98539944528316
 20
146.0574149217541
 30
0.0
 10
92.11910550250418
 20
145.7256437436783
 30
0.0
 10
92.18034879411731
 20
145.5843811817088
 30
0.0
 10
92.28204233103816
 20
145.3570718334977
 30
0.0
 10
92.32333490164544
 20
145.2691114591386
 30
0.0
 10
92.3794250065928
 20
145.1509289137132
 30
0.0
 10
92.3939393939394
 20
145.1212121212173
 30
0.0
 10
92.3939393939394
 20
145.1212121212121
 30
0.0
  0
LINE
  5
BF
330
1F
100
AcDbEntity
  8
0
  6
Continuous
 62
     7
370
    25
100
AcDbLine
 10
92.3939393939
 20
123.1515151515
 30
0.0
 11
73.6060606061
 21
123.1515151515
 31
0.0
  0
LINE
  5
C0
330
1F
100
AcDbEntity
  8
0
  6
Continuous
 62
     7
370
    25
100
AcDbLine
 10
92.3939393939
 20
120.1212121212
 30
0.0
 11
73.6060606061
 21
120.1212121212
 31
0.0
  0
LINE
  5
C1
330
1F
100
AcDbEntity
  8
0
  6
HIDDEN
 62
     7
370
    18
100
AcDbLine
 10
92.3939393939
 20
154.2121212121
 30
0.0
 11
90.8787878788
 21
152.696969697
 31
0.0
  0
SPLINE
  5
C2
330
1F
100
AcDbEntity
  8
0
  6
HIDDEN
 62
     7
370
    18
100
AcDbSpline
210
0.0
220
0.0
230
1.0
 70
     8
 71
     3
 72
    38
 73
    34
 74
     0
 42
0.00000001
 43
0.00000001
 40
0.0
 40
0.0
 40
0.0
 40
0.0
 40
0.0625000000000001
 40
0.0625000000000001
 40
0.1250000000000002
 40
0.1250000000000002
 40
0.1875000000000004
 40
0.1875000000000004
 40
0.2500000000000006
 40
0.2500000000000006
 40
0.3125000000000007
 40
0.3125000000000007
 40
0.3750000000000009
 40
0.3750000000000009
 40
0.437500000000001
 40
0.437500000000001
 40
0.5000000000000009
 40
0.5000000000000009
 40
0.5625000000000008
 40
0.5625000000000008
 40
0.6250000000000007
 40
0.6250000000000007
 40
0.6875000000000006
 40
0.6875000000000006
 40
0.7500000000000004
 40
0.7500000000000004
 40
0.8125000000000004
 40
0.8125000000000004
 40
0.8750000000000003
 40
0.8750000000000003
 40
0.9375000000000002
 40
0.9375000000000002
 40
1.0
 40
1.0
 40
1.0
 40
1.0
 10
90.87878787878788
 20
152.6969696969697
 30
0.0
 10
90.8787878803018
 20
152.6969696969697
 30
0.0
 10
90.87094286672112
 20
152.6770671699342
 30
0.0
 10
90.84222667033936
 20
152.5998873196328
 30
0.0
 10
90.82118362740086
 20
152.5419205079701
 30
0.0
 10
90.76989525732286
 20
152.3895498562079
 30
0.0
 10
90.74015657075111
 20
152.2966670092376
 30
0.0
 10
90.6771639778244
 20
152.0782087182191
 30
0.0
 10
90.6436018529821
 20
151.951425972425
 30
0.0
 10
90.57910838724104
 20
151.67421321044
 30
0.0
 10
90.54787970931012
 20
151.5229709221299
 30
0.0
 10
90.4903964201503
 20
151.1941421780871
 30
0.0
 10
90.46457013133393
 20
151.0182143056105
 30
0.0
 10
90.42229451963574
 20
150.6542966465191
 30
0.0
 10
90.40549248152635
 20
150.4642001763669
 30
0.0
 10
90.38253283237904
 20
150.0702890449443
 30
0.0
 10
90.3766487559355
 20
149.8689314660195
 30
0.0
 10
90.37656474238584
 20
149.4688425862139
 30
0.0
 10
90.38227989168881
 20
149.2712347412294
 30
0.0
 10
90.40461413702278
 20
148.8808044189436
 30
0.0
 10
90.42146804476646
 20
148.6873025280192
 30
0.0
 10
90.46363423721057
 20
148.3219650031394
 30
0.0
 10
90.48903341385677
 20
148.1478836123713
 30
0.0
 10
90.54655419116584
 20
147.8170043238212
 30
0.0
 10
90.5782830799225
 20
147.662818966346
 30
0.0
 10
90.64332072898209
 20
147.382960531798
 30
0.0
 10
90.67624578234997
 20
147.2585801394474
 30
0.0
 10
90.73922545457839
 20
147.039840001089
 30
0.0
 10
90.76951752227622
 20
146.9448745961913
 30
0.0
 10
90.82060078612652
 20
146.7931233639091
 30
0.0
 10
90.84163064895151
 20
146.7353410888518
 30
0.0
 10
90.87083436244089
 20
146.6567286712346
 30
0.0
 10
90.878787878792
 20
146.6363636363636
 30
0.0
 10
90.87878787878788
 20
146.6363636363637
 30
0.0
  0
LINE
  5
C3
330
1F
100
AcDbEntity
  8
0
  6
HIDDEN
 62
     7
370
    18
100
AcDbLine
 10
92.3939393939
 20
145.1212121212
 30
0.0
 11
90.8787878788
 21
146.6363636364
 31
0.0
  0
SPLINE
  5
C4
330
1F
100
AcDbEntity
  8
0
  6
HIDDEN
 62
     7
370
    18
100
AcDbSpline
210
0.0
220
0.0
230
1.0
 70
     8
 71
     3
 72
    23
 73
    19
 74
     0
 42
0.00000001
 43
0.00000001
 40
0.0
 40
0.0
 40
0.0
 40
0.0
 40
0.056352826993431
 40
0.107179183187396
 40
0.1594489617078966
 40
0.2636450088419289
 40
0.3175414564405893
 40
0.3730455616716181
 40
0.426055494210005
 40
0.4807190833045441
 40
0.5318287257925387
 40
0.5844497550744726
 40
0.6869087661319785
 40
0.7921629430649674
 40
0.8459767061058877
 40
0.8982214277754872
 40
0.9520150455899521
 40
1.0
 40
1.0
 40
1.0
 40
1.0
 10
75.12121212121365
 20
152.6969696969697
 30
0.0
 10
75.12481330524129
 20
152.687746602863
 30
0.0
 10
75.13166250843453
 20
152.6702049151508
 30
0.0
 10
75.18142379012916
 20
152.5353931287302
 30
0.0
 10
75.2707293712074
 20
152.269245438266
 30
0.0
 10
75.38674385756883
 20
151.8523264688886
 30
0.0
 10
75.49148655530553
 20
151.3185015046878
 30
0.0
 10
75.55755329835722
 20
150.8624619393398
 30
0.0
 10
75.60378815545147
 20
150.3678953036777
 30
0.0
 10
75.62567137058937
 20
149.8649705613914
 30
0.0
 10
75.62271962203327
 20
149.3577047202947
 30
0.0
 10
75.58801375755503
 20
148.7094651440742
 30
0.0
 10
75.4895383740566
 20
147.9450357881462
 30
0.0
 10
75.34840553338026
 20
147.3351492201796
 30
0.0
 10
75.24121645652288
 20
146.9751492543238
 30
0.0
 10
75.17421965672794
 20
146.7774759580098
 30
0.0
 10
75.12924920931445
 20
146.6567505262892
 30
0.0
 10
75.1244370117069
 20
146.6445893800206
 30
0.0
 10
75.12216823275114
 20
146.6388558347711
 30
0.0
  0
SPLINE
  5
C5
330
1F
100
AcDbEntity
  8
0
  6
HIDDEN
 62
     7
370
    18
100
AcDbSpline
210
0.0
220
0.0
230
1.0
 70
     8
 71
     3
 72
    14
 73
    10
 74
     0
 42
0.00000001
 43
0.00000001
 40
0.0
 40
0.0
 40
0.0
 40
0.0
 40
0.25
 40
0.25
 40
0.5
 40
0.5
 40
0.75
 40
0.75
 40
1.0
 40
1.0
 40
1.0
 40
1.0
 10
91.70136733263287
 20
195.5652498591333
 30
0.0
 10
91.73655606690586
 20
195.2662372088712
 30
0.0
 10
91.78421994712177
 20
194.9881005807788
 30
0.0
 10
91.88691686574982
 20
194.4938905969561
 30
0.0
 10
91.94291823082582
 20
194.273147436682
 30
0.0
 10
92.04261731292715
 20
193.9147125884844
 30
0.0
 10
92.08746027401322
 20
193.7718942597024
 30
0.0
 10
92.14952331306809
 20
193.5794658290795
 30
0.0
 10
92.16666655104542
 20
193.530303030303
 30
0.0
 10
92.16666666666667
 20
193.530303030303
 30
0.0
  0
LINE
  5
C6
330
1F
100
AcDbEntity
  8
0
  6
HIDDEN
 62
     7
370
    18
100
AcDbLine
 10
92.3939393939
 20
193.303030303
 30
0.0
 11
92.1666666667
 21
193.5303030303
 31
0.0
  0
SPLINE
  5
C7
330
1F
100
AcDbEntity
  8
0
  6
HIDDEN
 62
     7
370
    18
100
AcDbSpline
210
0.0
220
0.0
230
1.0
 70
     8
 71
     3
 72
    14
 73
    10
 74
     0
 42
0.00000001
 43
0.00000001
 40
0.0
 40
0.0
 40
0.0
 40
0.0
 40
0.1711077422929332
 40
0.3095053919237177
 40
0.4518990815001538
 40
0.5906005510941243
 40
0.7334781731200791
 40
0.8691494343605825
 40
1.0
 40
1.0
 40
1.0
 40
1.0
 10
74.298632641703
 20
195.5652496414468
 30
0.0
 10
74.27135068966233
 20
195.3667047948463
 30
0.0
 10
74.22200218476338
 20
195.0075702534277
 30
0.0
 10
74.12626164390238
 20
194.5548188232229
 30
0.0
 10
74.03606327596322
 20
194.1920027026711
 30
0.0
 10
73.95113472775499
 20
193.8960985676225
 30
0.0
 10
73.88495601964571
 20
193.6846930474153
 30
0.0
 10
73.841110985419
 20
193.5529663501536
 30
0.0
 10
73.83653013175892
 20
193.5396453796892
 30
0.0
 10
73.83428113286998
 20
193.5331053655353
 30
0.0
  0
SPLINE
  5
C8
330
1F
100
AcDbEntity
  8
0
  6
HIDDEN
 62
     7
370
    18
100
AcDbSpline
210
0.0
220
0.0
230
1.0
 70
     8
 71
     3
 72
     9
 73
     5
 74
     0
 42
0.00000001
 43
0.00000001
 40
0.0
 40
0.0
 40
0.0
 40
0.0
 40
0.8534882683158876
 40
1.0
 40
1.0
 40
1.0
 40
1.0
 10
74.29863494478333
 20
195.5652646695864
 30
0.0
 10
74.32139935841413
 20
195.7709186736258
 30
0.0
 10
74.34807156291403
 20
196.0118757103819
 30
0.0
 10
74.35258053825874
 20
196.2647344688697
 30
0.0
 10
74.3532411560446
 20
196.3017812434473
 30
0.0
  0
SPLINE
  5
C9
330
1F
100
AcDbEntity
  8
0
  6
HIDDEN
 62
     7
370
    18
100
AcDbSpline
210
0.0
220
0.0
230
1.0
 70
     8
 71
     3
 72
     9
 73
     5
 74
     0
 42
0.00000001
 43
0.00000001
 40
0.0
 40
0.0
 40
0.0
 40
0.0
 40
0.9622745191133195
 40
1.0
 40
1.0
 40
1.0
 40
1.0
 10
91.70136505583638
 20
195.5652646642606
 30
0.0
 10
91.67791470651413
 20
195.7705503186355
 30
0.0
 10
91.6535449982277
 20
195.9838840922078
 30
0.0
 10
91.6488329402616
 20
196.2077740841821
 30
0.0
 10
91.64865517560887
 20
196.216220441795
 30
0.0
  0
SPLINE
  5
CA
330
1F
100
AcDbEntity
  8
0
  6
HIDDEN
 62
     7
370
    18
100
AcDbSpline
210
0.0
220
0.0
230
1.0
 70
     8
 71
     3
 72
    24
 73
    20
 74
     0
 42
0.00000001
 43
0.00000001
 40
0.0
 40
0.0
 40
0.0
 40
0.0
 40
0.0283682495827108
 40
0.0571009542182099
 40
0.0862079081228636
 40
0.1156985324734062
 40
0.1455818854123234
 40
0.2114757182065209
 40
0.2841999894951239
 40
0.3508335879322186
 40
0.4154207260546033
 40
0.4777454508727015
 40
0.5381341992820731
 40
0.6555007967444654
 40
0.7704050068757412
 40
0.8274854762967254
 40
0.8847354917256216
 40
0.9411602592975414
 40
1.0
 40
1.0
 40
1.0
 40
1.0
 10
92.16666666666667
 20
199.7424242424242
 30
0.0
 10
92.16634998712696
 20
199.7415239185256
 30
0.0
 10
92.1657125595745
 20
199.7397117040084
 30
0.0
 10
92.16063098295618
 20
199.7249303683934
 30
0.0
 10
92.15254423680896
 20
199.7009582260089
 30
0.0
 10
92.14114024134149
 20
199.6666399803205
 30
0.0
 10
92.12071589661791
 20
199.6042423234178
 30
0.0
 10
92.08405465805164
 20
199.4906248778891
 30
0.0
 10
92.02735854837852
 20
199.3029079820878
 30
0.0
 10
91.96240141777702
 20
199.0710857933747
 30
0.0
 10
91.89726574502698
 20
198.8140550698578
 30
0.0
 10
91.83452424094607
 20
198.533972645531
 30
0.0
 10
91.75880788576708
 20
198.1407535949616
 30
0.0
 10
91.68195106616383
 20
197.6072067686582
 30
0.0
 10
91.64197708394626
 20
197.0357985417869
 30
0.0
 10
91.63635922357501
 20
196.5763689702395
 30
0.0
 10
91.64515101557792
 20
196.2350624606276
 30
0.0
 10
91.66604948182746
 20
195.8947637818516
 30
0.0
 10
91.68943141954794
 20
195.6766113789384
 30
0.0
 10
91.70136733263334
 20
195.5652498591333
 30
0.0
  0
SPLINE
  5
CB
330
1F
100
AcDbEntity
  8
0
  6
HIDDEN
 62
     7
370
    18
100
AcDbSpline
210
0.0
220
0.0
230
1.0
 70
     8
 71
     3
 72
    18
 73
    14
 74
     0
 42
0.00000001
 43
0.00000001
 40
0.0
 40
0.0
 40
0.0
 40
0.0
 40
0.1249999999999992
 40
0.1249999999999992
 40
0.2499999999999984
 40
0.2499999999999984
 40
0.3749999999999977
 40
0.3749999999999977
 40
0.4999999999999969
 40
0.4999999999999969
 40
0.7499999999999984
 40
0.7499999999999984
 40
1.0
 40
1.0
 40
1.0
 40
1.0
 10
73.83333333333333
 20
199.7424242424242
 30
0.0
 10
73.8333332287714
 20
199.742424234769
 30
0.0
 10
73.84833842048315
 20
199.699184778282
 30
0.0
 10
73.89950391274478
 20
199.5419018080439
 30
0.0
 10
73.93556114116868
 20
199.4281483169563
 30
0.0
 10
74.01629546806956
 20
199.1496645899976
 30
0.0
 10
74.06081739916493
 20
198.9849391604486
 30
0.0
 10
74.14607126083988
 20
198.6261536183917
 30
0.0
 10
74.18662855249671
 20
198.4332694082273
 30
0.0
 10
74.2931628218323
 20
197.8243008414886
 30
0.0
 10
74.34308952402299
 20
197.3756153791561
 30
0.0
 10
74.37148464129245
 20
196.4630868289814
 30
0.0
 10
74.34981391266312
 20
196.0001571338493
 30
0.0
 10
74.29863264170302
 20
195.565249641447
 30
0.0
  0
LINE
  5
CC
330
1F
100
AcDbEntity
  8
0
  6
HIDDEN
 62
     7
370
    18
100
AcDbLine
 10
86.0303030303
 20
152.696969697
 30
0.0
 11
83.0
 21
149.6666666667
 31
0.0
  0
LINE
  5
CD
330
1F
100
AcDbEntity
  8
0
  6
HIDDEN
 62
     7
370
    18
100
AcDbLine
 10
86.0303030303
 20
146.6363636364
 30
0.0
 11
83.0
 21
149.6666666667
 31
0.0
  0
LINE
  5
CE
330
1F
100
AcDbEntity
  8
0
  6
HIDDEN
 62
     7
370
    18
100
AcDbLine
 10
86.0303030303
 20
154.9696969697
 30
0.0
 11
79.9696969697
 21
154.9696969697
 31
0.0
  0
LINE
  5
CF
330
1F
100
AcDbEntity
  8
0
  6
HIDDEN
 62
     7
370
    18
100
AcDbLine
 10
83.0
 20
149.6666666667
 30
0.0
 11
79.9696969697
 21
152.696969697
 31
0.0
  0
LINE
  5
D0
330
1F
100
AcDbEntity
  8
0
  6
HIDDEN
 62
     7
370
    18
100
AcDbLine
 10
83.0
 20
149.6666666667
 30
0.0
 11
79.9696969697
 21
146.6363636364
 31
0.0
  0
LINE
  5
D1
330
1F
100
AcDbEntity
  8
0
  6
HIDDEN
 62
     7
370
    18
100
AcDbLine
 10
92.3939393939
 20
199.96969697
 30
0.0
 11
92.1666666667
 21
199.7424242424
 31
0.0
  0
LINE
  5
D2
330
1F
100
AcDbEntity
  8
0
  6
HIDDEN
 62
     7
370
    18
100
AcDbLine
 10
73.6060606061
 20
199.9696969697
 30
0.0
 11
73.8333333333
 21
199.7424242424
 31
0.0
  0
LINE
  5
D3
330
1F
100
AcDbEntity
  8
0
  6
HIDDEN
 62
     7
370
    18
100
AcDbLine
 10
73.6060606063
 20
145.1212121217
 30
0.0
 11
75.1303462948
 21
146.6454978127
 31
0.0
  0
LINE
  5
D4
330
1F
100
AcDbEntity
  8
0
  6
HIDDEN
 62
     7
370
    18
100
AcDbLine
 10
75.1303462931
 20
152.6878355251
 30
0.0
 11
73.6060606061
 21
154.2121212121
 31
0.0
  0
SPLINE
  5
D5
330
1F
100
AcDbEntity
  8
0
  6
HIDDEN
 62
     7
370
    18
100
AcDbSpline
210
0.0
220
0.0
230
1.0
 70
     8
 71
     3
 72
     9
 73
     5
 74
     0
 42
0.00000001
 43
0.00000001
 40
0.0
 40
0.0
 40
0.0
 40
0.0
 40
0.5000000999591233
 40
1.0
 40
1.0
 40
1.0
 40
1.0
 10
73.60606067018905
 20
193.3030304860839
 30
0.0
 10
73.64418617234469
 20
193.341155955379
 30
0.0
 10
73.72043716141201
 20
193.4174068787251
 30
0.0
 10
73.79668822489461
 20
193.4936579292672
 30
0.0
 10
73.83481374901392
 20
193.5317834469162
 30
0.0
  0
LINE
  5
D6
330
1F
100
AcDbEntity
  8
0
  6
HIDDEN
 62
     7
370
    18
100
AcDbLine
 10
73.8343113522
 20
193.5303030303
 30
0.0
 11
92.1666666667
 21
193.5303030303
 31
0.0
  0
LINE
  5
D7
330
1F
100
AcDbEntity
  8
0
  6
HIDDEN
 62
     7
370
    18
100
AcDbLine
 10
92.1666666664
 20
199.7424242424
 30
0.0
 11
73.8333333333
 21
199.7424242424
 31
0.0
  0
LINE
  5
D8
330
1F
100
AcDbEntity
  8
0
  6
HIDDEN
 62
     7
370
    18
100
AcDbLine
 10
86.0303030303
 20
146.6363636364
 30
0.0
 11
90.8787878788
 21
146.6363636364
 31
0.0
  0
LINE
  5
D9
330
1F
100
AcDbEntity
  8
0
  6
HIDDEN
 62
     7
370
    18
100
AcDbLine
 10
90.8787878788
 20
152.696969697
 30
0.0
 11
86.0303030303
 21
152.696969697
 31
0.0
  0
LINE
  5
DA
330
1F
100
AcDbEntity
  8
0
  6
HIDDEN
 62
     7
370
    18
100
AcDbLine
 10
86.0303030303
 20
152.696969697
 30
0.0
 11
86.0303030303
 21
154.9696969697
 31
0.0
  0
LINE
  5
DB
330
1F
100
AcDbEntity
  8
0
  6
HIDDEN
 62
     7
370
    18
100
AcDbLine
 10
79.9696969697
 20
154.9696969697
 30
0.0
 11
79.9696969697
 21
152.696969697
 31
0.0
  0
LINE
  5
DC
330
1F
100
AcDbEntity
  8
0
  6
HIDDEN
 62
     7
370
    18
100
AcDbLine
 10
75.1221687842
 20
146.6363636364
 30
0.0
 11
79.9696969697
 21
146.6363636364
 31
0.0
  0
LINE
  5
DD
330
1F
100
AcDbEntity
  8
0
  6
HIDDEN
 62
     7
370
    18
100
AcDbLine
 10
79.9696969697
 20
152.696969697
 30
0.0
 11
75.1212121212
 21
152.696969697
 31
0.0
  0
LINE
  5
DE
330
1F
100
AcDbEntity
  8
0
  6
HIDDEN
 62
     7
370
    18
100
AcDbLine
 10
86.0303030303
 20
108.0
 30
0.0
 11
86.0303030303
 21
146.6363636364
 31
0.0
  0
LINE
  5
DF
330
1F
100
AcDbEntity
  8
0
  6
HIDDEN
 62
     7
370
    18
100
AcDbLine
 10
79.9696969697
 20
146.6363636364
 30
0.0
 11
79.9696969697
 21
108.0
 31
0.0
  0
LINE
  5
E0
330
1F
100
AcDbEntity
  8
0
  6
Continuous
 62
     7
370
    25
100
AcDbLine
 10
173.0
 20
44.8787878788
 30
0.0
 11
180.5757575758
 21
44.8787878788
 31
0.0
  0
LINE
  5
E1
330
1F
100
AcDbEntity
  8
0
  6
Continuous
 62
     7
370
    25
100
AcDbLine
 10
180.5757575758
 20
69.1212121212
 30
0.0
 11
173.0
 21
69.1212121212
 31
0.0
  0
LINE
  5
E2
330
1F
100
AcDbEntity
  8
0
  6
Continuous
 62
     7
370
    25
100
AcDbLine
 10
272.7727272727
 20
66.3939393939
 30
0.0
 11
241.1818181818
 21
66.3939393939
 31
0.0
  0
LINE
  5
E3
330
1F
100
AcDbEntity
  8
0
  6
Continuous
 62
     7
370
    25
100
AcDbLine
 10
241.1818181818
 20
47.6060606061
 30
0.0
 11
272.7727272727
 21
47.6060606061
 31
0.0
  0
LINE
  5
E4
330
1F
100
AcDbEntity
  8
0
  6
Continuous
 62
     7
370
    25
100
AcDbLine
 10
188.1515151515
 20
47.6060606061
 30
0.0
 11
238.1515151515
 21
47.6060606061
 31
0.0
  0
LINE
  5
E5
330
1F
100
AcDbEntity
  8
0
  6
Continuous
 62
     7
370
    25
100
AcDbLine
 10
238.1515151515
 20
66.3939393939
 30
0.0
 11
188.1515151515
 21
66.3939393939
 31
0.0
  0
LINE
  5
E6
330
1F
100
AcDbEntity
  8
0
  6
Continuous
 62
     7
370
    25
100
AcDbLine
 10
272.7727272727
 20
47.6060606061
 30
0.0
 11
273.0
 21
47.8333333333
 31
0.0
  0
LINE
  5
E7
330
1F
100
AcDbEntity
  8
0
  6
Continuous
 62
     7
370
    25
100
AcDbLine
 10
273.0
 20
66.1666666667
 30
0.0
 11
272.7727272727
 21
66.3939393939
 31
0.0
  0
LINE
  5
E8
330
1F
100
AcDbEntity
  8
0
  6
Continuous
 62
     7
370
    25
100
AcDbLine
 10
180.5757575758
 20
47.6060606061
 30
0.0
 11
185.1212121212
 21
47.6060606061
 31
0.0
  0
LINE
  5
E9
330
1F
100
AcDbEntity
  8
0
  6
Continuous
 62
     7
370
    25
100
AcDbLine
 10
185.1212121212
 20
66.3939393939
 30
0.0
 11
180.5757575758
 21
66.3939393939
 31
0.0
  0
LINE
  5
EA
330
1F
100
AcDbEntity
  8
0
  6
Continuous
 62
     7
370
    25
100
AcDbLine
 10
238.1515151515
 20
49.3484848485
 30
0.0
 11
241.1818181818
 21
49.3484848485
 31
0.0
  0
LINE
  5
EB
330
1F
100
AcDbEntity
  8
0
  6
Continuous
 62
     7
370
    25
100
AcDbLine
 10
241.1818181818
 20
64.6515151515
 30
0.0
 11
238.1515151515
 21
64.6515151515
 31
0.0
  0
LINE
  5
EC
330
1F
100
AcDbEntity
  8
0
  6
Continuous
 62
     7
370
    25
100
AcDbLine
 10
185.1212121212
 20
49.3484848485
 30
0.0
 11
188.1515151515
 21
49.3484848485
 31
0.0
  0
LINE
  5
ED
330
1F
100
AcDbEntity
  8
0
  6
Continuous
 62
     7
370
    25
100
AcDbLine
 10
188.1515151515
 20
64.6515151515
 30
0.0
 11
185.1212121212
 21
64.6515151515
 31
0.0
  0
LINE
  5
EE
330
1F
100
AcDbEntity
  8
0
  6
Continuous
 62
     7
370
    25
100
AcDbLine
 10
180.5757575758
 20
57.0
 30
0.0
 11
180.5757575758
 21
69.1212121212
 31
0.0
  0
LINE
  5
EF
330
1F
100
AcDbEntity
  8
0
  6
Continuous
 62
     7
370
    25
100
AcDbLine
 10
180.5757575758
 20
44.8787878788
 30
0.0
 11
180.5757575758
 21
57.0
 31
0.0
  0
LINE
  5
F0
330
1F
100
AcDbEntity
  8
0
  6
Continuous
 62
     7
370
    25
100
AcDbLine
 10
173.0
 20
57.0
 30
0.0
 11
173.0
 21
69.1212121212
 31
0.0
  0
LINE
  5
F1
330
1F
100
AcDbEntity
  8
0
  6
Continuous
 62
     7
370
    25
100
AcDbLine
 10
173.0
 20
44.8787878788
 30
0.0
 11
173.0
 21
57.0
 31
0.0
  0
LINE
  5
F2
330
1F
100
AcDbEntity
  8
0
  6
Continuous
 62
     7
370
    25
100
AcDbLine
 10
241.1818181818
 20
57.0
 30
0.0
 11
241.1818181818
 21
66.3939393939
 31
0.0
  0
LINE
  5
F3
330
1F
100
AcDbEntity
  8
0
  6
Continuous
 62
     7
370
    25
100
AcDbLine
 10
241.1818181818
 20
47.6060606061
 30
0.0
 11
241.1818181818
 21
57.0
 31
0.0
  0
SPLINE
  5
F4
330
1F
100
AcDbEntity
  8
0
  6
Continuous
 62
     7
370
    25
100
AcDbSpline
210
0.0
220
0.0
230
1.0
 70
     8
 71
     3
 72
    18
 73
    14
 74
     0
 42
0.00000001
 43
0.00000001
 40
0.0
 40
0.0
 40
0.0
 40
0.0
 40
0.1250000000000008
 40
0.1250000000000008
 40
0.2500000000000016
 40
0.2500000000000016
 40
0.3750000000000023
 40
0.3750000000000023
 40
0.5000000000000031
 40
0.5000000000000031
 40
0.7500000000000016
 40
0.7500000000000016
 40
1.0
 40
1.0
 40
1.0
 40
1.0
 10
264.9696969696969
 20
56.99999995866297
 30
0.0
 10
264.969696906839
 20
57.32707776606322
 30
0.0
 10
264.920448318089
 20
57.64775319421056
 30
0.0
 10
264.7446741080354
 20
58.24217746121606
 30
0.0
 10
264.6181161469174
 20
58.5167467749827
 30
0.0
 10
264.3114571828877
 20
59.00706659206649
 30
0.0
 10
264.1314949444513
 20
59.22282871029448
 30
0.0
 10
263.7430206885099
 20
59.5908794035368
 30
0.0
 10
263.5360094903095
 20
59.74307735627552
 30
0.0
 10
262.8862348334436
 20
60.11966211702378
 30
0.0
 10
262.4132889880905
 20
60.26409279012825
 30
0.0
 10
261.4541442891074
 20
60.34890067367931
 30
0.0
 10
260.9685542775408
 20
60.28890191149836
 30
0.0
 10
260.5085490017061
 20
60.12538702899091
 30
0.0
  0
SPLINE
  5
F5
330
1F
100
AcDbEntity
  8
0
  6
Continuous
 62
     7
370
    25
100
AcDbSpline
210
0.0
220
0.0
230
1.0
 70
     8
 71
     3
 72
    14
 73
    10
 74
     0
 42
0.00000001
 43
0.00000001
 40
0.0
 40
0.0
 40
0.0
 40
0.0
 40
0.2500000000000001
 40
0.2500000000000001
 40
0.5000000000000001
 40
0.5000000000000001
 40
0.7500000000000002
 40
0.7500000000000002
 40
1.0
 40
1.0
 40
1.0
 40
1.0
 10
260.5085501746197
 20
60.1253874459197
 30
0.0
 10
260.2292058917671
 20
60.02609098952203
 30
0.0
 10
259.9590744072718
 20
59.88849860992465
 30
0.0
 10
259.4540199906096
 20
59.53291374586676
 30
0.0
 10
259.2192754019442
 20
59.31554160693729
 30
0.0
 10
258.8039412067737
 20
58.78767980439684
 30
0.0
 10
258.6248018730871
 20
58.47531109696437
 30
0.0
 10
258.3741222076272
 20
57.77808457360228
 30
0.0
 10
258.3030302254189
 20
57.39102783404198
 30
0.0
 10
258.3030303029788
 20
57.0
 30
0.0
  0
SPLINE
  5
F6
330
1F
100
AcDbEntity
  8
0
  6
Continuous
 62
     7
370
    25
100
AcDbSpline
210
0.0
220
0.0
230
1.0
 70
     8
 71
     3
 72
    14
 73
    10
 74
     0
 42
0.00000001
 43
0.00000001
 40
0.0
 40
0.0
 40
0.0
 40
0.0
 40
0.25
 40
0.25
 40
0.5
 40
0.5
 40
0.75
 40
0.75
 40
1.0
 40
1.0
 40
1.0
 40
1.0
 10
258.3030303030303
 20
57.0
 30
0.0
 10
258.3030303813591
 20
56.60533393964988
 30
0.0
 10
258.3747948005065
 20
56.22079739887192
 30
0.0
 10
258.6241943318852
 20
55.52659608841051
 30
0.0
 10
258.8018284815599
 20
55.21530932340772
 30
0.0
 10
259.2200465607729
 20
54.683080447756
 30
0.0
 10
259.4592443223491
 20
54.46304461499389
 30
0.0
 10
259.9620505188884
 20
54.11002786814335
 30
0.0
 10
260.2305084895597
 20
53.97348462859242
 30
0.0
 10
260.5083997838242
 20
53.8746693528288
 30
0.0
  0
SPLINE
  5
F7
330
1F
100
AcDbEntity
  8
0
  6
Continuous
 62
     7
370
    25
100
AcDbSpline
210
0.0
220
0.0
230
1.0
 70
     8
 71
     3
 72
    22
 73
    18
 74
     0
 42
0.00000001
 43
0.00000001
 40
0.0
 40
0.0
 40
0.0
 40
0.0
 40
0.0625
 40
0.0625
 40
0.125
 40
0.125
 40
0.25
 40
0.25
 40
0.5
 40
0.5
 40
0.625
 40
0.625
 40
0.75
 40
0.75
 40
0.875
 40
0.875
 40
1.0
 40
1.0
 40
1.0
 40
1.0
 10
260.5085533919606
 20
53.87461473556969
 30
0.0
 10
260.6207141978541
 20
53.83473766160387
 30
0.0
 10
260.7341163293895
 20
53.80099323116511
 30
0.0
 10
260.9709030745072
 20
53.74438893892154
 30
0.0
 10
261.0904087562205
 20
53.72261687901668
 30
0.0
 10
261.4508344142064
 20
53.67678125556254
 30
0.0
 10
261.6937430806824
 20
53.67221494533547
 30
0.0
 10
262.4162536127927
 20
53.73631289599851
 30
0.0
 10
262.8909753385807
 20
53.88191435926728
 30
0.0
 10
263.5432175005238
 20
54.2617048443281
 30
0.0
 10
263.7504192818726
 20
54.41523339071576
 30
0.0
 10
264.133886625736
 20
54.7804006218395
 30
0.0
 10
264.3114316709498
 20
54.9929765763489
 30
0.0
 10
264.6177957389598
 20
55.48251990749634
 30
0.0
 10
264.7451931466004
 20
55.75841636894594
 30
0.0
 10
264.9211795144163
 20
56.35463731681424
 30
0.0
 10
264.9696970362622
 20
56.67635366309413
 30
0.0
 10
264.9696969700454
 20
57.0
 30
0.0
  0
LINE
  5
F8
330
1F
100
AcDbEntity
  8
0
  6
Continuous
 62
     7
370
    25
100
AcDbLine
 10
272.7727272727
 20
57.0
 30
0.0
 11
272.7727272727
 21
66.3939393939
 31
0.0
  0
LINE
  5
F9
330
1F
100
AcDbEntity
  8
0
  6
Continuous
 62
     7
370
    25
100
AcDbLine
 10
272.7727272727
 20
47.6060606061
 30
0.0
 11
272.7727272727
 21
57.0
 31
0.0
  0
SPLINE
  5
FA
330
1F
100
AcDbEntity
  8
0
  6
Continuous
 62
     7
370
    25
100
AcDbSpline
210
0.0
220
0.0
230
1.0
 70
     8
 71
     3
 72
    24
 73
    20
 74
     0
 42
0.00000001
 43
0.00000001
 40
0.0
 40
0.0
 40
0.0
 40
0.0
 40
0.0283682495827108
 40
0.0571009542182099
 40
0.0862079081228636
 40
0.1156985324734062
 40
0.1455818854123234
 40
0.2114757182065209
 40
0.2841999894951239
 40
0.3508335879322186
 40
0.4154207260546033
 40
0.4777454508727015
 40
0.5381341992820731
 40
0.6555007967444654
 40
0.7704050068757412
 40
0.8274854762967254
 40
0.8847354917256216
 40
0.9411602592975414
 40
1.0
 40
1.0
 40
1.0
 40
1.0
 10
264.7424242424242
 20
57.0
 30
0.0
 10
264.7415239185256
 20
57.05678659594082
 30
0.0
 10
264.7397117040084
 20
57.1710893415357
 30
0.0
 10
264.7249303683934
 20
57.34307423901893
 30
0.0
 10
264.7009582260089
 20
57.51610245523528
 30
0.0
 10
264.6666399803206
 20
57.68958487760969
 30
0.0
 10
264.6042423234179
 20
57.93168083555426
 30
0.0
 10
264.4906248778891
 20
58.24819956413052
 30
0.0
 10
264.3029079820878
 20
58.61073698344353
 30
0.0
 10
264.0710857933747
 20
58.94171248200335
 30
0.0
 10
263.8140550698578
 20
59.22541650922901
 30
0.0
 10
263.533972645531
 20
59.46795865164093
 30
0.0
 10
263.1407535949616
 20
59.73511455796569
 30
0.0
 10
262.6072067686582
 20
59.9779803476325
 30
0.0
 10
262.035798541787
 20
60.09522842732348
 30
0.0
 10
261.5763689702395
 20
60.11192212986484
 30
0.0
 10
261.2350624606275
 20
60.08589454824413
 30
0.0
 10
260.8947637818516
 20
60.02455052770907
 30
0.0
 10
260.6766113789384
 20
59.95237567360298
 30
0.0
 10
260.5652498591332
 20
59.91553215807146
 30
0.0
  0
SPLINE
  5
FB
330
1F
100
AcDbEntity
  8
0
  6
Continuous
 62
     7
370
    25
100
AcDbSpline
210
0.0
220
0.0
230
1.0
 70
     8
 71
     3
 72
    22
 73
    18
 74
     0
 42
0.00000001
 43
0.00000001
 40
0.0
 40
0.0
 40
0.0
 40
0.0
 40
0.125
 40
0.125
 40
0.2500000000000001
 40
0.2500000000000001
 40
0.3750000000000001
 40
0.3750000000000001
 40
0.5000000000000001
 40
0.5000000000000001
 40
0.6250000000000001
 40
0.6250000000000001
 40
0.75
 40
0.75
 40
0.875
 40
0.875
 40
1.0
 40
1.0
 40
1.0
 40
1.0
 10
260.5652646642606
 20
54.08446240283469
 30
0.0
 10
260.8009472663814
 20
53.99787823629207
 30
0.0
 10
261.0466513007404
 20
53.94011457880875
 30
0.0
 10
261.5458142639457
 20
53.885122756711
 30
0.0
 10
261.7948596678859
 20
53.88787387861863
 30
0.0
 10
262.2918849642052
 20
53.95356901011407
 30
0.0
 10
262.5358361426808
 20
54.01672371725672
 30
0.0
 10
262.9973512816898
 20
54.19701930116015
 30
0.0
 10
263.2195966903635
 20
54.3164099400347
 30
0.0
 10
263.6227699155896
 20
54.59948492879677
 30
0.0
 10
263.8076744887263
 20
54.765184202628
 30
0.0
 10
264.1344795229571
 20
55.13763336506453
 30
0.0
 10
264.2734636532098
 20
55.34027933154542
 30
0.0
 10
264.5031795493297
 20
55.77920693100369
 30
0.0
 10
264.5926216694407
 20
56.01531804510356
 30
0.0
 10
264.7113768811124
 20
56.49665751714006
 30
0.0
 10
264.7424242424242
 20
56.74732144485457
 30
0.0
 10
264.7424242424242
 20
57.0
 30
0.0
  0
SPLINE
  5
FC
330
1F
100
AcDbEntity
  8
0
  6
Continuous
 62
     7
370
    25
100
AcDbSpline
210
0.0
220
0.0
230
1.0
 70
     8
 71
     3
 72
    14
 73
    10
 74
     0
 42
0.00000001
 43
0.00000001
 40
0.0
 40
0.0
 40
0.0
 40
0.0
 40
0.25
 40
0.25
 40
0.5
 40
0.5
 40
0.75
 40
0.75
 40
1.0
 40
1.0
 40
1.0
 40
1.0
 10
260.5652498591332
 20
59.91553215807131
 30
0.0
 10
260.2662372088711
 20
59.8056803190596
 30
0.0
 10
259.9881005807788
 20
59.65106175266695
 30
0.0
 10
259.4938905969561
 20
59.27039837743761
 30
0.0
 10
259.273147436682
 20
59.0396454905082
 30
0.0
 10
258.9147125884845
 20
58.52890814209557
 30
0.0
 10
258.7718942597024
 20
58.24245312729307
 30
0.0
 10
258.5794658290795
 20
57.6358068725421
 30
0.0
 10
258.5303030303031
 20
57.32056893010117
 30
0.0
 10
258.5303030303031
 20
57.0
 30
0.0
  0
SPLINE
  5
FD
330
1F
100
AcDbEntity
  8
0
  6
Continuous
 62
     7
370
    25
100
AcDbSpline
210
0.0
220
0.0
230
1.0
 70
     8
 71
     3
 72
    14
 73
    10
 74
     0
 42
0.00000001
 43
0.00000001
 40
0.0
 40
0.0
 40
0.0
 40
0.0
 40
0.25
 40
0.25
 40
0.5
 40
0.5
 40
0.75
 40
0.75
 40
1.0
 40
1.0
 40
1.0
 40
1.0
 10
258.5303030303031
 20
57.0
 30
0.0
 10
258.5303030391079
 20
56.64197005846601
 30
0.0
 10
258.5934512036596
 20
56.2910087916782
 30
0.0
 10
258.817244307639
 20
55.65299172942803
 30
0.0
 10
258.9775532940419
 20
55.36367958880099
 30
0.0
 10
259.3600892265722
 20
54.86332204828029
 30
0.0
 10
259.5810483870717
 20
54.65329073607111
 30
0.0
 10
260.0499910631998
 20
54.31394808139174
 30
0.0
 10
260.3023920178654
 20
54.18105040062882
 30
0.0
 10
260.5651194380227
 20
54.08451575959697
 30
0.0
  0
SPLINE
  5
FE
330
1F
100
AcDbEntity
  8
0
  6
Continuous
 62
     7
370
    25
100
AcDbSpline
210
0.0
220
0.0
230
1.0
 70
     8
 71
     3
 72
    38
 73
    34
 74
     0
 42
0.00000001
 43
0.00000001
 40
0.0
 40
0.0
 40
0.0
 40
0.0
 40
0.0625000000000001
 40
0.0625000000000001
 40
0.1250000000000002
 40
0.1250000000000002
 40
0.1875000000000004
 40
0.1875000000000004
 40
0.2500000000000006
 40
0.2500000000000006
 40
0.3125000000000007
 40
0.3125000000000007
 40
0.3750000000000009
 40
0.3750000000000009
 40
0.437500000000001
 40
0.437500000000001
 40
0.5000000000000009
 40
0.5000000000000009
 40
0.5625000000000008
 40
0.5625000000000008
 40
0.6250000000000007
 40
0.6250000000000007
 40
0.6875000000000006
 40
0.6875000000000006
 40
0.7500000000000004
 40
0.7500000000000004
 40
0.8125000000000004
 40
0.8125000000000004
 40
0.8750000000000003
 40
0.8750000000000003
 40
0.9375000000000002
 40
0.9375000000000002
 40
1.0
 40
1.0
 40
1.0
 40
1.0
 10
217.6969696969697
 20
57.0
 30
0.0
 10
217.6969696969697
 20
57.20156614008256
 30
0.0
 10
217.6770671699342
 20
57.39896870411845
 30
0.0
 10
217.5998873196328
 20
57.78606858349183
 30
0.0
 10
217.5419205079701
 20
57.97733931779327
 30
0.0
 10
217.3895498562079
 20
58.34468729827736
 30
0.0
 10
217.2966670092376
 20
58.51808083136841
 30
0.0
 10
217.0782087182191
 20
58.84551785309313
 30
0.0
 10
216.951425972425
 20
59.00028933772283
 30
0.0
 10
216.67421321044
 20
59.27838526031938
 30
0.0
 10
216.5229709221299
 20
59.40336141851507
 30
0.0
 10
216.1941421780871
 20
59.62465810323336
 30
0.0
 10
216.0182143056105
 20
59.71936757426288
 30
0.0
 10
215.6542966465191
 20
59.87162463549534
 30
0.0
 10
215.4642001763669
 20
59.93036759843746
 30
0.0
 10
215.0702890449443
 20
60.01001709909105
 30
0.0
 10
214.8689314660195
 20
60.03015564052857
 30
0.0
 10
214.4688425862139
 20
60.03044879317856
 30
0.0
 10
214.2712347412294
 20
60.0109772486155
 30
0.0
 10
213.8808044189436
 20
59.93338898323063
 30
0.0
 10
213.6873025280192
 20
59.87449176186245
 30
0.0
 10
213.3219650031394
 20
59.72279900859223
 30
0.0
 10
213.1478836123713
 20
59.62976021459436
 30
0.0
 10
212.8170043238213
 20
59.40854519777761
 30
0.0
 10
212.662818966346
 20
59.28178195306531
 30
0.0
 10
212.382960531798
 20
59.00165450989385
 30
0.0
 10
212.2585801394474
 20
58.8499898812323
 30
0.0
 10
212.039840001089
 20
58.52352386008465
 30
0.0
 10
211.9448745961913
 20
58.34669116724333
 30
0.0
 10
211.7931233639091
 20
57.98207843984626
 30
0.0
 10
211.7353410888518
 20
57.79352784709127
 30
0.0
 10
211.6567286712346
 20
57.40327329556493
 30
0.0
 10
211.6363636363636
 20
57.20155480378765
 30
0.0
 10
211.6363636363637
 20
57.0
 30
0.0
  0
SPLINE
  5
FF
330
1F
100
AcDbEntity
  8
0
  6
Continuous
 62
     7
370
    25
100
AcDbSpline
210
0.0
220
0.0
230
1.0
 70
     8
 71
     3
 72
    38
 73
    34
 74
     0
 42
0.00000001
 43
0.00000001
 40
0.0
 40
0.0
 40
0.0
 40
0.0
 40
0.0625
 40
0.0625
 40
0.1249999999999999
 40
0.1249999999999999
 40
0.1875
 40
0.1875
 40
0.25
 40
0.25
 40
0.3125
 40
0.3125
 40
0.3750000000000001
 40
0.3750000000000001
 40
0.4375000000000001
 40
0.4375000000000001
 40
0.5000000000000001
 40
0.5000000000000001
 40
0.5625000000000001
 40
0.5625000000000001
 40
0.625
 40
0.625
 40
0.6875
 40
0.6875
 40
0.75
 40
0.75
 40
0.8125
 40
0.8125
 40
0.8749999999999999
 40
0.8749999999999999
 40
0.9374999999999999
 40
0.9374999999999999
 40
1.0
 40
1.0
 40
1.0
 40
1.0
 10
219.2121212121212
 20
56.99999999999999
 30
0.0
 10
219.2121212106731
 20
57.30184631753567
 30
0.0
 10
219.1822158992889
 20
57.59802091994853
 30
0.0
 10
219.0656526122356
 20
58.17969733844536
 30
0.0
 10
218.9773823418284
 20
58.46791464712124
 30
0.0
 10
218.7493830828187
 20
59.00995771169337
 30
0.0
 10
218.6097207705374
 20
59.26609954249114
 30
0.0
 10
218.2776894648058
 20
59.74929592526109
 30
0.0
 10
218.0885568276543
 20
59.97120992263442
 30
0.0
 10
217.6713087222824
 20
60.37115395466279
 30
0.0
 10
217.4394987888235
 20
60.55206056091848
 30
0.0
 10
216.9460383626568
 20
60.86302618086955
 30
0.0
 10
216.6857076611323
 20
60.99319207906706
 30
0.0
 10
216.1373453737496
 20
61.20497609072435
 30
0.0
 10
215.8474425354279
 20
61.28630448607918
 30
0.0
 10
215.2646416257941
 20
61.39318773320205
 30
0.0
 10
214.9688429461771
 20
61.42025987726744
 30
0.0
 10
214.3681138181581
 20
61.42048009365653
 30
0.0
 10
214.0688810111759
 20
61.39322868624116
 30
0.0
 10
213.4864570783125
 20
61.28639216503985
 30
0.0
 10
213.1983336276345
 20
61.205784352664
 30
0.0
 10
212.6473506261191
 20
60.99327983909353
 30
0.0
 10
212.3868576319655
 20
60.86291553636258
 30
0.0
 10
211.8947866134588
 20
60.5528187931168
 30
0.0
 10
211.662193579471
 20
60.37132722114914
 30
0.0
 10
211.2448794348241
 20
59.97130937572484
 30
0.0
 10
211.0574149217541
 20
59.75159397394749
 30
0.0
 10
210.7256437436783
 20
59.26949056463274
 30
0.0
 10
210.5843811817088
 20
59.01061252388636
 30
0.0
 10
210.3570718334977
 20
58.47141322125217
 30
0.0
 10
210.2691114591386
 20
58.18681239178636
 30
0.0
 10
210.1509289137133
 20
57.59956975177131
 30
0.0
 10
210.1212121212173
 20
57.30187020727789
 30
0.0
 10
210.1212121212121
 20
57.0
 30
0.0
  0
SPLINE
  5
100
330
1F
100
AcDbEntity
  8
0
  6
Continuous
 62
     7
370
    25
100
AcDbSpline
210
0.0
220
0.0
230
1.0
 70
     8
 71
     3
 72
    29
 73
    25
 74
     0
 42
0.00000001
 43
0.00000001
 40
0.0
 40
0.0
 40
0.0
 40
0.0
 40
0.0152311737605326
 40
0.0306247199395592
 40
0.0461857345906938
 40
0.0619191510013068
 40
0.0917099334141485
 40
0.1235692622235322
 40
0.1855543161945129
 40
0.2165752782148321
 40
0.2475421307610599
 40
0.309764324909388
 40
0.3727895947976448
 40
0.4999753960658451
 40
0.6271614342339922
 40
0.690184944679069
 40
0.752405572908556
 40
0.7833742781919665
 40
0.8144017616874312
 40
0.8764124281957932
 40
0.9083028925586244
 40
0.9381746698345882
 40
0.969486381438624
 40
1.0
 40
1.0
 40
1.0
 40
1.0
 10
211.6363636363637
 20
57.0
 30
0.0
 10
211.6370378783342
 20
56.95145651741279
 30
0.0
 10
211.6383935500536
 20
56.85385205287859
 30
0.0
 10
211.6494344495149
 20
56.70704598180948
 30
0.0
 10
211.6672969958977
 20
56.55943814854123
 30
0.0
 10
211.7002958264239
 20
56.36790802858747
 30
0.0
 10
211.7592936981519
 20
56.12899705881921
 30
0.0
 10
211.8895732569141
 20
55.75938683514062
 30
0.0
 10
212.0747826159834
 20
55.4088319460888
 30
0.0
 10
212.3050801003863
 20
55.09366967956606
 30
0.0
 10
212.5649969604377
 20
54.80161225128778
 30
0.0
 10
212.9441797439662
 20
54.48340954259422
 30
0.0
 10
213.6465075980081
 20
54.0966082595077
 30
0.0
 10
214.6663179802858
 20
53.88491291864558
 30
0.0
 10
215.6861756807489
 20
54.09637989354128
 30
0.0
 10
216.3885848911904
 20
54.48302157142903
 30
0.0
 10
216.7678390260251
 20
54.80113616807114
 30
0.0
 10
217.0278341089557
 20
55.09315024704892
 30
0.0
 10
217.2582720021135
 20
55.40835079375638
 30
0.0
 10
217.4435728742444
 20
55.75904525791273
 30
0.0
 10
217.5741681857598
 20
56.12907915416813
 30
0.0
 10
217.6446910470742
 20
56.41639949500865
 30
0.0
 10
217.6887613009789
 20
56.70561138552804
 30
0.0
 10
217.6942572135841
 20
56.90271860342067
 30
0.0
 10
217.6969696969697
 20
57.0
 30
0.0
  0
SPLINE
  5
101
330
1F
100
AcDbEntity
  8
0
  6
Continuous
 62
     7
370
    25
100
AcDbSpline
210
0.0
220
0.0
230
1.0
 70
     8
 71
     3
 72
    30
 73
    26
 74
     0
 42
0.00000001
 43
0.00000001
 40
0.0
 40
0.0
 40
0.0
 40
0.0
 40
0.0625000000000001
 40
0.0625000000000001
 40
0.1250000000000002
 40
0.1250000000000002
 40
0.1875000000000004
 40
0.1875000000000004
 40
0.2500000000000005
 40
0.2500000000000005
 40
0.3750000000000004
 40
0.3750000000000004
 40
0.5000000000000003
 40
0.5000000000000003
 40
0.6250000000000002
 40
0.6250000000000002
 40
0.7500000000000001
 40
0.7500000000000001
 40
0.8125000000000002
 40
0.8125000000000002
 40
0.8750000000000002
 40
0.8750000000000002
 40
0.9375000000000001
 40
0.9375000000000001
 40
1.0
 40
1.0
 40
1.0
 40
1.0
 10
210.1212121212106
 20
57.0
 30
0.0
 10
210.1212121212116
 20
56.64257558613178
 30
0.0
 10
210.1635937414492
 20
56.29248683859129
 30
0.0
 10
210.3202713971784
 20
55.62925527871676
 30
0.0
 10
210.4343879175353
 20
55.31620507799776
 30
0.0
 10
210.716990755506
 20
54.74152974496941
 30
0.0
 10
210.8855295473297
 20
54.47980892315076
 30
0.0
 10
211.2574651402912
 20
54.01396035471389
 30
0.0
 10
211.4590061828152
 20
53.81089935016604
 30
0.0
 10
212.10295072275
 20
53.27354760729994
 30
0.0
 10
212.583260788977
 20
53.01319403912741
 30
0.0
 10
213.5969374287343
 20
52.66603931966576
 30
0.0
 10
214.1307908758466
 20
52.57967723401516
 30
0.0
 10
215.2016580977607
 20
52.57958216949947
 30
0.0
 10
215.7355352110708
 20
52.6658534890718
 30
0.0
 10
216.7492385225287
 20
53.01279916731601
 30
0.0
 10
217.2295553049111
 20
53.2730211780034
 30
0.0
 10
217.8735997118299
 20
53.8102085159147
 30
0.0
 10
218.0752108877938
 20
54.0131985217145
 30
0.0
 10
218.4473398192935
 20
54.47908952657045
 30
0.0
 10
218.6160018215222
 20
54.74092363362437
 30
0.0
 10
218.8990233167543
 20
55.31650076963729
 30
0.0
 10
219.0132846720708
 20
55.63045501859672
 30
0.0
 10
219.169784659833
 20
56.29450091249107
 30
0.0
 10
219.2121212143869
 20
56.64394019503937
 30
0.0
 10
219.2121212121212
 20
57.0
 30
0.0
  0
LINE
  5
102
330
1F
100
AcDbEntity
  8
0
  6
Continuous
 62
     7
370
    25
100
AcDbLine
 10
238.1515151515
 20
57.0
 30
0.0
 11
238.1515151515
 21
66.3939393939
 31
0.0
  0
LINE
  5
103
330
1F
100
AcDbEntity
  8
0
  6
Continuous
 62
     7
370
    25
100
AcDbLine
 10
238.1515151515
 20
47.6060606061
 30
0.0
 11
238.1515151515
 21
57.0
 31
0.0
  0
LINE
  5
104
330
1F
100
AcDbEntity
  8
0
  6
Continuous
 62
     7
370
    25
100
AcDbLine
 10
188.1515151515
 20
57.0
 30
0.0
 11
188.1515151515
 21
66.3939393939
 31
0.0
  0
LINE
  5
105
330
1F
100
AcDbEntity
  8
0
  6
Continuous
 62
     7
370
    25
100
AcDbLine
 10
188.1515151515
 20
47.6060606061
 30
0.0
 11
188.1515151515
 21
57.0
 31
0.0
  0
LINE
  5
106
330
1F
100
AcDbEntity
  8
0
  6
Continuous
 62
     7
370
    25
100
AcDbLine
 10
273.0
 20
57.0
 30
0.0
 11
273.0
 21
66.1666666667
 31
0.0
  0
LINE
  5
107
330
1F
100
AcDbEntity
  8
0
  6
Continuous
 62
     7
370
    25
100
AcDbLine
 10
273.0
 20
47.8333333333
 30
0.0
 11
273.0
 21
57.0
 31
0.0
  0
LINE
  5
108
330
1F
100
AcDbEntity
  8
0
  6
Continuous
 62
     7
370
    25
100
AcDbLine
 10
185.1212121212
 20
57.0
 30
0.0
 11
185.1212121212
 21
66.3939393939
 31
0.0
  0
LINE
  5
109
330
1F
100
AcDbEntity
  8
0
  6
Continuous
 62
     7
370
    25
100
AcDbLine
 10
185.1212121212
 20
47.6060606061
 30
0.0
 11
185.1212121212
 21
57.0
 31
0.0
  0
SPLINE
  5
10A
330
1F
100
AcDbEntity
  8
0
  6
HIDDEN
 62
     7
370
    18
100
AcDbSpline
210
0.0
220
0.0
230
1.0
 70
     8
 71
     3
 72
     9
 73
     5
 74
     0
 42
0.00000001
 43
0.00000001
 40
0.0
 40
0.0
 40
0.0
 40
0.0
 40
0.5029005728374724
 40
1.0
 40
1.0
 40
1.0
 40
1.0
 10
260.5085486144879
 20
60.12538689119072
 30
0.0
 10
260.367197081172
 20
60.06975284825787
 30
0.0
 10
260.0861245571971
 20
59.95912652182728
 30
0.0
 10
259.8350999791514
 20
59.79449389653982
 30
0.0
 10
259.7103158052011
 20
59.71265511281716
 30
0.0
  0
LINE
  5
10B
330
1F
100
AcDbEntity
  8
0
  6
HIDDEN
 62
     7
370
    18
100
AcDbLine
 10
258.3296881458
 20
57.3028353818
 30
0.0
 11
258.3041806235
 21
56.9912213842
 31
0.0
  0
LINE
  5
10C
330
1F
100
AcDbEntity
  8
0
  6
HIDDEN
 62
     7
370
    18
100
AcDbLine
 10
259.7597837629
 20
54.2605424867
 30
0.0
 11
260.5085532146
 21
53.8746147987
 31
0.0
  0
LINE
  5
10D
330
1F
100
AcDbEntity
  8
0
  6
HIDDEN
 62
     7
370
    18
100
AcDbLine
 10
210.2399248878
 20
58.0271997667
 30
0.0
 11
210.1215478266
 21
56.9971103385
 31
0.0
  0
SPLINE
  5
10E
330
1F
100
AcDbEntity
  8
0
  6
HIDDEN
 62
     7
370
    18
100
AcDbSpline
210
0.0
220
0.0
230
1.0
 70
     8
 71
     3
 72
    11
 73
     7
 74
     0
 42
0.00000001
 43
0.00000001
 40
0.0
 40
0.0
 40
0.0
 40
0.0
 40
0.0001209784975707
 40
0.3164036137555497
 40
0.6505399206791868
 40
1.0
 40
1.0
 40
1.0
 40
1.0
 10
218.2615653304634
 20
54.24660131896532
 30
0.0
 10
218.2616474384127
 20
54.24668518805856
 30
0.0
 10
218.4763901604694
 20
54.46603395433304
 30
0.0
 10
218.7825780035072
 20
55.03744862139177
 30
0.0
 10
219.1458770952553
 20
55.96218216907186
 30
0.0
 10
219.1897122973257
 20
56.64892925642912
 30
0.0
 10
219.2121212121485
 20
57.0
 30
0.0
  0
ARC
  5
10F
330
1F
100
AcDbEntity
  8
0
  6
HIDDEN
 62
     7
370
    18
100
AcDbCircle
 10
214.6666666667
 20
57.0
 30
0.0
 40
3.030303030303038
100
AcDbArc
 50
88.5012725501
 51
90.0
  0
ARC
  5
110
330
1F
100
AcDbEntity
  8
0
  6
HIDDEN
 62
     7
370
    18
100
AcDbCircle
 10
214.6666666667
 20
57.0
 30
0.0
 40
3.030303030302824
100
AcDbArc
 50
354.9778223239
 51
7.6609890856
  0
ARC
  5
111
330
1F
100
AcDbEntity
  8
0
  6
HIDDEN
 62
     7
370
    18
100
AcDbCircle
 10
214.6666666667
 20
57.0
 30
0.0
 40
3.030303030303031
100
AcDbArc
 50
270.0
 51
273.7268904111
  0
LINE
  5
112
330
1F
100
AcDbEntity
  8
0
  6
HIDDEN
 62
     7
370
    18
100
AcDbLine
 10
219.9696969697
 20
57.0
 30
0.0
 11
219.9696969697
 21
60.0303030303
 31
0.0
  0
LINE
  5
113
330
1F
100
AcDbEntity
  8
0
  6
HIDDEN
 62
     7
370
    18
100
AcDbLine
 10
219.9696969697
 20
53.9696969697
 30
0.0
 11
219.9696969697
 21
57.0
 31
0.0
  0
ARC
  5
114
330
1F
100
AcDbEntity
  8
0
  6
HIDDEN
 62
     7
370
    18
100
AcDbCircle
 10
214.6666666667
 20
57.0
 30
0.0
 40
3.030303030303038
100
AcDbArc
 50
90.0
 51
103.821475719
  0
ARC
  5
115
330
1F
100
AcDbEntity
  8
0
  6
HIDDEN
 62
     7
370
    18
100
AcDbCircle
 10
214.6666666667
 20
57.0
 30
0.0
 40
3.03030303030285
100
AcDbArc
 50
171.4789168239
 51
186.8717291529
  0
LINE
  5
116
330
1F
100
AcDbEntity
  8
0
  6
HIDDEN
 62
     7
370
    18
100
AcDbLine
 10
214.6666666667
 20
53.9696969697
 30
0.0
 11
219.9696969697
 21
53.9696969697
 31
0.0
  0
LINE
  5
117
330
1F
100
AcDbEntity
  8
0
  6
HIDDEN
 62
     7
370
    18
100
AcDbLine
 10
219.9696969697
 20
60.0303030303
 30
0.0
 11
214.6666666667
 21
60.0303030303
 31
0.0
  0
LINE
  5
118
330
1F
100
AcDbEntity
  8
0
  6
HIDDEN
 62
     7
370
    18
100
AcDbLine
 10
173.0
 20
53.9696969697
 30
0.0
 11
214.6666666667
 21
53.9696969697
 31
0.0
  0
LINE
  5
119
330
1F
100
AcDbEntity
  8
0
  6
HIDDEN
 62
     7
370
    18
100
AcDbLine
 10
214.6666666667
 20
60.0303030303
 30
0.0
 11
173.0
 21
60.0303030303
 31
0.0
  0
ENDSEC
  0
SECTION
  2
OBJECTS
  0
DICTIONARY
  5
C
330
0
100
AcDbDictionary
281
     1
  3
ACAD_GROUP
350
D
  3
ACAD_LAYOUT
350
1A
  3
ACAD_MLINESTYLE
350
17
  3
ACAD_PLOTSETTINGS
350
19
  3
ACAD_PLOTSTYLENAME
350
E
  3
ACAD_SCALELIST
350
47
  3
DWGPROPS
350
11A
  0
DICTIONARY
  5
D
102
{ACAD_REACTORS
330
C
102
}
330
C
100
AcDbDictionary
281
     1
  0
DICTIONARY
  5
1A
102
{ACAD_REACTORS
330
C
102
}
330
C
100
AcDbDictionary
281
     1
  3
Layout1
350
1E
  3
Layout2
350
26
  3
Model
350
22
  0
DICTIONARY
  5
17
102
{ACAD_REACTORS
330
C
102
}
330
C
100
AcDbDictionary
281
     1
  3
Standard
350
18
  0
DICTIONARY
  5
19
102
{ACAD_REACTORS
330
C
102
}
330
C
100
AcDbDictionary
281
     1
  0
ACDBDICTIONARYWDFLT
  5
E
102
{ACAD_REACTORS
330
C
102
}
330
C
100
AcDbDictionary
281
     1
  3
Normal
350
F
100
AcDbDictionaryWithDefault
340
F
  0
DICTIONARY
  5
47
102
{ACAD_REACTORS
330
C
102
}
330
C
100
AcDbDictionary
281
     1
  3
A0
350
48
  3
A1
350
49
  3
A2
350
4A
  3
A3
350
4B
  3
A4
350
4C
  3
A5
350
4D
  3
A6
350
4E
  3
A7
350
4F
  3
A8
350
50
  3
A9
350
51
  3
B0
350
52
  3
B1
350
53
  3
B2
350
54
  3
B3
350
55
  3
B4
350
56
  3
B5
350
57
  3
B6
350
58
  0
XRECORD
  5
11A
102
{ACAD_REACTORS
330
C
102
}
330
C
100
AcDbXrecord
280
     1
  1
DWGPROPS COOKIE
  2

  3

  4

  6

  7

  8

  9

300
=
301
=
302
=
303
=
304
=
305
=
306
=
307
=
308
=
309
=
 40
0.0
 41
2461213.788844653
 42
2461213.788845023
  1

 90
        0
  0
LAYOUT
  5
1E
102
{ACAD_REACTORS
330
1A
102
}
330
1A
100
AcDbPlotSettings
  1

  2
none_device
  4

  6

 40
0.0
 41
0.0
 42
0.0
 43
0.0
 44
0.0
 45
0.0
 46
0.0
 47
0.0
 48
0.0
 49
0.0
140
0.0
141
0.0
142
1.0
143
1.0
 70
   688
 72
     1
 73
     0
 74
     5
  7

 75
    16
147
1.0
148
0.0
149
0.0
100
AcDbLayout
  1
Layout1
 70
     1
 71
     1
 10
0.0
 20
0.0
 11
420.0
 21
297.0
 12
0.0
 22
0.0
 32
0.0
 14
1.0000000000E+20
 24
1.0000000000E+20
 34
1.0000000000E+20
 15
-1.0000000000E+20
 25
-1.0000000000E+20
 35
-1.0000000000E+20
146
0.0
 13
0.0
 23
0.0
 33
0.0
 16
1.0
 26
0.0
 36
0.0
 17
0.0
 27
1.0
 37
0.0
 76
     0
330
1B
  0
LAYOUT
  5
26
102
{ACAD_REACTORS
330
1A
102
}
330
1A
100
AcDbPlotSettings
  1

  2
none_device
  4

  6

 40
0.0
 41
0.0
 42
0.0
 43
0.0
 44
0.0
 45
0.0
 46
0.0
 47
0.0
 48
0.0
 49
0.0
140
0.0
141
0.0
142
1.0
143
1.0
 70
   688
 72
     1
 73
     0
 74
     5
  7

 75
    16
147
1.0
148
0.0
149
0.0
100
AcDbLayout
  1
Layout2
 70
     1
 71
     2
 10
0.0
 20
0.0
 11
0.0
 21
0.0
 12
0.0
 22
0.0
 32
0.0
 14
0.0
 24
0.0
 34
0.0
 15
0.0
 25
0.0
 35
0.0
146
0.0
 13
0.0
 23
0.0
 33
0.0
 16
1.0
 26
0.0
 36
0.0
 17
0.0
 27
1.0
 37
0.0
 76
     0
330
23
  0
LAYOUT
  5
22
102
{ACAD_REACTORS
330
1A
102
}
330
1A
100
AcDbPlotSettings
  1

  2
none_device
  4
Letter_(8.50_x_11.00_Inches)
  6

 40
6.35
 41
6.35
 42
6.35000508
 43
6.35000508
 44
215.9
 45
279.4
 46
0.0
 47
0.0
 48
0.0
 49
0.0
140
0.0
141
0.0
142
1.0
143
1.0
 70
  1712
 72
     1
 73
     0
 74
     0
  7

 75
     0
147
1.0
148
0.0
149
0.0
100
AcDbLayout
  1
Model
 70
     1
 71
     0
 10
0.0
 20
0.0
 11
297.0
 21
210.0
 12
0.0
 22
0.0
 32
0.0
 14
0.0
 24
0.0
 34
0.0
 15
297.0
 25
210.0
 35
0.0
146
0.0
 13
0.0
 23
0.0
 33
0.0
 16
1.0
 26
0.0
 36
0.0
 17
0.0
 27
1.0
 37
0.0
 76
     0
330
1F
331
29
  0
MLINESTYLE
  5
18
102
{ACAD_REACTORS
330
17
102
}
330
17
100
AcDbMlineStyle
  2
Standard
 70
     0
  3

 62
   256
 51
90.0
 52
90.0
 71
     2
 49
0.5
 62
   256
  6
BYLAYER
 49
-0.5
 62
   256
  6
BYLAYER
  0
ACDBPLACEHOLDER
  5
F
102
{ACAD_REACTORS
330
E
102
}
330
E
  0
SCALE
  5
48
102
{ACAD_REACTORS
330
47
102
}
330
47
100
AcDbScale
 70
     0
300
1:1
140
1.0
141
1.0
290
     1
  0
SCALE
  5
49
102
{ACAD_REACTORS
330
47
102
}
330
47
100
AcDbScale
 70
     0
300
1:2
140
1.0
141
2.0
290
     0
  0
SCALE
  5
4A
102
{ACAD_REACTORS
330
47
102
}
330
47
100
AcDbScale
 70
     0
300
1:4
140
1.0
141
4.0
290
     0
  0
SCALE
  5
4B
102
{ACAD_REACTORS
330
47
102
}
330
47
100
AcDbScale
 70
     0
300
1:5
140
1.0
141
5.0
290
     0
  0
SCALE
  5
4C
102
{ACAD_REACTORS
330
47
102
}
330
47
100
AcDbScale
 70
     0
300
1:8
140
1.0
141
8.0
290
     0
  0
SCALE
  5
4D
102
{ACAD_REACTORS
330
47
102
}
330
47
100
AcDbScale
 70
     0
300
1:10
140
1.0
141
10.0
290
     0
  0
SCALE
  5
4E
102
{ACAD_REACTORS
330
47
102
}
330
47
100
AcDbScale
 70
     0
300
1:16
140
1.0
141
16.0
290
     0
  0
SCALE
  5
4F
102
{ACAD_REACTORS
330
47
102
}
330
47
100
AcDbScale
 70
     0
300
1:20
140
1.0
141
20.0
290
     0
  0
SCALE
  5
50
102
{ACAD_REACTORS
330
47
102
}
330
47
100
AcDbScale
 70
     0
300
1:30
140
1.0
141
30.0
290
     0
  0
SCALE
  5
51
102
{ACAD_REACTORS
330
47
102
}
330
47
100
AcDbScale
 70
     0
300
1:40
140
1.0
141
40.0
290
     0
  0
SCALE
  5
52
102
{ACAD_REACTORS
330
47
102
}
330
47
100
AcDbScale
 70
     0
300
1:50
140
1.0
141
50.0
290
     0
  0
SCALE
  5
53
102
{ACAD_REACTORS
330
47
102
}
330
47
100
AcDbScale
 70
     0
300
1:100
140
1.0
141
100.0
290
     0
  0
SCALE
  5
54
102
{ACAD_REACTORS
330
47
102
}
330
47
100
AcDbScale
 70
     0
300
2:1
140
2.0
141
1.0
290
     0
  0
SCALE
  5
55
102
{ACAD_REACTORS
330
47
102
}
330
47
100
AcDbScale
 70
     0
300
4:1
140
4.0
141
1.0
290
     0
  0
SCALE
  5
56
102
{ACAD_REACTORS
330
47
102
}
330
47
100
AcDbScale
 70
     0
300
8:1
140
8.0
141
1.0
290
     0
  0
SCALE
  5
57
102
{ACAD_REACTORS
330
47
102
}
330
47
100
AcDbScale
 70
     0
300
10:1
140
10.0
141
1.0
290
     0
  0
SCALE
  5
58
102
{ACAD_REACTORS
330
47
102
}
330
47
100
AcDbScale
 70
     0
300
100:1
140
100.0
141
1.0
290
     0
  0
ENDSEC
  0
EOF
