ISO-10303-21;
HEADER;
FILE_DESCRIPTION (( 'STEP AP203' ),
    '1' );
FILE_NAME ('006466.step',
    '2026-06-29T04:21:22',
    ( '' ),
    ( '' ),
    'SwSTEP 2.0',
    'SolidWorks 2025',
    '' );
FILE_SCHEMA (( 'CONFIG_CONTROL_DESIGN' ));
ENDSEC;

DATA;
#1 = CARTESIAN_POINT ( 'NONE',  ( -0.5255999999999999561, 0.000000000000000000, -0.1200000017881393266 ) ) ;
#2 = DIRECTION ( 'NONE',  ( 0.000000000000000000, 0.000000000000000000, -1.000000000000000000 ) ) ;
#3 = ORIENTED_EDGE ( 'NONE', *, *, #921, .T. ) ;
#4 = EDGE_CURVE ( 'NONE', #823, #113, #118, .T. ) ;
#5 = DIRECTION ( 'NONE',  ( 0.000000000000000000, 0.000000000000000000, -1.000000000000000000 ) ) ;
#6 = VECTOR ( 'NONE', #515, 1000.000000000000000 ) ;
#7 = CIRCLE ( 'NONE', #24, 0.07440000000000003555 ) ;
#8 = EDGE_CURVE ( 'NONE', #749, #213, #306, .T. ) ;
#9 = CARTESIAN_POINT ( 'NONE',  ( 0.000000000000000000, 0.000000000000000000, -0.07199999821186053861 ) ) ;
#10 = CC_DESIGN_SECURITY_CLASSIFICATION ( #77, ( #872 ) ) ;
#11 = ORIENTED_EDGE ( 'NONE', *, *, #289, .T. ) ;
#12 = EDGE_CURVE ( 'NONE', #333, #591, #690, .T. ) ;
#13 = DESIGN_CONTEXT ( 'detailed design', #762, 'design' ) ;
#14 = DIRECTION ( 'NONE',  ( 0.000000000000000000, 0.000000000000000000, -1.000000000000000000 ) ) ;
#15 = ORIENTED_EDGE ( 'NONE', *, *, #176, .T. ) ;
#16 = EDGE_CURVE ( 'NONE', #689, #656, #379, .T. ) ;
#17 = CARTESIAN_POINT ( 'NONE',  ( 0.000000000000000000, 0.000000000000000000, -0.08011880621651878975 ) ) ;
#18 = ORIENTED_EDGE ( 'NONE', *, *, #222, .T. ) ;
#19 = DIRECTION ( 'NONE',  ( 1.000000000000000000, 1.224646799147349263E-16, 0.000000000000000000 ) ) ;
#20 = CARTESIAN_POINT ( 'NONE',  ( 0.03719999999999996920, 0.07440000000000003555, -0.1200000017881393266 ) ) ;
#21 = CARTESIAN_POINT ( 'NONE',  ( 0.07440000000000003555, 0.5255999999999999561, -0.07199999821186053861 ) ) ;
#22 = AXIS2_PLACEMENT_3D ( 'NONE', #563, #188, #756 ) ;
#23 = CIRCLE ( 'NONE', #692, 0.9000000000000000222 ) ;
#24 = AXIS2_PLACEMENT_3D ( 'NONE', #913, #492, #148 ) ;
#25 = EDGE_CURVE ( 'NONE', #783, #262, #874, .T. ) ;
#26 = CARTESIAN_POINT ( 'NONE',  ( -0.5255999999999999561, 0.07440000000000003555, -0.07199999821186053861 ) ) ;
#27 = ORIENTED_EDGE ( 'NONE', *, *, #803, .T. ) ;
#28 = DIRECTION ( 'NONE',  ( 0.000000000000000000, 0.000000000000000000, 1.000000000000000000 ) ) ;
#29 = CARTESIAN_POINT ( 'NONE',  ( 0.07440000000000003555, 0.07440000000000003555, -0.07199999821186053861 ) ) ;
#30 = DIRECTION ( 'NONE',  ( 1.000000000000000000, 0.000000000000000000, 0.000000000000000000 ) ) ;
#31 = CARTESIAN_POINT ( 'NONE',  ( 0.9675119321776421977, 0.000000000000000000, 4.787836793695988567E-16 ) ) ;
#32 = DIRECTION ( 'NONE',  ( -1.000000000000000000, 0.000000000000000000, 0.000000000000000000 ) ) ;
#33 = PERSON_AND_ORGANIZATION ( #779, #891 ) ;
#34 = EDGE_CURVE ( 'NONE', #559, #333, #530, .T. ) ;
#35 = LINE ( 'NONE', #317, #870 ) ;
#36 = DIRECTION ( 'NONE',  ( 1.000000000000000000, 0.000000000000000000, 0.000000000000000000 ) ) ;
#37 = EDGE_LOOP ( 'NONE', ( #150, #486, #431, #691, #586 ) ) ;
#38 = DIRECTION ( 'NONE',  ( 1.000000000000000000, 0.000000000000000000, 0.000000000000000000 ) ) ;
#39 = ADVANCED_FACE ( 'NONE', ( #447, #811 ), #282, .T. ) ;
#40 = CIRCLE ( 'NONE', #451, 0.8627413060655559907 ) ;
#41 = DIRECTION ( 'NONE',  ( 0.000000000000000000, 0.000000000000000000, 1.000000000000000000 ) ) ;
#42 = AXIS2_PLACEMENT_3D ( 'NONE', #131, #266, #555 ) ;
#43 = ORIENTED_EDGE ( 'NONE', *, *, #679, .T. ) ;
#44 = VERTEX_POINT ( 'NONE', #346 ) ;
#45 = FACE_OUTER_BOUND ( 'NONE', #135, .T. ) ;
#46 = APPROVAL ( #765, '未' ) ;
#47 = APPROVAL_ROLE ( '' ) ;
#48 = DIRECTION ( 'NONE',  ( 0.000000000000000000, 0.000000000000000000, 1.000000000000000000 ) ) ;
#49 = EDGE_CURVE ( 'NONE', #590, #123, #520, .T. ) ;
#50 = VERTEX_POINT ( 'NONE', #499 ) ;
#51 = VERTEX_POINT ( 'NONE', #79 ) ;
#52 = MANIFOLD_SOLID_BREP ( 'NONE', #797 ) ;
#53 = VERTEX_POINT ( 'NONE', #924 ) ;
#54 = EDGE_CURVE ( 'NONE', #359, #388, #635, .T. ) ;
#55 = ORIENTED_EDGE ( 'NONE', *, *, #558, .F. ) ;
#56 = FACE_BOUND ( 'NONE', #541, .T. ) ;
#57 = DIRECTION ( 'NONE',  ( 0.000000000000000000, 0.000000000000000000, -1.000000000000000000 ) ) ;
#58 = FACE_OUTER_BOUND ( 'NONE', #120, .T. ) ;
#59 = VECTOR ( 'NONE', #792, 1000.000000000000000 ) ;
#60 = VECTOR ( 'NONE', #850, 1000.000000000000000 ) ;
#61 = ORIENTED_EDGE ( 'NONE', *, *, #174, .F. ) ;
#62 = AXIS2_PLACEMENT_3D ( 'NONE', #540, #478, #820 ) ;
#63 = CARTESIAN_POINT ( 'NONE',  ( 0.000000000000000000, 0.000000000000000000, 0.1200000017881393266 ) ) ;
#64 = CARTESIAN_POINT ( 'NONE',  ( 0.07440000000000003555, 0.07440000000000003555, -0.1200000017881393266 ) ) ;
#65 = ORIENTED_EDGE ( 'NONE', *, *, #558, .T. ) ;
#66 = DIRECTION ( 'NONE',  ( 0.000000000000000000, 0.000000000000000000, 1.000000000000000000 ) ) ;
#67 = CARTESIAN_POINT ( 'NONE',  ( 0.9675119321776421977, 0.000000000000000000, 4.787836793695988567E-16 ) ) ;
#68 = DATE_AND_TIME ( #599, #782 ) ;
#69 = VERTEX_POINT ( 'NONE', #494 ) ;
#70 = APPROVAL_ROLE ( '' ) ;
#71 = ADVANCED_FACE ( 'NONE', ( #221 ), #470, .F. ) ;
#72 = CARTESIAN_POINT ( 'NONE',  ( 0.5255999999999999561, 0.000000000000000000, -0.1200000017881393266 ) ) ;
#73 = CIRCLE ( 'NONE', #833, 0.1047706261120861099 ) ;
#74 = EDGE_LOOP ( 'NONE', ( #841, #440, #858, #330 ) ) ;
#75 = CIRCLE ( 'NONE', #682, 0.07440000000000007718 ) ;
#76 = AXIS2_PLACEMENT_3D ( 'NONE', #463, #746, #876 ) ;
#77 = SECURITY_CLASSIFICATION ( '', '', #294 ) ;
#78 = EDGE_CURVE ( 'NONE', #50, #319, #73, .T. ) ;
#79 = CARTESIAN_POINT ( 'NONE',  ( -0.9000000000000005773, 1.102182119232618527E-16, -0.08011880621651878975 ) ) ;
#80 = CARTESIAN_POINT ( 'NONE',  ( 0.000000000000000000, 0.000000000000000000, 0.1000594040023295994 ) ) ;
#81 = ORIENTED_EDGE ( 'NONE', *, *, #482, .T. ) ;
#82 = DIRECTION ( 'NONE',  ( 0.000000000000000000, 1.000000000000000000, 0.000000000000000000 ) ) ;
#83 = DIRECTION ( 'NONE',  ( 0.000000000000000000, -1.000000000000000000, 0.000000000000000000 ) ) ;
#84 = CARTESIAN_POINT ( 'NONE',  ( 0.07440000000000003555, -0.07440000000000003555, -0.07199999821186053861 ) ) ;
#85 = EDGE_CURVE ( 'NONE', #749, #375, #147, .T. ) ;
#86 = APPROVAL_DATE_TIME ( #423, #251 ) ;
#87 = DIRECTION ( 'NONE',  ( 0.000000000000000000, 0.000000000000000000, 1.000000000000000000 ) ) ;
#88 = VERTEX_POINT ( 'NONE', #420 ) ;
#89 = EDGE_CURVE ( 'NONE', #213, #749, #900, .T. ) ;
#90 = AXIS2_PLACEMENT_3D ( 'NONE', #553, #149, #549 ) ;
#91 = EDGE_CURVE ( 'NONE', #892, #823, #835, .T. ) ;
#92 = EDGE_LOOP ( 'NONE', ( #460, #248, #160, #793 ) ) ;
#93 = DIRECTION ( 'NONE',  ( 0.000000000000000000, -1.000000000000000000, 0.000000000000000000 ) ) ;
#94 = DIRECTION ( 'NONE',  ( 0.000000000000000000, 0.000000000000000000, 1.000000000000000000 ) ) ;
#95 = EDGE_CURVE ( 'NONE', #689, #414, #911, .T. ) ;
#96 = ORIENTED_EDGE ( 'NONE', *, *, #502, .T. ) ;
#97 = EDGE_CURVE ( 'NONE', #300, #922, #308, .T. ) ;
#98 = DIRECTION ( 'NONE',  ( -0.000000000000000000, 1.000000000000000000, 0.000000000000000000 ) ) ;
#99 = EDGE_CURVE ( 'NONE', #69, #88, #800, .T. ) ;
#100 = CARTESIAN_POINT ( 'NONE',  ( -0.07440000000000003555, 0.07440000000000003555, -0.07199999821186053861 ) ) ;
#101 = DIRECTION ( 'NONE',  ( 0.000000000000000000, -1.000000000000000000, 0.000000000000000000 ) ) ;
#102 = CARTESIAN_POINT ( 'NONE',  ( -0.2627999999999999781, 0.07440000000000003555, -0.07199999821186053861 ) ) ;
#103 = AXIS2_PLACEMENT_3D ( 'NONE', #698, #784, #638 ) ;
#104 = CIRCLE ( 'NONE', #454, 0.07440000000000002167 ) ;
#105 =( GEOMETRIC_REPRESENTATION_CONTEXT ( 3 ) GLOBAL_UNCERTAINTY_ASSIGNED_CONTEXT ( ( #367 ) ) GLOBAL_UNIT_ASSIGNED_CONTEXT ( ( #583, #825, #697 ) ) REPRESENTATION_CONTEXT ( 'NONE', 'WORKASPACE' ) );
#106 = DIRECTION ( 'NONE',  ( -1.000000000000000000, 0.000000000000000000, 0.000000000000000000 ) ) ;
#107 = DIRECTION ( 'NONE',  ( 0.000000000000000000, 0.000000000000000000, 1.000000000000000000 ) ) ;
#108 = CARTESIAN_POINT ( 'NONE',  ( 0.2627999999999999781, -0.07440000000000003555, -0.07199999821186053861 ) ) ;
#109 = LINE ( 'NONE', #808, #325 ) ;
#110 = EDGE_LOOP ( 'NONE', ( #364, #402, #444, #579 ) ) ;
#111 = DATE_TIME_ROLE ( 'creation_date' ) ;
#112 = DIRECTION ( 'NONE',  ( 0.000000000000000000, 0.000000000000000000, -1.000000000000000000 ) ) ;
#113 = VERTEX_POINT ( 'NONE', #581 ) ;
#114 = EDGE_CURVE ( 'NONE', #53, #311, #430, .T. ) ;
#115 = PLANE ( 'NONE',  #219 ) ;
#116 = CARTESIAN_POINT ( 'NONE',  ( -0.07440000000000003555, -0.5255999999999999561, -0.07199999821186053861 ) ) ;
#117 = DIRECTION ( 'NONE',  ( 1.000000000000000000, 0.000000000000000000, 0.000000000000000000 ) ) ;
#118 = CIRCLE ( 'NONE', #22, 0.9000000000000000222 ) ;
#119 = FACE_OUTER_BOUND ( 'NONE', #110, .T. ) ;
#120 = EDGE_LOOP ( 'NONE', ( #798, #771, #529, #43 ) ) ;
#121 = AXIS2_PLACEMENT_3D ( 'NONE', #518, #164, #712 ) ;
#122 = AXIS2_PLACEMENT_3D ( 'NONE', #824, #468, #467 ) ;
#123 = VERTEX_POINT ( 'NONE', #641 ) ;
#124 = DIRECTION ( 'NONE',  ( 0.000000000000000000, 0.000000000000000000, -1.000000000000000000 ) ) ;
#125 = EDGE_CURVE ( 'NONE', #855, #591, #205, .T. ) ;
#126 = CARTESIAN_POINT ( 'NONE',  ( 0.000000000000000000, 0.000000000000000000, -0.1200000017881393266 ) ) ;
#127 = ORIENTED_EDGE ( 'NONE', *, *, #424, .T. ) ;
#128 = ORIENTED_EDGE ( 'NONE', *, *, #557, .T. ) ;
#129 = DIRECTION ( 'NONE',  ( 0.000000000000000000, 0.000000000000000000, 1.000000000000000000 ) ) ;
#130 = AXIS2_PLACEMENT_3D ( 'NONE', #603, #542, #604 ) ;
#131 = CARTESIAN_POINT ( 'NONE',  ( 0.5255999999999999561, 0.000000000000000000, -0.07199999821186053861 ) ) ;
#132 = EDGE_CURVE ( 'NONE', #591, #178, #427, .T. ) ;
#133 = DIRECTION ( 'NONE',  ( 0.000000000000000000, 0.000000000000000000, 1.000000000000000000 ) ) ;
#134 = DIRECTION ( 'NONE',  ( 0.000000000000000000, 0.000000000000000000, -1.000000000000000000 ) ) ;
#135 = EDGE_LOOP ( 'NONE', ( #711, #543, #556, #304, #55 ) ) ;
#136 = DIRECTION ( 'NONE',  ( 0.000000000000000000, 0.000000000000000000, 1.000000000000000000 ) ) ;
#137 = FACE_OUTER_BOUND ( 'NONE', #506, .T. ) ;
#138 = ORIENTED_EDGE ( 'NONE', *, *, #239, .T. ) ;
#139 = CARTESIAN_POINT ( 'NONE',  ( 0.000000000000000000, 0.000000000000000000, -0.08011880621651878975 ) ) ;
#140 = EDGE_CURVE ( 'NONE', #311, #333, #854, .T. ) ;
#141 = DIRECTION ( 'NONE',  ( 0.000000000000000000, -1.000000000000000000, 0.000000000000000000 ) ) ;
#142 = VECTOR ( 'NONE', #713, 1000.000000000000000 ) ;
#143 = ORIENTED_EDGE ( 'NONE', *, *, #508, .T. ) ;
#144 = AXIS2_PLACEMENT_3D ( 'NONE', #473, #526, #753 ) ;
#145 = AXIS2_PLACEMENT_3D ( 'NONE', #851, #207, #495 ) ;
#146 = PERSON_AND_ORGANIZATION_ROLE ( 'creator' ) ;
#147 = LINE ( 'NONE', #566, #142 ) ;
#148 = DIRECTION ( 'NONE',  ( -1.000000000000000000, 0.000000000000000000, 0.000000000000000000 ) ) ;
#149 = DIRECTION ( 'NONE',  ( 0.000000000000000000, 0.000000000000000000, -1.000000000000000000 ) ) ;
#150 = ORIENTED_EDGE ( 'NONE', *, *, #612, .T. ) ;
#151 = DATE_AND_TIME ( #280, #491 ) ;
#152 = DIRECTION ( 'NONE',  ( 0.000000000000000000, 0.000000000000000000, -1.000000000000000000 ) ) ;
#153 = VERTEX_POINT ( 'NONE', #775 ) ;
#154 = DIRECTION ( 'NONE',  ( 1.000000000000000000, 0.000000000000000000, 0.000000000000000000 ) ) ;
#155 = PERSON_AND_ORGANIZATION ( #779, #891 ) ;
#156 = FACE_OUTER_BOUND ( 'NONE', #661, .T. ) ;
#157 = CARTESIAN_POINT ( 'NONE',  ( 0.000000000000000000, 0.000000000000000000, 0.1200000017881393266 ) ) ;
#158 = ORIENTED_EDGE ( 'NONE', *, *, #710, .F. ) ;
#159 = AXIS2_PLACEMENT_3D ( 'NONE', #9, #231, #666 ) ;
#160 = ORIENTED_EDGE ( 'NONE', *, *, #12, .F. ) ;
#161 = DIRECTION ( 'NONE',  ( 1.000000000000000000, 0.000000000000000000, 0.000000000000000000 ) ) ;
#162 = DIRECTION ( 'NONE',  ( -1.000000000000000000, 0.000000000000000000, 0.000000000000000000 ) ) ;
#163 = CARTESIAN_POINT ( 'NONE',  ( 0.5255999999999999561, 0.000000000000000000, -0.07199999821186053861 ) ) ;
#164 = DIRECTION ( 'NONE',  ( 1.000000000000000000, 0.000000000000000000, 0.000000000000000000 ) ) ;
#165 = APPROVAL_STATUS ( 'not_yet_approved' ) ;
#166 = PLANE ( 'NONE',  #650 ) ;
#167 = CYLINDRICAL_SURFACE ( 'NONE', #838, 0.07440000000000003555 ) ;
#168 = APPROVAL_DATE_TIME ( #634, #46 ) ;
#169 = DIRECTION ( 'NONE',  ( 0.000000000000000000, 0.000000000000000000, -1.000000000000000000 ) ) ;
#170 = VECTOR ( 'NONE', #245, 1000.000000000000000 ) ;
#171 = CIRCLE ( 'NONE', #917, 0.7800000000000002487 ) ;
#172 = VECTOR ( 'NONE', #5, 1000.000000000000000 ) ;
#173 = FACE_OUTER_BOUND ( 'NONE', #186, .T. ) ;
#174 = EDGE_CURVE ( 'NONE', #764, #319, #474, .T. ) ;
#175 = CARTESIAN_POINT ( 'NONE',  ( 0.000000000000000000, -0.9000000000000000222, -0.1000594040023290582 ) ) ;
#176 = EDGE_CURVE ( 'NONE', #44, #413, #778, .T. ) ;
#177 = CARTESIAN_POINT ( 'NONE',  ( 0.000000000000000000, 0.000000000000000000, 0.08011880621651951140 ) ) ;
#178 = VERTEX_POINT ( 'NONE', #857 ) ;
#179 = DIRECTION ( 'NONE',  ( 0.000000000000000000, 0.000000000000000000, -1.000000000000000000 ) ) ;
#180 = ORIENTED_EDGE ( 'NONE', *, *, #763, .T. ) ;
#181 = EDGE_CURVE ( 'NONE', #123, #590, #636, .T. ) ;
#182 = CARTESIAN_POINT ( 'NONE',  ( 0.000000000000000000, 0.000000000000000000, 4.659529781783158196E-16 ) ) ;
#183 = CARTESIAN_POINT ( 'NONE',  ( 0.07440000000000003555, 0.5255999999999999561, -0.1200000017881393266 ) ) ;
#184 = CIRCLE ( 'NONE', #703, 0.07440000000000007718 ) ;
#185 = CARTESIAN_POINT ( 'NONE',  ( 0.5255999999999999561, 0.000000000000000000, -0.1200000017881393266 ) ) ;
#186 = EDGE_LOOP ( 'NONE', ( #410, #897, #915, #404 ) ) ;
#187 = AXIS2_PLACEMENT_3D ( 'NONE', #80, #201, #578 ) ;
#188 = DIRECTION ( 'NONE',  ( 0.000000000000000000, 0.000000000000000000, 1.000000000000000000 ) ) ;
#189 = ORIENTED_EDGE ( 'NONE', *, *, #89, .F. ) ;
#190 = CC_DESIGN_PERSON_AND_ORGANIZATION_ASSIGNMENT ( #923, #432, ( #77 ) ) ;
#191 = LINE ( 'NONE', #693, #453 ) ;
#192 = LINE ( 'NONE', #195, #598 ) ;
#193 = ORIENTED_EDGE ( 'NONE', *, *, #516, .F. ) ;
#194 = ORIENTED_EDGE ( 'NONE', *, *, #289, .F. ) ;
#195 = CARTESIAN_POINT ( 'NONE',  ( -0.07440000000000003555, 0.03719999999999996920, -0.07199999821186053861 ) ) ;
#196 = ORIENTED_EDGE ( 'NONE', *, *, #373, .T. ) ;
#197 = ORIENTED_EDGE ( 'NONE', *, *, #290, .T. ) ;
#198 = FACE_OUTER_BOUND ( 'NONE', #904, .T. ) ;
#199 = DIRECTION ( 'NONE',  ( 1.000000000000000000, 0.000000000000000000, 0.000000000000000000 ) ) ;
#200 = EDGE_CURVE ( 'NONE', #559, #153, #731, .T. ) ;
#201 = DIRECTION ( 'NONE',  ( 0.000000000000000000, 0.000000000000000000, 1.000000000000000000 ) ) ;
#202 = VECTOR ( 'NONE', #349, 1000.000000000000000 ) ;
#203 = TOROIDAL_SURFACE ( 'NONE', #295, 0.9675119321776421977, 0.1047706261120861099 ) ;
#204 = AXIS2_PLACEMENT_3D ( 'NONE', #519, #94, #743 ) ;
#205 = LINE ( 'NONE', #700, #202 ) ;
#206 = CARTESIAN_POINT ( 'NONE',  ( -0.9675119321776421977, 1.184860390878220670E-16, 4.787836793695988567E-16 ) ) ;
#207 = DIRECTION ( 'NONE',  ( 0.000000000000000000, 0.000000000000000000, 1.000000000000000000 ) ) ;
#208 = CC_DESIGN_PERSON_AND_ORGANIZATION_ASSIGNMENT ( #299, #374, ( #716 ) ) ;
#209 = ORIENTED_EDGE ( 'NONE', *, *, #97, .F. ) ;
#210 = APPROVAL_STATUS ( 'not_yet_approved' ) ;
#211 = EDGE_CURVE ( 'NONE', #178, #414, #527, .T. ) ;
#212 = CARTESIAN_POINT ( 'NONE',  ( -0.2627999999999999781, 0.07440000000000003555, -0.1200000017881393266 ) ) ;
#213 = VERTEX_POINT ( 'NONE', #372 ) ;
#214 = CARTESIAN_POINT ( 'NONE',  ( -0.07440000000000003555, -0.5255999999999999561, -0.07199999821186053861 ) ) ;
#215 = DIRECTION ( 'NONE',  ( 1.000000000000000000, 0.000000000000000000, 0.000000000000000000 ) ) ;
#216 = DIRECTION ( 'NONE',  ( -1.000000000000000000, 0.000000000000000000, 0.000000000000000000 ) ) ;
#217 = ORIENTED_EDGE ( 'NONE', *, *, #140, .F. ) ;
#218 = VECTOR ( 'NONE', #457, 1000.000000000000000 ) ;
#219 = AXIS2_PLACEMENT_3D ( 'NONE', #662, #812, #38 ) ;
#220 = AXIS2_PLACEMENT_3D ( 'NONE', #878, #676, #250 ) ;
#221 = FACE_OUTER_BOUND ( 'NONE', #456, .T. ) ;
#222 = EDGE_CURVE ( 'NONE', #551, #892, #23, .T. ) ;
#223 = CARTESIAN_POINT ( 'NONE',  ( -0.07440000000000003555, 0.07440000000000003555, -0.1200000017881393266 ) ) ;
#224 = ORIENTED_EDGE ( 'NONE', *, *, #89, .T. ) ;
#225 = DIRECTION ( 'NONE',  ( 0.000000000000000000, 0.000000000000000000, -1.000000000000000000 ) ) ;
#226 = CARTESIAN_POINT ( 'NONE',  ( 0.03719999999999996920, 0.07440000000000003555, -0.07199999821186053861 ) ) ;
#227 = ORIENTED_EDGE ( 'NONE', *, *, #176, .F. ) ;
#228 = CALENDAR_DATE ( 2026, 29, 6 ) ;
#229 = DIRECTION ( 'NONE',  ( 0.000000000000000000, 0.000000000000000000, -1.000000000000000000 ) ) ;
#230 = FACE_OUTER_BOUND ( 'NONE', #611, .T. ) ;
#231 = DIRECTION ( 'NONE',  ( 0.000000000000000000, 0.000000000000000000, -1.000000000000000000 ) ) ;
#232 = ADVANCED_FACE ( 'NONE', ( #738 ), #809, .F. ) ;
#233 = CARTESIAN_POINT ( 'NONE',  ( 0.9000000000000005773, 0.000000000000000000, -0.08011880621651878975 ) ) ;
#234 = FACE_OUTER_BOUND ( 'NONE', #821, .T. ) ;
#235 = TOROIDAL_SURFACE ( 'NONE', #719, 0.9675119321776421977, 0.1047706261120861099 ) ;
#236 = VECTOR ( 'NONE', #588, 1000.000000000000000 ) ;
#237 = AXIS2_PLACEMENT_3D ( 'NONE', #438, #580, #377 ) ;
#238 = DIRECTION ( 'NONE',  ( 0.000000000000000000, 0.000000000000000000, -1.000000000000000000 ) ) ;
#239 = EDGE_CURVE ( 'NONE', #760, #689, #191, .T. ) ;
#240 = CARTESIAN_POINT ( 'NONE',  ( -0.07440000000000003555, -0.5255999999999999561, -0.07199999821186053861 ) ) ;
#241 = DIRECTION ( 'NONE',  ( -1.000000000000000000, 0.000000000000000000, 0.000000000000000000 ) ) ;
#242 = APPROVAL_ROLE ( '' ) ;
#243 = ORIENTED_EDGE ( 'NONE', *, *, #926, .F. ) ;
#244 = CYLINDRICAL_SURFACE ( 'NONE', #187, 0.9000000000000000222 ) ;
#245 = DIRECTION ( 'NONE',  ( 1.000000000000000000, 0.000000000000000000, 0.000000000000000000 ) ) ;
#246 = ADVANCED_FACE ( 'NONE', ( #198 ), #645, .F. ) ;
#247 = CARTESIAN_POINT ( 'NONE',  ( 0.07440000000000003555, 0.5255999999999999561, -0.07199999821186053861 ) ) ;
#248 = ORIENTED_EDGE ( 'NONE', *, *, #125, .T. ) ;
#249 = CARTESIAN_POINT ( 'NONE',  ( 0.6000000000000000888, 9.111372185656288303E-18, -0.07199999821186053861 ) ) ;
#250 = DIRECTION ( 'NONE',  ( 1.000000000000000000, 0.000000000000000000, 0.000000000000000000 ) ) ;
#251 = APPROVAL ( #210, '未' ) ;
#252 = CIRCLE ( 'NONE', #768, 0.9000000000000000222 ) ;
#253 = CIRCLE ( 'NONE', #220, 0.8627413060655559907 ) ;
#254 = DIRECTION ( 'NONE',  ( 0.000000000000000000, -1.000000000000000000, 0.000000000000000000 ) ) ;
#255 = ORIENTED_EDGE ( 'NONE', *, *, #419, .T. ) ;
#256 = LINE ( 'NONE', #403, #848 ) ;
#257 = CARTESIAN_POINT ( 'NONE',  ( 0.9000000000000004663, 0.000000000000000000, 0.08011880621651952528 ) ) ;
#258 = DIRECTION ( 'NONE',  ( -1.000000000000000000, 0.000000000000000000, 0.000000000000000000 ) ) ;
#259 = ORIENTED_EDGE ( 'NONE', *, *, #777, .F. ) ;
#260 = DIRECTION ( 'NONE',  ( 1.000000000000000000, 0.000000000000000000, 0.000000000000000000 ) ) ;
#261 = CARTESIAN_POINT ( 'NONE',  ( 0.5255999999999999561, 0.07440000000000003555, -0.07199999821186053861 ) ) ;
#262 = VERTEX_POINT ( 'NONE', #481 ) ;
#263 = DIRECTION ( 'NONE',  ( 0.000000000000000000, 0.000000000000000000, -1.000000000000000000 ) ) ;
#264 = DATE_AND_TIME ( #321, #721 ) ;
#265 = AXIS2_PLACEMENT_3D ( 'NONE', #17, #726, #303 ) ;
#266 = DIRECTION ( 'NONE',  ( 0.000000000000000000, 0.000000000000000000, -1.000000000000000000 ) ) ;
#267 = ORIENTED_EDGE ( 'NONE', *, *, #320, .F. ) ;
#268 = ORIENTED_EDGE ( 'NONE', *, *, #373, .F. ) ;
#269 = ORIENTED_EDGE ( 'NONE', *, *, #408, .T. ) ;
#270 = ORIENTED_EDGE ( 'NONE', *, *, #612, .F. ) ;
#271 = CARTESIAN_POINT ( 'NONE',  ( 0.000000000000000000, 0.000000000000000000, -0.1200000017881393266 ) ) ;
#272 = DIRECTION ( 'NONE',  ( 1.000000000000000000, 0.000000000000000000, 0.000000000000000000 ) ) ;
#273 = CARTESIAN_POINT ( 'NONE',  ( 0.5255999999999999561, -0.07440000000000003555, -0.07199999821186053861 ) ) ;
#274 = CARTESIAN_POINT ( 'NONE',  ( -0.07440000000000003555, -0.07440000000000003555, -0.07199999821186053861 ) ) ;
#275 = LINE ( 'NONE', #568, #60 ) ;
#276 = AXIS2_PLACEMENT_3D ( 'NONE', #709, #435, #772 ) ;
#277 = VECTOR ( 'NONE', #229, 1000.000000000000000 ) ;
#278 = ORIENTED_EDGE ( 'NONE', *, *, #545, .F. ) ;
#279 = ADVANCED_FACE ( 'NONE', ( #830 ), #696, .F. ) ;
#280 = CALENDAR_DATE ( 2026, 29, 6 ) ;
#281 = AXIS2_PLACEMENT_3D ( 'NONE', #385, #671, #161 ) ;
#282 = PLANE ( 'NONE',  #914 ) ;
#283 = ADVANCED_FACE ( 'NONE', ( #56, #415 ), #487, .T. ) ;
#284 = ORIENTED_EDGE ( 'NONE', *, *, #8, .T. ) ;
#285 = PERSON_AND_ORGANIZATION ( #779, #891 ) ;
#286 = EDGE_CURVE ( 'NONE', #673, #50, #40, .T. ) ;
#287 = DIRECTION ( 'NONE',  ( 1.000000000000000000, 0.000000000000000000, 0.000000000000000000 ) ) ;
#288 = ORIENTED_EDGE ( 'NONE', *, *, #78, .F. ) ;
#289 = EDGE_CURVE ( 'NONE', #153, #311, #345, .T. ) ;
#290 = EDGE_CURVE ( 'NONE', #656, #855, #75, .T. ) ;
#291 = CARTESIAN_POINT ( 'NONE',  ( 0.000000000000000000, 0.000000000000000000, -0.07199999821186053861 ) ) ;
#292 = CIRCLE ( 'NONE', #814, 0.9000000000000000222 ) ;
#293 = EDGE_LOOP ( 'NONE', ( #822, #127, #807, #887 ) ) ;
#294 = SECURITY_CLASSIFICATION_LEVEL ( 'unclassified' ) ;
#295 = AXIS2_PLACEMENT_3D ( 'NONE', #452, #107, #154 ) ;
#296 = LINE ( 'NONE', #20, #236 ) ;
#297 = EDGE_LOOP ( 'NONE', ( #552, #622, #572, #128 ) ) ;
#298 = CARTESIAN_POINT ( 'NONE',  ( 0.6000000000000000888, 9.111372185656283680E-18, -0.07199999821186053861 ) ) ;
#299 = PERSON_AND_ORGANIZATION ( #779, #891 ) ;
#300 = VERTEX_POINT ( 'NONE', #585 ) ;
#301 = APPROVAL_DATE_TIME ( #68, #514 ) ;
#302 = DIRECTION ( 'NONE',  ( 1.000000000000000000, 0.000000000000000000, 0.000000000000000000 ) ) ;
#303 = DIRECTION ( 'NONE',  ( 1.000000000000000000, 0.000000000000000000, 0.000000000000000000 ) ) ;
#304 = ORIENTED_EDGE ( 'NONE', *, *, #516, .T. ) ;
#305 = DIRECTION ( 'NONE',  ( 0.000000000000000000, -1.000000000000000000, 0.000000000000000000 ) ) ;
#306 = CIRCLE ( 'NONE', #732, 0.9000000000000000222 ) ;
#307 = FACE_OUTER_BOUND ( 'NONE', #906, .T. ) ;
#308 = CIRCLE ( 'NONE', #276, 0.7800000000000002487 ) ;
#309 = CARTESIAN_POINT ( 'NONE',  ( 0.000000000000000000, 0.000000000000000000, 0.1200000017881393266 ) ) ;
#310 = CARTESIAN_POINT ( 'NONE',  ( -0.5255999999999999561, 0.000000000000000000, -0.07199999821186053861 ) ) ;
#311 = VERTEX_POINT ( 'NONE', #223 ) ;
#312 = EDGE_CURVE ( 'NONE', #413, #840, #510, .T. ) ;
#313 = LINE ( 'NONE', #108, #816 ) ;
#314 = DIRECTION ( 'NONE',  ( 0.000000000000000000, 0.000000000000000000, 1.000000000000000000 ) ) ;
#315 = CARTESIAN_POINT ( 'NONE',  ( 0.07440000000000003555, -0.4871999999999996889, -0.1200000017881393266 ) ) ;
#316 = DIRECTION ( 'NONE',  ( -1.000000000000000000, 0.000000000000000000, 0.000000000000000000 ) ) ;
#317 = CARTESIAN_POINT ( 'NONE',  ( 0.07440000000000003555, -0.5255999999999999561, -0.07199999821186053861 ) ) ;
#318 = LINE ( 'NONE', #475, #684 ) ;
#319 = VERTEX_POINT ( 'NONE', #233 ) ;
#320 = EDGE_CURVE ( 'NONE', #388, #359, #292, .T. ) ;
#321 = CALENDAR_DATE ( 2026, 29, 6 ) ;
#322 = APPLICATION_CONTEXT ( 'configuration controlled 3d designs of mechanical parts and assemblies' ) ;
#323 = DIRECTION ( 'NONE',  ( 0.000000000000000000, 0.000000000000000000, 1.000000000000000000 ) ) ;
#324 = ORIENTED_EDGE ( 'NONE', *, *, #12, .T. ) ;
#325 = VECTOR ( 'NONE', #391, 1000.000000000000000 ) ;
#326 = LINE ( 'NONE', #889, #610 ) ;
#327 = ORIENTED_EDGE ( 'NONE', *, *, #91, .T. ) ;
#328 = CARTESIAN_POINT ( 'NONE',  ( 0.000000000000000000, -0.9000000000000000222, 0.1200000017881393266 ) ) ;
#329 = CARTESIAN_POINT ( 'NONE',  ( 0.5255999999999999561, 0.07440000000000003555, -0.1200000017881393266 ) ) ;
#330 = ORIENTED_EDGE ( 'NONE', *, *, #95, .T. ) ;
#331 = ORIENTED_EDGE ( 'NONE', *, *, #332, .T. ) ;
#332 = EDGE_CURVE ( 'NONE', #760, #741, #538, .T. ) ;
#333 = VERTEX_POINT ( 'NONE', #744 ) ;
#334 = ORIENTED_EDGE ( 'NONE', *, *, #286, .T. ) ;
#335 = ORIENTED_EDGE ( 'NONE', *, *, #397, .F. ) ;
#336 = AXIS2_PLACEMENT_3D ( 'NONE', #489, #133, #861 ) ;
#337 = AXIS2_PLACEMENT_3D ( 'NONE', #509, #358, #199 ) ;
#338 = AXIS2_PLACEMENT_3D ( 'NONE', #271, #136, #417 ) ;
#339 = AXIS2_PLACEMENT_3D ( 'NONE', #163, #445, #19 ) ;
#340 = LOCAL_TIME ( 12, 21, 22.00000000000000000, #886 ) ;
#341 = ORIENTED_EDGE ( 'NONE', *, *, #921, .F. ) ;
#342 = DIRECTION ( 'NONE',  ( 0.000000000000000000, 1.000000000000000000, 0.000000000000000000 ) ) ;
#343 = EDGE_LOOP ( 'NONE', ( #484, #866, #819, #331 ) ) ;
#344 = CC_DESIGN_PERSON_AND_ORGANIZATION_ASSIGNMENT ( #155, #146, ( #872 ) ) ;
#345 = LINE ( 'NONE', #839, #350 ) ;
#346 = CARTESIAN_POINT ( 'NONE',  ( -0.07440000000000003555, 0.5255999999999999561, -0.07199999821186053861 ) ) ;
#347 = ORIENTED_EDGE ( 'NONE', *, *, #710, .T. ) ;
#348 = ADVANCED_FACE ( 'NONE', ( #45 ), #235, .F. ) ;
#349 = DIRECTION ( 'NONE',  ( 0.000000000000000000, 0.000000000000000000, -1.000000000000000000 ) ) ;
#350 = VECTOR ( 'NONE', #565, 1000.000000000000000 ) ;
#351 = VECTOR ( 'NONE', #670, 1000.000000000000000 ) ;
#352 = ORIENTED_EDGE ( 'NONE', *, *, #642, .T. ) ;
#353 = PERSON_AND_ORGANIZATION ( #779, #891 ) ;
#354 = DIRECTION ( 'NONE',  ( 0.000000000000000000, -1.000000000000000000, 0.000000000000000000 ) ) ;
#355 = ORIENTED_EDGE ( 'NONE', *, *, #648, .T. ) ;
#356 = COORDINATED_UNIVERSAL_TIME_OFFSET ( 8, 0, .AHEAD. ) ;
#357 = CARTESIAN_POINT ( 'NONE',  ( -0.07440000000000003555, 0.5255999999999999561, -0.07199999821186053861 ) ) ;
#358 = DIRECTION ( 'NONE',  ( 0.000000000000000000, 0.000000000000000000, 1.000000000000000000 ) ) ;
#359 = VERTEX_POINT ( 'NONE', #328 ) ;
#360 = EDGE_CURVE ( 'NONE', #551, #673, #411, .T. ) ;
#361 = CARTESIAN_POINT ( 'NONE',  ( -0.07440000000000003555, -0.7127999999999999892, -0.1200000017881393266 ) ) ;
#362 = DIRECTION ( 'NONE',  ( 1.000000000000000000, 0.000000000000000000, 0.000000000000000000 ) ) ;
#363 = AXIS2_PLACEMENT_3D ( 'NONE', #560, #2, #629 ) ;
#364 = ORIENTED_EDGE ( 'NONE', *, *, #701, .F. ) ;
#365 = EDGE_CURVE ( 'NONE', #300, #123, #109, .T. ) ;
#366 = DIRECTION ( 'NONE',  ( 0.000000000000000000, 0.000000000000000000, -1.000000000000000000 ) ) ;
#367 = UNCERTAINTY_MEASURE_WITH_UNIT (LENGTH_MEASURE( 1.000000000000000082E-05 ), #583, 'distance_accuracy_value', 'NONE');
#368 = ORIENTED_EDGE ( 'NONE', *, *, #91, .F. ) ;
#369 = COORDINATED_UNIVERSAL_TIME_OFFSET ( 8, 0, .AHEAD. ) ;
#370 = FACE_OUTER_BOUND ( 'NONE', #407, .T. ) ;
#371 = EDGE_CURVE ( 'NONE', #262, #802, #35, .T. ) ;
#372 = CARTESIAN_POINT ( 'NONE',  ( 0.000000000000000000, -0.9000000000000000222, -0.1200000017881393266 ) ) ;
#373 = EDGE_CURVE ( 'NONE', #376, #898, #766, .T. ) ;
#374 = PERSON_AND_ORGANIZATION_ROLE ( 'design_owner' ) ;
#375 = VERTEX_POINT ( 'NONE', #659 ) ;
#376 = VERTEX_POINT ( 'NONE', #298 ) ;
#377 = DIRECTION ( 'NONE',  ( 0.000000000000000000, -1.000000000000000000, 0.000000000000000000 ) ) ;
#378 = LINE ( 'NONE', #401, #523 ) ;
#379 = LINE ( 'NONE', #465, #718 ) ;
#380 = FACE_OUTER_BOUND ( 'NONE', #480, .T. ) ;
#381 = CARTESIAN_POINT ( 'NONE',  ( 0.000000000000000000, -0.9000000000000000222, -0.08011880621651878975 ) ) ;
#382 = EDGE_CURVE ( 'NONE', #755, #437, #651, .T. ) ;
#383 = PLANE ( 'NONE',  #801 ) ;
#384 = AXIS2_PLACEMENT_3D ( 'NONE', #920, #500, #141 ) ;
#385 = CARTESIAN_POINT ( 'NONE',  ( 0.000000000000000000, 0.000000000000000000, 0.000000000000000000 ) ) ;
#386 = CC_DESIGN_DATE_AND_TIME_ASSIGNMENT ( #151, #497, ( #77 ) ) ;
#387 = CARTESIAN_POINT ( 'NONE',  ( 0.000000000000000000, -0.5255999999999999561, -0.07199999821186053861 ) ) ;
#388 = VERTEX_POINT ( 'NONE', #790 ) ;
#389 = FACE_BOUND ( 'NONE', #757, .T. ) ;
#390 = CARTESIAN_POINT ( 'NONE',  ( 1.102182119232617788E-16, 0.9000000000000000222, -0.1200000017881393266 ) ) ;
#391 = DIRECTION ( 'NONE',  ( 0.000000000000000000, 0.000000000000000000, -1.000000000000000000 ) ) ;
#392 = LINE ( 'NONE', #175, #649 ) ;
#393 = ORIENTED_EDGE ( 'NONE', *, *, #412, .T. ) ;
#394 = DIRECTION ( 'NONE',  ( 0.000000000000000000, 0.000000000000000000, -1.000000000000000000 ) ) ;
#395 = FACE_OUTER_BOUND ( 'NONE', #479, .T. ) ;
#396 = VECTOR ( 'NONE', #238, 1000.000000000000000 ) ;
#397 = EDGE_CURVE ( 'NONE', #319, #375, #847, .T. ) ;
#398 = AXIS2_PLACEMENT_3D ( 'NONE', #72, #849, #216 ) ;
#399 = AXIS2_PLACEMENT_3D ( 'NONE', #206, #773, #817 ) ;
#400 = CC_DESIGN_APPROVAL ( #46, ( #872 ) ) ;
#401 = CARTESIAN_POINT ( 'NONE',  ( 0.7800000000000002487, 9.552245033349358517E-17, 0.1200000017881393266 ) ) ;
#402 = ORIENTED_EDGE ( 'NONE', *, *, #648, .F. ) ;
#403 = CARTESIAN_POINT ( 'NONE',  ( 1.102182119232617788E-16, 0.9000000000000000222, 0.1000594040023295994 ) ) ;
#404 = ORIENTED_EDGE ( 'NONE', *, *, #132, .F. ) ;
#405 = DIRECTION ( 'NONE',  ( 0.000000000000000000, 0.000000000000000000, 1.000000000000000000 ) ) ;
#406 = ORIENTED_EDGE ( 'NONE', *, *, #522, .T. ) ;
#407 = EDGE_LOOP ( 'NONE', ( #640, #881, #880, #776 ) ) ;
#408 = EDGE_CURVE ( 'NONE', #855, #559, #184, .T. ) ;
#409 = ORIENTED_EDGE ( 'NONE', *, *, #174, .T. ) ;
#410 = ORIENTED_EDGE ( 'NONE', *, *, #125, .F. ) ;
#411 = CIRCLE ( 'NONE', #144, 0.1047706261120860266 ) ;
#412 = EDGE_CURVE ( 'NONE', #741, #802, #488, .T. ) ;
#413 = VERTEX_POINT ( 'NONE', #247 ) ;
#414 = VERTEX_POINT ( 'NONE', #459 ) ;
#415 = FACE_OUTER_BOUND ( 'NONE', #575, .T. ) ;
#416 = ADVANCED_FACE ( 'NONE', ( #740 ), #831, .T. ) ;
#417 = DIRECTION ( 'NONE',  ( 1.000000000000000000, 0.000000000000000000, 0.000000000000000000 ) ) ;
#418 = ORIENTED_EDGE ( 'NONE', *, *, #704, .F. ) ;
#419 = EDGE_CURVE ( 'NONE', #213, #764, #392, .T. ) ;
#420 = CARTESIAN_POINT ( 'NONE',  ( 0.6000000000000000888, 9.111372185656283680E-18, -0.1200000017881393266 ) ) ;
#421 = CYLINDRICAL_SURFACE ( 'NONE', #384, 0.9000000000000000222 ) ;
#422 = ORIENTED_EDGE ( 'NONE', *, *, #442, .T. ) ;
#423 = DATE_AND_TIME ( #228, #918 ) ;
#424 = EDGE_CURVE ( 'NONE', #922, #590, #378, .T. ) ;
#425 = DIRECTION ( 'NONE',  ( 0.000000000000000000, 0.000000000000000000, 1.000000000000000000 ) ) ;
#426 = CARTESIAN_POINT ( 'NONE',  ( 0.07440000000000003555, -0.5255999999999999561, -0.1200000017881393266 ) ) ;
#427 = CIRCLE ( 'NONE', #916, 0.07440000000000007718 ) ;
#428 = VECTOR ( 'NONE', #93, 1000.000000000000000 ) ;
#429 = ORIENTED_EDGE ( 'NONE', *, *, #8, .F. ) ;
#430 = LINE ( 'NONE', #644, #582 ) ;
#431 = ORIENTED_EDGE ( 'NONE', *, *, #360, .F. ) ;
#432 = PERSON_AND_ORGANIZATION_ROLE ( 'classification_officer' ) ;
#433 = PLANE ( 'NONE',  #121 ) ;
#434 = LINE ( 'NONE', #357, #172 ) ;
#435 = DIRECTION ( 'NONE',  ( 0.000000000000000000, 0.000000000000000000, -1.000000000000000000 ) ) ;
#436 = EDGE_CURVE ( 'NONE', #88, #462, #104, .T. ) ;
#437 = VERTEX_POINT ( 'NONE', #608 ) ;
#438 = CARTESIAN_POINT ( 'NONE',  ( 0.000000000000000000, 0.000000000000000000, -0.1000594040023290582 ) ) ;
#439 = VECTOR ( 'NONE', #152, 1000.000000000000000 ) ;
#440 = ORIENTED_EDGE ( 'NONE', *, *, #846, .F. ) ;
#441 = VECTOR ( 'NONE', #677, 1000.000000000000000 ) ;
#442 = EDGE_CURVE ( 'NONE', #922, #300, #171, .T. ) ;
#443 = CARTESIAN_POINT ( 'NONE',  ( 0.000000000000000000, 0.000000000000000000, 0.08011880621651951140 ) ) ;
#444 = ORIENTED_EDGE ( 'NONE', *, *, #466, .T. ) ;
#445 = DIRECTION ( 'NONE',  ( 0.000000000000000000, 0.000000000000000000, -1.000000000000000000 ) ) ;
#446 = FACE_OUTER_BOUND ( 'NONE', #74, .T. ) ;
#447 = FACE_BOUND ( 'NONE', #761, .T. ) ;
#448 = DIRECTION ( 'NONE',  ( 0.000000000000000000, 0.000000000000000000, 1.000000000000000000 ) ) ;
#449 = PLANE ( 'NONE',  #62 ) ;
#450 = EDGE_LOOP ( 'NONE', ( #894, #65, #3, #409, #288 ) ) ;
#451 = AXIS2_PLACEMENT_3D ( 'NONE', #182, #66, #910 ) ;
#452 = CARTESIAN_POINT ( 'NONE',  ( 0.000000000000000000, 0.000000000000000000, 4.787836793695988567E-16 ) ) ;
#453 = VECTOR ( 'NONE', #472, 1000.000000000000000 ) ;
#454 = AXIS2_PLACEMENT_3D ( 'NONE', #185, #534, #241 ) ;
#455 = DIRECTION ( 'NONE',  ( 0.000000000000000000, 0.000000000000000000, -1.000000000000000000 ) ) ;
#456 = EDGE_LOOP ( 'NONE', ( #607, #334, #270, #368, #646 ) ) ;
#457 = DIRECTION ( 'NONE',  ( 1.000000000000000000, 0.000000000000000000, 0.000000000000000000 ) ) ;
#458 = CC_DESIGN_APPROVAL ( #251, ( #77 ) ) ;
#459 = CARTESIAN_POINT ( 'NONE',  ( -0.07440000000000003555, -0.07440000000000003555, -0.1200000017881393266 ) ) ;
#460 = ORIENTED_EDGE ( 'NONE', *, *, #408, .F. ) ;
#461 = CYLINDRICAL_SURFACE ( 'NONE', #476, 0.07440000000000007718 ) ;
#462 = VERTEX_POINT ( 'NONE', #329 ) ;
#463 = CARTESIAN_POINT ( 'NONE',  ( 0.000000000000000000, -0.5255999999999999561, -0.07199999821186053861 ) ) ;
#464 = ADVANCED_FACE ( 'NONE', ( #815 ), #618, .F. ) ;
#465 = CARTESIAN_POINT ( 'NONE',  ( -0.03719999999999996920, -0.07440000000000003555, -0.07199999821186053861 ) ) ;
#466 = EDGE_CURVE ( 'NONE', #437, #462, #896, .T. ) ;
#467 = DIRECTION ( 'NONE',  ( -1.000000000000000000, 0.000000000000000000, 0.000000000000000000 ) ) ;
#468 = DIRECTION ( 'NONE',  ( 0.000000000000000000, 0.000000000000000000, -1.000000000000000000 ) ) ;
#469 = LINE ( 'NONE', #315, #490 ) ;
#470 = TOROIDAL_SURFACE ( 'NONE', #336, 0.9675119321776421977, 0.1047706261120861099 ) ;
#471 = ORIENTED_EDGE ( 'NONE', *, *, #545, .T. ) ;
#472 = DIRECTION ( 'NONE',  ( 0.000000000000000000, 1.000000000000000000, 0.000000000000000000 ) ) ;
#473 = CARTESIAN_POINT ( 'NONE',  ( -0.9675119321776421977, 1.184860390878220670E-16, 4.787836793695988567E-16 ) ) ;
#474 = CIRCLE ( 'NONE', #521, 0.9000000000000000222 ) ;
#475 = CARTESIAN_POINT ( 'NONE',  ( -0.5255999999999999561, -0.07440000000000003555, -0.07199999821186053861 ) ) ;
#476 = AXIS2_PLACEMENT_3D ( 'NONE', #742, #169, #316 ) ;
#477 = APPROVAL_PERSON_ORGANIZATION ( #873, #514, #242 ) ;
#478 = DIRECTION ( 'NONE',  ( -0.000000000000000000, 1.000000000000000000, 0.000000000000000000 ) ) ;
#479 = EDGE_LOOP ( 'NONE', ( #714, #901, #707, #626 ) ) ;
#480 = EDGE_LOOP ( 'NONE', ( #268, #496, #758, #688 ) ) ;
#481 = CARTESIAN_POINT ( 'NONE',  ( 0.07440000000000003555, -0.5255999999999999561, -0.07199999821186053861 ) ) ;
#482 = EDGE_CURVE ( 'NONE', #892, #359, #326, .T. ) ;
#483 = ORIENTED_EDGE ( 'NONE', *, *, #4, .T. ) ;
#484 = ORIENTED_EDGE ( 'NONE', *, *, #642, .F. ) ;
#485 = ORIENTED_EDGE ( 'NONE', *, *, #320, .T. ) ;
#486 = ORIENTED_EDGE ( 'NONE', *, *, #805, .T. ) ;
#487 = PLANE ( 'NONE',  #90 ) ;
#488 = CIRCLE ( 'NONE', #535, 0.07440000000000003555 ) ;
#489 = CARTESIAN_POINT ( 'NONE',  ( 0.000000000000000000, 0.000000000000000000, 4.787836793695988567E-16 ) ) ;
#490 = VECTOR ( 'NONE', #546, 1000.000000000000000 ) ;
#491 = LOCAL_TIME ( 12, 21, 22.00000000000000000, #587 ) ;
#492 = DIRECTION ( 'NONE',  ( 0.000000000000000000, 0.000000000000000000, 1.000000000000000000 ) ) ;
#493 = ORIENTED_EDGE ( 'NONE', *, *, #674, .T. ) ;
#494 = CARTESIAN_POINT ( 'NONE',  ( 0.5255999999999999561, -0.07440000000000003555, -0.1200000017881393266 ) ) ;
#495 = DIRECTION ( 'NONE',  ( 1.000000000000000000, 0.000000000000000000, 0.000000000000000000 ) ) ;
#496 = ORIENTED_EDGE ( 'NONE', *, *, #701, .T. ) ;
#497 = DATE_TIME_ROLE ( 'classification_date' ) ;
#498 = ADVANCED_FACE ( 'NONE', ( #550 ), #449, .F. ) ;
#499 = CARTESIAN_POINT ( 'NONE',  ( 0.8627413060655559907, 0.000000000000000000, 4.659529781783158196E-16 ) ) ;
#500 = DIRECTION ( 'NONE',  ( 0.000000000000000000, 0.000000000000000000, 1.000000000000000000 ) ) ;
#501 = EDGE_LOOP ( 'NONE', ( #899, #284, #255, #341, #193 ) ) ;
#502 = EDGE_CURVE ( 'NONE', #262, #760, #554, .T. ) ;
#503 = DIRECTION ( 'NONE',  ( -1.000000000000000000, 0.000000000000000000, 0.000000000000000000 ) ) ;
#504 = DIRECTION ( 'NONE',  ( -1.000000000000000000, 0.000000000000000000, 0.000000000000000000 ) ) ;
#505 = CIRCLE ( 'NONE', #639, 0.07440000000000002167 ) ;
#506 = EDGE_LOOP ( 'NONE', ( #327, #483, #628, #564, #722 ) ) ;
#507 = AXIS2_PLACEMENT_3D ( 'NONE', #21, #215, #82 ) ;
#508 = EDGE_CURVE ( 'NONE', #686, #69, #528, .T. ) ;
#509 = CARTESIAN_POINT ( 'NONE',  ( 0.000000000000000000, 0.000000000000000000, 0.1200000017881393266 ) ) ;
#510 = LINE ( 'NONE', #786, #59 ) ;
#511 = ORIENTED_EDGE ( 'NONE', *, *, #557, .F. ) ;
#512 = ADVANCED_FACE ( 'NONE', ( #395 ), #167, .F. ) ;
#513 = CARTESIAN_POINT ( 'NONE',  ( 0.07440000000000003555, -0.07440000000000003555, -0.1200000017881393266 ) ) ;
#514 = APPROVAL ( #165, '未' ) ;
#515 = DIRECTION ( 'NONE',  ( 1.000000000000000000, 0.000000000000000000, 0.000000000000000000 ) ) ;
#516 = EDGE_CURVE ( 'NONE', #375, #51, #781, .T. ) ;
#517 = ORIENTED_EDGE ( 'NONE', *, *, #97, .T. ) ;
#518 = CARTESIAN_POINT ( 'NONE',  ( 0.07440000000000003555, -0.07440000000000003555, -0.07199999821186053861 ) ) ;
#519 = CARTESIAN_POINT ( 'NONE',  ( 0.000000000000000000, 0.000000000000000000, -0.08011880621651878975 ) ) ;
#520 = CIRCLE ( 'NONE', #869, 0.7800000000000002487 ) ;
#521 = AXIS2_PLACEMENT_3D ( 'NONE', #139, #425, #287 ) ;
#522 = EDGE_CURVE ( 'NONE', #802, #686, #469, .T. ) ;
#523 = VECTOR ( 'NONE', #112, 1000.000000000000000 ) ;
#524 = CARTESIAN_POINT ( 'NONE',  ( -0.6000000000000000888, 0.000000000000000000, -0.1200000017881393266 ) ) ;
#525 = CYLINDRICAL_SURFACE ( 'NONE', #237, 0.9000000000000000222 ) ;
#526 = DIRECTION ( 'NONE',  ( 1.224646799147353207E-16, 1.000000000000000000, -0.000000000000000000 ) ) ;
#527 = LINE ( 'NONE', #799, #218 ) ;
#528 = LINE ( 'NONE', #810, #624 ) ;
#529 = ORIENTED_EDGE ( 'NONE', *, *, #763, .F. ) ;
#530 = LINE ( 'NONE', #728, #396 ) ;
#531 = DIRECTION ( 'NONE',  ( 0.000000000000000000, 0.000000000000000000, 1.000000000000000000 ) ) ;
#532 = CALENDAR_DATE ( 2026, 29, 6 ) ;
#533 = DIRECTION ( 'NONE',  ( 1.000000000000000000, 0.000000000000000000, 0.000000000000000000 ) ) ;
#534 = DIRECTION ( 'NONE',  ( 0.000000000000000000, 0.000000000000000000, 1.000000000000000000 ) ) ;
#535 = AXIS2_PLACEMENT_3D ( 'NONE', #672, #48, #879 ) ;
#536 = CARTESIAN_POINT ( 'NONE',  ( 0.07440000000000003555, 0.2627999999999999781, -0.07199999821186053861 ) ) ;
#537 = AXIS2_PLACEMENT_3D ( 'NONE', #733, #748, #30 ) ;
#538 = LINE ( 'NONE', #240, #888 ) ;
#539 = ADVANCED_FACE ( 'NONE', ( #119 ), #754, .F. ) ;
#540 = CARTESIAN_POINT ( 'NONE',  ( 0.07440000000000003555, 0.07440000000000003555, -0.07199999821186053861 ) ) ;
#541 = EDGE_LOOP ( 'NONE', ( #750, #352, #393, #406, #143, #827, #601, #493, #347, #865, #845, #620, #324, #687 ) ) ;
#542 = DIRECTION ( 'NONE',  ( 0.000000000000000000, 0.000000000000000000, 1.000000000000000000 ) ) ;
#543 = ORIENTED_EDGE ( 'NONE', *, *, #78, .T. ) ;
#544 = DIRECTION ( 'NONE',  ( 1.000000000000000000, 0.000000000000000000, 0.000000000000000000 ) ) ;
#545 = EDGE_CURVE ( 'NONE', #153, #44, #192, .T. ) ;
#546 = DIRECTION ( 'NONE',  ( 0.000000000000000000, 1.000000000000000000, 0.000000000000000000 ) ) ;
#547 = VERTEX_POINT ( 'NONE', #64 ) ;
#548 = ADVANCED_FACE ( 'NONE', ( #58 ), #627, .F. ) ;
#549 = DIRECTION ( 'NONE',  ( 0.000000000000000000, -1.000000000000000000, 0.000000000000000000 ) ) ;
#550 = FACE_OUTER_BOUND ( 'NONE', #297, .T. ) ;
#551 = VERTEX_POINT ( 'NONE', #912 ) ;
#552 = ORIENTED_EDGE ( 'NONE', *, *, #674, .F. ) ;
#553 = CARTESIAN_POINT ( 'NONE',  ( 0.000000000000000000, -0.9000000000000000222, -0.1200000017881393266 ) ) ;
#554 = CIRCLE ( 'NONE', #76, 0.07440000000000003555 ) ;
#555 = DIRECTION ( 'NONE',  ( 1.000000000000000000, 1.224646799147349263E-16, 0.000000000000000000 ) ) ;
#556 = ORIENTED_EDGE ( 'NONE', *, *, #397, .T. ) ;
#557 = EDGE_CURVE ( 'NONE', #755, #547, #275, .T. ) ;
#558 = EDGE_CURVE ( 'NONE', #673, #51, #902, .T. ) ;
#559 = VERTEX_POINT ( 'NONE', #592 ) ;
#560 = CARTESIAN_POINT ( 'NONE',  ( 0.000000000000000000, 0.000000000000000000, 0.1200000017881393266 ) ) ;
#561 = DIRECTION ( 'NONE',  ( -1.000000000000000000, 0.000000000000000000, 0.000000000000000000 ) ) ;
#562 = PERSON_AND_ORGANIZATION ( #779, #891 ) ;
#563 = CARTESIAN_POINT ( 'NONE',  ( 0.000000000000000000, 0.000000000000000000, 0.08011880621651951140 ) ) ;
#564 = ORIENTED_EDGE ( 'NONE', *, *, #54, .F. ) ;
#565 = DIRECTION ( 'NONE',  ( 0.000000000000000000, 0.000000000000000000, -1.000000000000000000 ) ) ;
#566 = CARTESIAN_POINT ( 'NONE',  ( 1.102182119232617788E-16, 0.9000000000000000222, -0.1000594040023290582 ) ) ;
#567 = AXIS2_PLACEMENT_3D ( 'NONE', #273, #631, #134 ) ;
#568 = CARTESIAN_POINT ( 'NONE',  ( 0.07440000000000003555, 0.07440000000000003555, -0.07199999821186053861 ) ) ;
#569 = EDGE_CURVE ( 'NONE', #783, #686, #867, .T. ) ;
#570 = AXIS2_PLACEMENT_3D ( 'NONE', #63, #57, #727 ) ;
#571 = FACE_OUTER_BOUND ( 'NONE', #450, .T. ) ;
#572 = ORIENTED_EDGE ( 'NONE', *, *, #382, .F. ) ;
#573 = DIRECTION ( 'NONE',  ( -1.000000000000000000, 0.000000000000000000, 0.000000000000000000 ) ) ;
#574 = ADVANCED_FACE ( 'NONE', ( #389, #234 ), #115, .T. ) ;
#575 = EDGE_LOOP ( 'NONE', ( #189, #429 ) ) ;
#576 = SHAPE_DEFINITION_REPRESENTATION ( #589, #665 ) ;
#577 = DIRECTION ( 'NONE',  ( -1.000000000000000000, 0.000000000000000000, 0.000000000000000000 ) ) ;
#578 = DIRECTION ( 'NONE',  ( 0.000000000000000000, -1.000000000000000000, 0.000000000000000000 ) ) ;
#579 = ORIENTED_EDGE ( 'NONE', *, *, #436, .F. ) ;
#580 = DIRECTION ( 'NONE',  ( 0.000000000000000000, 0.000000000000000000, 1.000000000000000000 ) ) ;
#581 = CARTESIAN_POINT ( 'NONE',  ( 1.102182119232617788E-16, 0.9000000000000000222, 0.08011880621651951140 ) ) ;
#582 = VECTOR ( 'NONE', #83, 1000.000000000000000 ) ;
#583 =( LENGTH_UNIT ( ) NAMED_UNIT ( * ) SI_UNIT ( .MILLI., .METRE. ) );
#584 = CIRCLE ( 'NONE', #735, 0.1047706261120861099 ) ;
#585 = CARTESIAN_POINT ( 'NONE',  ( -0.7800000000000002487, 0.000000000000000000, 0.1200000017881393266 ) ) ;
#586 = ORIENTED_EDGE ( 'NONE', *, *, #4, .F. ) ;
#587 = COORDINATED_UNIVERSAL_TIME_OFFSET ( 8, 0, .AHEAD. ) ;
#588 = DIRECTION ( 'NONE',  ( -1.000000000000000000, 0.000000000000000000, 0.000000000000000000 ) ) ;
#589 = PRODUCT_DEFINITION_SHAPE ( 'NONE', 'NONE',  #725 ) ;
#590 = VERTEX_POINT ( 'NONE', #729 ) ;
#591 = VERTEX_POINT ( 'NONE', #524 ) ;
#592 = CARTESIAN_POINT ( 'NONE',  ( -0.5255999999999999561, 0.07440000000000003555, -0.07199999821186053861 ) ) ;
#593 = CARTESIAN_POINT ( 'NONE',  ( 0.5255999999999999561, 0.000000000000000000, -0.07199999821186053861 ) ) ;
#594 = CARTESIAN_POINT ( 'NONE',  ( 0.5255999999999999561, -0.07440000000000003555, -0.07199999821186053861 ) ) ;
#595 = CC_DESIGN_PERSON_AND_ORGANIZATION_ASSIGNMENT ( #285, #842, ( #725 ) ) ;
#596 = AXIS2_PLACEMENT_3D ( 'NONE', #884, #14, #785 ) ;
#597 = ORIENTED_EDGE ( 'NONE', *, *, #34, .T. ) ;
#598 = VECTOR ( 'NONE', #342, 1000.000000000000000 ) ;
#599 = CALENDAR_DATE ( 2026, 29, 6 ) ;
#600 = CARTESIAN_POINT ( 'NONE',  ( -0.5255999999999999561, 0.000000000000000000, -0.07199999821186053861 ) ) ;
#601 = ORIENTED_EDGE ( 'NONE', *, *, #436, .T. ) ;
#602 = FACE_OUTER_BOUND ( 'NONE', #37, .T. ) ;
#603 = CARTESIAN_POINT ( 'NONE',  ( -0.5255999999999999561, 0.000000000000000000, -0.1200000017881393266 ) ) ;
#604 = DIRECTION ( 'NONE',  ( -1.000000000000000000, 0.000000000000000000, 0.000000000000000000 ) ) ;
#605 = LINE ( 'NONE', #536, #720 ) ;
#606 = DIRECTION ( 'NONE',  ( 0.000000000000000000, 0.000000000000000000, -1.000000000000000000 ) ) ;
#607 = ORIENTED_EDGE ( 'NONE', *, *, #360, .T. ) ;
#608 = CARTESIAN_POINT ( 'NONE',  ( 0.5255999999999999561, 0.07440000000000003555, -0.07199999821186053861 ) ) ;
#609 = ORIENTED_EDGE ( 'NONE', *, *, #312, .F. ) ;
#610 = VECTOR ( 'NONE', #614, 1000.000000000000000 ) ;
#611 = EDGE_LOOP ( 'NONE', ( #158, #511, #418, #905 ) ) ;
#612 = EDGE_CURVE ( 'NONE', #823, #50, #584, .T. ) ;
#613 = ADVANCED_FACE ( 'NONE', ( #380 ), #678, .F. ) ;
#614 = DIRECTION ( 'NONE',  ( 0.000000000000000000, 0.000000000000000000, 1.000000000000000000 ) ) ;
#615 = ADVANCED_FACE ( 'NONE', ( #307 ), #166, .F. ) ;
#616 = ORIENTED_EDGE ( 'NONE', *, *, #419, .F. ) ;
#617 = CARTESIAN_POINT ( 'NONE',  ( 0.000000000000000000, 0.000000000000000000, 4.787836793695988567E-16 ) ) ;
#618 = PLANE ( 'NONE',  #683 ) ;
#619 = ORIENTED_EDGE ( 'NONE', *, *, #907, .T. ) ;
#620 = ORIENTED_EDGE ( 'NONE', *, *, #140, .T. ) ;
#621 = ADVANCED_FACE ( 'NONE', ( #602 ), #203, .F. ) ;
#622 = ORIENTED_EDGE ( 'NONE', *, *, #466, .F. ) ;
#623 = AXIS2_PLACEMENT_3D ( 'NONE', #214, #503, #129 ) ;
#624 = VECTOR ( 'NONE', #117, 1000.000000000000000 ) ;
#625 = CYLINDRICAL_SURFACE ( 'NONE', #570, 0.7800000000000002487 ) ;
#626 = ORIENTED_EDGE ( 'NONE', *, *, #371, .T. ) ;
#627 = PLANE ( 'NONE',  #567 ) ;
#628 = ORIENTED_EDGE ( 'NONE', *, *, #926, .T. ) ;
#629 = DIRECTION ( 'NONE',  ( -1.000000000000000000, 0.000000000000000000, 0.000000000000000000 ) ) ;
#630 = ADVANCED_FACE ( 'NONE', ( #370 ), #433, .F. ) ;
#631 = DIRECTION ( 'NONE',  ( 0.000000000000000000, -1.000000000000000000, 0.000000000000000000 ) ) ;
#632 = ORIENTED_EDGE ( 'NONE', *, *, #200, .T. ) ;
#633 = FACE_OUTER_BOUND ( 'NONE', #293, .T. ) ;
#634 = DATE_AND_TIME ( #532, #340 ) ;
#635 = CIRCLE ( 'NONE', #337, 0.9000000000000000222 ) ;
#636 = CIRCLE ( 'NONE', #159, 0.7800000000000002487 ) ;
#637 = PRODUCT_RELATED_PRODUCT_CATEGORY ( 'detail', '', ( #716 ) ) ;
#638 = DIRECTION ( 'NONE',  ( 1.000000000000000000, 0.000000000000000000, 0.000000000000000000 ) ) ;
#639 = AXIS2_PLACEMENT_3D ( 'NONE', #593, #366, #927 ) ;
#640 = ORIENTED_EDGE ( 'NONE', *, *, #522, .F. ) ;
#641 = CARTESIAN_POINT ( 'NONE',  ( -0.7800000000000002487, 0.000000000000000000, -0.07199999821186053861 ) ) ;
#642 = EDGE_CURVE ( 'NONE', #414, #741, #723, .T. ) ;
#643 = ORIENTED_EDGE ( 'NONE', *, *, #365, .T. ) ;
#644 = CARTESIAN_POINT ( 'NONE',  ( -0.07440000000000003555, -0.4128000000000002778, -0.1200000017881393266 ) ) ;
#645 = CYLINDRICAL_SURFACE ( 'NONE', #859, 0.07440000000000003555 ) ;
#646 = ORIENTED_EDGE ( 'NONE', *, *, #222, .F. ) ;
#647 = CARTESIAN_POINT ( 'NONE',  ( -0.5255999999999999561, -0.07440000000000003555, -0.07199999821186053861 ) ) ;
#648 = EDGE_CURVE ( 'NONE', #437, #376, #505, .T. ) ;
#649 = VECTOR ( 'NONE', #323, 1000.000000000000000 ) ;
#650 = AXIS2_PLACEMENT_3D ( 'NONE', #100, #669, #28 ) ;
#651 = LINE ( 'NONE', #226, #6 ) ;
#652 = ORIENTED_EDGE ( 'NONE', *, *, #907, .F. ) ;
#653 = CARTESIAN_POINT ( 'NONE',  ( 0.5255999999999999561, -0.07440000000000003555, -0.07199999821186053861 ) ) ;
#654 = ORIENTED_EDGE ( 'NONE', *, *, #704, .T. ) ;
#655 = DIRECTION ( 'NONE',  ( 0.000000000000000000, 0.000000000000000000, -1.000000000000000000 ) ) ;
#656 = VERTEX_POINT ( 'NONE', #647 ) ;
#657 = DIRECTION ( 'NONE',  ( 0.000000000000000000, 0.000000000000000000, 1.000000000000000000 ) ) ;
#658 = ADVANCED_FACE ( 'NONE', ( #446 ), #383, .F. ) ;
#659 = CARTESIAN_POINT ( 'NONE',  ( 1.102182119232617788E-16, 0.9000000000000000222, -0.08011880621651878975 ) ) ;
#660 = APPLICATION_PROTOCOL_DEFINITION ( 'international standard', 'config_control_design', 1994, #762 ) ;
#661 = EDGE_LOOP ( 'NONE', ( #224, #699, #335, #61, #616 ) ) ;
#662 = CARTESIAN_POINT ( 'NONE',  ( 0.000000000000000000, 0.000000000000000000, -0.07199999821186053861 ) ) ;
#663 = CARTESIAN_POINT ( 'NONE',  ( -0.8627413060655559907, 1.056553378965390176E-16, 4.659529781783158196E-16 ) ) ;
#664 = CARTESIAN_POINT ( 'NONE',  ( 0.000000000000000000, -0.9000000000000000222, 0.08011880621651951140 ) ) ;
#665 = ADVANCED_BREP_SHAPE_REPRESENTATION ( '006466', ( #52, #281 ), #105 ) ;
#666 = DIRECTION ( 'NONE',  ( -1.000000000000000000, 0.000000000000000000, 0.000000000000000000 ) ) ;
#667 = COORDINATED_UNIVERSAL_TIME_OFFSET ( 8, 0, .AHEAD. ) ;
#668 = DIRECTION ( 'NONE',  ( -1.000000000000000000, 0.000000000000000000, 0.000000000000000000 ) ) ;
#669 = DIRECTION ( 'NONE',  ( -1.000000000000000000, 0.000000000000000000, 0.000000000000000000 ) ) ;
#670 = DIRECTION ( 'NONE',  ( 0.000000000000000000, 1.000000000000000000, 0.000000000000000000 ) ) ;
#671 = DIRECTION ( 'NONE',  ( 0.000000000000000000, 0.000000000000000000, 1.000000000000000000 ) ) ;
#672 = CARTESIAN_POINT ( 'NONE',  ( 0.000000000000000000, -0.5255999999999999561, -0.1200000017881393266 ) ) ;
#673 = VERTEX_POINT ( 'NONE', #663 ) ;
#674 = EDGE_CURVE ( 'NONE', #462, #547, #296, .T. ) ;
#675 = LINE ( 'NONE', #249, #751 ) ;
#676 = DIRECTION ( 'NONE',  ( 0.000000000000000000, 0.000000000000000000, 1.000000000000000000 ) ) ;
#677 = DIRECTION ( 'NONE',  ( 0.000000000000000000, 0.000000000000000000, -1.000000000000000000 ) ) ;
#678 = CYLINDRICAL_SURFACE ( 'NONE', #339, 0.07440000000000007718 ) ;
#679 = EDGE_CURVE ( 'NONE', #898, #69, #864, .T. ) ;
#680 = CARTESIAN_POINT ( 'NONE',  ( 0.000000000000000000, 0.000000000000000000, -0.1000594040023290582 ) ) ;
#681 = VECTOR ( 'NONE', #305, 1000.000000000000000 ) ;
#682 = AXIS2_PLACEMENT_3D ( 'NONE', #310, #655, #106 ) ;
#683 = AXIS2_PLACEMENT_3D ( 'NONE', #26, #98, #36 ) ;
#684 = VECTOR ( 'NONE', #124, 1000.000000000000000 ) ;
#685 = DIRECTION ( 'NONE',  ( 0.000000000000000000, 0.000000000000000000, -1.000000000000000000 ) ) ;
#686 = VERTEX_POINT ( 'NONE', #513 ) ;
#687 = ORIENTED_EDGE ( 'NONE', *, *, #132, .T. ) ;
#688 = ORIENTED_EDGE ( 'NONE', *, *, #679, .F. ) ;
#689 = VERTEX_POINT ( 'NONE', #717 ) ;
#690 = CIRCLE ( 'NONE', #130, 0.07440000000000007718 ) ;
#691 = ORIENTED_EDGE ( 'NONE', *, *, #803, .F. ) ;
#692 = AXIS2_PLACEMENT_3D ( 'NONE', #443, #657, #302 ) ;
#693 = CARTESIAN_POINT ( 'NONE',  ( -0.07440000000000003555, -0.2627999999999999781, -0.07199999821186053861 ) ) ;
#694 = VECTOR ( 'NONE', #225, 1000.000000000000000 ) ;
#695 = EDGE_LOOP ( 'NONE', ( #243, #27, #18, #81, #267 ) ) ;
#696 = CYLINDRICAL_SURFACE ( 'NONE', #363, 0.7800000000000002487 ) ;
#697 =( NAMED_UNIT ( * ) SI_UNIT ( $, .STERADIAN. ) SOLID_ANGLE_UNIT ( ) );
#698 = CARTESIAN_POINT ( 'NONE',  ( 0.000000000000000000, 0.000000000000000000, 0.08011880621651951140 ) ) ;
#699 = ORIENTED_EDGE ( 'NONE', *, *, #85, .T. ) ;
#700 = CARTESIAN_POINT ( 'NONE',  ( -0.6000000000000000888, 0.000000000000000000, -0.07199999821186053861 ) ) ;
#701 = EDGE_CURVE ( 'NONE', #376, #88, #675, .T. ) ;
#702 = ORIENTED_EDGE ( 'NONE', *, *, #200, .F. ) ;
#703 = AXIS2_PLACEMENT_3D ( 'NONE', #600, #685, #668 ) ;
#704 = EDGE_CURVE ( 'NONE', #413, #755, #605, .T. ) ;
#705 = DIRECTION ( 'NONE',  ( 0.000000000000000000, 0.000000000000000000, -1.000000000000000000 ) ) ;
#706 = APPROVAL_PERSON_ORGANIZATION ( #562, #46, #47 ) ;
#707 = ORIENTED_EDGE ( 'NONE', *, *, #502, .F. ) ;
#708 = PLANE ( 'NONE',  #507 ) ;
#709 = CARTESIAN_POINT ( 'NONE',  ( 0.000000000000000000, 0.000000000000000000, 0.1200000017881393266 ) ) ;
#710 = EDGE_CURVE ( 'NONE', #547, #840, #813, .T. ) ;
#711 = ORIENTED_EDGE ( 'NONE', *, *, #805, .F. ) ;
#712 = DIRECTION ( 'NONE',  ( 0.000000000000000000, 1.000000000000000000, 0.000000000000000000 ) ) ;
#713 = DIRECTION ( 'NONE',  ( 0.000000000000000000, 0.000000000000000000, 1.000000000000000000 ) ) ;
#714 = ORIENTED_EDGE ( 'NONE', *, *, #412, .F. ) ;
#715 = PERSON_AND_ORGANIZATION_ROLE ( 'design_supplier' ) ;
#716 = PRODUCT ( '006466', '006466', '', ( #791 ) ) ;
#717 = CARTESIAN_POINT ( 'NONE',  ( -0.07440000000000003555, -0.07440000000000003555, -0.07199999821186053861 ) ) ;
#718 = VECTOR ( 'NONE', #162, 1000.000000000000000 ) ;
#719 = AXIS2_PLACEMENT_3D ( 'NONE', #617, #314, #260 ) ;
#720 = VECTOR ( 'NONE', #101, 1000.000000000000000 ) ;
#721 = LOCAL_TIME ( 12, 21, 22.00000000000000000, #369 ) ;
#722 = ORIENTED_EDGE ( 'NONE', *, *, #482, .F. ) ;
#723 = LINE ( 'NONE', #361, #428 ) ;
#724 = DIRECTION ( 'NONE',  ( 0.000000000000000000, 0.000000000000000000, -1.000000000000000000 ) ) ;
#725 = PRODUCT_DEFINITION ( '�', '', #872, #13 ) ;
#726 = DIRECTION ( 'NONE',  ( 0.000000000000000000, 0.000000000000000000, 1.000000000000000000 ) ) ;
#727 = DIRECTION ( 'NONE',  ( -1.000000000000000000, 0.000000000000000000, 0.000000000000000000 ) ) ;
#728 = CARTESIAN_POINT ( 'NONE',  ( -0.5255999999999999561, 0.07440000000000003555, -0.07199999821186053861 ) ) ;
#729 = CARTESIAN_POINT ( 'NONE',  ( 0.7800000000000002487, 9.552245033349358517E-17, -0.07199999821186053861 ) ) ;
#730 = CARTESIAN_POINT ( 'NONE',  ( -0.07440000000000003555, -0.07440000000000003555, -0.07199999821186053861 ) ) ;
#731 = LINE ( 'NONE', #102, #170 ) ;
#732 = AXIS2_PLACEMENT_3D ( 'NONE', #126, #405, #272 ) ;
#733 = CARTESIAN_POINT ( 'NONE',  ( 0.000000000000000000, 0.000000000000000000, -0.08011880621651878975 ) ) ;
#734 = VECTOR ( 'NONE', #504, 1000.000000000000000 ) ;
#735 = AXIS2_PLACEMENT_3D ( 'NONE', #31, #804, #394 ) ;
#736 = FACE_OUTER_BOUND ( 'NONE', #695, .T. ) ;
#737 = CC_DESIGN_APPROVAL ( #514, ( #725 ) ) ;
#738 = FACE_OUTER_BOUND ( 'NONE', #343, .T. ) ;
#739 = CC_DESIGN_DATE_AND_TIME_ASSIGNMENT ( #264, #111, ( #725 ) ) ;
#740 = FACE_OUTER_BOUND ( 'NONE', #501, .T. ) ;
#741 = VERTEX_POINT ( 'NONE', #818 ) ;
#742 = CARTESIAN_POINT ( 'NONE',  ( -0.5255999999999999561, 0.000000000000000000, -0.07199999821186053861 ) ) ;
#743 = DIRECTION ( 'NONE',  ( 1.000000000000000000, 0.000000000000000000, 0.000000000000000000 ) ) ;
#744 = CARTESIAN_POINT ( 'NONE',  ( -0.5255999999999999561, 0.07440000000000003555, -0.1200000017881393266 ) ) ;
#745 = ORIENTED_EDGE ( 'NONE', *, *, #424, .F. ) ;
#746 = DIRECTION ( 'NONE',  ( 0.000000000000000000, 0.000000000000000000, -1.000000000000000000 ) ) ;
#747 = CYLINDRICAL_SURFACE ( 'NONE', #122, 0.07440000000000007718 ) ;
#748 = DIRECTION ( 'NONE',  ( 0.000000000000000000, 0.000000000000000000, 1.000000000000000000 ) ) ;
#749 = VERTEX_POINT ( 'NONE', #390 ) ;
#750 = ORIENTED_EDGE ( 'NONE', *, *, #211, .T. ) ;
#751 = VECTOR ( 'NONE', #877, 1000.000000000000000 ) ;
#752 = ADVANCED_FACE ( 'NONE', ( #173 ), #461, .F. ) ;
#753 = DIRECTION ( 'NONE',  ( -1.000000000000000000, 1.224646799147354686E-16, 0.000000000000000000 ) ) ;
#754 = CYLINDRICAL_SURFACE ( 'NONE', #42, 0.07440000000000007718 ) ;
#755 = VERTEX_POINT ( 'NONE', #29 ) ;
#756 = DIRECTION ( 'NONE',  ( 1.000000000000000000, 0.000000000000000000, 0.000000000000000000 ) ) ;
#757 = EDGE_LOOP ( 'NONE', ( #759, #197, #269, #632, #471, #15, #654, #787, #355, #196, #180, #832, #96, #138 ) ) ;
#758 = ORIENTED_EDGE ( 'NONE', *, *, #99, .F. ) ;
#759 = ORIENTED_EDGE ( 'NONE', *, *, #16, .T. ) ;
#760 = VERTEX_POINT ( 'NONE', #116 ) ;
#761 = EDGE_LOOP ( 'NONE', ( #517, #422 ) ) ;
#762 = APPLICATION_CONTEXT ( 'configuration controlled 3d designs of mechanical parts and assemblies' ) ;
#763 = EDGE_CURVE ( 'NONE', #898, #783, #313, .T. ) ;
#764 = VERTEX_POINT ( 'NONE', #381 ) ;
#765 = APPROVAL_STATUS ( 'not_yet_approved' ) ;
#766 = CIRCLE ( 'NONE', #596, 0.07440000000000002167 ) ;
#767 = CARTESIAN_POINT ( 'NONE',  ( 0.000000000000000000, 0.5255999999999999561, -0.07199999821186053861 ) ) ;
#768 = AXIS2_PLACEMENT_3D ( 'NONE', #177, #531, #544 ) ;
#769 = CARTESIAN_POINT ( 'NONE',  ( 0.000000000000000000, 0.000000000000000000, 0.1200000017881393266 ) ) ;
#770 = ADVANCED_FACE ( 'NONE', ( #736 ), #244, .T. ) ;
#771 = ORIENTED_EDGE ( 'NONE', *, *, #569, .F. ) ;
#772 = DIRECTION ( 'NONE',  ( -1.000000000000000000, 0.000000000000000000, 0.000000000000000000 ) ) ;
#773 = DIRECTION ( 'NONE',  ( 1.224646799147353207E-16, 1.000000000000000000, -0.000000000000000000 ) ) ;
#774 = EDGE_LOOP ( 'NONE', ( #217, #194, #702, #597 ) ) ;
#775 = CARTESIAN_POINT ( 'NONE',  ( -0.07440000000000003555, 0.07440000000000003555, -0.07199999821186053861 ) ) ;
#776 = ORIENTED_EDGE ( 'NONE', *, *, #569, .T. ) ;
#777 = EDGE_CURVE ( 'NONE', #840, #53, #7, .T. ) ;
#778 = CIRCLE ( 'NONE', #860, 0.07440000000000003555 ) ;
#779 = PERSON ( '未', '未', '未', ('未'), ('未'), ('未') ) ;
#780 = CARTESIAN_POINT ( 'NONE',  ( 0.000000000000000000, 0.5255999999999999561, -0.07199999821186053861 ) ) ;
#781 = CIRCLE ( 'NONE', #537, 0.9000000000000000222 ) ;
#782 = LOCAL_TIME ( 12, 21, 22.00000000000000000, #667 ) ;
#783 = VERTEX_POINT ( 'NONE', #84 ) ;
#784 = DIRECTION ( 'NONE',  ( 0.000000000000000000, 0.000000000000000000, 1.000000000000000000 ) ) ;
#785 = DIRECTION ( 'NONE',  ( -1.000000000000000000, 0.000000000000000000, 0.000000000000000000 ) ) ;
#786 = CARTESIAN_POINT ( 'NONE',  ( 0.07440000000000003555, 0.5255999999999999561, -0.07199999821186053861 ) ) ;
#787 = ORIENTED_EDGE ( 'NONE', *, *, #382, .T. ) ;
#788 = ORIENTED_EDGE ( 'NONE', *, *, #49, .F. ) ;
#789 = ADVANCED_FACE ( 'NONE', ( #571 ), #871, .F. ) ;
#790 = CARTESIAN_POINT ( 'NONE',  ( 1.102182119232617788E-16, 0.9000000000000000222, 0.1200000017881393266 ) ) ;
#791 = MECHANICAL_CONTEXT ( 'NONE', #322, 'mechanical' ) ;
#792 = DIRECTION ( 'NONE',  ( 0.000000000000000000, 0.000000000000000000, -1.000000000000000000 ) ) ;
#793 = ORIENTED_EDGE ( 'NONE', *, *, #34, .F. ) ;
#794 = CARTESIAN_POINT ( 'NONE',  ( 0.07440000000000003555, -0.07440000000000003555, -0.07199999821186053861 ) ) ;
#795 = ADVANCED_FACE ( 'NONE', ( #137 ), #421, .T. ) ;
#796 = CARTESIAN_POINT ( 'NONE',  ( -0.6000000000000000888, 0.000000000000000000, -0.07199999821186053861 ) ) ;
#797 = CLOSED_SHELL ( 'NONE', ( #621, #71, #789, #853, #613, #856, #875, #795, #498, #895, #246, #615, #464, #658, #232, #512, #630, #548, #574, #39, #283, #770, #416, #279, #539, #752, #348 ) ) ;
#798 = ORIENTED_EDGE ( 'NONE', *, *, #508, .F. ) ;
#799 = CARTESIAN_POINT ( 'NONE',  ( -0.03719999999999996920, -0.07440000000000003555, -0.1200000017881393266 ) ) ;
#800 = CIRCLE ( 'NONE', #398, 0.07440000000000002167 ) ;
#801 = AXIS2_PLACEMENT_3D ( 'NONE', #730, #868, #724 ) ;
#802 = VERTEX_POINT ( 'NONE', #426 ) ;
#803 = EDGE_CURVE ( 'NONE', #113, #551, #252, .T. ) ;
#804 = DIRECTION ( 'NONE',  ( 0.000000000000000000, -1.000000000000000000, 0.000000000000000000 ) ) ;
#805 = EDGE_CURVE ( 'NONE', #50, #673, #253, .T. ) ;
#806 = APPLICATION_PROTOCOL_DEFINITION ( 'international standard', 'config_control_design', 1994, #322 ) ;
#807 = ORIENTED_EDGE ( 'NONE', *, *, #49, .T. ) ;
#808 = CARTESIAN_POINT ( 'NONE',  ( -0.7800000000000002487, 0.000000000000000000, 0.1200000017881393266 ) ) ;
#809 = PLANE ( 'NONE',  #623 ) ;
#810 = CARTESIAN_POINT ( 'NONE',  ( 0.2627999999999999781, -0.07440000000000003555, -0.1200000017881393266 ) ) ;
#811 = FACE_OUTER_BOUND ( 'NONE', #834, .T. ) ;
#812 = DIRECTION ( 'NONE',  ( 0.000000000000000000, 0.000000000000000000, 1.000000000000000000 ) ) ;
#813 = LINE ( 'NONE', #883, #351 ) ;
#814 = AXIS2_PLACEMENT_3D ( 'NONE', #157, #448, #533 ) ;
#815 = FACE_OUTER_BOUND ( 'NONE', #774, .T. ) ;
#816 = VECTOR ( 'NONE', #32, 1000.000000000000000 ) ;
#817 = DIRECTION ( 'NONE',  ( -1.000000000000000000, 1.224646799147354686E-16, 0.000000000000000000 ) ) ;
#818 = CARTESIAN_POINT ( 'NONE',  ( -0.07440000000000003555, -0.5255999999999999561, -0.1200000017881393266 ) ) ;
#819 = ORIENTED_EDGE ( 'NONE', *, *, #239, .F. ) ;
#820 = DIRECTION ( 'NONE',  ( 1.000000000000000000, 0.000000000000000000, 0.000000000000000000 ) ) ;
#821 = EDGE_LOOP ( 'NONE', ( #843, #788 ) ) ;
#822 = ORIENTED_EDGE ( 'NONE', *, *, #442, .F. ) ;
#823 = VERTEX_POINT ( 'NONE', #257 ) ;
#824 = CARTESIAN_POINT ( 'NONE',  ( -0.5255999999999999561, 0.000000000000000000, -0.07199999821186053861 ) ) ;
#825 =( NAMED_UNIT ( * ) PLANE_ANGLE_UNIT ( ) SI_UNIT ( $, .RADIAN. ) );
#826 = DIRECTION ( 'NONE',  ( -1.000000000000000000, 0.000000000000000000, 0.000000000000000000 ) ) ;
#827 = ORIENTED_EDGE ( 'NONE', *, *, #99, .T. ) ;
#828 = CARTESIAN_POINT ( 'NONE',  ( 0.7800000000000002487, 9.552245033349358517E-17, 0.1200000017881393266 ) ) ;
#829 = ORIENTED_EDGE ( 'NONE', *, *, #114, .F. ) ;
#830 = FACE_OUTER_BOUND ( 'NONE', #925, .T. ) ;
#831 = CYLINDRICAL_SURFACE ( 'NONE', #890, 0.9000000000000000222 ) ;
#832 = ORIENTED_EDGE ( 'NONE', *, *, #25, .T. ) ;
#833 = AXIS2_PLACEMENT_3D ( 'NONE', #67, #354, #909 ) ;
#834 = EDGE_LOOP ( 'NONE', ( #863, #485 ) ) ;
#835 = CIRCLE ( 'NONE', #103, 0.9000000000000000222 ) ;
#836 = CC_DESIGN_PERSON_AND_ORGANIZATION_ASSIGNMENT ( #33, #715, ( #872 ) ) ;
#837 = ORIENTED_EDGE ( 'NONE', *, *, #181, .T. ) ;
#838 = AXIS2_PLACEMENT_3D ( 'NONE', #387, #179, #258 ) ;
#839 = CARTESIAN_POINT ( 'NONE',  ( -0.07440000000000003555, 0.07440000000000003555, -0.07199999821186053861 ) ) ;
#840 = VERTEX_POINT ( 'NONE', #183 ) ;
#841 = ORIENTED_EDGE ( 'NONE', *, *, #211, .F. ) ;
#842 = PERSON_AND_ORGANIZATION_ROLE ( 'creator' ) ;
#843 = ORIENTED_EDGE ( 'NONE', *, *, #181, .F. ) ;
#844 = DIRECTION ( 'NONE',  ( 0.000000000000000000, 0.000000000000000000, -1.000000000000000000 ) ) ;
#845 = ORIENTED_EDGE ( 'NONE', *, *, #114, .T. ) ;
#846 = EDGE_CURVE ( 'NONE', #656, #178, #318, .T. ) ;
#847 = CIRCLE ( 'NONE', #265, 0.9000000000000000222 ) ;
#848 = VECTOR ( 'NONE', #852, 1000.000000000000000 ) ;
#849 = DIRECTION ( 'NONE',  ( 0.000000000000000000, 0.000000000000000000, 1.000000000000000000 ) ) ;
#850 = DIRECTION ( 'NONE',  ( 0.000000000000000000, 0.000000000000000000, -1.000000000000000000 ) ) ;
#851 = CARTESIAN_POINT ( 'NONE',  ( 0.000000000000000000, 0.000000000000000000, 4.787836793695988567E-16 ) ) ;
#852 = DIRECTION ( 'NONE',  ( 0.000000000000000000, 0.000000000000000000, 1.000000000000000000 ) ) ;
#853 = ADVANCED_FACE ( 'NONE', ( #885 ), #747, .F. ) ;
#854 = LINE ( 'NONE', #212, #734 ) ;
#855 = VERTEX_POINT ( 'NONE', #796 ) ;
#856 = ADVANCED_FACE ( 'NONE', ( #633 ), #625, .F. ) ;
#857 = CARTESIAN_POINT ( 'NONE',  ( -0.5255999999999999561, -0.07440000000000003555, -0.1200000017881393266 ) ) ;
#858 = ORIENTED_EDGE ( 'NONE', *, *, #16, .F. ) ;
#859 = AXIS2_PLACEMENT_3D ( 'NONE', #767, #263, #908 ) ;
#860 = AXIS2_PLACEMENT_3D ( 'NONE', #780, #705, #577 ) ;
#861 = DIRECTION ( 'NONE',  ( 1.000000000000000000, 0.000000000000000000, 0.000000000000000000 ) ) ;
#862 = APPROVAL_PERSON_ORGANIZATION ( #353, #251, #70 ) ;
#863 = ORIENTED_EDGE ( 'NONE', *, *, #54, .T. ) ;
#864 = LINE ( 'NONE', #653, #694 ) ;
#865 = ORIENTED_EDGE ( 'NONE', *, *, #777, .T. ) ;
#866 = ORIENTED_EDGE ( 'NONE', *, *, #95, .F. ) ;
#867 = LINE ( 'NONE', #794, #277 ) ;
#868 = DIRECTION ( 'NONE',  ( 0.000000000000000000, -1.000000000000000000, 0.000000000000000000 ) ) ;
#869 = AXIS2_PLACEMENT_3D ( 'NONE', #291, #844, #561 ) ;
#870 = VECTOR ( 'NONE', #606, 1000.000000000000000 ) ;
#871 = TOROIDAL_SURFACE ( 'NONE', #145, 0.9675119321776421977, 0.1047706261120861099 ) ;
#872 = PRODUCT_DEFINITION_FORMATION_WITH_SPECIFIED_SOURCE ( '�', '', #716, .NOT_KNOWN. ) ;
#873 = PERSON_AND_ORGANIZATION ( #779, #891 ) ;
#874 = LINE ( 'NONE', #882, #681 ) ;
#875 = ADVANCED_FACE ( 'NONE', ( #156 ), #525, .T. ) ;
#876 = DIRECTION ( 'NONE',  ( -1.000000000000000000, 0.000000000000000000, 0.000000000000000000 ) ) ;
#877 = DIRECTION ( 'NONE',  ( 0.000000000000000000, 0.000000000000000000, -1.000000000000000000 ) ) ;
#878 = CARTESIAN_POINT ( 'NONE',  ( 0.000000000000000000, 0.000000000000000000, 4.659529781783158196E-16 ) ) ;
#879 = DIRECTION ( 'NONE',  ( -1.000000000000000000, 0.000000000000000000, 0.000000000000000000 ) ) ;
#880 = ORIENTED_EDGE ( 'NONE', *, *, #25, .F. ) ;
#881 = ORIENTED_EDGE ( 'NONE', *, *, #371, .F. ) ;
#882 = CARTESIAN_POINT ( 'NONE',  ( 0.07440000000000003555, -0.03719999999999996920, -0.07199999821186053861 ) ) ;
#883 = CARTESIAN_POINT ( 'NONE',  ( 0.07440000000000003555, -0.1871999999999999775, -0.1200000017881393266 ) ) ;
#884 = CARTESIAN_POINT ( 'NONE',  ( 0.5255999999999999561, 0.000000000000000000, -0.07199999821186053861 ) ) ;
#885 = FACE_OUTER_BOUND ( 'NONE', #92, .T. ) ;
#886 = COORDINATED_UNIVERSAL_TIME_OFFSET ( 8, 0, .AHEAD. ) ;
#887 = ORIENTED_EDGE ( 'NONE', *, *, #365, .F. ) ;
#888 = VECTOR ( 'NONE', #455, 1000.000000000000000 ) ;
#889 = CARTESIAN_POINT ( 'NONE',  ( 0.000000000000000000, -0.9000000000000000222, 0.1000594040023295994 ) ) ;
#890 = AXIS2_PLACEMENT_3D ( 'NONE', #680, #41, #254 ) ;
#891 = ORGANIZATION ( '未', '未', '' ) ;
#892 = VERTEX_POINT ( 'NONE', #664 ) ;
#893 = DIRECTION ( 'NONE',  ( 0.000000000000000000, 0.000000000000000000, -1.000000000000000000 ) ) ;
#894 = ORIENTED_EDGE ( 'NONE', *, *, #286, .F. ) ;
#895 = ADVANCED_FACE ( 'NONE', ( #230 ), #708, .F. ) ;
#896 = LINE ( 'NONE', #261, #441 ) ;
#897 = ORIENTED_EDGE ( 'NONE', *, *, #290, .F. ) ;
#898 = VERTEX_POINT ( 'NONE', #594 ) ;
#899 = ORIENTED_EDGE ( 'NONE', *, *, #85, .F. ) ;
#900 = CIRCLE ( 'NONE', #338, 0.9000000000000000222 ) ;
#901 = ORIENTED_EDGE ( 'NONE', *, *, #332, .F. ) ;
#902 = CIRCLE ( 'NONE', #399, 0.1047706261120860266 ) ;
#903 = CIRCLE ( 'NONE', #204, 0.9000000000000000222 ) ;
#904 = EDGE_LOOP ( 'NONE', ( #259, #609, #227, #619 ) ) ;
#905 = ORIENTED_EDGE ( 'NONE', *, *, #312, .T. ) ;
#906 = EDGE_LOOP ( 'NONE', ( #829, #652, #278, #11 ) ) ;
#907 = EDGE_CURVE ( 'NONE', #44, #53, #434, .T. ) ;
#908 = DIRECTION ( 'NONE',  ( -1.000000000000000000, 0.000000000000000000, 0.000000000000000000 ) ) ;
#909 = DIRECTION ( 'NONE',  ( 0.000000000000000000, 0.000000000000000000, -1.000000000000000000 ) ) ;
#910 = DIRECTION ( 'NONE',  ( 1.000000000000000000, 0.000000000000000000, 0.000000000000000000 ) ) ;
#911 = LINE ( 'NONE', #274, #439 ) ;
#912 = CARTESIAN_POINT ( 'NONE',  ( -0.9000000000000004663, 1.102182119232618281E-16, 0.08011880621651952528 ) ) ;
#913 = CARTESIAN_POINT ( 'NONE',  ( 0.000000000000000000, 0.5255999999999999561, -0.1200000017881393266 ) ) ;
#914 = AXIS2_PLACEMENT_3D ( 'NONE', #769, #87, #362 ) ;
#915 = ORIENTED_EDGE ( 'NONE', *, *, #846, .T. ) ;
#916 = AXIS2_PLACEMENT_3D ( 'NONE', #1, #919, #573 ) ;
#917 = AXIS2_PLACEMENT_3D ( 'NONE', #309, #893, #826 ) ;
#918 = LOCAL_TIME ( 12, 21, 22.00000000000000000, #356 ) ;
#919 = DIRECTION ( 'NONE',  ( 0.000000000000000000, 0.000000000000000000, 1.000000000000000000 ) ) ;
#920 = CARTESIAN_POINT ( 'NONE',  ( 0.000000000000000000, 0.000000000000000000, 0.1000594040023295994 ) ) ;
#921 = EDGE_CURVE ( 'NONE', #51, #764, #903, .T. ) ;
#922 = VERTEX_POINT ( 'NONE', #828 ) ;
#923 = PERSON_AND_ORGANIZATION ( #779, #891 ) ;
#924 = CARTESIAN_POINT ( 'NONE',  ( -0.07440000000000003555, 0.5255999999999999561, -0.1200000017881393266 ) ) ;
#925 = EDGE_LOOP ( 'NONE', ( #745, #209, #643, #837 ) ) ;
#926 = EDGE_CURVE ( 'NONE', #113, #388, #256, .T. ) ;
#927 = DIRECTION ( 'NONE',  ( -1.000000000000000000, 0.000000000000000000, 0.000000000000000000 ) ) ;
ENDSEC;
END-ISO-10303-21;
