  0
SECTION
  2
HEADER
  9
$ACADVER
  1
AC1015
  9
$ACADMAINTVER
 70
     6
  9
$DWGCODEPAGE
  3
ANSI_936
  9
$INSBASE
 10
0.0
 20
0.0
 30
0.0
  9
$EXTMIN
 10
0.0
 20
0.0
 30
0.0
  9
$EXTMAX
 10
297.0
 20
210.0
 30
0.0
  9
$LIMMIN
 10
0.0
 20
0.0
  9
$LIMMAX
 10
297.0
 20
210.0
  9
$ORTHOMODE
 70
     0
  9
$REGENMODE
 70
     1
  9
$FILLMODE
 70
     1
  9
$QTEXTMODE
 70
     0
  9
$MIRRTEXT
 70
     1
  9
$LTSCALE
 40
1.0
  9
$ATTMODE
 70
     1
  9
$TEXTSIZE
 40
3.5
  9
$TRACEWID
 40
1.0
  9
$TEXTSTYLE
  7
Standard
  9
$CLAYER
  8
0
  9
$CELTYPE
  6
ByLayer
  9
$CECOLOR
 62
   256
  9
$CELTSCALE
 40
1.0
  9
$DISPSILH
 70
     0
  9
$DIMSCALE
 40
1.0
  9
$DIMASZ
 40
4.08
  9
$DIMEXO
 40
0.0
  9
$DIMDLI
 40
3.75
  9
$DIMRND
 40
0.0
  9
$DIMDLE
 40
0.0
  9
$DIMEXE
 40
2.0
  9
$DIMTP
 40
0.0
  9
$DIMTM
 40
0.0
  9
$DIMTXT
 40
3.5
  9
$DIMCEN
 40
2.5
  9
$DIMTSZ
 40
0.0
  9
$DIMTOL
 70
     0
  9
$DIMLIM
 70
     0
  9
$DIMTIH
 70
     1
  9
$DIMTOH
 70
     1
  9
$DIMSE1
 70
     0
  9
$DIMSE2
 70
     0
  9
$DIMTAD
 70
     1
  9
$DIMZIN
 70
     0
  9
$DIMBLK
  1

  9
$DIMASO
 70
     1
  9
$DIMSHO
 70
     1
  9
$DIMPOST
  1

  9
$DIMAPOST
  1

  9
$DIMALT
 70
     0
  9
$DIMALTD
 70
     3
  9
$DIMALTF
 40
0.0393700787
  9
$DIMLFAC
 40
2.0
  9
$DIMTOFL
 70
     1
  9
$DIMTVP
 40
0.0
  9
$DIMTIX
 70
     0
  9
$DIMSOXD
 70
     0
  9
$DIMSAH
 70
     0
  9
$DIMBLK1
  1

  9
$DIMBLK2
  1

  9
$DIMSTYLE
  2
ISO-25
  9
$DIMCLRD
 70
     0
  9
$DIMCLRE
 70
     0
  9
$DIMCLRT
 70
     0
  9
$DIMTFAC
 40
1.0
  9
$DIMGAP
 40
1.524
  9
$DIMJUST
 70
     0
  9
$DIMSD1
 70
     0
  9
$DIMSD2
 70
     0
  9
$DIMTOLJ
 70
     0
  9
$DIMTZIN
 70
     0
  9
$DIMALTZ
 70
     0
  9
$DIMALTTZ
 70
     0
  9
$DIMUPT
 70
     0
  9
$DIMDEC
 70
     2
  9
$DIMTDEC
 70
     2
  9
$DIMALTU
 70
     2
  9
$DIMALTTD
 70
     3
  9
$DIMTXSTY
  7
Standard
  9
$DIMAUNIT
 70
     0
  9
$DIMADEC
 70
     2
  9
$DIMALTRND
 40
0.0
  9
$DIMAZIN
 70
     0
  9
$DIMDSEP
 70
    44
  9
$DIMATFIT
 70
     3
  9
$DIMFRAC
 70
     0
  9
$DIMLDRBLK
  1

  9
$DIMLUNIT
 70
     2
  9
$DIMLWD
 70
    -2
  9
$DIMLWE
 70
    -2
  9
$DIMTMOVE
 70
     0
  9
$LUNITS
 70
     2
  9
$LUPREC
 70
     2
  9
$SKETCHINC
 40
1.0
  9
$FILLETRAD
 40
0.0
  9
$AUNITS
 70
     0
  9
$AUPREC
 70
     2
  9
$MENU
  1
.
  9
$ELEVATION
 40
0.0
  9
$PELEVATION
 40
0.0
  9
$THICKNESS
 40
0.0
  9
$LIMCHECK
 70
     0
  9
$CHAMFERA
 40
0.0
  9
$CHAMFERB
 40
0.0
  9
$CHAMFERC
 40
0.0
  9
$CHAMFERD
 40
0.0
  9
$SKPOLY
 70
     0
  9
$TDCREATE
 40
2461213.603928484
  9
$TDUCREATE
 40
2461213.270595151
  9
$TDUPDATE
 40
2461213.603928831
  9
$TDUUPDATE
 40
2461213.270595498
  9
$TDINDWG
 40
0.0000000116
  9
$TDUSRTIMER
 40
0.0000000116
  9
$USRTIMER
 70
     1
  9
$ANGBASE
 50
0.0
  9
$ANGDIR
 70
     0
  9
$PDMODE
 70
     0
  9
$PDSIZE
 40
-1.0
  9
$PLINEWID
 40
0.0
  9
$SPLFRAME
 70
     0
  9
$SPLINETYPE
 70
     6
  9
$SPLINESEGS
 70
     8
  9
$HANDSEED
  5
D3
  9
$SURFTAB1
 70
     6
  9
$SURFTAB2
 70
     6
  9
$SURFTYPE
 70
     6
  9
$SURFU
 70
     6
  9
$SURFV
 70
     6
  9
$UCSBASE
  2

  9
$UCSNAME
  2

  9
$UCSORG
 10
0.0
 20
0.0
 30
0.0
  9
$UCSXDIR
 10
1.0
 20
0.0
 30
0.0
  9
$UCSYDIR
 10
0.0
 20
1.0
 30
0.0
  9
$UCSORTHOREF
  2

  9
$UCSORTHOVIEW
 70
     0
  9
$UCSORGTOP
 10
0.0
 20
0.0
 30
0.0
  9
$UCSORGBOTTOM
 10
0.0
 20
0.0
 30
0.0
  9
$UCSORGLEFT
 10
0.0
 20
0.0
 30
0.0
  9
$UCSORGRIGHT
 10
0.0
 20
0.0
 30
0.0
  9
$UCSORGFRONT
 10
0.0
 20
0.0
 30
0.0
  9
$UCSORGBACK
 10
0.0
 20
0.0
 30
0.0
  9
$PUCSBASE
  2

  9
$PUCSNAME
  2

  9
$PUCSORG
 10
0.0
 20
0.0
 30
0.0
  9
$PUCSXDIR
 10
1.0
 20
0.0
 30
0.0
  9
$PUCSYDIR
 10
0.0
 20
1.0
 30
0.0
  9
$PUCSORTHOREF
  2

  9
$PUCSORTHOVIEW
 70
     0
  9
$PUCSORGTOP
 10
0.0
 20
0.0
 30
0.0
  9
$PUCSORGBOTTOM
 10
0.0
 20
0.0
 30
0.0
  9
$PUCSORGLEFT
 10
0.0
 20
0.0
 30
0.0
  9
$PUCSORGRIGHT
 10
0.0
 20
0.0
 30
0.0
  9
$PUCSORGFRONT
 10
0.0
 20
0.0
 30
0.0
  9
$PUCSORGBACK
 10
0.0
 20
0.0
 30
0.0
  9
$USERI1
 70
     0
  9
$USERI2
 70
     0
  9
$USERI3
 70
     0
  9
$USERI4
 70
     0
  9
$USERI5
 70
     0
  9
$USERR1
 40
0.0
  9
$USERR2
 40
0.0
  9
$USERR3
 40
0.0
  9
$USERR4
 40
0.0
  9
$USERR5
 40
0.0
  9
$WORLDVIEW
 70
     1
  9
$SHADEDGE
 70
     3
  9
$SHADEDIF
 70
    70
  9
$TILEMODE
 70
     1
  9
$MAXACTVP
 70
    64
  9
$PINSBASE
 10
0.0
 20
0.0
 30
0.0
  9
$PLIMCHECK
 70
     0
  9
$PEXTMIN
 10
1.0000000000E+20
 20
1.0000000000E+20
 30
1.0000000000E+20
  9
$PEXTMAX
 10
-1.0000000000E+20
 20
-1.0000000000E+20
 30
-1.0000000000E+20
  9
$PLIMMIN
 10
0.0
 20
0.0
  9
$PLIMMAX
 10
420.0
 20
297.0
  9
$UNITMODE
 70
     0
  9
$VISRETAIN
 70
     1
  9
$PLINEGEN
 70
     0
  9
$PSLTSCALE
 70
     1
  9
$TREEDEPTH
 70
  3020
  9
$CMLSTYLE
  2
Standard
  9
$CMLJUST
 70
     0
  9
$CMLSCALE
 40
20.0
  9
$PROXYGRAPHICS
 70
     1
  9
$MEASUREMENT
 70
     1
  9
$CELWEIGHT
370
    -1
  9
$ENDCAPS
280
     0
  9
$JOINSTYLE
280
     0
  9
$LWDISPLAY
290
     1
  9
$INSUNITS
 70
     4
  9
$HYPERLINKBASE
  1

  9
$STYLESHEET
  1

  9
$XEDIT
290
     1
  9
$CEPSNTYPE
380
     0
  9
$PSTYLEMODE
290
     1
  9
$FINGERPRINTGUID
  2
{467b1089-7e51-4927-916f-009d934fddf8}
  9
$VERSIONGUID
  2
{FAEB1C32-E019-11D5-929B-00C0DF256EC4}
  9
$EXTNAMES
290
     1
  9
$PSVPSCALE
 40
0.0
  9
$OLESTARTUP
290
     0
  0
ENDSEC
  0
SECTION
  2
CLASSES
  0
CLASS
  1
ACDBDICTIONARYWDFLT
  2
AcDbDictionaryWithDefault
  3
ObjectDBX Classes
 90
        0
280
     0
281
     0
  0
CLASS
  1
VISUALSTYLE
  2
AcDbVisualStyle
  3
ObjectDBX Classes
 90
     4095
280
     0
281
     0
  0
CLASS
  1
MATERIAL
  2
AcDbMaterial
  3
ObjectDBX Classes
 90
     1153
280
     0
281
     0
  0
CLASS
  1
SCALE
  2
AcDbScale
  3
ObjectDBX Classes
 90
     1153
280
     0
281
     0
  0
CLASS
  1
TABLESTYLE
  2
AcDbTableStyle
  3
ObjectDBX Classes
 90
     4095
280
     0
281
     0
  0
CLASS
  1
MLEADERSTYLE
  2
AcDbMLeaderStyle
  3
ACDB_MLEADERSTYLE_CLASS
 90
     4095
280
     0
281
     0
  0
CLASS
  1
SUN
  2
AcDbSun
  3
SCENEOE
 90
     1153
280
     0
281
     0
  0
CLASS
  1
ACDBPLACEHOLDER
  2
AcDbPlaceHolder
  3
ObjectDBX Classes
 90
        0
280
     0
281
     0
  0
CLASS
  1
LAYOUT
  2
AcDbLayout
  3
ObjectDBX Classes
 90
        0
280
     0
281
     0
  0
ENDSEC
  0
SECTION
  2
TABLES
  0
TABLE
  2
VPORT
  5
8
330
0
100
AcDbSymbolTable
 70
     1
  0
VPORT
  5
29
330
8
100
AcDbSymbolTableRecord
100
AcDbViewportTableRecord
  2
*Active
 70
     0
 10
0.0
 20
0.0
 11
1.0
 21
1.0
 12
148.5
 22
105.0
 13
0.0
 23
0.0
 14
10.0
 24
10.0
 15
10.0
 25
10.0
 16
0.0
 26
0.0
 36
1.0
 17
0.0
 27
0.0
 37
0.0
 40
210.0
 41
1.4142857143
 42
50.0
 43
0.0
 44
0.0
 50
0.0
 51
0.0
 71
     0
 72
  2000
 73
     1
 74
     3
 75
     0
 76
     0
 77
     0
 78
     0
281
     0
 65
     1
110
0.0
120
0.0
130
0.0
111
1.0
121
0.0
131
0.0
112
0.0
122
1.0
132
0.0
 79
     0
146
0.0
  0
ENDTAB
  0
TABLE
  2
LTYPE
  5
5
330
0
100
AcDbSymbolTable
 70
     6
  0
LTYPE
  5
14
330
5
100
AcDbSymbolTableRecord
100
AcDbLinetypeTableRecord
  2
ByBlock
 70
     0
  3

 72
    65
 73
     0
 40
0.0
  0
LTYPE
  5
15
330
5
100
AcDbSymbolTableRecord
100
AcDbLinetypeTableRecord
  2
ByLayer
 70
     0
  3

 72
    65
 73
     0
 40
0.0
  0
LTYPE
  5
16
330
5
100
AcDbSymbolTableRecord
100
AcDbLinetypeTableRecord
  2
Continuous
 70
     0
  3
Solid line
 72
    65
 73
     0
 40
0.0
  0
LTYPE
  5
5E
330
5
100
AcDbSymbolTableRecord
100
AcDbLinetypeTableRecord
  2
HIDDEN
 70
     0
  3
Hidden __ __ __ __ __ __ __ __ __ __ __ __ __ __
 72
    65
 73
     2
 40
1.905
 49
1.27
 74
     0
 49
-0.635
 74
     0
  0
LTYPE
  5
5F
330
5
100
AcDbSymbolTableRecord
100
AcDbLinetypeTableRecord
  2
PHANTOM
 70
     0
  3
Phantom ______  __  __  ______  __  __  ______
 72
    65
 73
     6
 40
12.7
 49
6.35
 74
     0
 49
-1.27
 74
     0
 49
1.27
 74
     0
 49
-1.27
 74
     0
 49
1.27
 74
     0
 49
-1.27
 74
     0
  0
LTYPE
  5
60
330
5
100
AcDbSymbolTableRecord
100
AcDbLinetypeTableRecord
  2
CENTER
 70
     0
  3
Center ____ _ ____ _ ____ _ ____ _ ____ _ ____
 72
    65
 73
     4
 40
10.16
 49
6.35
 74
     0
 49
-1.27
 74
     0
 49
1.27
 74
     0
 49
-1.27
 74
     0
  0
LTYPE
  5
61
330
5
100
AcDbSymbolTableRecord
100
AcDbLinetypeTableRecord
  2
CENTERX2
 70
     0
  3
Center (2x) ________  __  ________  __  _____
 72
    65
 73
     4
 40
20.32
 49
12.7
 74
     0
 49
-2.54
 74
     0
 49
2.54
 74
     0
 49
-2.54
 74
     0
  0
LTYPE
  5
62
330
5
100
AcDbSymbolTableRecord
100
AcDbLinetypeTableRecord
  2
DOT2
 70
     0
  3
Dot (.5x) ........................................
 72
    65
 73
     2
 40
0.635
 49
0.0
 74
     0
 49
-0.635
 74
     0
  0
ENDTAB
  0
TABLE
  2
LAYER
  5
2
330
0
100
AcDbSymbolTable
 70
    14
  0
LAYER
  5
10
330
2
100
AcDbSymbolTableRecord
100
AcDbLayerTableRecord
  2
0
 70
     0
 62
     7
  6
Continuous
370
    -3
390
F
  0
LAYER
  5
63
330
2
100
AcDbSymbolTableRecord
100
AcDbLayerTableRecord
  2
SLD-0
 70
     0
 62
     7
  6
Continuous
370
    -3
390
F
  0
LAYER
  5
64
330
2
100
AcDbSymbolTableRecord
100
AcDbLayerTableRecord
  2
5
 70
     0
 62
     7
  6
Continuous
370
    -3
390
F
  0
LAYER
  5
65
330
2
100
AcDbSymbolTableRecord
100
AcDbLayerTableRecord
  2
9
 70
     0
 62
     7
  6
Continuous
370
    -3
390
F
  0
LAYER
  5
66
330
2
100
AcDbSymbolTableRecord
100
AcDbLayerTableRecord
  2
10
 70
     0
 62
     7
  6
Continuous
370
    -3
390
F
  0
LAYER
  5
67
330
2
100
AcDbSymbolTableRecord
100
AcDbLayerTableRecord
  2
轮廓实线层
 70
     0
 62
     7
  6
Continuous
370
    50
390
F
  0
LAYER
  5
68
330
2
100
AcDbSymbolTableRecord
100
AcDbLayerTableRecord
  2
细线层
 70
     0
 62
     4
  6
Continuous
370
    25
390
F
  0
LAYER
  5
69
330
2
100
AcDbSymbolTableRecord
100
AcDbLayerTableRecord
  2
中心线层
 70
     0
 62
     1
  6
CENTERX2
370
    25
390
F
  0
LAYER
  5
6A
330
2
100
AcDbSymbolTableRecord
100
AcDbLayerTableRecord
  2
虚线层
 70
     0
 62
     6
  6
HIDDEN
370
    25
390
F
  0
LAYER
  5
6B
330
2
100
AcDbSymbolTableRecord
100
AcDbLayerTableRecord
  2
剖面线层
 70
     0
 62
     2
  6
Continuous
370
    25
390
F
  0
LAYER
  5
6C
330
2
100
AcDbSymbolTableRecord
100
AcDbLayerTableRecord
  2
文字层
 70
     0
 62
     3
  6
Continuous
370
    25
390
F
  0
LAYER
  5
6D
330
2
100
AcDbSymbolTableRecord
100
AcDbLayerTableRecord
  2
标注层
 70
     0
 62
     4
  6
Continuous
370
    25
390
F
  0
LAYER
  5
6E
330
2
100
AcDbSymbolTableRecord
100
AcDbLayerTableRecord
  2
符号标注层
 70
     0
 62
    31
  6
Continuous
370
    25
390
F
  0
LAYER
  5
6F
330
2
100
AcDbSymbolTableRecord
100
AcDbLayerTableRecord
  2
双点划线层
 70
     0
 62
     6
  6
PHANTOM
370
    25
390
F
  0
ENDTAB
  0
TABLE
  2
STYLE
  5
3
330
0
100
AcDbSymbolTable
 70
     1
  0
STYLE
  5
11
330
3
100
AcDbSymbolTableRecord
100
AcDbTextStyleTableRecord
  2
Standard
 70
     0
 40
0.0
 41
1.0
 50
0.0
 71
     0
 42
3.5
  3
txt
  4

  0
ENDTAB
  0
TABLE
  2
VIEW
  5
6
330
0
100
AcDbSymbolTable
 70
     0
  0
ENDTAB
  0
TABLE
  2
UCS
  5
7
330
0
100
AcDbSymbolTable
 70
     0
  0
ENDTAB
  0
TABLE
  2
APPID
  5
9
330
0
100
AcDbSymbolTable
 70
     1
  0
APPID
  5
12
330
9
100
AcDbSymbolTableRecord
100
AcDbRegAppTableRecord
  2
ACAD
 70
     0
  0
ENDTAB
  0
TABLE
  2
DIMSTYLE
  5
A
330
0
100
AcDbSymbolTable
 70
     1
100
AcDbDimStyleTable
  0
DIMSTYLE
105
27
330
A
100
AcDbSymbolTableRecord
100
AcDbDimStyleTableRecord
  2
ISO-25
 70
     0
 41
2.5
 42
0.625
 43
3.75
 44
1.25
 73
     0
 74
     0
 77
     1
 78
     8
140
2.5
141
2.5
143
0.0393700787
147
0.625
171
     3
172
     1
178
     0
271
     2
272
     2
274
     3
278
    44
283
     0
284
     8
340
11
  0
ENDTAB
  0
TABLE
  2
BLOCK_RECORD
  5
1
330
0
100
AcDbSymbolTable
 70
     1
  0
BLOCK_RECORD
  5
1F
330
1
100
AcDbSymbolTableRecord
100
AcDbBlockTableRecord
  2
*Model_Space
340
22
  0
BLOCK_RECORD
  5
1B
330
1
100
AcDbSymbolTableRecord
100
AcDbBlockTableRecord
  2
*Paper_Space
340
1E
  0
BLOCK_RECORD
  5
23
330
1
100
AcDbSymbolTableRecord
100
AcDbBlockTableRecord
  2
*Paper_Space0
340
26
  0
ENDTAB
  0
ENDSEC
  0
SECTION
  2
BLOCKS
  0
BLOCK
  5
20
330
1F
100
AcDbEntity
  8
0
100
AcDbBlockBegin
  2
*Model_Space
 70
     0
 10
0.0
 20
0.0
 30
0.0
  3
*Model_Space
  1

  0
ENDBLK
  5
21
330
1F
100
AcDbEntity
  8
0
100
AcDbBlockEnd
  0
BLOCK
  5
1C
330
1B
100
AcDbEntity
 67
     1
  8
0
100
AcDbBlockBegin
  2
*Paper_Space
 70
     0
 10
0.0
 20
0.0
 30
0.0
  3
*Paper_Space
  1

  0
ENDBLK
  5
1D
330
1B
100
AcDbEntity
 67
     1
  8
0
100
AcDbBlockEnd
  0
BLOCK
  5
24
330
23
100
AcDbEntity
  8
0
100
AcDbBlockBegin
  2
*Paper_Space0
 70
     0
 10
0.0
 20
0.0
 30
0.0
  3
*Paper_Space0
  1

  0
ENDBLK
  5
25
330
23
100
AcDbEntity
  8
0
100
AcDbBlockEnd
  0
ENDSEC
  0
SECTION
  2
ENTITIES
  0
LINE
  5
70
330
1F
100
AcDbEntity
  8
0
  6
Continuous
 62
     7
370
    25
100
AcDbLine
 10
90.590232039
 20
26.6851897923
 30
0.0
 11
83.0651309762
 21
26.6851897923
 31
0.0
  0
SPLINE
  5
71
330
1F
100
AcDbEntity
  8
0
  6
Continuous
 62
     7
370
    25
100
AcDbSpline
210
0.0
220
0.0
230
1.0
 70
     8
 71
     3
 72
    21
 73
    17
 74
     0
 42
0.00000001
 43
0.00000001
 40
0.0
 40
0.0
 40
0.0
 40
0.0
 40
0.1050611371085069
 40
0.2026401191648789
 40
0.2927269333923114
 40
0.3753152124682532
 40
0.4504000757615329
 40
0.5179793090946815
 40
0.5780522252596751
 40
0.630619190625076
 40
0.6890255467226208
 40
0.7348246832486085
 40
0.7846661258261385
 40
0.8454849490521112
 40
0.9172680148503188
 40
1.0
 40
1.0
 40
1.0
 40
1.0
 10
83.06513097622319
 20
26.640011851306
 30
0.0
 10
82.45761959218277
 20
26.61141443569497
 30
0.0
 10
81.2858620551515
 20
26.55625623098945
 30
0.0
 10
79.63824001918731
 20
26.13287055226567
 30
0.0
 10
78.19030679189116
 20
25.53976660734673
 30
0.0
 10
76.95019308257056
 20
24.81694545391223
 30
0.0
 10
75.91349988291107
 20
24.02627450587567
 30
0.0
 10
75.06641429032018
 20
23.21477329175965
 30
0.0
 10
74.38995629223164
 20
22.42177067069565
 30
0.0
 10
73.81708406723226
 20
21.61576723078368
 30
0.0
 10
73.35828443315675
 20
20.83370216377308
 30
0.0
 10
72.97176613277809
 20
20.03169138556728
 30
0.0
 10
72.6408666941835
 20
19.18977639062456
 30
0.0
 10
72.34359492974492
 20
18.17784700698916
 30
0.0
 10
72.107782019221
 20
16.95254397320964
 30
0.0
 10
72.07707259856032
 20
16.05948962568109
 30
0.0
 10
72.06062985516108
 20
15.58132158597013
 30
0.0
  0
ARC
  5
72
330
1F
100
AcDbEntity
  8
0
  6
Continuous
 62
     7
370
    25
100
AcDbCircle
 10
90.590232039
 20
22.993301998
 30
0.0
 40
3.69188779438782
100
AcDbArc
 50
15.9044565885
 51
90.0
  0
ARC
  5
73
330
1F
100
AcDbEntity
  8
0
  6
Continuous
 62
     7
370
    25
100
AcDbCircle
 10
75.6813553874
 20
10.6918877944
 30
0.0
 40
3.691887794387782
100
AcDbArc
 50
180.0
 51
270.0
  0
LINE
  5
74
330
1F
100
AcDbEntity
  8
0
  6
Continuous
 62
     7
370
    25
100
AcDbLine
 10
75.6813553874
 20
7.0
 30
0.0
 11
90.5897069818
 21
7.0
 31
0.0
  0
ARC
  5
75
330
1F
100
AcDbEntity
  8
0
  6
Continuous
 62
     7
370
    25
100
AcDbCircle
 10
90.5897069818
 20
10.6918877944
 30
0.0
 40
3.691887794387786
100
AcDbArc
 50
270.0
 51
344.1253061129
  0
SPLINE
  5
76
330
1F
100
AcDbEntity
  8
0
  6
Continuous
 62
     7
370
    25
100
AcDbSpline
210
0.0
220
0.0
230
1.0
 70
     8
 71
     3
 72
    18
 73
    14
 74
     0
 42
0.00000001
 43
0.00000001
 40
0.0
 40
0.0
 40
0.0
 40
0.0
 40
0.1250000000000008
 40
0.1250000000000008
 40
0.2500000000000017
 40
0.2500000000000017
 40
0.5000000000000011
 40
0.5000000000000011
 40
0.6250000000000008
 40
0.6250000000000008
 40
0.7500000000000006
 40
0.7500000000000006
 40
1.0
 40
1.0
 40
1.0
 40
1.0
 10
74.46995193420048
 20
75.37763692857064
 30
0.0
 10
74.46995195046341
 20
75.2337271178171
 30
0.0
 10
74.48358013856073
 20
75.09210728905225
 30
0.0
 10
74.53696668514681
 20
74.8132583612761
 30
0.0
 10
74.57716556248539
 20
74.67499391547281
 30
0.0
 10
74.73771509754785
 20
74.27548616301542
 30
0.0
 10
74.89788425373642
 20
74.0300202462934
 30
0.0
 10
75.20013671752581
 20
73.72348690995898
 30
0.0
 10
75.31128947337493
 20
73.63160709809209
 30
0.0
 10
75.5467884557363
 20
73.47296523182023
 30
0.0
 10
75.67210959820844
 20
73.40523510592341
 30
0.0
 10
76.07071192725697
 20
73.23946549377207
 30
0.0
 10
76.35567878519439
 20
73.18332609023088
 30
0.0
 10
76.64356917485105
 20
73.18332604421904
 30
0.0
  0
LINE
  5
77
330
1F
100
AcDbEntity
  8
0
  6
Continuous
 62
     7
370
    25
100
AcDbLine
 10
71.9894675931
 20
68.3361247998
 30
0.0
 11
71.9894675931
 21
78.2640801258
 31
0.0
  0
LINE
  5
78
330
1F
100
AcDbEntity
  8
0
  6
Continuous
 62
     7
370
    25
100
AcDbLine
 10
74.4699518905
 20
75.3776369286
 30
0.0
 11
74.4699518905
 21
81.1567854393
 31
0.0
  0
LINE
  5
79
330
1F
100
AcDbEntity
  8
0
  6
Continuous
 62
     7
370
    25
100
AcDbLine
 10
94.1407943594
 20
73.183325922
 30
0.0
 11
76.6435691749
 21
73.183325922
 31
0.0
  0
LINE
  5
7A
330
1F
100
AcDbEntity
  8
0
  6
Continuous
 62
     7
370
    25
100
AcDbLine
 10
74.4699518905
 20
81.1567854393
 30
0.0
 11
74.4699518905
 21
107.0
 31
0.0
  0
LINE
  5
7B
330
1F
100
AcDbEntity
  8
0
  6
Continuous
 62
     7
370
    25
100
AcDbLine
 10
94.1407943594
 20
107.0
 30
0.0
 11
74.4699518905
 21
107.0
 31
0.0
  0
LINE
  5
7C
330
1F
100
AcDbEntity
  8
0
  6
Continuous
 62
     7
370
    25
100
AcDbLine
 10
94.1407943594
 20
73.183325922
 30
0.0
 11
94.1407943594
 21
107.0
 31
0.0
  0
SPLINE
  5
7D
330
1F
100
AcDbEntity
  8
0
  6
Continuous
 62
     7
370
    25
100
AcDbSpline
210
0.0
220
0.0
230
1.0
 70
    24
 71
     3
 72
     9
 73
     5
 74
     0
 42
0.00000001
 43
0.00000001
 40
0.1684130128860705
 40
0.1684130128860705
 40
0.1684130128860705
 40
0.1684130128860705
 40
0.3488306383211075
 40
0.508129662953117
 40
0.508129662953117
 40
0.508129662953117
 40
0.508129662953117
 10
94.14079435938652
 20
65.95526903235285
 30
0.0
 10
94.14079435938652
 20
67.33924271318573
 30
0.0
 10
94.14079435938652
 20
69.87057826604244
 30
0.0
 10
94.14079435938652
 20
72.11091810096973
 30
0.0
 10
94.14079435938652
 20
73.1833259220119
 30
0.0
  0
LINE
  5
7E
330
1F
100
AcDbEntity
  8
0
  6
Continuous
 62
     7
370
    25
100
AcDbLine
 10
71.9894675931
 20
78.2640801258
 30
0.0
 11
71.9894675931
 21
104.1072946865
 31
0.0
  0
SPLINE
  5
7F
330
1F
100
AcDbEntity
  8
0
  6
Continuous
 62
     7
370
    25
100
AcDbSpline
210
0.0
220
0.0
230
1.0
 70
     8
 71
     3
 72
     8
 73
     4
 74
     0
 42
0.00000001
 43
0.00000001
 40
0.0
 40
0.0
 40
0.0
 40
0.0
 40
0.0706744377112788
 40
0.0706744377112788
 40
0.0706744377112788
 40
0.0706744377112788
 10
71.98946759305984
 20
104.1072946864807
 30
0.0
 10
71.98946759305984
 20
105.0818729664239
 30
0.0
 10
72.84992290425646
 20
106.0469385742284
 30
0.0
 10
74.46995189045921
 20
107.0
 30
0.0
  0
LINE
  5
80
330
1F
100
AcDbEntity
  8
0
  6
Continuous
 62
     7
370
    25
100
AcDbLine
 10
71.9894675931
 20
15.581321586
 30
0.0
 11
72.0603930314
 21
15.581321586
 31
0.0
  0
SPLINE
  5
81
330
1F
100
AcDbEntity
  8
0
  6
Continuous
 62
     7
370
    25
100
AcDbSpline
210
0.0
220
0.0
230
1.0
 70
    24
 71
     3
 72
    10
 73
     6
 74
     0
 42
0.00000001
 43
0.00000001
 40
0.0
 40
0.0
 40
0.0
 40
0.0
 40
0.5
 40
0.5
 40
1.0
 40
1.0
 40
1.0
 40
1.0
 10
75.68135538744762
 20
13.14282494703696
 30
0.0
 10
75.2353285308603
 20
12.6967980904498
 30
0.0
 10
74.77360488710225
 20
12.23507444669188
 30
0.0
 10
73.91294474826952
 20
11.37441430785926
 30
0.0
 10
73.51599763891357
 20
10.97746719850325
 30
0.0
 10
73.18715214594334
 20
10.64862170553284
 30
0.0
  0
SPLINE
  5
82
330
1F
100
AcDbEntity
  8
0
  6
Continuous
 62
     7
370
    25
100
AcDbSpline
210
0.0
220
0.0
230
1.0
 70
     8
 71
     3
 72
    12
 73
     8
 74
     0
 42
0.00000001
 43
0.00000001
 40
0.0
 40
0.0
 40
0.0
 40
0.0
 40
0.5000000000000004
 40
0.5000000000000004
 40
0.7500000000000002
 40
0.7500000000000002
 40
1.0
 40
1.0
 40
1.0
 40
1.0
 10
71.98946759305984
 20
13.14282494703696
 30
0.0
 10
71.98946759305979
 20
12.68866202028052
 30
0.0
 10
72.0936877652477
 20
12.21441756269993
 30
0.0
 10
72.40634828181138
 20
11.56329546880144
 30
0.0
 10
72.53571283365497
 20
11.3564548030133
 30
0.0
 10
72.83481184539464
 20
10.97579707268068
 30
0.0
 10
73.00444307600698
 20
10.80203571852222
 30
0.0
 10
73.18715214594334
 20
10.64862170553284
 30
0.0
  0
LINE
  5
83
330
1F
100
AcDbEntity
  8
0
  6
Continuous
 62
     7
370
    25
100
AcDbLine
 10
71.9894675931
 20
15.581321586
 30
0.0
 11
71.9894675931
 21
13.142824947
 31
0.0
  0
LINE
  5
84
330
1F
100
AcDbEntity
  8
0
  6
Continuous
 62
     7
370
    25
100
AcDbLine
 10
83.0651309762
 20
26.6851897923
 30
0.0
 11
83.0651309762
 21
26.6287556085
 31
0.0
  0
SPLINE
  5
85
330
1F
100
AcDbEntity
  8
0
  6
Continuous
 62
     7
370
    25
100
AcDbSpline
210
0.0
220
0.0
230
1.0
 70
     8
 71
     3
 72
    10
 73
     6
 74
     0
 42
0.00000001
 43
0.00000001
 40
0.0
 40
0.0
 40
0.0
 40
0.0
 40
0.5
 40
0.5
 40
1.0
 40
1.0
 40
1.0
 40
1.0
 10
73.18715214594334
 20
10.64862170553284
 30
0.0
 10
73.51599763891367
 20
10.31977621256253
 30
0.0
 10
73.9129447482697
 20
10.03588656509427
 30
0.0
 10
74.77360488710241
 20
9.627456273812534
 30
0.0
 10
75.23532853086041
 20
9.503859702289507
 30
0.0
 10
75.68135538744762
 20
9.464985900318197
 30
0.0
  0
LINE
  5
86
330
1F
100
AcDbEntity
  8
0
  6
Continuous
 62
     7
370
    25
100
AcDbLine
 10
94.1407943594
 20
13.142824947
 30
0.0
 11
94.1407943594
 21
12.1349719128
 31
0.0
  0
LINE
  5
87
330
1F
100
AcDbEntity
  8
0
  6
Continuous
 62
     7
370
    25
100
AcDbLine
 10
94.1407943594
 20
24.005004867
 30
0.0
 11
94.1407943594
 21
22.993301998
 31
0.0
  0
LINE
  5
88
330
1F
100
AcDbEntity
  8
0
  6
Continuous
 62
     7
370
    25
100
AcDbLine
 10
94.1407943594
 20
22.993301998
 30
0.0
 11
94.1407943594
 21
13.142824947
 31
0.0
  0
LINE
  5
89
330
1F
100
AcDbEntity
  8
0
  6
Continuous
 62
     7
370
    25
100
AcDbLine
 10
71.9894675931
 20
10.7199852897
 30
0.0
 11
71.9894675931
 21
13.142824947
 31
0.0
  0
SPLINE
  5
8A
330
1F
100
AcDbEntity
  8
0
  6
Continuous
 62
     7
370
    25
100
AcDbSpline
210
0.0
220
0.0
230
1.0
 70
     8
 71
     3
 72
    14
 73
    10
 74
     0
 42
0.00000001
 43
0.00000001
 40
0.0
 40
0.0
 40
0.0
 40
0.0
 40
0.25
 40
0.25
 40
0.5
 40
0.5
 40
0.75
 40
0.75
 40
1.0
 40
1.0
 40
1.0
 40
1.0
 10
94.14079435938652
 20
10.51964052923398
 30
0.0
 10
94.03920578476306
 20
10.16175445556684
 30
0.0
 10
93.87729630800098
 20
9.80057168609024
 30
0.0
 10
93.42953439782991
 20
9.132477538215285
 30
0.0
 10
93.14362019738678
 20
8.826704985502767
 30
0.0
 10
92.48542612945417
 20
8.327961362458044
 30
0.0
 10
92.11412734719192
 20
8.135733705098042
 30
0.0
 10
91.35135082692257
 20
7.886547750904957
 30
0.0
 10
90.96094722638405
 20
7.829217747585014
 30
0.0
 10
90.59023203897658
 20
7.829217751639458
 30
0.0
  0
LINE
  5
8B
330
1F
100
AcDbEntity
  8
0
  6
Continuous
 62
     7
370
    25
100
AcDbLine
 10
94.1407943594
 20
12.1349719128
 30
0.0
 11
94.1407943594
 21
10.5196405292
 31
0.0
  0
SPLINE
  5
8C
330
1F
100
AcDbEntity
  8
0
  6
Continuous
 62
     7
370
    25
100
AcDbSpline
210
0.0
220
0.0
230
1.0
 70
    24
 71
     3
 72
    12
 73
     8
 74
     0
 42
0.00000001
 43
0.00000001
 40
0.0
 40
0.0
 40
0.0
 40
0.0
 40
0.0170865144115883
 40
0.2957538906932066
 40
0.582829107459385
 40
0.7882326514999963
 40
1.0
 40
1.0
 40
1.0
 40
1.0
 10
94.1407943593859
 20
24.059818824303
 30
0.0
 10
94.14079435938586
 20
24.07864312577121
 30
0.0
 10
94.14079435938531
 20
24.40447671972114
 30
0.0
 10
94.14079435938754
 20
25.14551640502246
 30
0.0
 10
94.14079435938643
 20
26.20096292169274
 30
0.0
 10
94.14079435938693
 20
27.24353354407985
 30
0.0
 10
94.1407943593867
 20
27.88291890531105
 30
0.0
 10
94.14079435938658
 20
28.20748839239354
 30
0.0
  0
SPLINE
  5
8D
330
1F
100
AcDbEntity
  8
0
  6
Continuous
 62
     7
370
    25
100
AcDbSpline
210
0.0
220
0.0
230
1.0
 70
    24
 71
     3
 72
     8
 73
     4
 74
     0
 42
0.00000001
 43
0.00000001
 40
0.0
 40
0.0
 40
0.0
 40
0.0
 40
1.0
 40
1.0
 40
1.0
 40
1.0
 10
71.98946759305984
 20
68.11203682624028
 30
0.0
 10
71.98946759305984
 20
68.18685064959699
 30
0.0
 10
71.98946759305984
 20
68.26154887527585
 30
0.0
 10
71.98946759305984
 20
68.33612479983377
 30
0.0
  0
SPLINE
  5
8E
330
1F
100
AcDbEntity
  8
0
  6
Continuous
 62
     7
370
    25
100
AcDbSpline
210
0.0
220
0.0
230
1.0
 70
    24
 71
     3
 72
    14
 73
    10
 74
     0
 42
0.00000001
 43
0.00000001
 40
0.0
 40
0.0
 40
0.0
 40
0.0
 40
0.0693910299459429
 40
0.2833409086464353
 40
0.4964959481473823
 40
0.6216725442308171
 40
0.7475642202584503
 40
0.873600899340066
 40
1.0
 40
1.0
 40
1.0
 40
1.0
 10
71.98946759305984
 20
15.629587441247
 30
0.0
 10
71.98946759305984
 20
15.84231353780842
 30
0.0
 10
71.98946759305984
 20
16.71092732750827
 30
0.0
 10
71.98946759305984
 20
18.28880348099311
 30
0.0
 10
71.98946759305984
 20
20.14683256991655
 30
0.0
 10
71.98946759305984
 20
21.80371321637264
 30
0.0
 10
71.98946759305984
 20
23.20653779380893
 30
0.0
 10
71.98946759305984
 20
24.66351166511314
 30
0.0
 10
71.98946759305984
 20
25.65794236494593
 30
0.0
 10
71.98946759305984
 20
26.15587156601318
 30
0.0
  0
LINE
  5
8F
330
1F
100
AcDbEntity
  8
0
  6
Continuous
 62
     7
370
    25
100
AcDbLine
 10
94.1407943594
 20
65.9552690324
 30
0.0
 11
94.1407943594
 21
62.3606560425
 31
0.0
  0
LINE
  5
90
330
1F
100
AcDbEntity
  8
0
  6
Continuous
 62
     7
370
    25
100
AcDbLine
 10
71.9894675931
 20
62.3606560425
 30
0.0
 11
71.9894675931
 21
68.1120368262
 31
0.0
  0
LINE
  5
91
330
1F
100
AcDbEntity
  8
0
  6
Continuous
 62
     7
370
    25
100
AcDbLine
 10
71.9894675931
 20
26.155871566
 30
0.0
 11
71.9894675931
 21
62.3606560425
 31
0.0
  0
LINE
  5
92
330
1F
100
AcDbEntity
  8
0
  6
Continuous
 62
     7
370
    25
100
AcDbLine
 10
94.1407943594
 20
28.2074883924
 30
0.0
 11
94.1407943594
 21
62.3606560425
 31
0.0
  0
LINE
  5
93
330
1F
100
AcDbEntity
  8
0
  6
Continuous
 62
     7
370
    25
100
AcDbLine
 10
94.1407943594
 20
9.713969738
 30
0.0
 11
94.1407943594
 21
10.5196405292
 31
0.0
  0
LINE
  5
94
330
1F
100
AcDbEntity
  8
0
  6
Continuous
 62
     7
370
    25
100
AcDbLine
 10
71.9894675931
 20
10.6918877944
 30
0.0
 11
71.9894675931
 21
10.7199852897
 31
0.0
  0
LINE
  5
95
330
1F
100
AcDbEntity
  8
0
  6
Continuous
 62
     7
370
    25
100
AcDbLine
 10
94.1407943594
 20
9.6820294267
 30
0.0
 11
94.1407943594
 21
9.713969738
 31
0.0
  0
SPLINE
  5
96
330
1F
100
AcDbEntity
  8
0
  6
HIDDEN
 62
     7
370
    18
100
AcDbSpline
210
0.0
220
0.0
230
1.0
 70
    24
 71
     3
 72
     9
 73
     5
 74
     0
 42
0.00000001
 43
0.00000001
 40
0.0
 40
0.0
 40
0.0
 40
0.0
 40
0.1961157910508861
 40
1.0
 40
1.0
 40
1.0
 40
1.0
 10
90.59023203897928
 20
25.47925109224941
 30
0.0
 10
90.5902320389793
 20
25.47055023151313
 30
0.0
 10
90.5902320389793
 20
25.42618429499343
 30
0.0
 10
90.59023203897924
 20
25.43832511033676
 30
0.0
 10
90.5902320389792
 20
25.44808492007504
 30
0.0
  0
SPLINE
  5
97
330
1F
100
AcDbEntity
  8
0
  6
HIDDEN
 62
     7
370
    18
100
AcDbSpline
210
0.0
220
0.0
230
1.0
 70
    24
 71
     3
 72
     9
 73
     5
 74
     0
 42
0.00000001
 43
0.00000001
 40
0.0
 40
0.0
 40
0.0
 40
0.0
 40
0.2298455683170608
 40
1.0
 40
1.0
 40
1.0
 40
1.0
 10
83.06513097622319
 20
25.48459491735558
 30
0.0
 10
83.06513097622319
 20
25.47379857981257
 30
0.0
 10
83.06513097622319
 20
25.42682644272913
 30
0.0
 10
83.06513097622319
 20
25.43883583409375
 30
0.0
 10
83.06513097622319
 20
25.44808492007504
 30
0.0
  0
SPLINE
  5
98
330
1F
100
AcDbEntity
  8
0
  6
HIDDEN
 62
     7
370
    18
100
AcDbSpline
210
0.0
220
0.0
230
1.0
 70
     8
 71
     3
 72
    14
 73
    10
 74
     0
 42
0.00000001
 43
0.00000001
 40
0.0
 40
0.0
 40
0.0
 40
0.0
 40
0.25
 40
0.25
 40
0.5
 40
0.5
 40
0.75
 40
0.75
 40
1.0
 40
1.0
 40
1.0
 40
1.0
 10
90.59023203897658
 20
7.829217751639458
 30
0.0
 10
90.96103984742261
 20
7.829270693114752
 30
0.0
 10
91.35154452082274
 20
7.886685732129806
 30
0.0
 10
92.11448997244811
 20
8.136120687884537
 30
0.0
 10
92.48585500218365
 20
8.32851282004899
 30
0.0
 10
93.14409067480548
 20
8.827631223824968
 30
0.0
 10
93.42997897475061
 20
9.133612617190659
 30
0.0
 10
93.8775851856004
 20
9.802099067723974
 30
0.0
 10
94.03936566143676
 20
10.16346364579857
 30
0.0
 10
94.14079435938652
 20
10.52149207626774
 30
0.0
  0
SPLINE
  5
99
330
1F
100
AcDbEntity
  8
0
  6
HIDDEN
 62
     7
370
    18
100
AcDbSpline
210
0.0
220
0.0
230
1.0
 70
     8
 71
     3
 72
    24
 73
    20
 74
     0
 42
0.00000001
 43
0.00000001
 40
0.0
 40
0.0
 40
0.0
 40
0.0
 40
0.1249999999999993
 40
0.1249999999999993
 40
0.1874999999999994
 40
0.1874999999999994
 40
0.2499999999999996
 40
0.2499999999999996
 40
0.3750000000000004
 40
0.3750000000000004
 40
0.5000000000000013
 40
0.5000000000000013
 40
0.7500000000000014
 40
0.7500000000000014
 40
0.8750000000000006
 40
0.8750000000000006
 40
0.9375000000000002
 40
0.9375000000000002
 40
1.0
 40
1.0
 40
1.0
 40
1.0
 10
71.98946759305984
 20
101.6063339139969
 30
0.0
 10
71.98946759305984
 20
101.4222991568312
 30
0.0
 10
72.02985582345656
 20
101.2197820208713
 30
0.0
 10
72.13344572497537
 20
100.8904017172409
 30
0.0
 10
72.17529930020353
 20
100.7763164481779
 30
0.0
 10
72.27204085214672
 20
100.5396631444321
 30
0.0
 10
72.32721618552979
 20
100.4165776885937
 30
0.0
 10
72.50662324852713
 20
100.0425046146841
 30
0.0
 10
72.64525557774968
 20
99.7846449020651
 30
0.0
 10
72.95073460132515
 20
99.2526677356097
 30
0.0
 10
73.11871045915821
 20
98.97695556896771
 30
0.0
 10
73.65020582995112
 20
98.13647016076935
 30
0.0
 10
74.03488266813733
 20
97.56676938601683
 30
0.0
 10
74.6383334179161
 20
96.69340375139596
 30
0.0
 10
74.84482543502115
 20
96.39809521484452
 30
0.0
 10
75.15727846378057
 20
95.9537652235284
 30
0.0
 10
75.26179183626576
 20
95.80555525370013
 30
0.0
 10
75.4713410744298
 20
95.50880160496412
 30
0.0
 10
75.57738497121537
 20
95.35883329080647
 30
0.0
 10
75.68135538744762
 20
95.21179667827384
 30
0.0
  0
SPLINE
  5
9A
330
1F
100
AcDbEntity
  8
0
  6
HIDDEN
 62
     7
370
    18
100
AcDbSpline
210
0.0
220
0.0
230
1.0
 70
     8
 71
     3
 72
    16
 73
    12
 74
     0
 42
0.00000001
 43
0.00000001
 40
0.0
 40
0.0
 40
0.0
 40
0.0
 40
0.2500000000000002
 40
0.2500000000000002
 40
0.5000000000000003
 40
0.5000000000000003
 40
0.7500000000000004
 40
0.7500000000000004
 40
0.8750000000000002
 40
0.8750000000000002
 40
1.0
 40
1.0
 40
1.0
 40
1.0
 10
94.14079435938646
 20
100.9051019548716
 30
0.0
 10
94.00617034217917
 20
100.5141547221435
 30
0.0
 10
93.79477407672354
 20
100.0883787020681
 30
0.0
 10
93.2789570167897
 20
99.1731840252078
 30
0.0
 10
92.98379569827378
 20
98.70200836372467
 30
0.0
 10
92.3484552654778
 20
97.73213705137456
 30
0.0
 10
92.00509965366538
 20
97.22991613276074
 30
0.0
 10
91.48170008855297
 20
96.47732400807479
 30
0.0
 10
91.30522334308735
 20
96.22572449533172
 30
0.0
 10
90.94935427253822
 20
95.72041510447981
 30
0.0
 10
90.76874070864616
 20
95.46498902495205
 30
0.0
 10
90.58970698176503
 20
95.21179667827384
 30
0.0
  0
SPLINE
  5
9B
330
1F
100
AcDbEntity
  8
0
  6
HIDDEN
 62
     7
370
    18
100
AcDbSpline
210
0.0
220
0.0
230
1.0
 70
     8
 71
     3
 72
    14
 73
    10
 74
     0
 42
0.00000001
 43
0.00000001
 40
0.0
 40
0.0
 40
0.0
 40
0.0
 40
0.1872056747726747
 40
0.2994050737428747
 40
0.424047542526954
 40
0.5612891022204789
 40
0.7113264889369832
 40
0.8743247644204488
 40
1.0
 40
1.0
 40
1.0
 40
1.0
 10
90.59023203897877
 20
25.47035151662197
 30
0.0
 10
90.88080551896027
 20
25.45080266485474
 30
0.0
 10
91.3455306097313
 20
25.41953745127581
 30
0.0
 10
91.97364044674003
 20
25.21566804937357
 30
0.0
 10
92.49657876247278
 20
24.96328159381165
 30
0.0
 10
93.02131566814683
 20
24.59435017695823
 30
0.0
 10
93.51056321683981
 20
24.09502433284634
 30
0.0
 10
93.90381507938633
 20
23.53182784775307
 30
0.0
 10
94.05448603865345
 20
23.11005339438243
 30
0.0
 10
94.12008127886502
 20
22.92643209988401
 30
0.0
  0
LINE
  5
9C
330
1F
100
AcDbEntity
  8
0
  6
HIDDEN
 62
     7
370
    18
100
AcDbLine
 10
83.0651309762
 20
25.4287759364
 30
0.0
 11
90.590232039
 21
25.4287759364
 31
0.0
  0
SPLINE
  5
9D
330
1F
100
AcDbEntity
  8
0
  6
HIDDEN
 62
     7
370
    18
100
AcDbSpline
210
0.0
220
0.0
230
1.0
 70
     8
 71
     3
 72
    21
 73
    17
 74
     0
 42
0.00000001
 43
0.00000001
 40
0.0
 40
0.0
 40
0.0
 40
0.0
 40
0.076851023048994
 40
0.1438385908338186
 40
0.2010977305714762
 40
0.2488368069958775
 40
0.2983950448029297
 40
0.360697213372327
 40
0.4157739023925643
 40
0.4779796099440331
 40
0.5472925365641205
 40
0.6236927382449328
 40
0.7071638550247712
 40
0.7976980665281966
 40
0.8953018515580561
 40
1.0
 40
1.0
 40
1.0
 40
1.0
 10
72.00011072134323
 20
14.78460054678999
 30
0.0
 10
72.03003932163686
 20
15.2088705930616
 30
0.0
 10
72.08605533184823
 20
16.00295768738438
 30
0.0
 10
72.29924962024978
 20
17.10974498494706
 30
0.0
 10
72.5651737474123
 20
18.04458058196616
 30
0.0
 10
72.88687360652374
 20
18.86518082294192
 30
0.0
 10
73.29035309738039
 20
19.67979679511994
 30
0.0
 10
73.78089306620014
 20
20.49518167807567
 30
0.0
 10
74.38557946349178
 20
21.32063482779482
 30
0.0
 10
75.08783289119067
 20
22.11940765217648
 30
0.0
 10
75.95617543193026
 20
22.92665997323554
 30
0.0
 10
77.00661380221547
 20
23.70482535396459
 30
0.0
 10
78.2502981656712
 20
24.40969950011337
 30
0.0
 10
79.68965414524382
 20
24.98374269922168
 30
0.0
 10
81.31588539964503
 20
25.39146951416674
 30
0.0
 10
82.46857487142888
 20
25.44582372172807
 30
0.0
 10
83.06513097622319
 20
25.47395387745145
 30
0.0
  0
LINE
  5
9E
330
1F
100
AcDbEntity
  8
0
  6
Continuous
 62
     7
370
    25
100
AcDbLine
 10
94.1407943594
 20
129.5097698171
 30
0.0
 11
74.4699518905
 21
129.5097698171
 31
0.0
  0
SPLINE
  5
9F
330
1F
100
AcDbEntity
  8
0
  6
Continuous
 62
     7
370
    25
100
AcDbSpline
210
0.0
220
0.0
230
1.0
 70
     8
 71
     3
 72
     8
 73
     4
 74
     0
 42
0.00000001
 43
0.00000001
 40
0.0
 40
0.0
 40
0.0
 40
0.0
 40
0.0706744377112788
 40
0.0706744377112788
 40
0.0706744377112788
 40
0.0706744377112788
 10
71.98946759305984
 20
162.5735428470538
 30
0.0
 10
71.98946759305984
 20
151.4340621341672
 30
0.0
 10
72.84992290425646
 20
140.4033117613656
 30
0.0
 10
74.46995189045921
 20
129.5097698170524
 30
0.0
  0
LINE
  5
A0
330
1F
100
AcDbEntity
  8
0
  6
Continuous
 62
     7
370
    25
100
AcDbLine
 10
71.9894675931
 20
180.1737650097
 30
0.0
 11
71.9894675931
 21
162.5735428471
 31
0.0
  0
LINE
  5
A1
330
1F
100
AcDbEntity
  8
0
  6
Continuous
 62
     7
370
    25
100
AcDbLine
 10
94.1407943594
 20
180.1737650097
 30
0.0
 11
94.1407943594
 21
129.5097698171
 31
0.0
  0
SPLINE
  5
A2
330
1F
100
AcDbEntity
  8
0
  6
Continuous
 62
     7
370
    25
100
AcDbSpline
210
0.0
220
0.0
230
1.0
 70
     8
 71
     3
 72
    24
 73
    20
 74
     0
 42
0.00000001
 43
0.00000001
 40
0.0
 40
0.0
 40
0.0
 40
0.0
 40
0.1249999999999993
 40
0.1249999999999993
 40
0.1874999999999994
 40
0.1874999999999994
 40
0.2499999999999996
 40
0.2499999999999996
 40
0.3750000000000004
 40
0.3750000000000004
 40
0.5000000000000013
 40
0.5000000000000013
 40
0.7500000000000014
 40
0.7500000000000014
 40
0.8750000000000006
 40
0.8750000000000006
 40
0.9375000000000002
 40
0.9375000000000002
 40
1.0
 40
1.0
 40
1.0
 40
1.0
 10
71.98946759305984
 20
183.222114358368
 30
0.0
 10
71.98946759305984
 20
183.5408719081376
 30
0.0
 10
72.02985582345656
 20
183.837122388556
 30
0.0
 10
72.13344572497537
 20
184.2530288201221
 30
0.0
 10
72.17529930020353
 20
184.3868682638898
 30
0.0
 10
72.27204085214672
 20
184.6453695521809
 30
0.0
 10
72.32721618552979
 20
184.770447834344
 30
0.0
 10
72.50662324852713
 20
185.1250895925045
 30
0.0
 10
72.64525557774968
 20
185.3368119855546
 30
0.0
 10
72.95073460132515
 20
185.7188238391191
 30
0.0
 10
73.11871045915821
 20
185.8898419249601
 30
0.0
 10
73.65020582995112
 20
186.3398062302829
 30
0.0
 10
74.03488266813733
 20
186.5540424130366
 30
0.0
 10
74.6383334179161
 20
186.7700413629816
 30
0.0
 10
74.84482543502115
 20
186.8241883041614
 30
0.0
 10
75.15727846378057
 20
186.8781435925112
 30
0.0
 10
75.26179183626576
 20
186.8915911640662
 30
0.0
 10
75.4713410744298
 20
186.9095236914045
 30
0.0
 10
75.57738497121537
 20
186.9140021527558
 30
0.0
 10
75.68135538744762
 20
186.9140021527558
 30
0.0
  0
LINE
  5
A3
330
1F
100
AcDbEntity
  8
0
  6
Continuous
 62
     7
370
    25
100
AcDbLine
 10
90.5897069818
 20
186.9140021528
 30
0.0
 11
75.6813553874
 21
186.9140021528
 31
0.0
  0
SPLINE
  5
A4
330
1F
100
AcDbEntity
  8
0
  6
Continuous
 62
     7
370
    25
100
AcDbSpline
210
0.0
220
0.0
230
1.0
 70
     8
 71
     3
 72
    16
 73
    12
 74
     0
 42
0.00000001
 43
0.00000001
 40
0.0
 40
0.0
 40
0.0
 40
0.0
 40
0.2500000000000002
 40
0.2500000000000002
 40
0.5000000000000003
 40
0.5000000000000003
 40
0.7500000000000004
 40
0.7500000000000004
 40
0.8750000000000002
 40
0.8750000000000002
 40
1.0
 40
1.0
 40
1.0
 40
1.0
 10
94.14079435938646
 20
184.2319727260845
 30
0.0
 10
94.00617034217917
 20
184.705367474806
 30
0.0
 10
93.79477407672354
 20
185.1038552331207
 30
0.0
 10
93.2789570167897
 20
185.7875262262794
 30
0.0
 10
92.98379569827378
 20
186.0586580910944
 30
0.0
 10
92.3484552654778
 20
186.4908213817522
 30
0.0
 10
92.00509965366538
 20
186.6513326156094
 30
0.0
 10
91.48170008855297
 20
186.8092571601075
 30
0.0
 10
91.30522334308735
 20
186.8484649146872
 30
0.0
 10
90.94935427253822
 20
186.9008418349387
 30
0.0
 10
90.76874070864616
 20
186.9140021527557
 30
0.0
 10
90.58970698176503
 20
186.9140021527557
 30
0.0
  0
LINE
  5
A5
330
1F
100
AcDbEntity
  8
0
  6
Continuous
 62
     7
370
    25
100
AcDbLine
 10
71.9894675931
 20
183.2221143584
 30
0.0
 11
71.9894675931
 21
180.1737650097
 31
0.0
  0
LINE
  5
A6
330
1F
100
AcDbEntity
  8
0
  6
Continuous
 62
     7
370
    25
100
AcDbLine
 10
94.1407943594
 20
180.1737650097
 30
0.0
 11
94.1407943594
 21
184.2319727261
 31
0.0
  0
SPLINE
  5
A7
330
1F
100
AcDbEntity
  8
0
  6
Continuous
 62
     7
370
    25
100
AcDbSpline
210
0.0
220
0.0
230
1.0
 70
     8
 71
     3
 72
    11
 73
     7
 74
     0
 42
0.00000001
 43
0.00000001
 40
0.0
 40
0.0
 40
0.0
 40
0.0
 40
0.3170677882702006
 40
0.6341355765403972
 40
0.9512033648105946
 40
0.9999999999999999
 40
0.9999999999999999
 40
0.9999999999999999
 40
0.9999999999999999
 10
71.98946759305984
 20
147.5016163196
 30
0.0
 10
72.00265286651803
 20
147.2595580316131
 30
0.0
 10
72.02902341343443
 20
146.7754414556392
 30
0.0
 10
72.25687584407284
 20
146.0848063035159
 30
0.0
 10
72.47913838566869
 20
145.6061230513807
 30
0.0
 10
72.65841291732178
 20
145.3928572740451
 30
0.0
 10
72.68232339715775
 20
145.3644132612694
 30
0.0
  0
LINE
  5
A8
330
1F
100
AcDbEntity
  8
0
  6
Continuous
 62
     7
370
    25
100
AcDbLine
 10
71.9894675931
 20
162.1848750111
 30
0.0
 11
71.9894675931
 21
147.5016163196
 31
0.0
  0
ARC
  5
A9
330
1F
100
AcDbEntity
  8
0
  6
HIDDEN
 62
     7
370
    18
100
AcDbCircle
 10
74.2046002697
 20
168.0918954822
 30
0.0
 40
2.215132676632678
100
AcDbArc
 50
180.0
 51
270.0
  0
LINE
  5
AA
330
1F
100
AcDbEntity
  8
0
  6
HIDDEN
 62
     7
370
    18
100
AcDbLine
 10
94.1407943594
 20
165.8767628055
 30
0.0
 11
74.2046002697
 21
165.8767628055
 31
0.0
  0
SPLINE
  5
AB
330
1F
100
AcDbEntity
  8
0
  6
HIDDEN
 62
     7
370
    18
100
AcDbSpline
210
0.0
220
0.0
230
1.0
 70
     8
 71
     3
 72
     9
 73
     5
 74
     0
 42
0.00000001
 43
0.00000001
 40
0.0
 40
0.0
 40
0.0
 40
0.0
 40
0.3857944362705618
 40
1.0
 40
1.0
 40
1.0
 40
1.0
 10
72.203131189363
 20
162.1242366382959
 30
0.0
 10
72.15166764925605
 20
162.1319745341171
 30
0.0
 10
72.01827137583011
 20
162.1520315776971
 30
0.0
 10
72.00042743859096
 20
162.1723780776582
 30
0.0
 10
71.98946759305984
 20
162.1848750111367
 30
0.0
  0
LINE
  5
AC
330
1F
100
AcDbEntity
  8
0
  6
HIDDEN
 62
     7
370
    18
100
AcDbLine
 10
72.0907696124
 20
163.0409587971
 30
0.0
 11
71.9894675931
 21
162.1848750111
 31
0.0
  0
SPLINE
  5
AD
330
1F
100
AcDbEntity
  8
0
  6
HIDDEN
 62
     7
370
    18
100
AcDbSpline
210
0.0
220
0.0
230
1.0
 70
    24
 71
     3
 72
    22
 73
    18
 74
     0
 42
0.00000001
 43
0.00000001
 40
0.0
 40
0.0
 40
0.0
 40
0.0
 40
0.125
 40
0.125
 40
0.25
 40
0.25
 40
0.375
 40
0.375
 40
0.5
 40
0.5
 40
0.625
 40
0.625
 40
0.75
 40
0.75
 40
0.875
 40
0.875
 40
1.0
 40
1.0
 40
1.0
 40
1.0
 10
75.68135538744762
 20
143.8097285252122
 30
0.0
 10
75.68135538744757
 20
143.8097285252122
 30
0.0
 10
75.72003416814927
 20
143.8097285252122
 30
0.0
 10
75.88921543304431
 20
143.8097285252122
 30
0.0
 10
76.01986619544266
 20
143.8097285252122
 30
0.0
 10
76.37969943677551
 20
143.8097285252122
 30
0.0
 10
76.60896681664501
 20
143.8097285252122
 30
0.0
 10
77.16092108849882
 20
143.8097285252122
 30
0.0
 10
77.4835702201079
 20
143.8097285252122
 30
0.0
 10
78.20445615317212
 20
143.8097285252122
 30
0.0
 10
78.60253066555376
 20
143.8097285252122
 30
0.0
 10
79.44678324892189
 20
143.8097285252122
 30
0.0
 10
79.89274211675398
 20
143.8097285252122
 30
0.0
 10
80.80166237405125
 20
143.8097285252122
 30
0.0
 10
81.26443953078683
 20
143.8097285252122
 30
0.0
 10
82.17867373273958
 20
143.8097285252122
 30
0.0
 10
82.63003782709124
 20
143.8097285252122
 30
0.0
 10
83.06513097622319
 20
143.8097285252122
 30
0.0
  0
SPLINE
  5
AE
330
1F
100
AcDbEntity
  8
0
  6
HIDDEN
 62
     7
370
    18
100
AcDbSpline
210
0.0
220
0.0
230
1.0
 70
     8
 71
     3
 72
    12
 73
     8
 74
     0
 42
0.00000001
 43
0.00000001
 40
0.0
 40
0.0
 40
0.0
 40
0.0
 40
0.1745940557607922
 40
0.380945541820594
 40
0.587297027880396
 40
0.7936485139401976
 40
0.9999999999999999
 40
0.9999999999999999
 40
0.9999999999999999
 40
0.9999999999999999
 10
72.68232339715775
 20
145.3644132612694
 30
0.0
 10
72.8060588612105
 20
145.2013595891162
 30
0.0
 10
73.07603639962443
 20
144.8455939290906
 30
0.0
 10
73.61898361488247
 20
144.4131171487948
 30
0.0
 10
74.25890295602585
 20
144.0700946164756
 30
0.0
 10
74.95659112732126
 20
143.8510448855242
 30
0.0
 10
75.43976730073884
 20
143.8235006453162
 30
0.0
 10
75.68135538744762
 20
143.8097285252122
 30
0.0
  0
LINE
  5
AF
330
1F
100
AcDbEntity
  8
0
  6
HIDDEN
 62
     7
370
    18
100
AcDbLine
 10
83.0651309762
 20
143.8097285252
 30
0.0
 11
90.590232039
 21
143.8097285252
 31
0.0
  0
ARC
  5
B0
330
1F
100
AcDbEntity
  8
0
  6
HIDDEN
 62
     7
370
    18
100
AcDbCircle
 10
90.590232039
 20
147.5016163196
 30
0.0
 40
3.691887794387869
100
AcDbArc
 50
270.0
 51
344.0955434115
  0
LINE
  5
B1
330
1F
100
AcDbEntity
  8
0
  6
HIDDEN
 62
     7
370
    18
100
AcDbLine
 10
71.9894675931
 20
162.1848750111
 30
0.0
 11
71.9894675931
 21
162.5229649951
 31
0.0
  0
SPLINE
  5
B2
330
1F
100
AcDbEntity
  8
0
  6
HIDDEN
 62
     7
370
    18
100
AcDbSpline
210
0.0
220
0.0
230
1.0
 70
     8
 71
     3
 72
    10
 73
     6
 74
     0
 42
0.00000001
 43
0.00000001
 40
0.0
 40
0.0
 40
0.0
 40
0.0
 40
0.5
 40
0.5
 40
1.0
 40
1.0
 40
1.0
 40
1.0
 10
73.18715214594334
 20
144.7796711187519
 30
0.0
 10
73.51599763891367
 20
145.0810024953958
 30
0.0
 10
73.9129447482697
 20
145.454628752377
 30
0.0
 10
74.77360488710241
 20
146.2828434527923
 30
0.0
 10
75.23532853086041
 20
146.7355175070005
 30
0.0
 10
75.68135538744762
 20
147.1798470967391
 30
0.0
  0
LINE
  5
B3
330
1F
100
AcDbEntity
  8
0
  6
HIDDEN
 62
     7
370
    18
100
AcDbLine
 10
72.0830975449
 20
163.0400543085
 30
0.0
 11
72.1923075843
 21
162.1235759817
 31
0.0
  0
SPLINE
  5
B4
330
1F
100
AcDbEntity
  8
0
  6
Continuous
 62
     7
370
    25
100
AcDbSpline
210
0.0
220
0.0
230
1.0
 70
     8
 71
     3
 72
    17
 73
    13
 74
     0
 42
0.00000001
 43
0.00000001
 40
0.0
 40
0.0
 40
0.0
 40
0.0
 40
0.25
 40
0.25
 40
0.25
 40
0.5
 40
0.5
 40
0.5
 40
0.75
 40
0.75
 40
0.75
 40
1.0
 40
1.0
 40
1.0
 40
1.0
 10
230.8767628055245
 20
29.12066373080535
 30
0.0
 10
230.8767628055245
 20
28.61054858293087
 30
0.0
 10
230.7695494762142
 20
28.1006823928082
 30
0.0
 10
230.5641022889609
 20
27.63376814228577
 30
0.0
 10
230.3586551017076
 20
27.16685389176351
 30
0.0
 10
230.0551745903324
 20
26.74334732861779
 30
0.0
 10
229.6790782526409
 20
26.39871852995742
 30
0.0
 10
229.3029819149495
 20
26.05408973129687
 30
0.0
 10
228.8546368527583
 20
25.78867508396025
 30
0.0
 10
228.3715934497241
 20
25.62470394358436
 30
0.0
 10
227.8885500466898
 20
25.46073280320849
 30
0.0
 10
227.3712797940048
 20
25.39836521948687
 30
0.0
 10
226.8631057882759
 20
25.44282468408661
 30
0.0
  0
SPLINE
  5
B5
330
1F
100
AcDbEntity
  8
0
  6
Continuous
 62
     7
370
    25
100
AcDbSpline
210
0.0
220
0.0
230
1.0
 70
     8
 71
     3
 72
    22
 73
    18
 74
     0
 42
0.00000001
 43
0.00000001
 40
0.0
 40
0.0
 40
0.0
 40
0.0
 40
0.0624999999999998
 40
0.0624999999999998
 40
0.1249999999999997
 40
0.1249999999999997
 40
0.2499999999999993
 40
0.2499999999999993
 40
0.374999999999999
 40
0.374999999999999
 40
0.4999999999999987
 40
0.4999999999999987
 40
0.6249999999999983
 40
0.6249999999999983
 40
0.7499999999999993
 40
0.7499999999999993
 40
1.0
 40
1.0
 40
1.0
 40
1.0
 10
227.0966987580962
 20
22.73195895218865
 30
0.0
 10
227.2474423468798
 20
22.71877451983383
 30
0.0
 10
227.3971269050884
 20
22.74175950892148
 30
0.0
 10
227.6808514652287
 20
22.83735191435627
 30
0.0
 10
227.8128469283851
 20
22.90655511002892
 30
0.0
 10
228.1946421963698
 20
23.14495367796115
 30
0.0
 10
228.420428734005
 20
23.3360528159015
 30
0.0
 10
228.8501267094711
 20
23.74177965391737
 30
0.0
 10
229.0530396671487
 20
23.9589445473693
 30
0.0
 10
229.4363078529921
 20
24.41299256379455
 30
0.0
 10
229.614555567897
 20
24.64811333379904
 30
0.0
 10
229.942130727614
 20
25.1358473230427
 30
0.0
 10
230.0915974318684
 20
25.38837631109336
 30
0.0
 10
230.3586433022205
 20
25.91272149096687
 30
0.0
 10
230.4768856935469
 20
26.18640005732105
 30
0.0
 10
230.7680643356046
 20
27.03012308636169
 30
0.0
 10
230.8767628055245
 20
27.60861767453131
 30
0.0
 10
230.8767628055245
 20
28.20748839239355
 30
0.0
  0
LINE
  5
B6
330
1F
100
AcDbEntity
  8
0
  6
Continuous
 62
     7
370
    25
100
AcDbLine
 10
251.9140021528
 20
95.2117966783
 30
0.0
 11
251.9140021528
 21
18.0756633832
 31
0.0
  0
LINE
  5
B7
330
1F
100
AcDbEntity
  8
0
  6
Continuous
 62
     7
370
    25
100
AcDbLine
 10
249.2319727261
 20
100.9051019549
 30
0.0
 11
249.2319727261
 21
18.0756633832
 31
0.0
  0
SPLINE
  5
B8
330
1F
100
AcDbEntity
  8
0
  6
Continuous
 62
     7
370
    25
100
AcDbSpline
210
0.0
220
0.0
230
1.0
 70
     8
 71
     3
 72
    16
 73
    12
 74
     0
 42
0.00000001
 43
0.00000001
 40
0.0
 40
0.0
 40
0.0
 40
0.0
 40
0.2500000000000002
 40
0.2500000000000002
 40
0.5000000000000003
 40
0.5000000000000003
 40
0.7500000000000004
 40
0.7500000000000004
 40
0.8750000000000002
 40
0.8750000000000002
 40
1.0
 40
1.0
 40
1.0
 40
1.0
 10
249.2319727260845
 20
100.9051019548716
 30
0.0
 10
249.7053674748061
 20
100.5141547221435
 30
0.0
 10
250.1038552331207
 20
100.0883787020681
 30
0.0
 10
250.7875262262794
 20
99.1731840252078
 30
0.0
 10
251.0586580910943
 20
98.70200836372467
 30
0.0
 10
251.4908213817522
 20
97.73213705137456
 30
0.0
 10
251.6513326156094
 20
97.22991613276074
 30
0.0
 10
251.8092571601075
 20
96.47732400807479
 30
0.0
 10
251.8484649146872
 20
96.22572449533172
 30
0.0
 10
251.9008418349387
 20
95.72041510447981
 30
0.0
 10
251.9140021527557
 20
95.46498902495205
 30
0.0
 10
251.9140021527557
 20
95.21179667827384
 30
0.0
  0
LINE
  5
B9
330
1F
100
AcDbEntity
  8
0
  6
Continuous
 62
     7
370
    25
100
AcDbLine
 10
230.8767628055
 20
28.2074883924
 30
0.0
 11
230.8767628055
 21
62.3606560425
 31
0.0
  0
ARC
  5
BA
330
1F
100
AcDbEntity
  8
0
  6
Continuous
 62
     7
370
    25
100
AcDbCircle
 10
227.1848750111
 20
62.3606560425
 30
0.0
 40
3.691887794387782
100
AcDbArc
 50
0.0
 51
76.8182891069
  0
SPLINE
  5
BB
330
1F
100
AcDbEntity
  8
0
  6
Continuous
 62
     7
370
    25
100
AcDbSpline
210
0.0
220
0.0
230
1.0
 70
     8
 71
     3
 72
     9
 73
     5
 74
     0
 42
0.00000001
 43
0.00000001
 40
0.1684130128860705
 40
0.1684130128860705
 40
0.1684130128860705
 40
0.1684130128860705
 40
0.3488306383211075
 40
0.508129662953117
 40
0.508129662953117
 40
0.508129662953117
 40
0.508129662953117
 10
228.0267734253302
 20
65.95526903235285
 30
0.0
 10
222.1176878553724
 20
67.33924271318573
 30
0.0
 10
210.9737259224686
 20
69.87057826604244
 30
0.0
 10
199.7616182785718
 20
72.11091810096973
 30
0.0
 10
194.5097698170524
 20
73.1833259220119
 30
0.0
  0
LINE
  5
BC
330
1F
100
AcDbEntity
  8
0
  6
Continuous
 62
     7
370
    25
100
AcDbLine
 10
194.5097698171
 20
73.183325922
 30
0.0
 11
194.5097698171
 21
107.0
 31
0.0
  0
LINE
  5
BD
330
1F
100
AcDbEntity
  8
0
  6
Continuous
 62
     7
370
    25
100
AcDbLine
 10
245.1737650097
 20
102.5674747717
 30
0.0
 11
194.5097698171
 21
107.0
 31
0.0
  0
ARC
  5
BE
330
1F
100
AcDbEntity
  8
0
  6
Continuous
 62
     7
370
    25
100
AcDbCircle
 10
240.8383387696
 20
18.0756633832
 30
0.0
 40
8.393633956492039
100
AcDbArc
 50
265.0
 51
0.0
  0
LINE
  5
BF
330
1F
100
AcDbEntity
  8
0
  6
Continuous
 62
     7
370
    25
100
AcDbLine
 10
240.1067853678
 20
9.713969738
 30
0.0
 11
230.8767628055
 21
10.5214920763
 31
0.0
  0
LINE
  5
C0
330
1F
100
AcDbEntity
  8
0
  6
Continuous
 62
     7
370
    25
100
AcDbLine
 10
230.8767628055
 20
10.5196405292
 30
0.0
 11
230.8767628055
 21
10.5214920763
 31
0.0
  0
LINE
  5
C1
330
1F
100
AcDbEntity
  8
0
  6
Continuous
 62
     7
370
    25
100
AcDbLine
 10
212.4134406046
 20
12.1349719128
 30
0.0
 11
230.8767628055
 21
10.5196405292
 31
0.0
  0
ARC
  5
C2
330
1F
100
AcDbEntity
  8
0
  6
Continuous
 62
     7
370
    25
100
AcDbCircle
 10
212.5016163196
 20
13.142824947
 30
0.0
 40
1.011702869054818
100
AcDbArc
 50
180.0
 51
265.0
  0
LINE
  5
C3
330
1F
100
AcDbEntity
  8
0
  6
Continuous
 62
     7
370
    25
100
AcDbLine
 10
211.4899134505
 20
22.993301998
 30
0.0
 11
211.4899134505
 21
13.142824947
 31
0.0
  0
ARC
  5
C4
330
1F
100
AcDbEntity
  8
0
  6
Continuous
 62
     7
370
    25
100
AcDbCircle
 10
212.5016163196
 20
22.993301998
 30
0.0
 40
1.011702869054817
100
AcDbArc
 50
85.0
 51
180.0
  0
LINE
  5
C5
330
1F
100
AcDbEntity
  8
0
  6
Continuous
 62
     7
370
    25
100
AcDbLine
 10
227.0966992961
 20
22.7319651039
 30
0.0
 11
212.5897920346
 21
24.0011550321
 31
0.0
  0
ARC
  5
C6
330
1F
100
AcDbEntity
  8
0
  6
Continuous
 62
     7
370
    25
100
AcDbCircle
 10
244.530226564
 20
95.2117966783
 30
0.0
 40
7.383775588775555
100
AcDbArc
 50
50.4488214837
 51
85.0
  0
LINE
  5
C7
330
1F
100
AcDbEntity
  8
0
  6
Continuous
 62
     7
370
    25
100
AcDbLine
 10
226.8631057883
 20
25.4428246841
 30
0.0
 11
212.8233855425
 21
26.6711410447
 31
0.0
  0
ARC
  5
C8
330
1F
100
AcDbEntity
  8
0
  6
Continuous
 62
     7
370
    25
100
AcDbCircle
 10
240.8383387696
 20
18.0756633832
 30
0.0
 40
11.07566338316338
100
AcDbArc
 50
265.0
 51
0.0
  0
LINE
  5
C9
330
1F
100
AcDbEntity
  8
0
  6
Continuous
 62
     7
370
    25
100
AcDbLine
 10
239.873031101
 20
7.042146243
 30
0.0
 11
230.8767628055
 21
7.8292177329
 31
0.0
  0
LINE
  5
CA
330
1F
100
AcDbEntity
  8
0
  6
Continuous
 62
     7
370
    25
100
AcDbLine
 10
230.8767628055
 20
7.8292177329
 30
0.0
 11
230.8767628055
 21
7.8292177516
 31
0.0
  0
LINE
  5
CB
330
1F
100
AcDbEntity
  8
0
  6
Continuous
 62
     7
370
    25
100
AcDbLine
 10
230.8767628055
 20
7.8292177516
 30
0.0
 11
212.1798470967
 21
9.4649859003
 31
0.0
  0
SPLINE
  5
CC
330
1F
100
AcDbEntity
  8
0
  6
Continuous
 62
     7
370
    25
100
AcDbSpline
210
0.0
220
0.0
230
1.0
 70
    24
 71
     3
 72
    14
 73
    10
 74
     0
 42
0.00000001
 43
0.00000001
 40
0.0
 40
0.0
 40
0.0
 40
0.0
 40
0.25
 40
0.25
 40
0.5
 40
0.5
 40
0.75
 40
0.75
 40
1.0
 40
1.0
 40
1.0
 40
1.0
 10
230.8767628055246
 20
10.51964052923398
 30
0.0
 10
230.8767628055246
 20
10.16175445556684
 30
0.0
 10
230.8767628055246
 20
9.80057168609024
 30
0.0
 10
230.8767628055246
 20
9.132477538215285
 30
0.0
 10
230.8767628055246
 20
8.826704985502767
 30
0.0
 10
230.8767628055246
 20
8.327961362458044
 30
0.0
 10
230.8767628055246
 20
8.135733705098042
 30
0.0
 10
230.8767628055246
 20
7.886547750904957
 30
0.0
 10
230.8767628055246
 20
7.829217747585014
 30
0.0
 10
230.8767628055246
 20
7.829217751639458
 30
0.0
  0
ARC
  5
CD
330
1F
100
AcDbEntity
  8
0
  6
Continuous
 62
     7
370
    25
100
AcDbCircle
 10
212.5016163196
 20
22.993301998
 30
0.0
 40
3.691887794387809
100
AcDbArc
 50
85.0
 51
180.0
  0
ARC
  5
CE
330
1F
100
AcDbEntity
  8
0
  6
Continuous
 62
     7
370
    25
100
AcDbCircle
 10
212.5016163196
 20
13.142824947
 30
0.0
 40
3.691887794387809
100
AcDbArc
 50
180.0
 51
265.0
  0
LINE
  5
CF
330
1F
100
AcDbEntity
  8
0
  6
Continuous
 62
     7
370
    25
100
AcDbLine
 10
208.8097285252
 20
22.993301998
 30
0.0
 11
208.8097285252
 21
13.142824947
 31
0.0
  0
SPLINE
  5
D0
330
1F
100
AcDbEntity
  8
0
  6
HIDDEN
 62
     7
370
    18
100
AcDbSpline
210
0.0
220
0.0
230
1.0
 70
    24
 71
     3
 72
    10
 73
     6
 74
     0
 42
0.00000001
 43
0.00000001
 40
0.0
 40
0.0
 40
0.0
 40
0.0
 40
0.4164263017205618
 40
0.837777331042978
 40
1.0
 40
1.0
 40
1.0
 40
1.0
 10
230.8767628055245
 20
26.15587156601317
 30
0.0
 10
230.8767628055245
 20
26.49023144359616
 30
0.0
 10
230.8767628055245
 20
27.16290539500593
 30
0.0
 10
230.8767628055245
 20
27.81812264022953
 30
0.0
 10
230.8767628055245
 20
28.08502001505894
 30
0.0
 10
230.8767628055245
 20
28.1592125371176
 30
0.0
  0
SPLINE
  5
D1
330
1F
100
AcDbEntity
  8
0
  6
HIDDEN
 62
     7
370
    18
100
AcDbSpline
210
0.0
220
0.0
230
1.0
 70
    24
 71
     3
 72
    12
 73
     8
 74
     0
 42
0.00000001
 43
0.00000001
 40
0.0
 40
0.0
 40
0.0
 40
0.0
 40
0.5000000000000004
 40
0.5000000000000004
 40
0.7500000000000002
 40
0.7500000000000002
 40
1.0
 40
1.0
 40
1.0
 40
1.0
 10
212.5016163196
 20
13.14282494703696
 30
0.0
 10
212.0059844567602
 20
12.68866202028052
 30
0.0
 10
211.4884374486174
 20
12.21441756269993
 30
0.0
 10
210.777862372312
 20
11.56329546880144
 30
0.0
 10
210.5521353953706
 20
11.3564548030133
 30
0.0
 10
210.1367203782609
 20
10.97579707268068
 30
0.0
 10
209.9470931353104
 20
10.80203571852222
 30
0.0
 10
209.7796711187519
 20
10.64862170553284
 30
0.0
  0
ENDSEC
  0
SECTION
  2
OBJECTS
  0
DICTIONARY
  5
C
330
0
100
AcDbDictionary
281
     1
  3
ACAD_GROUP
350
D
  3
ACAD_LAYOUT
350
1A
  3
ACAD_MLINESTYLE
350
17
  3
ACAD_PLOTSETTINGS
350
19
  3
ACAD_PLOTSTYLENAME
350
E
  3
ACAD_SCALELIST
350
47
  3
DWGPROPS
350
D2
  0
DICTIONARY
  5
D
102
{ACAD_REACTORS
330
C
102
}
330
C
100
AcDbDictionary
281
     1
  0
DICTIONARY
  5
1A
102
{ACAD_REACTORS
330
C
102
}
330
C
100
AcDbDictionary
281
     1
  3
Layout1
350
1E
  3
Layout2
350
26
  3
Model
350
22
  0
DICTIONARY
  5
17
102
{ACAD_REACTORS
330
C
102
}
330
C
100
AcDbDictionary
281
     1
  3
Standard
350
18
  0
DICTIONARY
  5
19
102
{ACAD_REACTORS
330
C
102
}
330
C
100
AcDbDictionary
281
     1
  0
ACDBDICTIONARYWDFLT
  5
E
102
{ACAD_REACTORS
330
C
102
}
330
C
100
AcDbDictionary
281
     1
  3
Normal
350
F
100
AcDbDictionaryWithDefault
340
F
  0
DICTIONARY
  5
47
102
{ACAD_REACTORS
330
C
102
}
330
C
100
AcDbDictionary
281
     1
  3
A0
350
48
  3
A1
350
49
  3
A2
350
4A
  3
A3
350
4B
  3
A4
350
4C
  3
A5
350
4D
  3
A6
350
4E
  3
A7
350
4F
  3
A8
350
50
  3
A9
350
51
  3
B0
350
52
  3
B1
350
53
  3
B2
350
54
  3
B3
350
55
  3
B4
350
56
  3
B5
350
57
  3
B6
350
58
  0
XRECORD
  5
D2
102
{ACAD_REACTORS
330
C
102
}
330
C
100
AcDbXrecord
280
     1
  1
DWGPROPS COOKIE
  2

  3

  4

  6

  7

  8

  9

300
=
301
=
302
=
303
=
304
=
305
=
306
=
307
=
308
=
309
=
 40
0.0
 41
2461213.270595151
 42
2461213.270595498
  1

 90
        0
  0
LAYOUT
  5
1E
102
{ACAD_REACTORS
330
1A
102
}
330
1A
100
AcDbPlotSettings
  1

  2
none_device
  4

  6

 40
0.0
 41
0.0
 42
0.0
 43
0.0
 44
0.0
 45
0.0
 46
0.0
 47
0.0
 48
0.0
 49
0.0
140
0.0
141
0.0
142
1.0
143
1.0
 70
   688
 72
     1
 73
     0
 74
     5
  7

 75
    16
147
1.0
148
0.0
149
0.0
100
AcDbLayout
  1
Layout1
 70
     1
 71
     1
 10
0.0
 20
0.0
 11
420.0
 21
297.0
 12
0.0
 22
0.0
 32
0.0
 14
1.0000000000E+20
 24
1.0000000000E+20
 34
1.0000000000E+20
 15
-1.0000000000E+20
 25
-1.0000000000E+20
 35
-1.0000000000E+20
146
0.0
 13
0.0
 23
0.0
 33
0.0
 16
1.0
 26
0.0
 36
0.0
 17
0.0
 27
1.0
 37
0.0
 76
     0
330
1B
  0
LAYOUT
  5
26
102
{ACAD_REACTORS
330
1A
102
}
330
1A
100
AcDbPlotSettings
  1

  2
none_device
  4

  6

 40
0.0
 41
0.0
 42
0.0
 43
0.0
 44
0.0
 45
0.0
 46
0.0
 47
0.0
 48
0.0
 49
0.0
140
0.0
141
0.0
142
1.0
143
1.0
 70
   688
 72
     1
 73
     0
 74
     5
  7

 75
    16
147
1.0
148
0.0
149
0.0
100
AcDbLayout
  1
Layout2
 70
     1
 71
     2
 10
0.0
 20
0.0
 11
0.0
 21
0.0
 12
0.0
 22
0.0
 32
0.0
 14
0.0
 24
0.0
 34
0.0
 15
0.0
 25
0.0
 35
0.0
146
0.0
 13
0.0
 23
0.0
 33
0.0
 16
1.0
 26
0.0
 36
0.0
 17
0.0
 27
1.0
 37
0.0
 76
     0
330
23
  0
LAYOUT
  5
22
102
{ACAD_REACTORS
330
1A
102
}
330
1A
100
AcDbPlotSettings
  1

  2
none_device
  4
Letter_(8.50_x_11.00_Inches)
  6

 40
6.35
 41
6.35
 42
6.35000508
 43
6.35000508
 44
215.9
 45
279.4
 46
0.0
 47
0.0
 48
0.0
 49
0.0
140
0.0
141
0.0
142
1.0
143
1.0
 70
  1712
 72
     1
 73
     0
 74
     0
  7

 75
     0
147
1.0
148
0.0
149
0.0
100
AcDbLayout
  1
Model
 70
     1
 71
     0
 10
0.0
 20
0.0
 11
297.0
 21
210.0
 12
0.0
 22
0.0
 32
0.0
 14
0.0
 24
0.0
 34
0.0
 15
297.0
 25
210.0
 35
0.0
146
0.0
 13
0.0
 23
0.0
 33
0.0
 16
1.0
 26
0.0
 36
0.0
 17
0.0
 27
1.0
 37
0.0
 76
     0
330
1F
331
29
  0
MLINESTYLE
  5
18
102
{ACAD_REACTORS
330
17
102
}
330
17
100
AcDbMlineStyle
  2
Standard
 70
     0
  3

 62
   256
 51
90.0
 52
90.0
 71
     2
 49
0.5
 62
   256
  6
BYLAYER
 49
-0.5
 62
   256
  6
BYLAYER
  0
ACDBPLACEHOLDER
  5
F
102
{ACAD_REACTORS
330
E
102
}
330
E
  0
SCALE
  5
48
102
{ACAD_REACTORS
330
47
102
}
330
47
100
AcDbScale
 70
     0
300
1:1
140
1.0
141
1.0
290
     1
  0
SCALE
  5
49
102
{ACAD_REACTORS
330
47
102
}
330
47
100
AcDbScale
 70
     0
300
1:2
140
1.0
141
2.0
290
     0
  0
SCALE
  5
4A
102
{ACAD_REACTORS
330
47
102
}
330
47
100
AcDbScale
 70
     0
300
1:4
140
1.0
141
4.0
290
     0
  0
SCALE
  5
4B
102
{ACAD_REACTORS
330
47
102
}
330
47
100
AcDbScale
 70
     0
300
1:5
140
1.0
141
5.0
290
     0
  0
SCALE
  5
4C
102
{ACAD_REACTORS
330
47
102
}
330
47
100
AcDbScale
 70
     0
300
1:8
140
1.0
141
8.0
290
     0
  0
SCALE
  5
4D
102
{ACAD_REACTORS
330
47
102
}
330
47
100
AcDbScale
 70
     0
300
1:10
140
1.0
141
10.0
290
     0
  0
SCALE
  5
4E
102
{ACAD_REACTORS
330
47
102
}
330
47
100
AcDbScale
 70
     0
300
1:16
140
1.0
141
16.0
290
     0
  0
SCALE
  5
4F
102
{ACAD_REACTORS
330
47
102
}
330
47
100
AcDbScale
 70
     0
300
1:20
140
1.0
141
20.0
290
     0
  0
SCALE
  5
50
102
{ACAD_REACTORS
330
47
102
}
330
47
100
AcDbScale
 70
     0
300
1:30
140
1.0
141
30.0
290
     0
  0
SCALE
  5
51
102
{ACAD_REACTORS
330
47
102
}
330
47
100
AcDbScale
 70
     0
300
1:40
140
1.0
141
40.0
290
     0
  0
SCALE
  5
52
102
{ACAD_REACTORS
330
47
102
}
330
47
100
AcDbScale
 70
     0
300
1:50
140
1.0
141
50.0
290
     0
  0
SCALE
  5
53
102
{ACAD_REACTORS
330
47
102
}
330
47
100
AcDbScale
 70
     0
300
1:100
140
1.0
141
100.0
290
     0
  0
SCALE
  5
54
102
{ACAD_REACTORS
330
47
102
}
330
47
100
AcDbScale
 70
     0
300
2:1
140
2.0
141
1.0
290
     0
  0
SCALE
  5
55
102
{ACAD_REACTORS
330
47
102
}
330
47
100
AcDbScale
 70
     0
300
4:1
140
4.0
141
1.0
290
     0
  0
SCALE
  5
56
102
{ACAD_REACTORS
330
47
102
}
330
47
100
AcDbScale
 70
     0
300
8:1
140
8.0
141
1.0
290
     0
  0
SCALE
  5
57
102
{ACAD_REACTORS
330
47
102
}
330
47
100
AcDbScale
 70
     0
300
10:1
140
10.0
141
1.0
290
     0
  0
SCALE
  5
58
102
{ACAD_REACTORS
330
47
102
}
330
47
100
AcDbScale
 70
     0
300
100:1
140
100.0
141
1.0
290
     0
  0
ENDSEC
  0
EOF
