  0
SECTION
  2
HEADER
  9
$ACADVER
  1
AC1015
  9
$ACADMAINTVER
 70
     6
  9
$DWGCODEPAGE
  3
ANSI_936
  9
$INSBASE
 10
0.0
 20
0.0
 30
0.0
  9
$EXTMIN
 10
0.0
 20
0.0
 30
0.0
  9
$EXTMAX
 10
297.0
 20
210.0
 30
0.0
  9
$LIMMIN
 10
0.0
 20
0.0
  9
$LIMMAX
 10
297.0
 20
210.0
  9
$ORTHOMODE
 70
     0
  9
$REGENMODE
 70
     1
  9
$FILLMODE
 70
     1
  9
$QTEXTMODE
 70
     0
  9
$MIRRTEXT
 70
     1
  9
$LTSCALE
 40
1.0
  9
$ATTMODE
 70
     1
  9
$TEXTSIZE
 40
3.5
  9
$TRACEWID
 40
1.0
  9
$TEXTSTYLE
  7
Standard
  9
$CLAYER
  8
0
  9
$CELTYPE
  6
ByLayer
  9
$CECOLOR
 62
   256
  9
$CELTSCALE
 40
1.0
  9
$DISPSILH
 70
     0
  9
$DIMSCALE
 40
1.0
  9
$DIMASZ
 40
4.08
  9
$DIMEXO
 40
0.0
  9
$DIMDLI
 40
3.75
  9
$DIMRND
 40
0.0
  9
$DIMDLE
 40
0.0
  9
$DIMEXE
 40
2.0
  9
$DIMTP
 40
0.0
  9
$DIMTM
 40
0.0
  9
$DIMTXT
 40
3.5
  9
$DIMCEN
 40
2.5
  9
$DIMTSZ
 40
0.0
  9
$DIMTOL
 70
     0
  9
$DIMLIM
 70
     0
  9
$DIMTIH
 70
     1
  9
$DIMTOH
 70
     1
  9
$DIMSE1
 70
     0
  9
$DIMSE2
 70
     0
  9
$DIMTAD
 70
     1
  9
$DIMZIN
 70
     0
  9
$DIMBLK
  1

  9
$DIMASO
 70
     1
  9
$DIMSHO
 70
     1
  9
$DIMPOST
  1

  9
$DIMAPOST
  1

  9
$DIMALT
 70
     0
  9
$DIMALTD
 70
     3
  9
$DIMALTF
 40
0.0393700787
  9
$DIMLFAC
 40
2.0
  9
$DIMTOFL
 70
     1
  9
$DIMTVP
 40
0.0
  9
$DIMTIX
 70
     0
  9
$DIMSOXD
 70
     0
  9
$DIMSAH
 70
     0
  9
$DIMBLK1
  1

  9
$DIMBLK2
  1

  9
$DIMSTYLE
  2
ISO-25
  9
$DIMCLRD
 70
     0
  9
$DIMCLRE
 70
     0
  9
$DIMCLRT
 70
     0
  9
$DIMTFAC
 40
1.0
  9
$DIMGAP
 40
1.524
  9
$DIMJUST
 70
     0
  9
$DIMSD1
 70
     0
  9
$DIMSD2
 70
     0
  9
$DIMTOLJ
 70
     0
  9
$DIMTZIN
 70
     0
  9
$DIMALTZ
 70
     0
  9
$DIMALTTZ
 70
     0
  9
$DIMUPT
 70
     0
  9
$DIMDEC
 70
     2
  9
$DIMTDEC
 70
     2
  9
$DIMALTU
 70
     2
  9
$DIMALTTD
 70
     3
  9
$DIMTXSTY
  7
Standard
  9
$DIMAUNIT
 70
     0
  9
$DIMADEC
 70
     2
  9
$DIMALTRND
 40
0.0
  9
$DIMAZIN
 70
     0
  9
$DIMDSEP
 70
    44
  9
$DIMATFIT
 70
     3
  9
$DIMFRAC
 70
     0
  9
$DIMLDRBLK
  1

  9
$DIMLUNIT
 70
     2
  9
$DIMLWD
 70
    -2
  9
$DIMLWE
 70
    -2
  9
$DIMTMOVE
 70
     0
  9
$LUNITS
 70
     2
  9
$LUPREC
 70
     2
  9
$SKETCHINC
 40
1.0
  9
$FILLETRAD
 40
0.0
  9
$AUNITS
 70
     0
  9
$AUPREC
 70
     2
  9
$MENU
  1
.
  9
$ELEVATION
 40
0.0
  9
$PELEVATION
 40
0.0
  9
$THICKNESS
 40
0.0
  9
$LIMCHECK
 70
     0
  9
$CHAMFERA
 40
0.0
  9
$CHAMFERB
 40
0.0
  9
$CHAMFERC
 40
0.0
  9
$CHAMFERD
 40
0.0
  9
$SKPOLY
 70
     0
  9
$TDCREATE
 40
2461213.409279317
  9
$TDUCREATE
 40
2461213.075945984
  9
$TDUPDATE
 40
2461213.409279618
  9
$TDUUPDATE
 40
2461213.075946285
  9
$TDINDWG
 40
0.0000000116
  9
$TDUSRTIMER
 40
0.0000000116
  9
$USRTIMER
 70
     1
  9
$ANGBASE
 50
0.0
  9
$ANGDIR
 70
     0
  9
$PDMODE
 70
     0
  9
$PDSIZE
 40
-1.0
  9
$PLINEWID
 40
0.0
  9
$SPLFRAME
 70
     0
  9
$SPLINETYPE
 70
     6
  9
$SPLINESEGS
 70
     8
  9
$HANDSEED
  5
130
  9
$SURFTAB1
 70
     6
  9
$SURFTAB2
 70
     6
  9
$SURFTYPE
 70
     6
  9
$SURFU
 70
     6
  9
$SURFV
 70
     6
  9
$UCSBASE
  2

  9
$UCSNAME
  2

  9
$UCSORG
 10
0.0
 20
0.0
 30
0.0
  9
$UCSXDIR
 10
1.0
 20
0.0
 30
0.0
  9
$UCSYDIR
 10
0.0
 20
1.0
 30
0.0
  9
$UCSORTHOREF
  2

  9
$UCSORTHOVIEW
 70
     0
  9
$UCSORGTOP
 10
0.0
 20
0.0
 30
0.0
  9
$UCSORGBOTTOM
 10
0.0
 20
0.0
 30
0.0
  9
$UCSORGLEFT
 10
0.0
 20
0.0
 30
0.0
  9
$UCSORGRIGHT
 10
0.0
 20
0.0
 30
0.0
  9
$UCSORGFRONT
 10
0.0
 20
0.0
 30
0.0
  9
$UCSORGBACK
 10
0.0
 20
0.0
 30
0.0
  9
$PUCSBASE
  2

  9
$PUCSNAME
  2

  9
$PUCSORG
 10
0.0
 20
0.0
 30
0.0
  9
$PUCSXDIR
 10
1.0
 20
0.0
 30
0.0
  9
$PUCSYDIR
 10
0.0
 20
1.0
 30
0.0
  9
$PUCSORTHOREF
  2

  9
$PUCSORTHOVIEW
 70
     0
  9
$PUCSORGTOP
 10
0.0
 20
0.0
 30
0.0
  9
$PUCSORGBOTTOM
 10
0.0
 20
0.0
 30
0.0
  9
$PUCSORGLEFT
 10
0.0
 20
0.0
 30
0.0
  9
$PUCSORGRIGHT
 10
0.0
 20
0.0
 30
0.0
  9
$PUCSORGFRONT
 10
0.0
 20
0.0
 30
0.0
  9
$PUCSORGBACK
 10
0.0
 20
0.0
 30
0.0
  9
$USERI1
 70
     0
  9
$USERI2
 70
     0
  9
$USERI3
 70
     0
  9
$USERI4
 70
     0
  9
$USERI5
 70
     0
  9
$USERR1
 40
0.0
  9
$USERR2
 40
0.0
  9
$USERR3
 40
0.0
  9
$USERR4
 40
0.0
  9
$USERR5
 40
0.0
  9
$WORLDVIEW
 70
     1
  9
$SHADEDGE
 70
     3
  9
$SHADEDIF
 70
    70
  9
$TILEMODE
 70
     1
  9
$MAXACTVP
 70
    64
  9
$PINSBASE
 10
0.0
 20
0.0
 30
0.0
  9
$PLIMCHECK
 70
     0
  9
$PEXTMIN
 10
1.0000000000E+20
 20
1.0000000000E+20
 30
1.0000000000E+20
  9
$PEXTMAX
 10
-1.0000000000E+20
 20
-1.0000000000E+20
 30
-1.0000000000E+20
  9
$PLIMMIN
 10
0.0
 20
0.0
  9
$PLIMMAX
 10
420.0
 20
297.0
  9
$UNITMODE
 70
     0
  9
$VISRETAIN
 70
     1
  9
$PLINEGEN
 70
     0
  9
$PSLTSCALE
 70
     1
  9
$TREEDEPTH
 70
  3020
  9
$CMLSTYLE
  2
Standard
  9
$CMLJUST
 70
     0
  9
$CMLSCALE
 40
20.0
  9
$PROXYGRAPHICS
 70
     1
  9
$MEASUREMENT
 70
     1
  9
$CELWEIGHT
370
    -1
  9
$ENDCAPS
280
     0
  9
$JOINSTYLE
280
     0
  9
$LWDISPLAY
290
     1
  9
$INSUNITS
 70
     4
  9
$HYPERLINKBASE
  1

  9
$STYLESHEET
  1

  9
$XEDIT
290
     1
  9
$CEPSNTYPE
380
     0
  9
$PSTYLEMODE
290
     1
  9
$FINGERPRINTGUID
  2
{26fd095a-ee41-4367-8e89-39097c574316}
  9
$VERSIONGUID
  2
{FAEB1C32-E019-11D5-929B-00C0DF256EC4}
  9
$EXTNAMES
290
     1
  9
$PSVPSCALE
 40
0.0
  9
$OLESTARTUP
290
     0
  0
ENDSEC
  0
SECTION
  2
CLASSES
  0
CLASS
  1
ACDBDICTIONARYWDFLT
  2
AcDbDictionaryWithDefault
  3
ObjectDBX Classes
 90
        0
280
     0
281
     0
  0
CLASS
  1
VISUALSTYLE
  2
AcDbVisualStyle
  3
ObjectDBX Classes
 90
     4095
280
     0
281
     0
  0
CLASS
  1
MATERIAL
  2
AcDbMaterial
  3
ObjectDBX Classes
 90
     1153
280
     0
281
     0
  0
CLASS
  1
SCALE
  2
AcDbScale
  3
ObjectDBX Classes
 90
     1153
280
     0
281
     0
  0
CLASS
  1
TABLESTYLE
  2
AcDbTableStyle
  3
ObjectDBX Classes
 90
     4095
280
     0
281
     0
  0
CLASS
  1
MLEADERSTYLE
  2
AcDbMLeaderStyle
  3
ACDB_MLEADERSTYLE_CLASS
 90
     4095
280
     0
281
     0
  0
CLASS
  1
SUN
  2
AcDbSun
  3
SCENEOE
 90
     1153
280
     0
281
     0
  0
CLASS
  1
ACDBPLACEHOLDER
  2
AcDbPlaceHolder
  3
ObjectDBX Classes
 90
        0
280
     0
281
     0
  0
CLASS
  1
LAYOUT
  2
AcDbLayout
  3
ObjectDBX Classes
 90
        0
280
     0
281
     0
  0
ENDSEC
  0
SECTION
  2
TABLES
  0
TABLE
  2
VPORT
  5
8
330
0
100
AcDbSymbolTable
 70
     1
  0
VPORT
  5
29
330
8
100
AcDbSymbolTableRecord
100
AcDbViewportTableRecord
  2
*Active
 70
     0
 10
0.0
 20
0.0
 11
1.0
 21
1.0
 12
148.5
 22
105.0
 13
0.0
 23
0.0
 14
10.0
 24
10.0
 15
10.0
 25
10.0
 16
0.0
 26
0.0
 36
1.0
 17
0.0
 27
0.0
 37
0.0
 40
210.0
 41
1.4142857143
 42
50.0
 43
0.0
 44
0.0
 50
0.0
 51
0.0
 71
     0
 72
  2000
 73
     1
 74
     3
 75
     0
 76
     0
 77
     0
 78
     0
281
     0
 65
     1
110
0.0
120
0.0
130
0.0
111
1.0
121
0.0
131
0.0
112
0.0
122
1.0
132
0.0
 79
     0
146
0.0
  0
ENDTAB
  0
TABLE
  2
LTYPE
  5
5
330
0
100
AcDbSymbolTable
 70
     6
  0
LTYPE
  5
14
330
5
100
AcDbSymbolTableRecord
100
AcDbLinetypeTableRecord
  2
ByBlock
 70
     0
  3

 72
    65
 73
     0
 40
0.0
  0
LTYPE
  5
15
330
5
100
AcDbSymbolTableRecord
100
AcDbLinetypeTableRecord
  2
ByLayer
 70
     0
  3

 72
    65
 73
     0
 40
0.0
  0
LTYPE
  5
16
330
5
100
AcDbSymbolTableRecord
100
AcDbLinetypeTableRecord
  2
Continuous
 70
     0
  3
Solid line
 72
    65
 73
     0
 40
0.0
  0
LTYPE
  5
5E
330
5
100
AcDbSymbolTableRecord
100
AcDbLinetypeTableRecord
  2
HIDDEN
 70
     0
  3
Hidden __ __ __ __ __ __ __ __ __ __ __ __ __ __
 72
    65
 73
     2
 40
1.905
 49
1.27
 74
     0
 49
-0.635
 74
     0
  0
LTYPE
  5
5F
330
5
100
AcDbSymbolTableRecord
100
AcDbLinetypeTableRecord
  2
PHANTOM
 70
     0
  3
Phantom ______  __  __  ______  __  __  ______
 72
    65
 73
     6
 40
12.7
 49
6.35
 74
     0
 49
-1.27
 74
     0
 49
1.27
 74
     0
 49
-1.27
 74
     0
 49
1.27
 74
     0
 49
-1.27
 74
     0
  0
LTYPE
  5
60
330
5
100
AcDbSymbolTableRecord
100
AcDbLinetypeTableRecord
  2
CENTER
 70
     0
  3
Center ____ _ ____ _ ____ _ ____ _ ____ _ ____
 72
    65
 73
     4
 40
10.16
 49
6.35
 74
     0
 49
-1.27
 74
     0
 49
1.27
 74
     0
 49
-1.27
 74
     0
  0
LTYPE
  5
61
330
5
100
AcDbSymbolTableRecord
100
AcDbLinetypeTableRecord
  2
CENTERX2
 70
     0
  3
Center (2x) ________  __  ________  __  _____
 72
    65
 73
     4
 40
20.32
 49
12.7
 74
     0
 49
-2.54
 74
     0
 49
2.54
 74
     0
 49
-2.54
 74
     0
  0
LTYPE
  5
62
330
5
100
AcDbSymbolTableRecord
100
AcDbLinetypeTableRecord
  2
DOT2
 70
     0
  3
Dot (.5x) ........................................
 72
    65
 73
     2
 40
0.635
 49
0.0
 74
     0
 49
-0.635
 74
     0
  0
ENDTAB
  0
TABLE
  2
LAYER
  5
2
330
0
100
AcDbSymbolTable
 70
    14
  0
LAYER
  5
10
330
2
100
AcDbSymbolTableRecord
100
AcDbLayerTableRecord
  2
0
 70
     0
 62
     7
  6
Continuous
370
    -3
390
F
  0
LAYER
  5
63
330
2
100
AcDbSymbolTableRecord
100
AcDbLayerTableRecord
  2
SLD-0
 70
     0
 62
     7
  6
Continuous
370
    -3
390
F
  0
LAYER
  5
64
330
2
100
AcDbSymbolTableRecord
100
AcDbLayerTableRecord
  2
5
 70
     0
 62
     7
  6
Continuous
370
    -3
390
F
  0
LAYER
  5
65
330
2
100
AcDbSymbolTableRecord
100
AcDbLayerTableRecord
  2
9
 70
     0
 62
     7
  6
Continuous
370
    -3
390
F
  0
LAYER
  5
66
330
2
100
AcDbSymbolTableRecord
100
AcDbLayerTableRecord
  2
10
 70
     0
 62
     7
  6
Continuous
370
    -3
390
F
  0
LAYER
  5
67
330
2
100
AcDbSymbolTableRecord
100
AcDbLayerTableRecord
  2
轮廓实线层
 70
     0
 62
     7
  6
Continuous
370
    50
390
F
  0
LAYER
  5
68
330
2
100
AcDbSymbolTableRecord
100
AcDbLayerTableRecord
  2
细线层
 70
     0
 62
     4
  6
Continuous
370
    25
390
F
  0
LAYER
  5
69
330
2
100
AcDbSymbolTableRecord
100
AcDbLayerTableRecord
  2
中心线层
 70
     0
 62
     1
  6
CENTERX2
370
    25
390
F
  0
LAYER
  5
6A
330
2
100
AcDbSymbolTableRecord
100
AcDbLayerTableRecord
  2
虚线层
 70
     0
 62
     6
  6
HIDDEN
370
    25
390
F
  0
LAYER
  5
6B
330
2
100
AcDbSymbolTableRecord
100
AcDbLayerTableRecord
  2
剖面线层
 70
     0
 62
     2
  6
Continuous
370
    25
390
F
  0
LAYER
  5
6C
330
2
100
AcDbSymbolTableRecord
100
AcDbLayerTableRecord
  2
文字层
 70
     0
 62
     3
  6
Continuous
370
    25
390
F
  0
LAYER
  5
6D
330
2
100
AcDbSymbolTableRecord
100
AcDbLayerTableRecord
  2
标注层
 70
     0
 62
     4
  6
Continuous
370
    25
390
F
  0
LAYER
  5
6E
330
2
100
AcDbSymbolTableRecord
100
AcDbLayerTableRecord
  2
符号标注层
 70
     0
 62
    31
  6
Continuous
370
    25
390
F
  0
LAYER
  5
6F
330
2
100
AcDbSymbolTableRecord
100
AcDbLayerTableRecord
  2
双点划线层
 70
     0
 62
     6
  6
PHANTOM
370
    25
390
F
  0
ENDTAB
  0
TABLE
  2
STYLE
  5
3
330
0
100
AcDbSymbolTable
 70
     1
  0
STYLE
  5
11
330
3
100
AcDbSymbolTableRecord
100
AcDbTextStyleTableRecord
  2
Standard
 70
     0
 40
0.0
 41
1.0
 50
0.0
 71
     0
 42
3.5
  3
txt
  4

  0
ENDTAB
  0
TABLE
  2
VIEW
  5
6
330
0
100
AcDbSymbolTable
 70
     0
  0
ENDTAB
  0
TABLE
  2
UCS
  5
7
330
0
100
AcDbSymbolTable
 70
     0
  0
ENDTAB
  0
TABLE
  2
APPID
  5
9
330
0
100
AcDbSymbolTable
 70
     1
  0
APPID
  5
12
330
9
100
AcDbSymbolTableRecord
100
AcDbRegAppTableRecord
  2
ACAD
 70
     0
  0
ENDTAB
  0
TABLE
  2
DIMSTYLE
  5
A
330
0
100
AcDbSymbolTable
 70
     1
100
AcDbDimStyleTable
  0
DIMSTYLE
105
27
330
A
100
AcDbSymbolTableRecord
100
AcDbDimStyleTableRecord
  2
ISO-25
 70
     0
 41
2.5
 42
0.625
 43
3.75
 44
1.25
 73
     0
 74
     0
 77
     1
 78
     8
140
2.5
141
2.5
143
0.0393700787
147
0.625
171
     3
172
     1
178
     0
271
     2
272
     2
274
     3
278
    44
283
     0
284
     8
340
11
  0
ENDTAB
  0
TABLE
  2
BLOCK_RECORD
  5
1
330
0
100
AcDbSymbolTable
 70
     6
  0
BLOCK_RECORD
  5
1F
330
1
100
AcDbSymbolTableRecord
100
AcDbBlockTableRecord
  2
*Model_Space
340
22
  0
BLOCK_RECORD
  5
1B
330
1
100
AcDbSymbolTableRecord
100
AcDbBlockTableRecord
  2
*Paper_Space
340
1E
  0
BLOCK_RECORD
  5
23
330
1
100
AcDbSymbolTableRecord
100
AcDbBlockTableRecord
  2
*Paper_Space0
340
26
  0
BLOCK_RECORD
  5
A1
330
1
100
AcDbSymbolTableRecord
100
AcDbBlockTableRecord
  2
SW_CENTERMARKSYMBOL_0
340
0
102
{BLKREFS
331
AC
102
}
  0
BLOCK_RECORD
  5
AD
330
1
100
AcDbSymbolTableRecord
100
AcDbBlockTableRecord
  2
SW_CENTERMARKSYMBOL_1
340
0
102
{BLKREFS
331
B8
102
}
  0
BLOCK_RECORD
  5
B9
330
1
100
AcDbSymbolTableRecord
100
AcDbBlockTableRecord
  2
SW_CENTERMARKSYMBOL_2
340
0
102
{BLKREFS
331
C4
102
}
  0
BLOCK_RECORD
  5
117
330
1
100
AcDbSymbolTableRecord
100
AcDbBlockTableRecord
  2
SW_CENTERMARKSYMBOL_3
340
0
102
{BLKREFS
331
122
102
}
  0
BLOCK_RECORD
  5
123
330
1
100
AcDbSymbolTableRecord
100
AcDbBlockTableRecord
  2
SW_CENTERMARKSYMBOL_4
340
0
102
{BLKREFS
331
12E
102
}
  0
ENDTAB
  0
ENDSEC
  0
SECTION
  2
BLOCKS
  0
BLOCK
  5
20
330
1F
100
AcDbEntity
  8
0
100
AcDbBlockBegin
  2
*Model_Space
 70
     0
 10
0.0
 20
0.0
 30
0.0
  3
*Model_Space
  1

  0
ENDBLK
  5
21
330
1F
100
AcDbEntity
  8
0
100
AcDbBlockEnd
  0
BLOCK
  5
1C
330
1B
100
AcDbEntity
 67
     1
  8
0
100
AcDbBlockBegin
  2
*Paper_Space
 70
     0
 10
0.0
 20
0.0
 30
0.0
  3
*Paper_Space
  1

  0
ENDBLK
  5
1D
330
1B
100
AcDbEntity
 67
     1
  8
0
100
AcDbBlockEnd
  0
BLOCK
  5
24
330
23
100
AcDbEntity
  8
0
100
AcDbBlockBegin
  2
*Paper_Space0
 70
     0
 10
0.0
 20
0.0
 30
0.0
  3
*Paper_Space0
  1

  0
ENDBLK
  5
25
330
23
100
AcDbEntity
  8
0
100
AcDbBlockEnd
  0
BLOCK
  5
A2
330
A1
100
AcDbEntity
  8
0
100
AcDbBlockBegin
  2
SW_CENTERMARKSYMBOL_0
 70
     0
 10
0.0
 20
0.0
 30
0.0
  3
SW_CENTERMARKSYMBOL_0
  1

  0
LINE
  5
A4
330
A1
100
AcDbEntity
  8
10
 62
     0
100
AcDbLine
 10
0.0
 20
0.0
 30
0.0
 11
0.0
 21
2.5
 31
0.0
  0
LINE
  5
A5
330
A1
100
AcDbEntity
  8
10
 62
     0
100
AcDbLine
 10
0.0
 20
0.0
 30
0.0
 11
-2.5
 21
0.0
 31
0.0
  0
LINE
  5
A6
330
A1
100
AcDbEntity
  8
10
 62
     0
100
AcDbLine
 10
0.0
 20
0.0
 30
0.0
 11
0.0
 21
-2.5
 31
0.0
  0
LINE
  5
A7
330
A1
100
AcDbEntity
  8
10
 62
     0
100
AcDbLine
 10
0.0
 20
0.0
 30
0.0
 11
2.5
 21
0.0
 31
0.0
  0
LINE
  5
A8
330
A1
100
AcDbEntity
  8
10
 62
     0
100
AcDbLine
 10
0.0
 20
5.0
 30
0.0
 11
0.0
 21
5.5
 31
0.0
  0
LINE
  5
A9
330
A1
100
AcDbEntity
  8
10
 62
     0
100
AcDbLine
 10
-5.0
 20
0.0
 30
0.0
 11
-5.5
 21
0.0
 31
0.0
  0
LINE
  5
AA
330
A1
100
AcDbEntity
  8
10
 62
     0
100
AcDbLine
 10
0.0
 20
-5.0
 30
0.0
 11
0.0
 21
-5.5
 31
0.0
  0
LINE
  5
AB
330
A1
100
AcDbEntity
  8
10
 62
     0
100
AcDbLine
 10
5.0
 20
0.0
 30
0.0
 11
5.5
 21
0.0
 31
0.0
  0
ENDBLK
  5
A3
330
A1
100
AcDbEntity
  8
0
100
AcDbBlockEnd
  0
BLOCK
  5
AE
330
AD
100
AcDbEntity
  8
0
100
AcDbBlockBegin
  2
SW_CENTERMARKSYMBOL_1
 70
     0
 10
0.0
 20
0.0
 30
0.0
  3
SW_CENTERMARKSYMBOL_1
  1

  0
LINE
  5
B0
330
AD
100
AcDbEntity
  8
10
 62
     0
100
AcDbLine
 10
0.0
 20
0.0
 30
0.0
 11
0.0
 21
2.5
 31
0.0
  0
LINE
  5
B1
330
AD
100
AcDbEntity
  8
10
 62
     0
100
AcDbLine
 10
0.0
 20
0.0
 30
0.0
 11
-2.5
 21
0.0
 31
0.0
  0
LINE
  5
B2
330
AD
100
AcDbEntity
  8
10
 62
     0
100
AcDbLine
 10
0.0
 20
0.0
 30
0.0
 11
0.0
 21
-2.5
 31
0.0
  0
LINE
  5
B3
330
AD
100
AcDbEntity
  8
10
 62
     0
100
AcDbLine
 10
0.0
 20
0.0
 30
0.0
 11
2.5
 21
0.0
 31
0.0
  0
LINE
  5
B4
330
AD
100
AcDbEntity
  8
10
 62
     0
100
AcDbLine
 10
0.0
 20
5.0
 30
0.0
 11
0.0
 21
5.5
 31
0.0
  0
LINE
  5
B5
330
AD
100
AcDbEntity
  8
10
 62
     0
100
AcDbLine
 10
-5.0
 20
0.0
 30
0.0
 11
-5.5
 21
0.0
 31
0.0
  0
LINE
  5
B6
330
AD
100
AcDbEntity
  8
10
 62
     0
100
AcDbLine
 10
0.0
 20
-5.0
 30
0.0
 11
0.0
 21
-5.5
 31
0.0
  0
LINE
  5
B7
330
AD
100
AcDbEntity
  8
10
 62
     0
100
AcDbLine
 10
5.0
 20
0.0
 30
0.0
 11
5.5
 21
0.0
 31
0.0
  0
ENDBLK
  5
AF
330
AD
100
AcDbEntity
  8
0
100
AcDbBlockEnd
  0
BLOCK
  5
BA
330
B9
100
AcDbEntity
  8
0
100
AcDbBlockBegin
  2
SW_CENTERMARKSYMBOL_2
 70
     0
 10
0.0
 20
0.0
 30
0.0
  3
SW_CENTERMARKSYMBOL_2
  1

  0
LINE
  5
BC
330
B9
100
AcDbEntity
  8
10
 62
     0
100
AcDbLine
 10
0.0
 20
0.0
 30
0.0
 11
0.0
 21
2.5
 31
0.0
  0
LINE
  5
BD
330
B9
100
AcDbEntity
  8
10
 62
     0
100
AcDbLine
 10
0.0
 20
0.0
 30
0.0
 11
-2.5
 21
0.0
 31
0.0
  0
LINE
  5
BE
330
B9
100
AcDbEntity
  8
10
 62
     0
100
AcDbLine
 10
0.0
 20
0.0
 30
0.0
 11
0.0
 21
-2.5
 31
0.0
  0
LINE
  5
BF
330
B9
100
AcDbEntity
  8
10
 62
     0
100
AcDbLine
 10
0.0
 20
0.0
 30
0.0
 11
2.5
 21
0.0
 31
0.0
  0
LINE
  5
C0
330
B9
100
AcDbEntity
  8
10
 62
     0
100
AcDbLine
 10
0.0
 20
5.0
 30
0.0
 11
0.0
 21
5.5
 31
0.0
  0
LINE
  5
C1
330
B9
100
AcDbEntity
  8
10
 62
     0
100
AcDbLine
 10
-5.0
 20
0.0
 30
0.0
 11
-5.5
 21
0.0
 31
0.0
  0
LINE
  5
C2
330
B9
100
AcDbEntity
  8
10
 62
     0
100
AcDbLine
 10
0.0
 20
-5.0
 30
0.0
 11
0.0
 21
-5.5
 31
0.0
  0
LINE
  5
C3
330
B9
100
AcDbEntity
  8
10
 62
     0
100
AcDbLine
 10
5.0
 20
0.0
 30
0.0
 11
5.5
 21
0.0
 31
0.0
  0
ENDBLK
  5
BB
330
B9
100
AcDbEntity
  8
0
100
AcDbBlockEnd
  0
BLOCK
  5
118
330
117
100
AcDbEntity
  8
0
100
AcDbBlockBegin
  2
SW_CENTERMARKSYMBOL_3
 70
     0
 10
0.0
 20
0.0
 30
0.0
  3
SW_CENTERMARKSYMBOL_3
  1

  0
LINE
  5
11A
330
117
100
AcDbEntity
  8
10
 62
     0
100
AcDbLine
 10
0.0
 20
0.0
 30
0.0
 11
0.0
 21
2.5
 31
0.0
  0
LINE
  5
11B
330
117
100
AcDbEntity
  8
10
 62
     0
100
AcDbLine
 10
0.0
 20
0.0
 30
0.0
 11
-2.5
 21
0.0
 31
0.0
  0
LINE
  5
11C
330
117
100
AcDbEntity
  8
10
 62
     0
100
AcDbLine
 10
0.0
 20
0.0
 30
0.0
 11
0.0
 21
-2.5
 31
0.0
  0
LINE
  5
11D
330
117
100
AcDbEntity
  8
10
 62
     0
100
AcDbLine
 10
0.0
 20
0.0
 30
0.0
 11
2.5
 21
0.0
 31
0.0
  0
LINE
  5
11E
330
117
100
AcDbEntity
  8
10
 62
     0
100
AcDbLine
 10
0.0
 20
5.0
 30
0.0
 11
0.0
 21
5.5
 31
0.0
  0
LINE
  5
11F
330
117
100
AcDbEntity
  8
10
 62
     0
100
AcDbLine
 10
-5.0
 20
0.0
 30
0.0
 11
-5.5
 21
0.0
 31
0.0
  0
LINE
  5
120
330
117
100
AcDbEntity
  8
10
 62
     0
100
AcDbLine
 10
0.0
 20
-5.0
 30
0.0
 11
0.0
 21
-5.5
 31
0.0
  0
LINE
  5
121
330
117
100
AcDbEntity
  8
10
 62
     0
100
AcDbLine
 10
5.0
 20
0.0
 30
0.0
 11
5.5
 21
0.0
 31
0.0
  0
ENDBLK
  5
119
330
117
100
AcDbEntity
  8
0
100
AcDbBlockEnd
  0
BLOCK
  5
124
330
123
100
AcDbEntity
  8
0
100
AcDbBlockBegin
  2
SW_CENTERMARKSYMBOL_4
 70
     0
 10
0.0
 20
0.0
 30
0.0
  3
SW_CENTERMARKSYMBOL_4
  1

  0
LINE
  5
126
330
123
100
AcDbEntity
  8
10
 62
     0
100
AcDbLine
 10
0.0
 20
0.0
 30
0.0
 11
0.0
 21
2.5
 31
0.0
  0
LINE
  5
127
330
123
100
AcDbEntity
  8
10
 62
     0
100
AcDbLine
 10
0.0
 20
0.0
 30
0.0
 11
-2.5
 21
0.0
 31
0.0
  0
LINE
  5
128
330
123
100
AcDbEntity
  8
10
 62
     0
100
AcDbLine
 10
0.0
 20
0.0
 30
0.0
 11
0.0
 21
-2.5
 31
0.0
  0
LINE
  5
129
330
123
100
AcDbEntity
  8
10
 62
     0
100
AcDbLine
 10
0.0
 20
0.0
 30
0.0
 11
2.5
 21
0.0
 31
0.0
  0
LINE
  5
12A
330
123
100
AcDbEntity
  8
10
 62
     0
100
AcDbLine
 10
0.0
 20
5.0
 30
0.0
 11
0.0
 21
5.5
 31
0.0
  0
LINE
  5
12B
330
123
100
AcDbEntity
  8
10
 62
     0
100
AcDbLine
 10
-5.0
 20
0.0
 30
0.0
 11
-5.5
 21
0.0
 31
0.0
  0
LINE
  5
12C
330
123
100
AcDbEntity
  8
10
 62
     0
100
AcDbLine
 10
0.0
 20
-5.0
 30
0.0
 11
0.0
 21
-5.5
 31
0.0
  0
LINE
  5
12D
330
123
100
AcDbEntity
  8
10
 62
     0
100
AcDbLine
 10
5.0
 20
0.0
 30
0.0
 11
5.5
 21
0.0
 31
0.0
  0
ENDBLK
  5
125
330
123
100
AcDbEntity
  8
0
100
AcDbBlockEnd
  0
ENDSEC
  0
SECTION
  2
ENTITIES
  0
ARC
  5
70
330
1F
100
AcDbEntity
  8
0
  6
Continuous
 62
     7
370
    25
100
AcDbCircle
 10
46.539182515
 20
25.8709863212
 30
0.0
 40
2.000000000000007
100
AcDbArc
 50
180.0
 51
0.0
  0
ARC
  5
71
330
1F
100
AcDbEntity
  8
0
  6
Continuous
 62
     7
370
    25
100
AcDbCircle
 10
46.539182515
 20
88.1290136788
 30
0.0
 40
2.000000000000007
100
AcDbArc
 50
0.0
 51
180.0
  0
LINE
  5
72
330
1F
100
AcDbEntity
  8
0
  6
Continuous
 62
     7
370
    25
100
AcDbLine
 10
44.539182515
 20
88.1290136788
 30
0.0
 11
44.539182515
 21
25.8709863212
 31
0.0
  0
LINE
  5
73
330
1F
100
AcDbEntity
  8
0
  6
Continuous
 62
     7
370
    25
100
AcDbLine
 10
48.539182515
 20
88.1290136788
 30
0.0
 11
48.539182515
 21
25.8709863212
 31
0.0
  0
LINE
  5
74
330
1F
100
AcDbEntity
  8
0
  6
Continuous
 62
     7
370
    25
100
AcDbLine
 10
122.539182515
 20
7.0
 30
0.0
 11
120.539182515
 21
7.0
 31
0.0
  0
LINE
  5
75
330
1F
100
AcDbEntity
  8
0
  6
Continuous
 62
     7
370
    25
100
AcDbLine
 10
122.539182515
 20
107.0
 30
0.0
 11
120.539182515
 21
107.0
 31
0.0
  0
LINE
  5
76
330
1F
100
AcDbEntity
  8
0
  6
Continuous
 62
     7
370
    25
100
AcDbLine
 10
122.539182515
 20
107.0
 30
0.0
 11
122.539182515
 21
7.0
 31
0.0
  0
ARC
  5
77
330
1F
100
AcDbEntity
  8
0
  6
Continuous
 62
     7
370
    25
100
AcDbCircle
 10
90.539182515
 20
104.1437039865
 30
0.0
 40
2.0
100
AcDbArc
 50
110.0
 51
180.0
  0
CIRCLE
  5
78
330
1F
100
AcDbEntity
  8
0
  6
Continuous
 62
     7
370
    25
100
AcDbCircle
 10
106.539182515
 20
57.0
 30
0.0
 40
6.000000000000014
  0
CIRCLE
  5
79
330
1F
100
AcDbEntity
  8
0
  6
Continuous
 62
     7
370
    25
100
AcDbCircle
 10
106.539182515
 20
57.0
 30
0.0
 40
3.0
  0
ARC
  5
7A
330
1F
100
AcDbEntity
  8
0
  6
Continuous
 62
     7
370
    25
100
AcDbCircle
 10
90.539182515
 20
9.8562960135
 30
0.0
 40
2.0
100
AcDbArc
 50
180.0
 51
250.0
  0
CIRCLE
  5
7B
330
1F
100
AcDbEntity
  8
0
  6
Continuous
 62
     7
370
    25
100
AcDbCircle
 10
106.539182515
 20
83.0
 30
0.0
 40
6.000000000000014
  0
CIRCLE
  5
7C
330
1F
100
AcDbEntity
  8
0
  6
Continuous
 62
     7
370
    25
100
AcDbCircle
 10
106.539182515
 20
83.0
 30
0.0
 40
3.0
  0
LINE
  5
7D
330
1F
100
AcDbEntity
  8
0
  6
Continuous
 62
     7
370
    25
100
AcDbLine
 10
89.8551422284
 20
106.0230892281
 30
0.0
 11
92.539182515
 21
107.0
 31
0.0
  0
LINE
  5
7E
330
1F
100
AcDbEntity
  8
0
  6
Continuous
 62
     7
370
    25
100
AcDbLine
 10
92.539182515
 20
107.0
 30
0.0
 11
98.3867913154
 21
107.0
 31
0.0
  0
LINE
  5
7F
330
1F
100
AcDbEntity
  8
0
  6
Continuous
 62
     7
370
    25
100
AcDbLine
 10
88.539182515
 20
104.1437039865
 30
0.0
 11
88.539182515
 21
9.8562960135
 31
0.0
  0
LINE
  5
80
330
1F
100
AcDbEntity
  8
0
  6
Continuous
 62
     7
370
    25
100
AcDbLine
 10
92.539182515
 20
7.0
 30
0.0
 11
89.8551422284
 21
7.9769107719
 31
0.0
  0
LINE
  5
81
330
1F
100
AcDbEntity
  8
0
  6
Continuous
 62
     7
370
    25
100
AcDbLine
 10
98.3867913154
 20
7.0
 30
0.0
 11
92.539182515
 21
7.0
 31
0.0
  0
CIRCLE
  5
82
330
1F
100
AcDbEntity
  8
0
  6
Continuous
 62
     7
370
    25
100
AcDbCircle
 10
106.539182515
 20
31.0
 30
0.0
 40
6.000000000000014
  0
LINE
  5
83
330
1F
100
AcDbEntity
  8
0
  6
Continuous
 62
     7
370
    25
100
AcDbLine
 10
120.539182515
 20
107.0
 30
0.0
 11
98.3867913154
 21
107.0
 31
0.0
  0
LINE
  5
84
330
1F
100
AcDbEntity
  8
0
  6
Continuous
 62
     7
370
    25
100
AcDbLine
 10
120.539182515
 20
7.0
 30
0.0
 11
98.3867913154
 21
7.0
 31
0.0
  0
CIRCLE
  5
85
330
1F
100
AcDbEntity
  8
0
  6
Continuous
 62
     7
370
    25
100
AcDbCircle
 10
106.539182515
 20
31.0
 30
0.0
 40
3.0
  0
SPLINE
  5
86
330
1F
100
AcDbEntity
  8
0
  6
Continuous
 62
     7
370
    25
100
AcDbSpline
210
0.0
220
0.0
230
1.0
 70
     8
 71
     3
 72
    20
 73
    16
 74
     0
 42
0.00000001
 43
0.00000001
 40
0.0
 40
0.0
 40
0.0
 40
0.0
 40
0.1250000000000003
 40
0.1250000000000003
 40
0.2500000000000006
 40
0.2500000000000006
 40
0.3750000000000008
 40
0.3750000000000008
 40
0.5000000000000011
 40
0.5000000000000011
 40
0.750000000000001
 40
0.750000000000001
 40
0.8750000000000004
 40
0.8750000000000004
 40
1.0
 40
1.0
 40
1.0
 40
1.0
 10
88.53918251503983
 20
17.00401005031295
 30
0.0
 10
88.53918251503983
 20
16.65428220171994
 30
0.0
 10
88.53864935252359
 20
16.32029806901627
 30
0.0
 10
88.52807526713121
 20
15.68065159146233
 30
0.0
 10
88.51792223724611
 20
15.38158869289016
 30
0.0
 10
88.47788825973056
 20
14.83038289090456
 30
0.0
 10
88.44749373005092
 20
14.57528959301328
 30
0.0
 10
88.35903543413532
 20
14.11914965811103
 30
0.0
 10
88.30092185186717
 20
13.91555471925144
 30
0.0
 10
88.07397860903923
 20
13.36323170972124
 30
0.0
 10
87.85903604603968
 20
13.09007349389339
 30
0.0
 10
87.43398710407361
 20
12.72960375337039
 30
0.0
 10
87.274850202664
 20
12.61743157354173
 30
0.0
 10
86.92802597623961
 20
12.3964464667695
 30
0.0
 10
86.74011801949763
 20
12.28727219632505
 30
0.0
 10
86.53918251504004
 20
12.17206965217249
 30
0.0
  0
SPLINE
  5
87
330
1F
100
AcDbEntity
  8
0
  6
Continuous
 62
     7
370
    25
100
AcDbSpline
210
0.0
220
0.0
230
1.0
 70
     8
 71
     3
 72
    22
 73
    18
 74
     0
 42
0.00000001
 43
0.00000001
 40
0.0
 40
0.0
 40
0.0
 40
0.0
 40
0.2499999999999992
 40
0.2499999999999992
 40
0.3749999999999992
 40
0.3749999999999992
 40
0.4999999999999992
 40
0.4999999999999992
 40
0.6249999999999992
 40
0.6249999999999992
 40
0.6874999999999993
 40
0.6874999999999993
 40
0.7499999999999994
 40
0.7499999999999994
 40
0.8749999999999998
 40
0.8749999999999998
 40
1.0
 40
1.0
 40
1.0
 40
1.0
 10
86.53918251504004
 20
101.8279303478275
 30
0.0
 10
86.94165963919696
 20
101.5971777548936
 30
0.0
 10
87.2885384646171
 20
101.3928110786106
 30
0.0
 10
87.71262902236904
 20
101.0345461638724
 30
0.0
 10
87.83806138763812
 20
100.9063672085461
 30
0.0
 10
88.05652412524667
 20
100.6158750266982
 30
0.0
 10
88.14948048773256
 20
100.4526962705383
 30
0.0
 10
88.29989663079418
 20
100.0872572921627
 30
0.0
 10
88.35828557374576
 20
99.88419390591696
 30
0.0
 10
88.42521741649583
 20
99.53983783930717
 30
0.0
 10
88.44409164289115
 20
99.41804680412802
 30
0.0
 10
88.47526692772391
 20
99.16534983739186
 30
0.0
 10
88.48770717033725
 20
99.03386408376063
 30
0.0
 10
88.51766648887016
 20
98.62303856546717
 30
0.0
 10
88.52786783266895
 20
98.32757444485243
 30
0.0
 10
88.53864225006241
 20
97.68436799686947
 30
0.0
 10
88.53918251503983
 20
97.34726354415326
 30
0.0
 10
88.53918251503983
 20
96.9959899496849
 30
0.0
  0
SPLINE
  5
88
330
1F
100
AcDbEntity
  8
0
  6
Continuous
 62
     7
370
    25
100
AcDbSpline
210
0.0
220
0.0
230
1.0
 70
     8
 71
     3
 72
    46
 73
    42
 74
     0
 42
0.00000001
 43
0.00000001
 40
0.0
 40
0.0
 40
0.0
 40
0.0
 40
0.1249999999999999
 40
0.1249999999999999
 40
0.1874999999999999
 40
0.1874999999999999
 40
0.2499999999999999
 40
0.2499999999999999
 40
0.3124999999999999
 40
0.3124999999999999
 40
0.375
 40
0.375
 40
0.4062499999999999
 40
0.4062499999999999
 40
0.4374999999999999
 40
0.4374999999999999
 40
0.4687499999999999
 40
0.4687499999999999
 40
0.4843749999999999
 40
0.4843749999999999
 40
0.4999999999999999
 40
0.4999999999999999
 40
0.5156249999999999
 40
0.5156249999999999
 40
0.5312499999999999
 40
0.5312499999999999
 40
0.5624999999999998
 40
0.5624999999999998
 40
0.5937499999999998
 40
0.5937499999999998
 40
0.6249999999999998
 40
0.6249999999999998
 40
0.7499999999999999
 40
0.7499999999999999
 40
0.8124999999999999
 40
0.8124999999999999
 40
0.875
 40
0.875
 40
0.9375
 40
0.9375
 40
1.0
 40
1.0
 40
1.0
 40
1.0
 10
86.53918251504015
 20
101.8279303478279
 30
0.0
 10
86.05157347916926
 20
101.5876462097456
 30
0.0
 10
85.51770210493862
 20
101.2606059240655
 30
0.0
 10
84.65886646591996
 20
100.6847564575499
 30
0.0
 10
84.36172880565191
 20
100.4771912635344
 30
0.0
 10
83.7635050203878
 20
100.046225052425
 30
0.0
 10
83.4606706561584
 20
99.82170393436095
 30
0.0
 10
82.84849393019195
 20
99.35640108477953
 30
0.0
 10
82.53910218168886
 20
99.11566573890158
 30
0.0
 10
81.91570067199522
 20
98.61701298690265
 30
0.0
 10
81.60045689417504
 20
98.35854243246666
 30
0.0
 10
81.13290881367531
 20
97.95566732373527
 30
0.0
 10
80.97805549105125
 20
97.81889344986958
 30
0.0
 10
80.67318330115303
 20
97.53717925175751
 30
0.0
 10
80.52310803644082
 20
97.39260055925803
 30
0.0
 10
80.23744850515851
 20
97.0887859205904
 30
0.0
 10
80.09924098869614
 20
96.92906715107097
 30
0.0
 10
79.93123249828632
 20
96.66269211758596
 30
0.0
 10
79.8818265246502
 20
96.56820635991505
 30
0.0
 10
79.81440625684459
 20
96.3698998440069
 30
0.0
 10
79.79700454609032
 20
96.26323312662237
 30
0.0
 10
79.80836976290617
 20
96.05381779487114
 30
0.0
 10
79.83665075978905
 20
95.94986521235285
 30
0.0
 10
79.91903708649636
 20
95.75740359275616
 30
0.0
 10
79.97333354386222
 20
95.6659325447961
 30
0.0
 10
80.15036563569537
 20
95.40854878737431
 30
0.0
 10
80.28829401977283
 20
95.25421012715998
 30
0.0
 10
80.57533676386043
 20
94.95609849114068
 30
0.0
 10
80.7254058291516
 20
94.8134145308512
 30
0.0
 10
81.02759208756108
 20
94.53695729536723
 30
0.0
 10
81.18044648951715
 20
94.40281277619356
 30
0.0
 10
81.94747711779867
 20
93.7451550522621
 30
0.0
 10
82.56711989526428
 20
93.25689038197488
 30
0.0
 10
83.48335033276626
 20
92.56136208079607
 30
0.0
 10
83.78794185026213
 20
92.33587223869074
 30
0.0
 10
84.38051402004267
 20
91.90959641336686
 30
0.0
 10
84.6699611266675
 20
91.70767369315595
 30
0.0
 10
85.23423652825073
 20
91.32959194263212
 30
0.0
 10
85.5090793465532
 20
91.15338330614215
 30
0.0
 10
86.04266804405299
 20
90.83300421872181
 30
0.0
 10
86.29799519023372
 20
90.69092201993834
 30
0.0
 10
86.53918251504015
 20
90.57206965217208
 30
0.0
  0
SPLINE
  5
89
330
1F
100
AcDbEntity
  8
0
  6
Continuous
 62
     7
370
    25
100
AcDbSpline
210
0.0
220
0.0
230
1.0
 70
     8
 71
     3
 72
    20
 73
    16
 74
     0
 42
0.00000001
 43
0.00000001
 40
0.0
 40
0.0
 40
0.0
 40
0.0
 40
0.1249999999999997
 40
0.1249999999999997
 40
0.2499999999999993
 40
0.2499999999999993
 40
0.374999999999999
 40
0.374999999999999
 40
0.4999999999999987
 40
0.4999999999999987
 40
0.7499999999999998
 40
0.7499999999999998
 40
0.8749999999999999
 40
0.8749999999999999
 40
1.0
 40
1.0
 40
1.0
 40
1.0
 10
88.53918251503983
 20
95.40401005031295
 30
0.0
 10
88.53918251503983
 20
95.05428220171994
 30
0.0
 10
88.53864935252359
 20
94.72029806901628
 30
0.0
 10
88.52807526713121
 20
94.08065159146234
 30
0.0
 10
88.51792223724611
 20
93.78158869289018
 30
0.0
 10
88.47788825973056
 20
93.23038289090458
 30
0.0
 10
88.44749373005094
 20
92.97528959301329
 30
0.0
 10
88.35903543413532
 20
92.51914965811105
 30
0.0
 10
88.30092185186719
 20
92.31555471925142
 30
0.0
 10
88.07397860903924
 20
91.76323170972125
 30
0.0
 10
87.8590360460397
 20
91.4900734938934
 30
0.0
 10
87.43398710407362
 20
91.12960375337039
 30
0.0
 10
87.27485020266403
 20
91.01743157354174
 30
0.0
 10
86.92802597623964
 20
90.7964464667695
 30
0.0
 10
86.74011801949763
 20
90.68727219632504
 30
0.0
 10
86.53918251504004
 20
90.57206965217249
 30
0.0
  0
SPLINE
  5
8A
330
1F
100
AcDbEntity
  8
0
  6
Continuous
 62
     7
370
    25
100
AcDbSpline
210
0.0
220
0.0
230
1.0
 70
     8
 71
     3
 72
    22
 73
    18
 74
     0
 42
0.00000001
 43
0.00000001
 40
0.0
 40
0.0
 40
0.0
 40
0.0
 40
0.2499999999999984
 40
0.2499999999999984
 40
0.3749999999999982
 40
0.3749999999999982
 40
0.4999999999999981
 40
0.4999999999999981
 40
0.6249999999999986
 40
0.6249999999999986
 40
0.6874999999999988
 40
0.6874999999999988
 40
0.749999999999999
 40
0.749999999999999
 40
0.8749999999999994
 40
0.8749999999999994
 40
1.0
 40
1.0
 40
1.0
 40
1.0
 10
86.53918251504004
 20
23.42793034782754
 30
0.0
 10
86.94165963919696
 20
23.19717775489357
 30
0.0
 10
87.2885384646171
 20
22.9928110786106
 30
0.0
 10
87.71262902236904
 20
22.63454616387236
 30
0.0
 10
87.83806138763812
 20
22.50636720854615
 30
0.0
 10
88.05652412524667
 20
22.21587502669816
 30
0.0
 10
88.14948048773257
 20
22.05269627053825
 30
0.0
 10
88.29989663079418
 20
21.68725729216273
 30
0.0
 10
88.35828557374576
 20
21.48419390591698
 30
0.0
 10
88.42521741649583
 20
21.13983783930719
 30
0.0
 10
88.44409164289115
 20
21.01804680412803
 30
0.0
 10
88.47526692772392
 20
20.76534983739187
 30
0.0
 10
88.48770717033725
 20
20.63386408376065
 30
0.0
 10
88.51766648887016
 20
20.2230385654672
 30
0.0
 10
88.52786783266895
 20
19.92757444485246
 30
0.0
 10
88.53864225006241
 20
19.28436799686946
 30
0.0
 10
88.53918251503983
 20
18.94726354415314
 30
0.0
 10
88.53918251503983
 20
18.59598994968478
 30
0.0
  0
SPLINE
  5
8B
330
1F
100
AcDbEntity
  8
0
  6
Continuous
 62
     7
370
    25
100
AcDbSpline
210
0.0
220
0.0
230
1.0
 70
     8
 71
     3
 72
    46
 73
    42
 74
     0
 42
0.00000001
 43
0.00000001
 40
0.0
 40
0.0
 40
0.0
 40
0.0
 40
0.1250000000000026
 40
0.1250000000000026
 40
0.1875000000000037
 40
0.1875000000000037
 40
0.2500000000000048
 40
0.2500000000000048
 40
0.3125000000000058
 40
0.3125000000000058
 40
0.3750000000000069
 40
0.3750000000000069
 40
0.4062500000000075
 40
0.4062500000000075
 40
0.437500000000008
 40
0.437500000000008
 40
0.4687500000000085
 40
0.4687500000000085
 40
0.4843750000000084
 40
0.4843750000000084
 40
0.5000000000000083
 40
0.5000000000000083
 40
0.5156250000000082
 40
0.5156250000000082
 40
0.5312500000000081
 40
0.5312500000000081
 40
0.5625000000000078
 40
0.5625000000000078
 40
0.5937500000000074
 40
0.5937500000000074
 40
0.625000000000007
 40
0.625000000000007
 40
0.7500000000000052
 40
0.7500000000000052
 40
0.812500000000004
 40
0.812500000000004
 40
0.8750000000000027
 40
0.8750000000000027
 40
0.9375000000000013
 40
0.9375000000000013
 40
1.0
 40
1.0
 40
1.0
 40
1.0
 10
86.53918251504015
 20
23.42793034782793
 30
0.0
 10
86.05157347916926
 20
23.18764620974564
 30
0.0
 10
85.51770210493862
 20
22.86060592406555
 30
0.0
 10
84.65886646591993
 20
22.2847564575499
 30
0.0
 10
84.36172880565186
 20
22.07719126353435
 30
0.0
 10
83.76350502038774
 20
21.64622505242501
 30
0.0
 10
83.46067065615834
 20
21.42170393436092
 30
0.0
 10
82.84849393019185
 20
20.95640108477948
 30
0.0
 10
82.53910218168878
 20
20.71566573890154
 30
0.0
 10
81.91570067199511
 20
20.21701298690255
 30
0.0
 10
81.60045689417491
 20
19.95854243246658
 30
0.0
 10
81.13290881367517
 20
19.55566732373517
 30
0.0
 10
80.97805549105112
 20
19.41889344986948
 30
0.0
 10
80.6731833011529
 20
19.13717925175741
 30
0.0
 10
80.52310803644068
 20
18.99260055925789
 30
0.0
 10
80.23744850515838
 20
18.68878592059027
 30
0.0
 10
80.09924098869601
 20
18.52906715107082
 30
0.0
 10
79.93123249828622
 20
18.26269211758577
 30
0.0
 10
79.88182652465008
 20
18.16820635991487
 30
0.0
 10
79.81440625684452
 20
17.96989984400672
 30
0.0
 10
79.79700454609032
 20
17.86323312662216
 30
0.0
 10
79.80836976290622
 20
17.65381779487091
 30
0.0
 10
79.83665075978911
 20
17.54986521235264
 30
0.0
 10
79.91903708649644
 20
17.357403592756
 30
0.0
 10
79.97333354386235
 20
17.26593254479592
 30
0.0
 10
80.15036563569552
 20
17.00854878737414
 30
0.0
 10
80.28829401977299
 20
16.85421012715981
 30
0.0
 10
80.57533676386058
 20
16.55609849114054
 30
0.0
 10
80.72540582915174
 20
16.4134145308511
 30
0.0
 10
81.0275920875612
 20
16.13695729536717
 30
0.0
 10
81.18044648951727
 20
16.00281277619346
 30
0.0
 10
81.94747711779874
 20
15.34515505226205
 30
0.0
 10
82.56711989526434
 20
14.85689038197486
 30
0.0
 10
83.48335033276629
 20
14.16136208079605
 30
0.0
 10
83.78794185026213
 20
13.93587223869076
 30
0.0
 10
84.38051402004264
 20
13.50959641336689
 30
0.0
 10
84.66996112666746
 20
13.30767369315598
 30
0.0
 10
85.23423652825069
 20
12.92959194263216
 30
0.0
 10
85.50907934655312
 20
12.75338330614221
 30
0.0
 10
86.04266804405289
 20
12.43300421872186
 30
0.0
 10
86.29799519023373
 20
12.29092201993835
 30
0.0
 10
86.53918251504015
 20
12.17206965217207
 30
0.0
  0
LINE
  5
8C
330
1F
100
AcDbEntity
  8
0
  6
Continuous
 62
     7
370
    25
100
AcDbLine
 10
86.539182515
 20
12.1720696522
 30
0.0
 11
86.539182515
 21
23.4279303478
 31
0.0
  0
LINE
  5
8D
330
1F
100
AcDbEntity
  8
0
  6
Continuous
 62
     7
370
    25
100
AcDbLine
 10
86.539182515
 20
90.5720696522
 30
0.0
 11
86.539182515
 21
101.8279303478
 31
0.0
  0
LINE
  5
8E
330
1F
100
AcDbEntity
  8
0
  6
Continuous
 62
     7
370
    25
100
AcDbLine
 10
57.8551422284
 20
19.6239582684
 30
0.0
 11
45.8551422284
 21
23.9916010796
 31
0.0
  0
LINE
  5
8F
330
1F
100
AcDbEntity
  8
0
  6
Continuous
 62
     7
370
    25
100
AcDbLine
 10
45.8551422284
 20
90.0083989204
 30
0.0
 11
57.8551422284
 21
94.3760417316
 31
0.0
  0
LINE
  5
90
330
1F
100
AcDbEntity
  8
0
  6
Continuous
 62
     7
370
    25
100
AcDbLine
 10
77.8551422284
 20
101.6554464169
 30
0.0
 11
89.8551422284
 21
106.0230892281
 31
0.0
  0
LINE
  5
91
330
1F
100
AcDbEntity
  8
0
  6
Continuous
 62
     7
370
    25
100
AcDbLine
 10
89.8551422284
 20
7.9769107719
 30
0.0
 11
77.8551422284
 21
12.3445535831
 31
0.0
  0
LINE
  5
92
330
1F
100
AcDbEntity
  8
0
  6
Continuous
 62
     7
370
    25
100
AcDbLine
 10
57.8551422284
 20
94.3760417316
 30
0.0
 11
77.8551422284
 21
101.6554464169
 31
0.0
  0
LINE
  5
93
330
1F
100
AcDbEntity
  8
0
  6
Continuous
 62
     7
370
    25
100
AcDbLine
 10
77.8551422284
 20
12.3445535831
 30
0.0
 11
57.8551422284
 21
19.6239582684
 31
0.0
  0
LINE
  5
94
330
1F
100
AcDbEntity
  8
0
  6
HIDDEN
 62
     7
370
    18
100
AcDbLine
 10
92.539182515
 20
107.0
 30
0.0
 11
92.539182515
 21
7.0
 31
0.0
  0
LINE
  5
95
330
1F
100
AcDbEntity
  8
0
  6
HIDDEN
 62
     7
370
    18
100
AcDbLine
 10
89.539182515
 20
17.8
 30
0.0
 11
89.539182515
 21
20.8
 31
0.0
  0
LINE
  5
96
330
1F
100
AcDbEntity
  8
0
  6
HIDDEN
 62
     7
370
    18
100
AcDbLine
 10
89.539182515
 20
14.8
 30
0.0
 11
89.539182515
 21
17.8
 31
0.0
  0
LINE
  5
97
330
1F
100
AcDbEntity
  8
0
  6
HIDDEN
 62
     7
370
    18
100
AcDbLine
 10
89.539182515
 20
96.2
 30
0.0
 11
89.539182515
 21
99.2
 31
0.0
  0
LINE
  5
98
330
1F
100
AcDbEntity
  8
0
  6
HIDDEN
 62
     7
370
    18
100
AcDbLine
 10
89.539182515
 20
93.2
 30
0.0
 11
89.539182515
 21
96.2
 31
0.0
  0
LINE
  5
99
330
1F
100
AcDbEntity
  8
0
  6
HIDDEN
 62
     7
370
    18
100
AcDbLine
 10
87.7348735943
 20
12.9956910793
 30
0.0
 11
89.539182515
 21
14.8
 31
0.0
  0
LINE
  5
9A
330
1F
100
AcDbEntity
  8
0
  6
HIDDEN
 62
     7
370
    18
100
AcDbLine
 10
89.539182515
 20
20.8
 30
0.0
 11
87.7376562784
 21
22.6015262366
 31
0.0
  0
LINE
  5
9B
330
1F
100
AcDbEntity
  8
0
  6
HIDDEN
 62
     7
370
    18
100
AcDbLine
 10
87.7348735943
 20
91.3956910793
 30
0.0
 11
89.539182515
 21
93.2
 31
0.0
  0
LINE
  5
9C
330
1F
100
AcDbEntity
  8
0
  6
HIDDEN
 62
     7
370
    18
100
AcDbLine
 10
89.539182515
 20
99.2
 30
0.0
 11
87.7376562784
 21
101.0015262366
 31
0.0
  0
LINE
  5
9D
330
1F
100
AcDbEntity
  8
0
  6
HIDDEN
 62
     7
370
    18
100
AcDbLine
 10
89.539182515
 20
93.2
 30
0.0
 11
92.539182515
 21
93.2
 31
0.0
  0
LINE
  5
9E
330
1F
100
AcDbEntity
  8
0
  6
HIDDEN
 62
     7
370
    18
100
AcDbLine
 10
92.539182515
 20
99.2
 30
0.0
 11
89.539182515
 21
99.2
 31
0.0
  0
LINE
  5
9F
330
1F
100
AcDbEntity
  8
0
  6
HIDDEN
 62
     7
370
    18
100
AcDbLine
 10
89.539182515
 20
14.8
 30
0.0
 11
92.539182515
 21
14.8
 31
0.0
  0
LINE
  5
A0
330
1F
100
AcDbEntity
  8
0
  6
HIDDEN
 62
     7
370
    18
100
AcDbLine
 10
92.539182515
 20
20.8
 30
0.0
 11
89.539182515
 21
20.8
 31
0.0
  0
INSERT
  5
AC
330
1F
100
AcDbEntity
  8
10
100
AcDbBlockReference
  2
SW_CENTERMARKSYMBOL_0
 10
106.539182515
 20
57.0
 30
0.0
  0
INSERT
  5
B8
330
1F
100
AcDbEntity
  8
10
100
AcDbBlockReference
  2
SW_CENTERMARKSYMBOL_1
 10
106.539182515
 20
83.0
 30
0.0
  0
INSERT
  5
C4
330
1F
100
AcDbEntity
  8
10
100
AcDbBlockReference
  2
SW_CENTERMARKSYMBOL_2
 10
106.539182515
 20
31.0
 30
0.0
  0
LINE
  5
C5
330
1F
100
AcDbEntity
  8
0
  6
Continuous
 62
     7
370
    25
100
AcDbLine
 10
92.539182515
 20
177.6491134863
 30
0.0
 11
92.539182515
 21
161.6491134863
 31
0.0
  0
LINE
  5
C6
330
1F
100
AcDbEntity
  8
0
  6
Continuous
 62
     7
370
    25
100
AcDbLine
 10
92.539182515
 20
159.6491134863
 30
0.0
 11
92.539182515
 21
161.6491134863
 31
0.0
  0
LINE
  5
C7
330
1F
100
AcDbEntity
  8
0
  6
Continuous
 62
     7
370
    25
100
AcDbLine
 10
45.8551422284
 20
177.6491134863
 30
0.0
 11
92.539182515
 21
177.6491134863
 31
0.0
  0
LINE
  5
C8
330
1F
100
AcDbEntity
  8
0
  6
Continuous
 62
     7
370
    25
100
AcDbLine
 10
122.539182515
 20
161.6491134863
 30
0.0
 11
92.539182515
 21
161.6491134863
 31
0.0
  0
ARC
  5
C9
330
1F
100
AcDbEntity
  8
0
  6
Continuous
 62
     7
370
    25
100
AcDbCircle
 10
120.539182515
 20
159.6491134863
 30
0.0
 40
2.0
100
AcDbArc
 50
270.0
 51
0.0
  0
LINE
  5
CA
330
1F
100
AcDbEntity
  8
0
  6
Continuous
 62
     7
370
    25
100
AcDbLine
 10
120.539182515
 20
157.6491134863
 30
0.0
 11
98.3867913154
 21
157.6491134863
 31
0.0
  0
ELLIPSE
  5
CB
330
1F
100
AcDbEntity
  8
0
  6
Continuous
 62
     7
370
    25
100
AcDbEllipse
 10
98.3867913154
 20
159.6491134863
 30
0.0
 11
5.847608800326185
 21
0.0
 31
0.0
210
0.0
220
0.0
230
1.0
 40
0.3420201433
 41
3.141592653589793
 42
4.712388980384694
  0
LINE
  5
CC
330
1F
100
AcDbEntity
  8
0
  6
Continuous
 62
     7
370
    25
100
AcDbLine
 10
122.539182515
 20
161.6491134863
 30
0.0
 11
122.539182515
 21
159.6491134863
 31
0.0
  0
LINE
  5
CD
330
1F
100
AcDbEntity
  8
0
  6
Continuous
 62
     7
370
    25
100
AcDbLine
 10
98.3867913154
 20
157.6491134863
 30
0.0
 11
90.539182515
 21
157.6491134863
 31
0.0
  0
SPLINE
  5
CE
330
1F
100
AcDbEntity
  8
0
  6
Continuous
 62
     7
370
    25
100
AcDbSpline
210
0.0
220
0.0
230
1.0
 70
     8
 71
     3
 72
    44
 73
    40
 74
     0
 42
0.00000001
 43
0.00000001
 40
0.0
 40
0.0
 40
0.0
 40
0.0
 40
0.0188716531291726
 40
0.0378382513911374
 40
0.0569035917844909
 40
0.0760714126257156
 40
0.0953453925990719
 40
0.1147291499456834
 40
0.1342262417877879
 40
0.1538401635836903
 40
0.1735743487085395
 40
0.1934321681557436
 40
0.2134169303535645
 40
0.2335318810912203
 40
0.2537802035486853
 40
0.2741650184242638
 40
0.2946893841539781
 40
0.3153562972167896
 40
0.33616869251972
 40
0.3571294438569972
 40
0.3782413644374621
 40
0.3995072074745952
 40
0.4209296668336807
 40
0.442511377730795
 40
0.4642549174785046
 40
0.4861628062733536
 40
0.5675455809488549
 40
0.6546763700110205
 40
0.6764688566771523
 40
0.7001790839416683
 40
0.725808212655409
 40
0.7533571495679664
 40
0.7828266126306981
 40
0.8142171763813979
 40
0.847529304275165
 40
0.8827633722182016
 40
0.9199196860265338
 40
0.9589984945978955
 40
1.0
 40
1.0
 40
1.0
 40
1.0
 10
88.53918251503981
 20
163.649113486339
 30
0.0
 10
88.53825701023318
 20
163.7524627262226
 30
0.0
 10
88.53640134431471
 20
163.9596811661247
 30
0.0
 10
88.52134229206168
 20
164.2709457609828
 30
0.0
 10
88.49715065976763
 20
164.5830975119763
 30
0.0
 10
88.46282588622459
 20
164.8958195526114
 30
0.0
 10
88.41850038776403
 20
165.2087870808821
 30
0.0
 10
88.36401349185589
 20
165.5216675868495
 30
0.0
 10
88.29929716565505
 20
165.8341211327176
 30
0.0
 10
88.22427236020225
 20
166.1458006463168
 30
0.0
 10
88.13887756808964
 20
166.4563522389038
 30
0.0
 10
88.04306164556134
 20
166.7654155446326
 30
0.0
 10
87.93678628599955
 20
167.0726240826741
 30
0.0
 10
87.82002587490994
 20
167.3776056419163
 30
0.0
 10
87.692768042392
 20
167.679982688458
 30
0.0
 10
87.55501401514441
 20
167.9793727957867
 30
0.0
 10
87.40677900880908
 20
168.2753890982804
 30
0.0
 10
87.24809259646977
 20
168.5676407656935
 30
0.0
 10
87.07899906005007
 20
168.8557335072606
 30
0.0
 10
86.89955775571019
 20
169.1392700724398
 30
0.0
 10
86.70984335337054
 20
169.4178508720053
 30
0.0
 10
86.5099464767534
 20
169.6910742518571
 30
0.0
 10
86.29997275079438
 20
169.9585381826442
 30
0.0
 10
86.08004777154257
 20
170.2198367110081
 30
0.0
 10
85.850299632661
 20
170.4745762815416
 30
0.0
 10
85.3949269498211
 20
170.9458665234857
 30
0.0
 10
84.64882639861654
 20
171.6018588171619
 30
0.0
 10
83.83211543790277
 20
172.1488785646785
 30
0.0
 10
83.23906722312984
 20
172.4781325306342
 30
0.0
 10
82.9160456029998
 20
172.6430244549161
 30
0.0
 10
82.5613080278537
 20
172.8075662115099
 30
0.0
 10
82.17401496562844
 20
172.9684845737273
 30
0.0
 10
81.75347684669428
 20
173.1222029806813
 30
0.0
 10
81.29923282550064
 20
173.2648493707038
 30
0.0
 10
80.81110192263803
 20
173.392192053855
 30
0.0
 10
80.28924216081663
 20
173.4999506964018
 30
0.0
 10
79.73423338029684
 20
173.5826041414804
 30
0.0
 10
79.14706895958919
 20
173.638320041689
 30
0.0
 10
78.74502893747214
 20
173.6454585406055
 30
0.0
 10
78.53918251503981
 20
173.649113486339
 30
0.0
  0
LINE
  5
CF
330
1F
100
AcDbEntity
  8
0
  6
Continuous
 62
     7
370
    25
100
AcDbLine
 10
88.539182515
 20
159.6491134863
 30
0.0
 11
88.539182515
 21
163.6491134863
 31
0.0
  0
ARC
  5
D0
330
1F
100
AcDbEntity
  8
0
  6
Continuous
 62
     7
370
    25
100
AcDbCircle
 10
90.539182515
 20
159.6491134863
 30
0.0
 40
2.0
100
AcDbArc
 50
180.0
 51
270.0
  0
LINE
  5
D1
330
1F
100
AcDbEntity
  8
0
  6
Continuous
 62
     7
370
    25
100
AcDbLine
 10
84.8042445183
 20
171.4337833136
 30
0.0
 11
85.7717694893
 21
170.5471589832
 31
0.0
  0
LINE
  5
D2
330
1F
100
AcDbEntity
  8
0
  6
Continuous
 62
     7
370
    25
100
AcDbLine
 10
78.539182515
 20
173.6491134863
 30
0.0
 11
58.539182515
 21
173.6491134863
 31
0.0
  0
SPLINE
  5
D3
330
1F
100
AcDbEntity
  8
0
  6
Continuous
 62
     7
370
    25
100
AcDbSpline
210
0.0
220
0.0
230
1.0
 70
     8
 71
     3
 72
    43
 73
    39
 74
     0
 42
0.00000001
 43
0.00000001
 40
0.0
 40
0.0
 40
0.0
 40
0.0
 40
0.0217124392644895
 40
0.0428978716371427
 40
0.0635563290288112
 40
0.0836878461278614
 40
0.1032924606917481
 40
0.1223702138788141
 40
0.1409211506271261
 40
0.1589453200885882
 40
0.1764427761282975
 40
0.1934135779012526
 40
0.2098577905212418
 40
0.2257754858401511
 40
0.2411667433602818
 40
0.256031651307851
 40
0.2703703079030481
 40
0.2841828228713872
 40
0.2974693192534785
 40
0.3102299355866638
 40
0.3224648285539594
 40
0.3341741762255301
 40
0.3453581820587879
 40
0.4324340044676186
 40
0.5138776650817656
 40
0.5541848060701174
 40
0.5939401521877621
 40
0.633160033365817
 40
0.6718614574328327
 40
0.7100621247904392
 40
0.7477804409097433
 40
0.7850355262497868
 40
0.821847223180554
 40
0.8582360994810727
 40
0.8942234479798458
 40
0.929831281912135
 40
0.9650823255881791
 40
1.0
 40
1.0
 40
1.0
 40
1.0
 10
58.53918251503985
 20
173.6491134863389
 30
0.0
 10
58.43020483078678
 20
173.6480871613323
 30
0.0
 10
58.21489458151197
 20
173.6460594224011
 30
0.0
 10
57.89601784827171
 20
173.6299500008361
 30
0.0
 10
57.58554234257969
 20
173.6051530068546
 30
0.0
 10
57.28369674541542
 20
173.5714903762344
 30
0.0
 10
56.99068491076203
 20
173.5299347531602
 30
0.0
 10
56.70666572622735
 20
173.4811434594961
 30
0.0
 10
56.43176170998706
 20
173.4258343096533
 30
0.0
 10
56.16606017903538
 20
173.3646869726428
 30
0.0
 10
55.90961629169466
 20
173.2983667687638
 30
0.0
 10
55.6624555548321
 20
173.2275172273615
 30
0.0
 10
55.42457640240222
 20
173.1527609055458
 30
0.0
 10
55.19595267876616
 20
173.07469830552
 30
0.0
 10
54.97653605857289
 20
172.9939074802077
 30
0.0
 10
54.76625839214876
 20
172.9109436491833
 30
0.0
 10
54.56503395464221
 20
172.8263389750576
 30
0.0
 10
54.37276166287892
 20
172.7406024714337
 30
0.0
 10
54.18932701469706
 20
172.654219945371
 30
0.0
 10
54.01460460225684
 20
172.5676542983116
 30
0.0
 10
53.84845819671923
 20
172.4813449851236
 30
0.0
 10
53.69074892693163
 20
172.3957107923765
 30
0.0
 10
53.20097096535575
 20
172.1185301822314
 30
0.0
 10
52.42976020787246
 20
171.6020195269364
 30
0.0
 10
51.61162195602333
 20
170.8827712656305
 30
0.0
 10
51.03121843524851
 20
170.264530603712
 30
0.0
 10
50.62988593049819
 20
169.7788945075435
 30
0.0
 10
50.26278436294905
 20
169.2731940909877
 30
0.0
 10
49.93054907212814
 20
168.7499357810783
 30
0.0
 10
49.63366574911957
 20
168.2116391395397
 30
0.0
 10
49.37243263231824
 20
167.6607858957627
 30
0.0
 10
49.14698628277914
 20
167.0998188886469
 30
0.0
 10
48.95727915326511
 20
166.5311290205836
 30
0.0
 10
48.80318859364468
 20
165.9570464839107
 30
0.0
 10
48.68415839368515
 20
165.3798320207682
 30
0.0
 10
48.6005546536407
 20
164.8016692069248
 30
0.0
 10
48.54872644981446
 20
164.2246579177026
 30
0.0
 10
48.54235373444446
 20
163.8403530235031
 30
0.0
 10
48.53918251503968
 20
163.649113486339
 30
0.0
  0
LINE
  5
D4
330
1F
100
AcDbEntity
  8
0
  6
Continuous
 62
     7
370
    25
100
AcDbLine
 10
44.539182515
 20
139.6491134863
 30
0.0
 11
44.539182515
 21
177.6491134863
 31
0.0
  0
LINE
  5
D5
330
1F
100
AcDbEntity
  8
0
  6
Continuous
 62
     7
370
    25
100
AcDbLine
 10
48.539182515
 20
163.6491134863
 30
0.0
 11
48.539182515
 21
139.6491134863
 31
0.0
  0
LINE
  5
D6
330
1F
100
AcDbEntity
  8
0
  6
Continuous
 62
     7
370
    25
100
AcDbLine
 10
44.539182515
 20
177.6491134863
 30
0.0
 11
45.8551422284
 21
177.6491134863
 31
0.0
  0
ARC
  5
D7
330
1F
100
AcDbEntity
  8
0
  6
Continuous
 62
     7
370
    25
100
AcDbCircle
 10
46.539182515
 20
139.6491134863
 30
0.0
 40
2.000000000000007
100
AcDbArc
 50
180.0
 51
0.0
  0
LINE
  5
D8
330
1F
100
AcDbEntity
  8
0
  6
HIDDEN
 62
     7
370
    18
100
AcDbLine
 10
86.539182515
 20
173.5691134863
 30
0.0
 11
86.539182515
 21
169.6491134863
 31
0.0
  0
LINE
  5
D9
330
1F
100
AcDbEntity
  8
0
  6
HIDDEN
 62
     7
370
    18
100
AcDbLine
 10
89.539182515
 20
164.5691134863
 30
0.0
 11
89.539182515
 21
170.5691134863
 31
0.0
  0
SPLINE
  5
DA
330
1F
100
AcDbEntity
  8
0
  6
HIDDEN
 62
     7
370
    18
100
AcDbSpline
210
0.0
220
0.0
230
1.0
 70
     8
 71
     3
 72
    10
 73
     6
 74
     0
 42
0.00000001
 43
0.00000001
 40
0.0
 40
0.0
 40
0.0
 40
0.0
 40
0.1838792869115638
 40
0.5838937802758798
 40
1.0
 40
1.0
 40
1.0
 40
1.0
 10
79.81262088646818
 20
173.5676988683138
 30
0.0
 10
79.8118354064913
 20
173.5677917493499
 30
0.0
 10
79.80934117845322
 20
173.5680866855563
 30
0.0
 10
79.93575060295792
 20
173.5522187479855
 30
0.0
 10
80.07924459634374
 20
173.5290974219476
 30
0.0
 10
80.15240625268125
 20
173.5173088134509
 30
0.0
  0
SPLINE
  5
DB
330
1F
100
AcDbEntity
  8
0
  6
HIDDEN
 62
     7
370
    18
100
AcDbSpline
210
0.0
220
0.0
230
1.0
 70
     8
 71
     3
 72
     9
 73
     5
 74
     0
 42
0.00000001
 43
0.00000001
 40
0.0
 40
0.0
 40
0.0
 40
0.0
 40
0.5215376407311009
 40
0.9999999999999999
 40
0.9999999999999999
 40
0.9999999999999999
 40
0.9999999999999999
 10
83.51833793678244
 20
172.3154167075983
 30
0.0
 10
83.53763958125332
 20
172.3072386764283
 30
0.0
 10
83.57464869231927
 20
172.2915580610107
 30
0.0
 10
83.60954217332626
 20
172.2660158115526
 30
0.0
 10
83.62623739057197
 20
172.2537948066158
 30
0.0
  0
LINE
  5
DC
330
1F
100
AcDbEntity
  8
0
  6
HIDDEN
 62
     7
370
    18
100
AcDbLine
 10
109.539182515
 20
160.6491134863
 30
0.0
 11
103.539182515
 21
160.6491134863
 31
0.0
  0
LINE
  5
DD
330
1F
100
AcDbEntity
  8
0
  6
HIDDEN
 62
     7
370
    18
100
AcDbLine
 10
88.539182515
 20
163.5691134863
 30
0.0
 11
89.539182515
 21
164.5691134863
 31
0.0
  0
LINE
  5
DE
330
1F
100
AcDbEntity
  8
0
  6
HIDDEN
 62
     7
370
    18
100
AcDbLine
 10
89.539182515
 20
170.5691134863
 30
0.0
 11
86.539182515
 21
173.5691134863
 31
0.0
  0
LINE
  5
DF
330
1F
100
AcDbEntity
  8
0
  6
HIDDEN
 62
     7
370
    18
100
AcDbLine
 10
86.539182515
 20
173.5691134863
 30
0.0
 11
79.8126208865
 21
173.5691134863
 31
0.0
  0
LINE
  5
E0
330
1F
100
AcDbEntity
  8
0
  6
HIDDEN
 62
     7
370
    18
100
AcDbLine
 10
89.539182515
 20
164.5691134863
 30
0.0
 11
92.539182515
 21
164.5691134863
 31
0.0
  0
LINE
  5
E1
330
1F
100
AcDbEntity
  8
0
  6
HIDDEN
 62
     7
370
    18
100
AcDbLine
 10
92.539182515
 20
170.5691134863
 30
0.0
 11
89.539182515
 21
170.5691134863
 31
0.0
  0
LINE
  5
E2
330
1F
100
AcDbEntity
  8
0
  6
HIDDEN
 62
     7
370
    18
100
AcDbLine
 10
112.539182515
 20
157.6491134863
 30
0.0
 11
109.539182515
 21
160.6491134863
 31
0.0
  0
LINE
  5
E3
330
1F
100
AcDbEntity
  8
0
  6
HIDDEN
 62
     7
370
    18
100
AcDbLine
 10
103.539182515
 20
160.6491134863
 30
0.0
 11
100.539182515
 21
157.6491134863
 31
0.0
  0
LINE
  5
E4
330
1F
100
AcDbEntity
  8
0
  6
HIDDEN
 62
     7
370
    18
100
AcDbLine
 10
109.539182515
 20
160.6491134863
 30
0.0
 11
109.539182515
 21
161.6491134863
 31
0.0
  0
LINE
  5
E5
330
1F
100
AcDbEntity
  8
0
  6
HIDDEN
 62
     7
370
    18
100
AcDbLine
 10
103.539182515
 20
161.6491134863
 30
0.0
 11
103.539182515
 21
160.6491134863
 31
0.0
  0
LINE
  5
E6
330
1F
100
AcDbEntity
  8
0
  6
Continuous
 62
     7
370
    25
100
AcDbLine
 10
222.6491134863
 20
90.1290136788
 30
0.0
 11
204.6491134863
 21
90.1290136788
 31
0.0
  0
LINE
  5
E7
330
1F
100
AcDbEntity
  8
0
  6
Continuous
 62
     7
370
    25
100
AcDbLine
 10
204.6491134863
 20
23.8709863212
 30
0.0
 11
222.6491134863
 21
23.8709863212
 31
0.0
  0
ARC
  5
E8
330
1F
100
AcDbEntity
  8
0
  6
Continuous
 62
     7
370
    25
100
AcDbCircle
 10
204.6491134863
 20
25.8709863212
 30
0.0
 40
2.0
100
AcDbArc
 50
180.0
 51
270.0
  0
LINE
  5
E9
330
1F
100
AcDbEntity
  8
0
  6
Continuous
 62
     7
370
    25
100
AcDbLine
 10
202.6491134863
 20
88.1290136788
 30
0.0
 11
202.6491134863
 21
25.8709863212
 31
0.0
  0
ARC
  5
EA
330
1F
100
AcDbEntity
  8
0
  6
Continuous
 62
     7
370
    25
100
AcDbCircle
 10
204.6491134863
 20
88.1290136788
 30
0.0
 40
2.0
100
AcDbArc
 50
90.0
 51
180.0
  0
LINE
  5
EB
330
1F
100
AcDbEntity
  8
0
  6
Continuous
 62
     7
370
    25
100
AcDbLine
 10
226.6491134863
 20
7.0
 30
0.0
 11
224.6491134863
 21
7.0
 31
0.0
  0
LINE
  5
EC
330
1F
100
AcDbEntity
  8
0
  6
Continuous
 62
     7
370
    25
100
AcDbLine
 10
226.6491134863
 20
107.0
 30
0.0
 11
224.6491134863
 21
107.0
 31
0.0
  0
LINE
  5
ED
330
1F
100
AcDbEntity
  8
0
  6
Continuous
 62
     7
370
    25
100
AcDbLine
 10
226.6491134863
 20
107.0
 30
0.0
 11
226.6491134863
 21
7.0
 31
0.0
  0
LINE
  5
EE
330
1F
100
AcDbEntity
  8
0
  6
Continuous
 62
     7
370
    25
100
AcDbLine
 10
222.6491134863
 20
107.0
 30
0.0
 11
222.6491134863
 21
7.0
 31
0.0
  0
LINE
  5
EF
330
1F
100
AcDbEntity
  8
0
  6
Continuous
 62
     7
370
    25
100
AcDbLine
 10
224.6491134863
 20
7.0
 30
0.0
 11
222.6491134863
 21
7.0
 31
0.0
  0
LINE
  5
F0
330
1F
100
AcDbEntity
  8
0
  6
Continuous
 62
     7
370
    25
100
AcDbLine
 10
224.6491134863
 20
107.0
 30
0.0
 11
222.6491134863
 21
107.0
 31
0.0
  0
CIRCLE
  5
F1
330
1F
100
AcDbEntity
  8
0
  6
Continuous
 62
     7
370
    25
100
AcDbCircle
 10
232.5691134863
 20
17.8
 30
0.0
 40
2.999999999999972
  0
CIRCLE
  5
F2
330
1F
100
AcDbEntity
  8
0
  6
Continuous
 62
     7
370
    25
100
AcDbCircle
 10
232.5691134863
 20
96.2
 30
0.0
 40
2.999999999999972
  0
LINE
  5
F3
330
1F
100
AcDbEntity
  8
0
  6
Continuous
 62
     7
370
    25
100
AcDbLine
 10
242.6491134863
 20
107.0
 30
0.0
 11
242.6491134863
 21
7.0
 31
0.0
  0
LINE
  5
F4
330
1F
100
AcDbEntity
  8
0
  6
Continuous
 62
     7
370
    25
100
AcDbLine
 10
242.6491134863
 20
107.0
 30
0.0
 11
226.6491134863
 21
107.0
 31
0.0
  0
LINE
  5
F5
330
1F
100
AcDbEntity
  8
0
  6
Continuous
 62
     7
370
    25
100
AcDbLine
 10
242.6491134863
 20
7.0
 30
0.0
 11
226.6491134863
 21
7.0
 31
0.0
  0
LINE
  5
F6
330
1F
100
AcDbEntity
  8
0
  6
HIDDEN
 62
     7
370
    18
100
AcDbLine
 10
225.6491134863
 20
57.0
 30
0.0
 11
225.6491134863
 21
60.0
 31
0.0
  0
LINE
  5
F7
330
1F
100
AcDbEntity
  8
0
  6
HIDDEN
 62
     7
370
    18
100
AcDbLine
 10
225.6491134863
 20
54.0
 30
0.0
 11
225.6491134863
 21
57.0
 31
0.0
  0
LINE
  5
F8
330
1F
100
AcDbEntity
  8
0
  6
HIDDEN
 62
     7
370
    18
100
AcDbLine
 10
225.6491134863
 20
83.0
 30
0.0
 11
225.6491134863
 21
86.0
 31
0.0
  0
LINE
  5
F9
330
1F
100
AcDbEntity
  8
0
  6
HIDDEN
 62
     7
370
    18
100
AcDbLine
 10
225.6491134863
 20
80.0
 30
0.0
 11
225.6491134863
 21
83.0
 31
0.0
  0
LINE
  5
FA
330
1F
100
AcDbEntity
  8
0
  6
HIDDEN
 62
     7
370
    18
100
AcDbLine
 10
225.6491134863
 20
31.0
 30
0.0
 11
225.6491134863
 21
34.0
 31
0.0
  0
LINE
  5
FB
330
1F
100
AcDbEntity
  8
0
  6
HIDDEN
 62
     7
370
    18
100
AcDbLine
 10
225.6491134863
 20
28.0
 30
0.0
 11
225.6491134863
 21
31.0
 31
0.0
  0
LINE
  5
FC
330
1F
100
AcDbEntity
  8
0
  6
HIDDEN
 62
     7
370
    18
100
AcDbLine
 10
238.6491134863
 20
99.7760611753
 30
0.0
 11
238.6491134863
 21
14.2239388247
 31
0.0
  0
SPLINE
  5
FD
330
1F
100
AcDbEntity
  8
0
  6
HIDDEN
 62
     7
370
    18
100
AcDbSpline
210
0.0
220
0.0
230
1.0
 70
     8
 71
     3
 72
    22
 73
    18
 74
     0
 42
0.00000001
 43
0.00000001
 40
0.0
 40
0.0
 40
0.0
 40
0.0
 40
0.2499999999999992
 40
0.2499999999999992
 40
0.3749999999999992
 40
0.3749999999999992
 40
0.4999999999999992
 40
0.4999999999999992
 40
0.6249999999999992
 40
0.6249999999999992
 40
0.6874999999999993
 40
0.6874999999999993
 40
0.7499999999999994
 40
0.7499999999999994
 40
0.8749999999999998
 40
0.8749999999999998
 40
1.0
 40
1.0
 40
1.0
 40
1.0
 10
234.6491134863387
 20
101.8279303478275
 30
0.0
 10
234.1124773207961
 20
101.5971777548936
 30
0.0
 10
233.5361055102385
 20
101.3928110786106
 30
0.0
 10
232.6436546765991
 20
101.0345461638724
 30
0.0
 10
232.341635261448
 20
100.9063672085461
 30
0.0
 10
231.7352233388126
 20
100.6158750266982
 30
0.0
 10
231.4300370390534
 20
100.4526962705383
 30
0.0
 10
230.8445229881171
 20
100.0872572921627
 30
0.0
 10
230.561904305455
 20
99.88419390591696
 30
0.0
 10
230.1606366671038
 20
99.53983783930717
 30
0.0
 10
230.0304595528384
 20
99.41804680412802
 30
0.0
 10
229.7847051076721
 20
99.16534983739186
 30
0.0
 10
229.6683783779204
 20
99.03386408376063
 30
0.0
 10
229.3405124515508
 20
98.62303856546717
 30
0.0
 10
229.1497668757678
 20
98.32757444485243
 30
0.0
 10
228.8369783277221
 20
97.68436799686947
 30
0.0
 10
228.720442631948
 20
97.34726354415326
 30
0.0
 10
228.6491134863392
 20
96.9959899496849
 30
0.0
  0
SPLINE
  5
FE
330
1F
100
AcDbEntity
  8
0
  6
HIDDEN
 62
     7
370
    18
100
AcDbSpline
210
0.0
220
0.0
230
1.0
 70
     8
 71
     3
 72
    20
 73
    16
 74
     0
 42
0.00000001
 43
0.00000001
 40
0.0
 40
0.0
 40
0.0
 40
0.0
 40
0.1249999999999997
 40
0.1249999999999997
 40
0.2499999999999993
 40
0.2499999999999993
 40
0.374999999999999
 40
0.374999999999999
 40
0.4999999999999987
 40
0.4999999999999987
 40
0.7499999999999998
 40
0.7499999999999998
 40
0.8749999999999999
 40
0.8749999999999999
 40
1.0
 40
1.0
 40
1.0
 40
1.0
 10
228.6491134863396
 20
95.40401005031295
 30
0.0
 10
228.7201287548615
 20
95.05428220171994
 30
0.0
 10
228.8353487143758
 20
94.72029806901628
 30
0.0
 10
229.1451398780919
 20
94.08065159146234
 30
0.0
 10
229.3371462651274
 20
93.78158869289018
 30
0.0
 10
229.7763950255634
 20
93.23038289090458
 30
0.0
 10
230.0267289821574
 20
92.97528959301329
 30
0.0
 10
230.5577633324777
 20
92.51914965811105
 30
0.0
 10
230.8402431214554
 20
92.31555471925142
 30
0.0
 10
231.7245125300483
 20
91.76323170972125
 30
0.0
 10
232.3339615735027
 20
91.4900734938934
 30
0.0
 10
233.2308047831304
 20
91.12960375337039
 30
0.0
 10
233.5277188139998
 20
91.01743157354174
 30
0.0
 10
234.1025514180631
 20
90.7964464667695
 30
0.0
 10
234.3811994803951
 20
90.68727219632504
 30
0.0
 10
234.6491134863386
 20
90.57206965217249
 30
0.0
  0
SPLINE
  5
FF
330
1F
100
AcDbEntity
  8
0
  6
HIDDEN
 62
     7
370
    18
100
AcDbSpline
210
0.0
220
0.0
230
1.0
 70
     8
 71
     3
 72
    22
 73
    18
 74
     0
 42
0.00000001
 43
0.00000001
 40
0.0
 40
0.0
 40
0.0
 40
0.0
 40
0.2499999999999984
 40
0.2499999999999984
 40
0.3749999999999982
 40
0.3749999999999982
 40
0.4999999999999981
 40
0.4999999999999981
 40
0.6249999999999986
 40
0.6249999999999986
 40
0.6874999999999988
 40
0.6874999999999988
 40
0.749999999999999
 40
0.749999999999999
 40
0.8749999999999994
 40
0.8749999999999994
 40
1.0
 40
1.0
 40
1.0
 40
1.0
 10
234.6491134863386
 20
23.42793034782754
 30
0.0
 10
234.1124773207961
 20
23.19717775489357
 30
0.0
 10
233.5361055102385
 20
22.9928110786106
 30
0.0
 10
232.6436546765991
 20
22.63454616387236
 30
0.0
 10
232.341635261448
 20
22.50636720854615
 30
0.0
 10
231.7352233388125
 20
22.21587502669816
 30
0.0
 10
231.4300370390534
 20
22.05269627053825
 30
0.0
 10
230.8445229881171
 20
21.68725729216273
 30
0.0
 10
230.561904305455
 20
21.48419390591698
 30
0.0
 10
230.1606366671038
 20
21.13983783930719
 30
0.0
 10
230.0304595528384
 20
21.01804680412803
 30
0.0
 10
229.784705107672
 20
20.76534983739187
 30
0.0
 10
229.6683783779204
 20
20.63386408376065
 30
0.0
 10
229.3405124515508
 20
20.2230385654672
 30
0.0
 10
229.1497668757678
 20
19.92757444485246
 30
0.0
 10
228.8369783277221
 20
19.28436799686946
 30
0.0
 10
228.7204426319479
 20
18.94726354415314
 30
0.0
 10
228.6491134863392
 20
18.59598994968478
 30
0.0
  0
SPLINE
  5
100
330
1F
100
AcDbEntity
  8
0
  6
HIDDEN
 62
     7
370
    18
100
AcDbSpline
210
0.0
220
0.0
230
1.0
 70
     8
 71
     3
 72
    20
 73
    16
 74
     0
 42
0.00000001
 43
0.00000001
 40
0.0
 40
0.0
 40
0.0
 40
0.0
 40
0.1250000000000003
 40
0.1250000000000003
 40
0.2500000000000006
 40
0.2500000000000006
 40
0.3750000000000008
 40
0.3750000000000008
 40
0.5000000000000011
 40
0.5000000000000011
 40
0.750000000000001
 40
0.750000000000001
 40
0.8750000000000004
 40
0.8750000000000004
 40
1.0
 40
1.0
 40
1.0
 40
1.0
 10
228.6491134863396
 20
17.00401005031295
 30
0.0
 10
228.7201287548615
 20
16.65428220171994
 30
0.0
 10
228.8353487143758
 20
16.32029806901627
 30
0.0
 10
229.145139878092
 20
15.68065159146233
 30
0.0
 10
229.3371462651275
 20
15.38158869289016
 30
0.0
 10
229.7763950255634
 20
14.83038289090456
 30
0.0
 10
230.0267289821574
 20
14.57528959301328
 30
0.0
 10
230.5577633324777
 20
14.11914965811103
 30
0.0
 10
230.8402431214555
 20
13.91555471925144
 30
0.0
 10
231.7245125300483
 20
13.36323170972124
 30
0.0
 10
232.3339615735028
 20
13.09007349389339
 30
0.0
 10
233.2308047831304
 20
12.72960375337039
 30
0.0
 10
233.5277188139998
 20
12.61743157354173
 30
0.0
 10
234.1025514180631
 20
12.3964464667695
 30
0.0
 10
234.3811994803951
 20
12.28727219632505
 30
0.0
 10
234.6491134863386
 20
12.17206965217249
 30
0.0
  0
ARC
  5
101
330
1F
100
AcDbEntity
  8
0
  6
HIDDEN
 62
     7
370
    18
100
AcDbCircle
 10
232.5691134863
 20
96.2
 30
0.0
 40
4.000000000000068
100
AcDbArc
 50
168.5216590455
 51
191.4783409545
  0
ARC
  5
102
330
1F
100
AcDbEntity
  8
0
  6
HIDDEN
 62
     7
370
    18
100
AcDbCircle
 10
232.5691134863
 20
17.8
 30
0.0
 40
4.000000000000068
100
AcDbArc
 50
168.5216590455
 51
191.4783409545
  0
ARC
  5
103
330
1F
100
AcDbEntity
  8
0
  6
HIDDEN
 62
     7
370
    18
100
AcDbCircle
 10
232.5691134863
 20
96.2
 30
0.0
 40
5.999999999999981
100
AcDbArc
 50
290.2835685419
 51
69.7164314581
  0
ARC
  5
104
330
1F
100
AcDbEntity
  8
0
  6
HIDDEN
 62
     7
370
    18
100
AcDbCircle
 10
232.5691134863
 20
17.8
 30
0.0
 40
5.999999999999844
100
AcDbArc
 50
290.2835685419
 51
69.7164314581
  0
LINE
  5
105
330
1F
100
AcDbEntity
  8
0
  6
HIDDEN
 62
     7
370
    18
100
AcDbLine
 10
238.5682483455
 20
21.9336238609
 30
0.0
 11
238.6491134863
 21
21.50334351
 31
0.0
  0
LINE
  5
106
330
1F
100
AcDbEntity
  8
0
  6
HIDDEN
 62
     7
370
    18
100
AcDbLine
 10
238.6491134863
 20
92.49665649
 30
0.0
 11
238.5689463506
 21
92.0699735609
 31
0.0
  0
LINE
  5
107
330
1F
100
AcDbEntity
  8
0
  6
HIDDEN
 62
     7
370
    18
100
AcDbLine
 10
222.6491134863
 20
51.0
 30
0.0
 11
225.6491134863
 21
54.0
 31
0.0
  0
LINE
  5
108
330
1F
100
AcDbEntity
  8
0
  6
HIDDEN
 62
     7
370
    18
100
AcDbLine
 10
225.6491134863
 20
60.0
 30
0.0
 11
222.6491134863
 21
63.0
 31
0.0
  0
LINE
  5
109
330
1F
100
AcDbEntity
  8
0
  6
HIDDEN
 62
     7
370
    18
100
AcDbLine
 10
222.6491134863
 20
77.0
 30
0.0
 11
225.6491134863
 21
80.0
 31
0.0
  0
LINE
  5
10A
330
1F
100
AcDbEntity
  8
0
  6
HIDDEN
 62
     7
370
    18
100
AcDbLine
 10
225.6491134863
 20
86.0
 30
0.0
 11
222.6491134863
 21
89.0
 31
0.0
  0
LINE
  5
10B
330
1F
100
AcDbEntity
  8
0
  6
HIDDEN
 62
     7
370
    18
100
AcDbLine
 10
222.6491134863
 20
25.0
 30
0.0
 11
225.6491134863
 21
28.0
 31
0.0
  0
LINE
  5
10C
330
1F
100
AcDbEntity
  8
0
  6
HIDDEN
 62
     7
370
    18
100
AcDbLine
 10
225.6491134863
 20
34.0
 30
0.0
 11
222.6491134863
 21
37.0
 31
0.0
  0
LINE
  5
10D
330
1F
100
AcDbEntity
  8
0
  6
HIDDEN
 62
     7
370
    18
100
AcDbLine
 10
225.6491134863
 20
80.0
 30
0.0
 11
226.6491134863
 21
80.0
 31
0.0
  0
LINE
  5
10E
330
1F
100
AcDbEntity
  8
0
  6
HIDDEN
 62
     7
370
    18
100
AcDbLine
 10
226.6491134863
 20
86.0
 30
0.0
 11
225.6491134863
 21
86.0
 31
0.0
  0
LINE
  5
10F
330
1F
100
AcDbEntity
  8
0
  6
HIDDEN
 62
     7
370
    18
100
AcDbLine
 10
225.6491134863
 20
54.0
 30
0.0
 11
226.6491134863
 21
54.0
 31
0.0
  0
LINE
  5
110
330
1F
100
AcDbEntity
  8
0
  6
HIDDEN
 62
     7
370
    18
100
AcDbLine
 10
226.6491134863
 20
60.0
 30
0.0
 11
225.6491134863
 21
60.0
 31
0.0
  0
LINE
  5
111
330
1F
100
AcDbEntity
  8
0
  6
HIDDEN
 62
     7
370
    18
100
AcDbLine
 10
225.6491134863
 20
28.0
 30
0.0
 11
226.6491134863
 21
28.0
 31
0.0
  0
LINE
  5
112
330
1F
100
AcDbEntity
  8
0
  6
HIDDEN
 62
     7
370
    18
100
AcDbLine
 10
226.6491134863
 20
34.0
 30
0.0
 11
225.6491134863
 21
34.0
 31
0.0
  0
SPLINE
  5
113
330
1F
100
AcDbEntity
  8
0
  6
HIDDEN
 62
     7
370
    18
100
AcDbSpline
210
0.0
220
0.0
230
1.0
 70
     8
 71
     3
 72
    21
 73
    17
 74
     0
 42
0.00000001
 43
0.00000001
 40
0.0
 40
0.0
 40
0.0
 40
0.0
 40
0.0758529558604238
 40
0.1431496137002304
 40
0.2006833099128281
 40
0.2489507102007841
 40
0.3373675249386632
 40
0.4182561596923883
 40
0.4569489811007056
 40
0.5040142413928704
 40
0.5613504102004011
 40
0.6288776147560164
 40
0.7065382287040834
 40
0.7942849780110447
 40
0.8920847463471112
 40
1.0
 40
1.0
 40
1.0
 40
1.0
 10
238.6005619109498
 20
92.06861747175296
 30
0.0
 10
238.5672822977261
 20
92.13699449082674
 30
0.0
 10
238.5044770487675
 20
92.26603552496118
 30
0.0
 10
238.4914441383224
 20
92.37777214599497
 30
0.0
 10
238.4431080846613
 20
92.34887003888556
 30
0.0
 10
238.2001987494392
 20
92.14647830056816
 30
0.0
 10
237.7905210708512
 20
91.8800898327399
 30
0.0
 10
237.2278258756513
 20
91.59689243015377
 30
0.0
 10
236.6658132511018
 20
91.36451845560056
 30
0.0
 10
236.1326402998944
 20
91.17141727866776
 30
0.0
 10
235.4300181609156
 20
90.9547824770966
 30
0.0
 10
234.5258507067051
 20
90.72567924982907
 30
0.0
 10
233.3985811418038
 20
90.5014592252347
 30
0.0
 10
232.0330779956252
 20
90.30608535530038
 30
0.0
 10
230.4263434220358
 20
90.1580965237742
 30
0.0
 10
229.2606304035679
 20
90.13818245601094
 30
0.0
 10
228.6491134863386
 20
90.12773581165237
 30
0.0
  0
SPLINE
  5
114
330
1F
100
AcDbEntity
  8
0
  6
HIDDEN
 62
     7
370
    18
100
AcDbSpline
210
0.0
220
0.0
230
1.0
 70
     8
 71
     3
 72
    23
 73
    19
 74
     0
 42
0.00000001
 43
0.00000001
 40
0.0
 40
0.0
 40
0.0
 40
0.0
 40
0.1070016803373266
 40
0.2029602090900045
 40
0.2879327910798349
 40
0.3618750278320392
 40
0.4247200559810458
 40
0.4763871467415963
 40
0.5167810218678353
 40
0.5473196707952886
 40
0.5770274290311372
 40
0.6073978810316084
 40
0.6384121303158423
 40
0.6728075421570733
 40
0.7256679425321491
 40
0.7987048501949593
 40
0.8906380761022462
 40
0.9999999999999999
 40
0.9999999999999999
 40
0.9999999999999999
 40
0.9999999999999999
 10
228.6491134863384
 20
23.87226418834782
 30
0.0
 10
229.252220418851
 20
23.86211355182682
 30
0.0
 10
230.3961903896074
 20
23.84285987932181
 30
0.0
 10
231.9662987137582
 20
23.70066552323625
 30
0.0
 10
233.2873580725369
 20
23.51592763478586
 30
0.0
 10
234.3656341323012
 20
23.30812873483261
 30
0.0
 10
235.2186008336499
 20
23.10116930407395
 30
0.0
 10
235.8686952561562
 20
22.91215328016245
 30
0.0
 10
236.3462721336566
 20
22.75221495868275
 30
0.0
 10
236.7085593921634
 20
22.61689397836929
 30
0.0
 10
237.0068912037137
 20
22.4946771148221
 30
0.0
 10
237.2793188098939
 20
22.3724336509807
 30
0.0
 10
237.5384777168042
 20
22.24532925935288
 30
0.0
 10
237.8125312832762
 20
22.09532114574183
 30
0.0
 10
238.0177412283095
 20
21.97832166485046
 30
0.0
 10
238.2139012617889
 20
21.90601796023214
 30
0.0
 10
238.4062931491166
 20
21.93095477481727
 30
0.0
 10
238.532172656863
 20
21.93123194439913
 30
0.0
 10
238.6005619109497
 20
21.9313825282495
 30
0.0
  0
LINE
  5
115
330
1F
100
AcDbEntity
  8
0
  6
HIDDEN
 62
     7
370
    18
100
AcDbLine
 10
228.6491134863
 20
90.1290136788
 30
0.0
 11
222.6491134863
 21
90.1290136788
 31
0.0
  0
LINE
  5
116
330
1F
100
AcDbEntity
  8
0
  6
HIDDEN
 62
     7
370
    18
100
AcDbLine
 10
222.6491134863
 20
23.8709863212
 30
0.0
 11
228.6491134863
 21
23.8709863212
 31
0.0
  0
INSERT
  5
122
330
1F
100
AcDbEntity
  8
10
100
AcDbBlockReference
  2
SW_CENTERMARKSYMBOL_3
 10
232.5691134863
 20
17.8
 30
0.0
  0
INSERT
  5
12E
330
1F
100
AcDbEntity
  8
10
100
AcDbBlockReference
  2
SW_CENTERMARKSYMBOL_4
 10
232.5691134863
 20
96.2
 30
0.0
  0
ENDSEC
  0
SECTION
  2
OBJECTS
  0
DICTIONARY
  5
C
330
0
100
AcDbDictionary
281
     1
  3
ACAD_GROUP
350
D
  3
ACAD_LAYOUT
350
1A
  3
ACAD_MLINESTYLE
350
17
  3
ACAD_PLOTSETTINGS
350
19
  3
ACAD_PLOTSTYLENAME
350
E
  3
ACAD_SCALELIST
350
47
  3
DWGPROPS
350
12F
  0
DICTIONARY
  5
D
102
{ACAD_REACTORS
330
C
102
}
330
C
100
AcDbDictionary
281
     1
  0
DICTIONARY
  5
1A
102
{ACAD_REACTORS
330
C
102
}
330
C
100
AcDbDictionary
281
     1
  3
Layout1
350
1E
  3
Layout2
350
26
  3
Model
350
22
  0
DICTIONARY
  5
17
102
{ACAD_REACTORS
330
C
102
}
330
C
100
AcDbDictionary
281
     1
  3
Standard
350
18
  0
DICTIONARY
  5
19
102
{ACAD_REACTORS
330
C
102
}
330
C
100
AcDbDictionary
281
     1
  0
ACDBDICTIONARYWDFLT
  5
E
102
{ACAD_REACTORS
330
C
102
}
330
C
100
AcDbDictionary
281
     1
  3
Normal
350
F
100
AcDbDictionaryWithDefault
340
F
  0
DICTIONARY
  5
47
102
{ACAD_REACTORS
330
C
102
}
330
C
100
AcDbDictionary
281
     1
  3
A0
350
48
  3
A1
350
49
  3
A2
350
4A
  3
A3
350
4B
  3
A4
350
4C
  3
A5
350
4D
  3
A6
350
4E
  3
A7
350
4F
  3
A8
350
50
  3
A9
350
51
  3
B0
350
52
  3
B1
350
53
  3
B2
350
54
  3
B3
350
55
  3
B4
350
56
  3
B5
350
57
  3
B6
350
58
  0
XRECORD
  5
12F
102
{ACAD_REACTORS
330
C
102
}
330
C
100
AcDbXrecord
280
     1
  1
DWGPROPS COOKIE
  2

  3

  4

  6

  7

  8

  9

300
=
301
=
302
=
303
=
304
=
305
=
306
=
307
=
308
=
309
=
 40
0.0
 41
2461213.075945984
 42
2461213.075946285
  1

 90
        0
  0
LAYOUT
  5
1E
102
{ACAD_REACTORS
330
1A
102
}
330
1A
100
AcDbPlotSettings
  1

  2
none_device
  4

  6

 40
0.0
 41
0.0
 42
0.0
 43
0.0
 44
0.0
 45
0.0
 46
0.0
 47
0.0
 48
0.0
 49
0.0
140
0.0
141
0.0
142
1.0
143
1.0
 70
   688
 72
     1
 73
     0
 74
     5
  7

 75
    16
147
1.0
148
0.0
149
0.0
100
AcDbLayout
  1
Layout1
 70
     1
 71
     1
 10
0.0
 20
0.0
 11
420.0
 21
297.0
 12
0.0
 22
0.0
 32
0.0
 14
1.0000000000E+20
 24
1.0000000000E+20
 34
1.0000000000E+20
 15
-1.0000000000E+20
 25
-1.0000000000E+20
 35
-1.0000000000E+20
146
0.0
 13
0.0
 23
0.0
 33
0.0
 16
1.0
 26
0.0
 36
0.0
 17
0.0
 27
1.0
 37
0.0
 76
     0
330
1B
  0
LAYOUT
  5
26
102
{ACAD_REACTORS
330
1A
102
}
330
1A
100
AcDbPlotSettings
  1

  2
none_device
  4

  6

 40
0.0
 41
0.0
 42
0.0
 43
0.0
 44
0.0
 45
0.0
 46
0.0
 47
0.0
 48
0.0
 49
0.0
140
0.0
141
0.0
142
1.0
143
1.0
 70
   688
 72
     1
 73
     0
 74
     5
  7

 75
    16
147
1.0
148
0.0
149
0.0
100
AcDbLayout
  1
Layout2
 70
     1
 71
     2
 10
0.0
 20
0.0
 11
0.0
 21
0.0
 12
0.0
 22
0.0
 32
0.0
 14
0.0
 24
0.0
 34
0.0
 15
0.0
 25
0.0
 35
0.0
146
0.0
 13
0.0
 23
0.0
 33
0.0
 16
1.0
 26
0.0
 36
0.0
 17
0.0
 27
1.0
 37
0.0
 76
     0
330
23
  0
LAYOUT
  5
22
102
{ACAD_REACTORS
330
1A
102
}
330
1A
100
AcDbPlotSettings
  1

  2
none_device
  4
Letter_(8.50_x_11.00_Inches)
  6

 40
6.35
 41
6.35
 42
6.35000508
 43
6.35000508
 44
215.9
 45
279.4
 46
0.0
 47
0.0
 48
0.0
 49
0.0
140
0.0
141
0.0
142
1.0
143
1.0
 70
  1712
 72
     1
 73
     0
 74
     0
  7

 75
     0
147
1.0
148
0.0
149
0.0
100
AcDbLayout
  1
Model
 70
     1
 71
     0
 10
0.0
 20
0.0
 11
297.0
 21
210.0
 12
0.0
 22
0.0
 32
0.0
 14
0.0
 24
0.0
 34
0.0
 15
297.0
 25
210.0
 35
0.0
146
0.0
 13
0.0
 23
0.0
 33
0.0
 16
1.0
 26
0.0
 36
0.0
 17
0.0
 27
1.0
 37
0.0
 76
     0
330
1F
331
29
  0
MLINESTYLE
  5
18
102
{ACAD_REACTORS
330
17
102
}
330
17
100
AcDbMlineStyle
  2
Standard
 70
     0
  3

 62
   256
 51
90.0
 52
90.0
 71
     2
 49
0.5
 62
   256
  6
BYLAYER
 49
-0.5
 62
   256
  6
BYLAYER
  0
ACDBPLACEHOLDER
  5
F
102
{ACAD_REACTORS
330
E
102
}
330
E
  0
SCALE
  5
48
102
{ACAD_REACTORS
330
47
102
}
330
47
100
AcDbScale
 70
     0
300
1:1
140
1.0
141
1.0
290
     1
  0
SCALE
  5
49
102
{ACAD_REACTORS
330
47
102
}
330
47
100
AcDbScale
 70
     0
300
1:2
140
1.0
141
2.0
290
     0
  0
SCALE
  5
4A
102
{ACAD_REACTORS
330
47
102
}
330
47
100
AcDbScale
 70
     0
300
1:4
140
1.0
141
4.0
290
     0
  0
SCALE
  5
4B
102
{ACAD_REACTORS
330
47
102
}
330
47
100
AcDbScale
 70
     0
300
1:5
140
1.0
141
5.0
290
     0
  0
SCALE
  5
4C
102
{ACAD_REACTORS
330
47
102
}
330
47
100
AcDbScale
 70
     0
300
1:8
140
1.0
141
8.0
290
     0
  0
SCALE
  5
4D
102
{ACAD_REACTORS
330
47
102
}
330
47
100
AcDbScale
 70
     0
300
1:10
140
1.0
141
10.0
290
     0
  0
SCALE
  5
4E
102
{ACAD_REACTORS
330
47
102
}
330
47
100
AcDbScale
 70
     0
300
1:16
140
1.0
141
16.0
290
     0
  0
SCALE
  5
4F
102
{ACAD_REACTORS
330
47
102
}
330
47
100
AcDbScale
 70
     0
300
1:20
140
1.0
141
20.0
290
     0
  0
SCALE
  5
50
102
{ACAD_REACTORS
330
47
102
}
330
47
100
AcDbScale
 70
     0
300
1:30
140
1.0
141
30.0
290
     0
  0
SCALE
  5
51
102
{ACAD_REACTORS
330
47
102
}
330
47
100
AcDbScale
 70
     0
300
1:40
140
1.0
141
40.0
290
     0
  0
SCALE
  5
52
102
{ACAD_REACTORS
330
47
102
}
330
47
100
AcDbScale
 70
     0
300
1:50
140
1.0
141
50.0
290
     0
  0
SCALE
  5
53
102
{ACAD_REACTORS
330
47
102
}
330
47
100
AcDbScale
 70
     0
300
1:100
140
1.0
141
100.0
290
     0
  0
SCALE
  5
54
102
{ACAD_REACTORS
330
47
102
}
330
47
100
AcDbScale
 70
     0
300
2:1
140
2.0
141
1.0
290
     0
  0
SCALE
  5
55
102
{ACAD_REACTORS
330
47
102
}
330
47
100
AcDbScale
 70
     0
300
4:1
140
4.0
141
1.0
290
     0
  0
SCALE
  5
56
102
{ACAD_REACTORS
330
47
102
}
330
47
100
AcDbScale
 70
     0
300
8:1
140
8.0
141
1.0
290
     0
  0
SCALE
  5
57
102
{ACAD_REACTORS
330
47
102
}
330
47
100
AcDbScale
 70
     0
300
10:1
140
10.0
141
1.0
290
     0
  0
SCALE
  5
58
102
{ACAD_REACTORS
330
47
102
}
330
47
100
AcDbScale
 70
     0
300
100:1
140
100.0
141
1.0
290
     0
  0
ENDSEC
  0
EOF
