  0
SECTION
  2
HEADER
  9
$ACADVER
  1
AC1015
  9
$ACADMAINTVER
 70
     6
  9
$DWGCODEPAGE
  3
ANSI_936
  9
$INSBASE
 10
0.0
 20
0.0
 30
0.0
  9
$EXTMIN
 10
0.0
 20
0.0
 30
0.0
  9
$EXTMAX
 10
297.0
 20
210.0
 30
0.0
  9
$LIMMIN
 10
0.0
 20
0.0
  9
$LIMMAX
 10
297.0
 20
210.0
  9
$ORTHOMODE
 70
     0
  9
$REGENMODE
 70
     1
  9
$FILLMODE
 70
     1
  9
$QTEXTMODE
 70
     0
  9
$MIRRTEXT
 70
     1
  9
$LTSCALE
 40
1.0
  9
$ATTMODE
 70
     1
  9
$TEXTSIZE
 40
3.5
  9
$TRACEWID
 40
1.0
  9
$TEXTSTYLE
  7
Standard
  9
$CLAYER
  8
0
  9
$CELTYPE
  6
ByLayer
  9
$CECOLOR
 62
   256
  9
$CELTSCALE
 40
1.0
  9
$DISPSILH
 70
     0
  9
$DIMSCALE
 40
1.0
  9
$DIMASZ
 40
4.08
  9
$DIMEXO
 40
0.0
  9
$DIMDLI
 40
3.75
  9
$DIMRND
 40
0.0
  9
$DIMDLE
 40
0.0
  9
$DIMEXE
 40
2.0
  9
$DIMTP
 40
0.0
  9
$DIMTM
 40
0.0
  9
$DIMTXT
 40
3.5
  9
$DIMCEN
 40
2.5
  9
$DIMTSZ
 40
0.0
  9
$DIMTOL
 70
     0
  9
$DIMLIM
 70
     0
  9
$DIMTIH
 70
     1
  9
$DIMTOH
 70
     1
  9
$DIMSE1
 70
     0
  9
$DIMSE2
 70
     0
  9
$DIMTAD
 70
     1
  9
$DIMZIN
 70
     0
  9
$DIMBLK
  1

  9
$DIMASO
 70
     1
  9
$DIMSHO
 70
     1
  9
$DIMPOST
  1

  9
$DIMAPOST
  1

  9
$DIMALT
 70
     0
  9
$DIMALTD
 70
     3
  9
$DIMALTF
 40
0.0393700787
  9
$DIMLFAC
 40
2.0
  9
$DIMTOFL
 70
     1
  9
$DIMTVP
 40
0.0
  9
$DIMTIX
 70
     0
  9
$DIMSOXD
 70
     0
  9
$DIMSAH
 70
     0
  9
$DIMBLK1
  1

  9
$DIMBLK2
  1

  9
$DIMSTYLE
  2
ISO-25
  9
$DIMCLRD
 70
     0
  9
$DIMCLRE
 70
     0
  9
$DIMCLRT
 70
     0
  9
$DIMTFAC
 40
1.0
  9
$DIMGAP
 40
1.524
  9
$DIMJUST
 70
     0
  9
$DIMSD1
 70
     0
  9
$DIMSD2
 70
     0
  9
$DIMTOLJ
 70
     0
  9
$DIMTZIN
 70
     0
  9
$DIMALTZ
 70
     0
  9
$DIMALTTZ
 70
     0
  9
$DIMUPT
 70
     0
  9
$DIMDEC
 70
     2
  9
$DIMTDEC
 70
     2
  9
$DIMALTU
 70
     2
  9
$DIMALTTD
 70
     3
  9
$DIMTXSTY
  7
Standard
  9
$DIMAUNIT
 70
     0
  9
$DIMADEC
 70
     2
  9
$DIMALTRND
 40
0.0
  9
$DIMAZIN
 70
     0
  9
$DIMDSEP
 70
    44
  9
$DIMATFIT
 70
     3
  9
$DIMFRAC
 70
     0
  9
$DIMLDRBLK
  1

  9
$DIMLUNIT
 70
     2
  9
$DIMLWD
 70
    -2
  9
$DIMLWE
 70
    -2
  9
$DIMTMOVE
 70
     0
  9
$LUNITS
 70
     2
  9
$LUPREC
 70
     2
  9
$SKETCHINC
 40
1.0
  9
$FILLETRAD
 40
0.0
  9
$AUNITS
 70
     0
  9
$AUPREC
 70
     2
  9
$MENU
  1
.
  9
$ELEVATION
 40
0.0
  9
$PELEVATION
 40
0.0
  9
$THICKNESS
 40
0.0
  9
$LIMCHECK
 70
     0
  9
$CHAMFERA
 40
0.0
  9
$CHAMFERB
 40
0.0
  9
$CHAMFERC
 40
0.0
  9
$CHAMFERD
 40
0.0
  9
$SKPOLY
 70
     0
  9
$TDCREATE
 40
2461215.690542963
  9
$TDUCREATE
 40
2461215.35720963
  9
$TDUPDATE
 40
2461215.690543253
  9
$TDUUPDATE
 40
2461215.357209919
  9
$TDINDWG
 40
0.0000000116
  9
$TDUSRTIMER
 40
0.0000000116
  9
$USRTIMER
 70
     1
  9
$ANGBASE
 50
0.0
  9
$ANGDIR
 70
     0
  9
$PDMODE
 70
     0
  9
$PDSIZE
 40
-1.0
  9
$PLINEWID
 40
0.0
  9
$SPLFRAME
 70
     0
  9
$SPLINETYPE
 70
     6
  9
$SPLINESEGS
 70
     8
  9
$HANDSEED
  5
145
  9
$SURFTAB1
 70
     6
  9
$SURFTAB2
 70
     6
  9
$SURFTYPE
 70
     6
  9
$SURFU
 70
     6
  9
$SURFV
 70
     6
  9
$UCSBASE
  2

  9
$UCSNAME
  2

  9
$UCSORG
 10
0.0
 20
0.0
 30
0.0
  9
$UCSXDIR
 10
1.0
 20
0.0
 30
0.0
  9
$UCSYDIR
 10
0.0
 20
1.0
 30
0.0
  9
$UCSORTHOREF
  2

  9
$UCSORTHOVIEW
 70
     0
  9
$UCSORGTOP
 10
0.0
 20
0.0
 30
0.0
  9
$UCSORGBOTTOM
 10
0.0
 20
0.0
 30
0.0
  9
$UCSORGLEFT
 10
0.0
 20
0.0
 30
0.0
  9
$UCSORGRIGHT
 10
0.0
 20
0.0
 30
0.0
  9
$UCSORGFRONT
 10
0.0
 20
0.0
 30
0.0
  9
$UCSORGBACK
 10
0.0
 20
0.0
 30
0.0
  9
$PUCSBASE
  2

  9
$PUCSNAME
  2

  9
$PUCSORG
 10
0.0
 20
0.0
 30
0.0
  9
$PUCSXDIR
 10
1.0
 20
0.0
 30
0.0
  9
$PUCSYDIR
 10
0.0
 20
1.0
 30
0.0
  9
$PUCSORTHOREF
  2

  9
$PUCSORTHOVIEW
 70
     0
  9
$PUCSORGTOP
 10
0.0
 20
0.0
 30
0.0
  9
$PUCSORGBOTTOM
 10
0.0
 20
0.0
 30
0.0
  9
$PUCSORGLEFT
 10
0.0
 20
0.0
 30
0.0
  9
$PUCSORGRIGHT
 10
0.0
 20
0.0
 30
0.0
  9
$PUCSORGFRONT
 10
0.0
 20
0.0
 30
0.0
  9
$PUCSORGBACK
 10
0.0
 20
0.0
 30
0.0
  9
$USERI1
 70
     0
  9
$USERI2
 70
     0
  9
$USERI3
 70
     0
  9
$USERI4
 70
     0
  9
$USERI5
 70
     0
  9
$USERR1
 40
0.0
  9
$USERR2
 40
0.0
  9
$USERR3
 40
0.0
  9
$USERR4
 40
0.0
  9
$USERR5
 40
0.0
  9
$WORLDVIEW
 70
     1
  9
$SHADEDGE
 70
     3
  9
$SHADEDIF
 70
    70
  9
$TILEMODE
 70
     1
  9
$MAXACTVP
 70
    64
  9
$PINSBASE
 10
0.0
 20
0.0
 30
0.0
  9
$PLIMCHECK
 70
     0
  9
$PEXTMIN
 10
1.0000000000E+20
 20
1.0000000000E+20
 30
1.0000000000E+20
  9
$PEXTMAX
 10
-1.0000000000E+20
 20
-1.0000000000E+20
 30
-1.0000000000E+20
  9
$PLIMMIN
 10
0.0
 20
0.0
  9
$PLIMMAX
 10
420.0
 20
297.0
  9
$UNITMODE
 70
     0
  9
$VISRETAIN
 70
     1
  9
$PLINEGEN
 70
     0
  9
$PSLTSCALE
 70
     1
  9
$TREEDEPTH
 70
  3020
  9
$CMLSTYLE
  2
Standard
  9
$CMLJUST
 70
     0
  9
$CMLSCALE
 40
20.0
  9
$PROXYGRAPHICS
 70
     1
  9
$MEASUREMENT
 70
     1
  9
$CELWEIGHT
370
    -1
  9
$ENDCAPS
280
     0
  9
$JOINSTYLE
280
     0
  9
$LWDISPLAY
290
     1
  9
$INSUNITS
 70
     4
  9
$HYPERLINKBASE
  1

  9
$STYLESHEET
  1

  9
$XEDIT
290
     1
  9
$CEPSNTYPE
380
     0
  9
$PSTYLEMODE
290
     1
  9
$FINGERPRINTGUID
  2
{c0ffac2f-a75c-45a8-821b-479fe4670bd6}
  9
$VERSIONGUID
  2
{FAEB1C32-E019-11D5-929B-00C0DF256EC4}
  9
$EXTNAMES
290
     1
  9
$PSVPSCALE
 40
0.0
  9
$OLESTARTUP
290
     0
  0
ENDSEC
  0
SECTION
  2
CLASSES
  0
CLASS
  1
ACDBDICTIONARYWDFLT
  2
AcDbDictionaryWithDefault
  3
ObjectDBX Classes
 90
        0
280
     0
281
     0
  0
CLASS
  1
VISUALSTYLE
  2
AcDbVisualStyle
  3
ObjectDBX Classes
 90
     4095
280
     0
281
     0
  0
CLASS
  1
MATERIAL
  2
AcDbMaterial
  3
ObjectDBX Classes
 90
     1153
280
     0
281
     0
  0
CLASS
  1
SCALE
  2
AcDbScale
  3
ObjectDBX Classes
 90
     1153
280
     0
281
     0
  0
CLASS
  1
TABLESTYLE
  2
AcDbTableStyle
  3
ObjectDBX Classes
 90
     4095
280
     0
281
     0
  0
CLASS
  1
MLEADERSTYLE
  2
AcDbMLeaderStyle
  3
ACDB_MLEADERSTYLE_CLASS
 90
     4095
280
     0
281
     0
  0
CLASS
  1
SUN
  2
AcDbSun
  3
SCENEOE
 90
     1153
280
     0
281
     0
  0
CLASS
  1
ACDBPLACEHOLDER
  2
AcDbPlaceHolder
  3
ObjectDBX Classes
 90
        0
280
     0
281
     0
  0
CLASS
  1
LAYOUT
  2
AcDbLayout
  3
ObjectDBX Classes
 90
        0
280
     0
281
     0
  0
ENDSEC
  0
SECTION
  2
TABLES
  0
TABLE
  2
VPORT
  5
8
330
0
100
AcDbSymbolTable
 70
     1
  0
VPORT
  5
29
330
8
100
AcDbSymbolTableRecord
100
AcDbViewportTableRecord
  2
*Active
 70
     0
 10
0.0
 20
0.0
 11
1.0
 21
1.0
 12
148.5
 22
105.0
 13
0.0
 23
0.0
 14
10.0
 24
10.0
 15
10.0
 25
10.0
 16
0.0
 26
0.0
 36
1.0
 17
0.0
 27
0.0
 37
0.0
 40
210.0
 41
1.4142857143
 42
50.0
 43
0.0
 44
0.0
 50
0.0
 51
0.0
 71
     0
 72
  2000
 73
     1
 74
     3
 75
     0
 76
     0
 77
     0
 78
     0
281
     0
 65
     1
110
0.0
120
0.0
130
0.0
111
1.0
121
0.0
131
0.0
112
0.0
122
1.0
132
0.0
 79
     0
146
0.0
  0
ENDTAB
  0
TABLE
  2
LTYPE
  5
5
330
0
100
AcDbSymbolTable
 70
     6
  0
LTYPE
  5
14
330
5
100
AcDbSymbolTableRecord
100
AcDbLinetypeTableRecord
  2
ByBlock
 70
     0
  3

 72
    65
 73
     0
 40
0.0
  0
LTYPE
  5
15
330
5
100
AcDbSymbolTableRecord
100
AcDbLinetypeTableRecord
  2
ByLayer
 70
     0
  3

 72
    65
 73
     0
 40
0.0
  0
LTYPE
  5
16
330
5
100
AcDbSymbolTableRecord
100
AcDbLinetypeTableRecord
  2
Continuous
 70
     0
  3
Solid line
 72
    65
 73
     0
 40
0.0
  0
LTYPE
  5
5E
330
5
100
AcDbSymbolTableRecord
100
AcDbLinetypeTableRecord
  2
HIDDEN
 70
     0
  3
Hidden __ __ __ __ __ __ __ __ __ __ __ __ __ __
 72
    65
 73
     2
 40
1.905
 49
1.27
 74
     0
 49
-0.635
 74
     0
  0
LTYPE
  5
5F
330
5
100
AcDbSymbolTableRecord
100
AcDbLinetypeTableRecord
  2
PHANTOM
 70
     0
  3
Phantom ______  __  __  ______  __  __  ______
 72
    65
 73
     6
 40
12.7
 49
6.35
 74
     0
 49
-1.27
 74
     0
 49
1.27
 74
     0
 49
-1.27
 74
     0
 49
1.27
 74
     0
 49
-1.27
 74
     0
  0
LTYPE
  5
60
330
5
100
AcDbSymbolTableRecord
100
AcDbLinetypeTableRecord
  2
CENTER
 70
     0
  3
Center ____ _ ____ _ ____ _ ____ _ ____ _ ____
 72
    65
 73
     4
 40
10.16
 49
6.35
 74
     0
 49
-1.27
 74
     0
 49
1.27
 74
     0
 49
-1.27
 74
     0
  0
LTYPE
  5
61
330
5
100
AcDbSymbolTableRecord
100
AcDbLinetypeTableRecord
  2
CENTERX2
 70
     0
  3
Center (2x) ________  __  ________  __  _____
 72
    65
 73
     4
 40
20.32
 49
12.7
 74
     0
 49
-2.54
 74
     0
 49
2.54
 74
     0
 49
-2.54
 74
     0
  0
LTYPE
  5
62
330
5
100
AcDbSymbolTableRecord
100
AcDbLinetypeTableRecord
  2
DOT2
 70
     0
  3
Dot (.5x) ........................................
 72
    65
 73
     2
 40
0.635
 49
0.0
 74
     0
 49
-0.635
 74
     0
  0
ENDTAB
  0
TABLE
  2
LAYER
  5
2
330
0
100
AcDbSymbolTable
 70
    14
  0
LAYER
  5
10
330
2
100
AcDbSymbolTableRecord
100
AcDbLayerTableRecord
  2
0
 70
     0
 62
     7
  6
Continuous
370
    -3
390
F
  0
LAYER
  5
63
330
2
100
AcDbSymbolTableRecord
100
AcDbLayerTableRecord
  2
SLD-0
 70
     0
 62
     7
  6
Continuous
370
    -3
390
F
  0
LAYER
  5
64
330
2
100
AcDbSymbolTableRecord
100
AcDbLayerTableRecord
  2
5
 70
     0
 62
     7
  6
Continuous
370
    -3
390
F
  0
LAYER
  5
65
330
2
100
AcDbSymbolTableRecord
100
AcDbLayerTableRecord
  2
9
 70
     0
 62
     7
  6
Continuous
370
    -3
390
F
  0
LAYER
  5
66
330
2
100
AcDbSymbolTableRecord
100
AcDbLayerTableRecord
  2
10
 70
     0
 62
     7
  6
Continuous
370
    -3
390
F
  0
LAYER
  5
67
330
2
100
AcDbSymbolTableRecord
100
AcDbLayerTableRecord
  2
轮廓实线层
 70
     0
 62
     7
  6
Continuous
370
    50
390
F
  0
LAYER
  5
68
330
2
100
AcDbSymbolTableRecord
100
AcDbLayerTableRecord
  2
细线层
 70
     0
 62
     4
  6
Continuous
370
    25
390
F
  0
LAYER
  5
69
330
2
100
AcDbSymbolTableRecord
100
AcDbLayerTableRecord
  2
中心线层
 70
     0
 62
     1
  6
CENTERX2
370
    25
390
F
  0
LAYER
  5
6A
330
2
100
AcDbSymbolTableRecord
100
AcDbLayerTableRecord
  2
虚线层
 70
     0
 62
     6
  6
HIDDEN
370
    25
390
F
  0
LAYER
  5
6B
330
2
100
AcDbSymbolTableRecord
100
AcDbLayerTableRecord
  2
剖面线层
 70
     0
 62
     2
  6
Continuous
370
    25
390
F
  0
LAYER
  5
6C
330
2
100
AcDbSymbolTableRecord
100
AcDbLayerTableRecord
  2
文字层
 70
     0
 62
     3
  6
Continuous
370
    25
390
F
  0
LAYER
  5
6D
330
2
100
AcDbSymbolTableRecord
100
AcDbLayerTableRecord
  2
标注层
 70
     0
 62
     4
  6
Continuous
370
    25
390
F
  0
LAYER
  5
6E
330
2
100
AcDbSymbolTableRecord
100
AcDbLayerTableRecord
  2
符号标注层
 70
     0
 62
    31
  6
Continuous
370
    25
390
F
  0
LAYER
  5
6F
330
2
100
AcDbSymbolTableRecord
100
AcDbLayerTableRecord
  2
双点划线层
 70
     0
 62
     6
  6
PHANTOM
370
    25
390
F
  0
ENDTAB
  0
TABLE
  2
STYLE
  5
3
330
0
100
AcDbSymbolTable
 70
     1
  0
STYLE
  5
11
330
3
100
AcDbSymbolTableRecord
100
AcDbTextStyleTableRecord
  2
Standard
 70
     0
 40
0.0
 41
1.0
 50
0.0
 71
     0
 42
3.5
  3
txt
  4

  0
ENDTAB
  0
TABLE
  2
VIEW
  5
6
330
0
100
AcDbSymbolTable
 70
     0
  0
ENDTAB
  0
TABLE
  2
UCS
  5
7
330
0
100
AcDbSymbolTable
 70
     0
  0
ENDTAB
  0
TABLE
  2
APPID
  5
9
330
0
100
AcDbSymbolTable
 70
     1
  0
APPID
  5
12
330
9
100
AcDbSymbolTableRecord
100
AcDbRegAppTableRecord
  2
ACAD
 70
     0
  0
ENDTAB
  0
TABLE
  2
DIMSTYLE
  5
A
330
0
100
AcDbSymbolTable
 70
     1
100
AcDbDimStyleTable
  0
DIMSTYLE
105
27
330
A
100
AcDbSymbolTableRecord
100
AcDbDimStyleTableRecord
  2
ISO-25
 70
     0
 41
2.5
 42
0.625
 43
3.75
 44
1.25
 73
     0
 74
     0
 77
     1
 78
     8
140
2.5
141
2.5
143
0.0393700787
147
0.625
171
     3
172
     1
178
     0
271
     2
272
     2
274
     3
278
    44
283
     0
284
     8
340
11
  0
ENDTAB
  0
TABLE
  2
BLOCK_RECORD
  5
1
330
0
100
AcDbSymbolTable
 70
     5
  0
BLOCK_RECORD
  5
1F
330
1
100
AcDbSymbolTableRecord
100
AcDbBlockTableRecord
  2
*Model_Space
340
22
  0
BLOCK_RECORD
  5
1B
330
1
100
AcDbSymbolTableRecord
100
AcDbBlockTableRecord
  2
*Paper_Space
340
1E
  0
BLOCK_RECORD
  5
23
330
1
100
AcDbSymbolTableRecord
100
AcDbBlockTableRecord
  2
*Paper_Space0
340
26
  0
BLOCK_RECORD
  5
B3
330
1
100
AcDbSymbolTableRecord
100
AcDbBlockTableRecord
  2
SW_CENTERMARKSYMBOL_0
340
0
102
{BLKREFS
331
BE
102
}
  0
BLOCK_RECORD
  5
BF
330
1
100
AcDbSymbolTableRecord
100
AcDbBlockTableRecord
  2
SW_CENTERMARKSYMBOL_1
340
0
102
{BLKREFS
331
CA
102
}
  0
BLOCK_RECORD
  5
CB
330
1
100
AcDbSymbolTableRecord
100
AcDbBlockTableRecord
  2
SW_CENTERMARKSYMBOL_2
340
0
102
{BLKREFS
331
D6
102
}
  0
BLOCK_RECORD
  5
D7
330
1
100
AcDbSymbolTableRecord
100
AcDbBlockTableRecord
  2
SW_CENTERMARKSYMBOL_3
340
0
102
{BLKREFS
331
E2
102
}
  0
ENDTAB
  0
ENDSEC
  0
SECTION
  2
BLOCKS
  0
BLOCK
  5
20
330
1F
100
AcDbEntity
  8
0
100
AcDbBlockBegin
  2
*Model_Space
 70
     0
 10
0.0
 20
0.0
 30
0.0
  3
*Model_Space
  1

  0
ENDBLK
  5
21
330
1F
100
AcDbEntity
  8
0
100
AcDbBlockEnd
  0
BLOCK
  5
1C
330
1B
100
AcDbEntity
 67
     1
  8
0
100
AcDbBlockBegin
  2
*Paper_Space
 70
     0
 10
0.0
 20
0.0
 30
0.0
  3
*Paper_Space
  1

  0
ENDBLK
  5
1D
330
1B
100
AcDbEntity
 67
     1
  8
0
100
AcDbBlockEnd
  0
BLOCK
  5
24
330
23
100
AcDbEntity
  8
0
100
AcDbBlockBegin
  2
*Paper_Space0
 70
     0
 10
0.0
 20
0.0
 30
0.0
  3
*Paper_Space0
  1

  0
ENDBLK
  5
25
330
23
100
AcDbEntity
  8
0
100
AcDbBlockEnd
  0
BLOCK
  5
B4
330
B3
100
AcDbEntity
  8
0
100
AcDbBlockBegin
  2
SW_CENTERMARKSYMBOL_0
 70
     0
 10
0.0
 20
0.0
 30
0.0
  3
SW_CENTERMARKSYMBOL_0
  1

  0
LINE
  5
B6
330
B3
100
AcDbEntity
  8
10
 62
     0
100
AcDbLine
 10
0.0
 20
0.0
 30
0.0
 11
0.0
 21
2.5
 31
0.0
  0
LINE
  5
B7
330
B3
100
AcDbEntity
  8
10
 62
     0
100
AcDbLine
 10
0.0
 20
0.0
 30
0.0
 11
-2.5
 21
0.0
 31
0.0
  0
LINE
  5
B8
330
B3
100
AcDbEntity
  8
10
 62
     0
100
AcDbLine
 10
0.0
 20
0.0
 30
0.0
 11
0.0
 21
-2.5
 31
0.0
  0
LINE
  5
B9
330
B3
100
AcDbEntity
  8
10
 62
     0
100
AcDbLine
 10
0.0
 20
0.0
 30
0.0
 11
2.5
 21
0.0
 31
0.0
  0
LINE
  5
BA
330
B3
100
AcDbEntity
  8
10
 62
     0
100
AcDbLine
 10
0.0
 20
2.5
 30
0.0
 11
0.0
 21
4.503285388
 31
0.0
  0
LINE
  5
BB
330
B3
100
AcDbEntity
  8
10
 62
     0
100
AcDbLine
 10
-2.5
 20
0.0
 30
0.0
 11
-4.503285388
 21
0.0
 31
0.0
  0
LINE
  5
BC
330
B3
100
AcDbEntity
  8
10
 62
     0
100
AcDbLine
 10
0.0
 20
-2.5
 30
0.0
 11
0.0
 21
-4.503285388
 31
0.0
  0
LINE
  5
BD
330
B3
100
AcDbEntity
  8
10
 62
     0
100
AcDbLine
 10
2.5
 20
0.0
 30
0.0
 11
4.503285388
 21
0.0
 31
0.0
  0
ENDBLK
  5
B5
330
B3
100
AcDbEntity
  8
0
100
AcDbBlockEnd
  0
BLOCK
  5
C0
330
BF
100
AcDbEntity
  8
0
100
AcDbBlockBegin
  2
SW_CENTERMARKSYMBOL_1
 70
     0
 10
0.0
 20
0.0
 30
0.0
  3
SW_CENTERMARKSYMBOL_1
  1

  0
LINE
  5
C2
330
BF
100
AcDbEntity
  8
10
 62
     0
100
AcDbLine
 10
0.0
 20
0.0
 30
0.0
 11
0.0
 21
2.5
 31
0.0
  0
LINE
  5
C3
330
BF
100
AcDbEntity
  8
10
 62
     0
100
AcDbLine
 10
0.0
 20
0.0
 30
0.0
 11
-2.5
 21
0.0
 31
0.0
  0
LINE
  5
C4
330
BF
100
AcDbEntity
  8
10
 62
     0
100
AcDbLine
 10
0.0
 20
0.0
 30
0.0
 11
0.0
 21
-2.5
 31
0.0
  0
LINE
  5
C5
330
BF
100
AcDbEntity
  8
10
 62
     0
100
AcDbLine
 10
0.0
 20
0.0
 30
0.0
 11
2.5
 21
0.0
 31
0.0
  0
LINE
  5
C6
330
BF
100
AcDbEntity
  8
10
 62
     0
100
AcDbLine
 10
0.0
 20
2.5
 30
0.0
 11
0.0
 21
4.503285388
 31
0.0
  0
LINE
  5
C7
330
BF
100
AcDbEntity
  8
10
 62
     0
100
AcDbLine
 10
-2.5
 20
0.0
 30
0.0
 11
-4.503285388
 21
0.0
 31
0.0
  0
LINE
  5
C8
330
BF
100
AcDbEntity
  8
10
 62
     0
100
AcDbLine
 10
0.0
 20
-2.5
 30
0.0
 11
0.0
 21
-4.503285388
 31
0.0
  0
LINE
  5
C9
330
BF
100
AcDbEntity
  8
10
 62
     0
100
AcDbLine
 10
2.5
 20
0.0
 30
0.0
 11
4.503285388
 21
0.0
 31
0.0
  0
ENDBLK
  5
C1
330
BF
100
AcDbEntity
  8
0
100
AcDbBlockEnd
  0
BLOCK
  5
CC
330
CB
100
AcDbEntity
  8
0
100
AcDbBlockBegin
  2
SW_CENTERMARKSYMBOL_2
 70
     0
 10
0.0
 20
0.0
 30
0.0
  3
SW_CENTERMARKSYMBOL_2
  1

  0
LINE
  5
CE
330
CB
100
AcDbEntity
  8
10
 62
     0
100
AcDbLine
 10
0.0
 20
0.0
 30
0.0
 11
0.0
 21
2.5
 31
0.0
  0
LINE
  5
CF
330
CB
100
AcDbEntity
  8
10
 62
     0
100
AcDbLine
 10
0.0
 20
0.0
 30
0.0
 11
-2.5
 21
0.0
 31
0.0
  0
LINE
  5
D0
330
CB
100
AcDbEntity
  8
10
 62
     0
100
AcDbLine
 10
0.0
 20
0.0
 30
0.0
 11
0.0
 21
-2.5
 31
0.0
  0
LINE
  5
D1
330
CB
100
AcDbEntity
  8
10
 62
     0
100
AcDbLine
 10
0.0
 20
0.0
 30
0.0
 11
2.5
 21
0.0
 31
0.0
  0
LINE
  5
D2
330
CB
100
AcDbEntity
  8
10
 62
     0
100
AcDbLine
 10
0.0
 20
2.5
 30
0.0
 11
0.0
 21
4.503285388
 31
0.0
  0
LINE
  5
D3
330
CB
100
AcDbEntity
  8
10
 62
     0
100
AcDbLine
 10
-2.5
 20
0.0
 30
0.0
 11
-4.503285388
 21
0.0
 31
0.0
  0
LINE
  5
D4
330
CB
100
AcDbEntity
  8
10
 62
     0
100
AcDbLine
 10
0.0
 20
-2.5
 30
0.0
 11
0.0
 21
-4.503285388
 31
0.0
  0
LINE
  5
D5
330
CB
100
AcDbEntity
  8
10
 62
     0
100
AcDbLine
 10
2.5
 20
0.0
 30
0.0
 11
4.503285388
 21
0.0
 31
0.0
  0
ENDBLK
  5
CD
330
CB
100
AcDbEntity
  8
0
100
AcDbBlockEnd
  0
BLOCK
  5
D8
330
D7
100
AcDbEntity
  8
0
100
AcDbBlockBegin
  2
SW_CENTERMARKSYMBOL_3
 70
     0
 10
0.0
 20
0.0
 30
0.0
  3
SW_CENTERMARKSYMBOL_3
  1

  0
LINE
  5
DA
330
D7
100
AcDbEntity
  8
10
 62
     0
100
AcDbLine
 10
0.0
 20
0.0
 30
0.0
 11
0.0
 21
2.5
 31
0.0
  0
LINE
  5
DB
330
D7
100
AcDbEntity
  8
10
 62
     0
100
AcDbLine
 10
0.0
 20
0.0
 30
0.0
 11
-2.5
 21
0.0
 31
0.0
  0
LINE
  5
DC
330
D7
100
AcDbEntity
  8
10
 62
     0
100
AcDbLine
 10
0.0
 20
0.0
 30
0.0
 11
0.0
 21
-2.5
 31
0.0
  0
LINE
  5
DD
330
D7
100
AcDbEntity
  8
10
 62
     0
100
AcDbLine
 10
0.0
 20
0.0
 30
0.0
 11
2.5
 21
0.0
 31
0.0
  0
LINE
  5
DE
330
D7
100
AcDbEntity
  8
10
 62
     0
100
AcDbLine
 10
0.0
 20
2.5
 30
0.0
 11
0.0
 21
4.503285388
 31
0.0
  0
LINE
  5
DF
330
D7
100
AcDbEntity
  8
10
 62
     0
100
AcDbLine
 10
-2.5
 20
0.0
 30
0.0
 11
-4.503285388
 21
0.0
 31
0.0
  0
LINE
  5
E0
330
D7
100
AcDbEntity
  8
10
 62
     0
100
AcDbLine
 10
0.0
 20
-2.5
 30
0.0
 11
0.0
 21
-4.503285388
 31
0.0
  0
LINE
  5
E1
330
D7
100
AcDbEntity
  8
10
 62
     0
100
AcDbLine
 10
2.5
 20
0.0
 30
0.0
 11
4.503285388
 21
0.0
 31
0.0
  0
ENDBLK
  5
D9
330
D7
100
AcDbEntity
  8
0
100
AcDbBlockEnd
  0
ENDSEC
  0
SECTION
  2
ENTITIES
  0
LINE
  5
70
330
1F
100
AcDbEntity
  8
0
  6
Continuous
 62
     7
370
    25
100
AcDbLine
 10
85.003285388
 20
8.6026283104
 30
0.0
 11
91.4137986298
 21
8.6026283104
 31
0.0
  0
LINE
  5
71
330
1F
100
AcDbEntity
  8
0
  6
Continuous
 62
     7
370
    25
100
AcDbLine
 10
91.4137986298
 20
8.6026283104
 30
0.0
 11
91.4137986298
 21
33.1148283184
 31
0.0
  0
LINE
  5
72
330
1F
100
AcDbEntity
  8
0
  6
Continuous
 62
     7
370
    25
100
AcDbLine
 10
91.4137986298
 20
33.1148283184
 30
0.0
 11
74.5862013702
 21
33.1148283184
 31
0.0
  0
LINE
  5
73
330
1F
100
AcDbEntity
  8
0
  6
Continuous
 62
     7
370
    25
100
AcDbLine
 10
74.5862013702
 20
33.1148283184
 30
0.0
 11
74.5862013702
 21
8.6026283104
 31
0.0
  0
LINE
  5
74
330
1F
100
AcDbEntity
  8
0
  6
Continuous
 62
     7
370
    25
100
AcDbLine
 10
74.5862013702
 20
8.6026283104
 30
0.0
 11
80.996714612
 21
8.6026283104
 31
0.0
  0
LINE
  5
75
330
1F
100
AcDbEntity
  8
0
  6
Continuous
 62
     7
370
    25
100
AcDbLine
 10
80.996714612
 20
7.0
 30
0.0
 11
80.996714612
 21
8.6026283104
 31
0.0
  0
LINE
  5
76
330
1F
100
AcDbEntity
  8
0
  6
Continuous
 62
     7
370
    25
100
AcDbLine
 10
74.5862013702
 20
7.0
 30
0.0
 11
80.996714612
 21
7.0
 31
0.0
  0
ARC
  5
77
330
1F
100
AcDbEntity
  8
0
  6
Continuous
 62
     7
370
    25
100
AcDbCircle
 10
74.5862013702
 20
8.6026283104
 30
0.0
 40
1.602628310429111
100
AcDbArc
 50
180.0
 51
270.0
  0
LINE
  5
78
330
1F
100
AcDbEntity
  8
0
  6
Continuous
 62
     7
370
    25
100
AcDbLine
 10
72.9835730598
 20
33.1148283184
 30
0.0
 11
72.9835730598
 21
8.6026283104
 31
0.0
  0
ARC
  5
79
330
1F
100
AcDbEntity
  8
0
  6
Continuous
 62
     7
370
    25
100
AcDbCircle
 10
74.5862013702
 20
33.1148283184
 30
0.0
 40
1.602628310429111
100
AcDbArc
 50
90.0
 51
180.0
  0
LINE
  5
7A
330
1F
100
AcDbEntity
  8
0
  6
Continuous
 62
     7
370
    25
100
AcDbLine
 10
91.4137986298
 20
34.7174566289
 30
0.0
 11
74.5862013702
 21
34.7174566289
 31
0.0
  0
LINE
  5
7B
330
1F
100
AcDbEntity
  8
0
  6
Continuous
 62
     7
370
    25
100
AcDbLine
 10
93.0164269402
 20
8.6026283104
 30
0.0
 11
93.0164269402
 21
33.1148283184
 31
0.0
  0
ARC
  5
7C
330
1F
100
AcDbEntity
  8
0
  6
Continuous
 62
     7
370
    25
100
AcDbCircle
 10
91.4137986298
 20
8.6026283104
 30
0.0
 40
1.602628310429111
100
AcDbArc
 50
270.0
 51
0.0
  0
LINE
  5
7D
330
1F
100
AcDbEntity
  8
0
  6
Continuous
 62
     7
370
    25
100
AcDbLine
 10
85.003285388
 20
7.0
 30
0.0
 11
91.4137986298
 21
7.0
 31
0.0
  0
LINE
  5
7E
330
1F
100
AcDbEntity
  8
0
  6
Continuous
 62
     7
370
    25
100
AcDbLine
 10
85.003285388
 20
8.6026283104
 30
0.0
 11
85.003285388
 21
7.0
 31
0.0
  0
ARC
  5
7F
330
1F
100
AcDbEntity
  8
0
  6
Continuous
 62
     7
370
    25
100
AcDbCircle
 10
91.4137986298
 20
33.1148283184
 30
0.0
 40
1.602628310429111
100
AcDbArc
 50
0.0
 51
90.0
  0
SPLINE
  5
80
330
1F
100
AcDbEntity
  8
0
  6
Continuous
 62
     7
370
    25
100
AcDbSpline
210
0.0
220
0.0
230
1.0
 70
     8
 71
     3
 72
    22
 73
    18
 74
     0
 42
0.00000001
 43
0.00000001
 40
0.0
 40
0.0
 40
0.0
 40
0.0
 40
0.125
 40
0.125
 40
0.25
 40
0.25
 40
0.375
 40
0.375
 40
0.5
 40
0.5
 40
0.625
 40
0.625
 40
0.75
 40
0.75
 40
0.875
 40
0.875
 40
1.0
 40
1.0
 40
1.0
 40
1.0
 10
84.60262831042911
 20
7.000000000000013
 30
0.0
 10
84.50891398487222
 20
7.000000000000006
 30
0.0
 10
84.40262720970533
 20
7.00072092522936
 30
0.0
 10
84.16582115662332
 20
7.002791610007386
 30
0.0
 10
84.03392876356295
 20
7.004156949888395
 30
0.0
 10
83.75826967338574
 20
7.006693958631772
 30
0.0
 10
83.612332804323
 20
7.007884030053993
 30
0.0
 10
83.30933170220258
 20
7.009555000451313
 30
0.0
 10
83.15631230358056
 20
7.01001448512429
 30
0.0
 10
82.84730349953934
 20
7.010021459065971
 30
0.0
 10
82.69091245458182
 20
7.009553334458407
 30
0.0
 10
82.39108854505054
 20
7.007905873739769
 30
0.0
 10
82.24414359293802
 20
7.006715214399821
 30
0.0
 10
81.96636862501313
 20
7.004160632178326
 30
0.0
 10
81.83747730383362
 20
7.002823765512304
 30
0.0
 10
81.59951540148198
 20
7.000736422784703
 30
0.0
 10
81.49108563279968
 20
6.999999999999999
 30
0.0
 10
81.3973716895709
 20
7.000000000000006
 30
0.0
  0
LINE
  5
81
330
1F
100
AcDbEntity
  8
0
  6
Continuous
 62
     7
370
    25
100
AcDbLine
 10
80.996714612
 20
7.0
 30
0.0
 11
81.3973716896
 21
7.0
 31
0.0
  0
LINE
  5
82
330
1F
100
AcDbEntity
  8
0
  6
Continuous
 62
     7
370
    25
100
AcDbLine
 10
84.6026283104
 20
7.0
 30
0.0
 11
85.003285388
 21
7.0
 31
0.0
  0
LINE
  5
83
330
1F
100
AcDbEntity
  8
0
  6
Continuous
 62
     7
370
    25
100
AcDbLine
 10
85.003285388
 20
8.6026283104
 30
0.0
 11
83.0
 21
8.6026283104
 31
0.0
  0
LINE
  5
84
330
1F
100
AcDbEntity
  8
0
  6
Continuous
 62
     7
370
    25
100
AcDbLine
 10
83.0
 20
8.6026283104
 30
0.0
 11
80.996714612
 21
8.6026283104
 31
0.0
  0
SPLINE
  5
85
330
1F
100
AcDbEntity
  8
0
  6
Continuous
 62
     7
370
    25
100
AcDbSpline
210
0.0
220
0.0
230
1.0
 70
    24
 71
     3
 72
    26
 73
    22
 74
     0
 42
0.00000001
 43
0.00000001
 40
0.0
 40
0.0
 40
0.0
 40
0.0
 40
0.1250000000000009
 40
0.1250000000000009
 40
0.2500000000000018
 40
0.2500000000000018
 40
0.3750000000000028
 40
0.3750000000000028
 40
0.4375000000000029
 40
0.4375000000000029
 40
0.500000000000003
 40
0.500000000000003
 40
0.6250000000000021
 40
0.6250000000000021
 40
0.7500000000000012
 40
0.7500000000000012
 40
0.8750000000000004
 40
0.8750000000000004
 40
0.9375000000000002
 40
0.9375000000000002
 40
1.0
 40
1.0
 40
1.0
 40
1.0
 10
72.9835730598181
 20
42.59610526559494
 30
0.0
 10
72.9835730598181
 20
42.04035626831791
 30
0.0
 10
72.9835730598181
 20
41.49283332219301
 30
0.0
 10
72.9835730598181
 20
40.41348991247955
 30
0.0
 10
72.9835730598181
 20
39.87850029909816
 30
0.0
 10
72.9835730598181
 20
38.8638410339764
 30
0.0
 10
72.9835730598181
 20
38.37934819280351
 30
0.0
 10
72.9835730598181
 20
37.68581472590463
 30
0.0
 10
72.9835730598181
 20
37.46017682188815
 30
0.0
 10
72.9835730598181
 20
37.02790303479591
 30
0.0
 10
72.9835730598181
 20
36.82014653624999
 30
0.0
 10
72.9835730598181
 20
36.22050008460959
 30
0.0
 10
72.9835730598181
 20
35.85186840815623
 30
0.0
 10
72.9835730598181
 20
35.17215410167705
 30
0.0
 10
72.9835730598181
 20
34.86604610345691
 30
0.0
 10
72.9835730598181
 20
34.30399600787534
 30
0.0
 10
72.9835730598181
 20
34.04804934468893
 30
0.0
 10
72.9835730598181
 20
33.68705422879918
 30
0.0
 10
72.9835730598181
 20
33.57036263553495
 30
0.0
 10
72.9835730598181
 20
33.34071005754375
 30
0.0
 10
72.9835730598181
 20
33.22705204926943
 30
0.0
 10
72.9835730598181
 20
33.11482831844225
 30
0.0
  0
SPLINE
  5
86
330
1F
100
AcDbEntity
  8
0
  6
Continuous
 62
     7
370
    25
100
AcDbSpline
210
0.0
220
0.0
230
1.0
 70
    24
 71
     3
 72
    26
 73
    22
 74
     0
 42
0.00000001
 43
0.00000001
 40
0.0
 40
0.0
 40
0.0
 40
0.0
 40
0.1250000000000009
 40
0.1250000000000009
 40
0.2500000000000018
 40
0.2500000000000018
 40
0.3750000000000028
 40
0.3750000000000028
 40
0.4375000000000029
 40
0.4375000000000029
 40
0.500000000000003
 40
0.500000000000003
 40
0.6250000000000021
 40
0.6250000000000021
 40
0.7500000000000012
 40
0.7500000000000012
 40
0.8750000000000004
 40
0.8750000000000004
 40
0.9375000000000002
 40
0.9375000000000002
 40
1.0
 40
1.0
 40
1.0
 40
1.0
 10
93.0164269401819
 20
42.59610526559494
 30
0.0
 10
93.0164269401819
 20
42.04035626831791
 30
0.0
 10
93.0164269401819
 20
41.49283332219301
 30
0.0
 10
93.0164269401819
 20
40.41348991247955
 30
0.0
 10
93.0164269401819
 20
39.87850029909816
 30
0.0
 10
93.0164269401819
 20
38.8638410339764
 30
0.0
 10
93.0164269401819
 20
38.37934819280351
 30
0.0
 10
93.0164269401819
 20
37.68581472590463
 30
0.0
 10
93.0164269401819
 20
37.46017682188815
 30
0.0
 10
93.0164269401819
 20
37.02790303479591
 30
0.0
 10
93.0164269401819
 20
36.82014653624999
 30
0.0
 10
93.0164269401819
 20
36.22050008460959
 30
0.0
 10
93.01642694018189
 20
35.85186840815623
 30
0.0
 10
93.0164269401819
 20
35.17215410167705
 30
0.0
 10
93.01642694018189
 20
34.86604610345692
 30
0.0
 10
93.0164269401819
 20
34.30399600787534
 30
0.0
 10
93.0164269401819
 20
34.04804934468893
 30
0.0
 10
93.0164269401819
 20
33.68705422879917
 30
0.0
 10
93.0164269401819
 20
33.57036263553495
 30
0.0
 10
93.0164269401819
 20
33.34071005754375
 30
0.0
 10
93.0164269401819
 20
33.22705204926371
 30
0.0
 10
93.0164269401819
 20
33.11482831844225
 30
0.0
  0
ARC
  5
87
330
1F
100
AcDbEntity
  8
0
  6
Continuous
 62
     7
370
    25
100
AcDbCircle
 10
68.9770022837
 20
62.9277214632
 30
0.0
 40
4.006570776072763
100
AcDbArc
 50
0.0
 51
90.0
  0
LINE
  5
88
330
1F
100
AcDbEntity
  8
0
  6
Continuous
 62
     7
370
    25
100
AcDbLine
 10
66.9737168957
 20
66.9342922393
 30
0.0
 11
68.9770022837
 21
66.9342922393
 31
0.0
  0
ARC
  5
89
330
1F
100
AcDbEntity
  8
0
  6
Continuous
 62
     7
370
    25
100
AcDbCircle
 10
66.9737168957
 20
70.9408630153
 30
0.0
 40
4.00657077607277
100
AcDbArc
 50
180.0
 51
270.0
  0
ARC
  5
8A
330
1F
100
AcDbEntity
  8
0
  6
Continuous
 62
     7
370
    25
100
AcDbCircle
 10
66.9737168957
 20
102.9934292239
 30
0.0
 40
4.00657077607277
100
AcDbArc
 50
90.0
 51
180.0
  0
LINE
  5
8B
330
1F
100
AcDbEntity
  8
0
  6
Continuous
 62
     7
370
    25
100
AcDbLine
 10
99.0262831043
 20
107.0
 30
0.0
 11
66.9737168957
 21
107.0
 31
0.0
  0
ARC
  5
8C
330
1F
100
AcDbEntity
  8
0
  6
Continuous
 62
     7
370
    25
100
AcDbCircle
 10
99.0262831043
 20
102.9934292239
 30
0.0
 40
4.006570776072763
100
AcDbArc
 50
0.0
 51
90.0
  0
LINE
  5
8D
330
1F
100
AcDbEntity
  8
0
  6
Continuous
 62
     7
370
    25
100
AcDbLine
 10
103.0328538804
 20
70.9408630153
 30
0.0
 11
103.0328538804
 21
102.9934292239
 31
0.0
  0
ARC
  5
8E
330
1F
100
AcDbEntity
  8
0
  6
Continuous
 62
     7
370
    25
100
AcDbCircle
 10
99.0262831043
 20
70.9408630153
 30
0.0
 40
4.006570776072763
100
AcDbArc
 50
270.0
 51
0.0
  0
LINE
  5
8F
330
1F
100
AcDbEntity
  8
0
  6
Continuous
 62
     7
370
    25
100
AcDbLine
 10
97.0229977163
 20
66.9342922393
 30
0.0
 11
99.0262831043
 21
66.9342922393
 31
0.0
  0
ARC
  5
90
330
1F
100
AcDbEntity
  8
0
  6
Continuous
 62
     7
370
    25
100
AcDbCircle
 10
97.0229977163
 20
62.9277214632
 30
0.0
 40
4.006570776072763
100
AcDbArc
 50
90.0
 51
180.0
  0
CIRCLE
  5
91
330
1F
100
AcDbEntity
  8
0
  6
Continuous
 62
     7
370
    25
100
AcDbCircle
 10
98.0246404103
 20
74.9474337914
 30
0.0
 40
2.003285388036375
  0
CIRCLE
  5
92
330
1F
100
AcDbEntity
  8
0
  6
Continuous
 62
     7
370
    25
100
AcDbCircle
 10
67.9753595897
 20
98.9868584479
 30
0.0
 40
2.00328538803636
  0
CIRCLE
  5
93
330
1F
100
AcDbEntity
  8
0
  6
Continuous
 62
     7
370
    25
100
AcDbCircle
 10
98.0246404103
 20
98.9868584479
 30
0.0
 40
2.003285388036375
  0
LINE
  5
94
330
1F
100
AcDbEntity
  8
0
  6
Continuous
 62
     7
370
    25
100
AcDbLine
 10
62.9671461196
 20
102.9934292239
 30
0.0
 11
62.9671461196
 21
70.9408630153
 31
0.0
  0
CIRCLE
  5
95
330
1F
100
AcDbEntity
  8
0
  6
Continuous
 62
     7
370
    25
100
AcDbCircle
 10
67.9753595897
 20
74.9474337914
 30
0.0
 40
2.00328538803636
  0
LINE
  5
96
330
1F
100
AcDbEntity
  8
0
  6
Continuous
 62
     7
370
    25
100
AcDbLine
 10
93.0164269402
 20
42.5961052656
 30
0.0
 11
93.0164269402
 21
62.9277214632
 31
0.0
  0
LINE
  5
97
330
1F
100
AcDbEntity
  8
0
  6
Continuous
 62
     7
370
    25
100
AcDbLine
 10
72.9835730598
 20
62.9277214632
 30
0.0
 11
72.9835730598
 21
42.5961052656
 31
0.0
  0
SPLINE
  5
98
330
1F
100
AcDbEntity
  8
0
  6
HIDDEN
 62
     7
370
    18
100
AcDbSpline
210
0.0
220
0.0
230
1.0
 70
     8
 71
     3
 72
    28
 73
    24
 74
     0
 42
0.00000001
 43
0.00000001
 40
0.0
 40
0.0
 40
0.0
 40
0.0
 40
0.1249999999999998
 40
0.1249999999999998
 40
0.2499999999999997
 40
0.2499999999999997
 40
0.3124999999999997
 40
0.3124999999999997
 40
0.3749999999999998
 40
0.3749999999999998
 40
0.5
 40
0.5
 40
0.625
 40
0.625
 40
0.7500000000000001
 40
0.7500000000000001
 40
0.8750000000000001
 40
0.8750000000000001
 40
0.9375000000000002
 40
0.9375000000000002
 40
0.9687500000000001
 40
0.9687500000000001
 40
1.0
 40
1.0
 40
1.0
 40
1.0
 10
85.00328538803637
 20
13.41051324171642
 30
0.0
 10
85.00328538803637
 20
12.86054753594698
 30
0.0
 10
85.07272038637282
 20
12.34977364772442
 30
0.0
 10
85.30738880188103
 20
11.39899620500005
 30
0.0
 10
85.47317064432372
 20
10.95907249750703
 30
0.0
 10
85.77661762251037
 20
10.34973622367675
 30
0.0
 10
85.88719160373556
 20
10.15487943524027
 30
0.0
 10
86.12199014039095
 20
9.78569605821443
 30
0.0
 10
86.24646714421834
 20
9.610794778369062
 30
0.0
 10
86.63791825507974
 20
9.113580974558493
 30
0.0
 10
86.92277602304925
 20
8.818662334055455
 30
0.0
 10
87.52783038873437
 20
8.296451290399693
 30
0.0
 10
87.84810249605496
 20
8.0691906845686
 30
0.0
 10
88.51533440795623
 20
7.679647623650608
 30
0.0
 10
88.86303913972722
 20
7.517134620294484
 30
0.0
 10
89.57514423406617
 20
7.2576573548448
 30
0.0
 10
89.93811183088388
 20
7.161057151963329
 30
0.0
 10
90.48827326091322
 20
7.064431691277004
 30
0.0
 10
90.67262014815783
 20
7.040285572544263
 30
0.0
 10
90.95004550868096
 20
7.016122763802763
 30
0.0
 10
91.04267167281861
 20
7.010078838950509
 30
0.0
 10
91.22813855508512
 20
7.002016842486178
 30
0.0
 10
91.32149705683491
 20
7.000000000000006
 30
0.0
 10
91.41379862975279
 20
7.000000000000013
 30
0.0
  0
LINE
  5
99
330
1F
100
AcDbEntity
  8
0
  6
HIDDEN
 62
     7
370
    18
100
AcDbLine
 10
85.003285388
 20
39.0525662086
 30
0.0
 11
85.003285388
 21
13.4105132417
 31
0.0
  0
LINE
  5
9A
330
1F
100
AcDbEntity
  8
0
  6
HIDDEN
 62
     7
370
    18
100
AcDbLine
 10
80.996714612
 20
13.4105132417
 30
0.0
 11
80.996714612
 21
39.0525662086
 31
0.0
  0
SPLINE
  5
9B
330
1F
100
AcDbEntity
  8
0
  6
HIDDEN
 62
     7
370
    18
100
AcDbSpline
210
0.0
220
0.0
230
1.0
 70
     8
 71
     3
 72
    28
 73
    24
 74
     0
 42
0.00000001
 43
0.00000001
 40
0.0
 40
0.0
 40
0.0
 40
0.0
 40
0.1249999999999997
 40
0.1249999999999997
 40
0.2499999999999994
 40
0.2499999999999994
 40
0.3124999999999994
 40
0.3124999999999994
 40
0.3749999999999995
 40
0.3749999999999995
 40
0.4999999999999997
 40
0.4999999999999997
 40
0.6249999999999998
 40
0.6249999999999998
 40
0.7499999999999999
 40
0.7499999999999999
 40
0.8750000000000001
 40
0.8750000000000001
 40
0.9375
 40
0.9375
 40
0.9687500000000001
 40
0.9687500000000001
 40
1.0
 40
1.0
 40
1.0
 40
1.0
 10
80.99671461196361
 20
13.41051324171642
 30
0.0
 10
80.99671461196361
 20
12.86054753594697
 30
0.0
 10
80.92727961362718
 20
12.34977364772442
 30
0.0
 10
80.69261119811898
 20
11.39899620500006
 30
0.0
 10
80.52682935567628
 20
10.95907249750703
 30
0.0
 10
80.22338237748961
 20
10.34973622367674
 30
0.0
 10
80.11280839626444
 20
10.15487943524027
 30
0.0
 10
79.87800985960905
 20
9.785696058214437
 30
0.0
 10
79.75353285578167
 20
9.610794778369069
 30
0.0
 10
79.36208174492026
 20
9.113580974558499
 30
0.0
 10
79.07722397695076
 20
8.818662334055455
 30
0.0
 10
78.47216961126563
 20
8.296451290399693
 30
0.0
 10
78.15189750394504
 20
8.0691906845686
 30
0.0
 10
77.48466559204378
 20
7.679647623650622
 30
0.0
 10
77.1369608602728
 20
7.517134620294478
 30
0.0
 10
76.42485576593381
 20
7.257657354844779
 30
0.0
 10
76.06188816911612
 20
7.161057151963322
 30
0.0
 10
75.51172673908678
 20
7.064431691277011
 30
0.0
 10
75.32737985184218
 20
7.040285572544269
 30
0.0
 10
75.04995449131907
 20
7.016122763802763
 30
0.0
 10
74.9573283271814
 20
7.010078838950509
 30
0.0
 10
74.77186144491485
 20
7.002016842486171
 30
0.0
 10
74.67850294316491
 20
6.999999999999992
 30
0.0
 10
74.58620137024721
 20
7.000000000000013
 30
0.0
  0
SPLINE
  5
9C
330
1F
100
AcDbEntity
  8
0
  6
HIDDEN
 62
     7
370
    18
100
AcDbSpline
210
0.0
220
0.0
230
1.0
 70
     8
 71
     3
 72
    10
 73
     6
 74
     0
 42
0.00000001
 43
0.00000001
 40
0.0
 40
0.0
 40
0.0
 40
0.0
 40
0.5
 40
0.5
 40
1.0
 40
1.0
 40
1.0
 40
1.0
 10
89.8111703193237
 20
20.02199582447039
 30
0.0
 10
89.8111703193237
 20
20.26350740574604
 30
0.0
 10
89.69589872651454
 20
20.49550990816899
 30
0.0
 10
89.39272558899488
 20
20.92489250819218
 30
0.0
 10
89.20136164923609
 20
21.12540038158309
 30
0.0
 10
89.00985616410914
 20
21.32666934056475
 30
0.0
  0
LINE
  5
9D
330
1F
100
AcDbEntity
  8
0
  6
HIDDEN
 62
     7
370
    18
100
AcDbLine
 10
89.8111703193
 20
17.0286328408
 30
0.0
 11
89.8111703193
 21
20.0219958245
 31
0.0
  0
SPLINE
  5
9E
330
1F
100
AcDbEntity
  8
0
  6
HIDDEN
 62
     7
370
    18
100
AcDbSpline
210
0.0
220
0.0
230
1.0
 70
     8
 71
     3
 72
    10
 73
     6
 74
     0
 42
0.00000001
 43
0.00000001
 40
0.0
 40
0.0
 40
0.0
 40
0.0
 40
0.5
 40
0.5
 40
1.0
 40
1.0
 40
1.0
 40
1.0
 10
89.8111703193237
 20
17.0286328407977
 30
0.0
 10
89.81117031932371
 20
17.27014442207325
 30
0.0
 10
89.6958987265147
 20
17.50214692449606
 30
0.0
 10
89.39272558899498
 20
17.93152952451944
 30
0.0
 10
89.20136164958905
 20
18.13203739805887
 30
0.0
 10
89.00985616410914
 20
18.33330635689205
 30
0.0
  0
LINE
  5
9F
330
1F
100
AcDbEntity
  8
0
  6
HIDDEN
 62
     7
370
    18
100
AcDbLine
 10
76.1888296807
 20
20.0219958245
 30
0.0
 11
76.1888296807
 21
17.0286328408
 31
0.0
  0
SPLINE
  5
A0
330
1F
100
AcDbEntity
  8
0
  6
HIDDEN
 62
     7
370
    18
100
AcDbSpline
210
0.0
220
0.0
230
1.0
 70
     8
 71
     3
 72
    10
 73
     6
 74
     0
 42
0.00000001
 43
0.00000001
 40
0.0
 40
0.0
 40
0.0
 40
0.0
 40
0.5
 40
0.5
 40
1.0
 40
1.0
 40
1.0
 40
1.0
 10
76.18882968067632
 20
20.02199582447039
 30
0.0
 10
76.18882968067632
 20
20.26350740574603
 30
0.0
 10
76.30410127348544
 20
20.49550990816897
 30
0.0
 10
76.60727441100512
 20
20.92489250819218
 30
0.0
 10
76.79863835072031
 20
21.12540038160143
 30
0.0
 10
76.99014383589086
 20
21.32666934056475
 30
0.0
  0
SPLINE
  5
A1
330
1F
100
AcDbEntity
  8
0
  6
HIDDEN
 62
     7
370
    18
100
AcDbSpline
210
0.0
220
0.0
230
1.0
 70
     8
 71
     3
 72
    10
 73
     6
 74
     0
 42
0.00000001
 43
0.00000001
 40
0.0
 40
0.0
 40
0.0
 40
0.0
 40
0.5
 40
0.5
 40
1.0
 40
1.0
 40
1.0
 40
1.0
 10
76.18882968067632
 20
17.02863284079767
 30
0.0
 10
76.1888296806763
 20
17.27014442207319
 30
0.0
 10
76.30410127348523
 20
17.50214692449594
 30
0.0
 10
76.60727441100498
 20
17.93152952451942
 30
0.0
 10
76.79863835026605
 20
18.13203739811982
 30
0.0
 10
76.99014383589086
 20
18.33330635689203
 30
0.0
  0
LINE
  5
A2
330
1F
100
AcDbEntity
  8
0
  6
HIDDEN
 62
     7
370
    18
100
AcDbLine
 10
76.1888296807
 20
17.0286328408
 30
0.0
 11
76.1888296807
 21
14.6027650608
 31
0.0
  0
LINE
  5
A3
330
1F
100
AcDbEntity
  8
0
  6
HIDDEN
 62
     7
370
    18
100
AcDbLine
 10
89.8111703193
 20
14.6027650608
 30
0.0
 11
89.8111703193
 21
17.0286328408
 31
0.0
  0
SPLINE
  5
A4
330
1F
100
AcDbEntity
  8
0
  6
HIDDEN
 62
     7
370
    18
100
AcDbSpline
210
0.0
220
0.0
230
1.0
 70
     8
 71
     3
 72
    11
 73
     7
 74
     0
 42
0.00000001
 43
0.00000001
 40
0.0
 40
0.0
 40
0.0
 40
0.0
 40
0.2334859747821974
 40
0.6105209342880509
 40
0.995917878369991
 40
1.0
 40
1.0
 40
1.0
 40
1.0
 10
76.21913830549273
 20
17.47674971882224
 30
0.0
 10
76.23786357521853
 20
17.37540865976276
 30
0.0
 10
76.28682655545084
 20
17.11042127404741
 30
0.0
 10
76.59079497905799
 20
16.71854233941736
 30
0.0
 10
76.85248355170853
 20
16.43611980361418
 30
0.0
 10
76.9887159866981
 20
16.29295503520972
 30
0.0
 10
76.99014383589086
 20
16.29145452838095
 30
0.0
  0
SPLINE
  5
A5
330
1F
100
AcDbEntity
  8
0
  6
HIDDEN
 62
     7
370
    18
100
AcDbSpline
210
0.0
220
0.0
230
1.0
 70
     8
 71
     3
 72
    11
 73
     7
 74
     0
 42
0.00000001
 43
0.00000001
 40
0.0
 40
0.0
 40
0.0
 40
0.0
 40
0.0040834603427148
 40
0.383421000818493
 40
0.7667483810600593
 40
1.0
 40
1.0
 40
1.0
 40
1.0
 10
89.00985616410914
 20
16.29145452838095
 30
0.0
 10
89.01128401503011
 20
16.29295503568132
 30
0.0
 10
89.14535364793758
 20
16.43384681925601
 30
0.0
 10
89.40704729351022
 20
16.71622764543724
 30
0.0
 10
89.7125234752374
 20
17.10762563370846
 30
0.0
 10
89.76203135136855
 20
17.37514669089336
 30
0.0
 10
89.7807601635292
 20
17.47634981291298
 30
0.0
  0
SPLINE
  5
A6
330
1F
100
AcDbEntity
  8
0
  6
HIDDEN
 62
     7
370
    18
100
AcDbSpline
210
0.0
220
0.0
230
1.0
 70
     8
 71
     3
 72
    10
 73
     6
 74
     0
 42
0.00000001
 43
0.00000001
 40
0.0
 40
0.0
 40
0.0
 40
0.0
 40
0.5
 40
0.5
 40
1.0
 40
1.0
 40
1.0
 40
1.0
 10
89.8111703193237
 20
14.60276506080259
 30
0.0
 10
89.81117031932371
 20
14.361253479527
 30
0.0
 10
89.69589872651466
 20
14.12925097710413
 30
0.0
 10
89.39272558899495
 20
13.69986837708081
 30
0.0
 10
89.20136164945043
 20
13.49936050359973
 30
0.0
 10
89.00985616410914
 20
13.29809154470823
 30
0.0
  0
SPLINE
  5
A7
330
1F
100
AcDbEntity
  8
0
  6
HIDDEN
 62
     7
370
    18
100
AcDbSpline
210
0.0
220
0.0
230
1.0
 70
     8
 71
     3
 72
    10
 73
     6
 74
     0
 42
0.00000001
 43
0.00000001
 40
0.0
 40
0.0
 40
0.0
 40
0.0
 40
0.5
 40
0.5
 40
1.0
 40
1.0
 40
1.0
 40
1.0
 10
76.18882968067632
 20
14.60276506080256
 30
0.0
 10
76.1888296806763
 20
14.36125347952701
 30
0.0
 10
76.30410127348527
 20
14.1292509771042
 30
0.0
 10
76.60727441100501
 20
13.69986837708079
 30
0.0
 10
76.7986383503736
 20
13.49936050352567
 30
0.0
 10
76.99014383589086
 20
13.29809154470822
 30
0.0
  0
SPLINE
  5
A8
330
1F
100
AcDbEntity
  8
0
  6
HIDDEN
 62
     7
370
    18
100
AcDbSpline
210
0.0
220
0.0
230
1.0
 70
     8
 71
     3
 72
    14
 73
    10
 74
     0
 42
0.00000001
 43
0.00000001
 40
0.0
 40
0.0
 40
0.0
 40
0.0
 40
0.25
 40
0.25
 40
0.5
 40
0.5
 40
0.75
 40
0.75
 40
1.0
 40
1.0
 40
1.0
 40
1.0
 10
80.99671461196361
 20
13.41051324171642
 30
0.0
 10
80.99671461196363
 20
13.31218151523226
 30
0.0
 10
80.99448750121
 20
13.22503937611858
 30
0.0
 10
80.98823688489664
 20
13.07217471261071
 30
0.0
 10
80.98415451429204
 20
13.00591737609731
 30
0.0
 10
80.97657040087364
 20
12.89993915279308
 30
0.0
 10
80.97307866417702
 20
12.85985608134473
 30
0.0
 10
80.96815850840655
 20
12.80549426459096
 30
0.0
 10
80.96675678001952
 20
12.7914876485082
 30
0.0
 10
80.96675678001952
 20
12.7914876485082
 30
0.0
  0
LINE
  5
A9
330
1F
100
AcDbEntity
  8
0
  6
HIDDEN
 62
     7
370
    18
100
AcDbLine
 10
76.9901438359
 20
17.8267024607
 30
0.0
 11
89.0098561641
 21
17.8267024607
 31
0.0
  0
LINE
  5
AA
330
1F
100
AcDbEntity
  8
0
  6
HIDDEN
 62
     7
370
    18
100
AcDbLine
 10
93.0164269402
 20
21.8332732368
 30
0.0
 11
72.9835730598
 21
21.8332732368
 31
0.0
  0
ARC
  5
AB
330
1F
100
AcDbEntity
  8
0
  6
HIDDEN
 62
     7
370
    18
100
AcDbCircle
 10
89.0098561641
 20
17.0253883055
 30
0.0
 40
0.8013141552145557
100
AcDbArc
 50
9.0497821247
 51
90.0
  0
ARC
  5
AC
330
1F
100
AcDbEntity
  8
0
  6
HIDDEN
 62
     7
370
    18
100
AcDbCircle
 10
76.9901438359
 20
17.0253883055
 30
0.0
 40
0.8013141552145555
100
AcDbArc
 50
90.0
 51
170.8859805892
  0
ARC
  5
AD
330
1F
100
AcDbEntity
  8
0
  6
HIDDEN
 62
     7
370
    18
100
AcDbCircle
 10
89.0098561641
 20
17.5993725798
 30
0.0
 40
0.8013141552145646
100
AcDbArc
 50
270.0
 51
350.8859805892
  0
ARC
  5
AE
330
1F
100
AcDbEntity
  8
0
  6
HIDDEN
 62
     7
370
    18
100
AcDbCircle
 10
76.9901438359
 20
17.5993725798
 30
0.0
 40
0.8013141552145555
100
AcDbArc
 50
189.0497821247
 51
270.0
  0
LINE
  5
AF
330
1F
100
AcDbEntity
  8
0
  6
HIDDEN
 62
     7
370
    18
100
AcDbLine
 10
72.9835730598
 20
12.7914876485
 30
0.0
 11
80.996714612
 21
12.7914876485
 31
0.0
  0
LINE
  5
B0
330
1F
100
AcDbEntity
  8
0
  6
HIDDEN
 62
     7
370
    18
100
AcDbLine
 10
80.996714612
 20
16.7980584246
 30
0.0
 11
76.9901438359
 21
16.7980584246
 31
0.0
  0
LINE
  5
B1
330
1F
100
AcDbEntity
  8
0
  6
HIDDEN
 62
     7
370
    18
100
AcDbLine
 10
85.003285388
 20
12.7914876485
 30
0.0
 11
93.0164269402
 21
12.7914876485
 31
0.0
  0
LINE
  5
B2
330
1F
100
AcDbEntity
  8
0
  6
HIDDEN
 62
     7
370
    18
100
AcDbLine
 10
89.0098561641
 20
16.7980584246
 30
0.0
 11
85.003285388
 21
16.7980584246
 31
0.0
  0
INSERT
  5
BE
330
1F
100
AcDbEntity
  8
10
100
AcDbBlockReference
  2
SW_CENTERMARKSYMBOL_0
 10
98.0246404103
 20
74.9474337914
 30
0.0
  0
INSERT
  5
CA
330
1F
100
AcDbEntity
  8
10
100
AcDbBlockReference
  2
SW_CENTERMARKSYMBOL_1
 10
67.9753595897
 20
98.9868584479
 30
0.0
  0
INSERT
  5
D6
330
1F
100
AcDbEntity
  8
10
100
AcDbBlockReference
  2
SW_CENTERMARKSYMBOL_2
 10
98.0246404103
 20
98.9868584479
 30
0.0
  0
INSERT
  5
E2
330
1F
100
AcDbEntity
  8
10
100
AcDbBlockReference
  2
SW_CENTERMARKSYMBOL_3
 10
67.9753595897
 20
74.9474337914
 30
0.0
  0
LINE
  5
E3
330
1F
100
AcDbEntity
  8
0
  6
Continuous
 62
     7
370
    25
100
AcDbLine
 10
62.9671461196
 20
176.4302255699
 30
0.0
 11
66.9737168957
 21
176.4302255699
 31
0.0
  0
LINE
  5
E4
330
1F
100
AcDbEntity
  8
0
  6
Continuous
 62
     7
370
    25
100
AcDbLine
 10
62.9671461196
 20
179.6354821908
 30
0.0
 11
62.9671461196
 21
176.4302255699
 31
0.0
  0
LINE
  5
E5
330
1F
100
AcDbEntity
  8
0
  6
Continuous
 62
     7
370
    25
100
AcDbLine
 10
66.9737168957
 20
179.6354821908
 30
0.0
 11
62.9671461196
 21
179.6354821908
 31
0.0
  0
LINE
  5
E6
330
1F
100
AcDbEntity
  8
0
  6
Continuous
 62
     7
370
    25
100
AcDbLine
 10
99.0262831043
 20
176.4302255699
 30
0.0
 11
66.9737168957
 21
176.4302255699
 31
0.0
  0
LINE
  5
E7
330
1F
100
AcDbEntity
  8
0
  6
Continuous
 62
     7
370
    25
100
AcDbLine
 10
99.0262831043
 20
179.6354821908
 30
0.0
 11
66.9737168957
 21
179.6354821908
 31
0.0
  0
LINE
  5
E8
330
1F
100
AcDbEntity
  8
0
  6
Continuous
 62
     7
370
    25
100
AcDbLine
 10
103.0328538804
 20
176.4302255699
 30
0.0
 11
103.0328538804
 21
179.6354821908
 31
0.0
  0
LINE
  5
E9
330
1F
100
AcDbEntity
  8
0
  6
Continuous
 62
     7
370
    25
100
AcDbLine
 10
99.0262831043
 20
176.4302255699
 30
0.0
 11
103.0328538804
 21
176.4302255699
 31
0.0
  0
LINE
  5
EA
330
1F
100
AcDbEntity
  8
0
  6
Continuous
 62
     7
370
    25
100
AcDbLine
 10
103.0328538804
 20
179.6354821908
 30
0.0
 11
99.0262831043
 21
179.6354821908
 31
0.0
  0
SPLINE
  5
EB
330
1F
100
AcDbEntity
  8
0
  6
Continuous
 62
     7
370
    25
100
AcDbSpline
210
0.0
220
0.0
230
1.0
 70
    24
 71
     3
 72
    26
 73
    22
 74
     0
 42
0.00000001
 43
0.00000001
 40
0.0
 40
0.0
 40
0.0
 40
0.0
 40
0.1250000000000009
 40
0.1250000000000009
 40
0.2500000000000018
 40
0.2500000000000018
 40
0.3750000000000028
 40
0.3750000000000028
 40
0.4375000000000029
 40
0.4375000000000029
 40
0.500000000000003
 40
0.500000000000003
 40
0.6250000000000021
 40
0.6250000000000021
 40
0.7500000000000012
 40
0.7500000000000012
 40
0.8750000000000004
 40
0.8750000000000004
 40
0.9375000000000002
 40
0.9375000000000002
 40
1.0
 40
1.0
 40
1.0
 40
1.0
 10
93.0164269401819
 20
176.4302255699347
 30
0.0
 10
93.0164269401819
 20
176.4302255699347
 30
0.0
 10
93.0164269401819
 20
176.3745496850792
 30
0.0
 10
93.0164269401819
 20
176.1569197518285
 30
0.0
 10
93.0164269401819
 20
175.9926375117865
 30
0.0
 10
93.0164269401819
 20
175.5712439022931
 30
0.0
 10
93.0164269401819
 20
175.3137531277698
 30
0.0
 10
93.0164269401819
 20
174.8594762795893
 30
0.0
 10
93.0164269401819
 20
174.6964496475825
 30
0.0
 10
93.0164269401819
 20
174.3542799028644
 30
0.0
 10
93.0164269401819
 20
174.1744466149928
 30
0.0
 10
93.0164269401819
 20
173.610286314184
 30
0.0
 10
93.01642694018189
 20
173.2007481158131
 30
0.0
 10
93.0164269401819
 20
172.3254285448557
 30
0.0
 10
93.01642694018189
 20
171.8661399622856
 30
0.0
 10
93.0164269401819
 20
170.9154130117672
 30
0.0
 10
93.0164269401819
 20
170.4235303041476
 30
0.0
 10
93.0164269401819
 20
169.6763638119408
 30
0.0
 10
93.0164269401819
 20
169.4255607328583
 30
0.0
 10
93.0164269401819
 20
168.9221635465389
 30
0.0
 10
93.0164269401819
 20
168.6680232812608
 30
0.0
 10
93.0164269401819
 20
168.4170840177892
 30
0.0
  0
SPLINE
  5
EC
330
1F
100
AcDbEntity
  8
0
  6
Continuous
 62
     7
370
    25
100
AcDbSpline
210
0.0
220
0.0
230
1.0
 70
    24
 71
     3
 72
    26
 73
    22
 74
     0
 42
0.00000001
 43
0.00000001
 40
0.0
 40
0.0
 40
0.0
 40
0.0
 40
0.1250000000000009
 40
0.1250000000000009
 40
0.2500000000000018
 40
0.2500000000000018
 40
0.3750000000000028
 40
0.3750000000000028
 40
0.4375000000000029
 40
0.4375000000000029
 40
0.500000000000003
 40
0.500000000000003
 40
0.6250000000000021
 40
0.6250000000000021
 40
0.7500000000000012
 40
0.7500000000000012
 40
0.8750000000000004
 40
0.8750000000000004
 40
0.9375000000000002
 40
0.9375000000000002
 40
1.0
 40
1.0
 40
1.0
 40
1.0
 10
72.9835730598181
 20
176.4302255699347
 30
0.0
 10
72.9835730598181
 20
176.4302255699347
 30
0.0
 10
72.9835730598181
 20
176.3745496850792
 30
0.0
 10
72.9835730598181
 20
176.1569197518285
 30
0.0
 10
72.9835730598181
 20
175.9926375117865
 30
0.0
 10
72.9835730598181
 20
175.5712439022931
 30
0.0
 10
72.9835730598181
 20
175.3137531277698
 30
0.0
 10
72.9835730598181
 20
174.8594762795893
 30
0.0
 10
72.9835730598181
 20
174.6964496475825
 30
0.0
 10
72.9835730598181
 20
174.3542799028644
 30
0.0
 10
72.9835730598181
 20
174.1744466149928
 30
0.0
 10
72.9835730598181
 20
173.610286314184
 30
0.0
 10
72.9835730598181
 20
173.2007481158131
 30
0.0
 10
72.9835730598181
 20
172.3254285448557
 30
0.0
 10
72.9835730598181
 20
171.8661399622856
 30
0.0
 10
72.9835730598181
 20
170.9154130117672
 30
0.0
 10
72.9835730598181
 20
170.4235303041476
 30
0.0
 10
72.9835730598181
 20
169.6763638119408
 30
0.0
 10
72.9835730598181
 20
169.4255607328584
 30
0.0
 10
72.9835730598181
 20
168.9221635465389
 30
0.0
 10
72.9835730598181
 20
168.6680232812583
 30
0.0
 10
72.9835730598181
 20
168.4170840177892
 30
0.0
  0
LINE
  5
ED
330
1F
100
AcDbEntity
  8
0
  6
Continuous
 62
     7
370
    25
100
AcDbLine
 10
91.4137986298
 20
136.3645178092
 30
0.0
 11
93.0164269402
 21
136.3645178092
 31
0.0
  0
LINE
  5
EE
330
1F
100
AcDbEntity
  8
0
  6
Continuous
 62
     7
370
    25
100
AcDbLine
 10
93.0164269402
 20
136.3645178092
 30
0.0
 11
93.0164269402
 21
168.4170840178
 31
0.0
  0
LINE
  5
EF
330
1F
100
AcDbEntity
  8
0
  6
Continuous
 62
     7
370
    25
100
AcDbLine
 10
72.9835730598
 20
136.3645178092
 30
0.0
 11
74.5862013702
 21
136.3645178092
 31
0.0
  0
LINE
  5
F0
330
1F
100
AcDbEntity
  8
0
  6
Continuous
 62
     7
370
    25
100
AcDbLine
 10
72.9835730598
 20
168.4170840178
 30
0.0
 11
72.9835730598
 21
136.3645178092
 31
0.0
  0
LINE
  5
F1
330
1F
100
AcDbEntity
  8
0
  6
Continuous
 62
     7
370
    25
100
AcDbLine
 10
91.4137986298
 20
136.3645178092
 30
0.0
 11
74.5862013702
 21
136.3645178092
 31
0.0
  0
LINE
  5
F2
330
1F
100
AcDbEntity
  8
0
  6
HIDDEN
 62
     7
370
    18
100
AcDbLine
 10
72.9835730598
 20
179.6354821908
 30
0.0
 11
72.9835730598
 21
176.4302255699
 31
0.0
  0
LINE
  5
F3
330
1F
100
AcDbEntity
  8
0
  6
HIDDEN
 62
     7
370
    18
100
AcDbLine
 10
93.0164269402
 20
176.4302255699
 30
0.0
 11
93.0164269402
 21
179.6354821908
 31
0.0
  0
SPLINE
  5
F4
330
1F
100
AcDbEntity
  8
0
  6
HIDDEN
 62
     7
370
    18
100
AcDbSpline
210
0.0
220
0.0
230
1.0
 70
     8
 71
     3
 72
    28
 73
    24
 74
     0
 42
0.00000001
 43
0.00000001
 40
0.0
 40
0.0
 40
0.0
 40
0.0
 40
0.1249999999999998
 40
0.1249999999999998
 40
0.2499999999999997
 40
0.2499999999999997
 40
0.3124999999999997
 40
0.3124999999999997
 40
0.3749999999999998
 40
0.3749999999999998
 40
0.5
 40
0.5
 40
0.625
 40
0.625
 40
0.7500000000000001
 40
0.7500000000000001
 40
0.8750000000000001
 40
0.8750000000000001
 40
0.9375000000000002
 40
0.9375000000000002
 40
0.9687500000000001
 40
0.9687500000000001
 40
1.0
 40
1.0
 40
1.0
 40
1.0
 10
85.00328538803637
 20
166.8144557073601
 30
0.0
 10
85.00328538803637
 20
166.0811680996675
 30
0.0
 10
85.07272038637282
 20
165.3348751886257
 30
0.0
 10
85.30738880188103
 20
163.8140974632799
 30
0.0
 10
85.47317064432372
 20
163.039650913842
 30
0.0
 10
85.77661762251037
 20
161.8556719243722
 30
0.0
 10
85.88719160373556
 20
161.4567575541994
 30
0.0
 10
86.12199014039095
 20
160.6599987003224
 30
0.0
 10
86.24646714421834
 20
160.2610973555045
 30
0.0
 10
86.63791825507974
 20
159.0621543290026
 30
0.0
 10
86.92277602304925
 20
158.2598544373309
 30
0.0
 10
87.52783038873437
 20
156.646433699306
 30
0.0
 10
87.84810249605496
 20
155.8353304060556
 30
0.0
 10
88.51533440795623
 20
154.2019704576008
 30
0.0
 10
88.86303913972722
 20
153.3780967958955
 30
0.0
 10
89.57514423406617
 20
151.7243332644227
 30
0.0
 10
89.93811183088388
 20
150.8977052503513
 30
0.0
 10
90.48827326091322
 20
149.6562092488745
 30
0.0
 10
90.67262014815783
 20
149.2421204132351
 30
0.0
 10
90.95004550868096
 20
148.6203693749968
 30
0.0
 10
91.04267167281861
 20
148.4130160753597
 30
0.0
 10
91.22813855508512
 20
147.998064544889
 30
0.0
 10
91.32149705683491
 20
147.7893086596488
 30
0.0
 10
91.41379862975279
 20
147.5829159822108
 30
0.0
  0
LINE
  5
F5
330
1F
100
AcDbEntity
  8
0
  6
HIDDEN
 62
     7
370
    18
100
AcDbLine
 10
80.996714612
 20
166.8144557074
 30
0.0
 11
80.996714612
 21
179.6354821908
 31
0.0
  0
SPLINE
  5
F6
330
1F
100
AcDbEntity
  8
0
  6
HIDDEN
 62
     7
370
    18
100
AcDbSpline
210
0.0
220
0.0
230
1.0
 70
     8
 71
     3
 72
    28
 73
    24
 74
     0
 42
0.00000001
 43
0.00000001
 40
0.0
 40
0.0
 40
0.0
 40
0.0
 40
0.1249999999999997
 40
0.1249999999999997
 40
0.2499999999999994
 40
0.2499999999999994
 40
0.3124999999999994
 40
0.3124999999999994
 40
0.3749999999999995
 40
0.3749999999999995
 40
0.4999999999999997
 40
0.4999999999999997
 40
0.6249999999999998
 40
0.6249999999999998
 40
0.7499999999999999
 40
0.7499999999999999
 40
0.8750000000000001
 40
0.8750000000000001
 40
0.9375
 40
0.9375
 40
0.9687500000000001
 40
0.9687500000000001
 40
1.0
 40
1.0
 40
1.0
 40
1.0
 10
80.99671461196361
 20
166.8144557073601
 30
0.0
 10
80.99671461196361
 20
166.0811680996675
 30
0.0
 10
80.92727961362718
 20
165.3348751886257
 30
0.0
 10
80.69261119811898
 20
163.8140974632799
 30
0.0
 10
80.52682935567628
 20
163.039650913842
 30
0.0
 10
80.22338237748961
 20
161.8556719243722
 30
0.0
 10
80.11280839626444
 20
161.4567575541994
 30
0.0
 10
79.87800985960905
 20
160.6599987003224
 30
0.0
 10
79.75353285578167
 20
160.2610973555045
 30
0.0
 10
79.36208174492026
 20
159.0621543290026
 30
0.0
 10
79.07722397695076
 20
158.2598544373309
 30
0.0
 10
78.47216961126563
 20
156.646433699306
 30
0.0
 10
78.15189750394504
 20
155.8353304060556
 30
0.0
 10
77.48466559204378
 20
154.2019704576008
 30
0.0
 10
77.1369608602728
 20
153.3780967958955
 30
0.0
 10
76.42485576593381
 20
151.7243332644227
 30
0.0
 10
76.06188816911612
 20
150.8977052503513
 30
0.0
 10
75.51172673908678
 20
149.6562092488745
 30
0.0
 10
75.32737985184218
 20
149.2421204132351
 30
0.0
 10
75.04995449131907
 20
148.6203693749968
 30
0.0
 10
74.9573283271814
 20
148.4130160753597
 30
0.0
 10
74.77186144491485
 20
147.998064544889
 30
0.0
 10
74.67850294316491
 20
147.7893086596489
 30
0.0
 10
74.58620137024721
 20
147.5829159822108
 30
0.0
  0
LINE
  5
F7
330
1F
100
AcDbEntity
  8
0
  6
HIDDEN
 62
     7
370
    18
100
AcDbLine
 10
84.6026283104
 20
147.5829159822
 30
0.0
 11
84.4701526632
 21
147.7084831431
 31
0.0
  0
LINE
  5
F8
330
1F
100
AcDbEntity
  8
0
  6
HIDDEN
 62
     7
370
    18
100
AcDbLine
 10
83.2096087332
 20
148.3451355278
 30
0.0
 11
82.9253053743
 21
148.3690627468
 31
0.0
  0
LINE
  5
F9
330
1F
100
AcDbEntity
  8
0
  6
HIDDEN
 62
     7
370
    18
100
AcDbLine
 10
81.5429593345
 20
147.7464222896
 30
0.0
 11
81.3973716896
 21
147.5829159822
 31
0.0
  0
LINE
  5
FA
330
1F
100
AcDbEntity
  8
0
  6
HIDDEN
 62
     7
370
    18
100
AcDbLine
 10
85.003285388
 20
179.6354821908
 30
0.0
 11
85.003285388
 21
166.8144557074
 31
0.0
  0
LINE
  5
FB
330
1F
100
AcDbEntity
  8
0
  6
HIDDEN
 62
     7
370
    18
100
AcDbLine
 10
74.5862013702
 20
148.3842301374
 30
0.0
 11
74.5862013702
 21
136.3645178092
 31
0.0
  0
LINE
  5
FC
330
1F
100
AcDbEntity
  8
0
  6
HIDDEN
 62
     7
370
    18
100
AcDbLine
 10
91.4137986298
 20
136.3645178092
 30
0.0
 11
91.4137986298
 21
148.3842301374
 31
0.0
  0
LINE
  5
FD
330
1F
100
AcDbEntity
  8
0
  6
HIDDEN
 62
     7
370
    18
100
AcDbLine
 10
74.5862013702
 20
148.3842301374
 30
0.0
 11
91.4137986298
 21
148.3842301374
 31
0.0
  0
SPLINE
  5
FE
330
1F
100
AcDbEntity
  8
0
  6
HIDDEN
 62
     7
370
    18
100
AcDbSpline
210
0.0
220
0.0
230
1.0
 70
     8
 71
     3
 72
    10
 73
     6
 74
     0
 42
0.00000001
 43
0.00000001
 40
0.0
 40
0.0
 40
0.0
 40
0.0
 40
0.5
 40
0.5
 40
1.0
 40
1.0
 40
1.0
 40
1.0
 10
76.18882968067632
 20
167.418706509532
 30
0.0
 10
76.1888296806763
 20
167.1472494630919
 30
0.0
 10
76.30410127348523
 20
166.8864805436812
 30
0.0
 10
76.60727441100498
 20
166.4038580053353
 30
0.0
 10
76.79863835026605
 20
166.1784887917014
 30
0.0
 10
76.99014383589086
 20
165.9522641245454
 30
0.0
  0
LINE
  5
FF
330
1F
100
AcDbEntity
  8
0
  6
HIDDEN
 62
     7
370
    18
100
AcDbLine
 10
76.1888296807
 20
170.0818601723
 30
0.0
 11
76.1888296807
 21
167.4187065095
 31
0.0
  0
SPLINE
  5
100
330
1F
100
AcDbEntity
  8
0
  6
HIDDEN
 62
     7
370
    18
100
AcDbSpline
210
0.0
220
0.0
230
1.0
 70
     8
 71
     3
 72
    10
 73
     6
 74
     0
 42
0.00000001
 43
0.00000001
 40
0.0
 40
0.0
 40
0.0
 40
0.0
 40
0.5
 40
0.5
 40
1.0
 40
1.0
 40
1.0
 40
1.0
 10
76.18882968067632
 20
170.081860172327
 30
0.0
 10
76.18882968067632
 20
169.8104031258868
 30
0.0
 10
76.30410127348544
 20
169.5496342064759
 30
0.0
 10
76.60727441100512
 20
169.0670116681303
 30
0.0
 10
76.79863835072031
 20
168.8416424547112
 30
0.0
 10
76.99014383589086
 20
168.6154177873404
 30
0.0
  0
LINE
  5
101
330
1F
100
AcDbEntity
  8
0
  6
HIDDEN
 62
     7
370
    18
100
AcDbLine
 10
89.8111703193
 20
167.4187065095
 30
0.0
 11
89.8111703193
 21
170.0818601723
 31
0.0
  0
SPLINE
  5
102
330
1F
100
AcDbEntity
  8
0
  6
HIDDEN
 62
     7
370
    18
100
AcDbSpline
210
0.0
220
0.0
230
1.0
 70
     8
 71
     3
 72
    10
 73
     6
 74
     0
 42
0.00000001
 43
0.00000001
 40
0.0
 40
0.0
 40
0.0
 40
0.0
 40
0.5
 40
0.5
 40
1.0
 40
1.0
 40
1.0
 40
1.0
 10
89.8111703193237
 20
167.418706509532
 30
0.0
 10
89.81117031932371
 20
167.1472494630919
 30
0.0
 10
89.6958987265147
 20
166.8864805436811
 30
0.0
 10
89.39272558899498
 20
166.4038580053353
 30
0.0
 10
89.20136164958905
 20
166.17848879177
 30
0.0
 10
89.00985616410914
 20
165.9522641245454
 30
0.0
  0
SPLINE
  5
103
330
1F
100
AcDbEntity
  8
0
  6
HIDDEN
 62
     7
370
    18
100
AcDbSpline
210
0.0
220
0.0
230
1.0
 70
     8
 71
     3
 72
    10
 73
     6
 74
     0
 42
0.00000001
 43
0.00000001
 40
0.0
 40
0.0
 40
0.0
 40
0.0
 40
0.5
 40
0.5
 40
1.0
 40
1.0
 40
1.0
 40
1.0
 10
89.8111703193237
 20
170.081860172327
 30
0.0
 10
89.8111703193237
 20
169.8104031258868
 30
0.0
 10
89.69589872651454
 20
169.5496342064759
 30
0.0
 10
89.39272558899488
 20
169.0670116681303
 30
0.0
 10
89.20136164923609
 20
168.8416424547318
 30
0.0
 10
89.00985616410914
 20
168.6154177873404
 30
0.0
  0
LINE
  5
104
330
1F
100
AcDbEntity
  8
0
  6
HIDDEN
 62
     7
370
    18
100
AcDbLine
 10
76.1888296807
 20
172.8085157602
 30
0.0
 11
76.1888296807
 21
170.0818601723
 31
0.0
  0
LINE
  5
105
330
1F
100
AcDbEntity
  8
0
  6
HIDDEN
 62
     7
370
    18
100
AcDbLine
 10
89.8111703193
 20
170.0818601723
 30
0.0
 11
89.8111703193
 21
172.8085157602
 31
0.0
  0
SPLINE
  5
106
330
1F
100
AcDbEntity
  8
0
  6
HIDDEN
 62
     7
370
    18
100
AcDbSpline
210
0.0
220
0.0
230
1.0
 70
     8
 71
     3
 72
    11
 73
     7
 74
     0
 42
0.00000001
 43
0.00000001
 40
0.0
 40
0.0
 40
0.0
 40
0.0
 40
0.0046775567658643
 40
0.4392043380165663
 40
0.8783014346942124
 40
1.0
 40
1.0
 40
1.0
 40
1.0
 10
76.99014383589086
 20
171.6118044823531
 30
0.0
 10
76.98871590041504
 20
171.61011794155
 30
0.0
 10
76.85463832813153
 20
171.4517583375903
 30
0.0
 10
76.59740101302077
 20
171.1334603704807
 30
0.0
 10
76.31555364507007
 20
170.7527469207587
 30
0.0
 10
76.27049278598558
 20
170.5151622609418
 30
0.0
 10
76.2607141049547
 20
170.4636038873694
 30
0.0
  0
LINE
  5
107
330
1F
100
AcDbEntity
  8
0
  6
HIDDEN
 62
     7
370
    18
100
AcDbLine
 10
76.2020550349
 20
170.2039124781
 30
0.0
 11
76.1888296807
 21
170.1453620974
 31
0.0
  0
SPLINE
  5
108
330
1F
100
AcDbEntity
  8
0
  6
HIDDEN
 62
     7
370
    18
100
AcDbSpline
210
0.0
220
0.0
230
1.0
 70
     8
 71
     3
 72
    10
 73
     6
 74
     0
 42
0.00000001
 43
0.00000001
 40
0.0
 40
0.0
 40
0.0
 40
0.0
 40
0.5
 40
0.5
 40
1.0
 40
1.0
 40
1.0
 40
1.0
 10
89.8111703193237
 20
170.1453620973664
 30
0.0
 10
89.81117031932371
 20
170.4168191438065
 30
0.0
 10
89.69589872651466
 20
170.6775880632174
 30
0.0
 10
89.39272558899495
 20
171.1602106015631
 30
0.0
 10
89.20136164945043
 20
171.385579815063
 30
0.0
 10
89.00985616410914
 20
171.611804482353
 30
0.0
  0
SPLINE
  5
109
330
1F
100
AcDbEntity
  8
0
  6
HIDDEN
 62
     7
370
    18
100
AcDbSpline
210
0.0
220
0.0
230
1.0
 70
     8
 71
     3
 72
    10
 73
     6
 74
     0
 42
0.00000001
 43
0.00000001
 40
0.0
 40
0.0
 40
0.0
 40
0.0
 40
0.5
 40
0.5
 40
1.0
 40
1.0
 40
1.0
 40
1.0
 10
76.18882968067632
 20
172.8085157601614
 30
0.0
 10
76.18882968067632
 20
173.0799728066016
 30
0.0
 10
76.30410127348537
 20
173.3407417260124
 30
0.0
 10
76.60727441100508
 20
173.8233642643582
 30
0.0
 10
76.79863835058222
 20
174.0487334778425
 30
0.0
 10
76.99014383589086
 20
174.274958145148
 30
0.0
  0
SPLINE
  5
10A
330
1F
100
AcDbEntity
  8
0
  6
HIDDEN
 62
     7
370
    18
100
AcDbSpline
210
0.0
220
0.0
230
1.0
 70
     8
 71
     3
 72
    10
 73
     6
 74
     0
 42
0.00000001
 43
0.00000001
 40
0.0
 40
0.0
 40
0.0
 40
0.0
 40
0.5000000000000008
 40
0.5000000000000008
 40
1.0
 40
1.0
 40
1.0
 40
1.0
 10
89.8111703193237
 20
172.8085157601614
 30
0.0
 10
89.81117031932371
 20
173.0799728066016
 30
0.0
 10
89.69589872651461
 20
173.3407417260125
 30
0.0
 10
89.39272558899492
 20
173.8233642643582
 30
0.0
 10
89.20136164936858
 20
174.0487334778193
 30
0.0
 10
89.00985616410914
 20
174.274958145148
 30
0.0
  0
ARC
  5
10B
330
1F
100
AcDbEntity
  8
0
  6
HIDDEN
 62
     7
370
    18
100
AcDbCircle
 10
83.0
 20
146.3809447494
 30
0.0
 40
2.003285388036375
100
AcDbArc
 50
0.0
 51
90.0
  0
LINE
  5
10C
330
1F
100
AcDbEntity
  8
0
  6
HIDDEN
 62
     7
370
    18
100
AcDbLine
 10
85.003285388
 20
146.3809447494
 30
0.0
 11
85.003285388
 21
136.3645178092
 31
0.0
  0
ARC
  5
10D
330
1F
100
AcDbEntity
  8
0
  6
HIDDEN
 62
     7
370
    18
100
AcDbCircle
 10
83.0
 20
146.3809447494
 30
0.0
 40
2.003285388036389
100
AcDbArc
 50
90.0
 51
180.0
  0
LINE
  5
10E
330
1F
100
AcDbEntity
  8
0
  6
HIDDEN
 62
     7
370
    18
100
AcDbLine
 10
80.996714612
 20
136.3645178092
 30
0.0
 11
80.996714612
 21
146.3809447494
 31
0.0
  0
LINE
  5
10F
330
1F
100
AcDbEntity
  8
0
  6
HIDDEN
 62
     7
370
    18
100
AcDbLine
 10
65.9720742017
 20
179.6354821908
 30
0.0
 11
65.9720742017
 21
176.4302255699
 31
0.0
  0
LINE
  5
110
330
1F
100
AcDbEntity
  8
0
  6
HIDDEN
 62
     7
370
    18
100
AcDbLine
 10
69.9786449778
 20
176.4302255699
 30
0.0
 11
69.9786449778
 21
179.6354821908
 31
0.0
  0
LINE
  5
111
330
1F
100
AcDbEntity
  8
0
  6
HIDDEN
 62
     7
370
    18
100
AcDbLine
 10
96.0213550222
 20
179.6354821908
 30
0.0
 11
96.0213550222
 21
176.4302255699
 31
0.0
  0
LINE
  5
112
330
1F
100
AcDbEntity
  8
0
  6
HIDDEN
 62
     7
370
    18
100
AcDbLine
 10
100.0279257983
 20
176.4302255699
 30
0.0
 11
100.0279257983
 21
179.6354821908
 31
0.0
  0
LINE
  5
113
330
1F
100
AcDbEntity
  8
0
  6
HIDDEN
 62
     7
370
    18
100
AcDbLine
 10
72.9835730598
 20
165.2805555679
 30
0.0
 11
93.0164269402
 21
165.2805555679
 31
0.0
  0
LINE
  5
114
330
1F
100
AcDbEntity
  8
0
  6
HIDDEN
 62
     7
370
    18
100
AcDbLine
 10
89.0098561641
 20
169.287126344
 30
0.0
 11
76.9901438359
 21
169.287126344
 31
0.0
  0
ARC
  5
115
330
1F
100
AcDbEntity
  8
0
  6
HIDDEN
 62
     7
370
    18
100
AcDbCircle
 10
76.9901438359
 20
170.0884404992
 30
0.0
 40
0.8013141552145555
100
AcDbArc
 50
180.0
 51
270.0
  0
ARC
  5
116
330
1F
100
AcDbEntity
  8
0
  6
HIDDEN
 62
     7
370
    18
100
AcDbCircle
 10
89.0098561641
 20
170.0884404992
 30
0.0
 40
0.8013141552145555
100
AcDbArc
 50
270.0
 51
0.0
  0
ARC
  5
117
330
1F
100
AcDbEntity
  8
0
  6
HIDDEN
 62
     7
370
    18
100
AcDbCircle
 10
76.9901438359
 20
170.1387817705
 30
0.0
 40
0.8013141552145555
100
AcDbArc
 50
90.0
 51
180.0
  0
ARC
  5
118
330
1F
100
AcDbEntity
  8
0
  6
HIDDEN
 62
     7
370
    18
100
AcDbCircle
 10
89.0098561641
 20
170.1387817705
 30
0.0
 40
0.8013141552145555
100
AcDbArc
 50
0.0
 51
90.0
  0
LINE
  5
119
330
1F
100
AcDbEntity
  8
0
  6
HIDDEN
 62
     7
370
    18
100
AcDbLine
 10
76.9901438359
 20
170.9400959257
 30
0.0
 11
80.996714612
 21
170.9400959257
 31
0.0
  0
LINE
  5
11A
330
1F
100
AcDbEntity
  8
0
  6
HIDDEN
 62
     7
370
    18
100
AcDbLine
 10
80.996714612
 20
174.9466667018
 30
0.0
 11
72.9835730598
 21
174.9466667018
 31
0.0
  0
LINE
  5
11B
330
1F
100
AcDbEntity
  8
0
  6
HIDDEN
 62
     7
370
    18
100
AcDbLine
 10
85.003285388
 20
170.9400959257
 30
0.0
 11
89.0098561641
 21
170.9400959257
 31
0.0
  0
LINE
  5
11C
330
1F
100
AcDbEntity
  8
0
  6
HIDDEN
 62
     7
370
    18
100
AcDbLine
 10
93.0164269402
 20
174.9466667018
 30
0.0
 11
85.003285388
 21
174.9466667018
 31
0.0
  0
LINE
  5
11D
330
1F
100
AcDbEntity
  8
0
  6
Continuous
 62
     7
370
    25
100
AcDbLine
 10
241.4302255699
 20
70.9408630153
 30
0.0
 11
241.4302255699
 21
102.9934292239
 31
0.0
  0
LINE
  5
11E
330
1F
100
AcDbEntity
  8
0
  6
Continuous
 62
     7
370
    25
100
AcDbLine
 10
244.6354821908
 20
70.9408630153
 30
0.0
 11
244.6354821908
 21
102.9934292239
 31
0.0
  0
LINE
  5
11F
330
1F
100
AcDbEntity
  8
0
  6
Continuous
 62
     7
370
    25
100
AcDbLine
 10
241.4302255699
 20
66.9342922393
 30
0.0
 11
244.6354821908
 21
66.9342922393
 31
0.0
  0
LINE
  5
120
330
1F
100
AcDbEntity
  8
0
  6
Continuous
 62
     7
370
    25
100
AcDbLine
 10
241.4302255699
 20
70.9408630153
 30
0.0
 11
241.4302255699
 21
66.9342922393
 31
0.0
  0
LINE
  5
121
330
1F
100
AcDbEntity
  8
0
  6
Continuous
 62
     7
370
    25
100
AcDbLine
 10
244.6354821908
 20
66.9342922393
 30
0.0
 11
244.6354821908
 21
70.9408630153
 31
0.0
  0
LINE
  5
122
330
1F
100
AcDbEntity
  8
0
  6
Continuous
 62
     7
370
    25
100
AcDbLine
 10
241.4302255699
 20
107.0
 30
0.0
 11
241.4302255699
 21
102.9934292239
 31
0.0
  0
LINE
  5
123
330
1F
100
AcDbEntity
  8
0
  6
Continuous
 62
     7
370
    25
100
AcDbLine
 10
244.6354821908
 20
107.0
 30
0.0
 11
241.4302255699
 21
107.0
 31
0.0
  0
LINE
  5
124
330
1F
100
AcDbEntity
  8
0
  6
Continuous
 62
     7
370
    25
100
AcDbLine
 10
244.6354821908
 20
102.9934292239
 30
0.0
 11
244.6354821908
 21
107.0
 31
0.0
  0
LINE
  5
125
330
1F
100
AcDbEntity
  8
0
  6
Continuous
 62
     7
370
    25
100
AcDbLine
 10
241.4302255699
 20
66.9342922393
 30
0.0
 11
241.4302255699
 21
62.9277214632
 31
0.0
  0
LINE
  5
126
330
1F
100
AcDbEntity
  8
0
  6
Continuous
 62
     7
370
    25
100
AcDbLine
 10
244.6354821908
 20
62.9277214632
 30
0.0
 11
244.6354821908
 21
66.9342922393
 31
0.0
  0
LINE
  5
127
330
1F
100
AcDbEntity
  8
0
  6
Continuous
 62
     7
370
    25
100
AcDbLine
 10
212.5829159822
 20
7.0
 30
0.0
 11
244.6354821908
 21
7.0
 31
0.0
  0
LINE
  5
128
330
1F
100
AcDbEntity
  8
0
  6
Continuous
 62
     7
370
    25
100
AcDbLine
 10
201.3645178092
 20
8.6026283104
 30
0.0
 11
201.3645178092
 21
33.1148283184
 31
0.0
  0
SPLINE
  5
129
330
1F
100
AcDbEntity
  8
0
  6
Continuous
 62
     7
370
    25
100
AcDbSpline
210
0.0
220
0.0
230
1.0
 70
     8
 71
     3
 72
    26
 73
    22
 74
     0
 42
0.00000001
 43
0.00000001
 40
0.0
 40
0.0
 40
0.0
 40
0.0
 40
0.1250000000000009
 40
0.1250000000000009
 40
0.2500000000000018
 40
0.2500000000000018
 40
0.3750000000000028
 40
0.3750000000000028
 40
0.4375000000000029
 40
0.4375000000000029
 40
0.500000000000003
 40
0.500000000000003
 40
0.6250000000000021
 40
0.6250000000000021
 40
0.7500000000000012
 40
0.7500000000000012
 40
0.8750000000000004
 40
0.8750000000000004
 40
0.9375000000000002
 40
0.9375000000000002
 40
1.0
 40
1.0
 40
1.0
 40
1.0
 10
241.4302255699347
 20
42.59610526559494
 30
0.0
 10
241.4302255699347
 20
42.04035626831791
 30
0.0
 10
241.3745496850792
 20
41.49283332219301
 30
0.0
 10
241.1569197518286
 20
40.41348991247955
 30
0.0
 10
240.9926375117865
 20
39.87850029909816
 30
0.0
 10
240.5712439022931
 20
38.8638410339764
 30
0.0
 10
240.3137531277698
 20
38.37934819280351
 30
0.0
 10
239.8594762795893
 20
37.68581472590463
 30
0.0
 10
239.6964496475825
 20
37.46017682188815
 30
0.0
 10
239.3542799028644
 20
37.02790303479591
 30
0.0
 10
239.1744466149928
 20
36.82014653624999
 30
0.0
 10
238.610286314184
 20
36.22050008460959
 30
0.0
 10
238.2007481158131
 20
35.85186840815623
 30
0.0
 10
237.3254285448557
 20
35.17215410167705
 30
0.0
 10
236.8661399622856
 20
34.86604610345692
 30
0.0
 10
235.9154130117672
 20
34.30399600787534
 30
0.0
 10
235.4235303041476
 20
34.04804934468893
 30
0.0
 10
234.6763638119408
 20
33.68705422879917
 30
0.0
 10
234.4255607328583
 20
33.57036263553495
 30
0.0
 10
233.9221635465389
 20
33.34071005754375
 30
0.0
 10
233.6680232812608
 20
33.22705204926371
 30
0.0
 10
233.4170840177892
 20
33.11482831844225
 30
0.0
  0
ARC
  5
12A
330
1F
100
AcDbEntity
  8
0
  6
Continuous
 62
     7
370
    25
100
AcDbCircle
 10
232.2838409559
 20
19.8299878487
 30
0.0
 40
2.003285388036446
100
AcDbArc
 50
48.3409510247
 51
228.3409523455
  0
LINE
  5
12B
330
1F
100
AcDbEntity
  8
0
  6
Continuous
 62
     7
370
    25
100
AcDbLine
 10
236.6118044824
 20
13.2980915447
 30
0.0
 11
230.9522641245
 21
18.3333063569
 31
0.0
  0
ARC
  5
12C
330
1F
100
AcDbEntity
  8
0
  6
Continuous
 62
     7
370
    25
100
AcDbCircle
 10
237.9433813138
 20
14.7947730365
 30
0.0
 40
2.003285388036408
100
AcDbArc
 50
228.3409523455
 51
48.3409523455
  0
LINE
  5
12D
330
1F
100
AcDbEntity
  8
0
  6
Continuous
 62
     7
370
    25
100
AcDbLine
 10
233.6154178218
 20
21.3266693099
 30
0.0
 11
239.2749581451
 21
16.2914545284
 31
0.0
  0
LINE
  5
12E
330
1F
100
AcDbEntity
  8
0
  6
Continuous
 62
     7
370
    25
100
AcDbLine
 10
241.4302255699
 20
42.5961052656
 30
0.0
 11
241.4302255699
 21
62.9277214632
 31
0.0
  0
LINE
  5
12F
330
1F
100
AcDbEntity
  8
0
  6
Continuous
 62
     7
370
    25
100
AcDbLine
 10
244.6354821908
 20
8.6026283104
 30
0.0
 11
244.6354821908
 21
62.9277214632
 31
0.0
  0
LINE
  5
130
330
1F
100
AcDbEntity
  8
0
  6
Continuous
 62
     7
370
    25
100
AcDbLine
 10
201.3645178092
 20
7.0
 30
0.0
 11
212.5829159822
 21
7.0
 31
0.0
  0
LINE
  5
131
330
1F
100
AcDbEntity
  8
0
  6
Continuous
 62
     7
370
    25
100
AcDbLine
 10
201.3645178092
 20
8.6026283104
 30
0.0
 11
201.3645178092
 21
7.0
 31
0.0
  0
LINE
  5
132
330
1F
100
AcDbEntity
  8
0
  6
Continuous
 62
     7
370
    25
100
AcDbLine
 10
244.6354821908
 20
7.0
 30
0.0
 11
244.6354821908
 21
8.6026283104
 31
0.0
  0
ARC
  5
133
330
1F
100
AcDbEntity
  8
0
  6
Continuous
 62
     7
370
    25
100
AcDbCircle
 10
233.4170840178
 20
42.730598181
 30
0.0
 40
8.013141552145527
100
AcDbArc
 50
270.0
 51
0.0
  0
LINE
  5
134
330
1F
100
AcDbEntity
  8
0
  6
Continuous
 62
     7
370
    25
100
AcDbLine
 10
201.3645178092
 20
34.7174566289
 30
0.0
 11
201.3645178092
 21
33.1148283184
 31
0.0
  0
LINE
  5
135
330
1F
100
AcDbEntity
  8
0
  6
Continuous
 62
     7
370
    25
100
AcDbLine
 10
233.4170840178
 20
34.7174566289
 30
0.0
 11
201.3645178092
 21
34.7174566289
 31
0.0
  0
ARC
  5
136
330
1F
100
AcDbEntity
  8
0
  6
Continuous
 62
     7
370
    25
100
AcDbCircle
 10
232.2838409559
 20
19.8299878487
 30
0.0
 40
2.00328538803644
100
AcDbArc
 50
228.3409523455
 51
48.3409523455
  0
ARC
  5
137
330
1F
100
AcDbEntity
  8
0
  6
Continuous
 62
     7
370
    25
100
AcDbCircle
 10
237.9433813138
 20
14.7947730365
 30
0.0
 40
2.003285388036389
100
AcDbArc
 50
48.3409523455
 51
228.3409523455
  0
LINE
  5
138
330
1F
100
AcDbEntity
  8
0
  6
HIDDEN
 62
     7
370
    18
100
AcDbLine
 10
236.4952869914
 20
13.4105132417
 30
0.0
 11
236.8287962882
 21
13.1624608633
 31
0.0
  0
SPLINE
  5
139
330
1F
100
AcDbEntity
  8
0
  6
HIDDEN
 62
     7
370
    18
100
AcDbSpline
210
0.0
220
0.0
230
1.0
 70
     8
 71
     3
 72
     9
 73
     5
 74
     0
 42
0.00000001
 43
0.00000001
 40
0.0
 40
0.0
 40
0.0
 40
0.0
 40
0.5596821339353183
 40
1.0
 40
1.0
 40
1.0
 40
1.0
 10
238.8944006680739
 20
13.06387134606082
 30
0.0
 10
238.9983561624556
 20
13.11288400481329
 30
0.0
 10
239.1840964033505
 20
13.20045631734691
 30
0.0
 10
239.3280779768687
 20
13.34629698857556
 30
0.0
 10
239.3914756360729
 20
13.41051324171642
 30
0.0
  0
SPLINE
  5
13A
330
1F
100
AcDbEntity
  8
0
  6
HIDDEN
 62
     7
370
    18
100
AcDbSpline
210
0.0
220
0.0
230
1.0
 70
     8
 71
     3
 72
    28
 73
    24
 74
     0
 42
0.00000001
 43
0.00000001
 40
0.0
 40
0.0
 40
0.0
 40
0.0
 40
0.1249999999999998
 40
0.1249999999999998
 40
0.2499999999999997
 40
0.2499999999999997
 40
0.3124999999999997
 40
0.3124999999999997
 40
0.3749999999999998
 40
0.3749999999999998
 40
0.5
 40
0.5
 40
0.625
 40
0.625
 40
0.7500000000000001
 40
0.7500000000000001
 40
0.8750000000000001
 40
0.8750000000000001
 40
0.9375000000000002
 40
0.9375000000000002
 40
0.9687500000000001
 40
0.9687500000000001
 40
1.0
 40
1.0
 40
1.0
 40
1.0
 10
231.8144557073601
 20
13.41051324171642
 30
0.0
 10
231.0811680996675
 20
12.86054753594698
 30
0.0
 10
230.3348751886257
 20
12.34977364772442
 30
0.0
 10
228.8140974632799
 20
11.39899620500005
 30
0.0
 10
228.039650913842
 20
10.95907249750703
 30
0.0
 10
226.8556719243722
 20
10.34973622367675
 30
0.0
 10
226.4567575541994
 20
10.15487943524027
 30
0.0
 10
225.6599987003224
 20
9.78569605821443
 30
0.0
 10
225.2610973555045
 20
9.610794778369062
 30
0.0
 10
224.0621543290026
 20
9.113580974558493
 30
0.0
 10
223.2598544373309
 20
8.818662334055455
 30
0.0
 10
221.646433699306
 20
8.296451290399693
 30
0.0
 10
220.8353304060556
 20
8.0691906845686
 30
0.0
 10
219.2019704576008
 20
7.679647623650608
 30
0.0
 10
218.3780967958955
 20
7.517134620294484
 30
0.0
 10
216.7243332644227
 20
7.2576573548448
 30
0.0
 10
215.8977052503513
 20
7.161057151963329
 30
0.0
 10
214.6562092488745
 20
7.064431691277004
 30
0.0
 10
214.2421204132351
 20
7.040285572544263
 30
0.0
 10
213.6203693749968
 20
7.016122763802763
 30
0.0
 10
213.4130160753597
 20
7.010078838950509
 30
0.0
 10
212.998064544889
 20
7.002016842486178
 30
0.0
 10
212.7893086596488
 20
7.000000000000006
 30
0.0
 10
212.5829159822108
 20
7.000000000000013
 30
0.0
  0
LINE
  5
13B
330
1F
100
AcDbEntity
  8
0
  6
HIDDEN
 62
     7
370
    18
100
AcDbLine
 10
201.3645178092
 20
33.1148283184
 30
0.0
 11
213.3842301374
 21
33.1148283184
 31
0.0
  0
LINE
  5
13C
330
1F
100
AcDbEntity
  8
0
  6
HIDDEN
 62
     7
370
    18
100
AcDbLine
 10
213.3842301374
 20
8.6026283104
 30
0.0
 11
201.3645178092
 21
8.6026283104
 31
0.0
  0
LINE
  5
13D
330
1F
100
AcDbEntity
  8
0
  6
HIDDEN
 62
     7
370
    18
100
AcDbLine
 10
213.3842301374
 20
33.1148283184
 30
0.0
 11
213.3842301374
 21
8.6026283104
 31
0.0
  0
ARC
  5
13E
330
1F
100
AcDbEntity
  8
0
  6
HIDDEN
 62
     7
370
    18
100
AcDbCircle
 10
212.5829159822
 20
39.0525662086
 30
0.0
 40
32.05256620858206
100
AcDbArc
 50
306.8698976458
 51
0.0
  0
LINE
  5
13F
330
1F
100
AcDbEntity
  8
0
  6
HIDDEN
 62
     7
370
    18
100
AcDbLine
 10
244.6354821908
 20
76.9507191795
 30
0.0
 11
241.4302255699
 21
76.9507191795
 31
0.0
  0
LINE
  5
140
330
1F
100
AcDbEntity
  8
0
  6
HIDDEN
 62
     7
370
    18
100
AcDbLine
 10
241.4302255699
 20
72.9441484034
 30
0.0
 11
244.6354821908
 21
72.9441484034
 31
0.0
  0
LINE
  5
141
330
1F
100
AcDbEntity
  8
0
  6
HIDDEN
 62
     7
370
    18
100
AcDbLine
 10
244.6354821908
 20
100.9901438359
 30
0.0
 11
241.4302255699
 21
100.9901438359
 31
0.0
  0
LINE
  5
142
330
1F
100
AcDbEntity
  8
0
  6
HIDDEN
 62
     7
370
    18
100
AcDbLine
 10
241.4302255699
 20
96.9835730598
 30
0.0
 11
244.6354821908
 21
96.9835730598
 31
0.0
  0
LINE
  5
143
330
1F
100
AcDbEntity
  8
0
  6
HIDDEN
 62
     7
370
    18
100
AcDbLine
 10
213.3842301374
 20
7.0
 30
0.0
 11
213.3842301374
 21
8.6026283104
 31
0.0
  0
ENDSEC
  0
SECTION
  2
OBJECTS
  0
DICTIONARY
  5
C
330
0
100
AcDbDictionary
281
     1
  3
ACAD_GROUP
350
D
  3
ACAD_LAYOUT
350
1A
  3
ACAD_MLINESTYLE
350
17
  3
ACAD_PLOTSETTINGS
350
19
  3
ACAD_PLOTSTYLENAME
350
E
  3
ACAD_SCALELIST
350
47
  3
DWGPROPS
350
144
  0
DICTIONARY
  5
D
102
{ACAD_REACTORS
330
C
102
}
330
C
100
AcDbDictionary
281
     1
  0
DICTIONARY
  5
1A
102
{ACAD_REACTORS
330
C
102
}
330
C
100
AcDbDictionary
281
     1
  3
Layout1
350
1E
  3
Layout2
350
26
  3
Model
350
22
  0
DICTIONARY
  5
17
102
{ACAD_REACTORS
330
C
102
}
330
C
100
AcDbDictionary
281
     1
  3
Standard
350
18
  0
DICTIONARY
  5
19
102
{ACAD_REACTORS
330
C
102
}
330
C
100
AcDbDictionary
281
     1
  0
ACDBDICTIONARYWDFLT
  5
E
102
{ACAD_REACTORS
330
C
102
}
330
C
100
AcDbDictionary
281
     1
  3
Normal
350
F
100
AcDbDictionaryWithDefault
340
F
  0
DICTIONARY
  5
47
102
{ACAD_REACTORS
330
C
102
}
330
C
100
AcDbDictionary
281
     1
  3
A0
350
48
  3
A1
350
49
  3
A2
350
4A
  3
A3
350
4B
  3
A4
350
4C
  3
A5
350
4D
  3
A6
350
4E
  3
A7
350
4F
  3
A8
350
50
  3
A9
350
51
  3
B0
350
52
  3
B1
350
53
  3
B2
350
54
  3
B3
350
55
  3
B4
350
56
  3
B5
350
57
  3
B6
350
58
  0
XRECORD
  5
144
102
{ACAD_REACTORS
330
C
102
}
330
C
100
AcDbXrecord
280
     1
  1
DWGPROPS COOKIE
  2

  3

  4

  6

  7

  8

  9

300
=
301
=
302
=
303
=
304
=
305
=
306
=
307
=
308
=
309
=
 40
0.0
 41
2461215.35720963
 42
2461215.357209919
  1

 90
        0
  0
LAYOUT
  5
1E
102
{ACAD_REACTORS
330
1A
102
}
330
1A
100
AcDbPlotSettings
  1

  2
none_device
  4

  6

 40
0.0
 41
0.0
 42
0.0
 43
0.0
 44
0.0
 45
0.0
 46
0.0
 47
0.0
 48
0.0
 49
0.0
140
0.0
141
0.0
142
1.0
143
1.0
 70
   688
 72
     1
 73
     0
 74
     5
  7

 75
    16
147
1.0
148
0.0
149
0.0
100
AcDbLayout
  1
Layout1
 70
     1
 71
     1
 10
0.0
 20
0.0
 11
420.0
 21
297.0
 12
0.0
 22
0.0
 32
0.0
 14
1.0000000000E+20
 24
1.0000000000E+20
 34
1.0000000000E+20
 15
-1.0000000000E+20
 25
-1.0000000000E+20
 35
-1.0000000000E+20
146
0.0
 13
0.0
 23
0.0
 33
0.0
 16
1.0
 26
0.0
 36
0.0
 17
0.0
 27
1.0
 37
0.0
 76
     0
330
1B
  0
LAYOUT
  5
26
102
{ACAD_REACTORS
330
1A
102
}
330
1A
100
AcDbPlotSettings
  1

  2
none_device
  4

  6

 40
0.0
 41
0.0
 42
0.0
 43
0.0
 44
0.0
 45
0.0
 46
0.0
 47
0.0
 48
0.0
 49
0.0
140
0.0
141
0.0
142
1.0
143
1.0
 70
   688
 72
     1
 73
     0
 74
     5
  7

 75
    16
147
1.0
148
0.0
149
0.0
100
AcDbLayout
  1
Layout2
 70
     1
 71
     2
 10
0.0
 20
0.0
 11
0.0
 21
0.0
 12
0.0
 22
0.0
 32
0.0
 14
0.0
 24
0.0
 34
0.0
 15
0.0
 25
0.0
 35
0.0
146
0.0
 13
0.0
 23
0.0
 33
0.0
 16
1.0
 26
0.0
 36
0.0
 17
0.0
 27
1.0
 37
0.0
 76
     0
330
23
  0
LAYOUT
  5
22
102
{ACAD_REACTORS
330
1A
102
}
330
1A
100
AcDbPlotSettings
  1

  2
none_device
  4
Letter_(8.50_x_11.00_Inches)
  6

 40
6.35
 41
6.35
 42
6.35000508
 43
6.35000508
 44
215.9
 45
279.4
 46
0.0
 47
0.0
 48
0.0
 49
0.0
140
0.0
141
0.0
142
1.0
143
1.0
 70
  1712
 72
     1
 73
     0
 74
     0
  7

 75
     0
147
1.0
148
0.0
149
0.0
100
AcDbLayout
  1
Model
 70
     1
 71
     0
 10
0.0
 20
0.0
 11
297.0
 21
210.0
 12
0.0
 22
0.0
 32
0.0
 14
0.0
 24
0.0
 34
0.0
 15
297.0
 25
210.0
 35
0.0
146
0.0
 13
0.0
 23
0.0
 33
0.0
 16
1.0
 26
0.0
 36
0.0
 17
0.0
 27
1.0
 37
0.0
 76
     0
330
1F
331
29
  0
MLINESTYLE
  5
18
102
{ACAD_REACTORS
330
17
102
}
330
17
100
AcDbMlineStyle
  2
Standard
 70
     0
  3

 62
   256
 51
90.0
 52
90.0
 71
     2
 49
0.5
 62
   256
  6
BYLAYER
 49
-0.5
 62
   256
  6
BYLAYER
  0
ACDBPLACEHOLDER
  5
F
102
{ACAD_REACTORS
330
E
102
}
330
E
  0
SCALE
  5
48
102
{ACAD_REACTORS
330
47
102
}
330
47
100
AcDbScale
 70
     0
300
1:1
140
1.0
141
1.0
290
     1
  0
SCALE
  5
49
102
{ACAD_REACTORS
330
47
102
}
330
47
100
AcDbScale
 70
     0
300
1:2
140
1.0
141
2.0
290
     0
  0
SCALE
  5
4A
102
{ACAD_REACTORS
330
47
102
}
330
47
100
AcDbScale
 70
     0
300
1:4
140
1.0
141
4.0
290
     0
  0
SCALE
  5
4B
102
{ACAD_REACTORS
330
47
102
}
330
47
100
AcDbScale
 70
     0
300
1:5
140
1.0
141
5.0
290
     0
  0
SCALE
  5
4C
102
{ACAD_REACTORS
330
47
102
}
330
47
100
AcDbScale
 70
     0
300
1:8
140
1.0
141
8.0
290
     0
  0
SCALE
  5
4D
102
{ACAD_REACTORS
330
47
102
}
330
47
100
AcDbScale
 70
     0
300
1:10
140
1.0
141
10.0
290
     0
  0
SCALE
  5
4E
102
{ACAD_REACTORS
330
47
102
}
330
47
100
AcDbScale
 70
     0
300
1:16
140
1.0
141
16.0
290
     0
  0
SCALE
  5
4F
102
{ACAD_REACTORS
330
47
102
}
330
47
100
AcDbScale
 70
     0
300
1:20
140
1.0
141
20.0
290
     0
  0
SCALE
  5
50
102
{ACAD_REACTORS
330
47
102
}
330
47
100
AcDbScale
 70
     0
300
1:30
140
1.0
141
30.0
290
     0
  0
SCALE
  5
51
102
{ACAD_REACTORS
330
47
102
}
330
47
100
AcDbScale
 70
     0
300
1:40
140
1.0
141
40.0
290
     0
  0
SCALE
  5
52
102
{ACAD_REACTORS
330
47
102
}
330
47
100
AcDbScale
 70
     0
300
1:50
140
1.0
141
50.0
290
     0
  0
SCALE
  5
53
102
{ACAD_REACTORS
330
47
102
}
330
47
100
AcDbScale
 70
     0
300
1:100
140
1.0
141
100.0
290
     0
  0
SCALE
  5
54
102
{ACAD_REACTORS
330
47
102
}
330
47
100
AcDbScale
 70
     0
300
2:1
140
2.0
141
1.0
290
     0
  0
SCALE
  5
55
102
{ACAD_REACTORS
330
47
102
}
330
47
100
AcDbScale
 70
     0
300
4:1
140
4.0
141
1.0
290
     0
  0
SCALE
  5
56
102
{ACAD_REACTORS
330
47
102
}
330
47
100
AcDbScale
 70
     0
300
8:1
140
8.0
141
1.0
290
     0
  0
SCALE
  5
57
102
{ACAD_REACTORS
330
47
102
}
330
47
100
AcDbScale
 70
     0
300
10:1
140
10.0
141
1.0
290
     0
  0
SCALE
  5
58
102
{ACAD_REACTORS
330
47
102
}
330
47
100
AcDbScale
 70
     0
300
100:1
140
100.0
141
1.0
290
     0
  0
ENDSEC
  0
EOF
