  0
SECTION
  2
HEADER
  9
$ACADVER
  1
AC1015
  9
$ACADMAINTVER
 70
     6
  9
$DWGCODEPAGE
  3
ANSI_936
  9
$INSBASE
 10
0.0
 20
0.0
 30
0.0
  9
$EXTMIN
 10
0.0
 20
0.0
 30
0.0
  9
$EXTMAX
 10
297.0
 20
210.0
 30
0.0
  9
$LIMMIN
 10
0.0
 20
0.0
  9
$LIMMAX
 10
297.0
 20
210.0
  9
$ORTHOMODE
 70
     0
  9
$REGENMODE
 70
     1
  9
$FILLMODE
 70
     1
  9
$QTEXTMODE
 70
     0
  9
$MIRRTEXT
 70
     1
  9
$LTSCALE
 40
1.0
  9
$ATTMODE
 70
     1
  9
$TEXTSIZE
 40
3.5
  9
$TRACEWID
 40
1.0
  9
$TEXTSTYLE
  7
Standard
  9
$CLAYER
  8
0
  9
$CELTYPE
  6
ByLayer
  9
$CECOLOR
 62
   256
  9
$CELTSCALE
 40
1.0
  9
$DISPSILH
 70
     0
  9
$DIMSCALE
 40
1.0
  9
$DIMASZ
 40
4.08
  9
$DIMEXO
 40
0.0
  9
$DIMDLI
 40
3.75
  9
$DIMRND
 40
0.0
  9
$DIMDLE
 40
0.0
  9
$DIMEXE
 40
2.0
  9
$DIMTP
 40
0.0
  9
$DIMTM
 40
0.0
  9
$DIMTXT
 40
3.5
  9
$DIMCEN
 40
2.5
  9
$DIMTSZ
 40
0.0
  9
$DIMTOL
 70
     0
  9
$DIMLIM
 70
     0
  9
$DIMTIH
 70
     1
  9
$DIMTOH
 70
     1
  9
$DIMSE1
 70
     0
  9
$DIMSE2
 70
     0
  9
$DIMTAD
 70
     1
  9
$DIMZIN
 70
     0
  9
$DIMBLK
  1

  9
$DIMASO
 70
     1
  9
$DIMSHO
 70
     1
  9
$DIMPOST
  1

  9
$DIMAPOST
  1

  9
$DIMALT
 70
     0
  9
$DIMALTD
 70
     3
  9
$DIMALTF
 40
0.0393700787
  9
$DIMLFAC
 40
2.0
  9
$DIMTOFL
 70
     1
  9
$DIMTVP
 40
0.0
  9
$DIMTIX
 70
     0
  9
$DIMSOXD
 70
     0
  9
$DIMSAH
 70
     0
  9
$DIMBLK1
  1

  9
$DIMBLK2
  1

  9
$DIMSTYLE
  2
ISO-25
  9
$DIMCLRD
 70
     0
  9
$DIMCLRE
 70
     0
  9
$DIMCLRT
 70
     0
  9
$DIMTFAC
 40
1.0
  9
$DIMGAP
 40
1.524
  9
$DIMJUST
 70
     0
  9
$DIMSD1
 70
     0
  9
$DIMSD2
 70
     0
  9
$DIMTOLJ
 70
     0
  9
$DIMTZIN
 70
     0
  9
$DIMALTZ
 70
     0
  9
$DIMALTTZ
 70
     0
  9
$DIMUPT
 70
     0
  9
$DIMDEC
 70
     2
  9
$DIMTDEC
 70
     2
  9
$DIMALTU
 70
     2
  9
$DIMALTTD
 70
     3
  9
$DIMTXSTY
  7
Standard
  9
$DIMAUNIT
 70
     0
  9
$DIMADEC
 70
     2
  9
$DIMALTRND
 40
0.0
  9
$DIMAZIN
 70
     0
  9
$DIMDSEP
 70
    44
  9
$DIMATFIT
 70
     3
  9
$DIMFRAC
 70
     0
  9
$DIMLDRBLK
  1

  9
$DIMLUNIT
 70
     2
  9
$DIMLWD
 70
    -2
  9
$DIMLWE
 70
    -2
  9
$DIMTMOVE
 70
     0
  9
$LUNITS
 70
     2
  9
$LUPREC
 70
     2
  9
$SKETCHINC
 40
1.0
  9
$FILLETRAD
 40
0.0
  9
$AUNITS
 70
     0
  9
$AUPREC
 70
     2
  9
$MENU
  1
.
  9
$ELEVATION
 40
0.0
  9
$PELEVATION
 40
0.0
  9
$THICKNESS
 40
0.0
  9
$LIMCHECK
 70
     0
  9
$CHAMFERA
 40
0.0
  9
$CHAMFERB
 40
0.0
  9
$CHAMFERC
 40
0.0
  9
$CHAMFERD
 40
0.0
  9
$SKPOLY
 70
     0
  9
$TDCREATE
 40
2461215.688962465
  9
$TDUCREATE
 40
2461215.355629132
  9
$TDUPDATE
 40
2461215.688962824
  9
$TDUUPDATE
 40
2461215.355629491
  9
$TDINDWG
 40
0.0000000116
  9
$TDUSRTIMER
 40
0.0000000116
  9
$USRTIMER
 70
     1
  9
$ANGBASE
 50
0.0
  9
$ANGDIR
 70
     0
  9
$PDMODE
 70
     0
  9
$PDSIZE
 40
-1.0
  9
$PLINEWID
 40
0.0
  9
$SPLFRAME
 70
     0
  9
$SPLINETYPE
 70
     6
  9
$SPLINESEGS
 70
     8
  9
$HANDSEED
  5
C5
  9
$SURFTAB1
 70
     6
  9
$SURFTAB2
 70
     6
  9
$SURFTYPE
 70
     6
  9
$SURFU
 70
     6
  9
$SURFV
 70
     6
  9
$UCSBASE
  2

  9
$UCSNAME
  2

  9
$UCSORG
 10
0.0
 20
0.0
 30
0.0
  9
$UCSXDIR
 10
1.0
 20
0.0
 30
0.0
  9
$UCSYDIR
 10
0.0
 20
1.0
 30
0.0
  9
$UCSORTHOREF
  2

  9
$UCSORTHOVIEW
 70
     0
  9
$UCSORGTOP
 10
0.0
 20
0.0
 30
0.0
  9
$UCSORGBOTTOM
 10
0.0
 20
0.0
 30
0.0
  9
$UCSORGLEFT
 10
0.0
 20
0.0
 30
0.0
  9
$UCSORGRIGHT
 10
0.0
 20
0.0
 30
0.0
  9
$UCSORGFRONT
 10
0.0
 20
0.0
 30
0.0
  9
$UCSORGBACK
 10
0.0
 20
0.0
 30
0.0
  9
$PUCSBASE
  2

  9
$PUCSNAME
  2

  9
$PUCSORG
 10
0.0
 20
0.0
 30
0.0
  9
$PUCSXDIR
 10
1.0
 20
0.0
 30
0.0
  9
$PUCSYDIR
 10
0.0
 20
1.0
 30
0.0
  9
$PUCSORTHOREF
  2

  9
$PUCSORTHOVIEW
 70
     0
  9
$PUCSORGTOP
 10
0.0
 20
0.0
 30
0.0
  9
$PUCSORGBOTTOM
 10
0.0
 20
0.0
 30
0.0
  9
$PUCSORGLEFT
 10
0.0
 20
0.0
 30
0.0
  9
$PUCSORGRIGHT
 10
0.0
 20
0.0
 30
0.0
  9
$PUCSORGFRONT
 10
0.0
 20
0.0
 30
0.0
  9
$PUCSORGBACK
 10
0.0
 20
0.0
 30
0.0
  9
$USERI1
 70
     0
  9
$USERI2
 70
     0
  9
$USERI3
 70
     0
  9
$USERI4
 70
     0
  9
$USERI5
 70
     0
  9
$USERR1
 40
0.0
  9
$USERR2
 40
0.0
  9
$USERR3
 40
0.0
  9
$USERR4
 40
0.0
  9
$USERR5
 40
0.0
  9
$WORLDVIEW
 70
     1
  9
$SHADEDGE
 70
     3
  9
$SHADEDIF
 70
    70
  9
$TILEMODE
 70
     1
  9
$MAXACTVP
 70
    64
  9
$PINSBASE
 10
0.0
 20
0.0
 30
0.0
  9
$PLIMCHECK
 70
     0
  9
$PEXTMIN
 10
1.0000000000E+20
 20
1.0000000000E+20
 30
1.0000000000E+20
  9
$PEXTMAX
 10
-1.0000000000E+20
 20
-1.0000000000E+20
 30
-1.0000000000E+20
  9
$PLIMMIN
 10
0.0
 20
0.0
  9
$PLIMMAX
 10
420.0
 20
297.0
  9
$UNITMODE
 70
     0
  9
$VISRETAIN
 70
     1
  9
$PLINEGEN
 70
     0
  9
$PSLTSCALE
 70
     1
  9
$TREEDEPTH
 70
  3020
  9
$CMLSTYLE
  2
Standard
  9
$CMLJUST
 70
     0
  9
$CMLSCALE
 40
20.0
  9
$PROXYGRAPHICS
 70
     1
  9
$MEASUREMENT
 70
     1
  9
$CELWEIGHT
370
    -1
  9
$ENDCAPS
280
     0
  9
$JOINSTYLE
280
     0
  9
$LWDISPLAY
290
     1
  9
$INSUNITS
 70
     4
  9
$HYPERLINKBASE
  1

  9
$STYLESHEET
  1

  9
$XEDIT
290
     1
  9
$CEPSNTYPE
380
     0
  9
$PSTYLEMODE
290
     1
  9
$FINGERPRINTGUID
  2
{385df96b-94aa-493a-8340-0274000aa93f}
  9
$VERSIONGUID
  2
{FAEB1C32-E019-11D5-929B-00C0DF256EC4}
  9
$EXTNAMES
290
     1
  9
$PSVPSCALE
 40
0.0
  9
$OLESTARTUP
290
     0
  0
ENDSEC
  0
SECTION
  2
CLASSES
  0
CLASS
  1
ACDBDICTIONARYWDFLT
  2
AcDbDictionaryWithDefault
  3
ObjectDBX Classes
 90
        0
280
     0
281
     0
  0
CLASS
  1
VISUALSTYLE
  2
AcDbVisualStyle
  3
ObjectDBX Classes
 90
     4095
280
     0
281
     0
  0
CLASS
  1
MATERIAL
  2
AcDbMaterial
  3
ObjectDBX Classes
 90
     1153
280
     0
281
     0
  0
CLASS
  1
SCALE
  2
AcDbScale
  3
ObjectDBX Classes
 90
     1153
280
     0
281
     0
  0
CLASS
  1
TABLESTYLE
  2
AcDbTableStyle
  3
ObjectDBX Classes
 90
     4095
280
     0
281
     0
  0
CLASS
  1
MLEADERSTYLE
  2
AcDbMLeaderStyle
  3
ACDB_MLEADERSTYLE_CLASS
 90
     4095
280
     0
281
     0
  0
CLASS
  1
SUN
  2
AcDbSun
  3
SCENEOE
 90
     1153
280
     0
281
     0
  0
CLASS
  1
ACDBPLACEHOLDER
  2
AcDbPlaceHolder
  3
ObjectDBX Classes
 90
        0
280
     0
281
     0
  0
CLASS
  1
LAYOUT
  2
AcDbLayout
  3
ObjectDBX Classes
 90
        0
280
     0
281
     0
  0
ENDSEC
  0
SECTION
  2
TABLES
  0
TABLE
  2
VPORT
  5
8
330
0
100
AcDbSymbolTable
 70
     1
  0
VPORT
  5
29
330
8
100
AcDbSymbolTableRecord
100
AcDbViewportTableRecord
  2
*Active
 70
     0
 10
0.0
 20
0.0
 11
1.0
 21
1.0
 12
148.5
 22
105.0
 13
0.0
 23
0.0
 14
10.0
 24
10.0
 15
10.0
 25
10.0
 16
0.0
 26
0.0
 36
1.0
 17
0.0
 27
0.0
 37
0.0
 40
210.0
 41
1.4142857143
 42
50.0
 43
0.0
 44
0.0
 50
0.0
 51
0.0
 71
     0
 72
  2000
 73
     1
 74
     3
 75
     0
 76
     0
 77
     0
 78
     0
281
     0
 65
     1
110
0.0
120
0.0
130
0.0
111
1.0
121
0.0
131
0.0
112
0.0
122
1.0
132
0.0
 79
     0
146
0.0
  0
ENDTAB
  0
TABLE
  2
LTYPE
  5
5
330
0
100
AcDbSymbolTable
 70
     6
  0
LTYPE
  5
14
330
5
100
AcDbSymbolTableRecord
100
AcDbLinetypeTableRecord
  2
ByBlock
 70
     0
  3

 72
    65
 73
     0
 40
0.0
  0
LTYPE
  5
15
330
5
100
AcDbSymbolTableRecord
100
AcDbLinetypeTableRecord
  2
ByLayer
 70
     0
  3

 72
    65
 73
     0
 40
0.0
  0
LTYPE
  5
16
330
5
100
AcDbSymbolTableRecord
100
AcDbLinetypeTableRecord
  2
Continuous
 70
     0
  3
Solid line
 72
    65
 73
     0
 40
0.0
  0
LTYPE
  5
5E
330
5
100
AcDbSymbolTableRecord
100
AcDbLinetypeTableRecord
  2
HIDDEN
 70
     0
  3
Hidden __ __ __ __ __ __ __ __ __ __ __ __ __ __
 72
    65
 73
     2
 40
1.905
 49
1.27
 74
     0
 49
-0.635
 74
     0
  0
LTYPE
  5
5F
330
5
100
AcDbSymbolTableRecord
100
AcDbLinetypeTableRecord
  2
PHANTOM
 70
     0
  3
Phantom ______  __  __  ______  __  __  ______
 72
    65
 73
     6
 40
12.7
 49
6.35
 74
     0
 49
-1.27
 74
     0
 49
1.27
 74
     0
 49
-1.27
 74
     0
 49
1.27
 74
     0
 49
-1.27
 74
     0
  0
LTYPE
  5
60
330
5
100
AcDbSymbolTableRecord
100
AcDbLinetypeTableRecord
  2
CENTER
 70
     0
  3
Center ____ _ ____ _ ____ _ ____ _ ____ _ ____
 72
    65
 73
     4
 40
10.16
 49
6.35
 74
     0
 49
-1.27
 74
     0
 49
1.27
 74
     0
 49
-1.27
 74
     0
  0
LTYPE
  5
61
330
5
100
AcDbSymbolTableRecord
100
AcDbLinetypeTableRecord
  2
CENTERX2
 70
     0
  3
Center (2x) ________  __  ________  __  _____
 72
    65
 73
     4
 40
20.32
 49
12.7
 74
     0
 49
-2.54
 74
     0
 49
2.54
 74
     0
 49
-2.54
 74
     0
  0
LTYPE
  5
62
330
5
100
AcDbSymbolTableRecord
100
AcDbLinetypeTableRecord
  2
DOT2
 70
     0
  3
Dot (.5x) ........................................
 72
    65
 73
     2
 40
0.635
 49
0.0
 74
     0
 49
-0.635
 74
     0
  0
ENDTAB
  0
TABLE
  2
LAYER
  5
2
330
0
100
AcDbSymbolTable
 70
    14
  0
LAYER
  5
10
330
2
100
AcDbSymbolTableRecord
100
AcDbLayerTableRecord
  2
0
 70
     0
 62
     7
  6
Continuous
370
    -3
390
F
  0
LAYER
  5
63
330
2
100
AcDbSymbolTableRecord
100
AcDbLayerTableRecord
  2
SLD-0
 70
     0
 62
     7
  6
Continuous
370
    -3
390
F
  0
LAYER
  5
64
330
2
100
AcDbSymbolTableRecord
100
AcDbLayerTableRecord
  2
5
 70
     0
 62
     7
  6
Continuous
370
    -3
390
F
  0
LAYER
  5
65
330
2
100
AcDbSymbolTableRecord
100
AcDbLayerTableRecord
  2
9
 70
     0
 62
     7
  6
Continuous
370
    -3
390
F
  0
LAYER
  5
66
330
2
100
AcDbSymbolTableRecord
100
AcDbLayerTableRecord
  2
10
 70
     0
 62
     7
  6
Continuous
370
    -3
390
F
  0
LAYER
  5
67
330
2
100
AcDbSymbolTableRecord
100
AcDbLayerTableRecord
  2
轮廓实线层
 70
     0
 62
     7
  6
Continuous
370
    50
390
F
  0
LAYER
  5
68
330
2
100
AcDbSymbolTableRecord
100
AcDbLayerTableRecord
  2
细线层
 70
     0
 62
     4
  6
Continuous
370
    25
390
F
  0
LAYER
  5
69
330
2
100
AcDbSymbolTableRecord
100
AcDbLayerTableRecord
  2
中心线层
 70
     0
 62
     1
  6
CENTERX2
370
    25
390
F
  0
LAYER
  5
6A
330
2
100
AcDbSymbolTableRecord
100
AcDbLayerTableRecord
  2
虚线层
 70
     0
 62
     6
  6
HIDDEN
370
    25
390
F
  0
LAYER
  5
6B
330
2
100
AcDbSymbolTableRecord
100
AcDbLayerTableRecord
  2
剖面线层
 70
     0
 62
     2
  6
Continuous
370
    25
390
F
  0
LAYER
  5
6C
330
2
100
AcDbSymbolTableRecord
100
AcDbLayerTableRecord
  2
文字层
 70
     0
 62
     3
  6
Continuous
370
    25
390
F
  0
LAYER
  5
6D
330
2
100
AcDbSymbolTableRecord
100
AcDbLayerTableRecord
  2
标注层
 70
     0
 62
     4
  6
Continuous
370
    25
390
F
  0
LAYER
  5
6E
330
2
100
AcDbSymbolTableRecord
100
AcDbLayerTableRecord
  2
符号标注层
 70
     0
 62
    31
  6
Continuous
370
    25
390
F
  0
LAYER
  5
6F
330
2
100
AcDbSymbolTableRecord
100
AcDbLayerTableRecord
  2
双点划线层
 70
     0
 62
     6
  6
PHANTOM
370
    25
390
F
  0
ENDTAB
  0
TABLE
  2
STYLE
  5
3
330
0
100
AcDbSymbolTable
 70
     1
  0
STYLE
  5
11
330
3
100
AcDbSymbolTableRecord
100
AcDbTextStyleTableRecord
  2
Standard
 70
     0
 40
0.0
 41
1.0
 50
0.0
 71
     0
 42
3.5
  3
txt
  4

  0
ENDTAB
  0
TABLE
  2
VIEW
  5
6
330
0
100
AcDbSymbolTable
 70
     0
  0
ENDTAB
  0
TABLE
  2
UCS
  5
7
330
0
100
AcDbSymbolTable
 70
     0
  0
ENDTAB
  0
TABLE
  2
APPID
  5
9
330
0
100
AcDbSymbolTable
 70
     1
  0
APPID
  5
12
330
9
100
AcDbSymbolTableRecord
100
AcDbRegAppTableRecord
  2
ACAD
 70
     0
  0
ENDTAB
  0
TABLE
  2
DIMSTYLE
  5
A
330
0
100
AcDbSymbolTable
 70
     1
100
AcDbDimStyleTable
  0
DIMSTYLE
105
27
330
A
100
AcDbSymbolTableRecord
100
AcDbDimStyleTableRecord
  2
ISO-25
 70
     0
 41
2.5
 42
0.625
 43
3.75
 44
1.25
 73
     0
 74
     0
 77
     1
 78
     8
140
2.5
141
2.5
143
0.0393700787
147
0.625
171
     3
172
     1
178
     0
271
     2
272
     2
274
     3
278
    44
283
     0
284
     8
340
11
  0
ENDTAB
  0
TABLE
  2
BLOCK_RECORD
  5
1
330
0
100
AcDbSymbolTable
 70
     3
  0
BLOCK_RECORD
  5
1F
330
1
100
AcDbSymbolTableRecord
100
AcDbBlockTableRecord
  2
*Model_Space
340
22
  0
BLOCK_RECORD
  5
1B
330
1
100
AcDbSymbolTableRecord
100
AcDbBlockTableRecord
  2
*Paper_Space
340
1E
  0
BLOCK_RECORD
  5
23
330
1
100
AcDbSymbolTableRecord
100
AcDbBlockTableRecord
  2
*Paper_Space0
340
26
  0
BLOCK_RECORD
  5
86
330
1
100
AcDbSymbolTableRecord
100
AcDbBlockTableRecord
  2
SW_CENTERMARKSYMBOL_0
340
0
102
{BLKREFS
331
91
102
}
  0
BLOCK_RECORD
  5
A4
330
1
100
AcDbSymbolTableRecord
100
AcDbBlockTableRecord
  2
SW_CENTERMARKSYMBOL_1
340
0
102
{BLKREFS
331
AF
102
}
  0
ENDTAB
  0
ENDSEC
  0
SECTION
  2
BLOCKS
  0
BLOCK
  5
20
330
1F
100
AcDbEntity
  8
0
100
AcDbBlockBegin
  2
*Model_Space
 70
     0
 10
0.0
 20
0.0
 30
0.0
  3
*Model_Space
  1

  0
ENDBLK
  5
21
330
1F
100
AcDbEntity
  8
0
100
AcDbBlockEnd
  0
BLOCK
  5
1C
330
1B
100
AcDbEntity
 67
     1
  8
0
100
AcDbBlockBegin
  2
*Paper_Space
 70
     0
 10
0.0
 20
0.0
 30
0.0
  3
*Paper_Space
  1

  0
ENDBLK
  5
1D
330
1B
100
AcDbEntity
 67
     1
  8
0
100
AcDbBlockEnd
  0
BLOCK
  5
24
330
23
100
AcDbEntity
  8
0
100
AcDbBlockBegin
  2
*Paper_Space0
 70
     0
 10
0.0
 20
0.0
 30
0.0
  3
*Paper_Space0
  1

  0
ENDBLK
  5
25
330
23
100
AcDbEntity
  8
0
100
AcDbBlockEnd
  0
BLOCK
  5
87
330
86
100
AcDbEntity
  8
0
100
AcDbBlockBegin
  2
SW_CENTERMARKSYMBOL_0
 70
     0
 10
0.0
 20
0.0
 30
0.0
  3
SW_CENTERMARKSYMBOL_0
  1

  0
LINE
  5
89
330
86
100
AcDbEntity
  8
10
 62
     0
100
AcDbLine
 10
0.0
 20
0.0
 30
0.0
 11
0.0
 21
2.5
 31
0.0
  0
LINE
  5
8A
330
86
100
AcDbEntity
  8
10
 62
     0
100
AcDbLine
 10
0.0
 20
0.0
 30
0.0
 11
-2.5
 21
0.0
 31
0.0
  0
LINE
  5
8B
330
86
100
AcDbEntity
  8
10
 62
     0
100
AcDbLine
 10
0.0
 20
0.0
 30
0.0
 11
0.0
 21
-2.5
 31
0.0
  0
LINE
  5
8C
330
86
100
AcDbEntity
  8
10
 62
     0
100
AcDbLine
 10
0.0
 20
0.0
 30
0.0
 11
2.5
 21
0.0
 31
0.0
  0
LINE
  5
8D
330
86
100
AcDbEntity
  8
10
 62
     0
100
AcDbLine
 10
0.0
 20
5.0
 30
0.0
 11
0.0
 21
15.517163881
 31
0.0
  0
LINE
  5
8E
330
86
100
AcDbEntity
  8
10
 62
     0
100
AcDbLine
 10
-5.0
 20
0.0
 30
0.0
 11
-15.517163881
 21
0.0
 31
0.0
  0
LINE
  5
8F
330
86
100
AcDbEntity
  8
10
 62
     0
100
AcDbLine
 10
0.0
 20
-5.0
 30
0.0
 11
0.0
 21
-15.517163881
 31
0.0
  0
LINE
  5
90
330
86
100
AcDbEntity
  8
10
 62
     0
100
AcDbLine
 10
5.0
 20
0.0
 30
0.0
 11
15.517163881
 21
0.0
 31
0.0
  0
ENDBLK
  5
88
330
86
100
AcDbEntity
  8
0
100
AcDbBlockEnd
  0
BLOCK
  5
A5
330
A4
100
AcDbEntity
  8
0
100
AcDbBlockBegin
  2
SW_CENTERMARKSYMBOL_1
 70
     0
 10
0.0
 20
0.0
 30
0.0
  3
SW_CENTERMARKSYMBOL_1
  1

  0
LINE
  5
A7
330
A4
100
AcDbEntity
  8
10
 62
     0
100
AcDbLine
 10
0.0
 20
0.0
 30
0.0
 11
0.0
 21
2.5
 31
0.0
  0
LINE
  5
A8
330
A4
100
AcDbEntity
  8
10
 62
     0
100
AcDbLine
 10
0.0
 20
0.0
 30
0.0
 11
-2.5
 21
0.0
 31
0.0
  0
LINE
  5
A9
330
A4
100
AcDbEntity
  8
10
 62
     0
100
AcDbLine
 10
0.0
 20
0.0
 30
0.0
 11
0.0
 21
-2.5
 31
0.0
  0
LINE
  5
AA
330
A4
100
AcDbEntity
  8
10
 62
     0
100
AcDbLine
 10
0.0
 20
0.0
 30
0.0
 11
2.5
 21
0.0
 31
0.0
  0
LINE
  5
AB
330
A4
100
AcDbEntity
  8
10
 62
     0
100
AcDbLine
 10
0.0
 20
5.0
 30
0.0
 11
0.0
 21
9.0085819405
 31
0.0
  0
LINE
  5
AC
330
A4
100
AcDbEntity
  8
10
 62
     0
100
AcDbLine
 10
-5.0
 20
0.0
 30
0.0
 11
-9.0085819405
 21
0.0
 31
0.0
  0
LINE
  5
AD
330
A4
100
AcDbEntity
  8
10
 62
     0
100
AcDbLine
 10
0.0
 20
-5.0
 30
0.0
 11
0.0
 21
-9.0085819405
 31
0.0
  0
LINE
  5
AE
330
A4
100
AcDbEntity
  8
10
 62
     0
100
AcDbLine
 10
5.0
 20
0.0
 30
0.0
 11
9.0085819405
 21
0.0
 31
0.0
  0
ENDBLK
  5
A6
330
A4
100
AcDbEntity
  8
0
100
AcDbBlockEnd
  0
ENDSEC
  0
SECTION
  2
ENTITIES
  0
SPLINE
  5
70
330
1F
100
AcDbEntity
  8
0
  6
Continuous
 62
     7
370
    25
100
AcDbSpline
210
0.0
220
0.0
230
1.0
 70
    11
 71
     3
 72
    99
 73
    95
 74
     0
 42
0.00000001
 43
0.00000001
 40
0.0
 40
0.0
 40
0.0
 40
0.0
 40
0.0312499999999999
 40
0.0312499999999999
 40
0.0468749999999998
 40
0.0468749999999998
 40
0.0624999999999998
 40
0.0624999999999998
 40
0.0937499999999997
 40
0.0937499999999997
 40
0.1093749999999996
 40
0.1093749999999996
 40
0.1249999999999996
 40
0.1249999999999996
 40
0.1562499999999995
 40
0.1562499999999995
 40
0.1718749999999995
 40
0.1718749999999995
 40
0.1874999999999995
 40
0.2031249999999995
 40
0.2031249999999995
 40
0.2187499999999995
 40
0.2187499999999995
 40
0.2499999999999995
 40
0.2499999999999995
 40
0.2656249999999995
 40
0.2656249999999995
 40
0.2812499999999995
 40
0.2812499999999995
 40
0.3124999999999994
 40
0.3124999999999994
 40
0.3281249999999994
 40
0.3281249999999994
 40
0.3437499999999994
 40
0.3437499999999994
 40
0.3749999999999993
 40
0.3749999999999993
 40
0.4062499999999993
 40
0.4062499999999993
 40
0.4218749999999993
 40
0.4218749999999993
 40
0.4374999999999993
 40
0.4374999999999993
 40
0.4687499999999992
 40
0.4687499999999992
 40
0.4843749999999991
 40
0.4843749999999991
 40
0.4999999999999991
 40
0.4999999999999991
 40
0.5312499999999991
 40
0.5312499999999991
 40
0.546874999999999
 40
0.546874999999999
 40
0.562499999999999
 40
0.5781249999999989
 40
0.5781249999999989
 40
0.5937499999999988
 40
0.5937499999999988
 40
0.6249999999999988
 40
0.6249999999999988
 40
0.6406249999999989
 40
0.6406249999999989
 40
0.6562499999999989
 40
0.6562499999999989
 40
0.687499999999999
 40
0.687499999999999
 40
0.703124999999999
 40
0.703124999999999
 40
0.7187499999999991
 40
0.7187499999999991
 40
0.7499999999999991
 40
0.7499999999999991
 40
0.7656249999999992
 40
0.7656249999999992
 40
0.7812499999999992
 40
0.7968749999999993
 40
0.7968749999999993
 40
0.8124999999999993
 40
0.8124999999999993
 40
0.8437499999999994
 40
0.8437499999999994
 40
0.8749999999999996
 40
0.8749999999999996
 40
0.9062499999999997
 40
0.9062499999999997
 40
0.9218749999999997
 40
0.9218749999999997
 40
0.9374999999999997
 40
0.9374999999999997
 40
0.9531249999999998
 40
0.9531249999999998
 40
0.9687499999999998
 40
0.9687499999999998
 40
1.0
 40
1.0
 40
1.0
 40
1.0
 10
96.01716388104745
 20
56.23428447758545
 30
0.0
 10
96.01716388104745
 20
55.37549394358062
 30
0.0
 10
95.93301281005546
 20
54.53129142811819
 30
0.0
 10
95.68592865492735
 20
53.28591506220924
 30
0.0
 10
95.58327427661682
 20
52.87430302940164
 30
0.0
 10
95.3364905709459
 20
52.05824960636264
 30
0.0
 10
95.19161794445714
 20
51.6525475952816
 30
0.0
 10
94.70339109466634
 20
50.47213086836638
 30
0.0
 10
94.30506848389388
 20
49.72563810105402
 30
0.0
 10
93.59934327182778
 20
48.66588956151769
 30
0.0
 10
93.345213840359
 20
48.32183641278265
 30
0.0
 10
92.80227852004548
 20
47.65841020166396
 30
0.0
 10
92.51658242983042
 20
47.3426541961918
 30
0.0
 10
91.61812627421196
 20
46.44173864809795
 30
0.0
 10
90.96439154358553
 20
45.90249133644776
 30
0.0
 10
89.89959303400538
 20
45.18779620586135
 30
0.0
 10
89.5299678855232
 20
44.96539740341632
 30
0.0
 10
88.77865613146949
 20
44.56229138816119
 30
0.0
 10
88.011371077025
 20
44.19803127722425
 30
0.0
 10
87.21261947672443
 20
43.91024975761371
 30
0.0
 10
86.39791897179717
 20
43.66121240685239
 30
0.0
 10
85.9806228603647
 20
43.55569184874181
 30
0.0
 10
84.7179728629795
 20
43.30245562550444
 30
0.0
 10
83.87201157583573
 20
43.21857432175651
 30
0.0
 10
82.5969608563954
 20
43.21642156386216
 30
0.0
 10
82.17091846346271
 20
43.23646518317338
 30
0.0
 10
81.31672317344353
 20
43.31928305561125
 30
0.0
 10
80.89031649446923
 20
43.38214373180362
 30
0.0
 10
79.63576624872472
 20
43.63049894623736
 30
0.0
 10
78.8232849156612
 20
43.87591323828617
 30
0.0
 10
77.64042337327203
 20
44.36400953730769
 30
0.0
 10
77.25007450665366
 20
44.54805859085783
 30
0.0
 10
76.49529166293013
 20
44.95074389387191
 30
0.0
 10
76.13036105660551
 20
45.16927481646543
 30
0.0
 10
75.0719742201594
 20
45.87512173298246
 30
0.0
 10
74.41456916363943
 20
46.41220192387854
 30
0.0
 10
73.19948094888258
 20
47.62424645987326
 30
0.0
 10
72.66001595632676
 20
48.28143529903632
 30
0.0
 10
71.9528573795015
 20
49.33600015668785
 30
0.0
 10
71.73400959848888
 20
49.69933281712046
 30
0.0
 10
71.3307413461462
 20
50.45012201435769
 30
0.0
 10
71.1458236311831
 20
50.83923988409386
 30
0.0
 10
70.65479651947085
 20
52.01903849409747
 30
0.0
 10
70.4076879622522
 20
52.82834852999417
 30
0.0
 10
70.15597173812273
 20
54.07615214350398
 30
0.0
 10
70.09195480053327
 20
54.49853256259465
 30
0.0
 10
70.0057002314116
 20
55.35187918185489
 30
0.0
 10
69.98394743229467
 20
55.77728013405532
 30
0.0
 10
69.98073771878359
 20
57.04979216967304
 30
0.0
 10
70.06074725104894
 20
57.89324892013622
 30
0.0
 10
70.30660764997458
 20
59.15092868944473
 30
0.0
 10
70.41017993445506
 20
59.56965546873559
 30
0.0
 10
70.65536909571593
 20
60.38619449207255
 30
0.0
 10
70.9392886146647
 20
61.1864523549207
 30
0.0
 10
71.29936817201676
 20
61.95467521381504
 30
0.0
 10
71.697975820727
 20
62.70668007738345
 30
0.0
 10
71.91751404086544
 20
63.07601333079993
 30
0.0
 10
72.62959867362584
 20
64.14870831972887
 30
0.0
 10
73.16728879444854
 20
64.80667167838557
 30
0.0
 10
74.06531414827538
 20
65.71048167654564
 30
0.0
 10
74.38001496655302
 20
65.99779532052173
 30
0.0
 10
75.04099039184523
 20
66.54371957434434
 30
0.0
 10
75.38682264736566
 20
66.80159134483614
 30
0.0
 10
76.44885488562346
 20
67.51509147396098
 30
0.0
 10
77.19649302787093
 20
67.9173380587974
 30
0.0
 10
78.37739351465562
 20
68.41049219799008
 30
0.0
 10
78.78330311893177
 20
68.55702151054136
 30
0.0
 10
79.60331416630144
 20
68.80778462342172
 30
0.0
 10
80.01665379190145
 20
68.91209045987578
 30
0.0
 10
81.26640896376402
 20
69.16345583884583
 30
0.0
 10
82.11246638754417
 20
69.24955936503527
 30
0.0
 10
83.40153932377791
 20
69.25234719360715
 30
0.0
 10
83.83100923915167
 20
69.23188081350735
 30
0.0
 10
84.67916905125539
 20
69.14972013281721
 30
0.0
 10
85.51980150625116
 20
69.02635669187485
 30
0.0
 10
86.34553398328423
 20
68.82143992340424
 30
0.0
 10
87.16367646709318
 20
68.57498454394674
 30
0.0
 10
87.57097499450892
 20
68.43001595501904
 30
0.0
 10
88.7576477580546
 20
67.94020351268874
 30
0.0
 10
89.50700779091783
 20
67.54045931462225
 30
0.0
 10
90.92360433446841
 20
66.59706567702717
 30
0.0
 10
91.59523307660237
 20
66.04714992103459
 30
0.0
 10
92.7993443168196
 20
64.84492968063343
 30
0.0
 10
93.33882172099075
 20
64.18956647084804
 30
0.0
 10
94.05269372667624
 20
63.12393719426979
 30
0.0
 10
94.27502409398956
 20
62.7536777091804
 30
0.0
 10
94.67779882578772
 20
62.00123089771472
 30
0.0
 10
94.85958817457977
 20
61.61726394767828
 30
0.0
 10
95.18472446812721
 20
60.83415287590898
 30
0.0
 10
95.32807049383965
 20
60.43500837220511
 30
0.0
 10
95.57596049057923
 20
59.62141026197821
 30
0.0
 10
95.68075096304743
 20
59.20569041654355
 30
0.0
 10
95.93299765998292
 20
57.94328944315838
 30
0.0
 10
96.01716388104745
 20
57.09307501159029
 30
0.0
 10
96.01716388104745
 20
56.23428447758545
 30
0.0
  0
SPLINE
  5
71
330
1F
100
AcDbEntity
  8
0
  6
Continuous
 62
     7
370
    25
100
AcDbSpline
210
0.0
220
0.0
230
1.0
 70
     8
 71
     3
 72
    26
 73
    22
 74
     0
 42
0.00000001
 43
0.00000001
 40
0.0
 40
0.0
 40
0.0
 40
0.0
 40
0.125000000000002
 40
0.125000000000002
 40
0.1875000000000031
 40
0.1875000000000031
 40
0.2500000000000041
 40
0.2500000000000041
 40
0.3750000000000038
 40
0.3750000000000038
 40
0.5000000000000037
 40
0.5000000000000037
 40
0.6250000000000034
 40
0.6250000000000034
 40
0.6875000000000026
 40
0.6875000000000026
 40
0.7500000000000017
 40
0.7500000000000017
 40
0.8750000000000009
 40
0.8750000000000009
 40
1.0
 40
1.0
 40
1.0
 40
1.0
 10
37.0570686551267
 20
18.71422387927212
 30
0.0
 10
37.05706865512672
 20
18.21307829459629
 30
0.0
 10
37.10579104397389
 20
17.72030292013271
 30
0.0
 10
37.24890668302845
 20
16.99315124134358
 30
0.0
 10
37.3083694894295
 20
16.75278353169743
 30
0.0
 10
37.45132023187823
 20
16.27615946475851
 30
0.0
 10
37.53532831686586
 20
16.03885820559593
 30
0.0
 10
37.81903638291347
 20
15.34720695841003
 30
0.0
 10
38.05071137423666
 20
14.90940388226854
 30
0.0
 10
38.59848773418067
 20
14.07991427394965
 30
0.0
 10
38.91853870765069
 20
13.68516606494338
 30
0.0
 10
39.62079188766926
 20
12.97503058619254
 30
0.0
 10
40.00431149294832
 20
12.65600425978933
 30
0.0
 10
40.62938992598679
 20
12.23275212663268
 30
0.0
 10
40.84736549943158
 20
12.10035517251074
 30
0.0
 10
41.29173601710301
 20
11.85985083476067
 30
0.0
 10
41.51863381559312
 20
11.75123001937565
 30
0.0
 10
42.21321684731673
 20
11.45962514203665
 30
0.0
 10
42.69464979728016
 20
11.31054747757707
 30
0.0
 10
43.69626147572043
 20
11.10785442475408
 30
0.0
 10
44.20264984752196
 20
11.05706865512672
 30
0.0
 10
44.71422387927225
 20
11.05706865512671
 30
0.0
  0
LINE
  5
72
330
1F
100
AcDbEntity
  8
0
  6
Continuous
 62
     7
370
    25
100
AcDbLine
 10
37.0570686551
 20
18.7142238793
 30
0.0
 11
37.0570686551
 21
87.6286208966
 31
0.0
  0
LINE
  5
73
330
1F
100
AcDbEntity
  8
0
  6
Continuous
 62
     7
370
    25
100
AcDbLine
 10
37.0570686551
 20
87.6286208966
 30
0.0
 11
128.9429313449
 21
87.6286208966
 31
0.0
  0
LINE
  5
74
330
1F
100
AcDbEntity
  8
0
  6
Continuous
 62
     7
370
    25
100
AcDbLine
 10
128.9429313449
 20
18.7142238793
 30
0.0
 11
128.9429313449
 21
87.6286208966
 31
0.0
  0
SPLINE
  5
75
330
1F
100
AcDbEntity
  8
0
  6
Continuous
 62
     7
370
    25
100
AcDbSpline
210
0.0
220
0.0
230
1.0
 70
     8
 71
     3
 72
    28
 73
    24
 74
     0
 42
0.00000001
 43
0.00000001
 40
0.0
 40
0.0
 40
0.0
 40
0.0
 40
0.124999999999996
 40
0.124999999999996
 40
0.1874999999999948
 40
0.1874999999999948
 40
0.2499999999999937
 40
0.2499999999999937
 40
0.3749999999999935
 40
0.3749999999999935
 40
0.4374999999999934
 40
0.4374999999999934
 40
0.4999999999999933
 40
0.4999999999999933
 40
0.6249999999999941
 40
0.6249999999999941
 40
0.7499999999999948
 40
0.7499999999999948
 40
0.8124999999999957
 40
0.8124999999999957
 40
0.8749999999999966
 40
0.8749999999999966
 40
1.0
 40
1.0
 40
1.0
 40
1.0
 10
121.2857761207278
 20
11.05706865512671
 30
0.0
 10
121.7971366114412
 20
11.05706865512669
 30
0.0
 10
122.2995867808406
 20
11.10777766271678
 30
0.0
 10
123.0404853832706
 20
11.25657853882342
 30
0.0
 10
123.2853059707153
 20
11.31839425416988
 30
0.0
 10
123.7705622639048
 20
11.46700004616154
 30
0.0
 10
124.0109861446368
 20
11.55398889556248
 30
0.0
 10
124.7094199516877
 20
11.84650785979573
 30
0.0
 10
125.150465404568
 20
12.08482386346079
 30
0.0
 10
125.7756661408029
 20
12.5064787846189
 30
0.0
 10
125.9790150452362
 20
12.65873344138532
 30
0.0
 10
126.3667855755078
 20
12.98022013264841
 30
0.0
 10
126.5512665328736
 20
13.14926604083597
 30
0.0
 10
127.0773831396987
 20
13.68055823148439
 30
0.0
 10
127.3919525819558
 20
14.06672890430468
 30
0.0
 10
127.9470182675048
 20
14.90470244213537
 30
0.0
 10
128.1793840359592
 20
15.34450355934754
 30
0.0
 10
128.4616469614547
 20
16.03092207867963
 30
0.0
 10
128.5447173580631
 20
16.26438602757428
 30
0.0
 10
128.6884468587207
 20
16.74080062726511
 30
0.0
 10
128.7492033223084
 20
16.98465085305287
 30
0.0
 10
128.8942409024679
 20
17.71830266234835
 30
0.0
 10
128.9429313448733
 20
18.21327747174713
 30
0.0
 10
128.9429313448733
 20
18.71422387927212
 30
0.0
  0
LINE
  5
76
330
1F
100
AcDbEntity
  8
0
  6
Continuous
 62
     7
370
    25
100
AcDbLine
 10
44.7142238793
 20
11.0570686551
 30
0.0
 11
121.2857761207
 21
11.0570686551
 31
0.0
  0
LINE
  5
77
330
1F
100
AcDbEntity
  8
0
  6
Continuous
 62
     7
370
    25
100
AcDbLine
 10
37.0570686551
 20
102.9429313449
 30
0.0
 11
128.9429313449
 21
102.9429313449
 31
0.0
  0
LINE
  5
78
330
1F
100
AcDbEntity
  8
0
  6
Continuous
 62
     7
370
    25
100
AcDbLine
 10
37.0570686551
 20
102.9429313449
 30
0.0
 11
37.0570686551
 21
87.6286208966
 31
0.0
  0
LINE
  5
79
330
1F
100
AcDbEntity
  8
0
  6
Continuous
 62
     7
370
    25
100
AcDbLine
 10
128.9429313449
 20
102.9429313449
 30
0.0
 11
128.9429313449
 21
87.6286208966
 31
0.0
  0
ARC
  5
7A
330
1F
100
AcDbEntity
  8
0
  6
HIDDEN
 62
     7
370
    18
100
AcDbCircle
 10
44.7142238793
 20
95.2857761207
 30
0.0
 40
7.657155224145546
100
AcDbArc
 50
180.0
 51
182.3822119628
  0
SPLINE
  5
7B
330
1F
100
AcDbEntity
  8
0
  6
HIDDEN
 62
     7
370
    18
100
AcDbSpline
210
0.0
220
0.0
230
1.0
 70
     8
 71
     3
 72
    28
 73
    24
 74
     0
 42
0.00000001
 43
0.00000001
 40
0.0
 40
0.0
 40
0.0
 40
0.0
 40
0.1249999999999997
 40
0.1249999999999997
 40
0.1874999999999997
 40
0.1874999999999997
 40
0.2499999999999997
 40
0.2499999999999997
 40
0.3124999999999997
 40
0.3124999999999997
 40
0.3749999999999997
 40
0.3749999999999997
 40
0.4999999999999994
 40
0.4999999999999994
 40
0.6249999999999992
 40
0.6249999999999992
 40
0.749999999999999
 40
0.749999999999999
 40
0.874999999999999
 40
0.874999999999999
 40
0.9374999999999994
 40
0.9374999999999994
 40
1.0
 40
1.0
 40
1.0
 40
1.0
 10
37.06368610147648
 20
94.96750290919526
 30
0.0
 10
37.08836652783
 20
94.37424363587924
 30
0.0
 10
37.18032215369188
 20
93.80206925021835
 30
0.0
 10
37.40927195121542
 20
92.97198446746084
 30
0.0
 10
37.50133426422783
 20
92.69985144401736
 30
0.0
 10
37.70840754772443
 20
92.18136520542355
 30
0.0
 10
37.823989223573
 20
91.93263078055524
 30
0.0
 10
38.07694664169903
 20
91.45406911438805
 30
0.0
 10
38.21521981154523
 20
91.22299788546908
 30
0.0
 10
38.50731594462889
 20
90.78551963711354
 30
0.0
 10
38.6608008772653
 20
90.57923236738681
 30
0.0
 10
39.1407599259723
 20
89.99290278237616
 30
0.0
 10
39.48656171307179
 20
89.64507892486898
 30
0.0
 10
40.22157194573999
 20
89.02170737448128
 30
0.0
 10
40.60392923580607
 20
88.75230217355916
 30
0.0
 10
41.38581676961936
 20
88.28751702660703
 30
0.0
 10
41.78661351307113
 20
88.09129569759895
 30
0.0
 10
42.60543408096128
 20
87.76385233152581
 30
0.0
 10
43.02508067720412
 20
87.63251639816073
 30
0.0
 10
43.65610353166602
 20
87.48529154471838
 30
0.0
 10
43.86702540953139
 20
87.4443700071622
 30
0.0
 10
44.28992265494939
 20
87.37853928545543
 30
0.0
 10
44.50356453682371
 20
87.35350139735571
 30
0.0
 10
44.71422387927225
 20
87.3367603996997
 30
0.0
  0
ARC
  5
7C
330
1F
100
AcDbEntity
  8
0
  6
HIDDEN
 62
     7
370
    18
100
AcDbCircle
 10
121.2857761207
 20
95.2857761207
 30
0.0
 40
7.657155224145553
100
AcDbArc
 50
357.6177880372
 51
0.0
  0
SPLINE
  5
7D
330
1F
100
AcDbEntity
  8
0
  6
HIDDEN
 62
     7
370
    18
100
AcDbSpline
210
0.0
220
0.0
230
1.0
 70
     8
 71
     3
 72
    28
 73
    24
 74
     0
 42
0.00000001
 43
0.00000001
 40
0.0
 40
0.0
 40
0.0
 40
0.0
 40
0.1249999999999997
 40
0.1249999999999997
 40
0.1874999999999997
 40
0.1874999999999997
 40
0.2499999999999997
 40
0.2499999999999997
 40
0.3124999999999997
 40
0.3124999999999997
 40
0.3749999999999997
 40
0.3749999999999997
 40
0.4999999999999994
 40
0.4999999999999994
 40
0.6249999999999992
 40
0.6249999999999992
 40
0.749999999999999
 40
0.749999999999999
 40
0.874999999999999
 40
0.874999999999999
 40
0.9374999999999994
 40
0.9374999999999994
 40
1.0
 40
1.0
 40
1.0
 40
1.0
 10
128.9363138985235
 20
94.96750290919526
 30
0.0
 10
128.91163347217
 20
94.37424363587924
 30
0.0
 10
128.8196778463081
 20
93.80206925021835
 30
0.0
 10
128.5907280487846
 20
92.97198446746084
 30
0.0
 10
128.4986657357722
 20
92.69985144401736
 30
0.0
 10
128.2915924522756
 20
92.18136520542355
 30
0.0
 10
128.176010776427
 20
91.93263078055524
 30
0.0
 10
127.923053358301
 20
91.45406911438805
 30
0.0
 10
127.7847801884548
 20
91.22299788546908
 30
0.0
 10
127.4926840553711
 20
90.78551963711354
 30
0.0
 10
127.3391991227347
 20
90.57923236738681
 30
0.0
 10
126.8592400740277
 20
89.99290278237616
 30
0.0
 10
126.5134382869282
 20
89.64507892486898
 30
0.0
 10
125.77842805426
 20
89.02170737448128
 30
0.0
 10
125.3960707641939
 20
88.75230217355916
 30
0.0
 10
124.6141832303806
 20
88.28751702660703
 30
0.0
 10
124.2133864869289
 20
88.09129569759895
 30
0.0
 10
123.3945659190387
 20
87.76385233152581
 30
0.0
 10
122.9749193227959
 20
87.63251639816073
 30
0.0
 10
122.343896468334
 20
87.48529154471838
 30
0.0
 10
122.1329745904686
 20
87.4443700071622
 30
0.0
 10
121.7100773450506
 20
87.37853928545543
 30
0.0
 10
121.4964354631763
 20
87.35350139735571
 30
0.0
 10
121.2857761207278
 20
87.3367603996997
 30
0.0
  0
SPLINE
  5
7E
330
1F
100
AcDbEntity
  8
0
  6
HIDDEN
 62
     7
370
    18
100
AcDbSpline
210
0.0
220
0.0
230
1.0
 70
    11
 71
     3
 72
    90
 73
    86
 74
     0
 42
0.00000001
 43
0.00000001
 40
0.0
 40
0.0
 40
0.0
 40
0.0
 40
0.0312499999999997
 40
0.0312499999999997
 40
0.0468749999999995
 40
0.0468749999999995
 40
0.0624999999999993
 40
0.0624999999999993
 40
0.0781249999999992
 40
0.0781249999999992
 40
0.093749999999999
 40
0.093749999999999
 40
0.1249999999999986
 40
0.1249999999999986
 40
0.1562499999999983
 40
0.1562499999999983
 40
0.1874999999999979
 40
0.1874999999999979
 40
0.2187499999999977
 40
0.2187499999999977
 40
0.2499999999999974
 40
0.2499999999999974
 40
0.3124999999999969
 40
0.3124999999999969
 40
0.3281249999999967
 40
0.3281249999999967
 40
0.3437499999999966
 40
0.3437499999999966
 40
0.3749999999999963
 40
0.3749999999999963
 40
0.3906249999999964
 40
0.3906249999999964
 40
0.4062499999999964
 40
0.4062499999999964
 40
0.4374999999999964
 40
0.4374999999999964
 40
0.4531249999999964
 40
0.4531249999999964
 40
0.4687499999999964
 40
0.4687499999999964
 40
0.4843749999999964
 40
0.4843749999999964
 40
0.4999999999999964
 40
0.4999999999999964
 40
0.5312499999999964
 40
0.5312499999999964
 40
0.5468749999999966
 40
0.5468749999999966
 40
0.5624999999999966
 40
0.5624999999999966
 40
0.5937499999999964
 40
0.5937499999999964
 40
0.6249999999999963
 40
0.6249999999999963
 40
0.6562499999999963
 40
0.6562499999999963
 40
0.6874999999999963
 40
0.6874999999999963
 40
0.7187499999999963
 40
0.7187499999999963
 40
0.7343749999999964
 40
0.7343749999999964
 40
0.7499999999999964
 40
0.7499999999999964
 40
0.7812499999999968
 40
0.7812499999999968
 40
0.7968749999999969
 40
0.7968749999999969
 40
0.8124999999999971
 40
0.8124999999999971
 40
0.8437499999999976
 40
0.8437499999999976
 40
0.874999999999998
 40
0.874999999999998
 40
0.9062499999999984
 40
0.9062499999999984
 40
0.9218749999999987
 40
0.9218749999999987
 40
0.937499999999999
 40
0.937499999999999
 40
0.9531249999999992
 40
0.9531249999999992
 40
0.9687499999999996
 40
0.9687499999999996
 40
1.0
 40
1.0
 40
1.0
 40
1.0
 10
83.0
 20
69.40949292133334
 30
0.0
 10
82.52676716990001
 20
69.40949292133334
 30
0.0
 10
82.0654015235144
 20
69.44984924310084
 30
0.0
 10
81.3897233310895
 20
69.56557172083559
 30
0.0
 10
81.16571610508936
 20
69.61386504762945
 30
0.0
 10
80.73258051535336
 20
69.72631592259773
 30
0.0
 10
80.52327565857134
 20
69.79032160105098
 30
0.0
 10
80.11800450897593
 20
69.93239124736436
 30
0.0
 10
79.92204304802645
 20
70.01046059308418
 30
0.0
 10
79.54281197084413
 20
70.17971394934168
 30
0.0
 10
79.35981389717362
 20
70.27089393408502
 30
0.0
 10
78.83962964330372
 20
70.5569223062236
 30
0.0
 10
78.52683575140921
 20
70.76585428105513
 30
0.0
 10
77.96178722291536
 20
71.2141326474744
 30
0.0
 10
77.71451863863226
 20
71.44983615077405
 30
0.0
 10
77.28789698771921
 20
71.93469745509998
 30
0.0
 10
77.10671190963778
 20
72.1862814468352
 30
0.0
 10
76.81307682505157
 20
72.69590992938197
 30
0.0
 10
76.7014728750873
 20
72.95167605898334
 30
0.0
 10
76.54564565866413
 20
73.46425468369529
 30
0.0
 10
76.50140824533489
 20
73.72231541827911
 30
0.0
 10
76.47596353604688
 20
74.48964537299884
 30
0.0
 10
76.59753362364062
 20
74.97742982256669
 30
0.0
 10
76.94219708300012
 20
75.55811570698789
 30
0.0
 10
77.02098436924547
 20
75.67241539400969
 30
0.0
 10
77.1957401106706
 20
75.89329481953634
 30
0.0
 10
77.29203870094678
 20
76.00046898899657
 30
0.0
 10
77.6081812889958
 20
76.31235147291588
 30
0.0
 10
77.85496821403143
 20
76.50750161791777
 30
0.0
 10
78.28577950820905
 20
76.78038814059157
 30
0.0
 10
78.44057322457219
 20
76.86845932066328
 30
0.0
 10
78.7640536826071
 20
77.03345489029606
 30
0.0
 10
78.93329729323753
 20
77.11084351057589
 30
0.0
 10
79.46376516617045
 20
77.32797321719667
 30
0.0
 10
79.84742992618013
 20
77.45286761596797
 30
0.0
 10
80.4734002921202
 20
77.60858527702933
 30
0.0
 10
80.68911076155118
 20
77.654706247922
 30
0.0
 10
81.12539252990184
 20
77.73362349177391
 30
0.0
 10
81.34728382503864
 20
77.76676077856615
 30
0.0
 10
81.79863006880747
 20
77.82046501958953
 30
0.0
 10
82.02808369221763
 20
77.84103406287855
 30
0.0
 10
82.49489361373202
 20
77.86915564312447
 30
0.0
 10
82.73220711746545
 20
77.87657304964813
 30
0.0
 10
83.43529169656718
 20
77.87847546719648
 30
0.0
 10
83.89924951318805
 20
77.8534297279647
 30
0.0
 10
84.58798173255536
 20
77.77564347702234
 30
0.0
 10
84.8141851636207
 20
77.74311318333822
 30
0.0
 10
85.25312576259216
 20
77.6662524529933
 30
0.0
 10
85.46698770511543
 20
77.62179808485594
 30
0.0
 10
86.09219712329691
 20
77.47050847116081
 30
0.0
 10
86.48941211932183
 20
77.34443748304616
 30
0.0
 10
87.20755067043905
 20
77.0555977337421
 30
0.0
 10
87.5347185353285
 20
76.89109335674951
 30
0.0
 10
88.11868344154772
 20
76.52688268681239
 30
0.0
 10
88.37019749968155
 20
76.33088726905069
 30
0.0
 10
88.80039846443002
 20
75.91185475016184
 30
0.0
 10
88.97935094067765
 20
75.68722738514467
 30
0.0
 10
89.2571372282741
 20
75.2251598762053
 30
0.0
 10
89.35793920913551
 20
74.98630130767062
 30
0.0
 10
89.45501686128065
 20
74.61609887204123
 30
0.0
 10
89.47830266265541
 20
74.49025524353299
 30
0.0
 10
89.5063233866734
 20
74.23808965479324
 30
0.0
 10
89.51119990814973
 20
74.11148774081585
 30
0.0
 10
89.49942297341921
 20
73.73012648242775
 30
0.0
 10
89.45657397560247
 20
73.47380470912402
 30
0.0
 10
89.33979027943727
 20
73.0863312750925
 30
0.0
 10
89.29179667760575
 20
72.95615152632489
 30
0.0
 10
89.17917759780177
 20
72.69836644315119
 30
0.0
 10
89.11458785338611
 20
72.57060748713266
 30
0.0
 10
88.89620787951806
 20
72.19087406064234
 30
0.0
 10
88.71805115900504
 20
71.94238497290968
 30
0.0
 10
88.29234970049842
 20
71.45674221097437
 30
0.0
 10
88.04210307147757
 20
71.21777087880578
 30
0.0
 10
87.48098580966047
 20
70.7715189832333
 30
0.0
 10
87.16942746426304
 20
70.56253230073816
 30
0.0
 10
86.6486012002806
 20
70.27521771918484
 30
0.0
 10
86.46494525871478
 20
70.18344005345942
 30
0.0
 10
86.08581234313942
 20
70.01371315413792
 30
0.0
 10
85.8898149617473
 20
69.93537476451537
 30
0.0
 10
85.48426333334356
 20
69.7927310686695
 30
0.0
 10
85.27471423642444
 20
69.72842014009836
 30
0.0
 10
84.84082645690697
 20
69.61535988243173
 30
0.0
 10
84.61596509458373
 20
69.56668863735767
 30
0.0
 10
83.9378115914448
 20
69.45011876836213
 30
0.0
 10
83.47323283010002
 20
69.40949292133335
 30
0.0
 10
83.0
 20
69.40949292133334
 30
0.0
  0
LINE
  5
7F
330
1F
100
AcDbEntity
  8
0
  6
HIDDEN
 62
     7
370
    18
100
AcDbLine
 10
86.4457198509
 20
90.6914829862
 30
0.0
 11
79.5542801491
 21
90.6914829862
 31
0.0
  0
LINE
  5
80
330
1F
100
AcDbEntity
  8
0
  6
HIDDEN
 62
     7
370
    18
100
AcDbLine
 10
76.4914180595
 20
87.6286208966
 30
0.0
 11
76.4914180595
 21
74.0653032115
 31
0.0
  0
LINE
  5
81
330
1F
100
AcDbEntity
  8
0
  6
HIDDEN
 62
     7
370
    18
100
AcDbLine
 10
89.5085819405
 20
74.065241098
 30
0.0
 11
89.5085819405
 21
87.6286208966
 31
0.0
  0
LINE
  5
82
330
1F
100
AcDbEntity
  8
0
  6
HIDDEN
 62
     7
370
    18
100
AcDbLine
 10
89.5085819405
 20
87.6286208966
 30
0.0
 11
86.4457198509
 21
90.6914829862
 31
0.0
  0
LINE
  5
83
330
1F
100
AcDbEntity
  8
0
  6
HIDDEN
 62
     7
370
    18
100
AcDbLine
 10
79.5542801491
 20
90.6914829862
 30
0.0
 11
76.4914180595
 21
87.6286208966
 31
0.0
  0
LINE
  5
84
330
1F
100
AcDbEntity
  8
0
  6
HIDDEN
 62
     7
370
    18
100
AcDbLine
 10
86.4457198509
 20
90.6914829862
 30
0.0
 11
86.4457198509
 21
102.9429313449
 31
0.0
  0
LINE
  5
85
330
1F
100
AcDbEntity
  8
0
  6
HIDDEN
 62
     7
370
    18
100
AcDbLine
 10
79.5542801491
 20
102.9429313449
 30
0.0
 11
79.5542801491
 21
90.6914829862
 31
0.0
  0
INSERT
  5
91
330
1F
100
AcDbEntity
  8
10
100
AcDbBlockReference
  2
SW_CENTERMARKSYMBOL_0
 10
83.0
 20
56.2342844776
 30
0.0
  0
LINE
  5
92
330
1F
100
AcDbEntity
  8
0
  6
Continuous
 62
     7
370
    25
100
AcDbLine
 10
37.0570686551
 20
116.1141373103
 30
0.0
 11
128.9429313449
 21
116.1141373103
 31
0.0
  0
CIRCLE
  5
93
330
1F
100
AcDbEntity
  8
0
  6
Continuous
 62
     7
370
    25
100
AcDbCircle
 10
83.0
 20
162.0570686551
 30
0.0
 40
3.445719850865515
  0
LINE
  5
94
330
1F
100
AcDbEntity
  8
0
  6
Continuous
 62
     7
370
    25
100
AcDbLine
 10
37.0570686551
 20
116.1141373103
 30
0.0
 11
37.0570686551
 21
208.0
 31
0.0
  0
LINE
  5
95
330
1F
100
AcDbEntity
  8
0
  6
Continuous
 62
     7
370
    25
100
AcDbLine
 10
37.0570686551
 20
208.0
 30
0.0
 11
128.9429313449
 21
208.0
 31
0.0
  0
LINE
  5
96
330
1F
100
AcDbEntity
  8
0
  6
Continuous
 62
     7
370
    25
100
AcDbLine
 10
128.9429313449
 20
116.1141373103
 30
0.0
 11
128.9429313449
 21
208.0
 31
0.0
  0
SPLINE
  5
97
330
1F
100
AcDbEntity
  8
0
  6
Continuous
 62
     7
370
    25
100
AcDbSpline
210
0.0
220
0.0
230
1.0
 70
    11
 71
     3
 72
    99
 73
    95
 74
     0
 42
0.00000001
 43
0.00000001
 40
0.0
 40
0.0
 40
0.0
 40
0.0
 40
0.0312499999999999
 40
0.0312499999999999
 40
0.0468749999999998
 40
0.0468749999999998
 40
0.0624999999999998
 40
0.0624999999999998
 40
0.0937499999999997
 40
0.0937499999999997
 40
0.1093749999999996
 40
0.1093749999999996
 40
0.1249999999999996
 40
0.1249999999999996
 40
0.1562499999999995
 40
0.1562499999999995
 40
0.1718749999999995
 40
0.1718749999999995
 40
0.1874999999999995
 40
0.2031249999999995
 40
0.2031249999999995
 40
0.2187499999999995
 40
0.2187499999999995
 40
0.2499999999999995
 40
0.2499999999999995
 40
0.2656249999999995
 40
0.2656249999999995
 40
0.2812499999999995
 40
0.2812499999999995
 40
0.3124999999999994
 40
0.3124999999999994
 40
0.3281249999999994
 40
0.3281249999999994
 40
0.3437499999999994
 40
0.3437499999999994
 40
0.3749999999999993
 40
0.3749999999999993
 40
0.4062499999999993
 40
0.4062499999999993
 40
0.4218749999999993
 40
0.4218749999999993
 40
0.4374999999999993
 40
0.4374999999999993
 40
0.4687499999999992
 40
0.4687499999999992
 40
0.4843749999999991
 40
0.4843749999999991
 40
0.4999999999999991
 40
0.4999999999999991
 40
0.5312499999999991
 40
0.5312499999999991
 40
0.546874999999999
 40
0.546874999999999
 40
0.562499999999999
 40
0.5781249999999989
 40
0.5781249999999989
 40
0.5937499999999988
 40
0.5937499999999988
 40
0.6249999999999988
 40
0.6249999999999988
 40
0.6406249999999989
 40
0.6406249999999989
 40
0.6562499999999989
 40
0.6562499999999989
 40
0.687499999999999
 40
0.687499999999999
 40
0.703124999999999
 40
0.703124999999999
 40
0.7187499999999991
 40
0.7187499999999991
 40
0.7499999999999991
 40
0.7499999999999991
 40
0.7656249999999992
 40
0.7656249999999992
 40
0.7812499999999992
 40
0.7968749999999993
 40
0.7968749999999993
 40
0.8124999999999993
 40
0.8124999999999993
 40
0.8437499999999994
 40
0.8437499999999994
 40
0.8749999999999996
 40
0.8749999999999996
 40
0.9062499999999997
 40
0.9062499999999997
 40
0.9218749999999997
 40
0.9218749999999997
 40
0.9374999999999997
 40
0.9374999999999997
 40
0.9531249999999998
 40
0.9531249999999998
 40
0.9687499999999998
 40
0.9687499999999998
 40
1.0
 40
1.0
 40
1.0
 40
1.0
 10
96.01716388104745
 20
115.3081931875334
 30
0.0
 10
96.01716388104745
 20
115.2423651211201
 30
0.0
 10
95.93301281005546
 20
115.1740463161771
 30
0.0
 10
95.68592865492735
 20
115.0682760110412
 30
0.0
 10
95.58327427661682
 20
115.032472017166
 30
0.0
 10
95.3364905709459
 20
114.9598664048383
 30
0.0
 10
95.19161794445714
 20
114.922939753501
 30
0.0
 10
94.70339109466634
 20
114.8132473319622
 30
0.0
 10
94.30506848389388
 20
114.7408418177295
 30
0.0
 10
93.59934327182778
 20
114.6345730938075
 30
0.0
 10
93.345213840359
 20
114.5994544413718
 30
0.0
 10
92.80227852004548
 20
114.530684085241
 30
0.0
 10
92.51658242983042
 20
114.4974119896884
 30
0.0
 10
91.61812627421196
 20
114.4012144134443
 30
0.0
 10
90.96439154358553
 20
114.3418698889896
 30
0.0
 10
89.89959303400538
 20
114.2617508186238
 30
0.0
 10
89.5299678855232
 20
114.2365365166933
 30
0.0
 10
88.77865613146949
 20
114.1904665734801
 30
0.0
 10
88.011371077025
 20
114.1484390034795
 30
0.0
 10
87.21261947672443
 20
114.1147703078709
 30
0.0
 10
86.39791897179717
 20
114.0855044477357
 30
0.0
 10
85.9806228603647
 20
114.0730284602899
 30
0.0
 10
84.7179728629795
 20
114.0430060682288
 30
0.0
 10
83.87201157583573
 20
114.0329560074238
 30
0.0
 10
82.5969608563954
 20
114.0326989792394
 30
0.0
 10
82.17091846346271
 20
114.0350943005239
 30
0.0
 10
81.31672317344353
 20
114.0449657009846
 30
0.0
 10
80.89031649446923
 20
114.052451678653
 30
0.0
 10
79.63576624872472
 20
114.0819006155855
 30
0.0
 10
78.8232849156612
 20
114.1108966123263
 30
0.0
 10
77.64042337327203
 20
114.1675858029545
 30
0.0
 10
77.25007450665366
 20
114.1888303163071
 30
0.0
 10
76.49529166293013
 20
114.2348710674727
 30
0.0
 10
76.13036105660551
 20
114.2596571083923
 30
0.0
 10
75.0719742201594
 20
114.3388342439401
 30
0.0
 10
74.41456916363943
 20
114.3980114711915
 30
0.0
 10
73.19948094888258
 20
114.5275268950975
 30
0.0
 10
72.66001595632676
 20
114.5959390335604
 30
0.0
 10
71.9528573795015
 20
114.7018080282644
 30
0.0
 10
71.73400959848888
 20
114.737675485393
 30
0.0
 10
71.3307413461462
 20
114.8103604478373
 30
0.0
 10
71.1458236311831
 20
114.8473262106683
 30
0.0
 10
70.65479651947085
 20
114.9570639510637
 30
0.0
 10
70.4076879622522
 20
115.0293008902112
 30
0.0
 10
70.15597173812273
 20
115.1354439764067
 30
0.0
 10
70.09195480053327
 20
115.1705215910354
 30
0.0
 10
70.0057002314116
 20
115.2395811493983
 30
0.0
 10
69.98394743229467
 20
115.2731156339162
 30
0.0
 10
69.98073771878359
 20
115.3707927109927
 30
0.0
 10
70.06074725104894
 20
115.4320113266419
 30
0.0
 10
70.30660764997458
 20
115.5181700934712
 30
0.0
 10
70.41017993445506
 20
115.5459829107932
 30
0.0
 10
70.65536909571593
 20
115.5986059391736
 30
0.0
 10
70.9392886146647
 20
115.6485527002763
 30
0.0
 10
71.29936817201676
 20
115.6935593146129
 30
0.0
 10
71.697975820727
 20
115.7362661200247
 30
0.0
 10
71.91751404086544
 20
115.7565454399106
 30
0.0
 10
72.62959867362584
 20
115.8136184695969
 30
0.0
 10
73.16728879444854
 20
115.8461521026307
 30
0.0
 10
74.06531414827538
 20
115.8884394544526
 30
0.0
 10
74.38001496655302
 20
115.9014408270325
 30
0.0
 10
75.04099039184523
 20
115.9254566868023
 30
0.0
 10
75.38682264736566
 20
115.9364353047153
 30
0.0
 10
76.44885488562346
 20
115.9660433314695
 30
0.0
 10
77.19649302787093
 20
115.9816604149754
 30
0.0
 10
78.37739351465562
 20
116.00019450096
 30
0.0
 10
78.78330311893177
 20
116.0055702224783
 30
0.0
 10
79.60331416630144
 20
116.0146398129212
 30
0.0
 10
80.01665379190145
 20
116.0183381951046
 30
0.0
 10
81.26640896376402
 20
116.0271740856735
 30
0.0
 10
82.11246638754417
 20
116.0300964482362
 30
0.0
 10
83.40153932377791
 20
116.0301921352403
 30
0.0
 10
83.83100923915167
 20
116.0294917817947
 30
0.0
 10
84.67916905125539
 20
116.0266556243216
 30
0.0
 10
85.51980150625116
 20
116.0223845831557
 30
0.0
 10
86.34553398328423
 20
116.0151269753634
 30
0.0
 10
87.16367646709318
 20
116.0062258202923
 30
0.0
 10
87.57097499450892
 20
116.0009166394765
 30
0.0
 10
88.7576477580546
 20
115.9825409253642
 30
0.0
 10
89.50700779091783
 20
115.9670497228158
 30
0.0
 10
90.92360433446841
 20
115.927991630612
 30
0.0
 10
91.59523307660237
 20
115.9041173702877
 30
0.0
 10
92.7993443168196
 20
115.8480117866699
 30
0.0
 10
93.33882172099075
 20
115.8156837583962
 30
0.0
 10
94.05269372667624
 20
115.7591444710709
 30
0.0
 10
94.27502409398956
 20
115.7388743604262
 30
0.0
 10
94.67779882578772
 20
115.6962569078734
 30
0.0
 10
94.85958817457977
 20
115.6738193179673
 30
0.0
 10
95.18472446812721
 20
115.6265312836982
 30
0.0
 10
95.32807049383965
 20
115.6016810944154
 30
0.0
 10
95.57596049057923
 20
115.5493808144291
 30
0.0
 10
95.68075096304743
 20
115.5218440591785
 30
0.0
 10
95.93299765998292
 20
115.4355806760228
 30
0.0
 10
96.01716388104745
 20
115.3740212539468
 30
0.0
 10
96.01716388104745
 20
115.3081931875334
 30
0.0
  0
SPLINE
  5
98
330
1F
100
AcDbEntity
  8
0
  6
Continuous
 62
     7
370
    25
100
AcDbSpline
210
0.0
220
0.0
230
1.0
 70
     8
 71
     3
 72
    26
 73
    22
 74
     0
 42
0.00000001
 43
0.00000001
 40
0.0
 40
0.0
 40
0.0
 40
0.0
 40
0.125000000000002
 40
0.125000000000002
 40
0.1875000000000031
 40
0.1875000000000031
 40
0.2500000000000041
 40
0.2500000000000041
 40
0.3750000000000038
 40
0.3750000000000038
 40
0.5000000000000037
 40
0.5000000000000037
 40
0.6250000000000034
 40
0.6250000000000034
 40
0.6875000000000026
 40
0.6875000000000026
 40
0.7500000000000017
 40
0.7500000000000017
 40
0.8750000000000009
 40
0.8750000000000009
 40
1.0
 40
1.0
 40
1.0
 40
1.0
 10
37.0570686551267
 20
110.1037372612622
 30
0.0
 10
37.05706865512672
 20
110.0025876377614
 30
0.0
 10
37.10579104397389
 20
109.9018339828357
 30
0.0
 10
37.24890668302845
 20
109.7513681499326
 30
0.0
 10
37.3083694894295
 20
109.7013263628422
 30
0.0
 10
37.45132023187823
 20
109.6015156995546
 30
0.0
 10
37.53532831686586
 20
109.5515233959303
 30
0.0
 10
37.81903638291347
 20
109.404996598282
 30
0.0
 10
38.05071137423666
 20
109.3111484106927
 30
0.0
 10
38.59848773418067
 20
109.1316489225618
 30
0.0
 10
38.91853870765069
 20
109.0453090958912
 30
0.0
 10
39.62079188766926
 20
108.8887675083336
 30
0.0
 10
40.00431149294832
 20
108.8177903659953
 30
0.0
 10
40.62938992598679
 20
108.7230811811942
 30
0.0
 10
40.84736549943158
 20
108.6933502742942
 30
0.0
 10
41.29173601710301
 20
108.6392038351086
 30
0.0
 10
41.51863381559312
 20
108.6146744404492
 30
0.0
 10
42.21321684731673
 20
108.5486918601448
 30
0.0
 10
42.69464979728016
 20
108.5147716031702
 30
0.0
 10
43.69626147572043
 20
108.4685928202555
 30
0.0
 10
44.20264984752196
 20
108.4569820861087
 30
0.0
 10
44.71422387927225
 20
108.4569820861087
 30
0.0
  0
SPLINE
  5
99
330
1F
100
AcDbEntity
  8
0
  6
Continuous
 62
     7
370
    25
100
AcDbSpline
210
0.0
220
0.0
230
1.0
 70
     8
 71
     3
 72
    28
 73
    24
 74
     0
 42
0.00000001
 43
0.00000001
 40
0.0
 40
0.0
 40
0.0
 40
0.0
 40
0.124999999999996
 40
0.124999999999996
 40
0.1874999999999948
 40
0.1874999999999948
 40
0.2499999999999937
 40
0.2499999999999937
 40
0.3749999999999935
 40
0.3749999999999935
 40
0.4374999999999934
 40
0.4374999999999934
 40
0.4999999999999933
 40
0.4999999999999933
 40
0.6249999999999941
 40
0.6249999999999941
 40
0.7499999999999948
 40
0.7499999999999948
 40
0.8124999999999957
 40
0.8124999999999957
 40
0.8749999999999966
 40
0.8749999999999966
 40
1.0
 40
1.0
 40
1.0
 40
1.0
 10
121.2857761207278
 20
108.4569820861088
 30
0.0
 10
121.7971366114412
 20
108.4569820861087
 30
0.0
 10
122.2995867808406
 20
108.4685745534164
 30
0.0
 10
123.0404853832706
 20
108.5024764425701
 30
0.0
 10
123.2853059707153
 20
108.516548126385
 30
0.0
 10
123.7705622639048
 20
108.5503092321927
 30
0.0
 10
124.0109861446368
 20
108.5700430444017
 30
0.0
 10
124.7094199516877
 20
108.6362350432125
 30
0.0
 10
125.150465404568
 20
108.6899721027832
 30
0.0
 10
125.7756661408029
 20
108.7843354995669
 30
0.0
 10
125.9790150452362
 20
108.8183047219135
 30
0.0
 10
126.3667855755078
 20
108.8897436841776
 30
0.0
 10
126.5512665328736
 20
108.9271734831187
 30
0.0
 10
127.0773831396987
 20
109.0442979220476
 30
0.0
 10
127.3919525819558
 20
109.128782514692
 30
0.0
 10
127.9470182675048
 20
109.3101438801814
 30
0.0
 10
128.1793840359592
 20
109.4044140213402
 30
0.0
 10
128.4616469614547
 20
109.5498469525225
 30
0.0
 10
128.5447173580631
 20
109.5990401949384
 30
0.0
 10
128.6884468587207
 20
109.6988265242658
 30
0.0
 10
128.7492033223084
 20
109.7496038004698
 30
0.0
 10
128.8942409024679
 20
109.9014306860946
 30
0.0
 10
128.9429313448733
 20
110.0026278390412
 30
0.0
 10
128.9429313448733
 20
110.1037372612622
 30
0.0
  0
LINE
  5
9A
330
1F
100
AcDbEntity
  8
0
  6
Continuous
 62
     7
370
    25
100
AcDbLine
 10
44.7142238793
 20
108.4569820861
 30
0.0
 11
121.2857761207
 21
108.4569820861
 31
0.0
  0
LINE
  5
9B
330
1F
100
AcDbEntity
  8
0
  6
Continuous
 62
     7
370
    25
100
AcDbLine
 10
37.0570686551
 20
110.1037372613
 30
0.0
 11
37.0570686551
 21
116.1141373103
 31
0.0
  0
LINE
  5
9C
330
1F
100
AcDbEntity
  8
0
  6
Continuous
 62
     7
370
    25
100
AcDbLine
 10
128.9429313449
 20
110.1037372613
 30
0.0
 11
128.9429313449
 21
116.1141373103
 31
0.0
  0
SPLINE
  5
9D
330
1F
100
AcDbEntity
  8
0
  6
HIDDEN
 62
     7
370
    18
100
AcDbSpline
210
0.0
220
0.0
230
1.0
 70
     8
 71
     3
 72
    28
 73
    24
 74
     0
 42
0.00000001
 43
0.00000001
 40
0.0
 40
0.0
 40
0.0
 40
0.0
 40
0.1249999999999997
 40
0.1249999999999997
 40
0.1874999999999997
 40
0.1874999999999997
 40
0.2499999999999997
 40
0.2499999999999997
 40
0.3124999999999997
 40
0.3124999999999997
 40
0.3749999999999997
 40
0.3749999999999997
 40
0.4999999999999994
 40
0.4999999999999994
 40
0.6249999999999992
 40
0.6249999999999992
 40
0.749999999999999
 40
0.749999999999999
 40
0.874999999999999
 40
0.874999999999999
 40
0.9374999999999994
 40
0.9374999999999994
 40
1.0
 40
1.0
 40
1.0
 40
1.0
 10
37.06368610147648
 20
208.0
 30
0.0
 10
37.08836652783
 20
208.0
 30
0.0
 10
37.18032215369188
 20
207.9320661121011
 30
0.0
 10
37.40927195121542
 20
207.7408549657431
 30
0.0
 10
37.50133426422783
 20
207.6616700548098
 30
0.0
 10
37.70840754772443
 20
207.4804132222528
 30
0.0
 10
37.823989223573
 20
207.3778745000141
 30
0.0
 10
38.07694664169903
 20
207.1515065405856
 30
0.0
 10
38.21521981154523
 20
207.0268602968002
 30
0.0
 10
38.50731594462889
 20
206.762221479942
 30
0.0
 10
38.6608008772653
 20
206.622545260751
 30
0.0
 10
39.1407599259723
 20
206.1843772212603
 30
0.0
 10
39.48656171307179
 20
205.8669432238138
 30
0.0
 10
40.22157194573999
 20
205.1896350736757
 30
0.0
 10
40.60392923580607
 20
204.8360517984791
 30
0.0
 10
41.38581676961936
 20
204.1105255135015
 30
0.0
 10
41.78661351307113
 20
203.7374065864589
 30
0.0
 10
42.60543408096128
 20
202.9720450074203
 30
0.0
 10
43.02508067720412
 20
202.5782601980443
 30
0.0
 10
43.65610353166602
 20
201.9830612246786
 30
0.0
 10
43.86702540953139
 20
201.7836069343349
 30
0.0
 10
44.28992265494939
 20
201.3825348145271
 30
0.0
 10
44.50356453682371
 20
201.1793265165896
 30
0.0
 10
44.71422387927225
 20
200.9782933421736
 30
0.0
  0
SPLINE
  5
9E
330
1F
100
AcDbEntity
  8
0
  6
HIDDEN
 62
     7
370
    18
100
AcDbSpline
210
0.0
220
0.0
230
1.0
 70
     8
 71
     3
 72
    28
 73
    24
 74
     0
 42
0.00000001
 43
0.00000001
 40
0.0
 40
0.0
 40
0.0
 40
0.0
 40
0.1249999999999997
 40
0.1249999999999997
 40
0.1874999999999997
 40
0.1874999999999997
 40
0.2499999999999997
 40
0.2499999999999997
 40
0.3124999999999997
 40
0.3124999999999997
 40
0.3749999999999997
 40
0.3749999999999997
 40
0.4999999999999994
 40
0.4999999999999994
 40
0.6249999999999992
 40
0.6249999999999992
 40
0.749999999999999
 40
0.749999999999999
 40
0.874999999999999
 40
0.874999999999999
 40
0.9374999999999994
 40
0.9374999999999994
 40
1.0
 40
1.0
 40
1.0
 40
1.0
 10
128.9363138985235
 20
208.0
 30
0.0
 10
128.91163347217
 20
208.0
 30
0.0
 10
128.8196778463081
 20
207.9320661121011
 30
0.0
 10
128.5907280487846
 20
207.7408549657431
 30
0.0
 10
128.4986657357722
 20
207.6616700548098
 30
0.0
 10
128.2915924522756
 20
207.4804132222528
 30
0.0
 10
128.176010776427
 20
207.3778745000141
 30
0.0
 10
127.923053358301
 20
207.1515065405856
 30
0.0
 10
127.7847801884548
 20
207.0268602968002
 30
0.0
 10
127.4926840553711
 20
206.762221479942
 30
0.0
 10
127.3391991227347
 20
206.622545260751
 30
0.0
 10
126.8592400740277
 20
206.1843772212603
 30
0.0
 10
126.5134382869282
 20
205.8669432238138
 30
0.0
 10
125.77842805426
 20
205.1896350736757
 30
0.0
 10
125.3960707641939
 20
204.8360517984791
 30
0.0
 10
124.6141832303806
 20
204.1105255135015
 30
0.0
 10
124.2133864869289
 20
203.7374065864589
 30
0.0
 10
123.3945659190387
 20
202.9720450074203
 30
0.0
 10
122.9749193227959
 20
202.5782601980443
 30
0.0
 10
122.343896468334
 20
201.9830612246786
 30
0.0
 10
122.1329745904686
 20
201.7836069343349
 30
0.0
 10
121.7100773450506
 20
201.3825348145271
 30
0.0
 10
121.4964354631763
 20
201.1793265165896
 30
0.0
 10
121.2857761207278
 20
200.9782933421736
 30
0.0
  0
CIRCLE
  5
9F
330
1F
100
AcDbEntity
  8
0
  6
HIDDEN
 62
     7
370
    18
100
AcDbCircle
 10
83.0
 20
162.0570686551
 30
0.0
 40
6.508581940523726
  0
SPLINE
  5
A0
330
1F
100
AcDbEntity
  8
0
  6
HIDDEN
 62
     7
370
    18
100
AcDbSpline
210
0.0
220
0.0
230
1.0
 70
    11
 71
     3
 72
   108
 73
   104
 74
     0
 42
0.00000001
 43
0.00000001
 40
0.0
 40
0.0
 40
0.0
 40
0.0
 40
0.03125
 40
0.03125
 40
0.0625
 40
0.0625
 40
0.078125
 40
0.078125
 40
0.09375
 40
0.09375
 40
0.1249999999999999
 40
0.1249999999999999
 40
0.1406249999999999
 40
0.1406249999999999
 40
0.1562499999999999
 40
0.1562499999999999
 40
0.1875
 40
0.1875
 40
0.203125
 40
0.203125
 40
0.2187500000000001
 40
0.2187500000000001
 40
0.2265625000000001
 40
0.2265625000000001
 40
0.2343750000000001
 40
0.2343750000000001
 40
0.2500000000000002
 40
0.2500000000000002
 40
0.2578125000000002
 40
0.2578125000000002
 40
0.2656250000000002
 40
0.2656250000000002
 40
0.2812500000000002
 40
0.2812500000000002
 40
0.2890625000000002
 40
0.2890625000000002
 40
0.2968750000000002
 40
0.2968750000000002
 40
0.3125000000000002
 40
0.3125000000000002
 40
0.3281250000000002
 40
0.3281250000000002
 40
0.3437500000000002
 40
0.3437500000000002
 40
0.3750000000000002
 40
0.3750000000000002
 40
0.3906250000000002
 40
0.3906250000000002
 40
0.4062500000000003
 40
0.4062500000000003
 40
0.4375000000000003
 40
0.4375000000000003
 40
0.4531250000000003
 40
0.4531250000000003
 40
0.4687500000000003
 40
0.4687500000000003
 40
0.5000000000000003
 40
0.5000000000000003
 40
0.5312500000000003
 40
0.5312500000000003
 40
0.5468750000000003
 40
0.5468750000000003
 40
0.5625000000000003
 40
0.5625000000000003
 40
0.5937500000000003
 40
0.5937500000000003
 40
0.6093750000000003
 40
0.6093750000000003
 40
0.6250000000000003
 40
0.6250000000000003
 40
0.6406250000000003
 40
0.6406250000000003
 40
0.6562500000000003
 40
0.6562500000000003
 40
0.6875000000000003
 40
0.6875000000000003
 40
0.7031250000000003
 40
0.7031250000000003
 40
0.7187500000000003
 40
0.7187500000000003
 40
0.7500000000000002
 40
0.7500000000000002
 40
0.7812500000000002
 40
0.7812500000000002
 40
0.7968750000000002
 40
0.7968750000000002
 40
0.8125000000000002
 40
0.8125000000000002
 40
0.8281250000000002
 40
0.8281250000000002
 40
0.8437500000000002
 40
0.8437500000000002
 40
0.8750000000000002
 40
0.8750000000000002
 40
0.9062500000000002
 40
0.9062500000000002
 40
0.9218750000000002
 40
0.9218750000000002
 40
0.9375000000000002
 40
0.9375000000000002
 40
0.9687500000000001
 40
0.9687500000000001
 40
1.0
 40
1.0
 40
1.0
 40
1.0
 10
96.01716388104745
 20
142.2197329881714
 30
0.0
 10
96.01716388104745
 20
142.845128525813
 30
0.0
 10
95.9488962256354
 20
143.4773893099005
 30
0.0
 10
95.68917993197786
 20
144.7553407078681
 30
0.0
 10
95.49767589021208
 20
145.4010346591985
 30
0.0
 10
95.11865135354269
 20
146.3786996642005
 30
0.0
 10
94.9764950116315
 20
146.7068125657854
 30
0.0
 10
94.66481290627462
 20
147.3571563808195
 30
0.0
 10
94.49498467517078
 20
147.6803395906824
 30
0.0
 10
93.94346541116845
 20
148.6431882186988
 30
0.0
 10
93.52024589401555
 20
149.2763364533537
 30
0.0
 10
92.79382300011032
 20
150.2072646998788
 30
0.0
 10
92.53630440309624
 20
150.5144023080806
 30
0.0
 10
91.98728011743142
 20
151.1206984549184
 30
0.0
 10
91.69449508593915
 20
151.4209777853993
 30
0.0
 10
90.77285970380812
 20
152.2924411202268
 30
0.0
 10
90.09958394437834
 20
152.8381906210502
 30
0.0
 10
88.97550247520434
 20
153.5802871331032
 30
0.0
 10
88.57905418891932
 20
153.8158509007162
 30
0.0
 10
87.75821356272135
 20
154.2446297150057
 30
0.0
 10
87.33287435405985
 20
154.4388023809804
 30
0.0
 10
86.66920388929934
 20
154.6943366944048
 30
0.0
 10
86.4436890227205
 20
154.7735405912472
 30
0.0
 10
85.98331068683106
 20
154.9187952331023
 30
0.0
 10
85.74732815170314
 20
154.9850996635282
 30
0.0
 10
85.03356914460196
 20
155.1598384277419
 30
0.0
 10
84.55080742220653
 20
155.2443205940145
 30
0.0
 10
83.81568686256084
 20
155.3198015466459
 30
0.0
 10
83.56881348140946
 20
155.3364083164988
 30
0.0
 10
83.07125390823381
 20
155.3517993032026
 30
0.0
 10
82.81964569366065
 20
155.3504674214025
 30
0.0
 10
82.07408642378402
 20
155.3195581233147
 30
0.0
 10
81.58507484392588
 20
155.2635308410161
 30
0.0
 10
80.86274326991929
 20
155.1304370195786
 30
0.0
 10
80.62383482227192
 20
155.0778810116617
 30
0.0
 10
80.14966139447938
 20
154.9568925534948
 30
0.0
 10
79.91484778048506
 20
154.8884908467279
 30
0.0
 10
79.22787616426197
 20
154.6647168156081
 30
0.0
 10
78.78875107898804
 20
154.489836075189
 30
0.0
 10
77.94258456844938
 20
154.0973847603417
 30
0.0
 10
77.53557280191485
 20
153.8797733901765
 30
0.0
 10
76.75012739296318
 20
153.4076907302765
 30
0.0
 10
76.37893765986584
 20
153.1576371521658
 30
0.0
 10
75.31980091024116
 20
152.3745565034205
 30
0.0
 10
74.68527542602625
 20
151.8089325901157
 30
0.0
 10
73.81933804424918
 20
150.9143198815879
 30
0.0
 10
73.54477566816703
 20
150.6075446970591
 30
0.0
 10
73.03085616800823
 20
149.9899124209545
 30
0.0
 10
72.79033731080438
 20
149.6779379826835
 30
0.0
 10
72.11405781785064
 20
148.7345292045397
 30
0.0
 10
71.7231536217427
 20
148.0957421973254
 30
0.0
 10
71.22051567845222
 20
147.1273779755009
 30
0.0
 10
71.06703897696661
 20
146.8028546045092
 30
0.0
 10
70.78845416420045
 20
146.1507167639086
 30
0.0
 10
70.66347620576327
 20
145.8230750933314
 30
0.0
 10
70.33647143811368
 20
144.8496862618028
 30
0.0
 10
70.17989537006147
 20
144.208857214753
 30
0.0
 10
69.99188053098106
 20
142.9442234045534
 30
0.0
 10
69.96036753836296
 20
142.3204174406331
 30
0.0
 10
70.01785798858585
 20
141.3976097227086
 30
0.0
 10
70.05477752545093
 20
141.0923317184925
 30
0.0
 10
70.16437789863274
 20
140.4959753812908
 30
0.0
 10
70.23709229384423
 20
140.2036319040456
 30
0.0
 10
70.5110608091464
 20
139.343870527923
 30
0.0
 10
70.76754935775686
 20
138.7936590253096
 30
0.0
 10
71.28018844094493
 20
138.0028572238595
 30
0.0
 10
71.47289224321841
 20
137.7450259531564
 30
0.0
 10
71.89615548992573
 20
137.2511353827623
 30
0.0
 10
72.12749802873735
 20
137.0137195264934
 30
0.0
 10
72.63134125443213
 20
136.5575734994092
 30
0.0
 10
72.90383054306436
 20
136.3388408925197
 30
0.0
 10
73.49290278230158
 20
135.9200687133528
 30
0.0
 10
73.8118134836536
 20
135.7188053247291
 30
0.0
 10
74.82125441858484
 20
135.1546200056102
 30
0.0
 10
75.56176882121481
 20
134.8305508742451
 30
0.0
 10
76.77972934669738
 20
134.4185139072253
 30
0.0
 10
77.20370774180668
 20
134.2936108468208
 30
0.0
 10
78.0906709429751
 20
134.0694692701616
 30
0.0
 10
78.54501694018943
 20
133.9724887659848
 30
0.0
 10
79.93152805534828
 20
133.7263264589262
 30
0.0
 10
80.89183038224897
 20
133.6201469851863
 30
0.0
 10
82.88154246339434
 20
133.527783047173
 30
0.0
 10
83.8671102521826
 20
133.5434328654094
 30
0.0
 10
85.33200034584398
 20
133.6570807964114
 30
0.0
 10
85.82144312364933
 20
133.7107827181063
 30
0.0
 10
86.77341394091384
 20
133.847224172516
 30
0.0
 10
87.23681609536531
 20
133.9297670353638
 30
0.0
 10
88.13947698025174
 20
134.1232593741646
 30
0.0
 10
88.57873080451633
 20
134.2342128121086
 30
0.0
 10
89.4331541289619
 20
134.4856383665125
 30
0.0
 10
89.84626347754147
 20
134.6257617441214
 30
0.0
 10
91.02052921078199
 20
135.0805970046529
 30
0.0
 10
91.72879586093198
 20
135.4331098967905
 30
0.0
 10
92.9974476654692
 20
136.2371639873785
 30
0.0
 10
93.54015070559873
 20
136.677148338931
 30
0.0
 10
94.23427352851849
 20
137.3941316839637
 30
0.0
 10
94.44597952009107
 20
137.6433725078038
 30
0.0
 10
94.82797621184741
 20
138.1584883855813
 30
0.0
 10
94.9969758631393
 20
138.4223950049854
 30
0.0
 10
95.44327455504211
 20
139.2330321281724
 30
0.0
 10
95.6603016679706
 20
139.7986163402578
 30
0.0
 10
95.9481349786121
 20
140.9812228580013
 30
0.0
 10
96.01716388104745
 20
141.5943374505298
 30
0.0
 10
96.01716388104745
 20
142.2197329881714
 30
0.0
  0
LINE
  5
A1
330
1F
100
AcDbEntity
  8
0
  6
HIDDEN
 62
     7
370
    18
100
AcDbLine
 10
128.9429313449
 20
116.2120199084
 30
0.0
 11
37.0570686551
 21
116.2120199084
 31
0.0
  0
LINE
  5
A2
330
1F
100
AcDbEntity
  8
0
  6
HIDDEN
 62
     7
370
    18
100
AcDbLine
 10
96.017163881
 20
115.3081931875
 30
0.0
 11
96.017163881
 21
142.2197329882
 31
0.0
  0
LINE
  5
A3
330
1F
100
AcDbEntity
  8
0
  6
HIDDEN
 62
     7
370
    18
100
AcDbLine
 10
69.982836119
 20
142.2256975618
 30
0.0
 11
69.982836119
 21
115.3064926012
 31
0.0
  0
INSERT
  5
AF
330
1F
100
AcDbEntity
  8
10
100
AcDbBlockReference
  2
SW_CENTERMARKSYMBOL_1
 10
83.0
 20
162.0570686551
 30
0.0
  0
LINE
  5
B0
330
1F
100
AcDbEntity
  8
0
  6
Continuous
 62
     7
370
    25
100
AcDbLine
 10
273.0
 20
95.2857761207
 30
0.0
 11
273.0
 21
94.9675029092
 31
0.0
  0
SPLINE
  5
B1
330
1F
100
AcDbEntity
  8
0
  6
Continuous
 62
     7
370
    25
100
AcDbSpline
210
0.0
220
0.0
230
1.0
 70
     8
 71
     3
 72
    28
 73
    24
 74
     0
 42
0.00000001
 43
0.00000001
 40
0.0
 40
0.0
 40
0.0
 40
0.0
 40
0.1249999999999997
 40
0.1249999999999997
 40
0.1874999999999997
 40
0.1874999999999997
 40
0.2499999999999997
 40
0.2499999999999997
 40
0.3124999999999997
 40
0.3124999999999997
 40
0.3749999999999997
 40
0.3749999999999997
 40
0.4999999999999994
 40
0.4999999999999994
 40
0.6249999999999992
 40
0.6249999999999992
 40
0.749999999999999
 40
0.749999999999999
 40
0.874999999999999
 40
0.874999999999999
 40
0.9374999999999994
 40
0.9374999999999994
 40
1.0
 40
1.0
 40
1.0
 40
1.0
 10
273.0
 20
94.96750290919526
 30
0.0
 10
273.0
 20
94.37424363587924
 30
0.0
 10
272.9320661121012
 20
93.80206925021835
 30
0.0
 10
272.7408549657432
 20
92.97198446746084
 30
0.0
 10
272.6616700548099
 20
92.69985144401736
 30
0.0
 10
272.4804132222528
 20
92.18136520542355
 30
0.0
 10
272.3778745000141
 20
91.93263078055524
 30
0.0
 10
272.1515065405856
 20
91.45406911438805
 30
0.0
 10
272.0268602968002
 20
91.22299788546908
 30
0.0
 10
271.762221479942
 20
90.78551963711354
 30
0.0
 10
271.6225452607511
 20
90.57923236738681
 30
0.0
 10
271.1843772212603
 20
89.99290278237616
 30
0.0
 10
270.8669432238138
 20
89.64507892486898
 30
0.0
 10
270.1896350736757
 20
89.02170737448128
 30
0.0
 10
269.8360517984791
 20
88.75230217355916
 30
0.0
 10
269.1105255135015
 20
88.28751702660703
 30
0.0
 10
268.7374065864589
 20
88.09129569759895
 30
0.0
 10
267.9720450074203
 20
87.76385233152581
 30
0.0
 10
267.5782601980443
 20
87.63251639816073
 30
0.0
 10
266.9830612246786
 20
87.48529154471838
 30
0.0
 10
266.7836069343349
 20
87.4443700071622
 30
0.0
 10
266.3825348145271
 20
87.37853928545543
 30
0.0
 10
266.1793265165896
 20
87.35350139735571
 30
0.0
 10
265.9782933421736
 20
87.3367603996997
 30
0.0
  0
ARC
  5
B2
330
1F
100
AcDbEntity
  8
0
  6
Continuous
 62
     7
370
    25
100
AcDbCircle
 10
273.0
 20
3.0170556698
 30
0.0
 40
84.61156522680832
100
AcDbArc
 50
94.7603111652
 51
170.2049432596
  0
ARC
  5
B3
330
1F
100
AcDbEntity
  8
0
  6
Continuous
 62
     7
370
    25
100
AcDbCircle
 10
-127.8005342444
 20
79.8514541701
 30
0.0
 40
309.0125541527891
100
AcDbArc
 50
348.5889099429
 51
1.4421611004
  0
LINE
  5
B4
330
1F
100
AcDbEntity
  8
0
  6
Continuous
 62
     7
370
    25
100
AcDbLine
 10
181.1141373103
 20
102.9429313449
 30
0.0
 11
181.1141373103
 21
87.6286208966
 31
0.0
  0
LINE
  5
B5
330
1F
100
AcDbEntity
  8
0
  6
Continuous
 62
     7
370
    25
100
AcDbLine
 10
181.1141373103
 20
102.9429313449
 30
0.0
 11
273.0
 21
102.9429313449
 31
0.0
  0
LINE
  5
B6
330
1F
100
AcDbEntity
  8
0
  6
Continuous
 62
     7
370
    25
100
AcDbLine
 10
273.0
 20
102.9429313449
 30
0.0
 11
273.0
 21
95.2857761207
 31
0.0
  0
ARC
  5
B7
330
1F
100
AcDbEntity
  8
0
  6
Continuous
 62
     7
370
    25
100
AcDbCircle
 10
182.0763194549
 20
18.7142238793
 30
0.0
 40
7.657155224145555
100
AcDbArc
 50
270.0
 51
350.2049432596
  0
LINE
  5
B8
330
1F
100
AcDbEntity
  8
0
  6
Continuous
 62
     7
370
    25
100
AcDbLine
 10
182.0763194549
 20
11.0570686551
 30
0.0
 11
173.4569820861
 21
11.0570686551
 31
0.0
  0
SPLINE
  5
B9
330
1F
100
AcDbEntity
  8
0
  6
Continuous
 62
     7
370
    25
100
AcDbSpline
210
0.0
220
0.0
230
1.0
 70
     8
 71
     3
 72
    28
 73
    24
 74
     0
 42
0.00000001
 43
0.00000001
 40
0.0
 40
0.0
 40
0.0
 40
0.0
 40
0.124999999999996
 40
0.124999999999996
 40
0.1874999999999948
 40
0.1874999999999948
 40
0.2499999999999937
 40
0.2499999999999937
 40
0.3749999999999935
 40
0.3749999999999935
 40
0.4374999999999934
 40
0.4374999999999934
 40
0.4999999999999933
 40
0.4999999999999933
 40
0.6249999999999941
 40
0.6249999999999941
 40
0.7499999999999948
 40
0.7499999999999948
 40
0.8124999999999957
 40
0.8124999999999957
 40
0.8749999999999966
 40
0.8749999999999966
 40
1.0
 40
1.0
 40
1.0
 40
1.0
 10
173.4569820861088
 20
11.05706865512671
 30
0.0
 10
173.4569820861088
 20
11.05706865512669
 30
0.0
 10
173.4685745534164
 20
11.10777766271678
 30
0.0
 10
173.5024764425701
 20
11.25657853882342
 30
0.0
 10
173.516548126385
 20
11.31839425416988
 30
0.0
 10
173.5503092321927
 20
11.46700004616154
 30
0.0
 10
173.5700430444017
 20
11.55398889556248
 30
0.0
 10
173.6362350432125
 20
11.84650785979573
 30
0.0
 10
173.6899721027832
 20
12.08482386346079
 30
0.0
 10
173.7843354995669
 20
12.5064787846189
 30
0.0
 10
173.8183047219135
 20
12.65873344138532
 30
0.0
 10
173.8897436841776
 20
12.98022013264841
 30
0.0
 10
173.9271734831187
 20
13.14926604083597
 30
0.0
 10
174.0442979220476
 20
13.68055823148439
 30
0.0
 10
174.128782514692
 20
14.06672890430468
 30
0.0
 10
174.3101438801814
 20
14.90470244213537
 30
0.0
 10
174.4044140213402
 20
15.34450355934754
 30
0.0
 10
174.5498469525225
 20
16.03092207867963
 30
0.0
 10
174.5990401949384
 20
16.26438602757428
 30
0.0
 10
174.6988265242658
 20
16.74080062726511
 30
0.0
 10
174.7496038004698
 20
16.98465085305287
 30
0.0
 10
174.9014306860945
 20
17.71830266234835
 30
0.0
 10
175.0026278390412
 20
18.21327747174713
 30
0.0
 10
175.1037372612622
 20
18.71422387927212
 30
0.0
  0
LINE
  5
BA
330
1F
100
AcDbEntity
  8
0
  6
HIDDEN
 62
     7
370
    18
100
AcDbLine
 10
233.5656505957
 20
87.6286208966
 30
0.0
 11
220.5484867146
 21
87.6286208966
 31
0.0
  0
LINE
  5
BB
330
1F
100
AcDbEntity
  8
0
  6
HIDDEN
 62
     7
370
    18
100
AcDbLine
 10
230.502788506
 20
90.6914829862
 30
0.0
 11
223.6113488043
 21
90.6914829862
 31
0.0
  0
LINE
  5
BC
330
1F
100
AcDbEntity
  8
0
  6
HIDDEN
 62
     7
370
    18
100
AcDbLine
 10
179.0375178044
 20
43.2171205965
 30
0.0
 11
198.5671335636
 21
43.2171205965
 31
0.0
  0
LINE
  5
BD
330
1F
100
AcDbEntity
  8
0
  6
HIDDEN
 62
     7
370
    18
100
AcDbLine
 10
220.3463634439
 20
69.2514483586
 30
0.0
 11
181.0297368901
 21
69.2514483586
 31
0.0
  0
LINE
  5
BE
330
1F
100
AcDbEntity
  8
0
  6
HIDDEN
 62
     7
370
    18
100
AcDbLine
 10
220.5484867146
 20
87.6286208966
 30
0.0
 11
220.5484867146
 21
69.4094929213
 31
0.0
  0
LINE
  5
BF
330
1F
100
AcDbEntity
  8
0
  6
HIDDEN
 62
     7
370
    18
100
AcDbLine
 10
233.5656505957
 20
77.867542037
 30
0.0
 11
233.5656505957
 21
87.6286208966
 31
0.0
  0
LINE
  5
C0
330
1F
100
AcDbEntity
  8
0
  6
HIDDEN
 62
     7
370
    18
100
AcDbLine
 10
233.5656505957
 20
87.6286208966
 30
0.0
 11
230.502788506
 21
90.6914829862
 31
0.0
  0
LINE
  5
C1
330
1F
100
AcDbEntity
  8
0
  6
HIDDEN
 62
     7
370
    18
100
AcDbLine
 10
223.6113488043
 20
90.6914829862
 30
0.0
 11
220.5484867146
 21
87.6286208966
 31
0.0
  0
LINE
  5
C2
330
1F
100
AcDbEntity
  8
0
  6
HIDDEN
 62
     7
370
    18
100
AcDbLine
 10
230.502788506
 20
90.6914829862
 30
0.0
 11
230.502788506
 21
102.9429313449
 31
0.0
  0
LINE
  5
C3
330
1F
100
AcDbEntity
  8
0
  6
HIDDEN
 62
     7
370
    18
100
AcDbLine
 10
223.6113488043
 20
102.9429313449
 30
0.0
 11
223.6113488043
 21
90.6914829862
 31
0.0
  0
ENDSEC
  0
SECTION
  2
OBJECTS
  0
DICTIONARY
  5
C
330
0
100
AcDbDictionary
281
     1
  3
ACAD_GROUP
350
D
  3
ACAD_LAYOUT
350
1A
  3
ACAD_MLINESTYLE
350
17
  3
ACAD_PLOTSETTINGS
350
19
  3
ACAD_PLOTSTYLENAME
350
E
  3
ACAD_SCALELIST
350
47
  3
DWGPROPS
350
C4
  0
DICTIONARY
  5
D
102
{ACAD_REACTORS
330
C
102
}
330
C
100
AcDbDictionary
281
     1
  0
DICTIONARY
  5
1A
102
{ACAD_REACTORS
330
C
102
}
330
C
100
AcDbDictionary
281
     1
  3
Layout1
350
1E
  3
Layout2
350
26
  3
Model
350
22
  0
DICTIONARY
  5
17
102
{ACAD_REACTORS
330
C
102
}
330
C
100
AcDbDictionary
281
     1
  3
Standard
350
18
  0
DICTIONARY
  5
19
102
{ACAD_REACTORS
330
C
102
}
330
C
100
AcDbDictionary
281
     1
  0
ACDBDICTIONARYWDFLT
  5
E
102
{ACAD_REACTORS
330
C
102
}
330
C
100
AcDbDictionary
281
     1
  3
Normal
350
F
100
AcDbDictionaryWithDefault
340
F
  0
DICTIONARY
  5
47
102
{ACAD_REACTORS
330
C
102
}
330
C
100
AcDbDictionary
281
     1
  3
A0
350
48
  3
A1
350
49
  3
A2
350
4A
  3
A3
350
4B
  3
A4
350
4C
  3
A5
350
4D
  3
A6
350
4E
  3
A7
350
4F
  3
A8
350
50
  3
A9
350
51
  3
B0
350
52
  3
B1
350
53
  3
B2
350
54
  3
B3
350
55
  3
B4
350
56
  3
B5
350
57
  3
B6
350
58
  0
XRECORD
  5
C4
102
{ACAD_REACTORS
330
C
102
}
330
C
100
AcDbXrecord
280
     1
  1
DWGPROPS COOKIE
  2

  3

  4

  6

  7

  8

  9

300
=
301
=
302
=
303
=
304
=
305
=
306
=
307
=
308
=
309
=
 40
0.0
 41
2461215.355629132
 42
2461215.355629491
  1

 90
        0
  0
LAYOUT
  5
1E
102
{ACAD_REACTORS
330
1A
102
}
330
1A
100
AcDbPlotSettings
  1

  2
none_device
  4

  6

 40
0.0
 41
0.0
 42
0.0
 43
0.0
 44
0.0
 45
0.0
 46
0.0
 47
0.0
 48
0.0
 49
0.0
140
0.0
141
0.0
142
1.0
143
1.0
 70
   688
 72
     1
 73
     0
 74
     5
  7

 75
    16
147
1.0
148
0.0
149
0.0
100
AcDbLayout
  1
Layout1
 70
     1
 71
     1
 10
0.0
 20
0.0
 11
420.0
 21
297.0
 12
0.0
 22
0.0
 32
0.0
 14
1.0000000000E+20
 24
1.0000000000E+20
 34
1.0000000000E+20
 15
-1.0000000000E+20
 25
-1.0000000000E+20
 35
-1.0000000000E+20
146
0.0
 13
0.0
 23
0.0
 33
0.0
 16
1.0
 26
0.0
 36
0.0
 17
0.0
 27
1.0
 37
0.0
 76
     0
330
1B
  0
LAYOUT
  5
26
102
{ACAD_REACTORS
330
1A
102
}
330
1A
100
AcDbPlotSettings
  1

  2
none_device
  4

  6

 40
0.0
 41
0.0
 42
0.0
 43
0.0
 44
0.0
 45
0.0
 46
0.0
 47
0.0
 48
0.0
 49
0.0
140
0.0
141
0.0
142
1.0
143
1.0
 70
   688
 72
     1
 73
     0
 74
     5
  7

 75
    16
147
1.0
148
0.0
149
0.0
100
AcDbLayout
  1
Layout2
 70
     1
 71
     2
 10
0.0
 20
0.0
 11
0.0
 21
0.0
 12
0.0
 22
0.0
 32
0.0
 14
0.0
 24
0.0
 34
0.0
 15
0.0
 25
0.0
 35
0.0
146
0.0
 13
0.0
 23
0.0
 33
0.0
 16
1.0
 26
0.0
 36
0.0
 17
0.0
 27
1.0
 37
0.0
 76
     0
330
23
  0
LAYOUT
  5
22
102
{ACAD_REACTORS
330
1A
102
}
330
1A
100
AcDbPlotSettings
  1

  2
none_device
  4
Letter_(8.50_x_11.00_Inches)
  6

 40
6.35
 41
6.35
 42
6.35000508
 43
6.35000508
 44
215.9
 45
279.4
 46
0.0
 47
0.0
 48
0.0
 49
0.0
140
0.0
141
0.0
142
1.0
143
1.0
 70
  1712
 72
     1
 73
     0
 74
     0
  7

 75
     0
147
1.0
148
0.0
149
0.0
100
AcDbLayout
  1
Model
 70
     1
 71
     0
 10
0.0
 20
0.0
 11
297.0
 21
210.0
 12
0.0
 22
0.0
 32
0.0
 14
0.0
 24
0.0
 34
0.0
 15
297.0
 25
210.0
 35
0.0
146
0.0
 13
0.0
 23
0.0
 33
0.0
 16
1.0
 26
0.0
 36
0.0
 17
0.0
 27
1.0
 37
0.0
 76
     0
330
1F
331
29
  0
MLINESTYLE
  5
18
102
{ACAD_REACTORS
330
17
102
}
330
17
100
AcDbMlineStyle
  2
Standard
 70
     0
  3

 62
   256
 51
90.0
 52
90.0
 71
     2
 49
0.5
 62
   256
  6
BYLAYER
 49
-0.5
 62
   256
  6
BYLAYER
  0
ACDBPLACEHOLDER
  5
F
102
{ACAD_REACTORS
330
E
102
}
330
E
  0
SCALE
  5
48
102
{ACAD_REACTORS
330
47
102
}
330
47
100
AcDbScale
 70
     0
300
1:1
140
1.0
141
1.0
290
     1
  0
SCALE
  5
49
102
{ACAD_REACTORS
330
47
102
}
330
47
100
AcDbScale
 70
     0
300
1:2
140
1.0
141
2.0
290
     0
  0
SCALE
  5
4A
102
{ACAD_REACTORS
330
47
102
}
330
47
100
AcDbScale
 70
     0
300
1:4
140
1.0
141
4.0
290
     0
  0
SCALE
  5
4B
102
{ACAD_REACTORS
330
47
102
}
330
47
100
AcDbScale
 70
     0
300
1:5
140
1.0
141
5.0
290
     0
  0
SCALE
  5
4C
102
{ACAD_REACTORS
330
47
102
}
330
47
100
AcDbScale
 70
     0
300
1:8
140
1.0
141
8.0
290
     0
  0
SCALE
  5
4D
102
{ACAD_REACTORS
330
47
102
}
330
47
100
AcDbScale
 70
     0
300
1:10
140
1.0
141
10.0
290
     0
  0
SCALE
  5
4E
102
{ACAD_REACTORS
330
47
102
}
330
47
100
AcDbScale
 70
     0
300
1:16
140
1.0
141
16.0
290
     0
  0
SCALE
  5
4F
102
{ACAD_REACTORS
330
47
102
}
330
47
100
AcDbScale
 70
     0
300
1:20
140
1.0
141
20.0
290
     0
  0
SCALE
  5
50
102
{ACAD_REACTORS
330
47
102
}
330
47
100
AcDbScale
 70
     0
300
1:30
140
1.0
141
30.0
290
     0
  0
SCALE
  5
51
102
{ACAD_REACTORS
330
47
102
}
330
47
100
AcDbScale
 70
     0
300
1:40
140
1.0
141
40.0
290
     0
  0
SCALE
  5
52
102
{ACAD_REACTORS
330
47
102
}
330
47
100
AcDbScale
 70
     0
300
1:50
140
1.0
141
50.0
290
     0
  0
SCALE
  5
53
102
{ACAD_REACTORS
330
47
102
}
330
47
100
AcDbScale
 70
     0
300
1:100
140
1.0
141
100.0
290
     0
  0
SCALE
  5
54
102
{ACAD_REACTORS
330
47
102
}
330
47
100
AcDbScale
 70
     0
300
2:1
140
2.0
141
1.0
290
     0
  0
SCALE
  5
55
102
{ACAD_REACTORS
330
47
102
}
330
47
100
AcDbScale
 70
     0
300
4:1
140
4.0
141
1.0
290
     0
  0
SCALE
  5
56
102
{ACAD_REACTORS
330
47
102
}
330
47
100
AcDbScale
 70
     0
300
8:1
140
8.0
141
1.0
290
     0
  0
SCALE
  5
57
102
{ACAD_REACTORS
330
47
102
}
330
47
100
AcDbScale
 70
     0
300
10:1
140
10.0
141
1.0
290
     0
  0
SCALE
  5
58
102
{ACAD_REACTORS
330
47
102
}
330
47
100
AcDbScale
 70
     0
300
100:1
140
100.0
141
1.0
290
     0
  0
ENDSEC
  0
EOF
