  0
SECTION
  2
HEADER
  9
$ACADVER
  1
AC1015
  9
$ACADMAINTVER
 70
     6
  9
$DWGCODEPAGE
  3
ANSI_936
  9
$INSBASE
 10
0.0
 20
0.0
 30
0.0
  9
$EXTMIN
 10
0.0
 20
0.0
 30
0.0
  9
$EXTMAX
 10
297.0
 20
210.0
 30
0.0
  9
$LIMMIN
 10
0.0
 20
0.0
  9
$LIMMAX
 10
297.0
 20
210.0
  9
$ORTHOMODE
 70
     0
  9
$REGENMODE
 70
     1
  9
$FILLMODE
 70
     1
  9
$QTEXTMODE
 70
     0
  9
$MIRRTEXT
 70
     1
  9
$LTSCALE
 40
1.0
  9
$ATTMODE
 70
     1
  9
$TEXTSIZE
 40
3.5
  9
$TRACEWID
 40
1.0
  9
$TEXTSTYLE
  7
Standard
  9
$CLAYER
  8
0
  9
$CELTYPE
  6
ByLayer
  9
$CECOLOR
 62
   256
  9
$CELTSCALE
 40
1.0
  9
$DISPSILH
 70
     0
  9
$DIMSCALE
 40
1.0
  9
$DIMASZ
 40
4.08
  9
$DIMEXO
 40
0.0
  9
$DIMDLI
 40
3.75
  9
$DIMRND
 40
0.0
  9
$DIMDLE
 40
0.0
  9
$DIMEXE
 40
2.0
  9
$DIMTP
 40
0.0
  9
$DIMTM
 40
0.0
  9
$DIMTXT
 40
3.5
  9
$DIMCEN
 40
2.5
  9
$DIMTSZ
 40
0.0
  9
$DIMTOL
 70
     0
  9
$DIMLIM
 70
     0
  9
$DIMTIH
 70
     1
  9
$DIMTOH
 70
     1
  9
$DIMSE1
 70
     0
  9
$DIMSE2
 70
     0
  9
$DIMTAD
 70
     1
  9
$DIMZIN
 70
     0
  9
$DIMBLK
  1

  9
$DIMASO
 70
     1
  9
$DIMSHO
 70
     1
  9
$DIMPOST
  1

  9
$DIMAPOST
  1

  9
$DIMALT
 70
     0
  9
$DIMALTD
 70
     3
  9
$DIMALTF
 40
0.0393700787
  9
$DIMLFAC
 40
2.0
  9
$DIMTOFL
 70
     1
  9
$DIMTVP
 40
0.0
  9
$DIMTIX
 70
     0
  9
$DIMSOXD
 70
     0
  9
$DIMSAH
 70
     0
  9
$DIMBLK1
  1

  9
$DIMBLK2
  1

  9
$DIMSTYLE
  2
ISO-25
  9
$DIMCLRD
 70
     0
  9
$DIMCLRE
 70
     0
  9
$DIMCLRT
 70
     0
  9
$DIMTFAC
 40
1.0
  9
$DIMGAP
 40
1.524
  9
$DIMJUST
 70
     0
  9
$DIMSD1
 70
     0
  9
$DIMSD2
 70
     0
  9
$DIMTOLJ
 70
     0
  9
$DIMTZIN
 70
     0
  9
$DIMALTZ
 70
     0
  9
$DIMALTTZ
 70
     0
  9
$DIMUPT
 70
     0
  9
$DIMDEC
 70
     2
  9
$DIMTDEC
 70
     2
  9
$DIMALTU
 70
     2
  9
$DIMALTTD
 70
     3
  9
$DIMTXSTY
  7
Standard
  9
$DIMAUNIT
 70
     0
  9
$DIMADEC
 70
     2
  9
$DIMALTRND
 40
0.0
  9
$DIMAZIN
 70
     0
  9
$DIMDSEP
 70
    44
  9
$DIMATFIT
 70
     3
  9
$DIMFRAC
 70
     0
  9
$DIMLDRBLK
  1

  9
$DIMLUNIT
 70
     2
  9
$DIMLWD
 70
    -2
  9
$DIMLWE
 70
    -2
  9
$DIMTMOVE
 70
     0
  9
$LUNITS
 70
     2
  9
$LUPREC
 70
     2
  9
$SKETCHINC
 40
1.0
  9
$FILLETRAD
 40
0.0
  9
$AUNITS
 70
     0
  9
$AUPREC
 70
     2
  9
$MENU
  1
.
  9
$ELEVATION
 40
0.0
  9
$PELEVATION
 40
0.0
  9
$THICKNESS
 40
0.0
  9
$LIMCHECK
 70
     0
  9
$CHAMFERA
 40
0.0
  9
$CHAMFERB
 40
0.0
  9
$CHAMFERC
 40
0.0
  9
$CHAMFERD
 40
0.0
  9
$SKPOLY
 70
     0
  9
$TDCREATE
 40
2461213.665933253
  9
$TDUCREATE
 40
2461213.332599919
  9
$TDUPDATE
 40
2461213.665933253
  9
$TDUUPDATE
 40
2461213.332599919
  9
$TDINDWG
 40
0.0000000116
  9
$TDUSRTIMER
 40
0.0000000116
  9
$USRTIMER
 70
     1
  9
$ANGBASE
 50
0.0
  9
$ANGDIR
 70
     0
  9
$PDMODE
 70
     0
  9
$PDSIZE
 40
-1.0
  9
$PLINEWID
 40
0.0
  9
$SPLFRAME
 70
     0
  9
$SPLINETYPE
 70
     6
  9
$SPLINESEGS
 70
     8
  9
$HANDSEED
  5
125
  9
$SURFTAB1
 70
     6
  9
$SURFTAB2
 70
     6
  9
$SURFTYPE
 70
     6
  9
$SURFU
 70
     6
  9
$SURFV
 70
     6
  9
$UCSBASE
  2

  9
$UCSNAME
  2

  9
$UCSORG
 10
0.0
 20
0.0
 30
0.0
  9
$UCSXDIR
 10
1.0
 20
0.0
 30
0.0
  9
$UCSYDIR
 10
0.0
 20
1.0
 30
0.0
  9
$UCSORTHOREF
  2

  9
$UCSORTHOVIEW
 70
     0
  9
$UCSORGTOP
 10
0.0
 20
0.0
 30
0.0
  9
$UCSORGBOTTOM
 10
0.0
 20
0.0
 30
0.0
  9
$UCSORGLEFT
 10
0.0
 20
0.0
 30
0.0
  9
$UCSORGRIGHT
 10
0.0
 20
0.0
 30
0.0
  9
$UCSORGFRONT
 10
0.0
 20
0.0
 30
0.0
  9
$UCSORGBACK
 10
0.0
 20
0.0
 30
0.0
  9
$PUCSBASE
  2

  9
$PUCSNAME
  2

  9
$PUCSORG
 10
0.0
 20
0.0
 30
0.0
  9
$PUCSXDIR
 10
1.0
 20
0.0
 30
0.0
  9
$PUCSYDIR
 10
0.0
 20
1.0
 30
0.0
  9
$PUCSORTHOREF
  2

  9
$PUCSORTHOVIEW
 70
     0
  9
$PUCSORGTOP
 10
0.0
 20
0.0
 30
0.0
  9
$PUCSORGBOTTOM
 10
0.0
 20
0.0
 30
0.0
  9
$PUCSORGLEFT
 10
0.0
 20
0.0
 30
0.0
  9
$PUCSORGRIGHT
 10
0.0
 20
0.0
 30
0.0
  9
$PUCSORGFRONT
 10
0.0
 20
0.0
 30
0.0
  9
$PUCSORGBACK
 10
0.0
 20
0.0
 30
0.0
  9
$USERI1
 70
     0
  9
$USERI2
 70
     0
  9
$USERI3
 70
     0
  9
$USERI4
 70
     0
  9
$USERI5
 70
     0
  9
$USERR1
 40
0.0
  9
$USERR2
 40
0.0
  9
$USERR3
 40
0.0
  9
$USERR4
 40
0.0
  9
$USERR5
 40
0.0
  9
$WORLDVIEW
 70
     1
  9
$SHADEDGE
 70
     3
  9
$SHADEDIF
 70
    70
  9
$TILEMODE
 70
     1
  9
$MAXACTVP
 70
    64
  9
$PINSBASE
 10
0.0
 20
0.0
 30
0.0
  9
$PLIMCHECK
 70
     0
  9
$PEXTMIN
 10
1.0000000000E+20
 20
1.0000000000E+20
 30
1.0000000000E+20
  9
$PEXTMAX
 10
-1.0000000000E+20
 20
-1.0000000000E+20
 30
-1.0000000000E+20
  9
$PLIMMIN
 10
0.0
 20
0.0
  9
$PLIMMAX
 10
420.0
 20
297.0
  9
$UNITMODE
 70
     0
  9
$VISRETAIN
 70
     1
  9
$PLINEGEN
 70
     0
  9
$PSLTSCALE
 70
     1
  9
$TREEDEPTH
 70
  3020
  9
$CMLSTYLE
  2
Standard
  9
$CMLJUST
 70
     0
  9
$CMLSCALE
 40
20.0
  9
$PROXYGRAPHICS
 70
     1
  9
$MEASUREMENT
 70
     1
  9
$CELWEIGHT
370
    -1
  9
$ENDCAPS
280
     0
  9
$JOINSTYLE
280
     0
  9
$LWDISPLAY
290
     1
  9
$INSUNITS
 70
     4
  9
$HYPERLINKBASE
  1

  9
$STYLESHEET
  1

  9
$XEDIT
290
     1
  9
$CEPSNTYPE
380
     0
  9
$PSTYLEMODE
290
     1
  9
$FINGERPRINTGUID
  2
{d3a9562b-b647-45a9-915e-19832d51e1a2}
  9
$VERSIONGUID
  2
{FAEB1C32-E019-11D5-929B-00C0DF256EC4}
  9
$EXTNAMES
290
     1
  9
$PSVPSCALE
 40
0.0
  9
$OLESTARTUP
290
     0
  0
ENDSEC
  0
SECTION
  2
CLASSES
  0
CLASS
  1
ACDBDICTIONARYWDFLT
  2
AcDbDictionaryWithDefault
  3
ObjectDBX Classes
 90
        0
280
     0
281
     0
  0
CLASS
  1
VISUALSTYLE
  2
AcDbVisualStyle
  3
ObjectDBX Classes
 90
     4095
280
     0
281
     0
  0
CLASS
  1
MATERIAL
  2
AcDbMaterial
  3
ObjectDBX Classes
 90
     1153
280
     0
281
     0
  0
CLASS
  1
SCALE
  2
AcDbScale
  3
ObjectDBX Classes
 90
     1153
280
     0
281
     0
  0
CLASS
  1
TABLESTYLE
  2
AcDbTableStyle
  3
ObjectDBX Classes
 90
     4095
280
     0
281
     0
  0
CLASS
  1
MLEADERSTYLE
  2
AcDbMLeaderStyle
  3
ACDB_MLEADERSTYLE_CLASS
 90
     4095
280
     0
281
     0
  0
CLASS
  1
SUN
  2
AcDbSun
  3
SCENEOE
 90
     1153
280
     0
281
     0
  0
CLASS
  1
ACDBPLACEHOLDER
  2
AcDbPlaceHolder
  3
ObjectDBX Classes
 90
        0
280
     0
281
     0
  0
CLASS
  1
LAYOUT
  2
AcDbLayout
  3
ObjectDBX Classes
 90
        0
280
     0
281
     0
  0
ENDSEC
  0
SECTION
  2
TABLES
  0
TABLE
  2
VPORT
  5
8
330
0
100
AcDbSymbolTable
 70
     1
  0
VPORT
  5
29
330
8
100
AcDbSymbolTableRecord
100
AcDbViewportTableRecord
  2
*Active
 70
     0
 10
0.0
 20
0.0
 11
1.0
 21
1.0
 12
148.5
 22
105.0
 13
0.0
 23
0.0
 14
10.0
 24
10.0
 15
10.0
 25
10.0
 16
0.0
 26
0.0
 36
1.0
 17
0.0
 27
0.0
 37
0.0
 40
210.0
 41
1.4142857143
 42
50.0
 43
0.0
 44
0.0
 50
0.0
 51
0.0
 71
     0
 72
  2000
 73
     1
 74
     3
 75
     0
 76
     0
 77
     0
 78
     0
281
     0
 65
     1
110
0.0
120
0.0
130
0.0
111
1.0
121
0.0
131
0.0
112
0.0
122
1.0
132
0.0
 79
     0
146
0.0
  0
ENDTAB
  0
TABLE
  2
LTYPE
  5
5
330
0
100
AcDbSymbolTable
 70
     6
  0
LTYPE
  5
14
330
5
100
AcDbSymbolTableRecord
100
AcDbLinetypeTableRecord
  2
ByBlock
 70
     0
  3

 72
    65
 73
     0
 40
0.0
  0
LTYPE
  5
15
330
5
100
AcDbSymbolTableRecord
100
AcDbLinetypeTableRecord
  2
ByLayer
 70
     0
  3

 72
    65
 73
     0
 40
0.0
  0
LTYPE
  5
16
330
5
100
AcDbSymbolTableRecord
100
AcDbLinetypeTableRecord
  2
Continuous
 70
     0
  3
Solid line
 72
    65
 73
     0
 40
0.0
  0
LTYPE
  5
5E
330
5
100
AcDbSymbolTableRecord
100
AcDbLinetypeTableRecord
  2
HIDDEN
 70
     0
  3
Hidden __ __ __ __ __ __ __ __ __ __ __ __ __ __
 72
    65
 73
     2
 40
1.905
 49
1.27
 74
     0
 49
-0.635
 74
     0
  0
LTYPE
  5
5F
330
5
100
AcDbSymbolTableRecord
100
AcDbLinetypeTableRecord
  2
PHANTOM
 70
     0
  3
Phantom ______  __  __  ______  __  __  ______
 72
    65
 73
     6
 40
12.7
 49
6.35
 74
     0
 49
-1.27
 74
     0
 49
1.27
 74
     0
 49
-1.27
 74
     0
 49
1.27
 74
     0
 49
-1.27
 74
     0
  0
LTYPE
  5
60
330
5
100
AcDbSymbolTableRecord
100
AcDbLinetypeTableRecord
  2
CENTER
 70
     0
  3
Center ____ _ ____ _ ____ _ ____ _ ____ _ ____
 72
    65
 73
     4
 40
10.16
 49
6.35
 74
     0
 49
-1.27
 74
     0
 49
1.27
 74
     0
 49
-1.27
 74
     0
  0
LTYPE
  5
61
330
5
100
AcDbSymbolTableRecord
100
AcDbLinetypeTableRecord
  2
CENTERX2
 70
     0
  3
Center (2x) ________  __  ________  __  _____
 72
    65
 73
     4
 40
20.32
 49
12.7
 74
     0
 49
-2.54
 74
     0
 49
2.54
 74
     0
 49
-2.54
 74
     0
  0
LTYPE
  5
62
330
5
100
AcDbSymbolTableRecord
100
AcDbLinetypeTableRecord
  2
DOT2
 70
     0
  3
Dot (.5x) ........................................
 72
    65
 73
     2
 40
0.635
 49
0.0
 74
     0
 49
-0.635
 74
     0
  0
ENDTAB
  0
TABLE
  2
LAYER
  5
2
330
0
100
AcDbSymbolTable
 70
    14
  0
LAYER
  5
10
330
2
100
AcDbSymbolTableRecord
100
AcDbLayerTableRecord
  2
0
 70
     0
 62
     7
  6
Continuous
370
    -3
390
F
  0
LAYER
  5
63
330
2
100
AcDbSymbolTableRecord
100
AcDbLayerTableRecord
  2
SLD-0
 70
     0
 62
     7
  6
Continuous
370
    -3
390
F
  0
LAYER
  5
64
330
2
100
AcDbSymbolTableRecord
100
AcDbLayerTableRecord
  2
5
 70
     0
 62
     7
  6
Continuous
370
    -3
390
F
  0
LAYER
  5
65
330
2
100
AcDbSymbolTableRecord
100
AcDbLayerTableRecord
  2
9
 70
     0
 62
     7
  6
Continuous
370
    -3
390
F
  0
LAYER
  5
66
330
2
100
AcDbSymbolTableRecord
100
AcDbLayerTableRecord
  2
10
 70
     0
 62
     7
  6
Continuous
370
    -3
390
F
  0
LAYER
  5
67
330
2
100
AcDbSymbolTableRecord
100
AcDbLayerTableRecord
  2
轮廓实线层
 70
     0
 62
     7
  6
Continuous
370
    50
390
F
  0
LAYER
  5
68
330
2
100
AcDbSymbolTableRecord
100
AcDbLayerTableRecord
  2
细线层
 70
     0
 62
     4
  6
Continuous
370
    25
390
F
  0
LAYER
  5
69
330
2
100
AcDbSymbolTableRecord
100
AcDbLayerTableRecord
  2
中心线层
 70
     0
 62
     1
  6
CENTERX2
370
    25
390
F
  0
LAYER
  5
6A
330
2
100
AcDbSymbolTableRecord
100
AcDbLayerTableRecord
  2
虚线层
 70
     0
 62
     6
  6
HIDDEN
370
    25
390
F
  0
LAYER
  5
6B
330
2
100
AcDbSymbolTableRecord
100
AcDbLayerTableRecord
  2
剖面线层
 70
     0
 62
     2
  6
Continuous
370
    25
390
F
  0
LAYER
  5
6C
330
2
100
AcDbSymbolTableRecord
100
AcDbLayerTableRecord
  2
文字层
 70
     0
 62
     3
  6
Continuous
370
    25
390
F
  0
LAYER
  5
6D
330
2
100
AcDbSymbolTableRecord
100
AcDbLayerTableRecord
  2
标注层
 70
     0
 62
     4
  6
Continuous
370
    25
390
F
  0
LAYER
  5
6E
330
2
100
AcDbSymbolTableRecord
100
AcDbLayerTableRecord
  2
符号标注层
 70
     0
 62
    31
  6
Continuous
370
    25
390
F
  0
LAYER
  5
6F
330
2
100
AcDbSymbolTableRecord
100
AcDbLayerTableRecord
  2
双点划线层
 70
     0
 62
     6
  6
PHANTOM
370
    25
390
F
  0
ENDTAB
  0
TABLE
  2
STYLE
  5
3
330
0
100
AcDbSymbolTable
 70
     1
  0
STYLE
  5
11
330
3
100
AcDbSymbolTableRecord
100
AcDbTextStyleTableRecord
  2
Standard
 70
     0
 40
0.0
 41
1.0
 50
0.0
 71
     0
 42
3.5
  3
txt
  4

  0
ENDTAB
  0
TABLE
  2
VIEW
  5
6
330
0
100
AcDbSymbolTable
 70
     0
  0
ENDTAB
  0
TABLE
  2
UCS
  5
7
330
0
100
AcDbSymbolTable
 70
     0
  0
ENDTAB
  0
TABLE
  2
APPID
  5
9
330
0
100
AcDbSymbolTable
 70
     1
  0
APPID
  5
12
330
9
100
AcDbSymbolTableRecord
100
AcDbRegAppTableRecord
  2
ACAD
 70
     0
  0
ENDTAB
  0
TABLE
  2
DIMSTYLE
  5
A
330
0
100
AcDbSymbolTable
 70
     1
100
AcDbDimStyleTable
  0
DIMSTYLE
105
27
330
A
100
AcDbSymbolTableRecord
100
AcDbDimStyleTableRecord
  2
ISO-25
 70
     0
 41
2.5
 42
0.625
 43
3.75
 44
1.25
 73
     0
 74
     0
 77
     1
 78
     8
140
2.5
141
2.5
143
0.0393700787
147
0.625
171
     3
172
     1
178
     0
271
     2
272
     2
274
     3
278
    44
283
     0
284
     8
340
11
  0
ENDTAB
  0
TABLE
  2
BLOCK_RECORD
  5
1
330
0
100
AcDbSymbolTable
 70
     2
  0
BLOCK_RECORD
  5
1F
330
1
100
AcDbSymbolTableRecord
100
AcDbBlockTableRecord
  2
*Model_Space
340
22
  0
BLOCK_RECORD
  5
1B
330
1
100
AcDbSymbolTableRecord
100
AcDbBlockTableRecord
  2
*Paper_Space
340
1E
  0
BLOCK_RECORD
  5
23
330
1
100
AcDbSymbolTableRecord
100
AcDbBlockTableRecord
  2
*Paper_Space0
340
26
  0
BLOCK_RECORD
  5
E0
330
1
100
AcDbSymbolTableRecord
100
AcDbBlockTableRecord
  2
SW_CENTERMARKSYMBOL_0
340
0
102
{BLKREFS
331
EB
102
}
  0
ENDTAB
  0
ENDSEC
  0
SECTION
  2
BLOCKS
  0
BLOCK
  5
20
330
1F
100
AcDbEntity
  8
0
100
AcDbBlockBegin
  2
*Model_Space
 70
     0
 10
0.0
 20
0.0
 30
0.0
  3
*Model_Space
  1

  0
ENDBLK
  5
21
330
1F
100
AcDbEntity
  8
0
100
AcDbBlockEnd
  0
BLOCK
  5
1C
330
1B
100
AcDbEntity
 67
     1
  8
0
100
AcDbBlockBegin
  2
*Paper_Space
 70
     0
 10
0.0
 20
0.0
 30
0.0
  3
*Paper_Space
  1

  0
ENDBLK
  5
1D
330
1B
100
AcDbEntity
 67
     1
  8
0
100
AcDbBlockEnd
  0
BLOCK
  5
24
330
23
100
AcDbEntity
  8
0
100
AcDbBlockBegin
  2
*Paper_Space0
 70
     0
 10
0.0
 20
0.0
 30
0.0
  3
*Paper_Space0
  1

  0
ENDBLK
  5
25
330
23
100
AcDbEntity
  8
0
100
AcDbBlockEnd
  0
BLOCK
  5
E1
330
E0
100
AcDbEntity
  8
0
100
AcDbBlockBegin
  2
SW_CENTERMARKSYMBOL_0
 70
     0
 10
0.0
 20
0.0
 30
0.0
  3
SW_CENTERMARKSYMBOL_0
  1

  0
LINE
  5
E3
330
E0
100
AcDbEntity
  8
10
 62
     0
100
AcDbLine
 10
0.0
 20
0.0
 30
0.0
 11
0.0
 21
2.5
 31
0.0
  0
LINE
  5
E4
330
E0
100
AcDbEntity
  8
10
 62
     0
100
AcDbLine
 10
0.0
 20
0.0
 30
0.0
 11
-2.5
 21
0.0
 31
0.0
  0
LINE
  5
E5
330
E0
100
AcDbEntity
  8
10
 62
     0
100
AcDbLine
 10
0.0
 20
0.0
 30
0.0
 11
0.0
 21
-2.5
 31
0.0
  0
LINE
  5
E6
330
E0
100
AcDbEntity
  8
10
 62
     0
100
AcDbLine
 10
0.0
 20
0.0
 30
0.0
 11
2.5
 21
0.0
 31
0.0
  0
LINE
  5
E7
330
E0
100
AcDbEntity
  8
10
 62
     0
100
AcDbLine
 10
0.0
 20
5.0
 30
0.0
 11
0.0
 21
5.875
 31
0.0
  0
LINE
  5
E8
330
E0
100
AcDbEntity
  8
10
 62
     0
100
AcDbLine
 10
-5.0
 20
0.0
 30
0.0
 11
-5.875
 21
0.0
 31
0.0
  0
LINE
  5
E9
330
E0
100
AcDbEntity
  8
10
 62
     0
100
AcDbLine
 10
0.0
 20
-5.0
 30
0.0
 11
0.0
 21
-5.875
 31
0.0
  0
LINE
  5
EA
330
E0
100
AcDbEntity
  8
10
 62
     0
100
AcDbLine
 10
5.0
 20
0.0
 30
0.0
 11
5.875
 21
0.0
 31
0.0
  0
ENDBLK
  5
E2
330
E0
100
AcDbEntity
  8
0
100
AcDbBlockEnd
  0
ENDSEC
  0
SECTION
  2
ENTITIES
  0
LINE
  5
70
330
1F
100
AcDbEntity
  8
0
  6
Continuous
 62
     7
370
    25
100
AcDbLine
 10
60.6893398282
 20
34.4875
 30
0.0
 11
60.6893398282
 21
79.5125
 31
0.0
  0
SPLINE
  5
71
330
1F
100
AcDbEntity
  8
0
  6
Continuous
 62
     7
370
    25
100
AcDbSpline
210
0.0
220
0.0
230
1.0
 70
     8
 71
     3
 72
    19
 73
    15
 74
     0
 42
0.00000001
 43
0.00000001
 40
0.0
 40
0.0
 40
0.0
 40
0.0
 40
0.0950678570628515
 40
0.2911541612436914
 40
0.4352143182901174
 40
0.5339324352231388
 40
0.5787840411447217
 40
0.608618272046862
 40
0.6383843758121402
 40
0.6896873292798201
 40
0.7660143834389153
 40
0.8672391994994125
 40
0.9296421056151203
 40
1.0
 40
1.0
 40
1.0
 40
1.0
 10
56.5237464449574
 20
32.04688275772127
 30
0.0
 10
56.68436285230841
 20
32.05392073021388
 30
0.0
 10
57.17626555011869
 20
32.07547517607235
 30
0.0
 10
57.91256254635363
 20
32.21825666563225
 30
0.0
 10
58.64249244331895
 20
32.42158077180332
 30
0.0
 10
59.10697202998622
 20
32.60666177422224
 30
0.0
 10
59.38032635581477
 20
32.74243994988237
 30
0.0
 10
59.54340700986607
 20
32.8346478233245
 30
0.0
 10
59.7126115821835
 20
32.94152020600085
 30
0.0
 10
59.93847288645218
 20
33.10184669256429
 30
0.0
 10
60.24421359621327
 20
33.3702206321983
 30
0.0
 10
60.49958460306802
 20
33.72049775146399
 30
0.0
 10
60.65878053513975
 20
34.11706209475689
 30
0.0
 10
60.67874588225818
 20
34.35918472587939
 30
0.0
 10
60.6893267146923
 20
34.48750000000002
 30
0.0
  0
SPLINE
  5
72
330
1F
100
AcDbEntity
  8
0
  6
Continuous
 62
     7
370
    25
100
AcDbSpline
210
0.0
220
0.0
230
1.0
 70
     8
 71
     3
 72
    22
 73
    18
 74
     0
 42
0.00000001
 43
0.00000001
 40
0.0
 40
0.0
 40
0.0
 40
0.0
 40
0.0672797329540204
 40
0.1241229193078157
 40
0.2079716344444461
 40
0.2572447767336672
 40
0.2686007476152272
 40
0.270045080963624
 40
0.2724553303968573
 40
0.2769059670335265
 40
0.283500893312038
 40
0.3170210895384092
 40
0.3728146290367438
 40
0.4777355857450387
 40
0.615773840589326
 40
0.790370079992692
 40
0.9999999999999999
 40
0.9999999999999999
 40
0.9999999999999999
 40
0.9999999999999999
 10
60.68925540329681
 20
79.51250000000002
 30
0.0
 10
60.67639212113347
 20
79.65422656291923
 30
0.0
 10
60.6526609310129
 20
79.91569482327957
 30
0.0
 10
60.47688435600566
 20
80.31741406988027
 30
0.0
 10
60.23674365285559
 20
80.63117616929547
 30
0.0
 10
60.01573095722642
 20
80.82931963590728
 30
0.0
 10
59.91589605524015
 20
80.90964217191261
 30
0.0
 10
59.89061058177727
 20
80.92980906089096
 30
0.0
 10
59.87815915354567
 20
80.94026503473559
 30
0.0
 10
59.85541159045388
 20
80.95790078967146
 30
0.0
 10
59.78085786853605
 20
81.01389534579482
 30
0.0
 10
59.61687580645443
 20
81.12529957639589
 30
0.0
 10
59.27589513990883
 20
81.32006217021757
 30
0.0
 10
58.72256989966077
 20
81.55506212402173
 30
0.0
 10
57.92139589873793
 20
81.78369676241115
 30
0.0
 10
56.90267817476223
 20
81.96229120516705
 30
0.0
 10
56.15342742245281
 20
81.98668887644942
 30
0.0
 10
55.74464376359694
 20
82.00000000000001
 30
0.0
  0
LINE
  5
73
330
1F
100
AcDbEntity
  8
0
  6
Continuous
 62
     7
370
    25
100
AcDbLine
 10
33.0
 20
62.75
 30
0.0
 11
33.0
 21
59.25
 31
0.0
  0
LINE
  5
74
330
1F
100
AcDbEntity
  8
0
  6
Continuous
 62
     7
370
    25
100
AcDbLine
 10
33.0
 20
54.75
 30
0.0
 11
33.0
 21
51.25
 31
0.0
  0
LINE
  5
75
330
1F
100
AcDbEntity
  8
0
  6
Continuous
 62
     7
370
    25
100
AcDbLine
 10
55.7446437636
 20
82.0
 30
0.0
 11
55.4875
 21
82.0
 31
0.0
  0
LINE
  5
76
330
1F
100
AcDbEntity
  8
0
  6
Continuous
 62
     7
370
    25
100
AcDbLine
 10
55.4875
 20
32.0
 30
0.0
 11
55.7446437636
 21
32.0
 31
0.0
  0
SPLINE
  5
77
330
1F
100
AcDbEntity
  8
0
  6
Continuous
 62
     7
370
    25
100
AcDbSpline
210
0.0
220
0.0
230
1.0
 70
     8
 71
     3
 72
    11
 73
     7
 74
     0
 42
0.00000001
 43
0.00000001
 40
-1.5707963267949
 40
-1.5707963267949
 40
-1.5707963267949
 40
-1.5707963267949
 40
-1.346396851538486
 40
-1.121997376282072
 40
-0.6731984257692448
 40
0.0
 40
0.0
 40
0.0
 40
0.0
 10
59.93933982822019
 20
34.48750000000002
 30
0.0
 10
59.93933982822019
 20
34.3014354350999
 30
0.0
 10
59.86841039426439
 20
33.92929528415365
 30
0.0
 10
59.45188926703183
 20
33.22276433749852
 30
0.0
 10
58.24955564902719
 20
32.32575877576541
 30
0.0
 10
56.68593135935854
 20
32.00000000000003
 30
0.0
 10
55.74464376359695
 20
32.00000000000003
 30
0.0
  0
ARC
  5
78
330
1F
100
AcDbEntity
  8
0
  6
Continuous
 62
     7
370
    25
100
AcDbCircle
 10
55.4875
 20
79.5125
 30
0.0
 40
2.487499999999997
100
AcDbArc
 50
90.0
 51
180.0
  0
ARC
  5
79
330
1F
100
AcDbEntity
  8
0
  6
Continuous
 62
     7
370
    25
100
AcDbCircle
 10
55.4875
 20
34.4875
 30
0.0
 40
2.487499999999997
100
AcDbArc
 50
180.0
 51
270.0
  0
LINE
  5
7A
330
1F
100
AcDbEntity
  8
0
  6
Continuous
 62
     7
370
    25
100
AcDbLine
 10
53.0
 20
79.5125
 30
0.0
 11
53.0
 21
34.4875
 31
0.0
  0
ARC
  5
7B
330
1F
100
AcDbEntity
  8
0
  6
Continuous
 62
     7
370
    25
100
AcDbCircle
 10
51.75
 20
56.0
 30
0.0
 40
1.25
100
AcDbArc
 50
270.0
 51
0.0
  0
ARC
  5
7C
330
1F
100
AcDbEntity
  8
0
  6
Continuous
 62
     7
370
    25
100
AcDbCircle
 10
51.75
 20
50.0
 30
0.0
 40
1.25
100
AcDbArc
 50
0.0
 51
90.0
  0
ARC
  5
7D
330
1F
100
AcDbEntity
  8
0
  6
Continuous
 62
     7
370
    25
100
AcDbCircle
 10
51.75
 20
58.0
 30
0.0
 40
1.250000000000007
100
AcDbArc
 50
0.0
 51
90.0
  0
ARC
  5
7E
330
1F
100
AcDbEntity
  8
0
  6
Continuous
 62
     7
370
    25
100
AcDbCircle
 10
51.75
 20
64.0
 30
0.0
 40
1.25
100
AcDbArc
 50
270.0
 51
0.0
  0
LINE
  5
7F
330
1F
100
AcDbEntity
  8
0
  6
Continuous
 62
     7
370
    25
100
AcDbLine
 10
42.375
 20
62.75
 30
0.0
 11
33.0
 21
62.75
 31
0.0
  0
LINE
  5
80
330
1F
100
AcDbEntity
  8
0
  6
Continuous
 62
     7
370
    25
100
AcDbLine
 10
33.0
 20
59.25
 30
0.0
 11
42.375
 21
59.25
 31
0.0
  0
LINE
  5
81
330
1F
100
AcDbEntity
  8
0
  6
Continuous
 62
     7
370
    25
100
AcDbLine
 10
42.375
 20
54.75
 30
0.0
 11
33.0
 21
54.75
 31
0.0
  0
LINE
  5
82
330
1F
100
AcDbEntity
  8
0
  6
Continuous
 62
     7
370
    25
100
AcDbLine
 10
33.0
 20
51.25
 30
0.0
 11
42.375
 21
51.25
 31
0.0
  0
LINE
  5
83
330
1F
100
AcDbEntity
  8
0
  6
Continuous
 62
     7
370
    25
100
AcDbLine
 10
51.75
 20
54.75
 30
0.0
 11
42.375
 21
54.75
 31
0.0
  0
LINE
  5
84
330
1F
100
AcDbEntity
  8
0
  6
Continuous
 62
     7
370
    25
100
AcDbLine
 10
42.375
 20
51.25
 30
0.0
 11
51.75
 21
51.25
 31
0.0
  0
LINE
  5
85
330
1F
100
AcDbEntity
  8
0
  6
Continuous
 62
     7
370
    25
100
AcDbLine
 10
51.75
 20
62.75
 30
0.0
 11
42.375
 21
62.75
 31
0.0
  0
LINE
  5
86
330
1F
100
AcDbEntity
  8
0
  6
Continuous
 62
     7
370
    25
100
AcDbLine
 10
42.375
 20
59.25
 30
0.0
 11
51.75
 21
59.25
 31
0.0
  0
LINE
  5
87
330
1F
100
AcDbEntity
  8
0
  6
Continuous
 62
     7
370
    25
100
AcDbLine
 10
133.0
 20
67.107233047
 30
0.0
 11
133.0
 21
67.9911165235
 31
0.0
  0
LINE
  5
88
330
1F
100
AcDbEntity
  8
0
  6
Continuous
 62
     7
370
    25
100
AcDbLine
 10
133.0
 20
46.0088834765
 30
0.0
 11
133.0
 21
46.892766953
 31
0.0
  0
LINE
  5
89
330
1F
100
AcDbEntity
  8
0
  6
Continuous
 62
     7
370
    25
100
AcDbLine
 10
133.0
 20
67.107233047
 30
0.0
 11
133.0
 21
46.892766953
 31
0.0
  0
LINE
  5
8A
330
1F
100
AcDbEntity
  8
0
  6
Continuous
 62
     7
370
    25
100
AcDbLine
 10
60.6893398282
 20
41.375
 30
0.0
 11
133.0
 21
41.375
 31
0.0
  0
LINE
  5
8B
330
1F
100
AcDbEntity
  8
0
  6
Continuous
 62
     7
370
    25
100
AcDbLine
 10
133.0
 20
41.375
 30
0.0
 11
133.0
 21
46.0088834765
 31
0.0
  0
LINE
  5
8C
330
1F
100
AcDbEntity
  8
0
  6
Continuous
 62
     7
370
    25
100
AcDbLine
 10
133.0
 20
72.625
 30
0.0
 11
60.6893398282
 21
72.625
 31
0.0
  0
LINE
  5
8D
330
1F
100
AcDbEntity
  8
0
  6
Continuous
 62
     7
370
    25
100
AcDbLine
 10
133.0
 20
67.9911165235
 30
0.0
 11
133.0
 21
72.625
 31
0.0
  0
ARC
  5
8E
330
1F
100
AcDbEntity
  8
0
  6
HIDDEN
 62
     7
370
    18
100
AcDbCircle
 10
55.5125
 20
34.4875
 30
0.0
 40
2.487499999999997
100
AcDbArc
 50
270.0
 51
0.0
  0
ARC
  5
8F
330
1F
100
AcDbEntity
  8
0
  6
HIDDEN
 62
     7
370
    18
100
AcDbCircle
 10
55.5125
 20
79.5125
 30
0.0
 40
2.487499999999997
100
AcDbArc
 50
0.0
 51
90.0
  0
LINE
  5
90
330
1F
100
AcDbEntity
  8
0
  6
HIDDEN
 62
     7
370
    18
100
AcDbLine
 10
58.0
 20
79.5125
 30
0.0
 11
58.0
 21
34.4875
 31
0.0
  0
LINE
  5
91
330
1F
100
AcDbEntity
  8
0
  6
HIDDEN
 62
     7
370
    18
100
AcDbLine
 10
58.0
 20
41.375
 30
0.0
 11
60.6893398282
 21
41.375
 31
0.0
  0
LINE
  5
92
330
1F
100
AcDbEntity
  8
0
  6
HIDDEN
 62
     7
370
    18
100
AcDbLine
 10
60.6893398282
 20
72.625
 30
0.0
 11
58.0
 21
72.625
 31
0.0
  0
LINE
  5
93
330
1F
100
AcDbEntity
  8
0
  6
HIDDEN
 62
     7
370
    18
100
AcDbLine
 10
54.25
 20
50.75
 30
0.0
 11
54.25
 21
63.25
 31
0.0
  0
LINE
  5
94
330
1F
100
AcDbEntity
  8
0
  6
HIDDEN
 62
     7
370
    18
100
AcDbLine
 10
54.25
 20
50.75
 30
0.0
 11
58.0
 21
50.75
 31
0.0
  0
LINE
  5
95
330
1F
100
AcDbEntity
  8
0
  6
HIDDEN
 62
     7
370
    18
100
AcDbLine
 10
58.0
 20
63.25
 30
0.0
 11
54.25
 21
63.25
 31
0.0
  0
LINE
  5
96
330
1F
100
AcDbEntity
  8
0
  6
HIDDEN
 62
     7
370
    18
100
AcDbLine
 10
133.0
 20
63.25
 30
0.0
 11
58.0
 21
63.25
 31
0.0
  0
LINE
  5
97
330
1F
100
AcDbEntity
  8
0
  6
HIDDEN
 62
     7
370
    18
100
AcDbLine
 10
58.0
 20
50.75
 30
0.0
 11
133.0
 21
50.75
 31
0.0
  0
SPLINE
  5
98
330
1F
100
AcDbEntity
  8
0
  6
HIDDEN
 62
     7
370
    18
100
AcDbSpline
210
0.0
220
0.0
230
1.0
 70
     8
 71
     3
 72
    16
 73
    12
 74
     0
 42
0.00000001
 43
0.00000001
 40
0.0
 40
0.0
 40
0.0
 40
0.0
 40
0.2180698949285959
 40
0.4016136083020831
 40
0.5514433439301297
 40
0.7857661262077373
 40
0.89380693925123
 40
0.9475006464336223
 40
0.9743339601398545
 40
0.9933855539522431
 40
1.0
 40
1.0
 40
1.0
 40
1.0
 10
51.75000000000002
 20
59.25000000000002
 30
0.0
 10
51.81214059559353
 20
59.24997143688819
 30
0.0
 10
51.92658330134397
 20
59.24991883295397
 30
0.0
 10
52.09941939493708
 20
59.25105712509136
 30
0.0
 10
52.30571604691749
 20
59.25062051073601
 30
0.0
 10
52.52321097049176
 20
59.24982443998885
 30
0.0
 10
52.75949088878978
 20
59.24986020385382
 30
0.0
 10
52.88935752549391
 20
59.25002235341034
 30
0.0
 10
52.96281498882348
 20
59.24990287555987
 30
0.0
 10
53.00313265764172
 20
59.2501690892997
 30
0.0
 10
53.0231850660276
 20
59.24744464895212
 30
0.0
 10
53.028352811972
 20
59.24674252802549
 30
0.0
  0
SPLINE
  5
99
330
1F
100
AcDbEntity
  8
0
  6
HIDDEN
 62
     7
370
    18
100
AcDbSpline
210
0.0
220
0.0
230
1.0
 70
     8
 71
     3
 72
    19
 73
    15
 74
     0
 42
0.00000001
 43
0.00000001
 40
0.0
 40
0.0
 40
0.0
 40
0.0
 40
0.040106438322759
 40
0.0810394989886495
 40
0.1229570176227462
 40
0.1660309585205781
 40
0.2104464343701926
 40
0.2563705984980132
 40
0.3039620824946878
 40
0.3533801523733525
 40
0.4047812069607718
 40
0.4583109655967324
 40
0.6926534279398505
 40
1.0
 40
1.0
 40
1.0
 40
1.0
 10
53.03117984612955
 20
54.75000000001861
 30
0.0
 10
53.00019103878296
 20
54.74989861116682
 30
0.0
 10
52.9375747226341
 20
54.74969374376656
 30
0.0
 10
52.85044740948627
 20
54.74860753761185
 30
0.0
 10
52.76673392112849
 20
54.74756092657558
 30
0.0
 10
52.6866911890174
 20
54.74682152308951
 30
0.0
 10
52.60983432170848
 20
54.74670137380506
 30
0.0
 10
52.53595819058769
 20
54.74723700769074
 30
0.0
 10
52.46483838478802
 20
54.74830588427621
 30
0.0
 10
52.39627440879714
 20
54.74963462173161
 30
0.0
 10
52.32995859992949
 20
54.75089867262815
 30
0.0
 10
52.19359429798919
 20
54.75262528222452
 30
0.0
 10
51.99060644064183
 20
54.75092368987458
 30
0.0
 10
51.83709830799076
 20
54.7503343710375
 30
0.0
 10
51.75000000000002
 20
54.75000000000002
 30
0.0
  0
SPLINE
  5
9A
330
1F
100
AcDbEntity
  8
0
  6
HIDDEN
 62
     7
370
    18
100
AcDbSpline
210
0.0
220
0.0
230
1.0
 70
     8
 71
     3
 72
    13
 73
     9
 74
     0
 42
0.00000001
 43
0.00000001
 40
0.0
 40
0.0
 40
0.0
 40
0.0
 40
0.2963471131201456
 40
0.5352632193503938
 40
0.6684858795610705
 40
0.7896345493734693
 40
0.8997917313724656
 40
1.0
 40
1.0
 40
1.0
 40
1.0
 10
51.75000000000002
 20
51.25000000000001
 30
0.0
 10
51.82303926860757
 20
51.24980452528938
 30
0.0
 10
51.95496305771505
 20
51.24945145816544
 30
0.0
 10
52.13865924439236
 20
51.24790265517407
 30
0.0
 10
52.29412327014073
 20
51.24914414318857
 30
0.0
 10
52.42516610316539
 20
51.2503294847483
 30
0.0
 10
52.55862215355857
 20
51.25037220193416
 30
0.0
 10
52.65817757715654
 20
51.25012009333381
 30
0.0
 10
52.70560112794172
 20
51.25000000057964
 30
0.0
  0
SPLINE
  5
9B
330
1F
100
AcDbEntity
  8
0
  6
HIDDEN
 62
     7
370
    18
100
AcDbSpline
210
0.0
220
0.0
230
1.0
 70
     8
 71
     3
 72
    14
 73
    10
 74
     0
 42
0.00000001
 43
0.00000001
 40
0.0
 40
0.0
 40
0.0
 40
0.0
 40
0.0143914235546379
 40
0.0291056785898806
 40
0.0586515218862606
 40
0.1181173304667137
 40
0.2375028414500495
 40
0.4766238759164957
 40
1.0
 40
1.0
 40
1.0
 40
1.0
 10
52.70518113766747
 20
62.75074967381576
 30
0.0
 10
52.69814518357485
 20
62.75043521926219
 30
0.0
 10
52.68391544336776
 20
62.74979925624346
 30
0.0
 10
52.65591700944063
 20
62.75011686031638
 30
0.0
 10
52.60776241180419
 20
62.74991430300278
 30
0.0
 10
52.5164811127565
 20
62.75001092344539
 30
0.0
 10
52.35234788941953
 20
62.74966153022314
 30
0.0
 10
52.06693895066739
 20
62.75002905171254
 30
0.0
 10
51.87900048691554
 20
62.75001182462761
 30
0.0
 10
51.75000000000002
 20
62.75000000000001
 30
0.0
  0
LINE
  5
9C
330
1F
100
AcDbEntity
  8
0
  6
HIDDEN
 62
     7
370
    18
100
AcDbLine
 10
52.7056007477
 20
51.25
 30
0.0
 11
53.75
 21
51.25
 31
0.0
  0
LINE
  5
9D
330
1F
100
AcDbEntity
  8
0
  6
HIDDEN
 62
     7
370
    18
100
AcDbLine
 10
53.75
 20
62.75
 30
0.0
 11
52.7056007477
 21
62.75
 31
0.0
  0
LINE
  5
9E
330
1F
100
AcDbEntity
  8
0
  6
HIDDEN
 62
     7
370
    18
100
AcDbLine
 10
58.0
 20
72.625
 30
0.0
 11
57.8169417382
 21
72.625
 31
0.0
  0
LINE
  5
9F
330
1F
100
AcDbEntity
  8
0
  6
HIDDEN
 62
     7
370
    18
100
AcDbLine
 10
57.8169417382
 20
41.375
 30
0.0
 11
58.0
 21
41.375
 31
0.0
  0
LINE
  5
A0
330
1F
100
AcDbEntity
  8
0
  6
HIDDEN
 62
     7
370
    18
100
AcDbLine
 10
53.75
 20
54.75
 30
0.0
 11
53.031180033
 21
54.75
 31
0.0
  0
LINE
  5
A1
330
1F
100
AcDbEntity
  8
0
  6
HIDDEN
 62
     7
370
    18
100
AcDbLine
 10
53.031180033
 20
59.25
 30
0.0
 11
53.75
 21
59.25
 31
0.0
  0
LINE
  5
A2
330
1F
100
AcDbEntity
  8
0
  6
HIDDEN
 62
     7
370
    18
100
AcDbLine
 10
129.25
 20
50.75
 30
0.0
 11
129.25
 21
63.25
 31
0.0
  0
LINE
  5
A3
330
1F
100
AcDbEntity
  8
0
  6
HIDDEN
 62
     7
370
    18
100
AcDbLine
 10
58.625
 20
58.875
 30
0.0
 11
54.25
 21
58.875
 31
0.0
  0
LINE
  5
A4
330
1F
100
AcDbEntity
  8
0
  6
HIDDEN
 62
     7
370
    18
100
AcDbLine
 10
58.625
 20
55.125
 30
0.0
 11
54.25
 21
55.125
 31
0.0
  0
LINE
  5
A5
330
1F
100
AcDbEntity
  8
0
  6
HIDDEN
 62
     7
370
    18
100
AcDbLine
 10
58.625
 20
63.25
 30
0.0
 11
58.625
 21
58.875
 31
0.0
  0
LINE
  5
A6
330
1F
100
AcDbEntity
  8
0
  6
HIDDEN
 62
     7
370
    18
100
AcDbLine
 10
58.625
 20
55.125
 30
0.0
 11
58.625
 21
50.75
 31
0.0
  0
LINE
  5
A7
330
1F
100
AcDbEntity
  8
0
  6
HIDDEN
 62
     7
370
    18
100
AcDbLine
 10
64.25
 20
63.25
 30
0.0
 11
64.25
 21
50.75
 31
0.0
  0
LINE
  5
A8
330
1F
100
AcDbEntity
  8
0
  6
HIDDEN
 62
     7
370
    18
100
AcDbLine
 10
57.8169417382
 20
72.625
 30
0.0
 11
57.25
 21
72.625
 31
0.0
  0
LINE
  5
A9
330
1F
100
AcDbEntity
  8
0
  6
HIDDEN
 62
     7
370
    18
100
AcDbLine
 10
57.25
 20
41.375
 30
0.0
 11
57.8169417382
 21
41.375
 31
0.0
  0
ARC
  5
AA
330
1F
100
AcDbEntity
  8
0
  6
HIDDEN
 62
     7
370
    18
100
AcDbCircle
 10
55.4875
 20
34.4875
 30
0.0
 40
1.737499999999997
100
AcDbArc
 50
180.0
 51
270.0
  0
LINE
  5
AB
330
1F
100
AcDbEntity
  8
0
  6
HIDDEN
 62
     7
370
    18
100
AcDbLine
 10
55.4875
 20
32.75
 30
0.0
 11
55.5125
 21
32.75
 31
0.0
  0
ARC
  5
AC
330
1F
100
AcDbEntity
  8
0
  6
HIDDEN
 62
     7
370
    18
100
AcDbCircle
 10
55.5125
 20
34.4875
 30
0.0
 40
1.737499999999997
100
AcDbArc
 50
270.0
 51
0.0
  0
LINE
  5
AD
330
1F
100
AcDbEntity
  8
0
  6
HIDDEN
 62
     7
370
    18
100
AcDbLine
 10
57.25
 20
34.4875
 30
0.0
 11
57.25
 21
41.375
 31
0.0
  0
ARC
  5
AE
330
1F
100
AcDbEntity
  8
0
  6
HIDDEN
 62
     7
370
    18
100
AcDbCircle
 10
55.4875
 20
79.5125
 30
0.0
 40
1.737499999999997
100
AcDbArc
 50
90.0
 51
180.0
  0
LINE
  5
AF
330
1F
100
AcDbEntity
  8
0
  6
HIDDEN
 62
     7
370
    18
100
AcDbLine
 10
57.25
 20
72.625
 30
0.0
 11
57.25
 21
79.5125
 31
0.0
  0
ARC
  5
B0
330
1F
100
AcDbEntity
  8
0
  6
HIDDEN
 62
     7
370
    18
100
AcDbCircle
 10
55.5125
 20
79.5125
 30
0.0
 40
1.737499999999997
100
AcDbArc
 50
0.0
 51
90.0
  0
LINE
  5
B1
330
1F
100
AcDbEntity
  8
0
  6
HIDDEN
 62
     7
370
    18
100
AcDbLine
 10
55.5125
 20
81.25
 30
0.0
 11
55.4875
 21
81.25
 31
0.0
  0
LINE
  5
B2
330
1F
100
AcDbEntity
  8
0
  6
HIDDEN
 62
     7
370
    18
100
AcDbLine
 10
53.75
 20
59.25
 30
0.0
 11
53.75
 21
54.75
 31
0.0
  0
LINE
  5
B3
330
1F
100
AcDbEntity
  8
0
  6
HIDDEN
 62
     7
370
    18
100
AcDbLine
 10
53.75
 20
79.5125
 30
0.0
 11
53.75
 21
62.75
 31
0.0
  0
LINE
  5
B4
330
1F
100
AcDbEntity
  8
0
  6
HIDDEN
 62
     7
370
    18
100
AcDbLine
 10
53.75
 20
51.25
 30
0.0
 11
53.75
 21
34.4875
 31
0.0
  0
LINE
  5
B5
330
1F
100
AcDbEntity
  8
0
  6
HIDDEN
 62
     7
370
    18
100
AcDbLine
 10
55.7446437636
 20
32.0
 30
0.0
 11
56.523746445
 21
32.0468827577
 31
0.0
  0
LINE
  5
B6
330
1F
100
AcDbEntity
  8
0
  6
HIDDEN
 62
     7
370
    18
100
AcDbLine
 10
40.509243653
 20
62.75
 30
0.0
 11
40.509243653
 21
59.25
 31
0.0
  0
LINE
  5
B7
330
1F
100
AcDbEntity
  8
0
  6
HIDDEN
 62
     7
370
    18
100
AcDbLine
 10
47.259243653
 20
59.25
 30
0.0
 11
47.259243653
 21
62.75
 31
0.0
  0
LINE
  5
B8
330
1F
100
AcDbEntity
  8
0
  6
HIDDEN
 62
     7
370
    18
100
AcDbLine
 10
40.509243653
 20
54.75
 30
0.0
 11
40.509243653
 21
51.25
 31
0.0
  0
LINE
  5
B9
330
1F
100
AcDbEntity
  8
0
  6
HIDDEN
 62
     7
370
    18
100
AcDbLine
 10
47.259243653
 20
51.25
 30
0.0
 11
47.259243653
 21
54.75
 31
0.0
  0
LINE
  5
BA
330
1F
100
AcDbEntity
  8
0
  6
Continuous
 62
     7
370
    25
100
AcDbLine
 10
55.5125
 20
149.5959400065
 30
0.0
 11
58.0
 21
150.6262962429
 31
0.0
  0
LINE
  5
BB
330
1F
100
AcDbEntity
  8
0
  6
Continuous
 62
     7
370
    25
100
AcDbLine
 10
60.4696699141
 20
148.1566263288
 30
0.0
 11
58.0
 21
150.6262962429
 31
0.0
  0
LINE
  5
BC
330
1F
100
AcDbEntity
  8
0
  6
Continuous
 62
     7
370
    25
100
AcDbLine
 10
55.4875
 20
146.8762962429
 30
0.0
 11
59.9393398282
 21
146.8762962429
 31
0.0
  0
SPLINE
  5
BD
330
1F
100
AcDbEntity
  8
0
  6
Continuous
 62
     7
370
    25
100
AcDbSpline
210
0.0
220
0.0
230
1.0
 70
     8
 71
     3
 72
    14
 73
    10
 74
     0
 42
0.00000001
 43
0.00000001
 40
0.0
 40
0.0
 40
0.0
 40
0.0
 40
0.25
 40
0.25
 40
0.5
 40
0.5
 40
0.75
 40
0.75
 40
1.0
 40
1.0
 40
1.0
 40
1.0
 10
60.46966991411012
 20
148.1566263287855
 30
0.0
 10
60.5737999829732
 20
148.0524962599224
 30
0.0
 10
60.64619936715859
 20
147.9170465390169
 30
0.0
 10
60.70365820988663
 20
147.6281814297984
 30
0.0
 10
60.6886042647803
 20
147.4753361601283
 30
0.0
 10
60.57589469042698
 20
147.2032311771152
 30
0.0
 10
60.47846151043923
 20
147.0845085037909
 30
0.0
 10
60.23357349553054
 20
146.9208795635465
 30
0.0
 10
60.08660198385721
 20
146.8762962428956
 30
0.0
 10
59.93933982822019
 20
146.8762962428956
 30
0.0
  0
LINE
  5
BE
330
1F
100
AcDbEntity
  8
0
  6
Continuous
 62
     7
370
    25
100
AcDbLine
 10
58.0
 20
150.6262962429
 30
0.0
 11
58.0
 21
168.6174127664
 31
0.0
  0
LINE
  5
BF
330
1F
100
AcDbEntity
  8
0
  6
Continuous
 62
     7
370
    25
100
AcDbLine
 10
53.0
 20
168.6174127664
 30
0.0
 11
53.0
 21
149.3637962429
 31
0.0
  0
ARC
  5
C0
330
1F
100
AcDbEntity
  8
0
  6
Continuous
 62
     7
370
    25
100
AcDbCircle
 10
53.625
 20
168.6174127664
 30
0.0
 40
0.6250000000000151
100
AcDbArc
 50
135.0
 51
180.0
  0
ARC
  5
C1
330
1F
100
AcDbEntity
  8
0
  6
Continuous
 62
     7
370
    25
100
AcDbCircle
 10
57.375
 20
168.6174127664
 30
0.0
 40
0.62500000000001
100
AcDbArc
 50
0.0
 51
45.0
  0
ARC
  5
C2
330
1F
100
AcDbEntity
  8
0
  6
Continuous
 62
     7
370
    25
100
AcDbCircle
 10
55.4875
 20
149.3637962429
 30
0.0
 40
2.487499999999997
100
AcDbArc
 50
180.0
 51
270.0
  0
LINE
  5
C3
330
1F
100
AcDbEntity
  8
0
  6
Continuous
 62
     7
370
    25
100
AcDbLine
 10
57.25
 20
169.6262962429
 30
0.0
 11
55.5125
 21
169.6262962429
 31
0.0
  0
LINE
  5
C4
330
1F
100
AcDbEntity
  8
0
  6
Continuous
 62
     7
370
    25
100
AcDbLine
 10
57.25
 20
169.6262962429
 30
0.0
 11
57.8169417382
 21
169.0593545047
 31
0.0
  0
LINE
  5
C5
330
1F
100
AcDbEntity
  8
0
  6
Continuous
 62
     7
370
    25
100
AcDbLine
 10
55.5125
 20
169.6262962429
 30
0.0
 11
55.4875
 21
169.6262962429
 31
0.0
  0
LINE
  5
C6
330
1F
100
AcDbEntity
  8
0
  6
Continuous
 62
     7
370
    25
100
AcDbLine
 10
53.75
 20
169.6262962429
 30
0.0
 11
53.1830582618
 21
169.0593545047
 31
0.0
  0
LINE
  5
C7
330
1F
100
AcDbEntity
  8
0
  6
Continuous
 62
     7
370
    25
100
AcDbLine
 10
55.4875
 20
169.6262962429
 30
0.0
 11
53.75
 21
169.6262962429
 31
0.0
  0
LINE
  5
C8
330
1F
100
AcDbEntity
  8
0
  6
Continuous
 62
     7
370
    25
100
AcDbLine
 10
133.0
 20
168.3762962429
 30
0.0
 11
133.0
 21
169.6262962429
 31
0.0
  0
LINE
  5
C9
330
1F
100
AcDbEntity
  8
0
  6
Continuous
 62
     7
370
    25
100
AcDbLine
 10
133.0
 20
168.3762962429
 30
0.0
 11
58.0
 21
168.3762962429
 31
0.0
  0
LINE
  5
CA
330
1F
100
AcDbEntity
  8
0
  6
Continuous
 62
     7
370
    25
100
AcDbLine
 10
133.0
 20
169.6262962429
 30
0.0
 11
57.25
 21
169.6262962429
 31
0.0
  0
LINE
  5
CB
330
1F
100
AcDbEntity
  8
0
  6
Continuous
 62
     7
370
    25
100
AcDbLine
 10
133.0
 20
163.7424127664
 30
0.0
 11
133.0
 21
168.3762962429
 31
0.0
  0
LINE
  5
CC
330
1F
100
AcDbEntity
  8
0
  6
Continuous
 62
     7
370
    25
100
AcDbLine
 10
58.0
 20
163.3762962429
 30
0.0
 11
133.0
 21
163.3762962429
 31
0.0
  0
LINE
  5
CD
330
1F
100
AcDbEntity
  8
0
  6
Continuous
 62
     7
370
    25
100
AcDbLine
 10
133.0
 20
163.3762962429
 30
0.0
 11
133.0
 21
163.7424127664
 31
0.0
  0
ARC
  5
CE
330
1F
100
AcDbEntity
  8
0
  6
Continuous
 62
     7
370
    25
100
AcDbCircle
 10
51.75
 20
149.6262962429
 30
0.0
 40
1.25
100
AcDbArc
 50
0.0
 51
90.0
  0
SPLINE
  5
CF
330
1F
100
AcDbEntity
  8
0
  6
Continuous
 62
     7
370
    25
100
AcDbSpline
210
0.0
220
0.0
230
1.0
 70
     8
 71
     3
 72
    14
 73
    10
 74
     0
 42
0.00000001
 43
0.00000001
 40
0.0
 40
0.0
 40
0.0
 40
0.0
 40
0.0143914235546379
 40
0.0291056785898806
 40
0.0586515218862606
 40
0.1181173304667137
 40
0.2375028414500495
 40
0.4766238759164957
 40
1.0
 40
1.0
 40
1.0
 40
1.0
 10
52.70518113766747
 20
168.581477380563
 30
0.0
 10
52.69814518357485
 20
168.574368614117
 30
0.0
 10
52.68391544336776
 20
168.559991615861
 30
0.0
 10
52.65591700944063
 20
168.5303359456067
 30
0.0
 10
52.60776241180419
 20
168.4766399523797
 30
0.0
 10
52.5164811127565
 20
168.3639996875587
 30
0.0
 10
52.35234788941953
 20
168.1236427009893
 30
0.0
 10
52.06693895066739
 20
167.5792132500894
 30
0.0
 10
51.87900048691554
 20
167.0830072866447
 30
0.0
 10
51.75000000000002
 20
166.7424127664124
 30
0.0
  0
LINE
  5
D0
330
1F
100
AcDbEntity
  8
0
  6
Continuous
 62
     7
370
    25
100
AcDbLine
 10
53.1830582618
 20
169.0593545047
 30
0.0
 11
52.7056007477
 21
168.5818969906
 31
0.0
  0
LINE
  5
D1
330
1F
100
AcDbEntity
  8
0
  6
Continuous
 62
     7
370
    25
100
AcDbLine
 10
51.75
 20
150.8762962429
 30
0.0
 11
42.375
 21
150.8762962429
 31
0.0
  0
ARC
  5
D2
330
1F
100
AcDbEntity
  8
0
  6
Continuous
 62
     7
370
    25
100
AcDbCircle
 10
42.375
 20
160.2512962429
 30
0.0
 40
9.375
100
AcDbArc
 50
90.0
 51
270.0
  0
CIRCLE
  5
D3
330
1F
100
AcDbEntity
  8
0
  6
Continuous
 62
     7
370
    25
100
AcDbCircle
 10
43.884243653
 20
160.2512962429
 30
0.0
 40
3.375
  0
LINE
  5
D4
330
1F
100
AcDbEntity
  8
0
  6
Continuous
 62
     7
370
    25
100
AcDbLine
 10
53.75
 20
169.6262962429
 30
0.0
 11
42.375
 21
169.6262962429
 31
0.0
  0
LINE
  5
D5
330
1F
100
AcDbEntity
  8
0
  6
HIDDEN
 62
     7
370
    18
100
AcDbLine
 10
129.25
 20
169.6262962429
 30
0.0
 11
129.25
 21
168.8762962429
 31
0.0
  0
LINE
  5
D6
330
1F
100
AcDbEntity
  8
0
  6
HIDDEN
 62
     7
370
    18
100
AcDbLine
 10
64.25
 20
169.6262962429
 30
0.0
 11
64.25
 21
168.8762962429
 31
0.0
  0
LINE
  5
D7
330
1F
100
AcDbEntity
  8
0
  6
HIDDEN
 62
     7
370
    18
100
AcDbLine
 10
54.25
 20
168.6262962429
 30
0.0
 11
54.25
 21
169.6262962429
 31
0.0
  0
LINE
  5
D8
330
1F
100
AcDbEntity
  8
0
  6
HIDDEN
 62
     7
370
    18
100
AcDbLine
 10
58.625
 20
169.6262962429
 30
0.0
 11
58.625
 21
168.8762962429
 31
0.0
  0
LINE
  5
D9
330
1F
100
AcDbEntity
  8
0
  6
HIDDEN
 62
     7
370
    18
100
AcDbLine
 10
129.25
 20
168.8762962429
 30
0.0
 11
133.0
 21
168.8762962429
 31
0.0
  0
LINE
  5
DA
330
1F
100
AcDbEntity
  8
0
  6
HIDDEN
 62
     7
370
    18
100
AcDbLine
 10
64.25
 20
168.8762962429
 30
0.0
 11
58.625
 21
168.8762962429
 31
0.0
  0
ARC
  5
DB
330
1F
100
AcDbEntity
  8
0
  6
HIDDEN
 62
     7
370
    18
100
AcDbCircle
 10
58.0
 20
168.6262962429
 30
0.0
 40
3.75
100
AcDbArc
 50
180.0
 51
270.0
  0
LINE
  5
DC
330
1F
100
AcDbEntity
  8
0
  6
HIDDEN
 62
     7
370
    18
100
AcDbLine
 10
133.0
 20
164.8762962429
 30
0.0
 11
58.0
 21
164.8762962429
 31
0.0
  0
SPLINE
  5
DD
330
1F
100
AcDbEntity
  8
0
  6
HIDDEN
 62
     7
370
    18
100
AcDbSpline
210
0.0
220
0.0
230
1.0
 70
     8
 71
     3
 72
    16
 73
    12
 74
     0
 42
0.00000001
 43
0.00000001
 40
0.0
 40
0.0
 40
0.0
 40
0.0
 40
0.2180698949285959
 40
0.4016136083020831
 40
0.5514433439301297
 40
0.7857661262077373
 40
0.89380693925123
 40
0.9475006464336223
 40
0.9743339601398545
 40
0.9933855539522431
 40
1.0
 40
1.0
 40
1.0
 40
1.0
 10
51.75000000000002
 20
165.8585292899292
 30
0.0
 10
51.81214059559353
 20
166.0930202496319
 30
0.0
 10
51.92658330134397
 20
166.5248761024137
 30
0.0
 10
52.09941939493708
 20
167.1137605440698
 30
0.0
 10
52.30571604691749
 20
167.7105162757563
 30
0.0
 10
52.52321097049176
 20
168.2157648344311
 30
0.0
 10
52.75949088878978
 20
168.5889965584583
 30
0.0
 10
52.88935752549391
 20
168.7540226925153
 30
0.0
 10
52.96281498882348
 20
168.8369139487556
 30
0.0
 10
53.00313265764172
 20
168.8793006875067
 30
0.0
 10
53.0231850660276
 20
168.8994550373802
 30
0.0
 10
53.028352811972
 20
168.9046490548676
 30
0.0
  0
SPLINE
  5
DE
330
1F
100
AcDbEntity
  8
0
  6
HIDDEN
 62
     7
370
    18
100
AcDbSpline
210
0.0
220
0.0
230
1.0
 70
     8
 71
     3
 72
     9
 73
     5
 74
     0
 42
0.00000001
 43
0.00000001
 40
0.0
 40
0.0
 40
0.0
 40
0.0
 40
0.571428571428571
 40
1.0
 40
1.0
 40
1.0
 40
1.0
 10
53.36611652351683
 20
169.2424127664124
 30
0.0
 10
53.23388786464307
 20
169.1101841075386
 30
0.0
 10
53.0554536566851
 20
168.8260992595197
 30
0.0
 10
53.00000000000002
 20
168.4987789619645
 30
0.0
 10
53.00000000000002
 20
168.3585292899292
 30
0.0
  0
LINE
  5
DF
330
1F
100
AcDbEntity
  8
0
  6
HIDDEN
 62
     7
370
    18
100
AcDbLine
 10
58.625
 20
168.8762962429
 30
0.0
 11
54.25
 21
168.8762962429
 31
0.0
  0
INSERT
  5
EB
330
1F
100
AcDbEntity
  8
10
100
AcDbBlockReference
  2
SW_CENTERMARKSYMBOL_0
 10
43.884243653
 20
160.2512962429
 30
0.0
  0
LINE
  5
EC
330
1F
100
AcDbEntity
  8
0
  6
Continuous
 62
     7
370
    25
100
AcDbLine
 10
228.3762962429
 20
67.107233047
 30
0.0
 11
228.3762962429
 21
46.892766953
 31
0.0
  0
ARC
  5
ED
330
1F
100
AcDbEntity
  8
0
  6
Continuous
 62
     7
370
    25
100
AcDbCircle
 10
229.6262962429
 20
67.107233047
 30
0.0
 40
1.25
100
AcDbArc
 50
135.0
 51
180.0
  0
LINE
  5
EE
330
1F
100
AcDbEntity
  8
0
  6
Continuous
 62
     7
370
    25
100
AcDbLine
 10
228.7424127664
 20
67.9911165235
 30
0.0
 11
233.3762962429
 21
72.625
 31
0.0
  0
LINE
  5
EF
330
1F
100
AcDbEntity
  8
0
  6
Continuous
 62
     7
370
    25
100
AcDbLine
 10
233.3762962429
 20
72.625
 30
0.0
 11
234.6262962429
 21
72.625
 31
0.0
  0
LINE
  5
F0
330
1F
100
AcDbEntity
  8
0
  6
Continuous
 62
     7
370
    25
100
AcDbLine
 10
234.6262962429
 20
41.375
 30
0.0
 11
234.6262962429
 21
72.625
 31
0.0
  0
LINE
  5
F1
330
1F
100
AcDbEntity
  8
0
  6
Continuous
 62
     7
370
    25
100
AcDbLine
 10
233.3762962429
 20
41.375
 30
0.0
 11
228.7424127664
 21
46.0088834765
 31
0.0
  0
ARC
  5
F2
330
1F
100
AcDbEntity
  8
0
  6
Continuous
 62
     7
370
    25
100
AcDbCircle
 10
229.6262962429
 20
46.892766953
 30
0.0
 40
1.25
100
AcDbArc
 50
180.0
 51
225.0
  0
LINE
  5
F3
330
1F
100
AcDbEntity
  8
0
  6
Continuous
 62
     7
370
    25
100
AcDbLine
 10
233.8762962429
 20
63.25
 30
0.0
 11
233.8762962429
 21
50.75
 31
0.0
  0
LINE
  5
F4
330
1F
100
AcDbEntity
  8
0
  6
Continuous
 62
     7
370
    25
100
AcDbLine
 10
229.8762962429
 20
63.25
 30
0.0
 11
233.8762962429
 21
63.25
 31
0.0
  0
LINE
  5
F5
330
1F
100
AcDbEntity
  8
0
  6
Continuous
 62
     7
370
    25
100
AcDbLine
 10
229.8762962429
 20
50.75
 30
0.0
 11
229.8762962429
 21
63.25
 31
0.0
  0
LINE
  5
F6
330
1F
100
AcDbEntity
  8
0
  6
Continuous
 62
     7
370
    25
100
AcDbLine
 10
234.6262962429
 20
41.375
 30
0.0
 11
233.3762962429
 21
41.375
 31
0.0
  0
LINE
  5
F7
330
1F
100
AcDbEntity
  8
0
  6
Continuous
 62
     7
370
    25
100
AcDbLine
 10
233.8762962429
 20
50.75
 30
0.0
 11
229.8762962429
 21
50.75
 31
0.0
  0
ELLIPSE
  5
F8
330
1F
100
AcDbEntity
  8
0
  6
Continuous
 62
     7
370
    25
100
AcDbEllipse
 10
214.5959400065
 20
34.4875
 30
0.0
 11
0.0
 21
2.487500000000004
 31
0.0
210
0.0
220
0.0
230
1.0
 40
0.4142135624
 41
3.141592653589793
 42
4.712388980384695
  0
LINE
  5
F9
330
1F
100
AcDbEntity
  8
0
  6
Continuous
 62
     7
370
    25
100
AcDbLine
 10
214.3637962429
 20
32.0
 30
0.0
 11
214.5959400065
 21
32.0
 31
0.0
  0
LINE
  5
FA
330
1F
100
AcDbEntity
  8
0
  6
Continuous
 62
     7
370
    25
100
AcDbLine
 10
214.5959400065
 20
82.0
 30
0.0
 11
214.3637962429
 21
82.0
 31
0.0
  0
ELLIPSE
  5
FB
330
1F
100
AcDbEntity
  8
0
  6
Continuous
 62
     7
370
    25
100
AcDbEllipse
 10
214.5959400065
 20
79.5125
 30
0.0
 11
0.0
 21
2.487499999999997
 31
0.0
210
0.0
220
0.0
230
1.0
 40
0.4142135624
 41
4.712388980384695
 42
6.283185307179586
  0
SPLINE
  5
FC
330
1F
100
AcDbEntity
  8
0
  6
Continuous
 62
     7
370
    25
100
AcDbSpline
210
0.0
220
0.0
230
1.0
 70
     8
 71
     3
 72
    11
 73
     7
 74
     0
 42
0.00000001
 43
0.00000001
 40
-1.5707963267949
 40
-1.5707963267949
 40
-1.5707963267949
 40
-1.5707963267949
 40
-1.346396851538486
 40
-1.121997376282072
 40
-0.6731984257692448
 40
0.0
 40
0.0
 40
0.0
 40
0.0
 10
211.8762962428956
 20
34.48750000000002
 30
0.0
 10
211.8762962428956
 20
34.3014354350999
 30
0.0
 10
211.9183581621018
 20
33.92929528415365
 30
0.0
 10
212.1653596821236
 20
33.22276433749852
 30
0.0
 10
212.8783564830146
 20
32.32575877576541
 30
0.0
 10
213.8056025481952
 20
32.00000000000003
 30
0.0
 10
214.3637962428956
 20
32.00000000000003
 30
0.0
  0
SPLINE
  5
FD
330
1F
100
AcDbEntity
  8
0
  6
Continuous
 62
     7
370
    25
100
AcDbSpline
210
0.0
220
0.0
230
1.0
 70
     8
 71
     3
 72
    11
 73
     7
 74
     0
 42
0.00000001
 43
0.00000001
 40
-1.5707963267949
 40
-1.5707963267949
 40
-1.5707963267949
 40
-1.5707963267949
 40
-0.8975979010256551
 40
-0.448798950512828
 40
-0.224399475256414
 40
0.0000000000000001
 40
0.0000000000000001
 40
0.0000000000000001
 40
0.0000000000000001
 10
214.3637962428956
 20
82.00000000000001
 30
0.0
 10
213.8056025481952
 20
82.00000000000001
 30
0.0
 10
212.8783564830146
 20
81.67424122423463
 30
0.0
 10
212.1653596821236
 20
80.77723566250151
 30
0.0
 10
211.9183581621018
 20
80.07070471584639
 30
0.0
 10
211.8762962428956
 20
79.69856456490014
 30
0.0
 10
211.8762962428956
 20
79.51250000000002
 30
0.0
  0
LINE
  5
FE
330
1F
100
AcDbEntity
  8
0
  6
Continuous
 62
     7
370
    25
100
AcDbLine
 10
211.8762962429
 20
79.5125
 30
0.0
 11
211.8762962429
 21
34.4875
 31
0.0
  0
LINE
  5
FF
330
1F
100
AcDbEntity
  8
0
  6
Continuous
 62
     7
370
    25
100
AcDbLine
 10
215.6262962429
 20
79.5125
 30
0.0
 11
215.6262962429
 21
34.4875
 31
0.0
  0
LINE
  5
100
330
1F
100
AcDbEntity
  8
0
  6
Continuous
 62
     7
370
    25
100
AcDbLine
 10
233.6174127664
 20
82.0
 30
0.0
 11
214.5959400065
 21
82.0
 31
0.0
  0
LINE
  5
101
330
1F
100
AcDbEntity
  8
0
  6
Continuous
 62
     7
370
    25
100
AcDbLine
 10
214.5959400065
 20
32.0
 30
0.0
 11
233.6174127664
 21
32.0
 31
0.0
  0
ARC
  5
102
330
1F
100
AcDbEntity
  8
0
  6
Continuous
 62
     7
370
    25
100
AcDbCircle
 10
233.6174127664
 20
81.375
 30
0.0
 40
0.6250000000000352
100
AcDbArc
 50
45.0
 51
90.0
  0
ARC
  5
103
330
1F
100
AcDbEntity
  8
0
  6
Continuous
 62
     7
370
    25
100
AcDbCircle
 10
233.6174127664
 20
32.625
 30
0.0
 40
0.6250000000000352
100
AcDbArc
 50
270.0
 51
315.0
  0
LINE
  5
104
330
1F
100
AcDbEntity
  8
0
  6
Continuous
 62
     7
370
    25
100
AcDbLine
 10
234.6262962429
 20
81.25
 30
0.0
 11
234.0593545047
 21
81.8169417382
 31
0.0
  0
LINE
  5
105
330
1F
100
AcDbEntity
  8
0
  6
Continuous
 62
     7
370
    25
100
AcDbLine
 10
234.6262962429
 20
79.5125
 30
0.0
 11
234.6262962429
 21
81.25
 31
0.0
  0
LINE
  5
106
330
1F
100
AcDbEntity
  8
0
  6
Continuous
 62
     7
370
    25
100
AcDbLine
 10
234.6262962429
 20
34.4875
 30
0.0
 11
234.6262962429
 21
41.375
 31
0.0
  0
LINE
  5
107
330
1F
100
AcDbEntity
  8
0
  6
Continuous
 62
     7
370
    25
100
AcDbLine
 10
234.6262962429
 20
72.625
 30
0.0
 11
234.6262962429
 21
79.5125
 31
0.0
  0
LINE
  5
108
330
1F
100
AcDbEntity
  8
0
  6
Continuous
 62
     7
370
    25
100
AcDbLine
 10
234.6262962429
 20
32.75
 30
0.0
 11
234.0593545047
 21
32.1830582618
 31
0.0
  0
LINE
  5
109
330
1F
100
AcDbEntity
  8
0
  6
Continuous
 62
     7
370
    25
100
AcDbLine
 10
234.6262962429
 20
32.75
 30
0.0
 11
234.6262962429
 21
34.4875
 31
0.0
  0
LINE
  5
10A
330
1F
100
AcDbEntity
  8
0
  6
HIDDEN
 62
     7
370
    18
100
AcDbLine
 10
234.6262962429
 20
63.25
 30
0.0
 11
233.8762962429
 21
63.25
 31
0.0
  0
LINE
  5
10B
330
1F
100
AcDbEntity
  8
0
  6
HIDDEN
 62
     7
370
    18
100
AcDbLine
 10
234.6262962429
 20
50.75
 30
0.0
 11
233.8762962429
 21
50.75
 31
0.0
  0
LINE
  5
10C
330
1F
100
AcDbEntity
  8
0
  6
HIDDEN
 62
     7
370
    18
100
AcDbLine
 10
233.8762962429
 20
55.125
 30
0.0
 11
234.6262962429
 21
55.125
 31
0.0
  0
LINE
  5
10D
330
1F
100
AcDbEntity
  8
0
  6
HIDDEN
 62
     7
370
    18
100
AcDbLine
 10
234.6262962429
 20
58.875
 30
0.0
 11
233.8762962429
 21
58.875
 31
0.0
  0
LINE
  5
10E
330
1F
100
AcDbEntity
  8
0
  6
HIDDEN
 62
     7
370
    18
100
AcDbLine
 10
234.6262962429
 20
62.75
 30
0.0
 11
233.5818969906
 21
62.75
 31
0.0
  0
LINE
  5
10F
330
1F
100
AcDbEntity
  8
0
  6
HIDDEN
 62
     7
370
    18
100
AcDbLine
 10
233.9074762759
 20
59.25
 30
0.0
 11
234.6262962429
 21
59.25
 31
0.0
  0
LINE
  5
110
330
1F
100
AcDbEntity
  8
0
  6
HIDDEN
 62
     7
370
    18
100
AcDbLine
 10
233.5818969906
 20
51.25
 30
0.0
 11
234.6262962429
 21
51.25
 31
0.0
  0
LINE
  5
111
330
1F
100
AcDbEntity
  8
0
  6
HIDDEN
 62
     7
370
    18
100
AcDbLine
 10
234.6262962429
 20
54.75
 30
0.0
 11
233.9074762759
 21
54.75
 31
0.0
  0
SPLINE
  5
112
330
1F
100
AcDbEntity
  8
0
  6
HIDDEN
 62
     7
370
    18
100
AcDbSpline
210
0.0
220
0.0
230
1.0
 70
     8
 71
     3
 72
    16
 73
    12
 74
     0
 42
0.00000001
 43
0.00000001
 40
0.0
 40
0.0
 40
0.0
 40
0.0
 40
0.2180698949285959
 40
0.4016136083020831
 40
0.5514433439301297
 40
0.7857661262077373
 40
0.89380693925123
 40
0.9475006464336223
 40
0.9743339601398545
 40
0.9933855539522431
 40
1.0
 40
1.0
 40
1.0
 40
1.0
 10
230.8585292899292
 20
59.25000000000002
 30
0.0
 10
231.0930202496319
 20
59.24997143688819
 30
0.0
 10
231.5248761024137
 20
59.24991883295397
 30
0.0
 10
232.1137605440698
 20
59.25105712509136
 30
0.0
 10
232.7105162757563
 20
59.25062051073601
 30
0.0
 10
233.2157648344311
 20
59.24982443998885
 30
0.0
 10
233.5889965584583
 20
59.24986020385382
 30
0.0
 10
233.7540226925153
 20
59.25002235341034
 30
0.0
 10
233.8369139487556
 20
59.24990287555987
 30
0.0
 10
233.8793006875067
 20
59.2501690892997
 30
0.0
 10
233.8994550373802
 20
59.24744464895212
 30
0.0
 10
233.9046490548676
 20
59.24674252802549
 30
0.0
  0
SPLINE
  5
113
330
1F
100
AcDbEntity
  8
0
  6
HIDDEN
 62
     7
370
    18
100
AcDbSpline
210
0.0
220
0.0
230
1.0
 70
     8
 71
     3
 72
    19
 73
    15
 74
     0
 42
0.00000001
 43
0.00000001
 40
0.0
 40
0.0
 40
0.0
 40
0.0
 40
0.040106438322759
 40
0.0810394989886495
 40
0.1229570176227462
 40
0.1660309585205781
 40
0.2104464343701926
 40
0.2563705984980132
 40
0.3039620824946878
 40
0.3533801523733525
 40
0.4047812069607718
 40
0.4583109655967324
 40
0.6926534279398505
 40
1.0
 40
1.0
 40
1.0
 40
1.0
 10
233.9074764626891
 20
54.75000000001861
 30
0.0
 10
233.8752659208905
 20
54.74989861116682
 30
0.0
 10
233.8101809550178
 20
54.74969374376656
 30
0.0
 10
233.7043203382716
 20
54.74860753761185
 30
0.0
 10
233.5916932928721
 20
54.74756092657558
 30
0.0
 10
233.4717086655985
 20
54.74682152308951
 30
0.0
 10
233.3444327514683
 20
54.74670137380506
 30
0.0
 10
233.2096386451762
 20
54.74723700769074
 30
0.0
 10
233.0671231174794
 20
54.74830588427621
 30
0.0
 10
232.9166355187937
 20
54.74963462173161
 30
0.0
 10
232.7579548654774
 20
54.75089867262815
 30
0.0
 10
232.4053859853329
 20
54.75262528222452
 30
0.0
 10
231.7733597788063
 20
54.75092368987458
 30
0.0
 10
231.1896932748458
 20
54.7503343710375
 30
0.0
 10
230.8585292899292
 20
54.75000000000002
 30
0.0
  0
SPLINE
  5
114
330
1F
100
AcDbEntity
  8
0
  6
HIDDEN
 62
     7
370
    18
100
AcDbSpline
210
0.0
220
0.0
230
1.0
 70
     8
 71
     3
 72
    14
 73
    10
 74
     0
 42
0.00000001
 43
0.00000001
 40
0.0
 40
0.0
 40
0.0
 40
0.0
 40
0.0143914235546379
 40
0.0291056785898806
 40
0.0586515218862606
 40
0.1181173304667137
 40
0.2375028414500495
 40
0.4766238759164957
 40
1.0
 40
1.0
 40
1.0
 40
1.0
 10
233.581477380563
 20
62.75074967381576
 30
0.0
 10
233.574368614117
 20
62.75043521926219
 30
0.0
 10
233.559991615861
 20
62.74979925624346
 30
0.0
 10
233.5303359456067
 20
62.75011686031638
 30
0.0
 10
233.4766399523797
 20
62.74991430300278
 30
0.0
 10
233.3639996875587
 20
62.75001092344539
 30
0.0
 10
233.1236427009893
 20
62.74966153022314
 30
0.0
 10
232.5792132500894
 20
62.75002905171254
 30
0.0
 10
232.0830072866447
 20
62.75001182462761
 30
0.0
 10
231.7424127664124
 20
62.75000000000001
 30
0.0
  0
SPLINE
  5
115
330
1F
100
AcDbEntity
  8
0
  6
HIDDEN
 62
     7
370
    18
100
AcDbSpline
210
0.0
220
0.0
230
1.0
 70
     8
 71
     3
 72
    13
 73
     9
 74
     0
 42
0.00000001
 43
0.00000001
 40
0.0
 40
0.0
 40
0.0
 40
0.0
 40
0.2963471131201456
 40
0.5352632193503938
 40
0.6684858795610705
 40
0.7896345493734693
 40
0.8997917313724656
 40
1.0
 40
1.0
 40
1.0
 40
1.0
 10
231.7424127664124
 20
51.25000000000001
 30
0.0
 10
231.935212443755
 20
51.24980452528938
 30
0.0
 10
232.2834479129573
 20
51.24945145816544
 30
0.0
 10
232.7109895962362
 20
51.24790265517407
 30
0.0
 10
233.0172166227929
 20
51.24914414318857
 30
0.0
 10
233.2344769954051
 20
51.2503294847483
 30
0.0
 10
233.4232612212093
 20
51.25037220193416
 30
0.0
 10
233.5307120555439
 20
51.25012009333381
 30
0.0
 10
233.5818966109887
 20
51.25000000057964
 30
0.0
  0
LINE
  5
116
330
1F
100
AcDbEntity
  8
0
  6
HIDDEN
 62
     7
370
    18
100
AcDbLine
 10
215.8762962429
 20
62.75
 30
0.0
 11
214.6262962429
 21
64.0
 31
0.0
  0
LINE
  5
117
330
1F
100
AcDbEntity
  8
0
  6
HIDDEN
 62
     7
370
    18
100
AcDbLine
 10
231.7424127664
 20
62.75
 30
0.0
 11
215.8762962429
 21
62.75
 31
0.0
  0
LINE
  5
118
330
1F
100
AcDbEntity
  8
0
  6
HIDDEN
 62
     7
370
    18
100
AcDbLine
 10
214.6262962429
 20
58.0
 30
0.0
 11
215.8762962429
 21
59.25
 31
0.0
  0
LINE
  5
119
330
1F
100
AcDbEntity
  8
0
  6
HIDDEN
 62
     7
370
    18
100
AcDbLine
 10
215.8762962429
 20
59.25
 30
0.0
 11
230.8585292899
 21
59.25
 31
0.0
  0
LINE
  5
11A
330
1F
100
AcDbEntity
  8
0
  6
HIDDEN
 62
     7
370
    18
100
AcDbLine
 10
214.6262962429
 20
50.0
 30
0.0
 11
215.8762962429
 21
51.25
 31
0.0
  0
LINE
  5
11B
330
1F
100
AcDbEntity
  8
0
  6
HIDDEN
 62
     7
370
    18
100
AcDbLine
 10
215.8762962429
 20
51.25
 30
0.0
 11
231.7424127664
 21
51.25
 31
0.0
  0
LINE
  5
11C
330
1F
100
AcDbEntity
  8
0
  6
HIDDEN
 62
     7
370
    18
100
AcDbLine
 10
215.8762962429
 20
54.75
 30
0.0
 11
214.6262962429
 21
56.0
 31
0.0
  0
LINE
  5
11D
330
1F
100
AcDbEntity
  8
0
  6
HIDDEN
 62
     7
370
    18
100
AcDbLine
 10
230.8585292899
 20
54.75
 30
0.0
 11
215.8762962429
 21
54.75
 31
0.0
  0
LINE
  5
11E
330
1F
100
AcDbEntity
  8
0
  6
HIDDEN
 62
     7
370
    18
100
AcDbLine
 10
215.8762962429
 20
54.75
 30
0.0
 11
215.8762962429
 21
51.25
 31
0.0
  0
LINE
  5
11F
330
1F
100
AcDbEntity
  8
0
  6
HIDDEN
 62
     7
370
    18
100
AcDbLine
 10
215.8762962429
 20
62.75
 30
0.0
 11
215.8762962429
 21
59.25
 31
0.0
  0
LINE
  5
120
330
1F
100
AcDbEntity
  8
0
  6
HIDDEN
 62
     7
370
    18
100
AcDbLine
 10
221.8762962429
 20
62.75
 30
0.0
 11
221.8762962429
 21
59.25
 31
0.0
  0
LINE
  5
121
330
1F
100
AcDbEntity
  8
0
  6
HIDDEN
 62
     7
370
    18
100
AcDbLine
 10
228.6262962429
 20
59.25
 30
0.0
 11
228.6262962429
 21
62.75
 31
0.0
  0
LINE
  5
122
330
1F
100
AcDbEntity
  8
0
  6
HIDDEN
 62
     7
370
    18
100
AcDbLine
 10
221.8762962429
 20
54.75
 30
0.0
 11
221.8762962429
 21
51.25
 31
0.0
  0
LINE
  5
123
330
1F
100
AcDbEntity
  8
0
  6
HIDDEN
 62
     7
370
    18
100
AcDbLine
 10
228.6262962429
 20
51.25
 30
0.0
 11
228.6262962429
 21
54.75
 31
0.0
  0
ENDSEC
  0
SECTION
  2
OBJECTS
  0
DICTIONARY
  5
C
330
0
100
AcDbDictionary
281
     1
  3
ACAD_GROUP
350
D
  3
ACAD_LAYOUT
350
1A
  3
ACAD_MLINESTYLE
350
17
  3
ACAD_PLOTSETTINGS
350
19
  3
ACAD_PLOTSTYLENAME
350
E
  3
ACAD_SCALELIST
350
47
  3
DWGPROPS
350
124
  0
DICTIONARY
  5
D
102
{ACAD_REACTORS
330
C
102
}
330
C
100
AcDbDictionary
281
     1
  0
DICTIONARY
  5
1A
102
{ACAD_REACTORS
330
C
102
}
330
C
100
AcDbDictionary
281
     1
  3
Layout1
350
1E
  3
Layout2
350
26
  3
Model
350
22
  0
DICTIONARY
  5
17
102
{ACAD_REACTORS
330
C
102
}
330
C
100
AcDbDictionary
281
     1
  3
Standard
350
18
  0
DICTIONARY
  5
19
102
{ACAD_REACTORS
330
C
102
}
330
C
100
AcDbDictionary
281
     1
  0
ACDBDICTIONARYWDFLT
  5
E
102
{ACAD_REACTORS
330
C
102
}
330
C
100
AcDbDictionary
281
     1
  3
Normal
350
F
100
AcDbDictionaryWithDefault
340
F
  0
DICTIONARY
  5
47
102
{ACAD_REACTORS
330
C
102
}
330
C
100
AcDbDictionary
281
     1
  3
A0
350
48
  3
A1
350
49
  3
A2
350
4A
  3
A3
350
4B
  3
A4
350
4C
  3
A5
350
4D
  3
A6
350
4E
  3
A7
350
4F
  3
A8
350
50
  3
A9
350
51
  3
B0
350
52
  3
B1
350
53
  3
B2
350
54
  3
B3
350
55
  3
B4
350
56
  3
B5
350
57
  3
B6
350
58
  0
XRECORD
  5
124
102
{ACAD_REACTORS
330
C
102
}
330
C
100
AcDbXrecord
280
     1
  1
DWGPROPS COOKIE
  2

  3

  4

  6

  7

  8

  9

300
=
301
=
302
=
303
=
304
=
305
=
306
=
307
=
308
=
309
=
 40
0.0
 41
2461213.332599919
 42
2461213.332599919
  1

 90
        0
  0
LAYOUT
  5
1E
102
{ACAD_REACTORS
330
1A
102
}
330
1A
100
AcDbPlotSettings
  1

  2
none_device
  4

  6

 40
0.0
 41
0.0
 42
0.0
 43
0.0
 44
0.0
 45
0.0
 46
0.0
 47
0.0
 48
0.0
 49
0.0
140
0.0
141
0.0
142
1.0
143
1.0
 70
   688
 72
     1
 73
     0
 74
     5
  7

 75
    16
147
1.0
148
0.0
149
0.0
100
AcDbLayout
  1
Layout1
 70
     1
 71
     1
 10
0.0
 20
0.0
 11
420.0
 21
297.0
 12
0.0
 22
0.0
 32
0.0
 14
1.0000000000E+20
 24
1.0000000000E+20
 34
1.0000000000E+20
 15
-1.0000000000E+20
 25
-1.0000000000E+20
 35
-1.0000000000E+20
146
0.0
 13
0.0
 23
0.0
 33
0.0
 16
1.0
 26
0.0
 36
0.0
 17
0.0
 27
1.0
 37
0.0
 76
     0
330
1B
  0
LAYOUT
  5
26
102
{ACAD_REACTORS
330
1A
102
}
330
1A
100
AcDbPlotSettings
  1

  2
none_device
  4

  6

 40
0.0
 41
0.0
 42
0.0
 43
0.0
 44
0.0
 45
0.0
 46
0.0
 47
0.0
 48
0.0
 49
0.0
140
0.0
141
0.0
142
1.0
143
1.0
 70
   688
 72
     1
 73
     0
 74
     5
  7

 75
    16
147
1.0
148
0.0
149
0.0
100
AcDbLayout
  1
Layout2
 70
     1
 71
     2
 10
0.0
 20
0.0
 11
0.0
 21
0.0
 12
0.0
 22
0.0
 32
0.0
 14
0.0
 24
0.0
 34
0.0
 15
0.0
 25
0.0
 35
0.0
146
0.0
 13
0.0
 23
0.0
 33
0.0
 16
1.0
 26
0.0
 36
0.0
 17
0.0
 27
1.0
 37
0.0
 76
     0
330
23
  0
LAYOUT
  5
22
102
{ACAD_REACTORS
330
1A
102
}
330
1A
100
AcDbPlotSettings
  1

  2
none_device
  4
Letter_(8.50_x_11.00_Inches)
  6

 40
6.35
 41
6.35
 42
6.35000508
 43
6.35000508
 44
215.9
 45
279.4
 46
0.0
 47
0.0
 48
0.0
 49
0.0
140
0.0
141
0.0
142
1.0
143
1.0
 70
  1712
 72
     1
 73
     0
 74
     0
  7

 75
     0
147
1.0
148
0.0
149
0.0
100
AcDbLayout
  1
Model
 70
     1
 71
     0
 10
0.0
 20
0.0
 11
297.0
 21
210.0
 12
0.0
 22
0.0
 32
0.0
 14
0.0
 24
0.0
 34
0.0
 15
297.0
 25
210.0
 35
0.0
146
0.0
 13
0.0
 23
0.0
 33
0.0
 16
1.0
 26
0.0
 36
0.0
 17
0.0
 27
1.0
 37
0.0
 76
     0
330
1F
331
29
  0
MLINESTYLE
  5
18
102
{ACAD_REACTORS
330
17
102
}
330
17
100
AcDbMlineStyle
  2
Standard
 70
     0
  3

 62
   256
 51
90.0
 52
90.0
 71
     2
 49
0.5
 62
   256
  6
BYLAYER
 49
-0.5
 62
   256
  6
BYLAYER
  0
ACDBPLACEHOLDER
  5
F
102
{ACAD_REACTORS
330
E
102
}
330
E
  0
SCALE
  5
48
102
{ACAD_REACTORS
330
47
102
}
330
47
100
AcDbScale
 70
     0
300
1:1
140
1.0
141
1.0
290
     1
  0
SCALE
  5
49
102
{ACAD_REACTORS
330
47
102
}
330
47
100
AcDbScale
 70
     0
300
1:2
140
1.0
141
2.0
290
     0
  0
SCALE
  5
4A
102
{ACAD_REACTORS
330
47
102
}
330
47
100
AcDbScale
 70
     0
300
1:4
140
1.0
141
4.0
290
     0
  0
SCALE
  5
4B
102
{ACAD_REACTORS
330
47
102
}
330
47
100
AcDbScale
 70
     0
300
1:5
140
1.0
141
5.0
290
     0
  0
SCALE
  5
4C
102
{ACAD_REACTORS
330
47
102
}
330
47
100
AcDbScale
 70
     0
300
1:8
140
1.0
141
8.0
290
     0
  0
SCALE
  5
4D
102
{ACAD_REACTORS
330
47
102
}
330
47
100
AcDbScale
 70
     0
300
1:10
140
1.0
141
10.0
290
     0
  0
SCALE
  5
4E
102
{ACAD_REACTORS
330
47
102
}
330
47
100
AcDbScale
 70
     0
300
1:16
140
1.0
141
16.0
290
     0
  0
SCALE
  5
4F
102
{ACAD_REACTORS
330
47
102
}
330
47
100
AcDbScale
 70
     0
300
1:20
140
1.0
141
20.0
290
     0
  0
SCALE
  5
50
102
{ACAD_REACTORS
330
47
102
}
330
47
100
AcDbScale
 70
     0
300
1:30
140
1.0
141
30.0
290
     0
  0
SCALE
  5
51
102
{ACAD_REACTORS
330
47
102
}
330
47
100
AcDbScale
 70
     0
300
1:40
140
1.0
141
40.0
290
     0
  0
SCALE
  5
52
102
{ACAD_REACTORS
330
47
102
}
330
47
100
AcDbScale
 70
     0
300
1:50
140
1.0
141
50.0
290
     0
  0
SCALE
  5
53
102
{ACAD_REACTORS
330
47
102
}
330
47
100
AcDbScale
 70
     0
300
1:100
140
1.0
141
100.0
290
     0
  0
SCALE
  5
54
102
{ACAD_REACTORS
330
47
102
}
330
47
100
AcDbScale
 70
     0
300
2:1
140
2.0
141
1.0
290
     0
  0
SCALE
  5
55
102
{ACAD_REACTORS
330
47
102
}
330
47
100
AcDbScale
 70
     0
300
4:1
140
4.0
141
1.0
290
     0
  0
SCALE
  5
56
102
{ACAD_REACTORS
330
47
102
}
330
47
100
AcDbScale
 70
     0
300
8:1
140
8.0
141
1.0
290
     0
  0
SCALE
  5
57
102
{ACAD_REACTORS
330
47
102
}
330
47
100
AcDbScale
 70
     0
300
10:1
140
10.0
141
1.0
290
     0
  0
SCALE
  5
58
102
{ACAD_REACTORS
330
47
102
}
330
47
100
AcDbScale
 70
     0
300
100:1
140
100.0
141
1.0
290
     0
  0
ENDSEC
  0
EOF
