  0
SECTION
  2
HEADER
  9
$ACADVER
  1
AC1015
  9
$ACADMAINTVER
 70
     6
  9
$DWGCODEPAGE
  3
ANSI_936
  9
$INSBASE
 10
0.0
 20
0.0
 30
0.0
  9
$EXTMIN
 10
0.0
 20
0.0
 30
0.0
  9
$EXTMAX
 10
297.0
 20
210.0
 30
0.0
  9
$LIMMIN
 10
0.0
 20
0.0
  9
$LIMMAX
 10
297.0
 20
210.0
  9
$ORTHOMODE
 70
     0
  9
$REGENMODE
 70
     1
  9
$FILLMODE
 70
     1
  9
$QTEXTMODE
 70
     0
  9
$MIRRTEXT
 70
     1
  9
$LTSCALE
 40
1.0
  9
$ATTMODE
 70
     1
  9
$TEXTSIZE
 40
3.5
  9
$TRACEWID
 40
1.0
  9
$TEXTSTYLE
  7
Standard
  9
$CLAYER
  8
0
  9
$CELTYPE
  6
ByLayer
  9
$CECOLOR
 62
   256
  9
$CELTSCALE
 40
1.0
  9
$DISPSILH
 70
     0
  9
$DIMSCALE
 40
1.0
  9
$DIMASZ
 40
4.08
  9
$DIMEXO
 40
0.0
  9
$DIMDLI
 40
3.75
  9
$DIMRND
 40
0.0
  9
$DIMDLE
 40
0.0
  9
$DIMEXE
 40
2.0
  9
$DIMTP
 40
0.0
  9
$DIMTM
 40
0.0
  9
$DIMTXT
 40
3.5
  9
$DIMCEN
 40
2.5
  9
$DIMTSZ
 40
0.0
  9
$DIMTOL
 70
     0
  9
$DIMLIM
 70
     0
  9
$DIMTIH
 70
     1
  9
$DIMTOH
 70
     1
  9
$DIMSE1
 70
     0
  9
$DIMSE2
 70
     0
  9
$DIMTAD
 70
     1
  9
$DIMZIN
 70
     0
  9
$DIMBLK
  1

  9
$DIMASO
 70
     1
  9
$DIMSHO
 70
     1
  9
$DIMPOST
  1

  9
$DIMAPOST
  1

  9
$DIMALT
 70
     0
  9
$DIMALTD
 70
     3
  9
$DIMALTF
 40
0.0393700787
  9
$DIMLFAC
 40
2.0
  9
$DIMTOFL
 70
     1
  9
$DIMTVP
 40
0.0
  9
$DIMTIX
 70
     0
  9
$DIMSOXD
 70
     0
  9
$DIMSAH
 70
     0
  9
$DIMBLK1
  1

  9
$DIMBLK2
  1

  9
$DIMSTYLE
  2
ISO-25
  9
$DIMCLRD
 70
     0
  9
$DIMCLRE
 70
     0
  9
$DIMCLRT
 70
     0
  9
$DIMTFAC
 40
1.0
  9
$DIMGAP
 40
1.524
  9
$DIMJUST
 70
     0
  9
$DIMSD1
 70
     0
  9
$DIMSD2
 70
     0
  9
$DIMTOLJ
 70
     0
  9
$DIMTZIN
 70
     0
  9
$DIMALTZ
 70
     0
  9
$DIMALTTZ
 70
     0
  9
$DIMUPT
 70
     0
  9
$DIMDEC
 70
     2
  9
$DIMTDEC
 70
     2
  9
$DIMALTU
 70
     2
  9
$DIMALTTD
 70
     3
  9
$DIMTXSTY
  7
Standard
  9
$DIMAUNIT
 70
     0
  9
$DIMADEC
 70
     2
  9
$DIMALTRND
 40
0.0
  9
$DIMAZIN
 70
     0
  9
$DIMDSEP
 70
    44
  9
$DIMATFIT
 70
     3
  9
$DIMFRAC
 70
     0
  9
$DIMLDRBLK
  1

  9
$DIMLUNIT
 70
     2
  9
$DIMLWD
 70
    -2
  9
$DIMLWE
 70
    -2
  9
$DIMTMOVE
 70
     0
  9
$LUNITS
 70
     2
  9
$LUPREC
 70
     2
  9
$SKETCHINC
 40
1.0
  9
$FILLETRAD
 40
0.0
  9
$AUNITS
 70
     0
  9
$AUPREC
 70
     2
  9
$MENU
  1
.
  9
$ELEVATION
 40
0.0
  9
$PELEVATION
 40
0.0
  9
$THICKNESS
 40
0.0
  9
$LIMCHECK
 70
     0
  9
$CHAMFERA
 40
0.0
  9
$CHAMFERB
 40
0.0
  9
$CHAMFERC
 40
0.0
  9
$CHAMFERD
 40
0.0
  9
$SKPOLY
 70
     0
  9
$TDCREATE
 40
2461213.866954456
  9
$TDUCREATE
 40
2461213.533621123
  9
$TDUPDATE
 40
2461213.866954815
  9
$TDUUPDATE
 40
2461213.533621482
  9
$TDINDWG
 40
0.0000000116
  9
$TDUSRTIMER
 40
0.0000000116
  9
$USRTIMER
 70
     1
  9
$ANGBASE
 50
0.0
  9
$ANGDIR
 70
     0
  9
$PDMODE
 70
     0
  9
$PDSIZE
 40
-1.0
  9
$PLINEWID
 40
0.0
  9
$SPLFRAME
 70
     0
  9
$SPLINETYPE
 70
     6
  9
$SPLINESEGS
 70
     8
  9
$HANDSEED
  5
16D
  9
$SURFTAB1
 70
     6
  9
$SURFTAB2
 70
     6
  9
$SURFTYPE
 70
     6
  9
$SURFU
 70
     6
  9
$SURFV
 70
     6
  9
$UCSBASE
  2

  9
$UCSNAME
  2

  9
$UCSORG
 10
0.0
 20
0.0
 30
0.0
  9
$UCSXDIR
 10
1.0
 20
0.0
 30
0.0
  9
$UCSYDIR
 10
0.0
 20
1.0
 30
0.0
  9
$UCSORTHOREF
  2

  9
$UCSORTHOVIEW
 70
     0
  9
$UCSORGTOP
 10
0.0
 20
0.0
 30
0.0
  9
$UCSORGBOTTOM
 10
0.0
 20
0.0
 30
0.0
  9
$UCSORGLEFT
 10
0.0
 20
0.0
 30
0.0
  9
$UCSORGRIGHT
 10
0.0
 20
0.0
 30
0.0
  9
$UCSORGFRONT
 10
0.0
 20
0.0
 30
0.0
  9
$UCSORGBACK
 10
0.0
 20
0.0
 30
0.0
  9
$PUCSBASE
  2

  9
$PUCSNAME
  2

  9
$PUCSORG
 10
0.0
 20
0.0
 30
0.0
  9
$PUCSXDIR
 10
1.0
 20
0.0
 30
0.0
  9
$PUCSYDIR
 10
0.0
 20
1.0
 30
0.0
  9
$PUCSORTHOREF
  2

  9
$PUCSORTHOVIEW
 70
     0
  9
$PUCSORGTOP
 10
0.0
 20
0.0
 30
0.0
  9
$PUCSORGBOTTOM
 10
0.0
 20
0.0
 30
0.0
  9
$PUCSORGLEFT
 10
0.0
 20
0.0
 30
0.0
  9
$PUCSORGRIGHT
 10
0.0
 20
0.0
 30
0.0
  9
$PUCSORGFRONT
 10
0.0
 20
0.0
 30
0.0
  9
$PUCSORGBACK
 10
0.0
 20
0.0
 30
0.0
  9
$USERI1
 70
     0
  9
$USERI2
 70
     0
  9
$USERI3
 70
     0
  9
$USERI4
 70
     0
  9
$USERI5
 70
     0
  9
$USERR1
 40
0.0
  9
$USERR2
 40
0.0
  9
$USERR3
 40
0.0
  9
$USERR4
 40
0.0
  9
$USERR5
 40
0.0
  9
$WORLDVIEW
 70
     1
  9
$SHADEDGE
 70
     3
  9
$SHADEDIF
 70
    70
  9
$TILEMODE
 70
     1
  9
$MAXACTVP
 70
    64
  9
$PINSBASE
 10
0.0
 20
0.0
 30
0.0
  9
$PLIMCHECK
 70
     0
  9
$PEXTMIN
 10
1.0000000000E+20
 20
1.0000000000E+20
 30
1.0000000000E+20
  9
$PEXTMAX
 10
-1.0000000000E+20
 20
-1.0000000000E+20
 30
-1.0000000000E+20
  9
$PLIMMIN
 10
0.0
 20
0.0
  9
$PLIMMAX
 10
420.0
 20
297.0
  9
$UNITMODE
 70
     0
  9
$VISRETAIN
 70
     1
  9
$PLINEGEN
 70
     0
  9
$PSLTSCALE
 70
     1
  9
$TREEDEPTH
 70
  3020
  9
$CMLSTYLE
  2
Standard
  9
$CMLJUST
 70
     0
  9
$CMLSCALE
 40
20.0
  9
$PROXYGRAPHICS
 70
     1
  9
$MEASUREMENT
 70
     1
  9
$CELWEIGHT
370
    -1
  9
$ENDCAPS
280
     0
  9
$JOINSTYLE
280
     0
  9
$LWDISPLAY
290
     1
  9
$INSUNITS
 70
     4
  9
$HYPERLINKBASE
  1

  9
$STYLESHEET
  1

  9
$XEDIT
290
     1
  9
$CEPSNTYPE
380
     0
  9
$PSTYLEMODE
290
     1
  9
$FINGERPRINTGUID
  2
{7ed182d0-5019-43c5-9045-7e9c55b94168}
  9
$VERSIONGUID
  2
{FAEB1C32-E019-11D5-929B-00C0DF256EC4}
  9
$EXTNAMES
290
     1
  9
$PSVPSCALE
 40
0.0
  9
$OLESTARTUP
290
     0
  0
ENDSEC
  0
SECTION
  2
CLASSES
  0
CLASS
  1
ACDBDICTIONARYWDFLT
  2
AcDbDictionaryWithDefault
  3
ObjectDBX Classes
 90
        0
280
     0
281
     0
  0
CLASS
  1
VISUALSTYLE
  2
AcDbVisualStyle
  3
ObjectDBX Classes
 90
     4095
280
     0
281
     0
  0
CLASS
  1
MATERIAL
  2
AcDbMaterial
  3
ObjectDBX Classes
 90
     1153
280
     0
281
     0
  0
CLASS
  1
SCALE
  2
AcDbScale
  3
ObjectDBX Classes
 90
     1153
280
     0
281
     0
  0
CLASS
  1
TABLESTYLE
  2
AcDbTableStyle
  3
ObjectDBX Classes
 90
     4095
280
     0
281
     0
  0
CLASS
  1
MLEADERSTYLE
  2
AcDbMLeaderStyle
  3
ACDB_MLEADERSTYLE_CLASS
 90
     4095
280
     0
281
     0
  0
CLASS
  1
SUN
  2
AcDbSun
  3
SCENEOE
 90
     1153
280
     0
281
     0
  0
CLASS
  1
ACDBPLACEHOLDER
  2
AcDbPlaceHolder
  3
ObjectDBX Classes
 90
        0
280
     0
281
     0
  0
CLASS
  1
LAYOUT
  2
AcDbLayout
  3
ObjectDBX Classes
 90
        0
280
     0
281
     0
  0
ENDSEC
  0
SECTION
  2
TABLES
  0
TABLE
  2
VPORT
  5
8
330
0
100
AcDbSymbolTable
 70
     1
  0
VPORT
  5
29
330
8
100
AcDbSymbolTableRecord
100
AcDbViewportTableRecord
  2
*Active
 70
     0
 10
0.0
 20
0.0
 11
1.0
 21
1.0
 12
148.5
 22
105.0
 13
0.0
 23
0.0
 14
10.0
 24
10.0
 15
10.0
 25
10.0
 16
0.0
 26
0.0
 36
1.0
 17
0.0
 27
0.0
 37
0.0
 40
210.0
 41
1.4142857143
 42
50.0
 43
0.0
 44
0.0
 50
0.0
 51
0.0
 71
     0
 72
  2000
 73
     1
 74
     3
 75
     0
 76
     0
 77
     0
 78
     0
281
     0
 65
     1
110
0.0
120
0.0
130
0.0
111
1.0
121
0.0
131
0.0
112
0.0
122
1.0
132
0.0
 79
     0
146
0.0
  0
ENDTAB
  0
TABLE
  2
LTYPE
  5
5
330
0
100
AcDbSymbolTable
 70
     6
  0
LTYPE
  5
14
330
5
100
AcDbSymbolTableRecord
100
AcDbLinetypeTableRecord
  2
ByBlock
 70
     0
  3

 72
    65
 73
     0
 40
0.0
  0
LTYPE
  5
15
330
5
100
AcDbSymbolTableRecord
100
AcDbLinetypeTableRecord
  2
ByLayer
 70
     0
  3

 72
    65
 73
     0
 40
0.0
  0
LTYPE
  5
16
330
5
100
AcDbSymbolTableRecord
100
AcDbLinetypeTableRecord
  2
Continuous
 70
     0
  3
Solid line
 72
    65
 73
     0
 40
0.0
  0
LTYPE
  5
5E
330
5
100
AcDbSymbolTableRecord
100
AcDbLinetypeTableRecord
  2
HIDDEN
 70
     0
  3
Hidden __ __ __ __ __ __ __ __ __ __ __ __ __ __
 72
    65
 73
     2
 40
1.905
 49
1.27
 74
     0
 49
-0.635
 74
     0
  0
LTYPE
  5
5F
330
5
100
AcDbSymbolTableRecord
100
AcDbLinetypeTableRecord
  2
PHANTOM
 70
     0
  3
Phantom ______  __  __  ______  __  __  ______
 72
    65
 73
     6
 40
12.7
 49
6.35
 74
     0
 49
-1.27
 74
     0
 49
1.27
 74
     0
 49
-1.27
 74
     0
 49
1.27
 74
     0
 49
-1.27
 74
     0
  0
LTYPE
  5
60
330
5
100
AcDbSymbolTableRecord
100
AcDbLinetypeTableRecord
  2
CENTER
 70
     0
  3
Center ____ _ ____ _ ____ _ ____ _ ____ _ ____
 72
    65
 73
     4
 40
10.16
 49
6.35
 74
     0
 49
-1.27
 74
     0
 49
1.27
 74
     0
 49
-1.27
 74
     0
  0
LTYPE
  5
61
330
5
100
AcDbSymbolTableRecord
100
AcDbLinetypeTableRecord
  2
CENTERX2
 70
     0
  3
Center (2x) ________  __  ________  __  _____
 72
    65
 73
     4
 40
20.32
 49
12.7
 74
     0
 49
-2.54
 74
     0
 49
2.54
 74
     0
 49
-2.54
 74
     0
  0
LTYPE
  5
62
330
5
100
AcDbSymbolTableRecord
100
AcDbLinetypeTableRecord
  2
DOT2
 70
     0
  3
Dot (.5x) ........................................
 72
    65
 73
     2
 40
0.635
 49
0.0
 74
     0
 49
-0.635
 74
     0
  0
ENDTAB
  0
TABLE
  2
LAYER
  5
2
330
0
100
AcDbSymbolTable
 70
    14
  0
LAYER
  5
10
330
2
100
AcDbSymbolTableRecord
100
AcDbLayerTableRecord
  2
0
 70
     0
 62
     7
  6
Continuous
370
    -3
390
F
  0
LAYER
  5
63
330
2
100
AcDbSymbolTableRecord
100
AcDbLayerTableRecord
  2
SLD-0
 70
     0
 62
     7
  6
Continuous
370
    -3
390
F
  0
LAYER
  5
64
330
2
100
AcDbSymbolTableRecord
100
AcDbLayerTableRecord
  2
5
 70
     0
 62
     7
  6
Continuous
370
    -3
390
F
  0
LAYER
  5
65
330
2
100
AcDbSymbolTableRecord
100
AcDbLayerTableRecord
  2
9
 70
     0
 62
     7
  6
Continuous
370
    -3
390
F
  0
LAYER
  5
66
330
2
100
AcDbSymbolTableRecord
100
AcDbLayerTableRecord
  2
10
 70
     0
 62
     7
  6
Continuous
370
    -3
390
F
  0
LAYER
  5
67
330
2
100
AcDbSymbolTableRecord
100
AcDbLayerTableRecord
  2
轮廓实线层
 70
     0
 62
     7
  6
Continuous
370
    50
390
F
  0
LAYER
  5
68
330
2
100
AcDbSymbolTableRecord
100
AcDbLayerTableRecord
  2
细线层
 70
     0
 62
     4
  6
Continuous
370
    25
390
F
  0
LAYER
  5
69
330
2
100
AcDbSymbolTableRecord
100
AcDbLayerTableRecord
  2
中心线层
 70
     0
 62
     1
  6
CENTERX2
370
    25
390
F
  0
LAYER
  5
6A
330
2
100
AcDbSymbolTableRecord
100
AcDbLayerTableRecord
  2
虚线层
 70
     0
 62
     6
  6
HIDDEN
370
    25
390
F
  0
LAYER
  5
6B
330
2
100
AcDbSymbolTableRecord
100
AcDbLayerTableRecord
  2
剖面线层
 70
     0
 62
     2
  6
Continuous
370
    25
390
F
  0
LAYER
  5
6C
330
2
100
AcDbSymbolTableRecord
100
AcDbLayerTableRecord
  2
文字层
 70
     0
 62
     3
  6
Continuous
370
    25
390
F
  0
LAYER
  5
6D
330
2
100
AcDbSymbolTableRecord
100
AcDbLayerTableRecord
  2
标注层
 70
     0
 62
     4
  6
Continuous
370
    25
390
F
  0
LAYER
  5
6E
330
2
100
AcDbSymbolTableRecord
100
AcDbLayerTableRecord
  2
符号标注层
 70
     0
 62
    31
  6
Continuous
370
    25
390
F
  0
LAYER
  5
6F
330
2
100
AcDbSymbolTableRecord
100
AcDbLayerTableRecord
  2
双点划线层
 70
     0
 62
     6
  6
PHANTOM
370
    25
390
F
  0
ENDTAB
  0
TABLE
  2
STYLE
  5
3
330
0
100
AcDbSymbolTable
 70
     1
  0
STYLE
  5
11
330
3
100
AcDbSymbolTableRecord
100
AcDbTextStyleTableRecord
  2
Standard
 70
     0
 40
0.0
 41
1.0
 50
0.0
 71
     0
 42
3.5
  3
txt
  4

  0
ENDTAB
  0
TABLE
  2
VIEW
  5
6
330
0
100
AcDbSymbolTable
 70
     0
  0
ENDTAB
  0
TABLE
  2
UCS
  5
7
330
0
100
AcDbSymbolTable
 70
     0
  0
ENDTAB
  0
TABLE
  2
APPID
  5
9
330
0
100
AcDbSymbolTable
 70
     1
  0
APPID
  5
12
330
9
100
AcDbSymbolTableRecord
100
AcDbRegAppTableRecord
  2
ACAD
 70
     0
  0
ENDTAB
  0
TABLE
  2
DIMSTYLE
  5
A
330
0
100
AcDbSymbolTable
 70
     1
100
AcDbDimStyleTable
  0
DIMSTYLE
105
27
330
A
100
AcDbSymbolTableRecord
100
AcDbDimStyleTableRecord
  2
ISO-25
 70
     0
 41
2.5
 42
0.625
 43
3.75
 44
1.25
 73
     0
 74
     0
 77
     1
 78
     8
140
2.5
141
2.5
143
0.0393700787
147
0.625
171
     3
172
     1
178
     0
271
     2
272
     2
274
     3
278
    44
283
     0
284
     8
340
11
  0
ENDTAB
  0
TABLE
  2
BLOCK_RECORD
  5
1
330
0
100
AcDbSymbolTable
 70
     3
  0
BLOCK_RECORD
  5
1F
330
1
100
AcDbSymbolTableRecord
100
AcDbBlockTableRecord
  2
*Model_Space
340
22
  0
BLOCK_RECORD
  5
1B
330
1
100
AcDbSymbolTableRecord
100
AcDbBlockTableRecord
  2
*Paper_Space
340
1E
  0
BLOCK_RECORD
  5
23
330
1
100
AcDbSymbolTableRecord
100
AcDbBlockTableRecord
  2
*Paper_Space0
340
26
  0
BLOCK_RECORD
  5
B7
330
1
100
AcDbSymbolTableRecord
100
AcDbBlockTableRecord
  2
SW_CENTERMARKSYMBOL_0
340
0
102
{BLKREFS
331
C2
102
}
  0
BLOCK_RECORD
  5
160
330
1
100
AcDbSymbolTableRecord
100
AcDbBlockTableRecord
  2
SW_CENTERMARKSYMBOL_1
340
0
102
{BLKREFS
331
16B
102
}
  0
ENDTAB
  0
ENDSEC
  0
SECTION
  2
BLOCKS
  0
BLOCK
  5
20
330
1F
100
AcDbEntity
  8
0
100
AcDbBlockBegin
  2
*Model_Space
 70
     0
 10
0.0
 20
0.0
 30
0.0
  3
*Model_Space
  1

  0
ENDBLK
  5
21
330
1F
100
AcDbEntity
  8
0
100
AcDbBlockEnd
  0
BLOCK
  5
1C
330
1B
100
AcDbEntity
 67
     1
  8
0
100
AcDbBlockBegin
  2
*Paper_Space
 70
     0
 10
0.0
 20
0.0
 30
0.0
  3
*Paper_Space
  1

  0
ENDBLK
  5
1D
330
1B
100
AcDbEntity
 67
     1
  8
0
100
AcDbBlockEnd
  0
BLOCK
  5
24
330
23
100
AcDbEntity
  8
0
100
AcDbBlockBegin
  2
*Paper_Space0
 70
     0
 10
0.0
 20
0.0
 30
0.0
  3
*Paper_Space0
  1

  0
ENDBLK
  5
25
330
23
100
AcDbEntity
  8
0
100
AcDbBlockEnd
  0
BLOCK
  5
B8
330
B7
100
AcDbEntity
  8
0
100
AcDbBlockBegin
  2
SW_CENTERMARKSYMBOL_0
 70
     0
 10
0.0
 20
0.0
 30
0.0
  3
SW_CENTERMARKSYMBOL_0
  1

  0
LINE
  5
BA
330
B7
100
AcDbEntity
  8
10
 62
     0
100
AcDbLine
 10
0.0
 20
0.0
 30
0.0
 11
0.0
 21
2.5
 31
0.0
  0
LINE
  5
BB
330
B7
100
AcDbEntity
  8
10
 62
     0
100
AcDbLine
 10
0.0
 20
0.0
 30
0.0
 11
-2.5
 21
0.0
 31
0.0
  0
LINE
  5
BC
330
B7
100
AcDbEntity
  8
10
 62
     0
100
AcDbLine
 10
0.0
 20
0.0
 30
0.0
 11
0.0
 21
-2.5
 31
0.0
  0
LINE
  5
BD
330
B7
100
AcDbEntity
  8
10
 62
     0
100
AcDbLine
 10
0.0
 20
0.0
 30
0.0
 11
2.5
 21
0.0
 31
0.0
  0
LINE
  5
BE
330
B7
100
AcDbEntity
  8
10
 62
     0
100
AcDbLine
 10
0.0
 20
5.0
 30
0.0
 11
0.0
 21
8.713017735
 31
0.0
  0
LINE
  5
BF
330
B7
100
AcDbEntity
  8
10
 62
     0
100
AcDbLine
 10
-5.0
 20
0.0
 30
0.0
 11
-8.713017735
 21
0.0
 31
0.0
  0
LINE
  5
C0
330
B7
100
AcDbEntity
  8
10
 62
     0
100
AcDbLine
 10
0.0
 20
-5.0
 30
0.0
 11
0.0
 21
-8.713017735
 31
0.0
  0
LINE
  5
C1
330
B7
100
AcDbEntity
  8
10
 62
     0
100
AcDbLine
 10
5.0
 20
0.0
 30
0.0
 11
8.713017735
 21
0.0
 31
0.0
  0
ENDBLK
  5
B9
330
B7
100
AcDbEntity
  8
0
100
AcDbBlockEnd
  0
BLOCK
  5
161
330
160
100
AcDbEntity
  8
0
100
AcDbBlockBegin
  2
SW_CENTERMARKSYMBOL_1
 70
     0
 10
0.0
 20
0.0
 30
0.0
  3
SW_CENTERMARKSYMBOL_1
  1

  0
LINE
  5
163
330
160
100
AcDbEntity
  8
10
 62
     0
100
AcDbLine
 10
0.0
 20
0.0
 30
0.0
 11
0.0
 21
2.5
 31
0.0
  0
LINE
  5
164
330
160
100
AcDbEntity
  8
10
 62
     0
100
AcDbLine
 10
0.0
 20
0.0
 30
0.0
 11
-2.5
 21
0.0
 31
0.0
  0
LINE
  5
165
330
160
100
AcDbEntity
  8
10
 62
     0
100
AcDbLine
 10
0.0
 20
0.0
 30
0.0
 11
0.0
 21
-2.5
 31
0.0
  0
LINE
  5
166
330
160
100
AcDbEntity
  8
10
 62
     0
100
AcDbLine
 10
0.0
 20
0.0
 30
0.0
 11
2.5
 21
0.0
 31
0.0
  0
LINE
  5
167
330
160
100
AcDbEntity
  8
10
 62
     0
100
AcDbLine
 10
0.0
 20
5.0
 30
0.0
 11
0.0
 21
7.6775147792
 31
0.0
  0
LINE
  5
168
330
160
100
AcDbEntity
  8
10
 62
     0
100
AcDbLine
 10
-5.0
 20
0.0
 30
0.0
 11
-7.6775147792
 21
0.0
 31
0.0
  0
LINE
  5
169
330
160
100
AcDbEntity
  8
10
 62
     0
100
AcDbLine
 10
0.0
 20
-5.0
 30
0.0
 11
0.0
 21
-7.6775147792
 31
0.0
  0
LINE
  5
16A
330
160
100
AcDbEntity
  8
10
 62
     0
100
AcDbLine
 10
5.0
 20
0.0
 30
0.0
 11
7.6775147792
 21
0.0
 31
0.0
  0
ENDBLK
  5
162
330
160
100
AcDbEntity
  8
0
100
AcDbBlockEnd
  0
ENDSEC
  0
SECTION
  2
ENTITIES
  0
LINE
  5
70
330
1F
100
AcDbEntity
  8
0
  6
Continuous
 62
     7
370
    25
100
AcDbLine
 10
54.8934911986
 20
7.0
 30
0.0
 11
59.6272189967
 21
11.7337277981
 31
0.0
  0
LINE
  5
71
330
1F
100
AcDbEntity
  8
0
  6
Continuous
 62
     7
370
    25
100
AcDbLine
 10
55.2143340837
 20
43.3655475504
 30
0.0
 11
54.8934911986
 21
43.6863904355
 31
0.0
  0
LINE
  5
72
330
1F
100
AcDbEntity
  8
0
  6
Continuous
 62
     7
370
    25
100
AcDbLine
 10
111.1065088014
 20
43.6863904355
 30
0.0
 11
110.7856659163
 21
43.3655475504
 31
0.0
  0
LINE
  5
73
330
1F
100
AcDbEntity
  8
0
  6
Continuous
 62
     7
370
    25
100
AcDbLine
 10
106.3727810033
 20
11.7337277981
 30
0.0
 11
111.1065088014
 21
7.0
 31
0.0
  0
LINE
  5
74
330
1F
100
AcDbEntity
  8
0
  6
Continuous
 62
     7
370
    25
100
AcDbLine
 10
59.6272189967
 20
15.8757396215
 30
0.0
 11
67.0236686813
 21
15.8757396215
 31
0.0
  0
LINE
  5
75
330
1F
100
AcDbEntity
  8
0
  6
Continuous
 62
     7
370
    25
100
AcDbLine
 10
98.9763313187
 20
15.8757396215
 30
0.0
 11
106.3727810033
 21
15.8757396215
 31
0.0
  0
LINE
  5
76
330
1F
100
AcDbEntity
  8
0
  6
Continuous
 62
     7
370
    25
100
AcDbLine
 10
67.0236686813
 20
17.9467455332
 30
0.0
 11
98.9763313187
 21
17.9467455332
 31
0.0
  0
SPLINE
  5
77
330
1F
100
AcDbEntity
  8
0
  6
Continuous
 62
     7
370
    25
100
AcDbSpline
210
0.0
220
0.0
230
1.0
 70
     8
 71
     3
 72
     8
 73
     4
 74
     0
 42
0.00000001
 43
0.00000001
 40
0.0
 40
0.0
 40
0.0
 40
0.0
 40
1.0
 40
1.0
 40
1.0
 40
1.0
 10
56.91355544802882
 20
38.64025849553429
 30
0.0
 10
56.30141920604822
 20
39.3917011140724
 30
0.0
 10
55.63666864808779
 20
40.18640867752701
 30
0.0
 10
54.90828929617083
 20
41.03706115955874
 30
0.0
  0
SPLINE
  5
78
330
1F
100
AcDbEntity
  8
0
  6
Continuous
 62
     7
370
    25
100
AcDbSpline
210
0.0
220
0.0
230
1.0
 70
     8
 71
     3
 72
     8
 73
     4
 74
     0
 42
0.00000001
 43
0.00000001
 40
0.0
 40
0.0
 40
0.0
 40
0.0
 40
1.0
 40
1.0
 40
1.0
 40
1.0
 10
59.62721899673637
 20
38.90111145146803
 30
0.0
 10
58.90330575942765
 20
39.62777721986141
 30
0.0
 10
58.12445982090131
 20
40.40914563318233
 30
0.0
 10
57.27594520232373
 20
41.26000234908612
 30
0.0
  0
LINE
  5
79
330
1F
100
AcDbEntity
  8
0
  6
Continuous
 62
     7
370
    25
100
AcDbLine
 10
59.6272189967
 20
11.7337277981
 30
0.0
 11
59.6272189967
 21
38.9011114515
 31
0.0
  0
LINE
  5
7A
330
1F
100
AcDbEntity
  8
0
  6
Continuous
 62
     7
370
    25
100
AcDbLine
 10
54.8934911986
 20
7.0
 30
0.0
 11
54.8934911986
 21
43.6863904355
 31
0.0
  0
SPLINE
  5
7B
330
1F
100
AcDbEntity
  8
0
  6
Continuous
 62
     7
370
    25
100
AcDbSpline
210
0.0
220
0.0
230
1.0
 70
     8
 71
     3
 72
     8
 73
     4
 74
     0
 42
0.00000001
 43
0.00000001
 40
0.0
 40
0.0
 40
0.0
 40
0.0
 40
1.0
 40
1.0
 40
1.0
 40
1.0
 10
111.0917107038292
 20
41.03706115955874
 30
0.0
 10
110.3633313519226
 20
40.18640867753875
 30
0.0
 10
109.698580793962
 20
39.39170111408395
 30
0.0
 10
109.0864445519712
 20
38.64025849553433
 30
0.0
  0
LINE
  5
7C
330
1F
100
AcDbEntity
  8
0
  6
Continuous
 62
     7
370
    25
100
AcDbLine
 10
106.3727810033
 20
38.9011114515
 30
0.0
 11
106.3727810033
 21
11.7337277981
 31
0.0
  0
SPLINE
  5
7D
330
1F
100
AcDbEntity
  8
0
  6
Continuous
 62
     7
370
    25
100
AcDbSpline
210
0.0
220
0.0
230
1.0
 70
     8
 71
     3
 72
     8
 73
     4
 74
     0
 42
0.00000001
 43
0.00000001
 40
0.0
 40
0.0
 40
0.0
 40
0.0
 40
1.0
 40
1.0
 40
1.0
 40
1.0
 10
108.7240547976763
 20
41.26000234908612
 30
0.0
 10
107.8755401790987
 20
40.40914563318233
 30
0.0
 10
107.0966942405724
 20
39.62777721986141
 30
0.0
 10
106.3727810032636
 20
38.90111145146803
 30
0.0
  0
LINE
  5
7E
330
1F
100
AcDbEntity
  8
0
  6
Continuous
 62
     7
370
    25
100
AcDbLine
 10
111.1065088014
 20
43.6863904355
 30
0.0
 11
111.1065088014
 21
7.0
 31
0.0
  0
LINE
  5
7F
330
1F
100
AcDbEntity
  8
0
  6
Continuous
 62
     7
370
    25
100
AcDbLine
 10
65.6089748353
 20
29.9266074861
 30
0.0
 11
65.4270681859
 21
29.9266074861
 31
0.0
  0
LINE
  5
80
330
1F
100
AcDbEntity
  8
0
  6
Continuous
 62
     7
370
    25
100
AcDbLine
 10
65.6089748353
 20
29.9266074861
 30
0.0
 11
67.3002173656
 21
34.9474837833
 31
0.0
  0
ARC
  5
81
330
1F
100
AcDbEntity
  8
0
  6
Continuous
 62
     7
370
    25
100
AcDbCircle
 10
79.7697908002
 20
84.941990734
 30
0.0
 40
2.366863899064689
100
AcDbArc
 50
341.384308115
 51
74.9326120409
  0
ARC
  5
82
330
1F
100
AcDbEntity
  8
0
  6
Continuous
 62
     7
370
    25
100
AcDbCircle
 10
83.0
 20
96.940828429
 30
0.0
 40
10.0591715710249
100
AcDbArc
 50
232.9277708679
 51
254.9326120409
  0
ARC
  5
83
330
1F
100
AcDbEntity
  8
0
  6
Continuous
 62
     7
370
    25
100
AcDbCircle
 10
76.2227187538
 20
87.970622588
 30
0.0
 40
1.183431949532356
100
AcDbArc
 50
52.9277708679
 51
158.0314557532
  0
LINE
  5
84
330
1F
100
AcDbEntity
  8
0
  6
Continuous
 62
     7
370
    25
100
AcDbLine
 10
71.1656803283
 20
78.5976337403
 30
0.0
 11
75.1252165363
 21
88.41334153
 31
0.0
  0
LINE
  5
85
330
1F
100
AcDbEntity
  8
0
  6
Continuous
 62
     7
370
    25
100
AcDbLine
 10
67.0386249111
 20
68.457367272
 30
0.0
 11
71.1656803283
 21
78.5976337403
 31
0.0
  0
LINE
  5
86
330
1F
100
AcDbEntity
  8
0
  6
Continuous
 62
     7
370
    25
100
AcDbLine
 10
60.0671332592
 20
51.1750086016
 30
0.0
 11
67.0386249111
 21
68.457367272
 31
0.0
  0
ARC
  5
87
330
1F
100
AcDbEntity
  8
0
  6
Continuous
 62
     7
370
    25
100
AcDbCircle
 10
103.9672219605
 20
33.4662509178
 30
0.0
 40
47.33727798129345
100
AcDbArc
 50
158.0314557532
 51
173.7249823046
  0
ARC
  5
88
330
1F
100
AcDbEntity
  8
0
  6
Continuous
 62
     7
370
    25
100
AcDbCircle
 10
68.7988166056
 20
40.395714342
 30
0.0
 40
13.90532540700494
100
AcDbArc
 50
158.0314557532
 51
177.3564439835
  0
LINE
  5
89
330
1F
100
AcDbEntity
  8
0
  6
Continuous
 62
     7
370
    25
100
AcDbLine
 10
74.4661508499
 20
91.6153846561
 30
0.0
 11
55.9031655496
 21
45.5976619116
 31
0.0
  0
ARC
  5
8A
330
1F
100
AcDbEntity
  8
0
  6
Continuous
 62
     7
370
    25
100
AcDbCircle
 10
83.0
 20
96.940828429
 30
0.0
 40
10.05917157102486
100
AcDbArc
 50
328.0342812492
 51
211.9657187508
  0
LINE
  5
8B
330
1F
100
AcDbEntity
  8
0
  6
Continuous
 62
     7
370
    25
100
AcDbLine
 10
110.0968344504
 20
45.5976619116
 30
0.0
 11
91.5338491501
 21
91.6153846561
 31
0.0
  0
ARC
  5
8C
330
1F
100
AcDbEntity
  8
0
  6
Continuous
 62
     7
370
    25
100
AcDbCircle
 10
97.2011833944
 20
40.395714342
 30
0.0
 40
13.90532540700492
100
AcDbArc
 50
2.6435560165
 51
21.9685442468
  0
ARC
  5
8D
330
1F
100
AcDbEntity
  8
0
  6
Continuous
 62
     7
370
    25
100
AcDbCircle
 10
62.0327780395
 20
33.4662509178
 30
0.0
 40
47.33727798129341
100
AcDbArc
 50
6.2750176954
 51
21.9685442468
  0
LINE
  5
8E
330
1F
100
AcDbEntity
  8
0
  6
Continuous
 62
     7
370
    25
100
AcDbLine
 10
98.9613750889
 20
68.457367272
 30
0.0
 11
105.9328667408
 21
51.1750086016
 31
0.0
  0
LINE
  5
8F
330
1F
100
AcDbEntity
  8
0
  6
Continuous
 62
     7
370
    25
100
AcDbLine
 10
94.8343196717
 20
78.5976337403
 30
0.0
 11
98.9613750889
 21
68.457367272
 31
0.0
  0
LINE
  5
90
330
1F
100
AcDbEntity
  8
0
  6
Continuous
 62
     7
370
    25
100
AcDbLine
 10
90.8747834637
 20
88.41334153
 30
0.0
 11
94.8343196717
 21
78.5976337403
 31
0.0
  0
ARC
  5
91
330
1F
100
AcDbEntity
  8
0
  6
Continuous
 62
     7
370
    25
100
AcDbCircle
 10
89.7772812462
 20
87.970622588
 30
0.0
 40
1.183431949532356
100
AcDbArc
 50
21.9685442468
 51
127.0722291321
  0
ARC
  5
92
330
1F
100
AcDbEntity
  8
0
  6
Continuous
 62
     7
370
    25
100
AcDbCircle
 10
83.0
 20
96.940828429
 30
0.0
 40
10.05917157102491
100
AcDbArc
 50
285.0673879591
 51
307.0722291321
  0
ARC
  5
93
330
1F
100
AcDbEntity
  8
0
  6
Continuous
 62
     7
370
    25
100
AcDbCircle
 10
86.2302091998
 20
84.941990734
 30
0.0
 40
2.366863899064689
100
AcDbArc
 50
105.0673879591
 51
198.615691885
  0
LINE
  5
94
330
1F
100
AcDbEntity
  8
0
  6
Continuous
 62
     7
370
    25
100
AcDbLine
 10
83.8411369848
 20
79.0590882737
 30
0.0
 11
98.6997820495
 21
34.9474837833
 31
0.0
  0
ARC
  5
95
330
1F
100
AcDbEntity
  8
0
  6
Continuous
 62
     7
370
    25
100
AcDbCircle
 10
82.9999999843
 20
78.7757579282
 30
0.0
 40
0.8875739621492801
100
AcDbArc
 50
18.6156912393
 51
161.384308115
  0
LINE
  5
96
330
1F
100
AcDbEntity
  8
0
  6
Continuous
 62
     7
370
    25
100
AcDbLine
 10
67.3002173656
 20
34.9474837833
 30
0.0
 11
82.158862987
 21
79.0590882832
 31
0.0
  0
CIRCLE
  5
97
330
1F
100
AcDbEntity
  8
0
  6
Continuous
 62
     7
370
    25
100
AcDbCircle
 10
83.0
 20
96.940828429
 30
0.0
 40
6.213017735044758
  0
LINE
  5
98
330
1F
100
AcDbEntity
  8
0
  6
Continuous
 62
     7
370
    25
100
AcDbLine
 10
82.012822793
 20
84.1864431207
 30
0.0
 11
65.4270681859
 21
34.9474837833
 31
0.0
  0
LINE
  5
99
330
1F
100
AcDbEntity
  8
0
  6
Continuous
 62
     7
370
    25
100
AcDbLine
 10
100.5729318141
 20
34.9474837833
 30
0.0
 11
83.987177207
 21
84.1864431207
 31
0.0
  0
LINE
  5
9A
330
1F
100
AcDbEntity
  8
0
  6
Continuous
 62
     7
370
    25
100
AcDbLine
 10
100.5729318141
 20
29.9266074861
 30
0.0
 11
100.3910245168
 21
29.9266074861
 31
0.0
  0
LINE
  5
9B
330
1F
100
AcDbEntity
  8
0
  6
Continuous
 62
     7
370
    25
100
AcDbLine
 10
98.6997820495
 20
34.9474837833
 30
0.0
 11
100.3910245168
 21
29.9266074861
 31
0.0
  0
LINE
  5
9C
330
1F
100
AcDbEntity
  8
0
  6
Continuous
 62
     7
370
    25
100
AcDbLine
 10
102.2641743444
 20
29.9266074861
 30
0.0
 11
100.5729318141
 21
29.9266074861
 31
0.0
  0
LINE
  5
9D
330
1F
100
AcDbEntity
  8
0
  6
Continuous
 62
     7
370
    25
100
AcDbLine
 10
100.6722368752
 20
34.6526718813
 30
0.0
 11
100.5729318141
 21
34.9474837833
 31
0.0
  0
SPLINE
  5
9E
330
1F
100
AcDbEntity
  8
0
  6
Continuous
 62
     7
370
    25
100
AcDbSpline
210
0.0
220
0.0
230
1.0
 70
    24
 71
     3
 72
    12
 73
     8
 74
     0
 42
0.00000001
 43
0.00000001
 40
0.0
 40
0.0
 40
0.0
 40
0.0
 40
0.2500000000000006
 40
0.2500000000000006
 40
0.5000000000000011
 40
0.5000000000000011
 40
1.0
 40
1.0
 40
1.0
 40
1.0
 10
102.2641743444236
 20
29.92660748608537
 30
0.0
 10
102.1410222415492
 20
30.29221529407432
 30
0.0
 10
102.014831605736
 20
30.66684374678902
 30
0.0
 10
101.7565372856766
 20
31.43365501487781
 30
0.0
 10
101.6242091915877
 20
31.82650404697709
 30
0.0
 10
101.223266158777
 20
33.0168036840356
 30
0.0
 10
100.9478710931896
 20
33.83438279076901
 30
0.0
 10
100.6722368751741
 20
34.65267188127822
 30
0.0
  0
LINE
  5
9F
330
1F
100
AcDbEntity
  8
0
  6
Continuous
 62
     7
370
    25
100
AcDbLine
 10
65.4270681859
 20
29.9266074861
 30
0.0
 11
63.7358256556
 21
29.9266074861
 31
0.0
  0
LINE
  5
A0
330
1F
100
AcDbEntity
  8
0
  6
Continuous
 62
     7
370
    25
100
AcDbLine
 10
65.4270681859
 20
34.9474837833
 30
0.0
 11
65.3277631248
 21
34.6526718813
 31
0.0
  0
SPLINE
  5
A1
330
1F
100
AcDbEntity
  8
0
  6
Continuous
 62
     7
370
    25
100
AcDbSpline
210
0.0
220
0.0
230
1.0
 70
     8
 71
     3
 72
    21
 73
    17
 74
     0
 42
0.00000001
 43
0.00000001
 40
0.0
 40
0.0
 40
0.0
 40
0.0
 40
0.0646852650938866
 40
0.130402223067072
 40
0.1971535587721108
 40
0.264941290096681
 40
0.3337668142692332
 40
0.4036309888332025
 40
0.474534251579633
 40
0.5464767840646075
 40
0.6194587236969386
 40
0.6934804297549457
 40
0.7685428090662607
 40
0.8446477074435261
 40
0.9217983732860424
 40
1.0
 40
1.0
 40
1.0
 40
1.0
 10
65.32776302836098
 20
34.65267647228335
 30
0.0
 10
65.29216197743564
 20
34.54700127233733
 30
0.0
 10
65.22039205924096
 20
34.33396541361409
 30
0.0
 10
65.11194062508854
 20
34.01219793451825
 30
0.0
 10
65.00198032587163
 20
33.68599648298708
 30
0.0
 10
64.89063495135176
 20
33.35569900076335
 30
0.0
 10
64.77804202370757
 20
33.02167070727779
 30
0.0
 10
64.66434526715733
 20
32.68430798145535
 30
0.0
 10
64.54969656223754
 20
32.34403860770861
 30
0.0
 10
64.43425571119124
 20
32.00132436775162
 30
0.0
 10
64.31818916543564
 20
31.65665803280958
 30
0.0
 10
64.20167521620927
 20
31.3105809871638
 30
0.0
 10
64.08488379290911
 20
30.96362260343602
 30
0.0
 10
63.96805317408499
 20
30.61653793561606
 30
0.0
 10
63.85119733772378
 20
30.26940895991402
 30
0.0
 10
63.77440140546459
 20
30.04140317025707
 30
0.0
 10
63.73574367644845
 20
29.92662904392809
 30
0.0
  0
LINE
  5
A2
330
1F
100
AcDbEntity
  8
0
  6
Continuous
 62
     7
370
    25
100
AcDbLine
 10
65.3559646405
 20
34.7363951316
 30
0.0
 11
59.6272189967
 21
34.7363951316
 31
0.0
  0
LINE
  5
A3
330
1F
100
AcDbEntity
  8
0
  6
Continuous
 62
     7
370
    25
100
AcDbLine
 10
67.0236686813
 20
15.8757396215
 30
0.0
 11
67.0236686813
 21
34.1264798709
 31
0.0
  0
LINE
  5
A4
330
1F
100
AcDbEntity
  8
0
  6
Continuous
 62
     7
370
    25
100
AcDbLine
 10
98.9763313187
 20
34.126478104
 30
0.0
 11
98.9763313187
 21
15.8757396215
 31
0.0
  0
LINE
  5
A5
330
1F
100
AcDbEntity
  8
0
  6
Continuous
 62
     7
370
    25
100
AcDbLine
 10
106.3727810033
 20
34.7363951316
 30
0.0
 11
100.6440353595
 21
34.7363951316
 31
0.0
  0
LINE
  5
A6
330
1F
100
AcDbEntity
  8
0
  6
Continuous
 62
     7
370
    25
100
AcDbLine
 10
98.9763313187
 20
32.7396449023
 30
0.0
 11
67.0236686813
 21
32.7396449023
 31
0.0
  0
SPLINE
  5
A7
330
1F
100
AcDbEntity
  8
0
  6
HIDDEN
 62
     7
370
    18
100
AcDbSpline
210
0.0
220
0.0
230
1.0
 70
     8
 71
     3
 72
     8
 73
     4
 74
     0
 42
0.00000001
 43
0.00000001
 40
0.0
 40
0.0
 40
0.0
 40
0.0
 40
1.0
 40
1.0
 40
1.0
 40
1.0
 10
57.26809309776836
 20
41.21281468138391
 30
0.0
 10
58.1201928956111
 20
40.3554006035111
 30
0.0
 10
58.90156808737078
 20
39.56829910320551
 30
0.0
 10
59.62721899673637
 20
38.83639546053072
 30
0.0
  0
SPLINE
  5
A8
330
1F
100
AcDbEntity
  8
0
  6
HIDDEN
 62
     7
370
    18
100
AcDbSpline
210
0.0
220
0.0
230
1.0
 70
     8
 71
     3
 72
    12
 73
     8
 74
     0
 42
0.00000001
 43
0.00000001
 40
0.0
 40
0.0
 40
0.0
 40
0.0
 40
0.4999999999999998
 40
0.4999999999999998
 40
0.7499999999999999
 40
0.7499999999999999
 40
1.0
 40
1.0
 40
1.0
 40
1.0
 10
57.2680930977683
 20
41.21281468138396
 30
0.0
 10
57.24632819143756
 20
41.08160783968707
 30
0.0
 10
57.20000285651615
 20
40.80318733021171
 30
0.0
 10
57.10567787186584
 20
40.16400840071356
 30
0.0
 10
57.07012023809848
 20
39.91339342178495
 30
0.0
 10
56.99388007531329
 20
39.33216504650436
 30
0.0
 10
56.95369478156569
 20
39.00529523954677
 30
0.0
 10
56.91355542856597
 20
38.64025831853517
 30
0.0
  0
SPLINE
  5
A9
330
1F
100
AcDbEntity
  8
0
  6
HIDDEN
 62
     7
370
    18
100
AcDbSpline
210
0.0
220
0.0
230
1.0
 70
     8
 71
     3
 72
    16
 73
    12
 74
     0
 42
0.00000001
 43
0.00000001
 40
0.0
 40
0.0
 40
0.0
 40
0.0
 40
0.2500000000000001
 40
0.2500000000000001
 40
0.5000000000000002
 40
0.5000000000000002
 40
0.6250000000000002
 40
0.6250000000000002
 40
0.7500000000000003
 40
0.7500000000000003
 40
1.0
 40
1.0
 40
1.0
 40
1.0
 10
55.21433408367239
 20
43.36554755043705
 30
0.0
 10
55.21433408367239
 20
43.36554755043704
 30
0.0
 10
55.20394473507874
 20
43.31913692118356
 30
0.0
 10
55.16560134127103
 20
43.13476204308686
 30
0.0
 10
55.13761638625689
 20
42.99684368569965
 30
0.0
 10
55.08808213029964
 20
42.71581832190322
 30
0.0
 10
55.07034654537784
 20
42.60971591668616
 30
0.0
 10
55.03392359557336
 20
42.37066081966417
 30
0.0
 10
55.01517459905925
 20
42.23724650180711
 30
0.0
 10
54.96100931529033
 20
41.79606287476713
 30
0.0
 10
54.92730856594164
 20
41.44898766422268
 30
0.0
 10
54.90828928871402
 20
41.03706099805668
 30
0.0
  0
SPLINE
  5
AA
330
1F
100
AcDbEntity
  8
0
  6
HIDDEN
 62
     7
370
    18
100
AcDbSpline
210
0.0
220
0.0
230
1.0
 70
     8
 71
     3
 72
    14
 73
    10
 74
     0
 42
0.00000001
 43
0.00000001
 40
0.0
 40
0.0
 40
0.0
 40
0.0
 40
0.1367540437477133
 40
0.2735456337122052
 40
0.413895705720284
 40
0.5542619824567087
 40
0.7323026815609815
 40
0.9103559153696366
 40
1.0
 40
1.0
 40
1.0
 40
1.0
 10
111.091710711286
 20
41.03706099805667
 30
0.0
 10
111.0788741646299
 20
41.24977316888317
 30
0.0
 10
111.0531975470069
 20
41.67525591127563
 30
0.0
 10
110.9929251421164
 20
42.18542862302147
 30
0.0
 10
110.9314546146854
 20
42.6083062789631
 30
0.0
 10
110.8677978648445
 20
42.96694350335428
 30
0.0
 10
110.8165179856461
 20
43.22548133932314
 30
0.0
 10
110.7863750457118
 20
43.36186133115898
 30
0.0
 10
110.7889530033431
 20
43.35071523697967
 30
0.0
 10
110.7898162867462
 20
43.34698273261341
 30
0.0
  0
SPLINE
  5
AB
330
1F
100
AcDbEntity
  8
0
  6
HIDDEN
 62
     7
370
    18
100
AcDbSpline
210
0.0
220
0.0
230
1.0
 70
     8
 71
     3
 72
    12
 73
     8
 74
     0
 42
0.00000001
 43
0.00000001
 40
0.0
 40
0.0
 40
0.0
 40
0.0
 40
0.5
 40
0.5
 40
0.75
 40
0.75
 40
1.0
 40
1.0
 40
1.0
 40
1.0
 10
109.086444571434
 20
38.64025831853517
 30
0.0
 10
109.0063510858709
 20
39.36864772140525
 30
0.0
 10
108.9273132229716
 20
39.93999722290776
 30
0.0
 10
108.8322243415474
 20
40.58502512105599
 30
0.0
 10
108.8043758354174
 20
40.76390209673662
 30
0.0
 10
108.7597269486687
 20
41.04453032360406
 30
0.0
 10
108.7427645840727
 20
41.14736059116863
 30
0.0
 10
108.7319069022317
 20
41.21281468138396
 30
0.0
  0
SPLINE
  5
AC
330
1F
100
AcDbEntity
  8
0
  6
HIDDEN
 62
     7
370
    18
100
AcDbSpline
210
0.0
220
0.0
230
1.0
 70
     8
 71
     3
 72
     8
 73
     4
 74
     0
 42
0.00000001
 43
0.00000001
 40
0.0
 40
0.0
 40
0.0
 40
0.0
 40
1.0
 40
1.0
 40
1.0
 40
1.0
 10
106.3727810032636
 20
38.83639546053072
 30
0.0
 10
107.0984319126292
 20
39.56829910320551
 30
0.0
 10
107.8798071043889
 20
40.35540060351111
 30
0.0
 10
108.7319069022316
 20
41.21281468138391
 30
0.0
  0
LINE
  5
AD
330
1F
100
AcDbEntity
  8
0
  6
HIDDEN
 62
     7
370
    18
100
AcDbLine
 10
59.6272189967
 20
34.642741702
 30
0.0
 11
65.3244182224
 21
34.642741702
 31
0.0
  0
LINE
  5
AE
330
1F
100
AcDbEntity
  8
0
  6
HIDDEN
 62
     7
370
    18
100
AcDbLine
 10
64.0730326327
 20
30.9276907064
 30
0.0
 11
67.0236686813
 21
30.9276907064
 31
0.0
  0
LINE
  5
AF
330
1F
100
AcDbEntity
  8
0
  6
HIDDEN
 62
     7
370
    18
100
AcDbLine
 10
100.6755817776
 20
34.642741702
 30
0.0
 11
106.3727810033
 21
34.642741702
 31
0.0
  0
LINE
  5
B0
330
1F
100
AcDbEntity
  8
0
  6
HIDDEN
 62
     7
370
    18
100
AcDbLine
 10
98.9763313187
 20
30.9276907064
 30
0.0
 11
101.9269673673
 21
30.9276907064
 31
0.0
  0
LINE
  5
B1
330
1F
100
AcDbEntity
  8
0
  6
HIDDEN
 62
     7
370
    18
100
AcDbLine
 10
67.0236686813
 20
30.030782769
 30
0.0
 11
98.9763313187
 21
30.030782769
 31
0.0
  0
LINE
  5
B2
330
1F
100
AcDbEntity
  8
0
  6
HIDDEN
 62
     7
370
    18
100
AcDbLine
 10
100.6755817776
 20
34.642741702
 30
0.0
 11
100.6722368752
 21
34.6526718813
 31
0.0
  0
LINE
  5
B3
330
1F
100
AcDbEntity
  8
0
  6
HIDDEN
 62
     7
370
    18
100
AcDbLine
 10
65.3277631248
 20
34.6526718813
 30
0.0
 11
65.3244182224
 21
34.642741702
 31
0.0
  0
LINE
  5
B4
330
1F
100
AcDbEntity
  8
0
  6
HIDDEN
 62
     7
370
    18
100
AcDbLine
 10
110.7856659163
 20
43.3655475504
 30
0.0
 11
110.7784586926
 21
43.3583403267
 31
0.0
  0
LINE
  5
B5
330
1F
100
AcDbEntity
  8
0
  6
HIDDEN
 62
     7
370
    18
100
AcDbLine
 10
54.8934911986
 20
20.1656804385
 30
0.0
 11
111.1065088014
 21
20.1656804385
 31
0.0
  0
LINE
  5
B6
330
1F
100
AcDbEntity
  8
0
  6
HIDDEN
 62
     7
370
    18
100
AcDbLine
 10
111.1065088014
 20
30.520709997
 30
0.0
 11
54.8934911986
 21
30.520709997
 31
0.0
  0
INSERT
  5
C2
330
1F
100
AcDbEntity
  8
10
100
AcDbBlockReference
  2
SW_CENTERMARKSYMBOL_0
 10
83.0
 20
96.940828429
 30
0.0
  0
LINE
  5
C3
330
1F
100
AcDbEntity
  8
0
  6
Continuous
 62
     7
370
    25
100
AcDbLine
 10
93.059171571
 20
148.5325445448
 30
0.0
 11
93.059171571
 21
167.4674557373
 31
0.0
  0
LINE
  5
C4
330
1F
100
AcDbEntity
  8
0
  6
Continuous
 62
     7
370
    25
100
AcDbLine
 10
72.940828429
 20
167.4674557373
 30
0.0
 11
72.940828429
 21
148.5325445448
 31
0.0
  0
LINE
  5
C5
330
1F
100
AcDbEntity
  8
0
  6
Continuous
 62
     7
370
    25
100
AcDbLine
 10
111.1065088014
 20
176.3431952178
 30
0.0
 11
106.3727810033
 21
171.6094674196
 31
0.0
  0
LINE
  5
C6
330
1F
100
AcDbEntity
  8
0
  6
Continuous
 62
     7
370
    25
100
AcDbLine
 10
106.3727810033
 20
144.3905325804
 30
0.0
 11
111.1065088014
 21
139.6568047822
 31
0.0
  0
LINE
  5
C7
330
1F
100
AcDbEntity
  8
0
  6
Continuous
 62
     7
370
    25
100
AcDbLine
 10
54.8934911986
 20
139.6568047822
 30
0.0
 11
59.6272189967
 21
144.3905325804
 31
0.0
  0
LINE
  5
C8
330
1F
100
AcDbEntity
  8
0
  6
Continuous
 62
     7
370
    25
100
AcDbLine
 10
59.6272189967
 20
171.6094674196
 30
0.0
 11
54.8934911986
 21
176.3431952178
 31
0.0
  0
LINE
  5
C9
330
1F
100
AcDbEntity
  8
0
  6
Continuous
 62
     7
370
    25
100
AcDbLine
 10
93.059171571
 20
148.5325445448
 30
0.0
 11
72.940828429
 21
148.5325445448
 31
0.0
  0
LINE
  5
CA
330
1F
100
AcDbEntity
  8
0
  6
Continuous
 62
     7
370
    25
100
AcDbLine
 10
93.059171571
 20
167.4674557373
 30
0.0
 11
72.940828429
 21
167.4674557373
 31
0.0
  0
LINE
  5
CB
330
1F
100
AcDbEntity
  8
0
  6
Continuous
 62
     7
370
    25
100
AcDbLine
 10
110.0968344504
 20
148.5325445448
 30
0.0
 11
93.059171571
 21
148.5325445448
 31
0.0
  0
LINE
  5
CC
330
1F
100
AcDbEntity
  8
0
  6
Continuous
 62
     7
370
    25
100
AcDbLine
 10
93.059171571
 20
167.4674557373
 30
0.0
 11
110.0968344504
 21
167.4674557373
 31
0.0
  0
LINE
  5
CD
330
1F
100
AcDbEntity
  8
0
  6
Continuous
 62
     7
370
    25
100
AcDbLine
 10
72.940828429
 20
148.5325445448
 30
0.0
 11
55.9031655496
 21
148.5325445448
 31
0.0
  0
LINE
  5
CE
330
1F
100
AcDbEntity
  8
0
  6
Continuous
 62
     7
370
    25
100
AcDbLine
 10
55.9031655496
 20
167.4674557373
 30
0.0
 11
72.940828429
 21
167.4674557373
 31
0.0
  0
SPLINE
  5
CF
330
1F
100
AcDbEntity
  8
0
  6
Continuous
 62
     7
370
    25
100
AcDbSpline
210
0.0
220
0.0
230
1.0
 70
     8
 71
     3
 72
    26
 73
    22
 74
     0
 42
0.00000001
 43
0.00000001
 40
0.0
 40
0.0
 40
0.0
 40
0.0
 40
0.1250000000000001
 40
0.1250000000000001
 40
0.2500000000000002
 40
0.2500000000000002
 40
0.3125000000000002
 40
0.3125000000000002
 40
0.3750000000000002
 40
0.3750000000000002
 40
0.5000000000000001
 40
0.5000000000000001
 40
0.6250000000000001
 40
0.6250000000000001
 40
0.6875
 40
0.6875
 40
0.75
 40
0.75
 40
0.8750000000000001
 40
0.8750000000000001
 40
1.0
 40
1.0
 40
1.0
 40
1.0
 10
111.091710711286
 20
167.4674557373348
 30
0.0
 10
111.0726288503712
 20
166.7454313256584
 30
0.0
 10
111.0389735444583
 20
165.9989680844726
 30
0.0
 10
110.9673945742993
 20
164.4667251065638
 30
0.0
 10
110.9291837034666
 20
163.6808044091998
 30
0.0
 10
110.8790459802234
 20
162.4748925495942
 30
0.0
 10
110.863466283483
 20
162.0677627910409
 30
0.0
 10
110.8361614202
 20
161.2550045087671
 30
0.0
 10
110.8243768613628
 20
160.8481333741508
 30
0.0
 10
110.795694934573
 20
159.6261055084127
 30
0.0
 10
110.785594196668
 20
158.8095429025805
 30
0.0
 10
110.7857384159106
 20
157.1727539146603
 30
0.0
 10
110.7959887629823
 20
156.3525282113504
 30
0.0
 10
110.8252507605049
 20
155.1192938004547
 30
0.0
 10
110.8372674811305
 20
154.7090525385925
 30
0.0
 10
110.8647043811869
 20
153.8986747130879
 30
0.0
 10
110.8801530490423
 20
153.4973100044516
 30
0.0
 10
110.9298795800654
 20
152.3049050099455
 30
0.0
 10
110.9677670475187
 20
151.5254325530566
 30
0.0
 10
111.0389681791111
 20
150.0010151482275
 30
0.0
 10
111.0725928687856
 20
149.2559300103239
 30
0.0
 10
111.0917107038292
 20
148.5325445448174
 30
0.0
  0
LINE
  5
D0
330
1F
100
AcDbEntity
  8
0
  6
Continuous
 62
     7
370
    25
100
AcDbLine
 10
110.0968344504
 20
148.5325445448
 30
0.0
 11
111.0917107038
 21
148.5325445448
 31
0.0
  0
LINE
  5
D1
330
1F
100
AcDbEntity
  8
0
  6
Continuous
 62
     7
370
    25
100
AcDbLine
 10
111.0917107113
 20
167.4674557373
 30
0.0
 11
110.0968344504
 21
167.4674557373
 31
0.0
  0
SPLINE
  5
D2
330
1F
100
AcDbEntity
  8
0
  6
Continuous
 62
     7
370
    25
100
AcDbSpline
210
0.0
220
0.0
230
1.0
 70
     8
 71
     3
 72
    26
 73
    22
 74
     0
 42
0.00000001
 43
0.00000001
 40
0.0
 40
0.0
 40
0.0
 40
0.0
 40
0.125
 40
0.125
 40
0.2500000000000001
 40
0.2500000000000001
 40
0.3125
 40
0.3125
 40
0.375
 40
0.375
 40
0.5
 40
0.5
 40
0.625
 40
0.625
 40
0.75
 40
0.75
 40
0.8125000000000001
 40
0.8125000000000001
 40
0.8750000000000001
 40
0.8750000000000001
 40
1.0
 40
1.0
 40
1.0
 40
1.0
 10
54.90828929617082
 20
148.5325445448174
 30
0.0
 10
54.92730999427272
 20
149.2522545182182
 30
0.0
 10
54.96081463714724
 20
149.9962489809919
 30
0.0
 10
55.03212910272399
 20
151.5233248662909
 30
0.0
 10
55.07022254813528
 20
152.3065455092696
 30
0.0
 10
55.12028578278908
 20
153.5082430490154
 30
0.0
 10
55.13585818386671
 20
153.913879203822
 30
0.0
 10
55.16325002942784
 20
154.7258058640128
 30
0.0
 10
55.17511570488043
 20
155.1330499034599
 30
0.0
 10
55.20407128656683
 20
156.3585059820644
 30
0.0
 10
55.21439358173218
 20
157.180495047162
 30
0.0
 10
55.21427406074037
 20
158.8340278130715
 30
0.0
 10
55.20384215920718
 20
159.6527484066425
 30
0.0
 10
55.1654512848718
 20
161.2743998742779
 30
0.0
 10
55.13746138283194
 20
162.0773375329836
 30
0.0
 10
55.08794222301051
 20
163.2691494810109
 30
0.0
 10
55.07021534427115
 20
163.6643105145234
 30
0.0
 10
55.03381504074399
 20
164.450123911568
 30
0.0
 10
55.01508001893782
 20
164.8419606900578
 30
0.0
 10
54.96096080557383
 20
166.0002129888045
 30
0.0
 10
54.92729465610849
 20
166.7483257073577
 30
0.0
 10
54.90828928871402
 20
167.4674557373348
 30
0.0
  0
LINE
  5
D3
330
1F
100
AcDbEntity
  8
0
  6
Continuous
 62
     7
370
    25
100
AcDbLine
 10
54.9082892962
 20
148.5325445448
 30
0.0
 11
55.9031655496
 21
148.5325445448
 31
0.0
  0
LINE
  5
D4
330
1F
100
AcDbEntity
  8
0
  6
Continuous
 62
     7
370
    25
100
AcDbLine
 10
55.9031655496
 20
167.4674557373
 30
0.0
 11
54.9082892887
 21
167.4674557373
 31
0.0
  0
LINE
  5
D5
330
1F
100
AcDbEntity
  8
0
  6
Continuous
 62
     7
370
    25
100
AcDbLine
 10
111.1065088014
 20
158.0
 30
0.0
 11
111.1065088014
 21
139.6568047822
 31
0.0
  0
LINE
  5
D6
330
1F
100
AcDbEntity
  8
0
  6
Continuous
 62
     7
370
    25
100
AcDbLine
 10
111.1065088014
 20
176.3431952178
 30
0.0
 11
111.1065088014
 21
158.0
 31
0.0
  0
LINE
  5
D7
330
1F
100
AcDbEntity
  8
0
  6
Continuous
 62
     7
370
    25
100
AcDbLine
 10
106.3727810033
 20
148.5325444037
 30
0.0
 11
106.3727810033
 21
144.3905325804
 31
0.0
  0
LINE
  5
D8
330
1F
100
AcDbEntity
  8
0
  6
Continuous
 62
     7
370
    25
100
AcDbLine
 10
106.3727810033
 20
171.6094674196
 30
0.0
 11
106.3727810033
 21
167.4674555963
 31
0.0
  0
LINE
  5
D9
330
1F
100
AcDbEntity
  8
0
  6
Continuous
 62
     7
370
    25
100
AcDbLine
 10
54.8934911986
 20
139.6568047822
 30
0.0
 11
54.8934911986
 21
176.3431952178
 31
0.0
  0
LINE
  5
DA
330
1F
100
AcDbEntity
  8
0
  6
Continuous
 62
     7
370
    25
100
AcDbLine
 10
59.6272189967
 20
167.4674555963
 30
0.0
 11
59.6272189967
 21
171.6094674196
 31
0.0
  0
LINE
  5
DB
330
1F
100
AcDbEntity
  8
0
  6
Continuous
 62
     7
370
    25
100
AcDbLine
 10
59.6272189967
 20
144.3905325804
 30
0.0
 11
59.6272189967
 21
148.5325444037
 31
0.0
  0
LINE
  5
DC
330
1F
100
AcDbEntity
  8
0
  6
HIDDEN
 62
     7
370
    18
100
AcDbLine
 10
91.5338491501
 20
167.4674557373
 30
0.0
 11
91.5338491501
 21
148.5325445448
 31
0.0
  0
LINE
  5
DD
330
1F
100
AcDbEntity
  8
0
  6
HIDDEN
 62
     7
370
    18
100
AcDbLine
 10
74.4661508499
 20
167.4674557373
 30
0.0
 11
74.4661508499
 21
148.5325445448
 31
0.0
  0
LINE
  5
DE
330
1F
100
AcDbEntity
  8
0
  6
HIDDEN
 62
     7
370
    18
100
AcDbLine
 10
76.9361167797
 20
159.7751480654
 30
0.0
 11
75.1252165363
 21
159.7751480654
 31
0.0
  0
LINE
  5
DF
330
1F
100
AcDbEntity
  8
0
  6
HIDDEN
 62
     7
370
    18
100
AcDbLine
 10
90.8747834637
 20
159.7751480654
 30
0.0
 11
89.0638832203
 21
159.7751480654
 31
0.0
  0
LINE
  5
E0
330
1F
100
AcDbEntity
  8
0
  6
HIDDEN
 62
     7
370
    18
100
AcDbLine
 10
76.9361167797
 20
156.8165681915
 30
0.0
 11
75.1252165363
 21
156.8165681915
 31
0.0
  0
LINE
  5
E1
330
1F
100
AcDbEntity
  8
0
  6
HIDDEN
 62
     7
370
    18
100
AcDbLine
 10
90.8747834637
 20
156.8165681915
 30
0.0
 11
89.0638832203
 21
156.8165681915
 31
0.0
  0
LINE
  5
E2
330
1F
100
AcDbEntity
  8
0
  6
HIDDEN
 62
     7
370
    18
100
AcDbLine
 10
85.614931257
 20
159.7751480654
 30
0.0
 11
89.0638832203
 21
159.7751480654
 31
0.0
  0
LINE
  5
E3
330
1F
100
AcDbEntity
  8
0
  6
HIDDEN
 62
     7
370
    18
100
AcDbLine
 10
76.9361167797
 20
159.7751480654
 30
0.0
 11
80.385068743
 21
159.7751480654
 31
0.0
  0
LINE
  5
E4
330
1F
100
AcDbEntity
  8
0
  6
HIDDEN
 62
     7
370
    18
100
AcDbLine
 10
85.614931257
 20
156.8165681915
 30
0.0
 11
89.0638832203
 21
156.8165681915
 31
0.0
  0
LINE
  5
E5
330
1F
100
AcDbEntity
  8
0
  6
HIDDEN
 62
     7
370
    18
100
AcDbLine
 10
76.9361167797
 20
156.8165681915
 30
0.0
 11
80.385068743
 21
156.8165681915
 31
0.0
  0
LINE
  5
E6
330
1F
100
AcDbEntity
  8
0
  6
HIDDEN
 62
     7
370
    18
100
AcDbLine
 10
90.8747834637
 20
159.7751480654
 30
0.0
 11
94.8343196717
 21
159.7751480654
 31
0.0
  0
LINE
  5
E7
330
1F
100
AcDbEntity
  8
0
  6
HIDDEN
 62
     7
370
    18
100
AcDbLine
 10
71.1656803283
 20
159.7751480654
 30
0.0
 11
75.1252165363
 21
159.7751480654
 31
0.0
  0
LINE
  5
E8
330
1F
100
AcDbEntity
  8
0
  6
HIDDEN
 62
     7
370
    18
100
AcDbLine
 10
71.1656803283
 20
156.8165681915
 30
0.0
 11
75.1252165363
 21
156.8165681915
 31
0.0
  0
LINE
  5
E9
330
1F
100
AcDbEntity
  8
0
  6
HIDDEN
 62
     7
370
    18
100
AcDbLine
 10
90.8747834637
 20
156.8165681915
 30
0.0
 11
94.8343196717
 21
156.8165681915
 31
0.0
  0
LINE
  5
EA
330
1F
100
AcDbEntity
  8
0
  6
HIDDEN
 62
     7
370
    18
100
AcDbLine
 10
85.614931257
 20
159.7751480654
 30
0.0
 11
83.8633453008
 21
159.7751480654
 31
0.0
  0
LINE
  5
EB
330
1F
100
AcDbEntity
  8
0
  6
HIDDEN
 62
     7
370
    18
100
AcDbLine
 10
82.1366546992
 20
159.7751480654
 30
0.0
 11
80.385068743
 21
159.7751480654
 31
0.0
  0
LINE
  5
EC
330
1F
100
AcDbEntity
  8
0
  6
HIDDEN
 62
     7
370
    18
100
AcDbLine
 10
85.614931257
 20
156.8165681915
 30
0.0
 11
83.8633453008
 21
156.8165681915
 31
0.0
  0
LINE
  5
ED
330
1F
100
AcDbEntity
  8
0
  6
HIDDEN
 62
     7
370
    18
100
AcDbLine
 10
82.1366546992
 20
156.8165681915
 30
0.0
 11
80.385068743
 21
156.8165681915
 31
0.0
  0
ELLIPSE
  5
EE
330
1F
100
AcDbEntity
  8
0
  6
HIDDEN
 62
     7
370
    18
100
AcDbEllipse
 10
103.8080605713
 20
158.0
 30
0.0
 11
0.0
 21
9.467455596258702
 31
0.0
210
0.0
220
0.0
230
1.0
 40
0.3368421029
 41
1.696124142944003
 42
2.636232138908535
  0
SPLINE
  5
EF
330
1F
100
AcDbEntity
  8
0
  6
HIDDEN
 62
     7
370
    18
100
AcDbSpline
210
0.0
220
0.0
230
1.0
 70
     8
 71
     3
 72
    12
 73
     8
 74
     0
 42
0.00000001
 43
0.00000001
 40
0.0
 40
0.0
 40
0.0
 40
0.0
 40
0.2500000000000006
 40
0.2500000000000006
 40
0.5000000000000011
 40
0.5000000000000011
 40
1.0
 40
1.0
 40
1.0
 40
1.0
 10
102.2641743444236
 20
149.7159763734274
 30
0.0
 10
102.1410222415492
 20
149.5221467859785
 30
0.0
 10
102.014831605736
 20
149.3520055078021
 30
0.0
 10
101.7565372856766
 20
149.0578208950446
 30
0.0
 10
101.6242091915877
 20
148.933769421894
 30
0.0
 10
101.223266158777
 20
148.6354384793514
 30
0.0
 10
100.9478710931896
 20
148.5324680390596
 30
0.0
 10
100.6722368751741
 20
148.5325437248549
 30
0.0
  0
ELLIPSE
  5
F0
330
1F
100
AcDbEntity
  8
0
  6
HIDDEN
 62
     7
370
    18
100
AcDbEllipse
 10
62.1919394287
 20
158.0
 30
0.0
 11
0.0
 21
9.467455596258702
 31
0.0
210
0.0
220
0.0
230
1.0
 40
0.3368421029
 41
3.646953168271078
 42
4.587061164235588
  0
SPLINE
  5
F1
330
1F
100
AcDbEntity
  8
0
  6
HIDDEN
 62
     7
370
    18
100
AcDbSpline
210
0.0
220
0.0
230
1.0
 70
     8
 71
     3
 72
    21
 73
    17
 74
     0
 42
0.00000001
 43
0.00000001
 40
0.0
 40
0.0
 40
0.0
 40
0.0
 40
0.0646852650938866
 40
0.130402223067072
 40
0.1971535587721108
 40
0.264941290096681
 40
0.3337668142692332
 40
0.4036309888332025
 40
0.474534251579633
 40
0.5464767840646075
 40
0.6194587236969386
 40
0.6934804297549457
 40
0.7685428090662607
 40
0.8446477074435261
 40
0.9217983732860424
 40
1.0
 40
1.0
 40
1.0
 40
1.0
 10
65.32776302836098
 20
148.5325433952067
 30
0.0
 10
65.29216197743564
 20
148.5335332430521
 30
0.0
 10
65.22039205924096
 20
148.5355287262483
 30
0.0
 10
65.11194062508854
 20
148.5517920514723
 30
0.0
 10
65.00198032587163
 20
148.5782499477915
 30
0.0
 10
64.89063495135176
 20
148.6162895076288
 30
0.0
 10
64.77804202370757
 20
148.6660676460584
 30
0.0
 10
64.66434526715733
 20
148.7280790752746
 30
0.0
 10
64.54969656223754
 20
148.8027255144457
 30
0.0
 10
64.43425571119124
 20
148.8904357121173
 30
0.0
 10
64.31818916543564
 20
148.9916240195946
 30
0.0
 10
64.20167521620927
 20
149.1067330954338
 30
0.0
 10
64.08488379290911
 20
149.2361014943066
 30
0.0
 10
63.96805317408499
 20
149.380458763295
 30
0.0
 10
63.85119733772378
 20
149.5390405288673
 30
0.0
 10
63.77440140546459
 20
149.6567247605817
 30
0.0
 10
63.73574367644845
 20
149.7159649443422
 30
0.0
  0
ELLIPSE
  5
F2
330
1F
100
AcDbEntity
  8
0
  6
HIDDEN
 62
     7
370
    18
100
AcDbEllipse
 10
65.3303444816
 20
162.7337279392
 30
0.0
 11
0.0
 21
4.733727798129336
 31
0.0
210
0.0
220
0.0
230
1.0
 40
0.3368421029
 41
0.0
 42
0.9084007037259246
  0
ELLIPSE
  5
F3
330
1F
100
AcDbEntity
  8
0
  6
HIDDEN
 62
     7
370
    18
100
AcDbEllipse
 10
62.1919394287
 20
158.0
 30
0.0
 11
0.0
 21
9.467455596258702
 31
0.0
210
0.0
220
0.0
230
1.0
 40
0.3368421029
 41
4.901005381730313
 42
5.652296956023164
  0
ELLIPSE
  5
F4
330
1F
100
AcDbEntity
  8
0
  6
HIDDEN
 62
     7
370
    18
100
AcDbEllipse
 10
100.6696555184
 20
162.7337279392
 30
0.0
 11
0.0
 21
4.733727798129336
 31
0.0
210
0.0
220
0.0
230
1.0
 40
0.3368421029
 41
5.374784603453679
 42
6.283185307179586
  0
ELLIPSE
  5
F5
330
1F
100
AcDbEntity
  8
0
  6
HIDDEN
 62
     7
370
    18
100
AcDbEllipse
 10
103.8080605713
 20
158.0
 30
0.0
 11
0.0
 21
9.467455596258702
 31
0.0
210
0.0
220
0.0
230
1.0
 40
0.3368421029
 41
0.6308883511564476
 42
1.382179925449279
  0
LINE
  5
F6
330
1F
100
AcDbEntity
  8
0
  6
HIDDEN
 62
     7
370
    18
100
AcDbLine
 10
83.8411369848
 20
158.0000001411
 30
0.0
 11
82.158862987
 21
158.0000001411
 31
0.0
  0
LINE
  5
F7
330
1F
100
AcDbEntity
  8
0
  6
HIDDEN
 62
     7
370
    18
100
AcDbLine
 10
67.0236686813
 20
158.0000001411
 30
0.0
 11
82.158862987
 21
158.0000001411
 31
0.0
  0
LINE
  5
F8
330
1F
100
AcDbEntity
  8
0
  6
HIDDEN
 62
     7
370
    18
100
AcDbLine
 10
83.8411369848
 20
158.0000001411
 30
0.0
 11
98.9763313187
 21
158.0000001411
 31
0.0
  0
LINE
  5
F9
330
1F
100
AcDbEntity
  8
0
  6
HIDDEN
 62
     7
370
    18
100
AcDbLine
 10
94.8343196717
 20
159.7751480654
 30
0.0
 11
98.9613750889
 21
159.7751480654
 31
0.0
  0
LINE
  5
FA
330
1F
100
AcDbEntity
  8
0
  6
HIDDEN
 62
     7
370
    18
100
AcDbLine
 10
67.0386249111
 20
159.7751480654
 30
0.0
 11
71.1656803283
 21
159.7751480654
 31
0.0
  0
LINE
  5
FB
330
1F
100
AcDbEntity
  8
0
  6
HIDDEN
 62
     7
370
    18
100
AcDbLine
 10
94.8343196717
 20
156.8165681915
 30
0.0
 11
98.9613750889
 21
156.8165681915
 31
0.0
  0
LINE
  5
FC
330
1F
100
AcDbEntity
  8
0
  6
HIDDEN
 62
     7
370
    18
100
AcDbLine
 10
67.0386249111
 20
156.8165681915
 30
0.0
 11
71.1656803283
 21
156.8165681915
 31
0.0
  0
LINE
  5
FD
330
1F
100
AcDbEntity
  8
0
  6
HIDDEN
 62
     7
370
    18
100
AcDbLine
 10
60.0671332592
 20
159.7751480654
 30
0.0
 11
67.0386249111
 21
159.7751480654
 31
0.0
  0
LINE
  5
FE
330
1F
100
AcDbEntity
  8
0
  6
HIDDEN
 62
     7
370
    18
100
AcDbLine
 10
98.9613750889
 20
159.7751480654
 30
0.0
 11
105.9328667408
 21
159.7751480654
 31
0.0
  0
LINE
  5
FF
330
1F
100
AcDbEntity
  8
0
  6
HIDDEN
 62
     7
370
    18
100
AcDbLine
 10
60.0671332592
 20
156.8165681915
 30
0.0
 11
67.0386249111
 21
156.8165681915
 31
0.0
  0
LINE
  5
100
330
1F
100
AcDbEntity
  8
0
  6
HIDDEN
 62
     7
370
    18
100
AcDbLine
 10
98.9613750889
 20
156.8165681915
 30
0.0
 11
105.9328667408
 21
156.8165681915
 31
0.0
  0
LINE
  5
101
330
1F
100
AcDbEntity
  8
0
  6
HIDDEN
 62
     7
370
    18
100
AcDbLine
 10
60.0671332592
 20
159.7751480654
 30
0.0
 11
57.2680930978
 21
159.7751480654
 31
0.0
  0
LINE
  5
102
330
1F
100
AcDbEntity
  8
0
  6
HIDDEN
 62
     7
370
    18
100
AcDbLine
 10
108.7319069022
 20
159.7751480654
 30
0.0
 11
105.9328667408
 21
159.7751480654
 31
0.0
  0
LINE
  5
103
330
1F
100
AcDbEntity
  8
0
  6
HIDDEN
 62
     7
370
    18
100
AcDbLine
 10
60.0671332592
 20
156.8165681915
 30
0.0
 11
57.2759452023
 21
156.8165681915
 31
0.0
  0
LINE
  5
104
330
1F
100
AcDbEntity
  8
0
  6
HIDDEN
 62
     7
370
    18
100
AcDbLine
 10
108.7240547977
 20
156.8165681915
 30
0.0
 11
105.9328667408
 21
156.8165681915
 31
0.0
  0
LINE
  5
105
330
1F
100
AcDbEntity
  8
0
  6
HIDDEN
 62
     7
370
    18
100
AcDbLine
 10
106.3727810033
 20
156.8165681915
 30
0.0
 11
106.3727810033
 21
148.5325444037
 31
0.0
  0
LINE
  5
106
330
1F
100
AcDbEntity
  8
0
  6
HIDDEN
 62
     7
370
    18
100
AcDbLine
 10
106.3727810033
 20
167.4674555963
 30
0.0
 11
106.3727810033
 21
159.7751480654
 31
0.0
  0
SPLINE
  5
107
330
1F
100
AcDbEntity
  8
0
  6
HIDDEN
 62
     7
370
    18
100
AcDbSpline
210
0.0
220
0.0
230
1.0
 70
     8
 71
     3
 72
    14
 73
    10
 74
     0
 42
0.00000001
 43
0.00000001
 40
0.0
 40
0.0
 40
0.0
 40
0.0
 40
0.4999999999999999
 40
0.4999999999999999
 40
0.6249999999999999
 40
0.6249999999999999
 40
0.7499999999999998
 40
0.7499999999999998
 40
1.0
 40
1.0
 40
1.0
 40
1.0
 10
108.7240547976763
 20
156.8165681915438
 30
0.0
 10
108.7396997780163
 20
155.344968096042
 30
0.0
 10
108.7843604160826
 20
153.9142267358474
 30
0.0
 10
108.8655331238854
 20
152.1766798789065
 30
0.0
 10
108.8830090904378
 20
151.8317576351061
 30
0.0
 10
108.92004902627
 20
151.1472673622635
 30
0.0
 10
108.9396665804999
 20
150.8068706174558
 30
0.0
 10
109.0003661061963
 20
149.8035260157091
 30
0.0
 10
109.0434034755157
 20
149.1565115464775
 30
0.0
 10
109.0864445519713
 20
148.5325445448174
 30
0.0
  0
SPLINE
  5
108
330
1F
100
AcDbEntity
  8
0
  6
HIDDEN
 62
     7
370
    18
100
AcDbSpline
210
0.0
220
0.0
230
1.0
 70
     8
 71
     3
 72
    12
 73
     8
 74
     0
 42
0.00000001
 43
0.00000001
 40
0.0
 40
0.0
 40
0.0
 40
0.0
 40
0.5
 40
0.5
 40
0.75
 40
0.75
 40
1.0
 40
1.0
 40
1.0
 40
1.0
 10
109.086444571434
 20
167.4674557373348
 30
0.0
 10
109.0063510858709
 20
166.3063395290306
 30
0.0
 10
108.9273132229716
 20
165.0756065197548
 30
0.0
 10
108.8322243415474
 20
163.1342479643303
 30
0.0
 10
108.8043758354174
 20
162.4702761318947
 30
0.0
 10
108.7597269486687
 20
161.1335614907259
 30
0.0
 10
108.7427645840727
 20
160.4579719004108
 30
0.0
 10
108.7319069022317
 20
159.7751480653746
 30
0.0
  0
LINE
  5
109
330
1F
100
AcDbEntity
  8
0
  6
HIDDEN
 62
     7
370
    18
100
AcDbLine
 10
59.6272189967
 20
159.7751480654
 30
0.0
 11
59.6272189967
 21
167.4674555963
 31
0.0
  0
LINE
  5
10A
330
1F
100
AcDbEntity
  8
0
  6
HIDDEN
 62
     7
370
    18
100
AcDbLine
 10
59.6272189967
 20
148.5325444037
 30
0.0
 11
59.6272189967
 21
156.8165681915
 31
0.0
  0
SPLINE
  5
10B
330
1F
100
AcDbEntity
  8
0
  6
HIDDEN
 62
     7
370
    18
100
AcDbSpline
210
0.0
220
0.0
230
1.0
 70
     8
 71
     3
 72
    14
 73
    10
 74
     0
 42
0.00000001
 43
0.00000001
 40
0.0
 40
0.0
 40
0.0
 40
0.0
 40
0.5000000000000002
 40
0.5000000000000002
 40
0.6250000000000002
 40
0.6250000000000002
 40
0.7500000000000003
 40
0.7500000000000003
 40
1.0
 40
1.0
 40
1.0
 40
1.0
 10
56.91355544802876
 20
148.5325445448173
 30
0.0
 10
56.99948354213701
 20
149.7782451558238
 30
0.0
 10
57.08411930772326
 20
151.1038681461714
 30
0.0
 10
57.16607872893663
 20
152.8521698306232
 30
0.0
 10
57.18132177652874
 20
153.2069052788765
 30
0.0
 10
57.20880189550767
 20
153.9185566354735
 30
0.0
 10
57.2210822504173
 20
154.2763095993739
 30
0.0
 10
57.25314749334206
 20
155.3552540933431
 30
0.0
 10
57.26813693836857
 20
156.0821062917942
 30
0.0
 10
57.27594520232367
 20
156.8165681915438
 30
0.0
  0
SPLINE
  5
10C
330
1F
100
AcDbEntity
  8
0
  6
HIDDEN
 62
     7
370
    18
100
AcDbSpline
210
0.0
220
0.0
230
1.0
 70
     8
 71
     3
 72
    12
 73
     8
 74
     0
 42
0.00000001
 43
0.00000001
 40
0.0
 40
0.0
 40
0.0
 40
0.0
 40
0.4999999999999998
 40
0.4999999999999998
 40
0.7499999999999999
 40
0.7499999999999999
 40
1.0
 40
1.0
 40
1.0
 40
1.0
 10
57.2680930977683
 20
159.7751480653746
 30
0.0
 10
57.24632819143756
 20
161.1439114006486
 30
0.0
 10
57.20000285651615
 20
162.4721647228577
 30
0.0
 10
57.10567787186584
 20
164.4040636876141
 30
0.0
 10
57.07012023809848
 20
165.0382885393684
 30
0.0
 10
56.99388007531329
 20
166.2829825688036
 30
0.0
 10
56.95369478156569
 20
166.885555061754
 30
0.0
 10
56.91355542856597
 20
167.4674557373348
 30
0.0
  0
LINE
  5
10D
330
1F
100
AcDbEntity
  8
0
  6
HIDDEN
 62
     7
370
    18
100
AcDbLine
 10
65.6089748353
 20
149.7159763734
 30
0.0
 11
65.4270681859
 21
149.7159763734
 31
0.0
  0
ELLIPSE
  5
10E
330
1F
100
AcDbEntity
  8
0
  6
HIDDEN
 62
     7
370
    18
100
AcDbEllipse
 10
67.3002173656
 20
159.7751480654
 30
0.0
 11
0.0
 21
11.2426035205572
 31
0.0
210
0.0
220
0.0
230
1.0
 40
0.3368421029
 41
2.678637949733355
 42
3.141592653589793
  0
LINE
  5
10F
330
1F
100
AcDbEntity
  8
0
  6
HIDDEN
 62
     7
370
    18
100
AcDbLine
 10
100.5729318141
 20
149.7159763734
 30
0.0
 11
100.3910245168
 21
149.7159763734
 31
0.0
  0
ELLIPSE
  5
110
330
1F
100
AcDbEntity
  8
0
  6
HIDDEN
 62
     7
370
    18
100
AcDbEllipse
 10
98.6997820495
 20
159.7751480654
 30
0.0
 11
0.0
 21
11.2426035205572
 31
0.0
210
0.0
220
0.0
230
1.0
 40
0.3368420903
 41
3.141592653589793
 42
3.604547357446267
  0
LINE
  5
111
330
1F
100
AcDbEntity
  8
0
  6
HIDDEN
 62
     7
370
    18
100
AcDbLine
 10
67.0236686813
 20
165.6450065797
 30
0.0
 11
67.0236686813
 21
167.4674555963
 31
0.0
  0
LINE
  5
112
330
1F
100
AcDbEntity
  8
0
  6
HIDDEN
 62
     7
370
    18
100
AcDbLine
 10
67.0236686813
 20
148.5325444037
 30
0.0
 11
67.0236686813
 21
154.4663579457
 31
0.0
  0
LINE
  5
113
330
1F
100
AcDbEntity
  8
0
  6
HIDDEN
 62
     7
370
    18
100
AcDbLine
 10
64.0730326327
 20
165.6450065797
 30
0.0
 11
67.0236686813
 21
165.6450065797
 31
0.0
  0
LINE
  5
114
330
1F
100
AcDbEntity
  8
0
  6
HIDDEN
 62
     7
370
    18
100
AcDbLine
 10
65.4270681859
 20
149.7159763734
 30
0.0
 11
63.7358256556
 21
149.7159763734
 31
0.0
  0
LINE
  5
115
330
1F
100
AcDbEntity
  8
0
  6
HIDDEN
 62
     7
370
    18
100
AcDbLine
 10
59.6272189967
 20
159.7751480654
 30
0.0
 11
59.6272189967
 21
156.8165681915
 31
0.0
  0
ELLIPSE
  5
116
330
1F
100
AcDbEntity
  8
0
  6
HIDDEN
 62
     7
370
    18
100
AcDbEllipse
 10
64.0650886085
 20
158.0
 30
0.0
 11
0.0
 21
9.467455596258702
 31
0.0
210
0.0
220
0.0
230
1.0
 40
0.3368421029
 41
3.646953168271076
 42
4.329889008928006
  0
LINE
  5
117
330
1F
100
AcDbEntity
  8
0
  6
HIDDEN
 62
     7
370
    18
100
AcDbLine
 10
98.9763313187
 20
154.4663535538
 30
0.0
 11
98.9763313187
 21
148.5325444037
 31
0.0
  0
LINE
  5
118
330
1F
100
AcDbEntity
  8
0
  6
HIDDEN
 62
     7
370
    18
100
AcDbLine
 10
98.9763313187
 20
167.4674555963
 30
0.0
 11
98.9763313187
 21
165.6450065797
 31
0.0
  0
LINE
  5
119
330
1F
100
AcDbEntity
  8
0
  6
HIDDEN
 62
     7
370
    18
100
AcDbLine
 10
98.9763313187
 20
165.6450065797
 30
0.0
 11
101.9269673673
 21
165.6450065797
 31
0.0
  0
LINE
  5
11A
330
1F
100
AcDbEntity
  8
0
  6
HIDDEN
 62
     7
370
    18
100
AcDbLine
 10
102.2641743444
 20
149.7159763734
 30
0.0
 11
100.5729318141
 21
149.7159763734
 31
0.0
  0
LINE
  5
11B
330
1F
100
AcDbEntity
  8
0
  6
HIDDEN
 62
     7
370
    18
100
AcDbLine
 10
106.3727810033
 20
156.8165681915
 30
0.0
 11
106.3727810033
 21
159.7751480654
 31
0.0
  0
ELLIPSE
  5
11C
330
1F
100
AcDbEntity
  8
0
  6
HIDDEN
 62
     7
370
    18
100
AcDbEllipse
 10
101.9349106861
 20
158.0
 30
0.0
 11
0.0
 21
9.467455596258702
 31
0.0
210
0.0
220
0.0
230
1.0
 40
0.3368420903
 41
1.953296798272304
 42
2.636232138908526
  0
LINE
  5
11D
330
1F
100
AcDbEntity
  8
0
  6
HIDDEN
 62
     7
370
    18
100
AcDbLine
 10
67.0236686813
 20
165.6450065797
 30
0.0
 11
67.0236686813
 21
163.7213626773
 31
0.0
  0
LINE
  5
11E
330
1F
100
AcDbEntity
  8
0
  6
HIDDEN
 62
     7
370
    18
100
AcDbLine
 10
67.0236686813
 20
163.7213626773
 30
0.0
 11
98.9763313187
 21
163.7213626773
 31
0.0
  0
LINE
  5
11F
330
1F
100
AcDbEntity
  8
0
  6
HIDDEN
 62
     7
370
    18
100
AcDbLine
 10
98.9763313187
 20
163.7213626773
 30
0.0
 11
98.9763313187
 21
165.6450065797
 31
0.0
  0
LINE
  5
120
330
1F
100
AcDbEntity
  8
0
  6
HIDDEN
 62
     7
370
    18
100
AcDbLine
 10
67.0236686813
 20
158.0000001411
 30
0.0
 11
67.0236686813
 21
154.4663579457
 31
0.0
  0
LINE
  5
121
330
1F
100
AcDbEntity
  8
0
  6
HIDDEN
 62
     7
370
    18
100
AcDbLine
 10
98.9763313187
 20
154.4663535538
 30
0.0
 11
98.9763313187
 21
158.0000001411
 31
0.0
  0
LINE
  5
122
330
1F
100
AcDbEntity
  8
0
  6
HIDDEN
 62
     7
370
    18
100
AcDbLine
 10
98.9763313187
 20
158.0000001411
 30
0.0
 11
98.9763313187
 21
163.7213626773
 31
0.0
  0
LINE
  5
123
330
1F
100
AcDbEntity
  8
0
  6
HIDDEN
 62
     7
370
    18
100
AcDbLine
 10
67.0236686813
 20
163.7213626773
 30
0.0
 11
67.0236686813
 21
158.0000001411
 31
0.0
  0
LINE
  5
124
330
1F
100
AcDbEntity
  8
0
  6
HIDDEN
 62
     7
370
    18
100
AcDbLine
 10
76.786982265
 20
167.4674557373
 30
0.0
 11
76.786982265
 21
148.5325445448
 31
0.0
  0
LINE
  5
125
330
1F
100
AcDbEntity
  8
0
  6
HIDDEN
 62
     7
370
    18
100
AcDbLine
 10
89.213017735
 20
148.5325445448
 30
0.0
 11
89.213017735
 21
167.4674557373
 31
0.0
  0
LINE
  5
126
330
1F
100
AcDbEntity
  8
0
  6
HIDDEN
 62
     7
370
    18
100
AcDbLine
 10
83.8633453008
 20
167.4674557373
 30
0.0
 11
83.8633453008
 21
159.7751480654
 31
0.0
  0
LINE
  5
127
330
1F
100
AcDbEntity
  8
0
  6
HIDDEN
 62
     7
370
    18
100
AcDbLine
 10
82.1366546992
 20
159.7751480654
 30
0.0
 11
82.1366546992
 21
167.4674557373
 31
0.0
  0
LINE
  5
128
330
1F
100
AcDbEntity
  8
0
  6
HIDDEN
 62
     7
370
    18
100
AcDbLine
 10
83.8633453008
 20
156.8165681915
 30
0.0
 11
83.8633453008
 21
148.5325445448
 31
0.0
  0
LINE
  5
129
330
1F
100
AcDbEntity
  8
0
  6
HIDDEN
 62
     7
370
    18
100
AcDbLine
 10
82.1366546992
 20
148.5325445448
 30
0.0
 11
82.1366546992
 21
156.8165681915
 31
0.0
  0
LINE
  5
12A
330
1F
100
AcDbEntity
  8
0
  6
HIDDEN
 62
     7
370
    18
100
AcDbLine
 10
67.0236686813
 20
150.6035503154
 30
0.0
 11
98.9763313187
 21
150.6035503154
 31
0.0
  0
LINE
  5
12B
330
1F
100
AcDbEntity
  8
0
  6
HIDDEN
 62
     7
370
    18
100
AcDbLine
 10
98.9763313187
 20
165.3964496846
 30
0.0
 11
67.0236686813
 21
165.3964496846
 31
0.0
  0
LINE
  5
12C
330
1F
100
AcDbEntity
  8
0
  6
HIDDEN
 62
     7
370
    18
100
AcDbLine
 10
54.8934911986
 20
152.8224852208
 30
0.0
 11
111.1065088014
 21
152.8224852208
 31
0.0
  0
LINE
  5
12D
330
1F
100
AcDbEntity
  8
0
  6
HIDDEN
 62
     7
370
    18
100
AcDbLine
 10
111.1065088014
 20
163.1775147792
 30
0.0
 11
54.8934911986
 21
163.1775147792
 31
0.0
  0
LINE
  5
12E
330
1F
100
AcDbEntity
  8
0
  6
Continuous
 62
     7
370
    25
100
AcDbLine
 10
232.4674557373
 20
107.0
 30
0.0
 11
213.5325445448
 21
107.0
 31
0.0
  0
CIRCLE
  5
12F
330
1F
100
AcDbEntity
  8
0
  6
Continuous
 62
     7
370
    25
100
AcDbCircle
 10
223.0
 20
25.3431952178
 30
0.0
 40
5.177514779203971
  0
CIRCLE
  5
130
330
1F
100
AcDbEntity
  8
0
  6
Continuous
 62
     7
370
    25
100
AcDbCircle
 10
223.0
 20
25.3431952178
 30
0.0
 40
18.34319521775121
  0
LINE
  5
131
330
1F
100
AcDbEntity
  8
0
  6
Continuous
 62
     7
370
    25
100
AcDbLine
 10
213.5325445448
 20
45.5976619116
 30
0.0
 11
213.5325445448
 21
41.0370611596
 31
0.0
  0
LINE
  5
132
330
1F
100
AcDbEntity
  8
0
  6
Continuous
 62
     7
370
    25
100
AcDbLine
 10
232.4674557373
 20
41.0370609981
 30
0.0
 11
232.4674557373
 21
45.5976619116
 31
0.0
  0
LINE
  5
133
330
1F
100
AcDbEntity
  8
0
  6
Continuous
 62
     7
370
    25
100
AcDbLine
 10
232.4674557373
 20
91.6153846561
 30
0.0
 11
213.5325445448
 21
91.6153846561
 31
0.0
  0
LINE
  5
134
330
1F
100
AcDbEntity
  8
0
  6
Continuous
 62
     7
370
    25
100
AcDbLine
 10
213.5325445448
 20
45.5976619116
 30
0.0
 11
213.5325445448
 21
91.6153846561
 31
0.0
  0
LINE
  5
135
330
1F
100
AcDbEntity
  8
0
  6
Continuous
 62
     7
370
    25
100
AcDbLine
 10
232.4674557373
 20
91.6153846561
 30
0.0
 11
232.4674557373
 21
45.5976619116
 31
0.0
  0
LINE
  5
136
330
1F
100
AcDbEntity
  8
0
  6
Continuous
 62
     7
370
    25
100
AcDbLine
 10
213.5325445448
 20
91.6153846561
 30
0.0
 11
213.5325445448
 21
107.0
 31
0.0
  0
LINE
  5
137
330
1F
100
AcDbEntity
  8
0
  6
Continuous
 62
     7
370
    25
100
AcDbLine
 10
232.4674557373
 20
91.6153846561
 30
0.0
 11
232.4674557373
 21
107.0
 31
0.0
  0
SPLINE
  5
138
330
1F
100
AcDbEntity
  8
0
  6
HIDDEN
 62
     7
370
    18
100
AcDbSpline
210
0.0
220
0.0
230
1.0
 70
     8
 71
     3
 72
    26
 73
    22
 74
     0
 42
0.00000001
 43
0.00000001
 40
0.0
 40
0.0
 40
0.0
 40
0.0
 40
0.1250000000000001
 40
0.1250000000000001
 40
0.2500000000000002
 40
0.2500000000000002
 40
0.3125000000000002
 40
0.3125000000000002
 40
0.3750000000000002
 40
0.3750000000000002
 40
0.5000000000000001
 40
0.5000000000000001
 40
0.6250000000000001
 40
0.6250000000000001
 40
0.6875
 40
0.6875
 40
0.75
 40
0.75
 40
0.8750000000000001
 40
0.8750000000000001
 40
1.0
 40
1.0
 40
1.0
 40
1.0
 10
232.4674557373348
 20
41.03706099805668
 30
0.0
 10
231.7454313256584
 20
41.45034312527989
 30
0.0
 10
230.9989680844726
 20
41.79576792031388
 30
0.0
 10
229.4667251065638
 20
42.37965385963699
 30
0.0
 10
228.6808044091998
 20
42.61770026953155
 30
0.0
 10
227.4748925495942
 20
42.90239233810528
 30
0.0
 10
227.0677627910409
 20
42.98515373415329
 30
0.0
 10
226.2550045087671
 20
43.12528286887791
 30
0.0
 10
225.8481333741508
 20
43.18298473475166
 30
0.0
 10
224.6261055084127
 20
43.32080201300847
 30
0.0
 10
223.8095429025805
 20
43.36587560760673
 30
0.0
 10
222.1727539146603
 20
43.36521592577422
 30
0.0
 10
221.3525282113504
 20
43.31950125988016
 30
0.0
 10
220.1192938004547
 20
43.178727124471
 30
0.0
 10
219.7090525385925
 20
43.11976530786119
 30
0.0
 10
218.8986747130879
 20
42.97862687025617
 30
0.0
 10
218.4973100044516
 20
42.89632205189324
 30
0.0
 10
217.3049050099455
 20
42.61329769869339
 30
0.0
 10
216.5254325530566
 20
42.37687603077072
 30
0.0
 10
215.0010151482275
 20
41.79554982067655
 30
0.0
 10
214.2559300103239
 20
41.45112232351591
 30
0.0
 10
213.5325445448174
 20
41.03706115955875
 30
0.0
  0
SPLINE
  5
139
330
1F
100
AcDbEntity
  8
0
  6
HIDDEN
 62
     7
370
    18
100
AcDbSpline
210
0.0
220
0.0
230
1.0
 70
    24
 71
     3
 72
     8
 73
     4
 74
     0
 42
0.00000001
 43
0.00000001
 40
0.0
 40
0.0
 40
0.0
 40
0.0
 40
1.0
 40
1.0
 40
1.0
 40
1.0
 10
232.4674557373348
 20
38.64025831853515
 30
0.0
 10
232.4674557373348
 20
39.39170094215864
 30
0.0
 10
232.4674557373348
 20
40.18640851069635
 30
0.0
 10
232.4674557373348
 20
41.03706099805666
 30
0.0
  0
SPLINE
  5
13A
330
1F
100
AcDbEntity
  8
0
  6
HIDDEN
 62
     7
370
    18
100
AcDbSpline
210
0.0
220
0.0
230
1.0
 70
    24
 71
     3
 72
     8
 73
     4
 74
     0
 42
0.00000001
 43
0.00000001
 40
0.0
 40
0.0
 40
0.0
 40
0.0
 40
1.0
 40
1.0
 40
1.0
 40
1.0
 10
213.5325445448174
 20
41.03706115955874
 30
0.0
 10
213.5325445448174
 20
40.18640867753875
 30
0.0
 10
213.5325445448174
 20
39.39170111408395
 30
0.0
 10
213.5325445448174
 20
38.64025849553433
 30
0.0
  0
SPLINE
  5
13B
330
1F
100
AcDbEntity
  8
0
  6
HIDDEN
 62
     7
370
    18
100
AcDbSpline
210
0.0
220
0.0
230
1.0
 70
     8
 71
     3
 72
    12
 73
     8
 74
     0
 42
0.00000001
 43
0.00000001
 40
0.0
 40
0.0
 40
0.0
 40
0.0
 40
0.5
 40
0.5
 40
0.75
 40
0.75
 40
1.0
 40
1.0
 40
1.0
 40
1.0
 10
232.4674557373348
 20
38.64025831853517
 30
0.0
 10
231.3063395290306
 20
39.36864772140525
 30
0.0
 10
230.0756065197548
 20
39.93999722290776
 30
0.0
 10
228.1342479643303
 20
40.58502512105599
 30
0.0
 10
227.4702761318947
 20
40.76390209673662
 30
0.0
 10
226.1335614907259
 20
41.04453032360406
 30
0.0
 10
225.4579719004108
 20
41.14736059116863
 30
0.0
 10
224.7751480653746
 20
41.21281468138396
 30
0.0
  0
SPLINE
  5
13C
330
1F
100
AcDbEntity
  8
0
  6
HIDDEN
 62
     7
370
    18
100
AcDbSpline
210
0.0
220
0.0
230
1.0
 70
     8
 71
     3
 72
    14
 73
    10
 74
     0
 42
0.00000001
 43
0.00000001
 40
0.0
 40
0.0
 40
0.0
 40
0.0
 40
0.4999999999999999
 40
0.4999999999999999
 40
0.6249999999999999
 40
0.6249999999999999
 40
0.7499999999999998
 40
0.7499999999999998
 40
1.0
 40
1.0
 40
1.0
 40
1.0
 10
221.8165681915438
 20
41.26000234908616
 30
0.0
 10
220.344968096042
 20
41.16627545602717
 30
0.0
 10
218.9142267358474
 20
40.90265830620712
 30
0.0
 10
217.1766798789066
 20
40.35994245914678
 30
0.0
 10
216.8317576351061
 20
40.24055163156476
 30
0.0
 10
216.1472673622635
 20
39.97924708699606
 30
0.0
 10
215.8068706174558
 20
39.83691970508982
 30
0.0
 10
214.8035260157091
 20
39.37881928812291
 30
0.0
 10
214.1565115464775
 20
39.03168437333812
 30
0.0
 10
213.5325445448174
 20
38.64025849553437
 30
0.0
  0
LINE
  5
13D
330
1F
100
AcDbEntity
  8
0
  6
HIDDEN
 62
     7
370
    18
100
AcDbLine
 10
224.7751480654
 20
41.2128146814
 30
0.0
 11
224.7751480654
 21
51.1750086016
 31
0.0
  0
SPLINE
  5
13E
330
1F
100
AcDbEntity
  8
0
  6
HIDDEN
 62
     7
370
    18
100
AcDbSpline
210
0.0
220
0.0
230
1.0
 70
    24
 71
     3
 72
     8
 73
     4
 74
     0
 42
0.00000001
 43
0.00000001
 40
0.0
 40
0.0
 40
0.0
 40
0.0
 40
1.0
 40
1.0
 40
1.0
 40
1.0
 10
224.7751480653746
 20
38.83639546053072
 30
0.0
 10
224.7751480653746
 20
39.56829910320551
 30
0.0
 10
224.7751480653746
 20
40.35540060351111
 30
0.0
 10
224.7751480653746
 20
41.21281468138391
 30
0.0
  0
LINE
  5
13F
330
1F
100
AcDbEntity
  8
0
  6
HIDDEN
 62
     7
370
    18
100
AcDbLine
 10
221.8165681915
 20
41.2600023491
 30
0.0
 11
221.8165681915
 21
51.1750086016
 31
0.0
  0
SPLINE
  5
140
330
1F
100
AcDbEntity
  8
0
  6
HIDDEN
 62
     7
370
    18
100
AcDbSpline
210
0.0
220
0.0
230
1.0
 70
    24
 71
     3
 72
     8
 73
     4
 74
     0
 42
0.00000001
 43
0.00000001
 40
0.0
 40
0.0
 40
0.0
 40
0.0
 40
1.0
 40
1.0
 40
1.0
 40
1.0
 10
221.8165681915438
 20
41.26000234908612
 30
0.0
 10
221.8165681915438
 20
40.40914563318233
 30
0.0
 10
221.8165681915438
 20
39.62777721986141
 30
0.0
 10
221.8165681915438
 20
38.90111145146803
 30
0.0
  0
LINE
  5
141
330
1F
100
AcDbEntity
  8
0
  6
HIDDEN
 62
     7
370
    18
100
AcDbLine
 10
221.8165681915
 20
38.9011114515
 30
0.0
 11
221.8165681915
 21
34.7363951316
 31
0.0
  0
LINE
  5
142
330
1F
100
AcDbEntity
  8
0
  6
HIDDEN
 62
     7
370
    18
100
AcDbLine
 10
224.7751480654
 20
34.642741702
 30
0.0
 11
224.7751480654
 21
38.8363954605
 31
0.0
  0
ARC
  5
143
330
1F
100
AcDbEntity
  8
0
  6
HIDDEN
 62
     7
370
    18
100
AcDbCircle
 10
223.0
 20
25.3431952178
 30
0.0
 40
13.60946741962185
100
AcDbArc
 50
94.9885413794
 51
82.505281947
  0
ARC
  5
144
330
1F
100
AcDbEntity
  8
0
  6
HIDDEN
 62
     7
370
    18
100
AcDbCircle
 10
223.0
 20
25.3431952178
 30
0.0
 40
9.467455596258672
100
AcDbArc
 50
97.1807549209
 51
79.193076256
  0
LINE
  5
145
330
1F
100
AcDbEntity
  8
0
  6
HIDDEN
 62
     7
370
    18
100
AcDbLine
 10
224.7751480654
 20
68.457367272
 30
0.0
 11
224.7751480654
 21
51.1750086016
 31
0.0
  0
LINE
  5
146
330
1F
100
AcDbEntity
  8
0
  6
HIDDEN
 62
     7
370
    18
100
AcDbLine
 10
221.8165681915
 20
68.457367272
 30
0.0
 11
221.8165681915
 21
51.1750086016
 31
0.0
  0
SPLINE
  5
147
330
1F
100
AcDbEntity
  8
0
  6
HIDDEN
 62
     7
370
    18
100
AcDbSpline
210
0.0
220
0.0
230
1.0
 70
     8
 71
     3
 72
     9
 73
     5
 74
     0
 42
0.00000001
 43
0.00000001
 40
0.0
 40
0.0
 40
0.0
 40
0.0
 40
0.5197073113363551
 40
1.0
 40
1.0
 40
1.0
 40
1.0
 10
213.5325445448174
 20
34.94748378334393
 30
0.0
 10
213.5446735851446
 20
34.51321207957356
 30
0.0
 10
213.5680117989095
 20
33.67760385491016
 30
0.0
 10
213.7351089787839
 20
32.8587087961143
 30
0.0
 10
213.8153645325738
 20
32.46539948659187
 30
0.0
  0
LINE
  5
148
330
1F
100
AcDbEntity
  8
0
  6
HIDDEN
 62
     7
370
    18
100
AcDbLine
 10
213.8577501104
 20
32.2831053884
 30
0.0
 11
213.9449538337
 21
31.9901819683
 31
0.0
  0
LINE
  5
149
330
1F
100
AcDbEntity
  8
0
  6
HIDDEN
 62
     7
370
    18
100
AcDbLine
 10
213.5325445448
 20
34.6526718813
 30
0.0
 11
213.5325445448
 21
34.9474837833
 31
0.0
  0
SPLINE
  5
14A
330
1F
100
AcDbEntity
  8
0
  6
HIDDEN
 62
     7
370
    18
100
AcDbSpline
210
0.0
220
0.0
230
1.0
 70
     8
 71
     3
 72
    12
 73
     8
 74
     0
 42
0.00000001
 43
0.00000001
 40
0.0
 40
0.0
 40
0.0
 40
0.0
 40
0.2500000000000006
 40
0.2500000000000006
 40
0.5000000000000011
 40
0.5000000000000011
 40
1.0
 40
1.0
 40
1.0
 40
1.0
 10
214.7159763734274
 20
29.92660748608537
 30
0.0
 10
214.5221467859785
 20
30.29221529407432
 30
0.0
 10
214.3520055078021
 20
30.66684374678902
 30
0.0
 10
214.0578208950446
 20
31.43365501487781
 30
0.0
 10
213.933769421894
 20
31.82650404697709
 30
0.0
 10
213.6354384793514
 20
33.0168036840356
 30
0.0
 10
213.5324680390596
 20
33.83438279076901
 30
0.0
 10
213.5325437248549
 20
34.65267188127822
 30
0.0
  0
LINE
  5
14B
330
1F
100
AcDbEntity
  8
0
  6
HIDDEN
 62
     7
370
    18
100
AcDbLine
 10
213.5325445448
 20
34.9474837833
 30
0.0
 11
213.5325445448
 21
38.6311391484
 31
0.0
  0
ARC
  5
14C
330
1F
100
AcDbEntity
  8
0
  6
HIDDEN
 62
     7
370
    18
100
AcDbCircle
 10
227.7337279392
 20
34.6603352842
 30
0.0
 40
4.733727798129372
100
AcDbArc
 50
307.9524735698
 51
0.0
  0
LINE
  5
14D
330
1F
100
AcDbEntity
  8
0
  6
HIDDEN
 62
     7
370
    18
100
AcDbLine
 10
232.4674557373
 20
38.6301641456
 30
0.0
 11
232.4674557373
 21
34.6603352842
 31
0.0
  0
LINE
  5
14E
330
1F
100
AcDbEntity
  8
0
  6
HIDDEN
 62
     7
370
    18
100
AcDbLine
 10
219.4663535538
 20
34.126478104
 30
0.0
 11
223.0000001411
 21
34.126478104
 31
0.0
  0
ARC
  5
14F
330
1F
100
AcDbEntity
  8
0
  6
HIDDEN
 62
     7
370
    18
100
AcDbCircle
 10
227.7337279392
 20
34.6603352842
 30
0.0
 40
4.733727798129372
100
AcDbArc
 50
282.0425380709
 51
307.9524735698
  0
ARC
  5
150
330
1F
100
AcDbEntity
  8
0
  6
HIDDEN
 62
     7
370
    18
100
AcDbCircle
 10
223.0
 20
25.3431952178
 30
0.0
 40
7.396449684577075
100
AcDbArc
 50
90.0
 51
39.3282127279
  0
LINE
  5
151
330
1F
100
AcDbEntity
  8
0
  6
HIDDEN
 62
     7
370
    18
100
AcDbLine
 10
223.0000001411
 20
34.126478104
 30
0.0
 11
223.0
 21
32.7396449023
 31
0.0
  0
LINE
  5
152
330
1F
100
AcDbEntity
  8
0
  6
HIDDEN
 62
     7
370
    18
100
AcDbLine
 10
223.0000001411
 20
79.0590882737
 30
0.0
 11
223.0000001411
 21
34.126478104
 31
0.0
  0
LINE
  5
153
330
1F
100
AcDbEntity
  8
0
  6
HIDDEN
 62
     7
370
    18
100
AcDbLine
 10
224.7751480654
 20
78.5976337403
 30
0.0
 11
224.7751480654
 21
68.457367272
 31
0.0
  0
LINE
  5
154
330
1F
100
AcDbEntity
  8
0
  6
HIDDEN
 62
     7
370
    18
100
AcDbLine
 10
221.8165681915
 20
78.5976337403
 30
0.0
 11
221.8165681915
 21
68.457367272
 31
0.0
  0
LINE
  5
155
330
1F
100
AcDbEntity
  8
0
  6
HIDDEN
 62
     7
370
    18
100
AcDbLine
 10
224.7751480654
 20
88.41334153
 30
0.0
 11
224.7751480654
 21
78.5976337403
 31
0.0
  0
LINE
  5
156
330
1F
100
AcDbEntity
  8
0
  6
HIDDEN
 62
     7
370
    18
100
AcDbLine
 10
221.8165681915
 20
88.41334153
 30
0.0
 11
221.8165681915
 21
78.5976337403
 31
0.0
  0
LINE
  5
157
330
1F
100
AcDbEntity
  8
0
  6
HIDDEN
 62
     7
370
    18
100
AcDbLine
 10
224.7751480654
 20
88.41334153
 30
0.0
 11
224.7751480654
 21
89.1540545375
 31
0.0
  0
LINE
  5
158
330
1F
100
AcDbEntity
  8
0
  6
HIDDEN
 62
     7
370
    18
100
AcDbLine
 10
221.8165681915
 20
88.41334153
 30
0.0
 11
221.8165681915
 21
89.1540545375
 31
0.0
  0
LINE
  5
159
330
1F
100
AcDbEntity
  8
0
  6
HIDDEN
 62
     7
370
    18
100
AcDbLine
 10
223.0000001411
 20
79.0590882737
 30
0.0
 11
223.0000001411
 21
79.6633318904
 31
0.0
  0
ARC
  5
15A
330
1F
100
AcDbEntity
  8
0
  6
HIDDEN
 62
     7
370
    18
100
AcDbCircle
 10
224.7751480654
 20
34.9474837833
 30
0.0
 40
11.24260352055718
100
AcDbArc
 50
195.1739682968
 51
206.5253506367
  0
LINE
  5
15B
330
1F
100
AcDbEntity
  8
0
  6
HIDDEN
 62
     7
370
    18
100
AcDbLine
 10
232.4674557373
 20
89.1540545375
 30
0.0
 11
224.7751480654
 21
89.1540545375
 31
0.0
  0
LINE
  5
15C
330
1F
100
AcDbEntity
  8
0
  6
HIDDEN
 62
     7
370
    18
100
AcDbLine
 10
221.8165681915
 20
89.1540545375
 30
0.0
 11
213.5325445448
 21
89.1540545375
 31
0.0
  0
LINE
  5
15D
330
1F
100
AcDbEntity
  8
0
  6
HIDDEN
 62
     7
370
    18
100
AcDbLine
 10
232.4674557373
 20
103.153846164
 30
0.0
 11
213.5325445448
 21
103.153846164
 31
0.0
  0
LINE
  5
15E
330
1F
100
AcDbEntity
  8
0
  6
HIDDEN
 62
     7
370
    18
100
AcDbLine
 10
213.5325445448
 20
90.7278106939
 30
0.0
 11
232.4674557373
 21
90.7278106939
 31
0.0
  0
LINE
  5
15F
330
1F
100
AcDbEntity
  8
0
  6
HIDDEN
 62
     7
370
    18
100
AcDbLine
 10
223.0000001411
 20
79.6633318904
 30
0.0
 11
213.5325445448
 21
79.6633318904
 31
0.0
  0
INSERT
  5
16B
330
1F
100
AcDbEntity
  8
10
100
AcDbBlockReference
  2
SW_CENTERMARKSYMBOL_1
 10
223.0
 20
25.3431952178
 30
0.0
  0
ENDSEC
  0
SECTION
  2
OBJECTS
  0
DICTIONARY
  5
C
330
0
100
AcDbDictionary
281
     1
  3
ACAD_GROUP
350
D
  3
ACAD_LAYOUT
350
1A
  3
ACAD_MLINESTYLE
350
17
  3
ACAD_PLOTSETTINGS
350
19
  3
ACAD_PLOTSTYLENAME
350
E
  3
ACAD_SCALELIST
350
47
  3
DWGPROPS
350
16C
  0
DICTIONARY
  5
D
102
{ACAD_REACTORS
330
C
102
}
330
C
100
AcDbDictionary
281
     1
  0
DICTIONARY
  5
1A
102
{ACAD_REACTORS
330
C
102
}
330
C
100
AcDbDictionary
281
     1
  3
Layout1
350
1E
  3
Layout2
350
26
  3
Model
350
22
  0
DICTIONARY
  5
17
102
{ACAD_REACTORS
330
C
102
}
330
C
100
AcDbDictionary
281
     1
  3
Standard
350
18
  0
DICTIONARY
  5
19
102
{ACAD_REACTORS
330
C
102
}
330
C
100
AcDbDictionary
281
     1
  0
ACDBDICTIONARYWDFLT
  5
E
102
{ACAD_REACTORS
330
C
102
}
330
C
100
AcDbDictionary
281
     1
  3
Normal
350
F
100
AcDbDictionaryWithDefault
340
F
  0
DICTIONARY
  5
47
102
{ACAD_REACTORS
330
C
102
}
330
C
100
AcDbDictionary
281
     1
  3
A0
350
48
  3
A1
350
49
  3
A2
350
4A
  3
A3
350
4B
  3
A4
350
4C
  3
A5
350
4D
  3
A6
350
4E
  3
A7
350
4F
  3
A8
350
50
  3
A9
350
51
  3
B0
350
52
  3
B1
350
53
  3
B2
350
54
  3
B3
350
55
  3
B4
350
56
  3
B5
350
57
  3
B6
350
58
  0
XRECORD
  5
16C
102
{ACAD_REACTORS
330
C
102
}
330
C
100
AcDbXrecord
280
     1
  1
DWGPROPS COOKIE
  2

  3

  4

  6

  7

  8

  9

300
=
301
=
302
=
303
=
304
=
305
=
306
=
307
=
308
=
309
=
 40
0.0
 41
2461213.533621123
 42
2461213.533621482
  1

 90
        0
  0
LAYOUT
  5
1E
102
{ACAD_REACTORS
330
1A
102
}
330
1A
100
AcDbPlotSettings
  1

  2
none_device
  4

  6

 40
0.0
 41
0.0
 42
0.0
 43
0.0
 44
0.0
 45
0.0
 46
0.0
 47
0.0
 48
0.0
 49
0.0
140
0.0
141
0.0
142
1.0
143
1.0
 70
   688
 72
     1
 73
     0
 74
     5
  7

 75
    16
147
1.0
148
0.0
149
0.0
100
AcDbLayout
  1
Layout1
 70
     1
 71
     1
 10
0.0
 20
0.0
 11
420.0
 21
297.0
 12
0.0
 22
0.0
 32
0.0
 14
1.0000000000E+20
 24
1.0000000000E+20
 34
1.0000000000E+20
 15
-1.0000000000E+20
 25
-1.0000000000E+20
 35
-1.0000000000E+20
146
0.0
 13
0.0
 23
0.0
 33
0.0
 16
1.0
 26
0.0
 36
0.0
 17
0.0
 27
1.0
 37
0.0
 76
     0
330
1B
  0
LAYOUT
  5
26
102
{ACAD_REACTORS
330
1A
102
}
330
1A
100
AcDbPlotSettings
  1

  2
none_device
  4

  6

 40
0.0
 41
0.0
 42
0.0
 43
0.0
 44
0.0
 45
0.0
 46
0.0
 47
0.0
 48
0.0
 49
0.0
140
0.0
141
0.0
142
1.0
143
1.0
 70
   688
 72
     1
 73
     0
 74
     5
  7

 75
    16
147
1.0
148
0.0
149
0.0
100
AcDbLayout
  1
Layout2
 70
     1
 71
     2
 10
0.0
 20
0.0
 11
0.0
 21
0.0
 12
0.0
 22
0.0
 32
0.0
 14
0.0
 24
0.0
 34
0.0
 15
0.0
 25
0.0
 35
0.0
146
0.0
 13
0.0
 23
0.0
 33
0.0
 16
1.0
 26
0.0
 36
0.0
 17
0.0
 27
1.0
 37
0.0
 76
     0
330
23
  0
LAYOUT
  5
22
102
{ACAD_REACTORS
330
1A
102
}
330
1A
100
AcDbPlotSettings
  1

  2
none_device
  4
Letter_(8.50_x_11.00_Inches)
  6

 40
6.35
 41
6.35
 42
6.35000508
 43
6.35000508
 44
215.9
 45
279.4
 46
0.0
 47
0.0
 48
0.0
 49
0.0
140
0.0
141
0.0
142
1.0
143
1.0
 70
  1712
 72
     1
 73
     0
 74
     0
  7

 75
     0
147
1.0
148
0.0
149
0.0
100
AcDbLayout
  1
Model
 70
     1
 71
     0
 10
0.0
 20
0.0
 11
297.0
 21
210.0
 12
0.0
 22
0.0
 32
0.0
 14
0.0
 24
0.0
 34
0.0
 15
297.0
 25
210.0
 35
0.0
146
0.0
 13
0.0
 23
0.0
 33
0.0
 16
1.0
 26
0.0
 36
0.0
 17
0.0
 27
1.0
 37
0.0
 76
     0
330
1F
331
29
  0
MLINESTYLE
  5
18
102
{ACAD_REACTORS
330
17
102
}
330
17
100
AcDbMlineStyle
  2
Standard
 70
     0
  3

 62
   256
 51
90.0
 52
90.0
 71
     2
 49
0.5
 62
   256
  6
BYLAYER
 49
-0.5
 62
   256
  6
BYLAYER
  0
ACDBPLACEHOLDER
  5
F
102
{ACAD_REACTORS
330
E
102
}
330
E
  0
SCALE
  5
48
102
{ACAD_REACTORS
330
47
102
}
330
47
100
AcDbScale
 70
     0
300
1:1
140
1.0
141
1.0
290
     1
  0
SCALE
  5
49
102
{ACAD_REACTORS
330
47
102
}
330
47
100
AcDbScale
 70
     0
300
1:2
140
1.0
141
2.0
290
     0
  0
SCALE
  5
4A
102
{ACAD_REACTORS
330
47
102
}
330
47
100
AcDbScale
 70
     0
300
1:4
140
1.0
141
4.0
290
     0
  0
SCALE
  5
4B
102
{ACAD_REACTORS
330
47
102
}
330
47
100
AcDbScale
 70
     0
300
1:5
140
1.0
141
5.0
290
     0
  0
SCALE
  5
4C
102
{ACAD_REACTORS
330
47
102
}
330
47
100
AcDbScale
 70
     0
300
1:8
140
1.0
141
8.0
290
     0
  0
SCALE
  5
4D
102
{ACAD_REACTORS
330
47
102
}
330
47
100
AcDbScale
 70
     0
300
1:10
140
1.0
141
10.0
290
     0
  0
SCALE
  5
4E
102
{ACAD_REACTORS
330
47
102
}
330
47
100
AcDbScale
 70
     0
300
1:16
140
1.0
141
16.0
290
     0
  0
SCALE
  5
4F
102
{ACAD_REACTORS
330
47
102
}
330
47
100
AcDbScale
 70
     0
300
1:20
140
1.0
141
20.0
290
     0
  0
SCALE
  5
50
102
{ACAD_REACTORS
330
47
102
}
330
47
100
AcDbScale
 70
     0
300
1:30
140
1.0
141
30.0
290
     0
  0
SCALE
  5
51
102
{ACAD_REACTORS
330
47
102
}
330
47
100
AcDbScale
 70
     0
300
1:40
140
1.0
141
40.0
290
     0
  0
SCALE
  5
52
102
{ACAD_REACTORS
330
47
102
}
330
47
100
AcDbScale
 70
     0
300
1:50
140
1.0
141
50.0
290
     0
  0
SCALE
  5
53
102
{ACAD_REACTORS
330
47
102
}
330
47
100
AcDbScale
 70
     0
300
1:100
140
1.0
141
100.0
290
     0
  0
SCALE
  5
54
102
{ACAD_REACTORS
330
47
102
}
330
47
100
AcDbScale
 70
     0
300
2:1
140
2.0
141
1.0
290
     0
  0
SCALE
  5
55
102
{ACAD_REACTORS
330
47
102
}
330
47
100
AcDbScale
 70
     0
300
4:1
140
4.0
141
1.0
290
     0
  0
SCALE
  5
56
102
{ACAD_REACTORS
330
47
102
}
330
47
100
AcDbScale
 70
     0
300
8:1
140
8.0
141
1.0
290
     0
  0
SCALE
  5
57
102
{ACAD_REACTORS
330
47
102
}
330
47
100
AcDbScale
 70
     0
300
10:1
140
10.0
141
1.0
290
     0
  0
SCALE
  5
58
102
{ACAD_REACTORS
330
47
102
}
330
47
100
AcDbScale
 70
     0
300
100:1
140
100.0
141
1.0
290
     0
  0
ENDSEC
  0
EOF
