  0
SECTION
  2
HEADER
  9
$ACADVER
  1
AC1015
  9
$ACADMAINTVER
 70
     6
  9
$DWGCODEPAGE
  3
ANSI_936
  9
$INSBASE
 10
0.0
 20
0.0
 30
0.0
  9
$EXTMIN
 10
0.0
 20
0.0
 30
0.0
  9
$EXTMAX
 10
297.0
 20
210.0
 30
0.0
  9
$LIMMIN
 10
0.0
 20
0.0
  9
$LIMMAX
 10
297.0
 20
210.0
  9
$ORTHOMODE
 70
     0
  9
$REGENMODE
 70
     1
  9
$FILLMODE
 70
     1
  9
$QTEXTMODE
 70
     0
  9
$MIRRTEXT
 70
     1
  9
$LTSCALE
 40
1.0
  9
$ATTMODE
 70
     1
  9
$TEXTSIZE
 40
3.5
  9
$TRACEWID
 40
1.0
  9
$TEXTSTYLE
  7
Standard
  9
$CLAYER
  8
0
  9
$CELTYPE
  6
ByLayer
  9
$CECOLOR
 62
   256
  9
$CELTSCALE
 40
1.0
  9
$DISPSILH
 70
     0
  9
$DIMSCALE
 40
1.0
  9
$DIMASZ
 40
4.08
  9
$DIMEXO
 40
0.0
  9
$DIMDLI
 40
3.75
  9
$DIMRND
 40
0.0
  9
$DIMDLE
 40
0.0
  9
$DIMEXE
 40
2.0
  9
$DIMTP
 40
0.0
  9
$DIMTM
 40
0.0
  9
$DIMTXT
 40
3.5
  9
$DIMCEN
 40
2.5
  9
$DIMTSZ
 40
0.0
  9
$DIMTOL
 70
     0
  9
$DIMLIM
 70
     0
  9
$DIMTIH
 70
     1
  9
$DIMTOH
 70
     1
  9
$DIMSE1
 70
     0
  9
$DIMSE2
 70
     0
  9
$DIMTAD
 70
     1
  9
$DIMZIN
 70
     0
  9
$DIMBLK
  1

  9
$DIMASO
 70
     1
  9
$DIMSHO
 70
     1
  9
$DIMPOST
  1

  9
$DIMAPOST
  1

  9
$DIMALT
 70
     0
  9
$DIMALTD
 70
     3
  9
$DIMALTF
 40
0.0393700787
  9
$DIMLFAC
 40
2.0
  9
$DIMTOFL
 70
     1
  9
$DIMTVP
 40
0.0
  9
$DIMTIX
 70
     0
  9
$DIMSOXD
 70
     0
  9
$DIMSAH
 70
     0
  9
$DIMBLK1
  1

  9
$DIMBLK2
  1

  9
$DIMSTYLE
  2
ISO-25
  9
$DIMCLRD
 70
     0
  9
$DIMCLRE
 70
     0
  9
$DIMCLRT
 70
     0
  9
$DIMTFAC
 40
1.0
  9
$DIMGAP
 40
1.524
  9
$DIMJUST
 70
     0
  9
$DIMSD1
 70
     0
  9
$DIMSD2
 70
     0
  9
$DIMTOLJ
 70
     0
  9
$DIMTZIN
 70
     0
  9
$DIMALTZ
 70
     0
  9
$DIMALTTZ
 70
     0
  9
$DIMUPT
 70
     0
  9
$DIMDEC
 70
     2
  9
$DIMTDEC
 70
     2
  9
$DIMALTU
 70
     2
  9
$DIMALTTD
 70
     3
  9
$DIMTXSTY
  7
Standard
  9
$DIMAUNIT
 70
     0
  9
$DIMADEC
 70
     2
  9
$DIMALTRND
 40
0.0
  9
$DIMAZIN
 70
     0
  9
$DIMDSEP
 70
    44
  9
$DIMATFIT
 70
     3
  9
$DIMFRAC
 70
     0
  9
$DIMLDRBLK
  1

  9
$DIMLUNIT
 70
     2
  9
$DIMLWD
 70
    -2
  9
$DIMLWE
 70
    -2
  9
$DIMTMOVE
 70
     0
  9
$LUNITS
 70
     2
  9
$LUPREC
 70
     2
  9
$SKETCHINC
 40
1.0
  9
$FILLETRAD
 40
0.0
  9
$AUNITS
 70
     0
  9
$AUPREC
 70
     2
  9
$MENU
  1
.
  9
$ELEVATION
 40
0.0
  9
$PELEVATION
 40
0.0
  9
$THICKNESS
 40
0.0
  9
$LIMCHECK
 70
     0
  9
$CHAMFERA
 40
0.0
  9
$CHAMFERB
 40
0.0
  9
$CHAMFERC
 40
0.0
  9
$CHAMFERD
 40
0.0
  9
$SKPOLY
 70
     0
  9
$TDCREATE
 40
2461214.78634735
  9
$TDUCREATE
 40
2461214.453014016
  9
$TDUPDATE
 40
2461214.78634794
  9
$TDUUPDATE
 40
2461214.453014607
  9
$TDINDWG
 40
0.0000000116
  9
$TDUSRTIMER
 40
0.0000000116
  9
$USRTIMER
 70
     1
  9
$ANGBASE
 50
0.0
  9
$ANGDIR
 70
     0
  9
$PDMODE
 70
     0
  9
$PDSIZE
 40
-1.0
  9
$PLINEWID
 40
0.0
  9
$SPLFRAME
 70
     0
  9
$SPLINETYPE
 70
     6
  9
$SPLINESEGS
 70
     8
  9
$HANDSEED
  5
10B
  9
$SURFTAB1
 70
     6
  9
$SURFTAB2
 70
     6
  9
$SURFTYPE
 70
     6
  9
$SURFU
 70
     6
  9
$SURFV
 70
     6
  9
$UCSBASE
  2

  9
$UCSNAME
  2

  9
$UCSORG
 10
0.0
 20
0.0
 30
0.0
  9
$UCSXDIR
 10
1.0
 20
0.0
 30
0.0
  9
$UCSYDIR
 10
0.0
 20
1.0
 30
0.0
  9
$UCSORTHOREF
  2

  9
$UCSORTHOVIEW
 70
     0
  9
$UCSORGTOP
 10
0.0
 20
0.0
 30
0.0
  9
$UCSORGBOTTOM
 10
0.0
 20
0.0
 30
0.0
  9
$UCSORGLEFT
 10
0.0
 20
0.0
 30
0.0
  9
$UCSORGRIGHT
 10
0.0
 20
0.0
 30
0.0
  9
$UCSORGFRONT
 10
0.0
 20
0.0
 30
0.0
  9
$UCSORGBACK
 10
0.0
 20
0.0
 30
0.0
  9
$PUCSBASE
  2

  9
$PUCSNAME
  2

  9
$PUCSORG
 10
0.0
 20
0.0
 30
0.0
  9
$PUCSXDIR
 10
1.0
 20
0.0
 30
0.0
  9
$PUCSYDIR
 10
0.0
 20
1.0
 30
0.0
  9
$PUCSORTHOREF
  2

  9
$PUCSORTHOVIEW
 70
     0
  9
$PUCSORGTOP
 10
0.0
 20
0.0
 30
0.0
  9
$PUCSORGBOTTOM
 10
0.0
 20
0.0
 30
0.0
  9
$PUCSORGLEFT
 10
0.0
 20
0.0
 30
0.0
  9
$PUCSORGRIGHT
 10
0.0
 20
0.0
 30
0.0
  9
$PUCSORGFRONT
 10
0.0
 20
0.0
 30
0.0
  9
$PUCSORGBACK
 10
0.0
 20
0.0
 30
0.0
  9
$USERI1
 70
     0
  9
$USERI2
 70
     0
  9
$USERI3
 70
     0
  9
$USERI4
 70
     0
  9
$USERI5
 70
     0
  9
$USERR1
 40
0.0
  9
$USERR2
 40
0.0
  9
$USERR3
 40
0.0
  9
$USERR4
 40
0.0
  9
$USERR5
 40
0.0
  9
$WORLDVIEW
 70
     1
  9
$SHADEDGE
 70
     3
  9
$SHADEDIF
 70
    70
  9
$TILEMODE
 70
     1
  9
$MAXACTVP
 70
    64
  9
$PINSBASE
 10
0.0
 20
0.0
 30
0.0
  9
$PLIMCHECK
 70
     0
  9
$PEXTMIN
 10
1.0000000000E+20
 20
1.0000000000E+20
 30
1.0000000000E+20
  9
$PEXTMAX
 10
-1.0000000000E+20
 20
-1.0000000000E+20
 30
-1.0000000000E+20
  9
$PLIMMIN
 10
0.0
 20
0.0
  9
$PLIMMAX
 10
420.0
 20
297.0
  9
$UNITMODE
 70
     0
  9
$VISRETAIN
 70
     1
  9
$PLINEGEN
 70
     0
  9
$PSLTSCALE
 70
     1
  9
$TREEDEPTH
 70
  3020
  9
$CMLSTYLE
  2
Standard
  9
$CMLJUST
 70
     0
  9
$CMLSCALE
 40
20.0
  9
$PROXYGRAPHICS
 70
     1
  9
$MEASUREMENT
 70
     1
  9
$CELWEIGHT
370
    -1
  9
$ENDCAPS
280
     0
  9
$JOINSTYLE
280
     0
  9
$LWDISPLAY
290
     1
  9
$INSUNITS
 70
     4
  9
$HYPERLINKBASE
  1

  9
$STYLESHEET
  1

  9
$XEDIT
290
     1
  9
$CEPSNTYPE
380
     0
  9
$PSTYLEMODE
290
     1
  9
$FINGERPRINTGUID
  2
{45f02305-99bc-404b-857e-8d51cf789369}
  9
$VERSIONGUID
  2
{FAEB1C32-E019-11D5-929B-00C0DF256EC4}
  9
$EXTNAMES
290
     1
  9
$PSVPSCALE
 40
0.0
  9
$OLESTARTUP
290
     0
  0
ENDSEC
  0
SECTION
  2
CLASSES
  0
CLASS
  1
ACDBDICTIONARYWDFLT
  2
AcDbDictionaryWithDefault
  3
ObjectDBX Classes
 90
        0
280
     0
281
     0
  0
CLASS
  1
VISUALSTYLE
  2
AcDbVisualStyle
  3
ObjectDBX Classes
 90
     4095
280
     0
281
     0
  0
CLASS
  1
MATERIAL
  2
AcDbMaterial
  3
ObjectDBX Classes
 90
     1153
280
     0
281
     0
  0
CLASS
  1
SCALE
  2
AcDbScale
  3
ObjectDBX Classes
 90
     1153
280
     0
281
     0
  0
CLASS
  1
TABLESTYLE
  2
AcDbTableStyle
  3
ObjectDBX Classes
 90
     4095
280
     0
281
     0
  0
CLASS
  1
MLEADERSTYLE
  2
AcDbMLeaderStyle
  3
ACDB_MLEADERSTYLE_CLASS
 90
     4095
280
     0
281
     0
  0
CLASS
  1
SUN
  2
AcDbSun
  3
SCENEOE
 90
     1153
280
     0
281
     0
  0
CLASS
  1
ACDBPLACEHOLDER
  2
AcDbPlaceHolder
  3
ObjectDBX Classes
 90
        0
280
     0
281
     0
  0
CLASS
  1
LAYOUT
  2
AcDbLayout
  3
ObjectDBX Classes
 90
        0
280
     0
281
     0
  0
ENDSEC
  0
SECTION
  2
TABLES
  0
TABLE
  2
VPORT
  5
8
330
0
100
AcDbSymbolTable
 70
     1
  0
VPORT
  5
29
330
8
100
AcDbSymbolTableRecord
100
AcDbViewportTableRecord
  2
*Active
 70
     0
 10
0.0
 20
0.0
 11
1.0
 21
1.0
 12
148.5
 22
105.0
 13
0.0
 23
0.0
 14
10.0
 24
10.0
 15
10.0
 25
10.0
 16
0.0
 26
0.0
 36
1.0
 17
0.0
 27
0.0
 37
0.0
 40
210.0
 41
1.4142857143
 42
50.0
 43
0.0
 44
0.0
 50
0.0
 51
0.0
 71
     0
 72
  2000
 73
     1
 74
     3
 75
     0
 76
     0
 77
     0
 78
     0
281
     0
 65
     1
110
0.0
120
0.0
130
0.0
111
1.0
121
0.0
131
0.0
112
0.0
122
1.0
132
0.0
 79
     0
146
0.0
  0
ENDTAB
  0
TABLE
  2
LTYPE
  5
5
330
0
100
AcDbSymbolTable
 70
     6
  0
LTYPE
  5
14
330
5
100
AcDbSymbolTableRecord
100
AcDbLinetypeTableRecord
  2
ByBlock
 70
     0
  3

 72
    65
 73
     0
 40
0.0
  0
LTYPE
  5
15
330
5
100
AcDbSymbolTableRecord
100
AcDbLinetypeTableRecord
  2
ByLayer
 70
     0
  3

 72
    65
 73
     0
 40
0.0
  0
LTYPE
  5
16
330
5
100
AcDbSymbolTableRecord
100
AcDbLinetypeTableRecord
  2
Continuous
 70
     0
  3
Solid line
 72
    65
 73
     0
 40
0.0
  0
LTYPE
  5
5E
330
5
100
AcDbSymbolTableRecord
100
AcDbLinetypeTableRecord
  2
HIDDEN
 70
     0
  3
Hidden __ __ __ __ __ __ __ __ __ __ __ __ __ __
 72
    65
 73
     2
 40
1.905
 49
1.27
 74
     0
 49
-0.635
 74
     0
  0
LTYPE
  5
5F
330
5
100
AcDbSymbolTableRecord
100
AcDbLinetypeTableRecord
  2
PHANTOM
 70
     0
  3
Phantom ______  __  __  ______  __  __  ______
 72
    65
 73
     6
 40
12.7
 49
6.35
 74
     0
 49
-1.27
 74
     0
 49
1.27
 74
     0
 49
-1.27
 74
     0
 49
1.27
 74
     0
 49
-1.27
 74
     0
  0
LTYPE
  5
60
330
5
100
AcDbSymbolTableRecord
100
AcDbLinetypeTableRecord
  2
CENTER
 70
     0
  3
Center ____ _ ____ _ ____ _ ____ _ ____ _ ____
 72
    65
 73
     4
 40
10.16
 49
6.35
 74
     0
 49
-1.27
 74
     0
 49
1.27
 74
     0
 49
-1.27
 74
     0
  0
LTYPE
  5
61
330
5
100
AcDbSymbolTableRecord
100
AcDbLinetypeTableRecord
  2
CENTERX2
 70
     0
  3
Center (2x) ________  __  ________  __  _____
 72
    65
 73
     4
 40
20.32
 49
12.7
 74
     0
 49
-2.54
 74
     0
 49
2.54
 74
     0
 49
-2.54
 74
     0
  0
LTYPE
  5
62
330
5
100
AcDbSymbolTableRecord
100
AcDbLinetypeTableRecord
  2
DOT2
 70
     0
  3
Dot (.5x) ........................................
 72
    65
 73
     2
 40
0.635
 49
0.0
 74
     0
 49
-0.635
 74
     0
  0
ENDTAB
  0
TABLE
  2
LAYER
  5
2
330
0
100
AcDbSymbolTable
 70
    14
  0
LAYER
  5
10
330
2
100
AcDbSymbolTableRecord
100
AcDbLayerTableRecord
  2
0
 70
     0
 62
     7
  6
Continuous
370
    -3
390
F
  0
LAYER
  5
63
330
2
100
AcDbSymbolTableRecord
100
AcDbLayerTableRecord
  2
SLD-0
 70
     0
 62
     7
  6
Continuous
370
    -3
390
F
  0
LAYER
  5
64
330
2
100
AcDbSymbolTableRecord
100
AcDbLayerTableRecord
  2
5
 70
     0
 62
     7
  6
Continuous
370
    -3
390
F
  0
LAYER
  5
65
330
2
100
AcDbSymbolTableRecord
100
AcDbLayerTableRecord
  2
9
 70
     0
 62
     7
  6
Continuous
370
    -3
390
F
  0
LAYER
  5
66
330
2
100
AcDbSymbolTableRecord
100
AcDbLayerTableRecord
  2
10
 70
     0
 62
     7
  6
Continuous
370
    -3
390
F
  0
LAYER
  5
67
330
2
100
AcDbSymbolTableRecord
100
AcDbLayerTableRecord
  2
轮廓实线层
 70
     0
 62
     7
  6
Continuous
370
    50
390
F
  0
LAYER
  5
68
330
2
100
AcDbSymbolTableRecord
100
AcDbLayerTableRecord
  2
细线层
 70
     0
 62
     4
  6
Continuous
370
    25
390
F
  0
LAYER
  5
69
330
2
100
AcDbSymbolTableRecord
100
AcDbLayerTableRecord
  2
中心线层
 70
     0
 62
     1
  6
CENTERX2
370
    25
390
F
  0
LAYER
  5
6A
330
2
100
AcDbSymbolTableRecord
100
AcDbLayerTableRecord
  2
虚线层
 70
     0
 62
     6
  6
HIDDEN
370
    25
390
F
  0
LAYER
  5
6B
330
2
100
AcDbSymbolTableRecord
100
AcDbLayerTableRecord
  2
剖面线层
 70
     0
 62
     2
  6
Continuous
370
    25
390
F
  0
LAYER
  5
6C
330
2
100
AcDbSymbolTableRecord
100
AcDbLayerTableRecord
  2
文字层
 70
     0
 62
     3
  6
Continuous
370
    25
390
F
  0
LAYER
  5
6D
330
2
100
AcDbSymbolTableRecord
100
AcDbLayerTableRecord
  2
标注层
 70
     0
 62
     4
  6
Continuous
370
    25
390
F
  0
LAYER
  5
6E
330
2
100
AcDbSymbolTableRecord
100
AcDbLayerTableRecord
  2
符号标注层
 70
     0
 62
    31
  6
Continuous
370
    25
390
F
  0
LAYER
  5
6F
330
2
100
AcDbSymbolTableRecord
100
AcDbLayerTableRecord
  2
双点划线层
 70
     0
 62
     6
  6
PHANTOM
370
    25
390
F
  0
ENDTAB
  0
TABLE
  2
STYLE
  5
3
330
0
100
AcDbSymbolTable
 70
     1
  0
STYLE
  5
11
330
3
100
AcDbSymbolTableRecord
100
AcDbTextStyleTableRecord
  2
Standard
 70
     0
 40
0.0
 41
1.0
 50
0.0
 71
     0
 42
3.5
  3
txt
  4

  0
ENDTAB
  0
TABLE
  2
VIEW
  5
6
330
0
100
AcDbSymbolTable
 70
     0
  0
ENDTAB
  0
TABLE
  2
UCS
  5
7
330
0
100
AcDbSymbolTable
 70
     0
  0
ENDTAB
  0
TABLE
  2
APPID
  5
9
330
0
100
AcDbSymbolTable
 70
     1
  0
APPID
  5
12
330
9
100
AcDbSymbolTableRecord
100
AcDbRegAppTableRecord
  2
ACAD
 70
     0
  0
ENDTAB
  0
TABLE
  2
DIMSTYLE
  5
A
330
0
100
AcDbSymbolTable
 70
     1
100
AcDbDimStyleTable
  0
DIMSTYLE
105
27
330
A
100
AcDbSymbolTableRecord
100
AcDbDimStyleTableRecord
  2
ISO-25
 70
     0
 41
2.5
 42
0.625
 43
3.75
 44
1.25
 73
     0
 74
     0
 77
     1
 78
     8
140
2.5
141
2.5
143
0.0393700787
147
0.625
171
     3
172
     1
178
     0
271
     2
272
     2
274
     3
278
    44
283
     0
284
     8
340
11
  0
ENDTAB
  0
TABLE
  2
BLOCK_RECORD
  5
1
330
0
100
AcDbSymbolTable
 70
     3
  0
BLOCK_RECORD
  5
1F
330
1
100
AcDbSymbolTableRecord
100
AcDbBlockTableRecord
  2
*Model_Space
340
22
  0
BLOCK_RECORD
  5
1B
330
1
100
AcDbSymbolTableRecord
100
AcDbBlockTableRecord
  2
*Paper_Space
340
1E
  0
BLOCK_RECORD
  5
23
330
1
100
AcDbSymbolTableRecord
100
AcDbBlockTableRecord
  2
*Paper_Space0
340
26
  0
BLOCK_RECORD
  5
8F
330
1
100
AcDbSymbolTableRecord
100
AcDbBlockTableRecord
  2
SW_CENTERMARKSYMBOL_0
340
0
102
{BLKREFS
331
9A
102
}
  0
BLOCK_RECORD
  5
9B
330
1
100
AcDbSymbolTableRecord
100
AcDbBlockTableRecord
  2
SW_CENTERMARKSYMBOL_1
340
0
102
{BLKREFS
331
A6
102
}
  0
ENDTAB
  0
ENDSEC
  0
SECTION
  2
BLOCKS
  0
BLOCK
  5
20
330
1F
100
AcDbEntity
  8
0
100
AcDbBlockBegin
  2
*Model_Space
 70
     0
 10
0.0
 20
0.0
 30
0.0
  3
*Model_Space
  1

  0
ENDBLK
  5
21
330
1F
100
AcDbEntity
  8
0
100
AcDbBlockEnd
  0
BLOCK
  5
1C
330
1B
100
AcDbEntity
 67
     1
  8
0
100
AcDbBlockBegin
  2
*Paper_Space
 70
     0
 10
0.0
 20
0.0
 30
0.0
  3
*Paper_Space
  1

  0
ENDBLK
  5
1D
330
1B
100
AcDbEntity
 67
     1
  8
0
100
AcDbBlockEnd
  0
BLOCK
  5
24
330
23
100
AcDbEntity
  8
0
100
AcDbBlockBegin
  2
*Paper_Space0
 70
     0
 10
0.0
 20
0.0
 30
0.0
  3
*Paper_Space0
  1

  0
ENDBLK
  5
25
330
23
100
AcDbEntity
  8
0
100
AcDbBlockEnd
  0
BLOCK
  5
90
330
8F
100
AcDbEntity
  8
0
100
AcDbBlockBegin
  2
SW_CENTERMARKSYMBOL_0
 70
     0
 10
0.0
 20
0.0
 30
0.0
  3
SW_CENTERMARKSYMBOL_0
  1

  0
LINE
  5
92
330
8F
100
AcDbEntity
  8
10
 62
     0
100
AcDbLine
 10
0.0
 20
0.0
 30
0.0
 11
0.0
 21
2.5
 31
0.0
  0
LINE
  5
93
330
8F
100
AcDbEntity
  8
10
 62
     0
100
AcDbLine
 10
0.0
 20
0.0
 30
0.0
 11
-2.5
 21
0.0
 31
0.0
  0
LINE
  5
94
330
8F
100
AcDbEntity
  8
10
 62
     0
100
AcDbLine
 10
0.0
 20
0.0
 30
0.0
 11
0.0
 21
-2.5
 31
0.0
  0
LINE
  5
95
330
8F
100
AcDbEntity
  8
10
 62
     0
100
AcDbLine
 10
0.0
 20
0.0
 30
0.0
 11
2.5
 21
0.0
 31
0.0
  0
LINE
  5
96
330
8F
100
AcDbEntity
  8
10
 62
     0
100
AcDbLine
 10
0.0
 20
5.0
 30
0.0
 11
0.0
 21
7.6151209779
 31
0.0
  0
LINE
  5
97
330
8F
100
AcDbEntity
  8
10
 62
     0
100
AcDbLine
 10
-5.0
 20
0.0
 30
0.0
 11
-7.6151209779
 21
0.0
 31
0.0
  0
LINE
  5
98
330
8F
100
AcDbEntity
  8
10
 62
     0
100
AcDbLine
 10
0.0
 20
-5.0
 30
0.0
 11
0.0
 21
-7.6151209779
 31
0.0
  0
LINE
  5
99
330
8F
100
AcDbEntity
  8
10
 62
     0
100
AcDbLine
 10
5.0
 20
0.0
 30
0.0
 11
7.6151209779
 21
0.0
 31
0.0
  0
ENDBLK
  5
91
330
8F
100
AcDbEntity
  8
0
100
AcDbBlockEnd
  0
BLOCK
  5
9C
330
9B
100
AcDbEntity
  8
0
100
AcDbBlockBegin
  2
SW_CENTERMARKSYMBOL_1
 70
     0
 10
0.0
 20
0.0
 30
0.0
  3
SW_CENTERMARKSYMBOL_1
  1

  0
LINE
  5
9E
330
9B
100
AcDbEntity
  8
10
 62
     0
100
AcDbLine
 10
0.0
 20
0.0
 30
0.0
 11
0.0
 21
2.5
 31
0.0
  0
LINE
  5
9F
330
9B
100
AcDbEntity
  8
10
 62
     0
100
AcDbLine
 10
0.0
 20
0.0
 30
0.0
 11
-2.5
 21
0.0
 31
0.0
  0
LINE
  5
A0
330
9B
100
AcDbEntity
  8
10
 62
     0
100
AcDbLine
 10
0.0
 20
0.0
 30
0.0
 11
0.0
 21
-2.5
 31
0.0
  0
LINE
  5
A1
330
9B
100
AcDbEntity
  8
10
 62
     0
100
AcDbLine
 10
0.0
 20
0.0
 30
0.0
 11
2.5
 21
0.0
 31
0.0
  0
LINE
  5
A2
330
9B
100
AcDbEntity
  8
10
 62
     0
100
AcDbLine
 10
0.0
 20
5.0
 30
0.0
 11
0.0
 21
13.4463588926
 31
0.0
  0
LINE
  5
A3
330
9B
100
AcDbEntity
  8
10
 62
     0
100
AcDbLine
 10
-5.0
 20
0.0
 30
0.0
 11
-13.4463588926
 21
0.0
 31
0.0
  0
LINE
  5
A4
330
9B
100
AcDbEntity
  8
10
 62
     0
100
AcDbLine
 10
0.0
 20
-5.0
 30
0.0
 11
0.0
 21
-13.4463588926
 31
0.0
  0
LINE
  5
A5
330
9B
100
AcDbEntity
  8
10
 62
     0
100
AcDbLine
 10
5.0
 20
0.0
 30
0.0
 11
13.4463588926
 21
0.0
 31
0.0
  0
ENDBLK
  5
9D
330
9B
100
AcDbEntity
  8
0
100
AcDbBlockEnd
  0
ENDSEC
  0
SECTION
  2
ENTITIES
  0
ARC
  5
70
330
1F
100
AcDbEntity
  8
0
  6
Continuous
 62
     7
370
    25
100
AcDbCircle
 10
50.4747672993
 20
33.8150307228
 30
0.0
 40
10.23024195572731
100
AcDbArc
 50
68.9237729687
 51
73.9906448507
  0
SPLINE
  5
71
330
1F
100
AcDbEntity
  8
0
  6
Continuous
 62
     7
370
    25
100
AcDbSpline
210
0.0
220
0.0
230
1.0
 70
     8
 71
     3
 72
     8
 73
     4
 74
     0
 42
0.00000001
 43
0.00000001
 40
0.0
 40
0.0
 40
0.0
 40
0.0
 40
1.0
 40
1.0
 40
1.0
 40
1.0
 10
53.2962097712734
 20
43.64850990617387
 30
0.0
 10
52.25236335441821
 20
43.94801250945835
 30
0.0
 10
52.43325572072064
 20
48.2623088893357
 30
0.0
 10
53.26865579349159
 20
49.09770896210663
 30
0.0
  0
ARC
  5
72
330
1F
100
AcDbEntity
  8
0
  6
Continuous
 62
     7
370
    25
100
AcDbCircle
 10
45.8901048642
 20
56.4762598914
 30
0.0
 40
10.43484679484177
100
AcDbArc
 50
315.0
 51
45.0
  0
SPLINE
  5
73
330
1F
100
AcDbEntity
  8
0
  6
Continuous
 62
     7
370
    25
100
AcDbSpline
210
0.0
220
0.0
230
1.0
 70
     8
 71
     3
 72
     8
 73
     4
 74
     0
 42
0.00000001
 43
0.00000001
 40
0.0
 40
0.0
 40
0.0
 40
0.0
 40
1.0
 40
1.0
 40
1.0
 40
1.0
 10
53.2962097712734
 20
69.30400987658997
 30
0.0
 10
52.25236335441821
 20
69.00450727330549
 30
0.0
 10
52.43325572072064
 20
64.69021089342813
 30
0.0
 10
53.26865579349159
 20
63.85481082065722
 30
0.0
  0
ARC
  5
74
330
1F
100
AcDbEntity
  8
0
  6
Continuous
 62
     7
370
    25
100
AcDbCircle
 10
50.4747672993
 20
79.13748906
 30
0.0
 40
10.23024195572731
100
AcDbArc
 50
286.0093551493
 51
291.0762270313
  0
SPLINE
  5
75
330
1F
100
AcDbEntity
  8
0
  6
Continuous
 62
     7
370
    25
100
AcDbSpline
210
0.0
220
0.0
230
1.0
 70
     8
 71
     3
 72
     8
 73
     4
 74
     0
 42
0.00000001
 43
0.00000001
 40
0.0
 40
0.0
 40
0.0
 40
0.0
 40
1.0
 40
1.0
 40
1.0
 40
1.0
 10
54.15366132768831
 20
43.36089837327258
 30
0.0
 10
64.98856246517704
 20
39.18522209608873
 30
0.0
 10
75.8003792918229
 20
42.49315333689734
 30
0.0
 10
87.26787225754819
 20
45.25293548553745
 30
0.0
  0
SPLINE
  5
76
330
1F
100
AcDbEntity
  8
0
  6
Continuous
 62
     7
370
    25
100
AcDbSpline
210
0.0
220
0.0
230
1.0
 70
     8
 71
     3
 72
     8
 73
     4
 74
     0
 42
0.00000001
 43
0.00000001
 40
0.0
 40
0.0
 40
0.0
 40
0.0
 40
1.0
 40
1.0
 40
1.0
 40
1.0
 10
54.15366132768846
 20
69.59162140949131
 30
0.0
 10
64.98856246517717
 20
73.76729768667501
 30
0.0
 10
75.80037929182298
 20
70.45936644586644
 30
0.0
 10
87.26787225754818
 20
67.69958429722635
 30
0.0
  0
SPLINE
  5
77
330
1F
100
AcDbEntity
  8
0
  6
Continuous
 62
     7
370
    25
100
AcDbSpline
210
0.0
220
0.0
230
1.0
 70
     8
 71
     3
 72
    10
 73
     6
 74
     0
 42
0.00000001
 43
0.00000001
 40
0.0
 40
0.0
 40
0.0
 40
0.0
 40
0.5
 40
0.5
 40
1.0
 40
1.0
 40
1.0
 40
1.0
 10
97.13574434082112
 20
47.27601593936355
 30
0.0
 10
95.5183632145841
 20
47.02945242675859
 30
0.0
 10
93.88862667382635
 20
46.72626290587453
 30
0.0
 10
90.60134962509623
 20
46.03968876281772
 30
0.0
 10
88.94381069121125
 20
45.65626906378926
 30
0.0
 10
87.26787225754819
 20
45.25293548553747
 30
0.0
  0
SPLINE
  5
78
330
1F
100
AcDbEntity
  8
0
  6
Continuous
 62
     7
370
    25
100
AcDbSpline
210
0.0
220
0.0
230
1.0
 70
     8
 71
     3
 72
    10
 73
     6
 74
     0
 42
0.00000001
 43
0.00000001
 40
0.0
 40
0.0
 40
0.0
 40
0.0
 40
0.4999999999999998
 40
0.4999999999999998
 40
1.0
 40
1.0
 40
1.0
 40
1.0
 10
87.26787225754818
 20
67.69958429722635
 30
0.0
 10
88.94381069121104
 20
67.2962507189746
 30
0.0
 10
90.60134962509555
 20
66.91283101994625
 30
0.0
 10
93.88862667382533
 20
66.22625687688951
 30
0.0
 10
95.51836321458224
 20
65.92306735600556
 30
0.0
 10
97.13574434081909
 20
65.67650384340058
 30
0.0
  0
SPLINE
  5
79
330
1F
100
AcDbEntity
  8
0
  6
Continuous
 62
     7
370
    25
100
AcDbSpline
210
0.0
220
0.0
230
1.0
 70
     8
 71
     3
 72
    14
 73
    10
 74
     0
 42
0.00000001
 43
0.00000001
 40
0.0
 40
0.0
 40
0.0
 40
0.0
 40
0.5000000000000001
 40
0.5000000000000001
 40
0.7500000000000006
 40
0.7500000000000006
 40
0.8750000000000004
 40
0.8750000000000004
 40
1.0
 40
1.0
 40
1.0
 40
1.0
 10
112.0462770741913
 20
47.56112047652542
 30
0.0
 10
109.5078260870408
 20
47.91775909866688
 30
0.0
 10
106.9934054444217
 20
48.03389113106057
 30
0.0
 10
103.2580275703395
 20
47.93142648292336
 30
0.0
 10
102.0189770991021
 20
47.85128928454953
 30
0.0
 10
100.169844801683
 20
47.67378924127003
 30
0.0
 10
99.55567851031368
 20
47.60511094445152
 30
0.0
 10
98.33876993028788
 20
47.45194767554155
 30
0.0
 10
97.73499951598383
 20
47.36737007880412
 30
0.0
 10
97.13574434082112
 20
47.27601593936355
 30
0.0
  0
SPLINE
  5
7A
330
1F
100
AcDbEntity
  8
0
  6
Continuous
 62
     7
370
    25
100
AcDbSpline
210
0.0
220
0.0
230
1.0
 70
     8
 71
     3
 72
    14
 73
    10
 74
     0
 42
0.00000001
 43
0.00000001
 40
0.0
 40
0.0
 40
0.0
 40
0.0
 40
0.5000000000000003
 40
0.5000000000000003
 40
0.7500000000000004
 40
0.7500000000000004
 40
0.8750000000000002
 40
0.8750000000000002
 40
1.0
 40
1.0
 40
1.0
 40
1.0
 10
112.0462770741913
 20
65.39139930623843
 30
0.0
 10
109.5078260870406
 20
65.03476068409691
 30
0.0
 10
106.9934054444213
 20
64.91862865170324
 30
0.0
 10
103.2580275703389
 20
65.0210932998405
 30
0.0
 10
102.0189770991013
 20
65.10123049821435
 30
0.0
 10
100.1698448016822
 20
65.27873054149389
 30
0.0
 10
99.5556785103128
 20
65.34740883831242
 30
0.0
 10
98.33876993028693
 20
65.50057210722241
 30
0.0
 10
97.7349995159818
 20
65.58514970395998
 30
0.0
 10
97.13574434081907
 20
65.6765038434006
 30
0.0
  0
CIRCLE
  5
7B
330
1F
100
AcDbEntity
  8
0
  6
Continuous
 62
     7
370
    25
100
AcDbCircle
 10
121.1565608808
 20
56.4762598914
 30
0.0
 40
6.138145173436328
  0
ARC
  5
7C
330
1F
100
AcDbEntity
  8
0
  6
Continuous
 62
     7
370
    25
100
AcDbCircle
 10
122.8944580547
 20
64.0302668703
 30
0.0
 40
4.092096782290898
100
AcDbArc
 50
77.0438096589
 51
111.2754507899
  0
ARC
  5
7D
330
1F
100
AcDbEntity
  8
0
  6
Continuous
 62
     7
370
    25
100
AcDbCircle
 10
121.1565608808
 20
56.4762598914
 30
0.0
 40
11.8434391192048
100
AcDbArc
 50
282.9561903411
 51
77.0438096589
  0
ARC
  5
7E
330
1F
100
AcDbEntity
  8
0
  6
Continuous
 62
     7
370
    25
100
AcDbCircle
 10
122.8944580547
 20
48.9222529125
 30
0.0
 40
4.092096782290931
100
AcDbArc
 50
248.7245492101
 51
282.9561903411
  0
SPLINE
  5
7F
330
1F
100
AcDbEntity
  8
0
  6
Continuous
 62
     7
370
    25
100
AcDbSpline
210
0.0
220
0.0
230
1.0
 70
     8
 71
     3
 72
     8
 73
     4
 74
     0
 42
0.00000001
 43
0.00000001
 40
0.0
 40
0.0
 40
0.0
 40
0.0
 40
1.0
 40
1.0
 40
1.0
 40
1.0
 10
112.0462770741913
 20
47.56112047652542
 30
0.0
 10
115.0992915627115
 20
47.13218846795981
 30
0.0
 10
118.2172582934275
 20
46.35212492834433
 30
0.0
 10
121.4096325511149
 20
45.1090456929382
 30
0.0
  0
SPLINE
  5
80
330
1F
100
AcDbEntity
  8
0
  6
Continuous
 62
     7
370
    25
100
AcDbSpline
210
0.0
220
0.0
230
1.0
 70
     8
 71
     3
 72
     8
 73
     4
 74
     0
 42
0.00000001
 43
0.00000001
 40
0.0
 40
0.0
 40
0.0
 40
0.0
 40
1.0
 40
1.0
 40
1.0
 40
1.0
 10
112.0462770741913
 20
65.39139930623843
 30
0.0
 10
115.0992915627114
 20
65.82033131480402
 30
0.0
 10
118.2172582934273
 20
66.60039485441948
 30
0.0
 10
121.4096325511147
 20
67.84347408982556
 30
0.0
  0
CIRCLE
  5
81
330
1F
100
AcDbEntity
  8
0
  6
Continuous
 62
     7
370
    25
100
AcDbCircle
 10
121.1565608808
 20
56.4762598914
 30
0.0
 40
5.115120977863626
  0
ARC
  5
82
330
1F
100
AcDbEntity
  8
0
  6
Continuous
 62
     7
370
    25
100
AcDbCircle
 10
45.8901048642
 20
56.4762598914
 30
0.0
 40
12.89010486421629
100
AcDbArc
 50
78.5626935123
 51
281.4373064877
  0
ARC
  5
83
330
1F
100
AcDbEntity
  8
0
  6
Continuous
 62
     7
370
    25
100
AcDbCircle
 10
45.8901048642
 20
56.4762598914
 30
0.0
 40
10.43484679484177
100
AcDbArc
 50
45.0
 51
315.0
  0
ARC
  5
84
330
1F
100
AcDbEntity
  8
0
  6
Continuous
 62
     7
370
    25
100
AcDbCircle
 10
50.4747672993
 20
79.13748906
 30
0.0
 40
10.23024195572731
100
AcDbArc
 50
258.5626935123
 51
286.0093551493
  0
ARC
  5
85
330
1F
100
AcDbEntity
  8
0
  6
Continuous
 62
     7
370
    25
100
AcDbCircle
 10
50.4747672993
 20
33.8150307228
 30
0.0
 40
10.23024195572731
100
AcDbArc
 50
73.9906448507
 51
101.4373064877
  0
ARC
  5
86
330
1F
100
AcDbEntity
  8
0
  6
HIDDEN
 62
     7
370
    18
100
AcDbCircle
 10
45.8901048642
 20
56.4762598914
 30
0.0
 40
12.37859276642993
100
AcDbArc
 50
78.5626935123
 51
281.4373064877
  0
ARC
  5
87
330
1F
100
AcDbEntity
  8
0
  6
HIDDEN
 62
     7
370
    18
100
AcDbCircle
 10
50.4747672993
 20
79.13748906
 30
0.0
 40
10.74175405351367
100
AcDbArc
 50
258.5626935123
 51
291.0762270313
  0
CIRCLE
  5
88
330
1F
100
AcDbEntity
  8
0
  6
HIDDEN
 62
     7
370
    18
100
AcDbCircle
 10
45.8901048642
 20
56.4762598914
 30
0.0
 40
10.94635889262812
  0
ARC
  5
89
330
1F
100
AcDbEntity
  8
0
  6
HIDDEN
 62
     7
370
    18
100
AcDbCircle
 10
122.8944580547
 20
48.9222529125
 30
0.0
 40
3.580584684504555
100
AcDbArc
 50
248.7245492135
 51
282.9561903411
  0
ARC
  5
8A
330
1F
100
AcDbEntity
  8
0
  6
HIDDEN
 62
     7
370
    18
100
AcDbCircle
 10
121.1565608808
 20
56.4762598914
 30
0.0
 40
11.33192702141847
100
AcDbArc
 50
282.9561903411
 51
77.0438096589
  0
ARC
  5
8B
330
1F
100
AcDbEntity
  8
0
  6
HIDDEN
 62
     7
370
    18
100
AcDbCircle
 10
122.8944580547
 20
64.0302668703
 30
0.0
 40
3.580584684504563
100
AcDbArc
 50
77.0438096589
 51
111.2754507865
  0
ARC
  5
8C
330
1F
100
AcDbEntity
  8
0
  6
HIDDEN
 62
     7
370
    18
100
AcDbCircle
 10
50.4747672993
 20
33.8150307228
 30
0.0
 40
10.74175405351365
100
AcDbArc
 50
68.9237729687
 51
101.4373064877
  0
SPLINE
  5
8D
330
1F
100
AcDbEntity
  8
0
  6
HIDDEN
 62
     7
370
    18
100
AcDbSpline
210
0.0
220
0.0
230
1.0
 70
     8
 71
     3
 72
    18
 73
    14
 74
     0
 42
0.00000001
 43
0.00000001
 40
0.0
 40
0.0
 40
0.0
 40
0.0
 40
0.004142241704895
 40
0.004142241704895
 40
0.00828448340979
 40
0.00828448340979
 40
0.0165689668195799
 40
0.0165689668195799
 40
0.0248534502293698
 40
0.0248534502293698
 40
0.0289956919342647
 40
0.0289956919342647
 40
0.0331379336391597
 40
0.0331379336391597
 40
0.0331379336391597
 40
0.0331379336391597
 10
121.595235739272
 20
45.5856965953058
 30
0.0
 10
118.8738114094224
 20
46.64579641807182
 30
0.0
 10
116.0883063505219
 20
47.41753082306872
 30
0.0
 10
110.3420185026678
 20
48.37999457854873
 30
0.0
 10
107.432532387849
 20
48.5566061274392
 30
0.0
 10
98.89961133224494
 20
48.32535668475058
 30
0.0
 10
93.3306975312303
 20
47.22128676019226
 30
0.0
 10
82.25631349662599
 20
44.58822441364195
 30
0.0
 10
76.74335773088868
 20
43.05686520335345
 30
0.0
 10
68.32779893113658
 20
41.9277648972548
 30
0.0
 10
65.45506390237475
 20
41.77405901002057
 30
0.0
 10
59.77538823694032
 20
42.21225280286622
 30
0.0
 10
57.01904842447203
 20
42.80348924576825
 30
0.0
 10
54.33760602910932
 20
43.83819175579638
 30
0.0
  0
SPLINE
  5
8E
330
1F
100
AcDbEntity
  8
0
  6
HIDDEN
 62
     7
370
    18
100
AcDbSpline
210
0.0
220
0.0
230
1.0
 70
     8
 71
     3
 72
    18
 73
    14
 74
     0
 42
0.00000001
 43
0.00000001
 40
0.0
 40
0.0
 40
0.0
 40
0.0
 40
0.004122629842537
 40
0.004122629842537
 40
0.008245259685074
 40
0.008245259685074
 40
0.012367889527611
 40
0.012367889527611
 40
0.016490519370148
 40
0.016490519370148
 40
0.024735779055222
 40
0.024735779055222
 40
0.0329810387402961
 40
0.0329810387402961
 40
0.0329810387402961
 40
0.0329810387402961
 10
54.33760602910942
 20
69.11432802696761
 30
0.0
 10
57.0824097098471
 20
70.17826597428723
 30
0.0
 10
60.01133882011456
 20
70.78686167621268
 30
0.0
 10
65.83080285941548
 20
71.17620558500313
 30
0.0
 10
68.66281499615273
 20
70.98982387660587
 30
0.0
 10
74.28872563278394
 20
70.21451368288645
 30
0.0
 10
77.07186422231432
 20
69.62515422482872
 30
0.0
 10
82.62049102926584
 20
68.32703033721049
 30
0.0
 10
85.38547636639225
 20
67.61614277943876
 30
0.0
 10
93.70629202298456
 20
65.65075451160962
 30
0.0
 10
99.2659272300543
 20
64.56877997999527
 30
0.0
 10
110.6943939553113
 20
64.36027789804137
 30
0.0
 10
116.2702265587631
 20
65.28427792790939
 30
0.0
 10
121.5952357392715
 20
67.36682318745801
 30
0.0
  0
INSERT
  5
9A
330
1F
100
AcDbEntity
  8
10
100
AcDbBlockReference
  2
SW_CENTERMARKSYMBOL_0
 10
121.1565608808
 20
56.4762598914
 30
0.0
  0
INSERT
  5
A6
330
1F
100
AcDbEntity
  8
10
100
AcDbBlockReference
  2
SW_CENTERMARKSYMBOL_1
 10
45.8901048642
 20
56.4762598914
 30
0.0
  0
LINE
  5
A7
330
1F
100
AcDbEntity
  8
0
  6
Continuous
 62
     7
370
    25
100
AcDbLine
 10
33.5115120978
 20
170.8104840715
 30
0.0
 11
33.0
 21
170.2989719737
 31
0.0
  0
LINE
  5
A8
330
1F
100
AcDbEntity
  8
0
  6
Continuous
 62
     7
370
    25
100
AcDbLine
 10
33.0
 20
170.2989719737
 30
0.0
 11
33.0
 21
150.35000016
 31
0.0
  0
LINE
  5
A9
330
1F
100
AcDbEntity
  8
0
  6
Continuous
 62
     7
370
    25
100
AcDbLine
 10
52.5765880713
 20
150.35000016
 30
0.0
 11
52.5765880713
 21
142.1658065954
 31
0.0
  0
LINE
  5
AA
330
1F
100
AcDbEntity
  8
0
  6
Continuous
 62
     7
370
    25
100
AcDbLine
 10
133.0
 20
170.2989719737
 30
0.0
 11
132.4884879022
 21
170.8104840715
 31
0.0
  0
LINE
  5
AB
330
1F
100
AcDbEntity
  8
0
  6
Continuous
 62
     7
370
    25
100
AcDbLine
 10
133.0
 20
146.2579033777
 30
0.0
 11
133.0
 21
170.2989719737
 31
0.0
  0
SPLINE
  5
AC
330
1F
100
AcDbEntity
  8
0
  6
Continuous
 62
     7
370
    25
100
AcDbSpline
210
0.0
220
0.0
230
1.0
 70
     8
 71
     3
 72
    34
 73
    30
 74
     0
 42
0.00000001
 43
0.00000001
 40
0.0
 40
0.0
 40
0.0
 40
0.0
 40
0.0625000000000001
 40
0.0625000000000001
 40
0.1250000000000003
 40
0.1250000000000003
 40
0.1875000000000004
 40
0.1875000000000004
 40
0.2187500000000005
 40
0.2187500000000005
 40
0.2500000000000006
 40
0.2500000000000006
 40
0.3750000000000005
 40
0.3750000000000005
 40
0.5000000000000003
 40
0.5000000000000003
 40
0.6250000000000002
 40
0.6250000000000002
 40
0.7500000000000001
 40
0.7500000000000001
 40
0.8125000000000001
 40
0.8125000000000001
 40
0.8437500000000002
 40
0.8437500000000002
 40
0.8750000000000002
 40
0.8750000000000002
 40
0.9375000000000002
 40
0.9375000000000002
 40
1.0
 40
1.0
 40
1.0
 40
1.0
 10
121.4096325512138
 20
170.2989719736831
 30
0.0
 10
120.0707415879235
 20
170.297006093995
 30
0.0
 10
118.7069516378148
 20
170.2983698029078
 30
0.0
 10
115.9438547350672
 20
170.3014936696549
 30
0.0
 10
114.5400241958125
 20
170.303186576383
 30
0.0
 10
111.7072894502821
 20
170.3038396932519
 30
0.0
 10
110.2784327619204
 20
170.3027662914873
 30
0.0
 10
108.1324152220711
 20
170.3005589797052
 30
0.0
 10
107.4160128101961
 20
170.2997651720033
 30
0.0
 10
105.9811897027875
 20
170.2987955757502
 30
0.0
 10
105.2621451474575
 20
170.2988264858709
 30
0.0
 10
101.6843458062314
 20
170.3006209212522
 30
0.0
 10
98.8607650729756
 20
170.3027399705318
 30
0.0
 10
93.26059415750439
 20
170.302288933812
 30
0.0
 10
90.48406992911131
 20
170.2992286883608
 30
0.0
 10
84.94574286116212
 20
170.2984878117099
 30
0.0
 10
82.1841135998219
 20
170.2987403016295
 30
0.0
 10
76.63840993072569
 20
170.2992347761469
 30
0.0
 10
73.85444037493859
 20
170.2987191229121
 30
0.0
 10
69.62720947495094
 20
170.2991156404968
 30
0.0
 10
68.20950911993305
 20
170.299567849051
 30
0.0
 10
66.06476811311235
 20
170.2989697399557
 30
0.0
 10
65.34566942926286
 20
170.2986287542415
 30
0.0
 10
63.90534242814056
 20
170.2983704071398
 30
0.0
 10
63.18914488133886
 20
170.2990412562084
 30
0.0
 10
61.05335879670848
 20
170.2995173368666
 30
0.0
 10
59.64662448681503
 20
170.2966643751894
 30
0.0
 10
56.87111746373542
 20
170.2977656590126
 30
0.0
 10
55.50234132439443
 20
170.301858465029
 30
0.0
 10
54.15366132768846
 20
170.2989719736833
 30
0.0
  0
SPLINE
  5
AD
330
1F
100
AcDbEntity
  8
0
  6
Continuous
 62
     7
370
    25
100
AcDbSpline
210
0.0
220
0.0
230
1.0
 70
    24
 71
     3
 72
     8
 73
     4
 74
     0
 42
0.00000001
 43
0.00000001
 40
0.0
 40
0.0
 40
0.0
 40
0.0
 40
1.0
 40
1.0
 40
1.0
 40
1.0
 10
112.0462770741913
 20
146.2579033777243
 30
0.0
 10
115.0992915627114
 20
146.2579033777243
 30
0.0
 10
118.2172582934273
 20
146.2579033777243
 30
0.0
 10
121.4096325511147
 20
146.2579033777243
 30
0.0
  0
SPLINE
  5
AE
330
1F
100
AcDbEntity
  8
0
  6
Continuous
 62
     7
370
    25
100
AcDbSpline
210
0.0
220
0.0
230
1.0
 70
     8
 71
     3
 72
    14
 73
    10
 74
     0
 42
0.00000001
 43
0.00000001
 40
0.0
 40
0.0
 40
0.0
 40
0.0
 40
0.5000000000000003
 40
0.5000000000000003
 40
0.7500000000000004
 40
0.7500000000000004
 40
0.8750000000000002
 40
0.8750000000000002
 40
1.0
 40
1.0
 40
1.0
 40
1.0
 10
112.0462770741913
 20
146.2579033777243
 30
0.0
 10
109.5078260870406
 20
146.2579033777243
 30
0.0
 10
106.9934054444213
 20
146.0508433860599
 30
0.0
 10
103.2580275703389
 20
145.4350549967753
 30
0.0
 10
102.0189770991013
 20
145.178677272612
 30
0.0
 10
100.1698448016822
 20
144.7158417367987
 30
0.0
 10
99.5556785103128
 20
144.5486093684886
 30
0.0
 10
98.33876993028693
 20
144.1902847910003
 30
0.0
 10
97.7349995159818
 20
143.998943989843
 30
0.0
 10
97.13574434081907
 20
143.7954630603599
 30
0.0
  0
SPLINE
  5
AF
330
1F
100
AcDbEntity
  8
0
  6
Continuous
 62
     7
370
    25
100
AcDbSpline
210
0.0
220
0.0
230
1.0
 70
     8
 71
     3
 72
    10
 73
     6
 74
     0
 42
0.00000001
 43
0.00000001
 40
0.0
 40
0.0
 40
0.0
 40
0.0
 40
0.4999999999999998
 40
0.4999999999999998
 40
1.0
 40
1.0
 40
1.0
 40
1.0
 10
87.26787225754818
 20
142.1658065954335
 30
0.0
 10
88.94381069121104
 20
142.1658065954335
 30
0.0
 10
90.60134962509555
 20
142.3019403725805
 30
0.0
 10
93.88862667382533
 20
142.8421895561362
 30
0.0
 10
95.51836321458224
 20
143.2462709489931
 30
0.0
 10
97.13574434081909
 20
143.7954630603599
 30
0.0
  0
SPLINE
  5
B0
330
1F
100
AcDbEntity
  8
0
  6
Continuous
 62
     7
370
    25
100
AcDbSpline
210
0.0
220
0.0
230
1.0
 70
    24
 71
     3
 72
     8
 73
     4
 74
     0
 42
0.00000001
 43
0.00000001
 40
0.0
 40
0.0
 40
0.0
 40
0.0
 40
1.0
 40
1.0
 40
1.0
 40
1.0
 10
54.15366132768846
 20
142.1658065954334
 30
0.0
 10
64.98856246517717
 20
142.1658065954334
 30
0.0
 10
75.80037929182298
 20
142.1658065954334
 30
0.0
 10
87.26787225754818
 20
142.1658065954334
 30
0.0
  0
SPLINE
  5
B1
330
1F
100
AcDbEntity
  8
0
  6
Continuous
 62
     7
370
    25
100
AcDbSpline
210
0.0
220
0.0
230
1.0
 70
    24
 71
     3
 72
    18
 73
    14
 74
     0
 42
0.00000001
 43
0.00000001
 40
0.0
 40
0.0
 40
0.0
 40
0.0
 40
0.004122629842537
 40
0.004122629842537
 40
0.008245259685074
 40
0.008245259685074
 40
0.012367889527611
 40
0.012367889527611
 40
0.016490519370148
 40
0.016490519370148
 40
0.024735779055222
 40
0.024735779055222
 40
0.0329810387402961
 40
0.0329810387402961
 40
0.0329810387402961
 40
0.0329810387402961
 10
54.33760602910942
 20
170.8104840714696
 30
0.0
 10
57.0824097098471
 20
170.8104840714697
 30
0.0
 10
60.01133882011456
 20
170.8104840714696
 30
0.0
 10
65.83080285941548
 20
170.8104840714696
 30
0.0
 10
68.66281499615273
 20
170.8104840714696
 30
0.0
 10
74.28872563278394
 20
170.8104840714696
 30
0.0
 10
77.07186422231432
 20
170.8104840714696
 30
0.0
 10
82.62049102926584
 20
170.8104840714696
 30
0.0
 10
85.38547636639225
 20
170.8104840714696
 30
0.0
 10
93.70629202298456
 20
170.8104840714696
 30
0.0
 10
99.2659272300543
 20
170.8104840714697
 30
0.0
 10
110.6943939553113
 20
170.8104840714696
 30
0.0
 10
116.2702265587631
 20
170.8104840714696
 30
0.0
 10
121.5952357392715
 20
170.8104840714696
 30
0.0
  0
LINE
  5
B2
330
1F
100
AcDbEntity
  8
0
  6
Continuous
 62
     7
370
    25
100
AcDbLine
 10
54.1536613277
 20
170.2989719737
 30
0.0
 11
48.4461556023
 21
170.2989719737
 31
0.0
  0
LINE
  5
B3
330
1F
100
AcDbEntity
  8
0
  6
Continuous
 62
     7
370
    25
100
AcDbLine
 10
48.3447250175
 20
170.8104840715
 30
0.0
 11
54.3376060291
 21
170.8104840715
 31
0.0
  0
LINE
  5
B4
330
1F
100
AcDbEntity
  8
0
  6
Continuous
 62
     7
370
    25
100
AcDbLine
 10
48.4461556023
 20
150.35000016
 30
0.0
 11
53.2962097713
 21
150.35000016
 31
0.0
  0
LINE
  5
B5
330
1F
100
AcDbEntity
  8
0
  6
Continuous
 62
     7
370
    25
100
AcDbLine
 10
53.2962097713
 20
142.1658065954
 30
0.0
 11
54.1536613277
 21
142.1658065954
 31
0.0
  0
LINE
  5
B6
330
1F
100
AcDbEntity
  8
0
  6
Continuous
 62
     7
370
    25
100
AcDbLine
 10
48.4461556023
 20
170.2989719737
 30
0.0
 11
33.0
 21
170.2989719737
 31
0.0
  0
LINE
  5
B7
330
1F
100
AcDbEntity
  8
0
  6
Continuous
 62
     7
370
    25
100
AcDbLine
 10
33.5115120978
 20
170.8104840715
 30
0.0
 11
48.3447250175
 21
170.8104840715
 31
0.0
  0
LINE
  5
B8
330
1F
100
AcDbEntity
  8
0
  6
Continuous
 62
     7
370
    25
100
AcDbLine
 10
48.4461556023
 20
150.35000016
 30
0.0
 11
33.0
 21
150.35000016
 31
0.0
  0
SPLINE
  5
B9
330
1F
100
AcDbEntity
  8
0
  6
Continuous
 62
     7
370
    25
100
AcDbSpline
210
0.0
220
0.0
230
1.0
 70
    24
 71
     3
 72
    12
 73
     8
 74
     0
 42
0.00000001
 43
0.00000001
 40
0.0
 40
0.0
 40
0.0
 40
0.0
 40
0.0793733979729715
 40
0.1710368130627118
 40
0.4068553940662595
 40
0.706671823562609
 40
1.0
 40
1.0
 40
1.0
 40
1.0
 10
53.2962097712734
 20
142.1658065954334
 30
0.0
 10
53.23238984049098
 20
142.1658065954335
 30
0.0
 10
53.09486822935085
 20
142.1658065954335
 30
0.0
 10
52.87765838854256
 20
142.1658065954334
 30
0.0
 10
52.70031356813871
 20
142.1658065954334
 30
0.0
 10
52.59088999844526
 20
142.1658065954334
 30
0.0
 10
52.58486447894379
 20
142.1658065954334
 30
0.0
 10
52.58188467498068
 20
142.1658065954334
 30
0.0
  0
LINE
  5
BA
330
1F
100
AcDbEntity
  8
0
  6
Continuous
 62
     7
370
    25
100
AcDbLine
 10
123.8119305549
 20
170.2989719737
 30
0.0
 11
121.4096325512
 21
170.2989719737
 31
0.0
  0
LINE
  5
BB
330
1F
100
AcDbEntity
  8
0
  6
Continuous
 62
     7
370
    25
100
AcDbLine
 10
121.5952357393
 20
170.8104840715
 30
0.0
 11
123.6972464924
 21
170.8104840715
 31
0.0
  0
LINE
  5
BC
330
1F
100
AcDbEntity
  8
0
  6
Continuous
 62
     7
370
    25
100
AcDbLine
 10
121.4096325511
 20
146.2579033777
 30
0.0
 11
123.8119305549
 21
146.2579033777
 31
0.0
  0
LINE
  5
BD
330
1F
100
AcDbEntity
  8
0
  6
Continuous
 62
     7
370
    25
100
AcDbLine
 10
133.0
 20
170.2989719737
 30
0.0
 11
123.8119305549
 21
170.2989719737
 31
0.0
  0
LINE
  5
BE
330
1F
100
AcDbEntity
  8
0
  6
Continuous
 62
     7
370
    25
100
AcDbLine
 10
123.6972464924
 20
170.8104840715
 30
0.0
 11
132.4884879022
 21
170.8104840715
 31
0.0
  0
LINE
  5
BF
330
1F
100
AcDbEntity
  8
0
  6
Continuous
 62
     7
370
    25
100
AcDbLine
 10
133.0
 20
146.2579033777
 30
0.0
 11
123.8119305549
 21
146.2579033777
 31
0.0
  0
LINE
  5
C0
330
1F
100
AcDbEntity
  8
0
  6
HIDDEN
 62
     7
370
    18
100
AcDbLine
 10
54.1536613277
 20
170.2989719737
 30
0.0
 11
56.3249516591
 21
170.2989719737
 31
0.0
  0
LINE
  5
C1
330
1F
100
AcDbEntity
  8
0
  6
HIDDEN
 62
     7
370
    18
100
AcDbLine
 10
116.0414399029
 20
169.7874598759
 30
0.0
 11
126.2716818587
 21
169.7874598759
 31
0.0
  0
LINE
  5
C2
330
1F
100
AcDbEntity
  8
0
  6
HIDDEN
 62
     7
370
    18
100
AcDbLine
 10
126.2716818587
 20
147.2809275733
 30
0.0
 11
116.0414399029
 21
147.2809275733
 31
0.0
  0
LINE
  5
C3
330
1F
100
AcDbEntity
  8
0
  6
HIDDEN
 62
     7
370
    18
100
AcDbLine
 10
34.9437459716
 20
170.8104840715
 30
0.0
 11
35.4552580694
 21
170.2989719737
 31
0.0
  0
LINE
  5
C4
330
1F
100
AcDbEntity
  8
0
  6
HIDDEN
 62
     7
370
    18
100
AcDbLine
 10
56.3249516591
 20
170.2989719737
 30
0.0
 11
56.8364637568
 21
170.8104840715
 31
0.0
  0
LINE
  5
C5
330
1F
100
AcDbEntity
  8
0
  6
HIDDEN
 62
     7
370
    18
100
AcDbLine
 10
35.4552580694
 20
170.2989719737
 30
0.0
 11
35.4552580694
 21
150.35000016
 31
0.0
  0
LINE
  5
C6
330
1F
100
AcDbEntity
  8
0
  6
HIDDEN
 62
     7
370
    18
100
AcDbLine
 10
56.3249516591
 20
142.1658065954
 30
0.0
 11
56.3249516591
 21
170.2989719737
 31
0.0
  0
LINE
  5
C7
330
1F
100
AcDbEntity
  8
0
  6
HIDDEN
 62
     7
370
    18
100
AcDbLine
 10
115.0184157074
 20
170.8104840715
 30
0.0
 11
116.0414399029
 21
169.7874598759
 31
0.0
  0
LINE
  5
C8
330
1F
100
AcDbEntity
  8
0
  6
HIDDEN
 62
     7
370
    18
100
AcDbLine
 10
126.2716818587
 20
169.7874598759
 30
0.0
 11
127.2947060542
 21
170.8104840715
 31
0.0
  0
LINE
  5
C9
330
1F
100
AcDbEntity
  8
0
  6
HIDDEN
 62
     7
370
    18
100
AcDbLine
 10
127.2947060542
 20
146.2579033777
 30
0.0
 11
126.2716818587
 21
147.2809275733
 31
0.0
  0
LINE
  5
CA
330
1F
100
AcDbEntity
  8
0
  6
HIDDEN
 62
     7
370
    18
100
AcDbLine
 10
116.0414399029
 20
147.2809275733
 30
0.0
 11
115.0184157074
 21
146.2579033777
 31
0.0
  0
LINE
  5
CB
330
1F
100
AcDbEntity
  8
0
  6
HIDDEN
 62
     7
370
    18
100
AcDbLine
 10
126.2716818587
 20
147.2809275733
 30
0.0
 11
126.2716818587
 21
169.7874598759
 31
0.0
  0
LINE
  5
CC
330
1F
100
AcDbEntity
  8
0
  6
HIDDEN
 62
     7
370
    18
100
AcDbLine
 10
116.0414399029
 20
169.7874598759
 30
0.0
 11
116.0414399029
 21
147.2809275733
 31
0.0
  0
LINE
  5
CD
330
1F
100
AcDbEntity
  8
0
  6
Continuous
 62
     7
370
    25
100
AcDbLine
 10
211.2579033777
 20
44.8301561302
 30
0.0
 11
235.2989719737
 21
44.8301561302
 31
0.0
  0
LINE
  5
CE
330
1F
100
AcDbEntity
  8
0
  6
Continuous
 62
     7
370
    25
100
AcDbLine
 10
235.2989719737
 20
44.8301561302
 30
0.0
 11
235.8104840715
 21
45.341668228
 31
0.0
  0
LINE
  5
CF
330
1F
100
AcDbEntity
  8
0
  6
Continuous
 62
     7
370
    25
100
AcDbLine
 10
235.8104840715
 20
67.6108515548
 30
0.0
 11
235.2989719737
 21
68.1223636525
 31
0.0
  0
LINE
  5
D0
330
1F
100
AcDbEntity
  8
0
  6
Continuous
 62
     7
370
    25
100
AcDbLine
 10
235.2989719737
 20
68.1223636525
 30
0.0
 11
211.2579033777
 21
68.1223636525
 31
0.0
  0
LINE
  5
D1
330
1F
100
AcDbEntity
  8
0
  6
Continuous
 62
     7
370
    25
100
AcDbLine
 10
235.2863005113
 20
41.368237521
 30
0.0
 11
235.8104840715
 21
41.8924468587
 31
0.0
  0
LINE
  5
D2
330
1F
100
AcDbEntity
  8
0
  6
Continuous
 62
     7
370
    25
100
AcDbLine
 10
235.8104840715
 20
71.059326435
 30
0.0
 11
235.2941506766
 21
71.5756303625
 31
0.0
  0
LINE
  5
D3
330
1F
100
AcDbEntity
  8
0
  6
Continuous
 62
     7
370
    25
100
AcDbLine
 10
207.1658065954
 20
41.3813227087
 30
0.0
 11
235.2997912595
 21
41.3813227087
 31
0.0
  0
LINE
  5
D4
330
1F
100
AcDbEntity
  8
0
  6
Continuous
 62
     7
370
    25
100
AcDbLine
 10
235.2986094098
 20
71.5711970741
 30
0.0
 11
207.1658065954
 21
71.5711970741
 31
0.0
  0
LINE
  5
D5
330
1F
100
AcDbEntity
  8
0
  6
Continuous
 62
     7
370
    25
100
AcDbLine
 10
235.8104840715
 20
67.5196962516
 30
0.0
 11
235.8104840715
 21
45.4328235312
 31
0.0
  0
LINE
  5
D6
330
1F
100
AcDbEntity
  8
0
  6
Continuous
 62
     7
370
    25
100
AcDbLine
 10
235.2989719737
 20
44.9343336196
 30
0.0
 11
235.2989719737
 21
68.0181861632
 31
0.0
  0
LINE
  5
D7
330
1F
100
AcDbEntity
  8
0
  6
Continuous
 62
     7
370
    25
100
AcDbLine
 10
211.2579033777
 20
44.9343336196
 30
0.0
 11
211.2579033777
 21
68.0181861632
 31
0.0
  0
LINE
  5
D8
330
1F
100
AcDbEntity
  8
0
  6
Continuous
 62
     7
370
    25
100
AcDbLine
 10
235.2989719737
 20
44.8301561302
 30
0.0
 11
235.2989719737
 21
44.9343336196
 31
0.0
  0
LINE
  5
D9
330
1F
100
AcDbEntity
  8
0
  6
Continuous
 62
     7
370
    25
100
AcDbLine
 10
211.2579033777
 20
44.9343336196
 30
0.0
 11
211.2579033777
 21
44.8301561302
 31
0.0
  0
LINE
  5
DA
330
1F
100
AcDbEntity
  8
0
  6
Continuous
 62
     7
370
    25
100
AcDbLine
 10
235.8104840715
 20
45.4328235312
 30
0.0
 11
235.8104840715
 21
45.341668228
 31
0.0
  0
LINE
  5
DB
330
1F
100
AcDbEntity
  8
0
  6
Continuous
 62
     7
370
    25
100
AcDbLine
 10
235.2989719737
 20
68.0181861632
 30
0.0
 11
235.2989719737
 21
68.1223636525
 31
0.0
  0
LINE
  5
DC
330
1F
100
AcDbEntity
  8
0
  6
Continuous
 62
     7
370
    25
100
AcDbLine
 10
235.8104840715
 20
67.6108515548
 30
0.0
 11
235.8104840715
 21
67.5196962516
 31
0.0
  0
LINE
  5
DD
330
1F
100
AcDbEntity
  8
0
  6
Continuous
 62
     7
370
    25
100
AcDbLine
 10
211.2579033777
 20
68.1223636525
 30
0.0
 11
211.2579033777
 21
68.0181861632
 31
0.0
  0
SPLINE
  5
DE
330
1F
100
AcDbEntity
  8
0
  6
Continuous
 62
     7
370
    25
100
AcDbSpline
210
0.0
220
0.0
230
1.0
 70
     8
 71
     3
 72
    14
 73
    10
 74
     0
 42
0.00000001
 43
0.00000001
 40
0.0
 40
0.0
 40
0.0
 40
0.0
 40
0.0816228633042143
 40
0.2267210776406759
 40
0.3718574354571613
 40
0.5683258166924793
 40
0.7649133292716781
 40
0.9615094587741996
 40
1.0
 40
1.0
 40
1.0
 40
1.0
 10
235.2998411527302
 20
41.40894182515685
 30
0.0
 10
235.300136454428
 20
41.40667283412263
 30
0.0
 10
235.3009567040059
 20
41.40037033416601
 30
0.0
 10
235.2999006196165
 20
41.63111303871541
 30
0.0
 10
235.2952344504292
 20
42.07942197685797
 30
0.0
 10
235.2961182489
 20
42.77446252275111
 30
0.0
 10
235.2994423338147
 20
43.67504458070813
 30
0.0
 10
235.2991545152875
 20
44.3922581666193
 30
0.0
 10
235.2995282868583
 20
44.76907735462024
 30
0.0
 10
235.2995894841606
 20
44.83077364069843
 30
0.0
  0
SPLINE
  5
DF
330
1F
100
AcDbEntity
  8
0
  6
Continuous
 62
     7
370
    25
100
AcDbSpline
210
0.0
220
0.0
230
1.0
 70
    24
 71
     3
 72
    14
 73
    10
 74
     0
 42
0.00000001
 43
0.00000001
 40
0.0
 40
0.0
 40
0.0
 40
0.0
 40
0.2527675999926524
 40
0.3962360036448566
 40
0.5397127486607454
 40
0.6833452158898367
 40
0.8268597127352806
 40
0.9704036103164189
 40
1.0
 40
1.0
 40
1.0
 40
1.0
 10
235.8104840714697
 20
45.28848966943058
 30
0.0
 10
235.8104840714697
 20
44.87867021523108
 30
0.0
 10
235.8104840714697
 20
44.23624126962
 30
0.0
 10
235.8104840714697
 20
43.42410661629074
 30
0.0
 10
235.8104840714697
 20
42.84752411248179
 30
0.0
 10
235.8104840714697
 20
42.36315815267996
 30
0.0
 10
235.8104840714697
 20
42.03300553499516
 30
0.0
 10
235.8104840714697
 20
41.87313848013537
 30
0.0
 10
235.8104840714697
 20
41.90592457560642
 30
0.0
 10
235.8104840714697
 20
41.91152899080691
 30
0.0
  0
SPLINE
  5
E0
330
1F
100
AcDbEntity
  8
0
  6
Continuous
 62
     7
370
    25
100
AcDbSpline
210
0.0
220
0.0
230
1.0
 70
     8
 71
     3
 72
    13
 73
     9
 74
     0
 42
0.00000001
 43
0.00000001
 40
0.0
 40
0.0
 40
0.0
 40
0.0
 40
0.0342838305076644
 40
0.2811891671950991
 40
0.5280247302503526
 40
0.6944959620206134
 40
0.8610491330844844
 40
0.9999999999999999
 40
0.9999999999999999
 40
0.9999999999999999
 40
0.9999999999999999
 10
235.299159246
 20
68.12245735007245
 30
0.0
 10
235.2990963930151
 20
68.17672577165517
 30
0.0
 10
235.2985808853188
 20
68.62182458482391
 30
0.0
 10
235.2998325204892
 20
69.5053527075815
 30
0.0
 10
235.2995859689191
 20
70.47267517159393
 30
0.0
 10
235.2993566149674
 20
71.1254006966495
 30
0.0
 10
235.2991968107045
 20
71.50192082055085
 30
0.0
 10
235.2988084072721
 20
71.53554025022682
 30
0.0
 10
235.2986317516901
 20
71.55083120654143
 30
0.0
  0
SPLINE
  5
E1
330
1F
100
AcDbEntity
  8
0
  6
Continuous
 62
     7
370
    25
100
AcDbSpline
210
0.0
220
0.0
230
1.0
 70
    24
 71
     3
 72
    14
 73
    10
 74
     0
 42
0.00000001
 43
0.00000001
 40
0.0
 40
0.0
 40
0.0
 40
0.0
 40
0.0921657740051746
 40
0.2372701695799337
 40
0.3815607885859451
 40
0.525831744520642
 40
0.6702571672249849
 40
0.8145053937056165
 40
1.0
 40
1.0
 40
1.0
 40
1.0
 10
235.8104840714697
 20
71.03357558707107
 30
0.0
 10
235.8104840714697
 20
71.0333516042878
 30
0.0
 10
235.8104840714697
 20
71.03277498641043
 30
0.0
 10
235.8104840714697
 20
70.7910161953103
 30
0.0
 10
235.8104840714697
 20
70.38990954731082
 30
0.0
 10
235.8104840714697
 20
69.85838074675863
 30
0.0
 10
235.8104840714697
 20
69.24169686072162
 30
0.0
 10
235.8104840714697
 20
68.50591475901979
 30
0.0
 10
235.8104840714697
 20
67.97662004439029
 30
0.0
 10
235.8104840714697
 20
67.67886887303766
 30
0.0
  0
SPLINE
  5
E2
330
1F
100
AcDbEntity
  8
0
  6
Continuous
 62
     7
370
    25
100
AcDbSpline
210
0.0
220
0.0
230
1.0
 70
    24
 71
     3
 72
    14
 73
    10
 74
     0
 42
0.00000001
 43
0.00000001
 40
0.0
 40
0.0
 40
0.0
 40
0.0
 40
0.0868271299146893
 40
0.2043605202620022
 40
0.3230520881682249
 40
0.4885008015270953
 40
0.6566505969483131
 40
0.8272830499958694
 40
1.0
 40
1.0
 40
1.0
 40
1.0
 10
207.1658065954334
 20
41.398325715015
 30
0.0
 10
207.1658065954334
 20
41.40069616028485
 30
0.0
 10
207.1658065954335
 20
41.40627535458823
 30
0.0
 10
207.1658065954334
 20
41.61430921367936
 30
0.0
 10
207.1658065954334
 20
42.00198542397087
 30
0.0
 10
207.1658065954334
 20
42.61163535250341
 30
0.0
 10
207.1658065954335
 20
43.42841579132489
 30
0.0
 10
207.1658065954334
 20
44.33674118375347
 30
0.0
 10
207.1658065954334
 20
44.94630381990322
 30
0.0
 10
207.1658065954334
 20
45.25293548553747
 30
0.0
  0
SPLINE
  5
E3
330
1F
100
AcDbEntity
  8
0
  6
Continuous
 62
     7
370
    25
100
AcDbSpline
210
0.0
220
0.0
230
1.0
 70
     8
 71
     3
 72
    10
 73
     6
 74
     0
 42
0.00000001
 43
0.00000001
 40
0.0
 40
0.0
 40
0.0
 40
0.0
 40
0.5
 40
0.5
 40
1.0
 40
1.0
 40
1.0
 40
1.0
 10
208.7954630603605
 20
47.27601593936355
 30
0.0
 10
208.2462709489936
 20
47.02945242675859
 30
0.0
 10
207.8421895561364
 20
46.72626290587453
 30
0.0
 10
207.3019403725806
 20
46.03968876281772
 30
0.0
 10
207.1658065954334
 20
45.65626906378926
 30
0.0
 10
207.1658065954334
 20
45.25293548553747
 30
0.0
  0
SPLINE
  5
E4
330
1F
100
AcDbEntity
  8
0
  6
Continuous
 62
     7
370
    25
100
AcDbSpline
210
0.0
220
0.0
230
1.0
 70
     8
 71
     3
 72
    14
 73
    10
 74
     0
 42
0.00000001
 43
0.00000001
 40
0.0
 40
0.0
 40
0.0
 40
0.0
 40
0.5000000000000001
 40
0.5000000000000001
 40
0.7500000000000006
 40
0.7500000000000006
 40
0.8750000000000004
 40
0.8750000000000004
 40
1.0
 40
1.0
 40
1.0
 40
1.0
 10
211.2579033777243
 20
47.56112047652542
 30
0.0
 10
211.2579033777243
 20
47.91775909866688
 30
0.0
 10
211.0508433860599
 20
48.03389113106057
 30
0.0
 10
210.4350549967755
 20
47.93142648292336
 30
0.0
 10
210.1786772726122
 20
47.85128928454953
 30
0.0
 10
209.7158417367989
 20
47.67378924127003
 30
0.0
 10
209.5486093684889
 20
47.60511094445152
 30
0.0
 10
209.1902847910006
 20
47.45194767554155
 30
0.0
 10
208.9989439898437
 20
47.36737007880412
 30
0.0
 10
208.7954630603606
 20
47.27601593936355
 30
0.0
  0
SPLINE
  5
E5
330
1F
100
AcDbEntity
  8
0
  6
Continuous
 62
     7
370
    25
100
AcDbSpline
210
0.0
220
0.0
230
1.0
 70
     8
 71
     3
 72
    14
 73
    10
 74
     0
 42
0.00000001
 43
0.00000001
 40
0.0
 40
0.0
 40
0.0
 40
0.0
 40
0.5000000000000003
 40
0.5000000000000003
 40
0.7500000000000004
 40
0.7500000000000004
 40
0.8750000000000002
 40
0.8750000000000002
 40
1.0
 40
1.0
 40
1.0
 40
1.0
 10
211.2579033777243
 20
65.39139930623843
 30
0.0
 10
211.2579033777243
 20
65.03476068409691
 30
0.0
 10
211.0508433860599
 20
64.91862865170324
 30
0.0
 10
210.4350549967753
 20
65.0210932998405
 30
0.0
 10
210.178677272612
 20
65.10123049821435
 30
0.0
 10
209.7158417367987
 20
65.27873054149389
 30
0.0
 10
209.5486093684886
 20
65.34740883831242
 30
0.0
 10
209.1902847910003
 20
65.50057210722241
 30
0.0
 10
208.998943989843
 20
65.58514970395998
 30
0.0
 10
208.7954630603599
 20
65.6765038434006
 30
0.0
  0
SPLINE
  5
E6
330
1F
100
AcDbEntity
  8
0
  6
Continuous
 62
     7
370
    25
100
AcDbSpline
210
0.0
220
0.0
230
1.0
 70
     8
 71
     3
 72
    10
 73
     6
 74
     0
 42
0.00000001
 43
0.00000001
 40
0.0
 40
0.0
 40
0.0
 40
0.0
 40
0.4999999999999998
 40
0.4999999999999998
 40
1.0
 40
1.0
 40
1.0
 40
1.0
 10
207.1658065954335
 20
67.69958429722635
 30
0.0
 10
207.1658065954335
 20
67.2962507189746
 30
0.0
 10
207.3019403725805
 20
66.91283101994625
 30
0.0
 10
207.8421895561362
 20
66.22625687688951
 30
0.0
 10
208.2462709489931
 20
65.92306735600556
 30
0.0
 10
208.7954630603599
 20
65.67650384340058
 30
0.0
  0
SPLINE
  5
E7
330
1F
100
AcDbEntity
  8
0
  6
Continuous
 62
     7
370
    25
100
AcDbSpline
210
0.0
220
0.0
230
1.0
 70
    24
 71
     3
 72
    14
 73
    10
 74
     0
 42
0.00000001
 43
0.00000001
 40
0.0
 40
0.0
 40
0.0
 40
0.0
 40
0.0868271299143301
 40
0.2043605202616899
 40
0.3230520881679588
 40
0.4885008015268941
 40
0.6566505969481784
 40
0.8272830499958012
 40
1.0
 40
1.0
 40
1.0
 40
1.0
 10
207.1658065954334
 20
71.55419406774865
 30
0.0
 10
207.1658065954334
 20
71.5518236224788
 30
0.0
 10
207.1658065954334
 20
71.54624442817538
 30
0.0
 10
207.1658065954335
 20
71.33821056908438
 30
0.0
 10
207.1658065954334
 20
70.95053435879292
 30
0.0
 10
207.1658065954335
 20
70.34088443026037
 30
0.0
 10
207.1658065954334
 20
69.52410399143889
 30
0.0
 10
207.1658065954334
 20
68.61577859901031
 30
0.0
 10
207.1658065954335
 20
68.0062159628606
 30
0.0
 10
207.1658065954335
 20
67.69958429722635
 30
0.0
  0
LINE
  5
E8
330
1F
100
AcDbEntity
  8
0
  6
Continuous
 62
     7
370
    25
100
AcDbLine
 10
207.1658065954
 20
45.2529354855
 30
0.0
 11
207.1658065954
 21
67.6995842972
 31
0.0
  0
LINE
  5
E9
330
1F
100
AcDbEntity
  8
0
  6
HIDDEN
 62
     7
370
    18
100
AcDbLine
 10
234.7874598759
 20
56.4762598914
 30
0.0
 11
234.7874598759
 21
51.3611389135
 31
0.0
  0
LINE
  5
EA
330
1F
100
AcDbEntity
  8
0
  6
HIDDEN
 62
     7
370
    18
100
AcDbLine
 10
234.7874598759
 20
61.5913808692
 30
0.0
 11
234.7874598759
 21
56.4762598914
 31
0.0
  0
LINE
  5
EB
330
1F
100
AcDbEntity
  8
0
  6
HIDDEN
 62
     7
370
    18
100
AcDbLine
 10
212.2809275733
 20
56.4762598914
 30
0.0
 11
212.2809275733
 21
61.5913808692
 31
0.0
  0
LINE
  5
EC
330
1F
100
AcDbEntity
  8
0
  6
HIDDEN
 62
     7
370
    18
100
AcDbLine
 10
212.2809275733
 20
51.3611389135
 30
0.0
 11
212.2809275733
 21
56.4762598914
 31
0.0
  0
SPLINE
  5
ED
330
1F
100
AcDbEntity
  8
0
  6
HIDDEN
 62
     7
370
    18
100
AcDbSpline
210
0.0
220
0.0
230
1.0
 70
     8
 71
     3
 72
    12
 73
     8
 74
     0
 42
0.00000001
 43
0.00000001
 40
0.0
 40
0.0
 40
0.0
 40
0.0
 40
0.168566614340867
 40
0.3781800160967073
 40
0.5876845021746542
 40
0.7938731815356297
 40
1.0
 40
1.0
 40
1.0
 40
1.0
 10
235.2995894841606
 20
44.83077364069842
 30
0.0
 10
235.2996564857686
 20
45.08771715606371
 30
0.0
 10
235.2998068042009
 20
45.66417117785651
 30
0.0
 10
235.3039082174949
 20
46.48752370501368
 30
0.0
 10
235.3068082590678
 20
47.22000985390382
 30
0.0
 10
235.3049429069891
 20
47.76497962149466
 30
0.0
 10
235.3010720478112
 20
47.89858071049197
 30
0.0
 10
235.2991369086004
 20
47.96537123271011
 30
0.0
  0
SPLINE
  5
EE
330
1F
100
AcDbEntity
  8
0
  6
HIDDEN
 62
     7
370
    18
100
AcDbSpline
210
0.0
220
0.0
230
1.0
 70
     8
 71
     3
 72
    10
 73
     6
 74
     0
 42
0.00000001
 43
0.00000001
 40
0.0
 40
0.0
 40
0.0
 40
0.0
 40
0.0338097670949849
 40
0.5508479467036925
 40
1.0
 40
1.0
 40
1.0
 40
1.0
 10
235.3023344865307
 20
65.92611443801832
 30
0.0
 10
235.3023610796104
 20
65.94358835218479
 30
0.0
 10
235.3027943491829
 20
66.22828329588047
 30
0.0
 10
235.2997795269671
 20
66.97844793568598
 30
0.0
 10
235.2993560891755
 20
67.7594114759602
 30
0.0
 10
235.299159246
 20
68.12245735007245
 30
0.0
  0
LINE
  5
EF
330
1F
100
AcDbEntity
  8
0
  6
HIDDEN
 62
     7
370
    18
100
AcDbLine
 10
215.35000016
 20
63.7965072433
 30
0.0
 11
215.35000016
 21
49.1738861043
 31
0.0
  0
LINE
  5
F0
330
1F
100
AcDbEntity
  8
0
  6
HIDDEN
 62
     7
370
    18
100
AcDbLine
 10
235.2989719737
 20
69.5916214095
 30
0.0
 11
235.2989719737
 21
68.9072471042
 31
0.0
  0
SPLINE
  5
F1
330
1F
100
AcDbEntity
  8
0
  6
HIDDEN
 62
     7
370
    18
100
AcDbSpline
210
0.0
220
0.0
230
1.0
 70
    24
 71
     3
 72
     8
 73
     4
 74
     0
 42
0.00000001
 43
0.00000001
 40
0.0
 40
0.0
 40
0.0
 40
0.0
 40
1.0
 40
1.0
 40
1.0
 40
1.0
 10
215.3500001600152
 20
43.64850990617387
 30
0.0
 10
215.3500001600152
 20
43.94801250945835
 30
0.0
 10
215.3500001600152
 20
48.2623088893357
 30
0.0
 10
215.3500001600152
 20
49.09770896210663
 30
0.0
  0
SPLINE
  5
F2
330
1F
100
AcDbEntity
  8
0
  6
HIDDEN
 62
     7
370
    18
100
AcDbSpline
210
0.0
220
0.0
230
1.0
 70
    24
 71
     3
 72
     8
 73
     4
 74
     0
 42
0.00000001
 43
0.00000001
 40
0.0
 40
0.0
 40
0.0
 40
0.0
 40
1.0
 40
1.0
 40
1.0
 40
1.0
 10
215.3500001600152
 20
69.30400987658997
 30
0.0
 10
215.3500001600152
 20
69.00450727330549
 30
0.0
 10
215.3500001600152
 20
64.69021089342813
 30
0.0
 10
215.3500001600152
 20
63.85481082065722
 30
0.0
  0
LINE
  5
F3
330
1F
100
AcDbEntity
  8
0
  6
HIDDEN
 62
     7
370
    18
100
AcDbLine
 10
235.2989719737
 20
68.9072471042
 30
0.0
 11
235.2989719737
 21
68.1223636525
 31
0.0
  0
LINE
  5
F4
330
1F
100
AcDbEntity
  8
0
  6
HIDDEN
 62
     7
370
    18
100
AcDbLine
 10
235.8104840715
 20
62.6144050648
 30
0.0
 11
234.7874598759
 21
61.5913808692
 31
0.0
  0
LINE
  5
F5
330
1F
100
AcDbEntity
  8
0
  6
HIDDEN
 62
     7
370
    18
100
AcDbLine
 10
234.7874598759
 20
51.3611389135
 30
0.0
 11
235.8104840715
 21
50.3381147179
 31
0.0
  0
LINE
  5
F6
330
1F
100
AcDbEntity
  8
0
  6
HIDDEN
 62
     7
370
    18
100
AcDbLine
 10
211.2579033777
 20
50.3381147179
 30
0.0
 11
212.2809275733
 21
51.3611389135
 31
0.0
  0
LINE
  5
F7
330
1F
100
AcDbEntity
  8
0
  6
HIDDEN
 62
     7
370
    18
100
AcDbLine
 10
212.2809275733
 20
61.5913808692
 30
0.0
 11
211.2579033777
 21
62.6144050648
 31
0.0
  0
LINE
  5
F8
330
1F
100
AcDbEntity
  8
0
  6
HIDDEN
 62
     7
370
    18
100
AcDbLine
 10
212.2809275733
 20
51.3611389135
 30
0.0
 11
234.7874598759
 21
51.3611389135
 31
0.0
  0
LINE
  5
F9
330
1F
100
AcDbEntity
  8
0
  6
HIDDEN
 62
     7
370
    18
100
AcDbLine
 10
234.7874598759
 20
61.5913808692
 30
0.0
 11
212.2809275733
 21
61.5913808692
 31
0.0
  0
LINE
  5
FA
330
1F
100
AcDbEntity
  8
0
  6
HIDDEN
 62
     7
370
    18
100
AcDbLine
 10
235.8104840715
 20
48.4969111862
 30
0.0
 11
235.2863005113
 21
47.9726698003
 31
0.0
  0
LINE
  5
FB
330
1F
100
AcDbEntity
  8
0
  6
HIDDEN
 62
     7
370
    18
100
AcDbLine
 10
235.2941506766
 20
64.973000033
 30
0.0
 11
235.8104840715
 21
64.4566233487
 31
0.0
  0
LINE
  5
FC
330
1F
100
AcDbEntity
  8
0
  6
HIDDEN
 62
     7
370
    18
100
AcDbLine
 10
235.2982356241
 20
47.9841607095
 30
0.0
 11
210.8161664997
 21
47.9841607095
 31
0.0
  0
LINE
  5
FD
330
1F
100
AcDbEntity
  8
0
  6
HIDDEN
 62
     7
370
    18
100
AcDbLine
 10
210.8162600193
 20
64.9683590733
 30
0.0
 11
235.2988807768
 21
64.9683590733
 31
0.0
  0
LINE
  5
FE
330
1F
100
AcDbEntity
  8
0
  6
HIDDEN
 62
     7
370
    18
100
AcDbLine
 10
235.8104840715
 20
67.422618784
 30
0.0
 11
235.2989719737
 21
66.9111066862
 31
0.0
  0
LINE
  5
FF
330
1F
100
AcDbEntity
  8
0
  6
HIDDEN
 62
     7
370
    18
100
AcDbLine
 10
235.2989719737
 20
46.0414130965
 30
0.0
 11
235.8104840715
 21
45.5299009988
 31
0.0
  0
LINE
  5
100
330
1F
100
AcDbEntity
  8
0
  6
HIDDEN
 62
     7
370
    18
100
AcDbLine
 10
235.2989719737
 20
66.9111066862
 30
0.0
 11
215.35000016
 21
66.9111066862
 31
0.0
  0
LINE
  5
101
330
1F
100
AcDbEntity
  8
0
  6
HIDDEN
 62
     7
370
    18
100
AcDbLine
 10
215.35000016
 20
46.0414130965
 30
0.0
 11
235.2989719737
 21
46.0414130965
 31
0.0
  0
LINE
  5
102
330
1F
100
AcDbEntity
  8
0
  6
HIDDEN
 62
     7
370
    18
100
AcDbLine
 10
235.2989719737
 20
68.9072471042
 30
0.0
 11
235.8104840715
 21
68.3957350065
 31
0.0
  0
LINE
  5
103
330
1F
100
AcDbEntity
  8
0
  6
HIDDEN
 62
     7
370
    18
100
AcDbLine
 10
235.8104840715
 20
44.5567847763
 30
0.0
 11
235.2989719737
 21
44.0452726785
 31
0.0
  0
LINE
  5
104
330
1F
100
AcDbEntity
  8
0
  6
HIDDEN
 62
     7
370
    18
100
AcDbLine
 10
215.35000016
 20
68.9072471042
 30
0.0
 11
235.2989719737
 21
68.9072471042
 31
0.0
  0
LINE
  5
105
330
1F
100
AcDbEntity
  8
0
  6
HIDDEN
 62
     7
370
    18
100
AcDbLine
 10
235.2989719737
 20
44.0452726785
 30
0.0
 11
215.35000016
 21
44.0452726785
 31
0.0
  0
LINE
  5
106
330
1F
100
AcDbEntity
  8
0
  6
HIDDEN
 62
     7
370
    18
100
AcDbLine
 10
235.2989719737
 20
43.5861550272
 30
0.0
 11
235.8104840715
 21
44.097667125
 31
0.0
  0
LINE
  5
107
330
1F
100
AcDbEntity
  8
0
  6
HIDDEN
 62
     7
370
    18
100
AcDbLine
 10
235.8104840715
 20
68.8548526578
 30
0.0
 11
235.2989719737
 21
69.3663647556
 31
0.0
  0
LINE
  5
108
330
1F
100
AcDbEntity
  8
0
  6
HIDDEN
 62
     7
370
    18
100
AcDbLine
 10
235.2989719737
 20
69.3663647556
 30
0.0
 11
215.35000016
 21
69.3663647556
 31
0.0
  0
LINE
  5
109
330
1F
100
AcDbEntity
  8
0
  6
HIDDEN
 62
     7
370
    18
100
AcDbLine
 10
215.35000016
 20
43.5861550272
 30
0.0
 11
235.2989719737
 21
43.5861550272
 31
0.0
  0
ENDSEC
  0
SECTION
  2
OBJECTS
  0
DICTIONARY
  5
C
330
0
100
AcDbDictionary
281
     1
  3
ACAD_GROUP
350
D
  3
ACAD_LAYOUT
350
1A
  3
ACAD_MLINESTYLE
350
17
  3
ACAD_PLOTSETTINGS
350
19
  3
ACAD_PLOTSTYLENAME
350
E
  3
ACAD_SCALELIST
350
47
  3
DWGPROPS
350
10A
  0
DICTIONARY
  5
D
102
{ACAD_REACTORS
330
C
102
}
330
C
100
AcDbDictionary
281
     1
  0
DICTIONARY
  5
1A
102
{ACAD_REACTORS
330
C
102
}
330
C
100
AcDbDictionary
281
     1
  3
Layout1
350
1E
  3
Layout2
350
26
  3
Model
350
22
  0
DICTIONARY
  5
17
102
{ACAD_REACTORS
330
C
102
}
330
C
100
AcDbDictionary
281
     1
  3
Standard
350
18
  0
DICTIONARY
  5
19
102
{ACAD_REACTORS
330
C
102
}
330
C
100
AcDbDictionary
281
     1
  0
ACDBDICTIONARYWDFLT
  5
E
102
{ACAD_REACTORS
330
C
102
}
330
C
100
AcDbDictionary
281
     1
  3
Normal
350
F
100
AcDbDictionaryWithDefault
340
F
  0
DICTIONARY
  5
47
102
{ACAD_REACTORS
330
C
102
}
330
C
100
AcDbDictionary
281
     1
  3
A0
350
48
  3
A1
350
49
  3
A2
350
4A
  3
A3
350
4B
  3
A4
350
4C
  3
A5
350
4D
  3
A6
350
4E
  3
A7
350
4F
  3
A8
350
50
  3
A9
350
51
  3
B0
350
52
  3
B1
350
53
  3
B2
350
54
  3
B3
350
55
  3
B4
350
56
  3
B5
350
57
  3
B6
350
58
  0
XRECORD
  5
10A
102
{ACAD_REACTORS
330
C
102
}
330
C
100
AcDbXrecord
280
     1
  1
DWGPROPS COOKIE
  2

  3

  4

  6

  7

  8

  9

300
=
301
=
302
=
303
=
304
=
305
=
306
=
307
=
308
=
309
=
 40
0.0
 41
2461214.453014016
 42
2461214.453014607
  1

 90
        0
  0
LAYOUT
  5
1E
102
{ACAD_REACTORS
330
1A
102
}
330
1A
100
AcDbPlotSettings
  1

  2
none_device
  4

  6

 40
0.0
 41
0.0
 42
0.0
 43
0.0
 44
0.0
 45
0.0
 46
0.0
 47
0.0
 48
0.0
 49
0.0
140
0.0
141
0.0
142
1.0
143
1.0
 70
   688
 72
     1
 73
     0
 74
     5
  7

 75
    16
147
1.0
148
0.0
149
0.0
100
AcDbLayout
  1
Layout1
 70
     1
 71
     1
 10
0.0
 20
0.0
 11
420.0
 21
297.0
 12
0.0
 22
0.0
 32
0.0
 14
1.0000000000E+20
 24
1.0000000000E+20
 34
1.0000000000E+20
 15
-1.0000000000E+20
 25
-1.0000000000E+20
 35
-1.0000000000E+20
146
0.0
 13
0.0
 23
0.0
 33
0.0
 16
1.0
 26
0.0
 36
0.0
 17
0.0
 27
1.0
 37
0.0
 76
     0
330
1B
  0
LAYOUT
  5
26
102
{ACAD_REACTORS
330
1A
102
}
330
1A
100
AcDbPlotSettings
  1

  2
none_device
  4

  6

 40
0.0
 41
0.0
 42
0.0
 43
0.0
 44
0.0
 45
0.0
 46
0.0
 47
0.0
 48
0.0
 49
0.0
140
0.0
141
0.0
142
1.0
143
1.0
 70
   688
 72
     1
 73
     0
 74
     5
  7

 75
    16
147
1.0
148
0.0
149
0.0
100
AcDbLayout
  1
Layout2
 70
     1
 71
     2
 10
0.0
 20
0.0
 11
0.0
 21
0.0
 12
0.0
 22
0.0
 32
0.0
 14
0.0
 24
0.0
 34
0.0
 15
0.0
 25
0.0
 35
0.0
146
0.0
 13
0.0
 23
0.0
 33
0.0
 16
1.0
 26
0.0
 36
0.0
 17
0.0
 27
1.0
 37
0.0
 76
     0
330
23
  0
LAYOUT
  5
22
102
{ACAD_REACTORS
330
1A
102
}
330
1A
100
AcDbPlotSettings
  1

  2
none_device
  4
Letter_(8.50_x_11.00_Inches)
  6

 40
6.35
 41
6.35
 42
6.35000508
 43
6.35000508
 44
215.9
 45
279.4
 46
0.0
 47
0.0
 48
0.0
 49
0.0
140
0.0
141
0.0
142
1.0
143
1.0
 70
  1712
 72
     1
 73
     0
 74
     0
  7

 75
     0
147
1.0
148
0.0
149
0.0
100
AcDbLayout
  1
Model
 70
     1
 71
     0
 10
0.0
 20
0.0
 11
297.0
 21
210.0
 12
0.0
 22
0.0
 32
0.0
 14
0.0
 24
0.0
 34
0.0
 15
297.0
 25
210.0
 35
0.0
146
0.0
 13
0.0
 23
0.0
 33
0.0
 16
1.0
 26
0.0
 36
0.0
 17
0.0
 27
1.0
 37
0.0
 76
     0
330
1F
331
29
  0
MLINESTYLE
  5
18
102
{ACAD_REACTORS
330
17
102
}
330
17
100
AcDbMlineStyle
  2
Standard
 70
     0
  3

 62
   256
 51
90.0
 52
90.0
 71
     2
 49
0.5
 62
   256
  6
BYLAYER
 49
-0.5
 62
   256
  6
BYLAYER
  0
ACDBPLACEHOLDER
  5
F
102
{ACAD_REACTORS
330
E
102
}
330
E
  0
SCALE
  5
48
102
{ACAD_REACTORS
330
47
102
}
330
47
100
AcDbScale
 70
     0
300
1:1
140
1.0
141
1.0
290
     1
  0
SCALE
  5
49
102
{ACAD_REACTORS
330
47
102
}
330
47
100
AcDbScale
 70
     0
300
1:2
140
1.0
141
2.0
290
     0
  0
SCALE
  5
4A
102
{ACAD_REACTORS
330
47
102
}
330
47
100
AcDbScale
 70
     0
300
1:4
140
1.0
141
4.0
290
     0
  0
SCALE
  5
4B
102
{ACAD_REACTORS
330
47
102
}
330
47
100
AcDbScale
 70
     0
300
1:5
140
1.0
141
5.0
290
     0
  0
SCALE
  5
4C
102
{ACAD_REACTORS
330
47
102
}
330
47
100
AcDbScale
 70
     0
300
1:8
140
1.0
141
8.0
290
     0
  0
SCALE
  5
4D
102
{ACAD_REACTORS
330
47
102
}
330
47
100
AcDbScale
 70
     0
300
1:10
140
1.0
141
10.0
290
     0
  0
SCALE
  5
4E
102
{ACAD_REACTORS
330
47
102
}
330
47
100
AcDbScale
 70
     0
300
1:16
140
1.0
141
16.0
290
     0
  0
SCALE
  5
4F
102
{ACAD_REACTORS
330
47
102
}
330
47
100
AcDbScale
 70
     0
300
1:20
140
1.0
141
20.0
290
     0
  0
SCALE
  5
50
102
{ACAD_REACTORS
330
47
102
}
330
47
100
AcDbScale
 70
     0
300
1:30
140
1.0
141
30.0
290
     0
  0
SCALE
  5
51
102
{ACAD_REACTORS
330
47
102
}
330
47
100
AcDbScale
 70
     0
300
1:40
140
1.0
141
40.0
290
     0
  0
SCALE
  5
52
102
{ACAD_REACTORS
330
47
102
}
330
47
100
AcDbScale
 70
     0
300
1:50
140
1.0
141
50.0
290
     0
  0
SCALE
  5
53
102
{ACAD_REACTORS
330
47
102
}
330
47
100
AcDbScale
 70
     0
300
1:100
140
1.0
141
100.0
290
     0
  0
SCALE
  5
54
102
{ACAD_REACTORS
330
47
102
}
330
47
100
AcDbScale
 70
     0
300
2:1
140
2.0
141
1.0
290
     0
  0
SCALE
  5
55
102
{ACAD_REACTORS
330
47
102
}
330
47
100
AcDbScale
 70
     0
300
4:1
140
4.0
141
1.0
290
     0
  0
SCALE
  5
56
102
{ACAD_REACTORS
330
47
102
}
330
47
100
AcDbScale
 70
     0
300
8:1
140
8.0
141
1.0
290
     0
  0
SCALE
  5
57
102
{ACAD_REACTORS
330
47
102
}
330
47
100
AcDbScale
 70
     0
300
10:1
140
10.0
141
1.0
290
     0
  0
SCALE
  5
58
102
{ACAD_REACTORS
330
47
102
}
330
47
100
AcDbScale
 70
     0
300
100:1
140
100.0
141
1.0
290
     0
  0
ENDSEC
  0
EOF
