  0
SECTION
  2
HEADER
  9
$ACADVER
  1
AC1015
  9
$ACADMAINTVER
 70
     6
  9
$DWGCODEPAGE
  3
ANSI_936
  9
$INSBASE
 10
0.0
 20
0.0
 30
0.0
  9
$EXTMIN
 10
0.0
 20
0.0
 30
0.0
  9
$EXTMAX
 10
297.0
 20
210.0
 30
0.0
  9
$LIMMIN
 10
0.0
 20
0.0
  9
$LIMMAX
 10
297.0
 20
210.0
  9
$ORTHOMODE
 70
     0
  9
$REGENMODE
 70
     1
  9
$FILLMODE
 70
     1
  9
$QTEXTMODE
 70
     0
  9
$MIRRTEXT
 70
     1
  9
$LTSCALE
 40
1.0
  9
$ATTMODE
 70
     1
  9
$TEXTSIZE
 40
3.5
  9
$TRACEWID
 40
1.0
  9
$TEXTSTYLE
  7
Standard
  9
$CLAYER
  8
0
  9
$CELTYPE
  6
ByLayer
  9
$CECOLOR
 62
   256
  9
$CELTSCALE
 40
1.0
  9
$DISPSILH
 70
     0
  9
$DIMSCALE
 40
1.0
  9
$DIMASZ
 40
4.08
  9
$DIMEXO
 40
0.0
  9
$DIMDLI
 40
3.75
  9
$DIMRND
 40
0.0
  9
$DIMDLE
 40
0.0
  9
$DIMEXE
 40
2.0
  9
$DIMTP
 40
0.0
  9
$DIMTM
 40
0.0
  9
$DIMTXT
 40
3.5
  9
$DIMCEN
 40
2.5
  9
$DIMTSZ
 40
0.0
  9
$DIMTOL
 70
     0
  9
$DIMLIM
 70
     0
  9
$DIMTIH
 70
     1
  9
$DIMTOH
 70
     1
  9
$DIMSE1
 70
     0
  9
$DIMSE2
 70
     0
  9
$DIMTAD
 70
     1
  9
$DIMZIN
 70
     0
  9
$DIMBLK
  1

  9
$DIMASO
 70
     1
  9
$DIMSHO
 70
     1
  9
$DIMPOST
  1

  9
$DIMAPOST
  1

  9
$DIMALT
 70
     0
  9
$DIMALTD
 70
     3
  9
$DIMALTF
 40
0.0393700787
  9
$DIMLFAC
 40
2.0
  9
$DIMTOFL
 70
     1
  9
$DIMTVP
 40
0.0
  9
$DIMTIX
 70
     0
  9
$DIMSOXD
 70
     0
  9
$DIMSAH
 70
     0
  9
$DIMBLK1
  1

  9
$DIMBLK2
  1

  9
$DIMSTYLE
  2
ISO-25
  9
$DIMCLRD
 70
     0
  9
$DIMCLRE
 70
     0
  9
$DIMCLRT
 70
     0
  9
$DIMTFAC
 40
1.0
  9
$DIMGAP
 40
1.524
  9
$DIMJUST
 70
     0
  9
$DIMSD1
 70
     0
  9
$DIMSD2
 70
     0
  9
$DIMTOLJ
 70
     0
  9
$DIMTZIN
 70
     0
  9
$DIMALTZ
 70
     0
  9
$DIMALTTZ
 70
     0
  9
$DIMUPT
 70
     0
  9
$DIMDEC
 70
     2
  9
$DIMTDEC
 70
     2
  9
$DIMALTU
 70
     2
  9
$DIMALTTD
 70
     3
  9
$DIMTXSTY
  7
Standard
  9
$DIMAUNIT
 70
     0
  9
$DIMADEC
 70
     2
  9
$DIMALTRND
 40
0.0
  9
$DIMAZIN
 70
     0
  9
$DIMDSEP
 70
    44
  9
$DIMATFIT
 70
     3
  9
$DIMFRAC
 70
     0
  9
$DIMLDRBLK
  1

  9
$DIMLUNIT
 70
     2
  9
$DIMLWD
 70
    -2
  9
$DIMLWE
 70
    -2
  9
$DIMTMOVE
 70
     0
  9
$LUNITS
 70
     2
  9
$LUPREC
 70
     2
  9
$SKETCHINC
 40
1.0
  9
$FILLETRAD
 40
0.0
  9
$AUNITS
 70
     0
  9
$AUPREC
 70
     2
  9
$MENU
  1
.
  9
$ELEVATION
 40
0.0
  9
$PELEVATION
 40
0.0
  9
$THICKNESS
 40
0.0
  9
$LIMCHECK
 70
     0
  9
$CHAMFERA
 40
0.0
  9
$CHAMFERB
 40
0.0
  9
$CHAMFERC
 40
0.0
  9
$CHAMFERD
 40
0.0
  9
$SKPOLY
 70
     0
  9
$TDCREATE
 40
2461213.760143646
  9
$TDUCREATE
 40
2461213.426810313
  9
$TDUPDATE
 40
2461213.76014382
  9
$TDUUPDATE
 40
2461213.426810486
  9
$TDINDWG
 40
0.0000000116
  9
$TDUSRTIMER
 40
0.0000000116
  9
$USRTIMER
 70
     1
  9
$ANGBASE
 50
0.0
  9
$ANGDIR
 70
     0
  9
$PDMODE
 70
     0
  9
$PDSIZE
 40
-1.0
  9
$PLINEWID
 40
0.0
  9
$SPLFRAME
 70
     0
  9
$SPLINETYPE
 70
     6
  9
$SPLINESEGS
 70
     8
  9
$HANDSEED
  5
110
  9
$SURFTAB1
 70
     6
  9
$SURFTAB2
 70
     6
  9
$SURFTYPE
 70
     6
  9
$SURFU
 70
     6
  9
$SURFV
 70
     6
  9
$UCSBASE
  2

  9
$UCSNAME
  2

  9
$UCSORG
 10
0.0
 20
0.0
 30
0.0
  9
$UCSXDIR
 10
1.0
 20
0.0
 30
0.0
  9
$UCSYDIR
 10
0.0
 20
1.0
 30
0.0
  9
$UCSORTHOREF
  2

  9
$UCSORTHOVIEW
 70
     0
  9
$UCSORGTOP
 10
0.0
 20
0.0
 30
0.0
  9
$UCSORGBOTTOM
 10
0.0
 20
0.0
 30
0.0
  9
$UCSORGLEFT
 10
0.0
 20
0.0
 30
0.0
  9
$UCSORGRIGHT
 10
0.0
 20
0.0
 30
0.0
  9
$UCSORGFRONT
 10
0.0
 20
0.0
 30
0.0
  9
$UCSORGBACK
 10
0.0
 20
0.0
 30
0.0
  9
$PUCSBASE
  2

  9
$PUCSNAME
  2

  9
$PUCSORG
 10
0.0
 20
0.0
 30
0.0
  9
$PUCSXDIR
 10
1.0
 20
0.0
 30
0.0
  9
$PUCSYDIR
 10
0.0
 20
1.0
 30
0.0
  9
$PUCSORTHOREF
  2

  9
$PUCSORTHOVIEW
 70
     0
  9
$PUCSORGTOP
 10
0.0
 20
0.0
 30
0.0
  9
$PUCSORGBOTTOM
 10
0.0
 20
0.0
 30
0.0
  9
$PUCSORGLEFT
 10
0.0
 20
0.0
 30
0.0
  9
$PUCSORGRIGHT
 10
0.0
 20
0.0
 30
0.0
  9
$PUCSORGFRONT
 10
0.0
 20
0.0
 30
0.0
  9
$PUCSORGBACK
 10
0.0
 20
0.0
 30
0.0
  9
$USERI1
 70
     0
  9
$USERI2
 70
     0
  9
$USERI3
 70
     0
  9
$USERI4
 70
     0
  9
$USERI5
 70
     0
  9
$USERR1
 40
0.0
  9
$USERR2
 40
0.0
  9
$USERR3
 40
0.0
  9
$USERR4
 40
0.0
  9
$USERR5
 40
0.0
  9
$WORLDVIEW
 70
     1
  9
$SHADEDGE
 70
     3
  9
$SHADEDIF
 70
    70
  9
$TILEMODE
 70
     1
  9
$MAXACTVP
 70
    64
  9
$PINSBASE
 10
0.0
 20
0.0
 30
0.0
  9
$PLIMCHECK
 70
     0
  9
$PEXTMIN
 10
1.0000000000E+20
 20
1.0000000000E+20
 30
1.0000000000E+20
  9
$PEXTMAX
 10
-1.0000000000E+20
 20
-1.0000000000E+20
 30
-1.0000000000E+20
  9
$PLIMMIN
 10
0.0
 20
0.0
  9
$PLIMMAX
 10
420.0
 20
297.0
  9
$UNITMODE
 70
     0
  9
$VISRETAIN
 70
     1
  9
$PLINEGEN
 70
     0
  9
$PSLTSCALE
 70
     1
  9
$TREEDEPTH
 70
  3020
  9
$CMLSTYLE
  2
Standard
  9
$CMLJUST
 70
     0
  9
$CMLSCALE
 40
20.0
  9
$PROXYGRAPHICS
 70
     1
  9
$MEASUREMENT
 70
     1
  9
$CELWEIGHT
370
    -1
  9
$ENDCAPS
280
     0
  9
$JOINSTYLE
280
     0
  9
$LWDISPLAY
290
     1
  9
$INSUNITS
 70
     4
  9
$HYPERLINKBASE
  1

  9
$STYLESHEET
  1

  9
$XEDIT
290
     1
  9
$CEPSNTYPE
380
     0
  9
$PSTYLEMODE
290
     1
  9
$FINGERPRINTGUID
  2
{bca811b6-97b6-4dc3-bcb0-261ca5af1e33}
  9
$VERSIONGUID
  2
{FAEB1C32-E019-11D5-929B-00C0DF256EC4}
  9
$EXTNAMES
290
     1
  9
$PSVPSCALE
 40
0.0
  9
$OLESTARTUP
290
     0
  0
ENDSEC
  0
SECTION
  2
CLASSES
  0
CLASS
  1
ACDBDICTIONARYWDFLT
  2
AcDbDictionaryWithDefault
  3
ObjectDBX Classes
 90
        0
280
     0
281
     0
  0
CLASS
  1
VISUALSTYLE
  2
AcDbVisualStyle
  3
ObjectDBX Classes
 90
     4095
280
     0
281
     0
  0
CLASS
  1
MATERIAL
  2
AcDbMaterial
  3
ObjectDBX Classes
 90
     1153
280
     0
281
     0
  0
CLASS
  1
SCALE
  2
AcDbScale
  3
ObjectDBX Classes
 90
     1153
280
     0
281
     0
  0
CLASS
  1
TABLESTYLE
  2
AcDbTableStyle
  3
ObjectDBX Classes
 90
     4095
280
     0
281
     0
  0
CLASS
  1
MLEADERSTYLE
  2
AcDbMLeaderStyle
  3
ACDB_MLEADERSTYLE_CLASS
 90
     4095
280
     0
281
     0
  0
CLASS
  1
SUN
  2
AcDbSun
  3
SCENEOE
 90
     1153
280
     0
281
     0
  0
CLASS
  1
ACDBPLACEHOLDER
  2
AcDbPlaceHolder
  3
ObjectDBX Classes
 90
        0
280
     0
281
     0
  0
CLASS
  1
LAYOUT
  2
AcDbLayout
  3
ObjectDBX Classes
 90
        0
280
     0
281
     0
  0
ENDSEC
  0
SECTION
  2
TABLES
  0
TABLE
  2
VPORT
  5
8
330
0
100
AcDbSymbolTable
 70
     1
  0
VPORT
  5
29
330
8
100
AcDbSymbolTableRecord
100
AcDbViewportTableRecord
  2
*Active
 70
     0
 10
0.0
 20
0.0
 11
1.0
 21
1.0
 12
148.5
 22
105.0
 13
0.0
 23
0.0
 14
10.0
 24
10.0
 15
10.0
 25
10.0
 16
0.0
 26
0.0
 36
1.0
 17
0.0
 27
0.0
 37
0.0
 40
210.0
 41
1.4142857143
 42
50.0
 43
0.0
 44
0.0
 50
0.0
 51
0.0
 71
     0
 72
  2000
 73
     1
 74
     3
 75
     0
 76
     0
 77
     0
 78
     0
281
     0
 65
     1
110
0.0
120
0.0
130
0.0
111
1.0
121
0.0
131
0.0
112
0.0
122
1.0
132
0.0
 79
     0
146
0.0
  0
ENDTAB
  0
TABLE
  2
LTYPE
  5
5
330
0
100
AcDbSymbolTable
 70
     6
  0
LTYPE
  5
14
330
5
100
AcDbSymbolTableRecord
100
AcDbLinetypeTableRecord
  2
ByBlock
 70
     0
  3

 72
    65
 73
     0
 40
0.0
  0
LTYPE
  5
15
330
5
100
AcDbSymbolTableRecord
100
AcDbLinetypeTableRecord
  2
ByLayer
 70
     0
  3

 72
    65
 73
     0
 40
0.0
  0
LTYPE
  5
16
330
5
100
AcDbSymbolTableRecord
100
AcDbLinetypeTableRecord
  2
Continuous
 70
     0
  3
Solid line
 72
    65
 73
     0
 40
0.0
  0
LTYPE
  5
5E
330
5
100
AcDbSymbolTableRecord
100
AcDbLinetypeTableRecord
  2
HIDDEN
 70
     0
  3
Hidden __ __ __ __ __ __ __ __ __ __ __ __ __ __
 72
    65
 73
     2
 40
1.905
 49
1.27
 74
     0
 49
-0.635
 74
     0
  0
LTYPE
  5
5F
330
5
100
AcDbSymbolTableRecord
100
AcDbLinetypeTableRecord
  2
PHANTOM
 70
     0
  3
Phantom ______  __  __  ______  __  __  ______
 72
    65
 73
     6
 40
12.7
 49
6.35
 74
     0
 49
-1.27
 74
     0
 49
1.27
 74
     0
 49
-1.27
 74
     0
 49
1.27
 74
     0
 49
-1.27
 74
     0
  0
LTYPE
  5
60
330
5
100
AcDbSymbolTableRecord
100
AcDbLinetypeTableRecord
  2
CENTER
 70
     0
  3
Center ____ _ ____ _ ____ _ ____ _ ____ _ ____
 72
    65
 73
     4
 40
10.16
 49
6.35
 74
     0
 49
-1.27
 74
     0
 49
1.27
 74
     0
 49
-1.27
 74
     0
  0
LTYPE
  5
61
330
5
100
AcDbSymbolTableRecord
100
AcDbLinetypeTableRecord
  2
CENTERX2
 70
     0
  3
Center (2x) ________  __  ________  __  _____
 72
    65
 73
     4
 40
20.32
 49
12.7
 74
     0
 49
-2.54
 74
     0
 49
2.54
 74
     0
 49
-2.54
 74
     0
  0
LTYPE
  5
62
330
5
100
AcDbSymbolTableRecord
100
AcDbLinetypeTableRecord
  2
DOT2
 70
     0
  3
Dot (.5x) ........................................
 72
    65
 73
     2
 40
0.635
 49
0.0
 74
     0
 49
-0.635
 74
     0
  0
ENDTAB
  0
TABLE
  2
LAYER
  5
2
330
0
100
AcDbSymbolTable
 70
    14
  0
LAYER
  5
10
330
2
100
AcDbSymbolTableRecord
100
AcDbLayerTableRecord
  2
0
 70
     0
 62
     7
  6
Continuous
370
    -3
390
F
  0
LAYER
  5
63
330
2
100
AcDbSymbolTableRecord
100
AcDbLayerTableRecord
  2
SLD-0
 70
     0
 62
     7
  6
Continuous
370
    -3
390
F
  0
LAYER
  5
64
330
2
100
AcDbSymbolTableRecord
100
AcDbLayerTableRecord
  2
5
 70
     0
 62
     7
  6
Continuous
370
    -3
390
F
  0
LAYER
  5
65
330
2
100
AcDbSymbolTableRecord
100
AcDbLayerTableRecord
  2
9
 70
     0
 62
     7
  6
Continuous
370
    -3
390
F
  0
LAYER
  5
66
330
2
100
AcDbSymbolTableRecord
100
AcDbLayerTableRecord
  2
10
 70
     0
 62
     7
  6
Continuous
370
    -3
390
F
  0
LAYER
  5
67
330
2
100
AcDbSymbolTableRecord
100
AcDbLayerTableRecord
  2
轮廓实线层
 70
     0
 62
     7
  6
Continuous
370
    50
390
F
  0
LAYER
  5
68
330
2
100
AcDbSymbolTableRecord
100
AcDbLayerTableRecord
  2
细线层
 70
     0
 62
     4
  6
Continuous
370
    25
390
F
  0
LAYER
  5
69
330
2
100
AcDbSymbolTableRecord
100
AcDbLayerTableRecord
  2
中心线层
 70
     0
 62
     1
  6
CENTERX2
370
    25
390
F
  0
LAYER
  5
6A
330
2
100
AcDbSymbolTableRecord
100
AcDbLayerTableRecord
  2
虚线层
 70
     0
 62
     6
  6
HIDDEN
370
    25
390
F
  0
LAYER
  5
6B
330
2
100
AcDbSymbolTableRecord
100
AcDbLayerTableRecord
  2
剖面线层
 70
     0
 62
     2
  6
Continuous
370
    25
390
F
  0
LAYER
  5
6C
330
2
100
AcDbSymbolTableRecord
100
AcDbLayerTableRecord
  2
文字层
 70
     0
 62
     3
  6
Continuous
370
    25
390
F
  0
LAYER
  5
6D
330
2
100
AcDbSymbolTableRecord
100
AcDbLayerTableRecord
  2
标注层
 70
     0
 62
     4
  6
Continuous
370
    25
390
F
  0
LAYER
  5
6E
330
2
100
AcDbSymbolTableRecord
100
AcDbLayerTableRecord
  2
符号标注层
 70
     0
 62
    31
  6
Continuous
370
    25
390
F
  0
LAYER
  5
6F
330
2
100
AcDbSymbolTableRecord
100
AcDbLayerTableRecord
  2
双点划线层
 70
     0
 62
     6
  6
PHANTOM
370
    25
390
F
  0
ENDTAB
  0
TABLE
  2
STYLE
  5
3
330
0
100
AcDbSymbolTable
 70
     1
  0
STYLE
  5
11
330
3
100
AcDbSymbolTableRecord
100
AcDbTextStyleTableRecord
  2
Standard
 70
     0
 40
0.0
 41
1.0
 50
0.0
 71
     0
 42
3.5
  3
txt
  4

  0
ENDTAB
  0
TABLE
  2
VIEW
  5
6
330
0
100
AcDbSymbolTable
 70
     0
  0
ENDTAB
  0
TABLE
  2
UCS
  5
7
330
0
100
AcDbSymbolTable
 70
     0
  0
ENDTAB
  0
TABLE
  2
APPID
  5
9
330
0
100
AcDbSymbolTable
 70
     1
  0
APPID
  5
12
330
9
100
AcDbSymbolTableRecord
100
AcDbRegAppTableRecord
  2
ACAD
 70
     0
  0
ENDTAB
  0
TABLE
  2
DIMSTYLE
  5
A
330
0
100
AcDbSymbolTable
 70
     1
100
AcDbDimStyleTable
  0
DIMSTYLE
105
27
330
A
100
AcDbSymbolTableRecord
100
AcDbDimStyleTableRecord
  2
ISO-25
 70
     0
 41
2.5
 42
0.625
 43
3.75
 44
1.25
 73
     0
 74
     0
 77
     1
 78
     8
140
2.5
141
2.5
143
0.0393700787
147
0.625
171
     3
172
     1
178
     0
271
     2
272
     2
274
     3
278
    44
283
     0
284
     8
340
11
  0
ENDTAB
  0
TABLE
  2
BLOCK_RECORD
  5
1
330
0
100
AcDbSymbolTable
 70
     1
  0
BLOCK_RECORD
  5
1F
330
1
100
AcDbSymbolTableRecord
100
AcDbBlockTableRecord
  2
*Model_Space
340
22
  0
BLOCK_RECORD
  5
1B
330
1
100
AcDbSymbolTableRecord
100
AcDbBlockTableRecord
  2
*Paper_Space
340
1E
  0
BLOCK_RECORD
  5
23
330
1
100
AcDbSymbolTableRecord
100
AcDbBlockTableRecord
  2
*Paper_Space0
340
26
  0
ENDTAB
  0
ENDSEC
  0
SECTION
  2
BLOCKS
  0
BLOCK
  5
20
330
1F
100
AcDbEntity
  8
0
100
AcDbBlockBegin
  2
*Model_Space
 70
     0
 10
0.0
 20
0.0
 30
0.0
  3
*Model_Space
  1

  0
ENDBLK
  5
21
330
1F
100
AcDbEntity
  8
0
100
AcDbBlockEnd
  0
BLOCK
  5
1C
330
1B
100
AcDbEntity
 67
     1
  8
0
100
AcDbBlockBegin
  2
*Paper_Space
 70
     0
 10
0.0
 20
0.0
 30
0.0
  3
*Paper_Space
  1

  0
ENDBLK
  5
1D
330
1B
100
AcDbEntity
 67
     1
  8
0
100
AcDbBlockEnd
  0
BLOCK
  5
24
330
23
100
AcDbEntity
  8
0
100
AcDbBlockBegin
  2
*Paper_Space0
 70
     0
 10
0.0
 20
0.0
 30
0.0
  3
*Paper_Space0
  1

  0
ENDBLK
  5
25
330
23
100
AcDbEntity
  8
0
100
AcDbBlockEnd
  0
ENDSEC
  0
SECTION
  2
ENTITIES
  0
LINE
  5
70
330
1F
100
AcDbEntity
  8
0
  6
Continuous
 62
     7
370
    25
100
AcDbLine
 10
33.0
 20
79.2176162931
 30
0.0
 11
38.5544040733
 21
79.2176162931
 31
0.0
  0
LINE
  5
71
330
1F
100
AcDbEntity
  8
0
  6
Continuous
 62
     7
370
    25
100
AcDbLine
 10
38.5544040733
 20
79.2176162931
 30
0.0
 11
38.5544040733
 21
68.1088081466
 31
0.0
  0
LINE
  5
72
330
1F
100
AcDbEntity
  8
0
  6
Continuous
 62
     7
370
    25
100
AcDbLine
 10
33.0
 20
68.1088081466
 30
0.0
 11
33.0
 21
79.2176162931
 31
0.0
  0
LINE
  5
73
330
1F
100
AcDbEntity
  8
0
  6
Continuous
 62
     7
370
    25
100
AcDbLine
 10
38.5544040733
 20
34.7823837069
 30
0.0
 11
38.5544040733
 21
45.8911918534
 31
0.0
  0
LINE
  5
74
330
1F
100
AcDbEntity
  8
0
  6
Continuous
 62
     7
370
    25
100
AcDbLine
 10
33.0
 20
34.7823837069
 30
0.0
 11
38.5544040733
 21
34.7823837069
 31
0.0
  0
LINE
  5
75
330
1F
100
AcDbEntity
  8
0
  6
Continuous
 62
     7
370
    25
100
AcDbLine
 10
33.0
 20
45.8911918534
 30
0.0
 11
33.0
 21
34.7823837069
 31
0.0
  0
LINE
  5
76
330
1F
100
AcDbEntity
  8
0
  6
Continuous
 62
     7
370
    25
100
AcDbLine
 10
38.5544040733
 20
68.1088081466
 30
0.0
 11
38.5544040733
 21
45.8911918534
 31
0.0
  0
LINE
  5
77
330
1F
100
AcDbEntity
  8
0
  6
Continuous
 62
     7
370
    25
100
AcDbLine
 10
33.0
 20
68.1088081466
 30
0.0
 11
33.0
 21
45.8911918534
 31
0.0
  0
LINE
  5
78
330
1F
100
AcDbEntity
  8
0
  6
Continuous
 62
     7
370
    25
100
AcDbLine
 10
114.0094110157
 20
70.6082899795
 30
0.0
 11
116.5748803652
 21
75.0518132382
 31
0.0
  0
LINE
  5
79
330
1F
100
AcDbEntity
  8
0
  6
Continuous
 62
     7
370
    25
100
AcDbLine
 10
116.5748803652
 20
75.0518132382
 30
0.0
 11
121.8704651725
 21
70.6082899795
 31
0.0
  0
LINE
  5
7A
330
1F
100
AcDbEntity
  8
0
  6
Continuous
 62
     7
370
    25
100
AcDbLine
 10
121.8704651725
 20
70.6082899795
 30
0.0
 11
121.8704651725
 21
43.3917100205
 31
0.0
  0
LINE
  5
7B
330
1F
100
AcDbEntity
  8
0
  6
Continuous
 62
     7
370
    25
100
AcDbLine
 10
116.5748803652
 20
38.9481867618
 30
0.0
 11
121.8704651725
 21
43.3917100205
 31
0.0
  0
LINE
  5
7C
330
1F
100
AcDbEntity
  8
0
  6
Continuous
 62
     7
370
    25
100
AcDbLine
 10
114.0094110157
 20
43.3917100205
 30
0.0
 11
116.5748803652
 21
38.9481867618
 31
0.0
  0
LINE
  5
7D
330
1F
100
AcDbEntity
  8
0
  6
Continuous
 62
     7
370
    25
100
AcDbLine
 10
110.7616570259
 20
40.6665208455
 30
0.0
 11
114.0094110157
 21
43.3917100205
 31
0.0
  0
LINE
  5
7E
330
1F
100
AcDbEntity
  8
0
  6
Continuous
 62
     7
370
    25
100
AcDbLine
 10
110.7616570259
 20
40.6665208455
 30
0.0
 11
110.7616570259
 21
73.3334791545
 31
0.0
  0
LINE
  5
7F
330
1F
100
AcDbEntity
  8
0
  6
Continuous
 62
     7
370
    25
100
AcDbLine
 10
110.7616570259
 20
73.3334791545
 30
0.0
 11
114.0094110157
 21
70.6082899795
 31
0.0
  0
LINE
  5
80
330
1F
100
AcDbEntity
  8
0
  6
Continuous
 62
     7
370
    25
100
AcDbLine
 10
77.2696095814
 20
75.0518132382
 30
0.0
 11
82.5651943887
 21
70.6082899795
 31
0.0
  0
LINE
  5
81
330
1F
100
AcDbEntity
  8
0
  6
Continuous
 62
     7
370
    25
100
AcDbLine
 10
85.1306637382
 20
75.0518132382
 30
0.0
 11
90.4262485454
 21
70.6082899795
 31
0.0
  0
LINE
  5
82
330
1F
100
AcDbEntity
  8
0
  6
Continuous
 62
     7
370
    25
100
AcDbLine
 10
90.4262485454
 20
70.6082899795
 30
0.0
 11
92.991717895
 21
75.0518132382
 31
0.0
  0
LINE
  5
83
330
1F
100
AcDbEntity
  8
0
  6
Continuous
 62
     7
370
    25
100
AcDbLine
 10
92.991717895
 20
75.0518132382
 30
0.0
 11
98.2873027022
 21
70.6082899795
 31
0.0
  0
LINE
  5
84
330
1F
100
AcDbEntity
  8
0
  6
Continuous
 62
     7
370
    25
100
AcDbLine
 10
92.991717895
 20
38.9481867618
 30
0.0
 11
98.2873027022
 21
43.3917100205
 31
0.0
  0
LINE
  5
85
330
1F
100
AcDbEntity
  8
0
  6
Continuous
 62
     7
370
    25
100
AcDbLine
 10
85.1306637382
 20
38.9481867618
 30
0.0
 11
90.4262485454
 21
43.3917100205
 31
0.0
  0
LINE
  5
86
330
1F
100
AcDbEntity
  8
0
  6
Continuous
 62
     7
370
    25
100
AcDbLine
 10
82.5651943887
 20
43.3917100205
 30
0.0
 11
85.1306637382
 21
38.9481867618
 31
0.0
  0
LINE
  5
87
330
1F
100
AcDbEntity
  8
0
  6
Continuous
 62
     7
370
    25
100
AcDbLine
 10
77.2696095814
 20
38.9481867618
 30
0.0
 11
82.5651943887
 21
43.3917100205
 31
0.0
  0
LINE
  5
88
330
1F
100
AcDbEntity
  8
0
  6
Continuous
 62
     7
370
    25
100
AcDbLine
 10
38.5544040733
 20
38.9481867618
 30
0.0
 11
77.2696095814
 21
38.9481867618
 31
0.0
  0
LINE
  5
89
330
1F
100
AcDbEntity
  8
0
  6
Continuous
 62
     7
370
    25
100
AcDbLine
 10
100.8527720517
 20
38.9481867618
 30
0.0
 11
106.148356859
 21
43.3917100205
 31
0.0
  0
LINE
  5
8A
330
1F
100
AcDbEntity
  8
0
  6
Continuous
 62
     7
370
    25
100
AcDbLine
 10
38.5544040733
 20
75.0518132382
 30
0.0
 11
77.2696095814
 21
75.0518132382
 31
0.0
  0
LINE
  5
8B
330
1F
100
AcDbEntity
  8
0
  6
Continuous
 62
     7
370
    25
100
AcDbLine
 10
108.7138262085
 20
38.9481867618
 30
0.0
 11
110.7616570259
 21
40.6665208455
 31
0.0
  0
LINE
  5
8C
330
1F
100
AcDbEntity
  8
0
  6
Continuous
 62
     7
370
    25
100
AcDbLine
 10
82.5651943887
 20
70.6082899795
 30
0.0
 11
85.1306637382
 21
75.0518132382
 31
0.0
  0
LINE
  5
8D
330
1F
100
AcDbEntity
  8
0
  6
Continuous
 62
     7
370
    25
100
AcDbLine
 10
98.2873027022
 20
70.6082899795
 30
0.0
 11
100.8527720517
 21
75.0518132382
 31
0.0
  0
LINE
  5
8E
330
1F
100
AcDbEntity
  8
0
  6
Continuous
 62
     7
370
    25
100
AcDbLine
 10
90.4262485454
 20
43.3917100205
 30
0.0
 11
92.991717895
 21
38.9481867618
 31
0.0
  0
LINE
  5
8F
330
1F
100
AcDbEntity
  8
0
  6
Continuous
 62
     7
370
    25
100
AcDbLine
 10
106.148356859
 20
70.6082899795
 30
0.0
 11
108.7138262085
 21
75.0518132382
 31
0.0
  0
LINE
  5
90
330
1F
100
AcDbEntity
  8
0
  6
Continuous
 62
     7
370
    25
100
AcDbLine
 10
108.7138262085
 20
75.0518132382
 30
0.0
 11
110.7616570259
 21
73.3334791545
 31
0.0
  0
LINE
  5
91
330
1F
100
AcDbEntity
  8
0
  6
Continuous
 62
     7
370
    25
100
AcDbLine
 10
100.8527720517
 20
75.0518132382
 30
0.0
 11
106.148356859
 21
70.6082899795
 31
0.0
  0
LINE
  5
92
330
1F
100
AcDbEntity
  8
0
  6
Continuous
 62
     7
370
    25
100
AcDbLine
 10
106.148356859
 20
43.3917100205
 30
0.0
 11
108.7138262085
 21
38.9481867618
 31
0.0
  0
LINE
  5
93
330
1F
100
AcDbEntity
  8
0
  6
Continuous
 62
     7
370
    25
100
AcDbLine
 10
98.2873027022
 20
43.3917100205
 30
0.0
 11
100.8527720517
 21
38.9481867618
 31
0.0
  0
SPLINE
  5
94
330
1F
100
AcDbEntity
  8
0
  6
Continuous
 62
     7
370
    25
100
AcDbSpline
210
0.0
220
0.0
230
1.0
 70
    24
 71
     3
 72
    24
 73
    20
 74
     0
 42
0.00000001
 43
0.00000001
 40
0.0
 40
0.0
 40
0.0
 40
0.0
 40
0.0625
 40
0.0625
 40
0.125
 40
0.125
 40
0.2500000000000001
 40
0.2500000000000001
 40
0.5000000000000002
 40
0.5000000000000002
 40
0.6250000000000002
 40
0.6250000000000002
 40
0.7500000000000002
 40
0.7500000000000002
 40
0.8750000000000002
 40
0.8750000000000002
 40
0.9375000000000001
 40
0.9375000000000001
 40
1.0
 40
1.0
 40
1.0
 40
1.0
 10
121.8704651724782
 20
79.2176162931198
 30
0.0
 10
119.9017889074663
 20
79.2176162931198
 30
0.0
 10
117.9300282576492
 20
79.2176162931198
 30
0.0
 10
113.9930262728292
 20
79.2176162931198
 30
0.0
 10
112.0266375416093
 20
79.2176162931198
 30
0.0
 10
106.1391955597985
 20
79.2176162931198
 30
0.0
 10
102.2278722625887
 20
79.2176162931198
 30
0.0
 10
90.60446475160543
 20
79.2176162931198
 30
0.0
 10
83.00896049111972
 20
79.2176162931198
 30
0.0
 10
72.18378438573654
 20
79.2176162931198
 30
0.0
 10
68.66900546712216
 20
79.2176162931198
 30
0.0
 10
61.87007712985667
 20
79.2176162931198
 30
0.0
 10
58.58594349398495
 20
79.2176162931198
 30
0.0
 10
52.30835437644253
 20
79.2176162931198
 30
0.0
 10
49.31591948883307
 20
79.2176162931198
 30
0.0
 10
45.07758960784619
 20
79.2176162931198
 30
0.0
 10
43.70714733366587
 20
79.2176162931198
 30
0.0
 10
41.04849203989492
 20
79.2176162931198
 30
0.0
 10
39.76466232212108
 20
79.2176162931198
 30
0.0
 10
38.55440407327988
 20
79.2176162931198
 30
0.0
  0
SPLINE
  5
95
330
1F
100
AcDbEntity
  8
0
  6
Continuous
 62
     7
370
    25
100
AcDbSpline
210
0.0
220
0.0
230
1.0
 70
    24
 71
     3
 72
    24
 73
    20
 74
     0
 42
0.00000001
 43
0.00000001
 40
0.0
 40
0.0
 40
0.0
 40
0.0
 40
0.0625
 40
0.0625
 40
0.125
 40
0.125
 40
0.2500000000000001
 40
0.2500000000000001
 40
0.5000000000000002
 40
0.5000000000000002
 40
0.6250000000000002
 40
0.6250000000000002
 40
0.7500000000000002
 40
0.7500000000000002
 40
0.8750000000000002
 40
0.8750000000000002
 40
0.9375000000000001
 40
0.9375000000000001
 40
1.0
 40
1.0
 40
1.0
 40
1.0
 10
121.8704651724782
 20
34.78238370688071
 30
0.0
 10
119.9017889074663
 20
34.78238370688071
 30
0.0
 10
117.9300282576492
 20
34.7823837068807
 30
0.0
 10
113.9930262728292
 20
34.78238370688072
 30
0.0
 10
112.0266375416093
 20
34.78238370688071
 30
0.0
 10
106.1391955597985
 20
34.78238370688071
 30
0.0
 10
102.2278722625887
 20
34.78238370688071
 30
0.0
 10
90.60446475160543
 20
34.7823837068807
 30
0.0
 10
83.00896049111972
 20
34.78238370688071
 30
0.0
 10
72.18378438573654
 20
34.78238370688071
 30
0.0
 10
68.66900546712216
 20
34.78238370688071
 30
0.0
 10
61.87007712985667
 20
34.78238370688071
 30
0.0
 10
58.58594349398495
 20
34.78238370688071
 30
0.0
 10
52.30835437644253
 20
34.7823837068807
 30
0.0
 10
49.31591948883307
 20
34.78238370688071
 30
0.0
 10
45.07758960784619
 20
34.78238370688071
 30
0.0
 10
43.70714733366587
 20
34.78238370688072
 30
0.0
 10
41.04849203989492
 20
34.78238370688071
 30
0.0
 10
39.76466232212108
 20
34.78238370688071
 30
0.0
 10
38.55440407327988
 20
34.78238370688071
 30
0.0
  0
SPLINE
  5
96
330
1F
100
AcDbEntity
  8
0
  6
Continuous
 62
     7
370
    25
100
AcDbSpline
210
0.0
220
0.0
230
1.0
 70
     8
 71
     3
 72
    29
 73
    25
 74
     0
 42
0.00000001
 43
0.00000001
 40
0.0
 40
0.0
 40
0.0
 40
0.0
 40
0.125000000000001
 40
0.125000000000001
 40
0.1875000000000013
 40
0.1875000000000013
 40
0.2500000000000017
 40
0.2500000000000017
 40
0.3750000000000024
 40
0.3750000000000024
 40
0.4375000000000025
 40
0.4375000000000025
 40
0.5000000000000026
 40
0.5000000000000026
 40
0.6250000000000027
 40
0.6250000000000027
 40
0.6875000000000022
 40
0.6875000000000022
 40
0.7500000000000018
 40
0.8125000000000014
 40
0.8125000000000014
 40
0.875000000000001
 40
0.875000000000001
 40
1.0
 40
1.0
 40
1.0
 40
1.0
 10
132.9792733192958
 20
45.89119185344048
 30
0.0
 10
132.9792733192958
 20
45.15706884615767
 30
0.0
 10
132.9072175024633
 20
44.43523716806504
 30
0.0
 10
132.6954867093393
 20
43.37017042074268
 30
0.0
 10
132.6075067084907
 20
43.01811690789408
 30
0.0
 10
132.3959485365467
 20
42.32008270620019
 30
0.0
 10
132.2717853088768
 20
41.97319329495141
 30
0.0
 10
131.8534909650682
 20
40.96422180583946
 30
0.0
 10
131.5122242802891
 20
40.32620967756299
 30
0.0
 10
130.9075924938836
 20
39.42066792316767
 30
0.0
 10
130.6896290796979
 20
39.12643439370071
 30
0.0
 10
130.2251943230388
 20
38.5605645724853
 30
0.0
 10
129.9808381021556
 20
38.29128205120386
 30
0.0
 10
129.2124979169599
 20
37.52310891228548
 30
0.0
 10
128.6535754143111
 20
37.06351815573376
 30
0.0
 10
127.7435195772344
 20
36.45477051624443
 30
0.0
 10
127.42837055078
 20
36.26585037946489
 30
0.0
 10
126.7878305838432
 20
35.92339229205776
 30
0.0
 10
126.1337173071304
 20
35.61396886588521
 30
0.0
 10
125.4528745603658
 20
35.36961044023552
 30
0.0
 10
124.7584893162979
 20
35.15822166798669
 30
0.0
 10
124.4029221042582
 20
35.0687228706762
 30
0.0
 10
123.3277694502373
 20
34.85415869648782
 30
0.0
 10
122.6030966431052
 20
34.78238370688072
 30
0.0
 10
121.8704651724781
 20
34.78238370688072
 30
0.0
  0
SPLINE
  5
97
330
1F
100
AcDbEntity
  8
0
  6
Continuous
 62
     7
370
    25
100
AcDbSpline
210
0.0
220
0.0
230
1.0
 70
     8
 71
     3
 72
    29
 73
    25
 74
     0
 42
0.00000001
 43
0.00000001
 40
0.0
 40
0.0
 40
0.0
 40
0.0
 40
0.1249999999999993
 40
0.1249999999999993
 40
0.1874999999999988
 40
0.1874999999999988
 40
0.2499999999999983
 40
0.2499999999999983
 40
0.3749999999999973
 40
0.3749999999999973
 40
0.4374999999999968
 40
0.4374999999999968
 40
0.4999999999999963
 40
0.4999999999999963
 40
0.6249999999999962
 40
0.6249999999999962
 40
0.6874999999999969
 40
0.6874999999999969
 40
0.7499999999999974
 40
0.8124999999999981
 40
0.8124999999999981
 40
0.8749999999999988
 40
0.8749999999999988
 40
1.0
 40
1.0
 40
1.0
 40
1.0
 10
132.9792733192958
 20
68.10880814656002
 30
0.0
 10
132.9792733192958
 20
68.84293115384283
 30
0.0
 10
132.9072175024633
 20
69.56476283193547
 30
0.0
 10
132.6954867093393
 20
70.62982957925784
 30
0.0
 10
132.6075067084907
 20
70.98188309210643
 30
0.0
 10
132.3959485365467
 20
71.67991729380032
 30
0.0
 10
132.2717853088768
 20
72.02680670504908
 30
0.0
 10
131.8534909650681
 20
73.03577819416104
 30
0.0
 10
131.5122242802891
 20
73.67379032243751
 30
0.0
 10
130.9075924938837
 20
74.57933207683284
 30
0.0
 10
130.6896290796979
 20
74.87356560629982
 30
0.0
 10
130.2251943230388
 20
75.43943542751522
 30
0.0
 10
129.9808381021556
 20
75.70871794879666
 30
0.0
 10
129.2124979169599
 20
76.47689108771503
 30
0.0
 10
128.6535754143111
 20
76.93648184426675
 30
0.0
 10
127.7435195772344
 20
77.54522948375607
 30
0.0
 10
127.42837055078
 20
77.73414962053563
 30
0.0
 10
126.7878305838433
 20
78.07660770794274
 30
0.0
 10
126.1337173071304
 20
78.38603113411531
 30
0.0
 10
125.4528745603658
 20
78.63038955976499
 30
0.0
 10
124.7584893162979
 20
78.8417783320138
 30
0.0
 10
124.4029221042583
 20
78.93127712932433
 30
0.0
 10
123.3277694502373
 20
79.14584130351271
 30
0.0
 10
122.6030966431052
 20
79.21761629311978
 30
0.0
 10
121.8704651724781
 20
79.21761629311978
 30
0.0
  0
LINE
  5
98
330
1F
100
AcDbEntity
  8
0
  6
Continuous
 62
     7
370
    25
100
AcDbLine
 10
132.9792733192
 20
68.1088081466
 30
0.0
 11
132.9792733192
 21
45.8911918534
 31
0.0
  0
LINE
  5
99
330
1F
100
AcDbEntity
  8
0
  6
HIDDEN
 62
     7
370
    18
100
AcDbLine
 10
46.8860101832
 20
52.001036334
 30
0.0
 11
121.8704651725
 21
52.001036334
 31
0.0
  0
LINE
  5
9A
330
1F
100
AcDbEntity
  8
0
  6
HIDDEN
 62
     7
370
    18
100
AcDbLine
 10
46.8860101832
 20
61.998963666
 30
0.0
 11
46.8860101832
 21
75.0518132382
 31
0.0
  0
LINE
  5
9B
330
1F
100
AcDbEntity
  8
0
  6
HIDDEN
 62
     7
370
    18
100
AcDbLine
 10
46.8860101832
 20
61.998963666
 30
0.0
 11
121.8704651725
 21
61.998963666
 31
0.0
  0
LINE
  5
9C
330
1F
100
AcDbEntity
  8
0
  6
HIDDEN
 62
     7
370
    18
100
AcDbLine
 10
46.8860101832
 20
52.001036334
 30
0.0
 11
46.8860101832
 21
38.9481867618
 31
0.0
  0
SPLINE
  5
9D
330
1F
100
AcDbEntity
  8
0
  6
Continuous
 62
     7
370
    25
100
AcDbSpline
210
0.0
220
0.0
230
1.0
 70
     8
 71
     3
 72
    14
 73
    10
 74
     0
 42
0.00000001
 43
0.00000001
 40
0.0
 40
0.0
 40
0.0
 40
0.0
 40
0.25
 40
0.25
 40
0.5
 40
0.5
 40
0.75
 40
0.75
 40
1.0
 40
1.0
 40
1.0
 40
1.0
 10
121.5916324004721
 20
174.9062762688581
 30
0.0
 10
122.472550289928
 20
174.9616633549036
 30
0.0
 10
123.3481815669607
 20
175.0156441991319
 30
0.0
 10
124.9547283026712
 20
175.1130065410609
 30
0.0
 10
125.7005479949705
 20
175.1573010892439
 30
0.0
 10
126.9359223225815
 20
175.2297536385549
 30
0.0
 10
127.4344747037905
 20
175.2584765130899
 30
0.0
 10
128.1085271114599
 20
175.2971118507112
 30
0.0
 10
128.2835632165152
 20
175.3070236645014
 30
0.0
 10
128.2835632165152
 20
175.3070236645014
 30
0.0
  0
ARC
  5
9E
330
1F
100
AcDbEntity
  8
0
  6
Continuous
 62
     7
370
    25
100
AcDbCircle
 10
128.5357500604
 20
170.870662459
 30
0.0
 40
4.443523258623912
100
AcDbArc
 50
0.0
 51
93.253501568
  0
SPLINE
  5
9F
330
1F
100
AcDbEntity
  8
0
  6
Continuous
 62
     7
370
    25
100
AcDbSpline
210
0.0
220
0.0
230
1.0
 70
     8
 71
     3
 72
    29
 73
    25
 74
     0
 42
0.00000001
 43
0.00000001
 40
0.0
 40
0.0
 40
0.0
 40
0.0
 40
0.1249999999999993
 40
0.1249999999999993
 40
0.1874999999999988
 40
0.1874999999999988
 40
0.2499999999999983
 40
0.2499999999999983
 40
0.3749999999999973
 40
0.3749999999999973
 40
0.4374999999999968
 40
0.4374999999999968
 40
0.4999999999999963
 40
0.4999999999999963
 40
0.6249999999999962
 40
0.6249999999999962
 40
0.6874999999999969
 40
0.6874999999999969
 40
0.7499999999999974
 40
0.8124999999999981
 40
0.8124999999999981
 40
0.8749999999999988
 40
0.8749999999999988
 40
1.0
 40
1.0
 40
1.0
 40
1.0
 10
132.9792733192958
 20
167.2204785301649
 30
0.0
 10
132.9792733192958
 20
167.2204785301649
 30
0.0
 10
132.9072175024633
 20
167.216678830335
 30
0.0
 10
132.6954867093393
 20
167.2054490813989
 30
0.0
 10
132.6075067084907
 20
167.2007760579621
 30
0.0
 10
132.3959485365467
 20
167.1895014386386
 30
0.0
 10
132.2717853088768
 20
167.1828682386962
 30
0.0
 10
131.8534909650681
 20
167.1604271332626
 30
0.0
 10
131.5122242802891
 20
167.1420114118318
 30
0.0
 10
130.9075924938837
 20
167.1089811921061
 30
0.0
 10
130.6896290796979
 20
167.0970159601489
 30
0.0
 10
130.2251943230388
 20
167.0713569510771
 30
0.0
 10
129.9808381021556
 20
167.0577802744364
 30
0.0
 10
129.2124979169599
 20
167.0147997490087
 30
0.0
 10
128.6535754143111
 20
166.983166865734
 30
0.0
 10
127.7435195772344
 20
166.9308336820659
 30
0.0
 10
127.42837055078
 20
166.9125812026041
 30
0.0
 10
126.7878305838433
 20
166.8751918885307
 30
0.0
 10
126.1337173071304
 20
166.8367274743912
 30
0.0
 10
125.4528745603658
 20
166.7960698276767
 30
0.0
 10
124.7584893162979
 20
166.7542700657242
 30
0.0
 10
124.4029221042583
 20
166.7327008192935
 30
0.0
 10
123.3277694502373
 20
166.6669523428879
 30
0.0
 10
122.6030966431052
 20
166.6219452231028
 30
0.0
 10
121.8704651724781
 20
166.5757233067647
 30
0.0
  0
LINE
  5
A0
330
1F
100
AcDbEntity
  8
0
  6
Continuous
 62
     7
370
    25
100
AcDbLine
 10
132.979273319
 20
170.870662459
 30
0.0
 11
132.9792733192
 21
167.2204785302
 31
0.0
  0
SPLINE
  5
A1
330
1F
100
AcDbEntity
  8
0
  6
Continuous
 62
     7
370
    25
100
AcDbSpline
210
0.0
220
0.0
230
1.0
 70
     8
 71
     3
 72
    24
 73
    20
 74
     0
 42
0.00000001
 43
0.00000001
 40
0.0
 40
0.0
 40
0.0
 40
0.0
 40
0.0625
 40
0.0625
 40
0.125
 40
0.125
 40
0.2500000000000001
 40
0.2500000000000001
 40
0.5000000000000002
 40
0.5000000000000002
 40
0.6250000000000002
 40
0.6250000000000002
 40
0.7500000000000002
 40
0.7500000000000002
 40
0.8750000000000002
 40
0.8750000000000002
 40
0.9375000000000001
 40
0.9375000000000001
 40
1.0
 40
1.0
 40
1.0
 40
1.0
 10
121.8704651724782
 20
166.5757233067648
 30
0.0
 10
119.9017889074663
 20
166.4515189922269
 30
0.0
 10
117.9300282576492
 20
166.3219868911019
 30
0.0
 10
113.9930262728292
 20
166.0533206120659
 30
0.0
 10
112.0266375416093
 20
165.9141260837591
 30
0.0
 10
106.1391955597985
 20
165.4828208973786
 30
0.0
 10
102.2278722625887
 20
165.1768736168879
 30
0.0
 10
90.60446475160543
 20
164.2122320606962
 30
0.0
 10
83.00896049111972
 20
163.5070890848175
 30
0.0
 10
72.18378438573654
 20
162.3934325907997
 30
0.0
 10
68.66900546712216
 20
162.0128195667539
 30
0.0
 10
61.87007712985667
 20
161.2381397884295
 30
0.0
 10
58.58594349398495
 20
160.8440750790506
 30
0.0
 10
52.30835437644253
 20
160.0499832489262
 30
0.0
 10
49.31591948883307
 20
159.650105747333
 30
0.0
 10
45.07758960784619
 20
159.0494780111383
 30
0.0
 10
43.70714733366587
 20
158.849241113055
 30
0.0
 10
41.04849203989492
 20
158.447969230885
 30
0.0
 10
39.76466232212108
 20
158.2477107842702
 30
0.0
 10
38.55440407327988
 20
158.0526457398444
 30
0.0
  0
LINE
  5
A2
330
1F
100
AcDbEntity
  8
0
  6
Continuous
 62
     7
370
    25
100
AcDbLine
 10
38.5544040733
 20
151.6796734704
 30
0.0
 11
38.5544040733
 21
158.0526457398
 31
0.0
  0
LINE
  5
A3
330
1F
100
AcDbEntity
  8
0
  6
Continuous
 62
     7
370
    25
100
AcDbLine
 10
33.0
 20
158.8609248313
 30
0.0
 11
33.0
 21
151.6796734704
 31
0.0
  0
SPLINE
  5
A4
330
1F
100
AcDbEntity
  8
0
  6
Continuous
 62
     7
370
    25
100
AcDbSpline
210
0.0
220
0.0
230
1.0
 70
     8
 71
     3
 72
     8
 73
     4
 74
     0
 42
0.00000001
 43
0.00000001
 40
0.1004425926480285
 40
0.1004425926480285
 40
0.1004425926480285
 40
0.1004425926480285
 40
0.901851945259728
 40
0.901851945259728
 40
0.901851945259728
 40
0.901851945259728
 10
39.96222250689611
 20
166.7085371598847
 30
0.0
 10
60.26697237541406
 20
169.8306770855011
 30
0.0
 10
91.1832583223951
 20
172.9943713663418
 30
0.0
 10
121.591632400472
 20
174.9062762688581
 30
0.0
  0
SPLINE
  5
A5
330
1F
100
AcDbEntity
  8
0
  6
Continuous
 62
     7
370
    25
100
AcDbSpline
210
0.0
220
0.0
230
1.0
 70
    24
 71
     3
 72
     8
 73
     4
 74
     0
 42
0.00000001
 43
0.00000001
 40
0.0
 40
0.0
 40
0.0
 40
0.0
 40
1.0
 40
1.0
 40
1.0
 40
1.0
 10
33.68970456919822
 20
163.4781861861968
 30
0.0
 10
33.72489167987109
 20
163.5133732968696
 30
0.0
 10
33.76012396745362
 20
163.5486055844521
 30
0.0
 10
33.79540204934198
 20
163.5838836663405
 30
0.0
  0
SPLINE
  5
A6
330
1F
100
AcDbEntity
  8
0
  6
Continuous
 62
     7
370
    25
100
AcDbSpline
210
0.0
220
0.0
230
1.0
 70
     8
 71
     3
 72
    21
 73
    17
 74
     0
 42
0.00000001
 43
0.00000001
 40
0.0
 40
0.0
 40
0.0
 40
0.0
 40
0.0336586786115482
 40
0.0680089245196458
 40
0.1030698453111693
 40
0.1388594102163512
 40
0.1753945132498591
 40
0.2126910352185462
 40
0.2507639040273562
 40
0.3674492885636962
 40
0.5001773644001172
 40
0.6175250099786675
 40
0.7497058081741514
 40
0.8135078718950295
 40
0.8969396689536884
 40
0.9999999999999999
 40
0.9999999999999999
 40
0.9999999999999999
 40
0.9999999999999999
 10
33.7954020493428
 20
163.5838836663396
 30
0.0
 10
33.85325647862142
 20
163.6410077787837
 30
0.0
 10
33.97015404193178
 20
163.7564297029863
 30
0.0
 10
34.15193271259437
 20
163.9261094159178
 30
0.0
 10
34.34075078922928
 20
164.0950817327412
 30
0.0
 10
34.53707580670822
 20
164.262649054205
 30
0.0
 10
34.74091859954166
 20
164.4285723814004
 30
0.0
 10
34.95240556489429
 20
164.5924721145501
 30
0.0
 10
35.32094306485182
 20
164.8640196695657
 30
0.0
 10
35.88883508066715
 20
165.2402638207054
 30
0.0
 10
36.64202621641944
 20
165.657364510953
 30
0.0
 10
37.45183258271166
 20
166.0257282831981
 30
0.0
 10
38.13297893434574
 20
166.273669049767
 30
0.0
 10
38.74948031306731
 20
166.4558287722965
 30
0.0
 10
39.30747570184057
 20
166.5956731648589
 30
0.0
 10
39.72917865589117
 20
166.6683655088958
 30
0.0
 10
39.96222251940049
 20
166.7085371618074
 30
0.0
  0
LINE
  5
A7
330
1F
100
AcDbEntity
  8
0
  6
Continuous
 62
     7
370
    25
100
AcDbLine
 10
33.0
 20
162.788481617
 30
0.0
 11
33.6897045692
 21
163.4781861862
 31
0.0
  0
SPLINE
  5
A8
330
1F
100
AcDbEntity
  8
0
  6
Continuous
 62
     7
370
    25
100
AcDbSpline
210
0.0
220
0.0
230
1.0
 70
    24
 71
     3
 72
    14
 73
    10
 74
     0
 42
0.00000001
 43
0.00000001
 40
0.0
 40
0.0
 40
0.0
 40
0.0
 40
0.25
 40
0.25
 40
0.5
 40
0.5
 40
0.75
 40
0.75
 40
1.0
 40
1.0
 40
1.0
 40
1.0
 10
33.0
 20
158.8609248313345
 30
0.0
 10
32.99999999999999
 20
159.3237918374409
 30
0.0
 10
32.99999999999999
 20
159.8231674428667
 30
0.0
 10
33.00000000000001
 20
160.7901079684163
 30
0.0
 10
32.99999999999999
 20
161.2546752849646
 30
0.0
 10
33.00000000000001
 20
162.0215784509819
 30
0.0
 10
33.0
 20
162.3213197141831
 30
0.0
 10
32.99999999999999
 20
162.7041226506247
 30
0.0
 10
32.99999999999999
 20
162.7884816169992
 30
0.0
 10
33.0
 20
162.7884816169992
 30
0.0
  0
LINE
  5
A9
330
1F
100
AcDbEntity
  8
0
  6
Continuous
 62
     7
370
    25
100
AcDbLine
 10
38.5544040733
 20
140.5708653239
 30
0.0
 11
33.0
 21
140.5708653239
 31
0.0
  0
LINE
  5
AA
330
1F
100
AcDbEntity
  8
0
  6
Continuous
 62
     7
370
    25
100
AcDbLine
 10
38.5544040733
 20
151.6796734704
 30
0.0
 11
38.5544040733
 21
140.5708653239
 31
0.0
  0
LINE
  5
AB
330
1F
100
AcDbEntity
  8
0
  6
Continuous
 62
     7
370
    25
100
AcDbLine
 10
33.0
 20
140.5708653239
 30
0.0
 11
33.0
 21
151.6796734704
 31
0.0
  0
LINE
  5
AC
330
1F
100
AcDbEntity
  8
0
  6
Continuous
 62
     7
370
    25
100
AcDbLine
 10
46.8860101832
 20
154.4568755071
 30
0.0
 11
77.2696095814
 21
154.4568755071
 31
0.0
  0
LINE
  5
AD
330
1F
100
AcDbEntity
  8
0
  6
Continuous
 62
     7
370
    25
100
AcDbLine
 10
77.2696095814
 20
154.4568755071
 30
0.0
 11
77.2696095814
 21
146.1252693972
 31
0.0
  0
LINE
  5
AE
330
1F
100
AcDbEntity
  8
0
  6
Continuous
 62
     7
370
    25
100
AcDbLine
 10
38.5544040733
 20
146.1252693972
 30
0.0
 11
77.2696095814
 21
146.1252693972
 31
0.0
  0
LINE
  5
AF
330
1F
100
AcDbEntity
  8
0
  6
Continuous
 62
     7
370
    25
100
AcDbLine
 10
46.8860101833
 20
159.305598514
 30
0.0
 11
46.8860101832
 21
154.4568755071
 31
0.0
  0
LINE
  5
B0
330
1F
100
AcDbEntity
  8
0
  6
Continuous
 62
     7
370
    25
100
AcDbLine
 10
98.2873027022
 20
154.4568755071
 30
0.0
 11
100.8527720517
 21
154.4568755071
 31
0.0
  0
LINE
  5
B1
330
1F
100
AcDbEntity
  8
0
  6
Continuous
 62
     7
370
    25
100
AcDbLine
 10
100.8527720517
 20
154.4568755071
 30
0.0
 11
100.8527720517
 21
146.1252693972
 31
0.0
  0
LINE
  5
B2
330
1F
100
AcDbEntity
  8
0
  6
Continuous
 62
     7
370
    25
100
AcDbLine
 10
98.2873027022
 20
146.1252693972
 30
0.0
 11
100.8527720517
 21
146.1252693972
 31
0.0
  0
LINE
  5
B3
330
1F
100
AcDbEntity
  8
0
  6
Continuous
 62
     7
370
    25
100
AcDbLine
 10
98.2873027022
 20
154.4568755071
 30
0.0
 11
98.2873027022
 21
146.1252693972
 31
0.0
  0
LINE
  5
B4
330
1F
100
AcDbEntity
  8
0
  6
Continuous
 62
     7
370
    25
100
AcDbLine
 10
100.8527720517
 20
154.4568755071
 30
0.0
 11
106.148356859
 21
154.4568755071
 31
0.0
  0
LINE
  5
B5
330
1F
100
AcDbEntity
  8
0
  6
Continuous
 62
     7
370
    25
100
AcDbLine
 10
106.148356859
 20
154.4568755071
 30
0.0
 11
106.148356859
 21
146.1252693972
 31
0.0
  0
LINE
  5
B6
330
1F
100
AcDbEntity
  8
0
  6
Continuous
 62
     7
370
    25
100
AcDbLine
 10
100.8527720517
 20
146.1252693972
 30
0.0
 11
106.148356859
 21
146.1252693972
 31
0.0
  0
LINE
  5
B7
330
1F
100
AcDbEntity
  8
0
  6
Continuous
 62
     7
370
    25
100
AcDbLine
 10
90.4262485454
 20
154.4568755071
 30
0.0
 11
92.991717895
 21
154.4568755071
 31
0.0
  0
LINE
  5
B8
330
1F
100
AcDbEntity
  8
0
  6
Continuous
 62
     7
370
    25
100
AcDbLine
 10
92.991717895
 20
154.4568755071
 30
0.0
 11
92.991717895
 21
146.1252693972
 31
0.0
  0
LINE
  5
B9
330
1F
100
AcDbEntity
  8
0
  6
Continuous
 62
     7
370
    25
100
AcDbLine
 10
90.4262485454
 20
146.1252693972
 30
0.0
 11
92.991717895
 21
146.1252693972
 31
0.0
  0
LINE
  5
BA
330
1F
100
AcDbEntity
  8
0
  6
Continuous
 62
     7
370
    25
100
AcDbLine
 10
90.4262485454
 20
154.4568755071
 30
0.0
 11
90.4262485454
 21
146.1252693972
 31
0.0
  0
LINE
  5
BB
330
1F
100
AcDbEntity
  8
0
  6
Continuous
 62
     7
370
    25
100
AcDbLine
 10
106.148356859
 20
154.4568755071
 30
0.0
 11
108.7138262085
 21
154.4568755071
 31
0.0
  0
LINE
  5
BC
330
1F
100
AcDbEntity
  8
0
  6
Continuous
 62
     7
370
    25
100
AcDbLine
 10
108.7138262085
 20
154.4568755071
 30
0.0
 11
108.7138262085
 21
146.1252693972
 31
0.0
  0
LINE
  5
BD
330
1F
100
AcDbEntity
  8
0
  6
Continuous
 62
     7
370
    25
100
AcDbLine
 10
106.148356859
 20
146.1252693972
 30
0.0
 11
108.7138262085
 21
146.1252693972
 31
0.0
  0
LINE
  5
BE
330
1F
100
AcDbEntity
  8
0
  6
Continuous
 62
     7
370
    25
100
AcDbLine
 10
116.5748803652
 20
154.4568755071
 30
0.0
 11
121.8704651725
 21
154.4568755071
 31
0.0
  0
LINE
  5
BF
330
1F
100
AcDbEntity
  8
0
  6
Continuous
 62
     7
370
    25
100
AcDbLine
 10
121.8704651725
 20
154.4568755071
 30
0.0
 11
121.8704651725
 21
149.521572882
 31
0.0
  0
LINE
  5
C0
330
1F
100
AcDbEntity
  8
0
  6
Continuous
 62
     7
370
    25
100
AcDbLine
 10
116.5748803652
 20
147.9025501302
 30
0.0
 11
121.8704651725
 21
149.521572882
 31
0.0
  0
LINE
  5
C1
330
1F
100
AcDbEntity
  8
0
  6
Continuous
 62
     7
370
    25
100
AcDbLine
 10
116.5748803652
 20
154.4568755071
 30
0.0
 11
116.5748803652
 21
147.9025501302
 31
0.0
  0
LINE
  5
C2
330
1F
100
AcDbEntity
  8
0
  6
Continuous
 62
     7
370
    25
100
AcDbLine
 10
108.7138262085
 20
154.4568755071
 30
0.0
 11
114.0094110157
 21
154.4568755071
 31
0.0
  0
LINE
  5
C3
330
1F
100
AcDbEntity
  8
0
  6
Continuous
 62
     7
370
    25
100
AcDbLine
 10
114.0094110157
 20
154.4568755071
 30
0.0
 11
114.0094110157
 21
147.1182074377
 31
0.0
  0
LINE
  5
C4
330
1F
100
AcDbEntity
  8
0
  6
Continuous
 62
     7
370
    25
100
AcDbLine
 10
110.7616570259
 20
146.1252693972
 30
0.0
 11
114.0094110157
 21
147.1182074377
 31
0.0
  0
LINE
  5
C5
330
1F
100
AcDbEntity
  8
0
  6
Continuous
 62
     7
370
    25
100
AcDbLine
 10
108.7138262085
 20
146.1252693972
 30
0.0
 11
110.7616570259
 21
146.1252693972
 31
0.0
  0
LINE
  5
C6
330
1F
100
AcDbEntity
  8
0
  6
Continuous
 62
     7
370
    25
100
AcDbLine
 10
92.991717895
 20
154.4568755071
 30
0.0
 11
98.2873027022
 21
154.4568755071
 31
0.0
  0
LINE
  5
C7
330
1F
100
AcDbEntity
  8
0
  6
Continuous
 62
     7
370
    25
100
AcDbLine
 10
92.991717895
 20
146.1252693972
 30
0.0
 11
98.2873027022
 21
146.1252693972
 31
0.0
  0
LINE
  5
C8
330
1F
100
AcDbEntity
  8
0
  6
Continuous
 62
     7
370
    25
100
AcDbLine
 10
114.0094110157
 20
147.1182074377
 30
0.0
 11
116.5748803652
 21
147.9025501302
 31
0.0
  0
LINE
  5
C9
330
1F
100
AcDbEntity
  8
0
  6
Continuous
 62
     7
370
    25
100
AcDbLine
 10
114.0094110157
 20
154.4568755071
 30
0.0
 11
116.5748803652
 21
154.4568755071
 31
0.0
  0
LINE
  5
CA
330
1F
100
AcDbEntity
  8
0
  6
Continuous
 62
     7
370
    25
100
AcDbLine
 10
85.1306637382
 20
154.4568755071
 30
0.0
 11
85.1306637382
 21
146.1252693972
 31
0.0
  0
LINE
  5
CB
330
1F
100
AcDbEntity
  8
0
  6
Continuous
 62
     7
370
    25
100
AcDbLine
 10
82.5651943887
 20
154.4568755071
 30
0.0
 11
82.5651943887
 21
146.1252693972
 31
0.0
  0
LINE
  5
CC
330
1F
100
AcDbEntity
  8
0
  6
Continuous
 62
     7
370
    25
100
AcDbLine
 10
82.5651943887
 20
146.1252693972
 30
0.0
 11
85.1306637382
 21
146.1252693972
 31
0.0
  0
LINE
  5
CD
330
1F
100
AcDbEntity
  8
0
  6
Continuous
 62
     7
370
    25
100
AcDbLine
 10
82.5651943887
 20
154.4568755071
 30
0.0
 11
85.1306637382
 21
154.4568755071
 31
0.0
  0
LINE
  5
CE
330
1F
100
AcDbEntity
  8
0
  6
Continuous
 62
     7
370
    25
100
AcDbLine
 10
85.1306637382
 20
146.1252693972
 30
0.0
 11
90.4262485454
 21
146.1252693972
 31
0.0
  0
LINE
  5
CF
330
1F
100
AcDbEntity
  8
0
  6
Continuous
 62
     7
370
    25
100
AcDbLine
 10
85.1306637382
 20
154.4568755071
 30
0.0
 11
90.4262485454
 21
154.4568755071
 31
0.0
  0
LINE
  5
D0
330
1F
100
AcDbEntity
  8
0
  6
Continuous
 62
     7
370
    25
100
AcDbLine
 10
77.2696095814
 20
146.1252693972
 30
0.0
 11
82.5651943887
 21
146.1252693972
 31
0.0
  0
LINE
  5
D1
330
1F
100
AcDbEntity
  8
0
  6
Continuous
 62
     7
370
    25
100
AcDbLine
 10
77.2696095814
 20
154.4568755071
 30
0.0
 11
82.5651943887
 21
154.4568755071
 31
0.0
  0
LINE
  5
D2
330
1F
100
AcDbEntity
  8
0
  6
Continuous
 62
     7
370
    25
100
AcDbLine
 10
121.8704651725
 20
154.4568755071
 30
0.0
 11
121.8704651725
 21
166.5757233068
 31
0.0
  0
LINE
  5
D3
330
1F
100
AcDbEntity
  8
0
  6
Continuous
 62
     7
370
    25
100
AcDbLine
 10
240.3141857176
 20
45.8911918534
 30
0.0
 11
240.3141857176
 21
68.1088081466
 31
0.0
  0
SPLINE
  5
D4
330
1F
100
AcDbEntity
  8
0
  6
Continuous
 62
     7
370
    25
100
AcDbSpline
210
0.0
220
0.0
230
1.0
 70
     8
 71
     3
 72
    24
 73
    20
 74
     0
 42
0.00000001
 43
0.00000001
 40
0.0
 40
0.0
 40
0.0
 40
0.0
 40
0.0474501463914962
 40
0.0931620629569944
 40
0.1361441068953065
 40
0.175592783434629
 40
0.2109294359629655
 40
0.2417950338245201
 40
0.2941727599893777
 40
0.3460416998347963
 40
0.4012363932327262
 40
0.4558565292869928
 40
0.5098714040882466
 40
0.6219353736956615
 40
0.7297427436944702
 40
0.7846974670027699
 40
0.8479517548939706
 40
0.9198630941648744
 40
1.0
 40
1.0
 40
1.0
 40
1.0
 10
235.5527968207232
 20
34.99865419838932
 30
0.0
 10
235.795346424318
 20
35.01056894563767
 30
0.0
 10
236.2715603700846
 20
35.03396197005765
 30
0.0
 10
236.9491630720045
 20
35.20727988191728
 30
0.0
 10
237.555282596822
 20
35.45701206705813
 30
0.0
 10
238.0736047863277
 20
35.76373355063885
 30
0.0
 10
238.499197488715
 20
36.09604466275426
 30
0.0
 10
238.9305725875054
 20
36.51851638038382
 30
0.0
 10
239.351903144001
 20
37.0809872115149
 30
0.0
 10
239.690628431619
 20
37.78922486229322
 30
0.0
 10
239.9009553910928
 20
38.47380621390575
 30
0.0
 10
240.0294837972817
 20
39.13811915523966
 30
0.0
 10
240.1287955163953
 20
39.95592443554728
 30
0.0
 10
240.1890385964241
 20
40.85142807076529
 30
0.0
 10
240.2225170995289
 20
41.85498447431131
 30
0.0
 10
240.2062557733811
 20
42.72164727982747
 30
0.0
 10
240.2133041736644
 20
43.61793546640817
 30
0.0
 10
240.2333471050705
 20
44.70291075264905
 30
0.0
 10
240.2511441631638
 20
45.48106583851752
 30
0.0
 10
240.2605240883814
 20
45.89119185344048
 30
0.0
  0
SPLINE
  5
D5
330
1F
100
AcDbEntity
  8
0
  6
Continuous
 62
     7
370
    25
100
AcDbSpline
210
0.0
220
0.0
230
1.0
 70
     8
 71
     3
 72
    26
 73
    22
 74
     0
 42
0.00000001
 43
0.00000001
 40
0.0
 40
0.0
 40
0.0
 40
0.0
 40
0.0653344489406811
 40
0.1247688384535648
 40
0.1785503099268585
 40
0.2488350338353315
 40
0.3075050842343159
 40
0.3555668811041051
 40
0.4014936164184136
 40
0.4505950691052083
 40
0.5034376227122792
 40
0.5586606022663927
 40
0.6076141133048438
 40
0.6527830566040088
 40
0.6994073575276148
 40
0.7562673511984509
 40
0.8272811207702401
 40
0.8675195437429113
 40
0.9101996480753558
 40
0.9546275779418519
 40
1.0
 40
1.0
 40
1.0
 40
1.0
 10
240.2605240883814
 20
68.10880814656002
 30
0.0
 10
240.2652039062345
 20
68.43612713374577
 30
0.0
 10
240.2741409286963
 20
69.0612064065815
 30
0.0
 10
240.2748857032635
 20
69.9276069716948
 30
0.0
 10
240.2678393727979
 20
70.78578004065463
 30
0.0
 10
240.2516428621613
 20
71.59520714246705
 30
0.0
 10
240.2271172627749
 20
72.32681841027487
 30
0.0
 10
240.1993994732864
 20
72.92266696004552
 30
0.0
 10
240.1658247655363
 20
73.46859394444093
 30
0.0
 10
240.1228117246214
 20
74.01137471216083
 30
0.0
 10
240.0646143487187
 20
74.56297750015662
 30
0.0
 10
239.9966752518544
 20
75.06192422094898
 30
0.0
 10
239.884043918826
 20
75.6154463750385
 30
0.0
 10
239.6912472646522
 20
76.23042276249676
 30
0.0
 10
239.3536440273094
 20
76.91478636569597
 30
0.0
 10
238.8198133668357
 20
77.62082853409619
 30
0.0
 10
238.1686717465489
 20
78.18077923817071
 30
0.0
 10
237.4916902016656
 20
78.56875250997379
 30
0.0
 10
236.8915209925674
 20
78.80709687828221
 30
0.0
 10
236.237011380308
 20
78.96801213784249
 30
0.0
 10
235.7824619438179
 20
78.99015694296281
 30
0.0
 10
235.5527968207232
 20
79.0013458016118
 30
0.0
  0
SPLINE
  5
D6
330
1F
100
AcDbEntity
  8
0
  6
Continuous
 62
     7
370
    25
100
AcDbSpline
210
0.0
220
0.0
230
1.0
 70
     8
 71
     3
 72
    29
 73
    25
 74
     0
 42
0.00000001
 43
0.00000001
 40
0.0
 40
0.0
 40
0.0
 40
0.0
 40
0.1249999999999993
 40
0.1249999999999993
 40
0.1874999999999988
 40
0.1874999999999988
 40
0.2499999999999983
 40
0.2499999999999983
 40
0.3749999999999973
 40
0.3749999999999973
 40
0.4374999999999968
 40
0.4374999999999968
 40
0.4999999999999963
 40
0.4999999999999963
 40
0.6249999999999962
 40
0.6249999999999962
 40
0.6874999999999969
 40
0.6874999999999969
 40
0.7499999999999974
 40
0.8124999999999981
 40
0.8124999999999981
 40
0.8749999999999988
 40
0.8749999999999988
 40
1.0
 40
1.0
 40
1.0
 40
1.0
 10
232.2204785301649
 20
68.10880814656002
 30
0.0
 10
232.2204785301649
 20
68.84293115384283
 30
0.0
 10
232.216678830335
 20
69.56476283193547
 30
0.0
 10
232.2054490813989
 20
70.62982957925784
 30
0.0
 10
232.2007760579621
 20
70.98188309210643
 30
0.0
 10
232.1895014386386
 20
71.67991729380032
 30
0.0
 10
232.1828682386962
 20
72.02680670504908
 30
0.0
 10
232.1604271332626
 20
73.03577819416104
 30
0.0
 10
232.1420114118318
 20
73.67379032243751
 30
0.0
 10
232.1089811921061
 20
74.57933207683284
 30
0.0
 10
232.0970159601489
 20
74.87356560629982
 30
0.0
 10
232.0713569510771
 20
75.43943542751522
 30
0.0
 10
232.0577802744364
 20
75.70871794879666
 30
0.0
 10
232.0147997490087
 20
76.47689108771503
 30
0.0
 10
231.983166865734
 20
76.93648184426675
 30
0.0
 10
231.9308336820659
 20
77.54522948375607
 30
0.0
 10
231.9125812026041
 20
77.73414962053563
 30
0.0
 10
231.8751918885307
 20
78.07660770794274
 30
0.0
 10
231.8367274743912
 20
78.38603113411531
 30
0.0
 10
231.7960698276767
 20
78.63038955976499
 30
0.0
 10
231.7542700657243
 20
78.8417783320138
 30
0.0
 10
231.7327008192935
 20
78.93127712932433
 30
0.0
 10
231.6669523428879
 20
79.14584130351271
 30
0.0
 10
231.6219452231028
 20
79.21761629311978
 30
0.0
 10
231.5757233067647
 20
79.21761629311978
 30
0.0
  0
LINE
  5
D7
330
1F
100
AcDbEntity
  8
0
  6
Continuous
 62
     7
370
    25
100
AcDbLine
 10
231.5757233068
 20
79.2176162931
 30
0.0
 11
235.4715100704
 21
79.2176162931
 31
0.0
  0
SPLINE
  5
D8
330
1F
100
AcDbEntity
  8
0
  6
Continuous
 62
     7
370
    25
100
AcDbSpline
210
0.0
220
0.0
230
1.0
 70
     8
 71
     3
 72
     9
 73
     5
 74
     0
 42
0.00000001
 43
0.00000001
 40
0.0
 40
0.0
 40
0.0
 40
0.0
 40
0.3982590053537233
 40
0.9999999999999999
 40
0.9999999999999999
 40
0.9999999999999999
 40
0.9999999999999999
 10
235.5520466029459
 20
35.01215663433156
 30
0.0
 10
235.5416096096394
 20
34.95493623729998
 30
0.0
 10
235.5154030627285
 20
34.81125989536575
 30
0.0
 10
235.4879997606355
 20
34.79323189422102
 30
0.0
 10
235.4715100703774
 20
34.78238370688071
 30
0.0
  0
LINE
  5
D9
330
1F
100
AcDbEntity
  8
0
  6
Continuous
 62
     7
370
    25
100
AcDbLine
 10
231.5757233068
 20
34.7823837069
 30
0.0
 11
235.4715100704
 21
34.7823837069
 31
0.0
  0
SPLINE
  5
DA
330
1F
100
AcDbEntity
  8
0
  6
Continuous
 62
     7
370
    25
100
AcDbSpline
210
0.0
220
0.0
230
1.0
 70
     8
 71
     3
 72
    29
 73
    25
 74
     0
 42
0.00000001
 43
0.00000001
 40
0.0
 40
0.0
 40
0.0
 40
0.0
 40
0.125000000000001
 40
0.125000000000001
 40
0.1875000000000013
 40
0.1875000000000013
 40
0.2500000000000017
 40
0.2500000000000017
 40
0.3750000000000024
 40
0.3750000000000024
 40
0.4375000000000025
 40
0.4375000000000025
 40
0.5000000000000026
 40
0.5000000000000026
 40
0.6250000000000027
 40
0.6250000000000027
 40
0.6875000000000022
 40
0.6875000000000022
 40
0.7500000000000018
 40
0.8125000000000014
 40
0.8125000000000014
 40
0.875000000000001
 40
0.875000000000001
 40
1.0
 40
1.0
 40
1.0
 40
1.0
 10
232.2204785301649
 20
45.89119185344048
 30
0.0
 10
232.2204785301649
 20
45.15706884615767
 30
0.0
 10
232.216678830335
 20
44.43523716806504
 30
0.0
 10
232.2054490813989
 20
43.37017042074268
 30
0.0
 10
232.2007760579621
 20
43.01811690789408
 30
0.0
 10
232.1895014386386
 20
42.32008270620019
 30
0.0
 10
232.1828682386962
 20
41.97319329495141
 30
0.0
 10
232.1604271332626
 20
40.96422180583946
 30
0.0
 10
232.1420114118318
 20
40.32620967756299
 30
0.0
 10
232.1089811921061
 20
39.42066792316767
 30
0.0
 10
232.0970159601489
 20
39.12643439370071
 30
0.0
 10
232.0713569510771
 20
38.5605645724853
 30
0.0
 10
232.0577802744364
 20
38.29128205120386
 30
0.0
 10
232.0147997490087
 20
37.52310891228548
 30
0.0
 10
231.983166865734
 20
37.06351815573376
 30
0.0
 10
231.9308336820659
 20
36.45477051624443
 30
0.0
 10
231.9125812026041
 20
36.26585037946489
 30
0.0
 10
231.8751918885307
 20
35.92339229205776
 30
0.0
 10
231.8367274743912
 20
35.61396886588521
 30
0.0
 10
231.7960698276767
 20
35.36961044023552
 30
0.0
 10
231.7542700657243
 20
35.15822166798669
 30
0.0
 10
231.7327008192935
 20
35.0687228706762
 30
0.0
 10
231.6669523428879
 20
34.85415869648782
 30
0.0
 10
231.6219452231028
 20
34.78238370688072
 30
0.0
 10
231.5757233067647
 20
34.78238370688072
 30
0.0
  0
LINE
  5
DB
330
1F
100
AcDbEntity
  8
0
  6
Continuous
 62
     7
370
    25
100
AcDbLine
 10
232.2204785302
 20
68.1088081466
 30
0.0
 11
232.2204785302
 21
45.8911918534
 31
0.0
  0
SPLINE
  5
DC
330
1F
100
AcDbEntity
  8
0
  6
Continuous
 62
     7
370
    25
100
AcDbSpline
210
0.0
220
0.0
230
1.0
 70
     8
 71
     3
 72
    11
 73
     7
 74
     0
 42
0.00000001
 43
0.00000001
 40
0.0
 40
0.0
 40
0.0
 40
0.0
 40
0.1139412317913766
 40
0.4091713246925378
 40
0.7042303320638083
 40
1.0
 40
1.0
 40
1.0
 40
1.0
 10
240.1932240612114
 20
41.2251900277668
 30
0.0
 10
240.2018296870191
 20
41.35844211714603
 30
0.0
 10
240.2327331207996
 20
41.83696014852185
 30
0.0
 10
240.2691966163014
 20
42.90297980332986
 30
0.0
 10
240.301307256105
 20
44.34800976432229
 30
0.0
 10
240.3051166676904
 20
45.37638550675398
 30
0.0
 10
240.3070236645014
 20
45.89119185344048
 30
0.0
  0
ARC
  5
DD
330
1F
100
AcDbEntity
  8
0
  6
Continuous
 62
     7
370
    25
100
AcDbCircle
 10
235.4694671247
 20
39.2162789926
 30
0.0
 40
4.433895756342173
100
AcDbArc
 50
270.0263993957
 51
329.4567591839
  0
ARC
  5
DE
330
1F
100
AcDbEntity
  8
0
  6
Continuous
 62
     7
370
    25
100
AcDbCircle
 10
235.4694269142
 20
74.7835989838
 30
0.0
 40
4.434017798686557
100
AcDbArc
 50
29.6679780044
 51
89.9730817363
  0
SPLINE
  5
DF
330
1F
100
AcDbEntity
  8
0
  6
Continuous
 62
     7
370
    25
100
AcDbSpline
210
0.0
220
0.0
230
1.0
 70
     8
 71
     3
 72
    10
 73
     6
 74
     0
 42
0.00000001
 43
0.00000001
 40
0.0
 40
0.0
 40
0.0
 40
0.0
 40
0.134014230703562
 40
0.5664863028373056
 40
1.0
 40
1.0
 40
1.0
 40
1.0
 10
240.2518523969089
 20
71.47732826790684
 30
0.0
 10
240.2570563787029
 20
71.34657324908703
 30
0.0
 10
240.2790539262099
 20
70.79386383308106
 30
0.0
 10
240.3004375703743
 20
69.64171371269663
 30
0.0
 10
240.3048265400788
 20
68.62018623984072
 30
0.0
 10
240.3070236645014
 20
68.10880814656002
 30
0.0
  0
LINE
  5
E0
330
1F
100
AcDbEntity
  8
0
  6
Continuous
 62
     7
370
    25
100
AcDbLine
 10
231.5757233068
 20
61.998963666
 30
0.0
 11
231.5757233068
 21
52.001036334
 31
0.0
  0
LINE
  5
E1
330
1F
100
AcDbEntity
  8
0
  6
Continuous
 62
     7
370
    25
100
AcDbLine
 10
223.0526457398
 20
34.7823837069
 30
0.0
 11
223.0526457431
 21
38.9481867618
 31
0.0
  0
LINE
  5
E2
330
1F
100
AcDbEntity
  8
0
  6
Continuous
 62
     7
370
    25
100
AcDbLine
 10
224.305598514
 20
52.001036334
 30
0.0
 11
224.305598514
 21
38.9481867618
 31
0.0
  0
SPLINE
  5
E3
330
1F
100
AcDbEntity
  8
0
  6
Continuous
 62
     7
370
    25
100
AcDbSpline
210
0.0
220
0.0
230
1.0
 70
    24
 71
     3
 72
    24
 73
    20
 74
     0
 42
0.00000001
 43
0.00000001
 40
0.0
 40
0.0
 40
0.0
 40
0.0
 40
0.0625
 40
0.0625
 40
0.125
 40
0.125
 40
0.2500000000000001
 40
0.2500000000000001
 40
0.5000000000000002
 40
0.5000000000000002
 40
0.6250000000000002
 40
0.6250000000000002
 40
0.7500000000000002
 40
0.7500000000000002
 40
0.8750000000000002
 40
0.8750000000000002
 40
0.9375000000000001
 40
0.9375000000000001
 40
1.0
 40
1.0
 40
1.0
 40
1.0
 10
231.5757233067648
 20
34.78238370688071
 30
0.0
 10
231.4515189922269
 20
34.78238370688071
 30
0.0
 10
231.3219868911019
 20
34.7823837068807
 30
0.0
 10
231.0533206120659
 20
34.78238370688072
 30
0.0
 10
230.9141260837591
 20
34.78238370688071
 30
0.0
 10
230.4828208973786
 20
34.78238370688071
 30
0.0
 10
230.1768736168879
 20
34.78238370688071
 30
0.0
 10
229.2122320606962
 20
34.7823837068807
 30
0.0
 10
228.5070890848175
 20
34.78238370688071
 30
0.0
 10
227.3934325907997
 20
34.78238370688071
 30
0.0
 10
227.0128195667539
 20
34.78238370688071
 30
0.0
 10
226.2381397884295
 20
34.78238370688071
 30
0.0
 10
225.8440750790506
 20
34.78238370688071
 30
0.0
 10
225.0499832489262
 20
34.7823837068807
 30
0.0
 10
224.650105747333
 20
34.78238370688071
 30
0.0
 10
224.0494780111383
 20
34.78238370688071
 30
0.0
 10
223.849241113055
 20
34.78238370688072
 30
0.0
 10
223.447969230885
 20
34.78238370688071
 30
0.0
 10
223.2477107842702
 20
34.78238370688071
 30
0.0
 10
223.0526457398444
 20
34.78238370688071
 30
0.0
  0
LINE
  5
E4
330
1F
100
AcDbEntity
  8
0
  6
Continuous
 62
     7
370
    25
100
AcDbLine
 10
224.305598514
 20
61.998963666
 30
0.0
 11
224.305598514
 21
75.0518132382
 31
0.0
  0
LINE
  5
E5
330
1F
100
AcDbEntity
  8
0
  6
Continuous
 62
     7
370
    25
100
AcDbLine
 10
223.0526457398
 20
79.2176162931
 30
0.0
 11
223.0526457431
 21
75.0518132382
 31
0.0
  0
SPLINE
  5
E6
330
1F
100
AcDbEntity
  8
0
  6
Continuous
 62
     7
370
    25
100
AcDbSpline
210
0.0
220
0.0
230
1.0
 70
    24
 71
     3
 72
    24
 73
    20
 74
     0
 42
0.00000001
 43
0.00000001
 40
0.0
 40
0.0
 40
0.0
 40
0.0
 40
0.0625
 40
0.0625
 40
0.125
 40
0.125
 40
0.2500000000000001
 40
0.2500000000000001
 40
0.5000000000000002
 40
0.5000000000000002
 40
0.6250000000000002
 40
0.6250000000000002
 40
0.7500000000000002
 40
0.7500000000000002
 40
0.8750000000000002
 40
0.8750000000000002
 40
0.9375000000000001
 40
0.9375000000000001
 40
1.0
 40
1.0
 40
1.0
 40
1.0
 10
231.5757233067648
 20
79.2176162931198
 30
0.0
 10
231.4515189922269
 20
79.2176162931198
 30
0.0
 10
231.3219868911019
 20
79.2176162931198
 30
0.0
 10
231.0533206120659
 20
79.2176162931198
 30
0.0
 10
230.9141260837591
 20
79.2176162931198
 30
0.0
 10
230.4828208973786
 20
79.2176162931198
 30
0.0
 10
230.1768736168879
 20
79.2176162931198
 30
0.0
 10
229.2122320606962
 20
79.2176162931198
 30
0.0
 10
228.5070890848175
 20
79.2176162931198
 30
0.0
 10
227.3934325907997
 20
79.2176162931198
 30
0.0
 10
227.0128195667539
 20
79.2176162931198
 30
0.0
 10
226.2381397884295
 20
79.2176162931198
 30
0.0
 10
225.8440750790506
 20
79.2176162931198
 30
0.0
 10
225.0499832489262
 20
79.2176162931198
 30
0.0
 10
224.650105747333
 20
79.2176162931198
 30
0.0
 10
224.0494780111383
 20
79.2176162931198
 30
0.0
 10
223.849241113055
 20
79.2176162931198
 30
0.0
 10
223.447969230885
 20
79.2176162931198
 30
0.0
 10
223.2477107842702
 20
79.2176162931198
 30
0.0
 10
223.0526457398444
 20
79.2176162931198
 30
0.0
  0
LINE
  5
E7
330
1F
100
AcDbEntity
  8
0
  6
Continuous
 62
     7
370
    25
100
AcDbLine
 10
219.4568755071
 20
61.998963666
 30
0.0
 11
219.4568755071
 21
70.6082899795
 31
0.0
  0
LINE
  5
E8
330
1F
100
AcDbEntity
  8
0
  6
Continuous
 62
     7
370
    25
100
AcDbLine
 10
219.4568755071
 20
52.001036334
 30
0.0
 11
219.4568755071
 21
43.3917100205
 31
0.0
  0
LINE
  5
E9
330
1F
100
AcDbEntity
  8
0
  6
Continuous
 62
     7
370
    25
100
AcDbLine
 10
219.4568755071
 20
43.3917100205
 30
0.0
 11
214.521572882
 21
43.3917100205
 31
0.0
  0
LINE
  5
EA
330
1F
100
AcDbEntity
  8
0
  6
Continuous
 62
     7
370
    25
100
AcDbLine
 10
214.521572882
 20
70.6082899795
 30
0.0
 11
214.521572882
 21
43.3917100205
 31
0.0
  0
LINE
  5
EB
330
1F
100
AcDbEntity
  8
0
  6
Continuous
 62
     7
370
    25
100
AcDbLine
 10
219.4568755071
 20
70.6082899795
 30
0.0
 11
214.521572882
 21
70.6082899795
 31
0.0
  0
LINE
  5
EC
330
1F
100
AcDbEntity
  8
0
  6
Continuous
 62
     7
370
    25
100
AcDbLine
 10
219.4568755071
 20
61.998963666
 30
0.0
 11
231.5757233068
 21
61.998963666
 31
0.0
  0
LINE
  5
ED
330
1F
100
AcDbEntity
  8
0
  6
Continuous
 62
     7
370
    25
100
AcDbLine
 10
219.4568755071
 20
52.001036334
 30
0.0
 11
231.5757233068
 21
52.001036334
 31
0.0
  0
LINE
  5
EE
330
1F
100
AcDbEntity
  8
0
  6
Continuous
 62
     7
370
    25
100
AcDbLine
 10
219.4568755071
 20
75.0518132382
 30
0.0
 11
219.4568755071
 21
70.6082899795
 31
0.0
  0
LINE
  5
EF
330
1F
100
AcDbEntity
  8
0
  6
Continuous
 62
     7
370
    25
100
AcDbLine
 10
212.9025501302
 20
75.0518132382
 30
0.0
 11
214.521572882
 21
70.6082899795
 31
0.0
  0
LINE
  5
F0
330
1F
100
AcDbEntity
  8
0
  6
Continuous
 62
     7
370
    25
100
AcDbLine
 10
219.4568755071
 20
75.0518132382
 30
0.0
 11
212.9025501302
 21
75.0518132382
 31
0.0
  0
LINE
  5
F1
330
1F
100
AcDbEntity
  8
0
  6
Continuous
 62
     7
370
    25
100
AcDbLine
 10
212.9025501302
 20
38.9481867618
 30
0.0
 11
214.521572882
 21
43.3917100205
 31
0.0
  0
LINE
  5
F2
330
1F
100
AcDbEntity
  8
0
  6
Continuous
 62
     7
370
    25
100
AcDbLine
 10
219.4568755071
 20
38.9481867618
 30
0.0
 11
219.4568755071
 21
43.3917100205
 31
0.0
  0
LINE
  5
F3
330
1F
100
AcDbEntity
  8
0
  6
Continuous
 62
     7
370
    25
100
AcDbLine
 10
219.4568755071
 20
38.9481867618
 30
0.0
 11
212.9025501302
 21
38.9481867618
 31
0.0
  0
LINE
  5
F4
330
1F
100
AcDbEntity
  8
0
  6
Continuous
 62
     7
370
    25
100
AcDbLine
 10
212.1182074377
 20
70.6082899795
 30
0.0
 11
212.9025501302
 21
75.0518132382
 31
0.0
  0
LINE
  5
F5
330
1F
100
AcDbEntity
  8
0
  6
Continuous
 62
     7
370
    25
100
AcDbLine
 10
212.1182074377
 20
43.3917100205
 30
0.0
 11
212.9025501302
 21
38.9481867618
 31
0.0
  0
LINE
  5
F6
330
1F
100
AcDbEntity
  8
0
  6
Continuous
 62
     7
370
    25
100
AcDbLine
 10
211.1252693972
 20
40.6665208455
 30
0.0
 11
212.1182074377
 21
43.3917100205
 31
0.0
  0
LINE
  5
F7
330
1F
100
AcDbEntity
  8
0
  6
Continuous
 62
     7
370
    25
100
AcDbLine
 10
211.1252693972
 20
40.6665208455
 30
0.0
 11
211.1252693972
 21
73.3334791545
 31
0.0
  0
LINE
  5
F8
330
1F
100
AcDbEntity
  8
0
  6
Continuous
 62
     7
370
    25
100
AcDbLine
 10
211.1252693972
 20
73.3334791545
 30
0.0
 11
212.1182074377
 21
70.6082899795
 31
0.0
  0
LINE
  5
F9
330
1F
100
AcDbEntity
  8
0
  6
Continuous
 62
     7
370
    25
100
AcDbLine
 10
212.9025501302
 20
38.9481867618
 30
0.0
 11
211.1252693972
 21
38.9481867618
 31
0.0
  0
LINE
  5
FA
330
1F
100
AcDbEntity
  8
0
  6
Continuous
 62
     7
370
    25
100
AcDbLine
 10
211.1252693972
 20
38.9481867618
 30
0.0
 11
211.1252693972
 21
40.6665208455
 31
0.0
  0
LINE
  5
FB
330
1F
100
AcDbEntity
  8
0
  6
Continuous
 62
     7
370
    25
100
AcDbLine
 10
212.9025501302
 20
75.0518132382
 30
0.0
 11
211.1252693972
 21
75.0518132382
 31
0.0
  0
LINE
  5
FC
330
1F
100
AcDbEntity
  8
0
  6
Continuous
 62
     7
370
    25
100
AcDbLine
 10
211.1252693972
 20
75.0518132382
 30
0.0
 11
211.1252693972
 21
73.3334791545
 31
0.0
  0
LINE
  5
FD
330
1F
100
AcDbEntity
  8
0
  6
Continuous
 62
     7
370
    25
100
AcDbLine
 10
224.305598514
 20
38.9481867618
 30
0.0
 11
219.4568755071
 21
38.9481867618
 31
0.0
  0
LINE
  5
FE
330
1F
100
AcDbEntity
  8
0
  6
Continuous
 62
     7
370
    25
100
AcDbLine
 10
224.305598514
 20
75.0518132382
 30
0.0
 11
219.4568755071
 21
75.0518132382
 31
0.0
  0
ARC
  5
FF
330
1F
100
AcDbEntity
  8
0
  6
Continuous
 62
     7
370
    25
100
AcDbCircle
 10
216.6796734704
 20
45.8911918534
 30
0.0
 40
11.10880814655977
100
AcDbArc
 50
180.0
 51
270.0
  0
LINE
  5
100
330
1F
100
AcDbEntity
  8
0
  6
Continuous
 62
     7
370
    25
100
AcDbLine
 10
205.5708653239
 20
68.1088081466
 30
0.0
 11
205.5708653239
 21
45.8911918534
 31
0.0
  0
ARC
  5
101
330
1F
100
AcDbEntity
  8
0
  6
Continuous
 62
     7
370
    25
100
AcDbCircle
 10
216.6796734704
 20
68.1088081466
 30
0.0
 40
11.10880814655978
100
AcDbArc
 50
90.0
 51
180.0
  0
LINE
  5
102
330
1F
100
AcDbEntity
  8
0
  6
Continuous
 62
     7
370
    25
100
AcDbLine
 10
216.6796734704
 20
34.7823837069
 30
0.0
 11
223.0526457398
 21
34.7823837069
 31
0.0
  0
LINE
  5
103
330
1F
100
AcDbEntity
  8
0
  6
Continuous
 62
     7
370
    25
100
AcDbLine
 10
216.6796734704
 20
79.2176162931
 30
0.0
 11
223.0526457398
 21
79.2176162931
 31
0.0
  0
SPLINE
  5
104
330
1F
100
AcDbEntity
  8
0
  6
HIDDEN
 62
     7
370
    18
100
AcDbSpline
210
0.0
220
0.0
230
1.0
 70
     8
 71
     3
 72
    11
 73
     7
 74
     0
 42
0.00000001
 43
0.00000001
 40
0.0
 40
0.0
 40
0.0
 40
0.0
 40
0.2795527153009117
 40
0.5569946365472936
 40
0.8349104897721904
 40
1.0
 40
1.0
 40
1.0
 40
1.0
 10
239.9062762688581
 20
39.22590696550461
 30
0.0
 10
239.9370277968573
 20
39.256883572828
 30
0.0
 10
239.9982986600029
 20
39.31860289513536
 30
0.0
 10
240.0829346473532
 20
39.82078408744044
 30
0.0
 10
240.1495641320472
 20
40.45501823158835
 30
0.0
 10
240.1813709826307
 20
41.0160988314329
 30
0.0
 10
240.1932240612114
 20
41.2251900277668
 30
0.0
  0
ARC
  5
105
330
1F
100
AcDbEntity
  8
0
  6
HIDDEN
 62
     7
370
    18
100
AcDbCircle
 10
235.4552353468
 20
39.225785362
 30
0.0
 40
4.451040923669649
100
AcDbArc
 50
338.3487039122
 51
0.0015653344
  0
ARC
  5
106
330
1F
100
AcDbEntity
  8
0
  6
HIDDEN
 62
     7
370
    18
100
AcDbCircle
 10
235.4552730656
 20
74.7742192012
 30
0.0
 40
4.45100320506576
100
AcDbArc
 50
359.9983759127
 51
22.1683491366
  0
SPLINE
  5
107
330
1F
100
AcDbEntity
  8
0
  6
HIDDEN
 62
     7
370
    18
100
AcDbSpline
210
0.0
220
0.0
230
1.0
 70
     8
 71
     3
 72
    12
 73
     8
 74
     0
 42
0.00000001
 43
0.00000001
 40
0.0
 40
0.0
 40
0.0
 40
0.0
 40
0.2128670636396751
 40
0.4241268506987879
 40
0.6357475160578051
 40
0.8469979436761177
 40
1.0
 40
1.0
 40
1.0
 40
1.0
 10
239.9062762688581
 20
74.77409303449589
 30
0.0
 10
239.9369861729487
 20
74.74249096009565
 30
0.0
 10
239.998174102563
 20
74.67952542629371
 30
0.0
 10
240.0834288425784
 20
74.18664200139403
 30
0.0
 10
240.1580978741036
 20
73.41819755807576
 30
0.0
 10
240.2163950056152
 20
72.5059671663646
 30
0.0
 10
240.2413642264677
 20
71.78159600154106
 30
0.0
 10
240.2518523969089
 20
71.47732826790684
 30
0.0
  0
LINE
  5
108
330
1F
100
AcDbEntity
  8
0
  6
HIDDEN
 62
     7
370
    18
100
AcDbLine
 10
214.521572882
 20
43.3917100205
 30
0.0
 11
212.1182074377
 21
43.3917100205
 31
0.0
  0
LINE
  5
109
330
1F
100
AcDbEntity
  8
0
  6
HIDDEN
 62
     7
370
    18
100
AcDbLine
 10
214.521572882
 20
70.6082899795
 30
0.0
 11
212.1182074377
 21
70.6082899795
 31
0.0
  0
LINE
  5
10A
330
1F
100
AcDbEntity
  8
0
  6
HIDDEN
 62
     7
370
    18
100
AcDbLine
 10
212.1182074377
 20
70.6082899795
 30
0.0
 11
211.1252693972
 21
70.6082899795
 31
0.0
  0
LINE
  5
10B
330
1F
100
AcDbEntity
  8
0
  6
HIDDEN
 62
     7
370
    18
100
AcDbLine
 10
212.1182074377
 20
43.3917100205
 30
0.0
 11
211.1252693972
 21
43.3917100205
 31
0.0
  0
SPLINE
  5
10C
330
1F
100
AcDbEntity
  8
0
  6
HIDDEN
 62
     7
370
    18
100
AcDbSpline
210
0.0
220
0.0
230
1.0
 70
     8
 71
     3
 72
    14
 73
    10
 74
     0
 42
0.00000001
 43
0.00000001
 40
0.0
 40
0.0
 40
0.0
 40
0.0
 40
0.25
 40
0.25
 40
0.5
 40
0.5
 40
0.75
 40
0.75
 40
1.0
 40
1.0
 40
1.0
 40
1.0
 10
223.8609248313345
 20
79.2176162931198
 30
0.0
 10
224.3237918374409
 20
79.2176162931198
 30
0.0
 10
224.8231674428667
 20
79.1579654959425
 30
0.0
 10
225.7901079684164
 20
78.88728294372635
 30
0.0
 10
226.2546752849646
 20
78.6753338639153
 30
0.0
 10
227.0215784509819
 20
78.1330514347108
 30
0.0
 10
227.3213197141831
 20
77.80455273486176
 30
0.0
 10
227.7041226506247
 20
77.1208225322412
 30
0.0
 10
227.7884816169992
 20
76.76771065528538
 30
0.0
 10
227.7884816169992
 20
76.44041425647985
 30
0.0
  0
SPLINE
  5
10D
330
1F
100
AcDbEntity
  8
0
  6
HIDDEN
 62
     7
370
    18
100
AcDbSpline
210
0.0
220
0.0
230
1.0
 70
     8
 71
     3
 72
    14
 73
    10
 74
     0
 42
0.00000001
 43
0.00000001
 40
0.0
 40
0.0
 40
0.0
 40
0.0
 40
0.2499999999999999
 40
0.2499999999999999
 40
0.4999999999999998
 40
0.4999999999999998
 40
0.7499999999999999
 40
0.7499999999999999
 40
1.0
 40
1.0
 40
1.0
 40
1.0
 10
227.7884816169992
 20
37.55958574352066
 30
0.0
 10
227.7884816169992
 20
37.23228934471512
 30
0.0
 10
227.7041226506247
 20
36.87917746775932
 30
0.0
 10
227.3213197141831
 20
36.19544726513875
 30
0.0
 10
227.0215784509819
 20
35.8669485652897
 30
0.0
 10
226.2546752849646
 20
35.32466613608521
 30
0.0
 10
225.7901079684164
 20
35.11271705627416
 30
0.0
 10
224.8231674428667
 20
34.842034504058
 30
0.0
 10
224.3237918374409
 20
34.78238370688071
 30
0.0
 10
223.8609248313345
 20
34.78238370688071
 30
0.0
  0
LINE
  5
10E
330
1F
100
AcDbEntity
  8
0
  6
HIDDEN
 62
     7
370
    18
100
AcDbLine
 10
227.788481617
 20
76.4404142565
 30
0.0
 11
227.788481617
 21
37.5595857435
 31
0.0
  0
ENDSEC
  0
SECTION
  2
OBJECTS
  0
DICTIONARY
  5
C
330
0
100
AcDbDictionary
281
     1
  3
ACAD_GROUP
350
D
  3
ACAD_LAYOUT
350
1A
  3
ACAD_MLINESTYLE
350
17
  3
ACAD_PLOTSETTINGS
350
19
  3
ACAD_PLOTSTYLENAME
350
E
  3
ACAD_SCALELIST
350
47
  3
DWGPROPS
350
10F
  0
DICTIONARY
  5
D
102
{ACAD_REACTORS
330
C
102
}
330
C
100
AcDbDictionary
281
     1
  0
DICTIONARY
  5
1A
102
{ACAD_REACTORS
330
C
102
}
330
C
100
AcDbDictionary
281
     1
  3
Layout1
350
1E
  3
Layout2
350
26
  3
Model
350
22
  0
DICTIONARY
  5
17
102
{ACAD_REACTORS
330
C
102
}
330
C
100
AcDbDictionary
281
     1
  3
Standard
350
18
  0
DICTIONARY
  5
19
102
{ACAD_REACTORS
330
C
102
}
330
C
100
AcDbDictionary
281
     1
  0
ACDBDICTIONARYWDFLT
  5
E
102
{ACAD_REACTORS
330
C
102
}
330
C
100
AcDbDictionary
281
     1
  3
Normal
350
F
100
AcDbDictionaryWithDefault
340
F
  0
DICTIONARY
  5
47
102
{ACAD_REACTORS
330
C
102
}
330
C
100
AcDbDictionary
281
     1
  3
A0
350
48
  3
A1
350
49
  3
A2
350
4A
  3
A3
350
4B
  3
A4
350
4C
  3
A5
350
4D
  3
A6
350
4E
  3
A7
350
4F
  3
A8
350
50
  3
A9
350
51
  3
B0
350
52
  3
B1
350
53
  3
B2
350
54
  3
B3
350
55
  3
B4
350
56
  3
B5
350
57
  3
B6
350
58
  0
XRECORD
  5
10F
102
{ACAD_REACTORS
330
C
102
}
330
C
100
AcDbXrecord
280
     1
  1
DWGPROPS COOKIE
  2

  3

  4

  6

  7

  8

  9

300
=
301
=
302
=
303
=
304
=
305
=
306
=
307
=
308
=
309
=
 40
0.0
 41
2461213.426810313
 42
2461213.426810486
  1

 90
        0
  0
LAYOUT
  5
1E
102
{ACAD_REACTORS
330
1A
102
}
330
1A
100
AcDbPlotSettings
  1

  2
none_device
  4

  6

 40
0.0
 41
0.0
 42
0.0
 43
0.0
 44
0.0
 45
0.0
 46
0.0
 47
0.0
 48
0.0
 49
0.0
140
0.0
141
0.0
142
1.0
143
1.0
 70
   688
 72
     1
 73
     0
 74
     5
  7

 75
    16
147
1.0
148
0.0
149
0.0
100
AcDbLayout
  1
Layout1
 70
     1
 71
     1
 10
0.0
 20
0.0
 11
420.0
 21
297.0
 12
0.0
 22
0.0
 32
0.0
 14
1.0000000000E+20
 24
1.0000000000E+20
 34
1.0000000000E+20
 15
-1.0000000000E+20
 25
-1.0000000000E+20
 35
-1.0000000000E+20
146
0.0
 13
0.0
 23
0.0
 33
0.0
 16
1.0
 26
0.0
 36
0.0
 17
0.0
 27
1.0
 37
0.0
 76
     0
330
1B
  0
LAYOUT
  5
26
102
{ACAD_REACTORS
330
1A
102
}
330
1A
100
AcDbPlotSettings
  1

  2
none_device
  4

  6

 40
0.0
 41
0.0
 42
0.0
 43
0.0
 44
0.0
 45
0.0
 46
0.0
 47
0.0
 48
0.0
 49
0.0
140
0.0
141
0.0
142
1.0
143
1.0
 70
   688
 72
     1
 73
     0
 74
     5
  7

 75
    16
147
1.0
148
0.0
149
0.0
100
AcDbLayout
  1
Layout2
 70
     1
 71
     2
 10
0.0
 20
0.0
 11
0.0
 21
0.0
 12
0.0
 22
0.0
 32
0.0
 14
0.0
 24
0.0
 34
0.0
 15
0.0
 25
0.0
 35
0.0
146
0.0
 13
0.0
 23
0.0
 33
0.0
 16
1.0
 26
0.0
 36
0.0
 17
0.0
 27
1.0
 37
0.0
 76
     0
330
23
  0
LAYOUT
  5
22
102
{ACAD_REACTORS
330
1A
102
}
330
1A
100
AcDbPlotSettings
  1

  2
none_device
  4
Letter_(8.50_x_11.00_Inches)
  6

 40
6.35
 41
6.35
 42
6.35000508
 43
6.35000508
 44
215.9
 45
279.4
 46
0.0
 47
0.0
 48
0.0
 49
0.0
140
0.0
141
0.0
142
1.0
143
1.0
 70
  1712
 72
     1
 73
     0
 74
     0
  7

 75
     0
147
1.0
148
0.0
149
0.0
100
AcDbLayout
  1
Model
 70
     1
 71
     0
 10
0.0
 20
0.0
 11
297.0
 21
210.0
 12
0.0
 22
0.0
 32
0.0
 14
0.0
 24
0.0
 34
0.0
 15
297.0
 25
210.0
 35
0.0
146
0.0
 13
0.0
 23
0.0
 33
0.0
 16
1.0
 26
0.0
 36
0.0
 17
0.0
 27
1.0
 37
0.0
 76
     0
330
1F
331
29
  0
MLINESTYLE
  5
18
102
{ACAD_REACTORS
330
17
102
}
330
17
100
AcDbMlineStyle
  2
Standard
 70
     0
  3

 62
   256
 51
90.0
 52
90.0
 71
     2
 49
0.5
 62
   256
  6
BYLAYER
 49
-0.5
 62
   256
  6
BYLAYER
  0
ACDBPLACEHOLDER
  5
F
102
{ACAD_REACTORS
330
E
102
}
330
E
  0
SCALE
  5
48
102
{ACAD_REACTORS
330
47
102
}
330
47
100
AcDbScale
 70
     0
300
1:1
140
1.0
141
1.0
290
     1
  0
SCALE
  5
49
102
{ACAD_REACTORS
330
47
102
}
330
47
100
AcDbScale
 70
     0
300
1:2
140
1.0
141
2.0
290
     0
  0
SCALE
  5
4A
102
{ACAD_REACTORS
330
47
102
}
330
47
100
AcDbScale
 70
     0
300
1:4
140
1.0
141
4.0
290
     0
  0
SCALE
  5
4B
102
{ACAD_REACTORS
330
47
102
}
330
47
100
AcDbScale
 70
     0
300
1:5
140
1.0
141
5.0
290
     0
  0
SCALE
  5
4C
102
{ACAD_REACTORS
330
47
102
}
330
47
100
AcDbScale
 70
     0
300
1:8
140
1.0
141
8.0
290
     0
  0
SCALE
  5
4D
102
{ACAD_REACTORS
330
47
102
}
330
47
100
AcDbScale
 70
     0
300
1:10
140
1.0
141
10.0
290
     0
  0
SCALE
  5
4E
102
{ACAD_REACTORS
330
47
102
}
330
47
100
AcDbScale
 70
     0
300
1:16
140
1.0
141
16.0
290
     0
  0
SCALE
  5
4F
102
{ACAD_REACTORS
330
47
102
}
330
47
100
AcDbScale
 70
     0
300
1:20
140
1.0
141
20.0
290
     0
  0
SCALE
  5
50
102
{ACAD_REACTORS
330
47
102
}
330
47
100
AcDbScale
 70
     0
300
1:30
140
1.0
141
30.0
290
     0
  0
SCALE
  5
51
102
{ACAD_REACTORS
330
47
102
}
330
47
100
AcDbScale
 70
     0
300
1:40
140
1.0
141
40.0
290
     0
  0
SCALE
  5
52
102
{ACAD_REACTORS
330
47
102
}
330
47
100
AcDbScale
 70
     0
300
1:50
140
1.0
141
50.0
290
     0
  0
SCALE
  5
53
102
{ACAD_REACTORS
330
47
102
}
330
47
100
AcDbScale
 70
     0
300
1:100
140
1.0
141
100.0
290
     0
  0
SCALE
  5
54
102
{ACAD_REACTORS
330
47
102
}
330
47
100
AcDbScale
 70
     0
300
2:1
140
2.0
141
1.0
290
     0
  0
SCALE
  5
55
102
{ACAD_REACTORS
330
47
102
}
330
47
100
AcDbScale
 70
     0
300
4:1
140
4.0
141
1.0
290
     0
  0
SCALE
  5
56
102
{ACAD_REACTORS
330
47
102
}
330
47
100
AcDbScale
 70
     0
300
8:1
140
8.0
141
1.0
290
     0
  0
SCALE
  5
57
102
{ACAD_REACTORS
330
47
102
}
330
47
100
AcDbScale
 70
     0
300
10:1
140
10.0
141
1.0
290
     0
  0
SCALE
  5
58
102
{ACAD_REACTORS
330
47
102
}
330
47
100
AcDbScale
 70
     0
300
100:1
140
100.0
141
1.0
290
     0
  0
ENDSEC
  0
EOF
