  0
SECTION
  2
HEADER
  9
$ACADVER
  1
AC1015
  9
$ACADMAINTVER
 70
     6
  9
$DWGCODEPAGE
  3
ANSI_936
  9
$INSBASE
 10
0.0
 20
0.0
 30
0.0
  9
$EXTMIN
 10
0.0
 20
0.0
 30
0.0
  9
$EXTMAX
 10
297.0
 20
210.0
 30
0.0
  9
$LIMMIN
 10
0.0
 20
0.0
  9
$LIMMAX
 10
297.0
 20
210.0
  9
$ORTHOMODE
 70
     0
  9
$REGENMODE
 70
     1
  9
$FILLMODE
 70
     1
  9
$QTEXTMODE
 70
     0
  9
$MIRRTEXT
 70
     1
  9
$LTSCALE
 40
1.0
  9
$ATTMODE
 70
     1
  9
$TEXTSIZE
 40
3.5
  9
$TRACEWID
 40
1.0
  9
$TEXTSTYLE
  7
Standard
  9
$CLAYER
  8
0
  9
$CELTYPE
  6
ByLayer
  9
$CECOLOR
 62
   256
  9
$CELTSCALE
 40
1.0
  9
$DISPSILH
 70
     0
  9
$DIMSCALE
 40
1.0
  9
$DIMASZ
 40
4.08
  9
$DIMEXO
 40
0.0
  9
$DIMDLI
 40
3.75
  9
$DIMRND
 40
0.0
  9
$DIMDLE
 40
0.0
  9
$DIMEXE
 40
2.0
  9
$DIMTP
 40
0.0
  9
$DIMTM
 40
0.0
  9
$DIMTXT
 40
3.5
  9
$DIMCEN
 40
2.5
  9
$DIMTSZ
 40
0.0
  9
$DIMTOL
 70
     0
  9
$DIMLIM
 70
     0
  9
$DIMTIH
 70
     1
  9
$DIMTOH
 70
     1
  9
$DIMSE1
 70
     0
  9
$DIMSE2
 70
     0
  9
$DIMTAD
 70
     1
  9
$DIMZIN
 70
     0
  9
$DIMBLK
  1

  9
$DIMASO
 70
     1
  9
$DIMSHO
 70
     1
  9
$DIMPOST
  1

  9
$DIMAPOST
  1

  9
$DIMALT
 70
     0
  9
$DIMALTD
 70
     3
  9
$DIMALTF
 40
0.0393700787
  9
$DIMLFAC
 40
2.0
  9
$DIMTOFL
 70
     1
  9
$DIMTVP
 40
0.0
  9
$DIMTIX
 70
     0
  9
$DIMSOXD
 70
     0
  9
$DIMSAH
 70
     0
  9
$DIMBLK1
  1

  9
$DIMBLK2
  1

  9
$DIMSTYLE
  2
ISO-25
  9
$DIMCLRD
 70
     0
  9
$DIMCLRE
 70
     0
  9
$DIMCLRT
 70
     0
  9
$DIMTFAC
 40
1.0
  9
$DIMGAP
 40
1.524
  9
$DIMJUST
 70
     0
  9
$DIMSD1
 70
     0
  9
$DIMSD2
 70
     0
  9
$DIMTOLJ
 70
     0
  9
$DIMTZIN
 70
     0
  9
$DIMALTZ
 70
     0
  9
$DIMALTTZ
 70
     0
  9
$DIMUPT
 70
     0
  9
$DIMDEC
 70
     2
  9
$DIMTDEC
 70
     2
  9
$DIMALTU
 70
     2
  9
$DIMALTTD
 70
     3
  9
$DIMTXSTY
  7
Standard
  9
$DIMAUNIT
 70
     0
  9
$DIMADEC
 70
     2
  9
$DIMALTRND
 40
0.0
  9
$DIMAZIN
 70
     0
  9
$DIMDSEP
 70
    44
  9
$DIMATFIT
 70
     3
  9
$DIMFRAC
 70
     0
  9
$DIMLDRBLK
  1

  9
$DIMLUNIT
 70
     2
  9
$DIMLWD
 70
    -2
  9
$DIMLWE
 70
    -2
  9
$DIMTMOVE
 70
     0
  9
$LUNITS
 70
     2
  9
$LUPREC
 70
     2
  9
$SKETCHINC
 40
1.0
  9
$FILLETRAD
 40
0.0
  9
$AUNITS
 70
     0
  9
$AUPREC
 70
     2
  9
$MENU
  1
.
  9
$ELEVATION
 40
0.0
  9
$PELEVATION
 40
0.0
  9
$THICKNESS
 40
0.0
  9
$LIMCHECK
 70
     0
  9
$CHAMFERA
 40
0.0
  9
$CHAMFERB
 40
0.0
  9
$CHAMFERC
 40
0.0
  9
$CHAMFERD
 40
0.0
  9
$SKPOLY
 70
     0
  9
$TDCREATE
 40
2461214.440726378
  9
$TDUCREATE
 40
2461214.107393044
  9
$TDUPDATE
 40
2461214.440726539
  9
$TDUUPDATE
 40
2461214.107393206
  9
$TDINDWG
 40
0.0000000116
  9
$TDUSRTIMER
 40
0.0000000116
  9
$USRTIMER
 70
     1
  9
$ANGBASE
 50
0.0
  9
$ANGDIR
 70
     0
  9
$PDMODE
 70
     0
  9
$PDSIZE
 40
-1.0
  9
$PLINEWID
 40
0.0
  9
$SPLFRAME
 70
     0
  9
$SPLINETYPE
 70
     6
  9
$SPLINESEGS
 70
     8
  9
$HANDSEED
  5
123
  9
$SURFTAB1
 70
     6
  9
$SURFTAB2
 70
     6
  9
$SURFTYPE
 70
     6
  9
$SURFU
 70
     6
  9
$SURFV
 70
     6
  9
$UCSBASE
  2

  9
$UCSNAME
  2

  9
$UCSORG
 10
0.0
 20
0.0
 30
0.0
  9
$UCSXDIR
 10
1.0
 20
0.0
 30
0.0
  9
$UCSYDIR
 10
0.0
 20
1.0
 30
0.0
  9
$UCSORTHOREF
  2

  9
$UCSORTHOVIEW
 70
     0
  9
$UCSORGTOP
 10
0.0
 20
0.0
 30
0.0
  9
$UCSORGBOTTOM
 10
0.0
 20
0.0
 30
0.0
  9
$UCSORGLEFT
 10
0.0
 20
0.0
 30
0.0
  9
$UCSORGRIGHT
 10
0.0
 20
0.0
 30
0.0
  9
$UCSORGFRONT
 10
0.0
 20
0.0
 30
0.0
  9
$UCSORGBACK
 10
0.0
 20
0.0
 30
0.0
  9
$PUCSBASE
  2

  9
$PUCSNAME
  2

  9
$PUCSORG
 10
0.0
 20
0.0
 30
0.0
  9
$PUCSXDIR
 10
1.0
 20
0.0
 30
0.0
  9
$PUCSYDIR
 10
0.0
 20
1.0
 30
0.0
  9
$PUCSORTHOREF
  2

  9
$PUCSORTHOVIEW
 70
     0
  9
$PUCSORGTOP
 10
0.0
 20
0.0
 30
0.0
  9
$PUCSORGBOTTOM
 10
0.0
 20
0.0
 30
0.0
  9
$PUCSORGLEFT
 10
0.0
 20
0.0
 30
0.0
  9
$PUCSORGRIGHT
 10
0.0
 20
0.0
 30
0.0
  9
$PUCSORGFRONT
 10
0.0
 20
0.0
 30
0.0
  9
$PUCSORGBACK
 10
0.0
 20
0.0
 30
0.0
  9
$USERI1
 70
     0
  9
$USERI2
 70
     0
  9
$USERI3
 70
     0
  9
$USERI4
 70
     0
  9
$USERI5
 70
     0
  9
$USERR1
 40
0.0
  9
$USERR2
 40
0.0
  9
$USERR3
 40
0.0
  9
$USERR4
 40
0.0
  9
$USERR5
 40
0.0
  9
$WORLDVIEW
 70
     1
  9
$SHADEDGE
 70
     3
  9
$SHADEDIF
 70
    70
  9
$TILEMODE
 70
     1
  9
$MAXACTVP
 70
    64
  9
$PINSBASE
 10
0.0
 20
0.0
 30
0.0
  9
$PLIMCHECK
 70
     0
  9
$PEXTMIN
 10
1.0000000000E+20
 20
1.0000000000E+20
 30
1.0000000000E+20
  9
$PEXTMAX
 10
-1.0000000000E+20
 20
-1.0000000000E+20
 30
-1.0000000000E+20
  9
$PLIMMIN
 10
0.0
 20
0.0
  9
$PLIMMAX
 10
420.0
 20
297.0
  9
$UNITMODE
 70
     0
  9
$VISRETAIN
 70
     1
  9
$PLINEGEN
 70
     0
  9
$PSLTSCALE
 70
     1
  9
$TREEDEPTH
 70
  3020
  9
$CMLSTYLE
  2
Standard
  9
$CMLJUST
 70
     0
  9
$CMLSCALE
 40
20.0
  9
$PROXYGRAPHICS
 70
     1
  9
$MEASUREMENT
 70
     1
  9
$CELWEIGHT
370
    -1
  9
$ENDCAPS
280
     0
  9
$JOINSTYLE
280
     0
  9
$LWDISPLAY
290
     1
  9
$INSUNITS
 70
     4
  9
$HYPERLINKBASE
  1

  9
$STYLESHEET
  1

  9
$XEDIT
290
     1
  9
$CEPSNTYPE
380
     0
  9
$PSTYLEMODE
290
     1
  9
$FINGERPRINTGUID
  2
{00c13949-e949-41a8-8e51-aa563cf3735f}
  9
$VERSIONGUID
  2
{FAEB1C32-E019-11D5-929B-00C0DF256EC4}
  9
$EXTNAMES
290
     1
  9
$PSVPSCALE
 40
0.0
  9
$OLESTARTUP
290
     0
  0
ENDSEC
  0
SECTION
  2
CLASSES
  0
CLASS
  1
ACDBDICTIONARYWDFLT
  2
AcDbDictionaryWithDefault
  3
ObjectDBX Classes
 90
        0
280
     0
281
     0
  0
CLASS
  1
VISUALSTYLE
  2
AcDbVisualStyle
  3
ObjectDBX Classes
 90
     4095
280
     0
281
     0
  0
CLASS
  1
MATERIAL
  2
AcDbMaterial
  3
ObjectDBX Classes
 90
     1153
280
     0
281
     0
  0
CLASS
  1
SCALE
  2
AcDbScale
  3
ObjectDBX Classes
 90
     1153
280
     0
281
     0
  0
CLASS
  1
TABLESTYLE
  2
AcDbTableStyle
  3
ObjectDBX Classes
 90
     4095
280
     0
281
     0
  0
CLASS
  1
MLEADERSTYLE
  2
AcDbMLeaderStyle
  3
ACDB_MLEADERSTYLE_CLASS
 90
     4095
280
     0
281
     0
  0
CLASS
  1
SUN
  2
AcDbSun
  3
SCENEOE
 90
     1153
280
     0
281
     0
  0
CLASS
  1
ACDBPLACEHOLDER
  2
AcDbPlaceHolder
  3
ObjectDBX Classes
 90
        0
280
     0
281
     0
  0
CLASS
  1
LAYOUT
  2
AcDbLayout
  3
ObjectDBX Classes
 90
        0
280
     0
281
     0
  0
ENDSEC
  0
SECTION
  2
TABLES
  0
TABLE
  2
VPORT
  5
8
330
0
100
AcDbSymbolTable
 70
     1
  0
VPORT
  5
29
330
8
100
AcDbSymbolTableRecord
100
AcDbViewportTableRecord
  2
*Active
 70
     0
 10
0.0
 20
0.0
 11
1.0
 21
1.0
 12
148.5
 22
105.0
 13
0.0
 23
0.0
 14
10.0
 24
10.0
 15
10.0
 25
10.0
 16
0.0
 26
0.0
 36
1.0
 17
0.0
 27
0.0
 37
0.0
 40
210.0
 41
1.4142857143
 42
50.0
 43
0.0
 44
0.0
 50
0.0
 51
0.0
 71
     0
 72
  2000
 73
     1
 74
     3
 75
     0
 76
     0
 77
     0
 78
     0
281
     0
 65
     1
110
0.0
120
0.0
130
0.0
111
1.0
121
0.0
131
0.0
112
0.0
122
1.0
132
0.0
 79
     0
146
0.0
  0
ENDTAB
  0
TABLE
  2
LTYPE
  5
5
330
0
100
AcDbSymbolTable
 70
     6
  0
LTYPE
  5
14
330
5
100
AcDbSymbolTableRecord
100
AcDbLinetypeTableRecord
  2
ByBlock
 70
     0
  3

 72
    65
 73
     0
 40
0.0
  0
LTYPE
  5
15
330
5
100
AcDbSymbolTableRecord
100
AcDbLinetypeTableRecord
  2
ByLayer
 70
     0
  3

 72
    65
 73
     0
 40
0.0
  0
LTYPE
  5
16
330
5
100
AcDbSymbolTableRecord
100
AcDbLinetypeTableRecord
  2
Continuous
 70
     0
  3
Solid line
 72
    65
 73
     0
 40
0.0
  0
LTYPE
  5
5E
330
5
100
AcDbSymbolTableRecord
100
AcDbLinetypeTableRecord
  2
HIDDEN
 70
     0
  3
Hidden __ __ __ __ __ __ __ __ __ __ __ __ __ __
 72
    65
 73
     2
 40
1.905
 49
1.27
 74
     0
 49
-0.635
 74
     0
  0
LTYPE
  5
5F
330
5
100
AcDbSymbolTableRecord
100
AcDbLinetypeTableRecord
  2
PHANTOM
 70
     0
  3
Phantom ______  __  __  ______  __  __  ______
 72
    65
 73
     6
 40
12.7
 49
6.35
 74
     0
 49
-1.27
 74
     0
 49
1.27
 74
     0
 49
-1.27
 74
     0
 49
1.27
 74
     0
 49
-1.27
 74
     0
  0
LTYPE
  5
60
330
5
100
AcDbSymbolTableRecord
100
AcDbLinetypeTableRecord
  2
CENTER
 70
     0
  3
Center ____ _ ____ _ ____ _ ____ _ ____ _ ____
 72
    65
 73
     4
 40
10.16
 49
6.35
 74
     0
 49
-1.27
 74
     0
 49
1.27
 74
     0
 49
-1.27
 74
     0
  0
LTYPE
  5
61
330
5
100
AcDbSymbolTableRecord
100
AcDbLinetypeTableRecord
  2
CENTERX2
 70
     0
  3
Center (2x) ________  __  ________  __  _____
 72
    65
 73
     4
 40
20.32
 49
12.7
 74
     0
 49
-2.54
 74
     0
 49
2.54
 74
     0
 49
-2.54
 74
     0
  0
LTYPE
  5
62
330
5
100
AcDbSymbolTableRecord
100
AcDbLinetypeTableRecord
  2
DOT2
 70
     0
  3
Dot (.5x) ........................................
 72
    65
 73
     2
 40
0.635
 49
0.0
 74
     0
 49
-0.635
 74
     0
  0
ENDTAB
  0
TABLE
  2
LAYER
  5
2
330
0
100
AcDbSymbolTable
 70
    14
  0
LAYER
  5
10
330
2
100
AcDbSymbolTableRecord
100
AcDbLayerTableRecord
  2
0
 70
     0
 62
     7
  6
Continuous
370
    -3
390
F
  0
LAYER
  5
63
330
2
100
AcDbSymbolTableRecord
100
AcDbLayerTableRecord
  2
SLD-0
 70
     0
 62
     7
  6
Continuous
370
    -3
390
F
  0
LAYER
  5
64
330
2
100
AcDbSymbolTableRecord
100
AcDbLayerTableRecord
  2
5
 70
     0
 62
     7
  6
Continuous
370
    -3
390
F
  0
LAYER
  5
65
330
2
100
AcDbSymbolTableRecord
100
AcDbLayerTableRecord
  2
9
 70
     0
 62
     7
  6
Continuous
370
    -3
390
F
  0
LAYER
  5
66
330
2
100
AcDbSymbolTableRecord
100
AcDbLayerTableRecord
  2
10
 70
     0
 62
     7
  6
Continuous
370
    -3
390
F
  0
LAYER
  5
67
330
2
100
AcDbSymbolTableRecord
100
AcDbLayerTableRecord
  2
轮廓实线层
 70
     0
 62
     7
  6
Continuous
370
    50
390
F
  0
LAYER
  5
68
330
2
100
AcDbSymbolTableRecord
100
AcDbLayerTableRecord
  2
细线层
 70
     0
 62
     4
  6
Continuous
370
    25
390
F
  0
LAYER
  5
69
330
2
100
AcDbSymbolTableRecord
100
AcDbLayerTableRecord
  2
中心线层
 70
     0
 62
     1
  6
CENTERX2
370
    25
390
F
  0
LAYER
  5
6A
330
2
100
AcDbSymbolTableRecord
100
AcDbLayerTableRecord
  2
虚线层
 70
     0
 62
     6
  6
HIDDEN
370
    25
390
F
  0
LAYER
  5
6B
330
2
100
AcDbSymbolTableRecord
100
AcDbLayerTableRecord
  2
剖面线层
 70
     0
 62
     2
  6
Continuous
370
    25
390
F
  0
LAYER
  5
6C
330
2
100
AcDbSymbolTableRecord
100
AcDbLayerTableRecord
  2
文字层
 70
     0
 62
     3
  6
Continuous
370
    25
390
F
  0
LAYER
  5
6D
330
2
100
AcDbSymbolTableRecord
100
AcDbLayerTableRecord
  2
标注层
 70
     0
 62
     4
  6
Continuous
370
    25
390
F
  0
LAYER
  5
6E
330
2
100
AcDbSymbolTableRecord
100
AcDbLayerTableRecord
  2
符号标注层
 70
     0
 62
    31
  6
Continuous
370
    25
390
F
  0
LAYER
  5
6F
330
2
100
AcDbSymbolTableRecord
100
AcDbLayerTableRecord
  2
双点划线层
 70
     0
 62
     6
  6
PHANTOM
370
    25
390
F
  0
ENDTAB
  0
TABLE
  2
STYLE
  5
3
330
0
100
AcDbSymbolTable
 70
     1
  0
STYLE
  5
11
330
3
100
AcDbSymbolTableRecord
100
AcDbTextStyleTableRecord
  2
Standard
 70
     0
 40
0.0
 41
1.0
 50
0.0
 71
     0
 42
3.5
  3
txt
  4

  0
ENDTAB
  0
TABLE
  2
VIEW
  5
6
330
0
100
AcDbSymbolTable
 70
     0
  0
ENDTAB
  0
TABLE
  2
UCS
  5
7
330
0
100
AcDbSymbolTable
 70
     0
  0
ENDTAB
  0
TABLE
  2
APPID
  5
9
330
0
100
AcDbSymbolTable
 70
     1
  0
APPID
  5
12
330
9
100
AcDbSymbolTableRecord
100
AcDbRegAppTableRecord
  2
ACAD
 70
     0
  0
ENDTAB
  0
TABLE
  2
DIMSTYLE
  5
A
330
0
100
AcDbSymbolTable
 70
     1
100
AcDbDimStyleTable
  0
DIMSTYLE
105
27
330
A
100
AcDbSymbolTableRecord
100
AcDbDimStyleTableRecord
  2
ISO-25
 70
     0
 41
2.5
 42
0.625
 43
3.75
 44
1.25
 73
     0
 74
     0
 77
     1
 78
     8
140
2.5
141
2.5
143
0.0393700787
147
0.625
171
     3
172
     1
178
     0
271
     2
272
     2
274
     3
278
    44
283
     0
284
     8
340
11
  0
ENDTAB
  0
TABLE
  2
BLOCK_RECORD
  5
1
330
0
100
AcDbSymbolTable
 70
     1
  0
BLOCK_RECORD
  5
1F
330
1
100
AcDbSymbolTableRecord
100
AcDbBlockTableRecord
  2
*Model_Space
340
22
  0
BLOCK_RECORD
  5
1B
330
1
100
AcDbSymbolTableRecord
100
AcDbBlockTableRecord
  2
*Paper_Space
340
1E
  0
BLOCK_RECORD
  5
23
330
1
100
AcDbSymbolTableRecord
100
AcDbBlockTableRecord
  2
*Paper_Space0
340
26
  0
ENDTAB
  0
ENDSEC
  0
SECTION
  2
BLOCKS
  0
BLOCK
  5
20
330
1F
100
AcDbEntity
  8
0
100
AcDbBlockBegin
  2
*Model_Space
 70
     0
 10
0.0
 20
0.0
 30
0.0
  3
*Model_Space
  1

  0
ENDBLK
  5
21
330
1F
100
AcDbEntity
  8
0
100
AcDbBlockEnd
  0
BLOCK
  5
1C
330
1B
100
AcDbEntity
 67
     1
  8
0
100
AcDbBlockBegin
  2
*Paper_Space
 70
     0
 10
0.0
 20
0.0
 30
0.0
  3
*Paper_Space
  1

  0
ENDBLK
  5
1D
330
1B
100
AcDbEntity
 67
     1
  8
0
100
AcDbBlockEnd
  0
BLOCK
  5
24
330
23
100
AcDbEntity
  8
0
100
AcDbBlockBegin
  2
*Paper_Space0
 70
     0
 10
0.0
 20
0.0
 30
0.0
  3
*Paper_Space0
  1

  0
ENDBLK
  5
25
330
23
100
AcDbEntity
  8
0
100
AcDbBlockEnd
  0
ENDSEC
  0
SECTION
  2
ENTITIES
  0
LINE
  5
70
330
1F
100
AcDbEntity
  8
0
  6
Continuous
 62
     7
370
    25
100
AcDbLine
 10
110.9246269308
 20
96.1423000637
 30
0.0
 11
110.8936920427
 21
95.8075693739
 31
0.0
  0
LINE
  5
71
330
1F
100
AcDbEntity
  8
0
  6
Continuous
 62
     7
370
    25
100
AcDbLine
 10
116.8535784564
 20
95.2528211832
 30
0.0
 11
116.8845133444
 21
95.587551873
 31
0.0
  0
LINE
  5
72
330
1F
100
AcDbEntity
  8
0
  6
Continuous
 62
     7
370
    25
100
AcDbLine
 10
50.6266774846
 20
98.8077577721
 30
0.0
 11
50.5957425966
 21
98.4730270823
 31
0.0
  0
LINE
  5
73
330
1F
100
AcDbEntity
  8
0
  6
Continuous
 62
     7
370
    25
100
AcDbLine
 10
56.5556290102
 20
97.9182788916
 30
0.0
 11
56.5865638983
 21
98.2530095814
 31
0.0
  0
LINE
  5
74
330
1F
100
AcDbEntity
  8
0
  6
Continuous
 62
     7
370
    25
100
AcDbLine
 10
66.511180598
 20
18.0856144587
 30
0.0
 11
66.48024571
 21
17.7508837689
 31
0.0
  0
LINE
  5
75
330
1F
100
AcDbEntity
  8
0
  6
Continuous
 62
     7
370
    25
100
AcDbLine
 10
72.4401321236
 20
17.1961355781
 30
0.0
 11
72.4710670117
 21
17.5308662679
 31
0.0
  0
ELLIPSE
  5
76
330
1F
100
AcDbEntity
  8
0
  6
Continuous
 62
     7
370
    25
100
AcDbEllipse
 10
113.9045701376
 20
95.8649259684
 30
0.0
 11
2.940591623090726
 21
-0.5572043674327604
 31
0.0
210
0.0
220
0.0
230
1.0
 40
0.9965171215
 41
0.0947821800649836
 42
3.236374833654763
  0
ELLIPSE
  5
77
330
1F
100
AcDbEntity
  8
0
  6
Continuous
 62
     7
370
    25
100
AcDbEllipse
 10
113.8736352495
 20
95.5301952786
 30
0.0
 11
2.940591623090725
 21
-0.5572043674327745
 31
0.0
210
0.0
220
0.0
230
1.0
 40
0.9965171215
 41
0.0
 42
6.283185307179586
  0
CIRCLE
  5
78
330
1F
100
AcDbEntity
  8
0
  6
Continuous
 62
     7
370
    25
100
AcDbCircle
 10
113.8686455159
 20
95.0082253545
 30
0.0
 40
0.9518644439714461
  0
ARC
  5
79
330
1F
100
AcDbEntity
  8
0
  6
Continuous
 62
     7
370
    25
100
AcDbCircle
 10
113.8981802438
 20
95.2118677923
 30
0.0
 40
0.9561660357778039
100
AcDbArc
 50
180.3090253114
 51
346.4480803214
  0
ELLIPSE
  5
7A
330
1F
100
AcDbEntity
  8
0
  6
Continuous
 62
     7
370
    25
100
AcDbEllipse
 10
53.6066206915
 20
98.5303836767
 30
0.0
 11
2.940591623090719
 21
-0.5572043674327745
 31
0.0
210
0.0
220
0.0
230
1.0
 40
0.9965171215
 41
0.0947821800649925
 42
3.236374833654773
  0
ELLIPSE
  5
7B
330
1F
100
AcDbEntity
  8
0
  6
Continuous
 62
     7
370
    25
100
AcDbEllipse
 10
53.5756858034
 20
98.1956529869
 30
0.0
 11
2.940591623090725
 21
-0.5572043674327887
 31
0.0
210
0.0
220
0.0
230
1.0
 40
0.9965171215
 41
0.0
 42
6.283185307179586
  0
CIRCLE
  5
7C
330
1F
100
AcDbEntity
  8
0
  6
Continuous
 62
     7
370
    25
100
AcDbCircle
 10
53.7738395347
 20
97.8606773321
 30
0.0
 40
0.9518644439714036
  0
ARC
  5
7D
330
1F
100
AcDbEntity
  8
0
  6
Continuous
 62
     7
370
    25
100
AcDbCircle
 10
53.8033742625
 20
98.0643197698
 30
0.0
 40
0.9561660357778022
100
AcDbArc
 50
180.3090253114
 51
346.4480803213
  0
LINE
  5
7E
330
1F
100
AcDbEntity
  8
0
  6
Continuous
 62
     7
370
    25
100
AcDbLine
 10
115.7457059333
 20
42.3395681883
 30
0.0
 11
119.9240578144
 21
103.2842262456
 31
0.0
  0
ARC
  5
7F
330
1F
100
AcDbEntity
  8
0
  6
Continuous
 62
     7
370
    25
100
AcDbCircle
 10
149.9067285289
 20
-55.115416188
 30
0.0
 40
103.2688212606159
100
AcDbArc
 50
109.3171609977
 51
143.0231386353
  0
LINE
  5
80
330
1F
100
AcDbEntity
  8
0
  6
Continuous
 62
     7
370
    25
100
AcDbLine
 10
46.1053921961
 20
106.2515861346
 30
0.0
 11
67.4074890394
 21
7.0
 31
0.0
  0
LINE
  5
81
330
1F
100
AcDbEntity
  8
0
  6
Continuous
 62
     7
370
    25
100
AcDbLine
 10
103.2498076961
 20
103.9739680084
 30
0.0
 11
46.1053921961
 21
106.2515861346
 31
0.0
  0
LINE
  5
82
330
1F
100
AcDbEntity
  8
0
  6
Continuous
 62
     7
370
    25
100
AcDbLine
 10
119.9240578144
 20
103.2842262456
 30
0.0
 11
103.2498076961
 21
103.9739680084
 31
0.0
  0
ELLIPSE
  5
83
330
1F
100
AcDbEntity
  8
0
  6
Continuous
 62
     7
370
    25
100
AcDbEllipse
 10
69.4911238048
 20
17.8082403633
 30
0.0
 11
2.940591623090725
 21
-0.5572043674328029
 31
0.0
210
0.0
220
0.0
230
1.0
 40
0.9965171215
 41
0.0947821800649682
 42
3.23637483365481
  0
LINE
  5
84
330
1F
100
AcDbEntity
  8
0
  6
Continuous
 62
     7
370
    25
100
AcDbLine
 10
119.9863860632
 20
104.0264761454
 30
0.0
 11
115.7709342033
 21
42.540684747
 31
0.0
  0
LINE
  5
85
330
1F
100
AcDbEntity
  8
0
  6
Continuous
 62
     7
370
    25
100
AcDbLine
 10
115.7457059333
 20
42.3395681883
 30
0.0
 11
115.7709342033
 21
42.540684747
 31
0.0
  0
LINE
  5
86
330
1F
100
AcDbEntity
  8
0
  6
Continuous
 62
     7
370
    25
100
AcDbLine
 10
119.9863860632
 20
104.0264761454
 30
0.0
 11
119.9240578144
 21
103.2842262456
 31
0.0
  0
LINE
  5
87
330
1F
100
AcDbEntity
  8
0
  6
Continuous
 62
     7
370
    25
100
AcDbLine
 10
103.2977459894
 20
104.7168131583
 30
0.0
 11
119.9863860632
 21
104.0264761454
 31
0.0
  0
LINE
  5
88
330
1F
100
AcDbEntity
  8
0
  6
Continuous
 62
     7
370
    25
100
AcDbLine
 10
46.1053921961
 20
106.2515861346
 30
0.0
 11
46.0136139368
 21
107.0
 31
0.0
  0
LINE
  5
89
330
1F
100
AcDbEntity
  8
0
  6
Continuous
 62
     7
370
    25
100
AcDbLine
 10
46.0136139368
 20
107.0
 30
0.0
 11
103.2977459894
 21
104.7168131583
 31
0.0
  0
ELLIPSE
  5
8A
330
1F
100
AcDbEntity
  8
0
  6
Continuous
 62
     7
370
    25
100
AcDbEllipse
 10
69.4601889168
 20
17.4735096735
 30
0.0
 11
2.940591623090725
 21
-0.5572043674328029
 31
0.0
210
0.0
220
0.0
230
1.0
 40
0.9965171215
 41
0.0
 42
6.283185307179586
  0
CIRCLE
  5
8B
330
1F
100
AcDbEntity
  8
0
  6
Continuous
 62
     7
370
    25
100
AcDbCircle
 10
69.5113794909
 20
17.2219876468
 30
0.0
 40
0.9518644439714604
  0
ARC
  5
8C
330
1F
100
AcDbEntity
  8
0
  6
Continuous
 62
     7
370
    25
100
AcDbCircle
 10
69.5409142187
 20
17.4256300846
 30
0.0
 40
0.9561660357778181
100
AcDbArc
 50
180.3090253114
 51
346.4480803214
  0
ELLIPSE
  5
8D
330
1F
100
AcDbEntity
  8
0
  6
HIDDEN
 62
     7
370
    18
100
AcDbEllipse
 10
113.9045701376
 20
95.8649259684
 30
0.0
 11
2.940591623090726
 21
-0.5572043674327604
 31
0.0
210
0.0
220
0.0
230
1.0
 40
0.9965171215
 41
4.856607050839997
 42
6.37796748724457
  0
ELLIPSE
  5
8E
330
1F
100
AcDbEntity
  8
0
  6
HIDDEN
 62
     7
370
    18
100
AcDbEllipse
 10
113.9045701376
 20
95.8649259684
 30
0.0
 11
2.940591623090726
 21
-0.5572043674327604
 31
0.0
210
0.0
220
0.0
230
1.0
 40
0.9965171215
 41
3.236374833654763
 42
4.856607050840016
  0
ARC
  5
8F
330
1F
100
AcDbEntity
  8
0
  6
HIDDEN
 62
     7
370
    18
100
AcDbCircle
 10
113.8971915234
 20
95.2033504567
 30
0.0
 40
0.9551693186928771
100
AcDbArc
 50
346.9586716819
 51
179.798433951
  0
ELLIPSE
  5
90
330
1F
100
AcDbEntity
  8
0
  6
HIDDEN
 62
     7
370
    18
100
AcDbEllipse
 10
53.6066206915
 20
98.5303836767
 30
0.0
 11
2.940591623090719
 21
-0.5572043674327745
 31
0.0
210
0.0
220
0.0
230
1.0
 40
0.9965171215
 41
4.856607050840002
 42
6.377967487244578
  0
ELLIPSE
  5
91
330
1F
100
AcDbEntity
  8
0
  6
HIDDEN
 62
     7
370
    18
100
AcDbEllipse
 10
53.6066206915
 20
98.5303836767
 30
0.0
 11
2.940591623090719
 21
-0.5572043674327745
 31
0.0
210
0.0
220
0.0
230
1.0
 40
0.9965171215
 41
3.236374833654773
 42
4.856607050840018
  0
ARC
  5
92
330
1F
100
AcDbEntity
  8
0
  6
HIDDEN
 62
     7
370
    18
100
AcDbCircle
 10
53.8023855421
 20
98.0558024342
 30
0.0
 40
0.9551693186928698
100
AcDbArc
 50
346.9586716818
 51
179.798433951
  0
ELLIPSE
  5
93
330
1F
100
AcDbEntity
  8
0
  6
HIDDEN
 62
     7
370
    18
100
AcDbEllipse
 10
69.4911238048
 20
17.8082403633
 30
0.0
 11
2.940591623090725
 21
-0.5572043674328029
 31
0.0
210
0.0
220
0.0
230
1.0
 40
0.9965171215
 41
3.23637483365481
 42
4.856607050840015
  0
ELLIPSE
  5
94
330
1F
100
AcDbEntity
  8
0
  6
HIDDEN
 62
     7
370
    18
100
AcDbEllipse
 10
69.4911238048
 20
17.8082403633
 30
0.0
 11
2.940591623090725
 21
-0.5572043674328029
 31
0.0
210
0.0
220
0.0
230
1.0
 40
0.9965171215
 41
4.856607050840001
 42
6.377967487244554
  0
CIRCLE
  5
95
330
1F
100
AcDbEntity
  8
0
  6
HIDDEN
 62
     7
370
    18
100
AcDbCircle
 10
113.9130775661
 20
95.4093074076
 30
0.0
 40
2.292218863450106
  0
CIRCLE
  5
96
330
1F
100
AcDbEntity
  8
0
  6
HIDDEN
 62
     7
370
    18
100
AcDbCircle
 10
113.8878340069
 20
95.208246559
 30
0.0
 40
2.292218863450092
  0
CIRCLE
  5
97
330
1F
100
AcDbEntity
  8
0
  6
HIDDEN
 62
     7
370
    18
100
AcDbCircle
 10
53.8182715848
 20
98.2617593851
 30
0.0
 40
2.29221886345012
  0
CIRCLE
  5
98
330
1F
100
AcDbEntity
  8
0
  6
HIDDEN
 62
     7
370
    18
100
AcDbCircle
 10
53.7930280257
 20
98.0606985365
 30
0.0
 40
2.292218863450099
  0
LINE
  5
99
330
1F
100
AcDbEntity
  8
0
  6
HIDDEN
 62
     7
370
    18
100
AcDbLine
 10
67.4330739368
 20
7.2015907309
 30
0.0
 11
46.0136139368
 21
107.0
 31
0.0
  0
ARC
  5
9A
330
1F
100
AcDbEntity
  8
0
  6
HIDDEN
 62
     7
370
    18
100
AcDbCircle
 10
149.9319518111
 20
-54.914293715
 30
0.0
 40
103.2688140293218
100
AcDbArc
 50
109.3171594716
 51
143.0228104084
  0
LINE
  5
9B
330
1F
100
AcDbEntity
  8
0
  6
HIDDEN
 62
     7
370
    18
100
AcDbLine
 10
67.4330739368
 20
7.2015907309
 30
0.0
 11
67.4074890394
 21
7.0
 31
0.0
  0
ARC
  5
9C
330
1F
100
AcDbEntity
  8
0
  6
HIDDEN
 62
     7
370
    18
100
AcDbCircle
 10
69.5399254983
 20
17.417112749
 30
0.0
 40
0.9551693186928784
100
AcDbArc
 50
346.9586716818
 51
179.798433951
  0
CIRCLE
  5
9D
330
1F
100
AcDbEntity
  8
0
  6
HIDDEN
 62
     7
370
    18
100
AcDbCircle
 10
69.5305679819
 20
17.4220088513
 30
0.0
 40
2.292218863450092
  0
CIRCLE
  5
9E
330
1F
100
AcDbEntity
  8
0
  6
HIDDEN
 62
     7
370
    18
100
AcDbCircle
 10
69.555811541
 20
17.6230696999
 30
0.0
 40
2.292218863450106
  0
LINE
  5
9F
330
1F
100
AcDbEntity
  8
0
  6
HIDDEN
 62
     7
370
    18
100
AcDbLine
 10
114.8205129534
 20
94.8866031819
 30
0.0
 11
114.8457565125
 21
95.0876640306
 31
0.0
  0
LINE
  5
A0
330
1F
100
AcDbEntity
  8
0
  6
HIDDEN
 62
     7
370
    18
100
AcDbLine
 10
112.9493813084
 20
95.3257574235
 30
0.0
 11
112.9241377493
 21
95.1246965749
 31
0.0
  0
LINE
  5
A1
330
1F
100
AcDbEntity
  8
0
  6
HIDDEN
 62
     7
370
    18
100
AcDbLine
 10
54.7257069722
 20
97.7390551595
 30
0.0
 11
54.7509505313
 21
97.9401160081
 31
0.0
  0
LINE
  5
A2
330
1F
100
AcDbEntity
  8
0
  6
HIDDEN
 62
     7
370
    18
100
AcDbLine
 10
52.8545753272
 20
98.178209401
 30
0.0
 11
52.829331768
 21
97.9771485524
 31
0.0
  0
LINE
  5
A3
330
1F
100
AcDbEntity
  8
0
  6
HIDDEN
 62
     7
370
    18
100
AcDbLine
 10
116.181807894
 20
94.9199203236
 30
0.0
 11
116.2070514532
 21
95.1209811722
 31
0.0
  0
LINE
  5
A4
330
1F
100
AcDbEntity
  8
0
  6
HIDDEN
 62
     7
370
    18
100
AcDbLine
 10
111.6385734861
 20
95.6945619791
 30
0.0
 11
111.6133299269
 21
95.4935011305
 31
0.0
  0
LINE
  5
A5
330
1F
100
AcDbEntity
  8
0
  6
HIDDEN
 62
     7
370
    18
100
AcDbLine
 10
56.0870019128
 20
97.7723723011
 30
0.0
 11
56.1122454719
 21
97.9734331498
 31
0.0
  0
LINE
  5
A6
330
1F
100
AcDbEntity
  8
0
  6
HIDDEN
 62
     7
370
    18
100
AcDbLine
 10
51.5437675048
 20
98.5470139566
 30
0.0
 11
51.5185239457
 21
98.345953108
 31
0.0
  0
LINE
  5
A7
330
1F
100
AcDbEntity
  8
0
  6
HIDDEN
 62
     7
370
    18
100
AcDbLine
 10
70.4632469283
 20
17.1003654742
 30
0.0
 11
70.4884904875
 21
17.3014263229
 31
0.0
  0
LINE
  5
A8
330
1F
100
AcDbEntity
  8
0
  6
HIDDEN
 62
     7
370
    18
100
AcDbLine
 10
68.5921152833
 20
17.5395197158
 30
0.0
 11
68.5668717242
 21
17.3384588672
 31
0.0
  0
LINE
  5
A9
330
1F
100
AcDbEntity
  8
0
  6
HIDDEN
 62
     7
370
    18
100
AcDbLine
 10
71.824541869
 20
17.1336826159
 30
0.0
 11
71.8497854281
 21
17.3347434645
 31
0.0
  0
LINE
  5
AA
330
1F
100
AcDbEntity
  8
0
  6
HIDDEN
 62
     7
370
    18
100
AcDbLine
 10
67.281307461
 20
17.9083242714
 30
0.0
 11
67.2560639019
 21
17.7072634228
 31
0.0
  0
LINE
  5
AB
330
1F
100
AcDbEntity
  8
0
  6
Continuous
 62
     7
370
    25
100
AcDbLine
 10
50.5999561196
 20
152.7086751556
 30
0.0
 11
50.5831340959
 21
151.7212670805
 31
0.0
  0
LINE
  5
AC
330
1F
100
AcDbEntity
  8
0
  6
Continuous
 62
     7
370
    25
100
AcDbLine
 10
56.5682375109
 20
151.6383463752
 30
0.0
 11
56.5855124097
 21
152.6523370133
 31
0.0
  0
LINE
  5
AD
330
1F
100
AcDbEntity
  8
0
  6
Continuous
 62
     7
370
    25
100
AcDbLine
 10
110.8974366887
 20
152.1424013268
 30
0.0
 11
110.881083542
 21
151.1825150847
 31
0.0
  0
LINE
  5
AE
330
1F
100
AcDbEntity
  8
0
  6
Continuous
 62
     7
370
    25
100
AcDbLine
 10
116.8661869571
 20
151.0995943794
 30
0.0
 11
116.8830098714
 21
152.0870547299
 31
0.0
  0
LINE
  5
AF
330
1F
100
AcDbEntity
  8
0
  6
Continuous
 62
     7
370
    25
100
AcDbLine
 10
46.0136139368
 20
154.5230302002
 30
0.0
 11
103.2977459894
 21
153.9838519801
 31
0.0
  0
ARC
  5
B0
330
1F
100
AcDbEntity
  8
0
  6
Continuous
 62
     7
370
    25
100
AcDbCircle
 10
136.8982670416
 20
644.331618048
 30
0.0
 40
484.1517936993081
100
AcDbArc
 50
261.7508391182
 51
267.498942406
  0
LINE
  5
B1
330
1F
100
AcDbEntity
  8
0
  6
Continuous
 62
     7
370
    25
100
AcDbLine
 10
119.9863860632
 20
153.829537697
 30
0.0
 11
115.7709342033
 21
160.6410194735
 31
0.0
  0
LINE
  5
B2
330
1F
100
AcDbEntity
  8
0
  6
Continuous
 62
     7
370
    25
100
AcDbLine
 10
103.2977459894
 20
153.9838519801
 30
0.0
 11
119.9863860632
 21
153.829537697
 31
0.0
  0
LWPOLYLINE
  5
B3
330
1F
100
AcDbEntity
  8
0
  6
Continuous
 62
     7
370
    25
100
AcDbPolyline
 90
       30
 70
   128
 43
0.0
 10
67.2635931921
 20
164.0469594008
 10
67.3181565564
 20
164.100239777
 10
67.4778053741
 20
164.1495444997
 10
67.7350746438
 20
164.1925681346
 10
68.0779347406
 20
164.2272989445
 10
68.4903539073
 20
164.2521129553
 10
68.953047882
 20
164.2658498915
 10
69.4443816088
 20
164.2678674291
 10
69.9413808686
 20
164.2580712303
 10
70.4208065285
 20
164.2369193546
 10
70.8602411774
 20
164.20540084
 10
71.2391373395
 20
164.1649894574
 10
71.5397782515
 20
164.1175747981
 10
71.7481062783
 20
164.0653739188
 10
71.8543802331
 20
164.0108276746
 10
71.8536308638
 20
163.9564865873
 10
71.7458932101
 20
163.9048915857
 10
71.5362049649
 20
163.8584551948
 10
71.2343709175
 20
163.8193487286
 10
70.8545044925
 20
163.789400762
 10
70.4143678218
 20
163.7700116286
 10
69.9345412068
 20
163.7620879427
 10
69.4374608069
 20
163.7660002072
 10
68.9463695491
 20
163.7815654888
 10
68.4842303147
 20
163.8080559723
 10
68.0726522208
 20
163.8442329921
 10
67.7308802015
 20
163.888404951
 10
67.4748951367
 20
163.9385064172
 10
67.3166666034
 20
163.992194702
 10
67.2635931921
 20
164.0469594008
  0
LWPOLYLINE
  5
B4
330
1F
100
AcDbEntity
  8
0
  6
Continuous
 62
     7
370
    25
100
AcDbPolyline
 90
       30
 70
   128
 43
0.0
 10
111.6208592171
 20
154.8915427892
 10
111.6754225814
 20
154.9448231655
 10
111.8350713991
 20
154.9941278881
 10
112.0923406689
 20
155.037151523
 10
112.4352007657
 20
155.0718823329
 10
112.8476199323
 20
155.0966963438
 10
113.3103139071
 20
155.1104332799
 10
113.8016476338
 20
155.1124508175
 10
114.2986468937
 20
155.1026546187
 10
114.7780725535
 20
155.081502743
 10
115.2175072024
 20
155.0499842285
 10
115.5964033646
 20
155.0095728459
 10
115.8970442765
 20
154.9621581865
 10
116.1053723034
 20
154.9099573072
 10
116.2116462582
 20
154.855411063
 10
116.2108968889
 20
154.8010699757
 10
116.1031592351
 20
154.7494749741
 10
115.8934709899
 20
154.7030385832
 10
115.5916369425
 20
154.663932117
 10
115.2117705175
 20
154.6339841504
 10
114.7716338468
 20
154.614595017
 10
114.2918072319
 20
154.6066713311
 10
113.794726832
 20
154.6105835956
 10
113.3036355742
 20
154.6261488772
 10
112.8414963398
 20
154.6526393607
 10
112.4299182458
 20
154.6888163805
 10
112.0881462266
 20
154.7329883394
 10
111.8321611617
 20
154.7830898056
 10
111.6739326285
 20
154.8367780904
 10
111.6208592171
 20
154.8915427892
  0
LWPOLYLINE
  5
B5
330
1F
100
AcDbEntity
  8
0
  6
Continuous
 62
     7
370
    25
100
AcDbPolyline
 90
       30
 70
   128
 43
0.0
 10
51.5260532359
 20
155.4069547223
 10
51.5806166002
 20
155.4602350985
 10
51.7402654179
 20
155.5095398212
 10
51.9975346877
 20
155.5525634561
 10
52.3403947844
 20
155.587294266
 10
52.7528139511
 20
155.6121082768
 10
53.2155079258
 20
155.625845213
 10
53.7068416526
 20
155.6278627506
 10
54.2038409124
 20
155.6180665518
 10
54.6832665723
 20
155.5969146761
 10
55.1227012212
 20
155.5653961615
 10
55.5015973833
 20
155.5249847789
 10
55.8022382953
 20
155.4775701196
 10
56.0105663221
 20
155.4253692403
 10
56.1168402769
 20
155.3708229961
 10
56.1160909076
 20
155.3164819088
 10
56.0083532539
 20
155.2648869072
 10
55.7986650087
 20
155.2184505163
 10
55.4968309613
 20
155.1793440501
 10
55.1169645363
 20
155.1493960835
 10
54.6768278656
 20
155.1300069501
 10
54.1970012507
 20
155.1220832642
 10
53.6999208508
 20
155.1259955287
 10
53.2088295929
 20
155.1415608103
 10
52.7466903585
 20
155.1680512938
 10
52.3351122646
 20
155.2042283136
 10
51.9933402453
 20
155.2484002725
 10
51.7373551805
 20
155.2985017387
 10
51.5791266472
 20
155.3521900235
 10
51.5260532359
 20
155.4069547223
  0
LINE
  5
B6
330
1F
100
AcDbEntity
  8
0
  6
Continuous
 62
     7
370
    25
100
AcDbLine
 10
67.4330739368
 20
165.189106587
 30
0.0
 11
46.0136139368
 21
154.5230302002
 31
0.0
  0
LINE
  5
B7
330
1F
100
AcDbEntity
  8
0
  6
Continuous
 62
     7
370
    25
100
AcDbLine
 10
103.2498076961
 20
152.2131163988
 30
0.0
 11
46.1053921961
 21
152.7509795581
 31
0.0
  0
LINE
  5
B8
330
1F
100
AcDbEntity
  8
0
  6
Continuous
 62
     7
370
    25
100
AcDbLine
 10
46.1053921961
 20
152.7509795581
 30
0.0
 11
46.0136139368
 21
154.5230302002
 31
0.0
  0
LINE
  5
B9
330
1F
100
AcDbEntity
  8
0
  6
Continuous
 62
     7
370
    25
100
AcDbLine
 10
119.9863860632
 20
153.829537697
 30
0.0
 11
119.9240578144
 21
152.0589351748
 31
0.0
  0
LINE
  5
BA
330
1F
100
AcDbEntity
  8
0
  6
Continuous
 62
     7
370
    25
100
AcDbLine
 10
119.9240578144
 20
152.0589351748
 30
0.0
 11
103.2498076961
 21
152.2131163988
 31
0.0
  0
ELLIPSE
  5
BB
330
1F
100
AcDbEntity
  8
0
  6
Continuous
 62
     7
370
    25
100
AcDbEllipse
 10
53.5756858034
 20
151.6798067279
 30
0.0
 11
2.992553488396859
 21
-0.04134490815985715
 31
0.0
210
0.0
220
0.0
230
1.0
 40
0.1094591473
 41
3.141240210564
 42
6.282832864153983
  0
ELLIPSE
  5
BC
330
1F
100
AcDbEntity
  8
0
  6
Continuous
 62
     7
370
    25
100
AcDbEllipse
 10
113.8736352495
 20
151.141054732
 30
0.0
 11
2.992553488396866
 21
-0.04134490815985715
 31
0.0
210
0.0
220
0.0
230
1.0
 40
0.1094591473
 41
3.141240210564029
 42
6.28283286415395
  0
LINE
  5
BD
330
1F
100
AcDbEntity
  8
0
  6
HIDDEN
 62
     7
370
    18
100
AcDbLine
 10
46.1053921961
 20
152.7509795581
 30
0.0
 11
67.4074890394
 21
163.3586135573
 31
0.0
  0
LINE
  5
BE
330
1F
100
AcDbEntity
  8
0
  6
HIDDEN
 62
     7
370
    18
100
AcDbLine
 10
115.7457059333
 20
158.8104694447
 30
0.0
 11
119.9240578144
 21
152.0589351748
 31
0.0
  0
ELLIPSE
  5
BF
330
1F
100
AcDbEntity
  8
0
  6
HIDDEN
 62
     7
370
    18
100
AcDbEllipse
 10
53.5756858034
 20
151.6798067279
 30
0.0
 11
2.992553488396859
 21
-0.04134490815985715
 31
0.0
210
0.0
220
0.0
230
1.0
 40
0.1094591473
 41
6.282832864153983
 42
7.897905611870269
  0
ELLIPSE
  5
C0
330
1F
100
AcDbEntity
  8
0
  6
HIDDEN
 62
     7
370
    18
100
AcDbEllipse
 10
53.5756858034
 20
151.6798067279
 30
0.0
 11
2.992553488396859
 21
-0.04134490815985715
 31
0.0
210
0.0
220
0.0
230
1.0
 40
0.1094591473
 41
1.614720304690666
 42
3.141240210564
  0
ELLIPSE
  5
C1
330
1F
100
AcDbEntity
  8
0
  6
HIDDEN
 62
     7
370
    18
100
AcDbEllipse
 10
53.6066206915
 20
153.4956024269
 30
0.0
 11
2.992553488396859
 21
-0.04134490815985715
 31
0.0
210
0.0
220
0.0
230
1.0
 40
0.1094591473
 41
0.0
 42
6.283185307179586
  0
LWPOLYLINE
  5
C2
330
1F
100
AcDbEntity
  8
0
  6
HIDDEN
 62
     7
370
    18
100
AcDbPolyline
 90
       30
 70
   128
 43
0.0
 10
51.5008096767
 20
153.5763987853
 10
51.555373041
 20
153.6296791616
 10
51.7150218587
 20
153.6789838842
 10
51.9722911285
 20
153.7220075192
 10
52.3151512253
 20
153.7567383291
 10
52.7275703919
 20
153.7815523399
 10
53.1902643667
 20
153.795289276
 10
53.6815980934
 20
153.7973068136
 10
54.1785973533
 20
153.7875106149
 10
54.6580230131
 20
153.7663587391
 10
55.097457662
 20
153.7348402246
 10
55.4763538242
 20
153.694428842
 10
55.7769947361
 20
153.6470141826
 10
55.985322763
 20
153.5948133033
 10
56.0915967178
 20
153.5402670591
 10
56.0908473485
 20
153.4859259718
 10
55.9831096947
 20
153.4343309703
 10
55.7734214495
 20
153.3878945794
 10
55.4715874021
 20
153.3487881132
 10
55.0917209772
 20
153.3188401465
 10
54.6515843064
 20
153.2994510131
 10
54.1717576915
 20
153.2915273273
 10
53.6746772916
 20
153.2954395917
 10
53.1835860338
 20
153.3110048733
 10
52.7214467994
 20
153.3374953568
 10
52.3098687054
 20
153.3736723766
 10
51.9680966862
 20
153.4178443355
 10
51.7121116213
 20
153.4679458018
 10
51.5538830881
 20
153.5216340865
 10
51.5008096767
 20
153.5763987853
  0
LWPOLYLINE
  5
C3
330
1F
100
AcDbEntity
  8
0
  6
HIDDEN
 62
     7
370
    18
100
AcDbPolyline
 90
       20
 70
   128
 43
0.0
 10
52.8472221341
 20
153.5578316157
 10
52.8994630574
 20
153.5909888462
 10
53.049590538
 20
153.6191250429
 10
53.2813359338
 20
153.6391912124
 10
53.5695860354
 20
153.649012874
 10
53.8831044715
 20
153.647525698
 10
54.1879166549
 20
153.6348908432
 10
54.4509914558
 20
153.6124774921
 10
54.6438206376
 20
153.5827144791
 10
54.7455081663
 20
153.5488270884
 10
54.7450346204
 20
153.5144875447
 10
54.6424513159
 20
153.4834170703
 10
54.4488747456
 20
153.4589826333
 10
54.1852819345
 20
153.443832084
 10
53.8802372538
 20
153.4396072196
 10
53.5667970279
 20
153.4467658696
 10
53.2789273688
 20
153.4645322833
 10
53.0478234208
 20
153.4909811941
 10
52.8985288827
 20
153.523246452
 10
52.8472221341
 20
153.5578316157
  0
LWPOLYLINE
  5
C4
330
1F
100
AcDbEntity
  8
0
  6
HIDDEN
 62
     7
370
    18
100
AcDbPolyline
 90
       20
 70
   128
 43
0.0
 10
52.821978575
 20
151.7272756788
 10
52.8732853235
 20
151.692690515
 10
53.0225798617
 20
151.6604252571
 10
53.2536838097
 20
151.6339763464
 10
53.5415534688
 20
151.6162099327
 10
53.8549936947
 20
151.6090512827
 10
54.1600383753
 20
151.6132761471
 10
54.4236311864
 20
151.6284266964
 10
54.6172077567
 20
151.6528611334
 10
54.7197910612
 20
151.6839316077
 10
54.7202646072
 20
151.7182711514
 10
54.6185770784
 20
151.7521585421
 10
54.4257478967
 20
151.7819215551
 10
54.1626730957
 20
151.8043349062
 10
53.8578609124
 20
151.8169697611
 10
53.5443424763
 20
151.818456937
 10
53.2560923747
 20
151.8086352755
 10
53.0243469789
 20
151.7885691059
 10
52.8742194983
 20
151.7604329092
 10
52.821978575
 20
151.7272756788
  0
ELLIPSE
  5
C5
330
1F
100
AcDbEntity
  8
0
  6
HIDDEN
 62
     7
370
    18
100
AcDbEllipse
 10
113.8736352495
 20
151.141054732
 30
0.0
 11
2.992553488396866
 21
-0.04134490815985715
 31
0.0
210
0.0
220
0.0
230
1.0
 40
0.1094591473
 41
6.28283286415395
 42
7.897905611870277
  0
ELLIPSE
  5
C6
330
1F
100
AcDbEntity
  8
0
  6
HIDDEN
 62
     7
370
    18
100
AcDbEllipse
 10
113.8736352495
 20
151.141054732
 30
0.0
 11
2.992553488396866
 21
-0.04134490815985715
 31
0.0
210
0.0
220
0.0
230
1.0
 40
0.1094591473
 41
1.614720304690676
 42
3.141240210564029
  0
ELLIPSE
  5
C7
330
1F
100
AcDbEntity
  8
0
  6
HIDDEN
 62
     7
370
    18
100
AcDbEllipse
 10
113.9045701376
 20
152.9568504311
 30
0.0
 11
2.992553488396866
 21
-0.04134490815985715
 31
0.0
210
0.0
220
0.0
230
1.0
 40
0.1094591473
 41
0.0
 42
6.283185307179586
  0
LWPOLYLINE
  5
C8
330
1F
100
AcDbEntity
  8
0
  6
HIDDEN
 62
     7
370
    18
100
AcDbPolyline
 90
       30
 70
   128
 43
0.0
 10
111.595615658
 20
153.0609868522
 10
111.6501790223
 20
153.1142672285
 10
111.80982784
 20
153.1635719511
 10
112.0670971098
 20
153.2065955861
 10
112.4099572065
 20
153.241326396
 10
112.8223763732
 20
153.2661404068
 10
113.2850703479
 20
153.2798773429
 10
113.7764040747
 20
153.2818948805
 10
114.2734033345
 20
153.2720986818
 10
114.7528289944
 20
153.250946806
 10
115.1922636433
 20
153.2194282915
 10
115.5711598054
 20
153.1790169089
 10
115.8718007174
 20
153.1316022496
 10
116.0801287442
 20
153.0794013702
 10
116.186402699
 20
153.0248551261
 10
116.1856533297
 20
152.9705140388
 10
116.077915676
 20
152.9189190372
 10
115.8682274308
 20
152.8724826463
 10
115.5663933834
 20
152.8333761801
 10
115.1865269584
 20
152.8034282135
 10
114.7463902877
 20
152.78403908
 10
114.2665636727
 20
152.7761153942
 10
113.7694832728
 20
152.7800276586
 10
113.278392015
 20
152.7955929402
 10
112.8162527806
 20
152.8220834237
 10
112.4046746867
 20
152.8582604435
 10
112.0629026674
 20
152.9024324024
 10
111.8069176026
 20
152.9525338687
 10
111.6486890693
 20
153.0062221535
 10
111.595615658
 20
153.0609868522
  0
LWPOLYLINE
  5
C9
330
1F
100
AcDbEntity
  8
0
  6
HIDDEN
 62
     7
370
    18
100
AcDbPolyline
 90
       20
 70
   128
 43
0.0
 10
112.9420281154
 20
153.0424196826
 10
112.9942690387
 20
153.0755769131
 10
113.1443965193
 20
153.1037131098
 10
113.3761419151
 20
153.1237792794
 10
113.6643920166
 20
153.1336009409
 10
113.9779104528
 20
153.1321137649
 10
114.2827226361
 20
153.1194789101
 10
114.5457974371
 20
153.097065559
 10
114.7386266188
 20
153.067302546
 10
114.8403141476
 20
153.0334151553
 10
114.8398406016
 20
152.9990756116
 10
114.7372572971
 20
152.9680051372
 10
114.5436807268
 20
152.9435707002
 10
114.2800879157
 20
152.928420151
 10
113.975043235
 20
152.9241952865
 10
113.6616030092
 20
152.9313539366
 10
113.3737333501
 20
152.9491203503
 10
113.1426294021
 20
152.975569261
 10
112.9933348639
 20
153.0078345189
 10
112.9420281154
 20
153.0424196826
  0
LWPOLYLINE
  5
CA
330
1F
100
AcDbEntity
  8
0
  6
HIDDEN
 62
     7
370
    18
100
AcDbPolyline
 90
       20
 70
   128
 43
0.0
 10
112.9167845562
 20
151.2118637457
 10
112.9680913048
 20
151.1772785819
 10
113.1173858429
 20
151.145013324
 10
113.3484897909
 20
151.1185644133
 10
113.63635945
 20
151.1007979996
 10
113.9497996759
 20
151.0936393496
 10
114.2548443566
 20
151.097864214
 10
114.5184371677
 20
151.1130147633
 10
114.712013738
 20
151.1374492003
 10
114.8145970425
 20
151.1685196747
 10
114.8150705884
 20
151.2028592184
 10
114.7133830597
 20
151.236746609
 10
114.5205538779
 20
151.2665096221
 10
114.257479077
 20
151.2889229732
 10
113.9526668936
 20
151.301557828
 10
113.6391484575
 20
151.3030450039
 10
113.3508983559
 20
151.2932233424
 10
113.1191529601
 20
151.2731571729
 10
112.9690254795
 20
151.2450209761
 10
112.9167845562
 20
151.2118637457
  0
LINE
  5
CB
330
1F
100
AcDbEntity
  8
0
  6
HIDDEN
 62
     7
370
    18
100
AcDbLine
 10
115.7457059333
 20
158.8104694447
 30
0.0
 11
115.7709342033
 21
160.6410194735
 31
0.0
  0
ARC
  5
CC
330
1F
100
AcDbEntity
  8
0
  6
HIDDEN
 62
     7
370
    18
100
AcDbCircle
 10
136.8727783596
 20
642.4977424247
 30
0.0
 40
484.1484599089662
100
AcDbArc
 50
261.7507704142
 51
267.4989560205
  0
LINE
  5
CD
330
1F
100
AcDbEntity
  8
0
  6
HIDDEN
 62
     7
370
    18
100
AcDbLine
 10
67.4330739368
 20
165.189106587
 30
0.0
 11
67.4074890394
 21
163.3586135573
 31
0.0
  0
ELLIPSE
  5
CE
330
1F
100
AcDbEntity
  8
0
  6
HIDDEN
 62
     7
370
    18
100
AcDbEllipse
 10
69.4601889168
 20
160.3269509774
 30
0.0
 11
2.992553488396866
 21
-0.04134490815985715
 31
0.0
210
0.0
220
0.0
230
1.0
 40
0.1094591473
 41
0.0
 42
6.283185307179586
  0
ELLIPSE
  5
CF
330
1F
100
AcDbEntity
  8
0
  6
HIDDEN
 62
     7
370
    18
100
AcDbEllipse
 10
69.4911238048
 20
162.1427466765
 30
0.0
 11
2.992553488396866
 21
-0.04134490815985715
 31
0.0
210
0.0
220
0.0
230
1.0
 40
0.1094591473
 41
0.0
 42
6.283185307179586
  0
LWPOLYLINE
  5
D0
330
1F
100
AcDbEntity
  8
0
  6
HIDDEN
 62
     7
370
    18
100
AcDbPolyline
 90
       30
 70
   128
 43
0.0
 10
67.2383496329
 20
162.2164034638
 10
67.2929129972
 20
162.2696838401
 10
67.4525618149
 20
162.3189885627
 10
67.7098310847
 20
162.3620121977
 10
68.0526911815
 20
162.3967430076
 10
68.4651103481
 20
162.4215570184
 10
68.9278043229
 20
162.4352939545
 10
69.4191380496
 20
162.4373114921
 10
69.9161373095
 20
162.4275152934
 10
70.3955629693
 20
162.4063634176
 10
70.8349976182
 20
162.3748449031
 10
71.2138937804
 20
162.3344335205
 10
71.5145346923
 20
162.2870188611
 10
71.7228627192
 20
162.2348179818
 10
71.829136674
 20
162.1802717376
 10
71.8283873047
 20
162.1259306503
 10
71.7206496509
 20
162.0743356488
 10
71.5109614057
 20
162.0278992579
 10
71.2091273583
 20
161.9887927917
 10
70.8292609333
 20
161.958844825
 10
70.3891242626
 20
161.9394556916
 10
69.9092976477
 20
161.9315320058
 10
69.4122172478
 20
161.9354442702
 10
68.9211259899
 20
161.9510095518
 10
68.4589867556
 20
161.9775000353
 10
68.0474086616
 20
162.0136770551
 10
67.7056366424
 20
162.057849014
 10
67.4496515775
 20
162.1079504803
 10
67.2914230443
 20
162.161638765
 10
67.2383496329
 20
162.2164034638
  0
LWPOLYLINE
  5
D1
330
1F
100
AcDbEntity
  8
0
  6
HIDDEN
 62
     7
370
    18
100
AcDbPolyline
 90
       20
 70
   128
 43
0.0
 10
68.5847620903
 20
162.1978362942
 10
68.6370030136
 20
162.2309935247
 10
68.7871304942
 20
162.2591297214
 10
69.01887589
 20
162.2791958909
 10
69.3071259916
 20
162.2890175525
 10
69.6206444277
 20
162.2875303765
 10
69.9254566111
 20
162.2748955217
 10
70.188531412
 20
162.2524821706
 10
70.3813605938
 20
162.2227191576
 10
70.4830481225
 20
162.1888317669
 10
70.4825745766
 20
162.1544922232
 10
70.3799912721
 20
162.1234217488
 10
70.1864147017
 20
162.0989873118
 10
69.9228218907
 20
162.0838367625
 10
69.61777721
 20
162.0796118981
 10
69.3043369841
 20
162.0867705481
 10
69.016467325
 20
162.1045369618
 10
68.785363377
 20
162.1309858726
 10
68.6360688389
 20
162.1632511305
 10
68.5847620903
 20
162.1978362942
  0
LWPOLYLINE
  5
D2
330
1F
100
AcDbEntity
  8
0
  6
HIDDEN
 62
     7
370
    18
100
AcDbPolyline
 90
       20
 70
   128
 43
0.0
 10
68.5595185312
 20
160.3672803573
 10
68.6108252797
 20
160.3326951935
 10
68.7601198179
 20
160.3004299356
 10
68.9912237659
 20
160.2739810249
 10
69.279093425
 20
160.2562146112
 10
69.5925336508
 20
160.2490559612
 10
69.8975783315
 20
160.2532808256
 10
70.1611711426
 20
160.2684313749
 10
70.3547477129
 20
160.2928658119
 10
70.4573310174
 20
160.3239362862
 10
70.4578045633
 20
160.35827583
 10
70.3561170346
 20
160.3921632206
 10
70.1632878529
 20
160.4219262336
 10
69.9002130519
 20
160.4443395847
 10
69.5954008686
 20
160.4569744396
 10
69.2818824324
 20
160.4584616155
 10
68.9936323309
 20
160.448639954
 10
68.7618869351
 20
160.4285737845
 10
68.6117594545
 20
160.4004375877
 10
68.5595185312
 20
160.3672803573
  0
LINE
  5
D3
330
1F
100
AcDbEntity
  8
0
  6
HIDDEN
 62
     7
370
    18
100
AcDbLine
 10
50.6140689839
 20
153.5370627796
 30
0.0
 11
50.5999561196
 21
152.7086751556
 31
0.0
  0
LINE
  5
D4
330
1F
100
AcDbEntity
  8
0
  6
HIDDEN
 62
     7
370
    18
100
AcDbLine
 10
56.5855124097
 20
152.6523370133
 30
0.0
 11
56.599172399
 21
153.4541420743
 31
0.0
  0
LINE
  5
D5
330
1F
100
AcDbEntity
  8
0
  6
HIDDEN
 62
     7
370
    18
100
AcDbLine
 10
56.1047161817
 20
153.5129104298
 30
0.0
 11
56.1299597409
 21
155.3434663667
 31
0.0
  0
LINE
  5
D6
330
1F
100
AcDbEntity
  8
0
  6
HIDDEN
 62
     7
370
    18
100
AcDbLine
 10
51.5260532359
 20
155.4069547223
 30
0.0
 11
51.5008096767
 21
153.5763987853
 31
0.0
  0
LINE
  5
D7
330
1F
100
AcDbEntity
  8
0
  6
HIDDEN
 62
     7
370
    18
100
AcDbLine
 10
54.7330601652
 20
151.7009216624
 30
0.0
 11
54.7583037243
 21
153.5314775993
 31
0.0
  0
LINE
  5
D8
330
1F
100
AcDbEntity
  8
0
  6
HIDDEN
 62
     7
370
    18
100
AcDbLine
 10
52.8472221341
 20
153.5578316157
 30
0.0
 11
52.821978575
 21
151.7272756788
 31
0.0
  0
LINE
  5
D9
330
1F
100
AcDbEntity
  8
0
  6
HIDDEN
 62
     7
370
    18
100
AcDbLine
 10
110.9120184301
 20
152.9983107837
 30
0.0
 11
110.8974366887
 21
152.1424013268
 31
0.0
  0
LINE
  5
DA
330
1F
100
AcDbEntity
  8
0
  6
HIDDEN
 62
     7
370
    18
100
AcDbLine
 10
116.8830098714
 20
152.0870547299
 30
0.0
 11
116.8971218451
 21
152.9153900784
 31
0.0
  0
LINE
  5
DB
330
1F
100
AcDbEntity
  8
0
  6
HIDDEN
 62
     7
370
    18
100
AcDbLine
 10
116.199522163
 20
152.9974984967
 30
0.0
 11
116.2247657221
 21
154.8280544336
 31
0.0
  0
LINE
  5
DC
330
1F
100
AcDbEntity
  8
0
  6
HIDDEN
 62
     7
370
    18
100
AcDbLine
 10
111.6208592171
 20
154.8915427892
 30
0.0
 11
111.595615658
 21
153.0609868522
 31
0.0
  0
LINE
  5
DD
330
1F
100
AcDbEntity
  8
0
  6
HIDDEN
 62
     7
370
    18
100
AcDbLine
 10
114.8278661464
 20
151.1855097293
 30
0.0
 11
114.8531097056
 21
153.0160656663
 31
0.0
  0
LINE
  5
DE
330
1F
100
AcDbEntity
  8
0
  6
HIDDEN
 62
     7
370
    18
100
AcDbLine
 10
112.9420281154
 20
153.0424196826
 30
0.0
 11
112.9167845562
 21
151.2118637457
 31
0.0
  0
LINE
  5
DF
330
1F
100
AcDbEntity
  8
0
  6
HIDDEN
 62
     7
370
    18
100
AcDbLine
 10
66.4985720973
 20
162.1842070291
 30
0.0
 11
66.4676372093
 21
160.3684113301
 31
0.0
  0
LINE
  5
E0
330
1F
100
AcDbEntity
  8
0
  6
HIDDEN
 62
     7
370
    18
100
AcDbLine
 10
72.4527406243
 20
160.2854906248
 30
0.0
 11
72.4836755124
 21
162.1012863238
 31
0.0
  0
LINE
  5
E1
330
1F
100
AcDbEntity
  8
0
  6
HIDDEN
 62
     7
370
    18
100
AcDbLine
 10
71.8422561379
 20
162.1529151083
 30
0.0
 11
71.8674996971
 21
163.9834710452
 31
0.0
  0
LINE
  5
E2
330
1F
100
AcDbEntity
  8
0
  6
HIDDEN
 62
     7
370
    18
100
AcDbLine
 10
67.2635931921
 20
164.0469594008
 30
0.0
 11
67.2383496329
 21
162.2164034638
 31
0.0
  0
LINE
  5
E3
330
1F
100
AcDbEntity
  8
0
  6
HIDDEN
 62
     7
370
    18
100
AcDbLine
 10
70.4706001214
 20
160.3409263409
 30
0.0
 11
70.4958436805
 21
162.1714822778
 31
0.0
  0
LINE
  5
E4
330
1F
100
AcDbEntity
  8
0
  6
HIDDEN
 62
     7
370
    18
100
AcDbLine
 10
68.5847620903
 20
162.1978362942
 30
0.0
 11
68.5595185312
 21
160.3672803573
 31
0.0
  0
LINE
  5
E5
330
1F
100
AcDbEntity
  8
0
  6
Continuous
 62
     7
370
    25
100
AcDbLine
 10
217.5519880707
 20
98.8335430469
 30
0.0
 11
215.8133804994
 21
98.5130415104
 31
0.0
  0
LINE
  5
E6
330
1F
100
AcDbEntity
  8
0
  6
Continuous
 62
     7
370
    25
100
AcDbLine
 10
216.4687289647
 20
92.5473490468
 30
0.0
 11
218.2127649488
 21
92.8688512776
 31
0.0
  0
LINE
  5
E7
330
1F
100
AcDbEntity
  8
0
  6
Continuous
 62
     7
370
    25
100
AcDbLine
 10
226.675026156
 20
20.7652699294
 30
0.0
 11
224.9992767448
 21
20.4563559053
 31
0.0
  0
LINE
  5
E8
330
1F
100
AcDbEntity
  8
0
  6
Continuous
 62
     7
370
    25
100
AcDbLine
 10
225.6546252101
 20
14.4906634417
 30
0.0
 11
227.4105885405
 21
14.814364405
 31
0.0
  0
LINE
  5
E9
330
1F
100
AcDbEntity
  8
0
  6
Continuous
 62
     7
370
    25
100
AcDbLine
 10
217.2733966227
 20
101.3483285542
 30
0.0
 11
216.3521324952
 21
101.1784992187
 31
0.0
  0
LINE
  5
EA
330
1F
100
AcDbEntity
  8
0
  6
Continuous
 62
     7
370
    25
100
AcDbLine
 10
219.5230302002
 20
107.0
 30
0.0
 11
218.9838519801
 21
104.7168131583
 31
0.0
  0
LINE
  5
EB
330
1F
100
AcDbEntity
  8
0
  6
Continuous
 62
     7
370
    25
100
AcDbLine
 10
230.189106587
 20
7.2015907309
 30
0.0
 11
219.5230302002
 21
107.0
 31
0.0
  0
LWPOLYLINE
  5
EC
330
1F
100
AcDbEntity
  8
0
  6
Continuous
 62
     7
370
    25
100
AcDbPolyline
 90
       19
 70
   128
 43
0.0
 10
225.6410194735
 20
42.540684747
 10
225.8134260927
 20
41.3690984793
 10
225.9965300079
 20
40.0950499805
 10
226.1901355333
 20
38.7199008454
 10
226.3940357595
 20
37.2451207167
 10
226.6080127755
 20
35.6722857142
 10
226.8318379006
 20
34.0030767505
 10
227.0652719297
 20
32.2392777343
 10
227.3080653882
 20
30.3827736644
 10
227.5599587991
 20
28.4355486147
 10
227.8206829601
 20
26.399683614
 10
228.0899592314
 20
24.277354422
 10
228.3674998333
 20
22.070829204
 10
228.653008154
 20
19.7824661068
 10
228.9461790665
 20
17.4147107387
 10
229.2466992545
 20
14.9700935556
 10
229.5542475477
 20
12.4512271568
 10
229.8684952644
 20
9.8608034929
 10
230.189106587
 20
7.2015907309
  0
LINE
  5
ED
330
1F
100
AcDbEntity
  8
0
  6
Continuous
 62
     7
370
    25
100
AcDbLine
 10
218.829537697
 20
104.0264761454
 30
0.0
 11
225.6410194735
 21
42.540684747
 31
0.0
  0
LINE
  5
EE
330
1F
100
AcDbEntity
  8
0
  6
Continuous
 62
     7
370
    25
100
AcDbLine
 10
218.9838519801
 20
104.7168131583
 30
0.0
 11
218.829537697
 21
104.0264761454
 31
0.0
  0
LWPOLYLINE
  5
EF
330
1F
100
AcDbEntity
  8
0
  6
Continuous
 62
     7
370
    25
100
AcDbPolyline
 90
       30
 70
   128
 43
0.0
 10
229.0469594008
 20
17.621533868
 10
229.100239777
 20
17.1295928297
 10
229.1495444997
 20
16.6606544075
 10
229.1925681346
 20
16.2366456411
 10
229.2272989445
 20
15.8773927089
 10
229.2521129553
 20
15.5996938788
 10
229.2658498915
 20
15.4165340396
 10
229.2678674291
 20
15.3364775416
 10
229.2580712303
 20
15.3632677377
 10
229.2369193546
 20
15.4956519483
 10
229.20540084
 20
15.7274400347
 10
229.1649894574
 20
16.0477938435
 10
229.1175747981
 20
16.4417339869
 10
229.0653739188
 20
16.8908402614
 10
229.0108276746
 20
17.3741129568
 10
228.9564865873
 20
17.8689547791
 10
228.9048915857
 20
18.3522274745
 10
228.8584551948
 20
18.8013337491
 10
228.8193487286
 20
19.1952738924
 10
228.789400762
 20
19.5156277013
 10
228.7700116286
 20
19.7474157876
 10
228.7620879427
 20
19.8797999982
 10
228.7660002072
 20
19.9065901944
 10
228.7815654888
 20
19.8265336964
 10
228.8080559723
 20
19.6433738571
 10
228.8442329921
 20
19.365675027
 10
228.888404951
 20
19.0064220948
 10
228.9385064172
 20
18.5824133284
 10
228.992194702
 20
18.1134749063
 10
229.0469594008
 20
17.621533868
  0
LWPOLYLINE
  5
F0
330
1F
100
AcDbEntity
  8
0
  6
Continuous
 62
     7
370
    25
100
AcDbPolyline
 90
       30
 70
   128
 43
0.0
 10
219.8915427892
 20
95.4077715757
 10
219.9448231655
 20
94.9158305374
 10
219.9941278881
 20
94.4468921152
 10
220.037151523
 20
94.0228833488
 10
220.0718823329
 20
93.6636304166
 10
220.0966963438
 20
93.3859315865
 10
220.1104332799
 20
93.2027717472
 10
220.1124508175
 20
93.1227152493
 10
220.1026546187
 20
93.1495054454
 10
220.081502743
 20
93.281889656
 10
220.0499842285
 20
93.5136777424
 10
220.0095728459
 20
93.8340315512
 10
219.9621581865
 20
94.2279716946
 10
219.9099573072
 20
94.6770779691
 10
219.855411063
 20
95.1603506645
 10
219.8010699757
 20
95.6551924868
 10
219.7494749741
 20
96.1384651822
 10
219.7030385832
 20
96.5875714568
 10
219.663932117
 20
96.9815116001
 10
219.6339841504
 20
97.301865409
 10
219.614595017
 20
97.5336534953
 10
219.6066713311
 20
97.6660377059
 10
219.6105835956
 20
97.692827902
 10
219.6261488772
 20
97.6127714041
 10
219.6526393607
 20
97.4296115648
 10
219.6888163805
 20
97.1519127347
 10
219.7329883394
 20
96.7926598025
 10
219.7830898056
 20
96.3686510361
 10
219.8367780904
 20
95.899712614
 10
219.8915427892
 20
95.4077715757
  0
LWPOLYLINE
  5
F1
330
1F
100
AcDbEntity
  8
0
  6
Continuous
 62
     7
370
    25
100
AcDbPolyline
 90
       30
 70
   128
 43
0.0
 10
220.4069547223
 20
98.2602235532
 10
220.4602350985
 20
97.7682825149
 10
220.5095398212
 20
97.2993440928
 10
220.5525634561
 20
96.8753353263
 10
220.587294266
 20
96.5160823941
 10
220.6121082768
 20
96.2383835641
 10
220.625845213
 20
96.0552237248
 10
220.6278627506
 20
95.9751672268
 10
220.6180665518
 20
96.001957423
 10
220.5969146761
 20
96.1343416335
 10
220.5653961615
 20
96.3661297199
 10
220.5249847789
 20
96.6864835288
 10
220.4775701196
 20
97.0804236721
 10
220.4253692403
 20
97.5295299466
 10
220.3708229961
 20
98.0128026421
 10
220.3164819088
 20
98.5076444643
 10
220.2648869072
 20
98.9909171598
 10
220.2184505163
 20
99.4400234343
 10
220.1793440501
 20
99.8339635776
 10
220.1493960835
 20
100.1543173865
 10
220.1300069501
 20
100.3861054729
 10
220.1220832642
 20
100.5184896834
 10
220.1259955287
 20
100.5452798796
 10
220.1415608103
 20
100.4652233816
 10
220.1680512938
 20
100.2820635423
 10
220.2042283136
 20
100.0043647123
 10
220.2484002725
 20
99.6451117801
 10
220.2985017387
 20
99.2211030136
 10
220.3521900235
 20
98.7521645915
 10
220.4069547223
 20
98.2602235532
  0
LINE
  5
F2
330
1F
100
AcDbEntity
  8
0
  6
Continuous
 62
     7
370
    25
100
AcDbLine
 10
223.8104694447
 20
42.3395681883
 30
0.0
 11
225.6410194735
 21
42.540684747
 31
0.0
  0
LINE
  5
F3
330
1F
100
AcDbEntity
  8
0
  6
Continuous
 62
     7
370
    25
100
AcDbLine
 10
223.8104694447
 20
42.3395681883
 30
0.0
 11
217.0589351748
 21
103.2842262456
 31
0.0
  0
LINE
  5
F4
330
1F
100
AcDbEntity
  8
0
  6
Continuous
 62
     7
370
    25
100
AcDbLine
 10
218.829537697
 20
104.0264761454
 30
0.0
 11
217.0589351748
 21
103.2842262456
 31
0.0
  0
LINE
  5
F5
330
1F
100
AcDbEntity
  8
0
  6
Continuous
 62
     7
370
    25
100
AcDbLine
 10
217.0589351748
 20
103.2842262456
 30
0.0
 11
217.2131163988
 21
103.9739680084
 31
0.0
  0
ELLIPSE
  5
F6
330
1F
100
AcDbEntity
  8
0
  6
Continuous
 62
     7
370
    25
100
AcDbEllipse
 10
216.141054732
 20
95.5301952786
 30
0.0
 11
-0.3276336906980931
 21
2.982852189089542
 31
0.0
210
0.0
220
0.0
230
1.0
 40
0.0136700518
 41
0.0009982702262896
 42
3.14259092381661
  0
LINE
  5
F7
330
1F
100
AcDbEntity
  8
0
  6
Continuous
 62
     7
370
    25
100
AcDbLine
 10
230.189106587
 20
7.2015907309
 30
0.0
 11
228.3586135573
 21
7.0
 31
0.0
  0
LWPOLYLINE
  5
F8
330
1F
100
AcDbEntity
  8
0
  6
Continuous
 62
     7
370
    25
100
AcDbPolyline
 90
       19
 70
   128
 43
0.0
 10
228.3586135573
 20
7.0
 10
228.0379980629
 20
9.6592500419
 10
227.7237462189
 20
12.2497103648
 10
227.4161938776
 20
14.7686124503
 10
227.1156697311
 20
17.2132642571
 10
226.8224949605
 20
19.5810530977
 10
226.5369828921
 20
21.8694484309
 10
226.2594386631
 20
24.0760045662
 10
225.9901588949
 20
26.1983632776
 10
225.7294313766
 20
28.2342563238
 10
225.477534757
 20
30.1815078727
 10
225.2347382471
 20
32.0380368264
 10
225.0013013322
 20
33.8018590454
 10
224.7774734949
 20
35.4710894696
 10
224.563493948
 20
37.0439441321
 10
224.3595913792
 20
38.5187420666
 10
224.1659837064
 20
39.8939071033
 10
223.9828778452
 20
41.167969554
 10
223.8104694447
 20
42.3395681883
  0
LINE
  5
F9
330
1F
100
AcDbEntity
  8
0
  6
Continuous
 62
     7
370
    25
100
AcDbLine
 10
217.7509795581
 20
106.2515861346
 30
0.0
 11
219.5230302002
 21
107.0
 31
0.0
  0
LINE
  5
FA
330
1F
100
AcDbEntity
  8
0
  6
Continuous
 62
     7
370
    25
100
AcDbLine
 10
217.2131163988
 20
103.9739680084
 30
0.0
 11
217.7509795581
 21
106.2515861346
 31
0.0
  0
ELLIPSE
  5
FB
330
1F
100
AcDbEntity
  8
0
  6
Continuous
 62
     7
370
    25
100
AcDbEllipse
 10
225.3269509774
 20
17.4735096735
 30
0.0
 11
-0.327633690698093
 21
2.982852189089488
 31
0.0
210
0.0
220
0.0
230
1.0
 40
0.0136700518
 41
0.0009982702256001
 42
3.142590923816966
  0
ELLIPSE
  5
FC
330
1F
100
AcDbEntity
  8
0
  6
Continuous
 62
     7
370
    25
100
AcDbEllipse
 10
216.6798067279
 20
98.1956529869
 30
0.0
 11
-0.327633690698093
 21
2.982852189089527
 31
0.0
210
0.0
220
0.0
230
1.0
 40
0.0136700518
 41
0.0009982702264026
 42
1.414369122235578
  0
ELLIPSE
  5
FD
330
1F
100
AcDbEntity
  8
0
  6
HIDDEN
 62
     7
370
    18
100
AcDbEllipse
 10
216.141054732
 20
95.5301952786
 30
0.0
 11
-0.3276336906980931
 21
2.982852189089542
 31
0.0
210
0.0
220
0.0
230
1.0
 40
0.0136700518
 41
3.14259092381661
 42
3.18377924608922
  0
ELLIPSE
  5
FE
330
1F
100
AcDbEntity
  8
0
  6
HIDDEN
 62
     7
370
    18
100
AcDbEllipse
 10
216.141054732
 20
95.5301952786
 30
0.0
 11
-0.3276336906980931
 21
2.982852189089542
 31
0.0
210
0.0
220
0.0
230
1.0
 40
0.0136700518
 41
3.183779246089188
 42
6.284183577405842
  0
ELLIPSE
  5
FF
330
1F
100
AcDbEntity
  8
0
  6
HIDDEN
 62
     7
370
    18
100
AcDbEllipse
 10
217.9568504311
 20
95.8649259684
 30
0.0
 11
-0.3276336906980931
 21
2.982852189089542
 31
0.0
210
0.0
220
0.0
230
1.0
 40
0.0136700518
 41
0.0
 42
6.283185307179586
  0
LWPOLYLINE
  5
100
330
1F
100
AcDbEntity
  8
0
  6
HIDDEN
 62
     7
370
    18
100
AcDbPolyline
 90
       30
 70
   128
 43
0.0
 10
218.0609868522
 20
95.206710727
 10
218.1142672285
 20
94.7147696887
 10
218.1635719511
 20
94.2458312666
 10
218.2065955861
 20
93.8218225001
 10
218.241326396
 20
93.462569568
 10
218.2661404068
 20
93.1848707379
 10
218.2798773429
 20
93.0017108986
 10
218.2818948805
 20
92.9216544006
 10
218.2720986818
 20
92.9484445968
 10
218.250946806
 20
93.0808288074
 10
218.2194282915
 20
93.3126168937
 10
218.1790169089
 20
93.6329707026
 10
218.1316022496
 20
94.0269108459
 10
218.0794013702
 20
94.4760171204
 10
218.0248551261
 20
94.9592898159
 10
217.9705140388
 20
95.4541316382
 10
217.9189190372
 20
95.9374043336
 10
217.8724826463
 20
96.3865106081
 10
217.8333761801
 20
96.7804507515
 10
217.8034282135
 20
97.1008045603
 10
217.78403908
 20
97.3325926467
 10
217.7761153942
 20
97.4649768572
 10
217.7800276586
 20
97.4917670534
 10
217.7955929402
 20
97.4117105554
 10
217.8220834237
 20
97.2285507162
 10
217.8582604435
 20
96.9508518861
 10
217.9024324024
 20
96.5915989539
 10
217.9525338687
 20
96.1675901874
 10
218.0062221535
 20
95.6986517653
 10
218.0609868522
 20
95.206710727
  0
LWPOLYLINE
  5
101
330
1F
100
AcDbEntity
  8
0
  6
HIDDEN
 62
     7
370
    18
100
AcDbPolyline
 90
       20
 70
   128
 43
0.0
 10
218.0424196826
 20
95.206710727
 10
218.0755769131
 20
94.8982722005
 10
218.1037131098
 20
94.6232577743
 10
218.1237792794
 20
94.4114695287
 10
218.1336009409
 20
94.2858580064
 10
218.1321137649
 20
94.2600351649
 10
218.1194789101
 20
94.3367993097
 10
218.097065559
 20
94.5078318546
 10
218.067302546
 20
94.7545987696
 10
218.0334151553
 20
95.0503590304
 10
217.9990756116
 20
95.3630624236
 10
217.9680051372
 20
95.6588226844
 10
217.9435707002
 20
95.9055895994
 10
217.928420151
 20
96.0766221444
 10
217.9241952865
 20
96.1533862892
 10
217.9313539366
 20
96.1275634476
 10
217.9491203503
 20
96.0019519253
 10
217.975569261
 20
95.7901636797
 10
218.0078345189
 20
95.5151492535
 10
218.0424196826
 20
95.206710727
  0
LWPOLYLINE
  5
102
330
1F
100
AcDbEntity
  8
0
  6
HIDDEN
 62
     7
370
    18
100
AcDbPolyline
 90
       20
 70
   128
 43
0.0
 10
216.2118637457
 20
95.0056498784
 10
216.1772785819
 20
95.3140884049
 10
216.145013324
 20
95.5891028311
 10
216.1185644133
 20
95.8008910767
 10
216.1007979996
 20
95.926502599
 10
216.0936393496
 20
95.9523254406
 10
216.097864214
 20
95.8755612958
 10
216.1130147633
 20
95.7045287508
 10
216.1374492003
 20
95.4577618358
 10
216.1685196747
 20
95.162001575
 10
216.2028592184
 20
94.8492981818
 10
216.236746609
 20
94.553537921
 10
216.2665096221
 20
94.306771006
 10
216.2889229732
 20
94.1357384611
 10
216.301557828
 20
94.0589743162
 10
216.3030450039
 20
94.0847971578
 10
216.2932233424
 20
94.2104086801
 10
216.2731571729
 20
94.4221969257
 10
216.2450209761
 20
94.6972113519
 10
216.2118637457
 20
95.0056498784
  0
ELLIPSE
  5
103
330
1F
100
AcDbEntity
  8
0
  6
HIDDEN
 62
     7
370
    18
100
AcDbEllipse
 10
225.3269509774
 20
17.4735096735
 30
0.0
 11
-0.327633690698093
 21
2.982852189089488
 31
0.0
210
0.0
220
0.0
230
1.0
 40
0.0136700518
 41
3.142590923816966
 42
3.183779246089061
  0
ELLIPSE
  5
104
330
1F
100
AcDbEntity
  8
0
  6
HIDDEN
 62
     7
370
    18
100
AcDbEllipse
 10
225.3269509774
 20
17.4735096735
 30
0.0
 11
-0.327633690698093
 21
2.982852189089488
 31
0.0
210
0.0
220
0.0
230
1.0
 40
0.0136700518
 41
3.183779246089028
 42
6.284183577405192
  0
ELLIPSE
  5
105
330
1F
100
AcDbEntity
  8
0
  6
HIDDEN
 62
     7
370
    18
100
AcDbEllipse
 10
227.1427466765
 20
17.8082403633
 30
0.0
 11
-0.327633690698093
 21
2.982852189089488
 31
0.0
210
0.0
220
0.0
230
1.0
 40
0.0136700518
 41
0.0
 42
6.283185307179586
  0
LWPOLYLINE
  5
106
330
1F
100
AcDbEntity
  8
0
  6
HIDDEN
 62
     7
370
    18
100
AcDbPolyline
 90
       30
 70
   128
 43
0.0
 10
227.2164034638
 20
17.4204730193
 10
227.2696838401
 20
16.928531981
 10
227.3189885627
 20
16.4595935589
 10
227.3620121977
 20
16.0355847924
 10
227.3967430076
 20
15.6763318603
 10
227.4215570184
 20
15.3986330302
 10
227.4352939545
 20
15.2154731909
 10
227.4373114921
 20
15.1354166929
 10
227.4275152934
 20
15.1622068891
 10
227.4063634176
 20
15.2945910997
 10
227.3748449031
 20
15.526379186
 10
227.3344335205
 20
15.8467329949
 10
227.2870188611
 20
16.2406731382
 10
227.2348179818
 20
16.6897794127
 10
227.1802717376
 20
17.1730521082
 10
227.1259306503
 20
17.6678939305
 10
227.0743356488
 20
18.1511666259
 10
227.0278992579
 20
18.6002729004
 10
226.9887927917
 20
18.9942130438
 10
226.958844825
 20
19.3145668526
 10
226.9394556916
 20
19.546354939
 10
226.9315320058
 20
19.6787391495
 10
226.9354442702
 20
19.7055293457
 10
226.9510095518
 20
19.6254728477
 10
226.9775000353
 20
19.4423130085
 10
227.0136770551
 20
19.1646141784
 10
227.057849014
 20
18.8053612462
 10
227.1079504803
 20
18.3813524797
 10
227.161638765
 20
17.9124140576
 10
227.2164034638
 20
17.4204730193
  0
LWPOLYLINE
  5
107
330
1F
100
AcDbEntity
  8
0
  6
HIDDEN
 62
     7
370
    18
100
AcDbPolyline
 90
       20
 70
   128
 43
0.0
 10
227.1978362942
 20
17.4204730193
 10
227.2309935247
 20
17.1120344928
 10
227.2591297214
 20
16.8370200666
 10
227.2791958909
 20
16.625231821
 10
227.2890175525
 20
16.4996202987
 10
227.2875303765
 20
16.4737974572
 10
227.2748955217
 20
16.550561602
 10
227.2524821706
 20
16.7215941469
 10
227.2227191576
 20
16.9683610619
 10
227.1888317669
 20
17.2641213227
 10
227.1544922232
 20
17.5768247159
 10
227.1234217488
 20
17.8725849767
 10
227.0989873118
 20
18.1193518917
 10
227.0838367625
 20
18.2903844367
 10
227.0796118981
 20
18.3671485815
 10
227.0867705482
 20
18.34132574
 10
227.1045369618
 20
18.2157142176
 10
227.1309858726
 20
18.003925972
 10
227.1632511305
 20
17.7289115458
 10
227.1978362942
 20
17.4204730193
  0
LWPOLYLINE
  5
108
330
1F
100
AcDbEntity
  8
0
  6
HIDDEN
 62
     7
370
    18
100
AcDbPolyline
 90
       20
 70
   128
 43
0.0
 10
225.3672803573
 20
17.2194121707
 10
225.3326951935
 20
17.5278506972
 10
225.3004299356
 20
17.8028651234
 10
225.2739810249
 20
18.014653369
 10
225.2562146112
 20
18.1402648913
 10
225.2490559612
 20
18.1660877329
 10
225.2532808256
 20
18.0893235881
 10
225.2684313749
 20
17.9182910431
 10
225.2928658119
 20
17.6715241281
 10
225.3239362862
 20
17.3757638673
 10
225.35827583
 20
17.0630604741
 10
225.3921632206
 20
16.7673002133
 10
225.4219262336
 20
16.5205332983
 10
225.4443395847
 20
16.3495007534
 10
225.4569744396
 20
16.2727366085
 10
225.4584616155
 20
16.2985594501
 10
225.448639954
 20
16.4241709724
 10
225.4285737845
 20
16.635959218
 10
225.4004375877
 20
16.9109736442
 10
225.3672803573
 20
17.2194121707
  0
LINE
  5
109
330
1F
100
AcDbEntity
  8
0
  6
HIDDEN
 62
     7
370
    18
100
AcDbLine
 10
217.7509795581
 20
106.2515861346
 30
0.0
 11
228.3586135573
 21
7.0
 31
0.0
  0
ELLIPSE
  5
10A
330
1F
100
AcDbEntity
  8
0
  6
HIDDEN
 62
     7
370
    18
100
AcDbEllipse
 10
216.6798067279
 20
98.1956529869
 30
0.0
 11
-0.327633690698093
 21
2.982852189089527
 31
0.0
210
0.0
220
0.0
230
1.0
 40
0.0136700518
 41
1.414369122235578
 42
3.183779246089159
  0
ELLIPSE
  5
10B
330
1F
100
AcDbEntity
  8
0
  6
HIDDEN
 62
     7
370
    18
100
AcDbEllipse
 10
216.6798067279
 20
98.1956529869
 30
0.0
 11
-0.327633690698093
 21
2.982852189089527
 31
0.0
210
0.0
220
0.0
230
1.0
 40
0.0136700518
 41
3.183779246089094
 42
6.284183577405971
  0
ELLIPSE
  5
10C
330
1F
100
AcDbEntity
  8
0
  6
HIDDEN
 62
     7
370
    18
100
AcDbEllipse
 10
218.4956024269
 20
98.5303836767
 30
0.0
 11
-0.327633690698093
 21
2.982852189089555
 31
0.0
210
0.0
220
0.0
230
1.0
 40
0.0136700518
 41
0.0
 42
6.283185307179586
  0
LWPOLYLINE
  5
10D
330
1F
100
AcDbEntity
  8
0
  6
HIDDEN
 62
     7
370
    18
100
AcDbPolyline
 90
       30
 70
   128
 43
0.0
 10
218.5763987853
 20
98.0591627046
 10
218.6296791616
 20
97.5672216663
 10
218.6789838842
 20
97.0982832442
 10
218.7220075192
 20
96.6742744777
 10
218.7567383291
 20
96.3150215455
 10
218.7815523399
 20
96.0373227154
 10
218.795289276
 20
95.8541628762
 10
218.7973068136
 20
95.7741063782
 10
218.7875106149
 20
95.8008965744
 10
218.7663587391
 20
95.9332807849
 10
218.7348402246
 20
96.1650688713
 10
218.694428842
 20
96.4854226801
 10
218.6470141826
 20
96.8793628235
 10
218.5948133033
 20
97.328469098
 10
218.5402670591
 20
97.8117417934
 10
218.4859259718
 20
98.3065836157
 10
218.4343309703
 20
98.7898563112
 10
218.3878945794
 20
99.2389625857
 10
218.3487881132
 20
99.632902729
 10
218.3188401465
 20
99.9532565379
 10
218.2994510131
 20
100.1850446242
 10
218.2915273273
 20
100.3174288348
 10
218.2954395917
 20
100.344219031
 10
218.3110048733
 20
100.264162533
 10
218.3374953568
 20
100.0810026937
 10
218.3736723766
 20
99.8033038636
 10
218.4178443355
 20
99.4440509315
 10
218.4679458018
 20
99.020042165
 10
218.5216340865
 20
98.5511037429
 10
218.5763987853
 20
98.0591627046
  0
LWPOLYLINE
  5
10E
330
1F
100
AcDbEntity
  8
0
  6
HIDDEN
 62
     7
370
    18
100
AcDbPolyline
 90
       20
 70
   128
 43
0.0
 10
218.5578316157
 20
98.0591627046
 10
218.5909888462
 20
97.7507241781
 10
218.6191250429
 20
97.4757097519
 10
218.6391912124
 20
97.2639215063
 10
218.649012874
 20
97.1383099839
 10
218.647525698
 20
97.1124871424
 10
218.6348908432
 20
97.1892512872
 10
218.6124774921
 20
97.3602838322
 10
218.5827144791
 20
97.6070507472
 10
218.5488270884
 20
97.902811008
 10
218.5144875447
 20
98.2155144012
 10
218.4834170703
 20
98.511274662
 10
218.4589826333
 20
98.758041577
 10
218.443832084
 20
98.9290741219
 10
218.4396072196
 20
99.0058382667
 10
218.4467658696
 20
98.9800154252
 10
218.4645322833
 20
98.8544039029
 10
218.4909811941
 20
98.6426156573
 10
218.523246452
 20
98.3676012311
 10
218.5578316157
 20
98.0591627046
  0
LWPOLYLINE
  5
10F
330
1F
100
AcDbEntity
  8
0
  6
HIDDEN
 62
     7
370
    18
100
AcDbPolyline
 90
       20
 70
   128
 43
0.0
 10
216.7272756788
 20
97.8581018559
 10
216.692690515
 20
98.1665403824
 10
216.6604252571
 20
98.4415548087
 10
216.6339763464
 20
98.6533430542
 10
216.6162099327
 20
98.7789545766
 10
216.6090512827
 20
98.8047774181
 10
216.6132761471
 20
98.7280132733
 10
216.6284266964
 20
98.5569807283
 10
216.6528611334
 20
98.3102138134
 10
216.6839316077
 20
98.0144535525
 10
216.7182711514
 20
97.7017501593
 10
216.7521585421
 20
97.4059898985
 10
216.7819215551
 20
97.1592229835
 10
216.8043349062
 20
96.9881904386
 10
216.8169697611
 20
96.9114262938
 10
216.818456937
 20
96.9372491353
 10
216.8086352755
 20
97.0628606576
 10
216.7885691059
 20
97.2746489032
 10
216.7604329092
 20
97.5496633295
 10
216.7272756788
 20
97.8581018559
  0
LINE
  5
110
330
1F
100
AcDbEntity
  8
0
  6
HIDDEN
 62
     7
370
    18
100
AcDbLine
 10
217.6291761984
 20
98.8477722002
 30
0.0
 11
217.5519880707
 21
98.8335430469
 31
0.0
  0
LINE
  5
111
330
1F
100
AcDbEntity
  8
0
  6
HIDDEN
 62
     7
370
    18
100
AcDbLine
 10
218.2127649488
 20
92.8688512776
 30
0.0
 11
218.2845246637
 21
92.8820797366
 31
0.0
  0
LINE
  5
112
330
1F
100
AcDbEntity
  8
0
  6
HIDDEN
 62
     7
370
    18
100
AcDbLine
 10
218.2805923462
 20
92.9183008398
 30
0.0
 11
220.1111482832
 21
93.1193616884
 31
0.0
  0
LINE
  5
113
330
1F
100
AcDbEntity
  8
0
  6
HIDDEN
 62
     7
370
    18
100
AcDbLine
 10
219.6084489396
 20
97.6961814629
 30
0.0
 11
217.7778930027
 21
97.4951206143
 31
0.0
  0
LINE
  5
114
330
1F
100
AcDbEntity
  8
0
  6
HIDDEN
 62
     7
370
    18
100
AcDbLine
 10
216.3030219862
 20
94.0557309342
 30
0.0
 11
218.1335779232
 21
94.2567917828
 31
0.0
  0
LINE
  5
115
330
1F
100
AcDbEntity
  8
0
  6
HIDDEN
 62
     7
370
    18
100
AcDbLine
 10
217.9249074257
 20
96.1566296712
 30
0.0
 11
216.0943514887
 21
95.9555688226
 31
0.0
  0
LINE
  5
116
330
1F
100
AcDbEntity
  8
0
  6
HIDDEN
 62
     7
370
    18
100
AcDbLine
 10
226.8150724438
 20
20.7910865951
 30
0.0
 11
226.675026156
 21
20.7652699294
 31
0.0
  0
LINE
  5
117
330
1F
100
AcDbEntity
  8
0
  6
HIDDEN
 62
     7
370
    18
100
AcDbLine
 10
227.4105885405
 20
14.814364405
 30
0.0
 11
227.4704209091
 21
14.8253941315
 31
0.0
  0
LINE
  5
118
330
1F
100
AcDbEntity
  8
0
  6
HIDDEN
 62
     7
370
    18
100
AcDbLine
 10
227.4360089578
 20
15.1320631321
 30
0.0
 11
229.2665648948
 21
15.3331239807
 31
0.0
  0
LINE
  5
119
330
1F
100
AcDbEntity
  8
0
  6
HIDDEN
 62
     7
370
    18
100
AcDbLine
 10
228.7638655512
 20
19.9099437552
 30
0.0
 11
226.9333096142
 21
19.7088829066
 31
0.0
  0
LINE
  5
11A
330
1F
100
AcDbEntity
  8
0
  6
HIDDEN
 62
     7
370
    18
100
AcDbLine
 10
225.4584385978
 20
16.2694932265
 30
0.0
 11
227.2889945348
 21
16.4705540751
 31
0.0
  0
LINE
  5
11B
330
1F
100
AcDbEntity
  8
0
  6
HIDDEN
 62
     7
370
    18
100
AcDbLine
 10
227.0803240373
 20
18.3703919635
 30
0.0
 11
225.2497681003
 21
18.1693311149
 31
0.0
  0
LINE
  5
11C
330
1F
100
AcDbEntity
  8
0
  6
HIDDEN
 62
     7
370
    18
100
AcDbLine
 10
218.1679281943
 20
101.5132299085
 30
0.0
 11
217.2733966227
 21
101.3483285542
 31
0.0
  0
LINE
  5
11D
330
1F
100
AcDbEntity
  8
0
  6
HIDDEN
 62
     7
370
    18
100
AcDbLine
 10
217.0074809605
 20
95.2128067551
 30
0.0
 11
218.8232766596
 21
95.5475374449
 31
0.0
  0
LINE
  5
11E
330
1F
100
AcDbEntity
  8
0
  6
HIDDEN
 62
     7
370
    18
100
AcDbLine
 10
218.7960042793
 20
95.7707528173
 30
0.0
 11
220.6265602163
 21
95.971813666
 31
0.0
  0
LINE
  5
11F
330
1F
100
AcDbEntity
  8
0
  6
HIDDEN
 62
     7
370
    18
100
AcDbLine
 10
220.1238608727
 20
100.5486334404
 30
0.0
 11
218.2933049357
 21
100.3475725918
 31
0.0
  0
LINE
  5
120
330
1F
100
AcDbEntity
  8
0
  6
HIDDEN
 62
     7
370
    18
100
AcDbLine
 10
216.8184339193
 20
96.9081829118
 30
0.0
 11
218.6489898563
 21
97.1092437604
 31
0.0
  0
LINE
  5
121
330
1F
100
AcDbEntity
  8
0
  6
HIDDEN
 62
     7
370
    18
100
AcDbLine
 10
218.4403193588
 20
99.0090816488
 30
0.0
 11
216.6097634218
 21
98.8080208001
 31
0.0
  0
ENDSEC
  0
SECTION
  2
OBJECTS
  0
DICTIONARY
  5
C
330
0
100
AcDbDictionary
281
     1
  3
ACAD_GROUP
350
D
  3
ACAD_LAYOUT
350
1A
  3
ACAD_MLINESTYLE
350
17
  3
ACAD_PLOTSETTINGS
350
19
  3
ACAD_PLOTSTYLENAME
350
E
  3
ACAD_SCALELIST
350
47
  3
DWGPROPS
350
122
  0
DICTIONARY
  5
D
102
{ACAD_REACTORS
330
C
102
}
330
C
100
AcDbDictionary
281
     1
  0
DICTIONARY
  5
1A
102
{ACAD_REACTORS
330
C
102
}
330
C
100
AcDbDictionary
281
     1
  3
Layout1
350
1E
  3
Layout2
350
26
  3
Model
350
22
  0
DICTIONARY
  5
17
102
{ACAD_REACTORS
330
C
102
}
330
C
100
AcDbDictionary
281
     1
  3
Standard
350
18
  0
DICTIONARY
  5
19
102
{ACAD_REACTORS
330
C
102
}
330
C
100
AcDbDictionary
281
     1
  0
ACDBDICTIONARYWDFLT
  5
E
102
{ACAD_REACTORS
330
C
102
}
330
C
100
AcDbDictionary
281
     1
  3
Normal
350
F
100
AcDbDictionaryWithDefault
340
F
  0
DICTIONARY
  5
47
102
{ACAD_REACTORS
330
C
102
}
330
C
100
AcDbDictionary
281
     1
  3
A0
350
48
  3
A1
350
49
  3
A2
350
4A
  3
A3
350
4B
  3
A4
350
4C
  3
A5
350
4D
  3
A6
350
4E
  3
A7
350
4F
  3
A8
350
50
  3
A9
350
51
  3
B0
350
52
  3
B1
350
53
  3
B2
350
54
  3
B3
350
55
  3
B4
350
56
  3
B5
350
57
  3
B6
350
58
  0
XRECORD
  5
122
102
{ACAD_REACTORS
330
C
102
}
330
C
100
AcDbXrecord
280
     1
  1
DWGPROPS COOKIE
  2

  3

  4

  6

  7

  8

  9

300
=
301
=
302
=
303
=
304
=
305
=
306
=
307
=
308
=
309
=
 40
0.0
 41
2461214.107393044
 42
2461214.107393206
  1

 90
        0
  0
LAYOUT
  5
1E
102
{ACAD_REACTORS
330
1A
102
}
330
1A
100
AcDbPlotSettings
  1

  2
none_device
  4

  6

 40
0.0
 41
0.0
 42
0.0
 43
0.0
 44
0.0
 45
0.0
 46
0.0
 47
0.0
 48
0.0
 49
0.0
140
0.0
141
0.0
142
1.0
143
1.0
 70
   688
 72
     1
 73
     0
 74
     5
  7

 75
    16
147
1.0
148
0.0
149
0.0
100
AcDbLayout
  1
Layout1
 70
     1
 71
     1
 10
0.0
 20
0.0
 11
420.0
 21
297.0
 12
0.0
 22
0.0
 32
0.0
 14
1.0000000000E+20
 24
1.0000000000E+20
 34
1.0000000000E+20
 15
-1.0000000000E+20
 25
-1.0000000000E+20
 35
-1.0000000000E+20
146
0.0
 13
0.0
 23
0.0
 33
0.0
 16
1.0
 26
0.0
 36
0.0
 17
0.0
 27
1.0
 37
0.0
 76
     0
330
1B
  0
LAYOUT
  5
26
102
{ACAD_REACTORS
330
1A
102
}
330
1A
100
AcDbPlotSettings
  1

  2
none_device
  4

  6

 40
0.0
 41
0.0
 42
0.0
 43
0.0
 44
0.0
 45
0.0
 46
0.0
 47
0.0
 48
0.0
 49
0.0
140
0.0
141
0.0
142
1.0
143
1.0
 70
   688
 72
     1
 73
     0
 74
     5
  7

 75
    16
147
1.0
148
0.0
149
0.0
100
AcDbLayout
  1
Layout2
 70
     1
 71
     2
 10
0.0
 20
0.0
 11
0.0
 21
0.0
 12
0.0
 22
0.0
 32
0.0
 14
0.0
 24
0.0
 34
0.0
 15
0.0
 25
0.0
 35
0.0
146
0.0
 13
0.0
 23
0.0
 33
0.0
 16
1.0
 26
0.0
 36
0.0
 17
0.0
 27
1.0
 37
0.0
 76
     0
330
23
  0
LAYOUT
  5
22
102
{ACAD_REACTORS
330
1A
102
}
330
1A
100
AcDbPlotSettings
  1

  2
none_device
  4
Letter_(8.50_x_11.00_Inches)
  6

 40
6.35
 41
6.35
 42
6.35000508
 43
6.35000508
 44
215.9
 45
279.4
 46
0.0
 47
0.0
 48
0.0
 49
0.0
140
0.0
141
0.0
142
1.0
143
1.0
 70
  1712
 72
     1
 73
     0
 74
     0
  7

 75
     0
147
1.0
148
0.0
149
0.0
100
AcDbLayout
  1
Model
 70
     1
 71
     0
 10
0.0
 20
0.0
 11
297.0
 21
210.0
 12
0.0
 22
0.0
 32
0.0
 14
0.0
 24
0.0
 34
0.0
 15
297.0
 25
210.0
 35
0.0
146
0.0
 13
0.0
 23
0.0
 33
0.0
 16
1.0
 26
0.0
 36
0.0
 17
0.0
 27
1.0
 37
0.0
 76
     0
330
1F
331
29
  0
MLINESTYLE
  5
18
102
{ACAD_REACTORS
330
17
102
}
330
17
100
AcDbMlineStyle
  2
Standard
 70
     0
  3

 62
   256
 51
90.0
 52
90.0
 71
     2
 49
0.5
 62
   256
  6
BYLAYER
 49
-0.5
 62
   256
  6
BYLAYER
  0
ACDBPLACEHOLDER
  5
F
102
{ACAD_REACTORS
330
E
102
}
330
E
  0
SCALE
  5
48
102
{ACAD_REACTORS
330
47
102
}
330
47
100
AcDbScale
 70
     0
300
1:1
140
1.0
141
1.0
290
     1
  0
SCALE
  5
49
102
{ACAD_REACTORS
330
47
102
}
330
47
100
AcDbScale
 70
     0
300
1:2
140
1.0
141
2.0
290
     0
  0
SCALE
  5
4A
102
{ACAD_REACTORS
330
47
102
}
330
47
100
AcDbScale
 70
     0
300
1:4
140
1.0
141
4.0
290
     0
  0
SCALE
  5
4B
102
{ACAD_REACTORS
330
47
102
}
330
47
100
AcDbScale
 70
     0
300
1:5
140
1.0
141
5.0
290
     0
  0
SCALE
  5
4C
102
{ACAD_REACTORS
330
47
102
}
330
47
100
AcDbScale
 70
     0
300
1:8
140
1.0
141
8.0
290
     0
  0
SCALE
  5
4D
102
{ACAD_REACTORS
330
47
102
}
330
47
100
AcDbScale
 70
     0
300
1:10
140
1.0
141
10.0
290
     0
  0
SCALE
  5
4E
102
{ACAD_REACTORS
330
47
102
}
330
47
100
AcDbScale
 70
     0
300
1:16
140
1.0
141
16.0
290
     0
  0
SCALE
  5
4F
102
{ACAD_REACTORS
330
47
102
}
330
47
100
AcDbScale
 70
     0
300
1:20
140
1.0
141
20.0
290
     0
  0
SCALE
  5
50
102
{ACAD_REACTORS
330
47
102
}
330
47
100
AcDbScale
 70
     0
300
1:30
140
1.0
141
30.0
290
     0
  0
SCALE
  5
51
102
{ACAD_REACTORS
330
47
102
}
330
47
100
AcDbScale
 70
     0
300
1:40
140
1.0
141
40.0
290
     0
  0
SCALE
  5
52
102
{ACAD_REACTORS
330
47
102
}
330
47
100
AcDbScale
 70
     0
300
1:50
140
1.0
141
50.0
290
     0
  0
SCALE
  5
53
102
{ACAD_REACTORS
330
47
102
}
330
47
100
AcDbScale
 70
     0
300
1:100
140
1.0
141
100.0
290
     0
  0
SCALE
  5
54
102
{ACAD_REACTORS
330
47
102
}
330
47
100
AcDbScale
 70
     0
300
2:1
140
2.0
141
1.0
290
     0
  0
SCALE
  5
55
102
{ACAD_REACTORS
330
47
102
}
330
47
100
AcDbScale
 70
     0
300
4:1
140
4.0
141
1.0
290
     0
  0
SCALE
  5
56
102
{ACAD_REACTORS
330
47
102
}
330
47
100
AcDbScale
 70
     0
300
8:1
140
8.0
141
1.0
290
     0
  0
SCALE
  5
57
102
{ACAD_REACTORS
330
47
102
}
330
47
100
AcDbScale
 70
     0
300
10:1
140
10.0
141
1.0
290
     0
  0
SCALE
  5
58
102
{ACAD_REACTORS
330
47
102
}
330
47
100
AcDbScale
 70
     0
300
100:1
140
100.0
141
1.0
290
     0
  0
ENDSEC
  0
EOF
