  0
SECTION
  2
HEADER
  9
$ACADVER
  1
AC1015
  9
$ACADMAINTVER
 70
     6
  9
$DWGCODEPAGE
  3
ANSI_936
  9
$INSBASE
 10
0.0
 20
0.0
 30
0.0
  9
$EXTMIN
 10
0.0
 20
0.0
 30
0.0
  9
$EXTMAX
 10
297.0
 20
210.0
 30
0.0
  9
$LIMMIN
 10
0.0
 20
0.0
  9
$LIMMAX
 10
297.0
 20
210.0
  9
$ORTHOMODE
 70
     0
  9
$REGENMODE
 70
     1
  9
$FILLMODE
 70
     1
  9
$QTEXTMODE
 70
     0
  9
$MIRRTEXT
 70
     1
  9
$LTSCALE
 40
1.0
  9
$ATTMODE
 70
     1
  9
$TEXTSIZE
 40
3.5
  9
$TRACEWID
 40
1.0
  9
$TEXTSTYLE
  7
Standard
  9
$CLAYER
  8
0
  9
$CELTYPE
  6
ByLayer
  9
$CECOLOR
 62
   256
  9
$CELTSCALE
 40
1.0
  9
$DISPSILH
 70
     0
  9
$DIMSCALE
 40
1.0
  9
$DIMASZ
 40
4.08
  9
$DIMEXO
 40
0.0
  9
$DIMDLI
 40
3.75
  9
$DIMRND
 40
0.0
  9
$DIMDLE
 40
0.0
  9
$DIMEXE
 40
2.0
  9
$DIMTP
 40
0.0
  9
$DIMTM
 40
0.0
  9
$DIMTXT
 40
3.5
  9
$DIMCEN
 40
2.5
  9
$DIMTSZ
 40
0.0
  9
$DIMTOL
 70
     0
  9
$DIMLIM
 70
     0
  9
$DIMTIH
 70
     1
  9
$DIMTOH
 70
     1
  9
$DIMSE1
 70
     0
  9
$DIMSE2
 70
     0
  9
$DIMTAD
 70
     1
  9
$DIMZIN
 70
     0
  9
$DIMBLK
  1

  9
$DIMASO
 70
     1
  9
$DIMSHO
 70
     1
  9
$DIMPOST
  1

  9
$DIMAPOST
  1

  9
$DIMALT
 70
     0
  9
$DIMALTD
 70
     3
  9
$DIMALTF
 40
0.0393700787
  9
$DIMLFAC
 40
2.0
  9
$DIMTOFL
 70
     1
  9
$DIMTVP
 40
0.0
  9
$DIMTIX
 70
     0
  9
$DIMSOXD
 70
     0
  9
$DIMSAH
 70
     0
  9
$DIMBLK1
  1

  9
$DIMBLK2
  1

  9
$DIMSTYLE
  2
ISO-25
  9
$DIMCLRD
 70
     0
  9
$DIMCLRE
 70
     0
  9
$DIMCLRT
 70
     0
  9
$DIMTFAC
 40
1.0
  9
$DIMGAP
 40
1.524
  9
$DIMJUST
 70
     0
  9
$DIMSD1
 70
     0
  9
$DIMSD2
 70
     0
  9
$DIMTOLJ
 70
     0
  9
$DIMTZIN
 70
     0
  9
$DIMALTZ
 70
     0
  9
$DIMALTTZ
 70
     0
  9
$DIMUPT
 70
     0
  9
$DIMDEC
 70
     2
  9
$DIMTDEC
 70
     2
  9
$DIMALTU
 70
     2
  9
$DIMALTTD
 70
     3
  9
$DIMTXSTY
  7
Standard
  9
$DIMAUNIT
 70
     0
  9
$DIMADEC
 70
     2
  9
$DIMALTRND
 40
0.0
  9
$DIMAZIN
 70
     0
  9
$DIMDSEP
 70
    44
  9
$DIMATFIT
 70
     3
  9
$DIMFRAC
 70
     0
  9
$DIMLDRBLK
  1

  9
$DIMLUNIT
 70
     2
  9
$DIMLWD
 70
    -2
  9
$DIMLWE
 70
    -2
  9
$DIMTMOVE
 70
     0
  9
$LUNITS
 70
     2
  9
$LUPREC
 70
     2
  9
$SKETCHINC
 40
1.0
  9
$FILLETRAD
 40
0.0
  9
$AUNITS
 70
     0
  9
$AUPREC
 70
     2
  9
$MENU
  1
.
  9
$ELEVATION
 40
0.0
  9
$PELEVATION
 40
0.0
  9
$THICKNESS
 40
0.0
  9
$LIMCHECK
 70
     0
  9
$CHAMFERA
 40
0.0
  9
$CHAMFERB
 40
0.0
  9
$CHAMFERC
 40
0.0
  9
$CHAMFERD
 40
0.0
  9
$SKPOLY
 70
     0
  9
$TDCREATE
 40
2461213.971281922
  9
$TDUCREATE
 40
2461213.637948588
  9
$TDUPDATE
 40
2461213.971282466
  9
$TDUUPDATE
 40
2461213.637949132
  9
$TDINDWG
 40
0.0000000116
  9
$TDUSRTIMER
 40
0.0000000116
  9
$USRTIMER
 70
     1
  9
$ANGBASE
 50
0.0
  9
$ANGDIR
 70
     0
  9
$PDMODE
 70
     0
  9
$PDSIZE
 40
-1.0
  9
$PLINEWID
 40
0.0
  9
$SPLFRAME
 70
     0
  9
$SPLINETYPE
 70
     6
  9
$SPLINESEGS
 70
     8
  9
$HANDSEED
  5
14B
  9
$SURFTAB1
 70
     6
  9
$SURFTAB2
 70
     6
  9
$SURFTYPE
 70
     6
  9
$SURFU
 70
     6
  9
$SURFV
 70
     6
  9
$UCSBASE
  2

  9
$UCSNAME
  2

  9
$UCSORG
 10
0.0
 20
0.0
 30
0.0
  9
$UCSXDIR
 10
1.0
 20
0.0
 30
0.0
  9
$UCSYDIR
 10
0.0
 20
1.0
 30
0.0
  9
$UCSORTHOREF
  2

  9
$UCSORTHOVIEW
 70
     0
  9
$UCSORGTOP
 10
0.0
 20
0.0
 30
0.0
  9
$UCSORGBOTTOM
 10
0.0
 20
0.0
 30
0.0
  9
$UCSORGLEFT
 10
0.0
 20
0.0
 30
0.0
  9
$UCSORGRIGHT
 10
0.0
 20
0.0
 30
0.0
  9
$UCSORGFRONT
 10
0.0
 20
0.0
 30
0.0
  9
$UCSORGBACK
 10
0.0
 20
0.0
 30
0.0
  9
$PUCSBASE
  2

  9
$PUCSNAME
  2

  9
$PUCSORG
 10
0.0
 20
0.0
 30
0.0
  9
$PUCSXDIR
 10
1.0
 20
0.0
 30
0.0
  9
$PUCSYDIR
 10
0.0
 20
1.0
 30
0.0
  9
$PUCSORTHOREF
  2

  9
$PUCSORTHOVIEW
 70
     0
  9
$PUCSORGTOP
 10
0.0
 20
0.0
 30
0.0
  9
$PUCSORGBOTTOM
 10
0.0
 20
0.0
 30
0.0
  9
$PUCSORGLEFT
 10
0.0
 20
0.0
 30
0.0
  9
$PUCSORGRIGHT
 10
0.0
 20
0.0
 30
0.0
  9
$PUCSORGFRONT
 10
0.0
 20
0.0
 30
0.0
  9
$PUCSORGBACK
 10
0.0
 20
0.0
 30
0.0
  9
$USERI1
 70
     0
  9
$USERI2
 70
     0
  9
$USERI3
 70
     0
  9
$USERI4
 70
     0
  9
$USERI5
 70
     0
  9
$USERR1
 40
0.0
  9
$USERR2
 40
0.0
  9
$USERR3
 40
0.0
  9
$USERR4
 40
0.0
  9
$USERR5
 40
0.0
  9
$WORLDVIEW
 70
     1
  9
$SHADEDGE
 70
     3
  9
$SHADEDIF
 70
    70
  9
$TILEMODE
 70
     1
  9
$MAXACTVP
 70
    64
  9
$PINSBASE
 10
0.0
 20
0.0
 30
0.0
  9
$PLIMCHECK
 70
     0
  9
$PEXTMIN
 10
1.0000000000E+20
 20
1.0000000000E+20
 30
1.0000000000E+20
  9
$PEXTMAX
 10
-1.0000000000E+20
 20
-1.0000000000E+20
 30
-1.0000000000E+20
  9
$PLIMMIN
 10
0.0
 20
0.0
  9
$PLIMMAX
 10
420.0
 20
297.0
  9
$UNITMODE
 70
     0
  9
$VISRETAIN
 70
     1
  9
$PLINEGEN
 70
     0
  9
$PSLTSCALE
 70
     1
  9
$TREEDEPTH
 70
  3020
  9
$CMLSTYLE
  2
Standard
  9
$CMLJUST
 70
     0
  9
$CMLSCALE
 40
20.0
  9
$PROXYGRAPHICS
 70
     1
  9
$MEASUREMENT
 70
     1
  9
$CELWEIGHT
370
    -1
  9
$ENDCAPS
280
     0
  9
$JOINSTYLE
280
     0
  9
$LWDISPLAY
290
     1
  9
$INSUNITS
 70
     4
  9
$HYPERLINKBASE
  1

  9
$STYLESHEET
  1

  9
$XEDIT
290
     1
  9
$CEPSNTYPE
380
     0
  9
$PSTYLEMODE
290
     1
  9
$FINGERPRINTGUID
  2
{ffeb39bd-f775-4c7e-a6e1-34ce4da24b90}
  9
$VERSIONGUID
  2
{FAEB1C32-E019-11D5-929B-00C0DF256EC4}
  9
$EXTNAMES
290
     1
  9
$PSVPSCALE
 40
0.0
  9
$OLESTARTUP
290
     0
  0
ENDSEC
  0
SECTION
  2
CLASSES
  0
CLASS
  1
ACDBDICTIONARYWDFLT
  2
AcDbDictionaryWithDefault
  3
ObjectDBX Classes
 90
        0
280
     0
281
     0
  0
CLASS
  1
VISUALSTYLE
  2
AcDbVisualStyle
  3
ObjectDBX Classes
 90
     4095
280
     0
281
     0
  0
CLASS
  1
MATERIAL
  2
AcDbMaterial
  3
ObjectDBX Classes
 90
     1153
280
     0
281
     0
  0
CLASS
  1
SCALE
  2
AcDbScale
  3
ObjectDBX Classes
 90
     1153
280
     0
281
     0
  0
CLASS
  1
TABLESTYLE
  2
AcDbTableStyle
  3
ObjectDBX Classes
 90
     4095
280
     0
281
     0
  0
CLASS
  1
MLEADERSTYLE
  2
AcDbMLeaderStyle
  3
ACDB_MLEADERSTYLE_CLASS
 90
     4095
280
     0
281
     0
  0
CLASS
  1
SUN
  2
AcDbSun
  3
SCENEOE
 90
     1153
280
     0
281
     0
  0
CLASS
  1
ACDBPLACEHOLDER
  2
AcDbPlaceHolder
  3
ObjectDBX Classes
 90
        0
280
     0
281
     0
  0
CLASS
  1
LAYOUT
  2
AcDbLayout
  3
ObjectDBX Classes
 90
        0
280
     0
281
     0
  0
ENDSEC
  0
SECTION
  2
TABLES
  0
TABLE
  2
VPORT
  5
8
330
0
100
AcDbSymbolTable
 70
     1
  0
VPORT
  5
29
330
8
100
AcDbSymbolTableRecord
100
AcDbViewportTableRecord
  2
*Active
 70
     0
 10
0.0
 20
0.0
 11
1.0
 21
1.0
 12
148.5
 22
105.0
 13
0.0
 23
0.0
 14
10.0
 24
10.0
 15
10.0
 25
10.0
 16
0.0
 26
0.0
 36
1.0
 17
0.0
 27
0.0
 37
0.0
 40
210.0
 41
1.4142857143
 42
50.0
 43
0.0
 44
0.0
 50
0.0
 51
0.0
 71
     0
 72
  2000
 73
     1
 74
     3
 75
     0
 76
     0
 77
     0
 78
     0
281
     0
 65
     1
110
0.0
120
0.0
130
0.0
111
1.0
121
0.0
131
0.0
112
0.0
122
1.0
132
0.0
 79
     0
146
0.0
  0
ENDTAB
  0
TABLE
  2
LTYPE
  5
5
330
0
100
AcDbSymbolTable
 70
     6
  0
LTYPE
  5
14
330
5
100
AcDbSymbolTableRecord
100
AcDbLinetypeTableRecord
  2
ByBlock
 70
     0
  3

 72
    65
 73
     0
 40
0.0
  0
LTYPE
  5
15
330
5
100
AcDbSymbolTableRecord
100
AcDbLinetypeTableRecord
  2
ByLayer
 70
     0
  3

 72
    65
 73
     0
 40
0.0
  0
LTYPE
  5
16
330
5
100
AcDbSymbolTableRecord
100
AcDbLinetypeTableRecord
  2
Continuous
 70
     0
  3
Solid line
 72
    65
 73
     0
 40
0.0
  0
LTYPE
  5
5E
330
5
100
AcDbSymbolTableRecord
100
AcDbLinetypeTableRecord
  2
HIDDEN
 70
     0
  3
Hidden __ __ __ __ __ __ __ __ __ __ __ __ __ __
 72
    65
 73
     2
 40
1.905
 49
1.27
 74
     0
 49
-0.635
 74
     0
  0
LTYPE
  5
5F
330
5
100
AcDbSymbolTableRecord
100
AcDbLinetypeTableRecord
  2
PHANTOM
 70
     0
  3
Phantom ______  __  __  ______  __  __  ______
 72
    65
 73
     6
 40
12.7
 49
6.35
 74
     0
 49
-1.27
 74
     0
 49
1.27
 74
     0
 49
-1.27
 74
     0
 49
1.27
 74
     0
 49
-1.27
 74
     0
  0
LTYPE
  5
60
330
5
100
AcDbSymbolTableRecord
100
AcDbLinetypeTableRecord
  2
CENTER
 70
     0
  3
Center ____ _ ____ _ ____ _ ____ _ ____ _ ____
 72
    65
 73
     4
 40
10.16
 49
6.35
 74
     0
 49
-1.27
 74
     0
 49
1.27
 74
     0
 49
-1.27
 74
     0
  0
LTYPE
  5
61
330
5
100
AcDbSymbolTableRecord
100
AcDbLinetypeTableRecord
  2
CENTERX2
 70
     0
  3
Center (2x) ________  __  ________  __  _____
 72
    65
 73
     4
 40
20.32
 49
12.7
 74
     0
 49
-2.54
 74
     0
 49
2.54
 74
     0
 49
-2.54
 74
     0
  0
LTYPE
  5
62
330
5
100
AcDbSymbolTableRecord
100
AcDbLinetypeTableRecord
  2
DOT2
 70
     0
  3
Dot (.5x) ........................................
 72
    65
 73
     2
 40
0.635
 49
0.0
 74
     0
 49
-0.635
 74
     0
  0
ENDTAB
  0
TABLE
  2
LAYER
  5
2
330
0
100
AcDbSymbolTable
 70
    14
  0
LAYER
  5
10
330
2
100
AcDbSymbolTableRecord
100
AcDbLayerTableRecord
  2
0
 70
     0
 62
     7
  6
Continuous
370
    -3
390
F
  0
LAYER
  5
63
330
2
100
AcDbSymbolTableRecord
100
AcDbLayerTableRecord
  2
SLD-0
 70
     0
 62
     7
  6
Continuous
370
    -3
390
F
  0
LAYER
  5
64
330
2
100
AcDbSymbolTableRecord
100
AcDbLayerTableRecord
  2
5
 70
     0
 62
     7
  6
Continuous
370
    -3
390
F
  0
LAYER
  5
65
330
2
100
AcDbSymbolTableRecord
100
AcDbLayerTableRecord
  2
9
 70
     0
 62
     7
  6
Continuous
370
    -3
390
F
  0
LAYER
  5
66
330
2
100
AcDbSymbolTableRecord
100
AcDbLayerTableRecord
  2
10
 70
     0
 62
     7
  6
Continuous
370
    -3
390
F
  0
LAYER
  5
67
330
2
100
AcDbSymbolTableRecord
100
AcDbLayerTableRecord
  2
轮廓实线层
 70
     0
 62
     7
  6
Continuous
370
    50
390
F
  0
LAYER
  5
68
330
2
100
AcDbSymbolTableRecord
100
AcDbLayerTableRecord
  2
细线层
 70
     0
 62
     4
  6
Continuous
370
    25
390
F
  0
LAYER
  5
69
330
2
100
AcDbSymbolTableRecord
100
AcDbLayerTableRecord
  2
中心线层
 70
     0
 62
     1
  6
CENTERX2
370
    25
390
F
  0
LAYER
  5
6A
330
2
100
AcDbSymbolTableRecord
100
AcDbLayerTableRecord
  2
虚线层
 70
     0
 62
     6
  6
HIDDEN
370
    25
390
F
  0
LAYER
  5
6B
330
2
100
AcDbSymbolTableRecord
100
AcDbLayerTableRecord
  2
剖面线层
 70
     0
 62
     2
  6
Continuous
370
    25
390
F
  0
LAYER
  5
6C
330
2
100
AcDbSymbolTableRecord
100
AcDbLayerTableRecord
  2
文字层
 70
     0
 62
     3
  6
Continuous
370
    25
390
F
  0
LAYER
  5
6D
330
2
100
AcDbSymbolTableRecord
100
AcDbLayerTableRecord
  2
标注层
 70
     0
 62
     4
  6
Continuous
370
    25
390
F
  0
LAYER
  5
6E
330
2
100
AcDbSymbolTableRecord
100
AcDbLayerTableRecord
  2
符号标注层
 70
     0
 62
    31
  6
Continuous
370
    25
390
F
  0
LAYER
  5
6F
330
2
100
AcDbSymbolTableRecord
100
AcDbLayerTableRecord
  2
双点划线层
 70
     0
 62
     6
  6
PHANTOM
370
    25
390
F
  0
ENDTAB
  0
TABLE
  2
STYLE
  5
3
330
0
100
AcDbSymbolTable
 70
     1
  0
STYLE
  5
11
330
3
100
AcDbSymbolTableRecord
100
AcDbTextStyleTableRecord
  2
Standard
 70
     0
 40
0.0
 41
1.0
 50
0.0
 71
     0
 42
3.5
  3
txt
  4

  0
ENDTAB
  0
TABLE
  2
VIEW
  5
6
330
0
100
AcDbSymbolTable
 70
     0
  0
ENDTAB
  0
TABLE
  2
UCS
  5
7
330
0
100
AcDbSymbolTable
 70
     0
  0
ENDTAB
  0
TABLE
  2
APPID
  5
9
330
0
100
AcDbSymbolTable
 70
     1
  0
APPID
  5
12
330
9
100
AcDbSymbolTableRecord
100
AcDbRegAppTableRecord
  2
ACAD
 70
     0
  0
ENDTAB
  0
TABLE
  2
DIMSTYLE
  5
A
330
0
100
AcDbSymbolTable
 70
     1
100
AcDbDimStyleTable
  0
DIMSTYLE
105
27
330
A
100
AcDbSymbolTableRecord
100
AcDbDimStyleTableRecord
  2
ISO-25
 70
     0
 41
2.5
 42
0.625
 43
3.75
 44
1.25
 73
     0
 74
     0
 77
     1
 78
     8
140
2.5
141
2.5
143
0.0393700787
147
0.625
171
     3
172
     1
178
     0
271
     2
272
     2
274
     3
278
    44
283
     0
284
     8
340
11
  0
ENDTAB
  0
TABLE
  2
BLOCK_RECORD
  5
1
330
0
100
AcDbSymbolTable
 70
     3
  0
BLOCK_RECORD
  5
1F
330
1
100
AcDbSymbolTableRecord
100
AcDbBlockTableRecord
  2
*Model_Space
340
22
  0
BLOCK_RECORD
  5
1B
330
1
100
AcDbSymbolTableRecord
100
AcDbBlockTableRecord
  2
*Paper_Space
340
1E
  0
BLOCK_RECORD
  5
23
330
1
100
AcDbSymbolTableRecord
100
AcDbBlockTableRecord
  2
*Paper_Space0
340
26
  0
BLOCK_RECORD
  5
B6
330
1
100
AcDbSymbolTableRecord
100
AcDbBlockTableRecord
  2
SW_CENTERMARKSYMBOL_0
340
0
102
{BLKREFS
331
C1
102
}
  0
BLOCK_RECORD
  5
C2
330
1
100
AcDbSymbolTableRecord
100
AcDbBlockTableRecord
  2
SW_CENTERMARKSYMBOL_1
340
0
102
{BLKREFS
331
CD
102
}
  0
ENDTAB
  0
ENDSEC
  0
SECTION
  2
BLOCKS
  0
BLOCK
  5
20
330
1F
100
AcDbEntity
  8
0
100
AcDbBlockBegin
  2
*Model_Space
 70
     0
 10
0.0
 20
0.0
 30
0.0
  3
*Model_Space
  1

  0
ENDBLK
  5
21
330
1F
100
AcDbEntity
  8
0
100
AcDbBlockEnd
  0
BLOCK
  5
1C
330
1B
100
AcDbEntity
 67
     1
  8
0
100
AcDbBlockBegin
  2
*Paper_Space
 70
     0
 10
0.0
 20
0.0
 30
0.0
  3
*Paper_Space
  1

  0
ENDBLK
  5
1D
330
1B
100
AcDbEntity
 67
     1
  8
0
100
AcDbBlockEnd
  0
BLOCK
  5
24
330
23
100
AcDbEntity
  8
0
100
AcDbBlockBegin
  2
*Paper_Space0
 70
     0
 10
0.0
 20
0.0
 30
0.0
  3
*Paper_Space0
  1

  0
ENDBLK
  5
25
330
23
100
AcDbEntity
  8
0
100
AcDbBlockEnd
  0
BLOCK
  5
B7
330
B6
100
AcDbEntity
  8
0
100
AcDbBlockBegin
  2
SW_CENTERMARKSYMBOL_0
 70
     0
 10
0.0
 20
0.0
 30
0.0
  3
SW_CENTERMARKSYMBOL_0
  1

  0
LINE
  5
B9
330
B6
100
AcDbEntity
  8
10
 62
     0
100
AcDbLine
 10
0.0
 20
0.0
 30
0.0
 11
0.0
 21
2.5
 31
0.0
  0
LINE
  5
BA
330
B6
100
AcDbEntity
  8
10
 62
     0
100
AcDbLine
 10
0.0
 20
0.0
 30
0.0
 11
-2.5
 21
0.0
 31
0.0
  0
LINE
  5
BB
330
B6
100
AcDbEntity
  8
10
 62
     0
100
AcDbLine
 10
0.0
 20
0.0
 30
0.0
 11
0.0
 21
-2.5
 31
0.0
  0
LINE
  5
BC
330
B6
100
AcDbEntity
  8
10
 62
     0
100
AcDbLine
 10
0.0
 20
0.0
 30
0.0
 11
2.5
 21
0.0
 31
0.0
  0
LINE
  5
BD
330
B6
100
AcDbEntity
  8
10
 62
     0
100
AcDbLine
 10
0.0
 20
5.0
 30
0.0
 11
0.0
 21
8.7950441392
 31
0.0
  0
LINE
  5
BE
330
B6
100
AcDbEntity
  8
10
 62
     0
100
AcDbLine
 10
-5.0
 20
0.0
 30
0.0
 11
-8.7950441392
 21
0.0
 31
0.0
  0
LINE
  5
BF
330
B6
100
AcDbEntity
  8
10
 62
     0
100
AcDbLine
 10
0.0
 20
-5.0
 30
0.0
 11
0.0
 21
-8.7950441392
 31
0.0
  0
LINE
  5
C0
330
B6
100
AcDbEntity
  8
10
 62
     0
100
AcDbLine
 10
5.0
 20
0.0
 30
0.0
 11
8.7950441392
 21
0.0
 31
0.0
  0
ENDBLK
  5
B8
330
B6
100
AcDbEntity
  8
0
100
AcDbBlockEnd
  0
BLOCK
  5
C3
330
C2
100
AcDbEntity
  8
0
100
AcDbBlockBegin
  2
SW_CENTERMARKSYMBOL_1
 70
     0
 10
0.0
 20
0.0
 30
0.0
  3
SW_CENTERMARKSYMBOL_1
  1

  0
LINE
  5
C5
330
C2
100
AcDbEntity
  8
10
 62
     0
100
AcDbLine
 10
0.0
 20
0.0
 30
0.0
 11
0.0
 21
2.5
 31
0.0
  0
LINE
  5
C6
330
C2
100
AcDbEntity
  8
10
 62
     0
100
AcDbLine
 10
0.0
 20
0.0
 30
0.0
 11
-2.5
 21
0.0
 31
0.0
  0
LINE
  5
C7
330
C2
100
AcDbEntity
  8
10
 62
     0
100
AcDbLine
 10
0.0
 20
0.0
 30
0.0
 11
0.0
 21
-2.5
 31
0.0
  0
LINE
  5
C8
330
C2
100
AcDbEntity
  8
10
 62
     0
100
AcDbLine
 10
0.0
 20
0.0
 30
0.0
 11
2.5
 21
0.0
 31
0.0
  0
LINE
  5
C9
330
C2
100
AcDbEntity
  8
10
 62
     0
100
AcDbLine
 10
0.0
 20
5.0
 30
0.0
 11
0.0
 21
8.7950441392
 31
0.0
  0
LINE
  5
CA
330
C2
100
AcDbEntity
  8
10
 62
     0
100
AcDbLine
 10
-5.0
 20
0.0
 30
0.0
 11
-8.7950441392
 21
0.0
 31
0.0
  0
LINE
  5
CB
330
C2
100
AcDbEntity
  8
10
 62
     0
100
AcDbLine
 10
0.0
 20
-5.0
 30
0.0
 11
0.0
 21
-8.7950441392
 31
0.0
  0
LINE
  5
CC
330
C2
100
AcDbEntity
  8
10
 62
     0
100
AcDbLine
 10
5.0
 20
0.0
 30
0.0
 11
8.7950441392
 21
0.0
 31
0.0
  0
ENDBLK
  5
C4
330
C2
100
AcDbEntity
  8
0
100
AcDbBlockEnd
  0
ENDSEC
  0
SECTION
  2
ENTITIES
  0
SPLINE
  5
70
330
1F
100
AcDbEntity
  8
0
  6
Continuous
 62
     7
370
    25
100
AcDbSpline
210
0.0
220
0.0
230
1.0
 70
     8
 71
     3
 72
    24
 73
    20
 74
     0
 42
0.00000001
 43
0.00000001
 40
0.0
 40
0.0
 40
0.0
 40
0.0
 40
0.0726448327676947
 40
0.1435530365422654
 40
0.2127273253383411
 40
0.2801700018393717
 40
0.3458830118242532
 40
0.4098679996955231
 40
0.4721263651175754
 40
0.5326593208578447
 40
0.5914679520116595
 40
0.6485532768871903
 40
0.7039163099361723
 40
0.7575581272448141
 40
0.8094799352549482
 40
0.8596831435765767
 40
0.9081694429910357
 40
0.9549408900431418
 40
1.0
 40
1.0
 40
1.0
 40
1.0
 10
72.42889560019489
 20
22.55660027711728
 30
0.0
 10
72.44192679798469
 20
22.55179794843349
 30
0.0
 10
72.46767767304684
 20
22.54230809432044
 30
0.0
 10
72.51033669284774
 20
22.54003629267484
 30
0.0
 10
72.55509404218478
 20
22.54597563368779
 30
0.0
 10
72.6020070576832
 20
22.56026306533956
 30
0.0
 10
72.65072521884503
 20
22.58199327062469
 30
0.0
 10
72.70099300499072
 20
22.61054277557341
 30
0.0
 10
72.7525239186475
 20
22.64523381496929
 30
0.0
 10
72.80503639291582
 20
22.68542560688403
 30
0.0
 10
72.85824767132432
 20
22.73049480661175
 30
0.0
 10
72.91187815253834
 20
22.77984347679359
 30
0.0
 10
72.9656528450371
 20
22.83290038625622
 30
0.0
 10
73.01930282954648
 20
22.88911960845376
 30
0.0
 10
73.07256792917104
 20
22.94799280087875
 30
0.0
 10
73.12519341752831
 20
23.00900933715752
 30
0.0
 10
73.17694702298503
 20
23.07180016614799
 30
0.0
 10
73.22756303373397
 20
23.13562912046454
 30
0.0
 10
73.26110797801427
 20
23.18016621406006
 30
0.0
 10
73.2775676988529
 20
23.20201952588614
 30
0.0
  0
ARC
  5
71
330
1F
100
AcDbEntity
  8
0
  6
Continuous
 62
     7
370
    25
100
AcDbCircle
 10
65.9523832284
 20
8.2134079209
 30
0.0
 40
15.73761034808769
100
AcDbArc
 50
65.6989624249
 51
90.0
  0
SPLINE
  5
72
330
1F
100
AcDbEntity
  8
0
  6
Continuous
 62
     7
370
    25
100
AcDbSpline
210
0.0
220
0.0
230
1.0
 70
     8
 71
     3
 72
    16
 73
    12
 74
     0
 42
0.00000001
 43
0.00000001
 40
0.0
 40
0.0
 40
0.0
 40
0.0
 40
0.25
 40
0.25
 40
0.5
 40
0.5
 40
0.75
 40
0.75
 40
0.875
 40
0.875
 40
1.0
 40
1.0
 40
1.0
 40
1.0
 10
76.39153295272176
 20
23.95101826901357
 30
0.0
 10
76.10136060390565
 20
23.95101826901358
 30
0.0
 10
75.81384377483981
 20
23.94095541627898
 30
0.0
 10
75.24505322886002
 20
23.8971720000444
 30
0.0
 10
74.96370769734374
 20
23.86372357150625
 30
0.0
 10
74.4099680165823
 20
23.76290625816119
 30
0.0
 10
74.13322788972894
 20
23.69504160449388
 30
0.0
 10
73.75830323920445
 20
23.55010062872876
 30
0.0
 10
73.63911329443512
 20
23.49383891468838
 30
0.0
 10
73.43150405550816
 20
23.36333017035076
 30
0.0
 10
73.34110140641091
 20
23.28737010334955
 30
0.0
 10
73.27756769885293
 20
23.20201952588611
 30
0.0
  0
CIRCLE
  5
73
330
1F
100
AcDbEntity
  8
0
  6
Continuous
 62
     7
370
    25
100
AcDbCircle
 10
89.2950316392
 20
17.6559741298
 30
0.0
 40
6.295044139235067
  0
LINE
  5
74
330
1F
100
AcDbEntity
  8
0
  6
Continuous
 62
     7
370
    25
100
AcDbLine
 10
89.2950316392
 20
23.951018269
 30
0.0
 11
106.2959628414
 21
23.951018269
 31
0.0
  0
SPLINE
  5
75
330
1F
100
AcDbEntity
  8
0
  6
Continuous
 62
     7
370
    25
100
AcDbSpline
210
0.0
220
0.0
230
1.0
 70
     8
 71
     3
 72
    10
 73
     6
 74
     0
 42
0.00000001
 43
0.00000001
 40
0.0
 40
0.0
 40
0.0
 40
0.0
 40
0.5
 40
0.5
 40
1.0
 40
1.0
 40
1.0
 40
1.0
 10
107.6781689199485
 20
23.75956665784743
 30
0.0
 10
107.4646900138004
 20
23.83096923038649
 30
0.0
 10
107.2402275326217
 20
23.87807312625186
 30
0.0
 10
106.7759553939962
 20
23.93832876005969
 30
0.0
 10
106.5354914867071
 20
23.95101804651008
 30
0.0
 10
106.2959628413589
 20
23.95101826901987
 30
0.0
  0
LINE
  5
76
330
1F
100
AcDbEntity
  8
0
  6
Continuous
 62
     7
370
    25
100
AcDbLine
 10
76.3915329527
 20
23.951018269
 30
0.0
 11
89.2950316392
 21
23.951018269
 31
0.0
  0
SPLINE
  5
77
330
1F
100
AcDbEntity
  8
0
  6
Continuous
 62
     7
370
    25
100
AcDbSpline
210
0.0
220
0.0
230
1.0
 70
     8
 71
     3
 72
    10
 73
     6
 74
     0
 42
0.00000001
 43
0.00000001
 40
0.0
 40
0.0
 40
0.0
 40
0.0
 40
0.5
 40
0.5
 40
1.0
 40
1.0
 40
1.0
 40
1.0
 10
106.2959628413586
 20
90.04898173098483
 30
0.0
 10
106.5348134654307
 20
90.04898195286503
 30
0.0
 10
106.7709939773348
 20
90.06128022269588
 30
0.0
 10
107.2357090422674
 20
90.12109264953622
 30
0.0
 10
107.465530334101
 20
90.16931183265383
 30
0.0
 10
107.6781689199476
 20
90.24043334214902
 30
0.0
  0
LINE
  5
78
330
1F
100
AcDbEntity
  8
0
  6
Continuous
 62
     7
370
    25
100
AcDbLine
 10
106.2959628414
 20
90.048981731
 30
0.0
 11
89.2950316392
 21
90.048981731
 31
0.0
  0
CIRCLE
  5
79
330
1F
100
AcDbEntity
  8
0
  6
Continuous
 62
     7
370
    25
100
AcDbCircle
 10
89.2950316392
 20
96.3440258702
 30
0.0
 40
6.29504413923506
  0
LINE
  5
7A
330
1F
100
AcDbEntity
  8
0
  6
Continuous
 62
     7
370
    25
100
AcDbLine
 10
89.2950316392
 20
90.048981731
 30
0.0
 11
76.3915329527
 21
90.048981731
 31
0.0
  0
SPLINE
  5
7B
330
1F
100
AcDbEntity
  8
0
  6
Continuous
 62
     7
370
    25
100
AcDbSpline
210
0.0
220
0.0
230
1.0
 70
     8
 71
     3
 72
    16
 73
    12
 74
     0
 42
0.00000001
 43
0.00000001
 40
0.0
 40
0.0
 40
0.0
 40
0.0
 40
0.2499999999999994
 40
0.2499999999999994
 40
0.3749999999999997
 40
0.3749999999999997
 40
0.5000000000000001
 40
0.5000000000000001
 40
0.75
 40
0.75
 40
1.0
 40
1.0
 40
1.0
 40
1.0
 10
73.27756769885285
 20
90.79798047410928
 30
0.0
 10
73.4043011211602
 20
90.62772800193963
 30
0.0
 10
73.62968843786793
 20
90.50032924485456
 30
0.0
 10
74.00036094618814
 20
90.35598221063775
 30
0.0
 10
74.13212841098523
 20
90.31472977358354
 30
0.0
 10
74.39993332748817
 20
90.24401993208137
 30
0.0
 10
74.53640375097197
 20
90.21435426240762
 30
0.0
 10
74.95150898627902
 20
90.13797206424205
 30
0.0
 10
75.23701833427188
 20
90.1035868738827
 30
0.0
 10
75.812306169228
 20
90.05902488169757
 30
0.0
 10
76.10134654849628
 20
90.04898173098185
 30
0.0
 10
76.39153295272176
 20
90.04898173098186
 30
0.0
  0
ARC
  5
7C
330
1F
100
AcDbEntity
  8
0
  6
Continuous
 62
     7
370
    25
100
AcDbCircle
 10
65.9523832284
 20
105.7865920791
 30
0.0
 40
15.73761034808769
100
AcDbArc
 50
270.0
 51
294.3010375751
  0
SPLINE
  5
7D
330
1F
100
AcDbEntity
  8
0
  6
Continuous
 62
     7
370
    25
100
AcDbSpline
210
0.0
220
0.0
230
1.0
 70
     8
 71
     3
 72
    18
 73
    14
 74
     0
 42
0.00000001
 43
0.00000001
 40
0.0
 40
0.0
 40
0.0
 40
0.0
 40
0.0703617984615255
 40
0.1448163519259894
 40
0.2233714791215177
 40
0.3060329456377641
 40
0.3928051902978363
 40
0.4836919730549388
 40
0.5786969685234953
 40
0.6778243216358049
 40
0.7810791764437315
 40
0.8884681849998571
 40
1.0
 40
1.0
 40
1.0
 40
1.0
 10
73.27756769885288
 20
90.79798047410931
 30
0.0
 10
73.25189699443393
 20
90.8318362963494
 30
0.0
 10
73.1990623903362
 20
90.90151724219594
 30
0.0
 10
73.11939429551425
 20
90.99838880807928
 30
0.0
 10
73.03761659551519
 20
91.09169285085765
 30
0.0
 10
72.95472361188648
 20
91.17892181706178
 30
0.0
 10
72.87165029858397
 20
91.25840804530644
 30
0.0
 10
72.78940379113551
 20
91.32803804727888
 30
0.0
 10
72.7090254028168
 20
91.38559218006272
 30
0.0
 10
72.63151387405757
 20
91.42884283287184
 30
0.0
 10
72.5580878309963
 20
91.45485372880543
 30
0.0
 10
72.48902717423616
 20
91.4630008639839
 30
0.0
 10
72.44919074330808
 20
91.4500153482009
 30
0.0
 10
72.42889560019489
 20
91.44339972287818
 30
0.0
  0
ELLIPSE
  5
7E
330
1F
100
AcDbEntity
  8
0
  6
Continuous
 62
     7
370
    25
100
AcDbEllipse
 10
107.3240321598
 20
37.0612695367
 30
0.0
 11
-10.70241910649204
 21
-9.070232966076937
 31
0.0
210
0.0
220
0.0
230
1.0
 40
0.897437475
 41
1.570796326794881
 42
2.491359333430884
  0
LINE
  5
7F
330
1F
100
AcDbEntity
  8
0
  6
Continuous
 62
     7
370
    25
100
AcDbLine
 10
115.4639991303
 20
27.4565175576
 30
0.0
 11
108.0388781582
 21
21.1637741743
 31
0.0
  0
ELLIPSE
  5
80
330
1F
100
AcDbEntity
  8
0
  6
Continuous
 62
     7
370
    25
100
AcDbEllipse
 10
107.3240321598
 20
76.9387304633
 30
0.0
 11
10.70241910649203
 21
-9.070232966076945
 31
0.0
210
0.0
220
0.0
230
1.0
 40
0.897437475
 41
0.6502333201589023
 42
1.570796326794911
  0
LINE
  5
81
330
1F
100
AcDbEntity
  8
0
  6
Continuous
 62
     7
370
    25
100
AcDbLine
 10
108.0388781582
 20
92.8362258257
 30
0.0
 11
115.4639991303
 21
86.5434824424
 31
0.0
  0
SPLINE
  5
82
330
1F
100
AcDbEntity
  8
0
  6
Continuous
 62
     7
370
    25
100
AcDbSpline
210
0.0
220
0.0
230
1.0
 70
     8
 71
     3
 72
    20
 73
    16
 74
     0
 42
0.00000001
 43
0.00000001
 40
0.0
 40
0.0
 40
0.0
 40
0.0
 40
0.0465729924409509
 40
0.1076474826263309
 40
0.1835525910757278
 40
0.2744965688813039
 40
0.3804428030492517
 40
0.5009695389145675
 40
0.6367954733100734
 40
0.7509165262586891
 40
0.8755851892726998
 40
0.9378536323310055
 40
0.9689745358517077
 40
0.9845328843508129
 40
0.9999999999999999
 40
0.9999999999999999
 40
0.9999999999999999
 40
0.9999999999999999
 10
107.6785282735382
 20
90.23999301722182
 30
0.0
 10
107.7273895087139
 20
90.25607606043314
 30
0.0
 10
107.8403259701481
 20
90.2932499464974
 30
0.0
 10
108.0292663402785
 20
90.34903976982054
 30
0.0
 10
108.25950153131
 20
90.40742773050216
 30
0.0
 10
108.5263889033137
 20
90.46035068987592
 30
0.0
 10
108.8220860717363
 20
90.49904207167026
 30
0.0
 10
109.1347050258677
 20
90.51469012351399
 30
0.0
 10
109.4209513205648
 20
90.49816039322317
 30
0.0
 10
109.6732586172612
 20
90.44938762616015
 30
0.0
 10
109.8450935362856
 20
90.38623409760838
 30
0.0
 10
109.950451633769
 20
90.32765721333858
 30
0.0
 10
109.9981365029528
 20
90.29527587685796
 30
0.0
 10
110.0240233788987
 20
90.27590052968739
 30
0.0
 10
110.0362826852526
 20
90.26598393466197
 30
0.0
 10
110.0423943136959
 20
90.26104021741828
 30
0.0
  0
SPLINE
  5
83
330
1F
100
AcDbEntity
  8
0
  6
Continuous
 62
     7
370
    25
100
AcDbSpline
210
0.0
220
0.0
230
1.0
 70
     8
 71
     3
 72
    19
 73
    15
 74
     0
 42
0.00000001
 43
0.00000001
 40
0.0
 40
0.0
 40
0.0
 40
0.0
 40
0.0154684245750215
 40
0.031028089720336
 40
0.0621516268894161
 40
0.1244253394986302
 40
0.2491045527663043
 40
0.3631911395126842
 40
0.4990726601840453
 40
0.6419583056864924
 40
0.7637066637860583
 40
0.8637969657727312
 40
0.9423903858669619
 40
1.0
 40
1.0
 40
1.0
 40
1.0
 10
110.042394313696
 20
23.73895978257801
 30
0.0
 10
110.0362826854459
 20
23.73401606539015
 30
0.0
 10
110.0240233794795
 20
23.72409947047691
 30
0.0
 10
109.9981364996633
 20
23.70472412222302
 30
0.0
 10
109.9504516725778
 20
23.67234279760415
 30
0.0
 10
109.8450930966754
 20
23.61376577865476
 30
0.0
 10
109.6732870930266
 20
23.55062255624433
 30
0.0
 10
109.4209718677514
 20
23.50184004490199
 30
0.0
 10
109.117531226843
 20
23.48432406721295
 30
0.0
 10
108.7685626590457
 20
23.50462400547256
 30
0.0
 10
108.4228551568144
 20
23.55697705517664
 30
0.0
 10
108.1235291109596
 20
23.62498031150753
 30
0.0
 10
107.8816396226414
 20
23.69341157549065
 30
0.0
 10
107.7389018691052
 20
23.74021190877271
 30
0.0
 10
107.6785282735382
 20
23.76000698277361
 30
0.0
  0
LINE
  5
84
330
1F
100
AcDbEntity
  8
0
  6
Continuous
 62
     7
370
    25
100
AcDbLine
 10
107.3932835395
 20
27.885420856
 30
0.0
 11
49.1641252516
 21
27.885420856
 31
0.0
  0
LINE
  5
85
330
1F
100
AcDbEntity
  8
0
  6
Continuous
 62
     7
370
    25
100
AcDbLine
 10
107.3932835395
 20
86.114579144
 30
0.0
 11
107.3932835395
 21
27.885420856
 31
0.0
  0
LINE
  5
86
330
1F
100
AcDbEntity
  8
0
  6
Continuous
 62
     7
370
    25
100
AcDbLine
 10
49.1641252516
 20
86.114579144
 30
0.0
 11
107.3932835395
 21
86.114579144
 31
0.0
  0
LINE
  5
87
330
1F
100
AcDbEntity
  8
0
  6
Continuous
 62
     7
370
    25
100
AcDbLine
 10
49.1641252516
 20
27.885420856
 30
0.0
 11
49.1641252516
 21
86.114579144
 31
0.0
  0
ARC
  5
88
330
1F
100
AcDbEntity
  8
0
  6
Continuous
 62
     7
370
    25
100
AcDbCircle
 10
48.3772447342
 20
27.0985403386
 30
0.0
 40
3.147522069617541
100
AcDbArc
 50
180.0
 51
270.0
  0
LINE
  5
89
330
1F
100
AcDbEntity
  8
0
  6
Continuous
 62
     7
370
    25
100
AcDbLine
 10
48.3772447342
 20
90.048981731
 30
0.0
 11
65.9523832284
 21
90.048981731
 31
0.0
  0
ARC
  5
8A
330
1F
100
AcDbEntity
  8
0
  6
Continuous
 62
     7
370
    25
100
AcDbCircle
 10
48.3772447342
 20
86.9014596614
 30
0.0
 40
3.147522069617551
100
AcDbArc
 50
90.0
 51
180.0
  0
LINE
  5
8B
330
1F
100
AcDbEntity
  8
0
  6
Continuous
 62
     7
370
    25
100
AcDbLine
 10
65.9523832284
 20
23.951018269
 30
0.0
 11
48.3772447342
 21
23.951018269
 31
0.0
  0
LINE
  5
8C
330
1F
100
AcDbEntity
  8
0
  6
Continuous
 62
     7
370
    25
100
AcDbLine
 10
45.2297226646
 20
27.0985403386
 30
0.0
 11
45.2297226646
 21
86.9014596614
 31
0.0
  0
SPLINE
  5
8D
330
1F
100
AcDbEntity
  8
0
  6
Continuous
 62
     7
370
    25
100
AcDbSpline
210
0.0
220
0.0
230
1.0
 70
     8
 71
     3
 72
    34
 73
    30
 74
     0
 42
0.00000001
 43
0.00000001
 40
0.0
 40
0.0
 40
0.0
 40
0.0
 40
0.0217143874645041
 40
0.0438059580596898
 40
0.0662827249185591
 40
0.0891522962769192
 40
0.1124218950784099
 40
0.1360983781615984
 40
0.1601882549253345
 40
0.18469770539349
 40
0.2096325976215219
 40
0.2349985044053799
 40
0.2608007192684562
 40
0.2870442717147151
 40
0.3137339417464366
 40
0.3408742736531301
 40
0.3684695890846639
 40
0.3965239994267147
 40
0.4250414175003131
 40
0.4540255686100981
 40
0.5055566012433437
 40
0.5593401020938055
 40
0.6153916069715039
 40
0.6737248391536871
 40
0.7343519720431604
 40
0.7972838474317208
 40
0.8625301577664019
 40
0.9300995990928382
 40
1.0
 40
1.0
 40
1.0
 40
1.0
 10
72.42889560019489
 20
91.44339972287818
 30
0.0
 10
72.52580288088893
 20
91.4878490909189
 30
0.0
 10
72.72130074057766
 20
91.57751992116245
 30
0.0
 10
73.0090988868151
 20
91.71865065581954
 30
0.0
 10
73.29589811492883
 20
91.86607739939892
 30
0.0
 10
73.58094687729135
 20
92.02024252165364
 30
0.0
 10
73.86423641088905
 20
92.1810577303945
 30
0.0
 10
74.14555033543617
 20
92.34857547788566
 30
0.0
 10
74.4247260949665
 20
92.52280417121374
 30
0.0
 10
74.70158316603803
 20
92.7037588252731
 30
0.0
 10
74.97594290943454
 20
92.8914469712219
 30
0.0
 10
75.24762322794913
 20
93.08587237064198
 30
0.0
 10
75.51644015677161
 20
93.28703383234505
 30
0.0
 10
75.78220756197831
 20
93.49492538575157
 30
0.0
 10
76.04473733686272
 20
93.70953604983454
 30
0.0
 10
76.30383957940856
 20
93.93084984140279
 30
0.0
 10
76.55932235599109
 20
94.15884523594033
 30
0.0
 10
76.81099321462546
 20
94.39349663176785
 30
0.0
 10
77.0586539922074
 20
94.63476818628274
 30
0.0
 10
77.3639333798896
 20
94.94556632217244
 30
0.0
 10
77.72238802616972
 20
95.33357244944592
 30
0.0
 10
78.12672768241994
 20
95.80711152918018
 30
0.0
 10
78.52082513605376
 20
96.30792584937723
 30
0.0
 10
78.90264396928407
 20
96.8362769856468
 30
0.0
 10
79.27001720423543
 20
97.39232919569837
 30
0.0
 10
79.62092601843476
 20
97.97608518834227
 30
0.0
 10
79.95235801449252
 20
98.58751019660167
 30
0.0
 10
80.26485251057814
 20
99.22600754120066
 30
0.0
 10
80.44827312436291
 20
99.66285887351792
 30
0.0
 10
80.54153848518588
 20
99.88498819853683
 30
0.0
  0
SPLINE
  5
8E
330
1F
100
AcDbEntity
  8
0
  6
Continuous
 62
     7
370
    25
100
AcDbSpline
210
0.0
220
0.0
230
1.0
 70
     8
 71
     3
 72
    34
 73
    30
 74
     0
 42
0.00000001
 43
0.00000001
 40
0.0
 40
0.0
 40
0.0
 40
0.0
 40
0.0372869171566144
 40
0.0739209269726321
 40
0.1099031098284974
 40
0.1452346059100868
 40
0.1799166195881351
 40
0.2139504241941591
 40
0.2473373672352882
 40
0.2800788760955447
 40
0.3121764642770304
 40
0.343631738241067
 40
0.3744464049169764
 40
0.4046222799547056
 40
0.4341612968073624
 40
0.4630655167407766
 40
0.4913371398799477
 40
0.5189785174166125
 40
0.5459921651185572
 40
0.5978164957240744
 40
0.6481403291493913
 40
0.6969867463932803
 40
0.74438098703667
 40
0.7903506826960147
 40
0.8349261142551639
 40
0.8781404936644287
 40
0.9200302703249769
 40
0.9606354609293336
 40
1.0
 40
1.0
 40
1.0
 40
1.0
 10
80.54153848518582
 20
14.11501180145878
 30
0.0
 10
80.49259979784783
 20
14.23358973996415
 30
0.0
 10
80.3955793572023
 20
14.46866927459028
 30
0.0
 10
80.23922977545803
 20
14.81666701751893
 30
0.0
 10
80.07696496991592
 20
15.15720824295661
 30
0.0
 10
79.90829329106147
 20
15.49012780365496
 30
0.0
 10
79.7337894590788
 20
15.81539432232268
 30
0.0
 10
79.55374421374015
 20
16.13295785171798
 30
0.0
 10
79.36851595701991
 20
16.44278899465952
 30
0.0
 10
79.17843870764882
 20
16.74486810720872
 30
0.0
 10
78.98384570830197
 20
17.03918751015736
 30
0.0
 10
78.78506294417559
 20
17.32575031091926
 30
0.0
 10
78.58241051700941
 20
17.60457011959325
 30
0.0
 10
78.37620203877111
 20
17.87567050236972
 30
0.0
 10
78.16674444910814
 20
18.13908462949082
 30
0.0
 10
77.95433818687573
 20
18.39485443908602
 30
0.0
 10
77.73927572192406
 20
18.64303152044397
 30
0.0
 10
77.52184622491949
 20
18.8836718287719
 30
0.0
 10
77.23341880258904
 20
19.19003698689659
 30
0.0
 10
76.86700995592783
 20
19.55677639280504
 30
0.0
 10
76.41279270889248
 20
19.97685495220497
 30
0.0
 10
75.94656010715681
 20
20.37536142975496
 30
0.0
 10
75.46943125336811
 20
20.75215693517373
 30
0.0
 10
74.98250999606707
 20
21.10717999320733
 30
0.0
 10
74.4868261686445
 20
21.44037810012865
 30
0.0
 10
73.98358524395087
 20
21.7518897581656
 30
0.0
 10
73.47325699538695
 20
22.04139820053305
 30
0.0
 10
72.95881730948231
 20
22.31041935299266
 30
0.0
 10
72.60369973691854
 20
22.47539310412319
 30
0.0
 10
72.42889560019489
 20
22.55660027711728
 30
0.0
  0
LINE
  5
8F
330
1F
100
AcDbEntity
  8
0
  6
Continuous
 62
     7
370
    25
100
AcDbLine
 10
120.7702523354
 20
75.5337950629
 30
0.0
 11
120.7702523354
 21
38.4662049371
 31
0.0
  0
LINE
  5
90
330
1F
100
AcDbEntity
  8
0
  6
Continuous
 62
     7
370
    25
100
AcDbLine
 10
95.4000068671
 20
103.5475898545
 30
0.0
 11
108.0388781582
 21
92.8362258257
 31
0.0
  0
LINE
  5
91
330
1F
100
AcDbEntity
  8
0
  6
Continuous
 62
     7
370
    25
100
AcDbLine
 10
108.0388781582
 20
21.1637741743
 30
0.0
 11
95.4000068671
 21
10.4524101455
 31
0.0
  0
LINE
  5
92
330
1F
100
AcDbEntity
  8
0
  6
Continuous
 62
     7
370
    25
100
AcDbLine
 10
105.8195225047
 20
84.5408181091
 30
0.0
 11
105.8195225047
 21
29.4591818908
 31
0.0
  0
LINE
  5
93
330
1F
100
AcDbEntity
  8
0
  6
Continuous
 62
     7
370
    25
100
AcDbLine
 10
50.7378862864
 20
84.5408181091
 30
0.0
 11
105.8195225047
 21
84.5408181091
 31
0.0
  0
LINE
  5
94
330
1F
100
AcDbEntity
  8
0
  6
Continuous
 62
     7
370
    25
100
AcDbLine
 10
50.7378862864
 20
59.3606415522
 30
0.0
 11
50.7378862864
 21
84.5408181091
 31
0.0
  0
LINE
  5
95
330
1F
100
AcDbEntity
  8
0
  6
Continuous
 62
     7
370
    25
100
AcDbLine
 10
49.1641252516
 20
59.3606415522
 30
0.0
 11
50.7378862864
 21
59.3606415522
 31
0.0
  0
LINE
  5
96
330
1F
100
AcDbEntity
  8
0
  6
Continuous
 62
     7
370
    25
100
AcDbLine
 10
105.8195225047
 20
29.4591818908
 30
0.0
 11
50.7378862864
 21
29.4591818909
 31
0.0
  0
LINE
  5
97
330
1F
100
AcDbEntity
  8
0
  6
Continuous
 62
     7
370
    25
100
AcDbLine
 10
50.7378862864
 20
29.4591818909
 30
0.0
 11
49.1641252516
 21
27.885420856
 31
0.0
  0
SPLINE
  5
98
330
1F
100
AcDbEntity
  8
0
  6
Continuous
 62
     7
370
    25
100
AcDbSpline
210
0.0
220
0.0
230
1.0
 70
     8
 71
     3
 72
    55
 73
    51
 74
     0
 42
0.00000001
 43
0.00000001
 40
0.0
 40
0.0
 40
0.0
 40
0.0
 40
0.0173156157992663
 40
0.0344450009750186
 40
0.0513932749851069
 40
0.0681657231301667
 40
0.0847677986353086
 40
0.1012051242944991
 40
0.1174834936240095
 40
0.133608871470421
 40
0.1495873940184211
 40
0.165425368144428
 40
0.1811292700637857
 40
0.196705743222141
 40
0.212161595385723
 40
0.2275037948905927
 40
0.2427394660176853
 40
0.2578758834685068
 40
0.2729204659256819
 40
0.2878807686931541
 40
0.3027644754224027
 40
0.3175793889435871
 40
0.3323334212335673
 40
0.3470345825662254
 40
0.3616909699038725
 40
0.3763107546015447
 40
0.3909021695082653
 40
0.4054734955604177
 40
0.4200330479720178
 40
0.4345891621344488
 40
0.4491501793439213
 40
0.4637244324783447
 40
0.4783202317462995
 40
0.5024820452610973
 40
0.5273225030385076
 40
0.5528775135771389
 40
0.5791800586579259
 40
0.6062603885460267
 40
0.6341462220934861
 40
0.6628629453816799
 40
0.6924338043338196
 40
0.7228800882052491
 40
0.75422130202984
 40
0.7864753269949815
 40
0.8196585683774077
 40
0.8537860911406837
 40
0.8888717436136234
 40
0.9249282698725787
 40
0.9619674115689463
 40
1.0
 40
1.0
 40
1.0
 40
1.0
 10
95.40000686710881
 20
10.45241014549869
 30
0.0
 10
95.32373944975774
 20
10.38895057100008
 30
0.0
 10
95.17202487630715
 20
10.262713934035
 30
0.0
 10
94.93576022456666
 20
10.08156567868376
 30
0.0
 10
94.69502743849334
 20
9.907946731459623
 30
0.0
 10
94.44939109321894
 20
9.74246269332643
 30
0.0
 10
94.19931669638132
 20
9.58509383900459
 30
0.0
 10
93.94503407895334
 20
9.435973103397076
 30
0.0
 10
93.68683677797152
 20
9.295180922766468
 30
0.0
 10
93.42500263165896
 20
9.162799428676275
 30
0.0
 10
93.15981433262722
 20
9.038898218849088
 30
0.0
 10
92.89155360252128
 20
8.923538201807364
 30
0.0
 10
92.62050233958621
 20
8.816770680860758
 30
0.0
 10
92.34694193163206
 20
8.718637707368131
 30
0.0
 10
92.07115306157057
 20
8.629172109770856
 30
0.0
 10
91.79341539061485
 20
8.548397619198496
 30
0.0
 10
91.51400728193849
 20
8.476328979988935
 30
0.0
 10
91.23320552189388
 20
8.412972074297649
 30
0.0
 10
90.95128505030706
 20
8.358324052717006
 30
0.0
 10
90.66851869695499
 20
8.312373472702763
 30
0.0
 10
90.38517692514193
 20
8.275100443998888
 30
0.0
 10
90.10152758229584
 20
8.246476780952694
 30
0.0
 10
89.81783565773851
 20
8.226466161434875
 30
0.0
 10
89.53436304786071
 20
8.21502429211679
 30
0.0
 10
89.2513683284458
 20
8.212099079896355
 30
0.0
 10
88.96910653579918
 20
8.21763080905992
 30
0.0
 10
88.6878289512559
 20
8.231552324508327
 30
0.0
 10
88.40778291003447
 20
8.253789218573754
 30
0.0
 10
88.12921155715954
 20
8.284260029318604
 30
0.0
 10
87.8523538392797
 20
8.322876419516657
 30
0.0
 10
87.5774436558122
 20
8.369543449723745
 30
0.0
 10
87.30471218943461
 20
8.424159520477176
 30
0.0
 10
86.97551514259632
 20
8.500217364043278
 30
0.0
 10
86.589082493138
 20
8.605521326414047
 30
0.0
 10
86.14673776963168
 20
8.749586969983985
 30
0.0
 10
85.70411358842557
 20
8.918497423005919
 30
0.0
 10
85.26279579844542
 20
9.11302327809453
 30
0.0
 10
84.82445340252112
 20
9.333855259239652
 30
0.0
 10
84.3908665929055
 20
9.581586061724247
 30
0.0
 10
83.96391532770717
 20
9.85670035594515
 30
0.0
 10
83.54557736697289
 20
10.15956211055379
 30
0.0
 10
83.13792253459769
 20
10.49040249345127
 30
0.0
 10
82.74310471685871
 20
10.84930713568261
 30
0.0
 10
82.36335930970364
 20
11.23620491216019
 30
0.0
 10
82.00097186892071
 20
11.65085126509285
 30
0.0
 10
81.6583521706402
 20
12.09283360158323
 30
0.0
 10
81.33769066482525
 20
12.56149231555374
 30
0.0
 10
81.04223223686823
 20
13.05617232321315
 30
0.0
 10
80.7712540246576
 20
13.57519252963585
 30
0.0
 10
80.61878289707305
 20
13.93349155135643
 30
0.0
 10
80.54153848518591
 20
14.11501180145879
 30
0.0
  0
SPLINE
  5
99
330
1F
100
AcDbEntity
  8
0
  6
Continuous
 62
     7
370
    25
100
AcDbSpline
210
0.0
220
0.0
230
1.0
 70
     8
 71
     3
 72
    58
 73
    54
 74
     0
 42
0.00000001
 43
0.00000001
 40
0.0
 40
0.0
 40
0.0
 40
0.0
 40
0.0185946650968398
 40
0.0369539851175641
 40
0.055079127221409
 40
0.0729713043999391
 40
0.090631777651621
 40
0.108061858267616
 40
0.1252629102338689
 40
0.1422363527546847
 40
0.1589836629029166
 40
0.1755063784019378
 40
0.1918061005444467
 40
0.2078844972530225
 40
0.2237433062871047
 40
0.2393843386007814
 40
0.2548094818553009
 40
0.2700207040896623
 40
0.2850200575519887
 40
0.2998096826933968
 40
0.314391812325103
 40
0.328768775938133
 40
0.3429430041834714
 40
0.356917033508638
 40
0.3706935109445231
 40
0.3842751990338047
 40
0.3976649808893813
 40
0.4108658653679584
 40
0.4238809923401806
 40
0.4367136380345025
 40
0.4493672204273133
 40
0.4618453046466617
 40
0.4741516083512929
 40
0.4862900070406258
 40
0.4982645392448091
 40
0.5100794115371882
 40
0.5217390033044847
 40
0.5499878925042198
 40
0.5781857905847904
 40
0.6063933947264295
 40
0.6346713395982937
 40
0.6630798094596482
 40
0.691678164515094
 40
0.7205245927449282
 40
0.7496757966392222
 40
0.7791867219360691
 40
0.8091103328675658
 40
0.8394974358191002
 40
0.8703965509372649
 40
0.9018538292438674
 40
0.9339130113184084
 40
0.9666154226202172
 40
1.0
 40
1.0
 40
1.0
 40
1.0
 10
80.54153848518595
 20
99.88498819853673
 30
0.0
 10
80.5784201977593
 20
99.9739056122786
 30
0.0
 10
80.65171682614427
 20
100.150615048399
 30
0.0
 10
80.77194245090597
 20
100.4115063580272
 30
0.0
 10
80.89850803055015
 20
100.6669704927768
 30
0.0
 10
81.03191280729209
 20
100.9166970166935
 30
0.0
 10
81.17167255879984
 20
101.1605885859215
 30
0.0
 10
81.31756111601378
 20
101.3985076411733
 30
0.0
 10
81.46928469277789
 20
101.6303426795062
 30
0.0
 10
81.6265680407699
 20
101.8559905244797
 30
0.0
 10
81.78913236856575
 20
102.0753606524344
 30
0.0
 10
81.95670167057003
 20
102.2883737097517
 30
0.0
 10
82.12900156748096
 20
102.4949615430067
 30
0.0
 10
82.30576008793872
 20
102.6950668201262
 30
0.0
 10
82.48670791493967
 20
102.8886427486555
 30
0.0
 10
82.67157874753495
 20
103.0756527595295
 30
0.0
 10
82.86010960726769
 20
103.2560701921619
 30
0.0
 10
83.05204113442694
 20
103.4298779726599
 30
0.0
 10
83.24711786263009
 20
103.5970682884813
 30
0.0
 10
83.44508847513518
 20
103.7576422597823
 30
0.0
 10
83.64570604240993
 20
103.911609608465
 30
0.0
 10
83.84872824153459
 20
104.0589883256837
 30
0.0
 10
84.05391755776895
 20
104.1998043385933
 30
0.0
 10
84.26104146870543
 20
104.3340911770657
 30
0.0
 10
84.46987261142795
 20
104.4618896410726
 30
0.0
 10
84.68018893312265
 20
104.5832474693925
 30
0.0
 10
84.89177382558026
 20
104.6982190102698
 30
0.0
 10
85.10441624411163
 20
104.8068648945988
 30
0.0
 10
85.31791081115367
 20
104.90925171226
 30
0.0
 10
85.53205790578525
 20
105.0054516918553
 30
0.0
 10
85.74666373696688
 20
105.0955423853462
 30
0.0
 10
85.96154041079878
 20
105.179606354343
 30
0.0
 10
86.17650595650932
 20
105.2577308720284
 30
0.0
 10
86.39138444252156
 20
105.3300075915623
 30
0.0
 10
86.60600570477946
 20
105.3965323624768
 30
0.0
 10
86.82020643699774
 20
105.4574045330189
 30
0.0
 10
87.1360463586208
 20
105.5392013036214
 30
0.0
 10
87.55884358430127
 20
105.6308346412292
 30
0.0
 10
88.09350146011307
 20
105.7150667779937
 30
0.0
 10
88.63475600013673
 20
105.7687320037632
 30
0.0
 10
89.18082283255805
 20
105.7911924499447
 30
0.0
 10
89.72989345723423
 20
105.7819205219141
 30
0.0
 10
90.2800963659616
 20
105.7404916076454
 30
0.0
 10
90.8295153403246
 20
105.6665923537251
 30
0.0
 10
91.37619239933645
 20
105.5600239964551
 30
0.0
 10
91.91813682631148
 20
105.4207076030079
 30
0.0
 10
92.45332702676244
 20
105.2486842866906
 30
0.0
 10
92.97973711479398
 20
105.0441316483918
 30
0.0
 10
93.49527145173803
 20
104.8073167074138
 30
0.0
 10
93.99805249277527
 20
104.538789918111
 30
0.0
 10
94.48535557459483
 20
104.2386529711683
 30
0.0
 10
94.95774055747593
 20
103.9093809900225
 30
0.0
 10
95.2515737578191
 20
103.6690139421785
 30
0.0
 10
95.40000686710889
 20
103.5475898544967
 30
0.0
  0
LINE
  5
9A
330
1F
100
AcDbEntity
  8
0
  6
Continuous
 62
     7
370
    25
100
AcDbLine
 10
99.5244783655
 20
78.2457739699
 30
0.0
 11
73.4000451877
 21
78.2457739699
 31
0.0
  0
LINE
  5
9B
330
1F
100
AcDbEntity
  8
0
  6
Continuous
 62
     7
370
    25
100
AcDbLine
 10
73.4000451877
 20
84.5408181091
 30
0.0
 11
73.4000451877
 21
78.2457739699
 31
0.0
  0
LINE
  5
9C
330
1F
100
AcDbEntity
  8
0
  6
Continuous
 62
     7
370
    25
100
AcDbLine
 10
73.4000451877
 20
34.9638695291
 30
0.0
 11
73.4000451877
 21
29.4591818908
 31
0.0
  0
LINE
  5
9D
330
1F
100
AcDbEntity
  8
0
  6
Continuous
 62
     7
370
    25
100
AcDbLine
 10
99.5244783655
 20
34.9638695291
 30
0.0
 11
73.4000451877
 21
34.9638695291
 31
0.0
  0
LINE
  5
9E
330
1F
100
AcDbEntity
  8
0
  6
Continuous
 62
     7
370
    25
100
AcDbLine
 10
99.5244783655
 20
78.2457739699
 30
0.0
 11
99.5244783655
 21
34.9638695291
 31
0.0
  0
LINE
  5
9F
330
1F
100
AcDbEntity
  8
0
  6
Continuous
 62
     7
370
    25
100
AcDbLine
 10
69.6230187041
 20
84.5408181091
 30
0.0
 11
69.6230187041
 21
78.2457739699
 31
0.0
  0
LINE
  5
A0
330
1F
100
AcDbEntity
  8
0
  6
Continuous
 62
     7
370
    25
100
AcDbLine
 10
73.4000451877
 20
78.2457739699
 30
0.0
 11
69.6230187041
 21
78.2457739699
 31
0.0
  0
LINE
  5
A1
330
1F
100
AcDbEntity
  8
0
  6
Continuous
 62
     7
370
    25
100
AcDbLine
 10
69.6230187041
 20
34.9638695291
 30
0.0
 11
69.6230187041
 21
29.4591818908
 31
0.0
  0
LINE
  5
A2
330
1F
100
AcDbEntity
  8
0
  6
Continuous
 62
     7
370
    25
100
AcDbLine
 10
73.4000451877
 20
34.9638695291
 30
0.0
 11
69.6230187041
 21
34.9638695291
 31
0.0
  0
LINE
  5
A3
330
1F
100
AcDbEntity
  8
0
  6
Continuous
 62
     7
370
    25
100
AcDbLine
 10
56.2425739247
 20
34.9638695291
 30
0.0
 11
56.2425739247
 21
78.2457739699
 31
0.0
  0
LINE
  5
A4
330
1F
100
AcDbEntity
  8
0
  6
Continuous
 62
     7
370
    25
100
AcDbLine
 10
51.1672230418
 20
57.0068249977
 30
0.0
 11
49.1641252516
 21
54.7108500306
 31
0.0
  0
LINE
  5
A5
330
1F
100
AcDbEntity
  8
0
  6
Continuous
 62
     7
370
    25
100
AcDbLine
 10
51.1672230418
 20
57.0068249977
 30
0.0
 11
49.1641252516
 21
59.3012824665
 31
0.0
  0
LINE
  5
A6
330
1F
100
AcDbEntity
  8
0
  6
Continuous
 62
     7
370
    25
100
AcDbLine
 10
56.2425739247
 20
78.2457739699
 30
0.0
 11
69.6230187041
 21
78.2457739699
 31
0.0
  0
LINE
  5
A7
330
1F
100
AcDbEntity
  8
0
  6
Continuous
 62
     7
370
    25
100
AcDbLine
 10
56.2425739247
 20
34.9638695291
 30
0.0
 11
69.6230187041
 21
34.9638695291
 31
0.0
  0
CIRCLE
  5
A8
330
1F
100
AcDbEntity
  8
0
  6
Continuous
 62
     7
370
    25
100
AcDbCircle
 10
89.2950316392
 20
96.3440258702
 30
0.0
 40
3.147522069617537
  0
CIRCLE
  5
A9
330
1F
100
AcDbEntity
  8
0
  6
Continuous
 62
     7
370
    25
100
AcDbCircle
 10
89.2950316392
 20
17.6559741298
 30
0.0
 40
3.147522069617537
  0
LINE
  5
AA
330
1F
100
AcDbEntity
  8
0
  6
HIDDEN
 62
     7
370
    18
100
AcDbLine
 10
105.8195225047
 20
29.4591818909
 30
0.0
 11
107.3932835395
 21
27.885420856
 31
0.0
  0
LINE
  5
AB
330
1F
100
AcDbEntity
  8
0
  6
HIDDEN
 62
     7
370
    18
100
AcDbLine
 10
48.3772447342
 20
59.3606415522
 30
0.0
 11
45.2297226646
 21
62.5081636218
 31
0.0
  0
LINE
  5
AC
330
1F
100
AcDbEntity
  8
0
  6
HIDDEN
 62
     7
370
    18
100
AcDbLine
 10
105.8195225047
 20
84.5408181091
 30
0.0
 11
107.3932835395
 21
86.114579144
 31
0.0
  0
LINE
  5
AD
330
1F
100
AcDbEntity
  8
0
  6
HIDDEN
 62
     7
370
    18
100
AcDbLine
 10
50.7378862864
 20
84.5408181091
 30
0.0
 11
49.1641252516
 21
86.114579144
 31
0.0
  0
LINE
  5
AE
330
1F
100
AcDbEntity
  8
0
  6
HIDDEN
 62
     7
370
    18
100
AcDbLine
 10
48.3772447342
 20
27.885420856
 30
0.0
 11
45.7932218242
 21
25.301397946
 31
0.0
  0
LINE
  5
AF
330
1F
100
AcDbEntity
  8
0
  6
HIDDEN
 62
     7
370
    18
100
AcDbLine
 10
49.1641252516
 20
59.3606415522
 30
0.0
 11
48.3772447342
 21
59.3606415522
 31
0.0
  0
LINE
  5
B0
330
1F
100
AcDbEntity
  8
0
  6
HIDDEN
 62
     7
370
    18
100
AcDbLine
 10
49.1641252516
 20
27.885420856
 30
0.0
 11
48.3772447342
 21
27.885420856
 31
0.0
  0
LINE
  5
B1
330
1F
100
AcDbEntity
  8
0
  6
HIDDEN
 62
     7
370
    18
100
AcDbLine
 10
48.3772447342
 20
27.885420856
 30
0.0
 11
48.3772447342
 21
59.3606415522
 31
0.0
  0
LINE
  5
B2
330
1F
100
AcDbEntity
  8
0
  6
HIDDEN
 62
     7
370
    18
100
AcDbLine
 10
73.4000451877
 20
86.114579144
 30
0.0
 11
73.4000451877
 21
84.5408181091
 31
0.0
  0
LINE
  5
B3
330
1F
100
AcDbEntity
  8
0
  6
HIDDEN
 62
     7
370
    18
100
AcDbLine
 10
73.4000451877
 20
29.4591818908
 30
0.0
 11
73.4000451877
 21
27.885420856
 31
0.0
  0
LINE
  5
B4
330
1F
100
AcDbEntity
  8
0
  6
HIDDEN
 62
     7
370
    18
100
AcDbLine
 10
69.6230187041
 20
86.114579144
 30
0.0
 11
69.6230187041
 21
84.5408181091
 31
0.0
  0
LINE
  5
B5
330
1F
100
AcDbEntity
  8
0
  6
HIDDEN
 62
     7
370
    18
100
AcDbLine
 10
69.6230187041
 20
29.4591818908
 30
0.0
 11
69.6230187041
 21
27.885420856
 31
0.0
  0
INSERT
  5
C1
330
1F
100
AcDbEntity
  8
10
100
AcDbBlockReference
  2
SW_CENTERMARKSYMBOL_0
 10
89.2950316392
 20
17.6559741298
 30
0.0
  0
INSERT
  5
CD
330
1F
100
AcDbEntity
  8
10
100
AcDbBlockReference
  2
SW_CENTERMARKSYMBOL_1
 10
89.2950316392
 20
96.3440258702
 30
0.0
  0
LINE
  5
CE
330
1F
100
AcDbEntity
  8
0
  6
Continuous
 62
     7
370
    25
100
AcDbLine
 10
95.4000068671
 20
170.8278308158
 30
0.0
 11
80.5415384852
 21
170.8278308158
 31
0.0
  0
SPLINE
  5
CF
330
1F
100
AcDbEntity
  8
0
  6
Continuous
 62
     7
370
    25
100
AcDbSpline
210
0.0
220
0.0
230
1.0
 70
     8
 71
     3
 72
    10
 73
     6
 74
     0
 42
0.00000001
 43
0.00000001
 40
0.0
 40
0.0
 40
0.0
 40
0.0
 40
0.5
 40
0.5
 40
1.0
 40
1.0
 40
1.0
 40
1.0
 10
106.2959628413586
 20
145.6476542588954
 30
0.0
 10
106.5348134654307
 20
145.6476545251517
 30
0.0
 10
106.7709939773348
 20
145.6624124489487
 30
0.0
 10
107.2357090422674
 20
145.7341873611572
 30
0.0
 10
107.465530334101
 20
145.7920503808983
 30
0.0
 10
107.6781689199476
 20
145.8773961922925
 30
0.0
  0
LINE
  5
D0
330
1F
100
AcDbEntity
  8
0
  6
Continuous
 62
     7
370
    25
100
AcDbLine
 10
106.2959628414
 20
145.6476542589
 30
0.0
 11
89.2950316392
 21
145.6476542589
 31
0.0
  0
ELLIPSE
  5
D1
330
1F
100
AcDbEntity
  8
0
  6
Continuous
 62
     7
370
    25
100
AcDbEllipse
 10
89.2950316392
 20
153.201707226
 30
0.0
 11
0.0
 21
7.554052967082072
 31
0.0
210
0.0
220
0.0
230
1.0
 40
0.8333333333
 41
0.0
 42
6.283185307179586
  0
LINE
  5
D2
330
1F
100
AcDbEntity
  8
0
  6
Continuous
 62
     7
370
    25
100
AcDbLine
 10
89.2950316392
 20
145.6476542589
 30
0.0
 11
76.3915329527
 21
145.6476542589
 31
0.0
  0
SPLINE
  5
D3
330
1F
100
AcDbEntity
  8
0
  6
Continuous
 62
     7
370
    25
100
AcDbSpline
210
0.0
220
0.0
230
1.0
 70
     8
 71
     3
 72
    16
 73
    12
 74
     0
 42
0.00000001
 43
0.00000001
 40
0.0
 40
0.0
 40
0.0
 40
0.0
 40
0.2499999999999994
 40
0.2499999999999994
 40
0.3749999999999997
 40
0.3749999999999997
 40
0.5000000000000001
 40
0.5000000000000001
 40
0.75
 40
0.75
 40
1.0
 40
1.0
 40
1.0
 40
1.0
 10
73.27756769885285
 20
146.5464527506448
 30
0.0
 10
73.4043011211602
 20
146.3421497840412
 30
0.0
 10
73.62968843786793
 20
146.1892712755392
 30
0.0
 10
74.00036094618814
 20
146.016054834479
 30
0.0
 10
74.13212841098523
 20
145.9665519100139
 30
0.0
 10
74.39993332748817
 20
145.8817001002113
 30
0.0
 10
74.53640375097197
 20
145.8461012966028
 30
0.0
 10
74.95150898627902
 20
145.7544426588041
 30
0.0
 10
75.23701833427188
 20
145.7131804303729
 30
0.0
 10
75.812306169228
 20
145.6597060397507
 30
0.0
 10
76.10134654849628
 20
145.6476542588919
 30
0.0
 10
76.39153295272176
 20
145.6476542588919
 30
0.0
  0
LINE
  5
D4
330
1F
100
AcDbEntity
  8
0
  6
Continuous
 62
     7
370
    25
100
AcDbLine
 10
115.4639991303
 20
170.8278308158
 30
0.0
 11
95.4000068671
 21
170.8278308158
 31
0.0
  0
SPLINE
  5
D5
330
1F
100
AcDbEntity
  8
0
  6
Continuous
 62
     7
370
    25
100
AcDbSpline
210
0.0
220
0.0
230
1.0
 70
     8
 71
     3
 72
    18
 73
    14
 74
     0
 42
0.00000001
 43
0.00000001
 40
0.0
 40
0.0
 40
0.0
 40
0.0
 40
0.0703617984615255
 40
0.1448163519259894
 40
0.2233714791215177
 40
0.3060329456377641
 40
0.3928051902978363
 40
0.4836919730549388
 40
0.5786969685234953
 40
0.6778243216358049
 40
0.7810791764437315
 40
0.8884681849998571
 40
1.0
 40
1.0
 40
1.0
 40
1.0
 10
73.27756769885288
 20
146.5464527506448
 30
0.0
 10
73.25189699443393
 20
146.5886402668507
 30
0.0
 10
73.1990623903362
 20
146.6754692326721
 30
0.0
 10
73.11939429551425
 20
146.8184518244459
 30
0.0
 10
73.03761659551519
 20
146.9760745560702
 30
0.0
 10
72.95472361188648
 20
147.1495573311092
 30
0.0
 10
72.87165029858397
 20
147.3390284670427
 30
0.0
 10
72.78940379113551
 20
147.5446625629969
 30
0.0
 10
72.7090254028168
 20
147.7662989239992
 30
0.0
 10
72.63151387405757
 20
148.003500999182
 30
0.0
 10
72.5580878309963
 20
148.2554750414155
 30
0.0
 10
72.48902717423616
 20
148.521082799718
 30
0.0
 10
72.44919074330808
 20
148.7026664037001
 30
0.0
 10
72.42889560019489
 20
148.7951763285095
 30
0.0
  0
LINE
  5
D6
330
1F
100
AcDbEntity
  8
0
  6
Continuous
 62
     7
370
    25
100
AcDbLine
 10
65.9523832284
 20
170.8278308158
 30
0.0
 11
80.5415384852
 21
170.8278308158
 31
0.0
  0
SPLINE
  5
D7
330
1F
100
AcDbEntity
  8
0
  6
Continuous
 62
     7
370
    25
100
AcDbSpline
210
0.0
220
0.0
230
1.0
 70
     8
 71
     3
 72
    20
 73
    16
 74
     0
 42
0.00000001
 43
0.00000001
 40
0.0
 40
0.0
 40
0.0
 40
0.0
 40
0.0465729924409509
 40
0.1076474826263309
 40
0.1835525910757278
 40
0.2744965688813039
 40
0.3804428030492517
 40
0.5009695389145675
 40
0.6367954733100734
 40
0.7509165262586891
 40
0.8755851892726998
 40
0.9378536323310055
 40
0.9689745358517077
 40
0.9845328843508129
 40
0.9999999999999999
 40
0.9999999999999999
 40
0.9999999999999999
 40
0.9999999999999999
 10
107.6785282735382
 20
145.8768678023799
 30
0.0
 10
107.7273895087139
 20
145.8973729172174
 30
0.0
 10
107.8403259701481
 20
145.944767853156
 30
0.0
 10
108.0292663402785
 20
146.0390810120654
 30
0.0
 10
108.25950153131
 20
146.1699303837019
 30
0.0
 10
108.5263889033137
 20
146.3472738927208
 30
0.0
 10
108.8220860717363
 20
146.5796420238281
 30
0.0
 10
109.1347050258677
 20
146.8770044118366
 30
0.0
 10
109.4209513205648
 20
147.2131409254755
 30
0.0
 10
109.6732586172612
 20
147.5778989220729
 30
0.0
 10
109.8450935362856
 20
147.8865746323873
 30
0.0
 10
109.950451633769
 20
148.1162192745177
 30
0.0
 10
109.9981365029528
 20
148.2322206039282
 30
0.0
 10
110.0240233788987
 20
148.2986505020918
 30
0.0
 10
110.0362826852526
 20
148.331992873682
 30
0.0
 10
110.0423943136959
 20
148.3486150365266
 30
0.0
  0
LINE
  5
D8
330
1F
100
AcDbEntity
  8
0
  6
Continuous
 62
     7
370
    25
100
AcDbLine
 10
120.7702523354
 20
170.8278308158
 30
0.0
 11
112.0935686096
 21
147.6900075469
 31
0.0
  0
LINE
  5
D9
330
1F
100
AcDbEntity
  8
0
  6
Continuous
 62
     7
370
    25
100
AcDbLine
 10
115.4639991303
 20
170.8278308158
 30
0.0
 11
120.7702523354
 21
170.8278308158
 31
0.0
  0
SPLINE
  5
DA
330
1F
100
AcDbEntity
  8
0
  6
Continuous
 62
     7
370
    25
100
AcDbSpline
210
0.0
220
0.0
230
1.0
 70
    24
 71
     3
 72
    20
 73
    16
 74
     0
 42
0.00000001
 43
0.00000001
 40
0.0
 40
0.0
 40
0.0
 40
0.0
 40
0.0402786419139417
 40
0.0806171464842337
 40
0.12105827540202
 40
0.1616444659840954
 40
0.2024177026035499
 40
0.2434193950506824
 40
0.3669369981103567
 40
0.4917132723383913
 40
0.6175028502946598
 40
0.7443062160135437
 40
0.8293157437506959
 40
0.9144499134471674
 40
1.0
 40
1.0
 40
1.0
 40
1.0
 10
109.1464518587541
 20
145.6476542588919
 30
0.0
 10
109.1454527165978
 20
145.6476542588919
 30
0.0
 10
109.1434529473469
 20
145.6476542588919
 30
0.0
 10
109.1272896081959
 20
145.6476542588919
 30
0.0
 10
109.1014925383265
 20
145.6476542588919
 30
0.0
 10
109.065114924603
 20
145.6476542588919
 30
0.0
 10
109.0184065367278
 20
145.6476542588919
 30
0.0
 10
108.9231652676937
 20
145.6476542588919
 30
0.0
 10
108.7419235660618
 20
145.6476542588919
 30
0.0
 10
108.4195536492667
 20
145.6476542588919
 30
0.0
 10
108.0109696267918
 20
145.6476542588919
 30
0.0
 10
107.5742113334076
 20
145.6476542588919
 30
0.0
 10
107.1412311149841
 20
145.6476542588919
 30
0.0
 10
106.7381929254439
 20
145.6476542588919
 30
0.0
 10
106.4436121437742
 20
145.6476542588919
 30
0.0
 10
106.295962841358
 20
145.6476542588919
 30
0.0
  0
ARC
  5
DB
330
1F
100
AcDbEntity
  8
0
  6
Continuous
 62
     7
370
    25
100
AcDbCircle
 10
109.1464518588
 20
148.7951763285
 30
0.0
 40
3.147522069617572
100
AcDbArc
 50
270.0
 51
339.4439547804
  0
LINE
  5
DC
330
1F
100
AcDbEntity
  8
0
  6
Continuous
 62
     7
370
    25
100
AcDbLine
 10
76.3915329527
 20
145.6476542589
 30
0.0
 11
65.9523832284
 21
145.6476542589
 31
0.0
  0
LINE
  5
DD
330
1F
100
AcDbEntity
  8
0
  6
Continuous
 62
     7
370
    25
100
AcDbLine
 10
65.9523832284
 20
170.8278308158
 30
0.0
 11
48.3772447342
 21
170.8278308158
 31
0.0
  0
LINE
  5
DE
330
1F
100
AcDbEntity
  8
0
  6
Continuous
 62
     7
370
    25
100
AcDbLine
 10
45.2297226646
 20
148.7951763285
 30
0.0
 11
45.2297226646
 21
170.8278308158
 31
0.0
  0
LINE
  5
DF
330
1F
100
AcDbEntity
  8
0
  6
Continuous
 62
     7
370
    25
100
AcDbLine
 10
45.2297226646
 20
170.8278308158
 30
0.0
 11
48.3772447342
 21
170.8278308158
 31
0.0
  0
LINE
  5
E0
330
1F
100
AcDbEntity
  8
0
  6
Continuous
 62
     7
370
    25
100
AcDbLine
 10
65.9523832284
 20
145.6476542589
 30
0.0
 11
48.3772447342
 21
145.6476542589
 31
0.0
  0
ARC
  5
E1
330
1F
100
AcDbEntity
  8
0
  6
Continuous
 62
     7
370
    25
100
AcDbCircle
 10
48.3772447342
 20
148.7951763285
 30
0.0
 40
3.147522069617537
100
AcDbArc
 50
180.0
 51
270.0
  0
LINE
  5
E2
330
1F
100
AcDbEntity
  8
0
  6
HIDDEN
 62
     7
370
    18
100
AcDbLine
 10
95.5900757785
 20
168.3098131601
 30
0.0
 11
82.9999875
 21
168.3098131601
 31
0.0
  0
LINE
  5
E3
330
1F
100
AcDbEntity
  8
0
  6
HIDDEN
 62
     7
370
    18
100
AcDbLine
 10
49.1641252516
 20
154.1459638469
 30
0.0
 11
49.1641252516
 21
168.3098131601
 31
0.0
  0
LINE
  5
E4
330
1F
100
AcDbEntity
  8
0
  6
HIDDEN
 62
     7
370
    18
100
AcDbLine
 10
69.6230187041
 20
168.3098131601
 30
0.0
 11
73.4000451877
 21
164.5327866766
 31
0.0
  0
LINE
  5
E5
330
1F
100
AcDbEntity
  8
0
  6
HIDDEN
 62
     7
370
    18
100
AcDbLine
 10
69.6230187041
 20
168.3098131601
 30
0.0
 11
49.1641252516
 21
168.3098131601
 31
0.0
  0
LINE
  5
E6
330
1F
100
AcDbEntity
  8
0
  6
HIDDEN
 62
     7
370
    18
100
AcDbLine
 10
107.3932835395
 20
154.1459638469
 30
0.0
 11
107.3932835395
 21
164.5327866766
 31
0.0
  0
LINE
  5
E7
330
1F
100
AcDbEntity
  8
0
  6
HIDDEN
 62
     7
370
    18
100
AcDbLine
 10
107.3932835395
 20
164.5327866766
 30
0.0
 11
73.4000451877
 21
164.5327866766
 31
0.0
  0
LINE
  5
E8
330
1F
100
AcDbEntity
  8
0
  6
HIDDEN
 62
     7
370
    18
100
AcDbLine
 10
107.3932835395
 20
154.1459638469
 30
0.0
 11
49.1641252516
 21
154.1459638469
 31
0.0
  0
LINE
  5
E9
330
1F
100
AcDbEntity
  8
0
  6
HIDDEN
 62
     7
370
    18
100
AcDbLine
 10
50.7378862864
 20
152.5722028121
 30
0.0
 11
49.1641252516
 21
154.1459638469
 31
0.0
  0
LINE
  5
EA
330
1F
100
AcDbEntity
  8
0
  6
HIDDEN
 62
     7
370
    18
100
AcDbLine
 10
105.8195225047
 20
152.5722028121
 30
0.0
 11
107.3932835395
 21
154.1459638469
 31
0.0
  0
LINE
  5
EB
330
1F
100
AcDbEntity
  8
0
  6
HIDDEN
 62
     7
370
    18
100
AcDbLine
 10
49.1641252516
 20
150.9984417772
 30
0.0
 11
107.3932835395
 21
150.9984417772
 31
0.0
  0
LINE
  5
EC
330
1F
100
AcDbEntity
  8
0
  6
HIDDEN
 62
     7
370
    18
100
AcDbLine
 10
49.1641252516
 20
145.6476542589
 30
0.0
 11
49.1641252516
 21
150.9984417772
 31
0.0
  0
LINE
  5
ED
330
1F
100
AcDbEntity
  8
0
  6
HIDDEN
 62
     7
370
    18
100
AcDbLine
 10
107.3932835395
 20
145.6476542589
 30
0.0
 11
107.3932835395
 21
150.9984417772
 31
0.0
  0
LINE
  5
EE
330
1F
100
AcDbEntity
  8
0
  6
HIDDEN
 62
     7
370
    18
100
AcDbLine
 10
105.8195225047
 20
152.5722028121
 30
0.0
 11
50.7378862864
 21
152.5722028121
 31
0.0
  0
LINE
  5
EF
330
1F
100
AcDbEntity
  8
0
  6
HIDDEN
 62
     7
370
    18
100
AcDbLine
 10
50.7378862864
 20
152.5722028121
 30
0.0
 11
50.7378862864
 21
150.9984417772
 31
0.0
  0
LINE
  5
F0
330
1F
100
AcDbEntity
  8
0
  6
HIDDEN
 62
     7
370
    18
100
AcDbLine
 10
105.8195225047
 20
152.5722028121
 30
0.0
 11
105.8195225047
 21
150.9984417772
 31
0.0
  0
LINE
  5
F1
330
1F
100
AcDbEntity
  8
0
  6
HIDDEN
 62
     7
370
    18
100
AcDbLine
 10
56.2425739247
 20
170.8278308158
 30
0.0
 11
56.2425739247
 21
168.3098131601
 31
0.0
  0
LINE
  5
F2
330
1F
100
AcDbEntity
  8
0
  6
HIDDEN
 62
     7
370
    18
100
AcDbLine
 10
99.5244783655
 20
170.8278308158
 30
0.0
 11
99.5244783655
 21
164.5327866766
 31
0.0
  0
LINE
  5
F3
330
1F
100
AcDbEntity
  8
0
  6
HIDDEN
 62
     7
370
    18
100
AcDbLine
 10
48.3772447342
 20
168.3098131601
 30
0.0
 11
45.2297226646
 21
168.3098131601
 31
0.0
  0
LINE
  5
F4
330
1F
100
AcDbEntity
  8
0
  6
HIDDEN
 62
     7
370
    18
100
AcDbLine
 10
48.3772447342
 20
155.7197248817
 30
0.0
 11
45.2297226646
 21
152.5722028121
 31
0.0
  0
LINE
  5
F5
330
1F
100
AcDbEntity
  8
0
  6
HIDDEN
 62
     7
370
    18
100
AcDbLine
 10
48.3772447342
 20
155.7197248817
 30
0.0
 11
48.3772447342
 21
168.3098131601
 31
0.0
  0
LINE
  5
F6
330
1F
100
AcDbEntity
  8
0
  6
HIDDEN
 62
     7
370
    18
100
AcDbLine
 10
49.1641252516
 20
168.3098131601
 30
0.0
 11
48.3772447342
 21
168.3098131601
 31
0.0
  0
LINE
  5
F7
330
1F
100
AcDbEntity
  8
0
  6
HIDDEN
 62
     7
370
    18
100
AcDbLine
 10
49.1641252516
 20
155.7197248817
 30
0.0
 11
48.3772447342
 21
155.7197248817
 31
0.0
  0
LINE
  5
F8
330
1F
100
AcDbEntity
  8
0
  6
HIDDEN
 62
     7
370
    18
100
AcDbLine
 10
49.1641252516
 20
154.1459638469
 30
0.0
 11
49.1641252516
 21
150.9984417772
 31
0.0
  0
LINE
  5
F9
330
1F
100
AcDbEntity
  8
0
  6
HIDDEN
 62
     7
370
    18
100
AcDbLine
 10
49.1641252516
 20
170.8278308158
 30
0.0
 11
49.1641252516
 21
168.3098131601
 31
0.0
  0
LINE
  5
FA
330
1F
100
AcDbEntity
  8
0
  6
HIDDEN
 62
     7
370
    18
100
AcDbLine
 10
51.1672230418
 20
170.8278308158
 30
0.0
 11
51.1672230418
 21
168.3098131601
 31
0.0
  0
LINE
  5
FB
330
1F
100
AcDbEntity
  8
0
  6
HIDDEN
 62
     7
370
    18
100
AcDbLine
 10
45.7932218242
 20
168.3098131601
 30
0.0
 11
45.7932218242
 21
153.1357019717
 31
0.0
  0
LINE
  5
FC
330
1F
100
AcDbEntity
  8
0
  6
HIDDEN
 62
     7
370
    18
100
AcDbLine
 10
95.5900757785
 20
153.201707226
 30
0.0
 11
95.5900757785
 21
168.3098131601
 31
0.0
  0
LINE
  5
FD
330
1F
100
AcDbEntity
  8
0
  6
HIDDEN
 62
     7
370
    18
100
AcDbLine
 10
82.9999875
 20
168.3098131601
 30
0.0
 11
82.9999875
 21
153.201707226
 31
0.0
  0
LINE
  5
FE
330
1F
100
AcDbEntity
  8
0
  6
HIDDEN
 62
     7
370
    18
100
AcDbLine
 10
92.4425537089
 20
168.3098131601
 30
0.0
 11
92.4425537089
 21
170.8278308158
 31
0.0
  0
LINE
  5
FF
330
1F
100
AcDbEntity
  8
0
  6
HIDDEN
 62
     7
370
    18
100
AcDbLine
 10
86.1475095696
 20
170.8278308158
 30
0.0
 11
86.1475095696
 21
168.3098131601
 31
0.0
  0
LINE
  5
100
330
1F
100
AcDbEntity
  8
0
  6
Continuous
 62
     7
370
    25
100
AcDbLine
 10
235.8278308158
 20
105.7865920791
 30
0.0
 11
230.6581461559
 21
105.7865920791
 31
0.0
  0
LINE
  5
101
330
1F
100
AcDbEntity
  8
0
  6
Continuous
 62
     7
370
    25
100
AcDbLine
 10
230.6579220156
 20
8.2134079209
 30
0.0
 11
235.8278308158
 21
8.2134079209
 31
0.0
  0
SPLINE
  5
102
330
1F
100
AcDbEntity
  8
0
  6
Continuous
 62
     7
370
    25
100
AcDbSpline
210
0.0
220
0.0
230
1.0
 70
     8
 71
     3
 72
    14
 73
    10
 74
     0
 42
0.00000001
 43
0.00000001
 40
0.0
 40
0.0
 40
0.0
 40
0.0
 40
0.1057018313424043
 40
0.1600723935068257
 40
0.2187617134919959
 40
0.3615878380273576
 40
0.5412286257048362
 40
0.7562807359453634
 40
0.9999999999999999
 40
0.9999999999999999
 40
0.9999999999999999
 40
0.9999999999999999
 10
230.6621774979988
 20
105.7738804042221
 30
0.0
 10
230.5340367340388
 20
105.7687674051215
 30
0.0
 10
230.3399833431715
 20
105.7610243982725
 30
0.0
 10
230.0723462058321
 20
105.71811424478
 30
0.0
 10
229.7762726223242
 20
105.6523232677195
 30
0.0
 10
229.4101001687872
 20
105.5230136306765
 30
0.0
 10
229.0112170162042
 20
105.3071565575711
 30
0.0
 10
228.6228900305804
 20
105.0267731717982
 30
0.0
 10
228.3690059100132
 20
104.8158276267928
 30
0.0
 10
228.234131646956
 20
104.7037641985476
 30
0.0
  0
SPLINE
  5
103
330
1F
100
AcDbEntity
  8
0
  6
Continuous
 62
     7
370
    25
100
AcDbSpline
210
0.0
220
0.0
230
1.0
 70
     8
 71
     3
 72
    18
 73
    14
 74
     0
 42
0.00000001
 43
0.00000001
 40
0.0
 40
0.0
 40
0.0
 40
0.0
 40
0.2222729362364022
 40
0.4184130428865324
 40
0.5844283812813604
 40
0.7149529257755838
 40
0.7644605207123284
 40
0.8031861152019487
 40
0.834463542574746
 40
0.8629462643168381
 40
0.8926636667856458
 40
0.9255875864710773
 40
1.0
 40
1.0
 40
1.0
 40
1.0
 10
226.8661505316568
 20
10.43560470837616
 30
0.0
 10
227.1901043903973
 20
10.16655627891544
 30
0.0
 10
227.7999245605248
 20
9.660091686506535
 30
0.0
 10
228.4602704249118
 20
9.121431930258002
 30
0.0
 10
228.88567302256
 20
8.788999144415097
 30
0.0
 10
229.1242919400484
 20
8.625611697183434
 30
0.0
 10
229.3117668017711
 20
8.527700523575085
 30
0.0
 10
229.4553353200354
 20
8.465411988941755
 30
0.0
 10
229.626409802421
 20
8.403434720868539
 30
0.0
 10
229.8222470684915
 20
8.344678370558494
 30
0.0
 10
230.0276638906271
 20
8.29547801538983
 30
0.0
 10
230.3194143137997
 20
8.24184545579476
 30
0.0
 10
230.5218418078649
 20
8.232558150208478
 30
0.0
 10
230.662177497998
 20
8.226119595777195
 30
0.0
  0
LINE
  5
104
330
1F
100
AcDbEntity
  8
0
  6
Continuous
 62
     7
370
    25
100
AcDbLine
 10
235.8278308158
 20
75.5337950629
 30
0.0
 11
235.8278308158
 21
38.4662049371
 31
0.0
  0
LINE
  5
105
330
1F
100
AcDbEntity
  8
0
  6
Continuous
 62
     7
370
    25
100
AcDbLine
 10
235.8278308158
 20
38.4662049371
 30
0.0
 11
235.8278308158
 21
27.4565175576
 31
0.0
  0
LINE
  5
106
330
1F
100
AcDbEntity
  8
0
  6
Continuous
 62
     7
370
    25
100
AcDbLine
 10
235.8278308158
 20
86.5434824424
 30
0.0
 11
235.8278308158
 21
75.5337950629
 31
0.0
  0
LINE
  5
107
330
1F
100
AcDbEntity
  8
0
  6
Continuous
 62
     7
370
    25
100
AcDbLine
 10
235.8278308158
 20
86.5434824424
 30
0.0
 11
235.8278308158
 21
103.5475898545
 31
0.0
  0
LINE
  5
108
330
1F
100
AcDbEntity
  8
0
  6
Continuous
 62
     7
370
    25
100
AcDbLine
 10
235.8278308158
 20
27.4565175576
 30
0.0
 11
235.8278308158
 21
10.4524101455
 31
0.0
  0
LINE
  5
109
330
1F
100
AcDbEntity
  8
0
  6
Continuous
 62
     7
370
    25
100
AcDbLine
 10
210.6476542589
 20
31.1127699816
 30
0.0
 11
210.6476542589
 21
82.8872300184
 31
0.0
  0
SPLINE
  5
10A
330
1F
100
AcDbEntity
  8
0
  6
Continuous
 62
     7
370
    25
100
AcDbSpline
210
0.0
220
0.0
230
1.0
 70
    24
 71
     3
 72
    10
 73
     6
 74
     0
 42
0.00000001
 43
0.00000001
 40
0.0
 40
0.0
 40
0.0
 40
0.0
 40
0.5
 40
0.5
 40
1.0
 40
1.0
 40
1.0
 40
1.0
 10
210.8773961922913
 20
23.75956665784743
 30
0.0
 10
210.7917131052444
 20
23.83096923038649
 30
0.0
 10
210.7351884302059
 20
23.87807312625186
 30
0.0
 10
210.6628816696366
 20
23.93832876005969
 30
0.0
 10
210.6476545259072
 20
23.95101804651008
 30
0.0
 10
210.6476542588954
 20
23.95101826901987
 30
0.0
  0
SPLINE
  5
10B
330
1F
100
AcDbEntity
  8
0
  6
Continuous
 62
     7
370
    25
100
AcDbSpline
210
0.0
220
0.0
230
1.0
 70
    24
 71
     3
 72
    21
 73
    17
 74
     0
 42
0.00000001
 43
0.00000001
 40
0.0
 40
0.0
 40
0.0
 40
0.0
 40
0.0428294443665456
 40
0.085526627935248
 40
0.1281276099626513
 40
0.1706686943370037
 40
0.213186338378504
 40
0.2557170596865266
 40
0.3824498288233465
 40
0.5083064336816048
 40
0.6330133205573966
 40
0.7565968016623437
 40
0.8179826527370315
 40
0.8789171627347244
 40
0.9395417480679826
 40
1.0
 40
1.0
 40
1.0
 40
1.0
 10
210.6476542588919
 20
23.95101826901275
 30
0.0
 10
210.6476542588919
 20
24.03524500858171
 30
0.0
 10
210.6476542588919
 20
24.20343838871673
 30
0.0
 10
210.6476542588919
 20
24.46346250139666
 30
0.0
 10
210.6476542588919
 20
24.72855813666121
 30
0.0
 10
210.6476542588919
 20
24.99930996745749
 30
0.0
 10
210.6476542588919
 20
25.27556966754225
 30
0.0
 10
210.6476542588919
 20
25.74313349274742
 30
0.0
 10
210.6476542588919
 20
26.41905091111788
 30
0.0
 10
210.6476542588919
 20
27.32351690956948
 30
0.0
 10
210.6476542588919
 20
28.25338089112392
 30
0.0
 10
210.6476542588919
 20
29.04473804238328
 30
0.0
 10
210.6476542588919
 20
29.68160035141748
 30
0.0
 10
210.6476542588919
 20
30.15880017844113
 30
0.0
 10
210.6476542588919
 20
30.6358358452277
 30
0.0
 10
210.6476542588919
 20
30.95393759661972
 30
0.0
 10
210.6476542588919
 20
31.1127699816219
 30
0.0
  0
SPLINE
  5
10C
330
1F
100
AcDbEntity
  8
0
  6
Continuous
 62
     7
370
    25
100
AcDbSpline
210
0.0
220
0.0
230
1.0
 70
     8
 71
     3
 72
    19
 73
    15
 74
     0
 42
0.00000001
 43
0.00000001
 40
0.0
 40
0.0
 40
0.0
 40
0.0
 40
0.0154684245750215
 40
0.031028089720336
 40
0.0621516268894161
 40
0.1244253394986302
 40
0.2491045527663043
 40
0.3631911395126842
 40
0.4990726601840453
 40
0.6419583056864924
 40
0.7637066637860583
 40
0.8637969657727312
 40
0.9423903858669619
 40
1.0
 40
1.0
 40
1.0
 40
1.0
 10
213.3486150365275
 20
23.73895978257801
 30
0.0
 10
213.3319928736562
 20
23.73401606539015
 30
0.0
 10
213.2986505020127
 20
23.72409947047691
 30
0.0
 10
213.2322206043572
 20
23.70472412222302
 30
0.0
 10
213.1162192693749
 20
23.67234279760415
 30
0.0
 10
212.8865746904962
 20
23.61376577865476
 30
0.0
 10
212.5779437230451
 20
23.55062255624433
 30
0.0
 10
212.2131841764645
 20
23.50184004490199
 30
0.0
 10
211.856759785188
 20
23.48432406721295
 30
0.0
 10
211.531102036882
 20
23.50462400547256
 30
0.0
 10
211.2728332187413
 20
23.55697705517664
 30
0.0
 10
211.0892795610143
 20
23.62498031150753
 30
0.0
 10
210.9630012150386
 20
23.69341157549065
 30
0.0
 10
210.9024704279527
 20
23.74021190877271
 30
0.0
 10
210.8768678023799
 20
23.76000698277361
 30
0.0
  0
SPLINE
  5
10D
330
1F
100
AcDbEntity
  8
0
  6
Continuous
 62
     7
370
    25
100
AcDbSpline
210
0.0
220
0.0
230
1.0
 70
    24
 71
     3
 72
    20
 73
    16
 74
     0
 42
0.00000001
 43
0.00000001
 40
0.0
 40
0.0
 40
0.0
 40
0.0
 40
0.0402786419139417
 40
0.0806171464842337
 40
0.12105827540202
 40
0.1616444659840954
 40
0.2024177026035499
 40
0.2434193950506824
 40
0.3669369981103567
 40
0.4917132723383913
 40
0.6175028502946598
 40
0.7443062160135437
 40
0.8293157437506959
 40
0.9144499134471674
 40
1.0
 40
1.0
 40
1.0
 40
1.0
 10
210.6476542588919
 20
82.8872300183736
 30
0.0
 10
210.6476542588919
 20
82.99304029257353
 30
0.0
 10
210.6476542588919
 20
83.20481809761814
 30
0.0
 10
210.6476542588919
 20
83.52249353653212
 30
0.0
 10
210.6476542588919
 20
83.84030024982376
 30
0.0
 10
210.6476542588919
 20
84.15823533461014
 30
0.0
 10
210.6476542588919
 20
84.47630499107747
 30
0.0
 10
210.6476542588919
 20
85.00715836581918
 30
0.0
 10
210.6476542588919
 20
85.74645363349082
 30
0.0
 10
210.6476542588919
 20
86.6761537807788
 30
0.0
 10
210.6476542588919
 20
87.58076615622873
 30
0.0
 10
210.6476542588919
 20
88.35407135845524
 30
0.0
 10
210.6476542588919
 20
89.00326960231713
 30
0.0
 10
210.6476542588919
 20
89.54131003925526
 30
0.0
 10
210.6476542588919
 20
89.87948315131246
 30
0.0
 10
210.6476542588919
 20
90.04898173098272
 30
0.0
  0
SPLINE
  5
10E
330
1F
100
AcDbEntity
  8
0
  6
Continuous
 62
     7
370
    25
100
AcDbSpline
210
0.0
220
0.0
230
1.0
 70
    24
 71
     3
 72
    10
 73
     6
 74
     0
 42
0.00000001
 43
0.00000001
 40
0.0
 40
0.0
 40
0.0
 40
0.0
 40
0.5
 40
0.5
 40
1.0
 40
1.0
 40
1.0
 40
1.0
 10
210.6476542588954
 20
90.04898173098483
 30
0.0
 10
210.6476545251517
 20
90.04898195286503
 30
0.0
 10
210.6624124489487
 20
90.06128022269588
 30
0.0
 10
210.7341873611572
 20
90.12109264953622
 30
0.0
 10
210.7920503808983
 20
90.16931183265383
 30
0.0
 10
210.8773961922925
 20
90.24043334214902
 30
0.0
  0
SPLINE
  5
10F
330
1F
100
AcDbEntity
  8
0
  6
Continuous
 62
     7
370
    25
100
AcDbSpline
210
0.0
220
0.0
230
1.0
 70
     8
 71
     3
 72
    20
 73
    16
 74
     0
 42
0.00000001
 43
0.00000001
 40
0.0
 40
0.0
 40
0.0
 40
0.0
 40
0.0465729924409509
 40
0.1076474826263309
 40
0.1835525910757278
 40
0.2744965688813039
 40
0.3804428030492517
 40
0.5009695389145675
 40
0.6367954733100734
 40
0.7509165262586891
 40
0.8755851892726998
 40
0.9378536323310055
 40
0.9689745358517077
 40
0.9845328843508129
 40
0.9999999999999999
 40
0.9999999999999999
 40
0.9999999999999999
 40
0.9999999999999999
 10
210.8768678023799
 20
90.23999301722182
 30
0.0
 10
210.8973729172174
 20
90.25607606043314
 30
0.0
 10
210.944767853156
 20
90.2932499464974
 30
0.0
 10
211.0390810120654
 20
90.34903976982054
 30
0.0
 10
211.1699303837019
 20
90.40742773050216
 30
0.0
 10
211.3472738927208
 20
90.46035068987592
 30
0.0
 10
211.5796420238281
 20
90.49904207167026
 30
0.0
 10
211.8770044118366
 20
90.51469012351399
 30
0.0
 10
212.2131409254755
 20
90.49816039322317
 30
0.0
 10
212.5778989220729
 20
90.44938762616015
 30
0.0
 10
212.8865746323873
 20
90.38623409760838
 30
0.0
 10
213.1162192745177
 20
90.32765721333858
 30
0.0
 10
213.2322206039282
 20
90.29527587685796
 30
0.0
 10
213.2986505020918
 20
90.27590052968739
 30
0.0
 10
213.331992873682
 20
90.26598393466197
 30
0.0
 10
213.3486150365266
 20
90.26104021741828
 30
0.0
  0
LINE
  5
110
330
1F
100
AcDbEntity
  8
0
  6
Continuous
 62
     7
370
    25
100
AcDbLine
 10
210.8768678024
 20
90.2399930172
 30
0.0
 11
214.0125136971
 21
92.8530312628
 31
0.0
  0
LINE
  5
111
330
1F
100
AcDbEntity
  8
0
  6
Continuous
 62
     7
370
    25
100
AcDbLine
 10
214.0125136971
 20
21.1469687372
 30
0.0
 11
210.8768678024
 21
23.7600069828
 31
0.0
  0
LINE
  5
112
330
1F
100
AcDbEntity
  8
0
  6
Continuous
 62
     7
370
    25
100
AcDbLine
 10
214.0125136971
 20
92.8530312628
 30
0.0
 11
226.8661505317
 21
103.5643952916
 31
0.0
  0
LINE
  5
113
330
1F
100
AcDbEntity
  8
0
  6
Continuous
 62
     7
370
    25
100
AcDbLine
 10
226.8661505317
 20
10.4356047084
 30
0.0
 11
214.0125136971
 21
21.1469687372
 31
0.0
  0
LINE
  5
114
330
1F
100
AcDbEntity
  8
0
  6
Continuous
 62
     7
370
    25
100
AcDbLine
 10
235.8278308158
 20
103.5475898545
 30
0.0
 11
235.8278308158
 21
105.7865920791
 31
0.0
  0
LINE
  5
115
330
1F
100
AcDbEntity
  8
0
  6
Continuous
 62
     7
370
    25
100
AcDbLine
 10
230.6579220156
 20
8.2193709422
 30
0.0
 11
230.660914439
 21
8.2160602132
 31
0.0
  0
LINE
  5
116
330
1F
100
AcDbEntity
  8
0
  6
Continuous
 62
     7
370
    25
100
AcDbLine
 10
235.8278308158
 20
10.4524101455
 30
0.0
 11
235.8278308158
 21
8.2134079209
 31
0.0
  0
SPLINE
  5
117
330
1F
100
AcDbEntity
  8
0
  6
Continuous
 62
     7
370
    25
100
AcDbSpline
210
0.0
220
0.0
230
1.0
 70
    24
 71
     3
 72
    11
 73
     7
 74
     0
 42
0.00000001
 43
0.00000001
 40
0.0
 40
0.0
 40
0.0
 40
0.0
 40
0.3387542669094785
 40
0.6598822942953957
 40
0.9641151024699638
 40
1.0
 40
1.0
 40
1.0
 40
1.0
 10
226.866150531657
 20
103.5643952916195
 30
0.0
 10
227.0493835580397
 20
103.7170894802717
 30
0.0
 10
227.406315533962
 20
104.0145327935402
 30
0.0
 10
227.8471440831126
 20
104.3818899178324
 30
0.0
 10
228.1258366098099
 20
104.6141336900802
 30
0.0
 10
228.2235350713923
 20
104.6955490747322
 30
0.0
 10
228.2338429713456
 20
104.7041389913599
 30
0.0
  0
LINE
  5
118
330
1F
100
AcDbEntity
  8
0
  6
HIDDEN
 62
     7
370
    18
100
AcDbLine
 10
219.1459638469
 20
86.114579144
 30
0.0
 11
229.5327866766
 21
86.114579144
 31
0.0
  0
LINE
  5
119
330
1F
100
AcDbEntity
  8
0
  6
HIDDEN
 62
     7
370
    18
100
AcDbLine
 10
219.1459638469
 20
27.885420856
 30
0.0
 11
229.5327866766
 21
27.885420856
 31
0.0
  0
LINE
  5
11A
330
1F
100
AcDbEntity
  8
0
  6
HIDDEN
 62
     7
370
    18
100
AcDbLine
 10
229.5327866766
 20
86.114579144
 30
0.0
 11
229.5327866766
 21
27.885420856
 31
0.0
  0
LINE
  5
11B
330
1F
100
AcDbEntity
  8
0
  6
HIDDEN
 62
     7
370
    18
100
AcDbLine
 10
217.5722028121
 20
29.4591818909
 30
0.0
 11
219.1459638469
 21
27.885420856
 31
0.0
  0
LINE
  5
11C
330
1F
100
AcDbEntity
  8
0
  6
HIDDEN
 62
     7
370
    18
100
AcDbLine
 10
217.5722028121
 20
84.5408181091
 30
0.0
 11
219.1459638469
 21
86.114579144
 31
0.0
  0
LINE
  5
11D
330
1F
100
AcDbEntity
  8
0
  6
HIDDEN
 62
     7
370
    18
100
AcDbLine
 10
219.1459638469
 20
27.885420856
 30
0.0
 11
219.1459638469
 21
86.114579144
 31
0.0
  0
LINE
  5
11E
330
1F
100
AcDbEntity
  8
0
  6
HIDDEN
 62
     7
370
    18
100
AcDbLine
 10
210.6476542589
 20
86.114579144
 30
0.0
 11
215.9984417772
 21
86.114579144
 31
0.0
  0
LINE
  5
11F
330
1F
100
AcDbEntity
  8
0
  6
HIDDEN
 62
     7
370
    18
100
AcDbLine
 10
215.9984417772
 20
86.114579144
 30
0.0
 11
215.9984417772
 21
27.885420856
 31
0.0
  0
LINE
  5
120
330
1F
100
AcDbEntity
  8
0
  6
HIDDEN
 62
     7
370
    18
100
AcDbLine
 10
210.6476542589
 20
27.885420856
 30
0.0
 11
215.9984417772
 21
27.885420856
 31
0.0
  0
LINE
  5
121
330
1F
100
AcDbEntity
  8
0
  6
HIDDEN
 62
     7
370
    18
100
AcDbLine
 10
217.5722028121
 20
84.5408181091
 30
0.0
 11
215.9984417772
 21
84.5408181091
 31
0.0
  0
LINE
  5
122
330
1F
100
AcDbEntity
  8
0
  6
HIDDEN
 62
     7
370
    18
100
AcDbLine
 10
217.5722028121
 20
29.4591818909
 30
0.0
 11
215.9984417772
 21
29.4591818908
 31
0.0
  0
LINE
  5
123
330
1F
100
AcDbEntity
  8
0
  6
HIDDEN
 62
     7
370
    18
100
AcDbLine
 10
217.5722028121
 20
29.4591818909
 30
0.0
 11
217.5722028121
 21
84.5408181091
 31
0.0
  0
LINE
  5
124
330
1F
100
AcDbEntity
  8
0
  6
HIDDEN
 62
     7
370
    18
100
AcDbLine
 10
235.8278308158
 20
78.2457739699
 30
0.0
 11
229.5327866766
 21
78.2457739699
 31
0.0
  0
LINE
  5
125
330
1F
100
AcDbEntity
  8
0
  6
HIDDEN
 62
     7
370
    18
100
AcDbLine
 10
235.8278308158
 20
34.9638695291
 30
0.0
 11
229.5327866766
 21
34.9638695291
 31
0.0
  0
LINE
  5
126
330
1F
100
AcDbEntity
  8
0
  6
HIDDEN
 62
     7
370
    18
100
AcDbLine
 10
233.3098131601
 20
11.3609299905
 30
0.0
 11
233.3098131601
 21
23.951018269
 31
0.0
  0
LINE
  5
127
330
1F
100
AcDbEntity
  8
0
  6
HIDDEN
 62
     7
370
    18
100
AcDbLine
 10
233.3098131601
 20
90.048981731
 30
0.0
 11
233.3098131601
 21
102.6390700095
 31
0.0
  0
LINE
  5
128
330
1F
100
AcDbEntity
  8
0
  6
HIDDEN
 62
     7
370
    18
100
AcDbLine
 10
235.8278308158
 20
90.048981731
 30
0.0
 11
233.3098131601
 21
90.048981731
 31
0.0
  0
LINE
  5
129
330
1F
100
AcDbEntity
  8
0
  6
HIDDEN
 62
     7
370
    18
100
AcDbLine
 10
235.8278308158
 20
23.951018269
 30
0.0
 11
233.3098131601
 21
23.951018269
 31
0.0
  0
ARC
  5
12A
330
1F
100
AcDbEntity
  8
0
  6
HIDDEN
 62
     7
370
    18
100
AcDbCircle
 10
213.7951763285
 20
27.0985403386
 30
0.0
 40
3.147522069617573
100
AcDbArc
 50
180.0
 51
270.0
  0
SPLINE
  5
12B
330
1F
100
AcDbEntity
  8
0
  6
HIDDEN
 62
     7
370
    18
100
AcDbSpline
210
0.0
220
0.0
230
1.0
 70
     8
 71
     3
 72
    24
 73
    20
 74
     0
 42
0.00000001
 43
0.00000001
 40
0.0
 40
0.0
 40
0.0
 40
0.0
 40
0.0726448327676947
 40
0.1435530365422654
 40
0.2127273253383411
 40
0.2801700018393717
 40
0.3458830118242532
 40
0.4098679996955231
 40
0.4721263651175754
 40
0.5326593208578447
 40
0.5914679520116595
 40
0.6485532768871903
 40
0.7039163099361723
 40
0.7575581272448141
 40
0.8094799352549482
 40
0.8596831435765767
 40
0.9081694429910357
 40
0.9549408900431418
 40
1.0
 40
1.0
 40
1.0
 40
1.0
 10
213.7951763285095
 20
22.55660027711728
 30
0.0
 10
213.7349317126885
 20
22.55179794843349
 30
0.0
 10
213.6158826735906
 20
22.54230809432044
 30
0.0
 10
213.4398604081282
 20
22.54003629267484
 30
0.0
 10
213.2690955110106
 20
22.54597563368779
 30
0.0
 10
213.1039912160919
 20
22.56026306533956
 30
0.0
 10
212.9448926380645
 20
22.58199327062469
 30
0.0
 10
212.7920709115719
 20
22.61054277557341
 30
0.0
 10
212.6457328589833
 20
22.64523381496929
 30
0.0
 10
212.5060242661207
 20
22.68542560688403
 30
0.0
 10
212.3730350076549
 20
22.73049480661175
 30
0.0
 10
212.2468034761276
 20
22.77984347679359
 30
0.0
 10
212.1273221348812
 20
22.83290038625622
 30
0.0
 10
212.0145392714786
 20
22.88911960845376
 30
0.0
 10
211.9083738204456
 20
22.94799280087875
 30
0.0
 10
211.808683225089
 20
23.00900933715752
 30
0.0
 10
211.715397274409
 20
23.07180016614799
 30
0.0
 10
211.628063147264
 20
23.13562912046454
 30
0.0
 10
211.5733159311638
 20
23.18016621406006
 30
0.0
 10
211.5464527506448
 20
23.20201952588614
 30
0.0
  0
ARC
  5
12C
330
1F
100
AcDbEntity
  8
0
  6
HIDDEN
 62
     7
370
    18
100
AcDbCircle
 10
213.7951763285
 20
86.9014596614
 30
0.0
 40
3.147522069617551
100
AcDbArc
 50
90.0
 51
180.0
  0
SPLINE
  5
12D
330
1F
100
AcDbEntity
  8
0
  6
HIDDEN
 62
     7
370
    18
100
AcDbSpline
210
0.0
220
0.0
230
1.0
 70
     8
 71
     3
 72
    18
 73
    14
 74
     0
 42
0.00000001
 43
0.00000001
 40
0.0
 40
0.0
 40
0.0
 40
0.0
 40
0.0703617984615255
 40
0.1448163519259894
 40
0.2233714791215177
 40
0.3060329456377641
 40
0.3928051902978363
 40
0.4836919730549388
 40
0.5786969685234953
 40
0.6778243216358049
 40
0.7810791764437315
 40
0.8884681849998571
 40
1.0
 40
1.0
 40
1.0
 40
1.0
 10
211.5464527506448
 20
90.79798047410931
 30
0.0
 10
211.5886402668507
 20
90.8318362963494
 30
0.0
 10
211.6754692326721
 20
90.90151724219594
 30
0.0
 10
211.8184518244459
 20
90.99838880807928
 30
0.0
 10
211.9760745560702
 20
91.09169285085765
 30
0.0
 10
212.1495573311092
 20
91.17892181706178
 30
0.0
 10
212.3390284670427
 20
91.25840804530644
 30
0.0
 10
212.5446625629969
 20
91.32803804727888
 30
0.0
 10
212.7662989239992
 20
91.38559218006272
 30
0.0
 10
213.003500999182
 20
91.42884283287184
 30
0.0
 10
213.2554750414155
 20
91.45485372880543
 30
0.0
 10
213.521082799718
 20
91.4630008639839
 30
0.0
 10
213.7026664037001
 20
91.4500153482009
 30
0.0
 10
213.7951763285095
 20
91.44339972287818
 30
0.0
  0
LINE
  5
12E
330
1F
100
AcDbEntity
  8
0
  6
HIDDEN
 62
     7
370
    18
100
AcDbLine
 10
233.3098131601
 20
86.114579144
 30
0.0
 11
229.5327866766
 21
86.114579144
 31
0.0
  0
LINE
  5
12F
330
1F
100
AcDbEntity
  8
0
  6
HIDDEN
 62
     7
370
    18
100
AcDbLine
 10
229.5327866766
 20
27.885420856
 30
0.0
 11
233.3098131601
 21
27.885420856
 31
0.0
  0
LINE
  5
130
330
1F
100
AcDbEntity
  8
0
  6
HIDDEN
 62
     7
370
    18
100
AcDbLine
 10
233.3098131601
 20
34.9638695291
 30
0.0
 11
233.3098131601
 21
27.885420856
 31
0.0
  0
LINE
  5
131
330
1F
100
AcDbEntity
  8
0
  6
HIDDEN
 62
     7
370
    18
100
AcDbLine
 10
233.3098131601
 20
86.114579144
 30
0.0
 11
233.3098131601
 21
78.2457739699
 31
0.0
  0
LINE
  5
132
330
1F
100
AcDbEntity
  8
0
  6
HIDDEN
 62
     7
370
    18
100
AcDbLine
 10
233.3098131601
 20
34.9638695291
 30
0.0
 11
233.3098131601
 21
78.2457739699
 31
0.0
  0
LINE
  5
133
330
1F
100
AcDbEntity
  8
0
  6
HIDDEN
 62
     7
370
    18
100
AcDbLine
 10
235.8278308158
 20
57.0068249977
 30
0.0
 11
233.3098131601
 21
57.0068249977
 31
0.0
  0
LINE
  5
134
330
1F
100
AcDbEntity
  8
0
  6
HIDDEN
 62
     7
370
    18
100
AcDbLine
 10
219.1459638469
 20
59.3606415522
 30
0.0
 11
217.5722028121
 21
59.3606415522
 31
0.0
  0
LINE
  5
135
330
1F
100
AcDbEntity
  8
0
  6
HIDDEN
 62
     7
370
    18
100
AcDbLine
 10
217.5722028121
 20
59.3606415522
 30
0.0
 11
215.9984417772
 21
59.3606415522
 31
0.0
  0
LINE
  5
136
330
1F
100
AcDbEntity
  8
0
  6
HIDDEN
 62
     7
370
    18
100
AcDbLine
 10
235.8278308158
 20
59.3012824665
 30
0.0
 11
233.3098131601
 21
59.3012824665
 31
0.0
  0
LINE
  5
137
330
1F
100
AcDbEntity
  8
0
  6
HIDDEN
 62
     7
370
    18
100
AcDbLine
 10
235.8278308158
 20
54.7108500306
 30
0.0
 11
233.3098131601
 21
54.7108500306
 31
0.0
  0
LINE
  5
138
330
1F
100
AcDbEntity
  8
0
  6
HIDDEN
 62
     7
370
    18
100
AcDbLine
 10
220.7197248817
 20
59.3606415522
 30
0.0
 11
233.3098131601
 21
59.3606415522
 31
0.0
  0
LINE
  5
139
330
1F
100
AcDbEntity
  8
0
  6
HIDDEN
 62
     7
370
    18
100
AcDbLine
 10
220.7197248817
 20
59.3606415522
 30
0.0
 11
220.7197248817
 21
27.885420856
 31
0.0
  0
LINE
  5
13A
330
1F
100
AcDbEntity
  8
0
  6
HIDDEN
 62
     7
370
    18
100
AcDbLine
 10
219.1459638469
 20
27.885420856
 30
0.0
 11
215.9984417772
 21
27.885420856
 31
0.0
  0
LINE
  5
13B
330
1F
100
AcDbEntity
  8
0
  6
HIDDEN
 62
     7
370
    18
100
AcDbLine
 10
233.3098131601
 20
25.301397946
 30
0.0
 11
218.1357019717
 21
25.301397946
 31
0.0
  0
ARC
  5
13C
330
1F
100
AcDbEntity
  8
0
  6
HIDDEN
 62
     7
370
    18
100
AcDbCircle
 10
220.7197248817
 20
27.0985403386
 30
0.0
 40
3.147522069617545
100
AcDbArc
 50
180.0
 51
214.8179325968
  0
LINE
  5
13D
330
1F
100
AcDbEntity
  8
0
  6
HIDDEN
 62
     7
370
    18
100
AcDbLine
 10
233.3098131601
 20
25.301397946
 30
0.0
 11
233.3098131601
 21
27.885420856
 31
0.0
  0
LINE
  5
13E
330
1F
100
AcDbEntity
  8
0
  6
HIDDEN
 62
     7
370
    18
100
AcDbLine
 10
220.7197248817
 20
27.885420856
 30
0.0
 11
218.1357019717
 21
25.301397946
 31
0.0
  0
LINE
  5
13F
330
1F
100
AcDbEntity
  8
0
  6
HIDDEN
 62
     7
370
    18
100
AcDbLine
 10
220.7197248817
 20
59.3606415522
 30
0.0
 11
217.5722028121
 21
62.5081636218
 31
0.0
  0
LINE
  5
140
330
1F
100
AcDbEntity
  8
0
  6
HIDDEN
 62
     7
370
    18
100
AcDbLine
 10
217.5722028121
 20
29.4591818909
 30
0.0
 11
217.5722028121
 21
27.0985403386
 31
0.0
  0
LINE
  5
141
330
1F
100
AcDbEntity
  8
0
  6
HIDDEN
 62
     7
370
    18
100
AcDbLine
 10
233.3098131601
 20
62.5081636218
 30
0.0
 11
217.5722028121
 21
62.5081636218
 31
0.0
  0
LINE
  5
142
330
1F
100
AcDbEntity
  8
0
  6
HIDDEN
 62
     7
370
    18
100
AcDbLine
 10
225.7557601931
 20
11.3609299905
 30
0.0
 11
233.3098131601
 21
11.3609299905
 31
0.0
  0
LINE
  5
143
330
1F
100
AcDbEntity
  8
0
  6
HIDDEN
 62
     7
370
    18
100
AcDbLine
 10
233.3098131601
 20
23.951018269
 30
0.0
 11
210.6476542589
 21
23.951018269
 31
0.0
  0
LINE
  5
144
330
1F
100
AcDbEntity
  8
0
  6
HIDDEN
 62
     7
370
    18
100
AcDbLine
 10
210.6476542589
 20
90.048981731
 30
0.0
 11
233.3098131601
 21
90.048981731
 31
0.0
  0
LINE
  5
145
330
1F
100
AcDbEntity
  8
0
  6
HIDDEN
 62
     7
370
    18
100
AcDbLine
 10
233.3098131601
 20
102.6390700095
 30
0.0
 11
225.7557601931
 21
102.6390700095
 31
0.0
  0
LINE
  5
146
330
1F
100
AcDbEntity
  8
0
  6
HIDDEN
 62
     7
370
    18
100
AcDbLine
 10
233.3098131601
 20
14.5084520602
 30
0.0
 11
235.8278308158
 21
14.5084520602
 31
0.0
  0
LINE
  5
147
330
1F
100
AcDbEntity
  8
0
  6
HIDDEN
 62
     7
370
    18
100
AcDbLine
 10
235.8278308158
 20
20.8034961994
 30
0.0
 11
233.3098131601
 21
20.8034961994
 31
0.0
  0
LINE
  5
148
330
1F
100
AcDbEntity
  8
0
  6
HIDDEN
 62
     7
370
    18
100
AcDbLine
 10
233.3098131601
 20
93.1965038006
 30
0.0
 11
235.8278308158
 21
93.1965038006
 31
0.0
  0
LINE
  5
149
330
1F
100
AcDbEntity
  8
0
  6
HIDDEN
 62
     7
370
    18
100
AcDbLine
 10
235.8278308158
 20
99.4915479398
 30
0.0
 11
233.3098131601
 21
99.4915479398
 31
0.0
  0
ENDSEC
  0
SECTION
  2
OBJECTS
  0
DICTIONARY
  5
C
330
0
100
AcDbDictionary
281
     1
  3
ACAD_GROUP
350
D
  3
ACAD_LAYOUT
350
1A
  3
ACAD_MLINESTYLE
350
17
  3
ACAD_PLOTSETTINGS
350
19
  3
ACAD_PLOTSTYLENAME
350
E
  3
ACAD_SCALELIST
350
47
  3
DWGPROPS
350
14A
  0
DICTIONARY
  5
D
102
{ACAD_REACTORS
330
C
102
}
330
C
100
AcDbDictionary
281
     1
  0
DICTIONARY
  5
1A
102
{ACAD_REACTORS
330
C
102
}
330
C
100
AcDbDictionary
281
     1
  3
Layout1
350
1E
  3
Layout2
350
26
  3
Model
350
22
  0
DICTIONARY
  5
17
102
{ACAD_REACTORS
330
C
102
}
330
C
100
AcDbDictionary
281
     1
  3
Standard
350
18
  0
DICTIONARY
  5
19
102
{ACAD_REACTORS
330
C
102
}
330
C
100
AcDbDictionary
281
     1
  0
ACDBDICTIONARYWDFLT
  5
E
102
{ACAD_REACTORS
330
C
102
}
330
C
100
AcDbDictionary
281
     1
  3
Normal
350
F
100
AcDbDictionaryWithDefault
340
F
  0
DICTIONARY
  5
47
102
{ACAD_REACTORS
330
C
102
}
330
C
100
AcDbDictionary
281
     1
  3
A0
350
48
  3
A1
350
49
  3
A2
350
4A
  3
A3
350
4B
  3
A4
350
4C
  3
A5
350
4D
  3
A6
350
4E
  3
A7
350
4F
  3
A8
350
50
  3
A9
350
51
  3
B0
350
52
  3
B1
350
53
  3
B2
350
54
  3
B3
350
55
  3
B4
350
56
  3
B5
350
57
  3
B6
350
58
  0
XRECORD
  5
14A
102
{ACAD_REACTORS
330
C
102
}
330
C
100
AcDbXrecord
280
     1
  1
DWGPROPS COOKIE
  2

  3

  4

  6

  7

  8

  9

300
=
301
=
302
=
303
=
304
=
305
=
306
=
307
=
308
=
309
=
 40
0.0
 41
2461213.637948588
 42
2461213.637949132
  1

 90
        0
  0
LAYOUT
  5
1E
102
{ACAD_REACTORS
330
1A
102
}
330
1A
100
AcDbPlotSettings
  1

  2
none_device
  4

  6

 40
0.0
 41
0.0
 42
0.0
 43
0.0
 44
0.0
 45
0.0
 46
0.0
 47
0.0
 48
0.0
 49
0.0
140
0.0
141
0.0
142
1.0
143
1.0
 70
   688
 72
     1
 73
     0
 74
     5
  7

 75
    16
147
1.0
148
0.0
149
0.0
100
AcDbLayout
  1
Layout1
 70
     1
 71
     1
 10
0.0
 20
0.0
 11
420.0
 21
297.0
 12
0.0
 22
0.0
 32
0.0
 14
1.0000000000E+20
 24
1.0000000000E+20
 34
1.0000000000E+20
 15
-1.0000000000E+20
 25
-1.0000000000E+20
 35
-1.0000000000E+20
146
0.0
 13
0.0
 23
0.0
 33
0.0
 16
1.0
 26
0.0
 36
0.0
 17
0.0
 27
1.0
 37
0.0
 76
     0
330
1B
  0
LAYOUT
  5
26
102
{ACAD_REACTORS
330
1A
102
}
330
1A
100
AcDbPlotSettings
  1

  2
none_device
  4

  6

 40
0.0
 41
0.0
 42
0.0
 43
0.0
 44
0.0
 45
0.0
 46
0.0
 47
0.0
 48
0.0
 49
0.0
140
0.0
141
0.0
142
1.0
143
1.0
 70
   688
 72
     1
 73
     0
 74
     5
  7

 75
    16
147
1.0
148
0.0
149
0.0
100
AcDbLayout
  1
Layout2
 70
     1
 71
     2
 10
0.0
 20
0.0
 11
0.0
 21
0.0
 12
0.0
 22
0.0
 32
0.0
 14
0.0
 24
0.0
 34
0.0
 15
0.0
 25
0.0
 35
0.0
146
0.0
 13
0.0
 23
0.0
 33
0.0
 16
1.0
 26
0.0
 36
0.0
 17
0.0
 27
1.0
 37
0.0
 76
     0
330
23
  0
LAYOUT
  5
22
102
{ACAD_REACTORS
330
1A
102
}
330
1A
100
AcDbPlotSettings
  1

  2
none_device
  4
Letter_(8.50_x_11.00_Inches)
  6

 40
6.35
 41
6.35
 42
6.35000508
 43
6.35000508
 44
215.9
 45
279.4
 46
0.0
 47
0.0
 48
0.0
 49
0.0
140
0.0
141
0.0
142
1.0
143
1.0
 70
  1712
 72
     1
 73
     0
 74
     0
  7

 75
     0
147
1.0
148
0.0
149
0.0
100
AcDbLayout
  1
Model
 70
     1
 71
     0
 10
0.0
 20
0.0
 11
297.0
 21
210.0
 12
0.0
 22
0.0
 32
0.0
 14
0.0
 24
0.0
 34
0.0
 15
297.0
 25
210.0
 35
0.0
146
0.0
 13
0.0
 23
0.0
 33
0.0
 16
1.0
 26
0.0
 36
0.0
 17
0.0
 27
1.0
 37
0.0
 76
     0
330
1F
331
29
  0
MLINESTYLE
  5
18
102
{ACAD_REACTORS
330
17
102
}
330
17
100
AcDbMlineStyle
  2
Standard
 70
     0
  3

 62
   256
 51
90.0
 52
90.0
 71
     2
 49
0.5
 62
   256
  6
BYLAYER
 49
-0.5
 62
   256
  6
BYLAYER
  0
ACDBPLACEHOLDER
  5
F
102
{ACAD_REACTORS
330
E
102
}
330
E
  0
SCALE
  5
48
102
{ACAD_REACTORS
330
47
102
}
330
47
100
AcDbScale
 70
     0
300
1:1
140
1.0
141
1.0
290
     1
  0
SCALE
  5
49
102
{ACAD_REACTORS
330
47
102
}
330
47
100
AcDbScale
 70
     0
300
1:2
140
1.0
141
2.0
290
     0
  0
SCALE
  5
4A
102
{ACAD_REACTORS
330
47
102
}
330
47
100
AcDbScale
 70
     0
300
1:4
140
1.0
141
4.0
290
     0
  0
SCALE
  5
4B
102
{ACAD_REACTORS
330
47
102
}
330
47
100
AcDbScale
 70
     0
300
1:5
140
1.0
141
5.0
290
     0
  0
SCALE
  5
4C
102
{ACAD_REACTORS
330
47
102
}
330
47
100
AcDbScale
 70
     0
300
1:8
140
1.0
141
8.0
290
     0
  0
SCALE
  5
4D
102
{ACAD_REACTORS
330
47
102
}
330
47
100
AcDbScale
 70
     0
300
1:10
140
1.0
141
10.0
290
     0
  0
SCALE
  5
4E
102
{ACAD_REACTORS
330
47
102
}
330
47
100
AcDbScale
 70
     0
300
1:16
140
1.0
141
16.0
290
     0
  0
SCALE
  5
4F
102
{ACAD_REACTORS
330
47
102
}
330
47
100
AcDbScale
 70
     0
300
1:20
140
1.0
141
20.0
290
     0
  0
SCALE
  5
50
102
{ACAD_REACTORS
330
47
102
}
330
47
100
AcDbScale
 70
     0
300
1:30
140
1.0
141
30.0
290
     0
  0
SCALE
  5
51
102
{ACAD_REACTORS
330
47
102
}
330
47
100
AcDbScale
 70
     0
300
1:40
140
1.0
141
40.0
290
     0
  0
SCALE
  5
52
102
{ACAD_REACTORS
330
47
102
}
330
47
100
AcDbScale
 70
     0
300
1:50
140
1.0
141
50.0
290
     0
  0
SCALE
  5
53
102
{ACAD_REACTORS
330
47
102
}
330
47
100
AcDbScale
 70
     0
300
1:100
140
1.0
141
100.0
290
     0
  0
SCALE
  5
54
102
{ACAD_REACTORS
330
47
102
}
330
47
100
AcDbScale
 70
     0
300
2:1
140
2.0
141
1.0
290
     0
  0
SCALE
  5
55
102
{ACAD_REACTORS
330
47
102
}
330
47
100
AcDbScale
 70
     0
300
4:1
140
4.0
141
1.0
290
     0
  0
SCALE
  5
56
102
{ACAD_REACTORS
330
47
102
}
330
47
100
AcDbScale
 70
     0
300
8:1
140
8.0
141
1.0
290
     0
  0
SCALE
  5
57
102
{ACAD_REACTORS
330
47
102
}
330
47
100
AcDbScale
 70
     0
300
10:1
140
10.0
141
1.0
290
     0
  0
SCALE
  5
58
102
{ACAD_REACTORS
330
47
102
}
330
47
100
AcDbScale
 70
     0
300
100:1
140
100.0
141
1.0
290
     0
  0
ENDSEC
  0
EOF
