  0
SECTION
  2
HEADER
  9
$ACADVER
  1
AC1015
  9
$ACADMAINTVER
 70
     6
  9
$DWGCODEPAGE
  3
ANSI_936
  9
$INSBASE
 10
0.0
 20
0.0
 30
0.0
  9
$EXTMIN
 10
0.0
 20
0.0
 30
0.0
  9
$EXTMAX
 10
297.0
 20
210.0
 30
0.0
  9
$LIMMIN
 10
0.0
 20
0.0
  9
$LIMMAX
 10
297.0
 20
210.0
  9
$ORTHOMODE
 70
     0
  9
$REGENMODE
 70
     1
  9
$FILLMODE
 70
     1
  9
$QTEXTMODE
 70
     0
  9
$MIRRTEXT
 70
     1
  9
$LTSCALE
 40
1.0
  9
$ATTMODE
 70
     1
  9
$TEXTSIZE
 40
3.5
  9
$TRACEWID
 40
1.0
  9
$TEXTSTYLE
  7
Standard
  9
$CLAYER
  8
0
  9
$CELTYPE
  6
ByLayer
  9
$CECOLOR
 62
   256
  9
$CELTSCALE
 40
1.0
  9
$DISPSILH
 70
     0
  9
$DIMSCALE
 40
1.0
  9
$DIMASZ
 40
4.08
  9
$DIMEXO
 40
0.0
  9
$DIMDLI
 40
3.75
  9
$DIMRND
 40
0.0
  9
$DIMDLE
 40
0.0
  9
$DIMEXE
 40
2.0
  9
$DIMTP
 40
0.0
  9
$DIMTM
 40
0.0
  9
$DIMTXT
 40
3.5
  9
$DIMCEN
 40
2.5
  9
$DIMTSZ
 40
0.0
  9
$DIMTOL
 70
     0
  9
$DIMLIM
 70
     0
  9
$DIMTIH
 70
     1
  9
$DIMTOH
 70
     1
  9
$DIMSE1
 70
     0
  9
$DIMSE2
 70
     0
  9
$DIMTAD
 70
     1
  9
$DIMZIN
 70
     0
  9
$DIMBLK
  1

  9
$DIMASO
 70
     1
  9
$DIMSHO
 70
     1
  9
$DIMPOST
  1

  9
$DIMAPOST
  1

  9
$DIMALT
 70
     0
  9
$DIMALTD
 70
     3
  9
$DIMALTF
 40
0.0393700787
  9
$DIMLFAC
 40
2.0
  9
$DIMTOFL
 70
     1
  9
$DIMTVP
 40
0.0
  9
$DIMTIX
 70
     0
  9
$DIMSOXD
 70
     0
  9
$DIMSAH
 70
     0
  9
$DIMBLK1
  1

  9
$DIMBLK2
  1

  9
$DIMSTYLE
  2
ISO-25
  9
$DIMCLRD
 70
     0
  9
$DIMCLRE
 70
     0
  9
$DIMCLRT
 70
     0
  9
$DIMTFAC
 40
1.0
  9
$DIMGAP
 40
1.524
  9
$DIMJUST
 70
     0
  9
$DIMSD1
 70
     0
  9
$DIMSD2
 70
     0
  9
$DIMTOLJ
 70
     0
  9
$DIMTZIN
 70
     0
  9
$DIMALTZ
 70
     0
  9
$DIMALTTZ
 70
     0
  9
$DIMUPT
 70
     0
  9
$DIMDEC
 70
     2
  9
$DIMTDEC
 70
     2
  9
$DIMALTU
 70
     2
  9
$DIMALTTD
 70
     3
  9
$DIMTXSTY
  7
Standard
  9
$DIMAUNIT
 70
     0
  9
$DIMADEC
 70
     2
  9
$DIMALTRND
 40
0.0
  9
$DIMAZIN
 70
     0
  9
$DIMDSEP
 70
    44
  9
$DIMATFIT
 70
     3
  9
$DIMFRAC
 70
     0
  9
$DIMLDRBLK
  1

  9
$DIMLUNIT
 70
     2
  9
$DIMLWD
 70
    -2
  9
$DIMLWE
 70
    -2
  9
$DIMTMOVE
 70
     0
  9
$LUNITS
 70
     2
  9
$LUPREC
 70
     2
  9
$SKETCHINC
 40
1.0
  9
$FILLETRAD
 40
0.0
  9
$AUNITS
 70
     0
  9
$AUPREC
 70
     2
  9
$MENU
  1
.
  9
$ELEVATION
 40
0.0
  9
$PELEVATION
 40
0.0
  9
$THICKNESS
 40
0.0
  9
$LIMCHECK
 70
     0
  9
$CHAMFERA
 40
0.0
  9
$CHAMFERB
 40
0.0
  9
$CHAMFERC
 40
0.0
  9
$CHAMFERD
 40
0.0
  9
$SKPOLY
 70
     0
  9
$TDCREATE
 40
2461215.708564318
  9
$TDUCREATE
 40
2461215.375230984
  9
$TDUPDATE
 40
2461215.708564884
  9
$TDUUPDATE
 40
2461215.375231551
  9
$TDINDWG
 40
0.0000000116
  9
$TDUSRTIMER
 40
0.0000000116
  9
$USRTIMER
 70
     1
  9
$ANGBASE
 50
0.0
  9
$ANGDIR
 70
     0
  9
$PDMODE
 70
     0
  9
$PDSIZE
 40
-1.0
  9
$PLINEWID
 40
0.0
  9
$SPLFRAME
 70
     0
  9
$SPLINETYPE
 70
     6
  9
$SPLINESEGS
 70
     8
  9
$HANDSEED
  5
182
  9
$SURFTAB1
 70
     6
  9
$SURFTAB2
 70
     6
  9
$SURFTYPE
 70
     6
  9
$SURFU
 70
     6
  9
$SURFV
 70
     6
  9
$UCSBASE
  2

  9
$UCSNAME
  2

  9
$UCSORG
 10
0.0
 20
0.0
 30
0.0
  9
$UCSXDIR
 10
1.0
 20
0.0
 30
0.0
  9
$UCSYDIR
 10
0.0
 20
1.0
 30
0.0
  9
$UCSORTHOREF
  2

  9
$UCSORTHOVIEW
 70
     0
  9
$UCSORGTOP
 10
0.0
 20
0.0
 30
0.0
  9
$UCSORGBOTTOM
 10
0.0
 20
0.0
 30
0.0
  9
$UCSORGLEFT
 10
0.0
 20
0.0
 30
0.0
  9
$UCSORGRIGHT
 10
0.0
 20
0.0
 30
0.0
  9
$UCSORGFRONT
 10
0.0
 20
0.0
 30
0.0
  9
$UCSORGBACK
 10
0.0
 20
0.0
 30
0.0
  9
$PUCSBASE
  2

  9
$PUCSNAME
  2

  9
$PUCSORG
 10
0.0
 20
0.0
 30
0.0
  9
$PUCSXDIR
 10
1.0
 20
0.0
 30
0.0
  9
$PUCSYDIR
 10
0.0
 20
1.0
 30
0.0
  9
$PUCSORTHOREF
  2

  9
$PUCSORTHOVIEW
 70
     0
  9
$PUCSORGTOP
 10
0.0
 20
0.0
 30
0.0
  9
$PUCSORGBOTTOM
 10
0.0
 20
0.0
 30
0.0
  9
$PUCSORGLEFT
 10
0.0
 20
0.0
 30
0.0
  9
$PUCSORGRIGHT
 10
0.0
 20
0.0
 30
0.0
  9
$PUCSORGFRONT
 10
0.0
 20
0.0
 30
0.0
  9
$PUCSORGBACK
 10
0.0
 20
0.0
 30
0.0
  9
$USERI1
 70
     0
  9
$USERI2
 70
     0
  9
$USERI3
 70
     0
  9
$USERI4
 70
     0
  9
$USERI5
 70
     0
  9
$USERR1
 40
0.0
  9
$USERR2
 40
0.0
  9
$USERR3
 40
0.0
  9
$USERR4
 40
0.0
  9
$USERR5
 40
0.0
  9
$WORLDVIEW
 70
     1
  9
$SHADEDGE
 70
     3
  9
$SHADEDIF
 70
    70
  9
$TILEMODE
 70
     1
  9
$MAXACTVP
 70
    64
  9
$PINSBASE
 10
0.0
 20
0.0
 30
0.0
  9
$PLIMCHECK
 70
     0
  9
$PEXTMIN
 10
1.0000000000E+20
 20
1.0000000000E+20
 30
1.0000000000E+20
  9
$PEXTMAX
 10
-1.0000000000E+20
 20
-1.0000000000E+20
 30
-1.0000000000E+20
  9
$PLIMMIN
 10
0.0
 20
0.0
  9
$PLIMMAX
 10
420.0
 20
297.0
  9
$UNITMODE
 70
     0
  9
$VISRETAIN
 70
     1
  9
$PLINEGEN
 70
     0
  9
$PSLTSCALE
 70
     1
  9
$TREEDEPTH
 70
  3020
  9
$CMLSTYLE
  2
Standard
  9
$CMLJUST
 70
     0
  9
$CMLSCALE
 40
20.0
  9
$PROXYGRAPHICS
 70
     1
  9
$MEASUREMENT
 70
     1
  9
$CELWEIGHT
370
    -1
  9
$ENDCAPS
280
     0
  9
$JOINSTYLE
280
     0
  9
$LWDISPLAY
290
     1
  9
$INSUNITS
 70
     4
  9
$HYPERLINKBASE
  1

  9
$STYLESHEET
  1

  9
$XEDIT
290
     1
  9
$CEPSNTYPE
380
     0
  9
$PSTYLEMODE
290
     1
  9
$FINGERPRINTGUID
  2
{feb3184a-bb66-4031-a752-c3814d7d9cfc}
  9
$VERSIONGUID
  2
{FAEB1C32-E019-11D5-929B-00C0DF256EC4}
  9
$EXTNAMES
290
     1
  9
$PSVPSCALE
 40
0.0
  9
$OLESTARTUP
290
     0
  0
ENDSEC
  0
SECTION
  2
CLASSES
  0
CLASS
  1
ACDBDICTIONARYWDFLT
  2
AcDbDictionaryWithDefault
  3
ObjectDBX Classes
 90
        0
280
     0
281
     0
  0
CLASS
  1
VISUALSTYLE
  2
AcDbVisualStyle
  3
ObjectDBX Classes
 90
     4095
280
     0
281
     0
  0
CLASS
  1
MATERIAL
  2
AcDbMaterial
  3
ObjectDBX Classes
 90
     1153
280
     0
281
     0
  0
CLASS
  1
SCALE
  2
AcDbScale
  3
ObjectDBX Classes
 90
     1153
280
     0
281
     0
  0
CLASS
  1
TABLESTYLE
  2
AcDbTableStyle
  3
ObjectDBX Classes
 90
     4095
280
     0
281
     0
  0
CLASS
  1
MLEADERSTYLE
  2
AcDbMLeaderStyle
  3
ACDB_MLEADERSTYLE_CLASS
 90
     4095
280
     0
281
     0
  0
CLASS
  1
SUN
  2
AcDbSun
  3
SCENEOE
 90
     1153
280
     0
281
     0
  0
CLASS
  1
ACDBPLACEHOLDER
  2
AcDbPlaceHolder
  3
ObjectDBX Classes
 90
        0
280
     0
281
     0
  0
CLASS
  1
LAYOUT
  2
AcDbLayout
  3
ObjectDBX Classes
 90
        0
280
     0
281
     0
  0
ENDSEC
  0
SECTION
  2
TABLES
  0
TABLE
  2
VPORT
  5
8
330
0
100
AcDbSymbolTable
 70
     1
  0
VPORT
  5
29
330
8
100
AcDbSymbolTableRecord
100
AcDbViewportTableRecord
  2
*Active
 70
     0
 10
0.0
 20
0.0
 11
1.0
 21
1.0
 12
148.5
 22
105.0
 13
0.0
 23
0.0
 14
10.0
 24
10.0
 15
10.0
 25
10.0
 16
0.0
 26
0.0
 36
1.0
 17
0.0
 27
0.0
 37
0.0
 40
210.0
 41
1.4142857143
 42
50.0
 43
0.0
 44
0.0
 50
0.0
 51
0.0
 71
     0
 72
  2000
 73
     1
 74
     3
 75
     0
 76
     0
 77
     0
 78
     0
281
     0
 65
     1
110
0.0
120
0.0
130
0.0
111
1.0
121
0.0
131
0.0
112
0.0
122
1.0
132
0.0
 79
     0
146
0.0
  0
ENDTAB
  0
TABLE
  2
LTYPE
  5
5
330
0
100
AcDbSymbolTable
 70
     6
  0
LTYPE
  5
14
330
5
100
AcDbSymbolTableRecord
100
AcDbLinetypeTableRecord
  2
ByBlock
 70
     0
  3

 72
    65
 73
     0
 40
0.0
  0
LTYPE
  5
15
330
5
100
AcDbSymbolTableRecord
100
AcDbLinetypeTableRecord
  2
ByLayer
 70
     0
  3

 72
    65
 73
     0
 40
0.0
  0
LTYPE
  5
16
330
5
100
AcDbSymbolTableRecord
100
AcDbLinetypeTableRecord
  2
Continuous
 70
     0
  3
Solid line
 72
    65
 73
     0
 40
0.0
  0
LTYPE
  5
5E
330
5
100
AcDbSymbolTableRecord
100
AcDbLinetypeTableRecord
  2
HIDDEN
 70
     0
  3
Hidden __ __ __ __ __ __ __ __ __ __ __ __ __ __
 72
    65
 73
     2
 40
1.905
 49
1.27
 74
     0
 49
-0.635
 74
     0
  0
LTYPE
  5
5F
330
5
100
AcDbSymbolTableRecord
100
AcDbLinetypeTableRecord
  2
PHANTOM
 70
     0
  3
Phantom ______  __  __  ______  __  __  ______
 72
    65
 73
     6
 40
12.7
 49
6.35
 74
     0
 49
-1.27
 74
     0
 49
1.27
 74
     0
 49
-1.27
 74
     0
 49
1.27
 74
     0
 49
-1.27
 74
     0
  0
LTYPE
  5
60
330
5
100
AcDbSymbolTableRecord
100
AcDbLinetypeTableRecord
  2
CENTER
 70
     0
  3
Center ____ _ ____ _ ____ _ ____ _ ____ _ ____
 72
    65
 73
     4
 40
10.16
 49
6.35
 74
     0
 49
-1.27
 74
     0
 49
1.27
 74
     0
 49
-1.27
 74
     0
  0
LTYPE
  5
61
330
5
100
AcDbSymbolTableRecord
100
AcDbLinetypeTableRecord
  2
CENTERX2
 70
     0
  3
Center (2x) ________  __  ________  __  _____
 72
    65
 73
     4
 40
20.32
 49
12.7
 74
     0
 49
-2.54
 74
     0
 49
2.54
 74
     0
 49
-2.54
 74
     0
  0
LTYPE
  5
62
330
5
100
AcDbSymbolTableRecord
100
AcDbLinetypeTableRecord
  2
DOT2
 70
     0
  3
Dot (.5x) ........................................
 72
    65
 73
     2
 40
0.635
 49
0.0
 74
     0
 49
-0.635
 74
     0
  0
ENDTAB
  0
TABLE
  2
LAYER
  5
2
330
0
100
AcDbSymbolTable
 70
    14
  0
LAYER
  5
10
330
2
100
AcDbSymbolTableRecord
100
AcDbLayerTableRecord
  2
0
 70
     0
 62
     7
  6
Continuous
370
    -3
390
F
  0
LAYER
  5
63
330
2
100
AcDbSymbolTableRecord
100
AcDbLayerTableRecord
  2
SLD-0
 70
     0
 62
     7
  6
Continuous
370
    -3
390
F
  0
LAYER
  5
64
330
2
100
AcDbSymbolTableRecord
100
AcDbLayerTableRecord
  2
5
 70
     0
 62
     7
  6
Continuous
370
    -3
390
F
  0
LAYER
  5
65
330
2
100
AcDbSymbolTableRecord
100
AcDbLayerTableRecord
  2
9
 70
     0
 62
     7
  6
Continuous
370
    -3
390
F
  0
LAYER
  5
66
330
2
100
AcDbSymbolTableRecord
100
AcDbLayerTableRecord
  2
10
 70
     0
 62
     7
  6
Continuous
370
    -3
390
F
  0
LAYER
  5
67
330
2
100
AcDbSymbolTableRecord
100
AcDbLayerTableRecord
  2
轮廓实线层
 70
     0
 62
     7
  6
Continuous
370
    50
390
F
  0
LAYER
  5
68
330
2
100
AcDbSymbolTableRecord
100
AcDbLayerTableRecord
  2
细线层
 70
     0
 62
     4
  6
Continuous
370
    25
390
F
  0
LAYER
  5
69
330
2
100
AcDbSymbolTableRecord
100
AcDbLayerTableRecord
  2
中心线层
 70
     0
 62
     1
  6
CENTERX2
370
    25
390
F
  0
LAYER
  5
6A
330
2
100
AcDbSymbolTableRecord
100
AcDbLayerTableRecord
  2
虚线层
 70
     0
 62
     6
  6
HIDDEN
370
    25
390
F
  0
LAYER
  5
6B
330
2
100
AcDbSymbolTableRecord
100
AcDbLayerTableRecord
  2
剖面线层
 70
     0
 62
     2
  6
Continuous
370
    25
390
F
  0
LAYER
  5
6C
330
2
100
AcDbSymbolTableRecord
100
AcDbLayerTableRecord
  2
文字层
 70
     0
 62
     3
  6
Continuous
370
    25
390
F
  0
LAYER
  5
6D
330
2
100
AcDbSymbolTableRecord
100
AcDbLayerTableRecord
  2
标注层
 70
     0
 62
     4
  6
Continuous
370
    25
390
F
  0
LAYER
  5
6E
330
2
100
AcDbSymbolTableRecord
100
AcDbLayerTableRecord
  2
符号标注层
 70
     0
 62
    31
  6
Continuous
370
    25
390
F
  0
LAYER
  5
6F
330
2
100
AcDbSymbolTableRecord
100
AcDbLayerTableRecord
  2
双点划线层
 70
     0
 62
     6
  6
PHANTOM
370
    25
390
F
  0
ENDTAB
  0
TABLE
  2
STYLE
  5
3
330
0
100
AcDbSymbolTable
 70
     1
  0
STYLE
  5
11
330
3
100
AcDbSymbolTableRecord
100
AcDbTextStyleTableRecord
  2
Standard
 70
     0
 40
0.0
 41
1.0
 50
0.0
 71
     0
 42
3.5
  3
txt
  4

  0
ENDTAB
  0
TABLE
  2
VIEW
  5
6
330
0
100
AcDbSymbolTable
 70
     0
  0
ENDTAB
  0
TABLE
  2
UCS
  5
7
330
0
100
AcDbSymbolTable
 70
     0
  0
ENDTAB
  0
TABLE
  2
APPID
  5
9
330
0
100
AcDbSymbolTable
 70
     1
  0
APPID
  5
12
330
9
100
AcDbSymbolTableRecord
100
AcDbRegAppTableRecord
  2
ACAD
 70
     0
  0
ENDTAB
  0
TABLE
  2
DIMSTYLE
  5
A
330
0
100
AcDbSymbolTable
 70
     1
100
AcDbDimStyleTable
  0
DIMSTYLE
105
27
330
A
100
AcDbSymbolTableRecord
100
AcDbDimStyleTableRecord
  2
ISO-25
 70
     0
 41
2.5
 42
0.625
 43
3.75
 44
1.25
 73
     0
 74
     0
 77
     1
 78
     8
140
2.5
141
2.5
143
0.0393700787
147
0.625
171
     3
172
     1
178
     0
271
     2
272
     2
274
     3
278
    44
283
     0
284
     8
340
11
  0
ENDTAB
  0
TABLE
  2
BLOCK_RECORD
  5
1
330
0
100
AcDbSymbolTable
 70
     1
  0
BLOCK_RECORD
  5
1F
330
1
100
AcDbSymbolTableRecord
100
AcDbBlockTableRecord
  2
*Model_Space
340
22
  0
BLOCK_RECORD
  5
1B
330
1
100
AcDbSymbolTableRecord
100
AcDbBlockTableRecord
  2
*Paper_Space
340
1E
  0
BLOCK_RECORD
  5
23
330
1
100
AcDbSymbolTableRecord
100
AcDbBlockTableRecord
  2
*Paper_Space0
340
26
  0
ENDTAB
  0
ENDSEC
  0
SECTION
  2
BLOCKS
  0
BLOCK
  5
20
330
1F
100
AcDbEntity
  8
0
100
AcDbBlockBegin
  2
*Model_Space
 70
     0
 10
0.0
 20
0.0
 30
0.0
  3
*Model_Space
  1

  0
ENDBLK
  5
21
330
1F
100
AcDbEntity
  8
0
100
AcDbBlockEnd
  0
BLOCK
  5
1C
330
1B
100
AcDbEntity
 67
     1
  8
0
100
AcDbBlockBegin
  2
*Paper_Space
 70
     0
 10
0.0
 20
0.0
 30
0.0
  3
*Paper_Space
  1

  0
ENDBLK
  5
1D
330
1B
100
AcDbEntity
 67
     1
  8
0
100
AcDbBlockEnd
  0
BLOCK
  5
24
330
23
100
AcDbEntity
  8
0
100
AcDbBlockBegin
  2
*Paper_Space0
 70
     0
 10
0.0
 20
0.0
 30
0.0
  3
*Paper_Space0
  1

  0
ENDBLK
  5
25
330
23
100
AcDbEntity
  8
0
100
AcDbBlockEnd
  0
ENDSEC
  0
SECTION
  2
ENTITIES
  0
ARC
  5
70
330
1F
100
AcDbEntity
  8
0
  6
Continuous
 62
     7
370
    25
100
AcDbCircle
 10
120.9814439006
 20
62.0183637586
 30
0.0
 40
4.02819738167171
100
AcDbArc
 50
40.0
 51
90.0
  0
ARC
  5
71
330
1F
100
AcDbEntity
  8
0
  6
Continuous
 62
     7
370
    25
100
AcDbCircle
 10
45.0185560994
 20
62.0183637586
 30
0.0
 40
4.028197381671696
100
AcDbArc
 50
90.0
 51
140.0
  0
ARC
  5
72
330
1F
100
AcDbEntity
  8
0
  6
Continuous
 62
     7
370
    25
100
AcDbCircle
 10
35.0140986908
 20
53.2288970229
 30
0.0
 40
2.014098690835851
100
AcDbArc
 50
140.0
 51
180.0
  0
ARC
  5
73
330
1F
100
AcDbEntity
  8
0
  6
Continuous
 62
     7
370
    25
100
AcDbCircle
 10
130.9859013092
 20
53.2288970229
 30
0.0
 40
2.014098690835851
100
AcDbArc
 50
0.0
 51
40.0
  0
LINE
  5
74
330
1F
100
AcDbEntity
  8
0
  6
Continuous
 62
     7
370
    25
100
AcDbLine
 10
33.0
 20
53.2288970229
 30
0.0
 11
33.0
 21
47.7182630536
 31
0.0
  0
LINE
  5
75
330
1F
100
AcDbEntity
  8
0
  6
Continuous
 62
     7
370
    25
100
AcDbLine
 10
133.0
 20
47.7182630536
 30
0.0
 11
133.0
 21
53.2288970229
 31
0.0
  0
LINE
  5
76
330
1F
100
AcDbEntity
  8
0
  6
Continuous
 62
     7
370
    25
100
AcDbLine
 10
41.9327778794
 20
64.6076391249
 30
0.0
 11
33.4712095808
 21
54.5235347061
 31
0.0
  0
LINE
  5
77
330
1F
100
AcDbEntity
  8
0
  6
Continuous
 62
     7
370
    25
100
AcDbLine
 10
132.5287904192
 20
54.5235347061
 30
0.0
 11
124.0672221206
 21
64.6076391249
 31
0.0
  0
SPLINE
  5
78
330
1F
100
AcDbEntity
  8
0
  6
Continuous
 62
     7
370
    25
100
AcDbSpline
210
0.0
220
0.0
230
1.0
 70
     8
 71
     3
 72
    14
 73
    10
 74
     0
 42
0.00000001
 43
0.00000001
 40
0.0
 40
0.0
 40
0.0
 40
0.0
 40
0.0026620003745799
 40
0.0026620003745799
 40
0.0026620003745799
 40
0.0079608670333491
 40
0.0079608670333491
 40
0.0079608670333491
 40
0.0132597430006488
 40
0.0132597430006488
 40
0.0132597430006488
 40
0.0132597430006488
 10
123.2380699614332
 20
64.60763912489318
 30
0.0
 10
123.815500619253
 20
63.93389601751298
 30
0.0
 10
124.39262285612
 20
63.25988815192405
 30
0.0
 10
124.9694746527278
 20
62.58564879766396
 30
0.0
 10
126.1177315023151
 20
61.24353638448765
 30
0.0
 10
127.264922027193
 20
59.90051027036319
 30
0.0
 10
128.4112748870592
 20
58.55676969658402
 30
0.0
 10
129.5576298330435
 20
57.21302667748319
 30
0.0
 10
130.7031457720871
 20
55.86856698171922
 30
0.0
 10
131.8479855892309
 20
54.5235317503432
 30
0.0
  0
SPLINE
  5
79
330
1F
100
AcDbEntity
  8
0
  6
Continuous
 62
     7
370
    25
100
AcDbSpline
210
0.0
220
0.0
230
1.0
 70
    24
 71
     3
 72
    11
 73
     7
 74
     0
 42
0.00000001
 43
0.00000001
 40
0.0
 40
0.0
 40
0.0
 40
0.0
 40
0.0000201019852959
 40
0.0000201019852959
 40
0.0000201019852959
 40
1.000020101985296
 40
1.000020101985296
 40
1.000020101985296
 40
1.000020101985296
 10
131.8479993334409
 20
54.52354656772892
 30
0.0
 10
131.8479942353028
 20
54.52354223026816
 30
0.0
 10
131.8479891371646
 20
54.52353789280741
 30
0.0
 10
131.8479840390264
 20
54.52353355534665
 30
0.0
 10
131.5943703742444
 20
54.30776079993899
 30
0.0
 10
131.3407567094623
 20
54.09198804453133
 30
0.0
 10
131.0871430446803
 20
53.87621528912367
 30
0.0
  0
SPLINE
  5
7A
330
1F
100
AcDbEntity
  8
0
  6
Continuous
 62
     7
370
    25
100
AcDbSpline
210
0.0
220
0.0
230
1.0
 70
     8
 71
     3
 72
    18
 73
    14
 74
     0
 42
0.00000001
 43
0.00000001
 40
0.0
 40
0.0
 40
0.0
 40
0.0
 40
0.2500000000000093
 40
0.3750000000000144
 40
0.4375000000000164
 40
0.4687500000000175
 40
0.484375000000018
 40
0.4921875000000183
 40
0.4960937500000184
 40
0.4960937500000184
 40
0.5000000000000187
 40
0.5000000000000187
 40
1.0
 40
1.0
 40
1.0
 40
1.0
 10
131.0871425553161
 20
53.87621586447828
 30
0.0
 10
130.3305811776194
 20
54.76543492379827
 30
0.0
 10
129.2258572425606
 20
56.06303747836134
 30
0.0
 10
127.9897193817597
 20
57.51351156512182
 30
0.0
 10
127.3848271338843
 20
58.22289971844457
 30
0.0
 10
127.085675180578
 20
58.57363157259172
 30
0.0
 10
126.9369227465827
 20
58.74800694403658
 30
0.0
 10
126.8627524152495
 20
58.83494699085194
 30
0.0
 10
126.831009248749
 20
58.87215394543549
 30
0.0
 10
126.809856941828
 20
58.89694678949563
 30
0.0
 10
126.8003944090005
 20
58.90803780606757
 30
0.0
 10
125.2943106402701
 20
60.6732917364138
 30
0.0
 10
123.8588045148872
 20
62.35282451583149
 30
0.0
 10
122.4822009648772
 20
63.9603202833156
 30
0.0
  0
LINE
  5
7B
330
1F
100
AcDbEntity
  8
0
  6
Continuous
 62
     7
370
    25
100
AcDbLine
 10
123.2380699614
 20
64.6076391249
 30
0.0
 11
122.4822009649
 21
63.9603202833
 31
0.0
  0
SPLINE
  5
7C
330
1F
100
AcDbEntity
  8
0
  6
Continuous
 62
     7
370
    25
100
AcDbSpline
210
0.0
220
0.0
230
1.0
 70
     8
 71
     3
 72
     8
 73
     4
 74
     0
 42
0.00000001
 43
0.00000001
 40
0.0
 40
0.0
 40
0.0
 40
0.0
 40
1.0
 40
1.0
 40
1.0
 40
1.0
 10
121.8872646603115
 20
52.76549370596273
 30
0.0
 10
122.2177729054351
 20
52.37979722271967
 30
0.0
 10
122.5534565396776
 20
51.98785968814566
 30
0.0
 10
122.8943155630386
 20
51.58968110224068
 30
0.0
  0
SPLINE
  5
7D
330
1F
100
AcDbEntity
  8
0
  6
Continuous
 62
     7
370
    25
100
AcDbSpline
210
0.0
220
0.0
230
1.0
 70
     8
 71
     3
 72
     8
 73
     4
 74
     0
 42
0.00000001
 43
0.00000001
 40
0.0
 40
0.0
 40
0.0
 40
0.0
 40
1.0
 40
1.0
 40
1.0
 40
1.0
 10
117.5846552310733
 20
57.7737398786018
 30
0.0
 10
118.943970710226
 20
56.19598508001368
 30
0.0
 10
120.3781738533054
 20
54.52656968913398
 30
0.0
 10
121.8872646603115
 20
52.76549370596273
 30
0.0
  0
SPLINE
  5
7E
330
1F
100
AcDbEntity
  8
0
  6
Continuous
 62
     7
370
    25
100
AcDbSpline
210
0.0
220
0.0
230
1.0
 70
     8
 71
     3
 72
    38
 73
    34
 74
     0
 42
0.00000001
 43
0.00000001
 40
0.0
 40
0.0
 40
0.0
 40
0.0
 40
0.0005008046328601
 40
0.0005008046328601
 40
0.0010016092657202
 40
0.0010016092657202
 40
0.0015024138985802
 40
0.0015024138985802
 40
0.0017528162150103
 40
0.0017528162150103
 40
0.0020032185314403
 40
0.0020032185314403
 40
0.0025040231643004
 40
0.0025040231643004
 40
0.0030048277971605
 40
0.0030048277971605
 40
0.0040064370628806
 40
0.0040064370628806
 40
0.0045072416957407
 40
0.0045072416957407
 40
0.0047576440121708
 40
0.0047576440121708
 40
0.0050080463286008
 40
0.0050080463286008
 40
0.0052584486450308
 40
0.0052584486450308
 40
0.0055088509614609
 40
0.0055088509614609
 40
0.006009655594321
 40
0.006009655594321
 40
0.0070112648600411
 40
0.0070112648600411
 40
0.0080128741257613
 40
0.0080128741257613
 40
0.0080128741257613
 40
0.0080128741257613
 10
110.4080855017457
 20
61.0113144131649
 30
0.0
 10
110.5785707140042
 20
61.01131374217235
 30
0.0
 10
110.7486344090375
 20
61.00688981132733
 30
0.0
 10
111.0879235607701
 20
60.98924575868167
 30
0.0
 10
111.257149077959
 20
60.97602627170799
 30
0.0
 10
111.594760100448
 20
60.94077249568781
 30
0.0
 10
111.763188629769
 20
60.91872888915699
 30
0.0
 10
112.0150656158007
 20
60.87900973994944
 30
0.0
 10
112.0989489282395
 20
60.86464835110568
 30
0.0
 10
112.2665083985081
 20
60.83367929729381
 30
0.0
 10
112.3501352951354
 20
60.81707674236278
 30
0.0
 10
112.599571126556
 20
60.76411672476631
 30
0.0
 10
112.7642989539767
 20
60.724558625251
 30
0.0
 10
113.0906399278772
 20
60.63704423559486
 30
0.0
 10
113.2522581560794
 20
60.58908910240508
 30
0.0
 10
113.7324799843154
 20
60.43269457524954
 30
0.0
 10
114.0464897686724
 20
60.31174466275896
 30
0.0
 10
114.5080348072346
 20
60.1049709683641
 30
0.0
 10
114.6603657770658
 20
60.03177698678816
 30
0.0
 10
114.8863689971484
 20
59.9155450442726
 30
0.0
 10
114.9613461537351
 20
59.87569282075791
 30
0.0
 10
115.1103878245435
 20
59.7938520720641
 30
0.0
 10
115.1846481974922
 20
59.75174753278963
 30
0.0
 10
115.3316106005703
 20
59.66574075299778
 30
0.0
 10
115.4043332416832
 20
59.62183463812397
 30
0.0
 10
115.5483043798814
 20
59.53221324601667
 30
0.0
 10
115.619548034366
 20
59.48650140568343
 30
0.0
 10
115.8310692985066
 20
59.34668193984315
 30
0.0
 10
115.9691384721321
 20
59.24989190402175
 30
0.0
 10
116.3745809132678
 20
58.94887555532719
 30
0.0
 10
116.6332131143786
 20
58.73403216996466
 30
0.0
 10
117.126896332223
 20
58.27570322073137
 30
0.0
 10
117.3619446238109
 20
58.0322143485125
 30
0.0
 10
117.5846552310733
 20
57.77373987860177
 30
0.0
  0
LINE
  5
7F
330
1F
100
AcDbEntity
  8
0
  6
Continuous
 62
     7
370
    25
100
AcDbLine
 10
55.5919144983
 20
61.0113144132
 30
0.0
 11
110.4080855017
 21
61.0113144132
 31
0.0
  0
SPLINE
  5
80
330
1F
100
AcDbEntity
  8
0
  6
Continuous
 62
     7
370
    25
100
AcDbSpline
210
0.0
220
0.0
230
1.0
 70
     8
 71
     3
 72
    36
 73
    32
 74
     0
 42
0.00000001
 43
0.00000001
 40
0.0
 40
0.0
 40
0.0
 40
0.0
 40
0.000500997760186
 40
0.000500997760186
 40
0.001001995520372
 40
0.001001995520372
 40
0.0015029932805581
 40
0.0015029932805581
 40
0.0017534921606511
 40
0.0017534921606511
 40
0.0020039910407441
 40
0.0020039910407441
 40
0.0030059865611161
 40
0.0030059865611161
 40
0.0035069843213021
 40
0.0035069843213021
 40
0.0040079820814882
 40
0.0040079820814882
 40
0.0045089798416742
 40
0.0045089798416742
 40
0.0047594787217672
 40
0.0047594787217672
 40
0.0050099776018602
 40
0.0050099776018602
 40
0.0055109753620462
 40
0.0055109753620462
 40
0.0060119731222323
 40
0.0060119731222323
 40
0.0070139686426043
 40
0.0070139686426043
 40
0.0080159641629763
 40
0.0080159641629763
 40
0.0080159641629763
 40
0.0080159641629763
 10
48.4153447689267
 20
57.77373987860179
 30
0.0
 10
48.52673297637775
 20
57.90302445629143
 30
0.0
 10
48.64147904991449
 20
58.02884896307335
 30
0.0
 10
48.87759389312905
 20
58.27367370264575
 30
0.0
 10
48.99896225135368
 20
58.39267435940003
 30
0.0
 10
49.24828605626038
 20
58.62388809041187
 30
0.0
 10
49.37619203547472
 20
58.73605832189625
 30
0.0
 10
49.57315872365997
 20
58.89933193157702
 30
0.0
 10
49.63962828984133
 20
58.95288656334153
 30
0.0
 10
49.77356180096234
 20
59.05777704885079
 30
0.0
 10
49.84114237340389
 20
59.10921603100089
 30
0.0
 10
50.18174919521346
 20
59.36110502123694
 30
0.0
 10
50.46339522816581
 20
59.54633865758014
 30
0.0
 10
50.8989982398644
 20
59.80039871892999
 30
0.0
 10
51.04640115217276
 20
59.88112299962042
 30
0.0
 10
51.34559229428288
 20
60.03468003912244
 30
0.0
 10
51.49738048464179
 20
60.10751286876172
 30
0.0
 10
51.80536094079496
 20
60.24525325036559
 30
0.0
 10
51.96160967247886
 20
60.31017851155688
 30
0.0
 10
52.19915890282236
 20
60.40149288416423
 30
0.0
 10
52.27892938538646
 20
60.43093479241111
 30
0.0
 10
52.43964878570287
 20
60.48781258083341
 30
0.0
 10
52.52040900571738
 20
60.51517773146549
 30
0.0
 10
52.76297769480781
 20
60.59376839563326
 30
0.0
 10
52.92548404903565
 20
60.64165817835718
 30
0.0
 10
53.25194522503455
 20
60.72859454130124
 30
0.0
 10
53.41591720467211
 20
60.76764974278689
 30
0.0
 10
53.91002124178288
 20
60.87179114975003
 30
0.0
 10
54.24233627069085
 20
60.92388366839051
 30
0.0
 10
54.91274972116616
 20
60.99364426851322
 30
0.0
 10
55.25084962473958
 20
61.01130352395622
 30
0.0
 10
55.59191449825428
 20
61.01131441316494
 30
0.0
  0
SPLINE
  5
81
330
1F
100
AcDbEntity
  8
0
  6
Continuous
 62
     7
370
    25
100
AcDbSpline
210
0.0
220
0.0
230
1.0
 70
     8
 71
     3
 72
     8
 73
     4
 74
     0
 42
0.00000001
 43
0.00000001
 40
0.0
 40
0.0
 40
0.0
 40
0.0
 40
1.0
 40
1.0
 40
1.0
 40
1.0
 10
44.11273608861521
 20
52.76549306419435
 30
0.0
 10
45.62393531491249
 20
54.52902682927587
 30
0.0
 10
47.05813889340877
 20
56.19844193607486
 30
0.0
 10
48.41534476892669
 20
57.7737398786018
 30
0.0
  0
SPLINE
  5
82
330
1F
100
AcDbEntity
  8
0
  6
Continuous
 62
     7
370
    25
100
AcDbSpline
210
0.0
220
0.0
230
1.0
 70
     8
 71
     3
 72
     8
 73
     4
 74
     0
 42
0.00000001
 43
0.00000001
 40
0.0
 40
0.0
 40
0.0
 40
0.0
 40
1.0
 40
1.0
 40
1.0
 40
1.0
 10
43.10568443696138
 20
51.58968450228745
 30
0.0
 10
43.44672559353434
 20
51.98807294880744
 30
0.0
 10
43.78240947741897
 20
52.38000913610971
 30
0.0
 10
44.11273608861521
 20
52.76549306419435
 30
0.0
  0
LINE
  5
83
330
1F
100
AcDbEntity
  8
0
  6
Continuous
 62
     7
370
    25
100
AcDbLine
 10
43.105684437
 20
47.7182630536
 30
0.0
 11
43.105684437
 21
51.5896845023
 31
0.0
  0
LINE
  5
84
330
1F
100
AcDbEntity
  8
0
  6
Continuous
 62
     7
370
    25
100
AcDbLine
 10
34.6739850882
 20
47.7182630536
 30
0.0
 11
43.105684437
 21
47.7182630536
 31
0.0
  0
LINE
  5
85
330
1F
100
AcDbEntity
  8
0
  6
Continuous
 62
     7
370
    25
100
AcDbLine
 10
34.6739850882
 20
53.2288970229
 30
0.0
 11
34.6739850882
 21
47.7182630536
 31
0.0
  0
SPLINE
  5
86
330
1F
100
AcDbEntity
  8
0
  6
Continuous
 62
     7
370
    25
100
AcDbSpline
210
0.0
220
0.0
230
1.0
 70
     8
 71
     3
 72
    18
 73
    14
 74
     0
 42
0.00000001
 43
0.00000001
 40
0.0
 40
0.0
 40
0.0
 40
0.0
 40
0.000174225081063
 40
0.000174225081063
 40
0.0002613376215945
 40
0.0002613376215945
 40
0.000348450162126
 40
0.000348450162126
 40
0.0004355627026575
 40
0.0004355627026575
 40
0.000522675243189
 40
0.000522675243189
 40
0.0006969003242521
 40
0.0006969003242521
 40
0.0006969003242521
 40
0.0006969003242521
 10
34.91285744468399
 20
53.87621586447828
 30
0.0
 10
34.87442569438892
 20
53.83103087095367
 30
0.0
 10
34.84054811851914
 20
53.78322687539511
 30
0.0
 10
34.79630549758852
 20
53.70774047002652
 30
0.0
 10
34.78265768421259
 20
53.68194590735391
 30
0.0
 10
34.75758966208399
 20
53.62907573655563
 30
0.0
 10
34.74618185654148
 20
53.60203316248876
 30
0.0
 10
34.72562177310976
 20
53.54649024510684
 30
0.0
 10
34.71658743429366
 20
53.51826437007114
 30
0.0
 10
34.70117002886487
 20
53.46159189790971
 30
0.0
 10
34.69473567923083
 20
53.4330075607086
 30
0.0
 10
34.67926169095318
 20
53.34666778849858
 30
0.0
 10
34.67399402848844
 20
53.28822668113609
 30
0.0
 10
34.67398508815892
 20
53.22889702290069
 30
0.0
  0
SPLINE
  5
87
330
1F
100
AcDbEntity
  8
0
  6
Continuous
 62
     7
370
    25
100
AcDbSpline
210
0.0
220
0.0
230
1.0
 70
     8
 71
     3
 72
    18
 73
    14
 74
     0
 42
0.00000001
 43
0.00000001
 40
0.0
 40
0.0
 40
0.0
 40
0.0
 40
0.2499999999999974
 40
0.3749999999999967
 40
0.4374999999999967
 40
0.4687499999999968
 40
0.4843749999999968
 40
0.4921874999999968
 40
0.4960937499999968
 40
0.4960937499999968
 40
0.4999999999999967
 40
0.4999999999999967
 40
1.0
 40
1.0
 40
1.0
 40
1.0
 10
43.51779903512276
 20
63.9603202833156
 30
0.0
 10
42.82960652419666
 20
63.15669999008021
 30
0.0
 10
41.77514734398356
 20
61.92415997787206
 30
0.0
 10
40.50614674287635
 20
60.43875487867457
 30
0.0
 10
39.86194688627477
 20
59.68419189117056
 30
0.0
 10
39.53742206896204
 20
59.30394528794221
 30
0.0
 10
39.37455343805259
 20
59.11308070895896
 30
0.0
 10
39.29296756703463
 20
59.01746310012503
 30
0.0
 10
39.25796971754905
 20
58.97644441362284
 30
0.0
 10
39.23463060096053
 20
58.94908979789089
 30
0.0
 10
39.22184494487264
 20
58.93410414946381
 30
0.0
 10
37.85905206401211
 20
57.336799781747
 30
0.0
 10
36.42624432591531
 20
55.65496442155214
 30
0.0
 10
34.91285744468389
 20
53.87621586447828
 30
0.0
  0
SPLINE
  5
88
330
1F
100
AcDbEntity
  8
0
  6
Continuous
 62
     7
370
    25
100
AcDbSpline
210
0.0
220
0.0
230
1.0
 70
     8
 71
     3
 72
    30
 73
    26
 74
     0
 42
0.00000001
 43
0.00000001
 40
0.0
 40
0.0
 40
0.0
 40
0.0
 40
0.0003307976773668
 40
0.0003307976773668
 40
0.0004961965160502
 40
0.0004961965160502
 40
0.0006615953547336
 40
0.0006615953547336
 40
0.000826994193417
 40
0.000826994193417
 40
0.0009923930321004
 40
0.0009923930321004
 40
0.0013231907094672
 40
0.0013231907094672
 40
0.0014885895481506
 40
0.0014885895481506
 40
0.001653988386834
 40
0.001653988386834
 40
0.0018193872255174
 40
0.0018193872255174
 40
0.0019847860642008
 40
0.0019847860642008
 40
0.0023155837415676
 40
0.0023155837415676
 40
0.0026463814189344
 40
0.0026463814189344
 40
0.0026463814189344
 40
0.0026463814189344
 10
45.88282629040432
 20
65.03951179483666
 30
0.0
 10
45.77019821739677
 20
65.03950796287229
 30
0.0
 10
45.65810992698248
 20
65.03350766215951
 30
0.0
 10
45.4909312586995
 20
65.01563094057198
 30
0.0
 10
45.4352921348707
 20
65.0081744900926
 30
0.0
 10
45.32441968391295
 20
64.99029536968419
 30
0.0
 10
45.26895958108892
 20
64.97981982986798
 30
0.0
 10
45.15927719255459
 20
64.95604120233938
 30
0.0
 10
45.10495695076068
 20
64.94273245089254
 30
0.0
 10
44.99736646387804
 20
64.91332046697043
 30
0.0
 10
44.9440920194723
 20
64.89721748220563
 30
0.0
 10
44.78581873729471
 20
64.84475066606151
 30
0.0
 10
44.68235377653998
 20
64.8042332611208
 30
0.0
 10
44.53031980883066
 20
64.73508873618962
 30
0.0
 10
44.48013717609793
 20
64.71062374352572
 30
0.0
 10
44.38090824887885
 20
64.65888063580427
 30
0.0
 10
44.33169881233127
 20
64.63150529466066
 30
0.0
 10
44.23491402515961
 20
64.57414115467486
 30
0.0
 10
44.18757376451263
 20
64.54430531824224
 30
0.0
 10
44.09477304437337
 20
64.48225267531383
 30
0.0
 10
44.04934421480468
 20
64.45005507778983
 30
0.0
 10
43.9159454936646
 20
64.34998079561672
 30
0.0
 10
43.83085552940958
 20
64.27863207411313
 30
0.0
 10
43.66842702342962
 20
64.1265895240663
 30
0.0
 10
43.59108960851133
 20
64.04589433758554
 30
0.0
 10
43.51779903512276
 20
63.9603202833156
 30
0.0
  0
LINE
  5
89
330
1F
100
AcDbEntity
  8
0
  6
Continuous
 62
     7
370
    25
100
AcDbLine
 10
120.1171737096
 20
65.0395117948
 30
0.0
 11
45.8828262904
 21
65.0395117948
 31
0.0
  0
SPLINE
  5
8A
330
1F
100
AcDbEntity
  8
0
  6
Continuous
 62
     7
370
    25
100
AcDbSpline
210
0.0
220
0.0
230
1.0
 70
     8
 71
     3
 72
    30
 73
    26
 74
     0
 42
0.00000001
 43
0.00000001
 40
0.0
 40
0.0
 40
0.0
 40
0.0
 40
0.0001654330549295
 40
0.0001654330549295
 40
0.000330866109859
 40
0.000330866109859
 40
0.0004962991647885
 40
0.0004962991647885
 40
0.000661732219718
 40
0.000661732219718
 40
0.000992598329577
 40
0.000992598329577
 40
0.001323464439436
 40
0.001323464439436
 40
0.0014888974943655
 40
0.0014888974943655
 40
0.001654330549295
 40
0.001654330549295
 40
0.0018197636042245
 40
0.0018197636042245
 40
0.001985196659154
 40
0.001985196659154
 40
0.0023160627690129
 40
0.0023160627690129
 40
0.0026469288788719
 40
0.0026469288788719
 40
0.0026469288788719
 40
0.0026469288788719
 10
122.4822009648773
 20
63.96032028331562
 30
0.0
 10
122.4455519554626
 20
64.00311462836426
 30
0.0
 10
122.4078067560005
 20
64.04477874395248
 30
0.0
 10
122.3301536547967
 20
64.12587711559806
 30
0.0
 10
122.2902458917636
 20
64.16531151466695
 30
0.0
 10
122.2082786349164
 20
64.24196176546634
 30
0.0
 10
122.166226023477
 20
64.27917045908502
 30
0.0
 10
122.0799325821976
 20
64.35138869511852
 30
0.0
 10
122.0357106393823
 20
64.38636839817867
 30
0.0
 10
121.9010738650779
 20
64.48699230992761
 30
0.0
 10
121.8083371420404
 20
64.54869675535315
 30
0.0
 10
121.61707002793
 20
64.66167123472873
 30
0.0
 10
121.5185145441528
 20
64.7129548491672
 30
0.0
 10
121.3664210702988
 20
64.78201162860371
 30
0.0
 10
121.3149404754684
 20
64.80373995016342
 30
0.0
 10
121.2106424121614
 20
64.84449500221645
 30
0.0
 10
121.1575525856121
 20
64.86360929884549
 30
0.0
 10
121.0508338763246
 20
64.89880557216847
 30
0.0
 10
120.9972504006862
 20
64.91489059342793
 30
0.0
 10
120.8895538618667
 20
64.94412400860129
 30
0.0
 10
120.8354562039814
 20
64.95726837693428
 30
0.0
 10
120.6724252448404
 20
64.99234456568362
 30
0.0
 10
120.5627558340251
 20
65.0099305429806
 30
0.0
 10
120.3414540242617
 20
65.03351341473962
 30
0.0
 10
120.2298212022504
 20
65.03950780971998
 30
0.0
 10
120.1171737095957
 20
65.03951179483668
 30
0.0
  0
SPLINE
  5
8B
330
1F
100
AcDbEntity
  8
0
  6
Continuous
 62
     7
370
    25
100
AcDbSpline
210
0.0
220
0.0
230
1.0
 70
     8
 71
     3
 72
    18
 73
    14
 74
     0
 42
0.00000001
 43
0.00000001
 40
0.0
 40
0.0
 40
0.0
 40
0.0
 40
0.0001742333242819
 40
0.0001742333242819
 40
0.0002613499864229
 40
0.0002613499864229
 40
0.0003484666485638
 40
0.0003484666485638
 40
0.0004355833107048
 40
0.0004355833107048
 40
0.0005226999728458
 40
0.0005226999728458
 40
0.0006969332971277
 40
0.0006969332971277
 40
0.0006969332971277
 40
0.0006969332971277
 10
131.3260149118412
 20
53.22889702290069
 30
0.0
 10
131.326005881539
 20
53.28822686675523
 30
0.0
 10
131.3207419250406
 20
53.346576475565
 30
0.0
 10
131.3053261108397
 20
53.43269815946058
 30
0.0
 10
131.2989291700153
 20
53.46117066159175
 30
0.0
 10
131.2835969646856
 20
53.51764217675671
 30
0.0
 10
131.2746739056391
 20
53.5456076942703
 30
0.0
 10
131.2541623051204
 20
53.60118460817812
 30
0.0
 10
131.242673407482
 20
53.62848608919624
 30
0.0
 10
131.2175390420709
 20
53.6815651437192
 30
0.0
 10
131.2038482728222
 20
53.70746549146472
 30
0.0
 10
131.1595082924184
 20
53.78315569973255
 30
0.0
 10
131.1255751981557
 20
53.83102992347068
 30
0.0
 10
131.0871425553162
 20
53.87621586447833
 30
0.0
  0
LINE
  5
8C
330
1F
100
AcDbEntity
  8
0
  6
Continuous
 62
     7
370
    25
100
AcDbLine
 10
131.3260149118
 20
47.7182630536
 30
0.0
 11
131.3260149118
 21
53.2288970229
 31
0.0
  0
LINE
  5
8D
330
1F
100
AcDbEntity
  8
0
  6
Continuous
 62
     7
370
    25
100
AcDbLine
 10
122.894315563
 20
47.7182630536
 30
0.0
 11
131.3260149118
 21
47.7182630536
 31
0.0
  0
LINE
  5
8E
330
1F
100
AcDbEntity
  8
0
  6
Continuous
 62
     7
370
    25
100
AcDbLine
 10
122.894315563
 20
51.5896811022
 30
0.0
 11
122.894315563
 21
47.7182630536
 31
0.0
  0
SPLINE
  5
8F
330
1F
100
AcDbEntity
  8
0
  6
Continuous
 62
     7
370
    25
100
AcDbSpline
210
0.0
220
0.0
230
1.0
 70
     8
 71
     3
 72
    10
 73
     6
 74
     0
 42
0.00000001
 43
0.00000001
 40
0.0
 40
0.0
 40
0.0
 40
0.0
 40
0.5
 40
0.5
 40
1.0
 40
1.0
 40
1.0
 40
1.0
 10
131.8479843287002
 20
54.52353321063271
 30
0.0
 10
131.9994355742903
 20
54.34310429403794
 30
0.0
 10
132.1161006578067
 20
54.14139901389601
 30
0.0
 10
132.277854871104
 20
53.69887787859675
 30
0.0
 10
132.319361798796
 20
53.4647920775031
 30
0.0
 10
132.3193554033487
 20
53.22889702290069
 30
0.0
  0
LINE
  5
90
330
1F
100
AcDbEntity
  8
0
  6
Continuous
 62
     7
370
    25
100
AcDbLine
 10
110.4080855017
 20
60.0042650677
 30
0.0
 11
55.5919144983
 21
60.0042650677
 31
0.0
  0
LINE
  5
91
330
1F
100
AcDbEntity
  8
0
  6
Continuous
 62
     7
370
    25
100
AcDbLine
 10
55.5919144983
 20
60.0042650677
 30
0.0
 11
55.5919144983
 21
61.0113144132
 31
0.0
  0
LINE
  5
92
330
1F
100
AcDbEntity
  8
0
  6
Continuous
 62
     7
370
    25
100
AcDbLine
 10
110.4080855017
 20
60.0042650677
 30
0.0
 11
110.4080855017
 21
61.0113144132
 31
0.0
  0
LINE
  5
93
330
1F
100
AcDbEntity
  8
0
  6
Continuous
 62
     7
370
    25
100
AcDbLine
 10
45.8828262904
 20
66.0465611403
 30
0.0
 11
120.1171737096
 21
66.0465611403
 31
0.0
  0
LINE
  5
94
330
1F
100
AcDbEntity
  8
0
  6
Continuous
 62
     7
370
    25
100
AcDbLine
 10
120.1171737096
 20
66.0465611403
 30
0.0
 11
120.1171737096
 21
65.0395117948
 31
0.0
  0
LINE
  5
95
330
1F
100
AcDbEntity
  8
0
  6
Continuous
 62
     7
370
    25
100
AcDbLine
 10
45.8828262904
 20
66.0465611403
 30
0.0
 11
45.8828262904
 21
65.0395117948
 31
0.0
  0
LINE
  5
96
330
1F
100
AcDbEntity
  8
0
  6
Continuous
 62
     7
370
    25
100
AcDbLine
 10
132.3193554033
 20
53.2288970229
 30
0.0
 11
132.3193554033
 21
47.7182630536
 31
0.0
  0
LINE
  5
97
330
1F
100
AcDbEntity
  8
0
  6
Continuous
 62
     7
370
    25
100
AcDbLine
 10
132.3193554033
 20
47.7182630536
 30
0.0
 11
131.3260149118
 21
47.7182630536
 31
0.0
  0
SPLINE
  5
98
330
1F
100
AcDbEntity
  8
0
  6
Continuous
 62
     7
370
    25
100
AcDbSpline
210
0.0
220
0.0
230
1.0
 70
     8
 71
     3
 72
    12
 73
     8
 74
     0
 42
0.00000001
 43
0.00000001
 40
0.0
 40
0.0
 40
0.0
 40
0.0
 40
0.3349516097046261
 40
0.4442547960547042
 40
0.5560952447964121
 40
0.7815417782876655
 40
1.0
 40
1.0
 40
1.0
 40
1.0
 10
122.0701833834837
 20
51.02173332532204
 30
0.0
 10
121.4862904682143
 20
51.70401612457211
 30
0.0
 10
120.7118585190157
 20
52.60894506669533
 30
0.0
 10
119.7415139180828
 20
53.74087307700495
 30
0.0
 10
118.9619771697649
 20
54.64967208734716
 30
0.0
 10
117.9913899176623
 20
55.78015465392865
 30
0.0
 10
117.2152749379395
 20
56.68240020516623
 30
0.0
 10
116.8333265665218
 20
57.12642103702426
 30
0.0
  0
SPLINE
  5
99
330
1F
100
AcDbEntity
  8
0
  6
Continuous
 62
     7
370
    25
100
AcDbSpline
210
0.0
220
0.0
230
1.0
 70
     8
 71
     3
 72
    11
 73
     7
 74
     0
 42
0.00000001
 43
0.00000001
 40
0.0
 40
0.0
 40
0.0
 40
0.0
 40
0.0005819278601641
 40
0.0005819278601641
 40
0.0005819278601641
 40
0.0011638562605893
 40
0.0011638562605893
 40
0.0011638562605893
 40
0.0011638562605893
 10
122.070183380206
 20
51.46583290256711
 30
0.0
 10
122.207552863823
 20
51.48628535380593
 30
0.0
 10
122.3449151652406
 20
51.50683386425744
 30
0.0
 10
122.4822704264057
 20
51.5274758491448
 30
0.0
 10
122.6196258153633
 20
51.54811785323695
 30
0.0
 10
122.7569741958741
 20
51.56885333675699
 30
0.0
 10
122.8943155630386
 20
51.58968110224068
 30
0.0
  0
SPLINE
  5
9A
330
1F
100
AcDbEntity
  8
0
  6
Continuous
 62
     7
370
    25
100
AcDbSpline
210
0.0
220
0.0
230
1.0
 70
     8
 71
     3
 72
    14
 73
    10
 74
     0
 42
0.00000001
 43
0.00000001
 40
0.0
 40
0.0
 40
0.0
 40
0.0
 40
0.25
 40
0.25
 40
0.5
 40
0.5
 40
0.75
 40
0.75
 40
1.0
 40
1.0
 40
1.0
 40
1.0
 10
42.7619313050916
 20
64.60764061788471
 30
0.0
 10
42.95478552928807
 20
64.83497890761976
 30
0.0
 10
43.1688986071126
 20
65.03695487980069
 30
0.0
 10
43.63767480023446
 20
65.39251660147033
 30
0.0
 10
43.89548750900303
 20
65.5470270061895
 30
0.0
 10
44.43042709442093
 20
65.79329482081583
 30
0.0
 10
44.70906028882399
 20
65.88700912620804
 30
0.0
 10
45.2891063363146
 20
66.01439254817572
 30
0.0
 10
45.58504184218208
 20
66.04656114025458
 30
0.0
 10
45.88282629040432
 20
66.04656114025458
 30
0.0
  0
LINE
  5
9B
330
1F
100
AcDbEntity
  8
0
  6
Continuous
 62
     7
370
    25
100
AcDbLine
 10
42.7619331285
 20
64.6076384119
 30
0.0
 11
43.517799317
 21
63.9603206124
 31
0.0
  0
SPLINE
  5
9C
330
1F
100
AcDbEntity
  8
0
  6
Continuous
 62
     7
370
    25
100
AcDbSpline
210
0.0
220
0.0
230
1.0
 70
     8
 71
     3
 72
    14
 73
    10
 74
     0
 42
0.00000001
 43
0.00000001
 40
0.0
 40
0.0
 40
0.0
 40
0.0
 40
0.002688620205101
 40
0.002688620205101
 40
0.002688620205101
 40
0.0079741756482625
 40
0.0079741756482625
 40
0.0079741756482625
 40
0.013259740803594
 40
0.013259740803594
 40
0.013259740803594
 40
0.013259740803594
 10
34.15201692655269
 20
54.52353470605587
 30
0.0
 10
34.73290236040752
 20
55.20599819217135
 30
0.0
 10
35.31396267161843
 20
55.88831274504876
 30
0.0
 10
35.89521746286056
 20
56.5704613991593
 30
0.0
 10
37.0379054303537
 20
57.91149646818303
 30
0.0
 10
38.1813412029744
 20
59.25189438652807
 30
0.0
 10
39.325716083219
 20
60.59148895639661
 30
0.0
 10
40.47009296753208
 20
61.93108587220904
 30
0.0
 10
41.61540725189624
 20
63.26988226416372
 30
0.0
 10
42.76193099673352
 20
64.60764024287721
 30
0.0
  0
LINE
  5
9D
330
1F
100
AcDbEntity
  8
0
  6
Continuous
 62
     7
370
    25
100
AcDbLine
 10
34.1520169266
 20
54.5235347061
 30
0.0
 11
34.9128574447
 21
53.8762158645
 31
0.0
  0
SPLINE
  5
9E
330
1F
100
AcDbEntity
  8
0
  6
Continuous
 62
     7
370
    25
100
AcDbSpline
210
0.0
220
0.0
230
1.0
 70
     8
 71
     3
 72
    10
 73
     6
 74
     0
 42
0.00000001
 43
0.00000001
 40
0.0
 40
0.0
 40
0.0
 40
0.0
 40
0.5
 40
0.5
 40
1.0
 40
1.0
 40
1.0
 40
1.0
 10
33.68064459665134
 20
53.22889702290069
 30
0.0
 10
33.68063826443264
 20
53.46479684497965
 30
0.0
 10
33.72109183180762
 20
53.69443468198152
 30
0.0
 10
33.88185139082172
 20
54.13732815174737
 30
0.0
 10
34.00056055753269
 20
54.34310009740756
 30
0.0
 10
34.15201692655268
 20
54.52353470605588
 30
0.0
  0
SPLINE
  5
9F
330
1F
100
AcDbEntity
  8
0
  6
Continuous
 62
     7
370
    25
100
AcDbSpline
210
0.0
220
0.0
230
1.0
 70
     8
 71
     3
 72
    11
 73
     7
 74
     0
 42
0.00000001
 43
0.00000001
 40
0.0
 40
0.0
 40
0.0
 40
0.0
 40
0.0005819279860345
 40
0.0005819279860345
 40
0.0005819279860345
 40
0.0011638565106939
 40
0.0011638565106939
 40
0.0011638565106939
 40
0.0011638565106939
 10
43.10568443696138
 20
51.58968450228745
 30
0.0
 10
43.24302566740383
 20
51.56885624196111
 30
0.0
 10
43.38037391638127
 20
51.54812032948166
 30
0.0
 10
43.51772917819275
 20
51.52747795334651
 30
0.0
 10
43.65508456686833
 20
51.50683555814561
 30
0.0
 10
43.79244700024884
 20
51.48628669463709
 30
0.0
 10
43.929816654478
 20
51.46583395205784
 30
0.0
  0
SPLINE
  5
A0
330
1F
100
AcDbEntity
  8
0
  6
Continuous
 62
     7
370
    25
100
AcDbSpline
210
0.0
220
0.0
230
1.0
 70
     8
 71
     3
 72
    12
 73
     8
 74
     0
 42
0.00000001
 43
0.00000001
 40
0.0
 40
0.0
 40
0.0
 40
0.0
 40
0.3405561862058107
 40
0.4543163354411792
 40
0.5656115765420263
 40
0.7861477316112389
 40
1.0
 40
1.0
 40
1.0
 40
1.0
 10
49.16667343347816
 20
57.12642103702426
 30
0.0
 10
48.57132380942062
 20
56.43417370242859
 30
0.0
 10
47.77710226694468
 20
55.51068652171897
 30
0.0
 10
46.78949761853619
 20
54.35995494861466
 30
0.0
 10
46.01173276100016
 20
53.45316697915953
 30
0.0
 10
45.05975002076925
 20
52.34226904743132
 30
0.0
 10
44.30257759549841
 20
51.45738943155769
 30
0.0
 10
43.92981664709053
 20
51.02175739606478
 30
0.0
  0
LINE
  5
A1
330
1F
100
AcDbEntity
  8
0
  6
Continuous
 62
     7
370
    25
100
AcDbLine
 10
34.6739850882
 20
47.7182630536
 30
0.0
 11
33.6806445967
 21
47.7182630536
 31
0.0
  0
LINE
  5
A2
330
1F
100
AcDbEntity
  8
0
  6
Continuous
 62
     7
370
    25
100
AcDbLine
 10
33.6806445967
 20
47.7182630536
 30
0.0
 11
33.6806445967
 21
53.2288970229
 31
0.0
  0
LINE
  5
A3
330
1F
100
AcDbEntity
  8
0
  6
Continuous
 62
     7
370
    25
100
AcDbLine
 10
122.0701834079
 20
47.7182630536
 30
0.0
 11
122.0701833802
 21
51.4658329026
 31
0.0
  0
LINE
  5
A4
330
1F
100
AcDbEntity
  8
0
  6
Continuous
 62
     7
370
    25
100
AcDbLine
 10
122.894315563
 20
47.7182630536
 30
0.0
 11
122.0701834079
 21
47.7182630536
 31
0.0
  0
SPLINE
  5
A5
330
1F
100
AcDbEntity
  8
0
  6
Continuous
 62
     7
370
    25
100
AcDbSpline
210
0.0
220
0.0
230
1.0
 70
     8
 71
     3
 72
    14
 73
    10
 74
     0
 42
0.00000001
 43
0.00000001
 40
0.0
 40
0.0
 40
0.0
 40
0.0
 40
0.25
 40
0.25
 40
0.5
 40
0.5
 40
0.75
 40
0.75
 40
1.0
 40
1.0
 40
1.0
 40
1.0
 10
116.8333265665218
 20
57.12642103702426
 30
0.0
 10
116.433926472529
 20
57.58760221075723
 30
0.0
 10
115.9905405644162
 20
57.99531565653193
 30
0.0
 10
115.0209138437687
 20
58.71000557991838
 30
0.0
 10
114.4887044774798
 20
59.01841662709498
 30
0.0
 10
113.3868072452523
 20
59.50754374404277
 30
0.0
 10
112.8134030048605
 20
59.69240634763526
 30
0.0
 10
111.6215660535763
 20
59.94236852654515
 30
0.0
 10
111.0174282039678
 20
60.00426506774702
 30
0.0
 10
110.4080855017457
 20
60.00426506774702
 30
0.0
  0
SPLINE
  5
A6
330
1F
100
AcDbEntity
  8
0
  6
Continuous
 62
     7
370
    25
100
AcDbSpline
210
0.0
220
0.0
230
1.0
 70
     8
 71
     3
 72
    14
 73
    10
 74
     0
 42
0.00000001
 43
0.00000001
 40
0.0
 40
0.0
 40
0.0
 40
0.0
 40
0.25
 40
0.25
 40
0.5
 40
0.5
 40
0.75
 40
0.75
 40
1.0
 40
1.0
 40
1.0
 40
1.0
 10
120.1171737095957
 20
66.04656114025458
 30
0.0
 10
120.4150194272063
 20
66.04656114025458
 30
0.0
 10
120.7074526093704
 20
66.01467573533458
 30
0.0
 10
121.2818888061682
 20
65.88945912467382
 30
0.0
 10
121.5668933974602
 20
65.79430900061844
 30
0.0
 10
122.1022058886023
 20
65.54830625176668
 30
0.0
 10
122.3545666279831
 20
65.39776349604132
 30
0.0
 10
122.8278326728361
 20
65.04005725321984
 30
0.0
 10
123.0451799860062
 20
64.83501726037608
 30
0.0
 10
123.2380699614332
 20
64.60763912489318
 30
0.0
  0
SPLINE
  5
A7
330
1F
100
AcDbEntity
  8
0
  6
Continuous
 62
     7
370
    25
100
AcDbSpline
210
0.0
220
0.0
230
1.0
 70
     8
 71
     3
 72
    18
 73
    14
 74
     0
 42
0.00000001
 43
0.00000001
 40
0.0
 40
0.0
 40
0.0
 40
0.0
 40
0.2500000000000017
 40
0.2500000000000017
 40
0.3750000000000018
 40
0.3750000000000018
 40
0.500000000000002
 40
0.500000000000002
 40
0.7500000000000022
 40
0.7500000000000022
 40
0.8750000000000011
 40
0.8750000000000011
 40
1.0
 40
1.0
 40
1.0
 40
1.0
 10
55.59191449825428
 20
60.00426506774702
 30
0.0
 10
54.98198921995463
 20
60.00426506774702
 30
0.0
 10
54.38258558587892
 20
59.94243454896705
 30
0.0
 10
53.49903823624695
 20
59.7583253072049
 30
0.0
 10
53.20713607282514
 20
59.68160784393363
 30
0.0
 10
52.62878520952383
 20
59.49617023269386
 30
0.0
 10
52.3429126037457
 20
59.38736873462081
 30
0.0
 10
51.51477690572107
 20
59.02035484418719
 30
0.0
 10
50.99447298988355
 20
58.71989288272229
 30
0.0
 10
50.26314860319358
 20
58.18300326758598
 30
0.0
 10
50.02663704379268
 20
57.9885216123802
 30
0.0
 10
49.57865726254878
 20
57.57576895852081
 30
0.0
 10
49.36659305796474
 20
57.35726806938886
 30
0.0
 10
49.16667343347815
 20
57.12642103702426
 30
0.0
  0
LINE
  5
A8
330
1F
100
AcDbEntity
  8
0
  6
Continuous
 62
     7
370
    25
100
AcDbLine
 10
43.9298166545
 20
51.4658339521
 30
0.0
 11
43.9298165921
 21
47.7182630536
 31
0.0
  0
LINE
  5
A9
330
1F
100
AcDbEntity
  8
0
  6
Continuous
 62
     7
370
    25
100
AcDbLine
 10
43.9298165921
 20
47.7182630536
 30
0.0
 11
43.105684437
 21
47.7182630536
 31
0.0
  0
LINE
  5
AA
330
1F
100
AcDbEntity
  8
0
  6
Continuous
 62
     7
370
    25
100
AcDbLine
 10
120.1171737096
 20
66.0465611403
 30
0.0
 11
120.9814439006
 21
66.0465611403
 31
0.0
  0
LINE
  5
AB
330
1F
100
AcDbEntity
  8
0
  6
Continuous
 62
     7
370
    25
100
AcDbLine
 10
45.0185560994
 20
66.0465611403
 30
0.0
 11
45.8828262904
 21
66.0465611403
 31
0.0
  0
LINE
  5
AC
330
1F
100
AcDbEntity
  8
0
  6
Continuous
 62
     7
370
    25
100
AcDbLine
 10
33.0
 20
47.7182630536
 30
0.0
 11
33.6806445967
 21
47.7182630536
 31
0.0
  0
LINE
  5
AD
330
1F
100
AcDbEntity
  8
0
  6
Continuous
 62
     7
370
    25
100
AcDbLine
 10
132.3193554033
 20
47.7182630536
 30
0.0
 11
133.0
 21
47.7182630536
 31
0.0
  0
SPLINE
  5
AE
330
1F
100
AcDbEntity
  8
0
  6
Continuous
 62
     7
370
    25
100
AcDbSpline
210
0.0
220
0.0
230
1.0
 70
     8
 71
     3
 72
    12
 73
     8
 74
     0
 42
0.00000001
 43
0.00000001
 40
0.0
 40
0.0
 40
0.0
 40
0.0
 40
0.3399147805900368
 40
0.4483900024638828
 40
0.5594006120845448
 40
0.783189364470259
 40
1.0
 40
1.0
 40
1.0
 40
1.0
 10
43.92981664632919
 20
50.97599151129929
 30
0.0
 10
44.52758826573
 20
51.67362500190936
 30
0.0
 10
45.31612360811993
 20
52.59389061092624
 30
0.0
 10
46.30092026816043
 20
53.74110029269461
 30
0.0
 10
47.08157676017253
 20
54.64990802039998
 30
0.0
 10
48.05358220018089
 20
55.78034696784877
 30
0.0
 10
48.83089539492974
 20
56.68249234108102
 30
0.0
 10
49.21339653401778
 20
57.12642103702426
 30
0.0
  0
SPLINE
  5
AF
330
1F
100
AcDbEntity
  8
0
  6
Continuous
 62
     7
370
    25
100
AcDbSpline
210
0.0
220
0.0
230
1.0
 70
     8
 71
     3
 72
    12
 73
     8
 74
     0
 42
0.00000001
 43
0.00000001
 40
0.0
 40
0.0
 40
0.0
 40
0.0
 40
0.3380046391189067
 40
0.4509345957817402
 40
0.5614001306251817
 40
0.7802781781074135
 40
1.0
 40
1.0
 40
1.0
 40
1.0
 10
116.7866014602743
 20
57.12642103702426
 30
0.0
 10
117.3828381598804
 20
56.43427709109754
 30
0.0
 10
118.1782821390755
 20
55.51088251493776
 30
0.0
 10
119.1673095538261
 20
54.36018465967917
 30
0.0
 10
119.9461734186688
 20
53.45340505173807
 30
0.0
 10
120.9125621900445
 20
52.32720892146126
 30
0.0
 10
121.6838150761503
 20
51.42698150229671
 30
0.0
 10
122.0701833838212
 20
50.97600186808377
 30
0.0
  0
LINE
  5
B0
330
1F
100
AcDbEntity
  8
0
  6
HIDDEN
 62
     7
370
    18
100
AcDbLine
 10
122.1394572263
 20
50.940820959
 30
0.0
 11
122.0701833835
 21
51.0217333253
 31
0.0
  0
SPLINE
  5
B1
330
1F
100
AcDbEntity
  8
0
  6
HIDDEN
 62
     7
370
    18
100
AcDbSpline
210
0.0
220
0.0
230
1.0
 70
     8
 71
     3
 72
     8
 73
     4
 74
     0
 42
0.00000001
 43
0.00000001
 40
0.7056123488988899
 40
0.7056123488988899
 40
0.7056123488988899
 40
0.7056123488988899
 40
1.0
 40
1.0
 40
1.0
 40
1.0
 10
122.070183380206
 20
51.46583290256711
 30
0.0
 10
122.0939472688717
 20
51.28913915537033
 30
0.0
 10
122.1170309456244
 20
51.11413451077209
 30
0.0
 10
122.1394572263402
 20
50.94082095898569
 30
0.0
  0
LINE
  5
B2
330
1F
100
AcDbEntity
  8
0
  6
HIDDEN
 62
     7
370
    18
100
AcDbLine
 10
43.9298166471
 20
51.0217573961
 30
0.0
 11
43.8605442167
 21
50.940820959
 31
0.0
  0
SPLINE
  5
B3
330
1F
100
AcDbEntity
  8
0
  6
HIDDEN
 62
     7
370
    18
100
AcDbSpline
210
0.0
220
0.0
230
1.0
 70
     8
 71
     3
 72
     8
 73
     4
 74
     0
 42
0.00000001
 43
0.00000001
 40
0.0
 40
0.0
 40
0.0
 40
0.0
 40
0.294380670909162
 40
0.294380670909162
 40
0.294380670909162
 40
0.294380670909162
 10
43.86054421669567
 20
50.94082095898569
 30
0.0
 10
43.8829692281999
 20
51.11413784871172
 30
0.0
 10
43.90605294764135
 20
51.28914226244898
 30
0.0
 10
43.929816654478
 20
51.46583395205784
 30
0.0
  0
LINE
  5
B4
330
1F
100
AcDbEntity
  8
0
  6
HIDDEN
 62
     7
370
    18
100
AcDbLine
 10
54.4323846383
 20
60.0042650677
 30
0.0
 11
55.5919144983
 21
60.0042650677
 31
0.0
  0
LINE
  5
B5
330
1F
100
AcDbEntity
  8
0
  6
HIDDEN
 62
     7
370
    18
100
AcDbLine
 10
110.4080855017
 20
60.0042650677
 30
0.0
 11
111.5676153617
 21
60.0042650677
 31
0.0
  0
LINE
  5
B6
330
1F
100
AcDbEntity
  8
0
  6
HIDDEN
 62
     7
370
    18
100
AcDbLine
 10
122.1394572263
 20
50.940820959
 30
0.0
 11
122.9295065458
 21
50.940820959
 31
0.0
  0
LINE
  5
B7
330
1F
100
AcDbEntity
  8
0
  6
HIDDEN
 62
     7
370
    18
100
AcDbLine
 10
122.1394572263
 20
50.940820959
 30
0.0
 11
122.1061185685
 21
50.940820959
 31
0.0
  0
LINE
  5
B8
330
1F
100
AcDbEntity
  8
0
  6
HIDDEN
 62
     7
370
    18
100
AcDbLine
 10
122.1061185685
 20
50.940820959
 30
0.0
 11
122.1061185685
 21
47.7182630536
 31
0.0
  0
LINE
  5
B9
330
1F
100
AcDbEntity
  8
0
  6
HIDDEN
 62
     7
370
    18
100
AcDbLine
 10
43.8938814315
 20
50.940820959
 30
0.0
 11
43.8605442167
 21
50.940820959
 31
0.0
  0
LINE
  5
BA
330
1F
100
AcDbEntity
  8
0
  6
HIDDEN
 62
     7
370
    18
100
AcDbLine
 10
43.0704934542
 20
50.940820959
 30
0.0
 11
43.8605442167
 21
50.940820959
 31
0.0
  0
LINE
  5
BB
330
1F
100
AcDbEntity
  8
0
  6
HIDDEN
 62
     7
370
    18
100
AcDbLine
 10
43.8938814315
 20
47.7182630536
 30
0.0
 11
43.8938814315
 21
50.940820959
 31
0.0
  0
LINE
  5
BC
330
1F
100
AcDbEntity
  8
0
  6
HIDDEN
 62
     7
370
    18
100
AcDbLine
 10
43.89966658
 20
50.940820959
 30
0.0
 11
43.8764331465
 21
50.9136893882
 31
0.0
  0
LINE
  5
BD
330
1F
100
AcDbEntity
  8
0
  6
HIDDEN
 62
     7
370
    18
100
AcDbLine
 10
43.8938814315
 20
50.940820959
 30
0.0
 11
43.8764331465
 21
50.9136893882
 31
0.0
  0
LINE
  5
BE
330
1F
100
AcDbEntity
  8
0
  6
HIDDEN
 62
     7
370
    18
100
AcDbLine
 10
43.89966658
 20
50.940820959
 30
0.0
 11
43.9298166463
 21
50.9759915113
 31
0.0
  0
LINE
  5
BF
330
1F
100
AcDbEntity
  8
0
  6
HIDDEN
 62
     7
370
    18
100
AcDbLine
 10
122.1235670904
 20
50.9136930566
 30
0.0
 11
122.1061185685
 21
50.940820959
 31
0.0
  0
SPLINE
  5
C0
330
1F
100
AcDbEntity
  8
0
  6
HIDDEN
 62
     7
370
    18
100
AcDbSpline
210
0.0
220
0.0
230
1.0
 70
     8
 71
     3
 72
     8
 73
     4
 74
     0
 42
0.00000001
 43
0.00000001
 40
0.0
 40
0.0
 40
0.0
 40
0.0
 40
1.0
 40
1.0
 40
1.0
 40
1.0
 10
122.1003320014615
 20
50.94082095898569
 30
0.0
 10
122.1080773735106
 20
50.93177868558696
 30
0.0
 10
122.1158220073499
 20
50.92273571743514
 30
0.0
 10
122.1235670904096
 20
50.91369305656353
 30
0.0
  0
LINE
  5
C1
330
1F
100
AcDbEntity
  8
0
  6
HIDDEN
 62
     7
370
    18
100
AcDbLine
 10
122.0701833838
 20
50.9760018681
 30
0.0
 11
122.1003320015
 21
50.940820959
 31
0.0
  0
LINE
  5
C2
330
1F
100
AcDbEntity
  8
0
  6
HIDDEN
 62
     7
370
    18
100
AcDbLine
 10
125.7995971803
 20
57.7887565078
 30
0.0
 11
125.7995971803
 21
47.7182630536
 31
0.0
  0
LINE
  5
C3
330
1F
100
AcDbEntity
  8
0
  6
HIDDEN
 62
     7
370
    18
100
AcDbLine
 10
125.7995971803
 20
57.7887565078
 30
0.0
 11
124.7925478348
 21
57.7887565078
 31
0.0
  0
LINE
  5
C4
330
1F
100
AcDbEntity
  8
0
  6
HIDDEN
 62
     7
370
    18
100
AcDbLine
 10
124.7925478348
 20
57.7887565078
 30
0.0
 11
124.7925478348
 21
47.7182630536
 31
0.0
  0
LINE
  5
C5
330
1F
100
AcDbEntity
  8
0
  6
HIDDEN
 62
     7
370
    18
100
AcDbLine
 10
41.2074521652
 20
57.7887565078
 30
0.0
 11
41.2074521652
 21
47.7182630536
 31
0.0
  0
LINE
  5
C6
330
1F
100
AcDbEntity
  8
0
  6
HIDDEN
 62
     7
370
    18
100
AcDbLine
 10
41.2074521652
 20
57.7887565078
 30
0.0
 11
40.2004028197
 21
57.7887565078
 31
0.0
  0
LINE
  5
C7
330
1F
100
AcDbEntity
  8
0
  6
HIDDEN
 62
     7
370
    18
100
AcDbLine
 10
40.2004028197
 20
57.7887565078
 30
0.0
 11
40.2004028197
 21
47.7182630536
 31
0.0
  0
LINE
  5
C8
330
1F
100
AcDbEntity
  8
0
  6
HIDDEN
 62
     7
370
    18
100
AcDbLine
 10
124.7925478348
 20
57.7887565078
 30
0.0
 11
124.0372608258
 21
57.7887565078
 31
0.0
  0
LINE
  5
C9
330
1F
100
AcDbEntity
  8
0
  6
HIDDEN
 62
     7
370
    18
100
AcDbLine
 10
126.5548841893
 20
57.7887565078
 30
0.0
 11
125.7995971803
 21
57.7887565078
 31
0.0
  0
LINE
  5
CA
330
1F
100
AcDbEntity
  8
0
  6
HIDDEN
 62
     7
370
    18
100
AcDbLine
 10
40.2004028197
 20
57.7887565078
 30
0.0
 11
39.4451158107
 21
57.7887565078
 31
0.0
  0
LINE
  5
CB
330
1F
100
AcDbEntity
  8
0
  6
HIDDEN
 62
     7
370
    18
100
AcDbLine
 10
41.9627391742
 20
57.7887565078
 30
0.0
 11
41.2074521652
 21
57.7887565078
 31
0.0
  0
SPLINE
  5
CC
330
1F
100
AcDbEntity
  8
0
  6
HIDDEN
 62
     7
370
    18
100
AcDbSpline
210
0.0
220
0.0
230
1.0
 70
     8
 71
     3
 72
    14
 73
    10
 74
     0
 42
0.00000001
 43
0.00000001
 40
0.0
 40
0.0
 40
0.0
 40
0.0
 40
0.0002963222375639
 40
0.0002963222375639
 40
0.0002963222375639
 40
0.0005926444751226
 40
0.0005926444751226
 40
0.0005926444751226
 40
0.0011814792695535
 40
0.0011814792695535
 40
0.0011814792695535
 40
0.0011814792695535
 10
43.87643314650917
 20
50.91368938817436
 30
0.0
 10
43.82607699668767
 20
50.94203856831238
 30
0.0
 10
43.7757217361923
 20
50.97039341229445
 30
0.0
 10
43.72536736288661
 20
50.99875390283564
 30
0.0
 10
43.67501298958148
 20
51.02711439337657
 30
0.0
 10
43.62465950328938
 20
51.05548053057618
 30
0.0
 10
43.57430690188444
 20
51.0838522972459
 30
0.0
 10
43.4742490601574
 20
51.14023106735402
 30
0.0
 10
43.37419471157543
 20
51.19663206726101
 30
0.0
 10
43.27414383957916
 20
51.25305516321132
 30
0.0
  0
SPLINE
  5
CD
330
1F
100
AcDbEntity
  8
0
  6
HIDDEN
 62
     7
370
    18
100
AcDbSpline
210
0.0
220
0.0
230
1.0
 70
     8
 71
     3
 72
    14
 73
    10
 74
     0
 42
0.00000001
 43
0.00000001
 40
0.0
 40
0.0
 40
0.0
 40
0.0
 40
0.0002964844419011
 40
0.0002964844419011
 40
0.0002964844419011
 40
0.0005929688838047
 40
0.0005929688838047
 40
0.0005929688838047
 40
0.0011814811696984
 40
0.0011814811696984
 40
0.0011814811696984
 40
0.0011814811696984
 10
122.7258561604208
 20
51.25306704607884
 30
0.0
 10
122.6754796740506
 20
51.22465636054722
 30
0.0
 10
122.6251022875552
 20
51.19625139628766
 30
0.0
 10
122.5747240002457
 20
51.16785216144964
 30
0.0
 10
122.524345712936
 20
51.13945292661147
 30
0.0
 10
122.4739665246304
 20
51.11105942109234
 30
0.0
 10
122.42358643464
 20
51.08267165305547
 30
0.0
 10
122.3235835421602
 20
51.02632282725387
 30
0.0
 10
122.2235770958794
 20
50.96999660708846
 30
0.0
 10
122.1235670904096
 20
50.91369305656353
 30
0.0
  0
LINE
  5
CE
330
1F
100
AcDbEntity
  8
0
  6
HIDDEN
 62
     7
370
    18
100
AcDbLine
 10
131.8479830734
 20
54.5235347061
 30
0.0
 11
131.0871425553
 21
53.8762158645
 31
0.0
  0
LINE
  5
CF
330
1F
100
AcDbEntity
  8
0
  6
HIDDEN
 62
     7
370
    18
100
AcDbLine
 10
123.2380668715
 20
64.6076384119
 30
0.0
 11
122.482200683
 21
63.9603206124
 31
0.0
  0
SPLINE
  5
D0
330
1F
100
AcDbEntity
  8
0
  6
HIDDEN
 62
     7
370
    18
100
AcDbSpline
210
0.0
220
0.0
230
1.0
 70
    24
 71
     3
 72
    11
 73
     7
 74
     0
 42
0.00000001
 43
0.00000001
 40
0.0
 40
0.0
 40
0.0
 40
0.0
 40
0.0000201019853199
 40
0.0000201019853199
 40
0.0000201019853199
 40
1.00002010198532
 40
1.00002010198532
 40
1.00002010198532
 40
1.00002010198532
 10
34.15200066655905
 20
54.52354656772894
 30
0.0
 10
34.1520057646972
 20
54.52354223026818
 30
0.0
 10
34.15201086283538
 20
54.52353789280741
 30
0.0
 10
34.15201596097354
 20
54.52353355534665
 30
0.0
 10
34.40562962575559
 20
54.30776079993899
 30
0.0
 10
34.65924329053764
 20
54.09198804453133
 30
0.0
 10
34.91285695531968
 20
53.87621528912367
 30
0.0
  0
LINE
  5
D1
330
1F
100
AcDbEntity
  8
0
  6
HIDDEN
 62
     7
370
    18
100
AcDbLine
 10
42.7619300386
 20
64.6076391249
 30
0.0
 11
43.5177990351
 21
63.9603202833
 31
0.0
  0
LINE
  5
D2
330
1F
100
AcDbEntity
  8
0
  6
HIDDEN
 62
     7
370
    18
100
AcDbLine
 10
110.3649735869
 20
60.6907566559
 30
0.0
 11
55.6350264131
 21
60.6907566559
 31
0.0
  0
SPLINE
  5
D3
330
1F
100
AcDbEntity
  8
0
  6
HIDDEN
 62
     7
370
    18
100
AcDbSpline
210
0.0
220
0.0
230
1.0
 70
     8
 71
     3
 72
     8
 73
     4
 74
     0
 42
0.00000001
 43
0.00000001
 40
0.0
 40
0.0
 40
0.0
 40
0.0
 40
1.0
 40
1.0
 40
1.0
 40
1.0
 10
122.7258561604208
 20
51.25306704607884
 30
0.0
 10
122.4068469385875
 20
51.62534660606414
 30
0.0
 10
122.1273160055554
 20
51.95144930747315
 30
0.0
 10
121.8872633613244
 20
52.23137515030599
 30
0.0
  0
SPLINE
  5
D4
330
1F
100
AcDbEntity
  8
0
  6
HIDDEN
 62
     7
370
    18
100
AcDbSpline
210
0.0
220
0.0
230
1.0
 70
     8
 71
     3
 72
     8
 73
     4
 74
     0
 42
0.00000001
 43
0.00000001
 40
0.0007058033172224
 40
0.0007058033172224
 40
0.0007058033172224
 40
0.0007058033172224
 40
0.007694717889613
 40
0.007694717889613
 40
0.007694717889613
 40
0.007694717889613
 10
121.8872633613244
 20
52.231375150306
 30
0.0
 10
120.3600332478797
 20
54.01227968898529
 30
0.0
 10
118.8306182405655
 20
55.79132402393064
 30
0.0
 10
117.298062410415
 20
57.56768754186146
 30
0.0
  0
SPLINE
  5
D5
330
1F
100
AcDbEntity
  8
0
  6
HIDDEN
 62
     7
370
    18
100
AcDbSpline
210
0.0
220
0.0
230
1.0
 70
     8
 71
     3
 72
     8
 73
     4
 74
     0
 42
0.00000001
 43
0.00000001
 40
0.0
 40
0.0
 40
0.0
 40
0.0
 40
1.0
 40
1.0
 40
1.0
 40
1.0
 10
48.70193552388625
 20
57.56768932404093
 30
0.0
 10
47.25879415561939
 20
55.89494909960754
 30
0.0
 10
45.72906105183736
 20
54.11617783017677
 30
0.0
 10
44.1127337823793
 20
52.23137551574853
 30
0.0
  0
SPLINE
  5
D6
330
1F
100
AcDbEntity
  8
0
  6
HIDDEN
 62
     7
370
    18
100
AcDbSpline
210
0.0
220
0.0
230
1.0
 70
     8
 71
     3
 72
     8
 73
     4
 74
     0
 42
0.00000001
 43
0.00000001
 40
0.0
 40
0.0
 40
0.0
 40
0.0
 40
1.0
 40
1.0
 40
1.0
 40
1.0
 10
44.1127337823793
 20
52.23137551574853
 30
0.0
 10
43.8368893419935
 20
51.9097089656511
 30
0.0
 10
43.55735889427866
 20
51.58360258176328
 30
0.0
 10
43.27414383957916
 20
51.25305516321132
 30
0.0
  0
LINE
  5
D7
330
1F
100
AcDbEntity
  8
0
  6
HIDDEN
 62
     7
370
    18
100
AcDbLine
 10
122.7258561604
 20
47.7182630536
 30
0.0
 11
122.7258561604
 21
51.2530670461
 31
0.0
  0
LINE
  5
D8
330
1F
100
AcDbEntity
  8
0
  6
HIDDEN
 62
     7
370
    18
100
AcDbLine
 10
43.2741438396
 20
51.2530551632
 30
0.0
 11
43.2741438396
 21
47.7182630536
 31
0.0
  0
SPLINE
  5
D9
330
1F
100
AcDbEntity
  8
0
  6
HIDDEN
 62
     7
370
    18
100
AcDbSpline
210
0.0
220
0.0
230
1.0
 70
     8
 71
     3
 72
    40
 73
    36
 74
     0
 42
0.00000001
 43
0.00000001
 40
0.0
 40
0.0
 40
0.0
 40
0.0
 40
0.0004838559212093
 40
0.0004838559212093
 40
0.0009677118424187
 40
0.0009677118424187
 40
0.0012096398030233
 40
0.0012096398030233
 40
0.001451567763628
 40
0.001451567763628
 40
0.0016934957242326
 40
0.0016934957242326
 40
0.0019354236848373
 40
0.0019354236848373
 40
0.002903135527256
 40
0.002903135527256
 40
0.0033869914484653
 40
0.0033869914484653
 40
0.0038708473696746
 40
0.0038708473696746
 40
0.0041127753302793
 40
0.0041127753302793
 40
0.0043547032908839
 40
0.0043547032908839
 40
0.0045966312514886
 40
0.0045966312514886
 40
0.0048385592120933
 40
0.0048385592120933
 40
0.0053224151333026
 40
0.0053224151333026
 40
0.0058062710545119
 40
0.0058062710545119
 40
0.0067739828969306
 40
0.0067739828969306
 40
0.0077416947393492
 40
0.0077416947393492
 40
0.0077416947393492
 40
0.0077416947393492
 10
117.2980644761138
 20
57.56768932404101
 30
0.0
 10
117.1904004267053
 20
57.69247881565853
 30
0.0
 10
117.0794911414994
 20
57.81392298653305
 30
0.0
 10
116.851272998032
 20
58.05021438871397
 30
0.0
 10
116.7339645576878
 20
58.16506205081458
 30
0.0
 10
116.5532286541987
 20
58.33241309143602
 30
0.0
 10
116.4921873844901
 20
58.38737625496704
 30
0.0
 10
116.3685117290152
 20
58.49566033335551
 30
0.0
 10
116.3058829844095
 20
58.54897609113497
 30
0.0
 10
116.179005152369
 20
58.65398118041463
 30
0.0
 10
116.1147608602749
 20
58.70565971125436
 30
0.0
 10
115.9853504981454
 20
58.80684339033084
 30
0.0
 10
115.9200522890334
 20
58.85646392354338
 30
0.0
 10
115.5909589739237
 20
59.09943868055113
 30
0.0
 10
115.3188316285618
 20
59.27811149320682
 30
0.0
 10
114.897967999273
 20
59.52315495059192
 30
0.0
 10
114.7555545423139
 20
59.60101180007491
 30
0.0
 10
114.4664947329236
 20
59.74910975697409
 30
0.0
 10
114.3198484291128
 20
59.81935095172224
 30
0.0
 10
114.0966910007947
 20
59.91897700620476
 30
0.0
 10
114.021773606853
 20
59.95122927464127
 30
0.0
 10
113.8708699463371
 20
60.01381071688351
 30
0.0
 10
113.7948836922748
 20
60.04413991319912
 30
0.0
 10
113.641834326189
 20
60.10286084415099
 30
0.0
 10
113.5647981163106
 20
60.1312429173162
 30
0.0
 10
113.4095308101602
 20
60.18608950065804
 30
0.0
 10
113.3315312267445
 20
60.21246998276887
 30
0.0
 10
113.0972408075774
 20
60.28823722588654
 30
0.0
 10
112.9402779938535
 20
60.33440688707486
 30
0.0
 10
112.624960033242
 20
60.41821814766151
 30
0.0
 10
112.4665864009284
 20
60.45586869921775
 30
0.0
 10
111.9893564650602
 20
60.55626301921796
 30
0.0
 10
111.6683960620884
 20
60.60647885798261
 30
0.0
 10
111.0209016017906
 20
60.67372468824556
 30
0.0
 10
110.6943661145246
 20
60.69074616127108
 30
0.0
 10
110.3649735869213
 20
60.69075665589676
 30
0.0
  0
SPLINE
  5
DA
330
1F
100
AcDbEntity
  8
0
  6
HIDDEN
 62
     7
370
    18
100
AcDbSpline
210
0.0
220
0.0
230
1.0
 70
     8
 71
     3
 72
    38
 73
    34
 74
     0
 42
0.00000001
 43
0.00000001
 40
0.0
 40
0.0
 40
0.0
 40
0.0
 40
0.0004836619001817
 40
0.0004836619001817
 40
0.0009673238003634
 40
0.0009673238003634
 40
0.0014509857005451
 40
0.0014509857005451
 40
0.001692816650636
 40
0.001692816650636
 40
0.0019346476007268
 40
0.0019346476007268
 40
0.0024183095009085
 40
0.0024183095009085
 40
0.0029019714010902
 40
0.0029019714010902
 40
0.0038692952014536
 40
0.0038692952014536
 40
0.0043529571016353
 40
0.0043529571016353
 40
0.0045947880517261
 40
0.0045947880517261
 40
0.004836619001817
 40
0.004836619001817
 40
0.0050784499519078
 40
0.0050784499519078
 40
0.0053202809019987
 40
0.0053202809019987
 40
0.0058039428021804
 40
0.0058039428021804
 40
0.0067712666025438
 40
0.0067712666025438
 40
0.0077385904029072
 40
0.0077385904029072
 40
0.0077385904029072
 40
0.0077385904029072
 10
55.6350264130787
 20
60.69075665589672
 30
0.0
 10
55.47037832490619
 20
60.690756009094
 30
0.0
 10
55.30613557197992
 20
60.6864919880725
 30
0.0
 10
54.97845618571209
 20
60.66948506461299
 30
0.0
 10
54.81501949415051
 20
60.6567427746084
 30
0.0
 10
54.48895399823591
 20
60.62276072103393
 30
0.0
 10
54.32628372762498
 20
60.6015119900503
 30
0.0
 10
54.08301515265171
 20
60.56322414663856
 30
0.0
 10
54.00199866893721
 20
60.54938022799219
 30
0.0
 10
53.84016371563273
 20
60.51952648539501
 30
0.0
 10
53.75939556967955
 20
60.50352213735971
 30
0.0
 10
53.51848116275937
 20
60.45246895930704
 30
0.0
 10
53.35937491303858
 20
60.41433357880327
 30
0.0
 10
53.04416133801838
 20
60.32996259564163
 30
0.0
 10
52.88804879400494
 20
60.28372804498031
 30
0.0
 10
52.4241717814656
 20
60.13293712999063
 30
0.0
 10
52.12082999215474
 20
60.01631136919067
 30
0.0
 10
51.67493944596309
 20
59.81690864849421
 30
0.0
 10
51.52777024245876
 20
59.74632039783463
 30
0.0
 10
51.309419322878
 20
59.63422089796333
 30
0.0
 10
51.23697956906164
 20
59.59578453104817
 30
0.0
 10
51.092979817913
 20
59.51684947455815
 30
0.0
 10
51.02123042290886
 20
59.47623877088267
 30
0.0
 10
50.87923788789688
 20
59.39328293825583
 30
0.0
 10
50.80897255958636
 20
59.35093276549399
 30
0.0
 10
50.66986421359325
 20
59.26448513063106
 30
0.0
 10
50.60102558271314
 20
59.22039081721031
 30
0.0
 10
50.39664110508661
 20
59.08551489439153
 30
0.0
 10
50.26322545205106
 20
58.99214178833217
 30
0.0
 10
49.87143510798348
 20
58.70173453634717
 30
0.0
 10
49.62149379562029
 20
58.49444072652859
 30
0.0
 10
49.14437340547698
 20
58.05216160588539
 30
0.0
 10
48.91719686728716
 20
57.81717320712919
 30
0.0
 10
48.70193552388625
 20
57.56768932404093
 30
0.0
  0
ARC
  5
DB
330
1F
100
AcDbEntity
  8
0
  6
HIDDEN
 62
     7
370
    18
100
AcDbCircle
 10
54.4323846383
 20
51.9478703044
 30
0.0
 40
8.056394763343409
100
AcDbArc
 50
90.0
 51
140.0
  0
ARC
  5
DC
330
1F
100
AcDbEntity
  8
0
  6
HIDDEN
 62
     7
370
    18
100
AcDbCircle
 10
111.5676153617
 20
51.9478703044
 30
0.0
 40
8.056394763343405
100
AcDbArc
 50
40.0
 51
90.0
  0
LINE
  5
DD
330
1F
100
AcDbEntity
  8
0
  6
HIDDEN
 62
     7
370
    18
100
AcDbLine
 10
122.9295065458
 20
47.7182630536
 30
0.0
 11
122.9295065458
 21
50.940820959
 31
0.0
  0
LINE
  5
DE
330
1F
100
AcDbEntity
  8
0
  6
HIDDEN
 62
     7
370
    18
100
AcDbLine
 10
43.0704934542
 20
50.940820959
 30
0.0
 11
43.0704934542
 21
47.7182630536
 31
0.0
  0
LINE
  5
DF
330
1F
100
AcDbEntity
  8
0
  6
HIDDEN
 62
     7
370
    18
100
AcDbLine
 10
48.2608281983
 20
57.126421037
 30
0.0
 11
43.0704934542
 21
50.940820959
 31
0.0
  0
LINE
  5
E0
330
1F
100
AcDbEntity
  8
0
  6
HIDDEN
 62
     7
370
    18
100
AcDbLine
 10
122.9295065458
 20
50.940820959
 30
0.0
 11
117.7391718017
 21
57.126421037
 31
0.0
  0
LINE
  5
E1
330
1F
100
AcDbEntity
  8
0
  6
HIDDEN
 62
     7
370
    18
100
AcDbLine
 10
126.5548841893
 20
57.7887565078
 30
0.0
 11
125.2960725076
 21
58.5451268742
 31
0.0
  0
LINE
  5
E2
330
1F
100
AcDbEntity
  8
0
  6
HIDDEN
 62
     7
370
    18
100
AcDbLine
 10
125.2960725076
 20
58.5451268742
 30
0.0
 11
124.0372608258
 21
57.7887565078
 31
0.0
  0
LINE
  5
E3
330
1F
100
AcDbEntity
  8
0
  6
HIDDEN
 62
     7
370
    18
100
AcDbLine
 10
41.9627391742
 20
57.7887565078
 30
0.0
 11
40.7039274924
 21
58.5451268742
 31
0.0
  0
LINE
  5
E4
330
1F
100
AcDbEntity
  8
0
  6
HIDDEN
 62
     7
370
    18
100
AcDbLine
 10
40.7039274924
 20
58.5451268742
 30
0.0
 11
39.4451158107
 21
57.7887565078
 31
0.0
  0
LINE
  5
E5
330
1F
100
AcDbEntity
  8
0
  6
HIDDEN
 62
     7
370
    18
100
AcDbLine
 10
124.0372608258
 20
57.7887565078
 30
0.0
 11
124.0372608258
 21
47.7182630536
 31
0.0
  0
LINE
  5
E6
330
1F
100
AcDbEntity
  8
0
  6
HIDDEN
 62
     7
370
    18
100
AcDbLine
 10
41.9627391742
 20
47.7182630536
 30
0.0
 11
41.9627391742
 21
57.7887565078
 31
0.0
  0
LINE
  5
E7
330
1F
100
AcDbEntity
  8
0
  6
HIDDEN
 62
     7
370
    18
100
AcDbLine
 10
39.4451158107
 20
57.7887565078
 30
0.0
 11
39.4451158107
 21
47.7182630536
 31
0.0
  0
LINE
  5
E8
330
1F
100
AcDbEntity
  8
0
  6
HIDDEN
 62
     7
370
    18
100
AcDbLine
 10
126.5548841893
 20
47.7182630536
 30
0.0
 11
126.5548841893
 21
57.7887565078
 31
0.0
  0
SPLINE
  5
E9
330
1F
100
AcDbEntity
  8
0
  6
Continuous
 62
     7
370
    25
100
AcDbSpline
210
0.0
220
0.0
230
1.0
 70
     8
 71
     3
 72
    14
 73
    10
 74
     0
 42
0.00000001
 43
0.00000001
 40
0.0
 40
0.0
 40
0.0
 40
0.0
 40
0.25
 40
0.25
 40
0.5
 40
0.5
 40
0.75
 40
0.75
 40
1.0
 40
1.0
 40
1.0
 40
1.0
 10
123.2380686949084
 20
166.2106307619314
 30
0.0
 10
123.045214470712
 20
166.2016317369273
 30
0.0
 10
122.8311013928874
 20
166.1915732975371
 30
0.0
 10
122.3623251997656
 20
166.1692045817298
 30
0.0
 10
122.104512490997
 20
166.1567573664789
 30
0.0
 10
121.5695729055791
 20
166.1304952248919
 30
0.0
 10
121.290939711176
 20
166.1166183983348
 30
0.0
 10
120.7108936636854
 20
166.0872466787231
 30
0.0
 10
120.4149581578179
 20
166.0719917949687
 30
0.0
 10
120.1171737095957
 20
166.0563947633434
 30
0.0
  0
SPLINE
  5
EA
330
1F
100
AcDbEntity
  8
0
  6
Continuous
 62
     7
370
    25
100
AcDbSpline
210
0.0
220
0.0
230
1.0
 70
     8
 71
     3
 72
    14
 73
    10
 74
     0
 42
0.00000001
 43
0.00000001
 40
0.0
 40
0.0
 40
0.0
 40
0.0
 40
0.25
 40
0.25
 40
0.5
 40
0.5
 40
0.75
 40
0.75
 40
1.0
 40
1.0
 40
1.0
 40
1.0
 10
120.1171737095957
 20
149.9436052366566
 30
0.0
 10
120.4150194272063
 20
149.9280054125079
 30
0.0
 10
120.7074526093704
 20
149.912937325546
 30
0.0
 10
121.2818888061682
 20
149.8838304351608
 30
0.0
 10
121.5668933974602
 20
149.8696270036891
 30
0.0
 10
122.1022058886023
 20
149.8433653722155
 30
0.0
 10
122.3545666279831
 20
149.831184397708
 30
0.0
 10
122.8278326728361
 20
149.8085636165375
 30
0.0
 10
123.0451799860062
 20
149.7983592887396
 30
0.0
 10
123.2380699614332
 20
149.7893691789697
 30
0.0
  0
LINE
  5
EB
330
1F
100
AcDbEntity
  8
0
  6
Continuous
 62
     7
370
    25
100
AcDbLine
 10
123.2380699614
 20
149.789369179
 30
0.0
 11
122.4822009649
 21
148.9365558912
 31
0.0
  0
SPLINE
  5
EC
330
1F
100
AcDbEntity
  8
0
  6
Continuous
 62
     7
370
    25
100
AcDbSpline
210
0.0
220
0.0
230
1.0
 70
    24
 71
     3
 72
    30
 73
    26
 74
     0
 42
0.00000001
 43
0.00000001
 40
0.0
 40
0.0
 40
0.0
 40
0.0
 40
0.0001654330549295
 40
0.0001654330549295
 40
0.000330866109859
 40
0.000330866109859
 40
0.0004962991647885
 40
0.0004962991647885
 40
0.000661732219718
 40
0.000661732219718
 40
0.000992598329577
 40
0.000992598329577
 40
0.001323464439436
 40
0.001323464439436
 40
0.0014888974943655
 40
0.0014888974943655
 40
0.001654330549295
 40
0.001654330549295
 40
0.0018197636042245
 40
0.0018197636042245
 40
0.001985196659154
 40
0.001985196659154
 40
0.0023160627690129
 40
0.0023160627690129
 40
0.0026469288788719
 40
0.0026469288788719
 40
0.0026469288788719
 40
0.0026469288788719
 10
122.4822009648773
 20
148.9365558912387
 30
0.0
 10
122.4455519554626
 20
148.9365558912387
 30
0.0
 10
122.4078067560005
 20
148.9365558912387
 30
0.0
 10
122.3301536547967
 20
148.9365558912387
 30
0.0
 10
122.2902458917636
 20
148.9365558912387
 30
0.0
 10
122.2082786349164
 20
148.9365558912387
 30
0.0
 10
122.166226023477
 20
148.9365558912387
 30
0.0
 10
122.0799325821976
 20
148.9365558912387
 30
0.0
 10
122.0357106393823
 20
148.9365558912387
 30
0.0
 10
121.9010738650779
 20
148.9365558912387
 30
0.0
 10
121.8083371420404
 20
148.9365558912387
 30
0.0
 10
121.61707002793
 20
148.9365558912387
 30
0.0
 10
121.5185145441528
 20
148.9365558912387
 30
0.0
 10
121.3664210702988
 20
148.9365558912387
 30
0.0
 10
121.3149404754684
 20
148.9365558912387
 30
0.0
 10
121.2106424121614
 20
148.9365558912387
 30
0.0
 10
121.1575525856121
 20
148.9365558912387
 30
0.0
 10
121.0508338763246
 20
148.9365558912387
 30
0.0
 10
120.9972504006862
 20
148.9365558912387
 30
0.0
 10
120.8895538618667
 20
148.9365558912387
 30
0.0
 10
120.8354562039814
 20
148.9365558912387
 30
0.0
 10
120.6724252448404
 20
148.9365558912387
 30
0.0
 10
120.5627558340251
 20
148.9365558912387
 30
0.0
 10
120.3414540242617
 20
148.9365558912387
 30
0.0
 10
120.2298212022504
 20
148.9365558912387
 30
0.0
 10
120.1171737095957
 20
148.9365558912387
 30
0.0
  0
LINE
  5
ED
330
1F
100
AcDbEntity
  8
0
  6
Continuous
 62
     7
370
    25
100
AcDbLine
 10
120.1171737096
 20
149.9436052367
 30
0.0
 11
120.1171737096
 21
148.9365558912
 31
0.0
  0
SPLINE
  5
EE
330
1F
100
AcDbEntity
  8
0
  6
Continuous
 62
     7
370
    25
100
AcDbSpline
210
0.0
220
0.0
230
1.0
 70
     8
 71
     3
 72
    14
 73
    10
 74
     0
 42
0.00000001
 43
0.00000001
 40
0.0
 40
0.0
 40
0.0
 40
0.0
 40
0.25
 40
0.25
 40
0.5
 40
0.5
 40
0.75
 40
0.75
 40
1.0
 40
1.0
 40
1.0
 40
1.0
 10
45.88282629040432
 20
166.0563947633434
 30
0.0
 10
45.58498057279373
 20
166.0719945874922
 30
0.0
 10
45.29254739062964
 20
166.0870626744541
 30
0.0
 10
44.71811119383185
 20
166.1161695648392
 30
0.0
 10
44.43310660253988
 20
166.1303729963109
 30
0.0
 10
43.89779411139775
 20
166.1566346277845
 30
0.0
 10
43.64543337201695
 20
166.1688156022921
 30
0.0
 10
43.17216732716391
 20
166.1914363834625
 30
0.0
 10
42.9548200139939
 20
166.2016407112604
 30
0.0
 10
42.76193003856683
 20
166.2106308210304
 30
0.0
  0
LINE
  5
EF
330
1F
100
AcDbEntity
  8
0
  6
Continuous
 62
     7
370
    25
100
AcDbLine
 10
42.7619300386
 20
166.210630821
 30
0.0
 11
43.5177990351
 21
167.0634441088
 31
0.0
  0
SPLINE
  5
F0
330
1F
100
AcDbEntity
  8
0
  6
Continuous
 62
     7
370
    25
100
AcDbSpline
210
0.0
220
0.0
230
1.0
 70
    24
 71
     3
 72
    30
 73
    26
 74
     0
 42
0.00000001
 43
0.00000001
 40
0.0
 40
0.0
 40
0.0
 40
0.0
 40
0.0001654330549295
 40
0.0001654330549295
 40
0.000330866109859
 40
0.000330866109859
 40
0.0004962991647885
 40
0.0004962991647885
 40
0.000661732219718
 40
0.000661732219718
 40
0.000992598329577
 40
0.000992598329577
 40
0.001323464439436
 40
0.001323464439436
 40
0.0014888974943655
 40
0.0014888974943655
 40
0.001654330549295
 40
0.001654330549295
 40
0.0018197636042245
 40
0.0018197636042245
 40
0.001985196659154
 40
0.001985196659154
 40
0.002316062769013
 40
0.002316062769013
 40
0.002646928878872
 40
0.002646928878872
 40
0.002646928878872
 40
0.002646928878872
 10
43.51779903512277
 20
167.0634441087613
 30
0.0
 10
43.55444804453747
 20
167.0634441087613
 30
0.0
 10
43.5921932439995
 20
167.0634441087613
 30
0.0
 10
43.66984634520333
 20
167.0634441087613
 30
0.0
 10
43.70975410823646
 20
167.0634441087613
 30
0.0
 10
43.79172136508363
 20
167.0634441087613
 30
0.0
 10
43.83377397652301
 20
167.0634441087613
 30
0.0
 10
43.92006741780242
 20
167.0634441087613
 30
0.0
 10
43.96428936061773
 20
167.0634441087613
 30
0.0
 10
44.0989261349221
 20
167.0634441087613
 30
0.0
 10
44.19166285795963
 20
167.0634441087613
 30
0.0
 10
44.3829299720701
 20
167.0634441087613
 30
0.0
 10
44.48148545584723
 20
167.0634441087613
 30
0.0
 10
44.63357892970121
 20
167.0634441087613
 30
0.0
 10
44.68505952453157
 20
167.0634441087613
 30
0.0
 10
44.78935758783862
 20
167.0634441087613
 30
0.0
 10
44.84244741438791
 20
167.0634441087613
 30
0.0
 10
44.94916612367538
 20
167.0634441087613
 30
0.0
 10
45.0027495993138
 20
167.0634441087613
 30
0.0
 10
45.11044613813333
 20
167.0634441087613
 30
0.0
 10
45.16454379601858
 20
167.0634441087613
 30
0.0
 10
45.32757475515962
 20
167.0634441087613
 30
0.0
 10
45.43724416597487
 20
167.0634441087613
 30
0.0
 10
45.65854597573831
 20
167.0634441087613
 30
0.0
 10
45.77017879774954
 20
167.0634441087613
 30
0.0
 10
45.88282629040432
 20
167.0634441087613
 30
0.0
  0
LINE
  5
F1
330
1F
100
AcDbEntity
  8
0
  6
Continuous
 62
     7
370
    25
100
AcDbLine
 10
45.8828262904
 20
166.0563947633
 30
0.0
 11
45.8828262904
 21
167.0634441088
 31
0.0
  0
SPLINE
  5
F2
330
1F
100
AcDbEntity
  8
0
  6
Continuous
 62
     7
370
    25
100
AcDbSpline
210
0.0
220
0.0
230
1.0
 70
     8
 71
     3
 72
    14
 73
    10
 74
     0
 42
0.00000001
 43
0.00000001
 40
0.0
 40
0.0
 40
0.0
 40
0.0
 40
0.25
 40
0.25
 40
0.5
 40
0.5
 40
0.75
 40
0.75
 40
1.0
 40
1.0
 40
1.0
 40
1.0
 10
42.7619313050916
 20
149.7893692380686
 30
0.0
 10
42.95478552928807
 20
149.7983682630727
 30
0.0
 10
43.1688986071126
 20
149.808426702463
 30
0.0
 10
43.63767480023446
 20
149.8307954182702
 30
0.0
 10
43.89548750900303
 20
149.8432426335211
 30
0.0
 10
44.43042709442093
 20
149.8695047751081
 30
0.0
 10
44.70906028882399
 20
149.8833816016652
 30
0.0
 10
45.2891063363146
 20
149.9127533212769
 30
0.0
 10
45.58504184218208
 20
149.9280082050313
 30
0.0
 10
45.88282629040432
 20
149.9436052366566
 30
0.0
  0
LINE
  5
F3
330
1F
100
AcDbEntity
  8
0
  6
Continuous
 62
     7
370
    25
100
AcDbLine
 10
120.1171737096
 20
166.0563947633
 30
0.0
 11
120.1171737096
 21
167.0634441088
 31
0.0
  0
SPLINE
  5
F4
330
1F
100
AcDbEntity
  8
0
  6
Continuous
 62
     7
370
    25
100
AcDbSpline
210
0.0
220
0.0
230
1.0
 70
    24
 71
     3
 72
    30
 73
    26
 74
     0
 42
0.00000001
 43
0.00000001
 40
0.0
 40
0.0
 40
0.0
 40
0.0
 40
0.0003307976773668
 40
0.0003307976773668
 40
0.0004961965160502
 40
0.0004961965160502
 40
0.0006615953547336
 40
0.0006615953547336
 40
0.000826994193417
 40
0.000826994193417
 40
0.0009923930321004
 40
0.0009923930321004
 40
0.0013231907094672
 40
0.0013231907094672
 40
0.0014885895481506
 40
0.0014885895481506
 40
0.001653988386834
 40
0.001653988386834
 40
0.0018193872255174
 40
0.0018193872255174
 40
0.0019847860642008
 40
0.0019847860642008
 40
0.0023155837415677
 40
0.0023155837415677
 40
0.0026463814189345
 40
0.0026463814189345
 40
0.0026463814189345
 40
0.0026463814189345
 10
120.1171737095957
 20
167.0634441087614
 30
0.0
 10
120.2298017826032
 20
167.0634441087614
 30
0.0
 10
120.3418900730175
 20
167.0634441087614
 30
0.0
 10
120.5090687413005
 20
167.0634441087614
 30
0.0
 10
120.5647078651293
 20
167.0634441087614
 30
0.0
 10
120.675580316087
 20
167.0634441087614
 30
0.0
 10
120.7310404189111
 20
167.0634441087614
 30
0.0
 10
120.8407228074454
 20
167.0634441087614
 30
0.0
 10
120.8950430492393
 20
167.0634441087614
 30
0.0
 10
121.0026335361219
 20
167.0634441087614
 30
0.0
 10
121.0559079805277
 20
167.0634441087614
 30
0.0
 10
121.2141812627052
 20
167.0634441087614
 30
0.0
 10
121.31764622346
 20
167.0634441087614
 30
0.0
 10
121.4696801911693
 20
167.0634441087614
 30
0.0
 10
121.519862823902
 20
167.0634441087614
 30
0.0
 10
121.6190917511211
 20
167.0634441087614
 30
0.0
 10
121.6683011876687
 20
167.0634441087614
 30
0.0
 10
121.7650859748403
 20
167.0634441087614
 30
0.0
 10
121.8124262354873
 20
167.0634441087614
 30
0.0
 10
121.9052269556266
 20
167.0634441087614
 30
0.0
 10
121.9506557851953
 20
167.0634441087614
 30
0.0
 10
122.0840545063354
 20
167.0634441087614
 30
0.0
 10
122.1691444705903
 20
167.0634441087614
 30
0.0
 10
122.3315729765704
 20
167.0634441087614
 30
0.0
 10
122.4089103914886
 20
167.0634441087614
 30
0.0
 10
122.4822009648772
 20
167.0634441087614
 30
0.0
  0
LINE
  5
F5
330
1F
100
AcDbEntity
  8
0
  6
Continuous
 62
     7
370
    25
100
AcDbLine
 10
123.2380668715
 20
166.2106331912
 30
0.0
 11
122.482200683
 21
167.0634441088
 31
0.0
  0
LINE
  5
F6
330
1F
100
AcDbEntity
  8
0
  6
Continuous
 62
     7
370
    25
100
AcDbLine
 10
45.8828262904
 20
149.9436052367
 30
0.0
 11
45.8828262904
 21
148.9365558912
 31
0.0
  0
SPLINE
  5
F7
330
1F
100
AcDbEntity
  8
0
  6
Continuous
 62
     7
370
    25
100
AcDbSpline
210
0.0
220
0.0
230
1.0
 70
    24
 71
     3
 72
    30
 73
    26
 74
     0
 42
0.00000001
 43
0.00000001
 40
0.0
 40
0.0
 40
0.0
 40
0.0
 40
0.0003307976773668
 40
0.0003307976773668
 40
0.0004961965160502
 40
0.0004961965160502
 40
0.0006615953547336
 40
0.0006615953547336
 40
0.000826994193417
 40
0.000826994193417
 40
0.0009923930321004
 40
0.0009923930321004
 40
0.0013231907094672
 40
0.0013231907094672
 40
0.0014885895481506
 40
0.0014885895481506
 40
0.001653988386834
 40
0.001653988386834
 40
0.0018193872255174
 40
0.0018193872255174
 40
0.0019847860642008
 40
0.0019847860642008
 40
0.0023155837415676
 40
0.0023155837415676
 40
0.0026463814189344
 40
0.0026463814189344
 40
0.0026463814189344
 40
0.0026463814189344
 10
45.88282629040432
 20
148.9365558912387
 30
0.0
 10
45.77019821739677
 20
148.9365558912387
 30
0.0
 10
45.65810992698248
 20
148.9365558912387
 30
0.0
 10
45.4909312586995
 20
148.9365558912387
 30
0.0
 10
45.4352921348707
 20
148.9365558912387
 30
0.0
 10
45.32441968391295
 20
148.9365558912387
 30
0.0
 10
45.26895958108892
 20
148.9365558912387
 30
0.0
 10
45.15927719255459
 20
148.9365558912387
 30
0.0
 10
45.10495695076068
 20
148.9365558912387
 30
0.0
 10
44.99736646387804
 20
148.9365558912387
 30
0.0
 10
44.9440920194723
 20
148.9365558912387
 30
0.0
 10
44.78581873729471
 20
148.9365558912387
 30
0.0
 10
44.68235377653998
 20
148.9365558912387
 30
0.0
 10
44.53031980883066
 20
148.9365558912387
 30
0.0
 10
44.48013717609793
 20
148.9365558912387
 30
0.0
 10
44.38090824887885
 20
148.9365558912387
 30
0.0
 10
44.33169881233127
 20
148.9365558912387
 30
0.0
 10
44.23491402515961
 20
148.9365558912387
 30
0.0
 10
44.18757376451263
 20
148.9365558912387
 30
0.0
 10
44.09477304437337
 20
148.9365558912387
 30
0.0
 10
44.04934421480468
 20
148.9365558912387
 30
0.0
 10
43.9159454936646
 20
148.9365558912387
 30
0.0
 10
43.83085552940958
 20
148.9365558912387
 30
0.0
 10
43.66842702342962
 20
148.9365558912387
 30
0.0
 10
43.59108960851133
 20
148.9365558912387
 30
0.0
 10
43.51779903512276
 20
148.9365558912387
 30
0.0
  0
LINE
  5
F8
330
1F
100
AcDbEntity
  8
0
  6
Continuous
 62
     7
370
    25
100
AcDbLine
 10
42.7619331285
 20
149.7893668088
 30
0.0
 11
43.517799317
 21
148.9365558912
 31
0.0
  0
LINE
  5
F9
330
1F
100
AcDbEntity
  8
0
  6
Continuous
 62
     7
370
    25
100
AcDbLine
 10
120.1171737096
 20
166.0563947633
 30
0.0
 11
45.8828262904
 21
166.0563947633
 31
0.0
  0
LINE
  5
FA
330
1F
100
AcDbEntity
  8
0
  6
Continuous
 62
     7
370
    25
100
AcDbLine
 10
45.8828262904
 20
167.0634441088
 30
0.0
 11
120.1171737096
 21
167.0634441088
 31
0.0
  0
LINE
  5
FB
330
1F
100
AcDbEntity
  8
0
  6
Continuous
 62
     7
370
    25
100
AcDbLine
 10
45.8828262904
 20
149.9436052367
 30
0.0
 11
120.1171737096
 21
149.9436052367
 31
0.0
  0
LINE
  5
FC
330
1F
100
AcDbEntity
  8
0
  6
Continuous
 62
     7
370
    25
100
AcDbLine
 10
120.1171737096
 20
148.9365558912
 30
0.0
 11
45.8828262904
 21
148.9365558912
 31
0.0
  0
SPLINE
  5
FD
330
1F
100
AcDbEntity
  8
0
  6
Continuous
 62
     7
370
    25
100
AcDbSpline
210
0.0
220
0.0
230
1.0
 70
     8
 71
     3
 72
    14
 73
    10
 74
     0
 42
0.00000001
 43
0.00000001
 40
0.0
 40
0.0
 40
0.0
 40
0.0
 40
0.0026620003745799
 40
0.0026620003745799
 40
0.0026620003745799
 40
0.0079608670333491
 40
0.0079608670333491
 40
0.0079608670333491
 40
0.0132597430006488
 40
0.0132597430006488
 40
0.0132597430006488
 40
0.0132597430006488
 10
42.76193003856677
 20
166.2106308210304
 30
0.0
 10
42.18449938074702
 20
166.2084567242488
 30
0.0
 10
41.60737714388002
 20
166.2063843343988
 30
0.0
 10
41.03052534727216
 20
166.2043933681672
 30
0.0
 10
39.88226849768485
 20
166.2004302347832
 30
0.0
 10
38.73507797280704
 20
166.1967842561988
 30
0.0
 10
37.58872511294081
 20
166.1933754868581
 30
0.0
 10
36.44237016695654
 20
166.1899667113142
 30
0.0
 10
35.29685422791294
 20
166.1867970432674
 30
0.0
 10
34.15201441076908
 20
166.1838639979527
 30
0.0
  0
SPLINE
  5
FE
330
1F
100
AcDbEntity
  8
0
  6
Continuous
 62
     7
370
    25
100
AcDbSpline
210
0.0
220
0.0
230
1.0
 70
    24
 71
     3
 72
    11
 73
     7
 74
     0
 42
0.00000001
 43
0.00000001
 40
0.0
 40
0.0
 40
0.0
 40
0.0
 40
0.0000201019853199
 40
0.0000201019853199
 40
0.0000201019853199
 40
1.00002010198532
 40
1.00002010198532
 40
1.00002010198532
 40
1.00002010198532
 10
34.15200066655905
 20
166.1838464015793
 30
0.0
 10
34.1520057646972
 20
166.1838522953475
 30
0.0
 10
34.15201086283538
 20
166.1838581891158
 30
0.0
 10
34.15201596097354
 20
166.183864082884
 30
0.0
 10
34.40562962575559
 20
166.4770574248431
 30
0.0
 10
34.65924329053764
 20
166.7702507668022
 30
0.0
 10
34.91285695531968
 20
167.0634441087613
 30
0.0
  0
SPLINE
  5
FF
330
1F
100
AcDbEntity
  8
0
  6
Continuous
 62
     7
370
    25
100
AcDbSpline
210
0.0
220
0.0
230
1.0
 70
    24
 71
     3
 72
    18
 73
    14
 74
     0
 42
0.00000001
 43
0.00000001
 40
0.0
 40
0.0
 40
0.0
 40
0.0
 40
0.2500000000000078
 40
0.3750000000000117
 40
0.4375000000000142
 40
0.4687500000000154
 40
0.4843750000000165
 40
0.4921875000000172
 40
0.4960937500000174
 40
0.4960937500000174
 40
0.5000000000000178
 40
0.5000000000000178
 40
1.0
 40
1.0
 40
1.0
 40
1.0
 10
34.91285744468389
 20
167.0634441087613
 30
0.0
 10
35.6694188143203
 20
167.0634441087613
 30
0.0
 10
36.77414274333385
 20
167.0634441087613
 30
0.0
 10
38.01028060766131
 20
167.0634441087613
 30
0.0
 10
38.61517285994451
 20
167.0634441087613
 30
0.0
 10
38.91432481611611
 20
167.0634441087613
 30
0.0
 10
39.06307725170932
 20
167.0634441087613
 30
0.0
 10
39.13724758388281
 20
167.0634441087613
 30
0.0
 10
39.16899075075217
 20
167.0634441087613
 30
0.0
 10
39.19014305792113
 20
167.0634441087613
 30
0.0
 10
39.19960559110376
 20
167.0634441087613
 30
0.0
 10
40.70568934639115
 20
167.0634441087613
 30
0.0
 10
42.141195471774
 20
167.0634441087613
 30
0.0
 10
43.51779903512276
 20
167.0634441087613
 30
0.0
  0
SPLINE
  5
100
330
1F
100
AcDbEntity
  8
0
  6
Continuous
 62
     7
370
    25
100
AcDbSpline
210
0.0
220
0.0
230
1.0
 70
     8
 71
     3
 72
    14
 73
    10
 74
     0
 42
0.00000001
 43
0.00000001
 40
0.0
 40
0.0
 40
0.0
 40
0.0
 40
0.002688620205101
 40
0.002688620205101
 40
0.002688620205101
 40
0.0079741756482625
 40
0.0079741756482625
 40
0.0079741756482625
 40
0.013259740803594
 40
0.013259740803594
 40
0.013259740803594
 40
0.013259740803594
 10
131.8479830734473
 20
166.1838640043981
 30
0.0
 10
131.2670976395925
 20
166.1853522161125
 30
0.0
 10
130.6860373283816
 20
166.1869023554731
 30
0.0
 10
130.1047825371395
 20
166.1885127197058
 30
0.0
 10
128.9620945696463
 20
166.1916785324606
 30
0.0
 10
127.8186587970256
 20
166.1950722476667
 30
0.0
 10
126.674283916781
 20
166.1987317038287
 30
0.0
 10
125.5299070324679
 20
166.2023911663993
 30
0.0
 10
124.3845927481037
 20
166.2063140221981
 30
0.0
 10
123.2380690032664
 20
166.210630824638
 30
0.0
  0
SPLINE
  5
101
330
1F
100
AcDbEntity
  8
0
  6
Continuous
 62
     7
370
    25
100
AcDbSpline
210
0.0
220
0.0
230
1.0
 70
     8
 71
     3
 72
    14
 73
    10
 74
     0
 42
0.00000001
 43
0.00000001
 40
0.0
 40
0.0
 40
0.0
 40
0.0
 40
0.0026620003745799
 40
0.0026620003745799
 40
0.0026620003745799
 40
0.0079608670333491
 40
0.0079608670333491
 40
0.0079608670333491
 40
0.0132597430006488
 40
0.0132597430006488
 40
0.0132597430006488
 40
0.0132597430006488
 10
123.2380699614332
 20
149.7893691789696
 30
0.0
 10
123.815500619253
 20
149.7915432757513
 30
0.0
 10
124.39262285612
 20
149.7936156656012
 30
0.0
 10
124.9694746527278
 20
149.7956066318328
 30
0.0
 10
126.1177315023151
 20
149.7995697652168
 30
0.0
 10
127.264922027193
 20
149.8032157438012
 30
0.0
 10
128.4112748870592
 20
149.8066245131419
 30
0.0
 10
129.5576298330435
 20
149.8100332886858
 30
0.0
 10
130.7031457720871
 20
149.8132029567326
 30
0.0
 10
131.8479855892309
 20
149.8161360020474
 30
0.0
  0
SPLINE
  5
102
330
1F
100
AcDbEntity
  8
0
  6
Continuous
 62
     7
370
    25
100
AcDbSpline
210
0.0
220
0.0
230
1.0
 70
     8
 71
     3
 72
    14
 73
    10
 74
     0
 42
0.00000001
 43
0.00000001
 40
0.0
 40
0.0
 40
0.0
 40
0.0
 40
0.002688620205101
 40
0.002688620205101
 40
0.002688620205101
 40
0.0079741756482625
 40
0.0079741756482625
 40
0.0079741756482625
 40
0.013259740803594
 40
0.013259740803594
 40
0.013259740803594
 40
0.013259740803594
 10
34.15201692655269
 20
149.8161359956019
 30
0.0
 10
34.73290236040752
 20
149.8146477838875
 30
0.0
 10
35.31396267161843
 20
149.8130976445269
 30
0.0
 10
35.89521746286056
 20
149.8114872802943
 30
0.0
 10
37.0379054303537
 20
149.8083214675394
 30
0.0
 10
38.1813412029744
 20
149.8049277523334
 30
0.0
 10
39.325716083219
 20
149.8012682961713
 30
0.0
 10
40.47009296753208
 20
149.7976088336007
 30
0.0
 10
41.61540725189624
 20
149.7936859778019
 30
0.0
 10
42.76193099673352
 20
149.789369175362
 30
0.0
  0
SPLINE
  5
103
330
1F
100
AcDbEntity
  8
0
  6
Continuous
 62
     7
370
    25
100
AcDbSpline
210
0.0
220
0.0
230
1.0
 70
    24
 71
     3
 72
    11
 73
     7
 74
     0
 42
0.00000001
 43
0.00000001
 40
0.0
 40
0.0
 40
0.0
 40
0.0
 40
0.0000201019852959
 40
0.0000201019852959
 40
0.0000201019852959
 40
1.000020101985296
 40
1.000020101985296
 40
1.000020101985296
 40
1.000020101985296
 10
131.8479993334409
 20
149.8161535984208
 30
0.0
 10
131.8479942353028
 20
149.8161477046525
 30
0.0
 10
131.8479891371646
 20
149.8161418108843
 30
0.0
 10
131.8479840390264
 20
149.816135917116
 30
0.0
 10
131.5943703742444
 20
149.5229425751569
 30
0.0
 10
131.3407567094623
 20
149.2297492331978
 30
0.0
 10
131.0871430446803
 20
148.9365558912387
 30
0.0
  0
SPLINE
  5
104
330
1F
100
AcDbEntity
  8
0
  6
Continuous
 62
     7
370
    25
100
AcDbSpline
210
0.0
220
0.0
230
1.0
 70
    24
 71
     3
 72
    18
 73
    14
 74
     0
 42
0.00000001
 43
0.00000001
 40
0.0
 40
0.0
 40
0.0
 40
0.0
 40
0.2500000000000093
 40
0.3750000000000144
 40
0.4375000000000164
 40
0.4687500000000175
 40
0.484375000000018
 40
0.4921875000000183
 40
0.4960937500000184
 40
0.4960937500000184
 40
0.5000000000000187
 40
0.5000000000000187
 40
1.0
 40
1.0
 40
1.0
 40
1.0
 10
131.0871425553161
 20
148.9365558912387
 30
0.0
 10
130.3305811776194
 20
148.9365558912387
 30
0.0
 10
129.2258572425606
 20
148.9365558912387
 30
0.0
 10
127.9897193817597
 20
148.9365558912387
 30
0.0
 10
127.3848271338843
 20
148.9365558912387
 30
0.0
 10
127.085675180578
 20
148.9365558912387
 30
0.0
 10
126.9369227465827
 20
148.9365558912387
 30
0.0
 10
126.8627524152495
 20
148.9365558912387
 30
0.0
 10
126.831009248749
 20
148.9365558912387
 30
0.0
 10
126.809856941828
 20
148.9365558912387
 30
0.0
 10
126.8003944090005
 20
148.9365558912387
 30
0.0
 10
125.2943106402701
 20
148.9365558912387
 30
0.0
 10
123.8588045148872
 20
148.9365558912387
 30
0.0
 10
122.4822009648772
 20
148.9365558912387
 30
0.0
  0
LINE
  5
105
330
1F
100
AcDbEntity
  8
0
  6
Continuous
 62
     7
370
    25
100
AcDbLine
 10
131.8479830734
 20
166.1838640044
 30
0.0
 11
131.0871425553
 21
167.0634441088
 31
0.0
  0
SPLINE
  5
106
330
1F
100
AcDbEntity
  8
0
  6
Continuous
 62
     7
370
    25
100
AcDbSpline
210
0.0
220
0.0
230
1.0
 70
    24
 71
     3
 72
    18
 73
    14
 74
     0
 42
0.00000001
 43
0.00000001
 40
0.0
 40
0.0
 40
0.0
 40
0.0
 40
0.2500000000000154
 40
0.3750000000000237
 40
0.4375000000000273
 40
0.4687500000000291
 40
0.4843750000000301
 40
0.49218750000003
 40
0.49609375000003
 40
0.49609375000003
 40
0.50000000000003
 40
0.50000000000003
 40
1.0
 40
1.0
 40
1.0
 40
1.0
 10
122.4822009648772
 20
167.0634441087613
 30
0.0
 10
123.1703934738504
 20
167.0634441087613
 30
0.0
 10
124.2248526525987
 20
167.0634441087613
 30
0.0
 10
125.4938532545602
 20
167.0634441087613
 30
0.0
 10
126.1380531122298
 20
167.0634441087613
 30
0.0
 10
126.4625779302366
 20
167.0634441087613
 30
0.0
 10
126.6254465615332
 20
167.0634441087613
 30
0.0
 10
126.7070324327547
 20
167.0634441087613
 30
0.0
 10
126.7420302823297
 20
167.0634441087613
 30
0.0
 10
126.7653693989784
 20
167.0634441087613
 30
0.0
 10
126.7781550551639
 20
167.0634441087613
 30
0.0
 10
128.1409479312649
 20
167.0634441087613
 30
0.0
 10
129.5737556693618
 20
167.0634441087613
 30
0.0
 10
131.0871425553161
 20
167.0634441087613
 30
0.0
  0
LINE
  5
107
330
1F
100
AcDbEntity
  8
0
  6
Continuous
 62
     7
370
    25
100
AcDbLine
 10
34.1520169266
 20
149.8161359956
 30
0.0
 11
34.9128574447
 21
148.9365558912
 31
0.0
  0
SPLINE
  5
108
330
1F
100
AcDbEntity
  8
0
  6
Continuous
 62
     7
370
    25
100
AcDbSpline
210
0.0
220
0.0
230
1.0
 70
    24
 71
     3
 72
    18
 73
    14
 74
     0
 42
0.00000001
 43
0.00000001
 40
0.0
 40
0.0
 40
0.0
 40
0.0
 40
0.2499999999999974
 40
0.3749999999999967
 40
0.4374999999999967
 40
0.4687499999999968
 40
0.4843749999999968
 40
0.4921874999999968
 40
0.4960937499999968
 40
0.4960937499999968
 40
0.4999999999999967
 40
0.4999999999999967
 40
1.0
 40
1.0
 40
1.0
 40
1.0
 10
43.51779903512276
 20
148.9365558912387
 30
0.0
 10
42.82960652419666
 20
148.9365558912387
 30
0.0
 10
41.77514734398356
 20
148.9365558912387
 30
0.0
 10
40.50614674287635
 20
148.9365558912387
 30
0.0
 10
39.86194688627477
 20
148.9365558912387
 30
0.0
 10
39.53742206896204
 20
148.9365558912387
 30
0.0
 10
39.37455343805259
 20
148.9365558912387
 30
0.0
 10
39.29296756703463
 20
148.9365558912387
 30
0.0
 10
39.25796971754905
 20
148.9365558912387
 30
0.0
 10
39.23463060096053
 20
148.9365558912387
 30
0.0
 10
39.22184494487264
 20
148.9365558912387
 30
0.0
 10
37.85905206401211
 20
148.9365558912387
 30
0.0
 10
36.42624432591531
 20
148.9365558912387
 30
0.0
 10
34.91285744468389
 20
148.9365558912387
 30
0.0
  0
SPLINE
  5
109
330
1F
100
AcDbEntity
  8
0
  6
Continuous
 62
     7
370
    25
100
AcDbSpline
210
0.0
220
0.0
230
1.0
 70
     8
 71
     3
 72
    10
 73
     6
 74
     0
 42
0.00000001
 43
0.00000001
 40
0.0
 40
0.0
 40
0.0
 40
0.0
 40
0.5
 40
0.5
 40
1.0
 40
1.0
 40
1.0
 40
1.0
 10
34.15201567129974
 20
166.1838641061274
 30
0.0
 10
34.00054858399183
 20
166.1961394349256
 30
0.0
 10
33.8839887281875
 20
166.2055991630133
 30
0.0
 10
33.72214256339757
 20
166.2186540817692
 30
0.0
 10
33.68063820053125
 20
166.2219554665919
 30
0.0
 10
33.68064459665133
 20
166.2219938335046
 30
0.0
  0
LINE
  5
10A
330
1F
100
AcDbEntity
  8
0
  6
Continuous
 62
     7
370
    25
100
AcDbLine
 10
33.6806445967
 20
166.2219938335
 30
0.0
 11
34.6739850882
 21
167.0634441088
 31
0.0
  0
SPLINE
  5
10B
330
1F
100
AcDbEntity
  8
0
  6
Continuous
 62
     7
370
    25
100
AcDbSpline
210
0.0
220
0.0
230
1.0
 70
    24
 71
     3
 72
    18
 73
    14
 74
     0
 42
0.00000001
 43
0.00000001
 40
0.0
 40
0.0
 40
0.0
 40
0.0
 40
0.0001742333242819
 40
0.0001742333242819
 40
0.0002613499864229
 40
0.0002613499864229
 40
0.0003484666485638
 40
0.0003484666485638
 40
0.0004355833107048
 40
0.0004355833107048
 40
0.0005226999728458
 40
0.0005226999728458
 40
0.0006969332971277
 40
0.0006969332971277
 40
0.0006969332971277
 40
0.0006969332971277
 10
34.67398508815891
 20
167.0634441087613
 30
0.0
 10
34.67399411846093
 20
167.0634441087613
 30
0.0
 10
34.67925807495951
 20
167.0634441087613
 30
0.0
 10
34.69467388916033
 20
167.0634441087613
 30
0.0
 10
34.70107082998479
 20
167.0634441087613
 30
0.0
 10
34.7164030353145
 20
167.0634441087613
 30
0.0
 10
34.72532609436094
 20
167.0634441087613
 30
0.0
 10
34.74583769487966
 20
167.0634441087613
 30
0.0
 10
34.75732659251803
 20
167.0634441087613
 30
0.0
 10
34.7824609579292
 20
167.0634441087613
 30
0.0
 10
34.79615172717784
 20
167.0634441087613
 30
0.0
 10
34.84049170758168
 20
167.0634441087613
 30
0.0
 10
34.87442480184431
 20
167.0634441087613
 30
0.0
 10
34.91285744468389
 20
167.0634441087613
 30
0.0
  0
SPLINE
  5
10C
330
1F
100
AcDbEntity
  8
0
  6
Continuous
 62
     7
370
    25
100
AcDbSpline
210
0.0
220
0.0
230
1.0
 70
     8
 71
     3
 72
    10
 73
     6
 74
     0
 42
0.00000001
 43
0.00000001
 40
0.0
 40
0.0
 40
0.0
 40
0.0
 40
0.5
 40
0.5
 40
1.0
 40
1.0
 40
1.0
 40
1.0
 10
131.8479843287002
 20
149.8161358938727
 30
0.0
 10
131.9994355742903
 20
149.8038618489329
 30
0.0
 10
132.1161006578067
 20
149.7943935431558
 30
0.0
 10
132.277854871104
 20
149.7813462089471
 30
0.0
 10
132.319361798796
 20
149.7780445293724
 30
0.0
 10
132.3193554033487
 20
149.7780061664954
 30
0.0
  0
LINE
  5
10D
330
1F
100
AcDbEntity
  8
0
  6
Continuous
 62
     7
370
    25
100
AcDbLine
 10
132.3193554033
 20
149.7780061665
 30
0.0
 11
131.3260149118
 21
148.9365558912
 31
0.0
  0
SPLINE
  5
10E
330
1F
100
AcDbEntity
  8
0
  6
Continuous
 62
     7
370
    25
100
AcDbSpline
210
0.0
220
0.0
230
1.0
 70
    24
 71
     3
 72
    18
 73
    14
 74
     0
 42
0.00000001
 43
0.00000001
 40
0.0
 40
0.0
 40
0.0
 40
0.0
 40
0.0001742333242819
 40
0.0001742333242819
 40
0.0002613499864229
 40
0.0002613499864229
 40
0.0003484666485638
 40
0.0003484666485638
 40
0.0004355833107048
 40
0.0004355833107048
 40
0.0005226999728458
 40
0.0005226999728458
 40
0.0006969332971277
 40
0.0006969332971277
 40
0.0006969332971277
 40
0.0006969332971277
 10
131.3260149118412
 20
148.9365558912387
 30
0.0
 10
131.326005881539
 20
148.9365558912387
 30
0.0
 10
131.3207419250406
 20
148.9365558912387
 30
0.0
 10
131.3053261108397
 20
148.9365558912387
 30
0.0
 10
131.2989291700153
 20
148.9365558912387
 30
0.0
 10
131.2835969646856
 20
148.9365558912387
 30
0.0
 10
131.2746739056391
 20
148.9365558912387
 30
0.0
 10
131.2541623051204
 20
148.9365558912387
 30
0.0
 10
131.242673407482
 20
148.9365558912387
 30
0.0
 10
131.2175390420709
 20
148.9365558912387
 30
0.0
 10
131.2038482728222
 20
148.9365558912387
 30
0.0
 10
131.1595082924184
 20
148.9365558912387
 30
0.0
 10
131.1255751981557
 20
148.9365558912387
 30
0.0
 10
131.0871425553162
 20
148.9365558912387
 30
0.0
  0
SPLINE
  5
10F
330
1F
100
AcDbEntity
  8
0
  6
Continuous
 62
     7
370
    25
100
AcDbSpline
210
0.0
220
0.0
230
1.0
 70
     8
 71
     3
 72
    10
 73
     6
 74
     0
 42
0.00000001
 43
0.00000001
 40
0.0
 40
0.0
 40
0.0
 40
0.0
 40
0.5
 40
0.5
 40
1.0
 40
1.0
 40
1.0
 40
1.0
 10
33.68064459665134
 20
149.7780061664954
 30
0.0
 10
33.68063826443264
 20
149.7780441500978
 30
0.0
 10
33.72109183180762
 20
149.7812551230632
 30
0.0
 10
33.88185139082172
 20
149.7942342888454
 30
0.0
 10
34.00056055753269
 20
149.8038618221752
 30
0.0
 10
34.15201692655268
 20
149.8161359956019
 30
0.0
  0
ARC
  5
110
330
1F
100
AcDbEntity
  8
0
  6
Continuous
 62
     7
370
    25
100
AcDbCircle
 10
83.0
 20
158.0
 30
0.0
 40
50.00000000000003
100
AcDbArc
 50
170.5353026799
 51
189.4646973201
  0
SPLINE
  5
111
330
1F
100
AcDbEntity
  8
0
  6
Continuous
 62
     7
370
    25
100
AcDbSpline
210
0.0
220
0.0
230
1.0
 70
     8
 71
     3
 72
    10
 73
     6
 74
     0
 42
0.00000001
 43
0.00000001
 40
0.0
 40
0.0
 40
0.0
 40
0.0
 40
0.5
 40
0.5
 40
1.0
 40
1.0
 40
1.0
 40
1.0
 10
132.3193554033487
 20
166.2219938335046
 30
0.0
 10
132.3193617355674
 20
166.2219558499022
 30
0.0
 10
132.2789081681923
 20
166.218744876937
 30
0.0
 10
132.1181486091783
 20
166.2057657111544
 30
0.0
 10
131.9994394424673
 20
166.1961381778249
 30
0.0
 10
131.8479830734473
 20
166.1838640043981
 30
0.0
  0
ARC
  5
112
330
1F
100
AcDbEntity
  8
0
  6
Continuous
 62
     7
370
    25
100
AcDbCircle
 10
83.0
 20
158.0
 30
0.0
 40
50.00000000000004
100
AcDbArc
 50
350.5353026799
 51
9.4646973201
  0
LINE
  5
113
330
1F
100
AcDbEntity
  8
0
  6
Continuous
 62
     7
370
    25
100
AcDbLine
 10
132.3193554033
 20
166.2219938335
 30
0.0
 11
131.3260149118
 21
167.0634441088
 31
0.0
  0
SPLINE
  5
114
330
1F
100
AcDbEntity
  8
0
  6
Continuous
 62
     7
370
    25
100
AcDbSpline
210
0.0
220
0.0
230
1.0
 70
    24
 71
     3
 72
    18
 73
    14
 74
     0
 42
0.00000001
 43
0.00000001
 40
0.0
 40
0.0
 40
0.0
 40
0.0
 40
0.000174225081063
 40
0.000174225081063
 40
0.0002613376215945
 40
0.0002613376215945
 40
0.000348450162126
 40
0.000348450162126
 40
0.0004355627026575
 40
0.0004355627026575
 40
0.0005226752431891
 40
0.0005226752431891
 40
0.0006969003242521
 40
0.0006969003242521
 40
0.0006969003242521
 40
0.0006969003242521
 10
131.0871425553161
 20
167.0634441087614
 30
0.0
 10
131.125574305611
 20
167.0634441087614
 30
0.0
 10
131.1594518814808
 20
167.0634441087614
 30
0.0
 10
131.2036945024114
 20
167.0634441087614
 30
0.0
 10
131.2173423157874
 20
167.0634441087614
 30
0.0
 10
131.2424103379159
 20
167.0634441087614
 30
0.0
 10
131.2538181434584
 20
167.0634441087614
 30
0.0
 10
131.2743782268902
 20
167.0634441087614
 30
0.0
 10
131.2834125657063
 20
167.0634441087614
 30
0.0
 10
131.2988299711351
 20
167.0634441087614
 30
0.0
 10
131.3052643207692
 20
167.0634441087614
 30
0.0
 10
131.3207383090468
 20
167.0634441087614
 30
0.0
 10
131.3260059715115
 20
167.0634441087614
 30
0.0
 10
131.326014911841
 20
167.0634441087614
 30
0.0
  0
LINE
  5
115
330
1F
100
AcDbEntity
  8
0
  6
Continuous
 62
     7
370
    25
100
AcDbLine
 10
33.6806445967
 20
149.7780061665
 30
0.0
 11
34.6739850882
 21
148.9365558912
 31
0.0
  0
SPLINE
  5
116
330
1F
100
AcDbEntity
  8
0
  6
Continuous
 62
     7
370
    25
100
AcDbSpline
210
0.0
220
0.0
230
1.0
 70
    24
 71
     3
 72
    18
 73
    14
 74
     0
 42
0.00000001
 43
0.00000001
 40
0.0
 40
0.0
 40
0.0
 40
0.0
 40
0.000174225081063
 40
0.000174225081063
 40
0.0002613376215945
 40
0.0002613376215945
 40
0.000348450162126
 40
0.000348450162126
 40
0.0004355627026575
 40
0.0004355627026575
 40
0.000522675243189
 40
0.000522675243189
 40
0.0006969003242521
 40
0.0006969003242521
 40
0.0006969003242521
 40
0.0006969003242521
 10
34.91285744468399
 20
148.9365558912387
 30
0.0
 10
34.87442569438892
 20
148.9365558912387
 30
0.0
 10
34.84054811851914
 20
148.9365558912387
 30
0.0
 10
34.79630549758852
 20
148.9365558912387
 30
0.0
 10
34.78265768421259
 20
148.9365558912387
 30
0.0
 10
34.75758966208399
 20
148.9365558912387
 30
0.0
 10
34.74618185654148
 20
148.9365558912387
 30
0.0
 10
34.72562177310976
 20
148.9365558912387
 30
0.0
 10
34.71658743429366
 20
148.9365558912387
 30
0.0
 10
34.70117002886487
 20
148.9365558912387
 30
0.0
 10
34.69473567923083
 20
148.9365558912387
 30
0.0
 10
34.67926169095318
 20
148.9365558912387
 30
0.0
 10
34.67399402848844
 20
148.9365558912387
 30
0.0
 10
34.67398508815892
 20
148.9365558912387
 30
0.0
  0
LINE
  5
117
330
1F
100
AcDbEntity
  8
0
  6
HIDDEN
 62
     7
370
    18
100
AcDbLine
 10
55.5919144983
 20
149.9436052367
 30
0.0
 11
55.5919144983
 21
148.9365558912
 31
0.0
  0
LINE
  5
118
330
1F
100
AcDbEntity
  8
0
  6
HIDDEN
 62
     7
370
    18
100
AcDbLine
 10
110.4080855017
 20
149.9436052367
 30
0.0
 11
110.4080855017
 21
148.9365558912
 31
0.0
  0
SPLINE
  5
119
330
1F
100
AcDbEntity
  8
0
  6
HIDDEN
 62
     7
370
    18
100
AcDbSpline
210
0.0
220
0.0
230
1.0
 70
     8
 71
     3
 72
    18
 73
    14
 74
     0
 42
0.00000001
 43
0.00000001
 40
0.0
 40
0.0
 40
0.0
 40
0.0
 40
0.2499999999999997
 40
0.2499999999999997
 40
0.3749999999999995
 40
0.3749999999999995
 40
0.4999999999999993
 40
0.4999999999999993
 40
0.6249999999999991
 40
0.6249999999999991
 40
0.749999999999999
 40
0.749999999999999
 40
1.0
 40
1.0
 40
1.0
 40
1.0
 10
49.2133976240987
 20
166.0793328315766
 30
0.0
 10
49.6121914631491
 20
166.0855647864556
 30
0.0
 10
50.0557489583419
 20
166.0926439339781
 30
0.0
 10
50.78518715428
 20
166.1049104614012
 30
0.0
 10
51.04055575278878
 20
166.1092942408413
 30
0.0
 10
51.56499966896305
 20
166.1185249745821
 30
0.0
 10
51.83392837018704
 20
166.1233679308483
 30
0.0
 10
52.38479731671279
 20
166.133560325101
 30
0.0
 10
52.66673851662676
 20
166.1389039377049
 30
0.0
 10
53.24368185368614
 20
166.1501580365555
 30
0.0
 10
53.53878726732707
 20
166.1560737513848
 30
0.0
 10
54.42623333797739
 20
166.1743806300065
 30
0.0
 10
55.02638559942566
 20
166.1874778539369
 30
0.0
 10
55.6350264130787
 20
166.2016381315521
 30
0.0
  0
SPLINE
  5
11A
330
1F
100
AcDbEntity
  8
0
  6
HIDDEN
 62
     7
370
    18
100
AcDbSpline
210
0.0
220
0.0
230
1.0
 70
     8
 71
     3
 72
    18
 73
    14
 74
     0
 42
0.00000001
 43
0.00000001
 40
0.0
 40
0.0
 40
0.0
 40
0.0
 40
0.2500000000000017
 40
0.2500000000000017
 40
0.3750000000000018
 40
0.3750000000000018
 40
0.500000000000002
 40
0.500000000000002
 40
0.7500000000000022
 40
0.7500000000000022
 40
0.8750000000000011
 40
0.8750000000000011
 40
1.0
 40
1.0
 40
1.0
 40
1.0
 10
55.59191449825428
 20
149.9436052366566
 30
0.0
 10
54.98198921995463
 20
149.9640106965116
 30
0.0
 10
54.38258558587892
 20
149.9827961846519
 30
0.0
 10
53.49903823624695
 20
150.0089386985728
 30
0.0
 10
53.20713607282514
 20
150.0173137971821
 30
0.0
 10
52.62878520952383
 20
150.0334758554926
 30
0.0
 10
52.3429126037457
 20
150.0412202798921
 30
0.0
 10
51.51477690572107
 20
150.0631061632402
 30
0.0
 10
50.99447298988355
 20
150.0760589532247
 30
0.0
 10
50.26314860319358
 20
150.0936339395201
 30
0.0
 10
50.02663704379268
 20
150.0991542169107
 30
0.0
 10
49.57865726254878
 20
150.1094399609382
 30
0.0
 10
49.36659305796474
 20
150.11420435762
 30
0.0
 10
49.16667343347815
 20
150.1186250620155
 30
0.0
  0
SPLINE
  5
11B
330
1F
100
AcDbEntity
  8
0
  6
HIDDEN
 62
     7
370
    18
100
AcDbSpline
210
0.0
220
0.0
230
1.0
 70
     8
 71
     3
 72
    18
 73
    14
 74
     0
 42
0.00000001
 43
0.00000001
 40
0.0
 40
0.0
 40
0.0
 40
0.0
 40
0.2500000000000006
 40
0.2500000000000006
 40
0.3750000000000008
 40
0.3750000000000008
 40
0.5000000000000011
 40
0.5000000000000011
 40
0.6250000000000013
 40
0.6250000000000013
 40
0.7500000000000017
 40
0.7500000000000017
 40
1.0
 40
1.0
 40
1.0
 40
1.0
 10
110.3649735869213
 20
166.2016381315521
 30
0.0
 10
110.9736141738787
 20
166.1874991989265
 30
0.0
 10
111.5737567587791
 20
166.1743855928826
 30
0.0
 10
112.4611769860212
 20
166.1560724054743
 30
0.0
 10
112.7562727918819
 20
166.1501663650738
 30
0.0
 10
113.3332350503993
 20
166.1388968860824
 30
0.0
 10
113.6151812832916
 20
166.1335592195627
 30
0.0
 10
114.166053071902
 20
166.1233696732504
 30
0.0
 10
114.4349795744423
 20
166.1185261393269
 30
0.0
 10
114.9594126550632
 20
166.1092940884446
 30
0.0
 10
115.2147877561186
 20
166.1049267953118
 30
0.0
 10
115.9442488121227
 20
166.0926104993198
 30
0.0
 10
116.3878107411954
 20
166.0855396828645
 30
0.0
 10
116.7866014602743
 20
166.0793328458848
 30
0.0
  0
SPLINE
  5
11C
330
1F
100
AcDbEntity
  8
0
  6
HIDDEN
 62
     7
370
    18
100
AcDbSpline
210
0.0
220
0.0
230
1.0
 70
     8
 71
     3
 72
    14
 73
    10
 74
     0
 42
0.00000001
 43
0.00000001
 40
0.0
 40
0.0
 40
0.0
 40
0.0
 40
0.25
 40
0.25
 40
0.5
 40
0.5
 40
0.75
 40
0.75
 40
1.0
 40
1.0
 40
1.0
 40
1.0
 10
116.8333265665218
 20
150.1186250620156
 30
0.0
 10
116.433926472529
 20
150.109771915808
 30
0.0
 10
115.9905405644162
 20
150.0996896474641
 30
0.0
 10
115.0209138437687
 20
150.076468367625
 30
0.0
 10
114.4887044774798
 20
150.0631958980193
 30
0.0
 10
113.3868072452523
 20
150.0340794933014
 30
0.0
 10
112.8134030048605
 20
150.0181655272442
 30
0.0
 10
111.6215660535763
 20
149.982936755884
 30
0.0
 10
111.0174282039678
 20
149.9640083239851
 30
0.0
 10
110.4080855017457
 20
149.9436052366566
 30
0.0
  0
LINE
  5
11D
330
1F
100
AcDbEntity
  8
0
  6
HIDDEN
 62
     7
370
    18
100
AcDbLine
 10
55.6350264131
 20
166.2016381316
 30
0.0
 11
110.3649735869
 21
166.2016381316
 31
0.0
  0
ARC
  5
11E
330
1F
100
AcDbEntity
  8
0
  6
HIDDEN
 62
     7
370
    18
100
AcDbCircle
 10
125.2960725076
 20
158.0
 30
0.0
 40
1.258811681772417
100
AcDbArc
 50
66.4218215218
 51
113.5781784782
  0
ARC
  5
11F
330
1F
100
AcDbEntity
  8
0
  6
HIDDEN
 62
     7
370
    18
100
AcDbCircle
 10
40.7039274924
 20
159.7623363545
 30
0.0
 40
0.5035246727089628
100
AcDbArc
 50
0.0
 51
180.0
  0
ARC
  5
120
330
1F
100
AcDbEntity
  8
0
  6
HIDDEN
 62
     7
370
    18
100
AcDbCircle
 10
40.7039274924
 20
158.0
 30
0.0
 40
1.258811681772417
100
AcDbArc
 50
66.4218215218
 51
113.5781784782
  0
ARC
  5
121
330
1F
100
AcDbEntity
  8
0
  6
HIDDEN
 62
     7
370
    18
100
AcDbCircle
 10
125.2960725076
 20
159.7623363545
 30
0.0
 40
0.503524672708977
100
AcDbArc
 50
0.0
 51
180.0
  0
LINE
  5
122
330
1F
100
AcDbEntity
  8
0
  6
HIDDEN
 62
     7
370
    18
100
AcDbLine
 10
124.7925478348
 20
159.1537199635
 30
0.0
 11
124.7925478348
 21
159.7623363545
 31
0.0
  0
LINE
  5
123
330
1F
100
AcDbEntity
  8
0
  6
HIDDEN
 62
     7
370
    18
100
AcDbLine
 10
41.2074521652
 20
159.7623363545
 30
0.0
 11
41.2074521652
 21
159.1537199635
 31
0.0
  0
LINE
  5
124
330
1F
100
AcDbEntity
  8
0
  6
HIDDEN
 62
     7
370
    18
100
AcDbLine
 10
40.2004028197
 20
159.1537199635
 30
0.0
 11
40.2004028197
 21
159.7623363545
 31
0.0
  0
LINE
  5
125
330
1F
100
AcDbEntity
  8
0
  6
HIDDEN
 62
     7
370
    18
100
AcDbLine
 10
125.7995971803
 20
159.7623363545
 30
0.0
 11
125.7995971803
 21
159.1537199635
 31
0.0
  0
ARC
  5
126
330
1F
100
AcDbEntity
  8
0
  6
HIDDEN
 62
     7
370
    18
100
AcDbCircle
 10
125.2960725076
 20
158.0
 30
0.0
 40
1.258811681772396
100
AcDbArc
 50
293.5781784782
 51
66.4218215218
  0
ARC
  5
127
330
1F
100
AcDbEntity
  8
0
  6
HIDDEN
 62
     7
370
    18
100
AcDbCircle
 10
40.7039274924
 20
158.0
 30
0.0
 40
1.258811681772417
100
AcDbArc
 50
113.5781784782
 51
246.4218215218
  0
ARC
  5
128
330
1F
100
AcDbEntity
  8
0
  6
HIDDEN
 62
     7
370
    18
100
AcDbCircle
 10
40.7039274924
 20
158.0
 30
0.0
 40
1.258811681772417
100
AcDbArc
 50
293.5781784782
 51
66.4218215218
  0
ARC
  5
129
330
1F
100
AcDbEntity
  8
0
  6
HIDDEN
 62
     7
370
    18
100
AcDbCircle
 10
125.2960725076
 20
158.0
 30
0.0
 40
1.258811681772417
100
AcDbArc
 50
113.5781784782
 51
246.4218215218
  0
ARC
  5
12A
330
1F
100
AcDbEntity
  8
0
  6
HIDDEN
 62
     7
370
    18
100
AcDbCircle
 10
40.7039274924
 20
158.0
 30
0.0
 40
1.258811681772417
100
AcDbArc
 50
246.4218215218
 51
293.5781784782
  0
LINE
  5
12B
330
1F
100
AcDbEntity
  8
0
  6
HIDDEN
 62
     7
370
    18
100
AcDbLine
 10
40.2004028197
 20
156.2376636455
 30
0.0
 11
40.2004028197
 21
156.8462800365
 31
0.0
  0
LINE
  5
12C
330
1F
100
AcDbEntity
  8
0
  6
HIDDEN
 62
     7
370
    18
100
AcDbLine
 10
125.7995971803
 20
156.8462800365
 30
0.0
 11
125.7995971803
 21
156.2376636455
 31
0.0
  0
ARC
  5
12D
330
1F
100
AcDbEntity
  8
0
  6
HIDDEN
 62
     7
370
    18
100
AcDbCircle
 10
125.2960725076
 20
158.0
 30
0.0
 40
1.258811681772417
100
AcDbArc
 50
246.4218215218
 51
293.5781784782
  0
LINE
  5
12E
330
1F
100
AcDbEntity
  8
0
  6
HIDDEN
 62
     7
370
    18
100
AcDbLine
 10
124.7925478348
 20
156.2376636455
 30
0.0
 11
124.7925478348
 21
156.8462800365
 31
0.0
  0
LINE
  5
12F
330
1F
100
AcDbEntity
  8
0
  6
HIDDEN
 62
     7
370
    18
100
AcDbLine
 10
41.2074521652
 20
156.8462800365
 30
0.0
 11
41.2074521652
 21
156.2376636455
 31
0.0
  0
ARC
  5
130
330
1F
100
AcDbEntity
  8
0
  6
HIDDEN
 62
     7
370
    18
100
AcDbCircle
 10
125.2960725076
 20
156.2376636455
 30
0.0
 40
0.503524672708977
100
AcDbArc
 50
180.0
 51
0.0
  0
ARC
  5
131
330
1F
100
AcDbEntity
  8
0
  6
HIDDEN
 62
     7
370
    18
100
AcDbCircle
 10
40.7039274924
 20
156.2376636455
 30
0.0
 40
0.5035246727089628
100
AcDbArc
 50
180.0
 51
0.0
  0
LINE
  5
132
330
1F
100
AcDbEntity
  8
0
  6
HIDDEN
 62
     7
370
    18
100
AcDbLine
 10
43.89966658
 20
166.0950243632
 30
0.0
 11
43.8764331465
 21
166.0950839843
 31
0.0
  0
SPLINE
  5
133
330
1F
100
AcDbEntity
  8
0
  6
HIDDEN
 62
     7
370
    18
100
AcDbSpline
210
0.0
220
0.0
230
1.0
 70
     8
 71
     3
 72
    17
 73
    13
 74
     0
 42
0.00000001
 43
0.00000001
 40
0.0
 40
0.0
 40
0.0
 40
0.0
 40
0.2499999999999974
 40
0.374999999999996
 40
0.4374999999999944
 40
0.4687499999999936
 40
0.4843749999999942
 40
0.4921874999999945
 40
0.4921874999999945
 40
0.4999999999999949
 40
0.4999999999999949
 40
1.0
 40
1.0
 40
1.0
 40
1.0
 10
43.89966658003867
 20
166.0950243631872
 30
0.0
 10
44.35656629437322
 20
166.0938455344173
 30
0.0
 10
45.03104695475462
 20
166.0920506742635
 30
0.0
 10
45.79891928412157
 20
166.0898978027268
 30
0.0
 10
46.17810018269164
 20
166.0888082092724
 30
0.0
 10
46.36650184947956
 20
166.0882604035651
 30
0.0
 10
46.46040549271911
 20
166.0879857939864
 30
0.0
 10
46.50058622830014
 20
166.0878679581625
 30
0.0
 10
46.52735923366416
 20
166.0877893691377
 30
0.0
 10
46.53977851497385
 20
166.0877528823574
 30
0.0
 10
47.47139079126737
 20
166.0850131561251
 30
0.0
 10
48.35781995490004
 20
166.0822235837477
 30
0.0
 10
49.21339653401778
 20
166.0793244582999
 30
0.0
  0
SPLINE
  5
134
330
1F
100
AcDbEntity
  8
0
  6
HIDDEN
 62
     7
370
    18
100
AcDbSpline
210
0.0
220
0.0
230
1.0
 70
     8
 71
     3
 72
    17
 73
    13
 74
     0
 42
0.00000001
 43
0.00000001
 40
0.0
 40
0.0
 40
0.0
 40
0.0
 40
0.2499999999999887
 40
0.374999999999983
 40
0.437499999999981
 40
0.4687499999999807
 40
0.4843749999999805
 40
0.4921874999999804
 40
0.4921874999999804
 40
0.4999999999999803
 40
0.4999999999999803
 40
1.0
 40
1.0
 40
1.0
 40
1.0
 10
49.16667343347815
 20
150.1186250620155
 30
0.0
 10
48.73949904221489
 20
150.1165714912568
 30
0.0
 10
48.08720969005795
 20
150.1135372233022
 30
0.0
 10
47.30603034052484
 20
150.1100952270383
 30
0.0
 10
46.91039716034257
 20
150.1083969649974
 30
0.0
 10
46.71131973642601
 20
150.1075531894385
 30
0.0
 10
46.61146582271969
 20
150.1071325862585
 30
0.0
 10
46.56860374583127
 20
150.1069525965032
 30
0.0
 10
46.54001401856553
 20
150.1068326622896
 30
0.0
 10
46.52475734801899
 20
150.1067687294597
 30
0.0
 10
45.65664525361934
 20
150.1031343625014
 30
0.0
 10
44.77302545249933
 20
150.0996625582586
 30
0.0
 10
43.86054421669567
 20
150.0962987164587
 30
0.0
  0
SPLINE
  5
135
330
1F
100
AcDbEntity
  8
0
  6
HIDDEN
 62
     7
370
    18
100
AcDbSpline
210
0.0
220
0.0
230
1.0
 70
     8
 71
     3
 72
    18
 73
    14
 74
     0
 42
0.00000001
 43
0.00000001
 40
0.0
 40
0.0
 40
0.0
 40
0.0
 40
0.2499999999999906
 40
0.2499999999999906
 40
0.3749999999999858
 40
0.4374999999999842
 40
0.4687499999999843
 40
0.4843749999999843
 40
0.4921874999999843
 40
0.4921874999999843
 40
0.4999999999999843
 40
0.4999999999999843
 40
1.0
 40
1.0
 40
1.0
 40
1.0
 10
116.7866014602743
 20
166.0793328458848
 30
0.0
 10
117.2143588011586
 20
166.0807781090099
 30
0.0
 10
117.6498442746133
 20
166.082202058907
 30
0.0
 10
118.3146660263417
 20
166.0842963308735
 30
0.0
 10
118.64997524602
 20
166.0853333763995
 30
0.0
 10
119.0462413279878
 20
166.0865268736686
 30
0.0
 10
119.2456423258488
 20
166.0871199387231
 30
0.0
 10
119.3456598082096
 20
166.0874156091767
 30
0.0
 10
119.3885923678318
 20
166.0875421473984
 30
0.0
 10
119.4172291684595
 20
166.0876264675526
 30
0.0
 10
119.4325173500251
 20
166.0876714360148
 30
0.0
 10
120.3016492721065
 20
166.0902255538845
 30
0.0
 10
121.1864637248468
 20
166.0926665579112
 30
0.0
 10
122.1003320014615
 20
166.0950312147747
 30
0.0
  0
SPLINE
  5
136
330
1F
100
AcDbEntity
  8
0
  6
HIDDEN
 62
     7
370
    18
100
AcDbSpline
210
0.0
220
0.0
230
1.0
 70
     8
 71
     3
 72
     8
 73
     4
 74
     0
 42
0.00000001
 43
0.00000001
 40
0.0
 40
0.0
 40
0.0
 40
0.0
 40
1.0
 40
1.0
 40
1.0
 40
1.0
 10
122.1003320014615
 20
166.0950312147747
 30
0.0
 10
122.1080773735106
 20
166.0950452038333
 30
0.0
 10
122.1158220073499
 20
166.0950651891325
 30
0.0
 10
122.1235670904096
 20
166.0950843652168
 30
0.0
  0
SPLINE
  5
137
330
1F
100
AcDbEntity
  8
0
  6
HIDDEN
 62
     7
370
    18
100
AcDbSpline
210
0.0
220
0.0
230
1.0
 70
     8
 71
     3
 72
    17
 73
    13
 74
     0
 42
0.00000001
 43
0.00000001
 40
0.0
 40
0.0
 40
0.0
 40
0.0
 40
0.2499999999999806
 40
0.3749999999999709
 40
0.437499999999966
 40
0.4687499999999636
 40
0.4843749999999632
 40
0.4921874999999639
 40
0.4921874999999639
 40
0.4999999999999646
 40
0.4999999999999646
 40
1.0
 40
1.0
 40
1.0
 40
1.0
 10
122.1394572263402
 20
150.0963058624319
 30
0.0
 10
121.6832479093334
 20
150.0979840865875
 30
0.0
 10
121.0097330592598
 20
150.1005401547253
 30
0.0
 10
120.2428659098819
 20
150.1036022303855
 30
0.0
 10
119.8641572849326
 20
150.1051517782278
 30
0.0
 10
119.6759841871618
 20
150.1059309117507
 30
0.0
 10
119.5821929379862
 20
150.1063215249215
 30
0.0
 10
119.5420599663609
 20
150.1064891496021
 30
0.0
 10
119.5153187136684
 20
150.1066009474555
 30
0.0
 10
119.5029075153326
 20
150.1066528811081
 30
0.0
 10
118.5728249983769
 20
150.1105487205492
 30
0.0
 10
117.6877336588473
 20
150.1145176387613
 30
0.0
 10
116.8333265665218
 20
150.1186250620156
 30
0.0
  0
SPLINE
  5
138
330
1F
100
AcDbEntity
  8
0
  6
HIDDEN
 62
     7
370
    18
100
AcDbSpline
210
0.0
220
0.0
230
1.0
 70
     8
 71
     3
 72
    11
 73
     7
 74
     0
 42
0.00000001
 43
0.00000001
 40
0.0
 40
0.0
 40
0.0
 40
0.0
 40
0.0005819279860345
 40
0.0005819279860345
 40
0.0005819279860345
 40
0.0011638565106939
 40
0.0011638565106939
 40
0.0011638565106939
 40
0.0011638565106939
 10
43.10568443696138
 20
148.9365558912387
 30
0.0
 10
43.24302566740383
 20
149.0738971216811
 30
0.0
 10
43.38037391638127
 20
149.2112453706586
 30
0.0
 10
43.51772917819275
 20
149.34860063247
 30
0.0
 10
43.65508456686833
 20
149.4859560211456
 30
0.0
 10
43.79244700024884
 20
149.6233184545262
 30
0.0
 10
43.929816654478
 20
149.7606876704755
 30
0.0
  0
SPLINE
  5
139
330
1F
100
AcDbEntity
  8
0
  6
HIDDEN
 62
     7
370
    18
100
AcDbSpline
210
0.0
220
0.0
230
1.0
 70
     8
 71
     3
 72
    11
 73
     7
 74
     0
 42
0.00000001
 43
0.00000001
 40
0.0
 40
0.0
 40
0.0
 40
0.0
 40
0.0005819278601641
 40
0.0005819278601641
 40
0.0005819278601641
 40
0.0011638562605893
 40
0.0011638562605893
 40
0.0011638562605893
 40
0.0011638562605893
 10
122.070183380206
 20
149.7606876482182
 30
0.0
 10
122.207552863823
 20
149.6233185904542
 30
0.0
 10
122.3449151652406
 20
149.4859562890367
 30
0.0
 10
122.4822704264057
 20
149.3486010278715
 30
0.0
 10
122.6196258153633
 20
149.2112456389141
 30
0.0
 10
122.7569741958741
 20
149.0738972584032
 30
0.0
 10
122.8943155630386
 20
148.9365558912387
 30
0.0
  0
ARC
  5
13A
330
1F
100
AcDbEntity
  8
0
  6
HIDDEN
 62
     7
370
    18
100
AcDbCircle
 10
83.0
 20
158.0
 30
0.0
 40
39.92950654582076
100
AcDbArc
 50
168.3442007939
 51
191.416601786
  0
SPLINE
  5
13B
330
1F
100
AcDbEntity
  8
0
  6
HIDDEN
 62
     7
370
    18
100
AcDbSpline
210
0.0
220
0.0
230
1.0
 70
     8
 71
     3
 72
     8
 73
     4
 74
     0
 42
0.00000001
 43
0.00000001
 40
0.0
 40
0.0
 40
0.0
 40
0.0
 40
0.294380670909162
 40
0.294380670909162
 40
0.294380670909162
 40
0.294380670909162
 10
43.86054421669567
 20
150.0962987164587
 30
0.0
 10
43.8829692281999
 20
149.9852490266972
 30
0.0
 10
43.90605294764135
 20
149.8733734203897
 30
0.0
 10
43.929816654478
 20
149.7606876704755
 30
0.0
  0
ARC
  5
13C
330
1F
100
AcDbEntity
  8
0
  6
HIDDEN
 62
     7
370
    18
100
AcDbCircle
 10
83.0
 20
158.0
 30
0.0
 40
39.92950654582076
100
AcDbArc
 50
348.5834086749
 51
11.6557992061
  0
SPLINE
  5
13D
330
1F
100
AcDbEntity
  8
0
  6
HIDDEN
 62
     7
370
    18
100
AcDbSpline
210
0.0
220
0.0
230
1.0
 70
     8
 71
     3
 72
     8
 73
     4
 74
     0
 42
0.00000001
 43
0.00000001
 40
0.7056123488988899
 40
0.7056123488988899
 40
0.7056123488988899
 40
0.7056123488988899
 40
1.0
 40
1.0
 40
1.0
 40
1.0
 10
122.070183380206
 20
149.7606876482182
 30
0.0
 10
122.0939472688717
 20
149.8733744470777
 30
0.0
 10
122.1170309456244
 20
149.9852498945437
 30
0.0
 10
122.1394572263402
 20
150.0963058624319
 30
0.0
  0
LINE
  5
13E
330
1F
100
AcDbEntity
  8
0
  6
HIDDEN
 62
     7
370
    18
100
AcDbLine
 10
122.1235670904
 20
166.0950843652
 30
0.0
 11
122.1061185685
 21
166.0670306497
 31
0.0
  0
SPLINE
  5
13F
330
1F
100
AcDbEntity
  8
0
  6
HIDDEN
 62
     7
370
    18
100
AcDbSpline
210
0.0
220
0.0
230
1.0
 70
    24
 71
     3
 72
    14
 73
    10
 74
     0
 42
0.00000001
 43
0.00000001
 40
0.0
 40
0.0
 40
0.0
 40
0.0
 40
0.0002964844419011
 40
0.0002964844419011
 40
0.0002964844419011
 40
0.0005929688838047
 40
0.0005929688838047
 40
0.0005929688838047
 40
0.0011814811696984
 40
0.0011814811696984
 40
0.0011814811696984
 40
0.0011814811696984
 10
122.7258561604208
 20
167.0634441087613
 30
0.0
 10
122.6754796740506
 20
166.9824488461024
 30
0.0
 10
122.6251022875552
 20
166.9014521362232
 30
0.0
 10
122.5747240002457
 20
166.820453978016
 30
0.0
 10
122.524345712936
 20
166.7394558198084
 30
0.0
 10
122.4739665246304
 20
166.6584562129806
 30
0.0
 10
122.42358643464
 20
166.577455156425
 30
0.0
 10
122.3235835421602
 20
166.416670609374
 30
0.0
 10
122.2235770958794
 20
166.2558803485255
 30
0.0
 10
122.1235670904096
 20
166.0950843652168
 30
0.0
  0
LINE
  5
140
330
1F
100
AcDbEntity
  8
0
  6
HIDDEN
 62
     7
370
    18
100
AcDbLine
 10
43.8938814315
 20
166.0670306497
 30
0.0
 11
43.8764331465
 21
166.0950839843
 31
0.0
  0
SPLINE
  5
141
330
1F
100
AcDbEntity
  8
0
  6
HIDDEN
 62
     7
370
    18
100
AcDbSpline
210
0.0
220
0.0
230
1.0
 70
    24
 71
     3
 72
    14
 73
    10
 74
     0
 42
0.00000001
 43
0.00000001
 40
0.0
 40
0.0
 40
0.0
 40
0.0
 40
0.0002963222375639
 40
0.0002963222375639
 40
0.0002963222375639
 40
0.0005926444751226
 40
0.0005926444751226
 40
0.0005926444751226
 40
0.0011814792695535
 40
0.0011814792695535
 40
0.0011814792695535
 40
0.0011814792695535
 10
43.87643314650917
 20
166.095083984299
 30
0.0
 10
43.82607699668767
 20
166.1760465498758
 30
0.0
 10
43.7757217361923
 20
166.2570076855952
 30
0.0
 10
43.72536736288661
 20
166.3379673948918
 30
0.0
 10
43.67501298958148
 20
166.4189271041875
 30
0.0
 10
43.62465950328938
 20
166.4998853873446
 30
0.0
 10
43.57430690188444
 20
166.580842247781
 30
0.0
 10
43.4742490601574
 20
166.7417151421747
 30
0.0
 10
43.37419471157543
 20
166.9025824202935
 30
0.0
 10
43.27414383957916
 20
167.0634441087613
 30
0.0
  0
SPLINE
  5
142
330
1F
100
AcDbEntity
  8
0
  6
Continuous
 62
     7
370
    25
100
AcDbSpline
210
0.0
220
0.0
230
1.0
 70
     8
 71
     3
 72
     9
 73
     5
 74
     0
 42
0.00000001
 43
0.00000001
 40
0.0
 40
0.0
 40
0.0
 40
0.0
 40
0.4982332391884662
 40
1.0
 40
1.0
 40
1.0
 40
1.0
 10
214.9382632168321
 20
66.04689268034195
 30
0.0
 10
214.7723325641656
 20
65.87941287493678
 30
0.0
 10
214.4392944614953
 20
65.54326548003796
 30
0.0
 10
214.1048731067655
 20
65.20816817816966
 30
0.0
 10
213.9370715868565
 20
65.0400274904545
 30
0.0
  0
SPLINE
  5
143
330
1F
100
AcDbEntity
  8
0
  6
Continuous
 62
     7
370
    25
100
AcDbSpline
210
0.0
220
0.0
230
1.0
 70
     8
 71
     3
 72
     9
 73
     5
 74
     0
 42
0.00000001
 43
0.00000001
 40
0.0
 40
0.0
 40
0.0
 40
0.0
 40
0.5017695839038991
 40
1.0
 40
1.0
 40
1.0
 40
1.0
 10
232.0629481499013
 20
65.0400077536967
 30
0.0
 10
231.8951436011729
 20
65.20815106191678
 30
0.0
 10
231.5607180917135
 20
65.54325170096284
 30
0.0
 10
231.2276670092487
 20
65.87941113349517
 30
0.0
 10
231.061730829851
 20
66.04689598744038
 30
0.0
  0
LINE
  5
144
330
1F
100
AcDbEntity
  8
0
  6
Continuous
 62
     7
370
    25
100
AcDbLine
 10
214.7780061665
 20
53.2288970229
 30
0.0
 11
214.7780061665
 21
47.7182630536
 31
0.0
  0
LINE
  5
145
330
1F
100
AcDbEntity
  8
0
  6
Continuous
 62
     7
370
    25
100
AcDbLine
 10
231.2219938335
 20
47.7182630536
 30
0.0
 11
231.2219938335
 21
53.2288970229
 31
0.0
  0
LINE
  5
146
330
1F
100
AcDbEntity
  8
0
  6
Continuous
 62
     7
370
    25
100
AcDbLine
 10
214.7780061665
 20
47.7182630536
 30
0.0
 11
231.2219938335
 21
47.7182630536
 31
0.0
  0
SPLINE
  5
147
330
1F
100
AcDbEntity
  8
0
  6
Continuous
 62
     7
370
    25
100
AcDbSpline
210
0.0
220
0.0
230
1.0
 70
     8
 71
     3
 72
    10
 73
     6
 74
     0
 42
0.00000001
 43
0.00000001
 40
0.0
 40
0.0
 40
0.0
 40
0.0
 40
0.5
 40
0.5
 40
1.0
 40
1.0
 40
1.0
 40
1.0
 10
231.2219938335047
 20
53.22889702290069
 30
0.0
 10
231.2219558499022
 20
53.46479684497965
 30
0.0
 10
231.218744876937
 20
53.69443468198151
 30
0.0
 10
231.2057657111544
 20
54.13732815174737
 30
0.0
 10
231.1961381778249
 20
54.34310009740756
 30
0.0
 10
231.1838640043981
 20
54.52353470605588
 30
0.0
  0
SPLINE
  5
148
330
1F
100
AcDbEntity
  8
0
  6
Continuous
 62
     7
370
    25
100
AcDbSpline
210
0.0
220
0.0
230
1.0
 70
     8
 71
     3
 72
    10
 73
     6
 74
     0
 42
0.00000001
 43
0.00000001
 40
0.0
 40
0.0
 40
0.0
 40
0.0
 40
0.5
 40
0.5
 40
1.0
 40
1.0
 40
1.0
 40
1.0
 10
214.8161358938727
 20
54.52353321063271
 30
0.0
 10
214.8038618489329
 20
54.34310429403794
 30
0.0
 10
214.7943935431558
 20
54.14139901389601
 30
0.0
 10
214.7813462089471
 20
53.69887787859675
 30
0.0
 10
214.7780445293724
 20
53.4647920775031
 30
0.0
 10
214.7780061664954
 20
53.22889702290069
 30
0.0
  0
SPLINE
  5
149
330
1F
100
AcDbEntity
  8
0
  6
Continuous
 62
     7
370
    25
100
AcDbSpline
210
0.0
220
0.0
230
1.0
 70
     8
 71
     3
 72
    14
 73
    10
 74
     0
 42
0.00000001
 43
0.00000001
 40
0.0
 40
0.0
 40
0.0
 40
0.0
 40
0.002688620205101
 40
0.002688620205101
 40
0.002688620205101
 40
0.0079741756482625
 40
0.0079741756482625
 40
0.0079741756482625
 40
0.013259740803594
 40
0.013259740803594
 40
0.013259740803594
 40
0.013259740803594
 10
231.1838640043981
 20
54.52353470605588
 30
0.0
 10
231.1853522161125
 20
55.20599819217134
 30
0.0
 10
231.1869023554731
 20
55.88831274504874
 30
0.0
 10
231.1885127197058
 20
56.57046139915926
 30
0.0
 10
231.1916785324606
 20
57.91149646818301
 30
0.0
 10
231.1950722476667
 20
59.25189438652803
 30
0.0
 10
231.1987317038287
 20
60.59148895639657
 30
0.0
 10
231.2023911663993
 20
61.93108587220901
 30
0.0
 10
231.2063140221981
 20
63.26988226416371
 30
0.0
 10
231.210630824638
 20
64.60764024287721
 30
0.0
  0
SPLINE
  5
14A
330
1F
100
AcDbEntity
  8
0
  6
Continuous
 62
     7
370
    25
100
AcDbSpline
210
0.0
220
0.0
230
1.0
 70
     8
 71
     3
 72
    14
 73
    10
 74
     0
 42
0.00000001
 43
0.00000001
 40
0.0
 40
0.0
 40
0.0
 40
0.0
 40
0.0026620003745799
 40
0.0026620003745799
 40
0.0026620003745799
 40
0.0079608670333491
 40
0.0079608670333491
 40
0.0079608670333491
 40
0.0132597430006488
 40
0.0132597430006488
 40
0.0132597430006488
 40
0.0132597430006488
 10
214.7893691789696
 20
64.60763912489318
 30
0.0
 10
214.7915432757513
 20
63.93389601751298
 30
0.0
 10
214.7936156656012
 20
63.25988815192405
 30
0.0
 10
214.7956066318328
 20
62.58564879766396
 30
0.0
 10
214.7995697652168
 20
61.24353638448765
 30
0.0
 10
214.8032157438012
 20
59.90051027036319
 30
0.0
 10
214.8066245131419
 20
58.55676969658402
 30
0.0
 10
214.8100332886858
 20
57.21302667748319
 30
0.0
 10
214.8132029567326
 20
55.86856698171922
 30
0.0
 10
214.8161360020474
 20
54.5235317503432
 30
0.0
  0
LINE
  5
14B
330
1F
100
AcDbEntity
  8
0
  6
Continuous
 62
     7
370
    25
100
AcDbLine
 10
231.1838640044
 20
54.5235347061
 30
0.0
 11
232.0634441088
 21
53.8762158645
 31
0.0
  0
SPLINE
  5
14C
330
1F
100
AcDbEntity
  8
0
  6
Continuous
 62
     7
370
    25
100
AcDbSpline
210
0.0
220
0.0
230
1.0
 70
    24
 71
     3
 72
    18
 73
    14
 74
     0
 42
0.00000001
 43
0.00000001
 40
0.0
 40
0.0
 40
0.0
 40
0.0
 40
0.000174225081063
 40
0.000174225081063
 40
0.0002613376215945
 40
0.0002613376215945
 40
0.000348450162126
 40
0.000348450162126
 40
0.0004355627026575
 40
0.0004355627026575
 40
0.0005226752431891
 40
0.0005226752431891
 40
0.0006969003242521
 40
0.0006969003242521
 40
0.0006969003242521
 40
0.0006969003242521
 10
232.0634441087614
 20
53.87621586447824
 30
0.0
 10
232.0634441087614
 20
53.83103087095363
 30
0.0
 10
232.0634441087614
 20
53.78322687539517
 30
0.0
 10
232.0634441087614
 20
53.70774047002649
 30
0.0
 10
232.0634441087614
 20
53.68194590735393
 30
0.0
 10
232.0634441087614
 20
53.62907573655555
 30
0.0
 10
232.0634441087614
 20
53.60203316248878
 30
0.0
 10
232.0634441087614
 20
53.54649024510681
 30
0.0
 10
232.0634441087614
 20
53.51826437007112
 30
0.0
 10
232.0634441087614
 20
53.46159189790968
 30
0.0
 10
232.0634441087614
 20
53.43300756070858
 30
0.0
 10
232.0634441087614
 20
53.34666778849867
 30
0.0
 10
232.0634441087614
 20
53.28822668113614
 30
0.0
 10
232.0634441087614
 20
53.22889702290069
 30
0.0
  0
SPLINE
  5
14D
330
1F
100
AcDbEntity
  8
0
  6
Continuous
 62
     7
370
    25
100
AcDbSpline
210
0.0
220
0.0
230
1.0
 70
    24
 71
     3
 72
    18
 73
    14
 74
     0
 42
0.00000001
 43
0.00000001
 40
0.0
 40
0.0
 40
0.0
 40
0.0
 40
0.0001742333242819
 40
0.0001742333242819
 40
0.0002613499864229
 40
0.0002613499864229
 40
0.0003484666485638
 40
0.0003484666485638
 40
0.0004355833107048
 40
0.0004355833107048
 40
0.0005226999728458
 40
0.0005226999728458
 40
0.0006969332971277
 40
0.0006969332971277
 40
0.0006969332971277
 40
0.0006969332971277
 10
213.9365558912387
 20
53.22889702290069
 30
0.0
 10
213.9365558912387
 20
53.28822686675523
 30
0.0
 10
213.9365558912387
 20
53.346576475565
 30
0.0
 10
213.9365558912387
 20
53.43269815946058
 30
0.0
 10
213.9365558912387
 20
53.46117066159175
 30
0.0
 10
213.9365558912387
 20
53.51764217675671
 30
0.0
 10
213.9365558912387
 20
53.5456076942703
 30
0.0
 10
213.9365558912387
 20
53.60118460817812
 30
0.0
 10
213.9365558912387
 20
53.62848608919624
 30
0.0
 10
213.9365558912387
 20
53.6815651437192
 30
0.0
 10
213.9365558912387
 20
53.70746549146472
 30
0.0
 10
213.9365558912387
 20
53.78315569973255
 30
0.0
 10
213.9365558912387
 20
53.83102992347068
 30
0.0
 10
213.9365558912387
 20
53.87621586447833
 30
0.0
  0
SPLINE
  5
14E
330
1F
100
AcDbEntity
  8
0
  6
Continuous
 62
     7
370
    25
100
AcDbSpline
210
0.0
220
0.0
230
1.0
 70
    24
 71
     3
 72
    11
 73
     7
 74
     0
 42
0.00000001
 43
0.00000001
 40
0.0
 40
0.0
 40
0.0
 40
0.0
 40
0.0000201019852959
 40
0.0000201019852959
 40
0.0000201019852959
 40
1.000020101985296
 40
1.000020101985296
 40
1.000020101985296
 40
1.000020101985296
 10
214.8161535984208
 20
54.52354656772892
 30
0.0
 10
214.8161477046525
 20
54.52354223026816
 30
0.0
 10
214.8161418108843
 20
54.52353789280741
 30
0.0
 10
214.816135917116
 20
54.52353355534665
 30
0.0
 10
214.5229425751569
 20
54.30776079993899
 30
0.0
 10
214.2297492331978
 20
54.09198804453133
 30
0.0
 10
213.9365558912387
 20
53.87621528912367
 30
0.0
  0
LINE
  5
14F
330
1F
100
AcDbEntity
  8
0
  6
Continuous
 62
     7
370
    25
100
AcDbLine
 10
232.0634441088
 20
53.2288970229
 30
0.0
 11
232.0634441088
 21
47.7182630536
 31
0.0
  0
LINE
  5
150
330
1F
100
AcDbEntity
  8
0
  6
Continuous
 62
     7
370
    25
100
AcDbLine
 10
232.0634441088
 20
47.7182630536
 30
0.0
 11
231.2219938335
 21
47.7182630536
 31
0.0
  0
LINE
  5
151
330
1F
100
AcDbEntity
  8
0
  6
Continuous
 62
     7
370
    25
100
AcDbLine
 10
213.9365558912
 20
47.7182630536
 30
0.0
 11
213.9365558912
 21
53.2288970229
 31
0.0
  0
LINE
  5
152
330
1F
100
AcDbEntity
  8
0
  6
Continuous
 62
     7
370
    25
100
AcDbLine
 10
214.7780061665
 20
47.7182630536
 30
0.0
 11
213.9365558912
 21
47.7182630536
 31
0.0
  0
SPLINE
  5
153
330
1F
100
AcDbEntity
  8
0
  6
Continuous
 62
     7
370
    25
100
AcDbSpline
210
0.0
220
0.0
230
1.0
 70
    24
 71
     3
 72
    18
 73
    14
 74
     0
 42
0.00000001
 43
0.00000001
 40
0.0
 40
0.0
 40
0.0
 40
0.0
 40
0.2500000000000093
 40
0.3750000000000144
 40
0.4375000000000164
 40
0.4687500000000175
 40
0.484375000000018
 40
0.4921875000000183
 40
0.4960937500000184
 40
0.4960937500000184
 40
0.5000000000000187
 40
0.5000000000000187
 40
1.0
 40
1.0
 40
1.0
 40
1.0
 10
213.9365558912387
 20
53.87621586447828
 30
0.0
 10
213.9365558912387
 20
54.76543492379827
 30
0.0
 10
213.9365558912387
 20
56.06303747836134
 30
0.0
 10
213.9365558912387
 20
57.51351156512182
 30
0.0
 10
213.9365558912387
 20
58.22289971844457
 30
0.0
 10
213.9365558912387
 20
58.57363157259172
 30
0.0
 10
213.9365558912387
 20
58.74800694403658
 30
0.0
 10
213.9365558912387
 20
58.83494699085194
 30
0.0
 10
213.9365558912387
 20
58.87215394543549
 30
0.0
 10
213.9365558912387
 20
58.89694678949563
 30
0.0
 10
213.9365558912387
 20
58.90803780606757
 30
0.0
 10
213.9365558912387
 20
60.6732917364138
 30
0.0
 10
213.9365558912387
 20
62.35282451583149
 30
0.0
 10
213.9365558912387
 20
63.9603202833156
 30
0.0
  0
LINE
  5
154
330
1F
100
AcDbEntity
  8
0
  6
Continuous
 62
     7
370
    25
100
AcDbLine
 10
214.789369179
 20
64.6076391249
 30
0.0
 11
213.9365558912
 21
63.9603202833
 31
0.0
  0
LINE
  5
155
330
1F
100
AcDbEntity
  8
0
  6
Continuous
 62
     7
370
    25
100
AcDbLine
 10
231.2106331912
 20
64.6076384119
 30
0.0
 11
232.0634441088
 21
63.9603206124
 31
0.0
  0
SPLINE
  5
156
330
1F
100
AcDbEntity
  8
0
  6
Continuous
 62
     7
370
    25
100
AcDbSpline
210
0.0
220
0.0
230
1.0
 70
    24
 71
     3
 72
    18
 73
    14
 74
     0
 42
0.00000001
 43
0.00000001
 40
0.0
 40
0.0
 40
0.0
 40
0.0
 40
0.2500000000000154
 40
0.3750000000000237
 40
0.4375000000000273
 40
0.4687500000000291
 40
0.4843750000000301
 40
0.49218750000003
 40
0.49609375000003
 40
0.49609375000003
 40
0.50000000000003
 40
0.50000000000003
 40
1.0
 40
1.0
 40
1.0
 40
1.0
 10
232.0634441087613
 20
63.9603202833156
 30
0.0
 10
232.0634441087613
 20
63.15669999236073
 30
0.0
 10
232.0634441087613
 20
61.92415998186302
 30
0.0
 10
232.0634441087613
 20
60.43875488166804
 30
0.0
 10
232.0634441087613
 20
59.68419189291685
 30
0.0
 10
232.0634441087613
 20
59.30394528887796
 30
0.0
 10
232.0634441087613
 20
59.11308070944266
 30
0.0
 10
232.0634441087613
 20
59.01746310037102
 30
0.0
 10
232.0634441087613
 20
58.97644441376437
 30
0.0
 10
232.0634441087613
 20
58.94908979796234
 30
0.0
 10
232.0634441087613
 20
58.93410414942083
 30
0.0
 10
232.0634441087613
 20
57.33679978729818
 30
0.0
 10
232.0634441087613
 20
55.65496442710319
 30
0.0
 10
232.0634441087613
 20
53.87621586447828
 30
0.0
  0
SPLINE
  5
157
330
1F
100
AcDbEntity
  8
0
  6
Continuous
 62
     7
370
    25
100
AcDbSpline
210
0.0
220
0.0
230
1.0
 70
     8
 71
     3
 72
    13
 73
     9
 74
     0
 42
0.00000001
 43
0.00000001
 40
0.0
 40
0.0
 40
0.0
 40
0.0
 40
0.2020239725309446
 40
0.4098836251983343
 40
0.6124702082922702
 40
0.8208046597967676
 40
0.9422591749837754
 40
1.0
 40
1.0
 40
1.0
 40
1.0
 10
231.2106331912267
 20
64.60763841192113
 30
0.0
 10
231.2034534938386
 20
64.77176760405037
 30
0.0
 10
231.1888867057669
 20
65.10476703688003
 30
0.0
 10
231.1619470311013
 20
65.49454478465142
 30
0.0
 10
231.1316413199312
 20
65.79538038304669
 30
0.0
 10
231.1030028854005
 20
65.95663182407729
 30
0.0
 10
231.0812912665498
 20
66.02646465447684
 30
0.0
 10
231.0709401939102
 20
66.03358856932562
 30
0.0
 10
231.0676048422581
 20
66.03588405714494
 30
0.0
  0
SPLINE
  5
158
330
1F
100
AcDbEntity
  8
0
  6
Continuous
 62
     7
370
    25
100
AcDbSpline
210
0.0
220
0.0
230
1.0
 70
     8
 71
     3
 72
    12
 73
     8
 74
     0
 42
0.00000001
 43
0.00000001
 40
0.0
 40
0.0
 40
0.0
 40
0.0
 40
0.1412941858428872
 40
0.3533405257034932
 40
0.5591304064304721
 40
0.7709870720713066
 40
1.0
 40
1.0
 40
1.0
 40
1.0
 10
214.9325014874022
 20
66.02865914089493
 30
0.0
 10
214.9243606230181
 20
66.02011892208999
 30
0.0
 10
214.9040024088143
 20
65.9987620248889
 30
0.0
 10
214.8737523446415
 20
65.8320194858715
 30
0.0
 10
214.8423447293363
 20
65.54707578063987
 30
0.0
 10
214.8133662517823
 20
65.14879822270747
 30
0.0
 10
214.7975730650693
 20
64.79264533939856
 30
0.0
 10
214.7893691789697
 20
64.60763912489318
 30
0.0
  0
LINE
  5
159
330
1F
100
AcDbEntity
  8
0
  6
Continuous
 62
     7
370
    25
100
AcDbLine
 10
214.9436052367
 20
66.0465611403
 30
0.0
 11
231.0563947633
 21
66.0465611403
 31
0.0
  0
SPLINE
  5
15A
330
1F
100
AcDbEntity
  8
0
  6
Continuous
 62
     7
370
    25
100
AcDbSpline
210
0.0
220
0.0
230
1.0
 70
    24
 71
     3
 72
    30
 73
    26
 74
     0
 42
0.00000001
 43
0.00000001
 40
0.0
 40
0.0
 40
0.0
 40
0.0
 40
0.0001654330549295
 40
0.0001654330549295
 40
0.000330866109859
 40
0.000330866109859
 40
0.0004962991647885
 40
0.0004962991647885
 40
0.000661732219718
 40
0.000661732219718
 40
0.000992598329577
 40
0.000992598329577
 40
0.001323464439436
 40
0.001323464439436
 40
0.0014888974943655
 40
0.0014888974943655
 40
0.001654330549295
 40
0.001654330549295
 40
0.0018197636042245
 40
0.0018197636042245
 40
0.001985196659154
 40
0.001985196659154
 40
0.0023160627690129
 40
0.0023160627690129
 40
0.0026469288788719
 40
0.0026469288788719
 40
0.0026469288788719
 40
0.0026469288788719
 10
213.9365558912387
 20
63.96032028331562
 30
0.0
 10
213.9365558912387
 20
64.00311462836426
 30
0.0
 10
213.9365558912387
 20
64.04477874395248
 30
0.0
 10
213.9365558912387
 20
64.12587711559806
 30
0.0
 10
213.9365558912387
 20
64.16531151466695
 30
0.0
 10
213.9365558912387
 20
64.24196176546634
 30
0.0
 10
213.9365558912387
 20
64.27917045908502
 30
0.0
 10
213.9365558912387
 20
64.35138869511852
 30
0.0
 10
213.9365558912387
 20
64.38636839817867
 30
0.0
 10
213.9365558912387
 20
64.48699230992761
 30
0.0
 10
213.9365558912387
 20
64.54869675535315
 30
0.0
 10
213.9365558912387
 20
64.66167123472873
 30
0.0
 10
213.9365558912387
 20
64.7129548491672
 30
0.0
 10
213.9365558912387
 20
64.78201162860371
 30
0.0
 10
213.9365558912387
 20
64.80373995016342
 30
0.0
 10
213.9365558912387
 20
64.84449500221645
 30
0.0
 10
213.9365558912387
 20
64.86360929884549
 30
0.0
 10
213.9365558912387
 20
64.89880557216847
 30
0.0
 10
213.9365558912387
 20
64.91489059342793
 30
0.0
 10
213.9365558912387
 20
64.94412400860129
 30
0.0
 10
213.9365558912387
 20
64.95726837693428
 30
0.0
 10
213.9365558912387
 20
64.99234456568362
 30
0.0
 10
213.9365558912387
 20
65.0099305429806
 30
0.0
 10
213.9365558912387
 20
65.03351341473962
 30
0.0
 10
213.9365558912387
 20
65.03950780971998
 30
0.0
 10
213.9365558912387
 20
65.03951179483668
 30
0.0
  0
SPLINE
  5
15B
330
1F
100
AcDbEntity
  8
0
  6
Continuous
 62
     7
370
    25
100
AcDbSpline
210
0.0
220
0.0
230
1.0
 70
    24
 71
     3
 72
    30
 73
    26
 74
     0
 42
0.00000001
 43
0.00000001
 40
0.0
 40
0.0
 40
0.0
 40
0.0
 40
0.0003307976773668
 40
0.0003307976773668
 40
0.0004961965160502
 40
0.0004961965160502
 40
0.0006615953547336
 40
0.0006615953547336
 40
0.000826994193417
 40
0.000826994193417
 40
0.0009923930321004
 40
0.0009923930321004
 40
0.0013231907094672
 40
0.0013231907094672
 40
0.0014885895481506
 40
0.0014885895481506
 40
0.001653988386834
 40
0.001653988386834
 40
0.0018193872255174
 40
0.0018193872255174
 40
0.0019847860642008
 40
0.0019847860642008
 40
0.0023155837415677
 40
0.0023155837415677
 40
0.0026463814189345
 40
0.0026463814189345
 40
0.0026463814189345
 40
0.0026463814189345
 10
232.0634441087614
 20
65.03951179483659
 30
0.0
 10
232.0634441087614
 20
65.03950796287222
 30
0.0
 10
232.0634441087614
 20
65.03350766215948
 30
0.0
 10
232.0634441087614
 20
65.01563094057191
 30
0.0
 10
232.0634441087614
 20
65.00817449009257
 30
0.0
 10
232.0634441087614
 20
64.9902953696841
 30
0.0
 10
232.0634441087614
 20
64.97981982986795
 30
0.0
 10
232.0634441087614
 20
64.9560412023393
 30
0.0
 10
232.0634441087614
 20
64.94273245089252
 30
0.0
 10
232.0634441087614
 20
64.91332046697036
 30
0.0
 10
232.0634441087614
 20
64.89721748220556
 30
0.0
 10
232.0634441087614
 20
64.8447506660615
 30
0.0
 10
232.0634441087614
 20
64.80423326112073
 30
0.0
 10
232.0634441087614
 20
64.73508873618955
 30
0.0
 10
232.0634441087614
 20
64.7106237435257
 30
0.0
 10
232.0634441087614
 20
64.65888063580421
 30
0.0
 10
232.0634441087614
 20
64.63150529466066
 30
0.0
 10
232.0634441087614
 20
64.57414115467475
 30
0.0
 10
232.0634441087614
 20
64.54430531824222
 30
0.0
 10
232.0634441087614
 20
64.48225267531379
 30
0.0
 10
232.0634441087614
 20
64.45005507778976
 30
0.0
 10
232.0634441087614
 20
64.3499807956167
 30
0.0
 10
232.0634441087614
 20
64.27863207411308
 30
0.0
 10
232.0634441087614
 20
64.1265895240663
 30
0.0
 10
232.0634441087614
 20
64.0458943375855
 30
0.0
 10
232.0634441087614
 20
63.96032028331555
 30
0.0
  0
LINE
  5
15C
330
1F
100
AcDbEntity
  8
0
  6
HIDDEN
 62
     7
370
    18
100
AcDbLine
 10
224.1537199635
 20
57.7887565078
 30
0.0
 11
221.8462800365
 21
57.7887565078
 31
0.0
  0
LINE
  5
15D
330
1F
100
AcDbEntity
  8
0
  6
HIDDEN
 62
     7
370
    18
100
AcDbLine
 10
225.2658610272
 20
57.7887565078
 30
0.0
 11
224.7623363545
 21
57.7887565078
 31
0.0
  0
LINE
  5
15E
330
1F
100
AcDbEntity
  8
0
  6
HIDDEN
 62
     7
370
    18
100
AcDbLine
 10
224.7623363545
 20
57.7887565078
 30
0.0
 11
224.1537199635
 21
57.7887565078
 31
0.0
  0
LINE
  5
15F
330
1F
100
AcDbEntity
  8
0
  6
HIDDEN
 62
     7
370
    18
100
AcDbLine
 10
224.1537199635
 20
57.7887565078
 30
0.0
 11
224.1537199635
 21
47.7182630536
 31
0.0
  0
LINE
  5
160
330
1F
100
AcDbEntity
  8
0
  6
HIDDEN
 62
     7
370
    18
100
AcDbLine
 10
221.2376636455
 20
57.7887565078
 30
0.0
 11
220.7341389728
 21
57.7887565078
 31
0.0
  0
LINE
  5
161
330
1F
100
AcDbEntity
  8
0
  6
HIDDEN
 62
     7
370
    18
100
AcDbLine
 10
221.8462800365
 20
57.7887565078
 30
0.0
 11
221.2376636455
 21
57.7887565078
 31
0.0
  0
LINE
  5
162
330
1F
100
AcDbEntity
  8
0
  6
HIDDEN
 62
     7
370
    18
100
AcDbLine
 10
221.8462800365
 20
47.7182630536
 30
0.0
 11
221.8462800365
 21
57.7887565078
 31
0.0
  0
LINE
  5
163
330
1F
100
AcDbEntity
  8
0
  6
HIDDEN
 62
     7
370
    18
100
AcDbLine
 10
214.9436052367
 20
66.0465611403
 30
0.0
 11
213.9365558912
 21
65.0395117948
 31
0.0
  0
LINE
  5
164
330
1F
100
AcDbEntity
  8
0
  6
HIDDEN
 62
     7
370
    18
100
AcDbLine
 10
231.0563947633
 20
66.0465611403
 30
0.0
 11
232.0634441088
 21
65.0395117948
 31
0.0
  0
LINE
  5
165
330
1F
100
AcDbEntity
  8
0
  6
HIDDEN
 62
     7
370
    18
100
AcDbLine
 10
215.0963058624
 20
50.940820959
 30
0.0
 11
231.0670306497
 21
50.940820959
 31
0.0
  0
LINE
  5
166
330
1F
100
AcDbEntity
  8
0
  6
HIDDEN
 62
     7
370
    18
100
AcDbLine
 10
214.7606880464
 20
47.7182630536
 30
0.0
 11
214.7606876482
 21
51.4658329026
 31
0.0
  0
SPLINE
  5
167
330
1F
100
AcDbEntity
  8
0
  6
HIDDEN
 62
     7
370
    18
100
AcDbSpline
210
0.0
220
0.0
230
1.0
 70
     8
 71
     3
 72
    11
 73
     7
 74
     0
 42
0.00000001
 43
0.00000001
 40
0.0
 40
0.0
 40
0.0
 40
0.0
 40
0.0005819278601641
 40
0.0005819278601641
 40
0.0005819278601641
 40
0.0011638562605893
 40
0.0011638562605893
 40
0.0011638562605893
 40
0.0011638562605893
 10
214.7606876482182
 20
51.46583290256711
 30
0.0
 10
214.6233185904543
 20
51.48628535380593
 30
0.0
 10
214.4859562890367
 20
51.50683386425744
 30
0.0
 10
214.3486010278715
 20
51.5274758491448
 30
0.0
 10
214.2112456389141
 20
51.54811785323695
 30
0.0
 10
214.0738972584032
 20
51.56885333675699
 30
0.0
 10
213.9365558912387
 20
51.58968110224068
 30
0.0
  0
SPLINE
  5
168
330
1F
100
AcDbEntity
  8
0
  6
HIDDEN
 62
     7
370
    18
100
AcDbSpline
210
0.0
220
0.0
230
1.0
 70
     8
 71
     3
 72
    17
 73
    13
 74
     0
 42
0.00000001
 43
0.00000001
 40
0.0
 40
0.0
 40
0.0
 40
0.0
 40
0.2499999999999806
 40
0.3749999999999709
 40
0.437499999999966
 40
0.4687499999999636
 40
0.4843749999999632
 40
0.4921874999999639
 40
0.4921874999999639
 40
0.4999999999999646
 40
0.4999999999999646
 40
1.0
 40
1.0
 40
1.0
 40
1.0
 10
215.0963058624319
 20
50.94082095898569
 30
0.0
 10
215.0979840865875
 20
51.47414845199687
 30
0.0
 10
215.1005401547253
 20
52.26100557246616
 30
0.0
 10
215.1036022303855
 20
53.1560208776871
 30
0.0
 10
215.1051517782278
 20
53.59778236313257
 30
0.0
 10
215.1059309117507
 20
53.81722656406405
 30
0.0
 10
215.1063215249215
 20
53.92658952908199
 30
0.0
 10
215.1064891496021
 20
53.97338241363659
 30
0.0
 10
215.1066009474555
 20
54.00456056831829
 30
0.0
 10
215.1066528811081
 20
54.01903072657412
 30
0.0
 10
215.1105487205492
 20
55.1033830796793
 30
0.0
 10
215.1145176387613
 20
56.13361906853136
 30
0.0
 10
215.1186250620156
 20
57.12642103702426
 30
0.0
  0
SPLINE
  5
169
330
1F
100
AcDbEntity
  8
0
  6
HIDDEN
 62
     7
370
    18
100
AcDbSpline
210
0.0
220
0.0
230
1.0
 70
     8
 71
     3
 72
     8
 73
     4
 74
     0
 42
0.00000001
 43
0.00000001
 40
0.7056123488988899
 40
0.7056123488988899
 40
0.7056123488988899
 40
0.7056123488988899
 40
1.0
 40
1.0
 40
1.0
 40
1.0
 10
214.7606876482182
 20
51.46583290256711
 30
0.0
 10
214.8733744470777
 20
51.28913915537033
 30
0.0
 10
214.9852498945437
 20
51.11413451077209
 30
0.0
 10
215.0963058624319
 20
50.94082095898569
 30
0.0
  0
SPLINE
  5
16A
330
1F
100
AcDbEntity
  8
0
  6
HIDDEN
 62
     7
370
    18
100
AcDbSpline
210
0.0
220
0.0
230
1.0
 70
     8
 71
     3
 72
     8
 73
     4
 74
     0
 42
0.00000001
 43
0.00000001
 40
0.0
 40
0.0
 40
0.0
 40
0.0
 40
1.0
 40
1.0
 40
1.0
 40
1.0
 10
231.0950312147747
 20
50.94082095898569
 30
0.0
 10
231.0950452038333
 20
50.93177868558696
 30
0.0
 10
231.0950651891325
 20
50.92273571743514
 30
0.0
 10
231.0950843652168
 20
50.91369305656353
 30
0.0
  0
SPLINE
  5
16B
330
1F
100
AcDbEntity
  8
0
  6
HIDDEN
 62
     7
370
    18
100
AcDbSpline
210
0.0
220
0.0
230
1.0
 70
     8
 71
     3
 72
    18
 73
    14
 74
     0
 42
0.00000001
 43
0.00000001
 40
0.0
 40
0.0
 40
0.0
 40
0.0
 40
0.2499999999999906
 40
0.2499999999999906
 40
0.3749999999999858
 40
0.4374999999999842
 40
0.4687499999999843
 40
0.4843749999999843
 40
0.4921874999999843
 40
0.4921874999999843
 40
0.4999999999999843
 40
0.4999999999999843
 40
1.0
 40
1.0
 40
1.0
 40
1.0
 10
231.0793328458848
 20
57.12642103702426
 30
0.0
 10
231.0807781090099
 20
56.63021764046248
 30
0.0
 10
231.082202058907
 20
56.12456751895485
 30
0.0
 10
231.0842963308735
 20
55.35192223489388
 30
0.0
 10
231.0853333763995
 20
54.96205706741353
 30
0.0
 10
231.0865268736686
 20
54.50101495248247
 30
0.0
 10
231.0871199387231
 20
54.26894404013262
 30
0.0
 10
231.0874156091767
 20
54.15252112023661
 30
0.0
 10
231.0875421473984
 20
54.10254255519815
 30
0.0
 10
231.0876264675527
 20
54.06920506118573
 30
0.0
 10
231.0876714360148
 20
54.05140684623557
 30
0.0
 10
231.0902255538845
 20
53.0395547684858
 30
0.0
 10
231.0926665579112
 20
52.0078817910833
 30
0.0
 10
231.0950312147747
 20
50.94082095898569
 30
0.0
  0
SPLINE
  5
16C
330
1F
100
AcDbEntity
  8
0
  6
HIDDEN
 62
     7
370
    18
100
AcDbSpline
210
0.0
220
0.0
230
1.0
 70
     8
 71
     3
 72
    14
 73
    10
 74
     0
 42
0.00000001
 43
0.00000001
 40
0.0
 40
0.0
 40
0.0
 40
0.0
 40
0.0002964844419011
 40
0.0002964844419011
 40
0.0002964844419011
 40
0.0005929688838047
 40
0.0005929688838047
 40
0.0005929688838047
 40
0.0011814811696984
 40
0.0011814811696984
 40
0.0011814811696984
 40
0.0011814811696984
 10
232.0634441087613
 20
51.25306704607884
 30
0.0
 10
231.9824488461024
 20
51.22465636054722
 30
0.0
 10
231.9014521362232
 20
51.19625139628766
 30
0.0
 10
231.820453978016
 20
51.16785216144964
 30
0.0
 10
231.7394558198084
 20
51.13945292661147
 30
0.0
 10
231.6584562129806
 20
51.11105942109234
 30
0.0
 10
231.577455156425
 20
51.08267165305547
 30
0.0
 10
231.416670609374
 20
51.02632282725387
 30
0.0
 10
231.2558803485255
 20
50.96999660708846
 30
0.0
 10
231.0950843652168
 20
50.91369305656353
 30
0.0
  0
LINE
  5
16D
330
1F
100
AcDbEntity
  8
0
  6
HIDDEN
 62
     7
370
    18
100
AcDbLine
 10
231.0950843652
 20
50.9136930566
 30
0.0
 11
231.0670306497
 21
50.940820959
 31
0.0
  0
LINE
  5
16E
330
1F
100
AcDbEntity
  8
0
  6
HIDDEN
 62
     7
370
    18
100
AcDbLine
 10
231.0670306497
 20
50.940820959
 30
0.0
 11
231.0670306497
 21
47.7182630536
 31
0.0
  0
SPLINE
  5
16F
330
1F
100
AcDbEntity
  8
0
  6
HIDDEN
 62
     7
370
    18
100
AcDbSpline
210
0.0
220
0.0
230
1.0
 70
     8
 71
     3
 72
    13
 73
     9
 74
     0
 42
0.00000001
 43
0.00000001
 40
0.0
 40
0.0
 40
0.0
 40
0.0
 40
0.1457212188823196
 40
0.3177246243061095
 40
0.4865236567209295
 40
0.6587967674607768
 40
0.8275398681126717
 40
0.9999999999999999
 40
0.9999999999999999
 40
0.9999999999999999
 40
0.9999999999999999
 10
231.1979931796332
 20
59.99323779201074
 30
0.0
 10
231.1901732210949
 20
59.97916440565093
 30
0.0
 10
231.1731229012601
 20
59.9484793659005
 30
0.0
 10
231.1500503793614
 20
59.7013570398088
 30
0.0
 10
231.1281032202901
 20
59.29357276238064
 30
0.0
 10
231.1090987946968
 20
58.7238130374398
 30
0.0
 10
231.0924928998362
 20
58.01000377402264
 30
0.0
 10
231.0837512739785
 20
57.42307991112214
 30
0.0
 10
231.0793328458848
 20
57.12642103702426
 30
0.0
  0
LINE
  5
170
330
1F
100
AcDbEntity
  8
0
  6
HIDDEN
 62
     7
370
    18
100
AcDbLine
 10
214.9436052367
 20
60.0042650677
 30
0.0
 11
231.2016381316
 21
60.0042650677
 31
0.0
  0
SPLINE
  5
171
330
1F
100
AcDbEntity
  8
0
  6
HIDDEN
 62
     7
370
    18
100
AcDbSpline
210
0.0
220
0.0
230
1.0
 70
     8
 71
     3
 72
    13
 73
     9
 74
     0
 42
0.00000001
 43
0.00000001
 40
0.0
 40
0.0
 40
0.0
 40
0.0
 40
0.1943144726700726
 40
0.3942111710456317
 40
0.588478404819457
 40
0.7878982304765356
 40
0.9142008194740208
 40
1.0
 40
1.0
 40
1.0
 40
1.0
 10
215.1186250620156
 20
57.12642103702426
 30
0.0
 10
215.1116306412774
 20
57.45342783647057
 30
0.0
 10
215.0974408655388
 20
58.11683561859954
 30
0.0
 10
215.0698872526426
 20
58.88915537541373
 30
0.0
 10
215.0374579142043
 20
59.48370124639479
 30
0.0
 10
215.004364275968
 20
59.81401474415408
 30
0.0
 10
214.9757178509184
 20
59.9671076207438
 30
0.0
 10
214.9595705226423
 20
59.98322006484803
 30
0.0
 10
214.9530386227111
 20
59.98973785347147
 30
0.0
  0
LINE
  5
172
330
1F
100
AcDbEntity
  8
0
  6
HIDDEN
 62
     7
370
    18
100
AcDbLine
 10
214.9436052367
 20
60.0042650677
 30
0.0
 11
213.9365558912
 21
61.0113144132
 31
0.0
  0
LINE
  5
173
330
1F
100
AcDbEntity
  8
0
  6
HIDDEN
 62
     7
370
    18
100
AcDbLine
 10
231.2016381316
 20
60.0042650677
 30
0.0
 11
232.0618480428
 21
60.6894852724
 31
0.0
  0
LINE
  5
174
330
1F
100
AcDbEntity
  8
0
  6
HIDDEN
 62
     7
370
    18
100
AcDbLine
 10
231.0950243632
 20
50.940820959
 30
0.0
 11
231.0950839843
 21
50.9136893882
 31
0.0
  0
LINE
  5
175
330
1F
100
AcDbEntity
  8
0
  6
HIDDEN
 62
     7
370
    18
100
AcDbLine
 10
231.0670306497
 20
50.940820959
 30
0.0
 11
231.0950839843
 21
50.9136893882
 31
0.0
  0
LINE
  5
176
330
1F
100
AcDbEntity
  8
0
  6
HIDDEN
 62
     7
370
    18
100
AcDbLine
 10
231.210630821
 20
64.6076391249
 30
0.0
 11
232.0634441088
 21
63.9603202833
 31
0.0
  0
LINE
  5
177
330
1F
100
AcDbEntity
  8
0
  6
HIDDEN
 62
     7
370
    18
100
AcDbLine
 10
214.7893668088
 20
64.6076384119
 30
0.0
 11
213.9365558912
 21
63.9603206124
 31
0.0
  0
LINE
  5
178
330
1F
100
AcDbEntity
  8
0
  6
HIDDEN
 62
     7
370
    18
100
AcDbLine
 10
214.8161359956
 20
54.5235347061
 30
0.0
 11
213.9365558912
 21
53.8762158645
 31
0.0
  0
SPLINE
  5
179
330
1F
100
AcDbEntity
  8
0
  6
HIDDEN
 62
     7
370
    18
100
AcDbSpline
210
0.0
220
0.0
230
1.0
 70
    24
 71
     3
 72
    11
 73
     7
 74
     0
 42
0.00000001
 43
0.00000001
 40
0.0
 40
0.0
 40
0.0
 40
0.0
 40
0.0000201019853199
 40
0.0000201019853199
 40
0.0000201019853199
 40
1.00002010198532
 40
1.00002010198532
 40
1.00002010198532
 40
1.00002010198532
 10
231.1838464015793
 20
54.52354656772894
 30
0.0
 10
231.1838522953475
 20
54.52354223026818
 30
0.0
 10
231.1838581891158
 20
54.52353789280741
 30
0.0
 10
231.183864082884
 20
54.52353355534665
 30
0.0
 10
231.4770574248431
 20
54.30776079993899
 30
0.0
 10
231.7702507668022
 20
54.09198804453133
 30
0.0
 10
232.0634441087613
 20
53.87621528912367
 30
0.0
  0
LINE
  5
17A
330
1F
100
AcDbEntity
  8
0
  6
HIDDEN
 62
     7
370
    18
100
AcDbLine
 10
224.2588116818
 20
57.7887565078
 30
0.0
 11
223.0
 21
58.5451268742
 31
0.0
  0
LINE
  5
17B
330
1F
100
AcDbEntity
  8
0
  6
HIDDEN
 62
     7
370
    18
100
AcDbLine
 10
223.0
 20
58.5451268742
 30
0.0
 11
221.7411883182
 21
57.7887565078
 31
0.0
  0
LINE
  5
17C
330
1F
100
AcDbEntity
  8
0
  6
HIDDEN
 62
     7
370
    18
100
AcDbLine
 10
225.2658610272
 20
47.7182630536
 30
0.0
 11
225.2658610272
 21
57.7887565078
 31
0.0
  0
LINE
  5
17D
330
1F
100
AcDbEntity
  8
0
  6
HIDDEN
 62
     7
370
    18
100
AcDbLine
 10
220.7341389728
 20
57.7887565078
 30
0.0
 11
220.7341389728
 21
47.7182630536
 31
0.0
  0
SPLINE
  5
17E
330
1F
100
AcDbEntity
  8
0
  6
HIDDEN
 62
     7
370
    18
100
AcDbSpline
210
0.0
220
0.0
230
1.0
 70
     8
 71
     3
 72
     9
 73
     5
 74
     0
 42
0.00000001
 43
0.00000001
 40
0.0
 40
0.0
 40
0.0
 40
0.0
 40
0.5020583000488393
 40
1.0
 40
1.0
 40
1.0
 40
1.0
 10
214.9593629079208
 20
59.99346508404977
 30
0.0
 10
214.7879796134874
 20
60.1633722607299
 30
0.0
 10
214.4466182727492
 20
60.50179346930987
 30
0.0
 10
214.1061974529097
 20
60.84185283472465
 30
0.0
 10
213.93668773118
 20
61.0111825732236
 30
0.0
  0
SPLINE
  5
17F
330
1F
100
AcDbEntity
  8
0
  6
HIDDEN
 62
     7
370
    18
100
AcDbSpline
210
0.0
220
0.0
230
1.0
 70
     8
 71
     3
 72
     9
 73
     5
 74
     0
 42
0.00000001
 43
0.00000001
 40
0.0
 40
0.0
 40
0.0
 40
0.0
 40
0.4991137254317668
 40
1.0
 40
1.0
 40
1.0
 40
1.0
 10
232.0618480427877
 20
60.68948527243688
 30
0.0
 10
231.9173454540653
 20
60.5744359600125
 30
0.0
 10
231.6278270910962
 20
60.34392874980735
 30
0.0
 10
231.3378843397289
 20
60.11387218775313
 30
0.0
 10
231.1926559951585
 20
59.99864001344582
 30
0.0
  0
SPLINE
  5
180
330
1F
100
AcDbEntity
  8
0
  6
HIDDEN
 62
     7
370
    18
100
AcDbSpline
210
0.0
220
0.0
230
1.0
 70
     8
 71
     3
 72
     9
 73
     5
 74
     0
 42
0.00000001
 43
0.00000001
 40
0.0
 40
0.0
 40
0.0
 40
0.0
 40
0.4990189411805176
 40
1.0
 40
1.0
 40
1.0
 40
1.0
 10
232.0632472913225
 20
60.69059987638984
 30
0.0
 10
231.9185023651045
 20
60.57535750338548
 30
0.0
 10
231.6284433828229
 20
60.34441963010209
 30
0.0
 10
231.3381107422217
 20
60.11405297846448
 30
0.0
 10
231.1926595885235
 20
59.99864364941037
 30
0.0
  0
ENDSEC
  0
SECTION
  2
OBJECTS
  0
DICTIONARY
  5
C
330
0
100
AcDbDictionary
281
     1
  3
ACAD_GROUP
350
D
  3
ACAD_LAYOUT
350
1A
  3
ACAD_MLINESTYLE
350
17
  3
ACAD_PLOTSETTINGS
350
19
  3
ACAD_PLOTSTYLENAME
350
E
  3
ACAD_SCALELIST
350
47
  3
DWGPROPS
350
181
  0
DICTIONARY
  5
D
102
{ACAD_REACTORS
330
C
102
}
330
C
100
AcDbDictionary
281
     1
  0
DICTIONARY
  5
1A
102
{ACAD_REACTORS
330
C
102
}
330
C
100
AcDbDictionary
281
     1
  3
Layout1
350
1E
  3
Layout2
350
26
  3
Model
350
22
  0
DICTIONARY
  5
17
102
{ACAD_REACTORS
330
C
102
}
330
C
100
AcDbDictionary
281
     1
  3
Standard
350
18
  0
DICTIONARY
  5
19
102
{ACAD_REACTORS
330
C
102
}
330
C
100
AcDbDictionary
281
     1
  0
ACDBDICTIONARYWDFLT
  5
E
102
{ACAD_REACTORS
330
C
102
}
330
C
100
AcDbDictionary
281
     1
  3
Normal
350
F
100
AcDbDictionaryWithDefault
340
F
  0
DICTIONARY
  5
47
102
{ACAD_REACTORS
330
C
102
}
330
C
100
AcDbDictionary
281
     1
  3
A0
350
48
  3
A1
350
49
  3
A2
350
4A
  3
A3
350
4B
  3
A4
350
4C
  3
A5
350
4D
  3
A6
350
4E
  3
A7
350
4F
  3
A8
350
50
  3
A9
350
51
  3
B0
350
52
  3
B1
350
53
  3
B2
350
54
  3
B3
350
55
  3
B4
350
56
  3
B5
350
57
  3
B6
350
58
  0
XRECORD
  5
181
102
{ACAD_REACTORS
330
C
102
}
330
C
100
AcDbXrecord
280
     1
  1
DWGPROPS COOKIE
  2

  3

  4

  6

  7

  8

  9

300
=
301
=
302
=
303
=
304
=
305
=
306
=
307
=
308
=
309
=
 40
0.0
 41
2461215.375230984
 42
2461215.375231551
  1

 90
        0
  0
LAYOUT
  5
1E
102
{ACAD_REACTORS
330
1A
102
}
330
1A
100
AcDbPlotSettings
  1

  2
none_device
  4

  6

 40
0.0
 41
0.0
 42
0.0
 43
0.0
 44
0.0
 45
0.0
 46
0.0
 47
0.0
 48
0.0
 49
0.0
140
0.0
141
0.0
142
1.0
143
1.0
 70
   688
 72
     1
 73
     0
 74
     5
  7

 75
    16
147
1.0
148
0.0
149
0.0
100
AcDbLayout
  1
Layout1
 70
     1
 71
     1
 10
0.0
 20
0.0
 11
420.0
 21
297.0
 12
0.0
 22
0.0
 32
0.0
 14
1.0000000000E+20
 24
1.0000000000E+20
 34
1.0000000000E+20
 15
-1.0000000000E+20
 25
-1.0000000000E+20
 35
-1.0000000000E+20
146
0.0
 13
0.0
 23
0.0
 33
0.0
 16
1.0
 26
0.0
 36
0.0
 17
0.0
 27
1.0
 37
0.0
 76
     0
330
1B
  0
LAYOUT
  5
26
102
{ACAD_REACTORS
330
1A
102
}
330
1A
100
AcDbPlotSettings
  1

  2
none_device
  4

  6

 40
0.0
 41
0.0
 42
0.0
 43
0.0
 44
0.0
 45
0.0
 46
0.0
 47
0.0
 48
0.0
 49
0.0
140
0.0
141
0.0
142
1.0
143
1.0
 70
   688
 72
     1
 73
     0
 74
     5
  7

 75
    16
147
1.0
148
0.0
149
0.0
100
AcDbLayout
  1
Layout2
 70
     1
 71
     2
 10
0.0
 20
0.0
 11
0.0
 21
0.0
 12
0.0
 22
0.0
 32
0.0
 14
0.0
 24
0.0
 34
0.0
 15
0.0
 25
0.0
 35
0.0
146
0.0
 13
0.0
 23
0.0
 33
0.0
 16
1.0
 26
0.0
 36
0.0
 17
0.0
 27
1.0
 37
0.0
 76
     0
330
23
  0
LAYOUT
  5
22
102
{ACAD_REACTORS
330
1A
102
}
330
1A
100
AcDbPlotSettings
  1

  2
none_device
  4
Letter_(8.50_x_11.00_Inches)
  6

 40
6.35
 41
6.35
 42
6.35000508
 43
6.35000508
 44
215.9
 45
279.4
 46
0.0
 47
0.0
 48
0.0
 49
0.0
140
0.0
141
0.0
142
1.0
143
1.0
 70
  1712
 72
     1
 73
     0
 74
     0
  7

 75
     0
147
1.0
148
0.0
149
0.0
100
AcDbLayout
  1
Model
 70
     1
 71
     0
 10
0.0
 20
0.0
 11
297.0
 21
210.0
 12
0.0
 22
0.0
 32
0.0
 14
0.0
 24
0.0
 34
0.0
 15
297.0
 25
210.0
 35
0.0
146
0.0
 13
0.0
 23
0.0
 33
0.0
 16
1.0
 26
0.0
 36
0.0
 17
0.0
 27
1.0
 37
0.0
 76
     0
330
1F
331
29
  0
MLINESTYLE
  5
18
102
{ACAD_REACTORS
330
17
102
}
330
17
100
AcDbMlineStyle
  2
Standard
 70
     0
  3

 62
   256
 51
90.0
 52
90.0
 71
     2
 49
0.5
 62
   256
  6
BYLAYER
 49
-0.5
 62
   256
  6
BYLAYER
  0
ACDBPLACEHOLDER
  5
F
102
{ACAD_REACTORS
330
E
102
}
330
E
  0
SCALE
  5
48
102
{ACAD_REACTORS
330
47
102
}
330
47
100
AcDbScale
 70
     0
300
1:1
140
1.0
141
1.0
290
     1
  0
SCALE
  5
49
102
{ACAD_REACTORS
330
47
102
}
330
47
100
AcDbScale
 70
     0
300
1:2
140
1.0
141
2.0
290
     0
  0
SCALE
  5
4A
102
{ACAD_REACTORS
330
47
102
}
330
47
100
AcDbScale
 70
     0
300
1:4
140
1.0
141
4.0
290
     0
  0
SCALE
  5
4B
102
{ACAD_REACTORS
330
47
102
}
330
47
100
AcDbScale
 70
     0
300
1:5
140
1.0
141
5.0
290
     0
  0
SCALE
  5
4C
102
{ACAD_REACTORS
330
47
102
}
330
47
100
AcDbScale
 70
     0
300
1:8
140
1.0
141
8.0
290
     0
  0
SCALE
  5
4D
102
{ACAD_REACTORS
330
47
102
}
330
47
100
AcDbScale
 70
     0
300
1:10
140
1.0
141
10.0
290
     0
  0
SCALE
  5
4E
102
{ACAD_REACTORS
330
47
102
}
330
47
100
AcDbScale
 70
     0
300
1:16
140
1.0
141
16.0
290
     0
  0
SCALE
  5
4F
102
{ACAD_REACTORS
330
47
102
}
330
47
100
AcDbScale
 70
     0
300
1:20
140
1.0
141
20.0
290
     0
  0
SCALE
  5
50
102
{ACAD_REACTORS
330
47
102
}
330
47
100
AcDbScale
 70
     0
300
1:30
140
1.0
141
30.0
290
     0
  0
SCALE
  5
51
102
{ACAD_REACTORS
330
47
102
}
330
47
100
AcDbScale
 70
     0
300
1:40
140
1.0
141
40.0
290
     0
  0
SCALE
  5
52
102
{ACAD_REACTORS
330
47
102
}
330
47
100
AcDbScale
 70
     0
300
1:50
140
1.0
141
50.0
290
     0
  0
SCALE
  5
53
102
{ACAD_REACTORS
330
47
102
}
330
47
100
AcDbScale
 70
     0
300
1:100
140
1.0
141
100.0
290
     0
  0
SCALE
  5
54
102
{ACAD_REACTORS
330
47
102
}
330
47
100
AcDbScale
 70
     0
300
2:1
140
2.0
141
1.0
290
     0
  0
SCALE
  5
55
102
{ACAD_REACTORS
330
47
102
}
330
47
100
AcDbScale
 70
     0
300
4:1
140
4.0
141
1.0
290
     0
  0
SCALE
  5
56
102
{ACAD_REACTORS
330
47
102
}
330
47
100
AcDbScale
 70
     0
300
8:1
140
8.0
141
1.0
290
     0
  0
SCALE
  5
57
102
{ACAD_REACTORS
330
47
102
}
330
47
100
AcDbScale
 70
     0
300
10:1
140
10.0
141
1.0
290
     0
  0
SCALE
  5
58
102
{ACAD_REACTORS
330
47
102
}
330
47
100
AcDbScale
 70
     0
300
100:1
140
100.0
141
1.0
290
     0
  0
ENDSEC
  0
EOF
