  0
SECTION
  2
HEADER
  9
$ACADVER
  1
AC1015
  9
$ACADMAINTVER
 70
     6
  9
$DWGCODEPAGE
  3
ANSI_936
  9
$INSBASE
 10
0.0
 20
0.0
 30
0.0
  9
$EXTMIN
 10
0.0
 20
0.0
 30
0.0
  9
$EXTMAX
 10
297.0
 20
210.0
 30
0.0
  9
$LIMMIN
 10
0.0
 20
0.0
  9
$LIMMAX
 10
297.0
 20
210.0
  9
$ORTHOMODE
 70
     0
  9
$REGENMODE
 70
     1
  9
$FILLMODE
 70
     1
  9
$QTEXTMODE
 70
     0
  9
$MIRRTEXT
 70
     1
  9
$LTSCALE
 40
1.0
  9
$ATTMODE
 70
     1
  9
$TEXTSIZE
 40
3.5
  9
$TRACEWID
 40
1.0
  9
$TEXTSTYLE
  7
Standard
  9
$CLAYER
  8
0
  9
$CELTYPE
  6
ByLayer
  9
$CECOLOR
 62
   256
  9
$CELTSCALE
 40
1.0
  9
$DISPSILH
 70
     0
  9
$DIMSCALE
 40
1.0
  9
$DIMASZ
 40
4.08
  9
$DIMEXO
 40
0.0
  9
$DIMDLI
 40
3.75
  9
$DIMRND
 40
0.0
  9
$DIMDLE
 40
0.0
  9
$DIMEXE
 40
2.0
  9
$DIMTP
 40
0.0
  9
$DIMTM
 40
0.0
  9
$DIMTXT
 40
3.5
  9
$DIMCEN
 40
2.5
  9
$DIMTSZ
 40
0.0
  9
$DIMTOL
 70
     0
  9
$DIMLIM
 70
     0
  9
$DIMTIH
 70
     1
  9
$DIMTOH
 70
     1
  9
$DIMSE1
 70
     0
  9
$DIMSE2
 70
     0
  9
$DIMTAD
 70
     1
  9
$DIMZIN
 70
     0
  9
$DIMBLK
  1

  9
$DIMASO
 70
     1
  9
$DIMSHO
 70
     1
  9
$DIMPOST
  1

  9
$DIMAPOST
  1

  9
$DIMALT
 70
     0
  9
$DIMALTD
 70
     3
  9
$DIMALTF
 40
0.0393700787
  9
$DIMLFAC
 40
2.0
  9
$DIMTOFL
 70
     1
  9
$DIMTVP
 40
0.0
  9
$DIMTIX
 70
     0
  9
$DIMSOXD
 70
     0
  9
$DIMSAH
 70
     0
  9
$DIMBLK1
  1

  9
$DIMBLK2
  1

  9
$DIMSTYLE
  2
ISO-25
  9
$DIMCLRD
 70
     0
  9
$DIMCLRE
 70
     0
  9
$DIMCLRT
 70
     0
  9
$DIMTFAC
 40
1.0
  9
$DIMGAP
 40
1.524
  9
$DIMJUST
 70
     0
  9
$DIMSD1
 70
     0
  9
$DIMSD2
 70
     0
  9
$DIMTOLJ
 70
     0
  9
$DIMTZIN
 70
     0
  9
$DIMALTZ
 70
     0
  9
$DIMALTTZ
 70
     0
  9
$DIMUPT
 70
     0
  9
$DIMDEC
 70
     2
  9
$DIMTDEC
 70
     2
  9
$DIMALTU
 70
     2
  9
$DIMALTTD
 70
     3
  9
$DIMTXSTY
  7
Standard
  9
$DIMAUNIT
 70
     0
  9
$DIMADEC
 70
     2
  9
$DIMALTRND
 40
0.0
  9
$DIMAZIN
 70
     0
  9
$DIMDSEP
 70
    44
  9
$DIMATFIT
 70
     3
  9
$DIMFRAC
 70
     0
  9
$DIMLDRBLK
  1

  9
$DIMLUNIT
 70
     2
  9
$DIMLWD
 70
    -2
  9
$DIMLWE
 70
    -2
  9
$DIMTMOVE
 70
     0
  9
$LUNITS
 70
     2
  9
$LUPREC
 70
     2
  9
$SKETCHINC
 40
1.0
  9
$FILLETRAD
 40
0.0
  9
$AUNITS
 70
     0
  9
$AUPREC
 70
     2
  9
$MENU
  1
.
  9
$ELEVATION
 40
0.0
  9
$PELEVATION
 40
0.0
  9
$THICKNESS
 40
0.0
  9
$LIMCHECK
 70
     0
  9
$CHAMFERA
 40
0.0
  9
$CHAMFERB
 40
0.0
  9
$CHAMFERC
 40
0.0
  9
$CHAMFERD
 40
0.0
  9
$SKPOLY
 70
     0
  9
$TDCREATE
 40
2461213.432741019
  9
$TDUCREATE
 40
2461213.099407685
  9
$TDUPDATE
 40
2461213.432741366
  9
$TDUUPDATE
 40
2461213.099408033
  9
$TDINDWG
 40
0.0000000116
  9
$TDUSRTIMER
 40
0.0000000116
  9
$USRTIMER
 70
     1
  9
$ANGBASE
 50
0.0
  9
$ANGDIR
 70
     0
  9
$PDMODE
 70
     0
  9
$PDSIZE
 40
-1.0
  9
$PLINEWID
 40
0.0
  9
$SPLFRAME
 70
     0
  9
$SPLINETYPE
 70
     6
  9
$SPLINESEGS
 70
     8
  9
$HANDSEED
  5
10B
  9
$SURFTAB1
 70
     6
  9
$SURFTAB2
 70
     6
  9
$SURFTYPE
 70
     6
  9
$SURFU
 70
     6
  9
$SURFV
 70
     6
  9
$UCSBASE
  2

  9
$UCSNAME
  2

  9
$UCSORG
 10
0.0
 20
0.0
 30
0.0
  9
$UCSXDIR
 10
1.0
 20
0.0
 30
0.0
  9
$UCSYDIR
 10
0.0
 20
1.0
 30
0.0
  9
$UCSORTHOREF
  2

  9
$UCSORTHOVIEW
 70
     0
  9
$UCSORGTOP
 10
0.0
 20
0.0
 30
0.0
  9
$UCSORGBOTTOM
 10
0.0
 20
0.0
 30
0.0
  9
$UCSORGLEFT
 10
0.0
 20
0.0
 30
0.0
  9
$UCSORGRIGHT
 10
0.0
 20
0.0
 30
0.0
  9
$UCSORGFRONT
 10
0.0
 20
0.0
 30
0.0
  9
$UCSORGBACK
 10
0.0
 20
0.0
 30
0.0
  9
$PUCSBASE
  2

  9
$PUCSNAME
  2

  9
$PUCSORG
 10
0.0
 20
0.0
 30
0.0
  9
$PUCSXDIR
 10
1.0
 20
0.0
 30
0.0
  9
$PUCSYDIR
 10
0.0
 20
1.0
 30
0.0
  9
$PUCSORTHOREF
  2

  9
$PUCSORTHOVIEW
 70
     0
  9
$PUCSORGTOP
 10
0.0
 20
0.0
 30
0.0
  9
$PUCSORGBOTTOM
 10
0.0
 20
0.0
 30
0.0
  9
$PUCSORGLEFT
 10
0.0
 20
0.0
 30
0.0
  9
$PUCSORGRIGHT
 10
0.0
 20
0.0
 30
0.0
  9
$PUCSORGFRONT
 10
0.0
 20
0.0
 30
0.0
  9
$PUCSORGBACK
 10
0.0
 20
0.0
 30
0.0
  9
$USERI1
 70
     0
  9
$USERI2
 70
     0
  9
$USERI3
 70
     0
  9
$USERI4
 70
     0
  9
$USERI5
 70
     0
  9
$USERR1
 40
0.0
  9
$USERR2
 40
0.0
  9
$USERR3
 40
0.0
  9
$USERR4
 40
0.0
  9
$USERR5
 40
0.0
  9
$WORLDVIEW
 70
     1
  9
$SHADEDGE
 70
     3
  9
$SHADEDIF
 70
    70
  9
$TILEMODE
 70
     1
  9
$MAXACTVP
 70
    64
  9
$PINSBASE
 10
0.0
 20
0.0
 30
0.0
  9
$PLIMCHECK
 70
     0
  9
$PEXTMIN
 10
1.0000000000E+20
 20
1.0000000000E+20
 30
1.0000000000E+20
  9
$PEXTMAX
 10
-1.0000000000E+20
 20
-1.0000000000E+20
 30
-1.0000000000E+20
  9
$PLIMMIN
 10
0.0
 20
0.0
  9
$PLIMMAX
 10
420.0
 20
297.0
  9
$UNITMODE
 70
     0
  9
$VISRETAIN
 70
     1
  9
$PLINEGEN
 70
     0
  9
$PSLTSCALE
 70
     1
  9
$TREEDEPTH
 70
  3020
  9
$CMLSTYLE
  2
Standard
  9
$CMLJUST
 70
     0
  9
$CMLSCALE
 40
20.0
  9
$PROXYGRAPHICS
 70
     1
  9
$MEASUREMENT
 70
     1
  9
$CELWEIGHT
370
    -1
  9
$ENDCAPS
280
     0
  9
$JOINSTYLE
280
     0
  9
$LWDISPLAY
290
     1
  9
$INSUNITS
 70
     4
  9
$HYPERLINKBASE
  1

  9
$STYLESHEET
  1

  9
$XEDIT
290
     1
  9
$CEPSNTYPE
380
     0
  9
$PSTYLEMODE
290
     1
  9
$FINGERPRINTGUID
  2
{978c278e-8263-4666-807a-08ede5e969de}
  9
$VERSIONGUID
  2
{FAEB1C32-E019-11D5-929B-00C0DF256EC4}
  9
$EXTNAMES
290
     1
  9
$PSVPSCALE
 40
0.0
  9
$OLESTARTUP
290
     0
  0
ENDSEC
  0
SECTION
  2
CLASSES
  0
CLASS
  1
ACDBDICTIONARYWDFLT
  2
AcDbDictionaryWithDefault
  3
ObjectDBX Classes
 90
        0
280
     0
281
     0
  0
CLASS
  1
VISUALSTYLE
  2
AcDbVisualStyle
  3
ObjectDBX Classes
 90
     4095
280
     0
281
     0
  0
CLASS
  1
MATERIAL
  2
AcDbMaterial
  3
ObjectDBX Classes
 90
     1153
280
     0
281
     0
  0
CLASS
  1
SCALE
  2
AcDbScale
  3
ObjectDBX Classes
 90
     1153
280
     0
281
     0
  0
CLASS
  1
TABLESTYLE
  2
AcDbTableStyle
  3
ObjectDBX Classes
 90
     4095
280
     0
281
     0
  0
CLASS
  1
MLEADERSTYLE
  2
AcDbMLeaderStyle
  3
ACDB_MLEADERSTYLE_CLASS
 90
     4095
280
     0
281
     0
  0
CLASS
  1
SUN
  2
AcDbSun
  3
SCENEOE
 90
     1153
280
     0
281
     0
  0
CLASS
  1
ACDBPLACEHOLDER
  2
AcDbPlaceHolder
  3
ObjectDBX Classes
 90
        0
280
     0
281
     0
  0
CLASS
  1
LAYOUT
  2
AcDbLayout
  3
ObjectDBX Classes
 90
        0
280
     0
281
     0
  0
ENDSEC
  0
SECTION
  2
TABLES
  0
TABLE
  2
VPORT
  5
8
330
0
100
AcDbSymbolTable
 70
     1
  0
VPORT
  5
29
330
8
100
AcDbSymbolTableRecord
100
AcDbViewportTableRecord
  2
*Active
 70
     0
 10
0.0
 20
0.0
 11
1.0
 21
1.0
 12
148.5
 22
105.0
 13
0.0
 23
0.0
 14
10.0
 24
10.0
 15
10.0
 25
10.0
 16
0.0
 26
0.0
 36
1.0
 17
0.0
 27
0.0
 37
0.0
 40
210.0
 41
1.4142857143
 42
50.0
 43
0.0
 44
0.0
 50
0.0
 51
0.0
 71
     0
 72
  2000
 73
     1
 74
     3
 75
     0
 76
     0
 77
     0
 78
     0
281
     0
 65
     1
110
0.0
120
0.0
130
0.0
111
1.0
121
0.0
131
0.0
112
0.0
122
1.0
132
0.0
 79
     0
146
0.0
  0
ENDTAB
  0
TABLE
  2
LTYPE
  5
5
330
0
100
AcDbSymbolTable
 70
     6
  0
LTYPE
  5
14
330
5
100
AcDbSymbolTableRecord
100
AcDbLinetypeTableRecord
  2
ByBlock
 70
     0
  3

 72
    65
 73
     0
 40
0.0
  0
LTYPE
  5
15
330
5
100
AcDbSymbolTableRecord
100
AcDbLinetypeTableRecord
  2
ByLayer
 70
     0
  3

 72
    65
 73
     0
 40
0.0
  0
LTYPE
  5
16
330
5
100
AcDbSymbolTableRecord
100
AcDbLinetypeTableRecord
  2
Continuous
 70
     0
  3
Solid line
 72
    65
 73
     0
 40
0.0
  0
LTYPE
  5
5E
330
5
100
AcDbSymbolTableRecord
100
AcDbLinetypeTableRecord
  2
HIDDEN
 70
     0
  3
Hidden __ __ __ __ __ __ __ __ __ __ __ __ __ __
 72
    65
 73
     2
 40
1.905
 49
1.27
 74
     0
 49
-0.635
 74
     0
  0
LTYPE
  5
5F
330
5
100
AcDbSymbolTableRecord
100
AcDbLinetypeTableRecord
  2
PHANTOM
 70
     0
  3
Phantom ______  __  __  ______  __  __  ______
 72
    65
 73
     6
 40
12.7
 49
6.35
 74
     0
 49
-1.27
 74
     0
 49
1.27
 74
     0
 49
-1.27
 74
     0
 49
1.27
 74
     0
 49
-1.27
 74
     0
  0
LTYPE
  5
60
330
5
100
AcDbSymbolTableRecord
100
AcDbLinetypeTableRecord
  2
CENTER
 70
     0
  3
Center ____ _ ____ _ ____ _ ____ _ ____ _ ____
 72
    65
 73
     4
 40
10.16
 49
6.35
 74
     0
 49
-1.27
 74
     0
 49
1.27
 74
     0
 49
-1.27
 74
     0
  0
LTYPE
  5
61
330
5
100
AcDbSymbolTableRecord
100
AcDbLinetypeTableRecord
  2
CENTERX2
 70
     0
  3
Center (2x) ________  __  ________  __  _____
 72
    65
 73
     4
 40
20.32
 49
12.7
 74
     0
 49
-2.54
 74
     0
 49
2.54
 74
     0
 49
-2.54
 74
     0
  0
LTYPE
  5
62
330
5
100
AcDbSymbolTableRecord
100
AcDbLinetypeTableRecord
  2
DOT2
 70
     0
  3
Dot (.5x) ........................................
 72
    65
 73
     2
 40
0.635
 49
0.0
 74
     0
 49
-0.635
 74
     0
  0
ENDTAB
  0
TABLE
  2
LAYER
  5
2
330
0
100
AcDbSymbolTable
 70
    14
  0
LAYER
  5
10
330
2
100
AcDbSymbolTableRecord
100
AcDbLayerTableRecord
  2
0
 70
     0
 62
     7
  6
Continuous
370
    -3
390
F
  0
LAYER
  5
63
330
2
100
AcDbSymbolTableRecord
100
AcDbLayerTableRecord
  2
SLD-0
 70
     0
 62
     7
  6
Continuous
370
    -3
390
F
  0
LAYER
  5
64
330
2
100
AcDbSymbolTableRecord
100
AcDbLayerTableRecord
  2
5
 70
     0
 62
     7
  6
Continuous
370
    -3
390
F
  0
LAYER
  5
65
330
2
100
AcDbSymbolTableRecord
100
AcDbLayerTableRecord
  2
9
 70
     0
 62
     7
  6
Continuous
370
    -3
390
F
  0
LAYER
  5
66
330
2
100
AcDbSymbolTableRecord
100
AcDbLayerTableRecord
  2
10
 70
     0
 62
     7
  6
Continuous
370
    -3
390
F
  0
LAYER
  5
67
330
2
100
AcDbSymbolTableRecord
100
AcDbLayerTableRecord
  2
轮廓实线层
 70
     0
 62
     7
  6
Continuous
370
    50
390
F
  0
LAYER
  5
68
330
2
100
AcDbSymbolTableRecord
100
AcDbLayerTableRecord
  2
细线层
 70
     0
 62
     4
  6
Continuous
370
    25
390
F
  0
LAYER
  5
69
330
2
100
AcDbSymbolTableRecord
100
AcDbLayerTableRecord
  2
中心线层
 70
     0
 62
     1
  6
CENTERX2
370
    25
390
F
  0
LAYER
  5
6A
330
2
100
AcDbSymbolTableRecord
100
AcDbLayerTableRecord
  2
虚线层
 70
     0
 62
     6
  6
HIDDEN
370
    25
390
F
  0
LAYER
  5
6B
330
2
100
AcDbSymbolTableRecord
100
AcDbLayerTableRecord
  2
剖面线层
 70
     0
 62
     2
  6
Continuous
370
    25
390
F
  0
LAYER
  5
6C
330
2
100
AcDbSymbolTableRecord
100
AcDbLayerTableRecord
  2
文字层
 70
     0
 62
     3
  6
Continuous
370
    25
390
F
  0
LAYER
  5
6D
330
2
100
AcDbSymbolTableRecord
100
AcDbLayerTableRecord
  2
标注层
 70
     0
 62
     4
  6
Continuous
370
    25
390
F
  0
LAYER
  5
6E
330
2
100
AcDbSymbolTableRecord
100
AcDbLayerTableRecord
  2
符号标注层
 70
     0
 62
    31
  6
Continuous
370
    25
390
F
  0
LAYER
  5
6F
330
2
100
AcDbSymbolTableRecord
100
AcDbLayerTableRecord
  2
双点划线层
 70
     0
 62
     6
  6
PHANTOM
370
    25
390
F
  0
ENDTAB
  0
TABLE
  2
STYLE
  5
3
330
0
100
AcDbSymbolTable
 70
     1
  0
STYLE
  5
11
330
3
100
AcDbSymbolTableRecord
100
AcDbTextStyleTableRecord
  2
Standard
 70
     0
 40
0.0
 41
1.0
 50
0.0
 71
     0
 42
3.5
  3
txt
  4

  0
ENDTAB
  0
TABLE
  2
VIEW
  5
6
330
0
100
AcDbSymbolTable
 70
     0
  0
ENDTAB
  0
TABLE
  2
UCS
  5
7
330
0
100
AcDbSymbolTable
 70
     0
  0
ENDTAB
  0
TABLE
  2
APPID
  5
9
330
0
100
AcDbSymbolTable
 70
     1
  0
APPID
  5
12
330
9
100
AcDbSymbolTableRecord
100
AcDbRegAppTableRecord
  2
ACAD
 70
     0
  0
ENDTAB
  0
TABLE
  2
DIMSTYLE
  5
A
330
0
100
AcDbSymbolTable
 70
     1
100
AcDbDimStyleTable
  0
DIMSTYLE
105
27
330
A
100
AcDbSymbolTableRecord
100
AcDbDimStyleTableRecord
  2
ISO-25
 70
     0
 41
2.5
 42
0.625
 43
3.75
 44
1.25
 73
     0
 74
     0
 77
     1
 78
     8
140
2.5
141
2.5
143
0.0393700787
147
0.625
171
     3
172
     1
178
     0
271
     2
272
     2
274
     3
278
    44
283
     0
284
     8
340
11
  0
ENDTAB
  0
TABLE
  2
BLOCK_RECORD
  5
1
330
0
100
AcDbSymbolTable
 70
     4
  0
BLOCK_RECORD
  5
1F
330
1
100
AcDbSymbolTableRecord
100
AcDbBlockTableRecord
  2
*Model_Space
340
22
  0
BLOCK_RECORD
  5
1B
330
1
100
AcDbSymbolTableRecord
100
AcDbBlockTableRecord
  2
*Paper_Space
340
1E
  0
BLOCK_RECORD
  5
23
330
1
100
AcDbSymbolTableRecord
100
AcDbBlockTableRecord
  2
*Paper_Space0
340
26
  0
BLOCK_RECORD
  5
B3
330
1
100
AcDbSymbolTableRecord
100
AcDbBlockTableRecord
  2
SW_CENTERMARKSYMBOL_0
340
0
102
{BLKREFS
331
BE
102
}
  0
BLOCK_RECORD
  5
D9
330
1
100
AcDbSymbolTableRecord
100
AcDbBlockTableRecord
  2
SW_CENTERMARKSYMBOL_1
340
0
102
{BLKREFS
331
E4
102
}
  0
BLOCK_RECORD
  5
E5
330
1
100
AcDbSymbolTableRecord
100
AcDbBlockTableRecord
  2
SW_CENTERMARKSYMBOL_2
340
0
102
{BLKREFS
331
F0
102
}
  0
ENDTAB
  0
ENDSEC
  0
SECTION
  2
BLOCKS
  0
BLOCK
  5
20
330
1F
100
AcDbEntity
  8
0
100
AcDbBlockBegin
  2
*Model_Space
 70
     0
 10
0.0
 20
0.0
 30
0.0
  3
*Model_Space
  1

  0
ENDBLK
  5
21
330
1F
100
AcDbEntity
  8
0
100
AcDbBlockEnd
  0
BLOCK
  5
1C
330
1B
100
AcDbEntity
 67
     1
  8
0
100
AcDbBlockBegin
  2
*Paper_Space
 70
     0
 10
0.0
 20
0.0
 30
0.0
  3
*Paper_Space
  1

  0
ENDBLK
  5
1D
330
1B
100
AcDbEntity
 67
     1
  8
0
100
AcDbBlockEnd
  0
BLOCK
  5
24
330
23
100
AcDbEntity
  8
0
100
AcDbBlockBegin
  2
*Paper_Space0
 70
     0
 10
0.0
 20
0.0
 30
0.0
  3
*Paper_Space0
  1

  0
ENDBLK
  5
25
330
23
100
AcDbEntity
  8
0
100
AcDbBlockEnd
  0
BLOCK
  5
B4
330
B3
100
AcDbEntity
  8
0
100
AcDbBlockBegin
  2
SW_CENTERMARKSYMBOL_0
 70
     0
 10
0.0
 20
0.0
 30
0.0
  3
SW_CENTERMARKSYMBOL_0
  1

  0
LINE
  5
B6
330
B3
100
AcDbEntity
  8
10
 62
     0
100
AcDbLine
 10
0.0
 20
0.0
 30
0.0
 11
0.0
 21
2.5
 31
0.0
  0
LINE
  5
B7
330
B3
100
AcDbEntity
  8
10
 62
     0
100
AcDbLine
 10
0.0
 20
0.0
 30
0.0
 11
-2.5
 21
0.0
 31
0.0
  0
LINE
  5
B8
330
B3
100
AcDbEntity
  8
10
 62
     0
100
AcDbLine
 10
0.0
 20
0.0
 30
0.0
 11
0.0
 21
-2.5
 31
0.0
  0
LINE
  5
B9
330
B3
100
AcDbEntity
  8
10
 62
     0
100
AcDbLine
 10
0.0
 20
0.0
 30
0.0
 11
2.5
 21
0.0
 31
0.0
  0
LINE
  5
BA
330
B3
100
AcDbEntity
  8
10
 62
     0
100
AcDbLine
 10
0.0
 20
5.0
 30
0.0
 11
0.0
 21
83.4183365826
 31
0.0
  0
LINE
  5
BB
330
B3
100
AcDbEntity
  8
10
 62
     0
100
AcDbLine
 10
-5.0
 20
0.0
 30
0.0
 11
-83.4183365826
 21
0.0
 31
0.0
  0
LINE
  5
BC
330
B3
100
AcDbEntity
  8
10
 62
     0
100
AcDbLine
 10
0.0
 20
-5.0
 30
0.0
 11
0.0
 21
-83.4183365826
 31
0.0
  0
LINE
  5
BD
330
B3
100
AcDbEntity
  8
10
 62
     0
100
AcDbLine
 10
5.0
 20
0.0
 30
0.0
 11
83.4183365826
 21
0.0
 31
0.0
  0
ENDBLK
  5
B5
330
B3
100
AcDbEntity
  8
0
100
AcDbBlockEnd
  0
BLOCK
  5
DA
330
D9
100
AcDbEntity
  8
0
100
AcDbBlockBegin
  2
SW_CENTERMARKSYMBOL_1
 70
     0
 10
0.0
 20
0.0
 30
0.0
  3
SW_CENTERMARKSYMBOL_1
  1

  0
LINE
  5
DC
330
D9
100
AcDbEntity
  8
10
 62
     0
100
AcDbLine
 10
0.0
 20
0.0
 30
0.0
 11
0.0
 21
2.5
 31
0.0
  0
LINE
  5
DD
330
D9
100
AcDbEntity
  8
10
 62
     0
100
AcDbLine
 10
0.0
 20
0.0
 30
0.0
 11
-2.5
 21
0.0
 31
0.0
  0
LINE
  5
DE
330
D9
100
AcDbEntity
  8
10
 62
     0
100
AcDbLine
 10
0.0
 20
0.0
 30
0.0
 11
0.0
 21
-2.5
 31
0.0
  0
LINE
  5
DF
330
D9
100
AcDbEntity
  8
10
 62
     0
100
AcDbLine
 10
0.0
 20
0.0
 30
0.0
 11
2.5
 21
0.0
 31
0.0
  0
LINE
  5
E0
330
D9
100
AcDbEntity
  8
10
 62
     0
100
AcDbLine
 10
0.0
 20
5.0
 30
0.0
 11
0.0
 21
5.616144602
 31
0.0
  0
LINE
  5
E1
330
D9
100
AcDbEntity
  8
10
 62
     0
100
AcDbLine
 10
-5.0
 20
0.0
 30
0.0
 11
-5.616144602
 21
0.0
 31
0.0
  0
LINE
  5
E2
330
D9
100
AcDbEntity
  8
10
 62
     0
100
AcDbLine
 10
0.0
 20
-5.0
 30
0.0
 11
0.0
 21
-5.616144602
 31
0.0
  0
LINE
  5
E3
330
D9
100
AcDbEntity
  8
10
 62
     0
100
AcDbLine
 10
5.0
 20
0.0
 30
0.0
 11
5.616144602
 21
0.0
 31
0.0
  0
ENDBLK
  5
DB
330
D9
100
AcDbEntity
  8
0
100
AcDbBlockEnd
  0
BLOCK
  5
E6
330
E5
100
AcDbEntity
  8
0
100
AcDbBlockBegin
  2
SW_CENTERMARKSYMBOL_2
 70
     0
 10
0.0
 20
0.0
 30
0.0
  3
SW_CENTERMARKSYMBOL_2
  1

  0
LINE
  5
E8
330
E5
100
AcDbEntity
  8
10
 62
     0
100
AcDbLine
 10
0.0
 20
0.0
 30
0.0
 11
0.0
 21
2.5
 31
0.0
  0
LINE
  5
E9
330
E5
100
AcDbEntity
  8
10
 62
     0
100
AcDbLine
 10
0.0
 20
0.0
 30
0.0
 11
-2.5
 21
0.0
 31
0.0
  0
LINE
  5
EA
330
E5
100
AcDbEntity
  8
10
 62
     0
100
AcDbLine
 10
0.0
 20
0.0
 30
0.0
 11
0.0
 21
-2.5
 31
0.0
  0
LINE
  5
EB
330
E5
100
AcDbEntity
  8
10
 62
     0
100
AcDbLine
 10
0.0
 20
0.0
 30
0.0
 11
2.5
 21
0.0
 31
0.0
  0
LINE
  5
EC
330
E5
100
AcDbEntity
  8
10
 62
     0
100
AcDbLine
 10
0.0
 20
5.0
 30
0.0
 11
0.0
 21
5.616144602
 31
0.0
  0
LINE
  5
ED
330
E5
100
AcDbEntity
  8
10
 62
     0
100
AcDbLine
 10
-5.0
 20
0.0
 30
0.0
 11
-5.616144602
 21
0.0
 31
0.0
  0
LINE
  5
EE
330
E5
100
AcDbEntity
  8
10
 62
     0
100
AcDbLine
 10
0.0
 20
-5.0
 30
0.0
 11
0.0
 21
-5.616144602
 31
0.0
  0
LINE
  5
EF
330
E5
100
AcDbEntity
  8
10
 62
     0
100
AcDbLine
 10
5.0
 20
0.0
 30
0.0
 11
5.616144602
 21
0.0
 31
0.0
  0
ENDBLK
  5
E7
330
E5
100
AcDbEntity
  8
0
100
AcDbBlockEnd
  0
ENDSEC
  0
SECTION
  2
ENTITIES
  0
SPLINE
  5
70
330
1F
100
AcDbEntity
  8
0
  6
Continuous
 62
     7
370
    25
100
AcDbSpline
210
0.0
220
0.0
230
1.0
 70
     8
 71
     3
 72
     9
 73
     5
 74
     0
 42
0.00000001
 43
0.00000001
 40
0.0
 40
0.0
 40
0.0
 40
0.0
 40
0.3820300231611483
 40
1.0
 40
1.0
 40
1.0
 40
1.0
 10
130.7198983528177
 20
28.11647305666574
 30
0.0
 10
130.7198994868193
 20
28.65481204344851
 30
0.0
 10
130.7199024551764
 20
30.0639656548014
 30
0.0
 10
130.7199049200531
 20
31.45072623507007
 30
0.0
 10
130.7199064432729
 20
32.30770263873973
 30
0.0
  0
SPLINE
  5
71
330
1F
100
AcDbEntity
  8
0
  6
Continuous
 62
     7
370
    25
100
AcDbSpline
210
0.0
220
0.0
230
1.0
 70
     8
 71
     3
 72
     9
 73
     5
 74
     0
 42
0.00000001
 43
0.00000001
 40
0.0
 40
0.0
 40
0.0
 40
0.0
 40
0.5085736236597265
 40
0.9999999999999999
 40
0.9999999999999999
 40
0.9999999999999999
 40
0.9999999999999999
 10
33.99479328321874
 20
32.30668767693187
 30
0.0
 10
33.99479417106985
 20
31.60135905505773
 30
0.0
 10
33.99479591683695
 20
30.21448291940886
 30
0.0
 10
33.99479892932355
 20
28.80532297157387
 30
0.0
 10
33.99480040973892
 20
28.11282460472547
 30
0.0
  0
SPLINE
  5
72
330
1F
100
AcDbEntity
  8
0
  6
Continuous
 62
     7
370
    25
100
AcDbSpline
210
0.0
220
0.0
230
1.0
 70
     8
 71
     3
 72
    18
 73
    14
 74
     0
 42
0.00000001
 43
0.00000001
 40
0.0
 40
0.0
 40
0.0
 40
0.0
 40
0.1250000000000003
 40
0.1250000000000003
 40
0.2500000000000006
 40
0.2500000000000006
 40
0.3750000000000009
 40
0.3750000000000009
 40
0.5000000000000012
 40
0.5000000000000012
 40
0.7500000000000006
 40
0.7500000000000006
 40
1.0
 40
1.0
 40
1.0
 40
1.0
 10
130.7199155959771
 20
27.5773683693591
 30
0.0
 10
130.7199155959132
 20
27.40673352244702
 30
0.0
 10
130.697153346294
 20
27.23997077119321
 30
0.0
 10
130.6072914318434
 20
26.91398752467144
 30
0.0
 10
130.5398140951745
 20
26.75632678244019
 30
0.0
 10
130.3670353096244
 20
26.46746025147989
 30
0.0
 10
130.2592919454888
 20
26.332681424403
 30
0.0
 10
130.0154211585173
 20
26.10067103138881
 30
0.0
 10
129.8763650763193
 20
26.00029789573232
 30
0.0
 10
129.4283667382313
 20
25.76240746100366
 30
0.0
 10
129.0874330330992
 20
25.68773328546834
 30
0.0
 10
128.4118586165793
 20
25.72708277697267
 30
0.0
 10
128.0808833985107
 20
25.84066243913482
 30
0.0
 10
127.8003624229168
 20
26.03509242532532
 30
0.0
  0
SPLINE
  5
73
330
1F
100
AcDbEntity
  8
0
  6
Continuous
 62
     7
370
    25
100
AcDbSpline
210
0.0
220
0.0
230
1.0
 70
     8
 71
     3
 72
    34
 73
    30
 74
     0
 42
0.00000001
 43
0.00000001
 40
0.0
 40
0.0
 40
0.0
 40
0.0
 40
0.0624999999999986
 40
0.0624999999999986
 40
0.1249999999999971
 40
0.1249999999999971
 40
0.1874999999999957
 40
0.1874999999999957
 40
0.2499999999999943
 40
0.2499999999999943
 40
0.3749999999999953
 40
0.3749999999999953
 40
0.4999999999999963
 40
0.4999999999999963
 40
0.5624999999999968
 40
0.5624999999999968
 40
0.6249999999999972
 40
0.6249999999999972
 40
0.6874999999999977
 40
0.6874999999999977
 40
0.7499999999999981
 40
0.7499999999999981
 40
0.8124999999999987
 40
0.8124999999999987
 40
0.8749999999999991
 40
0.8749999999999991
 40
0.9374999999999996
 40
0.9374999999999996
 40
1.0
 40
1.0
 40
1.0
 40
1.0
 10
127.8488891505764
 20
30.72766215561773
 30
0.0
 10
127.9524568502402
 20
30.66060442290719
 30
0.0
 10
128.0608924852323
 20
30.60486553355504
 30
0.0
 10
128.2871276589658
 20
30.51516055042141
 30
0.0
 10
128.4063027729966
 20
30.4810092314506
 30
0.0
 10
128.6471355264786
 20
30.43733399874229
 30
0.0
 10
128.7683792141666
 20
30.42754641529172
 30
0.0
 10
129.012510086946
 20
30.43190928264757
 30
0.0
 10
129.1359835863589
 20
30.44646216599369
 30
0.0
 10
129.4928940588486
 20
30.52487342439409
 30
0.0
 10
129.7223280786335
 20
30.62574135333756
 30
0.0
 10
130.1209433104925
 20
30.90479137086945
 30
0.0
 10
130.294167655874
 20
31.08571741580382
 30
0.0
 10
130.4907773353651
 20
31.3939795948673
 30
0.0
 10
130.5470675095871
 20
31.50485807406134
 30
0.0
 10
130.6357210803615
 20
31.73219448246115
 30
0.0
 10
130.6687465759753
 20
31.84928201272909
 30
0.0
 10
130.7119774909827
 20
32.09036153134534
 30
0.0
 10
130.7217744281639
 20
32.21378645195303
 30
0.0
 10
130.7174665479402
 20
32.45706794109537
 30
0.0
 10
130.7036309771784
 20
32.57826928815739
 30
0.0
 10
130.6516380412414
 20
32.81940694596116
 30
0.0
 10
130.6143294035594
 20
32.93545856993113
 30
0.0
 10
130.5179611626828
 20
33.1588761659428
 30
0.0
 10
130.4580903819592
 20
33.26732468519481
 30
0.0
 10
130.3192160330646
 20
33.46897376964644
 30
0.0
 10
130.2407692830297
 20
33.56192097450511
 30
0.0
 10
130.0659871999368
 20
33.73217486907517
 30
0.0
 10
129.9690672895341
 20
33.8096867036716
 30
0.0
 10
129.8654875571296
 20
33.87672300583048
 30
0.0
  0
LINE
  5
74
330
1F
100
AcDbEntity
  8
0
  6
Continuous
 62
     7
370
    25
100
AcDbLine
 10
130.719915596
 20
28.1073836928
 30
0.0
 11
130.719915596
 21
27.5773683694
 31
0.0
  0
SPLINE
  5
75
330
1F
100
AcDbEntity
  8
0
  6
Continuous
 62
     7
370
    25
100
AcDbSpline
210
0.0
220
0.0
230
1.0
 70
     8
 71
     3
 72
    32
 73
    28
 74
     0
 42
0.00000001
 43
0.00000001
 40
0.0
 40
0.0
 40
0.0
 40
0.0
 40
0.062500000000001
 40
0.062500000000001
 40
0.125000000000002
 40
0.125000000000002
 40
0.1875000000000029
 40
0.1875000000000029
 40
0.2500000000000039
 40
0.2500000000000039
 40
0.3750000000000052
 40
0.3750000000000052
 40
0.5000000000000064
 40
0.5000000000000064
 40
0.5625000000000053
 40
0.5625000000000053
 40
0.6250000000000042
 40
0.6250000000000042
 40
0.6875000000000031
 40
0.6875000000000031
 40
0.7500000000000019
 40
0.7500000000000019
 40
0.8749999999999993
 40
0.8749999999999993
 40
0.9374999999999997
 40
0.9374999999999997
 40
1.0
 40
1.0
 40
1.0
 40
1.0
 10
34.8492347204276
 20
33.87673564643032
 30
0.0
 10
34.74564797762489
 20
33.8096948074235
 30
0.0
 10
34.65040017052695
 20
33.73358470680288
 30
0.0
 10
34.47585401825241
 20
33.56401818609459
 30
0.0
 10
34.39583408239702
 20
33.46941365373048
 30
0.0
 10
34.25689866429145
 20
33.26780461150171
 30
0.0
 10
34.19798561154359
 20
33.16136511209873
 30
0.0
 10
34.10102129908071
 20
32.93734830383634
 30
0.0
 10
34.06303799948537
 20
32.81895894403736
 30
0.0
 10
33.98579376734565
 20
32.46167674713244
 30
0.0
 10
33.98130873796428
 20
32.2112412292304
 30
0.0
 10
34.06667890439098
 20
31.73228292865139
 30
0.0
 10
34.15750285197357
 20
31.49870451382682
 30
0.0
 10
34.35351109973818
 20
31.19051701774771
 30
0.0
 10
34.43008715738042
 20
31.09270047190419
 30
0.0
 10
34.59894942220352
 20
30.91606744085197
 30
0.0
 10
34.69116912674895
 20
30.83678327800021
 30
0.0
 10
34.89124958837309
 20
30.69635377161433
 30
0.0
 10
34.99946125475861
 20
30.63541136816293
 30
0.0
 10
35.2223194217701
 20
30.53739605767999
 30
0.0
 10
35.33806428626166
 20
30.49943550859495
 30
0.0
 10
35.69871532791401
 20
30.4198959486113
 30
0.0
 10
35.94610203756868
 20
30.41538898826763
 30
0.0
 10
36.30801644836873
 20
30.48089843074712
 30
0.0
 10
36.4250225654474
 20
30.51431991264168
 30
0.0
 10
36.6518946110927
 20
30.60393783219491
 30
0.0
 10
36.7622646775548
 20
30.66061422174896
 30
0.0
 10
36.8658387031373
 20
30.72767841244857
 30
0.0
  0
SPLINE
  5
76
330
1F
100
AcDbEntity
  8
0
  6
Continuous
 62
     7
370
    25
100
AcDbSpline
210
0.0
220
0.0
230
1.0
 70
     8
 71
     3
 72
    20
 73
    16
 74
     0
 42
0.00000001
 43
0.00000001
 40
0.0
 40
0.0
 40
0.0
 40
0.0
 40
0.1250000000000003
 40
0.1250000000000003
 40
0.2500000000000006
 40
0.2500000000000006
 40
0.3750000000000008
 40
0.3750000000000008
 40
0.5000000000000011
 40
0.5000000000000011
 40
0.6250000000000013
 40
0.6250000000000013
 40
0.7500000000000017
 40
0.7500000000000017
 40
1.0
 40
1.0
 40
1.0
 40
1.0
 10
36.91436646390667
 20
26.03511054347487
 30
0.0
 10
36.77412259800811
 20
25.93790707193918
 30
0.0
 10
36.62398371223372
 20
25.86184883420469
 30
0.0
 10
36.30435467892725
 20
25.75108517655215
 30
0.0
 10
36.13626982743932
 20
25.71767203117588
 30
0.0
 10
35.80017618248187
 20
25.69751843733088
 30
0.0
 10
35.62814055297694
 20
25.71082968147351
 30
0.0
 10
35.29928158691744
 20
25.78234095943977
 30
0.0
 10
35.13787515371786
 20
25.84135921254821
 30
0.0
 10
34.83948347240182
 20
25.99957241318387
 30
0.0
 10
34.70194572923295
 20
26.09834836792503
 30
0.0
 10
34.45517703254347
 20
26.33269384211217
 30
0.0
 10
34.35002888050609
 20
26.4640425029848
 30
0.0
 10
34.08838231177058
 20
26.8999083222653
 30
0.0
 10
33.99478714996776
 20
27.23613032348049
 30
0.0
 10
33.99478715003913
 20
27.57736836974086
 30
0.0
  0
LINE
  5
77
330
1F
100
AcDbEntity
  8
0
  6
Continuous
 62
     7
370
    25
100
AcDbLine
 10
33.9947871501
 20
27.5773683697
 30
0.0
 11
33.9947871502
 21
28.1073836935
 31
0.0
  0
ARC
  5
78
330
1F
100
AcDbEntity
  8
0
  6
Continuous
 62
     7
370
    25
100
AcDbCircle
 10
82.3573513731
 20
-39.5294744423
 30
0.0
 40
87.4385088360994
100
AcDbArc
 50
57.0892509965
 51
122.9107337586
  0
ARC
  5
79
330
1F
100
AcDbEntity
  8
0
  6
Continuous
 62
     7
370
    25
100
AcDbCircle
 10
82.3573513731
 20
-39.5294744423
 30
0.0
 40
83.69913531383311
100
AcDbArc
 50
57.0769190361
 51
122.9230604884
  0
ARC
  5
7A
330
1F
100
AcDbEntity
  8
0
  6
Continuous
 62
     7
370
    25
100
AcDbCircle
 10
82.3573513731
 20
-39.5294744423
 30
0.0
 40
79.77330181093528
100
AcDbArc
 50
55.274046408
 51
124.7259307482
  0
SPLINE
  5
7B
330
1F
100
AcDbEntity
  8
0
  6
Continuous
 62
     7
370
    25
100
AcDbSpline
210
0.0
220
0.0
230
1.0
 70
    11
 71
     3
 72
    66
 73
    62
 74
     0
 42
0.00000001
 43
0.00000001
 40
0.0
 40
0.0
 40
0.0
 40
0.0
 40
0.0624999999999998
 40
0.0624999999999998
 40
0.09375
 40
0.09375
 40
0.1250000000000003
 40
0.1250000000000003
 40
0.1562500000000005
 40
0.1562500000000005
 40
0.1875000000000007
 40
0.1875000000000007
 40
0.218750000000001
 40
0.218750000000001
 40
0.2500000000000012
 40
0.2500000000000012
 40
0.2812500000000014
 40
0.2812500000000014
 40
0.3125000000000017
 40
0.3125000000000017
 40
0.3437500000000019
 40
0.3437500000000019
 40
0.3750000000000022
 40
0.3750000000000022
 40
0.4062500000000024
 40
0.4062500000000024
 40
0.4375000000000027
 40
0.4375000000000027
 40
0.4687500000000029
 40
0.4687500000000029
 40
0.5000000000000031
 40
0.5000000000000031
 40
0.5625000000000028
 40
0.5625000000000028
 40
0.5937500000000027
 40
0.5937500000000027
 40
0.6250000000000024
 40
0.6250000000000024
 40
0.6562500000000022
 40
0.6562500000000022
 40
0.687500000000002
 40
0.687500000000002
 40
0.7187500000000018
 40
0.7187500000000018
 40
0.7500000000000016
 40
0.7500000000000016
 40
0.7812500000000014
 40
0.7812500000000014
 40
0.8125000000000012
 40
0.8125000000000012
 40
0.843750000000001
 40
0.843750000000001
 40
0.8750000000000008
 40
0.8750000000000008
 40
0.9062500000000006
 40
0.9062500000000006
 40
0.9375000000000004
 40
0.9375000000000004
 40
0.9687500000000002
 40
0.9687500000000002
 40
1.0
 40
1.0
 40
1.0
 40
1.0
 10
119.9505198515033
 20
32.12616650131145
 30
0.0
 10
119.561992380745
 20
32.33000221437402
 30
0.0
 10
119.1773132360625
 20
32.52074865488533
 30
0.0
 10
118.6168353470842
 20
32.78184035499047
 30
0.0
 10
118.4378962674994
 20
32.86228760446608
 30
0.0
 10
118.0964168754051
 20
33.0101014083497
 30
0.0
 10
117.932386080462
 20
33.07805325046497
 30
0.0
 10
117.6302191469194
 20
33.1968377892491
 30
0.0
 10
117.4945565513785
 20
33.24677247236479
 30
0.0
 10
117.2551525428188
 20
33.32777185032443
 30
0.0
 10
117.150496179674
 20
33.35898313641832
 30
0.0
 10
116.9859277532666
 20
33.39852413876616
 30
0.0
 10
116.9246809955176
 20
33.40742108545775
 30
0.0
 10
116.8458155582943
 20
33.40302832653489
 30
0.0
 10
116.8294705065376
 20
33.38959464018971
 30
0.0
 10
116.8418347919923
 20
33.34196757064674
 30
0.0
 10
116.8710629883026
 20
33.30712202437746
 30
0.0
 10
116.9709808035989
 20
33.21950387234292
 30
0.0
 10
117.0412136365833
 20
33.16680893230119
 30
0.0
 10
117.2208045852027
 20
33.04381550230966
 30
0.0
 10
117.3278453220603
 20
32.97512103496956
 30
0.0
 10
117.5713977740832
 20
32.8252665764566
 30
0.0
 10
117.7096955262456
 20
32.743070056703
 30
0.0
 10
118.0063644527272
 20
32.57095983617799
 30
0.0
 10
118.1649484613249
 20
32.4808664199539
 30
0.0
 10
118.5014399525744
 20
32.2925501925674
 30
0.0
 10
118.6792894945382
 20
32.1943879913166
 30
0.0
 10
119.0413901872484
 20
31.9965681807294
 30
0.0
 10
119.227141926039
 20
31.89606845258534
 30
0.0
 10
119.607942665539
 20
31.69168368844762
 30
0.0
 10
119.8023668288092
 20
31.58814627650484
 30
0.0
 10
120.3834838924262
 20
31.28099017809766
 30
0.0
 10
120.7637728405467
 20
31.08285924317648
 30
0.0
 10
121.3139414884583
 20
30.8024415095743
 30
0.0
 10
121.4892334879788
 20
30.71421605685041
 30
0.0
 10
121.8234151871796
 20
30.548952720094
 30
0.0
 10
121.9832755146722
 20
30.47144847522016
 30
0.0
 10
122.2802425202914
 20
30.33183998248871
 30
0.0
 10
122.4136150469867
 20
30.27147314817983
 30
0.0
 10
122.6492288589035
 20
30.17092615524721
 30
0.0
 10
122.7526634874066
 20
30.13036457147264
 30
0.0
 10
122.9166609021925
 20
30.07560124651017
 30
0.0
 10
122.9774365304297
 20
30.0611330992654
 30
0.0
 10
123.0554994617119
 20
30.05905756567556
 30
0.0
 10
123.0717844346212
 20
30.07192223568374
 30
0.0
 10
123.0586723481345
 20
30.12334333270394
 30
0.0
 10
123.0291507237446
 20
30.16254265455164
 30
0.0
 10
122.928998971349
 20
30.26273681571199
 30
0.0
 10
122.8590490247055
 20
30.32336044915262
 30
0.0
 10
122.6817951703212
 20
30.46389541254372
 30
0.0
 10
122.5763314432818
 20
30.54230135565049
 30
0.0
 10
122.3376683378051
 20
30.71127461401557
 30
0.0
 10
122.202692000743
 20
30.80303092937197
 30
0.0
 10
121.9130975020614
 20
30.99297858494441
 30
0.0
 10
121.7583449521845
 20
31.09133551223458
 30
0.0
 10
121.4297046230717
 20
31.29407689887034
 30
0.0
 10
121.2553673168728
 20
31.39866806281211
 30
0.0
 10
120.8991917002553
 20
31.6065851985281
 30
0.0
 10
120.7159749708006
 20
31.71078038226126
 30
0.0
 10
120.3390697936972
 20
31.91947553574892
 30
0.0
 10
120.1447835868825
 20
32.02424864478017
 30
0.0
 10
119.9505198515033
 20
32.12616650131145
 30
0.0
  0
SPLINE
  5
7C
330
1F
100
AcDbEntity
  8
0
  6
Continuous
 62
     7
370
    25
100
AcDbSpline
210
0.0
220
0.0
230
1.0
 70
    11
 71
     3
 72
    66
 73
    62
 74
     0
 42
0.00000001
 43
0.00000001
 40
0.0
 40
0.0
 40
0.0
 40
0.0
 40
0.0624999999999995
 40
0.0624999999999995
 40
0.0937499999999995
 40
0.0937499999999995
 40
0.1249999999999994
 40
0.1249999999999994
 40
0.1562499999999994
 40
0.1562499999999994
 40
0.1874999999999993
 40
0.1874999999999993
 40
0.2187499999999992
 40
0.2187499999999992
 40
0.2499999999999992
 40
0.2499999999999992
 40
0.2812499999999991
 40
0.2812499999999991
 40
0.3124999999999991
 40
0.3124999999999991
 40
0.343749999999999
 40
0.343749999999999
 40
0.3749999999999989
 40
0.3749999999999989
 40
0.4062499999999988
 40
0.4062499999999988
 40
0.4374999999999988
 40
0.4374999999999988
 40
0.4687499999999987
 40
0.4687499999999987
 40
0.4999999999999986
 40
0.4999999999999986
 40
0.5624999999999986
 40
0.5624999999999986
 40
0.5937499999999987
 40
0.5937499999999987
 40
0.6249999999999988
 40
0.6249999999999988
 40
0.6562499999999989
 40
0.6562499999999989
 40
0.687499999999999
 40
0.687499999999999
 40
0.7187499999999991
 40
0.7187499999999991
 40
0.7499999999999991
 40
0.7499999999999991
 40
0.7812499999999992
 40
0.7812499999999992
 40
0.8124999999999993
 40
0.8124999999999993
 40
0.8437499999999994
 40
0.8437499999999994
 40
0.8749999999999996
 40
0.8749999999999996
 40
0.9062499999999997
 40
0.9062499999999997
 40
0.9374999999999998
 40
0.9374999999999998
 40
0.9687499999999999
 40
0.9687499999999999
 40
1.0
 40
1.0
 40
1.0
 40
1.0
 10
44.76418289469689
 20
32.12616650131142
 30
0.0
 10
44.37541243241787
 20
31.92220330601497
 30
0.0
 10
44.00386876042367
 20
31.71630994304615
 30
0.0
 10
43.47053416249092
 20
31.40531456599408
 30
0.0
 10
43.29585060171001
 20
31.30063198309754
 30
0.0
 10
42.96857061819693
 20
31.09900010122447
 30
0.0
 10
42.81430532374038
 20
31.00111226550039
 30
0.0
 10
42.52526950438637
 20
30.81190696968897
 30
0.0
 10
42.38939499783699
 20
30.7197655549019
 30
0.0
 10
42.14989618982487
 20
30.55069648819619
 30
0.0
 10
42.04502979779262
 20
30.47301945231085
 30
0.0
 10
41.86730837893938
 20
30.33302622703114
 30
0.0
 10
41.79404284624898
 20
30.27018032097889
 30
0.0
 10
41.69093147153201
 20
30.16870938685465
 30
0.0
 10
41.6598184039952
 20
30.12921768007335
 30
0.0
 10
41.64171234370337
 20
30.07480278485878
 30
0.0
 10
41.65559853449501
 20
30.0605355074931
 30
0.0
 10
41.72813634986844
 20
30.05956267067052
 30
0.0
 10
41.78770339933083
 20
30.07278891083872
 30
0.0
 10
41.94789156310295
 20
30.1250900437183
 30
0.0
 10
42.04733558908129
 20
30.16357845011274
 30
0.0
 10
42.28318229686514
 20
30.26349469987284
 30
0.0
 10
42.4175043546743
 20
30.32408349261353
 30
0.0
 10
42.71037108265796
 20
30.46136100220261
 30
0.0
 10
42.87139066466753
 20
30.53923967483424
 30
0.0
 10
43.20744353854064
 20
30.70518865596525
 30
0.0
 10
43.38311534274036
 20
30.79352610789278
 30
0.0
 10
43.74913753315582
 20
30.97993559927939
 30
0.0
 10
43.93765062180623
 20
31.07708828340346
 30
0.0
 10
44.31642456032448
 20
31.27402294573126
 30
0.0
 10
44.50801368699867
 20
31.37448387310675
 30
0.0
 10
45.08951759165096
 20
31.68170999391485
 30
0.0
 10
45.46975422138691
 20
31.88550155521924
 30
0.0
 10
46.01887984203101
 20
32.18529094987742
 30
0.0
 10
46.19617956139538
 20
32.28308903295242
 30
0.0
 10
46.53135732839965
 20
32.47048124552464
 30
0.0
 10
46.69048647126536
 20
32.56075255175671
 30
0.0
 10
46.99013724696367
 20
32.7343095621594
 30
0.0
 10
47.12865085739081
 20
32.81647963389799
 30
0.0
 10
47.37334201241202
 20
32.96660077868822
 30
0.0
 10
47.48099594566975
 20
33.03539373928323
 30
0.0
 10
47.66347260048773
 20
33.15958413616431
 30
0.0
 10
47.73597277342395
 20
33.21349132366793
 30
0.0
 10
47.83879052309852
 20
33.30217885842451
 30
0.0
 10
47.86996741685945
 20
33.33772980712479
 30
0.0
 10
47.88630962394492
 20
33.38763467495877
 30
0.0
 10
47.87177190990914
 20
33.4017017244206
 30
0.0
 10
47.79730934128041
 20
33.40803564604927
 30
0.0
 10
47.73633599637833
 20
33.39988522295868
 30
0.0
 10
47.57455183383681
 20
33.36187703990562
 30
0.0
 10
47.47240188085827
 20
33.33182011491023
 30
0.0
 10
47.23195337017172
 20
33.25103809830786
 30
0.0
 10
47.09605125925072
 20
33.20119215090222
 30
0.0
 10
46.7951964090483
 20
33.08329434495817
 30
0.0
 10
46.63018544235437
 20
33.01512091729457
 30
0.0
 10
46.28635022183334
 20
32.86654217566846
 30
0.0
 10
46.10467966762453
 20
32.78494478275451
 30
0.0
 10
45.73034183222854
 20
32.61069975046924
 30
0.0
 10
45.54033184986913
 20
32.51932888631007
 30
0.0
 10
45.15521337446124
 20
32.32846494776228
 30
0.0
 10
44.95856812583641
 20
32.22814809895964
 30
0.0
 10
44.76418289469689
 20
32.12616650131142
 30
0.0
  0
LINE
  5
7D
330
1F
100
AcDbEntity
  8
0
  6
Continuous
 62
     7
370
    25
100
AcDbLine
 10
130.719915596
 20
85.1163096372
 30
0.0
 11
130.719915596
 21
90.1021410004
 31
0.0
  0
LINE
  5
7E
330
1F
100
AcDbEntity
  8
0
  6
Continuous
 62
     7
370
    25
100
AcDbLine
 10
130.719915596
 20
90.1021410004
 30
0.0
 11
33.9947871502
 21
90.1021410004
 31
0.0
  0
LINE
  5
7F
330
1F
100
AcDbEntity
  8
0
  6
Continuous
 62
     7
370
    25
100
AcDbLine
 10
33.9947871502
 20
90.1021410004
 30
0.0
 11
33.9947871502
 21
85.1163096372
 31
0.0
  0
LINE
  5
80
330
1F
100
AcDbEntity
  8
0
  6
Continuous
 62
     7
370
    25
100
AcDbLine
 10
33.9947871502
 20
85.1163096372
 30
0.0
 11
130.719915596
 21
85.1163096372
 31
0.0
  0
LINE
  5
81
330
1F
100
AcDbEntity
  8
0
  6
Continuous
 62
     7
370
    25
100
AcDbLine
 10
130.719915596
 20
38.8631684521
 30
0.0
 11
130.719915596
 21
36.5982125424
 31
0.0
  0
LINE
  5
82
330
1F
100
AcDbEntity
  8
0
  6
Continuous
 62
     7
370
    25
100
AcDbLine
 10
33.9947871502
 20
36.5982125411
 30
0.0
 11
33.9947871502
 21
38.8631684521
 31
0.0
  0
SPLINE
  5
83
330
1F
100
AcDbEntity
  8
0
  6
Continuous
 62
     7
370
    25
100
AcDbSpline
210
0.0
220
0.0
230
1.0
 70
     8
 71
     3
 72
    54
 73
    50
 74
     0
 42
0.00000001
 43
0.00000001
 40
0.0
 40
0.0
 40
0.0
 40
0.0
 40
0.0625000000000002
 40
0.0625000000000002
 40
0.1250000000000004
 40
0.1250000000000004
 40
0.1562500000000006
 40
0.1562500000000006
 40
0.1875000000000008
 40
0.1875000000000008
 40
0.2500000000000012
 40
0.2500000000000012
 40
0.3125000000000016
 40
0.3125000000000016
 40
0.3750000000000019
 40
0.3750000000000019
 40
0.4062500000000022
 40
0.4062500000000022
 40
0.4375000000000024
 40
0.4375000000000024
 40
0.4687500000000027
 40
0.4687500000000027
 40
0.500000000000003
 40
0.500000000000003
 40
0.5312500000000032
 40
0.5312500000000032
 40
0.5625000000000034
 40
0.5625000000000034
 40
0.6250000000000029
 40
0.6250000000000029
 40
0.6875000000000023
 40
0.6875000000000023
 40
0.7187500000000021
 40
0.7187500000000021
 40
0.7500000000000018
 40
0.7500000000000018
 40
0.8125000000000013
 40
0.8125000000000013
 40
0.8437500000000011
 40
0.8437500000000011
 40
0.8750000000000009
 40
0.8750000000000009
 40
0.9062500000000007
 40
0.9062500000000007
 40
0.9375000000000004
 40
0.9375000000000004
 40
0.9687500000000002
 40
0.9687500000000002
 40
1.0
 40
1.0
 40
1.0
 40
1.0
 10
118.0808330903096
 20
85.11630963724448
 30
0.0
 10
117.8012485482589
 20
85.11630963724448
 30
0.0
 10
117.5631779043723
 20
85.1077580402044
 30
0.0
 10
117.1736763298525
 20
85.04976981196641
 30
0.0
 10
117.0320048326018
 20
85.00135606474903
 30
0.0
 10
116.8984052335141
 20
84.8879250580174
 30
0.0
 10
116.868191590522
 20
84.8442439815045
 30
0.0
 10
116.8340131885233
 20
84.74460881903981
 30
0.0
 10
116.8301443200781
 20
84.68822085932938
 30
0.0
 10
116.8566687293684
 20
84.50267744212391
 30
0.0
 10
116.923959470562
 20
84.35861560567693
 30
0.0
 10
117.1411487337593
 20
84.04190207890167
 30
0.0
 10
117.2876855467424
 20
83.87333007601703
 30
0.0
 10
117.6537471098454
 20
83.52575789646873
 30
0.0
 10
117.8663006537841
 20
83.35304424623185
 30
0.0
 10
118.2357406154813
 20
83.10964220292375
 30
0.0
 10
118.3686951002887
 20
83.03065522243875
 30
0.0
 10
118.648211237338
 20
82.88654026483205
 30
0.0
 10
118.7950286403911
 20
82.82105294200652
 30
0.0
 10
119.1061839335662
 20
82.7091221063532
 30
0.0
 10
119.271062115457
 20
82.66297143989108
 30
0.0
 10
119.6065536257616
 20
82.60071923528525
 30
0.0
 10
119.7812458493574
 20
82.58400158321174
 30
0.0
 10
120.1289945680893
 20
82.5845837019766
 30
0.0
 10
120.3002213419764
 20
82.60138053498606
 30
0.0
 10
120.6377693973339
 20
82.66483663682548
 30
0.0
 10
120.8015521597038
 20
82.7112253838014
 30
0.0
 10
121.2652931849583
 20
82.87897936062676
 30
0.0
 10
121.5469091800541
 20
83.03131038785774
 30
0.0
 10
122.0372400186847
 20
83.35502867074753
 30
0.0
 10
122.2535399782067
 20
83.53126165888217
 30
0.0
 10
122.5245812995726
 20
83.78926209704757
 30
0.0
 10
122.6062324757338
 20
83.8744267565318
 30
0.0
 10
122.7520730373104
 20
84.04168057669285
 30
0.0
 10
122.816663668464
 20
84.12440487313219
 30
0.0
 10
122.9782000700816
 20
84.36083551289377
 30
0.0
 10
123.0441491350651
 20
84.50247913395867
 30
0.0
 10
123.0708421182784
 20
84.68717777583286
 30
0.0
 10
123.0670956758871
 20
84.74406644857386
 30
0.0
 10
123.0331673785532
 20
84.84365016004546
 30
0.0
 10
123.0031978978619
 20
84.8870673393242
 30
0.0
 10
122.9157836074138
 20
84.96203217020745
 30
0.0
 10
122.8574398611067
 20
84.99381218287454
 30
0.0
 10
122.7151881298209
 20
85.04462811845174
 30
0.0
 10
122.6315732691634
 20
85.06389888230687
 30
0.0
 10
122.4392461132117
 20
85.09279233691177
 30
0.0
 10
122.3294507545466
 20
85.10242255905483
 30
0.0
 10
122.0899569984215
 20
85.11412012957726
 30
0.0
 10
121.9601799836152
 20
85.11630963724447
 30
0.0
 10
121.8202066126972
 20
85.11630963724448
 30
0.0
  0
SPLINE
  5
84
330
1F
100
AcDbEntity
  8
0
  6
Continuous
 62
     7
370
    25
100
AcDbSpline
210
0.0
220
0.0
230
1.0
 70
     8
 71
     3
 72
    54
 73
    50
 74
     0
 42
0.00000001
 43
0.00000001
 40
0.0
 40
0.0
 40
0.0
 40
0.0
 40
0.0625
 40
0.0625
 40
0.125
 40
0.125
 40
0.1562500000000001
 40
0.1562500000000001
 40
0.1875000000000001
 40
0.1875000000000001
 40
0.25
 40
0.25
 40
0.3124999999999999
 40
0.3124999999999999
 40
0.3749999999999998
 40
0.3749999999999998
 40
0.4062499999999997
 40
0.4062499999999997
 40
0.4374999999999997
 40
0.4374999999999997
 40
0.4687499999999997
 40
0.4687499999999997
 40
0.4999999999999997
 40
0.4999999999999997
 40
0.5312499999999997
 40
0.5312499999999997
 40
0.5624999999999997
 40
0.5624999999999997
 40
0.6250000000000006
 40
0.6250000000000006
 40
0.6875000000000014
 40
0.6875000000000014
 40
0.7187500000000016
 40
0.7187500000000016
 40
0.7500000000000016
 40
0.7500000000000016
 40
0.8125000000000012
 40
0.8125000000000012
 40
0.843750000000001
 40
0.843750000000001
 40
0.8750000000000008
 40
0.8750000000000008
 40
0.9062500000000006
 40
0.9062500000000006
 40
0.9375000000000003
 40
0.9375000000000003
 40
0.9687500000000001
 40
0.9687500000000001
 40
1.0
 40
1.0
 40
1.0
 40
1.0
 10
42.8944961335031
 20
85.11630963724448
 30
0.0
 10
42.61491159145242
 20
85.11630963724448
 30
0.0
 10
42.37684094756581
 20
85.1077580402044
 30
0.0
 10
41.98733937304593
 20
85.04976981196641
 30
0.0
 10
41.84566787579534
 20
85.00135606474903
 30
0.0
 10
41.71206827670754
 20
84.8879250580174
 30
0.0
 10
41.68185463371552
 20
84.8442439815045
 30
0.0
 10
41.6476762317168
 20
84.74460881903981
 30
0.0
 10
41.64380736327163
 20
84.68822085932939
 30
0.0
 10
41.67033177256189
 20
84.5026774421239
 30
0.0
 10
41.7376225137555
 20
84.35861560567693
 30
0.0
 10
41.95481177695281
 20
84.04190207890167
 30
0.0
 10
42.10134858993586
 20
83.87333007601701
 30
0.0
 10
42.46741015303887
 20
83.52575789646875
 30
0.0
 10
42.67996369697756
 20
83.35304424623185
 30
0.0
 10
43.04940365867477
 20
83.10964220292374
 30
0.0
 10
43.18235814348216
 20
83.03065522243874
 30
0.0
 10
43.46187428053148
 20
82.88654026483205
 30
0.0
 10
43.6086916835846
 20
82.82105294200652
 30
0.0
 10
43.91984697675971
 20
82.70912210635319
 30
0.0
 10
44.08472515865051
 20
82.66297143989108
 30
0.0
 10
44.42021666895513
 20
82.60071923528525
 30
0.0
 10
44.5949088925509
 20
82.58400158321174
 30
0.0
 10
44.94265761128275
 20
82.58458370197658
 30
0.0
 10
45.11388438516988
 20
82.60138053498606
 30
0.0
 10
45.45143244052736
 20
82.66483663682548
 30
0.0
 10
45.61521520289726
 20
82.71122538380139
 30
0.0
 10
46.0789562281518
 20
82.87897936062677
 30
0.0
 10
46.36057222324759
 20
83.03131038785773
 30
0.0
 10
46.85090306187815
 20
83.35502867074753
 30
0.0
 10
47.06720302140024
 20
83.53126165888217
 30
0.0
 10
47.33824434276613
 20
83.78926209704757
 30
0.0
 10
47.41989551892726
 20
83.87442675653179
 30
0.0
 10
47.56573608050384
 20
84.04168057669284
 30
0.0
 10
47.63032671165745
 20
84.12440487313218
 30
0.0
 10
47.79186311327512
 20
84.36083551289379
 30
0.0
 10
47.85781217825863
 20
84.50247913395867
 30
0.0
 10
47.88450516147197
 20
84.68717777583288
 30
0.0
 10
47.88075871908056
 20
84.74406644857386
 30
0.0
 10
47.84683042174674
 20
84.84365016004546
 30
0.0
 10
47.81686094105535
 20
84.88706733932419
 30
0.0
 10
47.72944665060734
 20
84.96203217020745
 30
0.0
 10
47.6711029043002
 20
84.99381218287452
 30
0.0
 10
47.52885117301441
 20
85.04462811845175
 30
0.0
 10
47.44523631235685
 20
85.06389888230686
 30
0.0
 10
47.25290915640517
 20
85.09279233691178
 30
0.0
 10
47.14311379774012
 20
85.10242255905483
 30
0.0
 10
46.90362004161503
 20
85.11412012957726
 30
0.0
 10
46.77384302680864
 20
85.11630963724448
 30
0.0
 10
46.63386965589068
 20
85.11630963724448
 30
0.0
  0
LINE
  5
85
330
1F
100
AcDbEntity
  8
0
  6
Continuous
 62
     7
370
    25
100
AcDbLine
 10
130.719915596
 20
85.1163096372
 30
0.0
 11
130.719915596
 21
77.6375625925
 31
0.0
  0
LINE
  5
86
330
1F
100
AcDbEntity
  8
0
  6
Continuous
 62
     7
370
    25
100
AcDbLine
 10
33.9947871502
 20
77.6375625925
 30
0.0
 11
33.9947871502
 21
85.1163096372
 31
0.0
  0
LINE
  5
87
330
1F
100
AcDbEntity
  8
0
  6
Continuous
 62
     7
370
    25
100
AcDbLine
 10
130.719915596
 20
36.5982125424
 30
0.0
 11
130.719915596
 21
28.1073836928
 31
0.0
  0
LINE
  5
88
330
1F
100
AcDbEntity
  8
0
  6
Continuous
 62
     7
370
    25
100
AcDbLine
 10
33.9947871502
 20
28.1073836935
 30
0.0
 11
33.9947871502
 21
36.5982125411
 31
0.0
  0
LINE
  5
89
330
1F
100
AcDbEntity
  8
0
  6
Continuous
 62
     7
370
    25
100
AcDbLine
 10
113.2695058248
 20
75.1446469109
 30
0.0
 11
94.8219297811
 21
75.1446469109
 31
0.0
  0
LINE
  5
8A
330
1F
100
AcDbEntity
  8
0
  6
Continuous
 62
     7
370
    25
100
AcDbLine
 10
87.3431827363
 20
67.6658998661
 30
0.0
 11
87.3431827363
 21
61.1007896919
 31
0.0
  0
ARC
  5
8B
330
1F
100
AcDbEntity
  8
0
  6
Continuous
 62
     7
370
    25
100
AcDbCircle
 10
94.8219297811
 20
61.1007896919
 30
0.0
 40
7.47874704477519
100
AcDbArc
 50
180.0
 51
262.9390167843
  0
ARC
  5
8C
330
1F
100
AcDbEntity
  8
0
  6
Continuous
 62
     7
370
    25
100
AcDbCircle
 10
82.3573513731
 20
-39.5294744423
 30
0.0
 40
93.92054178222035
100
AcDbArc
 50
72.2505153695
 51
82.9390167843
  0
LINE
  5
8D
330
1F
100
AcDbEntity
  8
0
  6
Continuous
 62
     7
370
    25
100
AcDbLine
 10
120.7482528696
 20
57.0430603788
 30
0.0
 11
120.7482528696
 21
67.6658998661
 31
0.0
  0
ARC
  5
8E
330
1F
100
AcDbEntity
  8
0
  6
Continuous
 62
     7
370
    25
100
AcDbCircle
 10
69.8927729651
 20
67.6658998661
 30
0.0
 40
7.478747044775176
100
AcDbArc
 50
0.0
 51
90.0
  0
LINE
  5
8F
330
1F
100
AcDbEntity
  8
0
  6
Continuous
 62
     7
370
    25
100
AcDbLine
 10
69.8927729651
 20
75.1446469109
 30
0.0
 11
51.4451969214
 21
75.1446469109
 31
0.0
  0
ARC
  5
90
330
1F
100
AcDbEntity
  8
0
  6
Continuous
 62
     7
370
    25
100
AcDbCircle
 10
69.8927729651
 20
61.1007896919
 30
0.0
 40
7.478747044775178
100
AcDbArc
 50
277.0609832157
 51
0.0
  0
LINE
  5
91
330
1F
100
AcDbEntity
  8
0
  6
Continuous
 62
     7
370
    25
100
AcDbLine
 10
77.3715200099
 20
61.1007896919
 30
0.0
 11
77.3715200099
 21
67.6658998661
 31
0.0
  0
ARC
  5
92
330
1F
100
AcDbEntity
  8
0
  6
Continuous
 62
     7
370
    25
100
AcDbCircle
 10
113.2695058248
 20
67.6658998661
 30
0.0
 40
7.478747044775176
100
AcDbArc
 50
0.0
 51
90.0
  0
ARC
  5
93
330
1F
100
AcDbEntity
  8
0
  6
Continuous
 62
     7
370
    25
100
AcDbCircle
 10
113.2695058248
 20
57.0430603788
 30
0.0
 40
7.478747044775203
100
AcDbArc
 50
252.2505153695
 51
0.0
  0
ARC
  5
94
330
1F
100
AcDbEntity
  8
0
  6
Continuous
 62
     7
370
    25
100
AcDbCircle
 10
51.4451969214
 20
57.0430603788
 30
0.0
 40
7.478747044775214
100
AcDbArc
 50
180.0
 51
287.7494846305
  0
LINE
  5
95
330
1F
100
AcDbEntity
  8
0
  6
Continuous
 62
     7
370
    25
100
AcDbLine
 10
43.9664498766
 20
67.6658998661
 30
0.0
 11
43.9664498766
 21
57.0430603788
 31
0.0
  0
ARC
  5
96
330
1F
100
AcDbEntity
  8
0
  6
Continuous
 62
     7
370
    25
100
AcDbCircle
 10
94.8219297811
 20
67.6658998661
 30
0.0
 40
7.47874704477519
100
AcDbArc
 50
90.0
 51
180.0
  0
ARC
  5
97
330
1F
100
AcDbEntity
  8
0
  6
Continuous
 62
     7
370
    25
100
AcDbCircle
 10
51.4451969214
 20
67.6658998661
 30
0.0
 40
7.478747044775176
100
AcDbArc
 50
90.0
 51
180.0
  0
ARC
  5
98
330
1F
100
AcDbEntity
  8
0
  6
Continuous
 62
     7
370
    25
100
AcDbCircle
 10
82.3573513731
 20
-39.5294744423
 30
0.0
 40
93.92054178222035
100
AcDbArc
 50
97.0609832157
 51
107.7494846305
  0
LINE
  5
99
330
1F
100
AcDbEntity
  8
0
  6
Continuous
 62
     7
370
    25
100
AcDbLine
 10
130.719915596
 20
77.6375625925
 30
0.0
 11
130.719915596
 21
38.8631684521
 31
0.0
  0
LINE
  5
9A
330
1F
100
AcDbEntity
  8
0
  6
Continuous
 62
     7
370
    25
100
AcDbLine
 10
33.9947871502
 20
38.8631684521
 30
0.0
 11
33.9947871502
 21
77.6375625925
 31
0.0
  0
LINE
  5
9B
330
1F
100
AcDbEntity
  8
0
  6
HIDDEN
 62
     7
370
    18
100
AcDbLine
 10
130.7199155963
 20
28.1073836909
 30
0.0
 11
130.7010840097
 21
28.4264501198
 31
0.0
  0
LINE
  5
9C
330
1F
100
AcDbEntity
  8
0
  6
HIDDEN
 62
     7
370
    18
100
AcDbLine
 10
34.0136185586
 20
28.4264488436
 30
0.0
 11
33.9947871501
 21
28.1073836924
 31
0.0
  0
LINE
  5
9D
330
1F
100
AcDbEntity
  8
0
  6
HIDDEN
 62
     7
370
    18
100
AcDbLine
 10
126.8325898002
 20
32.5620603985
 30
0.0
 11
126.7932037979
 21
32.4982181919
 31
0.0
  0
SPLINE
  5
9E
330
1F
100
AcDbEntity
  8
0
  6
HIDDEN
 62
     7
370
    18
100
AcDbSpline
210
0.0
220
0.0
230
1.0
 70
    11
 71
     3
 72
    68
 73
    64
 74
     0
 42
0.00000001
 43
0.00000001
 40
0.0
 40
0.0
 40
0.0
 40
0.0
 40
0.0312500000000002
 40
0.0312500000000002
 40
0.0625000000000005
 40
0.0625000000000005
 40
0.0937500000000007
 40
0.0937500000000007
 40
0.125000000000001
 40
0.125000000000001
 40
0.1562500000000012
 40
0.1562500000000012
 40
0.1875000000000015
 40
0.1875000000000015
 40
0.2187500000000017
 40
0.2187500000000017
 40
0.250000000000002
 40
0.250000000000002
 40
0.2812500000000022
 40
0.2812500000000022
 40
0.3125000000000025
 40
0.3125000000000025
 40
0.3437500000000028
 40
0.3437500000000028
 40
0.375000000000003
 40
0.375000000000003
 40
0.4062500000000032
 40
0.4062500000000032
 40
0.4375000000000035
 40
0.4375000000000035
 40
0.4687500000000038
 40
0.4687500000000038
 40
0.500000000000004
 40
0.500000000000004
 40
0.5625000000000036
 40
0.5625000000000036
 40
0.5937500000000039
 40
0.5937500000000039
 40
0.6093750000000041
 40
0.6093750000000041
 40
0.6250000000000043
 40
0.6250000000000043
 40
0.6562500000000039
 40
0.6562500000000039
 40
0.6875000000000034
 40
0.6875000000000034
 40
0.7031250000000033
 40
0.7031250000000033
 40
0.7187500000000031
 40
0.7187500000000031
 40
0.7500000000000027
 40
0.7500000000000027
 40
0.8125000000000019
 40
0.8125000000000019
 40
0.8437500000000017
 40
0.8437500000000017
 40
0.8750000000000013
 40
0.8750000000000013
 40
0.9375000000000009
 40
0.9375000000000009
 40
0.9687500000000004
 40
0.9687500000000004
 40
1.0
 40
1.0
 40
1.0
 40
1.0
 10
119.9505198515034
 20
39.1106999082937
 30
0.0
 10
119.742019314678
 20
39.21037155670287
 30
0.0
 10
119.5276149606386
 20
39.28555443777509
 30
0.0
 10
119.0855404778158
 20
39.37889845861859
 30
0.0
 10
118.8678337843847
 20
39.39456226202213
 30
0.0
 10
118.4500021374158
 20
39.37405246012012
 30
0.0
 10
118.2538033765318
 20
39.33838026590352
 30
0.0
 10
117.8958533124873
 20
39.23607210941632
 30
0.0
 10
117.7351665196192
 20
39.16997407754261
 30
0.0
 10
117.4530189142737
 20
39.02422741777037
 30
0.0
 10
117.3290578289045
 20
38.94306660472377
 30
0.0
 10
117.1222380883688
 20
38.7763782557392
 30
0.0
 10
117.0391617242269
 20
38.69108647941018
 30
0.0
 10
116.9127171423494
 20
38.51917240974397
 30
0.0
 10
116.870104930075
 20
38.43283177227259
 30
0.0
 10
116.8286691276056
 20
38.26556905452166
 30
0.0
 10
116.8291395281666
 20
38.18378254644207
 30
0.0
 10
116.8749469963218
 20
38.02191822445332
 30
0.0
 10
116.9198389320381
 20
37.94399600291124
 30
0.0
 10
117.0515510582483
 20
37.79162450430805
 30
0.0
 10
117.1394674507402
 20
37.71627162076613
 30
0.0
 10
117.3550108416282
 20
37.56639263661944
 30
0.0
 10
117.4808785210487
 20
37.49275590683477
 30
0.0
 10
117.7666254797359
 20
37.34193986750638
 30
0.0
 10
117.927986209773
 20
37.2641328162625
 30
0.0
 10
118.2751223060185
 20
37.10296736946728
 30
0.0
 10
118.4581908765354
 20
37.02071088238674
 30
0.0
 10
118.8402121637488
 20
36.8481988880197
 30
0.0
 10
119.041046889188
 20
36.75708560736962
 30
0.0
 10
119.4477151153024
 20
36.56784481686506
 30
0.0
 10
119.6525833890494
 20
36.47020014433201
 30
0.0
 10
120.0646393814538
 20
36.2677357575056
 30
0.0
 10
120.269214463236
 20
36.16417405300298
 30
0.0
 10
120.8673749219406
 20
35.8538084552812
 30
0.0
 10
121.2559485538615
 20
35.64074654958544
 30
0.0
 10
121.785057034359
 20
35.35646573532973
 30
0.0
 10
121.9540996703769
 20
35.26702254427421
 30
0.0
 10
122.1864131726779
 20
35.15172535839356
 30
0.0
 10
122.2606884920599
 20
35.11624430010278
 30
0.0
 10
122.4026427496712
 20
35.05253398609412
 30
0.0
 10
122.4706408202698
 20
35.02421723013121
 30
0.0
 10
122.6584315249885
 20
34.95481363043146
 30
0.0
 10
122.7640662079871
 20
34.92811164599674
 30
0.0
 10
122.9332232516377
 20
34.9254095753799
 30
0.0
 10
122.9929070780819
 20
34.95020204818184
 30
0.0
 10
123.0454834442839
 20
35.02617639850217
 30
0.0
 10
123.0569956627582
 20
35.05831090350052
 30
0.0
 10
123.06812663892
 20
35.13328279275206
 30
0.0
 10
123.0679269092154
 20
35.17617953085323
 30
0.0
 10
123.0520320720931
 20
35.31953662612917
 30
0.0
 10
123.0207352852394
 20
35.4348967235137
 30
0.0
 10
122.8835522302168
 20
35.81169975390336
 30
0.0
 10
122.7327169581526
 20
36.11174902446503
 30
0.0
 10
122.4583911263368
 20
36.57679993494906
 30
0.0
 10
122.3582433669846
 20
36.73545478263443
 30
0.0
 10
122.1409524691122
 20
37.05760045812413
 30
0.0
 10
122.0231209554786
 20
37.22195758617985
 30
0.0
 10
121.6485155485169
 20
37.7097154989269
 30
0.0
 10
121.3715886772563
 20
38.03023074201199
 30
0.0
 10
120.8890773460854
 20
38.48275081904254
 30
0.0
 10
120.716545192202
 20
38.62837473603192
 30
0.0
 10
120.352385679877
 20
38.89165920542006
 30
0.0
 10
120.1590203883287
 20
39.01102825988453
 30
0.0
 10
119.9505198515034
 20
39.1106999082937
 30
0.0
  0
SPLINE
  5
9F
330
1F
100
AcDbEntity
  8
0
  6
HIDDEN
 62
     7
370
    18
100
AcDbSpline
210
0.0
220
0.0
230
1.0
 70
    11
 71
     3
 72
    72
 73
    68
 74
     0
 42
0.00000001
 43
0.00000001
 40
0.0
 40
0.0
 40
0.0
 40
0.0
 40
0.0312499999999997
 40
0.0312499999999997
 40
0.0624999999999994
 40
0.0624999999999994
 40
0.1249999999999996
 40
0.1249999999999996
 40
0.1562499999999994
 40
0.1562499999999994
 40
0.1874999999999992
 40
0.1874999999999992
 40
0.218749999999999
 40
0.218749999999999
 40
0.2499999999999988
 40
0.2499999999999988
 40
0.2812499999999986
 40
0.2812499999999986
 40
0.2968749999999985
 40
0.2968749999999985
 40
0.3124999999999984
 40
0.3124999999999984
 40
0.3437499999999985
 40
0.3437499999999985
 40
0.3749999999999986
 40
0.3749999999999986
 40
0.4062499999999987
 40
0.4062499999999987
 40
0.4374999999999987
 40
0.4374999999999987
 40
0.4687499999999988
 40
0.4687499999999988
 40
0.4999999999999989
 40
0.4999999999999989
 40
0.531249999999999
 40
0.531249999999999
 40
0.562499999999999
 40
0.562499999999999
 40
0.5937499999999991
 40
0.5937499999999991
 40
0.6249999999999992
 40
0.6249999999999992
 40
0.6562499999999992
 40
0.6562499999999992
 40
0.6874999999999993
 40
0.6874999999999993
 40
0.7187499999999994
 40
0.7187499999999994
 40
0.7499999999999994
 40
0.7499999999999994
 40
0.7812499999999996
 40
0.7812499999999996
 40
0.8124999999999997
 40
0.8124999999999997
 40
0.8437499999999998
 40
0.8437499999999998
 40
0.8749999999999998
 40
0.8749999999999998
 40
0.9062499999999999
 40
0.9062499999999999
 40
0.9375
 40
0.9375
 40
0.96875
 40
0.96875
 40
0.984375
 40
0.984375
 40
1.0
 40
1.0
 40
1.0
 40
1.0
 10
44.76418289469689
 20
39.11069990829368
 30
0.0
 10
44.5551707412403
 20
39.01078368654304
 30
0.0
 10
44.36249971839829
 20
38.89176217412964
 30
0.0
 10
43.99873826814042
 20
38.62882361412952
 30
0.0
 10
43.8265336258389
 20
38.48355066865778
 30
0.0
 10
43.34361961979474
 20
38.03080834375609
 30
0.0
 10
43.06656195833256
 20
37.71016990015504
 30
0.0
 10
42.69182622121816
 20
37.22229259925121
 30
0.0
 10
42.57404349932879
 20
37.05800858174761
 30
0.0
 10
42.3570065303249
 20
36.73629245581798
 30
0.0
 10
42.25702669428324
 20
36.57793843216853
 30
0.0
 10
42.07450394332447
 20
36.26866345456649
 30
0.0
 10
41.99192227562396
 20
36.11770918871751
 30
0.0
 10
41.84731939790275
 20
35.82656465110968
 30
0.0
 10
41.78611521129452
 20
35.68780291063383
 30
0.0
 10
41.69420160224841
 20
35.43573546493052
 30
0.0
 10
41.66284701629662
 20
35.32021354595807
 30
0.0
 10
41.64682004757598
 20
35.17702936802488
 30
0.0
 10
41.6465547343152
 20
35.13420287801801
 30
0.0
 10
41.65744180805302
 20
35.05934151001226
 30
0.0
 10
41.6687809126504
 20
35.02709086259541
 30
0.0
 10
41.72124164688891
 20
34.95045197210022
 30
0.0
 10
41.77989138090625
 20
34.9257481165787
 30
0.0
 10
41.94863538018316
 20
34.92772341338523
 30
0.0
 10
42.05575779695057
 20
34.95459820003064
 30
0.0
 10
42.30793804083224
 20
35.04785029184142
 30
0.0
 10
42.45133053665067
 20
35.11352113020548
 30
0.0
 10
42.76091401218844
 20
35.26718634610028
 30
0.0
 10
42.93041381924274
 20
35.35687694504025
 30
0.0
 10
43.28216317898308
 20
35.54586874277299
 30
0.0
 10
43.46507729796686
 20
35.64547896305567
 30
0.0
 10
43.8458870715714
 20
35.85041648070439
 30
0.0
 10
44.0448852579224
 20
35.95631071572605
 30
0.0
 10
44.44642599225437
 20
36.16466432213794
 30
0.0
 10
44.65164276872335
 20
36.26852507892966
 30
0.0
 10
45.06334632732464
 20
36.47078964861792
 30
0.0
 10
45.26734509374238
 20
36.56800256639721
 30
0.0
 10
45.67093433960351
 20
36.75582770804983
 30
0.0
 10
45.87240196138446
 20
36.8472551201946
 30
0.0
 10
46.257546663192
 20
37.02117876439889
 30
0.0
 10
46.44133501232551
 20
37.10376246670263
 30
0.0
 10
46.78854142633473
 20
37.26499976365694
 30
0.0
 10
46.94747658335657
 20
37.34164770358485
 30
0.0
 10
47.23295748732491
 20
37.49227369974975
 30
0.0
 10
47.36092628602041
 20
37.56716514702869
 30
0.0
 10
47.57599567504752
 20
37.7168869748071
 30
0.0
 10
47.66276402764717
 20
37.79120961686843
 30
0.0
 10
47.79499716564173
 20
37.94411675708736
 30
0.0
 10
47.84029624568676
 20
38.02337321830571
 30
0.0
 10
47.88541389682082
 20
38.18371374908841
 30
0.0
 10
47.88616153473469
 20
38.26543393185962
 30
0.0
 10
47.84419053159939
 20
38.43409206134952
 30
0.0
 10
47.80123800953018
 20
38.52031020899854
 30
0.0
 10
47.67546153458995
 20
38.69107237924322
 30
0.0
 10
47.59229470754292
 20
38.77662492887434
 30
0.0
 10
47.3839967174523
 20
38.94428432489617
 30
0.0
 10
47.26197692532109
 20
39.02401331067716
 30
0.0
 10
46.9807931633899
 20
39.16938715365709
 30
0.0
 10
46.81927746852197
 20
39.23588106853146
 30
0.0
 10
46.46227851464342
 20
39.33805443748791
 30
0.0
 10
46.26746383364288
 20
39.37375334689651
 30
0.0
 10
45.84800912514724
 20
39.39466825818642
 30
0.0
 10
45.63250511921824
 20
39.37923958753942
 30
0.0
 10
45.30196059670138
 20
39.30998724570715
 30
0.0
 10
45.19099218994776
 20
39.27913463815955
 30
0.0
 10
44.97486493116461
 20
39.20455745191051
 30
0.0
 10
44.86868897142518
 20
39.160658019169
 30
0.0
 10
44.76418289469689
 20
39.11069990829368
 30
0.0
  0
SPLINE
  5
A0
330
1F
100
AcDbEntity
  8
0
  6
HIDDEN
 62
     7
370
    18
100
AcDbSpline
210
0.0
220
0.0
230
1.0
 70
     8
 71
     3
 72
     9
 73
     5
 74
     0
 42
0.00000001
 43
0.00000001
 40
0.0
 40
0.0
 40
0.0
 40
0.0
 40
0.4949092166994026
 40
1.0
 40
1.0
 40
1.0
 40
1.0
 10
126.8323351471196
 20
32.56164762196521
 30
0.0
 10
127.2818676058493
 20
32.27404406865352
 30
0.0
 10
128.190180572271
 20
31.6929202107675
 30
0.0
 10
129.0219698648298
 20
31.09146579389854
 30
0.0
 10
129.4420989701493
 20
30.78767671136259
 30
0.0
  0
SPLINE
  5
A1
330
1F
100
AcDbEntity
  8
0
  6
HIDDEN
 62
     7
370
    18
100
AcDbSpline
210
0.0
220
0.0
230
1.0
 70
     8
 71
     3
 72
     9
 73
     5
 74
     0
 42
0.00000001
 43
0.00000001
 40
0.0
 40
0.0
 40
0.0
 40
0.0
 40
0.5044309954106215
 40
1.0
 40
1.0
 40
1.0
 40
1.0
 10
35.27260103877033
 20
30.78767468280992
 30
0.0
 10
35.69216324217263
 20
31.09105850907286
 30
0.0
 10
36.52391665784202
 20
31.69249622607115
 30
0.0
 10
37.43223378468193
 20
32.2736472082229
 30
0.0
 10
37.88236759908147
 20
32.56164762196398
 30
0.0
  0
ARC
  5
A2
330
1F
100
AcDbEntity
  8
0
  6
HIDDEN
 62
     7
370
    18
100
AcDbCircle
 10
82.3573513731
 20
-39.5294744423
 30
0.0
 40
84.63175223838807
100
AcDbArc
 50
58.3284297582
 51
62.2070436964
  0
ARC
  5
A3
330
1F
100
AcDbEntity
  8
0
  6
HIDDEN
 62
     7
370
    18
100
AcDbCircle
 10
82.3573513731
 20
-39.5294744423
 30
0.0
 40
84.63175223838809
100
AcDbArc
 50
65.0208156249
 51
114.9688077618
  0
ARC
  5
A4
330
1F
100
AcDbEntity
  8
0
  6
HIDDEN
 62
     7
370
    18
100
AcDbCircle
 10
82.3573513731
 20
-39.5294744423
 30
0.0
 40
84.63175223838807
100
AcDbArc
 50
117.7746494881
 51
121.6715702418
  0
LINE
  5
A5
330
1F
100
AcDbEntity
  8
0
  6
HIDDEN
 62
     7
370
    18
100
AcDbLine
 10
41.6480382927
 20
35.1822353461
 30
0.0
 11
41.6480382927
 21
30.0892709979
 31
0.0
  0
LINE
  5
A6
330
1F
100
AcDbEntity
  8
0
  6
HIDDEN
 62
     7
370
    18
100
AcDbLine
 10
47.8803274967
 20
33.3619077898
 30
0.0
 11
47.8803274967
 21
38.2342610339
 31
0.0
  0
LINE
  5
A7
330
1F
100
AcDbEntity
  8
0
  6
HIDDEN
 62
     7
370
    18
100
AcDbLine
 10
116.8343752495
 20
38.2307044244
 30
0.0
 11
116.8343752495
 21
33.358044222
 31
0.0
  0
LINE
  5
A8
330
1F
100
AcDbEntity
  8
0
  6
HIDDEN
 62
     7
370
    18
100
AcDbLine
 10
123.0666644535
 20
30.1059615932
 30
0.0
 11
123.0666644535
 21
35.1760298993
 31
0.0
  0
LINE
  5
A9
330
1F
100
AcDbEntity
  8
0
  6
HIDDEN
 62
     7
370
    18
100
AcDbLine
 10
116.8343752495
 20
85.1163096372
 30
0.0
 11
116.8343752495
 21
84.6829546254
 31
0.0
  0
LINE
  5
AA
330
1F
100
AcDbEntity
  8
0
  6
HIDDEN
 62
     7
370
    18
100
AcDbLine
 10
123.0666644535
 20
84.6882968263
 30
0.0
 11
123.0666644535
 21
85.1163096372
 31
0.0
  0
LINE
  5
AB
330
1F
100
AcDbEntity
  8
0
  6
HIDDEN
 62
     7
370
    18
100
AcDbLine
 10
41.6480382927
 20
85.1163096372
 30
0.0
 11
41.6480382927
 21
84.6829546254
 31
0.0
  0
LINE
  5
AC
330
1F
100
AcDbEntity
  8
0
  6
HIDDEN
 62
     7
370
    18
100
AcDbLine
 10
47.8803274967
 20
84.6882968263
 30
0.0
 11
47.8803274967
 21
85.1163096372
 31
0.0
  0
SPLINE
  5
AD
330
1F
100
AcDbEntity
  8
0
  6
HIDDEN
 62
     7
370
    18
100
AcDbSpline
210
0.0
220
0.0
230
1.0
 70
     8
 71
     3
 72
    13
 73
     9
 74
     0
 42
0.00000001
 43
0.00000001
 40
0.0
 40
0.0
 40
0.0
 40
0.0
 40
0.104704237442757
 40
0.2296147348656033
 40
0.3634445896953748
 40
0.5000064755747479
 40
0.7618226061949566
 40
1.0
 40
1.0
 40
1.0
 40
1.0
 10
129.4422279045955
 20
30.78751101497066
 30
0.0
 10
129.53309941698
 20
30.73186040372601
 30
0.0
 10
129.7323792048152
 20
30.60981949441675
 30
0.0
 10
130.0004942045274
 20
30.32398169424913
 30
0.0
 10
130.2410059045
 20
29.97794023704512
 30
0.0
 10
130.4923189938212
 20
29.47193063044545
 30
0.0
 10
130.6841692527205
 20
28.82674984815856
 30
0.0
 10
130.7083817215189
 20
28.33949356181275
 30
0.0
 10
130.7199155963278
 20
28.10738369092918
 30
0.0
  0
SPLINE
  5
AE
330
1F
100
AcDbEntity
  8
0
  6
HIDDEN
 62
     7
370
    18
100
AcDbSpline
210
0.0
220
0.0
230
1.0
 70
     8
 71
     3
 72
    13
 73
     9
 74
     0
 42
0.00000001
 43
0.00000001
 40
0.0
 40
0.0
 40
0.0
 40
0.0
 40
0.2381773982639131
 40
0.4999935235438568
 40
0.6365554092352909
 40
0.7703852640564366
 40
0.8952957618177203
 40
0.9999999999999999
 40
0.9999999999999999
 40
0.9999999999999999
 40
0.9999999999999999
 10
33.99478715014509
 20
28.107383692353
 30
0.0
 10
34.00632102252057
 20
28.33949337431216
 30
0.0
 10
34.0305334857146
 20
28.82674925407792
 30
0.0
 10
34.22238374892645
 20
29.47193070941164
 30
0.0
 10
34.47369683476035
 20
29.97794021516448
 30
0.0
 10
34.71420853531564
 20
30.32398169198683
 30
0.0
 10
34.98232353624682
 20
30.60981948907132
 30
0.0
 10
35.18160332638597
 20
30.73186040099516
 30
0.0
 10
35.27247484003644
 20
30.78751101356385
 30
0.0
  0
LINE
  5
AF
330
1F
100
AcDbEntity
  8
0
  6
HIDDEN
 62
     7
370
    18
100
AcDbLine
 10
42.8944961335
 20
90.1021410004
 30
0.0
 11
42.8944961335
 21
85.1163096372
 31
0.0
  0
LINE
  5
B0
330
1F
100
AcDbEntity
  8
0
  6
HIDDEN
 62
     7
370
    18
100
AcDbLine
 10
46.6338696559
 20
85.1163096372
 30
0.0
 11
46.6338696559
 21
90.1021410004
 31
0.0
  0
LINE
  5
B1
330
1F
100
AcDbEntity
  8
0
  6
HIDDEN
 62
     7
370
    18
100
AcDbLine
 10
118.0808330903
 20
90.1021410004
 30
0.0
 11
118.0808330903
 21
85.1163096372
 31
0.0
  0
LINE
  5
B2
330
1F
100
AcDbEntity
  8
0
  6
HIDDEN
 62
     7
370
    18
100
AcDbLine
 10
121.8202066127
 20
85.1163096372
 30
0.0
 11
121.8202066127
 21
90.1021410004
 31
0.0
  0
INSERT
  5
BE
330
1F
100
AcDbEntity
  8
10
100
AcDbBlockReference
  2
SW_CENTERMARKSYMBOL_0
 10
82.3573513731
 20
-39.5294744423
 30
0.0
  0
SPLINE
  5
BF
330
1F
100
AcDbEntity
  8
0
  6
Continuous
 62
     7
370
    25
100
AcDbSpline
210
0.0
220
0.0
230
1.0
 70
     8
 71
     3
 72
    10
 73
     6
 74
     0
 42
0.00000001
 43
0.00000001
 40
0.0
 40
0.0
 40
0.0
 40
0.0
 40
0.1192381886912179
 40
0.3994869208236402
 40
1.0
 40
1.0
 40
1.0
 40
1.0
 10
33.9948494552043
 20
165.5643118403082
 30
0.0
 10
33.99485509613968
 20
164.37558013578
 30
0.0
 10
33.99487399511771
 20
160.3929402320725
 30
0.0
 10
33.99475683772317
 20
150.4200049952123
 30
0.0
 10
33.9947786637192
 20
141.6374466611943
 30
0.0
 10
33.99479354492306
 20
135.6494019021123
 30
0.0
  0
SPLINE
  5
C0
330
1F
100
AcDbEntity
  8
0
  6
Continuous
 62
     7
370
    25
100
AcDbSpline
210
0.0
220
0.0
230
1.0
 70
     8
 71
     3
 72
    10
 73
     6
 74
     0
 42
0.00000001
 43
0.00000001
 40
0.0
 40
0.0
 40
0.0
 40
0.0
 40
0.6205802187024705
 40
0.9008236832378055
 40
1.0
 40
1.0
 40
1.0
 40
1.0
 10
130.7199050027879
 20
135.649434162957
 30
0.0
 10
130.7198579683578
 20
141.8386039317461
 30
0.0
 10
130.7197896939796
 20
150.822697428896
 30
0.0
 10
130.7198915688576
 20
160.7925261286456
 30
0.0
 10
130.7198899720401
 20
164.5754861202914
 30
0.0
 10
130.7198895546488
 20
165.5643118403082
 30
0.0
  0
LINE
  5
C1
330
1F
100
AcDbEntity
  8
0
  6
Continuous
 62
     7
370
    25
100
AcDbLine
 10
130.719915596
 20
165.5643118403
 30
0.0
 11
33.9947871502
 21
165.5643118403
 31
0.0
  0
LINE
  5
C2
330
1F
100
AcDbEntity
  8
0
  6
Continuous
 62
     7
370
    25
100
AcDbLine
 10
33.9947871502
 20
165.5643118403
 30
0.0
 11
33.9947871502
 21
180.5218059299
 31
0.0
  0
LINE
  5
C3
330
1F
100
AcDbEntity
  8
0
  6
Continuous
 62
     7
370
    25
100
AcDbLine
 10
33.9947871502
 20
180.5218059299
 30
0.0
 11
130.719915596
 21
180.5218059299
 31
0.0
  0
LINE
  5
C4
330
1F
100
AcDbEntity
  8
0
  6
Continuous
 62
     7
370
    25
100
AcDbLine
 10
130.719915596
 20
165.5643118403
 30
0.0
 11
130.719915596
 21
180.5218059299
 31
0.0
  0
CIRCLE
  5
C5
330
1F
100
AcDbEntity
  8
0
  6
Continuous
 62
     7
370
    25
100
AcDbCircle
 10
44.7641828947
 20
170.5501432035
 30
0.0
 40
1.869686761193776
  0
CIRCLE
  5
C6
330
1F
100
AcDbEntity
  8
0
  6
Continuous
 62
     7
370
    25
100
AcDbCircle
 10
119.9505198515
 20
170.5501432035
 30
0.0
 40
1.869686761193776
  0
LINE
  5
C7
330
1F
100
AcDbEntity
  8
0
  6
Continuous
 62
     7
370
    25
100
AcDbLine
 10
129.8654875571
 20
135.6493236612
 30
0.0
 11
34.8492347204
 21
135.6493236612
 31
0.0
  0
SPLINE
  5
C8
330
1F
100
AcDbEntity
  8
0
  6
Continuous
 62
     7
370
    25
100
AcDbSpline
210
0.0
220
0.0
230
1.0
 70
    24
 71
     3
 72
    10
 73
     6
 74
     0
 42
0.00000001
 43
0.00000001
 40
0.0
 40
0.0
 40
0.0
 40
0.0
 40
0.3383845094239141
 40
0.6767167971170168
 40
1.0
 40
1.0
 40
1.0
 40
1.0
 10
34.84923472042846
 20
135.6493236612077
 30
0.0
 10
34.6849652925546
 20
135.6493236612077
 30
0.0
 10
34.35645178794919
 20
135.6493236612077
 30
0.0
 10
34.05330412196145
 20
135.6493236612077
 30
0.0
 10
34.01723682953259
 20
135.6493236612077
 30
0.0
 10
33.99961337605878
 20
135.6493236612077
 30
0.0
  0
SPLINE
  5
C9
330
1F
100
AcDbEntity
  8
0
  6
Continuous
 62
     7
370
    25
100
AcDbSpline
210
0.0
220
0.0
230
1.0
 70
    24
 71
     3
 72
    11
 73
     7
 74
     0
 42
0.00000001
 43
0.00000001
 40
0.0
 40
0.0
 40
0.0
 40
0.0
 40
0.2101668037025587
 40
0.5510702461004671
 40
0.8912636429970203
 40
1.0
 40
1.0
 40
1.0
 40
1.0
 10
130.6947444841373
 20
135.6493236612077
 30
0.0
 10
130.6963952761317
 20
135.6493236612077
 30
0.0
 10
130.7007237539628
 20
135.6493236612077
 30
0.0
 10
130.4685500810106
 20
135.6493236612078
 30
0.0
 10
130.1489570196901
 20
135.6493236612075
 30
0.0
 10
129.920759764061
 20
135.6493236612077
 30
0.0
 10
129.8654875571297
 20
135.6493236612077
 30
0.0
  0
LINE
  5
CA
330
1F
100
AcDbEntity
  8
0
  6
HIDDEN
 62
     7
370
    18
100
AcDbLine
 10
130.719915596
 20
175.5359745667
 30
0.0
 11
33.9947871502
 21
175.5359745667
 31
0.0
  0
ARC
  5
CB
330
1F
100
AcDbEntity
  8
0
  6
HIDDEN
 62
     7
370
    18
100
AcDbCircle
 10
119.9505198515
 20
170.5501432035
 30
0.0
 40
3.116144601989652
100
AcDbArc
 50
306.8698976458
 51
233.1301023542
  0
ARC
  5
CC
330
1F
100
AcDbEntity
  8
0
  6
HIDDEN
 62
     7
370
    18
100
AcDbCircle
 10
44.7641828947
 20
170.5501432035
 30
0.0
 40
3.116144601989652
100
AcDbArc
 50
306.8698976458
 51
233.1301023542
  0
LINE
  5
CD
330
1F
100
AcDbEntity
  8
0
  6
HIDDEN
 62
     7
370
    18
100
AcDbLine
 10
43.9664498766
 20
180.5218059299
 30
0.0
 11
43.9664498766
 21
175.5359745667
 31
0.0
  0
LINE
  5
CE
330
1F
100
AcDbEntity
  8
0
  6
HIDDEN
 62
     7
370
    18
100
AcDbLine
 10
77.3715200099
 20
175.5359745667
 30
0.0
 11
77.3715200099
 21
180.5218059299
 31
0.0
  0
LINE
  5
CF
330
1F
100
AcDbEntity
  8
0
  6
HIDDEN
 62
     7
370
    18
100
AcDbLine
 10
120.7482528696
 20
175.5359745667
 30
0.0
 11
120.7482528696
 21
180.5218059299
 31
0.0
  0
LINE
  5
D0
330
1F
100
AcDbEntity
  8
0
  6
HIDDEN
 62
     7
370
    18
100
AcDbLine
 10
87.3431827363
 20
180.5218059299
 30
0.0
 11
87.3431827363
 21
175.5359745667
 31
0.0
  0
SPLINE
  5
D1
330
1F
100
AcDbEntity
  8
0
  6
HIDDEN
 62
     7
370
    18
100
AcDbSpline
210
0.0
220
0.0
230
1.0
 70
     8
 71
     3
 72
     9
 73
     5
 74
     0
 42
0.00000001
 43
0.00000001
 40
0.0
 40
0.0
 40
0.0
 40
0.0
 40
0.8188080506976215
 40
1.0
 40
1.0
 40
1.0
 40
1.0
 10
119.9505198515034
 20
173.6662878054816
 30
0.0
 10
119.7211034133435
 20
173.6633378078952
 30
0.0
 10
119.4409199955518
 20
173.6597350128519
 30
0.0
 10
119.1613812064387
 20
173.5546957728641
 30
0.0
 10
119.1107310283337
 20
173.5356635082174
 30
0.0
  0
SPLINE
  5
D2
330
1F
100
AcDbEntity
  8
0
  6
HIDDEN
 62
     7
370
    18
100
AcDbSpline
210
0.0
220
0.0
230
1.0
 70
     8
 71
     3
 72
    16
 73
    12
 74
     0
 42
0.00000001
 43
0.00000001
 40
0.0
 40
0.0
 40
0.0
 40
0.0
 40
0.2500000000000009
 40
0.2500000000000009
 40
0.5000000000000018
 40
0.5000000000000018
 40
0.7500000000000027
 40
0.7500000000000027
 40
0.8750000000000013
 40
0.8750000000000013
 40
1.0
 40
1.0
 40
1.0
 40
1.0
 10
118.0808330903096
 20
168.0572275219002
 30
0.0
 10
118.3593459713221
 20
167.8483428611408
 30
0.0
 10
118.6623855549478
 20
167.692530178259
 30
0.0
 10
119.3068927375937
 20
167.4824101143553
 30
0.0
 10
119.6400753434144
 20
167.4317592752563
 30
0.0
 10
120.3043992906617
 20
167.4363892859478
 30
0.0
 10
120.6254179365137
 20
167.490254591014
 30
0.0
 10
121.0931091880273
 20
167.6463768682086
 30
0.0
 10
121.246689403474
 20
167.711496876698
 30
0.0
 10
121.5412187179789
 20
167.8654373364984
 30
0.0
 10
121.6832843064534
 20
167.9545357922174
 30
0.0
 10
121.8202066126968
 20
168.0572275218999
 30
0.0
  0
LINE
  5
D3
330
1F
100
AcDbEntity
  8
0
  6
HIDDEN
 62
     7
370
    18
100
AcDbLine
 10
120.1000537126
 20
173.6539571915
 30
0.0
 11
119.9505198515
 21
173.6662878055
 31
0.0
  0
SPLINE
  5
D4
330
1F
100
AcDbEntity
  8
0
  6
HIDDEN
 62
     7
370
    18
100
AcDbSpline
210
0.0
220
0.0
230
1.0
 70
     8
 71
     3
 72
     9
 73
     5
 74
     0
 42
0.00000001
 43
0.00000001
 40
0.0
 40
0.0
 40
0.0
 40
0.0
 40
0.5378495487764431
 40
1.0
 40
1.0
 40
1.0
 40
1.0
 10
44.76418289469689
 20
173.6662878054816
 30
0.0
 10
44.59043895299538
 20
173.658738853721
 30
0.0
 10
44.26740448713639
 20
173.6447034198758
 30
0.0
 10
43.99387380075382
 20
173.5654726102572
 30
0.0
 10
43.86746147061862
 20
173.5288560558411
 30
0.0
  0
SPLINE
  5
D5
330
1F
100
AcDbEntity
  8
0
  6
HIDDEN
 62
     7
370
    18
100
AcDbSpline
210
0.0
220
0.0
230
1.0
 70
     8
 71
     3
 72
    18
 73
    14
 74
     0
 42
0.00000001
 43
0.00000001
 40
0.0
 40
0.0
 40
0.0
 40
0.0
 40
0.2500000000000016
 40
0.2500000000000016
 40
0.3749999999999998
 40
0.3749999999999998
 40
0.4999999999999981
 40
0.4999999999999981
 40
0.7499999999999988
 40
0.7499999999999988
 40
0.8749999999999994
 40
0.8749999999999994
 40
1.0
 40
1.0
 40
1.0
 40
1.0
 10
42.89449613350313
 20
168.0572275219002
 30
0.0
 10
43.16848261997011
 20
167.8517376570499
 30
0.0
 10
43.46060617485479
 20
167.700721598198
 30
0.0
 10
43.92826450329552
 20
167.5437105557171
 30
0.0
 10
44.08903843540106
 20
167.5035976685913
 30
0.0
 10
44.41259620184731
 20
167.449555108541
 30
0.0
 10
44.5764407836761
 20
167.4352275254249
 30
0.0
 10
45.0747322953861
 20
167.4317662770962
 30
0.0
 10
45.40352631769676
 20
167.4815880657926
 30
0.0
 10
45.8862073507415
 20
167.6380946690701
 30
0.0
 10
46.0451247714395
 20
167.7043109923091
 30
0.0
 10
46.34870214554665
 20
167.8614870690104
 30
0.0
 10
46.49462561831443
 20
167.952794493718
 30
0.0
 10
46.63386965589068
 20
168.0572275219002
 30
0.0
  0
LINE
  5
D6
330
1F
100
AcDbEntity
  8
0
  6
HIDDEN
 62
     7
370
    18
100
AcDbLine
 10
44.9082188205
 20
173.6532998013
 30
0.0
 11
44.7641828947
 21
173.6662878055
 31
0.0
  0
LINE
  5
D7
330
1F
100
AcDbEntity
  8
0
  6
HIDDEN
 62
     7
370
    18
100
AcDbLine
 10
33.9948186607
 20
175.485573652
 30
0.0
 11
33.9948494552
 21
165.5643118403
 31
0.0
  0
LINE
  5
D8
330
1F
100
AcDbEntity
  8
0
  6
HIDDEN
 62
     7
370
    18
100
AcDbLine
 10
130.7198895546
 20
165.5643118403
 30
0.0
 11
130.7198945641
 21
175.4851167569
 31
0.0
  0
INSERT
  5
E4
330
1F
100
AcDbEntity
  8
10
100
AcDbBlockReference
  2
SW_CENTERMARKSYMBOL_1
 10
119.9505198515
 20
170.5501432035
 30
0.0
  0
INSERT
  5
F0
330
1F
100
AcDbEntity
  8
10
100
AcDbBlockReference
  2
SW_CENTERMARKSYMBOL_2
 10
44.7641828947
 20
170.5501432035
 30
0.0
  0
SPLINE
  5
F1
330
1F
100
AcDbEntity
  8
0
  6
Continuous
 62
     7
370
    25
100
AcDbSpline
210
0.0
220
0.0
230
1.0
 70
     8
 71
     3
 72
    11
 73
     7
 74
     0
 42
0.00000001
 43
0.00000001
 40
0.0
 40
0.0
 40
0.0
 40
0.0
 40
0.5390632546202843
 40
0.699093586531947
 40
0.8103640951928671
 40
1.0
 40
1.0
 40
1.0
 40
1.0
 10
200.6469878902105
 20
30.4293270522144
 30
0.0
 10
208.7106585950646
 20
29.58673103665861
 30
0.0
 10
219.1681706316436
 20
28.49399569351721
 30
0.0
 10
231.2887663364097
 20
27.21424382018474
 30
0.0
 10
238.1828021296213
 20
26.48458869345117
 30
0.0
 10
242.6830979619855
 20
26.00605919581101
 30
0.0
 10
245.5192544341397
 20
25.70448245899105
 30
0.0
  0
ARC
  5
F2
330
1F
100
AcDbEntity
  8
0
  6
Continuous
 62
     7
370
    25
100
AcDbCircle
 10
233.0572275219
 20
52.5810248408
 30
0.0
 40
7.478747044775186
100
AcDbArc
 50
265.0
 51
0.0
  0
LINE
  5
F3
330
1F
100
AcDbEntity
  8
0
  6
Continuous
 62
     7
370
    25
100
AcDbLine
 10
232.4054117684
 20
45.1307366864
 30
0.0
 11
200.6493236612
 21
47.9090343938
 31
0.0
  0
SPLINE
  5
F4
330
1F
100
AcDbEntity
  8
0
  6
Continuous
 62
     7
370
    25
100
AcDbSpline
210
0.0
220
0.0
230
1.0
 70
    24
 71
     3
 72
    12
 73
     8
 74
     0
 42
0.00000001
 43
0.00000001
 40
0.0
 40
0.0
 40
0.0
 40
0.0
 40
0.2161967738956798
 40
0.4324126671812209
 40
0.6480703471259884
 40
0.8625699909879696
 40
1.0
 40
1.0
 40
1.0
 40
1.0
 10
245.5218059298588
 20
27.57736836935909
 30
0.0
 10
245.5218059298588
 20
27.36597446349575
 30
0.0
 10
245.5218059298588
 20
26.94316795712146
 30
0.0
 10
245.5218059298591
 20
26.37867572418597
 30
0.0
 10
245.5218059298588
 20
25.95944682657062
 30
0.0
 10
245.5218059298588
 20
25.72442738692086
 30
0.0
 10
245.5218059298588
 20
25.72735248784079
 30
0.0
 10
245.5218059298588
 20
25.7284947520476
 30
0.0
  0
SPLINE
  5
F5
330
1F
100
AcDbEntity
  8
0
  6
Continuous
 62
     7
370
    25
100
AcDbSpline
210
0.0
220
0.0
230
1.0
 70
    24
 71
     3
 72
    16
 73
    12
 74
     0
 42
0.00000001
 43
0.00000001
 40
0.0
 40
0.0
 40
0.0
 40
0.0
 40
0.0392155559014221
 40
0.1693224601883695
 40
0.2995528157236407
 40
0.4303011331278397
 40
0.5617387571767654
 40
0.6937387249766613
 40
0.8259255251998705
 40
0.957837002175603
 40
1.0
 40
1.0
 40
1.0
 40
1.0
 10
200.6493236612077
 20
30.45161483967016
 30
0.0
 10
200.6493236612077
 20
30.44517434836613
 30
0.0
 10
200.6493236612077
 20
30.41736600019016
 30
0.0
 10
200.6493236612078
 20
30.58178721487887
 30
0.0
 10
200.6493236612077
 20
30.93128004616908
 30
0.0
 10
200.6493236612077
 20
31.44991140897582
 30
0.0
 10
200.6493236612077
 20
32.06174302570351
 30
0.0
 10
200.6493236612077
 20
32.70447114288213
 30
0.0
 10
200.6493236612078
 20
33.30050887602461
 30
0.0
 10
200.6493236612075
 20
33.67978040648924
 30
0.0
 10
200.6493236612077
 20
33.83832221300412
 30
0.0
 10
200.6493236612077
 20
33.87672300583051
 30
0.0
  0
LINE
  5
F6
330
1F
100
AcDbEntity
  8
0
  6
Continuous
 62
     7
370
    25
100
AcDbLine
 10
230.5643118403
 20
85.1163096372
 30
0.0
 11
230.5643118403
 21
90.1021410004
 31
0.0
  0
LINE
  5
F7
330
1F
100
AcDbEntity
  8
0
  6
Continuous
 62
     7
370
    25
100
AcDbLine
 10
230.5643118403
 20
90.1021410004
 30
0.0
 11
245.5218059299
 21
90.1021410004
 31
0.0
  0
LINE
  5
F8
330
1F
100
AcDbEntity
  8
0
  6
Continuous
 62
     7
370
    25
100
AcDbLine
 10
240.5359745667
 20
36.5982125424
 30
0.0
 11
240.5359745667
 21
28.1073836928
 31
0.0
  0
LINE
  5
F9
330
1F
100
AcDbEntity
  8
0
  6
Continuous
 62
     7
370
    25
100
AcDbLine
 10
240.5359745667
 20
38.8631684521
 30
0.0
 11
240.5359745667
 21
36.5982125424
 31
0.0
  0
LINE
  5
FA
330
1F
100
AcDbEntity
  8
0
  6
Continuous
 62
     7
370
    25
100
AcDbLine
 10
240.5359745667
 20
77.6375625925
 30
0.0
 11
240.5359745667
 21
38.8631684521
 31
0.0
  0
ARC
  5
FB
330
1F
100
AcDbEntity
  8
0
  6
Continuous
 62
     7
370
    25
100
AcDbCircle
 10
233.0572275219
 20
77.6375625925
 30
0.0
 40
7.47874704477519
100
AcDbArc
 50
0.0
 51
90.0
  0
LINE
  5
FC
330
1F
100
AcDbEntity
  8
0
  6
Continuous
 62
     7
370
    25
100
AcDbLine
 10
230.5643118403
 20
85.1163096372
 30
0.0
 11
233.0572275219
 21
85.1163096372
 31
0.0
  0
LINE
  5
FD
330
1F
100
AcDbEntity
  8
0
  6
Continuous
 62
     7
370
    25
100
AcDbLine
 10
245.5218059299
 20
90.1021410004
 30
0.0
 11
245.5218059299
 21
27.5773683694
 31
0.0
  0
SPLINE
  5
FE
330
1F
100
AcDbEntity
  8
0
  6
Continuous
 62
     7
370
    25
100
AcDbSpline
210
0.0
220
0.0
230
1.0
 70
    11
 71
     3
 72
    68
 73
    64
 74
     0
 42
0.00000001
 43
0.00000001
 40
0.0
 40
0.0
 40
0.0
 40
0.0
 40
0.0312500000000002
 40
0.0312500000000002
 40
0.0625000000000005
 40
0.0625000000000005
 40
0.0937500000000007
 40
0.0937500000000007
 40
0.125000000000001
 40
0.125000000000001
 40
0.1562500000000012
 40
0.1562500000000012
 40
0.1875000000000015
 40
0.1875000000000015
 40
0.2187500000000017
 40
0.2187500000000017
 40
0.250000000000002
 40
0.250000000000002
 40
0.2812500000000022
 40
0.2812500000000022
 40
0.3125000000000025
 40
0.3125000000000025
 40
0.3437500000000028
 40
0.3437500000000028
 40
0.375000000000003
 40
0.375000000000003
 40
0.4062500000000032
 40
0.4062500000000032
 40
0.4375000000000035
 40
0.4375000000000035
 40
0.4687500000000038
 40
0.4687500000000038
 40
0.500000000000004
 40
0.500000000000004
 40
0.5625000000000036
 40
0.5625000000000036
 40
0.5937500000000039
 40
0.5937500000000039
 40
0.6093750000000041
 40
0.6093750000000041
 40
0.6250000000000043
 40
0.6250000000000043
 40
0.6562500000000039
 40
0.6562500000000039
 40
0.6875000000000034
 40
0.6875000000000034
 40
0.7031250000000033
 40
0.7031250000000033
 40
0.7187500000000031
 40
0.7187500000000031
 40
0.7500000000000027
 40
0.7500000000000027
 40
0.8125000000000019
 40
0.8125000000000019
 40
0.8437500000000017
 40
0.8437500000000017
 40
0.8750000000000013
 40
0.8750000000000013
 40
0.9375000000000009
 40
0.9375000000000009
 40
0.9687500000000004
 40
0.9687500000000004
 40
1.0
 40
1.0
 40
1.0
 40
1.0
 10
238.6662878054816
 20
39.1106999082937
 30
0.0
 10
238.6662878054816
 20
39.21037155670287
 30
0.0
 10
238.6457118951369
 20
39.28555443777509
 30
0.0
 10
238.5523431892532
 20
39.37889845861859
 30
0.0
 10
238.4811579851132
 20
39.39456226202213
 30
0.0
 10
238.2908554028526
 20
39.37405246012012
 30
0.0
 10
238.1734507082704
 20
39.33838026590352
 30
0.0
 10
237.9036373025953
 20
39.23607210941632
 30
0.0
 10
237.7521987771241
 20
39.16997407754261
 30
0.0
 10
237.4261304643739
 20
39.02422741777037
 30
0.0
 10
237.2482978238349
 20
38.94306660472377
 30
0.0
 10
236.8755165542278
 20
38.7763782557392
 30
0.0
 10
236.6812336611497
 20
38.69108647941018
 30
0.0
 10
236.2761779608694
 20
38.51917240974397
 30
0.0
 10
236.0659518712333
 20
38.43283177227259
 30
0.0
 10
235.6453415625869
 20
38.26556905452166
 30
0.0
 10
235.4329497461438
 20
38.18378254644207
 30
0.0
 10
235.00461498073
 20
38.02191822445332
 30
0.0
 10
234.7944329660875
 20
37.94399600291124
 30
0.0
 10
234.3873428189626
 20
37.79162450430805
 30
0.0
 10
234.1880554116362
 20
37.71627162076613
 30
0.0
 10
233.8121467327776
 20
37.56639263661944
 30
0.0
 10
233.6377198572348
 20
37.49275590683477
 30
0.0
 10
233.3169623488899
 20
37.34193986750638
 30
0.0
 10
233.1697629764511
 20
37.2641328162625
 30
0.0
 10
232.9138777726596
 20
37.10296736946728
 30
0.0
 10
232.8065136220821
 20
37.02071088238674
 30
0.0
 10
232.6309368236638
 20
36.8481988880197
 30
0.0
 10
232.5623683004814
 20
36.75708560736962
 30
0.0
 10
232.4677533291418
 20
36.56784481686506
 30
0.0
 10
232.4414335776371
 20
36.47020014433201
 30
0.0
 10
232.4292749899292
 20
36.2677357575056
 30
0.0
 10
232.4437504150767
 20
36.16417405300298
 30
0.0
 10
232.544602506022
 20
35.8538084552812
 30
0.0
 10
232.6901107769515
 20
35.64074654958544
 30
0.0
 10
233.0226496615507
 20
35.35646573532973
 30
0.0
 10
233.15386811893
 20
35.26702254427421
 30
0.0
 10
233.3769737359673
 20
35.15172535839356
 30
0.0
 10
233.4559643577385
 20
35.11624430010278
 30
0.0
 10
233.6241220514552
 20
35.05253398609412
 30
0.0
 10
233.7138796494619
 20
35.02421723013121
 30
0.0
 10
233.9920556015342
 20
34.95481363043146
 30
0.0
 10
234.1909928136739
 20
34.92811164599674
 30
0.0
 10
234.6191151109766
 20
34.9254095753799
 30
0.0
 10
234.8402133814177
 20
34.95020204818184
 30
0.0
 10
235.1706720689837
 20
35.02617639850217
 30
0.0
 10
235.2819373025054
 20
35.05831090350052
 30
0.0
 10
235.4986233986731
 20
35.13328279275206
 30
0.0
 10
235.6046852959241
 20
35.17617953085323
 30
0.0
 10
235.9166903590992
 20
35.31953662612917
 30
0.0
 10
236.1160143371459
 20
35.4348967235137
 30
0.0
 10
236.669062915404
 20
35.81169975390336
 30
0.0
 10
236.992254208934
 20
36.11174902446503
 30
0.0
 10
237.4071369507387
 20
36.57679993494906
 30
0.0
 10
237.534867292575
 20
36.73545478263443
 30
0.0
 10
237.7723644311161
 20
37.05760045812413
 30
0.0
 10
237.882582127307
 20
37.22195758617985
 30
0.0
 10
238.182542441735
 20
37.7097154989269
 30
0.0
 10
238.3446209037637
 20
38.03023074201199
 30
0.0
 10
238.5265526630519
 20
38.48275081904254
 30
0.0
 10
238.5763490756306
 20
38.62837473603192
 30
0.0
 10
238.6458209417497
 20
38.89165920542006
 30
0.0
 10
238.6662878054816
 20
39.01102825988453
 30
0.0
 10
238.6662878054816
 20
39.1106999082937
 30
0.0
  0
LINE
  5
FF
330
1F
100
AcDbEntity
  8
0
  6
Continuous
 62
     7
370
    25
100
AcDbLine
 10
200.6493236612
 20
33.8767230058
 30
0.0
 11
200.6493236612
 21
47.9090343938
 31
0.0
  0
SPLINE
  5
100
330
1F
100
AcDbEntity
  8
0
  6
HIDDEN
 62
     7
370
    18
100
AcDbSpline
210
0.0
220
0.0
230
1.0
 70
    11
 71
     3
 72
    66
 73
    62
 74
     0
 42
0.00000001
 43
0.00000001
 40
0.0
 40
0.0
 40
0.0
 40
0.0
 40
0.0624999999999998
 40
0.0624999999999998
 40
0.09375
 40
0.09375
 40
0.1250000000000003
 40
0.1250000000000003
 40
0.1562500000000005
 40
0.1562500000000005
 40
0.1875000000000007
 40
0.1875000000000007
 40
0.218750000000001
 40
0.218750000000001
 40
0.2500000000000012
 40
0.2500000000000012
 40
0.2812500000000014
 40
0.2812500000000014
 40
0.3125000000000017
 40
0.3125000000000017
 40
0.3437500000000019
 40
0.3437500000000019
 40
0.3750000000000022
 40
0.3750000000000022
 40
0.4062500000000024
 40
0.4062500000000024
 40
0.4375000000000027
 40
0.4375000000000027
 40
0.4687500000000029
 40
0.4687500000000029
 40
0.5000000000000031
 40
0.5000000000000031
 40
0.5625000000000028
 40
0.5625000000000028
 40
0.5937500000000027
 40
0.5937500000000027
 40
0.6250000000000024
 40
0.6250000000000024
 40
0.6562500000000022
 40
0.6562500000000022
 40
0.687500000000002
 40
0.687500000000002
 40
0.7187500000000018
 40
0.7187500000000018
 40
0.7500000000000016
 40
0.7500000000000016
 40
0.7812500000000014
 40
0.7812500000000014
 40
0.8125000000000012
 40
0.8125000000000012
 40
0.843750000000001
 40
0.843750000000001
 40
0.8750000000000008
 40
0.8750000000000008
 40
0.9062500000000006
 40
0.9062500000000006
 40
0.9375000000000004
 40
0.9375000000000004
 40
0.9687500000000002
 40
0.9687500000000002
 40
1.0
 40
1.0
 40
1.0
 40
1.0
 10
232.4339986015023
 20
32.12616650131145
 30
0.0
 10
232.4339986015023
 20
32.33000221437402
 30
0.0
 10
232.5048191571592
 20
32.52074865488533
 30
0.0
 10
232.7266674585302
 20
32.78184035499047
 30
0.0
 10
232.8182039611881
 20
32.86228760446608
 30
0.0
 10
233.0374107695572
 20
33.0101014083497
 30
0.0
 10
233.1664946536916
 20
33.07805325046497
 30
0.0
 10
233.4594856592992
 20
33.1968377892491
 30
0.0
 10
233.6204205354585
 20
33.24677247236479
 30
0.0
 10
233.9719859304813
 20
33.32777185032443
 30
0.0
 10
234.1655505112116
 20
33.35898313641832
 30
0.0
 10
234.5660582592961
 20
33.39852413876616
 30
0.0
 10
234.7738243438604
 20
33.40742108545775
 30
0.0
 10
235.2049142853194
 20
33.40302832653489
 30
0.0
 10
235.4235172404522
 20
33.38959464018971
 30
0.0
 10
235.8552011471682
 20
33.34196757064674
 30
0.0
 10
236.0724613967992
 20
33.30712202437746
 30
0.0
 10
236.4872760272614
 20
33.21950387234292
 30
0.0
 10
236.6862608276128
 20
33.16680893230119
 30
0.0
 10
237.0678653364716
 20
33.04381550230966
 30
0.0
 10
237.2453138650466
 20
32.97512103496956
 30
0.0
 10
237.5729638579044
 20
32.8252665764566
 30
0.0
 10
237.7248007880218
 20
32.743070056703
 30
0.0
 10
237.9936425491087
 20
32.57095983617799
 30
0.0
 10
238.1115559207446
 20
32.4808664199539
 30
0.0
 10
238.3158741636628
 20
32.2925501925674
 30
0.0
 10
238.4017535041444
 20
32.1943879913166
 30
0.0
 10
238.5369795198689
 20
31.9965681807294
 30
0.0
 10
238.5873172742055
 20
31.89606845258534
 30
0.0
 10
238.6534225706326
 20
31.69168368844762
 30
0.0
 10
238.6687867829681
 20
31.58814627650484
 30
0.0
 10
238.6602909449194
 20
31.28099017809766
 30
0.0
 10
238.5842863241317
 20
31.08285924317648
 30
0.0
 10
238.3591822830427
 20
30.8024415095743
 30
0.0
 10
238.2672340624366
 20
30.71421605685041
 30
0.0
 10
238.0486398419604
 20
30.548952720094
 30
0.0
 10
237.9211112189921
 20
30.47144847522016
 30
0.0
 10
237.6300415671638
 20
30.33183998248871
 30
0.0
 10
237.4704855072847
 20
30.27147314817983
 30
0.0
 10
237.1222507695086
 20
30.17092615524721
 30
0.0
 10
236.9304509719094
 20
30.13036457147264
 30
0.0
 10
236.529564338246
 20
30.07560124651017
 30
0.0
 10
236.3220265025448
 20
30.0611330992654
 30
0.0
 10
235.8923858494437
 20
30.05905756567556
 30
0.0
 10
235.6714231662784
 20
30.07192223568374
 30
0.0
 10
235.2396766434809
 20
30.12334333270394
 30
0.0
 10
235.023236331992
 20
30.16254265455164
 30
0.0
 10
234.609791656785
 20
30.26273681571199
 30
0.0
 10
234.4125191468671
 20
30.32336044915262
 30
0.0
 10
234.0355919239389
 20
30.46389541254372
 30
0.0
 10
233.8602293614706
 20
30.54230135565049
 30
0.0
 10
233.5371311783613
 20
30.71127461401557
 30
0.0
 10
233.3875719237767
 20
30.80303092937197
 30
0.0
 10
233.1217110147764
 20
30.99297858494441
 30
0.0
 10
233.0046507272598
 20
31.09133551223458
 30
0.0
 10
232.8006385294157
 20
31.29407689887034
 30
0.0
 10
232.7139105128794
 20
31.39866806281211
 30
0.0
 10
232.5757752863428
 20
31.6065851985281
 30
0.0
 10
232.5233939727807
 20
31.71078038226126
 30
0.0
 10
232.4523760418591
 20
31.91947553574892
 30
0.0
 10
232.4339986015023
 20
32.02424864478017
 30
0.0
 10
232.4339986015023
 20
32.12616650131145
 30
0.0
  0
LINE
  5
101
330
1F
100
AcDbEntity
  8
0
  6
HIDDEN
 62
     7
370
    18
100
AcDbLine
 10
238.6662878055
 20
85.1163096372
 30
0.0
 11
233.0572275219
 21
85.1163096372
 31
0.0
  0
LINE
  5
102
330
1F
100
AcDbEntity
  8
0
  6
HIDDEN
 62
     7
370
    18
100
AcDbLine
 10
245.5218059299
 20
75.1446469109
 30
0.0
 11
240.5359745667
 21
75.1446469109
 31
0.0
  0
LINE
  5
103
330
1F
100
AcDbEntity
  8
0
  6
HIDDEN
 62
     7
370
    18
100
AcDbLine
 10
245.5218059299
 20
40.2438273686
 30
0.0
 11
200.6493236612
 21
44.1696608714
 31
0.0
  0
LINE
  5
104
330
1F
100
AcDbEntity
  8
0
  6
HIDDEN
 62
     7
370
    18
100
AcDbLine
 10
238.6662878055
 20
82.5974027711
 30
0.0
 11
238.6662878055
 21
85.1163096372
 31
0.0
  0
LINE
  5
105
330
1F
100
AcDbEntity
  8
0
  6
HIDDEN
 62
     7
370
    18
100
AcDbLine
 10
232.4339986015
 20
36.3236132857
 30
0.0
 11
232.4339986015
 21
32.1261665013
 31
0.0
  0
LINE
  5
106
330
1F
100
AcDbEntity
  8
0
  6
HIDDEN
 62
     7
370
    18
100
AcDbLine
 10
238.6662878055
 20
31.5098525716
 30
0.0
 11
238.6662878055
 21
39.1106999083
 31
0.0
  0
LINE
  5
107
330
1F
100
AcDbEntity
  8
0
  6
HIDDEN
 62
     7
370
    18
100
AcDbLine
 10
233.6804564423
 20
90.1021410004
 30
0.0
 11
233.6804564423
 21
85.1163096372
 31
0.0
  0
LINE
  5
108
330
1F
100
AcDbEntity
  8
0
  6
HIDDEN
 62
     7
370
    18
100
AcDbLine
 10
237.4198299647
 20
85.1163096372
 30
0.0
 11
237.4198299647
 21
90.1021410004
 31
0.0
  0
LINE
  5
109
330
1F
100
AcDbEntity
  8
0
  6
HIDDEN
 62
     7
370
    18
100
AcDbLine
 10
240.5359745667
 20
49.564313334
 30
0.0
 11
245.5218059299
 21
49.564313334
 31
0.0
  0
ENDSEC
  0
SECTION
  2
OBJECTS
  0
DICTIONARY
  5
C
330
0
100
AcDbDictionary
281
     1
  3
ACAD_GROUP
350
D
  3
ACAD_LAYOUT
350
1A
  3
ACAD_MLINESTYLE
350
17
  3
ACAD_PLOTSETTINGS
350
19
  3
ACAD_PLOTSTYLENAME
350
E
  3
ACAD_SCALELIST
350
47
  3
DWGPROPS
350
10A
  0
DICTIONARY
  5
D
102
{ACAD_REACTORS
330
C
102
}
330
C
100
AcDbDictionary
281
     1
  0
DICTIONARY
  5
1A
102
{ACAD_REACTORS
330
C
102
}
330
C
100
AcDbDictionary
281
     1
  3
Layout1
350
1E
  3
Layout2
350
26
  3
Model
350
22
  0
DICTIONARY
  5
17
102
{ACAD_REACTORS
330
C
102
}
330
C
100
AcDbDictionary
281
     1
  3
Standard
350
18
  0
DICTIONARY
  5
19
102
{ACAD_REACTORS
330
C
102
}
330
C
100
AcDbDictionary
281
     1
  0
ACDBDICTIONARYWDFLT
  5
E
102
{ACAD_REACTORS
330
C
102
}
330
C
100
AcDbDictionary
281
     1
  3
Normal
350
F
100
AcDbDictionaryWithDefault
340
F
  0
DICTIONARY
  5
47
102
{ACAD_REACTORS
330
C
102
}
330
C
100
AcDbDictionary
281
     1
  3
A0
350
48
  3
A1
350
49
  3
A2
350
4A
  3
A3
350
4B
  3
A4
350
4C
  3
A5
350
4D
  3
A6
350
4E
  3
A7
350
4F
  3
A8
350
50
  3
A9
350
51
  3
B0
350
52
  3
B1
350
53
  3
B2
350
54
  3
B3
350
55
  3
B4
350
56
  3
B5
350
57
  3
B6
350
58
  0
XRECORD
  5
10A
102
{ACAD_REACTORS
330
C
102
}
330
C
100
AcDbXrecord
280
     1
  1
DWGPROPS COOKIE
  2

  3

  4

  6

  7

  8

  9

300
=
301
=
302
=
303
=
304
=
305
=
306
=
307
=
308
=
309
=
 40
0.0
 41
2461213.099407685
 42
2461213.099408033
  1

 90
        0
  0
LAYOUT
  5
1E
102
{ACAD_REACTORS
330
1A
102
}
330
1A
100
AcDbPlotSettings
  1

  2
none_device
  4

  6

 40
0.0
 41
0.0
 42
0.0
 43
0.0
 44
0.0
 45
0.0
 46
0.0
 47
0.0
 48
0.0
 49
0.0
140
0.0
141
0.0
142
1.0
143
1.0
 70
   688
 72
     1
 73
     0
 74
     5
  7

 75
    16
147
1.0
148
0.0
149
0.0
100
AcDbLayout
  1
Layout1
 70
     1
 71
     1
 10
0.0
 20
0.0
 11
420.0
 21
297.0
 12
0.0
 22
0.0
 32
0.0
 14
1.0000000000E+20
 24
1.0000000000E+20
 34
1.0000000000E+20
 15
-1.0000000000E+20
 25
-1.0000000000E+20
 35
-1.0000000000E+20
146
0.0
 13
0.0
 23
0.0
 33
0.0
 16
1.0
 26
0.0
 36
0.0
 17
0.0
 27
1.0
 37
0.0
 76
     0
330
1B
  0
LAYOUT
  5
26
102
{ACAD_REACTORS
330
1A
102
}
330
1A
100
AcDbPlotSettings
  1

  2
none_device
  4

  6

 40
0.0
 41
0.0
 42
0.0
 43
0.0
 44
0.0
 45
0.0
 46
0.0
 47
0.0
 48
0.0
 49
0.0
140
0.0
141
0.0
142
1.0
143
1.0
 70
   688
 72
     1
 73
     0
 74
     5
  7

 75
    16
147
1.0
148
0.0
149
0.0
100
AcDbLayout
  1
Layout2
 70
     1
 71
     2
 10
0.0
 20
0.0
 11
0.0
 21
0.0
 12
0.0
 22
0.0
 32
0.0
 14
0.0
 24
0.0
 34
0.0
 15
0.0
 25
0.0
 35
0.0
146
0.0
 13
0.0
 23
0.0
 33
0.0
 16
1.0
 26
0.0
 36
0.0
 17
0.0
 27
1.0
 37
0.0
 76
     0
330
23
  0
LAYOUT
  5
22
102
{ACAD_REACTORS
330
1A
102
}
330
1A
100
AcDbPlotSettings
  1

  2
none_device
  4
Letter_(8.50_x_11.00_Inches)
  6

 40
6.35
 41
6.35
 42
6.35000508
 43
6.35000508
 44
215.9
 45
279.4
 46
0.0
 47
0.0
 48
0.0
 49
0.0
140
0.0
141
0.0
142
1.0
143
1.0
 70
  1712
 72
     1
 73
     0
 74
     0
  7

 75
     0
147
1.0
148
0.0
149
0.0
100
AcDbLayout
  1
Model
 70
     1
 71
     0
 10
0.0
 20
0.0
 11
297.0
 21
210.0
 12
0.0
 22
0.0
 32
0.0
 14
0.0
 24
0.0
 34
0.0
 15
297.0
 25
210.0
 35
0.0
146
0.0
 13
0.0
 23
0.0
 33
0.0
 16
1.0
 26
0.0
 36
0.0
 17
0.0
 27
1.0
 37
0.0
 76
     0
330
1F
331
29
  0
MLINESTYLE
  5
18
102
{ACAD_REACTORS
330
17
102
}
330
17
100
AcDbMlineStyle
  2
Standard
 70
     0
  3

 62
   256
 51
90.0
 52
90.0
 71
     2
 49
0.5
 62
   256
  6
BYLAYER
 49
-0.5
 62
   256
  6
BYLAYER
  0
ACDBPLACEHOLDER
  5
F
102
{ACAD_REACTORS
330
E
102
}
330
E
  0
SCALE
  5
48
102
{ACAD_REACTORS
330
47
102
}
330
47
100
AcDbScale
 70
     0
300
1:1
140
1.0
141
1.0
290
     1
  0
SCALE
  5
49
102
{ACAD_REACTORS
330
47
102
}
330
47
100
AcDbScale
 70
     0
300
1:2
140
1.0
141
2.0
290
     0
  0
SCALE
  5
4A
102
{ACAD_REACTORS
330
47
102
}
330
47
100
AcDbScale
 70
     0
300
1:4
140
1.0
141
4.0
290
     0
  0
SCALE
  5
4B
102
{ACAD_REACTORS
330
47
102
}
330
47
100
AcDbScale
 70
     0
300
1:5
140
1.0
141
5.0
290
     0
  0
SCALE
  5
4C
102
{ACAD_REACTORS
330
47
102
}
330
47
100
AcDbScale
 70
     0
300
1:8
140
1.0
141
8.0
290
     0
  0
SCALE
  5
4D
102
{ACAD_REACTORS
330
47
102
}
330
47
100
AcDbScale
 70
     0
300
1:10
140
1.0
141
10.0
290
     0
  0
SCALE
  5
4E
102
{ACAD_REACTORS
330
47
102
}
330
47
100
AcDbScale
 70
     0
300
1:16
140
1.0
141
16.0
290
     0
  0
SCALE
  5
4F
102
{ACAD_REACTORS
330
47
102
}
330
47
100
AcDbScale
 70
     0
300
1:20
140
1.0
141
20.0
290
     0
  0
SCALE
  5
50
102
{ACAD_REACTORS
330
47
102
}
330
47
100
AcDbScale
 70
     0
300
1:30
140
1.0
141
30.0
290
     0
  0
SCALE
  5
51
102
{ACAD_REACTORS
330
47
102
}
330
47
100
AcDbScale
 70
     0
300
1:40
140
1.0
141
40.0
290
     0
  0
SCALE
  5
52
102
{ACAD_REACTORS
330
47
102
}
330
47
100
AcDbScale
 70
     0
300
1:50
140
1.0
141
50.0
290
     0
  0
SCALE
  5
53
102
{ACAD_REACTORS
330
47
102
}
330
47
100
AcDbScale
 70
     0
300
1:100
140
1.0
141
100.0
290
     0
  0
SCALE
  5
54
102
{ACAD_REACTORS
330
47
102
}
330
47
100
AcDbScale
 70
     0
300
2:1
140
2.0
141
1.0
290
     0
  0
SCALE
  5
55
102
{ACAD_REACTORS
330
47
102
}
330
47
100
AcDbScale
 70
     0
300
4:1
140
4.0
141
1.0
290
     0
  0
SCALE
  5
56
102
{ACAD_REACTORS
330
47
102
}
330
47
100
AcDbScale
 70
     0
300
8:1
140
8.0
141
1.0
290
     0
  0
SCALE
  5
57
102
{ACAD_REACTORS
330
47
102
}
330
47
100
AcDbScale
 70
     0
300
10:1
140
10.0
141
1.0
290
     0
  0
SCALE
  5
58
102
{ACAD_REACTORS
330
47
102
}
330
47
100
AcDbScale
 70
     0
300
100:1
140
100.0
141
1.0
290
     0
  0
ENDSEC
  0
EOF
