  0
SECTION
  2
HEADER
  9
$ACADVER
  1
AC1015
  9
$ACADMAINTVER
 70
     6
  9
$DWGCODEPAGE
  3
ANSI_936
  9
$INSBASE
 10
0.0
 20
0.0
 30
0.0
  9
$EXTMIN
 10
0.0
 20
0.0
 30
0.0
  9
$EXTMAX
 10
297.0
 20
210.0
 30
0.0
  9
$LIMMIN
 10
0.0
 20
0.0
  9
$LIMMAX
 10
297.0
 20
210.0
  9
$ORTHOMODE
 70
     0
  9
$REGENMODE
 70
     1
  9
$FILLMODE
 70
     1
  9
$QTEXTMODE
 70
     0
  9
$MIRRTEXT
 70
     1
  9
$LTSCALE
 40
1.0
  9
$ATTMODE
 70
     1
  9
$TEXTSIZE
 40
3.5
  9
$TRACEWID
 40
1.0
  9
$TEXTSTYLE
  7
Standard
  9
$CLAYER
  8
0
  9
$CELTYPE
  6
ByLayer
  9
$CECOLOR
 62
   256
  9
$CELTSCALE
 40
1.0
  9
$DISPSILH
 70
     0
  9
$DIMSCALE
 40
1.0
  9
$DIMASZ
 40
4.08
  9
$DIMEXO
 40
0.0
  9
$DIMDLI
 40
3.75
  9
$DIMRND
 40
0.0
  9
$DIMDLE
 40
0.0
  9
$DIMEXE
 40
2.0
  9
$DIMTP
 40
0.0
  9
$DIMTM
 40
0.0
  9
$DIMTXT
 40
3.5
  9
$DIMCEN
 40
2.5
  9
$DIMTSZ
 40
0.0
  9
$DIMTOL
 70
     0
  9
$DIMLIM
 70
     0
  9
$DIMTIH
 70
     1
  9
$DIMTOH
 70
     1
  9
$DIMSE1
 70
     0
  9
$DIMSE2
 70
     0
  9
$DIMTAD
 70
     1
  9
$DIMZIN
 70
     0
  9
$DIMBLK
  1

  9
$DIMASO
 70
     1
  9
$DIMSHO
 70
     1
  9
$DIMPOST
  1

  9
$DIMAPOST
  1

  9
$DIMALT
 70
     0
  9
$DIMALTD
 70
     3
  9
$DIMALTF
 40
0.0393700787
  9
$DIMLFAC
 40
2.0
  9
$DIMTOFL
 70
     1
  9
$DIMTVP
 40
0.0
  9
$DIMTIX
 70
     0
  9
$DIMSOXD
 70
     0
  9
$DIMSAH
 70
     0
  9
$DIMBLK1
  1

  9
$DIMBLK2
  1

  9
$DIMSTYLE
  2
ISO-25
  9
$DIMCLRD
 70
     0
  9
$DIMCLRE
 70
     0
  9
$DIMCLRT
 70
     0
  9
$DIMTFAC
 40
1.0
  9
$DIMGAP
 40
1.524
  9
$DIMJUST
 70
     0
  9
$DIMSD1
 70
     0
  9
$DIMSD2
 70
     0
  9
$DIMTOLJ
 70
     0
  9
$DIMTZIN
 70
     0
  9
$DIMALTZ
 70
     0
  9
$DIMALTTZ
 70
     0
  9
$DIMUPT
 70
     0
  9
$DIMDEC
 70
     2
  9
$DIMTDEC
 70
     2
  9
$DIMALTU
 70
     2
  9
$DIMALTTD
 70
     3
  9
$DIMTXSTY
  7
Standard
  9
$DIMAUNIT
 70
     0
  9
$DIMADEC
 70
     2
  9
$DIMALTRND
 40
0.0
  9
$DIMAZIN
 70
     0
  9
$DIMDSEP
 70
    44
  9
$DIMATFIT
 70
     3
  9
$DIMFRAC
 70
     0
  9
$DIMLDRBLK
  1

  9
$DIMLUNIT
 70
     2
  9
$DIMLWD
 70
    -2
  9
$DIMLWE
 70
    -2
  9
$DIMTMOVE
 70
     0
  9
$LUNITS
 70
     2
  9
$LUPREC
 70
     2
  9
$SKETCHINC
 40
1.0
  9
$FILLETRAD
 40
0.0
  9
$AUNITS
 70
     0
  9
$AUPREC
 70
     2
  9
$MENU
  1
.
  9
$ELEVATION
 40
0.0
  9
$PELEVATION
 40
0.0
  9
$THICKNESS
 40
0.0
  9
$LIMCHECK
 70
     0
  9
$CHAMFERA
 40
0.0
  9
$CHAMFERB
 40
0.0
  9
$CHAMFERC
 40
0.0
  9
$CHAMFERD
 40
0.0
  9
$SKPOLY
 70
     0
  9
$TDCREATE
 40
2461214.844983449
  9
$TDUCREATE
 40
2461214.511650116
  9
$TDUPDATE
 40
2461214.844983693
  9
$TDUUPDATE
 40
2461214.511650359
  9
$TDINDWG
 40
0.0000000116
  9
$TDUSRTIMER
 40
0.0000000116
  9
$USRTIMER
 70
     1
  9
$ANGBASE
 50
0.0
  9
$ANGDIR
 70
     0
  9
$PDMODE
 70
     0
  9
$PDSIZE
 40
-1.0
  9
$PLINEWID
 40
0.0
  9
$SPLFRAME
 70
     0
  9
$SPLINETYPE
 70
     6
  9
$SPLINESEGS
 70
     8
  9
$HANDSEED
  5
C7
  9
$SURFTAB1
 70
     6
  9
$SURFTAB2
 70
     6
  9
$SURFTYPE
 70
     6
  9
$SURFU
 70
     6
  9
$SURFV
 70
     6
  9
$UCSBASE
  2

  9
$UCSNAME
  2

  9
$UCSORG
 10
0.0
 20
0.0
 30
0.0
  9
$UCSXDIR
 10
1.0
 20
0.0
 30
0.0
  9
$UCSYDIR
 10
0.0
 20
1.0
 30
0.0
  9
$UCSORTHOREF
  2

  9
$UCSORTHOVIEW
 70
     0
  9
$UCSORGTOP
 10
0.0
 20
0.0
 30
0.0
  9
$UCSORGBOTTOM
 10
0.0
 20
0.0
 30
0.0
  9
$UCSORGLEFT
 10
0.0
 20
0.0
 30
0.0
  9
$UCSORGRIGHT
 10
0.0
 20
0.0
 30
0.0
  9
$UCSORGFRONT
 10
0.0
 20
0.0
 30
0.0
  9
$UCSORGBACK
 10
0.0
 20
0.0
 30
0.0
  9
$PUCSBASE
  2

  9
$PUCSNAME
  2

  9
$PUCSORG
 10
0.0
 20
0.0
 30
0.0
  9
$PUCSXDIR
 10
1.0
 20
0.0
 30
0.0
  9
$PUCSYDIR
 10
0.0
 20
1.0
 30
0.0
  9
$PUCSORTHOREF
  2

  9
$PUCSORTHOVIEW
 70
     0
  9
$PUCSORGTOP
 10
0.0
 20
0.0
 30
0.0
  9
$PUCSORGBOTTOM
 10
0.0
 20
0.0
 30
0.0
  9
$PUCSORGLEFT
 10
0.0
 20
0.0
 30
0.0
  9
$PUCSORGRIGHT
 10
0.0
 20
0.0
 30
0.0
  9
$PUCSORGFRONT
 10
0.0
 20
0.0
 30
0.0
  9
$PUCSORGBACK
 10
0.0
 20
0.0
 30
0.0
  9
$USERI1
 70
     0
  9
$USERI2
 70
     0
  9
$USERI3
 70
     0
  9
$USERI4
 70
     0
  9
$USERI5
 70
     0
  9
$USERR1
 40
0.0
  9
$USERR2
 40
0.0
  9
$USERR3
 40
0.0
  9
$USERR4
 40
0.0
  9
$USERR5
 40
0.0
  9
$WORLDVIEW
 70
     1
  9
$SHADEDGE
 70
     3
  9
$SHADEDIF
 70
    70
  9
$TILEMODE
 70
     1
  9
$MAXACTVP
 70
    64
  9
$PINSBASE
 10
0.0
 20
0.0
 30
0.0
  9
$PLIMCHECK
 70
     0
  9
$PEXTMIN
 10
1.0000000000E+20
 20
1.0000000000E+20
 30
1.0000000000E+20
  9
$PEXTMAX
 10
-1.0000000000E+20
 20
-1.0000000000E+20
 30
-1.0000000000E+20
  9
$PLIMMIN
 10
0.0
 20
0.0
  9
$PLIMMAX
 10
420.0
 20
297.0
  9
$UNITMODE
 70
     0
  9
$VISRETAIN
 70
     1
  9
$PLINEGEN
 70
     0
  9
$PSLTSCALE
 70
     1
  9
$TREEDEPTH
 70
  3020
  9
$CMLSTYLE
  2
Standard
  9
$CMLJUST
 70
     0
  9
$CMLSCALE
 40
20.0
  9
$PROXYGRAPHICS
 70
     1
  9
$MEASUREMENT
 70
     1
  9
$CELWEIGHT
370
    -1
  9
$ENDCAPS
280
     0
  9
$JOINSTYLE
280
     0
  9
$LWDISPLAY
290
     1
  9
$INSUNITS
 70
     4
  9
$HYPERLINKBASE
  1

  9
$STYLESHEET
  1

  9
$XEDIT
290
     1
  9
$CEPSNTYPE
380
     0
  9
$PSTYLEMODE
290
     1
  9
$FINGERPRINTGUID
  2
{301b790d-4177-4508-b533-bdf64905223a}
  9
$VERSIONGUID
  2
{FAEB1C32-E019-11D5-929B-00C0DF256EC4}
  9
$EXTNAMES
290
     1
  9
$PSVPSCALE
 40
0.0
  9
$OLESTARTUP
290
     0
  0
ENDSEC
  0
SECTION
  2
CLASSES
  0
CLASS
  1
ACDBDICTIONARYWDFLT
  2
AcDbDictionaryWithDefault
  3
ObjectDBX Classes
 90
        0
280
     0
281
     0
  0
CLASS
  1
VISUALSTYLE
  2
AcDbVisualStyle
  3
ObjectDBX Classes
 90
     4095
280
     0
281
     0
  0
CLASS
  1
MATERIAL
  2
AcDbMaterial
  3
ObjectDBX Classes
 90
     1153
280
     0
281
     0
  0
CLASS
  1
SCALE
  2
AcDbScale
  3
ObjectDBX Classes
 90
     1153
280
     0
281
     0
  0
CLASS
  1
TABLESTYLE
  2
AcDbTableStyle
  3
ObjectDBX Classes
 90
     4095
280
     0
281
     0
  0
CLASS
  1
MLEADERSTYLE
  2
AcDbMLeaderStyle
  3
ACDB_MLEADERSTYLE_CLASS
 90
     4095
280
     0
281
     0
  0
CLASS
  1
SUN
  2
AcDbSun
  3
SCENEOE
 90
     1153
280
     0
281
     0
  0
CLASS
  1
ACDBPLACEHOLDER
  2
AcDbPlaceHolder
  3
ObjectDBX Classes
 90
        0
280
     0
281
     0
  0
CLASS
  1
LAYOUT
  2
AcDbLayout
  3
ObjectDBX Classes
 90
        0
280
     0
281
     0
  0
ENDSEC
  0
SECTION
  2
TABLES
  0
TABLE
  2
VPORT
  5
8
330
0
100
AcDbSymbolTable
 70
     1
  0
VPORT
  5
29
330
8
100
AcDbSymbolTableRecord
100
AcDbViewportTableRecord
  2
*Active
 70
     0
 10
0.0
 20
0.0
 11
1.0
 21
1.0
 12
148.5
 22
105.0
 13
0.0
 23
0.0
 14
10.0
 24
10.0
 15
10.0
 25
10.0
 16
0.0
 26
0.0
 36
1.0
 17
0.0
 27
0.0
 37
0.0
 40
210.0
 41
1.4142857143
 42
50.0
 43
0.0
 44
0.0
 50
0.0
 51
0.0
 71
     0
 72
  2000
 73
     1
 74
     3
 75
     0
 76
     0
 77
     0
 78
     0
281
     0
 65
     1
110
0.0
120
0.0
130
0.0
111
1.0
121
0.0
131
0.0
112
0.0
122
1.0
132
0.0
 79
     0
146
0.0
  0
ENDTAB
  0
TABLE
  2
LTYPE
  5
5
330
0
100
AcDbSymbolTable
 70
     6
  0
LTYPE
  5
14
330
5
100
AcDbSymbolTableRecord
100
AcDbLinetypeTableRecord
  2
ByBlock
 70
     0
  3

 72
    65
 73
     0
 40
0.0
  0
LTYPE
  5
15
330
5
100
AcDbSymbolTableRecord
100
AcDbLinetypeTableRecord
  2
ByLayer
 70
     0
  3

 72
    65
 73
     0
 40
0.0
  0
LTYPE
  5
16
330
5
100
AcDbSymbolTableRecord
100
AcDbLinetypeTableRecord
  2
Continuous
 70
     0
  3
Solid line
 72
    65
 73
     0
 40
0.0
  0
LTYPE
  5
5E
330
5
100
AcDbSymbolTableRecord
100
AcDbLinetypeTableRecord
  2
HIDDEN
 70
     0
  3
Hidden __ __ __ __ __ __ __ __ __ __ __ __ __ __
 72
    65
 73
     2
 40
1.905
 49
1.27
 74
     0
 49
-0.635
 74
     0
  0
LTYPE
  5
5F
330
5
100
AcDbSymbolTableRecord
100
AcDbLinetypeTableRecord
  2
PHANTOM
 70
     0
  3
Phantom ______  __  __  ______  __  __  ______
 72
    65
 73
     6
 40
12.7
 49
6.35
 74
     0
 49
-1.27
 74
     0
 49
1.27
 74
     0
 49
-1.27
 74
     0
 49
1.27
 74
     0
 49
-1.27
 74
     0
  0
LTYPE
  5
60
330
5
100
AcDbSymbolTableRecord
100
AcDbLinetypeTableRecord
  2
CENTER
 70
     0
  3
Center ____ _ ____ _ ____ _ ____ _ ____ _ ____
 72
    65
 73
     4
 40
10.16
 49
6.35
 74
     0
 49
-1.27
 74
     0
 49
1.27
 74
     0
 49
-1.27
 74
     0
  0
LTYPE
  5
61
330
5
100
AcDbSymbolTableRecord
100
AcDbLinetypeTableRecord
  2
CENTERX2
 70
     0
  3
Center (2x) ________  __  ________  __  _____
 72
    65
 73
     4
 40
20.32
 49
12.7
 74
     0
 49
-2.54
 74
     0
 49
2.54
 74
     0
 49
-2.54
 74
     0
  0
LTYPE
  5
62
330
5
100
AcDbSymbolTableRecord
100
AcDbLinetypeTableRecord
  2
DOT2
 70
     0
  3
Dot (.5x) ........................................
 72
    65
 73
     2
 40
0.635
 49
0.0
 74
     0
 49
-0.635
 74
     0
  0
ENDTAB
  0
TABLE
  2
LAYER
  5
2
330
0
100
AcDbSymbolTable
 70
    14
  0
LAYER
  5
10
330
2
100
AcDbSymbolTableRecord
100
AcDbLayerTableRecord
  2
0
 70
     0
 62
     7
  6
Continuous
370
    -3
390
F
  0
LAYER
  5
63
330
2
100
AcDbSymbolTableRecord
100
AcDbLayerTableRecord
  2
SLD-0
 70
     0
 62
     7
  6
Continuous
370
    -3
390
F
  0
LAYER
  5
64
330
2
100
AcDbSymbolTableRecord
100
AcDbLayerTableRecord
  2
5
 70
     0
 62
     7
  6
Continuous
370
    -3
390
F
  0
LAYER
  5
65
330
2
100
AcDbSymbolTableRecord
100
AcDbLayerTableRecord
  2
9
 70
     0
 62
     7
  6
Continuous
370
    -3
390
F
  0
LAYER
  5
66
330
2
100
AcDbSymbolTableRecord
100
AcDbLayerTableRecord
  2
10
 70
     0
 62
     7
  6
Continuous
370
    -3
390
F
  0
LAYER
  5
67
330
2
100
AcDbSymbolTableRecord
100
AcDbLayerTableRecord
  2
轮廓实线层
 70
     0
 62
     7
  6
Continuous
370
    50
390
F
  0
LAYER
  5
68
330
2
100
AcDbSymbolTableRecord
100
AcDbLayerTableRecord
  2
细线层
 70
     0
 62
     4
  6
Continuous
370
    25
390
F
  0
LAYER
  5
69
330
2
100
AcDbSymbolTableRecord
100
AcDbLayerTableRecord
  2
中心线层
 70
     0
 62
     1
  6
CENTERX2
370
    25
390
F
  0
LAYER
  5
6A
330
2
100
AcDbSymbolTableRecord
100
AcDbLayerTableRecord
  2
虚线层
 70
     0
 62
     6
  6
HIDDEN
370
    25
390
F
  0
LAYER
  5
6B
330
2
100
AcDbSymbolTableRecord
100
AcDbLayerTableRecord
  2
剖面线层
 70
     0
 62
     2
  6
Continuous
370
    25
390
F
  0
LAYER
  5
6C
330
2
100
AcDbSymbolTableRecord
100
AcDbLayerTableRecord
  2
文字层
 70
     0
 62
     3
  6
Continuous
370
    25
390
F
  0
LAYER
  5
6D
330
2
100
AcDbSymbolTableRecord
100
AcDbLayerTableRecord
  2
标注层
 70
     0
 62
     4
  6
Continuous
370
    25
390
F
  0
LAYER
  5
6E
330
2
100
AcDbSymbolTableRecord
100
AcDbLayerTableRecord
  2
符号标注层
 70
     0
 62
    31
  6
Continuous
370
    25
390
F
  0
LAYER
  5
6F
330
2
100
AcDbSymbolTableRecord
100
AcDbLayerTableRecord
  2
双点划线层
 70
     0
 62
     6
  6
PHANTOM
370
    25
390
F
  0
ENDTAB
  0
TABLE
  2
STYLE
  5
3
330
0
100
AcDbSymbolTable
 70
     1
  0
STYLE
  5
11
330
3
100
AcDbSymbolTableRecord
100
AcDbTextStyleTableRecord
  2
Standard
 70
     0
 40
0.0
 41
1.0
 50
0.0
 71
     0
 42
3.5
  3
txt
  4

  0
ENDTAB
  0
TABLE
  2
VIEW
  5
6
330
0
100
AcDbSymbolTable
 70
     0
  0
ENDTAB
  0
TABLE
  2
UCS
  5
7
330
0
100
AcDbSymbolTable
 70
     0
  0
ENDTAB
  0
TABLE
  2
APPID
  5
9
330
0
100
AcDbSymbolTable
 70
     1
  0
APPID
  5
12
330
9
100
AcDbSymbolTableRecord
100
AcDbRegAppTableRecord
  2
ACAD
 70
     0
  0
ENDTAB
  0
TABLE
  2
DIMSTYLE
  5
A
330
0
100
AcDbSymbolTable
 70
     1
100
AcDbDimStyleTable
  0
DIMSTYLE
105
27
330
A
100
AcDbSymbolTableRecord
100
AcDbDimStyleTableRecord
  2
ISO-25
 70
     0
 41
2.5
 42
0.625
 43
3.75
 44
1.25
 73
     0
 74
     0
 77
     1
 78
     8
140
2.5
141
2.5
143
0.0393700787
147
0.625
171
     3
172
     1
178
     0
271
     2
272
     2
274
     3
278
    44
283
     0
284
     8
340
11
  0
ENDTAB
  0
TABLE
  2
BLOCK_RECORD
  5
1
330
0
100
AcDbSymbolTable
 70
     1
  0
BLOCK_RECORD
  5
1F
330
1
100
AcDbSymbolTableRecord
100
AcDbBlockTableRecord
  2
*Model_Space
340
22
  0
BLOCK_RECORD
  5
1B
330
1
100
AcDbSymbolTableRecord
100
AcDbBlockTableRecord
  2
*Paper_Space
340
1E
  0
BLOCK_RECORD
  5
23
330
1
100
AcDbSymbolTableRecord
100
AcDbBlockTableRecord
  2
*Paper_Space0
340
26
  0
ENDTAB
  0
ENDSEC
  0
SECTION
  2
BLOCKS
  0
BLOCK
  5
20
330
1F
100
AcDbEntity
  8
0
100
AcDbBlockBegin
  2
*Model_Space
 70
     0
 10
0.0
 20
0.0
 30
0.0
  3
*Model_Space
  1

  0
ENDBLK
  5
21
330
1F
100
AcDbEntity
  8
0
100
AcDbBlockEnd
  0
BLOCK
  5
1C
330
1B
100
AcDbEntity
 67
     1
  8
0
100
AcDbBlockBegin
  2
*Paper_Space
 70
     0
 10
0.0
 20
0.0
 30
0.0
  3
*Paper_Space
  1

  0
ENDBLK
  5
1D
330
1B
100
AcDbEntity
 67
     1
  8
0
100
AcDbBlockEnd
  0
BLOCK
  5
24
330
23
100
AcDbEntity
  8
0
100
AcDbBlockBegin
  2
*Paper_Space0
 70
     0
 10
0.0
 20
0.0
 30
0.0
  3
*Paper_Space0
  1

  0
ENDBLK
  5
25
330
23
100
AcDbEntity
  8
0
100
AcDbBlockEnd
  0
ENDSEC
  0
SECTION
  2
ENTITIES
  0
SPLINE
  5
70
330
1F
100
AcDbEntity
  8
0
  6
Continuous
 62
     7
370
    25
100
AcDbSpline
210
0.0
220
0.0
230
1.0
 70
    24
 71
     3
 72
    18
 73
    14
 74
     0
 42
0.00000001
 43
0.00000001
 40
0.0
 40
0.0
 40
0.0
 40
0.0
 40
0.2500000000000003
 40
0.2500000000000003
 40
0.3750000000000003
 40
0.3750000000000003
 40
0.5000000000000004
 40
0.5000000000000004
 40
0.6250000000000006
 40
0.6250000000000006
 40
0.7500000000000007
 40
0.7500000000000007
 40
1.0
 40
1.0
 40
1.0
 40
1.0
 10
71.23279959347516
 20
26.65611103305385
 30
0.0
 10
71.26821135199124
 20
26.71744599798904
 30
0.0
 10
71.376417922109
 20
26.90486527514576
 30
0.0
 10
71.66740106949183
 20
27.40886287055914
 30
0.0
 10
71.78541847393805
 20
27.61327501123737
 30
0.0
 10
72.06035347293347
 20
28.08947639827638
 30
0.0
 10
72.21725124510778
 20
28.3612313112766
 30
0.0
 10
72.56211155283972
 20
28.95854688578217
 30
0.0
 10
72.75001362132386
 20
29.284002815244
 30
0.0
 10
73.14554625946852
 20
29.96908544056232
 30
0.0
 10
73.35309812432119
 20
30.32857581569282
 30
0.0
 10
73.9863744208329
 20
31.42544253648015
 30
0.0
 10
74.42120321266529
 20
32.17858809652763
 30
0.0
 10
74.8275075754036
 20
32.88232789612729
 30
0.0
  0
SPLINE
  5
71
330
1F
100
AcDbEntity
  8
0
  6
Continuous
 62
     7
370
    25
100
AcDbSpline
210
0.0
220
0.0
230
1.0
 70
    24
 71
     3
 72
    18
 73
    14
 74
     0
 42
0.00000001
 43
0.00000001
 40
0.0
 40
0.0
 40
0.0
 40
0.0
 40
0.2500000000000007
 40
0.2500000000000007
 40
0.3750000000000003
 40
0.3750000000000003
 40
0.4999999999999999
 40
0.4999999999999999
 40
0.6249999999999994
 40
0.6249999999999994
 40
0.749999999999999
 40
0.749999999999999
 40
1.0
 40
1.0
 40
1.0
 40
1.0
 10
60.90316309400557
 20
57.0
 30
0.0
 10
60.09055436852895
 20
57.0
 30
0.0
 10
59.22089678486418
 20
57.0
 30
0.0
 10
57.95434419184077
 20
56.99999999999999
 30
0.0
 10
57.53924046213539
 20
56.99999999999999
 30
0.0
 10
56.74817518584607
 20
56.99999999999999
 30
0.0
 10
56.37237104887778
 20
56.99999999999999
 30
0.0
 10
55.68265043341388
 20
56.99999999999999
 30
0.0
 10
55.36885488906532
 20
56.99999999999999
 30
0.0
 10
54.81898489107443
 20
56.99999999999999
 30
0.0
 10
54.58295008218201
 20
56.99999999999999
 30
0.0
 10
54.00098378741633
 20
56.99999999999999
 30
0.0
 10
53.78457064718081
 20
56.99999999999999
 30
0.0
 10
53.71374713014868
 20
56.99999999999999
 30
0.0
  0
SPLINE
  5
72
330
1F
100
AcDbEntity
  8
0
  6
Continuous
 62
     7
370
    25
100
AcDbSpline
210
0.0
220
0.0
230
1.0
 70
    24
 71
     3
 72
    18
 73
    14
 74
     0
 42
0.00000001
 43
0.00000001
 40
0.0
 40
0.0
 40
0.0
 40
0.0
 40
0.2499999999999988
 40
0.2499999999999988
 40
0.3749999999999988
 40
0.3749999999999988
 40
0.4999999999999989
 40
0.4999999999999989
 40
0.6249999999999989
 40
0.6249999999999989
 40
0.749999999999999
 40
0.749999999999999
 40
1.0
 40
1.0
 40
1.0
 40
1.0
 10
114.5066073816836
 20
26.65611103305385
 30
0.0
 10
114.4711956231676
 20
26.71744599798904
 30
0.0
 10
114.3629890530498
 20
26.90486527514576
 30
0.0
 10
114.072005905667
 20
27.40886287055915
 30
0.0
 10
113.9539885012207
 20
27.61327501123739
 30
0.0
 10
113.6790535022253
 20
28.08947639827638
 30
0.0
 10
113.522155730051
 20
28.36123131127662
 30
0.0
 10
113.1772954223191
 20
28.95854688578218
 30
0.0
 10
112.989393353835
 20
29.28400281524402
 30
0.0
 10
112.5938607156903
 20
29.96908544056234
 30
0.0
 10
112.3863088508376
 20
30.32857581569284
 30
0.0
 10
111.7530325543259
 20
31.42544253648016
 30
0.0
 10
111.3182037624935
 20
32.17858809652764
 30
0.0
 10
110.9118993997552
 20
32.88232789612729
 30
0.0
  0
SPLINE
  5
73
330
1F
100
AcDbEntity
  8
0
  6
Continuous
 62
     7
370
    25
100
AcDbSpline
210
0.0
220
0.0
230
1.0
 70
    24
 71
     3
 72
    18
 73
    14
 74
     0
 42
0.00000001
 43
0.00000001
 40
0.0
 40
0.0
 40
0.0
 40
0.0
 40
0.2500000000000001
 40
0.2500000000000001
 40
0.3749999999999998
 40
0.3749999999999998
 40
0.4999999999999994
 40
0.4999999999999994
 40
0.624999999999999
 40
0.624999999999999
 40
0.7499999999999987
 40
0.7499999999999987
 40
1.0
 40
1.0
 40
1.0
 40
1.0
 10
74.82750757540357
 20
81.11767210387272
 30
0.0
 10
74.42120321266526
 20
81.82141190347238
 30
0.0
 10
73.98637442083289
 20
82.57455746351985
 30
0.0
 10
73.35309812432118
 20
83.67142418430717
 30
0.0
 10
73.1455462594685
 20
84.0309145594377
 30
0.0
 10
72.75001362132383
 20
84.715997184756
 30
0.0
 10
72.5621115528397
 20
85.04145311421783
 30
0.0
 10
72.21725124510775
 20
85.63876868872339
 30
0.0
 10
72.06035347293346
 20
85.91052360172363
 30
0.0
 10
71.78541847393802
 20
86.38672498876261
 30
0.0
 10
71.66740106949182
 20
86.59113712944085
 30
0.0
 10
71.37641792210897
 20
87.09513472485426
 30
0.0
 10
71.26821135199123
 20
87.28255400201095
 30
0.0
 10
71.23279959347516
 20
87.34388896694615
 30
0.0
  0
LINE
  5
74
330
1F
100
AcDbEntity
  8
0
  6
Continuous
 62
     7
370
    25
100
AcDbLine
 10
120.5494181324
 20
37.075
 30
0.0
 11
114.5065549307
 21
26.6084539115
 31
0.0
  0
SPLINE
  5
75
330
1F
100
AcDbEntity
  8
0
  6
Continuous
 62
     7
370
    25
100
AcDbSpline
210
0.0
220
0.0
230
1.0
 70
     8
 71
     3
 72
     8
 73
     4
 74
     0
 42
0.00000001
 43
0.00000001
 40
0.0
 40
0.0
 40
0.0
 40
0.0
 40
1.0
 40
1.0
 40
1.0
 40
1.0
 10
114.5065549307284
 20
26.60845391148141
 30
0.0
 10
114.5157352857151
 20
26.62435475274972
 30
0.0
 10
114.5157528026479
 20
26.64027069928708
 30
0.0
 10
114.5066073816836
 20
26.65611103305385
 30
0.0
  0
SPLINE
  5
76
330
1F
100
AcDbEntity
  8
0
  6
Continuous
 62
     7
370
    25
100
AcDbSpline
210
0.0
220
0.0
230
1.0
 70
    24
 71
     3
 72
    22
 73
    18
 74
     0
 42
0.00000001
 43
0.00000001
 40
0.0
 40
0.0
 40
0.0
 40
0.0
 40
0.125
 40
0.125
 40
0.25
 40
0.25
 40
0.375
 40
0.375
 40
0.5
 40
0.5
 40
0.625
 40
0.625
 40
0.75
 40
0.75
 40
0.875
 40
0.875
 40
1.0
 40
1.0
 40
1.0
 40
1.0
 10
113.33253976755
 20
37.07500000000001
 30
0.0
 10
113.7577984034498
 20
37.075
 30
0.0
 10
114.1989602085509
 20
37.07500000000001
 30
0.0
 10
115.092529758867
 20
37.07500000000002
 30
0.0
 10
115.5448466542068
 20
37.075
 30
0.0
 10
116.4332223722137
 20
37.075
 30
0.0
 10
116.8691011264072
 20
37.075
 30
0.0
 10
117.6942708691953
 20
37.07500000000001
 30
0.0
 10
118.0833476093363
 20
37.075
 30
0.0
 10
118.7879391873603
 20
37.075
 30
0.0
 10
119.103295404428
 20
37.075
 30
0.0
 10
119.6427737234868
 20
37.075
 30
0.0
 10
119.8668589186092
 20
37.075
 30
0.0
 10
120.2185587641847
 20
37.075
 30
0.0
 10
120.3462563965369
 20
37.075
 30
0.0
 10
120.5116136173359
 20
37.075
 30
0.0
 10
120.5494181324203
 20
37.075
 30
0.0
 10
120.5494181324203
 20
37.07500000000001
 30
0.0
  0
SPLINE
  5
77
330
1F
100
AcDbEntity
  8
0
  6
Continuous
 62
     7
370
    25
100
AcDbSpline
210
0.0
220
0.0
230
1.0
 70
    24
 71
     3
 72
    18
 73
    14
 74
     0
 42
0.00000001
 43
0.00000001
 40
0.0
 40
0.0
 40
0.0
 40
0.0
 40
0.2500000000000007
 40
0.2500000000000007
 40
0.3750000000000003
 40
0.3750000000000003
 40
0.5
 40
0.5
 40
0.6249999999999997
 40
0.6249999999999997
 40
0.7499999999999993
 40
0.7499999999999993
 40
1.0
 40
1.0
 40
1.0
 40
1.0
 10
110.9118993997552
 20
81.11767210387272
 30
0.0
 10
111.3182037624935
 20
81.82141190347237
 30
0.0
 10
111.7530325543259
 20
82.57455746351985
 30
0.0
 10
112.3863088508376
 20
83.67142418430717
 30
0.0
 10
112.5938607156903
 20
84.03091455943769
 30
0.0
 10
112.9893933538349
 20
84.715997184756
 30
0.0
 10
113.1772954223191
 20
85.04145311421783
 30
0.0
 10
113.522155730051
 20
85.63876868872339
 30
0.0
 10
113.6790535022253
 20
85.91052360172363
 30
0.0
 10
113.9539885012207
 20
86.38672498876262
 30
0.0
 10
114.0720059056669
 20
86.59113712944087
 30
0.0
 10
114.3629890530498
 20
87.09513472485426
 30
0.0
 10
114.4711956231675
 20
87.28255400201095
 30
0.0
 10
114.5066073816836
 20
87.34388896694615
 30
0.0
  0
SPLINE
  5
78
330
1F
100
AcDbEntity
  8
0
  6
Continuous
 62
     7
370
    25
100
AcDbSpline
210
0.0
220
0.0
230
1.0
 70
    24
 71
     3
 72
    22
 73
    18
 74
     0
 42
0.00000001
 43
0.00000001
 40
0.0
 40
0.0
 40
0.0
 40
0.0
 40
0.125
 40
0.125
 40
0.25
 40
0.25
 40
0.375
 40
0.375
 40
0.5
 40
0.5
 40
0.625
 40
0.625
 40
0.75
 40
0.75
 40
0.875
 40
0.875
 40
1.0
 40
1.0
 40
1.0
 40
1.0
 10
120.5494181324202
 20
76.925
 30
0.0
 10
120.5494181324202
 20
76.925
 30
0.0
 10
120.5116136173358
 20
76.925
 30
0.0
 10
120.3462563965369
 20
76.925
 30
0.0
 10
120.2185587641847
 20
76.92500000000001
 30
0.0
 10
119.8668589186092
 20
76.92500000000001
 30
0.0
 10
119.6427737234868
 20
76.925
 30
0.0
 10
119.103295404428
 20
76.92500000000001
 30
0.0
 10
118.7879391873603
 20
76.925
 30
0.0
 10
118.0833476093362
 20
76.92500000000001
 30
0.0
 10
117.6942708691953
 20
76.925
 30
0.0
 10
116.8691011264072
 20
76.92500000000001
 30
0.0
 10
116.4332223722137
 20
76.925
 30
0.0
 10
115.5448466542068
 20
76.925
 30
0.0
 10
115.092529758867
 20
76.925
 30
0.0
 10
114.1989602085509
 20
76.925
 30
0.0
 10
113.7577984034498
 20
76.925
 30
0.0
 10
113.3325397675499
 20
76.925
 30
0.0
  0
SPLINE
  5
79
330
1F
100
AcDbEntity
  8
0
  6
Continuous
 62
     7
370
    25
100
AcDbSpline
210
0.0
220
0.0
230
1.0
 70
     8
 71
     3
 72
     8
 73
     4
 74
     0
 42
0.00000001
 43
0.00000001
 40
0.0
 40
0.0
 40
0.0
 40
0.0
 40
1.0
 40
1.0
 40
1.0
 40
1.0
 10
114.5066073816836
 20
87.34388896694615
 30
0.0
 10
114.5157528026479
 20
87.35972930071293
 30
0.0
 10
114.515735285715
 20
87.37564524725029
 30
0.0
 10
114.5065549307284
 20
87.3915460885186
 30
0.0
  0
LINE
  5
7A
330
1F
100
AcDbEntity
  8
0
  6
Continuous
 62
     7
370
    25
100
AcDbLine
 10
114.5065549307
 20
87.3915460885
 30
0.0
 11
120.5494181324
 21
76.925
 31
0.0
  0
ARC
  5
7B
330
1F
100
AcDbEntity
  8
0
  6
Continuous
 62
     7
370
    25
100
AcDbCircle
 10
88.7518520568
 20
57.0
 30
0.0
 40
19.925
100
AcDbArc
 50
90.0
 51
270.0
  0
LINE
  5
7C
330
1F
100
AcDbEntity
  8
0
  6
Continuous
 62
     7
370
    25
100
AcDbLine
 10
113.3325397675
 20
76.925
 30
0.0
 11
88.7518520568
 21
76.925
 31
0.0
  0
LINE
  5
7D
330
1F
100
AcDbEntity
  8
0
  6
Continuous
 62
     7
370
    25
100
AcDbLine
 10
88.7518520568
 20
37.075
 30
0.0
 11
113.3325397675
 21
37.075
 31
0.0
  0
LINE
  5
7E
330
1F
100
AcDbEntity
  8
0
  6
Continuous
 62
     7
370
    25
100
AcDbLine
 10
114.5065549307
 20
26.6084539115
 30
0.0
 11
110.4024871514
 21
19.5
 31
0.0
  0
LINE
  5
7F
330
1F
100
AcDbEntity
  8
0
  6
Continuous
 62
     7
370
    25
100
AcDbLine
 10
110.4024871514
 20
19.5
 30
0.0
 11
67.1012169622
 21
19.5
 31
0.0
  0
LINE
  5
80
330
1F
100
AcDbEntity
  8
0
  6
Continuous
 62
     7
370
    25
100
AcDbLine
 10
71.2327995935
 20
26.6561110331
 30
0.0
 11
67.1012169622
 21
19.5
 31
0.0
  0
LWPOLYLINE
  5
81
330
1F
100
AcDbEntity
  8
0
  6
Continuous
 62
     7
370
    25
100
AcDbPolyline
 90
       34
 70
   128
 43
0.0
 10
88.7518520568
 20
21.420787027
 10
89.4000375687
 20
21.415392591
 10
90.0247959674
 20
21.3994042519
 10
90.6035468566
 20
21.37339987
 10
91.1153726711
 20
21.3383193115
 10
91.5417746926
 20
21.295430479
 10
91.8673416409
 20
21.2462834868
 10
92.0803066783
 20
21.1926546351
 10
92.1729726935
 20
21.1364822105
 10
92.1419904952
 20
21.0797964307
 10
91.9884798609
 20
21.0246460674
 10
91.7179890648
 20
20.9730243986
 10
91.340294349
 20
20.9267971658
 10
90.8690465846
 20
20.8876351416
 10
90.3212778937
 20
20.8569537436
 10
89.716786064
 20
20.8358618775
 10
89.0774190051
 20
20.8251218584
 10
88.4262851085
 20
20.8251218584
 10
87.7869180496
 20
20.8358618775
 10
87.1824262199
 20
20.8569537436
 10
86.634657529
 20
20.8876351416
 10
86.1634097646
 20
20.9267971658
 10
85.7857150488
 20
20.9730243986
 10
85.5152242527
 20
21.0246460674
 10
85.3617136184
 20
21.0797964307
 10
85.3307314201
 20
21.1364822105
 10
85.4233974353
 20
21.1926546351
 10
85.6363624727
 20
21.2462834868
 10
85.961929421
 20
21.295430479
 10
86.3883314425
 20
21.3383193115
 10
86.900157257
 20
21.37339987
 10
87.4789081462
 20
21.3994042519
 10
88.1036665449
 20
21.415392591
 10
88.7518520568
 20
21.420787027
  0
LINE
  5
82
330
1F
100
AcDbEntity
  8
0
  6
Continuous
 62
     7
370
    25
100
AcDbLine
 10
67.1012169622
 20
19.5
 30
0.0
 11
45.4505818676
 21
57.0
 31
0.0
  0
LINE
  5
83
330
1F
100
AcDbEntity
  8
0
  6
Continuous
 62
     7
370
    25
100
AcDbLine
 10
53.7137471301
 20
57.0
 30
0.0
 11
45.4505818676
 21
57.0
 31
0.0
  0
LINE
  5
84
330
1F
100
AcDbEntity
  8
0
  6
Continuous
 62
     7
370
    25
100
AcDbLine
 10
45.4505818676
 20
57.0
 30
0.0
 11
67.1012169622
 21
94.5
 31
0.0
  0
LINE
  5
85
330
1F
100
AcDbEntity
  8
0
  6
Continuous
 62
     7
370
    25
100
AcDbLine
 10
71.2327995935
 20
87.3438889669
 30
0.0
 11
67.1012169622
 21
94.5
 31
0.0
  0
LINE
  5
86
330
1F
100
AcDbEntity
  8
0
  6
Continuous
 62
     7
370
    25
100
AcDbLine
 10
67.1012169622
 20
94.5
 30
0.0
 11
110.4024871514
 21
94.5
 31
0.0
  0
LINE
  5
87
330
1F
100
AcDbEntity
  8
0
  6
Continuous
 62
     7
370
    25
100
AcDbLine
 10
110.4024871514
 20
94.5
 30
0.0
 11
114.5065549307
 21
87.3915460885
 31
0.0
  0
LWPOLYLINE
  5
88
330
1F
100
AcDbEntity
  8
0
  6
Continuous
 62
     7
370
    25
100
AcDbPolyline
 90
       34
 70
   128
 43
0.0
 10
88.7518520568
 20
92.579212973
 10
89.4000375687
 20
92.584607409
 10
90.0247959674
 20
92.6005957481
 10
90.6035468566
 20
92.62660013
 10
91.1153726711
 20
92.6616806885
 10
91.5417746926
 20
92.704569521
 10
91.8673416409
 20
92.7537165132
 10
92.0803066783
 20
92.8073453649
 10
92.1729726935
 20
92.8635177895
 10
92.1419904952
 20
92.9202035693
 10
91.9884798609
 20
92.9753539326
 10
91.7179890648
 20
93.0269756014
 10
91.340294349
 20
93.0732028342
 10
90.8690465846
 20
93.1123648584
 10
90.3212778937
 20
93.1430462564
 10
89.716786064
 20
93.1641381225
 10
89.0774190051
 20
93.1748781416
 10
88.4262851085
 20
93.1748781416
 10
87.7869180496
 20
93.1641381225
 10
87.1824262199
 20
93.1430462564
 10
86.634657529
 20
93.1123648584
 10
86.1634097646
 20
93.0732028342
 10
85.7857150488
 20
93.0269756014
 10
85.5152242527
 20
92.9753539326
 10
85.3617136184
 20
92.9202035693
 10
85.3307314201
 20
92.8635177895
 10
85.4233974353
 20
92.8073453649
 10
85.6363624727
 20
92.7537165132
 10
85.961929421
 20
92.704569521
 10
86.3883314425
 20
92.6616806885
 10
86.900157257
 20
92.62660013
 10
87.4789081462
 20
92.6005957481
 10
88.1036665449
 20
92.584607409
 10
88.7518520568
 20
92.579212973
  0
LINE
  5
89
330
1F
100
AcDbEntity
  8
0
  6
HIDDEN
 62
     7
370
    18
100
AcDbLine
 10
92.1768520568
 20
21.1222786081
 30
0.0
 11
92.1768520568
 21
37.075
 31
0.0
  0
LINE
  5
8A
330
1F
100
AcDbEntity
  8
0
  6
HIDDEN
 62
     7
370
    18
100
AcDbLine
 10
85.3268520568
 20
37.3641744897
 30
0.0
 11
85.3268520568
 21
21.1222786081
 31
0.0
  0
LINE
  5
8B
330
1F
100
AcDbEntity
  8
0
  6
HIDDEN
 62
     7
370
    18
100
AcDbLine
 10
85.3268520568
 20
92.8777213919
 30
0.0
 11
85.3268520568
 21
76.6358255103
 31
0.0
  0
LINE
  5
8C
330
1F
100
AcDbEntity
  8
0
  6
HIDDEN
 62
     7
370
    18
100
AcDbLine
 10
92.1768520568
 20
76.925
 30
0.0
 11
92.1768520568
 21
92.8777213919
 31
0.0
  0
LINE
  5
8D
330
1F
100
AcDbEntity
  8
0
  6
Continuous
 62
     7
370
    25
100
AcDbLine
 10
67.1012169622
 20
208.0
 30
0.0
 11
45.4505818676
 21
208.0
 31
0.0
  0
LINE
  5
8E
330
1F
100
AcDbEntity
  8
0
  6
Continuous
 62
     7
370
    25
100
AcDbLine
 10
67.1012169622
 20
195.5
 30
0.0
 11
67.1012169622
 21
208.0
 31
0.0
  0
LINE
  5
8F
330
1F
100
AcDbEntity
  8
0
  6
Continuous
 62
     7
370
    25
100
AcDbLine
 10
45.4505818676
 20
195.5
 30
0.0
 11
67.1012169622
 21
195.5
 31
0.0
  0
LINE
  5
90
330
1F
100
AcDbEntity
  8
0
  6
Continuous
 62
     7
370
    25
100
AcDbLine
 10
45.4505818676
 20
195.5
 30
0.0
 11
45.4505818676
 21
208.0
 31
0.0
  0
LINE
  5
91
330
1F
100
AcDbEntity
  8
0
  6
Continuous
 62
     7
370
    25
100
AcDbLine
 10
110.4024871514
 20
195.5
 30
0.0
 11
110.4024871514
 21
208.0
 31
0.0
  0
LINE
  5
92
330
1F
100
AcDbEntity
  8
0
  6
Continuous
 62
     7
370
    25
100
AcDbLine
 10
120.5494181324
 20
114.25
 30
0.0
 11
120.5494181324
 21
208.0
 31
0.0
  0
LINE
  5
93
330
1F
100
AcDbEntity
  8
0
  6
Continuous
 62
     7
370
    25
100
AcDbLine
 10
110.4024871514
 20
195.5
 30
0.0
 11
114.5065549307
 21
114.25
 31
0.0
  0
LINE
  5
94
330
1F
100
AcDbEntity
  8
0
  6
Continuous
 62
     7
370
    25
100
AcDbLine
 10
120.5494181324
 20
208.0
 30
0.0
 11
110.4024871514
 21
208.0
 31
0.0
  0
LINE
  5
95
330
1F
100
AcDbEntity
  8
0
  6
Continuous
 62
     7
370
    25
100
AcDbLine
 10
67.1012169622
 20
195.5
 30
0.0
 11
110.4024871514
 21
195.5
 31
0.0
  0
LINE
  5
96
330
1F
100
AcDbEntity
  8
0
  6
Continuous
 62
     7
370
    25
100
AcDbLine
 10
110.4024871514
 20
208.0
 30
0.0
 11
67.1012169622
 21
208.0
 31
0.0
  0
LINE
  5
97
330
1F
100
AcDbEntity
  8
0
  6
Continuous
 62
     7
370
    25
100
AcDbLine
 10
71.2327995935
 20
113.7052766078
 30
0.0
 11
67.1012169622
 21
195.5
 31
0.0
  0
LINE
  5
98
330
1F
100
AcDbEntity
  8
0
  6
Continuous
 62
     7
370
    25
100
AcDbLine
 10
53.7137471301
 20
113.7052766078
 30
0.0
 11
45.4505818676
 21
195.5
 31
0.0
  0
SPLINE
  5
99
330
1F
100
AcDbEntity
  8
0
  6
Continuous
 62
     7
370
    25
100
AcDbSpline
210
0.0
220
0.0
230
1.0
 70
     8
 71
     3
 72
     8
 73
     4
 74
     0
 42
0.00000001
 43
0.00000001
 40
0.0
 40
0.0
 40
0.0
 40
0.0
 40
1.0
 40
1.0
 40
1.0
 40
1.0
 10
114.5066073816836
 20
113.7052766078272
 30
0.0
 10
114.5157528026479
 20
113.8863324512745
 30
0.0
 10
114.515735285715
 20
114.0682525526445
 30
0.0
 10
114.5065549307284
 20
114.25
 30
0.0
  0
CIRCLE
  5
9A
330
1F
100
AcDbEntity
  8
0
  6
Continuous
 62
     7
370
    25
100
AcDbCircle
 10
88.7502480045
 20
176.9662882244
 30
0.0
 40
3.420984781189208
  0
SPLINE
  5
9B
330
1F
100
AcDbEntity
  8
0
  6
Continuous
 62
     7
370
    25
100
AcDbSpline
210
0.0
220
0.0
230
1.0
 70
     8
 71
     3
 72
    13
 73
     9
 74
     0
 42
0.00000001
 43
0.00000001
 40
0.0
 40
0.0
 40
0.0
 40
0.0
 40
0.0925226955559088
 40
0.3217129763441705
 40
0.5293122813995773
 40
0.711212617739917
 40
0.8673475912727605
 40
1.0
 40
1.0
 40
1.0
 40
1.0
 10
92.0625678206599
 20
177.664628234318
 30
0.0
 10
92.04463112017646
 20
177.5208716452043
 30
0.0
 10
91.9822629707873
 20
177.0210120175206
 30
0.0
 10
91.54066918493444
 20
176.2889177732813
 30
0.0
 10
90.86603357427114
 20
175.5929347858626
 30
0.0
 10
90.11740801371734
 20
175.1687964765837
 30
0.0
 10
89.40959146736469
 20
174.9499169214384
 30
0.0
 10
88.95888214506552
 20
174.9259013644136
 30
0.0
 10
88.75185205680161
 20
174.9148699908773
 30
0.0
  0
SPLINE
  5
9C
330
1F
100
AcDbEntity
  8
0
  6
Continuous
 62
     7
370
    25
100
AcDbSpline
210
0.0
220
0.0
230
1.0
 70
     8
 71
     3
 72
    12
 73
     8
 74
     0
 42
0.00000001
 43
0.00000001
 40
0.0
 40
0.0
 40
0.0
 40
0.0
 40
0.177948691186723
 40
0.4237061323714273
 40
0.6729099404083052
 40
0.919010894689628
 40
1.0
 40
1.0
 40
1.0
 40
1.0
 10
85.42798338335137
 20
177.7152322789987
 30
0.0
 10
85.48795357070377
 20
177.4398740967986
 30
0.0
 10
85.63074605752243
 20
176.7842303288181
 30
0.0
 10
86.27452554211035
 20
175.9065555625941
 30
0.0
 10
87.21940700897692
 20
175.2080093125448
 30
0.0
 10
88.11003206204532
 20
174.9374014741436
 30
0.0
 10
88.62447376450852
 20
174.9193416836957
 30
0.0
 10
88.75185205680161
 20
174.9148699908773
 30
0.0
  0
SPLINE
  5
9D
330
1F
100
AcDbEntity
  8
0
  6
Continuous
 62
     7
370
    25
100
AcDbSpline
210
0.0
220
0.0
230
1.0
 70
     8
 71
     3
 72
    22
 73
    18
 74
     0
 42
0.00000001
 43
0.00000001
 40
0.0
 40
0.0
 40
0.0
 40
0.0
 40
0.125
 40
0.125
 40
0.25
 40
0.25
 40
0.375
 40
0.375
 40
0.5
 40
0.5
 40
0.625
 40
0.625
 40
0.75
 40
0.75
 40
0.875
 40
0.875
 40
1.0
 40
1.0
 40
1.0
 40
1.0
 10
120.5494181324202
 20
114.25
 30
0.0
 10
120.5494181324202
 20
113.881715218132
 30
0.0
 10
120.5116136173358
 20
113.4996578877351
 30
0.0
 10
120.3462563965369
 20
112.7258039571132
 30
0.0
 10
120.2185587641847
 20
112.3340860351879
 30
0.0
 10
119.8668589186092
 20
111.5647300952887
 30
0.0
 10
119.6427737234868
 20
111.1872480211873
 30
0.0
 10
119.103295404428
 20
110.4726300614985
 30
0.0
 10
118.7879391873603
 20
110.1356797205148
 30
0.0
 10
118.0833476093362
 20
109.5254855146534
 30
0.0
 10
117.6942708691953
 20
109.2523790194314
 30
0.0
 10
116.8691011264072
 20
108.7851770903356
 30
0.0
 10
116.4332223722137
 20
108.5911136187476
 30
0.0
 10
115.5448466542068
 20
108.2865326179721
 30
0.0
 10
115.092529758867
 20
108.175943224352
 30
0.0
 10
114.1989602085509
 20
108.0327396704409
 30
0.0
 10
113.7577984034498
 20
108.0
 30
0.0
 10
113.3325397675499
 20
108.0
 30
0.0
  0
LINE
  5
9E
330
1F
100
AcDbEntity
  8
0
  6
Continuous
 62
     7
370
    25
100
AcDbLine
 10
113.3325397675
 20
108.0
 30
0.0
 11
110.9118993998
 21
108.0
 31
0.0
  0
SPLINE
  5
9F
330
1F
100
AcDbEntity
  8
0
  6
Continuous
 62
     7
370
    25
100
AcDbSpline
210
0.0
220
0.0
230
1.0
 70
     8
 71
     3
 72
    18
 73
    14
 74
     0
 42
0.00000001
 43
0.00000001
 40
0.0
 40
0.0
 40
0.0
 40
0.0
 40
0.2500000000000007
 40
0.2500000000000007
 40
0.3750000000000003
 40
0.3750000000000003
 40
0.5
 40
0.5
 40
0.6249999999999997
 40
0.6249999999999997
 40
0.7499999999999993
 40
0.7499999999999993
 40
1.0
 40
1.0
 40
1.0
 40
1.0
 10
110.9118993997552
 20
108.0
 30
0.0
 10
111.3182037624935
 20
108.0
 30
0.0
 10
111.7530325543259
 20
108.1222434898589
 30
0.0
 10
112.3863088508376
 20
108.5322028707412
 30
0.0
 10
112.5938607156903
 20
108.7059445001182
 30
0.0
 10
112.9893933538349
 20
109.1240279357996
 30
0.0
 10
113.1772954223191
 20
109.3683472041139
 30
0.0
 10
113.522155730051
 20
109.9156860857595
 30
0.0
 10
113.6790535022253
 20
110.2186097298544
 30
0.0
 10
113.9539885012207
 20
110.864647036584
 30
0.0
 10
114.0720059056669
 20
111.2076268615494
 30
0.0
 10
114.3629890530498
 20
112.2645893589739
 30
0.0
 10
114.4711956231675
 20
113.0042147506298
 30
0.0
 10
114.5066073816836
 20
113.7052766078272
 30
0.0
  0
LINE
  5
A0
330
1F
100
AcDbEntity
  8
0
  6
Continuous
 62
     7
370
    25
100
AcDbLine
 10
110.9118993998
 20
108.0
 30
0.0
 11
74.8275075754
 21
108.0
 31
0.0
  0
SPLINE
  5
A1
330
1F
100
AcDbEntity
  8
0
  6
Continuous
 62
     7
370
    25
100
AcDbSpline
210
0.0
220
0.0
230
1.0
 70
     8
 71
     3
 72
    18
 73
    14
 74
     0
 42
0.00000001
 43
0.00000001
 40
0.0
 40
0.0
 40
0.0
 40
0.0
 40
0.2500000000000001
 40
0.2500000000000001
 40
0.3749999999999998
 40
0.3749999999999998
 40
0.4999999999999994
 40
0.4999999999999994
 40
0.624999999999999
 40
0.624999999999999
 40
0.7499999999999987
 40
0.7499999999999987
 40
1.0
 40
1.0
 40
1.0
 40
1.0
 10
74.82750757540357
 20
108.0
 30
0.0
 10
74.42120321266526
 20
108.0
 30
0.0
 10
73.98637442083289
 20
108.1222434898589
 30
0.0
 10
73.35309812432118
 20
108.5322028707412
 30
0.0
 10
73.1455462594685
 20
108.7059445001182
 30
0.0
 10
72.75001362132383
 20
109.1240279357996
 30
0.0
 10
72.5621115528397
 20
109.3683472041139
 30
0.0
 10
72.21725124510775
 20
109.9156860857595
 30
0.0
 10
72.06035347293346
 20
110.2186097298544
 30
0.0
 10
71.78541847393802
 20
110.864647036584
 30
0.0
 10
71.66740106949182
 20
111.2076268615495
 30
0.0
 10
71.37641792210897
 20
112.2645893589739
 30
0.0
 10
71.26821135199123
 20
113.0042147506298
 30
0.0
 10
71.23279959347516
 20
113.7052766078272
 30
0.0
  0
LINE
  5
A2
330
1F
100
AcDbEntity
  8
0
  6
Continuous
 62
     7
370
    25
100
AcDbLine
 10
74.8275075754
 20
108.0
 30
0.0
 11
60.903163094
 21
108.0
 31
0.0
  0
SPLINE
  5
A3
330
1F
100
AcDbEntity
  8
0
  6
Continuous
 62
     7
370
    25
100
AcDbSpline
210
0.0
220
0.0
230
1.0
 70
     8
 71
     3
 72
    18
 73
    14
 74
     0
 42
0.00000001
 43
0.00000001
 40
0.0
 40
0.0
 40
0.0
 40
0.0
 40
0.2500000000000007
 40
0.2500000000000007
 40
0.3750000000000003
 40
0.3750000000000003
 40
0.4999999999999999
 40
0.4999999999999999
 40
0.6249999999999994
 40
0.6249999999999994
 40
0.749999999999999
 40
0.749999999999999
 40
1.0
 40
1.0
 40
1.0
 40
1.0
 10
60.90316309400557
 20
108.0
 30
0.0
 10
60.09055436852895
 20
108.0
 30
0.0
 10
59.22089678486418
 20
108.1222434898589
 30
0.0
 10
57.95434419184077
 20
108.5322028707412
 30
0.0
 10
57.53924046213539
 20
108.7059445001182
 30
0.0
 10
56.74817518584607
 20
109.1240279357996
 30
0.0
 10
56.37237104887778
 20
109.3683472041139
 30
0.0
 10
55.68265043341388
 20
109.9156860857595
 30
0.0
 10
55.36885488906532
 20
110.2186097298544
 30
0.0
 10
54.81898489107443
 20
110.864647036584
 30
0.0
 10
54.58295008218201
 20
111.2076268615494
 30
0.0
 10
54.00098378741633
 20
112.2645893589739
 30
0.0
 10
53.78457064718081
 20
113.0042147506298
 30
0.0
 10
53.71374713014868
 20
113.7052766078272
 30
0.0
  0
SPLINE
  5
A4
330
1F
100
AcDbEntity
  8
0
  6
HIDDEN
 62
     7
370
    18
100
AcDbSpline
210
0.0
220
0.0
230
1.0
 70
     8
 71
     3
 72
    14
 73
    10
 74
     0
 42
0.00000001
 43
0.00000001
 40
0.0
 40
0.0
 40
0.0
 40
0.0
 40
0.1021595463802531
 40
0.2224037109849525
 40
0.3624905441245942
 40
0.5223689137433822
 40
0.6988751328519667
 40
0.8850647996536337
 40
1.0
 40
1.0
 40
1.0
 40
1.0
 10
88.75185205680161
 20
181.7910358780492
 30
0.0
 10
88.95884026602971
 20
181.7799990957705
 30
0.0
 10
89.4094584166929
 20
181.7559717637874
 30
0.0
 10
90.11809687168066
 20
181.5371983594171
 30
0.0
 10
90.86280374648528
 20
181.1125539457962
 30
0.0
 10
91.55517477275639
 20
180.418861514809
 30
0.0
 10
92.04522908500499
 20
179.4705290812163
 30
0.0
 10
92.24607593795767
 20
178.4920174048239
 30
0.0
 10
92.11326132353274
 20
177.8931917219153
 30
0.0
 10
92.0625678206599
 20
177.664628234318
 30
0.0
  0
SPLINE
  5
A5
330
1F
100
AcDbEntity
  8
0
  6
HIDDEN
 62
     7
370
    18
100
AcDbSpline
210
0.0
220
0.0
230
1.0
 70
     8
 71
     3
 72
    13
 73
     9
 74
     0
 42
0.00000001
 43
0.00000001
 40
0.0
 40
0.0
 40
0.0
 40
0.0
 40
0.1903890746517559
 40
0.3807586576149173
 40
0.5715602848548457
 40
0.7617860928192972
 40
0.95034995864495
 40
1.0
 40
1.0
 40
1.0
 40
1.0
 10
88.75185205680161
 20
181.7910358780492
 30
0.0
 10
88.36717962192441
 20
181.7536784784585
 30
0.0
 10
87.59787413423707
 20
181.67896750386
 30
0.0
 10
86.57539115270943
 20
181.0966171260342
 30
0.0
 10
85.78985487557397
 20
180.2335268992138
 30
0.0
 10
85.36727281145255
 20
179.1608888168047
 30
0.0
 10
85.25480196202228
 20
178.2688084463186
 30
0.0
 10
85.39811349247184
 20
177.8107116877278
 30
0.0
 10
85.42798338335137
 20
177.7152322789987
 30
0.0
  0
LINE
  5
A6
330
1F
100
AcDbEntity
  8
0
  6
HIDDEN
 62
     7
370
    18
100
AcDbLine
 10
92.1768520568
 20
176.9572706603
 30
0.0
 11
92.1768520568
 21
178.3529529345
 31
0.0
  0
LINE
  5
A7
330
1F
100
AcDbEntity
  8
0
  6
HIDDEN
 62
     7
370
    18
100
AcDbLine
 10
85.3268520568
 20
178.3782524241
 30
0.0
 11
85.3268520568
 21
176.9572706603
 31
0.0
  0
LINE
  5
A8
330
1F
100
AcDbEntity
  8
0
  6
HIDDEN
 62
     7
370
    18
100
AcDbLine
 10
68.8268520568
 20
208.0
 30
0.0
 11
68.8268520568
 21
108.0
 31
0.0
  0
LINE
  5
A9
330
1F
100
AcDbEntity
  8
0
  6
Continuous
 62
     7
370
    25
100
AcDbLine
 10
273.0
 20
19.5
 30
0.0
 11
273.0
 21
37.075
 31
0.0
  0
LINE
  5
AA
330
1F
100
AcDbEntity
  8
0
  6
Continuous
 62
     7
370
    25
100
AcDbLine
 10
260.5
 20
19.5
 30
0.0
 11
273.0
 21
19.5
 31
0.0
  0
LINE
  5
AB
330
1F
100
AcDbEntity
  8
0
  6
Continuous
 62
     7
370
    25
100
AcDbLine
 10
179.25
 20
26.6084539115
 30
0.0
 11
260.5
 21
19.5
 31
0.0
  0
LINE
  5
AC
330
1F
100
AcDbEntity
  8
0
  6
Continuous
 62
     7
370
    25
100
AcDbLine
 10
273.0
 20
37.075
 30
0.0
 11
179.25
 21
37.075
 31
0.0
  0
LINE
  5
AD
330
1F
100
AcDbEntity
  8
0
  6
Continuous
 62
     7
370
    25
100
AcDbLine
 10
260.5
 20
94.5
 30
0.0
 11
273.0
 21
94.5
 31
0.0
  0
LINE
  5
AE
330
1F
100
AcDbEntity
  8
0
  6
Continuous
 62
     7
370
    25
100
AcDbLine
 10
260.5
 20
94.5
 30
0.0
 11
179.25
 21
87.3915460885
 31
0.0
  0
LINE
  5
AF
330
1F
100
AcDbEntity
  8
0
  6
Continuous
 62
     7
370
    25
100
AcDbLine
 10
179.25
 20
76.925
 30
0.0
 11
273.0
 21
76.925
 31
0.0
  0
LINE
  5
B0
330
1F
100
AcDbEntity
  8
0
  6
Continuous
 62
     7
370
    25
100
AcDbLine
 10
273.0
 20
76.925
 30
0.0
 11
273.0
 21
94.5
 31
0.0
  0
SPLINE
  5
B1
330
1F
100
AcDbEntity
  8
0
  6
Continuous
 62
     7
370
    25
100
AcDbSpline
210
0.0
220
0.0
230
1.0
 70
    24
 71
     3
 72
     8
 73
     4
 74
     0
 42
0.00000001
 43
0.00000001
 40
0.0
 40
0.0
 40
0.0
 40
0.0
 40
1.0
 40
1.0
 40
1.0
 40
1.0
 10
179.25
 20
26.60845391148141
 30
0.0
 10
179.0682525526445
 20
26.62435475274972
 30
0.0
 10
178.8863324512745
 20
26.64027069928708
 30
0.0
 10
178.7052766078272
 20
26.65611103305385
 30
0.0
  0
SPLINE
  5
B2
330
1F
100
AcDbEntity
  8
0
  6
Continuous
 62
     7
370
    25
100
AcDbSpline
210
0.0
220
0.0
230
1.0
 70
     8
 71
     3
 72
    18
 73
    14
 74
     0
 42
0.00000001
 43
0.00000001
 40
0.0
 40
0.0
 40
0.0
 40
0.0
 40
0.2499999999999988
 40
0.2499999999999988
 40
0.3749999999999988
 40
0.3749999999999988
 40
0.4999999999999989
 40
0.4999999999999989
 40
0.6249999999999989
 40
0.6249999999999989
 40
0.749999999999999
 40
0.749999999999999
 40
1.0
 40
1.0
 40
1.0
 40
1.0
 10
178.7052766078272
 20
26.65611103305385
 30
0.0
 10
178.0042147506298
 20
26.71744599798904
 30
0.0
 10
177.2645893589739
 20
26.90486527514576
 30
0.0
 10
176.2076268615495
 20
27.40886287055915
 30
0.0
 10
175.864647036584
 20
27.61327501123739
 30
0.0
 10
175.2186097298544
 20
28.08947639827638
 30
0.0
 10
174.9156860857595
 20
28.36123131127662
 30
0.0
 10
174.3683472041139
 20
28.95854688578218
 30
0.0
 10
174.1240279357996
 20
29.28400281524402
 30
0.0
 10
173.7059445001182
 20
29.96908544056234
 30
0.0
 10
173.5322028707413
 20
30.32857581569284
 30
0.0
 10
173.1222434898589
 20
31.42544253648016
 30
0.0
 10
173.0
 20
32.17858809652764
 30
0.0
 10
173.0000000000001
 20
32.88232789612729
 30
0.0
  0
LINE
  5
B3
330
1F
100
AcDbEntity
  8
0
  6
Continuous
 62
     7
370
    25
100
AcDbLine
 10
173.0
 20
32.8823278961
 30
0.0
 11
173.0
 21
37.075
 31
0.0
  0
SPLINE
  5
B4
330
1F
100
AcDbEntity
  8
0
  6
Continuous
 62
     7
370
    25
100
AcDbSpline
210
0.0
220
0.0
230
1.0
 70
    24
 71
     3
 72
    22
 73
    18
 74
     0
 42
0.00000001
 43
0.00000001
 40
0.0
 40
0.0
 40
0.0
 40
0.0
 40
0.125
 40
0.125
 40
0.25
 40
0.25
 40
0.375
 40
0.375
 40
0.5
 40
0.5
 40
0.625
 40
0.625
 40
0.75
 40
0.75
 40
0.875
 40
0.875
 40
1.0
 40
1.0
 40
1.0
 40
1.0
 10
173.0000000000001
 20
37.07500000000001
 30
0.0
 10
173.0000000000001
 20
37.075
 30
0.0
 10
173.0327396704409
 20
37.07500000000001
 30
0.0
 10
173.175943224352
 20
37.07500000000002
 30
0.0
 10
173.2865326179721
 20
37.075
 30
0.0
 10
173.5911136187476
 20
37.075
 30
0.0
 10
173.7851770903355
 20
37.075
 30
0.0
 10
174.2523790194313
 20
37.07500000000001
 30
0.0
 10
174.5254855146534
 20
37.075
 30
0.0
 10
175.1356797205148
 20
37.075
 30
0.0
 10
175.4726300614985
 20
37.075
 30
0.0
 10
176.1872480211873
 20
37.075
 30
0.0
 10
176.5647300952887
 20
37.075
 30
0.0
 10
177.334086035188
 20
37.075
 30
0.0
 10
177.7258039571131
 20
37.075
 30
0.0
 10
178.4996578877351
 20
37.075
 30
0.0
 10
178.881715218132
 20
37.075
 30
0.0
 10
179.25
 20
37.07500000000001
 30
0.0
  0
LINE
  5
B5
330
1F
100
AcDbEntity
  8
0
  6
Continuous
 62
     7
370
    25
100
AcDbLine
 10
173.0
 20
76.925
 30
0.0
 11
173.0
 21
81.1176721039
 31
0.0
  0
SPLINE
  5
B6
330
1F
100
AcDbEntity
  8
0
  6
Continuous
 62
     7
370
    25
100
AcDbSpline
210
0.0
220
0.0
230
1.0
 70
     8
 71
     3
 72
    18
 73
    14
 74
     0
 42
0.00000001
 43
0.00000001
 40
0.0
 40
0.0
 40
0.0
 40
0.0
 40
0.2500000000000007
 40
0.2500000000000007
 40
0.3750000000000003
 40
0.3750000000000003
 40
0.5
 40
0.5
 40
0.6249999999999997
 40
0.6249999999999997
 40
0.7499999999999993
 40
0.7499999999999993
 40
1.0
 40
1.0
 40
1.0
 40
1.0
 10
173.0000000000001
 20
81.11767210387272
 30
0.0
 10
173.0000000000001
 20
81.82141190347237
 30
0.0
 10
173.1222434898589
 20
82.57455746351985
 30
0.0
 10
173.5322028707413
 20
83.67142418430717
 30
0.0
 10
173.7059445001182
 20
84.03091455943769
 30
0.0
 10
174.1240279357996
 20
84.715997184756
 30
0.0
 10
174.3683472041139
 20
85.04145311421783
 30
0.0
 10
174.9156860857595
 20
85.63876868872339
 30
0.0
 10
175.2186097298544
 20
85.91052360172363
 30
0.0
 10
175.864647036584
 20
86.38672498876262
 30
0.0
 10
176.2076268615494
 20
86.59113712944087
 30
0.0
 10
177.2645893589739
 20
87.09513472485426
 30
0.0
 10
178.0042147506298
 20
87.28255400201095
 30
0.0
 10
178.7052766078272
 20
87.34388896694615
 30
0.0
  0
SPLINE
  5
B7
330
1F
100
AcDbEntity
  8
0
  6
Continuous
 62
     7
370
    25
100
AcDbSpline
210
0.0
220
0.0
230
1.0
 70
    24
 71
     3
 72
     8
 73
     4
 74
     0
 42
0.00000001
 43
0.00000001
 40
0.0
 40
0.0
 40
0.0
 40
0.0
 40
1.0
 40
1.0
 40
1.0
 40
1.0
 10
178.7052766078272
 20
87.34388896694615
 30
0.0
 10
178.8863324512745
 20
87.35972930071293
 30
0.0
 10
179.0682525526445
 20
87.37564524725029
 30
0.0
 10
179.25
 20
87.3915460885186
 30
0.0
  0
SPLINE
  5
B8
330
1F
100
AcDbEntity
  8
0
  6
Continuous
 62
     7
370
    25
100
AcDbSpline
210
0.0
220
0.0
230
1.0
 70
    24
 71
     3
 72
    22
 73
    18
 74
     0
 42
0.00000001
 43
0.00000001
 40
0.0
 40
0.0
 40
0.0
 40
0.0
 40
0.125
 40
0.125
 40
0.25
 40
0.25
 40
0.375
 40
0.375
 40
0.5
 40
0.5
 40
0.625
 40
0.625
 40
0.75
 40
0.75
 40
0.875
 40
0.875
 40
1.0
 40
1.0
 40
1.0
 40
1.0
 10
179.25
 20
76.925
 30
0.0
 10
178.881715218132
 20
76.925
 30
0.0
 10
178.4996578877351
 20
76.925
 30
0.0
 10
177.7258039571132
 20
76.925
 30
0.0
 10
177.3340860351879
 20
76.92500000000001
 30
0.0
 10
176.5647300952887
 20
76.92500000000001
 30
0.0
 10
176.1872480211873
 20
76.925
 30
0.0
 10
175.4726300614985
 20
76.92500000000001
 30
0.0
 10
175.1356797205148
 20
76.925
 30
0.0
 10
174.5254855146534
 20
76.92500000000001
 30
0.0
 10
174.2523790194313
 20
76.925
 30
0.0
 10
173.7851770903356
 20
76.92500000000001
 30
0.0
 10
173.5911136187476
 20
76.925
 30
0.0
 10
173.2865326179721
 20
76.925
 30
0.0
 10
173.175943224352
 20
76.925
 30
0.0
 10
173.0327396704409
 20
76.925
 30
0.0
 10
173.0
 20
76.925
 30
0.0
 10
173.0000000000001
 20
76.925
 30
0.0
  0
SPLINE
  5
B9
330
1F
100
AcDbEntity
  8
0
  6
Continuous
 62
     7
370
    25
100
AcDbSpline
210
0.0
220
0.0
230
1.0
 70
     8
 71
     3
 72
    38
 73
    34
 74
     0
 42
0.00000001
 43
0.00000001
 40
0.0
 40
0.0
 40
0.0
 40
0.0
 40
0.0625
 40
0.0625
 40
0.125
 40
0.125
 40
0.1875
 40
0.1875
 40
0.25
 40
0.25
 40
0.3125
 40
0.3125
 40
0.375
 40
0.375
 40
0.4375
 40
0.4375
 40
0.5
 40
0.5
 40
0.5625
 40
0.5625
 40
0.625
 40
0.625
 40
0.6875
 40
0.6875
 40
0.75
 40
0.75
 40
0.8125
 40
0.8125
 40
0.875
 40
0.875
 40
0.9375
 40
0.9375
 40
1.0
 40
1.0
 40
1.0
 40
1.0
 10
246.7910358780492
 20
37.07500000000001
 30
0.0
 10
246.7910358780492
 20
37.075
 30
0.0
 10
246.768922635755
 20
37.07887942064921
 30
0.0
 10
246.6822594419714
 20
37.09365841845997
 30
0.0
 10
246.6166403830759
 20
37.10473412685254
 30
0.0
 10
246.4453548289453
 20
37.13225498500073
 30
0.0
 10
246.3405053272435
 20
37.1485713869701
 30
0.0
 10
246.0925068385005
 20
37.18445456060198
 30
0.0
 10
245.9481426475524
 20
37.20414444719789
 30
0.0
 10
245.6324752248341
 20
37.24296074983538
 30
0.0
 10
245.4600335514549
 20
37.26227907490011
 30
0.0
 10
245.084897241871
 20
37.29848142624049
 30
0.0
 10
244.8853324039524
 20
37.31500011022997
 30
0.0
 10
244.4719409918002
 20
37.34234208461351
 30
0.0
 10
244.2548831680269
 20
37.35336542145855
 30
0.0
 10
243.8113344607876
 20
37.36809227851528
 30
0.0
 10
243.5882555993205
 20
37.37174108306325
 30
0.0
 10
243.139561007466
 20
37.3714010177099
 30
0.0
 10
242.9118644051823
 20
37.36728689874083
 30
0.0
 10
242.4718211027007
 20
37.35207949749432
 30
0.0
 10
242.257765566198
 20
37.34105346934491
 30
0.0
 10
241.8415966116628
 20
37.31339129326054
 30
0.0
 10
241.6412901585938
 20
37.29681854187188
 30
0.0
 10
241.2691017968375
 20
37.26124049755952
 30
0.0
 10
241.094690702091
 20
37.24204028068741
 30
0.0
 10
240.7730296253329
 20
37.20320102003426
 30
0.0
 10
240.6300701262773
 20
37.18411006074597
 30
0.0
 10
240.3788555329972
 20
37.14864781768264
 30
0.0
 10
240.2696841331145
 20
37.13211839842626
 30
0.0
 10
240.0944924650979
 20
37.10473614096581
 30
0.0
 10
240.0281744648909
 20
37.09386569687358
 30
0.0
 10
239.9382075517103
 20
37.07897161909113
 30
0.0
 10
239.9148699908773
 20
37.07500000000001
 30
0.0
 10
239.9148699908773
 20
37.07500000000001
 30
0.0
  0
SPLINE
  5
BA
330
1F
100
AcDbEntity
  8
0
  6
Continuous
 62
     7
370
    25
100
AcDbSpline
210
0.0
220
0.0
230
1.0
 70
     8
 71
     3
 72
    38
 73
    34
 74
     0
 42
0.00000001
 43
0.00000001
 40
0.0
 40
0.0
 40
0.0
 40
0.0
 40
0.0625
 40
0.0625
 40
0.125
 40
0.125
 40
0.1875
 40
0.1875
 40
0.25
 40
0.25
 40
0.3125
 40
0.3125
 40
0.375
 40
0.375
 40
0.4375
 40
0.4375
 40
0.5
 40
0.5
 40
0.5625
 40
0.5625
 40
0.625
 40
0.625
 40
0.6875
 40
0.6875
 40
0.75
 40
0.75
 40
0.8125
 40
0.8125
 40
0.875
 40
0.875
 40
0.9375
 40
0.9375
 40
1.0
 40
1.0
 40
1.0
 40
1.0
 10
246.7910358780492
 20
76.925
 30
0.0
 10
246.7910358780492
 20
76.925
 30
0.0
 10
246.768922635755
 20
76.9211205793508
 30
0.0
 10
246.6822594419714
 20
76.90634158154003
 30
0.0
 10
246.6166403830759
 20
76.89526587314747
 30
0.0
 10
246.4453548289453
 20
76.86774501499927
 30
0.0
 10
246.3405053272435
 20
76.85142861302991
 30
0.0
 10
246.0925068385005
 20
76.81554543939802
 30
0.0
 10
245.9481426475524
 20
76.79585555280211
 30
0.0
 10
245.6324752248341
 20
76.75703925016462
 30
0.0
 10
245.4600335514549
 20
76.7377209250999
 30
0.0
 10
245.084897241871
 20
76.70151857375951
 30
0.0
 10
244.8853324039524
 20
76.68499988977004
 30
0.0
 10
244.4719409918002
 20
76.6576579153865
 30
0.0
 10
244.2548831680269
 20
76.64663457854145
 30
0.0
 10
243.8113344607876
 20
76.63190772148472
 30
0.0
 10
243.5882555993205
 20
76.62825891693676
 30
0.0
 10
243.139561007466
 20
76.6285989822901
 30
0.0
 10
242.9118644051823
 20
76.63271310125917
 30
0.0
 10
242.4718211027007
 20
76.64792050250568
 30
0.0
 10
242.257765566198
 20
76.6589465306551
 30
0.0
 10
241.8415966116628
 20
76.68660870673946
 30
0.0
 10
241.6412901585938
 20
76.70318145812813
 30
0.0
 10
241.2691017968375
 20
76.73875950244049
 30
0.0
 10
241.094690702091
 20
76.7579597193126
 30
0.0
 10
240.7730296253329
 20
76.79679897996574
 30
0.0
 10
240.6300701262773
 20
76.81588993925403
 30
0.0
 10
240.3788555329972
 20
76.85135218231737
 30
0.0
 10
240.2696841331145
 20
76.86788160157374
 30
0.0
 10
240.0944924650979
 20
76.8952638590342
 30
0.0
 10
240.0281744648909
 20
76.90613430312642
 30
0.0
 10
239.9382075517103
 20
76.92102838090888
 30
0.0
 10
239.9148699908773
 20
76.925
 30
0.0
 10
239.9148699908773
 20
76.925
 30
0.0
  0
LINE
  5
BB
330
1F
100
AcDbEntity
  8
0
  6
Continuous
 62
     7
370
    25
100
AcDbLine
 10
173.0
 20
76.925
 30
0.0
 11
173.0
 21
37.075
 31
0.0
  0
LINE
  5
BC
330
1F
100
AcDbEntity
  8
0
  6
Continuous
 62
     7
370
    25
100
AcDbLine
 10
273.0
 20
76.925
 30
0.0
 11
273.0
 21
37.075
 31
0.0
  0
SPLINE
  5
BD
330
1F
100
AcDbEntity
  8
0
  6
HIDDEN
 62
     7
370
    18
100
AcDbSpline
210
0.0
220
0.0
230
1.0
 70
    24
 71
     3
 72
    18
 73
    14
 74
     0
 42
0.00000001
 43
0.00000001
 40
0.0
 40
0.0
 40
0.0
 40
0.0
 40
0.2500000000000007
 40
0.2500000000000007
 40
0.3750000000000003
 40
0.3750000000000003
 40
0.4999999999999999
 40
0.4999999999999999
 40
0.6249999999999994
 40
0.6249999999999994
 40
0.749999999999999
 40
0.749999999999999
 40
1.0
 40
1.0
 40
1.0
 40
1.0
 10
173.0000000000001
 20
57.0
 30
0.0
 10
173.0
 20
57.0
 30
0.0
 10
173.1222434898589
 20
57.0
 30
0.0
 10
173.5322028707413
 20
56.99999999999999
 30
0.0
 10
173.7059445001182
 20
56.99999999999999
 30
0.0
 10
174.1240279357996
 20
56.99999999999999
 30
0.0
 10
174.3683472041139
 20
56.99999999999999
 30
0.0
 10
174.9156860857595
 20
56.99999999999999
 30
0.0
 10
175.2186097298544
 20
56.99999999999999
 30
0.0
 10
175.8646470365839
 20
56.99999999999999
 30
0.0
 10
176.2076268615494
 20
56.99999999999999
 30
0.0
 10
177.2645893589739
 20
56.99999999999999
 30
0.0
 10
178.0042147506298
 20
56.99999999999999
 30
0.0
 10
178.7052766078272
 20
56.99999999999999
 30
0.0
  0
LINE
  5
BE
330
1F
100
AcDbEntity
  8
0
  6
HIDDEN
 62
     7
370
    18
100
AcDbLine
 10
178.7052766078
 20
57.0
 30
0.0
 11
260.5
 21
57.0
 31
0.0
  0
LINE
  5
BF
330
1F
100
AcDbEntity
  8
0
  6
HIDDEN
 62
     7
370
    18
100
AcDbLine
 10
260.5
 20
19.5
 30
0.0
 11
260.5
 21
57.0
 31
0.0
  0
LINE
  5
C0
330
1F
100
AcDbEntity
  8
0
  6
HIDDEN
 62
     7
370
    18
100
AcDbLine
 10
260.5
 20
57.0
 30
0.0
 11
273.0
 21
57.0
 31
0.0
  0
LINE
  5
C1
330
1F
100
AcDbEntity
  8
0
  6
HIDDEN
 62
     7
370
    18
100
AcDbLine
 10
260.5
 20
57.0
 30
0.0
 11
260.5
 21
94.5
 31
0.0
  0
LINE
  5
C2
330
1F
100
AcDbEntity
  8
0
  6
HIDDEN
 62
     7
370
    18
100
AcDbLine
 10
245.3692375012
 20
20.8237701891
 30
0.0
 11
246.791035878
 21
37.075
 31
0.0
  0
LINE
  5
C3
330
1F
100
AcDbEntity
  8
0
  6
HIDDEN
 62
     7
370
    18
100
AcDbLine
 10
239.9148699909
 20
37.075
 30
0.0
 11
238.5453038193
 21
21.420787027
 31
0.0
  0
LINE
  5
C4
330
1F
100
AcDbEntity
  8
0
  6
HIDDEN
 62
     7
370
    18
100
AcDbLine
 10
238.5453038193
 20
92.579212973
 30
0.0
 11
239.9148699909
 21
76.925
 31
0.0
  0
LINE
  5
C5
330
1F
100
AcDbEntity
  8
0
  6
HIDDEN
 62
     7
370
    18
100
AcDbLine
 10
246.791035878
 20
76.925
 30
0.0
 11
245.3692375012
 21
93.1762298109
 31
0.0
  0
ENDSEC
  0
SECTION
  2
OBJECTS
  0
DICTIONARY
  5
C
330
0
100
AcDbDictionary
281
     1
  3
ACAD_GROUP
350
D
  3
ACAD_LAYOUT
350
1A
  3
ACAD_MLINESTYLE
350
17
  3
ACAD_PLOTSETTINGS
350
19
  3
ACAD_PLOTSTYLENAME
350
E
  3
ACAD_SCALELIST
350
47
  3
DWGPROPS
350
C6
  0
DICTIONARY
  5
D
102
{ACAD_REACTORS
330
C
102
}
330
C
100
AcDbDictionary
281
     1
  0
DICTIONARY
  5
1A
102
{ACAD_REACTORS
330
C
102
}
330
C
100
AcDbDictionary
281
     1
  3
Layout1
350
1E
  3
Layout2
350
26
  3
Model
350
22
  0
DICTIONARY
  5
17
102
{ACAD_REACTORS
330
C
102
}
330
C
100
AcDbDictionary
281
     1
  3
Standard
350
18
  0
DICTIONARY
  5
19
102
{ACAD_REACTORS
330
C
102
}
330
C
100
AcDbDictionary
281
     1
  0
ACDBDICTIONARYWDFLT
  5
E
102
{ACAD_REACTORS
330
C
102
}
330
C
100
AcDbDictionary
281
     1
  3
Normal
350
F
100
AcDbDictionaryWithDefault
340
F
  0
DICTIONARY
  5
47
102
{ACAD_REACTORS
330
C
102
}
330
C
100
AcDbDictionary
281
     1
  3
A0
350
48
  3
A1
350
49
  3
A2
350
4A
  3
A3
350
4B
  3
A4
350
4C
  3
A5
350
4D
  3
A6
350
4E
  3
A7
350
4F
  3
A8
350
50
  3
A9
350
51
  3
B0
350
52
  3
B1
350
53
  3
B2
350
54
  3
B3
350
55
  3
B4
350
56
  3
B5
350
57
  3
B6
350
58
  0
XRECORD
  5
C6
102
{ACAD_REACTORS
330
C
102
}
330
C
100
AcDbXrecord
280
     1
  1
DWGPROPS COOKIE
  2

  3

  4

  6

  7

  8

  9

300
=
301
=
302
=
303
=
304
=
305
=
306
=
307
=
308
=
309
=
 40
0.0
 41
2461214.511650116
 42
2461214.511650359
  1

 90
        0
  0
LAYOUT
  5
1E
102
{ACAD_REACTORS
330
1A
102
}
330
1A
100
AcDbPlotSettings
  1

  2
none_device
  4

  6

 40
0.0
 41
0.0
 42
0.0
 43
0.0
 44
0.0
 45
0.0
 46
0.0
 47
0.0
 48
0.0
 49
0.0
140
0.0
141
0.0
142
1.0
143
1.0
 70
   688
 72
     1
 73
     0
 74
     5
  7

 75
    16
147
1.0
148
0.0
149
0.0
100
AcDbLayout
  1
Layout1
 70
     1
 71
     1
 10
0.0
 20
0.0
 11
420.0
 21
297.0
 12
0.0
 22
0.0
 32
0.0
 14
1.0000000000E+20
 24
1.0000000000E+20
 34
1.0000000000E+20
 15
-1.0000000000E+20
 25
-1.0000000000E+20
 35
-1.0000000000E+20
146
0.0
 13
0.0
 23
0.0
 33
0.0
 16
1.0
 26
0.0
 36
0.0
 17
0.0
 27
1.0
 37
0.0
 76
     0
330
1B
  0
LAYOUT
  5
26
102
{ACAD_REACTORS
330
1A
102
}
330
1A
100
AcDbPlotSettings
  1

  2
none_device
  4

  6

 40
0.0
 41
0.0
 42
0.0
 43
0.0
 44
0.0
 45
0.0
 46
0.0
 47
0.0
 48
0.0
 49
0.0
140
0.0
141
0.0
142
1.0
143
1.0
 70
   688
 72
     1
 73
     0
 74
     5
  7

 75
    16
147
1.0
148
0.0
149
0.0
100
AcDbLayout
  1
Layout2
 70
     1
 71
     2
 10
0.0
 20
0.0
 11
0.0
 21
0.0
 12
0.0
 22
0.0
 32
0.0
 14
0.0
 24
0.0
 34
0.0
 15
0.0
 25
0.0
 35
0.0
146
0.0
 13
0.0
 23
0.0
 33
0.0
 16
1.0
 26
0.0
 36
0.0
 17
0.0
 27
1.0
 37
0.0
 76
     0
330
23
  0
LAYOUT
  5
22
102
{ACAD_REACTORS
330
1A
102
}
330
1A
100
AcDbPlotSettings
  1

  2
none_device
  4
Letter_(8.50_x_11.00_Inches)
  6

 40
6.35
 41
6.35
 42
6.35000508
 43
6.35000508
 44
215.9
 45
279.4
 46
0.0
 47
0.0
 48
0.0
 49
0.0
140
0.0
141
0.0
142
1.0
143
1.0
 70
  1712
 72
     1
 73
     0
 74
     0
  7

 75
     0
147
1.0
148
0.0
149
0.0
100
AcDbLayout
  1
Model
 70
     1
 71
     0
 10
0.0
 20
0.0
 11
297.0
 21
210.0
 12
0.0
 22
0.0
 32
0.0
 14
0.0
 24
0.0
 34
0.0
 15
297.0
 25
210.0
 35
0.0
146
0.0
 13
0.0
 23
0.0
 33
0.0
 16
1.0
 26
0.0
 36
0.0
 17
0.0
 27
1.0
 37
0.0
 76
     0
330
1F
331
29
  0
MLINESTYLE
  5
18
102
{ACAD_REACTORS
330
17
102
}
330
17
100
AcDbMlineStyle
  2
Standard
 70
     0
  3

 62
   256
 51
90.0
 52
90.0
 71
     2
 49
0.5
 62
   256
  6
BYLAYER
 49
-0.5
 62
   256
  6
BYLAYER
  0
ACDBPLACEHOLDER
  5
F
102
{ACAD_REACTORS
330
E
102
}
330
E
  0
SCALE
  5
48
102
{ACAD_REACTORS
330
47
102
}
330
47
100
AcDbScale
 70
     0
300
1:1
140
1.0
141
1.0
290
     1
  0
SCALE
  5
49
102
{ACAD_REACTORS
330
47
102
}
330
47
100
AcDbScale
 70
     0
300
1:2
140
1.0
141
2.0
290
     0
  0
SCALE
  5
4A
102
{ACAD_REACTORS
330
47
102
}
330
47
100
AcDbScale
 70
     0
300
1:4
140
1.0
141
4.0
290
     0
  0
SCALE
  5
4B
102
{ACAD_REACTORS
330
47
102
}
330
47
100
AcDbScale
 70
     0
300
1:5
140
1.0
141
5.0
290
     0
  0
SCALE
  5
4C
102
{ACAD_REACTORS
330
47
102
}
330
47
100
AcDbScale
 70
     0
300
1:8
140
1.0
141
8.0
290
     0
  0
SCALE
  5
4D
102
{ACAD_REACTORS
330
47
102
}
330
47
100
AcDbScale
 70
     0
300
1:10
140
1.0
141
10.0
290
     0
  0
SCALE
  5
4E
102
{ACAD_REACTORS
330
47
102
}
330
47
100
AcDbScale
 70
     0
300
1:16
140
1.0
141
16.0
290
     0
  0
SCALE
  5
4F
102
{ACAD_REACTORS
330
47
102
}
330
47
100
AcDbScale
 70
     0
300
1:20
140
1.0
141
20.0
290
     0
  0
SCALE
  5
50
102
{ACAD_REACTORS
330
47
102
}
330
47
100
AcDbScale
 70
     0
300
1:30
140
1.0
141
30.0
290
     0
  0
SCALE
  5
51
102
{ACAD_REACTORS
330
47
102
}
330
47
100
AcDbScale
 70
     0
300
1:40
140
1.0
141
40.0
290
     0
  0
SCALE
  5
52
102
{ACAD_REACTORS
330
47
102
}
330
47
100
AcDbScale
 70
     0
300
1:50
140
1.0
141
50.0
290
     0
  0
SCALE
  5
53
102
{ACAD_REACTORS
330
47
102
}
330
47
100
AcDbScale
 70
     0
300
1:100
140
1.0
141
100.0
290
     0
  0
SCALE
  5
54
102
{ACAD_REACTORS
330
47
102
}
330
47
100
AcDbScale
 70
     0
300
2:1
140
2.0
141
1.0
290
     0
  0
SCALE
  5
55
102
{ACAD_REACTORS
330
47
102
}
330
47
100
AcDbScale
 70
     0
300
4:1
140
4.0
141
1.0
290
     0
  0
SCALE
  5
56
102
{ACAD_REACTORS
330
47
102
}
330
47
100
AcDbScale
 70
     0
300
8:1
140
8.0
141
1.0
290
     0
  0
SCALE
  5
57
102
{ACAD_REACTORS
330
47
102
}
330
47
100
AcDbScale
 70
     0
300
10:1
140
10.0
141
1.0
290
     0
  0
SCALE
  5
58
102
{ACAD_REACTORS
330
47
102
}
330
47
100
AcDbScale
 70
     0
300
100:1
140
100.0
141
1.0
290
     0
  0
ENDSEC
  0
EOF
