  0
SECTION
  2
HEADER
  9
$ACADVER
  1
AC1015
  9
$ACADMAINTVER
 70
     6
  9
$DWGCODEPAGE
  3
ANSI_936
  9
$INSBASE
 10
0.0
 20
0.0
 30
0.0
  9
$EXTMIN
 10
0.0
 20
0.0
 30
0.0
  9
$EXTMAX
 10
297.0
 20
210.0
 30
0.0
  9
$LIMMIN
 10
0.0
 20
0.0
  9
$LIMMAX
 10
297.0
 20
210.0
  9
$ORTHOMODE
 70
     0
  9
$REGENMODE
 70
     1
  9
$FILLMODE
 70
     1
  9
$QTEXTMODE
 70
     0
  9
$MIRRTEXT
 70
     1
  9
$LTSCALE
 40
1.0
  9
$ATTMODE
 70
     1
  9
$TEXTSIZE
 40
3.5
  9
$TRACEWID
 40
1.0
  9
$TEXTSTYLE
  7
Standard
  9
$CLAYER
  8
0
  9
$CELTYPE
  6
ByLayer
  9
$CECOLOR
 62
   256
  9
$CELTSCALE
 40
1.0
  9
$DISPSILH
 70
     0
  9
$DIMSCALE
 40
1.0
  9
$DIMASZ
 40
4.08
  9
$DIMEXO
 40
0.0
  9
$DIMDLI
 40
3.75
  9
$DIMRND
 40
0.0
  9
$DIMDLE
 40
0.0
  9
$DIMEXE
 40
2.0
  9
$DIMTP
 40
0.0
  9
$DIMTM
 40
0.0
  9
$DIMTXT
 40
3.5
  9
$DIMCEN
 40
2.5
  9
$DIMTSZ
 40
0.0
  9
$DIMTOL
 70
     0
  9
$DIMLIM
 70
     0
  9
$DIMTIH
 70
     1
  9
$DIMTOH
 70
     1
  9
$DIMSE1
 70
     0
  9
$DIMSE2
 70
     0
  9
$DIMTAD
 70
     1
  9
$DIMZIN
 70
     0
  9
$DIMBLK
  1

  9
$DIMASO
 70
     1
  9
$DIMSHO
 70
     1
  9
$DIMPOST
  1

  9
$DIMAPOST
  1

  9
$DIMALT
 70
     0
  9
$DIMALTD
 70
     3
  9
$DIMALTF
 40
0.0393700787
  9
$DIMLFAC
 40
2.0
  9
$DIMTOFL
 70
     1
  9
$DIMTVP
 40
0.0
  9
$DIMTIX
 70
     0
  9
$DIMSOXD
 70
     0
  9
$DIMSAH
 70
     0
  9
$DIMBLK1
  1

  9
$DIMBLK2
  1

  9
$DIMSTYLE
  2
ISO-25
  9
$DIMCLRD
 70
     0
  9
$DIMCLRE
 70
     0
  9
$DIMCLRT
 70
     0
  9
$DIMTFAC
 40
1.0
  9
$DIMGAP
 40
1.524
  9
$DIMJUST
 70
     0
  9
$DIMSD1
 70
     0
  9
$DIMSD2
 70
     0
  9
$DIMTOLJ
 70
     0
  9
$DIMTZIN
 70
     0
  9
$DIMALTZ
 70
     0
  9
$DIMALTTZ
 70
     0
  9
$DIMUPT
 70
     0
  9
$DIMDEC
 70
     2
  9
$DIMTDEC
 70
     2
  9
$DIMALTU
 70
     2
  9
$DIMALTTD
 70
     3
  9
$DIMTXSTY
  7
Standard
  9
$DIMAUNIT
 70
     0
  9
$DIMADEC
 70
     2
  9
$DIMALTRND
 40
0.0
  9
$DIMAZIN
 70
     0
  9
$DIMDSEP
 70
    44
  9
$DIMATFIT
 70
     3
  9
$DIMFRAC
 70
     0
  9
$DIMLDRBLK
  1

  9
$DIMLUNIT
 70
     2
  9
$DIMLWD
 70
    -2
  9
$DIMLWE
 70
    -2
  9
$DIMTMOVE
 70
     0
  9
$LUNITS
 70
     2
  9
$LUPREC
 70
     2
  9
$SKETCHINC
 40
1.0
  9
$FILLETRAD
 40
0.0
  9
$AUNITS
 70
     0
  9
$AUPREC
 70
     2
  9
$MENU
  1
.
  9
$ELEVATION
 40
0.0
  9
$PELEVATION
 40
0.0
  9
$THICKNESS
 40
0.0
  9
$LIMCHECK
 70
     0
  9
$CHAMFERA
 40
0.0
  9
$CHAMFERB
 40
0.0
  9
$CHAMFERC
 40
0.0
  9
$CHAMFERD
 40
0.0
  9
$SKPOLY
 70
     0
  9
$TDCREATE
 40
2461214.503744745
  9
$TDUCREATE
 40
2461214.170411412
  9
$TDUPDATE
 40
2461214.503744919
  9
$TDUUPDATE
 40
2461214.170411586
  9
$TDINDWG
 40
0.0000000116
  9
$TDUSRTIMER
 40
0.0000000116
  9
$USRTIMER
 70
     1
  9
$ANGBASE
 50
0.0
  9
$ANGDIR
 70
     0
  9
$PDMODE
 70
     0
  9
$PDSIZE
 40
-1.0
  9
$PLINEWID
 40
0.0
  9
$SPLFRAME
 70
     0
  9
$SPLINETYPE
 70
     6
  9
$SPLINESEGS
 70
     8
  9
$HANDSEED
  5
BC
  9
$SURFTAB1
 70
     6
  9
$SURFTAB2
 70
     6
  9
$SURFTYPE
 70
     6
  9
$SURFU
 70
     6
  9
$SURFV
 70
     6
  9
$UCSBASE
  2

  9
$UCSNAME
  2

  9
$UCSORG
 10
0.0
 20
0.0
 30
0.0
  9
$UCSXDIR
 10
1.0
 20
0.0
 30
0.0
  9
$UCSYDIR
 10
0.0
 20
1.0
 30
0.0
  9
$UCSORTHOREF
  2

  9
$UCSORTHOVIEW
 70
     0
  9
$UCSORGTOP
 10
0.0
 20
0.0
 30
0.0
  9
$UCSORGBOTTOM
 10
0.0
 20
0.0
 30
0.0
  9
$UCSORGLEFT
 10
0.0
 20
0.0
 30
0.0
  9
$UCSORGRIGHT
 10
0.0
 20
0.0
 30
0.0
  9
$UCSORGFRONT
 10
0.0
 20
0.0
 30
0.0
  9
$UCSORGBACK
 10
0.0
 20
0.0
 30
0.0
  9
$PUCSBASE
  2

  9
$PUCSNAME
  2

  9
$PUCSORG
 10
0.0
 20
0.0
 30
0.0
  9
$PUCSXDIR
 10
1.0
 20
0.0
 30
0.0
  9
$PUCSYDIR
 10
0.0
 20
1.0
 30
0.0
  9
$PUCSORTHOREF
  2

  9
$PUCSORTHOVIEW
 70
     0
  9
$PUCSORGTOP
 10
0.0
 20
0.0
 30
0.0
  9
$PUCSORGBOTTOM
 10
0.0
 20
0.0
 30
0.0
  9
$PUCSORGLEFT
 10
0.0
 20
0.0
 30
0.0
  9
$PUCSORGRIGHT
 10
0.0
 20
0.0
 30
0.0
  9
$PUCSORGFRONT
 10
0.0
 20
0.0
 30
0.0
  9
$PUCSORGBACK
 10
0.0
 20
0.0
 30
0.0
  9
$USERI1
 70
     0
  9
$USERI2
 70
     0
  9
$USERI3
 70
     0
  9
$USERI4
 70
     0
  9
$USERI5
 70
     0
  9
$USERR1
 40
0.0
  9
$USERR2
 40
0.0
  9
$USERR3
 40
0.0
  9
$USERR4
 40
0.0
  9
$USERR5
 40
0.0
  9
$WORLDVIEW
 70
     1
  9
$SHADEDGE
 70
     3
  9
$SHADEDIF
 70
    70
  9
$TILEMODE
 70
     1
  9
$MAXACTVP
 70
    64
  9
$PINSBASE
 10
0.0
 20
0.0
 30
0.0
  9
$PLIMCHECK
 70
     0
  9
$PEXTMIN
 10
1.0000000000E+20
 20
1.0000000000E+20
 30
1.0000000000E+20
  9
$PEXTMAX
 10
-1.0000000000E+20
 20
-1.0000000000E+20
 30
-1.0000000000E+20
  9
$PLIMMIN
 10
0.0
 20
0.0
  9
$PLIMMAX
 10
420.0
 20
297.0
  9
$UNITMODE
 70
     0
  9
$VISRETAIN
 70
     1
  9
$PLINEGEN
 70
     0
  9
$PSLTSCALE
 70
     1
  9
$TREEDEPTH
 70
  3020
  9
$CMLSTYLE
  2
Standard
  9
$CMLJUST
 70
     0
  9
$CMLSCALE
 40
20.0
  9
$PROXYGRAPHICS
 70
     1
  9
$MEASUREMENT
 70
     1
  9
$CELWEIGHT
370
    -1
  9
$ENDCAPS
280
     0
  9
$JOINSTYLE
280
     0
  9
$LWDISPLAY
290
     1
  9
$INSUNITS
 70
     4
  9
$HYPERLINKBASE
  1

  9
$STYLESHEET
  1

  9
$XEDIT
290
     1
  9
$CEPSNTYPE
380
     0
  9
$PSTYLEMODE
290
     1
  9
$FINGERPRINTGUID
  2
{045835b2-1396-48fa-86b1-09e699d2fa2a}
  9
$VERSIONGUID
  2
{FAEB1C32-E019-11D5-929B-00C0DF256EC4}
  9
$EXTNAMES
290
     1
  9
$PSVPSCALE
 40
0.0
  9
$OLESTARTUP
290
     0
  0
ENDSEC
  0
SECTION
  2
CLASSES
  0
CLASS
  1
ACDBDICTIONARYWDFLT
  2
AcDbDictionaryWithDefault
  3
ObjectDBX Classes
 90
        0
280
     0
281
     0
  0
CLASS
  1
VISUALSTYLE
  2
AcDbVisualStyle
  3
ObjectDBX Classes
 90
     4095
280
     0
281
     0
  0
CLASS
  1
MATERIAL
  2
AcDbMaterial
  3
ObjectDBX Classes
 90
     1153
280
     0
281
     0
  0
CLASS
  1
SCALE
  2
AcDbScale
  3
ObjectDBX Classes
 90
     1153
280
     0
281
     0
  0
CLASS
  1
TABLESTYLE
  2
AcDbTableStyle
  3
ObjectDBX Classes
 90
     4095
280
     0
281
     0
  0
CLASS
  1
MLEADERSTYLE
  2
AcDbMLeaderStyle
  3
ACDB_MLEADERSTYLE_CLASS
 90
     4095
280
     0
281
     0
  0
CLASS
  1
SUN
  2
AcDbSun
  3
SCENEOE
 90
     1153
280
     0
281
     0
  0
CLASS
  1
ACDBPLACEHOLDER
  2
AcDbPlaceHolder
  3
ObjectDBX Classes
 90
        0
280
     0
281
     0
  0
CLASS
  1
LAYOUT
  2
AcDbLayout
  3
ObjectDBX Classes
 90
        0
280
     0
281
     0
  0
ENDSEC
  0
SECTION
  2
TABLES
  0
TABLE
  2
VPORT
  5
8
330
0
100
AcDbSymbolTable
 70
     1
  0
VPORT
  5
29
330
8
100
AcDbSymbolTableRecord
100
AcDbViewportTableRecord
  2
*Active
 70
     0
 10
0.0
 20
0.0
 11
1.0
 21
1.0
 12
148.5
 22
105.0
 13
0.0
 23
0.0
 14
10.0
 24
10.0
 15
10.0
 25
10.0
 16
0.0
 26
0.0
 36
1.0
 17
0.0
 27
0.0
 37
0.0
 40
210.0
 41
1.4142857143
 42
50.0
 43
0.0
 44
0.0
 50
0.0
 51
0.0
 71
     0
 72
  2000
 73
     1
 74
     3
 75
     0
 76
     0
 77
     0
 78
     0
281
     0
 65
     1
110
0.0
120
0.0
130
0.0
111
1.0
121
0.0
131
0.0
112
0.0
122
1.0
132
0.0
 79
     0
146
0.0
  0
ENDTAB
  0
TABLE
  2
LTYPE
  5
5
330
0
100
AcDbSymbolTable
 70
     6
  0
LTYPE
  5
14
330
5
100
AcDbSymbolTableRecord
100
AcDbLinetypeTableRecord
  2
ByBlock
 70
     0
  3

 72
    65
 73
     0
 40
0.0
  0
LTYPE
  5
15
330
5
100
AcDbSymbolTableRecord
100
AcDbLinetypeTableRecord
  2
ByLayer
 70
     0
  3

 72
    65
 73
     0
 40
0.0
  0
LTYPE
  5
16
330
5
100
AcDbSymbolTableRecord
100
AcDbLinetypeTableRecord
  2
Continuous
 70
     0
  3
Solid line
 72
    65
 73
     0
 40
0.0
  0
LTYPE
  5
5E
330
5
100
AcDbSymbolTableRecord
100
AcDbLinetypeTableRecord
  2
HIDDEN
 70
     0
  3
Hidden __ __ __ __ __ __ __ __ __ __ __ __ __ __
 72
    65
 73
     2
 40
1.905
 49
1.27
 74
     0
 49
-0.635
 74
     0
  0
LTYPE
  5
5F
330
5
100
AcDbSymbolTableRecord
100
AcDbLinetypeTableRecord
  2
PHANTOM
 70
     0
  3
Phantom ______  __  __  ______  __  __  ______
 72
    65
 73
     6
 40
12.7
 49
6.35
 74
     0
 49
-1.27
 74
     0
 49
1.27
 74
     0
 49
-1.27
 74
     0
 49
1.27
 74
     0
 49
-1.27
 74
     0
  0
LTYPE
  5
60
330
5
100
AcDbSymbolTableRecord
100
AcDbLinetypeTableRecord
  2
CENTER
 70
     0
  3
Center ____ _ ____ _ ____ _ ____ _ ____ _ ____
 72
    65
 73
     4
 40
10.16
 49
6.35
 74
     0
 49
-1.27
 74
     0
 49
1.27
 74
     0
 49
-1.27
 74
     0
  0
LTYPE
  5
61
330
5
100
AcDbSymbolTableRecord
100
AcDbLinetypeTableRecord
  2
CENTERX2
 70
     0
  3
Center (2x) ________  __  ________  __  _____
 72
    65
 73
     4
 40
20.32
 49
12.7
 74
     0
 49
-2.54
 74
     0
 49
2.54
 74
     0
 49
-2.54
 74
     0
  0
LTYPE
  5
62
330
5
100
AcDbSymbolTableRecord
100
AcDbLinetypeTableRecord
  2
DOT2
 70
     0
  3
Dot (.5x) ........................................
 72
    65
 73
     2
 40
0.635
 49
0.0
 74
     0
 49
-0.635
 74
     0
  0
ENDTAB
  0
TABLE
  2
LAYER
  5
2
330
0
100
AcDbSymbolTable
 70
    14
  0
LAYER
  5
10
330
2
100
AcDbSymbolTableRecord
100
AcDbLayerTableRecord
  2
0
 70
     0
 62
     7
  6
Continuous
370
    -3
390
F
  0
LAYER
  5
63
330
2
100
AcDbSymbolTableRecord
100
AcDbLayerTableRecord
  2
SLD-0
 70
     0
 62
     7
  6
Continuous
370
    -3
390
F
  0
LAYER
  5
64
330
2
100
AcDbSymbolTableRecord
100
AcDbLayerTableRecord
  2
5
 70
     0
 62
     7
  6
Continuous
370
    -3
390
F
  0
LAYER
  5
65
330
2
100
AcDbSymbolTableRecord
100
AcDbLayerTableRecord
  2
9
 70
     0
 62
     7
  6
Continuous
370
    -3
390
F
  0
LAYER
  5
66
330
2
100
AcDbSymbolTableRecord
100
AcDbLayerTableRecord
  2
10
 70
     0
 62
     7
  6
Continuous
370
    -3
390
F
  0
LAYER
  5
67
330
2
100
AcDbSymbolTableRecord
100
AcDbLayerTableRecord
  2
轮廓实线层
 70
     0
 62
     7
  6
Continuous
370
    50
390
F
  0
LAYER
  5
68
330
2
100
AcDbSymbolTableRecord
100
AcDbLayerTableRecord
  2
细线层
 70
     0
 62
     4
  6
Continuous
370
    25
390
F
  0
LAYER
  5
69
330
2
100
AcDbSymbolTableRecord
100
AcDbLayerTableRecord
  2
中心线层
 70
     0
 62
     1
  6
CENTERX2
370
    25
390
F
  0
LAYER
  5
6A
330
2
100
AcDbSymbolTableRecord
100
AcDbLayerTableRecord
  2
虚线层
 70
     0
 62
     6
  6
HIDDEN
370
    25
390
F
  0
LAYER
  5
6B
330
2
100
AcDbSymbolTableRecord
100
AcDbLayerTableRecord
  2
剖面线层
 70
     0
 62
     2
  6
Continuous
370
    25
390
F
  0
LAYER
  5
6C
330
2
100
AcDbSymbolTableRecord
100
AcDbLayerTableRecord
  2
文字层
 70
     0
 62
     3
  6
Continuous
370
    25
390
F
  0
LAYER
  5
6D
330
2
100
AcDbSymbolTableRecord
100
AcDbLayerTableRecord
  2
标注层
 70
     0
 62
     4
  6
Continuous
370
    25
390
F
  0
LAYER
  5
6E
330
2
100
AcDbSymbolTableRecord
100
AcDbLayerTableRecord
  2
符号标注层
 70
     0
 62
    31
  6
Continuous
370
    25
390
F
  0
LAYER
  5
6F
330
2
100
AcDbSymbolTableRecord
100
AcDbLayerTableRecord
  2
双点划线层
 70
     0
 62
     6
  6
PHANTOM
370
    25
390
F
  0
ENDTAB
  0
TABLE
  2
STYLE
  5
3
330
0
100
AcDbSymbolTable
 70
     1
  0
STYLE
  5
11
330
3
100
AcDbSymbolTableRecord
100
AcDbTextStyleTableRecord
  2
Standard
 70
     0
 40
0.0
 41
1.0
 50
0.0
 71
     0
 42
3.5
  3
txt
  4

  0
ENDTAB
  0
TABLE
  2
VIEW
  5
6
330
0
100
AcDbSymbolTable
 70
     0
  0
ENDTAB
  0
TABLE
  2
UCS
  5
7
330
0
100
AcDbSymbolTable
 70
     0
  0
ENDTAB
  0
TABLE
  2
APPID
  5
9
330
0
100
AcDbSymbolTable
 70
     1
  0
APPID
  5
12
330
9
100
AcDbSymbolTableRecord
100
AcDbRegAppTableRecord
  2
ACAD
 70
     0
  0
ENDTAB
  0
TABLE
  2
DIMSTYLE
  5
A
330
0
100
AcDbSymbolTable
 70
     1
100
AcDbDimStyleTable
  0
DIMSTYLE
105
27
330
A
100
AcDbSymbolTableRecord
100
AcDbDimStyleTableRecord
  2
ISO-25
 70
     0
 41
2.5
 42
0.625
 43
3.75
 44
1.25
 73
     0
 74
     0
 77
     1
 78
     8
140
2.5
141
2.5
143
0.0393700787
147
0.625
171
     3
172
     1
178
     0
271
     2
272
     2
274
     3
278
    44
283
     0
284
     8
340
11
  0
ENDTAB
  0
TABLE
  2
BLOCK_RECORD
  5
1
330
0
100
AcDbSymbolTable
 70
     2
  0
BLOCK_RECORD
  5
1F
330
1
100
AcDbSymbolTableRecord
100
AcDbBlockTableRecord
  2
*Model_Space
340
22
  0
BLOCK_RECORD
  5
1B
330
1
100
AcDbSymbolTableRecord
100
AcDbBlockTableRecord
  2
*Paper_Space
340
1E
  0
BLOCK_RECORD
  5
23
330
1
100
AcDbSymbolTableRecord
100
AcDbBlockTableRecord
  2
*Paper_Space0
340
26
  0
BLOCK_RECORD
  5
AF
330
1
100
AcDbSymbolTableRecord
100
AcDbBlockTableRecord
  2
SW_CENTERMARKSYMBOL_0
340
0
102
{BLKREFS
331
BA
102
}
  0
ENDTAB
  0
ENDSEC
  0
SECTION
  2
BLOCKS
  0
BLOCK
  5
20
330
1F
100
AcDbEntity
  8
0
100
AcDbBlockBegin
  2
*Model_Space
 70
     0
 10
0.0
 20
0.0
 30
0.0
  3
*Model_Space
  1

  0
ENDBLK
  5
21
330
1F
100
AcDbEntity
  8
0
100
AcDbBlockEnd
  0
BLOCK
  5
1C
330
1B
100
AcDbEntity
 67
     1
  8
0
100
AcDbBlockBegin
  2
*Paper_Space
 70
     0
 10
0.0
 20
0.0
 30
0.0
  3
*Paper_Space
  1

  0
ENDBLK
  5
1D
330
1B
100
AcDbEntity
 67
     1
  8
0
100
AcDbBlockEnd
  0
BLOCK
  5
24
330
23
100
AcDbEntity
  8
0
100
AcDbBlockBegin
  2
*Paper_Space0
 70
     0
 10
0.0
 20
0.0
 30
0.0
  3
*Paper_Space0
  1

  0
ENDBLK
  5
25
330
23
100
AcDbEntity
  8
0
100
AcDbBlockEnd
  0
BLOCK
  5
B0
330
AF
100
AcDbEntity
  8
0
100
AcDbBlockBegin
  2
SW_CENTERMARKSYMBOL_0
 70
     0
 10
0.0
 20
0.0
 30
0.0
  3
SW_CENTERMARKSYMBOL_0
  1

  0
LINE
  5
B2
330
AF
100
AcDbEntity
  8
10
 62
     0
100
AcDbLine
 10
0.0
 20
0.0
 30
0.0
 11
0.0
 21
2.5
 31
0.0
  0
LINE
  5
B3
330
AF
100
AcDbEntity
  8
10
 62
     0
100
AcDbLine
 10
0.0
 20
0.0
 30
0.0
 11
-2.5
 21
0.0
 31
0.0
  0
LINE
  5
B4
330
AF
100
AcDbEntity
  8
10
 62
     0
100
AcDbLine
 10
0.0
 20
0.0
 30
0.0
 11
0.0
 21
-2.5
 31
0.0
  0
LINE
  5
B5
330
AF
100
AcDbEntity
  8
10
 62
     0
100
AcDbLine
 10
0.0
 20
0.0
 30
0.0
 11
2.5
 21
0.0
 31
0.0
  0
LINE
  5
B6
330
AF
100
AcDbEntity
  8
10
 62
     0
100
AcDbLine
 10
0.0
 20
2.5
 30
0.0
 11
0.0
 21
4.1026380948
 31
0.0
  0
LINE
  5
B7
330
AF
100
AcDbEntity
  8
10
 62
     0
100
AcDbLine
 10
-2.5
 20
0.0
 30
0.0
 11
-4.1026380948
 21
0.0
 31
0.0
  0
LINE
  5
B8
330
AF
100
AcDbEntity
  8
10
 62
     0
100
AcDbLine
 10
0.0
 20
-2.5
 30
0.0
 11
0.0
 21
-4.1026380948
 31
0.0
  0
LINE
  5
B9
330
AF
100
AcDbEntity
  8
10
 62
     0
100
AcDbLine
 10
2.5
 20
0.0
 30
0.0
 11
4.1026380948
 21
0.0
 31
0.0
  0
ENDBLK
  5
B1
330
AF
100
AcDbEntity
  8
0
100
AcDbBlockEnd
  0
ENDSEC
  0
SECTION
  2
ENTITIES
  0
ARC
  5
70
330
1F
100
AcDbEntity
  8
0
  6
Continuous
 62
     7
370
    25
100
AcDbCircle
 10
61.66684438
 20
57.0
 30
0.0
 40
20.43363570897092
100
AcDbArc
 50
341.9503092581
 51
18.0496907419
  0
LINE
  5
71
330
1F
100
AcDbEntity
  8
0
  6
Continuous
 62
     7
370
    25
100
AcDbLine
 10
81.4758455758
 20
63.4553334124
 30
0.0
 11
81.0949032451
 21
63.3311923852
 31
0.0
  0
ARC
  5
72
330
1F
100
AcDbEntity
  8
0
  6
Continuous
 62
     7
370
    25
100
AcDbCircle
 10
61.66684438
 20
57.0
 30
0.0
 40
20.83429523267626
100
AcDbArc
 50
341.9503092581
 51
18.0496907419
  0
LINE
  5
73
330
1F
100
AcDbEntity
  8
0
  6
Continuous
 62
     7
370
    25
100
AcDbLine
 10
81.0949032451
 20
50.6688076148
 30
0.0
 11
81.4758455758
 21
50.5446665876
 31
0.0
  0
LINE
  5
74
330
1F
100
AcDbEntity
  8
0
  6
Continuous
 62
     7
370
    25
100
AcDbLine
 10
83.76149956
 20
64.2001795754
 30
0.0
 11
81.4758455758
 21
63.4553334124
 31
0.0
  0
ARC
  5
75
330
1F
100
AcDbEntity
  8
0
  6
Continuous
 62
     7
370
    25
100
AcDbCircle
 10
61.66684438
 20
57.0
 30
0.0
 40
23.23825237490812
100
AcDbArc
 50
341.9503092581
 51
18.0496907419
  0
LINE
  5
76
330
1F
100
AcDbEntity
  8
0
  6
Continuous
 62
     7
370
    25
100
AcDbLine
 10
81.4758455758
 20
50.5446665876
 30
0.0
 11
83.76149956
 21
49.7998204246
 31
0.0
  0
ARC
  5
77
330
1F
100
AcDbEntity
  8
0
  6
HIDDEN
 62
     7
370
    18
100
AcDbCircle
 10
61.66684438
 20
57.0
 30
0.0
 40
23.13597466731866
100
AcDbArc
 50
341.9503092581
 51
18.0496907419
  0
SPLINE
  5
78
330
1F
100
AcDbEntity
  8
0
  6
HIDDEN
 62
     7
370
    18
100
AcDbSpline
210
0.0
220
0.0
230
1.0
 70
     8
 71
     3
 72
    29
 73
    25
 74
     0
 42
0.00000001
 43
0.00000001
 40
0.0
 40
0.0
 40
0.0
 40
0.0
 40
0.0157478279835105
 40
0.031391092124905
 40
0.0470140280248562
 40
0.0627008444835004
 40
0.0940558333157443
 40
0.1253486788031141
 40
0.1877570672738608
 40
0.2501753153020269
 40
0.3126435468880892
 40
0.3751205966471651
 40
0.4375828731228517
 40
0.4999829165508281
 40
0.5624091587940419
 40
0.6248913715572464
 40
0.6873713633005549
 40
0.749821460166337
 40
0.8123090155575523
 40
0.8747969026070745
 40
0.9061389151392141
 40
0.9374195540424913
 40
0.968723142952545
 40
0.9999999999999999
 40
0.9999999999999999
 40
0.9999999999999999
 40
0.9999999999999999
 10
83.75027951134653
 20
58.60263809482139
 30
0.0
 10
83.74497936435941
 20
58.60181808482765
 30
0.0
 10
83.734414262777
 20
58.60018350961616
 30
0.0
 10
83.71930482156225
 20
58.58681144516866
 30
0.0
 10
83.70483778416516
 20
58.56543029535244
 30
0.0
 10
83.68649578995458
 20
58.52541870894785
 30
0.0
 10
83.6654035346524
 20
58.45486720059274
 30
0.0
 10
83.63624518381577
 20
58.29981972607479
 30
0.0
 10
83.60819474164352
 20
58.03257943618219
 30
0.0
 10
83.5877702655032
 20
57.62218270322045
 30
0.0
 10
83.57893952026815
 20
57.15725930627877
 30
0.0
 10
83.58075756847785
 20
56.67848842869035
 30
0.0
 10
83.5934370145876
 20
56.22798259837724
 30
0.0
 10
83.61825689415333
 20
55.84496106789045
 30
0.0
 10
83.65658710082701
 20
55.56235802429456
 30
0.0
 10
83.70852932622094
 20
55.40404167554884
 30
0.0
 10
83.77172599980386
 20
55.38260413221826
 30
0.0
 10
83.84101516319396
 20
55.4988220806128
 30
0.0
 10
83.9088993955849
 20
55.74250248110829
 30
0.0
 10
83.95701863538429
 20
56.03670923769612
 30
0.0
 10
83.98610845950449
 20
56.31052297899453
 30
0.0
 10
84.00226596359087
 20
56.53174813878943
 30
0.0
 10
84.0127295188258
 20
56.76316080552646
 30
0.0
 10
84.01402574628587
 20
56.92107608687214
 30
0.0
 10
84.01467358316765
 20
57.00000000000008
 30
0.0
  0
SPLINE
  5
79
330
1F
100
AcDbEntity
  8
0
  6
HIDDEN
 62
     7
370
    18
100
AcDbSpline
210
0.0
220
0.0
230
1.0
 70
     8
 71
     3
 72
    20
 73
    16
 74
     0
 42
0.00000001
 43
0.00000001
 40
0.0
 40
0.0
 40
0.0
 40
0.0
 40
0.0417901763434591
 40
0.0835056355110268
 40
0.1253298638384915
 40
0.1877159050577325
 40
0.250195597464061
 40
0.3751953156896137
 40
0.5000166893528424
 40
0.6250660434838636
 40
0.7498484367886558
 40
0.8124766017066299
 40
0.8750644474287633
 40
0.9375765088206259
 40
1.0
 40
1.0
 40
1.0
 40
1.0
 10
84.01467358316765
 20
57.00000000000008
 30
0.0
 10
84.01454401423064
 20
57.03526745457957
 30
0.0
 10
84.01428510801455
 20
57.10573930861801
 30
0.0
 10
84.01218632266529
 20
57.21103293474814
 30
0.0
 10
84.00830439445231
 20
57.33250320898587
 30
0.0
 10
84.00168328336903
 20
57.4689853687044
 30
0.0
 10
83.98808489422663
 20
57.66718047868066
 30
0.0
 10
83.96459081595677
 20
57.90000109095929
 30
0.0
 10
83.92808830723395
 20
58.14378816220367
 30
0.0
 10
83.88577883325758
 20
58.34316285528003
 30
0.0
 10
83.84781065781263
 20
58.46644016764573
 30
0.0
 10
83.8171709174174
 20
58.53669535293202
 30
0.0
 10
83.79431349688814
 20
58.57441130958544
 30
0.0
 10
83.77183226799457
 20
58.59824574557508
 30
0.0
 10
83.75746036735208
 20
58.60117467053749
 30
0.0
 10
83.75027951134653
 20
58.60263809482139
 30
0.0
  0
ARC
  5
7A
330
1F
100
AcDbEntity
  8
0
  6
HIDDEN
 62
     7
370
    18
100
AcDbCircle
 10
61.66684438
 20
57.0
 30
0.0
 40
21.46179642198858
100
AcDbArc
 50
341.9503092581
 51
18.0496907419
  0
LINE
  5
7B
330
1F
100
AcDbEntity
  8
0
  6
HIDDEN
 62
     7
370
    18
100
AcDbLine
 10
84.849767504
 20
58.6026380948
 30
0.0
 11
82.0375345849
 21
58.6026380948
 31
0.0
  0
LINE
  5
7C
330
1F
100
AcDbEntity
  8
0
  6
HIDDEN
 62
     7
370
    18
100
AcDbLine
 10
82.0375345849
 20
55.3973619052
 30
0.0
 11
84.849767504
 21
55.3973619052
 31
0.0
  0
ARC
  5
7D
330
1F
100
AcDbEntity
  8
0
  6
HIDDEN
 62
     7
370
    18
100
AcDbCircle
 10
61.66684438
 20
57.0
 30
0.0
 40
23.11554835670314
100
AcDbArc
 50
341.9503092581
 51
18.0496907419
  0
ARC
  5
7E
330
1F
100
AcDbEntity
  8
0
  6
Continuous
 62
     7
370
    25
100
AcDbCircle
 10
85.0105387264
 20
192.1722979106
 30
0.0
 40
0.2281459897524813
100
AcDbArc
 50
155.5701400676
 51
242.4728512633
  0
LINE
  5
7F
330
1F
100
AcDbEntity
  8
0
  6
Continuous
 62
     7
370
    25
100
AcDbLine
 10
84.9050967549
 20
115.4326887828
 30
0.0
 11
84.9050967549
 21
191.9699798855
 31
0.0
  0
LINE
  5
80
330
1F
100
AcDbEntity
  8
0
  6
Continuous
 62
     7
370
    25
100
AcDbLine
 10
84.9050967549
 20
110.2436933327
 30
0.0
 11
84.9050967549
 21
112.2682962345
 31
0.0
  0
LINE
  5
81
330
1F
100
AcDbEntity
  8
0
  6
Continuous
 62
     7
370
    25
100
AcDbLine
 10
82.5011396126
 20
108.0
 30
0.0
 11
84.9050967549
 21
110.2436933327
 31
0.0
  0
ARC
  5
82
330
1F
100
AcDbEntity
  8
0
  6
Continuous
 62
     7
370
    25
100
AcDbCircle
 10
-35.6486406932
 20
187.4052157287
 30
0.0
 40
120.5495240080499
100
AcDbArc
 50
8.4817631565
 51
9.8367119811
  0
ARC
  5
83
330
1F
100
AcDbEntity
  8
0
  6
Continuous
 62
     7
370
    25
100
AcDbCircle
 10
-35.6486406932
 20
187.4052157287
 30
0.0
 40
120.5495240080501
100
AcDbArc
 50
2.3112116599
 51
6.951686024
  0
ARC
  5
84
330
1F
100
AcDbEntity
  8
0
  6
Continuous
 62
     7
370
    25
100
AcDbCircle
 10
-42.8125341283
 20
187.4178214378
 30
0.0
 40
126.5697017470734
100
AcDbArc
 50
2.195514841
 51
9.358734233
  0
ARC
  5
85
330
1F
100
AcDbEntity
  8
0
  6
Continuous
 62
     7
370
    25
100
AcDbCircle
 10
83.8778271896
 20
192.1723846267
 30
0.0
 40
0.2334519151438541
100
AcDbArc
 50
156.1835699675
 51
240.1128206934
  0
LINE
  5
86
330
1F
100
AcDbEntity
  8
0
  6
Continuous
 62
     7
370
    25
100
AcDbLine
 10
83.76149956
 20
191.9699798855
 30
0.0
 11
83.76149956
 21
110.2436933327
 31
0.0
  0
LINE
  5
87
330
1F
100
AcDbEntity
  8
0
  6
Continuous
 62
     7
370
    25
100
AcDbLine
 10
83.76149956
 20
110.2436933327
 30
0.0
 11
81.4758455758
 21
108.0
 31
0.0
  0
LINE
  5
88
330
1F
100
AcDbEntity
  8
0
  6
Continuous
 62
     7
370
    25
100
AcDbLine
 10
81.4758455758
 20
108.0
 30
0.0
 11
81.0949032451
 21
108.0
 31
0.0
  0
LINE
  5
89
330
1F
100
AcDbEntity
  8
0
  6
Continuous
 62
     7
370
    25
100
AcDbLine
 10
81.0949032451
 20
108.0
 30
0.0
 11
81.0949032451
 21
208.0
 31
0.0
  0
LINE
  5
8A
330
1F
100
AcDbEntity
  8
0
  6
Continuous
 62
     7
370
    25
100
AcDbLine
 10
81.0949032451
 20
208.0
 30
0.0
 11
82.072466276
 21
208.0
 31
0.0
  0
LINE
  5
8B
330
1F
100
AcDbEntity
  8
0
  6
Continuous
 62
     7
370
    25
100
AcDbLine
 10
83.76149956
 20
191.9699798855
 30
0.0
 11
84.9050967549
 21
191.9699798855
 31
0.0
  0
LINE
  5
8C
330
1F
100
AcDbEntity
  8
0
  6
Continuous
 62
     7
370
    25
100
AcDbLine
 10
83.6642551267
 20
192.2666542964
 30
0.0
 11
84.8028190473
 21
192.2666542964
 31
0.0
  0
LINE
  5
8D
330
1F
100
AcDbEntity
  8
0
  6
Continuous
 62
     7
370
    25
100
AcDbLine
 10
84.9050967549
 20
110.2436933327
 30
0.0
 11
83.76149956
 21
110.2436933327
 31
0.0
  0
SPLINE
  5
8E
330
1F
100
AcDbEntity
  8
0
  6
Continuous
 62
     7
370
    25
100
AcDbSpline
210
0.0
220
0.0
230
1.0
 70
     8
 71
     3
 72
    18
 73
    14
 74
     0
 42
0.00000001
 43
0.00000001
 40
0.0
 40
0.0
 40
0.0
 40
0.0
 40
0.0367020475130212
 40
0.1438045595931933
 40
0.2510002606158748
 40
0.3584182938464225
 40
0.4658417581796625
 40
0.5002192682978247
 40
0.6074173623484106
 40
0.7146092744339059
 40
0.8219615556007703
 40
0.9294187809117445
 40
1.0
 40
1.0
 40
1.0
 40
1.0
 10
84.90369993941144
 20
112.268296234466
 30
0.0
 10
84.904082819783
 20
112.262685733785
 30
0.0
 10
84.90558300701889
 20
112.2407028844837
 30
0.0
 10
84.89538810703046
 20
112.3887403641614
 30
0.0
 10
84.87741567092705
 20
112.6970815453282
 30
0.0
 10
84.85861977749997
 20
113.1474088925605
 30
0.0
 10
84.85064781932712
 20
113.5561540226258
 30
0.0
 10
84.84909292360719
 20
113.9720167235257
 30
0.0
 10
84.85409114541208
 20
114.3903589378434
 30
0.0
 10
84.87093081160458
 20
114.8707356579614
 30
0.0
 10
84.89015270220179
 20
115.2300140464071
 30
0.0
 10
84.90376060744372
 20
115.4340628216609
 30
0.0
 10
84.90371716260134
 20
115.4330788619202
 30
0.0
 10
84.90369993941144
 20
115.4326887828097
 30
0.0
  0
LINE
  5
8F
330
1F
100
AcDbEntity
  8
0
  6
Continuous
 62
     7
370
    25
100
AcDbLine
 10
81.4758455758
 20
108.0
 30
0.0
 11
82.5011396126
 21
108.0
 31
0.0
  0
LINE
  5
90
330
1F
100
AcDbEntity
  8
0
  6
Continuous
 62
     7
370
    25
100
AcDbLine
 10
82.072466276
 20
208.0
 30
0.0
 11
83.128640802
 21
208.0
 31
0.0
  0
SPLINE
  5
91
330
1F
100
AcDbEntity
  8
0
  6
Continuous
 62
     7
370
    25
100
AcDbSpline
210
0.0
220
0.0
230
1.0
 70
     8
 71
     3
 72
    13
 73
     9
 74
     0
 42
0.00000001
 43
0.00000001
 40
0.0
 40
0.0
 40
0.0
 40
0.0
 40
0.1877790179032702
 40
0.3755172680488599
 40
0.5630506553694136
 40
0.7506136700565065
 40
0.9383268822755709
 40
1.0
 40
1.0
 40
1.0
 40
1.0
 10
83.75027951134653
 20
203.5982258186322
 30
0.0
 10
83.72977532118279
 20
203.7550157793617
 30
0.0
 10
83.68877139241683
 20
204.0685616609411
 30
0.0
 10
83.64190640288795
 20
204.4994455483309
 30
0.0
 10
83.60806224579973
 20
204.8559870428205
 30
0.0
 10
83.58824220630575
 20
205.0945332571908
 30
0.0
 10
83.57965903924631
 20
205.2071502419021
 30
0.0
 10
83.58099393033314
 20
205.1897341639642
 30
0.0
 10
83.58132404824764
 20
205.1854271763871
 30
0.0
  0
LINE
  5
92
330
1F
100
AcDbEntity
  8
0
  6
Continuous
 62
     7
370
    25
100
AcDbLine
 10
83.7305832041
 20
203.752870447
 30
0.0
 11
83.7599620566
 21
203.5323958865
 31
0.0
  0
SPLINE
  5
93
330
1F
100
AcDbEntity
  8
0
  6
Continuous
 62
     7
370
    25
100
AcDbSpline
210
0.0
220
0.0
230
1.0
 70
     8
 71
     3
 72
    20
 73
    16
 74
     0
 42
0.00000001
 43
0.00000001
 40
0.0
 40
0.0
 40
0.0
 40
0.0
 40
0.0417901763434591
 40
0.0835056355110268
 40
0.1253298638384915
 40
0.1877159050577325
 40
0.250195597464061
 40
0.3751953156896137
 40
0.5000166893528424
 40
0.6250660434838636
 40
0.7498484367886558
 40
0.8124766017066299
 40
0.8750644474287633
 40
0.9375765088206259
 40
1.0
 40
1.0
 40
1.0
 40
1.0
 10
84.01467358316765
 20
201.995587723811
 30
0.0
 10
84.01454401423064
 20
201.9962546050336
 30
0.0
 10
84.01428510801455
 20
201.9975871751535
 30
0.0
 10
84.01218632266529
 20
202.0084348993136
 30
0.0
 10
84.00830439445231
 20
202.0285639400993
 30
0.0
 10
84.00168328336903
 20
202.0630090201704
 30
0.0
 10
83.98808489422663
 20
202.1344188237713
 30
0.0
 10
83.96459081595677
 20
202.2596405379701
 30
0.0
 10
83.92808830723395
 20
202.4610017712419
 30
0.0
 10
83.88577883325758
 20
202.7052307970567
 30
0.0
 10
83.84781065781263
 20
202.9371879830609
 30
0.0
 10
83.8171709174174
 20
203.1340286754591
 30
0.0
 10
83.79431349688814
 20
203.2863744219175
 30
0.0
 10
83.77183226799457
 20
203.4415504272056
 30
0.0
 10
83.75746036735208
 20
203.5460253765348
 30
0.0
 10
83.75027951134653
 20
203.5982258186322
 30
0.0
  0
SPLINE
  5
94
330
1F
100
AcDbEntity
  8
0
  6
HIDDEN
 62
     7
370
    18
100
AcDbSpline
210
0.0
220
0.0
230
1.0
 70
     8
 71
     3
 72
    18
 73
    14
 74
     0
 42
0.00000001
 43
0.00000001
 40
0.0
 40
0.0
 40
0.0
 40
0.0
 40
0.0365919611411073
 40
0.1436156616091841
 40
0.2507592230499504
 40
0.3581901956589617
 40
0.4656291865822115
 40
0.5002202736200262
 40
0.607367181936466
 40
0.7145060958882155
 40
0.8218523707470672
 40
0.9293345735656682
 40
0.9999999999999999
 40
0.9999999999999999
 40
0.9999999999999999
 40
0.9999999999999999
 10
82.098894188772
 20
205.1804557963748
 30
0.0
 10
82.09932947205736
 20
205.1860643922683
 30
0.0
 10
82.10103786633486
 20
205.2080769377793
 30
0.0
 10
82.08946496380673
 20
205.0603189322574
 30
0.0
 10
82.0690427019462
 20
204.752430930224
 30
0.0
 10
82.04764799842249
 20
204.3024117806411
 30
0.0
 10
82.03854451983302
 20
203.893331639427
 30
0.0
 10
82.03676225537572
 20
203.4771336512318
 30
0.0
 10
82.0424516362051
 20
203.0585730382079
 30
0.0
 10
82.06159958255742
 20
202.5783408141906
 30
0.0
 10
82.08346385776858
 20
202.2189905231438
 30
0.0
 10
82.0989539339614
 20
202.0147386648865
 30
0.0
 10
82.09891115701055
 20
202.015638790179
 30
0.0
 10
82.098894188772
 20
202.0159958408898
 30
0.0
  0
SPLINE
  5
95
330
1F
100
AcDbEntity
  8
0
  6
HIDDEN
 62
     7
370
    18
100
AcDbSpline
210
0.0
220
0.0
230
1.0
 70
     8
 71
     3
 72
    18
 73
    14
 74
     0
 42
0.00000001
 43
0.00000001
 40
0.0
 40
0.0
 40
0.0
 40
0.0
 40
0.0365919611411076
 40
0.1436156616091844
 40
0.25075922304995
 40
0.3581901956589614
 40
0.4656291865822084
 40
0.5002202736200257
 40
0.6073671819364668
 40
0.7145060958882133
 40
0.8218523707470667
 40
0.9293345735656674
 40
1.0
 40
1.0
 40
1.0
 40
1.0
 10
82.098894188772
 20
115.4327224863804
 30
0.0
 10
82.09932947205736
 20
115.4383310822739
 30
0.0
 10
82.10103786633486
 20
115.460343627785
 30
0.0
 10
82.08946496380673
 20
115.3125856222629
 30
0.0
 10
82.0690427019462
 20
115.0046976202296
 30
0.0
 10
82.04764799842249
 20
114.5546784706467
 30
0.0
 10
82.03854451983302
 20
114.1455983294325
 30
0.0
 10
82.03676225537572
 20
113.7294003412374
 30
0.0
 10
82.0424516362051
 20
113.3108397282135
 30
0.0
 10
82.06159958255742
 20
112.8306075041962
 30
0.0
 10
82.08346385776856
 20
112.4712572131495
 30
0.0
 10
82.0989539339614
 20
112.2670053548921
 30
0.0
 10
82.09891115701055
 20
112.2679054801846
 30
0.0
 10
82.098894188772
 20
112.2682625308954
 30
0.0
  0
LINE
  5
96
330
1F
100
AcDbEntity
  8
0
  6
HIDDEN
 62
     7
370
    18
100
AcDbLine
 10
82.1004800889
 20
205.1804557964
 30
0.0
 11
82.1004800889
 21
208.0
 31
0.0
  0
LINE
  5
97
330
1F
100
AcDbEntity
  8
0
  6
HIDDEN
 62
     7
370
    18
100
AcDbLine
 10
82.1004800889
 20
115.4327224864
 30
0.0
 11
82.1004800889
 21
202.0159958409
 31
0.0
  0
LINE
  5
98
330
1F
100
AcDbEntity
  8
0
  6
HIDDEN
 62
     7
370
    18
100
AcDbLine
 10
82.1004800889
 20
108.0
 30
0.0
 11
82.1004800889
 21
112.2682625309
 31
0.0
  0
LINE
  5
99
330
1F
100
AcDbEntity
  8
0
  6
HIDDEN
 62
     7
370
    18
100
AcDbLine
 10
83.5813208974
 20
205.2008639135
 30
0.0
 11
82.0988987529
 21
205.2008639135
 31
0.0
  0
LINE
  5
9A
330
1F
100
AcDbEntity
  8
0
  6
HIDDEN
 62
     7
370
    18
100
AcDbLine
 10
82.0988987529
 20
201.9955877238
 30
0.0
 11
84.0171735832
 21
201.9955877238
 31
0.0
  0
LINE
  5
9B
330
1F
100
AcDbEntity
  8
0
  6
HIDDEN
 62
     7
370
    18
100
AcDbLine
 10
84.9050967549
 20
115.4531306035
 30
0.0
 11
82.0988987529
 21
115.4531306035
 31
0.0
  0
LINE
  5
9C
330
1F
100
AcDbEntity
  8
0
  6
HIDDEN
 62
     7
370
    18
100
AcDbLine
 10
82.0988987529
 20
112.2478544138
 30
0.0
 11
84.9050967549
 21
112.2478544138
 31
0.0
  0
LINE
  5
9D
330
1F
100
AcDbEntity
  8
0
  6
Continuous
 62
     7
370
    25
100
AcDbLine
 10
256.9699798855
 20
64.2001795754
 30
0.0
 11
256.9699798855
 21
49.7998204246
 31
0.0
  0
ARC
  5
9E
330
1F
100
AcDbEntity
  8
0
  6
Continuous
 62
     7
370
    25
100
AcDbCircle
 10
257.1731144695
 20
64.6973365838
 30
0.0
 40
0.5370556305781352
100
AcDbArc
 50
247.77544742
 51
280.0304527
  0
LINE
  5
9F
330
1F
100
AcDbEntity
  8
0
  6
Continuous
 62
     7
370
    25
100
AcDbLine
 10
257.2666542964
 20
64.1684896768
 30
0.0
 11
257.2666542964
 21
49.8315103232
 31
0.0
  0
ARC
  5
A0
330
1F
100
AcDbEntity
  8
0
  6
Continuous
 62
     7
370
    25
100
AcDbCircle
 10
257.1731144695
 20
49.3026634161
 30
0.0
 40
0.537055630582317
100
AcDbArc
 50
79.9695473002
 51
112.2245525799
  0
LINE
  5
A1
330
1F
100
AcDbEntity
  8
0
  6
Continuous
 62
     7
370
    25
100
AcDbLine
 10
175.2436933327
 20
49.7998204246
 30
0.0
 11
175.2436933327
 21
64.2001795754
 31
0.0
  0
LINE
  5
A2
330
1F
100
AcDbEntity
  8
0
  6
Continuous
 62
     7
370
    25
100
AcDbLine
 10
256.9699798855
 20
64.2001795754
 30
0.0
 11
175.2436933327
 21
64.2001795754
 31
0.0
  0
LINE
  5
A3
330
1F
100
AcDbEntity
  8
0
  6
Continuous
 62
     7
370
    25
100
AcDbLine
 10
175.2436933327
 20
49.7998204246
 30
0.0
 11
256.9699798855
 21
49.7998204246
 31
0.0
  0
SPLINE
  5
A4
330
1F
100
AcDbEntity
  8
0
  6
Continuous
 62
     7
370
    25
100
AcDbSpline
210
0.0
220
0.0
230
1.0
 70
    11
 71
     3
 72
    58
 73
    54
 74
     0
 42
0.00000001
 43
0.00000001
 40
0.0
 40
0.0
 40
0.0
 40
0.0
 40
0.0312499999999999
 40
0.0312499999999999
 40
0.0624999999999998
 40
0.0624999999999998
 40
0.0937499999999998
 40
0.0937499999999998
 40
0.1249999999999997
 40
0.1249999999999997
 40
0.1874999999999995
 40
0.1874999999999995
 40
0.2499999999999993
 40
0.2499999999999993
 40
0.2812499999999992
 40
0.2812499999999992
 40
0.3124999999999991
 40
0.3124999999999991
 40
0.3437499999999991
 40
0.3437499999999991
 40
0.374999999999999
 40
0.374999999999999
 40
0.4062499999999989
 40
0.4062499999999989
 40
0.4374999999999988
 40
0.4374999999999988
 40
0.5000000000000006
 40
0.5000000000000006
 40
0.5312500000000003
 40
0.5312500000000003
 40
0.5625000000000002
 40
0.5625000000000002
 40
0.59375
 40
0.59375
 40
0.6249999999999998
 40
0.6249999999999998
 40
0.6874999999999994
 40
0.6874999999999994
 40
0.7499999999999991
 40
0.7499999999999991
 40
0.781249999999999
 40
0.781249999999999
 40
0.8124999999999988
 40
0.8124999999999988
 40
0.8437499999999986
 40
0.8437499999999986
 40
0.8749999999999986
 40
0.8749999999999986
 40
0.9062499999999984
 40
0.9062499999999984
 40
0.9374999999999983
 40
0.9374999999999983
 40
1.0
 40
1.0
 40
1.0
 40
1.0
 10
178.8504925086379
 20
55.39736190517876
 30
0.0
 10
178.7445911329789
 20
55.39736190517875
 30
0.0
 10
178.6404655709413
 20
55.40775548890556
 30
0.0
 10
178.4356188871209
 20
55.44847372699077
 30
0.0
 10
178.3338345851407
 20
55.47929454298491
 30
0.0
 10
178.1397822172744
 20
55.55973218509265
 30
0.0
 10
178.0477500992597
 20
55.60895079024019
 30
0.0
 10
177.8735740930581
 20
55.72522798544647
 30
0.0
 10
177.7911289687559
 20
55.79288819984492
 30
0.0
 10
177.5694461284336
 20
56.0145794736924
 30
0.0
 10
177.4500477634666
 20
56.19329819676105
 30
0.0
 10
177.2901439142123
 20
56.57889959926283
 30
0.0
 10
177.2479992121167
 20
56.78981257625541
 30
0.0
 10
177.2477825881227
 20
57.10343325159562
 30
0.0
 10
177.2581710312897
 20
57.20962288649142
 30
0.0
 10
177.2990236214419
 20
57.41517915871155
 30
0.0
 10
177.3292583750964
 20
57.51509084954414
 30
0.0
 10
177.409459827635
 20
57.70915208849539
 30
0.0
 10
177.4596027694793
 20
57.80297809726233
 30
0.0
 10
177.575530843073
 20
57.97663751848864
 30
0.0
 10
177.6417161404596
 20
58.05758988064137
 30
0.0
 10
177.7911951534394
 20
58.20728032253115
 30
0.0
 10
177.8721877959399
 20
58.27368059560223
 30
0.0
 10
178.0456477835708
 20
58.38980838212776
 30
0.0
 10
178.1392757601603
 20
58.44002121967144
 30
0.0
 10
178.4304457973391
 20
58.56082531920925
 30
0.0
 10
178.638692974569
 20
58.60263847928604
 30
0.0
 10
178.9563966393748
 20
58.60263790258513
 30
0.0
 10
179.0605220530078
 20
58.59224415970706
 30
0.0
 10
179.2653684472683
 20
58.55152564567107
 30
0.0
 10
179.3671526114447
 20
58.52070470717447
 30
0.0
 10
179.5612046186872
 20
58.44026690751546
 30
0.0
 10
179.6532365700371
 20
58.39104824812497
 30
0.0
 10
179.8274122626043
 20
58.27477097983657
 30
0.0
 10
179.9098572179903
 20
58.20711076300871
 30
0.0
 10
180.1315395947376
 20
57.9854195556458
 30
0.0
 10
180.2509377061081
 20
57.80670095621016
 30
0.0
 10
180.4108411998377
 20
57.42109992369836
 30
0.0
 10
180.4529858053241
 20
57.2101871844342
 30
0.0
 10
180.4532024290704
 20
56.89656686806227
 30
0.0
 10
180.4428140100756
 20
56.79037735541373
 30
0.0
 10
180.4019615120237
 20
56.58482130522209
 30
0.0
 10
180.3717268260685
 20
56.48490971907835
 30
0.0
 10
180.291525556541
 20
56.2908486756132
 30
0.0
 10
180.2413827215379
 20
56.1970227385807
 30
0.0
 10
180.1254548946774
 20
56.02336343459708
 30
0.0
 10
180.05926973872
 20
55.94241111817769
 30
0.0
 10
179.9097910550466
 20
55.79272073467003
 30
0.0
 10
179.8287985438012
 20
55.72632043020116
 30
0.0
 10
179.6553388893593
 20
55.6101925858596
 30
0.0
 10
179.5617111065339
 20
55.55997970131501
 30
0.0
 10
179.2705415199881
 20
55.43917532771344
 30
0.0
 10
179.0622952599559
 20
55.39736190517875
 30
0.0
 10
178.8504925086379
 20
55.39736190517874
 30
0.0
  0
LINE
  5
A5
330
1F
100
AcDbEntity
  8
0
  6
Continuous
 62
     7
370
    25
100
AcDbLine
 10
173.0
 20
63.4553334124
 30
0.0
 11
173.0
 21
50.5446665876
 31
0.0
  0
LINE
  5
A6
330
1F
100
AcDbEntity
  8
0
  6
Continuous
 62
     7
370
    25
100
AcDbLine
 10
175.2436933327
 20
64.2001795754
 30
0.0
 11
173.0
 21
63.4553334124
 31
0.0
  0
LINE
  5
A7
330
1F
100
AcDbEntity
  8
0
  6
Continuous
 62
     7
370
    25
100
AcDbLine
 10
173.0
 20
50.5446665876
 30
0.0
 11
175.2436933327
 21
49.7998204246
 31
0.0
  0
ARC
  5
A8
330
1F
100
AcDbEntity
  8
0
  6
Continuous
 62
     7
370
    25
100
AcDbCircle
 10
252.5239169214
 20
-318.5405546884
 30
0.0
 40
382.7384305196803
100
AcDbArc
 50
86.9332750289
 51
89.2899960703
  0
LINE
  5
A9
330
1F
100
AcDbEntity
  8
0
  6
Continuous
 62
     7
370
    25
100
AcDbLine
 10
273.0
 20
63.6497594464
 30
0.0
 11
273.0
 21
50.3502405536
 31
0.0
  0
ARC
  5
AA
330
1F
100
AcDbEntity
  8
0
  6
Continuous
 62
     7
370
    25
100
AcDbCircle
 10
252.5239169214
 20
432.5405546884
 30
0.0
 40
382.7384305196804
100
AcDbArc
 50
270.7100039297
 51
273.0667249711
  0
SPLINE
  5
AB
330
1F
100
AcDbEntity
  8
0
  6
Continuous
 62
     7
370
    25
100
AcDbSpline
210
0.0
220
0.0
230
1.0
 70
     8
 71
     3
 72
    29
 73
    25
 74
     0
 42
0.00000001
 43
0.00000001
 40
0.0
 40
0.0
 40
0.0
 40
0.0
 40
0.0157478279835105
 40
0.031391092124905
 40
0.0470140280248562
 40
0.0627008444835004
 40
0.0940558333157443
 40
0.1253486788031141
 40
0.1877570672738608
 40
0.2501753153020269
 40
0.3126435468880892
 40
0.3751205966471651
 40
0.4375828731228517
 40
0.4999829165508281
 40
0.5624091587940419
 40
0.6248913715572464
 40
0.6873713633005549
 40
0.749821460166337
 40
0.8123090155575523
 40
0.8747969026070745
 40
0.9061389151392141
 40
0.9374195540424913
 40
0.968723142952545
 40
0.9999999999999999
 40
0.9999999999999999
 40
0.9999999999999999
 40
0.9999999999999999
 10
268.5982258186322
 20
58.60263809482139
 30
0.0
 10
268.6375768218816
 20
58.60181808482765
 30
0.0
 10
268.7160175420557
 20
58.60018350961616
 30
0.0
 10
268.8329615044248
 20
58.58681144516866
 30
0.0
 10
268.9485633696895
 20
58.56543029535244
 30
0.0
 10
269.1003941412144
 20
58.52541870894785
 30
0.0
 10
269.2844844263739
 20
58.45486720059274
 30
0.0
 10
269.5584799958147
 20
58.29981972607479
 30
0.0
 10
269.8544917044763
 20
58.03257943618219
 30
0.0
 10
270.1006099930271
 20
57.62218270322045
 30
0.0
 10
270.2168094893502
 20
57.15725930627877
 30
0.0
 10
270.1923128277826
 20
56.67848842869035
 30
0.0
 10
270.0294101956217
 20
56.22798259837724
 30
0.0
 10
269.7427415891353
 20
55.84496106789045
 30
0.0
 10
269.3577989806014
 20
55.56235802429456
 30
0.0
 10
268.9084917213254
 20
55.40404167554884
 30
0.0
 10
268.4340064746927
 20
55.38260413221826
 30
0.0
 10
267.9744175073542
 20
55.4988220806128
 30
0.0
 10
267.5676171548292
 20
55.74250248110829
 30
0.0
 10
267.300704141454
 20
56.03670923769612
 30
0.0
 10
267.1447634498733
 20
56.31052297899453
 30
0.0
 10
267.0599251810573
 20
56.53174813878943
 30
0.0
 10
267.0055502760567
 20
56.76316080552646
 30
0.0
 10
266.9989076287352
 20
56.92107608687214
 30
0.0
 10
266.995587723811
 20
57.00000000000008
 30
0.0
  0
SPLINE
  5
AC
330
1F
100
AcDbEntity
  8
0
  6
Continuous
 62
     7
370
    25
100
AcDbSpline
210
0.0
220
0.0
230
1.0
 70
     8
 71
     3
 72
    20
 73
    16
 74
     0
 42
0.00000001
 43
0.00000001
 40
0.0
 40
0.0
 40
0.0
 40
0.0
 40
0.0417901763434591
 40
0.0835056355110268
 40
0.1253298638384915
 40
0.1877159050577325
 40
0.250195597464061
 40
0.3751953156896137
 40
0.5000166893528424
 40
0.6250660434838636
 40
0.7498484367886558
 40
0.8124766017066299
 40
0.8750644474287633
 40
0.9375765088206259
 40
1.0
 40
1.0
 40
1.0
 40
1.0
 10
266.995587723811
 20
57.00000000000008
 30
0.0
 10
266.9962546050336
 20
57.03526745457957
 30
0.0
 10
266.9975871751535
 20
57.10573930861801
 30
0.0
 10
267.0084348993136
 20
57.21103293474814
 30
0.0
 10
267.0285639400993
 20
57.33250320898587
 30
0.0
 10
267.0630090201705
 20
57.4689853687044
 30
0.0
 10
267.1344188237713
 20
57.66718047868066
 30
0.0
 10
267.2596405379701
 20
57.90000109095929
 30
0.0
 10
267.4610017712419
 20
58.14378816220367
 30
0.0
 10
267.7052307970567
 20
58.34316285528003
 30
0.0
 10
267.9371879830609
 20
58.46644016764573
 30
0.0
 10
268.1340286754591
 20
58.53669535293202
 30
0.0
 10
268.2863744219175
 20
58.57441130958544
 30
0.0
 10
268.4415504272056
 20
58.59824574557508
 30
0.0
 10
268.5460253765348
 20
58.60117467053749
 30
0.0
 10
268.5982258186322
 20
58.60263809482139
 30
0.0
  0
LINE
  5
AD
330
1F
100
AcDbEntity
  8
0
  6
HIDDEN
 62
     7
370
    18
100
AcDbLine
 10
273.0
 20
50.6688076148
 30
0.0
 11
173.0
 21
50.6688076148
 31
0.0
  0
LINE
  5
AE
330
1F
100
AcDbEntity
  8
0
  6
HIDDEN
 62
     7
370
    18
100
AcDbLine
 10
173.0
 20
63.3311923852
 30
0.0
 11
273.0
 21
63.3311923852
 31
0.0
  0
INSERT
  5
BA
330
1F
100
AcDbEntity
  8
10
100
AcDbBlockReference
  2
SW_CENTERMARKSYMBOL_0
 10
178.8504925086
 20
57.0
 30
0.0
  0
ENDSEC
  0
SECTION
  2
OBJECTS
  0
DICTIONARY
  5
C
330
0
100
AcDbDictionary
281
     1
  3
ACAD_GROUP
350
D
  3
ACAD_LAYOUT
350
1A
  3
ACAD_MLINESTYLE
350
17
  3
ACAD_PLOTSETTINGS
350
19
  3
ACAD_PLOTSTYLENAME
350
E
  3
ACAD_SCALELIST
350
47
  3
DWGPROPS
350
BB
  0
DICTIONARY
  5
D
102
{ACAD_REACTORS
330
C
102
}
330
C
100
AcDbDictionary
281
     1
  0
DICTIONARY
  5
1A
102
{ACAD_REACTORS
330
C
102
}
330
C
100
AcDbDictionary
281
     1
  3
Layout1
350
1E
  3
Layout2
350
26
  3
Model
350
22
  0
DICTIONARY
  5
17
102
{ACAD_REACTORS
330
C
102
}
330
C
100
AcDbDictionary
281
     1
  3
Standard
350
18
  0
DICTIONARY
  5
19
102
{ACAD_REACTORS
330
C
102
}
330
C
100
AcDbDictionary
281
     1
  0
ACDBDICTIONARYWDFLT
  5
E
102
{ACAD_REACTORS
330
C
102
}
330
C
100
AcDbDictionary
281
     1
  3
Normal
350
F
100
AcDbDictionaryWithDefault
340
F
  0
DICTIONARY
  5
47
102
{ACAD_REACTORS
330
C
102
}
330
C
100
AcDbDictionary
281
     1
  3
A0
350
48
  3
A1
350
49
  3
A2
350
4A
  3
A3
350
4B
  3
A4
350
4C
  3
A5
350
4D
  3
A6
350
4E
  3
A7
350
4F
  3
A8
350
50
  3
A9
350
51
  3
B0
350
52
  3
B1
350
53
  3
B2
350
54
  3
B3
350
55
  3
B4
350
56
  3
B5
350
57
  3
B6
350
58
  0
XRECORD
  5
BB
102
{ACAD_REACTORS
330
C
102
}
330
C
100
AcDbXrecord
280
     1
  1
DWGPROPS COOKIE
  2

  3

  4

  6

  7

  8

  9

300
=
301
=
302
=
303
=
304
=
305
=
306
=
307
=
308
=
309
=
 40
0.0
 41
2461214.170411412
 42
2461214.170411586
  1

 90
        0
  0
LAYOUT
  5
1E
102
{ACAD_REACTORS
330
1A
102
}
330
1A
100
AcDbPlotSettings
  1

  2
none_device
  4

  6

 40
0.0
 41
0.0
 42
0.0
 43
0.0
 44
0.0
 45
0.0
 46
0.0
 47
0.0
 48
0.0
 49
0.0
140
0.0
141
0.0
142
1.0
143
1.0
 70
   688
 72
     1
 73
     0
 74
     5
  7

 75
    16
147
1.0
148
0.0
149
0.0
100
AcDbLayout
  1
Layout1
 70
     1
 71
     1
 10
0.0
 20
0.0
 11
420.0
 21
297.0
 12
0.0
 22
0.0
 32
0.0
 14
1.0000000000E+20
 24
1.0000000000E+20
 34
1.0000000000E+20
 15
-1.0000000000E+20
 25
-1.0000000000E+20
 35
-1.0000000000E+20
146
0.0
 13
0.0
 23
0.0
 33
0.0
 16
1.0
 26
0.0
 36
0.0
 17
0.0
 27
1.0
 37
0.0
 76
     0
330
1B
  0
LAYOUT
  5
26
102
{ACAD_REACTORS
330
1A
102
}
330
1A
100
AcDbPlotSettings
  1

  2
none_device
  4

  6

 40
0.0
 41
0.0
 42
0.0
 43
0.0
 44
0.0
 45
0.0
 46
0.0
 47
0.0
 48
0.0
 49
0.0
140
0.0
141
0.0
142
1.0
143
1.0
 70
   688
 72
     1
 73
     0
 74
     5
  7

 75
    16
147
1.0
148
0.0
149
0.0
100
AcDbLayout
  1
Layout2
 70
     1
 71
     2
 10
0.0
 20
0.0
 11
0.0
 21
0.0
 12
0.0
 22
0.0
 32
0.0
 14
0.0
 24
0.0
 34
0.0
 15
0.0
 25
0.0
 35
0.0
146
0.0
 13
0.0
 23
0.0
 33
0.0
 16
1.0
 26
0.0
 36
0.0
 17
0.0
 27
1.0
 37
0.0
 76
     0
330
23
  0
LAYOUT
  5
22
102
{ACAD_REACTORS
330
1A
102
}
330
1A
100
AcDbPlotSettings
  1

  2
none_device
  4
Letter_(8.50_x_11.00_Inches)
  6

 40
6.35
 41
6.35
 42
6.35000508
 43
6.35000508
 44
215.9
 45
279.4
 46
0.0
 47
0.0
 48
0.0
 49
0.0
140
0.0
141
0.0
142
1.0
143
1.0
 70
  1712
 72
     1
 73
     0
 74
     0
  7

 75
     0
147
1.0
148
0.0
149
0.0
100
AcDbLayout
  1
Model
 70
     1
 71
     0
 10
0.0
 20
0.0
 11
297.0
 21
210.0
 12
0.0
 22
0.0
 32
0.0
 14
0.0
 24
0.0
 34
0.0
 15
297.0
 25
210.0
 35
0.0
146
0.0
 13
0.0
 23
0.0
 33
0.0
 16
1.0
 26
0.0
 36
0.0
 17
0.0
 27
1.0
 37
0.0
 76
     0
330
1F
331
29
  0
MLINESTYLE
  5
18
102
{ACAD_REACTORS
330
17
102
}
330
17
100
AcDbMlineStyle
  2
Standard
 70
     0
  3

 62
   256
 51
90.0
 52
90.0
 71
     2
 49
0.5
 62
   256
  6
BYLAYER
 49
-0.5
 62
   256
  6
BYLAYER
  0
ACDBPLACEHOLDER
  5
F
102
{ACAD_REACTORS
330
E
102
}
330
E
  0
SCALE
  5
48
102
{ACAD_REACTORS
330
47
102
}
330
47
100
AcDbScale
 70
     0
300
1:1
140
1.0
141
1.0
290
     1
  0
SCALE
  5
49
102
{ACAD_REACTORS
330
47
102
}
330
47
100
AcDbScale
 70
     0
300
1:2
140
1.0
141
2.0
290
     0
  0
SCALE
  5
4A
102
{ACAD_REACTORS
330
47
102
}
330
47
100
AcDbScale
 70
     0
300
1:4
140
1.0
141
4.0
290
     0
  0
SCALE
  5
4B
102
{ACAD_REACTORS
330
47
102
}
330
47
100
AcDbScale
 70
     0
300
1:5
140
1.0
141
5.0
290
     0
  0
SCALE
  5
4C
102
{ACAD_REACTORS
330
47
102
}
330
47
100
AcDbScale
 70
     0
300
1:8
140
1.0
141
8.0
290
     0
  0
SCALE
  5
4D
102
{ACAD_REACTORS
330
47
102
}
330
47
100
AcDbScale
 70
     0
300
1:10
140
1.0
141
10.0
290
     0
  0
SCALE
  5
4E
102
{ACAD_REACTORS
330
47
102
}
330
47
100
AcDbScale
 70
     0
300
1:16
140
1.0
141
16.0
290
     0
  0
SCALE
  5
4F
102
{ACAD_REACTORS
330
47
102
}
330
47
100
AcDbScale
 70
     0
300
1:20
140
1.0
141
20.0
290
     0
  0
SCALE
  5
50
102
{ACAD_REACTORS
330
47
102
}
330
47
100
AcDbScale
 70
     0
300
1:30
140
1.0
141
30.0
290
     0
  0
SCALE
  5
51
102
{ACAD_REACTORS
330
47
102
}
330
47
100
AcDbScale
 70
     0
300
1:40
140
1.0
141
40.0
290
     0
  0
SCALE
  5
52
102
{ACAD_REACTORS
330
47
102
}
330
47
100
AcDbScale
 70
     0
300
1:50
140
1.0
141
50.0
290
     0
  0
SCALE
  5
53
102
{ACAD_REACTORS
330
47
102
}
330
47
100
AcDbScale
 70
     0
300
1:100
140
1.0
141
100.0
290
     0
  0
SCALE
  5
54
102
{ACAD_REACTORS
330
47
102
}
330
47
100
AcDbScale
 70
     0
300
2:1
140
2.0
141
1.0
290
     0
  0
SCALE
  5
55
102
{ACAD_REACTORS
330
47
102
}
330
47
100
AcDbScale
 70
     0
300
4:1
140
4.0
141
1.0
290
     0
  0
SCALE
  5
56
102
{ACAD_REACTORS
330
47
102
}
330
47
100
AcDbScale
 70
     0
300
8:1
140
8.0
141
1.0
290
     0
  0
SCALE
  5
57
102
{ACAD_REACTORS
330
47
102
}
330
47
100
AcDbScale
 70
     0
300
10:1
140
10.0
141
1.0
290
     0
  0
SCALE
  5
58
102
{ACAD_REACTORS
330
47
102
}
330
47
100
AcDbScale
 70
     0
300
100:1
140
100.0
141
1.0
290
     0
  0
ENDSEC
  0
EOF
