  0
SECTION
  2
HEADER
  9
$ACADVER
  1
AC1015
  9
$ACADMAINTVER
 70
     6
  9
$DWGCODEPAGE
  3
ANSI_936
  9
$INSBASE
 10
0.0
 20
0.0
 30
0.0
  9
$EXTMIN
 10
0.0
 20
0.0
 30
0.0
  9
$EXTMAX
 10
297.0
 20
210.0
 30
0.0
  9
$LIMMIN
 10
0.0
 20
0.0
  9
$LIMMAX
 10
297.0
 20
210.0
  9
$ORTHOMODE
 70
     0
  9
$REGENMODE
 70
     1
  9
$FILLMODE
 70
     1
  9
$QTEXTMODE
 70
     0
  9
$MIRRTEXT
 70
     1
  9
$LTSCALE
 40
1.0
  9
$ATTMODE
 70
     1
  9
$TEXTSIZE
 40
3.5
  9
$TRACEWID
 40
1.0
  9
$TEXTSTYLE
  7
Standard
  9
$CLAYER
  8
0
  9
$CELTYPE
  6
ByLayer
  9
$CECOLOR
 62
   256
  9
$CELTSCALE
 40
1.0
  9
$DISPSILH
 70
     0
  9
$DIMSCALE
 40
1.0
  9
$DIMASZ
 40
4.08
  9
$DIMEXO
 40
0.0
  9
$DIMDLI
 40
3.75
  9
$DIMRND
 40
0.0
  9
$DIMDLE
 40
0.0
  9
$DIMEXE
 40
2.0
  9
$DIMTP
 40
0.0
  9
$DIMTM
 40
0.0
  9
$DIMTXT
 40
3.5
  9
$DIMCEN
 40
2.5
  9
$DIMTSZ
 40
0.0
  9
$DIMTOL
 70
     0
  9
$DIMLIM
 70
     0
  9
$DIMTIH
 70
     1
  9
$DIMTOH
 70
     1
  9
$DIMSE1
 70
     0
  9
$DIMSE2
 70
     0
  9
$DIMTAD
 70
     1
  9
$DIMZIN
 70
     0
  9
$DIMBLK
  1

  9
$DIMASO
 70
     1
  9
$DIMSHO
 70
     1
  9
$DIMPOST
  1

  9
$DIMAPOST
  1

  9
$DIMALT
 70
     0
  9
$DIMALTD
 70
     3
  9
$DIMALTF
 40
0.0393700787
  9
$DIMLFAC
 40
2.0
  9
$DIMTOFL
 70
     1
  9
$DIMTVP
 40
0.0
  9
$DIMTIX
 70
     0
  9
$DIMSOXD
 70
     0
  9
$DIMSAH
 70
     0
  9
$DIMBLK1
  1

  9
$DIMBLK2
  1

  9
$DIMSTYLE
  2
ISO-25
  9
$DIMCLRD
 70
     0
  9
$DIMCLRE
 70
     0
  9
$DIMCLRT
 70
     0
  9
$DIMTFAC
 40
1.0
  9
$DIMGAP
 40
1.524
  9
$DIMJUST
 70
     0
  9
$DIMSD1
 70
     0
  9
$DIMSD2
 70
     0
  9
$DIMTOLJ
 70
     0
  9
$DIMTZIN
 70
     0
  9
$DIMALTZ
 70
     0
  9
$DIMALTTZ
 70
     0
  9
$DIMUPT
 70
     0
  9
$DIMDEC
 70
     2
  9
$DIMTDEC
 70
     2
  9
$DIMALTU
 70
     2
  9
$DIMALTTD
 70
     3
  9
$DIMTXSTY
  7
Standard
  9
$DIMAUNIT
 70
     0
  9
$DIMADEC
 70
     2
  9
$DIMALTRND
 40
0.0
  9
$DIMAZIN
 70
     0
  9
$DIMDSEP
 70
    44
  9
$DIMATFIT
 70
     3
  9
$DIMFRAC
 70
     0
  9
$DIMLDRBLK
  1

  9
$DIMLUNIT
 70
     2
  9
$DIMLWD
 70
    -2
  9
$DIMLWE
 70
    -2
  9
$DIMTMOVE
 70
     0
  9
$LUNITS
 70
     2
  9
$LUPREC
 70
     2
  9
$SKETCHINC
 40
1.0
  9
$FILLETRAD
 40
0.0
  9
$AUNITS
 70
     0
  9
$AUPREC
 70
     2
  9
$MENU
  1
.
  9
$ELEVATION
 40
0.0
  9
$PELEVATION
 40
0.0
  9
$THICKNESS
 40
0.0
  9
$LIMCHECK
 70
     0
  9
$CHAMFERA
 40
0.0
  9
$CHAMFERB
 40
0.0
  9
$CHAMFERC
 40
0.0
  9
$CHAMFERD
 40
0.0
  9
$SKPOLY
 70
     0
  9
$TDCREATE
 40
2461215.728774584
  9
$TDUCREATE
 40
2461215.39544125
  9
$TDUPDATE
 40
2461215.728774885
  9
$TDUUPDATE
 40
2461215.395441551
  9
$TDINDWG
 40
0.0000000116
  9
$TDUSRTIMER
 40
0.0000000116
  9
$USRTIMER
 70
     1
  9
$ANGBASE
 50
0.0
  9
$ANGDIR
 70
     0
  9
$PDMODE
 70
     0
  9
$PDSIZE
 40
-1.0
  9
$PLINEWID
 40
0.0
  9
$SPLFRAME
 70
     0
  9
$SPLINETYPE
 70
     6
  9
$SPLINESEGS
 70
     8
  9
$HANDSEED
  5
130
  9
$SURFTAB1
 70
     6
  9
$SURFTAB2
 70
     6
  9
$SURFTYPE
 70
     6
  9
$SURFU
 70
     6
  9
$SURFV
 70
     6
  9
$UCSBASE
  2

  9
$UCSNAME
  2

  9
$UCSORG
 10
0.0
 20
0.0
 30
0.0
  9
$UCSXDIR
 10
1.0
 20
0.0
 30
0.0
  9
$UCSYDIR
 10
0.0
 20
1.0
 30
0.0
  9
$UCSORTHOREF
  2

  9
$UCSORTHOVIEW
 70
     0
  9
$UCSORGTOP
 10
0.0
 20
0.0
 30
0.0
  9
$UCSORGBOTTOM
 10
0.0
 20
0.0
 30
0.0
  9
$UCSORGLEFT
 10
0.0
 20
0.0
 30
0.0
  9
$UCSORGRIGHT
 10
0.0
 20
0.0
 30
0.0
  9
$UCSORGFRONT
 10
0.0
 20
0.0
 30
0.0
  9
$UCSORGBACK
 10
0.0
 20
0.0
 30
0.0
  9
$PUCSBASE
  2

  9
$PUCSNAME
  2

  9
$PUCSORG
 10
0.0
 20
0.0
 30
0.0
  9
$PUCSXDIR
 10
1.0
 20
0.0
 30
0.0
  9
$PUCSYDIR
 10
0.0
 20
1.0
 30
0.0
  9
$PUCSORTHOREF
  2

  9
$PUCSORTHOVIEW
 70
     0
  9
$PUCSORGTOP
 10
0.0
 20
0.0
 30
0.0
  9
$PUCSORGBOTTOM
 10
0.0
 20
0.0
 30
0.0
  9
$PUCSORGLEFT
 10
0.0
 20
0.0
 30
0.0
  9
$PUCSORGRIGHT
 10
0.0
 20
0.0
 30
0.0
  9
$PUCSORGFRONT
 10
0.0
 20
0.0
 30
0.0
  9
$PUCSORGBACK
 10
0.0
 20
0.0
 30
0.0
  9
$USERI1
 70
     0
  9
$USERI2
 70
     0
  9
$USERI3
 70
     0
  9
$USERI4
 70
     0
  9
$USERI5
 70
     0
  9
$USERR1
 40
0.0
  9
$USERR2
 40
0.0
  9
$USERR3
 40
0.0
  9
$USERR4
 40
0.0
  9
$USERR5
 40
0.0
  9
$WORLDVIEW
 70
     1
  9
$SHADEDGE
 70
     3
  9
$SHADEDIF
 70
    70
  9
$TILEMODE
 70
     1
  9
$MAXACTVP
 70
    64
  9
$PINSBASE
 10
0.0
 20
0.0
 30
0.0
  9
$PLIMCHECK
 70
     0
  9
$PEXTMIN
 10
1.0000000000E+20
 20
1.0000000000E+20
 30
1.0000000000E+20
  9
$PEXTMAX
 10
-1.0000000000E+20
 20
-1.0000000000E+20
 30
-1.0000000000E+20
  9
$PLIMMIN
 10
0.0
 20
0.0
  9
$PLIMMAX
 10
420.0
 20
297.0
  9
$UNITMODE
 70
     0
  9
$VISRETAIN
 70
     1
  9
$PLINEGEN
 70
     0
  9
$PSLTSCALE
 70
     1
  9
$TREEDEPTH
 70
  3020
  9
$CMLSTYLE
  2
Standard
  9
$CMLJUST
 70
     0
  9
$CMLSCALE
 40
20.0
  9
$PROXYGRAPHICS
 70
     1
  9
$MEASUREMENT
 70
     1
  9
$CELWEIGHT
370
    -1
  9
$ENDCAPS
280
     0
  9
$JOINSTYLE
280
     0
  9
$LWDISPLAY
290
     1
  9
$INSUNITS
 70
     4
  9
$HYPERLINKBASE
  1

  9
$STYLESHEET
  1

  9
$XEDIT
290
     1
  9
$CEPSNTYPE
380
     0
  9
$PSTYLEMODE
290
     1
  9
$FINGERPRINTGUID
  2
{3ec9a680-244e-49ce-ab52-d2ac64a927da}
  9
$VERSIONGUID
  2
{FAEB1C32-E019-11D5-929B-00C0DF256EC4}
  9
$EXTNAMES
290
     1
  9
$PSVPSCALE
 40
0.0
  9
$OLESTARTUP
290
     0
  0
ENDSEC
  0
SECTION
  2
CLASSES
  0
CLASS
  1
ACDBDICTIONARYWDFLT
  2
AcDbDictionaryWithDefault
  3
ObjectDBX Classes
 90
        0
280
     0
281
     0
  0
CLASS
  1
VISUALSTYLE
  2
AcDbVisualStyle
  3
ObjectDBX Classes
 90
     4095
280
     0
281
     0
  0
CLASS
  1
MATERIAL
  2
AcDbMaterial
  3
ObjectDBX Classes
 90
     1153
280
     0
281
     0
  0
CLASS
  1
SCALE
  2
AcDbScale
  3
ObjectDBX Classes
 90
     1153
280
     0
281
     0
  0
CLASS
  1
TABLESTYLE
  2
AcDbTableStyle
  3
ObjectDBX Classes
 90
     4095
280
     0
281
     0
  0
CLASS
  1
MLEADERSTYLE
  2
AcDbMLeaderStyle
  3
ACDB_MLEADERSTYLE_CLASS
 90
     4095
280
     0
281
     0
  0
CLASS
  1
SUN
  2
AcDbSun
  3
SCENEOE
 90
     1153
280
     0
281
     0
  0
CLASS
  1
ACDBPLACEHOLDER
  2
AcDbPlaceHolder
  3
ObjectDBX Classes
 90
        0
280
     0
281
     0
  0
CLASS
  1
LAYOUT
  2
AcDbLayout
  3
ObjectDBX Classes
 90
        0
280
     0
281
     0
  0
ENDSEC
  0
SECTION
  2
TABLES
  0
TABLE
  2
VPORT
  5
8
330
0
100
AcDbSymbolTable
 70
     1
  0
VPORT
  5
29
330
8
100
AcDbSymbolTableRecord
100
AcDbViewportTableRecord
  2
*Active
 70
     0
 10
0.0
 20
0.0
 11
1.0
 21
1.0
 12
148.5
 22
105.0
 13
0.0
 23
0.0
 14
10.0
 24
10.0
 15
10.0
 25
10.0
 16
0.0
 26
0.0
 36
1.0
 17
0.0
 27
0.0
 37
0.0
 40
210.0
 41
1.4142857143
 42
50.0
 43
0.0
 44
0.0
 50
0.0
 51
0.0
 71
     0
 72
  2000
 73
     1
 74
     3
 75
     0
 76
     0
 77
     0
 78
     0
281
     0
 65
     1
110
0.0
120
0.0
130
0.0
111
1.0
121
0.0
131
0.0
112
0.0
122
1.0
132
0.0
 79
     0
146
0.0
  0
ENDTAB
  0
TABLE
  2
LTYPE
  5
5
330
0
100
AcDbSymbolTable
 70
     6
  0
LTYPE
  5
14
330
5
100
AcDbSymbolTableRecord
100
AcDbLinetypeTableRecord
  2
ByBlock
 70
     0
  3

 72
    65
 73
     0
 40
0.0
  0
LTYPE
  5
15
330
5
100
AcDbSymbolTableRecord
100
AcDbLinetypeTableRecord
  2
ByLayer
 70
     0
  3

 72
    65
 73
     0
 40
0.0
  0
LTYPE
  5
16
330
5
100
AcDbSymbolTableRecord
100
AcDbLinetypeTableRecord
  2
Continuous
 70
     0
  3
Solid line
 72
    65
 73
     0
 40
0.0
  0
LTYPE
  5
5E
330
5
100
AcDbSymbolTableRecord
100
AcDbLinetypeTableRecord
  2
HIDDEN
 70
     0
  3
Hidden __ __ __ __ __ __ __ __ __ __ __ __ __ __
 72
    65
 73
     2
 40
1.905
 49
1.27
 74
     0
 49
-0.635
 74
     0
  0
LTYPE
  5
5F
330
5
100
AcDbSymbolTableRecord
100
AcDbLinetypeTableRecord
  2
PHANTOM
 70
     0
  3
Phantom ______  __  __  ______  __  __  ______
 72
    65
 73
     6
 40
12.7
 49
6.35
 74
     0
 49
-1.27
 74
     0
 49
1.27
 74
     0
 49
-1.27
 74
     0
 49
1.27
 74
     0
 49
-1.27
 74
     0
  0
LTYPE
  5
60
330
5
100
AcDbSymbolTableRecord
100
AcDbLinetypeTableRecord
  2
CENTER
 70
     0
  3
Center ____ _ ____ _ ____ _ ____ _ ____ _ ____
 72
    65
 73
     4
 40
10.16
 49
6.35
 74
     0
 49
-1.27
 74
     0
 49
1.27
 74
     0
 49
-1.27
 74
     0
  0
LTYPE
  5
61
330
5
100
AcDbSymbolTableRecord
100
AcDbLinetypeTableRecord
  2
CENTERX2
 70
     0
  3
Center (2x) ________  __  ________  __  _____
 72
    65
 73
     4
 40
20.32
 49
12.7
 74
     0
 49
-2.54
 74
     0
 49
2.54
 74
     0
 49
-2.54
 74
     0
  0
LTYPE
  5
62
330
5
100
AcDbSymbolTableRecord
100
AcDbLinetypeTableRecord
  2
DOT2
 70
     0
  3
Dot (.5x) ........................................
 72
    65
 73
     2
 40
0.635
 49
0.0
 74
     0
 49
-0.635
 74
     0
  0
ENDTAB
  0
TABLE
  2
LAYER
  5
2
330
0
100
AcDbSymbolTable
 70
    14
  0
LAYER
  5
10
330
2
100
AcDbSymbolTableRecord
100
AcDbLayerTableRecord
  2
0
 70
     0
 62
     7
  6
Continuous
370
    -3
390
F
  0
LAYER
  5
63
330
2
100
AcDbSymbolTableRecord
100
AcDbLayerTableRecord
  2
SLD-0
 70
     0
 62
     7
  6
Continuous
370
    -3
390
F
  0
LAYER
  5
64
330
2
100
AcDbSymbolTableRecord
100
AcDbLayerTableRecord
  2
5
 70
     0
 62
     7
  6
Continuous
370
    -3
390
F
  0
LAYER
  5
65
330
2
100
AcDbSymbolTableRecord
100
AcDbLayerTableRecord
  2
9
 70
     0
 62
     7
  6
Continuous
370
    -3
390
F
  0
LAYER
  5
66
330
2
100
AcDbSymbolTableRecord
100
AcDbLayerTableRecord
  2
10
 70
     0
 62
     7
  6
Continuous
370
    -3
390
F
  0
LAYER
  5
67
330
2
100
AcDbSymbolTableRecord
100
AcDbLayerTableRecord
  2
轮廓实线层
 70
     0
 62
     7
  6
Continuous
370
    50
390
F
  0
LAYER
  5
68
330
2
100
AcDbSymbolTableRecord
100
AcDbLayerTableRecord
  2
细线层
 70
     0
 62
     4
  6
Continuous
370
    25
390
F
  0
LAYER
  5
69
330
2
100
AcDbSymbolTableRecord
100
AcDbLayerTableRecord
  2
中心线层
 70
     0
 62
     1
  6
CENTERX2
370
    25
390
F
  0
LAYER
  5
6A
330
2
100
AcDbSymbolTableRecord
100
AcDbLayerTableRecord
  2
虚线层
 70
     0
 62
     6
  6
HIDDEN
370
    25
390
F
  0
LAYER
  5
6B
330
2
100
AcDbSymbolTableRecord
100
AcDbLayerTableRecord
  2
剖面线层
 70
     0
 62
     2
  6
Continuous
370
    25
390
F
  0
LAYER
  5
6C
330
2
100
AcDbSymbolTableRecord
100
AcDbLayerTableRecord
  2
文字层
 70
     0
 62
     3
  6
Continuous
370
    25
390
F
  0
LAYER
  5
6D
330
2
100
AcDbSymbolTableRecord
100
AcDbLayerTableRecord
  2
标注层
 70
     0
 62
     4
  6
Continuous
370
    25
390
F
  0
LAYER
  5
6E
330
2
100
AcDbSymbolTableRecord
100
AcDbLayerTableRecord
  2
符号标注层
 70
     0
 62
    31
  6
Continuous
370
    25
390
F
  0
LAYER
  5
6F
330
2
100
AcDbSymbolTableRecord
100
AcDbLayerTableRecord
  2
双点划线层
 70
     0
 62
     6
  6
PHANTOM
370
    25
390
F
  0
ENDTAB
  0
TABLE
  2
STYLE
  5
3
330
0
100
AcDbSymbolTable
 70
     1
  0
STYLE
  5
11
330
3
100
AcDbSymbolTableRecord
100
AcDbTextStyleTableRecord
  2
Standard
 70
     0
 40
0.0
 41
1.0
 50
0.0
 71
     0
 42
3.5
  3
txt
  4

  0
ENDTAB
  0
TABLE
  2
VIEW
  5
6
330
0
100
AcDbSymbolTable
 70
     0
  0
ENDTAB
  0
TABLE
  2
UCS
  5
7
330
0
100
AcDbSymbolTable
 70
     0
  0
ENDTAB
  0
TABLE
  2
APPID
  5
9
330
0
100
AcDbSymbolTable
 70
     1
  0
APPID
  5
12
330
9
100
AcDbSymbolTableRecord
100
AcDbRegAppTableRecord
  2
ACAD
 70
     0
  0
ENDTAB
  0
TABLE
  2
DIMSTYLE
  5
A
330
0
100
AcDbSymbolTable
 70
     1
100
AcDbDimStyleTable
  0
DIMSTYLE
105
27
330
A
100
AcDbSymbolTableRecord
100
AcDbDimStyleTableRecord
  2
ISO-25
 70
     0
 41
2.5
 42
0.625
 43
3.75
 44
1.25
 73
     0
 74
     0
 77
     1
 78
     8
140
2.5
141
2.5
143
0.0393700787
147
0.625
171
     3
172
     1
178
     0
271
     2
272
     2
274
     3
278
    44
283
     0
284
     8
340
11
  0
ENDTAB
  0
TABLE
  2
BLOCK_RECORD
  5
1
330
0
100
AcDbSymbolTable
 70
     3
  0
BLOCK_RECORD
  5
1F
330
1
100
AcDbSymbolTableRecord
100
AcDbBlockTableRecord
  2
*Model_Space
340
22
  0
BLOCK_RECORD
  5
1B
330
1
100
AcDbSymbolTableRecord
100
AcDbBlockTableRecord
  2
*Paper_Space
340
1E
  0
BLOCK_RECORD
  5
23
330
1
100
AcDbSymbolTableRecord
100
AcDbBlockTableRecord
  2
*Paper_Space0
340
26
  0
BLOCK_RECORD
  5
A8
330
1
100
AcDbSymbolTableRecord
100
AcDbBlockTableRecord
  2
SW_CENTERMARKSYMBOL_0
340
0
102
{BLKREFS
331
B3
102
}
  0
BLOCK_RECORD
  5
B4
330
1
100
AcDbSymbolTableRecord
100
AcDbBlockTableRecord
  2
SW_CENTERMARKSYMBOL_1
340
0
102
{BLKREFS
331
BF
102
}
  0
ENDTAB
  0
ENDSEC
  0
SECTION
  2
BLOCKS
  0
BLOCK
  5
20
330
1F
100
AcDbEntity
  8
0
100
AcDbBlockBegin
  2
*Model_Space
 70
     0
 10
0.0
 20
0.0
 30
0.0
  3
*Model_Space
  1

  0
ENDBLK
  5
21
330
1F
100
AcDbEntity
  8
0
100
AcDbBlockEnd
  0
BLOCK
  5
1C
330
1B
100
AcDbEntity
 67
     1
  8
0
100
AcDbBlockBegin
  2
*Paper_Space
 70
     0
 10
0.0
 20
0.0
 30
0.0
  3
*Paper_Space
  1

  0
ENDBLK
  5
1D
330
1B
100
AcDbEntity
 67
     1
  8
0
100
AcDbBlockEnd
  0
BLOCK
  5
24
330
23
100
AcDbEntity
  8
0
100
AcDbBlockBegin
  2
*Paper_Space0
 70
     0
 10
0.0
 20
0.0
 30
0.0
  3
*Paper_Space0
  1

  0
ENDBLK
  5
25
330
23
100
AcDbEntity
  8
0
100
AcDbBlockEnd
  0
BLOCK
  5
A9
330
A8
100
AcDbEntity
  8
0
100
AcDbBlockBegin
  2
SW_CENTERMARKSYMBOL_0
 70
     0
 10
0.0
 20
0.0
 30
0.0
  3
SW_CENTERMARKSYMBOL_0
  1

  0
LINE
  5
AB
330
A8
100
AcDbEntity
  8
10
 62
     0
100
AcDbLine
 10
0.0
 20
0.0
 30
0.0
 11
0.0
 21
2.5
 31
0.0
  0
LINE
  5
AC
330
A8
100
AcDbEntity
  8
10
 62
     0
100
AcDbLine
 10
0.0
 20
0.0
 30
0.0
 11
-2.5
 21
0.0
 31
0.0
  0
LINE
  5
AD
330
A8
100
AcDbEntity
  8
10
 62
     0
100
AcDbLine
 10
0.0
 20
0.0
 30
0.0
 11
0.0
 21
-2.5
 31
0.0
  0
LINE
  5
AE
330
A8
100
AcDbEntity
  8
10
 62
     0
100
AcDbLine
 10
0.0
 20
0.0
 30
0.0
 11
2.5
 21
0.0
 31
0.0
  0
LINE
  5
AF
330
A8
100
AcDbEntity
  8
10
 62
     0
100
AcDbLine
 10
0.0
 20
5.0
 30
0.0
 11
0.0
 21
7.3125
 31
0.0
  0
LINE
  5
B0
330
A8
100
AcDbEntity
  8
10
 62
     0
100
AcDbLine
 10
-5.0
 20
0.0
 30
0.0
 11
-7.3125
 21
0.0
 31
0.0
  0
LINE
  5
B1
330
A8
100
AcDbEntity
  8
10
 62
     0
100
AcDbLine
 10
0.0
 20
-5.0
 30
0.0
 11
0.0
 21
-7.3125
 31
0.0
  0
LINE
  5
B2
330
A8
100
AcDbEntity
  8
10
 62
     0
100
AcDbLine
 10
5.0
 20
0.0
 30
0.0
 11
7.3125
 21
0.0
 31
0.0
  0
ENDBLK
  5
AA
330
A8
100
AcDbEntity
  8
0
100
AcDbBlockEnd
  0
BLOCK
  5
B5
330
B4
100
AcDbEntity
  8
0
100
AcDbBlockBegin
  2
SW_CENTERMARKSYMBOL_1
 70
     0
 10
0.0
 20
0.0
 30
0.0
  3
SW_CENTERMARKSYMBOL_1
  1

  0
LINE
  5
B7
330
B4
100
AcDbEntity
  8
10
 62
     0
100
AcDbLine
 10
0.0
 20
0.0
 30
0.0
 11
0.0
 21
2.5
 31
0.0
  0
LINE
  5
B8
330
B4
100
AcDbEntity
  8
10
 62
     0
100
AcDbLine
 10
0.0
 20
0.0
 30
0.0
 11
-2.5
 21
0.0
 31
0.0
  0
LINE
  5
B9
330
B4
100
AcDbEntity
  8
10
 62
     0
100
AcDbLine
 10
0.0
 20
0.0
 30
0.0
 11
0.0
 21
-2.5
 31
0.0
  0
LINE
  5
BA
330
B4
100
AcDbEntity
  8
10
 62
     0
100
AcDbLine
 10
0.0
 20
0.0
 30
0.0
 11
2.5
 21
0.0
 31
0.0
  0
LINE
  5
BB
330
B4
100
AcDbEntity
  8
10
 62
     0
100
AcDbLine
 10
0.0
 20
5.0
 30
0.0
 11
0.0
 21
7.3125
 31
0.0
  0
LINE
  5
BC
330
B4
100
AcDbEntity
  8
10
 62
     0
100
AcDbLine
 10
-5.0
 20
0.0
 30
0.0
 11
-7.3125
 21
0.0
 31
0.0
  0
LINE
  5
BD
330
B4
100
AcDbEntity
  8
10
 62
     0
100
AcDbLine
 10
0.0
 20
-5.0
 30
0.0
 11
0.0
 21
-7.3125
 31
0.0
  0
LINE
  5
BE
330
B4
100
AcDbEntity
  8
10
 62
     0
100
AcDbLine
 10
5.0
 20
0.0
 30
0.0
 11
7.3125
 21
0.0
 31
0.0
  0
ENDBLK
  5
B6
330
B4
100
AcDbEntity
  8
0
100
AcDbBlockEnd
  0
ENDSEC
  0
SECTION
  2
ENTITIES
  0
LINE
  5
70
330
1F
100
AcDbEntity
  8
0
  6
Continuous
 62
     7
370
    25
100
AcDbLine
 10
34.25
 20
97.0
 30
0.0
 11
33.0
 21
95.75
 31
0.0
  0
LINE
  5
71
330
1F
100
AcDbEntity
  8
0
  6
Continuous
 62
     7
370
    25
100
AcDbLine
 10
33.0
 20
18.25
 30
0.0
 11
34.25
 21
17.0
 31
0.0
  0
LINE
  5
72
330
1F
100
AcDbEntity
  8
0
  6
Continuous
 62
     7
370
    25
100
AcDbLine
 10
33.0
 20
95.75
 30
0.0
 11
33.0
 21
18.25
 31
0.0
  0
SPLINE
  5
73
330
1F
100
AcDbEntity
  8
0
  6
Continuous
 62
     7
370
    25
100
AcDbSpline
210
0.0
220
0.0
230
1.0
 70
     8
 71
     3
 72
    26
 73
    22
 74
     0
 42
0.00000001
 43
0.00000001
 40
0.0
 40
0.0
 40
0.0
 40
0.0
 40
0.1249999999999998
 40
0.1249999999999998
 40
0.2499999999999997
 40
0.2499999999999997
 40
0.3124999999999998
 40
0.3124999999999998
 40
0.3749999999999999
 40
0.3749999999999999
 40
0.5000000000000001
 40
0.5000000000000001
 40
0.7500000000000004
 40
0.7500000000000004
 40
0.8750000000000003
 40
0.8750000000000003
 40
0.9375000000000001
 40
0.9375000000000001
 40
0.96875
 40
0.96875
 40
1.0
 40
1.0
 40
1.0
 40
1.0
 10
71.61860290651548
 20
25.38605548998584
 30
0.0
 10
72.18494875685882
 20
26.0100594923478
 30
0.0
 10
72.74197180962945
 20
26.64609046841508
 30
0.0
 10
73.83498495399681
 20
27.94243865760376
 30
0.0
 10
74.37100172159698
 20
28.60274865096801
 30
0.0
 10
75.15784463286488
 20
29.61184099269294
 30
0.0
 10
75.41726298579276
 20
29.9513129134539
 30
0.0
 10
75.93012789082428
 20
30.63658781453229
 30
0.0
 10
76.18418703279765
 20
30.98326096956998
 30
0.0
 10
76.93085514625979
 20
32.02432215646687
 30
0.0
 10
77.40884459080009
 20
32.72072117562643
 30
0.0
 10
78.78562674172768
 20
34.81967399514416
 30
0.0
 10
79.62776457276756
 20
36.23193860398396
 30
0.0
 10
80.77519650498864
 20
38.37920924654284
 30
0.0
 10
81.13890143710553
 20
39.10119715866426
 30
0.0
 10
81.65138338780716
 20
40.18771377107619
 30
0.0
 10
81.81646898893334
 20
40.54995956374265
 30
0.0
 10
82.05537841351243
 20
41.09360411722089
 30
0.0
 10
82.13356102342578
 20
41.27486492090431
 30
0.0
 10
82.28699217678735
 20
41.63750598221909
 30
0.0
 10
82.3627656733029
 20
41.82018207483725
 30
0.0
 10
82.43586784711671
 20
41.99999999999999
 30
0.0
  0
SPLINE
  5
74
330
1F
100
AcDbEntity
  8
0
  6
Continuous
 62
     7
370
    25
100
AcDbSpline
210
0.0
220
0.0
230
1.0
 70
     8
 71
     3
 72
    26
 73
    22
 74
     0
 42
0.00000001
 43
0.00000001
 40
0.0
 40
0.0
 40
0.0
 40
0.0
 40
0.1249999999999998
 40
0.1249999999999998
 40
0.2499999999999995
 40
0.2499999999999995
 40
0.3124999999999994
 40
0.3124999999999994
 40
0.3749999999999992
 40
0.3749999999999992
 40
0.499999999999999
 40
0.499999999999999
 40
0.7499999999999989
 40
0.7499999999999989
 40
0.8749999999999991
 40
0.8749999999999991
 40
0.9374999999999992
 40
0.9374999999999992
 40
0.9687499999999997
 40
0.9687499999999997
 40
1.0
 40
1.0
 40
1.0
 40
1.0
 10
71.61860290651556
 20
88.6139445100141
 30
0.0
 10
72.18494875685889
 20
87.98994050765212
 30
0.0
 10
72.74197180962952
 20
87.35390953158483
 30
0.0
 10
73.83498495399688
 20
86.05756134239616
 30
0.0
 10
74.37100172159704
 20
85.3972513490319
 30
0.0
 10
75.15784463286494
 20
84.38815900730698
 30
0.0
 10
75.41726298579282
 20
84.04868708654602
 30
0.0
 10
75.93012789082434
 20
83.36341218546764
 30
0.0
 10
76.1841870327977
 20
83.01673903042996
 30
0.0
 10
76.93085514625984
 20
81.97567784353308
 30
0.0
 10
77.40884459080011
 20
81.27927882437349
 30
0.0
 10
78.78562674172771
 20
79.18032600485579
 30
0.0
 10
79.62776457276757
 20
77.76806139601598
 30
0.0
 10
80.77519650498866
 20
75.62079075345713
 30
0.0
 10
81.13890143710556
 20
74.89880284133574
 30
0.0
 10
81.65138338780719
 20
73.81228622892381
 30
0.0
 10
81.81646898893335
 20
73.45004043625735
 30
0.0
 10
82.05537841351247
 20
72.90639588277912
 30
0.0
 10
82.1335610234258
 20
72.7251350790957
 30
0.0
 10
82.28699217678736
 20
72.36249401778092
 30
0.0
 10
82.3627656732989
 20
72.1798179251588
 30
0.0
 10
82.43586784711671
 20
72.0
 30
0.0
  0
ARC
  5
75
330
1F
100
AcDbEntity
  8
0
  6
Continuous
 62
     7
370
    25
100
AcDbCircle
 10
52.8518724861
 20
41.7251939547
 30
0.0
 40
30.14937994316981
100
AcDbArc
 50
329.6305011336
 51
0.5222477091
  0
SPLINE
  5
76
330
1F
100
AcDbEntity
  8
0
  6
Continuous
 62
     7
370
    25
100
AcDbSpline
210
0.0
220
0.0
230
1.0
 70
     8
 71
     3
 72
    14
 73
    10
 74
     0
 42
0.00000001
 43
0.00000001
 40
0.0
 40
0.0
 40
0.0
 40
0.0
 40
0.4999999999999987
 40
0.4999999999999987
 40
0.6249999999999984
 40
0.6249999999999984
 40
0.7499999999999982
 40
0.7499999999999982
 40
1.0
 40
1.0
 40
1.0
 40
1.0
 10
73.0
 20
20.86361606174655
 30
0.0
 10
74.26242959100857
 20
21.56486853652284
 30
0.0
 10
75.37531519211508
 20
22.38521687081214
 30
0.0
 10
76.6040245079522
 20
23.57082848501743
 30
0.0
 10
76.84212168653359
 20
23.81668172172247
 30
0.0
 10
77.29709632786886
 20
24.31892301263205
 30
0.0
 10
77.51455701364114
 20
24.57578723609567
 30
0.0
 10
78.13896228901038
 20
25.36352356792623
 30
0.0
 10
78.51800538693543
 20
25.91151127772801
 30
0.0
 10
78.86424290024553
 20
26.48243513637489
 30
0.0
  0
ELLIPSE
  5
77
330
1F
100
AcDbEntity
  8
0
  6
Continuous
 62
     7
370
    25
100
AcDbEllipse
 10
57.8176295167
 20
42.0
 30
0.0
 11
28.4289510650723
 21
7.105427357601002E-15
 31
0.0
210
0.0
220
0.0
230
1.0
 40
0.8793852416
 41
5.029949409676223
 42
5.275768058867262
  0
ELLIPSE
  5
78
330
1F
100
AcDbEntity
  8
0
  6
Continuous
 62
     7
370
    25
100
AcDbEllipse
 10
75.4455254922
 20
42.0
 30
0.0
 11
32.59938221613002
 21
18.96504833107414
 31
0.0
210
0.0
220
0.0
230
1.0
 40
0.4996677339
 41
3.851224294785859
 42
4.168784724077375
  0
LINE
  5
79
330
1F
100
AcDbEntity
  8
0
  6
Continuous
 62
     7
370
    25
100
AcDbLine
 10
51.3231415258
 20
17.0
 30
0.0
 11
56.889845518
 21
17.0
 31
0.0
  0
ELLIPSE
  5
7A
330
1F
100
AcDbEntity
  8
0
  6
Continuous
 62
     7
370
    25
100
AcDbEllipse
 10
32.7674615516
 20
42.0
 30
0.0
 11
32.59938221613002
 21
-18.9650483310741
 31
0.0
210
0.0
220
0.0
230
1.0
 40
0.4996677339
 41
5.573553665983558
 42
5.891114095275083
  0
ELLIPSE
  5
7B
330
1F
100
AcDbEntity
  8
0
  6
Continuous
 62
     7
370
    25
100
AcDbEllipse
 10
50.395357527
 20
42.0
 30
0.0
 11
28.42895106507231
 21
0.0
 31
0.0
210
0.0
220
0.0
230
1.0
 40
0.8793852416
 41
5.029949409676222
 42
5.536649941044392
  0
SPLINE
  5
7C
330
1F
100
AcDbEntity
  8
0
  6
Continuous
 62
     7
370
    25
100
AcDbSpline
210
0.0
220
0.0
230
1.0
 70
     8
 71
     3
 72
     8
 73
     4
 74
     0
 42
0.00000001
 43
0.00000001
 40
0.0
 40
0.0
 40
0.0
 40
0.0
 40
1.0
 40
1.0
 40
1.0
 40
1.0
 10
71.61860290651545
 20
25.38605548998585
 30
0.0
 10
71.50502708969026
 20
25.2609168238731
 30
0.0
 10
71.38617730161751
 20
25.13910098815095
 30
0.0
 10
71.26351822333069
 20
25.02250900059955
 30
0.0
  0
SPLINE
  5
7D
330
1F
100
AcDbEntity
  8
0
  6
Continuous
 62
     7
370
    25
100
AcDbSpline
210
0.0
220
0.0
230
1.0
 70
     8
 71
     3
 72
     8
 73
     4
 74
     0
 42
0.00000001
 43
0.00000001
 40
0.0
 40
0.0
 40
0.0
 40
0.0
 40
1.0
 40
1.0
 40
1.0
 40
1.0
 10
71.26351822333069
 20
88.9774909994005
 30
0.0
 10
71.38617730161751
 20
88.86089901184901
 30
0.0
 10
71.50502708969026
 20
88.73908317612697
 30
0.0
 10
71.61860290651545
 20
88.61394451001398
 30
0.0
  0
ELLIPSE
  5
7E
330
1F
100
AcDbEntity
  8
0
  6
Continuous
 62
     7
370
    25
100
AcDbEllipse
 10
50.395357527
 20
72.0
 30
0.0
 11
28.42895106507231
 21
0.0
 31
0.0
210
0.0
220
0.0
230
1.0
 40
0.8793852416
 41
0.7465353661352093
 42
1.253235897503375
  0
ELLIPSE
  5
7F
330
1F
100
AcDbEntity
  8
0
  6
Continuous
 62
     7
370
    25
100
AcDbEllipse
 10
32.7674615516
 20
72.0
 30
0.0
 11
32.59938221613
 21
18.96504833107413
 31
0.0
210
0.0
220
0.0
230
1.0
 40
0.4996677339
 41
0.3920712119045263
 42
0.7096316411960483
  0
LINE
  5
80
330
1F
100
AcDbEntity
  8
0
  6
Continuous
 62
     7
370
    25
100
AcDbLine
 10
56.889845518
 20
97.0
 30
0.0
 11
51.3231415258
 21
97.0
 31
0.0
  0
ELLIPSE
  5
81
330
1F
100
AcDbEntity
  8
0
  6
Continuous
 62
     7
370
    25
100
AcDbEllipse
 10
75.4455254922
 20
72.0
 30
0.0
 11
32.59938221613005
 21
-18.96504833107413
 31
0.0
210
0.0
220
0.0
230
1.0
 40
0.4996677339
 41
2.114400583102218
 42
2.431961012393741
  0
ELLIPSE
  5
82
330
1F
100
AcDbEntity
  8
0
  6
Continuous
 62
     7
370
    25
100
AcDbEllipse
 10
57.8176295167
 20
72.0
 30
0.0
 11
28.4289510650723
 21
0.0
 31
0.0
210
0.0
220
0.0
230
1.0
 40
0.8793852416
 41
1.007417248312339
 42
1.253235897503374
  0
SPLINE
  5
83
330
1F
100
AcDbEntity
  8
0
  6
Continuous
 62
     7
370
    25
100
AcDbSpline
210
0.0
220
0.0
230
1.0
 70
     8
 71
     3
 72
    12
 73
     8
 74
     0
 42
0.00000001
 43
0.00000001
 40
0.0
 40
0.0
 40
0.0
 40
0.0
 40
0.5000000000000008
 40
0.5000000000000008
 40
0.7500000000000003
 40
0.7500000000000003
 40
1.0
 40
1.0
 40
1.0
 40
1.0
 10
78.86424290024556
 20
87.51756486362505
 30
0.0
 10
78.17113061917878
 20
88.66046337337657
 30
0.0
 10
77.35362989310217
 20
89.70176047373454
 30
0.0
 10
75.8959635162815
 20
91.11437252104187
 30
0.0
 10
75.37018355197678
 20
91.56106154871209
 30
0.0
 10
74.2330546573585
 20
92.4003522541835
 30
0.0
 10
73.63286559991751
 20
92.78484071453325
 30
0.0
 10
72.99999999999996
 20
93.13638393825346
 30
0.0
  0
ARC
  5
84
330
1F
100
AcDbEntity
  8
0
  6
Continuous
 62
     7
370
    25
100
AcDbCircle
 10
52.949875427
 20
72.3009258883
 30
0.0
 40
30.05163129084509
100
AcDbArc
 50
359.4262517286
 51
30.4209994288
  0
LINE
  5
85
330
1F
100
AcDbEntity
  8
0
  6
Continuous
 62
     7
370
    25
100
AcDbLine
 10
59.2722946519
 20
18.25
 30
0.0
 11
49.5270364467
 21
18.25
 31
0.0
  0
LINE
  5
86
330
1F
100
AcDbEntity
  8
0
  6
Continuous
 62
     7
370
    25
100
AcDbLine
 10
49.5270364467
 20
95.75
 30
0.0
 11
59.2722946519
 21
95.75
 31
0.0
  0
LINE
  5
87
330
1F
100
AcDbEntity
  8
0
  6
Continuous
 62
     7
370
    25
100
AcDbLine
 10
51.3231415258
 20
97.0
 30
0.0
 11
49.7440966687
 21
97.0
 31
0.0
  0
LINE
  5
88
330
1F
100
AcDbEntity
  8
0
  6
Continuous
 62
     7
370
    25
100
AcDbLine
 10
49.7440966687
 20
17.0
 30
0.0
 11
51.3231415258
 21
17.0
 31
0.0
  0
LINE
  5
89
330
1F
100
AcDbEntity
  8
0
  6
Continuous
 62
     7
370
    25
100
AcDbLine
 10
83.0
 20
42.0
 30
0.0
 11
83.0
 21
72.0
 31
0.0
  0
LINE
  5
8A
330
1F
100
AcDbEntity
  8
0
  6
Continuous
 62
     7
370
    25
100
AcDbLine
 10
33.0
 20
95.75
 30
0.0
 11
49.5270364467
 21
95.75
 31
0.0
  0
LINE
  5
8B
330
1F
100
AcDbEntity
  8
0
  6
Continuous
 62
     7
370
    25
100
AcDbLine
 10
49.7440966687
 20
97.0
 30
0.0
 11
34.25
 21
97.0
 31
0.0
  0
LINE
  5
8C
330
1F
100
AcDbEntity
  8
0
  6
Continuous
 62
     7
370
    25
100
AcDbLine
 10
34.25
 20
17.0
 30
0.0
 11
49.7440966687
 21
17.0
 31
0.0
  0
LINE
  5
8D
330
1F
100
AcDbEntity
  8
0
  6
Continuous
 62
     7
370
    25
100
AcDbLine
 10
49.5270364467
 20
18.25
 30
0.0
 11
33.0
 21
18.25
 31
0.0
  0
LINE
  5
8E
330
1F
100
AcDbEntity
  8
0
  6
Continuous
 62
     7
370
    25
100
AcDbLine
 10
118.0
 20
18.25
 30
0.0
 11
66.6945666416
 21
18.25
 31
0.0
  0
LINE
  5
8F
330
1F
100
AcDbEntity
  8
0
  6
Continuous
 62
     7
370
    25
100
AcDbLine
 10
56.889845518
 20
17.0
 30
0.0
 11
118.0
 21
17.0
 31
0.0
  0
LINE
  5
90
330
1F
100
AcDbEntity
  8
0
  6
Continuous
 62
     7
370
    25
100
AcDbLine
 10
66.6945666416
 20
95.75
 30
0.0
 11
118.0
 21
95.75
 31
0.0
  0
LINE
  5
91
330
1F
100
AcDbEntity
  8
0
  6
Continuous
 62
     7
370
    25
100
AcDbLine
 10
118.0
 20
97.0
 30
0.0
 11
56.889845518
 21
97.0
 31
0.0
  0
ARC
  5
92
330
1F
100
AcDbEntity
  8
0
  6
Continuous
 62
     7
370
    25
100
AcDbCircle
 10
118.0
 20
82.0
 30
0.0
 40
15.0
100
AcDbArc
 50
0.0
 51
90.0
  0
ARC
  5
93
330
1F
100
AcDbEntity
  8
0
  6
Continuous
 62
     7
370
    25
100
AcDbCircle
 10
118.0
 20
82.0
 30
0.0
 40
13.75
100
AcDbArc
 50
0.0
 51
90.0
  0
LINE
  5
94
330
1F
100
AcDbEntity
  8
0
  6
Continuous
 62
     7
370
    25
100
AcDbLine
 10
133.0
 20
32.0
 30
0.0
 11
133.0
 21
82.0
 31
0.0
  0
LINE
  5
95
330
1F
100
AcDbEntity
  8
0
  6
Continuous
 62
     7
370
    25
100
AcDbLine
 10
131.75
 20
82.0
 30
0.0
 11
131.75
 21
32.0
 31
0.0
  0
CIRCLE
  5
96
330
1F
100
AcDbEntity
  8
0
  6
Continuous
 62
     7
370
    25
100
AcDbCircle
 10
118.0
 20
32.0
 30
0.0
 40
8.562500000000014
  0
CIRCLE
  5
97
330
1F
100
AcDbEntity
  8
0
  6
Continuous
 62
     7
370
    25
100
AcDbCircle
 10
118.0
 20
32.0
 30
0.0
 40
4.812499999999986
  0
ARC
  5
98
330
1F
100
AcDbEntity
  8
0
  6
Continuous
 62
     7
370
    25
100
AcDbCircle
 10
118.0
 20
32.0
 30
0.0
 40
13.75
100
AcDbArc
 50
270.0
 51
0.0
  0
CIRCLE
  5
99
330
1F
100
AcDbEntity
  8
0
  6
Continuous
 62
     7
370
    25
100
AcDbCircle
 10
118.0
 20
82.0
 30
0.0
 40
8.562500000000014
  0
ARC
  5
9A
330
1F
100
AcDbEntity
  8
0
  6
Continuous
 62
     7
370
    25
100
AcDbCircle
 10
118.0
 20
32.0
 30
0.0
 40
15.0
100
AcDbArc
 50
270.0
 51
0.0
  0
CIRCLE
  5
9B
330
1F
100
AcDbEntity
  8
0
  6
Continuous
 62
     7
370
    25
100
AcDbCircle
 10
118.0
 20
82.0
 30
0.0
 40
4.812499999999986
  0
LINE
  5
9C
330
1F
100
AcDbEntity
  8
0
  6
HIDDEN
 62
     7
370
    18
100
AcDbLine
 10
66.6945666416
 20
95.75
 30
0.0
 11
59.2722946519
 21
95.75
 31
0.0
  0
LINE
  5
9D
330
1F
100
AcDbEntity
  8
0
  6
HIDDEN
 62
     7
370
    18
100
AcDbLine
 10
59.2722946519
 20
18.25
 30
0.0
 11
66.6945666416
 21
18.25
 31
0.0
  0
LINE
  5
9E
330
1F
100
AcDbEntity
  8
0
  6
HIDDEN
 62
     7
370
    18
100
AcDbLine
 10
95.5
 20
97.0
 30
0.0
 11
95.5
 21
95.75
 31
0.0
  0
LINE
  5
9F
330
1F
100
AcDbEntity
  8
0
  6
HIDDEN
 62
     7
370
    18
100
AcDbLine
 10
95.5
 20
17.0
 30
0.0
 11
95.5
 21
18.25
 31
0.0
  0
LINE
  5
A0
330
1F
100
AcDbEntity
  8
0
  6
HIDDEN
 62
     7
370
    18
100
AcDbLine
 10
95.5
 20
54.5
 30
0.0
 11
51.7933789207
 21
18.25
 31
0.0
  0
LINE
  5
A1
330
1F
100
AcDbEntity
  8
0
  6
HIDDEN
 62
     7
370
    18
100
AcDbLine
 10
51.7933789207
 20
18.25
 30
0.0
 11
54.9772377718
 21
17.0
 31
0.0
  0
LINE
  5
A2
330
1F
100
AcDbEntity
  8
0
  6
HIDDEN
 62
     7
370
    18
100
AcDbLine
 10
95.5
 20
18.25
 30
0.0
 11
95.5
 21
95.75
 31
0.0
  0
LINE
  5
A3
330
1F
100
AcDbEntity
  8
0
  6
HIDDEN
 62
     7
370
    18
100
AcDbLine
 10
51.7933789207
 20
95.75
 30
0.0
 11
95.5
 21
59.5
 31
0.0
  0
LINE
  5
A4
330
1F
100
AcDbEntity
  8
0
  6
HIDDEN
 62
     7
370
    18
100
AcDbLine
 10
54.9772377718
 20
97.0
 30
0.0
 11
51.7933789207
 21
95.75
 31
0.0
  0
LINE
  5
A5
330
1F
100
AcDbEntity
  8
0
  6
HIDDEN
 62
     7
370
    18
100
AcDbLine
 10
41.75
 20
97.0
 30
0.0
 11
43.0
 21
95.75
 31
0.0
  0
LINE
  5
A6
330
1F
100
AcDbEntity
  8
0
  6
HIDDEN
 62
     7
370
    18
100
AcDbLine
 10
43.0
 20
18.25
 30
0.0
 11
41.75
 21
17.0
 31
0.0
  0
LINE
  5
A7
330
1F
100
AcDbEntity
  8
0
  6
HIDDEN
 62
     7
370
    18
100
AcDbLine
 10
43.0
 20
95.75
 30
0.0
 11
43.0
 21
18.25
 31
0.0
  0
INSERT
  5
B3
330
1F
100
AcDbEntity
  8
10
100
AcDbBlockReference
  2
SW_CENTERMARKSYMBOL_0
 10
118.0
 20
82.0
 30
0.0
  0
INSERT
  5
BF
330
1F
100
AcDbEntity
  8
10
100
AcDbBlockReference
  2
SW_CENTERMARKSYMBOL_1
 10
118.0
 20
32.0
 30
0.0
  0
LINE
  5
C0
330
1F
100
AcDbEntity
  8
0
  6
Continuous
 62
     7
370
    25
100
AcDbLine
 10
51.7933789207
 20
174.2317115601
 30
0.0
 11
95.5
 21
186.3150448934
 31
0.0
  0
LINE
  5
C1
330
1F
100
AcDbEntity
  8
0
  6
Continuous
 62
     7
370
    25
100
AcDbLine
 10
95.5
 20
186.3150448934
 30
0.0
 11
95.5
 21
173.8150448934
 31
0.0
  0
LINE
  5
C2
330
1F
100
AcDbEntity
  8
0
  6
Continuous
 62
     7
370
    25
100
AcDbLine
 10
95.5
 20
173.8150448934
 30
0.0
 11
54.9772377718
 21
173.8150448934
 31
0.0
  0
LINE
  5
C3
330
1F
100
AcDbEntity
  8
0
  6
Continuous
 62
     7
370
    25
100
AcDbLine
 10
54.9772377718
 20
173.8150448934
 30
0.0
 11
51.7933789207
 21
174.2317115601
 31
0.0
  0
ARC
  5
C4
330
1F
100
AcDbEntity
  8
0
  6
Continuous
 62
     7
370
    25
100
AcDbCircle
 10
53.0
 20
153.8150448934
 30
0.0
 40
20.0
100
AcDbArc
 50
105.454237257
 51
260.0
  0
ARC
  5
C5
330
1F
100
AcDbEntity
  8
0
  6
Continuous
 62
     7
370
    25
100
AcDbCircle
 10
53.0
 20
153.8150448934
 30
0.0
 40
18.75
100
AcDbArc
 50
105.454237257
 51
260.0
  0
LINE
  5
C6
330
1F
100
AcDbEntity
  8
0
  6
Continuous
 62
     7
370
    25
100
AcDbLine
 10
48.003713204
 20
171.887112242
 30
0.0
 11
54.9772377718
 21
173.8150448934
 31
0.0
  0
LINE
  5
C7
330
1F
100
AcDbEntity
  8
0
  6
Continuous
 62
     7
370
    25
100
AcDbLine
 10
51.7933789207
 20
174.2317115601
 30
0.0
 11
47.6706274176
 21
173.0919167319
 31
0.0
  0
LINE
  5
C8
330
1F
100
AcDbEntity
  8
0
  6
Continuous
 62
     7
370
    25
100
AcDbLine
 10
51.3231415258
 20
135.0714713124
 30
0.0
 11
49.7440966687
 21
135.3498995244
 31
0.0
  0
LINE
  5
C9
330
1F
100
AcDbEntity
  8
0
  6
Continuous
 62
     7
370
    25
100
AcDbLine
 10
95.5
 20
172.5650448934
 30
0.0
 11
118.0
 21
172.5650448934
 31
0.0
  0
LINE
  5
CA
330
1F
100
AcDbEntity
  8
0
  6
Continuous
 62
     7
370
    25
100
AcDbLine
 10
118.0
 20
165.0650448934
 30
0.0
 11
53.0
 21
165.0650448934
 31
0.0
  0
ARC
  5
CB
330
1F
100
AcDbEntity
  8
0
  6
Continuous
 62
     7
370
    25
100
AcDbCircle
 10
53.0
 20
153.8150448934
 30
0.0
 40
11.25000000000003
100
AcDbArc
 50
90.0
 51
260.0
  0
LINE
  5
CC
330
1F
100
AcDbEntity
  8
0
  6
Continuous
 62
     7
370
    25
100
AcDbLine
 10
51.0464580012
 20
142.735957672
 30
0.0
 11
56.889845518
 21
141.7056107941
 31
0.0
  0
LINE
  5
CD
330
1F
100
AcDbEntity
  8
0
  6
Continuous
 62
     7
370
    25
100
AcDbLine
 10
95.5
 20
173.8150448934
 30
0.0
 11
95.5
 21
172.5650448934
 31
0.0
  0
LINE
  5
CE
330
1F
100
AcDbEntity
  8
0
  6
Continuous
 62
     7
370
    25
100
AcDbLine
 10
118.0
 20
173.8150448934
 30
0.0
 11
95.5
 21
173.8150448934
 31
0.0
  0
LINE
  5
CF
330
1F
100
AcDbEntity
  8
0
  6
Continuous
 62
     7
370
    25
100
AcDbLine
 10
118.0
 20
172.5650448934
 30
0.0
 11
133.0
 21
172.5650448934
 31
0.0
  0
LINE
  5
D0
330
1F
100
AcDbEntity
  8
0
  6
Continuous
 62
     7
370
    25
100
AcDbLine
 10
131.75
 20
173.8150448934
 30
0.0
 11
118.0
 21
173.8150448934
 31
0.0
  0
LINE
  5
D1
330
1F
100
AcDbEntity
  8
0
  6
Continuous
 62
     7
370
    25
100
AcDbLine
 10
131.75
 20
173.8150448934
 30
0.0
 11
133.0
 21
172.5650448934
 31
0.0
  0
LINE
  5
D2
330
1F
100
AcDbEntity
  8
0
  6
Continuous
 62
     7
370
    25
100
AcDbLine
 10
133.0
 20
172.5650448934
 30
0.0
 11
133.0
 21
165.0650448934
 31
0.0
  0
LINE
  5
D3
330
1F
100
AcDbEntity
  8
0
  6
Continuous
 62
     7
370
    25
100
AcDbLine
 10
133.0
 20
165.0650448934
 30
0.0
 11
118.0
 21
165.0650448934
 31
0.0
  0
LINE
  5
D4
330
1F
100
AcDbEntity
  8
0
  6
Continuous
 62
     7
370
    25
100
AcDbLine
 10
53.0
 20
163.8150448934
 30
0.0
 11
118.0
 21
163.8150448934
 31
0.0
  0
ARC
  5
D5
330
1F
100
AcDbEntity
  8
0
  6
Continuous
 62
     7
370
    25
100
AcDbCircle
 10
53.0
 20
153.8150448934
 30
0.0
 40
10.00000000000003
100
AcDbArc
 50
90.0
 51
260.0
  0
LINE
  5
D6
330
1F
100
AcDbEntity
  8
0
  6
Continuous
 62
     7
370
    25
100
AcDbLine
 10
133.0
 20
165.0650448934
 30
0.0
 11
131.75
 21
163.8150448934
 31
0.0
  0
LINE
  5
D7
330
1F
100
AcDbEntity
  8
0
  6
Continuous
 62
     7
370
    25
100
AcDbLine
 10
118.0
 20
163.8150448934
 30
0.0
 11
131.75
 21
163.8150448934
 31
0.0
  0
LINE
  5
D8
330
1F
100
AcDbEntity
  8
0
  6
Continuous
 62
     7
370
    25
100
AcDbLine
 10
66.6945666416
 20
141.2460571865
 30
0.0
 11
51.2635182233
 21
143.9669673633
 31
0.0
  0
ELLIPSE
  5
D9
330
1F
100
AcDbEntity
  8
0
  6
Continuous
 62
     7
370
    25
100
AcDbEllipse
 10
75.4455254922
 20
163.8194090664
 30
0.0
 11
33.22315121941437
 21
12.09223813240209
 31
0.0
210
0.0
220
0.0
230
1.0
 40
0.5773502692
 41
3.926990816987262
 42
4.24455124627878
  0
SPLINE
  5
DA
330
1F
100
AcDbEntity
  8
0
  6
Continuous
 62
     7
370
    25
100
AcDbSpline
210
0.0
220
0.0
230
1.0
 70
     8
 71
     3
 72
     8
 73
     4
 74
     0
 42
0.00000001
 43
0.00000001
 40
0.0
 40
0.0
 40
0.0
 40
0.0
 40
1.0
 40
1.0
 40
1.0
 40
1.0
 10
71.26351822333069
 20
130.2861616302369
 30
0.0
 10
71.38617730161751
 20
130.2645335253061
 30
0.0
 10
71.50502708969026
 20
130.2340908540743
 30
0.0
 10
71.61860290651545
 20
130.1963048194879
 30
0.0
  0
LINE
  5
DB
330
1F
100
AcDbEntity
  8
0
  6
Continuous
 62
     7
370
    25
100
AcDbLine
 10
59.2722946519
 20
132.4005378776
 30
0.0
 11
71.2635182233
 21
130.2861616302
 31
0.0
  0
ELLIPSE
  5
DC
330
1F
100
AcDbEntity
  8
0
  6
Continuous
 62
     7
370
    25
100
AcDbEllipse
 10
32.7674615516
 20
112.9576730401
 30
0.0
 11
33.22315121941435
 21
12.09223813240209
 31
0.0
210
0.0
220
0.0
230
1.0
 40
0.5773502692
 41
0.4678377341059275
 42
0.7853981633974504
  0
LINE
  5
DD
330
1F
100
AcDbEntity
  8
0
  6
Continuous
 62
     7
370
    25
100
AcDbLine
 10
73.0
 20
140.1342391604
 30
0.0
 11
66.6945666416
 21
141.2460571865
 31
0.0
  0
SPLINE
  5
DE
330
1F
100
AcDbEntity
  8
0
  6
Continuous
 62
     7
370
    25
100
AcDbSpline
210
0.0
220
0.0
230
1.0
 70
     8
 71
     3
 72
    12
 73
     8
 74
     0
 42
0.00000001
 43
0.00000001
 40
0.0
 40
0.0
 40
0.0
 40
0.0
 40
0.5000000000000008
 40
0.5000000000000008
 40
0.7500000000000003
 40
0.7500000000000003
 40
1.0
 40
1.0
 40
1.0
 40
1.0
 10
78.86424290024556
 20
137.3996977866934
 30
0.0
 10
78.17113061917878
 20
137.9812880461009
 30
0.0
 10
77.35362989310217
 20
138.5414590568654
 30
0.0
 10
75.8959635162815
 20
139.2641611592978
 30
0.0
 10
75.37018355197678
 20
139.4856533459422
 30
0.0
 10
74.2330546573585
 20
139.8667622443839
 30
0.0
 10
73.63286559991751
 20
140.0226478799312
 30
0.0
 10
72.99999999999996
 20
140.134239160359
 30
0.0
  0
LINE
  5
DF
330
1F
100
AcDbEntity
  8
0
  6
Continuous
 62
     7
370
    25
100
AcDbLine
 10
83.0
 20
133.9293855297
 30
0.0
 11
78.8642429002
 21
137.3996977867
 31
0.0
  0
LINE
  5
E0
330
1F
100
AcDbEntity
  8
0
  6
Continuous
 62
     7
370
    25
100
AcDbLine
 10
82.4358678471
 20
133.2570790098
 30
0.0
 11
83.0
 21
133.9293855297
 31
0.0
  0
SPLINE
  5
E1
330
1F
100
AcDbEntity
  8
0
  6
Continuous
 62
     7
370
    25
100
AcDbSpline
210
0.0
220
0.0
230
1.0
 70
     8
 71
     3
 72
    26
 73
    22
 74
     0
 42
0.00000001
 43
0.00000001
 40
0.0
 40
0.0
 40
0.0
 40
0.0
 40
0.1249999999999998
 40
0.1249999999999998
 40
0.2499999999999995
 40
0.2499999999999995
 40
0.3124999999999994
 40
0.3124999999999994
 40
0.3749999999999992
 40
0.3749999999999992
 40
0.499999999999999
 40
0.499999999999999
 40
0.7499999999999989
 40
0.7499999999999989
 40
0.8749999999999991
 40
0.8749999999999991
 40
0.9374999999999992
 40
0.9374999999999992
 40
0.9687499999999997
 40
0.9687499999999997
 40
1.0
 40
1.0
 40
1.0
 40
1.0
 10
71.61860290651556
 20
130.1963048194879
 30
0.0
 10
72.18494875685889
 20
130.0078847448007
 30
0.0
 10
72.74197180962952
 20
129.878299361504
 30
0.0
 10
73.83498495399688
 20
129.7139472419312
 30
0.0
 10
74.37100172159704
 20
129.6793742616488
 30
0.0
 10
75.15784463286494
 20
129.6888280940744
 30
0.0
 10
75.41726298579282
 20
129.7022533441331
 30
0.0
 10
75.93012789082434
 20
129.7485095606588
 30
0.0
 10
76.1841870327977
 20
129.7814667695289
 30
0.0
 10
76.93085514625984
 20
129.9069748069861
 30
0.0
 10
77.40884459080011
 20
130.0258673087655
 30
0.0
 10
78.78562674172771
 20
130.4735596656906
 30
0.0
 10
79.62776457276757
 20
130.8923615696562
 30
0.0
 10
80.77519650498866
 20
131.6714382861497
 30
0.0
 10
81.13890143710556
 20
131.9571985659569
 30
0.0
 10
81.65138338780719
 20
132.4203702675139
 30
0.0
 10
81.81646898893335
 20
132.5802836567916
 30
0.0
 10
82.05537841351247
 20
132.828175612868
 30
0.0
 10
82.1335610234258
 20
132.9121439942209
 30
0.0
 10
82.28699217678736
 20
133.0827210782029
 30
0.0
 10
82.3627656732989
 20
133.1699592314792
 30
0.0
 10
82.43586784711671
 20
133.2570790097531
 30
0.0
  0
LINE
  5
E2
330
1F
100
AcDbEntity
  8
0
  6
Continuous
 62
     7
370
    25
100
AcDbLine
 10
49.5270364467
 20
134.1188898331
 30
0.0
 11
59.2722946519
 21
132.4005378776
 31
0.0
  0
LINE
  5
E3
330
1F
100
AcDbEntity
  8
0
  6
HIDDEN
 62
     7
370
    18
100
AcDbLine
 10
113.1875
 20
167.5650448934
 30
0.0
 11
122.8125
 21
167.5650448934
 31
0.0
  0
LINE
  5
E4
330
1F
100
AcDbEntity
  8
0
  6
HIDDEN
 62
     7
370
    18
100
AcDbLine
 10
126.5625
 20
163.8150448934
 30
0.0
 11
122.8125
 21
167.5650448934
 31
0.0
  0
LINE
  5
E5
330
1F
100
AcDbEntity
  8
0
  6
HIDDEN
 62
     7
370
    18
100
AcDbLine
 10
113.1875
 20
167.5650448934
 30
0.0
 11
109.4375
 21
163.8150448934
 31
0.0
  0
LINE
  5
E6
330
1F
100
AcDbEntity
  8
0
  6
HIDDEN
 62
     7
370
    18
100
AcDbLine
 10
113.1875
 20
173.8150448934
 30
0.0
 11
113.1875
 21
167.5650448934
 31
0.0
  0
LINE
  5
E7
330
1F
100
AcDbEntity
  8
0
  6
HIDDEN
 62
     7
370
    18
100
AcDbLine
 10
122.8125
 20
167.5650448934
 30
0.0
 11
122.8125
 21
173.8150448934
 31
0.0
  0
LINE
  5
E8
330
1F
100
AcDbEntity
  8
0
  6
Continuous
 62
     7
370
    25
100
AcDbLine
 10
194.6849551066
 20
84.8699143963
 30
0.0
 11
194.6849551066
 21
29.1299198629
 31
0.0
  0
LINE
  5
E9
330
1F
100
AcDbEntity
  8
0
  6
Continuous
 62
     7
370
    25
100
AcDbLine
 10
238.8150448934
 20
32.0
 30
0.0
 11
238.8150448934
 21
82.0
 31
0.0
  0
LINE
  5
EA
330
1F
100
AcDbEntity
  8
0
  6
Continuous
 62
     7
370
    25
100
AcDbLine
 10
237.5650448934
 20
82.0
 30
0.0
 11
237.5650448934
 21
32.0
 31
0.0
  0
LINE
  5
EB
330
1F
100
AcDbEntity
  8
0
  6
Continuous
 62
     7
370
    25
100
AcDbLine
 10
237.5650448934
 20
97.0
 30
0.0
 11
237.5650448934
 21
82.0
 31
0.0
  0
LINE
  5
EC
330
1F
100
AcDbEntity
  8
0
  6
Continuous
 62
     7
370
    25
100
AcDbLine
 10
238.8150448934
 20
95.75
 30
0.0
 11
237.5650448934
 21
97.0
 31
0.0
  0
LINE
  5
ED
330
1F
100
AcDbEntity
  8
0
  6
Continuous
 62
     7
370
    25
100
AcDbLine
 10
238.8150448934
 20
82.0
 30
0.0
 11
238.8150448934
 21
95.75
 31
0.0
  0
LINE
  5
EE
330
1F
100
AcDbEntity
  8
0
  6
Continuous
 62
     7
370
    25
100
AcDbLine
 10
237.5650448934
 20
32.0
 30
0.0
 11
237.5650448934
 21
17.0
 31
0.0
  0
LINE
  5
EF
330
1F
100
AcDbEntity
  8
0
  6
Continuous
 62
     7
370
    25
100
AcDbLine
 10
238.8150448934
 20
18.25
 30
0.0
 11
238.8150448934
 21
32.0
 31
0.0
  0
LINE
  5
F0
330
1F
100
AcDbEntity
  8
0
  6
Continuous
 62
     7
370
    25
100
AcDbLine
 10
238.8150448934
 20
18.25
 30
0.0
 11
237.5650448934
 21
17.0
 31
0.0
  0
LINE
  5
F1
330
1F
100
AcDbEntity
  8
0
  6
Continuous
 62
     7
370
    25
100
AcDbLine
 10
237.5650448934
 20
17.0
 30
0.0
 11
230.0650448934
 21
17.0
 31
0.0
  0
LINE
  5
F2
330
1F
100
AcDbEntity
  8
0
  6
Continuous
 62
     7
370
    25
100
AcDbLine
 10
230.0650448934
 20
17.0
 30
0.0
 11
230.0650448934
 21
32.0
 31
0.0
  0
LINE
  5
F3
330
1F
100
AcDbEntity
  8
0
  6
Continuous
 62
     7
370
    25
100
AcDbLine
 10
237.5650448934
 20
97.0
 30
0.0
 11
230.0650448934
 21
97.0
 31
0.0
  0
LINE
  5
F4
330
1F
100
AcDbEntity
  8
0
  6
Continuous
 62
     7
370
    25
100
AcDbLine
 10
230.0650448934
 20
82.0
 30
0.0
 11
230.0650448934
 21
97.0
 31
0.0
  0
LINE
  5
F5
330
1F
100
AcDbEntity
  8
0
  6
Continuous
 62
     7
370
    25
100
AcDbLine
 10
230.0650448934
 20
32.0
 30
0.0
 11
230.0650448934
 21
82.0
 31
0.0
  0
LINE
  5
F6
330
1F
100
AcDbEntity
  8
0
  6
Continuous
 62
     7
370
    25
100
AcDbLine
 10
230.0650448934
 20
17.0
 30
0.0
 11
228.8150448934
 21
18.25
 31
0.0
  0
LINE
  5
F7
330
1F
100
AcDbEntity
  8
0
  6
Continuous
 62
     7
370
    25
100
AcDbLine
 10
228.8150448934
 20
32.0
 30
0.0
 11
228.8150448934
 21
18.25
 31
0.0
  0
LINE
  5
F8
330
1F
100
AcDbEntity
  8
0
  6
Continuous
 62
     7
370
    25
100
AcDbLine
 10
228.8150448934
 20
95.75
 30
0.0
 11
228.8150448934
 21
82.0
 31
0.0
  0
LINE
  5
F9
330
1F
100
AcDbEntity
  8
0
  6
Continuous
 62
     7
370
    25
100
AcDbLine
 10
230.0650448934
 20
97.0
 30
0.0
 11
228.8150448934
 21
95.75
 31
0.0
  0
LINE
  5
FA
330
1F
100
AcDbEntity
  8
0
  6
Continuous
 62
     7
370
    25
100
AcDbLine
 10
228.8150448934
 20
82.0
 30
0.0
 11
228.8150448934
 21
32.0
 31
0.0
  0
LINE
  5
FB
330
1F
100
AcDbEntity
  8
0
  6
Continuous
 62
     7
370
    25
100
AcDbLine
 10
238.8150448934
 20
17.0
 30
0.0
 11
251.3150448934
 21
54.5
 31
0.0
  0
LINE
  5
FC
330
1F
100
AcDbEntity
  8
0
  6
Continuous
 62
     7
370
    25
100
AcDbLine
 10
251.3150448934
 20
54.5
 30
0.0
 11
251.3150448934
 21
59.5
 31
0.0
  0
LINE
  5
FD
330
1F
100
AcDbEntity
  8
0
  6
Continuous
 62
     7
370
    25
100
AcDbLine
 10
251.3150448934
 20
59.5
 30
0.0
 11
238.8150448934
 21
97.0
 31
0.0
  0
LINE
  5
FE
330
1F
100
AcDbEntity
  8
0
  6
Continuous
 62
     7
370
    25
100
AcDbLine
 10
237.5650448934
 20
17.0
 30
0.0
 11
238.8150448934
 21
17.0
 31
0.0
  0
LINE
  5
FF
330
1F
100
AcDbEntity
  8
0
  6
Continuous
 62
     7
370
    25
100
AcDbLine
 10
238.8150448934
 20
97.0
 30
0.0
 11
237.5650448934
 21
97.0
 31
0.0
  0
SPLINE
  5
100
330
1F
100
AcDbEntity
  8
0
  6
Continuous
 62
     7
370
    25
100
AcDbSpline
210
0.0
220
0.0
230
1.0
 70
     8
 71
     3
 72
     8
 73
     4
 74
     0
 42
0.00000001
 43
0.00000001
 40
0.0
 40
0.0
 40
0.0
 40
0.0
 40
1.0
 40
1.0
 40
1.0
 40
1.0
 10
195.2861616302369
 20
88.9774909994005
 30
0.0
 10
195.2645335253061
 20
88.86089901184901
 30
0.0
 10
195.2340908540743
 20
88.73908317612697
 30
0.0
 10
195.196304819488
 20
88.61394451001398
 30
0.0
  0
ELLIPSE
  5
101
330
1F
100
AcDbEntity
  8
0
  6
Continuous
 62
     7
370
    25
100
AcDbEllipse
 10
198.9657813988
 20
72.0
 30
0.0
 11
0.0
 21
25.0
 31
0.0
210
0.0
220
0.0
230
1.0
 40
0.2005116442
 41
0.3175604292915262
 42
0.8242609606596949
  0
ELLIPSE
  5
102
330
1F
100
AcDbEntity
  8
0
  6
Continuous
 62
     7
370
    25
100
AcDbEllipse
 10
177.9576730401
 20
72.0
 30
0.0
 11
22.50495790368285
 21
24.8740294303435
 31
0.0
210
0.0
220
0.0
230
1.0
 40
0.1113765011
 41
0.100429677924108
 42
0.417990107215635
  0
ELLIPSE
  5
103
330
1F
100
AcDbEntity
  8
0
  6
Continuous
 62
     7
370
    25
100
AcDbEllipse
 10
228.8194090664
 20
72.0
 30
0.0
 11
-22.50495790368279
 21
24.87402943034353
 31
0.0
210
0.0
220
0.0
230
1.0
 40
0.1113765011
 41
6.182755629255605
 42
6.500316058546991
  0
ELLIPSE
  5
104
330
1F
100
AcDbEntity
  8
0
  6
Continuous
 62
     7
370
    25
100
AcDbEllipse
 10
207.8113007077
 20
72.0
 30
0.0
 11
0.0
 21
25.0
 31
0.0
210
0.0
220
0.0
230
1.0
 40
0.2005116442
 41
0.3175604292915278
 42
0.5633790784825708
  0
SPLINE
  5
105
330
1F
100
AcDbEntity
  8
0
  6
Continuous
 62
     7
370
    25
100
AcDbSpline
210
0.0
220
0.0
230
1.0
 70
     8
 71
     3
 72
    12
 73
     8
 74
     0
 42
0.00000001
 43
0.00000001
 40
0.0
 40
0.0
 40
0.0
 40
0.0
 40
0.5000000000000008
 40
0.5000000000000008
 40
0.7500000000000003
 40
0.7500000000000003
 40
1.0
 40
1.0
 40
1.0
 40
1.0
 10
202.3996977866934
 20
87.51756486362505
 30
0.0
 10
202.9812880461009
 20
88.66046337337657
 30
0.0
 10
203.5414590568654
 20
89.70176047373454
 30
0.0
 10
204.2641611592978
 20
91.11437252104187
 30
0.0
 10
204.4856533459422
 20
91.56106154871209
 30
0.0
 10
204.8667622443839
 20
92.4003522541835
 30
0.0
 10
205.0226478799312
 20
92.78484071453325
 30
0.0
 10
205.134239160359
 20
93.13638393825346
 30
0.0
  0
ARC
  5
106
330
1F
100
AcDbEntity
  8
0
  6
Continuous
 62
     7
370
    25
100
AcDbCircle
 10
233.4469614967
 20
72.4273980051
 30
0.0
 40
34.52022189520379
100
AcDbArc
 50
154.0784616539
 51
180.7094023793
  0
SPLINE
  5
107
330
1F
100
AcDbEntity
  8
0
  6
Continuous
 62
     7
370
    25
100
AcDbSpline
210
0.0
220
0.0
230
1.0
 70
     8
 71
     3
 72
    26
 73
    22
 74
     0
 42
0.00000001
 43
0.00000001
 40
0.0
 40
0.0
 40
0.0
 40
0.0
 40
0.1249999999999998
 40
0.1249999999999998
 40
0.2499999999999995
 40
0.2499999999999995
 40
0.3124999999999994
 40
0.3124999999999994
 40
0.3749999999999992
 40
0.3749999999999992
 40
0.499999999999999
 40
0.499999999999999
 40
0.7499999999999989
 40
0.7499999999999989
 40
0.8749999999999991
 40
0.8749999999999991
 40
0.9374999999999992
 40
0.9374999999999992
 40
0.9687499999999997
 40
0.9687499999999997
 40
1.0
 40
1.0
 40
1.0
 40
1.0
 10
195.1963048194879
 20
88.6139445100141
 30
0.0
 10
195.0078847448007
 20
87.98994050765212
 30
0.0
 10
194.878299361504
 20
87.35390953158483
 30
0.0
 10
194.7139472419312
 20
86.05756134239616
 30
0.0
 10
194.6793742616488
 20
85.3972513490319
 30
0.0
 10
194.6888280940744
 20
84.38815900730698
 30
0.0
 10
194.7022533441331
 20
84.04868708654602
 30
0.0
 10
194.7485095606588
 20
83.36341218546764
 30
0.0
 10
194.7814667695289
 20
83.01673903042996
 30
0.0
 10
194.9069748069861
 20
81.97567784353308
 30
0.0
 10
195.0258673087655
 20
81.27927882437349
 30
0.0
 10
195.4735596656906
 20
79.18032600485579
 30
0.0
 10
195.8923615696562
 20
77.76806139601598
 30
0.0
 10
196.6714382861497
 20
75.62079075345713
 30
0.0
 10
196.9571985659569
 20
74.89880284133574
 30
0.0
 10
197.4203702675139
 20
73.81228622892381
 30
0.0
 10
197.5802836567916
 20
73.45004043625735
 30
0.0
 10
197.828175612868
 20
72.90639588277912
 30
0.0
 10
197.9121439942209
 20
72.7251350790957
 30
0.0
 10
198.0827210782029
 20
72.36249401778092
 30
0.0
 10
198.1699592314792
 20
72.1798179251588
 30
0.0
 10
198.2570790097531
 20
72.0
 30
0.0
  0
LINE
  5
108
330
1F
100
AcDbEntity
  8
0
  6
Continuous
 62
     7
370
    25
100
AcDbLine
 10
206.7056107941
 20
97.0
 30
0.0
 11
200.0714713124
 21
97.0
 31
0.0
  0
ARC
  5
109
330
1F
100
AcDbEntity
  8
0
  6
Continuous
 62
     7
370
    25
100
AcDbCircle
 10
233.6128432116
 20
41.6096993973
 30
0.0
 40
34.68565368184755
100
AcDbArc
 50
179.3552651644
 51
205.8568708025
  0
SPLINE
  5
10A
330
1F
100
AcDbEntity
  8
0
  6
Continuous
 62
     7
370
    25
100
AcDbSpline
210
0.0
220
0.0
230
1.0
 70
     8
 71
     3
 72
    14
 73
    10
 74
     0
 42
0.00000001
 43
0.00000001
 40
0.0
 40
0.0
 40
0.0
 40
0.0
 40
0.4999999999999987
 40
0.4999999999999987
 40
0.6249999999999984
 40
0.6249999999999984
 40
0.7499999999999982
 40
0.7499999999999982
 40
1.0
 40
1.0
 40
1.0
 40
1.0
 10
205.134239160359
 20
20.86361606174655
 30
0.0
 10
204.9116387622194
 20
21.56486853652284
 30
0.0
 10
204.5196913015889
 20
22.38521687081214
 30
0.0
 10
203.9137212835842
 20
23.57082848501743
 30
0.0
 10
203.7861712542625
 20
23.81668172172247
 30
0.0
 10
203.5240396402009
 20
24.31892301263205
 30
0.0
 10
203.3892214107459
 20
24.57578723609567
 30
0.0
 10
202.9764461006671
 20
25.36352356792623
 30
0.0
 10
202.6902255564116
 20
25.91151127772801
 30
0.0
 10
202.3996977866934
 20
26.48243513637489
 30
0.0
  0
ELLIPSE
  5
10B
330
1F
100
AcDbEntity
  8
0
  6
Continuous
 62
     7
370
    25
100
AcDbEllipse
 10
207.8113007077
 20
42.0
 30
0.0
 11
0.0
 21
25.00000000000001
 31
0.0
210
0.0
220
0.0
230
1.0
 40
0.2005116442
 41
2.57821357510722
 42
2.824032224298265
  0
ELLIPSE
  5
10C
330
1F
100
AcDbEntity
  8
0
  6
Continuous
 62
     7
370
    25
100
AcDbEllipse
 10
228.8194090664
 20
42.0
 30
0.0
 11
22.50495790368285
 21
24.87402943034354
 31
0.0
210
0.0
220
0.0
230
1.0
 40
0.1113765011
 41
2.924461902222362
 42
3.242022331513997
  0
ELLIPSE
  5
10D
330
1F
100
AcDbEntity
  8
0
  6
Continuous
 62
     7
370
    25
100
AcDbEllipse
 10
177.9576730401
 20
42.0
 30
0.0
 11
-22.50495790368291
 21
24.8740294303435
 31
0.0
210
0.0
220
0.0
230
1.0
 40
0.1113765011
 41
2.723602546374173
 42
3.041162975665694
  0
ELLIPSE
  5
10E
330
1F
100
AcDbEntity
  8
0
  6
Continuous
 62
     7
370
    25
100
AcDbEllipse
 10
198.9657813988
 20
42.0
 30
0.0
 11
0.0
 21
25.00000000000001
 31
0.0
210
0.0
220
0.0
230
1.0
 40
0.2005116442
 41
2.317331692930097
 42
2.824032224298273
  0
SPLINE
  5
10F
330
1F
100
AcDbEntity
  8
0
  6
Continuous
 62
     7
370
    25
100
AcDbSpline
210
0.0
220
0.0
230
1.0
 70
     8
 71
     3
 72
     8
 73
     4
 74
     0
 42
0.00000001
 43
0.00000001
 40
0.0
 40
0.0
 40
0.0
 40
0.0
 40
1.0
 40
1.0
 40
1.0
 40
1.0
 10
195.196304819488
 20
25.38605548998585
 30
0.0
 10
195.2340908540743
 20
25.2609168238731
 30
0.0
 10
195.2645335253061
 20
25.13910098815095
 30
0.0
 10
195.2861616302369
 20
25.02250900059955
 30
0.0
  0
SPLINE
  5
110
330
1F
100
AcDbEntity
  8
0
  6
Continuous
 62
     7
370
    25
100
AcDbSpline
210
0.0
220
0.0
230
1.0
 70
     8
 71
     3
 72
    26
 73
    22
 74
     0
 42
0.00000001
 43
0.00000001
 40
0.0
 40
0.0
 40
0.0
 40
0.0
 40
0.1249999999999998
 40
0.1249999999999998
 40
0.2499999999999997
 40
0.2499999999999997
 40
0.3124999999999998
 40
0.3124999999999998
 40
0.3749999999999999
 40
0.3749999999999999
 40
0.5000000000000001
 40
0.5000000000000001
 40
0.7500000000000004
 40
0.7500000000000004
 40
0.8750000000000003
 40
0.8750000000000003
 40
0.9375000000000001
 40
0.9375000000000001
 40
0.96875
 40
0.96875
 40
1.0
 40
1.0
 40
1.0
 40
1.0
 10
195.196304819488
 20
25.38605548998584
 30
0.0
 10
195.0078847448007
 20
26.0100594923478
 30
0.0
 10
194.8782993615041
 20
26.64609046841508
 30
0.0
 10
194.7139472419312
 20
27.94243865760376
 30
0.0
 10
194.6793742616488
 20
28.60274865096801
 30
0.0
 10
194.6888280940744
 20
29.61184099269294
 30
0.0
 10
194.7022533441331
 20
29.9513129134539
 30
0.0
 10
194.7485095606588
 20
30.63658781453229
 30
0.0
 10
194.7814667695289
 20
30.98326096956998
 30
0.0
 10
194.9069748069861
 20
32.02432215646687
 30
0.0
 10
195.0258673087655
 20
32.72072117562643
 30
0.0
 10
195.4735596656906
 20
34.81967399514416
 30
0.0
 10
195.8923615696561
 20
36.23193860398396
 30
0.0
 10
196.6714382861497
 20
38.37920924654284
 30
0.0
 10
196.9571985659569
 20
39.10119715866426
 30
0.0
 10
197.4203702675138
 20
40.18771377107619
 30
0.0
 10
197.5802836567916
 20
40.54995956374265
 30
0.0
 10
197.8281756128679
 20
41.09360411722089
 30
0.0
 10
197.9121439942209
 20
41.27486492090431
 30
0.0
 10
198.0827210782029
 20
41.63750598221909
 30
0.0
 10
198.169959231484
 20
41.82018207483725
 30
0.0
 10
198.2570790097531
 20
41.99999999999999
 30
0.0
  0
LINE
  5
111
330
1F
100
AcDbEntity
  8
0
  6
Continuous
 62
     7
370
    25
100
AcDbLine
 10
200.0714713124
 20
17.0
 30
0.0
 11
206.7056107941
 21
17.0
 31
0.0
  0
LINE
  5
112
330
1F
100
AcDbEntity
  8
0
  6
Continuous
 62
     7
370
    25
100
AcDbLine
 10
198.9293855297
 20
42.0
 30
0.0
 11
198.9293855297
 21
72.0
 31
0.0
  0
LINE
  5
113
330
1F
100
AcDbEntity
  8
0
  6
Continuous
 62
     7
370
    25
100
AcDbLine
 10
206.2460571865
 20
95.75
 30
0.0
 11
208.9669673633
 21
95.75
 31
0.0
  0
LINE
  5
114
330
1F
100
AcDbEntity
  8
0
  6
Continuous
 62
     7
370
    25
100
AcDbLine
 10
208.9669673633
 20
18.25
 30
0.0
 11
206.2460571865
 21
18.25
 31
0.0
  0
LINE
  5
115
330
1F
100
AcDbEntity
  8
0
  6
Continuous
 62
     7
370
    25
100
AcDbLine
 10
207.735957672
 20
97.0
 30
0.0
 11
206.7056107941
 21
97.0
 31
0.0
  0
LINE
  5
116
330
1F
100
AcDbEntity
  8
0
  6
Continuous
 62
     7
370
    25
100
AcDbLine
 10
206.7056107941
 20
17.0
 30
0.0
 11
207.735957672
 21
17.0
 31
0.0
  0
LINE
  5
117
330
1F
100
AcDbEntity
  8
0
  6
Continuous
 62
     7
370
    25
100
AcDbLine
 10
208.9669673633
 20
95.75
 30
0.0
 11
228.8150448934
 21
95.75
 31
0.0
  0
LINE
  5
118
330
1F
100
AcDbEntity
  8
0
  6
Continuous
 62
     7
370
    25
100
AcDbLine
 10
230.0650448934
 20
97.0
 30
0.0
 11
207.735957672
 21
97.0
 31
0.0
  0
LINE
  5
119
330
1F
100
AcDbEntity
  8
0
  6
Continuous
 62
     7
370
    25
100
AcDbLine
 10
228.8150448934
 20
18.25
 30
0.0
 11
208.9669673633
 21
18.25
 31
0.0
  0
LINE
  5
11A
330
1F
100
AcDbEntity
  8
0
  6
Continuous
 62
     7
370
    25
100
AcDbLine
 10
207.735957672
 20
17.0
 30
0.0
 11
230.0650448934
 21
17.0
 31
0.0
  0
LINE
  5
11B
330
1F
100
AcDbEntity
  8
0
  6
HIDDEN
 62
     7
370
    18
100
AcDbLine
 10
232.5650448934
 20
32.0
 30
0.0
 11
232.5650448934
 21
27.1875
 31
0.0
  0
LINE
  5
11C
330
1F
100
AcDbEntity
  8
0
  6
HIDDEN
 62
     7
370
    18
100
AcDbLine
 10
232.5650448934
 20
36.8125
 30
0.0
 11
232.5650448934
 21
32.0
 31
0.0
  0
LINE
  5
11D
330
1F
100
AcDbEntity
  8
0
  6
HIDDEN
 62
     7
370
    18
100
AcDbLine
 10
232.5650448934
 20
82.0
 30
0.0
 11
232.5650448934
 21
77.1875
 31
0.0
  0
LINE
  5
11E
330
1F
100
AcDbEntity
  8
0
  6
HIDDEN
 62
     7
370
    18
100
AcDbLine
 10
232.5650448934
 20
86.8125
 30
0.0
 11
232.5650448934
 21
82.0
 31
0.0
  0
LINE
  5
11F
330
1F
100
AcDbEntity
  8
0
  6
HIDDEN
 62
     7
370
    18
100
AcDbLine
 10
199.1188898331
 20
95.75
 30
0.0
 11
197.4005378776
 21
95.75
 31
0.0
  0
LINE
  5
120
330
1F
100
AcDbEntity
  8
0
  6
HIDDEN
 62
     7
370
    18
100
AcDbLine
 10
197.4005378776
 20
18.25
 30
0.0
 11
199.1188898331
 21
18.25
 31
0.0
  0
LINE
  5
121
330
1F
100
AcDbEntity
  8
0
  6
HIDDEN
 62
     7
370
    18
100
AcDbLine
 10
239.2317115601
 20
95.75
 30
0.0
 11
238.0919167319
 21
95.75
 31
0.0
  0
LINE
  5
122
330
1F
100
AcDbEntity
  8
0
  6
HIDDEN
 62
     7
370
    18
100
AcDbLine
 10
238.0919167319
 20
18.25
 30
0.0
 11
239.2317115601
 21
18.25
 31
0.0
  0
LINE
  5
123
330
1F
100
AcDbEntity
  8
0
  6
HIDDEN
 62
     7
370
    18
100
AcDbLine
 10
238.0919167319
 20
95.75
 30
0.0
 11
228.8150448934
 21
95.75
 31
0.0
  0
LINE
  5
124
330
1F
100
AcDbEntity
  8
0
  6
HIDDEN
 62
     7
370
    18
100
AcDbLine
 10
206.2460571865
 20
95.75
 30
0.0
 11
199.1188898331
 21
95.75
 31
0.0
  0
LINE
  5
125
330
1F
100
AcDbEntity
  8
0
  6
HIDDEN
 62
     7
370
    18
100
AcDbLine
 10
199.1188898331
 20
18.25
 30
0.0
 11
206.2460571865
 21
18.25
 31
0.0
  0
LINE
  5
126
330
1F
100
AcDbEntity
  8
0
  6
HIDDEN
 62
     7
370
    18
100
AcDbLine
 10
228.8150448934
 20
18.25
 30
0.0
 11
238.0919167319
 21
18.25
 31
0.0
  0
LINE
  5
127
330
1F
100
AcDbEntity
  8
0
  6
HIDDEN
 62
     7
370
    18
100
AcDbLine
 10
228.8150448934
 20
23.4375
 30
0.0
 11
232.5650448934
 21
27.1875
 31
0.0
  0
LINE
  5
128
330
1F
100
AcDbEntity
  8
0
  6
HIDDEN
 62
     7
370
    18
100
AcDbLine
 10
232.5650448934
 20
36.8125
 30
0.0
 11
228.8150448934
 21
40.5625
 31
0.0
  0
LINE
  5
129
330
1F
100
AcDbEntity
  8
0
  6
HIDDEN
 62
     7
370
    18
100
AcDbLine
 10
228.8150448934
 20
73.4375
 30
0.0
 11
232.5650448934
 21
77.1875
 31
0.0
  0
LINE
  5
12A
330
1F
100
AcDbEntity
  8
0
  6
HIDDEN
 62
     7
370
    18
100
AcDbLine
 10
232.5650448934
 20
86.8125
 30
0.0
 11
228.8150448934
 21
90.5625
 31
0.0
  0
LINE
  5
12B
330
1F
100
AcDbEntity
  8
0
  6
HIDDEN
 62
     7
370
    18
100
AcDbLine
 10
238.8150448934
 20
86.8125
 30
0.0
 11
232.5650448934
 21
86.8125
 31
0.0
  0
LINE
  5
12C
330
1F
100
AcDbEntity
  8
0
  6
HIDDEN
 62
     7
370
    18
100
AcDbLine
 10
232.5650448934
 20
77.1875
 30
0.0
 11
238.8150448934
 21
77.1875
 31
0.0
  0
LINE
  5
12D
330
1F
100
AcDbEntity
  8
0
  6
HIDDEN
 62
     7
370
    18
100
AcDbLine
 10
238.8150448934
 20
36.8125
 30
0.0
 11
232.5650448934
 21
36.8125
 31
0.0
  0
LINE
  5
12E
330
1F
100
AcDbEntity
  8
0
  6
HIDDEN
 62
     7
370
    18
100
AcDbLine
 10
232.5650448934
 20
27.1875
 30
0.0
 11
238.8150448934
 21
27.1875
 31
0.0
  0
ENDSEC
  0
SECTION
  2
OBJECTS
  0
DICTIONARY
  5
C
330
0
100
AcDbDictionary
281
     1
  3
ACAD_GROUP
350
D
  3
ACAD_LAYOUT
350
1A
  3
ACAD_MLINESTYLE
350
17
  3
ACAD_PLOTSETTINGS
350
19
  3
ACAD_PLOTSTYLENAME
350
E
  3
ACAD_SCALELIST
350
47
  3
DWGPROPS
350
12F
  0
DICTIONARY
  5
D
102
{ACAD_REACTORS
330
C
102
}
330
C
100
AcDbDictionary
281
     1
  0
DICTIONARY
  5
1A
102
{ACAD_REACTORS
330
C
102
}
330
C
100
AcDbDictionary
281
     1
  3
Layout1
350
1E
  3
Layout2
350
26
  3
Model
350
22
  0
DICTIONARY
  5
17
102
{ACAD_REACTORS
330
C
102
}
330
C
100
AcDbDictionary
281
     1
  3
Standard
350
18
  0
DICTIONARY
  5
19
102
{ACAD_REACTORS
330
C
102
}
330
C
100
AcDbDictionary
281
     1
  0
ACDBDICTIONARYWDFLT
  5
E
102
{ACAD_REACTORS
330
C
102
}
330
C
100
AcDbDictionary
281
     1
  3
Normal
350
F
100
AcDbDictionaryWithDefault
340
F
  0
DICTIONARY
  5
47
102
{ACAD_REACTORS
330
C
102
}
330
C
100
AcDbDictionary
281
     1
  3
A0
350
48
  3
A1
350
49
  3
A2
350
4A
  3
A3
350
4B
  3
A4
350
4C
  3
A5
350
4D
  3
A6
350
4E
  3
A7
350
4F
  3
A8
350
50
  3
A9
350
51
  3
B0
350
52
  3
B1
350
53
  3
B2
350
54
  3
B3
350
55
  3
B4
350
56
  3
B5
350
57
  3
B6
350
58
  0
XRECORD
  5
12F
102
{ACAD_REACTORS
330
C
102
}
330
C
100
AcDbXrecord
280
     1
  1
DWGPROPS COOKIE
  2

  3

  4

  6

  7

  8

  9

300
=
301
=
302
=
303
=
304
=
305
=
306
=
307
=
308
=
309
=
 40
0.0
 41
2461215.39544125
 42
2461215.395441551
  1

 90
        0
  0
LAYOUT
  5
1E
102
{ACAD_REACTORS
330
1A
102
}
330
1A
100
AcDbPlotSettings
  1

  2
none_device
  4

  6

 40
0.0
 41
0.0
 42
0.0
 43
0.0
 44
0.0
 45
0.0
 46
0.0
 47
0.0
 48
0.0
 49
0.0
140
0.0
141
0.0
142
1.0
143
1.0
 70
   688
 72
     1
 73
     0
 74
     5
  7

 75
    16
147
1.0
148
0.0
149
0.0
100
AcDbLayout
  1
Layout1
 70
     1
 71
     1
 10
0.0
 20
0.0
 11
420.0
 21
297.0
 12
0.0
 22
0.0
 32
0.0
 14
1.0000000000E+20
 24
1.0000000000E+20
 34
1.0000000000E+20
 15
-1.0000000000E+20
 25
-1.0000000000E+20
 35
-1.0000000000E+20
146
0.0
 13
0.0
 23
0.0
 33
0.0
 16
1.0
 26
0.0
 36
0.0
 17
0.0
 27
1.0
 37
0.0
 76
     0
330
1B
  0
LAYOUT
  5
26
102
{ACAD_REACTORS
330
1A
102
}
330
1A
100
AcDbPlotSettings
  1

  2
none_device
  4

  6

 40
0.0
 41
0.0
 42
0.0
 43
0.0
 44
0.0
 45
0.0
 46
0.0
 47
0.0
 48
0.0
 49
0.0
140
0.0
141
0.0
142
1.0
143
1.0
 70
   688
 72
     1
 73
     0
 74
     5
  7

 75
    16
147
1.0
148
0.0
149
0.0
100
AcDbLayout
  1
Layout2
 70
     1
 71
     2
 10
0.0
 20
0.0
 11
0.0
 21
0.0
 12
0.0
 22
0.0
 32
0.0
 14
0.0
 24
0.0
 34
0.0
 15
0.0
 25
0.0
 35
0.0
146
0.0
 13
0.0
 23
0.0
 33
0.0
 16
1.0
 26
0.0
 36
0.0
 17
0.0
 27
1.0
 37
0.0
 76
     0
330
23
  0
LAYOUT
  5
22
102
{ACAD_REACTORS
330
1A
102
}
330
1A
100
AcDbPlotSettings
  1

  2
none_device
  4
Letter_(8.50_x_11.00_Inches)
  6

 40
6.35
 41
6.35
 42
6.35000508
 43
6.35000508
 44
215.9
 45
279.4
 46
0.0
 47
0.0
 48
0.0
 49
0.0
140
0.0
141
0.0
142
1.0
143
1.0
 70
  1712
 72
     1
 73
     0
 74
     0
  7

 75
     0
147
1.0
148
0.0
149
0.0
100
AcDbLayout
  1
Model
 70
     1
 71
     0
 10
0.0
 20
0.0
 11
297.0
 21
210.0
 12
0.0
 22
0.0
 32
0.0
 14
0.0
 24
0.0
 34
0.0
 15
297.0
 25
210.0
 35
0.0
146
0.0
 13
0.0
 23
0.0
 33
0.0
 16
1.0
 26
0.0
 36
0.0
 17
0.0
 27
1.0
 37
0.0
 76
     0
330
1F
331
29
  0
MLINESTYLE
  5
18
102
{ACAD_REACTORS
330
17
102
}
330
17
100
AcDbMlineStyle
  2
Standard
 70
     0
  3

 62
   256
 51
90.0
 52
90.0
 71
     2
 49
0.5
 62
   256
  6
BYLAYER
 49
-0.5
 62
   256
  6
BYLAYER
  0
ACDBPLACEHOLDER
  5
F
102
{ACAD_REACTORS
330
E
102
}
330
E
  0
SCALE
  5
48
102
{ACAD_REACTORS
330
47
102
}
330
47
100
AcDbScale
 70
     0
300
1:1
140
1.0
141
1.0
290
     1
  0
SCALE
  5
49
102
{ACAD_REACTORS
330
47
102
}
330
47
100
AcDbScale
 70
     0
300
1:2
140
1.0
141
2.0
290
     0
  0
SCALE
  5
4A
102
{ACAD_REACTORS
330
47
102
}
330
47
100
AcDbScale
 70
     0
300
1:4
140
1.0
141
4.0
290
     0
  0
SCALE
  5
4B
102
{ACAD_REACTORS
330
47
102
}
330
47
100
AcDbScale
 70
     0
300
1:5
140
1.0
141
5.0
290
     0
  0
SCALE
  5
4C
102
{ACAD_REACTORS
330
47
102
}
330
47
100
AcDbScale
 70
     0
300
1:8
140
1.0
141
8.0
290
     0
  0
SCALE
  5
4D
102
{ACAD_REACTORS
330
47
102
}
330
47
100
AcDbScale
 70
     0
300
1:10
140
1.0
141
10.0
290
     0
  0
SCALE
  5
4E
102
{ACAD_REACTORS
330
47
102
}
330
47
100
AcDbScale
 70
     0
300
1:16
140
1.0
141
16.0
290
     0
  0
SCALE
  5
4F
102
{ACAD_REACTORS
330
47
102
}
330
47
100
AcDbScale
 70
     0
300
1:20
140
1.0
141
20.0
290
     0
  0
SCALE
  5
50
102
{ACAD_REACTORS
330
47
102
}
330
47
100
AcDbScale
 70
     0
300
1:30
140
1.0
141
30.0
290
     0
  0
SCALE
  5
51
102
{ACAD_REACTORS
330
47
102
}
330
47
100
AcDbScale
 70
     0
300
1:40
140
1.0
141
40.0
290
     0
  0
SCALE
  5
52
102
{ACAD_REACTORS
330
47
102
}
330
47
100
AcDbScale
 70
     0
300
1:50
140
1.0
141
50.0
290
     0
  0
SCALE
  5
53
102
{ACAD_REACTORS
330
47
102
}
330
47
100
AcDbScale
 70
     0
300
1:100
140
1.0
141
100.0
290
     0
  0
SCALE
  5
54
102
{ACAD_REACTORS
330
47
102
}
330
47
100
AcDbScale
 70
     0
300
2:1
140
2.0
141
1.0
290
     0
  0
SCALE
  5
55
102
{ACAD_REACTORS
330
47
102
}
330
47
100
AcDbScale
 70
     0
300
4:1
140
4.0
141
1.0
290
     0
  0
SCALE
  5
56
102
{ACAD_REACTORS
330
47
102
}
330
47
100
AcDbScale
 70
     0
300
8:1
140
8.0
141
1.0
290
     0
  0
SCALE
  5
57
102
{ACAD_REACTORS
330
47
102
}
330
47
100
AcDbScale
 70
     0
300
10:1
140
10.0
141
1.0
290
     0
  0
SCALE
  5
58
102
{ACAD_REACTORS
330
47
102
}
330
47
100
AcDbScale
 70
     0
300
100:1
140
100.0
141
1.0
290
     0
  0
ENDSEC
  0
EOF
