  0
SECTION
  2
HEADER
  9
$ACADVER
  1
AC1015
  9
$ACADMAINTVER
 70
     6
  9
$DWGCODEPAGE
  3
ANSI_936
  9
$INSBASE
 10
0.0
 20
0.0
 30
0.0
  9
$EXTMIN
 10
0.0
 20
0.0
 30
0.0
  9
$EXTMAX
 10
297.0
 20
210.0
 30
0.0
  9
$LIMMIN
 10
0.0
 20
0.0
  9
$LIMMAX
 10
297.0
 20
210.0
  9
$ORTHOMODE
 70
     0
  9
$REGENMODE
 70
     1
  9
$FILLMODE
 70
     1
  9
$QTEXTMODE
 70
     0
  9
$MIRRTEXT
 70
     1
  9
$LTSCALE
 40
1.0
  9
$ATTMODE
 70
     1
  9
$TEXTSIZE
 40
3.5
  9
$TRACEWID
 40
1.0
  9
$TEXTSTYLE
  7
Standard
  9
$CLAYER
  8
0
  9
$CELTYPE
  6
ByLayer
  9
$CECOLOR
 62
   256
  9
$CELTSCALE
 40
1.0
  9
$DISPSILH
 70
     0
  9
$DIMSCALE
 40
1.0
  9
$DIMASZ
 40
4.08
  9
$DIMEXO
 40
0.0
  9
$DIMDLI
 40
3.75
  9
$DIMRND
 40
0.0
  9
$DIMDLE
 40
0.0
  9
$DIMEXE
 40
2.0
  9
$DIMTP
 40
0.0
  9
$DIMTM
 40
0.0
  9
$DIMTXT
 40
3.5
  9
$DIMCEN
 40
2.5
  9
$DIMTSZ
 40
0.0
  9
$DIMTOL
 70
     0
  9
$DIMLIM
 70
     0
  9
$DIMTIH
 70
     1
  9
$DIMTOH
 70
     1
  9
$DIMSE1
 70
     0
  9
$DIMSE2
 70
     0
  9
$DIMTAD
 70
     1
  9
$DIMZIN
 70
     0
  9
$DIMBLK
  1

  9
$DIMASO
 70
     1
  9
$DIMSHO
 70
     1
  9
$DIMPOST
  1

  9
$DIMAPOST
  1

  9
$DIMALT
 70
     0
  9
$DIMALTD
 70
     3
  9
$DIMALTF
 40
0.0393700787
  9
$DIMLFAC
 40
2.0
  9
$DIMTOFL
 70
     1
  9
$DIMTVP
 40
0.0
  9
$DIMTIX
 70
     0
  9
$DIMSOXD
 70
     0
  9
$DIMSAH
 70
     0
  9
$DIMBLK1
  1

  9
$DIMBLK2
  1

  9
$DIMSTYLE
  2
ISO-25
  9
$DIMCLRD
 70
     0
  9
$DIMCLRE
 70
     0
  9
$DIMCLRT
 70
     0
  9
$DIMTFAC
 40
1.0
  9
$DIMGAP
 40
1.524
  9
$DIMJUST
 70
     0
  9
$DIMSD1
 70
     0
  9
$DIMSD2
 70
     0
  9
$DIMTOLJ
 70
     0
  9
$DIMTZIN
 70
     0
  9
$DIMALTZ
 70
     0
  9
$DIMALTTZ
 70
     0
  9
$DIMUPT
 70
     0
  9
$DIMDEC
 70
     2
  9
$DIMTDEC
 70
     2
  9
$DIMALTU
 70
     2
  9
$DIMALTTD
 70
     3
  9
$DIMTXSTY
  7
Standard
  9
$DIMAUNIT
 70
     0
  9
$DIMADEC
 70
     2
  9
$DIMALTRND
 40
0.0
  9
$DIMAZIN
 70
     0
  9
$DIMDSEP
 70
    44
  9
$DIMATFIT
 70
     3
  9
$DIMFRAC
 70
     0
  9
$DIMLDRBLK
  1

  9
$DIMLUNIT
 70
     2
  9
$DIMLWD
 70
    -2
  9
$DIMLWE
 70
    -2
  9
$DIMTMOVE
 70
     0
  9
$LUNITS
 70
     2
  9
$LUPREC
 70
     2
  9
$SKETCHINC
 40
1.0
  9
$FILLETRAD
 40
0.0
  9
$AUNITS
 70
     0
  9
$AUPREC
 70
     2
  9
$MENU
  1
.
  9
$ELEVATION
 40
0.0
  9
$PELEVATION
 40
0.0
  9
$THICKNESS
 40
0.0
  9
$LIMCHECK
 70
     0
  9
$CHAMFERA
 40
0.0
  9
$CHAMFERB
 40
0.0
  9
$CHAMFERC
 40
0.0
  9
$CHAMFERD
 40
0.0
  9
$SKPOLY
 70
     0
  9
$TDCREATE
 40
2461215.741075185
  9
$TDUCREATE
 40
2461215.407741852
  9
$TDUPDATE
 40
2461215.741075521
  9
$TDUUPDATE
 40
2461215.407742188
  9
$TDINDWG
 40
0.0000000116
  9
$TDUSRTIMER
 40
0.0000000116
  9
$USRTIMER
 70
     1
  9
$ANGBASE
 50
0.0
  9
$ANGDIR
 70
     0
  9
$PDMODE
 70
     0
  9
$PDSIZE
 40
-1.0
  9
$PLINEWID
 40
0.0
  9
$SPLFRAME
 70
     0
  9
$SPLINETYPE
 70
     6
  9
$SPLINESEGS
 70
     8
  9
$HANDSEED
  5
131
  9
$SURFTAB1
 70
     6
  9
$SURFTAB2
 70
     6
  9
$SURFTYPE
 70
     6
  9
$SURFU
 70
     6
  9
$SURFV
 70
     6
  9
$UCSBASE
  2

  9
$UCSNAME
  2

  9
$UCSORG
 10
0.0
 20
0.0
 30
0.0
  9
$UCSXDIR
 10
1.0
 20
0.0
 30
0.0
  9
$UCSYDIR
 10
0.0
 20
1.0
 30
0.0
  9
$UCSORTHOREF
  2

  9
$UCSORTHOVIEW
 70
     0
  9
$UCSORGTOP
 10
0.0
 20
0.0
 30
0.0
  9
$UCSORGBOTTOM
 10
0.0
 20
0.0
 30
0.0
  9
$UCSORGLEFT
 10
0.0
 20
0.0
 30
0.0
  9
$UCSORGRIGHT
 10
0.0
 20
0.0
 30
0.0
  9
$UCSORGFRONT
 10
0.0
 20
0.0
 30
0.0
  9
$UCSORGBACK
 10
0.0
 20
0.0
 30
0.0
  9
$PUCSBASE
  2

  9
$PUCSNAME
  2

  9
$PUCSORG
 10
0.0
 20
0.0
 30
0.0
  9
$PUCSXDIR
 10
1.0
 20
0.0
 30
0.0
  9
$PUCSYDIR
 10
0.0
 20
1.0
 30
0.0
  9
$PUCSORTHOREF
  2

  9
$PUCSORTHOVIEW
 70
     0
  9
$PUCSORGTOP
 10
0.0
 20
0.0
 30
0.0
  9
$PUCSORGBOTTOM
 10
0.0
 20
0.0
 30
0.0
  9
$PUCSORGLEFT
 10
0.0
 20
0.0
 30
0.0
  9
$PUCSORGRIGHT
 10
0.0
 20
0.0
 30
0.0
  9
$PUCSORGFRONT
 10
0.0
 20
0.0
 30
0.0
  9
$PUCSORGBACK
 10
0.0
 20
0.0
 30
0.0
  9
$USERI1
 70
     0
  9
$USERI2
 70
     0
  9
$USERI3
 70
     0
  9
$USERI4
 70
     0
  9
$USERI5
 70
     0
  9
$USERR1
 40
0.0
  9
$USERR2
 40
0.0
  9
$USERR3
 40
0.0
  9
$USERR4
 40
0.0
  9
$USERR5
 40
0.0
  9
$WORLDVIEW
 70
     1
  9
$SHADEDGE
 70
     3
  9
$SHADEDIF
 70
    70
  9
$TILEMODE
 70
     1
  9
$MAXACTVP
 70
    64
  9
$PINSBASE
 10
0.0
 20
0.0
 30
0.0
  9
$PLIMCHECK
 70
     0
  9
$PEXTMIN
 10
1.0000000000E+20
 20
1.0000000000E+20
 30
1.0000000000E+20
  9
$PEXTMAX
 10
-1.0000000000E+20
 20
-1.0000000000E+20
 30
-1.0000000000E+20
  9
$PLIMMIN
 10
0.0
 20
0.0
  9
$PLIMMAX
 10
420.0
 20
297.0
  9
$UNITMODE
 70
     0
  9
$VISRETAIN
 70
     1
  9
$PLINEGEN
 70
     0
  9
$PSLTSCALE
 70
     1
  9
$TREEDEPTH
 70
  3020
  9
$CMLSTYLE
  2
Standard
  9
$CMLJUST
 70
     0
  9
$CMLSCALE
 40
20.0
  9
$PROXYGRAPHICS
 70
     1
  9
$MEASUREMENT
 70
     1
  9
$CELWEIGHT
370
    -1
  9
$ENDCAPS
280
     0
  9
$JOINSTYLE
280
     0
  9
$LWDISPLAY
290
     1
  9
$INSUNITS
 70
     4
  9
$HYPERLINKBASE
  1

  9
$STYLESHEET
  1

  9
$XEDIT
290
     1
  9
$CEPSNTYPE
380
     0
  9
$PSTYLEMODE
290
     1
  9
$FINGERPRINTGUID
  2
{b4161fc5-01a7-42ff-b59d-696e95ca7071}
  9
$VERSIONGUID
  2
{FAEB1C32-E019-11D5-929B-00C0DF256EC4}
  9
$EXTNAMES
290
     1
  9
$PSVPSCALE
 40
0.0
  9
$OLESTARTUP
290
     0
  0
ENDSEC
  0
SECTION
  2
CLASSES
  0
CLASS
  1
ACDBDICTIONARYWDFLT
  2
AcDbDictionaryWithDefault
  3
ObjectDBX Classes
 90
        0
280
     0
281
     0
  0
CLASS
  1
VISUALSTYLE
  2
AcDbVisualStyle
  3
ObjectDBX Classes
 90
     4095
280
     0
281
     0
  0
CLASS
  1
MATERIAL
  2
AcDbMaterial
  3
ObjectDBX Classes
 90
     1153
280
     0
281
     0
  0
CLASS
  1
SCALE
  2
AcDbScale
  3
ObjectDBX Classes
 90
     1153
280
     0
281
     0
  0
CLASS
  1
TABLESTYLE
  2
AcDbTableStyle
  3
ObjectDBX Classes
 90
     4095
280
     0
281
     0
  0
CLASS
  1
MLEADERSTYLE
  2
AcDbMLeaderStyle
  3
ACDB_MLEADERSTYLE_CLASS
 90
     4095
280
     0
281
     0
  0
CLASS
  1
SUN
  2
AcDbSun
  3
SCENEOE
 90
     1153
280
     0
281
     0
  0
CLASS
  1
ACDBPLACEHOLDER
  2
AcDbPlaceHolder
  3
ObjectDBX Classes
 90
        0
280
     0
281
     0
  0
CLASS
  1
LAYOUT
  2
AcDbLayout
  3
ObjectDBX Classes
 90
        0
280
     0
281
     0
  0
ENDSEC
  0
SECTION
  2
TABLES
  0
TABLE
  2
VPORT
  5
8
330
0
100
AcDbSymbolTable
 70
     1
  0
VPORT
  5
29
330
8
100
AcDbSymbolTableRecord
100
AcDbViewportTableRecord
  2
*Active
 70
     0
 10
0.0
 20
0.0
 11
1.0
 21
1.0
 12
148.5
 22
105.0
 13
0.0
 23
0.0
 14
10.0
 24
10.0
 15
10.0
 25
10.0
 16
0.0
 26
0.0
 36
1.0
 17
0.0
 27
0.0
 37
0.0
 40
210.0
 41
1.4142857143
 42
50.0
 43
0.0
 44
0.0
 50
0.0
 51
0.0
 71
     0
 72
  2000
 73
     1
 74
     3
 75
     0
 76
     0
 77
     0
 78
     0
281
     0
 65
     1
110
0.0
120
0.0
130
0.0
111
1.0
121
0.0
131
0.0
112
0.0
122
1.0
132
0.0
 79
     0
146
0.0
  0
ENDTAB
  0
TABLE
  2
LTYPE
  5
5
330
0
100
AcDbSymbolTable
 70
     6
  0
LTYPE
  5
14
330
5
100
AcDbSymbolTableRecord
100
AcDbLinetypeTableRecord
  2
ByBlock
 70
     0
  3

 72
    65
 73
     0
 40
0.0
  0
LTYPE
  5
15
330
5
100
AcDbSymbolTableRecord
100
AcDbLinetypeTableRecord
  2
ByLayer
 70
     0
  3

 72
    65
 73
     0
 40
0.0
  0
LTYPE
  5
16
330
5
100
AcDbSymbolTableRecord
100
AcDbLinetypeTableRecord
  2
Continuous
 70
     0
  3
Solid line
 72
    65
 73
     0
 40
0.0
  0
LTYPE
  5
5E
330
5
100
AcDbSymbolTableRecord
100
AcDbLinetypeTableRecord
  2
HIDDEN
 70
     0
  3
Hidden __ __ __ __ __ __ __ __ __ __ __ __ __ __
 72
    65
 73
     2
 40
1.905
 49
1.27
 74
     0
 49
-0.635
 74
     0
  0
LTYPE
  5
5F
330
5
100
AcDbSymbolTableRecord
100
AcDbLinetypeTableRecord
  2
PHANTOM
 70
     0
  3
Phantom ______  __  __  ______  __  __  ______
 72
    65
 73
     6
 40
12.7
 49
6.35
 74
     0
 49
-1.27
 74
     0
 49
1.27
 74
     0
 49
-1.27
 74
     0
 49
1.27
 74
     0
 49
-1.27
 74
     0
  0
LTYPE
  5
60
330
5
100
AcDbSymbolTableRecord
100
AcDbLinetypeTableRecord
  2
CENTER
 70
     0
  3
Center ____ _ ____ _ ____ _ ____ _ ____ _ ____
 72
    65
 73
     4
 40
10.16
 49
6.35
 74
     0
 49
-1.27
 74
     0
 49
1.27
 74
     0
 49
-1.27
 74
     0
  0
LTYPE
  5
61
330
5
100
AcDbSymbolTableRecord
100
AcDbLinetypeTableRecord
  2
CENTERX2
 70
     0
  3
Center (2x) ________  __  ________  __  _____
 72
    65
 73
     4
 40
20.32
 49
12.7
 74
     0
 49
-2.54
 74
     0
 49
2.54
 74
     0
 49
-2.54
 74
     0
  0
LTYPE
  5
62
330
5
100
AcDbSymbolTableRecord
100
AcDbLinetypeTableRecord
  2
DOT2
 70
     0
  3
Dot (.5x) ........................................
 72
    65
 73
     2
 40
0.635
 49
0.0
 74
     0
 49
-0.635
 74
     0
  0
ENDTAB
  0
TABLE
  2
LAYER
  5
2
330
0
100
AcDbSymbolTable
 70
    14
  0
LAYER
  5
10
330
2
100
AcDbSymbolTableRecord
100
AcDbLayerTableRecord
  2
0
 70
     0
 62
     7
  6
Continuous
370
    -3
390
F
  0
LAYER
  5
63
330
2
100
AcDbSymbolTableRecord
100
AcDbLayerTableRecord
  2
SLD-0
 70
     0
 62
     7
  6
Continuous
370
    -3
390
F
  0
LAYER
  5
64
330
2
100
AcDbSymbolTableRecord
100
AcDbLayerTableRecord
  2
5
 70
     0
 62
     7
  6
Continuous
370
    -3
390
F
  0
LAYER
  5
65
330
2
100
AcDbSymbolTableRecord
100
AcDbLayerTableRecord
  2
9
 70
     0
 62
     7
  6
Continuous
370
    -3
390
F
  0
LAYER
  5
66
330
2
100
AcDbSymbolTableRecord
100
AcDbLayerTableRecord
  2
10
 70
     0
 62
     7
  6
Continuous
370
    -3
390
F
  0
LAYER
  5
67
330
2
100
AcDbSymbolTableRecord
100
AcDbLayerTableRecord
  2
轮廓实线层
 70
     0
 62
     7
  6
Continuous
370
    50
390
F
  0
LAYER
  5
68
330
2
100
AcDbSymbolTableRecord
100
AcDbLayerTableRecord
  2
细线层
 70
     0
 62
     4
  6
Continuous
370
    25
390
F
  0
LAYER
  5
69
330
2
100
AcDbSymbolTableRecord
100
AcDbLayerTableRecord
  2
中心线层
 70
     0
 62
     1
  6
CENTERX2
370
    25
390
F
  0
LAYER
  5
6A
330
2
100
AcDbSymbolTableRecord
100
AcDbLayerTableRecord
  2
虚线层
 70
     0
 62
     6
  6
HIDDEN
370
    25
390
F
  0
LAYER
  5
6B
330
2
100
AcDbSymbolTableRecord
100
AcDbLayerTableRecord
  2
剖面线层
 70
     0
 62
     2
  6
Continuous
370
    25
390
F
  0
LAYER
  5
6C
330
2
100
AcDbSymbolTableRecord
100
AcDbLayerTableRecord
  2
文字层
 70
     0
 62
     3
  6
Continuous
370
    25
390
F
  0
LAYER
  5
6D
330
2
100
AcDbSymbolTableRecord
100
AcDbLayerTableRecord
  2
标注层
 70
     0
 62
     4
  6
Continuous
370
    25
390
F
  0
LAYER
  5
6E
330
2
100
AcDbSymbolTableRecord
100
AcDbLayerTableRecord
  2
符号标注层
 70
     0
 62
    31
  6
Continuous
370
    25
390
F
  0
LAYER
  5
6F
330
2
100
AcDbSymbolTableRecord
100
AcDbLayerTableRecord
  2
双点划线层
 70
     0
 62
     6
  6
PHANTOM
370
    25
390
F
  0
ENDTAB
  0
TABLE
  2
STYLE
  5
3
330
0
100
AcDbSymbolTable
 70
     1
  0
STYLE
  5
11
330
3
100
AcDbSymbolTableRecord
100
AcDbTextStyleTableRecord
  2
Standard
 70
     0
 40
0.0
 41
1.0
 50
0.0
 71
     0
 42
3.5
  3
txt
  4

  0
ENDTAB
  0
TABLE
  2
VIEW
  5
6
330
0
100
AcDbSymbolTable
 70
     0
  0
ENDTAB
  0
TABLE
  2
UCS
  5
7
330
0
100
AcDbSymbolTable
 70
     0
  0
ENDTAB
  0
TABLE
  2
APPID
  5
9
330
0
100
AcDbSymbolTable
 70
     1
  0
APPID
  5
12
330
9
100
AcDbSymbolTableRecord
100
AcDbRegAppTableRecord
  2
ACAD
 70
     0
  0
ENDTAB
  0
TABLE
  2
DIMSTYLE
  5
A
330
0
100
AcDbSymbolTable
 70
     1
100
AcDbDimStyleTable
  0
DIMSTYLE
105
27
330
A
100
AcDbSymbolTableRecord
100
AcDbDimStyleTableRecord
  2
ISO-25
 70
     0
 41
2.5
 42
0.625
 43
3.75
 44
1.25
 73
     0
 74
     0
 77
     1
 78
     8
140
2.5
141
2.5
143
0.0393700787
147
0.625
171
     3
172
     1
178
     0
271
     2
272
     2
274
     3
278
    44
283
     0
284
     8
340
11
  0
ENDTAB
  0
TABLE
  2
BLOCK_RECORD
  5
1
330
0
100
AcDbSymbolTable
 70
     2
  0
BLOCK_RECORD
  5
1F
330
1
100
AcDbSymbolTableRecord
100
AcDbBlockTableRecord
  2
*Model_Space
340
22
  0
BLOCK_RECORD
  5
1B
330
1
100
AcDbSymbolTableRecord
100
AcDbBlockTableRecord
  2
*Paper_Space
340
1E
  0
BLOCK_RECORD
  5
23
330
1
100
AcDbSymbolTableRecord
100
AcDbBlockTableRecord
  2
*Paper_Space0
340
26
  0
BLOCK_RECORD
  5
F1
330
1
100
AcDbSymbolTableRecord
100
AcDbBlockTableRecord
  2
SW_CENTERMARKSYMBOL_0
340
0
102
{BLKREFS
331
FC
102
}
  0
ENDTAB
  0
ENDSEC
  0
SECTION
  2
BLOCKS
  0
BLOCK
  5
20
330
1F
100
AcDbEntity
  8
0
100
AcDbBlockBegin
  2
*Model_Space
 70
     0
 10
0.0
 20
0.0
 30
0.0
  3
*Model_Space
  1

  0
ENDBLK
  5
21
330
1F
100
AcDbEntity
  8
0
100
AcDbBlockEnd
  0
BLOCK
  5
1C
330
1B
100
AcDbEntity
 67
     1
  8
0
100
AcDbBlockBegin
  2
*Paper_Space
 70
     0
 10
0.0
 20
0.0
 30
0.0
  3
*Paper_Space
  1

  0
ENDBLK
  5
1D
330
1B
100
AcDbEntity
 67
     1
  8
0
100
AcDbBlockEnd
  0
BLOCK
  5
24
330
23
100
AcDbEntity
  8
0
100
AcDbBlockBegin
  2
*Paper_Space0
 70
     0
 10
0.0
 20
0.0
 30
0.0
  3
*Paper_Space0
  1

  0
ENDBLK
  5
25
330
23
100
AcDbEntity
  8
0
100
AcDbBlockEnd
  0
BLOCK
  5
F2
330
F1
100
AcDbEntity
  8
0
100
AcDbBlockBegin
  2
SW_CENTERMARKSYMBOL_0
 70
     0
 10
0.0
 20
0.0
 30
0.0
  3
SW_CENTERMARKSYMBOL_0
  1

  0
LINE
  5
F4
330
F1
100
AcDbEntity
  8
10
 62
     0
100
AcDbLine
 10
0.0
 20
0.0
 30
0.0
 11
0.0
 21
2.5
 31
0.0
  0
LINE
  5
F5
330
F1
100
AcDbEntity
  8
10
 62
     0
100
AcDbLine
 10
0.0
 20
0.0
 30
0.0
 11
-2.5
 21
0.0
 31
0.0
  0
LINE
  5
F6
330
F1
100
AcDbEntity
  8
10
 62
     0
100
AcDbLine
 10
0.0
 20
0.0
 30
0.0
 11
0.0
 21
-2.5
 31
0.0
  0
LINE
  5
F7
330
F1
100
AcDbEntity
  8
10
 62
     0
100
AcDbLine
 10
0.0
 20
0.0
 30
0.0
 11
2.5
 21
0.0
 31
0.0
  0
LINE
  5
F8
330
F1
100
AcDbEntity
  8
10
 62
     0
100
AcDbLine
 10
0.0
 20
5.0
 30
0.0
 11
0.0
 21
6.2058823529
 31
0.0
  0
LINE
  5
F9
330
F1
100
AcDbEntity
  8
10
 62
     0
100
AcDbLine
 10
-5.0
 20
0.0
 30
0.0
 11
-6.2058823529
 21
0.0
 31
0.0
  0
LINE
  5
FA
330
F1
100
AcDbEntity
  8
10
 62
     0
100
AcDbLine
 10
0.0
 20
-5.0
 30
0.0
 11
0.0
 21
-6.2058823529
 31
0.0
  0
LINE
  5
FB
330
F1
100
AcDbEntity
  8
10
 62
     0
100
AcDbLine
 10
5.0
 20
0.0
 30
0.0
 11
6.2058823529
 21
0.0
 31
0.0
  0
ENDBLK
  5
F3
330
F1
100
AcDbEntity
  8
0
100
AcDbBlockEnd
  0
ENDSEC
  0
SECTION
  2
ENTITIES
  0
LINE
  5
70
330
1F
100
AcDbEntity
  8
0
  6
Continuous
 62
     7
370
    25
100
AcDbLine
 10
133.0093159441
 20
29.8146839525
 30
0.0
 11
132.2893737942
 21
30.5491001874
 31
0.0
  0
LINE
  5
71
330
1F
100
AcDbEntity
  8
0
  6
Continuous
 62
     7
370
    25
100
AcDbLine
 10
133.0
 20
22.4117647059
 30
0.0
 11
133.0
 21
29.8238512542
 31
0.0
  0
LINE
  5
72
330
1F
100
AcDbEntity
  8
0
  6
Continuous
 62
     7
370
    25
100
AcDbLine
 10
33.711013192
 20
30.5500595946
 30
0.0
 11
32.9865156801
 21
29.8110766382
 31
0.0
  0
LINE
  5
73
330
1F
100
AcDbEntity
  8
0
  6
Continuous
 62
     7
370
    25
100
AcDbLine
 10
33.0
 20
29.8244384482
 30
0.0
 11
33.0
 21
22.4117647059
 31
0.0
  0
LINE
  5
74
330
1F
100
AcDbEntity
  8
0
  6
Continuous
 62
     7
370
    25
100
AcDbLine
 10
33.0
 20
22.4117647059
 30
0.0
 11
33.7058823529
 21
21.7058823529
 31
0.0
  0
LINE
  5
75
330
1F
100
AcDbEntity
  8
0
  6
Continuous
 62
     7
370
    25
100
AcDbLine
 10
132.2941176471
 20
21.7058823529
 30
0.0
 11
133.0
 21
22.4117647059
 31
0.0
  0
SPLINE
  5
76
330
1F
100
AcDbEntity
  8
0
  6
Continuous
 62
     7
370
    25
100
AcDbSpline
210
0.0
220
0.0
230
1.0
 70
     8
 71
     3
 72
    18
 73
    14
 74
     0
 42
0.00000001
 43
0.00000001
 40
0.0
 40
0.0
 40
0.0
 40
0.0
 40
0.1130040530999069
 40
0.2100168837766338
 40
0.3099608209704856
 40
0.4042738504590337
 40
0.5015497507747845
 40
0.5922298336615377
 40
0.6852889948574648
 40
0.7806531779149369
 40
0.8785384179186542
 40
0.9784420920643101
 40
1.0
 40
1.0
 40
1.0
 40
1.0
 10
121.235294117751
 20
34.09030569215076
 30
0.0
 10
121.8144806304891
 20
33.64171151024311
 30
0.0
 10
122.8908928758372
 20
32.80800378401419
 30
0.0
 10
124.611480643077
 20
31.82566452698331
 30
0.0
 10
126.244532360314
 20
31.09212311030767
 30
0.0
 10
127.8276007413305
 20
30.55609556109565
 30
0.0
 10
129.240837510632
 20
30.19991586149813
 30
0.0
 10
130.4755422754858
 20
29.99289365524222
 30
0.0
 10
131.4914359940375
 20
29.88034684619604
 30
0.0
 10
132.2915382313445
 20
29.83189003046634
 30
0.0
 10
132.7998045983641
 20
29.82535009304314
 30
0.0
 10
133.0293138396993
 20
29.82432981102593
 30
0.0
 10
132.9805916384267
 20
29.82392561232736
 30
0.0
 10
132.9719440585791
 20
29.8238538721262
 30
0.0
  0
SPLINE
  5
77
330
1F
100
AcDbEntity
  8
0
  6
Continuous
 62
     7
370
    25
100
AcDbSpline
210
0.0
220
0.0
230
1.0
 70
     8
 71
     3
 72
    18
 73
    14
 74
     0
 42
0.00000001
 43
0.00000001
 40
0.0
 40
0.0
 40
0.0
 40
0.0
 40
0.0097715309965273
 40
0.1148112754721222
 40
0.218742642539366
 40
0.3257870255735505
 40
0.427310604240437
 40
0.532053232108197
 40
0.6293834369938492
 40
0.7299306959207852
 40
0.8218492192552946
 40
0.9160656508807311
 40
1.0
 40
1.0
 40
1.0
 40
1.0
 10
132.2817920109135
 20
30.5440693689004
 30
0.0
 10
132.2860333526356
 20
30.54388604078302
 30
0.0
 10
132.3358672888935
 20
30.54173201445954
 30
0.0
 10
132.1380223164335
 20
30.54937556850611
 30
0.0
 10
131.6585993969527
 20
30.57672680061376
 30
0.0
 10
130.8605098624204
 20
30.65116366853026
 30
0.0
 10
129.8006834855841
 20
30.80845224853546
 30
0.0
 10
128.5453085469592
 20
31.08209593754788
 30
0.0
 10
127.1374256902549
 20
31.50856900229612
 30
0.0
 10
125.6881630260385
 20
32.08803298663189
 30
0.0
 10
124.2362514211839
 20
32.83282676099344
 30
0.0
 10
122.8901952609248
 20
33.67558984493722
 30
0.0
 10
122.0618478447367
 20
34.3349242562737
 30
0.0
 10
121.6715784283932
 20
34.64556451525056
 30
0.0
  0
SPLINE
  5
78
330
1F
100
AcDbEntity
  8
0
  6
Continuous
 62
     7
370
    25
100
AcDbSpline
210
0.0
220
0.0
230
1.0
 70
     8
 71
     3
 72
     8
 73
     4
 74
     0
 42
0.00000001
 43
0.00000001
 40
0.0
 40
0.0
 40
0.0
 40
0.0
 40
1.0
 40
1.0
 40
1.0
 40
1.0
 10
121.6715784283932
 20
34.64556451525056
 30
0.0
 10
121.5235986258104
 20
34.76945701711906
 30
0.0
 10
121.3790798292238
 20
34.89452864187244
 30
0.0
 10
121.2352941176471
 20
35.02313455139598
 30
0.0
  0
SPLINE
  5
79
330
1F
100
AcDbEntity
  8
0
  6
Continuous
 62
     7
370
    25
100
AcDbSpline
210
0.0
220
0.0
230
1.0
 70
     8
 71
     3
 72
     8
 73
     4
 74
     0
 42
0.00000001
 43
0.00000001
 40
0.0
 40
0.0
 40
0.0
 40
0.0
 40
1.0
 40
1.0
 40
1.0
 40
1.0
 10
120.7647057615763
 20
34.49700101765721
 30
0.0
 10
120.9193993494763
 20
34.35863880244683
 30
0.0
 10
121.0751790799774
 20
34.22393806760231
 30
0.0
 10
121.2352941178122
 20
34.09030569219981
 30
0.0
  0
SPLINE
  5
7A
330
1F
100
AcDbEntity
  8
0
  6
Continuous
 62
     7
370
    25
100
AcDbSpline
210
0.0
220
0.0
230
1.0
 70
     8
 71
     3
 72
     8
 73
     4
 74
     0
 42
0.00000001
 43
0.00000001
 40
0.0
 40
0.0
 40
0.0
 40
0.0
 40
1.0
 40
1.0
 40
1.0
 40
1.0
 10
44.76470588218777
 20
34.09030569220197
 30
0.0
 10
44.9248209200226
 20
34.22393806760451
 30
0.0
 10
45.08060065052376
 20
34.35863880244909
 30
0.0
 10
45.23529423842376
 20
34.49700101765947
 30
0.0
  0
ARC
  5
7B
330
1F
100
AcDbEntity
  8
0
  6
Continuous
 62
     7
370
    25
100
AcDbCircle
 10
32.9999909417
 20
48.1764796465
 30
0.0
 40
18.35295023472673
100
AcDbArc
 50
311.8103280483
 51
359.9999717212
  0
LINE
  5
7C
330
1F
100
AcDbEntity
  8
0
  6
Continuous
 62
     7
370
    25
100
AcDbLine
 10
51.3529411765
 20
48.1764705882
 30
0.0
 11
51.3529411765
 21
69.7739580897
 31
0.0
  0
ARC
  5
7D
330
1F
100
AcDbEntity
  8
0
  6
Continuous
 62
     7
370
    25
100
AcDbCircle
 10
62.4117647059
 20
69.7739580897
 30
0.0
 40
11.05882352941189
100
AcDbArc
 50
135.0
 51
180.0
  0
LINE
  5
7E
330
1F
100
AcDbEntity
  8
0
  6
Continuous
 62
     7
370
    25
100
AcDbLine
 10
54.5919955963
 20
77.5937271993
 30
0.0
 11
68.5865036911
 21
91.5882352941
 31
0.0
  0
LINE
  5
7F
330
1F
100
AcDbEntity
  8
0
  6
Continuous
 62
     7
370
    25
100
AcDbLine
 10
68.5865036911
 20
91.5882352941
 30
0.0
 11
97.4134963089
 21
91.5882352941
 31
0.0
  0
LINE
  5
80
330
1F
100
AcDbEntity
  8
0
  6
Continuous
 62
     7
370
    25
100
AcDbLine
 10
97.4134963089
 20
91.5882352941
 30
0.0
 11
111.4080044037
 21
77.5937271993
 31
0.0
  0
ARC
  5
81
330
1F
100
AcDbEntity
  8
0
  6
Continuous
 62
     7
370
    25
100
AcDbCircle
 10
103.5882352941
 20
69.7739580897
 30
0.0
 40
11.05882352941189
100
AcDbArc
 50
0.0
 51
45.0
  0
LINE
  5
82
330
1F
100
AcDbEntity
  8
0
  6
Continuous
 62
     7
370
    25
100
AcDbLine
 10
114.6470588235
 20
69.7739580897
 30
0.0
 11
114.6470588235
 21
48.1764702259
 31
0.0
  0
ARC
  5
83
330
1F
100
AcDbEntity
  8
0
  6
Continuous
 62
     7
370
    25
100
AcDbCircle
 10
133.0000090583
 20
48.1764796465
 30
0.0
 40
18.35295023472694
100
AcDbArc
 50
180.00002941
 51
228.1896719517
  0
LINE
  5
84
330
1F
100
AcDbEntity
  8
0
  6
Continuous
 62
     7
370
    25
100
AcDbLine
 10
121.2352941176
 20
22.4117647059
 30
0.0
 11
44.7647058824
 21
22.4117647059
 31
0.0
  0
ARC
  5
85
330
1F
100
AcDbEntity
  8
0
  6
Continuous
 62
     7
370
    25
100
AcDbCircle
 10
71.2352941176
 20
30.5294117647
 30
0.0
 40
3.64705882352942
100
AcDbArc
 50
180.0
 51
270.0
  0
LINE
  5
86
330
1F
100
AcDbEntity
  8
0
  6
Continuous
 62
     7
370
    25
100
AcDbLine
 10
71.2352941176
 20
26.8823529412
 30
0.0
 11
94.7647058824
 21
26.8823529412
 31
0.0
  0
ARC
  5
87
330
1F
100
AcDbEntity
  8
0
  6
Continuous
 62
     7
370
    25
100
AcDbCircle
 10
94.7647058824
 20
30.5294117647
 30
0.0
 40
3.64705882352942
100
AcDbArc
 50
270.0
 51
0.0
  0
LINE
  5
88
330
1F
100
AcDbEntity
  8
0
  6
Continuous
 62
     7
370
    25
100
AcDbLine
 10
98.4117647059
 20
30.5294117647
 30
0.0
 11
98.4117647059
 21
57.0
 31
0.0
  0
ARC
  5
89
330
1F
100
AcDbEntity
  8
0
  6
Continuous
 62
     7
370
    25
100
AcDbCircle
 10
85.9411764706
 20
57.0
 30
0.0
 40
12.47058823529412
100
AcDbArc
 50
0.0
 51
90.0
  0
LINE
  5
8A
330
1F
100
AcDbEntity
  8
0
  6
Continuous
 62
     7
370
    25
100
AcDbLine
 10
85.9411764706
 20
69.4705882353
 30
0.0
 11
80.0588235294
 21
69.4705882353
 31
0.0
  0
ARC
  5
8B
330
1F
100
AcDbEntity
  8
0
  6
Continuous
 62
     7
370
    25
100
AcDbCircle
 10
80.0588235294
 20
57.0
 30
0.0
 40
12.47058823529413
100
AcDbArc
 50
90.0
 51
180.0
  0
LINE
  5
8C
330
1F
100
AcDbEntity
  8
0
  6
Continuous
 62
     7
370
    25
100
AcDbLine
 10
67.5882352941
 20
57.0
 30
0.0
 11
67.5882352941
 21
30.5294117647
 31
0.0
  0
LINE
  5
8D
330
1F
100
AcDbEntity
  8
0
  6
Continuous
 62
     7
370
    25
100
AcDbLine
 10
133.0
 20
22.4117647059
 30
0.0
 11
121.2352941176
 21
22.4117647059
 31
0.0
  0
SPLINE
  5
8E
330
1F
100
AcDbEntity
  8
0
  6
Continuous
 62
     7
370
    25
100
AcDbSpline
210
0.0
220
0.0
230
1.0
 70
     8
 71
     3
 72
    18
 73
    14
 74
     0
 42
0.00000001
 43
0.00000001
 40
0.0
 40
0.0
 40
0.0
 40
0.0
 40
0.0819186887916304
 40
0.182498976875003
 40
0.2860101963499846
 40
0.3861217046888046
 40
0.4893491481121137
 40
0.5856556498516918
 40
0.6851587766994
 40
0.7757226961176329
 40
0.8688192915654301
 40
0.9340630623213029
 40
1.0
 40
1.0
 40
1.0
 40
1.0
 10
33.02716879688503
 20
29.82444374563759
 30
0.0
 10
33.03665822843533
 20
29.82375964130925
 30
0.0
 10
33.05779884450968
 20
29.82223558932747
 30
0.0
 10
33.48740413554782
 20
29.82703163226754
 30
0.0
 10
34.22544249952341
 20
29.85827780365365
 30
0.0
 10
35.27773047472508
 20
29.95682820658488
 30
0.0
 10
36.5605058110763
 20
30.15904041756198
 30
0.0
 10
38.04311400391202
 20
30.51384431430969
 30
0.0
 10
39.59179491295109
 20
31.03241883220556
 30
0.0
 10
41.1796438795332
 20
31.7211254308028
 30
0.0
 10
42.56091382626412
 20
32.49443368926122
 30
0.0
 10
43.76667723848411
 20
33.29354106865604
 30
0.0
 10
44.43085980717563
 20
33.82378353973632
 30
0.0
 10
44.76470588227082
 20
34.09030569217353
 30
0.0
  0
SPLINE
  5
8F
330
1F
100
AcDbEntity
  8
0
  6
Continuous
 62
     7
370
    25
100
AcDbSpline
210
0.0
220
0.0
230
1.0
 70
     8
 71
     3
 72
    18
 73
    14
 74
     0
 42
0.00000001
 43
0.00000001
 40
0.0
 40
0.0
 40
0.0
 40
0.0
 40
0.0614378069839853
 40
0.1233886364263061
 40
0.2222868828432523
 40
0.3241154839270295
 40
0.4209292392139308
 40
0.5208450309549739
 40
0.6136303597916947
 40
0.7088473411514624
 40
0.8061353255499314
 40
0.9059281383089189
 40
1.0
 40
1.0
 40
1.0
 40
1.0
 10
44.32842157160719
 20
34.64556451525301
 30
0.0
 10
44.04412843990733
 20
34.41613669057492
 30
0.0
 10
43.47316825125746
 20
33.95536525625825
 30
0.0
 10
42.38903169561915
 20
33.21313265274512
 30
0.0
 10
41.06647456974201
 20
32.44893082777328
 30
0.0
 10
39.55680776691694
 20
31.76692207218147
 30
0.0
 10
38.1112714609564
 20
31.26547764335896
 30
0.0
 10
36.83233173230423
 20
30.93630430571411
 30
0.0
 10
35.7376831980049
 20
30.7337371706733
 30
0.0
 10
34.85455093485547
 20
30.62146411110595
 30
0.0
 10
34.19644883427188
 20
30.56720916023132
 30
0.0
 10
33.77756725189212
 20
30.54612602395326
 30
0.0
 10
33.73609407375476
 20
30.5446786199351
 30
0.0
 10
33.7159694219135
 20
30.54397627438921
 30
0.0
  0
LINE
  5
90
330
1F
100
AcDbEntity
  8
0
  6
Continuous
 62
     7
370
    25
100
AcDbLine
 10
44.7647058824
 20
22.4117647059
 30
0.0
 11
33.0
 21
22.4117647059
 31
0.0
  0
LINE
  5
91
330
1F
100
AcDbEntity
  8
0
  6
Continuous
 62
     7
370
    25
100
AcDbLine
 10
33.7058823529
 20
21.7058823529
 30
0.0
 11
44.7647058824
 21
21.7058823529
 31
0.0
  0
LINE
  5
92
330
1F
100
AcDbEntity
  8
0
  6
Continuous
 62
     7
370
    25
100
AcDbLine
 10
115.3529411765
 20
48.1764705882
 30
0.0
 11
115.3529411765
 21
69.7739580897
 31
0.0
  0
LINE
  5
93
330
1F
100
AcDbEntity
  8
0
  6
Continuous
 62
     7
370
    25
100
AcDbLine
 10
121.2352941176
 20
21.7058823529
 30
0.0
 11
132.2941176471
 21
21.7058823529
 31
0.0
  0
LINE
  5
94
330
1F
100
AcDbEntity
  8
0
  6
Continuous
 62
     7
370
    25
100
AcDbLine
 10
44.7647058824
 20
21.7058823529
 30
0.0
 11
121.2352941176
 21
21.7058823529
 31
0.0
  0
ARC
  5
95
330
1F
100
AcDbEntity
  8
0
  6
Continuous
 62
     7
370
    25
100
AcDbCircle
 10
32.9999909417
 20
48.1764796465
 30
0.0
 40
17.64706788178399
100
AcDbArc
 50
311.8103280483
 51
359.99997059
  0
LINE
  5
96
330
1F
100
AcDbEntity
  8
0
  6
Continuous
 62
     7
370
    25
100
AcDbLine
 10
97.7058823529
 20
57.0
 30
0.0
 11
97.7058823529
 21
30.5294117647
 31
0.0
  0
ARC
  5
97
330
1F
100
AcDbEntity
  8
0
  6
Continuous
 62
     7
370
    25
100
AcDbCircle
 10
62.4117647059
 20
69.7739580897
 30
0.0
 40
11.76470588235296
100
AcDbArc
 50
135.0
 51
180.0
  0
LINE
  5
98
330
1F
100
AcDbEntity
  8
0
  6
Continuous
 62
     7
370
    25
100
AcDbLine
 10
80.0588235294
 20
68.7647058824
 30
0.0
 11
85.9411764706
 21
68.7647058824
 31
0.0
  0
LINE
  5
99
330
1F
100
AcDbEntity
  8
0
  6
Continuous
 62
     7
370
    25
100
AcDbLine
 10
97.4134963089
 20
91.5882352941
 30
0.0
 11
97.7058823529
 21
92.2941176471
 31
0.0
  0
LINE
  5
9A
330
1F
100
AcDbEntity
  8
0
  6
Continuous
 62
     7
370
    25
100
AcDbLine
 10
111.9071386022
 20
78.0928613978
 30
0.0
 11
97.7058823529
 21
92.2941176471
 31
0.0
  0
ARC
  5
9B
330
1F
100
AcDbEntity
  8
0
  6
Continuous
 62
     7
370
    25
100
AcDbCircle
 10
71.2352941176
 20
30.5294117647
 30
0.0
 40
2.941176470588232
100
AcDbArc
 50
180.0
 51
270.0
  0
SPLINE
  5
9C
330
1F
100
AcDbEntity
  8
0
  6
Continuous
 62
     7
370
    25
100
AcDbSpline
210
0.0
220
0.0
230
1.0
 70
     8
 71
     3
 72
     8
 73
     4
 74
     0
 42
0.00000001
 43
0.00000001
 40
0.0
 40
0.0
 40
0.0
 40
0.0
 40
1.0
 40
1.0
 40
1.0
 40
1.0
 10
44.76470588235294
 20
35.02313455139819
 30
0.0
 10
44.62092017077624
 20
34.8945286418746
 30
0.0
 10
44.47640137418962
 20
34.76945701712123
 30
0.0
 10
44.32842157160681
 20
34.64556451525267
 30
0.0
  0
LINE
  5
9D
330
1F
100
AcDbEntity
  8
0
  6
Continuous
 62
     7
370
    25
100
AcDbLine
 10
94.7647058824
 20
27.5882352941
 30
0.0
 11
71.2352941176
 21
27.5882352941
 31
0.0
  0
ARC
  5
9E
330
1F
100
AcDbEntity
  8
0
  6
Continuous
 62
     7
370
    25
100
AcDbCircle
 10
94.7647058824
 20
30.5294117647
 30
0.0
 40
2.941176470588246
100
AcDbArc
 50
270.0
 51
0.0
  0
LINE
  5
9F
330
1F
100
AcDbEntity
  8
0
  6
Continuous
 62
     7
370
    25
100
AcDbLine
 10
68.5865036911
 20
91.5882352941
 30
0.0
 11
68.2941176471
 21
92.2941176471
 31
0.0
  0
LINE
  5
A0
330
1F
100
AcDbEntity
  8
0
  6
Continuous
 62
     7
370
    25
100
AcDbLine
 10
68.2941176471
 20
92.2941176471
 30
0.0
 11
54.0928613978
 21
78.0928613978
 31
0.0
  0
LINE
  5
A1
330
1F
100
AcDbEntity
  8
0
  6
Continuous
 62
     7
370
    25
100
AcDbLine
 10
50.6470588235
 20
69.7739580897
 30
0.0
 11
50.6470588235
 21
48.1764705882
 31
0.0
  0
ARC
  5
A2
330
1F
100
AcDbEntity
  8
0
  6
Continuous
 62
     7
370
    25
100
AcDbCircle
 10
85.9411764706
 20
57.0
 30
0.0
 40
11.76470588235294
100
AcDbArc
 50
0.0
 51
90.0
  0
LINE
  5
A3
330
1F
100
AcDbEntity
  8
0
  6
Continuous
 62
     7
370
    25
100
AcDbLine
 10
97.7058823529
 20
92.2941176471
 30
0.0
 11
68.2941176471
 21
92.2941176471
 31
0.0
  0
ARC
  5
A4
330
1F
100
AcDbEntity
  8
0
  6
Continuous
 62
     7
370
    25
100
AcDbCircle
 10
103.5882352941
 20
69.7739580897
 30
0.0
 40
11.76470588235297
100
AcDbArc
 50
0.0
 51
45.0
  0
LINE
  5
A5
330
1F
100
AcDbEntity
  8
0
  6
Continuous
 62
     7
370
    25
100
AcDbLine
 10
68.2941176471
 20
30.5294117647
 30
0.0
 11
68.2941176471
 21
57.0
 31
0.0
  0
ARC
  5
A6
330
1F
100
AcDbEntity
  8
0
  6
Continuous
 62
     7
370
    25
100
AcDbCircle
 10
133.0000090583
 20
48.1764796465
 30
0.0
 40
17.64706788178565
100
AcDbArc
 50
180.00002941
 51
228.1896719517
  0
ARC
  5
A7
330
1F
100
AcDbEntity
  8
0
  6
Continuous
 62
     7
370
    25
100
AcDbCircle
 10
80.0588235294
 20
57.0
 30
0.0
 40
11.76470588235294
100
AcDbArc
 50
90.0
 51
180.0
  0
LINE
  5
A8
330
1F
100
AcDbEntity
  8
0
  6
HIDDEN
 62
     7
370
    18
100
AcDbLine
 10
83.0
 20
79.9411764706
 30
0.0
 11
79.2941176471
 21
79.9411764706
 31
0.0
  0
LINE
  5
A9
330
1F
100
AcDbEntity
  8
0
  6
HIDDEN
 62
     7
370
    18
100
AcDbLine
 10
86.7058823529
 20
79.9411764706
 30
0.0
 11
83.0
 21
79.9411764706
 31
0.0
  0
LINE
  5
AA
330
1F
100
AcDbEntity
  8
0
  6
HIDDEN
 62
     7
370
    18
100
AcDbLine
 10
78.5882352941
 20
92.2941176471
 30
0.0
 11
79.2941176471
 21
91.5882352941
 31
0.0
  0
LINE
  5
AB
330
1F
100
AcDbEntity
  8
0
  6
HIDDEN
 62
     7
370
    18
100
AcDbLine
 10
86.7058823529
 20
91.5882352941
 30
0.0
 11
87.4117647059
 21
92.2941176471
 31
0.0
  0
LINE
  5
AC
330
1F
100
AcDbEntity
  8
0
  6
HIDDEN
 62
     7
370
    18
100
AcDbLine
 10
86.7058823529
 20
79.9411764706
 30
0.0
 11
86.7058823529
 21
91.5882352941
 31
0.0
  0
LINE
  5
AD
330
1F
100
AcDbEntity
  8
0
  6
HIDDEN
 62
     7
370
    18
100
AcDbLine
 10
79.2941176471
 20
91.5882352941
 30
0.0
 11
79.2941176471
 21
79.9411764706
 31
0.0
  0
LINE
  5
AE
330
1F
100
AcDbEntity
  8
0
  6
HIDDEN
 62
     7
370
    18
100
AcDbLine
 10
79.9176470588
 20
79.9411764706
 30
0.0
 11
79.9176470588
 21
68.763858793
 31
0.0
  0
LINE
  5
AF
330
1F
100
AcDbEntity
  8
0
  6
HIDDEN
 62
     7
370
    18
100
AcDbLine
 10
86.0823529412
 20
68.7639610642
 30
0.0
 11
86.0823529412
 21
79.9411764706
 31
0.0
  0
LINE
  5
B0
330
1F
100
AcDbEntity
  8
0
  6
Continuous
 62
     7
370
    25
100
AcDbLine
 10
68.5865036911
 20
169.7647058824
 30
0.0
 11
68.2941176471
 21
169.0588235294
 31
0.0
  0
LINE
  5
B1
330
1F
100
AcDbEntity
  8
0
  6
Continuous
 62
     7
370
    25
100
AcDbLine
 10
97.4134963089
 20
169.7647058824
 30
0.0
 11
68.5865036911
 21
169.7647058824
 31
0.0
  0
LINE
  5
B2
330
1F
100
AcDbEntity
  8
0
  6
Continuous
 62
     7
370
    25
100
AcDbLine
 10
97.4134963089
 20
169.7647058824
 30
0.0
 11
97.7058823529
 21
169.0588235294
 31
0.0
  0
LINE
  5
B3
330
1F
100
AcDbEntity
  8
0
  6
Continuous
 62
     7
370
    25
100
AcDbLine
 10
68.2941176471
 20
169.0588235294
 30
0.0
 11
97.7058823529
 21
169.0588235294
 31
0.0
  0
LINE
  5
B4
330
1F
100
AcDbEntity
  8
0
  6
Continuous
 62
     7
370
    25
100
AcDbLine
 10
54.0928613978
 20
169.0588235294
 30
0.0
 11
68.2941176471
 21
169.0588235294
 31
0.0
  0
LINE
  5
B5
330
1F
100
AcDbEntity
  8
0
  6
Continuous
 62
     7
370
    25
100
AcDbLine
 10
68.5865036911
 20
169.7647058824
 30
0.0
 11
54.5919955963
 21
169.7647058824
 31
0.0
  0
LINE
  5
B6
330
1F
100
AcDbEntity
  8
0
  6
Continuous
 62
     7
370
    25
100
AcDbLine
 10
68.2941176471
 20
169.0588235294
 30
0.0
 11
68.2941176471
 21
146.9411764706
 31
0.0
  0
LINE
  5
B7
330
1F
100
AcDbEntity
  8
0
  6
Continuous
 62
     7
370
    25
100
AcDbLine
 10
68.2941176471
 20
146.9411764706
 30
0.0
 11
54.0928613978
 21
146.9411764706
 31
0.0
  0
LINE
  5
B8
330
1F
100
AcDbEntity
  8
0
  6
Continuous
 62
     7
370
    25
100
AcDbLine
 10
111.4080044037
 20
169.7647058824
 30
0.0
 11
97.4134963089
 21
169.7647058824
 31
0.0
  0
LINE
  5
B9
330
1F
100
AcDbEntity
  8
0
  6
Continuous
 62
     7
370
    25
100
AcDbLine
 10
97.7058823529
 20
169.0588235294
 30
0.0
 11
111.9071386022
 21
169.0588235294
 31
0.0
  0
LINE
  5
BA
330
1F
100
AcDbEntity
  8
0
  6
Continuous
 62
     7
370
    25
100
AcDbLine
 10
111.9071386022
 20
146.9411764706
 30
0.0
 11
97.7058823529
 21
146.9411764706
 31
0.0
  0
LINE
  5
BB
330
1F
100
AcDbEntity
  8
0
  6
Continuous
 62
     7
370
    25
100
AcDbLine
 10
97.7058823529
 20
169.0588235294
 30
0.0
 11
97.7058823529
 21
146.9411764706
 31
0.0
  0
LINE
  5
BC
330
1F
100
AcDbEntity
  8
0
  6
Continuous
 62
     7
370
    25
100
AcDbLine
 10
97.7058823529
 20
146.9411764706
 30
0.0
 11
68.2941176471
 21
146.9411764706
 31
0.0
  0
CIRCLE
  5
BD
330
1F
100
AcDbEntity
  8
0
  6
Continuous
 62
     7
370
    25
100
AcDbCircle
 10
83.0
 20
158.0
 30
0.0
 40
4.411764705882376
  0
CIRCLE
  5
BE
330
1F
100
AcDbEntity
  8
0
  6
Continuous
 62
     7
370
    25
100
AcDbCircle
 10
83.0
 20
158.0
 30
0.0
 40
3.70588235294116
  0
LINE
  5
BF
330
1F
100
AcDbEntity
  8
0
  6
Continuous
 62
     7
370
    25
100
AcDbLine
 10
68.5865036911
 20
146.2352941176
 30
0.0
 11
68.2941176471
 21
146.9411764706
 31
0.0
  0
LINE
  5
C0
330
1F
100
AcDbEntity
  8
0
  6
Continuous
 62
     7
370
    25
100
AcDbLine
 10
97.4134963089
 20
146.2352941176
 30
0.0
 11
97.7058823529
 21
146.9411764706
 31
0.0
  0
LINE
  5
C1
330
1F
100
AcDbEntity
  8
0
  6
Continuous
 62
     7
370
    25
100
AcDbLine
 10
68.5865036911
 20
146.2352941176
 30
0.0
 11
97.4134963089
 21
146.2352941176
 31
0.0
  0
LINE
  5
C2
330
1F
100
AcDbEntity
  8
0
  6
Continuous
 62
     7
370
    25
100
AcDbLine
 10
97.4134963089
 20
146.2352941176
 30
0.0
 11
111.4080044037
 21
146.2352941176
 31
0.0
  0
LINE
  5
C3
330
1F
100
AcDbEntity
  8
0
  6
Continuous
 62
     7
370
    25
100
AcDbLine
 10
54.5919955963
 20
146.2352941176
 30
0.0
 11
68.5865036911
 21
146.2352941176
 31
0.0
  0
CIRCLE
  5
C4
330
1F
100
AcDbEntity
  8
0
  6
Continuous
 62
     7
370
    25
100
AcDbCircle
 10
83.0
 20
158.0
 30
0.0
 40
3.082352941176467
  0
LINE
  5
C5
330
1F
100
AcDbEntity
  8
0
  6
Continuous
 62
     7
370
    25
100
AcDbLine
 10
115.3529411765
 20
169.0588235294
 30
0.0
 11
114.6470588235
 21
169.7647058824
 31
0.0
  0
LINE
  5
C6
330
1F
100
AcDbEntity
  8
0
  6
Continuous
 62
     7
370
    25
100
AcDbLine
 10
111.9071386022
 20
169.0588235294
 30
0.0
 11
115.3529411765
 21
169.0588235294
 31
0.0
  0
LINE
  5
C7
330
1F
100
AcDbEntity
  8
0
  6
Continuous
 62
     7
370
    25
100
AcDbLine
 10
114.6470588235
 20
169.7647058824
 30
0.0
 11
111.4080044037
 21
169.7647058824
 31
0.0
  0
LINE
  5
C8
330
1F
100
AcDbEntity
  8
0
  6
Continuous
 62
     7
370
    25
100
AcDbLine
 10
50.6470588235
 20
169.0588235294
 30
0.0
 11
54.0928613978
 21
169.0588235294
 31
0.0
  0
LINE
  5
C9
330
1F
100
AcDbEntity
  8
0
  6
Continuous
 62
     7
370
    25
100
AcDbLine
 10
50.6470588235
 20
169.0588235294
 30
0.0
 11
51.3529411765
 21
169.7647058824
 31
0.0
  0
LINE
  5
CA
330
1F
100
AcDbEntity
  8
0
  6
Continuous
 62
     7
370
    25
100
AcDbLine
 10
54.5919955963
 20
169.7647058824
 30
0.0
 11
51.3529411765
 21
169.7647058824
 31
0.0
  0
LINE
  5
CB
330
1F
100
AcDbEntity
  8
0
  6
Continuous
 62
     7
370
    25
100
AcDbLine
 10
54.0928613978
 20
146.9411764706
 30
0.0
 11
50.6470588235
 21
146.9411764706
 31
0.0
  0
LINE
  5
CC
330
1F
100
AcDbEntity
  8
0
  6
Continuous
 62
     7
370
    25
100
AcDbLine
 10
50.6470588235
 20
169.0588235294
 30
0.0
 11
50.6470588235
 21
146.9411764706
 31
0.0
  0
LINE
  5
CD
330
1F
100
AcDbEntity
  8
0
  6
Continuous
 62
     7
370
    25
100
AcDbLine
 10
115.3529411765
 20
146.9411764706
 30
0.0
 11
115.3529411765
 21
169.0588235294
 31
0.0
  0
LINE
  5
CE
330
1F
100
AcDbEntity
  8
0
  6
Continuous
 62
     7
370
    25
100
AcDbLine
 10
115.3529411765
 20
146.9411764706
 30
0.0
 11
111.9071386022
 21
146.9411764706
 31
0.0
  0
LINE
  5
CF
330
1F
100
AcDbEntity
  8
0
  6
Continuous
 62
     7
370
    25
100
AcDbLine
 10
115.3529411765
 20
146.9411764706
 30
0.0
 11
114.6470588235
 21
146.2352941176
 31
0.0
  0
LINE
  5
D0
330
1F
100
AcDbEntity
  8
0
  6
Continuous
 62
     7
370
    25
100
AcDbLine
 10
111.4080044037
 20
146.2352941176
 30
0.0
 11
114.6470588235
 21
146.2352941176
 31
0.0
  0
LINE
  5
D1
330
1F
100
AcDbEntity
  8
0
  6
Continuous
 62
     7
370
    25
100
AcDbLine
 10
50.6470588235
 20
146.9411764706
 30
0.0
 11
51.3529411765
 21
146.2352941176
 31
0.0
  0
LINE
  5
D2
330
1F
100
AcDbEntity
  8
0
  6
Continuous
 62
     7
370
    25
100
AcDbLine
 10
51.3529411765
 20
146.2352941176
 30
0.0
 11
54.5919955963
 21
146.2352941176
 31
0.0
  0
LINE
  5
D3
330
1F
100
AcDbEntity
  8
0
  6
Continuous
 62
     7
370
    25
100
AcDbLine
 10
44.7647058824
 20
169.0588235294
 30
0.0
 11
50.6470588235
 21
169.0588235294
 31
0.0
  0
LINE
  5
D4
330
1F
100
AcDbEntity
  8
0
  6
Continuous
 62
     7
370
    25
100
AcDbLine
 10
51.3529411765
 20
169.7647058824
 30
0.0
 11
45.2352942384
 21
169.7647058824
 31
0.0
  0
SPLINE
  5
D5
330
1F
100
AcDbEntity
  8
0
  6
Continuous
 62
     7
370
    25
100
AcDbSpline
210
0.0
220
0.0
230
1.0
 70
     8
 71
     3
 72
     8
 73
     4
 74
     0
 42
0.00000001
 43
0.00000001
 40
0.0
 40
0.0
 40
0.0
 40
0.0
 40
1.0
 40
1.0
 40
1.0
 40
1.0
 10
121.2352941176471
 20
169.0588235294118
 30
0.0
 10
121.3790798292238
 20
169.0588235294118
 30
0.0
 10
121.5235986258104
 20
169.0561332327852
 30
0.0
 10
121.6715784283932
 20
169.050434668524
 30
0.0
  0
SPLINE
  5
D6
330
1F
100
AcDbEntity
  8
0
  6
Continuous
 62
     7
370
    25
100
AcDbSpline
210
0.0
220
0.0
230
1.0
 70
     8
 71
     3
 72
    56
 73
    52
 74
     0
 42
0.00000001
 43
0.00000001
 40
0.0
 40
0.0
 40
0.0
 40
0.0
 40
0.0625000000000004
 40
0.0625000000000004
 40
0.1250000000000009
 40
0.1250000000000009
 40
0.1562500000000011
 40
0.1562500000000011
 40
0.1875000000000013
 40
0.1875000000000013
 40
0.2500000000000017
 40
0.2500000000000017
 40
0.2812500000000017
 40
0.2812500000000017
 40
0.3125000000000017
 40
0.3125000000000017
 40
0.3437500000000017
 40
0.3437500000000017
 40
0.3750000000000017
 40
0.3750000000000017
 40
0.4375000000000015
 40
0.4375000000000015
 40
0.4687500000000014
 40
0.4687500000000014
 40
0.5000000000000012
 40
0.5000000000000012
 40
0.5312500000000012
 40
0.5312500000000012
 40
0.5625000000000011
 40
0.5625000000000011
 40
0.6250000000000009
 40
0.6250000000000009
 40
0.6562500000000008
 40
0.6562500000000008
 40
0.6875000000000007
 40
0.6875000000000007
 40
0.7500000000000006
 40
0.7500000000000006
 40
0.7812500000000007
 40
0.7812500000000007
 40
0.8125000000000008
 40
0.8125000000000008
 40
0.8437500000000009
 40
0.8437500000000009
 40
0.875000000000001
 40
0.875000000000001
 40
0.9375000000000008
 40
0.9375000000000008
 40
0.9687500000000004
 40
0.9687500000000004
 40
1.0
 40
1.0
 40
1.0
 40
1.0
 10
121.6715784283922
 20
169.050434668524
 30
0.0
 10
122.2461872707286
 20
169.0283070176156
 30
0.0
 10
122.8461625217847
 20
168.9626376740642
 30
0.0
 10
124.0901537465966
 20
168.7090651902714
 30
0.0
 10
124.7180483657495
 20
168.5253469044811
 30
0.0
 10
125.6597704020041
 20
168.1512958333797
 30
0.0
 10
125.9735859221099
 20
168.0099093257103
 30
0.0
 10
126.5989414648585
 20
167.6894014434628
 30
0.0
 10
126.9084064179377
 20
167.5114514095074
 30
0.0
 10
127.8084925288064
 20
166.9355466203653
 30
0.0
 10
128.3750044677504
 20
166.4877739938248
 30
0.0
 10
129.1688949743491
 20
165.7210657167518
 30
0.0
 10
129.4242453055623
 20
165.4496755006928
 30
0.0
 10
129.902609464022
 20
164.8873237048495
 30
0.0
 10
130.1268846238836
 20
164.5945792122658
 30
0.0
 10
130.5456580240744
 20
163.9864200703936
 30
0.0
 10
130.7403565877999
 20
163.6711510801052
 30
0.0
 10
131.0998142884982
 20
163.0181900490506
 30
0.0
 10
131.2639336243545
 20
162.6799423325412
 30
0.0
 10
131.6992406804096
 20
161.6532830238905
 30
0.0
 10
131.9220583374399
 20
160.9470755567784
 30
0.0
 10
132.1444150056663
 20
159.8519584897719
 30
0.0
 10
132.2002440213184
 20
159.4793840247237
 30
0.0
 10
132.2751726785711
 20
158.7377001545377
 30
0.0
 10
132.2947829226508
 20
158.3671857042472
 30
0.0
 10
132.2949325029649
 20
157.6268731073066
 30
0.0
 10
132.2754400899981
 20
157.2570755426359
 30
0.0
 10
132.2006494488268
 20
156.5181371718056
 30
0.0
 10
132.145104698647
 20
156.147419876044
 30
0.0
 10
131.9215397751908
 20
155.0472780707207
 30
0.0
 10
131.6973858282655
 20
154.3419141625932
 30
0.0
 10
131.263750894069
 20
153.3206542157504
 30
0.0
 10
131.1024924584733
 20
152.9865454968535
 30
0.0
 10
130.742969771518
 20
152.3323893013936
 30
0.0
 10
130.5454731002855
 20
152.0140834629675
 30
0.0
 10
129.9167948487932
 20
151.099806364071
 30
0.0
 10
129.4414031222145
 20
150.5405436034104
 30
0.0
 10
128.6490147285193
 20
149.776248814989
 30
0.0
 10
128.370361369172
 20
149.5324930053058
 30
0.0
 10
127.8010060106368
 20
149.0812110651908
 30
0.0
 10
127.5091454399428
 20
148.8725792028619
 30
0.0
 10
126.9121767202468
 20
148.4891812794825
 30
0.0
 10
126.607071845782
 20
148.3144128997578
 30
0.0
 10
125.9856835067878
 20
147.9970321045387
 30
0.0
 10
125.6675177026396
 20
147.8535312496387
 30
0.0
 10
124.716408877927
 20
147.4747827903785
 30
0.0
 10
124.0881937353794
 20
147.2902118747677
 30
0.0
 10
123.1618442080369
 20
147.1009795230567
 30
0.0
 10
122.8546821564477
 20
147.0524859490363
 30
0.0
 10
122.2533559947827
 20
146.9823742642377
 30
0.0
 10
121.9591208213528
 20
146.9606383210021
 30
0.0
 10
121.6715784283922
 20
146.949565331476
 30
0.0
  0
SPLINE
  5
D7
330
1F
100
AcDbEntity
  8
0
  6
Continuous
 62
     7
370
    25
100
AcDbSpline
210
0.0
220
0.0
230
1.0
 70
     8
 71
     3
 72
     8
 73
     4
 74
     0
 42
0.00000001
 43
0.00000001
 40
0.0
 40
0.0
 40
0.0
 40
0.0
 40
1.0
 40
1.0
 40
1.0
 40
1.0
 10
121.6715784283932
 20
146.949565331476
 30
0.0
 10
121.5235986258104
 20
146.9438667672149
 30
0.0
 10
121.3790798292238
 20
146.9411764705882
 30
0.0
 10
121.2352941176471
 20
146.9411764705882
 30
0.0
  0
LINE
  5
D8
330
1F
100
AcDbEntity
  8
0
  6
Continuous
 62
     7
370
    25
100
AcDbLine
 10
121.2352941176
 20
146.9411764706
 30
0.0
 11
115.3529411765
 21
146.9411764706
 31
0.0
  0
LINE
  5
D9
330
1F
100
AcDbEntity
  8
0
  6
Continuous
 62
     7
370
    25
100
AcDbLine
 10
115.3529411765
 20
169.0588235294
 30
0.0
 11
121.2352941176
 21
169.0588235294
 31
0.0
  0
LINE
  5
DA
330
1F
100
AcDbEntity
  8
0
  6
Continuous
 62
     7
370
    25
100
AcDbLine
 10
120.7647057616
 20
169.7647058824
 30
0.0
 11
114.6470588235
 21
169.7647058824
 31
0.0
  0
LINE
  5
DB
330
1F
100
AcDbEntity
  8
0
  6
Continuous
 62
     7
370
    25
100
AcDbLine
 10
50.6470588235
 20
146.9411764706
 30
0.0
 11
44.7647058824
 21
146.9411764706
 31
0.0
  0
SPLINE
  5
DC
330
1F
100
AcDbEntity
  8
0
  6
Continuous
 62
     7
370
    25
100
AcDbSpline
210
0.0
220
0.0
230
1.0
 70
     8
 71
     3
 72
     8
 73
     4
 74
     0
 42
0.00000001
 43
0.00000001
 40
0.0
 40
0.0
 40
0.0
 40
0.0
 40
1.0
 40
1.0
 40
1.0
 40
1.0
 10
44.76470588235294
 20
146.9411764705882
 30
0.0
 10
44.62092017077624
 20
146.9411764705882
 30
0.0
 10
44.47640137418962
 20
146.9438667672149
 30
0.0
 10
44.32842157160681
 20
146.949565331476
 30
0.0
  0
SPLINE
  5
DD
330
1F
100
AcDbEntity
  8
0
  6
Continuous
 62
     7
370
    25
100
AcDbSpline
210
0.0
220
0.0
230
1.0
 70
     8
 71
     3
 72
    56
 73
    52
 74
     0
 42
0.00000001
 43
0.00000001
 40
0.0
 40
0.0
 40
0.0
 40
0.0
 40
0.0625000000000001
 40
0.0625000000000001
 40
0.1250000000000002
 40
0.1250000000000002
 40
0.1562500000000003
 40
0.1562500000000003
 40
0.1875000000000004
 40
0.1875000000000004
 40
0.2500000000000006
 40
0.2500000000000006
 40
0.2812500000000004
 40
0.2812500000000004
 40
0.3125000000000003
 40
0.3125000000000003
 40
0.3437500000000002
 40
0.3437500000000002
 40
0.3750000000000001
 40
0.3750000000000001
 40
0.4375
 40
0.4375
 40
0.4687499999999999
 40
0.4687499999999999
 40
0.4999999999999998
 40
0.4999999999999998
 40
0.5312499999999998
 40
0.5312499999999998
 40
0.5624999999999997
 40
0.5624999999999997
 40
0.6249999999999994
 40
0.6249999999999994
 40
0.6562499999999994
 40
0.6562499999999994
 40
0.6874999999999993
 40
0.6874999999999993
 40
0.7499999999999992
 40
0.7499999999999992
 40
0.7812499999999993
 40
0.7812499999999993
 40
0.8124999999999994
 40
0.8124999999999994
 40
0.8437499999999994
 40
0.8437499999999994
 40
0.8749999999999996
 40
0.8749999999999996
 40
0.9374999999999997
 40
0.9374999999999997
 40
0.9687499999999998
 40
0.9687499999999998
 40
1.0
 40
1.0
 40
1.0
 40
1.0
 10
44.32842157160755
 20
146.949565331476
 30
0.0
 10
43.75329302148586
 20
146.971712995847
 30
0.0
 10
43.1522791337983
 20
147.0366431134862
 30
0.0
 10
41.9075511562151
 20
147.2910382224819
 30
0.0
 10
41.27956267178983
 20
147.476635995323
 30
0.0
 10
40.33691531411768
 20
147.8515354146501
 30
0.0
 10
40.02260220412464
 20
147.9926929638469
 30
0.0
 10
39.39611024411047
 20
148.3126180751218
 30
0.0
 10
39.08666530109362
 20
148.4906426944508
 30
0.0
 10
38.18812000465015
 20
149.0694632983642
 30
0.0
 10
37.62087023259428
 20
149.5167073723386
 30
0.0
 10
36.82563663716584
 20
150.2825794433803
 30
0.0
 10
36.57019915616902
 20
150.5541235431691
 30
0.0
 10
36.09284136294199
 20
151.1174699396122
 30
0.0
 10
35.86949101525945
 20
151.4110085843717
 30
0.0
 10
35.45094498936362
 20
152.0195498025606
 30
0.0
 10
35.2556090678318
 20
152.334454912564
 30
0.0
 10
34.8969354106596
 20
152.9881692008719
 30
0.0
 10
34.73372526170713
 20
153.3269809022776
 30
0.0
 10
34.29850410975513
 20
154.3544423954258
 30
0.0
 10
34.07494307862139
 20
155.0610532215191
 30
0.0
 10
33.85361688410718
 20
156.1576715869303
 30
0.0
 10
33.79821389002799
 20
156.5305726690827
 30
0.0
 10
33.72384786074056
 20
157.2725083362205
 30
0.0
 10
33.70433487315759
 20
157.643183838619
 30
0.0
 10
33.7047997693363
 20
158.3838818239915
 30
0.0
 10
33.72488338913387
 20
158.7539025593547
 30
0.0
 10
33.80144406104655
 20
159.4933419327797
 30
0.0
 10
33.8579896192798
 20
159.8644494611583
 30
0.0
 10
34.0824701494651
 20
160.9647874953357
 30
0.0
 10
34.3075568925956
 20
161.6703478471227
 30
0.0
 10
34.74260333104532
 20
162.6921397726752
 30
0.0
 10
34.9039429123858
 20
163.0266121129422
 30
0.0
 10
35.26327149199037
 20
163.6817222856764
 30
0.0
 10
35.46033432937674
 20
164.0001199491776
 30
0.0
 10
36.0922687758143
 20
164.9113012817373
 30
0.0
 10
36.57103183480672
 20
165.4673927699592
 30
0.0
 10
37.36206331087018
 20
166.2323932325229
 30
0.0
 10
37.63983825180476
 20
166.4768327165107
 30
0.0
 10
38.20814646948699
 20
166.9282713049512
 30
0.0
 10
38.49997559424193
 20
167.1360552308041
 30
0.0
 10
39.09718726082986
 20
167.5170412831657
 30
0.0
 10
39.40253798255349
 20
167.6902927942673
 30
0.0
 10
40.02347108762964
 20
168.0062186228758
 30
0.0
 10
40.34058236045649
 20
168.1505991187282
 30
0.0
 10
41.28968222743664
 20
168.529452374037
 30
0.0
 10
41.91735474010903
 20
168.7098305457208
 30
0.0
 10
42.84168359922257
 20
168.8978717207325
 30
0.0
 10
43.14802049137403
 20
168.9465213697032
 30
0.0
 10
43.74794511369792
 20
169.0172248527086
 30
0.0
 10
44.04150255124308
 20
169.0393856844954
 30
0.0
 10
44.32842157160755
 20
169.050434668524
 30
0.0
  0
SPLINE
  5
DE
330
1F
100
AcDbEntity
  8
0
  6
Continuous
 62
     7
370
    25
100
AcDbSpline
210
0.0
220
0.0
230
1.0
 70
     8
 71
     3
 72
     8
 73
     4
 74
     0
 42
0.00000001
 43
0.00000001
 40
0.0
 40
0.0
 40
0.0
 40
0.0
 40
1.0
 40
1.0
 40
1.0
 40
1.0
 10
44.32842157160681
 20
169.050434668524
 30
0.0
 10
44.47640137418962
 20
169.0561332327852
 30
0.0
 10
44.62092017077624
 20
169.0588235294118
 30
0.0
 10
44.76470588235294
 20
169.0588235294118
 30
0.0
  0
LINE
  5
DF
330
1F
100
AcDbEntity
  8
0
  6
Continuous
 62
     7
370
    25
100
AcDbLine
 10
45.2352942384
 20
146.2352941176
 30
0.0
 11
51.3529411765
 21
146.2352941176
 31
0.0
  0
LINE
  5
E0
330
1F
100
AcDbEntity
  8
0
  6
Continuous
 62
     7
370
    25
100
AcDbLine
 10
114.6470588235
 20
146.2352941176
 30
0.0
 11
120.7647057616
 21
146.2352941176
 31
0.0
  0
SPLINE
  5
E1
330
1F
100
AcDbEntity
  8
0
  6
Continuous
 62
     7
370
    25
100
AcDbSpline
210
0.0
220
0.0
230
1.0
 70
     8
 71
     3
 72
    52
 73
    48
 74
     0
 42
0.00000001
 43
0.00000001
 40
0.0
 40
0.0
 40
0.0
 40
0.0
 40
0.0312499999999999
 40
0.0312499999999999
 40
0.0624999999999998
 40
0.0624999999999998
 40
0.1249999999999995
 40
0.1249999999999995
 40
0.1562499999999996
 40
0.1562499999999996
 40
0.1874999999999997
 40
0.1874999999999997
 40
0.2499999999999998
 40
0.2499999999999998
 40
0.3124999999999999
 40
0.3124999999999999
 40
0.3750000000000001
 40
0.3750000000000001
 40
0.4062500000000002
 40
0.4062500000000002
 40
0.4375000000000003
 40
0.4375000000000003
 40
0.5000000000000003
 40
0.5000000000000003
 40
0.5312500000000003
 40
0.5312500000000003
 40
0.5625000000000003
 40
0.5625000000000003
 40
0.6250000000000003
 40
0.6250000000000003
 40
0.6562500000000003
 40
0.6562500000000003
 40
0.6875000000000003
 40
0.6875000000000003
 40
0.7187500000000004
 40
0.7187500000000004
 40
0.7500000000000004
 40
0.7500000000000004
 40
0.8125000000000006
 40
0.8125000000000006
 40
0.8437500000000006
 40
0.8437500000000006
 40
0.8750000000000004
 40
0.8750000000000004
 40
0.9375000000000002
 40
0.9375000000000002
 40
1.0
 40
1.0
 40
1.0
 40
1.0
 10
44.7647058821887
 20
169.764705882353
 30
0.0
 10
44.45130937407023
 20
169.7647058823486
 30
0.0
 10
44.13017586834922
 20
169.7522008696583
 30
0.0
 10
43.47345072595453
 20
169.6982696900243
 30
0.0
 10
43.13662407846516
 20
169.6566441363339
 30
0.0
 10
42.11334299371536
 20
169.4829165660585
 30
0.0
 10
41.42074982654395
 20
169.3036825496045
 30
0.0
 10
40.37879465026093
 20
168.9228582046672
 30
0.0
 10
40.03040891526959
 20
168.7769880462755
 30
0.0
 10
39.33476608893271
 20
168.4437920776857
 30
0.0
 10
38.99413144327815
 20
168.2596247191927
 30
0.0
 10
37.99708069341116
 20
167.6546388202503
 30
0.0
 10
37.36571966872221
 20
167.1823276363984
 30
0.0
 10
36.18070296107552
 20
166.0854827721766
 30
0.0
 10
35.64932025429369
 20
165.4811650076294
 30
0.0
 10
34.71411483605362
 20
164.1679578986611
 30
0.0
 10
34.30834324859317
 20
163.4520074954021
 30
0.0
 10
33.82334431327507
 20
162.3425581980053
 30
0.0
 10
33.68106319639202
 20
161.9653634616578
 30
0.0
 10
33.43533921770042
 20
161.1963562928694
 30
0.0
 10
33.33189362515996
 20
160.8045556810246
 30
0.0
 10
33.0816843545708
 20
159.6065519572451
 30
0.0
 10
32.99973582023572
 20
158.8018864170385
 30
0.0
 10
33.00013304295067
 20
157.5932569887669
 30
0.0
 10
33.02090316992148
 20
157.1897107673459
 30
0.0
 10
33.10481358416333
 20
156.3812404799705
 30
0.0
 10
33.16821303568722
 20
155.9768301075416
 30
0.0
 10
33.41767464428494
 20
154.7894829678733
 30
0.0
 10
33.6631364947262
 20
154.0226687455388
 30
0.0
 10
34.15035237896475
 20
152.9100363682229
 30
0.0
 10
34.33400310154439
 20
152.5435352581033
 30
0.0
 10
34.73423709994427
 20
151.8386475521803
 30
0.0
 10
34.95109115864502
 20
151.4990485587774
 30
0.0
 10
35.41697427087234
 20
150.845328986862
 30
0.0
 10
35.66602489491836
 20
150.5311659713558
 30
0.0
 10
36.19633667845425
 20
149.9282884934967
 30
0.0
 10
36.47912077191464
 20
149.638212445157
 30
0.0
 10
37.36569565896117
 20
148.8178770887169
 30
0.0
 10
37.99656623614309
 20
148.3458053619499
 30
0.0
 10
38.99219806910565
 20
147.7414826112791
 30
0.0
 10
39.33286124637264
 20
147.557203612891
 30
0.0
 10
40.02819002188468
 20
147.2239919248556
 30
0.0
 10
40.37652875675969
 20
147.0780381017371
 30
0.0
 10
41.41956621822651
 20
146.6966143167888
 30
0.0
 10
42.11370281457238
 20
146.5169348000509
 30
0.0
 10
43.48025004035684
 20
146.2851044886595
 30
0.0
 10
44.13799347144202
 20
146.2352941176558
 30
0.0
 10
44.76470588218871
 20
146.2352941176471
 30
0.0
  0
SPLINE
  5
E2
330
1F
100
AcDbEntity
  8
0
  6
Continuous
 62
     7
370
    25
100
AcDbSpline
210
0.0
220
0.0
230
1.0
 70
     8
 71
     3
 72
    52
 73
    48
 74
     0
 42
0.00000001
 43
0.00000001
 40
0.0
 40
0.0
 40
0.0
 40
0.0
 40
0.0312499999999999
 40
0.0312499999999999
 40
0.0624999999999997
 40
0.0624999999999997
 40
0.1249999999999994
 40
0.1249999999999994
 40
0.1562499999999993
 40
0.1562499999999993
 40
0.1874999999999991
 40
0.1874999999999991
 40
0.2499999999999992
 40
0.2499999999999992
 40
0.3124999999999993
 40
0.3124999999999993
 40
0.3437499999999993
 40
0.3437499999999993
 40
0.3749999999999993
 40
0.3749999999999993
 40
0.4374999999999994
 40
0.4374999999999994
 40
0.4999999999999996
 40
0.4999999999999996
 40
0.5312499999999997
 40
0.5312499999999997
 40
0.5624999999999997
 40
0.5624999999999997
 40
0.6249999999999999
 40
0.6249999999999999
 40
0.6562499999999999
 40
0.6562499999999999
 40
0.6875
 40
0.6875
 40
0.7187500000000001
 40
0.7187500000000001
 40
0.7500000000000001
 40
0.7500000000000001
 40
0.8124999999999999
 40
0.8124999999999999
 40
0.84375
 40
0.84375
 40
0.875
 40
0.875
 40
0.9375
 40
0.9375
 40
1.0
 40
1.0
 40
1.0
 40
1.0
 10
121.2352941178113
 20
146.2352941176471
 30
0.0
 10
121.5485240425054
 20
146.2352941176514
 30
0.0
 10
121.869811189387
 20
146.2477954497237
 30
0.0
 10
122.5267478827228
 20
146.3017492385171
 30
0.0
 10
122.8636993288895
 20
146.343413424459
 30
0.0
 10
123.8857467184311
 20
146.5169235822225
 30
0.0
 10
124.5762024368032
 20
146.6954192901144
 30
0.0
 10
125.6181970560989
 20
147.0759351172906
 30
0.0
 10
125.9671651533986
 20
147.22195830856
 30
0.0
 10
126.662300316912
 20
147.5546953172948
 30
0.0
 10
127.0024883089587
 20
147.7384927954651
 30
0.0
 10
127.9985414258289
 20
148.3423704694351
 30
0.0
 10
128.6301816968464
 20
148.8143721224856
 30
0.0
 10
129.8156741070725
 20
149.9106736343355
 30
0.0
 10
130.3471157550141
 20
150.5145200762819
 30
0.0
 10
131.0488006612769
 20
151.4987890742007
 30
0.0
 10
131.2671674381386
 20
151.840766840404
 30
0.0
 10
131.6696060157652
 20
152.5502504052528
 30
0.0
 10
131.8508317546402
 20
152.9126074398294
 30
0.0
 10
132.336371024573
 20
154.0218110217722
 30
0.0
 10
132.5831588390318
 20
154.7905988158086
 30
0.0
 10
132.9175949226346
 20
156.3881260602255
 30
0.0
 10
132.9998856532443
 20
157.1925220595313
 30
0.0
 10
133.0000569960708
 20
158.4012373912192
 30
0.0
 10
132.9794738533414
 20
158.804837546878
 30
0.0
 10
132.8959217740675
 20
159.6134694913386
 30
0.0
 10
132.8327065051722
 20
160.017893156413
 30
0.0
 10
132.5837815318632
 20
161.2053685314865
 30
0.0
 10
132.3386602717451
 20
161.972335539795
 30
0.0
 10
131.8518668693672
 20
163.0853376268747
 30
0.0
 10
131.6683386920818
 20
163.4519830498495
 30
0.0
 10
131.2684458885259
 20
164.1569800885255
 30
0.0
 10
131.0518089926383
 20
164.4965713779944
 30
0.0
 10
130.586217089766
 20
165.1504995300887
 30
0.0
 10
130.3372448116468
 20
165.464851325533
 30
0.0
 10
129.8071384180429
 20
166.068023118341
 30
0.0
 10
129.5244498756549
 20
166.3582420979508
 30
0.0
 10
128.6385009596418
 20
167.178718404751
 30
0.0
 10
128.0077260600472
 20
167.6512578395758
 30
0.0
 10
127.0111391658476
 20
168.2566561523716
 30
0.0
 10
126.6702002492873
 20
168.4411967679208
 30
0.0
 10
125.9752970073993
 20
168.7744683029522
 30
0.0
 10
125.6270282045687
 20
168.9205419129884
 30
0.0
 10
124.5832924656334
 20
169.3025771141511
 30
0.0
 10
123.8874633939997
 20
169.4828268985145
 30
0.0
 10
122.5199172752079
 20
169.7149075452919
 30
0.0
 10
121.8623935473156
 20
169.7647058823442
 30
0.0
 10
121.2352941178113
 20
169.764705882353
 30
0.0
  0
SPLINE
  5
E3
330
1F
100
AcDbEntity
  8
0
  6
Continuous
 62
     7
370
    25
100
AcDbSpline
210
0.0
220
0.0
230
1.0
 70
    24
 71
     3
 72
     8
 73
     4
 74
     0
 42
0.00000001
 43
0.00000001
 40
0.0
 40
0.0
 40
0.0
 40
0.0
 40
1.0
 40
1.0
 40
1.0
 40
1.0
 10
45.23529423842376
 20
169.764705882353
 30
0.0
 10
45.08060065052376
 20
169.764705882353
 30
0.0
 10
44.9248209200226
 20
169.764705882353
 30
0.0
 10
44.76470588218777
 20
169.764705882353
 30
0.0
  0
SPLINE
  5
E4
330
1F
100
AcDbEntity
  8
0
  6
Continuous
 62
     7
370
    25
100
AcDbSpline
210
0.0
220
0.0
230
1.0
 70
    24
 71
     3
 72
     8
 73
     4
 74
     0
 42
0.00000001
 43
0.00000001
 40
0.0
 40
0.0
 40
0.0
 40
0.0
 40
1.0
 40
1.0
 40
1.0
 40
1.0
 10
44.76470588218777
 20
146.2352941176471
 30
0.0
 10
44.9248209200226
 20
146.2352941176471
 30
0.0
 10
45.08060065052376
 20
146.2352941176471
 30
0.0
 10
45.23529423842376
 20
146.2352941176471
 30
0.0
  0
SPLINE
  5
E5
330
1F
100
AcDbEntity
  8
0
  6
Continuous
 62
     7
370
    25
100
AcDbSpline
210
0.0
220
0.0
230
1.0
 70
    24
 71
     3
 72
     8
 73
     4
 74
     0
 42
0.00000001
 43
0.00000001
 40
0.0
 40
0.0
 40
0.0
 40
0.0
 40
1.0
 40
1.0
 40
1.0
 40
1.0
 10
121.2352941178122
 20
169.764705882353
 30
0.0
 10
121.0751790799774
 20
169.764705882353
 30
0.0
 10
120.9193993494765
 20
169.764705882353
 30
0.0
 10
120.7647057615763
 20
169.764705882353
 30
0.0
  0
SPLINE
  5
E6
330
1F
100
AcDbEntity
  8
0
  6
Continuous
 62
     7
370
    25
100
AcDbSpline
210
0.0
220
0.0
230
1.0
 70
    24
 71
     3
 72
     8
 73
     4
 74
     0
 42
0.00000001
 43
0.00000001
 40
0.0
 40
0.0
 40
0.0
 40
0.0
 40
1.0
 40
1.0
 40
1.0
 40
1.0
 10
120.7647057615763
 20
146.2352941176471
 30
0.0
 10
120.9193993494763
 20
146.2352941176471
 30
0.0
 10
121.0751790799774
 20
146.2352941176471
 30
0.0
 10
121.2352941178122
 20
146.2352941176471
 30
0.0
  0
LINE
  5
E7
330
1F
100
AcDbEntity
  8
0
  6
HIDDEN
 62
     7
370
    18
100
AcDbLine
 10
67.5882352941
 20
169.7647058824
 30
0.0
 11
68.2941176471
 21
169.0588235294
 31
0.0
  0
LINE
  5
E8
330
1F
100
AcDbEntity
  8
0
  6
HIDDEN
 62
     7
370
    18
100
AcDbLine
 10
98.4117647059
 20
169.7647058824
 30
0.0
 11
97.7058823529
 21
169.0588235294
 31
0.0
  0
LINE
  5
E9
330
1F
100
AcDbEntity
  8
0
  6
HIDDEN
 62
     7
370
    18
100
AcDbLine
 10
68.2941176471
 20
146.9411764706
 30
0.0
 11
67.5882352941
 21
146.2352941176
 31
0.0
  0
LINE
  5
EA
330
1F
100
AcDbEntity
  8
0
  6
HIDDEN
 62
     7
370
    18
100
AcDbLine
 10
97.7058823529
 20
146.9411764706
 30
0.0
 11
98.4117647059
 21
146.2352941176
 31
0.0
  0
LINE
  5
EB
330
1F
100
AcDbEntity
  8
0
  6
HIDDEN
 62
     7
370
    18
100
AcDbLine
 10
85.9411764706
 20
158.9221608443
 30
0.0
 11
86.0774253574
 21
157.9201287117
 31
0.0
  0
LINE
  5
EC
330
1F
100
AcDbEntity
  8
0
  6
HIDDEN
 62
     7
370
    18
100
AcDbLine
 10
86.0037724579
 20
157.4453983448
 30
0.0
 11
85.9411764706
 21
157.0778391557
 31
0.0
  0
LWPOLYLINE
  5
ED
330
1F
100
AcDbEntity
  8
0
  6
HIDDEN
 62
     7
370
    18
100
AcDbPolyline
 90
        3
 70
   128
 43
0.0
 10
44.7647058824
 20
169.0588235294
 10
43.6807516246
 20
169.0055722714
 10
42.8174092362
 20
168.8860283679
  0
LINE
  5
EE
330
1F
100
AcDbEntity
  8
0
  6
HIDDEN
 62
     7
370
    18
100
AcDbLine
 10
44.0356255616
 20
146.9652358548
 30
0.0
 11
44.7647058824
 21
146.9411764706
 31
0.0
  0
LWPOLYLINE
  5
EF
330
1F
100
AcDbEntity
  8
0
  6
HIDDEN
 62
     7
370
    18
100
AcDbPolyline
 90
        3
 70
   128
 43
0.0
 10
121.2352941176
 20
146.9411764706
 10
122.3192483754
 20
146.9944277286
 10
123.1957967051
 20
147.1163421838
  0
LINE
  5
F0
330
1F
100
AcDbEntity
  8
0
  6
HIDDEN
 62
     7
370
    18
100
AcDbLine
 10
121.956890176
 20
169.0352560905
 30
0.0
 11
121.2352941176
 21
169.0588235294
 31
0.0
  0
INSERT
  5
FC
330
1F
100
AcDbEntity
  8
10
100
AcDbBlockReference
  2
SW_CENTERMARKSYMBOL_0
 10
83.0
 20
158.0
 30
0.0
  0
LINE
  5
FD
330
1F
100
AcDbEntity
  8
0
  6
Continuous
 62
     7
370
    25
100
AcDbLine
 10
211.9411764706
 20
21.7058823529
 30
0.0
 11
234.0588235294
 21
21.7058823529
 31
0.0
  0
LINE
  5
FE
330
1F
100
AcDbEntity
  8
0
  6
Continuous
 62
     7
370
    25
100
AcDbLine
 10
211.9411764706
 20
21.7058823529
 30
0.0
 11
211.2352941176
 21
22.4117647059
 31
0.0
  0
LINE
  5
FF
330
1F
100
AcDbEntity
  8
0
  6
Continuous
 62
     7
370
    25
100
AcDbLine
 10
234.7647058824
 20
22.4117647059
 30
0.0
 11
211.2352941176
 21
22.4117647059
 31
0.0
  0
LINE
  5
100
330
1F
100
AcDbEntity
  8
0
  6
Continuous
 62
     7
370
    25
100
AcDbLine
 10
234.0588235294
 20
21.7058823529
 30
0.0
 11
234.7647058824
 21
22.4117647059
 31
0.0
  0
LINE
  5
101
330
1F
100
AcDbEntity
  8
0
  6
Continuous
 62
     7
370
    25
100
AcDbLine
 10
211.2352941176
 20
34.0903056922
 30
0.0
 11
211.2352941176
 21
22.4117647059
 31
0.0
  0
SPLINE
  5
102
330
1F
100
AcDbEntity
  8
0
  6
Continuous
 62
     7
370
    25
100
AcDbSpline
210
0.0
220
0.0
230
1.0
 70
     8
 71
     3
 72
    52
 73
    48
 74
     0
 42
0.00000001
 43
0.00000001
 40
0.0
 40
0.0
 40
0.0
 40
0.0
 40
0.0312499999999999
 40
0.0312499999999999
 40
0.0624999999999997
 40
0.0624999999999997
 40
0.1249999999999994
 40
0.1249999999999994
 40
0.1562499999999993
 40
0.1562499999999993
 40
0.1874999999999991
 40
0.1874999999999991
 40
0.2499999999999992
 40
0.2499999999999992
 40
0.3124999999999993
 40
0.3124999999999993
 40
0.3437499999999993
 40
0.3437499999999993
 40
0.3749999999999993
 40
0.3749999999999993
 40
0.4374999999999994
 40
0.4374999999999994
 40
0.4999999999999996
 40
0.4999999999999996
 40
0.5312499999999997
 40
0.5312499999999997
 40
0.5624999999999997
 40
0.5624999999999997
 40
0.6249999999999999
 40
0.6249999999999999
 40
0.6562499999999999
 40
0.6562499999999999
 40
0.6875
 40
0.6875
 40
0.7187500000000001
 40
0.7187500000000001
 40
0.7500000000000001
 40
0.7500000000000001
 40
0.8124999999999999
 40
0.8124999999999999
 40
0.84375
 40
0.84375
 40
0.875
 40
0.875
 40
0.9375
 40
0.9375
 40
1.0
 40
1.0
 40
1.0
 40
1.0
 10
211.2352941176471
 20
34.09030569220052
 30
0.0
 10
211.2352941176514
 20
33.82888328334933
 30
0.0
 10
211.2477954497237
 20
33.57969578361465
 30
0.0
 10
211.3017492385171
 20
33.10381326845105
 30
0.0
 10
211.3434134244591
 20
32.87635329673709
 30
0.0
 10
211.5169235822225
 20
32.23282203001457
 30
0.0
 10
211.6954192901144
 20
31.85877428311206
 30
0.0
 10
212.0759351172906
 20
31.37691896749354
 30
0.0
 10
212.22195830856
 20
31.22926886275313
 30
0.0
 10
212.5546953172948
 20
30.95932116439003
 30
0.0
 10
212.7384927954651
 20
30.83906096889381
 30
0.0
 10
213.3423704694351
 20
30.51497936181558
 30
0.0
 10
213.8143721224856
 20
30.34753826531938
 30
0.0
 10
214.9106736343355
 20
30.09698440871334
 30
0.0
 10
215.5145200762819
 20
30.01592280306641
 30
0.0
 10
216.4987890742007
 20
29.92859070387243
 30
0.0
 10
216.840766840404
 20
29.90709983258916
 30
0.0
 10
217.5502504052528
 20
29.8728140769928
 30
0.0
 10
217.9126074398294
 20
29.85971576558543
 30
0.0
 10
219.0218110217722
 20
29.83157461471908
 30
0.0
 10
219.7905988158086
 20
29.82979252989581
 30
0.0
 10
221.3881260602255
 20
29.82320917053566
 30
0.0
 10
222.1925220595313
 20
29.82457383200759
 30
0.0
 10
223.4012373912192
 20
29.82399311790273
 30
0.0
 10
223.804837546878
 20
29.8226277424117
 30
0.0
 10
224.6134694913386
 20
29.82273984759508
 30
0.0
 10
225.017893156413
 20
29.82409426747746
 30
0.0
 10
226.2053685314865
 20
29.82893723898893
 30
0.0
 10
226.972335539795
 20
29.83160089881391
 30
0.0
 10
228.0853376268747
 20
29.8599649668163
 30
0.0
 10
228.4519830498495
 20
29.87250809477535
 30
0.0
 10
229.1569800885255
 20
29.9066416148807
 30
0.0
 10
229.4965713779944
 20
29.92884138254241
 30
0.0
 10
230.1504995300887
 20
29.98576779568986
 30
0.0
 10
230.464851325533
 20
30.02022025978524
 30
0.0
 10
231.068023118341
 20
30.10553839637555
 30
0.0
 10
231.3582420979508
 20
30.15733631950631
 30
0.0
 10
232.178718404751
 20
30.34641725144837
 30
0.0
 10
232.6512578395758
 20
30.51224515573811
 30
0.0
 10
233.2566561523716
 20
30.83440337384336
 30
0.0
 10
233.4411967679208
 20
30.9557749022021
 30
0.0
 10
233.7744683029523
 20
31.22724380581565
 30
0.0
 10
233.9205419129884
 20
31.37478537190526
 30
0.0
 10
234.3025771141511
 20
31.85631549790972
 30
0.0
 10
234.4828268985145
 20
32.23112597657514
 30
0.0
 10
234.7149075452919
 20
33.09192082582954
 30
0.0
 10
234.7647058823442
 20
33.56692707947597
 30
0.0
 10
234.764705882353
 20
34.09030569220052
 30
0.0
  0
LINE
  5
103
330
1F
100
AcDbEntity
  8
0
  6
Continuous
 62
     7
370
    25
100
AcDbLine
 10
234.7647058824
 20
22.4117647059
 30
0.0
 11
234.7647058824
 21
34.0903056922
 31
0.0
  0
SPLINE
  5
104
330
1F
100
AcDbEntity
  8
0
  6
Continuous
 62
     7
370
    25
100
AcDbSpline
210
0.0
220
0.0
230
1.0
 70
     8
 71
     3
 72
    56
 73
    52
 74
     0
 42
0.00000001
 43
0.00000001
 40
0.0
 40
0.0
 40
0.0
 40
0.0
 40
0.0625000000000004
 40
0.0625000000000004
 40
0.1250000000000009
 40
0.1250000000000009
 40
0.1562500000000011
 40
0.1562500000000011
 40
0.1875000000000013
 40
0.1875000000000013
 40
0.2500000000000017
 40
0.2500000000000017
 40
0.2812500000000017
 40
0.2812500000000017
 40
0.3125000000000017
 40
0.3125000000000017
 40
0.3437500000000017
 40
0.3437500000000017
 40
0.3750000000000017
 40
0.3750000000000017
 40
0.4375000000000015
 40
0.4375000000000015
 40
0.4687500000000014
 40
0.4687500000000014
 40
0.5000000000000012
 40
0.5000000000000012
 40
0.5312500000000012
 40
0.5312500000000012
 40
0.5625000000000011
 40
0.5625000000000011
 40
0.6250000000000009
 40
0.6250000000000009
 40
0.6562500000000008
 40
0.6562500000000008
 40
0.6875000000000007
 40
0.6875000000000007
 40
0.7500000000000006
 40
0.7500000000000006
 40
0.7812500000000007
 40
0.7812500000000007
 40
0.8125000000000008
 40
0.8125000000000008
 40
0.8437500000000009
 40
0.8437500000000009
 40
0.875000000000001
 40
0.875000000000001
 40
0.9375000000000008
 40
0.9375000000000008
 40
0.9687500000000004
 40
0.9687500000000004
 40
1.0
 40
1.0
 40
1.0
 40
1.0
 10
234.050434668524
 20
34.64556451525114
 30
0.0
 10
234.0283070176156
 20
34.16448719368216
 30
0.0
 10
233.9626376740642
 20
33.72432927711491
 30
0.0
 10
233.7090651902714
 20
32.92591480086774
 30
0.0
 10
233.5253469044811
 20
32.57796641230649
 30
0.0
 10
233.1512958333797
 20
32.12464884452618
 30
0.0
 10
233.0099093257103
 20
31.98504068568471
 30
0.0
 10
232.6894014434628
 20
31.72778208788658
 30
0.0
 10
232.5114514095074
 20
31.61108604279222
 30
0.0
 10
231.9355466203653
 20
31.29836679157939
 30
0.0
 10
231.4877739938248
 20
31.13757117519702
 30
0.0
 10
230.7210657167518
 20
30.94814293532693
 30
0.0
 10
230.4496755006928
 20
30.89376436787494
 30
0.0
 10
229.8873237048495
 20
30.80165735760342
 30
0.0
 10
229.5945792122658
 20
30.76358138623206
 30
0.0
 10
228.9864200703936
 20
30.69963694425995
 30
0.0
 10
228.6711510801052
 20
30.67374463026166
 30
0.0
 10
228.0181900490506
 20
30.63108075753544
 30
0.0
 10
227.6799423325412
 20
30.61441045922176
 30
0.0
 10
226.6532830238905
 20
30.57500484020159
 30
0.0
 10
225.9470755567784
 20
30.56173972027027
 30
0.0
 10
224.8519584897719
 20
30.55000885561198
 30
0.0
 10
224.4793840247237
 20
30.5475038705143
 30
0.0
 10
223.7377001545377
 20
30.54426415192068
 30
0.0
 10
223.3671857042472
 20
30.54350879845524
 30
0.0
 10
222.6268731073066
 20
30.5435028166645
 30
0.0
 10
222.2570755426359
 20
30.54425330786232
 30
0.0
 10
221.5181371718056
 20
30.54748562921348
 30
0.0
 10
221.147419876044
 20
30.54997368862319
 30
0.0
 10
220.0472780707207
 20
30.56176464682254
 30
0.0
 10
219.3419141625932
 20
30.57516049043926
 30
0.0
 10
218.3206542157504
 20
30.61443315316522
 30
0.0
 10
217.9865454968535
 20
30.6307906101197
 30
0.0
 10
217.3323893013936
 20
30.67340715433656
 30
0.0
 10
217.0140834629675
 20
30.69966078846745
 30
0.0
 10
216.099806364071
 20
30.79566975955393
 30
0.0
 10
215.5405436034104
 20
30.88341163840345
 30
0.0
 10
214.776248814989
 20
31.07204831142419
 30
0.0
 10
214.5324930053058
 20
31.14494355569683
 30
0.0
 10
214.0812110651908
 20
31.31002694748183
 30
0.0
 10
213.872579202862
 20
31.40241455918223
 30
0.0
 10
213.4891812794825
 20
31.60973161760865
 30
0.0
 10
213.3144128997578
 20
31.72466612189967
 30
0.0
 10
212.9970321045387
 20
31.97984260330874
 30
0.0
 10
212.8535312496387
 20
32.12103374245552
 30
0.0
 10
212.4747827903785
 20
32.57852964626538
 30
0.0
 10
212.2902118747677
 20
32.92731801132895
 30
0.0
 10
212.1009795230567
 20
33.5216472786563
 30
0.0
 10
212.0524859490363
 20
33.73243225395245
 30
0.0
 10
211.9823742642377
 20
34.17406517770043
 30
0.0
 10
211.9606383210021
 20
34.40482661835318
 30
0.0
 10
211.949565331476
 20
34.64556451525115
 30
0.0
  0
SPLINE
  5
105
330
1F
100
AcDbEntity
  8
0
  6
Continuous
 62
     7
370
    25
100
AcDbSpline
210
0.0
220
0.0
230
1.0
 70
     8
 71
     3
 72
     8
 73
     4
 74
     0
 42
0.00000001
 43
0.00000001
 40
0.0
 40
0.0
 40
0.0
 40
0.0
 40
1.0
 40
1.0
 40
1.0
 40
1.0
 10
234.0588235294118
 20
35.02313455139598
 30
0.0
 10
234.0588235294118
 20
34.89452864187244
 30
0.0
 10
234.0561332327852
 20
34.76945701711906
 30
0.0
 10
234.050434668524
 20
34.64556451525056
 30
0.0
  0
SPLINE
  5
106
330
1F
100
AcDbEntity
  8
0
  6
Continuous
 62
     7
370
    25
100
AcDbSpline
210
0.0
220
0.0
230
1.0
 70
     8
 71
     3
 72
     8
 73
     4
 74
     0
 42
0.00000001
 43
0.00000001
 40
0.0
 40
0.0
 40
0.0
 40
0.0
 40
1.0
 40
1.0
 40
1.0
 40
1.0
 10
211.949565331476
 20
34.64556451525056
 30
0.0
 10
211.9438667672149
 20
34.76945701711906
 30
0.0
 10
211.9411764705882
 20
34.89452864187244
 30
0.0
 10
211.9411764705882
 20
35.02313455139598
 30
0.0
  0
LINE
  5
107
330
1F
100
AcDbEntity
  8
0
  6
Continuous
 62
     7
370
    25
100
AcDbLine
 10
211.9411764706
 20
35.0231345514
 30
0.0
 11
211.9411764706
 21
48.1764705882
 31
0.0
  0
LINE
  5
108
330
1F
100
AcDbEntity
  8
0
  6
Continuous
 62
     7
370
    25
100
AcDbLine
 10
234.0588235294
 20
48.1764705882
 30
0.0
 11
234.0588235294
 21
35.0231345514
 31
0.0
  0
SPLINE
  5
109
330
1F
100
AcDbEntity
  8
0
  6
Continuous
 62
     7
370
    25
100
AcDbSpline
210
0.0
220
0.0
230
1.0
 70
    24
 71
     3
 72
     8
 73
     4
 74
     0
 42
0.00000001
 43
0.00000001
 40
0.0
 40
0.0
 40
0.0
 40
0.0
 40
1.0
 40
1.0
 40
1.0
 40
1.0
 10
234.764705882353
 20
34.09030569219981
 30
0.0
 10
234.764705882353
 20
34.22393806760231
 30
0.0
 10
234.764705882353
 20
34.35863880244683
 30
0.0
 10
234.764705882353
 20
34.4970010176572
 30
0.0
  0
SPLINE
  5
10A
330
1F
100
AcDbEntity
  8
0
  6
Continuous
 62
     7
370
    25
100
AcDbSpline
210
0.0
220
0.0
230
1.0
 70
    24
 71
     3
 72
     8
 73
     4
 74
     0
 42
0.00000001
 43
0.00000001
 40
0.0
 40
0.0
 40
0.0
 40
0.0
 40
1.0
 40
1.0
 40
1.0
 40
1.0
 10
211.2352941176471
 20
34.49700101765721
 30
0.0
 10
211.2352941176471
 20
34.35863880244683
 30
0.0
 10
211.2352941176471
 20
34.22393806760231
 30
0.0
 10
211.2352941176471
 20
34.09030569219981
 30
0.0
  0
LINE
  5
10B
330
1F
100
AcDbEntity
  8
0
  6
Continuous
 62
     7
370
    25
100
AcDbLine
 10
234.7647058824
 20
34.4970010177
 30
0.0
 11
234.7647058824
 21
48.1764705882
 31
0.0
  0
LINE
  5
10C
330
1F
100
AcDbEntity
  8
0
  6
Continuous
 62
     7
370
    25
100
AcDbLine
 10
211.2352941176
 20
48.1764702259
 30
0.0
 11
211.2352941176
 21
34.4970010177
 31
0.0
  0
LINE
  5
10D
330
1F
100
AcDbEntity
  8
0
  6
Continuous
 62
     7
370
    25
100
AcDbLine
 10
234.0588235294
 20
78.0928613978
 30
0.0
 11
234.0588235294
 21
69.7739580897
 31
0.0
  0
LINE
  5
10E
330
1F
100
AcDbEntity
  8
0
  6
Continuous
 62
     7
370
    25
100
AcDbLine
 10
234.7647058824
 20
69.7739580897
 30
0.0
 11
234.7647058824
 21
77.5937271993
 31
0.0
  0
LINE
  5
10F
330
1F
100
AcDbEntity
  8
0
  6
Continuous
 62
     7
370
    25
100
AcDbLine
 10
211.9411764706
 20
48.1764705882
 30
0.0
 11
211.9411764706
 21
69.7739580897
 31
0.0
  0
LINE
  5
110
330
1F
100
AcDbEntity
  8
0
  6
Continuous
 62
     7
370
    25
100
AcDbLine
 10
234.0588235294
 20
69.7739580897
 30
0.0
 11
234.0588235294
 21
48.1764705882
 31
0.0
  0
LINE
  5
111
330
1F
100
AcDbEntity
  8
0
  6
Continuous
 62
     7
370
    25
100
AcDbLine
 10
211.9411764706
 20
69.7739580897
 30
0.0
 11
211.9411764706
 21
78.0928613978
 31
0.0
  0
LINE
  5
112
330
1F
100
AcDbEntity
  8
0
  6
Continuous
 62
     7
370
    25
100
AcDbLine
 10
234.7647058824
 20
48.1764705882
 30
0.0
 11
234.7647058824
 21
69.7739580897
 31
0.0
  0
LINE
  5
113
330
1F
100
AcDbEntity
  8
0
  6
Continuous
 62
     7
370
    25
100
AcDbLine
 10
211.2352941176
 20
77.5937271993
 30
0.0
 11
211.2352941176
 21
69.7739580897
 31
0.0
  0
LINE
  5
114
330
1F
100
AcDbEntity
  8
0
  6
Continuous
 62
     7
370
    25
100
AcDbLine
 10
211.2352941176
 20
69.7739580897
 30
0.0
 11
211.2352941176
 21
48.1764702259
 31
0.0
  0
LINE
  5
115
330
1F
100
AcDbEntity
  8
0
  6
Continuous
 62
     7
370
    25
100
AcDbLine
 10
234.7647058824
 20
91.5882352941
 30
0.0
 11
234.0588235294
 21
92.2941176471
 31
0.0
  0
LINE
  5
116
330
1F
100
AcDbEntity
  8
0
  6
Continuous
 62
     7
370
    25
100
AcDbLine
 10
234.0588235294
 20
92.2941176471
 30
0.0
 11
234.0588235294
 21
78.0928613978
 31
0.0
  0
LINE
  5
117
330
1F
100
AcDbEntity
  8
0
  6
Continuous
 62
     7
370
    25
100
AcDbLine
 10
234.7647058824
 20
77.5937271993
 30
0.0
 11
234.7647058824
 21
91.5882352941
 31
0.0
  0
LINE
  5
118
330
1F
100
AcDbEntity
  8
0
  6
Continuous
 62
     7
370
    25
100
AcDbLine
 10
211.9411764706
 20
78.0928613978
 30
0.0
 11
211.9411764706
 21
92.2941176471
 31
0.0
  0
LINE
  5
119
330
1F
100
AcDbEntity
  8
0
  6
Continuous
 62
     7
370
    25
100
AcDbLine
 10
234.0588235294
 20
92.2941176471
 30
0.0
 11
211.9411764706
 21
92.2941176471
 31
0.0
  0
LINE
  5
11A
330
1F
100
AcDbEntity
  8
0
  6
Continuous
 62
     7
370
    25
100
AcDbLine
 10
211.2352941176
 20
91.5882352941
 30
0.0
 11
211.9411764706
 21
92.2941176471
 31
0.0
  0
LINE
  5
11B
330
1F
100
AcDbEntity
  8
0
  6
Continuous
 62
     7
370
    25
100
AcDbLine
 10
211.2352941176
 20
91.5882352941
 30
0.0
 11
211.2352941176
 21
77.5937271993
 31
0.0
  0
LINE
  5
11C
330
1F
100
AcDbEntity
  8
0
  6
HIDDEN
 62
     7
370
    18
100
AcDbLine
 10
234.7647058824
 20
69.4705882353
 30
0.0
 11
234.0588235294
 21
68.7647058824
 31
0.0
  0
LINE
  5
11D
330
1F
100
AcDbEntity
  8
0
  6
HIDDEN
 62
     7
370
    18
100
AcDbLine
 10
234.0588235294
 20
27.5882352941
 30
0.0
 11
234.0588235294
 21
30.5294117647
 31
0.0
  0
LINE
  5
11E
330
1F
100
AcDbEntity
  8
0
  6
HIDDEN
 62
     7
370
    18
100
AcDbLine
 10
234.7647058824
 20
26.8823529412
 30
0.0
 11
234.0588235294
 21
27.5882352941
 31
0.0
  0
LINE
  5
11F
330
1F
100
AcDbEntity
  8
0
  6
HIDDEN
 62
     7
370
    18
100
AcDbLine
 10
211.9411764706
 20
68.7647058824
 30
0.0
 11
211.2352941176
 21
69.4705882353
 31
0.0
  0
LINE
  5
120
330
1F
100
AcDbEntity
  8
0
  6
HIDDEN
 62
     7
370
    18
100
AcDbLine
 10
211.9411764706
 20
27.5882352941
 30
0.0
 11
211.2352941176
 21
26.8823529412
 31
0.0
  0
LINE
  5
121
330
1F
100
AcDbEntity
  8
0
  6
HIDDEN
 62
     7
370
    18
100
AcDbLine
 10
211.9411764706
 20
30.5294117647
 30
0.0
 11
211.9411764706
 21
27.5882352941
 31
0.0
  0
LINE
  5
122
330
1F
100
AcDbEntity
  8
0
  6
HIDDEN
 62
     7
370
    18
100
AcDbLine
 10
234.0588235294
 20
27.5882352941
 30
0.0
 11
211.9411764706
 21
27.5882352941
 31
0.0
  0
LINE
  5
123
330
1F
100
AcDbEntity
  8
0
  6
HIDDEN
 62
     7
370
    18
100
AcDbLine
 10
211.9411764706
 20
35.0231345514
 30
0.0
 11
211.9411764706
 21
30.5294117647
 31
0.0
  0
LINE
  5
124
330
1F
100
AcDbEntity
  8
0
  6
HIDDEN
 62
     7
370
    18
100
AcDbLine
 10
234.0588235294
 20
30.5294117647
 30
0.0
 11
234.0588235294
 21
35.0231345514
 31
0.0
  0
LINE
  5
125
330
1F
100
AcDbEntity
  8
0
  6
HIDDEN
 62
     7
370
    18
100
AcDbLine
 10
223.9221608443
 20
68.7647058824
 30
0.0
 11
234.0588235294
 21
68.7647058824
 31
0.0
  0
SPLINE
  5
126
330
1F
100
AcDbEntity
  8
0
  6
HIDDEN
 62
     7
370
    18
100
AcDbSpline
210
0.0
220
0.0
230
1.0
 70
     8
 71
     3
 72
    12
 73
     8
 74
     0
 42
0.00000001
 43
0.00000001
 40
0.0
 40
0.0
 40
0.0
 40
0.0
 40
0.5
 40
0.5
 40
0.75
 40
0.75
 40
1.0
 40
1.0
 40
1.0
 40
1.0
 10
223.9221608443419
 20
68.76470588235296
 30
0.0
 10
223.6218917205407
 20
68.76470588235296
 30
0.0
 10
223.3151874396129
 20
68.76386141856993
 30
0.0
 10
222.8456265636667
 20
68.76385749372317
 30
0.0
 10
222.6884148097939
 20
68.76401837743111
 30
0.0
 10
222.3801374304834
 20
68.76444209956654
 30
0.0
 10
222.2279738258196
 20
68.76470588235296
 30
0.0
 10
222.0778391556581
 20
68.76470588235296
 30
0.0
  0
LINE
  5
127
330
1F
100
AcDbEntity
  8
0
  6
HIDDEN
 62
     7
370
    18
100
AcDbLine
 10
211.9411764706
 20
68.7647058824
 30
0.0
 11
222.0778391557
 21
68.7647058824
 31
0.0
  0
LINE
  5
128
330
1F
100
AcDbEntity
  8
0
  6
HIDDEN
 62
     7
370
    18
100
AcDbLine
 10
226.7058823529
 20
91.5882352941
 30
0.0
 11
219.2941176471
 21
91.5882352941
 31
0.0
  0
LINE
  5
129
330
1F
100
AcDbEntity
  8
0
  6
HIDDEN
 62
     7
370
    18
100
AcDbLine
 10
226.7058823529
 20
79.9411764706
 30
0.0
 11
219.2941176471
 21
79.9411764706
 31
0.0
  0
LINE
  5
12A
330
1F
100
AcDbEntity
  8
0
  6
HIDDEN
 62
     7
370
    18
100
AcDbLine
 10
218.5882352941
 20
92.2941176471
 30
0.0
 11
219.2941176471
 21
91.5882352941
 31
0.0
  0
LINE
  5
12B
330
1F
100
AcDbEntity
  8
0
  6
HIDDEN
 62
     7
370
    18
100
AcDbLine
 10
226.7058823529
 20
91.5882352941
 30
0.0
 11
227.4117647059
 21
92.2941176471
 31
0.0
  0
LINE
  5
12C
330
1F
100
AcDbEntity
  8
0
  6
HIDDEN
 62
     7
370
    18
100
AcDbLine
 10
226.7058823529
 20
79.9411764706
 30
0.0
 11
226.7058823529
 21
91.5882352941
 31
0.0
  0
LINE
  5
12D
330
1F
100
AcDbEntity
  8
0
  6
HIDDEN
 62
     7
370
    18
100
AcDbLine
 10
219.2941176471
 20
91.5882352941
 30
0.0
 11
219.2941176471
 21
79.9411764706
 31
0.0
  0
LINE
  5
12E
330
1F
100
AcDbEntity
  8
0
  6
HIDDEN
 62
     7
370
    18
100
AcDbLine
 10
219.9176470588
 20
79.9411764706
 30
0.0
 11
219.9176470588
 21
68.7647058824
 31
0.0
  0
LINE
  5
12F
330
1F
100
AcDbEntity
  8
0
  6
HIDDEN
 62
     7
370
    18
100
AcDbLine
 10
226.0823529412
 20
68.7647058824
 30
0.0
 11
226.0823529412
 21
79.9411764706
 31
0.0
  0
ENDSEC
  0
SECTION
  2
OBJECTS
  0
DICTIONARY
  5
C
330
0
100
AcDbDictionary
281
     1
  3
ACAD_GROUP
350
D
  3
ACAD_LAYOUT
350
1A
  3
ACAD_MLINESTYLE
350
17
  3
ACAD_PLOTSETTINGS
350
19
  3
ACAD_PLOTSTYLENAME
350
E
  3
ACAD_SCALELIST
350
47
  3
DWGPROPS
350
130
  0
DICTIONARY
  5
D
102
{ACAD_REACTORS
330
C
102
}
330
C
100
AcDbDictionary
281
     1
  0
DICTIONARY
  5
1A
102
{ACAD_REACTORS
330
C
102
}
330
C
100
AcDbDictionary
281
     1
  3
Layout1
350
1E
  3
Layout2
350
26
  3
Model
350
22
  0
DICTIONARY
  5
17
102
{ACAD_REACTORS
330
C
102
}
330
C
100
AcDbDictionary
281
     1
  3
Standard
350
18
  0
DICTIONARY
  5
19
102
{ACAD_REACTORS
330
C
102
}
330
C
100
AcDbDictionary
281
     1
  0
ACDBDICTIONARYWDFLT
  5
E
102
{ACAD_REACTORS
330
C
102
}
330
C
100
AcDbDictionary
281
     1
  3
Normal
350
F
100
AcDbDictionaryWithDefault
340
F
  0
DICTIONARY
  5
47
102
{ACAD_REACTORS
330
C
102
}
330
C
100
AcDbDictionary
281
     1
  3
A0
350
48
  3
A1
350
49
  3
A2
350
4A
  3
A3
350
4B
  3
A4
350
4C
  3
A5
350
4D
  3
A6
350
4E
  3
A7
350
4F
  3
A8
350
50
  3
A9
350
51
  3
B0
350
52
  3
B1
350
53
  3
B2
350
54
  3
B3
350
55
  3
B4
350
56
  3
B5
350
57
  3
B6
350
58
  0
XRECORD
  5
130
102
{ACAD_REACTORS
330
C
102
}
330
C
100
AcDbXrecord
280
     1
  1
DWGPROPS COOKIE
  2

  3

  4

  6

  7

  8

  9

300
=
301
=
302
=
303
=
304
=
305
=
306
=
307
=
308
=
309
=
 40
0.0
 41
2461215.407741852
 42
2461215.407742188
  1

 90
        0
  0
LAYOUT
  5
1E
102
{ACAD_REACTORS
330
1A
102
}
330
1A
100
AcDbPlotSettings
  1

  2
none_device
  4

  6

 40
0.0
 41
0.0
 42
0.0
 43
0.0
 44
0.0
 45
0.0
 46
0.0
 47
0.0
 48
0.0
 49
0.0
140
0.0
141
0.0
142
1.0
143
1.0
 70
   688
 72
     1
 73
     0
 74
     5
  7

 75
    16
147
1.0
148
0.0
149
0.0
100
AcDbLayout
  1
Layout1
 70
     1
 71
     1
 10
0.0
 20
0.0
 11
420.0
 21
297.0
 12
0.0
 22
0.0
 32
0.0
 14
1.0000000000E+20
 24
1.0000000000E+20
 34
1.0000000000E+20
 15
-1.0000000000E+20
 25
-1.0000000000E+20
 35
-1.0000000000E+20
146
0.0
 13
0.0
 23
0.0
 33
0.0
 16
1.0
 26
0.0
 36
0.0
 17
0.0
 27
1.0
 37
0.0
 76
     0
330
1B
  0
LAYOUT
  5
26
102
{ACAD_REACTORS
330
1A
102
}
330
1A
100
AcDbPlotSettings
  1

  2
none_device
  4

  6

 40
0.0
 41
0.0
 42
0.0
 43
0.0
 44
0.0
 45
0.0
 46
0.0
 47
0.0
 48
0.0
 49
0.0
140
0.0
141
0.0
142
1.0
143
1.0
 70
   688
 72
     1
 73
     0
 74
     5
  7

 75
    16
147
1.0
148
0.0
149
0.0
100
AcDbLayout
  1
Layout2
 70
     1
 71
     2
 10
0.0
 20
0.0
 11
0.0
 21
0.0
 12
0.0
 22
0.0
 32
0.0
 14
0.0
 24
0.0
 34
0.0
 15
0.0
 25
0.0
 35
0.0
146
0.0
 13
0.0
 23
0.0
 33
0.0
 16
1.0
 26
0.0
 36
0.0
 17
0.0
 27
1.0
 37
0.0
 76
     0
330
23
  0
LAYOUT
  5
22
102
{ACAD_REACTORS
330
1A
102
}
330
1A
100
AcDbPlotSettings
  1

  2
none_device
  4
Letter_(8.50_x_11.00_Inches)
  6

 40
6.35
 41
6.35
 42
6.35000508
 43
6.35000508
 44
215.9
 45
279.4
 46
0.0
 47
0.0
 48
0.0
 49
0.0
140
0.0
141
0.0
142
1.0
143
1.0
 70
  1712
 72
     1
 73
     0
 74
     0
  7

 75
     0
147
1.0
148
0.0
149
0.0
100
AcDbLayout
  1
Model
 70
     1
 71
     0
 10
0.0
 20
0.0
 11
297.0
 21
210.0
 12
0.0
 22
0.0
 32
0.0
 14
0.0
 24
0.0
 34
0.0
 15
297.0
 25
210.0
 35
0.0
146
0.0
 13
0.0
 23
0.0
 33
0.0
 16
1.0
 26
0.0
 36
0.0
 17
0.0
 27
1.0
 37
0.0
 76
     0
330
1F
331
29
  0
MLINESTYLE
  5
18
102
{ACAD_REACTORS
330
17
102
}
330
17
100
AcDbMlineStyle
  2
Standard
 70
     0
  3

 62
   256
 51
90.0
 52
90.0
 71
     2
 49
0.5
 62
   256
  6
BYLAYER
 49
-0.5
 62
   256
  6
BYLAYER
  0
ACDBPLACEHOLDER
  5
F
102
{ACAD_REACTORS
330
E
102
}
330
E
  0
SCALE
  5
48
102
{ACAD_REACTORS
330
47
102
}
330
47
100
AcDbScale
 70
     0
300
1:1
140
1.0
141
1.0
290
     1
  0
SCALE
  5
49
102
{ACAD_REACTORS
330
47
102
}
330
47
100
AcDbScale
 70
     0
300
1:2
140
1.0
141
2.0
290
     0
  0
SCALE
  5
4A
102
{ACAD_REACTORS
330
47
102
}
330
47
100
AcDbScale
 70
     0
300
1:4
140
1.0
141
4.0
290
     0
  0
SCALE
  5
4B
102
{ACAD_REACTORS
330
47
102
}
330
47
100
AcDbScale
 70
     0
300
1:5
140
1.0
141
5.0
290
     0
  0
SCALE
  5
4C
102
{ACAD_REACTORS
330
47
102
}
330
47
100
AcDbScale
 70
     0
300
1:8
140
1.0
141
8.0
290
     0
  0
SCALE
  5
4D
102
{ACAD_REACTORS
330
47
102
}
330
47
100
AcDbScale
 70
     0
300
1:10
140
1.0
141
10.0
290
     0
  0
SCALE
  5
4E
102
{ACAD_REACTORS
330
47
102
}
330
47
100
AcDbScale
 70
     0
300
1:16
140
1.0
141
16.0
290
     0
  0
SCALE
  5
4F
102
{ACAD_REACTORS
330
47
102
}
330
47
100
AcDbScale
 70
     0
300
1:20
140
1.0
141
20.0
290
     0
  0
SCALE
  5
50
102
{ACAD_REACTORS
330
47
102
}
330
47
100
AcDbScale
 70
     0
300
1:30
140
1.0
141
30.0
290
     0
  0
SCALE
  5
51
102
{ACAD_REACTORS
330
47
102
}
330
47
100
AcDbScale
 70
     0
300
1:40
140
1.0
141
40.0
290
     0
  0
SCALE
  5
52
102
{ACAD_REACTORS
330
47
102
}
330
47
100
AcDbScale
 70
     0
300
1:50
140
1.0
141
50.0
290
     0
  0
SCALE
  5
53
102
{ACAD_REACTORS
330
47
102
}
330
47
100
AcDbScale
 70
     0
300
1:100
140
1.0
141
100.0
290
     0
  0
SCALE
  5
54
102
{ACAD_REACTORS
330
47
102
}
330
47
100
AcDbScale
 70
     0
300
2:1
140
2.0
141
1.0
290
     0
  0
SCALE
  5
55
102
{ACAD_REACTORS
330
47
102
}
330
47
100
AcDbScale
 70
     0
300
4:1
140
4.0
141
1.0
290
     0
  0
SCALE
  5
56
102
{ACAD_REACTORS
330
47
102
}
330
47
100
AcDbScale
 70
     0
300
8:1
140
8.0
141
1.0
290
     0
  0
SCALE
  5
57
102
{ACAD_REACTORS
330
47
102
}
330
47
100
AcDbScale
 70
     0
300
10:1
140
10.0
141
1.0
290
     0
  0
SCALE
  5
58
102
{ACAD_REACTORS
330
47
102
}
330
47
100
AcDbScale
 70
     0
300
100:1
140
100.0
141
1.0
290
     0
  0
ENDSEC
  0
EOF
