  0
SECTION
  2
HEADER
  9
$ACADVER
  1
AC1015
  9
$ACADMAINTVER
 70
     6
  9
$DWGCODEPAGE
  3
ANSI_936
  9
$INSBASE
 10
0.0
 20
0.0
 30
0.0
  9
$EXTMIN
 10
0.0
 20
0.0
 30
0.0
  9
$EXTMAX
 10
297.0
 20
210.0
 30
0.0
  9
$LIMMIN
 10
0.0
 20
0.0
  9
$LIMMAX
 10
297.0
 20
210.0
  9
$ORTHOMODE
 70
     0
  9
$REGENMODE
 70
     1
  9
$FILLMODE
 70
     1
  9
$QTEXTMODE
 70
     0
  9
$MIRRTEXT
 70
     1
  9
$LTSCALE
 40
1.0
  9
$ATTMODE
 70
     1
  9
$TEXTSIZE
 40
3.5
  9
$TRACEWID
 40
1.0
  9
$TEXTSTYLE
  7
Standard
  9
$CLAYER
  8
0
  9
$CELTYPE
  6
ByLayer
  9
$CECOLOR
 62
   256
  9
$CELTSCALE
 40
1.0
  9
$DISPSILH
 70
     0
  9
$DIMSCALE
 40
1.0
  9
$DIMASZ
 40
4.08
  9
$DIMEXO
 40
0.0
  9
$DIMDLI
 40
3.75
  9
$DIMRND
 40
0.0
  9
$DIMDLE
 40
0.0
  9
$DIMEXE
 40
2.0
  9
$DIMTP
 40
0.0
  9
$DIMTM
 40
0.0
  9
$DIMTXT
 40
3.5
  9
$DIMCEN
 40
2.5
  9
$DIMTSZ
 40
0.0
  9
$DIMTOL
 70
     0
  9
$DIMLIM
 70
     0
  9
$DIMTIH
 70
     1
  9
$DIMTOH
 70
     1
  9
$DIMSE1
 70
     0
  9
$DIMSE2
 70
     0
  9
$DIMTAD
 70
     1
  9
$DIMZIN
 70
     0
  9
$DIMBLK
  1

  9
$DIMASO
 70
     1
  9
$DIMSHO
 70
     1
  9
$DIMPOST
  1

  9
$DIMAPOST
  1

  9
$DIMALT
 70
     0
  9
$DIMALTD
 70
     3
  9
$DIMALTF
 40
0.0393700787
  9
$DIMLFAC
 40
2.0
  9
$DIMTOFL
 70
     1
  9
$DIMTVP
 40
0.0
  9
$DIMTIX
 70
     0
  9
$DIMSOXD
 70
     0
  9
$DIMSAH
 70
     0
  9
$DIMBLK1
  1

  9
$DIMBLK2
  1

  9
$DIMSTYLE
  2
ISO-25
  9
$DIMCLRD
 70
     0
  9
$DIMCLRE
 70
     0
  9
$DIMCLRT
 70
     0
  9
$DIMTFAC
 40
1.0
  9
$DIMGAP
 40
1.524
  9
$DIMJUST
 70
     0
  9
$DIMSD1
 70
     0
  9
$DIMSD2
 70
     0
  9
$DIMTOLJ
 70
     0
  9
$DIMTZIN
 70
     0
  9
$DIMALTZ
 70
     0
  9
$DIMALTTZ
 70
     0
  9
$DIMUPT
 70
     0
  9
$DIMDEC
 70
     2
  9
$DIMTDEC
 70
     2
  9
$DIMALTU
 70
     2
  9
$DIMALTTD
 70
     3
  9
$DIMTXSTY
  7
Standard
  9
$DIMAUNIT
 70
     0
  9
$DIMADEC
 70
     2
  9
$DIMALTRND
 40
0.0
  9
$DIMAZIN
 70
     0
  9
$DIMDSEP
 70
    44
  9
$DIMATFIT
 70
     3
  9
$DIMFRAC
 70
     0
  9
$DIMLDRBLK
  1

  9
$DIMLUNIT
 70
     2
  9
$DIMLWD
 70
    -2
  9
$DIMLWE
 70
    -2
  9
$DIMTMOVE
 70
     0
  9
$LUNITS
 70
     2
  9
$LUPREC
 70
     2
  9
$SKETCHINC
 40
1.0
  9
$FILLETRAD
 40
0.0
  9
$AUNITS
 70
     0
  9
$AUPREC
 70
     2
  9
$MENU
  1
.
  9
$ELEVATION
 40
0.0
  9
$PELEVATION
 40
0.0
  9
$THICKNESS
 40
0.0
  9
$LIMCHECK
 70
     0
  9
$CHAMFERA
 40
0.0
  9
$CHAMFERB
 40
0.0
  9
$CHAMFERC
 40
0.0
  9
$CHAMFERD
 40
0.0
  9
$SKPOLY
 70
     0
  9
$TDCREATE
 40
2461215.74788816
  9
$TDUCREATE
 40
2461215.414554827
  9
$TDUPDATE
 40
2461215.747888495
  9
$TDUUPDATE
 40
2461215.414555162
  9
$TDINDWG
 40
0.0000000116
  9
$TDUSRTIMER
 40
0.0000000116
  9
$USRTIMER
 70
     1
  9
$ANGBASE
 50
0.0
  9
$ANGDIR
 70
     0
  9
$PDMODE
 70
     0
  9
$PDSIZE
 40
-1.0
  9
$PLINEWID
 40
0.0
  9
$SPLFRAME
 70
     0
  9
$SPLINETYPE
 70
     6
  9
$SPLINESEGS
 70
     8
  9
$HANDSEED
  5
135
  9
$SURFTAB1
 70
     6
  9
$SURFTAB2
 70
     6
  9
$SURFTYPE
 70
     6
  9
$SURFU
 70
     6
  9
$SURFV
 70
     6
  9
$UCSBASE
  2

  9
$UCSNAME
  2

  9
$UCSORG
 10
0.0
 20
0.0
 30
0.0
  9
$UCSXDIR
 10
1.0
 20
0.0
 30
0.0
  9
$UCSYDIR
 10
0.0
 20
1.0
 30
0.0
  9
$UCSORTHOREF
  2

  9
$UCSORTHOVIEW
 70
     0
  9
$UCSORGTOP
 10
0.0
 20
0.0
 30
0.0
  9
$UCSORGBOTTOM
 10
0.0
 20
0.0
 30
0.0
  9
$UCSORGLEFT
 10
0.0
 20
0.0
 30
0.0
  9
$UCSORGRIGHT
 10
0.0
 20
0.0
 30
0.0
  9
$UCSORGFRONT
 10
0.0
 20
0.0
 30
0.0
  9
$UCSORGBACK
 10
0.0
 20
0.0
 30
0.0
  9
$PUCSBASE
  2

  9
$PUCSNAME
  2

  9
$PUCSORG
 10
0.0
 20
0.0
 30
0.0
  9
$PUCSXDIR
 10
1.0
 20
0.0
 30
0.0
  9
$PUCSYDIR
 10
0.0
 20
1.0
 30
0.0
  9
$PUCSORTHOREF
  2

  9
$PUCSORTHOVIEW
 70
     0
  9
$PUCSORGTOP
 10
0.0
 20
0.0
 30
0.0
  9
$PUCSORGBOTTOM
 10
0.0
 20
0.0
 30
0.0
  9
$PUCSORGLEFT
 10
0.0
 20
0.0
 30
0.0
  9
$PUCSORGRIGHT
 10
0.0
 20
0.0
 30
0.0
  9
$PUCSORGFRONT
 10
0.0
 20
0.0
 30
0.0
  9
$PUCSORGBACK
 10
0.0
 20
0.0
 30
0.0
  9
$USERI1
 70
     0
  9
$USERI2
 70
     0
  9
$USERI3
 70
     0
  9
$USERI4
 70
     0
  9
$USERI5
 70
     0
  9
$USERR1
 40
0.0
  9
$USERR2
 40
0.0
  9
$USERR3
 40
0.0
  9
$USERR4
 40
0.0
  9
$USERR5
 40
0.0
  9
$WORLDVIEW
 70
     1
  9
$SHADEDGE
 70
     3
  9
$SHADEDIF
 70
    70
  9
$TILEMODE
 70
     1
  9
$MAXACTVP
 70
    64
  9
$PINSBASE
 10
0.0
 20
0.0
 30
0.0
  9
$PLIMCHECK
 70
     0
  9
$PEXTMIN
 10
1.0000000000E+20
 20
1.0000000000E+20
 30
1.0000000000E+20
  9
$PEXTMAX
 10
-1.0000000000E+20
 20
-1.0000000000E+20
 30
-1.0000000000E+20
  9
$PLIMMIN
 10
0.0
 20
0.0
  9
$PLIMMAX
 10
420.0
 20
297.0
  9
$UNITMODE
 70
     0
  9
$VISRETAIN
 70
     1
  9
$PLINEGEN
 70
     0
  9
$PSLTSCALE
 70
     1
  9
$TREEDEPTH
 70
  3020
  9
$CMLSTYLE
  2
Standard
  9
$CMLJUST
 70
     0
  9
$CMLSCALE
 40
20.0
  9
$PROXYGRAPHICS
 70
     1
  9
$MEASUREMENT
 70
     1
  9
$CELWEIGHT
370
    -1
  9
$ENDCAPS
280
     0
  9
$JOINSTYLE
280
     0
  9
$LWDISPLAY
290
     1
  9
$INSUNITS
 70
     4
  9
$HYPERLINKBASE
  1

  9
$STYLESHEET
  1

  9
$XEDIT
290
     1
  9
$CEPSNTYPE
380
     0
  9
$PSTYLEMODE
290
     1
  9
$FINGERPRINTGUID
  2
{fa77d825-ef53-45dd-abc7-fce54e9b492d}
  9
$VERSIONGUID
  2
{FAEB1C32-E019-11D5-929B-00C0DF256EC4}
  9
$EXTNAMES
290
     1
  9
$PSVPSCALE
 40
0.0
  9
$OLESTARTUP
290
     0
  0
ENDSEC
  0
SECTION
  2
CLASSES
  0
CLASS
  1
ACDBDICTIONARYWDFLT
  2
AcDbDictionaryWithDefault
  3
ObjectDBX Classes
 90
        0
280
     0
281
     0
  0
CLASS
  1
VISUALSTYLE
  2
AcDbVisualStyle
  3
ObjectDBX Classes
 90
     4095
280
     0
281
     0
  0
CLASS
  1
MATERIAL
  2
AcDbMaterial
  3
ObjectDBX Classes
 90
     1153
280
     0
281
     0
  0
CLASS
  1
SCALE
  2
AcDbScale
  3
ObjectDBX Classes
 90
     1153
280
     0
281
     0
  0
CLASS
  1
TABLESTYLE
  2
AcDbTableStyle
  3
ObjectDBX Classes
 90
     4095
280
     0
281
     0
  0
CLASS
  1
MLEADERSTYLE
  2
AcDbMLeaderStyle
  3
ACDB_MLEADERSTYLE_CLASS
 90
     4095
280
     0
281
     0
  0
CLASS
  1
SUN
  2
AcDbSun
  3
SCENEOE
 90
     1153
280
     0
281
     0
  0
CLASS
  1
ACDBPLACEHOLDER
  2
AcDbPlaceHolder
  3
ObjectDBX Classes
 90
        0
280
     0
281
     0
  0
CLASS
  1
LAYOUT
  2
AcDbLayout
  3
ObjectDBX Classes
 90
        0
280
     0
281
     0
  0
ENDSEC
  0
SECTION
  2
TABLES
  0
TABLE
  2
VPORT
  5
8
330
0
100
AcDbSymbolTable
 70
     1
  0
VPORT
  5
29
330
8
100
AcDbSymbolTableRecord
100
AcDbViewportTableRecord
  2
*Active
 70
     0
 10
0.0
 20
0.0
 11
1.0
 21
1.0
 12
148.5
 22
105.0
 13
0.0
 23
0.0
 14
10.0
 24
10.0
 15
10.0
 25
10.0
 16
0.0
 26
0.0
 36
1.0
 17
0.0
 27
0.0
 37
0.0
 40
210.0
 41
1.4142857143
 42
50.0
 43
0.0
 44
0.0
 50
0.0
 51
0.0
 71
     0
 72
  2000
 73
     1
 74
     3
 75
     0
 76
     0
 77
     0
 78
     0
281
     0
 65
     1
110
0.0
120
0.0
130
0.0
111
1.0
121
0.0
131
0.0
112
0.0
122
1.0
132
0.0
 79
     0
146
0.0
  0
ENDTAB
  0
TABLE
  2
LTYPE
  5
5
330
0
100
AcDbSymbolTable
 70
     6
  0
LTYPE
  5
14
330
5
100
AcDbSymbolTableRecord
100
AcDbLinetypeTableRecord
  2
ByBlock
 70
     0
  3

 72
    65
 73
     0
 40
0.0
  0
LTYPE
  5
15
330
5
100
AcDbSymbolTableRecord
100
AcDbLinetypeTableRecord
  2
ByLayer
 70
     0
  3

 72
    65
 73
     0
 40
0.0
  0
LTYPE
  5
16
330
5
100
AcDbSymbolTableRecord
100
AcDbLinetypeTableRecord
  2
Continuous
 70
     0
  3
Solid line
 72
    65
 73
     0
 40
0.0
  0
LTYPE
  5
5E
330
5
100
AcDbSymbolTableRecord
100
AcDbLinetypeTableRecord
  2
HIDDEN
 70
     0
  3
Hidden __ __ __ __ __ __ __ __ __ __ __ __ __ __
 72
    65
 73
     2
 40
1.905
 49
1.27
 74
     0
 49
-0.635
 74
     0
  0
LTYPE
  5
5F
330
5
100
AcDbSymbolTableRecord
100
AcDbLinetypeTableRecord
  2
PHANTOM
 70
     0
  3
Phantom ______  __  __  ______  __  __  ______
 72
    65
 73
     6
 40
12.7
 49
6.35
 74
     0
 49
-1.27
 74
     0
 49
1.27
 74
     0
 49
-1.27
 74
     0
 49
1.27
 74
     0
 49
-1.27
 74
     0
  0
LTYPE
  5
60
330
5
100
AcDbSymbolTableRecord
100
AcDbLinetypeTableRecord
  2
CENTER
 70
     0
  3
Center ____ _ ____ _ ____ _ ____ _ ____ _ ____
 72
    65
 73
     4
 40
10.16
 49
6.35
 74
     0
 49
-1.27
 74
     0
 49
1.27
 74
     0
 49
-1.27
 74
     0
  0
LTYPE
  5
61
330
5
100
AcDbSymbolTableRecord
100
AcDbLinetypeTableRecord
  2
CENTERX2
 70
     0
  3
Center (2x) ________  __  ________  __  _____
 72
    65
 73
     4
 40
20.32
 49
12.7
 74
     0
 49
-2.54
 74
     0
 49
2.54
 74
     0
 49
-2.54
 74
     0
  0
LTYPE
  5
62
330
5
100
AcDbSymbolTableRecord
100
AcDbLinetypeTableRecord
  2
DOT2
 70
     0
  3
Dot (.5x) ........................................
 72
    65
 73
     2
 40
0.635
 49
0.0
 74
     0
 49
-0.635
 74
     0
  0
ENDTAB
  0
TABLE
  2
LAYER
  5
2
330
0
100
AcDbSymbolTable
 70
    14
  0
LAYER
  5
10
330
2
100
AcDbSymbolTableRecord
100
AcDbLayerTableRecord
  2
0
 70
     0
 62
     7
  6
Continuous
370
    -3
390
F
  0
LAYER
  5
63
330
2
100
AcDbSymbolTableRecord
100
AcDbLayerTableRecord
  2
SLD-0
 70
     0
 62
     7
  6
Continuous
370
    -3
390
F
  0
LAYER
  5
64
330
2
100
AcDbSymbolTableRecord
100
AcDbLayerTableRecord
  2
5
 70
     0
 62
     7
  6
Continuous
370
    -3
390
F
  0
LAYER
  5
65
330
2
100
AcDbSymbolTableRecord
100
AcDbLayerTableRecord
  2
9
 70
     0
 62
     7
  6
Continuous
370
    -3
390
F
  0
LAYER
  5
66
330
2
100
AcDbSymbolTableRecord
100
AcDbLayerTableRecord
  2
10
 70
     0
 62
     7
  6
Continuous
370
    -3
390
F
  0
LAYER
  5
67
330
2
100
AcDbSymbolTableRecord
100
AcDbLayerTableRecord
  2
轮廓实线层
 70
     0
 62
     7
  6
Continuous
370
    50
390
F
  0
LAYER
  5
68
330
2
100
AcDbSymbolTableRecord
100
AcDbLayerTableRecord
  2
细线层
 70
     0
 62
     4
  6
Continuous
370
    25
390
F
  0
LAYER
  5
69
330
2
100
AcDbSymbolTableRecord
100
AcDbLayerTableRecord
  2
中心线层
 70
     0
 62
     1
  6
CENTERX2
370
    25
390
F
  0
LAYER
  5
6A
330
2
100
AcDbSymbolTableRecord
100
AcDbLayerTableRecord
  2
虚线层
 70
     0
 62
     6
  6
HIDDEN
370
    25
390
F
  0
LAYER
  5
6B
330
2
100
AcDbSymbolTableRecord
100
AcDbLayerTableRecord
  2
剖面线层
 70
     0
 62
     2
  6
Continuous
370
    25
390
F
  0
LAYER
  5
6C
330
2
100
AcDbSymbolTableRecord
100
AcDbLayerTableRecord
  2
文字层
 70
     0
 62
     3
  6
Continuous
370
    25
390
F
  0
LAYER
  5
6D
330
2
100
AcDbSymbolTableRecord
100
AcDbLayerTableRecord
  2
标注层
 70
     0
 62
     4
  6
Continuous
370
    25
390
F
  0
LAYER
  5
6E
330
2
100
AcDbSymbolTableRecord
100
AcDbLayerTableRecord
  2
符号标注层
 70
     0
 62
    31
  6
Continuous
370
    25
390
F
  0
LAYER
  5
6F
330
2
100
AcDbSymbolTableRecord
100
AcDbLayerTableRecord
  2
双点划线层
 70
     0
 62
     6
  6
PHANTOM
370
    25
390
F
  0
ENDTAB
  0
TABLE
  2
STYLE
  5
3
330
0
100
AcDbSymbolTable
 70
     1
  0
STYLE
  5
11
330
3
100
AcDbSymbolTableRecord
100
AcDbTextStyleTableRecord
  2
Standard
 70
     0
 40
0.0
 41
1.0
 50
0.0
 71
     0
 42
3.5
  3
txt
  4

  0
ENDTAB
  0
TABLE
  2
VIEW
  5
6
330
0
100
AcDbSymbolTable
 70
     0
  0
ENDTAB
  0
TABLE
  2
UCS
  5
7
330
0
100
AcDbSymbolTable
 70
     0
  0
ENDTAB
  0
TABLE
  2
APPID
  5
9
330
0
100
AcDbSymbolTable
 70
     1
  0
APPID
  5
12
330
9
100
AcDbSymbolTableRecord
100
AcDbRegAppTableRecord
  2
ACAD
 70
     0
  0
ENDTAB
  0
TABLE
  2
DIMSTYLE
  5
A
330
0
100
AcDbSymbolTable
 70
     1
100
AcDbDimStyleTable
  0
DIMSTYLE
105
27
330
A
100
AcDbSymbolTableRecord
100
AcDbDimStyleTableRecord
  2
ISO-25
 70
     0
 41
2.5
 42
0.625
 43
3.75
 44
1.25
 73
     0
 74
     0
 77
     1
 78
     8
140
2.5
141
2.5
143
0.0393700787
147
0.625
171
     3
172
     1
178
     0
271
     2
272
     2
274
     3
278
    44
283
     0
284
     8
340
11
  0
ENDTAB
  0
TABLE
  2
BLOCK_RECORD
  5
1
330
0
100
AcDbSymbolTable
 70
     1
  0
BLOCK_RECORD
  5
1F
330
1
100
AcDbSymbolTableRecord
100
AcDbBlockTableRecord
  2
*Model_Space
340
22
  0
BLOCK_RECORD
  5
1B
330
1
100
AcDbSymbolTableRecord
100
AcDbBlockTableRecord
  2
*Paper_Space
340
1E
  0
BLOCK_RECORD
  5
23
330
1
100
AcDbSymbolTableRecord
100
AcDbBlockTableRecord
  2
*Paper_Space0
340
26
  0
ENDTAB
  0
ENDSEC
  0
SECTION
  2
BLOCKS
  0
BLOCK
  5
20
330
1F
100
AcDbEntity
  8
0
100
AcDbBlockBegin
  2
*Model_Space
 70
     0
 10
0.0
 20
0.0
 30
0.0
  3
*Model_Space
  1

  0
ENDBLK
  5
21
330
1F
100
AcDbEntity
  8
0
100
AcDbBlockEnd
  0
BLOCK
  5
1C
330
1B
100
AcDbEntity
 67
     1
  8
0
100
AcDbBlockBegin
  2
*Paper_Space
 70
     0
 10
0.0
 20
0.0
 30
0.0
  3
*Paper_Space
  1

  0
ENDBLK
  5
1D
330
1B
100
AcDbEntity
 67
     1
  8
0
100
AcDbBlockEnd
  0
BLOCK
  5
24
330
23
100
AcDbEntity
  8
0
100
AcDbBlockBegin
  2
*Paper_Space0
 70
     0
 10
0.0
 20
0.0
 30
0.0
  3
*Paper_Space0
  1

  0
ENDBLK
  5
25
330
23
100
AcDbEntity
  8
0
100
AcDbBlockEnd
  0
ENDSEC
  0
SECTION
  2
ENTITIES
  0
SPLINE
  5
70
330
1F
100
AcDbEntity
  8
0
  6
Continuous
 62
     7
370
    25
100
AcDbSpline
210
0.0
220
0.0
230
1.0
 70
     8
 71
     3
 72
     9
 73
     5
 74
     0
 42
0.00000001
 43
0.00000001
 40
0.0
 40
0.0
 40
0.0
 40
0.0
 40
0.6171654674194864
 40
1.0
 40
1.0
 40
1.0
 40
1.0
 10
89.62851439578611
 20
13.87498799376788
 30
0.0
 10
90.45298377453918
 20
14.53859173406004
 30
0.0
 10
91.7888805838671
 20
15.61383617874172
 30
0.0
 10
93.12285612708365
 20
16.73093247513339
 30
0.0
 10
93.6335480306448
 20
17.1585955136099
 30
0.0
  0
LINE
  5
71
330
1F
100
AcDbEntity
  8
0
  6
Continuous
 62
     7
370
    25
100
AcDbLine
 10
93.3094068874
 20
96.4915608477
 30
0.0
 11
89.6286306667
 21
99.5133749901
 31
0.0
  0
LINE
  5
72
330
1F
100
AcDbEntity
  8
0
  6
Continuous
 62
     7
370
    25
100
AcDbLine
 10
93.6333408435
 20
95.8034612992
 30
0.0
 11
93.3084671858
 21
96.5082024881
 31
0.0
  0
ARC
  5
73
330
1F
100
AcDbEntity
  8
0
  6
Continuous
 62
     7
370
    25
100
AcDbCircle
 10
77.0817157373
 20
12.1114436751
 30
0.0
 40
1.439271748363723
100
AcDbArc
 50
90.0
 51
156.4429319055
  0
ARC
  5
74
330
1F
100
AcDbEntity
  8
0
  6
Continuous
 62
     7
370
    25
100
AcDbCircle
 10
88.7193597203
 20
14.9899871718
 30
0.0
 40
1.43927174836372
100
AcDbArc
 50
270.0
 51
308.6529378117
  0
LINE
  5
75
330
1F
100
AcDbEntity
  8
0
  6
Continuous
 62
     7
370
    25
100
AcDbLine
 10
77.0817157373
 20
13.5507154234
 30
0.0
 11
88.7193597203
 21
13.5507154234
 31
0.0
  0
LINE
  5
76
330
1F
100
AcDbEntity
  8
0
  6
Continuous
 62
     7
370
    25
100
AcDbLine
 10
88.7193597203
 20
99.8377419083
 30
0.0
 11
77.0817157373
 21
99.8377419083
 31
0.0
  0
ARC
  5
77
330
1F
100
AcDbEntity
  8
0
  6
Continuous
 62
     7
370
    25
100
AcDbCircle
 10
88.7193597203
 20
98.3984701599
 30
0.0
 40
1.439271748363723
100
AcDbArc
 50
51.3678416603
 51
90.0
  0
SPLINE
  5
78
330
1F
100
AcDbEntity
  8
0
  6
Continuous
 62
     7
370
    25
100
AcDbSpline
210
0.0
220
0.0
230
1.0
 70
     8
 71
     3
 72
    11
 73
     7
 74
     0
 42
0.00000001
 43
0.00000001
 40
0.0
 40
0.0
 40
0.0
 40
0.0
 40
0.2237984387120129
 40
0.4642440011493044
 40
0.7211940475042063
 40
1.0
 40
1.0
 40
1.0
 40
1.0
 10
77.0817157372726
 20
99.83776805477099
 30
0.0
 10
76.90898507632845
 20
99.85085379347483
 30
0.0
 10
76.55067527926563
 20
99.87799864635598
 30
0.0
 10
76.11351288056572
 20
100.0512725381713
 30
0.0
 10
75.80062747565992
 20
100.2656940688304
 30
0.0
 10
75.71513972815917
 20
100.3876364720237
 30
0.0
 10
75.67065213880917
 20
100.4510949642195
 30
0.0
  0
ARC
  5
79
330
1F
100
AcDbEntity
  8
0
  6
Continuous
 62
     7
370
    25
100
AcDbCircle
 10
72.7639004922
 20
105.5607282516
 30
0.0
 40
1.439271748363723
100
AcDbArc
 50
90.0
 51
180.0
  0
LINE
  5
7A
330
1F
100
AcDbEntity
  8
0
  6
Continuous
 62
     7
370
    25
100
AcDbLine
 10
75.6424439889
 20
107.0
 30
0.0
 11
72.7639004922
 21
107.0
 31
0.0
  0
ARC
  5
7B
330
1F
100
AcDbEntity
  8
0
  6
Continuous
 62
     7
370
    25
100
AcDbCircle
 10
72.7639004922
 20
8.4392717484
 30
0.0
 40
1.439271748363709
100
AcDbArc
 50
180.0
 51
270.0
  0
LINE
  5
7C
330
1F
100
AcDbEntity
  8
0
  6
Continuous
 62
     7
370
    25
100
AcDbLine
 10
72.7639004922
 20
7.0
 30
0.0
 11
75.6424439889
 21
7.0
 31
0.0
  0
LINE
  5
7D
330
1F
100
AcDbEntity
  8
0
  6
Continuous
 62
     7
370
    25
100
AcDbLine
 10
93.6333408435
 20
57.0
 30
0.0
 11
93.6333408435
 21
60.8238136958
 31
0.0
  0
LINE
  5
7E
330
1F
100
AcDbEntity
  8
0
  6
Continuous
 62
     7
370
    25
100
AcDbLine
 10
93.2015593189
 20
60.1291138909
 30
0.0
 11
93.2015593189
 21
57.0
 31
0.0
  0
SPLINE
  5
7F
330
1F
100
AcDbEntity
  8
0
  6
Continuous
 62
     7
370
    25
100
AcDbSpline
210
0.0
220
0.0
230
1.0
 70
     8
 71
     3
 72
     9
 73
     5
 74
     0
 42
0.00000001
 43
0.00000001
 40
0.0
 40
0.0
 40
0.0
 40
0.0
 40
0.4865009069659133
 40
0.9999999999999999
 40
0.9999999999999999
 40
0.9999999999999999
 40
0.9999999999999999
 10
93.2015593189462
 20
60.12911389090058
 30
0.0
 10
93.26913863189345
 20
60.24330392574215
 30
0.0
 10
93.4080475465114
 20
60.47802092874574
 30
0.0
 10
93.5569034645498
 20
60.70649332669531
 30
0.0
 10
93.6333408434553
 20
60.82381369582573
 30
0.0
  0
LINE
  5
80
330
1F
100
AcDbEntity
  8
0
  6
Continuous
 62
     7
370
    25
100
AcDbLine
 10
75.6424439889
 20
60.1291138909
 30
0.0
 11
93.2015593189
 21
60.1291138909
 31
0.0
  0
LINE
  5
81
330
1F
100
AcDbEntity
  8
0
  6
Continuous
 62
     7
370
    25
100
AcDbLine
 10
75.6424439889
 20
37.875333089
 30
0.0
 11
75.6424439889
 21
60.1291138909
 31
0.0
  0
LINE
  5
82
330
1F
100
AcDbEntity
  8
0
  6
Continuous
 62
     7
370
    25
100
AcDbLine
 10
75.6424439889
 20
37.875333089
 30
0.0
 11
93.2015593189
 21
37.875333089
 31
0.0
  0
SPLINE
  5
83
330
1F
100
AcDbEntity
  8
0
  6
Continuous
 62
     7
370
    25
100
AcDbSpline
210
0.0
220
0.0
230
1.0
 70
     8
 71
     3
 72
     9
 73
     5
 74
     0
 42
0.00000001
 43
0.00000001
 40
0.0
 40
0.0
 40
0.0
 40
0.0
 40
0.5134990930341321
 40
1.0
 40
1.0
 40
1.0
 40
1.0
 10
93.6333408434553
 20
37.20604239983184
 30
0.0
 10
93.55690346454982
 20
37.31897477470814
 30
0.0
 10
93.40804754651143
 20
37.53890189124692
 30
0.0
 10
93.26913863189347
 20
37.76522613778118
 30
0.0
 10
93.2015593189462
 20
37.87533308898844
 30
0.0
  0
LINE
  5
84
330
1F
100
AcDbEntity
  8
0
  6
Continuous
 62
     7
370
    25
100
AcDbLine
 10
93.6333408435
 20
18.2511379145
 30
0.0
 11
93.6333408435
 21
37.2060423998
 31
0.0
  0
SPLINE
  5
85
330
1F
100
AcDbEntity
  8
0
  6
Continuous
 62
     7
370
    25
100
AcDbSpline
210
0.0
220
0.0
230
1.0
 70
     8
 71
     3
 72
    14
 73
    10
 74
     0
 42
0.00000001
 43
0.00000001
 40
0.0
 40
0.0
 40
0.0
 40
0.0
 40
0.25
 40
0.25
 40
0.5
 40
0.5
 40
0.75
 40
0.75
 40
1.0
 40
1.0
 40
1.0
 40
1.0
 10
75.64244398890888
 20
12.13833046182794
 30
0.0
 10
75.64244398890887
 20
12.33403198080765
 30
0.0
 10
75.68957384370692
 20
12.52442697601024
 30
0.0
 10
75.85527357089717
 20
12.89562213767202
 30
0.0
 10
75.97029723356128
 20
13.06800969481162
 30
0.0
 10
76.24254093857019
 20
13.39547920828352
 30
0.0
 10
76.40018541581982
 20
13.55013227906828
 30
0.0
 10
76.73178609190786
 20
13.844748421519
 30
0.0
 10
76.90760861515565
 20
13.98656381891192
 30
0.0
 10
77.0817157372726
 20
14.1273585716423
 30
0.0
  0
LINE
  5
86
330
1F
100
AcDbEntity
  8
0
  6
Continuous
 62
     7
370
    25
100
AcDbLine
 10
75.6424439889
 20
8.8846219601
 30
0.0
 11
75.6424439889
 21
12.1383304618
 31
0.0
  0
LINE
  5
87
330
1F
100
AcDbEntity
  8
0
  6
Continuous
 62
     7
370
    25
100
AcDbLine
 10
75.6424439889
 20
72.4735795726
 30
0.0
 11
75.6424439889
 21
105.1153780399
 31
0.0
  0
LINE
  5
88
330
1F
100
AcDbEntity
  8
0
  6
Continuous
 62
     7
370
    25
100
AcDbLine
 10
75.6424439889
 20
72.4735795726
 30
0.0
 11
93.2015593189
 21
72.4735795726
 31
0.0
  0
SPLINE
  5
89
330
1F
100
AcDbEntity
  8
0
  6
Continuous
 62
     7
370
    25
100
AcDbSpline
210
0.0
220
0.0
230
1.0
 70
     8
 71
     3
 72
     9
 73
     5
 74
     0
 42
0.00000001
 43
0.00000001
 40
0.0
 40
0.0
 40
0.0
 40
0.0
 40
0.5134990930344617
 40
1.0
 40
1.0
 40
1.0
 40
1.0
 10
93.6333408434553
 20
71.7938022473941
 30
0.0
 10
93.5569034645498
 20
71.90871403427629
 30
0.0
 10
93.40804754651144
 20
72.1324959034966
 30
0.0
 10
93.26913863189344
 20
72.36194996403238
 30
0.0
 10
93.2015593189462
 20
72.47357957258995
 30
0.0
  0
LINE
  5
8A
330
1F
100
AcDbEntity
  8
0
  6
Continuous
 62
     7
370
    25
100
AcDbLine
 10
93.6333408435
 20
60.8238136958
 30
0.0
 11
93.6333408435
 21
71.7938022474
 31
0.0
  0
LINE
  5
8B
330
1F
100
AcDbEntity
  8
0
  6
Continuous
 62
     7
370
    25
100
AcDbLine
 10
71.3246287438
 20
104.1472617816
 30
0.0
 11
71.3246287438
 21
9.8527382184
 31
0.0
  0
LINE
  5
8C
330
1F
100
AcDbEntity
  8
0
  6
Continuous
 62
     7
370
    25
100
AcDbLine
 10
93.2015593189
 20
57.0
 30
0.0
 11
93.2015593189
 21
41.1322431762
 31
0.0
  0
LINE
  5
8D
330
1F
100
AcDbEntity
  8
0
  6
Continuous
 62
     7
370
    25
100
AcDbLine
 10
93.6333408435
 20
41.2293728854
 30
0.0
 11
93.6333408435
 21
57.0
 31
0.0
  0
LINE
  5
8E
330
1F
100
AcDbEntity
  8
0
  6
Continuous
 62
     7
370
    25
100
AcDbLine
 10
93.2015593189
 20
75.2567611476
 30
0.0
 11
93.2015593189
 21
72.4735795726
 31
0.0
  0
LINE
  5
8F
330
1F
100
AcDbEntity
  8
0
  6
Continuous
 62
     7
370
    25
100
AcDbLine
 10
93.6333408435
 20
71.7938022474
 30
0.0
 11
93.6333408435
 21
75.1450078657
 31
0.0
  0
LINE
  5
90
330
1F
100
AcDbEntity
  8
0
  6
Continuous
 62
     7
370
    25
100
AcDbLine
 10
93.2015593189
 20
41.1322431762
 30
0.0
 11
93.2015593189
 21
37.875333089
 31
0.0
  0
LINE
  5
91
330
1F
100
AcDbEntity
  8
0
  6
Continuous
 62
     7
370
    25
100
AcDbLine
 10
93.6333408435
 20
37.2060423998
 30
0.0
 11
93.6333408435
 21
41.2293728854
 31
0.0
  0
SPLINE
  5
92
330
1F
100
AcDbEntity
  8
0
  6
Continuous
 62
     7
370
    25
100
AcDbSpline
210
0.0
220
0.0
230
1.0
 70
     8
 71
     3
 72
     8
 73
     4
 74
     0
 42
0.00000001
 43
0.00000001
 40
0.0
 40
0.0
 40
0.0
 40
0.0
 40
1.0
 40
1.0
 40
1.0
 40
1.0
 10
93.2027960231786
 20
95.50377549148115
 30
0.0
 10
93.20113773994917
 20
95.38002723461133
 30
0.0
 10
93.2015593189462
 20
95.2572878773033
 30
0.0
 10
93.2015593189462
 20
95.13330317771465
 30
0.0
  0
LINE
  5
93
330
1F
100
AcDbEntity
  8
0
  6
Continuous
 62
     7
370
    25
100
AcDbLine
 10
93.2015593189
 20
95.1333031777
 30
0.0
 11
93.2015593189
 21
75.2567611476
 31
0.0
  0
LINE
  5
94
330
1F
100
AcDbEntity
  8
0
  6
Continuous
 62
     7
370
    25
100
AcDbLine
 10
93.6333408435
 20
75.1450078657
 30
0.0
 11
93.6333408435
 21
94.8998816116
 31
0.0
  0
SPLINE
  5
95
330
1F
100
AcDbEntity
  8
0
  6
Continuous
 62
     7
370
    25
100
AcDbSpline
210
0.0
220
0.0
230
1.0
 70
    24
 71
     3
 72
    12
 73
     8
 74
     0
 42
0.00000001
 43
0.00000001
 40
0.0
 40
0.0
 40
0.0
 40
0.0
 40
0.0231684229972998
 40
0.209584568336792
 40
0.5124317914190382
 40
0.927270110558135
 40
1.0
 40
1.0
 40
1.0
 40
1.0
 10
93.63334084345529
 20
17.15882231414961
 30
0.0
 10
93.63334084345529
 20
17.15620387491305
 30
0.0
 10
93.63334084345526
 20
17.13251713295503
 30
0.0
 10
93.63334084345638
 20
17.22159273631984
 30
0.0
 10
93.63334084344811
 20
17.50734275641566
 30
0.0
 10
93.63334084345564
 20
17.91825591517528
 30
0.0
 10
93.63334084345534
 20
18.20792793199399
 30
0.0
 10
93.6333408434553
 20
18.25113791448842
 30
0.0
  0
SPLINE
  5
96
330
1F
100
AcDbEntity
  8
0
  6
Continuous
 62
     7
370
    25
100
AcDbSpline
210
0.0
220
0.0
230
1.0
 70
    24
 71
     3
 72
     8
 73
     4
 74
     0
 42
0.00000001
 43
0.00000001
 40
0.0
 40
0.0
 40
0.0
 40
0.0
 40
0.0307189572853099
 40
0.0307189572853099
 40
0.0307189572853099
 40
0.0307189572853099
 10
93.6333408434553
 20
94.89988161164004
 30
0.0
 10
93.6333408434553
 20
95.00515423729193
 30
0.0
 10
93.6333408434553
 20
95.10434367341166
 30
0.0
 10
93.6333408434553
 20
95.19544842931857
 30
0.0
  0
SPLINE
  5
97
330
1F
100
AcDbEntity
  8
0
  6
Continuous
 62
     7
370
    25
100
AcDbSpline
210
0.0
220
0.0
230
1.0
 70
     8
 71
     3
 72
    12
 73
     8
 74
     0
 42
0.00000001
 43
0.00000001
 40
0.0
 40
0.0
 40
0.0
 40
0.0
 40
0.0580822484862839
 40
0.2645028375073746
 40
0.5674873037373197
 40
0.7800997341421217
 40
1.0
 40
1.0
 40
1.0
 40
1.0
 10
93.30921783051208
 20
96.49134592969452
 30
0.0
 10
93.30719002513096
 20
96.4984676274313
 30
0.0
 10
93.29795552937377
 20
96.53089938254304
 30
0.0
 10
93.2677603739796
 20
96.43969783041454
 30
0.0
 10
93.23883097389967
 20
96.20627593774994
 30
0.0
 10
93.21225734984479
 20
95.86841501160781
 30
0.0
 10
93.20598502825649
 20
95.62667974396159
 30
0.0
 10
93.20279602317818
 20
95.50377549148078
 30
0.0
  0
SPLINE
  5
98
330
1F
100
AcDbEntity
  8
0
  6
Continuous
 62
     7
370
    25
100
AcDbSpline
210
0.0
220
0.0
230
1.0
 70
    24
 71
     3
 72
    10
 73
     6
 74
     0
 42
0.00000001
 43
0.00000001
 40
0.0
 40
0.0
 40
0.0
 40
0.0
 40
0.4546719194635948
 40
0.8355437513755637
 40
1.0
 40
1.0
 40
1.0
 40
1.0
 10
93.6333408434553
 20
95.19544842931857
 30
0.0
 10
93.63334084345529
 20
95.33723875119442
 30
0.0
 10
93.63334084345529
 20
95.59780469419054
 30
0.0
 10
93.6333408434553
 20
95.78824447042344
 30
0.0
 10
93.6333408434553
 20
95.79920634907643
 30
0.0
 10
93.6333408434553
 20
95.80251215617768
 30
0.0
  0
LINE
  5
99
330
1F
100
AcDbEntity
  8
0
  6
Continuous
 62
     7
370
    25
100
AcDbLine
 10
71.3246287438
 20
105.5607282516
 30
0.0
 11
71.3246287438
 21
104.1472617816
 31
0.0
  0
LINE
  5
9A
330
1F
100
AcDbEntity
  8
0
  6
Continuous
 62
     7
370
    25
100
AcDbLine
 10
75.6424439889
 20
105.1153780399
 30
0.0
 11
75.6424439889
 21
107.0
 31
0.0
  0
LINE
  5
9B
330
1F
100
AcDbEntity
  8
0
  6
Continuous
 62
     7
370
    25
100
AcDbLine
 10
71.3246287438
 20
9.8527382184
 30
0.0
 11
71.3246287438
 21
8.4392717484
 31
0.0
  0
LINE
  5
9C
330
1F
100
AcDbEntity
  8
0
  6
Continuous
 62
     7
370
    25
100
AcDbLine
 10
75.6424439889
 20
7.0
 30
0.0
 11
75.6424439889
 21
8.8846219601
 31
0.0
  0
LINE
  5
9D
330
1F
100
AcDbEntity
  8
0
  6
HIDDEN
 62
     7
370
    18
100
AcDbLine
 10
75.6424439889
 20
14.9374168192
 30
0.0
 11
75.6424439889
 21
37.875333089
 31
0.0
  0
LINE
  5
9E
330
1F
100
AcDbEntity
  8
0
  6
HIDDEN
 62
     7
370
    18
100
AcDbLine
 10
75.6424439889
 20
60.1291138909
 30
0.0
 11
75.6424439889
 21
72.4735795726
 31
0.0
  0
LINE
  5
9F
330
1F
100
AcDbEntity
  8
0
  6
HIDDEN
 62
     7
370
    18
100
AcDbLine
 10
77.8013516115
 20
99.2671688132
 30
0.0
 11
77.8013516115
 21
14.7328311868
 31
0.0
  0
SPLINE
  5
A0
330
1F
100
AcDbEntity
  8
0
  6
HIDDEN
 62
     7
370
    18
100
AcDbSpline
210
0.0
220
0.0
230
1.0
 70
     8
 71
     3
 72
     8
 73
     4
 74
     0
 42
0.00000001
 43
0.00000001
 40
0.0
 40
0.0
 40
0.0
 40
0.0
 40
1.0
 40
1.0
 40
1.0
 40
1.0
 10
93.32812462996061
 20
96.2670130706013
 30
0.0
 10
93.32932822251098
 20
96.35097974575665
 30
0.0
 10
93.327915151929
 20
96.41162634264349
 30
0.0
 10
93.32308986240307
 20
96.45236252340075
 30
0.0
  0
ELLIPSE
  5
A1
330
1F
100
AcDbEntity
  8
0
  6
HIDDEN
 62
     7
370
    18
100
AcDbEllipse
 10
89.3155255984
 20
57.0
 30
0.0
 11
64.91293487181957
 21
64.9129348718189
 31
0.0
210
0.0
220
0.0
230
1.0
 40
0.3443276133
 41
4.386916780144813
 42
4.443711040925357
  0
LINE
  5
A2
330
1F
100
AcDbEntity
  8
0
  6
HIDDEN
 62
     7
370
    18
100
AcDbLine
 10
75.6424439889
 20
12.1383304618
 30
0.0
 11
75.6424439889
 21
12.7216639417
 31
0.0
  0
ELLIPSE
  5
A3
330
1F
100
AcDbEntity
  8
0
  6
HIDDEN
 62
     7
370
    18
100
AcDbEllipse
 10
91.6659934457
 20
57.0
 30
0.0
 11
-23.72445370476764
 21
68.43778182671278
 31
0.0
210
0.0
220
0.0
230
1.0
 40
0.2290932954
 41
5.227125879525494
 42
5.237884380539245
  0
LINE
  5
A4
330
1F
100
AcDbEntity
  8
0
  6
HIDDEN
 62
     7
370
    18
100
AcDbLine
 10
93.3280251995
 20
96.0330235978
 30
0.0
 11
93.3280251995
 21
96.252957059
 31
0.0
  0
SPLINE
  5
A5
330
1F
100
AcDbEntity
  8
0
  6
HIDDEN
 62
     7
370
    18
100
AcDbSpline
210
0.0
220
0.0
230
1.0
 70
     8
 71
     3
 72
     8
 73
     4
 74
     0
 42
0.00000001
 43
0.00000001
 40
0.0
 40
0.0
 40
0.0
 40
0.0
 40
1.0
 40
1.0
 40
1.0
 40
1.0
 10
93.32802519948379
 20
96.25295705898438
 30
0.0
 10
93.32802519948379
 20
96.25767038864393
 30
0.0
 10
93.328058340722
 20
96.26235554166651
 30
0.0
 10
93.32812462988238
 20
96.26701307075189
 30
0.0
  0
ELLIPSE
  5
A6
330
1F
100
AcDbEntity
  8
0
  6
HIDDEN
 62
     7
370
    18
100
AcDbEllipse
 10
89.3155255984
 20
57.0
 30
0.0
 11
64.91293487181046
 21
-64.91293487181048
 31
0.0
210
0.0
220
0.0
230
1.0
 40
0.3443276133
 41
1.843929689721647
 42
1.896268527034972
  0
SPLINE
  5
A7
330
1F
100
AcDbEntity
  8
0
  6
HIDDEN
 62
     7
370
    18
100
AcDbSpline
210
0.0
220
0.0
230
1.0
 70
     8
 71
     3
 72
    12
 73
     8
 74
     0
 42
0.00000001
 43
0.00000001
 40
0.0
 40
0.0
 40
0.0
 40
0.0
 40
0.2500000000000014
 40
0.2500000000000014
 40
0.5000000000000029
 40
0.5000000000000029
 40
1.0
 40
1.0
 40
1.0
 40
1.0
 10
88.71935972025145
 20
14.7328311868225
 30
0.0
 10
88.8143499504486
 20
14.7328311868225
 30
0.0
 10
88.90775439197526
 20
14.74016773787231
 30
0.0
 10
89.09152145066095
 20
14.76892697636683
 30
0.0
 10
89.1828332147318
 20
14.79069739767508
 30
0.0
 10
89.444075254401
 20
14.87603226306189
 30
0.0
 10
89.60274324870817
 20
14.95945075688455
 30
0.0
 10
89.73707853348958
 20
15.06581625090837
 30
0.0
  0
SPLINE
  5
A8
330
1F
100
AcDbEntity
  8
0
  6
HIDDEN
 62
     7
370
    18
100
AcDbSpline
210
0.0
220
0.0
230
1.0
 70
     8
 71
     3
 72
    16
 73
    12
 74
     0
 42
0.00000001
 43
0.00000001
 40
0.0
 40
0.0
 40
0.0
 40
0.0
 40
0.2499999999999972
 40
0.2499999999999972
 40
0.3749999999999979
 40
0.3749999999999979
 40
0.4999999999999986
 40
0.4999999999999986
 40
0.7499999999999993
 40
0.7499999999999993
 40
1.0
 40
1.0
 40
1.0
 40
1.0
 10
75.64244398890887
 20
14.93741681917697
 30
0.0
 10
75.64244398890887
 20
15.11756659447246
 30
0.0
 10
75.70023536389346
 20
15.2549488418381
 30
0.0
 10
75.84033611069493
 20
15.38807099298094
 30
0.0
 10
75.89581172580117
 20
15.42074044753411
 30
0.0
 10
76.0163082902284
 20
15.46496939368489
 30
0.0
 10
76.08236054255654
 20
15.47706503775799
 30
0.0
 10
76.29176411996794
 20
15.48717917287039
 30
0.0
 10
76.44173698944896
 20
15.4602151022002
 30
0.0
 10
76.75736113930522
 20
15.35424353920892
 30
0.0
 10
76.91870275119834
 20
15.27624408632159
 30
0.0
 10
77.08171573727257
 20
15.17588327081802
 30
0.0
  0
LINE
  5
A9
330
1F
100
AcDbEntity
  8
0
  6
HIDDEN
 62
     7
370
    18
100
AcDbLine
 10
75.6424439889
 20
12.7216639417
 30
0.0
 11
75.6424439889
 21
14.9374168192
 31
0.0
  0
LINE
  5
AA
330
1F
100
AcDbEntity
  8
0
  6
HIDDEN
 62
     7
370
    18
100
AcDbLine
 10
77.8013516115
 20
14.7328311868
 30
0.0
 11
88.7193597203
 21
14.7328311868
 31
0.0
  0
LINE
  5
AB
330
1F
100
AcDbEntity
  8
0
  6
HIDDEN
 62
     7
370
    18
100
AcDbLine
 10
77.0817157373
 20
15.1758832708
 30
0.0
 11
77.8013516115
 21
14.7328311868
 31
0.0
  0
SPLINE
  5
AC
330
1F
100
AcDbEntity
  8
0
  6
HIDDEN
 62
     7
370
    18
100
AcDbSpline
210
0.0
220
0.0
230
1.0
 70
     8
 71
     3
 72
    12
 73
     8
 74
     0
 42
0.00000001
 43
0.00000001
 40
0.0
 40
0.0
 40
0.0
 40
0.0
 40
0.2499999999999986
 40
0.2499999999999986
 40
0.4999999999999972
 40
0.4999999999999972
 40
1.0
 40
1.0
 40
1.0
 40
1.0
 10
89.73707853348957
 20
98.93418374912498
 30
0.0
 10
89.66991090192451
 20
98.9873664875652
 30
0.0
 10
89.59728009829112
 20
99.03438855432677
 30
0.0
 10
89.44153915384366
 20
99.11668225395881
 30
0.0
 10
89.35744607397704
 20
99.1522369776607
 30
0.0
 10
89.09624205572862
 20
99.23764389380513
 30
0.0
 10
88.90934009918688
 20
99.26716881321066
 30
0.0
 10
88.71935972025145
 20
99.26716881321069
 30
0.0
  0
SPLINE
  5
AD
330
1F
100
AcDbEntity
  8
0
  6
HIDDEN
 62
     7
370
    18
100
AcDbSpline
210
0.0
220
0.0
230
1.0
 70
     8
 71
     3
 72
    16
 73
    12
 74
     0
 42
0.00000001
 43
0.00000001
 40
0.0
 40
0.0
 40
0.0
 40
0.0
 40
0.2500000000000022
 40
0.2500000000000022
 40
0.3750000000000021
 40
0.3750000000000021
 40
0.5000000000000019
 40
0.5000000000000019
 40
0.750000000000001
 40
0.750000000000001
 40
1.0
 40
1.0
 40
1.0
 40
1.0
 10
75.64244398890888
 20
99.06258318085433
 30
0.0
 10
75.64244398890887
 20
98.88243340555894
 30
0.0
 10
75.70023536389346
 20
98.74505115819338
 30
0.0
 10
75.84033611069493
 20
98.61192900705073
 30
0.0
 10
75.89581172580117
 20
98.57925955249765
 30
0.0
 10
76.0163082902284
 20
98.535030606347
 30
0.0
 10
76.08236054255654
 20
98.52293496227396
 30
0.0
 10
76.29176411996795
 20
98.51282082716173
 30
0.0
 10
76.44173698944897
 20
98.53978489783208
 30
0.0
 10
76.75736113930525
 20
98.6457564608236
 30
0.0
 10
76.91870275119837
 20
98.72375591371105
 30
0.0
 10
77.0817157372726
 20
98.82411672921474
 30
0.0
  0
LINE
  5
AE
330
1F
100
AcDbEntity
  8
0
  6
HIDDEN
 62
     7
370
    18
100
AcDbLine
 10
77.8013516115
 20
99.2671688132
 30
0.0
 11
88.7193597203
 21
99.2671688132
 31
0.0
  0
LINE
  5
AF
330
1F
100
AcDbEntity
  8
0
  6
HIDDEN
 62
     7
370
    18
100
AcDbLine
 10
77.0817157373
 20
98.8241167292
 30
0.0
 11
77.8013516115
 21
99.2671688132
 31
0.0
  0
LINE
  5
B0
330
1F
100
AcDbEntity
  8
0
  6
HIDDEN
 62
     7
370
    18
100
AcDbLine
 10
71.3246287438
 20
57.0
 30
0.0
 11
72.7639004922
 21
57.0
 31
0.0
  0
LINE
  5
B1
330
1F
100
AcDbEntity
  8
0
  6
HIDDEN
 62
     7
370
    18
100
AcDbLine
 10
75.6424439889
 20
57.0
 30
0.0
 11
72.7639004922
 21
57.0
 31
0.0
  0
LINE
  5
B2
330
1F
100
AcDbEntity
  8
0
  6
HIDDEN
 62
     7
370
    18
100
AcDbLine
 10
75.6424439889
 20
62.6104398287
 30
0.0
 11
71.3246287438
 21
62.6104398287
 31
0.0
  0
LINE
  5
B3
330
1F
100
AcDbEntity
  8
0
  6
HIDDEN
 62
     7
370
    18
100
AcDbLine
 10
71.3246287438
 20
51.3895601713
 30
0.0
 11
75.6424439889
 21
51.3895601713
 31
0.0
  0
LINE
  5
B4
330
1F
100
AcDbEntity
  8
0
  6
HIDDEN
 62
     7
370
    18
100
AcDbLine
 10
75.7405166922
 20
12.6336393159
 30
0.0
 11
75.7623893629
 21
12.6866663134
 31
0.0
  0
LINE
  5
B5
330
1F
100
AcDbEntity
  8
0
  6
HIDDEN
 62
     7
370
    18
100
AcDbLine
 10
71.3246287438
 20
83.8596951975
 30
0.0
 11
75.6424439889
 21
83.8596951975
 31
0.0
  0
LINE
  5
B6
330
1F
100
AcDbEntity
  8
0
  6
HIDDEN
 62
     7
370
    18
100
AcDbLine
 10
75.6424439889
 20
30.1403048023
 30
0.0
 11
71.3246287438
 21
30.1403048023
 31
0.0
  0
LINE
  5
B7
330
1F
100
AcDbEntity
  8
0
  6
HIDDEN
 62
     7
370
    18
100
AcDbLine
 10
75.6424439889
 20
94.1191211077
 30
0.0
 11
71.3246287438
 21
94.1191211077
 31
0.0
  0
LINE
  5
B8
330
1F
100
AcDbEntity
  8
0
  6
HIDDEN
 62
     7
370
    18
100
AcDbLine
 10
71.3246287438
 20
19.8808788926
 30
0.0
 11
75.6424439889
 21
19.8808788926
 31
0.0
  0
ARC
  5
B9
330
1F
100
AcDbEntity
  8
0
  6
Continuous
 62
     7
370
    25
100
AcDbCircle
 10
72.7639004922
 20
143.9683504535
 30
0.0
 40
1.439271748363709
100
AcDbArc
 50
180.0
 51
270.0
  0
LINE
  5
BA
330
1F
100
AcDbEntity
  8
0
  6
Continuous
 62
     7
370
    25
100
AcDbLine
 10
72.7639004922
 20
142.5290787051
 30
0.0
 11
75.6424439889
 21
142.5290787051
 31
0.0
  0
LINE
  5
BB
330
1F
100
AcDbEntity
  8
0
  6
Continuous
 62
     7
370
    25
100
AcDbLine
 10
75.6424439889
 20
161.1297061641
 30
0.0
 11
75.6424439889
 21
171.1389578723
 31
0.0
  0
LINE
  5
BC
330
1F
100
AcDbEntity
  8
0
  6
Continuous
 62
     7
370
    25
100
AcDbLine
 10
71.3246287438
 20
169.7016585958
 30
0.0
 11
71.3246287438
 21
162.1947198147
 31
0.0
  0
LINE
  5
BD
330
1F
100
AcDbEntity
  8
0
  6
Continuous
 62
     7
370
    25
100
AcDbLine
 10
71.3246287438
 20
162.1947198147
 30
0.0
 11
71.3246287438
 21
143.9683504535
 31
0.0
  0
LINE
  5
BE
330
1F
100
AcDbEntity
  8
0
  6
Continuous
 62
     7
370
    25
100
AcDbLine
 10
75.6424439889
 20
142.5975520382
 30
0.0
 11
93.2015593189
 21
142.5975520382
 31
0.0
  0
LINE
  5
BF
330
1F
100
AcDbEntity
  8
0
  6
Continuous
 62
     7
370
    25
100
AcDbLine
 10
75.6424439889
 20
142.5290787051
 30
0.0
 11
75.6424439889
 21
142.5975520382
 31
0.0
  0
LINE
  5
C0
330
1F
100
AcDbEntity
  8
0
  6
Continuous
 62
     7
370
    25
100
AcDbLine
 10
75.6424439889
 20
144.2227317765
 30
0.0
 11
93.2015593189
 21
144.2227317765
 31
0.0
  0
SPLINE
  5
C1
330
1F
100
AcDbEntity
  8
0
  6
Continuous
 62
     7
370
    25
100
AcDbSpline
210
0.0
220
0.0
230
1.0
 70
     8
 71
     3
 72
     9
 73
     5
 74
     0
 42
0.00000001
 43
0.00000001
 40
0.0
 40
0.0
 40
0.0
 40
0.0
 40
0.5134990930344617
 40
1.0
 40
1.0
 40
1.0
 40
1.0
 10
93.6333408434553
 20
144.0755813596177
 30
0.0
 10
93.5569034645498
 20
144.1000158305568
 30
0.0
 10
93.40804754651144
 20
144.147600083909
 30
0.0
 10
93.26913863189344
 20
144.1981427322681
 30
0.0
 10
93.2015593189462
 20
144.2227317765352
 30
0.0
  0
LINE
  5
C2
330
1F
100
AcDbEntity
  8
0
  6
Continuous
 62
     7
370
    25
100
AcDbLine
 10
93.6333408435
 20
142.6313549683
 30
0.0
 11
93.6333408435
 21
144.0755813596
 31
0.0
  0
SPLINE
  5
C3
330
1F
100
AcDbEntity
  8
0
  6
Continuous
 62
     7
370
    25
100
AcDbSpline
210
0.0
220
0.0
230
1.0
 70
     8
 71
     3
 72
     9
 73
     5
 74
     0
 42
0.00000001
 43
0.00000001
 40
0.0
 40
0.0
 40
0.0
 40
0.0
 40
0.4865009069659133
 40
0.9999999999999999
 40
0.9999999999999999
 40
0.9999999999999999
 40
0.9999999999999999
 10
93.2015593189462
 20
142.5975520381562
 30
0.0
 10
93.26913863189345
 20
142.602692713947
 30
0.0
 10
93.4080475465114
 20
142.6132593454108
 30
0.0
 10
93.5569034645498
 20
142.6252154958762
 30
0.0
 10
93.6333408434553
 20
142.6313549682963
 30
0.0
  0
LINE
  5
C4
330
1F
100
AcDbEntity
  8
0
  6
Continuous
 62
     7
370
    25
100
AcDbLine
 10
75.6424439889
 20
144.2227317765
 30
0.0
 11
75.6424439889
 21
161.1297061641
 31
0.0
  0
ELLIPSE
  5
C5
330
1F
100
AcDbEntity
  8
0
  6
Continuous
 62
     7
370
    25
100
AcDbEllipse
 10
72.7639004922
 20
172.0321743677
 30
0.0
 11
7.105427357601002E-14
 21
1.441246927187478
 31
-1.720438342895718E-14
210
5.885082129598329E-28
220
1.193715185400650E-14
230
1.0
 40
0.9986295348
 41
0.0000000000000494
 42
1.570796326794946
  0
LINE
  5
C6
330
1F
100
AcDbEntity
  8
0
  6
Continuous
 62
     7
370
    25
100
AcDbLine
 10
71.3246287438
 20
172.0321743677
 30
0.0
 11
71.3246287438
 21
169.7016585958
 31
0.0
  0
LINE
  5
C7
330
1F
100
AcDbEntity
  8
0
  6
Continuous
 62
     7
370
    25
100
AcDbLine
 10
75.6424439889
 20
173.4734212949
 30
0.0
 11
72.7639004922
 21
173.4734212949
 31
0.0
  0
LINE
  5
C8
330
1F
100
AcDbEntity
  8
0
  6
Continuous
 62
     7
370
    25
100
AcDbLine
 10
75.6424439889
 20
173.4734212949
 30
0.0
 11
75.6424439889
 21
171.1389578723
 31
0.0
  0
SPLINE
  5
C9
330
1F
100
AcDbEntity
  8
0
  6
Continuous
 62
     7
370
    25
100
AcDbSpline
210
0.0
220
0.0
230
1.0
 70
     8
 71
     3
 72
    16
 73
    12
 74
     0
 42
0.00000001
 43
0.00000001
 40
0.0
 40
0.0
 40
0.0
 40
0.0
 40
0.2500000000000022
 40
0.2500000000000022
 40
0.3750000000000021
 40
0.3750000000000021
 40
0.5000000000000019
 40
0.5000000000000019
 40
0.750000000000001
 40
0.750000000000001
 40
1.0
 40
1.0
 40
1.0
 40
1.0
 10
75.64244398890888
 20
162.5609980647365
 30
0.0
 10
75.64244398890887
 20
162.4138605578729
 30
0.0
 10
75.70023536389346
 20
162.2287093945564
 30
0.0
 10
75.84033611069493
 20
161.9426340357234
 30
0.0
 10
75.89581172580117
 20
161.8456624132684
 30
0.0
 10
76.0163082902284
 20
161.6566314578366
 30
0.0
 10
76.08236054255654
 20
161.5628267383503
 30
0.0
 10
76.29176411996795
 20
161.2880421331479
 30
0.0
 10
76.44173698944897
 20
161.1186096970346
 30
0.0
 10
76.75736113930525
 20
160.8006950640132
 30
0.0
 10
76.91870275119837
 20
160.6569123533157
 30
0.0
 10
77.0817157372726
 20
160.5284563673117
 30
0.0
  0
SPLINE
  5
CA
330
1F
100
AcDbEntity
  8
0
  6
Continuous
 62
     7
370
    25
100
AcDbSpline
210
0.0
220
0.0
230
1.0
 70
     8
 71
     3
 72
    18
 73
    14
 74
     0
 42
0.00000001
 43
0.00000001
 40
0.0
 40
0.0
 40
0.0
 40
0.0
 40
0.125
 40
0.125
 40
0.25
 40
0.25
 40
0.375
 40
0.375
 40
0.5
 40
0.5
 40
0.75
 40
0.75
 40
1.0
 40
1.0
 40
1.0
 40
1.0
 10
93.32812462996061
 20
157.2838585961485
 30
0.0
 10
93.32913767592738
 20
157.1917391351633
 30
0.0
 10
93.32834019666697
 20
157.0910991152636
 30
0.0
 10
93.3219385783648
 20
156.875385753896
 30
0.0
 10
93.31634639758286
 20
156.7618825122817
 30
0.0
 10
93.30262598681188
 20
156.5333349852359
 30
0.0
 10
93.29451389825527
 20
156.4171686981635
 30
0.0
 10
93.27884625021683
 20
156.1924689982802
 30
0.0
 10
93.27118289208047
 20
156.0813938023951
 30
0.0
 10
93.24972322807125
 20
155.7660589428106
 30
0.0
 10
93.23584562254436
 20
155.5722007913223
 30
0.0
 10
93.21369601802807
 20
155.2312093435353
 30
0.0
 10
93.20538248059836
 20
155.083592058841
 30
0.0
 10
93.20279602317689
 20
154.9578503801151
 30
0.0
  0
SPLINE
  5
CB
330
1F
100
AcDbEntity
  8
0
  6
Continuous
 62
     7
370
    25
100
AcDbSpline
210
0.0
220
0.0
230
1.0
 70
     8
 71
     3
 72
     8
 73
     4
 74
     0
 42
0.00000001
 43
0.00000001
 40
0.0
 40
0.0
 40
0.0
 40
0.0
 40
1.0
 40
1.0
 40
1.0
 40
1.0
 10
93.2027960231786
 20
154.957850380116
 30
0.0
 10
93.20113773994917
 20
154.877232266969
 30
0.0
 10
93.2015593189462
 20
154.7978183177091
 30
0.0
 10
93.2015593189462
 20
154.7181464608456
 30
0.0
  0
LINE
  5
CC
330
1F
100
AcDbEntity
  8
0
  6
Continuous
 62
     7
370
    25
100
AcDbLine
 10
93.2015593189
 20
154.7181464608
 30
0.0
 11
93.2015593189
 21
145.9257244144
 31
0.0
  0
LINE
  5
CD
330
1F
100
AcDbEntity
  8
0
  6
Continuous
 62
     7
370
    25
100
AcDbLine
 10
77.0817157373
 20
160.5284563673
 30
0.0
 11
77.8013516115
 21
159.9613755598
 31
0.0
  0
LINE
  5
CE
330
1F
100
AcDbEntity
  8
0
  6
Continuous
 62
     7
370
    25
100
AcDbLine
 10
77.8013516115
 20
159.9613755598
 30
0.0
 11
88.7193597203
 21
159.9613755598
 31
0.0
  0
SPLINE
  5
CF
330
1F
100
AcDbEntity
  8
0
  6
Continuous
 62
     7
370
    25
100
AcDbSpline
210
0.0
220
0.0
230
1.0
 70
     8
 71
     3
 72
    12
 73
     8
 74
     0
 42
0.00000001
 43
0.00000001
 40
0.0
 40
0.0
 40
0.0
 40
0.0
 40
0.2499999999999986
 40
0.2499999999999986
 40
0.4999999999999972
 40
0.4999999999999972
 40
1.0
 40
1.0
 40
1.0
 40
1.0
 10
89.73707853348957
 20
159.7028615383296
 30
0.0
 10
89.66991090192451
 20
159.743889055529
 30
0.0
 10
89.59728009829112
 20
159.7802865166234
 30
0.0
 10
89.44153915384366
 20
159.8441138980844
 30
0.0
 10
89.35744607397704
 20
159.8717652344322
 30
0.0
 10
89.09624205572862
 20
159.9382730220996
 30
0.0
 10
88.90934009918688
 20
159.9613755597751
 30
0.0
 10
88.71935972025145
 20
159.9613755597751
 30
0.0
  0
ELLIPSE
  5
D0
330
1F
100
AcDbEntity
  8
0
  6
Continuous
 62
     7
370
    25
100
AcDbEllipse
 10
89.3155255984
 20
214.0608845988
 30
0.0
 11
-61.70514350137852
 21
61.70514350137956
 31
0.0
210
0.0
220
0.0
230
1.0
 40
0.4877325886
 41
2.083061127266207
 42
2.087516550733006
  0
LINE
  5
D1
330
1F
100
AcDbEntity
  8
0
  6
Continuous
 62
     7
370
    25
100
AcDbLine
 10
93.6333408435
 20
157.1668527077
 30
0.0
 11
93.6333408435
 21
157.4101654514
 31
0.0
  0
ELLIPSE
  5
D2
330
1F
100
AcDbEntity
  8
0
  6
Continuous
 62
     7
370
    25
100
AcDbEllipse
 10
91.6659934457
 20
214.0608845988
 30
0.0
 11
-19.36739756605986
 21
68.39962728768035
 31
0.0
210
0.0
220
0.0
230
1.0
 40
0.3044230381
 41
2.450861694316507
 42
2.461620195330256
  0
ELLIPSE
  5
D3
330
1F
100
AcDbEntity
  8
0
  6
Continuous
 62
     7
370
    25
100
AcDbEllipse
 10
89.3155255984
 20
214.0608845988
 30
0.0
 11
-61.70514350139092
 21
61.70514350139099
 31
0.0
210
0.0
220
0.0
230
1.0
 40
0.4877325886
 41
2.03072228995227
 42
2.083061127265595
  0
LINE
  5
D4
330
1F
100
AcDbEntity
  8
0
  6
Continuous
 62
     7
370
    25
100
AcDbLine
 10
93.3280251995
 20
157.5835129659
 30
0.0
 11
93.3280251995
 21
157.3020109726
 31
0.0
  0
SPLINE
  5
D5
330
1F
100
AcDbEntity
  8
0
  6
Continuous
 62
     7
370
    25
100
AcDbSpline
210
0.0
220
0.0
230
1.0
 70
     8
 71
     3
 72
     8
 73
     4
 74
     0
 42
0.00000001
 43
0.00000001
 40
0.0
 40
0.0
 40
0.0
 40
0.0
 40
1.0
 40
1.0
 40
1.0
 40
1.0
 10
93.32802519948379
 20
157.3020109726447
 30
0.0
 10
93.32802519948379
 20
157.2959781857873
 30
0.0
 10
93.328058340722
 20
157.2899276330866
 30
0.0
 10
93.32812462988238
 20
157.2838585962626
 30
0.0
  0
SPLINE
  5
D6
330
1F
100
AcDbEntity
  8
0
  6
Continuous
 62
     7
370
    25
100
AcDbSpline
210
0.0
220
0.0
230
1.0
 70
    24
 71
     3
 72
    16
 73
    12
 74
     0
 42
0.00000001
 43
0.00000001
 40
0.0307189572853037
 40
0.0307189572853037
 40
0.0307189572853037
 40
0.0307189572853037
 40
0.0755511090914095
 40
0.0755511090914095
 40
0.135785333953834
 40
0.135785333953834
 40
0.181004987682924
 40
0.181004987682924
 40
0.203086712202413
 40
0.203086712202413
 40
0.223225717870799
 40
0.223225717870799
 40
0.223225717870799
 40
0.223225717870799
 10
93.6333408434553
 20
155.3051788117993
 30
0.0
 10
93.6333408434553
 20
155.4232096448927
 30
0.0
 10
93.6333408434553
 20
155.5532398025662
 30
0.0
 10
93.6333408434553
 20
155.8693474249904
 30
0.0
 10
93.6333408434553
 20
156.0531186656529
 30
0.0
 10
93.6333408434553
 20
156.3462574001293
 30
0.0
 10
93.6333408434553
 20
156.46734858778
 30
0.0
 10
93.6333408434553
 20
156.6283159985015
 30
0.0
 10
93.6333408434553
 20
156.6775633100897
 30
0.0
 10
93.6333408434553
 20
156.7654393046762
 30
0.0
 10
93.6333408434553
 20
156.8040626042967
 30
0.0
 10
93.6333408434553
 20
156.8401268566478
 30
0.0
  0
SPLINE
  5
D7
330
1F
100
AcDbEntity
  8
0
  6
Continuous
 62
     7
370
    25
100
AcDbSpline
210
0.0
220
0.0
230
1.0
 70
    24
 71
     3
 72
     8
 73
     4
 74
     0
 42
0.00000001
 43
0.00000001
 40
0.223225717870797
 40
0.223225717870797
 40
0.223225717870797
 40
0.223225717870797
 40
0.224738160301687
 40
0.224738160301687
 40
0.224738160301687
 40
0.224738160301687
 10
93.6333408434553
 20
156.8401268566478
 30
0.0
 10
93.6333408434553
 20
156.84283528756
 30
0.0
 10
93.6333408434553
 20
156.8455291435086
 30
0.0
 10
93.6333408434553
 20
156.8482086424397
 30
0.0
  0
LINE
  5
D8
330
1F
100
AcDbEntity
  8
0
  6
Continuous
 62
     7
370
    25
100
AcDbLine
 10
93.6333408435
 20
156.8482086424
 30
0.0
 11
93.6333408435
 21
157.1668527077
 31
0.0
  0
SPLINE
  5
D9
330
1F
100
AcDbEntity
  8
0
  6
Continuous
 62
     7
370
    25
100
AcDbSpline
210
0.0
220
0.0
230
1.0
 70
    24
 71
     3
 72
     8
 73
     4
 74
     0
 42
0.00000001
 43
0.00000001
 40
0.0
 40
0.0
 40
0.0
 40
0.0
 40
0.0307189572853099
 40
0.0307189572853099
 40
0.0307189572853099
 40
0.0307189572853099
 10
93.6333408434553
 20
155.0813952150055
 30
0.0
 10
93.6333408434553
 20
155.149042800477
 30
0.0
 10
93.6333408434553
 20
155.2243041721918
 30
0.0
 10
93.6333408434553
 20
155.3051788117994
 30
0.0
  0
LINE
  5
DA
330
1F
100
AcDbEntity
  8
0
  6
Continuous
 62
     7
370
    25
100
AcDbLine
 10
93.6333408435
 20
146.3427933402
 30
0.0
 11
93.6333408435
 21
155.081395215
 31
0.0
  0
LINE
  5
DB
330
1F
100
AcDbEntity
  8
0
  6
Continuous
 62
     7
370
    25
100
AcDbLine
 10
93.2015593189
 20
145.9257244144
 30
0.0
 11
93.2015593189
 21
144.2227317765
 31
0.0
  0
LINE
  5
DC
330
1F
100
AcDbEntity
  8
0
  6
Continuous
 62
     7
370
    25
100
AcDbLine
 10
93.6333408435
 20
144.0755813596
 30
0.0
 11
93.6333408435
 21
146.3427933402
 31
0.0
  0
LINE
  5
DD
330
1F
100
AcDbEntity
  8
0
  6
HIDDEN
 62
     7
370
    18
100
AcDbLine
 10
75.6424439889
 20
145.1330500908
 30
0.0
 11
93.2015593189
 21
145.1330500908
 31
0.0
  0
SPLINE
  5
DE
330
1F
100
AcDbEntity
  8
0
  6
HIDDEN
 62
     7
370
    18
100
AcDbSpline
210
0.0
220
0.0
230
1.0
 70
     8
 71
     3
 72
     9
 73
     5
 74
     0
 42
0.00000001
 43
0.00000001
 40
0.0
 40
0.0
 40
0.0
 40
0.0
 40
0.5134990930341321
 40
1.0
 40
1.0
 40
1.0
 40
1.0
 10
93.6333408434553
 20
145.322260107631
 30
0.0
 10
93.55690346454982
 20
145.2898866487594
 30
0.0
 10
93.40804754651143
 20
145.2268418268487
 30
0.0
 10
93.26913863189347
 20
145.1637461801666
 30
0.0
 10
93.2015593189462
 20
145.1330500908302
 30
0.0
  0
SPLINE
  5
DF
330
1F
100
AcDbEntity
  8
0
  6
HIDDEN
 62
     7
370
    18
100
AcDbSpline
210
0.0
220
0.0
230
1.0
 70
     8
 71
     3
 72
    14
 73
    10
 74
     0
 42
0.00000001
 43
0.00000001
 40
0.0
 40
0.0
 40
0.0
 40
0.0
 40
0.25
 40
0.25
 40
0.5
 40
0.5
 40
0.75
 40
0.75
 40
1.0
 40
1.0
 40
1.0
 40
1.0
 10
75.64244398890888
 20
158.345268649031
 30
0.0
 10
75.64244398890887
 20
158.1876916982439
 30
0.0
 10
75.68957384370692
 20
158.0360818717808
 30
0.0
 10
75.85527357089717
 20
157.7434009033198
 30
0.0
 10
75.97029723356128
 20
157.6089374695541
 30
0.0
 10
76.24254093857019
 20
157.3556125918418
 30
0.0
 10
76.40018541581982
 20
157.2370999571196
 30
0.0
 10
76.73178609190786
 20
157.013029536856
 30
0.0
 10
76.90760861515565
 20
156.9060554208416
 30
0.0
 10
77.0817157372726
 20
156.800637730926
 30
0.0
  0
LINE
  5
E0
330
1F
100
AcDbEntity
  8
0
  6
HIDDEN
 62
     7
370
    18
100
AcDbLine
 10
77.8013516115
 20
159.9613755598
 30
0.0
 11
77.8013516115
 21
145.4076222018
 31
0.0
  0
LINE
  5
E1
330
1F
100
AcDbEntity
  8
0
  6
HIDDEN
 62
     7
370
    18
100
AcDbLine
 10
93.6333408435
 20
143.953957736
 30
0.0
 11
93.2015593189
 21
143.5221762115
 31
0.0
  0
LINE
  5
E2
330
1F
100
AcDbEntity
  8
0
  6
HIDDEN
 62
     7
370
    18
100
AcDbLine
 10
93.2015593189
 20
142.5975520382
 30
0.0
 11
93.2015593189
 21
143.5221762115
 31
0.0
  0
LINE
  5
E3
330
1F
100
AcDbEntity
  8
0
  6
HIDDEN
 62
     7
370
    18
100
AcDbLine
 10
75.6424439889
 20
143.5221762115
 30
0.0
 11
93.2015593189
 21
143.5221762115
 31
0.0
  0
LINE
  5
E4
330
1F
100
AcDbEntity
  8
0
  6
HIDDEN
 62
     7
370
    18
100
AcDbLine
 10
75.6424439889
 20
143.5221762115
 30
0.0
 11
75.6424439889
 21
142.5975520382
 31
0.0
  0
LINE
  5
E5
330
1F
100
AcDbEntity
  8
0
  6
HIDDEN
 62
     7
370
    18
100
AcDbLine
 10
93.2015593189
 20
143.5221762115
 30
0.0
 11
93.2015593189
 21
144.2227317765
 31
0.0
  0
LINE
  5
E6
330
1F
100
AcDbEntity
  8
0
  6
HIDDEN
 62
     7
370
    18
100
AcDbLine
 10
75.6424439889
 20
144.2227317765
 30
0.0
 11
75.6424439889
 21
143.5221762115
 31
0.0
  0
LINE
  5
E7
330
1F
100
AcDbEntity
  8
0
  6
HIDDEN
 62
     7
370
    18
100
AcDbLine
 10
77.8013516115
 20
145.4076222018
 30
0.0
 11
93.6333408435
 21
145.4076222018
 31
0.0
  0
LINE
  5
E8
330
1F
100
AcDbEntity
  8
0
  6
HIDDEN
 62
     7
370
    18
100
AcDbLine
 10
75.6424439889
 20
147.5665298244
 30
0.0
 11
77.8013516115
 21
145.4076222018
 31
0.0
  0
LINE
  5
E9
330
1F
100
AcDbEntity
  8
0
  6
HIDDEN
 62
     7
370
    18
100
AcDbLine
 10
75.6424439889
 20
166.9903859827
 30
0.0
 11
71.3246287438
 21
166.9903859827
 31
0.0
  0
LINE
  5
EA
330
1F
100
AcDbEntity
  8
0
  6
HIDDEN
 62
     7
370
    18
100
AcDbLine
 10
71.3246287438
 20
158.7438743545
 30
0.0
 11
75.6424439889
 21
158.7438743545
 31
0.0
  0
LINE
  5
EB
330
1F
100
AcDbEntity
  8
0
  6
HIDDEN
 62
     7
370
    18
100
AcDbLine
 10
75.6424439889
 20
156.1410769601
 30
0.0
 11
71.3246287438
 21
156.1410769601
 31
0.0
  0
LINE
  5
EC
330
1F
100
AcDbEntity
  8
0
  6
HIDDEN
 62
     7
370
    18
100
AcDbLine
 10
71.3246287438
 20
151.1647091951
 30
0.0
 11
75.6424439889
 21
151.1647091951
 31
0.0
  0
LINE
  5
ED
330
1F
100
AcDbEntity
  8
0
  6
HIDDEN
 62
     7
370
    18
100
AcDbLine
 10
71.3246287438
 20
156.0582331399
 30
0.0
 11
75.6424439889
 21
156.0582331399
 31
0.0
  0
LINE
  5
EE
330
1F
100
AcDbEntity
  8
0
  6
HIDDEN
 62
     7
370
    18
100
AcDbLine
 10
93.6333408435
 20
145.9094140287
 30
0.0
 11
93.2015593189
 21
145.4776325042
 31
0.0
  0
LINE
  5
EF
330
1F
100
AcDbEntity
  8
0
  6
HIDDEN
 62
     7
370
    18
100
AcDbLine
 10
93.2015593189
 20
145.4776325042
 30
0.0
 11
75.6424439889
 21
145.4776325042
 31
0.0
  0
LINE
  5
F0
330
1F
100
AcDbEntity
  8
0
  6
Continuous
 62
     7
370
    25
100
AcDbLine
 10
222.7566314004
 20
99.4912752997
 30
0.0
 11
222.7222648889
 21
99.4467955926
 31
0.0
  0
LINE
  5
F1
330
1F
100
AcDbEntity
  8
0
  6
Continuous
 62
     7
370
    25
100
AcDbLine
 10
222.8837132075
 20
99.6557540702
 30
0.0
 11
222.8097134774
 21
99.5599780901
 31
0.0
  0
ARC
  5
F2
330
1F
100
AcDbEntity
  8
0
  6
Continuous
 62
     7
370
    25
100
AcDbCircle
 10
279.0608845988
 20
57.0
 30
0.0
 40
71.53180589367656
100
AcDbArc
 50
212.7995192937
 51
216.8234125945
  0
SPLINE
  5
F3
330
1F
100
AcDbEntity
  8
0
  6
Continuous
 62
     7
370
    25
100
AcDbSpline
210
0.0
220
0.0
230
1.0
 70
     8
 71
     3
 72
    14
 73
    10
 74
     0
 42
0.00000001
 43
0.00000001
 40
0.0
 40
0.0
 40
0.0
 40
0.0
 40
0.25
 40
0.25
 40
0.5
 40
0.5
 40
0.75
 40
0.75
 40
1.0
 40
1.0
 40
1.0
 40
1.0
 10
221.329158317711
 20
17.37441825883457
 30
0.0
 10
221.1396505476297
 20
17.22638715950977
 30
0.0
 10
220.9035662169703
 20
17.15529072841325
 30
0.0
 10
220.4253362857038
 20
17.14834193382906
 30
0.0
 10
220.1893647971148
 20
17.21247739159158
 30
0.0
 10
219.7625053857703
 20
17.41398457720677
 30
0.0
 10
219.5647281083405
 20
17.55254168855185
 30
0.0
 10
219.2166116969098
 20
17.86944234921503
 30
0.0
 10
219.0624663490745
 20
18.05072648384731
 30
0.0
 10
218.9333123752967
 20
18.25113791448841
 30
0.0
  0
ARC
  5
F4
330
1F
100
AcDbEntity
  8
0
  6
Continuous
 62
     7
370
    25
100
AcDbCircle
 10
279.0608845988
 20
57.0
 30
0.0
 40
70.53870838730595
100
AcDbArc
 50
143.1934997554
 51
146.9170164427
  0
SPLINE
  5
F5
330
1F
100
AcDbEntity
  8
0
  6
Continuous
 62
     7
370
    25
100
AcDbSpline
210
0.0
220
0.0
230
1.0
 70
     8
 71
     3
 72
    18
 73
    14
 74
     0
 42
0.00000001
 43
0.00000001
 40
0.0
 40
0.0
 40
0.0
 40
0.0
 40
0.125
 40
0.125
 40
0.25
 40
0.25
 40
0.375
 40
0.375
 40
0.5
 40
0.5
 40
0.75
 40
0.75
 40
1.0
 40
1.0
 40
1.0
 40
1.0
 10
222.2838585961485
 20
96.2670130706013
 30
0.0
 10
222.1917391351633
 20
96.33768657351006
 30
0.0
 10
222.0910991152636
 20
96.3916573102872
 30
0.0
 10
221.875385753896
 20
96.47125803067192
 30
0.0
 10
221.7618825122817
 20
96.49576887781556
 30
0.0
 10
221.5333349852359
 20
96.5141236674725
 30
0.0
 10
221.4171686981635
 20
96.50785533517018
 30
0.0
 10
221.1924689982802
 20
96.46704469057818
 30
0.0
 10
221.0813938023951
 20
96.43211203698279
 30
0.0
 10
220.7660589428106
 20
96.29861955545721
 30
0.0
 10
220.5722007913223
 20
96.1701125038306
 30
0.0
 10
220.2312093435353
 20
95.86897405730735
 30
0.0
 10
220.083592058841
 20
95.69678811545192
 30
0.0
 10
219.9578503801151
 20
95.5037754914797
 30
0.0
  0
ARC
  5
F6
330
1F
100
AcDbEntity
  8
0
  6
Continuous
 62
     7
370
    25
100
AcDbCircle
 10
205.3648054032
 20
76.7468049058
 30
0.0
 40
6.18886851796398
100
AcDbArc
 50
306.8404499144
 51
345.0
  0
ARC
  5
F7
330
1F
100
AcDbEntity
  8
0
  6
Continuous
 62
     7
370
    25
100
AcDbCircle
 10
279.0608845988
 20
57.0
 30
0.0
 40
70.10692686279695
100
AcDbArc
 50
147.2754324564
 51
165.0
  0
SPLINE
  5
F8
330
1F
100
AcDbEntity
  8
0
  6
Continuous
 62
     7
370
    25
100
AcDbSpline
210
0.0
220
0.0
230
1.0
 70
     8
 71
     3
 72
     8
 73
     4
 74
     0
 42
0.00000001
 43
0.00000001
 40
0.0
 40
0.0
 40
0.0
 40
0.0
 40
0.0307189572853099
 40
0.0307189572853099
 40
0.0307189572853099
 40
0.0307189572853099
 10
220.0813952150055
 20
94.89988161164004
 30
0.0
 10
220.149042800477
 20
95.00515423729193
 30
0.0
 10
220.2243041721918
 20
95.10434367341166
 30
0.0
 10
220.3051788117994
 20
95.19544842931857
 30
0.0
  0
SPLINE
  5
F9
330
1F
100
AcDbEntity
  8
0
  6
Continuous
 62
     7
370
    25
100
AcDbSpline
210
0.0
220
0.0
230
1.0
 70
     8
 71
     3
 72
    16
 73
    12
 74
     0
 42
0.00000001
 43
0.00000001
 40
0.0307189572853037
 40
0.0307189572853037
 40
0.0307189572853037
 40
0.0307189572853037
 40
0.0755511090914095
 40
0.0755511090914095
 40
0.135785333953834
 40
0.135785333953834
 40
0.181004987682924
 40
0.181004987682924
 40
0.203086712202413
 40
0.203086712202413
 40
0.223225717870799
 40
0.223225717870799
 40
0.223225717870799
 40
0.223225717870799
 10
220.3051788117993
 20
95.19544842931843
 30
0.0
 10
220.4232096448927
 20
95.32840939570623
 30
0.0
 10
220.5532398025662
 20
95.44405679240298
 30
0.0
 10
220.8693474249904
 20
95.66250223665797
 30
0.0
 10
221.0531186656529
 20
95.742679689406
 30
0.0
 10
221.3462574001293
 20
95.80696215204004
 30
0.0
 10
221.46734858778
 20
95.81120678030724
 30
0.0
 10
221.6283159985015
 20
95.78201634811649
 30
0.0
 10
221.6775633100898
 20
95.76704212104141
 30
0.0
 10
221.7654393046762
 20
95.72817735868031
 30
0.0
 10
221.8040626042967
 20
95.70550246139045
 30
0.0
 10
221.8401268566478
 20
95.67831881994705
 30
0.0
  0
SPLINE
  5
FA
330
1F
100
AcDbEntity
  8
0
  6
Continuous
 62
     7
370
    25
100
AcDbSpline
210
0.0
220
0.0
230
1.0
 70
     8
 71
     3
 72
     8
 73
     4
 74
     0
 42
0.00000001
 43
0.00000001
 40
0.223225717870797
 40
0.223225717870797
 40
0.223225717870797
 40
0.223225717870797
 40
0.224738160301687
 40
0.224738160301687
 40
0.224738160301687
 40
0.224738160301687
 10
221.8401268566478
 20
95.67831881994705
 30
0.0
 10
221.84283528756
 20
95.67627732428326
 30
0.0
 10
221.8455291435086
 20
95.6742100177696
 30
0.0
 10
221.8482086424398
 20
95.67211656376845
 30
0.0
  0
LINE
  5
FB
330
1F
100
AcDbEntity
  8
0
  6
Continuous
 62
     7
370
    25
100
AcDbLine
 10
221.8482086424
 20
95.6721165638
 30
0.0
 11
222.1668527077
 21
95.4231645356
 31
0.0
  0
ARC
  5
FC
330
1F
100
AcDbEntity
  8
0
  6
Continuous
 62
     7
370
    25
100
AcDbCircle
 10
279.0608845988
 20
57.0
 30
0.0
 40
68.65326239694916
100
AcDbArc
 50
145.9670277621
 51
214.3941119793
  0
LINE
  5
FD
330
1F
100
AcDbEntity
  8
0
  6
Continuous
 62
     7
370
    25
100
AcDbLine
 10
222.4101654514
 20
18.2189935943
 30
0.0
 11
221.3291583178
 21
17.3744182587
 31
0.0
  0
ARC
  5
FE
330
1F
100
AcDbEntity
  8
0
  6
Continuous
 62
     7
370
    25
100
AcDbCircle
 10
204.7205455108
 20
39.8371803871
 30
0.0
 40
6.188868517963976
100
AcDbArc
 50
334.8404499144
 51
13.0
  0
ARC
  5
FF
330
1F
100
AcDbEntity
  8
0
  6
Continuous
 62
     7
370
    25
100
AcDbCircle
 10
279.0608845988
 20
57.0
 30
0.0
 40
70.1069268627968
100
AcDbArc
 50
180.0
 51
193.0
  0
ARC
  5
100
330
1F
100
AcDbEntity
  8
0
  6
Continuous
 62
     7
370
    25
100
AcDbCircle
 10
202.765089218
 20
57.0
 30
0.0
 40
6.188868517963967
100
AcDbArc
 50
360.0
 51
38.1595500856
  0
ARC
  5
101
330
1F
100
AcDbEntity
  8
0
  6
Continuous
 62
     7
370
    25
100
AcDbCircle
 10
279.0608845988
 20
57.0
 30
0.0
 40
71.5318058936766
100
AcDbArc
 50
196.0642713552
 51
212.7995192937
  0
ARC
  5
102
330
1F
100
AcDbEntity
  8
0
  6
Continuous
 62
     7
370
    25
100
AcDbCircle
 10
279.0608845988
 20
57.0
 30
0.0
 40
71.53180589367662
100
AcDbArc
 50
168.0642713552
 51
176.9357286448
  0
ARC
  5
103
330
1F
100
AcDbEntity
  8
0
  6
Continuous
 62
     7
370
    25
100
AcDbCircle
 10
205.3648054032
 20
76.7468049058
 30
0.0
 40
5.757086993454859
100
AcDbArc
 50
312.0761560106
 51
345.0
  0
SPLINE
  5
104
330
1F
100
AcDbEntity
  8
0
  6
Continuous
 62
     7
370
    25
100
AcDbSpline
210
0.0
220
0.0
230
1.0
 70
     8
 71
     3
 72
     9
 73
     5
 74
     0
 42
0.00000001
 43
0.00000001
 40
0.0
 40
0.0
 40
0.0
 40
0.0
 40
0.5134990930344617
 40
1.0
 40
1.0
 40
1.0
 40
1.0
 10
209.0755813596177
 20
71.7938022473941
 30
0.0
 10
209.1000158305568
 20
71.90871403427629
 30
0.0
 10
209.147600083909
 20
72.1324959034966
 30
0.0
 10
209.1981427322681
 20
72.36194996403238
 30
0.0
 10
209.2227317765352
 20
72.47357957258995
 30
0.0
  0
ARC
  5
105
330
1F
100
AcDbEntity
  8
0
  6
Continuous
 62
     7
370
    25
100
AcDbCircle
 10
204.7205455108
 20
39.8371803871
 30
0.0
 40
5.757086993454881
100
AcDbArc
 50
340.0761560106
 51
13.0
  0
SPLINE
  5
106
330
1F
100
AcDbEntity
  8
0
  6
Continuous
 62
     7
370
    25
100
AcDbSpline
210
0.0
220
0.0
230
1.0
 70
     8
 71
     3
 72
     9
 73
     5
 74
     0
 42
0.00000001
 43
0.00000001
 40
0.0
 40
0.0
 40
0.0
 40
0.0
 40
0.5134990930341321
 40
1.0
 40
1.0
 40
1.0
 40
1.0
 10
210.322260107631
 20
37.20604239983184
 30
0.0
 10
210.2898866487594
 20
37.31897477470814
 30
0.0
 10
210.2268418268487
 20
37.53890189124692
 30
0.0
 10
210.1637461801666
 20
37.76522613778118
 30
0.0
 10
210.1330500908302
 20
37.87533308898844
 30
0.0
  0
ARC
  5
107
330
1F
100
AcDbEntity
  8
0
  6
Continuous
 62
     7
370
    25
100
AcDbCircle
 10
202.765089218
 20
57.0
 30
0.0
 40
5.757086993454834
100
AcDbArc
 50
360.0
 51
32.9238439894
  0
SPLINE
  5
108
330
1F
100
AcDbEntity
  8
0
  6
Continuous
 62
     7
370
    25
100
AcDbSpline
210
0.0
220
0.0
230
1.0
 70
     8
 71
     3
 72
     9
 73
     5
 74
     0
 42
0.00000001
 43
0.00000001
 40
0.0
 40
0.0
 40
0.0
 40
0.0
 40
0.4865009069659133
 40
0.9999999999999999
 40
0.9999999999999999
 40
0.9999999999999999
 40
0.9999999999999999
 10
207.5975520381562
 20
60.12911389090058
 30
0.0
 10
207.602692713947
 20
60.24330392574215
 30
0.0
 10
207.6132593454108
 20
60.47802092874574
 30
0.0
 10
207.6252154958762
 20
60.70649332669531
 30
0.0
 10
207.6313549682963
 20
60.82381369582573
 30
0.0
  0
ARC
  5
109
330
1F
100
AcDbEntity
  8
0
  6
Continuous
 62
     7
370
    25
100
AcDbCircle
 10
279.0608845988
 20
57.0
 30
0.0
 40
68.65326239694916
100
AcDbArc
 50
214.3941119793
 51
217.6481834226
  0
SPLINE
  5
10A
330
1F
100
AcDbEntity
  8
0
  6
Continuous
 62
     7
370
    25
100
AcDbSpline
210
0.0
220
0.0
230
1.0
 70
     8
 71
     3
 72
     8
 73
     4
 74
     0
 42
0.00000001
 43
0.00000001
 40
0.0
 40
0.0
 40
0.0
 40
0.0
 40
1.0
 40
1.0
 40
1.0
 40
1.0
 10
222.3020109726447
 20
96.25295705898438
 30
0.0
 10
222.2959781857873
 20
96.25767038864393
 30
0.0
 10
222.2899276330866
 20
96.26235554166651
 30
0.0
 10
222.2838585962626
 20
96.26701307075189
 30
0.0
  0
LINE
  5
10B
330
1F
100
AcDbEntity
  8
0
  6
Continuous
 62
     7
370
    25
100
AcDbLine
 10
222.5835129659
 20
96.0330235978
 30
0.0
 11
222.3020109726
 21
96.252957059
 31
0.0
  0
ARC
  5
10C
330
1F
100
AcDbEntity
  8
0
  6
Continuous
 62
     7
370
    25
100
AcDbCircle
 10
279.0608845988
 20
57.0
 30
0.0
 40
68.65326239694917
100
AcDbArc
 50
145.3506110601
 51
145.9670277621
  0
SPLINE
  5
10D
330
1F
100
AcDbEntity
  8
0
  6
Continuous
 62
     7
370
    25
100
AcDbSpline
210
0.0
220
0.0
230
1.0
 70
     8
 71
     3
 72
     8
 73
     4
 74
     0
 42
0.00000001
 43
0.00000001
 40
0.0
 40
0.0
 40
0.0
 40
0.0
 40
1.0
 40
1.0
 40
1.0
 40
1.0
 10
219.957850380116
 20
95.50377549148115
 30
0.0
 10
219.877232266969
 20
95.38002723461133
 30
0.0
 10
219.7978183177091
 20
95.2572878773033
 30
0.0
 10
219.7181464608456
 20
95.13330317771465
 30
0.0
  0
ARC
  5
10E
330
1F
100
AcDbEntity
  8
0
  6
Continuous
 62
     7
370
    25
100
AcDbCircle
 10
279.0608845988
 20
57.0
 30
0.0
 40
70.53870838730595
100
AcDbArc
 50
147.2754324564
 51
165.0
  0
ARC
  5
10F
330
1F
100
AcDbEntity
  8
0
  6
Continuous
 62
     7
370
    25
100
AcDbCircle
 10
279.0608845988
 20
57.0
 30
0.0
 40
70.53870838730593
100
AcDbArc
 50
180.0
 51
193.0
  0
ARC
  5
110
330
1F
100
AcDbEntity
  8
0
  6
Continuous
 62
     7
370
    25
100
AcDbCircle
 10
279.0608845988
 20
57.0
 30
0.0
 40
68.65326239694917
100
AcDbArc
 50
142.3518165774
 51
145.3506110601
  0
ARC
  5
111
330
1F
100
AcDbEntity
  8
0
  6
Continuous
 62
     7
370
    25
100
AcDbCircle
 10
223.7354942952
 20
98.3984701599
 30
0.0
 40
1.439271748363743
100
AcDbArc
 50
52.0
 51
143.1934997554
  0
ARC
  5
112
330
1F
100
AcDbEntity
  8
0
  6
Continuous
 62
     7
370
    25
100
AcDbCircle
 10
222.9527553741
 20
14.9899871718
 30
0.0
 40
1.439271748363711
100
AcDbArc
 50
216.8234125945
 51
307.9999999999
  0
LINE
  5
113
330
1F
100
AcDbEntity
  8
0
  6
Continuous
 62
     7
370
    25
100
AcDbLine
 10
224.9613755598
 20
99.2671688132
 30
0.0
 11
224.6215984632
 21
99.532631775
 31
0.0
  0
SPLINE
  5
114
330
1F
100
AcDbEntity
  8
0
  6
Continuous
 62
     7
370
    25
100
AcDbSpline
210
0.0
220
0.0
230
1.0
 70
     8
 71
     3
 72
    12
 73
     8
 74
     0
 42
0.00000001
 43
0.00000001
 40
0.0
 40
0.0
 40
0.0
 40
0.0
 40
0.2499999999999986
 40
0.2499999999999986
 40
0.4999999999999972
 40
0.4999999999999972
 40
1.0
 40
1.0
 40
1.0
 40
1.0
 10
224.7028615383296
 20
98.93418374912498
 30
0.0
 10
224.743889055529
 20
98.9873664875652
 30
0.0
 10
224.7802865166234
 20
99.03438855432677
 30
0.0
 10
224.8441138980844
 20
99.11668225395881
 30
0.0
 10
224.8717652344322
 20
99.1522369776607
 30
0.0
 10
224.9382730220996
 20
99.23764389380513
 30
0.0
 10
224.9613755597751
 20
99.26716881321066
 30
0.0
 10
224.9613755597751
 20
99.26716881321069
 30
0.0
  0
LINE
  5
115
330
1F
100
AcDbEntity
  8
0
  6
Continuous
 62
     7
370
    25
100
AcDbLine
 10
223.8388595421
 20
13.8558255567
 30
0.0
 11
224.9613755597
 21
14.7328311868
 31
0.0
  0
SPLINE
  5
116
330
1F
100
AcDbEntity
  8
0
  6
Continuous
 62
     7
370
    25
100
AcDbSpline
210
0.0
220
0.0
230
1.0
 70
     8
 71
     3
 72
    12
 73
     8
 74
     0
 42
0.00000001
 43
0.00000001
 40
0.0
 40
0.0
 40
0.0
 40
0.0
 40
0.2500000000000014
 40
0.2500000000000014
 40
0.5000000000000029
 40
0.5000000000000029
 40
1.0
 40
1.0
 40
1.0
 40
1.0
 10
224.9613755597497
 20
14.7328311868225
 30
0.0
 10
224.9613755597497
 20
14.7328311868225
 30
0.0
 10
224.9556413435891
 20
14.74016773787231
 30
0.0
 10
224.9331907461955
 20
14.76892697636683
 30
0.0
 10
224.9162033148386
 20
14.79069739767508
 30
0.0
 10
224.8497512503893
 20
14.87603226306189
 30
0.0
 10
224.7849165859282
 20
14.95945075688455
 30
0.0
 10
224.7028615383045
 20
15.06581625090837
 30
0.0
  0
SPLINE
  5
117
330
1F
100
AcDbEntity
  8
0
  6
Continuous
 62
     7
370
    25
100
AcDbSpline
210
0.0
220
0.0
230
1.0
 70
     8
 71
     3
 72
    16
 73
    12
 74
     0
 42
0.00000001
 43
0.00000001
 40
0.0
 40
0.0
 40
0.0
 40
0.0
 40
0.2500000000000022
 40
0.2500000000000022
 40
0.3750000000000021
 40
0.3750000000000021
 40
0.5000000000000019
 40
0.5000000000000019
 40
0.750000000000001
 40
0.750000000000001
 40
1.0
 40
1.0
 40
1.0
 40
1.0
 10
227.5609980647365
 20
99.06258318085433
 30
0.0
 10
227.4138605578729
 20
98.88243340555894
 30
0.0
 10
227.2287093945564
 20
98.74505115819338
 30
0.0
 10
226.9426340357234
 20
98.61192900705073
 30
0.0
 10
226.8456624132684
 20
98.57925955249765
 30
0.0
 10
226.6566314578366
 20
98.535030606347
 30
0.0
 10
226.5628267383503
 20
98.52293496227396
 30
0.0
 10
226.2880421331479
 20
98.51282082716173
 30
0.0
 10
226.1186096970346
 20
98.53978489783208
 30
0.0
 10
225.8006950640132
 20
98.6457564608236
 30
0.0
 10
225.6569123533157
 20
98.72375591371105
 30
0.0
 10
225.5284563673117
 20
98.82411672921474
 30
0.0
  0
ARC
  5
118
330
1F
100
AcDbEntity
  8
0
  6
Continuous
 62
     7
370
    25
100
AcDbCircle
 10
279.0608845988
 20
57.0
 30
0.0
 40
66.49435477440359
100
AcDbArc
 50
140.7597347539
 51
219.240265246
  0
SPLINE
  5
119
330
1F
100
AcDbEntity
  8
0
  6
Continuous
 62
     7
370
    25
100
AcDbSpline
210
0.0
220
0.0
230
1.0
 70
     8
 71
     3
 72
    16
 73
    12
 74
     0
 42
0.00000001
 43
0.00000001
 40
0.0
 40
0.0
 40
0.0
 40
0.0
 40
0.2499999999999972
 40
0.2499999999999972
 40
0.3749999999999979
 40
0.3749999999999979
 40
0.4999999999999986
 40
0.4999999999999986
 40
0.7499999999999993
 40
0.7499999999999993
 40
1.0
 40
1.0
 40
1.0
 40
1.0
 10
227.5609980647115
 20
14.93741681917697
 30
0.0
 10
227.413860557848
 20
15.11756659447246
 30
0.0
 10
227.2287093945316
 20
15.2549488418381
 30
0.0
 10
226.9426340356987
 20
15.38807099298094
 30
0.0
 10
226.8456624132437
 20
15.42074044753411
 30
0.0
 10
226.6566314578119
 20
15.46496939368489
 30
0.0
 10
226.5628267383256
 20
15.47706503775799
 30
0.0
 10
226.2880421331232
 20
15.48717917287039
 30
0.0
 10
226.1186096970098
 20
15.4602151022002
 30
0.0
 10
225.8006950639884
 20
15.35424353920892
 30
0.0
 10
225.6569123532908
 20
15.27624408632159
 30
0.0
 10
225.5284563672867
 20
15.17588327081802
 30
0.0
  0
LINE
  5
11A
330
1F
100
AcDbEntity
  8
0
  6
Continuous
 62
     7
370
    25
100
AcDbLine
 10
225.5284563673
 20
15.1758832708
 30
0.0
 11
224.9613755597
 21
14.7328311868
 31
0.0
  0
LINE
  5
11B
330
1F
100
AcDbEntity
  8
0
  6
Continuous
 62
     7
370
    25
100
AcDbLine
 10
225.5284563673
 20
98.8241167292
 30
0.0
 11
224.9613755598
 21
99.2671688132
 31
0.0
  0
SPLINE
  5
11C
330
1F
100
AcDbEntity
  8
0
  6
Continuous
 62
     7
370
    25
100
AcDbSpline
210
0.0
220
0.0
230
1.0
 70
     8
 71
     3
 72
    14
 73
    10
 74
     0
 42
0.00000001
 43
0.00000001
 40
0.0
 40
0.0
 40
0.0
 40
0.0
 40
0.25
 40
0.25
 40
0.5
 40
0.5
 40
0.75
 40
0.75
 40
1.0
 40
1.0
 40
1.0
 40
1.0
 10
223.345268649031
 20
12.13833046182794
 30
0.0
 10
223.1876916982439
 20
12.33403198080765
 30
0.0
 10
223.0360818717808
 20
12.52442697601024
 30
0.0
 10
222.7434009033198
 20
12.89562213767202
 30
0.0
 10
222.6089374695541
 20
13.06800969481162
 30
0.0
 10
222.3556125918418
 20
13.39547920828352
 30
0.0
 10
222.2370999571196
 20
13.55013227906828
 30
0.0
 10
222.013029536856
 20
13.844748421519
 30
0.0
 10
221.9060554208416
 20
13.98656381891192
 30
0.0
 10
221.800637730926
 20
14.1273585716423
 30
0.0
  0
SPLINE
  5
11D
330
1F
100
AcDbEntity
  8
0
  6
Continuous
 62
     7
370
    25
100
AcDbSpline
210
0.0
220
0.0
230
1.0
 70
     8
 71
     3
 72
    10
 73
     6
 74
     0
 42
0.00000001
 43
0.00000001
 40
0.0
 40
0.0
 40
0.0
 40
0.0
 40
0.4765207690499908
 40
0.7726916594490691
 40
1.0
 40
1.0
 40
1.0
 40
1.0
 10
225.5077026312071
 20
100.6667933900423
 30
0.0
 10
225.053500051326
 20
100.6137655671126
 30
0.0
 10
224.3169979553647
 20
100.5277794797103
 30
0.0
 10
223.399662520525
 20
100.1665752001264
 30
0.0
 10
223.0475645983358
 20
99.80205731120921
 30
0.0
 10
222.8946744936815
 20
99.64377413294342
 30
0.0
  0
ARC
  5
11E
330
1F
100
AcDbEntity
  8
0
  6
Continuous
 62
     7
370
    25
100
AcDbCircle
 10
230.3897607665
 20
101.2429130065
 30
0.0
 40
5.757086993456338
100
AcDbArc
 50
3.0
 51
137.7286076763
  0
LINE
  5
11F
330
1F
100
AcDbEntity
  8
0
  6
Continuous
 62
     7
370
    25
100
AcDbLine
 10
238.4734212949
 20
57.0
 30
0.0
 11
236.1389578723
 21
101.5442156595
 31
0.0
  0
LINE
  5
120
330
1F
100
AcDbEntity
  8
0
  6
Continuous
 62
     7
370
    25
100
AcDbLine
 10
238.4734212949
 20
57.0
 30
0.0
 11
236.1389578723
 21
12.4557843405
 31
0.0
  0
ARC
  5
121
330
1F
100
AcDbEntity
  8
0
  6
Continuous
 62
     7
370
    25
100
AcDbCircle
 10
230.3897607665
 20
12.7570869935
 30
0.0
 40
5.75708699345489
100
AcDbArc
 50
222.2713923237
 51
357.0
  0
ARC
  5
122
330
1F
100
AcDbEntity
  8
0
  6
Continuous
 62
     7
370
    25
100
AcDbCircle
 10
279.0608845988
 20
57.0
 30
0.0
 40
58.00265145887278
100
AcDbArc
 50
177.000000036
 51
183.0
  0
ARC
  5
123
330
1F
100
AcDbEntity
  8
0
  6
Continuous
 62
     7
370
    25
100
AcDbCircle
 10
218.6943149877
 20
60.1636778563
 30
0.0
 40
2.446761972403262
100
AcDbArc
 50
356.9999991462
 51
177.0
  0
ARC
  5
124
330
1F
100
AcDbEntity
  8
0
  6
Continuous
 62
     7
370
    25
100
AcDbCircle
 10
279.0608845988
 20
57.0
 30
0.0
 40
62.89617540367925
100
AcDbArc
 50
177.0
 51
183.0000000332
  0
ARC
  5
125
330
1F
100
AcDbEntity
  8
0
  6
Continuous
 62
     7
370
    25
100
AcDbCircle
 10
218.6943149877
 20
53.8363221437
 30
0.0
 40
2.446761972403262
100
AcDbArc
 50
183.0000008538
 51
3.0
  0
ARC
  5
126
330
1F
100
AcDbEntity
  8
0
  6
Continuous
 62
     7
370
    25
100
AcDbCircle
 10
279.0608845988
 20
57.0
 30
0.0
 40
58.00265145902702
100
AcDbArc
 50
145.0
 51
151.0
  0
ARC
  5
127
330
1F
100
AcDbEntity
  8
0
  6
Continuous
 62
     7
370
    25
100
AcDbCircle
 10
229.5436240105
 20
91.6723591354
 30
0.0
 40
2.446761972251101
100
AcDbArc
 50
324.9999999999
 51
144.9999999999
  0
ARC
  5
128
330
1F
100
AcDbEntity
  8
0
  6
Continuous
 62
     7
370
    25
100
AcDbCircle
 10
279.0608845988
 20
57.0
 30
0.0
 40
62.89617540352911
100
AcDbArc
 50
145.0
 51
151.0
  0
ARC
  5
129
330
1F
100
AcDbEntity
  8
0
  6
Continuous
 62
     7
370
    25
100
AcDbCircle
 10
226.1906363268
 20
86.3064571698
 30
0.0
 40
2.446761972251075
100
AcDbArc
 50
150.9999999999
 51
330.9999999999
  0
ARC
  5
12A
330
1F
100
AcDbEntity
  8
0
  6
Continuous
 62
     7
370
    25
100
AcDbCircle
 10
279.0608845988
 20
57.0
 30
0.0
 40
58.00265145927021
100
AcDbArc
 50
209.0
 51
215.0
  0
ARC
  5
12B
330
1F
100
AcDbEntity
  8
0
  6
Continuous
 62
     7
370
    25
100
AcDbCircle
 10
226.1906363268
 20
27.6935428302
 30
0.0
 40
2.446761972007861
100
AcDbArc
 50
29.0000000001
 51
209.0000000001
  0
ARC
  5
12C
330
1F
100
AcDbEntity
  8
0
  6
Continuous
 62
     7
370
    25
100
AcDbCircle
 10
279.0608845988
 20
57.0
 30
0.0
 40
62.8961754032859
100
AcDbArc
 50
209.0
 51
215.0
  0
ARC
  5
12D
330
1F
100
AcDbEntity
  8
0
  6
Continuous
 62
     7
370
    25
100
AcDbCircle
 10
229.5436240105
 20
22.3276408646
 30
0.0
 40
2.446761972007803
100
AcDbArc
 50
215.0000000001
 51
35.0000000001
  0
ARC
  5
12E
330
1F
100
AcDbEntity
  8
0
  6
Continuous
 62
     7
370
    25
100
AcDbCircle
 10
279.0608845988
 20
57.0
 30
0.0
 40
71.53180589367659
100
AcDbArc
 50
218.8406778863
 51
222.2713923237
  0
ARC
  5
12F
330
1F
100
AcDbEntity
  8
0
  6
Continuous
 62
     7
370
    25
100
AcDbCircle
 10
279.0608845988
 20
57.0
 30
0.0
 40
71.53180589367656
100
AcDbArc
 50
137.7286076763
 51
167.5071679051
  0
ARC
  5
130
330
1F
100
AcDbEntity
  8
0
  6
Continuous
 62
     7
370
    25
100
AcDbCircle
 10
279.0608845988
 20
57.0
 30
0.0
 40
71.53180589367662
100
AcDbArc
 50
177.4928320949
 51
195.5071679051
  0
LINE
  5
131
330
1F
100
AcDbEntity
  8
0
  6
HIDDEN
 62
     7
370
    18
100
AcDbLine
 10
222.8946744937
 20
99.6437741329
 30
0.0
 11
222.8199014645
 21
99.5753590359
 31
0.0
  0
LINE
  5
132
330
1F
100
AcDbEntity
  8
0
  6
HIDDEN
 62
     7
370
    18
100
AcDbLine
 10
222.8229432774
 20
99.5793768964
 30
0.0
 11
222.7565670351
 21
99.4913264323
 31
0.0
  0
LINE
  5
133
330
1F
100
AcDbEntity
  8
0
  6
HIDDEN
 62
     7
370
    18
100
AcDbLine
 10
237.0321743677
 20
57.0
 30
0.0
 11
238.4734212949
 21
57.0
 31
0.0
  0
ENDSEC
  0
SECTION
  2
OBJECTS
  0
DICTIONARY
  5
C
330
0
100
AcDbDictionary
281
     1
  3
ACAD_GROUP
350
D
  3
ACAD_LAYOUT
350
1A
  3
ACAD_MLINESTYLE
350
17
  3
ACAD_PLOTSETTINGS
350
19
  3
ACAD_PLOTSTYLENAME
350
E
  3
ACAD_SCALELIST
350
47
  3
DWGPROPS
350
134
  0
DICTIONARY
  5
D
102
{ACAD_REACTORS
330
C
102
}
330
C
100
AcDbDictionary
281
     1
  0
DICTIONARY
  5
1A
102
{ACAD_REACTORS
330
C
102
}
330
C
100
AcDbDictionary
281
     1
  3
Layout1
350
1E
  3
Layout2
350
26
  3
Model
350
22
  0
DICTIONARY
  5
17
102
{ACAD_REACTORS
330
C
102
}
330
C
100
AcDbDictionary
281
     1
  3
Standard
350
18
  0
DICTIONARY
  5
19
102
{ACAD_REACTORS
330
C
102
}
330
C
100
AcDbDictionary
281
     1
  0
ACDBDICTIONARYWDFLT
  5
E
102
{ACAD_REACTORS
330
C
102
}
330
C
100
AcDbDictionary
281
     1
  3
Normal
350
F
100
AcDbDictionaryWithDefault
340
F
  0
DICTIONARY
  5
47
102
{ACAD_REACTORS
330
C
102
}
330
C
100
AcDbDictionary
281
     1
  3
A0
350
48
  3
A1
350
49
  3
A2
350
4A
  3
A3
350
4B
  3
A4
350
4C
  3
A5
350
4D
  3
A6
350
4E
  3
A7
350
4F
  3
A8
350
50
  3
A9
350
51
  3
B0
350
52
  3
B1
350
53
  3
B2
350
54
  3
B3
350
55
  3
B4
350
56
  3
B5
350
57
  3
B6
350
58
  0
XRECORD
  5
134
102
{ACAD_REACTORS
330
C
102
}
330
C
100
AcDbXrecord
280
     1
  1
DWGPROPS COOKIE
  2

  3

  4

  6

  7

  8

  9

300
=
301
=
302
=
303
=
304
=
305
=
306
=
307
=
308
=
309
=
 40
0.0
 41
2461215.414554827
 42
2461215.414555162
  1

 90
        0
  0
LAYOUT
  5
1E
102
{ACAD_REACTORS
330
1A
102
}
330
1A
100
AcDbPlotSettings
  1

  2
none_device
  4

  6

 40
0.0
 41
0.0
 42
0.0
 43
0.0
 44
0.0
 45
0.0
 46
0.0
 47
0.0
 48
0.0
 49
0.0
140
0.0
141
0.0
142
1.0
143
1.0
 70
   688
 72
     1
 73
     0
 74
     5
  7

 75
    16
147
1.0
148
0.0
149
0.0
100
AcDbLayout
  1
Layout1
 70
     1
 71
     1
 10
0.0
 20
0.0
 11
420.0
 21
297.0
 12
0.0
 22
0.0
 32
0.0
 14
1.0000000000E+20
 24
1.0000000000E+20
 34
1.0000000000E+20
 15
-1.0000000000E+20
 25
-1.0000000000E+20
 35
-1.0000000000E+20
146
0.0
 13
0.0
 23
0.0
 33
0.0
 16
1.0
 26
0.0
 36
0.0
 17
0.0
 27
1.0
 37
0.0
 76
     0
330
1B
  0
LAYOUT
  5
26
102
{ACAD_REACTORS
330
1A
102
}
330
1A
100
AcDbPlotSettings
  1

  2
none_device
  4

  6

 40
0.0
 41
0.0
 42
0.0
 43
0.0
 44
0.0
 45
0.0
 46
0.0
 47
0.0
 48
0.0
 49
0.0
140
0.0
141
0.0
142
1.0
143
1.0
 70
   688
 72
     1
 73
     0
 74
     5
  7

 75
    16
147
1.0
148
0.0
149
0.0
100
AcDbLayout
  1
Layout2
 70
     1
 71
     2
 10
0.0
 20
0.0
 11
0.0
 21
0.0
 12
0.0
 22
0.0
 32
0.0
 14
0.0
 24
0.0
 34
0.0
 15
0.0
 25
0.0
 35
0.0
146
0.0
 13
0.0
 23
0.0
 33
0.0
 16
1.0
 26
0.0
 36
0.0
 17
0.0
 27
1.0
 37
0.0
 76
     0
330
23
  0
LAYOUT
  5
22
102
{ACAD_REACTORS
330
1A
102
}
330
1A
100
AcDbPlotSettings
  1

  2
none_device
  4
Letter_(8.50_x_11.00_Inches)
  6

 40
6.35
 41
6.35
 42
6.35000508
 43
6.35000508
 44
215.9
 45
279.4
 46
0.0
 47
0.0
 48
0.0
 49
0.0
140
0.0
141
0.0
142
1.0
143
1.0
 70
  1712
 72
     1
 73
     0
 74
     0
  7

 75
     0
147
1.0
148
0.0
149
0.0
100
AcDbLayout
  1
Model
 70
     1
 71
     0
 10
0.0
 20
0.0
 11
297.0
 21
210.0
 12
0.0
 22
0.0
 32
0.0
 14
0.0
 24
0.0
 34
0.0
 15
297.0
 25
210.0
 35
0.0
146
0.0
 13
0.0
 23
0.0
 33
0.0
 16
1.0
 26
0.0
 36
0.0
 17
0.0
 27
1.0
 37
0.0
 76
     0
330
1F
331
29
  0
MLINESTYLE
  5
18
102
{ACAD_REACTORS
330
17
102
}
330
17
100
AcDbMlineStyle
  2
Standard
 70
     0
  3

 62
   256
 51
90.0
 52
90.0
 71
     2
 49
0.5
 62
   256
  6
BYLAYER
 49
-0.5
 62
   256
  6
BYLAYER
  0
ACDBPLACEHOLDER
  5
F
102
{ACAD_REACTORS
330
E
102
}
330
E
  0
SCALE
  5
48
102
{ACAD_REACTORS
330
47
102
}
330
47
100
AcDbScale
 70
     0
300
1:1
140
1.0
141
1.0
290
     1
  0
SCALE
  5
49
102
{ACAD_REACTORS
330
47
102
}
330
47
100
AcDbScale
 70
     0
300
1:2
140
1.0
141
2.0
290
     0
  0
SCALE
  5
4A
102
{ACAD_REACTORS
330
47
102
}
330
47
100
AcDbScale
 70
     0
300
1:4
140
1.0
141
4.0
290
     0
  0
SCALE
  5
4B
102
{ACAD_REACTORS
330
47
102
}
330
47
100
AcDbScale
 70
     0
300
1:5
140
1.0
141
5.0
290
     0
  0
SCALE
  5
4C
102
{ACAD_REACTORS
330
47
102
}
330
47
100
AcDbScale
 70
     0
300
1:8
140
1.0
141
8.0
290
     0
  0
SCALE
  5
4D
102
{ACAD_REACTORS
330
47
102
}
330
47
100
AcDbScale
 70
     0
300
1:10
140
1.0
141
10.0
290
     0
  0
SCALE
  5
4E
102
{ACAD_REACTORS
330
47
102
}
330
47
100
AcDbScale
 70
     0
300
1:16
140
1.0
141
16.0
290
     0
  0
SCALE
  5
4F
102
{ACAD_REACTORS
330
47
102
}
330
47
100
AcDbScale
 70
     0
300
1:20
140
1.0
141
20.0
290
     0
  0
SCALE
  5
50
102
{ACAD_REACTORS
330
47
102
}
330
47
100
AcDbScale
 70
     0
300
1:30
140
1.0
141
30.0
290
     0
  0
SCALE
  5
51
102
{ACAD_REACTORS
330
47
102
}
330
47
100
AcDbScale
 70
     0
300
1:40
140
1.0
141
40.0
290
     0
  0
SCALE
  5
52
102
{ACAD_REACTORS
330
47
102
}
330
47
100
AcDbScale
 70
     0
300
1:50
140
1.0
141
50.0
290
     0
  0
SCALE
  5
53
102
{ACAD_REACTORS
330
47
102
}
330
47
100
AcDbScale
 70
     0
300
1:100
140
1.0
141
100.0
290
     0
  0
SCALE
  5
54
102
{ACAD_REACTORS
330
47
102
}
330
47
100
AcDbScale
 70
     0
300
2:1
140
2.0
141
1.0
290
     0
  0
SCALE
  5
55
102
{ACAD_REACTORS
330
47
102
}
330
47
100
AcDbScale
 70
     0
300
4:1
140
4.0
141
1.0
290
     0
  0
SCALE
  5
56
102
{ACAD_REACTORS
330
47
102
}
330
47
100
AcDbScale
 70
     0
300
8:1
140
8.0
141
1.0
290
     0
  0
SCALE
  5
57
102
{ACAD_REACTORS
330
47
102
}
330
47
100
AcDbScale
 70
     0
300
10:1
140
10.0
141
1.0
290
     0
  0
SCALE
  5
58
102
{ACAD_REACTORS
330
47
102
}
330
47
100
AcDbScale
 70
     0
300
100:1
140
100.0
141
1.0
290
     0
  0
ENDSEC
  0
EOF
