ISO-10303-21;
HEADER;
FILE_DESCRIPTION (( 'STEP AP203' ),
    '1' );
FILE_NAME ('008126.step',
    '2026-06-29T06:29:39',
    ( '' ),
    ( '' ),
    'SwSTEP 2.0',
    'SolidWorks 2025',
    '' );
FILE_SCHEMA (( 'CONFIG_CONTROL_DESIGN' ));
ENDSEC;

DATA;
#1 = ORIENTED_EDGE ( 'NONE', *, *, #91, .F. ) ;
#2 = DIRECTION ( 'NONE',  ( 0.000000000000000000, 1.000000000000000000, 0.000000000000000000 ) ) ;
#3 = CARTESIAN_POINT ( 'NONE',  ( -0.1552499999999999991, 0.1732499999999999873, -0.2996726338857119698 ) ) ;
#4 = DIRECTION ( 'NONE',  ( 0.000000000000000000, 1.000000000000000000, 0.000000000000000000 ) ) ;
#5 = VERTEX_POINT ( 'NONE', #952 ) ;
#6 = ORIENTED_EDGE ( 'NONE', *, *, #543, .F. ) ;
#7 = EDGE_CURVE ( 'NONE', #784, #394, #186, .T. ) ;
#8 = DIRECTION ( 'NONE',  ( 0.000000000000000000, 0.000000000000000000, -1.000000000000000000 ) ) ;
#9 = ORIENTED_EDGE ( 'NONE', *, *, #91, .T. ) ;
#10 = CARTESIAN_POINT ( 'NONE',  ( 0.1237499999999999989, -0.2317499999999999560, 0.8549999999999999822 ) ) ;
#11 = FACE_OUTER_BOUND ( 'NONE', #599, .T. ) ;
#12 = CIRCLE ( 'NONE', #747, 0.3374999999999999667 ) ;
#13 = CARTESIAN_POINT ( 'NONE',  ( 0.07875000000000000056, 0.1732499999999999873, -0.8549999999999999822 ) ) ;
#14 = ORIENTED_EDGE ( 'NONE', *, *, #684, .T. ) ;
#15 = EDGE_CURVE ( 'NONE', #683, #473, #348, .T. ) ;
#16 = LINE ( 'NONE', #167, #921 ) ;
#17 = CARTESIAN_POINT ( 'NONE',  ( -0.05849999999999998951, 0.2317499999999999560, -0.1664999999999999813 ) ) ;
#18 = AXIS2_PLACEMENT_3D ( 'NONE', #656, #56, #415 ) ;
#19 = CARTESIAN_POINT ( 'NONE',  ( 0.1425855835668605742, 0.1707807067738003615, 0.3059212299361102061 ) ) ;
#20 = CARTESIAN_POINT ( 'NONE',  ( -0.1237499999999999989, 0.1732499999999999873, 0.8549999999999999822 ) ) ;
#21 = ORIENTED_EDGE ( 'NONE', *, *, #813, .F. ) ;
#22 = DIRECTION ( 'NONE',  ( 0.000000000000000000, -1.000000000000000000, 0.000000000000000000 ) ) ;
#23 = CIRCLE ( 'NONE', #810, 0.04500000000000001221 ) ;
#24 = ORIENTED_EDGE ( 'NONE', *, *, #424, .F. ) ;
#25 = CARTESIAN_POINT ( 'NONE',  ( 0.1237499999999999989, 0.1765303245971152346, -0.3322158882121635237 ) ) ;
#26 = ORIENTED_EDGE ( 'NONE', *, *, #898, .F. ) ;
#27 = LINE ( 'NONE', #89, #243 ) ;
#28 = APPROVAL_STATUS ( 'not_yet_approved' ) ;
#29 = CARTESIAN_POINT ( 'NONE',  ( 0.1237499999999999989, 0.1732499999999999873, -0.8549999999999999822 ) ) ;
#30 = CARTESIAN_POINT ( 'NONE',  ( -0.05849999999999998951, 0.1732499999999999873, 0.1664999999999999813 ) ) ;
#31 = CARTESIAN_POINT ( 'NONE',  ( 0.05849999999999998951, -0.2317499999999999560, 0.1664999999999999813 ) ) ;
#32 = VECTOR ( 'NONE', #283, 1000.000000000000000 ) ;
#33 = CARTESIAN_POINT ( 'NONE',  ( 0.1237499999999999989, 0.2047499999999999876, 0.3139939290814395823 ) ) ;
#34 = VERTEX_POINT ( 'NONE', #632 ) ;
#35 = AXIS2_PLACEMENT_3D ( 'NONE', #500, #118, #46 ) ;
#36 = DIRECTION ( 'NONE',  ( -1.000000000000000000, 0.000000000000000000, 0.000000000000000000 ) ) ;
#37 = CARTESIAN_POINT ( 'NONE',  ( -0.1237499999999999989, 0.1809960130271479617, 0.3255873257998106451 ) ) ;
#38 = COORDINATED_UNIVERSAL_TIME_OFFSET ( 8, 0, .AHEAD. ) ;
#39 = CARTESIAN_POINT ( 'NONE',  ( 0.1237499999999999989, 0.1754855637337744134, 0.3346969020562013952 ) ) ;
#40 = ORIENTED_EDGE ( 'NONE', *, *, #527, .F. ) ;
#41 = DIRECTION ( 'NONE',  ( 0.000000000000000000, -1.000000000000000000, 0.000000000000000000 ) ) ;
#42 = EDGE_CURVE ( 'NONE', #568, #5, #653, .T. ) ;
#43 = ORIENTED_EDGE ( 'NONE', *, *, #382, .T. ) ;
#44 = DATE_AND_TIME ( #559, #191 ) ;
#45 = ADVANCED_FACE ( 'NONE', ( #639 ), #792, .T. ) ;
#46 = DIRECTION ( 'NONE',  ( 0.000000000000000000, 0.000000000000000000, -1.000000000000000000 ) ) ;
#47 = ORIENTED_EDGE ( 'NONE', *, *, #330, .T. ) ;
#48 = PLANE ( 'NONE',  #727 ) ;
#49 = CARTESIAN_POINT ( 'NONE',  ( -0.1237499999999999989, 0.1809814011222818098, -0.3253272455894615778 ) ) ;
#50 = PERSON_AND_ORGANIZATION ( #849, #154 ) ;
#51 = FACE_OUTER_BOUND ( 'NONE', #839, .T. ) ;
#52 = CARTESIAN_POINT ( 'NONE',  ( -0.1237499999999999989, 0.1928719922799413677, 0.3162626079544391677 ) ) ;
#53 = AXIS2_PLACEMENT_3D ( 'NONE', #742, #350, #208 ) ;
#54 = LINE ( 'NONE', #194, #857 ) ;
#55 = CARTESIAN_POINT ( 'NONE',  ( -0.1263616603797950155, 0.1547354384235946900, -0.3129540182350293298 ) ) ;
#56 = DIRECTION ( 'NONE',  ( 0.000000000000000000, 1.000000000000000000, 0.000000000000000000 ) ) ;
#57 = CARTESIAN_POINT ( 'NONE',  ( -0.1255805225156239879, 0.1528885457291802308, 0.3132709103635830106 ) ) ;
#58 = VECTOR ( 'NONE', #286, 1000.000000000000000 ) ;
#59 = EDGE_CURVE ( 'NONE', #236, #971, #658, .T. ) ;
#60 = LINE ( 'NONE', #63, #794 ) ;
#61 = CIRCLE ( 'NONE', #264, 0.3374999999999999667 ) ;
#62 = CARTESIAN_POINT ( 'NONE',  ( -0.1237499999999999989, 0.1431470688073216979, 0.3139939290814393047 ) ) ;
#63 = CARTESIAN_POINT ( 'NONE',  ( 0.07875000000000000056, 0.1732499999999999873, 0.9000000000000000222 ) ) ;
#64 = EDGE_LOOP ( 'NONE', ( #824, #227, #444, #855 ) ) ;
#65 = ORIENTED_EDGE ( 'NONE', *, *, #662, .F. ) ;
#66 = DIRECTION ( 'NONE',  ( 0.000000000000000000, 0.000000000000000000, -1.000000000000000000 ) ) ;
#67 = DIRECTION ( 'NONE',  ( 0.000000000000000000, 0.000000000000000000, -1.000000000000000000 ) ) ;
#68 = VERTEX_POINT ( 'NONE', #731 ) ;
#69 = ORIENTED_EDGE ( 'NONE', *, *, #636, .T. ) ;
#70 = DIRECTION ( 'NONE',  ( 0.000000000000000000, 0.000000000000000000, -1.000000000000000000 ) ) ;
#71 = APPLICATION_CONTEXT ( 'configuration controlled 3d designs of mechanical parts and assemblies' ) ;
#72 = ORIENTED_EDGE ( 'NONE', *, *, #343, .F. ) ;
#73 = CARTESIAN_POINT ( 'NONE',  ( 0.1312524975987290621, 0.1624879227512289748, -0.3109467410028219359 ) ) ;
#74 = DIRECTION ( 'NONE',  ( 0.000000000000000000, -1.000000000000000000, 0.000000000000000000 ) ) ;
#75 = AXIS2_PLACEMENT_3D ( 'NONE', #419, #648, #130 ) ;
#76 = CIRCLE ( 'NONE', #922, 0.3374999999999999667 ) ;
#77 = ORIENTED_EDGE ( 'NONE', *, *, #983, .T. ) ;
#78 = PLANE ( 'NONE',  #886 ) ;
#79 = CARTESIAN_POINT ( 'NONE',  ( -0.1425855835668605742, 0.1707807067738003615, -0.3059212299361102061 ) ) ;
#80 = CARTESIAN_POINT ( 'NONE',  ( 0.1237499999999999989, 0.1980051396439811151, 0.3145869455364516676 ) ) ;
#81 = EDGE_CURVE ( 'NONE', #412, #683, #860, .T. ) ;
#82 = DIRECTION ( 'NONE',  ( 0.000000000000000000, -1.000000000000000000, 0.000000000000000000 ) ) ;
#83 = APPLICATION_PROTOCOL_DEFINITION ( 'international standard', 'config_control_design', 1994, #748 ) ;
#84 = CARTESIAN_POINT ( 'NONE',  ( -0.07875000000000000056, -0.2317499999999999560, 0.9000000000000000222 ) ) ;
#85 = CARTESIAN_POINT ( 'NONE',  ( 0.1552499999999999991, 0.1732499999999999873, 0.2996726338857119698 ) ) ;
#86 = EDGE_CURVE ( 'NONE', #472, #845, #126, .T. ) ;
#87 = CARTESIAN_POINT ( 'NONE',  ( 0.07875000000000000056, -0.2317499999999999560, -0.8549999999999999822 ) ) ;
#88 = ORIENTED_EDGE ( 'NONE', *, *, #111, .F. ) ;
#89 = CARTESIAN_POINT ( 'NONE',  ( 0.05849999999999998951, 0.1732499999999999873, 0.1664999999999999813 ) ) ;
#90 = DIRECTION ( 'NONE',  ( 0.000000000000000000, 0.000000000000000000, 1.000000000000000000 ) ) ;
#91 = EDGE_CURVE ( 'NONE', #845, #256, #540, .T. ) ;
#92 = VECTOR ( 'NONE', #220, 1000.000000000000000 ) ;
#93 = ORIENTED_EDGE ( 'NONE', *, *, #486, .T. ) ;
#94 = DIRECTION ( 'NONE',  ( 0.000000000000000000, 1.000000000000000000, 0.000000000000000000 ) ) ;
#95 = VERTEX_POINT ( 'NONE', #770 ) ;
#96 = CARTESIAN_POINT ( 'NONE',  ( 0.1237499999999999989, 0.1431470688073216979, -0.3139939290814393047 ) ) ;
#97 = APPROVAL_ROLE ( '' ) ;
#98 = CARTESIAN_POINT ( 'NONE',  ( 0.1237499999999999989, 0.1833649407299910439, 0.3227157072662091841 ) ) ;
#99 = CARTESIAN_POINT ( 'NONE',  ( 0.1237499999999999989, 0.1732499999999999873, 0.3476304611221519014 ) ) ;
#100 = EDGE_LOOP ( 'NONE', ( #26, #924, #295, #512 ) ) ;
#101 = DIRECTION ( 'NONE',  ( -1.000000000000000000, 0.000000000000000000, 0.000000000000000000 ) ) ;
#102 = EDGE_LOOP ( 'NONE', ( #772, #306, #14, #43, #335, #671, #24, #606, #873, #293 ) ) ;
#103 =( LENGTH_UNIT ( ) NAMED_UNIT ( * ) SI_UNIT ( .MILLI., .METRE. ) );
#104 = APPROVAL_STATUS ( 'not_yet_approved' ) ;
#105 = LINE ( 'NONE', #717, #420 ) ;
#106 = EDGE_LOOP ( 'NONE', ( #179, #316 ) ) ;
#107 = CARTESIAN_POINT ( 'NONE',  ( 0.1237499999999999989, 0.2031341963354902913, -0.3139939290814390827 ) ) ;
#108 = EDGE_LOOP ( 'NONE', ( #222, #503, #979, #902 ) ) ;
#109 = DIRECTION ( 'NONE',  ( -2.664535259100375303E-15, 0.000000000000000000, -1.000000000000000000 ) ) ;
#110 = DIRECTION ( 'NONE',  ( 1.000000000000000000, 0.000000000000000000, 0.000000000000000000 ) ) ;
#111 = EDGE_CURVE ( 'NONE', #971, #789, #225, .T. ) ;
#112 = AXIS2_PLACEMENT_3D ( 'NONE', #380, #695, #453 ) ;
#113 = ORIENTED_EDGE ( 'NONE', *, *, #278, .F. ) ;
#114 = CARTESIAN_POINT ( 'NONE',  ( 0.1237499999999999989, 0.1417500000000000149, 0.3139939290814395823 ) ) ;
#115 = DIRECTION ( 'NONE',  ( -1.000000000000000000, 0.000000000000000000, 0.000000000000000000 ) ) ;
#116 = DATE_AND_TIME ( #871, #836 ) ;
#117 = VECTOR ( 'NONE', #101, 1000.000000000000000 ) ;
#118 = DIRECTION ( 'NONE',  ( 0.000000000000000000, -1.000000000000000000, 0.000000000000000000 ) ) ;
#119 = EDGE_CURVE ( 'NONE', #618, #910, #347, .T. ) ;
#120 = VERTEX_POINT ( 'NONE', #778 ) ;
#121 = CARTESIAN_POINT ( 'NONE',  ( 0.1237499999999999989, 0.1864295569970309263, -0.3200039404460990888 ) ) ;
#122 = CARTESIAN_POINT ( 'NONE',  ( -0.1237499999999999989, 0.2031341963354902913, 0.3139939290814390827 ) ) ;
#123 = CARTESIAN_POINT ( 'NONE',  ( -0.07875000000000000056, 0.1732499999999999873, 0.9000000000000000222 ) ) ;
#124 = CARTESIAN_POINT ( 'NONE',  ( -0.1237499999999999989, 0.1732499999999999873, -0.3476304611221519014 ) ) ;
#125 = CARTESIAN_POINT ( 'NONE',  ( -0.07875000000000000056, 0.1732499999999999873, -0.8549999999999999822 ) ) ;
#126 = LINE ( 'NONE', #31, #774 ) ;
#127 = VECTOR ( 'NONE', #307, 1000.000000000000000 ) ;
#128 = CARTESIAN_POINT ( 'NONE',  ( 0.05849999999999998951, -0.2317499999999999560, -0.1664999999999999813 ) ) ;
#129 = ORIENTED_EDGE ( 'NONE', *, *, #374, .T. ) ;
#130 = DIRECTION ( 'NONE',  ( 0.000000000000000000, 0.000000000000000000, 1.000000000000000000 ) ) ;
#131 = B_SPLINE_CURVE_WITH_KNOTS ( 'NONE', 3,
 ( #268, #581, #884, #200, #55, #270, #975, #290, #514, #745, #899, #79, #447, #833, #686, #3 ),
 .UNSPECIFIED., .F., .F.,
 ( 4, 3, 3, 3, 3, 4 ),
 ( 2.710505431213767705E-20, 9.993787328944660819E-06, 1.997218516609881121E-05, 3.018469885463080269E-05, 4.107025054795323892E-05, 5.177363696092107415E-05 ),
 .UNSPECIFIED. ) ;
#132 = FACE_OUTER_BOUND ( 'NONE', #314, .T. ) ;
#133 = ADVANCED_FACE ( 'NONE', ( #631 ), #874, .T. ) ;
#134 = ORIENTED_EDGE ( 'NONE', *, *, #703, .F. ) ;
#135 = LINE ( 'NONE', #370, #970 ) ;
#136 = AXIS2_PLACEMENT_3D ( 'NONE', #615, #393, #90 ) ;
#137 = LINE ( 'NONE', #746, #657 ) ;
#138 = DIRECTION ( 'NONE',  ( 0.000000000000000000, 0.000000000000000000, 1.000000000000000000 ) ) ;
#139 = LINE ( 'NONE', #426, #715 ) ;
#140 = FACE_OUTER_BOUND ( 'NONE', #522, .T. ) ;
#141 = ORIENTED_EDGE ( 'NONE', *, *, #374, .F. ) ;
#142 = ORIENTED_EDGE ( 'NONE', *, *, #424, .T. ) ;
#143 = CARTESIAN_POINT ( 'NONE',  ( -0.07875000000000000056, 0.1732499999999999873, -0.9000000000000000222 ) ) ;
#144 = EDGE_LOOP ( 'NONE', ( #171, #331, #9, #356 ) ) ;
#145 = CARTESIAN_POINT ( 'NONE',  ( 0.1476691314911129371, 0.1725665863441217807, -0.3035061442341264182 ) ) ;
#146 = CARTESIAN_POINT ( 'NONE',  ( -0.1237499999999999989, 0.1732499999999999873, 0.9000000000000000222 ) ) ;
#147 = PRODUCT ( '008126', '008126', '', ( #436 ) ) ;
#148 = VERTEX_POINT ( 'NONE', #869 ) ;
#149 = CIRCLE ( 'NONE', #496, 0.04500000000000001221 ) ;
#150 = DIRECTION ( 'NONE',  ( 1.000000000000000000, 0.000000000000000000, 0.000000000000000000 ) ) ;
#151 = CARTESIAN_POINT ( 'NONE',  ( -0.1369540124861829689, 0.1677064967930952388, 0.3084806863665484067 ) ) ;
#152 = CARTESIAN_POINT ( 'NONE',  ( 0.1237499999999999989, 0.1948493681306726621, 0.3157091716997145192 ) ) ;
#153 = VECTOR ( 'NONE', #734, 1000.000000000000000 ) ;
#154 = ORGANIZATION ( '未', '未', '' ) ;
#155 = FACE_BOUND ( 'NONE', #144, .T. ) ;
#156 = VERTEX_POINT ( 'NONE', #114 ) ;
#157 = CARTESIAN_POINT ( 'NONE',  ( 0.1238434807836809592, 0.1445476774584837087, -0.3139571338621728880 ) ) ;
#158 = DIRECTION ( 'NONE',  ( 0.000000000000000000, 0.000000000000000000, -1.000000000000000000 ) ) ;
#159 = CARTESIAN_POINT ( 'NONE',  ( 0.1242956369618715001, 0.1484584932953631198, 0.3137803108792125983 ) ) ;
#160 = CARTESIAN_POINT ( 'NONE',  ( -0.1237499999999999989, 0.1732499999999999873, 0.9000000000000000222 ) ) ;
#161 = ORIENTED_EDGE ( 'NONE', *, *, #510, .F. ) ;
#162 = CARTESIAN_POINT ( 'NONE',  ( 0.1237499999999999989, 0.1732499999999999873, 0.3476304611221519014 ) ) ;
#163 = EDGE_CURVE ( 'NONE', #473, #148, #61, .T. ) ;
#164 = VERTEX_POINT ( 'NONE', #556 ) ;
#165 = CARTESIAN_POINT ( 'NONE',  ( 0.1237499999999999989, 0.1897567844539810866, -0.3180717108395632597 ) ) ;
#166 = ORIENTED_EDGE ( 'NONE', *, *, #240, .T. ) ;
#167 = CARTESIAN_POINT ( 'NONE',  ( -0.1237499999999999989, 0.1732499999999999873, -0.8549999999999999822 ) ) ;
#168 = PERSON_AND_ORGANIZATION_ROLE ( 'design_owner' ) ;
#169 = DIRECTION ( 'NONE',  ( -2.664535259100375303E-15, 0.000000000000000000, -1.000000000000000000 ) ) ;
#170 = AXIS2_PLACEMENT_3D ( 'NONE', #535, #982, #842 ) ;
#171 = ORIENTED_EDGE ( 'NONE', *, *, #898, .T. ) ;
#172 = CARTESIAN_POINT ( 'NONE',  ( 0.1240286368331738054, 0.1459304882496124112, -0.3138839709913595621 ) ) ;
#173 = CALENDAR_DATE ( 2026, 29, 6 ) ;
#174 = CARTESIAN_POINT ( 'NONE',  ( 0.1552499999999999991, 0.1417500000000000149, 0.000000000000000000 ) ) ;
#175 = ORIENTED_EDGE ( 'NONE', *, *, #42, .T. ) ;
#176 = CARTESIAN_POINT ( 'NONE',  ( -0.05849999999999998951, 0.1732499999999999873, 0.1664999999999999813 ) ) ;
#177 = EDGE_CURVE ( 'NONE', #827, #932, #417, .T. ) ;
#178 = CARTESIAN_POINT ( 'NONE',  ( 0.1237499999999999989, 0.1739254589406116214, -0.3396765619912018308 ) ) ;
#179 = ORIENTED_EDGE ( 'NONE', *, *, #719, .T. ) ;
#180 = CARTESIAN_POINT ( 'NONE',  ( -0.1237499999999999989, 0.1732499999999999873, -0.3476304611221519014 ) ) ;
#181 = CARTESIAN_POINT ( 'NONE',  ( -0.05849999999999998951, 0.1732499999999999873, -0.1664999999999999813 ) ) ;
#182 = AXIS2_PLACEMENT_3D ( 'NONE', #252, #562, #185 ) ;
#183 = EDGE_CURVE ( 'NONE', #217, #477, #481, .T. ) ;
#184 = VERTEX_POINT ( 'NONE', #946 ) ;
#185 = DIRECTION ( 'NONE',  ( 0.000000000000000000, 0.000000000000000000, -1.000000000000000000 ) ) ;
#186 = LINE ( 'NONE', #962, #410 ) ;
#187 = CARTESIAN_POINT ( 'NONE',  ( 0.000000000000000000, 0.1732499999999999873, 0.000000000000000000 ) ) ;
#188 = AXIS2_PLACEMENT_3D ( 'NONE', #187, #692, #853 ) ;
#189 = EDGE_LOOP ( 'NONE', ( #134, #353, #320, #47, #930, #129, #524, #516 ) ) ;
#190 = CARTESIAN_POINT ( 'NONE',  ( 0.1237499999999999989, 0.1999191617924076514, -0.3143944232165410968 ) ) ;
#191 = LOCAL_TIME ( 14, 29, 39.00000000000000000, #399 ) ;
#192 = CARTESIAN_POINT ( 'NONE',  ( -0.1237499999999999989, 0.1864295569970309263, 0.3200039404460990888 ) ) ;
#193 = APPROVAL_STATUS ( 'not_yet_approved' ) ;
#194 = CARTESIAN_POINT ( 'NONE',  ( -0.1237499999999999989, 0.1417500000000000149, -0.3139939290814397488 ) ) ;
#195 = CARTESIAN_POINT ( 'NONE',  ( -0.1237499999999999989, 0.1745132172812811633, -0.3382419686358100197 ) ) ;
#196 = DIRECTION ( 'NONE',  ( 0.000000000000000000, -1.000000000000000000, 0.000000000000000000 ) ) ;
#197 = ADVANCED_FACE ( 'NONE', ( #649 ), #856, .F. ) ;
#198 = APPROVAL ( #28, '未' ) ;
#199 = CARTESIAN_POINT ( 'NONE',  ( -0.1237499999999999989, -0.2317499999999999560, -0.9000000000000000222 ) ) ;
#200 = CARTESIAN_POINT ( 'NONE',  ( -0.1253290909467457415, 0.1515983095720477847, -0.3133669876717429803 ) ) ;
#201 = CIRCLE ( 'NONE', #583, 0.04500000000000001221 ) ;
#202 = VECTOR ( 'NONE', #339, 1000.000000000000000 ) ;
#203 = LOCAL_TIME ( 14, 29, 39.00000000000000000, #564 ) ;
#204 = VERTEX_POINT ( 'NONE', #638 ) ;
#205 = DIRECTION ( 'NONE',  ( 1.000000000000000000, 0.000000000000000000, 0.000000000000000000 ) ) ;
#206 = DIRECTION ( 'NONE',  ( 0.000000000000000000, 0.000000000000000000, -1.000000000000000000 ) ) ;
#207 = DIRECTION ( 'NONE',  ( 1.000000000000000000, 0.000000000000000000, 0.000000000000000000 ) ) ;
#208 = DIRECTION ( 'NONE',  ( 0.000000000000000000, 0.000000000000000000, -1.000000000000000000 ) ) ;
#209 = DIRECTION ( 'NONE',  ( 0.000000000000000000, 0.000000000000000000, -1.000000000000000000 ) ) ;
#210 = ORIENTED_EDGE ( 'NONE', *, *, #388, .F. ) ;
#211 = DIRECTION ( 'NONE',  ( 0.000000000000000000, 0.000000000000000000, -1.000000000000000000 ) ) ;
#212 = CARTESIAN_POINT ( 'NONE',  ( 0.1237499999999999989, 0.2047499999999999876, -0.3139939290814395823 ) ) ;
#213 = LINE ( 'NONE', #589, #936 ) ;
#214 = ORIENTED_EDGE ( 'NONE', *, *, #395, .T. ) ;
#215 = ORIENTED_EDGE ( 'NONE', *, *, #964, .F. ) ;
#216 = CARTESIAN_POINT ( 'NONE',  ( 0.000000000000000000, 0.1732499999999999873, 0.000000000000000000 ) ) ;
#217 = VERTEX_POINT ( 'NONE', #798 ) ;
#218 = EDGE_CURVE ( 'NONE', #95, #797, #539, .T. ) ;
#219 = DIRECTION ( 'NONE',  ( 0.000000000000000000, 1.000000000000000000, 0.000000000000000000 ) ) ;
#220 = DIRECTION ( 'NONE',  ( 0.000000000000000000, -1.000000000000000000, 0.000000000000000000 ) ) ;
#221 = DIRECTION ( 'NONE',  ( -1.000000000000000000, 0.000000000000000000, 0.000000000000000000 ) ) ;
#222 = ORIENTED_EDGE ( 'NONE', *, *, #620, .F. ) ;
#223 = CARTESIAN_POINT ( 'NONE',  ( 0.000000000000000000, 0.2047499999999999876, 0.000000000000000000 ) ) ;
#224 = AXIS2_PLACEMENT_3D ( 'NONE', #917, #691, #532 ) ;
#225 = CIRCLE ( 'NONE', #796, 0.3689999999999999947 ) ;
#226 = CARTESIAN_POINT ( 'NONE',  ( 0.1237499999999999989, 0.1417500000000000149, -0.3139939290814395823 ) ) ;
#227 = ORIENTED_EDGE ( 'NONE', *, *, #753, .F. ) ;
#228 = DIRECTION ( 'NONE',  ( 0.000000000000000000, -1.000000000000000000, 0.000000000000000000 ) ) ;
#229 = LINE ( 'NONE', #378, #735 ) ;
#230 = CARTESIAN_POINT ( 'NONE',  ( -0.07875000000000000056, 0.1732499999999999873, 0.9000000000000000222 ) ) ;
#231 = DIRECTION ( 'NONE',  ( 0.000000000000000000, -1.000000000000000000, 0.000000000000000000 ) ) ;
#232 = ADVANCED_FACE ( 'NONE', ( #405 ), #48, .F. ) ;
#233 = CARTESIAN_POINT ( 'NONE',  ( 0.1317655112935050277, 0.1630028431063494099, 0.3107226626330181207 ) ) ;
#234 = ORIENTED_EDGE ( 'NONE', *, *, #908, .T. ) ;
#235 = CARTESIAN_POINT ( 'NONE',  ( 0.1237499999999999989, 0.2015129499866803731, -0.3141286024610693839 ) ) ;
#236 = VERTEX_POINT ( 'NONE', #334 ) ;
#237 = FACE_OUTER_BOUND ( 'NONE', #623, .T. ) ;
#238 = APPROVAL_DATE_TIME ( #116, #655 ) ;
#239 = FACE_OUTER_BOUND ( 'NONE', #610, .T. ) ;
#240 = EDGE_CURVE ( 'NONE', #473, #868, #502, .T. ) ;
#241 = ORIENTED_EDGE ( 'NONE', *, *, #536, .T. ) ;
#242 = CIRCLE ( 'NONE', #572, 0.04500000000000001221 ) ;
#243 = VECTOR ( 'NONE', #249, 1000.000000000000000 ) ;
#244 = PLANE ( 'NONE',  #625 ) ;
#245 = ORIENTED_EDGE ( 'NONE', *, *, #582, .T. ) ;
#246 = DIRECTION ( 'NONE',  ( 0.000000000000000000, 1.000000000000000000, 0.000000000000000000 ) ) ;
#247 = APPROVAL ( #193, '未' ) ;
#248 = ORIENTED_EDGE ( 'NONE', *, *, #59, .F. ) ;
#249 = DIRECTION ( 'NONE',  ( 0.000000000000000000, -1.000000000000000000, 0.000000000000000000 ) ) ;
#250 = VERTEX_POINT ( 'NONE', #226 ) ;
#251 = PLANE ( 'NONE',  #465 ) ;
#252 = CARTESIAN_POINT ( 'NONE',  ( 0.07875000000000000056, 0.1732499999999999873, 0.8549999999999999822 ) ) ;
#253 = DIRECTION ( 'NONE',  ( 0.000000000000000000, 0.000000000000000000, 1.000000000000000000 ) ) ;
#254 = ADVANCED_FACE ( 'NONE', ( #305 ), #801, .F. ) ;
#255 = CARTESIAN_POINT ( 'NONE',  ( 0.1237499999999999989, 0.1736779673204737751, 0.3412871967168969456 ) ) ;
#256 = VERTEX_POINT ( 'NONE', #744 ) ;
#257 = DIRECTION ( 'NONE',  ( 0.000000000000000000, 0.000000000000000000, -1.000000000000000000 ) ) ;
#258 = CARTESIAN_POINT ( 'NONE',  ( -0.1237499999999999989, 0.1752273927630147998, 0.3359476543192859155 ) ) ;
#259 = PERSON_AND_ORGANIZATION ( #849, #154 ) ;
#260 = DIRECTION ( 'NONE',  ( 0.000000000000000000, 1.000000000000000000, 0.000000000000000000 ) ) ;
#261 = TOROIDAL_SURFACE ( 'NONE', #35, 0.3689999999999999947, 0.03150000000000000022 ) ;
#262 = ORIENTED_EDGE ( 'NONE', *, *, #330, .F. ) ;
#263 = CARTESIAN_POINT ( 'NONE',  ( -0.1237499999999999989, 0.1770363455581800416, -0.3312613519923835459 ) ) ;
#264 = AXIS2_PLACEMENT_3D ( 'NONE', #461, #246, #397 ) ;
#265 = FACE_OUTER_BOUND ( 'NONE', #408, .T. ) ;
#266 = VECTOR ( 'NONE', #825, 1000.000000000000000 ) ;
#267 = CARTESIAN_POINT ( 'NONE',  ( -0.1237499999999999989, 0.1886990440241334832, -0.3185056578284723994 ) ) ;
#268 = CARTESIAN_POINT ( 'NONE',  ( -0.1237499999999999989, 0.1417500000000000149, -0.3139939290814395823 ) ) ;
#269 = ADVANCED_FACE ( 'NONE', ( #362 ), #821, .T. ) ;
#270 = CARTESIAN_POINT ( 'NONE',  ( -0.1279067482399192657, 0.1577200908601304186, -0.3123305614855075296 ) ) ;
#271 = VECTOR ( 'NONE', #673, 1000.000000000000000 ) ;
#272 = LINE ( 'NONE', #579, #153 ) ;
#273 = VERTEX_POINT ( 'NONE', #689 ) ;
#274 = CARTESIAN_POINT ( 'NONE',  ( 0.1237499999999999989, 0.1732499999999999873, -0.8549999999999999822 ) ) ;
#275 = ADVANCED_FACE ( 'NONE', ( #915 ), #445, .F. ) ;
#276 = LINE ( 'NONE', #664, #92 ) ;
#277 = CIRCLE ( 'NONE', #318, 0.04500000000000001221 ) ;
#278 = EDGE_CURVE ( 'NONE', #548, #784, #277, .T. ) ;
#279 = FACE_OUTER_BOUND ( 'NONE', #685, .T. ) ;
#280 = FACE_OUTER_BOUND ( 'NONE', #106, .T. ) ;
#281 = ORIENTED_EDGE ( 'NONE', *, *, #647, .T. ) ;
#282 = ORIENTED_EDGE ( 'NONE', *, *, #81, .F. ) ;
#283 = DIRECTION ( 'NONE',  ( -1.000000000000000000, 0.000000000000000000, 0.000000000000000000 ) ) ;
#284 = CARTESIAN_POINT ( 'NONE',  ( -0.07875000000000000056, 0.1732499999999999873, 0.8549999999999999822 ) ) ;
#285 = VECTOR ( 'NONE', #409, 1000.000000000000000 ) ;
#286 = DIRECTION ( 'NONE',  ( 0.000000000000000000, 0.000000000000000000, 1.000000000000000000 ) ) ;
#287 = EDGE_LOOP ( 'NONE', ( #613, #767, #957, #77, #927, #541, #537, #578, #354, #438 ) ) ;
#288 = EDGE_LOOP ( 'NONE', ( #142, #678, #234, #642, #698, #851 ) ) ;
#289 = ORIENTED_EDGE ( 'NONE', *, *, #947, .F. ) ;
#290 = CARTESIAN_POINT ( 'NONE',  ( -0.1317655112935050277, 0.1630028431063494099, -0.3107226626330181207 ) ) ;
#291 = DIRECTION ( 'NONE',  ( 0.000000000000000000, -1.000000000000000000, 0.000000000000000000 ) ) ;
#292 = ORIENTED_EDGE ( 'NONE', *, *, #937, .T. ) ;
#293 = ORIENTED_EDGE ( 'NONE', *, *, #885, .T. ) ;
#294 = DIRECTION ( 'NONE',  ( 0.000000000000000000, 0.000000000000000000, -1.000000000000000000 ) ) ;
#295 = ORIENTED_EDGE ( 'NONE', *, *, #620, .T. ) ;
#296 = CARTESIAN_POINT ( 'NONE',  ( 0.1552499999999999436, 0.1732499999999999873, -0.2996726338857120808 ) ) ;
#297 = CARTESIAN_POINT ( 'NONE',  ( -0.1552499999999999991, 0.1732499999999999873, 0.2996726338857119698 ) ) ;
#298 = DIRECTION ( 'NONE',  ( 0.000000000000000000, -1.000000000000000000, 0.000000000000000000 ) ) ;
#299 = ORIENTED_EDGE ( 'NONE', *, *, #918, .T. ) ;
#300 = CARTESIAN_POINT ( 'NONE',  ( 0.000000000000000000, 0.2047499999999999876, 0.000000000000000000 ) ) ;
#301 = DIRECTION ( 'NONE',  ( 1.000000000000000000, 0.000000000000000000, 0.000000000000000000 ) ) ;
#302 = AXIS2_PLACEMENT_3D ( 'NONE', #366, #4, #454 ) ;
#303 = ADVANCED_FACE ( 'NONE', ( #155, #757 ), #78, .T. ) ;
#304 = CC_DESIGN_APPROVAL ( #247, ( #756 ) ) ;
#305 = FACE_OUTER_BOUND ( 'NONE', #310, .T. ) ;
#306 = ORIENTED_EDGE ( 'NONE', *, *, #177, .T. ) ;
#307 = DIRECTION ( 'NONE',  ( 0.000000000000000000, 0.000000000000000000, 1.000000000000000000 ) ) ;
#308 = CARTESIAN_POINT ( 'NONE',  ( 0.1237499999999999989, 0.1785005064199851055, -0.3286526408596677218 ) ) ;
#309 = EDGE_CURVE ( 'NONE', #830, #95, #672, .T. ) ;
#310 = EDGE_LOOP ( 'NONE', ( #769, #88, #248, #396 ) ) ;
#311 = DIRECTION ( 'NONE',  ( 0.000000000000000000, -1.000000000000000000, 0.000000000000000000 ) ) ;
#312 = APPROVAL_ROLE ( '' ) ;
#313 = CARTESIAN_POINT ( 'NONE',  ( 0.1237499999999999989, 0.1809814011222818098, 0.3253272455894615778 ) ) ;
#314 = EDGE_LOOP ( 'NONE', ( #161, #72, #755, #210 ) ) ;
#315 = CARTESIAN_POINT ( 'NONE',  ( 0.1395059702354068121, 0.1692466576092911956, 0.3073328668056478086 ) ) ;
#316 = ORIENTED_EDGE ( 'NONE', *, *, #726, .T. ) ;
#317 = CARTESIAN_POINT ( 'NONE',  ( -0.05849999999999998951, -0.2317499999999999560, -0.1664999999999999813 ) ) ;
#318 = AXIS2_PLACEMENT_3D ( 'NONE', #13, #379, #70 ) ;
#319 = DIRECTION ( 'NONE',  ( 0.000000000000000000, 0.000000000000000000, -1.000000000000000000 ) ) ;
#320 = ORIENTED_EDGE ( 'NONE', *, *, #42, .F. ) ;
#321 = LINE ( 'NONE', #377, #127 ) ;
#322 = AXIS2_PLACEMENT_3D ( 'NONE', #963, #586, #584 ) ;
#323 = LOCAL_TIME ( 14, 29, 39.00000000000000000, #38 ) ;
#324 = B_SPLINE_CURVE_WITH_KNOTS ( 'NONE', 3,
 ( #296, #519, #145, #508, #818, #441, #751, #73, #364, #376, #558, #549, #172, #157, #96, #865 ),
 .UNSPECIFIED., .F., .F.,
 ( 4, 3, 3, 3, 3, 4 ),
 ( 7.666467083416887783E-20, 1.264953131814196957E-05, 2.536463617788335589E-05, 3.703286784871379826E-05, 4.763551516486264656E-05, 5.176744338769874969E-05 ),
 .UNSPECIFIED. ) ;
#325 = EDGE_CURVE ( 'NONE', #555, #724, #980, .T. ) ;
#326 = DIRECTION ( 'NONE',  ( 0.000000000000000000, -1.000000000000000000, 0.000000000000000000 ) ) ;
#327 = CARTESIAN_POINT ( 'NONE',  ( -0.1237499999999999989, 0.1897567844539810866, 0.3180717108395632597 ) ) ;
#328 = CARTESIAN_POINT ( 'NONE',  ( 0.07875000000000000056, -0.2317499999999999560, -0.9000000000000000222 ) ) ;
#329 = ORIENTED_EDGE ( 'NONE', *, *, #15, .T. ) ;
#330 = EDGE_CURVE ( 'NONE', #568, #439, #201, .T. ) ;
#331 = ORIENTED_EDGE ( 'NONE', *, *, #86, .T. ) ;
#332 = DATE_AND_TIME ( #954, #203 ) ;
#333 = DIRECTION ( 'NONE',  ( 0.000000000000000000, 0.000000000000000000, 1.000000000000000000 ) ) ;
#334 = CARTESIAN_POINT ( 'NONE',  ( -0.1237499999999999989, 0.2047499999999999876, -0.3139939290814395823 ) ) ;
#335 = ORIENTED_EDGE ( 'NONE', *, *, #733, .T. ) ;
#336 = CARTESIAN_POINT ( 'NONE',  ( 0.000000000000000000, 0.1732499999999999873, 0.000000000000000000 ) ) ;
#337 = CIRCLE ( 'NONE', #890, 0.3374999999999999667 ) ;
#338 = CARTESIAN_POINT ( 'NONE',  ( -0.1237499999999999989, 0.1732500000000000151, 0.3436808049214692407 ) ) ;
#339 = DIRECTION ( 'NONE',  ( 0.000000000000000000, 1.000000000000000000, 0.000000000000000000 ) ) ;
#340 = EDGE_CURVE ( 'NONE', #394, #204, #149, .T. ) ;
#341 = ADVANCED_FACE ( 'NONE', ( #457 ), #693, .F. ) ;
#342 = DIRECTION ( 'NONE',  ( 0.000000000000000000, 1.000000000000000000, 0.000000000000000000 ) ) ;
#343 = EDGE_CURVE ( 'NONE', #910, #452, #450, .T. ) ;
#344 = LINE ( 'NONE', #654, #202 ) ;
#345 = AXIS2_PLACEMENT_3D ( 'NONE', #359, #291, #67 ) ;
#346 = CARTESIAN_POINT ( 'NONE',  ( -0.1237499999999999989, -0.2317499999999999560, 0.8549999999999999822 ) ) ;
#347 = CIRCLE ( 'NONE', #573, 0.04500000000000001221 ) ;
#348 = B_SPLINE_CURVE_WITH_KNOTS ( 'NONE', 3,
 ( #786, #338, #569, #258, #712, #416, #37, #941, #192, #327, #52, #875, #799, #421, #122, #864 ),
 .UNSPECIFIED., .F., .F.,
 ( 4, 3, 3, 3, 3, 4 ),
 ( 1.117570019170467887E-19, 1.184896860204766657E-05, 2.371494559061625897E-05, 3.527209371117241140E-05, 4.608492000850803046E-05, 5.087109450875050408E-05 ),
 .UNSPECIFIED. ) ;
#349 = DIRECTION ( 'NONE',  ( 0.000000000000000000, -1.000000000000000000, 0.000000000000000000 ) ) ;
#350 = DIRECTION ( 'NONE',  ( 0.000000000000000000, -1.000000000000000000, 0.000000000000000000 ) ) ;
#351 = FACE_OUTER_BOUND ( 'NONE', #565, .T. ) ;
#352 = AXIS2_PLACEMENT_3D ( 'NONE', #838, #82, #923 ) ;
#353 = ORIENTED_EDGE ( 'NONE', *, *, #841, .T. ) ;
#354 = ORIENTED_EDGE ( 'NONE', *, *, #240, .F. ) ;
#355 = CARTESIAN_POINT ( 'NONE',  ( 0.000000000000000000, -0.2317499999999999560, 0.000000000000000000 ) ) ;
#356 = ORIENTED_EDGE ( 'NONE', *, *, #527, .T. ) ;
#357 = CARTESIAN_POINT ( 'NONE',  ( -0.1552499999999999991, 0.1732499999999999873, 0.2996726338857119698 ) ) ;
#358 = CC_DESIGN_DATE_AND_TIME_ASSIGNMENT ( #44, #392, ( #614 ) ) ;
#359 = CARTESIAN_POINT ( 'NONE',  ( 0.000000000000000000, 0.2047499999999999876, 0.000000000000000000 ) ) ;
#360 = ORIENTED_EDGE ( 'NONE', *, *, #716, .T. ) ;
#361 = DESIGN_CONTEXT ( 'detailed design', #71, 'design' ) ;
#362 = FACE_OUTER_BOUND ( 'NONE', #287, .T. ) ;
#363 = AXIS2_PLACEMENT_3D ( 'NONE', #889, #260, #333 ) ;
#364 = CARTESIAN_POINT ( 'NONE',  ( 0.1288797194738164897, 0.1593979543315461322, -0.3119290681472225990 ) ) ;
#365 = LOCAL_TIME ( 14, 29, 39.00000000000000000, #542 ) ;
#366 = CARTESIAN_POINT ( 'NONE',  ( -0.07875000000000000056, 0.1732499999999999873, 0.8549999999999999822 ) ) ;
#367 = ORIENTED_EDGE ( 'NONE', *, *, #736, .F. ) ;
#368 = CARTESIAN_POINT ( 'NONE',  ( -0.07875000000000000056, 0.1732499999999999873, -0.8549999999999999822 ) ) ;
#369 = ORIENTED_EDGE ( 'NONE', *, *, #837, .T. ) ;
#370 = CARTESIAN_POINT ( 'NONE',  ( -0.1237499999999999989, 0.1417500000000000149, -0.3139939290814397488 ) ) ;
#371 = CARTESIAN_POINT ( 'NONE',  ( 0.1237499999999999989, 0.1916971759146913479, 0.3168301250264967117 ) ) ;
#372 = CARTESIAN_POINT ( 'NONE',  ( 0.1279067482399192657, 0.1577200908601304186, 0.3123305614855075296 ) ) ;
#373 = ORIENTED_EDGE ( 'NONE', *, *, #163, .F. ) ;
#374 = EDGE_CURVE ( 'NONE', #945, #164, #23, .T. ) ;
#375 = DIRECTION ( 'NONE',  ( 0.000000000000000000, 0.000000000000000000, -1.000000000000000000 ) ) ;
#376 = CARTESIAN_POINT ( 'NONE',  ( 0.1271527816519829601, 0.1559906573269584373, -0.3126314445447915813 ) ) ;
#377 = CARTESIAN_POINT ( 'NONE',  ( -0.1237499999999999989, -0.2317499999999999560, 0.9000000000000000222 ) ) ;
#378 = CARTESIAN_POINT ( 'NONE',  ( 0.1237499999999999989, 0.1732499999999999873, 0.8549999999999999822 ) ) ;
#379 = DIRECTION ( 'NONE',  ( 0.000000000000000000, 1.000000000000000000, 0.000000000000000000 ) ) ;
#380 = CARTESIAN_POINT ( 'NONE',  ( 0.000000000000000000, 0.1732499999999999873, 0.000000000000000000 ) ) ;
#381 = LINE ( 'NONE', #479, #676 ) ;
#382 = EDGE_CURVE ( 'NONE', #250, #156, #518, .T. ) ;
#383 = ORIENTED_EDGE ( 'NONE', *, *, #388, .T. ) ;
#384 = CARTESIAN_POINT ( 'NONE',  ( 0.1237499999999999989, 0.1732499999999999873, -0.3476304611221519014 ) ) ;
#385 = ORIENTED_EDGE ( 'NONE', *, *, #340, .T. ) ;
#386 = PERSON_AND_ORGANIZATION_ROLE ( 'creator' ) ;
#387 = DIRECTION ( 'NONE',  ( 0.000000000000000000, 1.000000000000000000, 0.000000000000000000 ) ) ;
#388 = EDGE_CURVE ( 'NONE', #830, #618, #926, .T. ) ;
#389 = FACE_OUTER_BOUND ( 'NONE', #100, .T. ) ;
#390 = ORIENTED_EDGE ( 'NONE', *, *, #395, .F. ) ;
#391 = CARTESIAN_POINT ( 'NONE',  ( 0.000000000000000000, 0.1732499999999999873, 0.000000000000000000 ) ) ;
#392 = DATE_TIME_ROLE ( 'classification_date' ) ;
#393 = DIRECTION ( 'NONE',  ( -1.000000000000000000, -0.000000000000000000, -0.000000000000000000 ) ) ;
#394 = VERTEX_POINT ( 'NONE', #143 ) ;
#395 = EDGE_CURVE ( 'NONE', #156, #217, #594, .T. ) ;
#396 = ORIENTED_EDGE ( 'NONE', *, *, #983, .F. ) ;
#397 = DIRECTION ( 'NONE',  ( 0.000000000000000000, 0.000000000000000000, -1.000000000000000000 ) ) ;
#398 = ORIENTED_EDGE ( 'NONE', *, *, #278, .T. ) ;
#399 = COORDINATED_UNIVERSAL_TIME_OFFSET ( 8, 0, .AHEAD. ) ;
#400 = CARTESIAN_POINT ( 'NONE',  ( 0.1237499999999999989, 0.1745132172812811633, 0.3382419686358100197 ) ) ;
#401 = AXIS2_PLACEMENT_3D ( 'NONE', #284, #588, #66 ) ;
#402 = EDGE_CURVE ( 'NONE', #797, #945, #229, .T. ) ;
#403 = CC_DESIGN_SECURITY_CLASSIFICATION ( #614, ( #756 ) ) ;
#404 = ORIENTED_EDGE ( 'NONE', *, *, #15, .F. ) ;
#405 = FACE_OUTER_BOUND ( 'NONE', #288, .T. ) ;
#406 = CARTESIAN_POINT ( 'NONE',  ( 0.05849999999999998951, 0.1732499999999999873, 0.1664999999999999813 ) ) ;
#407 = PERSON_AND_ORGANIZATION ( #849, #154 ) ;
#408 = EDGE_LOOP ( 'NONE', ( #458, #705, #141, #601 ) ) ;
#409 = DIRECTION ( 'NONE',  ( 0.000000000000000000, -1.000000000000000000, 0.000000000000000000 ) ) ;
#410 = VECTOR ( 'NONE', #557, 1000.000000000000000 ) ;
#411 = MANIFOLD_SOLID_BREP ( 'NONE', #666 ) ;
#412 = VERTEX_POINT ( 'NONE', #99 ) ;
#413 = CARTESIAN_POINT ( 'NONE',  ( -0.1237499999999999989, 0.1916971759146913479, -0.3168301250264967117 ) ) ;
#414 = PERSON_AND_ORGANIZATION ( #849, #154 ) ;
#415 = DIRECTION ( 'NONE',  ( 0.000000000000000000, 0.000000000000000000, 1.000000000000000000 ) ) ;
#416 = CARTESIAN_POINT ( 'NONE',  ( -0.1237499999999999989, 0.1785005064199851055, 0.3286526408596677218 ) ) ;
#417 = B_SPLINE_CURVE_WITH_KNOTS ( 'NONE', 3,
 ( #384, #699, #178, #863, #25, #308, #488, #476, #121, #165, #785, #624, #190, #235, #107, #706 ),
 .UNSPECIFIED., .F., .F.,
 ( 4, 3, 3, 3, 3, 4 ),
 ( 1.117570019170467887E-19, 1.184896860204766657E-05, 2.371494559061625897E-05, 3.527209371117241140E-05, 4.608492000850803046E-05, 5.087109450875050408E-05 ),
 .UNSPECIFIED. ) ;
#418 = ADVANCED_FACE ( 'NONE', ( #389 ), #244, .T. ) ;
#419 = CARTESIAN_POINT ( 'NONE',  ( 0.000000000000000000, 0.2317499999999999560, 0.000000000000000000 ) ) ;
#420 = VECTOR ( 'NONE', #231, 1000.000000000000000 ) ;
#421 = CARTESIAN_POINT ( 'NONE',  ( -0.1237499999999999989, 0.2015129499866803731, 0.3141286024610693839 ) ) ;
#422 = CARTESIAN_POINT ( 'NONE',  ( -0.1237499999999999989, 0.1732499999999999873, 0.9000000000000000222 ) ) ;
#423 = LINE ( 'NONE', #651, #285 ) ;
#424 = EDGE_CURVE ( 'NONE', #797, #412, #137, .T. ) ;
#425 = ORIENTED_EDGE ( 'NONE', *, *, #753, .T. ) ;
#426 = CARTESIAN_POINT ( 'NONE',  ( -0.05849999999999998951, -0.2317499999999999560, 0.1664999999999999813 ) ) ;
#427 = EDGE_CURVE ( 'NONE', #148, #690, #12, .T. ) ;
#428 = VECTOR ( 'NONE', #552, 1000.000000000000000 ) ;
#429 = ORIENTED_EDGE ( 'NONE', *, *, #86, .F. ) ;
#430 = CARTESIAN_POINT ( 'NONE',  ( -0.1237499999999999989, -0.2317499999999999560, 0.9000000000000000222 ) ) ;
#431 = VECTOR ( 'NONE', #115, 1000.000000000000000 ) ;
#432 = DIRECTION ( 'NONE',  ( 0.000000000000000000, 0.000000000000000000, -1.000000000000000000 ) ) ;
#433 = DIRECTION ( 'NONE',  ( 0.000000000000000000, -1.000000000000000000, 0.000000000000000000 ) ) ;
#434 = ADVANCED_FACE ( 'NONE', ( #11 ), #515, .F. ) ;
#435 = CARTESIAN_POINT ( 'NONE',  ( -0.1476691314911129371, 0.1725665863441217807, 0.3035061442341264182 ) ) ;
#436 = MECHANICAL_CONTEXT ( 'NONE', #748, 'mechanical' ) ;
#437 = CARTESIAN_POINT ( 'NONE',  ( -0.05849999999999998951, 0.2317499999999999560, 0.1664999999999999813 ) ) ;
#438 = ORIENTED_EDGE ( 'NONE', *, *, #163, .T. ) ;
#439 = VERTEX_POINT ( 'NONE', #442 ) ;
#440 = CARTESIAN_POINT ( 'NONE',  ( -0.1237499999999999989, 0.1732499999999999873, 0.3139939290814397488 ) ) ;
#441 = CARTESIAN_POINT ( 'NONE',  ( 0.1369540124861829689, 0.1677064967930952388, -0.3084806863665484067 ) ) ;
#442 = CARTESIAN_POINT ( 'NONE',  ( 0.1237499999999999989, -0.2317499999999999560, -0.8549999999999999822 ) ) ;
#443 = VECTOR ( 'NONE', #766, 1000.000000000000000 ) ;
#444 = ORIENTED_EDGE ( 'NONE', *, *, #841, .F. ) ;
#445 = PLANE ( 'NONE',  #892 ) ;
#446 = AXIS2_PLACEMENT_3D ( 'NONE', #174, #925, #110 ) ;
#447 = CARTESIAN_POINT ( 'NONE',  ( -0.1457356971355938113, 0.1717787868720058453, -0.3044131347041426072 ) ) ;
#448 = VECTOR ( 'NONE', #311, 1000.000000000000000 ) ;
#449 = DIRECTION ( 'NONE',  ( -0.000000000000000000, 1.000000000000000000, 0.000000000000000000 ) ) ;
#450 = LINE ( 'NONE', #20, #628 ) ;
#451 = PRODUCT_DEFINITION_SHAPE ( 'NONE', 'NONE',  #545 ) ;
#452 = VERTEX_POINT ( 'NONE', #609 ) ;
#453 = DIRECTION ( 'NONE',  ( 0.000000000000000000, 0.000000000000000000, -1.000000000000000000 ) ) ;
#454 = DIRECTION ( 'NONE',  ( 0.000000000000000000, 0.000000000000000000, -1.000000000000000000 ) ) ;
#455 = CARTESIAN_POINT ( 'NONE',  ( 0.1457356971355938113, 0.1717787868720058453, 0.3044131347041426072 ) ) ;
#456 = ADVANCED_FACE ( 'NONE', ( #900, #280 ), #592, .T. ) ;
#457 = FACE_OUTER_BOUND ( 'NONE', #102, .T. ) ;
#458 = ORIENTED_EDGE ( 'NONE', *, *, #218, .F. ) ;
#459 = FACE_OUTER_BOUND ( 'NONE', #489, .T. ) ;
#460 = ORIENTED_EDGE ( 'NONE', *, *, #325, .T. ) ;
#461 = CARTESIAN_POINT ( 'NONE',  ( 0.000000000000000000, 0.2047499999999999876, 0.000000000000000000 ) ) ;
#462 = VERTEX_POINT ( 'NONE', #520 ) ;
#463 = COORDINATED_UNIVERSAL_TIME_OFFSET ( 8, 0, .AHEAD. ) ;
#464 = CARTESIAN_POINT ( 'NONE',  ( 0.1237499999999999989, 0.1790714861367177224, 0.3282001173553255047 ) ) ;
#465 = AXIS2_PLACEMENT_3D ( 'NONE', #181, #619, #544 ) ;
#466 = CARTESIAN_POINT ( 'NONE',  ( -0.1552499999999999991, 0.1417500000000000149, 0.000000000000000000 ) ) ;
#467 = VERTEX_POINT ( 'NONE', #297 ) ;
#468 = CARTESIAN_POINT ( 'NONE',  ( 4.133182947122316550E-17, 0.2317499999999999560, 0.3374999999999999667 ) ) ;
#469 = PERSON_AND_ORGANIZATION ( #849, #154 ) ;
#470 = EDGE_CURVE ( 'NONE', #827, #548, #213, .T. ) ;
#471 = CARTESIAN_POINT ( 'NONE',  ( 0.000000000000000000, 0.2047499999999999876, 0.000000000000000000 ) ) ;
#472 = VERTEX_POINT ( 'NONE', #752 ) ;
#473 = VERTEX_POINT ( 'NONE', #829 ) ;
#474 = DIRECTION ( 'NONE',  ( 0.000000000000000000, 0.000000000000000000, -1.000000000000000000 ) ) ;
#475 = ORIENTED_EDGE ( 'NONE', *, *, #908, .F. ) ;
#476 = CARTESIAN_POINT ( 'NONE',  ( 0.1237499999999999989, 0.1834251695808209182, -0.3226035107518553935 ) ) ;
#477 = VERTEX_POINT ( 'NONE', #509 ) ;
#478 = LINE ( 'NONE', #468, #448 ) ;
#479 = CARTESIAN_POINT ( 'NONE',  ( 0.1237499999999999989, -0.2317499999999999560, 0.9000000000000000222 ) ) ;
#480 = EDGE_LOOP ( 'NONE', ( #215, #69, #677, #561 ) ) ;
#481 = LINE ( 'NONE', #725, #961 ) ;
#482 = ORIENTED_EDGE ( 'NONE', *, *, #7, .T. ) ;
#483 = PLANE ( 'NONE',  #820 ) ;
#484 = B_SPLINE_CURVE_WITH_KNOTS ( 'NONE', 3,
 ( #357, #911, #435, #815, #597, #151, #602, #739, #608, #663, #57, #904, #972, #525, #62, #894 ),
 .UNSPECIFIED., .F., .F.,
 ( 4, 3, 3, 3, 3, 4 ),
 ( 1.484604966916047473E-19, 1.264953131814196957E-05, 2.536463617788335589E-05, 3.703286784871379826E-05, 4.763551516486263978E-05, 5.176744338769874969E-05 ),
 .UNSPECIFIED. ) ;
#485 = VECTOR ( 'NONE', #342, 1000.000000000000000 ) ;
#486 = EDGE_CURVE ( 'NONE', #164, #95, #60, .T. ) ;
#487 = ORIENTED_EDGE ( 'NONE', *, *, #382, .F. ) ;
#488 = CARTESIAN_POINT ( 'NONE',  ( 0.1237499999999999989, 0.1809960130271479617, -0.3255873257998106451 ) ) ;
#489 = EDGE_LOOP ( 'NONE', ( #475, #329, #166, #292, #791, #762, #630, #531, #907, #645 ) ) ;
#490 = SHAPE_DEFINITION_REPRESENTATION ( #451, #667 ) ;
#491 = CYLINDRICAL_SURFACE ( 'NONE', #660, 0.04500000000000001221 ) ;
#492 = CARTESIAN_POINT ( 'NONE',  ( -0.1237499999999999989, 0.1736779673204737751, -0.3412871967168969456 ) ) ;
#493 = FACE_OUTER_BOUND ( 'NONE', #64, .T. ) ;
#494 = ADVANCED_FACE ( 'NONE', ( #351 ), #973, .T. ) ;
#495 = DIRECTION ( 'NONE',  ( 0.000000000000000000, -1.000000000000000000, 0.000000000000000000 ) ) ;
#496 = AXIS2_PLACEMENT_3D ( 'NONE', #368, #2, #294 ) ;
#497 = CC_DESIGN_PERSON_AND_ORGANIZATION_ASSIGNMENT ( #943, #168, ( #147 ) ) ;
#498 = LINE ( 'NONE', #422, #835 ) ;
#499 = AXIS2_PLACEMENT_3D ( 'NONE', #823, #74, #819 ) ;
#500 = CARTESIAN_POINT ( 'NONE',  ( 0.000000000000000000, 0.2047499999999999876, 0.000000000000000000 ) ) ;
#501 = ADVANCED_FACE ( 'NONE', ( #140 ), #895, .F. ) ;
#502 = LINE ( 'NONE', #440, #669 ) ;
#503 = ORIENTED_EDGE ( 'NONE', *, *, #577, .F. ) ;
#504 = CARTESIAN_POINT ( 'NONE',  ( -0.1237499999999999989, 0.1732499999999999873, 0.9000000000000000222 ) ) ;
#505 = EDGE_CURVE ( 'NONE', #517, #68, #681, .T. ) ;
#506 = AXIS2_PLACEMENT_3D ( 'NONE', #909, #903, #844 ) ;
#507 = ORIENTED_EDGE ( 'NONE', *, *, #536, .F. ) ;
#508 = CARTESIAN_POINT ( 'NONE',  ( 0.1440629445610755732, 0.1711965582132518870, -0.3052083190288108483 ) ) ;
#509 = CARTESIAN_POINT ( 'NONE',  ( 0.1552499999999999436, 0.1732499999999999873, -0.2996726338857120808 ) ) ;
#510 = EDGE_CURVE ( 'NONE', #452, #830, #595, .T. ) ;
#511 = ADVANCED_FACE ( 'NONE', ( #670 ), #771, .F. ) ;
#512 = ORIENTED_EDGE ( 'NONE', *, *, #968, .T. ) ;
#513 = VECTOR ( 'NONE', #219, 1000.000000000000000 ) ;
#514 = CARTESIAN_POINT ( 'NONE',  ( -0.1341435605944323872, 0.1653521427767194463, -0.3097092461128492236 ) ) ;
#515 = PLANE ( 'NONE',  #567 ) ;
#516 = ORIENTED_EDGE ( 'NONE', *, *, #119, .T. ) ;
#517 = VERTEX_POINT ( 'NONE', #437 ) ;
#518 = LINE ( 'NONE', #611, #701 ) ;
#519 = CARTESIAN_POINT ( 'NONE',  ( 0.1515060806246641689, 0.1732499999999999596, -0.3016122286878271663 ) ) ;
#520 = CARTESIAN_POINT ( 'NONE',  ( -0.1237499999999999989, 0.1417500000000000149, -0.3139939290814395823 ) ) ;
#521 = ORIENTED_EDGE ( 'NONE', *, *, #885, .F. ) ;
#522 = EDGE_LOOP ( 'NONE', ( #175, #425, #749, #934 ) ) ;
#523 = DIRECTION ( 'NONE',  ( 0.000000000000000000, -1.000000000000000000, 0.000000000000000000 ) ) ;
#524 = ORIENTED_EDGE ( 'NONE', *, *, #918, .F. ) ;
#525 = CARTESIAN_POINT ( 'NONE',  ( -0.1238434807836809592, 0.1445476774584837087, 0.3139571338621728880 ) ) ;
#526 = DIRECTION ( 'NONE',  ( 0.000000000000000000, 0.000000000000000000, 1.000000000000000000 ) ) ;
#527 = EDGE_CURVE ( 'NONE', #256, #68, #604, .T. ) ;
#528 = CARTESIAN_POINT ( 'NONE',  ( 0.1237499999999999989, 0.2047499999999999876, 0.3139939290814395823 ) ) ;
#529 = DIRECTION ( 'NONE',  ( 0.000000000000000000, 0.000000000000000000, 1.000000000000000000 ) ) ;
#530 = CIRCLE ( 'NONE', #112, 0.3689999999999999947 ) ;
#531 = ORIENTED_EDGE ( 'NONE', *, *, #966, .T. ) ;
#532 = DIRECTION ( 'NONE',  ( 1.000000000000000000, 0.000000000000000000, 0.000000000000000000 ) ) ;
#533 = CC_DESIGN_APPROVAL ( #655, ( #545 ) ) ;
#534 = AXIS2_PLACEMENT_3D ( 'NONE', #883, #495, #804 ) ;
#535 = CARTESIAN_POINT ( 'NONE',  ( -0.1237499999999999989, 0.1732499999999999873, -0.9000000000000000222 ) ) ;
#536 = EDGE_CURVE ( 'NONE', #724, #256, #276, .T. ) ;
#537 = ORIENTED_EDGE ( 'NONE', *, *, #813, .T. ) ;
#538 = CARTESIAN_POINT ( 'NONE',  ( 0.1237499999999999989, 0.1732499999999999873, -0.3139939290814397488 ) ) ;
#539 = CIRCLE ( 'NONE', #182, 0.04500000000000001221 ) ;
#540 = LINE ( 'NONE', #317, #117 ) ;
#541 = ORIENTED_EDGE ( 'NONE', *, *, #882, .T. ) ;
#542 = COORDINATED_UNIVERSAL_TIME_OFFSET ( 8, 0, .AHEAD. ) ;
#543 = EDGE_CURVE ( 'NONE', #690, #412, #665, .T. ) ;
#544 = DIRECTION ( 'NONE',  ( 1.000000000000000000, 0.000000000000000000, 0.000000000000000000 ) ) ;
#545 = PRODUCT_DEFINITION ( '�', '', #756, #361 ) ;
#546 = EDGE_LOOP ( 'NONE', ( #1, #65, #460, #241 ) ) ;
#547 = DIRECTION ( 'NONE',  ( 0.000000000000000000, 0.000000000000000000, -1.000000000000000000 ) ) ;
#548 = VERTEX_POINT ( 'NONE', #29 ) ;
#549 = CARTESIAN_POINT ( 'NONE',  ( 0.1244972827045886521, 0.1494305011845689923, -0.3136987894785683850 ) ) ;
#550 = PERSON_AND_ORGANIZATION_ROLE ( 'design_supplier' ) ;
#551 = CIRCLE ( 'NONE', #188, 0.3374999999999999667 ) ;
#552 = DIRECTION ( 'NONE',  ( 0.000000000000000000, 0.000000000000000000, 1.000000000000000000 ) ) ;
#553 = VECTOR ( 'NONE', #759, 1000.000000000000000 ) ;
#554 = AXIS2_PLACEMENT_3D ( 'NONE', #406, #948, #253 ) ;
#555 = VERTEX_POINT ( 'NONE', #861 ) ;
#556 = CARTESIAN_POINT ( 'NONE',  ( 0.07875000000000000056, -0.2317499999999999560, 0.9000000000000000222 ) ) ;
#557 = DIRECTION ( 'NONE',  ( -1.000000000000000000, 0.000000000000000000, 0.000000000000000000 ) ) ;
#558 = CARTESIAN_POINT ( 'NONE',  ( 0.1255805225156239879, 0.1528885457291802308, -0.3132709103635830106 ) ) ;
#559 = CALENDAR_DATE ( 2026, 29, 6 ) ;
#560 = CARTESIAN_POINT ( 'NONE',  ( 0.1237499999999999989, 0.1732500000000000151, 0.3444727631374057131 ) ) ;
#561 = ORIENTED_EDGE ( 'NONE', *, *, #177, .F. ) ;
#562 = DIRECTION ( 'NONE',  ( 0.000000000000000000, 1.000000000000000000, 0.000000000000000000 ) ) ;
#563 = CARTESIAN_POINT ( 'NONE',  ( -0.1237499999999999989, 0.2047499999999999876, -0.3139939290814395823 ) ) ;
#564 = COORDINATED_UNIVERSAL_TIME_OFFSET ( 8, 0, .AHEAD. ) ;
#565 = EDGE_LOOP ( 'NONE', ( #574, #950, #729, #888, #214, #360, #893, #758, #245, #862 ) ) ;
#566 = CARTESIAN_POINT ( 'NONE',  ( -0.05849999999999998951, 0.2317499999999999560, 0.1664999999999999813 ) ) ;
#567 = AXIS2_PLACEMENT_3D ( 'NONE', #146, #432, #598 ) ;
#568 = VERTEX_POINT ( 'NONE', #328 ) ;
#569 = CARTESIAN_POINT ( 'NONE',  ( -0.1237499999999999989, 0.1739254589406116214, 0.3396765619912018308 ) ) ;
#570 = APPROVAL_DATE_TIME ( #852, #198 ) ;
#571 = CARTESIAN_POINT ( 'NONE',  ( 0.07875000000000000056, 0.1732499999999999873, -0.9000000000000000222 ) ) ;
#572 = AXIS2_PLACEMENT_3D ( 'NONE', #881, #730, #891 ) ;
#573 = AXIS2_PLACEMENT_3D ( 'NONE', #850, #326, #257 ) ;
#574 = ORIENTED_EDGE ( 'NONE', *, *, #726, .F. ) ;
#575 = CARTESIAN_POINT ( 'NONE',  ( -0.1237499999999999989, 0.1754855637337744134, -0.3346969020562013952 ) ) ;
#576 = ORIENTED_EDGE ( 'NONE', *, *, #964, .T. ) ;
#577 = EDGE_CURVE ( 'NONE', #724, #517, #704, .T. ) ;
#578 = ORIENTED_EDGE ( 'NONE', *, *, #920, .T. ) ;
#579 = CARTESIAN_POINT ( 'NONE',  ( 0.05849999999999998951, 0.2317499999999999560, 0.1664999999999999813 ) ) ;
#580 = CARTESIAN_POINT ( 'NONE',  ( -0.1237499999999999989, 0.1980051396439811151, -0.3145869455364516676 ) ) ;
#581 = CARTESIAN_POINT ( 'NONE',  ( -0.1237499999999999989, 0.1450812624429815567, -0.3139939290814393047 ) ) ;
#582 = EDGE_CURVE ( 'NONE', #932, #906, #337, .T. ) ;
#583 = AXIS2_PLACEMENT_3D ( 'NONE', #87, #596, #211 ) ;
#584 = DIRECTION ( 'NONE',  ( 0.000000000000000000, 0.000000000000000000, -1.000000000000000000 ) ) ;
#585 = CIRCLE ( 'NONE', #363, 0.3374999999999999667 ) ;
#586 = DIRECTION ( 'NONE',  ( 0.000000000000000000, -1.000000000000000000, 0.000000000000000000 ) ) ;
#587 = ADVANCED_FACE ( 'NONE', ( #239 ), #697, .F. ) ;
#588 = DIRECTION ( 'NONE',  ( 0.000000000000000000, -1.000000000000000000, 0.000000000000000000 ) ) ;
#589 = CARTESIAN_POINT ( 'NONE',  ( 0.1237499999999999989, 0.1732499999999999873, 0.9000000000000000222 ) ) ;
#590 = ORIENTED_EDGE ( 'NONE', *, *, #647, .F. ) ;
#591 = CYLINDRICAL_SURFACE ( 'NONE', #401, 0.04500000000000001221 ) ;
#592 = PLANE ( 'NONE',  #953 ) ;
#593 = ORIENTED_EDGE ( 'NONE', *, *, #577, .T. ) ;
#594 = B_SPLINE_CURVE_WITH_KNOTS ( 'NONE', 3,
 ( #679, #688, #159, #622, #929, #372, #616, #233, #935, #854, #315, #19, #455, #765, #776, #85 ),
 .UNSPECIFIED., .F., .F.,
 ( 4, 3, 3, 3, 3, 4 ),
 ( 2.710505431213767705E-20, 9.993787328944660819E-06, 1.997218516609881121E-05, 3.018469885463080269E-05, 4.107025054795323892E-05, 5.177363696092107415E-05 ),
 .UNSPECIFIED. ) ;
#595 = CIRCLE ( 'NONE', #302, 0.04500000000000001221 ) ;
#596 = DIRECTION ( 'NONE',  ( 0.000000000000000000, -1.000000000000000000, 0.000000000000000000 ) ) ;
#597 = CARTESIAN_POINT ( 'NONE',  ( -0.1404459847961831431, 0.1698224373697503620, 0.3069155787645461708 ) ) ;
#598 = DIRECTION ( 'NONE',  ( 0.000000000000000000, -1.000000000000000000, 0.000000000000000000 ) ) ;
#599 = EDGE_LOOP ( 'NONE', ( #708, #383, #299, #93 ) ) ;
#600 = PRODUCT_RELATED_PRODUCT_CATEGORY ( 'detail', '', ( #147 ) ) ;
#601 = ORIENTED_EDGE ( 'NONE', *, *, #402, .F. ) ;
#602 = CARTESIAN_POINT ( 'NONE',  ( -0.1339819861943324919, 0.1649862128747766332, 0.3097661656401836661 ) ) ;
#603 = ADVANCED_FACE ( 'NONE', ( #459 ), #928, .F. ) ;
#604 = LINE ( 'NONE', #674, #58 ) ;
#605 = EDGE_CURVE ( 'NONE', #945, #439, #381, .T. ) ;
#606 = ORIENTED_EDGE ( 'NONE', *, *, #402, .T. ) ;
#607 = CARTESIAN_POINT ( 'NONE',  ( 0.1237499999999999989, 0.1732499999999999873, 0.9000000000000000222 ) ) ;
#608 = CARTESIAN_POINT ( 'NONE',  ( -0.1288797194738164897, 0.1593979543315461322, 0.3119290681472225990 ) ) ;
#609 = CARTESIAN_POINT ( 'NONE',  ( -0.1237499999999999989, 0.1732499999999999873, 0.8549999999999999822 ) ) ;
#610 = EDGE_LOOP ( 'NONE', ( #390, #487, #289, #637 ) ) ;
#611 = CARTESIAN_POINT ( 'NONE',  ( 0.1237499999999999989, 0.1417500000000000149, 0.3139939290814397488 ) ) ;
#612 = VECTOR ( 'NONE', #228, 1000.000000000000000 ) ;
#613 = ORIENTED_EDGE ( 'NONE', *, *, #977, .F. ) ;
#614 = SECURITY_CLASSIFICATION ( '', '', #633 ) ;
#615 = CARTESIAN_POINT ( 'NONE',  ( 0.000000000000000000, 0.2047499999999999876, -0.3689999999999999947 ) ) ;
#616 = CARTESIAN_POINT ( 'NONE',  ( 0.1298132584647908871, 0.1603301555448539417, 0.3115361422479795972 ) ) ;
#617 = DIRECTION ( 'NONE',  ( 0.000000000000000000, 1.000000000000000000, 0.000000000000000000 ) ) ;
#618 = VERTEX_POINT ( 'NONE', #84 ) ;
#619 = DIRECTION ( 'NONE',  ( 0.000000000000000000, 0.000000000000000000, 1.000000000000000000 ) ) ;
#620 = EDGE_CURVE ( 'NONE', #517, #34, #775, .T. ) ;
#621 = ORIENTED_EDGE ( 'NONE', *, *, #505, .T. ) ;
#622 = CARTESIAN_POINT ( 'NONE',  ( 0.1253290909467457415, 0.1515983095720477847, 0.3133669876717429803 ) ) ;
#623 = EDGE_LOOP ( 'NONE', ( #21, #281 ) ) ;
#624 = CARTESIAN_POINT ( 'NONE',  ( 0.1237499999999999989, 0.1963658328662189478, -0.3149870669461115047 ) ) ;
#625 = AXIS2_PLACEMENT_3D ( 'NONE', #176, #474, #760 ) ;
#626 = APPROVAL_ROLE ( '' ) ;
#627 = DIRECTION ( 'NONE',  ( 0.000000000000000000, 0.000000000000000000, -1.000000000000000000 ) ) ;
#628 = VECTOR ( 'NONE', #617, 1000.000000000000000 ) ;
#629 = DIRECTION ( 'NONE',  ( 0.000000000000000000, -1.000000000000000000, 0.000000000000000000 ) ) ;
#630 = ORIENTED_EDGE ( 'NONE', *, *, #816, .F. ) ;
#631 = FACE_OUTER_BOUND ( 'NONE', #779, .T. ) ;
#632 = CARTESIAN_POINT ( 'NONE',  ( 0.05849999999999998951, 0.2317499999999999560, 0.1664999999999999813 ) ) ;
#633 = SECURITY_CLASSIFICATION_LEVEL ( 'unclassified' ) ;
#634 = VECTOR ( 'NONE', #764, 1000.000000000000000 ) ;
#635 = LINE ( 'NONE', #538, #694 ) ;
#636 = EDGE_CURVE ( 'NONE', #789, #906, #754, .T. ) ;
#637 = ORIENTED_EDGE ( 'NONE', *, *, #183, .F. ) ;
#638 = CARTESIAN_POINT ( 'NONE',  ( -0.1237499999999999989, 0.1732499999999999873, -0.8549999999999999822 ) ) ;
#639 = FACE_OUTER_BOUND ( 'NONE', #808, .T. ) ;
#640 = APPLICATION_PROTOCOL_DEFINITION ( 'international standard', 'config_control_design', 1994, #71 ) ;
#641 = CARTESIAN_POINT ( 'NONE',  ( 0.1237499999999999989, 0.1770363455581800416, 0.3312613519923835459 ) ) ;
#642 = ORIENTED_EDGE ( 'NONE', *, *, #510, .T. ) ;
#643 = DIRECTION ( 'NONE',  ( 0.000000000000000000, 0.000000000000000000, -1.000000000000000000 ) ) ;
#644 = AXIS2_PLACEMENT_3D ( 'NONE', #466, #711, #36 ) ;
#645 = ORIENTED_EDGE ( 'NONE', *, *, #343, .T. ) ;
#646 = PERSON_AND_ORGANIZATION_ROLE ( 'creator' ) ;
#647 = EDGE_CURVE ( 'NONE', #978, #467, #790, .T. ) ;
#648 = DIRECTION ( 'NONE',  ( 0.000000000000000000, 1.000000000000000000, 0.000000000000000000 ) ) ;
#649 = FACE_OUTER_BOUND ( 'NONE', #848, .T. ) ;
#650 = CARTESIAN_POINT ( 'NONE',  ( -0.1237499999999999989, 0.1860729024920781960, -0.3205783934075879804 ) ) ;
#651 = CARTESIAN_POINT ( 'NONE',  ( 0.07875000000000000056, 0.1732499999999999873, -0.9000000000000000222 ) ) ;
#652 = VECTOR ( 'NONE', #768, 1000.000000000000000 ) ;
#653 = LINE ( 'NONE', #199, #431 ) ;
#654 = CARTESIAN_POINT ( 'NONE',  ( -0.07875000000000000056, 0.1732499999999999873, -0.9000000000000000222 ) ) ;
#655 = APPROVAL ( #104, '未' ) ;
#656 = CARTESIAN_POINT ( 'NONE',  ( 0.000000000000000000, 0.2317499999999999560, 0.000000000000000000 ) ) ;
#657 = VECTOR ( 'NONE', #209, 1000.000000000000000 ) ;
#658 = B_SPLINE_CURVE_WITH_KNOTS ( 'NONE', 3,
 ( #563, #880, #580, #722, #413, #267, #650, #728, #49, #958, #263, #575, #195, #492, #802, #124 ),
 .UNSPECIFIED., .F., .F.,
 ( 4, 3, 3, 3, 3, 4 ),
 ( 2.710505431213756872E-20, 1.004811269102248784E-05, 2.007590411140740730E-05, 3.041275229009335823E-05, 4.143494162893306029E-05, 5.086900642683823200E-05 ),
 .UNSPECIFIED. ) ;
#659 = CYLINDRICAL_SURFACE ( 'NONE', #322, 0.04500000000000001221 ) ;
#660 = AXIS2_PLACEMENT_3D ( 'NONE', #125, #960, #969 ) ;
#661 = APPROVAL_PERSON_ORGANIZATION ( #793, #655, #626 ) ;
#662 = EDGE_CURVE ( 'NONE', #555, #845, #782, .T. ) ;
#663 = CARTESIAN_POINT ( 'NONE',  ( -0.1271527816519829601, 0.1559906573269584373, 0.3126314445447915813 ) ) ;
#664 = CARTESIAN_POINT ( 'NONE',  ( -0.05849999999999998951, 0.1732499999999999873, -0.1664999999999999813 ) ) ;
#665 = B_SPLINE_CURVE_WITH_KNOTS ( 'NONE', 3,
 ( #528, #834, #80, #152, #371, #687, #867, #98, #313, #464, #641, #39, #400, #255, #560, #162 ),
 .UNSPECIFIED., .F., .F.,
 ( 4, 3, 3, 3, 3, 4 ),
 ( 2.710505431213756872E-20, 1.004811269102248784E-05, 2.007590411140740730E-05, 3.041275229009335823E-05, 4.143494162893306029E-05, 5.086900642683823200E-05 ),
 .UNSPECIFIED. ) ;
#666 = CLOSED_SHELL ( 'NONE', ( #511, #494, #866, #232, #303, #341, #501, #603, #434, #45, #707, #133, #418, #826, #896, #914, #807, #965, #275, #456, #587, #197, #812, #269, #254 ) ) ;
#667 = ADVANCED_BREP_SHAPE_REPRESENTATION ( '008126', ( #411, #806 ), #940 ) ;
#668 = CYLINDRICAL_SURFACE ( 'NONE', #53, 0.04500000000000001221 ) ;
#669 = VECTOR ( 'NONE', #433, 1000.000000000000000 ) ;
#670 = FACE_OUTER_BOUND ( 'NONE', #480, .T. ) ;
#671 = ORIENTED_EDGE ( 'NONE', *, *, #543, .T. ) ;
#672 = LINE ( 'NONE', #160, #443 ) ;
#673 = DIRECTION ( 'NONE',  ( 0.000000000000000000, 0.000000000000000000, 1.000000000000000000 ) ) ;
#674 = CARTESIAN_POINT ( 'NONE',  ( -0.05849999999999998951, -0.2317499999999999560, 0.1664999999999999813 ) ) ;
#675 = EDGE_CURVE ( 'NONE', #120, #906, #105, .T. ) ;
#676 = VECTOR ( 'NONE', #627, 1000.000000000000000 ) ;
#677 = ORIENTED_EDGE ( 'NONE', *, *, #582, .F. ) ;
#678 = ORIENTED_EDGE ( 'NONE', *, *, #81, .T. ) ;
#679 = CARTESIAN_POINT ( 'NONE',  ( 0.1237499999999999989, 0.1417500000000000149, 0.3139939290814395823 ) ) ;
#680 = LINE ( 'NONE', #274, #513 ) ;
#681 = LINE ( 'NONE', #913, #876 ) ;
#682 = ORIENTED_EDGE ( 'NONE', *, *, #111, .T. ) ;
#683 = VERTEX_POINT ( 'NONE', #709 ) ;
#684 = EDGE_CURVE ( 'NONE', #932, #250, #635, .T. ) ;
#685 = EDGE_LOOP ( 'NONE', ( #113, #521, #262, #367 ) ) ;
#686 = CARTESIAN_POINT ( 'NONE',  ( -0.1520738531683169248, 0.1732499999999999873, -0.3013180854213595716 ) ) ;
#687 = CARTESIAN_POINT ( 'NONE',  ( 0.1237499999999999989, 0.1886990440241334832, 0.3185056578284723994 ) ) ;
#688 = CARTESIAN_POINT ( 'NONE',  ( 0.1237499999999999989, 0.1450812624429815567, 0.3139939290814393047 ) ) ;
#689 = CARTESIAN_POINT ( 'NONE',  ( 4.133182947122316550E-17, 0.2317499999999999560, 0.3374999999999999667 ) ) ;
#690 = VERTEX_POINT ( 'NONE', #33 ) ;
#691 = DIRECTION ( 'NONE',  ( -0.000000000000000000, 1.000000000000000000, 0.000000000000000000 ) ) ;
#692 = DIRECTION ( 'NONE',  ( 0.000000000000000000, 1.000000000000000000, 0.000000000000000000 ) ) ;
#693 = PLANE ( 'NONE',  #710 ) ;
#694 = VECTOR ( 'NONE', #22, 1000.000000000000000 ) ;
#695 = DIRECTION ( 'NONE',  ( 0.000000000000000000, -1.000000000000000000, 0.000000000000000000 ) ) ;
#696 = AXIS2_PLACEMENT_3D ( 'NONE', #30, #939, #94 ) ;
#697 = CYLINDRICAL_SURFACE ( 'NONE', #446, 0.03150000000000000716 ) ;
#698 = ORIENTED_EDGE ( 'NONE', *, *, #309, .T. ) ;
#699 = CARTESIAN_POINT ( 'NONE',  ( 0.1237499999999999989, 0.1732500000000000151, -0.3436808049214692407 ) ) ;
#700 = ORIENTED_EDGE ( 'NONE', *, *, #937, .F. ) ;
#701 = VECTOR ( 'NONE', #138, 1000.000000000000000 ) ;
#702 = CALENDAR_DATE ( 2026, 29, 6 ) ;
#703 = EDGE_CURVE ( 'NONE', #184, #910, #321, .T. ) ;
#704 = LINE ( 'NONE', #17, #634 ) ;
#705 = ORIENTED_EDGE ( 'NONE', *, *, #486, .F. ) ;
#706 = CARTESIAN_POINT ( 'NONE',  ( 0.1237499999999999989, 0.2047499999999999876, -0.3139939290814395823 ) ) ;
#707 = ADVANCED_FACE ( 'NONE', ( #944 ), #251, .T. ) ;
#708 = ORIENTED_EDGE ( 'NONE', *, *, #309, .F. ) ;
#709 = CARTESIAN_POINT ( 'NONE',  ( -0.1237499999999999989, 0.1732499999999999873, 0.3476304611221519014 ) ) ;
#710 = AXIS2_PLACEMENT_3D ( 'NONE', #607, #221, #529 ) ;
#711 = DIRECTION ( 'NONE',  ( 0.000000000000000000, 0.000000000000000000, -1.000000000000000000 ) ) ;
#712 = CARTESIAN_POINT ( 'NONE',  ( -0.1237499999999999989, 0.1765303245971152346, 0.3322158882121635237 ) ) ;
#713 =( NAMED_UNIT ( * ) PLANE_ANGLE_UNIT ( ) SI_UNIT ( $, .RADIAN. ) );
#714 = DATE_AND_TIME ( #702, #365 ) ;
#715 = VECTOR ( 'NONE', #205, 1000.000000000000000 ) ;
#716 = EDGE_CURVE ( 'NONE', #217, #477, #551, .T. ) ;
#717 = CARTESIAN_POINT ( 'NONE',  ( 0.000000000000000000, 0.2317499999999999560, -0.3374999999999999667 ) ) ;
#718 = APPROVAL_PERSON_ORGANIZATION ( #469, #247, #97 ) ;
#719 = EDGE_CURVE ( 'NONE', #120, #273, #959, .T. ) ;
#720 = ORIENTED_EDGE ( 'NONE', *, *, #427, .F. ) ;
#721 = CARTESIAN_POINT ( 'NONE',  ( 0.000000000000000000, 0.1732499999999999873, 0.000000000000000000 ) ) ;
#722 = CARTESIAN_POINT ( 'NONE',  ( -0.1237499999999999989, 0.1948493681306726621, -0.3157091716997145192 ) ) ;
#723 = CARTESIAN_POINT ( 'NONE',  ( 0.1237499999999999989, 0.1732499999999999873, 0.8549999999999999822 ) ) ;
#724 = VERTEX_POINT ( 'NONE', #955 ) ;
#725 = CARTESIAN_POINT ( 'NONE',  ( 0.1552499999999999991, 0.1732499999999999873, -0.3139939290814397488 ) ) ;
#726 = EDGE_CURVE ( 'NONE', #273, #120, #740, .T. ) ;
#727 = AXIS2_PLACEMENT_3D ( 'NONE', #721, #41, #643 ) ;
#728 = CARTESIAN_POINT ( 'NONE',  ( -0.1237499999999999989, 0.1833649407299910439, -0.3227157072662091841 ) ) ;
#729 = ORIENTED_EDGE ( 'NONE', *, *, #427, .T. ) ;
#730 = DIRECTION ( 'NONE',  ( 0.000000000000000000, -1.000000000000000000, 0.000000000000000000 ) ) ;
#731 = CARTESIAN_POINT ( 'NONE',  ( -0.05849999999999998951, -0.2317499999999999560, 0.1664999999999999813 ) ) ;
#732 = CARTESIAN_POINT ( 'NONE',  ( -0.1237499999999999989, 0.1417500000000000149, 0.3139939290814395823 ) ) ;
#733 = EDGE_CURVE ( 'NONE', #156, #690, #877, .T. ) ;
#734 = DIRECTION ( 'NONE',  ( 0.000000000000000000, 0.000000000000000000, -1.000000000000000000 ) ) ;
#735 = VECTOR ( 'NONE', #629, 1000.000000000000000 ) ;
#736 = EDGE_CURVE ( 'NONE', #784, #568, #423, .T. ) ;
#737 = CARTESIAN_POINT ( 'NONE',  ( 0.000000000000000000, 0.1732499999999999873, -0.3689999999999999947 ) ) ;
#738 = ORIENTED_EDGE ( 'NONE', *, *, #470, .T. ) ;
#739 = CARTESIAN_POINT ( 'NONE',  ( -0.1312524975987290621, 0.1624879227512289748, 0.3109467410028219359 ) ) ;
#740 = CIRCLE ( 'NONE', #18, 0.3374999999999999667 ) ;
#741 = CC_DESIGN_APPROVAL ( #198, ( #614 ) ) ;
#742 = CARTESIAN_POINT ( 'NONE',  ( 0.07875000000000000056, 0.1732499999999999873, -0.8549999999999999822 ) ) ;
#743 = CARTESIAN_POINT ( 'NONE',  ( 0.000000000000000000, 0.2317499999999999560, 0.000000000000000000 ) ) ;
#744 = CARTESIAN_POINT ( 'NONE',  ( -0.05849999999999998951, -0.2317499999999999560, -0.1664999999999999813 ) ) ;
#745 = CARTESIAN_POINT ( 'NONE',  ( -0.1367394430614481682, 0.1672374338022608597, -0.3085588674973464007 ) ) ;
#746 = CARTESIAN_POINT ( 'NONE',  ( 0.1237499999999999989, 0.1732499999999999873, 0.9000000000000000222 ) ) ;
#747 = AXIS2_PLACEMENT_3D ( 'NONE', #223, #905, #158 ) ;
#748 = APPLICATION_CONTEXT ( 'configuration controlled 3d designs of mechanical parts and assemblies' ) ;
#749 = ORIENTED_EDGE ( 'NONE', *, *, #7, .F. ) ;
#750 = DIRECTION ( 'NONE',  ( -0.000000000000000000, 1.000000000000000000, 0.000000000000000000 ) ) ;
#751 = CARTESIAN_POINT ( 'NONE',  ( 0.1339819861943324919, 0.1649862128747766332, -0.3097661656401836661 ) ) ;
#752 = CARTESIAN_POINT ( 'NONE',  ( 0.05849999999999998951, -0.2317499999999999560, 0.1664999999999999813 ) ) ;
#753 = EDGE_CURVE ( 'NONE', #5, #394, #344, .T. ) ;
#754 = CIRCLE ( 'NONE', #136, 0.03150000000000000716 ) ;
#755 = ORIENTED_EDGE ( 'NONE', *, *, #119, .F. ) ;
#756 = PRODUCT_DEFINITION_FORMATION_WITH_SPECIFIED_SOURCE ( '�', '', #147, .NOT_KNOWN. ) ;
#757 = FACE_OUTER_BOUND ( 'NONE', #189, .T. ) ;
#758 = ORIENTED_EDGE ( 'NONE', *, *, #684, .F. ) ;
#759 = DIRECTION ( 'NONE',  ( 1.000000000000000000, 0.000000000000000000, 0.000000000000000000 ) ) ;
#760 = DIRECTION ( 'NONE',  ( 0.000000000000000000, -1.000000000000000000, 0.000000000000000000 ) ) ;
#761 = CARTESIAN_POINT ( 'NONE',  ( 0.07875000000000000056, -0.2317499999999999560, 0.8549999999999999822 ) ) ;
#762 = ORIENTED_EDGE ( 'NONE', *, *, #59, .T. ) ;
#763 = PLANE ( 'NONE',  #224 ) ;
#764 = DIRECTION ( 'NONE',  ( 0.000000000000000000, 0.000000000000000000, 1.000000000000000000 ) ) ;
#765 = CARTESIAN_POINT ( 'NONE',  ( 0.1488378962451841758, 0.1727616857816467733, 0.3029279781903509994 ) ) ;
#766 = DIRECTION ( 'NONE',  ( 1.000000000000000000, 0.000000000000000000, 0.000000000000000000 ) ) ;
#767 = ORIENTED_EDGE ( 'NONE', *, *, #719, .F. ) ;
#768 = DIRECTION ( 'NONE',  ( 1.000000000000000000, 0.000000000000000000, 0.000000000000000000 ) ) ;
#769 = ORIENTED_EDGE ( 'NONE', *, *, #636, .F. ) ;
#770 = CARTESIAN_POINT ( 'NONE',  ( 0.07875000000000000056, 0.1732499999999999873, 0.9000000000000000222 ) ) ;
#771 = TOROIDAL_SURFACE ( 'NONE', #345, 0.3689999999999999947, 0.03150000000000000022 ) ;
#772 = ORIENTED_EDGE ( 'NONE', *, *, #470, .F. ) ;
#773 = DATE_TIME_ROLE ( 'creation_date' ) ;
#774 = VECTOR ( 'NONE', #319, 1000.000000000000000 ) ;
#775 = LINE ( 'NONE', #566, #652 ) ;
#776 = CARTESIAN_POINT ( 'NONE',  ( 0.1520738531683169248, 0.1732499999999999873, 0.3013180854213595716 ) ) ;
#777 = ORIENTED_EDGE ( 'NONE', *, *, #716, .F. ) ;
#778 = CARTESIAN_POINT ( 'NONE',  ( 0.000000000000000000, 0.2317499999999999560, -0.3374999999999999667 ) ) ;
#779 = EDGE_LOOP ( 'NONE', ( #40, #507, #593, #621 ) ) ;
#780 = DIRECTION ( 'NONE',  ( 0.000000000000000000, 1.000000000000000000, 0.000000000000000000 ) ) ;
#781 = APPROVAL_DATE_TIME ( #714, #247 ) ;
#782 = LINE ( 'NONE', #872, #612 ) ;
#783 = EDGE_CURVE ( 'NONE', #462, #236, #54, .T. ) ;
#784 = VERTEX_POINT ( 'NONE', #571 ) ;
#785 = CARTESIAN_POINT ( 'NONE',  ( 0.1237499999999999989, 0.1928719922799413677, -0.3162626079544391677 ) ) ;
#786 = CARTESIAN_POINT ( 'NONE',  ( -0.1237499999999999989, 0.1732499999999999873, 0.3476304611221519014 ) ) ;
#787 = CARTESIAN_POINT ( 'NONE',  ( -0.1552499999999999991, 0.1732499999999999873, -0.2996726338857119698 ) ) ;
#788 = PERSON_AND_ORGANIZATION_ROLE ( 'classification_officer' ) ;
#789 = VERTEX_POINT ( 'NONE', #737 ) ;
#790 = LINE ( 'NONE', #933, #428 ) ;
#791 = ORIENTED_EDGE ( 'NONE', *, *, #783, .T. ) ;
#792 = PLANE ( 'NONE',  #554 ) ;
#793 = PERSON_AND_ORGANIZATION ( #849, #154 ) ;
#794 = VECTOR ( 'NONE', #919, 1000.000000000000000 ) ;
#795 = DIRECTION ( 'NONE',  ( 0.000000000000000000, 0.000000000000000000, -1.000000000000000000 ) ) ;
#796 = AXIS2_PLACEMENT_3D ( 'NONE', #391, #931, #951 ) ;
#797 = VERTEX_POINT ( 'NONE', #723 ) ;
#798 = CARTESIAN_POINT ( 'NONE',  ( 0.1552499999999999991, 0.1732499999999999873, 0.2996726338857119698 ) ) ;
#799 = CARTESIAN_POINT ( 'NONE',  ( -0.1237499999999999989, 0.1999191617924076514, 0.3143944232165410968 ) ) ;
#800 = CARTESIAN_POINT ( 'NONE',  ( 0.1237499999999999989, 0.1732499999999999873, -0.3476304611221519014 ) ) ;
#801 = TOROIDAL_SURFACE ( 'NONE', #352, 0.3689999999999999947, 0.03150000000000000022 ) ;
#802 = CARTESIAN_POINT ( 'NONE',  ( -0.1237499999999999989, 0.1732500000000000151, -0.3444727631374057131 ) ) ;
#803 = FACE_OUTER_BOUND ( 'NONE', #974, .T. ) ;
#804 = DIRECTION ( 'NONE',  ( 0.000000000000000000, 0.000000000000000000, -1.000000000000000000 ) ) ;
#805 = DIRECTION ( 'NONE',  ( 0.000000000000000000, 1.000000000000000000, 0.000000000000000000 ) ) ;
#806 = AXIS2_PLACEMENT_3D ( 'NONE', #912, #526, #840 ) ;
#807 = ADVANCED_FACE ( 'NONE', ( #265 ), #659, .T. ) ;
#808 = EDGE_LOOP ( 'NONE', ( #429, #870, #369, #858 ) ) ;
#809 = DIRECTION ( 'NONE',  ( 0.000000000000000000, 0.000000000000000000, 1.000000000000000000 ) ) ;
#810 = AXIS2_PLACEMENT_3D ( 'NONE', #761, #298, #375 ) ;
#811 = CC_DESIGN_DATE_AND_TIME_ASSIGNMENT ( #332, #773, ( #545 ) ) ;
#812 = ADVANCED_FACE ( 'NONE', ( #803 ), #261, .F. ) ;
#813 = EDGE_CURVE ( 'NONE', #978, #467, #585, .T. ) ;
#814 = UNCERTAINTY_MEASURE_WITH_UNIT (LENGTH_MEASURE( 1.000000000000000082E-05 ), #103, 'distance_accuracy_value', 'NONE');
#815 = CARTESIAN_POINT ( 'NONE',  ( -0.1440629445610755732, 0.1711965582132518870, 0.3052083190288108483 ) ) ;
#816 = EDGE_CURVE ( 'NONE', #204, #971, #498, .T. ) ;
#817 = EDGE_LOOP ( 'NONE', ( #777, #916 ) ) ;
#818 = CARTESIAN_POINT ( 'NONE',  ( 0.1404459847961831431, 0.1698224373697503620, -0.3069155787645461708 ) ) ;
#819 = DIRECTION ( 'NONE',  ( 0.000000000000000000, 0.000000000000000000, -1.000000000000000000 ) ) ;
#820 = AXIS2_PLACEMENT_3D ( 'NONE', #336, #196, #795 ) ;
#821 = CYLINDRICAL_SURFACE ( 'NONE', #506, 0.3374999999999999667 ) ;
#822 = LINE ( 'NONE', #504, #271 ) ;
#823 = CARTESIAN_POINT ( 'NONE',  ( 0.000000000000000000, 0.2317499999999999560, 0.000000000000000000 ) ) ;
#824 = ORIENTED_EDGE ( 'NONE', *, *, #340, .F. ) ;
#825 = DIRECTION ( 'NONE',  ( 0.000000000000000000, -1.000000000000000000, 0.000000000000000000 ) ) ;
#826 = ADVANCED_FACE ( 'NONE', ( #493 ), #491, .T. ) ;
#827 = VERTEX_POINT ( 'NONE', #800 ) ;
#828 = CARTESIAN_POINT ( 'NONE',  ( 0.000000000000000000, 0.2047499999999999876, -0.3374999999999999667 ) ) ;
#829 = CARTESIAN_POINT ( 'NONE',  ( -0.1237499999999999989, 0.2047499999999999876, 0.3139939290814395823 ) ) ;
#830 = VERTEX_POINT ( 'NONE', #123 ) ;
#831 = CARTESIAN_POINT ( 'NONE',  ( 0.05849999999999998951, 0.2317499999999999560, -0.1664999999999999813 ) ) ;
#832 = ORIENTED_EDGE ( 'NONE', *, *, #816, .T. ) ;
#833 = CARTESIAN_POINT ( 'NONE',  ( -0.1488378962451841758, 0.1727616857816467733, -0.3029279781903509994 ) ) ;
#834 = CARTESIAN_POINT ( 'NONE',  ( 0.1237499999999999989, 0.2014006291029924733, 0.3139939290814393602 ) ) ;
#835 = VECTOR ( 'NONE', #809, 1000.000000000000000 ) ;
#836 = LOCAL_TIME ( 14, 29, 39.00000000000000000, #463 ) ;
#837 = EDGE_CURVE ( 'NONE', #34, #555, #272, .T. ) ;
#838 = CARTESIAN_POINT ( 'NONE',  ( 0.000000000000000000, 0.2047499999999999876, 0.000000000000000000 ) ) ;
#839 = EDGE_LOOP ( 'NONE', ( #832, #682, #576, #738, #398, #482, #385 ) ) ;
#840 = DIRECTION ( 'NONE',  ( 1.000000000000000000, 0.000000000000000000, 0.000000000000000000 ) ) ;
#841 = EDGE_CURVE ( 'NONE', #184, #5, #242, .T. ) ;
#842 = DIRECTION ( 'NONE',  ( 1.000000000000000000, 0.000000000000000000, 0.000000000000000000 ) ) ;
#843 = CC_DESIGN_PERSON_AND_ORGANIZATION_ASSIGNMENT ( #859, #788, ( #614 ) ) ;
#844 = DIRECTION ( 'NONE',  ( 0.000000000000000000, 0.000000000000000000, -1.000000000000000000 ) ) ;
#845 = VERTEX_POINT ( 'NONE', #128 ) ;
#846 =( NAMED_UNIT ( * ) SI_UNIT ( $, .STERADIAN. ) SOLID_ANGLE_UNIT ( ) );
#847 = DIRECTION ( 'NONE',  ( 0.000000000000000000, 1.000000000000000000, 0.000000000000000000 ) ) ;
#848 = EDGE_LOOP ( 'NONE', ( #938, #700, #897, #590 ) ) ;
#849 = PERSON ( '未', '未', '未', ('未'), ('未'), ('未') ) ;
#850 = CARTESIAN_POINT ( 'NONE',  ( -0.07875000000000000056, -0.2317499999999999560, 0.8549999999999999822 ) ) ;
#851 = ORIENTED_EDGE ( 'NONE', *, *, #218, .T. ) ;
#852 = DATE_AND_TIME ( #173, #323 ) ;
#853 = DIRECTION ( 'NONE',  ( 0.000000000000000000, 0.000000000000000000, 1.000000000000000000 ) ) ;
#854 = CARTESIAN_POINT ( 'NONE',  ( 0.1367394430614481682, 0.1672374338022608597, 0.3085588674973464007 ) ) ;
#855 = ORIENTED_EDGE ( 'NONE', *, *, #966, .F. ) ;
#856 = CYLINDRICAL_SURFACE ( 'NONE', #644, 0.03150000000000000716 ) ;
#857 = VECTOR ( 'NONE', #805, 1000.000000000000000 ) ;
#858 = ORIENTED_EDGE ( 'NONE', *, *, #662, .T. ) ;
#859 = PERSON_AND_ORGANIZATION ( #849, #154 ) ;
#860 = CIRCLE ( 'NONE', #534, 0.3689999999999999947 ) ;
#861 = CARTESIAN_POINT ( 'NONE',  ( 0.05849999999999998951, 0.2317499999999999560, -0.1664999999999999813 ) ) ;
#862 = ORIENTED_EDGE ( 'NONE', *, *, #675, .F. ) ;
#863 = CARTESIAN_POINT ( 'NONE',  ( 0.1237499999999999989, 0.1752273927630147998, -0.3359476543192859155 ) ) ;
#864 = CARTESIAN_POINT ( 'NONE',  ( -0.1237499999999999989, 0.2047499999999999876, 0.3139939290814395823 ) ) ;
#865 = CARTESIAN_POINT ( 'NONE',  ( 0.1237499999999999989, 0.1417500000000000149, -0.3139939290814395823 ) ) ;
#866 = ADVANCED_FACE ( 'NONE', ( #51 ), #483, .F. ) ;
#867 = CARTESIAN_POINT ( 'NONE',  ( 0.1237499999999999989, 0.1860729024920781960, 0.3205783934075879804 ) ) ;
#868 = VERTEX_POINT ( 'NONE', #732 ) ;
#869 = CARTESIAN_POINT ( 'NONE',  ( 4.133182947122316550E-17, 0.2047499999999999876, 0.3374999999999999667 ) ) ;
#870 = ORIENTED_EDGE ( 'NONE', *, *, #968, .F. ) ;
#871 = CALENDAR_DATE ( 2026, 29, 6 ) ;
#872 = CARTESIAN_POINT ( 'NONE',  ( 0.05849999999999998951, 0.1732499999999999873, -0.1664999999999999813 ) ) ;
#873 = ORIENTED_EDGE ( 'NONE', *, *, #605, .T. ) ;
#874 = PLANE ( 'NONE',  #696 ) ;
#875 = CARTESIAN_POINT ( 'NONE',  ( -0.1237499999999999989, 0.1963658328662189478, 0.3149870669461115047 ) ) ;
#876 = VECTOR ( 'NONE', #349, 1000.000000000000000 ) ;
#877 = LINE ( 'NONE', #967, #485 ) ;
#878 = APPROVAL_PERSON_ORGANIZATION ( #407, #198, #312 ) ;
#879 = CC_DESIGN_PERSON_AND_ORGANIZATION_ASSIGNMENT ( #259, #550, ( #756 ) ) ;
#880 = CARTESIAN_POINT ( 'NONE',  ( -0.1237499999999999989, 0.2014006291029924733, -0.3139939290814393602 ) ) ;
#881 = CARTESIAN_POINT ( 'NONE',  ( -0.07875000000000000056, -0.2317499999999999560, -0.8549999999999999822 ) ) ;
#882 = EDGE_CURVE ( 'NONE', #462, #978, #131, .T. ) ;
#883 = CARTESIAN_POINT ( 'NONE',  ( 0.000000000000000000, 0.1732499999999999873, 0.000000000000000000 ) ) ;
#884 = CARTESIAN_POINT ( 'NONE',  ( -0.1242956369618715001, 0.1484584932953631198, -0.3137803108792125983 ) ) ;
#885 = EDGE_CURVE ( 'NONE', #439, #548, #680, .T. ) ;
#886 = AXIS2_PLACEMENT_3D ( 'NONE', #355, #523, #8 ) ;
#887 = CC_DESIGN_PERSON_AND_ORGANIZATION_ASSIGNMENT ( #414, #646, ( #545 ) ) ;
#888 = ORIENTED_EDGE ( 'NONE', *, *, #733, .F. ) ;
#889 = CARTESIAN_POINT ( 'NONE',  ( 0.000000000000000000, 0.1732499999999999873, 0.000000000000000000 ) ) ;
#890 = AXIS2_PLACEMENT_3D ( 'NONE', #471, #387, #169 ) ;
#891 = DIRECTION ( 'NONE',  ( 0.000000000000000000, 0.000000000000000000, -1.000000000000000000 ) ) ;
#892 = AXIS2_PLACEMENT_3D ( 'NONE', #216, #750, #150 ) ;
#893 = ORIENTED_EDGE ( 'NONE', *, *, #947, .T. ) ;
#894 = CARTESIAN_POINT ( 'NONE',  ( -0.1237499999999999989, 0.1417500000000000149, 0.3139939290814395823 ) ) ;
#895 = PLANE ( 'NONE',  #170 ) ;
#896 = ADVANCED_FACE ( 'NONE', ( #279 ), #668, .T. ) ;
#897 = ORIENTED_EDGE ( 'NONE', *, *, #920, .F. ) ;
#898 = EDGE_CURVE ( 'NONE', #68, #472, #139, .T. ) ;
#899 = CARTESIAN_POINT ( 'NONE',  ( -0.1395059702354068121, 0.1692466576092911956, -0.3073328668056478086 ) ) ;
#900 = FACE_BOUND ( 'NONE', #108, .T. ) ;
#901 = AXIS2_PLACEMENT_3D ( 'NONE', #949, #301, #847 ) ;
#902 = ORIENTED_EDGE ( 'NONE', *, *, #837, .F. ) ;
#903 = DIRECTION ( 'NONE',  ( 0.000000000000000000, -1.000000000000000000, 0.000000000000000000 ) ) ;
#904 = CARTESIAN_POINT ( 'NONE',  ( -0.1244972827045886521, 0.1494305011845689923, 0.3136987894785683850 ) ) ;
#905 = DIRECTION ( 'NONE',  ( 0.000000000000000000, 1.000000000000000000, 0.000000000000000000 ) ) ;
#906 = VERTEX_POINT ( 'NONE', #828 ) ;
#907 = ORIENTED_EDGE ( 'NONE', *, *, #703, .T. ) ;
#908 = EDGE_CURVE ( 'NONE', #683, #452, #822, .T. ) ;
#909 = CARTESIAN_POINT ( 'NONE',  ( 0.000000000000000000, 0.2317499999999999560, 0.000000000000000000 ) ) ;
#910 = VERTEX_POINT ( 'NONE', #346 ) ;
#911 = CARTESIAN_POINT ( 'NONE',  ( -0.1515060806246641689, 0.1732499999999999596, 0.3016122286878271663 ) ) ;
#912 = CARTESIAN_POINT ( 'NONE',  ( 0.000000000000000000, 0.000000000000000000, 0.000000000000000000 ) ) ;
#913 = CARTESIAN_POINT ( 'NONE',  ( -0.05849999999999998951, 0.1732499999999999873, 0.1664999999999999813 ) ) ;
#914 = ADVANCED_FACE ( 'NONE', ( #132 ), #591, .T. ) ;
#915 = FACE_OUTER_BOUND ( 'NONE', #817, .T. ) ;
#916 = ORIENTED_EDGE ( 'NONE', *, *, #183, .T. ) ;
#917 = CARTESIAN_POINT ( 'NONE',  ( 0.000000000000000000, 0.1732499999999999873, 0.000000000000000000 ) ) ;
#918 = EDGE_CURVE ( 'NONE', #618, #164, #981, .T. ) ;
#919 = DIRECTION ( 'NONE',  ( 0.000000000000000000, 1.000000000000000000, 0.000000000000000000 ) ) ;
#920 = EDGE_CURVE ( 'NONE', #467, #868, #484, .T. ) ;
#921 = VECTOR ( 'NONE', #942, 1000.000000000000000 ) ;
#922 = AXIS2_PLACEMENT_3D ( 'NONE', #300, #780, #109 ) ;
#923 = DIRECTION ( 'NONE',  ( 0.000000000000000000, 0.000000000000000000, -1.000000000000000000 ) ) ;
#924 = ORIENTED_EDGE ( 'NONE', *, *, #505, .F. ) ;
#925 = DIRECTION ( 'NONE',  ( 0.000000000000000000, 0.000000000000000000, 1.000000000000000000 ) ) ;
#926 = LINE ( 'NONE', #230, #266 ) ;
#927 = ORIENTED_EDGE ( 'NONE', *, *, #783, .F. ) ;
#928 = PLANE ( 'NONE',  #901 ) ;
#929 = CARTESIAN_POINT ( 'NONE',  ( 0.1263616603797950155, 0.1547354384235946900, 0.3129540182350293298 ) ) ;
#930 = ORIENTED_EDGE ( 'NONE', *, *, #605, .F. ) ;
#931 = DIRECTION ( 'NONE',  ( 0.000000000000000000, -1.000000000000000000, 0.000000000000000000 ) ) ;
#932 = VERTEX_POINT ( 'NONE', #212 ) ;
#933 = CARTESIAN_POINT ( 'NONE',  ( -0.1552499999999999991, 0.1732499999999999873, 0.3139939290814397488 ) ) ;
#934 = ORIENTED_EDGE ( 'NONE', *, *, #736, .T. ) ;
#935 = CARTESIAN_POINT ( 'NONE',  ( 0.1341435605944323872, 0.1653521427767194463, 0.3097092461128492236 ) ) ;
#936 = VECTOR ( 'NONE', #976, 1000.000000000000000 ) ;
#937 = EDGE_CURVE ( 'NONE', #868, #462, #135, .T. ) ;
#938 = ORIENTED_EDGE ( 'NONE', *, *, #882, .F. ) ;
#939 = DIRECTION ( 'NONE',  ( 1.000000000000000000, 0.000000000000000000, 0.000000000000000000 ) ) ;
#940 =( GEOMETRIC_REPRESENTATION_CONTEXT ( 3 ) GLOBAL_UNCERTAINTY_ASSIGNED_CONTEXT ( ( #814 ) ) GLOBAL_UNIT_ASSIGNED_CONTEXT ( ( #103, #713, #846 ) ) REPRESENTATION_CONTEXT ( 'NONE', 'WORKASPACE' ) );
#941 = CARTESIAN_POINT ( 'NONE',  ( -0.1237499999999999989, 0.1834251695808209182, 0.3226035107518553935 ) ) ;
#942 = DIRECTION ( 'NONE',  ( 0.000000000000000000, -1.000000000000000000, 0.000000000000000000 ) ) ;
#943 = PERSON_AND_ORGANIZATION ( #849, #154 ) ;
#944 = FACE_OUTER_BOUND ( 'NONE', #546, .T. ) ;
#945 = VERTEX_POINT ( 'NONE', #10 ) ;
#946 = CARTESIAN_POINT ( 'NONE',  ( -0.1237499999999999989, -0.2317499999999999560, -0.8549999999999999822 ) ) ;
#947 = EDGE_CURVE ( 'NONE', #477, #250, #324, .T. ) ;
#948 = DIRECTION ( 'NONE',  ( -1.000000000000000000, 0.000000000000000000, 0.000000000000000000 ) ) ;
#949 = CARTESIAN_POINT ( 'NONE',  ( -0.1237499999999999989, 0.1732499999999999873, 0.9000000000000000222 ) ) ;
#950 = ORIENTED_EDGE ( 'NONE', *, *, #977, .T. ) ;
#951 = DIRECTION ( 'NONE',  ( 0.000000000000000000, 0.000000000000000000, -1.000000000000000000 ) ) ;
#952 = CARTESIAN_POINT ( 'NONE',  ( -0.07875000000000000056, -0.2317499999999999560, -0.9000000000000000222 ) ) ;
#953 = AXIS2_PLACEMENT_3D ( 'NONE', #743, #449, #207 ) ;
#954 = CALENDAR_DATE ( 2026, 29, 6 ) ;
#955 = CARTESIAN_POINT ( 'NONE',  ( -0.05849999999999998951, 0.2317499999999999560, -0.1664999999999999813 ) ) ;
#956 = CC_DESIGN_PERSON_AND_ORGANIZATION_ASSIGNMENT ( #50, #386, ( #756 ) ) ;
#957 = ORIENTED_EDGE ( 'NONE', *, *, #675, .T. ) ;
#958 = CARTESIAN_POINT ( 'NONE',  ( -0.1237499999999999989, 0.1790714861367177224, -0.3282001173553255047 ) ) ;
#959 = CIRCLE ( 'NONE', #75, 0.3374999999999999667 ) ;
#960 = DIRECTION ( 'NONE',  ( 0.000000000000000000, -1.000000000000000000, 0.000000000000000000 ) ) ;
#961 = VECTOR ( 'NONE', #547, 1000.000000000000000 ) ;
#962 = CARTESIAN_POINT ( 'NONE',  ( -0.1237499999999999989, 0.1732499999999999873, -0.9000000000000000222 ) ) ;
#963 = CARTESIAN_POINT ( 'NONE',  ( 0.07875000000000000056, 0.1732499999999999873, 0.8549999999999999822 ) ) ;
#964 = EDGE_CURVE ( 'NONE', #789, #827, #530, .T. ) ;
#965 = ADVANCED_FACE ( 'NONE', ( #237 ), #763, .F. ) ;
#966 = EDGE_CURVE ( 'NONE', #204, #184, #16, .T. ) ;
#967 = CARTESIAN_POINT ( 'NONE',  ( 0.1237499999999999989, 0.1417500000000000149, 0.3139939290814397488 ) ) ;
#968 = EDGE_CURVE ( 'NONE', #34, #472, #27, .T. ) ;
#969 = DIRECTION ( 'NONE',  ( 0.000000000000000000, 0.000000000000000000, -1.000000000000000000 ) ) ;
#970 = VECTOR ( 'NONE', #206, 1000.000000000000000 ) ;
#971 = VERTEX_POINT ( 'NONE', #180 ) ;
#972 = CARTESIAN_POINT ( 'NONE',  ( -0.1240286368331738054, 0.1459304882496124112, 0.3138839709913595621 ) ) ;
#973 = CYLINDRICAL_SURFACE ( 'NONE', #499, 0.3374999999999999667 ) ;
#974 = EDGE_LOOP ( 'NONE', ( #404, #282, #6, #720, #373 ) ) ;
#975 = CARTESIAN_POINT ( 'NONE',  ( -0.1298132584647908871, 0.1603301555448539417, -0.3115361422479795972 ) ) ;
#976 = DIRECTION ( 'NONE',  ( 0.000000000000000000, 0.000000000000000000, -1.000000000000000000 ) ) ;
#977 = EDGE_CURVE ( 'NONE', #273, #148, #478, .T. ) ;
#978 = VERTEX_POINT ( 'NONE', #787 ) ;
#979 = ORIENTED_EDGE ( 'NONE', *, *, #325, .F. ) ;
#980 = LINE ( 'NONE', #831, #32 ) ;
#981 = LINE ( 'NONE', #430, #553 ) ;
#982 = DIRECTION ( 'NONE',  ( 0.000000000000000000, 0.000000000000000000, 1.000000000000000000 ) ) ;
#983 = EDGE_CURVE ( 'NONE', #906, #236, #76, .T. ) ;
ENDSEC;
END-ISO-10303-21;
