  0
SECTION
  2
HEADER
  9
$ACADVER
  1
AC1015
  9
$ACADMAINTVER
 70
     6
  9
$DWGCODEPAGE
  3
ANSI_936
  9
$INSBASE
 10
0.0
 20
0.0
 30
0.0
  9
$EXTMIN
 10
0.0
 20
0.0
 30
0.0
  9
$EXTMAX
 10
297.0
 20
210.0
 30
0.0
  9
$LIMMIN
 10
0.0
 20
0.0
  9
$LIMMAX
 10
297.0
 20
210.0
  9
$ORTHOMODE
 70
     0
  9
$REGENMODE
 70
     1
  9
$FILLMODE
 70
     1
  9
$QTEXTMODE
 70
     0
  9
$MIRRTEXT
 70
     1
  9
$LTSCALE
 40
1.0
  9
$ATTMODE
 70
     1
  9
$TEXTSIZE
 40
3.5
  9
$TRACEWID
 40
1.0
  9
$TEXTSTYLE
  7
Standard
  9
$CLAYER
  8
0
  9
$CELTYPE
  6
ByLayer
  9
$CECOLOR
 62
   256
  9
$CELTSCALE
 40
1.0
  9
$DISPSILH
 70
     0
  9
$DIMSCALE
 40
1.0
  9
$DIMASZ
 40
4.08
  9
$DIMEXO
 40
0.0
  9
$DIMDLI
 40
3.75
  9
$DIMRND
 40
0.0
  9
$DIMDLE
 40
0.0
  9
$DIMEXE
 40
2.0
  9
$DIMTP
 40
0.0
  9
$DIMTM
 40
0.0
  9
$DIMTXT
 40
3.5
  9
$DIMCEN
 40
2.5
  9
$DIMTSZ
 40
0.0
  9
$DIMTOL
 70
     0
  9
$DIMLIM
 70
     0
  9
$DIMTIH
 70
     1
  9
$DIMTOH
 70
     1
  9
$DIMSE1
 70
     0
  9
$DIMSE2
 70
     0
  9
$DIMTAD
 70
     1
  9
$DIMZIN
 70
     0
  9
$DIMBLK
  1

  9
$DIMASO
 70
     1
  9
$DIMSHO
 70
     1
  9
$DIMPOST
  1

  9
$DIMAPOST
  1

  9
$DIMALT
 70
     0
  9
$DIMALTD
 70
     3
  9
$DIMALTF
 40
0.0393700787
  9
$DIMLFAC
 40
2.0
  9
$DIMTOFL
 70
     1
  9
$DIMTVP
 40
0.0
  9
$DIMTIX
 70
     0
  9
$DIMSOXD
 70
     0
  9
$DIMSAH
 70
     0
  9
$DIMBLK1
  1

  9
$DIMBLK2
  1

  9
$DIMSTYLE
  2
ISO-25
  9
$DIMCLRD
 70
     0
  9
$DIMCLRE
 70
     0
  9
$DIMCLRT
 70
     0
  9
$DIMTFAC
 40
1.0
  9
$DIMGAP
 40
1.524
  9
$DIMJUST
 70
     0
  9
$DIMSD1
 70
     0
  9
$DIMSD2
 70
     0
  9
$DIMTOLJ
 70
     0
  9
$DIMTZIN
 70
     0
  9
$DIMALTZ
 70
     0
  9
$DIMALTTZ
 70
     0
  9
$DIMUPT
 70
     0
  9
$DIMDEC
 70
     2
  9
$DIMTDEC
 70
     2
  9
$DIMALTU
 70
     2
  9
$DIMALTTD
 70
     3
  9
$DIMTXSTY
  7
Standard
  9
$DIMAUNIT
 70
     0
  9
$DIMADEC
 70
     2
  9
$DIMALTRND
 40
0.0
  9
$DIMAZIN
 70
     0
  9
$DIMDSEP
 70
    44
  9
$DIMATFIT
 70
     3
  9
$DIMFRAC
 70
     0
  9
$DIMLDRBLK
  1

  9
$DIMLUNIT
 70
     2
  9
$DIMLWD
 70
    -2
  9
$DIMLWE
 70
    -2
  9
$DIMTMOVE
 70
     0
  9
$LUNITS
 70
     2
  9
$LUPREC
 70
     2
  9
$SKETCHINC
 40
1.0
  9
$FILLETRAD
 40
0.0
  9
$AUNITS
 70
     0
  9
$AUPREC
 70
     2
  9
$MENU
  1
.
  9
$ELEVATION
 40
0.0
  9
$PELEVATION
 40
0.0
  9
$THICKNESS
 40
0.0
  9
$LIMCHECK
 70
     0
  9
$CHAMFERA
 40
0.0
  9
$CHAMFERB
 40
0.0
  9
$CHAMFERC
 40
0.0
  9
$CHAMFERD
 40
0.0
  9
$SKPOLY
 70
     0
  9
$TDCREATE
 40
2461215.768015
  9
$TDUCREATE
 40
2461215.434681667
  9
$TDUPDATE
 40
2461215.768015174
  9
$TDUUPDATE
 40
2461215.43468184
  9
$TDINDWG
 40
0.0000000116
  9
$TDUSRTIMER
 40
0.0000000116
  9
$USRTIMER
 70
     1
  9
$ANGBASE
 50
0.0
  9
$ANGDIR
 70
     0
  9
$PDMODE
 70
     0
  9
$PDSIZE
 40
-1.0
  9
$PLINEWID
 40
0.0
  9
$SPLFRAME
 70
     0
  9
$SPLINETYPE
 70
     6
  9
$SPLINESEGS
 70
     8
  9
$HANDSEED
  5
132
  9
$SURFTAB1
 70
     6
  9
$SURFTAB2
 70
     6
  9
$SURFTYPE
 70
     6
  9
$SURFU
 70
     6
  9
$SURFV
 70
     6
  9
$UCSBASE
  2

  9
$UCSNAME
  2

  9
$UCSORG
 10
0.0
 20
0.0
 30
0.0
  9
$UCSXDIR
 10
1.0
 20
0.0
 30
0.0
  9
$UCSYDIR
 10
0.0
 20
1.0
 30
0.0
  9
$UCSORTHOREF
  2

  9
$UCSORTHOVIEW
 70
     0
  9
$UCSORGTOP
 10
0.0
 20
0.0
 30
0.0
  9
$UCSORGBOTTOM
 10
0.0
 20
0.0
 30
0.0
  9
$UCSORGLEFT
 10
0.0
 20
0.0
 30
0.0
  9
$UCSORGRIGHT
 10
0.0
 20
0.0
 30
0.0
  9
$UCSORGFRONT
 10
0.0
 20
0.0
 30
0.0
  9
$UCSORGBACK
 10
0.0
 20
0.0
 30
0.0
  9
$PUCSBASE
  2

  9
$PUCSNAME
  2

  9
$PUCSORG
 10
0.0
 20
0.0
 30
0.0
  9
$PUCSXDIR
 10
1.0
 20
0.0
 30
0.0
  9
$PUCSYDIR
 10
0.0
 20
1.0
 30
0.0
  9
$PUCSORTHOREF
  2

  9
$PUCSORTHOVIEW
 70
     0
  9
$PUCSORGTOP
 10
0.0
 20
0.0
 30
0.0
  9
$PUCSORGBOTTOM
 10
0.0
 20
0.0
 30
0.0
  9
$PUCSORGLEFT
 10
0.0
 20
0.0
 30
0.0
  9
$PUCSORGRIGHT
 10
0.0
 20
0.0
 30
0.0
  9
$PUCSORGFRONT
 10
0.0
 20
0.0
 30
0.0
  9
$PUCSORGBACK
 10
0.0
 20
0.0
 30
0.0
  9
$USERI1
 70
     0
  9
$USERI2
 70
     0
  9
$USERI3
 70
     0
  9
$USERI4
 70
     0
  9
$USERI5
 70
     0
  9
$USERR1
 40
0.0
  9
$USERR2
 40
0.0
  9
$USERR3
 40
0.0
  9
$USERR4
 40
0.0
  9
$USERR5
 40
0.0
  9
$WORLDVIEW
 70
     1
  9
$SHADEDGE
 70
     3
  9
$SHADEDIF
 70
    70
  9
$TILEMODE
 70
     1
  9
$MAXACTVP
 70
    64
  9
$PINSBASE
 10
0.0
 20
0.0
 30
0.0
  9
$PLIMCHECK
 70
     0
  9
$PEXTMIN
 10
1.0000000000E+20
 20
1.0000000000E+20
 30
1.0000000000E+20
  9
$PEXTMAX
 10
-1.0000000000E+20
 20
-1.0000000000E+20
 30
-1.0000000000E+20
  9
$PLIMMIN
 10
0.0
 20
0.0
  9
$PLIMMAX
 10
420.0
 20
297.0
  9
$UNITMODE
 70
     0
  9
$VISRETAIN
 70
     1
  9
$PLINEGEN
 70
     0
  9
$PSLTSCALE
 70
     1
  9
$TREEDEPTH
 70
  3020
  9
$CMLSTYLE
  2
Standard
  9
$CMLJUST
 70
     0
  9
$CMLSCALE
 40
20.0
  9
$PROXYGRAPHICS
 70
     1
  9
$MEASUREMENT
 70
     1
  9
$CELWEIGHT
370
    -1
  9
$ENDCAPS
280
     0
  9
$JOINSTYLE
280
     0
  9
$LWDISPLAY
290
     1
  9
$INSUNITS
 70
     4
  9
$HYPERLINKBASE
  1

  9
$STYLESHEET
  1

  9
$XEDIT
290
     1
  9
$CEPSNTYPE
380
     0
  9
$PSTYLEMODE
290
     1
  9
$FINGERPRINTGUID
  2
{ef8bf9e9-33d0-433d-8f0b-cbb9a1ee7d6b}
  9
$VERSIONGUID
  2
{FAEB1C32-E019-11D5-929B-00C0DF256EC4}
  9
$EXTNAMES
290
     1
  9
$PSVPSCALE
 40
0.0
  9
$OLESTARTUP
290
     0
  0
ENDSEC
  0
SECTION
  2
CLASSES
  0
CLASS
  1
ACDBDICTIONARYWDFLT
  2
AcDbDictionaryWithDefault
  3
ObjectDBX Classes
 90
        0
280
     0
281
     0
  0
CLASS
  1
VISUALSTYLE
  2
AcDbVisualStyle
  3
ObjectDBX Classes
 90
     4095
280
     0
281
     0
  0
CLASS
  1
MATERIAL
  2
AcDbMaterial
  3
ObjectDBX Classes
 90
     1153
280
     0
281
     0
  0
CLASS
  1
SCALE
  2
AcDbScale
  3
ObjectDBX Classes
 90
     1153
280
     0
281
     0
  0
CLASS
  1
TABLESTYLE
  2
AcDbTableStyle
  3
ObjectDBX Classes
 90
     4095
280
     0
281
     0
  0
CLASS
  1
MLEADERSTYLE
  2
AcDbMLeaderStyle
  3
ACDB_MLEADERSTYLE_CLASS
 90
     4095
280
     0
281
     0
  0
CLASS
  1
SUN
  2
AcDbSun
  3
SCENEOE
 90
     1153
280
     0
281
     0
  0
CLASS
  1
ACDBPLACEHOLDER
  2
AcDbPlaceHolder
  3
ObjectDBX Classes
 90
        0
280
     0
281
     0
  0
CLASS
  1
LAYOUT
  2
AcDbLayout
  3
ObjectDBX Classes
 90
        0
280
     0
281
     0
  0
ENDSEC
  0
SECTION
  2
TABLES
  0
TABLE
  2
VPORT
  5
8
330
0
100
AcDbSymbolTable
 70
     1
  0
VPORT
  5
29
330
8
100
AcDbSymbolTableRecord
100
AcDbViewportTableRecord
  2
*Active
 70
     0
 10
0.0
 20
0.0
 11
1.0
 21
1.0
 12
148.5
 22
105.0
 13
0.0
 23
0.0
 14
10.0
 24
10.0
 15
10.0
 25
10.0
 16
0.0
 26
0.0
 36
1.0
 17
0.0
 27
0.0
 37
0.0
 40
210.0
 41
1.4142857143
 42
50.0
 43
0.0
 44
0.0
 50
0.0
 51
0.0
 71
     0
 72
  2000
 73
     1
 74
     3
 75
     0
 76
     0
 77
     0
 78
     0
281
     0
 65
     1
110
0.0
120
0.0
130
0.0
111
1.0
121
0.0
131
0.0
112
0.0
122
1.0
132
0.0
 79
     0
146
0.0
  0
ENDTAB
  0
TABLE
  2
LTYPE
  5
5
330
0
100
AcDbSymbolTable
 70
     6
  0
LTYPE
  5
14
330
5
100
AcDbSymbolTableRecord
100
AcDbLinetypeTableRecord
  2
ByBlock
 70
     0
  3

 72
    65
 73
     0
 40
0.0
  0
LTYPE
  5
15
330
5
100
AcDbSymbolTableRecord
100
AcDbLinetypeTableRecord
  2
ByLayer
 70
     0
  3

 72
    65
 73
     0
 40
0.0
  0
LTYPE
  5
16
330
5
100
AcDbSymbolTableRecord
100
AcDbLinetypeTableRecord
  2
Continuous
 70
     0
  3
Solid line
 72
    65
 73
     0
 40
0.0
  0
LTYPE
  5
5E
330
5
100
AcDbSymbolTableRecord
100
AcDbLinetypeTableRecord
  2
HIDDEN
 70
     0
  3
Hidden __ __ __ __ __ __ __ __ __ __ __ __ __ __
 72
    65
 73
     2
 40
1.905
 49
1.27
 74
     0
 49
-0.635
 74
     0
  0
LTYPE
  5
5F
330
5
100
AcDbSymbolTableRecord
100
AcDbLinetypeTableRecord
  2
PHANTOM
 70
     0
  3
Phantom ______  __  __  ______  __  __  ______
 72
    65
 73
     6
 40
12.7
 49
6.35
 74
     0
 49
-1.27
 74
     0
 49
1.27
 74
     0
 49
-1.27
 74
     0
 49
1.27
 74
     0
 49
-1.27
 74
     0
  0
LTYPE
  5
60
330
5
100
AcDbSymbolTableRecord
100
AcDbLinetypeTableRecord
  2
CENTER
 70
     0
  3
Center ____ _ ____ _ ____ _ ____ _ ____ _ ____
 72
    65
 73
     4
 40
10.16
 49
6.35
 74
     0
 49
-1.27
 74
     0
 49
1.27
 74
     0
 49
-1.27
 74
     0
  0
LTYPE
  5
61
330
5
100
AcDbSymbolTableRecord
100
AcDbLinetypeTableRecord
  2
CENTERX2
 70
     0
  3
Center (2x) ________  __  ________  __  _____
 72
    65
 73
     4
 40
20.32
 49
12.7
 74
     0
 49
-2.54
 74
     0
 49
2.54
 74
     0
 49
-2.54
 74
     0
  0
LTYPE
  5
62
330
5
100
AcDbSymbolTableRecord
100
AcDbLinetypeTableRecord
  2
DOT2
 70
     0
  3
Dot (.5x) ........................................
 72
    65
 73
     2
 40
0.635
 49
0.0
 74
     0
 49
-0.635
 74
     0
  0
ENDTAB
  0
TABLE
  2
LAYER
  5
2
330
0
100
AcDbSymbolTable
 70
    14
  0
LAYER
  5
10
330
2
100
AcDbSymbolTableRecord
100
AcDbLayerTableRecord
  2
0
 70
     0
 62
     7
  6
Continuous
370
    -3
390
F
  0
LAYER
  5
63
330
2
100
AcDbSymbolTableRecord
100
AcDbLayerTableRecord
  2
SLD-0
 70
     0
 62
     7
  6
Continuous
370
    -3
390
F
  0
LAYER
  5
64
330
2
100
AcDbSymbolTableRecord
100
AcDbLayerTableRecord
  2
5
 70
     0
 62
     7
  6
Continuous
370
    -3
390
F
  0
LAYER
  5
65
330
2
100
AcDbSymbolTableRecord
100
AcDbLayerTableRecord
  2
9
 70
     0
 62
     7
  6
Continuous
370
    -3
390
F
  0
LAYER
  5
66
330
2
100
AcDbSymbolTableRecord
100
AcDbLayerTableRecord
  2
10
 70
     0
 62
     7
  6
Continuous
370
    -3
390
F
  0
LAYER
  5
67
330
2
100
AcDbSymbolTableRecord
100
AcDbLayerTableRecord
  2
轮廓实线层
 70
     0
 62
     7
  6
Continuous
370
    50
390
F
  0
LAYER
  5
68
330
2
100
AcDbSymbolTableRecord
100
AcDbLayerTableRecord
  2
细线层
 70
     0
 62
     4
  6
Continuous
370
    25
390
F
  0
LAYER
  5
69
330
2
100
AcDbSymbolTableRecord
100
AcDbLayerTableRecord
  2
中心线层
 70
     0
 62
     1
  6
CENTERX2
370
    25
390
F
  0
LAYER
  5
6A
330
2
100
AcDbSymbolTableRecord
100
AcDbLayerTableRecord
  2
虚线层
 70
     0
 62
     6
  6
HIDDEN
370
    25
390
F
  0
LAYER
  5
6B
330
2
100
AcDbSymbolTableRecord
100
AcDbLayerTableRecord
  2
剖面线层
 70
     0
 62
     2
  6
Continuous
370
    25
390
F
  0
LAYER
  5
6C
330
2
100
AcDbSymbolTableRecord
100
AcDbLayerTableRecord
  2
文字层
 70
     0
 62
     3
  6
Continuous
370
    25
390
F
  0
LAYER
  5
6D
330
2
100
AcDbSymbolTableRecord
100
AcDbLayerTableRecord
  2
标注层
 70
     0
 62
     4
  6
Continuous
370
    25
390
F
  0
LAYER
  5
6E
330
2
100
AcDbSymbolTableRecord
100
AcDbLayerTableRecord
  2
符号标注层
 70
     0
 62
    31
  6
Continuous
370
    25
390
F
  0
LAYER
  5
6F
330
2
100
AcDbSymbolTableRecord
100
AcDbLayerTableRecord
  2
双点划线层
 70
     0
 62
     6
  6
PHANTOM
370
    25
390
F
  0
ENDTAB
  0
TABLE
  2
STYLE
  5
3
330
0
100
AcDbSymbolTable
 70
     1
  0
STYLE
  5
11
330
3
100
AcDbSymbolTableRecord
100
AcDbTextStyleTableRecord
  2
Standard
 70
     0
 40
0.0
 41
1.0
 50
0.0
 71
     0
 42
3.5
  3
txt
  4

  0
ENDTAB
  0
TABLE
  2
VIEW
  5
6
330
0
100
AcDbSymbolTable
 70
     0
  0
ENDTAB
  0
TABLE
  2
UCS
  5
7
330
0
100
AcDbSymbolTable
 70
     0
  0
ENDTAB
  0
TABLE
  2
APPID
  5
9
330
0
100
AcDbSymbolTable
 70
     1
  0
APPID
  5
12
330
9
100
AcDbSymbolTableRecord
100
AcDbRegAppTableRecord
  2
ACAD
 70
     0
  0
ENDTAB
  0
TABLE
  2
DIMSTYLE
  5
A
330
0
100
AcDbSymbolTable
 70
     1
100
AcDbDimStyleTable
  0
DIMSTYLE
105
27
330
A
100
AcDbSymbolTableRecord
100
AcDbDimStyleTableRecord
  2
ISO-25
 70
     0
 41
2.5
 42
0.625
 43
3.75
 44
1.25
 73
     0
 74
     0
 77
     1
 78
     8
140
2.5
141
2.5
143
0.0393700787
147
0.625
171
     3
172
     1
178
     0
271
     2
272
     2
274
     3
278
    44
283
     0
284
     8
340
11
  0
ENDTAB
  0
TABLE
  2
BLOCK_RECORD
  5
1
330
0
100
AcDbSymbolTable
 70
     1
  0
BLOCK_RECORD
  5
1F
330
1
100
AcDbSymbolTableRecord
100
AcDbBlockTableRecord
  2
*Model_Space
340
22
  0
BLOCK_RECORD
  5
1B
330
1
100
AcDbSymbolTableRecord
100
AcDbBlockTableRecord
  2
*Paper_Space
340
1E
  0
BLOCK_RECORD
  5
23
330
1
100
AcDbSymbolTableRecord
100
AcDbBlockTableRecord
  2
*Paper_Space0
340
26
  0
ENDTAB
  0
ENDSEC
  0
SECTION
  2
BLOCKS
  0
BLOCK
  5
20
330
1F
100
AcDbEntity
  8
0
100
AcDbBlockBegin
  2
*Model_Space
 70
     0
 10
0.0
 20
0.0
 30
0.0
  3
*Model_Space
  1

  0
ENDBLK
  5
21
330
1F
100
AcDbEntity
  8
0
100
AcDbBlockEnd
  0
BLOCK
  5
1C
330
1B
100
AcDbEntity
 67
     1
  8
0
100
AcDbBlockBegin
  2
*Paper_Space
 70
     0
 10
0.0
 20
0.0
 30
0.0
  3
*Paper_Space
  1

  0
ENDBLK
  5
1D
330
1B
100
AcDbEntity
 67
     1
  8
0
100
AcDbBlockEnd
  0
BLOCK
  5
24
330
23
100
AcDbEntity
  8
0
100
AcDbBlockBegin
  2
*Paper_Space0
 70
     0
 10
0.0
 20
0.0
 30
0.0
  3
*Paper_Space0
  1

  0
ENDBLK
  5
25
330
23
100
AcDbEntity
  8
0
100
AcDbBlockEnd
  0
ENDSEC
  0
SECTION
  2
ENTITIES
  0
LINE
  5
70
330
1F
100
AcDbEntity
  8
0
  6
Continuous
 62
     7
370
    25
100
AcDbLine
 10
116.5195530726
 20
107.0
 30
0.0
 11
116.5195530726
 21
58.6201117318
 31
0.0
  0
LINE
  5
71
330
1F
100
AcDbEntity
  8
0
  6
Continuous
 62
     7
370
    25
100
AcDbLine
 10
116.5195530726
 20
107.0
 30
0.0
 11
110.9329608939
 21
107.0
 31
0.0
  0
LINE
  5
72
330
1F
100
AcDbEntity
  8
0
  6
Continuous
 62
     7
370
    25
100
AcDbLine
 10
116.5195530726
 20
58.6201117318
 30
0.0
 11
110.9329608939
 21
58.6201117318
 31
0.0
  0
LINE
  5
73
330
1F
100
AcDbEntity
  8
0
  6
Continuous
 62
     7
370
    25
100
AcDbLine
 10
49.4804469274
 20
58.6201117318
 30
0.0
 11
49.4804469274
 21
107.0
 31
0.0
  0
LINE
  5
74
330
1F
100
AcDbEntity
  8
0
  6
Continuous
 62
     7
370
    25
100
AcDbLine
 10
49.4804469274
 20
107.0
 30
0.0
 11
55.0670391061
 21
107.0
 31
0.0
  0
LINE
  5
75
330
1F
100
AcDbEntity
  8
0
  6
Continuous
 62
     7
370
    25
100
AcDbLine
 10
49.4804469274
 20
58.6201117318
 30
0.0
 11
55.0670391061
 21
58.6201117318
 31
0.0
  0
LINE
  5
76
330
1F
100
AcDbEntity
  8
0
  6
Continuous
 62
     7
370
    25
100
AcDbLine
 10
55.0670391061
 20
107.0
 30
0.0
 11
110.9329608939
 21
107.0
 31
0.0
  0
LINE
  5
77
330
1F
100
AcDbEntity
  8
0
  6
Continuous
 62
     7
370
    25
100
AcDbLine
 10
110.9329608939
 20
58.6201117318
 30
0.0
 11
55.0670391061
 21
58.6201117318
 31
0.0
  0
SPLINE
  5
78
330
1F
100
AcDbEntity
  8
0
  6
Continuous
 62
     7
370
    25
100
AcDbSpline
210
0.0
220
0.0
230
1.0
 70
     8
 71
     3
 72
    18
 73
    14
 74
     0
 42
0.00000001
 43
0.00000001
 40
0.0
 40
0.0
 40
0.0
 40
0.0
 40
0.2500000000000001
 40
0.2500000000000001
 40
0.5000000000000002
 40
0.5000000000000002
 40
0.6250000000000001
 40
0.6250000000000001
 40
0.7500000000000001
 40
0.7500000000000001
 40
0.875
 40
0.875
 40
1.0
 40
1.0
 40
1.0
 40
1.0
 10
116.5195530726257
 20
42.75418994413408
 30
0.0
 10
113.3565982630159
 20
41.32398575795646
 30
0.0
 10
110.404053501656
 20
39.43759158823541
 30
0.0
 10
105.0853124032382
 20
34.97572297354064
 30
0.0
 10
102.7156107326927
 20
32.39957729449557
 30
0.0
 10
99.71781749723054
 20
28.1424979937075
 30
0.0
 10
98.81172438351753
 20
26.65764648693758
 30
0.0
 10
97.21321535284405
 20
23.57662718952917
 30
0.0
 10
96.52072373433589
 20
21.98010909492619
 30
0.0
 10
95.38303057542181
 20
18.7005768671353
 30
0.0
 10
94.93794562005644
 20
17.01730123516175
 30
0.0
 10
94.3328194284343
 20
13.59912067022127
 30
0.0
 10
94.17317117901788
 20
11.86417429475477
 30
0.0
 10
94.17317117901788
 20
10.12849162011172
 30
0.0
  0
LINE
  5
79
330
1F
100
AcDbEntity
  8
0
  6
Continuous
 62
     7
370
    25
100
AcDbLine
 10
93.6145251397
 20
10.1284916201
 30
0.0
 11
94.173171179
 21
10.1284916201
 31
0.0
  0
LINE
  5
7A
330
1F
100
AcDbEntity
  8
0
  6
Continuous
 62
     7
370
    25
100
AcDbLine
 10
115.4022346369
 20
58.6201117318
 30
0.0
 11
115.4022346369
 21
42.6882325187
 31
0.0
  0
LINE
  5
7B
330
1F
100
AcDbEntity
  8
0
  6
Continuous
 62
     7
370
    25
100
AcDbLine
 10
116.5195530726
 20
42.7541899441
 30
0.0
 11
116.5195530726
 21
58.6201117318
 31
0.0
  0
SPLINE
  5
7C
330
1F
100
AcDbEntity
  8
0
  6
Continuous
 62
     7
370
    25
100
AcDbSpline
210
0.0
220
0.0
230
1.0
 70
    24
 71
     3
 72
    14
 73
    10
 74
     0
 42
0.00000001
 43
0.00000001
 40
0.0
 40
0.0
 40
0.0
 40
0.0
 40
0.25
 40
0.25
 40
0.5
 40
0.5
 40
0.75
 40
0.75
 40
1.0
 40
1.0
 40
1.0
 40
1.0
 10
93.6145251396648
 20
10.12849162011173
 30
0.0
 10
93.54868389337379
 20
10.12849162011172
 30
0.0
 10
93.47765107526484
 20
10.12849162011169
 30
0.0
 10
93.34011335256695
 20
10.12849162011171
 30
0.0
 10
93.2740346620288
 20
10.12849162011172
 30
0.0
 10
93.16495217463444
 20
10.12849162011172
 30
0.0
 10
93.12231717917221
 20
10.12849162011173
 30
0.0
 10
93.06786620048567
 20
10.12849162011172
 30
0.0
 10
93.05586592178771
 20
10.12849162011173
 30
0.0
 10
93.05586592178771
 20
10.12849162011173
 30
0.0
  0
SPLINE
  5
7D
330
1F
100
AcDbEntity
  8
0
  6
Continuous
 62
     7
370
    25
100
AcDbSpline
210
0.0
220
0.0
230
1.0
 70
     8
 71
     3
 72
     8
 73
     4
 74
     0
 42
0.00000001
 43
0.00000001
 40
0.0
 40
0.0
 40
0.0
 40
0.0
 40
1.0
 40
1.0
 40
1.0
 40
1.0
 10
93.05586592178747
 20
10.12849162011165
 30
0.0
 10
93.05586592176958
 20
23.53631387796207
 30
0.0
 10
102.5530647842253
 20
36.94413157811319
 30
0.0
 10
115.4022345825394
 20
43.31284927162063
 30
0.0
  0
SPLINE
  5
7E
330
1F
100
AcDbEntity
  8
0
  6
Continuous
 62
     7
370
    25
100
AcDbSpline
210
0.0
220
0.0
230
1.0
 70
     8
 71
     3
 72
     8
 73
     4
 74
     0
 42
0.00000001
 43
0.00000001
 40
0.0
 40
0.0
 40
0.0
 40
0.0
 40
1.0
 40
1.0
 40
1.0
 40
1.0
 10
72.94413407821231
 20
10.12849162011169
 30
0.0
 10
72.94413407821231
 20
23.53631387800727
 30
0.0
 10
63.44693521577219
 20
36.94413157811398
 30
0.0
 10
50.59776541746071
 20
43.31284927162091
 30
0.0
  0
SPLINE
  5
7F
330
1F
100
AcDbEntity
  8
0
  6
Continuous
 62
     7
370
    25
100
AcDbSpline
210
0.0
220
0.0
230
1.0
 70
    24
 71
     3
 72
    14
 73
    10
 74
     0
 42
0.00000001
 43
0.00000001
 40
0.0
 40
0.0
 40
0.0
 40
0.0
 40
0.25
 40
0.25
 40
0.5
 40
0.5
 40
0.75
 40
0.75
 40
1.0
 40
1.0
 40
1.0
 40
1.0
 10
72.3854748603352
 20
10.12849162011173
 30
0.0
 10
72.45131610663404
 20
10.12849162011172
 30
0.0
 10
72.52234892473878
 20
10.12849162011169
 30
0.0
 10
72.6598866474378
 20
10.12849162011171
 30
0.0
 10
72.72596533797646
 20
10.12849162011172
 30
0.0
 10
72.83504782536991
 20
10.12849162011172
 30
0.0
 10
72.87768282082875
 20
10.12849162011173
 30
0.0
 10
72.9321337995173
 20
10.12849162011172
 30
0.0
 10
72.94413407821229
 20
10.12849162011173
 30
0.0
 10
72.94413407821229
 20
10.12849162011173
 30
0.0
  0
SPLINE
  5
80
330
1F
100
AcDbEntity
  8
0
  6
Continuous
 62
     7
370
    25
100
AcDbSpline
210
0.0
220
0.0
230
1.0
 70
     8
 71
     3
 72
    18
 73
    14
 74
     0
 42
0.00000001
 43
0.00000001
 40
0.0
 40
0.0
 40
0.0
 40
0.0
 40
0.2499999999999999
 40
0.2499999999999999
 40
0.4999999999999999
 40
0.4999999999999999
 40
0.6249999999999998
 40
0.6249999999999998
 40
0.7499999999999998
 40
0.7499999999999998
 40
0.8749999999999999
 40
0.8749999999999999
 40
1.0
 40
1.0
 40
1.0
 40
1.0
 10
49.4804469273743
 20
42.75418994413408
 30
0.0
 10
52.64340173700151
 20
41.32398575795646
 30
0.0
 10
55.59594649834631
 20
39.43759158823579
 30
0.0
 10
60.91468759676509
 20
34.97572297354015
 30
0.0
 10
63.28438926730964
 20
32.39957729449574
 30
0.0
 10
66.2821825027711
 20
28.14249799370788
 30
0.0
 10
67.18827561648446
 20
26.65764648693758
 30
0.0
 10
68.78678464716018
 20
23.57662718952945
 30
0.0
 10
69.47927626566758
 20
21.98010909492614
 30
0.0
 10
70.61696942457907
 20
18.70057686713544
 30
0.0
 10
71.06205437994566
 20
17.01730123516179
 30
0.0
 10
71.66718057156837
 20
13.59912067022112
 30
0.0
 10
71.82682882098325
 20
11.86417429475402
 30
0.0
 10
71.82682882098325
 20
10.12849162011173
 30
0.0
  0
LINE
  5
81
330
1F
100
AcDbEntity
  8
0
  6
Continuous
 62
     7
370
    25
100
AcDbLine
 10
71.826828821
 20
10.1284916201
 30
0.0
 11
72.3854748603
 21
10.1284916201
 31
0.0
  0
LINE
  5
82
330
1F
100
AcDbEntity
  8
0
  6
Continuous
 62
     7
370
    25
100
AcDbLine
 10
50.5977653631
 20
42.6882325187
 30
0.0
 11
50.5977653631
 21
58.6201117318
 31
0.0
  0
LINE
  5
83
330
1F
100
AcDbEntity
  8
0
  6
Continuous
 62
     7
370
    25
100
AcDbLine
 10
49.4804469274
 20
58.6201117318
 30
0.0
 11
49.4804469274
 21
42.7541899441
 31
0.0
  0
ARC
  5
84
330
1F
100
AcDbEntity
  8
0
  6
Continuous
 62
     7
370
    25
100
AcDbCircle
 10
88.4348750896
 20
9.5698324022
 30
0.0
 40
0.5586592178771017
100
AcDbArc
 50
90.0
 51
225.000009362
  0
LINE
  5
85
330
1F
100
AcDbEntity
  8
0
  6
Continuous
 62
     7
370
    25
100
AcDbLine
 10
89.2609534445
 20
7.9536910038
 30
0.0
 11
88.0398434328
 21
9.1748006164
 31
0.0
  0
LINE
  5
86
330
1F
100
AcDbEntity
  8
0
  6
Continuous
 62
     7
370
    25
100
AcDbLine
 10
77.1340782123
 20
7.0
 30
0.0
 11
88.8659217877
 21
7.0
 31
0.0
  0
ARC
  5
87
330
1F
100
AcDbEntity
  8
0
  6
Continuous
 62
     7
370
    25
100
AcDbCircle
 10
77.1340782123
 20
7.5586592179
 30
0.0
 40
0.5586592178770946
100
AcDbArc
 50
134.9999906377
 51
270.0
  0
LINE
  5
88
330
1F
100
AcDbEntity
  8
0
  6
Continuous
 62
     7
370
    25
100
AcDbLine
 10
77.9601565672
 20
9.1748006164
 30
0.0
 11
76.7390465555
 21
7.9536910038
 31
0.0
  0
ARC
  5
89
330
1F
100
AcDbEntity
  8
0
  6
Continuous
 62
     7
370
    25
100
AcDbCircle
 10
88.8659217877
 20
7.5586592179
 30
0.0
 40
0.5586592178770946
100
AcDbArc
 50
270.0
 51
45.000009362
  0
ARC
  5
8A
330
1F
100
AcDbEntity
  8
0
  6
Continuous
 62
     7
370
    25
100
AcDbCircle
 10
77.5651249104
 20
9.5698324022
 30
0.0
 40
0.5586592178771017
100
AcDbArc
 50
314.999990638
 51
90.0
  0
LINE
  5
8B
330
1F
100
AcDbEntity
  8
0
  6
Continuous
 62
     7
370
    25
100
AcDbLine
 10
72.9441340782
 20
10.1284916201
 30
0.0
 11
77.5651249104
 21
10.1284916201
 31
0.0
  0
LINE
  5
8C
330
1F
100
AcDbEntity
  8
0
  6
Continuous
 62
     7
370
    25
100
AcDbLine
 10
88.4348750896
 20
10.1284916201
 30
0.0
 11
93.0558659218
 21
10.1284916201
 31
0.0
  0
LINE
  5
8D
330
1F
100
AcDbEntity
  8
0
  6
HIDDEN
 62
     7
370
    18
100
AcDbLine
 10
115.4022346369
 20
58.6201117318
 30
0.0
 11
115.4022346369
 21
105.8826815642
 31
0.0
  0
LINE
  5
8E
330
1F
100
AcDbEntity
  8
0
  6
HIDDEN
 62
     7
370
    18
100
AcDbLine
 10
109.8156424581
 20
105.8826815642
 30
0.0
 11
115.4022346369
 21
105.8826815642
 31
0.0
  0
LINE
  5
8F
330
1F
100
AcDbEntity
  8
0
  6
HIDDEN
 62
     7
370
    18
100
AcDbLine
 10
70.7094972067
 20
58.6201117318
 30
0.0
 11
70.7094972067
 21
105.8826815642
 31
0.0
  0
LINE
  5
90
330
1F
100
AcDbEntity
  8
0
  6
HIDDEN
 62
     7
370
    18
100
AcDbLine
 10
70.7094972067
 20
105.8826815642
 30
0.0
 11
65.1229050279
 21
105.8826815642
 31
0.0
  0
LINE
  5
91
330
1F
100
AcDbEntity
  8
0
  6
HIDDEN
 62
     7
370
    18
100
AcDbLine
 10
72.9441340782
 20
105.8826815642
 30
0.0
 11
78.530726257
 21
105.8826815642
 31
0.0
  0
LINE
  5
92
330
1F
100
AcDbEntity
  8
0
  6
HIDDEN
 62
     7
370
    18
100
AcDbLine
 10
72.9441340782
 20
58.6201117318
 30
0.0
 11
72.9441340782
 21
105.8826815642
 31
0.0
  0
LINE
  5
93
330
1F
100
AcDbEntity
  8
0
  6
HIDDEN
 62
     7
370
    18
100
AcDbLine
 10
56.1843575419
 20
105.8826815642
 30
0.0
 11
50.5977653631
 21
105.8826815642
 31
0.0
  0
LINE
  5
94
330
1F
100
AcDbEntity
  8
0
  6
HIDDEN
 62
     7
370
    18
100
AcDbLine
 10
50.5977653631
 20
58.6201117318
 30
0.0
 11
50.5977653631
 21
105.8826815642
 31
0.0
  0
LINE
  5
95
330
1F
100
AcDbEntity
  8
0
  6
HIDDEN
 62
     7
370
    18
100
AcDbLine
 10
109.8156424581
 20
105.8826815642
 30
0.0
 11
100.8770949721
 21
105.8826815642
 31
0.0
  0
LINE
  5
96
330
1F
100
AcDbEntity
  8
0
  6
HIDDEN
 62
     7
370
    18
100
AcDbLine
 10
93.0558659218
 20
58.6201117318
 30
0.0
 11
93.0558659218
 21
105.8826815642
 31
0.0
  0
LINE
  5
97
330
1F
100
AcDbEntity
  8
0
  6
HIDDEN
 62
     7
370
    18
100
AcDbLine
 10
93.0558659218
 20
105.8826815642
 30
0.0
 11
87.469273743
 21
105.8826815642
 31
0.0
  0
LINE
  5
98
330
1F
100
AcDbEntity
  8
0
  6
HIDDEN
 62
     7
370
    18
100
AcDbLine
 10
65.1229050279
 20
105.8826815642
 30
0.0
 11
56.1843575419
 21
105.8826815642
 31
0.0
  0
LINE
  5
99
330
1F
100
AcDbEntity
  8
0
  6
HIDDEN
 62
     7
370
    18
100
AcDbLine
 10
95.2905027933
 20
58.6201117318
 30
0.0
 11
95.2905027933
 21
105.8826815642
 31
0.0
  0
LINE
  5
9A
330
1F
100
AcDbEntity
  8
0
  6
HIDDEN
 62
     7
370
    18
100
AcDbLine
 10
95.2905027933
 20
105.8826815642
 30
0.0
 11
100.8770949721
 21
105.8826815642
 31
0.0
  0
LINE
  5
9B
330
1F
100
AcDbEntity
  8
0
  6
HIDDEN
 62
     7
370
    18
100
AcDbLine
 10
87.469273743
 20
105.8826815642
 30
0.0
 11
78.530726257
 21
105.8826815642
 31
0.0
  0
LINE
  5
9C
330
1F
100
AcDbEntity
  8
0
  6
HIDDEN
 62
     7
370
    18
100
AcDbLine
 10
116.5195530726
 20
61.1340782123
 30
0.0
 11
115.4022346369
 21
61.1340782123
 31
0.0
  0
LINE
  5
9D
330
1F
100
AcDbEntity
  8
0
  6
HIDDEN
 62
     7
370
    18
100
AcDbLine
 10
116.5195530726
 20
69.7932960894
 30
0.0
 11
115.4022346369
 21
69.7932960894
 31
0.0
  0
LINE
  5
9E
330
1F
100
AcDbEntity
  8
0
  6
HIDDEN
 62
     7
370
    18
100
AcDbLine
 10
50.5977653631
 20
86.2737430167
 30
0.0
 11
49.4804469274
 21
86.2737430167
 31
0.0
  0
LINE
  5
9F
330
1F
100
AcDbEntity
  8
0
  6
HIDDEN
 62
     7
370
    18
100
AcDbLine
 10
50.5977653631
 20
94.9329608938
 30
0.0
 11
49.4804469274
 21
94.9329608938
 31
0.0
  0
LINE
  5
A0
330
1F
100
AcDbEntity
  8
0
  6
HIDDEN
 62
     7
370
    18
100
AcDbLine
 10
60.6536312849
 20
107.0
 30
0.0
 11
60.6536312849
 21
105.8826815642
 31
0.0
  0
LINE
  5
A1
330
1F
100
AcDbEntity
  8
0
  6
HIDDEN
 62
     7
370
    18
100
AcDbLine
 10
52.2737430168
 20
107.0
 30
0.0
 11
52.2737430168
 21
105.8826815642
 31
0.0
  0
LINE
  5
A2
330
1F
100
AcDbEntity
  8
0
  6
HIDDEN
 62
     7
370
    18
100
AcDbLine
 10
95.2905027933
 20
94.9329608938
 30
0.0
 11
93.0558659218
 21
94.9329608938
 31
0.0
  0
LINE
  5
A3
330
1F
100
AcDbEntity
  8
0
  6
HIDDEN
 62
     7
370
    18
100
AcDbLine
 10
95.2905027933
 20
103.5921787709
 30
0.0
 11
93.0558659218
 21
103.5921787709
 31
0.0
  0
LINE
  5
A4
330
1F
100
AcDbEntity
  8
0
  6
HIDDEN
 62
     7
370
    18
100
AcDbLine
 10
116.5195530726
 20
78.4525139665
 30
0.0
 11
115.4022346369
 21
78.4525139665
 31
0.0
  0
LINE
  5
A5
330
1F
100
AcDbEntity
  8
0
  6
HIDDEN
 62
     7
370
    18
100
AcDbLine
 10
95.2905027933
 20
69.7932960894
 30
0.0
 11
93.0558659218
 21
69.7932960894
 31
0.0
  0
LINE
  5
A6
330
1F
100
AcDbEntity
  8
0
  6
HIDDEN
 62
     7
370
    18
100
AcDbLine
 10
95.2905027933
 20
78.4525139665
 30
0.0
 11
93.0558659218
 21
78.4525139665
 31
0.0
  0
LINE
  5
A7
330
1F
100
AcDbEntity
  8
0
  6
HIDDEN
 62
     7
370
    18
100
AcDbLine
 10
116.5195530726
 20
86.2737430167
 30
0.0
 11
115.4022346369
 21
86.2737430167
 31
0.0
  0
LINE
  5
A8
330
1F
100
AcDbEntity
  8
0
  6
HIDDEN
 62
     7
370
    18
100
AcDbLine
 10
116.5195530726
 20
94.9329608938
 30
0.0
 11
115.4022346369
 21
94.9329608938
 31
0.0
  0
LINE
  5
A9
330
1F
100
AcDbEntity
  8
0
  6
HIDDEN
 62
     7
370
    18
100
AcDbLine
 10
95.2905027933
 20
86.2737430167
 30
0.0
 11
93.0558659218
 21
86.2737430167
 31
0.0
  0
LINE
  5
AA
330
1F
100
AcDbEntity
  8
0
  6
HIDDEN
 62
     7
370
    18
100
AcDbLine
 10
83.0
 20
107.0
 30
0.0
 11
83.0
 21
105.8826815642
 31
0.0
  0
LINE
  5
AB
330
1F
100
AcDbEntity
  8
0
  6
HIDDEN
 62
     7
370
    18
100
AcDbLine
 10
105.3463687151
 20
107.0
 30
0.0
 11
105.3463687151
 21
105.8826815642
 31
0.0
  0
LINE
  5
AC
330
1F
100
AcDbEntity
  8
0
  6
HIDDEN
 62
     7
370
    18
100
AcDbLine
 10
113.7262569832
 20
107.0
 30
0.0
 11
113.7262569832
 21
105.8826815642
 31
0.0
  0
LINE
  5
AD
330
1F
100
AcDbEntity
  8
0
  6
HIDDEN
 62
     7
370
    18
100
AcDbLine
 10
72.9441340782
 20
69.7932960894
 30
0.0
 11
70.7094972067
 21
69.7932960894
 31
0.0
  0
LINE
  5
AE
330
1F
100
AcDbEntity
  8
0
  6
HIDDEN
 62
     7
370
    18
100
AcDbLine
 10
72.9441340782
 20
78.4525139665
 30
0.0
 11
70.7094972067
 21
78.4525139665
 31
0.0
  0
LINE
  5
AF
330
1F
100
AcDbEntity
  8
0
  6
HIDDEN
 62
     7
370
    18
100
AcDbLine
 10
95.2905027933
 20
61.1340782123
 30
0.0
 11
93.0558659218
 21
61.1340782123
 31
0.0
  0
LINE
  5
B0
330
1F
100
AcDbEntity
  8
0
  6
HIDDEN
 62
     7
370
    18
100
AcDbLine
 10
69.0335195531
 20
107.0
 30
0.0
 11
69.0335195531
 21
105.8826815642
 31
0.0
  0
LINE
  5
B1
330
1F
100
AcDbEntity
  8
0
  6
HIDDEN
 62
     7
370
    18
100
AcDbLine
 10
72.9441340782
 20
94.9329608938
 30
0.0
 11
70.7094972067
 21
94.9329608938
 31
0.0
  0
LINE
  5
B2
330
1F
100
AcDbEntity
  8
0
  6
HIDDEN
 62
     7
370
    18
100
AcDbLine
 10
72.9441340782
 20
86.2737430167
 30
0.0
 11
70.7094972067
 21
86.2737430167
 31
0.0
  0
LINE
  5
B3
330
1F
100
AcDbEntity
  8
0
  6
HIDDEN
 62
     7
370
    18
100
AcDbLine
 10
72.9441340782
 20
103.5921787709
 30
0.0
 11
70.7094972067
 21
103.5921787709
 31
0.0
  0
LINE
  5
B4
330
1F
100
AcDbEntity
  8
0
  6
HIDDEN
 62
     7
370
    18
100
AcDbLine
 10
50.5977653631
 20
103.5921787709
 30
0.0
 11
49.4804469274
 21
103.5921787709
 31
0.0
  0
LINE
  5
B5
330
1F
100
AcDbEntity
  8
0
  6
HIDDEN
 62
     7
370
    18
100
AcDbLine
 10
95.2905027933
 20
82.3631284916
 30
0.0
 11
93.0558659218
 21
82.3631284916
 31
0.0
  0
LINE
  5
B6
330
1F
100
AcDbEntity
  8
0
  6
HIDDEN
 62
     7
370
    18
100
AcDbLine
 10
96.9664804469
 20
107.0
 30
0.0
 11
96.9664804469
 21
105.8826815642
 31
0.0
  0
LINE
  5
B7
330
1F
100
AcDbEntity
  8
0
  6
HIDDEN
 62
     7
370
    18
100
AcDbLine
 10
50.5977653631
 20
82.3631284916
 30
0.0
 11
49.4804469274
 21
82.3631284916
 31
0.0
  0
LINE
  5
B8
330
1F
100
AcDbEntity
  8
0
  6
HIDDEN
 62
     7
370
    18
100
AcDbLine
 10
50.5977653631
 20
69.7932960894
 30
0.0
 11
49.4804469274
 21
69.7932960894
 31
0.0
  0
LINE
  5
B9
330
1F
100
AcDbEntity
  8
0
  6
HIDDEN
 62
     7
370
    18
100
AcDbLine
 10
50.5977653631
 20
61.1340782123
 30
0.0
 11
49.4804469274
 21
61.1340782123
 31
0.0
  0
LINE
  5
BA
330
1F
100
AcDbEntity
  8
0
  6
HIDDEN
 62
     7
370
    18
100
AcDbLine
 10
50.5977653631
 20
78.4525139665
 30
0.0
 11
49.4804469274
 21
78.4525139665
 31
0.0
  0
LINE
  5
BB
330
1F
100
AcDbEntity
  8
0
  6
HIDDEN
 62
     7
370
    18
100
AcDbLine
 10
116.5195530726
 20
82.3631284916
 30
0.0
 11
115.4022346369
 21
82.3631284916
 31
0.0
  0
LINE
  5
BC
330
1F
100
AcDbEntity
  8
0
  6
HIDDEN
 62
     7
370
    18
100
AcDbLine
 10
116.5195530726
 20
103.5921787709
 30
0.0
 11
115.4022346369
 21
103.5921787709
 31
0.0
  0
LINE
  5
BD
330
1F
100
AcDbEntity
  8
0
  6
HIDDEN
 62
     7
370
    18
100
AcDbLine
 10
72.9441340782
 20
61.1340782123
 30
0.0
 11
70.7094972067
 21
61.1340782123
 31
0.0
  0
LINE
  5
BE
330
1F
100
AcDbEntity
  8
0
  6
HIDDEN
 62
     7
370
    18
100
AcDbLine
 10
72.9441340782
 20
82.3631284916
 30
0.0
 11
70.7094972067
 21
82.3631284916
 31
0.0
  0
LINE
  5
BF
330
1F
100
AcDbEntity
  8
0
  6
HIDDEN
 62
     7
370
    18
100
AcDbLine
 10
50.5977653631
 20
91.0223463687
 30
0.0
 11
49.4804469274
 21
91.0223463687
 31
0.0
  0
LINE
  5
C0
330
1F
100
AcDbEntity
  8
0
  6
HIDDEN
 62
     7
370
    18
100
AcDbLine
 10
50.5977653631
 20
73.7039106145
 30
0.0
 11
49.4804469274
 21
73.7039106145
 31
0.0
  0
LINE
  5
C1
330
1F
100
AcDbEntity
  8
0
  6
HIDDEN
 62
     7
370
    18
100
AcDbLine
 10
95.2905027933
 20
73.7039106145
 30
0.0
 11
93.0558659218
 21
73.7039106145
 31
0.0
  0
LINE
  5
C2
330
1F
100
AcDbEntity
  8
0
  6
HIDDEN
 62
     7
370
    18
100
AcDbLine
 10
95.2905027933
 20
91.0223463687
 30
0.0
 11
93.0558659218
 21
91.0223463687
 31
0.0
  0
LINE
  5
C3
330
1F
100
AcDbEntity
  8
0
  6
HIDDEN
 62
     7
370
    18
100
AcDbLine
 10
116.5195530726
 20
73.7039106145
 30
0.0
 11
115.4022346369
 21
73.7039106145
 31
0.0
  0
LINE
  5
C4
330
1F
100
AcDbEntity
  8
0
  6
HIDDEN
 62
     7
370
    18
100
AcDbLine
 10
116.5195530726
 20
91.0223463687
 30
0.0
 11
115.4022346369
 21
91.0223463687
 31
0.0
  0
LINE
  5
C5
330
1F
100
AcDbEntity
  8
0
  6
HIDDEN
 62
     7
370
    18
100
AcDbLine
 10
91.3798882682
 20
107.0
 30
0.0
 11
91.3798882682
 21
105.8826815642
 31
0.0
  0
LINE
  5
C6
330
1F
100
AcDbEntity
  8
0
  6
HIDDEN
 62
     7
370
    18
100
AcDbLine
 10
74.6201117318
 20
107.0
 30
0.0
 11
74.6201117318
 21
105.8826815642
 31
0.0
  0
LINE
  5
C7
330
1F
100
AcDbEntity
  8
0
  6
HIDDEN
 62
     7
370
    18
100
AcDbLine
 10
72.9441340782
 20
91.0223463687
 30
0.0
 11
70.7094972067
 21
91.0223463687
 31
0.0
  0
LINE
  5
C8
330
1F
100
AcDbEntity
  8
0
  6
HIDDEN
 62
     7
370
    18
100
AcDbLine
 10
72.9441340782
 20
73.7039106145
 30
0.0
 11
70.7094972067
 21
73.7039106145
 31
0.0
  0
ARC
  5
C9
330
1F
100
AcDbEntity
  8
0
  6
Continuous
 62
     7
370
    25
100
AcDbCircle
 10
110.9329608939
 20
151.0167597765
 30
0.0
 40
5.586592178770942
100
AcDbArc
 50
270.0
 51
0.0
  0
LINE
  5
CA
330
1F
100
AcDbEntity
  8
0
  6
Continuous
 62
     7
370
    25
100
AcDbLine
 10
55.0670391061
 20
145.4301675978
 30
0.0
 11
110.9329608939
 21
145.4301675978
 31
0.0
  0
ARC
  5
CB
330
1F
100
AcDbEntity
  8
0
  6
Continuous
 62
     7
370
    25
100
AcDbCircle
 10
55.0670391061
 20
151.0167597765
 30
0.0
 40
5.58659217877095
100
AcDbArc
 50
180.0
 51
270.0
  0
LINE
  5
CC
330
1F
100
AcDbEntity
  8
0
  6
Continuous
 62
     7
370
    25
100
AcDbLine
 10
49.4804469274
 20
170.5698324022
 30
0.0
 11
49.4804469274
 21
151.0167597765
 31
0.0
  0
LINE
  5
CD
330
1F
100
AcDbEntity
  8
0
  6
Continuous
 62
     7
370
    25
100
AcDbLine
 10
69.0335195531
 20
153.8100558659
 30
0.0
 11
52.2737430168
 21
153.8100558659
 31
0.0
  0
LINE
  5
CE
330
1F
100
AcDbEntity
  8
0
  6
Continuous
 62
     7
370
    25
100
AcDbLine
 10
60.6536312849
 20
164.4245810056
 30
0.0
 11
69.0335195531
 21
153.8100558659
 31
0.0
  0
LINE
  5
CF
330
1F
100
AcDbEntity
  8
0
  6
Continuous
 62
     7
370
    25
100
AcDbLine
 10
52.2737430168
 20
153.8100558659
 30
0.0
 11
60.6536312849
 21
164.4245810056
 31
0.0
  0
LINE
  5
D0
330
1F
100
AcDbEntity
  8
0
  6
Continuous
 62
     7
370
    25
100
AcDbLine
 10
91.3798882682
 20
164.4245810056
 30
0.0
 11
74.6201117318
 21
164.4245810056
 31
0.0
  0
LINE
  5
D1
330
1F
100
AcDbEntity
  8
0
  6
Continuous
 62
     7
370
    25
100
AcDbLine
 10
74.6201117318
 20
164.4245810056
 30
0.0
 11
83.0
 21
153.8100558659
 31
0.0
  0
LINE
  5
D2
330
1F
100
AcDbEntity
  8
0
  6
Continuous
 62
     7
370
    25
100
AcDbLine
 10
83.0
 20
153.8100558659
 30
0.0
 11
91.3798882682
 21
164.4245810056
 31
0.0
  0
LINE
  5
D3
330
1F
100
AcDbEntity
  8
0
  6
Continuous
 62
     7
370
    25
100
AcDbLine
 10
96.9664804469
 20
153.8100558659
 30
0.0
 11
105.3463687151
 21
164.4245810056
 31
0.0
  0
LINE
  5
D4
330
1F
100
AcDbEntity
  8
0
  6
Continuous
 62
     7
370
    25
100
AcDbLine
 10
113.7262569832
 20
153.8100558659
 30
0.0
 11
96.9664804469
 21
153.8100558659
 31
0.0
  0
LINE
  5
D5
330
1F
100
AcDbEntity
  8
0
  6
Continuous
 62
     7
370
    25
100
AcDbLine
 10
105.3463687151
 20
164.4245810056
 30
0.0
 11
113.7262569832
 21
153.8100558659
 31
0.0
  0
LINE
  5
D6
330
1F
100
AcDbEntity
  8
0
  6
Continuous
 62
     7
370
    25
100
AcDbLine
 10
49.4804469274
 20
170.5698324022
 30
0.0
 11
116.5195530726
 21
170.5698324022
 31
0.0
  0
LINE
  5
D7
330
1F
100
AcDbEntity
  8
0
  6
Continuous
 62
     7
370
    25
100
AcDbLine
 10
116.5195530726
 20
170.5698324022
 30
0.0
 11
116.5195530726
 21
151.0167597765
 31
0.0
  0
LINE
  5
D8
330
1F
100
AcDbEntity
  8
0
  6
HIDDEN
 62
     7
370
    18
100
AcDbLine
 10
50.5977653631
 20
153.251396648
 30
0.0
 11
50.5977653631
 21
167.217877095
 31
0.0
  0
ARC
  5
D9
330
1F
100
AcDbEntity
  8
0
  6
HIDDEN
 62
     7
370
    18
100
AcDbCircle
 10
70.1508379888
 20
167.217877095
 30
0.0
 40
0.558659217877107
100
AcDbArc
 50
0.0
 51
90.0
  0
LINE
  5
DA
330
1F
100
AcDbEntity
  8
0
  6
HIDDEN
 62
     7
370
    18
100
AcDbLine
 10
70.7094972067
 20
167.217877095
 30
0.0
 11
70.7094972067
 21
153.251396648
 31
0.0
  0
LINE
  5
DB
330
1F
100
AcDbEntity
  8
0
  6
HIDDEN
 62
     7
370
    18
100
AcDbLine
 10
51.156424581
 20
167.7765363128
 30
0.0
 11
70.1508379888
 21
167.7765363128
 31
0.0
  0
LINE
  5
DC
330
1F
100
AcDbEntity
  8
0
  6
HIDDEN
 62
     7
370
    18
100
AcDbLine
 10
73.5027932961
 20
167.7765363128
 30
0.0
 11
92.4972067039
 21
167.7765363128
 31
0.0
  0
LINE
  5
DD
330
1F
100
AcDbEntity
  8
0
  6
HIDDEN
 62
     7
370
    18
100
AcDbLine
 10
93.0558659218
 20
167.217877095
 30
0.0
 11
93.0558659218
 21
153.251396648
 31
0.0
  0
ARC
  5
DE
330
1F
100
AcDbEntity
  8
0
  6
HIDDEN
 62
     7
370
    18
100
AcDbCircle
 10
92.4972067039
 20
167.217877095
 30
0.0
 40
0.558659217877107
100
AcDbArc
 50
0.0
 51
90.0
  0
LINE
  5
DF
330
1F
100
AcDbEntity
  8
0
  6
HIDDEN
 62
     7
370
    18
100
AcDbLine
 10
72.9441340782
 20
153.251396648
 30
0.0
 11
72.9441340782
 21
167.217877095
 31
0.0
  0
ARC
  5
E0
330
1F
100
AcDbEntity
  8
0
  6
HIDDEN
 62
     7
370
    18
100
AcDbCircle
 10
73.5027932961
 20
167.217877095
 30
0.0
 40
0.558659217877107
100
AcDbArc
 50
90.0
 51
180.0
  0
LINE
  5
E1
330
1F
100
AcDbEntity
  8
0
  6
HIDDEN
 62
     7
370
    18
100
AcDbLine
 10
95.8491620112
 20
167.7765363128
 30
0.0
 11
114.843575419
 21
167.7765363128
 31
0.0
  0
LINE
  5
E2
330
1F
100
AcDbEntity
  8
0
  6
HIDDEN
 62
     7
370
    18
100
AcDbLine
 10
95.2905027933
 20
153.251396648
 30
0.0
 11
95.2905027933
 21
167.217877095
 31
0.0
  0
ARC
  5
E3
330
1F
100
AcDbEntity
  8
0
  6
HIDDEN
 62
     7
370
    18
100
AcDbCircle
 10
114.843575419
 20
167.217877095
 30
0.0
 40
0.558659217877107
100
AcDbArc
 50
0.0
 51
90.0
  0
LINE
  5
E4
330
1F
100
AcDbEntity
  8
0
  6
HIDDEN
 62
     7
370
    18
100
AcDbLine
 10
115.4022346369
 20
167.217877095
 30
0.0
 11
115.4022346369
 21
153.251396648
 31
0.0
  0
ARC
  5
E5
330
1F
100
AcDbEntity
  8
0
  6
HIDDEN
 62
     7
370
    18
100
AcDbCircle
 10
95.8491620112
 20
167.217877095
 30
0.0
 40
0.558659217877107
100
AcDbArc
 50
90.0
 51
180.0
  0
ARC
  5
E6
330
1F
100
AcDbEntity
  8
0
  6
HIDDEN
 62
     7
370
    18
100
AcDbCircle
 10
51.156424581
 20
167.217877095
 30
0.0
 40
0.558659217877107
100
AcDbArc
 50
90.0
 51
180.0
  0
ARC
  5
E7
330
1F
100
AcDbEntity
  8
0
  6
HIDDEN
 62
     7
370
    18
100
AcDbCircle
 10
65.1229050279
 20
153.251396648
 30
0.0
 40
5.586592178770942
100
AcDbArc
 50
270.0
 51
0.0
  0
ARC
  5
E8
330
1F
100
AcDbEntity
  8
0
  6
HIDDEN
 62
     7
370
    18
100
AcDbCircle
 10
100.8770949721
 20
153.251396648
 30
0.0
 40
5.586592178770942
100
AcDbArc
 50
180.0
 51
270.0
  0
ARC
  5
E9
330
1F
100
AcDbEntity
  8
0
  6
HIDDEN
 62
     7
370
    18
100
AcDbCircle
 10
87.469273743
 20
153.251396648
 30
0.0
 40
5.586592178770957
100
AcDbArc
 50
270.0
 51
0.0
  0
ARC
  5
EA
330
1F
100
AcDbEntity
  8
0
  6
HIDDEN
 62
     7
370
    18
100
AcDbCircle
 10
78.530726257
 20
153.251396648
 30
0.0
 40
5.586592178770957
100
AcDbArc
 50
180.0
 51
270.0
  0
ARC
  5
EB
330
1F
100
AcDbEntity
  8
0
  6
HIDDEN
 62
     7
370
    18
100
AcDbCircle
 10
109.8156424581
 20
153.251396648
 30
0.0
 40
5.586592178770957
100
AcDbArc
 50
270.0
 51
0.0
  0
ARC
  5
EC
330
1F
100
AcDbEntity
  8
0
  6
HIDDEN
 62
     7
370
    18
100
AcDbCircle
 10
56.1843575419
 20
153.251396648
 30
0.0
 40
5.586592178770957
100
AcDbArc
 50
180.0
 51
270.0
  0
LINE
  5
ED
330
1F
100
AcDbEntity
  8
0
  6
HIDDEN
 62
     7
370
    18
100
AcDbLine
 10
109.8156424581
 20
147.6648044693
 30
0.0
 11
100.8770949721
 21
147.6648044693
 31
0.0
  0
LINE
  5
EE
330
1F
100
AcDbEntity
  8
0
  6
HIDDEN
 62
     7
370
    18
100
AcDbLine
 10
65.1229050279
 20
147.6648044693
 30
0.0
 11
56.1843575419
 21
147.6648044693
 31
0.0
  0
LINE
  5
EF
330
1F
100
AcDbEntity
  8
0
  6
HIDDEN
 62
     7
370
    18
100
AcDbLine
 10
87.469273743
 20
147.6648044693
 30
0.0
 11
78.530726257
 21
147.6648044693
 31
0.0
  0
LINE
  5
F0
330
1F
100
AcDbEntity
  8
0
  6
HIDDEN
 62
     7
370
    18
100
AcDbLine
 10
50.5977653631
 20
153.8100558659
 30
0.0
 11
49.4804469274
 21
153.8100558659
 31
0.0
  0
LINE
  5
F1
330
1F
100
AcDbEntity
  8
0
  6
HIDDEN
 62
     7
370
    18
100
AcDbLine
 10
95.2905027933
 20
153.8100558659
 30
0.0
 11
93.0558659218
 21
153.8100558659
 31
0.0
  0
LINE
  5
F2
330
1F
100
AcDbEntity
  8
0
  6
HIDDEN
 62
     7
370
    18
100
AcDbLine
 10
72.9441340782
 20
153.8100558659
 30
0.0
 11
70.7094972067
 21
153.8100558659
 31
0.0
  0
LINE
  5
F3
330
1F
100
AcDbEntity
  8
0
  6
HIDDEN
 62
     7
370
    18
100
AcDbLine
 10
116.5195530726
 20
153.8100558659
 30
0.0
 11
115.4022346369
 21
153.8100558659
 31
0.0
  0
LINE
  5
F4
330
1F
100
AcDbEntity
  8
0
  6
HIDDEN
 62
     7
370
    18
100
AcDbLine
 10
116.5195530726
 20
164.4245810056
 30
0.0
 11
115.4022346369
 21
164.4245810056
 31
0.0
  0
LINE
  5
F5
330
1F
100
AcDbEntity
  8
0
  6
HIDDEN
 62
     7
370
    18
100
AcDbLine
 10
95.2905027933
 20
164.4245810056
 30
0.0
 11
93.0558659218
 21
164.4245810056
 31
0.0
  0
LINE
  5
F6
330
1F
100
AcDbEntity
  8
0
  6
HIDDEN
 62
     7
370
    18
100
AcDbLine
 10
72.9441340782
 20
164.4245810056
 30
0.0
 11
70.7094972067
 21
164.4245810056
 31
0.0
  0
LINE
  5
F7
330
1F
100
AcDbEntity
  8
0
  6
HIDDEN
 62
     7
370
    18
100
AcDbLine
 10
50.5977653631
 20
164.4245810056
 30
0.0
 11
49.4804469274
 21
164.4245810056
 31
0.0
  0
LINE
  5
F8
330
1F
100
AcDbEntity
  8
0
  6
HIDDEN
 62
     7
370
    18
100
AcDbLine
 10
73.5027932961
 20
167.7765363128
 30
0.0
 11
70.1508379888
 21
167.7765363128
 31
0.0
  0
LINE
  5
F9
330
1F
100
AcDbEntity
  8
0
  6
HIDDEN
 62
     7
370
    18
100
AcDbLine
 10
95.8491620112
 20
167.7765363128
 30
0.0
 11
92.4972067039
 21
167.7765363128
 31
0.0
  0
LINE
  5
FA
330
1F
100
AcDbEntity
  8
0
  6
HIDDEN
 62
     7
370
    18
100
AcDbLine
 10
50.5977653631
 20
164.9832402235
 30
0.0
 11
49.4804469274
 21
164.9832402235
 31
0.0
  0
LINE
  5
FB
330
1F
100
AcDbEntity
  8
0
  6
HIDDEN
 62
     7
370
    18
100
AcDbLine
 10
116.5195530726
 20
164.9832402235
 30
0.0
 11
115.4022346369
 21
164.9832402235
 31
0.0
  0
SPLINE
  5
FC
330
1F
100
AcDbEntity
  8
0
  6
HIDDEN
 62
     7
370
    18
100
AcDbSpline
210
0.0
220
0.0
230
1.0
 70
     8
 71
     3
 72
    14
 73
    10
 74
     0
 42
0.00000001
 43
0.00000001
 40
0.0
 40
0.0
 40
0.0
 40
0.0
 40
0.25
 40
0.25
 40
0.5
 40
0.5
 40
0.75
 40
0.75
 40
1.0
 40
1.0
 40
1.0
 40
1.0
 10
72.3854748603352
 20
164.9832402234637
 30
0.0
 10
72.45131610663404
 20
164.9832402234637
 30
0.0
 10
72.52234892473878
 20
164.9952405021615
 30
0.0
 10
72.6598866474378
 20
165.0496914808478
 30
0.0
 10
72.72596533797646
 20
165.0923264763103
 30
0.0
 10
72.83504782536991
 20
165.2014089637048
 30
0.0
 10
72.87768282082875
 20
165.2674876542429
 30
0.0
 10
72.9321337995173
 20
165.4050253769408
 30
0.0
 10
72.94413407821229
 20
165.4760581950498
 30
0.0
 10
72.94413407821229
 20
165.5418994413408
 30
0.0
  0
SPLINE
  5
FD
330
1F
100
AcDbEntity
  8
0
  6
HIDDEN
 62
     7
370
    18
100
AcDbSpline
210
0.0
220
0.0
230
1.0
 70
    24
 71
     3
 72
    12
 73
     8
 74
     0
 42
0.00000001
 43
0.00000001
 40
0.0
 40
0.0
 40
0.0
 40
0.0
 40
0.25
 40
0.25
 40
0.5
 40
0.5
 40
1.0
 40
1.0
 40
1.0
 40
1.0
 10
72.3854748603352
 20
164.9832402234636
 30
0.0
 10
72.3854748603352
 20
164.9832402234625
 30
0.0
 10
71.81107790338562
 20
164.9832402234638
 30
0.0
 10
69.69082102370207
 20
164.9832402234639
 30
0.0
 10
68.14486708005813
 20
164.9832402234638
 30
0.0
 10
62.32519058018618
 20
164.9832402234637
 30
0.0
 10
56.86891788639918
 20
164.9832402234633
 30
0.0
 10
50.59776536313016
 20
164.9832402234638
 30
0.0
  0
SPLINE
  5
FE
330
1F
100
AcDbEntity
  8
0
  6
HIDDEN
 62
     7
370
    18
100
AcDbSpline
210
0.0
220
0.0
230
1.0
 70
     8
 71
     3
 72
    14
 73
    10
 74
     0
 42
0.00000001
 43
0.00000001
 40
0.0
 40
0.0
 40
0.0
 40
0.0
 40
0.25
 40
0.25
 40
0.5
 40
0.5
 40
0.75
 40
0.75
 40
1.0
 40
1.0
 40
1.0
 40
1.0
 10
93.6145251396648
 20
164.9832402234637
 30
0.0
 10
93.54868389337379
 20
164.9832402234637
 30
0.0
 10
93.47765107526484
 20
164.9952405021615
 30
0.0
 10
93.34011335256695
 20
165.0496914808478
 30
0.0
 10
93.2740346620288
 20
165.0923264763103
 30
0.0
 10
93.16495217463444
 20
165.2014089637047
 30
0.0
 10
93.12231717917221
 20
165.2674876542423
 30
0.0
 10
93.06786620048567
 20
165.4050253769401
 30
0.0
 10
93.05586592178771
 20
165.4760581950495
 30
0.0
 10
93.05586592178771
 20
165.5418994413408
 30
0.0
  0
SPLINE
  5
FF
330
1F
100
AcDbEntity
  8
0
  6
HIDDEN
 62
     7
370
    18
100
AcDbSpline
210
0.0
220
0.0
230
1.0
 70
    24
 71
     3
 72
    12
 73
     8
 74
     0
 42
0.00000001
 43
0.00000001
 40
0.0
 40
0.0
 40
0.0
 40
0.0
 40
0.25
 40
0.25
 40
0.5
 40
0.5
 40
1.0
 40
1.0
 40
1.0
 40
1.0
 10
93.61452513966455
 20
164.9832402234638
 30
0.0
 10
93.61452513966009
 20
164.9832402234654
 30
0.0
 10
94.18892209661753
 20
164.9832402234636
 30
0.0
 10
96.30917897630087
 20
164.9832402234636
 30
0.0
 10
97.85513291994386
 20
164.9832402234637
 30
0.0
 10
103.6748094198135
 20
164.9832402234638
 30
0.0
 10
109.1310821135984
 20
164.983240223464
 30
0.0
 10
115.4022346368703
 20
164.9832402234636
 30
0.0
  0
LINE
  5
100
330
1F
100
AcDbEntity
  8
0
  6
HIDDEN
 62
     7
370
    18
100
AcDbLine
 10
72.9441340782
 20
167.217877095
 30
0.0
 11
72.9441340782
 21
167.7765363128
 31
0.0
  0
LINE
  5
101
330
1F
100
AcDbEntity
  8
0
  6
HIDDEN
 62
     7
370
    18
100
AcDbLine
 10
93.0558659218
 20
167.217877095
 30
0.0
 11
93.0558659218
 21
167.7765363128
 31
0.0
  0
LINE
  5
102
330
1F
100
AcDbEntity
  8
0
  6
HIDDEN
 62
     7
370
    18
100
AcDbLine
 10
94.173171179
 20
170.5698324022
 30
0.0
 11
94.173171179
 21
164.9832402235
 31
0.0
  0
LINE
  5
103
330
1F
100
AcDbEntity
  8
0
  6
HIDDEN
 62
     7
370
    18
100
AcDbLine
 10
71.826828821
 20
170.5698324022
 30
0.0
 11
71.826828821
 21
164.9832402235
 31
0.0
  0
LINE
  5
104
330
1F
100
AcDbEntity
  8
0
  6
HIDDEN
 62
     7
370
    18
100
AcDbLine
 10
78.1237841282
 20
167.7765363128
 30
0.0
 11
78.1237841282
 21
170.5698324022
 31
0.0
  0
LINE
  5
105
330
1F
100
AcDbEntity
  8
0
  6
HIDDEN
 62
     7
370
    18
100
AcDbLine
 10
87.8762158718
 20
170.5698324022
 30
0.0
 11
87.8762158718
 21
167.7765363128
 31
0.0
  0
LINE
  5
106
330
1F
100
AcDbEntity
  8
0
  6
HIDDEN
 62
     7
370
    18
100
AcDbLine
 10
89.4245810056
 20
167.7765363128
 30
0.0
 11
89.4245810056
 21
170.5698324022
 31
0.0
  0
LINE
  5
107
330
1F
100
AcDbEntity
  8
0
  6
HIDDEN
 62
     7
370
    18
100
AcDbLine
 10
76.5754189944
 20
170.5698324022
 30
0.0
 11
76.5754189944
 21
167.7765363128
 31
0.0
  0
LINE
  5
108
330
1F
100
AcDbEntity
  8
0
  6
Continuous
 62
     7
370
    25
100
AcDbLine
 10
235.5698324022
 20
107.0
 30
0.0
 11
235.5698324022
 21
42.7541899441
 31
0.0
  0
LINE
  5
109
330
1F
100
AcDbEntity
  8
0
  6
Continuous
 62
     7
370
    25
100
AcDbLine
 10
235.5698324022
 20
42.7541899441
 30
0.0
 11
229.9832402235
 21
42.7541899441
 31
0.0
  0
LINE
  5
10A
330
1F
100
AcDbEntity
  8
0
  6
Continuous
 62
     7
370
    25
100
AcDbLine
 10
229.9832402235
 20
42.7541899441
 30
0.0
 11
229.9832402235
 21
58.6201117318
 31
0.0
  0
LINE
  5
10B
330
1F
100
AcDbEntity
  8
0
  6
Continuous
 62
     7
370
    25
100
AcDbLine
 10
216.0167597765
 20
58.6201117318
 30
0.0
 11
229.9832402235
 21
58.6201117318
 31
0.0
  0
LINE
  5
10C
330
1F
100
AcDbEntity
  8
0
  6
Continuous
 62
     7
370
    25
100
AcDbLine
 10
235.5698324022
 20
107.0
 30
0.0
 11
216.0167597765
 21
107.0
 31
0.0
  0
LINE
  5
10D
330
1F
100
AcDbEntity
  8
0
  6
Continuous
 62
     7
370
    25
100
AcDbLine
 10
218.8100558659
 20
86.2737430167
 30
0.0
 11
218.8100558659
 21
103.5921787709
 31
0.0
  0
LINE
  5
10E
330
1F
100
AcDbEntity
  8
0
  6
Continuous
 62
     7
370
    25
100
AcDbLine
 10
229.4245810056
 20
94.9329608938
 30
0.0
 11
218.8100558659
 21
86.2737430167
 31
0.0
  0
LINE
  5
10F
330
1F
100
AcDbEntity
  8
0
  6
Continuous
 62
     7
370
    25
100
AcDbLine
 10
218.8100558659
 20
103.5921787709
 30
0.0
 11
229.4245810056
 21
94.9329608938
 31
0.0
  0
LINE
  5
110
330
1F
100
AcDbEntity
  8
0
  6
Continuous
 62
     7
370
    25
100
AcDbLine
 10
229.4245810056
 20
73.7039106145
 30
0.0
 11
229.4245810056
 21
91.0223463687
 31
0.0
  0
LINE
  5
111
330
1F
100
AcDbEntity
  8
0
  6
Continuous
 62
     7
370
    25
100
AcDbLine
 10
229.4245810056
 20
91.0223463687
 30
0.0
 11
218.8100558659
 21
82.3631284916
 31
0.0
  0
LINE
  5
112
330
1F
100
AcDbEntity
  8
0
  6
Continuous
 62
     7
370
    25
100
AcDbLine
 10
218.8100558659
 20
82.3631284916
 30
0.0
 11
229.4245810056
 21
73.7039106145
 31
0.0
  0
LINE
  5
113
330
1F
100
AcDbEntity
  8
0
  6
Continuous
 62
     7
370
    25
100
AcDbLine
 10
218.8100558659
 20
78.4525139665
 30
0.0
 11
229.4245810056
 21
69.7932960894
 31
0.0
  0
LINE
  5
114
330
1F
100
AcDbEntity
  8
0
  6
Continuous
 62
     7
370
    25
100
AcDbLine
 10
218.8100558659
 20
61.1340782123
 30
0.0
 11
218.8100558659
 21
78.4525139665
 31
0.0
  0
LINE
  5
115
330
1F
100
AcDbEntity
  8
0
  6
Continuous
 62
     7
370
    25
100
AcDbLine
 10
229.4245810056
 20
69.7932960894
 30
0.0
 11
218.8100558659
 21
61.1340782123
 31
0.0
  0
SPLINE
  5
116
330
1F
100
AcDbEntity
  8
0
  6
Continuous
 62
     7
370
    25
100
AcDbSpline
210
0.0
220
0.0
230
1.0
 70
    24
 71
     3
 72
     8
 73
     4
 74
     0
 42
0.00000001
 43
0.00000001
 40
0.0
 40
0.0
 40
0.0
 40
0.0
 40
1.0
 40
1.0
 40
1.0
 40
1.0
 10
235.5698324022347
 20
10.12849162011173
 30
0.0
 10
235.5698324022347
 20
23.53631284916201
 30
0.0
 10
235.5698324022347
 20
36.94413407821229
 30
0.0
 10
235.5698324022347
 20
42.75418994413408
 30
0.0
  0
LINE
  5
117
330
1F
100
AcDbEntity
  8
0
  6
Continuous
 62
     7
370
    25
100
AcDbLine
 10
235.5698324022
 20
10.1284916201
 30
0.0
 11
229.9832402235
 21
10.1284916201
 31
0.0
  0
SPLINE
  5
118
330
1F
100
AcDbEntity
  8
0
  6
Continuous
 62
     7
370
    25
100
AcDbSpline
210
0.0
220
0.0
230
1.0
 70
    24
 71
     3
 72
    18
 73
    14
 74
     0
 42
0.00000001
 43
0.00000001
 40
0.0
 40
0.0
 40
0.0
 40
0.0
 40
0.2500000000000001
 40
0.2500000000000001
 40
0.5000000000000002
 40
0.5000000000000002
 40
0.6250000000000001
 40
0.6250000000000001
 40
0.7500000000000001
 40
0.7500000000000001
 40
0.875
 40
0.875
 40
1.0
 40
1.0
 40
1.0
 40
1.0
 10
229.9832402234637
 20
42.75418994413408
 30
0.0
 10
229.9832402234637
 20
41.32398575795646
 30
0.0
 10
229.9832402234637
 20
39.43759158823541
 30
0.0
 10
229.9832402234637
 20
34.97572297354064
 30
0.0
 10
229.9832402234637
 20
32.39957729449557
 30
0.0
 10
229.9832402234637
 20
28.1424979937075
 30
0.0
 10
229.9832402234637
 20
26.65764648693758
 30
0.0
 10
229.9832402234637
 20
23.57662718952917
 30
0.0
 10
229.9832402234637
 20
21.98010909492619
 30
0.0
 10
229.9832402234637
 20
18.7005768671353
 30
0.0
 10
229.9832402234637
 20
17.01730123516175
 30
0.0
 10
229.9832402234637
 20
13.59912067022127
 30
0.0
 10
229.9832402234637
 20
11.86417429475477
 30
0.0
 10
229.9832402234637
 20
10.12849162011172
 30
0.0
  0
LINE
  5
119
330
1F
100
AcDbEntity
  8
0
  6
Continuous
 62
     7
370
    25
100
AcDbLine
 10
210.4301675978
 20
107.0
 30
0.0
 11
210.4301675978
 21
58.6201117318
 31
0.0
  0
LINE
  5
11A
330
1F
100
AcDbEntity
  8
0
  6
Continuous
 62
     7
370
    25
100
AcDbLine
 10
216.0167597765
 20
58.6201117318
 30
0.0
 11
210.4301675978
 21
58.6201117318
 31
0.0
  0
LINE
  5
11B
330
1F
100
AcDbEntity
  8
0
  6
Continuous
 62
     7
370
    25
100
AcDbLine
 10
216.0167597765
 20
107.0
 30
0.0
 11
210.4301675978
 21
107.0
 31
0.0
  0
LINE
  5
11C
330
1F
100
AcDbEntity
  8
0
  6
Continuous
 62
     7
370
    25
100
AcDbLine
 10
235.5698324022
 20
7.0
 30
0.0
 11
232.7765363128
 21
7.0
 31
0.0
  0
LINE
  5
11D
330
1F
100
AcDbEntity
  8
0
  6
Continuous
 62
     7
370
    25
100
AcDbLine
 10
232.7765363128
 20
7.9536910038
 30
0.0
 11
232.7765363128
 21
7.0
 31
0.0
  0
LINE
  5
11E
330
1F
100
AcDbEntity
  8
0
  6
Continuous
 62
     7
370
    25
100
AcDbLine
 10
235.5698324022
 20
7.0
 30
0.0
 11
235.5698324022
 21
7.9536910038
 31
0.0
  0
LINE
  5
11F
330
1F
100
AcDbEntity
  8
0
  6
Continuous
 62
     7
370
    25
100
AcDbLine
 10
232.7765363128
 20
7.9536910038
 30
0.0
 11
232.7765363128
 21
9.1748006164
 31
0.0
  0
LINE
  5
120
330
1F
100
AcDbEntity
  8
0
  6
Continuous
 62
     7
370
    25
100
AcDbLine
 10
235.5698324022
 20
7.9536910038
 30
0.0
 11
235.5698324022
 21
9.1748006164
 31
0.0
  0
LINE
  5
121
330
1F
100
AcDbEntity
  8
0
  6
Continuous
 62
     7
370
    25
100
AcDbLine
 10
232.7765363128
 20
9.1748006164
 30
0.0
 11
232.7765363128
 21
10.1284916201
 31
0.0
  0
LINE
  5
122
330
1F
100
AcDbEntity
  8
0
  6
Continuous
 62
     7
370
    25
100
AcDbLine
 10
235.5698324022
 20
10.1284916201
 30
0.0
 11
235.5698324022
 21
9.1748006164
 31
0.0
  0
LINE
  5
123
330
1F
100
AcDbEntity
  8
0
  6
Continuous
 62
     7
370
    25
100
AcDbLine
 10
229.9832402235
 20
42.6882325187
 30
0.0
 11
229.9832402235
 21
42.7541899441
 31
0.0
  0
LINE
  5
124
330
1F
100
AcDbEntity
  8
0
  6
HIDDEN
 62
     7
370
    18
100
AcDbLine
 10
232.217877095
 20
105.8826815642
 30
0.0
 11
218.251396648
 21
105.8826815642
 31
0.0
  0
SPLINE
  5
125
330
1F
100
AcDbEntity
  8
0
  6
HIDDEN
 62
     7
370
    18
100
AcDbSpline
210
0.0
220
0.0
230
1.0
 70
     8
 71
     3
 72
    12
 73
     8
 74
     0
 42
0.00000001
 43
0.00000001
 40
0.0
 40
0.0
 40
0.0
 40
0.0
 40
0.2499999999999949
 40
0.2499999999999949
 40
0.4999999999999898
 40
0.4999999999999898
 40
1.0
 40
1.0
 40
1.0
 40
1.0
 10
232.7765363128492
 20
43.03043621319609
 30
0.0
 10
232.7765363128492
 20
43.069763704123
 30
0.0
 10
232.7605513752827
 20
43.10877106650847
 30
0.0
 10
232.7006609556316
 20
43.17902919251402
 30
0.0
 10
232.6569593080332
 20
43.21023607471279
 30
0.0
 10
232.4987126710014
 20
43.28615388277301
 30
0.0
 10
232.3579944338478
 20
43.31284915028193
 30
0.0
 10
232.2178771893207
 20
43.31284916201118
 30
0.0
  0
LINE
  5
126
330
1F
100
AcDbEntity
  8
0
  6
HIDDEN
 62
     7
370
    18
100
AcDbLine
 10
232.7765363128
 20
105.8826815642
 30
0.0
 11
232.7765363128
 21
43.0304362132
 31
0.0
  0
LINE
  5
127
330
1F
100
AcDbEntity
  8
0
  6
HIDDEN
 62
     7
370
    18
100
AcDbLine
 10
232.7765363128
 20
105.8826815642
 30
0.0
 11
232.217877095
 21
105.8826815642
 31
0.0
  0
LINE
  5
128
330
1F
100
AcDbEntity
  8
0
  6
HIDDEN
 62
     7
370
    18
100
AcDbLine
 10
230.5418994413
 20
43.312849162
 30
0.0
 11
232.217877095
 21
43.312849162
 31
0.0
  0
SPLINE
  5
129
330
1F
100
AcDbEntity
  8
0
  6
HIDDEN
 62
     7
370
    18
100
AcDbSpline
210
0.0
220
0.0
230
1.0
 70
     8
 71
     3
 72
    14
 73
    10
 74
     0
 42
0.00000001
 43
0.00000001
 40
0.0
 40
0.0
 40
0.0
 40
0.0
 40
0.25
 40
0.25
 40
0.5
 40
0.5
 40
0.75
 40
0.75
 40
1.0
 40
1.0
 40
1.0
 40
1.0
 10
229.9832402234637
 20
42.68823251867934
 30
0.0
 10
229.9832402234637
 20
42.76197650589772
 30
0.0
 10
229.9952394973849
 20
42.84148294139263
 30
0.0
 10
230.0496859510897
 20
42.99532437069178
 30
0.0
 10
230.0923175622594
 20
43.06918326335832
 30
0.0
 10
230.2013965723492
 20
43.19105707486539
 30
0.0
 10
230.2674755754997
 20
43.23866355090021
 30
0.0
 10
230.4050179847976
 20
43.29945630803186
 30
0.0
 10
230.4760548018244
 20
43.31284929855028
 30
0.0
 10
230.5418994413408
 20
43.31284929855028
 30
0.0
  0
LINE
  5
12A
330
1F
100
AcDbEntity
  8
0
  6
HIDDEN
 62
     7
370
    18
100
AcDbLine
 10
212.6648044693
 20
58.6201117318
 30
0.0
 11
212.6648044693
 21
105.8826815642
 31
0.0
  0
LINE
  5
12B
330
1F
100
AcDbEntity
  8
0
  6
HIDDEN
 62
     7
370
    18
100
AcDbLine
 10
212.6648044693
 20
105.8826815642
 30
0.0
 11
218.251396648
 21
105.8826815642
 31
0.0
  0
SPLINE
  5
12C
330
1F
100
AcDbEntity
  8
0
  6
HIDDEN
 62
     7
370
    18
100
AcDbSpline
210
0.0
220
0.0
230
1.0
 70
    24
 71
     3
 72
     8
 73
     4
 74
     0
 42
0.00000001
 43
0.00000001
 40
0.0
 40
0.0
 40
0.0
 40
0.0
 40
0.9854515404291226
 40
0.9854515404291226
 40
0.9854515404291226
 40
0.9854515404291226
 10
232.7765363128492
 20
10.12849162011173
 30
0.0
 10
232.7765363128492
 20
23.34124970407762
 30
0.0
 10
232.7765363128492
 20
36.55400778804352
 30
0.0
 10
232.7765363128492
 20
43.03043621319615
 30
0.0
  0
LINE
  5
12D
330
1F
100
AcDbEntity
  8
0
  6
HIDDEN
 62
     7
370
    18
100
AcDbLine
 10
218.8100558659
 20
107.0
 30
0.0
 11
218.8100558659
 21
105.8826815642
 31
0.0
  0
LINE
  5
12E
330
1F
100
AcDbEntity
  8
0
  6
HIDDEN
 62
     7
370
    18
100
AcDbLine
 10
229.4245810056
 20
107.0
 30
0.0
 11
229.4245810056
 21
105.8826815642
 31
0.0
  0
LINE
  5
12F
330
1F
100
AcDbEntity
  8
0
  6
HIDDEN
 62
     7
370
    18
100
AcDbLine
 10
232.217877095
 20
58.6201117318
 30
0.0
 11
232.7765363128
 21
58.6201117318
 31
0.0
  0
LINE
  5
130
330
1F
100
AcDbEntity
  8
0
  6
HIDDEN
 62
     7
370
    18
100
AcDbLine
 10
229.9832402235
 20
58.6201117318
 30
0.0
 11
232.217877095
 21
58.6201117318
 31
0.0
  0
ENDSEC
  0
SECTION
  2
OBJECTS
  0
DICTIONARY
  5
C
330
0
100
AcDbDictionary
281
     1
  3
ACAD_GROUP
350
D
  3
ACAD_LAYOUT
350
1A
  3
ACAD_MLINESTYLE
350
17
  3
ACAD_PLOTSETTINGS
350
19
  3
ACAD_PLOTSTYLENAME
350
E
  3
ACAD_SCALELIST
350
47
  3
DWGPROPS
350
131
  0
DICTIONARY
  5
D
102
{ACAD_REACTORS
330
C
102
}
330
C
100
AcDbDictionary
281
     1
  0
DICTIONARY
  5
1A
102
{ACAD_REACTORS
330
C
102
}
330
C
100
AcDbDictionary
281
     1
  3
Layout1
350
1E
  3
Layout2
350
26
  3
Model
350
22
  0
DICTIONARY
  5
17
102
{ACAD_REACTORS
330
C
102
}
330
C
100
AcDbDictionary
281
     1
  3
Standard
350
18
  0
DICTIONARY
  5
19
102
{ACAD_REACTORS
330
C
102
}
330
C
100
AcDbDictionary
281
     1
  0
ACDBDICTIONARYWDFLT
  5
E
102
{ACAD_REACTORS
330
C
102
}
330
C
100
AcDbDictionary
281
     1
  3
Normal
350
F
100
AcDbDictionaryWithDefault
340
F
  0
DICTIONARY
  5
47
102
{ACAD_REACTORS
330
C
102
}
330
C
100
AcDbDictionary
281
     1
  3
A0
350
48
  3
A1
350
49
  3
A2
350
4A
  3
A3
350
4B
  3
A4
350
4C
  3
A5
350
4D
  3
A6
350
4E
  3
A7
350
4F
  3
A8
350
50
  3
A9
350
51
  3
B0
350
52
  3
B1
350
53
  3
B2
350
54
  3
B3
350
55
  3
B4
350
56
  3
B5
350
57
  3
B6
350
58
  0
XRECORD
  5
131
102
{ACAD_REACTORS
330
C
102
}
330
C
100
AcDbXrecord
280
     1
  1
DWGPROPS COOKIE
  2

  3

  4

  6

  7

  8

  9

300
=
301
=
302
=
303
=
304
=
305
=
306
=
307
=
308
=
309
=
 40
0.0
 41
2461215.434681667
 42
2461215.43468184
  1

 90
        0
  0
LAYOUT
  5
1E
102
{ACAD_REACTORS
330
1A
102
}
330
1A
100
AcDbPlotSettings
  1

  2
none_device
  4

  6

 40
0.0
 41
0.0
 42
0.0
 43
0.0
 44
0.0
 45
0.0
 46
0.0
 47
0.0
 48
0.0
 49
0.0
140
0.0
141
0.0
142
1.0
143
1.0
 70
   688
 72
     1
 73
     0
 74
     5
  7

 75
    16
147
1.0
148
0.0
149
0.0
100
AcDbLayout
  1
Layout1
 70
     1
 71
     1
 10
0.0
 20
0.0
 11
420.0
 21
297.0
 12
0.0
 22
0.0
 32
0.0
 14
1.0000000000E+20
 24
1.0000000000E+20
 34
1.0000000000E+20
 15
-1.0000000000E+20
 25
-1.0000000000E+20
 35
-1.0000000000E+20
146
0.0
 13
0.0
 23
0.0
 33
0.0
 16
1.0
 26
0.0
 36
0.0
 17
0.0
 27
1.0
 37
0.0
 76
     0
330
1B
  0
LAYOUT
  5
26
102
{ACAD_REACTORS
330
1A
102
}
330
1A
100
AcDbPlotSettings
  1

  2
none_device
  4

  6

 40
0.0
 41
0.0
 42
0.0
 43
0.0
 44
0.0
 45
0.0
 46
0.0
 47
0.0
 48
0.0
 49
0.0
140
0.0
141
0.0
142
1.0
143
1.0
 70
   688
 72
     1
 73
     0
 74
     5
  7

 75
    16
147
1.0
148
0.0
149
0.0
100
AcDbLayout
  1
Layout2
 70
     1
 71
     2
 10
0.0
 20
0.0
 11
0.0
 21
0.0
 12
0.0
 22
0.0
 32
0.0
 14
0.0
 24
0.0
 34
0.0
 15
0.0
 25
0.0
 35
0.0
146
0.0
 13
0.0
 23
0.0
 33
0.0
 16
1.0
 26
0.0
 36
0.0
 17
0.0
 27
1.0
 37
0.0
 76
     0
330
23
  0
LAYOUT
  5
22
102
{ACAD_REACTORS
330
1A
102
}
330
1A
100
AcDbPlotSettings
  1

  2
none_device
  4
Letter_(8.50_x_11.00_Inches)
  6

 40
6.35
 41
6.35
 42
6.35000508
 43
6.35000508
 44
215.9
 45
279.4
 46
0.0
 47
0.0
 48
0.0
 49
0.0
140
0.0
141
0.0
142
1.0
143
1.0
 70
  1712
 72
     1
 73
     0
 74
     0
  7

 75
     0
147
1.0
148
0.0
149
0.0
100
AcDbLayout
  1
Model
 70
     1
 71
     0
 10
0.0
 20
0.0
 11
297.0
 21
210.0
 12
0.0
 22
0.0
 32
0.0
 14
0.0
 24
0.0
 34
0.0
 15
297.0
 25
210.0
 35
0.0
146
0.0
 13
0.0
 23
0.0
 33
0.0
 16
1.0
 26
0.0
 36
0.0
 17
0.0
 27
1.0
 37
0.0
 76
     0
330
1F
331
29
  0
MLINESTYLE
  5
18
102
{ACAD_REACTORS
330
17
102
}
330
17
100
AcDbMlineStyle
  2
Standard
 70
     0
  3

 62
   256
 51
90.0
 52
90.0
 71
     2
 49
0.5
 62
   256
  6
BYLAYER
 49
-0.5
 62
   256
  6
BYLAYER
  0
ACDBPLACEHOLDER
  5
F
102
{ACAD_REACTORS
330
E
102
}
330
E
  0
SCALE
  5
48
102
{ACAD_REACTORS
330
47
102
}
330
47
100
AcDbScale
 70
     0
300
1:1
140
1.0
141
1.0
290
     1
  0
SCALE
  5
49
102
{ACAD_REACTORS
330
47
102
}
330
47
100
AcDbScale
 70
     0
300
1:2
140
1.0
141
2.0
290
     0
  0
SCALE
  5
4A
102
{ACAD_REACTORS
330
47
102
}
330
47
100
AcDbScale
 70
     0
300
1:4
140
1.0
141
4.0
290
     0
  0
SCALE
  5
4B
102
{ACAD_REACTORS
330
47
102
}
330
47
100
AcDbScale
 70
     0
300
1:5
140
1.0
141
5.0
290
     0
  0
SCALE
  5
4C
102
{ACAD_REACTORS
330
47
102
}
330
47
100
AcDbScale
 70
     0
300
1:8
140
1.0
141
8.0
290
     0
  0
SCALE
  5
4D
102
{ACAD_REACTORS
330
47
102
}
330
47
100
AcDbScale
 70
     0
300
1:10
140
1.0
141
10.0
290
     0
  0
SCALE
  5
4E
102
{ACAD_REACTORS
330
47
102
}
330
47
100
AcDbScale
 70
     0
300
1:16
140
1.0
141
16.0
290
     0
  0
SCALE
  5
4F
102
{ACAD_REACTORS
330
47
102
}
330
47
100
AcDbScale
 70
     0
300
1:20
140
1.0
141
20.0
290
     0
  0
SCALE
  5
50
102
{ACAD_REACTORS
330
47
102
}
330
47
100
AcDbScale
 70
     0
300
1:30
140
1.0
141
30.0
290
     0
  0
SCALE
  5
51
102
{ACAD_REACTORS
330
47
102
}
330
47
100
AcDbScale
 70
     0
300
1:40
140
1.0
141
40.0
290
     0
  0
SCALE
  5
52
102
{ACAD_REACTORS
330
47
102
}
330
47
100
AcDbScale
 70
     0
300
1:50
140
1.0
141
50.0
290
     0
  0
SCALE
  5
53
102
{ACAD_REACTORS
330
47
102
}
330
47
100
AcDbScale
 70
     0
300
1:100
140
1.0
141
100.0
290
     0
  0
SCALE
  5
54
102
{ACAD_REACTORS
330
47
102
}
330
47
100
AcDbScale
 70
     0
300
2:1
140
2.0
141
1.0
290
     0
  0
SCALE
  5
55
102
{ACAD_REACTORS
330
47
102
}
330
47
100
AcDbScale
 70
     0
300
4:1
140
4.0
141
1.0
290
     0
  0
SCALE
  5
56
102
{ACAD_REACTORS
330
47
102
}
330
47
100
AcDbScale
 70
     0
300
8:1
140
8.0
141
1.0
290
     0
  0
SCALE
  5
57
102
{ACAD_REACTORS
330
47
102
}
330
47
100
AcDbScale
 70
     0
300
10:1
140
10.0
141
1.0
290
     0
  0
SCALE
  5
58
102
{ACAD_REACTORS
330
47
102
}
330
47
100
AcDbScale
 70
     0
300
100:1
140
100.0
141
1.0
290
     0
  0
ENDSEC
  0
EOF
