  0
SECTION
  2
HEADER
  9
$ACADVER
  1
AC1015
  9
$ACADMAINTVER
 70
     6
  9
$DWGCODEPAGE
  3
ANSI_936
  9
$INSBASE
 10
0.0
 20
0.0
 30
0.0
  9
$EXTMIN
 10
0.0
 20
0.0
 30
0.0
  9
$EXTMAX
 10
297.0
 20
210.0
 30
0.0
  9
$LIMMIN
 10
0.0
 20
0.0
  9
$LIMMAX
 10
297.0
 20
210.0
  9
$ORTHOMODE
 70
     0
  9
$REGENMODE
 70
     1
  9
$FILLMODE
 70
     1
  9
$QTEXTMODE
 70
     0
  9
$MIRRTEXT
 70
     1
  9
$LTSCALE
 40
1.0
  9
$ATTMODE
 70
     1
  9
$TEXTSIZE
 40
3.5
  9
$TRACEWID
 40
1.0
  9
$TEXTSTYLE
  7
Standard
  9
$CLAYER
  8
0
  9
$CELTYPE
  6
ByLayer
  9
$CECOLOR
 62
   256
  9
$CELTSCALE
 40
1.0
  9
$DISPSILH
 70
     0
  9
$DIMSCALE
 40
1.0
  9
$DIMASZ
 40
4.08
  9
$DIMEXO
 40
0.0
  9
$DIMDLI
 40
3.75
  9
$DIMRND
 40
0.0
  9
$DIMDLE
 40
0.0
  9
$DIMEXE
 40
2.0
  9
$DIMTP
 40
0.0
  9
$DIMTM
 40
0.0
  9
$DIMTXT
 40
3.5
  9
$DIMCEN
 40
2.5
  9
$DIMTSZ
 40
0.0
  9
$DIMTOL
 70
     0
  9
$DIMLIM
 70
     0
  9
$DIMTIH
 70
     1
  9
$DIMTOH
 70
     1
  9
$DIMSE1
 70
     0
  9
$DIMSE2
 70
     0
  9
$DIMTAD
 70
     1
  9
$DIMZIN
 70
     0
  9
$DIMBLK
  1

  9
$DIMASO
 70
     1
  9
$DIMSHO
 70
     1
  9
$DIMPOST
  1

  9
$DIMAPOST
  1

  9
$DIMALT
 70
     0
  9
$DIMALTD
 70
     3
  9
$DIMALTF
 40
0.0393700787
  9
$DIMLFAC
 40
2.0
  9
$DIMTOFL
 70
     1
  9
$DIMTVP
 40
0.0
  9
$DIMTIX
 70
     0
  9
$DIMSOXD
 70
     0
  9
$DIMSAH
 70
     0
  9
$DIMBLK1
  1

  9
$DIMBLK2
  1

  9
$DIMSTYLE
  2
ISO-25
  9
$DIMCLRD
 70
     0
  9
$DIMCLRE
 70
     0
  9
$DIMCLRT
 70
     0
  9
$DIMTFAC
 40
1.0
  9
$DIMGAP
 40
1.524
  9
$DIMJUST
 70
     0
  9
$DIMSD1
 70
     0
  9
$DIMSD2
 70
     0
  9
$DIMTOLJ
 70
     0
  9
$DIMTZIN
 70
     0
  9
$DIMALTZ
 70
     0
  9
$DIMALTTZ
 70
     0
  9
$DIMUPT
 70
     0
  9
$DIMDEC
 70
     2
  9
$DIMTDEC
 70
     2
  9
$DIMALTU
 70
     2
  9
$DIMALTTD
 70
     3
  9
$DIMTXSTY
  7
Standard
  9
$DIMAUNIT
 70
     0
  9
$DIMADEC
 70
     2
  9
$DIMALTRND
 40
0.0
  9
$DIMAZIN
 70
     0
  9
$DIMDSEP
 70
    44
  9
$DIMATFIT
 70
     3
  9
$DIMFRAC
 70
     0
  9
$DIMLDRBLK
  1

  9
$DIMLUNIT
 70
     2
  9
$DIMLWD
 70
    -2
  9
$DIMLWE
 70
    -2
  9
$DIMTMOVE
 70
     0
  9
$LUNITS
 70
     2
  9
$LUPREC
 70
     2
  9
$SKETCHINC
 40
1.0
  9
$FILLETRAD
 40
0.0
  9
$AUNITS
 70
     0
  9
$AUPREC
 70
     2
  9
$MENU
  1
.
  9
$ELEVATION
 40
0.0
  9
$PELEVATION
 40
0.0
  9
$THICKNESS
 40
0.0
  9
$LIMCHECK
 70
     0
  9
$CHAMFERA
 40
0.0
  9
$CHAMFERB
 40
0.0
  9
$CHAMFERC
 40
0.0
  9
$CHAMFERD
 40
0.0
  9
$SKPOLY
 70
     0
  9
$TDCREATE
 40
2461213.616834838
  9
$TDUCREATE
 40
2461213.283501505
  9
$TDUPDATE
 40
2461213.616835012
  9
$TDUUPDATE
 40
2461213.283501678
  9
$TDINDWG
 40
0.0000000116
  9
$TDUSRTIMER
 40
0.0000000116
  9
$USRTIMER
 70
     1
  9
$ANGBASE
 50
0.0
  9
$ANGDIR
 70
     0
  9
$PDMODE
 70
     0
  9
$PDSIZE
 40
-1.0
  9
$PLINEWID
 40
0.0
  9
$SPLFRAME
 70
     0
  9
$SPLINETYPE
 70
     6
  9
$SPLINESEGS
 70
     8
  9
$HANDSEED
  5
EC
  9
$SURFTAB1
 70
     6
  9
$SURFTAB2
 70
     6
  9
$SURFTYPE
 70
     6
  9
$SURFU
 70
     6
  9
$SURFV
 70
     6
  9
$UCSBASE
  2

  9
$UCSNAME
  2

  9
$UCSORG
 10
0.0
 20
0.0
 30
0.0
  9
$UCSXDIR
 10
1.0
 20
0.0
 30
0.0
  9
$UCSYDIR
 10
0.0
 20
1.0
 30
0.0
  9
$UCSORTHOREF
  2

  9
$UCSORTHOVIEW
 70
     0
  9
$UCSORGTOP
 10
0.0
 20
0.0
 30
0.0
  9
$UCSORGBOTTOM
 10
0.0
 20
0.0
 30
0.0
  9
$UCSORGLEFT
 10
0.0
 20
0.0
 30
0.0
  9
$UCSORGRIGHT
 10
0.0
 20
0.0
 30
0.0
  9
$UCSORGFRONT
 10
0.0
 20
0.0
 30
0.0
  9
$UCSORGBACK
 10
0.0
 20
0.0
 30
0.0
  9
$PUCSBASE
  2

  9
$PUCSNAME
  2

  9
$PUCSORG
 10
0.0
 20
0.0
 30
0.0
  9
$PUCSXDIR
 10
1.0
 20
0.0
 30
0.0
  9
$PUCSYDIR
 10
0.0
 20
1.0
 30
0.0
  9
$PUCSORTHOREF
  2

  9
$PUCSORTHOVIEW
 70
     0
  9
$PUCSORGTOP
 10
0.0
 20
0.0
 30
0.0
  9
$PUCSORGBOTTOM
 10
0.0
 20
0.0
 30
0.0
  9
$PUCSORGLEFT
 10
0.0
 20
0.0
 30
0.0
  9
$PUCSORGRIGHT
 10
0.0
 20
0.0
 30
0.0
  9
$PUCSORGFRONT
 10
0.0
 20
0.0
 30
0.0
  9
$PUCSORGBACK
 10
0.0
 20
0.0
 30
0.0
  9
$USERI1
 70
     0
  9
$USERI2
 70
     0
  9
$USERI3
 70
     0
  9
$USERI4
 70
     0
  9
$USERI5
 70
     0
  9
$USERR1
 40
0.0
  9
$USERR2
 40
0.0
  9
$USERR3
 40
0.0
  9
$USERR4
 40
0.0
  9
$USERR5
 40
0.0
  9
$WORLDVIEW
 70
     1
  9
$SHADEDGE
 70
     3
  9
$SHADEDIF
 70
    70
  9
$TILEMODE
 70
     1
  9
$MAXACTVP
 70
    64
  9
$PINSBASE
 10
0.0
 20
0.0
 30
0.0
  9
$PLIMCHECK
 70
     0
  9
$PEXTMIN
 10
1.0000000000E+20
 20
1.0000000000E+20
 30
1.0000000000E+20
  9
$PEXTMAX
 10
-1.0000000000E+20
 20
-1.0000000000E+20
 30
-1.0000000000E+20
  9
$PLIMMIN
 10
0.0
 20
0.0
  9
$PLIMMAX
 10
420.0
 20
297.0
  9
$UNITMODE
 70
     0
  9
$VISRETAIN
 70
     1
  9
$PLINEGEN
 70
     0
  9
$PSLTSCALE
 70
     1
  9
$TREEDEPTH
 70
  3020
  9
$CMLSTYLE
  2
Standard
  9
$CMLJUST
 70
     0
  9
$CMLSCALE
 40
20.0
  9
$PROXYGRAPHICS
 70
     1
  9
$MEASUREMENT
 70
     1
  9
$CELWEIGHT
370
    -1
  9
$ENDCAPS
280
     0
  9
$JOINSTYLE
280
     0
  9
$LWDISPLAY
290
     1
  9
$INSUNITS
 70
     4
  9
$HYPERLINKBASE
  1

  9
$STYLESHEET
  1

  9
$XEDIT
290
     1
  9
$CEPSNTYPE
380
     0
  9
$PSTYLEMODE
290
     1
  9
$FINGERPRINTGUID
  2
{0a0b302a-c761-4e04-9076-c31e6127bf54}
  9
$VERSIONGUID
  2
{FAEB1C32-E019-11D5-929B-00C0DF256EC4}
  9
$EXTNAMES
290
     1
  9
$PSVPSCALE
 40
0.0
  9
$OLESTARTUP
290
     0
  0
ENDSEC
  0
SECTION
  2
CLASSES
  0
CLASS
  1
ACDBDICTIONARYWDFLT
  2
AcDbDictionaryWithDefault
  3
ObjectDBX Classes
 90
        0
280
     0
281
     0
  0
CLASS
  1
VISUALSTYLE
  2
AcDbVisualStyle
  3
ObjectDBX Classes
 90
     4095
280
     0
281
     0
  0
CLASS
  1
MATERIAL
  2
AcDbMaterial
  3
ObjectDBX Classes
 90
     1153
280
     0
281
     0
  0
CLASS
  1
SCALE
  2
AcDbScale
  3
ObjectDBX Classes
 90
     1153
280
     0
281
     0
  0
CLASS
  1
TABLESTYLE
  2
AcDbTableStyle
  3
ObjectDBX Classes
 90
     4095
280
     0
281
     0
  0
CLASS
  1
MLEADERSTYLE
  2
AcDbMLeaderStyle
  3
ACDB_MLEADERSTYLE_CLASS
 90
     4095
280
     0
281
     0
  0
CLASS
  1
SUN
  2
AcDbSun
  3
SCENEOE
 90
     1153
280
     0
281
     0
  0
CLASS
  1
ACDBPLACEHOLDER
  2
AcDbPlaceHolder
  3
ObjectDBX Classes
 90
        0
280
     0
281
     0
  0
CLASS
  1
LAYOUT
  2
AcDbLayout
  3
ObjectDBX Classes
 90
        0
280
     0
281
     0
  0
ENDSEC
  0
SECTION
  2
TABLES
  0
TABLE
  2
VPORT
  5
8
330
0
100
AcDbSymbolTable
 70
     1
  0
VPORT
  5
29
330
8
100
AcDbSymbolTableRecord
100
AcDbViewportTableRecord
  2
*Active
 70
     0
 10
0.0
 20
0.0
 11
1.0
 21
1.0
 12
148.5
 22
105.0
 13
0.0
 23
0.0
 14
10.0
 24
10.0
 15
10.0
 25
10.0
 16
0.0
 26
0.0
 36
1.0
 17
0.0
 27
0.0
 37
0.0
 40
210.0
 41
1.4142857143
 42
50.0
 43
0.0
 44
0.0
 50
0.0
 51
0.0
 71
     0
 72
  2000
 73
     1
 74
     3
 75
     0
 76
     0
 77
     0
 78
     0
281
     0
 65
     1
110
0.0
120
0.0
130
0.0
111
1.0
121
0.0
131
0.0
112
0.0
122
1.0
132
0.0
 79
     0
146
0.0
  0
ENDTAB
  0
TABLE
  2
LTYPE
  5
5
330
0
100
AcDbSymbolTable
 70
     6
  0
LTYPE
  5
14
330
5
100
AcDbSymbolTableRecord
100
AcDbLinetypeTableRecord
  2
ByBlock
 70
     0
  3

 72
    65
 73
     0
 40
0.0
  0
LTYPE
  5
15
330
5
100
AcDbSymbolTableRecord
100
AcDbLinetypeTableRecord
  2
ByLayer
 70
     0
  3

 72
    65
 73
     0
 40
0.0
  0
LTYPE
  5
16
330
5
100
AcDbSymbolTableRecord
100
AcDbLinetypeTableRecord
  2
Continuous
 70
     0
  3
Solid line
 72
    65
 73
     0
 40
0.0
  0
LTYPE
  5
5E
330
5
100
AcDbSymbolTableRecord
100
AcDbLinetypeTableRecord
  2
HIDDEN
 70
     0
  3
Hidden __ __ __ __ __ __ __ __ __ __ __ __ __ __
 72
    65
 73
     2
 40
1.905
 49
1.27
 74
     0
 49
-0.635
 74
     0
  0
LTYPE
  5
5F
330
5
100
AcDbSymbolTableRecord
100
AcDbLinetypeTableRecord
  2
PHANTOM
 70
     0
  3
Phantom ______  __  __  ______  __  __  ______
 72
    65
 73
     6
 40
12.7
 49
6.35
 74
     0
 49
-1.27
 74
     0
 49
1.27
 74
     0
 49
-1.27
 74
     0
 49
1.27
 74
     0
 49
-1.27
 74
     0
  0
LTYPE
  5
60
330
5
100
AcDbSymbolTableRecord
100
AcDbLinetypeTableRecord
  2
CENTER
 70
     0
  3
Center ____ _ ____ _ ____ _ ____ _ ____ _ ____
 72
    65
 73
     4
 40
10.16
 49
6.35
 74
     0
 49
-1.27
 74
     0
 49
1.27
 74
     0
 49
-1.27
 74
     0
  0
LTYPE
  5
61
330
5
100
AcDbSymbolTableRecord
100
AcDbLinetypeTableRecord
  2
CENTERX2
 70
     0
  3
Center (2x) ________  __  ________  __  _____
 72
    65
 73
     4
 40
20.32
 49
12.7
 74
     0
 49
-2.54
 74
     0
 49
2.54
 74
     0
 49
-2.54
 74
     0
  0
LTYPE
  5
62
330
5
100
AcDbSymbolTableRecord
100
AcDbLinetypeTableRecord
  2
DOT2
 70
     0
  3
Dot (.5x) ........................................
 72
    65
 73
     2
 40
0.635
 49
0.0
 74
     0
 49
-0.635
 74
     0
  0
ENDTAB
  0
TABLE
  2
LAYER
  5
2
330
0
100
AcDbSymbolTable
 70
    14
  0
LAYER
  5
10
330
2
100
AcDbSymbolTableRecord
100
AcDbLayerTableRecord
  2
0
 70
     0
 62
     7
  6
Continuous
370
    -3
390
F
  0
LAYER
  5
63
330
2
100
AcDbSymbolTableRecord
100
AcDbLayerTableRecord
  2
SLD-0
 70
     0
 62
     7
  6
Continuous
370
    -3
390
F
  0
LAYER
  5
64
330
2
100
AcDbSymbolTableRecord
100
AcDbLayerTableRecord
  2
5
 70
     0
 62
     7
  6
Continuous
370
    -3
390
F
  0
LAYER
  5
65
330
2
100
AcDbSymbolTableRecord
100
AcDbLayerTableRecord
  2
9
 70
     0
 62
     7
  6
Continuous
370
    -3
390
F
  0
LAYER
  5
66
330
2
100
AcDbSymbolTableRecord
100
AcDbLayerTableRecord
  2
10
 70
     0
 62
     7
  6
Continuous
370
    -3
390
F
  0
LAYER
  5
67
330
2
100
AcDbSymbolTableRecord
100
AcDbLayerTableRecord
  2
轮廓实线层
 70
     0
 62
     7
  6
Continuous
370
    50
390
F
  0
LAYER
  5
68
330
2
100
AcDbSymbolTableRecord
100
AcDbLayerTableRecord
  2
细线层
 70
     0
 62
     4
  6
Continuous
370
    25
390
F
  0
LAYER
  5
69
330
2
100
AcDbSymbolTableRecord
100
AcDbLayerTableRecord
  2
中心线层
 70
     0
 62
     1
  6
CENTERX2
370
    25
390
F
  0
LAYER
  5
6A
330
2
100
AcDbSymbolTableRecord
100
AcDbLayerTableRecord
  2
虚线层
 70
     0
 62
     6
  6
HIDDEN
370
    25
390
F
  0
LAYER
  5
6B
330
2
100
AcDbSymbolTableRecord
100
AcDbLayerTableRecord
  2
剖面线层
 70
     0
 62
     2
  6
Continuous
370
    25
390
F
  0
LAYER
  5
6C
330
2
100
AcDbSymbolTableRecord
100
AcDbLayerTableRecord
  2
文字层
 70
     0
 62
     3
  6
Continuous
370
    25
390
F
  0
LAYER
  5
6D
330
2
100
AcDbSymbolTableRecord
100
AcDbLayerTableRecord
  2
标注层
 70
     0
 62
     4
  6
Continuous
370
    25
390
F
  0
LAYER
  5
6E
330
2
100
AcDbSymbolTableRecord
100
AcDbLayerTableRecord
  2
符号标注层
 70
     0
 62
    31
  6
Continuous
370
    25
390
F
  0
LAYER
  5
6F
330
2
100
AcDbSymbolTableRecord
100
AcDbLayerTableRecord
  2
双点划线层
 70
     0
 62
     6
  6
PHANTOM
370
    25
390
F
  0
ENDTAB
  0
TABLE
  2
STYLE
  5
3
330
0
100
AcDbSymbolTable
 70
     1
  0
STYLE
  5
11
330
3
100
AcDbSymbolTableRecord
100
AcDbTextStyleTableRecord
  2
Standard
 70
     0
 40
0.0
 41
1.0
 50
0.0
 71
     0
 42
3.5
  3
txt
  4

  0
ENDTAB
  0
TABLE
  2
VIEW
  5
6
330
0
100
AcDbSymbolTable
 70
     0
  0
ENDTAB
  0
TABLE
  2
UCS
  5
7
330
0
100
AcDbSymbolTable
 70
     0
  0
ENDTAB
  0
TABLE
  2
APPID
  5
9
330
0
100
AcDbSymbolTable
 70
     1
  0
APPID
  5
12
330
9
100
AcDbSymbolTableRecord
100
AcDbRegAppTableRecord
  2
ACAD
 70
     0
  0
ENDTAB
  0
TABLE
  2
DIMSTYLE
  5
A
330
0
100
AcDbSymbolTable
 70
     1
100
AcDbDimStyleTable
  0
DIMSTYLE
105
27
330
A
100
AcDbSymbolTableRecord
100
AcDbDimStyleTableRecord
  2
ISO-25
 70
     0
 41
2.5
 42
0.625
 43
3.75
 44
1.25
 73
     0
 74
     0
 77
     1
 78
     8
140
2.5
141
2.5
143
0.0393700787
147
0.625
171
     3
172
     1
178
     0
271
     2
272
     2
274
     3
278
    44
283
     0
284
     8
340
11
  0
ENDTAB
  0
TABLE
  2
BLOCK_RECORD
  5
1
330
0
100
AcDbSymbolTable
 70
     1
  0
BLOCK_RECORD
  5
1F
330
1
100
AcDbSymbolTableRecord
100
AcDbBlockTableRecord
  2
*Model_Space
340
22
  0
BLOCK_RECORD
  5
1B
330
1
100
AcDbSymbolTableRecord
100
AcDbBlockTableRecord
  2
*Paper_Space
340
1E
  0
BLOCK_RECORD
  5
23
330
1
100
AcDbSymbolTableRecord
100
AcDbBlockTableRecord
  2
*Paper_Space0
340
26
  0
ENDTAB
  0
ENDSEC
  0
SECTION
  2
BLOCKS
  0
BLOCK
  5
20
330
1F
100
AcDbEntity
  8
0
100
AcDbBlockBegin
  2
*Model_Space
 70
     0
 10
0.0
 20
0.0
 30
0.0
  3
*Model_Space
  1

  0
ENDBLK
  5
21
330
1F
100
AcDbEntity
  8
0
100
AcDbBlockEnd
  0
BLOCK
  5
1C
330
1B
100
AcDbEntity
 67
     1
  8
0
100
AcDbBlockBegin
  2
*Paper_Space
 70
     0
 10
0.0
 20
0.0
 30
0.0
  3
*Paper_Space
  1

  0
ENDBLK
  5
1D
330
1B
100
AcDbEntity
 67
     1
  8
0
100
AcDbBlockEnd
  0
BLOCK
  5
24
330
23
100
AcDbEntity
  8
0
100
AcDbBlockBegin
  2
*Paper_Space0
 70
     0
 10
0.0
 20
0.0
 30
0.0
  3
*Paper_Space0
  1

  0
ENDBLK
  5
25
330
23
100
AcDbEntity
  8
0
100
AcDbBlockEnd
  0
ENDSEC
  0
SECTION
  2
ENTITIES
  0
LINE
  5
70
330
1F
100
AcDbEntity
  8
0
  6
Continuous
 62
     7
370
    25
100
AcDbLine
 10
82.1073886335
 20
50.4449095572
 30
0.0
 11
82.1073886335
 21
65.1963908897
 31
0.0
  0
ARC
  5
71
330
1F
100
AcDbEntity
  8
0
  6
Continuous
 62
     7
370
    25
100
AcDbCircle
 10
118.3960334808
 20
57.8206502234
 30
0.0
 40
14.60396651918943
100
AcDbArc
 50
301.6852438939
 51
0.0
  0
ARC
  5
72
330
1F
100
AcDbEntity
  8
0
  6
Continuous
 62
     7
370
    25
100
AcDbCircle
 10
118.3960334808
 20
57.8206502234
 30
0.0
 40
14.60396651918942
100
AcDbArc
 50
92.8949578525
 51
210.3347050581
  0
ARC
  5
73
330
1F
100
AcDbEntity
  8
0
  6
Continuous
 62
     7
370
    25
100
AcDbCircle
 10
118.3960334808
 20
57.8206502234
 30
0.0
 40
14.60396651918943
100
AcDbArc
 50
0.0
 51
87.1050421475
  0
ARC
  5
74
330
1F
100
AcDbEntity
  8
0
  6
Continuous
 62
     7
370
    25
100
AcDbCircle
 10
118.3960334808
 20
57.8206502234
 30
0.0
 40
9.22824795638374
100
AcDbArc
 50
180.0
 51
85.4290064604
  0
ARC
  5
75
330
1F
100
AcDbEntity
  8
0
  6
Continuous
 62
     7
370
    25
100
AcDbCircle
 10
118.3960334808
 20
57.8206502234
 30
0.0
 40
9.22824795638374
100
AcDbArc
 50
94.5745832194
 51
180.0
  0
LINE
  5
76
330
1F
100
AcDbEntity
  8
0
  6
Continuous
 62
     7
370
    25
100
AcDbLine
 10
126.0668036023
 20
41.5940207577
 30
0.0
 11
126.0668036023
 21
45.3934573048
 31
0.0
  0
LINE
  5
77
330
1F
100
AcDbEntity
  8
0
  6
Continuous
 62
     7
370
    25
100
AcDbLine
 10
50.0023221469
 20
41.5940207577
 30
0.0
 11
50.0023221469
 21
65.1963908897
 31
0.0
  0
LINE
  5
78
330
1F
100
AcDbEntity
  8
0
  6
Continuous
 62
     7
370
    25
100
AcDbLine
 10
50.0023221469
 20
65.1963908897
 30
0.0
 11
60.612160108
 21
65.1963908897
 31
0.0
  0
LINE
  5
79
330
1F
100
AcDbEntity
  8
0
  6
Continuous
 62
     7
370
    25
100
AcDbLine
 10
60.612160108
 20
41.5940207577
 30
0.0
 11
60.612160108
 21
65.1963908897
 31
0.0
  0
LINE
  5
7A
330
1F
100
AcDbEntity
  8
0
  6
Continuous
 62
     7
370
    25
100
AcDbLine
 10
60.612160108
 20
41.5940207577
 30
0.0
 11
50.0023221469
 21
41.5940207577
 31
0.0
  0
LINE
  5
7B
330
1F
100
AcDbEntity
  8
0
  6
Continuous
 62
     7
370
    25
100
AcDbLine
 10
33.0
 20
41.5940207577
 30
0.0
 11
33.0
 21
65.1963908897
 31
0.0
  0
LINE
  5
7C
330
1F
100
AcDbEntity
  8
0
  6
Continuous
 62
     7
370
    25
100
AcDbLine
 10
35.0861744966
 20
44.5443170242
 30
0.0
 11
35.0861744966
 21
65.1963908897
 31
0.0
  0
LINE
  5
7D
330
1F
100
AcDbEntity
  8
0
  6
Continuous
 62
     7
370
    25
100
AcDbLine
 10
35.0861744966
 20
44.5443170242
 30
0.0
 11
47.9161476504
 21
44.5443170242
 31
0.0
  0
LINE
  5
7E
330
1F
100
AcDbEntity
  8
0
  6
Continuous
 62
     7
370
    25
100
AcDbLine
 10
47.9161476504
 20
44.5443170242
 30
0.0
 11
47.9161476504
 21
65.1963908897
 31
0.0
  0
LINE
  5
7F
330
1F
100
AcDbEntity
  8
0
  6
Continuous
 62
     7
370
    25
100
AcDbLine
 10
33.0
 20
41.5940207577
 30
0.0
 11
50.0023221469
 21
41.5940207577
 31
0.0
  0
LINE
  5
80
330
1F
100
AcDbEntity
  8
0
  6
Continuous
 62
     7
370
    25
100
AcDbLine
 10
47.9161476504
 20
65.1963908897
 30
0.0
 11
50.0023221469
 21
65.1963908897
 31
0.0
  0
LINE
  5
81
330
1F
100
AcDbEntity
  8
0
  6
Continuous
 62
     7
370
    25
100
AcDbLine
 10
33.0
 20
65.1963908897
 30
0.0
 11
35.0861744966
 21
65.1963908897
 31
0.0
  0
LINE
  5
82
330
1F
100
AcDbEntity
  8
0
  6
Continuous
 62
     7
370
    25
100
AcDbLine
 10
71.1912924474
 20
50.4449095572
 30
0.0
 11
88.3030108679
 21
50.4449095572
 31
0.0
  0
LINE
  5
83
330
1F
100
AcDbEntity
  8
0
  6
Continuous
 62
     7
370
    25
100
AcDbLine
 10
88.3030108679
 20
41.5940207577
 30
0.0
 11
88.3030108679
 21
50.4449095572
 31
0.0
  0
LINE
  5
84
330
1F
100
AcDbEntity
  8
0
  6
Continuous
 62
     7
370
    25
100
AcDbLine
 10
88.3030108679
 20
41.5940207577
 30
0.0
 11
60.612160108
 21
41.5940207577
 31
0.0
  0
LINE
  5
85
330
1F
100
AcDbEntity
  8
0
  6
Continuous
 62
     7
370
    25
100
AcDbLine
 10
60.612160108
 20
65.1963908897
 30
0.0
 11
71.1912924474
 21
65.1963908897
 31
0.0
  0
LINE
  5
86
330
1F
100
AcDbEntity
  8
0
  6
Continuous
 62
     7
370
    25
100
AcDbLine
 10
94.7936629971
 20
41.5940207577
 30
0.0
 11
94.7936629971
 21
50.4449095572
 31
0.0
  0
LINE
  5
87
330
1F
100
AcDbEntity
  8
0
  6
Continuous
 62
     7
370
    25
100
AcDbLine
 10
88.3030108679
 20
50.4449095572
 30
0.0
 11
94.7936629971
 21
50.4449095572
 31
0.0
  0
LINE
  5
88
330
1F
100
AcDbEntity
  8
0
  6
Continuous
 62
     7
370
    25
100
AcDbLine
 10
94.7936629971
 20
41.5940207577
 30
0.0
 11
88.3030108679
 21
41.5940207577
 31
0.0
  0
LINE
  5
89
330
1F
100
AcDbEntity
  8
0
  6
Continuous
 62
     7
370
    25
100
AcDbLine
 10
71.1912924474
 20
65.1963908897
 30
0.0
 11
82.1073886335
 21
65.1963908897
 31
0.0
  0
LINE
  5
8A
330
1F
100
AcDbEntity
  8
0
  6
Continuous
 62
     7
370
    25
100
AcDbLine
 10
35.0861744966
 20
65.1963908897
 30
0.0
 11
47.9161476504
 21
65.1963908897
 31
0.0
  0
ARC
  5
8B
330
1F
100
AcDbEntity
  8
0
  6
Continuous
 62
     7
370
    25
100
AcDbCircle
 10
118.3960334808
 20
57.8206502234
 30
0.0
 40
12.42719291865374
100
AcDbArc
 50
270.0
 51
86.5974028062
  0
ARC
  5
8C
330
1F
100
AcDbEntity
  8
0
  6
Continuous
 62
     7
370
    25
100
AcDbCircle
 10
118.3960334808
 20
57.8206502234
 30
0.0
 40
12.42719281282191
100
AcDbArc
 50
93.4025971938
 51
216.4069298484
  0
LINE
  5
8D
330
1F
100
AcDbEntity
  8
0
  6
Continuous
 62
     7
370
    25
100
AcDbLine
 10
117.6584594142
 20
68.8596477943
 30
0.0
 11
117.6584594142
 21
70.2259356173
 31
0.0
  0
ARC
  5
8E
330
1F
100
AcDbEntity
  8
0
  6
Continuous
 62
     7
370
    25
100
AcDbCircle
 10
118.3960334808
 20
57.8206502234
 30
0.0
 40
11.06361075209503
100
AcDbArc
 50
93.8225538148
 51
86.1774461852
  0
LINE
  5
8F
330
1F
100
AcDbEntity
  8
0
  6
Continuous
 62
     7
370
    25
100
AcDbLine
 10
119.1336075474
 20
70.2259356173
 30
0.0
 11
119.1336075474
 21
68.8596477943
 31
0.0
  0
LINE
  5
90
330
1F
100
AcDbEntity
  8
0
  6
Continuous
 62
     7
370
    25
100
AcDbLine
 10
94.7936629971
 20
50.4449095572
 30
0.0
 11
108.3943550801
 21
50.4449095572
 31
0.0
  0
LINE
  5
91
330
1F
100
AcDbEntity
  8
0
  6
Continuous
 62
     7
370
    25
100
AcDbLine
 10
118.3960334808
 20
41.5940207577
 30
0.0
 11
94.7936629971
 21
41.5940207577
 31
0.0
  0
LINE
  5
92
330
1F
100
AcDbEntity
  8
0
  6
Continuous
 62
     7
370
    25
100
AcDbLine
 10
118.3960334808
 20
45.3934573048
 30
0.0
 11
126.0668036023
 21
45.3934573048
 31
0.0
  0
LINE
  5
93
330
1F
100
AcDbEntity
  8
0
  6
Continuous
 62
     7
370
    25
100
AcDbLine
 10
117.6584594142
 20
70.2259356173
 30
0.0
 11
117.6584594142
 21
72.4059792423
 31
0.0
  0
LINE
  5
94
330
1F
100
AcDbEntity
  8
0
  6
Continuous
 62
     7
370
    25
100
AcDbLine
 10
119.1336075474
 20
72.4059792423
 30
0.0
 11
119.1336075474
 21
70.2259356173
 31
0.0
  0
SPLINE
  5
95
330
1F
100
AcDbEntity
  8
0
  6
Continuous
 62
     7
370
    25
100
AcDbSpline
210
0.0
220
0.0
230
1.0
 70
    24
 71
     3
 72
    13
 73
     9
 74
     0
 42
0.00000001
 43
0.00000001
 40
0.0
 40
0.0
 40
0.0
 40
0.0
 40
0.0812825860006627
 40
0.2672709255784849
 40
0.4586486148656118
 40
0.6447409774147326
 40
0.8362023862089533
 40
1.0
 40
1.0
 40
1.0
 40
1.0
 10
117.6584594141848
 20
67.03699435677166
 30
0.0
 10
117.6584594141848
 20
67.03280203483878
 30
0.0
 10
117.6584594141848
 20
67.01901696944593
 30
0.0
 10
117.6584594141848
 20
67.14407864443689
 30
0.0
 10
117.6584594141848
 20
67.40191170577319
 30
0.0
 10
117.6584594141848
 20
67.80167598374304
 30
0.0
 10
117.6584594141848
 20
68.28681583924084
 30
0.0
 10
117.6584594141848
 20
68.6788804160221
 30
0.0
 10
117.6584594141848
 20
68.85964779431815
 30
0.0
  0
SPLINE
  5
96
330
1F
100
AcDbEntity
  8
0
  6
Continuous
 62
     7
370
    25
100
AcDbSpline
210
0.0
220
0.0
230
1.0
 70
    24
 71
     3
 72
    13
 73
     9
 74
     0
 42
0.00000001
 43
0.00000001
 40
0.0
 40
0.0
 40
0.0
 40
0.0
 40
0.1867179178310045
 40
0.3788399404324708
 40
0.5655612368813053
 40
0.7577183602719956
 40
0.9440603227196476
 40
1.0
 40
1.0
 40
1.0
 40
1.0
 10
119.1336075474363
 20
68.85964779431815
 30
0.0
 10
119.1336075474363
 20
68.65451912961053
 30
0.0
 10
119.1336075474363
 20
68.23832484026994
 30
0.0
 10
119.1336075474363
 20
67.74581446397194
 30
0.0
 10
119.1336075474363
 20
67.35995565089046
 30
0.0
 10
119.1336075474363
 20
67.12046623211113
 30
0.0
 10
119.1336075474363
 20
67.01131125150536
 30
0.0
 10
119.1336075474363
 20
67.03000636723038
 30
0.0
 10
119.1336075474363
 20
67.03432282613149
 30
0.0
  0
LINE
  5
97
330
1F
100
AcDbEntity
  8
0
  6
Continuous
 62
     7
370
    25
100
AcDbLine
 10
118.3960334808
 20
41.5940207577
 30
0.0
 11
126.0668036023
 21
41.5940207577
 31
0.0
  0
SPLINE
  5
98
330
1F
100
AcDbEntity
  8
0
  6
Continuous
 62
     7
370
    25
100
AcDbSpline
210
0.0
220
0.0
230
1.0
 70
     8
 71
     3
 72
    20
 73
    16
 74
     0
 42
0.00000001
 43
0.00000001
 40
0.0
 40
0.0
 40
0.0
 40
0.0
 40
0.1249999999999992
 40
0.1249999999999992
 40
0.2499999999999984
 40
0.2499999999999984
 40
0.3749999999999976
 40
0.3749999999999976
 40
0.4999999999999968
 40
0.4999999999999968
 40
0.624999999999996
 40
0.624999999999996
 40
0.7499999999999951
 40
0.7499999999999951
 40
1.0
 40
1.0
 40
1.0
 40
1.0
 10
119.1336075474363
 20
60.03054117131338
 30
0.0
 10
119.1336075474363
 20
59.93442915901754
 30
0.0
 10
119.1150468437489
 20
59.84019839527374
 30
0.0
 10
119.0424751719391
 20
59.6626774350668
 30
0.0
 10
118.9887791208245
 20
59.58115480530319
 30
0.0
 10
118.8534781313309
 20
59.44399203319988
 30
0.0
 10
118.7713296932368
 20
59.38822372682475
 30
0.0
 10
118.5925504782451
 20
59.31304551538564
 30
0.0
 10
118.4942213290491
 20
59.29307289196592
 30
0.0
 10
118.2994414355613
 20
59.29286218057284
 30
0.0
 10
118.2013296433995
 20
59.31248381391982
 30
0.0
 10
118.0214885191584
 20
59.38770991467553
 30
0.0
 10
117.9399842267687
 20
59.44272831238308
 30
0.0
 10
117.7345307217024
 20
59.65055813832399
 30
0.0
 10
117.6584594141848
 20
59.83830413318643
 30
0.0
 10
117.6584594141848
 20
60.03054117131337
 30
0.0
  0
LINE
  5
99
330
1F
100
AcDbEntity
  8
0
  6
Continuous
 62
     7
370
    25
100
AcDbLine
 10
117.6584594142
 20
60.0305411713
 30
0.0
 11
117.6584594142
 21
66.966577463
 31
0.0
  0
LINE
  5
9A
330
1F
100
AcDbEntity
  8
0
  6
Continuous
 62
     7
370
    25
100
AcDbLine
 10
119.1336075474
 20
67.0193753982
 30
0.0
 11
119.1336075474
 21
60.0305411713
 31
0.0
  0
LINE
  5
9B
330
1F
100
AcDbEntity
  8
0
  6
HIDDEN
 62
     7
370
    18
100
AcDbLine
 10
58.5259856115
 20
44.5443170242
 30
0.0
 11
47.9161476504
 21
44.5443170242
 31
0.0
  0
LINE
  5
9C
330
1F
100
AcDbEntity
  8
0
  6
HIDDEN
 62
     7
370
    18
100
AcDbLine
 10
60.612160108
 20
44.5443170242
 30
0.0
 11
58.5259856115
 21
44.5443170242
 31
0.0
  0
LINE
  5
9D
330
1F
100
AcDbEntity
  8
0
  6
HIDDEN
 62
     7
370
    18
100
AcDbLine
 10
79.157092367
 20
44.5443170242
 30
0.0
 11
71.1912924474
 21
44.5443170242
 31
0.0
  0
LINE
  5
9E
330
1F
100
AcDbEntity
  8
0
  6
HIDDEN
 62
     7
370
    18
100
AcDbLine
 10
71.1912924474
 20
44.5443170242
 30
0.0
 11
60.612160108
 21
44.5443170242
 31
0.0
  0
ARC
  5
9F
330
1F
100
AcDbEntity
  8
0
  6
HIDDEN
 62
     7
370
    18
100
AcDbCircle
 10
118.3960334808
 20
57.8206502234
 30
0.0
 40
12.42719291865374
100
AcDbArc
 50
216.4069294886
 51
270.0
  0
LINE
  5
A0
330
1F
100
AcDbEntity
  8
0
  6
HIDDEN
 62
     7
370
    18
100
AcDbLine
 10
119.1336075474
 20
67.5286492897
 30
0.0
 11
119.1336075474
 21
67.0193753982
 31
0.0
  0
LINE
  5
A1
330
1F
100
AcDbEntity
  8
0
  6
HIDDEN
 62
     7
370
    18
100
AcDbLine
 10
79.157092367
 20
44.5443170242
 30
0.0
 11
79.157092367
 21
65.1963908897
 31
0.0
  0
ARC
  5
A2
330
1F
100
AcDbEntity
  8
0
  6
HIDDEN
 62
     7
370
    18
100
AcDbCircle
 10
118.3960334808
 20
57.8206502234
 30
0.0
 40
9.735977679459616
100
AcDbArc
 50
94.3447520426
 51
0.0
  0
ARC
  5
A3
330
1F
100
AcDbEntity
  8
0
  6
HIDDEN
 62
     7
370
    18
100
AcDbCircle
 10
118.3960334808
 20
57.8206502234
 30
0.0
 40
9.735977679459616
100
AcDbArc
 50
0.0
 51
85.6552479574
  0
ARC
  5
A4
330
1F
100
AcDbEntity
  8
0
  6
Continuous
 62
     7
370
    25
100
AcDbCircle
 10
118.3960334808
 20
163.0836468463
 30
0.0
 40
14.60396651918943
100
AcDbArc
 50
328.3147553156
 51
211.6852446844
  0
SPLINE
  5
A5
330
1F
100
AcDbEntity
  8
0
  6
Continuous
 62
     7
370
    25
100
AcDbSpline
210
0.0
220
0.0
230
1.0
 70
     8
 71
     3
 72
    18
 73
    14
 74
     0
 42
0.00000001
 43
0.00000001
 40
0.0
 40
0.0
 40
0.0
 40
0.0
 40
0.1249999999999978
 40
0.1249999999999978
 40
0.2499999999999957
 40
0.2499999999999957
 40
0.4999999999999971
 40
0.4999999999999971
 40
0.6249999999999978
 40
0.6249999999999978
 40
0.7499999999999986
 40
0.7499999999999986
 40
1.0
 40
1.0
 40
1.0
 40
1.0
 10
117.6584594141848
 20
177.500588428617
 30
0.0
 10
117.6584594141848
 20
177.5154361015559
 30
0.0
 10
117.6773687324852
 20
177.5299765182572
 30
0.0
 10
117.7507563202306
 20
177.5572015654615
 30
0.0
 10
117.8050729090851
 20
177.569667787157
 30
0.0
 10
118.008673290852
 20
177.6008907371778
 30
0.0
 10
118.2019889398965
 20
177.6131820143569
 30
0.0
 10
118.4921139424069
 20
177.6132195781607
 30
0.0
 10
118.589424764582
 20
177.6102835327502
 30
0.0
 10
118.7685617179399
 20
177.5989582329994
 30
0.0
 10
118.8499648378
 20
177.5906634475557
 30
0.0
 10
119.0561017451274
 20
177.5591063192554
 30
0.0
 10
119.1336075474363
 20
177.5302842202896
 30
0.0
 10
119.1336075474363
 20
177.500588428617
 30
0.0
  0
LINE
  5
A6
330
1F
100
AcDbEntity
  8
0
  6
Continuous
 62
     7
370
    25
100
AcDbLine
 10
117.6584594142
 20
155.4128765534
 30
0.0
 11
117.6584594142
 21
177.5005884286
 31
0.0
  0
LINE
  5
A7
330
1F
100
AcDbEntity
  8
0
  6
Continuous
 62
     7
370
    25
100
AcDbLine
 10
117.6584594142
 20
155.4128765534
 30
0.0
 11
105.968840668
 21
155.4128765534
 31
0.0
  0
LWPOLYLINE
  5
A8
330
1F
100
AcDbEntity
  8
0
  6
Continuous
 62
     7
370
    25
100
AcDbPolyline
 90
       19
 70
   128
 43
0.0
 10
130.8232262936
 20
155.4128765534
 10
130.8037987747
 20
155.4128765438
 10
130.6989528251
 20
155.4128765292
 10
130.5039785653
 20
155.4128765148
 10
130.2203043313
 20
155.4128765006
 10
129.850008254
 20
155.4128764869
 10
129.395803036
 20
155.4128764736
 10
128.8610160785
 20
155.4128764609
 10
128.2495651057
 20
155.4128764489
 10
127.5659294644
 20
155.4128764377
 10
126.8151173094
 20
155.4128764273
 10
126.0026289151
 20
155.4128764178
 10
125.1344163814
 20
155.4128764093
 10
124.2168400303
 20
155.4128764019
 10
123.2566218116
 20
155.4128763956
 10
122.2607960594
 20
155.4128763904
 10
121.2366579603
 20
155.4128763865
 10
120.1917101106
 20
155.4128763837
 10
119.1336075474
 20
155.4128765534
  0
LINE
  5
A9
330
1F
100
AcDbEntity
  8
0
  6
Continuous
 62
     7
370
    25
100
AcDbLine
 10
119.1336075474
 20
177.5005884286
 30
0.0
 11
119.1336075474
 21
155.4128765534
 31
0.0
  0
LINE
  5
AA
330
1F
100
AcDbEntity
  8
0
  6
Continuous
 62
     7
370
    25
100
AcDbLine
 10
117.6584594142
 20
155.4128765534
 30
0.0
 11
119.1336075474
 21
155.4128765534
 31
0.0
  0
SPLINE
  5
AB
330
1F
100
AcDbEntity
  8
0
  6
Continuous
 62
     7
370
    25
100
AcDbSpline
210
0.0
220
0.0
230
1.0
 70
     8
 71
     3
 72
    20
 73
    16
 74
     0
 42
0.00000001
 43
0.00000001
 40
0.0
 40
0.0
 40
0.0
 40
0.0
 40
0.1249999999999992
 40
0.1249999999999992
 40
0.2499999999999984
 40
0.2499999999999984
 40
0.3749999999999976
 40
0.3749999999999976
 40
0.4999999999999968
 40
0.4999999999999968
 40
0.624999999999996
 40
0.624999999999996
 40
0.7499999999999951
 40
0.7499999999999951
 40
1.0
 40
1.0
 40
1.0
 40
1.0
 10
119.1336075474363
 20
172.5367747873254
 30
0.0
 10
119.1336075474363
 20
172.5592432302874
 30
0.0
 10
119.1150468437489
 20
172.581190008538
 30
0.0
 10
119.0424751719391
 20
172.6224062019298
 30
0.0
 10
118.9887791208245
 20
172.6412651801218
 30
0.0
 10
118.8534781313309
 20
172.6729272026105
 30
0.0
 10
118.7713296932368
 20
172.6857614877217
 30
0.0
 10
118.5925504782451
 20
172.7030479131482
 30
0.0
 10
118.4942213290491
 20
172.7076313028409
 30
0.0
 10
118.2994414355613
 20
172.7076796869621
 30
0.0
 10
118.2013296433995
 20
172.7031769583238
 30
0.0
 10
118.0214885191584
 20
172.6858797438047
 30
0.0
 10
117.9399842267687
 20
172.6732186940019
 30
0.0
 10
117.7345307217024
 20
172.6252448719286
 30
0.0
 10
117.6584594141848
 20
172.5817147154693
 30
0.0
 10
117.6584594141848
 20
172.5367747873254
 30
0.0
  0
LINE
  5
AC
330
1F
100
AcDbEntity
  8
0
  6
Continuous
 62
     7
370
    25
100
AcDbLine
 10
71.1912924474
 20
170.7544169677
 30
0.0
 11
50.8838136395
 21
170.7544169677
 31
0.0
  0
LINE
  5
AD
330
1F
100
AcDbEntity
  8
0
  6
Continuous
 62
     7
370
    25
100
AcDbLine
 10
60.612160108
 20
148.9222245956
 30
0.0
 11
71.1912924474
 21
148.9222245956
 31
0.0
  0
LINE
  5
AE
330
1F
100
AcDbEntity
  8
0
  6
Continuous
 62
     7
370
    25
100
AcDbLine
 10
50.0023221469
 20
138.3123866345
 30
0.0
 11
60.612160108
 21
148.9222245956
 31
0.0
  0
LINE
  5
AF
330
1F
100
AcDbEntity
  8
0
  6
Continuous
 62
     7
370
    25
100
AcDbLine
 10
47.9161476504
 20
140.3985611311
 30
0.0
 11
50.0023221469
 21
138.3123866345
 31
0.0
  0
LINE
  5
B0
330
1F
100
AcDbEntity
  8
0
  6
Continuous
 62
     7
370
    25
100
AcDbLine
 10
58.5259856115
 20
151.0083990922
 30
0.0
 11
47.9161476504
 21
140.3985611311
 31
0.0
  0
ARC
  5
B1
330
1F
100
AcDbEntity
  8
0
  6
Continuous
 62
     7
370
    25
100
AcDbCircle
 10
60.612160108
 20
148.9222245956
 30
0.0
 40
2.950296266502875
100
AcDbArc
 50
90.0
 51
135.0
  0
LINE
  5
B2
330
1F
100
AcDbEntity
  8
0
  6
Continuous
 62
     7
370
    25
100
AcDbLine
 10
71.1912924474
 20
151.8725208621
 30
0.0
 11
60.612160108
 21
151.8725208621
 31
0.0
  0
ARC
  5
B3
330
1F
100
AcDbEntity
  8
0
  6
Continuous
 62
     7
370
    25
100
AcDbCircle
 10
71.1912924474
 20
159.8383207817
 30
0.0
 40
7.965799919557895
100
AcDbArc
 50
270.0
 51
90.0
  0
LINE
  5
B4
330
1F
100
AcDbEntity
  8
0
  6
Continuous
 62
     7
370
    25
100
AcDbLine
 10
50.8838136395
 20
167.8041207012
 30
0.0
 11
71.1912924474
 21
167.8041207012
 31
0.0
  0
ARC
  5
B5
330
1F
100
AcDbEntity
  8
0
  6
Continuous
 62
     7
370
    25
100
AcDbCircle
 10
50.8838136395
 20
164.8538244347
 30
0.0
 40
2.950296266502932
100
AcDbArc
 50
90.0
 51
135.0
  0
LINE
  5
B6
330
1F
100
AcDbEntity
  8
0
  6
Continuous
 62
     7
370
    25
100
AcDbLine
 10
35.0861744966
 20
153.2285342849
 30
0.0
 11
48.797639143
 21
166.9399989313
 31
0.0
  0
LINE
  5
B7
330
1F
100
AcDbEntity
  8
0
  6
Continuous
 62
     7
370
    25
100
AcDbLine
 10
33.0
 20
155.3147087814
 30
0.0
 11
35.0861744966
 21
153.2285342849
 31
0.0
  0
LINE
  5
B8
330
1F
100
AcDbEntity
  8
0
  6
Continuous
 62
     7
370
    25
100
AcDbLine
 10
46.7114646464
 20
169.0261734278
 30
0.0
 11
33.0
 21
155.3147087814
 31
0.0
  0
ARC
  5
B9
330
1F
100
AcDbEntity
  8
0
  6
Continuous
 62
     7
370
    25
100
AcDbCircle
 10
50.8838136395
 20
164.8538244347
 30
0.0
 40
5.900592533005838
100
AcDbArc
 50
90.0
 51
135.0
  0
ARC
  5
BA
330
1F
100
AcDbEntity
  8
0
  6
Continuous
 62
     7
370
    25
100
AcDbCircle
 10
71.1912924474
 20
159.8383207817
 30
0.0
 40
10.9160961860608
100
AcDbArc
 50
270.0
 51
90.0
  0
LINE
  5
BB
330
1F
100
AcDbEntity
  8
0
  6
Continuous
 62
     7
370
    25
100
AcDbLine
 10
88.3030108679
 20
148.9222245956
 30
0.0
 11
94.7936629971
 21
155.4128767248
 31
0.0
  0
LINE
  5
BC
330
1F
100
AcDbEntity
  8
0
  6
Continuous
 62
     7
370
    25
100
AcDbLine
 10
71.1912924474
 20
148.9222245956
 30
0.0
 11
88.3030108679
 21
148.9222245956
 31
0.0
  0
LINE
  5
BD
330
1F
100
AcDbEntity
  8
0
  6
Continuous
 62
     7
370
    25
100
AcDbLine
 10
105.9688405622
 20
170.7544169677
 30
0.0
 11
71.1912924474
 21
170.7544169677
 31
0.0
  0
LINE
  5
BE
330
1F
100
AcDbEntity
  8
0
  6
Continuous
 62
     7
370
    25
100
AcDbLine
 10
94.7936629971
 20
155.4128767248
 30
0.0
 11
105.968840668
 21
155.4128765534
 31
0.0
  0
LINE
  5
BF
330
1F
100
AcDbEntity
  8
0
  6
Continuous
 62
     7
370
    25
100
AcDbLine
 10
35.0861744966
 20
153.2285342849
 30
0.0
 11
47.9161476504
 21
140.3985611311
 31
0.0
  0
ARC
  5
C0
330
1F
100
AcDbEntity
  8
0
  6
HIDDEN
 62
     7
370
    18
100
AcDbCircle
 10
118.3960334808
 20
163.0836468463
 30
0.0
 40
12.60453441098577
100
AcDbArc
 50
142.5136597516
 51
217.4863412306
  0
LINE
  5
C1
330
1F
100
AcDbEntity
  8
0
  6
HIDDEN
 62
     7
370
    18
100
AcDbLine
 10
118.3960334808
 20
170.7544169677
 30
0.0
 11
108.3943549486
 21
170.7544169677
 31
0.0
  0
ARC
  5
C2
330
1F
100
AcDbEntity
  8
0
  6
HIDDEN
 62
     7
370
    18
100
AcDbCircle
 10
118.3960334808
 20
163.0836468463
 30
0.0
 40
7.670770121452506
100
AcDbArc
 50
270.0
 51
90.0
  0
LINE
  5
C3
330
1F
100
AcDbEntity
  8
0
  6
HIDDEN
 62
     7
370
    18
100
AcDbLine
 10
108.3943549486
 20
170.7544169677
 30
0.0
 11
105.9688405622
 21
170.7544169677
 31
0.0
  0
ARC
  5
C4
330
1F
100
AcDbEntity
  8
0
  6
HIDDEN
 62
     7
370
    18
100
AcDbCircle
 10
132.5665421914
 20
159.2564590538
 30
0.0
 40
4.942260754162654
100
AcDbArc
 50
164.8860894368
 51
231.0502168544
  0
ARC
  5
C5
330
1F
100
AcDbEntity
  8
0
  6
HIDDEN
 62
     7
370
    18
100
AcDbCircle
 10
104.2255247703
 20
159.2564590538
 30
0.0
 40
4.942260754162627
100
AcDbArc
 50
308.9497831456
 51
15.1139105632
  0
ARC
  5
C6
330
1F
100
AcDbEntity
  8
0
  6
HIDDEN
 62
     7
370
    18
100
AcDbCircle
 10
118.3960334808
 20
163.0836468463
 30
0.0
 40
9.735977679459621
100
AcDbArc
 50
344.8860894368
 51
195.1139105632
  0
ARC
  5
C7
330
1F
100
AcDbEntity
  8
0
  6
Continuous
 62
     7
370
    25
100
AcDbCircle
 10
228.0836468463
 20
57.8206502234
 30
0.0
 40
14.60396651918944
100
AcDbArc
 50
301.6852438939
 51
0.0
  0
ARC
  5
C8
330
1F
100
AcDbEntity
  8
0
  6
Continuous
 62
     7
370
    25
100
AcDbCircle
 10
228.0836468463
 20
57.8206502234
 30
0.0
 40
14.60396651918946
100
AcDbArc
 50
0.0
 51
5.8257606805
  0
SPLINE
  5
C9
330
1F
100
AcDbEntity
  8
0
  6
Continuous
 62
     7
370
    25
100
AcDbSpline
210
0.0
220
0.0
230
1.0
 70
     8
 71
     3
 72
    13
 73
     9
 74
     0
 42
0.00000001
 43
0.00000001
 40
0.0
 40
0.0
 40
0.0
 40
0.0
 40
0.0794961393833983
 40
0.290525013308196
 40
0.5020904418031995
 40
0.7155005114724042
 40
0.931301115461851
 40
1.0
 40
1.0
 40
1.0
 40
1.0
 10
242.6117339730903
 20
59.30265195781973
 30
0.0
 10
242.6121203050211
 20
59.30011211184756
 30
0.0
 10
242.613532186028
 20
59.29083004116356
 30
0.0
 10
242.6029770759149
 20
59.36022521349301
 30
0.0
 10
242.5813489276857
 20
59.50225189292896
 30
0.0
 10
242.549885981985
 20
59.70847159489291
 30
0.0
 10
242.5212875460145
 20
59.89546889296863
 30
0.0
 10
242.5046145124967
 20
60.00426892443475
 30
0.0
 10
242.500588428617
 20
60.03054117131338
 30
0.0
  0
LINE
  5
CA
330
1F
100
AcDbEntity
  8
0
  6
Continuous
 62
     7
370
    25
100
AcDbLine
 10
220.4128767248
 20
45.3934573048
 30
0.0
 11
235.7544169677
 21
45.3934573048
 31
0.0
  0
LWPOLYLINE
  5
CB
330
1F
100
AcDbEntity
  8
0
  6
Continuous
 62
     7
370
    25
100
AcDbPolyline
 90
       37
 70
   128
 43
0.0
 10
220.4128767248
 20
45.3934573048
 10
220.4128767242
 20
45.4389766594
 10
220.4128767223
 20
45.5752012592
 10
220.4128767192
 20
45.8011331545
 10
220.4128767149
 20
46.1151172212
 10
220.4128767094
 20
46.5148532854
 10
220.4128767027
 20
46.9974129741
 10
220.412876695
 20
47.559261168
 10
220.4128766862
 20
48.1962818985
 10
220.4128766764
 20
48.9038085007
 10
220.4128766657
 20
49.6766578003
 10
220.4128766543
 20
50.5091680839
 10
220.412876642
 20
51.3952405759
 10
220.4128766292
 20
52.3283841164
 10
220.4128766157
 20
53.3017627141
 10
220.4128766018
 20
54.3082456249
 10
220.4128765876
 20
55.3404595905
 10
220.4128765731
 20
56.3908428527
 10
220.4128765585
 20
57.4517005493
 10
220.4128765438
 20
58.515261085
 10
220.4128765292
 20
59.5737330639
 10
220.4128765148
 20
60.6193623679
 10
220.4128765006
 20
61.6444889612
 10
220.4128764869
 20
62.641603006
 10
220.4128764736
 20
63.6033998782
 10
220.4128764609
 20
64.5228336786
 10
220.4128764489
 20
65.3931688503
 10
220.4128764377
 20
66.2080295214
 10
220.4128764273
 20
66.9614462131
 10
220.4128764178
 20
67.6478995709
 10
220.4128764093
 20
68.262360798
 10
220.4128764019
 20
68.8003284952
 10
220.4128763956
 20
69.2578616369
 10
220.4128763904
 20
69.6316084423
 10
220.4128763865
 20
69.9188309298
 10
220.4128763837
 20
70.1174249745
 10
220.4128765534
 20
70.2259356173
  0
ARC
  5
CC
330
1F
100
AcDbEntity
  8
0
  6
Continuous
 62
     7
370
    25
100
AcDbCircle
 10
228.0836468463
 20
57.8206502234
 30
0.0
 40
14.58532901890963
100
AcDbArc
 50
8.714712656
 51
121.7304475336
  0
LINE
  5
CD
330
1F
100
AcDbEntity
  8
0
  6
Continuous
 62
     7
370
    25
100
AcDbLine
 10
235.7544169677
 20
41.5940207577
 30
0.0
 11
235.7544169677
 21
45.3934573048
 31
0.0
  0
LINE
  5
CE
330
1F
100
AcDbEntity
  8
0
  6
Continuous
 62
     7
370
    25
100
AcDbLine
 10
220.4128767248
 20
41.5940207577
 30
0.0
 11
235.7544169677
 21
41.5940207577
 31
0.0
  0
LINE
  5
CF
330
1F
100
AcDbEntity
  8
0
  6
Continuous
 62
     7
370
    25
100
AcDbLine
 10
220.4128767248
 20
41.5940207577
 30
0.0
 11
220.4128767248
 21
45.3934573048
 31
0.0
  0
LINE
  5
D0
330
1F
100
AcDbEntity
  8
0
  6
Continuous
 62
     7
370
    25
100
AcDbLine
 10
213.9222245956
 20
41.5940207577
 30
0.0
 11
213.9222245956
 21
50.4449095572
 31
0.0
  0
LINE
  5
D1
330
1F
100
AcDbEntity
  8
0
  6
Continuous
 62
     7
370
    25
100
AcDbLine
 10
213.9222245956
 20
50.4449095572
 30
0.0
 11
220.4128767248
 21
50.4449095572
 31
0.0
  0
LINE
  5
D2
330
1F
100
AcDbEntity
  8
0
  6
Continuous
 62
     7
370
    25
100
AcDbLine
 10
220.4128767248
 20
41.5940207577
 30
0.0
 11
213.9222245956
 21
41.5940207577
 31
0.0
  0
LINE
  5
D3
330
1F
100
AcDbEntity
  8
0
  6
Continuous
 62
     7
370
    25
100
AcDbLine
 10
213.9222245956
 20
65.1963908897
 30
0.0
 11
220.4128765534
 21
65.1963908897
 31
0.0
  0
LINE
  5
D4
330
1F
100
AcDbEntity
  8
0
  6
Continuous
 62
     7
370
    25
100
AcDbLine
 10
213.9222245956
 20
50.4449095572
 30
0.0
 11
213.9222245956
 21
65.1963908897
 31
0.0
  0
LINE
  5
D5
330
1F
100
AcDbEntity
  8
0
  6
Continuous
 62
     7
370
    25
100
AcDbLine
 10
203.3123866345
 20
41.5940207577
 30
0.0
 11
203.3123866345
 21
65.1963908897
 31
0.0
  0
LINE
  5
D6
330
1F
100
AcDbEntity
  8
0
  6
Continuous
 62
     7
370
    25
100
AcDbLine
 10
203.3123866345
 20
65.1963908897
 30
0.0
 11
213.9222245956
 21
65.1963908897
 31
0.0
  0
LINE
  5
D7
330
1F
100
AcDbEntity
  8
0
  6
Continuous
 62
     7
370
    25
100
AcDbLine
 10
213.9222245956
 20
41.5940207577
 30
0.0
 11
203.3123866345
 21
41.5940207577
 31
0.0
  0
LINE
  5
D8
330
1F
100
AcDbEntity
  8
0
  6
HIDDEN
 62
     7
370
    18
100
AcDbLine
 10
235.7544169677
 20
50.4449095572
 30
0.0
 11
220.4128765534
 21
50.4449095572
 31
0.0
  0
LINE
  5
D9
330
1F
100
AcDbEntity
  8
0
  6
HIDDEN
 62
     7
370
    18
100
AcDbLine
 10
235.7544169677
 20
45.3934573048
 30
0.0
 11
235.7544169677
 21
50.4449095572
 31
0.0
  0
SPLINE
  5
DA
330
1F
100
AcDbEntity
  8
0
  6
HIDDEN
 62
     7
370
    18
100
AcDbSpline
210
0.0
220
0.0
230
1.0
 70
     8
 71
     3
 72
    18
 73
    14
 74
     0
 42
0.00000001
 43
0.00000001
 40
0.0
 40
0.0
 40
0.0
 40
0.0
 40
0.2500000000000006
 40
0.2500000000000006
 40
0.3750000000000006
 40
0.3750000000000006
 40
0.5000000000000006
 40
0.5000000000000006
 40
0.6250000000000004
 40
0.6250000000000004
 40
0.7500000000000002
 40
0.7500000000000002
 40
1.0
 40
1.0
 40
1.0
 40
1.0
 10
220.41287655338
 20
68.85964779431816
 30
0.0
 10
220.7141646715261
 20
68.48608942370704
 30
0.0
 10
221.0613090634854
 20
68.16443724831862
 30
0.0
 10
221.6494872701057
 20
67.758320967101
 30
0.0
 10
221.8572486311742
 20
67.63614294241034
 30
0.0
 10
222.2824267602355
 20
67.42577873723621
 30
0.0
 10
222.5014325899979
 20
67.33638629142077
 30
0.0
 10
222.9522849551946
 20
67.1891983692817
 30
0.0
 10
223.1861140751429
 20
67.1311414356436
 30
0.0
 10
223.6558876673844
 20
67.05031497966499
 30
0.0
 10
223.8916041520284
 20
67.02721030056134
 30
0.0
 10
224.6011898746134
 20
67.00872048691843
 30
0.0
 10
225.0818552683321
 20
67.06536968961666
 30
0.0
 10
225.5450987030079
 20
67.19087002850365
 30
0.0
  0
SPLINE
  5
DB
330
1F
100
AcDbEntity
  8
0
  6
HIDDEN
 62
     7
370
    18
100
AcDbSpline
210
0.0
220
0.0
230
1.0
 70
    11
 71
     3
 72
    20
 73
    16
 74
     0
 42
0.00000001
 43
0.00000001
 40
0.0
 40
0.0
 40
0.0
 40
0.0
 40
0.1249999999999992
 40
0.1249999999999992
 40
0.2499999999999984
 40
0.2499999999999984
 40
0.3749999999999976
 40
0.3749999999999976
 40
0.4999999999999968
 40
0.4999999999999968
 40
0.624999999999996
 40
0.624999999999996
 40
0.7499999999999951
 40
0.7499999999999951
 40
1.0
 40
1.0
 40
1.0
 40
1.0
 10
237.5367747873254
 20
60.03054117131338
 30
0.0
 10
237.5592432302874
 20
59.93442915901754
 30
0.0
 10
237.581190008538
 20
59.84019839527374
 30
0.0
 10
237.6224062019298
 20
59.6626774350668
 30
0.0
 10
237.6412651801218
 20
59.58115480530319
 30
0.0
 10
237.6729272026105
 20
59.44399203319988
 30
0.0
 10
237.6857614877217
 20
59.38822372682475
 30
0.0
 10
237.7030479131482
 20
59.31304551538564
 30
0.0
 10
237.7076313028409
 20
59.29307289196592
 30
0.0
 10
237.7076796869621
 20
59.29286218057284
 30
0.0
 10
237.7031769583238
 20
59.31248381391982
 30
0.0
 10
237.6858797438047
 20
59.38770991467553
 30
0.0
 10
237.6732186940019
 20
59.44272831238308
 30
0.0
 10
237.6252448719286
 20
59.65055813832399
 30
0.0
 10
237.5817147154693
 20
59.83830413318643
 30
0.0
 10
237.5367747873254
 20
60.03054117131337
 30
0.0
  0
ARC
  5
DC
330
1F
100
AcDbEntity
  8
0
  6
HIDDEN
 62
     7
370
    18
100
AcDbCircle
 10
228.0836468463
 20
57.8206502234
 30
0.0
 40
9.707999066294631
100
AcDbArc
 50
13.1579383147
 51
105.1585130551
  0
LINE
  5
DD
330
1F
100
AcDbEntity
  8
0
  6
HIDDEN
 62
     7
370
    18
100
AcDbLine
 10
220.4128765534
 20
65.1963908897
 30
0.0
 11
235.7544169677
 21
65.1963908897
 31
0.0
  0
LINE
  5
DE
330
1F
100
AcDbEntity
  8
0
  6
HIDDEN
 62
     7
370
    18
100
AcDbLine
 10
235.7544169677
 20
50.4449095572
 30
0.0
 11
235.7544169677
 21
65.1963908897
 31
0.0
  0
LINE
  5
DF
330
1F
100
AcDbEntity
  8
0
  6
HIDDEN
 62
     7
370
    18
100
AcDbLine
 10
232.8041207012
 20
44.5443170242
 30
0.0
 11
232.8041207012
 21
65.1963908897
 31
0.0
  0
LINE
  5
E0
330
1F
100
AcDbEntity
  8
0
  6
HIDDEN
 62
     7
370
    18
100
AcDbLine
 10
216.8725208621
 20
44.5443170242
 30
0.0
 11
216.8725208621
 21
65.1963908897
 31
0.0
  0
LINE
  5
E1
330
1F
100
AcDbEntity
  8
0
  6
HIDDEN
 62
     7
370
    18
100
AcDbLine
 10
232.8041207012
 20
44.5443170242
 30
0.0
 11
216.8725208621
 21
44.5443170242
 31
0.0
  0
LINE
  5
E2
330
1F
100
AcDbEntity
  8
0
  6
HIDDEN
 62
     7
370
    18
100
AcDbLine
 10
216.8725208621
 20
44.5443170242
 30
0.0
 11
216.0083990922
 21
44.5443170242
 31
0.0
  0
LINE
  5
E3
330
1F
100
AcDbEntity
  8
0
  6
HIDDEN
 62
     7
370
    18
100
AcDbLine
 10
216.0083990922
 20
44.5443170242
 30
0.0
 11
205.3985611311
 21
44.5443170242
 31
0.0
  0
LINE
  5
E4
330
1F
100
AcDbEntity
  8
0
  6
HIDDEN
 62
     7
370
    18
100
AcDbLine
 10
205.3985611311
 20
44.5443170242
 30
0.0
 11
205.3985611311
 21
65.1963908897
 31
0.0
  0
LINE
  5
E5
330
1F
100
AcDbEntity
  8
0
  6
HIDDEN
 62
     7
370
    18
100
AcDbLine
 10
218.2285342849
 20
44.5443170242
 30
0.0
 11
218.2285342849
 21
65.1963908897
 31
0.0
  0
LINE
  5
E6
330
1F
100
AcDbEntity
  8
0
  6
HIDDEN
 62
     7
370
    18
100
AcDbLine
 10
220.3147087814
 20
41.5940207577
 30
0.0
 11
220.3147087814
 21
65.1963908897
 31
0.0
  0
ARC
  5
E7
330
1F
100
AcDbEntity
  8
0
  6
HIDDEN
 62
     7
370
    18
100
AcDbCircle
 10
224.2564590538
 20
43.6501415129
 30
0.0
 40
4.94226075416262
100
AcDbArc
 50
74.8860894368
 51
141.0502168544
  0
ARC
  5
E8
330
1F
100
AcDbEntity
  8
0
  6
HIDDEN
 62
     7
370
    18
100
AcDbCircle
 10
228.0836468463
 20
57.8206502234
 30
0.0
 40
9.735977679459637
100
AcDbArc
 50
254.8860894368
 51
0.0
  0
ARC
  5
E9
330
1F
100
AcDbEntity
  8
0
  6
HIDDEN
 62
     7
370
    18
100
AcDbCircle
 10
228.0836468463
 20
57.8206502234
 30
0.0
 40
9.735977679459637
100
AcDbArc
 50
0.0
 51
8.7602357882
  0
LINE
  5
EA
330
1F
100
AcDbEntity
  8
0
  6
HIDDEN
 62
     7
370
    18
100
AcDbLine
 10
237.7053970909
 20
59.2929671047
 30
0.0
 11
242.6117374494
 21
59.2929671047
 31
0.0
  0
ENDSEC
  0
SECTION
  2
OBJECTS
  0
DICTIONARY
  5
C
330
0
100
AcDbDictionary
281
     1
  3
ACAD_GROUP
350
D
  3
ACAD_LAYOUT
350
1A
  3
ACAD_MLINESTYLE
350
17
  3
ACAD_PLOTSETTINGS
350
19
  3
ACAD_PLOTSTYLENAME
350
E
  3
ACAD_SCALELIST
350
47
  3
DWGPROPS
350
EB
  0
DICTIONARY
  5
D
102
{ACAD_REACTORS
330
C
102
}
330
C
100
AcDbDictionary
281
     1
  0
DICTIONARY
  5
1A
102
{ACAD_REACTORS
330
C
102
}
330
C
100
AcDbDictionary
281
     1
  3
Layout1
350
1E
  3
Layout2
350
26
  3
Model
350
22
  0
DICTIONARY
  5
17
102
{ACAD_REACTORS
330
C
102
}
330
C
100
AcDbDictionary
281
     1
  3
Standard
350
18
  0
DICTIONARY
  5
19
102
{ACAD_REACTORS
330
C
102
}
330
C
100
AcDbDictionary
281
     1
  0
ACDBDICTIONARYWDFLT
  5
E
102
{ACAD_REACTORS
330
C
102
}
330
C
100
AcDbDictionary
281
     1
  3
Normal
350
F
100
AcDbDictionaryWithDefault
340
F
  0
DICTIONARY
  5
47
102
{ACAD_REACTORS
330
C
102
}
330
C
100
AcDbDictionary
281
     1
  3
A0
350
48
  3
A1
350
49
  3
A2
350
4A
  3
A3
350
4B
  3
A4
350
4C
  3
A5
350
4D
  3
A6
350
4E
  3
A7
350
4F
  3
A8
350
50
  3
A9
350
51
  3
B0
350
52
  3
B1
350
53
  3
B2
350
54
  3
B3
350
55
  3
B4
350
56
  3
B5
350
57
  3
B6
350
58
  0
XRECORD
  5
EB
102
{ACAD_REACTORS
330
C
102
}
330
C
100
AcDbXrecord
280
     1
  1
DWGPROPS COOKIE
  2

  3

  4

  6

  7

  8

  9

300
=
301
=
302
=
303
=
304
=
305
=
306
=
307
=
308
=
309
=
 40
0.0
 41
2461213.283501505
 42
2461213.283501678
  1

 90
        0
  0
LAYOUT
  5
1E
102
{ACAD_REACTORS
330
1A
102
}
330
1A
100
AcDbPlotSettings
  1

  2
none_device
  4

  6

 40
0.0
 41
0.0
 42
0.0
 43
0.0
 44
0.0
 45
0.0
 46
0.0
 47
0.0
 48
0.0
 49
0.0
140
0.0
141
0.0
142
1.0
143
1.0
 70
   688
 72
     1
 73
     0
 74
     5
  7

 75
    16
147
1.0
148
0.0
149
0.0
100
AcDbLayout
  1
Layout1
 70
     1
 71
     1
 10
0.0
 20
0.0
 11
420.0
 21
297.0
 12
0.0
 22
0.0
 32
0.0
 14
1.0000000000E+20
 24
1.0000000000E+20
 34
1.0000000000E+20
 15
-1.0000000000E+20
 25
-1.0000000000E+20
 35
-1.0000000000E+20
146
0.0
 13
0.0
 23
0.0
 33
0.0
 16
1.0
 26
0.0
 36
0.0
 17
0.0
 27
1.0
 37
0.0
 76
     0
330
1B
  0
LAYOUT
  5
26
102
{ACAD_REACTORS
330
1A
102
}
330
1A
100
AcDbPlotSettings
  1

  2
none_device
  4

  6

 40
0.0
 41
0.0
 42
0.0
 43
0.0
 44
0.0
 45
0.0
 46
0.0
 47
0.0
 48
0.0
 49
0.0
140
0.0
141
0.0
142
1.0
143
1.0
 70
   688
 72
     1
 73
     0
 74
     5
  7

 75
    16
147
1.0
148
0.0
149
0.0
100
AcDbLayout
  1
Layout2
 70
     1
 71
     2
 10
0.0
 20
0.0
 11
0.0
 21
0.0
 12
0.0
 22
0.0
 32
0.0
 14
0.0
 24
0.0
 34
0.0
 15
0.0
 25
0.0
 35
0.0
146
0.0
 13
0.0
 23
0.0
 33
0.0
 16
1.0
 26
0.0
 36
0.0
 17
0.0
 27
1.0
 37
0.0
 76
     0
330
23
  0
LAYOUT
  5
22
102
{ACAD_REACTORS
330
1A
102
}
330
1A
100
AcDbPlotSettings
  1

  2
none_device
  4
Letter_(8.50_x_11.00_Inches)
  6

 40
6.35
 41
6.35
 42
6.35000508
 43
6.35000508
 44
215.9
 45
279.4
 46
0.0
 47
0.0
 48
0.0
 49
0.0
140
0.0
141
0.0
142
1.0
143
1.0
 70
  1712
 72
     1
 73
     0
 74
     0
  7

 75
     0
147
1.0
148
0.0
149
0.0
100
AcDbLayout
  1
Model
 70
     1
 71
     0
 10
0.0
 20
0.0
 11
297.0
 21
210.0
 12
0.0
 22
0.0
 32
0.0
 14
0.0
 24
0.0
 34
0.0
 15
297.0
 25
210.0
 35
0.0
146
0.0
 13
0.0
 23
0.0
 33
0.0
 16
1.0
 26
0.0
 36
0.0
 17
0.0
 27
1.0
 37
0.0
 76
     0
330
1F
331
29
  0
MLINESTYLE
  5
18
102
{ACAD_REACTORS
330
17
102
}
330
17
100
AcDbMlineStyle
  2
Standard
 70
     0
  3

 62
   256
 51
90.0
 52
90.0
 71
     2
 49
0.5
 62
   256
  6
BYLAYER
 49
-0.5
 62
   256
  6
BYLAYER
  0
ACDBPLACEHOLDER
  5
F
102
{ACAD_REACTORS
330
E
102
}
330
E
  0
SCALE
  5
48
102
{ACAD_REACTORS
330
47
102
}
330
47
100
AcDbScale
 70
     0
300
1:1
140
1.0
141
1.0
290
     1
  0
SCALE
  5
49
102
{ACAD_REACTORS
330
47
102
}
330
47
100
AcDbScale
 70
     0
300
1:2
140
1.0
141
2.0
290
     0
  0
SCALE
  5
4A
102
{ACAD_REACTORS
330
47
102
}
330
47
100
AcDbScale
 70
     0
300
1:4
140
1.0
141
4.0
290
     0
  0
SCALE
  5
4B
102
{ACAD_REACTORS
330
47
102
}
330
47
100
AcDbScale
 70
     0
300
1:5
140
1.0
141
5.0
290
     0
  0
SCALE
  5
4C
102
{ACAD_REACTORS
330
47
102
}
330
47
100
AcDbScale
 70
     0
300
1:8
140
1.0
141
8.0
290
     0
  0
SCALE
  5
4D
102
{ACAD_REACTORS
330
47
102
}
330
47
100
AcDbScale
 70
     0
300
1:10
140
1.0
141
10.0
290
     0
  0
SCALE
  5
4E
102
{ACAD_REACTORS
330
47
102
}
330
47
100
AcDbScale
 70
     0
300
1:16
140
1.0
141
16.0
290
     0
  0
SCALE
  5
4F
102
{ACAD_REACTORS
330
47
102
}
330
47
100
AcDbScale
 70
     0
300
1:20
140
1.0
141
20.0
290
     0
  0
SCALE
  5
50
102
{ACAD_REACTORS
330
47
102
}
330
47
100
AcDbScale
 70
     0
300
1:30
140
1.0
141
30.0
290
     0
  0
SCALE
  5
51
102
{ACAD_REACTORS
330
47
102
}
330
47
100
AcDbScale
 70
     0
300
1:40
140
1.0
141
40.0
290
     0
  0
SCALE
  5
52
102
{ACAD_REACTORS
330
47
102
}
330
47
100
AcDbScale
 70
     0
300
1:50
140
1.0
141
50.0
290
     0
  0
SCALE
  5
53
102
{ACAD_REACTORS
330
47
102
}
330
47
100
AcDbScale
 70
     0
300
1:100
140
1.0
141
100.0
290
     0
  0
SCALE
  5
54
102
{ACAD_REACTORS
330
47
102
}
330
47
100
AcDbScale
 70
     0
300
2:1
140
2.0
141
1.0
290
     0
  0
SCALE
  5
55
102
{ACAD_REACTORS
330
47
102
}
330
47
100
AcDbScale
 70
     0
300
4:1
140
4.0
141
1.0
290
     0
  0
SCALE
  5
56
102
{ACAD_REACTORS
330
47
102
}
330
47
100
AcDbScale
 70
     0
300
8:1
140
8.0
141
1.0
290
     0
  0
SCALE
  5
57
102
{ACAD_REACTORS
330
47
102
}
330
47
100
AcDbScale
 70
     0
300
10:1
140
10.0
141
1.0
290
     0
  0
SCALE
  5
58
102
{ACAD_REACTORS
330
47
102
}
330
47
100
AcDbScale
 70
     0
300
100:1
140
100.0
141
1.0
290
     0
  0
ENDSEC
  0
EOF
