  0
SECTION
  2
HEADER
  9
$ACADVER
  1
AC1015
  9
$ACADMAINTVER
 70
     6
  9
$DWGCODEPAGE
  3
ANSI_936
  9
$INSBASE
 10
0.0
 20
0.0
 30
0.0
  9
$EXTMIN
 10
0.0
 20
0.0
 30
0.0
  9
$EXTMAX
 10
297.0
 20
210.0
 30
0.0
  9
$LIMMIN
 10
0.0
 20
0.0
  9
$LIMMAX
 10
297.0
 20
210.0
  9
$ORTHOMODE
 70
     0
  9
$REGENMODE
 70
     1
  9
$FILLMODE
 70
     1
  9
$QTEXTMODE
 70
     0
  9
$MIRRTEXT
 70
     1
  9
$LTSCALE
 40
1.0
  9
$ATTMODE
 70
     1
  9
$TEXTSIZE
 40
3.5
  9
$TRACEWID
 40
1.0
  9
$TEXTSTYLE
  7
Standard
  9
$CLAYER
  8
0
  9
$CELTYPE
  6
ByLayer
  9
$CECOLOR
 62
   256
  9
$CELTSCALE
 40
1.0
  9
$DISPSILH
 70
     0
  9
$DIMSCALE
 40
1.0
  9
$DIMASZ
 40
4.08
  9
$DIMEXO
 40
0.0
  9
$DIMDLI
 40
3.75
  9
$DIMRND
 40
0.0
  9
$DIMDLE
 40
0.0
  9
$DIMEXE
 40
2.0
  9
$DIMTP
 40
0.0
  9
$DIMTM
 40
0.0
  9
$DIMTXT
 40
3.5
  9
$DIMCEN
 40
2.5
  9
$DIMTSZ
 40
0.0
  9
$DIMTOL
 70
     0
  9
$DIMLIM
 70
     0
  9
$DIMTIH
 70
     1
  9
$DIMTOH
 70
     1
  9
$DIMSE1
 70
     0
  9
$DIMSE2
 70
     0
  9
$DIMTAD
 70
     1
  9
$DIMZIN
 70
     0
  9
$DIMBLK
  1

  9
$DIMASO
 70
     1
  9
$DIMSHO
 70
     1
  9
$DIMPOST
  1

  9
$DIMAPOST
  1

  9
$DIMALT
 70
     0
  9
$DIMALTD
 70
     3
  9
$DIMALTF
 40
0.0393700787
  9
$DIMLFAC
 40
2.0
  9
$DIMTOFL
 70
     1
  9
$DIMTVP
 40
0.0
  9
$DIMTIX
 70
     0
  9
$DIMSOXD
 70
     0
  9
$DIMSAH
 70
     0
  9
$DIMBLK1
  1

  9
$DIMBLK2
  1

  9
$DIMSTYLE
  2
ISO-25
  9
$DIMCLRD
 70
     0
  9
$DIMCLRE
 70
     0
  9
$DIMCLRT
 70
     0
  9
$DIMTFAC
 40
1.0
  9
$DIMGAP
 40
1.524
  9
$DIMJUST
 70
     0
  9
$DIMSD1
 70
     0
  9
$DIMSD2
 70
     0
  9
$DIMTOLJ
 70
     0
  9
$DIMTZIN
 70
     0
  9
$DIMALTZ
 70
     0
  9
$DIMALTTZ
 70
     0
  9
$DIMUPT
 70
     0
  9
$DIMDEC
 70
     2
  9
$DIMTDEC
 70
     2
  9
$DIMALTU
 70
     2
  9
$DIMALTTD
 70
     3
  9
$DIMTXSTY
  7
Standard
  9
$DIMAUNIT
 70
     0
  9
$DIMADEC
 70
     2
  9
$DIMALTRND
 40
0.0
  9
$DIMAZIN
 70
     0
  9
$DIMDSEP
 70
    44
  9
$DIMATFIT
 70
     3
  9
$DIMFRAC
 70
     0
  9
$DIMLDRBLK
  1

  9
$DIMLUNIT
 70
     2
  9
$DIMLWD
 70
    -2
  9
$DIMLWE
 70
    -2
  9
$DIMTMOVE
 70
     0
  9
$LUNITS
 70
     2
  9
$LUPREC
 70
     2
  9
$SKETCHINC
 40
1.0
  9
$FILLETRAD
 40
0.0
  9
$AUNITS
 70
     0
  9
$AUPREC
 70
     2
  9
$MENU
  1
.
  9
$ELEVATION
 40
0.0
  9
$PELEVATION
 40
0.0
  9
$THICKNESS
 40
0.0
  9
$LIMCHECK
 70
     0
  9
$CHAMFERA
 40
0.0
  9
$CHAMFERB
 40
0.0
  9
$CHAMFERC
 40
0.0
  9
$CHAMFERD
 40
0.0
  9
$SKPOLY
 70
     0
  9
$TDCREATE
 40
2461215.791525278
  9
$TDUCREATE
 40
2461215.458191945
  9
$TDUPDATE
 40
2461215.791526042
  9
$TDUUPDATE
 40
2461215.458192709
  9
$TDINDWG
 40
0.0000000116
  9
$TDUSRTIMER
 40
0.0000000116
  9
$USRTIMER
 70
     1
  9
$ANGBASE
 50
0.0
  9
$ANGDIR
 70
     0
  9
$PDMODE
 70
     0
  9
$PDSIZE
 40
-1.0
  9
$PLINEWID
 40
0.0
  9
$SPLFRAME
 70
     0
  9
$SPLINETYPE
 70
     6
  9
$SPLINESEGS
 70
     8
  9
$HANDSEED
  5
1FF
  9
$SURFTAB1
 70
     6
  9
$SURFTAB2
 70
     6
  9
$SURFTYPE
 70
     6
  9
$SURFU
 70
     6
  9
$SURFV
 70
     6
  9
$UCSBASE
  2

  9
$UCSNAME
  2

  9
$UCSORG
 10
0.0
 20
0.0
 30
0.0
  9
$UCSXDIR
 10
1.0
 20
0.0
 30
0.0
  9
$UCSYDIR
 10
0.0
 20
1.0
 30
0.0
  9
$UCSORTHOREF
  2

  9
$UCSORTHOVIEW
 70
     0
  9
$UCSORGTOP
 10
0.0
 20
0.0
 30
0.0
  9
$UCSORGBOTTOM
 10
0.0
 20
0.0
 30
0.0
  9
$UCSORGLEFT
 10
0.0
 20
0.0
 30
0.0
  9
$UCSORGRIGHT
 10
0.0
 20
0.0
 30
0.0
  9
$UCSORGFRONT
 10
0.0
 20
0.0
 30
0.0
  9
$UCSORGBACK
 10
0.0
 20
0.0
 30
0.0
  9
$PUCSBASE
  2

  9
$PUCSNAME
  2

  9
$PUCSORG
 10
0.0
 20
0.0
 30
0.0
  9
$PUCSXDIR
 10
1.0
 20
0.0
 30
0.0
  9
$PUCSYDIR
 10
0.0
 20
1.0
 30
0.0
  9
$PUCSORTHOREF
  2

  9
$PUCSORTHOVIEW
 70
     0
  9
$PUCSORGTOP
 10
0.0
 20
0.0
 30
0.0
  9
$PUCSORGBOTTOM
 10
0.0
 20
0.0
 30
0.0
  9
$PUCSORGLEFT
 10
0.0
 20
0.0
 30
0.0
  9
$PUCSORGRIGHT
 10
0.0
 20
0.0
 30
0.0
  9
$PUCSORGFRONT
 10
0.0
 20
0.0
 30
0.0
  9
$PUCSORGBACK
 10
0.0
 20
0.0
 30
0.0
  9
$USERI1
 70
     0
  9
$USERI2
 70
     0
  9
$USERI3
 70
     0
  9
$USERI4
 70
     0
  9
$USERI5
 70
     0
  9
$USERR1
 40
0.0
  9
$USERR2
 40
0.0
  9
$USERR3
 40
0.0
  9
$USERR4
 40
0.0
  9
$USERR5
 40
0.0
  9
$WORLDVIEW
 70
     1
  9
$SHADEDGE
 70
     3
  9
$SHADEDIF
 70
    70
  9
$TILEMODE
 70
     1
  9
$MAXACTVP
 70
    64
  9
$PINSBASE
 10
0.0
 20
0.0
 30
0.0
  9
$PLIMCHECK
 70
     0
  9
$PEXTMIN
 10
1.0000000000E+20
 20
1.0000000000E+20
 30
1.0000000000E+20
  9
$PEXTMAX
 10
-1.0000000000E+20
 20
-1.0000000000E+20
 30
-1.0000000000E+20
  9
$PLIMMIN
 10
0.0
 20
0.0
  9
$PLIMMAX
 10
420.0
 20
297.0
  9
$UNITMODE
 70
     0
  9
$VISRETAIN
 70
     1
  9
$PLINEGEN
 70
     0
  9
$PSLTSCALE
 70
     1
  9
$TREEDEPTH
 70
  3020
  9
$CMLSTYLE
  2
Standard
  9
$CMLJUST
 70
     0
  9
$CMLSCALE
 40
20.0
  9
$PROXYGRAPHICS
 70
     1
  9
$MEASUREMENT
 70
     1
  9
$CELWEIGHT
370
    -1
  9
$ENDCAPS
280
     0
  9
$JOINSTYLE
280
     0
  9
$LWDISPLAY
290
     1
  9
$INSUNITS
 70
     4
  9
$HYPERLINKBASE
  1

  9
$STYLESHEET
  1

  9
$XEDIT
290
     1
  9
$CEPSNTYPE
380
     0
  9
$PSTYLEMODE
290
     1
  9
$FINGERPRINTGUID
  2
{c808040b-4c22-4e79-925f-cf2ba2004704}
  9
$VERSIONGUID
  2
{FAEB1C32-E019-11D5-929B-00C0DF256EC4}
  9
$EXTNAMES
290
     1
  9
$PSVPSCALE
 40
0.0
  9
$OLESTARTUP
290
     0
  0
ENDSEC
  0
SECTION
  2
CLASSES
  0
CLASS
  1
ACDBDICTIONARYWDFLT
  2
AcDbDictionaryWithDefault
  3
ObjectDBX Classes
 90
        0
280
     0
281
     0
  0
CLASS
  1
VISUALSTYLE
  2
AcDbVisualStyle
  3
ObjectDBX Classes
 90
     4095
280
     0
281
     0
  0
CLASS
  1
MATERIAL
  2
AcDbMaterial
  3
ObjectDBX Classes
 90
     1153
280
     0
281
     0
  0
CLASS
  1
SCALE
  2
AcDbScale
  3
ObjectDBX Classes
 90
     1153
280
     0
281
     0
  0
CLASS
  1
TABLESTYLE
  2
AcDbTableStyle
  3
ObjectDBX Classes
 90
     4095
280
     0
281
     0
  0
CLASS
  1
MLEADERSTYLE
  2
AcDbMLeaderStyle
  3
ACDB_MLEADERSTYLE_CLASS
 90
     4095
280
     0
281
     0
  0
CLASS
  1
SUN
  2
AcDbSun
  3
SCENEOE
 90
     1153
280
     0
281
     0
  0
CLASS
  1
ACDBPLACEHOLDER
  2
AcDbPlaceHolder
  3
ObjectDBX Classes
 90
        0
280
     0
281
     0
  0
CLASS
  1
LAYOUT
  2
AcDbLayout
  3
ObjectDBX Classes
 90
        0
280
     0
281
     0
  0
ENDSEC
  0
SECTION
  2
TABLES
  0
TABLE
  2
VPORT
  5
8
330
0
100
AcDbSymbolTable
 70
     1
  0
VPORT
  5
29
330
8
100
AcDbSymbolTableRecord
100
AcDbViewportTableRecord
  2
*Active
 70
     0
 10
0.0
 20
0.0
 11
1.0
 21
1.0
 12
148.5
 22
105.0
 13
0.0
 23
0.0
 14
10.0
 24
10.0
 15
10.0
 25
10.0
 16
0.0
 26
0.0
 36
1.0
 17
0.0
 27
0.0
 37
0.0
 40
210.0
 41
1.4142857143
 42
50.0
 43
0.0
 44
0.0
 50
0.0
 51
0.0
 71
     0
 72
  2000
 73
     1
 74
     3
 75
     0
 76
     0
 77
     0
 78
     0
281
     0
 65
     1
110
0.0
120
0.0
130
0.0
111
1.0
121
0.0
131
0.0
112
0.0
122
1.0
132
0.0
 79
     0
146
0.0
  0
ENDTAB
  0
TABLE
  2
LTYPE
  5
5
330
0
100
AcDbSymbolTable
 70
     6
  0
LTYPE
  5
14
330
5
100
AcDbSymbolTableRecord
100
AcDbLinetypeTableRecord
  2
ByBlock
 70
     0
  3

 72
    65
 73
     0
 40
0.0
  0
LTYPE
  5
15
330
5
100
AcDbSymbolTableRecord
100
AcDbLinetypeTableRecord
  2
ByLayer
 70
     0
  3

 72
    65
 73
     0
 40
0.0
  0
LTYPE
  5
16
330
5
100
AcDbSymbolTableRecord
100
AcDbLinetypeTableRecord
  2
Continuous
 70
     0
  3
Solid line
 72
    65
 73
     0
 40
0.0
  0
LTYPE
  5
5E
330
5
100
AcDbSymbolTableRecord
100
AcDbLinetypeTableRecord
  2
HIDDEN
 70
     0
  3
Hidden __ __ __ __ __ __ __ __ __ __ __ __ __ __
 72
    65
 73
     2
 40
1.905
 49
1.27
 74
     0
 49
-0.635
 74
     0
  0
LTYPE
  5
5F
330
5
100
AcDbSymbolTableRecord
100
AcDbLinetypeTableRecord
  2
PHANTOM
 70
     0
  3
Phantom ______  __  __  ______  __  __  ______
 72
    65
 73
     6
 40
12.7
 49
6.35
 74
     0
 49
-1.27
 74
     0
 49
1.27
 74
     0
 49
-1.27
 74
     0
 49
1.27
 74
     0
 49
-1.27
 74
     0
  0
LTYPE
  5
60
330
5
100
AcDbSymbolTableRecord
100
AcDbLinetypeTableRecord
  2
CENTER
 70
     0
  3
Center ____ _ ____ _ ____ _ ____ _ ____ _ ____
 72
    65
 73
     4
 40
10.16
 49
6.35
 74
     0
 49
-1.27
 74
     0
 49
1.27
 74
     0
 49
-1.27
 74
     0
  0
LTYPE
  5
61
330
5
100
AcDbSymbolTableRecord
100
AcDbLinetypeTableRecord
  2
CENTERX2
 70
     0
  3
Center (2x) ________  __  ________  __  _____
 72
    65
 73
     4
 40
20.32
 49
12.7
 74
     0
 49
-2.54
 74
     0
 49
2.54
 74
     0
 49
-2.54
 74
     0
  0
LTYPE
  5
62
330
5
100
AcDbSymbolTableRecord
100
AcDbLinetypeTableRecord
  2
DOT2
 70
     0
  3
Dot (.5x) ........................................
 72
    65
 73
     2
 40
0.635
 49
0.0
 74
     0
 49
-0.635
 74
     0
  0
ENDTAB
  0
TABLE
  2
LAYER
  5
2
330
0
100
AcDbSymbolTable
 70
    14
  0
LAYER
  5
10
330
2
100
AcDbSymbolTableRecord
100
AcDbLayerTableRecord
  2
0
 70
     0
 62
     7
  6
Continuous
370
    -3
390
F
  0
LAYER
  5
63
330
2
100
AcDbSymbolTableRecord
100
AcDbLayerTableRecord
  2
SLD-0
 70
     0
 62
     7
  6
Continuous
370
    -3
390
F
  0
LAYER
  5
64
330
2
100
AcDbSymbolTableRecord
100
AcDbLayerTableRecord
  2
5
 70
     0
 62
     7
  6
Continuous
370
    -3
390
F
  0
LAYER
  5
65
330
2
100
AcDbSymbolTableRecord
100
AcDbLayerTableRecord
  2
9
 70
     0
 62
     7
  6
Continuous
370
    -3
390
F
  0
LAYER
  5
66
330
2
100
AcDbSymbolTableRecord
100
AcDbLayerTableRecord
  2
10
 70
     0
 62
     7
  6
Continuous
370
    -3
390
F
  0
LAYER
  5
67
330
2
100
AcDbSymbolTableRecord
100
AcDbLayerTableRecord
  2
轮廓实线层
 70
     0
 62
     7
  6
Continuous
370
    50
390
F
  0
LAYER
  5
68
330
2
100
AcDbSymbolTableRecord
100
AcDbLayerTableRecord
  2
细线层
 70
     0
 62
     4
  6
Continuous
370
    25
390
F
  0
LAYER
  5
69
330
2
100
AcDbSymbolTableRecord
100
AcDbLayerTableRecord
  2
中心线层
 70
     0
 62
     1
  6
CENTERX2
370
    25
390
F
  0
LAYER
  5
6A
330
2
100
AcDbSymbolTableRecord
100
AcDbLayerTableRecord
  2
虚线层
 70
     0
 62
     6
  6
HIDDEN
370
    25
390
F
  0
LAYER
  5
6B
330
2
100
AcDbSymbolTableRecord
100
AcDbLayerTableRecord
  2
剖面线层
 70
     0
 62
     2
  6
Continuous
370
    25
390
F
  0
LAYER
  5
6C
330
2
100
AcDbSymbolTableRecord
100
AcDbLayerTableRecord
  2
文字层
 70
     0
 62
     3
  6
Continuous
370
    25
390
F
  0
LAYER
  5
6D
330
2
100
AcDbSymbolTableRecord
100
AcDbLayerTableRecord
  2
标注层
 70
     0
 62
     4
  6
Continuous
370
    25
390
F
  0
LAYER
  5
6E
330
2
100
AcDbSymbolTableRecord
100
AcDbLayerTableRecord
  2
符号标注层
 70
     0
 62
    31
  6
Continuous
370
    25
390
F
  0
LAYER
  5
6F
330
2
100
AcDbSymbolTableRecord
100
AcDbLayerTableRecord
  2
双点划线层
 70
     0
 62
     6
  6
PHANTOM
370
    25
390
F
  0
ENDTAB
  0
TABLE
  2
STYLE
  5
3
330
0
100
AcDbSymbolTable
 70
     1
  0
STYLE
  5
11
330
3
100
AcDbSymbolTableRecord
100
AcDbTextStyleTableRecord
  2
Standard
 70
     0
 40
0.0
 41
1.0
 50
0.0
 71
     0
 42
3.5
  3
txt
  4

  0
ENDTAB
  0
TABLE
  2
VIEW
  5
6
330
0
100
AcDbSymbolTable
 70
     0
  0
ENDTAB
  0
TABLE
  2
UCS
  5
7
330
0
100
AcDbSymbolTable
 70
     0
  0
ENDTAB
  0
TABLE
  2
APPID
  5
9
330
0
100
AcDbSymbolTable
 70
     1
  0
APPID
  5
12
330
9
100
AcDbSymbolTableRecord
100
AcDbRegAppTableRecord
  2
ACAD
 70
     0
  0
ENDTAB
  0
TABLE
  2
DIMSTYLE
  5
A
330
0
100
AcDbSymbolTable
 70
     1
100
AcDbDimStyleTable
  0
DIMSTYLE
105
27
330
A
100
AcDbSymbolTableRecord
100
AcDbDimStyleTableRecord
  2
ISO-25
 70
     0
 41
2.5
 42
0.625
 43
3.75
 44
1.25
 73
     0
 74
     0
 77
     1
 78
     8
140
2.5
141
2.5
143
0.0393700787
147
0.625
171
     3
172
     1
178
     0
271
     2
272
     2
274
     3
278
    44
283
     0
284
     8
340
11
  0
ENDTAB
  0
TABLE
  2
BLOCK_RECORD
  5
1
330
0
100
AcDbSymbolTable
 70
     2
  0
BLOCK_RECORD
  5
1F
330
1
100
AcDbSymbolTableRecord
100
AcDbBlockTableRecord
  2
*Model_Space
340
22
  0
BLOCK_RECORD
  5
1B
330
1
100
AcDbSymbolTableRecord
100
AcDbBlockTableRecord
  2
*Paper_Space
340
1E
  0
BLOCK_RECORD
  5
23
330
1
100
AcDbSymbolTableRecord
100
AcDbBlockTableRecord
  2
*Paper_Space0
340
26
  0
BLOCK_RECORD
  5
16A
330
1
100
AcDbSymbolTableRecord
100
AcDbBlockTableRecord
  2
SW_CENTERMARKSYMBOL_0
340
0
102
{BLKREFS
331
175
102
}
  0
ENDTAB
  0
ENDSEC
  0
SECTION
  2
BLOCKS
  0
BLOCK
  5
20
330
1F
100
AcDbEntity
  8
0
100
AcDbBlockBegin
  2
*Model_Space
 70
     0
 10
0.0
 20
0.0
 30
0.0
  3
*Model_Space
  1

  0
ENDBLK
  5
21
330
1F
100
AcDbEntity
  8
0
100
AcDbBlockEnd
  0
BLOCK
  5
1C
330
1B
100
AcDbEntity
 67
     1
  8
0
100
AcDbBlockBegin
  2
*Paper_Space
 70
     0
 10
0.0
 20
0.0
 30
0.0
  3
*Paper_Space
  1

  0
ENDBLK
  5
1D
330
1B
100
AcDbEntity
 67
     1
  8
0
100
AcDbBlockEnd
  0
BLOCK
  5
24
330
23
100
AcDbEntity
  8
0
100
AcDbBlockBegin
  2
*Paper_Space0
 70
     0
 10
0.0
 20
0.0
 30
0.0
  3
*Paper_Space0
  1

  0
ENDBLK
  5
25
330
23
100
AcDbEntity
  8
0
100
AcDbBlockEnd
  0
BLOCK
  5
16B
330
16A
100
AcDbEntity
  8
0
100
AcDbBlockBegin
  2
SW_CENTERMARKSYMBOL_0
 70
     0
 10
0.0
 20
0.0
 30
0.0
  3
SW_CENTERMARKSYMBOL_0
  1

  0
LINE
  5
16D
330
16A
100
AcDbEntity
  8
10
 62
     0
100
AcDbLine
 10
0.0
 20
0.0
 30
0.0
 11
0.0
 21
2.5
 31
0.0
  0
LINE
  5
16E
330
16A
100
AcDbEntity
  8
10
 62
     0
100
AcDbLine
 10
0.0
 20
0.0
 30
0.0
 11
-2.5
 21
0.0
 31
0.0
  0
LINE
  5
16F
330
16A
100
AcDbEntity
  8
10
 62
     0
100
AcDbLine
 10
0.0
 20
0.0
 30
0.0
 11
0.0
 21
-2.5
 31
0.0
  0
LINE
  5
170
330
16A
100
AcDbEntity
  8
10
 62
     0
100
AcDbLine
 10
0.0
 20
0.0
 30
0.0
 11
2.5
 21
0.0
 31
0.0
  0
LINE
  5
171
330
16A
100
AcDbEntity
  8
10
 62
     0
100
AcDbLine
 10
0.0
 20
5.0
 30
0.0
 11
0.0
 21
6.2528456032
 31
0.0
  0
LINE
  5
172
330
16A
100
AcDbEntity
  8
10
 62
     0
100
AcDbLine
 10
-5.0
 20
0.0
 30
0.0
 11
-6.2528456032
 21
0.0
 31
0.0
  0
LINE
  5
173
330
16A
100
AcDbEntity
  8
10
 62
     0
100
AcDbLine
 10
0.0
 20
-5.0
 30
0.0
 11
0.0
 21
-6.2528456032
 31
0.0
  0
LINE
  5
174
330
16A
100
AcDbEntity
  8
10
 62
     0
100
AcDbLine
 10
5.0
 20
0.0
 30
0.0
 11
6.2528456032
 21
0.0
 31
0.0
  0
ENDBLK
  5
16C
330
16A
100
AcDbEntity
  8
0
100
AcDbBlockEnd
  0
ENDSEC
  0
SECTION
  2
ENTITIES
  0
ARC
  5
70
330
1F
100
AcDbEntity
  8
0
  6
Continuous
 62
     7
370
    25
100
AcDbCircle
 10
72.9544703482
 20
68.2585368097
 30
0.0
 40
0.9382114008092373
100
AcDbArc
 50
0.0
 51
90.0
  0
ARC
  5
71
330
1F
100
AcDbEntity
  8
0
  6
Continuous
 62
     7
370
    25
100
AcDbCircle
 10
82.3365843563
 20
68.2585368097
 30
0.0
 40
0.9382114008092373
100
AcDbArc
 50
90.0
 51
180.0
  0
ARC
  5
72
330
1F
100
AcDbEntity
  8
0
  6
Continuous
 62
     7
370
    25
100
AcDbCircle
 10
82.3365843563
 20
45.7414631903
 30
0.0
 40
0.9382114008092302
100
AcDbArc
 50
180.0
 51
270.0
  0
ARC
  5
73
330
1F
100
AcDbEntity
  8
0
  6
Continuous
 62
     7
370
    25
100
AcDbCircle
 10
72.9544703482
 20
45.7414631903
 30
0.0
 40
0.9382114008092373
100
AcDbArc
 50
270.0
 51
0.0
  0
LINE
  5
74
330
1F
100
AcDbEntity
  8
0
  6
Continuous
 62
     7
370
    25
100
AcDbLine
 10
73.892681749
 20
68.2585368097
 30
0.0
 11
73.892681749
 21
45.7414631903
 31
0.0
  0
LINE
  5
75
330
1F
100
AcDbEntity
  8
0
  6
Continuous
 62
     7
370
    25
100
AcDbLine
 10
81.3983729555
 20
45.7414631903
 30
0.0
 11
81.3983729555
 21
68.2585368097
 31
0.0
  0
LINE
  5
76
330
1F
100
AcDbEntity
  8
0
  6
Continuous
 62
     7
370
    25
100
AcDbLine
 10
33.0
 20
42.9268289879
 30
0.0
 11
33.0
 21
38.2357719838
 31
0.0
  0
LINE
  5
77
330
1F
100
AcDbEntity
  8
0
  6
Continuous
 62
     7
370
    25
100
AcDbLine
 10
33.0
 20
75.7642280162
 30
0.0
 11
33.0
 21
71.0731710121
 31
0.0
  0
ARC
  5
78
330
1F
100
AcDbEntity
  8
0
  6
Continuous
 62
     7
370
    25
100
AcDbCircle
 10
62.6341449393
 20
44.8032517895
 30
0.0
 40
0.8607815846875226
100
AcDbArc
 50
0.0
 51
180.0
  0
ARC
  5
79
330
1F
100
AcDbEntity
  8
0
  6
Continuous
 62
     7
370
    25
100
AcDbCircle
 10
62.6341449393
 20
44.8032517895
 30
0.0
 40
1.876422801618475
100
AcDbArc
 50
0.0
 51
180.0
  0
LINE
  5
7A
330
1F
100
AcDbEntity
  8
0
  6
Continuous
 62
     7
370
    25
100
AcDbLine
 10
69.201624745
 20
44.8032517895
 30
0.0
 11
63.494926524
 21
44.8032517895
 31
0.0
  0
ARC
  5
7B
330
1F
100
AcDbEntity
  8
0
  6
Continuous
 62
     7
370
    25
100
AcDbCircle
 10
70.1398361458
 20
44.8032517895
 30
0.0
 40
0.9382114008092373
100
AcDbArc
 50
0.0
 51
180.0
  0
LINE
  5
7C
330
1F
100
AcDbEntity
  8
0
  6
Continuous
 62
     7
370
    25
100
AcDbLine
 10
74.2422433693
 20
44.8032517895
 30
0.0
 11
71.0780475466
 21
44.8032517895
 31
0.0
  0
LINE
  5
7D
330
1F
100
AcDbEntity
  8
0
  6
Continuous
 62
     7
370
    25
100
AcDbLine
 10
61.7733633546
 20
44.8032517895
 30
0.0
 11
61.6959335385
 21
44.8032517895
 31
0.0
  0
LINE
  5
7E
330
1F
100
AcDbEntity
  8
0
  6
Continuous
 62
     7
370
    25
100
AcDbLine
 10
61.6959335385
 20
40.1121947854
 30
0.0
 11
74.2422433693
 21
40.1121947854
 31
0.0
  0
ARC
  5
7F
330
1F
100
AcDbEntity
  8
0
  6
Continuous
 62
     7
370
    25
100
AcDbCircle
 10
70.1398361458
 20
69.1967482105
 30
0.0
 40
1.876422801618489
100
AcDbArc
 50
180.0
 51
0.0
  0
ARC
  5
80
330
1F
100
AcDbEntity
  8
0
  6
Continuous
 62
     7
370
    25
100
AcDbCircle
 10
70.1398361458
 20
69.1967482105
 30
0.0
 40
0.9382114008092373
100
AcDbArc
 50
180.0
 51
0.0
  0
SPLINE
  5
81
330
1F
100
AcDbEntity
  8
0
  6
Continuous
 62
     7
370
    25
100
AcDbSpline
210
0.0
220
0.0
230
1.0
 70
     8
 71
     3
 72
    12
 73
     8
 74
     0
 42
0.00000001
 43
0.00000001
 40
0.0
 40
0.0
 40
0.0
 40
0.0
 40
0.2500000000000007
 40
0.2500000000000007
 40
0.5000000000000013
 40
0.5000000000000013
 40
1.0
 40
1.0
 40
1.0
 40
1.0
 10
84.23143994170368
 20
69.19674821051746
 30
0.0
 10
84.23143943745882
 20
69.07236125606829
 30
0.0
 10
84.24993857849633
 20
68.95123960891789
 30
0.0
 10
84.31865187381783
 20
68.7217361260084
 30
0.0
 10
84.36799404855013
 20
68.61650281472606
 30
0.0
 10
84.54443109584933
 20
68.33591705971085
 30
0.0
 10
84.69645522599647
 20
68.19771915774571
 30
0.0
 10
84.85689366845031
 20
68.09922806158762
 30
0.0
  0
LINE
  5
82
330
1F
100
AcDbEntity
  8
0
  6
Continuous
 62
     7
370
    25
100
AcDbLine
 10
84.231439945
 20
69.1967482105
 30
0.0
 11
74.2422433693
 21
69.1967482105
 31
0.0
  0
LINE
  5
83
330
1F
100
AcDbEntity
  8
0
  6
Continuous
 62
     7
370
    25
100
AcDbLine
 10
74.2422433693
 20
73.8878052146
 30
0.0
 11
84.8568936685
 21
73.8878052146
 31
0.0
  0
ARC
  5
84
330
1F
100
AcDbEntity
  8
0
  6
Continuous
 62
     7
370
    25
100
AcDbCircle
 10
62.6341449393
 20
69.1967482105
 30
0.0
 40
0.9382114008092373
100
AcDbArc
 50
180.000000001
 51
0.0
  0
LINE
  5
85
330
1F
100
AcDbEntity
  8
0
  6
Continuous
 62
     7
370
    25
100
AcDbLine
 10
74.2422433693
 20
69.1967482105
 30
0.0
 11
71.0780475466
 21
69.1967482105
 31
0.0
  0
LINE
  5
86
330
1F
100
AcDbEntity
  8
0
  6
Continuous
 62
     7
370
    25
100
AcDbLine
 10
61.6959335385
 20
73.8878052146
 30
0.0
 11
74.2422433693
 21
73.8878052146
 31
0.0
  0
LINE
  5
87
330
1F
100
AcDbEntity
  8
0
  6
Continuous
 62
     7
370
    25
100
AcDbLine
 10
69.201624745
 20
69.1967482105
 30
0.0
 11
63.5723563401
 21
69.1967482105
 31
0.0
  0
SPLINE
  5
88
330
1F
100
AcDbEntity
  8
0
  6
Continuous
 62
     7
370
    25
100
AcDbSpline
210
0.0
220
0.0
230
1.0
 70
     8
 71
     3
 72
    24
 73
    20
 74
     0
 42
0.00000001
 43
0.00000001
 40
0.0
 40
0.0
 40
0.0
 40
0.0
 40
0.0625000000000006
 40
0.0625000000000006
 40
0.1250000000000012
 40
0.1250000000000012
 40
0.2500000000000011
 40
0.2500000000000011
 40
0.3750000000000009
 40
0.3750000000000009
 40
0.5000000000000008
 40
0.5000000000000008
 40
0.6250000000000006
 40
0.6250000000000006
 40
0.7500000000000003
 40
0.7500000000000003
 40
0.8750000000000002
 40
0.8750000000000002
 40
1.0
 40
1.0
 40
1.0
 40
1.0
 10
53.70581984971655
 20
69.19674821051875
 30
0.0
 10
53.70582130358222
 20
69.1294245858894
 30
0.0
 10
53.71362797792609
 20
69.06394160218132
 30
0.0
 10
53.74349666054119
 20
68.93632587670714
 30
0.0
 10
53.76601732704069
 20
68.87373680713513
 30
0.0
 10
53.8500116943903
 20
68.70105961121382
 30
0.0
 10
53.92944961468807
 20
68.60145035599237
 30
0.0
 10
54.11329147750079
 20
68.44262974225546
 30
0.0
 10
54.21742845997409
 20
68.38280977206915
 30
0.0
 10
54.43921112762018
 20
68.30146522128457
 30
0.0
 10
54.55454821020868
 20
68.28052396105542
 30
0.0
 10
54.7902127289522
 20
68.2775637215124
 30
0.0
 10
54.90782920414683
 20
68.29576399706812
 30
0.0
 10
55.13494735067892
 20
68.37341434236383
 30
0.0
 10
55.24424546987715
 20
68.43323266041496
 30
0.0
 10
55.436212857598
 20
68.59479082052253
 30
0.0
 10
55.5175286009988
 20
68.69510796927881
 30
0.0
 10
55.63339313432873
 20
68.93095341318568
 30
0.0
 10
55.66519693264342
 20
69.06198742036797
 30
0.0
 10
55.66519423928617
 20
69.19674821052158
 30
0.0
  0
LINE
  5
89
330
1F
100
AcDbEntity
  8
0
  6
Continuous
 62
     7
370
    25
100
AcDbLine
 10
53.7058198503
 20
69.1967482105
 30
0.0
 11
46.6845511256
 21
69.1967482105
 31
0.0
  0
LINE
  5
8A
330
1F
100
AcDbEntity
  8
0
  6
Continuous
 62
     7
370
    25
100
AcDbLine
 10
46.6845511256
 20
69.1967482105
 30
0.0
 11
46.6845511256
 21
73.8878052146
 31
0.0
  0
LINE
  5
8B
330
1F
100
AcDbEntity
  8
0
  6
Continuous
 62
     7
370
    25
100
AcDbLine
 10
61.6959335385
 20
69.1967482105
 30
0.0
 11
55.6651942079
 21
69.1967482105
 31
0.0
  0
LINE
  5
8C
330
1F
100
AcDbEntity
  8
0
  6
Continuous
 62
     7
370
    25
100
AcDbLine
 10
46.6845511256
 20
73.8878052146
 30
0.0
 11
61.6959335385
 21
73.8878052146
 31
0.0
  0
ARC
  5
8D
330
1F
100
AcDbEntity
  8
0
  6
Continuous
 62
     7
370
    25
100
AcDbCircle
 10
62.6341449393
 20
69.1967482105
 30
0.0
 40
1.876422801618475
100
AcDbArc
 50
180.0
 51
0.0
  0
LINE
  5
8E
330
1F
100
AcDbEntity
  8
0
  6
Continuous
 62
     7
370
    25
100
AcDbLine
 10
46.6845511256
 20
40.1121947854
 30
0.0
 11
46.6845511256
 21
44.8032517895
 31
0.0
  0
LINE
  5
8F
330
1F
100
AcDbEntity
  8
0
  6
Continuous
 62
     7
370
    25
100
AcDbLine
 10
46.6845511256
 20
44.8032517895
 30
0.0
 11
53.7051617322
 21
44.8032517895
 31
0.0
  0
SPLINE
  5
90
330
1F
100
AcDbEntity
  8
0
  6
Continuous
 62
     7
370
    25
100
AcDbSpline
210
0.0
220
0.0
230
1.0
 70
     8
 71
     3
 72
    20
 73
    16
 74
     0
 42
0.00000001
 43
0.00000001
 40
0.0
 40
0.0
 40
0.0
 40
0.0
 40
0.1249999999999996
 40
0.1249999999999996
 40
0.2499999999999992
 40
0.2499999999999992
 40
0.3749999999999988
 40
0.3749999999999988
 40
0.4999999999999984
 40
0.4999999999999984
 40
0.7499999999999992
 40
0.7499999999999992
 40
0.8749999999999996
 40
0.8749999999999996
 40
1.0
 40
1.0
 40
1.0
 40
1.0
 10
55.66627628971063
 20
44.80325178944948
 30
0.0
 10
55.66627189563715
 20
44.93776536010443
 30
0.0
 10
55.63417343961956
 20
45.06959187534498
 30
0.0
 10
55.51955371489009
 20
45.30341802702395
 30
0.0
 10
55.43723971356926
 20
45.4056168044191
 30
0.0
 10
55.24495624570065
 20
45.56748893649485
 30
0.0
 10
55.13595151018819
 20
45.6272683157179
 30
0.0
 10
54.90695520766673
 20
45.70544991294158
 30
0.0
 10
54.78902828541577
 20
45.72342125218768
 30
0.0
 10
54.43557828374044
 20
45.71850040861593
 30
0.0
 10
54.20659118325781
 20
45.63834075952414
 30
0.0
 10
53.93014413670999
 20
45.4003820060882
 30
0.0
 10
53.85069232143307
 20
45.30138355034443
 30
0.0
 10
53.73746718717741
 20
45.06959263924696
 30
0.0
 10
53.70516143742078
 20
44.93800642669591
 30
0.0
 10
53.70516164038164
 20
44.80325178947955
 30
0.0
  0
LINE
  5
91
330
1F
100
AcDbEntity
  8
0
  6
Continuous
 62
     7
370
    25
100
AcDbLine
 10
55.6662762585
 20
44.8032517894
 30
0.0
 11
61.6959335385
 21
44.8032517895
 31
0.0
  0
LINE
  5
92
330
1F
100
AcDbEntity
  8
0
  6
Continuous
 62
     7
370
    25
100
AcDbLine
 10
61.6959335385
 20
40.1121947854
 30
0.0
 11
46.6845511256
 21
40.1121947854
 31
0.0
  0
ARC
  5
93
330
1F
100
AcDbEntity
  8
0
  6
Continuous
 62
     7
370
    25
100
AcDbCircle
 10
70.1398361458
 20
44.8032517895
 30
0.0
 40
1.876422801618489
100
AcDbArc
 50
0.0
 51
180.0
  0
LINE
  5
94
330
1F
100
AcDbEntity
  8
0
  6
Continuous
 62
     7
370
    25
100
AcDbLine
 10
74.2422433693
 20
44.8032517895
 30
0.0
 11
84.2309822561
 21
44.8032517895
 31
0.0
  0
SPLINE
  5
95
330
1F
100
AcDbEntity
  8
0
  6
Continuous
 62
     7
370
    25
100
AcDbSpline
210
0.0
220
0.0
230
1.0
 70
     8
 71
     3
 72
    14
 73
    10
 74
     0
 42
0.00000001
 43
0.00000001
 40
0.0
 40
0.0
 40
0.0
 40
0.0
 40
0.25
 40
0.25
 40
0.5
 40
0.5
 40
0.75
 40
0.75
 40
1.0
 40
1.0
 40
1.0
 40
1.0
 10
84.85689366845033
 20
45.90120469647545
 30
0.0
 10
84.77667352510407
 20
45.85199022091221
 30
0.0
 10
84.69960671911743
 20
45.7934703696983
 30
0.0
 10
84.55425954218516
 20
45.65348903843253
 30
0.0
 10
84.48552864192354
 20
45.57106025939147
 30
0.0
 10
84.36830115672089
 20
45.38494944786645
 30
0.0
 10
84.31841312360342
 20
45.27859017365595
 30
0.0
 10
84.25006210719687
 20
45.05118259638377
 30
0.0
 10
84.23098177095905
 20
44.92772488528154
 30
0.0
 10
84.2309822527699
 20
44.80325178947989
 30
0.0
  0
LINE
  5
96
330
1F
100
AcDbEntity
  8
0
  6
Continuous
 62
     7
370
    25
100
AcDbLine
 10
84.8568936685
 20
40.1121947854
 30
0.0
 11
74.2422433693
 21
40.1121947854
 31
0.0
  0
SPLINE
  5
97
330
1F
100
AcDbEntity
  8
0
  6
Continuous
 62
     7
370
    25
100
AcDbSpline
210
0.0
220
0.0
230
1.0
 70
     8
 71
     3
 72
    36
 73
    32
 74
     0
 42
0.00000001
 43
0.00000001
 40
0.0
 40
0.0
 40
0.0
 40
0.0
 40
0.0624999999999997
 40
0.0624999999999997
 40
0.1249999999999993
 40
0.1249999999999993
 40
0.1874999999999989
 40
0.1874999999999989
 40
0.2499999999999986
 40
0.2499999999999986
 40
0.3749999999999979
 40
0.3749999999999979
 40
0.4374999999999981
 40
0.4374999999999981
 40
0.4999999999999983
 40
0.4999999999999983
 40
0.5624999999999986
 40
0.5624999999999986
 40
0.6249999999999988
 40
0.6249999999999988
 40
0.687499999999999
 40
0.687499999999999
 40
0.7499999999999991
 40
0.7499999999999991
 40
0.8124999999999993
 40
0.8124999999999993
 40
0.8749999999999996
 40
0.8749999999999996
 40
0.9374999999999998
 40
0.9374999999999998
 40
1.0
 40
1.0
 40
1.0
 40
1.0
 10
53.25203093121495
 20
44.80325178947894
 30
0.0
 10
53.25203093121486
 20
44.92934800271514
 30
0.0
 10
53.26461168689285
 20
45.05318558008896
 30
0.0
 10
53.31378383370686
 20
45.29655416035211
 30
0.0
 10
53.35104430339212
 20
45.41737966483344
 30
0.0
 10
53.44731045767304
 20
45.64592290891864
 30
0.0
 10
53.50607110818528
 20
45.75407550656797
 30
0.0
 10
53.64456918478226
 20
45.95836120844953
 30
0.0
 10
53.72417447986309
 20
46.05376783406579
 30
0.0
 10
53.9842778050316
 20
46.3102807365463
 30
0.0
 10
54.19201249926793
 20
46.44706665969486
 30
0.0
 10
54.52637326295798
 20
46.58453879147743
 30
0.0
 10
54.64370961603585
 20
46.62000095957666
 30
0.0
 10
54.88065603433731
 20
46.66715916551477
 30
0.0
 10
55.0002175438548
 20
46.67917121690184
 30
0.0
 10
55.24150948108256
 20
46.68014726236341
 30
0.0
 10
55.36403891216427
 20
46.66874535160112
 30
0.0
 10
55.60138705656405
 20
46.62311460803002
 30
0.0
 10
55.71735755505807
 20
46.58904210726234
 30
0.0
 10
55.94369749088563
 20
46.49772291224158
 30
0.0
 10
56.05338378373521
 20
46.44042005349099
 30
0.0
 10
56.2573864277596
 20
46.30702254796437
 30
0.0
 10
56.35295256728443
 20
46.23048567800839
 30
0.0
 10
56.5304135785759
 20
46.05660830662168
 30
0.0
 10
56.60970538972443
 20
45.96171675004084
 30
0.0
 10
56.74848655440341
 20
45.75805082222229
 30
0.0
 10
56.80871545234159
 20
45.64779227733515
 30
0.0
 10
56.90573602063652
 20
45.41790270758926
 30
0.0
 10
56.94236174678073
 20
45.29943076446907
 30
0.0
 10
56.99200767385148
 20
45.05548693215357
 30
0.0
 10
57.00487653445382
 20
44.92932882040758
 30
0.0
 10
57.00487653445188
 20
44.80325178945104
 30
0.0
  0
SPLINE
  5
98
330
1F
100
AcDbEntity
  8
0
  6
Continuous
 62
     7
370
    25
100
AcDbSpline
210
0.0
220
0.0
230
1.0
 70
     8
 71
     3
 72
    34
 73
    30
 74
     0
 42
0.00000001
 43
0.00000001
 40
0.0
 40
0.0
 40
0.0
 40
0.0
 40
0.0625000000000005
 40
0.0625000000000005
 40
0.1250000000000011
 40
0.1250000000000011
 40
0.1875000000000016
 40
0.1875000000000016
 40
0.2500000000000022
 40
0.2500000000000022
 40
0.3750000000000036
 40
0.3750000000000036
 40
0.4375000000000031
 40
0.4375000000000031
 40
0.5000000000000026
 40
0.5000000000000026
 40
0.5625000000000022
 40
0.5625000000000022
 40
0.6250000000000018
 40
0.6250000000000018
 40
0.6875000000000013
 40
0.6875000000000013
 40
0.7500000000000008
 40
0.7500000000000008
 40
0.8750000000000004
 40
0.8750000000000004
 40
0.9375000000000002
 40
0.9375000000000002
 40
1.0
 40
1.0
 40
1.0
 40
1.0
 10
57.00487653445188
 20
69.1967482105133
 30
0.0
 10
57.00487653445143
 20
69.07067119134533
 30
0.0
 10
56.99229909380121
 20
68.94679089271911
 30
0.0
 10
56.94307297412939
 20
68.70323509069257
 30
0.0
 10
56.90576649015669
 20
68.58224681803819
 30
0.0
 10
56.80903675608987
 20
68.3528920020056
 30
0.0
 10
56.74993117338882
 20
68.2443031545081
 30
0.0
 10
56.61048630438924
 20
68.03919901856348
 30
0.0
 10
56.52994980441898
 20
67.94301604797256
 30
0.0
 10
56.2669853235821
 20
67.68512639211795
 30
0.0
 10
56.05651421342557
 20
67.54793603089936
 30
0.0
 10
55.71894585194781
 20
67.41152821849816
 30
0.0
 10
55.60075052536573
 20
67.37668308744767
 30
0.0
 10
55.36228052764334
 20
67.33099733151995
 30
0.0
 10
55.24230469744327
 20
67.31989766469223
 30
0.0
 10
55.00091464558228
 20
67.32077811621154
 30
0.0
 10
54.87875770464954
 20
67.33311982499391
 30
0.0
 10
54.64262641698205
 20
67.38031470361642
 30
0.0
 10
54.52750833167275
 20
67.41502893943455
 30
0.0
 10
54.30324050387061
 20
67.50716777062426
 30
0.0
 10
54.19488289715847
 20
67.56456943184986
 30
0.0
 10
53.99325906869432
 20
67.69778351938345
 30
0.0
 10
53.89882649656616
 20
67.77402285323252
 30
0.0
 10
53.63571051044416
 20
68.03341145339994
 30
0.0
 10
53.49595768793035
 20
68.23866237300595
 30
0.0
 10
53.3509192586131
 20
68.58287848252321
 30
0.0
 10
53.3144141594664
 20
68.70111660856843
 30
0.0
 10
53.26491221235301
 20
68.94455134289417
 30
0.0
 10
53.2520309312152
 20
69.07063229479722
 30
0.0
 10
53.25203093121496
 20
69.19674821051646
 30
0.0
  0
SPLINE
  5
99
330
1F
100
AcDbEntity
  8
0
  6
Continuous
 62
     7
370
    25
100
AcDbSpline
210
0.0
220
0.0
230
1.0
 70
     8
 71
     3
 72
    12
 73
     8
 74
     0
 42
0.00000001
 43
0.00000001
 40
0.0
 40
0.0
 40
0.0
 40
0.0
 40
0.2499999999999996
 40
0.2499999999999996
 40
0.4999999999999992
 40
0.4999999999999992
 40
1.0
 40
1.0
 40
1.0
 40
1.0
 10
83.2747957571105
 20
44.8032517894808
 30
0.0
 10
83.27479575711057
 20
44.97047293695287
 30
0.0
 10
83.29675777875842
 20
45.13332165092988
 30
0.0
 10
83.38236807350778
 20
45.45066113357327
 30
0.0
 10
83.44488758148685
 20
45.59974951607163
 30
0.0
 10
83.68096711667654
 20
46.0112953463473
 30
0.0
 10
83.89938163012295
 20
46.23041314399141
 30
0.0
 10
84.14216366288447
 20
46.3852665642548
 30
0.0
  0
SPLINE
  5
9A
330
1F
100
AcDbEntity
  8
0
  6
Continuous
 62
     7
370
    25
100
AcDbSpline
210
0.0
220
0.0
230
1.0
 70
     8
 71
     3
 72
    14
 73
    10
 74
     0
 42
0.00000001
 43
0.00000001
 40
0.0
 40
0.0
 40
0.0
 40
0.0
 40
0.25
 40
0.25
 40
0.5
 40
0.5
 40
0.75
 40
0.75
 40
1.0
 40
1.0
 40
1.0
 40
1.0
 10
84.1416894934039
 20
67.61503597477756
 30
0.0
 10
84.02023675316616
 20
67.69255328074681
 30
0.0
 10
83.90678092468022
 20
67.78438901384797
 30
0.0
 10
83.69854640631024
 20
67.9996153260631
 30
0.0
 10
83.6031541718763
 20
68.12474656506637
 30
0.0
 10
83.44632337862602
 20
68.39735888199564
 30
0.0
 10
83.38269568865636
 20
68.54870108788833
 30
0.0
 10
83.29732583281896
 20
68.86400209718576
 30
0.0
 10
83.27479575711058
 20
69.02922840288112
 30
0.0
 10
83.2747957571105
 20
69.19674821051915
 30
0.0
  0
SPLINE
  5
9B
330
1F
100
AcDbEntity
  8
0
  6
Continuous
 62
     7
370
    25
100
AcDbSpline
210
0.0
220
0.0
230
1.0
 70
     8
 71
     3
 72
    34
 73
    30
 74
     0
 42
0.00000001
 43
0.00000001
 40
0.000000726602435
 40
0.000000726602435
 40
0.000000726602435
 40
0.000000726602435
 40
0.2807270987500897
 40
0.2807270987500897
 40
0.421090284823915
 40
0.421090284823915
 40
0.5614534708977447
 40
0.5614534708977447
 40
0.701816656971573
 40
0.701816656971573
 40
0.8421798430454007
 40
0.8421798430454007
 40
0.9825430291192289
 40
0.9825430291192289
 40
1.122906215193055
 40
1.122906215193055
 40
1.263269401266884
 40
1.263269401266884
 40
1.403632587340712
 40
1.403632587340712
 40
1.543995773414539
 40
1.543995773414539
 40
1.684358959488367
 40
1.684358959488367
 40
1.824722145562195
 40
1.824722145562195
 40
1.965085331636023
 40
1.965085331636023
 40
2.13886759731547
 40
2.13886759731547
 40
2.13886759731547
 40
2.13886759731547
 10
84.85689366845098
 20
68.09922806158808
 30
0.0
 10
84.95958415967922
 20
68.03365743462584
 30
0.0
 10
85.0715439970519
 20
67.98264777119238
 30
0.0
 10
85.24680824784018
 20
67.93085149459554
 30
0.0
 10
85.30644125672674
 20
67.91769447844658
 30
0.0
 10
85.42696432135772
 20
67.899851112806
 30
0.0
 10
85.4878523620782
 20
67.89516568844498
 30
0.0
 10
85.60968644830413
 20
67.89435931457574
 30
0.0
 10
85.67063117411158
 20
67.89823837380213
 30
0.0
 10
85.79137986656694
 20
67.9144848526738
 30
0.0
 10
85.85118252527278
 20
67.92685209633815
 30
0.0
 10
85.96847075774306
 20
67.95983186786056
 30
0.0
 10
86.02595506104576
 20
67.98044403848272
 30
0.0
 10
86.1374758328287
 20
68.0295084070927
 30
0.0
 10
86.19151109331466
 20
68.05796007361437
 30
0.0
 10
86.29507084676676
 20
68.12214396779227
 30
0.0
 10
86.34459421796475
 20
68.1578755002025
 30
0.0
 10
86.43815598467987
 20
68.23591645494487
 30
0.0
 10
86.48219336671806
 20
68.27822503192158
 30
0.0
 10
86.5639168336741
 20
68.3685880207947
 30
0.0
 10
86.6016020333361
 20
68.4166414538477
 30
0.0
 10
86.66987974092879
 20
68.51754908218743
 30
0.0
 10
86.70047150924022
 20
68.57040218438871
 30
0.0
 10
86.753960469207
 20
68.67986964976166
 30
0.0
 10
86.77685708143103
 20
68.73648282709902
 30
0.0
 10
86.81450519275631
 20
68.85235695936977
 30
0.0
 10
86.82925662354135
 20
68.91161569696683
 30
0.0
 10
86.85283049796512
 20
69.04590505900404
 30
0.0
 10
86.85938334597596
 20
69.12132674777015
 30
0.0
 10
86.85939263826477
 20
69.19674821052007
 30
0.0
  0
SPLINE
  5
9C
330
1F
100
AcDbEntity
  8
0
  6
Continuous
 62
     7
370
    25
100
AcDbSpline
210
0.0
220
0.0
230
1.0
 70
     8
 71
     3
 72
    20
 73
    16
 74
     0
 42
0.00000001
 43
0.00000001
 40
0.0
 40
0.0
 40
0.0
 40
0.0
 40
0.125
 40
0.125
 40
0.2499999999999999
 40
0.2499999999999999
 40
0.3749999999999999
 40
0.3749999999999999
 40
0.4999999999999999
 40
0.4999999999999999
 40
0.6249999999999999
 40
0.6249999999999999
 40
0.7499999999999998
 40
0.7499999999999998
 40
1.0
 40
1.0
 40
1.0
 40
1.0
 10
87.02764136034745
 20
69.19674821490595
 30
0.0
 10
87.02764136079522
 20
69.00517362495273
 30
0.0
 10
86.9981932585212
 20
68.81682780857801
 30
0.0
 10
86.88746325935841
 20
68.46114682864223
 30
0.0
 10
86.80677880271406
 20
68.29596728761636
 30
0.0
 10
86.60915679028722
 20
68.00230185111666
 30
0.0
 10
86.49234689501692
 20
67.87369116054606
 30
0.0
 10
86.23638347699
 20
67.65677344707233
 30
0.0
 10
86.09829224746987
 20
67.56884173404194
 30
0.0
 10
85.80629996916896
 20
67.4309915982542
 30
0.0
 10
85.65630333133102
 20
67.38282705589718
 30
0.0
 10
85.34905754221059
 20
67.32424178347694
 30
0.0
 10
85.19165847334861
 20
67.31438421673064
 30
0.0
 10
84.72807873716987
 20
67.34262214486347
 30
0.0
 10
84.41954116111883
 20
67.4376969316389
 30
0.0
 10
84.14168949340389
 20
67.61503597477756
 30
0.0
  0
LINE
  5
9D
330
1F
100
AcDbEntity
  8
0
  6
Continuous
 62
     7
370
    25
100
AcDbLine
 10
99.8878075579
 20
69.1967482105
 30
0.0
 11
94.2585344664
 21
69.1967482103
 31
0.0
  0
SPLINE
  5
9E
330
1F
100
AcDbEntity
  8
0
  6
Continuous
 62
     7
370
    25
100
AcDbSpline
210
0.0
220
0.0
230
1.0
 70
     8
 71
     3
 72
    38
 73
    34
 74
     0
 42
0.00000001
 43
0.00000001
 40
0.0000001843411165
 40
0.0000001843411165
 40
0.0000001843411165
 40
0.0000001843411165
 40
0.058904862488831
 40
0.058904862488831
 40
0.2748893574231412
 40
0.2748893574231412
 40
0.490873852357446
 40
0.490873852357446
 40
0.7068583472917508
 40
0.7068583472917508
 40
0.9228428422260561
 40
0.9228428422260561
 40
1.138827337160361
 40
1.138827337160361
 40
1.354811832094671
 40
1.354811832094671
 40
1.570796327028976
 40
1.570796327028976
 40
1.786780821963281
 40
1.786780821963281
 40
2.002765316897587
 40
2.002765316897587
 40
2.218749811831893
 40
2.218749811831893
 40
2.434734306766198
 40
2.434734306766198
 40
2.650718801700504
 40
2.650718801700504
 40
2.866703296634811
 40
2.866703296634811
 40
3.082687791569116
 40
3.082687791569116
 40
3.141592469482755
 40
3.141592469482755
 40
3.141592469482755
 40
3.141592469482755
 10
92.38211635143419
 20
69.19674821051878
 30
0.0
 10
92.38211549717377
 20
69.17832654298599
 30
0.0
 10
92.38265672439341
 20
69.15990483176276
 30
0.0
 10
92.38771777414607
 20
69.07408517913036
 30
0.0
 10
92.39900396562213
 20
69.00709057735375
 30
0.0
 10
92.43567390096408
 20
68.87706879427826
 30
0.0
 10
92.46105542416372
 20
68.81404948700647
 30
0.0
 10
92.52473822398565
 20
68.6949073484453
 30
0.0
 10
92.56303564434336
 20
68.6387917318114
 30
0.0
 10
92.65077208112272
 20
68.536065562876
 30
0.0
 10
92.7002057850591
 20
68.48946123074852
 30
0.0
 10
92.80791890121144
 20
68.40792453535194
 30
0.0
 10
92.86619179163965
 20
68.3729971089753
 30
0.0
 10
92.98887634852987
 20
68.31643875356616
 30
0.0
 10
93.05328058692812
 20
68.29481124893232
 30
0.0
 10
93.18523564946922
 20
68.26585940055531
 30
0.0
 10
93.25277848437688
 20
68.25853680971134
 30
0.0
 10
93.38787233342704
 20
68.25853680971134
 30
0.0
 10
93.4554151683347
 20
68.26585940055531
 30
0.0
 10
93.58737023087582
 20
68.29481124893232
 30
0.0
 10
93.65177446927406
 20
68.31643875356616
 30
0.0
 10
93.7744590261643
 20
68.3729971089753
 30
0.0
 10
93.83273191659246
 20
68.40792453535191
 30
0.0
 10
93.94044503274485
 20
68.48946123074852
 30
0.0
 10
93.9898787366812
 20
68.536065562876
 30
0.0
 10
94.0776151734606
 20
68.6387917318114
 30
0.0
 10
94.11591259381827
 20
68.6949073484453
 30
0.0
 10
94.1795953936402
 20
68.81404948700647
 30
0.0
 10
94.20497691683987
 20
68.87706879427826
 30
0.0
 10
94.24164685218182
 20
69.00709057735375
 30
0.0
 10
94.25293304365786
 20
69.07408517913036
 30
0.0
 10
94.25799409340621
 20
69.15990483168969
 30
0.0
 10
94.25853532062587
 20
69.17832654283957
 30
0.0
 10
94.25853446636975
 20
69.19674821029916
 30
0.0
  0
LINE
  5
9F
330
1F
100
AcDbEntity
  8
0
  6
Continuous
 62
     7
370
    25
100
AcDbLine
 10
92.3821163514
 20
69.1967482105
 30
0.0
 11
86.8593926383
 21
69.1967482105
 31
0.0
  0
LINE
  5
A0
330
1F
100
AcDbEntity
  8
0
  6
Continuous
 62
     7
370
    25
100
AcDbLine
 10
116.1121947854
 20
69.1967482105
 30
0.0
 11
117.7138218299
 21
67.595121166
 31
0.0
  0
LINE
  5
A1
330
1F
100
AcDbEntity
  8
0
  6
Continuous
 62
     7
370
    25
100
AcDbLine
 10
116.1121947854
 20
69.1967482105
 30
0.0
 11
101.7642256728
 21
69.1967482103
 31
0.0
  0
SPLINE
  5
A2
330
1F
100
AcDbEntity
  8
0
  6
Continuous
 62
     7
370
    25
100
AcDbSpline
210
0.0
220
0.0
230
1.0
 70
     8
 71
     3
 72
    38
 73
    34
 74
     0
 42
0.00000001
 43
0.00000001
 40
0.0000001843410706
 40
0.0000001843410706
 40
0.0000001843410706
 40
0.0000001843410706
 40
0.0589048624887873
 40
0.0589048624887873
 40
0.2748893574230975
 40
0.2748893574230975
 40
0.4908738523574121
 40
0.4908738523574121
 40
0.7068583472917271
 40
0.7068583472917271
 40
0.9228428422260422
 40
0.9228428422260422
 40
1.138827337160352
 40
1.138827337160352
 40
1.354811832094667
 40
1.354811832094667
 40
1.570796327028982
 40
1.570796327028982
 40
1.786780821963295
 40
1.786780821963295
 40
2.002765316897607
 40
2.002765316897607
 40
2.218749811831921
 40
2.218749811831921
 40
2.434734306766235
 40
2.434734306766235
 40
2.650718801700548
 40
2.650718801700548
 40
2.866703296634861
 40
2.866703296634861
 40
3.082687791569175
 40
3.082687791569175
 40
3.141592469482807
 40
3.141592469482807
 40
3.141592469482807
 40
3.141592469482807
 10
99.88780755790776
 20
69.19674821051878
 30
0.0
 10
99.88780670364734
 20
69.17832654298599
 30
0.0
 10
99.88834793086697
 20
69.15990483176274
 30
0.0
 10
99.89340898061961
 20
69.07408517913035
 30
0.0
 10
99.90469517209569
 20
69.00709057735371
 30
0.0
 10
99.94136510743765
 20
68.87706879427817
 30
0.0
 10
99.96674663063729
 20
68.81404948700637
 30
0.0
 10
100.0304294304592
 20
68.69490734844516
 30
0.0
 10
100.068726850817
 20
68.63879173181125
 30
0.0
 10
100.1564632875963
 20
68.53606556287583
 30
0.0
 10
100.2058969915327
 20
68.48946123074833
 30
0.0
 10
100.3136101076851
 20
68.40792453535171
 30
0.0
 10
100.3718829981133
 20
68.37299710897507
 30
0.0
 10
100.4945675550035
 20
68.31643875356593
 30
0.0
 10
100.5589717934018
 20
68.29481124893208
 30
0.0
 10
100.690926855943
 20
68.26585940055507
 30
0.0
 10
100.7584696908506
 20
68.25853680971117
 30
0.0
 10
100.8935635399008
 20
68.25853680971117
 30
0.0
 10
100.9611063748085
 20
68.26585940055509
 30
0.0
 10
101.0930614373496
 20
68.29481124893208
 30
0.0
 10
101.1574656757479
 20
68.31643875356595
 30
0.0
 10
101.2801502326381
 20
68.37299710897507
 30
0.0
 10
101.3384231230664
 20
68.40792453535171
 30
0.0
 10
101.4461362392187
 20
68.48946123074833
 30
0.0
 10
101.4955699431551
 20
68.53606556287583
 30
0.0
 10
101.5833063799345
 20
68.63879173181125
 30
0.0
 10
101.6216038002922
 20
68.69490734844516
 30
0.0
 10
101.6852866001141
 20
68.81404948700637
 30
0.0
 10
101.7106681233138
 20
68.87706879427817
 30
0.0
 10
101.7473380586557
 20
69.00709057735371
 30
0.0
 10
101.7586242501318
 20
69.07408517913035
 30
0.0
 10
101.7636852998801
 20
69.15990483168967
 30
0.0
 10
101.7642265270998
 20
69.17832654283956
 30
0.0
 10
101.7642256728437
 20
69.19674821029916
 30
0.0
  0
LINE
  5
A3
330
1F
100
AcDbEntity
  8
0
  6
Continuous
 62
     7
370
    25
100
AcDbLine
 10
84.8568936685
 20
73.8878052146
 30
0.0
 11
117.7138218299
 21
73.8878052146
 31
0.0
  0
SPLINE
  5
A4
330
1F
100
AcDbEntity
  8
0
  6
Continuous
 62
     7
370
    25
100
AcDbSpline
210
0.0
220
0.0
230
1.0
 70
     8
 71
     3
 72
    34
 73
    30
 74
     0
 42
0.00000001
 43
0.00000001
 40
-0.1069283921795592
 40
-0.1069283921795592
 40
-0.1069283921795592
 40
-0.1069283921795592
 40
0.066829520594541
 40
0.066829520594541
 40
0.207173035330211
 40
0.207173035330211
 40
0.347516550065881
 40
0.347516550065881
 40
0.487860064801555
 40
0.487860064801555
 40
0.6282035795372269
 40
0.6282035795372269
 40
0.7685470942728971
 40
0.7685470942728971
 40
0.9088906090085689
 40
0.9088906090085689
 40
1.04923412374424
 40
1.04923412374424
 40
1.189577638479912
 40
1.189577638479912
 40
1.329921153215583
 40
1.329921153215583
 40
1.470264667951254
 40
1.470264667951254
 40
1.610608182686926
 40
1.610608182686926
 40
1.750951697422598
 40
1.750951697422598
 40
2.03163872689394
 40
2.03163872689394
 40
2.03163872689394
 40
2.03163872689394
 10
86.85947005298195
 20
44.80325178742514
 30
0.0
 10
86.85946076412435
 20
44.8786779894161
 30
0.0
 10
86.85290842265807
 20
44.95410441732297
 30
0.0
 10
86.82933633777621
 20
45.08840278897529
 30
0.0
 10
86.81458601680366
 20
45.14766571336359
 30
0.0
 10
86.7769406423636
 20
45.26354878213173
 30
0.0
 10
86.75404565703059
 20
45.32016671025569
 30
0.0
 10
86.70056031035543
 20
45.42964445928509
 30
0.0
 10
86.66997052808112
 20
45.48250309490884
 30
0.0
 10
86.60169694474405
 20
45.58342275432955
 30
0.0
 10
86.56401388284186
 20
45.63148268552273
 30
0.0
 10
86.48229459422168
 20
45.72185977169406
 30
0.0
 10
86.4382592522187
 20
45.76417594822415
 30
0.0
 10
86.34470118597015
 20
45.84223328660946
 30
0.0
 10
86.29517947459605
 20
45.87797360340508
 30
0.0
 10
86.19162235603328
 20
45.94217627492179
 30
0.0
 10
86.13758806995618
 20
45.97063793458278
 30
0.0
 10
86.02606824570434
 20
46.01972345824305
 30
0.0
 10
85.96858391483734
 20
46.04034679084472
 30
0.0
 10
85.85129431012352
 20
46.07334994917483
 30
0.0
 10
85.79149030604209
 20
46.08572941761425
 30
0.0
 10
85.67073730302555
 20
46.10200123668596
 30
0.0
 10
85.60978961134691
 20
46.1058934111615
 30
0.0
 10
85.48794769643254
 20
46.10511392201182
 30
0.0
 10
85.42705479224071
 20
46.10044226682527
 30
0.0
 10
85.3065198641912
 20
46.0826267973247
 30
0.0
 10
85.24687985457304
 20
46.0694839072499
 30
0.0
 10
85.07159111203475
 20
46.01773002330443
 30
0.0
 10
84.95961026628028
 20
45.96674864650367
 30
0.0
 10
84.8568936684504
 20
45.9012046964754
 30
0.0
  0
SPLINE
  5
A5
330
1F
100
AcDbEntity
  8
0
  6
Continuous
 62
     7
370
    25
100
AcDbSpline
210
0.0
220
0.0
230
1.0
 70
     8
 71
     3
 72
    20
 73
    16
 74
     0
 42
0.00000001
 43
0.00000001
 40
0.0
 40
0.0
 40
0.0
 40
0.0
 40
0.1250000000000002
 40
0.1250000000000002
 40
0.2500000000000004
 40
0.2500000000000004
 40
0.4999999999999994
 40
0.4999999999999994
 40
0.6249999999999997
 40
0.6249999999999997
 40
0.7499999999999998
 40
0.7499999999999998
 40
0.8749999999999999
 40
0.8749999999999999
 40
1.0
 40
1.0
 40
1.0
 40
1.0
 10
84.14216366288447
 20
46.3852665642548
 30
0.0
 10
84.28141394213316
 20
46.47408443009527
 30
0.0
 10
84.42642825748318
 20
46.54121074489348
 30
0.0
 10
84.72661391078954
 20
46.63779075184359
 30
0.0
 10
84.88307206033609
 20
46.66690424242542
 30
0.0
 10
85.34834144647566
 20
46.69498829748139
 30
0.0
 10
85.66414338844181
 20
46.63614647413691
 30
0.0
 10
86.09655781898044
 20
46.43196425101126
 30
0.0
 10
86.2369764858216
 20
46.34278549558364
 30
0.0
 10
86.49255667755232
 20
46.1260693730739
 30
0.0
 10
86.60894093694233
 20
45.99811779628985
 30
0.0
 10
86.80764532328001
 20
45.70264585208702
 30
0.0
 10
86.8876564558613
 20
45.53867637350918
 30
0.0
 10
86.99878734829686
 20
45.18081695896277
 30
0.0
 10
87.02764136079627
 20
44.99549532874885
 30
0.0
 10
87.02764136034743
 20
44.80325178509906
 30
0.0
  0
LINE
  5
A6
330
1F
100
AcDbEntity
  8
0
  6
Continuous
 62
     7
370
    25
100
AcDbLine
 10
117.7138218299
 20
46.404878834
 30
0.0
 11
116.1121947854
 21
44.8032517895
 31
0.0
  0
LINE
  5
A7
330
1F
100
AcDbEntity
  8
0
  6
Continuous
 62
     7
370
    25
100
AcDbLine
 10
92.3821163514
 20
44.8032517895
 30
0.0
 11
86.859470053
 21
44.8032517885
 31
0.0
  0
SPLINE
  5
A8
330
1F
100
AcDbEntity
  8
0
  6
Continuous
 62
     7
370
    25
100
AcDbSpline
210
0.0
220
0.0
230
1.0
 70
     8
 71
     3
 72
    38
 73
    34
 74
     0
 42
0.00000001
 43
0.00000001
 40
0.0000001841069773
 40
0.0000001841069773
 40
0.0000001841069773
 40
0.0000001841069773
 40
0.0589048620202891
 40
0.0589048620202891
 40
0.2748893569545943
 40
0.2748893569545943
 40
0.4908738518888991
 40
0.4908738518888991
 40
0.706858346823204
 40
0.706858346823204
 40
0.9228428417575093
 40
0.9228428417575093
 40
1.138827336691814
 40
1.138827336691814
 40
1.354811831626119
 40
1.354811831626119
 40
1.570796326560429
 40
1.570796326560429
 40
1.786780821494734
 40
1.786780821494734
 40
2.00276531642904
 40
2.00276531642904
 40
2.218749811363345
 40
2.218749811363345
 40
2.434734306297651
 40
2.434734306297651
 40
2.650718801231957
 40
2.650718801231957
 40
2.866703296166263
 40
2.866703296166263
 40
3.082687791100569
 40
3.082687791100569
 40
3.141592469248347
 40
3.141592469248347
 40
3.141592469248347
 40
3.141592469248347
 10
94.25853446636981
 20
44.80325178970115
 30
0.0
 10
94.25853532062592
 20
44.82167345716064
 30
0.0
 10
94.25799409340628
 20
44.84009516831044
 30
0.0
 10
94.25293304365792
 20
44.92591482086967
 30
0.0
 10
94.24164685218186
 20
44.9929094226463
 30
0.0
 10
94.20497691683991
 20
45.12293120572184
 30
0.0
 10
94.17959539364026
 20
45.18595051299365
 30
0.0
 10
94.1159125938183
 20
45.30509265155484
 30
0.0
 10
94.07761517346061
 20
45.36120826818873
 30
0.0
 10
93.9898787366812
 20
45.46393443712416
 30
0.0
 10
93.94044503274482
 20
45.51053876925165
 30
0.0
 10
93.83273191659245
 20
45.59207546464827
 30
0.0
 10
93.77445902616425
 20
45.62700289102492
 30
0.0
 10
93.65177446927397
 20
45.68356124643405
 30
0.0
 10
93.58737023087572
 20
45.7051887510679
 30
0.0
 10
93.4554151683346
 20
45.73414059944491
 30
0.0
 10
93.38787233342691
 20
45.74146319028887
 30
0.0
 10
93.2527784843767
 20
45.74146319028887
 30
0.0
 10
93.185235649469
 20
45.73414059944491
 30
0.0
 10
93.05328058692788
 20
45.70518875106792
 30
0.0
 10
92.98887634852963
 20
45.68356124643405
 30
0.0
 10
92.86619179163938
 20
45.62700289102492
 30
0.0
 10
92.80791890121115
 20
45.59207546464827
 30
0.0
 10
92.70020578505878
 20
45.51053876925165
 30
0.0
 10
92.65077208112241
 20
45.46393443712416
 30
0.0
 10
92.563035644343
 20
45.36120826818873
 30
0.0
 10
92.5247382239853
 20
45.30509265155482
 30
0.0
 10
92.46105542416335
 20
45.18595051299365
 30
0.0
 10
92.43567390096369
 20
45.12293120572182
 30
0.0
 10
92.39900396562174
 20
44.9929094226463
 30
0.0
 10
92.38771777414568
 20
44.92591482086967
 30
0.0
 10
92.38265672439302
 20
44.84009516823724
 30
0.0
 10
92.38211549717337
 20
44.82167345701398
 30
0.0
 10
92.3821163514338
 20
44.80325178948117
 30
0.0
  0
LINE
  5
A9
330
1F
100
AcDbEntity
  8
0
  6
Continuous
 62
     7
370
    25
100
AcDbLine
 10
99.8878075579
 20
44.8032517895
 30
0.0
 11
94.2585344664
 21
44.8032517896
 31
0.0
  0
SPLINE
  5
AA
330
1F
100
AcDbEntity
  8
0
  6
Continuous
 62
     7
370
    25
100
AcDbSpline
210
0.0
220
0.0
230
1.0
 70
     8
 71
     3
 72
    38
 73
    34
 74
     0
 42
0.00000001
 43
0.00000001
 40
0.0000001841069222
 40
0.0000001841069222
 40
0.0000001841069222
 40
0.0000001841069222
 40
0.058904862020242
 40
0.058904862020242
 40
0.2748893569545575
 40
0.2748893569545575
 40
0.4908738518888721
 40
0.4908738518888721
 40
0.7068583468231823
 40
0.7068583468231823
 40
0.9228428417574973
 40
0.9228428417574973
 40
1.138827336691812
 40
1.138827336691812
 40
1.354811831626127
 40
1.354811831626127
 40
1.570796326560442
 40
1.570796326560442
 40
1.786780821494755
 40
1.786780821494755
 40
2.002765316429067
 40
2.002765316429067
 40
2.218749811363383
 40
2.218749811363383
 40
2.434734306297697
 40
2.434734306297697
 40
2.650718801232011
 40
2.650718801232011
 40
2.866703296166325
 40
2.866703296166325
 40
3.082687791100639
 40
3.082687791100639
 40
3.141592469248415
 40
3.141592469248415
 40
3.141592469248415
 40
3.141592469248415
 10
101.7642256728437
 20
44.80325178970114
 30
0.0
 10
101.7642265270998
 20
44.82167345716064
 30
0.0
 10
101.7636852998802
 20
44.84009516831044
 30
0.0
 10
101.7586242501318
 20
44.92591482086968
 30
0.0
 10
101.7473380586558
 20
44.99290942264633
 30
0.0
 10
101.7106681233139
 20
45.12293120572188
 30
0.0
 10
101.6852866001142
 20
45.18595051299371
 30
0.0
 10
101.6216038002922
 20
45.30509265155492
 30
0.0
 10
101.5833063799345
 20
45.36120826818883
 30
0.0
 10
101.4955699431551
 20
45.46393443712429
 30
0.0
 10
101.4461362392187
 20
45.51053876925177
 30
0.0
 10
101.3384231230663
 20
45.59207546464841
 30
0.0
 10
101.2801502326381
 20
45.62700289102506
 30
0.0
 10
101.1574656757478
 20
45.68356124643419
 30
0.0
 10
101.0930614373496
 20
45.70518875106807
 30
0.0
 10
100.9611063748084
 20
45.73414059944508
 30
0.0
 10
100.8935635399007
 20
45.74146319028897
 30
0.0
 10
100.7584696908505
 20
45.74146319028897
 30
0.0
 10
100.6909268559428
 20
45.73414059944507
 30
0.0
 10
100.5589717934017
 20
45.70518875106807
 30
0.0
 10
100.4945675550034
 20
45.68356124643421
 30
0.0
 10
100.3718829981131
 20
45.62700289102506
 30
0.0
 10
100.3136101076849
 20
45.5920754646484
 30
0.0
 10
100.2058969915325
 20
45.51053876925177
 30
0.0
 10
100.1564632875961
 20
45.46393443712429
 30
0.0
 10
100.0687268508167
 20
45.36120826818883
 30
0.0
 10
100.030429430459
 20
45.30509265155492
 30
0.0
 10
99.96674663063703
 20
45.18595051299371
 30
0.0
 10
99.94136510743739
 20
45.12293120572189
 30
0.0
 10
99.90469517209544
 20
44.99290942264633
 30
0.0
 10
99.8934089806194
 20
44.92591482086968
 30
0.0
 10
99.88834793086671
 20
44.84009516823724
 30
0.0
 10
99.88780670364709
 20
44.82167345701399
 30
0.0
 10
99.88780755790751
 20
44.80325178948117
 30
0.0
  0
LINE
  5
AB
330
1F
100
AcDbEntity
  8
0
  6
Continuous
 62
     7
370
    25
100
AcDbLine
 10
116.1121947854
 20
44.8032517895
 30
0.0
 11
101.7642256728
 21
44.8032517897
 31
0.0
  0
LINE
  5
AC
330
1F
100
AcDbEntity
  8
0
  6
Continuous
 62
     7
370
    25
100
AcDbLine
 10
84.8568936685
 20
40.1121947854
 30
0.0
 11
117.7138218299
 21
40.1121947854
 31
0.0
  0
SPLINE
  5
AD
330
1F
100
AcDbEntity
  8
0
  6
Continuous
 62
     7
370
    25
100
AcDbSpline
210
0.0
220
0.0
230
1.0
 70
     8
 71
     3
 72
    32
 73
    28
 74
     0
 42
0.00000001
 43
0.00000001
 40
0.0
 40
0.0
 40
0.0
 40
0.0
 40
0.0624999999999993
 40
0.0624999999999993
 40
0.1249999999999985
 40
0.1249999999999985
 40
0.2499999999999982
 40
0.2499999999999982
 40
0.3124999999999982
 40
0.3124999999999982
 40
0.3749999999999982
 40
0.3749999999999982
 40
0.4374999999999983
 40
0.4374999999999983
 40
0.4999999999999983
 40
0.4999999999999983
 40
0.6249999999999984
 40
0.6249999999999984
 40
0.7499999999999984
 40
0.7499999999999984
 40
0.8124999999999989
 40
0.8124999999999989
 40
0.8749999999999992
 40
0.8749999999999992
 40
0.9374999999999997
 40
0.9374999999999997
 40
1.0
 40
1.0
 40
1.0
 40
1.0
 10
94.53333256682134
 20
69.19674820972368
 30
0.0
 10
94.5333325667655
 20
69.06516651706865
 30
0.0
 10
94.51964642905209
 20
68.93630892541957
 30
0.0
 10
94.46645350938405
 20
68.68374924564145
 30
0.0
 10
94.42618764440162
 20
68.55888442252878
 30
0.0
 10
94.27238975584955
 20
68.2087226481332
 30
0.0
 10
94.12300513016599
 20
68.00040576798484
 30
0.0
 10
93.85654434241485
 20
67.74872663135521
 30
0.0
 10
93.75924498015964
 20
67.67353640735126
 30
0.0
 10
93.55656720069163
 20
67.54570804680016
 30
0.0
 10
93.45073542290308
 20
67.49240078039925
 30
0.0
 10
93.23038246651777
 20
67.40619287816388
 30
0.0
 10
93.11635385647499
 20
67.37372488718007
 30
0.0
 10
92.88759653344457
 20
67.33092760676291
 30
0.0
 10
92.77194704612252
 20
67.32020693109739
 30
0.0
 10
92.42108547502053
 20
67.32056530089379
 30
0.0
 10
92.19120400450363
 20
67.36364626821783
 30
0.0
 10
91.74999553974298
 20
67.53703402606564
 30
0.0
 10
91.54657926574261
 20
67.66425332296953
 30
0.0
 10
91.27864569154359
 20
67.91750873306266
 30
0.0
 10
91.19685451544935
 20
68.0115903645008
 30
0.0
 10
91.05350205611411
 20
68.21417802435086
 30
0.0
 10
90.99111927114284
 20
68.32338964048498
 30
0.0
 10
90.88724776283027
 20
68.55963789094179
 30
0.0
 10
90.84794936089713
 20
68.68175004837381
 30
0.0
 10
90.79453739544131
 20
68.93382235080153
 30
0.0
 10
90.78048696359714
 20
69.06502706651766
 30
0.0
 10
90.78048696358438
 20
69.19674821033843
 30
0.0
  0
SPLINE
  5
AE
330
1F
100
AcDbEntity
  8
0
  6
Continuous
 62
     7
370
    25
100
AcDbSpline
210
0.0
220
0.0
230
1.0
 70
     8
 71
     3
 72
    32
 73
    28
 74
     0
 42
0.00000001
 43
0.00000001
 40
0.0
 40
0.0
 40
0.0
 40
0.0
 40
0.0624999999999998
 40
0.0624999999999998
 40
0.1249999999999996
 40
0.1249999999999996
 40
0.2499999999999991
 40
0.2499999999999991
 40
0.3124999999999992
 40
0.3124999999999992
 40
0.3749999999999992
 40
0.3749999999999992
 40
0.4374999999999993
 40
0.4374999999999993
 40
0.4999999999999993
 40
0.4999999999999993
 40
0.6249999999999994
 40
0.6249999999999994
 40
0.7499999999999996
 40
0.7499999999999996
 40
0.8124999999999997
 40
0.8124999999999997
 40
0.8749999999999998
 40
0.8749999999999998
 40
0.9374999999999999
 40
0.9374999999999999
 40
1.0
 40
1.0
 40
1.0
 40
1.0
 10
90.78048696358438
 20
44.80325178966158
 30
0.0
 10
90.78048696359711
 20
44.93483184488511
 30
0.0
 10
90.79417195092172
 20
45.06368231906735
 30
0.0
 10
90.84736310383273
 20
45.31624019657926
 30
0.0
 10
90.88762465354856
 20
45.44109671596198
 30
0.0
 10
91.04142713956826
 20
45.79127614202056
 30
0.0
 10
91.19080794079933
 20
45.99958600836862
 30
0.0
 10
91.45726549659994
 20
46.25126527606571
 30
0.0
 10
91.55456752392921
 20
46.32645818651929
 30
0.0
 10
91.75723751538538
 20
46.45428358438462
 30
0.0
 10
91.86308144968193
 20
46.50759751139855
 30
0.0
 10
92.08342133377792
 20
46.5938016361379
 30
0.0
 10
92.19746602578216
 20
46.62627471345275
 30
0.0
 10
92.42620814895434
 20
46.66907008054785
 30
0.0
 10
92.54186711538188
 20
46.67979273603876
 30
0.0
 10
92.89272850810248
 20
46.67943538144396
 30
0.0
 10
93.12258766308994
 20
46.63636291111722
 30
0.0
 10
93.5638275763615
 20
46.46296633501301
 30
0.0
 10
93.76722754550565
 20
46.33575664394449
 30
0.0
 10
94.03516776760009
 20
46.08249803325273
 30
0.0
 10
94.11696124181202
 20
45.98841425741065
 30
0.0
 10
94.26031407973431
 20
45.78582748319626
 30
0.0
 10
94.32270278541549
 20
45.67660554650501
 30
0.0
 10
94.42657363505258
 20
45.44035692903498
 30
0.0
 10
94.46587091235564
 20
45.31824616941146
 30
0.0
 10
94.51928104612034
 20
45.06618306430892
 30
0.0
 10
94.53333256676544
 20
44.93497409005294
 30
0.0
 10
94.53333256682134
 20
44.80325179027632
 30
0.0
  0
SPLINE
  5
AF
330
1F
100
AcDbEntity
  8
0
  6
Continuous
 62
     7
370
    25
100
AcDbSpline
210
0.0
220
0.0
230
1.0
 70
     8
 71
     3
 72
    32
 73
    28
 74
     0
 42
0.00000001
 43
0.00000001
 40
0.0
 40
0.0
 40
0.0
 40
0.0
 40
0.0624999999999988
 40
0.0624999999999988
 40
0.1249999999999975
 40
0.1249999999999975
 40
0.2499999999999959
 40
0.2499999999999959
 40
0.3124999999999961
 40
0.3124999999999961
 40
0.3749999999999963
 40
0.3749999999999963
 40
0.4374999999999964
 40
0.4374999999999964
 40
0.4999999999999967
 40
0.4999999999999967
 40
0.6249999999999986
 40
0.6249999999999986
 40
0.7500000000000006
 40
0.7500000000000006
 40
0.8125000000000008
 40
0.8125000000000008
 40
0.8750000000000004
 40
0.8750000000000004
 40
0.9375000000000002
 40
0.9375000000000002
 40
1.0
 40
1.0
 40
1.0
 40
1.0
 10
102.0390237732952
 20
69.19674820972368
 30
0.0
 10
102.0390237732394
 20
69.06516651706865
 30
0.0
 10
102.025337635526
 20
68.93630892541958
 30
0.0
 10
101.9721447158579
 20
68.68374924564148
 30
0.0
 10
101.9318788508755
 20
68.55888442252882
 30
0.0
 10
101.7780809623234
 20
68.20872264813322
 30
0.0
 10
101.6286963366399
 20
68.00040576798484
 30
0.0
 10
101.3622355488887
 20
67.74872663135523
 30
0.0
 10
101.2649361866335
 20
67.67353640735128
 30
0.0
 10
101.0622584071655
 20
67.54570804680016
 30
0.0
 10
100.956426629377
 20
67.49240078039927
 30
0.0
 10
100.7360736729917
 20
67.40619287816389
 30
0.0
 10
100.6220450629489
 20
67.37372488718007
 30
0.0
 10
100.3932877399185
 20
67.33092760676291
 30
0.0
 10
100.2776382525964
 20
67.32020693109737
 30
0.0
 10
99.92677668149443
 20
67.32056530089378
 30
0.0
 10
99.69689521097752
 20
67.36364626821783
 30
0.0
 10
99.25568674621694
 20
67.53703402606561
 30
0.0
 10
99.05227047221648
 20
67.66425332296956
 30
0.0
 10
98.7843368980175
 20
67.91750873306265
 30
0.0
 10
98.70254572192322
 20
68.0115903645008
 30
0.0
 10
98.55919326258798
 20
68.21417802435087
 30
0.0
 10
98.49681047761672
 20
68.32338964048499
 30
0.0
 10
98.3929389693042
 20
68.55963789094174
 30
0.0
 10
98.353640567371
 20
68.68175004837383
 30
0.0
 10
98.3002286019152
 20
68.93382235080155
 30
0.0
 10
98.28617817007101
 20
69.06502706651764
 30
0.0
 10
98.28617817005826
 20
69.19674821033841
 30
0.0
  0
SPLINE
  5
B0
330
1F
100
AcDbEntity
  8
0
  6
Continuous
 62
     7
370
    25
100
AcDbSpline
210
0.0
220
0.0
230
1.0
 70
     8
 71
     3
 72
    32
 73
    28
 74
     0
 42
0.00000001
 43
0.00000001
 40
0.0
 40
0.0
 40
0.0
 40
0.0
 40
0.0624999999999997
 40
0.0624999999999997
 40
0.1249999999999993
 40
0.1249999999999993
 40
0.2499999999999979
 40
0.2499999999999979
 40
0.3124999999999977
 40
0.3124999999999977
 40
0.3749999999999974
 40
0.3749999999999974
 40
0.4374999999999971
 40
0.4374999999999971
 40
0.4999999999999968
 40
0.4999999999999968
 40
0.6249999999999973
 40
0.6249999999999973
 40
0.7499999999999979
 40
0.7499999999999979
 40
0.8124999999999984
 40
0.8124999999999984
 40
0.874999999999999
 40
0.874999999999999
 40
0.9374999999999996
 40
0.9374999999999996
 40
1.0
 40
1.0
 40
1.0
 40
1.0
 10
98.28617817005826
 20
44.80325178966158
 30
0.0
 10
98.286178170071
 20
44.93483184488512
 30
0.0
 10
98.2998631573956
 20
45.06368231906735
 30
0.0
 10
98.35305431030662
 20
45.31624019657925
 30
0.0
 10
98.39331586002245
 20
45.44109671596198
 30
0.0
 10
98.54711834604213
 20
45.79127614202057
 30
0.0
 10
98.69649914727322
 20
45.99958600836864
 30
0.0
 10
98.96295670307384
 20
46.25126527606572
 30
0.0
 10
99.06025873040309
 20
46.32645818651929
 30
0.0
 10
99.26292872185927
 20
46.45428358438463
 30
0.0
 10
99.36877265615581
 20
46.50759751139856
 30
0.0
 10
99.58911254025182
 20
46.59380163613791
 30
0.0
 10
99.70315723225607
 20
46.62627471345276
 30
0.0
 10
99.93189935542826
 20
46.66907008054785
 30
0.0
 10
100.0475583218558
 20
46.67979273603876
 30
0.0
 10
100.3984197145764
 20
46.67943538144395
 30
0.0
 10
100.6282788695639
 20
46.63636291111722
 30
0.0
 10
101.0695187828354
 20
46.46296633501301
 30
0.0
 10
101.2729187519796
 20
46.33575664394446
 30
0.0
 10
101.540858974074
 20
46.08249803325273
 30
0.0
 10
101.6226524482859
 20
45.98841425741064
 30
0.0
 10
101.7660052862082
 20
45.78582748319625
 30
0.0
 10
101.8283939918894
 20
45.67660554650499
 30
0.0
 10
101.9322648415265
 20
45.440356929035
 30
0.0
 10
101.9715621188295
 20
45.31824616941147
 30
0.0
 10
102.0249722525942
 20
45.06618306430893
 30
0.0
 10
102.0390237732393
 20
44.93497409005294
 30
0.0
 10
102.0390237732952
 20
44.80325179027633
 30
0.0
  0
LINE
  5
B1
330
1F
100
AcDbEntity
  8
0
  6
Continuous
 62
     7
370
    25
100
AcDbLine
 10
41.9934941215
 20
44.8032517895
 30
0.0
 11
46.6845511256
 21
44.8032517895
 31
0.0
  0
LINE
  5
B2
330
1F
100
AcDbEntity
  8
0
  6
Continuous
 62
     7
370
    25
100
AcDbLine
 10
46.6845511256
 20
40.1121947854
 30
0.0
 11
41.9934941215
 21
40.1121947854
 31
0.0
  0
LINE
  5
B3
330
1F
100
AcDbEntity
  8
0
  6
Continuous
 62
     7
370
    25
100
AcDbLine
 10
46.6845511256
 20
69.1967482105
 30
0.0
 11
41.9934941215
 21
69.1967482105
 31
0.0
  0
LINE
  5
B4
330
1F
100
AcDbEntity
  8
0
  6
Continuous
 62
     7
370
    25
100
AcDbLine
 10
41.9934941215
 20
73.8878052146
 30
0.0
 11
46.6845511256
 21
73.8878052146
 31
0.0
  0
LINE
  5
B5
330
1F
100
AcDbEntity
  8
0
  6
Continuous
 62
     7
370
    25
100
AcDbLine
 10
37.3024371175
 20
69.1967482105
 30
0.0
 11
37.3024371175
 21
73.8878052146
 31
0.0
  0
LINE
  5
B6
330
1F
100
AcDbEntity
  8
0
  6
Continuous
 62
     7
370
    25
100
AcDbLine
 10
41.9934941215
 20
69.1967482105
 30
0.0
 11
37.3024371175
 21
69.1967482105
 31
0.0
  0
LINE
  5
B7
330
1F
100
AcDbEntity
  8
0
  6
Continuous
 62
     7
370
    25
100
AcDbLine
 10
37.3024371175
 20
73.8878052146
 30
0.0
 11
41.9934941215
 21
73.8878052146
 31
0.0
  0
LINE
  5
B8
330
1F
100
AcDbEntity
  8
0
  6
Continuous
 62
     7
370
    25
100
AcDbLine
 10
37.3024371175
 20
40.1121947854
 30
0.0
 11
37.3024371175
 21
44.8032517895
 31
0.0
  0
LINE
  5
B9
330
1F
100
AcDbEntity
  8
0
  6
Continuous
 62
     7
370
    25
100
AcDbLine
 10
37.3024371175
 20
44.8032517895
 30
0.0
 11
41.9934941215
 21
44.8032517895
 31
0.0
  0
LINE
  5
BA
330
1F
100
AcDbEntity
  8
0
  6
Continuous
 62
     7
370
    25
100
AcDbLine
 10
41.9934941215
 20
40.1121947854
 30
0.0
 11
37.3024371175
 21
40.1121947854
 31
0.0
  0
LINE
  5
BB
330
1F
100
AcDbEntity
  8
0
  6
Continuous
 62
     7
370
    25
100
AcDbLine
 10
55.1284537328
 20
67.3203254089
 30
0.0
 11
38.2406485183
 21
67.3203254089
 31
0.0
  0
LINE
  5
BC
330
1F
100
AcDbEntity
  8
0
  6
Continuous
 62
     7
370
    25
100
AcDbLine
 10
38.2406485183
 20
67.3203254089
 30
0.0
 11
37.3024371175
 21
67.3203254089
 31
0.0
  0
SPLINE
  5
BD
330
1F
100
AcDbEntity
  8
0
  6
Continuous
 62
     7
370
    25
100
AcDbSpline
210
0.0
220
0.0
230
1.0
 70
    24
 71
     3
 72
    14
 73
    10
 74
     0
 42
0.00000001
 43
0.00000001
 40
0.0
 40
0.0
 40
0.0
 40
0.0
 40
0.1249999999999997
 40
0.1249999999999997
 40
0.2499999999999994
 40
0.2499999999999994
 40
0.4999999999999991
 40
0.4999999999999991
 40
1.0
 40
1.0
 40
1.0
 40
1.0
 10
37.30243711745796
 20
67.3203254089016
 30
0.0
 10
37.30243711745795
 20
67.3203254089016
 30
0.0
 10
37.30243711745796
 20
67.35293057881324
 30
0.0
 10
37.30243711745796
 20
67.45482209769807
 30
0.0
 10
37.30243711745794
 20
67.52167989902182
 30
0.0
 10
37.30243711745796
 20
67.74220910458342
 30
0.0
 10
37.30243711745794
 20
67.9149439383454
 30
0.0
 10
37.30243711745796
 20
68.44408527303905
 30
0.0
 10
37.30243711745794
 20
68.81921958629871
 30
0.0
 10
37.30243711745796
 20
69.19674821052007
 30
0.0
  0
LINE
  5
BE
330
1F
100
AcDbEntity
  8
0
  6
Continuous
 62
     7
370
    25
100
AcDbLine
 10
37.3024371175
 20
46.6796745911
 30
0.0
 11
38.2406485183
 21
46.6796745911
 31
0.0
  0
SPLINE
  5
BF
330
1F
100
AcDbEntity
  8
0
  6
Continuous
 62
     7
370
    25
100
AcDbSpline
210
0.0
220
0.0
230
1.0
 70
    24
 71
     3
 72
    14
 73
    10
 74
     0
 42
0.00000001
 43
0.00000001
 40
0.0
 40
0.0
 40
0.0
 40
0.0
 40
0.5
 40
0.5
 40
0.75
 40
0.75
 40
0.875
 40
0.875
 40
1.0
 40
1.0
 40
1.0
 40
1.0
 10
37.30243711745796
 20
44.80325178947994
 30
0.0
 10
37.30243711745796
 20
45.18114145763687
 30
0.0
 10
37.30243711745797
 20
45.55689499506238
 30
0.0
 10
37.30243711745795
 20
46.08672420259816
 30
0.0
 10
37.30243711745796
 20
46.25873411547425
 30
0.0
 10
37.30243711745796
 20
46.47977103684585
 30
0.0
 10
37.30243711745795
 20
46.54656731681937
 30
0.0
 10
37.30243711745796
 20
46.6477924059319
 30
0.0
 10
37.30243711745795
 20
46.67967459109844
 30
0.0
 10
37.30243711745796
 20
46.67967459109844
 30
0.0
  0
LINE
  5
C0
330
1F
100
AcDbEntity
  8
0
  6
Continuous
 62
     7
370
    25
100
AcDbLine
 10
92.6569097652
 20
67.3203254089
 30
0.0
 11
85.1512185587
 21
67.3203254089
 31
0.0
  0
LINE
  5
C1
330
1F
100
AcDbEntity
  8
0
  6
Continuous
 62
     7
370
    25
100
AcDbLine
 10
85.1512185587
 20
67.3203254089
 30
0.0
 11
81.3983729555
 21
67.3203254089
 31
0.0
  0
LINE
  5
C2
330
1F
100
AcDbEntity
  8
0
  6
Continuous
 62
     7
370
    25
100
AcDbLine
 10
73.892681749
 20
67.3203254089
 30
0.0
 11
70.1398361458
 21
67.3203254089
 31
0.0
  0
SPLINE
  5
C3
330
1F
100
AcDbEntity
  8
0
  6
Continuous
 62
     7
370
    25
100
AcDbSpline
210
0.0
220
0.0
230
1.0
 70
     8
 71
     3
 72
     8
 73
     4
 74
     0
 42
0.00000001
 43
0.00000001
 40
0.0
 40
0.0
 40
0.0
 40
0.0
 40
1.0
 40
1.0
 40
1.0
 40
1.0
 10
117.7138218299417
 20
67.59512116601208
 30
0.0
 10
117.7926368793173
 20
67.51630611663656
 30
0.0
 10
117.8581783903823
 20
67.42177523454271
 30
0.0
 10
117.9043471773874
 20
67.3203254089016
 30
0.0
  0
LINE
  5
C4
330
1F
100
AcDbEntity
  8
0
  6
Continuous
 62
     7
370
    25
100
AcDbLine
 10
117.9043471774
 20
67.3203254089
 30
0.0
 11
100.1626009717
 21
67.3203254089
 31
0.0
  0
LINE
  5
C5
330
1F
100
AcDbEntity
  8
0
  6
Continuous
 62
     7
370
    25
100
AcDbLine
 10
62.6341449393
 20
46.6796745911
 30
0.0
 11
70.1398361458
 21
46.6796745911
 31
0.0
  0
LINE
  5
C6
330
1F
100
AcDbEntity
  8
0
  6
Continuous
 62
     7
370
    25
100
AcDbLine
 10
70.1398361458
 20
46.6796745911
 30
0.0
 11
73.892681749
 21
46.6796745911
 31
0.0
  0
LINE
  5
C7
330
1F
100
AcDbEntity
  8
0
  6
Continuous
 62
     7
370
    25
100
AcDbLine
 10
81.3983729555
 20
46.6796745911
 30
0.0
 11
85.1512185587
 21
46.6796745911
 31
0.0
  0
LINE
  5
C8
330
1F
100
AcDbEntity
  8
0
  6
Continuous
 62
     7
370
    25
100
AcDbLine
 10
55.1284537328
 20
46.6796745911
 30
0.0
 11
62.6341449393
 21
46.6796745911
 31
0.0
  0
LINE
  5
C9
330
1F
100
AcDbEntity
  8
0
  6
Continuous
 62
     7
370
    25
100
AcDbLine
 10
100.1626009717
 20
67.3203254089
 30
0.0
 11
92.6569097652
 21
67.3203254089
 31
0.0
  0
LINE
  5
CA
330
1F
100
AcDbEntity
  8
0
  6
Continuous
 62
     7
370
    25
100
AcDbLine
 10
62.6341449393
 20
67.3203254089
 30
0.0
 11
55.1284537328
 21
67.3203254089
 31
0.0
  0
LINE
  5
CB
330
1F
100
AcDbEntity
  8
0
  6
Continuous
 62
     7
370
    25
100
AcDbLine
 10
85.1512185587
 20
46.6796745911
 30
0.0
 11
92.6569097652
 21
46.6796745911
 31
0.0
  0
LINE
  5
CC
330
1F
100
AcDbEntity
  8
0
  6
Continuous
 62
     7
370
    25
100
AcDbLine
 10
92.6569097652
 20
46.6796745911
 30
0.0
 11
100.1626009717
 21
46.6796745911
 31
0.0
  0
LINE
  5
CD
330
1F
100
AcDbEntity
  8
0
  6
Continuous
 62
     7
370
    25
100
AcDbLine
 10
100.1626009717
 20
46.6796745911
 30
0.0
 11
117.9043471774
 21
46.6796745911
 31
0.0
  0
SPLINE
  5
CE
330
1F
100
AcDbEntity
  8
0
  6
Continuous
 62
     7
370
    25
100
AcDbSpline
210
0.0
220
0.0
230
1.0
 70
     8
 71
     3
 72
     8
 73
     4
 74
     0
 42
0.00000001
 43
0.00000001
 40
0.0
 40
0.0
 40
0.0
 40
0.0
 40
1.0
 40
1.0
 40
1.0
 40
1.0
 10
117.9043471773874
 20
46.67967459109841
 30
0.0
 10
117.8581783903823
 20
46.57822476545729
 30
0.0
 10
117.7926368793173
 20
46.48369388336344
 30
0.0
 10
117.7138218299417
 20
46.4048788339879
 30
0.0
  0
LINE
  5
CF
330
1F
100
AcDbEntity
  8
0
  6
Continuous
 62
     7
370
    25
100
AcDbLine
 10
70.1398361458
 20
67.3203254089
 30
0.0
 11
62.6341449393
 21
67.3203254089
 31
0.0
  0
LINE
  5
D0
330
1F
100
AcDbEntity
  8
0
  6
Continuous
 62
     7
370
    25
100
AcDbLine
 10
38.2406485183
 20
46.6796745911
 30
0.0
 11
55.1284537328
 21
46.6796745911
 31
0.0
  0
SPLINE
  5
D1
330
1F
100
AcDbEntity
  8
0
  6
Continuous
 62
     7
370
    25
100
AcDbSpline
210
0.0
220
0.0
230
1.0
 70
     8
 71
     3
 72
     8
 73
     4
 74
     0
 42
0.00000001
 43
0.00000001
 40
0.0
 40
0.0
 40
0.0
 40
0.0
 40
1.0
 40
1.0
 40
1.0
 40
1.0
 10
117.9043471773874
 20
40.11219478543376
 30
0.0
 10
117.9592514273848
 20
39.99154993096555
 30
0.0
 10
117.9886175870522
 20
39.85612548382135
 30
0.0
 10
117.9886175870522
 20
39.72357489884552
 30
0.0
  0
LINE
  5
D2
330
1F
100
AcDbEntity
  8
0
  6
Continuous
 62
     7
370
    25
100
AcDbLine
 10
117.9043471774
 20
46.6796745911
 30
0.0
 11
117.9043471774
 21
67.3203254089
 31
0.0
  0
SPLINE
  5
D3
330
1F
100
AcDbEntity
  8
0
  6
Continuous
 62
     7
370
    25
100
AcDbSpline
210
0.0
220
0.0
230
1.0
 70
     8
 71
     3
 72
     8
 73
     4
 74
     0
 42
0.00000001
 43
0.00000001
 40
0.0
 40
0.0
 40
0.0
 40
0.0
 40
1.0
 40
1.0
 40
1.0
 40
1.0
 10
117.9886175870522
 20
74.27642510115449
 30
0.0
 10
117.9886175870522
 20
74.14387451617866
 30
0.0
 10
117.9592514273848
 20
74.00845006903445
 30
0.0
 10
117.9043471773874
 20
73.88780521456626
 30
0.0
  0
LINE
  5
D4
330
1F
100
AcDbEntity
  8
0
  6
Continuous
 62
     7
370
    25
100
AcDbLine
 10
117.9886175871
 20
74.2764251012
 30
0.0
 11
117.9886175871
 21
39.7235748988
 31
0.0
  0
LINE
  5
D5
330
1F
100
AcDbEntity
  8
0
  6
Continuous
 62
     7
370
    25
100
AcDbLine
 10
117.7138218299
 20
73.8878052146
 30
0.0
 11
117.9043471774
 21
73.8878052146
 31
0.0
  0
LINE
  5
D6
330
1F
100
AcDbEntity
  8
0
  6
Continuous
 62
     7
370
    25
100
AcDbLine
 10
117.9043471774
 20
40.1121947854
 30
0.0
 11
117.7138218299
 21
40.1121947854
 31
0.0
  0
LINE
  5
D7
330
1F
100
AcDbEntity
  8
0
  6
Continuous
 62
     7
370
    25
100
AcDbLine
 10
37.3024371175
 20
46.6796745911
 30
0.0
 11
37.3024371175
 21
67.3203254089
 31
0.0
  0
LINE
  5
D8
330
1F
100
AcDbEntity
  8
0
  6
Continuous
 62
     7
370
    25
100
AcDbLine
 10
37.3024371175
 20
75.7642280162
 30
0.0
 11
117.9886175871
 21
75.7642280162
 31
0.0
  0
LINE
  5
D9
330
1F
100
AcDbEntity
  8
0
  6
Continuous
 62
     7
370
    25
100
AcDbLine
 10
117.9886175871
 20
75.7642280162
 30
0.0
 11
117.9886175871
 21
74.2764251012
 31
0.0
  0
LINE
  5
DA
330
1F
100
AcDbEntity
  8
0
  6
Continuous
 62
     7
370
    25
100
AcDbLine
 10
37.3024371175
 20
73.8878052146
 30
0.0
 11
37.3024371175
 21
75.7642280162
 31
0.0
  0
LINE
  5
DB
330
1F
100
AcDbEntity
  8
0
  6
Continuous
 62
     7
370
    25
100
AcDbLine
 10
117.9886175871
 20
39.7235748988
 30
0.0
 11
117.9886175871
 21
38.2357719838
 31
0.0
  0
LINE
  5
DC
330
1F
100
AcDbEntity
  8
0
  6
Continuous
 62
     7
370
    25
100
AcDbLine
 10
117.9886175871
 20
38.2357719838
 30
0.0
 11
37.3024371175
 21
38.2357719838
 31
0.0
  0
LINE
  5
DD
330
1F
100
AcDbEntity
  8
0
  6
Continuous
 62
     7
370
    25
100
AcDbLine
 10
37.3024371175
 20
38.2357719838
 30
0.0
 11
37.3024371175
 21
40.1121947854
 31
0.0
  0
LINE
  5
DE
330
1F
100
AcDbEntity
  8
0
  6
Continuous
 62
     7
370
    25
100
AcDbLine
 10
119.8650403887
 20
64.0365855061
 30
0.0
 11
119.8650403887
 21
49.9634144939
 31
0.0
  0
LINE
  5
DF
330
1F
100
AcDbEntity
  8
0
  6
Continuous
 62
     7
370
    25
100
AcDbLine
 10
119.8650403887
 20
49.9634144939
 30
0.0
 11
117.9886175871
 21
49.9634144939
 31
0.0
  0
LINE
  5
E0
330
1F
100
AcDbEntity
  8
0
  6
Continuous
 62
     7
370
    25
100
AcDbLine
 10
117.9886175871
 20
64.0365855061
 30
0.0
 11
119.8650403887
 21
64.0365855061
 31
0.0
  0
LINE
  5
E1
330
1F
100
AcDbEntity
  8
0
  6
Continuous
 62
     7
370
    25
100
AcDbLine
 10
119.8650403887
 20
49.9634144939
 30
0.0
 11
132.0617885992
 21
49.9634144939
 31
0.0
  0
LINE
  5
E2
330
1F
100
AcDbEntity
  8
0
  6
Continuous
 62
     7
370
    25
100
AcDbLine
 10
119.8650403887
 20
64.0365855061
 30
0.0
 11
132.0617885992
 21
64.0365855061
 31
0.0
  0
LINE
  5
E3
330
1F
100
AcDbEntity
  8
0
  6
Continuous
 62
     7
370
    25
100
AcDbLine
 10
133.0
 20
64.0365855061
 30
0.0
 11
133.0
 21
49.9634144939
 31
0.0
  0
LINE
  5
E4
330
1F
100
AcDbEntity
  8
0
  6
Continuous
 62
     7
370
    25
100
AcDbLine
 10
133.0
 20
49.9634144939
 30
0.0
 11
132.0617885992
 21
49.9634144939
 31
0.0
  0
LINE
  5
E5
330
1F
100
AcDbEntity
  8
0
  6
Continuous
 62
     7
370
    25
100
AcDbLine
 10
132.0617885992
 20
64.0365855061
 30
0.0
 11
133.0
 21
64.0365855061
 31
0.0
  0
LINE
  5
E6
330
1F
100
AcDbEntity
  8
0
  6
Continuous
 62
     7
370
    25
100
AcDbLine
 10
37.0276413603
 20
42.9268289879
 30
0.0
 11
37.3024371175
 21
42.9268289879
 31
0.0
  0
LINE
  5
E7
330
1F
100
AcDbEntity
  8
0
  6
Continuous
 62
     7
370
    25
100
AcDbLine
 10
37.3024371175
 20
38.2357719838
 30
0.0
 11
37.0276413603
 21
38.2357719838
 31
0.0
  0
LINE
  5
E8
330
1F
100
AcDbEntity
  8
0
  6
Continuous
 62
     7
370
    25
100
AcDbLine
 10
37.3024371175
 20
71.0731710121
 30
0.0
 11
37.0276413603
 21
71.0731710121
 31
0.0
  0
LINE
  5
E9
330
1F
100
AcDbEntity
  8
0
  6
Continuous
 62
     7
370
    25
100
AcDbLine
 10
37.0276413603
 20
75.7642280162
 30
0.0
 11
37.3024371175
 21
75.7642280162
 31
0.0
  0
LINE
  5
EA
330
1F
100
AcDbEntity
  8
0
  6
Continuous
 62
     7
370
    25
100
AcDbLine
 10
33.2747957571
 20
71.0731710121
 30
0.0
 11
37.0276413603
 21
71.0731710121
 31
0.0
  0
LINE
  5
EB
330
1F
100
AcDbEntity
  8
0
  6
Continuous
 62
     7
370
    25
100
AcDbLine
 10
33.2747957571
 20
75.7642280162
 30
0.0
 11
37.0276413603
 21
75.7642280162
 31
0.0
  0
LINE
  5
EC
330
1F
100
AcDbEntity
  8
0
  6
Continuous
 62
     7
370
    25
100
AcDbLine
 10
33.2747957571
 20
42.9268289879
 30
0.0
 11
37.0276413603
 21
42.9268289879
 31
0.0
  0
LINE
  5
ED
330
1F
100
AcDbEntity
  8
0
  6
Continuous
 62
     7
370
    25
100
AcDbLine
 10
33.2747957571
 20
38.2357719838
 30
0.0
 11
37.0276413603
 21
38.2357719838
 31
0.0
  0
LINE
  5
EE
330
1F
100
AcDbEntity
  8
0
  6
Continuous
 62
     7
370
    25
100
AcDbLine
 10
33.0
 20
42.9268289879
 30
0.0
 11
33.2747957571
 21
42.9268289879
 31
0.0
  0
LINE
  5
EF
330
1F
100
AcDbEntity
  8
0
  6
Continuous
 62
     7
370
    25
100
AcDbLine
 10
33.2747957571
 20
38.2357719838
 30
0.0
 11
33.0
 21
38.2357719838
 31
0.0
  0
LINE
  5
F0
330
1F
100
AcDbEntity
  8
0
  6
Continuous
 62
     7
370
    25
100
AcDbLine
 10
33.2747957571
 20
71.0731710121
 30
0.0
 11
33.0
 21
71.0731710121
 31
0.0
  0
LINE
  5
F1
330
1F
100
AcDbEntity
  8
0
  6
Continuous
 62
     7
370
    25
100
AcDbLine
 10
33.0
 20
75.7642280162
 30
0.0
 11
33.2747957571
 21
75.7642280162
 31
0.0
  0
LINE
  5
F2
330
1F
100
AcDbEntity
  8
0
  6
HIDDEN
 62
     7
370
    18
100
AcDbLine
 10
81.3983729555
 20
67.3203254089
 30
0.0
 11
73.892681749
 21
67.3203254089
 31
0.0
  0
LINE
  5
F3
330
1F
100
AcDbEntity
  8
0
  6
HIDDEN
 62
     7
370
    18
100
AcDbLine
 10
73.892681749
 20
46.6796745911
 30
0.0
 11
81.3983729555
 21
46.6796745911
 31
0.0
  0
LINE
  5
F4
330
1F
100
AcDbEntity
  8
0
  6
HIDDEN
 62
     7
370
    18
100
AcDbLine
 10
110.4829263806
 20
64.0365855061
 30
0.0
 11
110.4829263806
 21
49.9634144939
 31
0.0
  0
LINE
  5
F5
330
1F
100
AcDbEntity
  8
0
  6
HIDDEN
 62
     7
370
    18
100
AcDbLine
 10
117.9886175871
 20
45.7414631903
 30
0.0
 11
37.3024371175
 21
45.7414631903
 31
0.0
  0
LINE
  5
F6
330
1F
100
AcDbEntity
  8
0
  6
HIDDEN
 62
     7
370
    18
100
AcDbLine
 10
110.4829263806
 20
64.0365855061
 30
0.0
 11
117.9886175871
 21
64.0365855061
 31
0.0
  0
LINE
  5
F7
330
1F
100
AcDbEntity
  8
0
  6
HIDDEN
 62
     7
370
    18
100
AcDbLine
 10
110.4829263806
 20
49.9634144939
 30
0.0
 11
117.9886175871
 21
49.9634144939
 31
0.0
  0
LINE
  5
F8
330
1F
100
AcDbEntity
  8
0
  6
HIDDEN
 62
     7
370
    18
100
AcDbLine
 10
37.3024371175
 20
68.2585368097
 30
0.0
 11
117.9886175871
 21
68.2585368097
 31
0.0
  0
LINE
  5
F9
330
1F
100
AcDbEntity
  8
0
  6
HIDDEN
 62
     7
370
    18
100
AcDbLine
 10
112.3593491822
 20
49.9634144939
 30
0.0
 11
112.3593491822
 21
64.0365855061
 31
0.0
  0
LINE
  5
FA
330
1F
100
AcDbEntity
  8
0
  6
HIDDEN
 62
     7
370
    18
100
AcDbLine
 10
37.3024371175
 20
42.9268289879
 30
0.0
 11
117.9886175871
 21
42.9268289879
 31
0.0
  0
LINE
  5
FB
330
1F
100
AcDbEntity
  8
0
  6
HIDDEN
 62
     7
370
    18
100
AcDbLine
 10
117.9886175871
 20
71.0731710121
 30
0.0
 11
37.3024371175
 21
71.0731710121
 31
0.0
  0
LINE
  5
FC
330
1F
100
AcDbEntity
  8
0
  6
HIDDEN
 62
     7
370
    18
100
AcDbLine
 10
77.6455273523
 20
75.7642280162
 30
0.0
 11
77.6455273523
 21
71.0731710121
 31
0.0
  0
LINE
  5
FD
330
1F
100
AcDbEntity
  8
0
  6
HIDDEN
 62
     7
370
    18
100
AcDbLine
 10
77.6455273523
 20
38.2357719838
 30
0.0
 11
77.6455273523
 21
42.9268289879
 31
0.0
  0
LINE
  5
FE
330
1F
100
AcDbEntity
  8
0
  6
Continuous
 62
     7
370
    25
100
AcDbLine
 10
55.635825657
 20
127.3697137077
 30
0.0
 11
55.6437913258
 21
127.3749513869
 31
0.0
  0
LINE
  5
FF
330
1F
100
AcDbEntity
  8
0
  6
Continuous
 62
     7
370
    25
100
AcDbLine
 10
53.7265614483
 20
128.3909438734
 30
0.0
 11
53.7291786871
 21
128.3860939924
 31
0.0
  0
ARC
  5
100
330
1F
100
AcDbEntity
  8
0
  6
Continuous
 62
     7
370
    25
100
AcDbCircle
 10
36.3642257166
 20
183.8812993361
 30
0.0
 40
0.9382114008092373
100
AcDbArc
 50
0.0
 51
45.0
  0
LINE
  5
101
330
1F
100
AcDbEntity
  8
0
  6
Continuous
 62
     7
370
    25
100
AcDbLine
 10
33.2747957571
 20
188.297560583
 30
0.0
 11
37.0276413603
 21
184.5447149798
 31
0.0
  0
LINE
  5
102
330
1F
100
AcDbEntity
  8
0
  6
Continuous
 62
     7
370
    25
100
AcDbLine
 10
117.9886175871
 20
165.5056912065
 30
0.0
 11
117.9886175871
 21
184.2699192227
 31
0.0
  0
LINE
  5
103
330
1F
100
AcDbEntity
  8
0
  6
Continuous
 62
     7
370
    25
100
AcDbLine
 10
37.3024371175
 20
165.5056912065
 30
0.0
 11
117.9886175871
 21
165.5056912065
 31
0.0
  0
LINE
  5
104
330
1F
100
AcDbEntity
  8
0
  6
Continuous
 62
     7
370
    25
100
AcDbLine
 10
37.3024371175
 20
183.8812993361
 30
0.0
 11
37.3024371175
 21
165.5056912065
 31
0.0
  0
LINE
  5
105
330
1F
100
AcDbEntity
  8
0
  6
Continuous
 62
     7
370
    25
100
AcDbLine
 10
117.9886175871
 20
184.2699192227
 30
0.0
 11
77.6455273523
 21
189.8991876275
 31
0.0
  0
LINE
  5
106
330
1F
100
AcDbEntity
  8
0
  6
Continuous
 62
     7
370
    25
100
AcDbLine
 10
77.6455273523
 20
189.8991876275
 30
0.0
 11
33.9382114008
 21
189.8991876275
 31
0.0
  0
ARC
  5
107
330
1F
100
AcDbEntity
  8
0
  6
Continuous
 62
     7
370
    25
100
AcDbCircle
 10
33.9382114008
 20
188.9609762267
 30
0.0
 40
0.938211400809223
100
AcDbArc
 50
90.0
 51
225.0
  0
SPLINE
  5
108
330
1F
100
AcDbEntity
  8
0
  6
Continuous
 62
     7
370
    25
100
AcDbSpline
210
0.0
220
0.0
230
1.0
 70
     8
 71
     3
 72
     8
 73
     4
 74
     0
 42
0.00000001
 43
0.00000001
 40
0.0
 40
0.0
 40
0.0
 40
0.0
 40
1.0
 40
1.0
 40
1.0
 40
1.0
 10
117.9886175870522
 20
164.0178882914437
 30
0.0
 10
117.9886175870522
 20
163.8853377064678
 30
0.0
 10
117.9592514273848
 20
163.7499132593236
 30
0.0
 10
117.9043471773874
 20
163.6292684048554
 30
0.0
  0
LINE
  5
109
330
1F
100
AcDbEntity
  8
0
  6
Continuous
 62
     7
370
    25
100
AcDbLine
 10
117.9043471774
 20
163.6292684049
 30
0.0
 11
37.3024371175
 21
163.6292684049
 31
0.0
  0
LINE
  5
10A
330
1F
100
AcDbEntity
  8
0
  6
Continuous
 62
     7
370
    25
100
AcDbLine
 10
117.9886175871
 20
165.5056912065
 30
0.0
 11
117.9886175871
 21
164.0178882914
 31
0.0
  0
LINE
  5
10B
330
1F
100
AcDbEntity
  8
0
  6
Continuous
 62
     7
370
    25
100
AcDbLine
 10
37.3024371175
 20
163.6292684049
 30
0.0
 11
37.3024371175
 21
165.5056912065
 31
0.0
  0
LINE
  5
10C
330
1F
100
AcDbEntity
  8
0
  6
Continuous
 62
     7
370
    25
100
AcDbLine
 10
84.8568936685
 20
130.4975444863
 30
0.0
 11
117.7138218299
 21
163.3544726477
 31
0.0
  0
ARC
  5
10D
330
1F
100
AcDbEntity
  8
0
  6
Continuous
 62
     7
370
    25
100
AcDbCircle
 10
74.2422433693
 20
141.1121947854
 30
0.0
 40
15.01138241294776
100
AcDbArc
 50
270.0
 51
315.0
  0
LINE
  5
10E
330
1F
100
AcDbEntity
  8
0
  6
Continuous
 62
     7
370
    25
100
AcDbLine
 10
61.6959335385
 20
126.1008123725
 30
0.0
 11
74.2422433693
 21
126.1008123725
 31
0.0
  0
ARC
  5
10F
330
1F
100
AcDbEntity
  8
0
  6
Continuous
 62
     7
370
    25
100
AcDbCircle
 10
61.6959335385
 20
141.1121947854
 30
0.0
 40
15.01138241294777
100
AcDbArc
 50
180.0
 51
270.0
  0
LINE
  5
110
330
1F
100
AcDbEntity
  8
0
  6
Continuous
 62
     7
370
    25
100
AcDbLine
 10
46.6845511256
 20
148.6178859919
 30
0.0
 11
46.6845511256
 21
141.1121947854
 31
0.0
  0
ARC
  5
111
330
1F
100
AcDbEntity
  8
0
  6
Continuous
 62
     7
370
    25
100
AcDbCircle
 10
41.0552827207
 20
148.6178859919
 30
0.0
 40
5.629268404855416
100
AcDbArc
 50
0.0
 51
80.4059317731
  0
ARC
  5
112
330
1F
100
AcDbEntity
  8
0
  6
Continuous
 62
     7
370
    25
100
AcDbCircle
 10
42.9317055223
 20
159.7189529931
 30
0.0
 40
5.629268404855415
100
AcDbArc
 50
180.0
 51
260.4059317731
  0
ARC
  5
113
330
1F
100
AcDbEntity
  8
0
  6
Continuous
 62
     7
370
    25
100
AcDbCircle
 10
117.0504061862
 20
164.0178882914
 30
0.0
 40
0.9382114008092869
100
AcDbArc
 50
315.0
 51
335.5301994793
  0
LINE
  5
114
330
1F
100
AcDbEntity
  8
0
  6
Continuous
 62
     7
370
    25
100
AcDbLine
 10
37.3024371175
 20
163.6292684049
 30
0.0
 11
37.3024371175
 21
159.7189529931
 31
0.0
  0
ARC
  5
115
330
1F
100
AcDbEntity
  8
0
  6
Continuous
 62
     7
370
    25
100
AcDbCircle
 10
132.0617885992
 20
170.1967482105
 30
0.0
 40
0.938211400809223
100
AcDbArc
 50
270.0
 51
0.0
  0
LINE
  5
116
330
1F
100
AcDbEntity
  8
0
  6
Continuous
 62
     7
370
    25
100
AcDbLine
 10
119.8650403887
 20
169.2585368097
 30
0.0
 11
132.0617885992
 21
169.2585368097
 31
0.0
  0
LINE
  5
117
330
1F
100
AcDbEntity
  8
0
  6
Continuous
 62
     7
370
    25
100
AcDbLine
 10
117.9886175871
 20
167.3821140081
 30
0.0
 11
119.8650403887
 21
169.2585368097
 31
0.0
  0
LINE
  5
118
330
1F
100
AcDbEntity
  8
0
  6
Continuous
 62
     7
370
    25
100
AcDbLine
 10
133.0
 20
172.0731710121
 30
0.0
 11
117.9886175871
 21
172.0731710121
 31
0.0
  0
LINE
  5
119
330
1F
100
AcDbEntity
  8
0
  6
Continuous
 62
     7
370
    25
100
AcDbLine
 10
133.0
 20
170.1967482105
 30
0.0
 11
133.0
 21
172.0731710121
 31
0.0
  0
LINE
  5
11A
330
1F
100
AcDbEntity
  8
0
  6
HIDDEN
 62
     7
370
    18
100
AcDbLine
 10
117.9886175871
 20
169.2585368097
 30
0.0
 11
37.3024371175
 21
169.2585368097
 31
0.0
  0
SPLINE
  5
11B
330
1F
100
AcDbEntity
  8
0
  6
HIDDEN
 62
     7
370
    18
100
AcDbSpline
210
0.0
220
0.0
230
1.0
 70
     8
 71
     3
 72
    14
 73
    10
 74
     0
 42
0.00000001
 43
0.00000001
 40
0.0
 40
0.0
 40
0.0
 40
0.0
 40
0.25
 40
0.25
 40
0.5
 40
0.5
 40
0.75
 40
0.75
 40
1.0
 40
1.0
 40
1.0
 40
1.0
 10
85.15121855872897
 20
163.6292684048554
 30
0.0
 10
85.37235710662856
 20
163.6292684048554
 30
0.0
 10
85.61093794039598
 20
163.5889652095958
 30
0.0
 10
86.07290178941601
 20
163.4060779344614
 30
0.0
 10
86.29485267471945
 20
163.2628740620414
 30
0.0
 10
86.66124701753344
 20
162.8964797192274
 30
0.0
 10
86.80445088995343
 20
162.674528833924
 30
0.0
 10
86.98733816508779
 20
162.2125649849039
 30
0.0
 10
87.02764136034743
 20
161.9739841511365
 30
0.0
 10
87.02764136034743
 20
161.7528456032369
 30
0.0
  0
SPLINE
  5
11C
330
1F
100
AcDbEntity
  8
0
  6
HIDDEN
 62
     7
370
    18
100
AcDbSpline
210
0.0
220
0.0
230
1.0
 70
     8
 71
     3
 72
    14
 73
    10
 74
     0
 42
0.00000001
 43
0.00000001
 40
0.0
 40
0.0
 40
0.0
 40
0.0
 40
0.25
 40
0.25
 40
0.5
 40
0.5
 40
0.75
 40
0.75
 40
1.0
 40
1.0
 40
1.0
 40
1.0
 10
83.2747957571105
 20
161.7528456032369
 30
0.0
 10
83.2747957571105
 20
161.9739841511365
 30
0.0
 10
83.31509895237015
 20
162.212564984904
 30
0.0
 10
83.49798622750451
 20
162.674528833924
 30
0.0
 10
83.64119009992449
 20
162.8964797192274
 30
0.0
 10
84.00758444273848
 20
163.2628740620414
 30
0.0
 10
84.22953532804193
 20
163.4060779344614
 30
0.0
 10
84.69149917706196
 20
163.5889652095958
 30
0.0
 10
84.93008001082939
 20
163.6292684048554
 30
0.0
 10
85.15121855872897
 20
163.6292684048554
 30
0.0
  0
LINE
  5
11D
330
1F
100
AcDbEntity
  8
0
  6
HIDDEN
 62
     7
370
    18
100
AcDbLine
 10
83.2747957571
 20
161.7528456032
 30
0.0
 11
83.2747957571
 21
130.3357154697
 31
0.0
  0
SPLINE
  5
11E
330
1F
100
AcDbEntity
  8
0
  6
HIDDEN
 62
     7
370
    18
100
AcDbSpline
210
0.0
220
0.0
230
1.0
 70
     8
 71
     3
 72
    14
 73
    10
 74
     0
 42
0.00000001
 43
0.00000001
 40
0.0
 40
0.0
 40
0.0
 40
0.0
 40
0.25
 40
0.25
 40
0.5
 40
0.5
 40
0.75
 40
0.75
 40
1.0
 40
1.0
 40
1.0
 40
1.0
 10
84.1416894934039
 20
130.9037126851034
 30
0.0
 10
84.02023675316616
 20
130.819446096248
 30
0.0
 10
83.90678092468022
 20
130.7428007125498
 30
0.0
 10
83.69854640631024
 20
130.6047377206691
 30
0.0
 10
83.6031541718763
 20
130.5429765254237
 30
0.0
 10
83.44632337862602
 20
130.4427545164262
 30
0.0
 10
83.38269568865636
 20
130.4028539639493
 30
0.0
 10
83.29732583281896
 20
130.3495987281745
 30
0.0
 10
83.27479575711058
 20
130.3357148578728
 30
0.0
 10
83.2747957571105
 20
130.3357155775837
 30
0.0
  0
SPLINE
  5
11F
330
1F
100
AcDbEntity
  8
0
  6
HIDDEN
 62
     7
370
    18
100
AcDbSpline
210
0.0
220
0.0
230
1.0
 70
     8
 71
     3
 72
    20
 73
    16
 74
     0
 42
0.00000001
 43
0.00000001
 40
0.0
 40
0.0
 40
0.0
 40
0.0
 40
0.125
 40
0.125
 40
0.2499999999999999
 40
0.2499999999999999
 40
0.3749999999999999
 40
0.3749999999999999
 40
0.4999999999999999
 40
0.4999999999999999
 40
0.6249999999999999
 40
0.6249999999999999
 40
0.7499999999999998
 40
0.7499999999999998
 40
1.0
 40
1.0
 40
1.0
 40
1.0
 10
87.02764136034745
 20
132.9062406920999
 30
0.0
 10
87.02764136079522
 20
132.9062812989402
 30
0.0
 10
86.9981932585212
 20
132.8857910035108
 30
0.0
 10
86.88746325935841
 20
132.8089491677956
 30
0.0
 10
86.80677880271406
 20
132.7529687142633
 30
0.0
 10
86.60915679028722
 20
132.6158404580414
 30
0.0
 10
86.49234689501692
 20
132.5347919133563
 30
0.0
 10
86.23638347699
 20
132.3571787797581
 30
0.0
 10
86.09829224746987
 20
132.2613677639649
 30
0.0
 10
85.80629996916896
 20
132.0587506908695
 30
0.0
 10
85.65630333133102
 20
131.9546789828975
 30
0.0
 10
85.34905754221059
 20
131.7414822478618
 30
0.0
 10
85.19165847334861
 20
131.632266024276
 30
0.0
 10
84.72807873716987
 20
131.3106036096574
 30
0.0
 10
84.41954116111883
 20
131.0964351420072
 30
0.0
 10
84.14168949340389
 20
130.9037126851034
 30
0.0
  0
LINE
  5
120
330
1F
100
AcDbEntity
  8
0
  6
HIDDEN
 62
     7
370
    18
100
AcDbLine
 10
87.0276413603
 20
132.9062200004
 30
0.0
 11
87.0276413603
 21
161.7528456032
 31
0.0
  0
LWPOLYLINE
  5
121
330
1F
100
AcDbEntity
  8
0
  6
HIDDEN
 62
     7
370
    18
100
AcDbPolyline
 90
        3
 70
   128
 43
0.0
 10
86.8593926383
 20
132.5000434561
 10
86.9536072995
 20
132.727499113
 10
87.0276413603
 20
132.9062200004
  0
SPLINE
  5
122
330
1F
100
AcDbEntity
  8
0
  6
HIDDEN
 62
     7
370
    18
100
AcDbSpline
210
0.0
220
0.0
230
1.0
 70
     8
 71
     3
 72
    14
 73
    10
 74
     0
 42
0.00000001
 43
0.00000001
 40
0.0
 40
0.0
 40
0.0
 40
0.0
 40
0.25
 40
0.25
 40
0.5
 40
0.5
 40
0.75
 40
0.75
 40
1.0
 40
1.0
 40
1.0
 40
1.0
 10
100.1626009716767
 20
163.6292684048554
 30
0.0
 10
100.3837395195763
 20
163.6292684048554
 30
0.0
 10
100.6223203533438
 20
163.5889652095958
 30
0.0
 10
101.0842842023638
 20
163.4060779344615
 30
0.0
 10
101.3062350876673
 20
163.2628740620415
 30
0.0
 10
101.6726294304813
 20
162.8964797192275
 30
0.0
 10
101.8158333029012
 20
162.674528833924
 30
0.0
 10
101.9987205780356
 20
162.212564984904
 30
0.0
 10
102.0390237732952
 20
161.9739841511365
 30
0.0
 10
102.0390237732952
 20
161.7528456032369
 30
0.0
  0
SPLINE
  5
123
330
1F
100
AcDbEntity
  8
0
  6
HIDDEN
 62
     7
370
    18
100
AcDbSpline
210
0.0
220
0.0
230
1.0
 70
     8
 71
     3
 72
    14
 73
    10
 74
     0
 42
0.00000001
 43
0.00000001
 40
0.0
 40
0.0
 40
0.0
 40
0.0
 40
0.25
 40
0.25
 40
0.5
 40
0.5
 40
0.75
 40
0.75
 40
1.0
 40
1.0
 40
1.0
 40
1.0
 10
98.28617817005828
 20
161.7528456032369
 30
0.0
 10
98.28617817005826
 20
161.9739841511365
 30
0.0
 10
98.3264813653179
 20
162.212564984904
 30
0.0
 10
98.50936864045225
 20
162.674528833924
 30
0.0
 10
98.65257251287224
 20
162.8964797192275
 30
0.0
 10
99.01896685568623
 20
163.2628740620415
 30
0.0
 10
99.24091774098969
 20
163.4060779344615
 30
0.0
 10
99.70288159000972
 20
163.5889652095958
 30
0.0
 10
99.94146242377717
 20
163.6292684048555
 30
0.0
 10
100.1626009716767
 20
163.6292684048554
 30
0.0
  0
LINE
  5
124
330
1F
100
AcDbEntity
  8
0
  6
HIDDEN
 62
     7
370
    18
100
AcDbLine
 10
98.2861781701
 20
161.7528456032
 30
0.0
 11
98.2861781701
 21
146.1918738184
 31
0.0
  0
SPLINE
  5
125
330
1F
100
AcDbEntity
  8
0
  6
HIDDEN
 62
     7
370
    18
100
AcDbSpline
210
0.0
220
0.0
230
1.0
 70
     8
 71
     3
 72
    32
 73
    28
 74
     0
 42
0.00000001
 43
0.00000001
 40
0.0
 40
0.0
 40
0.0
 40
0.0
 40
0.0624999999999988
 40
0.0624999999999988
 40
0.1249999999999975
 40
0.1249999999999975
 40
0.2499999999999959
 40
0.2499999999999959
 40
0.3124999999999961
 40
0.3124999999999961
 40
0.3749999999999963
 40
0.3749999999999963
 40
0.4374999999999964
 40
0.4374999999999964
 40
0.4999999999999967
 40
0.4999999999999967
 40
0.6249999999999986
 40
0.6249999999999986
 40
0.7500000000000006
 40
0.7500000000000006
 40
0.8125000000000008
 40
0.8125000000000008
 40
0.8750000000000004
 40
0.8750000000000004
 40
0.9375000000000002
 40
0.9375000000000002
 40
1.0
 40
1.0
 40
1.0
 40
1.0
 10
102.0390237732952
 20
148.0683034491128
 30
0.0
 10
102.0390237732394
 20
148.0682917687865
 30
0.0
 10
102.025337635526
 20
148.0614821902037
 30
0.0
 10
101.9721447158579
 20
148.0348529298282
 30
0.0
 10
101.9318788508755
 20
148.0147496229885
 30
0.0
 10
101.7780809623234
 20
147.9378133682458
 30
0.0
 10
101.6286963366399
 20
147.863145774101
 30
0.0
 10
101.3622355488887
 20
147.7299148915808
 30
0.0
 10
101.2649361866335
 20
147.6812568848356
 30
0.0
 10
101.0622584071655
 20
147.5799301259537
 30
0.0
 10
100.956426629377
 20
147.5269934547686
 30
0.0
 10
100.7360736729917
 20
147.4168376092204
 30
0.0
 10
100.6220450629489
 20
147.3597985686906
 30
0.0
 10
100.3932877399185
 20
147.2454386875853
 30
0.0
 10
100.2776382525964
 20
147.1876012421625
 30
0.0
 10
99.92677668149443
 20
147.0121718939706
 30
0.0
 10
99.69689521097752
 20
146.8972544732436
 30
0.0
 10
99.25568674621694
 20
146.6766143963728
 30
0.0
 10
99.05227047221648
 20
146.5749284757577
 30
0.0
 10
98.7843368980175
 20
146.4409606476867
 30
0.0
 10
98.70254572192322
 20
146.4000611385656
 30
0.0
 10
98.55919326258798
 20
146.3283922032814
 30
0.0
 10
98.49681047761672
 20
146.297189407855
 30
0.0
 10
98.3929389693042
 20
146.2452667795977
 30
0.0
 10
98.353640567371
 20
146.2256017445867
 30
0.0
 10
98.3002286019152
 20
146.1989119421913
 30
0.0
 10
98.28617817007101
 20
146.1918703764563
 30
0.0
 10
98.28617817005826
 20
146.1918759607087
 30
0.0
  0
LINE
  5
126
330
1F
100
AcDbEntity
  8
0
  6
HIDDEN
 62
     7
370
    18
100
AcDbLine
 10
102.0390237733
 20
148.0682989634
 30
0.0
 11
102.0390237733
 21
161.7528456032
 31
0.0
  0
SPLINE
  5
127
330
1F
100
AcDbEntity
  8
0
  6
HIDDEN
 62
     7
370
    18
100
AcDbSpline
210
0.0
220
0.0
230
1.0
 70
     8
 71
     3
 72
    14
 73
    10
 74
     0
 42
0.00000001
 43
0.00000001
 40
0.0
 40
0.0
 40
0.0
 40
0.0
 40
0.25
 40
0.25
 40
0.5
 40
0.5
 40
0.75
 40
0.75
 40
1.0
 40
1.0
 40
1.0
 40
1.0
 10
92.65690976520285
 20
163.6292684048554
 30
0.0
 10
92.87804831310244
 20
163.6292684048554
 30
0.0
 10
93.11662914686988
 20
163.5889652095958
 30
0.0
 10
93.57859299588992
 20
163.4060779344614
 30
0.0
 10
93.80054388119336
 20
163.2628740620414
 30
0.0
 10
94.16693822400735
 20
162.8964797192274
 30
0.0
 10
94.31014209642736
 20
162.674528833924
 30
0.0
 10
94.49302937156169
 20
162.212564984904
 30
0.0
 10
94.53333256682134
 20
161.9739841511365
 30
0.0
 10
94.53333256682133
 20
161.7528456032369
 30
0.0
  0
SPLINE
  5
128
330
1F
100
AcDbEntity
  8
0
  6
HIDDEN
 62
     7
370
    18
100
AcDbSpline
210
0.0
220
0.0
230
1.0
 70
     8
 71
     3
 72
    14
 73
    10
 74
     0
 42
0.00000001
 43
0.00000001
 40
0.0
 40
0.0
 40
0.0
 40
0.0
 40
0.25
 40
0.25
 40
0.5
 40
0.5
 40
0.75
 40
0.75
 40
1.0
 40
1.0
 40
1.0
 40
1.0
 10
90.78048696358438
 20
161.7528456032369
 30
0.0
 10
90.78048696358437
 20
161.9739841511365
 30
0.0
 10
90.82079015884402
 20
162.212564984904
 30
0.0
 10
91.00367743397835
 20
162.674528833924
 30
0.0
 10
91.14688130639836
 20
162.8964797192274
 30
0.0
 10
91.51327564921236
 20
163.2628740620414
 30
0.0
 10
91.73522653451579
 20
163.4060779344614
 30
0.0
 10
92.19719038353583
 20
163.5889652095958
 30
0.0
 10
92.43577121730327
 20
163.6292684048554
 30
0.0
 10
92.65690976520285
 20
163.6292684048554
 30
0.0
  0
LINE
  5
129
330
1F
100
AcDbEntity
  8
0
  6
HIDDEN
 62
     7
370
    18
100
AcDbLine
 10
90.7804869636
 20
161.7528456032
 30
0.0
 11
90.7804869636
 21
138.6861826119
 31
0.0
  0
SPLINE
  5
12A
330
1F
100
AcDbEntity
  8
0
  6
HIDDEN
 62
     7
370
    18
100
AcDbSpline
210
0.0
220
0.0
230
1.0
 70
     8
 71
     3
 72
    32
 73
    28
 74
     0
 42
0.00000001
 43
0.00000001
 40
0.0
 40
0.0
 40
0.0
 40
0.0
 40
0.0624999999999993
 40
0.0624999999999993
 40
0.1249999999999985
 40
0.1249999999999985
 40
0.2499999999999982
 40
0.2499999999999982
 40
0.3124999999999982
 40
0.3124999999999982
 40
0.3749999999999982
 40
0.3749999999999982
 40
0.4374999999999983
 40
0.4374999999999983
 40
0.4999999999999983
 40
0.4999999999999983
 40
0.6249999999999984
 40
0.6249999999999984
 40
0.7499999999999984
 40
0.7499999999999984
 40
0.8124999999999989
 40
0.8124999999999989
 40
0.8749999999999992
 40
0.8749999999999992
 40
0.9374999999999997
 40
0.9374999999999997
 40
1.0
 40
1.0
 40
1.0
 40
1.0
 10
94.53333256682134
 20
140.562612242639
 30
0.0
 10
94.5333325667655
 20
140.5626005623127
 30
0.0
 10
94.51964642905209
 20
140.5557909837299
 30
0.0
 10
94.46645350938405
 20
140.5291617233543
 30
0.0
 10
94.42618764440162
 20
140.5090584165148
 30
0.0
 10
94.27238975584955
 20
140.4321221617721
 30
0.0
 10
94.12300513016599
 20
140.3574545676272
 30
0.0
 10
93.85654434241485
 20
140.224223685107
 30
0.0
 10
93.75924498015964
 20
140.1755656783619
 30
0.0
 10
93.55656720069163
 20
140.0742389194799
 30
0.0
 10
93.45073542290308
 20
140.0213022482948
 30
0.0
 10
93.23038246651777
 20
139.9111464027466
 30
0.0
 10
93.11635385647499
 20
139.8541073622168
 30
0.0
 10
92.88759653344457
 20
139.7397474811116
 30
0.0
 10
92.77194704612252
 20
139.6819100356888
 30
0.0
 10
92.42108547502053
 20
139.5064806874968
 30
0.0
 10
92.19120400450363
 20
139.3915632667699
 30
0.0
 10
91.74999553974298
 20
139.170923189899
 30
0.0
 10
91.54657926574261
 20
139.0692372692839
 30
0.0
 10
91.27864569154359
 20
138.9352694412129
 30
0.0
 10
91.19685451544935
 20
138.8943699320919
 30
0.0
 10
91.05350205611411
 20
138.8227009968076
 30
0.0
 10
90.99111927114284
 20
138.7914982013812
 30
0.0
 10
90.88724776283027
 20
138.7395755731239
 30
0.0
 10
90.84794936089713
 20
138.7199105381129
 30
0.0
 10
90.79453739544131
 20
138.6932207357175
 30
0.0
 10
90.78048696359714
 20
138.6861791699826
 30
0.0
 10
90.78048696358438
 20
138.6861847542349
 30
0.0
  0
LINE
  5
12B
330
1F
100
AcDbEntity
  8
0
  6
HIDDEN
 62
     7
370
    18
100
AcDbLine
 10
94.5333325668
 20
140.5626077569
 30
0.0
 11
94.5333325668
 21
161.7528456032
 31
0.0
  0
LWPOLYLINE
  5
12C
330
1F
100
AcDbEntity
  8
0
  6
HIDDEN
 62
     7
370
    18
100
AcDbPolyline
 90
        3
 70
   128
 43
0.0
 10
101.7642256728
 20
147.4048764906
 10
101.9181108076
 20
147.7763896626
 10
102.0390237733
 20
148.0682989634
  0
LWPOLYLINE
  5
12D
330
1F
100
AcDbEntity
  8
0
  6
HIDDEN
 62
     7
370
    18
100
AcDbPolyline
 90
        3
 70
   128
 43
0.0
 10
98.2861781701
 20
146.1918738184
 10
99.1830922902
 20
145.8203610593
 10
99.8878075579
 20
145.5284583757
  0
LWPOLYLINE
  5
12E
330
1F
100
AcDbEntity
  8
0
  6
HIDDEN
 62
     7
370
    18
100
AcDbPolyline
 90
        3
 70
   128
 43
0.0
 10
94.2585344664
 20
139.8991852842
 10
94.4124196011
 20
140.2706984562
 10
94.5333325668
 20
140.5626077569
  0
LWPOLYLINE
  5
12F
330
1F
100
AcDbEntity
  8
0
  6
HIDDEN
 62
     7
370
    18
100
AcDbPolyline
 90
        3
 70
   128
 43
0.0
 10
90.7804869636
 20
138.6861826119
 10
91.6774010837
 20
138.3146698529
 10
92.3821163514
 20
138.0227671692
  0
SPLINE
  5
130
330
1F
100
AcDbEntity
  8
0
  6
HIDDEN
 62
     7
370
    18
100
AcDbSpline
210
0.0
220
0.0
230
1.0
 70
     8
 71
     3
 72
    14
 73
    10
 74
     0
 42
0.00000001
 43
0.00000001
 40
0.0
 40
0.0
 40
0.0
 40
0.0
 40
0.25
 40
0.25
 40
0.5
 40
0.5
 40
0.75
 40
0.75
 40
1.0
 40
1.0
 40
1.0
 40
1.0
 10
55.12845373283342
 20
163.6292684048554
 30
0.0
 10
55.34959228073301
 20
163.6292684048554
 30
0.0
 10
55.58817311450045
 20
163.5889652095958
 30
0.0
 10
56.05013696352049
 20
163.4060779344615
 30
0.0
 10
56.27208784882394
 20
163.2628740620415
 30
0.0
 10
56.63848219163793
 20
162.8964797192275
 30
0.0
 10
56.78168606405792
 20
162.674528833924
 30
0.0
 10
56.96457333919226
 20
162.212564984904
 30
0.0
 10
57.0048765344519
 20
161.9739841511365
 30
0.0
 10
57.0048765344519
 20
161.7528456032369
 30
0.0
  0
SPLINE
  5
131
330
1F
100
AcDbEntity
  8
0
  6
HIDDEN
 62
     7
370
    18
100
AcDbSpline
210
0.0
220
0.0
230
1.0
 70
     8
 71
     3
 72
    14
 73
    10
 74
     0
 42
0.00000001
 43
0.00000001
 40
0.0
 40
0.0
 40
0.0
 40
0.0
 40
0.25
 40
0.25
 40
0.5
 40
0.5
 40
0.75
 40
0.75
 40
1.0
 40
1.0
 40
1.0
 40
1.0
 10
53.25203093121495
 20
161.7528456032369
 30
0.0
 10
53.25203093121495
 20
161.9739841511365
 30
0.0
 10
53.29233412647459
 20
162.2125649849039
 30
0.0
 10
53.47522140160893
 20
162.674528833924
 30
0.0
 10
53.61842527402892
 20
162.8964797192275
 30
0.0
 10
53.9848196168429
 20
163.2628740620414
 30
0.0
 10
54.20677050214637
 20
163.4060779344615
 30
0.0
 10
54.66873435116641
 20
163.5889652095958
 30
0.0
 10
54.90731518493383
 20
163.6292684048554
 30
0.0
 10
55.12845373283342
 20
163.6292684048554
 30
0.0
  0
LINE
  5
132
330
1F
100
AcDbEntity
  8
0
  6
HIDDEN
 62
     7
370
    18
100
AcDbLine
 10
53.2520309312
 20
129.2068999038
 30
0.0
 11
53.2520309312
 21
161.7528456032
 31
0.0
  0
SPLINE
  5
133
330
1F
100
AcDbEntity
  8
0
  6
HIDDEN
 62
     7
370
    18
100
AcDbSpline
210
0.0
220
0.0
230
1.0
 70
     8
 71
     3
 72
    34
 73
    30
 74
     0
 42
0.00000001
 43
0.00000001
 40
0.0
 40
0.0
 40
0.0
 40
0.0
 40
0.0625000000000005
 40
0.0625000000000005
 40
0.1250000000000011
 40
0.1250000000000011
 40
0.1875000000000016
 40
0.1875000000000016
 40
0.2500000000000022
 40
0.2500000000000022
 40
0.3750000000000036
 40
0.3750000000000036
 40
0.4375000000000031
 40
0.4375000000000031
 40
0.5000000000000026
 40
0.5000000000000026
 40
0.5625000000000022
 40
0.5625000000000022
 40
0.6250000000000018
 40
0.6250000000000018
 40
0.6875000000000013
 40
0.6875000000000013
 40
0.7500000000000008
 40
0.7500000000000008
 40
0.8750000000000004
 40
0.8750000000000004
 40
0.9375000000000002
 40
0.9375000000000002
 40
1.0
 40
1.0
 40
1.0
 40
1.0
 10
57.00487653445188
 20
128.2340653557131
 30
0.0
 10
57.00487653445143
 20
128.234063347588
 30
0.0
 10
56.99229909380121
 20
128.2367638961142
 30
0.0
 10
56.94307297412939
 20
128.2473544388868
 30
0.0
 10
56.90576649015669
 20
128.2554129553671
 30
0.0
 10
56.80903675608987
 20
128.2764891523711
 30
0.0
 10
56.74993117338882
 20
128.2894305434329
 30
0.0
 10
56.61048630438924
 20
128.3203745069268
 30
0.0
 10
56.52994980441898
 20
128.3384011228702
 30
0.0
 10
56.2669853235821
 20
128.3981551603542
 30
0.0
 10
56.05651421342557
 20
128.4470766816247
 30
0.0
 10
55.71894585194781
 20
128.5285844930276
 30
0.0
 10
55.60075052536573
 20
128.5575680960559
 30
0.0
 10
55.36228052764334
 20
128.6171190971623
 30
0.0
 10
55.24230469744327
 20
128.6475946049447
 30
0.0
 10
55.00091464558228
 20
128.7099905395496
 30
0.0
 10
54.87875770464954
 20
128.742117747195
 30
0.0
 10
54.64262641698205
 20
128.8052832697952
 30
0.0
 10
54.52750833167275
 20
128.8366109541584
 30
0.0
 10
54.30324050387061
 20
128.8985485694525
 30
0.0
 10
54.19488289715847
 20
128.9289896459537
 30
0.0
 10
53.99325906869432
 20
128.986386100692
 30
0.0
 10
53.89882649656616
 20
129.0136658924591
 30
0.0
 10
53.63571051044416
 20
129.0905297769721
 30
0.0
 10
53.49595768793035
 20
129.13258699352
 30
0.0
 10
53.3509192586131
 20
129.1765933586472
 30
0.0
 10
53.3144141594664
 20
129.1877468426536
 30
0.0
 10
53.26491221235301
 20
129.2029415905771
 30
0.0
 10
53.2520309312152
 20
129.2069035432659
 30
0.0
 10
53.25203093121496
 20
129.2068998424534
 30
0.0
  0
LINE
  5
134
330
1F
100
AcDbEntity
  8
0
  6
HIDDEN
 62
     7
370
    18
100
AcDbLine
 10
57.0048765345
 20
161.7528456032
 30
0.0
 11
57.0048765345
 21
128.2340651435
 31
0.0
  0
LINE
  5
135
330
1F
100
AcDbEntity
  8
0
  6
HIDDEN
 62
     7
370
    18
100
AcDbLine
 10
53.2520309312
 20
129.2068999038
 30
0.0
 11
53.7058198503
 21
128.4039421441
 31
0.0
  0
LWPOLYLINE
  5
136
330
1F
100
AcDbEntity
  8
0
  6
HIDDEN
 62
     7
370
    18
100
AcDbPolyline
 90
        3
 70
   128
 43
0.0
 10
55.6651942079
 20
127.3654939058
 10
56.4154160305
 20
127.8518936523
 10
57.0048765345
 20
128.2340651435
  0
SPLINE
  5
137
330
1F
100
AcDbEntity
  8
0
  6
HIDDEN
 62
     7
370
    18
100
AcDbSpline
210
0.0
220
0.0
230
1.0
 70
     8
 71
     3
 72
     9
 73
     5
 74
     0
 42
0.00000001
 43
0.00000001
 40
0.0
 40
0.0
 40
0.0
 40
0.0
 40
0.664980693265124
 40
1.0
 40
1.0
 40
1.0
 40
1.0
 10
55.63096013346683
 20
127.3806262130499
 30
0.0
 10
55.64456640795568
 20
127.3746067604933
 30
0.0
 10
55.66502756513911
 20
127.3655546893316
 30
0.0
 10
55.66515238939583
 20
127.365509159244
 30
0.0
 10
55.66519420793178
 20
127.3654939057856
 30
0.0
  0
SPLINE
  5
138
330
1F
100
AcDbEntity
  8
0
  6
HIDDEN
 62
     7
370
    18
100
AcDbSpline
210
0.0
220
0.0
230
1.0
 70
     8
 71
     3
 72
    14
 73
    10
 74
     0
 42
0.00000001
 43
0.00000001
 40
0.0
 40
0.0
 40
0.0
 40
0.0
 40
0.25
 40
0.25
 40
0.5
 40
0.5
 40
0.75
 40
0.75
 40
1.0
 40
1.0
 40
1.0
 40
1.0
 10
62.6341449393073
 20
163.6292684048554
 30
0.0
 10
62.85528348720688
 20
163.6292684048554
 30
0.0
 10
63.09386432097433
 20
163.5889652095958
 30
0.0
 10
63.55582816999435
 20
163.4060779344614
 30
0.0
 10
63.7777790552978
 20
163.2628740620414
 30
0.0
 10
64.14417339811179
 20
162.8964797192275
 30
0.0
 10
64.28737727053178
 20
162.674528833924
 30
0.0
 10
64.47026454566614
 20
162.212564984904
 30
0.0
 10
64.51056774092578
 20
161.9739841511365
 30
0.0
 10
64.51056774092578
 20
161.7528456032369
 30
0.0
  0
SPLINE
  5
139
330
1F
100
AcDbEntity
  8
0
  6
HIDDEN
 62
     7
370
    18
100
AcDbSpline
210
0.0
220
0.0
230
1.0
 70
     8
 71
     3
 72
    14
 73
    10
 74
     0
 42
0.00000001
 43
0.00000001
 40
0.0
 40
0.0
 40
0.0
 40
0.0
 40
0.25
 40
0.25
 40
0.5
 40
0.5
 40
0.75
 40
0.75
 40
1.0
 40
1.0
 40
1.0
 40
1.0
 10
60.75772213768883
 20
161.7528456032369
 30
0.0
 10
60.75772213768882
 20
161.9739841511365
 30
0.0
 10
60.79802533294847
 20
162.212564984904
 30
0.0
 10
60.98091260808282
 20
162.674528833924
 30
0.0
 10
61.12411648050281
 20
162.8964797192275
 30
0.0
 10
61.49051082331679
 20
163.2628740620414
 30
0.0
 10
61.71246170862025
 20
163.4060779344614
 30
0.0
 10
62.17442555764028
 20
163.5889652095958
 30
0.0
 10
62.41300639140773
 20
163.6292684048554
 30
0.0
 10
62.6341449393073
 20
163.6292684048554
 30
0.0
  0
LINE
  5
13A
330
1F
100
AcDbEntity
  8
0
  6
HIDDEN
 62
     7
370
    18
100
AcDbLine
 10
64.5105677409
 20
127.0390237733
 30
0.0
 11
60.7577221377
 21
127.0390237733
 31
0.0
  0
LINE
  5
13B
330
1F
100
AcDbEntity
  8
0
  6
HIDDEN
 62
     7
370
    18
100
AcDbLine
 10
64.5105677409
 20
161.7528456032
 30
0.0
 11
64.5105677409
 21
127.0390237733
 31
0.0
  0
LINE
  5
13C
330
1F
100
AcDbEntity
  8
0
  6
HIDDEN
 62
     7
370
    18
100
AcDbLine
 10
60.7577221377
 20
127.0390237733
 30
0.0
 11
60.7577221377
 21
161.7528456032
 31
0.0
  0
LINE
  5
13D
330
1F
100
AcDbEntity
  8
0
  6
HIDDEN
 62
     7
370
    18
100
AcDbLine
 10
57.0048765345
 20
161.7528456032
 30
0.0
 11
60.7577221377
 21
161.7528456032
 31
0.0
  0
LINE
  5
13E
330
1F
100
AcDbEntity
  8
0
  6
HIDDEN
 62
     7
370
    18
100
AcDbLine
 10
87.0276413603
 20
161.7528456032
 30
0.0
 11
90.7804869636
 21
161.7528456032
 31
0.0
  0
SPLINE
  5
13F
330
1F
100
AcDbEntity
  8
0
  6
HIDDEN
 62
     7
370
    18
100
AcDbSpline
210
0.0
220
0.0
230
1.0
 70
     8
 71
     3
 72
    14
 73
    10
 74
     0
 42
0.00000001
 43
0.00000001
 40
0.0
 40
0.0
 40
0.0
 40
0.0
 40
0.25
 40
0.25
 40
0.5
 40
0.5
 40
0.75
 40
0.75
 40
1.0
 40
1.0
 40
1.0
 40
1.0
 10
68.26341334416271
 20
161.7528456032369
 30
0.0
 10
68.26341334416271
 20
161.9739841511365
 30
0.0
 10
68.30371653942237
 20
162.212564984904
 30
0.0
 10
68.48660381455673
 20
162.674528833924
 30
0.0
 10
68.62980768697672
 20
162.8964797192274
 30
0.0
 10
68.99620202979071
 20
163.2628740620414
 30
0.0
 10
69.21815291509415
 20
163.4060779344614
 30
0.0
 10
69.68011676411417
 20
163.5889652095958
 30
0.0
 10
69.9186975978816
 20
163.6292684048554
 30
0.0
 10
70.13983614578119
 20
163.6292684048554
 30
0.0
  0
LINE
  5
140
330
1F
100
AcDbEntity
  8
0
  6
HIDDEN
 62
     7
370
    18
100
AcDbLine
 10
68.2634133442
 20
127.0390237733
 30
0.0
 11
68.2634133442
 21
161.7528456032
 31
0.0
  0
LINE
  5
141
330
1F
100
AcDbEntity
  8
0
  6
HIDDEN
 62
     7
370
    18
100
AcDbLine
 10
72.0162589474
 20
127.0390237733
 30
0.0
 11
68.2634133442
 21
127.0390237733
 31
0.0
  0
LINE
  5
142
330
1F
100
AcDbEntity
  8
0
  6
HIDDEN
 62
     7
370
    18
100
AcDbLine
 10
72.0162589474
 20
161.7528456032
 30
0.0
 11
72.0162589474
 21
127.0390237733
 31
0.0
  0
SPLINE
  5
143
330
1F
100
AcDbEntity
  8
0
  6
HIDDEN
 62
     7
370
    18
100
AcDbSpline
210
0.0
220
0.0
230
1.0
 70
     8
 71
     3
 72
    14
 73
    10
 74
     0
 42
0.00000001
 43
0.00000001
 40
0.0
 40
0.0
 40
0.0
 40
0.0
 40
0.25
 40
0.25
 40
0.5
 40
0.5
 40
0.75
 40
0.75
 40
1.0
 40
1.0
 40
1.0
 40
1.0
 10
70.13983614578119
 20
163.6292684048554
 30
0.0
 10
70.36097469368077
 20
163.6292684048554
 30
0.0
 10
70.5995555274482
 20
163.5889652095958
 30
0.0
 10
71.06151937646824
 20
163.4060779344614
 30
0.0
 10
71.28347026177167
 20
163.2628740620414
 30
0.0
 10
71.64986460458567
 20
162.8964797192274
 30
0.0
 10
71.79306847700566
 20
162.674528833924
 30
0.0
 10
71.97595575214001
 20
162.212564984904
 30
0.0
 10
72.01625894739966
 20
161.9739841511365
 30
0.0
 10
72.01625894739968
 20
161.7528456032369
 30
0.0
  0
LINE
  5
144
330
1F
100
AcDbEntity
  8
0
  6
HIDDEN
 62
     7
370
    18
100
AcDbLine
 10
38.2406485183
 20
161.7528456032
 30
0.0
 11
53.2520309312
 21
161.7528456032
 31
0.0
  0
ARC
  5
145
330
1F
100
AcDbEntity
  8
0
  6
HIDDEN
 62
     7
370
    18
100
AcDbCircle
 10
38.2406485183
 20
164.5674798057
 30
0.0
 40
2.814634202427726
100
AcDbArc
 50
250.5287793655
 51
270.0
  0
LINE
  5
146
330
1F
100
AcDbEntity
  8
0
  6
HIDDEN
 62
     7
370
    18
100
AcDbLine
 10
64.5105677409
 20
161.7528456032
 30
0.0
 11
68.2634133442
 21
161.7528456032
 31
0.0
  0
LINE
  5
147
330
1F
100
AcDbEntity
  8
0
  6
HIDDEN
 62
     7
370
    18
100
AcDbLine
 10
94.5333325668
 20
161.7528456032
 30
0.0
 11
98.2861781701
 21
161.7528456032
 31
0.0
  0
LINE
  5
148
330
1F
100
AcDbEntity
  8
0
  6
HIDDEN
 62
     7
370
    18
100
AcDbLine
 10
72.0162589474
 20
161.7528456032
 30
0.0
 11
83.2747957571
 21
161.7528456032
 31
0.0
  0
LINE
  5
149
330
1F
100
AcDbEntity
  8
0
  6
HIDDEN
 62
     7
370
    18
100
AcDbLine
 10
102.0390237733
 20
161.7528456032
 30
0.0
 11
116.1121947854
 21
161.7528456032
 31
0.0
  0
CIRCLE
  5
14A
330
1F
100
AcDbEntity
  8
0
  6
HIDDEN
 62
     7
370
    18
100
AcDbCircle
 10
77.6455273523
 20
139.2357719838
 30
0.0
 40
3.752845603236921
  0
LWPOLYLINE
  5
14B
330
1F
100
AcDbEntity
  8
0
  6
HIDDEN
 62
     7
370
    18
100
AcDbPolyline
 90
        3
 70
   128
 43
0.0
 10
83.2747957571
 20
130.3357154697
 10
83.8105166801
 20
130.0956056802
 10
84.231439945
 20
129.9069480805
  0
LINE
  5
14C
330
1F
100
AcDbEntity
  8
0
  6
HIDDEN
 62
     7
370
    18
100
AcDbLine
 10
63.5723563401
 20
126.1008123725
 30
0.0
 11
64.5105677409
 21
127.0390237733
 31
0.0
  0
LINE
  5
14D
330
1F
100
AcDbEntity
  8
0
  6
HIDDEN
 62
     7
370
    18
100
AcDbLine
 10
60.7577221377
 20
127.0390237733
 30
0.0
 11
61.6959335385
 21
126.1008123725
 31
0.0
  0
LINE
  5
14E
330
1F
100
AcDbEntity
  8
0
  6
HIDDEN
 62
     7
370
    18
100
AcDbLine
 10
71.0780475466
 20
126.1008123725
 30
0.0
 11
72.0162589474
 21
127.0390237733
 31
0.0
  0
LINE
  5
14F
330
1F
100
AcDbEntity
  8
0
  6
HIDDEN
 62
     7
370
    18
100
AcDbLine
 10
68.2634133442
 20
127.0390237733
 30
0.0
 11
69.201624745
 21
126.1008123725
 31
0.0
  0
LINE
  5
150
330
1F
100
AcDbEntity
  8
0
  6
HIDDEN
 62
     7
370
    18
100
AcDbLine
 10
37.3024371175
 20
166.4439026073
 30
0.0
 11
117.9886175871
 21
166.4439026073
 31
0.0
  0
ARC
  5
151
330
1F
100
AcDbEntity
  8
0
  6
HIDDEN
 62
     7
370
    18
100
AcDbCircle
 10
38.2406485183
 20
164.5674798057
 30
0.0
 40
0.9382114008092515
100
AcDbArc
 50
180.0
 51
270.0
  0
LINE
  5
152
330
1F
100
AcDbEntity
  8
0
  6
HIDDEN
 62
     7
370
    18
100
AcDbLine
 10
112.3593491822
 20
168.3203254089
 30
0.0
 11
110.4829263806
 21
166.4439026073
 31
0.0
  0
LINE
  5
153
330
1F
100
AcDbEntity
  8
0
  6
HIDDEN
 62
     7
370
    18
100
AcDbLine
 10
112.3593491822
 20
171.1349596113
 30
0.0
 11
112.3593491822
 21
168.3203254089
 31
0.0
  0
ARC
  5
154
330
1F
100
AcDbEntity
  8
0
  6
HIDDEN
 62
     7
370
    18
100
AcDbCircle
 10
113.297560583
 20
171.1349596113
 30
0.0
 40
0.9382114008092515
100
AcDbArc
 50
90.0
 51
180.0
  0
LINE
  5
155
330
1F
100
AcDbEntity
  8
0
  6
HIDDEN
 62
     7
370
    18
100
AcDbLine
 10
117.9886175871
 20
172.0731710121
 30
0.0
 11
113.297560583
 21
172.0731710121
 31
0.0
  0
LINE
  5
156
330
1F
100
AcDbEntity
  8
0
  6
HIDDEN
 62
     7
370
    18
100
AcDbLine
 10
83.2747957571
 20
130.3357154697
 30
0.0
 11
83.2747957571
 21
130.335125784
 31
0.0
  0
SPLINE
  5
157
330
1F
100
AcDbEntity
  8
0
  6
HIDDEN
 62
     7
370
    18
100
AcDbSpline
210
0.0
220
0.0
230
1.0
 70
     8
 71
     3
 72
    20
 73
    16
 74
     0
 42
0.00000001
 43
0.00000001
 40
0.0
 40
0.0
 40
0.0
 40
0.0
 40
0.1250000000000002
 40
0.1250000000000002
 40
0.2500000000000004
 40
0.2500000000000004
 40
0.4999999999999994
 40
0.4999999999999994
 40
0.6249999999999997
 40
0.6249999999999997
 40
0.7499999999999998
 40
0.7499999999999998
 40
0.8749999999999999
 40
0.8749999999999999
 40
1.0
 40
1.0
 40
1.0
 40
1.0
 10
84.14216366288447
 20
130.9035257965719
 30
0.0
 10
84.28141394213316
 20
131.000131697194
 30
0.0
 10
84.42642825748318
 20
131.1008320207767
 30
0.0
 10
84.72661391078954
 20
131.3091327078441
 30
0.0
 10
84.88307206033609
 20
131.4177367719916
 30
0.0
 10
85.34834144647566
 20
131.7406369919491
 30
0.0
 10
85.66414338844181
 20
131.9598049405946
 30
0.0
 10
86.09655781898044
 20
132.2599235867995
 30
0.0
 10
86.2369764858216
 20
132.3573693801667
 30
0.0
 10
86.49255667755232
 20
132.5347526737419
 30
0.0
 10
86.60894093694233
 20
132.6155221375633
 30
0.0
 10
86.80764532328001
 20
132.7534296096048
 30
0.0
 10
86.8876564558613
 20
132.8089538835487
 30
0.0
 10
86.99878734829686
 20
132.8860898925042
 30
0.0
 10
87.02764136079627
 20
132.9061719303346
 30
0.0
 10
87.02764136034743
 20
132.9061312021213
 30
0.0
  0
LWPOLYLINE
  5
158
330
1F
100
AcDbEntity
  8
0
  6
HIDDEN
 62
     7
370
    18
100
AcDbPolyline
 90
        3
 70
   128
 43
0.0
 10
87.0276413603
 20
132.9061105237
 10
86.9334611631
 20
132.678753358
 10
86.859470053
 20
132.5001208708
  0
LINE
  5
159
330
1F
100
AcDbEntity
  8
0
  6
HIDDEN
 62
     7
370
    18
100
AcDbLine
 10
57.0048765345
 20
128.2340651435
 30
0.0
 11
57.0048765345
 21
128.2332307235
 31
0.0
  0
LINE
  5
15A
330
1F
100
AcDbEntity
  8
0
  6
HIDDEN
 62
     7
370
    18
100
AcDbLine
 10
60.7577221377
 20
127.0785055028
 30
0.0
 11
64.5105677409
 21
127.0785055028
 31
0.0
  0
LWPOLYLINE
  5
15B
330
1F
100
AcDbEntity
  8
0
  6
HIDDEN
 62
     7
370
    18
100
AcDbPolyline
 90
        3
 70
   128
 43
0.0
 10
57.0048765345
 20
128.2332307235
 10
56.2552597532
 20
127.7470320344
 10
55.6662762585
 20
127.3650192561
  0
LWPOLYLINE
  5
15C
330
1F
100
AcDbEntity
  8
0
  6
HIDDEN
 62
     7
370
    18
100
AcDbPolyline
 90
        3
 70
   128
 43
0.0
 10
53.7051617322
 20
128.4043559492
 10
53.4514083401
 20
128.8537956098
 10
53.2520309312
 20
129.2069265072
  0
LINE
  5
15D
330
1F
100
AcDbEntity
  8
0
  6
HIDDEN
 62
     7
370
    18
100
AcDbLine
 10
61.7733633546
 20
126.1008123725
 30
0.0
 11
60.7577221377
 21
127.0785055028
 31
0.0
  0
LINE
  5
15E
330
1F
100
AcDbEntity
  8
0
  6
HIDDEN
 62
     7
370
    18
100
AcDbLine
 10
64.5105677409
 20
127.0785055028
 30
0.0
 11
63.494926524
 21
126.1008123725
 31
0.0
  0
LWPOLYLINE
  5
15F
330
1F
100
AcDbEntity
  8
0
  6
HIDDEN
 62
     7
370
    18
100
AcDbPolyline
 90
        3
 70
   128
 43
0.0
 10
84.2309822561
 20
129.9065400791
 10
83.695518004
 20
130.1465480107
 10
83.2747957571
 20
130.335125784
  0
LINE
  5
160
330
1F
100
AcDbEntity
  8
0
  6
HIDDEN
 62
     7
370
    18
100
AcDbLine
 10
98.3130843922
 20
146.2141442476
 30
0.0
 11
99.9060568784
 21
145.5467076962
 31
0.0
  0
SPLINE
  5
161
330
1F
100
AcDbEntity
  8
0
  6
HIDDEN
 62
     7
370
    18
100
AcDbSpline
210
0.0
220
0.0
230
1.0
 70
     8
 71
     3
 72
    14
 73
    10
 74
     0
 42
0.00000001
 43
0.00000001
 40
0.0
 40
0.0
 40
0.0
 40
0.0
 40
0.187838628304756
 40
0.2853068453753925
 40
0.3890910342489882
 40
0.5046106342843
 40
0.6390477851585865
 40
0.8009721309513582
 40
1.0
 40
1.0
 40
1.0
 40
1.0
 10
101.6959713947626
 20
147.336622212566
 30
0.0
 10
101.6990822059782
 20
147.3716034352237
 30
0.0
 10
101.7038071964792
 20
147.4247361820603
 30
0.0
 10
101.7303355806962
 20
147.5262954656833
 30
0.0
 10
101.7625566467192
 20
147.6158007033223
 30
0.0
 10
101.8090175927881
 20
147.7178282539959
 30
0.0
 10
101.8690981446974
 20
147.8292739030045
 30
0.0
 10
101.941068554622
 20
147.9485330868693
 30
0.0
 10
101.9842769570469
 20
148.0178499277963
 30
0.0
 10
102.008101928625
 20
148.0560710068524
 30
0.0
  0
LINE
  5
162
330
1F
100
AcDbEntity
  8
0
  6
HIDDEN
 62
     7
370
    18
100
AcDbLine
 10
90.8073931857
 20
138.7084530411
 30
0.0
 11
92.4003656719
 21
138.0410164897
 31
0.0
  0
SPLINE
  5
163
330
1F
100
AcDbEntity
  8
0
  6
HIDDEN
 62
     7
370
    18
100
AcDbSpline
210
0.0
220
0.0
230
1.0
 70
     8
 71
     3
 72
    14
 73
    10
 74
     0
 42
0.00000001
 43
0.00000001
 40
0.0
 40
0.0
 40
0.0
 40
0.0
 40
0.1878386283046277
 40
0.2853068453752787
 40
0.3890910342489048
 40
0.5046106342842483
 40
0.6390477851585624
 40
0.8009721309513484
 40
1.0
 40
1.0
 40
1.0
 40
1.0
 10
94.19028018828871
 20
139.8309310060922
 30
0.0
 10
94.19339099950426
 20
139.8659122287498
 30
0.0
 10
94.19811599000529
 20
139.9190449755864
 30
0.0
 10
94.22464437422234
 20
140.0206042592094
 30
0.0
 10
94.25686544024529
 20
140.1101094968484
 30
0.0
 10
94.30332638631418
 20
140.2121370475221
 30
0.0
 10
94.36340693822348
 20
140.3235826965307
 30
0.0
 10
94.4353773481481
 20
140.4428418803955
 30
0.0
 10
94.47858575057302
 20
140.5121587213225
 30
0.0
 10
94.50241072215107
 20
140.5503798003786
 30
0.0
  0
LINE
  5
164
330
1F
100
AcDbEntity
  8
0
  6
HIDDEN
 62
     7
370
    18
100
AcDbLine
 10
55.6437913258
 20
127.3749513869
 30
0.0
 11
56.9717321233
 21
128.248114456
 31
0.0
  0
LWPOLYLINE
  5
165
330
1F
100
AcDbEntity
  8
0
  6
HIDDEN
 62
     7
370
    18
100
AcDbPolyline
 90
        3
 70
   128
 43
0.0
 10
98.3090429034
 20
146.2121339439
 10
99.1065637215
 20
145.8784279514
 10
99.9040711465
 20
145.5447219643
  0
SPLINE
  5
166
330
1F
100
AcDbEntity
  8
0
  6
HIDDEN
 62
     7
370
    18
100
AcDbSpline
210
0.0
220
0.0
230
1.0
 70
     8
 71
     3
 72
    14
 73
    10
 74
     0
 42
0.00000001
 43
0.00000001
 40
0.0
 40
0.0
 40
0.0
 40
0.0
 40
0.1875738473100166
 40
0.2846587470088857
 40
0.3880355349726715
 40
0.5032676249879638
 40
0.6376845061262039
 40
0.8000040873674664
 40
0.9999999999999999
 40
0.9999999999999999
 40
0.9999999999999999
 40
0.9999999999999999
 10
101.6919510514262
 20
147.3326018692296
 30
0.0
 10
101.6939213181575
 20
147.3665462242668
 30
0.0
 10
101.6969113600373
 20
147.4180595760025
 30
0.0
 10
101.7219264760059
 20
147.5191228077395
 30
0.0
 10
101.7535430568932
 20
147.608753629932
 30
0.0
 10
101.8001233080967
 20
147.7114934820252
 30
0.0
 10
101.8611417350178
 20
147.8241377870258
 30
0.0
 10
101.93489131199
 20
147.9450103969774
 30
0.0
 10
101.9794694390552
 20
148.0152783759165
 30
0.0
 10
102.0040762895946
 20
148.0540658658649
 30
0.0
  0
LWPOLYLINE
  5
167
330
1F
100
AcDbEntity
  8
0
  6
HIDDEN
 62
     7
370
    18
100
AcDbPolyline
 90
        3
 70
   128
 43
0.0
 10
90.8033516969
 20
138.7064427374
 10
91.600872515
 20
138.3727367449
 10
92.3983799401
 20
138.0390307579
  0
SPLINE
  5
168
330
1F
100
AcDbEntity
  8
0
  6
HIDDEN
 62
     7
370
    18
100
AcDbSpline
210
0.0
220
0.0
230
1.0
 70
     8
 71
     3
 72
    14
 73
    10
 74
     0
 42
0.00000001
 43
0.00000001
 40
0.0
 40
0.0
 40
0.0
 40
0.0
 40
0.1875738473050851
 40
0.284658747004838
 40
0.3880355349695692
 40
0.5032676249857627
 40
0.6376845061248101
 40
0.8000040873667806
 40
1.0
 40
1.0
 40
1.0
 40
1.0
 10
94.1862598449523
 20
139.8269106627558
 30
0.0
 10
94.1882301116832
 20
139.8608550177915
 30
0.0
 10
94.1912201535624
 20
139.9123683695256
 30
0.0
 10
94.21623526953104
 20
140.0134316012621
 30
0.0
 10
94.24785185041846
 20
140.1030624234551
 30
0.0
 10
94.29443210162212
 20
140.205802275549
 30
0.0
 10
94.35545052854333
 20
140.3184465805504
 30
0.0
 10
94.42920010551576
 20
140.4393191905029
 30
0.0
 10
94.47377823258124
 20
140.5095871694425
 30
0.0
 10
94.49838508312077
 20
140.5483746593911
 30
0.0
  0
LINE
  5
169
330
1F
100
AcDbEntity
  8
0
  6
HIDDEN
 62
     7
370
    18
100
AcDbLine
 10
53.290384959
 20
129.1992017739
 30
0.0
 11
53.7265614483
 21
128.3909438734
 31
0.0
  0
INSERT
  5
175
330
1F
100
AcDbEntity
  8
10
100
AcDbBlockReference
  2
SW_CENTERMARKSYMBOL_0
 10
77.6455273523
 20
139.2357719838
 30
0.0
  0
LINE
  5
176
330
1F
100
AcDbEntity
  8
0
  6
Continuous
 62
     7
370
    25
100
AcDbLine
 10
212.1294700803
 20
67.3203254089
 30
0.0
 11
228.6292684049
 21
67.3203254089
 31
0.0
  0
LINE
  5
177
330
1F
100
AcDbEntity
  8
0
  6
Continuous
 62
     7
370
    25
100
AcDbLine
 10
228.6292684049
 20
46.6796745911
 30
0.0
 11
212.1307010825
 21
46.6796745911
 31
0.0
  0
SPLINE
  5
178
330
1F
100
AcDbEntity
  8
0
  6
Continuous
 62
     7
370
    25
100
AcDbSpline
210
0.0
220
0.0
230
1.0
 70
     8
 71
     3
 72
     9
 73
     5
 74
     0
 42
0.00000001
 43
0.00000001
 40
0.0
 40
0.0
 40
0.0
 40
0.0
 40
0.5713615970264992
 40
1.0
 40
1.0
 40
1.0
 40
1.0
 10
210.8031283681694
 20
68.53346238023029
 30
0.0
 10
210.9604116750543
 20
68.36905932226985
 30
0.0
 10
211.2356897261229
 20
68.08132024632206
 30
0.0
 10
211.5230347247698
 20
67.73682817826118
 30
0.0
 10
211.6462018260923
 20
67.58916564837052
 30
0.0
  0
SPLINE
  5
179
330
1F
100
AcDbEntity
  8
0
  6
Continuous
 62
     7
370
    25
100
AcDbSpline
210
0.0
220
0.0
230
1.0
 70
     8
 71
     3
 72
     9
 73
     5
 74
     0
 42
0.00000001
 43
0.00000001
 40
0.0
 40
0.0
 40
0.0
 40
0.0
 40
0.4286552848458126
 40
0.9999999999999999
 40
0.9999999999999999
 40
0.9999999999999999
 40
0.9999999999999999
 10
211.6464657325351
 20
46.41115652631373
 30
0.0
 10
211.5232918392436
 20
46.26348480475288
 30
0.0
 10
211.2359423123719
 20
45.91898486090181
 30
0.0
 10
210.9607716690354
 20
45.63131953562681
 30
0.0
 10
210.8035543761995
 20
45.46696347229783
 30
0.0
  0
LINE
  5
17A
330
1F
100
AcDbEntity
  8
0
  6
Continuous
 62
     7
370
    25
100
AcDbLine
 10
212.1307010825
 20
46.6796745911
 30
0.0
 11
204.625009876
 21
46.6796745911
 31
0.0
  0
LINE
  5
17B
330
1F
100
AcDbEntity
  8
0
  6
Continuous
 62
     7
370
    25
100
AcDbLine
 10
204.6237788738
 20
67.3203254089
 30
0.0
 11
212.1294700803
 21
67.3203254089
 31
0.0
  0
SPLINE
  5
17C
330
1F
100
AcDbEntity
  8
0
  6
Continuous
 62
     7
370
    25
100
AcDbSpline
210
0.0
220
0.0
230
1.0
 70
     8
 71
     3
 72
     9
 73
     5
 74
     0
 42
0.00000001
 43
0.00000001
 40
0.0
 40
0.0
 40
0.0
 40
0.0
 40
0.5713615970264098
 40
1.0
 40
1.0
 40
1.0
 40
1.0
 10
203.2974371616956
 20
68.53346238023032
 30
0.0
 10
203.4547204685805
 20
68.36905932226989
 30
0.0
 10
203.7299985196491
 20
68.0813202463221
 30
0.0
 10
204.0173435182962
 20
67.73682817826096
 30
0.0
 10
204.1405106196188
 20
67.58916564837017
 30
0.0
  0
SPLINE
  5
17D
330
1F
100
AcDbEntity
  8
0
  6
Continuous
 62
     7
370
    25
100
AcDbSpline
210
0.0
220
0.0
230
1.0
 70
     8
 71
     3
 72
     9
 73
     5
 74
     0
 42
0.00000001
 43
0.00000001
 40
0.0
 40
0.0
 40
0.0
 40
0.0
 40
0.4286552848492358
 40
1.0
 40
1.0
 40
1.0
 40
1.0
 10
204.1407745260608
 20
46.41115652631311
 30
0.0
 10
204.0176006327686
 20
46.26348480475143
 30
0.0
 10
203.7302511058975
 20
45.91898486090117
 30
0.0
 10
203.4550804625608
 20
45.63131953562589
 30
0.0
 10
203.2978631697257
 20
45.46696347229774
 30
0.0
  0
LINE
  5
17E
330
1F
100
AcDbEntity
  8
0
  6
Continuous
 62
     7
370
    25
100
AcDbLine
 10
204.625009876
 20
46.6796745911
 30
0.0
 11
196.6037623449
 21
46.6796745911
 31
0.0
  0
LINE
  5
17F
330
1F
100
AcDbEntity
  8
0
  6
Continuous
 62
     7
370
    25
100
AcDbLine
 10
196.6060404264
 20
67.3203254089
 30
0.0
 11
204.6237788738
 21
67.3203254089
 31
0.0
  0
SPLINE
  5
180
330
1F
100
AcDbEntity
  8
0
  6
Continuous
 62
     7
370
    25
100
AcDbSpline
210
0.0
220
0.0
230
1.0
 70
     8
 71
     3
 72
     9
 73
     5
 74
     0
 42
0.00000001
 43
0.00000001
 40
0.0
 40
0.0
 40
0.0
 40
0.0
 40
0.497731963196392
 40
1.0
 40
1.0
 40
1.0
 40
1.0
 10
195.7572646148631
 20
46.22592658462487
 30
0.0
 10
195.6765620565433
 20
46.13921225135272
 30
0.0
 10
195.5144214582149
 20
45.96499331488884
 30
0.0
 10
195.354020946206
 20
45.80492148467864
 30
0.0
 10
195.2734568959369
 20
45.72452252077139
 30
0.0
  0
SPLINE
  5
181
330
1F
100
AcDbEntity
  8
0
  6
Continuous
 62
     7
370
    25
100
AcDbSpline
210
0.0
220
0.0
230
1.0
 70
     8
 71
     3
 72
     9
 73
     5
 74
     0
 42
0.00000001
 43
0.00000001
 40
0.0
 40
0.0
 40
0.0
 40
0.0
 40
0.5022678279454339
 40
1.0
 40
1.0
 40
1.0
 40
1.0
 10
195.2737236786811
 20
68.27576567842978
 30
0.0
 10
195.3543146065431
 20
68.19534385378024
 30
0.0
 10
195.5147686977231
 20
68.03522644196336
 30
0.0
 10
195.676963142493
 20
67.86095418146913
 30
0.0
 10
195.7576925357834
 20
67.77421327072446
 30
0.0
  0
LINE
  5
182
330
1F
100
AcDbEntity
  8
0
  6
Continuous
 62
     7
370
    25
100
AcDbLine
 10
200.4829263806
 20
67.3203254089
 30
0.0
 11
200.4829263806
 21
46.6796745911
 31
0.0
  0
LINE
  5
183
330
1F
100
AcDbEntity
  8
0
  6
Continuous
 62
     7
370
    25
100
AcDbLine
 10
207.9886175871
 20
46.6796745911
 30
0.0
 11
207.9886175871
 21
67.3203254089
 31
0.0
  0
LINE
  5
184
330
1F
100
AcDbEntity
  8
0
  6
Continuous
 62
     7
370
    25
100
AcDbLine
 10
192.0390237733
 20
67.3203254089
 30
0.0
 11
196.6060404264
 21
67.3203254089
 31
0.0
  0
LINE
  5
185
330
1F
100
AcDbEntity
  8
0
  6
Continuous
 62
     7
370
    25
100
AcDbLine
 10
196.6037623449
 20
46.6796745911
 30
0.0
 11
192.0390237733
 21
46.6796745911
 31
0.0
  0
LINE
  5
186
330
1F
100
AcDbEntity
  8
0
  6
Continuous
 62
     7
370
    25
100
AcDbLine
 10
191.1008123725
 20
68.2585368097
 30
0.0
 11
192.0390237733
 21
67.3203254089
 31
0.0
  0
LINE
  5
187
330
1F
100
AcDbEntity
  8
0
  6
Continuous
 62
     7
370
    25
100
AcDbLine
 10
192.0390237733
 20
46.6796745911
 30
0.0
 11
191.1008123725
 21
45.7414631903
 31
0.0
  0
LINE
  5
188
330
1F
100
AcDbEntity
  8
0
  6
Continuous
 62
     7
370
    25
100
AcDbLine
 10
234.2585368097
 20
49.9634144939
 30
0.0
 11
234.2585368097
 21
64.0365855061
 31
0.0
  0
LINE
  5
189
330
1F
100
AcDbEntity
  8
0
  6
Continuous
 62
     7
370
    25
100
AcDbLine
 10
235.1967482105
 20
49.9634144939
 30
0.0
 11
234.2585368097
 21
49.9634144939
 31
0.0
  0
LINE
  5
18A
330
1F
100
AcDbEntity
  8
0
  6
Continuous
 62
     7
370
    25
100
AcDbLine
 10
234.2585368097
 20
64.0365855061
 30
0.0
 11
235.1967482105
 21
64.0365855061
 31
0.0
  0
LINE
  5
18B
330
1F
100
AcDbEntity
  8
0
  6
Continuous
 62
     7
370
    25
100
AcDbLine
 10
237.0731710121
 20
49.9634144939
 30
0.0
 11
237.0731710121
 21
64.0365855061
 31
0.0
  0
LINE
  5
18C
330
1F
100
AcDbEntity
  8
0
  6
Continuous
 62
     7
370
    25
100
AcDbLine
 10
235.1967482105
 20
49.9634144939
 30
0.0
 11
237.0731710121
 21
49.9634144939
 31
0.0
  0
LINE
  5
18D
330
1F
100
AcDbEntity
  8
0
  6
Continuous
 62
     7
370
    25
100
AcDbLine
 10
235.1967482105
 20
64.0365855061
 30
0.0
 11
237.0731710121
 21
64.0365855061
 31
0.0
  0
LINE
  5
18E
330
1F
100
AcDbEntity
  8
0
  6
Continuous
 62
     7
370
    25
100
AcDbLine
 10
232.3821140081
 20
49.9634144939
 30
0.0
 11
232.3821140081
 21
64.0365855061
 31
0.0
  0
LINE
  5
18F
330
1F
100
AcDbEntity
  8
0
  6
Continuous
 62
     7
370
    25
100
AcDbLine
 10
234.2585368097
 20
49.9634144939
 30
0.0
 11
232.3821140081
 21
49.9634144939
 31
0.0
  0
LINE
  5
190
330
1F
100
AcDbEntity
  8
0
  6
Continuous
 62
     7
370
    25
100
AcDbLine
 10
232.3821140081
 20
64.0365855061
 30
0.0
 11
234.2585368097
 21
64.0365855061
 31
0.0
  0
LINE
  5
191
330
1F
100
AcDbEntity
  8
0
  6
Continuous
 62
     7
370
    25
100
AcDbLine
 10
254.8991876275
 20
38.2357719838
 30
0.0
 11
254.8991876275
 21
42.9268289879
 31
0.0
  0
LINE
  5
192
330
1F
100
AcDbEntity
  8
0
  6
Continuous
 62
     7
370
    25
100
AcDbLine
 10
249.2699192227
 20
38.2357719838
 30
0.0
 11
254.8991876275
 21
38.2357719838
 31
0.0
  0
LINE
  5
193
330
1F
100
AcDbEntity
  8
0
  6
Continuous
 62
     7
370
    25
100
AcDbLine
 10
249.2699192227
 20
38.2357719838
 30
0.0
 11
249.2699192227
 21
42.9268289879
 31
0.0
  0
LINE
  5
194
330
1F
100
AcDbEntity
  8
0
  6
Continuous
 62
     7
370
    25
100
AcDbLine
 10
249.2699192227
 20
42.9268289879
 30
0.0
 11
254.8991876275
 21
42.9268289879
 31
0.0
  0
LINE
  5
195
330
1F
100
AcDbEntity
  8
0
  6
Continuous
 62
     7
370
    25
100
AcDbLine
 10
249.2699192227
 20
75.7642280162
 30
0.0
 11
249.2699192227
 21
71.0731710121
 31
0.0
  0
LINE
  5
196
330
1F
100
AcDbEntity
  8
0
  6
Continuous
 62
     7
370
    25
100
AcDbLine
 10
249.2699192227
 20
75.7642280162
 30
0.0
 11
254.8991876275
 21
75.7642280162
 31
0.0
  0
LINE
  5
197
330
1F
100
AcDbEntity
  8
0
  6
Continuous
 62
     7
370
    25
100
AcDbLine
 10
254.8991876275
 20
75.7642280162
 30
0.0
 11
254.8991876275
 21
71.0731710121
 31
0.0
  0
LINE
  5
198
330
1F
100
AcDbEntity
  8
0
  6
Continuous
 62
     7
370
    25
100
AcDbLine
 10
249.2699192227
 20
71.0731710121
 30
0.0
 11
254.8991876275
 21
71.0731710121
 31
0.0
  0
LINE
  5
199
330
1F
100
AcDbEntity
  8
0
  6
Continuous
 62
     7
370
    25
100
AcDbLine
 10
231.4439026073
 20
68.2585368097
 30
0.0
 11
234.2585368097
 21
71.0731710121
 31
0.0
  0
LINE
  5
19A
330
1F
100
AcDbEntity
  8
0
  6
Continuous
 62
     7
370
    25
100
AcDbLine
 10
231.4439026073
 20
64.0365855061
 30
0.0
 11
231.4439026073
 21
68.2585368097
 31
0.0
  0
LINE
  5
19B
330
1F
100
AcDbEntity
  8
0
  6
Continuous
 62
     7
370
    25
100
AcDbLine
 10
231.4439026073
 20
45.7414631903
 30
0.0
 11
231.4439026073
 21
49.9634144939
 31
0.0
  0
LINE
  5
19C
330
1F
100
AcDbEntity
  8
0
  6
Continuous
 62
     7
370
    25
100
AcDbLine
 10
234.2585368097
 20
42.9268289879
 30
0.0
 11
231.4439026073
 21
45.7414631903
 31
0.0
  0
LINE
  5
19D
330
1F
100
AcDbEntity
  8
0
  6
Continuous
 62
     7
370
    25
100
AcDbLine
 10
229.0178882914
 20
39.7235748988
 30
0.0
 11
230.5056912065
 21
38.2357719838
 31
0.0
  0
LINE
  5
19E
330
1F
100
AcDbEntity
  8
0
  6
Continuous
 62
     7
370
    25
100
AcDbLine
 10
230.5056912065
 20
75.7642280162
 30
0.0
 11
229.0178882914
 21
74.2764251012
 31
0.0
  0
LINE
  5
19F
330
1F
100
AcDbEntity
  8
0
  6
Continuous
 62
     7
370
    25
100
AcDbLine
 10
230.5056912065
 20
38.2357719838
 30
0.0
 11
249.2699192227
 21
38.2357719838
 31
0.0
  0
LINE
  5
1A0
330
1F
100
AcDbEntity
  8
0
  6
Continuous
 62
     7
370
    25
100
AcDbLine
 10
234.2585368097
 20
42.9268289879
 30
0.0
 11
249.2699192227
 21
42.9268289879
 31
0.0
  0
LINE
  5
1A1
330
1F
100
AcDbEntity
  8
0
  6
Continuous
 62
     7
370
    25
100
AcDbLine
 10
230.5056912065
 20
75.7642280162
 30
0.0
 11
249.2699192227
 21
75.7642280162
 31
0.0
  0
LINE
  5
1A2
330
1F
100
AcDbEntity
  8
0
  6
Continuous
 62
     7
370
    25
100
AcDbLine
 10
234.2585368097
 20
71.0731710121
 30
0.0
 11
249.2699192227
 21
71.0731710121
 31
0.0
  0
LINE
  5
1A3
330
1F
100
AcDbEntity
  8
0
  6
Continuous
 62
     7
370
    25
100
AcDbLine
 10
231.4439026073
 20
49.9634144939
 30
0.0
 11
232.3821140081
 21
49.9634144939
 31
0.0
  0
LINE
  5
1A4
330
1F
100
AcDbEntity
  8
0
  6
Continuous
 62
     7
370
    25
100
AcDbLine
 10
231.4439026073
 20
64.0365855061
 30
0.0
 11
232.3821140081
 21
64.0365855061
 31
0.0
  0
LINE
  5
1A5
330
1F
100
AcDbEntity
  8
0
  6
Continuous
 62
     7
370
    25
100
AcDbLine
 10
228.6292684049
 20
40.1121947854
 30
0.0
 11
228.3544726477
 21
40.1121947854
 31
0.0
  0
SPLINE
  5
1A6
330
1F
100
AcDbEntity
  8
0
  6
Continuous
 62
     7
370
    25
100
AcDbSpline
210
0.0
220
0.0
230
1.0
 70
    24
 71
     3
 72
     8
 73
     4
 74
     0
 42
0.00000001
 43
0.00000001
 40
0.0
 40
0.0
 40
0.0
 40
0.0
 40
1.0
 40
1.0
 40
1.0
 40
1.0
 10
228.6292684048554
 20
46.67967459109841
 30
0.0
 10
228.5278185792143
 20
46.57822476545729
 30
0.0
 10
228.4332876971204
 20
46.48369388336344
 30
0.0
 10
228.3544726477449
 20
46.4048788339879
 30
0.0
  0
LINE
  5
1A7
330
1F
100
AcDbEntity
  8
0
  6
Continuous
 62
     7
370
    25
100
AcDbLine
 10
228.6292684049
 20
46.6796745911
 30
0.0
 11
228.6292684049
 21
67.3203254089
 31
0.0
  0
SPLINE
  5
1A8
330
1F
100
AcDbEntity
  8
0
  6
Continuous
 62
     7
370
    25
100
AcDbSpline
210
0.0
220
0.0
230
1.0
 70
    24
 71
     3
 72
     8
 73
     4
 74
     0
 42
0.00000001
 43
0.00000001
 40
0.0
 40
0.0
 40
0.0
 40
0.0
 40
1.0
 40
1.0
 40
1.0
 40
1.0
 10
228.3544726477449
 20
67.59512116601208
 30
0.0
 10
228.4332876971204
 20
67.51630611663656
 30
0.0
 10
228.5278185792143
 20
67.42177523454271
 30
0.0
 10
228.6292684048554
 20
67.3203254089016
 30
0.0
  0
LINE
  5
1A9
330
1F
100
AcDbEntity
  8
0
  6
Continuous
 62
     7
370
    25
100
AcDbLine
 10
228.3544726477
 20
73.8878052146
 30
0.0
 11
228.6292684049
 21
73.8878052146
 31
0.0
  0
SPLINE
  5
1AA
330
1F
100
AcDbEntity
  8
0
  6
Continuous
 62
     7
370
    25
100
AcDbSpline
210
0.0
220
0.0
230
1.0
 70
    24
 71
     3
 72
     8
 73
     4
 74
     0
 42
0.00000001
 43
0.00000001
 40
0.0
 40
0.0
 40
0.0
 40
0.0
 40
1.0
 40
1.0
 40
1.0
 40
1.0
 10
228.6292684048554
 20
40.11219478543376
 30
0.0
 10
228.7499132593236
 20
39.99154993096555
 30
0.0
 10
228.8853377064678
 20
39.85612548382135
 30
0.0
 10
229.0178882914437
 20
39.72357489884552
 30
0.0
  0
SPLINE
  5
1AB
330
1F
100
AcDbEntity
  8
0
  6
Continuous
 62
     7
370
    25
100
AcDbSpline
210
0.0
220
0.0
230
1.0
 70
    24
 71
     3
 72
     8
 73
     4
 74
     0
 42
0.00000001
 43
0.00000001
 40
0.0
 40
0.0
 40
0.0
 40
0.0
 40
1.0
 40
1.0
 40
1.0
 40
1.0
 10
229.0178882914437
 20
74.27642510115449
 30
0.0
 10
228.8853377064678
 20
74.14387451617866
 30
0.0
 10
228.7499132593236
 20
74.00845006903445
 30
0.0
 10
228.6292684048554
 20
73.88780521456626
 30
0.0
  0
SPLINE
  5
1AC
330
1F
100
AcDbEntity
  8
0
  6
Continuous
 62
     7
370
    25
100
AcDbSpline
210
0.0
220
0.0
230
1.0
 70
     8
 71
     3
 72
    34
 73
    30
 74
     0
 42
0.00000001
 43
0.00000001
 40
-0.1069283921795592
 40
-0.1069283921795592
 40
-0.1069283921795592
 40
-0.1069283921795592
 40
0.066829520594541
 40
0.066829520594541
 40
0.207173035330211
 40
0.207173035330211
 40
0.347516550065881
 40
0.347516550065881
 40
0.487860064801555
 40
0.487860064801555
 40
0.6282035795372269
 40
0.6282035795372269
 40
0.7685470942728971
 40
0.7685470942728971
 40
0.9088906090085689
 40
0.9088906090085689
 40
1.04923412374424
 40
1.04923412374424
 40
1.189577638479912
 40
1.189577638479912
 40
1.329921153215583
 40
1.329921153215583
 40
1.470264667951254
 40
1.470264667951254
 40
1.610608182686926
 40
1.610608182686926
 40
1.750951697422598
 40
1.750951697422598
 40
2.03163872689394
 40
2.03163872689394
 40
2.03163872689394
 40
2.03163872689394
 10
197.5001208707855
 20
44.80325178742514
 30
0.0
 10
197.5001115819278
 20
44.8786779894161
 30
0.0
 10
197.4935592404616
 20
44.95410441732297
 30
0.0
 10
197.4699871555797
 20
45.08840278897529
 30
0.0
 10
197.4552368346071
 20
45.14766571336359
 30
0.0
 10
197.4175914601671
 20
45.26354878213173
 30
0.0
 10
197.394696474834
 20
45.32016671025569
 30
0.0
 10
197.3412111281589
 20
45.42964445928509
 30
0.0
 10
197.3106213458846
 20
45.48250309490884
 30
0.0
 10
197.2423477625475
 20
45.58342275432955
 30
0.0
 10
197.2046647006453
 20
45.63148268552273
 30
0.0
 10
197.1229454120251
 20
45.72185977169406
 30
0.0
 10
197.0789100700222
 20
45.76417594822415
 30
0.0
 10
196.9853520037736
 20
45.84223328660946
 30
0.0
 10
196.9358302923996
 20
45.87797360340508
 30
0.0
 10
196.8322731738368
 20
45.94217627492179
 30
0.0
 10
196.7782388877596
 20
45.97063793458278
 30
0.0
 10
196.6667190635077
 20
46.01972345824305
 30
0.0
 10
196.6092347326407
 20
46.04034679084472
 30
0.0
 10
196.491945127927
 20
46.07334994917483
 30
0.0
 10
196.4321411238456
 20
46.08572941761425
 30
0.0
 10
196.311388120829
 20
46.10200123668596
 30
0.0
 10
196.2504404291503
 20
46.1058934111615
 30
0.0
 10
196.128598514236
 20
46.10511392201182
 30
0.0
 10
196.0677056100441
 20
46.10044226682527
 30
0.0
 10
195.9471706819946
 20
46.0826267973247
 30
0.0
 10
195.8875306723764
 20
46.0694839072499
 30
0.0
 10
195.7122419298381
 20
46.01773002330443
 30
0.0
 10
195.6002610840837
 20
45.96674864650367
 30
0.0
 10
195.4975444862538
 20
45.9012046964754
 30
0.0
  0
LINE
  5
1AD
330
1F
100
AcDbEntity
  8
0
  6
Continuous
 62
     7
370
    25
100
AcDbLine
 10
203.0227671692
 20
44.8032517895
 30
0.0
 11
197.5001208708
 21
44.8032517885
 31
0.0
  0
SPLINE
  5
1AE
330
1F
100
AcDbEntity
  8
0
  6
Continuous
 62
     7
370
    25
100
AcDbSpline
210
0.0
220
0.0
230
1.0
 70
     8
 71
     3
 72
    38
 73
    34
 74
     0
 42
0.00000001
 43
0.00000001
 40
0.0000001841069773
 40
0.0000001841069773
 40
0.0000001841069773
 40
0.0000001841069773
 40
0.0589048620202891
 40
0.0589048620202891
 40
0.2748893569545943
 40
0.2748893569545943
 40
0.4908738518888991
 40
0.4908738518888991
 40
0.706858346823204
 40
0.706858346823204
 40
0.9228428417575093
 40
0.9228428417575093
 40
1.138827336691814
 40
1.138827336691814
 40
1.354811831626119
 40
1.354811831626119
 40
1.570796326560429
 40
1.570796326560429
 40
1.786780821494734
 40
1.786780821494734
 40
2.00276531642904
 40
2.00276531642904
 40
2.218749811363345
 40
2.218749811363345
 40
2.434734306297651
 40
2.434734306297651
 40
2.650718801231957
 40
2.650718801231957
 40
2.866703296166263
 40
2.866703296166263
 40
3.082687791100569
 40
3.082687791100569
 40
3.141592469248347
 40
3.141592469248347
 40
3.141592469248347
 40
3.141592469248347
 10
204.8991852841731
 20
44.80325178970115
 30
0.0
 10
204.8991861384292
 20
44.82167345716064
 30
0.0
 10
204.8986449112096
 20
44.84009516831044
 30
0.0
 10
204.8935838614612
 20
44.92591482086967
 30
0.0
 10
204.8822976699852
 20
44.9929094226463
 30
0.0
 10
204.8456277346432
 20
45.12293120572184
 30
0.0
 10
204.8202462114436
 20
45.18595051299365
 30
0.0
 10
204.7565634116216
 20
45.30509265155484
 30
0.0
 10
204.7182659912638
 20
45.36120826818873
 30
0.0
 10
204.6305295544844
 20
45.46393443712416
 30
0.0
 10
204.5810958505481
 20
45.51053876925165
 30
0.0
 10
204.4733827343957
 20
45.59207546464827
 30
0.0
 10
204.4151098439674
 20
45.62700289102492
 30
0.0
 10
204.2924252870772
 20
45.68356124643405
 30
0.0
 10
204.2280210486788
 20
45.7051887510679
 30
0.0
 10
204.0960659861377
 20
45.73414059944491
 30
0.0
 10
204.02852315123
 20
45.74146319028887
 30
0.0
 10
203.8934293021797
 20
45.74146319028887
 30
0.0
 10
203.825886467272
 20
45.73414059944491
 30
0.0
 10
203.6939314047308
 20
45.70518875106792
 30
0.0
 10
203.6295271663326
 20
45.68356124643405
 30
0.0
 10
203.5068426094423
 20
45.62700289102492
 30
0.0
 10
203.448569719014
 20
45.59207546464827
 30
0.0
 10
203.3408566028616
 20
45.51053876925165
 30
0.0
 10
203.2914228989252
 20
45.46393443712416
 30
0.0
 10
203.2036864621458
 20
45.36120826818873
 30
0.0
 10
203.1653890417881
 20
45.30509265155482
 30
0.0
 10
203.1017062419661
 20
45.18595051299365
 30
0.0
 10
203.0763247187664
 20
45.12293120572182
 30
0.0
 10
203.0396547834245
 20
44.9929094226463
 30
0.0
 10
203.0283685919484
 20
44.92591482086967
 30
0.0
 10
203.0233075421957
 20
44.84009516823724
 30
0.0
 10
203.0227663149761
 20
44.82167345701398
 30
0.0
 10
203.0227671692366
 20
44.80325178948117
 30
0.0
  0
LINE
  5
1AF
330
1F
100
AcDbEntity
  8
0
  6
Continuous
 62
     7
370
    25
100
AcDbLine
 10
210.5284583757
 20
44.8032517895
 30
0.0
 11
204.8991852842
 21
44.8032517896
 31
0.0
  0
SPLINE
  5
1B0
330
1F
100
AcDbEntity
  8
0
  6
Continuous
 62
     7
370
    25
100
AcDbSpline
210
0.0
220
0.0
230
1.0
 70
     8
 71
     3
 72
    38
 73
    34
 74
     0
 42
0.00000001
 43
0.00000001
 40
0.0000001841069222
 40
0.0000001841069222
 40
0.0000001841069222
 40
0.0000001841069222
 40
0.058904862020242
 40
0.058904862020242
 40
0.2748893569545575
 40
0.2748893569545575
 40
0.4908738518888721
 40
0.4908738518888721
 40
0.7068583468231823
 40
0.7068583468231823
 40
0.9228428417574973
 40
0.9228428417574973
 40
1.138827336691812
 40
1.138827336691812
 40
1.354811831626127
 40
1.354811831626127
 40
1.570796326560442
 40
1.570796326560442
 40
1.786780821494755
 40
1.786780821494755
 40
2.002765316429067
 40
2.002765316429067
 40
2.218749811363383
 40
2.218749811363383
 40
2.434734306297697
 40
2.434734306297697
 40
2.650718801232011
 40
2.650718801232011
 40
2.866703296166325
 40
2.866703296166325
 40
3.082687791100639
 40
3.082687791100639
 40
3.141592469248415
 40
3.141592469248415
 40
3.141592469248415
 40
3.141592469248415
 10
212.404876490647
 20
44.80325178970114
 30
0.0
 10
212.4048773449031
 20
44.82167345716064
 30
0.0
 10
212.4043361176835
 20
44.84009516831044
 30
0.0
 10
212.3992750679351
 20
44.92591482086968
 30
0.0
 10
212.3879888764591
 20
44.99290942264633
 30
0.0
 10
212.3513189411171
 20
45.12293120572188
 30
0.0
 10
212.3259374179174
 20
45.18595051299371
 30
0.0
 10
212.2622546180955
 20
45.30509265155492
 30
0.0
 10
212.2239571977378
 20
45.36120826818883
 30
0.0
 10
212.1362207609583
 20
45.46393443712429
 30
0.0
 10
212.086787057022
 20
45.51053876925177
 30
0.0
 10
211.9790739408695
 20
45.59207546464841
 30
0.0
 10
211.9208010504413
 20
45.62700289102506
 30
0.0
 10
211.798116493551
 20
45.68356124643419
 30
0.0
 10
211.7337122551527
 20
45.70518875106807
 30
0.0
 10
211.6017571926115
 20
45.73414059944508
 30
0.0
 10
211.5342143577038
 20
45.74146319028897
 30
0.0
 10
211.3991205086536
 20
45.74146319028897
 30
0.0
 10
211.3315776737459
 20
45.73414059944507
 30
0.0
 10
211.1996226112047
 20
45.70518875106807
 30
0.0
 10
211.1352183728064
 20
45.68356124643421
 30
0.0
 10
211.0125338159161
 20
45.62700289102506
 30
0.0
 10
210.9542609254879
 20
45.5920754646484
 30
0.0
 10
210.8465478093354
 20
45.51053876925177
 30
0.0
 10
210.7971141053991
 20
45.46393443712429
 30
0.0
 10
210.7093776686196
 20
45.36120826818883
 30
0.0
 10
210.6710802482619
 20
45.30509265155492
 30
0.0
 10
210.6073974484399
 20
45.18595051299371
 30
0.0
 10
210.5820159252403
 20
45.12293120572189
 30
0.0
 10
210.5453459898983
 20
44.99290942264633
 30
0.0
 10
210.5340597984223
 20
44.92591482086968
 30
0.0
 10
210.5289987486696
 20
44.84009516823724
 30
0.0
 10
210.52845752145
 20
44.82167345701399
 30
0.0
 10
210.5284583757104
 20
44.80325178948117
 30
0.0
  0
LINE
  5
1B1
330
1F
100
AcDbEntity
  8
0
  6
Continuous
 62
     7
370
    25
100
AcDbLine
 10
226.7528456032
 20
44.8032517895
 30
0.0
 11
212.4048764906
 21
44.8032517897
 31
0.0
  0
LINE
  5
1B2
330
1F
100
AcDbEntity
  8
0
  6
Continuous
 62
     7
370
    25
100
AcDbLine
 10
228.3544726477
 20
46.404878834
 30
0.0
 11
226.7528456032
 21
44.8032517895
 31
0.0
  0
LINE
  5
1B3
330
1F
100
AcDbEntity
  8
0
  6
Continuous
 62
     7
370
    25
100
AcDbLine
 10
195.4975444863
 20
40.1121947854
 30
0.0
 11
228.3544726477
 21
40.1121947854
 31
0.0
  0
LINE
  5
1B4
330
1F
100
AcDbEntity
  8
0
  6
Continuous
 62
     7
370
    25
100
AcDbLine
 10
210.5284583757
 20
69.1967482105
 30
0.0
 11
204.8991852842
 21
69.1967482103
 31
0.0
  0
SPLINE
  5
1B5
330
1F
100
AcDbEntity
  8
0
  6
Continuous
 62
     7
370
    25
100
AcDbSpline
210
0.0
220
0.0
230
1.0
 70
     8
 71
     3
 72
    38
 73
    34
 74
     0
 42
0.00000001
 43
0.00000001
 40
0.0000001843411165
 40
0.0000001843411165
 40
0.0000001843411165
 40
0.0000001843411165
 40
0.058904862488831
 40
0.058904862488831
 40
0.2748893574231412
 40
0.2748893574231412
 40
0.490873852357446
 40
0.490873852357446
 40
0.7068583472917508
 40
0.7068583472917508
 40
0.9228428422260561
 40
0.9228428422260561
 40
1.138827337160361
 40
1.138827337160361
 40
1.354811832094671
 40
1.354811832094671
 40
1.570796327028976
 40
1.570796327028976
 40
1.786780821963281
 40
1.786780821963281
 40
2.002765316897587
 40
2.002765316897587
 40
2.218749811831893
 40
2.218749811831893
 40
2.434734306766198
 40
2.434734306766198
 40
2.650718801700504
 40
2.650718801700504
 40
2.866703296634811
 40
2.866703296634811
 40
3.082687791569116
 40
3.082687791569116
 40
3.141592469482755
 40
3.141592469482755
 40
3.141592469482755
 40
3.141592469482755
 10
203.0227671692364
 20
69.19674821051878
 30
0.0
 10
203.022766314976
 20
69.17832654298599
 30
0.0
 10
203.0233075421956
 20
69.15990483176276
 30
0.0
 10
203.0283685919483
 20
69.07408517913036
 30
0.0
 10
203.0396547834244
 20
69.00709057735375
 30
0.0
 10
203.0763247187663
 20
68.87706879427826
 30
0.0
 10
203.101706241966
 20
68.81404948700647
 30
0.0
 10
203.1653890417879
 20
68.6949073484453
 30
0.0
 10
203.2036864621457
 20
68.6387917318114
 30
0.0
 10
203.2914228989251
 20
68.536065562876
 30
0.0
 10
203.3408566028615
 20
68.48946123074852
 30
0.0
 10
203.4485697190139
 20
68.40792453535194
 30
0.0
 10
203.5068426094421
 20
68.3729971089753
 30
0.0
 10
203.6295271663324
 20
68.31643875356616
 30
0.0
 10
203.6939314047307
 20
68.29481124893232
 30
0.0
 10
203.8258864672719
 20
68.26585940055531
 30
0.0
 10
203.8934293021796
 20
68.25853680971134
 30
0.0
 10
204.0285231512298
 20
68.25853680971134
 30
0.0
 10
204.0960659861375
 20
68.26585940055531
 30
0.0
 10
204.2280210486786
 20
68.29481124893232
 30
0.0
 10
204.292425287077
 20
68.31643875356616
 30
0.0
 10
204.4151098439673
 20
68.3729971089753
 30
0.0
 10
204.4733827343955
 20
68.40792453535191
 30
0.0
 10
204.5810958505479
 20
68.48946123074852
 30
0.0
 10
204.6305295544843
 20
68.536065562876
 30
0.0
 10
204.7182659912637
 20
68.6387917318114
 30
0.0
 10
204.7565634116214
 20
68.6949073484453
 30
0.0
 10
204.8202462114434
 20
68.81404948700647
 30
0.0
 10
204.8456277346431
 20
68.87706879427826
 30
0.0
 10
204.882297669985
 20
69.00709057735375
 30
0.0
 10
204.8935838614611
 20
69.07408517913036
 30
0.0
 10
204.8986449112095
 20
69.15990483168969
 30
0.0
 10
204.8991861384291
 20
69.17832654283957
 30
0.0
 10
204.899185284173
 20
69.19674821029916
 30
0.0
  0
LINE
  5
1B6
330
1F
100
AcDbEntity
  8
0
  6
Continuous
 62
     7
370
    25
100
AcDbLine
 10
203.0227671692
 20
69.1967482105
 30
0.0
 11
197.5000434561
 21
69.1967482105
 31
0.0
  0
SPLINE
  5
1B7
330
1F
100
AcDbEntity
  8
0
  6
Continuous
 62
     7
370
    25
100
AcDbSpline
210
0.0
220
0.0
230
1.0
 70
     8
 71
     3
 72
    34
 73
    30
 74
     0
 42
0.00000001
 43
0.00000001
 40
0.000000726602435
 40
0.000000726602435
 40
0.000000726602435
 40
0.000000726602435
 40
0.2807270987500897
 40
0.2807270987500897
 40
0.421090284823915
 40
0.421090284823915
 40
0.5614534708977447
 40
0.5614534708977447
 40
0.701816656971573
 40
0.701816656971573
 40
0.8421798430454007
 40
0.8421798430454007
 40
0.9825430291192289
 40
0.9825430291192289
 40
1.122906215193055
 40
1.122906215193055
 40
1.263269401266884
 40
1.263269401266884
 40
1.403632587340712
 40
1.403632587340712
 40
1.543995773414539
 40
1.543995773414539
 40
1.684358959488367
 40
1.684358959488367
 40
1.824722145562195
 40
1.824722145562195
 40
1.965085331636023
 40
1.965085331636023
 40
2.13886759731547
 40
2.13886759731547
 40
2.13886759731547
 40
2.13886759731547
 10
195.4975444862535
 20
68.09922806158808
 30
0.0
 10
195.6002349774817
 20
68.03365743462584
 30
0.0
 10
195.7121948148545
 20
67.98264777119238
 30
0.0
 10
195.8874590656428
 20
67.93085149459554
 30
0.0
 10
195.9470920745294
 20
67.91769447844658
 30
0.0
 10
196.0676151391604
 20
67.899851112806
 30
0.0
 10
196.128503179881
 20
67.89516568844498
 30
0.0
 10
196.250337266107
 20
67.89435931457574
 30
0.0
 10
196.3112819919144
 20
67.89823837380213
 30
0.0
 10
196.4320306843698
 20
67.9144848526738
 30
0.0
 10
196.4918333430757
 20
67.92685209633815
 30
0.0
 10
196.609121575546
 20
67.95983186786056
 30
0.0
 10
196.6666058788487
 20
67.98044403848272
 30
0.0
 10
196.7781266506317
 20
68.0295084070927
 30
0.0
 10
196.8321619111177
 20
68.05796007361437
 30
0.0
 10
196.9357216645698
 20
68.12214396779227
 30
0.0
 10
196.9852450357679
 20
68.1578755002025
 30
0.0
 10
197.0788068024829
 20
68.23591645494487
 30
0.0
 10
197.1228441845212
 20
68.27822503192158
 30
0.0
 10
197.2045676514772
 20
68.3685880207947
 30
0.0
 10
197.2422528511393
 20
68.4166414538477
 30
0.0
 10
197.310530558732
 20
68.51754908218743
 30
0.0
 10
197.3411223270435
 20
68.57040218438871
 30
0.0
 10
197.3946112870102
 20
68.67986964976166
 30
0.0
 10
197.4175078992343
 20
68.73648282709902
 30
0.0
 10
197.4551560105596
 20
68.85235695936977
 30
0.0
 10
197.4699074413446
 20
68.91161569696683
 30
0.0
 10
197.4934813157684
 20
69.04590505900404
 30
0.0
 10
197.5000341637792
 20
69.12132674777015
 30
0.0
 10
197.5000434560681
 20
69.19674821052007
 30
0.0
  0
LINE
  5
1B8
330
1F
100
AcDbEntity
  8
0
  6
Continuous
 62
     7
370
    25
100
AcDbLine
 10
226.7528456032
 20
69.1967482105
 30
0.0
 11
212.4048764906
 21
69.1967482103
 31
0.0
  0
SPLINE
  5
1B9
330
1F
100
AcDbEntity
  8
0
  6
Continuous
 62
     7
370
    25
100
AcDbSpline
210
0.0
220
0.0
230
1.0
 70
     8
 71
     3
 72
    38
 73
    34
 74
     0
 42
0.00000001
 43
0.00000001
 40
0.0000001843410706
 40
0.0000001843410706
 40
0.0000001843410706
 40
0.0000001843410706
 40
0.0589048624887873
 40
0.0589048624887873
 40
0.2748893574230975
 40
0.2748893574230975
 40
0.4908738523574121
 40
0.4908738523574121
 40
0.7068583472917271
 40
0.7068583472917271
 40
0.9228428422260422
 40
0.9228428422260422
 40
1.138827337160352
 40
1.138827337160352
 40
1.354811832094667
 40
1.354811832094667
 40
1.570796327028982
 40
1.570796327028982
 40
1.786780821963295
 40
1.786780821963295
 40
2.002765316897607
 40
2.002765316897607
 40
2.218749811831921
 40
2.218749811831921
 40
2.434734306766235
 40
2.434734306766235
 40
2.650718801700548
 40
2.650718801700548
 40
2.866703296634861
 40
2.866703296634861
 40
3.082687791569175
 40
3.082687791569175
 40
3.141592469482807
 40
3.141592469482807
 40
3.141592469482807
 40
3.141592469482807
 10
210.5284583757103
 20
69.19674821051878
 30
0.0
 10
210.5284575214499
 20
69.17832654298599
 30
0.0
 10
210.5289987486696
 20
69.15990483176274
 30
0.0
 10
210.5340597984222
 20
69.07408517913035
 30
0.0
 10
210.5453459898983
 20
69.00709057735371
 30
0.0
 10
210.5820159252402
 20
68.87706879427817
 30
0.0
 10
210.6073974484399
 20
68.81404948700637
 30
0.0
 10
210.6710802482619
 20
68.69490734844516
 30
0.0
 10
210.7093776686196
 20
68.63879173181125
 30
0.0
 10
210.797114105399
 20
68.53606556287583
 30
0.0
 10
210.8465478093354
 20
68.48946123074833
 30
0.0
 10
210.9542609254878
 20
68.40792453535171
 30
0.0
 10
211.012533815916
 20
68.37299710897507
 30
0.0
 10
211.1352183728063
 20
68.31643875356593
 30
0.0
 10
211.1996226112046
 20
68.29481124893208
 30
0.0
 10
211.3315776737458
 20
68.26585940055507
 30
0.0
 10
211.3991205086535
 20
68.25853680971117
 30
0.0
 10
211.5342143577037
 20
68.25853680971117
 30
0.0
 10
211.6017571926114
 20
68.26585940055509
 30
0.0
 10
211.7337122551527
 20
68.29481124893208
 30
0.0
 10
211.7981164935509
 20
68.31643875356595
 30
0.0
 10
211.9208010504412
 20
68.37299710897507
 30
0.0
 10
211.9790739408695
 20
68.40792453535171
 30
0.0
 10
212.0867870570219
 20
68.48946123074833
 30
0.0
 10
212.1362207609582
 20
68.53606556287583
 30
0.0
 10
212.2239571977377
 20
68.63879173181125
 30
0.0
 10
212.2622546180954
 20
68.69490734844516
 30
0.0
 10
212.3259374179173
 20
68.81404948700637
 30
0.0
 10
212.351318941117
 20
68.87706879427817
 30
0.0
 10
212.387988876459
 20
69.00709057735371
 30
0.0
 10
212.399275067935
 20
69.07408517913035
 30
0.0
 10
212.4043361176834
 20
69.15990483168967
 30
0.0
 10
212.404877344903
 20
69.17832654283956
 30
0.0
 10
212.4048764906469
 20
69.19674821029916
 30
0.0
  0
LINE
  5
1BA
330
1F
100
AcDbEntity
  8
0
  6
Continuous
 62
     7
370
    25
100
AcDbLine
 10
226.7528456032
 20
69.1967482105
 30
0.0
 11
228.3544726477
 21
67.595121166
 31
0.0
  0
LINE
  5
1BB
330
1F
100
AcDbEntity
  8
0
  6
Continuous
 62
     7
370
    25
100
AcDbLine
 10
195.4975444863
 20
73.8878052146
 30
0.0
 11
228.3544726477
 21
73.8878052146
 31
0.0
  0
SPLINE
  5
1BC
330
1F
100
AcDbEntity
  8
0
  6
Continuous
 62
     7
370
    25
100
AcDbSpline
210
0.0
220
0.0
230
1.0
 70
     8
 71
     3
 72
    14
 73
    10
 74
     0
 42
0.00000001
 43
0.00000001
 40
0.0
 40
0.0
 40
0.0
 40
0.0
 40
0.1396340465298143
 40
0.2738217707206123
 40
0.4164780747035419
 40
0.5734216368157361
 40
0.7461922384295298
 40
0.9299043254605595
 40
1.0
 40
1.0
 40
1.0
 40
1.0
 10
213.0682989633998
 20
69.19674821012188
 30
0.0
 10
213.0590535971878
 20
68.99817423174775
 30
0.0
 10
213.0409234734103
 20
68.60877150563088
 30
0.0
 10
212.9034319862907
 20
68.08739926885785
 30
0.0
 10
212.6997482495042
 20
67.66620561256279
 30
0.0
 10
212.4238070852565
 20
67.37508154267663
 30
0.0
 10
212.099456981646
 20
67.28958147170101
 30
0.0
 10
211.8198068558108
 20
67.36947545559394
 30
0.0
 10
211.6853671119117
 20
67.56962617062003
 30
0.0
 10
211.6482380482644
 20
67.62490304352767
 30
0.0
  0
SPLINE
  5
1BD
330
1F
100
AcDbEntity
  8
0
  6
Continuous
 62
     7
370
    25
100
AcDbSpline
210
0.0
220
0.0
230
1.0
 70
     8
 71
     3
 72
    14
 73
    10
 74
     0
 42
0.00000001
 43
0.00000001
 40
0.0
 40
0.0
 40
0.0
 40
0.0
 40
0.1079636407756203
 40
0.2808842800215726
 40
0.4647568998257479
 40
0.6477005216947436
 40
0.816478529053014
 40
0.9661256287661072
 40
1.0
 40
1.0
 40
1.0
 40
1.0
 10
211.6456343722764
 20
46.38514183834982
 30
0.0
 10
211.7060953795013
 20
46.45793528622085
 30
0.0
 10
211.863394136395
 20
46.64731881431098
 30
0.0
 10
212.1643382763181
 20
46.71444294907796
 30
0.0
 10
212.5042118359364
 20
46.5741421465282
 30
0.0
 10
212.8023539207661
 20
46.17589127981114
 30
0.0
 10
213.000611046241
 20
45.60258504640024
 30
0.0
 10
213.0646146147014
 20
45.11057049498127
 30
0.0
 10
213.0677248724001
 20
44.85113783866061
 30
0.0
 10
213.0682989633954
 20
44.80325178987813
 30
0.0
  0
SPLINE
  5
1BE
330
1F
100
AcDbEntity
  8
0
  6
Continuous
 62
     7
370
    25
100
AcDbSpline
210
0.0
220
0.0
230
1.0
 70
     8
 71
     3
 72
    14
 73
    10
 74
     0
 42
0.00000001
 43
0.00000001
 40
0.0
 40
0.0
 40
0.0
 40
0.0
 40
0.1079636407756877
 40
0.2808842800215868
 40
0.4647568998257157
 40
0.6477005216946652
 40
0.8164785290528737
 40
0.9661256287659439
 40
1.0
 40
1.0
 40
1.0
 40
1.0
 10
204.1399431658022
 20
46.38514183834926
 30
0.0
 10
204.2004041730271
 20
46.45793528622041
 30
0.0
 10
204.3577029299209
 20
46.64731881431076
 30
0.0
 10
204.6586470698441
 20
46.71444294907799
 30
0.0
 10
204.9985206294624
 20
46.57414214652852
 30
0.0
 10
205.2966627142917
 20
46.17589127981164
 30
0.0
 10
205.4949198397681
 20
45.60258504640096
 30
0.0
 10
205.5589234082252
 20
45.11057049498171
 30
0.0
 10
205.5620336659274
 20
44.85113783866085
 30
0.0
 10
205.5626077569234
 20
44.80325178987813
 30
0.0
  0
SPLINE
  5
1BF
330
1F
100
AcDbEntity
  8
0
  6
Continuous
 62
     7
370
    25
100
AcDbSpline
210
0.0
220
0.0
230
1.0
 70
     8
 71
     3
 72
    14
 73
    10
 74
     0
 42
0.00000001
 43
0.00000001
 40
0.0
 40
0.0
 40
0.0
 40
0.0
 40
0.1396340465294505
 40
0.2738217707202504
 40
0.4164780747031581
 40
0.5734216368153272
 40
0.7461922384291054
 40
0.9299043254601612
 40
1.0
 40
1.0
 40
1.0
 40
1.0
 10
205.562607756926
 20
69.19674821012188
 30
0.0
 10
205.553362390714
 20
68.99817423174831
 30
0.0
 10
205.5352322669367
 20
68.60877150563203
 30
0.0
 10
205.3977407798174
 20
68.08739926885927
 30
0.0
 10
205.1940570430311
 20
67.66620561256394
 30
0.0
 10
204.9181158787837
 20
67.37508154267725
 30
0.0
 10
204.5937657751733
 20
67.28958147170091
 30
0.0
 10
204.3141156493379
 20
67.36947545559342
 30
0.0
 10
204.1796759054385
 20
67.5696261706195
 30
0.0
 10
204.142546841791
 20
67.62490304352737
 30
0.0
  0
SPLINE
  5
1C0
330
1F
100
AcDbEntity
  8
0
  6
Continuous
 62
     7
370
    25
100
AcDbSpline
210
0.0
220
0.0
230
1.0
 70
     8
 71
     3
 72
    20
 73
    16
 74
     0
 42
0.00000001
 43
0.00000001
 40
0.0
 40
0.0
 40
0.0
 40
0.0
 40
0.1250000000000002
 40
0.1250000000000002
 40
0.2500000000000004
 40
0.2500000000000004
 40
0.4999999999999994
 40
0.4999999999999994
 40
0.6249999999999997
 40
0.6249999999999997
 40
0.7499999999999998
 40
0.7499999999999998
 40
0.8749999999999999
 40
0.8749999999999999
 40
1.0
 40
1.0
 40
1.0
 40
1.0
 10
195.903525796572
 20
46.3852665642548
 30
0.0
 10
196.000131697194
 20
46.47408443009527
 30
0.0
 10
196.1008320207767
 20
46.54121074489348
 30
0.0
 10
196.3091327078441
 20
46.63779075184359
 30
0.0
 10
196.4177367719916
 20
46.66690424242542
 30
0.0
 10
196.7406369919491
 20
46.69498829748139
 30
0.0
 10
196.9598049405946
 20
46.63614647413691
 30
0.0
 10
197.2599235867995
 20
46.43196425101126
 30
0.0
 10
197.3573693801667
 20
46.34278549558364
 30
0.0
 10
197.5347526737419
 20
46.1260693730739
 30
0.0
 10
197.6155221375633
 20
45.99811779628985
 30
0.0
 10
197.7534296096048
 20
45.70264585208702
 30
0.0
 10
197.8089538835487
 20
45.53867637350918
 30
0.0
 10
197.8860898925042
 20
45.18081695896277
 30
0.0
 10
197.9061719303346
 20
44.99549532874885
 30
0.0
 10
197.9061312021213
 20
44.80325178509906
 30
0.0
  0
LINE
  5
1C1
330
1F
100
AcDbEntity
  8
0
  6
Continuous
 62
     7
370
    25
100
AcDbLine
 10
195.7547779356
 20
46.2220684389
 30
0.0
 11
195.9035257966
 21
46.3852665643
 31
0.0
  0
LINE
  5
1C2
330
1F
100
AcDbEntity
  8
0
  6
Continuous
 62
     7
370
    25
100
AcDbLine
 10
195.9037126851
 20
67.6150359748
 30
0.0
 11
195.7664545731
 21
67.8021643336
 31
0.0
  0
SPLINE
  5
1C3
330
1F
100
AcDbEntity
  8
0
  6
Continuous
 62
     7
370
    25
100
AcDbSpline
210
0.0
220
0.0
230
1.0
 70
     8
 71
     3
 72
    20
 73
    16
 74
     0
 42
0.00000001
 43
0.00000001
 40
0.0
 40
0.0
 40
0.0
 40
0.0
 40
0.125
 40
0.125
 40
0.2499999999999999
 40
0.2499999999999999
 40
0.3749999999999999
 40
0.3749999999999999
 40
0.4999999999999999
 40
0.4999999999999999
 40
0.6249999999999999
 40
0.6249999999999999
 40
0.7499999999999998
 40
0.7499999999999998
 40
1.0
 40
1.0
 40
1.0
 40
1.0
 10
197.9062406920999
 20
69.19674821490595
 30
0.0
 10
197.9062812989402
 20
69.00517362495273
 30
0.0
 10
197.8857910035108
 20
68.81682780857801
 30
0.0
 10
197.8089491677956
 20
68.46114682864223
 30
0.0
 10
197.7529687142633
 20
68.29596728761636
 30
0.0
 10
197.6158404580414
 20
68.00230185111666
 30
0.0
 10
197.5347919133563
 20
67.87369116054606
 30
0.0
 10
197.3571787797581
 20
67.65677344707233
 30
0.0
 10
197.2613677639649
 20
67.56884173404194
 30
0.0
 10
197.0587506908695
 20
67.4309915982542
 30
0.0
 10
196.9546789828975
 20
67.38282705589718
 30
0.0
 10
196.7414822478618
 20
67.32424178347694
 30
0.0
 10
196.632266024276
 20
67.31438421673064
 30
0.0
 10
196.3106036096574
 20
67.34262214486347
 30
0.0
 10
196.0964351420072
 20
67.4376969316389
 30
0.0
 10
195.9037126851034
 20
67.61503597477756
 30
0.0
  0
SPLINE
  5
1C4
330
1F
100
AcDbEntity
  8
0
  6
Continuous
 62
     7
370
    25
100
AcDbSpline
210
0.0
220
0.0
230
1.0
 70
     8
 71
     3
 72
    14
 73
    10
 74
     0
 42
0.00000001
 43
0.00000001
 40
0.0
 40
0.0
 40
0.0
 40
0.0
 40
0.25
 40
0.25
 40
0.5
 40
0.5
 40
0.75
 40
0.75
 40
1.0
 40
1.0
 40
1.0
 40
1.0
 10
195.4975444862539
 20
45.90120469647545
 30
0.0
 10
195.4173243429076
 20
45.85199022091221
 30
0.0
 10
195.3420841777016
 20
45.7934703696983
 30
0.0
 10
195.2028385632246
 20
45.65348903843253
 30
0.0
 10
195.1384499997287
 20
45.57106025939147
 30
0.0
 10
195.0301858753149
 20
45.38494944786645
 30
0.0
 10
194.9849975185637
 20
45.27859017365595
 30
0.0
 10
194.9234826145544
 20
45.05118259638377
 30
0.0
 10
194.9065396466036
 20
44.92772488528154
 30
0.0
 10
194.9065400760906
 20
44.80325178947989
 30
0.0
  0
LINE
  5
1C5
330
1F
100
AcDbEntity
  8
0
  6
Continuous
 62
     7
370
    25
100
AcDbLine
 10
191.1008123725
 20
40.1121947854
 30
0.0
 11
191.1008123725
 21
44.8032517895
 31
0.0
  0
LINE
  5
1C6
330
1F
100
AcDbEntity
  8
0
  6
Continuous
 62
     7
370
    25
100
AcDbLine
 10
191.1008123725
 20
44.8032517895
 30
0.0
 11
194.9065400791
 21
44.8032517895
 31
0.0
  0
LINE
  5
1C7
330
1F
100
AcDbEntity
  8
0
  6
Continuous
 62
     7
370
    25
100
AcDbLine
 10
195.4975444863
 20
40.1121947854
 30
0.0
 11
191.1008123725
 21
40.1121947854
 31
0.0
  0
SPLINE
  5
1C8
330
1F
100
AcDbEntity
  8
0
  6
Continuous
 62
     7
370
    25
100
AcDbSpline
210
0.0
220
0.0
230
1.0
 70
     8
 71
     3
 72
    12
 73
     8
 74
     0
 42
0.00000001
 43
0.00000001
 40
0.0
 40
0.0
 40
0.0
 40
0.0
 40
0.2500000000000007
 40
0.2500000000000007
 40
0.5000000000000013
 40
0.5000000000000013
 40
1.0
 40
1.0
 40
1.0
 40
1.0
 10
194.9069480775273
 20
69.19674821051746
 30
0.0
 10
194.9069476280057
 20
69.07236125606829
 30
0.0
 10
194.923371119746
 20
68.95123960891789
 30
0.0
 10
194.9852127115692
 20
68.7217361260084
 30
0.0
 10
195.0299033221823
 20
68.61650281472606
 30
0.0
 10
195.1928465546734
 20
68.33591705971085
 30
0.0
 10
195.3371060438
 20
68.19771915774571
 30
0.0
 10
195.4975444862539
 20
68.09922806158762
 30
0.0
  0
LINE
  5
1C9
330
1F
100
AcDbEntity
  8
0
  6
Continuous
 62
     7
370
    25
100
AcDbLine
 10
191.1008123725
 20
69.1967482105
 30
0.0
 11
191.1008123725
 21
73.8878052146
 31
0.0
  0
LINE
  5
1CA
330
1F
100
AcDbEntity
  8
0
  6
Continuous
 62
     7
370
    25
100
AcDbLine
 10
194.9069480805
 20
69.1967482105
 30
0.0
 11
191.1008123725
 21
69.1967482105
 31
0.0
  0
LINE
  5
1CB
330
1F
100
AcDbEntity
  8
0
  6
Continuous
 62
     7
370
    25
100
AcDbLine
 10
191.1008123725
 20
73.8878052146
 30
0.0
 11
195.4975444863
 21
73.8878052146
 31
0.0
  0
LINE
  5
1CC
330
1F
100
AcDbEntity
  8
0
  6
Continuous
 62
     7
370
    25
100
AcDbLine
 10
192.0390237733
 20
69.1967482105
 30
0.0
 11
192.0390237733
 21
67.3203254089
 31
0.0
  0
LINE
  5
1CD
330
1F
100
AcDbEntity
  8
0
  6
Continuous
 62
     7
370
    25
100
AcDbLine
 10
192.0390237733
 20
46.6796745911
 30
0.0
 11
192.0390237733
 21
44.8032517895
 31
0.0
  0
LINE
  5
1CE
330
1F
100
AcDbEntity
  8
0
  6
Continuous
 62
     7
370
    25
100
AcDbLine
 10
191.1008123725
 20
68.2585368097
 30
0.0
 11
191.1008123725
 21
69.1967482105
 31
0.0
  0
LINE
  5
1CF
330
1F
100
AcDbEntity
  8
0
  6
Continuous
 62
     7
370
    25
100
AcDbLine
 10
191.1008123725
 20
44.8032517895
 30
0.0
 11
191.1008123725
 21
45.7414631903
 31
0.0
  0
LINE
  5
1D0
330
1F
100
AcDbEntity
  8
0
  6
HIDDEN
 62
     7
370
    18
100
AcDbLine
 10
233.3203254089
 20
49.9634144939
 30
0.0
 11
233.3203254089
 21
64.0365855061
 31
0.0
  0
LINE
  5
1D1
330
1F
100
AcDbEntity
  8
0
  6
HIDDEN
 62
     7
370
    18
100
AcDbLine
 10
231.4439026073
 20
64.0365855061
 30
0.0
 11
231.4439026073
 21
49.9634144939
 31
0.0
  0
LINE
  5
1D2
330
1F
100
AcDbEntity
  8
0
  6
HIDDEN
 62
     7
370
    18
100
AcDbLine
 10
212.4048764906
 20
69.1967482104
 30
0.0
 11
211.1918738184
 21
69.1967482104
 31
0.0
  0
SPLINE
  5
1D3
330
1F
100
AcDbEntity
  8
0
  6
HIDDEN
 62
     7
370
    18
100
AcDbSpline
210
0.0
220
0.0
230
1.0
 70
     8
 71
     3
 72
    11
 73
     7
 74
     0
 42
0.00000001
 43
0.00000001
 40
0.0
 40
0.0
 40
0.0
 40
0.0
 40
0.2425464689133937
 40
0.6054678932987024
 40
0.9271537396534976
 40
1.0
 40
1.0
 40
1.0
 40
1.0
 10
211.6482380482644
 20
67.62490304352767
 30
0.0
 10
211.5844600234918
 20
67.69940714728605
 30
0.0
 10
211.4252511656146
 20
67.88539147823424
 30
0.0
 10
211.2609353920312
 20
68.40295200658187
 30
0.0
 10
211.1954897853579
 20
68.88925266475033
 30
0.0
 10
211.1924374081673
 20
69.14882151515363
 30
0.0
 10
211.1918738183866
 20
69.19674821042925
 30
0.0
  0
SPLINE
  5
1D4
330
1F
100
AcDbEntity
  8
0
  6
HIDDEN
 62
     7
370
    18
100
AcDbSpline
210
0.0
220
0.0
230
1.0
 70
     8
 71
     3
 72
    11
 73
     7
 74
     0
 42
0.00000001
 43
0.00000001
 40
0.0
 40
0.0
 40
0.0
 40
0.0
 40
0.2999484937769029
 40
0.588068682037112
 40
0.8946154905903618
 40
1.0
 40
1.0
 40
1.0
 40
1.0
 10
211.1918738183885
 20
44.80325178957076
 30
0.0
 10
211.2009853251874
 20
45.00242321507572
 30
0.0
 10
211.2188490314763
 20
45.39291184937863
 30
0.0
 10
211.358292789587
 20
45.90562319018975
 30
0.0
 10
211.5052328691209
 20
46.24901629037798
 30
0.0
 10
211.6170326115192
 20
46.35741114979928
 30
0.0
 10
211.6456343722764
 20
46.38514183834982
 30
0.0
  0
LINE
  5
1D5
330
1F
100
AcDbEntity
  8
0
  6
HIDDEN
 62
     7
370
    18
100
AcDbLine
 10
212.4048764906
 20
44.8032517896
 30
0.0
 11
211.1918738184
 21
44.8032517896
 31
0.0
  0
LINE
  5
1D6
330
1F
100
AcDbEntity
  8
0
  6
HIDDEN
 62
     7
370
    18
100
AcDbLine
 10
211.1918738184
 20
69.1967482104
 30
0.0
 11
210.5284583757
 21
69.1967482105
 31
0.0
  0
LINE
  5
1D7
330
1F
100
AcDbEntity
  8
0
  6
HIDDEN
 62
     7
370
    18
100
AcDbLine
 10
212.9248780844
 20
69.1967482103
 30
0.0
 11
213.0682989634
 21
69.1967482101
 31
0.0
  0
LINE
  5
1D8
330
1F
100
AcDbEntity
  8
0
  6
HIDDEN
 62
     7
370
    18
100
AcDbLine
 10
210.5284583757
 20
44.8032517895
 30
0.0
 11
211.1918738184
 21
44.8032517896
 31
0.0
  0
LINE
  5
1D9
330
1F
100
AcDbEntity
  8
0
  6
HIDDEN
 62
     7
370
    18
100
AcDbLine
 10
213.0682989634
 20
44.8032517899
 30
0.0
 11
212.8766293606
 21
44.8032517897
 31
0.0
  0
SPLINE
  5
1DA
330
1F
100
AcDbEntity
  8
0
  6
HIDDEN
 62
     7
370
    18
100
AcDbSpline
210
0.0
220
0.0
230
1.0
 70
     8
 71
     3
 72
    11
 73
     7
 74
     0
 42
0.00000001
 43
0.00000001
 40
0.0
 40
0.0
 40
0.0
 40
0.0
 40
0.299948493776773
 40
0.5880686820371234
 40
0.8946154905905804
 40
1.0
 40
1.0
 40
1.0
 40
1.0
 10
203.6861826119147
 20
44.80325178957076
 30
0.0
 10
203.6952941187137
 20
45.00242321507551
 30
0.0
 10
203.7131578250025
 20
45.39291184937818
 30
0.0
 10
203.8526015831131
 20
45.90562319018923
 30
0.0
 10
203.9995416626468
 20
46.24901629037742
 30
0.0
 10
204.1113414050451
 20
46.35741114979877
 30
0.0
 10
204.1399431658022
 20
46.38514183834926
 30
0.0
  0
LINE
  5
1DB
330
1F
100
AcDbEntity
  8
0
  6
HIDDEN
 62
     7
370
    18
100
AcDbLine
 10
204.8991852842
 20
44.8032517896
 30
0.0
 11
203.6861826119
 21
44.8032517896
 31
0.0
  0
LINE
  5
1DC
330
1F
100
AcDbEntity
  8
0
  6
HIDDEN
 62
     7
370
    18
100
AcDbLine
 10
204.8991852842
 20
69.1967482104
 30
0.0
 11
203.6861826119
 21
69.1967482104
 31
0.0
  0
SPLINE
  5
1DD
330
1F
100
AcDbEntity
  8
0
  6
HIDDEN
 62
     7
370
    18
100
AcDbSpline
210
0.0
220
0.0
230
1.0
 70
     8
 71
     3
 72
    11
 73
     7
 74
     0
 42
0.00000001
 43
0.00000001
 40
0.0
 40
0.0
 40
0.0
 40
0.0
 40
0.2425464689124982
 40
0.6054678932977966
 40
0.9271537396525572
 40
1.0
 40
1.0
 40
1.0
 40
1.0
 10
204.142546841791
 20
67.62490304352737
 30
0.0
 10
204.0787688170186
 20
67.69940714728537
 30
0.0
 10
203.9195599591416
 20
67.88539147823299
 30
0.0
 10
203.7552441855561
 20
68.40295200657997
 30
0.0
 10
203.6897985788881
 20
68.88925266474911
 30
0.0
 10
203.6867462016917
 20
69.148821515153
 30
0.0
 10
203.6861826119099
 20
69.19674821042925
 30
0.0
  0
LINE
  5
1DE
330
1F
100
AcDbEntity
  8
0
  6
HIDDEN
 62
     7
370
    18
100
AcDbLine
 10
203.6861826119
 20
69.1967482104
 30
0.0
 11
203.0227671692
 21
69.1967482105
 31
0.0
  0
LINE
  5
1DF
330
1F
100
AcDbEntity
  8
0
  6
HIDDEN
 62
     7
370
    18
100
AcDbLine
 10
205.4099783004
 20
69.1967482103
 30
0.0
 11
205.5626077569
 21
69.1967482101
 31
0.0
  0
LINE
  5
1E0
330
1F
100
AcDbEntity
  8
0
  6
HIDDEN
 62
     7
370
    18
100
AcDbLine
 10
203.0227671692
 20
44.8032517895
 30
0.0
 11
203.6861826119
 21
44.8032517896
 31
0.0
  0
LINE
  5
1E1
330
1F
100
AcDbEntity
  8
0
  6
HIDDEN
 62
     7
370
    18
100
AcDbLine
 10
197.5001208708
 20
44.8032517895
 30
0.0
 11
195.335125784
 21
44.8032517895
 31
0.0
  0
SPLINE
  5
1E2
330
1F
100
AcDbEntity
  8
0
  6
HIDDEN
 62
     7
370
    18
100
AcDbSpline
210
0.0
220
0.0
230
1.0
 70
     8
 71
     3
 72
    11
 73
     7
 74
     0
 42
0.00000001
 43
0.00000001
 40
0.0
 40
0.0
 40
0.0
 40
0.0
 40
0.3209010825369077
 40
0.6447484754803597
 40
0.9920808019726985
 40
1.0
 40
1.0
 40
1.0
 40
1.0
 10
195.335125783977
 20
44.80325178948037
 30
0.0
 10
195.3443108181521
 20
44.9833756623574
 30
0.0
 10
195.3627652176661
 20
45.34527719137993
 30
0.0
 10
195.5141916665214
 20
45.83295800658227
 30
0.0
 10
195.6574718978099
 20
46.11581256759824
 30
0.0
 10
195.7526561076502
 20
46.21975145338874
 30
0.0
 10
195.7547779355799
 20
46.22206843885537
 30
0.0
  0
LINE
  5
1E3
330
1F
100
AcDbEntity
  8
0
  6
HIDDEN
 62
     7
370
    18
100
AcDbLine
 10
197.9061105237
 20
44.8032517895
 30
0.0
 11
197.5001208708
 21
44.8032517885
 31
0.0
  0
LINE
  5
1E4
330
1F
100
AcDbEntity
  8
0
  6
HIDDEN
 62
     7
370
    18
100
AcDbLine
 10
197.4991052447
 20
69.1967482105
 30
0.0
 11
195.3357154697
 21
69.1967482105
 31
0.0
  0
SPLINE
  5
1E5
330
1F
100
AcDbEntity
  8
0
  6
HIDDEN
 62
     7
370
    18
100
AcDbSpline
210
0.0
220
0.0
230
1.0
 70
     8
 71
     3
 72
    11
 73
     7
 74
     0
 42
0.00000001
 43
0.00000001
 40
0.0
 40
0.0
 40
0.0
 40
0.0
 40
0.2479814750989418
 40
0.6035433033612059
 40
0.9303657361390285
 40
1.0
 40
1.0
 40
1.0
 40
1.0
 10
195.7664545730881
 20
67.80216433364814
 30
0.0
 10
195.7016031257998
 20
67.8796865180083
 30
0.0
 10
195.5437661070931
 20
68.06836188262511
 30
0.0
 10
195.3969347254865
 20
68.52604258912285
 30
0.0
 10
195.3387612347835
 20
68.93699912495536
 30
0.0
 10
195.336170508787
 20
69.1579415442362
 30
0.0
 10
195.3357154696891
 20
69.1967482105196
 30
0.0
  0
LINE
  5
1E6
330
1F
100
AcDbEntity
  8
0
  6
HIDDEN
 62
     7
370
    18
100
AcDbLine
 10
194.9065400791
 20
44.8032517895
 30
0.0
 11
195.335125784
 21
44.8032517895
 31
0.0
  0
LINE
  5
1E7
330
1F
100
AcDbEntity
  8
0
  6
HIDDEN
 62
     7
370
    18
100
AcDbLine
 10
195.3357154697
 20
69.1967482105
 30
0.0
 11
194.9069480805
 21
69.1967482105
 31
0.0
  0
LINE
  5
1E8
330
1F
100
AcDbEntity
  8
0
  6
HIDDEN
 62
     7
370
    18
100
AcDbLine
 10
192.0785055028
 20
46.6796745911
 30
0.0
 11
192.0785055028
 21
44.8032517895
 31
0.0
  0
SPLINE
  5
1E9
330
1F
100
AcDbEntity
  8
0
  6
HIDDEN
 62
     7
370
    18
100
AcDbSpline
210
0.0
220
0.0
230
1.0
 70
     8
 71
     3
 72
    24
 73
    20
 74
     0
 42
0.00000001
 43
0.00000001
 40
0.0
 40
0.0
 40
0.0
 40
0.0
 40
0.0625000000000006
 40
0.0625000000000006
 40
0.1250000000000012
 40
0.1250000000000012
 40
0.2500000000000011
 40
0.2500000000000011
 40
0.3750000000000009
 40
0.3750000000000009
 40
0.5000000000000008
 40
0.5000000000000008
 40
0.6250000000000006
 40
0.6250000000000006
 40
0.7500000000000003
 40
0.7500000000000003
 40
0.8750000000000002
 40
0.8750000000000002
 40
1.0
 40
1.0
 40
1.0
 40
1.0
 10
193.4039421444093
 20
69.19674821051875
 30
0.0
 10
193.4039412303142
 20
69.1294245858894
 30
0.0
 10
193.3990240405217
 20
69.06394160218132
 30
0.0
 10
193.3803190338511
 20
68.93632587670714
 30
0.0
 10
193.3662497365188
 20
68.87373680713513
 30
0.0
 10
193.3142476916358
 20
68.70105961121382
 30
0.0
 10
193.2656089016958
 20
68.60145035599237
 30
0.0
 10
193.1562470863325
 20
68.44262974225546
 30
0.0
 10
193.0956759440705
 20
68.38280977206915
 30
0.0
 10
192.9707420191473
 20
68.30146522128457
 30
0.0
 10
192.9076503652892
 20
68.28052396105542
 30
0.0
 10
192.7828888075787
 20
68.2775637215124
 30
0.0
 10
192.722672209218
 20
68.29576399706812
 30
0.0
 10
192.6099306969087
 20
68.37341434236383
 30
0.0
 10
192.5575443618914
 20
68.43323266041496
 30
0.0
 10
192.4678287673172
 20
68.59479082052253
 30
0.0
 10
192.4310786146235
 20
68.69510796927881
 30
0.0
 10
192.3793425289383
 20
68.93095341318568
 30
0.0
 10
192.3654927104424
 20
69.06198742036797
 30
0.0
 10
192.3654938920303
 20
69.19674821052158
 30
0.0
  0
SPLINE
  5
1EA
330
1F
100
AcDbEntity
  8
0
  6
HIDDEN
 62
     7
370
    18
100
AcDbSpline
210
0.0
220
0.0
230
1.0
 70
     8
 71
     3
 72
    20
 73
    16
 74
     0
 42
0.00000001
 43
0.00000001
 40
0.0
 40
0.0
 40
0.0
 40
0.0
 40
0.1249999999999996
 40
0.1249999999999996
 40
0.2499999999999992
 40
0.2499999999999992
 40
0.3749999999999988
 40
0.3749999999999988
 40
0.4999999999999984
 40
0.4999999999999984
 40
0.7499999999999992
 40
0.7499999999999992
 40
0.8749999999999996
 40
0.8749999999999996
 40
1.0
 40
1.0
 40
1.0
 40
1.0
 10
192.3650192424394
 20
44.80325178944948
 30
0.0
 10
192.3650211697267
 20
44.93776536010443
 30
0.0
 10
192.3790012250737
 20
45.06959187534498
 30
0.0
 10
192.4301674087181
 20
45.30341802702395
 30
0.0
 10
192.4673563852201
 20
45.4056168044191
 30
0.0
 10
192.5572047326908
 20
45.56748893649485
 30
0.0
 10
192.6094329227996
 20
45.6272683157179
 30
0.0
 10
192.7231053707551
 20
45.70544991294158
 30
0.0
 10
192.7835026316771
 20
45.72342125218768
 30
0.0
 10
192.9706600748255
 20
45.71850040861593
 30
0.0
 10
193.1007638756802
 20
45.63834075952414
 30
0.0
 10
193.2651868755656
 20
45.4003820060882
 30
0.0
 10
193.3138267010406
 20
45.30138355034443
 30
0.0
 10
193.3839251185683
 20
45.06959263924696
 30
0.0
 10
193.4043561345694
 20
44.93800642669591
 30
0.0
 10
193.4043560069462
 20
44.80325178947955
 30
0.0
  0
SPLINE
  5
1EB
330
1F
100
AcDbEntity
  8
0
  6
HIDDEN
 62
     7
370
    18
100
AcDbSpline
210
0.0
220
0.0
230
1.0
 70
     8
 71
     3
 72
    34
 73
    30
 74
     0
 42
0.00000001
 43
0.00000001
 40
0.0
 40
0.0
 40
0.0
 40
0.0
 40
0.0625000000000005
 40
0.0625000000000005
 40
0.1250000000000011
 40
0.1250000000000011
 40
0.1875000000000016
 40
0.1875000000000016
 40
0.2500000000000022
 40
0.2500000000000022
 40
0.3750000000000036
 40
0.3750000000000036
 40
0.4375000000000031
 40
0.4375000000000031
 40
0.5000000000000026
 40
0.5000000000000026
 40
0.5625000000000022
 40
0.5625000000000022
 40
0.6250000000000018
 40
0.6250000000000018
 40
0.6875000000000013
 40
0.6875000000000013
 40
0.7500000000000008
 40
0.7500000000000008
 40
0.8750000000000004
 40
0.8750000000000004
 40
0.9375000000000002
 40
0.9375000000000002
 40
1.0
 40
1.0
 40
1.0
 40
1.0
 10
193.2340653557131
 20
69.1967482105133
 30
0.0
 10
193.234063347588
 20
69.07067119134533
 30
0.0
 10
193.2367638961142
 20
68.94679089271911
 30
0.0
 10
193.2473544388868
 20
68.70323509069257
 30
0.0
 10
193.2554129553671
 20
68.58224681803819
 30
0.0
 10
193.2764891523711
 20
68.3528920020056
 30
0.0
 10
193.2894305434329
 20
68.2443031545081
 30
0.0
 10
193.3203745069268
 20
68.03919901856348
 30
0.0
 10
193.3384011228702
 20
67.94301604797256
 30
0.0
 10
193.3981551603542
 20
67.68512639211795
 30
0.0
 10
193.4470766816247
 20
67.54793603089936
 30
0.0
 10
193.5285844930276
 20
67.41152821849816
 30
0.0
 10
193.5575680960559
 20
67.37668308744767
 30
0.0
 10
193.6171190971623
 20
67.33099733151995
 30
0.0
 10
193.6475946049447
 20
67.31989766469223
 30
0.0
 10
193.7099905395496
 20
67.32077811621154
 30
0.0
 10
193.742117747195
 20
67.33311982499391
 30
0.0
 10
193.8052832697952
 20
67.38031470361642
 30
0.0
 10
193.8366109541584
 20
67.41502893943455
 30
0.0
 10
193.8985485694525
 20
67.50716777062426
 30
0.0
 10
193.9289896459537
 20
67.56456943184986
 30
0.0
 10
193.986386100692
 20
67.69778351938345
 30
0.0
 10
194.0136658924591
 20
67.77402285323252
 30
0.0
 10
194.0905297769721
 20
68.03341145339994
 30
0.0
 10
194.13258699352
 20
68.23866237300595
 30
0.0
 10
194.1765933586472
 20
68.58287848252321
 30
0.0
 10
194.1877468426536
 20
68.70111660856843
 30
0.0
 10
194.2029415905771
 20
68.94455134289417
 30
0.0
 10
194.2069035432659
 20
69.07063229479722
 30
0.0
 10
194.2068998424534
 20
69.19674821051646
 30
0.0
  0
SPLINE
  5
1EC
330
1F
100
AcDbEntity
  8
0
  6
HIDDEN
 62
     7
370
    18
100
AcDbSpline
210
0.0
220
0.0
230
1.0
 70
     8
 71
     3
 72
    36
 73
    32
 74
     0
 42
0.00000001
 43
0.00000001
 40
0.0
 40
0.0
 40
0.0
 40
0.0
 40
0.0624999999999997
 40
0.0624999999999997
 40
0.1249999999999993
 40
0.1249999999999993
 40
0.1874999999999989
 40
0.1874999999999989
 40
0.2499999999999986
 40
0.2499999999999986
 40
0.3749999999999979
 40
0.3749999999999979
 40
0.4374999999999981
 40
0.4374999999999981
 40
0.4999999999999983
 40
0.4999999999999983
 40
0.5624999999999986
 40
0.5624999999999986
 40
0.6249999999999988
 40
0.6249999999999988
 40
0.687499999999999
 40
0.687499999999999
 40
0.7499999999999991
 40
0.7499999999999991
 40
0.8124999999999993
 40
0.8124999999999993
 40
0.8749999999999996
 40
0.8749999999999996
 40
0.9374999999999998
 40
0.9374999999999998
 40
1.0
 40
1.0
 40
1.0
 40
1.0
 10
194.2069261345275
 20
44.80325178947894
 30
0.0
 10
194.2069259653412
 20
44.92934800271514
 30
0.0
 10
194.2030461970106
 20
45.05318558008896
 30
0.0
 10
194.1879635270499
 20
45.29655416035211
 30
0.0
 10
194.1765439814531
 20
45.41737966483344
 30
0.0
 10
194.1473167867285
 20
45.64592290891864
 30
0.0
 10
194.1295516820092
 20
45.75407550656797
 30
0.0
 10
194.0881670489528
 20
45.95836120844953
 30
0.0
 10
194.0645705925418
 20
46.05376783406579
 30
0.0
 10
193.9885046385431
 20
46.3102807365463
 30
0.0
 10
193.9290453861341
 20
46.44706665969486
 30
0.0
 10
193.8365682406476
 20
46.58453879147743
 30
0.0
 10
193.804622451836
 20
46.62000095957666
 30
0.0
 10
193.7411900807984
 20
46.66715916551477
 30
0.0
 10
193.7097229621398
 20
46.67917121690184
 30
0.0
 10
193.6472865791807
 20
46.68014726236341
 30
0.0
 10
193.6161425906576
 20
46.66874535160112
 30
0.0
 10
193.5568275602526
 20
46.62311460803002
 30
0.0
 10
193.5283486504152
 20
46.58904210726234
 30
0.0
 10
193.4736737524085
 20
46.49772291224158
 30
0.0
 10
193.447629005526
 20
46.44042005349099
 30
0.0
 10
193.3998964630592
 20
46.30702254796437
 30
0.0
 10
193.3778908379322
 20
46.23048567800839
 30
0.0
 10
193.3375420649739
 20
46.05660830662168
 30
0.0
 10
193.3197709310477
 20
45.96171675004084
 30
0.0
 10
193.2889680017519
 20
45.75805082222229
 30
0.0
 10
193.2757406962361
 20
45.64779227733515
 30
0.0
 10
193.2546171933674
 20
45.41790270758926
 30
0.0
 10
193.2466931216721
 20
45.29943076446907
 30
0.0
 10
193.2359892820369
 20
45.05548693215357
 30
0.0
 10
193.2332346245192
 20
44.92932882040758
 30
0.0
 10
193.2332312656415
 20
44.80325178945104
 30
0.0
  0
SPLINE
  5
1ED
330
1F
100
AcDbEntity
  8
0
  6
HIDDEN
 62
     7
370
    18
100
AcDbSpline
210
0.0
220
0.0
230
1.0
 70
     8
 71
     3
 72
    14
 73
    10
 74
     0
 42
0.00000001
 43
0.00000001
 40
0.0
 40
0.0
 40
0.0
 40
0.0
 40
0.5
 40
0.5
 40
0.75
 40
0.75
 40
0.875
 40
0.875
 40
1.0
 40
1.0
 40
1.0
 40
1.0
 10
226.9138172308697
 20
44.80325178947994
 30
0.0
 10
227.3146297512108
 20
45.18114145763687
 30
0.0
 10
227.7177833264186
 20
45.55689499506238
 30
0.0
 10
228.3518732720158
 20
46.08672420259816
 30
0.0
 10
228.5677055823168
 20
46.25873411547425
 30
0.0
 10
228.9169501406273
 20
46.47977103684585
 30
0.0
 10
229.0369740830302
 20
46.54656731681937
 30
0.0
 10
229.2939945524859
 20
46.6477924059319
 30
0.0
 10
229.4283008908876
 20
46.67967459109844
 30
0.0
 10
229.5674798056646
 20
46.67967459109844
 30
0.0
  0
LINE
  5
1EE
330
1F
100
AcDbEntity
  8
0
  6
HIDDEN
 62
     7
370
    18
100
AcDbLine
 10
229.5674798057
 20
46.6796745911
 30
0.0
 11
228.6292684049
 21
46.6796745911
 31
0.0
  0
LINE
  5
1EF
330
1F
100
AcDbEntity
  8
0
  6
HIDDEN
 62
     7
370
    18
100
AcDbLine
 10
226.7528456032
 20
44.8032517895
 30
0.0
 11
226.9138172309
 21
44.8032517895
 31
0.0
  0
LINE
  5
1F0
330
1F
100
AcDbEntity
  8
0
  6
HIDDEN
 62
     7
370
    18
100
AcDbLine
 10
228.6292684049
 20
67.3203254089
 30
0.0
 11
229.5674798057
 21
67.3203254089
 31
0.0
  0
SPLINE
  5
1F1
330
1F
100
AcDbEntity
  8
0
  6
HIDDEN
 62
     7
370
    18
100
AcDbSpline
210
0.0
220
0.0
230
1.0
 70
     8
 71
     3
 72
    14
 73
    10
 74
     0
 42
0.00000001
 43
0.00000001
 40
0.0
 40
0.0
 40
0.0
 40
0.0
 40
0.1249999999999997
 40
0.1249999999999997
 40
0.2499999999999994
 40
0.2499999999999994
 40
0.4999999999999991
 40
0.4999999999999991
 40
1.0
 40
1.0
 40
1.0
 40
1.0
 10
229.5674798056646
 20
67.3203254089016
 30
0.0
 10
229.4275298234476
 20
67.3203254089016
 30
0.0
 10
229.2914444410883
 20
67.35293057881324
 30
0.0
 10
229.0341756204044
 20
67.45482209769807
 30
0.0
 10
228.9144761048468
 20
67.52167989902182
 30
0.0
 10
228.5665830960227
 20
67.74220910458342
 30
0.0
 10
228.3498004417511
 20
67.9149439383454
 30
0.0
 10
227.7167639581678
 20
68.44408527303905
 30
0.0
 10
227.3142468062881
 20
68.81921958629871
 30
0.0
 10
226.9138172308697
 20
69.19674821052007
 30
0.0
  0
LINE
  5
1F2
330
1F
100
AcDbEntity
  8
0
  6
HIDDEN
 62
     7
370
    18
100
AcDbLine
 10
226.9138172309
 20
69.1967482105
 30
0.0
 11
226.7528456032
 21
69.1967482105
 31
0.0
  0
ARC
  5
1F3
330
1F
100
AcDbEntity
  8
0
  6
HIDDEN
 62
     7
370
    18
100
AcDbCircle
 10
208.9268289879
 20
45.7414631903
 30
0.0
 40
0.9382114008092302
100
AcDbArc
 50
180.0
 51
270.0
  0
ARC
  5
1F4
330
1F
100
AcDbEntity
  8
0
  6
HIDDEN
 62
     7
370
    18
100
AcDbCircle
 10
199.5447149798
 20
45.7414631903
 30
0.0
 40
0.9382114008092515
100
AcDbArc
 50
270.0
 51
0.0
  0
ARC
  5
1F5
330
1F
100
AcDbEntity
  8
0
  6
HIDDEN
 62
     7
370
    18
100
AcDbCircle
 10
199.5447149798
 20
68.2585368097
 30
0.0
 40
0.9382114008092515
100
AcDbArc
 50
0.0
 51
90.0
  0
ARC
  5
1F6
330
1F
100
AcDbEntity
  8
0
  6
HIDDEN
 62
     7
370
    18
100
AcDbCircle
 10
208.9268289879
 20
68.2585368097
 30
0.0
 40
0.9382114008092373
100
AcDbArc
 50
90.0
 51
180.0
  0
LINE
  5
1F7
330
1F
100
AcDbEntity
  8
0
  6
HIDDEN
 62
     7
370
    18
100
AcDbLine
 10
200.4829263806
 20
68.2585368097
 30
0.0
 11
200.4829263806
 21
67.3203254089
 31
0.0
  0
LINE
  5
1F8
330
1F
100
AcDbEntity
  8
0
  6
HIDDEN
 62
     7
370
    18
100
AcDbLine
 10
200.4829263806
 20
46.6796745911
 30
0.0
 11
200.4829263806
 21
45.7414631903
 31
0.0
  0
LINE
  5
1F9
330
1F
100
AcDbEntity
  8
0
  6
HIDDEN
 62
     7
370
    18
100
AcDbLine
 10
207.9886175871
 20
45.7414631903
 30
0.0
 11
207.9886175871
 21
46.6796745911
 31
0.0
  0
LINE
  5
1FA
330
1F
100
AcDbEntity
  8
0
  6
HIDDEN
 62
     7
370
    18
100
AcDbLine
 10
207.9886175871
 20
67.3203254089
 30
0.0
 11
207.9886175871
 21
68.2585368097
 31
0.0
  0
LINE
  5
1FB
330
1F
100
AcDbEntity
  8
0
  6
HIDDEN
 62
     7
370
    18
100
AcDbLine
 10
192.0785055028
 20
46.6796745911
 30
0.0
 11
191.1008123725
 21
45.6640333742
 31
0.0
  0
SPLINE
  5
1FC
330
1F
100
AcDbEntity
  8
0
  6
HIDDEN
 62
     7
370
    18
100
AcDbSpline
210
0.0
220
0.0
230
1.0
 70
     8
 71
     3
 72
     9
 73
     5
 74
     0
 42
0.00000001
 43
0.00000001
 40
0.0
 40
0.0
 40
0.0
 40
0.0
 40
0.5057789602258114
 40
1.0
 40
1.0
 40
1.0
 40
1.0
 10
192.6040479763825
 20
68.38769953892157
 30
0.0
 10
192.7625278410571
 20
68.22613693706819
 30
0.0
 10
193.0758660325151
 20
67.90670371710733
 30
0.0
 10
193.3996422353431
 20
67.55324867836421
 30
0.0
 10
193.5596592469588
 20
67.37856376160317
 30
0.0
  0
SPLINE
  5
1FD
330
1F
100
AcDbEntity
  8
0
  6
HIDDEN
 62
     7
370
    18
100
AcDbSpline
210
0.0
220
0.0
230
1.0
 70
     8
 71
     3
 72
     9
 73
     5
 74
     0
 42
0.00000001
 43
0.00000001
 40
0.0
 40
0.0
 40
0.0
 40
0.0
 40
0.4941632827082468
 40
0.9999999999999999
 40
0.9999999999999999
 40
0.9999999999999999
 40
0.9999999999999999
 10
193.5588942565109
 20
46.62124450865965
 30
0.0
 10
193.3990467113197
 20
46.44682980785283
 30
0.0
 10
193.0755756021041
 20
46.093880272932
 30
0.0
 10
192.7622016528379
 20
45.77452727890962
 30
0.0
 10
192.6036856030564
 20
45.61298680875604
 30
0.0
  0
ENDSEC
  0
SECTION
  2
OBJECTS
  0
DICTIONARY
  5
C
330
0
100
AcDbDictionary
281
     1
  3
ACAD_GROUP
350
D
  3
ACAD_LAYOUT
350
1A
  3
ACAD_MLINESTYLE
350
17
  3
ACAD_PLOTSETTINGS
350
19
  3
ACAD_PLOTSTYLENAME
350
E
  3
ACAD_SCALELIST
350
47
  3
DWGPROPS
350
1FE
  0
DICTIONARY
  5
D
102
{ACAD_REACTORS
330
C
102
}
330
C
100
AcDbDictionary
281
     1
  0
DICTIONARY
  5
1A
102
{ACAD_REACTORS
330
C
102
}
330
C
100
AcDbDictionary
281
     1
  3
Layout1
350
1E
  3
Layout2
350
26
  3
Model
350
22
  0
DICTIONARY
  5
17
102
{ACAD_REACTORS
330
C
102
}
330
C
100
AcDbDictionary
281
     1
  3
Standard
350
18
  0
DICTIONARY
  5
19
102
{ACAD_REACTORS
330
C
102
}
330
C
100
AcDbDictionary
281
     1
  0
ACDBDICTIONARYWDFLT
  5
E
102
{ACAD_REACTORS
330
C
102
}
330
C
100
AcDbDictionary
281
     1
  3
Normal
350
F
100
AcDbDictionaryWithDefault
340
F
  0
DICTIONARY
  5
47
102
{ACAD_REACTORS
330
C
102
}
330
C
100
AcDbDictionary
281
     1
  3
A0
350
48
  3
A1
350
49
  3
A2
350
4A
  3
A3
350
4B
  3
A4
350
4C
  3
A5
350
4D
  3
A6
350
4E
  3
A7
350
4F
  3
A8
350
50
  3
A9
350
51
  3
B0
350
52
  3
B1
350
53
  3
B2
350
54
  3
B3
350
55
  3
B4
350
56
  3
B5
350
57
  3
B6
350
58
  0
XRECORD
  5
1FE
102
{ACAD_REACTORS
330
C
102
}
330
C
100
AcDbXrecord
280
     1
  1
DWGPROPS COOKIE
  2

  3

  4

  6

  7

  8

  9

300
=
301
=
302
=
303
=
304
=
305
=
306
=
307
=
308
=
309
=
 40
0.0
 41
2461215.458191945
 42
2461215.458192709
  1

 90
        0
  0
LAYOUT
  5
1E
102
{ACAD_REACTORS
330
1A
102
}
330
1A
100
AcDbPlotSettings
  1

  2
none_device
  4

  6

 40
0.0
 41
0.0
 42
0.0
 43
0.0
 44
0.0
 45
0.0
 46
0.0
 47
0.0
 48
0.0
 49
0.0
140
0.0
141
0.0
142
1.0
143
1.0
 70
   688
 72
     1
 73
     0
 74
     5
  7

 75
    16
147
1.0
148
0.0
149
0.0
100
AcDbLayout
  1
Layout1
 70
     1
 71
     1
 10
0.0
 20
0.0
 11
420.0
 21
297.0
 12
0.0
 22
0.0
 32
0.0
 14
1.0000000000E+20
 24
1.0000000000E+20
 34
1.0000000000E+20
 15
-1.0000000000E+20
 25
-1.0000000000E+20
 35
-1.0000000000E+20
146
0.0
 13
0.0
 23
0.0
 33
0.0
 16
1.0
 26
0.0
 36
0.0
 17
0.0
 27
1.0
 37
0.0
 76
     0
330
1B
  0
LAYOUT
  5
26
102
{ACAD_REACTORS
330
1A
102
}
330
1A
100
AcDbPlotSettings
  1

  2
none_device
  4

  6

 40
0.0
 41
0.0
 42
0.0
 43
0.0
 44
0.0
 45
0.0
 46
0.0
 47
0.0
 48
0.0
 49
0.0
140
0.0
141
0.0
142
1.0
143
1.0
 70
   688
 72
     1
 73
     0
 74
     5
  7

 75
    16
147
1.0
148
0.0
149
0.0
100
AcDbLayout
  1
Layout2
 70
     1
 71
     2
 10
0.0
 20
0.0
 11
0.0
 21
0.0
 12
0.0
 22
0.0
 32
0.0
 14
0.0
 24
0.0
 34
0.0
 15
0.0
 25
0.0
 35
0.0
146
0.0
 13
0.0
 23
0.0
 33
0.0
 16
1.0
 26
0.0
 36
0.0
 17
0.0
 27
1.0
 37
0.0
 76
     0
330
23
  0
LAYOUT
  5
22
102
{ACAD_REACTORS
330
1A
102
}
330
1A
100
AcDbPlotSettings
  1

  2
none_device
  4
Letter_(8.50_x_11.00_Inches)
  6

 40
6.35
 41
6.35
 42
6.35000508
 43
6.35000508
 44
215.9
 45
279.4
 46
0.0
 47
0.0
 48
0.0
 49
0.0
140
0.0
141
0.0
142
1.0
143
1.0
 70
  1712
 72
     1
 73
     0
 74
     0
  7

 75
     0
147
1.0
148
0.0
149
0.0
100
AcDbLayout
  1
Model
 70
     1
 71
     0
 10
0.0
 20
0.0
 11
297.0
 21
210.0
 12
0.0
 22
0.0
 32
0.0
 14
0.0
 24
0.0
 34
0.0
 15
297.0
 25
210.0
 35
0.0
146
0.0
 13
0.0
 23
0.0
 33
0.0
 16
1.0
 26
0.0
 36
0.0
 17
0.0
 27
1.0
 37
0.0
 76
     0
330
1F
331
29
  0
MLINESTYLE
  5
18
102
{ACAD_REACTORS
330
17
102
}
330
17
100
AcDbMlineStyle
  2
Standard
 70
     0
  3

 62
   256
 51
90.0
 52
90.0
 71
     2
 49
0.5
 62
   256
  6
BYLAYER
 49
-0.5
 62
   256
  6
BYLAYER
  0
ACDBPLACEHOLDER
  5
F
102
{ACAD_REACTORS
330
E
102
}
330
E
  0
SCALE
  5
48
102
{ACAD_REACTORS
330
47
102
}
330
47
100
AcDbScale
 70
     0
300
1:1
140
1.0
141
1.0
290
     1
  0
SCALE
  5
49
102
{ACAD_REACTORS
330
47
102
}
330
47
100
AcDbScale
 70
     0
300
1:2
140
1.0
141
2.0
290
     0
  0
SCALE
  5
4A
102
{ACAD_REACTORS
330
47
102
}
330
47
100
AcDbScale
 70
     0
300
1:4
140
1.0
141
4.0
290
     0
  0
SCALE
  5
4B
102
{ACAD_REACTORS
330
47
102
}
330
47
100
AcDbScale
 70
     0
300
1:5
140
1.0
141
5.0
290
     0
  0
SCALE
  5
4C
102
{ACAD_REACTORS
330
47
102
}
330
47
100
AcDbScale
 70
     0
300
1:8
140
1.0
141
8.0
290
     0
  0
SCALE
  5
4D
102
{ACAD_REACTORS
330
47
102
}
330
47
100
AcDbScale
 70
     0
300
1:10
140
1.0
141
10.0
290
     0
  0
SCALE
  5
4E
102
{ACAD_REACTORS
330
47
102
}
330
47
100
AcDbScale
 70
     0
300
1:16
140
1.0
141
16.0
290
     0
  0
SCALE
  5
4F
102
{ACAD_REACTORS
330
47
102
}
330
47
100
AcDbScale
 70
     0
300
1:20
140
1.0
141
20.0
290
     0
  0
SCALE
  5
50
102
{ACAD_REACTORS
330
47
102
}
330
47
100
AcDbScale
 70
     0
300
1:30
140
1.0
141
30.0
290
     0
  0
SCALE
  5
51
102
{ACAD_REACTORS
330
47
102
}
330
47
100
AcDbScale
 70
     0
300
1:40
140
1.0
141
40.0
290
     0
  0
SCALE
  5
52
102
{ACAD_REACTORS
330
47
102
}
330
47
100
AcDbScale
 70
     0
300
1:50
140
1.0
141
50.0
290
     0
  0
SCALE
  5
53
102
{ACAD_REACTORS
330
47
102
}
330
47
100
AcDbScale
 70
     0
300
1:100
140
1.0
141
100.0
290
     0
  0
SCALE
  5
54
102
{ACAD_REACTORS
330
47
102
}
330
47
100
AcDbScale
 70
     0
300
2:1
140
2.0
141
1.0
290
     0
  0
SCALE
  5
55
102
{ACAD_REACTORS
330
47
102
}
330
47
100
AcDbScale
 70
     0
300
4:1
140
4.0
141
1.0
290
     0
  0
SCALE
  5
56
102
{ACAD_REACTORS
330
47
102
}
330
47
100
AcDbScale
 70
     0
300
8:1
140
8.0
141
1.0
290
     0
  0
SCALE
  5
57
102
{ACAD_REACTORS
330
47
102
}
330
47
100
AcDbScale
 70
     0
300
10:1
140
10.0
141
1.0
290
     0
  0
SCALE
  5
58
102
{ACAD_REACTORS
330
47
102
}
330
47
100
AcDbScale
 70
     0
300
100:1
140
100.0
141
1.0
290
     0
  0
ENDSEC
  0
EOF
