  0
SECTION
  2
HEADER
  9
$ACADVER
  1
AC1015
  9
$ACADMAINTVER
 70
     6
  9
$DWGCODEPAGE
  3
ANSI_936
  9
$INSBASE
 10
0.0
 20
0.0
 30
0.0
  9
$EXTMIN
 10
0.0
 20
0.0
 30
0.0
  9
$EXTMAX
 10
297.0
 20
210.0
 30
0.0
  9
$LIMMIN
 10
0.0
 20
0.0
  9
$LIMMAX
 10
297.0
 20
210.0
  9
$ORTHOMODE
 70
     0
  9
$REGENMODE
 70
     1
  9
$FILLMODE
 70
     1
  9
$QTEXTMODE
 70
     0
  9
$MIRRTEXT
 70
     1
  9
$LTSCALE
 40
1.0
  9
$ATTMODE
 70
     1
  9
$TEXTSIZE
 40
3.5
  9
$TRACEWID
 40
1.0
  9
$TEXTSTYLE
  7
Standard
  9
$CLAYER
  8
0
  9
$CELTYPE
  6
ByLayer
  9
$CECOLOR
 62
   256
  9
$CELTSCALE
 40
1.0
  9
$DISPSILH
 70
     0
  9
$DIMSCALE
 40
1.0
  9
$DIMASZ
 40
4.08
  9
$DIMEXO
 40
0.0
  9
$DIMDLI
 40
3.75
  9
$DIMRND
 40
0.0
  9
$DIMDLE
 40
0.0
  9
$DIMEXE
 40
2.0
  9
$DIMTP
 40
0.0
  9
$DIMTM
 40
0.0
  9
$DIMTXT
 40
3.5
  9
$DIMCEN
 40
2.5
  9
$DIMTSZ
 40
0.0
  9
$DIMTOL
 70
     0
  9
$DIMLIM
 70
     0
  9
$DIMTIH
 70
     1
  9
$DIMTOH
 70
     1
  9
$DIMSE1
 70
     0
  9
$DIMSE2
 70
     0
  9
$DIMTAD
 70
     1
  9
$DIMZIN
 70
     0
  9
$DIMBLK
  1

  9
$DIMASO
 70
     1
  9
$DIMSHO
 70
     1
  9
$DIMPOST
  1

  9
$DIMAPOST
  1

  9
$DIMALT
 70
     0
  9
$DIMALTD
 70
     3
  9
$DIMALTF
 40
0.0393700787
  9
$DIMLFAC
 40
2.0
  9
$DIMTOFL
 70
     1
  9
$DIMTVP
 40
0.0
  9
$DIMTIX
 70
     0
  9
$DIMSOXD
 70
     0
  9
$DIMSAH
 70
     0
  9
$DIMBLK1
  1

  9
$DIMBLK2
  1

  9
$DIMSTYLE
  2
ISO-25
  9
$DIMCLRD
 70
     0
  9
$DIMCLRE
 70
     0
  9
$DIMCLRT
 70
     0
  9
$DIMTFAC
 40
1.0
  9
$DIMGAP
 40
1.524
  9
$DIMJUST
 70
     0
  9
$DIMSD1
 70
     0
  9
$DIMSD2
 70
     0
  9
$DIMTOLJ
 70
     0
  9
$DIMTZIN
 70
     0
  9
$DIMALTZ
 70
     0
  9
$DIMALTTZ
 70
     0
  9
$DIMUPT
 70
     0
  9
$DIMDEC
 70
     2
  9
$DIMTDEC
 70
     2
  9
$DIMALTU
 70
     2
  9
$DIMALTTD
 70
     3
  9
$DIMTXSTY
  7
Standard
  9
$DIMAUNIT
 70
     0
  9
$DIMADEC
 70
     2
  9
$DIMALTRND
 40
0.0
  9
$DIMAZIN
 70
     0
  9
$DIMDSEP
 70
    44
  9
$DIMATFIT
 70
     3
  9
$DIMFRAC
 70
     0
  9
$DIMLDRBLK
  1

  9
$DIMLUNIT
 70
     2
  9
$DIMLWD
 70
    -2
  9
$DIMLWE
 70
    -2
  9
$DIMTMOVE
 70
     0
  9
$LUNITS
 70
     2
  9
$LUPREC
 70
     2
  9
$SKETCHINC
 40
1.0
  9
$FILLETRAD
 40
0.0
  9
$AUNITS
 70
     0
  9
$AUPREC
 70
     2
  9
$MENU
  1
.
  9
$ELEVATION
 40
0.0
  9
$PELEVATION
 40
0.0
  9
$THICKNESS
 40
0.0
  9
$LIMCHECK
 70
     0
  9
$CHAMFERA
 40
0.0
  9
$CHAMFERB
 40
0.0
  9
$CHAMFERC
 40
0.0
  9
$CHAMFERD
 40
0.0
  9
$SKPOLY
 70
     0
  9
$TDCREATE
 40
2461215.790911424
  9
$TDUCREATE
 40
2461215.457578091
  9
$TDUPDATE
 40
2461215.790911725
  9
$TDUUPDATE
 40
2461215.457578392
  9
$TDINDWG
 40
0.0000000116
  9
$TDUSRTIMER
 40
0.0000000116
  9
$USRTIMER
 70
     1
  9
$ANGBASE
 50
0.0
  9
$ANGDIR
 70
     0
  9
$PDMODE
 70
     0
  9
$PDSIZE
 40
-1.0
  9
$PLINEWID
 40
0.0
  9
$SPLFRAME
 70
     0
  9
$SPLINETYPE
 70
     6
  9
$SPLINESEGS
 70
     8
  9
$HANDSEED
  5
11D
  9
$SURFTAB1
 70
     6
  9
$SURFTAB2
 70
     6
  9
$SURFTYPE
 70
     6
  9
$SURFU
 70
     6
  9
$SURFV
 70
     6
  9
$UCSBASE
  2

  9
$UCSNAME
  2

  9
$UCSORG
 10
0.0
 20
0.0
 30
0.0
  9
$UCSXDIR
 10
1.0
 20
0.0
 30
0.0
  9
$UCSYDIR
 10
0.0
 20
1.0
 30
0.0
  9
$UCSORTHOREF
  2

  9
$UCSORTHOVIEW
 70
     0
  9
$UCSORGTOP
 10
0.0
 20
0.0
 30
0.0
  9
$UCSORGBOTTOM
 10
0.0
 20
0.0
 30
0.0
  9
$UCSORGLEFT
 10
0.0
 20
0.0
 30
0.0
  9
$UCSORGRIGHT
 10
0.0
 20
0.0
 30
0.0
  9
$UCSORGFRONT
 10
0.0
 20
0.0
 30
0.0
  9
$UCSORGBACK
 10
0.0
 20
0.0
 30
0.0
  9
$PUCSBASE
  2

  9
$PUCSNAME
  2

  9
$PUCSORG
 10
0.0
 20
0.0
 30
0.0
  9
$PUCSXDIR
 10
1.0
 20
0.0
 30
0.0
  9
$PUCSYDIR
 10
0.0
 20
1.0
 30
0.0
  9
$PUCSORTHOREF
  2

  9
$PUCSORTHOVIEW
 70
     0
  9
$PUCSORGTOP
 10
0.0
 20
0.0
 30
0.0
  9
$PUCSORGBOTTOM
 10
0.0
 20
0.0
 30
0.0
  9
$PUCSORGLEFT
 10
0.0
 20
0.0
 30
0.0
  9
$PUCSORGRIGHT
 10
0.0
 20
0.0
 30
0.0
  9
$PUCSORGFRONT
 10
0.0
 20
0.0
 30
0.0
  9
$PUCSORGBACK
 10
0.0
 20
0.0
 30
0.0
  9
$USERI1
 70
     0
  9
$USERI2
 70
     0
  9
$USERI3
 70
     0
  9
$USERI4
 70
     0
  9
$USERI5
 70
     0
  9
$USERR1
 40
0.0
  9
$USERR2
 40
0.0
  9
$USERR3
 40
0.0
  9
$USERR4
 40
0.0
  9
$USERR5
 40
0.0
  9
$WORLDVIEW
 70
     1
  9
$SHADEDGE
 70
     3
  9
$SHADEDIF
 70
    70
  9
$TILEMODE
 70
     1
  9
$MAXACTVP
 70
    64
  9
$PINSBASE
 10
0.0
 20
0.0
 30
0.0
  9
$PLIMCHECK
 70
     0
  9
$PEXTMIN
 10
1.0000000000E+20
 20
1.0000000000E+20
 30
1.0000000000E+20
  9
$PEXTMAX
 10
-1.0000000000E+20
 20
-1.0000000000E+20
 30
-1.0000000000E+20
  9
$PLIMMIN
 10
0.0
 20
0.0
  9
$PLIMMAX
 10
420.0
 20
297.0
  9
$UNITMODE
 70
     0
  9
$VISRETAIN
 70
     1
  9
$PLINEGEN
 70
     0
  9
$PSLTSCALE
 70
     1
  9
$TREEDEPTH
 70
  3020
  9
$CMLSTYLE
  2
Standard
  9
$CMLJUST
 70
     0
  9
$CMLSCALE
 40
20.0
  9
$PROXYGRAPHICS
 70
     1
  9
$MEASUREMENT
 70
     1
  9
$CELWEIGHT
370
    -1
  9
$ENDCAPS
280
     0
  9
$JOINSTYLE
280
     0
  9
$LWDISPLAY
290
     1
  9
$INSUNITS
 70
     4
  9
$HYPERLINKBASE
  1

  9
$STYLESHEET
  1

  9
$XEDIT
290
     1
  9
$CEPSNTYPE
380
     0
  9
$PSTYLEMODE
290
     1
  9
$FINGERPRINTGUID
  2
{38853ca3-c450-4626-948a-68a155c33bc4}
  9
$VERSIONGUID
  2
{FAEB1C32-E019-11D5-929B-00C0DF256EC4}
  9
$EXTNAMES
290
     1
  9
$PSVPSCALE
 40
0.0
  9
$OLESTARTUP
290
     0
  0
ENDSEC
  0
SECTION
  2
CLASSES
  0
CLASS
  1
ACDBDICTIONARYWDFLT
  2
AcDbDictionaryWithDefault
  3
ObjectDBX Classes
 90
        0
280
     0
281
     0
  0
CLASS
  1
VISUALSTYLE
  2
AcDbVisualStyle
  3
ObjectDBX Classes
 90
     4095
280
     0
281
     0
  0
CLASS
  1
MATERIAL
  2
AcDbMaterial
  3
ObjectDBX Classes
 90
     1153
280
     0
281
     0
  0
CLASS
  1
SCALE
  2
AcDbScale
  3
ObjectDBX Classes
 90
     1153
280
     0
281
     0
  0
CLASS
  1
TABLESTYLE
  2
AcDbTableStyle
  3
ObjectDBX Classes
 90
     4095
280
     0
281
     0
  0
CLASS
  1
MLEADERSTYLE
  2
AcDbMLeaderStyle
  3
ACDB_MLEADERSTYLE_CLASS
 90
     4095
280
     0
281
     0
  0
CLASS
  1
SUN
  2
AcDbSun
  3
SCENEOE
 90
     1153
280
     0
281
     0
  0
CLASS
  1
ACDBPLACEHOLDER
  2
AcDbPlaceHolder
  3
ObjectDBX Classes
 90
        0
280
     0
281
     0
  0
CLASS
  1
LAYOUT
  2
AcDbLayout
  3
ObjectDBX Classes
 90
        0
280
     0
281
     0
  0
ENDSEC
  0
SECTION
  2
TABLES
  0
TABLE
  2
VPORT
  5
8
330
0
100
AcDbSymbolTable
 70
     1
  0
VPORT
  5
29
330
8
100
AcDbSymbolTableRecord
100
AcDbViewportTableRecord
  2
*Active
 70
     0
 10
0.0
 20
0.0
 11
1.0
 21
1.0
 12
148.5
 22
105.0
 13
0.0
 23
0.0
 14
10.0
 24
10.0
 15
10.0
 25
10.0
 16
0.0
 26
0.0
 36
1.0
 17
0.0
 27
0.0
 37
0.0
 40
210.0
 41
1.4142857143
 42
50.0
 43
0.0
 44
0.0
 50
0.0
 51
0.0
 71
     0
 72
  2000
 73
     1
 74
     3
 75
     0
 76
     0
 77
     0
 78
     0
281
     0
 65
     1
110
0.0
120
0.0
130
0.0
111
1.0
121
0.0
131
0.0
112
0.0
122
1.0
132
0.0
 79
     0
146
0.0
  0
ENDTAB
  0
TABLE
  2
LTYPE
  5
5
330
0
100
AcDbSymbolTable
 70
     6
  0
LTYPE
  5
14
330
5
100
AcDbSymbolTableRecord
100
AcDbLinetypeTableRecord
  2
ByBlock
 70
     0
  3

 72
    65
 73
     0
 40
0.0
  0
LTYPE
  5
15
330
5
100
AcDbSymbolTableRecord
100
AcDbLinetypeTableRecord
  2
ByLayer
 70
     0
  3

 72
    65
 73
     0
 40
0.0
  0
LTYPE
  5
16
330
5
100
AcDbSymbolTableRecord
100
AcDbLinetypeTableRecord
  2
Continuous
 70
     0
  3
Solid line
 72
    65
 73
     0
 40
0.0
  0
LTYPE
  5
5E
330
5
100
AcDbSymbolTableRecord
100
AcDbLinetypeTableRecord
  2
HIDDEN
 70
     0
  3
Hidden __ __ __ __ __ __ __ __ __ __ __ __ __ __
 72
    65
 73
     2
 40
1.905
 49
1.27
 74
     0
 49
-0.635
 74
     0
  0
LTYPE
  5
5F
330
5
100
AcDbSymbolTableRecord
100
AcDbLinetypeTableRecord
  2
PHANTOM
 70
     0
  3
Phantom ______  __  __  ______  __  __  ______
 72
    65
 73
     6
 40
12.7
 49
6.35
 74
     0
 49
-1.27
 74
     0
 49
1.27
 74
     0
 49
-1.27
 74
     0
 49
1.27
 74
     0
 49
-1.27
 74
     0
  0
LTYPE
  5
60
330
5
100
AcDbSymbolTableRecord
100
AcDbLinetypeTableRecord
  2
CENTER
 70
     0
  3
Center ____ _ ____ _ ____ _ ____ _ ____ _ ____
 72
    65
 73
     4
 40
10.16
 49
6.35
 74
     0
 49
-1.27
 74
     0
 49
1.27
 74
     0
 49
-1.27
 74
     0
  0
LTYPE
  5
61
330
5
100
AcDbSymbolTableRecord
100
AcDbLinetypeTableRecord
  2
CENTERX2
 70
     0
  3
Center (2x) ________  __  ________  __  _____
 72
    65
 73
     4
 40
20.32
 49
12.7
 74
     0
 49
-2.54
 74
     0
 49
2.54
 74
     0
 49
-2.54
 74
     0
  0
LTYPE
  5
62
330
5
100
AcDbSymbolTableRecord
100
AcDbLinetypeTableRecord
  2
DOT2
 70
     0
  3
Dot (.5x) ........................................
 72
    65
 73
     2
 40
0.635
 49
0.0
 74
     0
 49
-0.635
 74
     0
  0
ENDTAB
  0
TABLE
  2
LAYER
  5
2
330
0
100
AcDbSymbolTable
 70
    14
  0
LAYER
  5
10
330
2
100
AcDbSymbolTableRecord
100
AcDbLayerTableRecord
  2
0
 70
     0
 62
     7
  6
Continuous
370
    -3
390
F
  0
LAYER
  5
63
330
2
100
AcDbSymbolTableRecord
100
AcDbLayerTableRecord
  2
SLD-0
 70
     0
 62
     7
  6
Continuous
370
    -3
390
F
  0
LAYER
  5
64
330
2
100
AcDbSymbolTableRecord
100
AcDbLayerTableRecord
  2
5
 70
     0
 62
     7
  6
Continuous
370
    -3
390
F
  0
LAYER
  5
65
330
2
100
AcDbSymbolTableRecord
100
AcDbLayerTableRecord
  2
9
 70
     0
 62
     7
  6
Continuous
370
    -3
390
F
  0
LAYER
  5
66
330
2
100
AcDbSymbolTableRecord
100
AcDbLayerTableRecord
  2
10
 70
     0
 62
     7
  6
Continuous
370
    -3
390
F
  0
LAYER
  5
67
330
2
100
AcDbSymbolTableRecord
100
AcDbLayerTableRecord
  2
轮廓实线层
 70
     0
 62
     7
  6
Continuous
370
    50
390
F
  0
LAYER
  5
68
330
2
100
AcDbSymbolTableRecord
100
AcDbLayerTableRecord
  2
细线层
 70
     0
 62
     4
  6
Continuous
370
    25
390
F
  0
LAYER
  5
69
330
2
100
AcDbSymbolTableRecord
100
AcDbLayerTableRecord
  2
中心线层
 70
     0
 62
     1
  6
CENTERX2
370
    25
390
F
  0
LAYER
  5
6A
330
2
100
AcDbSymbolTableRecord
100
AcDbLayerTableRecord
  2
虚线层
 70
     0
 62
     6
  6
HIDDEN
370
    25
390
F
  0
LAYER
  5
6B
330
2
100
AcDbSymbolTableRecord
100
AcDbLayerTableRecord
  2
剖面线层
 70
     0
 62
     2
  6
Continuous
370
    25
390
F
  0
LAYER
  5
6C
330
2
100
AcDbSymbolTableRecord
100
AcDbLayerTableRecord
  2
文字层
 70
     0
 62
     3
  6
Continuous
370
    25
390
F
  0
LAYER
  5
6D
330
2
100
AcDbSymbolTableRecord
100
AcDbLayerTableRecord
  2
标注层
 70
     0
 62
     4
  6
Continuous
370
    25
390
F
  0
LAYER
  5
6E
330
2
100
AcDbSymbolTableRecord
100
AcDbLayerTableRecord
  2
符号标注层
 70
     0
 62
    31
  6
Continuous
370
    25
390
F
  0
LAYER
  5
6F
330
2
100
AcDbSymbolTableRecord
100
AcDbLayerTableRecord
  2
双点划线层
 70
     0
 62
     6
  6
PHANTOM
370
    25
390
F
  0
ENDTAB
  0
TABLE
  2
STYLE
  5
3
330
0
100
AcDbSymbolTable
 70
     1
  0
STYLE
  5
11
330
3
100
AcDbSymbolTableRecord
100
AcDbTextStyleTableRecord
  2
Standard
 70
     0
 40
0.0
 41
1.0
 50
0.0
 71
     0
 42
3.5
  3
txt
  4

  0
ENDTAB
  0
TABLE
  2
VIEW
  5
6
330
0
100
AcDbSymbolTable
 70
     0
  0
ENDTAB
  0
TABLE
  2
UCS
  5
7
330
0
100
AcDbSymbolTable
 70
     0
  0
ENDTAB
  0
TABLE
  2
APPID
  5
9
330
0
100
AcDbSymbolTable
 70
     1
  0
APPID
  5
12
330
9
100
AcDbSymbolTableRecord
100
AcDbRegAppTableRecord
  2
ACAD
 70
     0
  0
ENDTAB
  0
TABLE
  2
DIMSTYLE
  5
A
330
0
100
AcDbSymbolTable
 70
     1
100
AcDbDimStyleTable
  0
DIMSTYLE
105
27
330
A
100
AcDbSymbolTableRecord
100
AcDbDimStyleTableRecord
  2
ISO-25
 70
     0
 41
2.5
 42
0.625
 43
3.75
 44
1.25
 73
     0
 74
     0
 77
     1
 78
     8
140
2.5
141
2.5
143
0.0393700787
147
0.625
171
     3
172
     1
178
     0
271
     2
272
     2
274
     3
278
    44
283
     0
284
     8
340
11
  0
ENDTAB
  0
TABLE
  2
BLOCK_RECORD
  5
1
330
0
100
AcDbSymbolTable
 70
     1
  0
BLOCK_RECORD
  5
1F
330
1
100
AcDbSymbolTableRecord
100
AcDbBlockTableRecord
  2
*Model_Space
340
22
  0
BLOCK_RECORD
  5
1B
330
1
100
AcDbSymbolTableRecord
100
AcDbBlockTableRecord
  2
*Paper_Space
340
1E
  0
BLOCK_RECORD
  5
23
330
1
100
AcDbSymbolTableRecord
100
AcDbBlockTableRecord
  2
*Paper_Space0
340
26
  0
ENDTAB
  0
ENDSEC
  0
SECTION
  2
BLOCKS
  0
BLOCK
  5
20
330
1F
100
AcDbEntity
  8
0
100
AcDbBlockBegin
  2
*Model_Space
 70
     0
 10
0.0
 20
0.0
 30
0.0
  3
*Model_Space
  1

  0
ENDBLK
  5
21
330
1F
100
AcDbEntity
  8
0
100
AcDbBlockEnd
  0
BLOCK
  5
1C
330
1B
100
AcDbEntity
 67
     1
  8
0
100
AcDbBlockBegin
  2
*Paper_Space
 70
     0
 10
0.0
 20
0.0
 30
0.0
  3
*Paper_Space
  1

  0
ENDBLK
  5
1D
330
1B
100
AcDbEntity
 67
     1
  8
0
100
AcDbBlockEnd
  0
BLOCK
  5
24
330
23
100
AcDbEntity
  8
0
100
AcDbBlockBegin
  2
*Paper_Space0
 70
     0
 10
0.0
 20
0.0
 30
0.0
  3
*Paper_Space0
  1

  0
ENDBLK
  5
25
330
23
100
AcDbEntity
  8
0
100
AcDbBlockEnd
  0
ENDSEC
  0
SECTION
  2
ENTITIES
  0
LINE
  5
70
330
1F
100
AcDbEntity
  8
0
  6
Continuous
 62
     7
370
    25
100
AcDbLine
 10
125.4642390855
 20
96.2769391579
 30
0.0
 11
40.5366158345
 21
96.2769391579
 31
0.0
  0
LINE
  5
71
330
1F
100
AcDbEntity
  8
0
  6
Continuous
 62
     7
370
    25
100
AcDbLine
 10
127.8610434259
 20
11.7970727916
 30
0.0
 11
38.1394690446
 21
11.7970727916
 31
0.0
  0
LINE
  5
72
330
1F
100
AcDbEntity
  8
0
  6
Continuous
 62
     7
370
    25
100
AcDbLine
 10
33.0028629032
 20
16.9071390936
 30
0.0
 11
33.0028629032
 21
97.0934895424
 31
0.0
  0
LINE
  5
73
330
1F
100
AcDbEntity
  8
0
  6
Continuous
 62
     7
370
    25
100
AcDbLine
 10
40.5364788547
 20
36.6908120977
 30
0.0
 11
125.4599242213
 21
36.6908120977
 31
0.0
  0
LINE
  5
74
330
1F
100
AcDbEntity
  8
0
  6
Continuous
 62
     7
370
    25
100
AcDbLine
 10
132.9979920169
 20
97.0669428539
 30
0.0
 11
132.9979920169
 21
16.9336789331
 31
0.0
  0
LINE
  5
75
330
1F
100
AcDbEntity
  8
0
  6
Continuous
 62
     7
370
    25
100
AcDbLine
 10
72.8350182928
 20
86.0033707275
 30
0.0
 11
38.4818500961
 21
86.0033707275
 31
0.0
  0
LINE
  5
76
330
1F
100
AcDbEntity
  8
0
  6
Continuous
 62
     7
370
    25
100
AcDbLine
 10
72.8350182928
 20
88.1520909221
 30
0.0
 11
72.8350182928
 21
86.0033707275
 31
0.0
  0
SPLINE
  5
77
330
1F
100
AcDbEntity
  8
0
  6
Continuous
 62
     7
370
    25
100
AcDbSpline
210
0.0
220
0.0
230
1.0
 70
     8
 71
     3
 72
     8
 73
     4
 74
     0
 42
0.00000001
 43
0.00000001
 40
0.0
 40
0.0
 40
0.0
 40
0.0
 40
1.0
 40
1.0
 40
1.0
 40
1.0
 10
75.91699567566361
 20
91.23412309683837
 30
0.0
 10
74.21488447500889
 20
91.23419158674668
 30
0.0
 10
72.83501829282673
 20
89.85426376364707
 30
0.0
 10
72.83501829282673
 20
88.15209092207488
 30
0.0
  0
LINE
  5
78
330
1F
100
AcDbEntity
  8
0
  6
Continuous
 62
     7
370
    25
100
AcDbLine
 10
90.2993969858
 20
91.2341230968
 30
0.0
 11
75.9169956757
 21
91.2341230968
 31
0.0
  0
SPLINE
  5
79
330
1F
100
AcDbEntity
  8
0
  6
Continuous
 62
     7
370
    25
100
AcDbSpline
210
0.0
220
0.0
230
1.0
 70
     8
 71
     3
 72
     8
 73
     4
 74
     0
 42
0.00000001
 43
0.00000001
 40
0.0
 40
0.0
 40
0.0
 40
0.0
 40
1.0
 40
1.0
 40
1.0
 40
1.0
 10
93.38144285852823
 20
88.15209092207488
 30
0.0
 10
93.38137436861994
 20
89.85426376364707
 30
0.0
 10
92.00150818643779
 20
91.23419158674668
 30
0.0
 10
90.29939698578306
 20
91.23412309683837
 30
0.0
  0
LINE
  5
7A
330
1F
100
AcDbEntity
  8
0
  6
Continuous
 62
     7
370
    25
100
AcDbLine
 10
93.3821277576
 20
86.0033707275
 30
0.0
 11
93.3814428585
 21
88.1520909221
 31
0.0
  0
LINE
  5
7B
330
1F
100
AcDbEntity
  8
0
  6
Continuous
 62
     7
370
    25
100
AcDbLine
 10
127.519004824
 20
86.0033707275
 30
0.0
 11
93.3821277576
 21
86.0033707275
 31
0.0
  0
LINE
  5
7C
330
1F
100
AcDbEntity
  8
0
  6
Continuous
 62
     7
370
    25
100
AcDbLine
 10
93.3778128934
 20
82.579087632
 30
0.0
 11
127.5147584496
 21
82.579087632
 31
0.0
  0
LINE
  5
7D
330
1F
100
AcDbEntity
  8
0
  6
Continuous
 62
     7
370
    25
100
AcDbLine
 10
93.3778128934
 20
76.2670713826
 30
0.0
 11
93.3778128934
 21
82.579087632
 31
0.0
  0
LINE
  5
7E
330
1F
100
AcDbEntity
  8
0
  6
Continuous
 62
     7
370
    25
100
AcDbLine
 10
96.8021028378
 20
76.2670713826
 30
0.0
 11
93.3778128934
 21
76.2670713826
 31
0.0
  0
LINE
  5
7F
330
1F
100
AcDbEntity
  8
0
  6
Continuous
 62
     7
370
    25
100
AcDbLine
 10
96.8021028378
 20
65.3086490728
 30
0.0
 11
96.8021028378
 21
76.2670713826
 31
0.0
  0
LINE
  5
80
330
1F
100
AcDbEntity
  8
0
  6
Continuous
 62
     7
370
    25
100
AcDbLine
 10
93.3778128934
 20
65.3086490728
 30
0.0
 11
96.8021028378
 21
65.3086490728
 31
0.0
  0
LINE
  5
81
330
1F
100
AcDbEntity
  8
0
  6
Continuous
 62
     7
370
    25
100
AcDbLine
 10
93.3778128934
 20
63.0392428108
 30
0.0
 11
93.3778128934
 21
65.3086490728
 31
0.0
  0
LINE
  5
82
330
1F
100
AcDbEntity
  8
0
  6
Continuous
 62
     7
370
    25
100
AcDbLine
 10
93.3771279943
 20
63.4961732339
 30
0.0
 11
93.3778128934
 21
63.0392428108
 31
0.0
  0
SPLINE
  5
83
330
1F
100
AcDbEntity
  8
0
  6
Continuous
 62
     7
370
    25
100
AcDbSpline
210
0.0
220
0.0
230
1.0
 70
     8
 71
     3
 72
     8
 73
     4
 74
     0
 42
0.00000001
 43
0.00000001
 40
0.0
 40
0.0
 40
0.0
 40
0.0
 40
1.0
 40
1.0
 40
1.0
 40
1.0
 10
90.6483530684861
 20
60.88309146116365
 30
0.0
 10
92.18410228192087
 20
61.06539789903194
 30
0.0
 10
93.37712799430639
 20
61.91349473532146
 30
0.0
 10
93.37712799430639
 20
63.4961732339119
 30
0.0
  0
SPLINE
  5
84
330
1F
100
AcDbEntity
  8
0
  6
Continuous
 62
     7
370
    25
100
AcDbSpline
210
0.0
220
0.0
230
1.0
 70
     8
 71
     3
 72
     8
 73
     4
 74
     0
 42
0.00000001
 43
0.00000001
 40
0.0
 40
0.0
 40
0.0
 40
0.0
 40
1.0
 40
1.0
 40
1.0
 40
1.0
 10
87.87779929861306
 20
60.54084054048153
 30
0.0
 10
88.52002916858487
 20
60.82333401618652
 30
0.0
 10
89.54046031209664
 20
60.83427185453936
 30
0.0
 10
90.6483530684861
 20
60.88309146116365
 30
0.0
  0
SPLINE
  5
85
330
1F
100
AcDbEntity
  8
0
  6
Continuous
 62
     7
370
    25
100
AcDbSpline
210
0.0
220
0.0
230
1.0
 70
     8
 71
     3
 72
     8
 73
     4
 74
     0
 42
0.00000001
 43
0.00000001
 40
0.0
 40
0.0
 40
0.0
 40
0.0
 40
1.0
 40
1.0
 40
1.0
 40
1.0
 10
86.77881023030041
 20
57.99713904482417
 30
0.0
 10
86.77881023030041
 20
58.48036959271647
 30
0.0
 10
86.77874174039214
 20
60.05743191882769
 30
0.0
 10
87.87779929861306
 20
60.54084054048153
 30
0.0
  0
LINE
  5
86
330
1F
100
AcDbEntity
  8
0
  6
Continuous
 62
     7
370
    25
100
AcDbLine
 10
86.7788102303
 20
57.4035918017
 30
0.0
 11
86.7788102303
 21
57.9971390448
 31
0.0
  0
SPLINE
  5
87
330
1F
100
AcDbEntity
  8
0
  6
Continuous
 62
     7
370
    25
100
AcDbSpline
210
0.0
220
0.0
230
1.0
 70
     8
 71
     3
 72
     8
 73
     4
 74
     0
 42
0.00000001
 43
0.00000001
 40
0.0
 40
0.0
 40
0.0
 40
0.0
 40
1.0
 40
1.0
 40
1.0
 40
1.0
 10
86.74661997340729
 20
56.59698615180854
 30
0.0
 10
86.77538573488624
 20
57.07315539015684
 30
0.0
 10
86.77744043213474
 20
57.29341893519568
 30
0.0
 10
86.77881023030041
 20
57.40359180166009
 30
0.0
  0
SPLINE
  5
88
330
1F
100
AcDbEntity
  8
0
  6
Continuous
 62
     7
370
    25
100
AcDbSpline
210
0.0
220
0.0
230
1.0
 70
     8
 71
     3
 72
     8
 73
     4
 74
     0
 42
0.00000001
 43
0.00000001
 40
0.0
 40
0.0
 40
0.0
 40
0.0
 40
1.0
 40
1.0
 40
1.0
 40
1.0
 10
86.54272551644813
 20
54.65390005785009
 30
0.0
 10
86.66313077521004
 20
55.38874198180249
 30
0.0
 10
86.71799119174489
 20
56.1208100644694
 30
0.0
 10
86.74661997340729
 20
56.59698615180854
 30
0.0
  0
SPLINE
  5
89
330
1F
100
AcDbEntity
  8
0
  6
Continuous
 62
     7
370
    25
100
AcDbSpline
210
0.0
220
0.0
230
1.0
 70
     8
 71
     3
 72
     8
 73
     4
 74
     0
 42
0.00000001
 43
0.00000001
 40
0.0
 40
0.0
 40
0.0
 40
0.0
 40
1.0
 40
1.0
 40
1.0
 40
1.0
 10
86.19342698420367
 20
53.18544217930361
 30
0.0
 10
86.34663890903326
 20
53.64481769214085
 30
0.0
 10
86.46019517696683
 20
54.14997870866545
 30
0.0
 10
86.54272551644813
 20
54.65390005785009
 30
0.0
  0
SPLINE
  5
8A
330
1F
100
AcDbEntity
  8
0
  6
Continuous
 62
     7
370
    25
100
AcDbSpline
210
0.0
220
0.0
230
1.0
 70
     8
 71
     3
 72
     8
 73
     4
 74
     0
 42
0.00000001
 43
0.00000001
 40
0.0
 40
0.0
 40
0.0
 40
0.0
 40
1.0
 40
1.0
 40
1.0
 40
1.0
 10
84.79431513779394
 20
49.2210545161273
 30
0.0
 10
85.39408126463015
 20
50.15097624584279
 30
0.0
 10
85.88008565380792
 20
51.52830145242764
 30
0.0
 10
86.19342698420367
 20
53.18544217930361
 30
0.0
  0
SPLINE
  5
8B
330
1F
100
AcDbEntity
  8
0
  6
Continuous
 62
     7
370
    25
100
AcDbSpline
210
0.0
220
0.0
230
1.0
 70
     8
 71
     3
 72
     8
 73
     4
 74
     0
 42
0.00000001
 43
0.00000001
 40
0.0
 40
0.0
 40
0.0
 40
0.0
 40
1.0
 40
1.0
 40
1.0
 40
1.0
 10
81.2192789052261
 20
49.2210545161273
 30
0.0
 10
82.3253909240002
 20
47.50801917510139
 30
0.0
 10
83.68820311901983
 20
47.50801917510139
 30
0.0
 10
84.79431513779394
 20
49.2210545161273
 30
0.0
  0
SPLINE
  5
8C
330
1F
100
AcDbEntity
  8
0
  6
Continuous
 62
     7
370
    25
100
AcDbSpline
210
0.0
220
0.0
230
1.0
 70
     8
 71
     3
 72
     8
 73
     4
 74
     0
 42
0.00000001
 43
0.00000001
 40
0.0
 40
0.0
 40
0.0
 40
0.0
 40
1.0
 40
1.0
 40
1.0
 40
1.0
 10
79.43333605683272
 20
57.38872949156262
 30
0.0
 10
79.45114343298636
 20
54.01267698953006
 30
0.0
 10
80.12939899471513
 20
50.91029646301561
 30
0.0
 10
81.2192789052261
 20
49.2210545161273
 30
0.0
  0
SPLINE
  5
8D
330
1F
100
AcDbEntity
  8
0
  6
Continuous
 62
     7
370
    25
100
AcDbSpline
210
0.0
220
0.0
230
1.0
 70
     8
 71
     3
 72
     8
 73
     4
 74
     0
 42
0.00000001
 43
0.00000001
 40
0.0
 40
0.0
 40
0.0
 40
0.0
 40
1.0
 40
1.0
 40
1.0
 40
1.0
 10
79.4329936072913
 20
57.40359180166009
 30
0.0
 10
79.43306209719958
 20
57.3994824071631
 30
0.0
 10
79.43326756692443
 20
57.3929073759679
 30
0.0
 10
79.43333605683272
 20
57.38872949156262
 30
0.0
  0
SPLINE
  5
8E
330
1F
100
AcDbEntity
  8
0
  6
Continuous
 62
     7
370
    25
100
AcDbSpline
210
0.0
220
0.0
230
1.0
 70
     8
 71
     3
 72
     8
 73
     4
 74
     0
 42
0.00000001
 43
0.00000001
 40
0.0
 40
0.0
 40
0.0
 40
0.0
 40
1.0
 40
1.0
 40
1.0
 40
1.0
 10
79.4329936072913
 20
57.41845411175754
 30
0.0
 10
79.4329936072913
 20
57.41571451542623
 30
0.0
 10
79.43292511738301
 20
57.40633139799142
 30
0.0
 10
79.4329936072913
 20
57.40359180166009
 30
0.0
  0
SPLINE
  5
8F
330
1F
100
AcDbEntity
  8
0
  6
Continuous
 62
     7
370
    25
100
AcDbSpline
210
0.0
220
0.0
230
1.0
 70
     8
 71
     3
 72
     8
 73
     4
 74
     0
 42
0.00000001
 43
0.00000001
 40
0.0
 40
0.0
 40
0.0
 40
0.0
 40
1.0
 40
1.0
 40
1.0
 40
1.0
 10
79.4329936072913
 20
57.52499016409211
 30
0.0
 10
79.43326756692443
 20
57.48944390169311
 30
0.0
 10
79.43367850637414
 20
57.45395928021156
 30
0.0
 10
79.4329936072913
 20
57.41845411175754
 30
0.0
  0
LINE
  5
90
330
1F
100
AcDbEntity
  8
0
  6
Continuous
 62
     7
370
    25
100
AcDbLine
 10
79.4336785064
 20
57.5249901641
 30
0.0
 11
79.4329936073
 21
57.5249901641
 31
0.0
  0
SPLINE
  5
91
330
1F
100
AcDbEntity
  8
0
  6
Continuous
 62
     7
370
    25
100
AcDbSpline
210
0.0
220
0.0
230
1.0
 70
     8
 71
     3
 72
     8
 73
     4
 74
     0
 42
0.00000001
 43
0.00000001
 40
0.0
 40
0.0
 40
0.0
 40
0.0
 40
1.0
 40
1.0
 40
1.0
 40
1.0
 10
79.43367850637414
 20
57.99713219583335
 30
0.0
 10
79.43367850637414
 20
57.61273943458458
 30
0.0
 10
79.43415793573212
 20
57.59656211824808
 30
0.0
 10
79.43367850637414
 20
57.52499016409211
 30
0.0
  0
LINE
  5
92
330
1F
100
AcDbEntity
  8
0
  6
Continuous
 62
     7
370
    25
100
AcDbLine
 10
79.4340209559
 20
57.9971321958
 30
0.0
 11
79.4336785064
 21
57.9971321958
 31
0.0
  0
SPLINE
  5
93
330
1F
100
AcDbEntity
  8
0
  6
Continuous
 62
     7
370
    25
100
AcDbSpline
210
0.0
220
0.0
230
1.0
 70
     8
 71
     3
 72
     8
 73
     4
 74
     0
 42
0.00000001
 43
0.00000001
 40
0.0
 40
0.0
 40
0.0
 40
0.0
 40
1.0
 40
1.0
 40
1.0
 40
1.0
 10
78.33468943806149
 20
60.54084054048153
 30
0.0
 10
79.43374699628242
 20
60.05742506983687
 30
0.0
 10
79.43402095591554
 20
58.48036274372565
 30
0.0
 10
79.43402095591554
 20
57.99713219583335
 30
0.0
  0
SPLINE
  5
94
330
1F
100
AcDbEntity
  8
0
  6
Continuous
 62
     7
370
    25
100
AcDbSpline
210
0.0
220
0.0
230
1.0
 70
     8
 71
     3
 72
     8
 73
     4
 74
     0
 42
0.00000001
 43
0.00000001
 40
0.0
 40
0.0
 40
0.0
 40
0.0
 40
1.0
 40
1.0
 40
1.0
 40
1.0
 10
75.55920439479205
 20
60.88309146116365
 30
0.0
 10
76.66894637870516
 20
60.83453211619083
 30
0.0
 10
77.691569199282
 20
60.82371071068209
 30
0.0
 10
78.33468943806149
 20
60.54084054048153
 30
0.0
  0
SPLINE
  5
95
330
1F
100
AcDbEntity
  8
0
  6
Continuous
 62
     7
370
    25
100
AcDbSpline
210
0.0
220
0.0
230
1.0
 70
     8
 71
     3
 72
     8
 73
     4
 74
     0
 42
0.00000001
 43
0.00000001
 40
0.0
 40
0.0
 40
0.0
 40
0.0
 40
1.0
 40
1.0
 40
1.0
 40
1.0
 10
72.83460735337705
 20
63.43776504012796
 30
0.0
 10
72.83467584328532
 20
61.85668235640053
 30
0.0
 10
74.02564685842233
 20
61.0604118337089
 30
0.0
 10
75.55920439479205
 20
60.88309146116365
 30
0.0
  0
LINE
  5
96
330
1F
100
AcDbEntity
  8
0
  6
Continuous
 62
     7
370
    25
100
AcDbLine
 10
72.8346073534
 20
63.4377650401
 30
0.0
 11
72.8346073534
 21
73.756991583
 31
0.0
  0
SPLINE
  5
97
330
1F
100
AcDbEntity
  8
0
  6
Continuous
 62
     7
370
    25
100
AcDbSpline
210
0.0
220
0.0
230
1.0
 70
     8
 71
     3
 72
     8
 73
     4
 74
     0
 42
0.00000001
 43
0.00000001
 40
0.0
 40
0.0
 40
0.0
 40
0.0
 40
1.0
 40
1.0
 40
1.0
 40
1.0
 10
69.19546456665611
 20
77.83640804709769
 30
0.0
 10
69.19546456665611
 20
75.74993833014832
 30
0.0
 10
70.76182876909348
 20
73.99576110121671
 30
0.0
 10
72.83460735337705
 20
73.75699158295971
 30
0.0
  0
SPLINE
  5
98
330
1F
100
AcDbEntity
  8
0
  6
Continuous
 62
     7
370
    25
100
AcDbSpline
210
0.0
220
0.0
230
1.0
 70
     8
 71
     3
 72
     8
 73
     4
 74
     0
 42
0.00000001
 43
0.00000001
 40
0.0
 40
0.0
 40
0.0
 40
0.0
 40
1.0
 40
1.0
 40
1.0
 40
1.0
 10
72.83460735337705
 20
81.91865314444779
 30
0.0
 10
70.76080142046924
 20
81.6797603443559
 30
0.0
 10
69.19560154647269
 20
79.92395990459794
 30
0.0
 10
69.19546456665611
 20
77.83640804709769
 30
0.0
  0
LINE
  5
99
330
1F
100
AcDbEntity
  8
0
  6
Continuous
 62
     7
370
    25
100
AcDbLine
 10
72.8349498029
 20
82.579087632
 30
0.0
 11
72.8346073534
 21
81.9186531444
 31
0.0
  0
LINE
  5
9A
330
1F
100
AcDbEntity
  8
0
  6
Continuous
 62
     7
370
    25
100
AcDbLine
 10
38.4818500961
 20
82.579087632
 30
0.0
 11
72.8349498029
 21
82.579087632
 31
0.0
  0
LINE
  5
9B
330
1F
100
AcDbEntity
  8
0
  6
Continuous
 62
     7
370
    25
100
AcDbLine
 10
112.2353448107
 20
30.6608852336
 30
0.0
 11
108.0904040513
 21
30.6608852336
 31
0.0
  0
SPLINE
  5
9C
330
1F
100
AcDbEntity
  8
0
  6
Continuous
 62
     7
370
    25
100
AcDbSpline
210
0.0
220
0.0
230
1.0
 70
     8
 71
     3
 72
     8
 73
     4
 74
     0
 42
0.00000001
 43
0.00000001
 40
0.0
 40
0.0
 40
0.0
 40
0.0
 40
1.0
 40
1.0
 40
1.0
 40
1.0
 10
112.9025050073216
 20
31.34573637347161
 30
0.0
 10
112.9024365174133
 20
30.97336359112654
 30
0.0
 10
112.6053957851889
 20
30.67026835100996
 30
0.0
 10
112.2353448107347
 20
30.66088523357515
 30
0.0
  0
SPLINE
  5
9D
330
1F
100
AcDbEntity
  8
0
  6
Continuous
 62
     7
370
    25
100
AcDbSpline
210
0.0
220
0.0
230
1.0
 70
     8
 71
     3
 72
     8
 73
     4
 74
     0
 42
0.00000001
 43
0.00000001
 40
0.0
 40
0.0
 40
0.0
 40
0.0
 40
1.0
 40
1.0
 40
1.0
 40
1.0
 10
112.2176059244893
 20
32.03059436235889
 30
0.0
 10
112.5958071980292
 20
32.03060806034055
 30
0.0
 10
112.9024365174133
 20
31.72402668389235
 30
0.0
 10
112.9025050073216
 20
31.34573637347161
 30
0.0
  0
LINE
  5
9E
330
1F
100
AcDbEntity
  8
0
  6
Continuous
 62
     7
370
    25
100
AcDbLine
 10
108.1081429376
 20
32.0305943624
 30
0.0
 11
112.2176059245
 21
32.0305943624
 31
0.0
  0
SPLINE
  5
9F
330
1F
100
AcDbEntity
  8
0
  6
Continuous
 62
     7
370
    25
100
AcDbSpline
210
0.0
220
0.0
230
1.0
 70
     8
 71
     3
 72
     8
 73
     4
 74
     0
 42
0.00000001
 43
0.00000001
 40
0.0
 40
0.0
 40
0.0
 40
0.0
 40
1.0
 40
1.0
 40
1.0
 40
1.0
 10
107.4232438547552
 20
31.34573637347161
 30
0.0
 10
107.4233123446635
 20
31.72401983490153
 30
0.0
 10
107.7299416640475
 20
32.03060121134973
 30
0.0
 10
108.1081429375875
 20
32.03059436235889
 30
0.0
  0
SPLINE
  5
A0
330
1F
100
AcDbEntity
  8
0
  6
Continuous
 62
     7
370
    25
100
AcDbSpline
210
0.0
220
0.0
230
1.0
 70
     8
 71
     3
 72
     8
 73
     4
 74
     0
 42
0.00000001
 43
0.00000001
 40
0.0
 40
0.0
 40
0.0
 40
0.0
 40
1.0
 40
1.0
 40
1.0
 40
1.0
 10
108.0904040513421
 20
30.66088523357515
 30
0.0
 10
107.7203530768878
 20
30.67026835100996
 30
0.0
 10
107.4233123446635
 20
30.97337044011736
 30
0.0
 10
107.4232438547552
 20
31.34573637347161
 30
0.0
  0
LINE
  5
A1
330
1F
100
AcDbEntity
  8
0
  6
Continuous
 62
     7
370
    25
100
AcDbLine
 10
122.4189722936
 20
30.6608852336
 30
0.0
 11
118.2741000241
 21
30.6608852336
 31
0.0
  0
SPLINE
  5
A2
330
1F
100
AcDbEntity
  8
0
  6
Continuous
 62
     7
370
    25
100
AcDbSpline
210
0.0
220
0.0
230
1.0
 70
     8
 71
     3
 72
     8
 73
     4
 74
     0
 42
0.00000001
 43
0.00000001
 40
0.0
 40
0.0
 40
0.0
 40
0.0
 40
1.0
 40
1.0
 40
1.0
 40
1.0
 10
123.0861324901378
 20
31.34573637347161
 30
0.0
 10
123.0861324901378
 20
30.97336359112654
 30
0.0
 10
122.7890232680052
 20
30.67026835100996
 30
0.0
 10
122.4189722935509
 20
30.66088523357515
 30
0.0
  0
SPLINE
  5
A3
330
1F
100
AcDbEntity
  8
0
  6
Continuous
 62
     7
370
    25
100
AcDbSpline
210
0.0
220
0.0
230
1.0
 70
     8
 71
     3
 72
     8
 73
     4
 74
     0
 42
0.00000001
 43
0.00000001
 40
0.0
 40
0.0
 40
0.0
 40
0.0
 40
1.0
 40
1.0
 40
1.0
 40
1.0
 10
122.4013018972139
 20
32.03059436235889
 30
0.0
 10
122.7795031707538
 20
32.03060806034055
 30
0.0
 10
123.0860640002296
 20
31.72402668389235
 30
0.0
 10
123.0861324901378
 20
31.34573637347161
 30
0.0
  0
LINE
  5
A4
330
1F
100
AcDbEntity
  8
0
  6
Continuous
 62
     7
370
    25
100
AcDbLine
 10
118.2917704204
 20
32.0305943624
 30
0.0
 11
122.4013018972
 21
32.0305943624
 31
0.0
  0
SPLINE
  5
A5
330
1F
100
AcDbEntity
  8
0
  6
Continuous
 62
     7
370
    25
100
AcDbSpline
210
0.0
220
0.0
230
1.0
 70
     8
 71
     3
 72
     8
 73
     4
 74
     0
 42
0.00000001
 43
0.00000001
 40
0.0
 40
0.0
 40
0.0
 40
0.0
 40
1.0
 40
1.0
 40
1.0
 40
1.0
 10
117.6069398274798
 20
31.34573637347161
 30
0.0
 10
117.6070083173881
 20
31.72401983490153
 30
0.0
 10
117.9135691468638
 20
32.03060121134973
 30
0.0
 10
118.2917704204038
 20
32.03059436235889
 30
0.0
  0
SPLINE
  5
A6
330
1F
100
AcDbEntity
  8
0
  6
Continuous
 62
     7
370
    25
100
AcDbSpline
210
0.0
220
0.0
230
1.0
 70
     8
 71
     3
 72
     8
 73
     4
 74
     0
 42
0.00000001
 43
0.00000001
 40
0.0
 40
0.0
 40
0.0
 40
0.0
 40
1.0
 40
1.0
 40
1.0
 40
1.0
 10
118.2741000240667
 20
30.66088523357515
 30
0.0
 10
117.9040490496124
 20
30.67026835100996
 30
0.0
 10
117.6070083173881
 20
30.97337044011736
 30
0.0
 10
117.6069398274798
 20
31.34573637347161
 30
0.0
  0
SPLINE
  5
A7
330
1F
100
AcDbEntity
  8
0
  6
Continuous
 62
     7
370
    25
100
AcDbSpline
210
0.0
220
0.0
230
1.0
 70
     8
 71
     3
 72
     8
 73
     4
 74
     0
 42
0.00000001
 43
0.00000001
 40
0.0
 40
0.0
 40
0.0
 40
0.0
 40
1.0
 40
1.0
 40
1.0
 40
1.0
 10
44.35095580664078
 20
18.40850637308236
 30
0.0
 10
43.40538413288256
 20
18.4084652791374
 30
0.0
 10
42.63863960965184
 20
19.17489474879001
 30
0.0
 10
42.638434139927
 20
20.12045272456657
 30
0.0
  0
LINE
  5
A8
330
1F
100
AcDbEntity
  8
0
  6
Continuous
 62
     7
370
    25
100
AcDbLine
 10
66.9522830906
 20
18.4084858261
 30
0.0
 11
44.3509558066
 21
18.4085063731
 31
0.0
  0
SPLINE
  5
A9
330
1F
100
AcDbEntity
  8
0
  6
Continuous
 62
     7
370
    25
100
AcDbSpline
210
0.0
220
0.0
230
1.0
 70
     8
 71
     3
 72
     8
 73
     4
 74
     0
 42
0.00000001
 43
0.00000001
 40
0.0
 40
0.0
 40
0.0
 40
0.0
 40
1.0
 40
1.0
 40
1.0
 40
1.0
 10
68.66459928755282
 20
20.12045272456657
 30
0.0
 10
68.66446230773626
 20
19.17489474879001
 30
0.0
 10
67.89785476432212
 20
18.40844473216492
 30
0.0
 10
66.95228309056391
 20
18.40848582610989
 30
0.0
  0
LINE
  5
AA
330
1F
100
AcDbEntity
  8
0
  6
Continuous
 62
     7
370
    25
100
AcDbLine
 10
68.6645992876
 20
28.3398033358
 30
0.0
 11
68.6645992876
 21
20.1204527246
 31
0.0
  0
SPLINE
  5
AB
330
1F
100
AcDbEntity
  8
0
  6
Continuous
 62
     7
370
    25
100
AcDbSpline
210
0.0
220
0.0
230
1.0
 70
     8
 71
     3
 72
     8
 73
     4
 74
     0
 42
0.00000001
 43
0.00000001
 40
0.0
 40
0.0
 40
0.0
 40
0.0
 40
1.0
 40
1.0
 40
1.0
 40
1.0
 10
66.95228309056391
 20
30.05176338526745
 30
0.0
 10
67.89785476432212
 20
30.05181132820326
 30
0.0
 10
68.66446230773626
 20
29.28536131157816
 30
0.0
 10
68.66459928755282
 20
28.33980333580159
 30
0.0
  0
LINE
  5
AC
330
1F
100
AcDbEntity
  8
0
  6
Continuous
 62
     7
370
    25
100
AcDbLine
 10
44.3509558066
 20
30.0517633853
 30
0.0
 11
66.9522830906
 21
30.0517633853
 31
0.0
  0
SPLINE
  5
AD
330
1F
100
AcDbEntity
  8
0
  6
Continuous
 62
     7
370
    25
100
AcDbSpline
210
0.0
220
0.0
230
1.0
 70
     8
 71
     3
 72
     8
 73
     4
 74
     0
 42
0.00000001
 43
0.00000001
 40
0.0
 40
0.0
 40
0.0
 40
0.0
 40
1.0
 40
1.0
 40
1.0
 40
1.0
 10
42.63863960965184
 20
28.33980333580159
 30
0.0
 10
42.63877658946841
 20
29.28536131157816
 30
0.0
 10
43.40538413288256
 20
30.05181132820326
 30
0.0
 10
44.35095580664078
 20
30.05176338526745
 30
0.0
  0
LINE
  5
AE
330
1F
100
AcDbEntity
  8
0
  6
Continuous
 62
     7
370
    25
100
AcDbLine
 10
42.6384341399
 20
20.1204527246
 30
0.0
 11
42.6386396097
 21
28.3398033358
 31
0.0
  0
LINE
  5
AF
330
1F
100
AcDbEntity
  8
0
  6
Continuous
 62
     7
370
    25
100
AcDbLine
 10
38.8242996375
 20
82.579087632
 30
0.0
 11
38.8241626577
 21
38.4027789962
 31
0.0
  0
LINE
  5
B0
330
1F
100
AcDbEntity
  8
0
  6
Continuous
 62
     7
370
    25
100
AcDbLine
 10
127.1765552825
 20
86.0033707275
 30
0.0
 11
127.1765552825
 21
94.5649722594
 31
0.0
  0
SPLINE
  5
B1
330
1F
100
AcDbEntity
  8
0
  6
Continuous
 62
     7
370
    25
100
AcDbSpline
210
0.0
220
0.0
230
1.0
 70
     8
 71
     3
 72
     8
 73
     4
 74
     0
 42
0.00000001
 43
0.00000001
 40
0.0
 40
0.0
 40
0.0
 40
0.0
 40
1.0
 40
1.0
 40
1.0
 40
1.0
 10
127.1765552825369
 20
94.56497225940403
 30
0.0
 10
127.1763498128121
 20
95.51052338618975
 30
0.0
 10
126.4097422693979
 20
96.27698025180568
 30
0.0
 10
125.464239085548
 20
96.2769391578607
 30
0.0
  0
SPLINE
  5
B2
330
1F
100
AcDbEntity
  8
0
  6
Continuous
 62
     7
370
    25
100
AcDbSpline
210
0.0
220
0.0
230
1.0
 70
     8
 71
     3
 72
     8
 73
     4
 74
     0
 42
0.00000001
 43
0.00000001
 40
0.0
 40
0.0
 40
0.0
 40
0.0
 40
1.0
 40
1.0
 40
1.0
 40
1.0
 10
38.82416265772586
 20
38.40277899618614
 30
0.0
 10
38.82429963754243
 20
37.4572210204096
 30
0.0
 10
39.59090718095657
 20
36.6907710037845
 30
0.0
 10
40.53647885471479
 20
36.69081209772947
 30
0.0
  0
SPLINE
  5
B3
330
1F
100
AcDbEntity
  8
0
  6
Continuous
 62
     7
370
    25
100
AcDbSpline
210
0.0
220
0.0
230
1.0
 70
     8
 71
     3
 72
     8
 73
     4
 74
     0
 42
0.00000001
 43
0.00000001
 40
0.0
 40
0.0
 40
0.0
 40
0.0
 40
1.0
 40
1.0
 40
1.0
 40
1.0
 10
125.4599242213262
 20
36.69081209772947
 30
0.0
 10
126.4054958950844
 20
36.6907710037845
 30
0.0
 10
127.1721034384985
 20
37.4572210204096
 30
0.0
 10
127.1723089082234
 20
38.40277899618614
 30
0.0
  0
SPLINE
  5
B4
330
1F
100
AcDbEntity
  8
0
  6
Continuous
 62
     7
370
    25
100
AcDbSpline
210
0.0
220
0.0
230
1.0
 70
     8
 71
     3
 72
     8
 73
     4
 74
     0
 42
0.00000001
 43
0.00000001
 40
0.0
 40
0.0
 40
0.0
 40
0.0
 40
1.0
 40
1.0
 40
1.0
 40
1.0
 10
40.53661583453136
 20
96.2769391578607
 30
0.0
 10
39.59111265068142
 20
96.27698025180568
 30
0.0
 10
38.82450510726729
 20
95.51051653719892
 30
0.0
 10
38.82429963754243
 20
94.56497225940403
 30
0.0
  0
SPLINE
  5
B5
330
1F
100
AcDbEntity
  8
0
  6
Continuous
 62
     7
370
    25
100
AcDbSpline
210
0.0
220
0.0
230
1.0
 70
     8
 71
     3
 72
     8
 73
     4
 74
     0
 42
0.00000001
 43
0.00000001
 40
0.0
 40
0.0
 40
0.0
 40
0.0
 40
1.0
 40
1.0
 40
1.0
 40
1.0
 10
38.13946904461846
 20
11.79707279164015
 30
0.0
 10
35.31131526187921
 20
11.79695635879606
 30
0.0
 10
33.01724578393255
 20
14.08240980628069
 30
0.0
 10
33.00286290319308
 20
16.90713909360577
 30
0.0
  0
SPLINE
  5
B6
330
1F
100
AcDbEntity
  8
0
  6
Continuous
 62
     7
370
    25
100
AcDbSpline
210
0.0
220
0.0
230
1.0
 70
     8
 71
     3
 72
     8
 73
     4
 74
     0
 42
0.00000001
 43
0.00000001
 40
0.0
 40
0.0
 40
0.0
 40
0.0
 40
1.0
 40
1.0
 40
1.0
 40
1.0
 10
33.00286290319308
 20
97.09348954239499
 30
0.0
 10
33.01724578393255
 20
99.91819143375676
 30
0.0
 10
35.31131526187921
 20
102.2036722772047
 30
0.0
 10
38.13946904461846
 20
102.2035489953698
 30
0.0
  0
SPLINE
  5
B7
330
1F
100
AcDbEntity
  8
0
  6
Continuous
 62
     7
370
    25
100
AcDbSpline
210
0.0
220
0.0
230
1.0
 70
     8
 71
     3
 72
     8
 73
     4
 74
     0
 42
0.00000001
 43
0.00000001
 40
0.0
 40
0.0
 40
0.0
 40
0.0
 40
1.0
 40
1.0
 40
1.0
 40
1.0
 10
132.9979920168863
 20
16.93367893306552
 30
0.0
 10
132.997923526978
 20
14.09672419711188
 30
0.0
 10
130.6980324068273
 20
11.79694950980523
 30
0.0
 10
127.8610434259195
 20
11.79707279164015
 30
0.0
  0
SPLINE
  5
B8
330
1F
100
AcDbEntity
  8
0
  6
Continuous
 62
     7
370
    25
100
AcDbSpline
210
0.0
220
0.0
230
1.0
 70
     8
 71
     3
 72
     8
 73
     4
 74
     0
 42
0.00000001
 43
0.00000001
 40
0.0
 40
0.0
 40
0.0
 40
0.0
 40
1.0
 40
1.0
 40
1.0
 40
1.0
 10
127.8610434259195
 20
102.2035489953698
 30
0.0
 10
130.6980324068273
 20
102.2036722772047
 30
0.0
 10
132.997923526978
 20
99.90387704292557
 30
0.0
 10
132.9979920168863
 20
97.06694285394443
 30
0.0
  0
LINE
  5
B9
330
1F
100
AcDbEntity
  8
0
  6
Continuous
 62
     7
370
    25
100
AcDbLine
 10
127.1723089082
 20
38.4027789962
 30
0.0
 11
127.1723089082
 21
82.579087632
 31
0.0
  0
LINE
  5
BA
330
1F
100
AcDbEntity
  8
0
  6
Continuous
 62
     7
370
    25
100
AcDbLine
 10
38.1394690446
 20
102.2035489954
 30
0.0
 11
127.8610434259
 21
102.2035489954
 31
0.0
  0
LINE
  5
BB
330
1F
100
AcDbEntity
  8
0
  6
Continuous
 62
     7
370
    25
100
AcDbLine
 10
38.8242996375
 20
94.5649722594
 30
0.0
 11
38.8242996375
 21
86.0033707275
 31
0.0
  0
SPLINE
  5
BC
330
1F
100
AcDbEntity
  8
0
  6
Continuous
 62
     7
370
    25
100
AcDbSpline
210
0.0
220
0.0
230
1.0
 70
    24
 71
     3
 72
     8
 73
     4
 74
     0
 42
0.00000001
 43
0.00000001
 40
0.0
 40
0.0
 40
0.0
 40
0.0
 40
1.0
 40
1.0
 40
1.0
 40
1.0
 10
38.13946904461846
 20
158.6857427066858
 30
0.0
 10
35.31131526187921
 20
158.6857427066858
 30
0.0
 10
33.01724578393255
 20
158.6857427066858
 30
0.0
 10
33.00286290319308
 20
158.6857427066858
 30
0.0
  0
LINE
  5
BD
330
1F
100
AcDbEntity
  8
0
  6
Continuous
 62
     7
370
    25
100
AcDbLine
 10
33.0028629032
 20
157.6583940824
 30
0.0
 11
33.0028629032
 21
158.6857427067
 31
0.0
  0
LINE
  5
BE
330
1F
100
AcDbEntity
  8
0
  6
Continuous
 62
     7
370
    25
100
AcDbLine
 10
127.8610583071
 20
157.315944541
 30
0.0
 11
38.1394541169
 21
157.315944541
 31
0.0
  0
LINE
  5
BF
330
1F
100
AcDbEntity
  8
0
  6
Continuous
 62
     7
370
    25
100
AcDbLine
 10
127.8610434259
 20
158.6857427067
 30
0.0
 11
38.1394690446
 21
158.6857427067
 31
0.0
  0
SPLINE
  5
C0
330
1F
100
AcDbEntity
  8
0
  6
Continuous
 62
     7
370
    25
100
AcDbSpline
210
0.0
220
0.0
230
1.0
 70
    24
 71
     3
 72
     8
 73
     4
 74
     0
 42
0.00000001
 43
0.00000001
 40
0.0
 40
0.0
 40
0.0
 40
0.0
 40
1.0
 40
1.0
 40
1.0
 40
1.0
 10
132.9979920168863
 20
158.6857427066858
 30
0.0
 10
132.997923526978
 20
158.6857427066858
 30
0.0
 10
130.6980324068273
 20
158.6857427066858
 30
0.0
 10
127.8610434259195
 20
158.6857427066858
 30
0.0
  0
LINE
  5
C1
330
1F
100
AcDbEntity
  8
0
  6
Continuous
 62
     7
370
    25
100
AcDbLine
 10
132.9979920169
 20
157.6583940824
 30
0.0
 11
132.9979920169
 21
158.6857427067
 31
0.0
  0
SPLINE
  5
C2
330
1F
100
AcDbEntity
  8
0
  6
Continuous
 62
     7
370
    25
100
AcDbSpline
210
0.0
220
0.0
230
1.0
 70
    24
 71
     3
 72
    28
 73
    24
 74
     0
 42
0.00000001
 43
0.00000001
 40
0.0000000000000792
 40
0.0000000000000792
 40
0.0000000000000792
 40
0.0000000000000792
 40
0.0013640015197455
 40
0.0013640015197455
 40
0.0020460022795787
 40
0.0020460022795787
 40
0.0027280030394119
 40
0.0027280030394119
 40
0.0040920045590781
 40
0.0040920045590781
 40
0.0054560060787444
 40
0.0054560060787444
 40
0.0068200075984107
 40
0.0068200075984107
 40
0.0075020083582439
 40
0.0075020083582439
 40
0.008184009118077
 40
0.008184009118077
 40
0.0088660098779102
 40
0.0088660098779102
 40
0.0095480106377433
 40
0.0095480106377433
 40
0.0109120121574097
 40
0.0109120121574097
 40
0.0109120121574097
 40
0.0109120121574097
 10
38.13945411692672
 20
157.3159445410213
 30
0.0
 10
37.82363314340571
 20
157.3159445410213
 30
0.0
 10
37.512933201513
 20
157.3159445410213
 30
0.0
 10
37.05446701957759
 20
157.3159445410213
 30
0.0
 10
36.9029148987434
 20
157.3159445410213
 30
0.0
 10
36.60241671207716
 20
157.3159445410213
 30
0.0
 10
36.45304983415915
 20
157.3159445410213
 30
0.0
 10
36.01861183611097
 20
157.3159445410213
 30
0.0
 10
35.74394025483817
 20
157.3159445410213
 30
0.0
 10
35.22396313509218
 20
157.3159445410213
 30
0.0
 10
34.97765552628569
 20
157.3159445410213
 30
0.0
 10
34.53552393384862
 20
157.3159445410213
 30
0.0
 10
34.33682101081769
 20
157.3159445410213
 30
0.0
 10
34.07324536771412
 20
157.3159445410213
 30
0.0
 10
33.99131449429594
 20
157.3159445410213
 30
0.0
 10
33.84272633672254
 20
157.3159445410213
 30
0.0
 10
33.77555400958985
 20
157.3159445410213
 30
0.0
 10
33.65528603827114
 20
157.3159445410213
 30
0.0
 10
33.60219124196121
 20
157.3159445410213
 30
0.0
 10
33.51028957817771
 20
157.3159445410213
 30
0.0
 10
33.47133471910131
 20
157.3159445410213
 30
0.0
 10
33.37788721758168
 20
157.3159445410213
 30
0.0
 10
33.34689216199617
 20
157.3159445410213
 30
0.0
 10
33.34530800540968
 20
157.3159445410213
 30
0.0
  0
ARC
  5
C3
330
1F
100
AcDbEntity
  8
0
  6
Continuous
 62
     7
370
    25
100
AcDbCircle
 10
33.345310225
 20
157.6583918629
 30
0.0
 40
0.342447321837869
100
AcDbArc
 50
179.9996286352
 51
269.9996286304
  0
SPLINE
  5
C4
330
1F
100
AcDbEntity
  8
0
  6
Continuous
 62
     7
370
    25
100
AcDbSpline
210
0.0
220
0.0
230
1.0
 70
    24
 71
     3
 72
    22
 73
    18
 74
     0
 42
0.00000001
 43
0.00000001
 40
0.0
 40
0.0
 40
0.0
 40
0.0
 40
0.125
 40
0.125
 40
0.25
 40
0.25
 40
0.375
 40
0.375
 40
0.5
 40
0.5
 40
0.625
 40
0.625
 40
0.75
 40
0.75
 40
0.875
 40
0.875
 40
1.0
 40
1.0
 40
1.0
 40
1.0
 10
132.6555424753633
 20
157.3159445410213
 30
0.0
 10
132.655534298684
 20
157.3159445410213
 30
0.0
 10
132.6250868159788
 20
157.3159445410213
 30
0.0
 10
132.5019916894827
 20
157.3159445410213
 30
0.0
 10
132.4099791853166
 20
157.3159445410213
 30
0.0
 10
132.1704012563135
 20
157.3159445410213
 30
0.0
 10
132.021126973282
 20
157.3159445410213
 30
0.0
 10
131.6699170847866
 20
157.3159445410213
 30
0.0
 10
131.471200066716
 20
157.3159445410213
 30
0.0
 10
131.0288553102331
 20
157.3159445410213
 30
0.0
 10
130.7823055679072
 20
157.3159445410213
 30
0.0
 10
130.2615337048038
 20
157.3159445410213
 30
0.0
 10
129.986396160344
 20
157.3159445410213
 30
0.0
 10
129.4060915117476
 20
157.3159445410213
 30
0.0
 10
129.1016343293255
 20
157.3159445410213
 30
0.0
 10
128.4889974879606
 20
157.3159445410213
 30
0.0
 10
128.1776001539931
 20
157.3159445410213
 30
0.0
 10
127.8610583071222
 20
157.3159445410213
 30
0.0
  0
SPLINE
  5
C5
330
1F
100
AcDbEntity
  8
0
  6
Continuous
 62
     7
370
    25
100
AcDbSpline
210
0.0
220
0.0
230
1.0
 70
     8
 71
     3
 72
    10
 73
     6
 74
     0
 42
0.00000001
 43
0.00000001
 40
0.0
 40
0.0
 40
0.0
 40
0.0
 40
0.5
 40
0.5
 40
1.0
 40
1.0
 40
1.0
 40
1.0
 10
132.9979920168863
 20
157.6583940824374
 30
0.0
 10
132.9979920168863
 20
157.5687410021248
 30
0.0
 10
132.9610851694352
 20
157.4796399904835
 30
0.0
 10
132.8342965673287
 20
157.3528513884166
 30
0.0
 10
132.745195555676
 20
157.3159445409933
 30
0.0
 10
132.6555424753633
 20
157.3159445410213
 30
0.0
  0
SPLINE
  5
C6
330
1F
100
AcDbEntity
  8
0
  6
HIDDEN
 62
     7
370
    18
100
AcDbSpline
210
0.0
220
0.0
230
1.0
 70
     8
 71
     3
 72
    10
 73
     6
 74
     0
 42
0.00000001
 43
0.00000001
 40
0.0
 40
0.0
 40
0.0
 40
0.0
 40
0.5
 40
0.5
 40
1.0
 40
1.0
 40
1.0
 40
1.0
 10
127.5190048320383
 20
157.3159445410213
 30
0.0
 10
127.4293517503959
 20
157.3159445389046
 30
0.0
 10
127.340250736594
 20
157.3528513853941
 30
0.0
 10
127.2134621311301
 20
157.4796399878645
 30
0.0
 10
127.1765552825369
 20
157.568741000795
 30
0.0
 10
127.1765552825369
 20
157.6583940824374
 30
0.0
  0
ARC
  5
C7
330
1F
100
AcDbEntity
  8
0
  6
HIDDEN
 62
     7
370
    18
100
AcDbCircle
 10
38.4818500921
 20
157.6583940784
 30
0.0
 40
0.3424495373733834
100
AcDbArc
 50
270.0000006764
 51
0.0000006764
  0
LINE
  5
C8
330
1F
100
AcDbEntity
  8
0
  6
HIDDEN
 62
     7
370
    18
100
AcDbLine
 10
127.1765552825
 20
157.6583940824
 30
0.0
 11
127.1765552825
 21
158.6857427067
 31
0.0
  0
LINE
  5
C9
330
1F
100
AcDbEntity
  8
0
  6
HIDDEN
 62
     7
370
    18
100
AcDbLine
 10
38.8242996375
 20
157.6583940824
 30
0.0
 11
38.8242996375
 21
158.6857427067
 31
0.0
  0
LINE
  5
CA
330
1F
100
AcDbEntity
  8
0
  6
HIDDEN
 62
     7
370
    18
100
AcDbLine
 10
72.8350182928
 20
157.315944541
 30
0.0
 11
72.8350182928
 21
158.6857427067
 31
0.0
  0
LINE
  5
CB
330
1F
100
AcDbEntity
  8
0
  6
HIDDEN
 62
     7
370
    18
100
AcDbLine
 10
93.3821277576
 20
157.315944541
 30
0.0
 11
93.3821277576
 21
158.6857427067
 31
0.0
  0
LINE
  5
CC
330
1F
100
AcDbEntity
  8
0
  6
HIDDEN
 62
     7
370
    18
100
AcDbLine
 10
72.8349498029
 20
157.315944541
 30
0.0
 11
72.8349498029
 21
158.6857427067
 31
0.0
  0
LINE
  5
CD
330
1F
100
AcDbEntity
  8
0
  6
HIDDEN
 62
     7
370
    18
100
AcDbLine
 10
72.8346073534
 20
157.315944541
 30
0.0
 11
72.8346073534
 21
158.6857427067
 31
0.0
  0
LINE
  5
CE
330
1F
100
AcDbEntity
  8
0
  6
HIDDEN
 62
     7
370
    18
100
AcDbLine
 10
93.3778128934
 20
157.315944541
 30
0.0
 11
93.3778128934
 21
158.6857427067
 31
0.0
  0
ARC
  5
CF
330
1F
100
AcDbEntity
  8
0
  6
HIDDEN
 62
     7
370
    18
100
AcDbCircle
 10
127.5147584496
 20
157.6583940824
 30
0.0
 40
0.3424495414161299
100
AcDbArc
 50
180.0
 51
270.0
  0
LINE
  5
D0
330
1F
100
AcDbEntity
  8
0
  6
HIDDEN
 62
     7
370
    18
100
AcDbLine
 10
127.1723089082
 20
157.6583940824
 30
0.0
 11
127.1723089082
 21
158.6857427067
 31
0.0
  0
LINE
  5
D1
330
1F
100
AcDbEntity
  8
0
  6
HIDDEN
 62
     7
370
    18
100
AcDbLine
 10
69.1954645667
 20
157.315944541
 30
0.0
 11
69.1954645667
 21
158.6857427067
 31
0.0
  0
LINE
  5
D2
330
1F
100
AcDbEntity
  8
0
  6
HIDDEN
 62
     7
370
    18
100
AcDbLine
 10
96.8021028378
 20
157.315944541
 30
0.0
 11
96.8021028378
 21
158.6857427067
 31
0.0
  0
LINE
  5
D3
330
1F
100
AcDbEntity
  8
0
  6
HIDDEN
 62
     7
370
    18
100
AcDbLine
 10
90.6483530685
 20
157.315944541
 30
0.0
 11
90.6483530685
 21
158.6857427067
 31
0.0
  0
LINE
  5
D4
330
1F
100
AcDbEntity
  8
0
  6
HIDDEN
 62
     7
370
    18
100
AcDbLine
 10
93.3771279943
 20
157.315944541
 30
0.0
 11
93.3771279943
 21
158.6857427067
 31
0.0
  0
LINE
  5
D5
330
1F
100
AcDbEntity
  8
0
  6
HIDDEN
 62
     7
370
    18
100
AcDbLine
 10
75.5592043948
 20
157.315944541
 30
0.0
 11
75.5592043948
 21
158.6857427067
 31
0.0
  0
LINE
  5
D6
330
1F
100
AcDbEntity
  8
0
  6
HIDDEN
 62
     7
370
    18
100
AcDbLine
 10
79.4340209559
 20
157.315944541
 30
0.0
 11
79.4340209559
 21
158.6857427067
 31
0.0
  0
LINE
  5
D7
330
1F
100
AcDbEntity
  8
0
  6
HIDDEN
 62
     7
370
    18
100
AcDbLine
 10
86.7788102303
 20
157.315944541
 30
0.0
 11
86.7788102303
 21
158.6857427067
 31
0.0
  0
LINE
  5
D8
330
1F
100
AcDbEntity
  8
0
  6
HIDDEN
 62
     7
370
    18
100
AcDbLine
 10
79.4336785064
 20
157.315944541
 30
0.0
 11
79.4336785064
 21
158.6857427067
 31
0.0
  0
LINE
  5
D9
330
1F
100
AcDbEntity
  8
0
  6
HIDDEN
 62
     7
370
    18
100
AcDbLine
 10
79.4329936073
 20
157.315944541
 30
0.0
 11
79.4329936073
 21
158.6857427067
 31
0.0
  0
LINE
  5
DA
330
1F
100
AcDbEntity
  8
0
  6
HIDDEN
 62
     7
370
    18
100
AcDbLine
 10
86.1934269842
 20
157.315944541
 30
0.0
 11
86.1934269842
 21
158.6857427067
 31
0.0
  0
LINE
  5
DB
330
1F
100
AcDbEntity
  8
0
  6
HIDDEN
 62
     7
370
    18
100
AcDbLine
 10
38.8241626577
 20
157.6583940824
 30
0.0
 11
38.8241626577
 21
158.6857427067
 31
0.0
  0
LINE
  5
DC
330
1F
100
AcDbEntity
  8
0
  6
HIDDEN
 62
     7
370
    18
100
AcDbLine
 10
122.4189722936
 20
157.315944541
 30
0.0
 11
122.4189722936
 21
158.6857427067
 31
0.0
  0
LINE
  5
DD
330
1F
100
AcDbEntity
  8
0
  6
HIDDEN
 62
     7
370
    18
100
AcDbLine
 10
123.0861324901
 20
157.315944541
 30
0.0
 11
123.0861324901
 21
158.6857427067
 31
0.0
  0
LINE
  5
DE
330
1F
100
AcDbEntity
  8
0
  6
HIDDEN
 62
     7
370
    18
100
AcDbLine
 10
112.2353448107
 20
157.315944541
 30
0.0
 11
112.2353448107
 21
158.6857427067
 31
0.0
  0
LINE
  5
DF
330
1F
100
AcDbEntity
  8
0
  6
HIDDEN
 62
     7
370
    18
100
AcDbLine
 10
112.9025050073
 20
157.315944541
 30
0.0
 11
112.9025050073
 21
158.6857427067
 31
0.0
  0
LINE
  5
E0
330
1F
100
AcDbEntity
  8
0
  6
HIDDEN
 62
     7
370
    18
100
AcDbLine
 10
118.2741000241
 20
157.315944541
 30
0.0
 11
118.2741000241
 21
158.6857427067
 31
0.0
  0
LINE
  5
E1
330
1F
100
AcDbEntity
  8
0
  6
HIDDEN
 62
     7
370
    18
100
AcDbLine
 10
117.6069398275
 20
157.315944541
 30
0.0
 11
117.6069398275
 21
158.6857427067
 31
0.0
  0
LINE
  5
E2
330
1F
100
AcDbEntity
  8
0
  6
HIDDEN
 62
     7
370
    18
100
AcDbLine
 10
108.0904040513
 20
157.315944541
 30
0.0
 11
108.0904040513
 21
158.6857427067
 31
0.0
  0
LINE
  5
E3
330
1F
100
AcDbEntity
  8
0
  6
HIDDEN
 62
     7
370
    18
100
AcDbLine
 10
107.4232438548
 20
157.315944541
 30
0.0
 11
107.4232438548
 21
158.6857427067
 31
0.0
  0
LINE
  5
E4
330
1F
100
AcDbEntity
  8
0
  6
HIDDEN
 62
     7
370
    18
100
AcDbLine
 10
68.6645992876
 20
157.315944541
 30
0.0
 11
68.6645992876
 21
158.6857427067
 31
0.0
  0
LINE
  5
E5
330
1F
100
AcDbEntity
  8
0
  6
HIDDEN
 62
     7
370
    18
100
AcDbLine
 10
42.6384341399
 20
157.315944541
 30
0.0
 11
42.6384341399
 21
158.6857427067
 31
0.0
  0
LINE
  5
E6
330
1F
100
AcDbEntity
  8
0
  6
HIDDEN
 62
     7
370
    18
100
AcDbLine
 10
79.4338754658
 20
157.315944541
 30
0.0
 11
79.4338754658
 21
158.6857427067
 31
0.0
  0
LINE
  5
E7
330
1F
100
AcDbEntity
  8
0
  6
HIDDEN
 62
     7
370
    18
100
AcDbLine
 10
79.4333644797
 20
157.315944541
 30
0.0
 11
79.4333644797
 21
158.6857427067
 31
0.0
  0
SPLINE
  5
E8
330
1F
100
AcDbEntity
  8
0
  6
Continuous
 62
     7
370
    25
100
AcDbSpline
210
0.0
220
0.0
230
1.0
 70
     8
 71
     3
 72
    11
 73
     7
 74
     0
 42
0.00000001
 43
0.00000001
 40
0.0
 40
0.0
 40
0.0
 40
0.0
 40
0.2450586404267081
 40
0.4965701356368521
 40
0.7500291639677987
 40
1.0
 40
1.0
 40
1.0
 40
1.0
 10
222.6583940824374
 20
102.1788795913284
 30
0.0
 10
222.6268763497253
 20
102.1802943362397
 30
0.0
 10
222.5630109631364
 20
102.1831610789562
 30
0.0
 10
222.4683923259594
 20
102.1462834239204
 30
0.0
 10
222.3870933722345
 20
102.0803268454042
 30
0.0
 10
222.3555882115506
 20
102.0179935233175
 30
0.0
 10
222.3399447785463
 20
101.9870428115349
 30
0.0
  0
SPLINE
  5
E9
330
1F
100
AcDbEntity
  8
0
  6
Continuous
 62
     7
370
    25
100
AcDbSpline
210
0.0
220
0.0
230
1.0
 70
     8
 71
     3
 72
    11
 73
     7
 74
     0
 42
0.00000001
 43
0.00000001
 40
0.0
 40
0.0
 40
0.0
 40
0.0
 40
0.1716027314791511
 40
0.4516048089969383
 40
0.7292377714846798
 40
1.0
 40
1.0
 40
1.0
 40
1.0
 10
222.3594879660026
 20
11.98044114538191
 30
0.0
 10
222.3696044656507
 20
11.96105348506442
 30
0.0
 10
222.3962279340064
 20
11.91003121660106
 30
0.0
 10
222.4686742572927
 20
11.8525782138688
 30
0.0
 10
222.5629864413049
 20
11.81415811227515
 30
0.0
 10
222.6268582812411
 20
11.81633372394591
 30
0.0
 10
222.6583940824374
 20
11.81740790087893
 30
0.0
  0
SPLINE
  5
EA
330
1F
100
AcDbEntity
  8
0
  6
Continuous
 62
     7
370
    25
100
AcDbSpline
210
0.0
220
0.0
230
1.0
 70
     8
 71
     3
 72
     9
 73
     5
 74
     0
 42
0.00000001
 43
0.00000001
 40
0.0
 40
0.0
 40
0.0
 40
0.0
 40
0.4892967957859217
 40
1.0
 40
1.0
 40
1.0
 40
1.0
 10
222.4771572137441
 20
11.85667416079539
 30
0.0
 10
222.5058805678939
 20
11.84334264537196
 30
0.0
 10
222.5645839037777
 20
11.81609636961817
 30
0.0
 10
222.6266809314388
 20
11.81975996033974
 30
0.0
 10
222.6583940824374
 20
11.82163096786017
 30
0.0
  0
SPLINE
  5
EB
330
1F
100
AcDbEntity
  8
0
  6
Continuous
 62
     7
370
    25
100
AcDbSpline
210
0.0
220
0.0
230
1.0
 70
    24
 71
     3
 72
     8
 73
     4
 74
     0
 42
0.00000001
 43
0.00000001
 40
0.0
 40
0.0
 40
0.0
 40
0.0
 40
1.0
 40
1.0
 40
1.0
 40
1.0
 10
223.6857427066858
 20
11.79707279164015
 30
0.0
 10
223.6857427066858
 20
11.79694950980523
 30
0.0
 10
223.6857427066858
 20
14.09672419711188
 30
0.0
 10
223.6857427066858
 20
16.93367893306552
 30
0.0
  0
LINE
  5
EC
330
1F
100
AcDbEntity
  8
0
  6
Continuous
 62
     7
370
    25
100
AcDbLine
 10
222.6583940824
 20
11.7970727916
 30
0.0
 11
223.6857427067
 21
11.7970727916
 31
0.0
  0
LINE
  5
ED
330
1F
100
AcDbEntity
  8
0
  6
Continuous
 62
     7
370
    25
100
AcDbLine
 10
222.6583940824
 20
11.8426204558
 30
0.0
 11
222.6583940824
 21
11.7970727916
 31
0.0
  0
LINE
  5
EE
330
1F
100
AcDbEntity
  8
0
  6
Continuous
 62
     7
370
    25
100
AcDbLine
 10
223.6857427067
 20
16.9336789331
 30
0.0
 11
223.6857427067
 21
97.0669428539
 31
0.0
  0
LINE
  5
EF
330
1F
100
AcDbEntity
  8
0
  6
Continuous
 62
     7
370
    25
100
AcDbLine
 10
222.315944541
 20
16.9336872005
 30
0.0
 11
222.315944541
 21
97.0669428539
 31
0.0
  0
SPLINE
  5
F0
330
1F
100
AcDbEntity
  8
0
  6
Continuous
 62
     7
370
    25
100
AcDbSpline
210
0.0
220
0.0
230
1.0
 70
    24
 71
     3
 72
     8
 73
     4
 74
     0
 42
0.00000001
 43
0.00000001
 40
0.0
 40
0.0
 40
0.0
 40
0.0
 40
1.0
 40
1.0
 40
1.0
 40
1.0
 10
223.6857427066858
 20
97.06694285394443
 30
0.0
 10
223.6857427066858
 20
99.90387704292557
 30
0.0
 10
223.6857427066858
 20
102.2036722772047
 30
0.0
 10
223.6857427066858
 20
102.2035489953698
 30
0.0
  0
LINE
  5
F1
330
1F
100
AcDbEntity
  8
0
  6
Continuous
 62
     7
370
    25
100
AcDbLine
 10
222.6583940824
 20
102.2035489954
 30
0.0
 11
222.6583940824
 21
102.1532528926
 31
0.0
  0
LINE
  5
F2
330
1F
100
AcDbEntity
  8
0
  6
Continuous
 62
     7
370
    25
100
AcDbLine
 10
222.6583940824
 20
102.2035489954
 30
0.0
 11
223.6857427067
 21
102.2035489954
 31
0.0
  0
SPLINE
  5
F3
330
1F
100
AcDbEntity
  8
0
  6
Continuous
 62
     7
370
    25
100
AcDbSpline
210
0.0
220
0.0
230
1.0
 70
    24
 71
     3
 72
    22
 73
    18
 74
     0
 42
0.00000001
 43
0.00000001
 40
0.0
 40
0.0
 40
0.0
 40
0.0
 40
0.125
 40
0.125
 40
0.25
 40
0.25
 40
0.375
 40
0.375
 40
0.5
 40
0.5
 40
0.625
 40
0.625
 40
0.75
 40
0.75
 40
0.875
 40
0.875
 40
1.0
 40
1.0
 40
1.0
 40
1.0
 10
222.3159445410213
 20
97.06694285394443
 30
0.0
 10
222.3159445410213
 20
97.38353526395893
 30
0.0
 10
222.3159445410213
 20
97.69677332708666
 30
0.0
 10
222.3159445410213
 20
98.31639512767146
 30
0.0
 10
222.3159445410213
 20
98.61787719056245
 30
0.0
 10
222.3159445410213
 20
99.19410157511143
 30
0.0
 10
222.3159445410213
 20
99.47264875016437
 30
0.0
 10
222.3159445410213
 20
99.99610321509525
 30
0.0
 10
222.3159445410213
 20
100.2371757309373
 30
0.0
 10
222.3159445410213
 20
100.6791851084559
 30
0.0
 10
222.3159445410213
 20
100.8816481216147
 30
0.0
 10
222.3159445410213
 20
101.2297551651292
 30
0.0
 10
222.3159445410213
 20
101.3771760624646
 30
0.0
 10
222.3159445410213
 20
101.6178023629117
 30
0.0
 10
222.3159445410213
 20
101.7097647177424
 30
0.0
 10
222.3159445410213
 20
101.8306937872124
 30
0.0
 10
222.3159445410213
 20
101.8611132096566
 30
0.0
 10
222.3159445410213
 20
101.8610994539537
 30
0.0
  0
LWPOLYLINE
  5
F4
330
1F
100
AcDbEntity
  8
0
  6
Continuous
 62
     7
370
    25
100
AcDbPolyline
 90
        3
 70
   128
 43
0.0
 10
222.315944541
 20
101.861099454
 10
222.3225246129
 20
101.9279080452
 10
222.3400915035
 20
101.9874131774
  0
ARC
  5
F5
330
1F
100
AcDbEntity
  8
0
  6
Continuous
 62
     7
370
    25
100
AcDbCircle
 10
222.6583940824
 20
101.8610994543
 30
0.0
 40
0.3424495411852657
100
AcDbArc
 50
90.0
 51
122.3289955902
  0
SPLINE
  5
F6
330
1F
100
AcDbEntity
  8
0
  6
Continuous
 62
     7
370
    25
100
AcDbSpline
210
0.0
220
0.0
230
1.0
 70
     8
 71
     3
 72
     9
 73
     5
 74
     0
 42
0.00000001
 43
0.00000001
 40
0.0
 40
0.0
 40
0.0
 40
0.0
 40
0.1981378466361386
 40
1.0
 40
1.0
 40
1.0
 40
1.0
 10
222.3603549025752
 20
11.98102041388011
 30
0.0
 10
222.3538475570154
 20
11.99000833268044
 30
0.0
 10
222.3210050402009
 20
12.0353702812073
 30
0.0
 10
222.3181965572267
 20
12.09317273388356
 30
0.0
 10
222.3159445410213
 20
12.13952233305628
 30
0.0
  0
SPLINE
  5
F7
330
1F
100
AcDbEntity
  8
0
  6
Continuous
 62
     7
370
    25
100
AcDbSpline
210
0.0
220
0.0
230
1.0
 70
    24
 71
     3
 72
    20
 73
    16
 74
     0
 42
0.00000001
 43
0.00000001
 40
0.0
 40
0.0
 40
0.0
 40
0.0
 40
0.2499999999999988
 40
0.2499999999999988
 40
0.374999999999999
 40
0.374999999999999
 40
0.4999999999999992
 40
0.4999999999999992
 40
0.6249999999999994
 40
0.6249999999999994
 40
0.7499999999999996
 40
0.7499999999999996
 40
0.8749999999999998
 40
0.8749999999999998
 40
1.0
 40
1.0
 40
1.0
 40
1.0
 10
222.3159445410213
 20
12.13952233337955
 30
0.0
 10
222.3159445410213
 20
12.13949482695052
 30
0.0
 10
222.3159445410213
 20
12.26588625972186
 30
0.0
 10
222.3159445410213
 20
12.62545458048327
 30
0.0
 10
222.3159445410213
 20
12.77478899558189
 30
0.0
 10
222.3159445410213
 20
13.12600960227995
 30
0.0
 10
222.3159445410213
 20
13.32471153759945
 30
0.0
 10
222.3159445410213
 20
13.76699668530169
 30
0.0
 10
222.3159445410213
 20
14.0134942445594
 30
0.0
 10
222.3159445410213
 20
14.53410894999189
 30
0.0
 10
222.3159445410213
 20
14.80915746657884
 30
0.0
 10
222.3159445410213
 20
15.38926582788311
 30
0.0
 10
222.3159445410213
 20
15.69360005186657
 30
0.0
 10
222.3159445410213
 20
16.30599548782337
 30
0.0
 10
222.3159445410213
 20
16.61727007619073
 30
0.0
 10
222.3159445410213
 20
16.93368720050015
 30
0.0
  0
SPLINE
  5
F8
330
1F
100
AcDbEntity
  8
0
  6
HIDDEN
 62
     7
370
    18
100
AcDbSpline
210
0.0
220
0.0
230
1.0
 70
     8
 71
     3
 72
     9
 73
     5
 74
     0
 42
0.00000001
 43
0.00000001
 40
0.0
 40
0.0
 40
0.0
 40
0.0
 40
0.688831102205433
 40
0.9999999999999999
 40
0.9999999999999999
 40
0.9999999999999999
 40
0.9999999999999999
 10
222.6583940824374
 20
11.79707279164015
 30
0.0
 10
222.6124203329648
 20
11.80023218928904
 30
0.0
 10
222.5456786464681
 20
11.80481879642505
 30
0.0
 10
222.4934188400931
 20
11.84436775495935
 30
0.0
 10
222.4771572137444
 20
11.85667416079539
 30
0.0
  0
LINE
  5
F9
330
1F
100
AcDbEntity
  8
0
  6
HIDDEN
 62
     7
370
    18
100
AcDbLine
 10
222.404286153
 20
11.9152726513
 30
0.0
 11
222.3603549026
 21
11.9810204139
 31
0.0
  0
LWPOLYLINE
  5
FA
330
1F
100
AcDbEntity
  8
0
  6
HIDDEN
 62
     7
370
    18
100
AcDbPolyline
 90
        3
 70
   128
 43
0.0
 10
222.315944541
 20
96.6193886993
 10
222.3225246129
 20
96.552580108
 10
222.3402006208
 20
96.4928003532
  0
ARC
  5
FB
330
1F
100
AcDbEntity
  8
0
  6
HIDDEN
 62
     7
370
    18
100
AcDbCircle
 10
222.6583940824
 20
96.6193886993
 30
0.0
 40
0.3424495412430808
100
AcDbArc
 50
227.0087883647
 51
270.0
  0
LINE
  5
FC
330
1F
100
AcDbEntity
  8
0
  6
HIDDEN
 62
     7
370
    18
100
AcDbLine
 10
222.315944541
 20
86.0033707275
 30
0.0
 11
222.6583940824
 21
86.0033707275
 31
0.0
  0
SPLINE
  5
FD
330
1F
100
AcDbEntity
  8
0
  6
HIDDEN
 62
     7
370
    18
100
AcDbSpline
210
0.0
220
0.0
230
1.0
 70
     8
 71
     3
 72
    10
 73
     6
 74
     0
 42
0.00000001
 43
0.00000001
 40
0.0
 40
0.0
 40
0.0
 40
0.0
 40
0.5
 40
0.5
 40
1.0
 40
1.0
 40
1.0
 40
1.0
 10
222.3159445410213
 20
36.3483625560429
 30
0.0
 10
222.3159445409505
 20
36.43801563638281
 30
0.0
 10
222.3528513883547
 20
36.52711664807963
 30
0.0
 10
222.4796399904298
 20
36.65390525025494
 30
0.0
 10
222.5687410020975
 20
36.69081209772947
 30
0.0
 10
222.6583940824374
 20
36.69081209772947
 30
0.0
  0
LINE
  5
FE
330
1F
100
AcDbEntity
  8
0
  6
HIDDEN
 62
     7
370
    18
100
AcDbLine
 10
222.6583940824
 20
36.6908120977
 30
0.0
 11
222.6583940824
 21
36.7215691397
 31
0.0
  0
LINE
  5
FF
330
1F
100
AcDbEntity
  8
0
  6
HIDDEN
 62
     7
370
    18
100
AcDbLine
 10
222.6583940824
 20
82.579087632
 30
0.0
 11
222.315944541
 21
82.579087632
 31
0.0
  0
LINE
  5
100
330
1F
100
AcDbEntity
  8
0
  6
HIDDEN
 62
     7
370
    18
100
AcDbLine
 10
222.6583940824
 20
96.2769391579
 30
0.0
 11
223.6857427067
 21
96.2769391579
 31
0.0
  0
LINE
  5
101
330
1F
100
AcDbEntity
  8
0
  6
HIDDEN
 62
     7
370
    18
100
AcDbLine
 10
222.6583940824
 20
86.0033707275
 30
0.0
 11
223.6857427067
 21
86.0033707275
 31
0.0
  0
LINE
  5
102
330
1F
100
AcDbEntity
  8
0
  6
HIDDEN
 62
     7
370
    18
100
AcDbLine
 10
222.6583940824
 20
82.579087632
 30
0.0
 11
223.6857427067
 21
82.579087632
 31
0.0
  0
LINE
  5
103
330
1F
100
AcDbEntity
  8
0
  6
HIDDEN
 62
     7
370
    18
100
AcDbLine
 10
222.6583940824
 20
36.6908120977
 30
0.0
 11
223.6857427067
 21
36.6908120977
 31
0.0
  0
LINE
  5
104
330
1F
100
AcDbEntity
  8
0
  6
HIDDEN
 62
     7
370
    18
100
AcDbLine
 10
222.315944541
 20
32.0305943624
 30
0.0
 11
223.6857427067
 21
32.0305943624
 31
0.0
  0
LINE
  5
105
330
1F
100
AcDbEntity
  8
0
  6
HIDDEN
 62
     7
370
    18
100
AcDbLine
 10
222.315944541
 20
30.6608852336
 30
0.0
 11
223.6857427067
 21
30.6608852336
 31
0.0
  0
LINE
  5
106
330
1F
100
AcDbEntity
  8
0
  6
HIDDEN
 62
     7
370
    18
100
AcDbLine
 10
222.315944541
 20
65.3086490728
 30
0.0
 11
223.6857427067
 21
65.3086490728
 31
0.0
  0
LINE
  5
107
330
1F
100
AcDbEntity
  8
0
  6
HIDDEN
 62
     7
370
    18
100
AcDbLine
 10
222.315944541
 20
76.2670713826
 30
0.0
 11
223.6857427067
 21
76.2670713826
 31
0.0
  0
LINE
  5
108
330
1F
100
AcDbEntity
  8
0
  6
HIDDEN
 62
     7
370
    18
100
AcDbLine
 10
222.315944541
 20
91.2341230968
 30
0.0
 11
223.6857427067
 21
91.2341230968
 31
0.0
  0
LINE
  5
109
330
1F
100
AcDbEntity
  8
0
  6
HIDDEN
 62
     7
370
    18
100
AcDbLine
 10
222.315944541
 20
63.0392428108
 30
0.0
 11
223.6857427067
 21
63.0392428108
 31
0.0
  0
LINE
  5
10A
330
1F
100
AcDbEntity
  8
0
  6
HIDDEN
 62
     7
370
    18
100
AcDbLine
 10
222.315944541
 20
60.8830914612
 30
0.0
 11
223.6857427067
 21
60.8830914612
 31
0.0
  0
LINE
  5
10B
330
1F
100
AcDbEntity
  8
0
  6
HIDDEN
 62
     7
370
    18
100
AcDbLine
 10
222.315944541
 20
63.4961732339
 30
0.0
 11
223.6857427067
 21
63.4961732339
 31
0.0
  0
LINE
  5
10C
330
1F
100
AcDbEntity
  8
0
  6
HIDDEN
 62
     7
370
    18
100
AcDbLine
 10
222.315944541
 20
53.1854421793
 30
0.0
 11
223.6857427067
 21
53.1854421793
 31
0.0
  0
LINE
  5
10D
330
1F
100
AcDbEntity
  8
0
  6
HIDDEN
 62
     7
370
    18
100
AcDbLine
 10
222.315944541
 20
57.9971321958
 30
0.0
 11
223.6857427067
 21
57.9971321958
 31
0.0
  0
LINE
  5
10E
330
1F
100
AcDbEntity
  8
0
  6
HIDDEN
 62
     7
370
    18
100
AcDbLine
 10
222.315944541
 20
57.5249901641
 30
0.0
 11
223.6857427067
 21
57.5249901641
 31
0.0
  0
LINE
  5
10F
330
1F
100
AcDbEntity
  8
0
  6
HIDDEN
 62
     7
370
    18
100
AcDbLine
 10
222.315944541
 20
57.4184541118
 30
0.0
 11
223.6857427067
 21
57.4184541118
 31
0.0
  0
LINE
  5
110
330
1F
100
AcDbEntity
  8
0
  6
HIDDEN
 62
     7
370
    18
100
AcDbLine
 10
222.315944541
 20
81.9186531444
 30
0.0
 11
223.6857427067
 21
81.9186531444
 31
0.0
  0
LINE
  5
111
330
1F
100
AcDbEntity
  8
0
  6
HIDDEN
 62
     7
370
    18
100
AcDbLine
 10
222.315944541
 20
73.756991583
 30
0.0
 11
223.6857427067
 21
73.756991583
 31
0.0
  0
LINE
  5
112
330
1F
100
AcDbEntity
  8
0
  6
HIDDEN
 62
     7
370
    18
100
AcDbLine
 10
222.315944541
 20
30.0517633853
 30
0.0
 11
223.6857427067
 21
30.0517633853
 31
0.0
  0
LINE
  5
113
330
1F
100
AcDbEntity
  8
0
  6
HIDDEN
 62
     7
370
    18
100
AcDbLine
 10
222.315944541
 20
18.4084858261
 30
0.0
 11
223.6857427067
 21
18.4084858261
 31
0.0
  0
LINE
  5
114
330
1F
100
AcDbEntity
  8
0
  6
HIDDEN
 62
     7
370
    18
100
AcDbLine
 10
222.315944541
 20
18.4085063731
 30
0.0
 11
223.6857427067
 21
18.4085063731
 31
0.0
  0
SPLINE
  5
115
330
1F
100
AcDbEntity
  8
0
  6
HIDDEN
 62
     7
370
    18
100
AcDbSpline
210
0.0
220
0.0
230
1.0
 70
     8
 71
     3
 72
    11
 73
     7
 74
     0
 42
0.00000001
 43
0.00000001
 40
0.0
 40
0.0
 40
0.0
 40
0.0
 40
0.2362492627534819
 40
0.4845658355672858
 40
0.7409801856732522
 40
1.0
 40
1.0
 40
1.0
 40
1.0
 10
222.6583940824374
 20
96.24337289889608
 30
0.0
 10
222.6267279172043
 20
96.25102292747204
 30
0.0
 10
222.561778119535
 20
96.26671373829538
 30
0.0
 10
222.4673264522123
 20
96.32115371196116
 30
0.0
 10
222.3863377799831
 20
96.3990306207902
 30
0.0
 10
222.3554755329458
 20
96.46183150184726
 30
0.0
 10
222.3399664067588
 20
96.49339066822276
 30
0.0
  0
SPLINE
  5
116
330
1F
100
AcDbEntity
  8
0
  6
HIDDEN
 62
     7
370
    18
100
AcDbSpline
210
0.0
220
0.0
230
1.0
 70
     8
 71
     3
 72
    11
 73
     7
 74
     0
 42
0.00000001
 43
0.00000001
 40
0.0
 40
0.0
 40
0.0
 40
0.0
 40
0.2183250500622584
 40
0.4890818471562971
 40
0.7509531278667405
 40
1.0
 40
1.0
 40
1.0
 40
1.0
 10
222.3509224615077
 20
36.49339545164384
 30
0.0
 10
222.3633241519032
 20
36.51804875291212
 30
0.0
 10
222.3911058546657
 20
36.57327595711681
 30
0.0
 10
222.4674784070953
 20
36.64480203154346
 30
0.0
 10
222.5617114950323
 20
36.6983843734046
 30
0.0
 10
222.6267103928049
 20
36.71336804172225
 30
0.0
 10
222.6583940824374
 20
36.72067182552172
 30
0.0
  0
LINE
  5
117
330
1F
100
AcDbEntity
  8
0
  6
HIDDEN
 62
     7
370
    18
100
AcDbLine
 10
222.315944541
 20
47.9362780104
 30
0.0
 11
223.6857427067
 21
47.9362780104
 31
0.0
  0
SPLINE
  5
118
330
1F
100
AcDbEntity
  8
0
  6
HIDDEN
 62
     7
370
    18
100
AcDbSpline
210
0.0
220
0.0
230
1.0
 70
     8
 71
     3
 72
    10
 73
     6
 74
     0
 42
0.00000001
 43
0.00000001
 40
0.0
 40
0.0
 40
0.0
 40
0.0
 40
0.3731424924978158
 40
0.7655001252735417
 40
1.0
 40
1.0
 40
1.0
 40
1.0
 10
222.6583940824374
 20
96.24707770078619
 30
0.0
 10
222.6269371639262
 20
96.25452793672798
 30
0.0
 10
222.5624034387536
 20
96.26981206185822
 30
0.0
 10
222.4788102249435
 20
96.31354404568118
 30
0.0
 10
222.4400969783646
 20
96.35456206020557
 30
0.0
 10
222.4256148171648
 20
96.36990640744936
 30
0.0
  0
SPLINE
  5
119
330
1F
100
AcDbEntity
  8
0
  6
HIDDEN
 62
     7
370
    18
100
AcDbSpline
210
0.0
220
0.0
230
1.0
 70
     8
 71
     3
 72
     9
 73
     5
 74
     0
 42
0.00000001
 43
0.00000001
 40
0.0
 40
0.0
 40
0.0
 40
0.0
 40
0.2739572480678008
 40
1.0
 40
1.0
 40
1.0
 40
1.0
 10
222.4163795446789
 20
96.37889070452471
 30
0.0
 10
222.4080469550727
 20
96.38644920619619
 30
0.0
 10
222.377631298378
 20
96.41403928357063
 30
0.0
 10
222.3621573485067
 20
96.44898410549027
 30
0.0
 10
222.3509225993588
 20
96.47435554016259
 30
0.0
  0
SPLINE
  5
11A
330
1F
100
AcDbEntity
  8
0
  6
HIDDEN
 62
     7
370
    18
100
AcDbSpline
210
0.0
220
0.0
230
1.0
 70
     8
 71
     3
 72
    11
 73
     7
 74
     0
 42
0.00000001
 43
0.00000001
 40
0.0
 40
0.0
 40
0.0
 40
0.0
 40
0.2590182336977136
 40
0.5154323872245782
 40
0.7637495887810166
 40
1.0
 40
1.0
 40
1.0
 40
1.0
 10
222.3399664068898
 20
36.4743605876987
 30
0.0
 10
222.355475567351
 20
36.50591974380519
 30
0.0
 10
222.3863379645123
 20
36.56872077112493
 30
0.0
 10
222.4673266007669
 20
36.64659698813131
 30
0.0
 10
222.5617782392643
 20
36.70103625478137
 30
0.0
 10
222.6267279310372
 20
36.71672635539677
 30
0.0
 10
222.6583940824377
 20
36.72437604684277
 30
0.0
  0
SPLINE
  5
11B
330
1F
100
AcDbEntity
  8
0
  6
HIDDEN
 62
     7
370
    18
100
AcDbSpline
210
0.0
220
0.0
230
1.0
 70
     8
 71
     3
 72
     9
 73
     5
 74
     0
 42
0.00000001
 43
0.00000001
 40
0.0
 40
0.0
 40
0.0
 40
0.0
 40
0.8676166244116266
 40
1.0
 40
1.0
 40
1.0
 40
1.0
 10
222.3399469791994
 20
12.01357341126005
 30
0.0
 10
222.3538611570018
 20
11.98080302105525
 30
0.0
 10
222.3698983990405
 20
11.94303243289135
 30
0.0
 10
222.4002659889804
 20
11.91851795994477
 30
0.0
 10
222.4042861530451
 20
11.91527265126531
 30
0.0
  0
ENDSEC
  0
SECTION
  2
OBJECTS
  0
DICTIONARY
  5
C
330
0
100
AcDbDictionary
281
     1
  3
ACAD_GROUP
350
D
  3
ACAD_LAYOUT
350
1A
  3
ACAD_MLINESTYLE
350
17
  3
ACAD_PLOTSETTINGS
350
19
  3
ACAD_PLOTSTYLENAME
350
E
  3
ACAD_SCALELIST
350
47
  3
DWGPROPS
350
11C
  0
DICTIONARY
  5
D
102
{ACAD_REACTORS
330
C
102
}
330
C
100
AcDbDictionary
281
     1
  0
DICTIONARY
  5
1A
102
{ACAD_REACTORS
330
C
102
}
330
C
100
AcDbDictionary
281
     1
  3
Layout1
350
1E
  3
Layout2
350
26
  3
Model
350
22
  0
DICTIONARY
  5
17
102
{ACAD_REACTORS
330
C
102
}
330
C
100
AcDbDictionary
281
     1
  3
Standard
350
18
  0
DICTIONARY
  5
19
102
{ACAD_REACTORS
330
C
102
}
330
C
100
AcDbDictionary
281
     1
  0
ACDBDICTIONARYWDFLT
  5
E
102
{ACAD_REACTORS
330
C
102
}
330
C
100
AcDbDictionary
281
     1
  3
Normal
350
F
100
AcDbDictionaryWithDefault
340
F
  0
DICTIONARY
  5
47
102
{ACAD_REACTORS
330
C
102
}
330
C
100
AcDbDictionary
281
     1
  3
A0
350
48
  3
A1
350
49
  3
A2
350
4A
  3
A3
350
4B
  3
A4
350
4C
  3
A5
350
4D
  3
A6
350
4E
  3
A7
350
4F
  3
A8
350
50
  3
A9
350
51
  3
B0
350
52
  3
B1
350
53
  3
B2
350
54
  3
B3
350
55
  3
B4
350
56
  3
B5
350
57
  3
B6
350
58
  0
XRECORD
  5
11C
102
{ACAD_REACTORS
330
C
102
}
330
C
100
AcDbXrecord
280
     1
  1
DWGPROPS COOKIE
  2

  3

  4

  6

  7

  8

  9

300
=
301
=
302
=
303
=
304
=
305
=
306
=
307
=
308
=
309
=
 40
0.0
 41
2461215.457578091
 42
2461215.457578392
  1

 90
        0
  0
LAYOUT
  5
1E
102
{ACAD_REACTORS
330
1A
102
}
330
1A
100
AcDbPlotSettings
  1

  2
none_device
  4

  6

 40
0.0
 41
0.0
 42
0.0
 43
0.0
 44
0.0
 45
0.0
 46
0.0
 47
0.0
 48
0.0
 49
0.0
140
0.0
141
0.0
142
1.0
143
1.0
 70
   688
 72
     1
 73
     0
 74
     5
  7

 75
    16
147
1.0
148
0.0
149
0.0
100
AcDbLayout
  1
Layout1
 70
     1
 71
     1
 10
0.0
 20
0.0
 11
420.0
 21
297.0
 12
0.0
 22
0.0
 32
0.0
 14
1.0000000000E+20
 24
1.0000000000E+20
 34
1.0000000000E+20
 15
-1.0000000000E+20
 25
-1.0000000000E+20
 35
-1.0000000000E+20
146
0.0
 13
0.0
 23
0.0
 33
0.0
 16
1.0
 26
0.0
 36
0.0
 17
0.0
 27
1.0
 37
0.0
 76
     0
330
1B
  0
LAYOUT
  5
26
102
{ACAD_REACTORS
330
1A
102
}
330
1A
100
AcDbPlotSettings
  1

  2
none_device
  4

  6

 40
0.0
 41
0.0
 42
0.0
 43
0.0
 44
0.0
 45
0.0
 46
0.0
 47
0.0
 48
0.0
 49
0.0
140
0.0
141
0.0
142
1.0
143
1.0
 70
   688
 72
     1
 73
     0
 74
     5
  7

 75
    16
147
1.0
148
0.0
149
0.0
100
AcDbLayout
  1
Layout2
 70
     1
 71
     2
 10
0.0
 20
0.0
 11
0.0
 21
0.0
 12
0.0
 22
0.0
 32
0.0
 14
0.0
 24
0.0
 34
0.0
 15
0.0
 25
0.0
 35
0.0
146
0.0
 13
0.0
 23
0.0
 33
0.0
 16
1.0
 26
0.0
 36
0.0
 17
0.0
 27
1.0
 37
0.0
 76
     0
330
23
  0
LAYOUT
  5
22
102
{ACAD_REACTORS
330
1A
102
}
330
1A
100
AcDbPlotSettings
  1

  2
none_device
  4
Letter_(8.50_x_11.00_Inches)
  6

 40
6.35
 41
6.35
 42
6.35000508
 43
6.35000508
 44
215.9
 45
279.4
 46
0.0
 47
0.0
 48
0.0
 49
0.0
140
0.0
141
0.0
142
1.0
143
1.0
 70
  1712
 72
     1
 73
     0
 74
     0
  7

 75
     0
147
1.0
148
0.0
149
0.0
100
AcDbLayout
  1
Model
 70
     1
 71
     0
 10
0.0
 20
0.0
 11
297.0
 21
210.0
 12
0.0
 22
0.0
 32
0.0
 14
0.0
 24
0.0
 34
0.0
 15
297.0
 25
210.0
 35
0.0
146
0.0
 13
0.0
 23
0.0
 33
0.0
 16
1.0
 26
0.0
 36
0.0
 17
0.0
 27
1.0
 37
0.0
 76
     0
330
1F
331
29
  0
MLINESTYLE
  5
18
102
{ACAD_REACTORS
330
17
102
}
330
17
100
AcDbMlineStyle
  2
Standard
 70
     0
  3

 62
   256
 51
90.0
 52
90.0
 71
     2
 49
0.5
 62
   256
  6
BYLAYER
 49
-0.5
 62
   256
  6
BYLAYER
  0
ACDBPLACEHOLDER
  5
F
102
{ACAD_REACTORS
330
E
102
}
330
E
  0
SCALE
  5
48
102
{ACAD_REACTORS
330
47
102
}
330
47
100
AcDbScale
 70
     0
300
1:1
140
1.0
141
1.0
290
     1
  0
SCALE
  5
49
102
{ACAD_REACTORS
330
47
102
}
330
47
100
AcDbScale
 70
     0
300
1:2
140
1.0
141
2.0
290
     0
  0
SCALE
  5
4A
102
{ACAD_REACTORS
330
47
102
}
330
47
100
AcDbScale
 70
     0
300
1:4
140
1.0
141
4.0
290
     0
  0
SCALE
  5
4B
102
{ACAD_REACTORS
330
47
102
}
330
47
100
AcDbScale
 70
     0
300
1:5
140
1.0
141
5.0
290
     0
  0
SCALE
  5
4C
102
{ACAD_REACTORS
330
47
102
}
330
47
100
AcDbScale
 70
     0
300
1:8
140
1.0
141
8.0
290
     0
  0
SCALE
  5
4D
102
{ACAD_REACTORS
330
47
102
}
330
47
100
AcDbScale
 70
     0
300
1:10
140
1.0
141
10.0
290
     0
  0
SCALE
  5
4E
102
{ACAD_REACTORS
330
47
102
}
330
47
100
AcDbScale
 70
     0
300
1:16
140
1.0
141
16.0
290
     0
  0
SCALE
  5
4F
102
{ACAD_REACTORS
330
47
102
}
330
47
100
AcDbScale
 70
     0
300
1:20
140
1.0
141
20.0
290
     0
  0
SCALE
  5
50
102
{ACAD_REACTORS
330
47
102
}
330
47
100
AcDbScale
 70
     0
300
1:30
140
1.0
141
30.0
290
     0
  0
SCALE
  5
51
102
{ACAD_REACTORS
330
47
102
}
330
47
100
AcDbScale
 70
     0
300
1:40
140
1.0
141
40.0
290
     0
  0
SCALE
  5
52
102
{ACAD_REACTORS
330
47
102
}
330
47
100
AcDbScale
 70
     0
300
1:50
140
1.0
141
50.0
290
     0
  0
SCALE
  5
53
102
{ACAD_REACTORS
330
47
102
}
330
47
100
AcDbScale
 70
     0
300
1:100
140
1.0
141
100.0
290
     0
  0
SCALE
  5
54
102
{ACAD_REACTORS
330
47
102
}
330
47
100
AcDbScale
 70
     0
300
2:1
140
2.0
141
1.0
290
     0
  0
SCALE
  5
55
102
{ACAD_REACTORS
330
47
102
}
330
47
100
AcDbScale
 70
     0
300
4:1
140
4.0
141
1.0
290
     0
  0
SCALE
  5
56
102
{ACAD_REACTORS
330
47
102
}
330
47
100
AcDbScale
 70
     0
300
8:1
140
8.0
141
1.0
290
     0
  0
SCALE
  5
57
102
{ACAD_REACTORS
330
47
102
}
330
47
100
AcDbScale
 70
     0
300
10:1
140
10.0
141
1.0
290
     0
  0
SCALE
  5
58
102
{ACAD_REACTORS
330
47
102
}
330
47
100
AcDbScale
 70
     0
300
100:1
140
100.0
141
1.0
290
     0
  0
ENDSEC
  0
EOF
