  0
SECTION
  2
HEADER
  9
$ACADVER
  1
AC1015
  9
$ACADMAINTVER
 70
     6
  9
$DWGCODEPAGE
  3
ANSI_936
  9
$INSBASE
 10
0.0
 20
0.0
 30
0.0
  9
$EXTMIN
 10
0.0
 20
0.0
 30
0.0
  9
$EXTMAX
 10
297.0
 20
210.0
 30
0.0
  9
$LIMMIN
 10
0.0
 20
0.0
  9
$LIMMAX
 10
297.0
 20
210.0
  9
$ORTHOMODE
 70
     0
  9
$REGENMODE
 70
     1
  9
$FILLMODE
 70
     1
  9
$QTEXTMODE
 70
     0
  9
$MIRRTEXT
 70
     1
  9
$LTSCALE
 40
1.0
  9
$ATTMODE
 70
     1
  9
$TEXTSIZE
 40
3.5
  9
$TRACEWID
 40
1.0
  9
$TEXTSTYLE
  7
Standard
  9
$CLAYER
  8
0
  9
$CELTYPE
  6
ByLayer
  9
$CECOLOR
 62
   256
  9
$CELTSCALE
 40
1.0
  9
$DISPSILH
 70
     0
  9
$DIMSCALE
 40
1.0
  9
$DIMASZ
 40
4.08
  9
$DIMEXO
 40
0.0
  9
$DIMDLI
 40
3.75
  9
$DIMRND
 40
0.0
  9
$DIMDLE
 40
0.0
  9
$DIMEXE
 40
2.0
  9
$DIMTP
 40
0.0
  9
$DIMTM
 40
0.0
  9
$DIMTXT
 40
3.5
  9
$DIMCEN
 40
2.5
  9
$DIMTSZ
 40
0.0
  9
$DIMTOL
 70
     0
  9
$DIMLIM
 70
     0
  9
$DIMTIH
 70
     1
  9
$DIMTOH
 70
     1
  9
$DIMSE1
 70
     0
  9
$DIMSE2
 70
     0
  9
$DIMTAD
 70
     1
  9
$DIMZIN
 70
     0
  9
$DIMBLK
  1

  9
$DIMASO
 70
     1
  9
$DIMSHO
 70
     1
  9
$DIMPOST
  1

  9
$DIMAPOST
  1

  9
$DIMALT
 70
     0
  9
$DIMALTD
 70
     3
  9
$DIMALTF
 40
0.0393700787
  9
$DIMLFAC
 40
2.0
  9
$DIMTOFL
 70
     1
  9
$DIMTVP
 40
0.0
  9
$DIMTIX
 70
     0
  9
$DIMSOXD
 70
     0
  9
$DIMSAH
 70
     0
  9
$DIMBLK1
  1

  9
$DIMBLK2
  1

  9
$DIMSTYLE
  2
ISO-25
  9
$DIMCLRD
 70
     0
  9
$DIMCLRE
 70
     0
  9
$DIMCLRT
 70
     0
  9
$DIMTFAC
 40
1.0
  9
$DIMGAP
 40
1.524
  9
$DIMJUST
 70
     0
  9
$DIMSD1
 70
     0
  9
$DIMSD2
 70
     0
  9
$DIMTOLJ
 70
     0
  9
$DIMTZIN
 70
     0
  9
$DIMALTZ
 70
     0
  9
$DIMALTTZ
 70
     0
  9
$DIMUPT
 70
     0
  9
$DIMDEC
 70
     2
  9
$DIMTDEC
 70
     2
  9
$DIMALTU
 70
     2
  9
$DIMALTTD
 70
     3
  9
$DIMTXSTY
  7
Standard
  9
$DIMAUNIT
 70
     0
  9
$DIMADEC
 70
     2
  9
$DIMALTRND
 40
0.0
  9
$DIMAZIN
 70
     0
  9
$DIMDSEP
 70
    44
  9
$DIMATFIT
 70
     3
  9
$DIMFRAC
 70
     0
  9
$DIMLDRBLK
  1

  9
$DIMLUNIT
 70
     2
  9
$DIMLWD
 70
    -2
  9
$DIMLWE
 70
    -2
  9
$DIMTMOVE
 70
     0
  9
$LUNITS
 70
     2
  9
$LUPREC
 70
     2
  9
$SKETCHINC
 40
1.0
  9
$FILLETRAD
 40
0.0
  9
$AUNITS
 70
     0
  9
$AUPREC
 70
     2
  9
$MENU
  1
.
  9
$ELEVATION
 40
0.0
  9
$PELEVATION
 40
0.0
  9
$THICKNESS
 40
0.0
  9
$LIMCHECK
 70
     0
  9
$CHAMFERA
 40
0.0
  9
$CHAMFERB
 40
0.0
  9
$CHAMFERC
 40
0.0
  9
$CHAMFERD
 40
0.0
  9
$SKPOLY
 70
     0
  9
$TDCREATE
 40
2461214.819990162
  9
$TDUCREATE
 40
2461214.486656829
  9
$TDUPDATE
 40
2461214.819990405
  9
$TDUUPDATE
 40
2461214.486657072
  9
$TDINDWG
 40
0.0000000116
  9
$TDUSRTIMER
 40
0.0000000116
  9
$USRTIMER
 70
     1
  9
$ANGBASE
 50
0.0
  9
$ANGDIR
 70
     0
  9
$PDMODE
 70
     0
  9
$PDSIZE
 40
-1.0
  9
$PLINEWID
 40
0.0
  9
$SPLFRAME
 70
     0
  9
$SPLINETYPE
 70
     6
  9
$SPLINESEGS
 70
     8
  9
$HANDSEED
  5
165
  9
$SURFTAB1
 70
     6
  9
$SURFTAB2
 70
     6
  9
$SURFTYPE
 70
     6
  9
$SURFU
 70
     6
  9
$SURFV
 70
     6
  9
$UCSBASE
  2

  9
$UCSNAME
  2

  9
$UCSORG
 10
0.0
 20
0.0
 30
0.0
  9
$UCSXDIR
 10
1.0
 20
0.0
 30
0.0
  9
$UCSYDIR
 10
0.0
 20
1.0
 30
0.0
  9
$UCSORTHOREF
  2

  9
$UCSORTHOVIEW
 70
     0
  9
$UCSORGTOP
 10
0.0
 20
0.0
 30
0.0
  9
$UCSORGBOTTOM
 10
0.0
 20
0.0
 30
0.0
  9
$UCSORGLEFT
 10
0.0
 20
0.0
 30
0.0
  9
$UCSORGRIGHT
 10
0.0
 20
0.0
 30
0.0
  9
$UCSORGFRONT
 10
0.0
 20
0.0
 30
0.0
  9
$UCSORGBACK
 10
0.0
 20
0.0
 30
0.0
  9
$PUCSBASE
  2

  9
$PUCSNAME
  2

  9
$PUCSORG
 10
0.0
 20
0.0
 30
0.0
  9
$PUCSXDIR
 10
1.0
 20
0.0
 30
0.0
  9
$PUCSYDIR
 10
0.0
 20
1.0
 30
0.0
  9
$PUCSORTHOREF
  2

  9
$PUCSORTHOVIEW
 70
     0
  9
$PUCSORGTOP
 10
0.0
 20
0.0
 30
0.0
  9
$PUCSORGBOTTOM
 10
0.0
 20
0.0
 30
0.0
  9
$PUCSORGLEFT
 10
0.0
 20
0.0
 30
0.0
  9
$PUCSORGRIGHT
 10
0.0
 20
0.0
 30
0.0
  9
$PUCSORGFRONT
 10
0.0
 20
0.0
 30
0.0
  9
$PUCSORGBACK
 10
0.0
 20
0.0
 30
0.0
  9
$USERI1
 70
     0
  9
$USERI2
 70
     0
  9
$USERI3
 70
     0
  9
$USERI4
 70
     0
  9
$USERI5
 70
     0
  9
$USERR1
 40
0.0
  9
$USERR2
 40
0.0
  9
$USERR3
 40
0.0
  9
$USERR4
 40
0.0
  9
$USERR5
 40
0.0
  9
$WORLDVIEW
 70
     1
  9
$SHADEDGE
 70
     3
  9
$SHADEDIF
 70
    70
  9
$TILEMODE
 70
     1
  9
$MAXACTVP
 70
    64
  9
$PINSBASE
 10
0.0
 20
0.0
 30
0.0
  9
$PLIMCHECK
 70
     0
  9
$PEXTMIN
 10
1.0000000000E+20
 20
1.0000000000E+20
 30
1.0000000000E+20
  9
$PEXTMAX
 10
-1.0000000000E+20
 20
-1.0000000000E+20
 30
-1.0000000000E+20
  9
$PLIMMIN
 10
0.0
 20
0.0
  9
$PLIMMAX
 10
420.0
 20
297.0
  9
$UNITMODE
 70
     0
  9
$VISRETAIN
 70
     1
  9
$PLINEGEN
 70
     0
  9
$PSLTSCALE
 70
     1
  9
$TREEDEPTH
 70
  3020
  9
$CMLSTYLE
  2
Standard
  9
$CMLJUST
 70
     0
  9
$CMLSCALE
 40
20.0
  9
$PROXYGRAPHICS
 70
     1
  9
$MEASUREMENT
 70
     1
  9
$CELWEIGHT
370
    -1
  9
$ENDCAPS
280
     0
  9
$JOINSTYLE
280
     0
  9
$LWDISPLAY
290
     1
  9
$INSUNITS
 70
     4
  9
$HYPERLINKBASE
  1

  9
$STYLESHEET
  1

  9
$XEDIT
290
     1
  9
$CEPSNTYPE
380
     0
  9
$PSTYLEMODE
290
     1
  9
$FINGERPRINTGUID
  2
{7ab71f21-5461-439f-b02e-3825b3d8d9e5}
  9
$VERSIONGUID
  2
{FAEB1C32-E019-11D5-929B-00C0DF256EC4}
  9
$EXTNAMES
290
     1
  9
$PSVPSCALE
 40
0.0
  9
$OLESTARTUP
290
     0
  0
ENDSEC
  0
SECTION
  2
CLASSES
  0
CLASS
  1
ACDBDICTIONARYWDFLT
  2
AcDbDictionaryWithDefault
  3
ObjectDBX Classes
 90
        0
280
     0
281
     0
  0
CLASS
  1
VISUALSTYLE
  2
AcDbVisualStyle
  3
ObjectDBX Classes
 90
     4095
280
     0
281
     0
  0
CLASS
  1
MATERIAL
  2
AcDbMaterial
  3
ObjectDBX Classes
 90
     1153
280
     0
281
     0
  0
CLASS
  1
SCALE
  2
AcDbScale
  3
ObjectDBX Classes
 90
     1153
280
     0
281
     0
  0
CLASS
  1
TABLESTYLE
  2
AcDbTableStyle
  3
ObjectDBX Classes
 90
     4095
280
     0
281
     0
  0
CLASS
  1
MLEADERSTYLE
  2
AcDbMLeaderStyle
  3
ACDB_MLEADERSTYLE_CLASS
 90
     4095
280
     0
281
     0
  0
CLASS
  1
SUN
  2
AcDbSun
  3
SCENEOE
 90
     1153
280
     0
281
     0
  0
CLASS
  1
ACDBPLACEHOLDER
  2
AcDbPlaceHolder
  3
ObjectDBX Classes
 90
        0
280
     0
281
     0
  0
CLASS
  1
LAYOUT
  2
AcDbLayout
  3
ObjectDBX Classes
 90
        0
280
     0
281
     0
  0
ENDSEC
  0
SECTION
  2
TABLES
  0
TABLE
  2
VPORT
  5
8
330
0
100
AcDbSymbolTable
 70
     1
  0
VPORT
  5
29
330
8
100
AcDbSymbolTableRecord
100
AcDbViewportTableRecord
  2
*Active
 70
     0
 10
0.0
 20
0.0
 11
1.0
 21
1.0
 12
148.5
 22
105.0
 13
0.0
 23
0.0
 14
10.0
 24
10.0
 15
10.0
 25
10.0
 16
0.0
 26
0.0
 36
1.0
 17
0.0
 27
0.0
 37
0.0
 40
210.0
 41
1.4142857143
 42
50.0
 43
0.0
 44
0.0
 50
0.0
 51
0.0
 71
     0
 72
  2000
 73
     1
 74
     3
 75
     0
 76
     0
 77
     0
 78
     0
281
     0
 65
     1
110
0.0
120
0.0
130
0.0
111
1.0
121
0.0
131
0.0
112
0.0
122
1.0
132
0.0
 79
     0
146
0.0
  0
ENDTAB
  0
TABLE
  2
LTYPE
  5
5
330
0
100
AcDbSymbolTable
 70
     6
  0
LTYPE
  5
14
330
5
100
AcDbSymbolTableRecord
100
AcDbLinetypeTableRecord
  2
ByBlock
 70
     0
  3

 72
    65
 73
     0
 40
0.0
  0
LTYPE
  5
15
330
5
100
AcDbSymbolTableRecord
100
AcDbLinetypeTableRecord
  2
ByLayer
 70
     0
  3

 72
    65
 73
     0
 40
0.0
  0
LTYPE
  5
16
330
5
100
AcDbSymbolTableRecord
100
AcDbLinetypeTableRecord
  2
Continuous
 70
     0
  3
Solid line
 72
    65
 73
     0
 40
0.0
  0
LTYPE
  5
5E
330
5
100
AcDbSymbolTableRecord
100
AcDbLinetypeTableRecord
  2
HIDDEN
 70
     0
  3
Hidden __ __ __ __ __ __ __ __ __ __ __ __ __ __
 72
    65
 73
     2
 40
1.905
 49
1.27
 74
     0
 49
-0.635
 74
     0
  0
LTYPE
  5
5F
330
5
100
AcDbSymbolTableRecord
100
AcDbLinetypeTableRecord
  2
PHANTOM
 70
     0
  3
Phantom ______  __  __  ______  __  __  ______
 72
    65
 73
     6
 40
12.7
 49
6.35
 74
     0
 49
-1.27
 74
     0
 49
1.27
 74
     0
 49
-1.27
 74
     0
 49
1.27
 74
     0
 49
-1.27
 74
     0
  0
LTYPE
  5
60
330
5
100
AcDbSymbolTableRecord
100
AcDbLinetypeTableRecord
  2
CENTER
 70
     0
  3
Center ____ _ ____ _ ____ _ ____ _ ____ _ ____
 72
    65
 73
     4
 40
10.16
 49
6.35
 74
     0
 49
-1.27
 74
     0
 49
1.27
 74
     0
 49
-1.27
 74
     0
  0
LTYPE
  5
61
330
5
100
AcDbSymbolTableRecord
100
AcDbLinetypeTableRecord
  2
CENTERX2
 70
     0
  3
Center (2x) ________  __  ________  __  _____
 72
    65
 73
     4
 40
20.32
 49
12.7
 74
     0
 49
-2.54
 74
     0
 49
2.54
 74
     0
 49
-2.54
 74
     0
  0
LTYPE
  5
62
330
5
100
AcDbSymbolTableRecord
100
AcDbLinetypeTableRecord
  2
DOT2
 70
     0
  3
Dot (.5x) ........................................
 72
    65
 73
     2
 40
0.635
 49
0.0
 74
     0
 49
-0.635
 74
     0
  0
ENDTAB
  0
TABLE
  2
LAYER
  5
2
330
0
100
AcDbSymbolTable
 70
    14
  0
LAYER
  5
10
330
2
100
AcDbSymbolTableRecord
100
AcDbLayerTableRecord
  2
0
 70
     0
 62
     7
  6
Continuous
370
    -3
390
F
  0
LAYER
  5
63
330
2
100
AcDbSymbolTableRecord
100
AcDbLayerTableRecord
  2
SLD-0
 70
     0
 62
     7
  6
Continuous
370
    -3
390
F
  0
LAYER
  5
64
330
2
100
AcDbSymbolTableRecord
100
AcDbLayerTableRecord
  2
5
 70
     0
 62
     7
  6
Continuous
370
    -3
390
F
  0
LAYER
  5
65
330
2
100
AcDbSymbolTableRecord
100
AcDbLayerTableRecord
  2
9
 70
     0
 62
     7
  6
Continuous
370
    -3
390
F
  0
LAYER
  5
66
330
2
100
AcDbSymbolTableRecord
100
AcDbLayerTableRecord
  2
10
 70
     0
 62
     7
  6
Continuous
370
    -3
390
F
  0
LAYER
  5
67
330
2
100
AcDbSymbolTableRecord
100
AcDbLayerTableRecord
  2
轮廓实线层
 70
     0
 62
     7
  6
Continuous
370
    50
390
F
  0
LAYER
  5
68
330
2
100
AcDbSymbolTableRecord
100
AcDbLayerTableRecord
  2
细线层
 70
     0
 62
     4
  6
Continuous
370
    25
390
F
  0
LAYER
  5
69
330
2
100
AcDbSymbolTableRecord
100
AcDbLayerTableRecord
  2
中心线层
 70
     0
 62
     1
  6
CENTERX2
370
    25
390
F
  0
LAYER
  5
6A
330
2
100
AcDbSymbolTableRecord
100
AcDbLayerTableRecord
  2
虚线层
 70
     0
 62
     6
  6
HIDDEN
370
    25
390
F
  0
LAYER
  5
6B
330
2
100
AcDbSymbolTableRecord
100
AcDbLayerTableRecord
  2
剖面线层
 70
     0
 62
     2
  6
Continuous
370
    25
390
F
  0
LAYER
  5
6C
330
2
100
AcDbSymbolTableRecord
100
AcDbLayerTableRecord
  2
文字层
 70
     0
 62
     3
  6
Continuous
370
    25
390
F
  0
LAYER
  5
6D
330
2
100
AcDbSymbolTableRecord
100
AcDbLayerTableRecord
  2
标注层
 70
     0
 62
     4
  6
Continuous
370
    25
390
F
  0
LAYER
  5
6E
330
2
100
AcDbSymbolTableRecord
100
AcDbLayerTableRecord
  2
符号标注层
 70
     0
 62
    31
  6
Continuous
370
    25
390
F
  0
LAYER
  5
6F
330
2
100
AcDbSymbolTableRecord
100
AcDbLayerTableRecord
  2
双点划线层
 70
     0
 62
     6
  6
PHANTOM
370
    25
390
F
  0
ENDTAB
  0
TABLE
  2
STYLE
  5
3
330
0
100
AcDbSymbolTable
 70
     1
  0
STYLE
  5
11
330
3
100
AcDbSymbolTableRecord
100
AcDbTextStyleTableRecord
  2
Standard
 70
     0
 40
0.0
 41
1.0
 50
0.0
 71
     0
 42
3.5
  3
txt
  4

  0
ENDTAB
  0
TABLE
  2
VIEW
  5
6
330
0
100
AcDbSymbolTable
 70
     0
  0
ENDTAB
  0
TABLE
  2
UCS
  5
7
330
0
100
AcDbSymbolTable
 70
     0
  0
ENDTAB
  0
TABLE
  2
APPID
  5
9
330
0
100
AcDbSymbolTable
 70
     1
  0
APPID
  5
12
330
9
100
AcDbSymbolTableRecord
100
AcDbRegAppTableRecord
  2
ACAD
 70
     0
  0
ENDTAB
  0
TABLE
  2
DIMSTYLE
  5
A
330
0
100
AcDbSymbolTable
 70
     1
100
AcDbDimStyleTable
  0
DIMSTYLE
105
27
330
A
100
AcDbSymbolTableRecord
100
AcDbDimStyleTableRecord
  2
ISO-25
 70
     0
 41
2.5
 42
0.625
 43
3.75
 44
1.25
 73
     0
 74
     0
 77
     1
 78
     8
140
2.5
141
2.5
143
0.0393700787
147
0.625
171
     3
172
     1
178
     0
271
     2
272
     2
274
     3
278
    44
283
     0
284
     8
340
11
  0
ENDTAB
  0
TABLE
  2
BLOCK_RECORD
  5
1
330
0
100
AcDbSymbolTable
 70
     3
  0
BLOCK_RECORD
  5
1F
330
1
100
AcDbSymbolTableRecord
100
AcDbBlockTableRecord
  2
*Model_Space
340
22
  0
BLOCK_RECORD
  5
1B
330
1
100
AcDbSymbolTableRecord
100
AcDbBlockTableRecord
  2
*Paper_Space
340
1E
  0
BLOCK_RECORD
  5
23
330
1
100
AcDbSymbolTableRecord
100
AcDbBlockTableRecord
  2
*Paper_Space0
340
26
  0
BLOCK_RECORD
  5
118
330
1
100
AcDbSymbolTableRecord
100
AcDbBlockTableRecord
  2
SW_CENTERMARKSYMBOL_0
340
0
102
{BLKREFS
331
123
102
}
  0
BLOCK_RECORD
  5
158
330
1
100
AcDbSymbolTableRecord
100
AcDbBlockTableRecord
  2
SW_CENTERMARKSYMBOL_1
340
0
102
{BLKREFS
331
163
102
}
  0
ENDTAB
  0
ENDSEC
  0
SECTION
  2
BLOCKS
  0
BLOCK
  5
20
330
1F
100
AcDbEntity
  8
0
100
AcDbBlockBegin
  2
*Model_Space
 70
     0
 10
0.0
 20
0.0
 30
0.0
  3
*Model_Space
  1

  0
ENDBLK
  5
21
330
1F
100
AcDbEntity
  8
0
100
AcDbBlockEnd
  0
BLOCK
  5
1C
330
1B
100
AcDbEntity
 67
     1
  8
0
100
AcDbBlockBegin
  2
*Paper_Space
 70
     0
 10
0.0
 20
0.0
 30
0.0
  3
*Paper_Space
  1

  0
ENDBLK
  5
1D
330
1B
100
AcDbEntity
 67
     1
  8
0
100
AcDbBlockEnd
  0
BLOCK
  5
24
330
23
100
AcDbEntity
  8
0
100
AcDbBlockBegin
  2
*Paper_Space0
 70
     0
 10
0.0
 20
0.0
 30
0.0
  3
*Paper_Space0
  1

  0
ENDBLK
  5
25
330
23
100
AcDbEntity
  8
0
100
AcDbBlockEnd
  0
BLOCK
  5
119
330
118
100
AcDbEntity
  8
0
100
AcDbBlockBegin
  2
SW_CENTERMARKSYMBOL_0
 70
     0
 10
0.0
 20
0.0
 30
0.0
  3
SW_CENTERMARKSYMBOL_0
  1

  0
LINE
  5
11B
330
118
100
AcDbEntity
  8
10
 62
     0
100
AcDbLine
 10
0.0
 20
0.0
 30
0.0
 11
0.0
 21
2.5
 31
0.0
  0
LINE
  5
11C
330
118
100
AcDbEntity
  8
10
 62
     0
100
AcDbLine
 10
0.0
 20
0.0
 30
0.0
 11
-2.5
 21
0.0
 31
0.0
  0
LINE
  5
11D
330
118
100
AcDbEntity
  8
10
 62
     0
100
AcDbLine
 10
0.0
 20
0.0
 30
0.0
 11
0.0
 21
-2.5
 31
0.0
  0
LINE
  5
11E
330
118
100
AcDbEntity
  8
10
 62
     0
100
AcDbLine
 10
0.0
 20
0.0
 30
0.0
 11
2.5
 21
0.0
 31
0.0
  0
LINE
  5
11F
330
118
100
AcDbEntity
  8
10
 62
     0
100
AcDbLine
 10
0.0
 20
5.0
 30
0.0
 11
0.0
 21
5.829782509
 31
0.0
  0
LINE
  5
120
330
118
100
AcDbEntity
  8
10
 62
     0
100
AcDbLine
 10
-5.0
 20
0.0
 30
0.0
 11
-5.829782509
 21
0.0
 31
0.0
  0
LINE
  5
121
330
118
100
AcDbEntity
  8
10
 62
     0
100
AcDbLine
 10
0.0
 20
-5.0
 30
0.0
 11
0.0
 21
-5.829782509
 31
0.0
  0
LINE
  5
122
330
118
100
AcDbEntity
  8
10
 62
     0
100
AcDbLine
 10
5.0
 20
0.0
 30
0.0
 11
5.829782509
 21
0.0
 31
0.0
  0
ENDBLK
  5
11A
330
118
100
AcDbEntity
  8
0
100
AcDbBlockEnd
  0
BLOCK
  5
159
330
158
100
AcDbEntity
  8
0
100
AcDbBlockBegin
  2
SW_CENTERMARKSYMBOL_1
 70
     0
 10
0.0
 20
0.0
 30
0.0
  3
SW_CENTERMARKSYMBOL_1
  1

  0
LINE
  5
15B
330
158
100
AcDbEntity
  8
10
 62
     0
100
AcDbLine
 10
0.0
 20
0.0
 30
0.0
 11
0.0
 21
2.5
 31
0.0
  0
LINE
  5
15C
330
158
100
AcDbEntity
  8
10
 62
     0
100
AcDbLine
 10
0.0
 20
0.0
 30
0.0
 11
-2.5
 21
0.0
 31
0.0
  0
LINE
  5
15D
330
158
100
AcDbEntity
  8
10
 62
     0
100
AcDbLine
 10
0.0
 20
0.0
 30
0.0
 11
0.0
 21
-2.5
 31
0.0
  0
LINE
  5
15E
330
158
100
AcDbEntity
  8
10
 62
     0
100
AcDbLine
 10
0.0
 20
0.0
 30
0.0
 11
2.5
 21
0.0
 31
0.0
  0
LINE
  5
15F
330
158
100
AcDbEntity
  8
10
 62
     0
100
AcDbLine
 10
0.0
 20
5.0
 30
0.0
 11
0.0
 21
12.5422012175
 31
0.0
  0
LINE
  5
160
330
158
100
AcDbEntity
  8
10
 62
     0
100
AcDbLine
 10
-5.0
 20
0.0
 30
0.0
 11
-12.5422012175
 21
0.0
 31
0.0
  0
LINE
  5
161
330
158
100
AcDbEntity
  8
10
 62
     0
100
AcDbLine
 10
0.0
 20
-5.0
 30
0.0
 11
0.0
 21
-12.5422012175
 31
0.0
  0
LINE
  5
162
330
158
100
AcDbEntity
  8
10
 62
     0
100
AcDbLine
 10
5.0
 20
0.0
 30
0.0
 11
12.5422012175
 21
0.0
 31
0.0
  0
ENDBLK
  5
15A
330
158
100
AcDbEntity
  8
0
100
AcDbBlockEnd
  0
ENDSEC
  0
SECTION
  2
ENTITIES
  0
LINE
  5
70
330
1F
100
AcDbEntity
  8
0
  6
Continuous
 62
     7
370
    25
100
AcDbLine
 10
96.0548483693
 20
33.6263938801
 30
0.0
 11
95.9173826244
 21
33.6263938801
 31
0.0
  0
ARC
  5
71
330
1F
100
AcDbEntity
  8
0
  6
Continuous
 62
     7
370
    25
100
AcDbCircle
 10
96.0548483693
 20
33.3092717363
 30
0.0
 40
0.3171221437099376
100
AcDbArc
 50
0.0
 51
90.0
  0
LINE
  5
72
330
1F
100
AcDbEntity
  8
0
  6
Continuous
 62
     7
370
    25
100
AcDbLine
 10
75.2304942657
 20
79.609104718
 30
0.0
 11
89.7124054951
 21
79.609104718
 31
0.0
  0
LINE
  5
73
330
1F
100
AcDbEntity
  8
0
  6
Continuous
 62
     7
370
    25
100
AcDbLine
 10
69.6280030601
 20
79.609104718
 30
0.0
 11
71.0076176029
 21
79.609104718
 31
0.0
  0
LINE
  5
74
330
1F
100
AcDbEntity
  8
0
  6
Continuous
 62
     7
370
    25
100
AcDbLine
 10
89.7124054951
 20
92.5960491685
 30
0.0
 11
69.6280030601
 21
92.5960491685
 31
0.0
  0
LINE
  5
75
330
1F
100
AcDbEntity
  8
0
  6
Continuous
 62
     7
370
    25
100
AcDbLine
 10
69.6280030601
 20
92.5960491685
 30
0.0
 11
69.6280030601
 21
103.272005615
 31
0.0
  0
LINE
  5
76
330
1F
100
AcDbEntity
  8
0
  6
Continuous
 62
     7
370
    25
100
AcDbLine
 10
89.7124054951
 20
103.272005615
 30
0.0
 11
69.6280030601
 21
103.272005615
 31
0.0
  0
LINE
  5
77
330
1F
100
AcDbEntity
  8
0
  6
Continuous
 62
     7
370
    25
100
AcDbLine
 10
89.7124054951
 20
92.5960491685
 30
0.0
 11
89.7124054951
 21
103.272005615
 31
0.0
  0
LINE
  5
78
330
1F
100
AcDbEntity
  8
0
  6
Continuous
 62
     7
370
    25
100
AcDbLine
 10
89.7124054951
 20
86.5640275438
 30
0.0
 11
69.6280030601
 21
86.5640275438
 31
0.0
  0
LINE
  5
79
330
1F
100
AcDbEntity
  8
0
  6
Continuous
 62
     7
370
    25
100
AcDbLine
 10
69.6280030601
 20
86.5640275438
 30
0.0
 11
69.6280030601
 21
92.5960491685
 31
0.0
  0
LINE
  5
7A
330
1F
100
AcDbEntity
  8
0
  6
Continuous
 62
     7
370
    25
100
AcDbLine
 10
89.7124054951
 20
86.5640275438
 30
0.0
 11
89.7124054951
 21
92.5960491685
 31
0.0
  0
LINE
  5
7B
330
1F
100
AcDbEntity
  8
0
  6
Continuous
 62
     7
370
    25
100
AcDbLine
 10
89.7124054951
 20
79.9659235974
 30
0.0
 11
75.2307663232
 21
79.9659235974
 31
0.0
  0
SPLINE
  5
7C
330
1F
100
AcDbEntity
  8
0
  6
Continuous
 62
     7
370
    25
100
AcDbSpline
210
0.0
220
0.0
230
1.0
 70
     8
 71
     3
 72
    12
 73
     8
 74
     0
 42
0.00000001
 43
0.00000001
 40
0.0
 40
0.0
 40
0.0
 40
0.0
 40
0.2500000000000001
 40
0.2500000000000001
 40
0.5
 40
0.5
 40
1.0
 40
1.0
 40
1.0
 40
1.0
 10
87.57295160880383
 20
81.8942772104233
 30
0.0
 10
86.56385335207158
 20
81.715884964993
 30
0.0
 10
85.544690705487
 20
81.56691145761391
 30
0.0
 10
83.49801916397602
 20
81.29336096339273
 30
0.0
 10
82.47011010608942
 20
81.16995367381604
 30
0.0
 10
79.37846753554325
 20
80.82286892427564
 30
0.0
 10
77.30694857920636
 20
80.62194872347348
 30
0.0
 10
75.23049426567745
 20
80.43545482993437
 30
0.0
  0
LINE
  5
7D
330
1F
100
AcDbEntity
  8
0
  6
Continuous
 62
     7
370
    25
100
AcDbLine
 10
69.6280030601
 20
81.8942772105
 30
0.0
 11
87.5729516088
 21
81.8942772104
 31
0.0
  0
LINE
  5
7E
330
1F
100
AcDbEntity
  8
0
  6
Continuous
 62
     7
370
    25
100
AcDbLine
 10
69.6280030601
 20
81.8942772105
 30
0.0
 11
69.6280030601
 21
86.5640275438
 31
0.0
  0
LINE
  5
7F
330
1F
100
AcDbEntity
  8
0
  6
Continuous
 62
     7
370
    25
100
AcDbLine
 10
89.7124054951
 20
79.9659235974
 30
0.0
 11
89.7124054951
 21
86.5640275438
 31
0.0
  0
SPLINE
  5
80
330
1F
100
AcDbEntity
  8
0
  6
Continuous
 62
     7
370
    25
100
AcDbSpline
210
0.0
220
0.0
230
1.0
 70
     8
 71
     3
 72
    14
 73
    10
 74
     0
 42
0.00000001
 43
0.00000001
 40
0.0
 40
0.0
 40
0.0
 40
0.0
 40
0.25
 40
0.25
 40
0.5
 40
0.5
 40
0.75
 40
0.75
 40
1.0
 40
1.0
 40
1.0
 40
1.0
 10
83.56748531405773
 20
56.71140493533717
 30
0.0
 10
82.25860235300136
 20
58.31478656263082
 30
0.0
 10
81.06595836578276
 20
60.05237913723649
 30
0.0
 10
78.98274155821433
 20
63.73571207864489
 30
0.0
 10
78.09251526012221
 20
65.68115232543167
 30
0.0
 10
76.66150476289992
 20
69.69704925855369
 30
0.0
 10
76.12087786078132
 20
71.76706451655023
 30
0.0
 10
75.40541193642316
 20
75.93777696596277
 30
0.0
 10
75.2304942656778
 20
78.03802253351797
 30
0.0
 10
75.2304942656778
 20
80.10780688182275
 30
0.0
  0
LINE
  5
81
330
1F
100
AcDbEntity
  8
0
  6
Continuous
 62
     7
370
    25
100
AcDbLine
 10
88.0349794646
 20
51.2387246009
 30
0.0
 11
83.5674853141
 21
56.7114049353
 31
0.0
  0
SPLINE
  5
82
330
1F
100
AcDbEntity
  8
0
  6
Continuous
 62
     7
370
    25
100
AcDbSpline
210
0.0
220
0.0
230
1.0
 70
     8
 71
     3
 72
     8
 73
     4
 74
     0
 42
0.00000001
 43
0.00000001
 40
0.0
 40
0.0
 40
0.0
 40
0.0
 40
1.0
 40
1.0
 40
1.0
 40
1.0
 10
91.43244079776458
 20
46.3112796284566
 30
0.0
 10
90.43651852631598
 20
48.03998199759796
 30
0.0
 10
89.29660987521164
 20
49.69322734792339
 30
0.0
 10
88.0349794646263
 20
51.23872460088918
 30
0.0
  0
LINE
  5
83
330
1F
100
AcDbEntity
  8
0
  6
Continuous
 62
     7
370
    25
100
AcDbLine
 10
91.4324407978
 20
46.3112796285
 30
0.0
 11
83.7535652749
 21
46.3112796285
 31
0.0
  0
SPLINE
  5
84
330
1F
100
AcDbEntity
  8
0
  6
Continuous
 62
     7
370
    25
100
AcDbSpline
210
0.0
220
0.0
230
1.0
 70
     8
 71
     3
 72
    14
 73
    10
 74
     0
 42
0.00000001
 43
0.00000001
 40
0.0
 40
0.0
 40
0.0
 40
0.0
 40
0.25
 40
0.25
 40
0.5
 40
0.5
 40
0.75
 40
0.75
 40
1.0
 40
1.0
 40
1.0
 40
1.0
 10
71.00219901621213
 20
80.29880360716734
 30
0.0
 10
71.00219901621213
 20
78.14586104702443
 30
0.0
 10
71.16759681304546
 20
75.96687536241684
 30
0.0
 10
71.8414147366335
 20
71.63446876658915
 30
0.0
 10
72.34988476926604
 20
69.48136480360068
 30
0.0
 10
73.69757052232005
 20
65.28093168901236
 30
0.0
 10
74.53668643098581
 20
63.23391362818639
 30
0.0
 10
76.5092332567317
 20
59.31819702378658
 30
0.0
 10
77.64243918385708
 20
57.44972722963558
 30
0.0
 10
78.89501681521509
 20
55.69866728071825
 30
0.0
  0
LINE
  5
85
330
1F
100
AcDbEntity
  8
0
  6
Continuous
 62
     7
370
    25
100
AcDbLine
 10
75.2304942657
 20
80.1078068818
 30
0.0
 11
75.2304942657
 21
80.2988036072
 31
0.0
  0
SPLINE
  5
86
330
1F
100
AcDbEntity
  8
0
  6
Continuous
 62
     7
370
    25
100
AcDbSpline
210
0.0
220
0.0
230
1.0
 70
     8
 71
     3
 72
    10
 73
     6
 74
     0
 42
0.00000001
 43
0.00000001
 40
0.0
 40
0.0
 40
0.0
 40
0.0
 40
0.5
 40
0.5
 40
1.0
 40
1.0
 40
1.0
 40
1.0
 10
78.89501681521509
 20
55.69866728071825
 30
0.0
 10
79.91996761871226
 20
54.26582171754974
 30
0.0
 10
80.84733312436212
 20
52.75200677906334
 30
0.0
 10
82.47519661769836
 20
49.60674934598666
 30
0.0
 10
83.17560899859158
 20
47.9754722555617
 30
0.0
 10
83.75356527493973
 20
46.3112796284566
 30
0.0
  0
ARC
  5
87
330
1F
100
AcDbEntity
  8
0
  6
Continuous
 62
     7
370
    25
100
AcDbCircle
 10
59.3743870802
 20
27.8423226544
 30
0.0
 40
36.99758343282527
100
AcDbArc
 50
9.853257177
 51
29.9466635255
  0
LINE
  5
88
330
1F
100
AcDbEntity
  8
0
  6
Continuous
 62
     7
370
    25
100
AcDbLine
 10
85.8012323893
 20
34.1735479951
 30
0.0
 11
95.8262288108
 21
34.1735479951
 31
0.0
  0
ARC
  5
89
330
1F
100
AcDbEntity
  8
0
  6
Continuous
 62
     7
370
    25
100
AcDbCircle
 10
48.8036489565
 20
34.1735479951
 30
0.0
 40
36.99758343282519
100
AcDbArc
 50
0.0
 51
19.1515666588
  0
LINE
  5
8A
330
1F
100
AcDbEntity
  8
0
  6
Continuous
 62
     7
370
    25
100
AcDbLine
 10
89.7124054951
 20
107.0
 30
0.0
 11
69.6280030601
 21
107.0
 31
0.0
  0
LINE
  5
8B
330
1F
100
AcDbEntity
  8
0
  6
Continuous
 62
     7
370
    25
100
AcDbLine
 10
69.6280030601
 20
103.272005615
 30
0.0
 11
69.6280030601
 21
107.0
 31
0.0
  0
LINE
  5
8C
330
1F
100
AcDbEntity
  8
0
  6
Continuous
 62
     7
370
    25
100
AcDbLine
 10
89.7124054951
 20
103.272005615
 30
0.0
 11
89.7124054951
 21
107.0
 31
0.0
  0
LINE
  5
8D
330
1F
100
AcDbEntity
  8
0
  6
Continuous
 62
     7
370
    25
100
AcDbLine
 10
96.371970513
 20
7.0
 30
0.0
 11
96.371970513
 21
32.7807348302
 31
0.0
  0
LINE
  5
8E
330
1F
100
AcDbEntity
  8
0
  6
Continuous
 62
     7
370
    25
100
AcDbLine
 10
85.8012323893
 20
7.0
 30
0.0
 11
96.371970513
 21
7.0
 31
0.0
  0
LINE
  5
8F
330
1F
100
AcDbEntity
  8
0
  6
Continuous
 62
     7
370
    25
100
AcDbLine
 10
85.8012323893
 20
34.1735479951
 30
0.0
 11
85.8012323893
 21
7.0
 31
0.0
  0
ARC
  5
90
330
1F
100
AcDbEntity
  8
0
  6
Continuous
 62
     7
370
    25
100
AcDbCircle
 10
96.0548483693
 20
32.7807348302
 30
0.0
 40
0.3171221437099376
100
AcDbArc
 50
0.0
 51
90.0
  0
LINE
  5
91
330
1F
100
AcDbEntity
  8
0
  6
Continuous
 62
     7
370
    25
100
AcDbLine
 10
96.0548483693
 20
33.0978569739
 30
0.0
 11
95.996791956
 21
33.0978569739
 31
0.0
  0
ARC
  5
92
330
1F
100
AcDbEntity
  8
0
  6
Continuous
 62
     7
370
    25
100
AcDbCircle
 10
59.3743870802
 20
27.8423226544
 30
0.0
 40
36.99758343282524
100
AcDbArc
 50
8.1665314913
 51
9.853257177
  0
LINE
  5
93
330
1F
100
AcDbEntity
  8
0
  6
Continuous
 62
     7
370
    25
100
AcDbLine
 10
96.371970513
 20
33.3092717363
 30
0.0
 11
96.371970513
 21
32.7807348302
 31
0.0
  0
LWPOLYLINE
  5
94
330
1F
100
AcDbEntity
  8
0
  6
Continuous
 62
     7
370
    25
100
AcDbPolyline
 90
        3
 70
   128
 43
0.0
 10
75.2304942657
 20
81.2324187596
 10
82.1422861274
 20
81.6027754293
 10
87.5729516088
 20
81.8942772104
  0
LWPOLYLINE
  5
95
330
1F
100
AcDbEntity
  8
0
  6
Continuous
 62
     7
370
    25
100
AcDbPolyline
 90
        3
 70
   128
 43
0.0
 10
69.6280030601
 20
80.9327152426
 10
70.397552965
 20
80.9738551697
 10
71.0021990162
 20
81.0061864264
  0
LINE
  5
96
330
1F
100
AcDbEntity
  8
0
  6
Continuous
 62
     7
370
    25
100
AcDbLine
 10
71.0021990162
 20
80.2988036072
 30
0.0
 11
71.0021990162
 21
81.0061864264
 31
0.0
  0
LINE
  5
97
330
1F
100
AcDbEntity
  8
0
  6
Continuous
 62
     7
370
    25
100
AcDbLine
 10
75.2304942657
 20
81.2324187596
 30
0.0
 11
75.2304942657
 21
80.2988036072
 31
0.0
  0
LINE
  5
98
330
1F
100
AcDbEntity
  8
0
  6
Continuous
 62
     7
370
    25
100
AcDbLine
 10
69.6280030601
 20
80.9327152426
 30
0.0
 11
69.6280030601
 21
81.8942772105
 31
0.0
  0
SPLINE
  5
99
330
1F
100
AcDbEntity
  8
0
  6
Continuous
 62
     7
370
    25
100
AcDbSpline
210
0.0
220
0.0
230
1.0
 70
     8
 71
     3
 72
     8
 73
     4
 74
     0
 42
0.00000001
 43
0.00000001
 40
0.05535636251073
 40
0.05535636251073
 40
0.05535636251073
 40
0.05535636251073
 40
0.05667331825885
 40
0.05667331825885
 40
0.05667331825885
 40
0.05667331825885
 10
71.00278810069612
 20
80.07560836644772
 30
0.0
 10
70.54464522812157
 20
80.03852222805162
 30
0.0
 10
70.08637965919023
 20
80.00197781974136
 30
0.0
 10
69.62800306013577
 20
79.96592374540431
 30
0.0
  0
LINE
  5
9A
330
1F
100
AcDbEntity
  8
0
  6
Continuous
 62
     7
370
    25
100
AcDbLine
 10
69.6280030601
 20
79.9659237454
 30
0.0
 11
69.6280030601
 21
80.9327152426
 31
0.0
  0
LINE
  5
9B
330
1F
100
AcDbEntity
  8
0
  6
Continuous
 62
     7
370
    25
100
AcDbLine
 10
71.0035093648
 20
79.9659235974
 30
0.0
 11
69.6280030601
 21
79.9659237454
 31
0.0
  0
LINE
  5
9C
330
1F
100
AcDbEntity
  8
0
  6
Continuous
 62
     7
370
    25
100
AcDbLine
 10
89.7124054951
 20
79.609104718
 30
0.0
 11
89.7124054951
 21
79.9659235974
 31
0.0
  0
LINE
  5
9D
330
1F
100
AcDbEntity
  8
0
  6
Continuous
 62
     7
370
    25
100
AcDbLine
 10
69.6280030601
 20
79.609104718
 30
0.0
 11
69.6280030601
 21
79.9659237454
 31
0.0
  0
LINE
  5
9E
330
1F
100
AcDbEntity
  8
0
  6
HIDDEN
 62
     7
370
    18
100
AcDbLine
 10
73.8562983096
 20
103.9218024024
 30
0.0
 11
73.8562983096
 21
83.8373999675
 31
0.0
  0
LINE
  5
9F
330
1F
100
AcDbEntity
  8
0
  6
HIDDEN
 62
     7
370
    18
100
AcDbLine
 10
71.2136137787
 20
93.8796011849
 30
0.0
 11
71.2136137787
 21
102.600460137
 31
0.0
  0
LINE
  5
A0
330
1F
100
AcDbEntity
  8
0
  6
HIDDEN
 62
     7
370
    18
100
AcDbLine
 10
71.2136137787
 20
85.1587422329
 30
0.0
 11
71.2136137787
 21
93.8796011849
 31
0.0
  0
LINE
  5
A1
330
1F
100
AcDbEntity
  8
0
  6
HIDDEN
 62
     7
370
    18
100
AcDbLine
 10
94.4163839601
 20
10.4354898902
 30
0.0
 11
87.7568189422
 21
10.4354898902
 31
0.0
  0
SPLINE
  5
A2
330
1F
100
AcDbEntity
  8
0
  6
HIDDEN
 62
     7
370
    18
100
AcDbSpline
210
0.0
220
0.0
230
1.0
 70
     8
 71
     3
 72
    10
 73
     6
 74
     0
 42
0.00000001
 43
0.00000001
 40
0.0
 40
0.0
 40
0.0
 40
0.0
 40
0.3709713399556895
 40
0.7419426722104139
 40
1.0
 40
1.0
 40
1.0
 40
1.0
 10
75.23076632318165
 20
79.9659235974034
 30
0.0
 10
75.23121493496518
 20
79.88808077462447
 30
0.0
 10
75.23211215852295
 20
79.73239513068253
 30
0.0
 10
75.23372323007484
 20
79.62140471850088
 30
0.0
 10
75.23369151878236
 20
79.6208375253849
 30
0.0
 10
75.23367850930933
 20
79.62060483592391
 30
0.0
  0
LINE
  5
A3
330
1F
100
AcDbEntity
  8
0
  6
HIDDEN
 62
     7
370
    18
100
AcDbLine
 10
71.0035093648
 20
79.9659235974
 30
0.0
 11
69.6280030601
 21
79.9659235974
 31
0.0
  0
SPLINE
  5
A4
330
1F
100
AcDbEntity
  8
0
  6
HIDDEN
 62
     7
370
    18
100
AcDbSpline
210
0.0
220
0.0
230
1.0
 70
     8
 71
     3
 72
    10
 73
     6
 74
     0
 42
0.00000001
 43
0.00000001
 40
0.0
 40
0.0
 40
0.0
 40
0.0
 40
0.370962736285602
 40
0.7419254206584
 40
1.0
 40
1.0
 40
1.0
 40
1.0
 10
71.0035093648441
 20
79.9659235974034
 30
0.0
 10
71.00425353695869
 20
79.88808230558939
 30
0.0
 10
71.00574188108372
 20
79.73239973285453
 30
0.0
 10
71.00765305386214
 20
79.6214073376126
 30
0.0
 10
71.00762791613619
 20
79.62083715135797
 30
0.0
 10
71.00761760290288
 20
79.62060322153174
 30
0.0
  0
SPLINE
  5
A5
330
1F
100
AcDbEntity
  8
0
  6
HIDDEN
 62
     7
370
    18
100
AcDbSpline
210
0.0
220
0.0
230
1.0
 70
     8
 71
     3
 72
     8
 73
     4
 74
     0
 42
0.00000001
 43
0.00000001
 40
0.0
 40
0.0
 40
0.0
 40
0.0
 40
1.0
 40
1.0
 40
1.0
 40
1.0
 10
71.00278810069702
 20
80.07560836644772
 30
0.0
 10
71.00298109926307
 20
80.03904649567609
 30
0.0
 10
71.00322152105022
 20
80.00248484449118
 30
0.0
 10
71.00350936484412
 20
79.9659235974034
 30
0.0
  0
ARC
  5
A6
330
1F
100
AcDbEntity
  8
0
  6
HIDDEN
 62
     7
370
    18
100
AcDbCircle
 10
88.6553316827
 20
82.7803261551
 30
0.0
 40
1.05707381236644
100
AcDbArc
 50
0.0
 51
90.0
  0
ARC
  5
A7
330
1F
100
AcDbEntity
  8
0
  6
HIDDEN
 62
     7
370
    18
100
AcDbCircle
 10
88.6553316827
 20
104.9788762148
 30
0.0
 40
1.05707381236644
100
AcDbArc
 50
270.0
 51
0.0
  0
LINE
  5
A8
330
1F
100
AcDbEntity
  8
0
  6
HIDDEN
 62
     7
370
    18
100
AcDbLine
 10
88.6553316827
 20
103.9218024024
 30
0.0
 11
73.8562983096
 21
103.9218024024
 31
0.0
  0
LINE
  5
A9
330
1F
100
AcDbEntity
  8
0
  6
HIDDEN
 62
     7
370
    18
100
AcDbLine
 10
73.8562983096
 20
83.8373999675
 30
0.0
 11
88.6553316827
 21
83.8373999675
 31
0.0
  0
ARC
  5
AA
330
1F
100
AcDbEntity
  8
0
  6
HIDDEN
 62
     7
370
    18
100
AcDbCircle
 10
70.6850768725
 20
84.1016684206
 30
0.0
 40
1.057073812366426
100
AcDbArc
 50
90.0
 51
180.0
  0
ARC
  5
AB
330
1F
100
AcDbEntity
  8
0
  6
HIDDEN
 62
     7
370
    18
100
AcDbCircle
 10
70.6850768725
 20
103.6575339493
 30
0.0
 40
1.057073812366426
100
AcDbArc
 50
180.0
 51
270.0
  0
LINE
  5
AC
330
1F
100
AcDbEntity
  8
0
  6
HIDDEN
 62
     7
370
    18
100
AcDbLine
 10
70.6850768725
 20
85.1587422329
 30
0.0
 11
71.2136137787
 21
85.1587422329
 31
0.0
  0
LINE
  5
AD
330
1F
100
AcDbEntity
  8
0
  6
HIDDEN
 62
     7
370
    18
100
AcDbLine
 10
71.2136137787
 20
102.600460137
 30
0.0
 11
70.6850768725
 21
102.600460137
 31
0.0
  0
LINE
  5
AE
330
1F
100
AcDbEntity
  8
0
  6
HIDDEN
 62
     7
370
    18
100
AcDbLine
 10
94.4163839601
 20
7.0
 30
0.0
 11
94.4163839601
 21
10.4354898902
 31
0.0
  0
LINE
  5
AF
330
1F
100
AcDbEntity
  8
0
  6
HIDDEN
 62
     7
370
    18
100
AcDbLine
 10
87.7568189422
 20
10.4354898902
 30
0.0
 11
87.7568189422
 21
7.0
 31
0.0
  0
LINE
  5
B0
330
1F
100
AcDbEntity
  8
0
  6
Continuous
 62
     7
370
    25
100
AcDbLine
 10
89.7124054951
 20
168.7438265266
 30
0.0
 11
69.6280030601
 21
168.7438265266
 31
0.0
  0
LINE
  5
B1
330
1F
100
AcDbEntity
  8
0
  6
Continuous
 62
     7
370
    25
100
AcDbLine
 10
89.7124054951
 20
163.6126824556
 30
0.0
 11
69.6280030601
 21
163.6126824556
 31
0.0
  0
LINE
  5
B2
330
1F
100
AcDbEntity
  8
0
  6
Continuous
 62
     7
370
    25
100
AcDbLine
 10
69.6280030601
 20
163.6126824556
 30
0.0
 11
69.6280030601
 21
168.7438265266
 31
0.0
  0
LINE
  5
B3
330
1F
100
AcDbEntity
  8
0
  6
Continuous
 62
     7
370
    25
100
AcDbLine
 10
89.7124054951
 20
163.6126824556
 30
0.0
 11
89.7124054951
 21
168.7438265266
 31
0.0
  0
LINE
  5
B4
330
1F
100
AcDbEntity
  8
0
  6
Continuous
 62
     7
370
    25
100
AcDbLine
 10
89.7124054951
 20
152.3873175444
 30
0.0
 11
69.6280030601
 21
152.3873231607
 31
0.0
  0
LINE
  5
B5
330
1F
100
AcDbEntity
  8
0
  6
Continuous
 62
     7
370
    25
100
AcDbLine
 10
69.6280030601
 20
152.3873231607
 30
0.0
 11
69.6280030601
 21
163.6126824556
 31
0.0
  0
LINE
  5
B6
330
1F
100
AcDbEntity
  8
0
  6
Continuous
 62
     7
370
    25
100
AcDbLine
 10
89.7124054951
 20
152.3873175444
 30
0.0
 11
89.7124054951
 21
163.6126824556
 31
0.0
  0
LINE
  5
B7
330
1F
100
AcDbEntity
  8
0
  6
Continuous
 62
     7
370
    25
100
AcDbLine
 10
89.7124054951
 20
147.2561734734
 30
0.0
 11
69.6280030601
 21
147.2561734734
 31
0.0
  0
LINE
  5
B8
330
1F
100
AcDbEntity
  8
0
  6
Continuous
 62
     7
370
    25
100
AcDbLine
 10
69.6280030601
 20
147.2561734734
 30
0.0
 11
69.6280030601
 21
152.3873231607
 31
0.0
  0
LINE
  5
B9
330
1F
100
AcDbEntity
  8
0
  6
Continuous
 62
     7
370
    25
100
AcDbLine
 10
89.7124054951
 20
147.2561734734
 30
0.0
 11
89.7124054951
 21
152.3873175444
 31
0.0
  0
LINE
  5
BA
330
1F
100
AcDbEntity
  8
0
  6
Continuous
 62
     7
370
    25
100
AcDbLine
 10
89.7124054951
 20
172.2126550522
 30
0.0
 11
69.6280030601
 21
172.2126550522
 31
0.0
  0
LINE
  5
BB
330
1F
100
AcDbEntity
  8
0
  6
Continuous
 62
     7
370
    25
100
AcDbLine
 10
69.6280030601
 20
168.7438265266
 30
0.0
 11
69.6280030601
 21
172.2126550522
 31
0.0
  0
LINE
  5
BC
330
1F
100
AcDbEntity
  8
0
  6
Continuous
 62
     7
370
    25
100
AcDbLine
 10
89.7124054951
 20
168.7438265266
 30
0.0
 11
89.7124054951
 21
172.2126550522
 31
0.0
  0
LINE
  5
BD
330
1F
100
AcDbEntity
  8
0
  6
Continuous
 62
     7
370
    25
100
AcDbLine
 10
89.7124054951
 20
143.7873449478
 30
0.0
 11
69.6280030601
 21
143.7873449478
 31
0.0
  0
LINE
  5
BE
330
1F
100
AcDbEntity
  8
0
  6
Continuous
 62
     7
370
    25
100
AcDbLine
 10
69.6280030601
 20
143.7873449478
 30
0.0
 11
69.6280030601
 21
147.2561734734
 31
0.0
  0
LINE
  5
BF
330
1F
100
AcDbEntity
  8
0
  6
Continuous
 62
     7
370
    25
100
AcDbLine
 10
89.7124054951
 20
143.7873449478
 30
0.0
 11
89.7124054951
 21
147.2561734734
 31
0.0
  0
LINE
  5
C0
330
1F
100
AcDbEntity
  8
0
  6
Continuous
 62
     7
370
    25
100
AcDbLine
 10
91.4324407978
 20
170.1563488422
 30
0.0
 11
89.7124054951
 21
170.1563488422
 31
0.0
  0
SPLINE
  5
C1
330
1F
100
AcDbEntity
  8
0
  6
Continuous
 62
     7
370
    25
100
AcDbSpline
210
0.0
220
0.0
230
1.0
 70
     8
 71
     3
 72
     9
 73
     5
 74
     0
 42
0.00000001
 43
0.00000001
 40
0.0
 40
0.0
 40
0.0
 40
0.0
 40
0.170615686214708
 40
1.0
 40
1.0
 40
1.0
 40
1.0
 10
89.7124054950978
 20
169.6818484257814
 30
0.0
 10
89.82139600217926
 20
169.7075216658201
 30
0.0
 10
90.46020307496097
 20
169.8579957553271
 30
0.0
 10
90.99165932255057
 20
170.0210850989066
 30
0.0
 10
91.43244079776458
 20
170.156348842217
 30
0.0
  0
LINE
  5
C2
330
1F
100
AcDbEntity
  8
0
  6
Continuous
 62
     7
370
    25
100
AcDbLine
 10
91.4324407978
 20
145.8436511578
 30
0.0
 11
89.7124054951
 21
146.3224512093
 31
0.0
  0
LINE
  5
C3
330
1F
100
AcDbEntity
  8
0
  6
Continuous
 62
     7
370
    25
100
AcDbLine
 10
91.4324407978
 20
145.8436511578
 30
0.0
 11
89.7124054951
 21
145.8436511578
 31
0.0
  0
LINE
  5
C4
330
1F
100
AcDbEntity
  8
0
  6
Continuous
 62
     7
370
    25
100
AcDbLine
 10
95.996791956
 20
149.6264169109
 30
0.0
 11
95.996791956
 21
149.2262873574
 31
0.0
  0
LINE
  5
C5
330
1F
100
AcDbEntity
  8
0
  6
Continuous
 62
     7
370
    25
100
AcDbLine
 10
95.996791956
 20
149.2262873574
 30
0.0
 11
95.8262288108
 21
149.2262873574
 31
0.0
  0
LINE
  5
C6
330
1F
100
AcDbEntity
  8
0
  6
Continuous
 62
     7
370
    25
100
AcDbLine
 10
95.8262288108
 20
149.2262873574
 30
0.0
 11
95.8262288108
 21
145.8436511578
 31
0.0
  0
LINE
  5
C7
330
1F
100
AcDbEntity
  8
0
  6
Continuous
 62
     7
370
    25
100
AcDbLine
 10
95.8262288108
 20
145.8436511578
 30
0.0
 11
91.4324407978
 21
145.8436511578
 31
0.0
  0
LINE
  5
C8
330
1F
100
AcDbEntity
  8
0
  6
Continuous
 62
     7
370
    25
100
AcDbLine
 10
91.4324407978
 20
170.1563488422
 30
0.0
 11
95.8262288108
 21
170.1563488422
 31
0.0
  0
LINE
  5
C9
330
1F
100
AcDbEntity
  8
0
  6
Continuous
 62
     7
370
    25
100
AcDbLine
 10
95.8262288108
 20
170.1563488422
 30
0.0
 11
95.8262288108
 21
166.7737126426
 31
0.0
  0
LINE
  5
CA
330
1F
100
AcDbEntity
  8
0
  6
Continuous
 62
     7
370
    25
100
AcDbLine
 10
95.996791956
 20
166.7737126426
 30
0.0
 11
95.8262288108
 21
166.7737126426
 31
0.0
  0
LINE
  5
CB
330
1F
100
AcDbEntity
  8
0
  6
Continuous
 62
     7
370
    25
100
AcDbLine
 10
95.996791956
 20
166.7737126426
 30
0.0
 11
95.996791956
 21
166.3738700296
 31
0.0
  0
SPLINE
  5
CC
330
1F
100
AcDbEntity
  8
0
  6
Continuous
 62
     7
370
    25
100
AcDbSpline
210
0.0
220
0.0
230
1.0
 70
     8
 71
     3
 72
     9
 73
     5
 74
     0
 42
0.00000001
 43
0.00000001
 40
0.0
 40
0.0
 40
0.0
 40
0.0
 40
0.5
 40
1.0
 40
1.0
 40
1.0
 40
1.0
 10
95.99679681952041
 20
166.3738667729791
 30
0.0
 10
95.94602702021076
 20
163.582625684425
 30
0.0
 10
95.88806082086425
 20
158.0001427288489
 30
0.0
 10
95.94602324263069
 20
152.4176582436778
 30
0.0
 10
95.99679168330141
 20
149.6264156118604
 30
0.0
  0
LINE
  5
CD
330
1F
100
AcDbEntity
  8
0
  6
Continuous
 62
     7
370
    25
100
AcDbLine
 10
95.9968498657
 20
149.626400621
 30
0.0
 11
96.0548483693
 21
149.626400621
 31
0.0
  0
LINE
  5
CE
330
1F
100
AcDbEntity
  8
0
  6
Continuous
 62
     7
370
    25
100
AcDbLine
 10
95.9968539441
 20
166.373599379
 30
0.0
 11
96.0548483693
 21
166.373599379
 31
0.0
  0
LINE
  5
CF
330
1F
100
AcDbEntity
  8
0
  6
Continuous
 62
     7
370
    25
100
AcDbLine
 10
96.371970513
 20
166.3535588253
 30
0.0
 11
96.371970513
 21
149.6464411747
 31
0.0
  0
SPLINE
  5
D0
330
1F
100
AcDbEntity
  8
0
  6
Continuous
 62
     7
370
    25
100
AcDbSpline
210
0.0
220
0.0
230
1.0
 70
     8
 71
     3
 72
    10
 73
     6
 74
     0
 42
0.00000001
 43
0.00000001
 40
0.0
 40
0.0
 40
0.0
 40
0.0
 40
0.5
 40
0.5
 40
1.0
 40
1.0
 40
1.0
 40
1.0
 10
96.05484836929631
 20
149.6264006209591
 30
0.0
 10
96.13787717312445
 20
149.6264006209592
 30
0.0
 10
96.22039517469598
 20
149.6285578295659
 30
0.0
 10
96.33780025476041
 20
149.6359742359093
 30
0.0
 10
96.37197051335029
 20
149.6411888919254
 30
0.0
 10
96.37197051300625
 20
149.6464411705898
 30
0.0
  0
SPLINE
  5
D1
330
1F
100
AcDbEntity
  8
0
  6
Continuous
 62
     7
370
    25
100
AcDbSpline
210
0.0
220
0.0
230
1.0
 70
     8
 71
     3
 72
    10
 73
     6
 74
     0
 42
0.00000001
 43
0.00000001
 40
0.0
 40
0.0
 40
0.0
 40
0.0
 40
0.5
 40
0.5
 40
1.0
 40
1.0
 40
1.0
 40
1.0
 10
96.05572000670365
 20
166.3735993034315
 30
0.0
 10
96.13860322884454
 20
166.3735849240324
 30
0.0
 10
96.22088641474255
 20
166.3714212955288
 30
0.0
 10
96.33792488040187
 20
166.3640076816015
 30
0.0
 10
96.3719705132232
 20
166.358802135785
 30
0.0
 10
96.37197051300625
 20
166.353558821552
 30
0.0
  0
LINE
  5
D2
330
1F
100
AcDbEntity
  8
0
  6
Continuous
 62
     7
370
    25
100
AcDbLine
 10
96.371970513
 20
166.7737126426
 30
0.0
 11
96.371970513
 21
166.3535588253
 31
0.0
  0
LINE
  5
D3
330
1F
100
AcDbEntity
  8
0
  6
Continuous
 62
     7
370
    25
100
AcDbLine
 10
96.0548483693
 20
166.7737126426
 30
0.0
 11
96.371970513
 21
166.7737126426
 31
0.0
  0
LINE
  5
D4
330
1F
100
AcDbEntity
  8
0
  6
Continuous
 62
     7
370
    25
100
AcDbLine
 10
95.996791956
 20
166.7737126426
 30
0.0
 11
96.0548483693
 21
166.7737126426
 31
0.0
  0
LINE
  5
D5
330
1F
100
AcDbEntity
  8
0
  6
Continuous
 62
     7
370
    25
100
AcDbLine
 10
96.0548483693
 20
149.2262873574
 30
0.0
 11
95.996791956
 21
149.2262873574
 31
0.0
  0
LINE
  5
D6
330
1F
100
AcDbEntity
  8
0
  6
Continuous
 62
     7
370
    25
100
AcDbLine
 10
96.371970513
 20
149.6464411747
 30
0.0
 11
96.371970513
 21
149.2262873574
 31
0.0
  0
LINE
  5
D7
330
1F
100
AcDbEntity
  8
0
  6
Continuous
 62
     7
370
    25
100
AcDbLine
 10
96.0548483693
 20
149.2262873574
 30
0.0
 11
96.371970513
 21
149.2262873574
 31
0.0
  0
LINE
  5
D8
330
1F
100
AcDbEntity
  8
0
  6
HIDDEN
 62
     7
370
    18
100
AcDbLine
 10
73.8562983096
 20
168.0422012175
 30
0.0
 11
73.8562983096
 21
147.9577987825
 31
0.0
  0
LINE
  5
D9
330
1F
100
AcDbEntity
  8
0
  6
HIDDEN
 62
     7
370
    18
100
AcDbLine
 10
71.2136137787
 20
149.279141048
 30
0.0
 11
71.2136137787
 21
166.720858952
 31
0.0
  0
LINE
  5
DA
330
1F
100
AcDbEntity
  8
0
  6
HIDDEN
 62
     7
370
    18
100
AcDbLine
 10
89.7124054951
 20
170.2527324183
 30
0.0
 11
69.6280030601
 21
170.2527324183
 31
0.0
  0
LINE
  5
DB
330
1F
100
AcDbEntity
  8
0
  6
HIDDEN
 62
     7
370
    18
100
AcDbLine
 10
89.7124054951
 20
145.7472675817
 30
0.0
 11
69.6280030601
 21
145.7472675817
 31
0.0
  0
SPLINE
  5
DC
330
1F
100
AcDbEntity
  8
0
  6
HIDDEN
 62
     7
370
    18
100
AcDbSpline
210
0.0
220
0.0
230
1.0
 70
     8
 71
     3
 72
    12
 73
     8
 74
     0
 42
0.00000001
 43
0.00000001
 40
0.0
 40
0.0
 40
0.0
 40
0.0
 40
0.2500000000000001
 40
0.2500000000000001
 40
0.5
 40
0.5
 40
1.0
 40
1.0
 40
1.0
 40
1.0
 10
87.57295160880383
 20
152.1746275136677
 30
0.0
 10
86.56385335207158
 20
152.4201633750305
 30
0.0
 10
85.544690705487
 20
152.6252078172164
 30
0.0
 10
83.49801916397602
 20
153.0017177717987
 30
0.0
 10
82.47011010608942
 20
153.1715733340266
 30
0.0
 10
79.37846753554325
 20
153.6492945081657
 30
0.0
 10
77.30694857920636
 20
153.9258374400074
 30
0.0
 10
75.23049426567745
 20
154.1825242633531
 30
0.0
  0
SPLINE
  5
DD
330
1F
100
AcDbEntity
  8
0
  6
HIDDEN
 62
     7
370
    18
100
AcDbSpline
210
0.0
220
0.0
230
1.0
 70
     8
 71
     3
 72
    12
 73
     8
 74
     0
 42
0.00000001
 43
0.00000001
 40
0.0
 40
0.0
 40
0.0
 40
0.0
 40
0.5
 40
0.5
 40
0.75
 40
0.75
 40
1.0
 40
1.0
 40
1.0
 40
1.0
 10
75.23049426567698
 20
161.8174757366564
 30
0.0
 10
77.30694857920531
 20
162.0741625600022
 30
0.0
 10
79.37846753554454
 20
162.3507054918445
 30
0.0
 10
82.47011010608976
 20
162.828426665984
 30
0.0
 10
83.49801916397602
 20
162.998282228212
 30
0.0
 10
85.54469070548629
 20
163.3747921827947
 30
0.0
 10
86.56385335207023
 20
163.5798366249809
 30
0.0
 10
87.57295160880203
 20
163.8253724863441
 30
0.0
  0
LINE
  5
DE
330
1F
100
AcDbEntity
  8
0
  6
HIDDEN
 62
     7
370
    18
100
AcDbLine
 10
71.0021990162
 20
163.9885919999
 30
0.0
 11
71.0021990162
 21
164.1185997443
 31
0.0
  0
LINE
  5
DF
330
1F
100
AcDbEntity
  8
0
  6
HIDDEN
 62
     7
370
    18
100
AcDbLine
 10
75.2304942657
 20
164.1185997443
 30
0.0
 11
75.2304942657
 21
163.947013445
 31
0.0
  0
LINE
  5
E0
330
1F
100
AcDbEntity
  8
0
  6
HIDDEN
 62
     7
370
    18
100
AcDbLine
 10
71.0021990162
 20
163.9885919999
 30
0.0
 11
69.6280030601
 21
164.0020960128
 31
0.0
  0
LWPOLYLINE
  5
E1
330
1F
100
AcDbEntity
  8
0
  6
HIDDEN
 62
     7
370
    18
100
AcDbPolyline
 90
        3
 70
   128
 43
0.0
 10
87.5729516088
 20
163.8253724863
 10
80.6611911468
 20
163.8935433114
 10
75.2304942657
 20
163.947013445
  0
LINE
  5
E2
330
1F
100
AcDbEntity
  8
0
  6
HIDDEN
 62
     7
370
    18
100
AcDbLine
 10
69.6280030601
 20
163.8253724863
 30
0.0
 11
87.5729516088
 21
163.8253724863
 31
0.0
  0
LINE
  5
E3
330
1F
100
AcDbEntity
  8
0
  6
HIDDEN
 62
     7
370
    18
100
AcDbLine
 10
75.2304942657
 20
152.052986555
 30
0.0
 11
75.2304942657
 21
151.8814002557
 31
0.0
  0
LINE
  5
E4
330
1F
100
AcDbEntity
  8
0
  6
HIDDEN
 62
     7
370
    18
100
AcDbLine
 10
71.0021990162
 20
151.8814002557
 30
0.0
 11
71.0021990162
 21
152.0114080001
 31
0.0
  0
LWPOLYLINE
  5
E5
330
1F
100
AcDbEntity
  8
0
  6
HIDDEN
 62
     7
370
    18
100
AcDbPolyline
 90
        3
 70
   128
 43
0.0
 10
69.6280030601
 20
151.9979049539
 10
70.397552965
 20
152.0054659365
 10
71.0021990162
 20
152.0114080001
  0
LWPOLYLINE
  5
E6
330
1F
100
AcDbEntity
  8
0
  6
HIDDEN
 62
     7
370
    18
100
AcDbPolyline
 90
        3
 70
   128
 43
0.0
 10
75.2304942657
 20
152.052986555
 10
82.1422861274
 20
152.1210532848
 10
87.5729516088
 20
152.1746275137
  0
LINE
  5
E7
330
1F
100
AcDbEntity
  8
0
  6
HIDDEN
 62
     7
370
    18
100
AcDbLine
 10
69.6280030601
 20
152.1746275137
 30
0.0
 11
87.5729516088
 21
152.1746275137
 31
0.0
  0
LINE
  5
E8
330
1F
100
AcDbEntity
  8
0
  6
HIDDEN
 62
     7
370
    18
100
AcDbLine
 10
75.2304942657
 20
163.947013445
 30
0.0
 11
75.2304942657
 21
161.8174757366
 31
0.0
  0
LINE
  5
E9
330
1F
100
AcDbEntity
  8
0
  6
HIDDEN
 62
     7
370
    18
100
AcDbLine
 10
75.2304942657
 20
161.8174757366
 30
0.0
 11
75.2304942657
 21
161.3665070246
 31
0.0
  0
LINE
  5
EA
330
1F
100
AcDbEntity
  8
0
  6
HIDDEN
 62
     7
370
    18
100
AcDbLine
 10
75.2304942657
 20
154.1825242634
 30
0.0
 11
75.2304942657
 21
152.052986555
 31
0.0
  0
LINE
  5
EB
330
1F
100
AcDbEntity
  8
0
  6
HIDDEN
 62
     7
370
    18
100
AcDbLine
 10
75.2304942657
 20
154.6334929754
 30
0.0
 11
75.2304942657
 21
154.1825242634
 31
0.0
  0
LINE
  5
EC
330
1F
100
AcDbEntity
  8
0
  6
HIDDEN
 62
     7
370
    18
100
AcDbLine
 10
71.0021990162
 20
162.141253293
 30
0.0
 11
71.0021990162
 21
163.9885919999
 31
0.0
  0
LINE
  5
ED
330
1F
100
AcDbEntity
  8
0
  6
HIDDEN
 62
     7
370
    18
100
AcDbLine
 10
71.0021990162
 20
152.0114080001
 30
0.0
 11
71.0021990162
 21
153.858746707
 31
0.0
  0
SPLINE
  5
EE
330
1F
100
AcDbEntity
  8
0
  6
HIDDEN
 62
     7
370
    18
100
AcDbSpline
210
0.0
220
0.0
230
1.0
 70
     8
 71
     3
 72
    14
 73
    10
 74
     0
 42
0.00000001
 43
0.00000001
 40
0.0
 40
0.0
 40
0.0
 40
0.0
 40
0.2499999999999998
 40
0.2499999999999998
 40
0.4999999999999999
 40
0.4999999999999999
 40
0.7499999999999999
 40
0.7499999999999999
 40
1.0
 40
1.0
 40
1.0
 40
1.0
 10
75.2304942656778
 20
164.1525295564796
 30
0.0
 10
75.2304942656778
 20
164.5202185528817
 30
0.0
 10
75.40541193642316
 20
164.8933188643053
 30
0.0
 10
76.12087786078133
 20
165.6342294215151
 30
0.0
 10
76.66150476289992
 20
166.00195943811
 30
0.0
 10
78.09251526012221
 20
166.7153676316755
 30
0.0
 10
78.98274155821431
 20
167.0609673906492
 30
0.0
 10
81.06595836578275
 20
167.7152969075146
 30
0.0
 10
82.25860235300136
 20
168.0239733502735
 30
0.0
 10
83.56748531405773
 20
168.3088077495055
 30
0.0
  0
SPLINE
  5
EF
330
1F
100
AcDbEntity
  8
0
  6
HIDDEN
 62
     7
370
    18
100
AcDbSpline
210
0.0
220
0.0
230
1.0
 70
     8
 71
     3
 72
    14
 73
    10
 74
     0
 42
0.00000001
 43
0.00000001
 40
0.0
 40
0.0
 40
0.0
 40
0.0
 40
0.25
 40
0.25
 40
0.5
 40
0.5
 40
0.75
 40
0.75
 40
1.0
 40
1.0
 40
1.0
 40
1.0
 10
83.56748531405773
 20
147.6911922505008
 30
0.0
 10
82.25860235300136
 20
147.9760266497329
 30
0.0
 10
81.06595836578276
 20
148.2847030924918
 30
0.0
 10
78.98274155821433
 20
148.9390326093572
 30
0.0
 10
78.09251526012221
 20
149.2846323683308
 30
0.0
 10
76.66150476289992
 20
149.9980405618964
 30
0.0
 10
76.12087786078132
 20
150.3657705784913
 30
0.0
 10
75.40541193642316
 20
151.106681135701
 30
0.0
 10
75.2304942656778
 20
151.4797814471247
 30
0.0
 10
75.2304942656778
 20
151.8474704435267
 30
0.0
  0
SPLINE
  5
F0
330
1F
100
AcDbEntity
  8
0
  6
HIDDEN
 62
     7
370
    18
100
AcDbSpline
210
0.0
220
0.0
230
1.0
 70
     8
 71
     3
 72
    10
 73
     6
 74
     0
 42
0.00000001
 43
0.00000001
 40
0.0
 40
0.0
 40
0.0
 40
0.0
 40
0.5
 40
0.5
 40
1.0
 40
1.0
 40
1.0
 40
1.0
 10
75.2307663231819
 20
161.171221437102
 30
0.0
 10
75.23168155054576
 20
160.1241331664966
 30
0.0
 10
75.2338454010115
 20
159.070320783213
 30
0.0
 10
75.2338655052327
 20
156.9497516262046
 30
0.0
 10
75.23168155179349
 20
155.8758682610035
 30
0.0
 10
75.23076632318188
 20
154.8287785629043
 30
0.0
  0
SPLINE
  5
F1
330
1F
100
AcDbEntity
  8
0
  6
HIDDEN
 62
     7
370
    18
100
AcDbSpline
210
0.0
220
0.0
230
1.0
 70
     8
 71
     3
 72
     8
 73
     4
 74
     0
 42
0.00000001
 43
0.00000001
 40
0.0
 40
0.0
 40
0.0
 40
0.0
 40
1.0
 40
1.0
 40
1.0
 40
1.0
 10
75.2307663231814
 20
154.8287785629039
 30
0.0
 10
75.23058495184597
 20
154.7636837260769
 30
0.0
 10
75.2304942656778
 20
154.6985882909128
 30
0.0
 10
75.2304942656778
 20
154.6334929754148
 30
0.0
  0
SPLINE
  5
F2
330
1F
100
AcDbEntity
  8
0
  6
HIDDEN
 62
     7
370
    18
100
AcDbSpline
210
0.0
220
0.0
230
1.0
 70
     8
 71
     3
 72
     8
 73
     4
 74
     0
 42
0.00000001
 43
0.00000001
 40
0.0
 40
0.0
 40
0.0
 40
0.0
 40
1.0
 40
1.0
 40
1.0
 40
1.0
 10
75.2304942656778
 20
161.3665070245915
 30
0.0
 10
75.2304942656778
 20
161.3014117090935
 30
0.0
 10
75.23058495184597
 20
161.2363162739294
 30
0.0
 10
75.2307663231814
 20
161.1712214371024
 30
0.0
  0
LINE
  5
F3
330
1F
100
AcDbEntity
  8
0
  6
HIDDEN
 62
     7
370
    18
100
AcDbLine
 10
89.7124054951
 20
154.8287785629
 30
0.0
 11
75.2307663232
 21
154.8287785629
 31
0.0
  0
LINE
  5
F4
330
1F
100
AcDbEntity
  8
0
  6
HIDDEN
 62
     7
370
    18
100
AcDbLine
 10
89.7124054951
 20
161.1712214371
 30
0.0
 11
75.2307663232
 21
161.1712214371
 31
0.0
  0
SPLINE
  5
F5
330
1F
100
AcDbEntity
  8
0
  6
HIDDEN
 62
     7
370
    18
100
AcDbSpline
210
0.0
220
0.0
230
1.0
 70
     8
 71
     3
 72
    14
 73
    10
 74
     0
 42
0.00000001
 43
0.00000001
 40
0.0
 40
0.0
 40
0.0
 40
0.0
 40
0.25
 40
0.25
 40
0.5
 40
0.5
 40
0.75
 40
0.75
 40
1.0
 40
1.0
 40
1.0
 40
1.0
 10
71.00219901621213
 20
151.8814002557403
 30
0.0
 10
71.00219901621213
 20
151.4989385321799
 30
0.0
 10
71.16759681304546
 20
151.111850350648
 30
0.0
 10
71.8414147366335
 20
150.3422154683805
 30
0.0
 10
72.34988476926604
 20
149.9597250722435
 30
0.0
 10
73.69757052232005
 20
149.2135347565119
 30
0.0
 10
74.53668643098581
 20
148.8498901009617
 30
0.0
 10
76.5092332567317
 20
148.1542785462379
 30
0.0
 10
77.64243918385708
 20
147.8223522834938
 30
0.0
 10
78.89501681521509
 20
147.511283414998
 30
0.0
  0
SPLINE
  5
F6
330
1F
100
AcDbEntity
  8
0
  6
HIDDEN
 62
     7
370
    18
100
AcDbSpline
210
0.0
220
0.0
230
1.0
 70
     8
 71
     3
 72
    14
 73
    10
 74
     0
 42
0.00000001
 43
0.00000001
 40
0.0
 40
0.0
 40
0.0
 40
0.0
 40
0.25
 40
0.25
 40
0.5
 40
0.5
 40
0.75
 40
0.75
 40
1.0
 40
1.0
 40
1.0
 40
1.0
 10
78.89501681521509
 20
168.4887165850084
 30
0.0
 10
77.64243918385708
 20
168.1776477165126
 30
0.0
 10
76.5092332567317
 20
167.8457214537684
 30
0.0
 10
74.53668643098581
 20
167.1501098990446
 30
0.0
 10
73.69757052232005
 20
166.7864652434944
 30
0.0
 10
72.34988476926604
 20
166.0402749277628
 30
0.0
 10
71.8414147366335
 20
165.6577845316259
 30
0.0
 10
71.16759681304546
 20
164.8881496493583
 30
0.0
 10
71.00219901621212
 20
164.5010614678264
 30
0.0
 10
71.00219901621212
 20
164.118599744266
 30
0.0
  0
SPLINE
  5
F7
330
1F
100
AcDbEntity
  8
0
  6
HIDDEN
 62
     7
370
    18
100
AcDbSpline
210
0.0
220
0.0
230
1.0
 70
     8
 71
     3
 72
     8
 73
     4
 74
     0
 42
0.00000001
 43
0.00000001
 40
0.0
 40
0.0
 40
0.0
 40
0.0
 40
1.0
 40
1.0
 40
1.0
 40
1.0
 10
71.00278810069702
 20
161.3221895701679
 30
0.0
 10
71.00298109926307
 20
161.271866472264
 30
0.0
 10
71.00322152105022
 20
161.2215436765814
 30
0.0
 10
71.00350936484412
 20
161.1712214371024
 30
0.0
  0
SPLINE
  5
F8
330
1F
100
AcDbEntity
  8
0
  6
HIDDEN
 62
     7
370
    18
100
AcDbSpline
210
0.0
220
0.0
230
1.0
 70
     8
 71
     3
 72
    10
 73
     6
 74
     0
 42
0.00000001
 43
0.00000001
 40
0.0
 40
0.0
 40
0.0
 40
0.0
 40
0.5
 40
0.5
 40
1.0
 40
1.0
 40
1.0
 40
1.0
 10
71.00350936484406
 20
161.171221437102
 30
0.0
 10
71.00538826349087
 20
160.1241342356263
 30
0.0
 10
71.00781218286016
 20
159.0703222937659
 30
0.0
 10
71.00783651454962
 20
156.9497519302886
 30
0.0
 10
71.005388266861
 20
155.8758676425184
 30
0.0
 10
71.00350936484406
 20
154.8287785629043
 30
0.0
  0
SPLINE
  5
F9
330
1F
100
AcDbEntity
  8
0
  6
HIDDEN
 62
     7
370
    18
100
AcDbSpline
210
0.0
220
0.0
230
1.0
 70
     8
 71
     3
 72
     8
 73
     4
 74
     0
 42
0.00000001
 43
0.00000001
 40
0.0
 40
0.0
 40
0.0
 40
0.0
 40
1.0
 40
1.0
 40
1.0
 40
1.0
 10
71.00350936484412
 20
154.8287785629039
 30
0.0
 10
71.00322152105022
 20
154.7784563234249
 30
0.0
 10
71.00298109926307
 20
154.7281335277423
 30
0.0
 10
71.00278810069612
 20
154.6778104298385
 30
0.0
  0
SPLINE
  5
FA
330
1F
100
AcDbEntity
  8
0
  6
HIDDEN
 62
     7
370
    18
100
AcDbSpline
210
0.0
220
0.0
230
1.0
 70
     8
 71
     3
 72
     8
 73
     4
 74
     0
 42
0.00000001
 43
0.00000001
 40
0.007105490590972
 40
0.007105490590972
 40
0.007105490590972
 40
0.007105490590972
 40
0.007899866762694
 40
0.007899866762694
 40
0.007899866762694
 40
0.007899866762694
 10
71.00278810069612
 20
154.6778104298385
 30
0.0
 10
71.00243954064894
 20
154.4033647932987
 30
0.0
 10
71.00219901621212
 20
154.1303348581949
 30
0.0
 10
71.00219901621212
 20
153.8587467070254
 30
0.0
  0
SPLINE
  5
FB
330
1F
100
AcDbEntity
  8
0
  6
HIDDEN
 62
     7
370
    18
100
AcDbSpline
210
0.0
220
0.0
230
1.0
 70
     8
 71
     3
 72
     8
 73
     4
 74
     0
 42
0.00000001
 43
0.00000001
 40
0.0000006758994349
 40
0.0000006758994349
 40
0.0000006758994349
 40
0.0000006758994349
 40
0.0007960497539577
 40
0.0007960497539577
 40
0.0007960497539577
 40
0.0007960497539577
 10
71.00219901621212
 20
162.1412532929809
 30
0.0
 10
71.00219901621212
 20
161.8693224500047
 30
0.0
 10
71.00243997669908
 20
161.5962918740086
 30
0.0
 10
71.00278810069702
 20
161.3221895701679
 30
0.0
  0
SPLINE
  5
FC
330
1F
100
AcDbEntity
  8
0
  6
HIDDEN
 62
     7
370
    18
100
AcDbSpline
210
0.0
220
0.0
230
1.0
 70
     8
 71
     3
 72
    10
 73
     6
 74
     0
 42
0.00000001
 43
0.00000001
 40
0.0
 40
0.0
 40
0.0
 40
0.0
 40
0.5
 40
0.5
 40
1.0
 40
1.0
 40
1.0
 40
1.0
 10
83.75356527493973
 20
170.156348842217
 30
0.0
 10
83.17560899859158
 20
169.8607116095791
 30
0.0
 10
82.47519661769834
 20
169.5709216917419
 30
0.0
 10
80.84733312436212
 20
169.012179159004
 30
0.0
 10
79.91996761871226
 20
168.7432559274984
 30
0.0
 10
78.89501681521509
 20
168.4887165850084
 30
0.0
  0
LINE
  5
FD
330
1F
100
AcDbEntity
  8
0
  6
HIDDEN
 62
     7
370
    18
100
AcDbLine
 10
89.7124054951
 20
170.1563488422
 30
0.0
 11
83.7535652749
 21
170.1563488422
 31
0.0
  0
LINE
  5
FE
330
1F
100
AcDbEntity
  8
0
  6
HIDDEN
 62
     7
370
    18
100
AcDbLine
 10
88.0349794646
 20
169.2810077478
 30
0.0
 11
89.7124054951
 21
169.6818484258
 31
0.0
  0
LINE
  5
FF
330
1F
100
AcDbEntity
  8
0
  6
HIDDEN
 62
     7
370
    18
100
AcDbLine
 10
83.5674853141
 20
168.3088077495
 30
0.0
 11
88.0349794646
 21
169.2810077478
 31
0.0
  0
LINE
  5
100
330
1F
100
AcDbEntity
  8
0
  6
HIDDEN
 62
     7
370
    18
100
AcDbLine
 10
75.2304942657
 20
164.1185997443
 30
0.0
 11
75.2304942657
 21
164.1525295565
 31
0.0
  0
LINE
  5
101
330
1F
100
AcDbEntity
  8
0
  6
HIDDEN
 62
     7
370
    18
100
AcDbLine
 10
88.0349794646
 20
146.7189922522
 30
0.0
 11
83.5674853141
 21
147.6911922505
 31
0.0
  0
SPLINE
  5
102
330
1F
100
AcDbEntity
  8
0
  6
HIDDEN
 62
     7
370
    18
100
AcDbSpline
210
0.0
220
0.0
230
1.0
 70
     8
 71
     3
 72
     9
 73
     5
 74
     0
 42
0.00000001
 43
0.00000001
 40
0.0
 40
0.0
 40
0.0
 40
0.0
 40
0.056312411355193
 40
1.0
 40
1.0
 40
1.0
 40
1.0
 10
89.7124054950978
 20
146.3224512093304
 30
0.0
 10
89.6843350777675
 20
146.3303044972054
 30
0.0
 10
89.18585851363618
 20
146.4697637689024
 30
0.0
 10
88.5937473864502
 20
146.5979883276244
 30
0.0
 10
88.0349794646263
 20
146.7189922522497
 30
0.0
  0
LINE
  5
103
330
1F
100
AcDbEntity
  8
0
  6
HIDDEN
 62
     7
370
    18
100
AcDbLine
 10
89.7124054951
 20
145.8436511578
 30
0.0
 11
83.7535652749
 21
145.8436511578
 31
0.0
  0
SPLINE
  5
104
330
1F
100
AcDbEntity
  8
0
  6
HIDDEN
 62
     7
370
    18
100
AcDbSpline
210
0.0
220
0.0
230
1.0
 70
     8
 71
     3
 72
    10
 73
     6
 74
     0
 42
0.00000001
 43
0.00000001
 40
0.0
 40
0.0
 40
0.0
 40
0.0
 40
0.5
 40
0.5
 40
1.0
 40
1.0
 40
1.0
 40
1.0
 10
78.89501681521509
 20
147.511283414998
 30
0.0
 10
79.91996761871226
 20
147.2567440725043
 30
0.0
 10
80.84733312436212
 20
146.9878208409963
 30
0.0
 10
82.47519661769836
 20
146.4290783082578
 30
0.0
 10
83.17560899859158
 20
146.1392883904225
 30
0.0
 10
83.75356527493973
 20
145.8436511577893
 30
0.0
  0
LINE
  5
105
330
1F
100
AcDbEntity
  8
0
  6
HIDDEN
 62
     7
370
    18
100
AcDbLine
 10
75.2304942657
 20
151.8474704435
 30
0.0
 11
75.2304942657
 21
151.8814002557
 31
0.0
  0
LINE
  5
106
330
1F
100
AcDbEntity
  8
0
  6
HIDDEN
 62
     7
370
    18
100
AcDbLine
 10
71.0035093648
 20
161.1712214371
 30
0.0
 11
69.6280030601
 21
161.1712214371
 31
0.0
  0
SPLINE
  5
107
330
1F
100
AcDbEntity
  8
0
  6
HIDDEN
 62
     7
370
    18
100
AcDbSpline
210
0.0
220
0.0
230
1.0
 70
     8
 71
     3
 72
     8
 73
     4
 74
     0
 42
0.00000001
 43
0.00000001
 40
0.01314958099713
 40
0.01314958099713
 40
0.01314958099713
 40
0.01314958099713
 40
0.01446203092149
 40
0.01446203092149
 40
0.01446203092149
 40
0.01446203092149
 10
69.62800306013577
 20
161.1712214371024
 30
0.0
 10
70.08638802775609
 20
161.2208467228716
 30
0.0
 10
70.54465387813227
 20
161.2711458435315
 30
0.0
 10
71.00278810069702
 20
161.3221895701679
 30
0.0
  0
LINE
  5
108
330
1F
100
AcDbEntity
  8
0
  6
HIDDEN
 62
     7
370
    18
100
AcDbLine
 10
71.0035093648
 20
154.8287785629
 30
0.0
 11
69.6280030601
 21
154.8287785966
 31
0.0
  0
SPLINE
  5
109
330
1F
100
AcDbEntity
  8
0
  6
HIDDEN
 62
     7
370
    18
100
AcDbSpline
210
0.0
220
0.0
230
1.0
 70
     8
 71
     3
 72
     8
 73
     4
 74
     0
 42
0.00000001
 43
0.00000001
 40
0.05535636251073
 40
0.05535636251073
 40
0.05535636251073
 40
0.05535636251073
 40
0.05667331825885
 40
0.05667331825885
 40
0.05667331825885
 40
0.05667331825885
 10
71.00278810069612
 20
154.6778104298385
 30
0.0
 10
70.54464522812157
 20
154.728855120229
 30
0.0
 10
70.08637965919023
 20
154.7791541831179
 30
0.0
 10
69.62800306013577
 20
154.8287785966478
 30
0.0
  0
LINE
  5
10A
330
1F
100
AcDbEntity
  8
0
  6
HIDDEN
 62
     7
370
    18
100
AcDbLine
 10
85.8012323893
 20
145.8436511578
 30
0.0
 11
85.8012323893
 21
149.2262873574
 31
0.0
  0
LINE
  5
10B
330
1F
100
AcDbEntity
  8
0
  6
HIDDEN
 62
     7
370
    18
100
AcDbLine
 10
85.8012323893
 20
149.2262873574
 30
0.0
 11
85.8012323893
 21
166.7737126426
 31
0.0
  0
LINE
  5
10C
330
1F
100
AcDbEntity
  8
0
  6
HIDDEN
 62
     7
370
    18
100
AcDbLine
 10
85.8012323893
 20
166.7737126426
 30
0.0
 11
85.8012323893
 21
170.1563488422
 31
0.0
  0
LINE
  5
10D
330
1F
100
AcDbEntity
  8
0
  6
HIDDEN
 62
     7
370
    18
100
AcDbLine
 10
85.8012323893
 20
166.7737126426
 30
0.0
 11
95.8262288108
 21
166.7737126426
 31
0.0
  0
LINE
  5
10E
330
1F
100
AcDbEntity
  8
0
  6
HIDDEN
 62
     7
370
    18
100
AcDbLine
 10
85.8012323893
 20
149.2262873574
 30
0.0
 11
95.8262288108
 21
149.2262873574
 31
0.0
  0
CIRCLE
  5
10F
330
1F
100
AcDbEntity
  8
0
  6
HIDDEN
 62
     7
370
    18
100
AcDbCircle
 10
91.0866014512
 20
158.0
 30
0.0
 40
3.329782508954224
  0
ARC
  5
110
330
1F
100
AcDbEntity
  8
0
  6
HIDDEN
 62
     7
370
    18
100
AcDbCircle
 10
88.6553316827
 20
146.9007249702
 30
0.0
 40
1.05707381236644
100
AcDbArc
 50
0.0
 51
90.0
  0
ARC
  5
111
330
1F
100
AcDbEntity
  8
0
  6
HIDDEN
 62
     7
370
    18
100
AcDbCircle
 10
88.6553316827
 20
169.0992750299
 30
0.0
 40
1.05707381236644
100
AcDbArc
 50
270.0
 51
0.0
  0
LINE
  5
112
330
1F
100
AcDbEntity
  8
0
  6
HIDDEN
 62
     7
370
    18
100
AcDbLine
 10
88.6553316827
 20
168.0422012175
 30
0.0
 11
73.8562983096
 21
168.0422012175
 31
0.0
  0
LINE
  5
113
330
1F
100
AcDbEntity
  8
0
  6
HIDDEN
 62
     7
370
    18
100
AcDbLine
 10
73.8562983096
 20
147.9577987825
 30
0.0
 11
88.6553316827
 21
147.9577987825
 31
0.0
  0
ARC
  5
114
330
1F
100
AcDbEntity
  8
0
  6
HIDDEN
 62
     7
370
    18
100
AcDbCircle
 10
70.6850768725
 20
148.2220672356
 30
0.0
 40
1.057073812366426
100
AcDbArc
 50
90.0
 51
180.0
  0
ARC
  5
115
330
1F
100
AcDbEntity
  8
0
  6
HIDDEN
 62
     7
370
    18
100
AcDbCircle
 10
70.6850768725
 20
167.7779327644
 30
0.0
 40
1.057073812366426
100
AcDbArc
 50
180.0
 51
270.0
  0
LINE
  5
116
330
1F
100
AcDbEntity
  8
0
  6
HIDDEN
 62
     7
370
    18
100
AcDbLine
 10
70.6850768725
 20
149.279141048
 30
0.0
 11
71.2136137787
 21
149.279141048
 31
0.0
  0
LINE
  5
117
330
1F
100
AcDbEntity
  8
0
  6
HIDDEN
 62
     7
370
    18
100
AcDbLine
 10
71.2136137787
 20
166.720858952
 30
0.0
 11
70.6850768725
 21
166.720858952
 31
0.0
  0
INSERT
  5
123
330
1F
100
AcDbEntity
  8
10
100
AcDbBlockReference
  2
SW_CENTERMARKSYMBOL_0
 10
91.0866014512
 20
158.0
 30
0.0
  0
LINE
  5
124
330
1F
100
AcDbEntity
  8
0
  6
Continuous
 62
     7
370
    25
100
AcDbLine
 10
231.7737126426
 20
33.0978569739
 30
0.0
 11
231.7737126426
 21
32.7807348302
 31
0.0
  0
SPLINE
  5
125
330
1F
100
AcDbEntity
  8
0
  6
Continuous
 62
     7
370
    25
100
AcDbSpline
210
0.0
220
0.0
230
1.0
 70
     8
 71
     3
 72
    10
 73
     6
 74
     0
 42
0.00000001
 43
0.00000001
 40
0.0
 40
0.0
 40
0.0
 40
0.0
 40
0.5
 40
0.5
 40
1.0
 40
1.0
 40
1.0
 40
1.0
 10
231.3735993034315
 20
33.09785577598865
 30
0.0
 10
231.3735849240324
 20
33.09762796348525
 30
0.0
 10
231.3714212955288
 20
33.06334113069429
 30
0.0
 10
231.3640076816015
 20
32.94596994266062
 30
0.0
 10
231.358802135785
 20
32.86360405120187
 30
0.0
 10
231.353558821552
 20
32.78073483063891
 30
0.0
  0
LINE
  5
126
330
1F
100
AcDbEntity
  8
0
  6
Continuous
 62
     7
370
    25
100
AcDbLine
 10
231.7737126426
 20
33.0978569739
 30
0.0
 11
231.373599379
 21
33.0978569739
 31
0.0
  0
SPLINE
  5
127
330
1F
100
AcDbEntity
  8
0
  6
Continuous
 62
     7
370
    25
100
AcDbSpline
210
0.0
220
0.0
230
1.0
 70
     8
 71
     3
 72
    10
 73
     6
 74
     0
 42
0.00000001
 43
0.00000001
 40
0.0
 40
0.0
 40
0.0
 40
0.0
 40
0.5
 40
0.5
 40
1.0
 40
1.0
 40
1.0
 40
1.0
 10
214.6264006209591
 20
33.09785697387527
 30
0.0
 10
214.6264006209592
 20
33.09785697387528
 30
0.0
 10
214.6285578295659
 20
33.06367175631118
 30
0.0
 10
214.6359742359093
 20
32.94625608538838
 30
0.0
 10
214.6411888919254
 20
32.86374930841723
 30
0.0
 10
214.6464411705898
 20
32.78073482963998
 30
0.0
  0
ARC
  5
128
330
1F
100
AcDbEntity
  8
0
  6
Continuous
 62
     7
370
    25
100
AcDbCircle
 10
223.0
 20
-32.969256299
 30
0.0
 40
66.59565017908453
100
AcDbArc
 50
82.7766275518
 51
97.2233724482
  0
LINE
  5
129
330
1F
100
AcDbEntity
  8
0
  6
Continuous
 62
     7
370
    25
100
AcDbLine
 10
214.2262873574
 20
33.0978569739
 30
0.0
 11
214.2262873574
 21
34.1735479951
 31
0.0
  0
LINE
  5
12A
330
1F
100
AcDbEntity
  8
0
  6
Continuous
 62
     7
370
    25
100
AcDbLine
 10
214.2262873574
 20
34.1735479951
 30
0.0
 11
210.8436511578
 21
34.1735479951
 31
0.0
  0
LINE
  5
12B
330
1F
100
AcDbEntity
  8
0
  6
Continuous
 62
     7
370
    25
100
AcDbLine
 10
210.8436511578
 20
34.1735479951
 30
0.0
 11
210.8436511578
 21
46.3112796285
 31
0.0
  0
SPLINE
  5
12C
330
1F
100
AcDbEntity
  8
0
  6
Continuous
 62
     7
370
    25
100
AcDbSpline
210
0.0
220
0.0
230
1.0
 70
    24
 71
     3
 72
     8
 73
     4
 74
     0
 42
0.00000001
 43
0.00000001
 40
0.0
 40
0.0
 40
0.0
 40
0.0
 40
1.0
 40
1.0
 40
1.0
 40
1.0
 10
210.8436511577893
 20
46.3112796284566
 30
0.0
 10
211.1507482907386
 20
48.03998199759796
 30
0.0
 10
211.4444407829855
 20
49.69322734792339
 30
0.0
 10
211.7189922522497
 20
51.23872460088918
 30
0.0
  0
SPLINE
  5
12D
330
1F
100
AcDbEntity
  8
0
  6
Continuous
 62
     7
370
    25
100
AcDbSpline
210
0.0
220
0.0
230
1.0
 70
    24
 71
     3
 72
     8
 73
     4
 74
     0
 42
0.00000001
 43
0.00000001
 40
0.0
 40
0.0
 40
0.0
 40
0.0
 40
1.0
 40
1.0
 40
1.0
 40
1.0
 10
234.2810077477545
 20
51.23872460088918
 30
0.0
 10
234.5555592170155
 20
49.69322734792339
 30
0.0
 10
234.8492517092593
 20
48.03998199759796
 30
0.0
 10
235.156348842217
 20
46.3112796284566
 30
0.0
  0
LINE
  5
12E
330
1F
100
AcDbEntity
  8
0
  6
Continuous
 62
     7
370
    25
100
AcDbLine
 10
235.1563488422
 20
46.3112796285
 30
0.0
 11
235.1563488422
 21
34.1735479951
 31
0.0
  0
LINE
  5
12F
330
1F
100
AcDbEntity
  8
0
  6
Continuous
 62
     7
370
    25
100
AcDbLine
 10
235.1563488422
 20
34.1735479951
 30
0.0
 11
231.7737126426
 21
34.1735479951
 31
0.0
  0
LINE
  5
130
330
1F
100
AcDbEntity
  8
0
  6
Continuous
 62
     7
370
    25
100
AcDbLine
 10
231.7737126426
 20
33.0978569739
 30
0.0
 11
231.7737126426
 21
34.1735479951
 31
0.0
  0
LINE
  5
131
330
1F
100
AcDbEntity
  8
0
  6
Continuous
 62
     7
370
    25
100
AcDbLine
 10
214.2262873574
 20
33.0978569739
 30
0.0
 11
214.2262873574
 21
32.7807348302
 31
0.0
  0
LINE
  5
132
330
1F
100
AcDbEntity
  8
0
  6
Continuous
 62
     7
370
    25
100
AcDbLine
 10
214.626400621
 20
33.0978569739
 30
0.0
 11
214.2262873574
 21
33.0978569739
 31
0.0
  0
LINE
  5
133
330
1F
100
AcDbEntity
  8
0
  6
Continuous
 62
     7
370
    25
100
AcDbLine
 10
231.7737126426
 20
32.7807348302
 30
0.0
 11
231.7737126426
 21
7.0
 31
0.0
  0
LINE
  5
134
330
1F
100
AcDbEntity
  8
0
  6
Continuous
 62
     7
370
    25
100
AcDbLine
 10
214.2262873574
 20
7.0
 30
0.0
 11
214.2262873574
 21
32.7807348302
 31
0.0
  0
LINE
  5
135
330
1F
100
AcDbEntity
  8
0
  6
Continuous
 62
     7
370
    25
100
AcDbLine
 10
231.7737126426
 20
7.0
 30
0.0
 11
214.2262873574
 21
7.0
 31
0.0
  0
LINE
  5
136
330
1F
100
AcDbEntity
  8
0
  6
Continuous
 62
     7
370
    25
100
AcDbLine
 10
208.7873449478
 20
92.5960491685
 30
0.0
 11
212.2561734734
 21
103.272005615
 31
0.0
  0
ARC
  5
137
330
1F
100
AcDbEntity
  8
0
  6
Continuous
 62
     7
370
    25
100
AcDbCircle
 10
223.0
 20
93.8796011849
 30
0.0
 40
14.27049646694642
100
AcDbArc
 50
113.1604115931
 51
138.8395884069
  0
LINE
  5
138
330
1F
100
AcDbEntity
  8
0
  6
Continuous
 62
     7
370
    25
100
AcDbLine
 10
217.3873175444
 20
107.0
 30
0.0
 11
228.6126824556
 21
107.0
 31
0.0
  0
ARC
  5
139
330
1F
100
AcDbEntity
  8
0
  6
Continuous
 62
     7
370
    25
100
AcDbCircle
 10
223.0
 20
93.8796011849
 30
0.0
 40
14.27049646694644
100
AcDbArc
 50
41.1604115931
 51
66.8395884069
  0
LINE
  5
13A
330
1F
100
AcDbEntity
  8
0
  6
Continuous
 62
     7
370
    25
100
AcDbLine
 10
233.7438265266
 20
103.272005615
 30
0.0
 11
237.2126550522
 21
92.5960491685
 31
0.0
  0
ARC
  5
13B
330
1F
100
AcDbEntity
  8
0
  6
Continuous
 62
     7
370
    25
100
AcDbCircle
 10
223.0
 20
93.8796011849
 30
0.0
 40
14.2704964669445
100
AcDbArc
 50
329.1604115931
 51
354.8395884069
  0
LINE
  5
13C
330
1F
100
AcDbEntity
  8
0
  6
Continuous
 62
     7
370
    25
100
AcDbLine
 10
235.2527324183
 20
86.5640275438
 30
0.0
 11
226.1712214371
 21
79.9659235974
 31
0.0
  0
ARC
  5
13D
330
1F
100
AcDbEntity
  8
0
  6
Continuous
 62
     7
370
    25
100
AcDbCircle
 10
223.0
 20
93.8796011849
 30
0.0
 40
14.27049646694859
100
AcDbArc
 50
257.1604115931
 51
282.8395884069
  0
LINE
  5
13E
330
1F
100
AcDbEntity
  8
0
  6
Continuous
 62
     7
370
    25
100
AcDbLine
 10
219.8287785629
 20
79.9659235974
 30
0.0
 11
210.7472675817
 21
86.5640275438
 31
0.0
  0
ARC
  5
13F
330
1F
100
AcDbEntity
  8
0
  6
Continuous
 62
     7
370
    25
100
AcDbCircle
 10
223.0
 20
93.8796011849
 30
0.0
 40
14.27049646694992
100
AcDbArc
 50
185.1604115931
 51
210.8395884069
  0
CIRCLE
  5
140
330
1F
100
AcDbEntity
  8
0
  6
Continuous
 62
     7
370
    25
100
AcDbCircle
 10
223.0
 20
93.8796011849
 30
0.0
 40
10.04220121748099
  0
LINE
  5
141
330
1F
100
AcDbEntity
  8
0
  6
Continuous
 62
     7
370
    25
100
AcDbLine
 10
211.7189922522
 20
51.2387246009
 30
0.0
 11
212.6911922505
 21
56.7114049353
 31
0.0
  0
LINE
  5
142
330
1F
100
AcDbEntity
  8
0
  6
Continuous
 62
     7
370
    25
100
AcDbLine
 10
233.3088077495
 20
56.7114049353
 30
0.0
 11
234.2810077478
 21
51.2387246009
 31
0.0
  0
ARC
  5
143
330
1F
100
AcDbEntity
  8
0
  6
Continuous
 62
     7
370
    25
100
AcDbCircle
 10
223.0
 20
93.8796011849
 30
0.0
 40
13.9756285087603
100
AcDbArc
 50
244.8159466845
 51
254.1480636415
  0
LINE
  5
144
330
1F
100
AcDbEntity
  8
0
  6
Continuous
 62
     7
370
    25
100
AcDbLine
 10
217.052986555
 20
81.2324187596
 30
0.0
 11
217.1746275137
 21
81.8942772104
 31
0.0
  0
ARC
  5
145
330
1F
100
AcDbEntity
  8
0
  6
Continuous
 62
     7
370
    25
100
AcDbCircle
 10
223.0
 20
93.8796011849
 30
0.0
 40
13.97562850876033
100
AcDbArc
 50
285.8519363584
 51
295.1840533155
  0
LINE
  5
146
330
1F
100
AcDbEntity
  8
0
  6
Continuous
 62
     7
370
    25
100
AcDbLine
 10
228.8253724863
 20
81.8942772104
 30
0.0
 11
228.947013445
 21
81.2324187596
 31
0.0
  0
SPLINE
  5
147
330
1F
100
AcDbEntity
  8
0
  6
Continuous
 62
     7
370
    25
100
AcDbSpline
210
0.0
220
0.0
230
1.0
 70
    24
 71
     3
 72
    14
 73
    10
 74
     0
 42
0.00000001
 43
0.00000001
 40
0.0
 40
0.0
 40
0.0
 40
0.0
 40
0.25
 40
0.25
 40
0.5
 40
0.5
 40
0.75
 40
0.75
 40
1.0
 40
1.0
 40
1.0
 40
1.0
 10
212.6911922505008
 20
56.71140493533717
 30
0.0
 10
212.9760266497329
 20
58.31478656263082
 30
0.0
 10
213.2847030924918
 20
60.05237913723649
 30
0.0
 10
213.9390326093572
 20
63.73571207864489
 30
0.0
 10
214.2846323683308
 20
65.68115232543167
 30
0.0
 10
214.9980405618964
 20
69.69704925855369
 30
0.0
 10
215.3657705784913
 20
71.76706451655023
 30
0.0
 10
216.106681135701
 20
75.93777696596277
 30
0.0
 10
216.4797814471247
 20
78.03802253351797
 30
0.0
 10
216.8474704435267
 20
80.10780688182275
 30
0.0
  0
SPLINE
  5
148
330
1F
100
AcDbEntity
  8
0
  6
Continuous
 62
     7
370
    25
100
AcDbSpline
210
0.0
220
0.0
230
1.0
 70
    24
 71
     3
 72
    14
 73
    10
 74
     0
 42
0.00000001
 43
0.00000001
 40
0.0
 40
0.0
 40
0.0
 40
0.0
 40
0.2499999999999998
 40
0.2499999999999998
 40
0.4999999999999999
 40
0.4999999999999999
 40
0.7499999999999999
 40
0.7499999999999999
 40
1.0
 40
1.0
 40
1.0
 40
1.0
 10
229.1525295564796
 20
80.10780688182275
 30
0.0
 10
229.5202185528817
 20
78.03802253351797
 30
0.0
 10
229.8933188643053
 20
75.93777696596275
 30
0.0
 10
230.6342294215151
 20
71.76706451655022
 30
0.0
 10
231.00195943811
 20
69.6970492585537
 30
0.0
 10
231.7153676316755
 20
65.68115232543168
 30
0.0
 10
232.0609673906492
 20
63.73571207864489
 30
0.0
 10
232.7152969075146
 20
60.05237913723649
 30
0.0
 10
233.0239733502735
 20
58.31478656263082
 30
0.0
 10
233.3088077495055
 20
56.71140493533717
 30
0.0
  0
LINE
  5
149
330
1F
100
AcDbEntity
  8
0
  6
Continuous
 62
     7
370
    25
100
AcDbLine
 10
229.1185997443
 20
80.2988036072
 30
0.0
 11
228.947013445
 21
81.2324187596
 31
0.0
  0
LINE
  5
14A
330
1F
100
AcDbEntity
  8
0
  6
Continuous
 62
     7
370
    25
100
AcDbLine
 10
229.1185997443
 20
80.2988036072
 30
0.0
 11
229.1525295565
 21
80.1078068818
 31
0.0
  0
LINE
  5
14B
330
1F
100
AcDbEntity
  8
0
  6
Continuous
 62
     7
370
    25
100
AcDbLine
 10
217.052986555
 20
81.2324187596
 30
0.0
 11
216.8814002557
 21
80.2988036072
 31
0.0
  0
LINE
  5
14C
330
1F
100
AcDbEntity
  8
0
  6
Continuous
 62
     7
370
    25
100
AcDbLine
 10
216.8474704435
 20
80.1078068818
 30
0.0
 11
216.8814002557
 21
80.2988036072
 31
0.0
  0
LINE
  5
14D
330
1F
100
AcDbEntity
  8
0
  6
HIDDEN
 62
     7
370
    18
100
AcDbLine
 10
223.0
 20
10.4354898902
 30
0.0
 11
219.670217491
 21
10.4354898902
 31
0.0
  0
LINE
  5
14E
330
1F
100
AcDbEntity
  8
0
  6
HIDDEN
 62
     7
370
    18
100
AcDbLine
 10
226.329782509
 20
10.4354898902
 30
0.0
 11
223.0
 21
10.4354898902
 31
0.0
  0
CIRCLE
  5
14F
330
1F
100
AcDbEntity
  8
0
  6
HIDDEN
 62
     7
370
    18
100
AcDbCircle
 10
223.0
 20
93.8796011849
 30
0.0
 40
8.72085895202298
  0
ARC
  5
150
330
1F
100
AcDbEntity
  8
0
  6
HIDDEN
 62
     7
370
    18
100
AcDbCircle
 10
223.0
 20
93.8796011849
 30
0.0
 40
14.27049923286584
100
AcDbArc
 50
282.8395884069
 51
294.8721376129
  0
ARC
  5
151
330
1F
100
AcDbEntity
  8
0
  6
HIDDEN
 62
     7
370
    18
100
AcDbCircle
 10
223.0
 20
93.8796011849
 30
0.0
 40
14.19817036400067
100
AcDbArc
 50
286.9582707048
 51
294.947407775
  0
SPLINE
  5
152
330
1F
100
AcDbEntity
  8
0
  6
HIDDEN
 62
     7
370
    18
100
AcDbSpline
210
0.0
220
0.0
230
1.0
 70
     8
 71
     3
 72
     8
 73
     4
 74
     0
 42
0.00000001
 43
0.00000001
 40
0.0000006758994349
 40
0.0000006758994349
 40
0.0000006758994349
 40
0.0000006758994349
 40
0.0007960497539577
 40
0.0007960497539577
 40
0.0007960497539577
 40
0.0007960497539577
 10
227.1412532929809
 20
80.29880360716734
 30
0.0
 10
226.8693224500047
 20
80.21588252005536
 30
0.0
 10
226.5962918740086
 20
80.1415573772927
 30
0.0
 10
226.3221895701679
 20
80.07560836644772
 30
0.0
  0
ARC
  5
153
330
1F
100
AcDbEntity
  8
0
  6
HIDDEN
 62
     7
370
    18
100
AcDbCircle
 10
223.0
 20
93.8796011849
 30
0.0
 40
14.19817036400067
100
AcDbArc
 50
245.052592225
 51
253.0417292952
  0
ARC
  5
154
330
1F
100
AcDbEntity
  8
0
  6
HIDDEN
 62
     7
370
    18
100
AcDbCircle
 10
223.0
 20
93.8796011849
 30
0.0
 40
14.27049631514963
100
AcDbArc
 50
245.1278570259
 51
257.1604115931
  0
SPLINE
  5
155
330
1F
100
AcDbEntity
  8
0
  6
HIDDEN
 62
     7
370
    18
100
AcDbSpline
210
0.0
220
0.0
230
1.0
 70
     8
 71
     3
 72
     8
 73
     4
 74
     0
 42
0.00000001
 43
0.00000001
 40
0.007105490590972
 40
0.007105490590972
 40
0.007105490590972
 40
0.007105490590972
 40
0.007899866762694
 40
0.007899866762694
 40
0.007899866762694
 40
0.007899866762694
 10
219.6778104298385
 20
80.07560836644772
 30
0.0
 10
219.4033647932987
 20
80.14163998313973
 30
0.0
 10
219.1303348581949
 20
80.21598701860927
 30
0.0
 10
218.8587467070254
 20
80.29880360716734
 30
0.0
  0
LINE
  5
156
330
1F
100
AcDbEntity
  8
0
  6
HIDDEN
 62
     7
370
    18
100
AcDbLine
 10
226.329782509
 20
7.0
 30
0.0
 11
226.329782509
 21
10.4354898902
 31
0.0
  0
LINE
  5
157
330
1F
100
AcDbEntity
  8
0
  6
HIDDEN
 62
     7
370
    18
100
AcDbLine
 10
219.670217491
 20
10.4354898902
 30
0.0
 11
219.670217491
 21
7.0
 31
0.0
  0
INSERT
  5
163
330
1F
100
AcDbEntity
  8
10
100
AcDbBlockReference
  2
SW_CENTERMARKSYMBOL_1
 10
223.0
 20
93.8796011849
 30
0.0
  0
ENDSEC
  0
SECTION
  2
OBJECTS
  0
DICTIONARY
  5
C
330
0
100
AcDbDictionary
281
     1
  3
ACAD_GROUP
350
D
  3
ACAD_LAYOUT
350
1A
  3
ACAD_MLINESTYLE
350
17
  3
ACAD_PLOTSETTINGS
350
19
  3
ACAD_PLOTSTYLENAME
350
E
  3
ACAD_SCALELIST
350
47
  3
DWGPROPS
350
164
  0
DICTIONARY
  5
D
102
{ACAD_REACTORS
330
C
102
}
330
C
100
AcDbDictionary
281
     1
  0
DICTIONARY
  5
1A
102
{ACAD_REACTORS
330
C
102
}
330
C
100
AcDbDictionary
281
     1
  3
Layout1
350
1E
  3
Layout2
350
26
  3
Model
350
22
  0
DICTIONARY
  5
17
102
{ACAD_REACTORS
330
C
102
}
330
C
100
AcDbDictionary
281
     1
  3
Standard
350
18
  0
DICTIONARY
  5
19
102
{ACAD_REACTORS
330
C
102
}
330
C
100
AcDbDictionary
281
     1
  0
ACDBDICTIONARYWDFLT
  5
E
102
{ACAD_REACTORS
330
C
102
}
330
C
100
AcDbDictionary
281
     1
  3
Normal
350
F
100
AcDbDictionaryWithDefault
340
F
  0
DICTIONARY
  5
47
102
{ACAD_REACTORS
330
C
102
}
330
C
100
AcDbDictionary
281
     1
  3
A0
350
48
  3
A1
350
49
  3
A2
350
4A
  3
A3
350
4B
  3
A4
350
4C
  3
A5
350
4D
  3
A6
350
4E
  3
A7
350
4F
  3
A8
350
50
  3
A9
350
51
  3
B0
350
52
  3
B1
350
53
  3
B2
350
54
  3
B3
350
55
  3
B4
350
56
  3
B5
350
57
  3
B6
350
58
  0
XRECORD
  5
164
102
{ACAD_REACTORS
330
C
102
}
330
C
100
AcDbXrecord
280
     1
  1
DWGPROPS COOKIE
  2

  3

  4

  6

  7

  8

  9

300
=
301
=
302
=
303
=
304
=
305
=
306
=
307
=
308
=
309
=
 40
0.0
 41
2461214.486656829
 42
2461214.486657072
  1

 90
        0
  0
LAYOUT
  5
1E
102
{ACAD_REACTORS
330
1A
102
}
330
1A
100
AcDbPlotSettings
  1

  2
none_device
  4

  6

 40
0.0
 41
0.0
 42
0.0
 43
0.0
 44
0.0
 45
0.0
 46
0.0
 47
0.0
 48
0.0
 49
0.0
140
0.0
141
0.0
142
1.0
143
1.0
 70
   688
 72
     1
 73
     0
 74
     5
  7

 75
    16
147
1.0
148
0.0
149
0.0
100
AcDbLayout
  1
Layout1
 70
     1
 71
     1
 10
0.0
 20
0.0
 11
420.0
 21
297.0
 12
0.0
 22
0.0
 32
0.0
 14
1.0000000000E+20
 24
1.0000000000E+20
 34
1.0000000000E+20
 15
-1.0000000000E+20
 25
-1.0000000000E+20
 35
-1.0000000000E+20
146
0.0
 13
0.0
 23
0.0
 33
0.0
 16
1.0
 26
0.0
 36
0.0
 17
0.0
 27
1.0
 37
0.0
 76
     0
330
1B
  0
LAYOUT
  5
26
102
{ACAD_REACTORS
330
1A
102
}
330
1A
100
AcDbPlotSettings
  1

  2
none_device
  4

  6

 40
0.0
 41
0.0
 42
0.0
 43
0.0
 44
0.0
 45
0.0
 46
0.0
 47
0.0
 48
0.0
 49
0.0
140
0.0
141
0.0
142
1.0
143
1.0
 70
   688
 72
     1
 73
     0
 74
     5
  7

 75
    16
147
1.0
148
0.0
149
0.0
100
AcDbLayout
  1
Layout2
 70
     1
 71
     2
 10
0.0
 20
0.0
 11
0.0
 21
0.0
 12
0.0
 22
0.0
 32
0.0
 14
0.0
 24
0.0
 34
0.0
 15
0.0
 25
0.0
 35
0.0
146
0.0
 13
0.0
 23
0.0
 33
0.0
 16
1.0
 26
0.0
 36
0.0
 17
0.0
 27
1.0
 37
0.0
 76
     0
330
23
  0
LAYOUT
  5
22
102
{ACAD_REACTORS
330
1A
102
}
330
1A
100
AcDbPlotSettings
  1

  2
none_device
  4
Letter_(8.50_x_11.00_Inches)
  6

 40
6.35
 41
6.35
 42
6.35000508
 43
6.35000508
 44
215.9
 45
279.4
 46
0.0
 47
0.0
 48
0.0
 49
0.0
140
0.0
141
0.0
142
1.0
143
1.0
 70
  1712
 72
     1
 73
     0
 74
     0
  7

 75
     0
147
1.0
148
0.0
149
0.0
100
AcDbLayout
  1
Model
 70
     1
 71
     0
 10
0.0
 20
0.0
 11
297.0
 21
210.0
 12
0.0
 22
0.0
 32
0.0
 14
0.0
 24
0.0
 34
0.0
 15
297.0
 25
210.0
 35
0.0
146
0.0
 13
0.0
 23
0.0
 33
0.0
 16
1.0
 26
0.0
 36
0.0
 17
0.0
 27
1.0
 37
0.0
 76
     0
330
1F
331
29
  0
MLINESTYLE
  5
18
102
{ACAD_REACTORS
330
17
102
}
330
17
100
AcDbMlineStyle
  2
Standard
 70
     0
  3

 62
   256
 51
90.0
 52
90.0
 71
     2
 49
0.5
 62
   256
  6
BYLAYER
 49
-0.5
 62
   256
  6
BYLAYER
  0
ACDBPLACEHOLDER
  5
F
102
{ACAD_REACTORS
330
E
102
}
330
E
  0
SCALE
  5
48
102
{ACAD_REACTORS
330
47
102
}
330
47
100
AcDbScale
 70
     0
300
1:1
140
1.0
141
1.0
290
     1
  0
SCALE
  5
49
102
{ACAD_REACTORS
330
47
102
}
330
47
100
AcDbScale
 70
     0
300
1:2
140
1.0
141
2.0
290
     0
  0
SCALE
  5
4A
102
{ACAD_REACTORS
330
47
102
}
330
47
100
AcDbScale
 70
     0
300
1:4
140
1.0
141
4.0
290
     0
  0
SCALE
  5
4B
102
{ACAD_REACTORS
330
47
102
}
330
47
100
AcDbScale
 70
     0
300
1:5
140
1.0
141
5.0
290
     0
  0
SCALE
  5
4C
102
{ACAD_REACTORS
330
47
102
}
330
47
100
AcDbScale
 70
     0
300
1:8
140
1.0
141
8.0
290
     0
  0
SCALE
  5
4D
102
{ACAD_REACTORS
330
47
102
}
330
47
100
AcDbScale
 70
     0
300
1:10
140
1.0
141
10.0
290
     0
  0
SCALE
  5
4E
102
{ACAD_REACTORS
330
47
102
}
330
47
100
AcDbScale
 70
     0
300
1:16
140
1.0
141
16.0
290
     0
  0
SCALE
  5
4F
102
{ACAD_REACTORS
330
47
102
}
330
47
100
AcDbScale
 70
     0
300
1:20
140
1.0
141
20.0
290
     0
  0
SCALE
  5
50
102
{ACAD_REACTORS
330
47
102
}
330
47
100
AcDbScale
 70
     0
300
1:30
140
1.0
141
30.0
290
     0
  0
SCALE
  5
51
102
{ACAD_REACTORS
330
47
102
}
330
47
100
AcDbScale
 70
     0
300
1:40
140
1.0
141
40.0
290
     0
  0
SCALE
  5
52
102
{ACAD_REACTORS
330
47
102
}
330
47
100
AcDbScale
 70
     0
300
1:50
140
1.0
141
50.0
290
     0
  0
SCALE
  5
53
102
{ACAD_REACTORS
330
47
102
}
330
47
100
AcDbScale
 70
     0
300
1:100
140
1.0
141
100.0
290
     0
  0
SCALE
  5
54
102
{ACAD_REACTORS
330
47
102
}
330
47
100
AcDbScale
 70
     0
300
2:1
140
2.0
141
1.0
290
     0
  0
SCALE
  5
55
102
{ACAD_REACTORS
330
47
102
}
330
47
100
AcDbScale
 70
     0
300
4:1
140
4.0
141
1.0
290
     0
  0
SCALE
  5
56
102
{ACAD_REACTORS
330
47
102
}
330
47
100
AcDbScale
 70
     0
300
8:1
140
8.0
141
1.0
290
     0
  0
SCALE
  5
57
102
{ACAD_REACTORS
330
47
102
}
330
47
100
AcDbScale
 70
     0
300
10:1
140
10.0
141
1.0
290
     0
  0
SCALE
  5
58
102
{ACAD_REACTORS
330
47
102
}
330
47
100
AcDbScale
 70
     0
300
100:1
140
100.0
141
1.0
290
     0
  0
ENDSEC
  0
EOF
