  0
SECTION
  2
HEADER
  9
$ACADVER
  1
AC1015
  9
$ACADMAINTVER
 70
     6
  9
$DWGCODEPAGE
  3
ANSI_936
  9
$INSBASE
 10
0.0
 20
0.0
 30
0.0
  9
$EXTMIN
 10
0.0
 20
0.0
 30
0.0
  9
$EXTMAX
 10
297.0
 20
210.0
 30
0.0
  9
$LIMMIN
 10
0.0
 20
0.0
  9
$LIMMAX
 10
297.0
 20
210.0
  9
$ORTHOMODE
 70
     0
  9
$REGENMODE
 70
     1
  9
$FILLMODE
 70
     1
  9
$QTEXTMODE
 70
     0
  9
$MIRRTEXT
 70
     1
  9
$LTSCALE
 40
1.0
  9
$ATTMODE
 70
     1
  9
$TEXTSIZE
 40
3.5
  9
$TRACEWID
 40
1.0
  9
$TEXTSTYLE
  7
Standard
  9
$CLAYER
  8
0
  9
$CELTYPE
  6
ByLayer
  9
$CECOLOR
 62
   256
  9
$CELTSCALE
 40
1.0
  9
$DISPSILH
 70
     0
  9
$DIMSCALE
 40
1.0
  9
$DIMASZ
 40
4.08
  9
$DIMEXO
 40
0.0
  9
$DIMDLI
 40
3.75
  9
$DIMRND
 40
0.0
  9
$DIMDLE
 40
0.0
  9
$DIMEXE
 40
2.0
  9
$DIMTP
 40
0.0
  9
$DIMTM
 40
0.0
  9
$DIMTXT
 40
3.5
  9
$DIMCEN
 40
2.5
  9
$DIMTSZ
 40
0.0
  9
$DIMTOL
 70
     0
  9
$DIMLIM
 70
     0
  9
$DIMTIH
 70
     1
  9
$DIMTOH
 70
     1
  9
$DIMSE1
 70
     0
  9
$DIMSE2
 70
     0
  9
$DIMTAD
 70
     1
  9
$DIMZIN
 70
     0
  9
$DIMBLK
  1

  9
$DIMASO
 70
     1
  9
$DIMSHO
 70
     1
  9
$DIMPOST
  1

  9
$DIMAPOST
  1

  9
$DIMALT
 70
     0
  9
$DIMALTD
 70
     3
  9
$DIMALTF
 40
0.0393700787
  9
$DIMLFAC
 40
2.0
  9
$DIMTOFL
 70
     1
  9
$DIMTVP
 40
0.0
  9
$DIMTIX
 70
     0
  9
$DIMSOXD
 70
     0
  9
$DIMSAH
 70
     0
  9
$DIMBLK1
  1

  9
$DIMBLK2
  1

  9
$DIMSTYLE
  2
ISO-25
  9
$DIMCLRD
 70
     0
  9
$DIMCLRE
 70
     0
  9
$DIMCLRT
 70
     0
  9
$DIMTFAC
 40
1.0
  9
$DIMGAP
 40
1.524
  9
$DIMJUST
 70
     0
  9
$DIMSD1
 70
     0
  9
$DIMSD2
 70
     0
  9
$DIMTOLJ
 70
     0
  9
$DIMTZIN
 70
     0
  9
$DIMALTZ
 70
     0
  9
$DIMALTTZ
 70
     0
  9
$DIMUPT
 70
     0
  9
$DIMDEC
 70
     2
  9
$DIMTDEC
 70
     2
  9
$DIMALTU
 70
     2
  9
$DIMALTTD
 70
     3
  9
$DIMTXSTY
  7
Standard
  9
$DIMAUNIT
 70
     0
  9
$DIMADEC
 70
     2
  9
$DIMALTRND
 40
0.0
  9
$DIMAZIN
 70
     0
  9
$DIMDSEP
 70
    44
  9
$DIMATFIT
 70
     3
  9
$DIMFRAC
 70
     0
  9
$DIMLDRBLK
  1

  9
$DIMLUNIT
 70
     2
  9
$DIMLWD
 70
    -2
  9
$DIMLWE
 70
    -2
  9
$DIMTMOVE
 70
     0
  9
$LUNITS
 70
     2
  9
$LUPREC
 70
     2
  9
$SKETCHINC
 40
1.0
  9
$FILLETRAD
 40
0.0
  9
$AUNITS
 70
     0
  9
$AUPREC
 70
     2
  9
$MENU
  1
.
  9
$ELEVATION
 40
0.0
  9
$PELEVATION
 40
0.0
  9
$THICKNESS
 40
0.0
  9
$LIMCHECK
 70
     0
  9
$CHAMFERA
 40
0.0
  9
$CHAMFERB
 40
0.0
  9
$CHAMFERC
 40
0.0
  9
$CHAMFERD
 40
0.0
  9
$SKPOLY
 70
     0
  9
$TDCREATE
 40
2461214.991213669
  9
$TDUCREATE
 40
2461214.657880336
  9
$TDUPDATE
 40
2461214.991213901
  9
$TDUUPDATE
 40
2461214.657880567
  9
$TDINDWG
 40
0.0000000116
  9
$TDUSRTIMER
 40
0.0000000116
  9
$USRTIMER
 70
     1
  9
$ANGBASE
 50
0.0
  9
$ANGDIR
 70
     0
  9
$PDMODE
 70
     0
  9
$PDSIZE
 40
-1.0
  9
$PLINEWID
 40
0.0
  9
$SPLFRAME
 70
     0
  9
$SPLINETYPE
 70
     6
  9
$SPLINESEGS
 70
     8
  9
$HANDSEED
  5
10E
  9
$SURFTAB1
 70
     6
  9
$SURFTAB2
 70
     6
  9
$SURFTYPE
 70
     6
  9
$SURFU
 70
     6
  9
$SURFV
 70
     6
  9
$UCSBASE
  2

  9
$UCSNAME
  2

  9
$UCSORG
 10
0.0
 20
0.0
 30
0.0
  9
$UCSXDIR
 10
1.0
 20
0.0
 30
0.0
  9
$UCSYDIR
 10
0.0
 20
1.0
 30
0.0
  9
$UCSORTHOREF
  2

  9
$UCSORTHOVIEW
 70
     0
  9
$UCSORGTOP
 10
0.0
 20
0.0
 30
0.0
  9
$UCSORGBOTTOM
 10
0.0
 20
0.0
 30
0.0
  9
$UCSORGLEFT
 10
0.0
 20
0.0
 30
0.0
  9
$UCSORGRIGHT
 10
0.0
 20
0.0
 30
0.0
  9
$UCSORGFRONT
 10
0.0
 20
0.0
 30
0.0
  9
$UCSORGBACK
 10
0.0
 20
0.0
 30
0.0
  9
$PUCSBASE
  2

  9
$PUCSNAME
  2

  9
$PUCSORG
 10
0.0
 20
0.0
 30
0.0
  9
$PUCSXDIR
 10
1.0
 20
0.0
 30
0.0
  9
$PUCSYDIR
 10
0.0
 20
1.0
 30
0.0
  9
$PUCSORTHOREF
  2

  9
$PUCSORTHOVIEW
 70
     0
  9
$PUCSORGTOP
 10
0.0
 20
0.0
 30
0.0
  9
$PUCSORGBOTTOM
 10
0.0
 20
0.0
 30
0.0
  9
$PUCSORGLEFT
 10
0.0
 20
0.0
 30
0.0
  9
$PUCSORGRIGHT
 10
0.0
 20
0.0
 30
0.0
  9
$PUCSORGFRONT
 10
0.0
 20
0.0
 30
0.0
  9
$PUCSORGBACK
 10
0.0
 20
0.0
 30
0.0
  9
$USERI1
 70
     0
  9
$USERI2
 70
     0
  9
$USERI3
 70
     0
  9
$USERI4
 70
     0
  9
$USERI5
 70
     0
  9
$USERR1
 40
0.0
  9
$USERR2
 40
0.0
  9
$USERR3
 40
0.0
  9
$USERR4
 40
0.0
  9
$USERR5
 40
0.0
  9
$WORLDVIEW
 70
     1
  9
$SHADEDGE
 70
     3
  9
$SHADEDIF
 70
    70
  9
$TILEMODE
 70
     1
  9
$MAXACTVP
 70
    64
  9
$PINSBASE
 10
0.0
 20
0.0
 30
0.0
  9
$PLIMCHECK
 70
     0
  9
$PEXTMIN
 10
1.0000000000E+20
 20
1.0000000000E+20
 30
1.0000000000E+20
  9
$PEXTMAX
 10
-1.0000000000E+20
 20
-1.0000000000E+20
 30
-1.0000000000E+20
  9
$PLIMMIN
 10
0.0
 20
0.0
  9
$PLIMMAX
 10
420.0
 20
297.0
  9
$UNITMODE
 70
     0
  9
$VISRETAIN
 70
     1
  9
$PLINEGEN
 70
     0
  9
$PSLTSCALE
 70
     1
  9
$TREEDEPTH
 70
  3020
  9
$CMLSTYLE
  2
Standard
  9
$CMLJUST
 70
     0
  9
$CMLSCALE
 40
20.0
  9
$PROXYGRAPHICS
 70
     1
  9
$MEASUREMENT
 70
     1
  9
$CELWEIGHT
370
    -1
  9
$ENDCAPS
280
     0
  9
$JOINSTYLE
280
     0
  9
$LWDISPLAY
290
     1
  9
$INSUNITS
 70
     4
  9
$HYPERLINKBASE
  1

  9
$STYLESHEET
  1

  9
$XEDIT
290
     1
  9
$CEPSNTYPE
380
     0
  9
$PSTYLEMODE
290
     1
  9
$FINGERPRINTGUID
  2
{5c1c603b-ef45-4850-b5d9-6df036a7c10b}
  9
$VERSIONGUID
  2
{FAEB1C32-E019-11D5-929B-00C0DF256EC4}
  9
$EXTNAMES
290
     1
  9
$PSVPSCALE
 40
0.0
  9
$OLESTARTUP
290
     0
  0
ENDSEC
  0
SECTION
  2
CLASSES
  0
CLASS
  1
ACDBDICTIONARYWDFLT
  2
AcDbDictionaryWithDefault
  3
ObjectDBX Classes
 90
        0
280
     0
281
     0
  0
CLASS
  1
VISUALSTYLE
  2
AcDbVisualStyle
  3
ObjectDBX Classes
 90
     4095
280
     0
281
     0
  0
CLASS
  1
MATERIAL
  2
AcDbMaterial
  3
ObjectDBX Classes
 90
     1153
280
     0
281
     0
  0
CLASS
  1
SCALE
  2
AcDbScale
  3
ObjectDBX Classes
 90
     1153
280
     0
281
     0
  0
CLASS
  1
TABLESTYLE
  2
AcDbTableStyle
  3
ObjectDBX Classes
 90
     4095
280
     0
281
     0
  0
CLASS
  1
MLEADERSTYLE
  2
AcDbMLeaderStyle
  3
ACDB_MLEADERSTYLE_CLASS
 90
     4095
280
     0
281
     0
  0
CLASS
  1
SUN
  2
AcDbSun
  3
SCENEOE
 90
     1153
280
     0
281
     0
  0
CLASS
  1
ACDBPLACEHOLDER
  2
AcDbPlaceHolder
  3
ObjectDBX Classes
 90
        0
280
     0
281
     0
  0
CLASS
  1
LAYOUT
  2
AcDbLayout
  3
ObjectDBX Classes
 90
        0
280
     0
281
     0
  0
ENDSEC
  0
SECTION
  2
TABLES
  0
TABLE
  2
VPORT
  5
8
330
0
100
AcDbSymbolTable
 70
     1
  0
VPORT
  5
29
330
8
100
AcDbSymbolTableRecord
100
AcDbViewportTableRecord
  2
*Active
 70
     0
 10
0.0
 20
0.0
 11
1.0
 21
1.0
 12
148.5
 22
105.0
 13
0.0
 23
0.0
 14
10.0
 24
10.0
 15
10.0
 25
10.0
 16
0.0
 26
0.0
 36
1.0
 17
0.0
 27
0.0
 37
0.0
 40
210.0
 41
1.4142857143
 42
50.0
 43
0.0
 44
0.0
 50
0.0
 51
0.0
 71
     0
 72
  2000
 73
     1
 74
     3
 75
     0
 76
     0
 77
     0
 78
     0
281
     0
 65
     1
110
0.0
120
0.0
130
0.0
111
1.0
121
0.0
131
0.0
112
0.0
122
1.0
132
0.0
 79
     0
146
0.0
  0
ENDTAB
  0
TABLE
  2
LTYPE
  5
5
330
0
100
AcDbSymbolTable
 70
     6
  0
LTYPE
  5
14
330
5
100
AcDbSymbolTableRecord
100
AcDbLinetypeTableRecord
  2
ByBlock
 70
     0
  3

 72
    65
 73
     0
 40
0.0
  0
LTYPE
  5
15
330
5
100
AcDbSymbolTableRecord
100
AcDbLinetypeTableRecord
  2
ByLayer
 70
     0
  3

 72
    65
 73
     0
 40
0.0
  0
LTYPE
  5
16
330
5
100
AcDbSymbolTableRecord
100
AcDbLinetypeTableRecord
  2
Continuous
 70
     0
  3
Solid line
 72
    65
 73
     0
 40
0.0
  0
LTYPE
  5
5E
330
5
100
AcDbSymbolTableRecord
100
AcDbLinetypeTableRecord
  2
HIDDEN
 70
     0
  3
Hidden __ __ __ __ __ __ __ __ __ __ __ __ __ __
 72
    65
 73
     2
 40
1.905
 49
1.27
 74
     0
 49
-0.635
 74
     0
  0
LTYPE
  5
5F
330
5
100
AcDbSymbolTableRecord
100
AcDbLinetypeTableRecord
  2
PHANTOM
 70
     0
  3
Phantom ______  __  __  ______  __  __  ______
 72
    65
 73
     6
 40
12.7
 49
6.35
 74
     0
 49
-1.27
 74
     0
 49
1.27
 74
     0
 49
-1.27
 74
     0
 49
1.27
 74
     0
 49
-1.27
 74
     0
  0
LTYPE
  5
60
330
5
100
AcDbSymbolTableRecord
100
AcDbLinetypeTableRecord
  2
CENTER
 70
     0
  3
Center ____ _ ____ _ ____ _ ____ _ ____ _ ____
 72
    65
 73
     4
 40
10.16
 49
6.35
 74
     0
 49
-1.27
 74
     0
 49
1.27
 74
     0
 49
-1.27
 74
     0
  0
LTYPE
  5
61
330
5
100
AcDbSymbolTableRecord
100
AcDbLinetypeTableRecord
  2
CENTERX2
 70
     0
  3
Center (2x) ________  __  ________  __  _____
 72
    65
 73
     4
 40
20.32
 49
12.7
 74
     0
 49
-2.54
 74
     0
 49
2.54
 74
     0
 49
-2.54
 74
     0
  0
LTYPE
  5
62
330
5
100
AcDbSymbolTableRecord
100
AcDbLinetypeTableRecord
  2
DOT2
 70
     0
  3
Dot (.5x) ........................................
 72
    65
 73
     2
 40
0.635
 49
0.0
 74
     0
 49
-0.635
 74
     0
  0
ENDTAB
  0
TABLE
  2
LAYER
  5
2
330
0
100
AcDbSymbolTable
 70
    14
  0
LAYER
  5
10
330
2
100
AcDbSymbolTableRecord
100
AcDbLayerTableRecord
  2
0
 70
     0
 62
     7
  6
Continuous
370
    -3
390
F
  0
LAYER
  5
63
330
2
100
AcDbSymbolTableRecord
100
AcDbLayerTableRecord
  2
SLD-0
 70
     0
 62
     7
  6
Continuous
370
    -3
390
F
  0
LAYER
  5
64
330
2
100
AcDbSymbolTableRecord
100
AcDbLayerTableRecord
  2
5
 70
     0
 62
     7
  6
Continuous
370
    -3
390
F
  0
LAYER
  5
65
330
2
100
AcDbSymbolTableRecord
100
AcDbLayerTableRecord
  2
9
 70
     0
 62
     7
  6
Continuous
370
    -3
390
F
  0
LAYER
  5
66
330
2
100
AcDbSymbolTableRecord
100
AcDbLayerTableRecord
  2
10
 70
     0
 62
     7
  6
Continuous
370
    -3
390
F
  0
LAYER
  5
67
330
2
100
AcDbSymbolTableRecord
100
AcDbLayerTableRecord
  2
轮廓实线层
 70
     0
 62
     7
  6
Continuous
370
    50
390
F
  0
LAYER
  5
68
330
2
100
AcDbSymbolTableRecord
100
AcDbLayerTableRecord
  2
细线层
 70
     0
 62
     4
  6
Continuous
370
    25
390
F
  0
LAYER
  5
69
330
2
100
AcDbSymbolTableRecord
100
AcDbLayerTableRecord
  2
中心线层
 70
     0
 62
     1
  6
CENTERX2
370
    25
390
F
  0
LAYER
  5
6A
330
2
100
AcDbSymbolTableRecord
100
AcDbLayerTableRecord
  2
虚线层
 70
     0
 62
     6
  6
HIDDEN
370
    25
390
F
  0
LAYER
  5
6B
330
2
100
AcDbSymbolTableRecord
100
AcDbLayerTableRecord
  2
剖面线层
 70
     0
 62
     2
  6
Continuous
370
    25
390
F
  0
LAYER
  5
6C
330
2
100
AcDbSymbolTableRecord
100
AcDbLayerTableRecord
  2
文字层
 70
     0
 62
     3
  6
Continuous
370
    25
390
F
  0
LAYER
  5
6D
330
2
100
AcDbSymbolTableRecord
100
AcDbLayerTableRecord
  2
标注层
 70
     0
 62
     4
  6
Continuous
370
    25
390
F
  0
LAYER
  5
6E
330
2
100
AcDbSymbolTableRecord
100
AcDbLayerTableRecord
  2
符号标注层
 70
     0
 62
    31
  6
Continuous
370
    25
390
F
  0
LAYER
  5
6F
330
2
100
AcDbSymbolTableRecord
100
AcDbLayerTableRecord
  2
双点划线层
 70
     0
 62
     6
  6
PHANTOM
370
    25
390
F
  0
ENDTAB
  0
TABLE
  2
STYLE
  5
3
330
0
100
AcDbSymbolTable
 70
     1
  0
STYLE
  5
11
330
3
100
AcDbSymbolTableRecord
100
AcDbTextStyleTableRecord
  2
Standard
 70
     0
 40
0.0
 41
1.0
 50
0.0
 71
     0
 42
3.5
  3
txt
  4

  0
ENDTAB
  0
TABLE
  2
VIEW
  5
6
330
0
100
AcDbSymbolTable
 70
     0
  0
ENDTAB
  0
TABLE
  2
UCS
  5
7
330
0
100
AcDbSymbolTable
 70
     0
  0
ENDTAB
  0
TABLE
  2
APPID
  5
9
330
0
100
AcDbSymbolTable
 70
     1
  0
APPID
  5
12
330
9
100
AcDbSymbolTableRecord
100
AcDbRegAppTableRecord
  2
ACAD
 70
     0
  0
ENDTAB
  0
TABLE
  2
DIMSTYLE
  5
A
330
0
100
AcDbSymbolTable
 70
     1
100
AcDbDimStyleTable
  0
DIMSTYLE
105
27
330
A
100
AcDbSymbolTableRecord
100
AcDbDimStyleTableRecord
  2
ISO-25
 70
     0
 41
2.5
 42
0.625
 43
3.75
 44
1.25
 73
     0
 74
     0
 77
     1
 78
     8
140
2.5
141
2.5
143
0.0393700787
147
0.625
171
     3
172
     1
178
     0
271
     2
272
     2
274
     3
278
    44
283
     0
284
     8
340
11
  0
ENDTAB
  0
TABLE
  2
BLOCK_RECORD
  5
1
330
0
100
AcDbSymbolTable
 70
     2
  0
BLOCK_RECORD
  5
1F
330
1
100
AcDbSymbolTableRecord
100
AcDbBlockTableRecord
  2
*Model_Space
340
22
  0
BLOCK_RECORD
  5
1B
330
1
100
AcDbSymbolTableRecord
100
AcDbBlockTableRecord
  2
*Paper_Space
340
1E
  0
BLOCK_RECORD
  5
23
330
1
100
AcDbSymbolTableRecord
100
AcDbBlockTableRecord
  2
*Paper_Space0
340
26
  0
BLOCK_RECORD
  5
9A
330
1
100
AcDbSymbolTableRecord
100
AcDbBlockTableRecord
  2
SW_CENTERMARKSYMBOL_0
340
0
102
{BLKREFS
331
A5
102
}
  0
ENDTAB
  0
ENDSEC
  0
SECTION
  2
BLOCKS
  0
BLOCK
  5
20
330
1F
100
AcDbEntity
  8
0
100
AcDbBlockBegin
  2
*Model_Space
 70
     0
 10
0.0
 20
0.0
 30
0.0
  3
*Model_Space
  1

  0
ENDBLK
  5
21
330
1F
100
AcDbEntity
  8
0
100
AcDbBlockEnd
  0
BLOCK
  5
1C
330
1B
100
AcDbEntity
 67
     1
  8
0
100
AcDbBlockBegin
  2
*Paper_Space
 70
     0
 10
0.0
 20
0.0
 30
0.0
  3
*Paper_Space
  1

  0
ENDBLK
  5
1D
330
1B
100
AcDbEntity
 67
     1
  8
0
100
AcDbBlockEnd
  0
BLOCK
  5
24
330
23
100
AcDbEntity
  8
0
100
AcDbBlockBegin
  2
*Paper_Space0
 70
     0
 10
0.0
 20
0.0
 30
0.0
  3
*Paper_Space0
  1

  0
ENDBLK
  5
25
330
23
100
AcDbEntity
  8
0
100
AcDbBlockEnd
  0
BLOCK
  5
9B
330
9A
100
AcDbEntity
  8
0
100
AcDbBlockBegin
  2
SW_CENTERMARKSYMBOL_0
 70
     0
 10
0.0
 20
0.0
 30
0.0
  3
SW_CENTERMARKSYMBOL_0
  1

  0
LINE
  5
9D
330
9A
100
AcDbEntity
  8
10
 62
     0
100
AcDbLine
 10
0.0
 20
0.0
 30
0.0
 11
0.0
 21
2.5
 31
0.0
  0
LINE
  5
9E
330
9A
100
AcDbEntity
  8
10
 62
     0
100
AcDbLine
 10
0.0
 20
0.0
 30
0.0
 11
-2.5
 21
0.0
 31
0.0
  0
LINE
  5
9F
330
9A
100
AcDbEntity
  8
10
 62
     0
100
AcDbLine
 10
0.0
 20
0.0
 30
0.0
 11
0.0
 21
-2.5
 31
0.0
  0
LINE
  5
A0
330
9A
100
AcDbEntity
  8
10
 62
     0
100
AcDbLine
 10
0.0
 20
0.0
 30
0.0
 11
2.5
 21
0.0
 31
0.0
  0
LINE
  5
A1
330
9A
100
AcDbEntity
  8
10
 62
     0
100
AcDbLine
 10
0.0
 20
5.0
 30
0.0
 11
0.0
 21
36.7301087579
 31
0.0
  0
LINE
  5
A2
330
9A
100
AcDbEntity
  8
10
 62
     0
100
AcDbLine
 10
-5.0
 20
0.0
 30
0.0
 11
-36.7301087579
 21
0.0
 31
0.0
  0
LINE
  5
A3
330
9A
100
AcDbEntity
  8
10
 62
     0
100
AcDbLine
 10
0.0
 20
-5.0
 30
0.0
 11
0.0
 21
-36.7301087579
 31
0.0
  0
LINE
  5
A4
330
9A
100
AcDbEntity
  8
10
 62
     0
100
AcDbLine
 10
5.0
 20
0.0
 30
0.0
 11
36.7301087579
 21
0.0
 31
0.0
  0
ENDBLK
  5
9C
330
9A
100
AcDbEntity
  8
0
100
AcDbBlockEnd
  0
ENDSEC
  0
SECTION
  2
ENTITIES
  0
LINE
  5
70
330
1F
100
AcDbEntity
  8
0
  6
Continuous
 62
     7
370
    25
100
AcDbLine
 10
111.63405499
 20
88.0095532431
 30
0.0
 11
109.7207776172
 21
86.0962758703
 31
0.0
  0
LINE
  5
71
330
1F
100
AcDbEntity
  8
0
  6
Continuous
 62
     7
370
    25
100
AcDbLine
 10
109.7207776172
 20
27.9037189187
 30
0.0
 11
111.63405499
 21
25.9904415459
 31
0.0
  0
LINE
  5
72
330
1F
100
AcDbEntity
  8
0
  6
Continuous
 62
     7
370
    25
100
AcDbLine
 10
106.6501902288
 20
30.9743063071
 30
0.0
 11
109.7207776172
 21
27.9037189187
 31
0.0
  0
LINE
  5
73
330
1F
100
AcDbEntity
  8
0
  6
Continuous
 62
     7
370
    25
100
AcDbLine
 10
109.7207776172
 20
86.0962758703
 30
0.0
 11
106.6501902288
 21
83.025688482
 31
0.0
  0
CIRCLE
  5
74
330
1F
100
AcDbEntity
  8
0
  6
Continuous
 62
     7
370
    25
100
AcDbCircle
 10
71.6949055524
 20
56.9999973945
 30
0.0
 40
34.23010875787124
  0
ARC
  5
75
330
1F
100
AcDbEntity
  8
0
  6
Continuous
 62
     7
370
    25
100
AcDbCircle
 10
103.4931021388
 20
86.182776572
 30
0.0
 40
4.464796794504972
100
AcDbArc
 50
222.5441423248
 51
315.0
  0
ARC
  5
76
330
1F
100
AcDbEntity
  8
0
  6
Continuous
 62
     7
370
    25
100
AcDbCircle
 10
103.4931021388
 20
27.817218217
 30
0.0
 40
4.464796794505051
100
AcDbArc
 50
45.0
 51
137.4558576752
  0
ARC
  5
77
330
1F
100
AcDbEntity
  8
0
  6
Continuous
 62
     7
370
    25
100
AcDbCircle
 10
71.6949055524
 20
56.9999973945
 30
0.0
 40
38.69490555237616
100
AcDbArc
 50
42.5441423248
 51
317.4558576752
  0
LINE
  5
78
330
1F
100
AcDbEntity
  8
0
  6
Continuous
 62
     7
370
    25
100
AcDbLine
 10
118.7558287884
 20
95.1313270415
 30
0.0
 11
111.63405499
 21
88.0095532431
 31
0.0
  0
LINE
  5
79
330
1F
100
AcDbEntity
  8
0
  6
Continuous
 62
     7
370
    25
100
AcDbLine
 10
111.63405499
 20
25.9904415459
 30
0.0
 11
118.7558287884
 21
18.8686677475
 31
0.0
  0
LINE
  5
7A
330
1F
100
AcDbEntity
  8
0
  6
Continuous
 62
     7
370
    25
100
AcDbLine
 10
123.0400686892
 20
94.9507701478
 30
0.0
 11
123.0400686892
 21
19.0492246412
 31
0.0
  0
CIRCLE
  5
7B
330
1F
100
AcDbEntity
  8
0
  6
Continuous
 62
     7
370
    25
100
AcDbCircle
 10
71.6949055524
 20
56.9999973945
 30
0.0
 40
31.25357756153461
  0
SPLINE
  5
7C
330
1F
100
AcDbEntity
  8
0
  6
Continuous
 62
     7
370
    25
100
AcDbSpline
210
0.0
220
0.0
230
1.0
 70
     8
 71
     3
 72
    23
 73
    19
 74
     0
 42
0.00000001
 43
0.00000001
 40
0.0
 40
0.0
 40
0.0
 40
0.0
 40
0.0603989802792828
 40
0.1179589817097337
 40
0.1726801240293557
 40
0.224562557184334
 40
0.2736064677686392
 40
0.3198120874403504
 40
0.3631797040900744
 40
0.4037096769161951
 40
0.4414024571691358
 40
0.476258617328543
 40
0.5082788931868754
 40
0.6161734449910008
 40
0.7192568503998168
 40
0.8175624181648179
 40
0.9111285922121181
 40
1.0
 40
1.0
 40
1.0
 40
1.0
 10
121.9129168783702
 20
17.56095904304476
 30
0.0
 10
121.8438652197916
 20
17.56188016159496
 30
0.0
 10
121.709007589851
 20
17.56367910266507
 30
0.0
 10
121.5117844828608
 20
17.57772175255867
 30
0.0
 10
121.3248485111253
 20
17.59856578388954
 30
0.0
 10
121.1483833717873
 20
17.62576600305
 30
0.0
 10
120.9825004788641
 20
17.65794890267951
 30
0.0
 10
120.8272302386083
 20
17.69405133619667
 30
0.0
 10
120.6825391379075
 20
17.73301794482996
 30
0.0
 10
120.548340746493
 20
17.77387807160911
 30
0.0
 10
120.4245037300835
 20
17.81572893556583
 30
0.0
 10
120.3108718402462
 20
17.85773760859546
 30
0.0
 10
120.1223276092017
 20
17.93307798565685
 30
0.0
 10
119.8645491157543
 20
18.05279839361737
 30
0.0
 10
119.5475968912493
 20
18.23324149742325
 30
0.0
 10
119.2578044756714
 20
18.43113157694592
 30
0.0
 10
118.9937239874231
 20
18.6406250388566
 30
0.0
 10
118.8337549981599
 20
18.79396887159973
 30
0.0
 10
118.7558287883559
 20
18.86866774753521
 30
0.0
  0
SPLINE
  5
7D
330
1F
100
AcDbEntity
  8
0
  6
Continuous
 62
     7
370
    25
100
AcDbSpline
210
0.0
220
0.0
230
1.0
 70
     8
 71
     3
 72
    20
 73
    16
 74
     0
 42
0.00000001
 43
0.00000001
 40
0.0
 40
0.0
 40
0.0
 40
0.0
 40
0.0550052067802245
 40
0.1118376323684078
 40
0.1705091613068628
 40
0.2310305929751951
 40
0.2934117642646777
 40
0.3576616561471584
 40
0.4237884864830609
 40
0.4917997910492644
 40
0.5659825888799844
 40
0.6538913298003193
 40
0.7555297287296968
 40
0.8708992610057454
 40
1.0
 40
1.0
 40
1.0
 40
1.0
 10
118.7558287883551
 20
95.13132704147495
 30
0.0
 10
118.8037255451154
 20
95.17798970849398
 30
0.0
 10
118.9011101417338
 20
95.27286513038368
 30
0.0
 10
119.0564923652892
 20
95.40770265670196
 30
0.0
 10
119.2218186080689
 20
95.53905873590021
 30
0.0
 10
119.3977270962617
 20
95.66533168207182
 30
0.0
 10
119.5841100367214
 20
95.7857882156335
 30
0.0
 10
119.7809889805537
 20
95.89940355194825
 30
0.0
 10
119.9882360343515
 20
96.00517935262585
 30
0.0
 10
120.2103025139322
 20
96.1041407668195
 30
0.0
 10
120.4597566564873
 20
96.19904966422193
 30
0.0
 10
120.7505651876854
 20
96.28931820907515
 30
0.0
 10
121.0923999595936
 20
96.36792200125389
 30
0.0
 10
121.4856159648141
 20
96.42690684180067
 30
0.0
 10
121.7652478617778
 20
96.43484417208032
 30
0.0
 10
121.9129168783694
 20
96.43903574596541
 30
0.0
  0
LINE
  5
7E
330
1F
100
AcDbEntity
  8
0
  6
Continuous
 62
     7
370
    25
100
AcDbLine
 10
123.0400686892
 20
96.439035746
 30
0.0
 11
121.9129168784
 21
96.439035746
 31
0.0
  0
LINE
  5
7F
330
1F
100
AcDbEntity
  8
0
  6
Continuous
 62
     7
370
    25
100
AcDbLine
 10
123.0400686892
 20
94.9507701478
 30
0.0
 11
123.0400686892
 21
96.439035746
 31
0.0
  0
LINE
  5
80
330
1F
100
AcDbEntity
  8
0
  6
Continuous
 62
     7
370
    25
100
AcDbLine
 10
121.9129168784
 20
17.560959043
 30
0.0
 11
123.0400686892
 21
17.560959043
 31
0.0
  0
LINE
  5
81
330
1F
100
AcDbEntity
  8
0
  6
Continuous
 62
     7
370
    25
100
AcDbLine
 10
123.0400686892
 20
17.560959043
 30
0.0
 11
123.0400686892
 21
19.0492246412
 31
0.0
  0
ELLIPSE
  5
82
330
1F
100
AcDbEntity
  8
0
  6
Continuous
 62
     7
370
    25
100
AcDbEllipse
 10
129.8561273657
 20
94.9507701478
 30
0.0
 11
-1.095188291645598
 21
1.095188291645641
 31
0.0
210
0.0
220
0.0
230
1.0
 40
0.9201328816
 41
3.968561432931493
 42
5.456216527837953
  0
LINE
  5
83
330
1F
100
AcDbEntity
  8
0
  6
Continuous
 62
     7
370
    25
100
AcDbLine
 10
129.8561273657
 20
17.560959043
 30
0.0
 11
131.3392521347
 21
17.560959043
 31
0.0
  0
ELLIPSE
  5
84
330
1F
100
AcDbEntity
  8
0
  6
Continuous
 62
     7
370
    25
100
AcDbEllipse
 10
129.7321052325
 20
94.9507701478
 30
0.0
 11
1.493424246558931
 21
-4.263256414560601E-14
 31
0.0
210
0.0
220
0.0
230
1.0
 40
0.9965457582
 41
1.487655094906416
 42
1.570796326794925
  0
LINE
  5
85
330
1F
100
AcDbEntity
  8
0
  6
Continuous
 62
     7
370
    25
100
AcDbLine
 10
131.6214545416
 20
96.439035746
 30
0.0
 11
129.7321052325
 21
96.439035746
 31
0.0
  0
ELLIPSE
  5
86
330
1F
100
AcDbEntity
  8
0
  6
Continuous
 62
     7
370
    25
100
AcDbEllipse
 10
131.6214545416
 20
94.9507701478
 30
0.0
 11
0.0
 21
1.488265598168311
 31
0.0
210
0.0
220
0.0
230
1.0
 40
0.9262765061
 41
4.712388980384702
 42
6.283185307179586
  0
LINE
  5
87
330
1F
100
AcDbEntity
  8
0
  6
Continuous
 62
     7
370
    25
100
AcDbLine
 10
127.4919803098
 20
96.439035746
 30
0.0
 11
126.0037709755
 21
96.439035746
 31
0.0
  0
LINE
  5
88
330
1F
100
AcDbEntity
  8
0
  6
Continuous
 62
     7
370
    25
100
AcDbLine
 10
126.0037709755
 20
17.560959043
 30
0.0
 11
127.4919803098
 21
17.560959043
 31
0.0
  0
LINE
  5
89
330
1F
100
AcDbEntity
  8
0
  6
Continuous
 62
     7
370
    25
100
AcDbLine
 10
127.4919803098
 20
96.439035746
 30
0.0
 11
129.7321052325
 21
96.439035746
 31
0.0
  0
LINE
  5
8A
330
1F
100
AcDbEntity
  8
0
  6
Continuous
 62
     7
370
    25
100
AcDbLine
 10
129.8561273657
 20
17.560959043
 30
0.0
 11
127.4919803098
 21
17.560959043
 31
0.0
  0
LINE
  5
8B
330
1F
100
AcDbEntity
  8
0
  6
Continuous
 62
     7
370
    25
100
AcDbLine
 10
133.0
 20
94.9507701478
 30
0.0
 11
133.0
 21
17.560959043
 31
0.0
  0
LINE
  5
8C
330
1F
100
AcDbEntity
  8
0
  6
Continuous
 62
     7
370
    25
100
AcDbLine
 10
133.0
 20
17.560959043
 30
0.0
 11
131.3392521347
 21
17.560959043
 31
0.0
  0
LINE
  5
8D
330
1F
100
AcDbEntity
  8
0
  6
Continuous
 62
     7
370
    25
100
AcDbLine
 10
125.9001269257
 20
96.439035746
 30
0.0
 11
125.8677733257
 21
17.560959043
 31
0.0
  0
LINE
  5
8E
330
1F
100
AcDbEntity
  8
0
  6
Continuous
 62
     7
370
    25
100
AcDbLine
 10
125.9001269257
 20
96.439035746
 30
0.0
 11
126.0037709755
 21
96.439035746
 31
0.0
  0
LINE
  5
8F
330
1F
100
AcDbEntity
  8
0
  6
Continuous
 62
     7
370
    25
100
AcDbLine
 10
126.0037709755
 20
17.560959043
 30
0.0
 11
125.8677733257
 21
17.560959043
 31
0.0
  0
LINE
  5
90
330
1F
100
AcDbEntity
  8
0
  6
Continuous
 62
     7
370
    25
100
AcDbLine
 10
123.0400686892
 20
96.439035746
 30
0.0
 11
125.9001269257
 21
96.439035746
 31
0.0
  0
LINE
  5
91
330
1F
100
AcDbEntity
  8
0
  6
Continuous
 62
     7
370
    25
100
AcDbLine
 10
125.8677733257
 20
17.560959043
 30
0.0
 11
123.0400686892
 21
17.560959043
 31
0.0
  0
SPLINE
  5
92
330
1F
100
AcDbEntity
  8
0
  6
HIDDEN
 62
     7
370
    18
100
AcDbSpline
210
0.0
220
0.0
230
1.0
 70
     8
 71
     3
 72
     8
 73
     4
 74
     0
 42
0.00000001
 43
0.00000001
 40
0.0
 40
0.0
 40
0.0
 40
0.0
 40
1.0
 40
1.0
 40
1.0
 40
1.0
 10
103.1534829248363
 20
80.31524893019828
 30
0.0
 10
103.154102491098
 20
80.28947901793707
 30
0.0
 10
103.1543952963744
 20
80.26410791306942
 30
0.0
 10
103.1543952963744
 20
80.23935756218334
 30
0.0
  0
SPLINE
  5
93
330
1F
100
AcDbEntity
  8
0
  6
HIDDEN
 62
     7
370
    18
100
AcDbSpline
210
0.0
220
0.0
230
1.0
 70
     8
 71
     3
 72
    20
 73
    16
 74
     0
 42
0.00000001
 43
0.00000001
 40
0.0
 40
0.0
 40
0.0
 40
0.0
 40
0.0636897177422246
 40
0.1207436185839234
 40
0.1711751233907783
 40
0.2149814839519969
 40
0.2521507217479307
 40
0.3845990211979263
 40
0.502535640867931
 40
0.5872533191333856
 40
0.6707928972140769
 40
0.7534391586623845
 40
0.8355437008826605
 40
0.9175478888204966
 40
1.0
 40
1.0
 40
1.0
 40
1.0
 10
103.9456067995993
 20
81.74096951310695
 30
0.0
 10
103.9201081000961
 20
81.7373522186083
 30
0.0
 10
103.8717674046693
 20
81.73049451468478
 30
0.0
 10
103.8047561210313
 20
81.70922505095638
 30
0.0
 10
103.7462370469723
 20
81.68387566534481
 30
0.0
 10
103.6960638896613
 20
81.65630675057753
 30
0.0
 10
103.616112591905
 20
81.60392464217952
 30
0.0
 10
103.5134614467161
 20
81.51110366320587
 30
0.0
 10
103.4042547642852
 20
81.36402739584226
 30
0.0
 10
103.3232742206222
 20
81.21091195241554
 30
0.0
 10
103.2620620973522
 20
81.05753513857329
 30
0.0
 10
103.212557254035
 20
80.88875547374388
 30
0.0
 10
103.1765477503047
 20
80.70683770806335
 30
0.0
 10
103.1540602537323
 20
80.51457791850028
 30
0.0
 10
103.1535669662351
 20
80.38209075547054
 30
0.0
 10
103.1533196507125
 20
80.31566674888268
 30
0.0
  0
SPLINE
  5
94
330
1F
100
AcDbEntity
  8
0
  6
HIDDEN
 62
     7
370
    18
100
AcDbSpline
210
0.0
220
0.0
230
1.0
 70
     8
 71
     3
 72
    24
 73
    20
 74
     0
 42
0.00000001
 43
0.00000001
 40
0.0
 40
0.0
 40
0.0
 40
0.0
 40
0.058213578276412
 40
0.1137706025578014
 40
0.1667338558185904
 40
0.2171500257263024
 40
0.2650564865202875
 40
0.3104860225629252
 40
0.3534700507223004
 40
0.3940407895838587
 40
0.4322327324574173
 40
0.4680837106373417
 40
0.5016357832866208
 40
0.589668916652307
 40
0.6748369563266267
 40
0.7578279497660825
 40
0.8392674522724508
 40
0.919770288795821
 40
1.0
 40
1.0
 40
1.0
 40
1.0
 10
103.9456067995995
 20
32.25902527590267
 30
0.0
 10
103.9221935478004
 20
32.26231473741539
 30
0.0
 10
103.8764354988385
 20
32.26874354714457
 30
0.0
 10
103.81025202786
 20
32.28916688153865
 30
0.0
 10
103.748238027412
 20
32.31571273981447
 30
0.0
 10
103.6905069187349
 20
32.34798943105994
 30
0.0
 10
103.6370491476283
 20
32.38475873081766
 30
0.0
 10
103.5877910464706
 20
32.42513796491114
 30
0.0
 10
103.5425960201435
 20
32.46828719865525
 30
0.0
 10
103.5012817436386
 20
32.51347278725432
 30
0.0
 10
103.4636188582543
 20
32.56004470035756
 30
0.0
 10
103.4293760108239
 20
32.60741558283888
 30
0.0
 10
103.3806439270099
 20
32.68197985090649
 30
0.0
 10
103.3205164386976
 20
32.79208748588864
 30
0.0
 10
103.2572576074654
 20
32.9492386772914
 30
0.0
 10
103.2081418747249
 20
33.11993697599663
 30
0.0
 10
103.1738915760762
 20
33.30121913794863
 30
0.0
 10
103.1535038836238
 20
33.49028431007358
 30
0.0
 10
103.1533803479779
 20
33.61973123330212
 30
0.0
 10
103.1533186851141
 20
33.68434471335782
 30
0.0
  0
SPLINE
  5
95
330
1F
100
AcDbEntity
  8
0
  6
HIDDEN
 62
     7
370
    18
100
AcDbSpline
210
0.0
220
0.0
230
1.0
 70
     8
 71
     3
 72
     8
 73
     4
 74
     0
 42
0.00000001
 43
0.00000001
 40
0.0
 40
0.0
 40
0.0
 40
0.0
 40
1.0
 40
1.0
 40
1.0
 40
1.0
 10
103.1543952963744
 20
33.76063722682623
 30
0.0
 10
103.1543952963744
 20
33.73588687593911
 30
0.0
 10
103.1541024910978
 20
33.71051577107043
 30
0.0
 10
103.1534829248362
 20
33.68474585880816
 30
0.0
  0
LINE
  5
96
330
1F
100
AcDbEntity
  8
0
  6
HIDDEN
 62
     7
370
    18
100
AcDbLine
 10
103.1543952964
 20
80.2393575622
 30
0.0
 11
103.1543952964
 21
33.7606372268
 31
0.0
  0
ARC
  5
97
330
1F
100
AcDbEntity
  8
0
  6
HIDDEN
 62
     7
370
    18
100
AcDbCircle
 10
128.9931310819
 20
19.0492246412
 30
0.0
 40
1.488265598168315
100
AcDbArc
 50
180.0
 51
270.0
  0
ARC
  5
98
330
1F
100
AcDbEntity
  8
0
  6
HIDDEN
 62
     7
370
    18
100
AcDbCircle
 10
128.9931310819
 20
94.9507701478
 30
0.0
 40
1.488265598168311
100
AcDbArc
 50
90.0
 51
180.0
  0
LINE
  5
99
330
1F
100
AcDbEntity
  8
0
  6
HIDDEN
 62
     7
370
    18
100
AcDbLine
 10
127.5048654837
 20
94.9507701478
 30
0.0
 11
127.5048654837
 21
19.0492246412
 31
0.0
  0
INSERT
  5
A5
330
1F
100
AcDbEntity
  8
10
100
AcDbBlockReference
  2
SW_CENTERMARKSYMBOL_0
 10
71.6949055524
 20
56.9999973945
 30
0.0
  0
ARC
  5
A6
330
1F
100
AcDbEntity
  8
0
  6
Continuous
 62
     7
370
    25
100
AcDbCircle
 10
34.4882655982
 20
163.9535320354
 30
0.0
 40
1.48826559816834
100
AcDbArc
 50
90.0
 51
180.0
  0
LINE
  5
A7
330
1F
100
AcDbEntity
  8
0
  6
Continuous
 62
     7
370
    25
100
AcDbLine
 10
33.0
 20
163.9535320354
 30
0.0
 11
33.0
 21
141.6295480628
 31
0.0
  0
ARC
  5
A8
330
1F
100
AcDbEntity
  8
0
  6
Continuous
 62
     7
370
    25
100
AcDbCircle
 10
34.4882655982
 20
141.6295480628
 30
0.0
 40
1.488265598168319
100
AcDbArc
 50
180.0
 51
270.0
  0
LINE
  5
A9
330
1F
100
AcDbEntity
  8
0
  6
Continuous
 62
     7
370
    25
100
AcDbLine
 10
123.0400686892
 20
162.4652664372
 30
0.0
 11
125.9001269257
 21
162.4652664372
 31
0.0
  0
LINE
  5
AA
330
1F
100
AcDbEntity
  8
0
  6
Continuous
 62
     7
370
    25
100
AcDbLine
 10
123.0400686892
 20
151.013668814
 30
0.0
 11
123.0400686892
 21
162.4652664372
 31
0.0
  0
LINE
  5
AB
330
1F
100
AcDbEntity
  8
0
  6
Continuous
 62
     7
370
    25
100
AcDbLine
 10
131.6214545416
 20
171.7430677628
 30
0.0
 11
128.9931310819
 21
174.3713912225
 31
0.0
  0
LINE
  5
AC
330
1F
100
AcDbEntity
  8
0
  6
Continuous
 62
     7
370
    25
100
AcDbLine
 10
127.4919803098
 20
149.0708760537
 30
0.0
 11
129.7321052325
 21
149.0708760537
 31
0.0
  0
ARC
  5
AD
330
1F
100
AcDbEntity
  8
0
  6
Continuous
 62
     7
370
    25
100
AcDbCircle
 10
127.4919803098
 20
150.5591416519
 30
0.0
 40
1.488265598168384
100
AcDbArc
 50
180.4982116126
 51
270.0
  0
LINE
  5
AE
330
1F
100
AcDbEntity
  8
0
  6
Continuous
 62
     7
370
    25
100
AcDbLine
 10
125.9001269257
 20
162.4652664372
 30
0.0
 11
126.0037709755
 21
150.5462007011
 31
0.0
  0
LINE
  5
AF
330
1F
100
AcDbEntity
  8
0
  6
Continuous
 62
     7
370
    25
100
AcDbLine
 10
122.8695555648
 20
148.9277985539
 30
0.0
 11
123.0400686892
 21
149.0708760537
 31
0.0
  0
LINE
  5
B0
330
1F
100
AcDbEntity
  8
0
  6
Continuous
 62
     7
370
    25
100
AcDbLine
 10
123.0400686892
 20
149.0708760537
 30
0.0
 11
123.0400686892
 21
151.013668814
 31
0.0
  0
LINE
  5
B1
330
1F
100
AcDbEntity
  8
0
  6
Continuous
 62
     7
370
    25
100
AcDbLine
 10
120.7648301715
 20
147.1617242526
 30
0.0
 11
122.8695555648
 21
148.9277985539
 31
0.0
  0
LINE
  5
B2
330
1F
100
AcDbEntity
  8
0
  6
Continuous
 62
     7
370
    25
100
AcDbLine
 10
127.5048654837
 20
175.8596568207
 30
0.0
 11
121.9129168784
 21
175.8596568207
 31
0.0
  0
LINE
  5
B3
330
1F
100
AcDbEntity
  8
0
  6
Continuous
 62
     7
370
    25
100
AcDbLine
 10
128.9931310819
 20
174.3713912225
 30
0.0
 11
127.5048654837
 21
175.8596568207
 31
0.0
  0
LINE
  5
B4
330
1F
100
AcDbEntity
  8
0
  6
Continuous
 62
     7
370
    25
100
AcDbLine
 10
121.9129168784
 20
175.8596568207
 30
0.0
 11
119.808191485
 21
175.8596568207
 31
0.0
  0
ARC
  5
B5
330
1F
100
AcDbEntity
  8
0
  6
Continuous
 62
     7
370
    25
100
AcDbCircle
 10
129.8561273657
 20
150.5591416519
 30
0.0
 40
1.488265598168377
100
AcDbArc
 50
270.0
 51
355.2363583093
  0
LINE
  5
B6
330
1F
100
AcDbEntity
  8
0
  6
Continuous
 62
     7
370
    25
100
AcDbLine
 10
129.7321052325
 20
149.0708760537
 30
0.0
 11
129.8561273657
 21
149.0708760537
 31
0.0
  0
LINE
  5
B7
330
1F
100
AcDbEntity
  8
0
  6
Continuous
 62
     7
370
    25
100
AcDbLine
 10
131.3392521347
 20
150.4355479211
 30
0.0
 11
133.0
 21
170.3645223044
 31
0.0
  0
LINE
  5
B8
330
1F
100
AcDbEntity
  8
0
  6
Continuous
 62
     7
370
    25
100
AcDbLine
 10
133.0
 20
170.3645223044
 30
0.0
 11
131.6214545416
 21
171.7430677628
 31
0.0
  0
LINE
  5
B9
330
1F
100
AcDbEntity
  8
0
  6
Continuous
 62
     7
370
    25
100
AcDbLine
 10
99.107143989
 20
165.4417976335
 30
0.0
 11
34.4882655982
 21
165.4417976335
 31
0.0
  0
LINE
  5
BA
330
1F
100
AcDbEntity
  8
0
  6
Continuous
 62
     7
370
    25
100
AcDbLine
 10
34.4882655982
 20
140.1412824647
 30
0.0
 11
99.107143989
 21
140.1412824647
 31
0.0
  0
LINE
  5
BB
330
1F
100
AcDbEntity
  8
0
  6
Continuous
 62
     7
370
    25
100
AcDbLine
 10
113.6430563731
 20
141.1858464851
 30
0.0
 11
120.7648301715
 21
147.1617242526
 31
0.0
  0
LINE
  5
BC
330
1F
100
AcDbEntity
  8
0
  6
Continuous
 62
     7
370
    25
100
AcDbLine
 10
119.808191485
 20
175.8596568207
 30
0.0
 11
110.9125535922
 21
175.8596568207
 31
0.0
  0
SPLINE
  5
BD
330
1F
100
AcDbEntity
  8
0
  6
Continuous
 62
     7
370
    25
100
AcDbSpline
210
0.0
220
0.0
230
1.0
 70
     8
 71
     3
 72
     8
 73
     4
 74
     0
 42
0.00000001
 43
0.00000001
 40
-1.5707963267949
 40
-1.5707963267949
 40
-1.5707963267949
 40
-1.5707963267949
 40
-0.872664625997165
 40
-0.872664625997165
 40
-0.872664625997165
 40
-0.872664625997165
 10
110.7731403138255
 20
140.1412824646765
 30
0.0
 10
111.8121457071136
 20
140.1412824646765
 30
0.0
 10
112.8471320652027
 20
140.5179866918925
 30
0.0
 10
113.6430563731016
 20
141.1858464850955
 30
0.0
  0
LINE
  5
BE
330
1F
100
AcDbEntity
  8
0
  6
Continuous
 62
     7
370
    25
100
AcDbLine
 10
107.7025529255
 20
140.1412824647
 30
0.0
 11
110.7731403138
 21
140.1412824647
 31
0.0
  0
SPLINE
  5
BF
330
1F
100
AcDbEntity
  8
0
  6
Continuous
 62
     7
370
    25
100
AcDbSpline
210
0.0
220
0.0
230
1.0
 70
     8
 71
     3
 72
    26
 73
    22
 74
     0
 42
0.00000001
 43
0.00000001
 40
0.0
 40
0.0
 40
0.0
 40
0.0
 40
0.0352793804227206
 40
0.0713632827701985
 40
0.1082719539995508
 40
0.1460243138956475
 40
0.1846380419033547
 40
0.2241296604455966
 40
0.2645146142673113
 40
0.305807345526906
 40
0.3480213645002628
 40
0.3911693158732679
 40
0.4352630406825221
 40
0.4803136340251661
 40
0.5325091534195608
 40
0.5920377773821379
 40
0.658911920687271
 40
0.7331400726230233
 40
0.8147281850490603
 40
0.9036804889477876
 40
1.0
 40
1.0
 40
1.0
 40
1.0
 10
106.8771348259376
 20
173.3053065177949
 30
0.0
 10
106.9055677721226
 20
173.3634545229215
 30
0.0
 10
106.963082058209
 20
173.4810765583048
 30
0.0
 10
107.0592243279047
 20
173.6528241915686
 30
0.0
 10
107.1639177010556
 20
173.8230091933087
 30
0.0
 10
107.277959218971
 20
173.99061692159
 30
0.0
 10
107.4012569588344
 20
174.155208340703
 30
0.0
 10
107.5339246461898
 20
174.3161566134249
 30
0.0
 10
107.6759748654716
 20
174.4728602918371
 30
0.0
 10
107.8274015418118
 20
174.6246866538628
 30
0.0
 10
107.988151233946
 20
174.7709881181039
 30
0.0
 10
108.1581381168796
 20
174.9111065064001
 30
0.0
 10
108.3371974380071
 20
175.0443509931699
 30
0.0
 10
108.5338418308121
 20
175.1758467653594
 30
0.0
 10
108.7572019070991
 20
175.3082099885339
 30
0.0
 10
109.0178821364914
 20
175.4416697955548
 30
0.0
 10
109.3181313439546
 20
175.5699458884888
 30
0.0
 10
109.6591899145442
 20
175.6857547271727
 30
0.0
 10
110.0414235571524
 20
175.7798061220998
 30
0.0
 10
110.4640975056318
 20
175.8464121537293
 30
0.0
 10
110.7591572798856
 20
175.8551264260256
 30
0.0
 10
110.9125535921894
 20
175.8596568207161
 30
0.0
  0
LINE
  5
C0
330
1F
100
AcDbEntity
  8
0
  6
Continuous
 62
     7
370
    25
100
AcDbLine
 10
106.8771348259
 20
173.3053065178
 30
0.0
 11
106.3574133368
 21
172.2075035383
 31
0.0
  0
SPLINE
  5
C1
330
1F
100
AcDbEntity
  8
0
  6
Continuous
 62
     7
370
    25
100
AcDbSpline
210
0.0
220
0.0
230
1.0
 70
     8
 71
     3
 72
    20
 73
    16
 74
     0
 42
0.00000001
 43
0.00000001
 40
0.0
 40
0.0
 40
0.0
 40
0.0
 40
0.0636897177422246
 40
0.1207436185839234
 40
0.1711751233907783
 40
0.2149814839519969
 40
0.2521507217479307
 40
0.3845990211979263
 40
0.502535640867931
 40
0.5872533191333856
 40
0.6707928972140769
 40
0.7534391586623845
 40
0.8355437008826605
 40
0.9175478888204966
 40
1.0
 40
1.0
 40
1.0
 40
1.0
 10
103.9456067995993
 20
163.9535320353696
 30
0.0
 10
103.9201081000961
 20
163.9980441622468
 30
0.0
 10
103.8717674046693
 20
164.0824307078393
 30
0.0
 10
103.8047561210313
 20
164.2015286318047
 30
0.0
 10
103.7462370469723
 20
164.305712877602
 30
0.0
 10
103.6960638896613
 20
164.3950602363151
 30
0.0
 10
103.616112591905
 20
164.5383901894081
 30
0.0
 10
103.5134614467161
 20
164.7261485088345
 30
0.0
 10
103.4042547642852
 20
164.9267980391329
 30
0.0
 10
103.3232742206222
 20
165.0805978379181
 30
0.0
 10
103.2620620973522
 20
165.1988650973998
 30
0.0
 10
103.212557254035
 20
165.2964727903272
 30
0.0
 10
103.1765477503047
 20
165.3706268001507
 30
0.0
 10
103.1540602537323
 20
165.4219536342456
 30
0.0
 10
103.1535669662351
 20
165.433873466869
 30
0.0
 10
103.1533196507125
 20
165.4398496159736
 30
0.0
  0
LINE
  5
C2
330
1F
100
AcDbEntity
  8
0
  6
Continuous
 62
     7
370
    25
100
AcDbLine
 10
103.1543952964
 20
165.4417976335
 30
0.0
 11
99.107143989
 21
165.4417976335
 31
0.0
  0
LINE
  5
C3
330
1F
100
AcDbEntity
  8
0
  6
Continuous
 62
     7
370
    25
100
AcDbLine
 10
99.107143989
 20
140.1412824647
 30
0.0
 11
107.7025529255
 21
140.1412824647
 31
0.0
  0
LINE
  5
C4
330
1F
100
AcDbEntity
  8
0
  6
Continuous
 62
     7
370
    25
100
AcDbLine
 10
106.3574133368
 20
172.2075035383
 30
0.0
 11
103.1534829248
 21
165.4398704394
 31
0.0
  0
LINE
  5
C5
330
1F
100
AcDbEntity
  8
0
  6
HIDDEN
 62
     7
370
    18
100
AcDbLine
 10
125.9001269257
 20
162.4652664372
 30
0.0
 11
125.8677733257
 21
166.1859304326
 31
0.0
  0
LINE
  5
C6
330
1F
100
AcDbEntity
  8
0
  6
HIDDEN
 62
     7
370
    18
100
AcDbLine
 10
123.0400686892
 20
166.1859304326
 30
0.0
 11
123.0400686892
 21
162.4652664372
 31
0.0
  0
LINE
  5
C7
330
1F
100
AcDbEntity
  8
0
  6
HIDDEN
 62
     7
370
    18
100
AcDbLine
 10
37.4647967945
 20
143.8619464601
 30
0.0
 11
105.9250143102
 21
143.8619464601
 31
0.0
  0
LINE
  5
C8
330
1F
100
AcDbEntity
  8
0
  6
HIDDEN
 62
     7
370
    18
100
AcDbLine
 10
125.8677733257
 20
166.1859304326
 30
0.0
 11
123.0400686892
 21
166.1859304326
 31
0.0
  0
ARC
  5
C9
330
1F
100
AcDbEntity
  8
0
  6
HIDDEN
 62
     7
370
    18
100
AcDbCircle
 10
35.9765311963
 20
141.6295480628
 30
0.0
 40
1.488265598168311
100
AcDbArc
 50
270.0
 51
0.0
  0
ARC
  5
CA
330
1F
100
AcDbEntity
  8
0
  6
HIDDEN
 62
     7
370
    18
100
AcDbCircle
 10
107.4132799084
 20
141.6295480628
 30
0.0
 40
1.488265598168326
100
AcDbArc
 50
180.0
 51
270.0
  0
LINE
  5
CB
330
1F
100
AcDbEntity
  8
0
  6
HIDDEN
 62
     7
370
    18
100
AcDbLine
 10
37.4647967945
 20
143.8619464601
 30
0.0
 11
37.4647967945
 21
141.6295480628
 31
0.0
  0
LINE
  5
CC
330
1F
100
AcDbEntity
  8
0
  6
HIDDEN
 62
     7
370
    18
100
AcDbLine
 10
105.9250143102
 20
141.6295480628
 30
0.0
 11
105.9250143102
 21
143.8619464601
 31
0.0
  0
LINE
  5
CD
330
1F
100
AcDbEntity
  8
0
  6
HIDDEN
 62
     7
370
    18
100
AcDbLine
 10
40.4413279908
 20
165.4417976335
 30
0.0
 11
40.4413279908
 21
143.8619464601
 31
0.0
  0
LINE
  5
CE
330
1F
100
AcDbEntity
  8
0
  6
HIDDEN
 62
     7
370
    18
100
AcDbLine
 10
102.9484831139
 20
143.8619464601
 30
0.0
 11
102.9484831139
 21
165.4417976335
 31
0.0
  0
SPLINE
  5
CF
330
1F
100
AcDbEntity
  8
0
  6
Continuous
 62
     7
370
    25
100
AcDbSpline
210
0.0
220
0.0
230
1.0
 70
     8
 71
     3
 72
    11
 73
     7
 74
     0
 42
0.00000001
 43
0.00000001
 40
0.0
 40
0.0
 40
0.0
 40
0.0
 40
0.0173321636832748
 40
0.3662113457516029
 40
0.694717132535659
 40
1.0
 40
1.0
 40
1.0
 40
1.0
 10
214.0708760536864
 20
96.28184436191106
 30
0.0
 10
214.058331433523
 20
96.27965606698908
 30
0.0
 10
213.7932761111793
 20
96.233419576097
 30
0.0
 10
213.311248728145
 20
95.99432528003454
 30
0.0
 10
212.6706394447767
 20
95.5846804343648
 30
0.0
 10
212.3267334522789
 20
95.21316897698482
 30
0.0
 10
212.1610810588128
 20
95.03421960286055
 30
0.0
  0
SPLINE
  5
D0
330
1F
100
AcDbEntity
  8
0
  6
Continuous
 62
     7
370
    25
100
AcDbSpline
210
0.0
220
0.0
230
1.0
 70
     8
 71
     3
 72
    11
 73
     7
 74
     0
 42
0.00000001
 43
0.00000001
 40
0.0
 40
0.0
 40
0.0
 40
0.0
 40
0.3052831066418526
 40
0.6337889773157135
 40
0.9826675884659347
 40
0.9999999999999999
 40
0.9999999999999999
 40
0.9999999999999999
 40
0.9999999999999999
 10
212.161062824087
 20
18.96576483141867
 30
0.0
 10
212.3267162602821
 20
18.78681512220448
 30
0.0
 10
212.6706243234233
 20
18.41530307084535
 30
0.0
 10
213.3112414307932
 20
18.00566229139846
 30
0.0
 10
213.7932742262582
 20
17.76657203408363
 30
0.0
 10
214.0583311664942
 20
17.72033615119818
 30
0.0
 10
214.0708760536864
 20
17.71814785182932
 30
0.0
  0
LINE
  5
D1
330
1F
100
AcDbEntity
  8
0
  6
Continuous
 62
     7
370
    25
100
AcDbLine
 10
212.1617242526
 20
95.0356030312
 30
0.0
 11
206.1858464851
 21
87.9138292329
 31
0.0
  0
LINE
  5
D2
330
1F
100
AcDbEntity
  8
0
  6
Continuous
 62
     7
370
    25
100
AcDbLine
 10
206.1858464851
 20
26.0861655561
 30
0.0
 11
212.1617242526
 21
18.9643917578
 31
0.0
  0
SPLINE
  5
D3
330
1F
100
AcDbEntity
  8
0
  6
Continuous
 62
     7
370
    25
100
AcDbSpline
210
0.0
220
0.0
230
1.0
 70
     8
 71
     3
 72
    11
 73
     7
 74
     0
 42
0.00000001
 43
0.00000001
 40
0.0
 40
0.0
 40
0.0
 40
0.0
 40
0.2001825153736913
 40
0.4332897188685491
 40
0.7000453557875767
 40
1.0
 40
1.0
 40
1.0
 40
1.0
 10
206.1865371361816
 20
87.91376622708181
 30
0.0
 10
206.0537059436381
 20
87.74029266234184
 30
0.0
 10
205.7661963678559
 20
87.3648137552206
 30
0.0
 10
205.4547975585922
 20
86.73096673840539
 30
0.0
 10
205.2200382329012
 20
86.00817426895395
 30
0.0
 10
205.1873580019093
 20
85.51184792554076
 30
0.0
 10
205.1700606501825
 20
85.24914686521319
 30
0.0
  0
SPLINE
  5
D4
330
1F
100
AcDbEntity
  8
0
  6
Continuous
 62
     7
370
    25
100
AcDbSpline
210
0.0
220
0.0
230
1.0
 70
     8
 71
     3
 72
    11
 73
     7
 74
     0
 42
0.00000001
 43
0.00000001
 40
0.0
 40
0.0
 40
0.0
 40
0.0
 40
0.2999543942790953
 40
0.5667103146610413
 40
0.7998177795514138
 40
1.0
 40
1.0
 40
1.0
 40
1.0
 10
205.1700594476692
 20
28.75084659143835
 30
0.0
 10
205.1873566474713
 20
28.48814290849604
 30
0.0
 10
205.2200366205925
 20
27.99181116719697
 30
0.0
 10
205.454792152995
 20
27.26900850667344
 30
0.0
 10
205.7661859600606
 20
26.6351516201392
 30
0.0
 10
206.0536941183509
 20
26.25967056723893
 30
0.0
 10
206.1865244705865
 20
26.08619625328856
 30
0.0
  0
LINE
  5
D5
330
1F
100
AcDbEntity
  8
0
  6
Continuous
 62
     7
370
    25
100
AcDbLine
 10
212.8931840001
 20
95.6949029469
 30
0.0
 11
206.6295480628
 21
95.6949029469
 31
0.0
  0
LINE
  5
D6
330
1F
100
AcDbEntity
  8
0
  6
Continuous
 62
     7
370
    25
100
AcDbLine
 10
206.6295480628
 20
18.3050918421
 30
0.0
 11
212.8931582325
 21
18.3050918421
 31
0.0
  0
ARC
  5
D7
330
1F
100
AcDbEntity
  8
0
  6
Continuous
 62
     7
370
    25
100
AcDbCircle
 10
206.6295480628
 20
19.7933574403
 30
0.0
 40
1.488265598168315
100
AcDbArc
 50
180.0
 51
270.0
  0
ARC
  5
D8
330
1F
100
AcDbEntity
  8
0
  6
Continuous
 62
     7
370
    25
100
AcDbCircle
 10
206.6295480628
 20
94.2066373487
 30
0.0
 40
1.488265598168326
100
AcDbArc
 50
90.0
 51
180.0
  0
LINE
  5
D9
330
1F
100
AcDbEntity
  8
0
  6
Continuous
 62
     7
370
    25
100
AcDbLine
 10
239.3713912225
 20
17.560959043
 30
0.0
 11
235.3645223044
 21
17.560959043
 31
0.0
  0
LINE
  5
DA
330
1F
100
AcDbEntity
  8
0
  6
Continuous
 62
     7
370
    25
100
AcDbLine
 10
235.3645223044
 20
94.9507701478
 30
0.0
 11
235.3645223044
 21
17.560959043
 31
0.0
  0
ELLIPSE
  5
DB
330
1F
100
AcDbEntity
  8
0
  6
Continuous
 62
     7
370
    25
100
AcDbEllipse
 10
236.7430677628
 20
94.9507701478
 30
0.0
 11
0.0
 21
1.488265598168311
 31
0.0
210
0.0
220
0.0
230
1.0
 40
0.9262765061
 41
0.0
 42
1.570796326794897
  0
LINE
  5
DC
330
1F
100
AcDbEntity
  8
0
  6
Continuous
 62
     7
370
    25
100
AcDbLine
 10
236.7430677628
 20
96.439035746
 30
0.0
 11
239.3713912225
 21
96.439035746
 31
0.0
  0
ARC
  5
DD
330
1F
100
AcDbEntity
  8
0
  6
Continuous
 62
     7
370
    25
100
AcDbCircle
 10
239.3713912225
 20
94.9507701478
 30
0.0
 40
1.488265598168311
100
AcDbArc
 50
0.0
 51
90.0
  0
LINE
  5
DE
330
1F
100
AcDbEntity
  8
0
  6
Continuous
 62
     7
370
    25
100
AcDbLine
 10
240.8596568207
 20
94.9507701478
 30
0.0
 11
240.8596568207
 21
19.0492246412
 31
0.0
  0
ARC
  5
DF
330
1F
100
AcDbEntity
  8
0
  6
Continuous
 62
     7
370
    25
100
AcDbCircle
 10
239.3713912225
 20
19.0492246412
 30
0.0
 40
1.488265598168315
100
AcDbArc
 50
270.0
 51
0.0
  0
ELLIPSE
  5
E0
330
1F
100
AcDbEntity
  8
0
  6
Continuous
 62
     7
370
    25
100
AcDbEllipse
 10
215.5591416519
 20
94.9507701478
 30
0.0
 11
1.486979835468475
 21
-1.486979835468532
 31
0.0
210
0.0
220
0.0
230
1.0
 40
0.0415945788
 41
3.183163269534745
 42
4.670818364440486
  0
LINE
  5
E1
330
1F
100
AcDbEntity
  8
0
  6
Continuous
 62
     7
370
    25
100
AcDbLine
 10
214.0708760537
 20
96.439035746
 30
0.0
 11
214.0708760537
 21
96.4338949168
 31
0.0
  0
LINE
  5
E2
330
1F
100
AcDbEntity
  8
0
  6
Continuous
 62
     7
370
    25
100
AcDbLine
 10
236.7430677628
 20
96.439035746
 30
0.0
 11
214.0708760537
 21
96.439035746
 31
0.0
  0
LINE
  5
E3
330
1F
100
AcDbEntity
  8
0
  6
Continuous
 62
     7
370
    25
100
AcDbLine
 10
235.3645223044
 20
17.560959043
 30
0.0
 11
215.4355479211
 21
17.560959043
 31
0.0
  0
LINE
  5
E4
330
1F
100
AcDbEntity
  8
0
  6
Continuous
 62
     7
370
    25
100
AcDbLine
 10
214.0708760537
 20
96.4338949168
 30
0.0
 11
214.0708760537
 21
17.560959043
 31
0.0
  0
LINE
  5
E5
330
1F
100
AcDbEntity
  8
0
  6
Continuous
 62
     7
370
    25
100
AcDbLine
 10
214.0708760537
 20
17.560959043
 30
0.0
 11
215.4355479211
 21
17.560959043
 31
0.0
  0
LINE
  5
E6
330
1F
100
AcDbEntity
  8
0
  6
Continuous
 62
     7
370
    25
100
AcDbLine
 10
205.1412824647
 20
85.0439131736
 30
0.0
 11
205.1412824647
 21
28.9560816154
 31
0.0
  0
LINE
  5
E7
330
1F
100
AcDbEntity
  8
0
  6
Continuous
 62
     7
370
    25
100
AcDbLine
 10
205.1979354401
 20
85.2453069009
 30
0.0
 11
205.1412824647
 21
85.0439131736
 31
0.0
  0
LINE
  5
E8
330
1F
100
AcDbEntity
  8
0
  6
Continuous
 62
     7
370
    25
100
AcDbLine
 10
205.1412824647
 20
28.9560816154
 30
0.0
 11
205.1979357591
 21
28.7546867541
 31
0.0
  0
LINE
  5
E9
330
1F
100
AcDbEntity
  8
0
  6
Continuous
 62
     7
370
    25
100
AcDbLine
 10
205.1412824647
 20
28.9560816154
 30
0.0
 11
205.1412824647
 21
19.7933574403
 31
0.0
  0
LINE
  5
EA
330
1F
100
AcDbEntity
  8
0
  6
Continuous
 62
     7
370
    25
100
AcDbLine
 10
205.1412824647
 20
94.2066373487
 30
0.0
 11
205.1412824647
 21
85.0439131736
 31
0.0
  0
LINE
  5
EB
330
1F
100
AcDbEntity
  8
0
  6
HIDDEN
 62
     7
370
    18
100
AcDbLine
 10
227.4652664372
 20
96.439035746
 30
0.0
 11
231.1859304326
 21
17.560959043
 31
0.0
  0
ELLIPSE
  5
EC
330
1F
100
AcDbEntity
  8
0
  6
HIDDEN
 62
     7
370
    18
100
AcDbEllipse
 10
216.013668814
 20
94.9507701478
 30
0.0
 11
-1.942792760311363
 21
0.0
 31
0.0
210
0.0
220
0.0
230
1.0
 40
0.7660444431
 41
4.7123889803847
 42
6.283185307179586
  0
ELLIPSE
  5
ED
330
1F
100
AcDbEntity
  8
0
  6
HIDDEN
 62
     7
370
    18
100
AcDbEllipse
 10
216.013668814
 20
19.0492246412
 30
0.0
 11
-1.942792760311363
 21
0.0
 31
0.0
210
0.0
220
0.0
230
1.0
 40
0.7660444431
 41
0.0
 42
1.570796326794897
  0
LINE
  5
EE
330
1F
100
AcDbEntity
  8
0
  6
HIDDEN
 62
     7
370
    18
100
AcDbLine
 10
208.8619464601
 20
56.9999973945
 30
0.0
 11
208.8619464601
 21
22.7698886366
 31
0.0
  0
LINE
  5
EF
330
1F
100
AcDbEntity
  8
0
  6
HIDDEN
 62
     7
370
    18
100
AcDbLine
 10
208.8619464601
 20
91.2301061524
 30
0.0
 11
208.8619464601
 21
56.9999973945
 31
0.0
  0
LINE
  5
F0
330
1F
100
AcDbEntity
  8
0
  6
HIDDEN
 62
     7
370
    18
100
AcDbLine
 10
230.4417976335
 20
31.8424291381
 30
0.0
 11
230.4417976335
 21
33.7606372268
 31
0.0
  0
SPLINE
  5
F1
330
1F
100
AcDbEntity
  8
0
  6
HIDDEN
 62
     7
370
    18
100
AcDbSpline
210
0.0
220
0.0
230
1.0
 70
     8
 71
     3
 72
    24
 73
    20
 74
     0
 42
0.00000001
 43
0.00000001
 40
0.0
 40
0.0
 40
0.0
 40
0.0
 40
0.058213578276412
 40
0.1137706025578014
 40
0.1667338558185904
 40
0.2171500257263024
 40
0.2650564865202875
 40
0.3104860225629252
 40
0.3534700507223004
 40
0.3940407895838587
 40
0.4322327324574173
 40
0.4680837106373417
 40
0.5016357832866208
 40
0.589668916652307
 40
0.6748369563266267
 40
0.7578279497660825
 40
0.8392674522724508
 40
0.919770288795821
 40
1.0
 40
1.0
 40
1.0
 40
1.0
 10
228.9535320353597
 20
32.25902527590267
 30
0.0
 10
228.9941453533744
 20
32.26231473741539
 30
0.0
 10
229.0735186164378
 20
32.26874354714457
 30
0.0
 10
229.1890313446651
 20
32.28916688153865
 30
0.0
 10
229.2981821197474
 20
32.31571273981447
 30
0.0
 10
229.4008823838211
 20
32.34798943105994
 30
0.0
 10
229.4971115649073
 20
32.38475873081766
 30
0.0
 10
229.5868662843224
 20
32.42513796491114
 30
0.0
 10
229.6701670253052
 20
32.46828719865525
 30
0.0
 10
229.7470561058115
 20
32.51347278725432
 30
0.0
 10
229.8175806851247
 20
32.56004470035756
 30
0.0
 10
229.8818397111094
 20
32.60741558283888
 30
0.0
 10
229.9724718270751
 20
32.68197985090649
 30
0.0
 10
230.0833557914398
 20
32.79208748588864
 30
0.0
 10
230.2030495009899
 20
32.9492386772914
 30
0.0
 10
230.2996962168945
 20
33.11993697599663
 30
0.0
 10
230.3721385778949
 20
33.30121913794863
 30
0.0
 10
230.4220371751862
 20
33.49028431007358
 30
0.0
 10
230.4337013434241
 20
33.61973123330212
 30
0.0
 10
230.4395235173547
 20
33.68434471335782
 30
0.0
  0
SPLINE
  5
F2
330
1F
100
AcDbEntity
  8
0
  6
HIDDEN
 62
     7
370
    18
100
AcDbSpline
210
0.0
220
0.0
230
1.0
 70
     8
 71
     3
 72
     8
 73
     4
 74
     0
 42
0.00000001
 43
0.00000001
 40
0.0
 40
0.0
 40
0.0
 40
0.0
 40
1.0
 40
1.0
 40
1.0
 40
1.0
 10
230.4417976335379
 20
33.76063722682623
 30
0.0
 10
230.4417976335379
 20
33.73588687593911
 30
0.0
 10
230.4411791436127
 20
33.71051577107043
 30
0.0
 10
230.4398704394273
 20
33.68474585880816
 30
0.0
  0
LINE
  5
F3
330
1F
100
AcDbEntity
  8
0
  6
HIDDEN
 62
     7
370
    18
100
AcDbLine
 10
230.4417976335
 20
80.2393575622
 30
0.0
 11
230.4417976335
 21
82.1575656509
 31
0.0
  0
SPLINE
  5
F4
330
1F
100
AcDbEntity
  8
0
  6
HIDDEN
 62
     7
370
    18
100
AcDbSpline
210
0.0
220
0.0
230
1.0
 70
     8
 71
     3
 72
    20
 73
    16
 74
     0
 42
0.00000001
 43
0.00000001
 40
0.0
 40
0.0
 40
0.0
 40
0.0
 40
0.0636897177422246
 40
0.1207436185839234
 40
0.1711751233907783
 40
0.2149814839519969
 40
0.2521507217479307
 40
0.3845990211979263
 40
0.502535640867931
 40
0.5872533191333856
 40
0.6707928972140769
 40
0.7534391586623845
 40
0.8355437008826605
 40
0.9175478888204966
 40
1.0
 40
1.0
 40
1.0
 40
1.0
 10
228.9535320353696
 20
81.74096951310695
 30
0.0
 10
228.9980441622468
 20
81.7373522186083
 30
0.0
 10
229.0824307078393
 20
81.73049451468478
 30
0.0
 10
229.2015286318047
 20
81.70922505095638
 30
0.0
 10
229.305712877602
 20
81.68387566534481
 30
0.0
 10
229.3950602363151
 20
81.65630675057753
 30
0.0
 10
229.5383901894081
 20
81.60392464217952
 30
0.0
 10
229.7261485088345
 20
81.51110366320587
 30
0.0
 10
229.9267980391329
 20
81.36402739584226
 30
0.0
 10
230.0805978379181
 20
81.21091195241554
 30
0.0
 10
230.1988650973998
 20
81.05753513857329
 30
0.0
 10
230.2964727903272
 20
80.88875547374388
 30
0.0
 10
230.3706268001507
 20
80.70683770806335
 30
0.0
 10
230.4219536342456
 20
80.51457791850028
 30
0.0
 10
230.433873466869
 20
80.38209075547054
 30
0.0
 10
230.4398496159736
 20
80.31566674888268
 30
0.0
  0
SPLINE
  5
F5
330
1F
100
AcDbEntity
  8
0
  6
HIDDEN
 62
     7
370
    18
100
AcDbSpline
210
0.0
220
0.0
230
1.0
 70
     8
 71
     3
 72
     8
 73
     4
 74
     0
 42
0.00000001
 43
0.00000001
 40
0.0
 40
0.0
 40
0.0
 40
0.0
 40
1.0
 40
1.0
 40
1.0
 40
1.0
 10
230.4398704394275
 20
80.31524893019828
 30
0.0
 10
230.4411791436127
 20
80.28947901793707
 30
0.0
 10
230.4417976335379
 20
80.26410791306942
 30
0.0
 10
230.4417976335379
 20
80.23935756218334
 30
0.0
  0
LINE
  5
F6
330
1F
100
AcDbEntity
  8
0
  6
HIDDEN
 62
     7
370
    18
100
AcDbLine
 10
230.4417976335
 20
80.2393575622
 30
0.0
 11
230.4417976335
 21
33.7606372268
 31
0.0
  0
LINE
  5
F7
330
1F
100
AcDbEntity
  8
0
  6
HIDDEN
 62
     7
370
    18
100
AcDbLine
 10
230.4417976335
 20
82.1575656509
 30
0.0
 11
230.4417976335
 21
94.2066373487
 31
0.0
  0
LINE
  5
F8
330
1F
100
AcDbEntity
  8
0
  6
HIDDEN
 62
     7
370
    18
100
AcDbLine
 10
230.4417976335
 20
19.7933574403
 30
0.0
 11
230.4417976335
 21
31.8424291381
 31
0.0
  0
LINE
  5
F9
330
1F
100
AcDbEntity
  8
0
  6
HIDDEN
 62
     7
370
    18
100
AcDbLine
 10
214.8232212899
 20
96.4167455249
 30
0.0
 11
214.0708760537
 21
96.2818443619
 31
0.0
  0
LINE
  5
FA
330
1F
100
AcDbEntity
  8
0
  6
HIDDEN
 62
     7
370
    18
100
AcDbLine
 10
214.0708760537
 20
17.7181478518
 30
0.0
 11
214.8232212899
 21
17.5832492641
 31
0.0
  0
ARC
  5
FB
330
1F
100
AcDbEntity
  8
0
  6
HIDDEN
 62
     7
370
    18
100
AcDbCircle
 10
206.6295480628
 20
33.7702806097
 30
0.0
 40
1.488265598168319
100
AcDbArc
 50
180.0
 51
270.0
  0
ARC
  5
FC
330
1F
100
AcDbEntity
  8
0
  6
HIDDEN
 62
     7
370
    18
100
AcDbCircle
 10
206.6295480628
 20
80.2297141793
 30
0.0
 40
1.488265598168311
100
AcDbArc
 50
90.0
 51
180.0
  0
ARC
  5
FD
330
1F
100
AcDbEntity
  8
0
  6
HIDDEN
 62
     7
370
    18
100
AcDbCircle
 10
206.6295480628
 20
92.7183717505
 30
0.0
 40
1.488265598168326
100
AcDbArc
 50
180.0
 51
270.0
  0
ARC
  5
FE
330
1F
100
AcDbEntity
  8
0
  6
HIDDEN
 62
     7
370
    18
100
AcDbCircle
 10
206.6295480628
 20
21.2816230385
 30
0.0
 40
1.488265598168315
100
AcDbArc
 50
90.0
 51
180.0
  0
LINE
  5
FF
330
1F
100
AcDbEntity
  8
0
  6
HIDDEN
 62
     7
370
    18
100
AcDbLine
 10
206.6295480628
 20
81.7179797775
 30
0.0
 11
228.9535320354
 21
81.7179797775
 31
0.0
  0
LINE
  5
100
330
1F
100
AcDbEntity
  8
0
  6
HIDDEN
 62
     7
370
    18
100
AcDbLine
 10
228.9535320354
 20
32.2820150115
 30
0.0
 11
206.6295480628
 21
32.2820150115
 31
0.0
  0
LINE
  5
101
330
1F
100
AcDbEntity
  8
0
  6
HIDDEN
 62
     7
370
    18
100
AcDbLine
 10
208.8619464601
 20
91.2301061524
 30
0.0
 11
206.6295480628
 21
91.2301061524
 31
0.0
  0
LINE
  5
102
330
1F
100
AcDbEntity
  8
0
  6
HIDDEN
 62
     7
370
    18
100
AcDbLine
 10
206.6295480628
 20
22.7698886366
 30
0.0
 11
208.8619464601
 21
22.7698886366
 31
0.0
  0
ARC
  5
103
330
1F
100
AcDbEntity
  8
0
  6
HIDDEN
 62
     7
370
    18
100
AcDbCircle
 10
228.9535320354
 20
33.7702806097
 30
0.0
 40
1.488265598168318
100
AcDbArc
 50
292.1283502102
 51
303.6781715896
  0
ARC
  5
104
330
1F
100
AcDbEntity
  8
0
  6
HIDDEN
 62
     7
370
    18
100
AcDbCircle
 10
228.9535320354
 20
33.7702806097
 30
0.0
 40
1.488265598168319
100
AcDbArc
 50
270.0
 51
286.6607990373
  0
ARC
  5
105
330
1F
100
AcDbEntity
  8
0
  6
HIDDEN
 62
     7
370
    18
100
AcDbCircle
 10
228.9535320354
 20
80.2297141793
 30
0.0
 40
1.488265598168314
100
AcDbArc
 50
67.0214318864
 51
90.0
  0
LINE
  5
106
330
1F
100
AcDbEntity
  8
0
  6
HIDDEN
 62
     7
370
    18
100
AcDbLine
 10
229.7226819727
 20
81.5038189099
 30
0.0
 11
229.7763094556
 21
81.4698640926
 31
0.0
  0
LINE
  5
107
330
1F
100
AcDbEntity
  8
0
  6
HIDDEN
 62
     7
370
    18
100
AcDbLine
 10
230.4417976335
 20
88.253574956
 30
0.0
 11
208.8619464601
 21
88.253574956
 31
0.0
  0
LINE
  5
108
330
1F
100
AcDbEntity
  8
0
  6
HIDDEN
 62
     7
370
    18
100
AcDbLine
 10
208.8619464601
 20
25.746419833
 30
0.0
 11
230.4417976335
 21
25.746419833
 31
0.0
  0
ARC
  5
109
330
1F
100
AcDbEntity
  8
0
  6
HIDDEN
 62
     7
370
    18
100
AcDbCircle
 10
228.9535320354
 20
94.2066373487
 30
0.0
 40
1.48826559816834
100
AcDbArc
 50
0.0
 51
90.0
  0
ARC
  5
10A
330
1F
100
AcDbEntity
  8
0
  6
HIDDEN
 62
     7
370
    18
100
AcDbCircle
 10
228.9535320354
 20
19.7933574403
 30
0.0
 40
1.48826559816834
100
AcDbArc
 50
270.0
 51
0.0
  0
LINE
  5
10B
330
1F
100
AcDbEntity
  8
0
  6
HIDDEN
 62
     7
370
    18
100
AcDbLine
 10
228.9535320354
 20
95.6949029469
 30
0.0
 11
212.8931840001
 21
95.6949029469
 31
0.0
  0
LINE
  5
10C
330
1F
100
AcDbEntity
  8
0
  6
HIDDEN
 62
     7
370
    18
100
AcDbLine
 10
212.8931582325
 20
18.3050918421
 30
0.0
 11
228.9535320354
 21
18.3050918421
 31
0.0
  0
ENDSEC
  0
SECTION
  2
OBJECTS
  0
DICTIONARY
  5
C
330
0
100
AcDbDictionary
281
     1
  3
ACAD_GROUP
350
D
  3
ACAD_LAYOUT
350
1A
  3
ACAD_MLINESTYLE
350
17
  3
ACAD_PLOTSETTINGS
350
19
  3
ACAD_PLOTSTYLENAME
350
E
  3
ACAD_SCALELIST
350
47
  3
DWGPROPS
350
10D
  0
DICTIONARY
  5
D
102
{ACAD_REACTORS
330
C
102
}
330
C
100
AcDbDictionary
281
     1
  0
DICTIONARY
  5
1A
102
{ACAD_REACTORS
330
C
102
}
330
C
100
AcDbDictionary
281
     1
  3
Layout1
350
1E
  3
Layout2
350
26
  3
Model
350
22
  0
DICTIONARY
  5
17
102
{ACAD_REACTORS
330
C
102
}
330
C
100
AcDbDictionary
281
     1
  3
Standard
350
18
  0
DICTIONARY
  5
19
102
{ACAD_REACTORS
330
C
102
}
330
C
100
AcDbDictionary
281
     1
  0
ACDBDICTIONARYWDFLT
  5
E
102
{ACAD_REACTORS
330
C
102
}
330
C
100
AcDbDictionary
281
     1
  3
Normal
350
F
100
AcDbDictionaryWithDefault
340
F
  0
DICTIONARY
  5
47
102
{ACAD_REACTORS
330
C
102
}
330
C
100
AcDbDictionary
281
     1
  3
A0
350
48
  3
A1
350
49
  3
A2
350
4A
  3
A3
350
4B
  3
A4
350
4C
  3
A5
350
4D
  3
A6
350
4E
  3
A7
350
4F
  3
A8
350
50
  3
A9
350
51
  3
B0
350
52
  3
B1
350
53
  3
B2
350
54
  3
B3
350
55
  3
B4
350
56
  3
B5
350
57
  3
B6
350
58
  0
XRECORD
  5
10D
102
{ACAD_REACTORS
330
C
102
}
330
C
100
AcDbXrecord
280
     1
  1
DWGPROPS COOKIE
  2

  3

  4

  6

  7

  8

  9

300
=
301
=
302
=
303
=
304
=
305
=
306
=
307
=
308
=
309
=
 40
0.0
 41
2461214.657880336
 42
2461214.657880567
  1

 90
        0
  0
LAYOUT
  5
1E
102
{ACAD_REACTORS
330
1A
102
}
330
1A
100
AcDbPlotSettings
  1

  2
none_device
  4

  6

 40
0.0
 41
0.0
 42
0.0
 43
0.0
 44
0.0
 45
0.0
 46
0.0
 47
0.0
 48
0.0
 49
0.0
140
0.0
141
0.0
142
1.0
143
1.0
 70
   688
 72
     1
 73
     0
 74
     5
  7

 75
    16
147
1.0
148
0.0
149
0.0
100
AcDbLayout
  1
Layout1
 70
     1
 71
     1
 10
0.0
 20
0.0
 11
420.0
 21
297.0
 12
0.0
 22
0.0
 32
0.0
 14
1.0000000000E+20
 24
1.0000000000E+20
 34
1.0000000000E+20
 15
-1.0000000000E+20
 25
-1.0000000000E+20
 35
-1.0000000000E+20
146
0.0
 13
0.0
 23
0.0
 33
0.0
 16
1.0
 26
0.0
 36
0.0
 17
0.0
 27
1.0
 37
0.0
 76
     0
330
1B
  0
LAYOUT
  5
26
102
{ACAD_REACTORS
330
1A
102
}
330
1A
100
AcDbPlotSettings
  1

  2
none_device
  4

  6

 40
0.0
 41
0.0
 42
0.0
 43
0.0
 44
0.0
 45
0.0
 46
0.0
 47
0.0
 48
0.0
 49
0.0
140
0.0
141
0.0
142
1.0
143
1.0
 70
   688
 72
     1
 73
     0
 74
     5
  7

 75
    16
147
1.0
148
0.0
149
0.0
100
AcDbLayout
  1
Layout2
 70
     1
 71
     2
 10
0.0
 20
0.0
 11
0.0
 21
0.0
 12
0.0
 22
0.0
 32
0.0
 14
0.0
 24
0.0
 34
0.0
 15
0.0
 25
0.0
 35
0.0
146
0.0
 13
0.0
 23
0.0
 33
0.0
 16
1.0
 26
0.0
 36
0.0
 17
0.0
 27
1.0
 37
0.0
 76
     0
330
23
  0
LAYOUT
  5
22
102
{ACAD_REACTORS
330
1A
102
}
330
1A
100
AcDbPlotSettings
  1

  2
none_device
  4
Letter_(8.50_x_11.00_Inches)
  6

 40
6.35
 41
6.35
 42
6.35000508
 43
6.35000508
 44
215.9
 45
279.4
 46
0.0
 47
0.0
 48
0.0
 49
0.0
140
0.0
141
0.0
142
1.0
143
1.0
 70
  1712
 72
     1
 73
     0
 74
     0
  7

 75
     0
147
1.0
148
0.0
149
0.0
100
AcDbLayout
  1
Model
 70
     1
 71
     0
 10
0.0
 20
0.0
 11
297.0
 21
210.0
 12
0.0
 22
0.0
 32
0.0
 14
0.0
 24
0.0
 34
0.0
 15
297.0
 25
210.0
 35
0.0
146
0.0
 13
0.0
 23
0.0
 33
0.0
 16
1.0
 26
0.0
 36
0.0
 17
0.0
 27
1.0
 37
0.0
 76
     0
330
1F
331
29
  0
MLINESTYLE
  5
18
102
{ACAD_REACTORS
330
17
102
}
330
17
100
AcDbMlineStyle
  2
Standard
 70
     0
  3

 62
   256
 51
90.0
 52
90.0
 71
     2
 49
0.5
 62
   256
  6
BYLAYER
 49
-0.5
 62
   256
  6
BYLAYER
  0
ACDBPLACEHOLDER
  5
F
102
{ACAD_REACTORS
330
E
102
}
330
E
  0
SCALE
  5
48
102
{ACAD_REACTORS
330
47
102
}
330
47
100
AcDbScale
 70
     0
300
1:1
140
1.0
141
1.0
290
     1
  0
SCALE
  5
49
102
{ACAD_REACTORS
330
47
102
}
330
47
100
AcDbScale
 70
     0
300
1:2
140
1.0
141
2.0
290
     0
  0
SCALE
  5
4A
102
{ACAD_REACTORS
330
47
102
}
330
47
100
AcDbScale
 70
     0
300
1:4
140
1.0
141
4.0
290
     0
  0
SCALE
  5
4B
102
{ACAD_REACTORS
330
47
102
}
330
47
100
AcDbScale
 70
     0
300
1:5
140
1.0
141
5.0
290
     0
  0
SCALE
  5
4C
102
{ACAD_REACTORS
330
47
102
}
330
47
100
AcDbScale
 70
     0
300
1:8
140
1.0
141
8.0
290
     0
  0
SCALE
  5
4D
102
{ACAD_REACTORS
330
47
102
}
330
47
100
AcDbScale
 70
     0
300
1:10
140
1.0
141
10.0
290
     0
  0
SCALE
  5
4E
102
{ACAD_REACTORS
330
47
102
}
330
47
100
AcDbScale
 70
     0
300
1:16
140
1.0
141
16.0
290
     0
  0
SCALE
  5
4F
102
{ACAD_REACTORS
330
47
102
}
330
47
100
AcDbScale
 70
     0
300
1:20
140
1.0
141
20.0
290
     0
  0
SCALE
  5
50
102
{ACAD_REACTORS
330
47
102
}
330
47
100
AcDbScale
 70
     0
300
1:30
140
1.0
141
30.0
290
     0
  0
SCALE
  5
51
102
{ACAD_REACTORS
330
47
102
}
330
47
100
AcDbScale
 70
     0
300
1:40
140
1.0
141
40.0
290
     0
  0
SCALE
  5
52
102
{ACAD_REACTORS
330
47
102
}
330
47
100
AcDbScale
 70
     0
300
1:50
140
1.0
141
50.0
290
     0
  0
SCALE
  5
53
102
{ACAD_REACTORS
330
47
102
}
330
47
100
AcDbScale
 70
     0
300
1:100
140
1.0
141
100.0
290
     0
  0
SCALE
  5
54
102
{ACAD_REACTORS
330
47
102
}
330
47
100
AcDbScale
 70
     0
300
2:1
140
2.0
141
1.0
290
     0
  0
SCALE
  5
55
102
{ACAD_REACTORS
330
47
102
}
330
47
100
AcDbScale
 70
     0
300
4:1
140
4.0
141
1.0
290
     0
  0
SCALE
  5
56
102
{ACAD_REACTORS
330
47
102
}
330
47
100
AcDbScale
 70
     0
300
8:1
140
8.0
141
1.0
290
     0
  0
SCALE
  5
57
102
{ACAD_REACTORS
330
47
102
}
330
47
100
AcDbScale
 70
     0
300
10:1
140
10.0
141
1.0
290
     0
  0
SCALE
  5
58
102
{ACAD_REACTORS
330
47
102
}
330
47
100
AcDbScale
 70
     0
300
100:1
140
100.0
141
1.0
290
     0
  0
ENDSEC
  0
EOF
