  0
SECTION
  2
HEADER
  9
$ACADVER
  1
AC1015
  9
$ACADMAINTVER
 70
     6
  9
$DWGCODEPAGE
  3
ANSI_936
  9
$INSBASE
 10
0.0
 20
0.0
 30
0.0
  9
$EXTMIN
 10
0.0
 20
0.0
 30
0.0
  9
$EXTMAX
 10
297.0
 20
210.0
 30
0.0
  9
$LIMMIN
 10
0.0
 20
0.0
  9
$LIMMAX
 10
297.0
 20
210.0
  9
$ORTHOMODE
 70
     0
  9
$REGENMODE
 70
     1
  9
$FILLMODE
 70
     1
  9
$QTEXTMODE
 70
     0
  9
$MIRRTEXT
 70
     1
  9
$LTSCALE
 40
1.0
  9
$ATTMODE
 70
     1
  9
$TEXTSIZE
 40
3.5
  9
$TRACEWID
 40
1.0
  9
$TEXTSTYLE
  7
Standard
  9
$CLAYER
  8
0
  9
$CELTYPE
  6
ByLayer
  9
$CECOLOR
 62
   256
  9
$CELTSCALE
 40
1.0
  9
$DISPSILH
 70
     0
  9
$DIMSCALE
 40
1.0
  9
$DIMASZ
 40
4.08
  9
$DIMEXO
 40
0.0
  9
$DIMDLI
 40
3.75
  9
$DIMRND
 40
0.0
  9
$DIMDLE
 40
0.0
  9
$DIMEXE
 40
2.0
  9
$DIMTP
 40
0.0
  9
$DIMTM
 40
0.0
  9
$DIMTXT
 40
3.5
  9
$DIMCEN
 40
2.5
  9
$DIMTSZ
 40
0.0
  9
$DIMTOL
 70
     0
  9
$DIMLIM
 70
     0
  9
$DIMTIH
 70
     1
  9
$DIMTOH
 70
     1
  9
$DIMSE1
 70
     0
  9
$DIMSE2
 70
     0
  9
$DIMTAD
 70
     1
  9
$DIMZIN
 70
     0
  9
$DIMBLK
  1

  9
$DIMASO
 70
     1
  9
$DIMSHO
 70
     1
  9
$DIMPOST
  1

  9
$DIMAPOST
  1

  9
$DIMALT
 70
     0
  9
$DIMALTD
 70
     3
  9
$DIMALTF
 40
0.0393700787
  9
$DIMLFAC
 40
2.0
  9
$DIMTOFL
 70
     1
  9
$DIMTVP
 40
0.0
  9
$DIMTIX
 70
     0
  9
$DIMSOXD
 70
     0
  9
$DIMSAH
 70
     0
  9
$DIMBLK1
  1

  9
$DIMBLK2
  1

  9
$DIMSTYLE
  2
ISO-25
  9
$DIMCLRD
 70
     0
  9
$DIMCLRE
 70
     0
  9
$DIMCLRT
 70
     0
  9
$DIMTFAC
 40
1.0
  9
$DIMGAP
 40
1.524
  9
$DIMJUST
 70
     0
  9
$DIMSD1
 70
     0
  9
$DIMSD2
 70
     0
  9
$DIMTOLJ
 70
     0
  9
$DIMTZIN
 70
     0
  9
$DIMALTZ
 70
     0
  9
$DIMALTTZ
 70
     0
  9
$DIMUPT
 70
     0
  9
$DIMDEC
 70
     2
  9
$DIMTDEC
 70
     2
  9
$DIMALTU
 70
     2
  9
$DIMALTTD
 70
     3
  9
$DIMTXSTY
  7
Standard
  9
$DIMAUNIT
 70
     0
  9
$DIMADEC
 70
     2
  9
$DIMALTRND
 40
0.0
  9
$DIMAZIN
 70
     0
  9
$DIMDSEP
 70
    44
  9
$DIMATFIT
 70
     3
  9
$DIMFRAC
 70
     0
  9
$DIMLDRBLK
  1

  9
$DIMLUNIT
 70
     2
  9
$DIMLWD
 70
    -2
  9
$DIMLWE
 70
    -2
  9
$DIMTMOVE
 70
     0
  9
$LUNITS
 70
     2
  9
$LUPREC
 70
     2
  9
$SKETCHINC
 40
1.0
  9
$FILLETRAD
 40
0.0
  9
$AUNITS
 70
     0
  9
$AUPREC
 70
     2
  9
$MENU
  1
.
  9
$ELEVATION
 40
0.0
  9
$PELEVATION
 40
0.0
  9
$THICKNESS
 40
0.0
  9
$LIMCHECK
 70
     0
  9
$CHAMFERA
 40
0.0
  9
$CHAMFERB
 40
0.0
  9
$CHAMFERC
 40
0.0
  9
$CHAMFERD
 40
0.0
  9
$SKPOLY
 70
     0
  9
$TDCREATE
 40
2461215.800449746
  9
$TDUCREATE
 40
2461215.467116412
  9
$TDUPDATE
 40
2461215.800450289
  9
$TDUUPDATE
 40
2461215.467116956
  9
$TDINDWG
 40
0.0000000116
  9
$TDUSRTIMER
 40
0.0000000116
  9
$USRTIMER
 70
     1
  9
$ANGBASE
 50
0.0
  9
$ANGDIR
 70
     0
  9
$PDMODE
 70
     0
  9
$PDSIZE
 40
-1.0
  9
$PLINEWID
 40
0.0
  9
$SPLFRAME
 70
     0
  9
$SPLINETYPE
 70
     6
  9
$SPLINESEGS
 70
     8
  9
$HANDSEED
  5
153
  9
$SURFTAB1
 70
     6
  9
$SURFTAB2
 70
     6
  9
$SURFTYPE
 70
     6
  9
$SURFU
 70
     6
  9
$SURFV
 70
     6
  9
$UCSBASE
  2

  9
$UCSNAME
  2

  9
$UCSORG
 10
0.0
 20
0.0
 30
0.0
  9
$UCSXDIR
 10
1.0
 20
0.0
 30
0.0
  9
$UCSYDIR
 10
0.0
 20
1.0
 30
0.0
  9
$UCSORTHOREF
  2

  9
$UCSORTHOVIEW
 70
     0
  9
$UCSORGTOP
 10
0.0
 20
0.0
 30
0.0
  9
$UCSORGBOTTOM
 10
0.0
 20
0.0
 30
0.0
  9
$UCSORGLEFT
 10
0.0
 20
0.0
 30
0.0
  9
$UCSORGRIGHT
 10
0.0
 20
0.0
 30
0.0
  9
$UCSORGFRONT
 10
0.0
 20
0.0
 30
0.0
  9
$UCSORGBACK
 10
0.0
 20
0.0
 30
0.0
  9
$PUCSBASE
  2

  9
$PUCSNAME
  2

  9
$PUCSORG
 10
0.0
 20
0.0
 30
0.0
  9
$PUCSXDIR
 10
1.0
 20
0.0
 30
0.0
  9
$PUCSYDIR
 10
0.0
 20
1.0
 30
0.0
  9
$PUCSORTHOREF
  2

  9
$PUCSORTHOVIEW
 70
     0
  9
$PUCSORGTOP
 10
0.0
 20
0.0
 30
0.0
  9
$PUCSORGBOTTOM
 10
0.0
 20
0.0
 30
0.0
  9
$PUCSORGLEFT
 10
0.0
 20
0.0
 30
0.0
  9
$PUCSORGRIGHT
 10
0.0
 20
0.0
 30
0.0
  9
$PUCSORGFRONT
 10
0.0
 20
0.0
 30
0.0
  9
$PUCSORGBACK
 10
0.0
 20
0.0
 30
0.0
  9
$USERI1
 70
     0
  9
$USERI2
 70
     0
  9
$USERI3
 70
     0
  9
$USERI4
 70
     0
  9
$USERI5
 70
     0
  9
$USERR1
 40
0.0
  9
$USERR2
 40
0.0
  9
$USERR3
 40
0.0
  9
$USERR4
 40
0.0
  9
$USERR5
 40
0.0
  9
$WORLDVIEW
 70
     1
  9
$SHADEDGE
 70
     3
  9
$SHADEDIF
 70
    70
  9
$TILEMODE
 70
     1
  9
$MAXACTVP
 70
    64
  9
$PINSBASE
 10
0.0
 20
0.0
 30
0.0
  9
$PLIMCHECK
 70
     0
  9
$PEXTMIN
 10
1.0000000000E+20
 20
1.0000000000E+20
 30
1.0000000000E+20
  9
$PEXTMAX
 10
-1.0000000000E+20
 20
-1.0000000000E+20
 30
-1.0000000000E+20
  9
$PLIMMIN
 10
0.0
 20
0.0
  9
$PLIMMAX
 10
420.0
 20
297.0
  9
$UNITMODE
 70
     0
  9
$VISRETAIN
 70
     1
  9
$PLINEGEN
 70
     0
  9
$PSLTSCALE
 70
     1
  9
$TREEDEPTH
 70
  3020
  9
$CMLSTYLE
  2
Standard
  9
$CMLJUST
 70
     0
  9
$CMLSCALE
 40
20.0
  9
$PROXYGRAPHICS
 70
     1
  9
$MEASUREMENT
 70
     1
  9
$CELWEIGHT
370
    -1
  9
$ENDCAPS
280
     0
  9
$JOINSTYLE
280
     0
  9
$LWDISPLAY
290
     1
  9
$INSUNITS
 70
     4
  9
$HYPERLINKBASE
  1

  9
$STYLESHEET
  1

  9
$XEDIT
290
     1
  9
$CEPSNTYPE
380
     0
  9
$PSTYLEMODE
290
     1
  9
$FINGERPRINTGUID
  2
{230669ab-057b-4574-b7fc-4edba578b883}
  9
$VERSIONGUID
  2
{FAEB1C32-E019-11D5-929B-00C0DF256EC4}
  9
$EXTNAMES
290
     1
  9
$PSVPSCALE
 40
0.0
  9
$OLESTARTUP
290
     0
  0
ENDSEC
  0
SECTION
  2
CLASSES
  0
CLASS
  1
ACDBDICTIONARYWDFLT
  2
AcDbDictionaryWithDefault
  3
ObjectDBX Classes
 90
        0
280
     0
281
     0
  0
CLASS
  1
VISUALSTYLE
  2
AcDbVisualStyle
  3
ObjectDBX Classes
 90
     4095
280
     0
281
     0
  0
CLASS
  1
MATERIAL
  2
AcDbMaterial
  3
ObjectDBX Classes
 90
     1153
280
     0
281
     0
  0
CLASS
  1
SCALE
  2
AcDbScale
  3
ObjectDBX Classes
 90
     1153
280
     0
281
     0
  0
CLASS
  1
TABLESTYLE
  2
AcDbTableStyle
  3
ObjectDBX Classes
 90
     4095
280
     0
281
     0
  0
CLASS
  1
MLEADERSTYLE
  2
AcDbMLeaderStyle
  3
ACDB_MLEADERSTYLE_CLASS
 90
     4095
280
     0
281
     0
  0
CLASS
  1
SUN
  2
AcDbSun
  3
SCENEOE
 90
     1153
280
     0
281
     0
  0
CLASS
  1
ACDBPLACEHOLDER
  2
AcDbPlaceHolder
  3
ObjectDBX Classes
 90
        0
280
     0
281
     0
  0
CLASS
  1
LAYOUT
  2
AcDbLayout
  3
ObjectDBX Classes
 90
        0
280
     0
281
     0
  0
ENDSEC
  0
SECTION
  2
TABLES
  0
TABLE
  2
VPORT
  5
8
330
0
100
AcDbSymbolTable
 70
     1
  0
VPORT
  5
29
330
8
100
AcDbSymbolTableRecord
100
AcDbViewportTableRecord
  2
*Active
 70
     0
 10
0.0
 20
0.0
 11
1.0
 21
1.0
 12
148.5
 22
105.0
 13
0.0
 23
0.0
 14
10.0
 24
10.0
 15
10.0
 25
10.0
 16
0.0
 26
0.0
 36
1.0
 17
0.0
 27
0.0
 37
0.0
 40
210.0
 41
1.4142857143
 42
50.0
 43
0.0
 44
0.0
 50
0.0
 51
0.0
 71
     0
 72
  2000
 73
     1
 74
     3
 75
     0
 76
     0
 77
     0
 78
     0
281
     0
 65
     1
110
0.0
120
0.0
130
0.0
111
1.0
121
0.0
131
0.0
112
0.0
122
1.0
132
0.0
 79
     0
146
0.0
  0
ENDTAB
  0
TABLE
  2
LTYPE
  5
5
330
0
100
AcDbSymbolTable
 70
     6
  0
LTYPE
  5
14
330
5
100
AcDbSymbolTableRecord
100
AcDbLinetypeTableRecord
  2
ByBlock
 70
     0
  3

 72
    65
 73
     0
 40
0.0
  0
LTYPE
  5
15
330
5
100
AcDbSymbolTableRecord
100
AcDbLinetypeTableRecord
  2
ByLayer
 70
     0
  3

 72
    65
 73
     0
 40
0.0
  0
LTYPE
  5
16
330
5
100
AcDbSymbolTableRecord
100
AcDbLinetypeTableRecord
  2
Continuous
 70
     0
  3
Solid line
 72
    65
 73
     0
 40
0.0
  0
LTYPE
  5
5E
330
5
100
AcDbSymbolTableRecord
100
AcDbLinetypeTableRecord
  2
HIDDEN
 70
     0
  3
Hidden __ __ __ __ __ __ __ __ __ __ __ __ __ __
 72
    65
 73
     2
 40
1.905
 49
1.27
 74
     0
 49
-0.635
 74
     0
  0
LTYPE
  5
5F
330
5
100
AcDbSymbolTableRecord
100
AcDbLinetypeTableRecord
  2
PHANTOM
 70
     0
  3
Phantom ______  __  __  ______  __  __  ______
 72
    65
 73
     6
 40
12.7
 49
6.35
 74
     0
 49
-1.27
 74
     0
 49
1.27
 74
     0
 49
-1.27
 74
     0
 49
1.27
 74
     0
 49
-1.27
 74
     0
  0
LTYPE
  5
60
330
5
100
AcDbSymbolTableRecord
100
AcDbLinetypeTableRecord
  2
CENTER
 70
     0
  3
Center ____ _ ____ _ ____ _ ____ _ ____ _ ____
 72
    65
 73
     4
 40
10.16
 49
6.35
 74
     0
 49
-1.27
 74
     0
 49
1.27
 74
     0
 49
-1.27
 74
     0
  0
LTYPE
  5
61
330
5
100
AcDbSymbolTableRecord
100
AcDbLinetypeTableRecord
  2
CENTERX2
 70
     0
  3
Center (2x) ________  __  ________  __  _____
 72
    65
 73
     4
 40
20.32
 49
12.7
 74
     0
 49
-2.54
 74
     0
 49
2.54
 74
     0
 49
-2.54
 74
     0
  0
LTYPE
  5
62
330
5
100
AcDbSymbolTableRecord
100
AcDbLinetypeTableRecord
  2
DOT2
 70
     0
  3
Dot (.5x) ........................................
 72
    65
 73
     2
 40
0.635
 49
0.0
 74
     0
 49
-0.635
 74
     0
  0
ENDTAB
  0
TABLE
  2
LAYER
  5
2
330
0
100
AcDbSymbolTable
 70
    14
  0
LAYER
  5
10
330
2
100
AcDbSymbolTableRecord
100
AcDbLayerTableRecord
  2
0
 70
     0
 62
     7
  6
Continuous
370
    -3
390
F
  0
LAYER
  5
63
330
2
100
AcDbSymbolTableRecord
100
AcDbLayerTableRecord
  2
SLD-0
 70
     0
 62
     7
  6
Continuous
370
    -3
390
F
  0
LAYER
  5
64
330
2
100
AcDbSymbolTableRecord
100
AcDbLayerTableRecord
  2
5
 70
     0
 62
     7
  6
Continuous
370
    -3
390
F
  0
LAYER
  5
65
330
2
100
AcDbSymbolTableRecord
100
AcDbLayerTableRecord
  2
9
 70
     0
 62
     7
  6
Continuous
370
    -3
390
F
  0
LAYER
  5
66
330
2
100
AcDbSymbolTableRecord
100
AcDbLayerTableRecord
  2
10
 70
     0
 62
     7
  6
Continuous
370
    -3
390
F
  0
LAYER
  5
67
330
2
100
AcDbSymbolTableRecord
100
AcDbLayerTableRecord
  2
轮廓实线层
 70
     0
 62
     7
  6
Continuous
370
    50
390
F
  0
LAYER
  5
68
330
2
100
AcDbSymbolTableRecord
100
AcDbLayerTableRecord
  2
细线层
 70
     0
 62
     4
  6
Continuous
370
    25
390
F
  0
LAYER
  5
69
330
2
100
AcDbSymbolTableRecord
100
AcDbLayerTableRecord
  2
中心线层
 70
     0
 62
     1
  6
CENTERX2
370
    25
390
F
  0
LAYER
  5
6A
330
2
100
AcDbSymbolTableRecord
100
AcDbLayerTableRecord
  2
虚线层
 70
     0
 62
     6
  6
HIDDEN
370
    25
390
F
  0
LAYER
  5
6B
330
2
100
AcDbSymbolTableRecord
100
AcDbLayerTableRecord
  2
剖面线层
 70
     0
 62
     2
  6
Continuous
370
    25
390
F
  0
LAYER
  5
6C
330
2
100
AcDbSymbolTableRecord
100
AcDbLayerTableRecord
  2
文字层
 70
     0
 62
     3
  6
Continuous
370
    25
390
F
  0
LAYER
  5
6D
330
2
100
AcDbSymbolTableRecord
100
AcDbLayerTableRecord
  2
标注层
 70
     0
 62
     4
  6
Continuous
370
    25
390
F
  0
LAYER
  5
6E
330
2
100
AcDbSymbolTableRecord
100
AcDbLayerTableRecord
  2
符号标注层
 70
     0
 62
    31
  6
Continuous
370
    25
390
F
  0
LAYER
  5
6F
330
2
100
AcDbSymbolTableRecord
100
AcDbLayerTableRecord
  2
双点划线层
 70
     0
 62
     6
  6
PHANTOM
370
    25
390
F
  0
ENDTAB
  0
TABLE
  2
STYLE
  5
3
330
0
100
AcDbSymbolTable
 70
     1
  0
STYLE
  5
11
330
3
100
AcDbSymbolTableRecord
100
AcDbTextStyleTableRecord
  2
Standard
 70
     0
 40
0.0
 41
1.0
 50
0.0
 71
     0
 42
3.5
  3
txt
  4

  0
ENDTAB
  0
TABLE
  2
VIEW
  5
6
330
0
100
AcDbSymbolTable
 70
     0
  0
ENDTAB
  0
TABLE
  2
UCS
  5
7
330
0
100
AcDbSymbolTable
 70
     0
  0
ENDTAB
  0
TABLE
  2
APPID
  5
9
330
0
100
AcDbSymbolTable
 70
     1
  0
APPID
  5
12
330
9
100
AcDbSymbolTableRecord
100
AcDbRegAppTableRecord
  2
ACAD
 70
     0
  0
ENDTAB
  0
TABLE
  2
DIMSTYLE
  5
A
330
0
100
AcDbSymbolTable
 70
     1
100
AcDbDimStyleTable
  0
DIMSTYLE
105
27
330
A
100
AcDbSymbolTableRecord
100
AcDbDimStyleTableRecord
  2
ISO-25
 70
     0
 41
2.5
 42
0.625
 43
3.75
 44
1.25
 73
     0
 74
     0
 77
     1
 78
     8
140
2.5
141
2.5
143
0.0393700787
147
0.625
171
     3
172
     1
178
     0
271
     2
272
     2
274
     3
278
    44
283
     0
284
     8
340
11
  0
ENDTAB
  0
TABLE
  2
BLOCK_RECORD
  5
1
330
0
100
AcDbSymbolTable
 70
     1
  0
BLOCK_RECORD
  5
1F
330
1
100
AcDbSymbolTableRecord
100
AcDbBlockTableRecord
  2
*Model_Space
340
22
  0
BLOCK_RECORD
  5
1B
330
1
100
AcDbSymbolTableRecord
100
AcDbBlockTableRecord
  2
*Paper_Space
340
1E
  0
BLOCK_RECORD
  5
23
330
1
100
AcDbSymbolTableRecord
100
AcDbBlockTableRecord
  2
*Paper_Space0
340
26
  0
ENDTAB
  0
ENDSEC
  0
SECTION
  2
BLOCKS
  0
BLOCK
  5
20
330
1F
100
AcDbEntity
  8
0
100
AcDbBlockBegin
  2
*Model_Space
 70
     0
 10
0.0
 20
0.0
 30
0.0
  3
*Model_Space
  1

  0
ENDBLK
  5
21
330
1F
100
AcDbEntity
  8
0
100
AcDbBlockEnd
  0
BLOCK
  5
1C
330
1B
100
AcDbEntity
 67
     1
  8
0
100
AcDbBlockBegin
  2
*Paper_Space
 70
     0
 10
0.0
 20
0.0
 30
0.0
  3
*Paper_Space
  1

  0
ENDBLK
  5
1D
330
1B
100
AcDbEntity
 67
     1
  8
0
100
AcDbBlockEnd
  0
BLOCK
  5
24
330
23
100
AcDbEntity
  8
0
100
AcDbBlockBegin
  2
*Paper_Space0
 70
     0
 10
0.0
 20
0.0
 30
0.0
  3
*Paper_Space0
  1

  0
ENDBLK
  5
25
330
23
100
AcDbEntity
  8
0
100
AcDbBlockEnd
  0
ENDSEC
  0
SECTION
  2
ENTITIES
  0
LINE
  5
70
330
1F
100
AcDbEntity
  8
0
  6
Continuous
 62
     7
370
    25
100
AcDbLine
 10
64.5838097654
 20
63.0773126015
 30
0.0
 11
69.7878865719
 21
63.0773126015
 31
0.0
  0
LINE
  5
71
330
1F
100
AcDbEntity
  8
0
  6
Continuous
 62
     7
370
    25
100
AcDbLine
 10
96.2121134281
 20
63.0773126015
 30
0.0
 11
101.4161902346
 21
63.0773126015
 31
0.0
  0
LINE
  5
72
330
1F
100
AcDbEntity
  8
0
  6
Continuous
 62
     7
370
    25
100
AcDbLine
 10
69.7878865719
 20
63.0773085587
 30
0.0
 11
83.0
 21
63.0773085587
 31
0.0
  0
LINE
  5
73
330
1F
100
AcDbEntity
  8
0
  6
Continuous
 62
     7
370
    25
100
AcDbLine
 10
83.0
 20
63.0773085587
 30
0.0
 11
96.2121134281
 21
63.0773085587
 31
0.0
  0
SPLINE
  5
74
330
1F
100
AcDbEntity
  8
0
  6
Continuous
 62
     7
370
    25
100
AcDbSpline
210
0.0
220
0.0
230
1.0
 70
     8
 71
     3
 72
    11
 73
     7
 74
     0
 42
0.00000001
 43
0.00000001
 40
0.0
 40
0.0
 40
0.0
 40
0.0
 40
0.2673950653812703
 40
0.5212552815386541
 40
0.764212553282204
 40
1.0
 40
1.0
 40
1.0
 40
1.0
 10
61.44098713258168
 20
62.7635364622966
 30
0.0
 10
61.69807191196907
 20
62.80189899644234
 30
0.0
 10
62.19922850163087
 20
62.87668225210253
 30
0.0
 10
62.99602718442019
 20
62.98090146414563
 30
0.0
 10
63.79158438616163
 20
63.05972162865058
 30
0.0
 10
64.32238444614869
 20
63.07150920092547
 30
0.0
 10
64.58380976539657
 20
63.07731471994743
 30
0.0
  0
SPLINE
  5
75
330
1F
100
AcDbEntity
  8
0
  6
Continuous
 62
     7
370
    25
100
AcDbSpline
210
0.0
220
0.0
230
1.0
 70
     8
 71
     3
 72
    11
 73
     7
 74
     0
 42
0.00000001
 43
0.00000001
 40
0.0
 40
0.0
 40
0.0
 40
0.0
 40
0.2357874467178174
 40
0.4787447184613145
 40
0.7326049346186579
 40
1.0
 40
1.0
 40
1.0
 40
1.0
 10
101.4161902346033
 20
63.07731471994453
 30
0.0
 10
101.677615553851
 20
63.07150920092263
 30
0.0
 10
102.2084156138374
 20
63.05972162864791
 30
0.0
 10
103.0039728155783
 20
62.98090146414359
 30
0.0
 10
103.8007714983671
 20
62.87668225210111
 30
0.0
 10
104.3019280880287
 20
62.80189899644113
 30
0.0
 10
104.559012867416
 20
62.76353646229549
 30
0.0
  0
SPLINE
  5
76
330
1F
100
AcDbEntity
  8
0
  6
Continuous
 62
     7
370
    25
100
AcDbSpline
210
0.0
220
0.0
230
1.0
 70
     8
 71
     3
 72
     9
 73
     5
 74
     0
 42
0.00000001
 43
0.00000001
 40
0.0
 40
0.0
 40
0.0
 40
0.0
 40
0.5105722534887599
 40
1.0
 40
1.0
 40
1.0
 40
1.0
 10
112.0460466732228
 20
97.49605167251457
 30
0.0
 10
111.7663291474842
 20
97.7734392737759
 30
0.0
 10
111.2184781355512
 20
98.31672692672991
 30
0.0
 10
110.434546702041
 20
98.69527195454872
 30
0.0
 10
110.0508689071187
 20
98.88054239446711
 30
0.0
  0
SPLINE
  5
77
330
1F
100
AcDbEntity
  8
0
  6
Continuous
 62
     7
370
    25
100
AcDbSpline
210
0.0
220
0.0
230
1.0
 70
     8
 71
     3
 72
     9
 73
     5
 74
     0
 42
0.00000001
 43
0.00000001
 40
0.0
 40
0.0
 40
0.0
 40
0.0
 40
0.4894277465114037
 40
1.0
 40
1.0
 40
1.0
 40
1.0
 10
113.4305373951909
 20
95.50087390637307
 30
0.0
 10
113.2452669552717
 20
95.88455170130261
 30
0.0
 10
112.8667219274513
 20
96.66848313482754
 30
0.0
 10
112.3234342744886
 20
97.21633414677073
 30
0.0
 10
112.0460466732228
 20
97.49605167251457
 30
0.0
  0
SPLINE
  5
78
330
1F
100
AcDbEntity
  8
0
  6
Continuous
 62
     7
370
    25
100
AcDbSpline
210
0.0
220
0.0
230
1.0
 70
     8
 71
     3
 72
    14
 73
    10
 74
     0
 42
0.00000001
 43
0.00000001
 40
0.0
 40
0.0
 40
0.0
 40
0.0
 40
0.0006048565920109
 40
0.1419802910157683
 40
0.2485846318327202
 40
0.3810440977486853
 40
0.5489705056575966
 40
0.7544048139085953
 40
1.0
 40
1.0
 40
1.0
 40
1.0
 10
58.53027262811385
 20
61.80633225825897
 30
0.0
 10
58.53030394054458
 20
61.80623376260854
 30
0.0
 10
58.53765402664213
 20
61.78311350353147
 30
0.0
 10
58.55601518357388
 20
61.81290783923068
 30
0.0
 10
58.74858165142251
 20
61.94504710830628
 30
0.0
 10
59.06898080460386
 20
62.1244189241017
 30
0.0
 10
59.58682743137528
 20
62.33842743353289
 30
0.0
 10
60.36417919586548
 20
62.57576724228878
 30
0.0
 10
61.0612684698477
 20
62.69746001200151
 30
0.0
 10
61.44084845766115
 20
62.7637243224257
 30
0.0
  0
SPLINE
  5
79
330
1F
100
AcDbEntity
  8
0
  6
Continuous
 62
     7
370
    25
100
AcDbSpline
210
0.0
220
0.0
230
1.0
 70
     8
 71
     3
 72
    14
 73
    10
 74
     0
 42
0.00000001
 43
0.00000001
 40
0.0
 40
0.0
 40
0.0
 40
0.0
 40
0.2458720866909875
 40
0.451489353842122
 40
0.6193437515034432
 40
0.7516608703310117
 40
0.8581570846058291
 40
0.9994994894098511
 40
1.0
 40
1.0
 40
1.0
 40
1.0
 10
104.5591141108511
 20
62.76598947438805
 30
0.0
 10
104.9389135486062
 20
62.70013201559711
 30
0.0
 10
105.6363306692292
 20
62.5791994529977
 30
0.0
 10
106.4152131651479
 20
62.34337693711385
 30
0.0
 10
106.9327511783094
 20
62.12870385654114
 30
0.0
 10
107.2504483568778
 20
61.94713232396283
 30
0.0
 10
107.4410034486169
 20
61.811924791701
 30
0.0
 10
107.4596981137053
 20
61.78213659786655
 30
0.0
 10
107.4667430660268
 20
61.80504598859179
 30
0.0
 10
107.4667679250283
 20
61.80512682726209
 30
0.0
  0
SPLINE
  5
7A
330
1F
100
AcDbEntity
  8
0
  6
Continuous
 62
     7
370
    25
100
AcDbSpline
210
0.0
220
0.0
230
1.0
 70
     8
 71
     3
 72
    36
 73
    32
 74
     0
 42
0.00000001
 43
0.00000001
 40
0.0
 40
0.0
 40
0.0
 40
0.0
 40
0.0355405363979128
 40
0.0700590506082667
 40
0.1035587848414928
 40
0.1360417887918776
 40
0.1675092452116394
 40
0.1979617341772437
 40
0.227399444470764
 40
0.2558223398381148
 40
0.2832302872103689
 40
0.3096231533121913
 40
0.3350008754526755
 40
0.3593635117132263
 40
0.3827112752261565
 40
0.4050445567871726
 40
0.4263639396772643
 40
0.4466702103014509
 40
0.4659643681080303
 40
0.4842476382711279
 40
0.5015214908624511
 40
0.5606658904516997
 40
0.6175719634360528
 40
0.6723031822733188
 40
0.7249217424609882
 40
0.7754874680095893
 40
0.8240626757926249
 40
0.8707160212643084
 40
0.9155260882339388
 40
0.9585847136700301
 40
1.0
 40
1.0
 40
1.0
 40
1.0
 10
58.33891759764428
 20
68.76400891133456
 30
0.0
 10
58.25612561123856
 20
68.68112719316778
 30
0.0
 10
58.09292244793744
 20
68.51774714671788
 30
0.0
 10
57.85232552141653
 20
68.27601111682168
 30
0.0
 10
57.61936078527907
 20
68.0416359645554
 30
0.0
 10
57.39406731264111
 20
67.81481474771668
 30
0.0
 10
57.17643389260041
 20
67.59574295554211
 30
0.0
 10
56.96646239685872
 20
67.38455891663962
 30
0.0
 10
56.76415153119689
 20
67.1813633441175
 30
0.0
 10
56.56950095603452
 20
66.98621850784123
 30
0.0
 10
56.38251020629407
 20
66.79915248409866
 30
0.0
 10
56.20317893698886
 20
66.62016198623782
 30
0.0
 10
56.03150684253073
 20
66.44921542561107
 30
0.0
 10
55.86749362608465
 20
66.28625581070695
 30
0.0
 10
55.71113907650436
 20
66.13120348819959
 30
0.0
 10
55.56244269884307
 20
65.98395906174541
 30
0.0
 10
55.42140491995833
 20
65.84440522686813
 30
0.0
 10
55.28802279984739
 20
65.71241193950948
 30
0.0
 10
55.16230479974733
 20
65.58782957045433
 30
0.0
 10
55.04421963982942
 20
65.47052315668893
 30
0.0
 10
54.84257139227202
 20
65.26903761440683
 30
0.0
 10
54.56453383234145
 20
64.98957692702531
 30
0.0
 10
54.22034018669021
 20
64.64348049232655
 30
0.0
 10
53.9024164133884
 20
64.32411519250122
 30
0.0
 10
53.61069414804894
 20
64.03164182197705
 30
0.0
 10
53.34516260306023
 20
63.76604593683687
 30
0.0
 10
53.10586057664016
 20
63.52729689954552
 30
0.0
 10
52.89260471600618
 20
63.31505317039453
 30
0.0
 10
52.70602647600754
 20
63.1296652565354
 30
0.0
 10
52.54390956509302
 20
62.96868836035571
 30
0.0
 10
52.45573357310764
 20
62.88072207384526
 30
0.0
 10
52.41250325644353
 20
62.83759457013378
 30
0.0
  0
SPLINE
  5
7B
330
1F
100
AcDbEntity
  8
0
  6
Continuous
 62
     7
370
    25
100
AcDbSpline
210
0.0
220
0.0
230
1.0
 70
     8
 71
     3
 72
    10
 73
     6
 74
     0
 42
0.00000001
 43
0.00000001
 40
0.0
 40
0.0
 40
0.0
 40
0.0
 40
0.5
 40
0.5
 40
1.0
 40
1.0
 40
1.0
 40
1.0
 10
52.41216018115831
 20
62.84105630885392
 30
0.0
 10
52.3060014978302
 20
62.73512458845103
 30
0.0
 10
52.22655016812715
 20
62.62253691214922
 30
0.0
 10
52.1201516780434
 20
62.38344464657893
 30
0.0
 10
52.09393921237603
 20
62.25742686207671
 30
0.0
 10
52.09402564544319
 20
62.12854065018385
 30
0.0
  0
LINE
  5
7C
330
1F
100
AcDbEntity
  8
0
  6
Continuous
 62
     7
370
    25
100
AcDbLine
 10
52.0940254299
 20
62.1243526855
 30
0.0
 11
52.0940254299
 21
86.8671382838
 31
0.0
  0
SPLINE
  5
7D
330
1F
100
AcDbEntity
  8
0
  6
Continuous
 62
     7
370
    25
100
AcDbSpline
210
0.0
220
0.0
230
1.0
 70
     8
 71
     3
 72
    34
 73
    30
 74
     0
 42
0.00000001
 43
0.00000001
 40
0.0
 40
0.0
 40
0.0
 40
0.0
 40
0.0373892753444868
 40
0.0736560129505358
 40
0.1088004347837572
 40
0.1428227855113149
 40
0.1757233355717882
 40
0.2075023847848928
 40
0.2381602666188666
 40
0.2676973532643683
 40
0.2961140617044793
 40
0.3234108610243295
 40
0.3495882812760769
 40
0.3746469243125697
 40
0.398587477136597
 40
0.4214107284976958
 40
0.4431175897283703
 40
0.4637091211819827
 40
0.4831865661709192
 40
0.5015513950939439
 40
0.5878911459906846
 40
0.6679974017558162
 40
0.720793099741065
 40
0.7716626551497826
 40
0.8206792373634874
 40
0.8679246261276183
 40
0.913490139293279
 40
0.957477558665027
 40
1.0
 40
1.0
 40
1.0
 40
1.0
 10
107.6610824023557
 20
68.76400891133457
 30
0.0
 10
107.7483025934783
 20
68.67690178526578
 30
0.0
 10
107.9201243650339
 20
68.505302749267
 30
0.0
 10
108.1742556186007
 20
68.25259687073131
 30
0.0
 10
108.4202930214134
 20
68.00830988961796
 30
0.0
 10
108.6579889759532
 20
67.77249212534254
 30
0.0
 10
108.8870970465862
 20
67.54513061332457
 30
0.0
 10
109.1074464832531
 20
67.32622853321669
 30
0.0
 10
109.3189171059871
 20
67.1157849284983
 30
0.0
 10
109.5214396666673
 20
66.9137998724158
 30
0.0
 10
109.7149898097215
 20
66.72027314559519
 30
0.0
 10
109.8995837997473
 20
66.53520457637813
 30
0.0
 10
110.0752739340838
 20
66.35859390926105
 30
0.0
 10
110.2421443258151
 20
66.19044095939097
 30
0.0
 10
110.4003064479569
 20
66.03074510213231
 30
0.0
 10
110.5498962037254
 20
65.87950698196168
 30
0.0
 10
110.6910665474646
 20
65.73672251529462
 30
0.0
 10
110.8239963755319
 20
65.60240354951539
 30
0.0
 10
110.9488441905909
 20
65.47650654585254
 30
0.0
 10
111.2126603386637
 20
65.21205648510912
 30
0.0
 10
111.5966647473064
 20
64.82868602432947
 30
0.0
 10
112.0283214643108
 20
64.39657599994999
 30
0.0
 10
112.3703347497276
 20
64.05491963272198
 30
0.0
 10
112.6393616212409
 20
63.78642404511633
 30
0.0
 10
112.8820893460723
 20
63.54403790865936
 30
0.0
 10
113.098530952494
 20
63.32759512318157
 30
0.0
 10
113.288076447935
 20
63.13773016498353
 30
0.0
 10
113.4530580731989
 20
62.97222215300138
 30
0.0
 10
113.5431926399872
 20
62.88196092959551
 30
0.0
 10
113.5874967435564
 20
62.83759457013378
 30
0.0
  0
SPLINE
  5
7E
330
1F
100
AcDbEntity
  8
0
  6
Continuous
 62
     7
370
    25
100
AcDbSpline
210
0.0
220
0.0
230
1.0
 70
     8
 71
     3
 72
    10
 73
     6
 74
     0
 42
0.00000001
 43
0.00000001
 40
0.0
 40
0.0
 40
0.0
 40
0.0
 40
0.5
 40
0.5
 40
1.0
 40
1.0
 40
1.0
 40
1.0
 10
113.5878398188417
 20
62.84105630885391
 30
0.0
 10
113.6939985021698
 20
62.73512458845103
 30
0.0
 10
113.7734498318729
 20
62.62253691214922
 30
0.0
 10
113.8798483219566
 20
62.38344464657893
 30
0.0
 10
113.906060787624
 20
62.25742686207671
 30
0.0
 10
113.9059743545568
 20
62.12854065018384
 30
0.0
  0
LINE
  5
7F
330
1F
100
AcDbEntity
  8
0
  6
Continuous
 62
     7
370
    25
100
AcDbLine
 10
113.9059745701
 20
62.1243526855
 30
0.0
 11
113.9059745701
 21
86.8671382838
 31
0.0
  0
LINE
  5
80
330
1F
100
AcDbEntity
  8
0
  6
Continuous
 62
     7
370
    25
100
AcDbLine
 10
64.5828667155
 20
99.3559795694
 30
0.0
 11
101.4171332845
 21
99.3559795694
 31
0.0
  0
LINE
  5
81
330
1F
100
AcDbEntity
  8
0
  6
Continuous
 62
     7
370
    25
100
AcDbLine
 10
52.0940254299
 20
86.8671382838
 30
0.0
 11
52.0940254299
 21
91.2822770464
 31
0.0
  0
LINE
  5
82
330
1F
100
AcDbEntity
  8
0
  6
Continuous
 62
     7
370
    25
100
AcDbLine
 10
105.8322720471
 20
99.3559795694
 30
0.0
 11
101.4171332845
 21
99.3559795694
 31
0.0
  0
LINE
  5
83
330
1F
100
AcDbEntity
  8
0
  6
Continuous
 62
     7
370
    25
100
AcDbLine
 10
60.1677279529
 20
99.3559795694
 30
0.0
 11
64.5828667155
 21
99.3559795694
 31
0.0
  0
LINE
  5
84
330
1F
100
AcDbEntity
  8
0
  6
Continuous
 62
     7
370
    25
100
AcDbLine
 10
113.9059745701
 20
86.8671382838
 30
0.0
 11
113.9059745701
 21
91.2822770464
 31
0.0
  0
LINE
  5
85
330
1F
100
AcDbEntity
  8
0
  6
Continuous
 62
     7
370
    25
100
AcDbLine
 10
52.0940254299
 20
91.2822770464
 30
0.0
 11
52.0940254299
 21
93.1110874016
 31
0.0
  0
SPLINE
  5
86
330
1F
100
AcDbEntity
  8
0
  6
Continuous
 62
     7
370
    25
100
AcDbSpline
210
0.0
220
0.0
230
1.0
 70
     8
 71
     3
 72
    10
 73
     6
 74
     0
 42
0.00000001
 43
0.00000001
 40
0.0
 40
0.0
 40
0.0
 40
0.0
 40
0.333333333333333
 40
0.6666666666666671
 40
1.0
 40
1.0
 40
1.0
 40
1.0
 10
53.923111998048
 20
97.5268930012437
 30
0.0
 10
53.5377602638465
 20
97.14154126704224
 30
0.0
 10
52.86855431139558
 20
96.26941249281526
 30
0.0
 10
52.23751353323235
 20
94.74594528777314
 30
0.0
 10
52.09402542989204
 20
93.65605705044845
 30
0.0
 10
52.09402542989204
 20
93.11108740164728
 30
0.0
  0
LINE
  5
87
330
1F
100
AcDbEntity
  8
0
  6
Continuous
 62
     7
370
    25
100
AcDbLine
 10
107.6610824024
 20
99.3559795694
 30
0.0
 11
105.8322720471
 21
99.3559795694
 31
0.0
  0
SPLINE
  5
88
330
1F
100
AcDbEntity
  8
0
  6
Continuous
 62
     7
370
    25
100
AcDbSpline
210
0.0
220
0.0
230
1.0
 70
     8
 71
     3
 72
    10
 73
     6
 74
     0
 42
0.00000001
 43
0.00000001
 40
0.0
 40
0.0
 40
0.0
 40
0.0
 40
0.5
 40
0.5
 40
1.0
 40
1.0
 40
1.0
 40
1.0
 10
107.6610824023557
 20
99.35597956939957
 30
0.0
 10
108.4785368755503
 20
99.35597956939957
 30
0.0
 10
109.2956697153167
 20
99.19344174177796
 30
0.0
 10
110.8061286284053
 20
98.56778917456933
 30
0.0
 10
111.4988604006449
 20
98.1049206025509
 30
0.0
 10
112.076888001952
 20
97.5268930012437
 30
0.0
  0
SPLINE
  5
89
330
1F
100
AcDbEntity
  8
0
  6
Continuous
 62
     7
370
    25
100
AcDbSpline
210
0.0
220
0.0
230
1.0
 70
     8
 71
     3
 72
     8
 73
     4
 74
     0
 42
0.00000001
 43
0.00000001
 40
0.0
 40
0.0
 40
0.0
 40
0.0
 40
1.0
 40
1.0
 40
1.0
 40
1.0
 10
113.4306104588821
 20
95.50090417115258
 30
0.0
 10
113.7434367424864
 20
94.74567471460828
 30
0.0
 10
113.905974570108
 20
93.92854187484191
 30
0.0
 10
113.905974570108
 20
93.11108740164728
 30
0.0
  0
LINE
  5
8A
330
1F
100
AcDbEntity
  8
0
  6
Continuous
 62
     7
370
    25
100
AcDbLine
 10
113.9059745701
 20
91.2822770464
 30
0.0
 11
113.9059745701
 21
93.1110874016
 31
0.0
  0
SPLINE
  5
8B
330
1F
100
AcDbEntity
  8
0
  6
Continuous
 62
     7
370
    25
100
AcDbSpline
210
0.0
220
0.0
230
1.0
 70
     8
 71
     3
 72
    10
 73
     6
 74
     0
 42
0.00000001
 43
0.00000001
 40
0.0
 40
0.0
 40
0.0
 40
0.0
 40
0.3333333333333329
 40
0.666666666666667
 40
1.0
 40
1.0
 40
1.0
 40
1.0
 10
58.3389175976443
 20
99.35597956939957
 30
0.0
 10
57.79394794880373
 20
99.35597956939957
 30
0.0
 10
56.70405971142758
 20
99.21249146603844
 30
0.0
 10
55.18059250639742
 20
98.58145068784646
 30
0.0
 10
54.30846373222151
 20
97.91224473541733
 30
0.0
 10
53.923111998048
 20
97.5268930012437
 30
0.0
  0
LINE
  5
8C
330
1F
100
AcDbEntity
  8
0
  6
Continuous
 62
     7
370
    25
100
AcDbLine
 10
58.3389175976
 20
99.3559795694
 30
0.0
 11
60.1677279529
 21
99.3559795694
 31
0.0
  0
SPLINE
  5
8D
330
1F
100
AcDbEntity
  8
0
  6
Continuous
 62
     7
370
    25
100
AcDbSpline
210
0.0
220
0.0
230
1.0
 70
    24
 71
     3
 72
    20
 73
    16
 74
     0
 42
0.00000001
 43
0.00000001
 40
0.0
 40
0.0
 40
0.0
 40
0.0
 40
0.2499999999999997
 40
0.3749999999999996
 40
0.4374999999999996
 40
0.4374999999999996
 40
0.4999999999999996
 40
0.4999999999999996
 40
0.7499999999999997
 40
0.8749999999999998
 40
0.8749999999999998
 40
0.9062499999999999
 40
0.9062499999999999
 40
0.9375
 40
1.0
 40
1.0
 40
1.0
 40
1.0
 10
113.905974570108
 20
20.88911502179101
 30
0.0
 10
113.905974570108
 20
25.25305774497916
 30
0.0
 10
113.905974570108
 20
31.80055755368105
 30
0.0
 10
113.905974570108
 20
39.08935144198565
 30
0.0
 10
113.905974570108
 20
42.10033710671605
 30
0.0
 10
113.905974570108
 20
44.0783987847485
 30
0.0
 10
113.905974570108
 20
45.05622293168744
 30
0.0
 10
113.905974570108
 20
49.77159303540924
 30
0.0
 10
113.905974570108
 20
54.6879830718096
 30
0.0
 10
113.905974570108
 20
58.28534229368652
 30
0.0
 10
113.905974570108
 20
59.5867411839497
 30
0.0
 10
113.905974570108
 20
59.83956388810095
 30
0.0
 10
113.905974570108
 20
60.33598093548085
 30
0.0
 10
113.905974570108
 20
61.06301366756004
 30
0.0
 10
113.905974570108
 20
61.72567690802725
 30
0.0
 10
113.905974570108
 20
62.12854065016455
 30
0.0
  0
SPLINE
  5
8E
330
1F
100
AcDbEntity
  8
0
  6
Continuous
 62
     7
370
    25
100
AcDbSpline
210
0.0
220
0.0
230
1.0
 70
     8
 71
     3
 72
    22
 73
    18
 74
     0
 42
0.00000001
 43
0.00000001
 40
0.0
 40
0.0
 40
0.0
 40
0.0
 40
0.2499999999999996
 40
0.2499999999999996
 40
0.3749999999999992
 40
0.3749999999999992
 40
0.4999999999999988
 40
0.4999999999999988
 40
0.5624999999999992
 40
0.5624999999999992
 40
0.6249999999999997
 40
0.6249999999999997
 40
0.7499999999999998
 40
0.7499999999999998
 40
0.8749999999999999
 40
0.8749999999999999
 40
1.0
 40
1.0
 40
1.0
 40
1.0
 10
113.9059745668272
 20
20.88911502179101
 30
0.0
 10
113.9059993305694
 20
20.12513778265771
 30
0.0
 10
113.7705092813932
 20
19.37609240120918
 30
0.0
 10
113.3476762848764
 20
18.27834003850759
 30
0.0
 10
113.1724707611063
 20
17.92594147601159
 30
0.0
 10
112.7553667016
 20
17.25533763816913
 30
0.0
 10
112.5131536906149
 20
16.93605968789721
 30
0.0
 10
112.0931628777528
 20
16.48464401216768
 30
0.0
 10
111.9442205633017
 20
16.33961547980655
 30
0.0
 10
111.6341189724814
 20
16.06642805291273
 30
0.0
 10
111.4721763501312
 20
15.9373979080483
 30
0.0
 10
110.9653355669685
 20
15.57349956718856
 30
0.0
 10
110.5986436252112
 20
15.36104363535647
 30
0.0
 10
109.8066945605905
 20
15.00818562998252
 30
0.0
 10
109.3964933781063
 20
14.8743086837032
 30
0.0
 10
108.5476615065187
 20
14.69205137698152
 30
0.0
 10
108.1048670848722
 20
14.64402043060044
 30
0.0
 10
107.6610824023557
 20
14.64402043060045
 30
0.0
  0
LINE
  5
8F
330
1F
100
AcDbEntity
  8
0
  6
Continuous
 62
     7
370
    25
100
AcDbLine
 10
58.3389175976
 20
14.6440204306
 30
0.0
 11
107.6610824024
 21
14.6440204306
 31
0.0
  0
SPLINE
  5
90
330
1F
100
AcDbEntity
  8
0
  6
Continuous
 62
     7
370
    25
100
AcDbSpline
210
0.0
220
0.0
230
1.0
 70
     8
 71
     3
 72
    22
 73
    18
 74
     0
 42
0.00000001
 43
0.00000001
 40
0.0
 40
0.0
 40
0.0
 40
0.0
 40
0.25
 40
0.25
 40
0.375
 40
0.375
 40
0.5
 40
0.5
 40
0.5625
 40
0.5625
 40
0.625
 40
0.625
 40
0.75
 40
0.75
 40
0.875
 40
0.875
 40
1.0
 40
1.0
 40
1.0
 40
1.0
 10
52.09402543317274
 20
20.88911502179101
 30
0.0
 10
52.09400066943056
 20
20.12513778265772
 30
0.0
 10
52.22949071860678
 20
19.37609240120919
 30
0.0
 10
52.65232371512361
 20
18.27834003850757
 30
0.0
 10
52.82752923889362
 20
17.92594147601156
 30
0.0
 10
53.24463329840001
 20
17.2553376381691
 30
0.0
 10
53.48684630938505
 20
16.93605968789719
 30
0.0
 10
53.90683712224724
 20
16.48464401216767
 30
0.0
 10
54.05577943669832
 20
16.33961547980657
 30
0.0
 10
54.36588102751855
 20
16.06642805291273
 30
0.0
 10
54.5278236498688
 20
15.93739790804833
 30
0.0
 10
55.03466443303145
 20
15.57349956718857
 30
0.0
 10
55.4013563747888
 20
15.36104363535649
 30
0.0
 10
56.19330543940954
 20
15.00818562998252
 30
0.0
 10
56.60350662189376
 20
14.8743086837032
 30
0.0
 10
57.45233849348134
 20
14.69205137698151
 30
0.0
 10
57.89513291512779
 20
14.64402043060045
 30
0.0
 10
58.3389175976443
 20
14.64402043060045
 30
0.0
  0
SPLINE
  5
91
330
1F
100
AcDbEntity
  8
0
  6
Continuous
 62
     7
370
    25
100
AcDbSpline
210
0.0
220
0.0
230
1.0
 70
    24
 71
     3
 72
    20
 73
    16
 74
     0
 42
0.00000001
 43
0.00000001
 40
0.0
 40
0.0
 40
0.0
 40
0.0
 40
0.2499999999999999
 40
0.3749999999999998
 40
0.4374999999999998
 40
0.4374999999999998
 40
0.4999999999999998
 40
0.4999999999999998
 40
0.7499999999999997
 40
0.8749999999999996
 40
0.8749999999999996
 40
0.9062499999999997
 40
0.9062499999999997
 40
0.9374999999999998
 40
1.0
 40
1.0
 40
1.0
 40
1.0
 10
52.09402542989204
 20
20.88911502179101
 30
0.0
 10
52.09402542989203
 20
25.2530577449926
 30
0.0
 10
52.09402542989204
 20
31.8005575538497
 30
0.0
 10
52.09402542989204
 20
39.08935144207172
 30
0.0
 10
52.09402542989204
 20
42.10033710679186
 30
0.0
 10
52.09402542989204
 20
44.07839878481753
 30
0.0
 10
52.09402542989205
 20
45.0562229317527
 30
0.0
 10
52.09402542989204
 20
49.77159303545503
 30
0.0
 10
52.09402542989204
 20
54.68798307183527
 30
0.0
 10
52.09402542989204
 20
58.28534229369868
 30
0.0
 10
52.09402542989204
 20
59.58674118395726
 30
0.0
 10
52.09402542989204
 20
59.83956388810778
 30
0.0
 10
52.09402542989204
 20
60.33598093548614
 30
0.0
 10
52.09402542989203
 20
61.06301366756309
 30
0.0
 10
52.09402542989204
 20
61.72567690802834
 30
0.0
 10
52.09402542989204
 20
62.12854065016455
 30
0.0
  0
LINE
  5
92
330
1F
100
AcDbEntity
  8
0
  6
Continuous
 62
     7
370
    25
100
AcDbLine
 10
58.3389175976
 20
61.509106773
 30
0.0
 11
58.4018496729
 21
62.0909220997
 31
0.0
  0
LINE
  5
93
330
1F
100
AcDbEntity
  8
0
  6
Continuous
 62
     7
370
    25
100
AcDbLine
 10
107.5996658118
 20
62.090681925
 30
0.0
 11
107.6610824024
 21
61.509106773
 31
0.0
  0
SPLINE
  5
94
330
1F
100
AcDbEntity
  8
0
  6
Continuous
 62
     7
370
    25
100
AcDbSpline
210
0.0
220
0.0
230
1.0
 70
    24
 71
     3
 72
    14
 73
    10
 74
     0
 42
0.00000001
 43
0.00000001
 40
0.0
 40
0.0
 40
0.0
 40
0.0
 40
0.5000000000000002
 40
0.5000000000000002
 40
0.7500000000000002
 40
0.7500000000000002
 40
0.8750000000000001
 40
0.8750000000000001
 40
1.0
 40
1.0
 40
1.0
 40
1.0
 10
58.3389175976443
 20
26.39482585958763
 30
0.0
 10
58.3389175976443
 20
33.49749479862925
 30
0.0
 10
58.3389175976443
 20
40.16961403388483
 30
0.0
 10
58.3389175976443
 20
49.14327469771853
 30
0.0
 10
58.3389175976443
 20
51.96891343550126
 30
0.0
 10
58.3389175976443
 20
55.85399734165311
 30
0.0
 10
58.3389175976443
 20
57.08974783801143
 30
0.0
 10
58.3389175976443
 20
59.42095558556405
 30
0.0
 10
58.3389175976443
 20
60.51460054158196
 30
0.0
 10
58.3389175976443
 20
61.50910677303091
 30
0.0
  0
SPLINE
  5
95
330
1F
100
AcDbEntity
  8
0
  6
Continuous
 62
     7
370
    25
100
AcDbSpline
210
0.0
220
0.0
230
1.0
 70
    24
 71
     3
 72
    12
 73
     8
 74
     0
 42
0.00000001
 43
0.00000001
 40
0.0
 40
0.0
 40
0.0
 40
0.0
 40
0.25
 40
0.25
 40
0.5
 40
0.5
 40
1.0
 40
1.0
 40
1.0
 40
1.0
 10
107.6610824023557
 20
61.50910677303091
 30
0.0
 10
107.6610824023557
 20
59.520094310133
 30
0.0
 10
107.6610824023557
 20
57.15786932467638
 30
0.0
 10
107.6610824023557
 20
51.96557770684142
 30
0.0
 10
107.6610824023557
 20
49.14570380472437
 30
0.0
 10
107.6610824023557
 20
40.17536234468136
 30
0.0
 10
107.6610824023557
 20
33.49749479862925
 30
0.0
 10
107.6610824023557
 20
26.39482585958763
 30
0.0
  0
SPLINE
  5
96
330
1F
100
AcDbEntity
  8
0
  6
Continuous
 62
     7
370
    25
100
AcDbSpline
210
0.0
220
0.0
230
1.0
 70
     8
 71
     3
 72
    10
 73
     6
 74
     0
 42
0.00000001
 43
0.00000001
 40
0.0
 40
0.0
 40
0.0
 40
0.0
 40
0.29224844648287
 40
0.401841613913947
 40
0.511434781345023
 40
0.511434781345023
 40
0.511434781345023
 40
0.511434781345023
 10
107.6610824023557
 20
26.39482585958763
 30
0.0
 10
107.6610824023557
 20
25.25408024706263
 30
0.0
 10
106.9954115987656
 20
23.62834741275543
 30
0.0
 10
105.0143673697678
 20
22.41792806745766
 30
0.0
 10
104.0047820778761
 20
22.23156441441946
 30
0.0
 10
103.4978209571875
 20
22.23156441441946
 30
0.0
  0
SPLINE
  5
97
330
1F
100
AcDbEntity
  8
0
  6
Continuous
 62
     7
370
    25
100
AcDbSpline
210
0.0
220
0.0
230
1.0
 70
     8
 71
     3
 72
    10
 73
     6
 74
     0
 42
0.00000001
 43
0.00000001
 40
0.0
 40
0.0
 40
0.0
 40
0.0
 40
0.109594062292607
 40
0.2191881245852129
 40
0.5114389573654959
 40
0.5114389573654959
 40
0.5114389573654959
 40
0.5114389573654959
 10
62.50217904281249
 20
22.23156441441946
 30
0.0
 10
61.99521378263216
 20
22.23156441441946
 30
0.0
 10
60.98569985100046
 20
22.41789687159093
 30
0.0
 10
59.00457003585353
 20
23.62827194946681
 30
0.0
 10
58.3389175976443
 20
25.25407093252849
 30
0.0
 10
58.3389175976443
 20
26.39482585958763
 30
0.0
  0
LINE
  5
98
330
1F
100
AcDbEntity
  8
0
  6
Continuous
 62
     7
370
    25
100
AcDbLine
 10
103.4978209572
 20
22.2315644144
 30
0.0
 11
62.5021790428
 21
22.2315644144
 31
0.0
  0
ARC
  5
99
330
1F
100
AcDbEntity
  8
0
  6
Continuous
 62
     7
370
    25
100
AcDbCircle
 10
58.3389175976
 20
20.8889125984
 30
0.0
 40
12.48978433550456
100
AcDbArc
 50
180.0
 51
270.0
  0
LINE
  5
9A
330
1F
100
AcDbEntity
  8
0
  6
Continuous
 62
     7
370
    25
100
AcDbLine
 10
45.8491332621
 20
93.1110874016
 30
0.0
 11
45.8491332621
 21
20.8889125984
 31
0.0
  0
ARC
  5
9B
330
1F
100
AcDbEntity
  8
0
  6
Continuous
 62
     7
370
    25
100
AcDbCircle
 10
107.6610824024
 20
20.8889125984
 30
0.0
 40
12.48978433550456
100
AcDbArc
 50
270.0
 51
0.0
  0
LINE
  5
9C
330
1F
100
AcDbEntity
  8
0
  6
Continuous
 62
     7
370
    25
100
AcDbLine
 10
58.3389175976
 20
8.3991282628
 30
0.0
 11
107.6610824024
 21
8.3991282628
 31
0.0
  0
ARC
  5
9D
330
1F
100
AcDbEntity
  8
0
  6
Continuous
 62
     7
370
    25
100
AcDbCircle
 10
107.6610824024
 20
93.1110874016
 30
0.0
 40
12.48978433550454
100
AcDbArc
 50
0.0
 51
90.0
  0
LINE
  5
9E
330
1F
100
AcDbEntity
  8
0
  6
Continuous
 62
     7
370
    25
100
AcDbLine
 10
107.6610824024
 20
105.6008717372
 30
0.0
 11
58.3389175976
 21
105.6008717372
 31
0.0
  0
LINE
  5
9F
330
1F
100
AcDbEntity
  8
0
  6
Continuous
 62
     7
370
    25
100
AcDbLine
 10
120.1508667379
 20
20.8889125984
 30
0.0
 11
120.1508667379
 21
93.1110874016
 31
0.0
  0
ARC
  5
A0
330
1F
100
AcDbEntity
  8
0
  6
Continuous
 62
     7
370
    25
100
AcDbCircle
 10
58.3389175976
 20
93.1110874016
 30
0.0
 40
12.48978433550454
100
AcDbArc
 50
90.0
 51
180.0
  0
SPLINE
  5
A1
330
1F
100
AcDbEntity
  8
0
  6
HIDDEN
 62
     7
370
    18
100
AcDbSpline
210
0.0
220
0.0
230
1.0
 70
     8
 71
     3
 72
     8
 73
     4
 74
     0
 42
0.00000001
 43
0.00000001
 40
0.0
 40
0.0
 40
0.0
 40
0.0
 40
1.0
 40
1.0
 40
1.0
 40
1.0
 10
112.0768880019521
 20
97.52689300124368
 30
0.0
 10
112.6549156032593
 20
96.9488653999365
 30
0.0
 10
113.1177841752777
 20
96.25613362769691
 30
0.0
 10
113.4306104588821
 20
95.50090417115258
 30
0.0
  0
LINE
  5
A2
330
1F
100
AcDbEntity
  8
0
  6
HIDDEN
 62
     7
370
    18
100
AcDbLine
 10
107.6610824024
 20
61.509106773
 30
0.0
 11
107.6610824024
 21
67.1989497511
 31
0.0
  0
LINE
  5
A3
330
1F
100
AcDbEntity
  8
0
  6
HIDDEN
 62
     7
370
    18
100
AcDbLine
 10
101.4161902346
 20
67.1989497511
 30
0.0
 11
107.6610824024
 21
67.1989497511
 31
0.0
  0
LINE
  5
A4
330
1F
100
AcDbEntity
  8
0
  6
HIDDEN
 62
     7
370
    18
100
AcDbLine
 10
64.5838097654
 20
67.1989497511
 30
0.0
 11
58.3389175976
 21
67.1989497511
 31
0.0
  0
LINE
  5
A5
330
1F
100
AcDbEntity
  8
0
  6
HIDDEN
 62
     7
370
    18
100
AcDbLine
 10
58.3389175976
 20
61.509106773
 30
0.0
 11
58.3389175976
 21
67.1989497511
 31
0.0
  0
LINE
  5
A6
330
1F
100
AcDbEntity
  8
0
  6
HIDDEN
 62
     7
370
    18
100
AcDbLine
 10
101.3994997926
 20
85.7296248594
 30
0.0
 11
101.3994997926
 21
67.1989497511
 31
0.0
  0
LINE
  5
A7
330
1F
100
AcDbEntity
  8
0
  6
HIDDEN
 62
     7
370
    18
100
AcDbLine
 10
63.3979235251
 20
91.9745170271
 30
0.0
 11
102.6020764749
 21
91.9745170271
 31
0.0
  0
ELLIPSE
  5
A8
330
1F
100
AcDbEntity
  8
0
  6
HIDDEN
 62
     7
370
    18
100
AcDbEllipse
 10
63.3979235251
 20
85.7296248594
 30
0.0
 11
0.0
 21
6.244892167752269
 31
0.0
210
0.0
220
0.0
230
1.0
 40
0.1925696473
 41
4.712388980384692
 42
6.283185307179586
  0
LINE
  5
A9
330
1F
100
AcDbEntity
  8
0
  6
HIDDEN
 62
     7
370
    18
100
AcDbLine
 10
92.0030533715
 20
85.7296248594
 30
0.0
 11
73.9969466285
 21
85.7296248594
 31
0.0
  0
ELLIPSE
  5
AA
330
1F
100
AcDbEntity
  8
0
  6
HIDDEN
 62
     7
370
    18
100
AcDbEllipse
 10
102.6020764749
 20
85.7296248594
 30
0.0
 11
0.0
 21
6.244892167752269
 31
0.0
210
0.0
220
0.0
230
1.0
 40
0.1925696473
 41
0.0
 42
1.570796326794897
  0
LINE
  5
AB
330
1F
100
AcDbEntity
  8
0
  6
HIDDEN
 62
     7
370
    18
100
AcDbLine
 10
73.9969466285
 20
69.02037574
 30
0.0
 11
92.0030533715
 21
69.02037574
 31
0.0
  0
LINE
  5
AC
330
1F
100
AcDbEntity
  8
0
  6
HIDDEN
 62
     7
370
    18
100
AcDbLine
 10
64.6005002074
 20
85.7296248594
 30
0.0
 11
64.6005002074
 21
67.1989497511
 31
0.0
  0
LINE
  5
AD
330
1F
100
AcDbEntity
  8
0
  6
HIDDEN
 62
     7
370
    18
100
AcDbLine
 10
101.3994997926
 20
67.1989497511
 30
0.0
 11
101.4161902346
 21
67.1989497511
 31
0.0
  0
LINE
  5
AE
330
1F
100
AcDbEntity
  8
0
  6
HIDDEN
 62
     7
370
    18
100
AcDbLine
 10
73.9969466285
 20
85.7296248594
 30
0.0
 11
73.9969466285
 21
69.02037574
 31
0.0
  0
LINE
  5
AF
330
1F
100
AcDbEntity
  8
0
  6
HIDDEN
 62
     7
370
    18
100
AcDbLine
 10
64.6005002074
 20
67.1989497511
 30
0.0
 11
64.5838097654
 21
67.1989497511
 31
0.0
  0
LINE
  5
B0
330
1F
100
AcDbEntity
  8
0
  6
HIDDEN
 62
     7
370
    18
100
AcDbLine
 10
92.0030533715
 20
69.02037574
 30
0.0
 11
92.0030533715
 21
85.7296248594
 31
0.0
  0
LINE
  5
B1
330
1F
100
AcDbEntity
  8
0
  6
HIDDEN
 62
     7
370
    18
100
AcDbLine
 10
75.7122103439
 20
70.7356394554
 30
0.0
 11
73.9969466285
 21
69.02037574
 31
0.0
  0
LINE
  5
B2
330
1F
100
AcDbEntity
  8
0
  6
HIDDEN
 62
     7
370
    18
100
AcDbLine
 10
90.2877896561
 20
70.7356394554
 30
0.0
 11
92.0030533715
 21
69.02037574
 31
0.0
  0
LINE
  5
B3
330
1F
100
AcDbEntity
  8
0
  6
HIDDEN
 62
     7
370
    18
100
AcDbLine
 10
90.2877896561
 20
84.014361144
 30
0.0
 11
92.0030533715
 21
85.7296248594
 31
0.0
  0
LINE
  5
B4
330
1F
100
AcDbEntity
  8
0
  6
HIDDEN
 62
     7
370
    18
100
AcDbLine
 10
75.7122103439
 20
84.014361144
 30
0.0
 11
73.9969466285
 21
85.7296248594
 31
0.0
  0
LINE
  5
B5
330
1F
100
AcDbEntity
  8
0
  6
HIDDEN
 62
     7
370
    18
100
AcDbLine
 10
75.7142919747
 20
85.3091371368
 30
0.0
 11
90.2857080253
 21
85.3091371368
 31
0.0
  0
LINE
  5
B6
330
1F
100
AcDbEntity
  8
0
  6
HIDDEN
 62
     7
370
    18
100
AcDbLine
 10
90.2857080253
 20
85.3091371368
 30
0.0
 11
90.2857080253
 21
84.014361144
 31
0.0
  0
LINE
  5
B7
330
1F
100
AcDbEntity
  8
0
  6
HIDDEN
 62
     7
370
    18
100
AcDbLine
 10
75.7142919747
 20
84.014361144
 30
0.0
 11
75.7142919747
 21
85.3091371368
 31
0.0
  0
LINE
  5
B8
330
1F
100
AcDbEntity
  8
0
  6
HIDDEN
 62
     7
370
    18
100
AcDbLine
 10
90.2857080253
 20
70.7377210862
 30
0.0
 11
75.7142919747
 21
70.7377210862
 31
0.0
  0
LINE
  5
B9
330
1F
100
AcDbEntity
  8
0
  6
HIDDEN
 62
     7
370
    18
100
AcDbLine
 10
75.7142919747
 20
70.7377210862
 30
0.0
 11
75.7142919747
 21
84.014361144
 31
0.0
  0
LINE
  5
BA
330
1F
100
AcDbEntity
  8
0
  6
HIDDEN
 62
     7
370
    18
100
AcDbLine
 10
90.2857080253
 20
84.014361144
 30
0.0
 11
90.2857080253
 21
70.7377210862
 31
0.0
  0
LINE
  5
BB
330
1F
100
AcDbEntity
  8
0
  6
HIDDEN
 62
     7
370
    18
100
AcDbLine
 10
90.2877896561
 20
84.014361144
 30
0.0
 11
90.2857080253
 21
84.014361144
 31
0.0
  0
LINE
  5
BC
330
1F
100
AcDbEntity
  8
0
  6
HIDDEN
 62
     7
370
    18
100
AcDbLine
 10
75.7142919747
 20
84.014361144
 30
0.0
 11
75.7122103439
 21
84.014361144
 31
0.0
  0
LINE
  5
BD
330
1F
100
AcDbEntity
  8
0
  6
HIDDEN
 62
     7
370
    18
100
AcDbLine
 10
90.2877896561
 20
70.7356394554
 30
0.0
 11
90.2877896561
 21
84.014361144
 31
0.0
  0
LINE
  5
BE
330
1F
100
AcDbEntity
  8
0
  6
HIDDEN
 62
     7
370
    18
100
AcDbLine
 10
75.7122103439
 20
70.7356394554
 30
0.0
 11
90.2877896561
 21
70.7356394554
 31
0.0
  0
LINE
  5
BF
330
1F
100
AcDbEntity
  8
0
  6
HIDDEN
 62
     7
370
    18
100
AcDbLine
 10
75.7122103439
 20
84.014361144
 30
0.0
 11
75.7122103439
 21
70.7356394554
 31
0.0
  0
LINE
  5
C0
330
1F
100
AcDbEntity
  8
0
  6
HIDDEN
 62
     7
370
    18
100
AcDbLine
 10
58.3389175976
 20
87.8112555819
 30
0.0
 11
58.3389175976
 21
67.1989497511
 31
0.0
  0
LINE
  5
C1
330
1F
100
AcDbEntity
  8
0
  6
HIDDEN
 62
     7
370
    18
100
AcDbLine
 10
107.6610824024
 20
87.8112555819
 30
0.0
 11
107.6610824024
 21
67.1989497511
 31
0.0
  0
LINE
  5
C2
330
1F
100
AcDbEntity
  8
0
  6
HIDDEN
 62
     7
370
    18
100
AcDbLine
 10
62.5021790428
 20
91.9745170271
 30
0.0
 11
63.3979235251
 21
91.9745170271
 31
0.0
  0
LINE
  5
C3
330
1F
100
AcDbEntity
  8
0
  6
HIDDEN
 62
     7
370
    18
100
AcDbLine
 10
103.4978209572
 20
91.9745170271
 30
0.0
 11
102.6020764749
 21
91.9745170271
 31
0.0
  0
ARC
  5
C4
330
1F
100
AcDbEntity
  8
0
  6
HIDDEN
 62
     7
370
    18
100
AcDbCircle
 10
62.5021790428
 20
87.8112555819
 30
0.0
 40
4.163261445168189
100
AcDbArc
 50
90.0
 51
180.0
  0
ARC
  5
C5
330
1F
100
AcDbEntity
  8
0
  6
HIDDEN
 62
     7
370
    18
100
AcDbCircle
 10
103.4978209572
 20
87.8112555819
 30
0.0
 40
4.163261445168231
100
AcDbArc
 50
0.0
 51
90.0
  0
SPLINE
  5
C6
330
1F
100
AcDbEntity
  8
0
  6
HIDDEN
 62
     7
370
    18
100
AcDbSpline
210
0.0
220
0.0
230
1.0
 70
     8
 71
     3
 72
     8
 73
     4
 74
     0
 42
0.00000001
 43
0.00000001
 40
0.0
 40
0.0
 40
0.0
 40
0.0
 40
1.0
 40
1.0
 40
1.0
 40
1.0
 10
75.7142919746562
 20
81.16541961357426
 30
0.0
 10
75.85057242370513
 20
82.54725036156691
 30
0.0
 10
75.99260546069084
 20
83.92848820125535
 30
0.0
 10
76.14136629112309
 20
85.30903262006132
 30
0.0
  0
SPLINE
  5
C7
330
1F
100
AcDbEntity
  8
0
  6
HIDDEN
 62
     7
370
    18
100
AcDbSpline
210
0.0
220
0.0
230
1.0
 70
     8
 71
     3
 72
     8
 73
     4
 74
     0
 42
0.00000001
 43
0.00000001
 40
0.0
 40
0.0
 40
0.0
 40
0.0
 40
1.0
 40
1.0
 40
1.0
 40
1.0
 10
90.28570802534372
 20
81.16541961357426
 30
0.0
 10
90.1494275762948
 20
82.54725036156691
 30
0.0
 10
90.0073945393091
 20
83.92848820125535
 30
0.0
 10
89.85863370887684
 20
85.30903262006132
 30
0.0
  0
SPLINE
  5
C8
330
1F
100
AcDbEntity
  8
0
  6
HIDDEN
 62
     7
370
    18
100
AcDbSpline
210
0.0
220
0.0
230
1.0
 70
     8
 71
     3
 72
     9
 73
     5
 74
     0
 42
0.00000001
 43
0.00000001
 40
0.0
 40
0.0
 40
0.0
 40
0.0
 40
0.5553946412238626
 40
1.0
 40
1.0
 40
1.0
 40
1.0
 10
58.39487177616975
 20
62.09176115732483
 30
0.0
 10
58.43674839188628
 20
62.01971496823948
 30
0.0
 10
58.51214813939598
 20
61.88999425482644
 30
0.0
 10
58.52469446466591
 20
61.83208086272997
 30
0.0
 10
58.53027262811385
 20
61.80633225825897
 30
0.0
  0
SPLINE
  5
C9
330
1F
100
AcDbEntity
  8
0
  6
HIDDEN
 62
     7
370
    18
100
AcDbSpline
210
0.0
220
0.0
230
1.0
 70
     8
 71
     3
 72
     9
 73
     5
 74
     0
 42
0.00000001
 43
0.00000001
 40
0.0
 40
0.0
 40
0.0
 40
0.0
 40
0.4446458573779552
 40
1.0
 40
1.0
 40
1.0
 40
1.0
 10
107.4667679250283
 20
61.80512682726209
 30
0.0
 10
107.4717132854328
 20
61.83054271229148
 30
0.0
 10
107.4828353060755
 20
61.88770254996378
 30
0.0
 10
107.5605069428017
 20
62.01841824138879
 30
0.0
 10
107.6036422080218
 20
62.09101174212739
 30
0.0
  0
SPLINE
  5
CA
330
1F
100
AcDbEntity
  8
0
  6
Continuous
 62
     7
370
    25
100
AcDbSpline
210
0.0
220
0.0
230
1.0
 70
     8
 71
     3
 72
     9
 73
     5
 74
     0
 42
0.00000001
 43
0.00000001
 40
0.0
 40
0.0
 40
0.0
 40
0.0
 40
0.5105722534925143
 40
1.0
 40
1.0
 40
1.0
 40
1.0
 10
112.0460466732228
 20
109.9353657241896
 30
0.0
 10
112.3234342743928
 20
110.2150832498201
 30
0.0
 10
112.8667219271638
 20
110.7629342615372
 30
0.0
 10
113.245266954949
 20
111.5468656947388
 30
0.0
 10
113.4305373948496
 20
111.930543489507
 30
0.0
  0
SPLINE
  5
CB
330
1F
100
AcDbEntity
  8
0
  6
Continuous
 62
     7
370
    25
100
AcDbSpline
210
0.0
220
0.0
230
1.0
 70
     8
 71
     3
 72
     9
 73
     5
 74
     0
 42
0.00000001
 43
0.00000001
 40
0.0
 40
0.0
 40
0.0
 40
0.0
 40
0.4894277465159995
 40
1.0
 40
1.0
 40
1.0
 40
1.0
 10
110.0508689061136
 20
108.5508750018207
 30
0.0
 10
110.4345467012326
 20
108.7361454417619
 30
0.0
 10
111.2184781351372
 20
109.1146904696237
 30
0.0
 10
111.7663291473459
 20
109.6579781228114
 30
0.0
 10
112.0460466732228
 20
109.9353657241896
 30
0.0
  0
LINE
  5
CC
330
1F
100
AcDbEntity
  8
0
  6
Continuous
 62
     7
370
    25
100
AcDbLine
 10
45.8491332621
 20
204.6131136269
 30
0.0
 11
45.8491332621
 21
207.9999614796
 31
0.0
  0
LINE
  5
CD
330
1F
100
AcDbEntity
  8
0
  6
Continuous
 62
     7
370
    25
100
AcDbLine
 10
45.8491332621
 20
207.9999614796
 30
0.0
 11
58.3389175976
 21
207.9999614796
 31
0.0
  0
LINE
  5
CE
330
1F
100
AcDbEntity
  8
0
  6
Continuous
 62
     7
370
    25
100
AcDbLine
 10
120.1508667379
 20
204.6131136269
 30
0.0
 11
120.1508667379
 21
207.9999614796
 31
0.0
  0
LINE
  5
CF
330
1F
100
AcDbEntity
  8
0
  6
Continuous
 62
     7
370
    25
100
AcDbLine
 10
107.6610824024
 20
207.9999614796
 30
0.0
 11
120.1508667379
 21
207.9999614796
 31
0.0
  0
ARC
  5
D0
330
1F
100
AcDbEntity
  8
0
  6
Continuous
 62
     7
370
    25
100
AcDbCircle
 10
118.0692360153
 20
204.6131136269
 30
0.0
 40
2.08163072258408
100
AcDbArc
 50
284.4775121859
 51
0.0
  0
ARC
  5
D1
330
1F
100
AcDbEntity
  8
0
  6
Continuous
 62
     7
370
    25
100
AcDbCircle
 10
47.9307639847
 20
204.6131136269
 30
0.0
 40
2.081630722584094
100
AcDbArc
 50
180.0
 51
255.5224878141
  0
LINE
  5
D2
330
1F
100
AcDbEntity
  8
0
  6
Continuous
 62
     7
370
    25
100
AcDbLine
 10
58.3389175976
 20
207.9999614796
 30
0.0
 11
107.6610824024
 21
207.9999614796
 31
0.0
  0
ARC
  5
D3
330
1F
100
AcDbEntity
  8
0
  6
Continuous
 62
     7
370
    25
100
AcDbCircle
 10
45.8491332621
 20
196.5509925054
 30
0.0
 40
6.244892167752276
100
AcDbArc
 50
0.0
 51
75.5224878141
  0
ARC
  5
D4
330
1F
100
AcDbEntity
  8
0
  6
Continuous
 62
     7
370
    25
100
AcDbCircle
 10
120.1508667379
 20
196.5509925054
 30
0.0
 40
6.244892167752269
100
AcDbArc
 50
104.4775121859
 51
180.0
  0
LINE
  5
D5
330
1F
100
AcDbEntity
  8
0
  6
Continuous
 62
     7
370
    25
100
AcDbLine
 10
52.0940254299
 20
120.5642791129
 30
0.0
 11
52.0940254299
 21
196.5509925054
 31
0.0
  0
LINE
  5
D6
330
1F
100
AcDbEntity
  8
0
  6
Continuous
 62
     7
370
    25
100
AcDbLine
 10
113.9059745701
 20
120.5642791129
 30
0.0
 11
113.9059745701
 21
196.5509925054
 31
0.0
  0
LINE
  5
D7
330
1F
100
AcDbEntity
  8
0
  6
Continuous
 62
     7
370
    25
100
AcDbLine
 10
101.4171332845
 20
108.0754378273
 30
0.0
 11
64.5828667155
 21
108.0754378273
 31
0.0
  0
LINE
  5
D8
330
1F
100
AcDbEntity
  8
0
  6
Continuous
 62
     7
370
    25
100
AcDbLine
 10
113.9059745701
 20
116.1491403503
 30
0.0
 11
113.9059745701
 21
120.5642791129
 31
0.0
  0
LINE
  5
D9
330
1F
100
AcDbEntity
  8
0
  6
Continuous
 62
     7
370
    25
100
AcDbLine
 10
52.0940254299
 20
116.1491403503
 30
0.0
 11
52.0940254299
 21
120.5642791129
 31
0.0
  0
LINE
  5
DA
330
1F
100
AcDbEntity
  8
0
  6
Continuous
 62
     7
370
    25
100
AcDbLine
 10
101.4171332845
 20
108.0754378273
 30
0.0
 11
105.8322720471
 21
108.0754378273
 31
0.0
  0
LINE
  5
DB
330
1F
100
AcDbEntity
  8
0
  6
Continuous
 62
     7
370
    25
100
AcDbLine
 10
64.5828667155
 20
108.0754378273
 30
0.0
 11
60.1677279529
 21
108.0754378273
 31
0.0
  0
LINE
  5
DC
330
1F
100
AcDbEntity
  8
0
  6
Continuous
 62
     7
370
    25
100
AcDbLine
 10
113.9059745701
 20
114.3203299951
 30
0.0
 11
113.9059745701
 21
116.1491403503
 31
0.0
  0
SPLINE
  5
DD
330
1F
100
AcDbEntity
  8
0
  6
Continuous
 62
     7
370
    25
100
AcDbSpline
210
0.0
220
0.0
230
1.0
 70
     8
 71
     3
 72
    10
 73
     6
 74
     0
 42
0.00000001
 43
0.00000001
 40
0.0
 40
0.0
 40
0.0
 40
0.0
 40
0.5
 40
0.5
 40
1.0
 40
1.0
 40
1.0
 40
1.0
 10
113.905974570108
 20
114.3203299950569
 30
0.0
 10
113.905974570108
 20
113.5028755218623
 30
0.0
 10
113.7434367424864
 20
112.6857426820959
 30
0.0
 10
113.1177841752777
 20
111.1752837690072
 30
0.0
 10
112.6549156032592
 20
110.4825519967676
 30
0.0
 10
112.076888001952
 20
109.9045243954604
 30
0.0
  0
SPLINE
  5
DE
330
1F
100
AcDbEntity
  8
0
  6
Continuous
 62
     7
370
    25
100
AcDbSpline
210
0.0
220
0.0
230
1.0
 70
     8
 71
     3
 72
    10
 73
     6
 74
     0
 42
0.00000001
 43
0.00000001
 40
0.0
 40
0.0
 40
0.0
 40
0.0
 40
0.3333333333333329
 40
0.666666666666667
 40
1.0
 40
1.0
 40
1.0
 40
1.0
 10
52.09402542989204
 20
114.3203299950569
 30
0.0
 10
52.09402542989204
 20
113.7753603462163
 30
0.0
 10
52.23751353325309
 20
112.6854721088402
 30
0.0
 10
52.86855431144512
 20
111.1620049038101
 30
0.0
 10
53.53776026387429
 20
110.2898761296341
 30
0.0
 10
53.923111998048
 20
109.9045243954604
 30
0.0
  0
LINE
  5
DF
330
1F
100
AcDbEntity
  8
0
  6
Continuous
 62
     7
370
    25
100
AcDbLine
 10
52.0940254299
 20
114.3203299951
 30
0.0
 11
52.0940254299
 21
116.1491403503
 31
0.0
  0
LINE
  5
E0
330
1F
100
AcDbEntity
  8
0
  6
Continuous
 62
     7
370
    25
100
AcDbLine
 10
60.1677279529
 20
108.0754378273
 30
0.0
 11
58.3389175976
 21
108.0754378273
 31
0.0
  0
SPLINE
  5
E1
330
1F
100
AcDbEntity
  8
0
  6
Continuous
 62
     7
370
    25
100
AcDbSpline
210
0.0
220
0.0
230
1.0
 70
     8
 71
     3
 72
    10
 73
     6
 74
     0
 42
0.00000001
 43
0.00000001
 40
0.0
 40
0.0
 40
0.0
 40
0.0
 40
0.333333333333333
 40
0.6666666666666671
 40
1.0
 40
1.0
 40
1.0
 40
1.0
 10
53.923111998048
 20
109.9045243954604
 30
0.0
 10
54.3084637322493
 20
109.5191726612591
 30
0.0
 10
55.18059250647627
 20
108.8499667088082
 30
0.0
 10
56.70405971151837
 20
108.218925930645
 30
0.0
 10
57.79394794884303
 20
108.0754378273047
 30
0.0
 10
58.3389175976443
 20
108.0754378273047
 30
0.0
  0
SPLINE
  5
E2
330
1F
100
AcDbEntity
  8
0
  6
Continuous
 62
     7
370
    25
100
AcDbSpline
210
0.0
220
0.0
230
1.0
 70
     8
 71
     3
 72
     8
 73
     4
 74
     0
 42
0.00000001
 43
0.00000001
 40
0.0
 40
0.0
 40
0.0
 40
0.0
 40
1.0
 40
1.0
 40
1.0
 40
1.0
 10
110.0508991718609
 20
108.5508019385305
 30
0.0
 10
109.2956697153166
 20
108.2379756549262
 30
0.0
 10
108.4785368755503
 20
108.0754378273047
 30
0.0
 10
107.6610824023557
 20
108.0754378273047
 30
0.0
  0
LINE
  5
E3
330
1F
100
AcDbEntity
  8
0
  6
Continuous
 62
     7
370
    25
100
AcDbLine
 10
105.8322720471
 20
108.0754378273
 30
0.0
 11
107.6610824024
 21
108.0754378273
 31
0.0
  0
SPLINE
  5
E4
330
1F
100
AcDbEntity
  8
0
  6
HIDDEN
 62
     7
370
    18
100
AcDbSpline
210
0.0
220
0.0
230
1.0
 70
     8
 71
     3
 72
     8
 73
     4
 74
     0
 42
0.00000001
 43
0.00000001
 40
0.0
 40
0.0
 40
0.0
 40
0.0
 40
1.0
 40
1.0
 40
1.0
 40
1.0
 10
112.076888001952
 20
109.9045243954604
 30
0.0
 10
111.4988604006448
 20
109.3264967941533
 30
0.0
 10
110.8061286284052
 20
108.8636282221348
 30
0.0
 10
110.0508991718609
 20
108.5508019385305
 30
0.0
  0
LINE
  5
E5
330
1F
100
AcDbEntity
  8
0
  6
HIDDEN
 62
     7
370
    18
100
AcDbLine
 10
58.3389175976
 20
146.8362674587
 30
0.0
 11
58.3389175976
 21
207.9999614796
 31
0.0
  0
LINE
  5
E6
330
1F
100
AcDbEntity
  8
0
  6
HIDDEN
 62
     7
370
    18
100
AcDbLine
 10
58.3389175976
 20
146.8362674587
 30
0.0
 11
62.5021790428
 21
125.2167573073
 31
0.0
  0
LINE
  5
E7
330
1F
100
AcDbEntity
  8
0
  6
HIDDEN
 62
     7
370
    18
100
AcDbLine
 10
107.6610824024
 20
207.9999614796
 30
0.0
 11
107.6610824024
 21
146.8362674587
 31
0.0
  0
LINE
  5
E8
330
1F
100
AcDbEntity
  8
0
  6
HIDDEN
 62
     7
370
    18
100
AcDbLine
 10
103.4978209572
 20
125.2167573073
 30
0.0
 11
107.6610824024
 21
146.8362674587
 31
0.0
  0
LINE
  5
E9
330
1F
100
AcDbEntity
  8
0
  6
HIDDEN
 62
     7
370
    18
100
AcDbLine
 10
62.5021790428
 20
125.2167573073
 30
0.0
 11
63.3979235251
 21
120.5652221628
 31
0.0
  0
LINE
  5
EA
330
1F
100
AcDbEntity
  8
0
  6
HIDDEN
 62
     7
370
    18
100
AcDbLine
 10
103.4978209572
 20
125.2167573073
 30
0.0
 11
102.6020764749
 21
120.5652221628
 31
0.0
  0
LINE
  5
EB
330
1F
100
AcDbEntity
  8
0
  6
HIDDEN
 62
     7
370
    18
100
AcDbLine
 10
73.9969466285
 20
114.3203299951
 30
0.0
 11
64.6005002074
 21
114.3203299951
 31
0.0
  0
LINE
  5
EC
330
1F
100
AcDbEntity
  8
0
  6
HIDDEN
 62
     7
370
    18
100
AcDbLine
 10
92.0030533715
 20
114.3203299951
 30
0.0
 11
73.9969466285
 21
114.3203299951
 31
0.0
  0
LINE
  5
ED
330
1F
100
AcDbEntity
  8
0
  6
HIDDEN
 62
     7
370
    18
100
AcDbLine
 10
101.3994997926
 20
114.3203299951
 30
0.0
 11
92.0030533715
 21
114.3203299951
 31
0.0
  0
LINE
  5
EE
330
1F
100
AcDbEntity
  8
0
  6
HIDDEN
 62
     7
370
    18
100
AcDbLine
 10
101.3994997926
 20
114.3203299951
 30
0.0
 11
102.6020764749
 21
120.5652221628
 31
0.0
  0
LINE
  5
EF
330
1F
100
AcDbEntity
  8
0
  6
HIDDEN
 62
     7
370
    18
100
AcDbLine
 10
63.3979235251
 20
120.5652221628
 30
0.0
 11
64.6005002074
 21
114.3203299951
 31
0.0
  0
LINE
  5
F0
330
1F
100
AcDbEntity
  8
0
  6
HIDDEN
 62
     7
370
    18
100
AcDbLine
 10
75.7142919747
 20
115.1071847247
 30
0.0
 11
90.2857080253
 21
115.1071847247
 31
0.0
  0
LINE
  5
F1
330
1F
100
AcDbEntity
  8
0
  6
HIDDEN
 62
     7
370
    18
100
AcDbLine
 10
90.2877896561
 20
116.4019607176
 30
0.0
 11
90.2857080253
 21
116.4019607176
 31
0.0
  0
LINE
  5
F2
330
1F
100
AcDbEntity
  8
0
  6
HIDDEN
 62
     7
370
    18
100
AcDbLine
 10
90.2877896561
 20
116.4019607176
 30
0.0
 11
92.0030533715
 21
114.6866970022
 31
0.0
  0
LINE
  5
F3
330
1F
100
AcDbEntity
  8
0
  6
HIDDEN
 62
     7
370
    18
100
AcDbLine
 10
73.9969466285
 20
114.6866970022
 30
0.0
 11
92.0030533715
 21
114.6866970022
 31
0.0
  0
LINE
  5
F4
330
1F
100
AcDbEntity
  8
0
  6
HIDDEN
 62
     7
370
    18
100
AcDbLine
 10
75.7122103439
 20
116.4019607176
 30
0.0
 11
73.9969466285
 21
114.6866970022
 31
0.0
  0
LINE
  5
F5
330
1F
100
AcDbEntity
  8
0
  6
HIDDEN
 62
     7
370
    18
100
AcDbLine
 10
75.7142919747
 20
116.4019607176
 30
0.0
 11
75.7122103439
 21
116.4019607176
 31
0.0
  0
LINE
  5
F6
330
1F
100
AcDbEntity
  8
0
  6
HIDDEN
 62
     7
370
    18
100
AcDbLine
 10
92.0030533715
 20
114.3203299951
 30
0.0
 11
92.0030533715
 21
114.6866970022
 31
0.0
  0
LINE
  5
F7
330
1F
100
AcDbEntity
  8
0
  6
HIDDEN
 62
     7
370
    18
100
AcDbLine
 10
73.9969466285
 20
114.3203299951
 30
0.0
 11
73.9969466285
 21
114.6866970022
 31
0.0
  0
LINE
  5
F8
330
1F
100
AcDbEntity
  8
0
  6
HIDDEN
 62
     7
370
    18
100
AcDbLine
 10
75.7142919747
 20
115.1071847247
 30
0.0
 11
75.7142919747
 21
147.4182584841
 31
0.0
  0
LINE
  5
F9
330
1F
100
AcDbEntity
  8
0
  6
HIDDEN
 62
     7
370
    18
100
AcDbLine
 10
76.1403963445
 20
147.4182584841
 30
0.0
 11
75.7142919747
 21
147.4182584841
 31
0.0
  0
SPLINE
  5
FA
330
1F
100
AcDbEntity
  8
0
  6
HIDDEN
 62
     7
370
    18
100
AcDbSpline
210
0.0
220
0.0
230
1.0
 70
     8
 71
     3
 72
     8
 73
     4
 74
     0
 42
0.00000001
 43
0.00000001
 40
0.0
 40
0.0
 40
0.0
 40
0.0
 40
1.0
 40
1.0
 40
1.0
 40
1.0
 10
76.14083108826034
 20
147.4187458800689
 30
0.0
 10
78.00813763449301
 20
145.753159695913
 30
0.0
 10
80.49629477416937
 20
144.7930574717776
 30
0.0
 10
82.99999999999996
 20
144.789620614696
 30
0.0
  0
SPLINE
  5
FB
330
1F
100
AcDbEntity
  8
0
  6
HIDDEN
 62
     7
370
    18
100
AcDbSpline
210
0.0
220
0.0
230
1.0
 70
     8
 71
     3
 72
     8
 73
     4
 74
     0
 42
0.00000001
 43
0.00000001
 40
0.0
 40
0.0
 40
0.0
 40
0.0
 40
1.0
 40
1.0
 40
1.0
 40
1.0
 10
89.85916891173959
 20
147.4187458800689
 30
0.0
 10
87.99186236550692
 20
145.753159695913
 30
0.0
 10
85.50370522583053
 20
144.7930574717776
 30
0.0
 10
82.99999999999996
 20
144.789620614696
 30
0.0
  0
LINE
  5
FC
330
1F
100
AcDbEntity
  8
0
  6
HIDDEN
 62
     7
370
    18
100
AcDbLine
 10
89.8596036555
 20
147.4182584841
 30
0.0
 11
90.2857080253
 21
147.4182584841
 31
0.0
  0
LINE
  5
FD
330
1F
100
AcDbEntity
  8
0
  6
HIDDEN
 62
     7
370
    18
100
AcDbLine
 10
90.2857080253
 20
115.1071847247
 30
0.0
 11
90.2857080253
 21
147.4182584841
 31
0.0
  0
LINE
  5
FE
330
1F
100
AcDbEntity
  8
0
  6
HIDDEN
 62
     7
370
    18
100
AcDbLine
 10
90.2857080253
 20
116.4019607176
 30
0.0
 11
75.7142919747
 21
116.4019607176
 31
0.0
  0
SPLINE
  5
FF
330
1F
100
AcDbEntity
  8
0
  6
HIDDEN
 62
     7
370
    18
100
AcDbSpline
210
0.0
220
0.0
230
1.0
 70
     8
 71
     3
 72
     8
 73
     4
 74
     0
 42
0.00000001
 43
0.00000001
 40
0.0
 40
0.0
 40
0.0
 40
0.0
 40
0.138763192934792
 40
0.138763192934792
 40
0.138763192934792
 40
0.138763192934792
 10
82.99999999999996
 20
143.5140615743064
 30
0.0
 10
80.32268097490683
 20
143.5004704639001
 30
0.0
 10
77.65510272556132
 20
144.5589543537737
 30
0.0
 10
75.7142967671792
 20
146.4029691873784
 30
0.0
  0
SPLINE
  5
100
330
1F
100
AcDbEntity
  8
0
  6
HIDDEN
 62
     7
370
    18
100
AcDbSpline
210
0.0
220
0.0
230
1.0
 70
     8
 71
     3
 72
     8
 73
     4
 74
     0
 42
0.00000001
 43
0.00000001
 40
0.0
 40
0.0
 40
0.0
 40
0.0
 40
0.138763192934792
 40
0.138763192934792
 40
0.138763192934792
 40
0.138763192934792
 10
82.99999999999996
 20
143.5140615743064
 30
0.0
 10
85.67731902509311
 20
143.5004704639001
 30
0.0
 10
88.34489727443861
 20
144.5589543537737
 30
0.0
 10
90.28570323282071
 20
146.4029691873784
 30
0.0
  0
ARC
  5
101
330
1F
100
AcDbEntity
  8
0
  6
HIDDEN
 62
     7
370
    18
100
AcDbCircle
 10
101.4161902346
 20
120.5652221628
 30
0.0
 40
6.24489216775234
100
AcDbArc
 50
270.0
 51
0.0
  0
LINE
  5
102
330
1F
100
AcDbEntity
  8
0
  6
HIDDEN
 62
     7
370
    18
100
AcDbLine
 10
101.3994997926
 20
114.3203299951
 30
0.0
 11
101.4161902346
 21
114.3203299951
 31
0.0
  0
LINE
  5
103
330
1F
100
AcDbEntity
  8
0
  6
HIDDEN
 62
     7
370
    18
100
AcDbLine
 10
107.6610824024
 20
120.5652221628
 30
0.0
 11
107.6610824024
 21
146.8362674587
 31
0.0
  0
ARC
  5
104
330
1F
100
AcDbEntity
  8
0
  6
HIDDEN
 62
     7
370
    18
100
AcDbCircle
 10
64.5838097654
 20
120.5652221628
 30
0.0
 40
6.244892167752269
100
AcDbArc
 50
180.0
 51
270.0
  0
LINE
  5
105
330
1F
100
AcDbEntity
  8
0
  6
HIDDEN
 62
     7
370
    18
100
AcDbLine
 10
64.6005002074
 20
114.3203299951
 30
0.0
 11
64.5838097654
 21
114.3203299951
 31
0.0
  0
LINE
  5
106
330
1F
100
AcDbEntity
  8
0
  6
HIDDEN
 62
     7
370
    18
100
AcDbLine
 10
58.3389175976
 20
120.5652221628
 30
0.0
 11
58.3389175976
 21
146.8362674587
 31
0.0
  0
LINE
  5
107
330
1F
100
AcDbEntity
  8
0
  6
HIDDEN
 62
     7
370
    18
100
AcDbLine
 10
58.3389175976
 20
156.1411439399
 30
0.0
 11
58.2560503097
 21
155.7929612534
 31
0.0
  0
LINE
  5
108
330
1F
100
AcDbEntity
  8
0
  6
HIDDEN
 62
     7
370
    18
100
AcDbLine
 10
107.7435642612
 20
155.7945806951
 30
0.0
 11
107.6610824024
 21
156.141143925
 31
0.0
  0
SPLINE
  5
109
330
1F
100
AcDbEntity
  8
0
  6
HIDDEN
 62
     7
370
    18
100
AcDbSpline
210
0.0
220
0.0
230
1.0
 70
     8
 71
     3
 72
    22
 73
    18
 74
     0
 42
0.00000001
 43
0.00000001
 40
0.0
 40
0.0
 40
0.0
 40
0.0
 40
0.25
 40
0.25
 40
0.375
 40
0.375
 40
0.5
 40
0.5
 40
0.5625
 40
0.5625
 40
0.625
 40
0.625
 40
0.75
 40
0.75
 40
0.875
 40
0.875
 40
1.0
 40
1.0
 40
1.0
 40
1.0
 10
52.09402543317274
 20
157.0529927738708
 30
0.0
 10
52.09400066943056
 20
157.4965207160999
 30
0.0
 10
52.22949071860678
 20
157.9207919455665
 30
0.0
 10
52.65232371512361
 20
158.5288501607178
 30
0.0
 10
52.82752923889362
 20
158.7216978465021
 30
0.0
 10
53.24463329840001
 20
159.0849810899774
 30
0.0
 10
53.48684630938505
 20
159.2560040244792
 30
0.0
 10
53.90683712224724
 20
159.4956276988595
 30
0.0
 10
54.05577943669832
 20
159.5722237589622
 30
0.0
 10
54.36588102751855
 20
159.7159047544369
 30
0.0
 10
54.5278236498688
 20
159.783452569501
 30
0.0
 10
55.03466443303145
 20
159.9732587764155
 30
0.0
 10
55.4013563747888
 20
160.0830877208548
 30
0.0
 10
56.19330543940954
 20
160.2646442418246
 30
0.0
 10
56.60350662189376
 20
160.3330384796572
 30
0.0
 10
57.45233849348134
 20
160.4260023197591
 30
0.0
 10
57.89513291512779
 20
160.4503940822143
 30
0.0
 10
58.3389175976443
 20
160.4503940822143
 30
0.0
  0
SPLINE
  5
10A
330
1F
100
AcDbEntity
  8
0
  6
HIDDEN
 62
     7
370
    18
100
AcDbSpline
210
0.0
220
0.0
230
1.0
 70
     8
 71
     3
 72
    22
 73
    18
 74
     0
 42
0.00000001
 43
0.00000001
 40
0.0
 40
0.0
 40
0.0
 40
0.0
 40
0.2499999999999996
 40
0.2499999999999996
 40
0.3749999999999992
 40
0.3749999999999992
 40
0.4999999999999988
 40
0.4999999999999988
 40
0.5624999999999992
 40
0.5624999999999992
 40
0.6249999999999997
 40
0.6249999999999997
 40
0.7499999999999998
 40
0.7499999999999998
 40
0.8749999999999999
 40
0.8749999999999999
 40
1.0
 40
1.0
 40
1.0
 40
1.0
 10
113.9059745668272
 20
157.0529927738708
 30
0.0
 10
113.9059993305694
 20
157.4965207160999
 30
0.0
 10
113.7705092813932
 20
157.9207919455665
 30
0.0
 10
113.3476762848764
 20
158.5288501607178
 30
0.0
 10
113.1724707611063
 20
158.7216978465021
 30
0.0
 10
112.7553667016
 20
159.0849810899774
 30
0.0
 10
112.5131536906149
 20
159.2560040244792
 30
0.0
 10
112.0931628777528
 20
159.4956276988595
 30
0.0
 10
111.9442205633017
 20
159.5722237589622
 30
0.0
 10
111.6341189724814
 20
159.715904754437
 30
0.0
 10
111.4721763501312
 20
159.783452569501
 30
0.0
 10
110.9653355669685
 20
159.9732587764155
 30
0.0
 10
110.5986436252112
 20
160.0830877208548
 30
0.0
 10
109.8066945605905
 20
160.2646442418246
 30
0.0
 10
109.3964933781063
 20
160.3330384796572
 30
0.0
 10
108.5476615065187
 20
160.4260023197591
 30
0.0
 10
108.1048670848722
 20
160.4503940822143
 30
0.0
 10
107.6610824023557
 20
160.4503940822143
 30
0.0
  0
LINE
  5
10B
330
1F
100
AcDbEntity
  8
0
  6
HIDDEN
 62
     7
370
    18
100
AcDbLine
 10
58.3389175976
 20
160.4503940822
 30
0.0
 11
107.6610824024
 21
160.4503940822
 31
0.0
  0
SPLINE
  5
10C
330
1F
100
AcDbEntity
  8
0
  6
HIDDEN
 62
     7
370
    18
100
AcDbSpline
210
0.0
220
0.0
230
1.0
 70
     8
 71
     3
 72
    18
 73
    14
 74
     0
 42
0.00000001
 43
0.00000001
 40
0.0
 40
0.0
 40
0.0
 40
0.0
 40
0.0874173753280251
 40
0.1636023481366703
 40
0.2837417574846736
 40
0.3615867316754855
 40
0.3851407299472714
 40
0.4128940331718279
 40
0.5002873764263083
 40
0.6281443703861409
 40
0.7349892525334469
 40
0.8589554856389727
 40
0.9999999999999999
 40
0.9999999999999999
 40
0.9999999999999999
 40
0.9999999999999999
 10
103.4978209571875
 20
157.7889075475958
 30
0.0
 10
103.7454986165763
 20
157.7831378673251
 30
0.0
 10
104.2090294250106
 20
157.7723398625036
 30
0.0
 10
104.9830181955675
 20
157.676542582571
 30
0.0
 10
105.678896588675
 20
157.5226149204012
 30
0.0
 10
106.175843173689
 20
157.3520752896189
 30
0.0
 10
106.4232004147613
 20
157.2502448501455
 30
0.0
 10
106.645201427871
 20
157.1510546404626
 30
0.0
 10
106.9668050244503
 20
156.9819622468403
 30
0.0
 10
107.2815681588748
 20
156.7596211433473
 30
0.0
 10
107.5299204418329
 20
156.496815641807
 30
0.0
 10
107.6999941093492
 20
156.1967529315174
 30
0.0
 10
107.7012864816575
 20
155.9369586888646
 30
0.0
 10
107.7019743104582
 20
155.7986905124264
 30
0.0
  0
SPLINE
  5
10D
330
1F
100
AcDbEntity
  8
0
  6
HIDDEN
 62
     7
370
    18
100
AcDbSpline
210
0.0
220
0.0
230
1.0
 70
     8
 71
     3
 72
    16
 73
    12
 74
     0
 42
0.00000001
 43
0.00000001
 40
0.0
 40
0.0
 40
0.0
 40
0.0
 40
0.171344313116214
 40
0.3127037886807892
 40
0.4232998438238566
 40
0.5017858056364389
 40
0.58084793252762
 40
0.6897736866007188
 40
0.8289416416356481
 40
0.9102779442544057
 40
1.0
 40
1.0
 40
1.0
 40
1.0
 10
58.29802568954153
 20
155.7986905124264
 30
0.0
 10
58.29860817046334
 20
155.9511658001061
 30
0.0
 10
58.29967119956407
 20
156.2294335714168
 30
0.0
 10
58.50477541124464
 20
156.5350104718978
 30
0.0
 10
58.75146260794575
 20
156.7725800092987
 30
0.0
 10
59.02570734293084
 20
156.9696594355491
 30
0.0
 10
59.44545480939615
 20
157.2048895332558
 30
0.0
 10
60.11372396829843
 20
157.4703265941877
 30
0.0
 10
60.92727513537557
 20
157.6647592233944
 30
0.0
 10
61.76517170731624
 20
157.7713973210492
 30
0.0
 10
62.24861010257595
 20
157.7828831169366
 30
0.0
 10
62.50217904281249
 20
157.7889075475973
 30
0.0
  0
LINE
  5
10E
330
1F
100
AcDbEntity
  8
0
  6
HIDDEN
 62
     7
370
    18
100
AcDbLine
 10
62.5021790428
 20
157.793041467
 30
0.0
 11
103.4978209572
 21
157.793041467
 31
0.0
  0
SPLINE
  5
10F
330
1F
100
AcDbEntity
  8
0
  6
Continuous
 62
     7
370
    25
100
AcDbSpline
210
0.0
220
0.0
230
1.0
 70
     8
 71
     3
 72
     9
 73
     5
 74
     0
 42
0.00000001
 43
0.00000001
 40
0.0
 40
0.0
 40
0.0
 40
0.0
 40
0.489427746506756
 40
1.0
 40
1.0
 40
1.0
 40
1.0
 10
176.9305434893496
 20
98.88054239407602
 30
0.0
 10
176.5468656946121
 20
98.69527195417905
 30
0.0
 10
175.7629342614723
 20
98.31672692640053
 30
0.0
 10
175.2150832497985
 20
97.77343927366618
 30
0.0
 10
174.9353657241896
 20
97.49605167251457
 30
0.0
  0
SPLINE
  5
110
330
1F
100
AcDbEntity
  8
0
  6
Continuous
 62
     7
370
    25
100
AcDbSpline
210
0.0
220
0.0
230
1.0
 70
     8
 71
     3
 72
     9
 73
     5
 74
     0
 42
0.00000001
 43
0.00000001
 40
0.0
 40
0.0
 40
0.0
 40
0.0
 40
0.5105722535044308
 40
0.9999999999999999
 40
0.9999999999999999
 40
0.9999999999999999
 40
0.9999999999999999
 10
174.9353657241896
 20
97.49605167251454
 30
0.0
 10
174.6579781233132
 20
97.21633414723141
 30
0.0
 10
174.1146904711299
 20
96.66848313620757
 30
0.0
 10
173.7361454434526
 20
95.8845517039971
 30
0.0
 10
173.5508750036093
 20
95.50087390972331
 30
0.0
  0
SPLINE
  5
111
330
1F
100
AcDbEntity
  8
0
  6
Continuous
 62
     7
370
    25
100
AcDbSpline
210
0.0
220
0.0
230
1.0
 70
     8
 71
     3
 72
     9
 73
     5
 74
     0
 42
0.00000001
 43
0.00000001
 40
0.0
 40
0.0
 40
0.0
 40
0.0
 40
0.9098862077375498
 40
1.0
 40
1.0
 40
1.0
 40
1.0
 10
176.4752272901621
 20
63.19912054011571
 30
0.0
 10
176.6548176127404
 20
63.10708438033826
 30
0.0
 10
176.8521942968258
 20
63.00593309461175
 30
0.0
 10
177.1123476744397
 20
62.93655844116389
 30
0.0
 10
177.1357910818664
 20
62.93030682805481
 30
0.0
  0
LINE
  5
112
330
1F
100
AcDbEntity
  8
0
  6
Continuous
 62
     7
370
    25
100
AcDbLine
 10
269.6131136269
 20
8.3991282628
 30
0.0
 11
272.9999614796
 21
8.3991282628
 31
0.0
  0
LINE
  5
113
330
1F
100
AcDbEntity
  8
0
  6
Continuous
 62
     7
370
    25
100
AcDbLine
 10
272.9999614796
 20
20.8889125984
 30
0.0
 11
272.9999614796
 21
8.3991282628
 31
0.0
  0
LINE
  5
114
330
1F
100
AcDbEntity
  8
0
  6
Continuous
 62
     7
370
    25
100
AcDbLine
 10
269.6131136269
 20
105.6008717372
 30
0.0
 11
272.9999614796
 21
105.6008717372
 31
0.0
  0
LINE
  5
115
330
1F
100
AcDbEntity
  8
0
  6
Continuous
 62
     7
370
    25
100
AcDbLine
 10
272.9999614796
 20
105.6008717372
 30
0.0
 11
272.9999614796
 21
93.1110874016
 31
0.0
  0
ARC
  5
116
330
1F
100
AcDbEntity
  8
0
  6
Continuous
 62
     7
370
    25
100
AcDbCircle
 10
269.6131136269
 20
103.5192410146
 30
0.0
 40
2.081630722584128
100
AcDbArc
 50
90.0
 51
165.5224878141
  0
ARC
  5
117
330
1F
100
AcDbEntity
  8
0
  6
Continuous
 62
     7
370
    25
100
AcDbCircle
 10
269.6131136269
 20
10.4807589854
 30
0.0
 40
2.081630722584134
100
AcDbArc
 50
194.4775121859
 51
270.0
  0
LINE
  5
118
330
1F
100
AcDbEntity
  8
0
  6
Continuous
 62
     7
370
    25
100
AcDbLine
 10
272.9999614796
 20
93.1110874016
 30
0.0
 11
272.9999614796
 21
20.8889125984
 31
0.0
  0
ARC
  5
119
330
1F
100
AcDbEntity
  8
0
  6
Continuous
 62
     7
370
    25
100
AcDbCircle
 10
261.5509925054
 20
105.6008717372
 30
0.0
 40
6.244892167752232
100
AcDbArc
 50
270.0
 51
345.5224878141
  0
ARC
  5
11A
330
1F
100
AcDbEntity
  8
0
  6
Continuous
 62
     7
370
    25
100
AcDbCircle
 10
261.5509925054
 20
8.3991282628
 30
0.0
 40
6.24489216775228
100
AcDbArc
 50
14.4775121859
 51
90.0
  0
SPLINE
  5
11B
330
1F
100
AcDbEntity
  8
0
  6
Continuous
 62
     7
370
    25
100
AcDbSpline
210
0.0
220
0.0
230
1.0
 70
     8
 71
     3
 72
    10
 73
     6
 74
     0
 42
0.00000001
 43
0.00000001
 40
0.0
 40
0.0
 40
0.0
 40
0.0
 40
0.5
 40
0.5
 40
1.0
 40
1.0
 40
1.0
 40
1.0
 10
177.3525330764238
 20
62.84105630885391
 30
0.0
 10
177.6722697107185
 20
62.73512458845103
 30
0.0
 10
177.9975463067636
 20
62.62253691214922
 30
0.0
 10
178.6587087161917
 20
62.38344464657893
 30
0.0
 10
178.9930038694422
 20
62.25742686207671
 30
0.0
 10
179.3219707836657
 20
62.12854065018384
 30
0.0
  0
SPLINE
  5
11C
330
1F
100
AcDbEntity
  8
0
  6
Continuous
 62
     7
370
    25
100
AcDbSpline
210
0.0
220
0.0
230
1.0
 70
     8
 71
     3
 72
    34
 73
    30
 74
     0
 42
0.00000001
 43
0.00000001
 40
0.0
 40
0.0
 40
0.0
 40
0.0
 40
0.0373892753444868
 40
0.0736560129505358
 40
0.1088004347837572
 40
0.1428227855113149
 40
0.1757233355717882
 40
0.2075023847848928
 40
0.2381602666188666
 40
0.2676973532643683
 40
0.2961140617044793
 40
0.3234108610243295
 40
0.3495882812760769
 40
0.3746469243125697
 40
0.398587477136597
 40
0.4214107284976958
 40
0.4431175897283703
 40
0.4637091211819827
 40
0.4831865661709192
 40
0.5015513950939439
 40
0.5878911459906846
 40
0.6679974017558162
 40
0.720793099741065
 40
0.7716626551497826
 40
0.8206792373634874
 40
0.8679246261276183
 40
0.913490139293279
 40
0.957477558665027
 40
1.0
 40
1.0
 40
1.0
 40
1.0
 10
173.0754378273047
 20
68.76400891133457
 30
0.0
 10
173.0764890265787
 20
68.67690178526578
 30
0.0
 10
173.0785598649844
 20
68.505302749267
 30
0.0
 10
173.094992593342
 20
68.25259687073131
 30
0.0
 10
173.1201318522597
 20
68.00830988961796
 30
0.0
 10
173.1540184497314
 20
67.77249212534254
 30
0.0
 10
173.1955357682827
 20
67.54513061332457
 30
0.0
 10
173.2438896949809
 20
67.32622853321669
 30
0.0
 10
173.2982346386096
 20
67.1157849284983
 30
0.0
 10
173.3577720427631
 20
66.9137998724158
 30
0.0
 10
173.4217279253681
 20
66.72027314559519
 30
0.0
 10
173.4893606534619
 20
66.53520457637813
 30
0.0
 10
173.5599605292687
 20
66.35859390926105
 30
0.0
 10
173.6328510683922
 20
66.19044095939097
 30
0.0
 10
173.7073892155596
 20
66.03074510213231
 30
0.0
 10
173.7829662712391
 20
65.87950698196168
 30
0.0
 10
173.8590055285198
 20
65.73672251529462
 30
0.0
 10
173.9349701250995
 20
65.60240354951539
 30
0.0
 10
174.0103347545227
 20
65.47650654585254
 30
0.0
 10
174.1779039195146
 20
65.21205648510912
 30
0.0
 10
174.4570742154201
 20
64.82868602432947
 30
0.0
 10
174.8455536504923
 20
64.39657599994999
 30
0.0
 10
175.2114452736319
 20
64.05491963272198
 30
0.0
 10
175.5420711250551
 20
63.78642404511633
 30
0.0
 10
175.8855722890074
 20
63.54403790865936
 30
0.0
 10
176.2396395175436
 20
63.32759512318157
 30
0.0
 10
176.6025484896812
 20
63.13773016498353
 30
0.0
 10
176.9707746586831
 20
62.97222215300138
 30
0.0
 10
177.2260324697136
 20
62.88196092959551
 30
0.0
 10
177.3515000777547
 20
62.83759457013378
 30
0.0
  0
LINE
  5
11D
330
1F
100
AcDbEntity
  8
0
  6
Continuous
 62
     7
370
    25
100
AcDbLine
 10
173.0754378273
 20
86.8671382838
 30
0.0
 11
173.0754378273
 21
68.7640089113
 31
0.0
  0
SPLINE
  5
11E
330
1F
100
AcDbEntity
  8
0
  6
Continuous
 62
     7
370
    25
100
AcDbSpline
210
0.0
220
0.0
230
1.0
 70
     8
 71
     3
 72
    20
 73
    16
 74
     0
 42
0.00000001
 43
0.00000001
 40
0.0
 40
0.0
 40
0.0
 40
0.0
 40
0.2499999999999997
 40
0.3749999999999996
 40
0.4374999999999996
 40
0.4374999999999996
 40
0.4999999999999996
 40
0.4999999999999996
 40
0.7499999999999997
 40
0.8749999999999998
 40
0.8749999999999998
 40
0.9062499999999999
 40
0.9062499999999999
 40
0.9375
 40
1.0
 40
1.0
 40
1.0
 40
1.0
 10
222.0529927738708
 20
20.88911502179101
 30
0.0
 10
219.5195003648333
 20
25.25305774497916
 30
0.0
 10
215.2002308841223
 20
31.80055755368105
 30
0.0
 10
209.2472278699414
 20
39.08935144198565
 30
0.0
 10
206.4995199521638
 20
42.10033710671605
 30
0.0
 10
204.6239994956188
 20
44.0783987847485
 30
0.0
 10
203.6605938499609
 20
45.05622293168744
 30
0.0
 10
198.8288892067031
 20
49.77159303540924
 30
0.0
 10
192.8806345296306
 20
54.6879830718096
 30
0.0
 10
187.1048763323867
 20
58.28534229368652
 30
0.0
 10
184.7498939652872
 20
59.5867411839497
 30
0.0
 10
184.2776682377332
 20
59.83956388810095
 30
0.0
 10
183.3174495393887
 20
60.33598093548085
 30
0.0
 10
181.8596086751593
 20
61.06301366756004
 30
0.0
 10
180.3502331568314
 20
61.72567690802725
 30
0.0
 10
179.321970783715
 20
62.12854065016455
 30
0.0
  0
LINE
  5
11F
330
1F
100
AcDbEntity
  8
0
  6
Continuous
 62
     7
370
    25
100
AcDbLine
 10
225.4503940822
 20
14.6440204306
 30
0.0
 11
261.5509925054
 21
14.6440204306
 31
0.0
  0
SPLINE
  5
120
330
1F
100
AcDbEntity
  8
0
  6
Continuous
 62
     7
370
    25
100
AcDbSpline
210
0.0
220
0.0
230
1.0
 70
     8
 71
     3
 72
    22
 73
    18
 74
     0
 42
0.00000001
 43
0.00000001
 40
0.0
 40
0.0
 40
0.0
 40
0.0
 40
0.2499999999999996
 40
0.2499999999999996
 40
0.3749999999999992
 40
0.3749999999999992
 40
0.4999999999999988
 40
0.4999999999999988
 40
0.5624999999999992
 40
0.5624999999999992
 40
0.6249999999999997
 40
0.6249999999999997
 40
0.7499999999999998
 40
0.7499999999999998
 40
0.8749999999999999
 40
0.8749999999999999
 40
1.0
 40
1.0
 40
1.0
 40
1.0
 10
222.0529927738708
 20
20.88911502179101
 30
0.0
 10
222.4965207160999
 20
20.12513778265771
 30
0.0
 10
222.9207919455665
 20
19.37609240120918
 30
0.0
 10
223.5288501607178
 20
18.27834003850759
 30
0.0
 10
223.7216978465021
 20
17.92594147601159
 30
0.0
 10
224.0849810899774
 20
17.25533763816913
 30
0.0
 10
224.2560040244792
 20
16.93605968789721
 30
0.0
 10
224.4956276988595
 20
16.48464401216768
 30
0.0
 10
224.5722237589622
 20
16.33961547980655
 30
0.0
 10
224.715904754437
 20
16.06642805291273
 30
0.0
 10
224.783452569501
 20
15.9373979080483
 30
0.0
 10
224.9732587764155
 20
15.57349956718856
 30
0.0
 10
225.0830877208548
 20
15.36104363535647
 30
0.0
 10
225.2646442418246
 20
15.00818562998252
 30
0.0
 10
225.3330384796572
 20
14.8743086837032
 30
0.0
 10
225.4260023197591
 20
14.69205137698152
 30
0.0
 10
225.4503940822143
 20
14.64402043060044
 30
0.0
 10
225.4503940822143
 20
14.64402043060045
 30
0.0
  0
LINE
  5
121
330
1F
100
AcDbEntity
  8
0
  6
Continuous
 62
     7
370
    25
100
AcDbLine
 10
261.5509925054
 20
99.3559795694
 30
0.0
 11
185.5642791129
 21
99.3559795694
 31
0.0
  0
LINE
  5
122
330
1F
100
AcDbEntity
  8
0
  6
Continuous
 62
     7
370
    25
100
AcDbLine
 10
185.5642791129
 20
99.3559795694
 30
0.0
 11
181.1491403503
 21
99.3559795694
 31
0.0
  0
LINE
  5
123
330
1F
100
AcDbEntity
  8
0
  6
Continuous
 62
     7
370
    25
100
AcDbLine
 10
173.0754378273
 20
91.2822770464
 30
0.0
 11
173.0754378273
 21
86.8671382838
 31
0.0
  0
SPLINE
  5
124
330
1F
100
AcDbEntity
  8
0
  6
Continuous
 62
     7
370
    25
100
AcDbSpline
210
0.0
220
0.0
230
1.0
 70
     8
 71
     3
 72
     8
 73
     4
 74
     0
 42
0.00000001
 43
0.00000001
 40
0.0
 40
0.0
 40
0.0
 40
0.0
 40
1.0
 40
1.0
 40
1.0
 40
1.0
 10
176.9305132255516
 20
98.88061545817364
 30
0.0
 10
177.6857426820959
 20
99.19344174177796
 30
0.0
 10
178.5028755218623
 20
99.35597956939957
 30
0.0
 10
179.3203299950569
 20
99.35597956939957
 30
0.0
  0
LINE
  5
125
330
1F
100
AcDbEntity
  8
0
  6
Continuous
 62
     7
370
    25
100
AcDbLine
 10
181.1491403503
 20
99.3559795694
 30
0.0
 11
179.3203299951
 21
99.3559795694
 31
0.0
  0
LINE
  5
126
330
1F
100
AcDbEntity
  8
0
  6
Continuous
 62
     7
370
    25
100
AcDbLine
 10
173.0754378273
 20
93.1110874016
 30
0.0
 11
173.0754378273
 21
91.2822770464
 31
0.0
  0
SPLINE
  5
127
330
1F
100
AcDbEntity
  8
0
  6
Continuous
 62
     7
370
    25
100
AcDbSpline
210
0.0
220
0.0
230
1.0
 70
     8
 71
     3
 72
    10
 73
     6
 74
     0
 42
0.00000001
 43
0.00000001
 40
0.0
 40
0.0
 40
0.0
 40
0.0
 40
0.5
 40
0.5
 40
1.0
 40
1.0
 40
1.0
 40
1.0
 10
173.0754378273047
 20
93.11108740164728
 30
0.0
 10
173.0754378273047
 20
93.9285418748419
 30
0.0
 10
173.2379756549262
 20
94.74567471460824
 30
0.0
 10
173.8636282221348
 20
96.25613362769685
 30
0.0
 10
174.3264967941533
 20
96.94886539993641
 30
0.0
 10
174.9045243954605
 20
97.52689300124361
 30
0.0
  0
LINE
  5
128
330
1F
100
AcDbEntity
  8
0
  6
Continuous
 62
     7
370
    25
100
AcDbLine
 10
222.0198513135
 20
20.9433568545
 30
0.0
 11
222.2576452964
 21
20.5327226996
 31
0.0
  0
SPLINE
  5
129
330
1F
100
AcDbEntity
  8
0
  6
Continuous
 62
     7
370
    25
100
AcDbSpline
210
0.0
220
0.0
230
1.0
 70
     8
 71
     3
 72
    10
 73
     6
 74
     0
 42
0.00000001
 43
0.00000001
 40
0.0
 40
0.0
 40
0.0
 40
0.0
 40
0.3372233221230343
 40
0.6721533438347296
 40
1.0
 40
1.0
 40
1.0
 40
1.0
 10
177.3515000777548
 20
62.83759457013381
 30
0.0
 10
177.5328666815651
 20
62.77631050118355
 30
0.0
 10
177.894366498492
 20
62.65415912799449
 30
0.0
 10
178.6132157857746
 20
62.39608776253772
 30
0.0
 10
179.1792435192257
 20
62.17641202122481
 30
0.0
 10
179.4592327009561
 20
62.06774803283469
 30
0.0
  0
SPLINE
  5
12A
330
1F
100
AcDbEntity
  8
0
  6
HIDDEN
 62
     7
370
    18
100
AcDbSpline
210
0.0
220
0.0
230
1.0
 70
     8
 71
     3
 72
     8
 73
     4
 74
     0
 42
0.00000001
 43
0.00000001
 40
0.0
 40
0.0
 40
0.0
 40
0.0
 40
1.0
 40
1.0
 40
1.0
 40
1.0
 10
174.9045243954605
 20
97.52689300124362
 30
0.0
 10
175.4825519967677
 20
98.10492060255083
 30
0.0
 10
176.1752837690073
 20
98.56778917456933
 30
0.0
 10
176.9305132255516
 20
98.88061545817364
 30
0.0
  0
SPLINE
  5
12B
330
1F
100
AcDbEntity
  8
0
  6
HIDDEN
 62
     7
370
    18
100
AcDbSpline
210
0.0
220
0.0
230
1.0
 70
     8
 71
     3
 72
     8
 73
     4
 74
     0
 42
0.00000001
 43
0.00000001
 40
0.8749999999999873
 40
0.8749999999999873
 40
0.8749999999999873
 40
0.8749999999999873
 40
1.0
 40
1.0
 40
1.0
 40
1.0
 10
177.3515000777548
 20
62.83759457013382
 30
0.0
 10
177.489200683719
 20
62.79184868450309
 30
0.0
 10
177.6328767944915
 20
62.76503935515902
 30
0.0
 10
177.7785996506723
 20
62.75658994110729
 30
0.0
  0
SPLINE
  5
12C
330
1F
100
AcDbEntity
  8
0
  6
HIDDEN
 62
     7
370
    18
100
AcDbSpline
210
0.0
220
0.0
230
1.0
 70
     8
 71
     3
 72
    10
 73
     6
 74
     0
 42
0.00000001
 43
0.00000001
 40
0.0
 40
0.0
 40
0.0
 40
0.0
 40
0.428571428571429
 40
0.714285714285714
 40
1.0
 40
1.0
 40
1.0
 40
1.0
 10
223.0536444611757
 20
19.13321042584609
 30
0.0
 10
222.7513752837561
 20
19.67323379459883
 30
0.0
 10
222.6833138985119
 20
20.8038645894657
 30
0.0
 10
223.6353165403061
 20
21.97928399395659
 30
0.0
 10
224.4575105177961
 20
22.23156441441946
 30
0.0
 10
224.8700861105556
 20
22.23156441441946
 30
0.0
  0
LWPOLYLINE
  5
12D
330
1F
100
AcDbEntity
  8
0
  6
HIDDEN
 62
     7
370
    18
100
AcDbPolyline
 90
        2
 70
   128
 43
0.0
 10
173.0754378273
 20
68.7640089113
 10
173.0754378273
 20
68.7640089113
  0
LINE
  5
12E
330
1F
100
AcDbEntity
  8
0
  6
HIDDEN
 62
     7
370
    18
100
AcDbLine
 10
179.3203299951
 20
67.1989497511
 30
0.0
 11
185.5652221628
 21
67.1989497511
 31
0.0
  0
LINE
  5
12F
330
1F
100
AcDbEntity
  8
0
  6
HIDDEN
 62
     7
370
    18
100
AcDbLine
 10
179.3203299951
 20
67.1989497511
 30
0.0
 11
179.3203299951
 21
65.1585187372
 31
0.0
  0
LINE
  5
130
330
1F
100
AcDbEntity
  8
0
  6
HIDDEN
 62
     7
370
    18
100
AcDbLine
 10
272.9999614796
 20
22.2315644144
 30
0.0
 11
224.8700861106
 21
22.2315644144
 31
0.0
  0
LINE
  5
131
330
1F
100
AcDbEntity
  8
0
  6
HIDDEN
 62
     7
370
    18
100
AcDbLine
 10
190.2167573073
 20
91.9745170271
 30
0.0
 11
272.9999614796
 21
91.9745170271
 31
0.0
  0
ELLIPSE
  5
132
330
1F
100
AcDbEntity
  8
0
  6
HIDDEN
 62
     7
370
    18
100
AcDbEllipse
 10
190.2167573073
 20
87.8112555819
 30
0.0
 11
21.61951015146684
 21
0.0
 31
0.0
210
0.0
220
0.0
230
1.0
 40
0.1925696473
 41
0.0
 42
1.570796326794897
  0
LINE
  5
133
330
1F
100
AcDbEntity
  8
0
  6
HIDDEN
 62
     7
370
    18
100
AcDbLine
 10
185.5652221628
 20
67.1989497511
 30
0.0
 11
211.8362674587
 21
67.1989497511
 31
0.0
  0
LINE
  5
134
330
1F
100
AcDbEntity
  8
0
  6
HIDDEN
 62
     7
370
    18
100
AcDbLine
 10
211.8362674587
 20
87.8112555819
 30
0.0
 11
211.8362674587
 21
67.1989497511
 31
0.0
  0
SPLINE
  5
135
330
1F
100
AcDbEntity
  8
0
  6
HIDDEN
 62
     7
370
    18
100
AcDbSpline
210
0.0
220
0.0
230
1.0
 70
     8
 71
     3
 72
    10
 73
     6
 74
     0
 42
0.00000001
 43
0.00000001
 40
0.0
 40
0.0
 40
0.0
 40
0.0
 40
0.285714285714286
 40
0.571428571428571
 40
1.0
 40
1.0
 40
1.0
 40
1.0
 10
176.1978839111808
 20
63.3557736501666
 30
0.0
 10
176.5574706236754
 20
63.14816616491083
 30
0.0
 10
177.4018049989757
 20
62.95581575319215
 30
0.0
 10
178.82075762005
 20
63.5096345387022
 30
0.0
 10
179.3203299950569
 20
64.53569628145524
 30
0.0
 10
179.3203299950569
 20
65.1585187372226
 30
0.0
  0
LWPOLYLINE
  5
136
330
1F
100
AcDbEntity
  8
0
  6
HIDDEN
 62
     7
370
    18
100
AcDbPolyline
 90
        2
 70
   128
 43
0.0
 10
224.8700861106
 20
22.2315644144
 10
224.8700861106
 20
22.2315644144
  0
LINE
  5
137
330
1F
100
AcDbEntity
  8
0
  6
HIDDEN
 62
     7
370
    18
100
AcDbLine
 10
190.2167573073
 20
91.9745170271
 30
0.0
 11
185.5652221628
 21
91.9745170271
 31
0.0
  0
ARC
  5
138
330
1F
100
AcDbEntity
  8
0
  6
HIDDEN
 62
     7
370
    18
100
AcDbCircle
 10
185.5652221628
 20
85.7296248594
 30
0.0
 40
6.244892167752269
100
AcDbArc
 50
90.0
 51
180.0
  0
LWPOLYLINE
  5
139
330
1F
100
AcDbEntity
  8
0
  6
HIDDEN
 62
     7
370
    18
100
AcDbPolyline
 90
        2
 70
   128
 43
0.0
 10
179.3203299951
 20
65.1585187372
 10
179.3203299951
 20
65.1585187372
  0
LINE
  5
13A
330
1F
100
AcDbEntity
  8
0
  6
HIDDEN
 62
     7
370
    18
100
AcDbLine
 10
179.3203299951
 20
85.7296248594
 30
0.0
 11
179.3203299951
 21
67.1989497511
 31
0.0
  0
LWPOLYLINE
  5
13B
330
1F
100
AcDbEntity
  8
0
  6
HIDDEN
 62
     7
370
    18
100
AcDbPolyline
 90
        2
 70
   128
 43
0.0
 10
179.3203299951
 20
65.1585187372
 10
179.3203299951
 20
65.1585187372
  0
LWPOLYLINE
  5
13C
330
1F
100
AcDbEntity
  8
0
  6
HIDDEN
 62
     7
370
    18
100
AcDbPolyline
 90
        2
 70
   128
 43
0.0
 10
176.1978839112
 20
63.3557736502
 10
176.1978839112
 20
63.3557736502
  0
LWPOLYLINE
  5
13D
330
1F
100
AcDbEntity
  8
0
  6
HIDDEN
 62
     7
370
    18
100
AcDbPolyline
 90
        2
 70
   128
 43
0.0
 10
173.0754378273
 20
68.7640089113
 10
173.0754378273
 20
68.7640089113
  0
LINE
  5
13E
330
1F
100
AcDbEntity
  8
0
  6
HIDDEN
 62
     7
370
    18
100
AcDbLine
 10
181.4019607176
 20
70.7356394554
 30
0.0
 11
179.6866970022
 21
69.02037574
 31
0.0
  0
LINE
  5
13F
330
1F
100
AcDbEntity
  8
0
  6
HIDDEN
 62
     7
370
    18
100
AcDbLine
 10
179.6866970022
 20
85.7296248594
 30
0.0
 11
179.6866970022
 21
69.02037574
 31
0.0
  0
LINE
  5
140
330
1F
100
AcDbEntity
  8
0
  6
HIDDEN
 62
     7
370
    18
100
AcDbLine
 10
181.4019607176
 20
84.014361144
 30
0.0
 11
179.6866970022
 21
85.7296248594
 31
0.0
  0
LINE
  5
141
330
1F
100
AcDbEntity
  8
0
  6
HIDDEN
 62
     7
370
    18
100
AcDbLine
 10
181.4019607176
 20
70.7356394554
 30
0.0
 11
181.4019607176
 21
84.014361144
 31
0.0
  0
LINE
  5
142
330
1F
100
AcDbEntity
  8
0
  6
HIDDEN
 62
     7
370
    18
100
AcDbLine
 10
179.3203299951
 20
85.7296248594
 30
0.0
 11
179.6866970022
 21
85.7296248594
 31
0.0
  0
LINE
  5
143
330
1F
100
AcDbEntity
  8
0
  6
HIDDEN
 62
     7
370
    18
100
AcDbLine
 10
179.3203299951
 20
69.02037574
 30
0.0
 11
179.6866970022
 21
69.02037574
 31
0.0
  0
LINE
  5
144
330
1F
100
AcDbEntity
  8
0
  6
HIDDEN
 62
     7
370
    18
100
AcDbLine
 10
209.5075152619
 20
82.0864917438
 30
0.0
 11
209.5149583244
 21
82.1715179604
 31
0.0
  0
LWPOLYLINE
  5
145
330
1F
100
AcDbEntity
  8
0
  6
HIDDEN
 62
     7
370
    18
100
AcDbPolyline
 90
        3
 70
   128
 43
0.0
 10
211.4029641433
 20
70.7377210862
 10
211.97121051
 20
76.5773162365
 10
212.4182584841
 20
81.1654196136
  0
LINE
  5
146
330
1F
100
AcDbEntity
  8
0
  6
HIDDEN
 62
     7
370
    18
100
AcDbLine
 10
181.4019607176
 20
70.7377210862
 30
0.0
 11
211.4029641433
 21
70.7377210862
 31
0.0
  0
LINE
  5
147
330
1F
100
AcDbEntity
  8
0
  6
HIDDEN
 62
     7
370
    18
100
AcDbLine
 10
180.1071847247
 20
85.3091371368
 30
0.0
 11
212.4182584841
 21
85.3091371368
 31
0.0
  0
LINE
  5
148
330
1F
100
AcDbEntity
  8
0
  6
HIDDEN
 62
     7
370
    18
100
AcDbLine
 10
212.4182584841
 20
85.3091371368
 30
0.0
 11
212.4182584841
 21
81.1654196136
 31
0.0
  0
LWPOLYLINE
  5
149
330
1F
100
AcDbEntity
  8
0
  6
HIDDEN
 62
     7
370
    18
100
AcDbPolyline
 90
        2
 70
   128
 43
0.0
 10
179.3203299951
 20
65.1585187372
 10
179.3203299951
 20
65.1585187372
  0
LWPOLYLINE
  5
14A
330
1F
100
AcDbEntity
  8
0
  6
HIDDEN
 62
     7
370
    18
100
AcDbPolyline
 90
        2
 70
   128
 43
0.0
 10
176.1978839112
 20
63.3557736502
 10
176.1978839112
 20
63.3557736502
  0
LWPOLYLINE
  5
14B
330
1F
100
AcDbEntity
  8
0
  6
HIDDEN
 62
     7
370
    18
100
AcDbPolyline
 90
        2
 70
   128
 43
0.0
 10
173.0754378273
 20
68.7640089113
 10
173.0754378273
 20
68.7640089113
  0
LWPOLYLINE
  5
14C
330
1F
100
AcDbEntity
  8
0
  6
HIDDEN
 62
     7
370
    18
100
AcDbPolyline
 90
        2
 70
   128
 43
0.0
 10
179.3203299951
 20
65.1585187372
 10
179.3203299951
 20
65.1585187372
  0
LWPOLYLINE
  5
14D
330
1F
100
AcDbEntity
  8
0
  6
HIDDEN
 62
     7
370
    18
100
AcDbPolyline
 90
        2
 70
   128
 43
0.0
 10
173.0754378273
 20
68.7640089113
 10
173.0754378273
 20
68.7640089113
  0
SPLINE
  5
14E
330
1F
100
AcDbEntity
  8
0
  6
HIDDEN
 62
     7
370
    18
100
AcDbSpline
210
0.0
220
0.0
230
1.0
 70
     8
 71
     3
 72
    12
 73
     8
 74
     0
 42
0.00000001
 43
0.00000001
 40
0.0
 40
0.0
 40
0.0
 40
0.0
 40
0.2377419398448513
 40
0.4759224366497607
 40
0.7134858465904669
 40
0.9505113561451172
 40
1.0
 40
1.0
 40
1.0
 40
1.0
 10
219.3846400605401
 20
25.27774007986309
 30
0.0
 10
219.6180724252376
 20
24.90775233529304
 30
0.0
 10
220.0853677618209
 20
24.16709433846993
 30
0.0
 10
220.7558045640896
 20
23.07200406572531
 30
0.0
 10
221.3734637099381
 20
22.04414487543912
 30
0.0
 10
221.8032142300144
 20
21.31808507348125
 30
0.0
 10
221.9879436164352
 20
20.99854922649362
 30
0.0
 10
222.0198513135082
 20
20.94335685452085
 30
0.0
  0
SPLINE
  5
14F
330
1F
100
AcDbEntity
  8
0
  6
HIDDEN
 62
     7
370
    18
100
AcDbSpline
210
0.0
220
0.0
230
1.0
 70
     8
 71
     3
 72
     9
 73
     5
 74
     0
 42
0.00000001
 43
0.00000001
 40
0.0
 40
0.0
 40
0.0
 40
0.0
 40
0.0386458652303041
 40
1.0
 40
1.0
 40
1.0
 40
1.0
 10
179.4592327009561
 20
62.06774803283469
 30
0.0
 10
179.4637914661829
 20
62.06600009250054
 30
0.0
 10
179.5817540269823
 20
62.02077040689927
 30
0.0
 10
179.7205343085544
 20
61.96269024544749
 30
0.0
 10
179.8539513060681
 20
61.90685464208773
 30
0.0
  0
LINE
  5
150
330
1F
100
AcDbEntity
  8
0
  6
HIDDEN
 62
     7
370
    18
100
AcDbLine
 10
177.1357910819
 20
62.9303068281
 30
0.0
 11
177.7784468408
 21
62.7553045378
 31
0.0
  0
LINE
  5
151
330
1F
100
AcDbEntity
  8
0
  6
HIDDEN
 62
     7
370
    18
100
AcDbLine
 10
209.5075143077
 20
82.0864918274
 30
0.0
 11
208.5139322764
 21
70.7377210862
 31
0.0
  0
ENDSEC
  0
SECTION
  2
OBJECTS
  0
DICTIONARY
  5
C
330
0
100
AcDbDictionary
281
     1
  3
ACAD_GROUP
350
D
  3
ACAD_LAYOUT
350
1A
  3
ACAD_MLINESTYLE
350
17
  3
ACAD_PLOTSETTINGS
350
19
  3
ACAD_PLOTSTYLENAME
350
E
  3
ACAD_SCALELIST
350
47
  3
DWGPROPS
350
152
  0
DICTIONARY
  5
D
102
{ACAD_REACTORS
330
C
102
}
330
C
100
AcDbDictionary
281
     1
  0
DICTIONARY
  5
1A
102
{ACAD_REACTORS
330
C
102
}
330
C
100
AcDbDictionary
281
     1
  3
Layout1
350
1E
  3
Layout2
350
26
  3
Model
350
22
  0
DICTIONARY
  5
17
102
{ACAD_REACTORS
330
C
102
}
330
C
100
AcDbDictionary
281
     1
  3
Standard
350
18
  0
DICTIONARY
  5
19
102
{ACAD_REACTORS
330
C
102
}
330
C
100
AcDbDictionary
281
     1
  0
ACDBDICTIONARYWDFLT
  5
E
102
{ACAD_REACTORS
330
C
102
}
330
C
100
AcDbDictionary
281
     1
  3
Normal
350
F
100
AcDbDictionaryWithDefault
340
F
  0
DICTIONARY
  5
47
102
{ACAD_REACTORS
330
C
102
}
330
C
100
AcDbDictionary
281
     1
  3
A0
350
48
  3
A1
350
49
  3
A2
350
4A
  3
A3
350
4B
  3
A4
350
4C
  3
A5
350
4D
  3
A6
350
4E
  3
A7
350
4F
  3
A8
350
50
  3
A9
350
51
  3
B0
350
52
  3
B1
350
53
  3
B2
350
54
  3
B3
350
55
  3
B4
350
56
  3
B5
350
57
  3
B6
350
58
  0
XRECORD
  5
152
102
{ACAD_REACTORS
330
C
102
}
330
C
100
AcDbXrecord
280
     1
  1
DWGPROPS COOKIE
  2

  3

  4

  6

  7

  8

  9

300
=
301
=
302
=
303
=
304
=
305
=
306
=
307
=
308
=
309
=
 40
0.0
 41
2461215.467116412
 42
2461215.467116956
  1

 90
        0
  0
LAYOUT
  5
1E
102
{ACAD_REACTORS
330
1A
102
}
330
1A
100
AcDbPlotSettings
  1

  2
none_device
  4

  6

 40
0.0
 41
0.0
 42
0.0
 43
0.0
 44
0.0
 45
0.0
 46
0.0
 47
0.0
 48
0.0
 49
0.0
140
0.0
141
0.0
142
1.0
143
1.0
 70
   688
 72
     1
 73
     0
 74
     5
  7

 75
    16
147
1.0
148
0.0
149
0.0
100
AcDbLayout
  1
Layout1
 70
     1
 71
     1
 10
0.0
 20
0.0
 11
420.0
 21
297.0
 12
0.0
 22
0.0
 32
0.0
 14
1.0000000000E+20
 24
1.0000000000E+20
 34
1.0000000000E+20
 15
-1.0000000000E+20
 25
-1.0000000000E+20
 35
-1.0000000000E+20
146
0.0
 13
0.0
 23
0.0
 33
0.0
 16
1.0
 26
0.0
 36
0.0
 17
0.0
 27
1.0
 37
0.0
 76
     0
330
1B
  0
LAYOUT
  5
26
102
{ACAD_REACTORS
330
1A
102
}
330
1A
100
AcDbPlotSettings
  1

  2
none_device
  4

  6

 40
0.0
 41
0.0
 42
0.0
 43
0.0
 44
0.0
 45
0.0
 46
0.0
 47
0.0
 48
0.0
 49
0.0
140
0.0
141
0.0
142
1.0
143
1.0
 70
   688
 72
     1
 73
     0
 74
     5
  7

 75
    16
147
1.0
148
0.0
149
0.0
100
AcDbLayout
  1
Layout2
 70
     1
 71
     2
 10
0.0
 20
0.0
 11
0.0
 21
0.0
 12
0.0
 22
0.0
 32
0.0
 14
0.0
 24
0.0
 34
0.0
 15
0.0
 25
0.0
 35
0.0
146
0.0
 13
0.0
 23
0.0
 33
0.0
 16
1.0
 26
0.0
 36
0.0
 17
0.0
 27
1.0
 37
0.0
 76
     0
330
23
  0
LAYOUT
  5
22
102
{ACAD_REACTORS
330
1A
102
}
330
1A
100
AcDbPlotSettings
  1

  2
none_device
  4
Letter_(8.50_x_11.00_Inches)
  6

 40
6.35
 41
6.35
 42
6.35000508
 43
6.35000508
 44
215.9
 45
279.4
 46
0.0
 47
0.0
 48
0.0
 49
0.0
140
0.0
141
0.0
142
1.0
143
1.0
 70
  1712
 72
     1
 73
     0
 74
     0
  7

 75
     0
147
1.0
148
0.0
149
0.0
100
AcDbLayout
  1
Model
 70
     1
 71
     0
 10
0.0
 20
0.0
 11
297.0
 21
210.0
 12
0.0
 22
0.0
 32
0.0
 14
0.0
 24
0.0
 34
0.0
 15
297.0
 25
210.0
 35
0.0
146
0.0
 13
0.0
 23
0.0
 33
0.0
 16
1.0
 26
0.0
 36
0.0
 17
0.0
 27
1.0
 37
0.0
 76
     0
330
1F
331
29
  0
MLINESTYLE
  5
18
102
{ACAD_REACTORS
330
17
102
}
330
17
100
AcDbMlineStyle
  2
Standard
 70
     0
  3

 62
   256
 51
90.0
 52
90.0
 71
     2
 49
0.5
 62
   256
  6
BYLAYER
 49
-0.5
 62
   256
  6
BYLAYER
  0
ACDBPLACEHOLDER
  5
F
102
{ACAD_REACTORS
330
E
102
}
330
E
  0
SCALE
  5
48
102
{ACAD_REACTORS
330
47
102
}
330
47
100
AcDbScale
 70
     0
300
1:1
140
1.0
141
1.0
290
     1
  0
SCALE
  5
49
102
{ACAD_REACTORS
330
47
102
}
330
47
100
AcDbScale
 70
     0
300
1:2
140
1.0
141
2.0
290
     0
  0
SCALE
  5
4A
102
{ACAD_REACTORS
330
47
102
}
330
47
100
AcDbScale
 70
     0
300
1:4
140
1.0
141
4.0
290
     0
  0
SCALE
  5
4B
102
{ACAD_REACTORS
330
47
102
}
330
47
100
AcDbScale
 70
     0
300
1:5
140
1.0
141
5.0
290
     0
  0
SCALE
  5
4C
102
{ACAD_REACTORS
330
47
102
}
330
47
100
AcDbScale
 70
     0
300
1:8
140
1.0
141
8.0
290
     0
  0
SCALE
  5
4D
102
{ACAD_REACTORS
330
47
102
}
330
47
100
AcDbScale
 70
     0
300
1:10
140
1.0
141
10.0
290
     0
  0
SCALE
  5
4E
102
{ACAD_REACTORS
330
47
102
}
330
47
100
AcDbScale
 70
     0
300
1:16
140
1.0
141
16.0
290
     0
  0
SCALE
  5
4F
102
{ACAD_REACTORS
330
47
102
}
330
47
100
AcDbScale
 70
     0
300
1:20
140
1.0
141
20.0
290
     0
  0
SCALE
  5
50
102
{ACAD_REACTORS
330
47
102
}
330
47
100
AcDbScale
 70
     0
300
1:30
140
1.0
141
30.0
290
     0
  0
SCALE
  5
51
102
{ACAD_REACTORS
330
47
102
}
330
47
100
AcDbScale
 70
     0
300
1:40
140
1.0
141
40.0
290
     0
  0
SCALE
  5
52
102
{ACAD_REACTORS
330
47
102
}
330
47
100
AcDbScale
 70
     0
300
1:50
140
1.0
141
50.0
290
     0
  0
SCALE
  5
53
102
{ACAD_REACTORS
330
47
102
}
330
47
100
AcDbScale
 70
     0
300
1:100
140
1.0
141
100.0
290
     0
  0
SCALE
  5
54
102
{ACAD_REACTORS
330
47
102
}
330
47
100
AcDbScale
 70
     0
300
2:1
140
2.0
141
1.0
290
     0
  0
SCALE
  5
55
102
{ACAD_REACTORS
330
47
102
}
330
47
100
AcDbScale
 70
     0
300
4:1
140
4.0
141
1.0
290
     0
  0
SCALE
  5
56
102
{ACAD_REACTORS
330
47
102
}
330
47
100
AcDbScale
 70
     0
300
8:1
140
8.0
141
1.0
290
     0
  0
SCALE
  5
57
102
{ACAD_REACTORS
330
47
102
}
330
47
100
AcDbScale
 70
     0
300
10:1
140
10.0
141
1.0
290
     0
  0
SCALE
  5
58
102
{ACAD_REACTORS
330
47
102
}
330
47
100
AcDbScale
 70
     0
300
100:1
140
100.0
141
1.0
290
     0
  0
ENDSEC
  0
EOF
