  0
SECTION
  2
HEADER
  9
$ACADVER
  1
AC1015
  9
$ACADMAINTVER
 70
     6
  9
$DWGCODEPAGE
  3
ANSI_936
  9
$INSBASE
 10
0.0
 20
0.0
 30
0.0
  9
$EXTMIN
 10
0.0
 20
0.0
 30
0.0
  9
$EXTMAX
 10
297.0
 20
210.0
 30
0.0
  9
$LIMMIN
 10
0.0
 20
0.0
  9
$LIMMAX
 10
297.0
 20
210.0
  9
$ORTHOMODE
 70
     0
  9
$REGENMODE
 70
     1
  9
$FILLMODE
 70
     1
  9
$QTEXTMODE
 70
     0
  9
$MIRRTEXT
 70
     1
  9
$LTSCALE
 40
1.0
  9
$ATTMODE
 70
     1
  9
$TEXTSIZE
 40
3.5
  9
$TRACEWID
 40
1.0
  9
$TEXTSTYLE
  7
Standard
  9
$CLAYER
  8
0
  9
$CELTYPE
  6
ByLayer
  9
$CECOLOR
 62
   256
  9
$CELTSCALE
 40
1.0
  9
$DISPSILH
 70
     0
  9
$DIMSCALE
 40
1.0
  9
$DIMASZ
 40
4.08
  9
$DIMEXO
 40
0.0
  9
$DIMDLI
 40
3.75
  9
$DIMRND
 40
0.0
  9
$DIMDLE
 40
0.0
  9
$DIMEXE
 40
2.0
  9
$DIMTP
 40
0.0
  9
$DIMTM
 40
0.0
  9
$DIMTXT
 40
3.5
  9
$DIMCEN
 40
2.5
  9
$DIMTSZ
 40
0.0
  9
$DIMTOL
 70
     0
  9
$DIMLIM
 70
     0
  9
$DIMTIH
 70
     1
  9
$DIMTOH
 70
     1
  9
$DIMSE1
 70
     0
  9
$DIMSE2
 70
     0
  9
$DIMTAD
 70
     1
  9
$DIMZIN
 70
     0
  9
$DIMBLK
  1

  9
$DIMASO
 70
     1
  9
$DIMSHO
 70
     1
  9
$DIMPOST
  1

  9
$DIMAPOST
  1

  9
$DIMALT
 70
     0
  9
$DIMALTD
 70
     3
  9
$DIMALTF
 40
0.0393700787
  9
$DIMLFAC
 40
2.0
  9
$DIMTOFL
 70
     1
  9
$DIMTVP
 40
0.0
  9
$DIMTIX
 70
     0
  9
$DIMSOXD
 70
     0
  9
$DIMSAH
 70
     0
  9
$DIMBLK1
  1

  9
$DIMBLK2
  1

  9
$DIMSTYLE
  2
ISO-25
  9
$DIMCLRD
 70
     0
  9
$DIMCLRE
 70
     0
  9
$DIMCLRT
 70
     0
  9
$DIMTFAC
 40
1.0
  9
$DIMGAP
 40
1.524
  9
$DIMJUST
 70
     0
  9
$DIMSD1
 70
     0
  9
$DIMSD2
 70
     0
  9
$DIMTOLJ
 70
     0
  9
$DIMTZIN
 70
     0
  9
$DIMALTZ
 70
     0
  9
$DIMALTTZ
 70
     0
  9
$DIMUPT
 70
     0
  9
$DIMDEC
 70
     2
  9
$DIMTDEC
 70
     2
  9
$DIMALTU
 70
     2
  9
$DIMALTTD
 70
     3
  9
$DIMTXSTY
  7
Standard
  9
$DIMAUNIT
 70
     0
  9
$DIMADEC
 70
     2
  9
$DIMALTRND
 40
0.0
  9
$DIMAZIN
 70
     0
  9
$DIMDSEP
 70
    44
  9
$DIMATFIT
 70
     3
  9
$DIMFRAC
 70
     0
  9
$DIMLDRBLK
  1

  9
$DIMLUNIT
 70
     2
  9
$DIMLWD
 70
    -2
  9
$DIMLWE
 70
    -2
  9
$DIMTMOVE
 70
     0
  9
$LUNITS
 70
     2
  9
$LUPREC
 70
     2
  9
$SKETCHINC
 40
1.0
  9
$FILLETRAD
 40
0.0
  9
$AUNITS
 70
     0
  9
$AUPREC
 70
     2
  9
$MENU
  1
.
  9
$ELEVATION
 40
0.0
  9
$PELEVATION
 40
0.0
  9
$THICKNESS
 40
0.0
  9
$LIMCHECK
 70
     0
  9
$CHAMFERA
 40
0.0
  9
$CHAMFERB
 40
0.0
  9
$CHAMFERC
 40
0.0
  9
$CHAMFERD
 40
0.0
  9
$SKPOLY
 70
     0
  9
$TDCREATE
 40
2461214.278925938
  9
$TDUCREATE
 40
2461213.945592604
  9
$TDUPDATE
 40
2461214.278926239
  9
$TDUUPDATE
 40
2461213.945592905
  9
$TDINDWG
 40
0.0000000116
  9
$TDUSRTIMER
 40
0.0000000116
  9
$USRTIMER
 70
     1
  9
$ANGBASE
 50
0.0
  9
$ANGDIR
 70
     0
  9
$PDMODE
 70
     0
  9
$PDSIZE
 40
-1.0
  9
$PLINEWID
 40
0.0
  9
$SPLFRAME
 70
     0
  9
$SPLINETYPE
 70
     6
  9
$SPLINESEGS
 70
     8
  9
$HANDSEED
  5
12E
  9
$SURFTAB1
 70
     6
  9
$SURFTAB2
 70
     6
  9
$SURFTYPE
 70
     6
  9
$SURFU
 70
     6
  9
$SURFV
 70
     6
  9
$UCSBASE
  2

  9
$UCSNAME
  2

  9
$UCSORG
 10
0.0
 20
0.0
 30
0.0
  9
$UCSXDIR
 10
1.0
 20
0.0
 30
0.0
  9
$UCSYDIR
 10
0.0
 20
1.0
 30
0.0
  9
$UCSORTHOREF
  2

  9
$UCSORTHOVIEW
 70
     0
  9
$UCSORGTOP
 10
0.0
 20
0.0
 30
0.0
  9
$UCSORGBOTTOM
 10
0.0
 20
0.0
 30
0.0
  9
$UCSORGLEFT
 10
0.0
 20
0.0
 30
0.0
  9
$UCSORGRIGHT
 10
0.0
 20
0.0
 30
0.0
  9
$UCSORGFRONT
 10
0.0
 20
0.0
 30
0.0
  9
$UCSORGBACK
 10
0.0
 20
0.0
 30
0.0
  9
$PUCSBASE
  2

  9
$PUCSNAME
  2

  9
$PUCSORG
 10
0.0
 20
0.0
 30
0.0
  9
$PUCSXDIR
 10
1.0
 20
0.0
 30
0.0
  9
$PUCSYDIR
 10
0.0
 20
1.0
 30
0.0
  9
$PUCSORTHOREF
  2

  9
$PUCSORTHOVIEW
 70
     0
  9
$PUCSORGTOP
 10
0.0
 20
0.0
 30
0.0
  9
$PUCSORGBOTTOM
 10
0.0
 20
0.0
 30
0.0
  9
$PUCSORGLEFT
 10
0.0
 20
0.0
 30
0.0
  9
$PUCSORGRIGHT
 10
0.0
 20
0.0
 30
0.0
  9
$PUCSORGFRONT
 10
0.0
 20
0.0
 30
0.0
  9
$PUCSORGBACK
 10
0.0
 20
0.0
 30
0.0
  9
$USERI1
 70
     0
  9
$USERI2
 70
     0
  9
$USERI3
 70
     0
  9
$USERI4
 70
     0
  9
$USERI5
 70
     0
  9
$USERR1
 40
0.0
  9
$USERR2
 40
0.0
  9
$USERR3
 40
0.0
  9
$USERR4
 40
0.0
  9
$USERR5
 40
0.0
  9
$WORLDVIEW
 70
     1
  9
$SHADEDGE
 70
     3
  9
$SHADEDIF
 70
    70
  9
$TILEMODE
 70
     1
  9
$MAXACTVP
 70
    64
  9
$PINSBASE
 10
0.0
 20
0.0
 30
0.0
  9
$PLIMCHECK
 70
     0
  9
$PEXTMIN
 10
1.0000000000E+20
 20
1.0000000000E+20
 30
1.0000000000E+20
  9
$PEXTMAX
 10
-1.0000000000E+20
 20
-1.0000000000E+20
 30
-1.0000000000E+20
  9
$PLIMMIN
 10
0.0
 20
0.0
  9
$PLIMMAX
 10
420.0
 20
297.0
  9
$UNITMODE
 70
     0
  9
$VISRETAIN
 70
     1
  9
$PLINEGEN
 70
     0
  9
$PSLTSCALE
 70
     1
  9
$TREEDEPTH
 70
  3020
  9
$CMLSTYLE
  2
Standard
  9
$CMLJUST
 70
     0
  9
$CMLSCALE
 40
20.0
  9
$PROXYGRAPHICS
 70
     1
  9
$MEASUREMENT
 70
     1
  9
$CELWEIGHT
370
    -1
  9
$ENDCAPS
280
     0
  9
$JOINSTYLE
280
     0
  9
$LWDISPLAY
290
     1
  9
$INSUNITS
 70
     4
  9
$HYPERLINKBASE
  1

  9
$STYLESHEET
  1

  9
$XEDIT
290
     1
  9
$CEPSNTYPE
380
     0
  9
$PSTYLEMODE
290
     1
  9
$FINGERPRINTGUID
  2
{0680e5a2-10b9-4c99-9b70-0c3ac426eeb8}
  9
$VERSIONGUID
  2
{FAEB1C32-E019-11D5-929B-00C0DF256EC4}
  9
$EXTNAMES
290
     1
  9
$PSVPSCALE
 40
0.0
  9
$OLESTARTUP
290
     0
  0
ENDSEC
  0
SECTION
  2
CLASSES
  0
CLASS
  1
ACDBDICTIONARYWDFLT
  2
AcDbDictionaryWithDefault
  3
ObjectDBX Classes
 90
        0
280
     0
281
     0
  0
CLASS
  1
VISUALSTYLE
  2
AcDbVisualStyle
  3
ObjectDBX Classes
 90
     4095
280
     0
281
     0
  0
CLASS
  1
MATERIAL
  2
AcDbMaterial
  3
ObjectDBX Classes
 90
     1153
280
     0
281
     0
  0
CLASS
  1
SCALE
  2
AcDbScale
  3
ObjectDBX Classes
 90
     1153
280
     0
281
     0
  0
CLASS
  1
TABLESTYLE
  2
AcDbTableStyle
  3
ObjectDBX Classes
 90
     4095
280
     0
281
     0
  0
CLASS
  1
MLEADERSTYLE
  2
AcDbMLeaderStyle
  3
ACDB_MLEADERSTYLE_CLASS
 90
     4095
280
     0
281
     0
  0
CLASS
  1
SUN
  2
AcDbSun
  3
SCENEOE
 90
     1153
280
     0
281
     0
  0
CLASS
  1
ACDBPLACEHOLDER
  2
AcDbPlaceHolder
  3
ObjectDBX Classes
 90
        0
280
     0
281
     0
  0
CLASS
  1
LAYOUT
  2
AcDbLayout
  3
ObjectDBX Classes
 90
        0
280
     0
281
     0
  0
ENDSEC
  0
SECTION
  2
TABLES
  0
TABLE
  2
VPORT
  5
8
330
0
100
AcDbSymbolTable
 70
     1
  0
VPORT
  5
29
330
8
100
AcDbSymbolTableRecord
100
AcDbViewportTableRecord
  2
*Active
 70
     0
 10
0.0
 20
0.0
 11
1.0
 21
1.0
 12
148.5
 22
105.0
 13
0.0
 23
0.0
 14
10.0
 24
10.0
 15
10.0
 25
10.0
 16
0.0
 26
0.0
 36
1.0
 17
0.0
 27
0.0
 37
0.0
 40
210.0
 41
1.4142857143
 42
50.0
 43
0.0
 44
0.0
 50
0.0
 51
0.0
 71
     0
 72
  2000
 73
     1
 74
     3
 75
     0
 76
     0
 77
     0
 78
     0
281
     0
 65
     1
110
0.0
120
0.0
130
0.0
111
1.0
121
0.0
131
0.0
112
0.0
122
1.0
132
0.0
 79
     0
146
0.0
  0
ENDTAB
  0
TABLE
  2
LTYPE
  5
5
330
0
100
AcDbSymbolTable
 70
     6
  0
LTYPE
  5
14
330
5
100
AcDbSymbolTableRecord
100
AcDbLinetypeTableRecord
  2
ByBlock
 70
     0
  3

 72
    65
 73
     0
 40
0.0
  0
LTYPE
  5
15
330
5
100
AcDbSymbolTableRecord
100
AcDbLinetypeTableRecord
  2
ByLayer
 70
     0
  3

 72
    65
 73
     0
 40
0.0
  0
LTYPE
  5
16
330
5
100
AcDbSymbolTableRecord
100
AcDbLinetypeTableRecord
  2
Continuous
 70
     0
  3
Solid line
 72
    65
 73
     0
 40
0.0
  0
LTYPE
  5
5E
330
5
100
AcDbSymbolTableRecord
100
AcDbLinetypeTableRecord
  2
HIDDEN
 70
     0
  3
Hidden __ __ __ __ __ __ __ __ __ __ __ __ __ __
 72
    65
 73
     2
 40
1.905
 49
1.27
 74
     0
 49
-0.635
 74
     0
  0
LTYPE
  5
5F
330
5
100
AcDbSymbolTableRecord
100
AcDbLinetypeTableRecord
  2
PHANTOM
 70
     0
  3
Phantom ______  __  __  ______  __  __  ______
 72
    65
 73
     6
 40
12.7
 49
6.35
 74
     0
 49
-1.27
 74
     0
 49
1.27
 74
     0
 49
-1.27
 74
     0
 49
1.27
 74
     0
 49
-1.27
 74
     0
  0
LTYPE
  5
60
330
5
100
AcDbSymbolTableRecord
100
AcDbLinetypeTableRecord
  2
CENTER
 70
     0
  3
Center ____ _ ____ _ ____ _ ____ _ ____ _ ____
 72
    65
 73
     4
 40
10.16
 49
6.35
 74
     0
 49
-1.27
 74
     0
 49
1.27
 74
     0
 49
-1.27
 74
     0
  0
LTYPE
  5
61
330
5
100
AcDbSymbolTableRecord
100
AcDbLinetypeTableRecord
  2
CENTERX2
 70
     0
  3
Center (2x) ________  __  ________  __  _____
 72
    65
 73
     4
 40
20.32
 49
12.7
 74
     0
 49
-2.54
 74
     0
 49
2.54
 74
     0
 49
-2.54
 74
     0
  0
LTYPE
  5
62
330
5
100
AcDbSymbolTableRecord
100
AcDbLinetypeTableRecord
  2
DOT2
 70
     0
  3
Dot (.5x) ........................................
 72
    65
 73
     2
 40
0.635
 49
0.0
 74
     0
 49
-0.635
 74
     0
  0
ENDTAB
  0
TABLE
  2
LAYER
  5
2
330
0
100
AcDbSymbolTable
 70
    14
  0
LAYER
  5
10
330
2
100
AcDbSymbolTableRecord
100
AcDbLayerTableRecord
  2
0
 70
     0
 62
     7
  6
Continuous
370
    -3
390
F
  0
LAYER
  5
63
330
2
100
AcDbSymbolTableRecord
100
AcDbLayerTableRecord
  2
SLD-0
 70
     0
 62
     7
  6
Continuous
370
    -3
390
F
  0
LAYER
  5
64
330
2
100
AcDbSymbolTableRecord
100
AcDbLayerTableRecord
  2
5
 70
     0
 62
     7
  6
Continuous
370
    -3
390
F
  0
LAYER
  5
65
330
2
100
AcDbSymbolTableRecord
100
AcDbLayerTableRecord
  2
9
 70
     0
 62
     7
  6
Continuous
370
    -3
390
F
  0
LAYER
  5
66
330
2
100
AcDbSymbolTableRecord
100
AcDbLayerTableRecord
  2
10
 70
     0
 62
     7
  6
Continuous
370
    -3
390
F
  0
LAYER
  5
67
330
2
100
AcDbSymbolTableRecord
100
AcDbLayerTableRecord
  2
轮廓实线层
 70
     0
 62
     7
  6
Continuous
370
    50
390
F
  0
LAYER
  5
68
330
2
100
AcDbSymbolTableRecord
100
AcDbLayerTableRecord
  2
细线层
 70
     0
 62
     4
  6
Continuous
370
    25
390
F
  0
LAYER
  5
69
330
2
100
AcDbSymbolTableRecord
100
AcDbLayerTableRecord
  2
中心线层
 70
     0
 62
     1
  6
CENTERX2
370
    25
390
F
  0
LAYER
  5
6A
330
2
100
AcDbSymbolTableRecord
100
AcDbLayerTableRecord
  2
虚线层
 70
     0
 62
     6
  6
HIDDEN
370
    25
390
F
  0
LAYER
  5
6B
330
2
100
AcDbSymbolTableRecord
100
AcDbLayerTableRecord
  2
剖面线层
 70
     0
 62
     2
  6
Continuous
370
    25
390
F
  0
LAYER
  5
6C
330
2
100
AcDbSymbolTableRecord
100
AcDbLayerTableRecord
  2
文字层
 70
     0
 62
     3
  6
Continuous
370
    25
390
F
  0
LAYER
  5
6D
330
2
100
AcDbSymbolTableRecord
100
AcDbLayerTableRecord
  2
标注层
 70
     0
 62
     4
  6
Continuous
370
    25
390
F
  0
LAYER
  5
6E
330
2
100
AcDbSymbolTableRecord
100
AcDbLayerTableRecord
  2
符号标注层
 70
     0
 62
    31
  6
Continuous
370
    25
390
F
  0
LAYER
  5
6F
330
2
100
AcDbSymbolTableRecord
100
AcDbLayerTableRecord
  2
双点划线层
 70
     0
 62
     6
  6
PHANTOM
370
    25
390
F
  0
ENDTAB
  0
TABLE
  2
STYLE
  5
3
330
0
100
AcDbSymbolTable
 70
     1
  0
STYLE
  5
11
330
3
100
AcDbSymbolTableRecord
100
AcDbTextStyleTableRecord
  2
Standard
 70
     0
 40
0.0
 41
1.0
 50
0.0
 71
     0
 42
3.5
  3
txt
  4

  0
ENDTAB
  0
TABLE
  2
VIEW
  5
6
330
0
100
AcDbSymbolTable
 70
     0
  0
ENDTAB
  0
TABLE
  2
UCS
  5
7
330
0
100
AcDbSymbolTable
 70
     0
  0
ENDTAB
  0
TABLE
  2
APPID
  5
9
330
0
100
AcDbSymbolTable
 70
     1
  0
APPID
  5
12
330
9
100
AcDbSymbolTableRecord
100
AcDbRegAppTableRecord
  2
ACAD
 70
     0
  0
ENDTAB
  0
TABLE
  2
DIMSTYLE
  5
A
330
0
100
AcDbSymbolTable
 70
     1
100
AcDbDimStyleTable
  0
DIMSTYLE
105
27
330
A
100
AcDbSymbolTableRecord
100
AcDbDimStyleTableRecord
  2
ISO-25
 70
     0
 41
2.5
 42
0.625
 43
3.75
 44
1.25
 73
     0
 74
     0
 77
     1
 78
     8
140
2.5
141
2.5
143
0.0393700787
147
0.625
171
     3
172
     1
178
     0
271
     2
272
     2
274
     3
278
    44
283
     0
284
     8
340
11
  0
ENDTAB
  0
TABLE
  2
BLOCK_RECORD
  5
1
330
0
100
AcDbSymbolTable
 70
     1
  0
BLOCK_RECORD
  5
1F
330
1
100
AcDbSymbolTableRecord
100
AcDbBlockTableRecord
  2
*Model_Space
340
22
  0
BLOCK_RECORD
  5
1B
330
1
100
AcDbSymbolTableRecord
100
AcDbBlockTableRecord
  2
*Paper_Space
340
1E
  0
BLOCK_RECORD
  5
23
330
1
100
AcDbSymbolTableRecord
100
AcDbBlockTableRecord
  2
*Paper_Space0
340
26
  0
ENDTAB
  0
ENDSEC
  0
SECTION
  2
BLOCKS
  0
BLOCK
  5
20
330
1F
100
AcDbEntity
  8
0
100
AcDbBlockBegin
  2
*Model_Space
 70
     0
 10
0.0
 20
0.0
 30
0.0
  3
*Model_Space
  1

  0
ENDBLK
  5
21
330
1F
100
AcDbEntity
  8
0
100
AcDbBlockEnd
  0
BLOCK
  5
1C
330
1B
100
AcDbEntity
 67
     1
  8
0
100
AcDbBlockBegin
  2
*Paper_Space
 70
     0
 10
0.0
 20
0.0
 30
0.0
  3
*Paper_Space
  1

  0
ENDBLK
  5
1D
330
1B
100
AcDbEntity
 67
     1
  8
0
100
AcDbBlockEnd
  0
BLOCK
  5
24
330
23
100
AcDbEntity
  8
0
100
AcDbBlockBegin
  2
*Paper_Space0
 70
     0
 10
0.0
 20
0.0
 30
0.0
  3
*Paper_Space0
  1

  0
ENDBLK
  5
25
330
23
100
AcDbEntity
  8
0
100
AcDbBlockEnd
  0
ENDSEC
  0
SECTION
  2
ENTITIES
  0
ARC
  5
70
330
1F
100
AcDbEntity
  8
0
  6
Continuous
 62
     7
370
    25
100
AcDbCircle
 10
34.8061636351
 20
31.6871724511
 30
0.0
 40
1.763961132303379
100
AcDbArc
 50
180.0
 51
270.0
  0
ARC
  5
71
330
1F
100
AcDbEntity
  8
0
  6
Continuous
 62
     7
370
    25
100
AcDbCircle
 10
41.8620081643
 20
31.6871724511
 30
0.0
 40
1.763961132303379
100
AcDbArc
 50
270.0
 51
0.0
  0
LINE
  5
72
330
1F
100
AcDbEntity
  8
0
  6
Continuous
 62
     7
370
    25
100
AcDbLine
 10
34.8061636351
 20
29.9232113188
 30
0.0
 11
41.8620081643
 21
29.9232113188
 31
0.0
  0
SPLINE
  5
73
330
1F
100
AcDbEntity
  8
0
  6
Continuous
 62
     7
370
    25
100
AcDbSpline
210
0.0
220
0.0
230
1.0
 70
     8
 71
     3
 72
    14
 73
    10
 74
     0
 42
0.00000001
 43
0.00000001
 40
0.0
 40
0.0
 40
0.0
 40
0.0
 40
0.0666711249355713
 40
0.1338456802516369
 40
0.2634734467169091
 40
0.3866913520967482
 40
0.5069615789547847
 40
0.7471581448640721
 40
1.0
 40
1.0
 40
1.0
 40
1.0
 10
34.80616363511208
 20
50.62914796371579
 30
0.0
 10
34.72138806856896
 20
50.62406903026256
 30
0.0
 10
34.55119679935538
 20
50.61387281257976
 30
0.0
 10
34.23006407423394
 20
50.51594093576802
 30
0.0
 10
33.88360589797299
 20
50.30540381171696
 30
0.0
 10
33.57773747740774
 20
49.96512107945131
 30
0.0
 10
33.28769902487515
 20
49.46415918668087
 30
0.0
 10
33.07866587078543
 20
48.76677358666235
 30
0.0
 10
33.05456301950039
 20
48.20012759747951
 30
0.0
 10
33.04220250280869
 20
47.90953802677912
 30
0.0
  0
LINE
  5
74
330
1F
100
AcDbEntity
  8
0
  6
Continuous
 62
     7
370
    25
100
AcDbLine
 10
41.8620081643
 20
50.6291521597
 30
0.0
 11
34.8061636351
 21
50.6291521597
 31
0.0
  0
SPLINE
  5
75
330
1F
100
AcDbEntity
  8
0
  6
Continuous
 62
     7
370
    25
100
AcDbSpline
210
0.0
220
0.0
230
1.0
 70
     8
 71
     3
 72
    12
 73
     8
 74
     0
 42
0.00000001
 43
0.00000001
 40
0.0
 40
0.0
 40
0.0
 40
0.0
 40
0.0868603894636806
 40
0.3795716570734349
 40
0.6841855936492822
 40
0.8408295879026471
 40
1.0
 40
1.0
 40
1.0
 40
1.0
 10
43.46653496576435
 20
49.45129088829987
 30
0.0
 10
43.44937371050027
 20
49.51040601004577
 30
0.0
 10
43.37438065396132
 20
49.76873348080354
 30
0.0
 10
43.05781703261724
 20
50.15922712497768
 30
0.0
 10
42.61730385547479
 20
50.47015849942863
 30
0.0
 10
42.19661219070343
 20
50.60845889575547
 30
0.0
 10
41.9741360865232
 20
50.6222149263949
 30
0.0
 10
41.86200816432557
 20
50.62914796371579
 30
0.0
  0
LINE
  5
76
330
1F
100
AcDbEntity
  8
0
  6
Continuous
 62
     7
370
    25
100
AcDbLine
 10
43.5959908653
 20
49.0517417625
 30
0.0
 11
43.4665349658
 21
49.4512908883
 31
0.0
  0
ARC
  5
77
330
1F
100
AcDbEntity
  8
0
  6
Continuous
 62
     7
370
    25
100
AcDbCircle
 10
126.8261360369
 20
63.497271537
 30
0.0
 40
3.774876823129233
100
AcDbArc
 50
180.0
 51
0.0
  0
LINE
  5
78
330
1F
100
AcDbEntity
  8
0
  6
Continuous
 62
     7
370
    25
100
AcDbLine
 10
130.6010128601
 20
78.0793502307
 30
0.0
 11
130.6010128601
 21
63.497271537
 31
0.0
  0
LINE
  5
79
330
1F
100
AcDbEntity
  8
0
  6
Continuous
 62
     7
370
    25
100
AcDbLine
 10
123.0512592138
 20
63.497271537
 30
0.0
 11
123.0512592138
 21
78.0793502307
 31
0.0
  0
ARC
  5
7A
330
1F
100
AcDbEntity
  8
0
  6
Continuous
 62
     7
370
    25
100
AcDbCircle
 10
126.8261360369
 20
78.0793502307
 30
0.0
 40
3.774876823129233
100
AcDbArc
 50
0.0
 51
180.0
  0
LINE
  5
7B
330
1F
100
AcDbEntity
  8
0
  6
Continuous
 62
     7
370
    25
100
AcDbLine
 10
120.6522720739
 20
77.9029541175
 30
0.0
 11
120.6522720739
 21
63.6736676502
 31
0.0
  0
LINE
  5
7C
330
1F
100
AcDbEntity
  8
0
  6
Continuous
 62
     7
370
    25
100
AcDbLine
 10
133.0
 20
77.9029541175
 30
0.0
 11
133.0
 21
63.6736676502
 31
0.0
  0
ARC
  5
7D
330
1F
100
AcDbEntity
  8
0
  6
Continuous
 62
     7
370
    25
100
AcDbCircle
 10
126.8261360369
 20
77.9029541175
 30
0.0
 40
6.17386396306182
100
AcDbArc
 50
0.0
 51
180.0
  0
ARC
  5
7E
330
1F
100
AcDbEntity
  8
0
  6
Continuous
 62
     7
370
    25
100
AcDbCircle
 10
126.8261360369
 20
63.6736676502
 30
0.0
 40
6.17386396306182
100
AcDbArc
 50
180.0
 51
0.0
  0
LINE
  5
7F
330
1F
100
AcDbEntity
  8
0
  6
Continuous
 62
     7
370
    25
100
AcDbLine
 10
33.0422025028
 20
31.6871724511
 30
0.0
 11
33.0422025028
 21
47.9095380268
 31
0.0
  0
SPLINE
  5
80
330
1F
100
AcDbEntity
  8
0
  6
Continuous
 62
     7
370
    25
100
AcDbSpline
210
0.0
220
0.0
230
1.0
 70
     8
 71
     3
 72
    24
 73
    20
 74
     0
 42
0.00000001
 43
0.00000001
 40
0.0
 40
0.0
 40
0.0
 40
0.0
 40
0.051350471458199
 40
0.1015470225109317
 40
0.1505794556369185
 40
0.1984383713307442
 40
0.2451154493447485
 40
0.2906037127420207
 40
0.334897774346724
 40
0.3779940659924539
 40
0.4198910517567607
 40
0.4605894271062919
 40
0.5000923065422839
 40
0.5862600111292806
 40
0.6711331845649825
 40
0.7548105098998888
 40
0.8374151424117885
 40
0.9190914041883373
 40
1.0
 40
1.0
 40
1.0
 40
1.0
 10
43.62596929662894
 20
48.71065412762304
 30
0.0
 10
43.62494348089054
 20
48.75902588973703
 30
0.0
 10
43.62291490099786
 20
48.85468242952717
 30
0.0
 10
43.60675874996548
 20
48.99583147183582
 30
0.0
 10
43.5818379659997
 20
49.1323417732905
 30
0.0
 10
43.54798193193783
 20
49.26362836999799
 30
0.0
 10
43.50620533129292
 20
49.38918900732202
 30
0.0
 10
43.45722785064319
 20
49.50860588704303
 30
0.0
 10
43.40184502597744
 20
49.6215414012893
 30
0.0
 10
43.34082172322645
 20
49.7277360066036
 30
0.0
 10
43.27491161512594
 20
49.8269988591031
 30
0.0
 10
43.20484025007815
 20
49.91922055266285
 30
0.0
 10
43.10162983501245
 20
50.03866103581566
 30
0.0
 10
42.95613365066141
 20
50.17668023569924
 30
0.0
 10
42.75874396863213
 20
50.31812761200639
 30
0.0
 10
42.54653780908299
 20
50.42986508105034
 30
0.0
 10
42.32366400973908
 20
50.50970887755781
 30
0.0
 10
42.09429307324747
 20
50.55986766862265
 30
0.0
 10
41.93919235776769
 20
50.56608311968259
 30
0.0
 10
41.86200816432556
 20
50.56917617167436
 30
0.0
  0
LINE
  5
81
330
1F
100
AcDbEntity
  8
0
  6
Continuous
 62
     7
370
    25
100
AcDbLine
 10
43.6259692966
 20
48.7106541276
 30
0.0
 11
43.6259692966
 21
31.6871724511
 31
0.0
  0
ARC
  5
82
330
1F
100
AcDbEntity
  8
0
  6
Continuous
 62
     7
370
    25
100
AcDbCircle
 10
120.0642850298
 20
64.9084404428
 30
0.0
 40
0.5879870441011263
100
AcDbArc
 50
0.0
 51
90.0
  0
ARC
  5
83
330
1F
100
AcDbEntity
  8
0
  6
Continuous
 62
     7
370
    25
100
AcDbCircle
 10
120.0642850298
 20
76.6681813249
 30
0.0
 40
0.5879870441011263
100
AcDbArc
 50
270.0
 51
0.0
  0
ARC
  5
84
330
1F
100
AcDbEntity
  8
0
  6
Continuous
 62
     7
370
    25
100
AcDbCircle
 10
86.1335938607
 20
70.7883108838
 30
0.0
 40
2.351948176404505
100
AcDbArc
 50
270.0
 51
90.0
  0
ARC
  5
85
330
1F
100
AcDbEntity
  8
0
  6
Continuous
 62
     7
370
    25
100
AcDbCircle
 10
97.8933347427
 20
70.7883108838
 30
0.0
 40
2.351948176404505
100
AcDbArc
 50
90.0
 51
270.0
  0
LINE
  5
86
330
1F
100
AcDbEntity
  8
0
  6
Continuous
 62
     7
370
    25
100
AcDbLine
 10
97.8933347427
 20
68.4363627074
 30
0.0
 11
111.2444793683
 21
68.4363627074
 31
0.0
  0
ARC
  5
87
330
1F
100
AcDbEntity
  8
0
  6
Continuous
 62
     7
370
    25
100
AcDbCircle
 10
34.8061636351
 20
64.1445662895
 30
0.0
 40
1.763961132303379
100
AcDbArc
 50
110.0
 51
180.0
  0
LINE
  5
88
330
1F
100
AcDbEntity
  8
0
  6
Continuous
 62
     7
370
    25
100
AcDbLine
 10
72.7824492351
 20
68.4363627074
 30
0.0
 11
86.1335938607
 21
68.4363627074
 31
0.0
  0
ARC
  5
89
330
1F
100
AcDbEntity
  8
0
  6
Continuous
 62
     7
370
    25
100
AcDbCircle
 10
72.7824492351
 20
70.7883108838
 30
0.0
 40
2.351948176404505
100
AcDbArc
 50
90.0
 51
270.0
  0
LINE
  5
8A
330
1F
100
AcDbEntity
  8
0
  6
Continuous
 62
     7
370
    25
100
AcDbLine
 10
64.3077583511
 20
65.4964274869
 30
0.0
 11
43.6259692966
 21
57.9688718797
 31
0.0
  0
LINE
  5
8B
330
1F
100
AcDbEntity
  8
0
  6
Continuous
 62
     7
370
    25
100
AcDbLine
 10
41.8620081643
 20
59.2040107617
 30
0.0
 11
43.6259692966
 21
57.9688718797
 31
0.0
  0
LINE
  5
8C
330
1F
100
AcDbEntity
  8
0
  6
Continuous
 62
     7
370
    25
100
AcDbLine
 10
64.3077583511
 20
65.4964274869
 30
0.0
 11
63.9967244106
 21
67.2603886192
 31
0.0
  0
LINE
  5
8D
330
1F
100
AcDbEntity
  8
0
  6
Continuous
 62
     7
370
    25
100
AcDbLine
 10
53.7298094938
 20
69.7807646201
 30
0.0
 11
46.3701056307
 21
67.102051481
 31
0.0
  0
LINE
  5
8E
330
1F
100
AcDbEntity
  8
0
  6
Continuous
 62
     7
370
    25
100
AcDbLine
 10
86.1335938607
 20
73.1402590603
 30
0.0
 11
72.7824492351
 21
73.1402590603
 31
0.0
  0
LINE
  5
8F
330
1F
100
AcDbEntity
  8
0
  6
Continuous
 62
     7
370
    25
100
AcDbLine
 10
34.2028533958
 20
65.8021475488
 30
0.0
 11
62.4415547079
 21
76.0801942808
 31
0.0
  0
LINE
  5
90
330
1F
100
AcDbEntity
  8
0
  6
Continuous
 62
     7
370
    25
100
AcDbLine
 10
62.7525886484
 20
74.3162331485
 30
0.0
 11
62.4415547079
 21
76.0801942808
 31
0.0
  0
LINE
  5
91
330
1F
100
AcDbEntity
  8
0
  6
Continuous
 62
     7
370
    25
100
AcDbLine
 10
111.2444793683
 20
73.1402590603
 30
0.0
 11
97.8933347427
 21
73.1402590603
 31
0.0
  0
ARC
  5
92
330
1F
100
AcDbEntity
  8
0
  6
Continuous
 62
     7
370
    25
100
AcDbCircle
 10
111.2444793683
 20
70.7883108838
 30
0.0
 40
2.351948176404505
100
AcDbArc
 50
270.0
 51
90.0
  0
LINE
  5
93
330
1F
100
AcDbEntity
  8
0
  6
Continuous
 62
     7
370
    25
100
AcDbLine
 10
43.6259692966
 20
57.9688718797
 30
0.0
 11
43.6259692966
 21
48.7106541276
 31
0.0
  0
ARC
  5
94
330
1F
100
AcDbEntity
  8
0
  6
Continuous
 62
     7
370
    25
100
AcDbCircle
 10
54.5342231462
 20
67.5706562743
 30
0.0
 40
2.351948176404524
100
AcDbArc
 50
290.0
 51
110.0
  0
LINE
  5
95
330
1F
100
AcDbEntity
  8
0
  6
Continuous
 62
     7
370
    25
100
AcDbLine
 10
33.0422025028
 20
47.9095380268
 30
0.0
 11
33.0422025028
 21
64.1445662895
 31
0.0
  0
LINE
  5
96
330
1F
100
AcDbEntity
  8
0
  6
Continuous
 62
     7
370
    25
100
AcDbLine
 10
120.0642850298
 20
65.4964274869
 30
0.0
 11
64.3077583511
 21
65.4964274869
 31
0.0
  0
LINE
  5
97
330
1F
100
AcDbEntity
  8
0
  6
Continuous
 62
     7
370
    25
100
AcDbLine
 10
47.9789329355
 20
62.6818347893
 30
0.0
 11
55.3386367985
 21
65.3605479285
 31
0.0
  0
LINE
  5
98
330
1F
100
AcDbEntity
  8
0
  6
Continuous
 62
     7
370
    25
100
AcDbLine
 10
62.4415547079
 20
76.0801942808
 30
0.0
 11
120.0642850298
 21
76.0801942808
 31
0.0
  0
ARC
  5
99
330
1F
100
AcDbEntity
  8
0
  6
Continuous
 62
     7
370
    25
100
AcDbCircle
 10
47.1745192831
 20
64.8919431351
 30
0.0
 40
2.351948176404532
100
AcDbArc
 50
110.0
 51
290.0
  0
SPLINE
  5
9A
330
1F
100
AcDbEntity
  8
0
  6
HIDDEN
 62
     7
370
    18
100
AcDbSpline
210
0.0
220
0.0
230
1.0
 70
     8
 71
     3
 72
    18
 73
    14
 74
     0
 42
0.00000001
 43
0.00000001
 40
0.0
 40
0.0
 40
0.0
 40
0.0
 40
0.1250000000000002
 40
0.1250000000000002
 40
0.2500000000000004
 40
0.2500000000000004
 40
0.3750000000000007
 40
0.3750000000000007
 40
0.5000000000000009
 40
0.5000000000000009
 40
0.7500000000000004
 40
0.7500000000000004
 40
1.0
 40
1.0
 40
1.0
 40
1.0
 10
34.80616363511207
 20
46.37910651677839
 30
0.0
 10
34.67125663385991
 20
46.37910651677838
 30
0.0
 10
34.54031431024929
 20
46.39363169821397
 30
0.0
 10
34.28555895105586
 20
46.44848632163085
 30
0.0
 10
34.16374252261546
 20
46.48874049311361
 30
0.0
 10
33.93969085479456
 20
46.58653362745438
 30
0.0
 10
33.83544188459387
 20
46.64492936364493
 30
0.0
 10
33.64921798879288
 20
46.77106507748429
 30
0.0
 10
33.56583222779123
 20
46.83937906117785
 30
0.0
 10
33.34116458999488
 20
47.05706183259044
 30
0.0
 10
33.23111360901519
 20
47.21256991624522
 30
0.0
 10
33.08081257391373
 20
47.53303781928264
 30
0.0
 10
33.0422025028087
 20
47.69768000899799
 30
0.0
 10
33.04220250280869
 20
47.8568161639036
 30
0.0
  0
SPLINE
  5
9B
330
1F
100
AcDbEntity
  8
0
  6
HIDDEN
 62
     7
370
    18
100
AcDbSpline
210
0.0
220
0.0
230
1.0
 70
     8
 71
     3
 72
    16
 73
    12
 74
     0
 42
0.00000001
 43
0.00000001
 40
0.0
 40
0.0
 40
0.0
 40
0.0
 40
0.125
 40
0.125
 40
0.25
 40
0.25
 40
0.5
 40
0.5
 40
0.75
 40
0.75
 40
1.0
 40
1.0
 40
1.0
 40
1.0
 10
34.80616363511207
 20
44.76105455508913
 30
0.0
 10
34.68554747289713
 20
44.76105455508914
 30
0.0
 10
34.5672345741029
 20
44.76615222298241
 30
0.0
 10
34.33497602558042
 20
44.78591941921396
 30
0.0
 10
34.21986311309563
 20
44.80086309710365
 30
0.0
 10
33.89513723388756
 20
44.85784364551469
 30
0.0
 10
33.69951763965113
 20
44.91305628278538
 30
0.0
 10
33.38060276143605
 20
45.04263680682331
 30
0.0
 10
33.25462676950488
 20
45.11786654062869
 30
0.0
 10
33.08612370753351
 20
45.27427871780128
 30
0.0
 10
33.04220250280869
 20
45.35718618590143
 30
0.0
 10
33.04220250280869
 20
45.43675635490234
 30
0.0
  0
LINE
  5
9C
330
1F
100
AcDbEntity
  8
0
  6
HIDDEN
 62
     7
370
    18
100
AcDbLine
 10
41.8620081643
 20
46.3791065168
 30
0.0
 11
34.8061636351
 21
46.3791065168
 31
0.0
  0
SPLINE
  5
9D
330
1F
100
AcDbEntity
  8
0
  6
HIDDEN
 62
     7
370
    18
100
AcDbSpline
210
0.0
220
0.0
230
1.0
 70
     8
 71
     3
 72
    18
 73
    14
 74
     0
 42
0.00000001
 43
0.00000001
 40
0.0
 40
0.0
 40
0.0
 40
0.0
 40
0.1249999999999997
 40
0.1249999999999997
 40
0.2499999999999994
 40
0.2499999999999994
 40
0.3749999999999992
 40
0.3749999999999992
 40
0.4999999999999989
 40
0.4999999999999989
 40
0.7499999999999994
 40
0.7499999999999994
 40
1.0
 40
1.0
 40
1.0
 40
1.0
 10
43.62596929662894
 20
45.99393260069021
 30
0.0
 10
43.62596929662892
 20
46.03752503366923
 30
0.0
 10
43.61576327567038
 20
46.07696514196153
 30
0.0
 10
43.57427011671678
 20
46.14811007676273
 30
0.0
 10
43.54245634114584
 20
46.18010802657239
 30
0.0
 10
43.45775437823303
 20
46.23515356046925
 30
0.0
 10
43.40533378712225
 20
46.25820938257424
 30
0.0
 10
43.2798743025944
 20
46.29708798654024
 30
0.0
 10
43.20607212740768
 20
46.31292376297612
 30
0.0
 10
42.96253859476063
 20
46.35028245445106
 30
0.0
 10
42.76415204961566
 20
46.36294006558683
 30
0.0
 10
42.33404639824608
 20
46.37709315324942
 30
0.0
 10
42.09884252638668
 20
46.37910651677839
 30
0.0
 10
41.86200816432556
 20
46.37910651677839
 30
0.0
  0
SPLINE
  5
9E
330
1F
100
AcDbEntity
  8
0
  6
HIDDEN
 62
     7
370
    18
100
AcDbSpline
210
0.0
220
0.0
230
1.0
 70
     8
 71
     3
 72
    14
 73
    10
 74
     0
 42
0.00000001
 43
0.00000001
 40
0.0
 40
0.0
 40
0.0
 40
0.0
 40
0.25
 40
0.25
 40
0.5
 40
0.5
 40
0.75
 40
0.75
 40
1.0
 40
1.0
 40
1.0
 40
1.0
 10
43.03798225252781
 20
44.76105455508913
 30
0.0
 10
43.13892391008215
 20
44.76105455508914
 30
0.0
 10
43.23539889804245
 20
44.73466904850086
 30
0.0
 10
43.39470679035267
 20
44.64695374848327
 30
0.0
 10
43.45599934347905
 20
44.5877139436847
 30
0.0
 10
43.547452961866
 20
44.45635964467127
 30
0.0
 10
43.57823384234968
 20
44.38366600522391
 30
0.0
 10
43.61748423926954
 20
44.23198975107005
 30
0.0
 10
43.62596929662894
 20
44.153545316238
 30
0.0
 10
43.62596929662894
 20
44.07263215106291
 30
0.0
  0
LINE
  5
9F
330
1F
100
AcDbEntity
  8
0
  6
HIDDEN
 62
     7
370
    18
100
AcDbLine
 10
43.0379822525
 20
44.7610545551
 30
0.0
 11
34.8061636351
 21
44.7610545551
 31
0.0
  0
LINE
  5
A0
330
1F
100
AcDbEntity
  8
0
  6
HIDDEN
 62
     7
370
    18
100
AcDbLine
 10
123.0042202503
 20
63.497271537
 30
0.0
 11
123.0042202503
 21
78.0793502307
 31
0.0
  0
ARC
  5
A1
330
1F
100
AcDbEntity
  8
0
  6
HIDDEN
 62
     7
370
    18
100
AcDbCircle
 10
126.8261360369
 20
78.0793502307
 30
0.0
 40
3.821915786657314
100
AcDbArc
 50
0.0
 51
180.0
  0
ARC
  5
A2
330
1F
100
AcDbEntity
  8
0
  6
HIDDEN
 62
     7
370
    18
100
AcDbCircle
 10
126.8261360369
 20
63.497271537
 30
0.0
 40
3.821915786657314
100
AcDbArc
 50
180.0
 51
0.0
  0
LINE
  5
A3
330
1F
100
AcDbEntity
  8
0
  6
HIDDEN
 62
     7
370
    18
100
AcDbLine
 10
130.6480518236
 20
63.497271537
 30
0.0
 11
130.6480518236
 21
78.0793502307
 31
0.0
  0
SPLINE
  5
A4
330
1F
100
AcDbEntity
  8
0
  6
HIDDEN
 62
     7
370
    18
100
AcDbSpline
210
0.0
220
0.0
230
1.0
 70
     8
 71
     3
 72
    10
 73
     6
 74
     0
 42
0.00000001
 43
0.00000001
 40
0.0
 40
0.0
 40
0.0
 40
0.0
 40
0.5
 40
0.5
 40
1.0
 40
1.0
 40
1.0
 40
1.0
 10
120.6522720738764
 20
75.87190064127381
 30
0.0
 10
120.6522720738764
 20
75.58800623386877
 30
0.0
 10
120.5674242490369
 20
75.31460168112366
 30
0.0
 10
120.3448710068944
 20
74.80137960117469
 30
0.0
 10
120.204326447064
 20
74.55879439952854
 30
0.0
 10
120.0642850297752
 20
74.31623314845424
 30
0.0
  0
SPLINE
  5
A5
330
1F
100
AcDbEntity
  8
0
  6
HIDDEN
 62
     7
370
    18
100
AcDbSpline
210
0.0
220
0.0
230
1.0
 70
     8
 71
     3
 72
    10
 73
     6
 74
     0
 42
0.00000001
 43
0.00000001
 40
0.0
 40
0.0
 40
0.0
 40
0.0
 40
0.5
 40
0.5
 40
1.0
 40
1.0
 40
1.0
 40
1.0
 10
120.6522720738764
 20
65.70472112642119
 30
0.0
 10
120.6522720738764
 20
65.98861553382622
 30
0.0
 10
120.5674242490369
 20
66.26202008657134
 30
0.0
 10
120.3448710068944
 20
66.77524216652029
 30
0.0
 10
120.204326447064
 20
67.01782736816648
 30
0.0
 10
120.0642850297752
 20
67.26038861924073
 30
0.0
  0
ARC
  5
A6
330
1F
100
AcDbEntity
  8
0
  6
HIDDEN
 62
     7
370
    18
100
AcDbCircle
 10
34.8061636351
 20
33.4511335834
 30
0.0
 40
1.763961132303379
100
AcDbArc
 50
90.0
 51
180.0
  0
LINE
  5
A7
330
1F
100
AcDbEntity
  8
0
  6
HIDDEN
 62
     7
370
    18
100
AcDbLine
 10
34.8061636351
 20
35.2150947157
 30
0.0
 11
43.6259692966
 21
35.2150947157
 31
0.0
  0
ARC
  5
A8
330
1F
100
AcDbEntity
  8
0
  6
Continuous
 62
     7
370
    25
100
AcDbCircle
 10
41.8620081643
 20
158.5879723444
 30
0.0
 40
1.763961132303393
100
AcDbArc
 50
270.0
 51
360.0
  0
LINE
  5
A9
330
1F
100
AcDbEntity
  8
0
  6
Continuous
 62
     7
370
    25
100
AcDbLine
 10
34.8061636351
 20
156.8240112121
 30
0.0
 11
41.8620081643
 21
156.8240112121
 31
0.0
  0
ARC
  5
AA
330
1F
100
AcDbEntity
  8
0
  6
Continuous
 62
     7
370
    25
100
AcDbCircle
 10
34.8061636351
 20
158.5879723444
 30
0.0
 40
1.763961132303393
100
AcDbArc
 50
180.0
 51
270.0
  0
LINE
  5
AB
330
1F
100
AcDbEntity
  8
0
  6
Continuous
 62
     7
370
    25
100
AcDbLine
 10
133.0
 20
149.1801796388
 30
0.0
 11
133.0
 21
178.5795318439
 31
0.0
  0
LINE
  5
AC
330
1F
100
AcDbEntity
  8
0
  6
Continuous
 62
     7
370
    25
100
AcDbLine
 10
133.0
 20
149.1801796388
 30
0.0
 11
120.6522720739
 21
149.1801796388
 31
0.0
  0
LINE
  5
AD
330
1F
100
AcDbEntity
  8
0
  6
Continuous
 62
     7
370
    25
100
AcDbLine
 10
120.6522720739
 20
149.1801796388
 30
0.0
 11
120.6522720739
 21
178.5795318439
 31
0.0
  0
LINE
  5
AE
330
1F
100
AcDbEntity
  8
0
  6
Continuous
 62
     7
370
    25
100
AcDbLine
 10
133.0
 20
178.5795318439
 30
0.0
 11
120.6522720739
 21
178.5795318439
 31
0.0
  0
LINE
  5
AF
330
1F
100
AcDbEntity
  8
0
  6
Continuous
 62
     7
370
    25
100
AcDbLine
 10
130.6010128601
 20
138.596412845
 30
0.0
 11
130.6010128601
 21
149.1801796388
 31
0.0
  0
LINE
  5
B0
330
1F
100
AcDbEntity
  8
0
  6
Continuous
 62
     7
370
    25
100
AcDbLine
 10
123.0512592138
 20
138.596412845
 30
0.0
 11
123.0512592138
 21
149.1801796388
 31
0.0
  0
ARC
  5
B1
330
1F
100
AcDbEntity
  8
0
  6
Continuous
 62
     7
370
    25
100
AcDbCircle
 10
129.4250387719
 20
138.596412845
 30
0.0
 40
1.175974088202253
100
AcDbArc
 50
270.0
 51
0.0
  0
LINE
  5
B2
330
1F
100
AcDbEntity
  8
0
  6
Continuous
 62
     7
370
    25
100
AcDbLine
 10
129.4250387719
 20
137.4204387568
 30
0.0
 11
124.227233302
 21
137.4204387568
 31
0.0
  0
ARC
  5
B3
330
1F
100
AcDbEntity
  8
0
  6
Continuous
 62
     7
370
    25
100
AcDbCircle
 10
124.227233302
 20
138.596412845
 30
0.0
 40
1.175974088202253
100
AcDbArc
 50
180.0
 51
270.0
  0
SPLINE
  5
B4
330
1F
100
AcDbEntity
  8
0
  6
Continuous
 62
     7
370
    25
100
AcDbSpline
210
0.0
220
0.0
230
1.0
 70
    24
 71
     3
 72
    10
 73
     6
 74
     0
 42
0.00000001
 43
0.00000001
 40
0.0
 40
0.0
 40
0.0
 40
0.0
 40
0.5
 40
0.5
 40
1.0
 40
1.0
 40
1.0
 40
1.0
 10
120.6522720738764
 20
178.5795318438633
 30
0.0
 10
120.6522720738764
 20
178.5795318438633
 30
0.0
 10
120.5674242490369
 20
178.5795318438633
 30
0.0
 10
120.3448710068944
 20
178.5795318438633
 30
0.0
 10
120.204326447064
 20
178.5795318438633
 30
0.0
 10
120.0642850297752
 20
178.5795318438633
 30
0.0
  0
ARC
  5
B5
330
1F
100
AcDbEntity
  8
0
  6
Continuous
 62
     7
370
    25
100
AcDbCircle
 10
120.0642850298
 20
167.4077780059
 30
0.0
 40
0.5879870441011406
100
AcDbArc
 50
0.0
 51
90.0
  0
ELLIPSE
  5
B6
330
1F
100
AcDbEntity
  8
0
  6
Continuous
 62
     7
370
    25
100
AcDbEllipse
 10
62.7525886484
 20
176.8155707116
 30
0.0
 11
0.0
 21
1.763961132303365
 31
0.0
210
0.0
220
0.0
230
1.0
 40
0.1763269807
 41
0.0
 42
1.570796326794897
  0
LINE
  5
B7
330
1F
100
AcDbEntity
  8
0
  6
Continuous
 62
     7
370
    25
100
AcDbLine
 10
62.7525886484
 20
178.5795318439
 30
0.0
 11
72.7824492351
 21
178.5795318439
 31
0.0
  0
LINE
  5
B8
330
1F
100
AcDbEntity
  8
0
  6
Continuous
 62
     7
370
    25
100
AcDbLine
 10
72.7824492351
 20
178.5795318439
 30
0.0
 11
86.1335938607
 21
178.5795318439
 31
0.0
  0
LINE
  5
B9
330
1F
100
AcDbEntity
  8
0
  6
Continuous
 62
     7
370
    25
100
AcDbLine
 10
86.1335938607
 20
178.5795318439
 30
0.0
 11
97.8933347427
 21
178.5795318439
 31
0.0
  0
LINE
  5
BA
330
1F
100
AcDbEntity
  8
0
  6
Continuous
 62
     7
370
    25
100
AcDbLine
 10
97.8933347427
 20
178.5795318439
 30
0.0
 11
111.2444793683
 21
178.5795318439
 31
0.0
  0
LINE
  5
BB
330
1F
100
AcDbEntity
  8
0
  6
Continuous
 62
     7
370
    25
100
AcDbLine
 10
111.2444793683
 20
178.5795318439
 30
0.0
 11
120.0642850298
 21
178.5795318439
 31
0.0
  0
LINE
  5
BC
330
1F
100
AcDbEntity
  8
0
  6
Continuous
 62
     7
370
    25
100
AcDbLine
 10
34.8061636351
 20
178.5795318439
 30
0.0
 11
45.9678988045
 21
178.5795318439
 31
0.0
  0
LINE
  5
BD
330
1F
100
AcDbEntity
  8
0
  6
Continuous
 62
     7
370
    25
100
AcDbLine
 10
45.9678988045
 20
178.5795318439
 30
0.0
 11
53.3276026676
 21
178.5795318439
 31
0.0
  0
LINE
  5
BE
330
1F
100
AcDbEntity
  8
0
  6
Continuous
 62
     7
370
    25
100
AcDbLine
 10
53.3276026676
 20
178.5795318439
 30
0.0
 11
62.7525886484
 21
178.5795318439
 31
0.0
  0
LINE
  5
BF
330
1F
100
AcDbEntity
  8
0
  6
Continuous
 62
     7
370
    25
100
AcDbLine
 10
62.4415547079
 20
169.7597261823
 30
0.0
 11
62.4415547079
 21
176.8155707116
 31
0.0
  0
LINE
  5
C0
330
1F
100
AcDbEntity
  8
0
  6
Continuous
 62
     7
370
    25
100
AcDbLine
 10
111.2444793683
 20
167.99576505
 30
0.0
 11
97.8933347427
 21
167.99576505
 31
0.0
  0
LINE
  5
C1
330
1F
100
AcDbEntity
  8
0
  6
Continuous
 62
     7
370
    25
100
AcDbLine
 10
97.8933347427
 20
167.99576505
 30
0.0
 11
86.1335938607
 21
167.99576505
 31
0.0
  0
LINE
  5
C2
330
1F
100
AcDbEntity
  8
0
  6
Continuous
 62
     7
370
    25
100
AcDbLine
 10
86.1335938607
 20
167.99576505
 30
0.0
 11
72.7824492351
 21
167.99576505
 31
0.0
  0
LINE
  5
C3
330
1F
100
AcDbEntity
  8
0
  6
Continuous
 62
     7
370
    25
100
AcDbLine
 10
72.7824492351
 20
167.99576505
 30
0.0
 11
62.7525886484
 21
167.99576505
 31
0.0
  0
ELLIPSE
  5
C4
330
1F
100
AcDbEntity
  8
0
  6
Continuous
 62
     7
370
    25
100
AcDbEllipse
 10
62.7525886484
 20
169.7597261823
 30
0.0
 11
0.0
 21
1.763961132303365
 31
0.0
210
0.0
220
0.0
230
1.0
 40
0.1763269807
 41
1.570796326794897
 42
3.141592653589793
  0
LINE
  5
C5
330
1F
100
AcDbEntity
  8
0
  6
Continuous
 62
     7
370
    25
100
AcDbLine
 10
120.0642850298
 20
167.99576505
 30
0.0
 11
111.2444793683
 21
167.99576505
 31
0.0
  0
LINE
  5
C6
330
1F
100
AcDbEntity
  8
0
  6
Continuous
 62
     7
370
    25
100
AcDbLine
 10
62.7525886484
 20
167.99576505
 30
0.0
 11
53.3276026676
 21
167.99576505
 31
0.0
  0
LINE
  5
C7
330
1F
100
AcDbEntity
  8
0
  6
Continuous
 62
     7
370
    25
100
AcDbLine
 10
53.3276026676
 20
167.99576505
 30
0.0
 11
45.9678988045
 21
167.99576505
 31
0.0
  0
LINE
  5
C8
330
1F
100
AcDbEntity
  8
0
  6
Continuous
 62
     7
370
    25
100
AcDbLine
 10
45.9678988045
 20
167.99576505
 30
0.0
 11
34.8061636351
 21
167.99576505
 31
0.0
  0
ARC
  5
C9
330
1F
100
AcDbEntity
  8
0
  6
Continuous
 62
     7
370
    25
100
AcDbCircle
 10
34.8061636351
 20
176.8155707116
 30
0.0
 40
1.763961132303393
100
AcDbArc
 50
90.0
 51
180.0
  0
LINE
  5
CA
330
1F
100
AcDbEntity
  8
0
  6
Continuous
 62
     7
370
    25
100
AcDbLine
 10
33.0422025028
 20
169.7597261823
 30
0.0
 11
33.0422025028
 21
176.8155707116
 31
0.0
  0
ARC
  5
CB
330
1F
100
AcDbEntity
  8
0
  6
Continuous
 62
     7
370
    25
100
AcDbCircle
 10
34.8061636351
 20
169.7597261823
 30
0.0
 40
1.763961132303379
100
AcDbArc
 50
180.0
 51
270.0
  0
SPLINE
  5
CC
330
1F
100
AcDbEntity
  8
0
  6
Continuous
 62
     7
370
    25
100
AcDbSpline
210
0.0
220
0.0
230
1.0
 70
     8
 71
     3
 72
    25
 73
    21
 74
     0
 42
0.00000001
 43
0.00000001
 40
0.0
 40
0.0
 40
0.0
 40
0.0
 40
0.0595868537063321
 40
0.1169524917033776
 40
0.1721092732735693
 40
0.2250711048880838
 40
0.2758536970609425
 40
0.3244748736379108
 40
0.3709549458972895
 40
0.4153171669891839
 40
0.4575882861479918
 40
0.4977992268749919
 40
0.5731403349211543
 40
0.6440052332225557
 40
0.7107439027075121
 40
0.7737750948561483
 40
0.8335954709005804
 40
0.8907854058997547
 40
0.9460082729931516
 40
0.9999999999999999
 40
0.9999999999999999
 40
0.9999999999999999
 40
0.9999999999999999
 10
33.04220250280869
 20
161.9982972002116
 30
0.0
 10
33.04306603951286
 20
162.040519976665
 30
0.0
 10
33.04476092291328
 20
162.123391593569
 30
0.0
 10
33.05855058480627
 20
162.2476449148746
 30
0.0
 10
33.07997043429801
 20
162.3681576620473
 30
0.0
 10
33.10918637145489
 20
162.4846272169828
 30
0.0
 10
33.14539969012883
 20
162.5965853885662
 30
0.0
 10
33.18804386397755
 20
162.7036940022695
 30
0.0
 10
33.23649046235938
 20
162.8056659902232
 30
0.0
 10
33.29013256749995
 20
162.9022835565779
 30
0.0
 10
33.34836382050229
 20
162.993380341856
 30
0.0
 10
33.42977946556551
 20
163.105193990975
 30
0.0
 10
33.5415944509562
 20
163.2338397321277
 30
0.0
 10
33.69341170032518
 20
163.3720726223081
 30
0.0
 10
33.8590101544094
 20
163.4910136417782
 30
0.0
 10
34.03591416318661
 20
163.5894367041418
 30
0.0
 10
34.22160753396
 20
163.6666648639722
 30
0.0
 10
34.41352430639667
 20
163.7215398751802
 30
0.0
 10
34.60906509531799
 20
163.7558986890436
 30
0.0
 10
34.74095972338964
 20
163.760154442593
 30
0.0
 10
34.80616363511208
 20
163.7622583325149
 30
0.0
  0
SPLINE
  5
CD
330
1F
100
AcDbEntity
  8
0
  6
Continuous
 62
     7
370
    25
100
AcDbSpline
210
0.0
220
0.0
230
1.0
 70
    24
 71
     3
 72
     9
 73
     5
 74
     0
 42
0.00000001
 43
0.00000001
 40
0.0
 40
0.0
 40
0.0
 40
0.0
 40
0.0008345083504888
 40
0.0016690167009776
 40
0.0016690167009776
 40
0.0016690167009776
 40
0.0016690167009776
 10
41.86200816432556
 20
163.7622583325149
 30
0.0
 10
42.19405511149865
 20
163.7622583325149
 30
0.0
 10
42.82587462718236
 20
163.7622583325149
 30
0.0
 10
43.03798225252781
 20
163.7622583325149
 30
0.0
 10
43.03798225252781
 20
163.7622583325149
 30
0.0
  0
ARC
  5
CE
330
1F
100
AcDbEntity
  8
0
  6
Continuous
 62
     7
370
    25
100
AcDbCircle
 10
43.0379822525
 20
163.1742712884
 30
0.0
 40
0.5879870441011406
100
AcDbArc
 50
0.0
 51
90.0
  0
LINE
  5
CF
330
1F
100
AcDbEntity
  8
0
  6
Continuous
 62
     7
370
    25
100
AcDbLine
 10
34.8061636351
 20
163.7622583325
 30
0.0
 11
41.8620081643
 21
163.7622583325
 31
0.0
  0
LINE
  5
D0
330
1F
100
AcDbEntity
  8
0
  6
Continuous
 62
     7
370
    25
100
AcDbLine
 10
43.6259692966
 20
163.1742712884
 30
0.0
 11
43.6259692966
 21
158.5879723519
 31
0.0
  0
LINE
  5
D1
330
1F
100
AcDbEntity
  8
0
  6
Continuous
 62
     7
370
    25
100
AcDbLine
 10
33.0422025028
 20
158.5879723644
 30
0.0
 11
33.0422025028
 21
161.9982972002
 31
0.0
  0
LINE
  5
D2
330
1F
100
AcDbEntity
  8
0
  6
Continuous
 62
     7
370
    25
100
AcDbLine
 10
33.0422025028
 20
161.9982972002
 30
0.0
 11
33.0422025028
 21
169.7597261823
 31
0.0
  0
LINE
  5
D3
330
1F
100
AcDbEntity
  8
0
  6
Continuous
 62
     7
370
    25
100
AcDbLine
 10
43.6259692966
 20
163.1742712884
 30
0.0
 11
43.6259692966
 21
167.99576505
 31
0.0
  0
LINE
  5
D4
330
1F
100
AcDbEntity
  8
0
  6
HIDDEN
 62
     7
370
    18
100
AcDbLine
 10
123.0042202503
 20
165.6438168736
 30
0.0
 11
123.0042202503
 21
178.5795318439
 31
0.0
  0
LINE
  5
D5
330
1F
100
AcDbEntity
  8
0
  6
HIDDEN
 62
     7
370
    18
100
AcDbLine
 10
130.6480518236
 20
165.6438168736
 30
0.0
 11
123.0042202503
 21
165.6438168736
 31
0.0
  0
LINE
  5
D6
330
1F
100
AcDbEntity
  8
0
  6
HIDDEN
 62
     7
370
    18
100
AcDbLine
 10
130.6480518236
 20
165.6438168736
 30
0.0
 11
130.6480518236
 21
178.5795318439
 31
0.0
  0
ELLIPSE
  5
D7
330
1F
100
AcDbEntity
  8
0
  6
HIDDEN
 62
     7
370
    18
100
AcDbEllipse
 10
63.9967244106
 20
176.8155707116
 30
0.0
 11
0.0
 21
1.763961132303365
 31
0.0
210
0.0
220
0.0
230
1.0
 40
0.1763269807
 41
4.712388980384692
 42
6.283185307179586
  0
ARC
  5
D8
330
1F
100
AcDbEntity
  8
0
  6
HIDDEN
 62
     7
370
    18
100
AcDbCircle
 10
41.8620081643
 20
176.8155707116
 30
0.0
 40
1.763961132303393
100
AcDbArc
 50
0.0
 51
90.0
  0
ELLIPSE
  5
D9
330
1F
100
AcDbEntity
  8
0
  6
HIDDEN
 62
     7
370
    18
100
AcDbEllipse
 10
63.9967244106
 20
169.7597261823
 30
0.0
 11
0.0
 21
1.763961132303365
 31
0.0
210
0.0
220
0.0
230
1.0
 40
0.1763269807
 41
3.141592653589793
 42
4.712388980384692
  0
ARC
  5
DA
330
1F
100
AcDbEntity
  8
0
  6
HIDDEN
 62
     7
370
    18
100
AcDbCircle
 10
41.8620081643
 20
169.7597261823
 30
0.0
 40
1.763961132303379
100
AcDbArc
 50
270.0
 51
0.0
  0
LINE
  5
DB
330
1F
100
AcDbEntity
  8
0
  6
HIDDEN
 62
     7
370
    18
100
AcDbLine
 10
64.3077583511
 20
169.7597261823
 30
0.0
 11
64.3077583511
 21
176.8155707116
 31
0.0
  0
LINE
  5
DC
330
1F
100
AcDbEntity
  8
0
  6
HIDDEN
 62
     7
370
    18
100
AcDbLine
 10
43.6259692966
 20
169.7597261823
 30
0.0
 11
43.6259692966
 21
176.8155707116
 31
0.0
  0
LINE
  5
DD
330
1F
100
AcDbEntity
  8
0
  6
HIDDEN
 62
     7
370
    18
100
AcDbLine
 10
43.6259692966
 20
167.99576505
 30
0.0
 11
43.6259692966
 21
169.7597261823
 31
0.0
  0
ARC
  5
DE
330
1F
100
AcDbEntity
  8
0
  6
HIDDEN
 62
     7
370
    18
100
AcDbCircle
 10
89.6615161253
 20
177.4035577557
 30
0.0
 40
1.175974088202281
100
AcDbArc
 50
90.0
 51
180.0
  0
ARC
  5
DF
330
1F
100
AcDbEntity
  8
0
  6
HIDDEN
 62
     7
370
    18
100
AcDbCircle
 10
69.2545269705
 20
177.4035577557
 30
0.0
 40
1.175974088202281
100
AcDbArc
 50
0.0
 51
90.0
  0
ARC
  5
E0
330
1F
100
AcDbEntity
  8
0
  6
HIDDEN
 62
     7
370
    18
100
AcDbCircle
 10
94.3654124781
 20
177.4035577557
 30
0.0
 40
1.175974088202281
100
AcDbArc
 50
0.0
 51
90.0
  0
ARC
  5
E1
330
1F
100
AcDbEntity
  8
0
  6
HIDDEN
 62
     7
370
    18
100
AcDbCircle
 10
114.7724016329
 20
177.4035577557
 30
0.0
 40
1.175974088202281
100
AcDbArc
 50
90.0
 51
180.0
  0
ARC
  5
E2
330
1F
100
AcDbEntity
  8
0
  6
HIDDEN
 62
     7
370
    18
100
AcDbCircle
 10
89.6615161253
 20
169.1717391382
 30
0.0
 40
1.175974088202267
100
AcDbArc
 50
180.0
 51
270.0
  0
ARC
  5
E3
330
1F
100
AcDbEntity
  8
0
  6
HIDDEN
 62
     7
370
    18
100
AcDbCircle
 10
69.2545269705
 20
169.1717391382
 30
0.0
 40
1.175974088202253
100
AcDbArc
 50
270.0
 51
0.0
  0
ARC
  5
E4
330
1F
100
AcDbEntity
  8
0
  6
HIDDEN
 62
     7
370
    18
100
AcDbCircle
 10
114.7724016329
 20
169.1717391382
 30
0.0
 40
1.175974088202253
100
AcDbArc
 50
180.0
 51
270.0
  0
ARC
  5
E5
330
1F
100
AcDbEntity
  8
0
  6
HIDDEN
 62
     7
370
    18
100
AcDbCircle
 10
94.3654124781
 20
169.1717391382
 30
0.0
 40
1.175974088202253
100
AcDbArc
 50
270.0
 51
0.0
  0
LINE
  5
E6
330
1F
100
AcDbEntity
  8
0
  6
HIDDEN
 62
     7
370
    18
100
AcDbLine
 10
88.4855420371
 20
169.1717391382
 30
0.0
 11
88.4855420371
 21
177.4035577557
 31
0.0
  0
LINE
  5
E7
330
1F
100
AcDbEntity
  8
0
  6
HIDDEN
 62
     7
370
    18
100
AcDbLine
 10
70.4305010587
 20
177.4035577557
 30
0.0
 11
70.4305010587
 21
169.1717391382
 31
0.0
  0
LINE
  5
E8
330
1F
100
AcDbEntity
  8
0
  6
HIDDEN
 62
     7
370
    18
100
AcDbLine
 10
113.5964275447
 20
169.1717391382
 30
0.0
 11
113.5964275447
 21
177.4035577557
 31
0.0
  0
LINE
  5
E9
330
1F
100
AcDbEntity
  8
0
  6
HIDDEN
 62
     7
370
    18
100
AcDbLine
 10
95.5413865663
 20
177.4035577557
 30
0.0
 11
95.5413865663
 21
169.1717391382
 31
0.0
  0
ARC
  5
EA
330
1F
100
AcDbEntity
  8
0
  6
HIDDEN
 62
     7
370
    18
100
AcDbCircle
 10
58.0621454108
 20
177.4035577557
 30
0.0
 40
1.175974088202281
100
AcDbArc
 50
90.0
 51
180.0
  0
ARC
  5
EB
330
1F
100
AcDbEntity
  8
0
  6
HIDDEN
 62
     7
370
    18
100
AcDbCircle
 10
58.0621454108
 20
169.1717391382
 30
0.0
 40
1.175974088202253
100
AcDbArc
 50
180.0
 51
270.0
  0
LINE
  5
EC
330
1F
100
AcDbEntity
  8
0
  6
HIDDEN
 62
     7
370
    18
100
AcDbLine
 10
56.8861713226
 20
169.1717391382
 30
0.0
 11
56.8861713226
 21
177.4035577557
 31
0.0
  0
ARC
  5
ED
330
1F
100
AcDbEntity
  8
0
  6
HIDDEN
 62
     7
370
    18
100
AcDbCircle
 10
43.6465970185
 20
177.4035577557
 30
0.0
 40
1.175974088202281
100
AcDbArc
 50
0.0
 51
90.0
  0
ARC
  5
EE
330
1F
100
AcDbEntity
  8
0
  6
HIDDEN
 62
     7
370
    18
100
AcDbCircle
 10
43.6465970185
 20
169.1717391382
 30
0.0
 40
1.175974088202253
100
AcDbArc
 50
270.0
 51
0.0
  0
LINE
  5
EF
330
1F
100
AcDbEntity
  8
0
  6
HIDDEN
 62
     7
370
    18
100
AcDbLine
 10
44.8225711067
 20
177.4035577557
 30
0.0
 11
44.8225711067
 21
169.1717391382
 31
0.0
  0
ARC
  5
F0
330
1F
100
AcDbEntity
  8
0
  6
HIDDEN
 62
     7
370
    18
100
AcDbCircle
 10
34.8061636351
 20
175.0516095793
 30
0.0
 40
1.763961132303379
100
AcDbArc
 50
180.0
 51
270.0
  0
ARC
  5
F1
330
1F
100
AcDbEntity
  8
0
  6
HIDDEN
 62
     7
370
    18
100
AcDbCircle
 10
34.8061636351
 20
160.3519334767
 30
0.0
 40
1.763961132303379
100
AcDbArc
 50
90.0
 51
180.0
  0
LINE
  5
F2
330
1F
100
AcDbEntity
  8
0
  6
HIDDEN
 62
     7
370
    18
100
AcDbLine
 10
43.6259692966
 20
173.287648447
 30
0.0
 11
34.8061636351
 21
173.287648447
 31
0.0
  0
LINE
  5
F3
330
1F
100
AcDbEntity
  8
0
  6
HIDDEN
 62
     7
370
    18
100
AcDbLine
 10
34.8061636351
 20
162.115894609
 30
0.0
 11
43.6259692966
 21
162.115894609
 31
0.0
  0
LINE
  5
F4
330
1F
100
AcDbEntity
  8
0
  6
Continuous
 62
     7
370
    25
100
AcDbLine
 10
243.5795318439
 20
84.0768180805
 30
0.0
 11
214.1801796388
 21
84.0768180805
 31
0.0
  0
LINE
  5
F5
330
1F
100
AcDbEntity
  8
0
  6
Continuous
 62
     7
370
    25
100
AcDbLine
 10
214.1801796388
 20
57.4998036872
 30
0.0
 11
243.5795318439
 21
57.4998036872
 31
0.0
  0
LINE
  5
F6
330
1F
100
AcDbEntity
  8
0
  6
Continuous
 62
     7
370
    25
100
AcDbLine
 10
214.1801796388
 20
81.8542270538
 30
0.0
 11
203.596412845
 21
81.8542270538
 31
0.0
  0
LINE
  5
F7
330
1F
100
AcDbEntity
  8
0
  6
Continuous
 62
     7
370
    25
100
AcDbLine
 10
203.596412845
 20
59.7223947139
 30
0.0
 11
214.1801796388
 21
59.7223947139
 31
0.0
  0
ARC
  5
F8
330
1F
100
AcDbEntity
  8
0
  6
Continuous
 62
     7
370
    25
100
AcDbCircle
 10
203.596412845
 20
60.8983688021
 30
0.0
 40
1.175974088202253
100
AcDbArc
 50
180.0
 51
270.0
  0
ARC
  5
F9
330
1F
100
AcDbEntity
  8
0
  6
Continuous
 62
     7
370
    25
100
AcDbCircle
 10
203.596412845
 20
80.6782529656
 30
0.0
 40
1.175974088202253
100
AcDbArc
 50
90.0
 51
180.0
  0
LINE
  5
FA
330
1F
100
AcDbEntity
  8
0
  6
Continuous
 62
     7
370
    25
100
AcDbLine
 10
214.1801796388
 20
77.9029541175
 30
0.0
 11
214.1801796388
 21
84.0768180805
 31
0.0
  0
LINE
  5
FB
330
1F
100
AcDbEntity
  8
0
  6
Continuous
 62
     7
370
    25
100
AcDbLine
 10
243.5795318439
 20
77.9029541175
 30
0.0
 11
243.5795318439
 21
84.0768180805
 31
0.0
  0
LINE
  5
FC
330
1F
100
AcDbEntity
  8
0
  6
Continuous
 62
     7
370
    25
100
AcDbLine
 10
214.1801796388
 20
77.9029541175
 30
0.0
 11
214.1801796388
 21
63.6736676502
 31
0.0
  0
LINE
  5
FD
330
1F
100
AcDbEntity
  8
0
  6
Continuous
 62
     7
370
    25
100
AcDbLine
 10
243.5795318439
 20
77.9029541175
 30
0.0
 11
243.5795318439
 21
63.6736676502
 31
0.0
  0
LINE
  5
FE
330
1F
100
AcDbEntity
  8
0
  6
Continuous
 62
     7
370
    25
100
AcDbLine
 10
214.1801796388
 20
57.4998036872
 30
0.0
 11
214.1801796388
 21
63.6736676502
 31
0.0
  0
LINE
  5
FF
330
1F
100
AcDbEntity
  8
0
  6
Continuous
 62
     7
370
    25
100
AcDbLine
 10
243.5795318439
 20
57.4998036872
 30
0.0
 11
243.5795318439
 21
63.6736676502
 31
0.0
  0
LINE
  5
100
330
1F
100
AcDbEntity
  8
0
  6
Continuous
 62
     7
370
    25
100
AcDbLine
 10
202.4204387568
 20
60.8983688021
 30
0.0
 11
202.4204387568
 21
63.497271537
 31
0.0
  0
LINE
  5
101
330
1F
100
AcDbEntity
  8
0
  6
Continuous
 62
     7
370
    25
100
AcDbLine
 10
202.4204387568
 20
63.497271537
 30
0.0
 11
202.4204387568
 21
78.0793502307
 31
0.0
  0
LINE
  5
102
330
1F
100
AcDbEntity
  8
0
  6
Continuous
 62
     7
370
    25
100
AcDbLine
 10
202.4204387568
 20
78.0793502307
 30
0.0
 11
202.4204387568
 21
80.6782529656
 31
0.0
  0
ARC
  5
103
330
1F
100
AcDbEntity
  8
0
  6
Continuous
 62
     7
370
    25
100
AcDbCircle
 10
232.701771528
 20
40.8009716347
 30
0.0
 40
10.87776031587083
100
AcDbArc
 50
116.1038811373
 51
0.0
  0
ARC
  5
104
330
1F
100
AcDbEntity
  8
0
  6
Continuous
 62
     7
370
    25
100
AcDbCircle
 10
232.701771528
 20
40.8009716347
 30
0.0
 40
5.585876918960714
100
AcDbArc
 50
144.1473858073
 51
68.3817275778
  0
LINE
  5
105
330
1F
100
AcDbEntity
  8
0
  6
Continuous
 62
     7
370
    25
100
AcDbLine
 10
228.7622583325
 20
48.7106541276
 30
0.0
 11
228.7622583325
 21
44.7610545551
 31
0.0
  0
SPLINE
  5
106
330
1F
100
AcDbEntity
  8
0
  6
Continuous
 62
     7
370
    25
100
AcDbSpline
210
0.0
220
0.0
230
1.0
 70
     8
 71
     3
 72
    14
 73
    10
 74
     0
 42
0.00000001
 43
0.00000001
 40
0.0
 40
0.0
 40
0.0
 40
0.0
 40
0.25
 40
0.25
 40
0.5
 40
0.5
 40
0.75
 40
0.75
 40
1.0
 40
1.0
 40
1.0
 40
1.0
 10
228.7622583325149
 20
44.76105455508913
 30
0.0
 10
228.7622583325149
 20
44.76105455508914
 30
0.0
 10
228.7354407229713
 20
44.73466904850086
 30
0.0
 10
228.650330182167
 20
44.64695374848327
 30
0.0
 10
228.5944173411842
 20
44.5877139436847
 30
0.0
 10
228.4770923416983
 20
44.45635964467127
 30
0.0
 10
228.4150694124893
 20
44.38366600522391
 30
0.0
 10
228.2927321014522
 20
44.23198975107005
 30
0.0
 10
228.2327407293304
 20
44.153545316238
 30
0.0
 10
228.1742712884138
 20
44.07263215106291
 30
0.0
  0
SPLINE
  5
107
330
1F
100
AcDbEntity
  8
0
  6
Continuous
 62
     7
370
    25
100
AcDbSpline
210
0.0
220
0.0
230
1.0
 70
    24
 71
     3
 72
     9
 73
     5
 74
     0
 42
0.00000001
 43
0.00000001
 40
0.0
 40
0.0
 40
0.0
 40
0.0
 40
0.0008345083504888
 40
0.0016690167009776
 40
0.0016690167009776
 40
0.0016690167009776
 40
0.0016690167009776
 10
228.7622583325149
 20
50.0411651156212
 30
0.0
 10
228.7622583325149
 20
50.0411651156212
 30
0.0
 10
228.7622583325149
 20
49.70692170560718
 30
0.0
 10
228.7622583325149
 20
49.04164928538982
 30
0.0
 10
228.7622583325149
 20
48.71065412762304
 30
0.0
  0
ARC
  5
108
330
1F
100
AcDbEntity
  8
0
  6
Continuous
 62
     7
370
    25
100
AcDbCircle
 10
228.1742712884
 20
50.0411651156
 30
0.0
 40
0.5879870441011406
100
AcDbArc
 50
0.0
 51
116.1038811373
  0
LINE
  5
109
330
1F
100
AcDbEntity
  8
0
  6
Continuous
 62
     7
370
    25
100
AcDbLine
 10
243.5795318439
 20
57.4998036872
 30
0.0
 11
243.5795318439
 21
40.8009716347
 31
0.0
  0
SPLINE
  5
10A
330
1F
100
AcDbEntity
  8
0
  6
Continuous
 62
     7
370
    25
100
AcDbSpline
210
0.0
220
0.0
230
1.0
 70
     8
 71
     3
 72
    18
 73
    14
 74
     0
 42
0.00000001
 43
0.00000001
 40
0.0
 40
0.0
 40
0.0
 40
0.0
 40
0.1249999999999997
 40
0.1249999999999997
 40
0.2499999999999994
 40
0.2499999999999994
 40
0.3749999999999992
 40
0.3749999999999992
 40
0.4999999999999989
 40
0.4999999999999989
 40
0.7499999999999994
 40
0.7499999999999994
 40
1.0
 40
1.0
 40
1.0
 40
1.0
 10
234.7597261823464
 20
45.99393260069021
 30
0.0
 10
234.6497267698743
 20
46.03752503366923
 30
0.0
 10
234.5400102623945
 20
46.07696514196153
 30
0.0
 10
234.3214442155239
 20
46.14811007676273
 30
0.0
 10
234.2113774547577
 20
46.18010802657239
 30
0.0
 10
233.9993404757299
 20
46.23515356046925
 30
0.0
 10
233.8977387067177
 20
46.25820938257424
 30
0.0
 10
233.7040122058962
 20
46.29708798654024
 30
0.0
 10
233.6114359692259
 20
46.31292376297612
 30
0.0
 10
233.3617027403137
 20
46.35028245445106
 30
0.0
 10
233.2260329725838
 20
46.36294006558683
 30
0.0
 10
233.0441334692715
 20
46.37709315324942
 30
0.0
 10
232.995765050043
 20
46.37910651677839
 30
0.0
 10
232.995765050043
 20
46.37910651677839
 30
0.0
  0
LINE
  5
10B
330
1F
100
AcDbEntity
  8
0
  6
Continuous
 62
     7
370
    25
100
AcDbLine
 10
232.99576505
 20
46.3791065168
 30
0.0
 11
232.99576505
 21
57.4998036872
 31
0.0
  0
LINE
  5
10C
330
1F
100
AcDbEntity
  8
0
  6
HIDDEN
 62
     7
370
    18
100
AcDbLine
 10
230.6438168736
 20
78.0793502307
 30
0.0
 11
230.6438168736
 21
81.9012660174
 31
0.0
  0
LINE
  5
10D
330
1F
100
AcDbEntity
  8
0
  6
HIDDEN
 62
     7
370
    18
100
AcDbLine
 10
230.6438168736
 20
59.6753557503
 30
0.0
 11
230.6438168736
 21
63.497271537
 31
0.0
  0
LINE
  5
10E
330
1F
100
AcDbEntity
  8
0
  6
HIDDEN
 62
     7
370
    18
100
AcDbLine
 10
230.6438168736
 20
63.497271537
 30
0.0
 11
230.6438168736
 21
78.0793502307
 31
0.0
  0
ARC
  5
10F
330
1F
100
AcDbEntity
  8
0
  6
HIDDEN
 62
     7
370
    18
100
AcDbCircle
 10
241.8155707116
 20
74.3162331485
 30
0.0
 40
1.763961132303393
100
AcDbArc
 50
0.0
 51
90.0
  0
ARC
  5
110
330
1F
100
AcDbEntity
  8
0
  6
HIDDEN
 62
     7
370
    18
100
AcDbCircle
 10
241.8155707116
 20
67.2603886192
 30
0.0
 40
1.763961132303393
100
AcDbArc
 50
270.0
 51
0.0
  0
LINE
  5
111
330
1F
100
AcDbEntity
  8
0
  6
HIDDEN
 62
     7
370
    18
100
AcDbLine
 10
234.7597261823
 20
76.0801942808
 30
0.0
 11
241.8155707116
 21
76.0801942808
 31
0.0
  0
LINE
  5
112
330
1F
100
AcDbEntity
  8
0
  6
HIDDEN
 62
     7
370
    18
100
AcDbLine
 10
241.8155707116
 20
65.4964274869
 30
0.0
 11
234.7597261823
 21
65.4964274869
 31
0.0
  0
ARC
  5
113
330
1F
100
AcDbEntity
  8
0
  6
HIDDEN
 62
     7
370
    18
100
AcDbCircle
 10
234.7597261823
 20
74.3162331485
 30
0.0
 40
1.763961132303365
100
AcDbArc
 50
90.0
 51
180.0
  0
ARC
  5
114
330
1F
100
AcDbEntity
  8
0
  6
HIDDEN
 62
     7
370
    18
100
AcDbCircle
 10
234.7597261823
 20
67.2603886192
 30
0.0
 40
1.763961132303365
100
AcDbArc
 50
180.0
 51
270.0
  0
LINE
  5
115
330
1F
100
AcDbEntity
  8
0
  6
HIDDEN
 62
     7
370
    18
100
AcDbLine
 10
232.99576505
 20
67.2603886192
 30
0.0
 11
232.99576505
 21
74.3162331485
 31
0.0
  0
ARC
  5
116
330
1F
100
AcDbEntity
  8
0
  6
HIDDEN
 62
     7
370
    18
100
AcDbCircle
 10
242.4035577557
 20
67.2603886192
 30
0.0
 40
1.175974088202281
100
AcDbArc
 50
0.0
 51
90.0
  0
ARC
  5
117
330
1F
100
AcDbEntity
  8
0
  6
HIDDEN
 62
     7
370
    18
100
AcDbCircle
 10
242.4035577557
 20
74.3162331485
 30
0.0
 40
1.175974088202281
100
AcDbArc
 50
270.0
 51
0.0
  0
ARC
  5
118
330
1F
100
AcDbEntity
  8
0
  6
HIDDEN
 62
     7
370
    18
100
AcDbCircle
 10
234.1717391382
 20
74.3162331485
 30
0.0
 40
1.175974088202253
100
AcDbArc
 50
180.0
 51
270.0
  0
ARC
  5
119
330
1F
100
AcDbEntity
  8
0
  6
HIDDEN
 62
     7
370
    18
100
AcDbCircle
 10
234.1717391382
 20
67.2603886192
 30
0.0
 40
1.175974088202267
100
AcDbArc
 50
90.0
 51
180.0
  0
LINE
  5
11A
330
1F
100
AcDbEntity
  8
0
  6
HIDDEN
 62
     7
370
    18
100
AcDbLine
 10
242.4035577557
 20
68.4363627074
 30
0.0
 11
234.1717391382
 21
68.4363627074
 31
0.0
  0
LINE
  5
11B
330
1F
100
AcDbEntity
  8
0
  6
HIDDEN
 62
     7
370
    18
100
AcDbLine
 10
242.4035577557
 20
73.1402590603
 30
0.0
 11
234.1717391382
 21
73.1402590603
 31
0.0
  0
ELLIPSE
  5
11C
330
1F
100
AcDbEntity
  8
0
  6
HIDDEN
 62
     7
370
    18
100
AcDbEllipse
 10
241.8155707116
 20
59.2040107617
 30
0.0
 11
1.763961132303365
 21
0.0
 31
0.0
210
0.0
220
0.0
230
1.0
 40
0.7002075382
 41
4.712388980384699
 42
6.283185307179595
  0
LINE
  5
11D
330
1F
100
AcDbEntity
  8
0
  6
HIDDEN
 62
     7
370
    18
100
AcDbLine
 10
234.7597261823
 20
57.9688718797
 30
0.0
 11
241.8155707116
 21
57.9688718797
 31
0.0
  0
ELLIPSE
  5
11E
330
1F
100
AcDbEntity
  8
0
  6
HIDDEN
 62
     7
370
    18
100
AcDbEllipse
 10
234.7597261823
 20
59.2040107617
 30
0.0
 11
1.763961132303365
 21
0.0
 31
0.0
210
0.0
220
0.0
230
1.0
 40
0.7002075382
 41
3.141592653589825
 42
4.712388980384699
  0
LINE
  5
11F
330
1F
100
AcDbEntity
  8
0
  6
HIDDEN
 62
     7
370
    18
100
AcDbLine
 10
232.99576505
 20
59.2040107617
 30
0.0
 11
232.99576505
 21
61.5767806164
 31
0.0
  0
LINE
  5
120
330
1F
100
AcDbEntity
  8
0
  6
HIDDEN
 62
     7
370
    18
100
AcDbLine
 10
232.99576505
 20
61.5767806164
 30
0.0
 11
232.99576505
 21
64.2554937555
 31
0.0
  0
LINE
  5
121
330
1F
100
AcDbEntity
  8
0
  6
HIDDEN
 62
     7
370
    18
100
AcDbLine
 10
232.99576505
 20
64.2554937555
 30
0.0
 11
232.99576505
 21
67.2603886192
 31
0.0
  0
LINE
  5
122
330
1F
100
AcDbEntity
  8
0
  6
HIDDEN
 62
     7
370
    18
100
AcDbLine
 10
232.99576505
 20
57.4998036872
 30
0.0
 11
232.99576505
 21
59.2040107617
 31
0.0
  0
SPLINE
  5
123
330
1F
100
AcDbEntity
  8
0
  6
HIDDEN
 62
     7
370
    18
100
AcDbSpline
210
0.0
220
0.0
230
1.0
 70
     8
 71
     3
 72
    18
 73
    14
 74
     0
 42
0.00000001
 43
0.00000001
 40
0.0
 40
0.0
 40
0.0
 40
0.0
 40
0.1250000000000002
 40
0.1250000000000002
 40
0.2500000000000004
 40
0.2500000000000004
 40
0.3750000000000007
 40
0.3750000000000007
 40
0.5000000000000009
 40
0.5000000000000009
 40
0.7500000000000004
 40
0.7500000000000004
 40
1.0
 40
1.0
 40
1.0
 40
1.0
 10
232.995765050043
 20
46.37910651677839
 30
0.0
 10
232.995765050043
 20
46.37910651677838
 30
0.0
 10
233.0110247934859
 20
46.39363169821397
 30
0.0
 10
233.0692815148488
 20
46.44848632163085
 30
0.0
 10
233.1122391725191
 20
46.48874049311361
 30
0.0
 10
233.2182518055564
 20
46.58653362745438
 30
0.0
 10
233.2822675476448
 20
46.64492936364493
 30
0.0
 10
233.4230656025258
 20
46.77106507748429
 30
0.0
 10
233.5004540234384
 20
46.83937906117785
 30
0.0
 10
233.7518300320789
 20
47.05706183259044
 30
0.0
 10
233.9375213298459
 20
47.21256991624522
 30
0.0
 10
234.3355008650859
 20
47.53303781928264
 30
0.0
 10
234.5476285358177
 20
47.69768000899799
 30
0.0
 10
234.7597261823464
 20
47.8568161639036
 30
0.0
  0
SPLINE
  5
124
330
1F
100
AcDbEntity
  8
0
  6
HIDDEN
 62
     7
370
    18
100
AcDbSpline
210
0.0
220
0.0
230
1.0
 70
     8
 71
     3
 72
    16
 73
    12
 74
     0
 42
0.00000001
 43
0.00000001
 40
0.0
 40
0.0
 40
0.0
 40
0.0
 40
0.125
 40
0.125
 40
0.25
 40
0.25
 40
0.5
 40
0.5
 40
0.75
 40
0.75
 40
1.0
 40
1.0
 40
1.0
 40
1.0
 10
228.7622583325149
 20
44.76105455508913
 30
0.0
 10
228.7622583325149
 20
44.76105455508914
 30
0.0
 10
228.7500184260934
 20
44.76615222298241
 30
0.0
 10
228.7022915036127
 20
44.78591941921396
 30
0.0
 10
228.6661330910266
 20
44.80086309710365
 30
0.0
 10
228.5270397261691
 20
44.85784364551469
 30
0.0
 10
228.3908988263588
 20
44.91305628278538
 30
0.0
 10
228.0621490902139
 20
45.04263680682331
 30
0.0
 10
227.8671922368058
 20
45.11786654062869
 30
0.0
 10
227.4496372909323
 20
45.27427871780128
 30
0.0
 10
227.2222558539509
 20
45.35718618590143
 30
0.0
 10
226.9982972002116
 20
45.43675635490234
 30
0.0
  0
LINE
  5
125
330
1F
100
AcDbEntity
  8
0
  6
HIDDEN
 62
     7
370
    18
100
AcDbLine
 10
243.5795318439
 20
81.9012660174
 30
0.0
 11
230.6438168736
 21
81.9012660174
 31
0.0
  0
LINE
  5
126
330
1F
100
AcDbEntity
  8
0
  6
HIDDEN
 62
     7
370
    18
100
AcDbLine
 10
230.6438168736
 20
59.6753557503
 30
0.0
 11
243.5795318439
 21
59.6753557503
 31
0.0
  0
ARC
  5
127
330
1F
100
AcDbEntity
  8
0
  6
HIDDEN
 62
     7
370
    18
100
AcDbCircle
 10
242.4035577557
 20
71.0985785389
 30
0.0
 40
1.175974088202281
100
AcDbArc
 50
270.0
 51
0.0
  0
ARC
  5
128
330
1F
100
AcDbEntity
  8
0
  6
HIDDEN
 62
     7
370
    18
100
AcDbCircle
 10
234.1717391382
 20
71.0985785389
 30
0.0
 40
1.175974088202253
100
AcDbArc
 50
180.0
 51
270.0
  0
LINE
  5
129
330
1F
100
AcDbEntity
  8
0
  6
HIDDEN
 62
     7
370
    18
100
AcDbLine
 10
242.4035577557
 20
69.9226044507
 30
0.0
 11
234.1717391382
 21
69.9226044507
 31
0.0
  0
ARC
  5
12A
330
1F
100
AcDbEntity
  8
0
  6
HIDDEN
 62
     7
370
    18
100
AcDbCircle
 10
242.4035577557
 20
61.3640208705
 30
0.0
 40
1.175974088202281
100
AcDbArc
 50
0.0
 51
90.0
  0
ARC
  5
12B
330
1F
100
AcDbEntity
  8
0
  6
HIDDEN
 62
     7
370
    18
100
AcDbCircle
 10
234.1717391382
 20
61.3640208705
 30
0.0
 40
1.175974088202253
100
AcDbArc
 50
90.0
 51
180.0
  0
LINE
  5
12C
330
1F
100
AcDbEntity
  8
0
  6
HIDDEN
 62
     7
370
    18
100
AcDbLine
 10
234.1717391382
 20
62.5399949587
 30
0.0
 11
242.4035577557
 21
62.5399949587
 31
0.0
  0
ENDSEC
  0
SECTION
  2
OBJECTS
  0
DICTIONARY
  5
C
330
0
100
AcDbDictionary
281
     1
  3
ACAD_GROUP
350
D
  3
ACAD_LAYOUT
350
1A
  3
ACAD_MLINESTYLE
350
17
  3
ACAD_PLOTSETTINGS
350
19
  3
ACAD_PLOTSTYLENAME
350
E
  3
ACAD_SCALELIST
350
47
  3
DWGPROPS
350
12D
  0
DICTIONARY
  5
D
102
{ACAD_REACTORS
330
C
102
}
330
C
100
AcDbDictionary
281
     1
  0
DICTIONARY
  5
1A
102
{ACAD_REACTORS
330
C
102
}
330
C
100
AcDbDictionary
281
     1
  3
Layout1
350
1E
  3
Layout2
350
26
  3
Model
350
22
  0
DICTIONARY
  5
17
102
{ACAD_REACTORS
330
C
102
}
330
C
100
AcDbDictionary
281
     1
  3
Standard
350
18
  0
DICTIONARY
  5
19
102
{ACAD_REACTORS
330
C
102
}
330
C
100
AcDbDictionary
281
     1
  0
ACDBDICTIONARYWDFLT
  5
E
102
{ACAD_REACTORS
330
C
102
}
330
C
100
AcDbDictionary
281
     1
  3
Normal
350
F
100
AcDbDictionaryWithDefault
340
F
  0
DICTIONARY
  5
47
102
{ACAD_REACTORS
330
C
102
}
330
C
100
AcDbDictionary
281
     1
  3
A0
350
48
  3
A1
350
49
  3
A2
350
4A
  3
A3
350
4B
  3
A4
350
4C
  3
A5
350
4D
  3
A6
350
4E
  3
A7
350
4F
  3
A8
350
50
  3
A9
350
51
  3
B0
350
52
  3
B1
350
53
  3
B2
350
54
  3
B3
350
55
  3
B4
350
56
  3
B5
350
57
  3
B6
350
58
  0
XRECORD
  5
12D
102
{ACAD_REACTORS
330
C
102
}
330
C
100
AcDbXrecord
280
     1
  1
DWGPROPS COOKIE
  2

  3

  4

  6

  7

  8

  9

300
=
301
=
302
=
303
=
304
=
305
=
306
=
307
=
308
=
309
=
 40
0.0
 41
2461213.945592604
 42
2461213.945592905
  1

 90
        0
  0
LAYOUT
  5
1E
102
{ACAD_REACTORS
330
1A
102
}
330
1A
100
AcDbPlotSettings
  1

  2
none_device
  4

  6

 40
0.0
 41
0.0
 42
0.0
 43
0.0
 44
0.0
 45
0.0
 46
0.0
 47
0.0
 48
0.0
 49
0.0
140
0.0
141
0.0
142
1.0
143
1.0
 70
   688
 72
     1
 73
     0
 74
     5
  7

 75
    16
147
1.0
148
0.0
149
0.0
100
AcDbLayout
  1
Layout1
 70
     1
 71
     1
 10
0.0
 20
0.0
 11
420.0
 21
297.0
 12
0.0
 22
0.0
 32
0.0
 14
1.0000000000E+20
 24
1.0000000000E+20
 34
1.0000000000E+20
 15
-1.0000000000E+20
 25
-1.0000000000E+20
 35
-1.0000000000E+20
146
0.0
 13
0.0
 23
0.0
 33
0.0
 16
1.0
 26
0.0
 36
0.0
 17
0.0
 27
1.0
 37
0.0
 76
     0
330
1B
  0
LAYOUT
  5
26
102
{ACAD_REACTORS
330
1A
102
}
330
1A
100
AcDbPlotSettings
  1

  2
none_device
  4

  6

 40
0.0
 41
0.0
 42
0.0
 43
0.0
 44
0.0
 45
0.0
 46
0.0
 47
0.0
 48
0.0
 49
0.0
140
0.0
141
0.0
142
1.0
143
1.0
 70
   688
 72
     1
 73
     0
 74
     5
  7

 75
    16
147
1.0
148
0.0
149
0.0
100
AcDbLayout
  1
Layout2
 70
     1
 71
     2
 10
0.0
 20
0.0
 11
0.0
 21
0.0
 12
0.0
 22
0.0
 32
0.0
 14
0.0
 24
0.0
 34
0.0
 15
0.0
 25
0.0
 35
0.0
146
0.0
 13
0.0
 23
0.0
 33
0.0
 16
1.0
 26
0.0
 36
0.0
 17
0.0
 27
1.0
 37
0.0
 76
     0
330
23
  0
LAYOUT
  5
22
102
{ACAD_REACTORS
330
1A
102
}
330
1A
100
AcDbPlotSettings
  1

  2
none_device
  4
Letter_(8.50_x_11.00_Inches)
  6

 40
6.35
 41
6.35
 42
6.35000508
 43
6.35000508
 44
215.9
 45
279.4
 46
0.0
 47
0.0
 48
0.0
 49
0.0
140
0.0
141
0.0
142
1.0
143
1.0
 70
  1712
 72
     1
 73
     0
 74
     0
  7

 75
     0
147
1.0
148
0.0
149
0.0
100
AcDbLayout
  1
Model
 70
     1
 71
     0
 10
0.0
 20
0.0
 11
297.0
 21
210.0
 12
0.0
 22
0.0
 32
0.0
 14
0.0
 24
0.0
 34
0.0
 15
297.0
 25
210.0
 35
0.0
146
0.0
 13
0.0
 23
0.0
 33
0.0
 16
1.0
 26
0.0
 36
0.0
 17
0.0
 27
1.0
 37
0.0
 76
     0
330
1F
331
29
  0
MLINESTYLE
  5
18
102
{ACAD_REACTORS
330
17
102
}
330
17
100
AcDbMlineStyle
  2
Standard
 70
     0
  3

 62
   256
 51
90.0
 52
90.0
 71
     2
 49
0.5
 62
   256
  6
BYLAYER
 49
-0.5
 62
   256
  6
BYLAYER
  0
ACDBPLACEHOLDER
  5
F
102
{ACAD_REACTORS
330
E
102
}
330
E
  0
SCALE
  5
48
102
{ACAD_REACTORS
330
47
102
}
330
47
100
AcDbScale
 70
     0
300
1:1
140
1.0
141
1.0
290
     1
  0
SCALE
  5
49
102
{ACAD_REACTORS
330
47
102
}
330
47
100
AcDbScale
 70
     0
300
1:2
140
1.0
141
2.0
290
     0
  0
SCALE
  5
4A
102
{ACAD_REACTORS
330
47
102
}
330
47
100
AcDbScale
 70
     0
300
1:4
140
1.0
141
4.0
290
     0
  0
SCALE
  5
4B
102
{ACAD_REACTORS
330
47
102
}
330
47
100
AcDbScale
 70
     0
300
1:5
140
1.0
141
5.0
290
     0
  0
SCALE
  5
4C
102
{ACAD_REACTORS
330
47
102
}
330
47
100
AcDbScale
 70
     0
300
1:8
140
1.0
141
8.0
290
     0
  0
SCALE
  5
4D
102
{ACAD_REACTORS
330
47
102
}
330
47
100
AcDbScale
 70
     0
300
1:10
140
1.0
141
10.0
290
     0
  0
SCALE
  5
4E
102
{ACAD_REACTORS
330
47
102
}
330
47
100
AcDbScale
 70
     0
300
1:16
140
1.0
141
16.0
290
     0
  0
SCALE
  5
4F
102
{ACAD_REACTORS
330
47
102
}
330
47
100
AcDbScale
 70
     0
300
1:20
140
1.0
141
20.0
290
     0
  0
SCALE
  5
50
102
{ACAD_REACTORS
330
47
102
}
330
47
100
AcDbScale
 70
     0
300
1:30
140
1.0
141
30.0
290
     0
  0
SCALE
  5
51
102
{ACAD_REACTORS
330
47
102
}
330
47
100
AcDbScale
 70
     0
300
1:40
140
1.0
141
40.0
290
     0
  0
SCALE
  5
52
102
{ACAD_REACTORS
330
47
102
}
330
47
100
AcDbScale
 70
     0
300
1:50
140
1.0
141
50.0
290
     0
  0
SCALE
  5
53
102
{ACAD_REACTORS
330
47
102
}
330
47
100
AcDbScale
 70
     0
300
1:100
140
1.0
141
100.0
290
     0
  0
SCALE
  5
54
102
{ACAD_REACTORS
330
47
102
}
330
47
100
AcDbScale
 70
     0
300
2:1
140
2.0
141
1.0
290
     0
  0
SCALE
  5
55
102
{ACAD_REACTORS
330
47
102
}
330
47
100
AcDbScale
 70
     0
300
4:1
140
4.0
141
1.0
290
     0
  0
SCALE
  5
56
102
{ACAD_REACTORS
330
47
102
}
330
47
100
AcDbScale
 70
     0
300
8:1
140
8.0
141
1.0
290
     0
  0
SCALE
  5
57
102
{ACAD_REACTORS
330
47
102
}
330
47
100
AcDbScale
 70
     0
300
10:1
140
10.0
141
1.0
290
     0
  0
SCALE
  5
58
102
{ACAD_REACTORS
330
47
102
}
330
47
100
AcDbScale
 70
     0
300
100:1
140
100.0
141
1.0
290
     0
  0
ENDSEC
  0
EOF
