  0
SECTION
  2
HEADER
  9
$ACADVER
  1
AC1015
  9
$ACADMAINTVER
 70
     6
  9
$DWGCODEPAGE
  3
ANSI_936
  9
$INSBASE
 10
0.0
 20
0.0
 30
0.0
  9
$EXTMIN
 10
0.0
 20
0.0
 30
0.0
  9
$EXTMAX
 10
297.0
 20
210.0
 30
0.0
  9
$LIMMIN
 10
0.0
 20
0.0
  9
$LIMMAX
 10
297.0
 20
210.0
  9
$ORTHOMODE
 70
     0
  9
$REGENMODE
 70
     1
  9
$FILLMODE
 70
     1
  9
$QTEXTMODE
 70
     0
  9
$MIRRTEXT
 70
     1
  9
$LTSCALE
 40
1.0
  9
$ATTMODE
 70
     1
  9
$TEXTSIZE
 40
3.5
  9
$TRACEWID
 40
1.0
  9
$TEXTSTYLE
  7
Standard
  9
$CLAYER
  8
0
  9
$CELTYPE
  6
ByLayer
  9
$CECOLOR
 62
   256
  9
$CELTSCALE
 40
1.0
  9
$DISPSILH
 70
     0
  9
$DIMSCALE
 40
1.0
  9
$DIMASZ
 40
4.08
  9
$DIMEXO
 40
0.0
  9
$DIMDLI
 40
3.75
  9
$DIMRND
 40
0.0
  9
$DIMDLE
 40
0.0
  9
$DIMEXE
 40
2.0
  9
$DIMTP
 40
0.0
  9
$DIMTM
 40
0.0
  9
$DIMTXT
 40
3.5
  9
$DIMCEN
 40
2.5
  9
$DIMTSZ
 40
0.0
  9
$DIMTOL
 70
     0
  9
$DIMLIM
 70
     0
  9
$DIMTIH
 70
     1
  9
$DIMTOH
 70
     1
  9
$DIMSE1
 70
     0
  9
$DIMSE2
 70
     0
  9
$DIMTAD
 70
     1
  9
$DIMZIN
 70
     0
  9
$DIMBLK
  1

  9
$DIMASO
 70
     1
  9
$DIMSHO
 70
     1
  9
$DIMPOST
  1

  9
$DIMAPOST
  1

  9
$DIMALT
 70
     0
  9
$DIMALTD
 70
     3
  9
$DIMALTF
 40
0.0393700787
  9
$DIMLFAC
 40
2.0
  9
$DIMTOFL
 70
     1
  9
$DIMTVP
 40
0.0
  9
$DIMTIX
 70
     0
  9
$DIMSOXD
 70
     0
  9
$DIMSAH
 70
     0
  9
$DIMBLK1
  1

  9
$DIMBLK2
  1

  9
$DIMSTYLE
  2
ISO-25
  9
$DIMCLRD
 70
     0
  9
$DIMCLRE
 70
     0
  9
$DIMCLRT
 70
     0
  9
$DIMTFAC
 40
1.0
  9
$DIMGAP
 40
1.524
  9
$DIMJUST
 70
     0
  9
$DIMSD1
 70
     0
  9
$DIMSD2
 70
     0
  9
$DIMTOLJ
 70
     0
  9
$DIMTZIN
 70
     0
  9
$DIMALTZ
 70
     0
  9
$DIMALTTZ
 70
     0
  9
$DIMUPT
 70
     0
  9
$DIMDEC
 70
     2
  9
$DIMTDEC
 70
     2
  9
$DIMALTU
 70
     2
  9
$DIMALTTD
 70
     3
  9
$DIMTXSTY
  7
Standard
  9
$DIMAUNIT
 70
     0
  9
$DIMADEC
 70
     2
  9
$DIMALTRND
 40
0.0
  9
$DIMAZIN
 70
     0
  9
$DIMDSEP
 70
    44
  9
$DIMATFIT
 70
     3
  9
$DIMFRAC
 70
     0
  9
$DIMLDRBLK
  1

  9
$DIMLUNIT
 70
     2
  9
$DIMLWD
 70
    -2
  9
$DIMLWE
 70
    -2
  9
$DIMTMOVE
 70
     0
  9
$LUNITS
 70
     2
  9
$LUPREC
 70
     2
  9
$SKETCHINC
 40
1.0
  9
$FILLETRAD
 40
0.0
  9
$AUNITS
 70
     0
  9
$AUPREC
 70
     2
  9
$MENU
  1
.
  9
$ELEVATION
 40
0.0
  9
$PELEVATION
 40
0.0
  9
$THICKNESS
 40
0.0
  9
$LIMCHECK
 70
     0
  9
$CHAMFERA
 40
0.0
  9
$CHAMFERB
 40
0.0
  9
$CHAMFERC
 40
0.0
  9
$CHAMFERD
 40
0.0
  9
$SKPOLY
 70
     0
  9
$TDCREATE
 40
2461215.802652292
  9
$TDUCREATE
 40
2461215.469318959
  9
$TDUPDATE
 40
2461215.802652755
  9
$TDUUPDATE
 40
2461215.469319422
  9
$TDINDWG
 40
0.0000000116
  9
$TDUSRTIMER
 40
0.0000000116
  9
$USRTIMER
 70
     1
  9
$ANGBASE
 50
0.0
  9
$ANGDIR
 70
     0
  9
$PDMODE
 70
     0
  9
$PDSIZE
 40
-1.0
  9
$PLINEWID
 40
0.0
  9
$SPLFRAME
 70
     0
  9
$SPLINETYPE
 70
     6
  9
$SPLINESEGS
 70
     8
  9
$HANDSEED
  5
22D
  9
$SURFTAB1
 70
     6
  9
$SURFTAB2
 70
     6
  9
$SURFTYPE
 70
     6
  9
$SURFU
 70
     6
  9
$SURFV
 70
     6
  9
$UCSBASE
  2

  9
$UCSNAME
  2

  9
$UCSORG
 10
0.0
 20
0.0
 30
0.0
  9
$UCSXDIR
 10
1.0
 20
0.0
 30
0.0
  9
$UCSYDIR
 10
0.0
 20
1.0
 30
0.0
  9
$UCSORTHOREF
  2

  9
$UCSORTHOVIEW
 70
     0
  9
$UCSORGTOP
 10
0.0
 20
0.0
 30
0.0
  9
$UCSORGBOTTOM
 10
0.0
 20
0.0
 30
0.0
  9
$UCSORGLEFT
 10
0.0
 20
0.0
 30
0.0
  9
$UCSORGRIGHT
 10
0.0
 20
0.0
 30
0.0
  9
$UCSORGFRONT
 10
0.0
 20
0.0
 30
0.0
  9
$UCSORGBACK
 10
0.0
 20
0.0
 30
0.0
  9
$PUCSBASE
  2

  9
$PUCSNAME
  2

  9
$PUCSORG
 10
0.0
 20
0.0
 30
0.0
  9
$PUCSXDIR
 10
1.0
 20
0.0
 30
0.0
  9
$PUCSYDIR
 10
0.0
 20
1.0
 30
0.0
  9
$PUCSORTHOREF
  2

  9
$PUCSORTHOVIEW
 70
     0
  9
$PUCSORGTOP
 10
0.0
 20
0.0
 30
0.0
  9
$PUCSORGBOTTOM
 10
0.0
 20
0.0
 30
0.0
  9
$PUCSORGLEFT
 10
0.0
 20
0.0
 30
0.0
  9
$PUCSORGRIGHT
 10
0.0
 20
0.0
 30
0.0
  9
$PUCSORGFRONT
 10
0.0
 20
0.0
 30
0.0
  9
$PUCSORGBACK
 10
0.0
 20
0.0
 30
0.0
  9
$USERI1
 70
     0
  9
$USERI2
 70
     0
  9
$USERI3
 70
     0
  9
$USERI4
 70
     0
  9
$USERI5
 70
     0
  9
$USERR1
 40
0.0
  9
$USERR2
 40
0.0
  9
$USERR3
 40
0.0
  9
$USERR4
 40
0.0
  9
$USERR5
 40
0.0
  9
$WORLDVIEW
 70
     1
  9
$SHADEDGE
 70
     3
  9
$SHADEDIF
 70
    70
  9
$TILEMODE
 70
     1
  9
$MAXACTVP
 70
    64
  9
$PINSBASE
 10
0.0
 20
0.0
 30
0.0
  9
$PLIMCHECK
 70
     0
  9
$PEXTMIN
 10
1.0000000000E+20
 20
1.0000000000E+20
 30
1.0000000000E+20
  9
$PEXTMAX
 10
-1.0000000000E+20
 20
-1.0000000000E+20
 30
-1.0000000000E+20
  9
$PLIMMIN
 10
0.0
 20
0.0
  9
$PLIMMAX
 10
420.0
 20
297.0
  9
$UNITMODE
 70
     0
  9
$VISRETAIN
 70
     1
  9
$PLINEGEN
 70
     0
  9
$PSLTSCALE
 70
     1
  9
$TREEDEPTH
 70
  3020
  9
$CMLSTYLE
  2
Standard
  9
$CMLJUST
 70
     0
  9
$CMLSCALE
 40
20.0
  9
$PROXYGRAPHICS
 70
     1
  9
$MEASUREMENT
 70
     1
  9
$CELWEIGHT
370
    -1
  9
$ENDCAPS
280
     0
  9
$JOINSTYLE
280
     0
  9
$LWDISPLAY
290
     1
  9
$INSUNITS
 70
     4
  9
$HYPERLINKBASE
  1

  9
$STYLESHEET
  1

  9
$XEDIT
290
     1
  9
$CEPSNTYPE
380
     0
  9
$PSTYLEMODE
290
     1
  9
$FINGERPRINTGUID
  2
{bb825c35-6f62-4a72-8453-1d3a5250138f}
  9
$VERSIONGUID
  2
{FAEB1C32-E019-11D5-929B-00C0DF256EC4}
  9
$EXTNAMES
290
     1
  9
$PSVPSCALE
 40
0.0
  9
$OLESTARTUP
290
     0
  0
ENDSEC
  0
SECTION
  2
CLASSES
  0
CLASS
  1
ACDBDICTIONARYWDFLT
  2
AcDbDictionaryWithDefault
  3
ObjectDBX Classes
 90
        0
280
     0
281
     0
  0
CLASS
  1
VISUALSTYLE
  2
AcDbVisualStyle
  3
ObjectDBX Classes
 90
     4095
280
     0
281
     0
  0
CLASS
  1
MATERIAL
  2
AcDbMaterial
  3
ObjectDBX Classes
 90
     1153
280
     0
281
     0
  0
CLASS
  1
SCALE
  2
AcDbScale
  3
ObjectDBX Classes
 90
     1153
280
     0
281
     0
  0
CLASS
  1
TABLESTYLE
  2
AcDbTableStyle
  3
ObjectDBX Classes
 90
     4095
280
     0
281
     0
  0
CLASS
  1
MLEADERSTYLE
  2
AcDbMLeaderStyle
  3
ACDB_MLEADERSTYLE_CLASS
 90
     4095
280
     0
281
     0
  0
CLASS
  1
SUN
  2
AcDbSun
  3
SCENEOE
 90
     1153
280
     0
281
     0
  0
CLASS
  1
ACDBPLACEHOLDER
  2
AcDbPlaceHolder
  3
ObjectDBX Classes
 90
        0
280
     0
281
     0
  0
CLASS
  1
LAYOUT
  2
AcDbLayout
  3
ObjectDBX Classes
 90
        0
280
     0
281
     0
  0
ENDSEC
  0
SECTION
  2
TABLES
  0
TABLE
  2
VPORT
  5
8
330
0
100
AcDbSymbolTable
 70
     1
  0
VPORT
  5
29
330
8
100
AcDbSymbolTableRecord
100
AcDbViewportTableRecord
  2
*Active
 70
     0
 10
0.0
 20
0.0
 11
1.0
 21
1.0
 12
148.5
 22
105.0
 13
0.0
 23
0.0
 14
10.0
 24
10.0
 15
10.0
 25
10.0
 16
0.0
 26
0.0
 36
1.0
 17
0.0
 27
0.0
 37
0.0
 40
210.0
 41
1.4142857143
 42
50.0
 43
0.0
 44
0.0
 50
0.0
 51
0.0
 71
     0
 72
  2000
 73
     1
 74
     3
 75
     0
 76
     0
 77
     0
 78
     0
281
     0
 65
     1
110
0.0
120
0.0
130
0.0
111
1.0
121
0.0
131
0.0
112
0.0
122
1.0
132
0.0
 79
     0
146
0.0
  0
ENDTAB
  0
TABLE
  2
LTYPE
  5
5
330
0
100
AcDbSymbolTable
 70
     6
  0
LTYPE
  5
14
330
5
100
AcDbSymbolTableRecord
100
AcDbLinetypeTableRecord
  2
ByBlock
 70
     0
  3

 72
    65
 73
     0
 40
0.0
  0
LTYPE
  5
15
330
5
100
AcDbSymbolTableRecord
100
AcDbLinetypeTableRecord
  2
ByLayer
 70
     0
  3

 72
    65
 73
     0
 40
0.0
  0
LTYPE
  5
16
330
5
100
AcDbSymbolTableRecord
100
AcDbLinetypeTableRecord
  2
Continuous
 70
     0
  3
Solid line
 72
    65
 73
     0
 40
0.0
  0
LTYPE
  5
5E
330
5
100
AcDbSymbolTableRecord
100
AcDbLinetypeTableRecord
  2
HIDDEN
 70
     0
  3
Hidden __ __ __ __ __ __ __ __ __ __ __ __ __ __
 72
    65
 73
     2
 40
1.905
 49
1.27
 74
     0
 49
-0.635
 74
     0
  0
LTYPE
  5
5F
330
5
100
AcDbSymbolTableRecord
100
AcDbLinetypeTableRecord
  2
PHANTOM
 70
     0
  3
Phantom ______  __  __  ______  __  __  ______
 72
    65
 73
     6
 40
12.7
 49
6.35
 74
     0
 49
-1.27
 74
     0
 49
1.27
 74
     0
 49
-1.27
 74
     0
 49
1.27
 74
     0
 49
-1.27
 74
     0
  0
LTYPE
  5
60
330
5
100
AcDbSymbolTableRecord
100
AcDbLinetypeTableRecord
  2
CENTER
 70
     0
  3
Center ____ _ ____ _ ____ _ ____ _ ____ _ ____
 72
    65
 73
     4
 40
10.16
 49
6.35
 74
     0
 49
-1.27
 74
     0
 49
1.27
 74
     0
 49
-1.27
 74
     0
  0
LTYPE
  5
61
330
5
100
AcDbSymbolTableRecord
100
AcDbLinetypeTableRecord
  2
CENTERX2
 70
     0
  3
Center (2x) ________  __  ________  __  _____
 72
    65
 73
     4
 40
20.32
 49
12.7
 74
     0
 49
-2.54
 74
     0
 49
2.54
 74
     0
 49
-2.54
 74
     0
  0
LTYPE
  5
62
330
5
100
AcDbSymbolTableRecord
100
AcDbLinetypeTableRecord
  2
DOT2
 70
     0
  3
Dot (.5x) ........................................
 72
    65
 73
     2
 40
0.635
 49
0.0
 74
     0
 49
-0.635
 74
     0
  0
ENDTAB
  0
TABLE
  2
LAYER
  5
2
330
0
100
AcDbSymbolTable
 70
    14
  0
LAYER
  5
10
330
2
100
AcDbSymbolTableRecord
100
AcDbLayerTableRecord
  2
0
 70
     0
 62
     7
  6
Continuous
370
    -3
390
F
  0
LAYER
  5
63
330
2
100
AcDbSymbolTableRecord
100
AcDbLayerTableRecord
  2
SLD-0
 70
     0
 62
     7
  6
Continuous
370
    -3
390
F
  0
LAYER
  5
64
330
2
100
AcDbSymbolTableRecord
100
AcDbLayerTableRecord
  2
5
 70
     0
 62
     7
  6
Continuous
370
    -3
390
F
  0
LAYER
  5
65
330
2
100
AcDbSymbolTableRecord
100
AcDbLayerTableRecord
  2
9
 70
     0
 62
     7
  6
Continuous
370
    -3
390
F
  0
LAYER
  5
66
330
2
100
AcDbSymbolTableRecord
100
AcDbLayerTableRecord
  2
10
 70
     0
 62
     7
  6
Continuous
370
    -3
390
F
  0
LAYER
  5
67
330
2
100
AcDbSymbolTableRecord
100
AcDbLayerTableRecord
  2
轮廓实线层
 70
     0
 62
     7
  6
Continuous
370
    50
390
F
  0
LAYER
  5
68
330
2
100
AcDbSymbolTableRecord
100
AcDbLayerTableRecord
  2
细线层
 70
     0
 62
     4
  6
Continuous
370
    25
390
F
  0
LAYER
  5
69
330
2
100
AcDbSymbolTableRecord
100
AcDbLayerTableRecord
  2
中心线层
 70
     0
 62
     1
  6
CENTERX2
370
    25
390
F
  0
LAYER
  5
6A
330
2
100
AcDbSymbolTableRecord
100
AcDbLayerTableRecord
  2
虚线层
 70
     0
 62
     6
  6
HIDDEN
370
    25
390
F
  0
LAYER
  5
6B
330
2
100
AcDbSymbolTableRecord
100
AcDbLayerTableRecord
  2
剖面线层
 70
     0
 62
     2
  6
Continuous
370
    25
390
F
  0
LAYER
  5
6C
330
2
100
AcDbSymbolTableRecord
100
AcDbLayerTableRecord
  2
文字层
 70
     0
 62
     3
  6
Continuous
370
    25
390
F
  0
LAYER
  5
6D
330
2
100
AcDbSymbolTableRecord
100
AcDbLayerTableRecord
  2
标注层
 70
     0
 62
     4
  6
Continuous
370
    25
390
F
  0
LAYER
  5
6E
330
2
100
AcDbSymbolTableRecord
100
AcDbLayerTableRecord
  2
符号标注层
 70
     0
 62
    31
  6
Continuous
370
    25
390
F
  0
LAYER
  5
6F
330
2
100
AcDbSymbolTableRecord
100
AcDbLayerTableRecord
  2
双点划线层
 70
     0
 62
     6
  6
PHANTOM
370
    25
390
F
  0
ENDTAB
  0
TABLE
  2
STYLE
  5
3
330
0
100
AcDbSymbolTable
 70
     1
  0
STYLE
  5
11
330
3
100
AcDbSymbolTableRecord
100
AcDbTextStyleTableRecord
  2
Standard
 70
     0
 40
0.0
 41
1.0
 50
0.0
 71
     0
 42
3.5
  3
txt
  4

  0
ENDTAB
  0
TABLE
  2
VIEW
  5
6
330
0
100
AcDbSymbolTable
 70
     0
  0
ENDTAB
  0
TABLE
  2
UCS
  5
7
330
0
100
AcDbSymbolTable
 70
     0
  0
ENDTAB
  0
TABLE
  2
APPID
  5
9
330
0
100
AcDbSymbolTable
 70
     1
  0
APPID
  5
12
330
9
100
AcDbSymbolTableRecord
100
AcDbRegAppTableRecord
  2
ACAD
 70
     0
  0
ENDTAB
  0
TABLE
  2
DIMSTYLE
  5
A
330
0
100
AcDbSymbolTable
 70
     1
100
AcDbDimStyleTable
  0
DIMSTYLE
105
27
330
A
100
AcDbSymbolTableRecord
100
AcDbDimStyleTableRecord
  2
ISO-25
 70
     0
 41
2.5
 42
0.625
 43
3.75
 44
1.25
 73
     0
 74
     0
 77
     1
 78
     8
140
2.5
141
2.5
143
0.0393700787
147
0.625
171
     3
172
     1
178
     0
271
     2
272
     2
274
     3
278
    44
283
     0
284
     8
340
11
  0
ENDTAB
  0
TABLE
  2
BLOCK_RECORD
  5
1
330
0
100
AcDbSymbolTable
 70
     1
  0
BLOCK_RECORD
  5
1F
330
1
100
AcDbSymbolTableRecord
100
AcDbBlockTableRecord
  2
*Model_Space
340
22
  0
BLOCK_RECORD
  5
1B
330
1
100
AcDbSymbolTableRecord
100
AcDbBlockTableRecord
  2
*Paper_Space
340
1E
  0
BLOCK_RECORD
  5
23
330
1
100
AcDbSymbolTableRecord
100
AcDbBlockTableRecord
  2
*Paper_Space0
340
26
  0
ENDTAB
  0
ENDSEC
  0
SECTION
  2
BLOCKS
  0
BLOCK
  5
20
330
1F
100
AcDbEntity
  8
0
100
AcDbBlockBegin
  2
*Model_Space
 70
     0
 10
0.0
 20
0.0
 30
0.0
  3
*Model_Space
  1

  0
ENDBLK
  5
21
330
1F
100
AcDbEntity
  8
0
100
AcDbBlockEnd
  0
BLOCK
  5
1C
330
1B
100
AcDbEntity
 67
     1
  8
0
100
AcDbBlockBegin
  2
*Paper_Space
 70
     0
 10
0.0
 20
0.0
 30
0.0
  3
*Paper_Space
  1

  0
ENDBLK
  5
1D
330
1B
100
AcDbEntity
 67
     1
  8
0
100
AcDbBlockEnd
  0
BLOCK
  5
24
330
23
100
AcDbEntity
  8
0
100
AcDbBlockBegin
  2
*Paper_Space0
 70
     0
 10
0.0
 20
0.0
 30
0.0
  3
*Paper_Space0
  1

  0
ENDBLK
  5
25
330
23
100
AcDbEntity
  8
0
100
AcDbBlockEnd
  0
ENDSEC
  0
SECTION
  2
ENTITIES
  0
LINE
  5
70
330
1F
100
AcDbEntity
  8
0
  6
Continuous
 62
     7
370
    25
100
AcDbLine
 10
76.5745127913
 20
33.8292682927
 30
0.0
 11
46.6178861789
 21
33.8292682927
 31
0.0
  0
LINE
  5
71
330
1F
100
AcDbEntity
  8
0
  6
Continuous
 62
     7
370
    25
100
AcDbLine
 10
46.6178861789
 20
33.4227642276
 30
0.0
 11
76.5745127913
 21
33.4227642276
 31
0.0
  0
LINE
  5
72
330
1F
100
AcDbEntity
  8
0
  6
Continuous
 62
     7
370
    25
100
AcDbLine
 10
132.2122674091
 20
80.3739837398
 30
0.0
 11
123.9373054333
 21
66.041329167
 31
0.0
  0
LINE
  5
73
330
1F
100
AcDbEntity
  8
0
  6
Continuous
 62
     7
370
    25
100
AcDbLine
 10
124.2893482804
 20
65.8380771345
 30
0.0
 11
132.5643102562
 21
80.1707317073
 31
0.0
  0
ARC
  5
74
330
1F
100
AcDbEntity
  8
0
  6
Continuous
 62
     7
370
    25
100
AcDbCircle
 10
127.1056910569
 20
64.2120608743
 30
0.0
 40
3.658536585365866
100
AcDbArc
 50
150.0
 51
180.0
  0
ARC
  5
75
330
1F
100
AcDbEntity
  8
0
  6
Continuous
 62
     7
370
    25
100
AcDbCircle
 10
127.1056910569
 20
64.2120608743
 30
0.0
 40
3.252032520325233
100
AcDbArc
 50
150.0
 51
180.0
  0
LINE
  5
76
330
1F
100
AcDbEntity
  8
0
  6
Continuous
 62
     7
370
    25
100
AcDbLine
 10
123.8536585366
 20
49.7879391257
 30
0.0
 11
123.8536585366
 21
64.2120608743
 31
0.0
  0
LINE
  5
77
330
1F
100
AcDbEntity
  8
0
  6
Continuous
 62
     7
370
    25
100
AcDbLine
 10
123.4471544715
 20
64.2120608743
 30
0.0
 11
123.4471544715
 21
49.7879391257
 31
0.0
  0
ARC
  5
78
330
1F
100
AcDbEntity
  8
0
  6
Continuous
 62
     7
370
    25
100
AcDbCircle
 10
127.1056910569
 20
49.7879391257
 30
0.0
 40
3.658536585365884
100
AcDbArc
 50
180.0
 51
210.0
  0
ARC
  5
79
330
1F
100
AcDbEntity
  8
0
  6
Continuous
 62
     7
370
    25
100
AcDbCircle
 10
127.1056910569
 20
49.7879391257
 30
0.0
 40
3.252032520325187
100
AcDbArc
 50
180.0
 51
210.0
  0
LINE
  5
7A
330
1F
100
AcDbEntity
  8
0
  6
Continuous
 62
     7
370
    25
100
AcDbLine
 10
123.9373054333
 20
47.958670833
 30
0.0
 11
132.2122674091
 21
33.6260162602
 31
0.0
  0
LINE
  5
7B
330
1F
100
AcDbEntity
  8
0
  6
Continuous
 62
     7
370
    25
100
AcDbLine
 10
132.5643102562
 20
33.8292682927
 30
0.0
 11
124.2893482804
 21
48.1619228655
 31
0.0
  0
ARC
  5
7C
330
1F
100
AcDbEntity
  8
0
  6
Continuous
 62
     7
370
    25
100
AcDbCircle
 10
129.7479674797
 20
32.2032520325
 30
0.0
 40
2.845528455284551
100
AcDbArc
 50
0.0
 51
30.0
  0
ARC
  5
7D
330
1F
100
AcDbEntity
  8
0
  6
Continuous
 62
     7
370
    25
100
AcDbCircle
 10
129.7479674797
 20
32.2032520325
 30
0.0
 40
3.252032520325173
100
AcDbArc
 50
0.0
 51
30.0
  0
LINE
  5
7E
330
1F
100
AcDbEntity
  8
0
  6
Continuous
 62
     7
370
    25
100
AcDbLine
 10
132.593495935
 20
32.2032520325
 30
0.0
 11
132.593495935
 21
28.1382113821
 31
0.0
  0
LINE
  5
7F
330
1F
100
AcDbEntity
  8
0
  6
Continuous
 62
     7
370
    25
100
AcDbLine
 10
133.0
 20
28.1382113821
 30
0.0
 11
133.0
 21
32.2032520325
 31
0.0
  0
ARC
  5
80
330
1F
100
AcDbEntity
  8
0
  6
Continuous
 62
     7
370
    25
100
AcDbCircle
 10
129.7479674797
 20
28.1382113821
 30
0.0
 40
2.845528455284551
100
AcDbArc
 50
255.0
 51
0.0
  0
ARC
  5
81
330
1F
100
AcDbEntity
  8
0
  6
Continuous
 62
     7
370
    25
100
AcDbCircle
 10
129.7479674797
 20
28.1382113821
 30
0.0
 40
3.252032520325231
100
AcDbArc
 50
255.0
 51
0.0
  0
LINE
  5
82
330
1F
100
AcDbEntity
  8
0
  6
Continuous
 62
     7
370
    25
100
AcDbLine
 10
129.0114905221
 20
25.3896419577
 30
0.0
 11
108.5992764791
 21
30.8590782263
 31
0.0
  0
LINE
  5
83
330
1F
100
AcDbEntity
  8
0
  6
Continuous
 62
     7
370
    25
100
AcDbLine
 10
108.4940654851
 20
30.4664254513
 30
0.0
 11
128.9062795281
 21
24.9969891828
 31
0.0
  0
ARC
  5
84
330
1F
100
AcDbEntity
  8
0
  6
Continuous
 62
     7
370
    25
100
AcDbCircle
 10
107.6523775336
 20
27.325203252
 30
0.0
 40
3.658536585365852
100
AcDbArc
 50
75.0
 51
90.0
  0
ARC
  5
85
330
1F
100
AcDbEntity
  8
0
  6
Continuous
 62
     7
370
    25
100
AcDbCircle
 10
107.6523775336
 20
27.325203252
 30
0.0
 40
3.252032520325235
100
AcDbArc
 50
75.0
 51
90.0
  0
LINE
  5
86
330
1F
100
AcDbEntity
  8
0
  6
Continuous
 62
     7
370
    25
100
AcDbLine
 10
42.1463414634
 20
64.2120608743
 30
0.0
 11
42.1463414634
 21
49.7879391257
 31
0.0
  0
LINE
  5
87
330
1F
100
AcDbEntity
  8
0
  6
Continuous
 62
     7
370
    25
100
AcDbLine
 10
42.5528455285
 20
49.7879391257
 30
0.0
 11
42.5528455285
 21
64.2120608743
 31
0.0
  0
LINE
  5
88
330
1F
100
AcDbEntity
  8
0
  6
Continuous
 62
     7
370
    25
100
AcDbLine
 10
91.9112444127
 20
78.6693770583
 30
0.0
 11
129.0114905221
 21
88.6103580423
 31
0.0
  0
LINE
  5
89
330
1F
100
AcDbEntity
  8
0
  6
Continuous
 62
     7
370
    25
100
AcDbLine
 10
128.9062795281
 20
89.0030108172
 30
0.0
 11
91.8060334188
 21
79.0620298332
 31
0.0
  0
ARC
  5
8A
330
1F
100
AcDbEntity
  8
0
  6
Continuous
 62
     7
370
    25
100
AcDbCircle
 10
119.3821138211
 20
35.0487804878
 30
0.0
 40
1.219512195121965
100
AcDbArc
 50
270.0
 51
0.0
  0
ARC
  5
8B
330
1F
100
AcDbEntity
  8
0
  6
Continuous
 62
     7
370
    25
100
AcDbCircle
 10
119.3821138211
 20
35.0487804878
 30
0.0
 40
1.626016260162608
100
AcDbArc
 50
270.0
 51
0.0
  0
LINE
  5
8C
330
1F
100
AcDbEntity
  8
0
  6
Continuous
 62
     7
370
    25
100
AcDbLine
 10
120.6016260163
 20
69.9135549655
 30
0.0
 11
120.6016260163
 21
35.0487804878
 31
0.0
  0
LINE
  5
8D
330
1F
100
AcDbEntity
  8
0
  6
Continuous
 62
     7
370
    25
100
AcDbLine
 10
121.0081300813
 20
35.0487804878
 30
0.0
 11
121.0081300813
 21
69.9135549655
 31
0.0
  0
ARC
  5
8E
330
1F
100
AcDbEntity
  8
0
  6
Continuous
 62
     7
370
    25
100
AcDbCircle
 10
119.3821138211
 20
69.9135549655
 30
0.0
 40
1.626016260162601
100
AcDbArc
 50
0.0
 51
139.3300602864
  0
ARC
  5
8F
330
1F
100
AcDbEntity
  8
0
  6
Continuous
 62
     7
370
    25
100
AcDbCircle
 10
119.3821138211
 20
69.9135549655
 30
0.0
 40
1.219512195121965
100
AcDbArc
 50
0.0
 51
139.3300602864
  0
LINE
  5
90
330
1F
100
AcDbEntity
  8
0
  6
Continuous
 62
     7
370
    25
100
AcDbLine
 10
118.1488189335
 20
70.9732306699
 30
0.0
 11
88.192192321
 21
36.1084561922
 31
0.0
  0
LINE
  5
91
330
1F
100
AcDbEntity
  8
0
  6
Continuous
 62
     7
370
    25
100
AcDbLine
 10
88.500516043
 20
35.8435372661
 30
0.0
 11
118.4571426554
 21
70.7083117438
 31
0.0
  0
ARC
  5
92
330
1F
100
AcDbEntity
  8
0
  6
Continuous
 62
     7
370
    25
100
AcDbCircle
 10
89.4254872087
 20
35.0487804878
 30
0.0
 40
1.626016260162608
100
AcDbArc
 50
139.3300602864
 51
270.0
  0
ARC
  5
93
330
1F
100
AcDbEntity
  8
0
  6
Continuous
 62
     7
370
    25
100
AcDbCircle
 10
89.4254872087
 20
35.0487804878
 30
0.0
 40
1.219512195121958
100
AcDbArc
 50
139.3300602864
 51
270.0
  0
LINE
  5
94
330
1F
100
AcDbEntity
  8
0
  6
Continuous
 62
     7
370
    25
100
AcDbLine
 10
119.3821138211
 20
33.8292682927
 30
0.0
 11
89.4254872087
 21
33.8292682927
 31
0.0
  0
LINE
  5
95
330
1F
100
AcDbEntity
  8
0
  6
Continuous
 62
     7
370
    25
100
AcDbLine
 10
89.4254872087
 20
33.4227642276
 30
0.0
 11
119.3821138211
 21
33.4227642276
 31
0.0
  0
LINE
  5
96
330
1F
100
AcDbEntity
  8
0
  6
Continuous
 62
     7
370
    25
100
AcDbLine
 10
50.19784493
 20
75.6991869919
 30
0.0
 11
80.1523136667
 21
75.6991869919
 31
0.0
  0
LINE
  5
97
330
1F
100
AcDbEntity
  8
0
  6
Continuous
 62
     7
370
    25
100
AcDbLine
 10
80.1523136667
 20
76.1056910569
 30
0.0
 11
50.19784493
 21
76.1056910569
 31
0.0
  0
ARC
  5
98
330
1F
100
AcDbEntity
  8
0
  6
Continuous
 62
     7
370
    25
100
AcDbCircle
 10
50.19784493
 20
74.4796747967
 30
0.0
 40
1.626016260162586
100
AcDbArc
 50
90.0
 51
220.6699397136
  0
ARC
  5
99
330
1F
100
AcDbEntity
  8
0
  6
Continuous
 62
     7
370
    25
100
AcDbCircle
 10
50.19784493
 20
74.4796747967
 30
0.0
 40
1.219512195121938
100
AcDbArc
 50
90.0
 51
220.6699397136
  0
LINE
  5
9A
330
1F
100
AcDbEntity
  8
0
  6
Continuous
 62
     7
370
    25
100
AcDbLine
 10
79.2291932332
 20
38.8205010071
 30
0.0
 11
49.2728737642
 21
73.6849180185
 31
0.0
  0
LINE
  5
9B
330
1F
100
AcDbEntity
  8
0
  6
Continuous
 62
     7
370
    25
100
AcDbLine
 10
48.9645500423
 20
73.4199990924
 30
0.0
 11
78.9208695113
 21
38.5555820811
 31
0.0
  0
ARC
  5
9C
330
1F
100
AcDbEntity
  8
0
  6
Continuous
 62
     7
370
    25
100
AcDbCircle
 10
115.80215507
 20
74.4796747967
 30
0.0
 40
1.626016260162586
100
AcDbArc
 50
319.3300602864
 51
90.0
  0
ARC
  5
9D
330
1F
100
AcDbEntity
  8
0
  6
Continuous
 62
     7
370
    25
100
AcDbCircle
 10
115.80215507
 20
74.4796747967
 30
0.0
 40
1.219512195121938
100
AcDbArc
 50
319.3300602864
 51
90.0
  0
LINE
  5
9E
330
1F
100
AcDbEntity
  8
0
  6
Continuous
 62
     7
370
    25
100
AcDbLine
 10
85.8433705853
 20
75.6991869919
 30
0.0
 11
115.80215507
 21
75.6991869919
 31
0.0
  0
LINE
  5
9F
330
1F
100
AcDbEntity
  8
0
  6
Continuous
 62
     7
370
    25
100
AcDbLine
 10
115.80215507
 20
76.1056910569
 30
0.0
 11
85.8433705853
 21
76.1056910569
 31
0.0
  0
ARC
  5
A0
330
1F
100
AcDbEntity
  8
0
  6
Continuous
 62
     7
370
    25
100
AcDbCircle
 10
85.8433705853
 20
74.4796747967
 30
0.0
 40
1.626016260162599
100
AcDbArc
 50
90.0
 51
180.003041472
  0
ARC
  5
A1
330
1F
100
AcDbEntity
  8
0
  6
Continuous
 62
     7
370
    25
100
AcDbCircle
 10
85.8433705853
 20
74.4796747967
 30
0.0
 40
1.219512195121964
100
AcDbArc
 50
90.0
 51
180.003041472
  0
LINE
  5
A2
330
1F
100
AcDbEntity
  8
0
  6
Continuous
 62
     7
370
    25
100
AcDbLine
 10
84.6257091621
 20
39.6144781646
 30
0.0
 11
84.6238583919
 21
74.4796100605
 31
0.0
  0
LINE
  5
A3
330
1F
100
AcDbEntity
  8
0
  6
Continuous
 62
     7
370
    25
100
AcDbLine
 10
84.2173543274
 20
74.4795884818
 30
0.0
 11
84.2192050976
 21
39.6144565858
 31
0.0
  0
ARC
  5
A4
330
1F
100
AcDbEntity
  8
0
  6
Continuous
 62
     7
370
    25
100
AcDbCircle
 10
85.8452213555
 20
39.6145429008
 30
0.0
 40
1.626016260162604
100
AcDbArc
 50
180.003041472
 51
319.3300602864
  0
ARC
  5
A5
330
1F
100
AcDbEntity
  8
0
  6
Continuous
 62
     7
370
    25
100
AcDbCircle
 10
85.8452213555
 20
39.6145429008
 30
0.0
 40
1.219512195121949
100
AcDbArc
 50
180.003041472
 51
319.3300602864
  0
LINE
  5
A6
330
1F
100
AcDbEntity
  8
0
  6
Continuous
 62
     7
370
    25
100
AcDbLine
 10
116.7271262358
 20
73.6849180185
 30
0.0
 11
86.7701925212
 21
38.8197861225
 31
0.0
  0
LINE
  5
A7
330
1F
100
AcDbEntity
  8
0
  6
Continuous
 62
     7
370
    25
100
AcDbLine
 10
87.0785162431
 20
38.5548671964
 30
0.0
 11
117.0354499577
 21
73.4199990924
 31
0.0
  0
LINE
  5
A8
330
1F
100
AcDbEntity
  8
0
  6
Continuous
 62
     7
370
    25
100
AcDbLine
 10
37.0937204719
 20
24.9969891828
 30
0.0
 11
57.5059345149
 21
30.4664254513
 31
0.0
  0
LINE
  5
A9
330
1F
100
AcDbEntity
  8
0
  6
Continuous
 62
     7
370
    25
100
AcDbLine
 10
57.4007235209
 20
30.8590782263
 30
0.0
 11
36.9885094779
 21
25.3896419577
 31
0.0
  0
ARC
  5
AA
330
1F
100
AcDbEntity
  8
0
  6
Continuous
 62
     7
370
    25
100
AcDbCircle
 10
36.2520325203
 20
28.1382113821
 30
0.0
 40
3.252032520325231
100
AcDbArc
 50
180.0
 51
285.0
  0
ARC
  5
AB
330
1F
100
AcDbEntity
  8
0
  6
Continuous
 62
     7
370
    25
100
AcDbCircle
 10
36.2520325203
 20
28.1382113821
 30
0.0
 40
2.845528455284551
100
AcDbArc
 50
180.0
 51
285.0
  0
LINE
  5
AC
330
1F
100
AcDbEntity
  8
0
  6
Continuous
 62
     7
370
    25
100
AcDbLine
 10
33.0
 20
32.2032520325
 30
0.0
 11
33.0
 21
28.1382113821
 31
0.0
  0
LINE
  5
AD
330
1F
100
AcDbEntity
  8
0
  6
Continuous
 62
     7
370
    25
100
AcDbLine
 10
33.406504065
 20
28.1382113821
 30
0.0
 11
33.406504065
 21
32.2032520325
 31
0.0
  0
ARC
  5
AE
330
1F
100
AcDbEntity
  8
0
  6
Continuous
 62
     7
370
    25
100
AcDbCircle
 10
80.154164399
 20
39.6152577854
 30
0.0
 40
1.626016260162599
100
AcDbArc
 50
220.6699397136
 51
0.003041472
  0
ARC
  5
AF
330
1F
100
AcDbEntity
  8
0
  6
Continuous
 62
     7
370
    25
100
AcDbCircle
 10
80.154164399
 20
39.6152577854
 30
0.0
 40
1.219512195121949
100
AcDbArc
 50
220.6699397136
 51
0.003041472
  0
LINE
  5
B0
330
1F
100
AcDbEntity
  8
0
  6
Continuous
 62
     7
370
    25
100
AcDbLine
 10
81.7801806568
 20
39.6153441004
 30
0.0
 11
81.7783299245
 21
74.4797611117
 31
0.0
  0
LINE
  5
B1
330
1F
100
AcDbEntity
  8
0
  6
Continuous
 62
     7
370
    25
100
AcDbLine
 10
81.3718258601
 20
74.479739533
 30
0.0
 11
81.3736765924
 21
39.6153225216
 31
0.0
  0
ARC
  5
B2
330
1F
100
AcDbEntity
  8
0
  6
Continuous
 62
     7
370
    25
100
AcDbCircle
 10
80.1523136667
 20
74.4796747967
 30
0.0
 40
1.626016260162613
100
AcDbArc
 50
0.003041472
 51
90.0
  0
ARC
  5
B3
330
1F
100
AcDbEntity
  8
0
  6
Continuous
 62
     7
370
    25
100
AcDbCircle
 10
80.1523136667
 20
74.4796747967
 30
0.0
 40
1.219512195121949
100
AcDbArc
 50
0.003041472
 51
90.0
  0
ARC
  5
B4
330
1F
100
AcDbEntity
  8
0
  6
Continuous
 62
     7
370
    25
100
AcDbCircle
 10
90.9643454672
 20
82.2032520325
 30
0.0
 40
3.658536585365852
100
AcDbArc
 50
270.0
 51
285.0
  0
ARC
  5
B5
330
1F
100
AcDbEntity
  8
0
  6
Continuous
 62
     7
370
    25
100
AcDbCircle
 10
90.9643454672
 20
82.2032520325
 30
0.0
 40
3.252032520325224
100
AcDbArc
 50
270.0
 51
285.0
  0
ARC
  5
B6
330
1F
100
AcDbEntity
  8
0
  6
Continuous
 62
     7
370
    25
100
AcDbCircle
 10
38.8943089431
 20
64.2120608743
 30
0.0
 40
3.658536585365859
100
AcDbArc
 50
0.0
 51
30.0
  0
ARC
  5
B7
330
1F
100
AcDbEntity
  8
0
  6
Continuous
 62
     7
370
    25
100
AcDbCircle
 10
38.8943089431
 20
64.2120608743
 30
0.0
 40
3.252032520325239
100
AcDbArc
 50
0.0
 51
30.0
  0
LINE
  5
B8
330
1F
100
AcDbEntity
  8
0
  6
Continuous
 62
     7
370
    25
100
AcDbLine
 10
33.4356897438
 20
80.1707317073
 30
0.0
 11
41.7106517196
 21
65.8380771345
 31
0.0
  0
LINE
  5
B9
330
1F
100
AcDbEntity
  8
0
  6
Continuous
 62
     7
370
    25
100
AcDbLine
 10
42.0626945667
 20
66.041329167
 30
0.0
 11
33.7877325909
 21
80.3739837398
 31
0.0
  0
ARC
  5
BA
330
1F
100
AcDbEntity
  8
0
  6
Continuous
 62
     7
370
    25
100
AcDbCircle
 10
75.0356545328
 20
82.2032520325
 30
0.0
 40
3.658536585365852
100
AcDbArc
 50
255.0
 51
270.0
  0
LINE
  5
BB
330
1F
100
AcDbEntity
  8
0
  6
Continuous
 62
     7
370
    25
100
AcDbLine
 10
75.0356545328
 20
78.5447154472
 30
0.0
 11
90.9643454672
 21
78.5447154472
 31
0.0
  0
ARC
  5
BC
330
1F
100
AcDbEntity
  8
0
  6
Continuous
 62
     7
370
    25
100
AcDbCircle
 10
129.7479674797
 20
85.8617886179
 30
0.0
 40
2.845528455284551
100
AcDbArc
 50
0.0
 51
105.0
  0
LINE
  5
BD
330
1F
100
AcDbEntity
  8
0
  6
Continuous
 62
     7
370
    25
100
AcDbLine
 10
132.593495935
 20
85.8617886179
 30
0.0
 11
132.593495935
 21
81.7967479675
 31
0.0
  0
ARC
  5
BE
330
1F
100
AcDbEntity
  8
0
  6
Continuous
 62
     7
370
    25
100
AcDbCircle
 10
129.7479674797
 20
81.7967479675
 30
0.0
 40
2.845528455284551
100
AcDbArc
 50
330.0
 51
0.0
  0
LINE
  5
BF
330
1F
100
AcDbEntity
  8
0
  6
Continuous
 62
     7
370
    25
100
AcDbLine
 10
107.6523775336
 20
30.9837398374
 30
0.0
 11
58.3476224664
 21
30.9837398374
 31
0.0
  0
ARC
  5
C0
330
1F
100
AcDbEntity
  8
0
  6
Continuous
 62
     7
370
    25
100
AcDbCircle
 10
58.3476224664
 20
27.325203252
 30
0.0
 40
3.65853658536586
100
AcDbArc
 50
90.0
 51
105.0
  0
ARC
  5
C1
330
1F
100
AcDbEntity
  8
0
  6
Continuous
 62
     7
370
    25
100
AcDbCircle
 10
36.2520325203
 20
32.2032520325
 30
0.0
 40
2.845528455284551
100
AcDbArc
 50
150.0
 51
180.0
  0
LINE
  5
C2
330
1F
100
AcDbEntity
  8
0
  6
Continuous
 62
     7
370
    25
100
AcDbLine
 10
33.7877325909
 20
33.6260162602
 30
0.0
 11
42.0626945667
 21
47.958670833
 31
0.0
  0
ARC
  5
C3
330
1F
100
AcDbEntity
  8
0
  6
Continuous
 62
     7
370
    25
100
AcDbCircle
 10
38.8943089431
 20
49.7879391257
 30
0.0
 40
3.658536585365878
100
AcDbArc
 50
330.0
 51
0.0
  0
ARC
  5
C4
330
1F
100
AcDbEntity
  8
0
  6
Continuous
 62
     7
370
    25
100
AcDbCircle
 10
36.2520325203
 20
81.7967479675
 30
0.0
 40
2.845528455284551
100
AcDbArc
 50
180.0
 51
210.0
  0
LINE
  5
C5
330
1F
100
AcDbEntity
  8
0
  6
Continuous
 62
     7
370
    25
100
AcDbLine
 10
33.406504065
 20
81.7967479675
 30
0.0
 11
33.406504065
 21
85.8617886179
 31
0.0
  0
ARC
  5
C6
330
1F
100
AcDbEntity
  8
0
  6
Continuous
 62
     7
370
    25
100
AcDbCircle
 10
36.2520325203
 20
85.8617886179
 30
0.0
 40
2.845528455284551
100
AcDbArc
 50
75.0
 51
180.0
  0
LINE
  5
C7
330
1F
100
AcDbEntity
  8
0
  6
Continuous
 62
     7
370
    25
100
AcDbLine
 10
36.9885094779
 20
88.6103580423
 30
0.0
 11
74.0887555873
 21
78.6693770583
 31
0.0
  0
ARC
  5
C8
330
1F
100
AcDbEntity
  8
0
  6
Continuous
 62
     7
370
    25
100
AcDbCircle
 10
76.5745127913
 20
35.0487804878
 30
0.0
 40
1.626016260162608
100
AcDbArc
 50
270.0
 51
40.6699397136
  0
LINE
  5
C9
330
1F
100
AcDbEntity
  8
0
  6
Continuous
 62
     7
370
    25
100
AcDbLine
 10
77.807807679
 20
36.1084561922
 30
0.0
 11
47.8511810665
 21
70.9732306699
 31
0.0
  0
ARC
  5
CA
330
1F
100
AcDbEntity
  8
0
  6
Continuous
 62
     7
370
    25
100
AcDbCircle
 10
46.6178861789
 20
69.9135549655
 30
0.0
 40
1.626016260162636
100
AcDbArc
 50
40.6699397136
 51
180.0
  0
LINE
  5
CB
330
1F
100
AcDbEntity
  8
0
  6
Continuous
 62
     7
370
    25
100
AcDbLine
 10
44.9918699187
 20
69.9135549655
 30
0.0
 11
44.9918699187
 21
35.0487804878
 31
0.0
  0
ARC
  5
CC
330
1F
100
AcDbEntity
  8
0
  6
Continuous
 62
     7
370
    25
100
AcDbCircle
 10
46.6178861789
 20
35.0487804878
 30
0.0
 40
1.626016260162608
100
AcDbArc
 50
180.0
 51
270.0
  0
LINE
  5
CD
330
1F
100
AcDbEntity
  8
0
  6
Continuous
 62
     7
370
    25
100
AcDbLine
 10
131.1300813008
 20
81.7967479675
 30
0.0
 11
131.1300813008
 21
85.8617886179
 31
0.0
  0
ARC
  5
CE
330
1F
100
AcDbEntity
  8
0
  6
Continuous
 62
     7
370
    25
100
AcDbCircle
 10
129.7479674797
 20
81.7967479675
 30
0.0
 40
1.382113821138233
100
AcDbArc
 50
180.0
 51
0.0
  0
LINE
  5
CF
330
1F
100
AcDbEntity
  8
0
  6
Continuous
 62
     7
370
    25
100
AcDbLine
 10
128.3658536585
 20
85.8617886179
 30
0.0
 11
128.3658536585
 21
81.7967479675
 31
0.0
  0
ARC
  5
D0
330
1F
100
AcDbEntity
  8
0
  6
Continuous
 62
     7
370
    25
100
AcDbCircle
 10
129.7479674797
 20
85.8617886179
 30
0.0
 40
1.382113821138233
100
AcDbArc
 50
0.0
 51
180.0
  0
LINE
  5
D1
330
1F
100
AcDbEntity
  8
0
  6
Continuous
 62
     7
370
    25
100
AcDbLine
 10
131.1300813008
 20
28.1382113821
 30
0.0
 11
131.1300813008
 21
32.2032520325
 31
0.0
  0
ARC
  5
D2
330
1F
100
AcDbEntity
  8
0
  6
Continuous
 62
     7
370
    25
100
AcDbCircle
 10
129.7479674797
 20
28.1382113821
 30
0.0
 40
1.382113821138233
100
AcDbArc
 50
180.0
 51
0.0
  0
LINE
  5
D3
330
1F
100
AcDbEntity
  8
0
  6
Continuous
 62
     7
370
    25
100
AcDbLine
 10
128.3658536585
 20
32.2032520325
 30
0.0
 11
128.3658536585
 21
28.1382113821
 31
0.0
  0
ARC
  5
D4
330
1F
100
AcDbEntity
  8
0
  6
Continuous
 62
     7
370
    25
100
AcDbCircle
 10
129.7479674797
 20
32.2032520325
 30
0.0
 40
1.382113821138233
100
AcDbArc
 50
0.0
 51
180.0
  0
LINE
  5
D5
330
1F
100
AcDbEntity
  8
0
  6
Continuous
 62
     7
370
    25
100
AcDbLine
 10
34.8699186992
 20
81.7967479675
 30
0.0
 11
34.8699186992
 21
85.8617886179
 31
0.0
  0
ARC
  5
D6
330
1F
100
AcDbEntity
  8
0
  6
Continuous
 62
     7
370
    25
100
AcDbCircle
 10
36.2520325203
 20
81.7967479675
 30
0.0
 40
1.382113821138212
100
AcDbArc
 50
180.0
 51
0.0
  0
LINE
  5
D7
330
1F
100
AcDbEntity
  8
0
  6
Continuous
 62
     7
370
    25
100
AcDbLine
 10
37.6341463415
 20
85.8617886179
 30
0.0
 11
37.6341463415
 21
81.7967479675
 31
0.0
  0
ARC
  5
D8
330
1F
100
AcDbEntity
  8
0
  6
Continuous
 62
     7
370
    25
100
AcDbCircle
 10
36.2520325203
 20
85.8617886179
 30
0.0
 40
1.382113821138212
100
AcDbArc
 50
0.0
 51
180.0
  0
LINE
  5
D9
330
1F
100
AcDbEntity
  8
0
  6
Continuous
 62
     7
370
    25
100
AcDbLine
 10
34.8699186992
 20
28.1382113821
 30
0.0
 11
34.8699186992
 21
32.2032520325
 31
0.0
  0
ARC
  5
DA
330
1F
100
AcDbEntity
  8
0
  6
Continuous
 62
     7
370
    25
100
AcDbCircle
 10
36.2520325203
 20
28.1382113821
 30
0.0
 40
1.382113821138212
100
AcDbArc
 50
180.0
 51
0.0
  0
LINE
  5
DB
330
1F
100
AcDbEntity
  8
0
  6
Continuous
 62
     7
370
    25
100
AcDbLine
 10
37.6341463415
 20
32.2032520325
 30
0.0
 11
37.6341463415
 21
28.1382113821
 31
0.0
  0
ARC
  5
DC
330
1F
100
AcDbEntity
  8
0
  6
Continuous
 62
     7
370
    25
100
AcDbCircle
 10
36.2520325203
 20
32.2032520325
 30
0.0
 40
1.382113821138212
100
AcDbArc
 50
0.0
 51
180.0
  0
LINE
  5
DD
330
1F
100
AcDbEntity
  8
0
  6
Continuous
 62
     7
370
    25
100
AcDbLine
 10
33.0
 20
85.8617886179
 30
0.0
 11
33.0
 21
81.7967479675
 31
0.0
  0
ARC
  5
DE
330
1F
100
AcDbEntity
  8
0
  6
Continuous
 62
     7
370
    25
100
AcDbCircle
 10
75.0356545328
 20
82.2032520325
 30
0.0
 40
3.252032520325224
100
AcDbArc
 50
255.0
 51
270.0
  0
LINE
  5
DF
330
1F
100
AcDbEntity
  8
0
  6
Continuous
 62
     7
370
    25
100
AcDbLine
 10
90.9643454672
 20
78.9512195122
 30
0.0
 11
75.0356545328
 21
78.9512195122
 31
0.0
  0
ARC
  5
E0
330
1F
100
AcDbEntity
  8
0
  6
Continuous
 62
     7
370
    25
100
AcDbCircle
 10
38.8943089431
 20
49.7879391257
 30
0.0
 40
3.252032520325201
100
AcDbArc
 50
330.0
 51
0.0
  0
ARC
  5
E1
330
1F
100
AcDbEntity
  8
0
  6
Continuous
 62
     7
370
    25
100
AcDbCircle
 10
76.5745127913
 20
35.0487804878
 30
0.0
 40
1.219512195121971
100
AcDbArc
 50
270.0
 51
40.6699397136
  0
ARC
  5
E2
330
1F
100
AcDbEntity
  8
0
  6
Continuous
 62
     7
370
    25
100
AcDbCircle
 10
129.7479674797
 20
85.8617886179
 30
0.0
 40
3.252032520325235
100
AcDbArc
 50
0.0
 51
105.0
  0
LINE
  5
E3
330
1F
100
AcDbEntity
  8
0
  6
Continuous
 62
     7
370
    25
100
AcDbLine
 10
133.0
 20
81.7967479675
 30
0.0
 11
133.0
 21
85.8617886179
 31
0.0
  0
ARC
  5
E4
330
1F
100
AcDbEntity
  8
0
  6
Continuous
 62
     7
370
    25
100
AcDbCircle
 10
129.7479674797
 20
81.7967479675
 30
0.0
 40
3.252032520325173
100
AcDbArc
 50
330.0
 51
0.0
  0
ARC
  5
E5
330
1F
100
AcDbEntity
  8
0
  6
Continuous
 62
     7
370
    25
100
AcDbCircle
 10
46.6178861789
 20
35.0487804878
 30
0.0
 40
1.219512195121958
100
AcDbArc
 50
180.0
 51
270.0
  0
LINE
  5
E6
330
1F
100
AcDbEntity
  8
0
  6
Continuous
 62
     7
370
    25
100
AcDbLine
 10
41.7106517196
 20
48.1619228655
 30
0.0
 11
33.4356897438
 21
33.8292682927
 31
0.0
  0
LINE
  5
E7
330
1F
100
AcDbEntity
  8
0
  6
Continuous
 62
     7
370
    25
100
AcDbLine
 10
74.1939665812
 20
79.0620298332
 30
0.0
 11
37.0937204719
 21
89.0030108172
 31
0.0
  0
LINE
  5
E8
330
1F
100
AcDbEntity
  8
0
  6
Continuous
 62
     7
370
    25
100
AcDbLine
 10
58.3476224664
 20
30.5772357724
 30
0.0
 11
107.6523775336
 21
30.5772357724
 31
0.0
  0
ARC
  5
E9
330
1F
100
AcDbEntity
  8
0
  6
Continuous
 62
     7
370
    25
100
AcDbCircle
 10
58.3476224664
 20
27.325203252
 30
0.0
 40
3.252032520325235
100
AcDbArc
 50
90.0
 51
105.0
  0
LINE
  5
EA
330
1F
100
AcDbEntity
  8
0
  6
Continuous
 62
     7
370
    25
100
AcDbLine
 10
47.5428573446
 20
70.7083117438
 30
0.0
 11
77.499483957
 21
35.8435372661
 31
0.0
  0
ARC
  5
EB
330
1F
100
AcDbEntity
  8
0
  6
Continuous
 62
     7
370
    25
100
AcDbCircle
 10
36.2520325203
 20
81.7967479675
 30
0.0
 40
3.252032520325201
100
AcDbArc
 50
180.0
 51
210.0
  0
LINE
  5
EC
330
1F
100
AcDbEntity
  8
0
  6
Continuous
 62
     7
370
    25
100
AcDbLine
 10
45.3983739837
 20
35.0487804878
 30
0.0
 11
45.3983739837
 21
69.9135549655
 31
0.0
  0
ARC
  5
ED
330
1F
100
AcDbEntity
  8
0
  6
Continuous
 62
     7
370
    25
100
AcDbCircle
 10
36.2520325203
 20
85.8617886179
 30
0.0
 40
3.252032520325235
100
AcDbArc
 50
75.0
 51
180.0
  0
ARC
  5
EE
330
1F
100
AcDbEntity
  8
0
  6
Continuous
 62
     7
370
    25
100
AcDbCircle
 10
36.2520325203
 20
32.2032520325
 30
0.0
 40
3.252032520325201
100
AcDbArc
 50
150.0
 51
180.0
  0
ARC
  5
EF
330
1F
100
AcDbEntity
  8
0
  6
Continuous
 62
     7
370
    25
100
AcDbCircle
 10
46.6178861789
 20
69.9135549655
 30
0.0
 40
1.219512195121951
100
AcDbArc
 50
40.6699397136
 51
180.0
  0
SPLINE
  5
F0
330
1F
100
AcDbEntity
  8
0
  6
Continuous
 62
     7
370
    25
100
AcDbSpline
210
0.0
220
0.0
230
1.0
 70
    24
 71
     3
 72
    11
 73
     7
 74
     0
 42
0.00000001
 43
0.00000001
 40
-0.0000000000000005
 40
-0.0000000000000005
 40
-0.0000000000000005
 40
-0.0000000000000005
 40
0.224399475256413
 40
0.448798950512826
 40
0.673198425769239
 40
1.57079632679489
 40
1.57079632679489
 40
1.57079632679489
 40
1.57079632679489
 10
86.77019252123853
 20
38.81978612252204
 30
0.0
 10
86.77019252123853
 20
38.81978612252204
 30
0.0
 10
86.76831900773736
 20
38.86973922682463
 30
0.0
 10
86.75991944632287
 20
39.09369500145561
 30
0.0
 10
86.73313300613945
 20
39.80789633469829
 30
0.0
 10
86.69164714417467
 20
40.91402532097423
 30
0.0
 10
86.65811304257623
 20
41.80813815966162
 30
0.0
  0
SPLINE
  5
F1
330
1F
100
AcDbEntity
  8
0
  6
Continuous
 62
     7
370
    25
100
AcDbSpline
210
0.0
220
0.0
230
1.0
 70
    24
 71
     3
 72
    11
 73
     7
 74
     0
 42
0.00000001
 43
0.00000001
 40
-0.0000000000000005
 40
-0.0000000000000005
 40
-0.0000000000000005
 40
-0.0000000000000005
 40
0.8975979010256584
 40
1.121997376282073
 40
1.346396851538487
 40
1.5707963267949
 40
1.5707963267949
 40
1.5707963267949
 40
1.5707963267949
 10
47.43089430894309
 20
67.71982418541887
 30
0.0
 10
47.46439357087439
 20
68.61397757196741
 30
0.0
 10
47.5058242809256
 20
69.71983506146309
 30
0.0
 10
47.53259411740585
 20
70.43436841432455
 30
0.0
 10
47.54098337032561
 20
70.65829212118521
 30
0.0
 10
47.54285734459544
 20
70.70831174380163
 30
0.0
 10
47.54285734459544
 20
70.70831174380163
 30
0.0
  0
SPLINE
  5
F2
330
1F
100
AcDbEntity
  8
0
  6
Continuous
 62
     7
370
    25
100
AcDbSpline
210
0.0
220
0.0
230
1.0
 70
    24
 71
     3
 72
    11
 73
     7
 74
     0
 42
0.00000001
 43
0.00000001
 40
-0.0000000000000004
 40
-0.0000000000000004
 40
-0.0000000000000004
 40
-0.0000000000000004
 40
0.8975979010256585
 40
1.121997376282073
 40
1.346396851538487
 40
1.5707963267949
 40
1.5707963267949
 40
1.5707963267949
 40
1.5707963267949
 10
79.34103980919748
 20
41.80912410618487
 30
0.0
 10
79.30757539192386
 20
40.91493016596691
 30
0.0
 10
79.26617573808163
 20
39.80870084512968
 30
0.0
 10
79.23944496056022
 20
39.09443473131903
 30
0.0
 10
79.23106285353798
 20
38.87045864220195
 30
0.0
 10
79.22919323323494
 20
38.82050100714618
 30
0.0
 10
79.22919323323494
 20
38.82050100714618
 30
0.0
  0
SPLINE
  5
F3
330
1F
100
AcDbEntity
  8
0
  6
Continuous
 62
     7
370
    25
100
AcDbSpline
210
0.0
220
0.0
230
1.0
 70
    24
 71
     3
 72
    10
 73
     6
 74
     0
 42
0.00000001
 43
0.00000001
 40
-0.0000000000000006
 40
-0.0000000000000006
 40
-0.0000000000000006
 40
-0.0000000000000006
 40
0.448798950512827
 40
0.673198425769241
 40
1.5707963267949
 40
1.5707963267949
 40
1.5707963267949
 40
1.5707963267949
 10
80.15231366667192
 20
75.69918699186992
 30
0.0
 10
80.15231366667192
 20
75.69918699186992
 30
0.0
 10
80.1101972487464
 20
75.59389035766945
 30
0.0
 10
79.88324424489937
 20
75.02647772848887
 30
0.0
 10
79.58258724427311
 20
74.27479532589814
 30
0.0
 10
79.33934869292584
 20
73.66666666666667
 30
0.0
  0
SPLINE
  5
F4
330
1F
100
AcDbEntity
  8
0
  6
Continuous
 62
     7
370
    25
100
AcDbSpline
210
0.0
220
0.0
230
1.0
 70
    24
 71
     3
 72
    10
 73
     6
 74
     0
 42
0.00000001
 43
0.00000001
 40
0.0
 40
0.0
 40
0.0
 40
0.0
 40
0.224399475256414
 40
0.673198425769241
 40
1.5707963267949
 40
1.5707963267949
 40
1.5707963267949
 40
1.5707963267949
 10
120.6016260162602
 20
35.04878048780488
 30
0.0
 10
120.6016260162602
 20
35.04878048780488
 30
0.0
 10
120.549822133405
 20
35.069502040947
 30
0.0
 10
120.0794154829168
 20
35.2576647011422
 30
0.0
 10
119.1772343502884
 20
35.61853715419358
 30
0.0
 10
118.5691056910569
 20
35.86178861788618
 30
0.0
  0
SPLINE
  5
F5
330
1F
100
AcDbEntity
  8
0
  6
Continuous
 62
     7
370
    25
100
AcDbSpline
210
0.0
220
0.0
230
1.0
 70
    24
 71
     3
 72
    11
 73
     7
 74
     0
 42
0.00000001
 43
0.00000001
 40
-0.0000000000000005
 40
-0.0000000000000005
 40
-0.0000000000000005
 40
-0.0000000000000005
 40
0.224399475256413
 40
0.448798950512827
 40
0.673198425769241
 40
1.5707963267949
 40
1.5707963267949
 40
1.5707963267949
 40
1.5707963267949
 10
45.39837398373983
 20
69.91355496552765
 30
0.0
 10
45.39837398373983
 20
69.91355496552765
 30
0.0
 10
45.43239316489439
 20
69.87683753451968
 30
0.0
 10
45.58468741962959
 20
69.71246397815058
 30
0.0
 10
46.0706534925526
 20
69.1879532418787
 30
0.0
 10
46.82276564971162
 20
68.37618689996586
 30
0.0
 10
47.43089430894309
 20
67.71982418541887
 30
0.0
  0
SPLINE
  5
F6
330
1F
100
AcDbEntity
  8
0
  6
Continuous
 62
     7
370
    25
100
AcDbSpline
210
0.0
220
0.0
230
1.0
 70
    24
 71
     3
 72
    10
 73
     6
 74
     0
 42
0.00000001
 43
0.00000001
 40
0.0
 40
0.0
 40
0.0
 40
0.0
 40
0.8975979010256498
 40
1.121997376282063
 40
1.57079632679489
 40
1.57079632679489
 40
1.57079632679489
 40
1.57079632679489
 10
47.43089430894309
 20
35.86178861788618
 30
0.0
 10
46.82276564971162
 20
35.61853715419358
 30
0.0
 10
46.07136790172594
 20
35.31797805499927
 30
0.0
 10
45.5038231529434
 20
35.09096015548626
 30
0.0
 10
45.39837398373983
 20
35.04878048780488
 30
0.0
 10
45.39837398373983
 20
35.04878048780488
 30
0.0
  0
SPLINE
  5
F7
330
1F
100
AcDbEntity
  8
0
  6
Continuous
 62
     7
370
    25
100
AcDbSpline
210
0.0
220
0.0
230
1.0
 70
    24
 71
     3
 72
    11
 73
     7
 74
     0
 42
0.00000001
 43
0.00000001
 40
-0.0000000000000005
 40
-0.0000000000000005
 40
-0.0000000000000005
 40
-0.0000000000000005
 40
0.8975979010256504
 40
1.121997376282063
 40
1.346396851538477
 40
1.57079632679489
 40
1.57079632679489
 40
1.57079632679489
 40
1.57079632679489
 10
86.65811304257623
 20
41.80813815966162
 30
0.0
 10
86.05001922352594
 20
41.15179662394374
 30
0.0
 10
85.29773140198637
 20
40.33982036530935
 30
0.0
 10
84.81199694263114
 20
39.81554649338903
 30
0.0
 10
84.65968269726852
 20
39.65114724679066
 30
0.0
 10
84.62570916210109
 20
39.61447816457504
 30
0.0
 10
84.62570916210109
 20
39.61447816457504
 30
0.0
  0
SPLINE
  5
F8
330
1F
100
AcDbEntity
  8
0
  6
Continuous
 62
     7
370
    25
100
AcDbSpline
210
0.0
220
0.0
230
1.0
 70
    24
 71
     3
 72
    10
 73
     6
 74
     0
 42
0.00000001
 43
0.00000001
 40
0.0000000000000001
 40
0.0000000000000001
 40
0.0000000000000001
 40
0.0000000000000001
 40
0.224399475256414
 40
0.673198425769241
 40
1.5707963267949
 40
1.5707963267949
 40
1.5707963267949
 40
1.5707963267949
 10
84.62385839185563
 20
74.47961006052708
 30
0.0
 10
84.62385839185563
 20
74.47961006052708
 30
0.0
 10
84.67564613470766
 20
74.45889705264067
 30
0.0
 10
85.14586263746142
 20
74.27082942131594
 30
0.0
 10
86.04828030221871
 20
73.90989876132726
 30
0.0
 10
86.65642187396685
 20
73.66666666666667
 30
0.0
  0
SPLINE
  5
F9
330
1F
100
AcDbEntity
  8
0
  6
Continuous
 62
     7
370
    25
100
AcDbSpline
210
0.0
220
0.0
230
1.0
 70
    24
 71
     3
 72
    10
 73
     6
 74
     0
 42
0.00000001
 43
0.00000001
 40
0.0
 40
0.0
 40
0.0
 40
0.0
 40
0.8975979010256588
 40
1.346396851538486
 40
1.5707963267949
 40
1.5707963267949
 40
1.5707963267949
 40
1.5707963267949
 10
118.5691056910569
 20
35.86178861788618
 30
0.0
 10
118.8123571547495
 20
35.25365995865472
 30
0.0
 10
119.1732296078009
 20
34.35147882602634
 30
0.0
 10
119.3613922679961
 20
33.88107217553813
 30
0.0
 10
119.3821138211382
 20
33.82926829268293
 30
0.0
 10
119.3821138211382
 20
33.82926829268293
 30
0.0
  0
SPLINE
  5
FA
330
1F
100
AcDbEntity
  8
0
  6
Continuous
 62
     7
370
    25
100
AcDbSpline
210
0.0
220
0.0
230
1.0
 70
    24
 71
     3
 72
    11
 73
     7
 74
     0
 42
0.00000001
 43
0.00000001
 40
-0.0000000000000004
 40
-0.0000000000000004
 40
-0.0000000000000004
 40
-0.0000000000000004
 40
0.224399475256413
 40
0.448798950512827
 40
0.673198425769241
 40
1.5707963267949
 40
1.5707963267949
 40
1.5707963267949
 40
1.5707963267949
 10
81.37367659237235
 20
39.61532252164105
 30
0.0
 10
81.37367659237235
 20
39.61532252164105
 30
0.0
 10
81.33969916422241
 20
39.65199397043659
 30
0.0
 10
81.1873674642374
 20
39.81640382839528
 30
0.0
 10
80.70157734357153
 20
40.34071153811203
 30
0.0
 10
79.9492033125726
 20
41.15274020700049
 30
0.0
 10
79.3410398091975
 20
41.80912410618487
 30
0.0
  0
SPLINE
  5
FB
330
1F
100
AcDbEntity
  8
0
  6
Continuous
 62
     7
370
    25
100
AcDbSpline
210
0.0
220
0.0
230
1.0
 70
    24
 71
     3
 72
    10
 73
     6
 74
     0
 42
0.00000001
 43
0.00000001
 40
-0.0000000000000006
 40
-0.0000000000000006
 40
-0.0000000000000006
 40
-0.0000000000000006
 40
0.8975979010256583
 40
1.121997376282073
 40
1.5707963267949
 40
1.5707963267949
 40
1.5707963267949
 40
1.5707963267949
 10
79.33934869292584
 20
73.66666666666667
 30
0.0
 10
79.9474644392979
 20
73.90993749939132
 30
0.0
 10
80.69913088084314
 20
74.21063440167798
 30
0.0
 10
81.26653146171887
 20
74.43761752556775
 30
0.0
 10
81.37182586007565
 20
74.47973953296895
 30
0.0
 10
81.37182586007565
 20
74.47973953296895
 30
0.0
  0
SPLINE
  5
FC
330
1F
100
AcDbEntity
  8
0
  6
Continuous
 62
     7
370
    25
100
AcDbSpline
210
0.0
220
0.0
230
1.0
 70
    24
 71
     3
 72
    10
 73
     6
 74
     0
 42
0.00000001
 43
0.00000001
 40
0.0000000000000001
 40
0.0000000000000001
 40
0.0000000000000001
 40
0.0000000000000001
 40
0.897597901025659
 40
1.346396851538486
 40
1.5707963267949
 40
1.5707963267949
 40
1.5707963267949
 40
1.5707963267949
 10
86.65642187396685
 20
73.66666666666667
 30
0.0
 10
86.4131574972435
 20
74.27479532589814
 30
0.0
 10
86.05217893409369
 20
75.1771938298487
 30
0.0
 10
85.86408634220162
 20
75.64740034861398
 30
0.0
 10
85.84337058525938
 20
75.69918699186992
 30
0.0
 10
85.84337058525938
 20
75.69918699186992
 30
0.0
  0
SPLINE
  5
FD
330
1F
100
AcDbEntity
  8
0
  6
Continuous
 62
     7
370
    25
100
AcDbSpline
210
0.0
220
0.0
230
1.0
 70
    24
 71
     3
 72
    10
 73
     6
 74
     0
 42
0.00000001
 43
0.00000001
 40
0.0
 40
0.0
 40
0.0
 40
0.0
 40
0.448798950512827
 40
0.67319842576924
 40
1.57079632679489
 40
1.57079632679489
 40
1.57079632679489
 40
1.57079632679489
 10
46.61788617886178
 20
33.82926829268293
 30
0.0
 10
46.61788617886178
 20
33.82926829268293
 30
0.0
 10
46.66006584654316
 20
33.93471746188651
 30
0.0
 10
46.88708374605626
 20
34.50226221066903
 30
0.0
 10
47.18764284525048
 20
35.25365995865472
 30
0.0
 10
47.43089430894309
 20
35.86178861788618
 30
0.0
  0
SPLINE
  5
FE
330
1F
100
AcDbEntity
  8
0
  6
HIDDEN
 62
     7
370
    18
100
AcDbSpline
210
0.0
220
0.0
230
1.0
 70
     8
 71
     3
 72
     8
 73
     4
 74
     0
 42
0.00000001
 43
0.00000001
 40
0.0
 40
0.0
 40
0.0
 40
0.0
 40
1.0
 40
1.0
 40
1.0
 40
1.0
 10
74.31754070465578
 20
78.9518507583101
 30
0.0
 10
74.19008641245878
 20
78.95439178552806
 30
0.0
 10
74.0627451254109
 20
78.96462128984018
 30
0.0
 10
73.93615725775871
 20
78.98295359281269
 30
0.0
  0
SPLINE
  5
FF
330
1F
100
AcDbEntity
  8
0
  6
HIDDEN
 62
     7
370
    18
100
AcDbSpline
210
0.0
220
0.0
230
1.0
 70
     8
 71
     3
 72
     8
 73
     4
 74
     0
 42
0.00000001
 43
0.00000001
 40
0.0
 40
0.0
 40
0.0
 40
0.0
 40
1.0
 40
1.0
 40
1.0
 40
1.0
 10
73.93615725775871
 20
78.98295359281269
 30
0.0
 10
73.88621009615935
 20
78.99018688077335
 30
0.0
 10
73.82859474265943
 20
78.99898558502586
 30
0.0
 10
73.76362130721748
 20
79.00946721230449
 30
0.0
  0
SPLINE
  5
100
330
1F
100
AcDbEntity
  8
0
  6
HIDDEN
 62
     7
370
    18
100
AcDbSpline
210
0.0
220
0.0
230
1.0
 70
     8
 71
     3
 72
    16
 73
    12
 74
     0
 42
0.00000001
 43
0.00000001
 40
0.0
 40
0.0
 40
0.0
 40
0.0
 40
0.125
 40
0.125
 40
0.25
 40
0.25
 40
0.5
 40
0.5
 40
0.75
 40
0.75
 40
1.0
 40
1.0
 40
1.0
 40
1.0
 10
73.76362130721748
 20
79.00946721230449
 30
0.0
 10
73.51133590069803
 20
79.05016633158284
 30
0.0
 10
73.2464597565002
 20
79.10373231932292
 30
0.0
 10
72.6989997251492
 20
79.21472284625372
 30
0.0
 10
72.41662831353122
 20
79.27369774525465
 30
0.0
 10
71.56418274331106
 20
79.45493291769459
 30
0.0
 10
70.98792909421333
 20
79.58177291524886
 30
0.0
 10
69.83082157948026
 20
79.85238545393
 30
0.0
 10
69.24885965044629
 20
79.99556786754708
 30
0.0
 10
68.08455341895203
 20
80.28880943341726
 30
0.0
 10
67.50141572373981
 20
80.43920993993974
 30
0.0
 10
66.91729572854415
 20
80.59280199329905
 30
0.0
  0
LINE
  5
101
330
1F
100
AcDbEntity
  8
0
  6
HIDDEN
 62
     7
370
    18
100
AcDbLine
 10
74.3809602846
 20
78.9512195122
 30
0.0
 11
46.6178861789
 21
78.9512195122
 31
0.0
  0
SPLINE
  5
102
330
1F
100
AcDbEntity
  8
0
  6
HIDDEN
 62
     7
370
    18
100
AcDbSpline
210
0.0
220
0.0
230
1.0
 70
     8
 71
     3
 72
     8
 73
     4
 74
     0
 42
0.00000001
 43
0.00000001
 40
0.0
 40
0.0
 40
0.0
 40
0.0
 40
1.0
 40
1.0
 40
1.0
 40
1.0
 10
108.3704913617565
 20
30.57660452624187
 30
0.0
 10
108.497945903482
 20
30.57406349404723
 30
0.0
 10
108.6252871726807
 20
30.56383396115431
 30
0.0
 10
108.7518748086063
 20
30.54550169174016
 30
0.0
  0
SPLINE
  5
103
330
1F
100
AcDbEntity
  8
0
  6
HIDDEN
 62
     7
370
    18
100
AcDbSpline
210
0.0
220
0.0
230
1.0
 70
     8
 71
     3
 72
     8
 73
     4
 74
     0
 42
0.00000001
 43
0.00000001
 40
0.0
 40
0.0
 40
0.0
 40
0.0
 40
1.0
 40
1.0
 40
1.0
 40
1.0
 10
108.7518748086063
 20
30.54550169174016
 30
0.0
 10
108.8018219702056
 20
30.53826840377951
 30
0.0
 10
108.8594373237054
 20
30.52946969952699
 30
0.0
 10
108.9244107591475
 20
30.51898807224837
 30
0.0
  0
SPLINE
  5
104
330
1F
100
AcDbEntity
  8
0
  6
HIDDEN
 62
     7
370
    18
100
AcDbSpline
210
0.0
220
0.0
230
1.0
 70
     8
 71
     3
 72
    16
 73
    12
 74
     0
 42
0.00000001
 43
0.00000001
 40
0.0
 40
0.0
 40
0.0
 40
0.0
 40
0.1249999999999993
 40
0.1249999999999993
 40
0.2499999999999987
 40
0.2499999999999987
 40
0.4999999999999987
 40
0.4999999999999987
 40
0.7499999999999987
 40
0.7499999999999987
 40
1.0
 40
1.0
 40
1.0
 40
1.0
 10
108.9244107591475
 20
30.51898807224838
 30
0.0
 10
109.1766958945829
 20
30.47828899670176
 30
0.0
 10
109.4415570836634
 20
30.42471260788685
 30
0.0
 10
109.9889985901189
 20
30.31369916833382
 30
0.0
 10
110.2713628194259
 20
30.25471079675096
 30
0.0
 10
111.1237981443801
 20
30.07343816266145
 30
0.0
 10
111.7000498145829
 20
29.94657945214929
 30
0.0
 10
112.857170008272
 20
29.67597986626954
 30
0.0
 10
113.4391440868337
 20
29.53282440419315
 30
0.0
 10
114.603469581499
 20
29.23962768953185
 30
0.0
 10
115.1866146220295
 20
29.08924579703696
 30
0.0
 10
115.7707363378208
 20
28.93565329125382
 30
0.0
  0
LINE
  5
105
330
1F
100
AcDbEntity
  8
0
  6
HIDDEN
 62
     7
370
    18
100
AcDbLine
 10
108.3070717818
 20
30.5772357724
 30
0.0
 11
119.3821138211
 21
30.5772357724
 31
0.0
  0
SPLINE
  5
106
330
1F
100
AcDbEntity
  8
0
  6
HIDDEN
 62
     7
370
    18
100
AcDbSpline
210
0.0
220
0.0
230
1.0
 70
     8
 71
     3
 72
     8
 73
     4
 74
     0
 42
0.00000001
 43
0.00000001
 40
0.0
 40
0.0
 40
0.0
 40
0.0
 40
1.0
 40
1.0
 40
1.0
 40
1.0
 10
92.23637869278254
 20
79.00946721230449
 30
0.0
 10
92.17140525734058
 20
78.99898558502586
 30
0.0
 10
92.11378990384065
 20
78.99018688077335
 30
0.0
 10
92.0638427422413
 20
78.98295359281269
 30
0.0
  0
SPLINE
  5
107
330
1F
100
AcDbEntity
  8
0
  6
HIDDEN
 62
     7
370
    18
100
AcDbSpline
210
0.0
220
0.0
230
1.0
 70
     8
 71
     3
 72
     8
 73
     4
 74
     0
 42
0.00000001
 43
0.00000001
 40
0.0
 40
0.0
 40
0.0
 40
0.0
 40
1.0
 40
1.0
 40
1.0
 40
1.0
 10
92.0638427422413
 20
78.98295359281269
 30
0.0
 10
91.93725510632432
 20
78.96462132339977
 30
0.0
 10
91.80991383711904
 20
78.9543917905057
 30
0.0
 10
91.68245929539164
 20
78.95185075831098
 30
0.0
  0
SPLINE
  5
108
330
1F
100
AcDbEntity
  8
0
  6
HIDDEN
 62
     7
370
    18
100
AcDbSpline
210
0.0
220
0.0
230
1.0
 70
     8
 71
     3
 72
    16
 73
    12
 74
     0
 42
0.00000001
 43
0.00000001
 40
0.0
 40
0.0
 40
0.0
 40
0.0
 40
0.2499999999999998
 40
0.2499999999999998
 40
0.4999999999999997
 40
0.4999999999999997
 40
0.7499999999999996
 40
0.7499999999999996
 40
0.8749999999999998
 40
0.8749999999999998
 40
1.0
 40
1.0
 40
1.0
 40
1.0
 10
99.08270427145587
 20
80.59280199329905
 30
0.0
 10
98.49842646570983
 20
80.43916844427673
 30
0.0
 10
97.91410737368818
 20
80.2897651577604
 30
0.0
 10
96.74792867231247
 20
79.9981523352876
 30
0.0
 10
96.16695434020768
 20
79.85604825135572
 30
0.0
 10
95.01040315348787
 20
79.58194741305971
 30
0.0
 10
94.43320898621263
 20
79.45023823884942
 30
0.0
 10
93.58581543918419
 20
79.27016399406797
 30
0.0
 10
93.30626153306163
 20
79.21250634039517
 30
0.0
 10
92.75909533629347
 20
79.1034469127016
 30
0.0
 10
92.49193498241438
 20
79.0506939961187
 30
0.0
 10
92.23637869278254
 20
79.00946721230447
 30
0.0
  0
LINE
  5
109
330
1F
100
AcDbEntity
  8
0
  6
HIDDEN
 62
     7
370
    18
100
AcDbLine
 10
119.3821138211
 20
78.9512195122
 30
0.0
 11
91.6190397154
 21
78.9512195122
 31
0.0
  0
ARC
  5
10A
330
1F
100
AcDbEntity
  8
0
  6
HIDDEN
 62
     7
370
    18
100
AcDbCircle
 10
46.6178861789
 20
35.0487804878
 30
0.0
 40
4.471544715447159
100
AcDbArc
 50
180.0
 51
270.0
  0
ARC
  5
10B
330
1F
100
AcDbEntity
  8
0
  6
HIDDEN
 62
     7
370
    18
100
AcDbCircle
 10
119.3821138211
 20
35.0487804878
 30
0.0
 40
4.47154471544718
100
AcDbArc
 50
270.0
 51
0.0
  0
SPLINE
  5
10C
330
1F
100
AcDbEntity
  8
0
  6
HIDDEN
 62
     7
370
    18
100
AcDbSpline
210
0.0
220
0.0
230
1.0
 70
     8
 71
     3
 72
     8
 73
     4
 74
     0
 42
0.00000001
 43
0.00000001
 40
0.0
 40
0.0
 40
0.0
 40
0.0
 40
1.0
 40
1.0
 40
1.0
 40
1.0
 10
57.07558924085252
 20
30.51898807224837
 30
0.0
 10
57.14056267629456
 20
30.52946969952699
 30
0.0
 10
57.19817802979439
 20
30.53826840377951
 30
0.0
 10
57.24812519139374
 20
30.54550169174016
 30
0.0
  0
SPLINE
  5
10D
330
1F
100
AcDbEntity
  8
0
  6
HIDDEN
 62
     7
370
    18
100
AcDbSpline
210
0.0
220
0.0
230
1.0
 70
     8
 71
     3
 72
     8
 73
     4
 74
     0
 42
0.00000001
 43
0.00000001
 40
0.0
 40
0.0
 40
0.0
 40
0.0
 40
1.0
 40
1.0
 40
1.0
 40
1.0
 10
57.24812519139374
 20
30.54550169174016
 30
0.0
 10
57.37471305904594
 20
30.56383399471268
 30
0.0
 10
57.5020543460939
 20
30.5740634990248
 30
0.0
 10
57.62950863829089
 20
30.57660452624276
 30
0.0
  0
SPLINE
  5
10E
330
1F
100
AcDbEntity
  8
0
  6
HIDDEN
 62
     7
370
    18
100
AcDbSpline
210
0.0
220
0.0
230
1.0
 70
     8
 71
     3
 72
    16
 73
    12
 74
     0
 42
0.00000001
 43
0.00000001
 40
0.0
 40
0.0
 40
0.0
 40
0.0
 40
0.249999999999999
 40
0.249999999999999
 40
0.4999999999999993
 40
0.4999999999999993
 40
0.7499999999999997
 40
0.7499999999999997
 40
0.8749999999999998
 40
0.8749999999999998
 40
1.0
 40
1.0
 40
1.0
 40
1.0
 10
50.22926366217919
 20
28.93565329125382
 30
0.0
 10
50.81354500516468
 20
29.08928777037931
 30
0.0
 10
51.3978727666844
 20
29.23867269572279
 30
0.0
 10
52.56407457745512
 20
29.53023766366058
 30
0.0
 10
53.14506440078376
 20
29.67231209172138
 30
0.0
 10
54.3016429416769
 20
29.94637967962349
 30
0.0
 10
54.87884946158787
 20
30.07809094405209
 30
0.0
 10
55.72622282583595
 20
30.25821392472488
 30
0.0
 10
56.005764804153
 20
30.31589271268932
 30
0.0
 10
56.55290043125643
 20
30.42499024219798
 30
0.0
 10
56.82003602928955
 20
30.47776178499358
 30
0.0
 10
57.07558924085252
 20
30.51898807224839
 30
0.0
  0
LINE
  5
10F
330
1F
100
AcDbEntity
  8
0
  6
HIDDEN
 62
     7
370
    18
100
AcDbLine
 10
46.6178861789
 20
30.5772357724
 30
0.0
 11
57.6929282182
 21
30.5772357724
 31
0.0
  0
SPLINE
  5
110
330
1F
100
AcDbEntity
  8
0
  6
HIDDEN
 62
     7
370
    18
100
AcDbSpline
210
0.0
220
0.0
230
1.0
 70
     8
 71
     3
 72
     8
 73
     4
 74
     0
 42
0.00000001
 43
0.00000001
 40
0.0
 40
0.0
 40
0.0
 40
0.0
 40
1.0
 40
1.0
 40
1.0
 40
1.0
 10
41.80406736520862
 20
66.2706166131518
 30
0.0
 10
41.82997946448771
 20
66.21605746545171
 30
0.0
 10
41.8543493677869
 20
66.16413889219163
 30
0.0
 10
41.87714548617797
 20
66.11502140048424
 30
0.0
  0
SPLINE
  5
111
330
1F
100
AcDbEntity
  8
0
  6
HIDDEN
 62
     7
370
    18
100
AcDbSpline
210
0.0
220
0.0
230
1.0
 70
     8
 71
     3
 72
     8
 73
     4
 74
     0
 42
0.00000001
 43
0.00000001
 40
0.071742373193617
 40
0.071742373193617
 40
0.071742373193617
 40
0.071742373193617
 40
0.259114245675618
 40
0.259114245675618
 40
0.259114245675618
 40
0.259114245675618
 10
41.87714548617797
 20
66.11502140048424
 30
0.0
 10
42.05513066902594
 20
65.7315269128439
 30
0.0
 10
42.13772044984366
 20
65.33078712346351
 30
0.0
 10
42.14570976828536
 20
64.93019722031896
 30
0.0
  0
SPLINE
  5
112
330
1F
100
AcDbEntity
  8
0
  6
HIDDEN
 62
     7
370
    18
100
AcDbSpline
210
0.0
220
0.0
230
1.0
 70
     8
 71
     3
 72
    10
 73
     6
 74
     0
 42
0.00000001
 43
0.00000001
 40
0.0
 40
0.0
 40
0.0
 40
0.0
 40
0.5
 40
0.5
 40
1.0
 40
1.0
 40
1.0
 40
1.0
 10
40.46486872747958
 20
68.80654625271586
 30
0.0
 10
40.71373380121963
 20
68.36892259130884
 30
0.0
 10
40.94895370135192
 20
67.93246421481854
 30
0.0
 10
41.40277513231948
 20
67.07278821235731
 30
0.0
 10
41.62138100442304
 20
66.6552713658814
 30
0.0
 10
41.80406736520862
 20
66.27061661315172
 30
0.0
  0
LINE
  5
113
330
1F
100
AcDbEntity
  8
0
  6
HIDDEN
 62
     7
370
    18
100
AcDbLine
 10
42.1463414634
 20
74.4796747967
 30
0.0
 11
42.1463414634
 21
64.8667551225
 31
0.0
  0
SPLINE
  5
114
330
1F
100
AcDbEntity
  8
0
  6
HIDDEN
 62
     7
370
    18
100
AcDbSpline
210
0.0
220
0.0
230
1.0
 70
     8
 71
     3
 72
     8
 73
     4
 74
     0
 42
0.00000001
 43
0.00000001
 40
0.0
 40
0.0
 40
0.0
 40
0.0
 40
1.0
 40
1.0
 40
1.0
 40
1.0
 10
124.1959326347917
 20
47.72938338684066
 30
0.0
 10
124.1700205355126
 20
47.78394253454078
 30
0.0
 10
124.1456506322134
 20
47.83586110780082
 30
0.0
 10
124.1228545138223
 20
47.88497859950822
 30
0.0
  0
SPLINE
  5
115
330
1F
100
AcDbEntity
  8
0
  6
HIDDEN
 62
     7
370
    18
100
AcDbSpline
210
0.0
220
0.0
230
1.0
 70
     8
 71
     3
 72
     8
 73
     4
 74
     0
 42
0.00000001
 43
0.00000001
 40
0.0
 40
0.0
 40
0.0
 40
0.0
 40
0.186935196336303
 40
0.186935196336303
 40
0.186935196336303
 40
0.186935196336303
 10
124.1228545138223
 20
47.88497859950821
 30
0.0
 10
123.9448965564811
 20
48.26841442590694
 30
0.0
 10
123.8622776522733
 20
48.6693154900225
 30
0.0
 10
123.8542902551519
 20
49.06980160452481
 30
0.0
  0
SPLINE
  5
116
330
1F
100
AcDbEntity
  8
0
  6
HIDDEN
 62
     7
370
    18
100
AcDbSpline
210
0.0
220
0.0
230
1.0
 70
     8
 71
     3
 72
    10
 73
     6
 74
     0
 42
0.00000001
 43
0.00000001
 40
0.0
 40
0.0
 40
0.0
 40
0.0
 40
0.5
 40
0.5
 40
1.0
 40
1.0
 40
1.0
 40
1.0
 10
125.5351312725205
 20
45.19345374727845
 30
0.0
 10
125.2862661987805
 20
45.63107740868517
 30
0.0
 10
125.0510462986483
 20
46.06753578517512
 30
0.0
 10
124.5972248676808
 20
46.92721178763571
 30
0.0
 10
124.3786189955773
 20
47.34472863411126
 30
0.0
 10
124.1959326347917
 20
47.72938338684074
 30
0.0
  0
LINE
  5
117
330
1F
100
AcDbEntity
  8
0
  6
HIDDEN
 62
     7
370
    18
100
AcDbLine
 10
123.8536585366
 20
35.0487804878
 30
0.0
 11
123.8536585366
 21
49.1332448775
 31
0.0
  0
SPLINE
  5
118
330
1F
100
AcDbEntity
  8
0
  6
HIDDEN
 62
     7
370
    18
100
AcDbSpline
210
0.0
220
0.0
230
1.0
 70
     8
 71
     3
 72
     8
 73
     4
 74
     0
 42
0.00000001
 43
0.00000001
 40
0.071841560157876
 40
0.071841560157876
 40
0.071841560157876
 40
0.071841560157876
 40
0.25920372597184
 40
0.25920372597184
 40
0.25920372597184
 40
0.25920372597184
 10
123.8542902551533
 20
64.93019839553936
 30
0.0
 10
123.8622776522832
 20
65.33068451001758
 30
0.0
 10
123.9448965564915
 20
65.7315855741083
 30
0.0
 10
124.122854513822
 20
66.11502140048424
 30
0.0
  0
SPLINE
  5
119
330
1F
100
AcDbEntity
  8
0
  6
HIDDEN
 62
     7
370
    18
100
AcDbSpline
210
0.0
220
0.0
230
1.0
 70
     8
 71
     3
 72
     8
 73
     4
 74
     0
 42
0.00000001
 43
0.00000001
 40
0.0
 40
0.0
 40
0.0
 40
0.0
 40
1.0
 40
1.0
 40
1.0
 40
1.0
 10
124.122854513822
 20
66.11502140048424
 30
0.0
 10
124.1456506322131
 20
66.16413889219163
 30
0.0
 10
124.1700205355123
 20
66.21605746545163
 30
0.0
 10
124.1959326347914
 20
66.2706166131518
 30
0.0
  0
SPLINE
  5
11A
330
1F
100
AcDbEntity
  8
0
  6
HIDDEN
 62
     7
370
    18
100
AcDbSpline
210
0.0
220
0.0
230
1.0
 70
     8
 71
     3
 72
    10
 73
     6
 74
     0
 42
0.00000001
 43
0.00000001
 40
0.0
 40
0.0
 40
0.0
 40
0.0
 40
0.5
 40
0.5
 40
1.0
 40
1.0
 40
1.0
 40
1.0
 10
124.1959326347914
 20
66.27061661315177
 30
0.0
 10
124.378602752907
 20
66.65523716617335
 30
0.0
 10
124.5974030438842
 20
67.0731051527732
 30
0.0
 10
125.0495823992165
 20
67.92971166460542
 30
0.0
 10
125.286328341949
 20
68.36903186867967
 30
0.0
 10
125.5351312725205
 20
68.80654625271586
 30
0.0
  0
LINE
  5
11B
330
1F
100
AcDbEntity
  8
0
  6
HIDDEN
 62
     7
370
    18
100
AcDbLine
 10
123.8536585366
 20
64.8667551225
 30
0.0
 11
123.8536585366
 21
74.4796747967
 31
0.0
  0
ARC
  5
11C
330
1F
100
AcDbEntity
  8
0
  6
HIDDEN
 62
     7
370
    18
100
AcDbCircle
 10
46.6178861789
 20
74.4796747967
 30
0.0
 40
4.471544715447159
100
AcDbArc
 50
90.0
 51
180.0
  0
SPLINE
  5
11D
330
1F
100
AcDbEntity
  8
0
  6
HIDDEN
 62
     7
370
    18
100
AcDbSpline
210
0.0
220
0.0
230
1.0
 70
     8
 71
     3
 72
     8
 73
     4
 74
     0
 42
0.00000001
 43
0.00000001
 40
-0.0000000000000001
 40
-0.0000000000000001
 40
-0.0000000000000001
 40
-0.0000000000000001
 40
0.186963795267869
 40
0.186963795267869
 40
0.186963795267869
 40
0.186963795267869
 10
42.1457097682868
 20
49.06980277974455
 30
0.0
 10
42.13772044985347
 20
48.66921287657618
 30
0.0
 10
42.05513066903634
 20
48.26847308717126
 30
0.0
 10
41.87714548617771
 20
47.88497859950822
 30
0.0
  0
SPLINE
  5
11E
330
1F
100
AcDbEntity
  8
0
  6
HIDDEN
 62
     7
370
    18
100
AcDbSpline
210
0.0
220
0.0
230
1.0
 70
     8
 71
     3
 72
     8
 73
     4
 74
     0
 42
0.00000001
 43
0.00000001
 40
0.0
 40
0.0
 40
0.0
 40
0.0
 40
1.0
 40
1.0
 40
1.0
 40
1.0
 10
41.87714548617771
 20
47.88497859950822
 30
0.0
 10
41.85434936778658
 20
47.83586110780082
 30
0.0
 10
41.82997946448739
 20
47.78394253454078
 30
0.0
 10
41.80406736520829
 20
47.72938338684067
 30
0.0
  0
SPLINE
  5
11F
330
1F
100
AcDbEntity
  8
0
  6
HIDDEN
 62
     7
370
    18
100
AcDbSpline
210
0.0
220
0.0
230
1.0
 70
     8
 71
     3
 72
    10
 73
     6
 74
     0
 42
0.00000001
 43
0.00000001
 40
0.0
 40
0.0
 40
0.0
 40
0.0
 40
0.5
 40
0.5
 40
1.0
 40
1.0
 40
1.0
 40
1.0
 10
41.80406736520828
 20
47.72938338684069
 30
0.0
 10
41.62139724709276
 20
47.34476283381934
 30
0.0
 10
41.40259695611555
 20
46.92689484721982
 30
0.0
 10
40.95041760078336
 20
46.07028833538823
 30
0.0
 10
40.71367165805094
 20
45.63096813131433
 30
0.0
 10
40.46486872747951
 20
45.19345374727845
 30
0.0
  0
LINE
  5
120
330
1F
100
AcDbEntity
  8
0
  6
HIDDEN
 62
     7
370
    18
100
AcDbLine
 10
42.1463414634
 20
49.1332448775
 30
0.0
 11
42.1463414634
 21
35.0487804878
 31
0.0
  0
ARC
  5
121
330
1F
100
AcDbEntity
  8
0
  6
HIDDEN
 62
     7
370
    18
100
AcDbCircle
 10
119.3821138211
 20
74.4796747967
 30
0.0
 40
4.47154471544718
100
AcDbArc
 50
0.0
 51
90.0
  0
LINE
  5
122
330
1F
100
AcDbEntity
  8
0
  6
HIDDEN
 62
     7
370
    18
100
AcDbLine
 10
123.8536585366
 20
64.2120608743
 30
0.0
 11
123.8536585366
 21
64.8667551225
 31
0.0
  0
LINE
  5
123
330
1F
100
AcDbEntity
  8
0
  6
HIDDEN
 62
     7
370
    18
100
AcDbLine
 10
42.1463414634
 20
64.8667551225
 30
0.0
 11
42.1463414634
 21
64.2120608743
 31
0.0
  0
LINE
  5
124
330
1F
100
AcDbEntity
  8
0
  6
HIDDEN
 62
     7
370
    18
100
AcDbLine
 10
123.8536585366
 20
49.1332448775
 30
0.0
 11
123.8536585366
 21
49.7879391257
 31
0.0
  0
LINE
  5
125
330
1F
100
AcDbEntity
  8
0
  6
HIDDEN
 62
     7
370
    18
100
AcDbLine
 10
42.1463414634
 20
49.7879391257
 30
0.0
 11
42.1463414634
 21
49.1332448775
 31
0.0
  0
LINE
  5
126
330
1F
100
AcDbEntity
  8
0
  6
HIDDEN
 62
     7
370
    18
100
AcDbLine
 10
107.6523775336
 20
30.5772357724
 30
0.0
 11
108.3070717818
 21
30.5772357724
 31
0.0
  0
LINE
  5
127
330
1F
100
AcDbEntity
  8
0
  6
HIDDEN
 62
     7
370
    18
100
AcDbLine
 10
57.6929282182
 20
30.5772357724
 30
0.0
 11
58.3476224664
 21
30.5772357724
 31
0.0
  0
LINE
  5
128
330
1F
100
AcDbEntity
  8
0
  6
HIDDEN
 62
     7
370
    18
100
AcDbLine
 10
75.0356545328
 20
78.9512195122
 30
0.0
 11
74.3809602846
 21
78.9512195122
 31
0.0
  0
LINE
  5
129
330
1F
100
AcDbEntity
  8
0
  6
HIDDEN
 62
     7
370
    18
100
AcDbLine
 10
91.6190397154
 20
78.9512195122
 30
0.0
 11
90.9643454672
 21
78.9512195122
 31
0.0
  0
LINE
  5
12A
330
1F
100
AcDbEntity
  8
0
  6
HIDDEN
 62
     7
370
    18
100
AcDbLine
 10
119.3821138211
 20
32.6097560976
 30
0.0
 11
46.6178861789
 21
32.6097560976
 31
0.0
  0
ARC
  5
12B
330
1F
100
AcDbEntity
  8
0
  6
HIDDEN
 62
     7
370
    18
100
AcDbCircle
 10
46.6178861789
 20
35.0487804878
 30
0.0
 40
2.439024390243908
100
AcDbArc
 50
180.0
 51
270.0
  0
LINE
  5
12C
330
1F
100
AcDbEntity
  8
0
  6
HIDDEN
 62
     7
370
    18
100
AcDbLine
 10
44.1788617886
 20
35.0487804878
 30
0.0
 11
44.1788617886
 21
74.4796747967
 31
0.0
  0
ARC
  5
12D
330
1F
100
AcDbEntity
  8
0
  6
HIDDEN
 62
     7
370
    18
100
AcDbCircle
 10
46.6178861789
 20
74.4796747967
 30
0.0
 40
2.439024390243901
100
AcDbArc
 50
90.0
 51
180.0
  0
LINE
  5
12E
330
1F
100
AcDbEntity
  8
0
  6
HIDDEN
 62
     7
370
    18
100
AcDbLine
 10
46.6178861789
 20
76.918699187
 30
0.0
 11
119.3821138211
 21
76.918699187
 31
0.0
  0
ARC
  5
12F
330
1F
100
AcDbEntity
  8
0
  6
HIDDEN
 62
     7
370
    18
100
AcDbCircle
 10
119.3821138211
 20
74.4796747967
 30
0.0
 40
2.439024390243915
100
AcDbArc
 50
0.0
 51
90.0
  0
LINE
  5
130
330
1F
100
AcDbEntity
  8
0
  6
HIDDEN
 62
     7
370
    18
100
AcDbLine
 10
121.8211382114
 20
74.4796747967
 30
0.0
 11
121.8211382114
 21
35.0487804878
 31
0.0
  0
ARC
  5
131
330
1F
100
AcDbEntity
  8
0
  6
HIDDEN
 62
     7
370
    18
100
AcDbCircle
 10
119.3821138211
 20
35.0487804878
 30
0.0
 40
2.439024390243915
100
AcDbArc
 50
270.0
 51
0.0
  0
LINE
  5
132
330
1F
100
AcDbEntity
  8
0
  6
Continuous
 62
     7
370
    25
100
AcDbLine
 10
33.0
 20
155.0731707317
 30
0.0
 11
33.0
 21
154.2601626016
 31
0.0
  0
LINE
  5
133
330
1F
100
AcDbEntity
  8
0
  6
Continuous
 62
     7
370
    25
100
AcDbLine
 10
33.0
 20
155.0731707317
 30
0.0
 11
37.0937204719
 21
155.0731707317
 31
0.0
  0
LINE
  5
134
330
1F
100
AcDbEntity
  8
0
  6
Continuous
 62
     7
370
    25
100
AcDbLine
 10
37.0937204719
 20
154.2601626016
 30
0.0
 11
33.0
 21
154.2601626016
 31
0.0
  0
LINE
  5
135
330
1F
100
AcDbEntity
  8
0
  6
Continuous
 62
     7
370
    25
100
AcDbLine
 10
36.9885094779
 20
155.4796747967
 30
0.0
 11
33.406504065
 21
155.4796747967
 31
0.0
  0
LINE
  5
136
330
1F
100
AcDbEntity
  8
0
  6
Continuous
 62
     7
370
    25
100
AcDbLine
 10
33.0
 20
155.0731707317
 30
0.0
 11
33.406504065
 21
155.4796747967
 31
0.0
  0
LINE
  5
137
330
1F
100
AcDbEntity
  8
0
  6
Continuous
 62
     7
370
    25
100
AcDbLine
 10
128.9062795281
 20
155.0731707317
 30
0.0
 11
133.0
 21
155.0731707317
 31
0.0
  0
LINE
  5
138
330
1F
100
AcDbEntity
  8
0
  6
Continuous
 62
     7
370
    25
100
AcDbLine
 10
133.0
 20
155.0731707317
 30
0.0
 11
133.0
 21
154.2601626016
 31
0.0
  0
LINE
  5
139
330
1F
100
AcDbEntity
  8
0
  6
Continuous
 62
     7
370
    25
100
AcDbLine
 10
133.0
 20
154.2601626016
 30
0.0
 11
128.9062795281
 21
154.2601626016
 31
0.0
  0
LINE
  5
13A
330
1F
100
AcDbEntity
  8
0
  6
Continuous
 62
     7
370
    25
100
AcDbLine
 10
132.593495935
 20
155.4796747967
 30
0.0
 11
129.0114905221
 21
155.4796747967
 31
0.0
  0
LINE
  5
13B
330
1F
100
AcDbEntity
  8
0
  6
Continuous
 62
     7
370
    25
100
AcDbLine
 10
132.593495935
 20
155.4796747967
 30
0.0
 11
133.0
 21
155.0731707317
 31
0.0
  0
LINE
  5
13C
330
1F
100
AcDbEntity
  8
0
  6
Continuous
 62
     7
370
    25
100
AcDbLine
 10
33.406504065
 20
153.8536585366
 30
0.0
 11
36.9885094779
 21
153.8536585366
 31
0.0
  0
LINE
  5
13D
330
1F
100
AcDbEntity
  8
0
  6
Continuous
 62
     7
370
    25
100
AcDbLine
 10
33.0
 20
154.2601626016
 30
0.0
 11
33.406504065
 21
153.8536585366
 31
0.0
  0
LINE
  5
13E
330
1F
100
AcDbEntity
  8
0
  6
Continuous
 62
     7
370
    25
100
AcDbLine
 10
129.0114905221
 20
153.8536585366
 30
0.0
 11
132.593495935
 21
153.8536585366
 31
0.0
  0
LINE
  5
13F
330
1F
100
AcDbEntity
  8
0
  6
Continuous
 62
     7
370
    25
100
AcDbLine
 10
133.0
 20
154.2601626016
 30
0.0
 11
132.593495935
 21
153.8536585366
 31
0.0
  0
LINE
  5
140
330
1F
100
AcDbEntity
  8
0
  6
Continuous
 62
     7
370
    25
100
AcDbLine
 10
129.0114905221
 20
155.4796747967
 30
0.0
 11
100.5485638915
 21
155.4796747967
 31
0.0
  0
LINE
  5
141
330
1F
100
AcDbEntity
  8
0
  6
Continuous
 62
     7
370
    25
100
AcDbLine
 10
100.4433528976
 20
155.0731707317
 30
0.0
 11
128.9062795281
 21
155.0731707317
 31
0.0
  0
SPLINE
  5
142
330
1F
100
AcDbEntity
  8
0
  6
Continuous
 62
     7
370
    25
100
AcDbSpline
210
0.0
220
0.0
230
1.0
 70
     8
 71
     3
 72
     9
 73
     5
 74
     0
 42
0.00000001
 43
0.00000001
 40
0.405835683606072
 40
0.405835683606072
 40
0.405835683606072
 40
0.405835683606072
 40
0.905104530686996
 40
1.5707963267949
 40
1.5707963267949
 40
1.5707963267949
 40
1.5707963267949
 10
91.80603342414821
 20
156.3615687921414
 30
0.0
 10
92.37261910820196
 20
156.0082524995366
 30
0.0
 10
94.29783668246944
 20
155.3500519128701
 30
0.0
 10
97.27220740223042
 20
155.0731707317073
 30
0.0
 10
98.97795279183872
 20
155.0731707317073
 30
0.0
  0
LINE
  5
143
330
1F
100
AcDbEntity
  8
0
  6
Continuous
 62
     7
370
    25
100
AcDbLine
 10
98.9779527918
 20
155.0731707317
 30
0.0
 11
100.4433528976
 21
155.0731707317
 31
0.0
  0
LINE
  5
144
330
1F
100
AcDbEntity
  8
0
  6
Continuous
 62
     7
370
    25
100
AcDbLine
 10
128.9062795281
 20
154.2601626016
 30
0.0
 11
91.8060334188
 21
154.2601626016
 31
0.0
  0
LINE
  5
145
330
1F
100
AcDbEntity
  8
0
  6
Continuous
 62
     7
370
    25
100
AcDbLine
 10
37.0937204719
 20
155.0731707317
 30
0.0
 11
65.5566471024
 21
155.0731707317
 31
0.0
  0
LINE
  5
146
330
1F
100
AcDbEntity
  8
0
  6
Continuous
 62
     7
370
    25
100
AcDbLine
 10
65.5566471024
 20
155.0731707317
 30
0.0
 11
67.0220472082
 21
155.0731707317
 31
0.0
  0
SPLINE
  5
147
330
1F
100
AcDbEntity
  8
0
  6
Continuous
 62
     7
370
    25
100
AcDbSpline
210
0.0
220
0.0
230
1.0
 70
     8
 71
     3
 72
     9
 73
     5
 74
     0
 42
0.00000001
 43
0.00000001
 40
-1.57079632679489
 40
-1.57079632679489
 40
-1.57079632679489
 40
-1.57079632679489
 40
-1.07152747971397
 40
-0.405835683606072
 40
-0.405835683606072
 40
-0.405835683606072
 40
-0.405835683606072
 10
67.0220472081613
 20
155.0731707317073
 30
0.0
 10
68.30135625036756
 20
155.0731707317073
 30
0.0
 10
71.29173750725187
 20
155.2825430128769
 30
0.0
 10
73.43851899711342
 20
155.8904804020017
 30
0.0
 10
74.1939665758518
 20
156.3615687921414
 30
0.0
  0
LINE
  5
148
330
1F
100
AcDbEntity
  8
0
  6
Continuous
 62
     7
370
    25
100
AcDbLine
 10
74.1939665812
 20
154.2601626016
 30
0.0
 11
37.0937204719
 21
154.2601626016
 31
0.0
  0
LINE
  5
149
330
1F
100
AcDbEntity
  8
0
  6
Continuous
 62
     7
370
    25
100
AcDbLine
 10
65.4514361085
 20
155.4796747967
 30
0.0
 11
36.9885094779
 21
155.4796747967
 31
0.0
  0
LINE
  5
14A
330
1F
100
AcDbEntity
  8
0
  6
Continuous
 62
     7
370
    25
100
AcDbLine
 10
91.9112444127
 20
153.8536585366
 30
0.0
 11
129.0114905221
 21
153.8536585366
 31
0.0
  0
LINE
  5
14B
330
1F
100
AcDbEntity
  8
0
  6
Continuous
 62
     7
370
    25
100
AcDbLine
 10
36.9885094779
 20
153.8536585366
 30
0.0
 11
74.0887555873
 21
153.8536585366
 31
0.0
  0
SPLINE
  5
14C
330
1F
100
AcDbEntity
  8
0
  6
Continuous
 62
     7
370
    25
100
AcDbSpline
210
0.0
220
0.0
230
1.0
 70
     8
 71
     3
 72
    14
 73
    10
 74
     0
 42
0.00000001
 43
0.00000001
 40
0.0000000000000001
 40
0.0000000000000001
 40
0.0000000000000001
 40
0.0000000000000001
 40
0.0006011499334368
 40
0.0006011499334368
 40
0.0006011499334368
 40
0.0010593678319853
 40
0.0010593678319853
 40
0.0010593678319853
 40
0.0015176908880175
 40
0.0015176908880175
 40
0.0015176908880175
 40
0.0015176908880175
 10
100.5485638914958
 20
155.479674796748
 30
0.0
 10
100.3550084761029
 20
155.479674796748
 30
0.0
 10
100.1614637246002
 20
155.4816621616594
 30
0.0
 10
99.96793607230333
 20
155.4856409309485
 30
0.0
 10
99.82041935881539
 20
155.4886737531953
 30
0.0
 10
99.67290273710991
 20
155.4928634808711
 30
0.0
 10
99.52538594277931
 20
155.4981992492264
 30
0.0
 10
99.37783528909296
 20
155.5035362422944
 30
0.0
 10
99.23027601159562
 20
155.5100203644215
 30
0.0
 10
99.08270427145581
 20
155.5176258766211
 30
0.0
  0
SPLINE
  5
14D
330
1F
100
AcDbEntity
  8
0
  6
Continuous
 62
     7
370
    25
100
AcDbSpline
210
0.0
220
0.0
230
1.0
 70
     8
 71
     3
 72
    14
 73
    10
 74
     0
 42
0.00000001
 43
0.00000001
 40
0.0
 40
0.0
 40
0.0
 40
0.0
 40
0.0006011499673712
 40
0.0006011499673712
 40
0.0006011499673712
 40
0.0010593678415052
 40
0.0010593678415052
 40
0.0010593678415052
 40
0.0015176908383262
 40
0.0015176908383262
 40
0.0015176908383262
 40
0.0015176908383262
 10
66.91729572854415
 20
155.5176258766215
 30
0.0
 10
66.72374030222528
 20
155.5076504697124
 30
0.0
 10
66.53020366376464
 20
155.4996057687885
 30
0.0
 10
66.33667844735417
 20
155.4935442108992
 30
0.0
 10
66.18916360098451
 20
155.4889237805626
 30
0.0
 10
66.04164586049355
 20
155.4854540459701
 30
0.0
 10
65.89412594498921
 20
155.4831420143422
 30
0.0
 10
65.7465721776697
 20
155.4808294521657
 30
0.0
 10
65.59900783835181
 20
155.4796747967478
 30
0.0
 10
65.45143610850425
 20
155.4796747967478
 30
0.0
  0
SPLINE
  5
14E
330
1F
100
AcDbEntity
  8
0
  6
Continuous
 62
     7
370
    25
100
AcDbSpline
210
0.0
220
0.0
230
1.0
 70
     8
 71
     3
 72
    16
 73
    12
 74
     0
 42
0.00000001
 43
0.00000001
 40
0.0
 40
0.0
 40
0.0
 40
0.0
 40
0.2499999999999998
 40
0.2499999999999998
 40
0.4999999999999997
 40
0.4999999999999997
 40
0.7499999999999996
 40
0.7499999999999996
 40
0.8749999999999998
 40
0.8749999999999998
 40
1.0
 40
1.0
 40
1.0
 40
1.0
 10
99.08270427145587
 20
155.5176258766215
 30
0.0
 10
98.49842646570983
 20
155.5477382272339
 30
0.0
 10
97.91410737368818
 20
155.5951208264761
 30
0.0
 10
96.74792867231247
 20
155.7274284744499
 30
0.0
 10
96.16695434020768
 20
155.8121653237652
 30
0.0
 10
95.01040315348787
 20
156.0300454577747
 30
0.0
 10
94.43320898621263
 20
156.1623311894746
 30
0.0
 10
93.58581543918419
 20
156.4142643724656
 30
0.0
 10
93.30626153306163
 20
156.507571119968
 30
0.0
 10
92.75909533629347
 20
156.7305072023809
 30
0.0
 10
92.49193498241438
 20
156.8606140784804
 30
0.0
 10
92.23637869278254
 20
157.0290942275521
 30
0.0
  0
SPLINE
  5
14F
330
1F
100
AcDbEntity
  8
0
  6
Continuous
 62
     7
370
    25
100
AcDbSpline
210
0.0
220
0.0
230
1.0
 70
     8
 71
     3
 72
     8
 73
     4
 74
     0
 42
0.00000001
 43
0.00000001
 40
0.0
 40
0.0
 40
0.0
 40
0.0
 40
1.0
 40
1.0
 40
1.0
 40
1.0
 10
92.23637869278254
 20
157.0290942275521
 30
0.0
 10
92.17140525734058
 20
157.071929150945
 30
0.0
 10
92.11378990384065
 20
157.1139813754557
 30
0.0
 10
92.0638427422413
 20
157.1544336429725
 30
0.0
  0
SPLINE
  5
150
330
1F
100
AcDbEntity
  8
0
  6
Continuous
 62
     7
370
    25
100
AcDbSpline
210
0.0
220
0.0
230
1.0
 70
     8
 71
     3
 72
     8
 73
     4
 74
     0
 42
0.00000001
 43
0.00000001
 40
0.0
 40
0.0
 40
0.0
 40
0.0
 40
1.0
 40
1.0
 40
1.0
 40
1.0
 10
92.0638427422413
 20
157.1544336429725
 30
0.0
 10
91.93725510632432
 20
157.2569571247575
 30
0.0
 10
91.80991383711904
 20
157.3596105885012
 30
0.0
 10
91.68245929539164
 20
157.4615429487522
 30
0.0
  0
SPLINE
  5
151
330
1F
100
AcDbEntity
  8
0
  6
Continuous
 62
     7
370
    25
100
AcDbSpline
210
0.0
220
0.0
230
1.0
 70
     8
 71
     3
 72
     8
 73
     4
 74
     0
 42
0.00000001
 43
0.00000001
 40
0.0
 40
0.0
 40
0.0
 40
0.0
 40
1.0
 40
1.0
 40
1.0
 40
1.0
 10
74.31754070465578
 20
157.4615429487901
 30
0.0
 10
74.19008641245878
 20
157.3596107881024
 30
0.0
 10
74.0627451254109
 20
157.2569573124401
 30
0.0
 10
73.93615725775871
 20
157.1544336429725
 30
0.0
  0
SPLINE
  5
152
330
1F
100
AcDbEntity
  8
0
  6
Continuous
 62
     7
370
    25
100
AcDbSpline
210
0.0
220
0.0
230
1.0
 70
     8
 71
     3
 72
     8
 73
     4
 74
     0
 42
0.00000001
 43
0.00000001
 40
0.0
 40
0.0
 40
0.0
 40
0.0
 40
1.0
 40
1.0
 40
1.0
 40
1.0
 10
73.93615725775871
 20
157.1544336429725
 30
0.0
 10
73.88621009615935
 20
157.1139813754557
 30
0.0
 10
73.82859474265943
 20
157.071929150945
 30
0.0
 10
73.76362130721748
 20
157.0290942275521
 30
0.0
  0
SPLINE
  5
153
330
1F
100
AcDbEntity
  8
0
  6
Continuous
 62
     7
370
    25
100
AcDbSpline
210
0.0
220
0.0
230
1.0
 70
     8
 71
     3
 72
    16
 73
    12
 74
     0
 42
0.00000001
 43
0.00000001
 40
0.0
 40
0.0
 40
0.0
 40
0.0
 40
0.125
 40
0.125
 40
0.25
 40
0.25
 40
0.5
 40
0.5
 40
0.75
 40
0.75
 40
1.0
 40
1.0
 40
1.0
 40
1.0
 10
73.76362130721748
 20
157.0290942275521
 30
0.0
 10
73.51133590069803
 20
156.8627704678814
 30
0.0
 10
73.2464597565002
 20
156.729527507805
 30
0.0
 10
72.6989997251492
 20
156.5034455260182
 30
0.0
 10
72.41662831353122
 20
156.408751045287
 30
0.0
 10
71.56418274331106
 20
156.1569593734274
 30
0.0
 10
70.98792909421333
 20
156.0304526933153
 30
0.0
 10
69.83082157948026
 20
155.814812096636
 30
0.0
 10
69.24885965044629
 20
155.7287712871261
 30
0.0
 10
68.08455341895203
 20
155.5953862764362
 30
0.0
 10
67.50141572373981
 20
155.5477300940367
 30
0.0
 10
66.91729572854415
 20
155.5176258766215
 30
0.0
  0
ARC
  5
154
330
1F
100
AcDbEntity
  8
0
  6
Continuous
 62
     7
370
    25
100
AcDbCircle
 10
125.8861788618
 20
157.512195122
 30
0.0
 40
2.032520325203251
100
AcDbArc
 50
180.0
 51
270.0
  0
ARC
  5
155
330
1F
100
AcDbEntity
  8
0
  6
Continuous
 62
     7
370
    25
100
AcDbCircle
 10
40.1138211382
 20
157.512195122
 30
0.0
 40
2.032520325203251
100
AcDbArc
 50
270.0
 51
0.0
  0
SPLINE
  5
156
330
1F
100
AcDbEntity
  8
0
  6
Continuous
 62
     7
370
    25
100
AcDbSpline
210
0.0
220
0.0
230
1.0
 70
     8
 71
     3
 72
     8
 73
     4
 74
     0
 42
0.00000001
 43
0.00000001
 40
-0.405835683606072
 40
-0.405835683606072
 40
-0.405835683606072
 40
-0.405835683606072
 40
-0.331726965103419
 40
-0.331726965103419
 40
-0.331726965103419
 40
-0.331726965103419
 10
74.1939665758518
 20
156.3615687921414
 30
0.0
 10
74.27806743492488
 20
156.4140131171262
 30
0.0
 10
74.35763508521684
 20
156.4683669274279
 30
0.0
 10
74.43215145301416
 20
156.5253472351072
 30
0.0
  0
SPLINE
  5
157
330
1F
100
AcDbEntity
  8
0
  6
Continuous
 62
     7
370
    25
100
AcDbSpline
210
0.0
220
0.0
230
1.0
 70
     8
 71
     3
 72
    10
 73
     6
 74
     0
 42
0.00000001
 43
0.00000001
 40
0.0
 40
0.0
 40
0.0
 40
0.0
 40
0.142857142857143
 40
0.2142857142857141
 40
1.0
 40
1.0
 40
1.0
 40
1.0
 10
90.96434546722752
 20
156.9942409789043
 30
0.0
 10
90.96736547860787
 20
156.9918691473659
 30
0.0
 10
90.9726753907073
 20
156.9877034366808
 30
0.0
 10
91.04538947224677
 20
156.9306101433271
 30
0.0
 10
91.16385478406652
 20
156.8377769833625
 30
0.0
 10
91.18047920300643
 20
156.8248012414624
 30
0.0
  0
SPLINE
  5
158
330
1F
100
AcDbEntity
  8
0
  6
Continuous
 62
     7
370
    25
100
AcDbSpline
210
0.0
220
0.0
230
1.0
 70
     8
 71
     3
 72
     8
 73
     4
 74
     0
 42
0.00000001
 43
0.00000001
 40
0.0
 40
0.0
 40
0.0
 40
0.0
 40
1.0
 40
1.0
 40
1.0
 40
1.0
 10
91.18047920300643
 20
156.8248012414624
 30
0.0
 10
91.30923486374822
 20
156.7243044825684
 30
0.0
 10
91.43857371653415
 20
156.6241996058287
 30
0.0
 10
91.56784854698586
 20
156.5253472351072
 30
0.0
  0
SPLINE
  5
159
330
1F
100
AcDbEntity
  8
0
  6
Continuous
 62
     7
370
    25
100
AcDbSpline
210
0.0
220
0.0
230
1.0
 70
     8
 71
     3
 72
     8
 73
     4
 74
     0
 42
0.00000001
 43
0.00000001
 40
0.33172696510342
 40
0.33172696510342
 40
0.33172696510342
 40
0.33172696510342
 40
0.405835683606072
 40
0.405835683606072
 40
0.405835683606072
 40
0.405835683606072
 10
91.56784854698586
 20
156.5253472351072
 30
0.0
 10
91.64236491478317
 20
156.4683669274279
 30
0.0
 10
91.72193256507514
 20
156.4140131171262
 30
0.0
 10
91.80603342414821
 20
156.3615687921414
 30
0.0
  0
LINE
  5
15A
330
1F
100
AcDbEntity
  8
0
  6
Continuous
 62
     7
370
    25
100
AcDbLine
 10
91.8060334188
 20
154.2601626016
 30
0.0
 11
90.9643454672
 21
154.2601626016
 31
0.0
  0
SPLINE
  5
15B
330
1F
100
AcDbEntity
  8
0
  6
Continuous
 62
     7
370
    25
100
AcDbSpline
210
0.0
220
0.0
230
1.0
 70
     8
 71
     3
 72
     8
 73
     4
 74
     0
 42
0.00000001
 43
0.00000001
 40
0.0
 40
0.0
 40
0.0
 40
0.0
 40
1.0
 40
1.0
 40
1.0
 40
1.0
 10
74.43215145301416
 20
156.5253472351072
 30
0.0
 10
74.56142652012032
 20
156.6241997867909
 30
0.0
 10
74.69076538837756
 20
156.7243046793582
 30
0.0
 10
74.81952079704155
 20
156.8248012414998
 30
0.0
  0
SPLINE
  5
15C
330
1F
100
AcDbEntity
  8
0
  6
Continuous
 62
     7
370
    25
100
AcDbSpline
210
0.0
220
0.0
230
1.0
 70
     8
 71
     3
 72
    10
 73
     6
 74
     0
 42
0.00000001
 43
0.00000001
 40
0.0
 40
0.0
 40
0.0
 40
0.0
 40
0.7857142857142859
 40
0.857142857142857
 40
1.0
 40
1.0
 40
1.0
 40
1.0
 10
74.81952079704155
 20
156.8248012414998
 30
0.0
 10
74.83614521598228
 20
156.8377769834006
 30
0.0
 10
74.95461052777948
 20
156.9306101433304
 30
0.0
 10
75.02732460929403
 20
156.9877034366793
 30
0.0
 10
75.03263452139267
 20
156.9918691473652
 30
0.0
 10
75.03565453277248
 20
156.9942409789043
 30
0.0
  0
LINE
  5
15D
330
1F
100
AcDbEntity
  8
0
  6
Continuous
 62
     7
370
    25
100
AcDbLine
 10
75.0356545328
 20
154.2601626016
 30
0.0
 11
74.1939665812
 21
154.2601626016
 31
0.0
  0
LINE
  5
15E
330
1F
100
AcDbEntity
  8
0
  6
Continuous
 62
     7
370
    25
100
AcDbLine
 10
74.0887555873
 20
153.8536585366
 30
0.0
 11
75.0356545328
 21
153.8536585366
 31
0.0
  0
LINE
  5
15F
330
1F
100
AcDbEntity
  8
0
  6
Continuous
 62
     7
370
    25
100
AcDbLine
 10
90.9643454672
 20
153.8536585366
 30
0.0
 11
91.9112444127
 21
153.8536585366
 31
0.0
  0
LINE
  5
160
330
1F
100
AcDbEntity
  8
0
  6
Continuous
 62
     7
370
    25
100
AcDbLine
 10
119.3821138211
 20
161.1707317073
 30
0.0
 11
46.6178861789
 21
161.1707317073
 31
0.0
  0
LINE
  5
161
330
1F
100
AcDbEntity
  8
0
  6
Continuous
 62
     7
370
    25
100
AcDbLine
 10
90.9643454672
 20
154.2601626016
 30
0.0
 11
75.0356545328
 21
154.2601626016
 31
0.0
  0
LINE
  5
162
330
1F
100
AcDbEntity
  8
0
  6
Continuous
 62
     7
370
    25
100
AcDbLine
 10
42.1463414634
 20
161.1707317073
 30
0.0
 11
42.1463414634
 21
157.512195122
 31
0.0
  0
LINE
  5
163
330
1F
100
AcDbEntity
  8
0
  6
Continuous
 62
     7
370
    25
100
AcDbLine
 10
46.6178861789
 20
161.1707317073
 30
0.0
 11
42.1463414634
 21
161.1707317073
 31
0.0
  0
LINE
  5
164
330
1F
100
AcDbEntity
  8
0
  6
Continuous
 62
     7
370
    25
100
AcDbLine
 10
123.8536585366
 20
161.1707317073
 30
0.0
 11
123.8536585366
 21
157.512195122
 31
0.0
  0
LINE
  5
165
330
1F
100
AcDbEntity
  8
0
  6
Continuous
 62
     7
370
    25
100
AcDbLine
 10
123.8536585366
 20
161.1707317073
 30
0.0
 11
119.3821138211
 21
161.1707317073
 31
0.0
  0
LINE
  5
166
330
1F
100
AcDbEntity
  8
0
  6
Continuous
 62
     7
370
    25
100
AcDbLine
 10
75.0356545328
 20
153.8536585366
 30
0.0
 11
90.9643454672
 21
153.8536585366
 31
0.0
  0
LINE
  5
167
330
1F
100
AcDbEntity
  8
0
  6
Continuous
 62
     7
370
    25
100
AcDbLine
 10
44.1788617886
 20
161.1707317073
 30
0.0
 11
44.1788617886
 21
162.1463414634
 31
0.0
  0
LINE
  5
168
330
1F
100
AcDbEntity
  8
0
  6
Continuous
 62
     7
370
    25
100
AcDbLine
 10
44.1788617886
 20
162.1463414634
 30
0.0
 11
46.6178861789
 21
162.1463414634
 31
0.0
  0
LINE
  5
169
330
1F
100
AcDbEntity
  8
0
  6
Continuous
 62
     7
370
    25
100
AcDbLine
 10
119.3821138211
 20
162.1463414634
 30
0.0
 11
121.8211382114
 21
162.1463414634
 31
0.0
  0
LINE
  5
16A
330
1F
100
AcDbEntity
  8
0
  6
Continuous
 62
     7
370
    25
100
AcDbLine
 10
121.8211382114
 20
161.1707317073
 30
0.0
 11
121.8211382114
 21
162.1463414634
 31
0.0
  0
LINE
  5
16B
330
1F
100
AcDbEntity
  8
0
  6
Continuous
 62
     7
370
    25
100
AcDbLine
 10
46.6178861789
 20
162.1463414634
 30
0.0
 11
119.3821138211
 21
162.1463414634
 31
0.0
  0
SPLINE
  5
16C
330
1F
100
AcDbEntity
  8
0
  6
Continuous
 62
     7
370
    25
100
AcDbSpline
210
0.0
220
0.0
230
1.0
 70
     8
 71
     3
 72
     8
 73
     4
 74
     0
 42
0.00000001
 43
0.00000001
 40
0.0
 40
0.0
 40
0.0
 40
0.0
 40
1.0
 40
1.0
 40
1.0
 40
1.0
 10
124.1959326347917
 20
156.383387536715
 30
0.0
 10
124.1700205355126
 20
156.422187619752
 30
0.0
 10
124.1456506322134
 20
156.4615756384887
 30
0.0
 10
124.1228545138223
 20
156.5013409701403
 30
0.0
  0
SPLINE
  5
16D
330
1F
100
AcDbEntity
  8
0
  6
Continuous
 62
     7
370
    25
100
AcDbSpline
210
0.0
220
0.0
230
1.0
 70
     8
 71
     3
 72
     8
 73
     4
 74
     0
 42
0.00000001
 43
0.00000001
 40
0.0
 40
0.0
 40
0.0
 40
0.0
 40
1.0
 40
1.0
 40
1.0
 40
1.0
 10
41.87714548617771
 20
156.5013409701403
 30
0.0
 10
41.85434936778658
 20
156.4615756384887
 30
0.0
 10
41.82997946448739
 20
156.422187619752
 30
0.0
 10
41.80406736520829
 20
156.383387536715
 30
0.0
  0
LINE
  5
16E
330
1F
100
AcDbEntity
  8
0
  6
HIDDEN
 62
     7
370
    18
100
AcDbLine
 10
128.3658536585
 20
155.4796747967
 30
0.0
 11
128.3658536585
 21
153.8536585366
 31
0.0
  0
LINE
  5
16F
330
1F
100
AcDbEntity
  8
0
  6
HIDDEN
 62
     7
370
    18
100
AcDbLine
 10
131.1300813008
 20
155.4796747967
 30
0.0
 11
131.1300813008
 21
153.8536585366
 31
0.0
  0
LINE
  5
170
330
1F
100
AcDbEntity
  8
0
  6
HIDDEN
 62
     7
370
    18
100
AcDbLine
 10
34.8699186992
 20
155.4796747967
 30
0.0
 11
34.8699186992
 21
153.8536585366
 31
0.0
  0
LINE
  5
171
330
1F
100
AcDbEntity
  8
0
  6
HIDDEN
 62
     7
370
    18
100
AcDbLine
 10
37.6341463415
 20
155.4796747967
 30
0.0
 11
37.6341463415
 21
153.8536585366
 31
0.0
  0
LINE
  5
172
330
1F
100
AcDbEntity
  8
0
  6
HIDDEN
 62
     7
370
    18
100
AcDbLine
 10
84.6238583919
 20
154.2601626016
 30
0.0
 11
84.2173543274
 21
153.8536585366
 31
0.0
  0
LINE
  5
173
330
1F
100
AcDbEntity
  8
0
  6
HIDDEN
 62
     7
370
    18
100
AcDbLine
 10
86.656421874
 20
160.1138211382
 30
0.0
 11
114.0317030687
 21
160.1138211382
 31
0.0
  0
SPLINE
  5
174
330
1F
100
AcDbEntity
  8
0
  6
HIDDEN
 62
     7
370
    18
100
AcDbSpline
210
0.0
220
0.0
230
1.0
 70
     8
 71
     3
 72
    10
 73
     6
 74
     0
 42
0.00000001
 43
0.00000001
 40
0.0000000000000001
 40
0.0000000000000001
 40
0.0000000000000001
 40
0.0000000000000001
 40
0.897597901025659
 40
1.346396851538486
 40
1.5707963267949
 40
1.5707963267949
 40
1.5707963267949
 40
1.5707963267949
 10
86.65642187396685
 20
160.1138211382114
 30
0.0
 10
86.4131574972435
 20
160.1138211382114
 30
0.0
 10
86.05217893409369
 20
159.677713726652
 30
0.0
 10
85.86408634220162
 20
158.6876854242934
 30
0.0
 10
85.84337058525938
 20
158.233332977816
 30
0.0
 10
85.84337058525938
 20
158.0813008130081
 30
0.0
  0
SPLINE
  5
175
330
1F
100
AcDbEntity
  8
0
  6
HIDDEN
 62
     7
370
    18
100
AcDbSpline
210
0.0
220
0.0
230
1.0
 70
     8
 71
     3
 72
    10
 73
     6
 74
     0
 42
0.00000001
 43
0.00000001
 40
-0.0000000000000006
 40
-0.0000000000000006
 40
-0.0000000000000006
 40
-0.0000000000000006
 40
0.448798950512827
 40
0.673198425769241
 40
1.5707963267949
 40
1.5707963267949
 40
1.5707963267949
 40
1.5707963267949
 10
80.15231366667192
 20
158.0813008130081
 30
0.0
 10
80.15231366667192
 20
158.3853651426239
 30
0.0
 10
80.1101972487464
 20
158.839407748592
 30
0.0
 10
79.88324424489937
 20
159.7509929798425
 30
0.0
 10
79.58258724427311
 20
160.1138211382114
 30
0.0
 10
79.33934869292584
 20
160.1138211382114
 30
0.0
  0
LINE
  5
176
330
1F
100
AcDbEntity
  8
0
  6
HIDDEN
 62
     7
370
    18
100
AcDbLine
 10
51.9682969313
 20
160.1138211382
 30
0.0
 11
79.3393486929
 21
160.1138211382
 31
0.0
  0
LINE
  5
177
330
1F
100
AcDbEntity
  8
0
  6
HIDDEN
 62
     7
370
    18
100
AcDbLine
 10
84.6238583919
 20
154.2601626016
 30
0.0
 11
84.6238583919
 21
158.081300813
 31
0.0
  0
SPLINE
  5
178
330
1F
100
AcDbEntity
  8
0
  6
HIDDEN
 62
     7
370
    18
100
AcDbSpline
210
0.0
220
0.0
230
1.0
 70
     8
 71
     3
 72
    10
 73
     6
 74
     0
 42
0.00000001
 43
0.00000001
 40
0.0000000000000001
 40
0.0000000000000001
 40
0.0000000000000001
 40
0.0000000000000001
 40
0.224399475256414
 40
0.673198425769241
 40
1.5707963267949
 40
1.5707963267949
 40
1.5707963267949
 40
1.5707963267949
 10
84.62385839185563
 20
158.0813008130081
 30
0.0
 10
84.62385839185563
 20
158.233332977816
 30
0.0
 10
84.67564613470766
 20
158.6876854242934
 30
0.0
 10
85.14586263746142
 20
159.677713726652
 30
0.0
 10
86.04828030221871
 20
160.1138211382114
 30
0.0
 10
86.65642187396685
 20
160.1138211382114
 30
0.0
  0
SPLINE
  5
179
330
1F
100
AcDbEntity
  8
0
  6
HIDDEN
 62
     7
370
    18
100
AcDbSpline
210
0.0
220
0.0
230
1.0
 70
     8
 71
     3
 72
    10
 73
     6
 74
     0
 42
0.00000001
 43
0.00000001
 40
-0.0000000000000006
 40
-0.0000000000000006
 40
-0.0000000000000006
 40
-0.0000000000000006
 40
0.8975979010256583
 40
1.121997376282073
 40
1.5707963267949
 40
1.5707963267949
 40
1.5707963267949
 40
1.5707963267949
 10
79.33934869292584
 20
160.1138211382114
 30
0.0
 10
79.9474644392979
 20
160.1138211382114
 30
0.0
 10
80.69913088084314
 20
159.7509929798425
 30
0.0
 10
81.26653146171887
 20
158.839407748592
 30
0.0
 10
81.37182586007565
 20
158.3853651426239
 30
0.0
 10
81.37182586007565
 20
158.0813008130081
 30
0.0
  0
SPLINE
  5
17A
330
1F
100
AcDbEntity
  8
0
  6
HIDDEN
 62
     7
370
    18
100
AcDbSpline
210
0.0
220
0.0
230
1.0
 70
     8
 71
     3
 72
    11
 73
     7
 74
     0
 42
0.00000001
 43
0.00000001
 40
-0.0000000000000005
 40
-0.0000000000000005
 40
-0.0000000000000005
 40
-0.0000000000000005
 40
0.224399475256413
 40
0.448798950512826
 40
0.673198425769239
 40
1.57079632679489
 40
1.57079632679489
 40
1.57079632679489
 40
1.57079632679489
 10
86.77019252123853
 20
158.0813008130081
 30
0.0
 10
86.77019252123853
 20
158.233332977816
 30
0.0
 10
86.76831900773736
 20
158.5379096999797
 30
0.0
 10
86.75991944632287
 20
158.969759518814
 30
0.0
 10
86.73313300613945
 20
159.7517753594871
 30
0.0
 10
86.69164714417467
 20
160.1138211382114
 30
0.0
 10
86.65811304257623
 20
160.1138211382114
 30
0.0
  0
SPLINE
  5
17B
330
1F
100
AcDbEntity
  8
0
  6
HIDDEN
 62
     7
370
    18
100
AcDbSpline
210
0.0
220
0.0
230
1.0
 70
     8
 71
     3
 72
    11
 73
     7
 74
     0
 42
0.00000001
 43
0.00000001
 40
-0.0000000000000004
 40
-0.0000000000000004
 40
-0.0000000000000004
 40
-0.0000000000000004
 40
0.8975979010256585
 40
1.121997376282073
 40
1.346396851538487
 40
1.5707963267949
 40
1.5707963267949
 40
1.5707963267949
 40
1.5707963267949
 10
79.34103980919748
 20
160.1138211382114
 30
0.0
 10
79.30757539192386
 20
160.1138211382114
 30
0.0
 10
79.26617573808163
 20
159.7517753620821
 30
0.0
 10
79.23944496056022
 20
158.9697595188182
 30
0.0
 10
79.23106285353798
 20
158.5379097004071
 30
0.0
 10
79.22919323323494
 20
158.233332977816
 30
0.0
 10
79.22919323323494
 20
158.0813008130081
 30
0.0
  0
SPLINE
  5
17C
330
1F
100
AcDbEntity
  8
0
  6
HIDDEN
 62
     7
370
    18
100
AcDbSpline
210
0.0
220
0.0
230
1.0
 70
     8
 71
     3
 72
    11
 73
     7
 74
     0
 42
0.00000001
 43
0.00000001
 40
-0.0000000000000004
 40
-0.0000000000000004
 40
-0.0000000000000004
 40
-0.0000000000000004
 40
0.224399475256413
 40
0.448798950512827
 40
0.673198425769241
 40
1.5707963267949
 40
1.5707963267949
 40
1.5707963267949
 40
1.5707963267949
 10
81.37367659237235
 20
158.0813008130081
 30
0.0
 10
81.37367659237235
 20
158.233332977816
 30
0.0
 10
81.33969916422241
 20
158.5379097004071
 30
0.0
 10
81.1873674642374
 20
158.9697595188182
 30
0.0
 10
80.70157734357153
 20
159.7517753620821
 30
0.0
 10
79.9492033125726
 20
160.1138211382114
 30
0.0
 10
79.3410398091975
 20
160.1138211382114
 30
0.0
  0
LINE
  5
17D
330
1F
100
AcDbEntity
  8
0
  6
HIDDEN
 62
     7
370
    18
100
AcDbLine
 10
79.3393486929
 20
160.1138211382
 30
0.0
 11
79.3410398092
 21
160.1138211382
 31
0.0
  0
LINE
  5
17E
330
1F
100
AcDbEntity
  8
0
  6
HIDDEN
 62
     7
370
    18
100
AcDbLine
 10
86.6581130426
 20
160.1138211382
 30
0.0
 11
86.656421874
 21
160.1138211382
 31
0.0
  0
LINE
  5
17F
330
1F
100
AcDbEntity
  8
0
  6
HIDDEN
 62
     7
370
    18
100
AcDbLine
 10
120.6016260163
 20
154.2601626016
 30
0.0
 11
121.0081300813
 21
153.8536585366
 31
0.0
  0
LINE
  5
180
330
1F
100
AcDbEntity
  8
0
  6
HIDDEN
 62
     7
370
    18
100
AcDbLine
 10
45.3983739837
 20
154.2601626016
 30
0.0
 11
44.9918699187
 21
153.8536585366
 31
0.0
  0
SPLINE
  5
181
330
1F
100
AcDbEntity
  8
0
  6
HIDDEN
 62
     7
370
    18
100
AcDbSpline
210
0.0
220
0.0
230
1.0
 70
     8
 71
     3
 72
    11
 73
     7
 74
     0
 42
0.00000001
 43
0.00000001
 40
-0.0000000000000005
 40
-0.0000000000000005
 40
-0.0000000000000005
 40
-0.0000000000000005
 40
0.8975979010256584
 40
1.121997376282073
 40
1.346396851538487
 40
1.5707963267949
 40
1.5707963267949
 40
1.5707963267949
 40
1.5707963267949
 10
47.43089430894309
 20
160.1138211382114
 30
0.0
 10
47.46439357087439
 20
160.1138211382114
 30
0.0
 10
47.5058242809256
 20
159.7513257803932
 30
0.0
 10
47.53259411740585
 20
158.9697233380714
 30
0.0
 10
47.54098337032561
 20
158.537818050396
 30
0.0
 10
47.54285734459544
 20
158.233332977816
 30
0.0
 10
47.54285734459544
 20
158.0813008130081
 30
0.0
  0
SPLINE
  5
182
330
1F
100
AcDbEntity
  8
0
  6
HIDDEN
 62
     7
370
    18
100
AcDbSpline
210
0.0
220
0.0
230
1.0
 70
     8
 71
     3
 72
    11
 73
     7
 74
     0
 42
0.00000001
 43
0.00000001
 40
-0.0000000000000005
 40
-0.0000000000000005
 40
-0.0000000000000005
 40
-0.0000000000000005
 40
0.224399475256413
 40
0.448798950512827
 40
0.673198425769241
 40
1.5707963267949
 40
1.5707963267949
 40
1.5707963267949
 40
1.5707963267949
 10
45.39837398373983
 20
158.0813008130081
 30
0.0
 10
45.39837398373983
 20
158.233332977816
 30
0.0
 10
45.43239316489439
 20
158.5378180503961
 30
0.0
 10
45.58468741962959
 20
158.9697233380714
 30
0.0
 10
46.0706534925526
 20
159.7513257803932
 30
0.0
 10
46.82276564971162
 20
160.1138211382114
 30
0.0
 10
47.43089430894309
 20
160.1138211382114
 30
0.0
  0
LINE
  5
183
330
1F
100
AcDbEntity
  8
0
  6
HIDDEN
 62
     7
370
    18
100
AcDbLine
 10
45.3983739837
 20
154.2601626016
 30
0.0
 11
45.3983739837
 21
158.081300813
 31
0.0
  0
LINE
  5
184
330
1F
100
AcDbEntity
  8
0
  6
HIDDEN
 62
     7
370
    18
100
AcDbLine
 10
120.6016260163
 20
158.081300813
 30
0.0
 11
120.6016260163
 21
154.2601626016
 31
0.0
  0
LINE
  5
185
330
1F
100
AcDbEntity
  8
0
  6
HIDDEN
 62
     7
370
    18
100
AcDbLine
 10
47.4308943089
 20
160.1138211382
 30
0.0
 11
51.9682969313
 21
160.1138211382
 31
0.0
  0
LINE
  5
186
330
1F
100
AcDbEntity
  8
0
  6
HIDDEN
 62
     7
370
    18
100
AcDbLine
 10
114.0317030687
 20
160.1138211382
 30
0.0
 11
118.5691056911
 21
160.1138211382
 31
0.0
  0
SPLINE
  5
187
330
1F
100
AcDbEntity
  8
0
  6
HIDDEN
 62
     7
370
    18
100
AcDbSpline
210
0.0
220
0.0
230
1.0
 70
     8
 71
     3
 72
    11
 73
     7
 74
     0
 42
0.00000001
 43
0.00000001
 40
0.0000000000000001
 40
0.0000000000000001
 40
0.0000000000000001
 40
0.0000000000000001
 40
0.6731984257692449
 40
1.121997376282072
 40
1.346396851538486
 40
1.5707963267949
 40
1.5707963267949
 40
1.5707963267949
 40
1.5707963267949
 10
118.5691056910569
 20
160.1138211382114
 30
0.0
 10
119.0252021854805
 20
160.1138211382114
 30
0.0
 10
119.7828093954882
 20
159.8475109008206
 30
0.0
 10
120.3654220879892
 20
159.1146833352922
 30
0.0
 10
120.5672468377701
 20
158.5373755267905
 30
0.0
 10
120.6016260162602
 20
158.233332977816
 30
0.0
 10
120.6016260162602
 20
158.0813008130081
 30
0.0
  0
SPLINE
  5
188
330
1F
100
AcDbEntity
  8
0
  6
HIDDEN
 62
     7
370
    18
100
AcDbSpline
210
0.0
220
0.0
230
1.0
 70
     8
 71
     3
 72
     8
 73
     4
 74
     0
 42
0.00000001
 43
0.00000001
 40
0.7411450550419011
 40
0.7411450550419011
 40
0.7411450550419011
 40
0.7411450550419011
 40
1.5707963267949
 40
1.5707963267949
 40
1.5707963267949
 40
1.5707963267949
 10
41.71065171962381
 20
155.7832372787001
 30
0.0
 10
41.28949095517479
 20
155.3230485810562
 30
0.0
 10
40.70402021364536
 20
155.0731707317073
 30
0.0
 10
40.11382113821137
 20
155.0731707317073
 30
0.0
  0
SPLINE
  5
189
330
1F
100
AcDbEntity
  8
0
  6
HIDDEN
 62
     7
370
    18
100
AcDbSpline
210
0.0
220
0.0
230
1.0
 70
     8
 71
     3
 72
     8
 73
     4
 74
     0
 42
0.00000001
 43
0.00000001
 40
-1.5707963267949
 40
-1.5707963267949
 40
-1.5707963267949
 40
-1.5707963267949
 40
-0.7411450550418971
 40
-0.7411450550418971
 40
-0.7411450550418971
 40
-0.7411450550418971
 10
125.8861788617886
 20
155.0731707317073
 30
0.0
 10
125.2959797863546
 20
155.0731707317073
 30
0.0
 10
124.7105090448252
 20
155.3230485810562
 30
0.0
 10
124.2893482803762
 20
155.7832372787001
 30
0.0
  0
LINE
  5
18A
330
1F
100
AcDbEntity
  8
0
  6
HIDDEN
 62
     7
370
    18
100
AcDbLine
 10
42.1463414634
 20
154.2601626016
 30
0.0
 11
42.5528455285
 21
153.8536585366
 31
0.0
  0
LINE
  5
18B
330
1F
100
AcDbEntity
  8
0
  6
HIDDEN
 62
     7
370
    18
100
AcDbLine
 10
123.8536585366
 20
154.2601626016
 30
0.0
 11
123.4471544715
 21
153.8536585366
 31
0.0
  0
SPLINE
  5
18C
330
1F
100
AcDbEntity
  8
0
  6
HIDDEN
 62
     7
370
    18
100
AcDbSpline
210
0.0
220
0.0
230
1.0
 70
     8
 71
     3
 72
    10
 73
     6
 74
     0
 42
0.00000001
 43
0.00000001
 40
0.0
 40
0.0
 40
0.0
 40
0.0
 40
0.142857142857143
 40
0.2142857142857141
 40
1.0
 40
1.0
 40
1.0
 40
1.0
 10
42.14634146341462
 20
156.9942409789043
 30
0.0
 10
42.14634146341462
 20
156.9918693138094
 30
0.0
 10
42.14627499662845
 20
156.9877101961076
 30
0.0
 10
42.14638240189642
 20
156.9306248478646
 30
0.0
 10
42.14025721210829
 20
156.8377593939167
 30
0.0
 10
42.13914975395959
 20
156.8247834863421
 30
0.0
  0
SPLINE
  5
18D
330
1F
100
AcDbEntity
  8
0
  6
HIDDEN
 62
     7
370
    18
100
AcDbSpline
210
0.0
220
0.0
230
1.0
 70
     8
 71
     3
 72
    10
 73
     6
 74
     0
 42
0.00000001
 43
0.00000001
 40
0.0
 40
0.0
 40
0.0
 40
0.0
 40
0.5
 40
0.5
 40
1.0
 40
1.0
 40
1.0
 40
1.0
 10
42.13914975395959
 20
156.8247834863424
 30
0.0
 10
42.12546506731829
 20
156.6644422316762
 30
0.0
 10
42.09254581495819
 20
156.5046021187276
 30
0.0
 10
41.98476759871232
 20
156.1981054507303
 30
0.0
 10
41.91040558044147
 20
156.0515091323271
 30
0.0
 10
41.81325331923058
 20
155.9115900517726
 30
0.0
  0
SPLINE
  5
18E
330
1F
100
AcDbEntity
  8
0
  6
HIDDEN
 62
     7
370
    18
100
AcDbSpline
210
0.0
220
0.0
230
1.0
 70
     8
 71
     3
 72
     8
 73
     4
 74
     0
 42
0.00000001
 43
0.00000001
 40
0.0
 40
0.0
 40
0.0
 40
0.0
 40
1.0
 40
1.0
 40
1.0
 40
1.0
 10
41.81325331923056
 20
155.9115900517725
 30
0.0
 10
41.78234772383113
 20
155.8670796879541
 30
0.0
 10
41.7482572216578
 20
155.8243275902059
 30
0.0
 10
41.71065171962381
 20
155.7832372787001
 30
0.0
  0
LINE
  5
18F
330
1F
100
AcDbEntity
  8
0
  6
HIDDEN
 62
     7
370
    18
100
AcDbLine
 10
42.1463414634
 20
156.9942409789
 30
0.0
 11
42.1463414634
 21
154.2601626016
 31
0.0
  0
SPLINE
  5
190
330
1F
100
AcDbEntity
  8
0
  6
HIDDEN
 62
     7
370
    18
100
AcDbSpline
210
0.0
220
0.0
230
1.0
 70
     8
 71
     3
 72
    10
 73
     6
 74
     0
 42
0.00000001
 43
0.00000001
 40
0.0
 40
0.0
 40
0.0
 40
0.0
 40
0.7857142857142859
 40
0.857142857142857
 40
1.0
 40
1.0
 40
1.0
 40
1.0
 10
123.8608503251277
 20
156.8247825596916
 30
0.0
 10
123.8597428547233
 20
156.8377585386043
 30
0.0
 10
123.8536175976417
 20
156.9306244973975
 30
0.0
 10
123.8537250041046
 20
156.9877101598303
 30
0.0
 10
123.8536585365854
 20
156.9918693005866
 30
0.0
 10
123.8536585365854
 20
156.9942409789043
 30
0.0
  0
SPLINE
  5
191
330
1F
100
AcDbEntity
  8
0
  6
HIDDEN
 62
     7
370
    18
100
AcDbSpline
210
0.0
220
0.0
230
1.0
 70
     8
 71
     3
 72
    10
 73
     6
 74
     0
 42
0.00000001
 43
0.00000001
 40
0.0
 40
0.0
 40
0.0
 40
0.0
 40
0.5
 40
0.5
 40
1.0
 40
1.0
 40
1.0
 40
1.0
 10
124.1867466807694
 20
155.9115900517726
 30
0.0
 10
124.0896201041833
 20
156.0514721412264
 30
0.0
 10
124.014948081958
 20
156.198797147957
 30
0.0
 10
123.9073000669398
 20
156.5053172854941
 30
0.0
 10
123.8745314236738
 20
156.6644842388132
 30
0.0
 10
123.8608503251276
 20
156.8247825596916
 30
0.0
  0
SPLINE
  5
192
330
1F
100
AcDbEntity
  8
0
  6
HIDDEN
 62
     7
370
    18
100
AcDbSpline
210
0.0
220
0.0
230
1.0
 70
     8
 71
     3
 72
     8
 73
     4
 74
     0
 42
0.00000001
 43
0.00000001
 40
0.0
 40
0.0
 40
0.0
 40
0.0
 40
1.0
 40
1.0
 40
1.0
 40
1.0
 10
124.2893482803762
 20
155.7832372787001
 30
0.0
 10
124.2517427783422
 20
155.8243275902059
 30
0.0
 10
124.2176522761689
 20
155.8670796879541
 30
0.0
 10
124.1867466807695
 20
155.9115900517725
 30
0.0
  0
LINE
  5
193
330
1F
100
AcDbEntity
  8
0
  6
HIDDEN
 62
     7
370
    18
100
AcDbLine
 10
123.8536585366
 20
154.2601626016
 30
0.0
 11
123.8536585366
 21
156.9942409789
 31
0.0
  0
LINE
  5
194
330
1F
100
AcDbEntity
  8
0
  6
HIDDEN
 62
     7
370
    18
100
AcDbLine
 10
123.8536585366
 20
156.9942409789
 30
0.0
 11
123.8536585366
 21
157.512195122
 31
0.0
  0
LINE
  5
195
330
1F
100
AcDbEntity
  8
0
  6
HIDDEN
 62
     7
370
    18
100
AcDbLine
 10
42.1463414634
 20
157.512195122
 30
0.0
 11
42.1463414634
 21
156.9942409789
 31
0.0
  0
LINE
  5
196
330
1F
100
AcDbEntity
  8
0
  6
HIDDEN
 62
     7
370
    18
100
AcDbLine
 10
81.3736765924
 20
154.2601626016
 30
0.0
 11
81.3736765924
 21
158.081300813
 31
0.0
  0
LINE
  5
197
330
1F
100
AcDbEntity
  8
0
  6
HIDDEN
 62
     7
370
    18
100
AcDbLine
 10
81.3736765924
 20
154.2601626016
 30
0.0
 11
81.7801806568
 21
153.8536585366
 31
0.0
  0
SPLINE
  5
198
330
1F
100
AcDbEntity
  8
0
  6
HIDDEN
 62
     7
370
    18
100
AcDbSpline
210
0.0
220
0.0
230
1.0
 70
     8
 71
     3
 72
    10
 73
     6
 74
     0
 42
0.00000001
 43
0.00000001
 40
0.0
 40
0.0
 40
0.0
 40
0.0
 40
0.8975979010256588
 40
1.346396851538486
 40
1.5707963267949
 40
1.5707963267949
 40
1.5707963267949
 40
1.5707963267949
 10
118.5691056910569
 20
160.1138211382114
 30
0.0
 10
118.8123571547495
 20
160.1138211382114
 30
0.0
 10
119.1732296078009
 20
159.6772078573565
 30
0.0
 10
119.3613922679961
 20
158.6876420178191
 30
0.0
 10
119.3821138211382
 20
158.233332977816
 30
0.0
 10
119.3821138211382
 20
158.0813008130081
 30
0.0
  0
SPLINE
  5
199
330
1F
100
AcDbEntity
  8
0
  6
HIDDEN
 62
     7
370
    18
100
AcDbSpline
210
0.0
220
0.0
230
1.0
 70
     8
 71
     3
 72
    10
 73
     6
 74
     0
 42
0.00000001
 43
0.00000001
 40
0.0
 40
0.0
 40
0.0
 40
0.0
 40
0.448798950512827
 40
0.67319842576924
 40
1.57079632679489
 40
1.57079632679489
 40
1.57079632679489
 40
1.57079632679489
 10
46.61788617886178
 20
158.0813008130081
 30
0.0
 10
46.61788617886178
 20
158.3853651426239
 30
0.0
 10
46.66006584654316
 20
158.8392108719993
 30
0.0
 10
46.88708374605626
 20
159.7505234403904
 30
0.0
 10
47.18764284525048
 20
160.1138211382114
 30
0.0
 10
47.43089430894309
 20
160.1138211382114
 30
0.0
  0
SPLINE
  5
19A
330
1F
100
AcDbEntity
  8
0
  6
HIDDEN
 62
     7
370
    18
100
AcDbSpline
210
0.0
220
0.0
230
1.0
 70
     8
 71
     3
 72
     8
 73
     4
 74
     0
 42
0.00000001
 43
0.00000001
 40
0.0
 40
0.0
 40
0.0
 40
0.0
 40
1.0
 40
1.0
 40
1.0
 40
1.0
 10
108.3704913617565
 20
157.4615429487522
 30
0.0
 10
108.497945903482
 20
157.3596105885028
 30
0.0
 10
108.6252871726807
 20
157.2569571247644
 30
0.0
 10
108.7518748086063
 20
157.1544336429725
 30
0.0
  0
SPLINE
  5
19B
330
1F
100
AcDbEntity
  8
0
  6
HIDDEN
 62
     7
370
    18
100
AcDbSpline
210
0.0
220
0.0
230
1.0
 70
     8
 71
     3
 72
     8
 73
     4
 74
     0
 42
0.00000001
 43
0.00000001
 40
0.0
 40
0.0
 40
0.0
 40
0.0
 40
1.0
 40
1.0
 40
1.0
 40
1.0
 10
108.7518748086063
 20
157.1544336429725
 30
0.0
 10
108.8018219702056
 20
157.1139813754557
 30
0.0
 10
108.8594373237054
 20
157.071929150945
 30
0.0
 10
108.9244107591475
 20
157.0290942275521
 30
0.0
  0
SPLINE
  5
19C
330
1F
100
AcDbEntity
  8
0
  6
HIDDEN
 62
     7
370
    18
100
AcDbSpline
210
0.0
220
0.0
230
1.0
 70
     8
 71
     3
 72
    16
 73
    12
 74
     0
 42
0.00000001
 43
0.00000001
 40
0.0
 40
0.0
 40
0.0
 40
0.0
 40
0.1249999999999993
 40
0.1249999999999993
 40
0.2499999999999987
 40
0.2499999999999987
 40
0.4999999999999987
 40
0.4999999999999987
 40
0.7499999999999987
 40
0.7499999999999987
 40
1.0
 40
1.0
 40
1.0
 40
1.0
 10
108.9244107591475
 20
157.0290942275521
 30
0.0
 10
109.1766958945829
 20
156.8627706465986
 30
0.0
 10
109.4415570836634
 20
156.7294994517669
 30
0.0
 10
109.9889985901189
 20
156.5033847182135
 30
0.0
 10
110.2713628194259
 20
156.4086772787198
 30
0.0
 10
111.1237981443801
 20
156.1568600542
 30
0.0
 10
111.7000498145829
 20
156.0303572671
 30
0.0
 10
112.857170008272
 20
155.814753832653
 30
0.0
 10
113.4391440868337
 20
155.7287387440431
 30
0.0
 10
114.603469581499
 20
155.5953818972799
 30
0.0
 10
115.1866146220295
 20
155.5477301827123
 30
0.0
 10
115.7707363378208
 20
155.5176258766215
 30
0.0
  0
SPLINE
  5
19D
330
1F
100
AcDbEntity
  8
0
  6
HIDDEN
 62
     7
370
    18
100
AcDbSpline
210
0.0
220
0.0
230
1.0
 70
     8
 71
     3
 72
    14
 73
    10
 74
     0
 42
0.00000001
 43
0.00000001
 40
0.0
 40
0.0
 40
0.0
 40
0.0
 40
0.0006011499673712
 40
0.0006011499673712
 40
0.0006011499673712
 40
0.0010593678415052
 40
0.0010593678415052
 40
0.0010593678415052
 40
0.0015176908383261
 40
0.0015176908383261
 40
0.0015176908383261
 40
0.0015176908383261
 10
115.7707363378208
 20
155.5176258766215
 30
0.0
 10
115.9642917641397
 20
155.5076504697124
 30
0.0
 10
116.1578284026004
 20
155.4996057687886
 30
0.0
 10
116.3513536190109
 20
155.4935442108992
 30
0.0
 10
116.4988684653805
 20
155.4889237805626
 30
0.0
 10
116.6463862058715
 20
155.4854540459702
 30
0.0
 10
116.7939061213757
 20
155.4831420143422
 30
0.0
 10
116.9414598886952
 20
155.4808294521657
 30
0.0
 10
117.0890242280131
 20
155.4796747967478
 30
0.0
 10
117.2365959578606
 20
155.4796747967478
 30
0.0
  0
SPLINE
  5
19E
330
1F
100
AcDbEntity
  8
0
  6
HIDDEN
 62
     7
370
    18
100
AcDbSpline
210
0.0
220
0.0
230
1.0
 70
     8
 71
     3
 72
    16
 73
    12
 74
     0
 42
0.00000001
 43
0.00000001
 40
0.0
 40
0.0
 40
0.0
 40
0.0
 40
0.249999999999999
 40
0.249999999999999
 40
0.4999999999999993
 40
0.4999999999999993
 40
0.7499999999999997
 40
0.7499999999999997
 40
0.8749999999999998
 40
0.8749999999999998
 40
1.0
 40
1.0
 40
1.0
 40
1.0
 10
50.22926366217919
 20
155.5176258766215
 30
0.0
 10
50.81354500516468
 20
155.5477384095352
 30
0.0
 10
51.3978727666844
 20
155.5951168463545
 30
0.0
 10
52.56407457745512
 20
155.7273949263052
 30
0.0
 10
53.14506440078376
 20
155.8121055408342
 30
0.0
 10
54.3016429416769
 20
156.0299278869094
 30
0.0
 10
54.87884946158787
 20
156.1621829000201
 30
0.0
 10
55.72622282583595
 20
156.4141420835694
 30
0.0
 10
56.005764804153
 20
156.5074679352537
 30
0.0
 10
56.55290043125643
 20
156.7304583882866
 30
0.0
 10
56.82003602928955
 20
156.8606161077535
 30
0.0
 10
57.07558924085252
 20
157.0290942275521
 30
0.0
  0
SPLINE
  5
19F
330
1F
100
AcDbEntity
  8
0
  6
HIDDEN
 62
     7
370
    18
100
AcDbSpline
210
0.0
220
0.0
230
1.0
 70
     8
 71
     3
 72
     8
 73
     4
 74
     0
 42
0.00000001
 43
0.00000001
 40
0.0
 40
0.0
 40
0.0
 40
0.0
 40
1.0
 40
1.0
 40
1.0
 40
1.0
 10
57.07558924085252
 20
157.0290942275521
 30
0.0
 10
57.14056267629456
 20
157.071929150945
 30
0.0
 10
57.19817802979439
 20
157.1139813754557
 30
0.0
 10
57.24812519139374
 20
157.1544336429725
 30
0.0
  0
SPLINE
  5
1A0
330
1F
100
AcDbEntity
  8
0
  6
HIDDEN
 62
     7
370
    18
100
AcDbSpline
210
0.0
220
0.0
230
1.0
 70
     8
 71
     3
 72
     8
 73
     4
 74
     0
 42
0.00000001
 43
0.00000001
 40
0.0
 40
0.0
 40
0.0
 40
0.0
 40
1.0
 40
1.0
 40
1.0
 40
1.0
 10
57.24812519139374
 20
157.1544336429725
 30
0.0
 10
57.37471305904594
 20
157.2569573124401
 30
0.0
 10
57.5020543460939
 20
157.3596107881024
 30
0.0
 10
57.62950863829089
 20
157.4615429487901
 30
0.0
  0
SPLINE
  5
1A1
330
1F
100
AcDbEntity
  8
0
  6
HIDDEN
 62
     7
370
    18
100
AcDbSpline
210
0.0
220
0.0
230
1.0
 70
     8
 71
     3
 72
    14
 73
    10
 74
     0
 42
0.00000001
 43
0.00000001
 40
0.0
 40
0.0
 40
0.0
 40
0.0
 40
0.0006011499334369
 40
0.0006011499334369
 40
0.0006011499334369
 40
0.0010593678319852
 40
0.0010593678319852
 40
0.0010593678319852
 40
0.0015176908880174
 40
0.0015176908880174
 40
0.0015176908880174
 40
0.0015176908880174
 10
48.76340404213934
 20
155.479674796748
 30
0.0
 10
48.95695945753222
 20
155.479674796748
 30
0.0
 10
49.15050420903493
 20
155.4816621616594
 30
0.0
 10
49.34403186133183
 20
155.4856409309485
 30
0.0
 10
49.49154857481975
 20
155.4886737531953
 30
0.0
 10
49.6390651965252
 20
155.4928634808711
 30
0.0
 10
49.78658199085578
 20
155.4981992492264
 30
0.0
 10
49.93413264454212
 20
155.5035362422944
 30
0.0
 10
50.08169192203943
 20
155.5100203644215
 30
0.0
 10
50.22926366217923
 20
155.5176258766211
 30
0.0
  0
SPLINE
  5
1A2
330
1F
100
AcDbEntity
  8
0
  6
HIDDEN
 62
     7
370
    18
100
AcDbSpline
210
0.0
220
0.0
230
1.0
 70
     8
 71
     3
 72
    10
 73
     6
 74
     0
 42
0.00000001
 43
0.00000001
 40
0.0
 40
0.0
 40
0.0
 40
0.0
 40
0.142857142857143
 40
0.2142857142857141
 40
1.0
 40
1.0
 40
1.0
 40
1.0
 10
58.34762246640755
 20
156.9942409789043
 30
0.0
 10
58.34460245502772
 20
156.9918691473652
 30
0.0
 10
58.33930029154065
 20
156.9877095340747
 30
0.0
 10
58.26659910943813
 20
156.930626826039
 30
0.0
 10
58.14811314961739
 20
156.8377769834006
 30
0.0
 10
58.13148873067659
 20
156.8248012414998
 30
0.0
  0
SPLINE
  5
1A3
330
1F
100
AcDbEntity
  8
0
  6
HIDDEN
 62
     7
370
    18
100
AcDbSpline
210
0.0
220
0.0
230
1.0
 70
     8
 71
     3
 72
     8
 73
     4
 74
     0
 42
0.00000001
 43
0.00000001
 40
0.0
 40
0.0
 40
0.0
 40
0.0
 40
1.0
 40
1.0
 40
1.0
 40
1.0
 10
58.13148873067659
 20
156.8248012414998
 30
0.0
 10
58.0027333220126
 20
156.7243046793582
 30
0.0
 10
57.87339445375536
 20
156.6241997867909
 30
0.0
 10
57.74411938664919
 20
156.5253472351072
 30
0.0
  0
SPLINE
  5
1A4
330
1F
100
AcDbEntity
  8
0
  6
HIDDEN
 62
     7
370
    18
100
AcDbSpline
210
0.0
220
0.0
230
1.0
 70
     8
 71
     3
 72
     8
 73
     4
 74
     0
 42
0.00000001
 43
0.00000001
 40
0.0
 40
0.0
 40
0.0
 40
0.0
 40
1.0
 40
1.0
 40
1.0
 40
1.0
 10
108.2558806133508
 20
156.5253472351071
 30
0.0
 10
108.1266057828903
 20
156.6241996058353
 30
0.0
 10
107.9972669301112
 20
156.7243044825699
 30
0.0
 10
107.8685112693713
 20
156.8248012414624
 30
0.0
  0
SPLINE
  5
1A5
330
1F
100
AcDbEntity
  8
0
  6
HIDDEN
 62
     7
370
    18
100
AcDbSpline
210
0.0
220
0.0
230
1.0
 70
     8
 71
     3
 72
    10
 73
     6
 74
     0
 42
0.00000001
 43
0.00000001
 40
0.0
 40
0.0
 40
0.0
 40
0.0
 40
0.7857142857142859
 40
0.857142857142857
 40
1.0
 40
1.0
 40
1.0
 40
1.0
 10
107.8685112693713
 20
156.8248012414624
 30
0.0
 10
107.8518868504314
 20
156.8377769833625
 30
0.0
 10
107.7334008905881
 20
156.9306268260356
 30
0.0
 10
107.6606997084607
 20
156.9877095340761
 30
0.0
 10
107.6553975449728
 20
156.9918691473659
 30
0.0
 10
107.6523775335925
 20
156.9942409789043
 30
0.0
  0
SPLINE
  5
1A6
330
1F
100
AcDbEntity
  8
0
  6
HIDDEN
 62
     7
370
    18
100
AcDbSpline
210
0.0
220
0.0
230
1.0
 70
     8
 71
     3
 72
     8
 73
     4
 74
     0
 42
0.00000001
 43
0.00000001
 40
0.33172696510342
 40
0.33172696510342
 40
0.33172696510342
 40
0.33172696510342
 40
0.405835683606075
 40
0.405835683606075
 40
0.405835683606075
 40
0.405835683606075
 10
57.74411938664919
 20
156.5253472351072
 30
0.0
 10
57.66960301885187
 20
156.4683669274279
 30
0.0
 10
57.59003536855992
 20
156.4140131171261
 30
0.0
 10
57.50593450948682
 20
156.3615687921414
 30
0.0
  0
SPLINE
  5
1A7
330
1F
100
AcDbEntity
  8
0
  6
HIDDEN
 62
     7
370
    18
100
AcDbSpline
210
0.0
220
0.0
230
1.0
 70
     8
 71
     3
 72
     8
 73
     4
 74
     0
 42
0.00000001
 43
0.00000001
 40
-0.405835683606081
 40
-0.405835683606081
 40
-0.405835683606081
 40
-0.405835683606081
 40
-0.33172696510343
 40
-0.33172696510343
 40
-0.33172696510343
 40
-0.33172696510343
 10
108.4940654905132
 20
156.3615687921414
 30
0.0
 10
108.4099646314401
 20
156.4140131171261
 30
0.0
 10
108.3303969811481
 20
156.4683669274279
 30
0.0
 10
108.2558806133508
 20
156.5253472351071
 30
0.0
  0
SPLINE
  5
1A8
330
1F
100
AcDbEntity
  8
0
  6
HIDDEN
 62
     7
370
    18
100
AcDbSpline
210
0.0
220
0.0
230
1.0
 70
     8
 71
     3
 72
     9
 73
     5
 74
     0
 42
0.00000001
 43
0.00000001
 40
-1.5707963267949
 40
-1.5707963267949
 40
-1.5707963267949
 40
-1.5707963267949
 40
-1.07152747971398
 40
-0.405835683606081
 40
-0.405835683606081
 40
-0.405835683606081
 40
-0.405835683606081
 10
115.6659848582036
 20
155.0731707317073
 30
0.0
 10
114.3866758159974
 20
155.0731707317073
 30
0.0
 10
111.396433872478
 20
155.2824680076998
 30
0.0
 10
109.2495130692515
 20
155.8904804020016
 30
0.0
 10
108.4940654905132
 20
156.3615687921414
 30
0.0
  0
SPLINE
  5
1A9
330
1F
100
AcDbEntity
  8
0
  6
HIDDEN
 62
     7
370
    18
100
AcDbSpline
210
0.0
220
0.0
230
1.0
 70
     8
 71
     3
 72
     9
 73
     5
 74
     0
 42
0.00000001
 43
0.00000001
 40
0.405835683606075
 40
0.405835683606075
 40
0.405835683606075
 40
0.405835683606075
 40
0.905104530686998
 40
1.5707963267949
 40
1.5707963267949
 40
1.5707963267949
 40
1.5707963267949
 10
57.50593450948682
 20
156.3615687921414
 30
0.0
 10
56.93934882543309
 20
156.0082524995366
 30
0.0
 10
55.01395130750747
 20
155.3499180674219
 30
0.0
 10
52.03976053140462
 20
155.0731707317073
 30
0.0
 10
50.33401514179634
 20
155.0731707317073
 30
0.0
  0
LINE
  5
1AA
330
1F
100
AcDbEntity
  8
0
  6
HIDDEN
 62
     7
370
    18
100
AcDbLine
 10
48.9783327349
 20
154.2601626016
 30
0.0
 11
48.5718286698
 21
153.8536585366
 31
0.0
  0
LINE
  5
1AB
330
1F
100
AcDbEntity
  8
0
  6
HIDDEN
 62
     7
370
    18
100
AcDbLine
 10
117.4281713302
 20
153.8536585366
 30
0.0
 11
117.0216672651
 21
154.2601626016
 31
0.0
  0
LINE
  5
1AC
330
1F
100
AcDbEntity
  8
0
  6
HIDDEN
 62
     7
370
    18
100
AcDbLine
 10
117.0216672651
 20
154.2601626016
 30
0.0
 11
117.0216672651
 21
158.081300813
 31
0.0
  0
LINE
  5
1AD
330
1F
100
AcDbEntity
  8
0
  6
HIDDEN
 62
     7
370
    18
100
AcDbLine
 10
48.9783327349
 20
158.081300813
 30
0.0
 11
48.9783327349
 21
154.2601626016
 31
0.0
  0
SPLINE
  5
1AE
330
1F
100
AcDbEntity
  8
0
  6
HIDDEN
 62
     7
370
    18
100
AcDbSpline
210
0.0
220
0.0
230
1.0
 70
     8
 71
     3
 72
    16
 73
    12
 74
     0
 42
0.00000001
 43
0.00000001
 40
0.0
 40
0.0
 40
0.0
 40
0.0
 40
0.0804361236275219
 40
0.1492431165327832
 40
0.2499262740258276
 40
0.3117150006506371
 40
0.382447342054658
 40
0.4855301439166371
 40
0.6200633791308129
 40
0.7909050026869
 40
1.0
 40
1.0
 40
1.0
 40
1.0
 10
117.0215811044326
 20
158.0813008130081
 30
0.0
 10
117.0142371678125
 20
158.1919358451453
 30
0.0
 10
117.0006110513444
 20
158.3972107421594
 30
0.0
 10
116.8964565863607
 20
158.7265316655305
 30
0.0
 10
116.7445540631349
 20
159.0077517927292
 30
0.0
 10
116.5396568881424
 20
159.2499119922508
 30
0.0
 10
116.3035445702032
 20
159.4680171960129
 30
0.0
 10
115.9539043614521
 20
159.7041780515522
 30
0.0
 10
115.4425928193776
 20
159.914792037996
 30
0.0
 10
114.7780004689547
 20
160.080740882171
 30
0.0
 10
114.2966244211078
 20
160.1020782778379
 30
0.0
 10
114.0317030686967
 20
160.1138211382114
 30
0.0
  0
SPLINE
  5
1AF
330
1F
100
AcDbEntity
  8
0
  6
HIDDEN
 62
     7
370
    18
100
AcDbSpline
210
0.0
220
0.0
230
1.0
 70
     8
 71
     3
 72
    17
 73
    13
 74
     0
 42
0.00000001
 43
0.00000001
 40
0.0
 40
0.0
 40
0.0
 40
0.0
 40
0.1823123495499276
 40
0.327153607290231
 40
0.4365841501131463
 40
0.5128183992408577
 40
0.5628259197862964
 40
0.6444252113961038
 40
0.7041869463753972
 40
0.7806581402641065
 40
0.8789222829543599
 40
1.0
 40
1.0
 40
1.0
 40
1.0
 10
51.96829693130338
 20
160.1138211382114
 30
0.0
 10
51.73812422323137
 20
160.1046882765884
 30
0.0
 10
51.32508675247628
 20
160.0882996521634
 30
0.0
 10
50.75939320000415
 20
159.9718618314686
 30
0.0
 10
50.33801856636082
 20
159.8289433975705
 30
0.0
 10
50.04926283082349
 20
159.6888572012695
 30
0.0
 10
49.80538715511346
 20
159.5417350461954
 30
0.0
 10
49.59809478668774
 20
159.3850170675986
 30
0.0
 10
49.3905117039548
 20
159.1743338431192
 30
0.0
 10
49.1997427880419
 20
158.9193323221601
 30
0.0
 10
49.02224193510846
 20
158.549998156308
 30
0.0
 10
48.99402840867213
 20
158.2480033418363
 30
0.0
 10
48.97845441210423
 20
158.0813008130081
 30
0.0
  0
LINE
  5
1B0
330
1F
100
AcDbEntity
  8
0
  6
HIDDEN
 62
     7
370
    18
100
AcDbLine
 10
88.2059750136
 20
154.2601626016
 30
0.0
 11
87.7994709485
 21
153.8536585366
 31
0.0
  0
LINE
  5
1B1
330
1F
100
AcDbEntity
  8
0
  6
HIDDEN
 62
     7
370
    18
100
AcDbLine
 10
78.2005290515
 20
153.8536585366
 30
0.0
 11
77.7940249864
 21
154.2601626016
 31
0.0
  0
SPLINE
  5
1B2
330
1F
100
AcDbEntity
  8
0
  6
HIDDEN
 62
     7
370
    18
100
AcDbSpline
210
0.0
220
0.0
230
1.0
 70
     8
 71
     3
 72
    16
 73
    12
 74
     0
 42
0.00000001
 43
0.00000001
 40
0.0
 40
0.0
 40
0.0
 40
0.0
 40
0.0804464228280943
 40
0.1492684167179317
 40
0.2499573668768035
 40
0.3117212650150971
 40
0.3824132595750527
 40
0.4854659201518102
 40
0.619995035101292
 40
0.7908771723102173
 40
1.0
 40
1.0
 40
1.0
 40
1.0
 10
77.79392038075518
 20
158.0813008130081
 30
0.0
 10
77.78659345578097
 20
158.1919568103329
 30
0.0
 10
77.77299833928153
 20
158.397279122256
 30
0.0
 10
77.66893955583727
 20
158.7267244379273
 30
0.0
 10
77.51705609549009
 20
159.0080525161339
 30
0.0
 10
77.31228851491278
 20
159.2500323566011
 30
0.0
 10
77.07636170382108
 20
159.4680291912582
 30
0.0
 10
76.72685212572554
 20
159.7042365092121
 30
0.0
 10
76.21546712950521
 20
159.9149002909109
 30
0.0
 10
75.5506016683001
 20
160.0807552221943
 30
0.0
 10
75.06906057682671
 20
160.102083722417
 30
0.0
 10
74.80406078998293
 20
160.1138211382114
 30
0.0
  0
SPLINE
  5
1B3
330
1F
100
AcDbEntity
  8
0
  6
HIDDEN
 62
     7
370
    18
100
AcDbSpline
210
0.0
220
0.0
230
1.0
 70
     8
 71
     3
 72
    17
 73
    13
 74
     0
 42
0.00000001
 43
0.00000001
 40
0.0
 40
0.0
 40
0.0
 40
0.0
 40
0.1841104960412772
 40
0.3299072026414644
 40
0.4395844782027179
 40
0.5153509276442511
 40
0.5642367002802495
 40
0.6449463759269746
 40
0.7044153258454271
 40
0.7806913472956637
 40
0.8788675367560406
 40
1.0
 40
1.0
 40
1.0
 40
1.0
 10
91.19593921001707
 20
160.1138211382114
 30
0.0
 10
90.96348375512338
 20
160.1045230534322
 30
0.0
 10
90.54694732449241
 20
160.0878618352759
 30
0.0
 10
89.97745929887897
 20
159.9695446911225
 30
0.0
 10
89.55552317402712
 20
159.8248212977416
 30
0.0
 10
89.2688300027511
 20
159.6844818890594
 30
0.0
 10
89.02815546940832
 20
159.5383612137205
 30
0.0
 10
88.8236334524156
 20
159.3831115086468
 30
0.0
 10
88.61748067716461
 20
159.1735859664107
 30
0.0
 10
88.42718372512917
 20
158.9191582987919
 30
0.0
 10
88.24979957926277
 20
158.5500702023299
 30
0.0
 10
88.22159793438358
 20
158.2480938005818
 30
0.0
 10
88.20602109931747
 20
158.0813008130081
 30
0.0
  0
LINE
  5
1B4
330
1F
100
AcDbEntity
  8
0
  6
HIDDEN
 62
     7
370
    18
100
AcDbLine
 10
77.7940249864
 20
154.2601626016
 30
0.0
 11
77.7940249864
 21
158.081300813
 31
0.0
  0
LINE
  5
1B5
330
1F
100
AcDbEntity
  8
0
  6
HIDDEN
 62
     7
370
    18
100
AcDbLine
 10
88.2059750136
 20
158.081300813
 30
0.0
 11
88.2059750136
 21
154.2601626016
 31
0.0
  0
LINE
  5
1B6
330
1F
100
AcDbEntity
  8
0
  6
Continuous
 62
     7
370
    25
100
AcDbLine
 10
220.0731707317
 20
24.8861788618
 30
0.0
 11
220.4796747967
 21
25.2926829268
 31
0.0
  0
LINE
  5
1B7
330
1F
100
AcDbEntity
  8
0
  6
Continuous
 62
     7
370
    25
100
AcDbLine
 10
219.2601626016
 20
24.8861788618
 30
0.0
 11
220.0731707317
 21
24.8861788618
 31
0.0
  0
LINE
  5
1B8
330
1F
100
AcDbEntity
  8
0
  6
Continuous
 62
     7
370
    25
100
AcDbLine
 10
220.4796747967
 20
88.7073170732
 30
0.0
 11
220.0731707317
 21
89.1138211382
 31
0.0
  0
LINE
  5
1B9
330
1F
100
AcDbEntity
  8
0
  6
Continuous
 62
     7
370
    25
100
AcDbLine
 10
220.0731707317
 20
89.1138211382
 30
0.0
 11
219.2601626016
 21
89.1138211382
 31
0.0
  0
LINE
  5
1BA
330
1F
100
AcDbEntity
  8
0
  6
Continuous
 62
     7
370
    25
100
AcDbLine
 10
218.8536585366
 20
25.2926829268
 30
0.0
 11
219.2601626016
 21
24.8861788618
 31
0.0
  0
LINE
  5
1BB
330
1F
100
AcDbEntity
  8
0
  6
Continuous
 62
     7
370
    25
100
AcDbLine
 10
219.2601626016
 20
89.1138211382
 30
0.0
 11
218.8536585366
 21
88.7073170732
 31
0.0
  0
LINE
  5
1BC
330
1F
100
AcDbEntity
  8
0
  6
Continuous
 62
     7
370
    25
100
AcDbLine
 10
220.0731707317
 20
28.1382113821
 30
0.0
 11
220.0731707317
 21
24.8861788618
 31
0.0
  0
LINE
  5
1BD
330
1F
100
AcDbEntity
  8
0
  6
Continuous
 62
     7
370
    25
100
AcDbLine
 10
220.4796747967
 20
25.2926829268
 30
0.0
 11
220.4796747967
 21
28.1382113821
 31
0.0
  0
LINE
  5
1BE
330
1F
100
AcDbEntity
  8
0
  6
Continuous
 62
     7
370
    25
100
AcDbLine
 10
220.0731707317
 20
81.7967479675
 30
0.0
 11
220.0731707317
 21
80.1707317073
 31
0.0
  0
LINE
  5
1BF
330
1F
100
AcDbEntity
  8
0
  6
Continuous
 62
     7
370
    25
100
AcDbLine
 10
220.4796747967
 20
80.3739837398
 30
0.0
 11
220.4796747967
 21
81.7967479675
 31
0.0
  0
LINE
  5
1C0
330
1F
100
AcDbEntity
  8
0
  6
Continuous
 62
     7
370
    25
100
AcDbLine
 10
220.0731707317
 20
33.8292682927
 30
0.0
 11
220.0731707317
 21
32.2032520325
 31
0.0
  0
LINE
  5
1C1
330
1F
100
AcDbEntity
  8
0
  6
Continuous
 62
     7
370
    25
100
AcDbLine
 10
219.2601626016
 20
32.2032520325
 30
0.0
 11
219.2601626016
 21
33.8292682927
 31
0.0
  0
LINE
  5
1C2
330
1F
100
AcDbEntity
  8
0
  6
Continuous
 62
     7
370
    25
100
AcDbLine
 10
220.0731707317
 20
32.2032520325
 30
0.0
 11
220.0731707317
 21
28.1382113821
 31
0.0
  0
LINE
  5
1C3
330
1F
100
AcDbEntity
  8
0
  6
Continuous
 62
     7
370
    25
100
AcDbLine
 10
219.2601626016
 20
28.1382113821
 30
0.0
 11
219.2601626016
 21
32.2032520325
 31
0.0
  0
LINE
  5
1C4
330
1F
100
AcDbEntity
  8
0
  6
Continuous
 62
     7
370
    25
100
AcDbLine
 10
219.2601626016
 20
24.8861788618
 30
0.0
 11
219.2601626016
 21
28.1382113821
 31
0.0
  0
LINE
  5
1C5
330
1F
100
AcDbEntity
  8
0
  6
Continuous
 62
     7
370
    25
100
AcDbLine
 10
219.2601626016
 20
80.1707317073
 30
0.0
 11
219.2601626016
 21
81.7967479675
 31
0.0
  0
LINE
  5
1C6
330
1F
100
AcDbEntity
  8
0
  6
Continuous
 62
     7
370
    25
100
AcDbLine
 10
220.0731707317
 20
89.1138211382
 30
0.0
 11
220.0731707317
 21
85.8617886179
 31
0.0
  0
LINE
  5
1C7
330
1F
100
AcDbEntity
  8
0
  6
Continuous
 62
     7
370
    25
100
AcDbLine
 10
220.4796747967
 20
85.8617886179
 30
0.0
 11
220.4796747967
 21
88.7073170732
 31
0.0
  0
LINE
  5
1C8
330
1F
100
AcDbEntity
  8
0
  6
Continuous
 62
     7
370
    25
100
AcDbLine
 10
220.0731707317
 20
85.8617886179
 30
0.0
 11
220.0731707317
 21
81.7967479675
 31
0.0
  0
LINE
  5
1C9
330
1F
100
AcDbEntity
  8
0
  6
Continuous
 62
     7
370
    25
100
AcDbLine
 10
220.4796747967
 20
81.7967479675
 30
0.0
 11
220.4796747967
 21
85.8617886179
 31
0.0
  0
LINE
  5
1CA
330
1F
100
AcDbEntity
  8
0
  6
Continuous
 62
     7
370
    25
100
AcDbLine
 10
220.4796747967
 20
28.1382113821
 30
0.0
 11
220.4796747967
 21
32.2032520325
 31
0.0
  0
LINE
  5
1CB
330
1F
100
AcDbEntity
  8
0
  6
Continuous
 62
     7
370
    25
100
AcDbLine
 10
219.2601626016
 20
85.8617886179
 30
0.0
 11
219.2601626016
 21
89.1138211382
 31
0.0
  0
LINE
  5
1CC
330
1F
100
AcDbEntity
  8
0
  6
Continuous
 62
     7
370
    25
100
AcDbLine
 10
219.2601626016
 20
81.7967479675
 30
0.0
 11
219.2601626016
 21
85.8617886179
 31
0.0
  0
LINE
  5
1CD
330
1F
100
AcDbEntity
  8
0
  6
Continuous
 62
     7
370
    25
100
AcDbLine
 10
220.4796747967
 20
32.2032520325
 30
0.0
 11
220.4796747967
 21
33.6260162602
 31
0.0
  0
LINE
  5
1CE
330
1F
100
AcDbEntity
  8
0
  6
Continuous
 62
     7
370
    25
100
AcDbLine
 10
218.8536585366
 20
81.7967479675
 30
0.0
 11
218.8536585366
 21
80.3739837398
 31
0.0
  0
LINE
  5
1CF
330
1F
100
AcDbEntity
  8
0
  6
Continuous
 62
     7
370
    25
100
AcDbLine
 10
218.8536585366
 20
32.2032520325
 30
0.0
 11
218.8536585366
 21
28.1382113821
 31
0.0
  0
LINE
  5
1D0
330
1F
100
AcDbEntity
  8
0
  6
Continuous
 62
     7
370
    25
100
AcDbLine
 10
218.8536585366
 20
85.8617886179
 30
0.0
 11
218.8536585366
 21
81.7967479675
 31
0.0
  0
LINE
  5
1D1
330
1F
100
AcDbEntity
  8
0
  6
Continuous
 62
     7
370
    25
100
AcDbLine
 10
218.8536585366
 20
33.6260162602
 30
0.0
 11
218.8536585366
 21
32.2032520325
 31
0.0
  0
LINE
  5
1D2
330
1F
100
AcDbEntity
  8
0
  6
Continuous
 62
     7
370
    25
100
AcDbLine
 10
218.8536585366
 20
28.1382113821
 30
0.0
 11
218.8536585366
 21
25.2926829268
 31
0.0
  0
LINE
  5
1D3
330
1F
100
AcDbEntity
  8
0
  6
Continuous
 62
     7
370
    25
100
AcDbLine
 10
218.8536585366
 20
88.7073170732
 30
0.0
 11
218.8536585366
 21
85.8617886179
 31
0.0
  0
LINE
  5
1D4
330
1F
100
AcDbEntity
  8
0
  6
Continuous
 62
     7
370
    25
100
AcDbLine
 10
220.0731707317
 20
44.7863750699
 30
0.0
 11
220.0731707317
 21
33.8292682927
 31
0.0
  0
LINE
  5
1D5
330
1F
100
AcDbEntity
  8
0
  6
Continuous
 62
     7
370
    25
100
AcDbLine
 10
220.4796747967
 20
33.6260162602
 30
0.0
 11
220.4796747967
 21
44.5831230374
 31
0.0
  0
LINE
  5
1D6
330
1F
100
AcDbEntity
  8
0
  6
Continuous
 62
     7
370
    25
100
AcDbLine
 10
220.0731707317
 20
80.1707317073
 30
0.0
 11
220.0731707317
 21
69.2136249301
 31
0.0
  0
LINE
  5
1D7
330
1F
100
AcDbEntity
  8
0
  6
Continuous
 62
     7
370
    25
100
AcDbLine
 10
220.4796747967
 20
69.4168769626
 30
0.0
 11
220.4796747967
 21
80.3739837398
 31
0.0
  0
LINE
  5
1D8
330
1F
100
AcDbEntity
  8
0
  6
Continuous
 62
     7
370
    25
100
AcDbLine
 10
220.0731707317
 20
69.2136249301
 30
0.0
 11
220.0731707317
 21
68.6038688326
 31
0.0
  0
SPLINE
  5
1D9
330
1F
100
AcDbEntity
  8
0
  6
Continuous
 62
     7
370
    25
100
AcDbSpline
210
0.0
220
0.0
230
1.0
 70
     8
 71
     3
 72
     8
 73
     4
 74
     0
 42
0.00000001
 43
0.00000001
 40
-1.5707963267949
 40
-1.5707963267949
 40
-1.5707963267949
 40
-1.5707963267949
 40
-0.7411450550418971
 40
-0.7411450550418971
 40
-0.7411450550418971
 40
-0.7411450550418971
 10
220.0731707317073
 20
68.60386883255359
 30
0.0
 10
220.0731707317073
 20
67.58161404732122
 30
0.0
 10
220.3230485810562
 20
66.56754897664683
 30
0.0
 10
220.7832372787001
 20
65.8380771344661
 30
0.0
  0
LINE
  5
1DA
330
1F
100
AcDbEntity
  8
0
  6
Continuous
 62
     7
370
    25
100
AcDbLine
 10
219.2601626016
 20
65.8380771345
 30
0.0
 11
219.2601626016
 21
80.1707317073
 31
0.0
  0
SPLINE
  5
1DB
330
1F
100
AcDbEntity
  8
0
  6
Continuous
 62
     7
370
    25
100
AcDbSpline
210
0.0
220
0.0
230
1.0
 70
     8
 71
     3
 72
     8
 73
     4
 74
     0
 42
0.00000001
 43
0.00000001
 40
0.7411450550421661
 40
0.7411450550421661
 40
0.7411450550421661
 40
0.7411450550421661
 40
1.5707963267949
 40
1.5707963267949
 40
1.5707963267949
 40
1.5707963267949
 10
220.7832372786997
 20
48.16192286552634
 30
0.0
 10
220.323048581056
 20
47.43245102334603
 30
0.0
 10
220.0731707317073
 20
46.41838595267244
 30
0.0
 10
220.0731707317073
 20
45.39613116744082
 30
0.0
  0
LINE
  5
1DC
330
1F
100
AcDbEntity
  8
0
  6
Continuous
 62
     7
370
    25
100
AcDbLine
 10
220.0731707317
 20
45.3961311674
 30
0.0
 11
220.0731707317
 21
44.7863750699
 31
0.0
  0
LINE
  5
1DD
330
1F
100
AcDbEntity
  8
0
  6
Continuous
 62
     7
370
    25
100
AcDbLine
 10
219.2601626016
 20
33.8292682927
 30
0.0
 11
219.2601626016
 21
48.1619228655
 31
0.0
  0
LINE
  5
1DE
330
1F
100
AcDbEntity
  8
0
  6
Continuous
 62
     7
370
    25
100
AcDbLine
 10
218.8536585366
 20
47.958670833
 30
0.0
 11
218.8536585366
 21
33.6260162602
 31
0.0
  0
LINE
  5
1DF
330
1F
100
AcDbEntity
  8
0
  6
Continuous
 62
     7
370
    25
100
AcDbLine
 10
218.8536585366
 20
80.3739837398
 30
0.0
 11
218.8536585366
 21
66.041329167
 31
0.0
  0
SPLINE
  5
1E0
330
1F
100
AcDbEntity
  8
0
  6
Continuous
 62
     7
370
    25
100
AcDbSpline
210
0.0
220
0.0
230
1.0
 70
     8
 71
     3
 72
     8
 73
     4
 74
     0
 42
0.00000001
 43
0.00000001
 40
0.0
 40
0.0
 40
0.0
 40
0.0
 40
1.0
 40
1.0
 40
1.0
 40
1.0
 10
220.5102199816377
 20
68.80654625271586
 30
0.0
 10
220.4898758053766
 20
69.01056479467879
 30
0.0
 10
220.479674796748
 20
69.21362493011472
 30
0.0
 10
220.479674796748
 20
69.41687696263521
 30
0.0
  0
SPLINE
  5
1E1
330
1F
100
AcDbEntity
  8
0
  6
Continuous
 62
     7
370
    25
100
AcDbSpline
210
0.0
220
0.0
230
1.0
 70
     8
 71
     3
 72
     8
 73
     4
 74
     0
 42
0.00000001
 43
0.00000001
 40
0.0
 40
0.0
 40
0.0
 40
0.0
 40
1.0
 40
1.0
 40
1.0
 40
1.0
 10
220.479674796748
 20
44.58312303735951
 30
0.0
 10
220.479674796748
 20
44.78637506987984
 30
0.0
 10
220.4898758053766
 20
44.98943520531569
 30
0.0
 10
220.5102199816377
 20
45.19345374727845
 30
0.0
  0
SPLINE
  5
1E2
330
1F
100
AcDbEntity
  8
0
  6
Continuous
 62
     7
370
    25
100
AcDbSpline
210
0.0
220
0.0
230
1.0
 70
     8
 71
     3
 72
     8
 73
     4
 74
     0
 42
0.00000001
 43
0.00000001
 40
0.071841560157876
 40
0.071841560157876
 40
0.071841560157876
 40
0.071841560157876
 40
0.25920372597184
 40
0.25920372597184
 40
0.25920372597184
 40
0.25920372597184
 10
222.4615240000985
 20
64.93019839553936
 30
0.0
 10
222.1412330605751
 20
65.33068451001758
 30
0.0
 10
221.8117691347907
 20
65.7315855741083
 30
0.0
 10
221.5013409701408
 20
66.11502140048424
 30
0.0
  0
SPLINE
  5
1E3
330
1F
100
AcDbEntity
  8
0
  6
Continuous
 62
     7
370
    25
100
AcDbSpline
210
0.0
220
0.0
230
1.0
 70
     8
 71
     3
 72
     8
 73
     4
 74
     0
 42
0.00000001
 43
0.00000001
 40
0.0
 40
0.0
 40
0.0
 40
0.0
 40
1.0
 40
1.0
 40
1.0
 40
1.0
 10
221.5013409701408
 20
66.11502140048424
 30
0.0
 10
221.4615756384892
 20
66.16413889219163
 30
0.0
 10
221.4221876197525
 20
66.21605746545163
 30
0.0
 10
221.3833875367154
 20
66.2706166131518
 30
0.0
  0
SPLINE
  5
1E4
330
1F
100
AcDbEntity
  8
0
  6
Continuous
 62
     7
370
    25
100
AcDbSpline
210
0.0
220
0.0
230
1.0
 70
     8
 71
     3
 72
    10
 73
     6
 74
     0
 42
0.00000001
 43
0.00000001
 40
0.0
 40
0.0
 40
0.0
 40
0.0
 40
0.5
 40
0.5
 40
1.0
 40
1.0
 40
1.0
 40
1.0
 10
221.3833875367154
 20
66.27061661315177
 30
0.0
 10
221.1098621972613
 20
66.65523716617335
 30
0.0
 10
220.9182871785665
 20
67.0731051527732
 30
0.0
 10
220.6409409971429
 20
67.92971166460542
 30
0.0
 10
220.5538477306647
 20
68.36903186867967
 30
0.0
 10
220.5102199816377
 20
68.80654625271586
 30
0.0
  0
SPLINE
  5
1E5
330
1F
100
AcDbEntity
  8
0
  6
Continuous
 62
     7
370
    25
100
AcDbSpline
210
0.0
220
0.0
230
1.0
 70
     8
 71
     3
 72
    10
 73
     6
 74
     0
 42
0.00000001
 43
0.00000001
 40
0.0
 40
0.0
 40
0.0
 40
0.0
 40
0.5
 40
0.5
 40
1.0
 40
1.0
 40
1.0
 40
1.0
 10
220.5102199816377
 20
45.19345374727845
 30
0.0
 10
220.5538586275081
 20
45.63107740868517
 30
0.0
 10
220.6401591000979
 20
46.06753578517512
 30
0.0
 10
220.9182807998476
 20
46.92721178763571
 30
0.0
 10
221.1098378759221
 20
47.34472863411126
 30
0.0
 10
221.3833875367147
 20
47.72938338684074
 30
0.0
  0
SPLINE
  5
1E6
330
1F
100
AcDbEntity
  8
0
  6
Continuous
 62
     7
370
    25
100
AcDbSpline
210
0.0
220
0.0
230
1.0
 70
     8
 71
     3
 72
     8
 73
     4
 74
     0
 42
0.00000001
 43
0.00000001
 40
0.0
 40
0.0
 40
0.0
 40
0.0
 40
1.0
 40
1.0
 40
1.0
 40
1.0
 10
221.383387536715
 20
47.72938338684066
 30
0.0
 10
221.422187619752
 20
47.78394253454078
 30
0.0
 10
221.4615756384887
 20
47.83586110780082
 30
0.0
 10
221.5013409701403
 20
47.88497859950822
 30
0.0
  0
SPLINE
  5
1E7
330
1F
100
AcDbEntity
  8
0
  6
Continuous
 62
     7
370
    25
100
AcDbSpline
210
0.0
220
0.0
230
1.0
 70
     8
 71
     3
 72
     8
 73
     4
 74
     0
 42
0.00000001
 43
0.00000001
 40
0.0
 40
0.0
 40
0.0
 40
0.0
 40
0.186935196336303
 40
0.186935196336303
 40
0.186935196336303
 40
0.186935196336303
 10
221.5013409701403
 20
47.88497859950821
 30
0.0
 10
221.8117691348087
 20
48.26841442590694
 30
0.0
 10
222.1412330606137
 20
48.6693154900225
 30
0.0
 10
222.4615240001554
 20
49.06980160452481
 30
0.0
  0
ARC
  5
1E8
330
1F
100
AcDbEntity
  8
0
  6
Continuous
 62
     7
370
    25
100
AcDbCircle
 10
222.512195122
 20
28.5447154472
 30
0.0
 40
2.032520325203279
100
AcDbArc
 50
90.0
 51
180.0
  0
ARC
  5
1E9
330
1F
100
AcDbEntity
  8
0
  6
Continuous
 62
     7
370
    25
100
AcDbCircle
 10
222.512195122
 20
80.9837398374
 30
0.0
 40
2.032520325203279
100
AcDbArc
 50
180.0
 51
270.0
  0
SPLINE
  5
1EA
330
1F
100
AcDbEntity
  8
0
  6
Continuous
 62
     7
370
    25
100
AcDbSpline
210
0.0
220
0.0
230
1.0
 70
     8
 71
     3
 72
    10
 73
     6
 74
     0
 42
0.00000001
 43
0.00000001
 40
0.0
 40
0.0
 40
0.0
 40
0.0
 40
0.5
 40
0.5
 40
1.0
 40
1.0
 40
1.0
 40
1.0
 10
221.8247825597483
 20
49.57178145503167
 30
0.0
 10
221.6644418711823
 20
49.36635400493603
 30
0.0
 10
221.504665709434
 20
49.16212439390324
 30
0.0
 10
221.1981453662056
 20
48.75380905232052
 30
0.0
 10
221.051509001749
 20
48.55204280869855
 30
0.0
 10
220.911590051772
 20
48.354244861822
 30
0.0
  0
SPLINE
  5
1EB
330
1F
100
AcDbEntity
  8
0
  6
Continuous
 62
     7
370
    25
100
AcDbSpline
210
0.0
220
0.0
230
1.0
 70
     8
 71
     3
 72
    10
 73
     6
 74
     0
 42
0.00000001
 43
0.00000001
 40
0.0
 40
0.0
 40
0.0
 40
0.0
 40
0.5
 40
0.5
 40
1.0
 40
1.0
 40
1.0
 40
1.0
 10
220.9115900517726
 20
65.64575513817047
 30
0.0
 10
221.0514721412264
 20
65.44800929957371
 30
0.0
 10
221.198797147957
 20
65.24530501734942
 30
0.0
 10
221.5053172854941
 20
64.83702541060228
 30
0.0
 10
221.6644842388132
 20
64.6335917139246
 30
0.0
 10
221.8247825596916
 20
64.42821854503278
 30
0.0
  0
SPLINE
  5
1EC
330
1F
100
AcDbEntity
  8
0
  6
Continuous
 62
     7
370
    25
100
AcDbSpline
210
0.0
220
0.0
230
1.0
 70
     8
 71
     3
 72
    10
 73
     6
 74
     0
 42
0.00000001
 43
0.00000001
 40
0.0
 40
0.0
 40
0.0
 40
0.0
 40
0.142857142857143
 40
0.2142857142857141
 40
1.0
 40
1.0
 40
1.0
 40
1.0
 10
221.9942409789043
 20
49.78793912569013
 30
0.0
 10
221.9918693005874
 20
49.78491882212388
 30
0.0
 10
221.9877089461015
 20
49.77961513461388
 30
0.0
 10
221.9306212129493
 20
49.70690121350168
 30
0.0
 10
221.8377585386561
 20
49.58840619503722
 30
0.0
 10
221.8247825597477
 20
49.57178145503211
 30
0.0
  0
SPLINE
  5
1ED
330
1F
100
AcDbEntity
  8
0
  6
Continuous
 62
     7
370
    25
100
AcDbSpline
210
0.0
220
0.0
230
1.0
 70
     8
 71
     3
 72
     8
 73
     4
 74
     0
 42
0.00000001
 43
0.00000001
 40
0.0
 40
0.0
 40
0.0
 40
0.0
 40
1.0
 40
1.0
 40
1.0
 40
1.0
 10
220.911590051772
 20
48.35424486182201
 30
0.0
 10
220.8670796879537
 20
48.29132230144358
 30
0.0
 10
220.8243275902055
 20
48.22705750569326
 30
0.0
 10
220.7832372786997
 20
48.16192286552634
 30
0.0
  0
LINE
  5
1EE
330
1F
100
AcDbEntity
  8
0
  6
Continuous
 62
     7
370
    25
100
AcDbLine
 10
219.2601626016
 20
48.1619228655
 30
0.0
 11
219.2601626016
 21
49.7879391257
 31
0.0
  0
SPLINE
  5
1EF
330
1F
100
AcDbEntity
  8
0
  6
Continuous
 62
     7
370
    25
100
AcDbSpline
210
0.0
220
0.0
230
1.0
 70
     8
 71
     3
 72
     8
 73
     4
 74
     0
 42
0.00000001
 43
0.00000001
 40
0.0
 40
0.0
 40
0.0
 40
0.0
 40
1.0
 40
1.0
 40
1.0
 40
1.0
 10
220.7832372787001
 20
65.8380771344661
 30
0.0
 10
220.8243275902059
 20
65.7729424942992
 30
0.0
 10
220.8670796879541
 20
65.70867769854887
 30
0.0
 10
220.9115900517725
 20
65.64575513817041
 30
0.0
  0
SPLINE
  5
1F0
330
1F
100
AcDbEntity
  8
0
  6
Continuous
 62
     7
370
    25
100
AcDbSpline
210
0.0
220
0.0
230
1.0
 70
     8
 71
     3
 72
    10
 73
     6
 74
     0
 42
0.00000001
 43
0.00000001
 40
0.0
 40
0.0
 40
0.0
 40
0.0
 40
0.7857142857142859
 40
0.857142857142857
 40
1.0
 40
1.0
 40
1.0
 40
1.0
 10
221.8247825596916
 20
64.42821854503278
 30
0.0
 10
221.8377585386043
 20
64.41159380502212
 30
0.0
 10
221.9306244973975
 20
64.29309471767651
 30
0.0
 10
221.9877101598303
 20
64.22038332345188
 30
0.0
 10
221.9918693005866
 20
64.21508117787018
 30
0.0
 10
221.9942409789043
 20
64.21206087430294
 30
0.0
  0
LINE
  5
1F1
330
1F
100
AcDbEntity
  8
0
  6
Continuous
 62
     7
370
    25
100
AcDbLine
 10
219.2601626016
 20
64.2120608743
 30
0.0
 11
219.2601626016
 21
65.8380771345
 31
0.0
  0
LINE
  5
1F2
330
1F
100
AcDbEntity
  8
0
  6
Continuous
 62
     7
370
    25
100
AcDbLine
 10
218.8536585366
 20
49.7879391257
 30
0.0
 11
218.8536585366
 21
47.958670833
 31
0.0
  0
LINE
  5
1F3
330
1F
100
AcDbEntity
  8
0
  6
Continuous
 62
     7
370
    25
100
AcDbLine
 10
218.8536585366
 20
66.041329167
 30
0.0
 11
218.8536585366
 21
64.2120608743
 31
0.0
  0
LINE
  5
1F4
330
1F
100
AcDbEntity
  8
0
  6
Continuous
 62
     7
370
    25
100
AcDbLine
 10
226.1707317073
 20
35.0487804878
 30
0.0
 11
226.1707317073
 21
74.4796747967
 31
0.0
  0
LINE
  5
1F5
330
1F
100
AcDbEntity
  8
0
  6
Continuous
 62
     7
370
    25
100
AcDbLine
 10
219.2601626016
 20
49.7879391257
 30
0.0
 11
219.2601626016
 21
64.2120608743
 31
0.0
  0
LINE
  5
1F6
330
1F
100
AcDbEntity
  8
0
  6
Continuous
 62
     7
370
    25
100
AcDbLine
 10
226.1707317073
 20
30.5772357724
 30
0.0
 11
226.1707317073
 21
35.0487804878
 31
0.0
  0
LINE
  5
1F7
330
1F
100
AcDbEntity
  8
0
  6
Continuous
 62
     7
370
    25
100
AcDbLine
 10
226.1707317073
 20
30.5772357724
 30
0.0
 11
222.512195122
 21
30.5772357724
 31
0.0
  0
LINE
  5
1F8
330
1F
100
AcDbEntity
  8
0
  6
Continuous
 62
     7
370
    25
100
AcDbLine
 10
226.1707317073
 20
78.9512195122
 30
0.0
 11
222.512195122
 21
78.9512195122
 31
0.0
  0
LINE
  5
1F9
330
1F
100
AcDbEntity
  8
0
  6
Continuous
 62
     7
370
    25
100
AcDbLine
 10
226.1707317073
 20
74.4796747967
 30
0.0
 11
226.1707317073
 21
78.9512195122
 31
0.0
  0
LINE
  5
1FA
330
1F
100
AcDbEntity
  8
0
  6
Continuous
 62
     7
370
    25
100
AcDbLine
 10
218.8536585366
 20
64.2120608743
 30
0.0
 11
218.8536585366
 21
49.7879391257
 31
0.0
  0
LINE
  5
1FB
330
1F
100
AcDbEntity
  8
0
  6
Continuous
 62
     7
370
    25
100
AcDbLine
 10
227.1463414634
 20
74.4796747967
 30
0.0
 11
227.1463414634
 21
35.0487804878
 31
0.0
  0
LINE
  5
1FC
330
1F
100
AcDbEntity
  8
0
  6
Continuous
 62
     7
370
    25
100
AcDbLine
 10
227.1463414634
 20
35.0487804878
 30
0.0
 11
227.1463414634
 21
32.6097560976
 31
0.0
  0
LINE
  5
1FD
330
1F
100
AcDbEntity
  8
0
  6
Continuous
 62
     7
370
    25
100
AcDbLine
 10
226.1707317073
 20
32.6097560976
 30
0.0
 11
227.1463414634
 21
32.6097560976
 31
0.0
  0
LINE
  5
1FE
330
1F
100
AcDbEntity
  8
0
  6
Continuous
 62
     7
370
    25
100
AcDbLine
 10
226.1707317073
 20
76.918699187
 30
0.0
 11
227.1463414634
 21
76.918699187
 31
0.0
  0
LINE
  5
1FF
330
1F
100
AcDbEntity
  8
0
  6
Continuous
 62
     7
370
    25
100
AcDbLine
 10
227.1463414634
 20
76.918699187
 30
0.0
 11
227.1463414634
 21
74.4796747967
 31
0.0
  0
SPLINE
  5
200
330
1F
100
AcDbEntity
  8
0
  6
Continuous
 62
     7
370
    25
100
AcDbSpline
210
0.0
220
0.0
230
1.0
 70
     8
 71
     3
 72
     8
 73
     4
 74
     0
 42
0.00000001
 43
0.00000001
 40
0.0
 40
0.0
 40
0.0
 40
0.0
 40
1.0
 40
1.0
 40
1.0
 40
1.0
 10
222.4615429487901
 20
78.9518507583101
 30
0.0
 10
222.3596107881024
 20
78.95439178552806
 30
0.0
 10
222.2569573124401
 20
78.96462128984018
 30
0.0
 10
222.1544336429725
 20
78.98295359281269
 30
0.0
  0
SPLINE
  5
201
330
1F
100
AcDbEntity
  8
0
  6
Continuous
 62
     7
370
    25
100
AcDbSpline
210
0.0
220
0.0
230
1.0
 70
     8
 71
     3
 72
     8
 73
     4
 74
     0
 42
0.00000001
 43
0.00000001
 40
0.0
 40
0.0
 40
0.0
 40
0.0
 40
1.0
 40
1.0
 40
1.0
 40
1.0
 10
222.1544336429725
 20
78.98295359281269
 30
0.0
 10
222.1139813754557
 20
78.99018688077335
 30
0.0
 10
222.071929150945
 20
78.99898558502586
 30
0.0
 10
222.0290942275521
 20
79.00946721230449
 30
0.0
  0
SPLINE
  5
202
330
1F
100
AcDbEntity
  8
0
  6
Continuous
 62
     7
370
    25
100
AcDbSpline
210
0.0
220
0.0
230
1.0
 70
     8
 71
     3
 72
     8
 73
     4
 74
     0
 42
0.00000001
 43
0.00000001
 40
0.0
 40
0.0
 40
0.0
 40
0.0
 40
1.0
 40
1.0
 40
1.0
 40
1.0
 10
222.1544336429725
 20
30.54550169174016
 30
0.0
 10
222.2569573124401
 20
30.56383399471268
 30
0.0
 10
222.3596107881024
 20
30.5740634990248
 30
0.0
 10
222.4615429487901
 20
30.57660452624276
 30
0.0
  0
SPLINE
  5
203
330
1F
100
AcDbEntity
  8
0
  6
Continuous
 62
     7
370
    25
100
AcDbSpline
210
0.0
220
0.0
230
1.0
 70
     8
 71
     3
 72
     8
 73
     4
 74
     0
 42
0.00000001
 43
0.00000001
 40
0.0
 40
0.0
 40
0.0
 40
0.0
 40
1.0
 40
1.0
 40
1.0
 40
1.0
 10
222.0290942275521
 20
30.51898807224837
 30
0.0
 10
222.071929150945
 20
30.52946969952699
 30
0.0
 10
222.1139813754557
 20
30.53826840377951
 30
0.0
 10
222.1544336429725
 20
30.54550169174016
 30
0.0
  0
LINE
  5
204
330
1F
100
AcDbEntity
  8
0
  6
HIDDEN
 62
     7
370
    18
100
AcDbLine
 10
218.8536585366
 20
33.4227642276
 30
0.0
 11
219.2601626016
 21
33.8292682927
 31
0.0
  0
LINE
  5
205
330
1F
100
AcDbEntity
  8
0
  6
HIDDEN
 62
     7
370
    18
100
AcDbLine
 10
225.1138211382
 20
67.7198241854
 30
0.0
 11
225.1138211382
 21
35.8617886179
 31
0.0
  0
SPLINE
  5
206
330
1F
100
AcDbEntity
  8
0
  6
HIDDEN
 62
     7
370
    18
100
AcDbSpline
210
0.0
220
0.0
230
1.0
 70
     8
 71
     3
 72
    10
 73
     6
 74
     0
 42
0.00000001
 43
0.00000001
 40
0.0
 40
0.0
 40
0.0
 40
0.0
 40
0.224399475256414
 40
0.673198425769241
 40
1.5707963267949
 40
1.5707963267949
 40
1.5707963267949
 40
1.5707963267949
 10
223.0813008130081
 20
35.04878048780488
 30
0.0
 10
223.233332977816
 20
35.04878048780488
 30
0.0
 10
223.6876420178191
 20
35.069502040947
 30
0.0
 10
224.6772078573565
 20
35.2576647011422
 30
0.0
 10
225.1138211382114
 20
35.61853715419358
 30
0.0
 10
225.1138211382114
 20
35.86178861788618
 30
0.0
  0
LINE
  5
207
330
1F
100
AcDbEntity
  8
0
  6
HIDDEN
 62
     7
370
    18
100
AcDbLine
 10
219.2601626016
 20
33.8292682927
 30
0.0
 11
223.081300813
 21
33.8292682927
 31
0.0
  0
SPLINE
  5
208
330
1F
100
AcDbEntity
  8
0
  6
HIDDEN
 62
     7
370
    18
100
AcDbSpline
210
0.0
220
0.0
230
1.0
 70
     8
 71
     3
 72
    10
 73
     6
 74
     0
 42
0.00000001
 43
0.00000001
 40
0.0
 40
0.0
 40
0.0
 40
0.0
 40
0.8975979010256588
 40
1.346396851538486
 40
1.5707963267949
 40
1.5707963267949
 40
1.5707963267949
 40
1.5707963267949
 10
225.1138211382114
 20
35.86178861788618
 30
0.0
 10
225.1138211382114
 20
35.25365995865472
 30
0.0
 10
224.6772078573565
 20
34.35147882602634
 30
0.0
 10
223.6876420178191
 20
33.88107217553813
 30
0.0
 10
223.233332977816
 20
33.82926829268293
 30
0.0
 10
223.0813008130081
 20
33.82926829268293
 30
0.0
  0
LINE
  5
209
330
1F
100
AcDbEntity
  8
0
  6
HIDDEN
 62
     7
370
    18
100
AcDbLine
 10
219.2601626016
 20
75.6991869919
 30
0.0
 11
218.8536585366
 21
76.1056910569
 31
0.0
  0
SPLINE
  5
20A
330
1F
100
AcDbEntity
  8
0
  6
HIDDEN
 62
     7
370
    18
100
AcDbSpline
210
0.0
220
0.0
230
1.0
 70
     8
 71
     3
 72
    11
 73
     7
 74
     0
 42
0.00000001
 43
0.00000001
 40
-0.0000000000000006
 40
-0.0000000000000006
 40
-0.0000000000000006
 40
-0.0000000000000006
 40
0.224399475256413
 40
0.448798950512826
 40
0.8975979010256531
 40
1.57079632679489
 40
1.57079632679489
 40
1.57079632679489
 40
1.57079632679489
 10
223.0813008130081
 20
75.69918699186992
 30
0.0
 10
223.233332977816
 20
75.69918699186992
 30
0.0
 10
223.5373744904791
 20
75.66480745455107
 30
0.0
 10
224.1146824223936
 20
75.46298265337009
 30
0.0
 10
224.8475065568344
 20
74.880369077204
 30
0.0
 10
225.1138211382114
 20
74.12276316109026
 30
0.0
 10
225.1138211382114
 20
73.66666666666667
 30
0.0
  0
SPLINE
  5
20B
330
1F
100
AcDbEntity
  8
0
  6
HIDDEN
 62
     7
370
    18
100
AcDbSpline
210
0.0
220
0.0
230
1.0
 70
     8
 71
     3
 72
    11
 73
     7
 74
     0
 42
0.00000001
 43
0.00000001
 40
-0.0000000000000005
 40
-0.0000000000000005
 40
-0.0000000000000005
 40
-0.0000000000000005
 40
0.224399475256413
 40
0.448798950512826
 40
0.673198425769239
 40
1.57079632679489
 40
1.57079632679489
 40
1.57079632679489
 40
1.57079632679489
 10
223.0813008130081
 20
38.81978612252204
 30
0.0
 10
223.233332977816
 20
38.81978612252204
 30
0.0
 10
223.5379096999797
 20
38.86973922682463
 30
0.0
 10
223.969759518814
 20
39.09369500145561
 30
0.0
 10
224.7517753594871
 20
39.80789633469829
 30
0.0
 10
225.1138211382114
 20
40.91402532097423
 30
0.0
 10
225.1138211382114
 20
41.80813815966162
 30
0.0
  0
LINE
  5
20C
330
1F
100
AcDbEntity
  8
0
  6
HIDDEN
 62
     7
370
    18
100
AcDbLine
 10
225.1138211382
 20
73.6666666667
 30
0.0
 11
225.1138211382
 21
67.7198241854
 31
0.0
  0
LINE
  5
20D
330
1F
100
AcDbEntity
  8
0
  6
HIDDEN
 62
     7
370
    18
100
AcDbLine
 10
219.2601626016
 20
75.6991869919
 30
0.0
 11
223.081300813
 21
75.6991869919
 31
0.0
  0
SPLINE
  5
20E
330
1F
100
AcDbEntity
  8
0
  6
HIDDEN
 62
     7
370
    18
100
AcDbSpline
210
0.0
220
0.0
230
1.0
 70
     8
 71
     3
 72
     9
 73
     5
 74
     0
 42
0.00000001
 43
0.00000001
 40
-1.5707963267949
 40
-1.5707963267949
 40
-1.5707963267949
 40
-1.5707963267949
 40
-1.07152747971398
 40
-0.405835683606081
 40
-0.405835683606081
 40
-0.405835683606081
 40
-0.405835683606081
 10
220.0731707317073
 20
28.54471544715447
 30
0.0
 10
220.0731707317073
 20
28.88750527188349
 30
0.0
 10
220.2824680076998
 20
29.68873818582317
 30
0.0
 10
220.8904804020016
 20
30.2640038812613
 30
0.0
 10
221.3615687921414
 20
30.46642544990829
 30
0.0
  0
LINE
  5
20F
330
1F
100
AcDbEntity
  8
0
  6
HIDDEN
 62
     7
370
    18
100
AcDbLine
 10
219.2601626016
 20
30.5772357724
 30
0.0
 11
218.8536585366
 21
30.9837398374
 31
0.0
  0
SPLINE
  5
210
330
1F
100
AcDbEntity
  8
0
  6
HIDDEN
 62
     7
370
    18
100
AcDbSpline
210
0.0
220
0.0
230
1.0
 70
     8
 71
     3
 72
    10
 73
     6
 74
     0
 42
0.00000001
 43
0.00000001
 40
0.0
 40
0.0
 40
0.0
 40
0.0
 40
0.7857142857142859
 40
0.857142857142857
 40
1.0
 40
1.0
 40
1.0
 40
1.0
 10
221.8248012414624
 20
30.57004557817269
 30
0.0
 10
221.8377769833625
 20
30.57115290401772
 30
0.0
 10
221.9306268260356
 20
30.57727725006659
 30
0.0
 10
221.9877095340761
 20
30.57716931167301
 30
0.0
 10
221.9918691473659
 20
30.57723577235772
 30
0.0
 10
221.9942409789043
 20
30.57723577235772
 30
0.0
  0
SPLINE
  5
211
330
1F
100
AcDbEntity
  8
0
  6
HIDDEN
 62
     7
370
    18
100
AcDbSpline
210
0.0
220
0.0
230
1.0
 70
     8
 71
     3
 72
     8
 73
     4
 74
     0
 42
0.00000001
 43
0.00000001
 40
0.0
 40
0.0
 40
0.0
 40
0.0
 40
1.0
 40
1.0
 40
1.0
 40
1.0
 10
221.5253472351071
 20
30.52074695318496
 30
0.0
 10
221.6241996058353
 20
30.54516150219894
 30
0.0
 10
221.7243044825699
 20
30.56146937040626
 30
0.0
 10
221.8248012414624
 20
30.57004557817269
 30
0.0
  0
SPLINE
  5
212
330
1F
100
AcDbEntity
  8
0
  6
HIDDEN
 62
     7
370
    18
100
AcDbSpline
210
0.0
220
0.0
230
1.0
 70
     8
 71
     3
 72
     8
 73
     4
 74
     0
 42
0.00000001
 43
0.00000001
 40
-0.405835683606081
 40
-0.405835683606081
 40
-0.405835683606081
 40
-0.405835683606081
 40
-0.33172696510343
 40
-0.33172696510343
 40
-0.33172696510343
 40
-0.33172696510343
 10
221.3615687921414
 20
30.46642544990829
 30
0.0
 10
221.4140131171261
 20
30.48896020733366
 30
0.0
 10
221.4683669274279
 20
30.5066739622752
 30
0.0
 10
221.5253472351071
 20
30.52074695318496
 30
0.0
  0
LINE
  5
213
330
1F
100
AcDbEntity
  8
0
  6
HIDDEN
 62
     7
370
    18
100
AcDbLine
 10
219.2601626016
 20
30.5772357724
 30
0.0
 11
221.9942409789
 21
30.5772357724
 31
0.0
  0
LINE
  5
214
330
1F
100
AcDbEntity
  8
0
  6
HIDDEN
 62
     7
370
    18
100
AcDbLine
 10
221.9942409789
 20
30.5772357724
 30
0.0
 11
222.512195122
 21
30.5772357724
 31
0.0
  0
SPLINE
  5
215
330
1F
100
AcDbEntity
  8
0
  6
HIDDEN
 62
     7
370
    18
100
AcDbSpline
210
0.0
220
0.0
230
1.0
 70
     8
 71
     3
 72
     9
 73
     5
 74
     0
 42
0.00000001
 43
0.00000001
 40
0.405835683606072
 40
0.405835683606072
 40
0.405835683606072
 40
0.405835683606072
 40
0.905104530686996
 40
1.5707963267949
 40
1.5707963267949
 40
1.5707963267949
 40
1.5707963267949
 10
221.3615687921414
 20
79.06202983464456
 30
0.0
 10
221.0082524995366
 20
79.21384601112985
 30
0.0
 10
220.3500519128701
 20
79.72970650540903
 30
0.0
 10
220.0731707317073
 20
80.52668673775977
 30
0.0
 10
220.0731707317073
 20
80.98373983739839
 30
0.0
  0
LINE
  5
216
330
1F
100
AcDbEntity
  8
0
  6
HIDDEN
 62
     7
370
    18
100
AcDbLine
 10
219.2601626016
 20
78.9512195122
 30
0.0
 11
218.8536585366
 21
78.5447154472
 31
0.0
  0
SPLINE
  5
217
330
1F
100
AcDbEntity
  8
0
  6
HIDDEN
 62
     7
370
    18
100
AcDbSpline
210
0.0
220
0.0
230
1.0
 70
     8
 71
     3
 72
    10
 73
     6
 74
     0
 42
0.00000001
 43
0.00000001
 40
0.0
 40
0.0
 40
0.0
 40
0.0
 40
0.142857142857143
 40
0.2142857142857141
 40
1.0
 40
1.0
 40
1.0
 40
1.0
 10
221.9942409789043
 20
78.95121951219514
 30
0.0
 10
221.9918691473659
 20
78.95121951219514
 30
0.0
 10
221.9877034366808
 20
78.95128608087099
 30
0.0
 10
221.9306101433271
 20
78.95116963736473
 30
0.0
 10
221.8377769833625
 20
78.95730238053514
 30
0.0
 10
221.8248012414624
 20
78.95840970638017
 30
0.0
  0
SPLINE
  5
218
330
1F
100
AcDbEntity
  8
0
  6
HIDDEN
 62
     7
370
    18
100
AcDbSpline
210
0.0
220
0.0
230
1.0
 70
     8
 71
     3
 72
     8
 73
     4
 74
     0
 42
0.00000001
 43
0.00000001
 40
0.0
 40
0.0
 40
0.0
 40
0.0
 40
1.0
 40
1.0
 40
1.0
 40
1.0
 10
221.8248012414624
 20
78.95840970638017
 30
0.0
 10
221.7243044825684
 20
78.96698591414676
 30
0.0
 10
221.6241996058287
 20
78.98329378235562
 30
0.0
 10
221.5253472351072
 20
79.00770833136791
 30
0.0
  0
SPLINE
  5
219
330
1F
100
AcDbEntity
  8
0
  6
HIDDEN
 62
     7
370
    18
100
AcDbSpline
210
0.0
220
0.0
230
1.0
 70
     8
 71
     3
 72
     8
 73
     4
 74
     0
 42
0.00000001
 43
0.00000001
 40
0.33172696510342
 40
0.33172696510342
 40
0.33172696510342
 40
0.33172696510342
 40
0.405835683606072
 40
0.405835683606072
 40
0.405835683606072
 40
0.405835683606072
 10
221.5253472351072
 20
79.00770833136791
 30
0.0
 10
221.4683669274279
 20
79.02178132227766
 30
0.0
 10
221.4140131171262
 20
79.0394950772191
 30
0.0
 10
221.3615687921414
 20
79.06202983464456
 30
0.0
  0
LINE
  5
21A
330
1F
100
AcDbEntity
  8
0
  6
HIDDEN
 62
     7
370
    18
100
AcDbLine
 10
221.9942409789
 20
78.9512195122
 30
0.0
 11
219.2601626016
 21
78.9512195122
 31
0.0
  0
LINE
  5
21B
330
1F
100
AcDbEntity
  8
0
  6
HIDDEN
 62
     7
370
    18
100
AcDbLine
 10
222.512195122
 20
78.9512195122
 30
0.0
 11
221.9942409789
 21
78.9512195122
 31
0.0
  0
SPLINE
  5
21C
330
1F
100
AcDbEntity
  8
0
  6
HIDDEN
 62
     7
370
    18
100
AcDbSpline
210
0.0
220
0.0
230
1.0
 70
     8
 71
     3
 72
    11
 73
     7
 74
     0
 42
0.00000001
 43
0.00000001
 40
-0.0000000000000005
 40
-0.0000000000000005
 40
-0.0000000000000005
 40
-0.0000000000000005
 40
0.8975979010256504
 40
1.121997376282063
 40
1.346396851538477
 40
1.57079632679489
 40
1.57079632679489
 40
1.57079632679489
 40
1.57079632679489
 10
225.1138211382114
 20
41.80813815966162
 30
0.0
 10
225.1138211382114
 20
41.15179662394374
 30
0.0
 10
224.7517753594871
 20
40.33982036530935
 30
0.0
 10
223.969759518814
 20
39.81554649338903
 30
0.0
 10
223.5379096999797
 20
39.65114724679066
 30
0.0
 10
223.233332977816
 20
39.61447816457504
 30
0.0
 10
223.0813008130081
 20
39.61447816457504
 30
0.0
  0
SPLINE
  5
21D
330
1F
100
AcDbEntity
  8
0
  6
HIDDEN
 62
     7
370
    18
100
AcDbSpline
210
0.0
220
0.0
230
1.0
 70
     8
 71
     3
 72
    10
 73
     6
 74
     0
 42
0.00000001
 43
0.00000001
 40
0.0000000000000001
 40
0.0000000000000001
 40
0.0000000000000001
 40
0.0000000000000001
 40
0.224399475256414
 40
0.673198425769241
 40
1.5707963267949
 40
1.5707963267949
 40
1.5707963267949
 40
1.5707963267949
 10
223.0813008130081
 20
74.47961006052708
 30
0.0
 10
223.233332977816
 20
74.47961006052708
 30
0.0
 10
223.6876854242934
 20
74.45889705264067
 30
0.0
 10
224.677713726652
 20
74.27082942131594
 30
0.0
 10
225.1138211382114
 20
73.90989876132726
 30
0.0
 10
225.1138211382114
 20
73.66666666666667
 30
0.0
  0
SPLINE
  5
21E
330
1F
100
AcDbEntity
  8
0
  6
HIDDEN
 62
     7
370
    18
100
AcDbSpline
210
0.0
220
0.0
230
1.0
 70
     8
 71
     3
 72
    15
 73
    11
 74
     0
 42
0.00000001
 43
0.00000001
 40
0.0
 40
0.0
 40
0.0
 40
0.0
 40
0.1798824563755975
 40
0.3355365451327043
 40
0.4578958263798731
 40
0.5377876815359176
 40
0.613490030321393
 40
0.7533672440058639
 40
0.8808437287055716
 40
1.0
 40
1.0
 40
1.0
 40
1.0
 10
225.0466289852543
 20
68.46514426580039
 30
0.0
 10
225.0060674543273
 20
68.6543960153569
 30
0.0
 10
224.9304076249766
 20
69.00740919677531
 30
0.0
 10
224.7404340178856
 20
69.46385060428125
 30
0.0
 10
224.5496912465099
 20
69.7989617275265
 30
0.0
 10
224.3694587285069
 20
70.03773356881304
 30
0.0
 10
224.1531421235136
 20
70.27089305236751
 30
0.0
 10
223.8595623705622
 20
70.49767630886764
 30
0.0
 10
223.475547972521
 20
70.67478326496612
 30
0.0
 10
223.2097273594362
 20
70.69738979638886
 30
0.0
 10
223.0813008130081
 20
70.70831174380163
 30
0.0
  0
SPLINE
  5
21F
330
1F
100
AcDbEntity
  8
0
  6
HIDDEN
 62
     7
370
    18
100
AcDbSpline
210
0.0
220
0.0
230
1.0
 70
     8
 71
     3
 72
    11
 73
     7
 74
     0
 42
0.00000001
 43
0.00000001
 40
-0.0000000000000005
 40
-0.0000000000000005
 40
-0.0000000000000005
 40
-0.0000000000000005
 40
0.224399475256413
 40
0.448798950512827
 40
0.673198425769241
 40
1.5707963267949
 40
1.5707963267949
 40
1.5707963267949
 40
1.5707963267949
 10
223.0813008130081
 20
69.91355496552765
 30
0.0
 10
223.233332977816
 20
69.91355496552765
 30
0.0
 10
223.5378180503961
 20
69.87683753451968
 30
0.0
 10
223.9697233380714
 20
69.71246397815058
 30
0.0
 10
224.7513257803932
 20
69.1879532418787
 30
0.0
 10
225.1138211382114
 20
68.37618689996586
 30
0.0
 10
225.1138211382114
 20
67.71982418541887
 30
0.0
  0
LINE
  5
220
330
1F
100
AcDbEntity
  8
0
  6
HIDDEN
 62
     7
370
    18
100
AcDbLine
 10
220.4796747967
 20
87.243902439
 30
0.0
 11
218.8536585366
 21
87.243902439
 31
0.0
  0
LINE
  5
221
330
1F
100
AcDbEntity
  8
0
  6
HIDDEN
 62
     7
370
    18
100
AcDbLine
 10
220.4796747967
 20
33.5853658537
 30
0.0
 11
218.8536585366
 21
33.5853658537
 31
0.0
  0
LINE
  5
222
330
1F
100
AcDbEntity
  8
0
  6
HIDDEN
 62
     7
370
    18
100
AcDbLine
 10
218.8536585366
 20
80.4146341463
 30
0.0
 11
220.4796747967
 21
80.4146341463
 31
0.0
  0
LINE
  5
223
330
1F
100
AcDbEntity
  8
0
  6
HIDDEN
 62
     7
370
    18
100
AcDbLine
 10
218.8536585366
 20
26.756097561
 30
0.0
 11
220.4796747967
 21
26.756097561
 31
0.0
  0
LINE
  5
224
330
1F
100
AcDbEntity
  8
0
  6
HIDDEN
 62
     7
370
    18
100
AcDbLine
 10
219.2601626016
 20
71.1330671606
 30
0.0
 11
218.8536585366
 21
71.5395712257
 31
0.0
  0
LINE
  5
225
330
1F
100
AcDbEntity
  8
0
  6
HIDDEN
 62
     7
370
    18
100
AcDbLine
 10
223.081300813
 20
71.1330671606
 30
0.0
 11
219.2601626016
 21
71.1330671606
 31
0.0
  0
SPLINE
  5
226
330
1F
100
AcDbEntity
  8
0
  6
HIDDEN
 62
     7
370
    18
100
AcDbSpline
210
0.0
220
0.0
230
1.0
 70
     8
 71
     3
 72
    14
 73
    10
 74
     0
 42
0.00000001
 43
0.00000001
 40
0.0
 40
0.0
 40
0.0
 40
0.0
 40
0.2820073263095143
 40
0.518876602403313
 40
0.6279365182892217
 40
0.7398900744116331
 40
0.8649380401095058
 40
0.9324933288798865
 40
1.0
 40
1.0
 40
1.0
 40
1.0
 10
225.1138211382114
 20
67.71982418541887
 30
0.0
 10
225.0940053746769
 20
68.11882394506041
 30
0.0
 10
225.0575455557375
 20
68.8529596228524
 30
0.0
 10
224.8138693508661
 20
69.75245246767135
 30
0.0
 10
224.4817444733753
 20
70.34489025665071
 30
0.0
 10
224.1528739059921
 20
70.74737725820786
 30
0.0
 10
223.7576280090726
 20
70.99007860170926
 30
0.0
 10
223.3849442168265
 20
71.11298808302885
 30
0.0
 10
223.1824909888863
 20
71.1263764351199
 30
0.0
 10
223.0813008130081
 20
71.13306820149276
 30
0.0
  0
LINE
  5
227
330
1F
100
AcDbEntity
  8
0
  6
HIDDEN
 62
     7
370
    18
100
AcDbLine
 10
218.8536585366
 20
37.9885266406
 30
0.0
 11
219.2601626016
 21
38.3950307057
 31
0.0
  0
LINE
  5
228
330
1F
100
AcDbEntity
  8
0
  6
HIDDEN
 62
     7
370
    18
100
AcDbLine
 10
219.2601626016
 20
38.3950307057
 30
0.0
 11
223.081300813
 21
38.3950307057
 31
0.0
  0
SPLINE
  5
229
330
1F
100
AcDbEntity
  8
0
  6
HIDDEN
 62
     7
370
    18
100
AcDbSpline
210
0.0
220
0.0
230
1.0
 70
     8
 71
     3
 72
    14
 73
    10
 74
     0
 42
0.00000001
 43
0.00000001
 40
0.0
 40
0.0
 40
0.0
 40
0.0
 40
0.0810793701725792
 40
0.1621517992373543
 40
0.3129681543602478
 40
0.4475112123315693
 40
0.5773513231802772
 40
0.8650242239323178
 40
1.0
 40
1.0
 40
1.0
 40
1.0
 10
223.0813008130081
 20
38.39500031473986
 30
0.0
 10
223.1823866039071
 20
38.40159380746253
 30
0.0
 10
223.3845495318714
 20
38.41478022844684
 30
0.0
 10
223.75784978178
 20
38.53703931313722
 30
0.0
 10
224.1531175197871
 20
38.7799201427641
 30
0.0
 10
224.4831825863914
 20
39.18095011257014
 30
0.0
 10
224.807401108736
 20
39.77810515328994
 30
0.0
 10
225.0167730594378
 20
40.43269926732563
 30
0.0
 10
225.0446095184785
 20
40.93124632989828
 30
0.0
 10
225.0534992840641
 20
41.09046078002587
 30
0.0
  0
LINE
  5
22A
330
1F
100
AcDbEntity
  8
0
  6
HIDDEN
 62
     7
370
    18
100
AcDbLine
 10
218.8536585366
 20
37.9892415253
 30
0.0
 11
219.2601626016
 21
38.3957455903
 31
0.0
  0
LINE
  5
22B
330
1F
100
AcDbEntity
  8
0
  6
HIDDEN
 62
     7
370
    18
100
AcDbLine
 10
219.2601626016
 20
38.3957455903
 30
0.0
 11
223.081300813
 21
38.3957455903
 31
0.0
  0
ENDSEC
  0
SECTION
  2
OBJECTS
  0
DICTIONARY
  5
C
330
0
100
AcDbDictionary
281
     1
  3
ACAD_GROUP
350
D
  3
ACAD_LAYOUT
350
1A
  3
ACAD_MLINESTYLE
350
17
  3
ACAD_PLOTSETTINGS
350
19
  3
ACAD_PLOTSTYLENAME
350
E
  3
ACAD_SCALELIST
350
47
  3
DWGPROPS
350
22C
  0
DICTIONARY
  5
D
102
{ACAD_REACTORS
330
C
102
}
330
C
100
AcDbDictionary
281
     1
  0
DICTIONARY
  5
1A
102
{ACAD_REACTORS
330
C
102
}
330
C
100
AcDbDictionary
281
     1
  3
Layout1
350
1E
  3
Layout2
350
26
  3
Model
350
22
  0
DICTIONARY
  5
17
102
{ACAD_REACTORS
330
C
102
}
330
C
100
AcDbDictionary
281
     1
  3
Standard
350
18
  0
DICTIONARY
  5
19
102
{ACAD_REACTORS
330
C
102
}
330
C
100
AcDbDictionary
281
     1
  0
ACDBDICTIONARYWDFLT
  5
E
102
{ACAD_REACTORS
330
C
102
}
330
C
100
AcDbDictionary
281
     1
  3
Normal
350
F
100
AcDbDictionaryWithDefault
340
F
  0
DICTIONARY
  5
47
102
{ACAD_REACTORS
330
C
102
}
330
C
100
AcDbDictionary
281
     1
  3
A0
350
48
  3
A1
350
49
  3
A2
350
4A
  3
A3
350
4B
  3
A4
350
4C
  3
A5
350
4D
  3
A6
350
4E
  3
A7
350
4F
  3
A8
350
50
  3
A9
350
51
  3
B0
350
52
  3
B1
350
53
  3
B2
350
54
  3
B3
350
55
  3
B4
350
56
  3
B5
350
57
  3
B6
350
58
  0
XRECORD
  5
22C
102
{ACAD_REACTORS
330
C
102
}
330
C
100
AcDbXrecord
280
     1
  1
DWGPROPS COOKIE
  2

  3

  4

  6

  7

  8

  9

300
=
301
=
302
=
303
=
304
=
305
=
306
=
307
=
308
=
309
=
 40
0.0
 41
2461215.469318959
 42
2461215.469319422
  1

 90
        0
  0
LAYOUT
  5
1E
102
{ACAD_REACTORS
330
1A
102
}
330
1A
100
AcDbPlotSettings
  1

  2
none_device
  4

  6

 40
0.0
 41
0.0
 42
0.0
 43
0.0
 44
0.0
 45
0.0
 46
0.0
 47
0.0
 48
0.0
 49
0.0
140
0.0
141
0.0
142
1.0
143
1.0
 70
   688
 72
     1
 73
     0
 74
     5
  7

 75
    16
147
1.0
148
0.0
149
0.0
100
AcDbLayout
  1
Layout1
 70
     1
 71
     1
 10
0.0
 20
0.0
 11
420.0
 21
297.0
 12
0.0
 22
0.0
 32
0.0
 14
1.0000000000E+20
 24
1.0000000000E+20
 34
1.0000000000E+20
 15
-1.0000000000E+20
 25
-1.0000000000E+20
 35
-1.0000000000E+20
146
0.0
 13
0.0
 23
0.0
 33
0.0
 16
1.0
 26
0.0
 36
0.0
 17
0.0
 27
1.0
 37
0.0
 76
     0
330
1B
  0
LAYOUT
  5
26
102
{ACAD_REACTORS
330
1A
102
}
330
1A
100
AcDbPlotSettings
  1

  2
none_device
  4

  6

 40
0.0
 41
0.0
 42
0.0
 43
0.0
 44
0.0
 45
0.0
 46
0.0
 47
0.0
 48
0.0
 49
0.0
140
0.0
141
0.0
142
1.0
143
1.0
 70
   688
 72
     1
 73
     0
 74
     5
  7

 75
    16
147
1.0
148
0.0
149
0.0
100
AcDbLayout
  1
Layout2
 70
     1
 71
     2
 10
0.0
 20
0.0
 11
0.0
 21
0.0
 12
0.0
 22
0.0
 32
0.0
 14
0.0
 24
0.0
 34
0.0
 15
0.0
 25
0.0
 35
0.0
146
0.0
 13
0.0
 23
0.0
 33
0.0
 16
1.0
 26
0.0
 36
0.0
 17
0.0
 27
1.0
 37
0.0
 76
     0
330
23
  0
LAYOUT
  5
22
102
{ACAD_REACTORS
330
1A
102
}
330
1A
100
AcDbPlotSettings
  1

  2
none_device
  4
Letter_(8.50_x_11.00_Inches)
  6

 40
6.35
 41
6.35
 42
6.35000508
 43
6.35000508
 44
215.9
 45
279.4
 46
0.0
 47
0.0
 48
0.0
 49
0.0
140
0.0
141
0.0
142
1.0
143
1.0
 70
  1712
 72
     1
 73
     0
 74
     0
  7

 75
     0
147
1.0
148
0.0
149
0.0
100
AcDbLayout
  1
Model
 70
     1
 71
     0
 10
0.0
 20
0.0
 11
297.0
 21
210.0
 12
0.0
 22
0.0
 32
0.0
 14
0.0
 24
0.0
 34
0.0
 15
297.0
 25
210.0
 35
0.0
146
0.0
 13
0.0
 23
0.0
 33
0.0
 16
1.0
 26
0.0
 36
0.0
 17
0.0
 27
1.0
 37
0.0
 76
     0
330
1F
331
29
  0
MLINESTYLE
  5
18
102
{ACAD_REACTORS
330
17
102
}
330
17
100
AcDbMlineStyle
  2
Standard
 70
     0
  3

 62
   256
 51
90.0
 52
90.0
 71
     2
 49
0.5
 62
   256
  6
BYLAYER
 49
-0.5
 62
   256
  6
BYLAYER
  0
ACDBPLACEHOLDER
  5
F
102
{ACAD_REACTORS
330
E
102
}
330
E
  0
SCALE
  5
48
102
{ACAD_REACTORS
330
47
102
}
330
47
100
AcDbScale
 70
     0
300
1:1
140
1.0
141
1.0
290
     1
  0
SCALE
  5
49
102
{ACAD_REACTORS
330
47
102
}
330
47
100
AcDbScale
 70
     0
300
1:2
140
1.0
141
2.0
290
     0
  0
SCALE
  5
4A
102
{ACAD_REACTORS
330
47
102
}
330
47
100
AcDbScale
 70
     0
300
1:4
140
1.0
141
4.0
290
     0
  0
SCALE
  5
4B
102
{ACAD_REACTORS
330
47
102
}
330
47
100
AcDbScale
 70
     0
300
1:5
140
1.0
141
5.0
290
     0
  0
SCALE
  5
4C
102
{ACAD_REACTORS
330
47
102
}
330
47
100
AcDbScale
 70
     0
300
1:8
140
1.0
141
8.0
290
     0
  0
SCALE
  5
4D
102
{ACAD_REACTORS
330
47
102
}
330
47
100
AcDbScale
 70
     0
300
1:10
140
1.0
141
10.0
290
     0
  0
SCALE
  5
4E
102
{ACAD_REACTORS
330
47
102
}
330
47
100
AcDbScale
 70
     0
300
1:16
140
1.0
141
16.0
290
     0
  0
SCALE
  5
4F
102
{ACAD_REACTORS
330
47
102
}
330
47
100
AcDbScale
 70
     0
300
1:20
140
1.0
141
20.0
290
     0
  0
SCALE
  5
50
102
{ACAD_REACTORS
330
47
102
}
330
47
100
AcDbScale
 70
     0
300
1:30
140
1.0
141
30.0
290
     0
  0
SCALE
  5
51
102
{ACAD_REACTORS
330
47
102
}
330
47
100
AcDbScale
 70
     0
300
1:40
140
1.0
141
40.0
290
     0
  0
SCALE
  5
52
102
{ACAD_REACTORS
330
47
102
}
330
47
100
AcDbScale
 70
     0
300
1:50
140
1.0
141
50.0
290
     0
  0
SCALE
  5
53
102
{ACAD_REACTORS
330
47
102
}
330
47
100
AcDbScale
 70
     0
300
1:100
140
1.0
141
100.0
290
     0
  0
SCALE
  5
54
102
{ACAD_REACTORS
330
47
102
}
330
47
100
AcDbScale
 70
     0
300
2:1
140
2.0
141
1.0
290
     0
  0
SCALE
  5
55
102
{ACAD_REACTORS
330
47
102
}
330
47
100
AcDbScale
 70
     0
300
4:1
140
4.0
141
1.0
290
     0
  0
SCALE
  5
56
102
{ACAD_REACTORS
330
47
102
}
330
47
100
AcDbScale
 70
     0
300
8:1
140
8.0
141
1.0
290
     0
  0
SCALE
  5
57
102
{ACAD_REACTORS
330
47
102
}
330
47
100
AcDbScale
 70
     0
300
10:1
140
10.0
141
1.0
290
     0
  0
SCALE
  5
58
102
{ACAD_REACTORS
330
47
102
}
330
47
100
AcDbScale
 70
     0
300
100:1
140
100.0
141
1.0
290
     0
  0
ENDSEC
  0
EOF
