  0
SECTION
  2
HEADER
  9
$ACADVER
  1
AC1015
  9
$ACADMAINTVER
 70
     6
  9
$DWGCODEPAGE
  3
ANSI_936
  9
$INSBASE
 10
0.0
 20
0.0
 30
0.0
  9
$EXTMIN
 10
0.0
 20
0.0
 30
0.0
  9
$EXTMAX
 10
297.0
 20
210.0
 30
0.0
  9
$LIMMIN
 10
0.0
 20
0.0
  9
$LIMMAX
 10
297.0
 20
210.0
  9
$ORTHOMODE
 70
     0
  9
$REGENMODE
 70
     1
  9
$FILLMODE
 70
     1
  9
$QTEXTMODE
 70
     0
  9
$MIRRTEXT
 70
     1
  9
$LTSCALE
 40
1.0
  9
$ATTMODE
 70
     1
  9
$TEXTSIZE
 40
3.5
  9
$TRACEWID
 40
1.0
  9
$TEXTSTYLE
  7
Standard
  9
$CLAYER
  8
0
  9
$CELTYPE
  6
ByLayer
  9
$CECOLOR
 62
   256
  9
$CELTSCALE
 40
1.0
  9
$DISPSILH
 70
     0
  9
$DIMSCALE
 40
1.0
  9
$DIMASZ
 40
4.08
  9
$DIMEXO
 40
0.0
  9
$DIMDLI
 40
3.75
  9
$DIMRND
 40
0.0
  9
$DIMDLE
 40
0.0
  9
$DIMEXE
 40
2.0
  9
$DIMTP
 40
0.0
  9
$DIMTM
 40
0.0
  9
$DIMTXT
 40
3.5
  9
$DIMCEN
 40
2.5
  9
$DIMTSZ
 40
0.0
  9
$DIMTOL
 70
     0
  9
$DIMLIM
 70
     0
  9
$DIMTIH
 70
     1
  9
$DIMTOH
 70
     1
  9
$DIMSE1
 70
     0
  9
$DIMSE2
 70
     0
  9
$DIMTAD
 70
     1
  9
$DIMZIN
 70
     0
  9
$DIMBLK
  1

  9
$DIMASO
 70
     1
  9
$DIMSHO
 70
     1
  9
$DIMPOST
  1

  9
$DIMAPOST
  1

  9
$DIMALT
 70
     0
  9
$DIMALTD
 70
     3
  9
$DIMALTF
 40
0.0393700787
  9
$DIMLFAC
 40
2.0
  9
$DIMTOFL
 70
     1
  9
$DIMTVP
 40
0.0
  9
$DIMTIX
 70
     0
  9
$DIMSOXD
 70
     0
  9
$DIMSAH
 70
     0
  9
$DIMBLK1
  1

  9
$DIMBLK2
  1

  9
$DIMSTYLE
  2
ISO-25
  9
$DIMCLRD
 70
     0
  9
$DIMCLRE
 70
     0
  9
$DIMCLRT
 70
     0
  9
$DIMTFAC
 40
1.0
  9
$DIMGAP
 40
1.524
  9
$DIMJUST
 70
     0
  9
$DIMSD1
 70
     0
  9
$DIMSD2
 70
     0
  9
$DIMTOLJ
 70
     0
  9
$DIMTZIN
 70
     0
  9
$DIMALTZ
 70
     0
  9
$DIMALTTZ
 70
     0
  9
$DIMUPT
 70
     0
  9
$DIMDEC
 70
     2
  9
$DIMTDEC
 70
     2
  9
$DIMALTU
 70
     2
  9
$DIMALTTD
 70
     3
  9
$DIMTXSTY
  7
Standard
  9
$DIMAUNIT
 70
     0
  9
$DIMADEC
 70
     2
  9
$DIMALTRND
 40
0.0
  9
$DIMAZIN
 70
     0
  9
$DIMDSEP
 70
    44
  9
$DIMATFIT
 70
     3
  9
$DIMFRAC
 70
     0
  9
$DIMLDRBLK
  1

  9
$DIMLUNIT
 70
     2
  9
$DIMLWD
 70
    -2
  9
$DIMLWE
 70
    -2
  9
$DIMTMOVE
 70
     0
  9
$LUNITS
 70
     2
  9
$LUPREC
 70
     2
  9
$SKETCHINC
 40
1.0
  9
$FILLETRAD
 40
0.0
  9
$AUNITS
 70
     0
  9
$AUPREC
 70
     2
  9
$MENU
  1
.
  9
$ELEVATION
 40
0.0
  9
$PELEVATION
 40
0.0
  9
$THICKNESS
 40
0.0
  9
$LIMCHECK
 70
     0
  9
$CHAMFERA
 40
0.0
  9
$CHAMFERB
 40
0.0
  9
$CHAMFERC
 40
0.0
  9
$CHAMFERD
 40
0.0
  9
$SKPOLY
 70
     0
  9
$TDCREATE
 40
2461215.807032755
  9
$TDUCREATE
 40
2461215.473699421
  9
$TDUPDATE
 40
2461215.807033091
  9
$TDUUPDATE
 40
2461215.473699757
  9
$TDINDWG
 40
0.0000000116
  9
$TDUSRTIMER
 40
0.0000000116
  9
$USRTIMER
 70
     1
  9
$ANGBASE
 50
0.0
  9
$ANGDIR
 70
     0
  9
$PDMODE
 70
     0
  9
$PDSIZE
 40
-1.0
  9
$PLINEWID
 40
0.0
  9
$SPLFRAME
 70
     0
  9
$SPLINETYPE
 70
     6
  9
$SPLINESEGS
 70
     8
  9
$HANDSEED
  5
1D0
  9
$SURFTAB1
 70
     6
  9
$SURFTAB2
 70
     6
  9
$SURFTYPE
 70
     6
  9
$SURFU
 70
     6
  9
$SURFV
 70
     6
  9
$UCSBASE
  2

  9
$UCSNAME
  2

  9
$UCSORG
 10
0.0
 20
0.0
 30
0.0
  9
$UCSXDIR
 10
1.0
 20
0.0
 30
0.0
  9
$UCSYDIR
 10
0.0
 20
1.0
 30
0.0
  9
$UCSORTHOREF
  2

  9
$UCSORTHOVIEW
 70
     0
  9
$UCSORGTOP
 10
0.0
 20
0.0
 30
0.0
  9
$UCSORGBOTTOM
 10
0.0
 20
0.0
 30
0.0
  9
$UCSORGLEFT
 10
0.0
 20
0.0
 30
0.0
  9
$UCSORGRIGHT
 10
0.0
 20
0.0
 30
0.0
  9
$UCSORGFRONT
 10
0.0
 20
0.0
 30
0.0
  9
$UCSORGBACK
 10
0.0
 20
0.0
 30
0.0
  9
$PUCSBASE
  2

  9
$PUCSNAME
  2

  9
$PUCSORG
 10
0.0
 20
0.0
 30
0.0
  9
$PUCSXDIR
 10
1.0
 20
0.0
 30
0.0
  9
$PUCSYDIR
 10
0.0
 20
1.0
 30
0.0
  9
$PUCSORTHOREF
  2

  9
$PUCSORTHOVIEW
 70
     0
  9
$PUCSORGTOP
 10
0.0
 20
0.0
 30
0.0
  9
$PUCSORGBOTTOM
 10
0.0
 20
0.0
 30
0.0
  9
$PUCSORGLEFT
 10
0.0
 20
0.0
 30
0.0
  9
$PUCSORGRIGHT
 10
0.0
 20
0.0
 30
0.0
  9
$PUCSORGFRONT
 10
0.0
 20
0.0
 30
0.0
  9
$PUCSORGBACK
 10
0.0
 20
0.0
 30
0.0
  9
$USERI1
 70
     0
  9
$USERI2
 70
     0
  9
$USERI3
 70
     0
  9
$USERI4
 70
     0
  9
$USERI5
 70
     0
  9
$USERR1
 40
0.0
  9
$USERR2
 40
0.0
  9
$USERR3
 40
0.0
  9
$USERR4
 40
0.0
  9
$USERR5
 40
0.0
  9
$WORLDVIEW
 70
     1
  9
$SHADEDGE
 70
     3
  9
$SHADEDIF
 70
    70
  9
$TILEMODE
 70
     1
  9
$MAXACTVP
 70
    64
  9
$PINSBASE
 10
0.0
 20
0.0
 30
0.0
  9
$PLIMCHECK
 70
     0
  9
$PEXTMIN
 10
1.0000000000E+20
 20
1.0000000000E+20
 30
1.0000000000E+20
  9
$PEXTMAX
 10
-1.0000000000E+20
 20
-1.0000000000E+20
 30
-1.0000000000E+20
  9
$PLIMMIN
 10
0.0
 20
0.0
  9
$PLIMMAX
 10
420.0
 20
297.0
  9
$UNITMODE
 70
     0
  9
$VISRETAIN
 70
     1
  9
$PLINEGEN
 70
     0
  9
$PSLTSCALE
 70
     1
  9
$TREEDEPTH
 70
  3020
  9
$CMLSTYLE
  2
Standard
  9
$CMLJUST
 70
     0
  9
$CMLSCALE
 40
20.0
  9
$PROXYGRAPHICS
 70
     1
  9
$MEASUREMENT
 70
     1
  9
$CELWEIGHT
370
    -1
  9
$ENDCAPS
280
     0
  9
$JOINSTYLE
280
     0
  9
$LWDISPLAY
290
     1
  9
$INSUNITS
 70
     4
  9
$HYPERLINKBASE
  1

  9
$STYLESHEET
  1

  9
$XEDIT
290
     1
  9
$CEPSNTYPE
380
     0
  9
$PSTYLEMODE
290
     1
  9
$FINGERPRINTGUID
  2
{1603d94b-22c8-4feb-8f0c-88f5bb3ad142}
  9
$VERSIONGUID
  2
{FAEB1C32-E019-11D5-929B-00C0DF256EC4}
  9
$EXTNAMES
290
     1
  9
$PSVPSCALE
 40
0.0
  9
$OLESTARTUP
290
     0
  0
ENDSEC
  0
SECTION
  2
CLASSES
  0
CLASS
  1
ACDBDICTIONARYWDFLT
  2
AcDbDictionaryWithDefault
  3
ObjectDBX Classes
 90
        0
280
     0
281
     0
  0
CLASS
  1
VISUALSTYLE
  2
AcDbVisualStyle
  3
ObjectDBX Classes
 90
     4095
280
     0
281
     0
  0
CLASS
  1
MATERIAL
  2
AcDbMaterial
  3
ObjectDBX Classes
 90
     1153
280
     0
281
     0
  0
CLASS
  1
SCALE
  2
AcDbScale
  3
ObjectDBX Classes
 90
     1153
280
     0
281
     0
  0
CLASS
  1
TABLESTYLE
  2
AcDbTableStyle
  3
ObjectDBX Classes
 90
     4095
280
     0
281
     0
  0
CLASS
  1
MLEADERSTYLE
  2
AcDbMLeaderStyle
  3
ACDB_MLEADERSTYLE_CLASS
 90
     4095
280
     0
281
     0
  0
CLASS
  1
SUN
  2
AcDbSun
  3
SCENEOE
 90
     1153
280
     0
281
     0
  0
CLASS
  1
ACDBPLACEHOLDER
  2
AcDbPlaceHolder
  3
ObjectDBX Classes
 90
        0
280
     0
281
     0
  0
CLASS
  1
LAYOUT
  2
AcDbLayout
  3
ObjectDBX Classes
 90
        0
280
     0
281
     0
  0
ENDSEC
  0
SECTION
  2
TABLES
  0
TABLE
  2
VPORT
  5
8
330
0
100
AcDbSymbolTable
 70
     1
  0
VPORT
  5
29
330
8
100
AcDbSymbolTableRecord
100
AcDbViewportTableRecord
  2
*Active
 70
     0
 10
0.0
 20
0.0
 11
1.0
 21
1.0
 12
148.5
 22
105.0
 13
0.0
 23
0.0
 14
10.0
 24
10.0
 15
10.0
 25
10.0
 16
0.0
 26
0.0
 36
1.0
 17
0.0
 27
0.0
 37
0.0
 40
210.0
 41
1.4142857143
 42
50.0
 43
0.0
 44
0.0
 50
0.0
 51
0.0
 71
     0
 72
  2000
 73
     1
 74
     3
 75
     0
 76
     0
 77
     0
 78
     0
281
     0
 65
     1
110
0.0
120
0.0
130
0.0
111
1.0
121
0.0
131
0.0
112
0.0
122
1.0
132
0.0
 79
     0
146
0.0
  0
ENDTAB
  0
TABLE
  2
LTYPE
  5
5
330
0
100
AcDbSymbolTable
 70
     6
  0
LTYPE
  5
14
330
5
100
AcDbSymbolTableRecord
100
AcDbLinetypeTableRecord
  2
ByBlock
 70
     0
  3

 72
    65
 73
     0
 40
0.0
  0
LTYPE
  5
15
330
5
100
AcDbSymbolTableRecord
100
AcDbLinetypeTableRecord
  2
ByLayer
 70
     0
  3

 72
    65
 73
     0
 40
0.0
  0
LTYPE
  5
16
330
5
100
AcDbSymbolTableRecord
100
AcDbLinetypeTableRecord
  2
Continuous
 70
     0
  3
Solid line
 72
    65
 73
     0
 40
0.0
  0
LTYPE
  5
5E
330
5
100
AcDbSymbolTableRecord
100
AcDbLinetypeTableRecord
  2
HIDDEN
 70
     0
  3
Hidden __ __ __ __ __ __ __ __ __ __ __ __ __ __
 72
    65
 73
     2
 40
1.905
 49
1.27
 74
     0
 49
-0.635
 74
     0
  0
LTYPE
  5
5F
330
5
100
AcDbSymbolTableRecord
100
AcDbLinetypeTableRecord
  2
PHANTOM
 70
     0
  3
Phantom ______  __  __  ______  __  __  ______
 72
    65
 73
     6
 40
12.7
 49
6.35
 74
     0
 49
-1.27
 74
     0
 49
1.27
 74
     0
 49
-1.27
 74
     0
 49
1.27
 74
     0
 49
-1.27
 74
     0
  0
LTYPE
  5
60
330
5
100
AcDbSymbolTableRecord
100
AcDbLinetypeTableRecord
  2
CENTER
 70
     0
  3
Center ____ _ ____ _ ____ _ ____ _ ____ _ ____
 72
    65
 73
     4
 40
10.16
 49
6.35
 74
     0
 49
-1.27
 74
     0
 49
1.27
 74
     0
 49
-1.27
 74
     0
  0
LTYPE
  5
61
330
5
100
AcDbSymbolTableRecord
100
AcDbLinetypeTableRecord
  2
CENTERX2
 70
     0
  3
Center (2x) ________  __  ________  __  _____
 72
    65
 73
     4
 40
20.32
 49
12.7
 74
     0
 49
-2.54
 74
     0
 49
2.54
 74
     0
 49
-2.54
 74
     0
  0
LTYPE
  5
62
330
5
100
AcDbSymbolTableRecord
100
AcDbLinetypeTableRecord
  2
DOT2
 70
     0
  3
Dot (.5x) ........................................
 72
    65
 73
     2
 40
0.635
 49
0.0
 74
     0
 49
-0.635
 74
     0
  0
ENDTAB
  0
TABLE
  2
LAYER
  5
2
330
0
100
AcDbSymbolTable
 70
    14
  0
LAYER
  5
10
330
2
100
AcDbSymbolTableRecord
100
AcDbLayerTableRecord
  2
0
 70
     0
 62
     7
  6
Continuous
370
    -3
390
F
  0
LAYER
  5
63
330
2
100
AcDbSymbolTableRecord
100
AcDbLayerTableRecord
  2
SLD-0
 70
     0
 62
     7
  6
Continuous
370
    -3
390
F
  0
LAYER
  5
64
330
2
100
AcDbSymbolTableRecord
100
AcDbLayerTableRecord
  2
5
 70
     0
 62
     7
  6
Continuous
370
    -3
390
F
  0
LAYER
  5
65
330
2
100
AcDbSymbolTableRecord
100
AcDbLayerTableRecord
  2
9
 70
     0
 62
     7
  6
Continuous
370
    -3
390
F
  0
LAYER
  5
66
330
2
100
AcDbSymbolTableRecord
100
AcDbLayerTableRecord
  2
10
 70
     0
 62
     7
  6
Continuous
370
    -3
390
F
  0
LAYER
  5
67
330
2
100
AcDbSymbolTableRecord
100
AcDbLayerTableRecord
  2
轮廓实线层
 70
     0
 62
     7
  6
Continuous
370
    50
390
F
  0
LAYER
  5
68
330
2
100
AcDbSymbolTableRecord
100
AcDbLayerTableRecord
  2
细线层
 70
     0
 62
     4
  6
Continuous
370
    25
390
F
  0
LAYER
  5
69
330
2
100
AcDbSymbolTableRecord
100
AcDbLayerTableRecord
  2
中心线层
 70
     0
 62
     1
  6
CENTERX2
370
    25
390
F
  0
LAYER
  5
6A
330
2
100
AcDbSymbolTableRecord
100
AcDbLayerTableRecord
  2
虚线层
 70
     0
 62
     6
  6
HIDDEN
370
    25
390
F
  0
LAYER
  5
6B
330
2
100
AcDbSymbolTableRecord
100
AcDbLayerTableRecord
  2
剖面线层
 70
     0
 62
     2
  6
Continuous
370
    25
390
F
  0
LAYER
  5
6C
330
2
100
AcDbSymbolTableRecord
100
AcDbLayerTableRecord
  2
文字层
 70
     0
 62
     3
  6
Continuous
370
    25
390
F
  0
LAYER
  5
6D
330
2
100
AcDbSymbolTableRecord
100
AcDbLayerTableRecord
  2
标注层
 70
     0
 62
     4
  6
Continuous
370
    25
390
F
  0
LAYER
  5
6E
330
2
100
AcDbSymbolTableRecord
100
AcDbLayerTableRecord
  2
符号标注层
 70
     0
 62
    31
  6
Continuous
370
    25
390
F
  0
LAYER
  5
6F
330
2
100
AcDbSymbolTableRecord
100
AcDbLayerTableRecord
  2
双点划线层
 70
     0
 62
     6
  6
PHANTOM
370
    25
390
F
  0
ENDTAB
  0
TABLE
  2
STYLE
  5
3
330
0
100
AcDbSymbolTable
 70
     1
  0
STYLE
  5
11
330
3
100
AcDbSymbolTableRecord
100
AcDbTextStyleTableRecord
  2
Standard
 70
     0
 40
0.0
 41
1.0
 50
0.0
 71
     0
 42
3.5
  3
txt
  4

  0
ENDTAB
  0
TABLE
  2
VIEW
  5
6
330
0
100
AcDbSymbolTable
 70
     0
  0
ENDTAB
  0
TABLE
  2
UCS
  5
7
330
0
100
AcDbSymbolTable
 70
     0
  0
ENDTAB
  0
TABLE
  2
APPID
  5
9
330
0
100
AcDbSymbolTable
 70
     1
  0
APPID
  5
12
330
9
100
AcDbSymbolTableRecord
100
AcDbRegAppTableRecord
  2
ACAD
 70
     0
  0
ENDTAB
  0
TABLE
  2
DIMSTYLE
  5
A
330
0
100
AcDbSymbolTable
 70
     1
100
AcDbDimStyleTable
  0
DIMSTYLE
105
27
330
A
100
AcDbSymbolTableRecord
100
AcDbDimStyleTableRecord
  2
ISO-25
 70
     0
 41
2.5
 42
0.625
 43
3.75
 44
1.25
 73
     0
 74
     0
 77
     1
 78
     8
140
2.5
141
2.5
143
0.0393700787
147
0.625
171
     3
172
     1
178
     0
271
     2
272
     2
274
     3
278
    44
283
     0
284
     8
340
11
  0
ENDTAB
  0
TABLE
  2
BLOCK_RECORD
  5
1
330
0
100
AcDbSymbolTable
 70
     6
  0
BLOCK_RECORD
  5
1F
330
1
100
AcDbSymbolTableRecord
100
AcDbBlockTableRecord
  2
*Model_Space
340
22
  0
BLOCK_RECORD
  5
1B
330
1
100
AcDbSymbolTableRecord
100
AcDbBlockTableRecord
  2
*Paper_Space
340
1E
  0
BLOCK_RECORD
  5
23
330
1
100
AcDbSymbolTableRecord
100
AcDbBlockTableRecord
  2
*Paper_Space0
340
26
  0
BLOCK_RECORD
  5
E8
330
1
100
AcDbSymbolTableRecord
100
AcDbBlockTableRecord
  2
SW_CENTERMARKSYMBOL_0
340
0
102
{BLKREFS
331
F3
102
}
  0
BLOCK_RECORD
  5
F4
330
1
100
AcDbSymbolTableRecord
100
AcDbBlockTableRecord
  2
SW_CENTERMARKSYMBOL_1
340
0
102
{BLKREFS
331
FF
102
}
  0
BLOCK_RECORD
  5
100
330
1
100
AcDbSymbolTableRecord
100
AcDbBlockTableRecord
  2
SW_CENTERMARKSYMBOL_2
340
0
102
{BLKREFS
331
10B
102
}
  0
BLOCK_RECORD
  5
10C
330
1
100
AcDbSymbolTableRecord
100
AcDbBlockTableRecord
  2
SW_CENTERMARKSYMBOL_3
340
0
102
{BLKREFS
331
117
102
}
  0
BLOCK_RECORD
  5
1C3
330
1
100
AcDbSymbolTableRecord
100
AcDbBlockTableRecord
  2
SW_CENTERMARKSYMBOL_4
340
0
102
{BLKREFS
331
1CE
102
}
  0
ENDTAB
  0
ENDSEC
  0
SECTION
  2
BLOCKS
  0
BLOCK
  5
20
330
1F
100
AcDbEntity
  8
0
100
AcDbBlockBegin
  2
*Model_Space
 70
     0
 10
0.0
 20
0.0
 30
0.0
  3
*Model_Space
  1

  0
ENDBLK
  5
21
330
1F
100
AcDbEntity
  8
0
100
AcDbBlockEnd
  0
BLOCK
  5
1C
330
1B
100
AcDbEntity
 67
     1
  8
0
100
AcDbBlockBegin
  2
*Paper_Space
 70
     0
 10
0.0
 20
0.0
 30
0.0
  3
*Paper_Space
  1

  0
ENDBLK
  5
1D
330
1B
100
AcDbEntity
 67
     1
  8
0
100
AcDbBlockEnd
  0
BLOCK
  5
24
330
23
100
AcDbEntity
  8
0
100
AcDbBlockBegin
  2
*Paper_Space0
 70
     0
 10
0.0
 20
0.0
 30
0.0
  3
*Paper_Space0
  1

  0
ENDBLK
  5
25
330
23
100
AcDbEntity
  8
0
100
AcDbBlockEnd
  0
BLOCK
  5
E9
330
E8
100
AcDbEntity
  8
0
100
AcDbBlockBegin
  2
SW_CENTERMARKSYMBOL_0
 70
     0
 10
0.0
 20
0.0
 30
0.0
  3
SW_CENTERMARKSYMBOL_0
  1

  0
LINE
  5
EB
330
E8
100
AcDbEntity
  8
10
 62
     0
100
AcDbLine
 10
0.0
 20
0.0
 30
0.0
 11
0.0
 21
2.5
 31
0.0
  0
LINE
  5
EC
330
E8
100
AcDbEntity
  8
10
 62
     0
100
AcDbLine
 10
0.0
 20
0.0
 30
0.0
 11
-2.5
 21
0.0
 31
0.0
  0
LINE
  5
ED
330
E8
100
AcDbEntity
  8
10
 62
     0
100
AcDbLine
 10
0.0
 20
0.0
 30
0.0
 11
0.0
 21
-2.5
 31
0.0
  0
LINE
  5
EE
330
E8
100
AcDbEntity
  8
10
 62
     0
100
AcDbLine
 10
0.0
 20
0.0
 30
0.0
 11
2.5
 21
0.0
 31
0.0
  0
LINE
  5
EF
330
E8
100
AcDbEntity
  8
10
 62
     0
100
AcDbLine
 10
0.0
 20
5.0
 30
0.0
 11
0.0
 21
5.6249999961
 31
0.0
  0
LINE
  5
F0
330
E8
100
AcDbEntity
  8
10
 62
     0
100
AcDbLine
 10
-5.0
 20
0.0
 30
0.0
 11
-5.6249999961
 21
0.0
 31
0.0
  0
LINE
  5
F1
330
E8
100
AcDbEntity
  8
10
 62
     0
100
AcDbLine
 10
0.0
 20
-5.0
 30
0.0
 11
0.0
 21
-5.6249999961
 31
0.0
  0
LINE
  5
F2
330
E8
100
AcDbEntity
  8
10
 62
     0
100
AcDbLine
 10
5.0
 20
0.0
 30
0.0
 11
5.6249999961
 21
0.0
 31
0.0
  0
ENDBLK
  5
EA
330
E8
100
AcDbEntity
  8
0
100
AcDbBlockEnd
  0
BLOCK
  5
F5
330
F4
100
AcDbEntity
  8
0
100
AcDbBlockBegin
  2
SW_CENTERMARKSYMBOL_1
 70
     0
 10
0.0
 20
0.0
 30
0.0
  3
SW_CENTERMARKSYMBOL_1
  1

  0
LINE
  5
F7
330
F4
100
AcDbEntity
  8
10
 62
     0
100
AcDbLine
 10
0.0
 20
0.0
 30
0.0
 11
0.0
 21
2.5
 31
0.0
  0
LINE
  5
F8
330
F4
100
AcDbEntity
  8
10
 62
     0
100
AcDbLine
 10
0.0
 20
0.0
 30
0.0
 11
-2.5
 21
0.0
 31
0.0
  0
LINE
  5
F9
330
F4
100
AcDbEntity
  8
10
 62
     0
100
AcDbLine
 10
0.0
 20
0.0
 30
0.0
 11
0.0
 21
-2.5
 31
0.0
  0
LINE
  5
FA
330
F4
100
AcDbEntity
  8
10
 62
     0
100
AcDbLine
 10
0.0
 20
0.0
 30
0.0
 11
2.5
 21
0.0
 31
0.0
  0
LINE
  5
FB
330
F4
100
AcDbEntity
  8
10
 62
     0
100
AcDbLine
 10
0.0
 20
5.0
 30
0.0
 11
0.0
 21
5.6249999961
 31
0.0
  0
LINE
  5
FC
330
F4
100
AcDbEntity
  8
10
 62
     0
100
AcDbLine
 10
-5.0
 20
0.0
 30
0.0
 11
-5.6249999961
 21
0.0
 31
0.0
  0
LINE
  5
FD
330
F4
100
AcDbEntity
  8
10
 62
     0
100
AcDbLine
 10
0.0
 20
-5.0
 30
0.0
 11
0.0
 21
-5.6249999961
 31
0.0
  0
LINE
  5
FE
330
F4
100
AcDbEntity
  8
10
 62
     0
100
AcDbLine
 10
5.0
 20
0.0
 30
0.0
 11
5.6249999961
 21
0.0
 31
0.0
  0
ENDBLK
  5
F6
330
F4
100
AcDbEntity
  8
0
100
AcDbBlockEnd
  0
BLOCK
  5
101
330
100
100
AcDbEntity
  8
0
100
AcDbBlockBegin
  2
SW_CENTERMARKSYMBOL_2
 70
     0
 10
0.0
 20
0.0
 30
0.0
  3
SW_CENTERMARKSYMBOL_2
  1

  0
LINE
  5
103
330
100
100
AcDbEntity
  8
10
 62
     0
100
AcDbLine
 10
0.0
 20
0.0
 30
0.0
 11
0.0
 21
2.5
 31
0.0
  0
LINE
  5
104
330
100
100
AcDbEntity
  8
10
 62
     0
100
AcDbLine
 10
0.0
 20
0.0
 30
0.0
 11
-2.5
 21
0.0
 31
0.0
  0
LINE
  5
105
330
100
100
AcDbEntity
  8
10
 62
     0
100
AcDbLine
 10
0.0
 20
0.0
 30
0.0
 11
0.0
 21
-2.5
 31
0.0
  0
LINE
  5
106
330
100
100
AcDbEntity
  8
10
 62
     0
100
AcDbLine
 10
0.0
 20
0.0
 30
0.0
 11
2.5
 21
0.0
 31
0.0
  0
LINE
  5
107
330
100
100
AcDbEntity
  8
10
 62
     0
100
AcDbLine
 10
0.0
 20
5.0
 30
0.0
 11
0.0
 21
5.6249999961
 31
0.0
  0
LINE
  5
108
330
100
100
AcDbEntity
  8
10
 62
     0
100
AcDbLine
 10
-5.0
 20
0.0
 30
0.0
 11
-5.6249999961
 21
0.0
 31
0.0
  0
LINE
  5
109
330
100
100
AcDbEntity
  8
10
 62
     0
100
AcDbLine
 10
0.0
 20
-5.0
 30
0.0
 11
0.0
 21
-5.6249999961
 31
0.0
  0
LINE
  5
10A
330
100
100
AcDbEntity
  8
10
 62
     0
100
AcDbLine
 10
5.0
 20
0.0
 30
0.0
 11
5.6249999961
 21
0.0
 31
0.0
  0
ENDBLK
  5
102
330
100
100
AcDbEntity
  8
0
100
AcDbBlockEnd
  0
BLOCK
  5
10D
330
10C
100
AcDbEntity
  8
0
100
AcDbBlockBegin
  2
SW_CENTERMARKSYMBOL_3
 70
     0
 10
0.0
 20
0.0
 30
0.0
  3
SW_CENTERMARKSYMBOL_3
  1

  0
LINE
  5
10F
330
10C
100
AcDbEntity
  8
10
 62
     0
100
AcDbLine
 10
0.0
 20
0.0
 30
0.0
 11
0.0
 21
2.5
 31
0.0
  0
LINE
  5
110
330
10C
100
AcDbEntity
  8
10
 62
     0
100
AcDbLine
 10
0.0
 20
0.0
 30
0.0
 11
-2.5
 21
0.0
 31
0.0
  0
LINE
  5
111
330
10C
100
AcDbEntity
  8
10
 62
     0
100
AcDbLine
 10
0.0
 20
0.0
 30
0.0
 11
0.0
 21
-2.5
 31
0.0
  0
LINE
  5
112
330
10C
100
AcDbEntity
  8
10
 62
     0
100
AcDbLine
 10
0.0
 20
0.0
 30
0.0
 11
2.5
 21
0.0
 31
0.0
  0
LINE
  5
113
330
10C
100
AcDbEntity
  8
10
 62
     0
100
AcDbLine
 10
0.0
 20
5.0
 30
0.0
 11
0.0
 21
5.6249999961
 31
0.0
  0
LINE
  5
114
330
10C
100
AcDbEntity
  8
10
 62
     0
100
AcDbLine
 10
-5.0
 20
0.0
 30
0.0
 11
-5.6249999961
 21
0.0
 31
0.0
  0
LINE
  5
115
330
10C
100
AcDbEntity
  8
10
 62
     0
100
AcDbLine
 10
0.0
 20
-5.0
 30
0.0
 11
0.0
 21
-5.6249999961
 31
0.0
  0
LINE
  5
116
330
10C
100
AcDbEntity
  8
10
 62
     0
100
AcDbLine
 10
5.0
 20
0.0
 30
0.0
 11
5.6249999961
 21
0.0
 31
0.0
  0
ENDBLK
  5
10E
330
10C
100
AcDbEntity
  8
0
100
AcDbBlockEnd
  0
BLOCK
  5
1C4
330
1C3
100
AcDbEntity
  8
0
100
AcDbBlockBegin
  2
SW_CENTERMARKSYMBOL_4
 70
     0
 10
0.0
 20
0.0
 30
0.0
  3
SW_CENTERMARKSYMBOL_4
  1

  0
LINE
  5
1C6
330
1C3
100
AcDbEntity
  8
10
 62
     0
100
AcDbLine
 10
0.0
 20
0.0
 30
0.0
 11
0.0
 21
2.5
 31
0.0
  0
LINE
  5
1C7
330
1C3
100
AcDbEntity
  8
10
 62
     0
100
AcDbLine
 10
0.0
 20
0.0
 30
0.0
 11
-2.5
 21
0.0
 31
0.0
  0
LINE
  5
1C8
330
1C3
100
AcDbEntity
  8
10
 62
     0
100
AcDbLine
 10
0.0
 20
0.0
 30
0.0
 11
0.0
 21
-2.5
 31
0.0
  0
LINE
  5
1C9
330
1C3
100
AcDbEntity
  8
10
 62
     0
100
AcDbLine
 10
0.0
 20
0.0
 30
0.0
 11
2.5
 21
0.0
 31
0.0
  0
LINE
  5
1CA
330
1C3
100
AcDbEntity
  8
10
 62
     0
100
AcDbLine
 10
0.0
 20
5.0
 30
0.0
 11
0.0
 21
7.7083333269
 31
0.0
  0
LINE
  5
1CB
330
1C3
100
AcDbEntity
  8
10
 62
     0
100
AcDbLine
 10
-5.0
 20
0.0
 30
0.0
 11
-7.7083333269
 21
0.0
 31
0.0
  0
LINE
  5
1CC
330
1C3
100
AcDbEntity
  8
10
 62
     0
100
AcDbLine
 10
0.0
 20
-5.0
 30
0.0
 11
0.0
 21
-7.7083333269
 31
0.0
  0
LINE
  5
1CD
330
1C3
100
AcDbEntity
  8
10
 62
     0
100
AcDbLine
 10
5.0
 20
0.0
 30
0.0
 11
7.7083333269
 21
0.0
 31
0.0
  0
ENDBLK
  5
1C5
330
1C3
100
AcDbEntity
  8
0
100
AcDbBlockEnd
  0
ENDSEC
  0
SECTION
  2
ENTITIES
  0
LINE
  5
70
330
1F
100
AcDbEntity
  8
0
  6
Continuous
 62
     7
370
    25
100
AcDbLine
 10
73.7291663677
 20
79.2008857654
 30
0.0
 11
73.7291663677
 21
50.0756231414
 31
0.0
  0
LINE
  5
71
330
1F
100
AcDbEntity
  8
0
  6
Continuous
 62
     7
370
    25
100
AcDbLine
 10
63.312499714
 20
75.2189373333
 30
0.0
 11
63.312499714
 21
53.6098715155
 31
0.0
  0
LINE
  5
72
330
1F
100
AcDbEntity
  8
0
  6
Continuous
 62
     7
370
    25
100
AcDbLine
 10
79.3541663608
 20
50.0756231414
 30
0.0
 11
79.3541663608
 21
79.2008857654
 31
0.0
  0
LINE
  5
73
330
1F
100
AcDbEntity
  8
0
  6
Continuous
 62
     7
370
    25
100
AcDbLine
 10
86.6458330184
 20
79.2008857654
 30
0.0
 11
86.6458330184
 21
50.0756231414
 31
0.0
  0
LINE
  5
74
330
1F
100
AcDbEntity
  8
0
  6
Continuous
 62
     7
370
    25
100
AcDbLine
 10
107.0624996597
 20
53.6098715155
 30
0.0
 11
107.0624996597
 21
75.2189373333
 31
0.0
  0
LINE
  5
75
330
1F
100
AcDbEntity
  8
0
  6
Continuous
 62
     7
370
    25
100
AcDbLine
 10
92.2708330114
 20
50.0756231414
 30
0.0
 11
92.2708330114
 21
79.2008857654
 31
0.0
  0
ARC
  5
76
330
1F
100
AcDbEntity
  8
0
  6
Continuous
 62
     7
370
    25
100
AcDbCircle
 10
71.645833037
 20
36.4135972442
 30
0.0
 40
2.083333330746328
100
AcDbArc
 50
270.0
 51
0.0
  0
LINE
  5
77
330
1F
100
AcDbEntity
  8
0
  6
Continuous
 62
     7
370
    25
100
AcDbLine
 10
60.2017457777
 20
34.3302639134
 30
0.0
 11
71.645833037
 21
34.3302639134
 31
0.0
  0
LINE
  5
78
330
1F
100
AcDbEntity
  8
0
  6
Continuous
 62
     7
370
    25
100
AcDbLine
 10
73.7291663677
 20
50.0756231414
 30
0.0
 11
73.7291663677
 21
36.4135972442
 31
0.0
  0
LINE
  5
79
330
1F
100
AcDbEntity
  8
0
  6
Continuous
 62
     7
370
    25
100
AcDbLine
 10
63.312499714
 20
53.6098715155
 30
0.0
 11
63.312499714
 21
45.745496329
 31
0.0
  0
LINE
  5
7A
330
1F
100
AcDbEntity
  8
0
  6
Continuous
 62
     7
370
    25
100
AcDbLine
 10
107.2275973767
 20
34.3302617303
 30
0.0
 11
94.3541663421
 21
34.3302617303
 31
0.0
  0
ARC
  5
7B
330
1F
100
AcDbEntity
  8
0
  6
Continuous
 62
     7
370
    25
100
AcDbCircle
 10
94.3541663421
 20
36.413595061
 30
0.0
 40
2.083333330746328
100
AcDbArc
 50
180.0
 51
270.0
  0
LINE
  5
7C
330
1F
100
AcDbEntity
  8
0
  6
Continuous
 62
     7
370
    25
100
AcDbLine
 10
92.2708330114
 20
36.413595061
 30
0.0
 11
92.2708330114
 21
50.0756231414
 31
0.0
  0
LINE
  5
7D
330
1F
100
AcDbEntity
  8
0
  6
Continuous
 62
     7
370
    25
100
AcDbLine
 10
107.0624996597
 20
43.1437493039
 30
0.0
 11
107.0624996597
 21
53.6098715155
 31
0.0
  0
ARC
  5
7E
330
1F
100
AcDbEntity
  8
0
  6
Continuous
 62
     7
370
    25
100
AcDbCircle
 10
85.604166353
 20
35.3722035144
 30
0.0
 40
1.041666665373171
100
AcDbArc
 50
270.0
 51
0.0
  0
LINE
  5
7F
330
1F
100
AcDbEntity
  8
0
  6
Continuous
 62
     7
370
    25
100
AcDbLine
 10
85.604166353
 20
34.330536849
 30
0.0
 11
80.3958330261
 21
34.330536849
 31
0.0
  0
ARC
  5
80
330
1F
100
AcDbEntity
  8
0
  6
Continuous
 62
     7
370
    25
100
AcDbCircle
 10
80.3958330261
 20
35.3722035144
 30
0.0
 40
1.041666665373157
100
AcDbArc
 50
180.0
 51
270.0
  0
LINE
  5
81
330
1F
100
AcDbEntity
  8
0
  6
Continuous
 62
     7
370
    25
100
AcDbLine
 10
79.3541663608
 20
35.3722035144
 30
0.0
 11
79.3541663608
 21
50.0756231414
 31
0.0
  0
LINE
  5
82
330
1F
100
AcDbEntity
  8
0
  6
Continuous
 62
     7
370
    25
100
AcDbLine
 10
86.6458330184
 20
50.0756231414
 30
0.0
 11
86.6458330184
 21
35.3722035144
 31
0.0
  0
LINE
  5
83
330
1F
100
AcDbEntity
  8
0
  6
Continuous
 62
     7
370
    25
100
AcDbLine
 10
107.0624996597
 20
75.2189373333
 30
0.0
 11
107.0624996597
 21
83.368546365
 31
0.0
  0
LINE
  5
84
330
1F
100
AcDbEntity
  8
0
  6
Continuous
 62
     7
370
    25
100
AcDbLine
 10
92.2708330114
 20
82.000000031
 30
0.0
 11
86.6458330184
 21
82.000000031
 31
0.0
  0
LINE
  5
85
330
1F
100
AcDbEntity
  8
0
  6
Continuous
 62
     7
370
    25
100
AcDbLine
 10
79.3541663608
 20
82.000000031
 30
0.0
 11
73.7291663677
 21
82.000000031
 31
0.0
  0
LINE
  5
86
330
1F
100
AcDbEntity
  8
0
  6
Continuous
 62
     7
370
    25
100
AcDbLine
 10
54.456031245
 20
102.8333333385
 30
0.0
 11
64.7250697907
 21
102.8333333385
 31
0.0
  0
LINE
  5
87
330
1F
100
AcDbEntity
  8
0
  6
Continuous
 62
     7
370
    25
100
AcDbLine
 10
64.7250697907
 20
102.8333333385
 30
0.0
 11
101.2749295885
 21
102.8333333385
 31
0.0
  0
LINE
  5
88
330
1F
100
AcDbEntity
  8
0
  6
Continuous
 62
     7
370
    25
100
AcDbLine
 10
101.2749295885
 20
102.8333333385
 30
0.0
 11
111.9946508016
 21
102.8333333385
 31
0.0
  0
LINE
  5
89
330
1F
100
AcDbEntity
  8
0
  6
Continuous
 62
     7
370
    25
100
AcDbLine
 10
79.3541663608
 20
79.2008857654
 30
0.0
 11
79.3541663608
 21
82.000000031
 31
0.0
  0
LINE
  5
8A
330
1F
100
AcDbEntity
  8
0
  6
Continuous
 62
     7
370
    25
100
AcDbLine
 10
86.6458330184
 20
82.000000031
 30
0.0
 11
86.6458330184
 21
79.2008857654
 31
0.0
  0
LINE
  5
8B
330
1F
100
AcDbEntity
  8
0
  6
Continuous
 62
     7
370
    25
100
AcDbLine
 10
92.2708330114
 20
79.2008857654
 30
0.0
 11
92.2708330114
 21
82.000000031
 31
0.0
  0
LINE
  5
8C
330
1F
100
AcDbEntity
  8
0
  6
Continuous
 62
     7
370
    25
100
AcDbLine
 10
73.7291663677
 20
82.000000031
 30
0.0
 11
73.7291663677
 21
79.2008857654
 31
0.0
  0
LINE
  5
8D
330
1F
100
AcDbEntity
  8
0
  6
Continuous
 62
     7
370
    25
100
AcDbLine
 10
63.312499714
 20
79.978140869
 30
0.0
 11
63.312499714
 21
75.2189373333
 31
0.0
  0
SPLINE
  5
8E
330
1F
100
AcDbEntity
  8
0
  6
Continuous
 62
     7
370
    25
100
AcDbSpline
210
0.0
220
0.0
230
1.0
 70
     8
 71
     3
 72
    21
 73
    17
 74
     0
 42
0.00000001
 43
0.00000001
 40
0.0
 40
0.0
 40
0.0
 40
0.0
 40
0.0124942788516905
 40
0.0319196814007603
 40
0.0584098188328952
 40
0.0918972734532186
 40
0.1322178312732111
 40
0.1791375435583753
 40
0.2323627831639778
 40
0.2915461771491295
 40
0.3562927982162264
 40
0.4261691874267992
 40
0.5007176965873733
 40
0.7653589904399463
 40
0.9265665112829137
 40
0.9999999999999999
 40
0.9999999999999999
 40
0.9999999999999999
 40
0.9999999999999999
 10
54.45282772751467
 20
102.8274883775892
 30
0.0
 10
54.4463255378997
 20
102.8294982543786
 30
0.0
 10
54.42971410931058
 20
102.8346329746402
 30
0.0
 10
54.39777686556808
 20
102.8367630648549
 30
0.0
 10
54.35466152885779
 20
102.8381752544806
 30
0.0
 10
54.3000309859597
 20
102.8369681778719
 30
0.0
 10
54.23442022276494
 20
102.833551139643
 30
0.0
 10
54.15820477683653
 20
102.8273946264907
 30
0.0
 10
54.07196825840588
 20
102.8182322300477
 30
0.0
 10
53.97636873004002
 20
102.8056068350307
 30
0.0
 10
53.87219520564783
 20
102.7889835176802
 30
0.0
 10
53.76032404541406
 20
102.7677341860975
 30
0.0
 10
53.54320628378579
 20
102.7185277768007
 30
0.0
 10
53.2819245876107
 20
102.6374121874846
 30
0.0
 10
53.03688653007992
 20
102.5176330870578
 30
0.0
 10
52.92945495511303
 20
102.4485224825938
 30
0.0
 10
52.8958330602747
 20
102.4268935576133
 30
0.0
  0
SPLINE
  5
8F
330
1F
100
AcDbEntity
  8
0
  6
Continuous
 62
     7
370
    25
100
AcDbSpline
210
0.0
220
0.0
230
1.0
 70
     8
 71
     3
 72
    21
 73
    17
 74
     0
 42
0.00000001
 43
0.00000001
 40
0.0
 40
0.0
 40
0.0
 40
0.0
 40
0.0584104680953423
 40
0.1176983299600468
 40
0.1780222671271366
 40
0.2395360214410377
 40
0.3023888253825932
 40
0.3667261935310488
 40
0.4326911691855816
 40
0.5004261409687483
 40
0.579591307080792
 40
0.660284340979673
 40
0.7426102013383636
 40
0.8266429055079207
 40
0.912429437180703
 40
0.9999999999999999
 40
0.9999999999999999
 40
0.9999999999999999
 40
0.9999999999999999
 10
52.8958330602747
 20
36.63938174108726
 30
0.0
 10
53.02119074737725
 20
36.56123196318507
 30
0.0
 10
53.27378914113675
 20
36.40375850601603
 30
0.0
 10
53.66291918351894
 20
36.17721000501962
 30
0.0
 10
54.06432400662619
 20
35.95646427683888
 30
0.0
 10
54.47984878165609
 20
35.74302582870528
 30
0.0
 10
54.91066080340381
 20
35.53758003190133
 30
0.0
 10
55.35806729401715
 20
35.3413151047445
 30
0.0
 10
55.82329991713281
 20
35.15562063152201
 30
0.0
 10
56.33021379083669
 20
34.97408411964655
 30
0.0
 10
56.8798289978742
 20
34.80250887726439
 30
0.0
 10
57.47262428878469
 20
34.64764478584983
 30
0.0
 10
58.08433477843199
 20
34.51914730111493
 30
0.0
 10
58.71456024553332
 20
34.42069943989498
 30
0.0
 10
59.3623737521015
 20
34.35208130365309
 30
0.0
 10
59.80066538258075
 20
34.33759818424442
 30
0.0
 10
60.02206644420161
 20
34.33028210109413
 30
0.0
  0
SPLINE
  5
90
330
1F
100
AcDbEntity
  8
0
  6
Continuous
 62
     7
370
    25
100
AcDbSpline
210
0.0
220
0.0
230
1.0
 70
    24
 71
     3
 72
     8
 73
     4
 74
     0
 42
0.00000001
 43
0.00000001
 40
0.0
 40
0.0
 40
0.0
 40
0.0
 40
0.0001782191200852
 40
0.0001782191200852
 40
0.0001782191200852
 40
0.0001782191200852
 10
60.02206741981627
 20
34.33026391341673
 30
0.0
 10
60.08145606282009
 20
34.33026391341673
 30
0.0
 10
60.14086584403505
 20
34.33026391341673
 30
0.0
 10
60.20027219271798
 20
34.33026391341673
 30
0.0
  0
SPLINE
  5
91
330
1F
100
AcDbEntity
  8
0
  6
Continuous
 62
     7
370
    25
100
AcDbSpline
210
0.0
220
0.0
230
1.0
 70
     8
 71
     3
 72
    18
 73
    14
 74
     0
 42
0.00000001
 43
0.00000001
 40
0.0
 40
0.0
 40
0.0
 40
0.0
 40
0.0841995656652988
 40
0.2436833456854428
 40
0.4991931088075351
 40
0.5986317429078766
 40
0.6900473268593611
 40
0.7719171064155211
 40
0.8428897085269541
 40
0.9018443757303165
 40
0.9479290721201865
 40
0.9806225555165974
 40
1.0
 40
1.0
 40
1.0
 40
1.0
 10
113.3124996519182
 20
102.4268935576133
 30
0.0
 10
113.2820371464147
 20
102.4520148245373
 30
0.0
 10
113.1938751089932
 20
102.5247186956739
 30
0.0
 10
112.9911289467797
 20
102.6443088608747
 30
0.0
 10
112.762723156668
 20
102.725935456511
 30
0.0
 10
112.559983415641
 20
102.7774897004977
 30
0.0
 10
112.4345781839896
 20
102.8024801127446
 30
0.0
 10
112.3214472774442
 20
102.8202068490754
 30
0.0
 10
112.2228633768586
 20
102.8316233070234
 30
0.0
 10
112.1405060908618
 20
102.8381857013399
 30
0.0
 10
112.0761583245154
 20
102.8391589724633
 30
0.0
 10
112.02966389449
 20
102.8386778682151
 30
0.0
 10
112.0063003864576
 20
102.8314585580329
 30
0.0
 10
111.9976059940534
 20
102.8287719959155
 30
0.0
  0
SPLINE
  5
92
330
1F
100
AcDbEntity
  8
0
  6
Continuous
 62
     7
370
    25
100
AcDbSpline
210
0.0
220
0.0
230
1.0
 70
     8
 71
     3
 72
    22
 73
    18
 74
     0
 42
0.00000001
 43
0.00000001
 40
0.0
 40
0.0
 40
0.0
 40
0.0
 40
0.0527286727869475
 40
0.1047791728474366
 40
0.1561935014892271
 40
0.2070152373243051
 40
0.2572894999977627
 40
0.3070628980322002
 40
0.3563834599399301
 40
0.4053005480826154
 40
0.4538647551521149
 40
0.5471002095729821
 40
0.6389311213661953
 40
0.7297387277245869
 40
0.8199172451018935
 40
0.9098691613252761
 40
1.0
 40
1.0
 40
1.0
 40
1.0
 10
113.3124996519182
 20
36.63938174108726
 30
0.0
 10
113.2236545802097
 20
36.56799130996495
 30
0.0
 10
113.0471071225713
 20
36.42612863967849
 30
0.0
 10
112.7765896401068
 20
36.22405226037655
 30
0.0
 10
112.5041388477332
 20
36.03170160533305
 30
0.0
 10
112.2292337829945
 20
35.84971483930715
 30
0.0
 10
111.9520112926816
 20
35.67792565652661
 30
0.0
 10
111.672435694497
 20
35.51637749028735
 30
0.0
 10
111.3905152195918
 20
35.36506612246421
 30
0.0
 10
111.1062529630038
 20
35.22397203310532
 30
0.0
 10
110.7311870752805
 20
35.05282483924395
 30
0.0
 10
110.262130277527
 20
34.86483719652545
 30
0.0
 10
109.6953237793637
 20
34.67847328416276
 30
0.0
 10
109.1239188594033
 20
34.53099804944436
 30
0.0
 10
108.5479545382701
 20
34.42335170172993
 30
0.0
 10
107.9675181064763
 20
34.35202067468084
 30
0.0
 10
107.5784156133587
 20
34.33751951432416
 30
0.0
 10
107.3836710690798
 20
34.33026173028234
 30
0.0
  0
SPLINE
  5
93
330
1F
100
AcDbEntity
  8
0
  6
Continuous
 62
     7
370
    25
100
AcDbSpline
210
0.0
220
0.0
230
1.0
 70
    24
 71
     3
 72
     8
 73
     4
 74
     0
 42
0.00000001
 43
0.00000001
 40
0.0000000001017461
 40
0.0000000001017461
 40
0.0000000001017461
 40
0.0000000001017461
 40
0.0001560842418805
 40
0.0001560842418805
 40
0.0001560842418805
 40
0.0001560842418805
 10
107.2275973987736
 20
34.33026173028237
 30
0.0
 10
107.2796252519522
 20
34.33026173028237
 30
0.0
 10
107.3316560451256
 20
34.33026173028237
 30
0.0
 10
107.3836602487623
 20
34.33026173028237
 30
0.0
  0
SPLINE
  5
94
330
1F
100
AcDbEntity
  8
0
  6
Continuous
 62
     7
370
    25
100
AcDbSpline
210
0.0
220
0.0
230
1.0
 70
     8
 71
     3
 72
    10
 73
     6
 74
     0
 42
0.00000001
 43
0.00000001
 40
0.0
 40
0.0
 40
0.0
 40
0.0
 40
0.5
 40
0.5
 40
1.0
 40
1.0
 40
1.0
 40
1.0
 10
113.3124996519182
 20
99.4667860247574
 30
0.0
 10
113.2429464381227
 20
99.20418936713921
 30
0.0
 10
113.2085816695167
 20
98.93840935370801
 30
0.0
 10
113.2080869463154
 20
98.40067407628908
 30
0.0
 10
113.2429462759196
 20
98.12914459928463
 30
0.0
 10
113.3124996519182
 20
97.8665473292718
 30
0.0
  0
ARC
  5
95
330
1F
100
AcDbEntity
  8
0
  6
Continuous
 62
     7
370
    25
100
AcDbCircle
 10
96.6164546411
 20
107.0
 30
0.0
 40
4.166666661492657
100
AcDbArc
 50
270.0
 51
330.0
  0
ARC
  5
96
330
1F
100
AcDbEntity
  8
0
  6
Continuous
 62
     7
370
    25
100
AcDbCircle
 10
69.383544738
 20
107.0
 30
0.0
 40
4.166666661492657
100
AcDbArc
 50
210.0
 51
270.0
  0
ARC
  5
97
330
1F
100
AcDbEntity
  8
0
  6
Continuous
 62
     7
370
    25
100
AcDbCircle
 10
82.9999985254
 20
15.3333334472
 30
0.0
 40
25.00000150563508
100
AcDbArc
 50
0.0
 51
49.4533632217
  0
ARC
  5
98
330
1F
100
AcDbEntity
  8
0
  6
Continuous
 62
     7
370
    25
100
AcDbCircle
 10
82.9999985254
 20
15.3333334472
 30
0.0
 40
25.0000015056351
100
AcDbArc
 50
130.5466290816
 51
180.0
  0
CIRCLE
  5
99
330
1F
100
AcDbEntity
  8
0
  6
Continuous
 62
     7
370
    25
100
AcDbCircle
 10
49.6666663976
 20
98.666666677
 30
0.0
 40
3.124999996119492
  0
CIRCLE
  5
9A
330
1F
100
AcDbEntity
  8
0
  6
Continuous
 62
     7
370
    25
100
AcDbCircle
 10
49.6666659009
 20
15.3333334472
 30
0.0
 40
3.124999996119492
  0
CIRCLE
  5
9B
330
1F
100
AcDbEntity
  8
0
  6
Continuous
 62
     7
370
    25
100
AcDbCircle
 10
116.3333334782
 20
15.3333334472
 30
0.0
 40
3.12499999611947
  0
ARC
  5
9C
330
1F
100
AcDbEntity
  8
0
  6
Continuous
 62
     7
370
    25
100
AcDbCircle
 10
116.3333329815
 20
98.666666677
 30
0.0
 40
3.1249999961195
100
AcDbArc
 50
194.835111582
 51
165.164888418
  0
ARC
  5
9D
330
1F
100
AcDbEntity
  8
0
  6
Continuous
 62
     7
370
    25
100
AcDbCircle
 10
82.9999985254
 20
15.3333334472
 30
0.0
 40
25.00000150563504
100
AcDbArc
 50
98.3855354311
 51
104.3660128296
  0
ARC
  5
9E
330
1F
100
AcDbEntity
  8
0
  6
Continuous
 62
     7
370
    25
100
AcDbCircle
 10
77.8309295774
 20
35.5152205477
 30
0.0
 40
4.166666661492656
100
AcDbArc
 50
104.3660128296
 51
171.7356620868
  0
ARC
  5
9F
330
1F
100
AcDbEntity
  8
0
  6
Continuous
 62
     7
370
    25
100
AcDbCircle
 10
131.9583329621
 20
38.1204626649
 30
0.0
 40
12.49999998447797
100
AcDbArc
 50
180.0
 51
209.9999891556
  0
LINE
  5
A0
330
1F
100
AcDbEntity
  8
0
  6
Continuous
 62
     7
370
    25
100
AcDbLine
 10
122.9919833294
 20
28.6506344109
 30
0.0
 11
121.1330142453
 21
31.8704647216
 31
0.0
  0
ARC
  5
A1
330
1F
100
AcDbEntity
  8
0
  6
Continuous
 62
     7
370
    25
100
AcDbCircle
 10
112.16666632
 20
91.5993649245
 30
0.0
 40
12.49999998447798
100
AcDbArc
 50
330.0
 51
0.0
  0
LINE
  5
A2
330
1F
100
AcDbEntity
  8
0
  6
Continuous
 62
     7
370
    25
100
AcDbLine
 10
119.4583329776
 20
38.1204626649
 30
0.0
 11
119.4583329776
 21
75.8795371772
 31
0.0
  0
ARC
  5
A3
330
1F
100
AcDbEntity
  8
0
  6
Continuous
 62
     7
370
    25
100
AcDbCircle
 10
112.1666646126
 20
22.4006364675
 30
0.0
 40
12.49999998447799
100
AcDbArc
 50
0.0
 51
29.9999891556
  0
LINE
  5
A4
330
1F
100
AcDbEntity
  8
0
  6
Continuous
 62
     7
370
    25
100
AcDbLine
 10
121.1330154282
 20
82.1295371694
 30
0.0
 11
122.9919838539
 21
85.3493649323
 31
0.0
  0
ARC
  5
A5
330
1F
100
AcDbEntity
  8
0
  6
Continuous
 62
     7
370
    25
100
AcDbCircle
 10
88.1690695623
 20
35.5152200127
 30
0.0
 40
4.166666661492727
100
AcDbArc
 50
8.2643226459
 51
75.63398124
  0
ARC
  5
A6
330
1F
100
AcDbEntity
  8
0
  6
Continuous
 62
     7
370
    25
100
AcDbCircle
 10
82.9999985254
 20
15.3333334472
 30
0.0
 40
25.00000150563515
100
AcDbArc
 50
75.63398124
 51
81.6144591752
  0
ARC
  5
A7
330
1F
100
AcDbEntity
  8
0
  6
Continuous
 62
     7
370
    25
100
AcDbCircle
 10
62.1666663821
 20
102.8333333385
 30
0.0
 40
4.166666661492656
100
AcDbArc
 50
30.0
 51
90.0
  0
LINE
  5
A8
330
1F
100
AcDbEntity
  8
0
  6
Continuous
 62
     7
370
    25
100
AcDbLine
 10
62.1666663821
 20
107.0
 30
0.0
 11
49.6666662288
 21
107.0
 31
0.0
  0
ARC
  5
A9
330
1F
100
AcDbEntity
  8
0
  6
Continuous
 62
     7
370
    25
100
AcDbCircle
 10
49.6666663976
 20
98.666666677
 30
0.0
 40
8.333333322985311
100
AcDbArc
 50
90.0000011606
 51
180.0
  0
ARC
  5
AA
330
1F
100
AcDbEntity
  8
0
  6
Continuous
 62
     7
370
    25
100
AcDbCircle
 10
131.9583329621
 20
75.8795371772
 30
0.0
 40
12.49999998447797
100
AcDbArc
 50
150.0
 51
180.0
  0
LINE
  5
AB
330
1F
100
AcDbEntity
  8
0
  6
Continuous
 62
     7
370
    25
100
AcDbLine
 10
124.6666669254
 20
15.3333337513
 30
0.0
 11
124.6666645971
 21
22.4006364675
 31
0.0
  0
LINE
  5
AC
330
1F
100
AcDbEntity
  8
0
  6
Continuous
 62
     7
370
    25
100
AcDbLine
 10
43.0080155252
 20
85.3493649323
 30
0.0
 11
44.8669839509
 21
82.1295371694
 31
0.0
  0
ARC
  5
AD
330
1F
100
AcDbEntity
  8
0
  6
Continuous
 62
     7
370
    25
100
AcDbCircle
 10
34.041666417
 20
75.8795371772
 30
0.0
 40
12.49999998447795
100
AcDbArc
 50
0.0
 51
30.0
  0
LINE
  5
AE
330
1F
100
AcDbEntity
  8
0
  6
Continuous
 62
     7
370
    25
100
AcDbLine
 10
46.5416664015
 20
75.8795371772
 30
0.0
 11
46.5416664015
 21
38.1204626649
 31
0.0
  0
ARC
  5
AF
330
1F
100
AcDbEntity
  8
0
  6
Continuous
 62
     7
370
    25
100
AcDbCircle
 10
34.041666417
 20
38.1204626649
 30
0.0
 40
12.49999998447796
100
AcDbArc
 50
330.0000108444
 51
0.0
  0
LINE
  5
B0
330
1F
100
AcDbEntity
  8
0
  6
Continuous
 62
     7
370
    25
100
AcDbLine
 10
44.8669851338
 20
31.8704647216
 30
0.0
 11
43.0080160497
 21
28.6506344109
 31
0.0
  0
ARC
  5
B1
330
1F
100
AcDbEntity
  8
0
  6
Continuous
 62
     7
370
    25
100
AcDbCircle
 10
53.8333347665
 20
22.4006364675
 30
0.0
 40
12.49999998447782
100
AcDbArc
 50
150.0000108444
 51
180.0
  0
LINE
  5
B2
330
1F
100
AcDbEntity
  8
0
  6
Continuous
 62
     7
370
    25
100
AcDbLine
 10
41.3333347821
 20
22.4006364675
 30
0.0
 11
41.3333347821
 21
15.3333334472
 31
0.0
  0
ARC
  5
B3
330
1F
100
AcDbEntity
  8
0
  6
Continuous
 62
     7
370
    25
100
AcDbCircle
 10
49.6666659009
 20
15.3333334472
 30
0.0
 40
8.333331118861352
100
AcDbArc
 50
180.0
 51
360.0
  0
ARC
  5
B4
330
1F
100
AcDbEntity
  8
0
  6
Continuous
 62
     7
370
    25
100
AcDbCircle
 10
116.3333329815
 20
98.666666677
 30
0.0
 40
8.333333322985311
100
AcDbArc
 50
0.0
 51
89.9999965849
  0
LINE
  5
B5
330
1F
100
AcDbEntity
  8
0
  6
Continuous
 62
     7
370
    25
100
AcDbLine
 10
116.3333334782
 20
107.0
 30
0.0
 11
103.833332997
 21
107.0
 31
0.0
  0
ARC
  5
B6
330
1F
100
AcDbEntity
  8
0
  6
Continuous
 62
     7
370
    25
100
AcDbCircle
 10
103.833332997
 20
102.8333333385
 30
0.0
 40
4.166666661492656
100
AcDbArc
 50
90.0
 51
150.0
  0
LINE
  5
B7
330
1F
100
AcDbEntity
  8
0
  6
Continuous
 62
     7
370
    25
100
AcDbLine
 10
41.3333330746
 20
98.666666677
 30
0.0
 11
41.3333330746
 21
91.5993649245
 31
0.0
  0
ARC
  5
B8
330
1F
100
AcDbEntity
  8
0
  6
Continuous
 62
     7
370
    25
100
AcDbCircle
 10
53.8333330591
 20
91.5993649245
 30
0.0
 40
12.49999998447796
100
AcDbArc
 50
180.0
 51
210.0
  0
ARC
  5
B9
330
1F
100
AcDbEntity
  8
0
  6
Continuous
 62
     7
370
    25
100
AcDbCircle
 10
116.3333334782
 20
15.3333334472
 30
0.0
 40
8.333333447161763
100
AcDbArc
 50
180.0
 51
0.0000020913
  0
LINE
  5
BA
330
1F
100
AcDbEntity
  8
0
  6
Continuous
 62
     7
370
    25
100
AcDbLine
 10
124.6666663045
 20
91.5993649245
 30
0.0
 11
124.6666663045
 21
98.666666677
 31
0.0
  0
LINE
  5
BB
330
1F
100
AcDbEntity
  8
0
  6
HIDDEN
 62
     7
370
    18
100
AcDbLine
 10
98.5208330036
 20
63.7708355911
 30
0.0
 11
98.5208330036
 21
55.4375022682
 31
0.0
  0
LINE
  5
BC
330
1F
100
AcDbEntity
  8
0
  6
HIDDEN
 62
     7
370
    18
100
AcDbLine
 10
98.5208330036
 20
72.1041689141
 30
0.0
 11
98.5208330036
 21
63.7708355911
 31
0.0
  0
LINE
  5
BD
330
1F
100
AcDbEntity
  8
0
  6
HIDDEN
 62
     7
370
    18
100
AcDbLine
 10
107.0624996597
 20
63.7708355911
 30
0.0
 11
98.5208330036
 21
63.7708355911
 31
0.0
  0
LINE
  5
BE
330
1F
100
AcDbEntity
  8
0
  6
HIDDEN
 62
     7
370
    18
100
AcDbLine
 10
98.5208330036
 20
72.1041689141
 30
0.0
 11
107.0624996597
 21
72.1041689141
 31
0.0
  0
LINE
  5
BF
330
1F
100
AcDbEntity
  8
0
  6
HIDDEN
 62
     7
370
    18
100
AcDbLine
 10
98.5208330036
 20
55.4375022682
 30
0.0
 11
107.0624996597
 21
55.4375022682
 31
0.0
  0
LINE
  5
C0
330
1F
100
AcDbEntity
  8
0
  6
HIDDEN
 62
     7
370
    18
100
AcDbLine
 10
104.3885109592
 20
55.3711160378
 30
0.0
 11
96.0551776362
 21
58.8288051744
 31
0.0
  0
ARC
  5
C1
330
1F
100
AcDbEntity
  8
0
  6
HIDDEN
 62
     7
370
    18
100
AcDbCircle
 10
94.4583341728
 20
48.8452265757
 30
0.0
 40
4.16666666149267
100
AcDbArc
 50
180.0
 51
251.1234972194
  0
LINE
  5
C2
330
1F
100
AcDbEntity
  8
0
  6
HIDDEN
 62
     7
370
    18
100
AcDbLine
 10
106.9583341573
 20
44.7039023051
 30
0.0
 11
106.9583341573
 21
51.5225835875
 31
0.0
  0
ARC
  5
C3
330
1F
100
AcDbEntity
  8
0
  6
HIDDEN
 62
     7
370
    18
100
AcDbCircle
 10
102.7916674958
 20
44.7039023051
 30
0.0
 40
4.166666661492722
100
AcDbArc
 50
236.0255257249
 51
0.0
  0
ARC
  5
C4
330
1F
100
AcDbEntity
  8
0
  6
HIDDEN
 62
     7
370
    18
100
AcDbCircle
 10
83.0000008537
 20
15.3333334472
 30
0.0
 40
31.2500014978741
100
AcDbArc
 50
56.0255257249
 51
71.1234972194
  0
LINE
  5
C5
330
1F
100
AcDbEntity
  8
0
  6
HIDDEN
 62
     7
370
    18
100
AcDbLine
 10
90.2916675113
 20
54.9802727241
 30
0.0
 11
90.2916675113
 21
48.8452265757
 31
0.0
  0
ARC
  5
C6
330
1F
100
AcDbEntity
  8
0
  6
HIDDEN
 62
     7
370
    18
100
AcDbCircle
 10
94.4583341728
 20
54.9802727241
 30
0.0
 40
4.166666661492656
100
AcDbArc
 50
67.4653284678
 51
180.0
  0
LINE
  5
C7
330
1F
100
AcDbEntity
  8
0
  6
HIDDEN
 62
     7
370
    18
100
AcDbLine
 10
73.6249985371
 20
88.2500000233
 30
0.0
 11
67.0970835954
 21
88.2500000233
 31
0.0
  0
ARC
  5
C8
330
1F
100
AcDbEntity
  8
0
  6
HIDDEN
 62
     7
370
    18
100
AcDbCircle
 10
67.0970835954
 20
101.7916666731
 30
0.0
 40
13.54166664985124
100
AcDbArc
 50
247.5291440153
 51
270.0
  0
ARC
  5
C9
330
1F
100
AcDbEntity
  8
0
  6
HIDDEN
 62
     7
370
    18
100
AcDbCircle
 10
61.1249985526
 20
87.3530093729
 30
0.0
 40
2.083333330746321
100
AcDbArc
 50
67.5291440153
 51
180.0
  0
LINE
  5
CA
330
1F
100
AcDbEntity
  8
0
  6
HIDDEN
 62
     7
370
    18
100
AcDbLine
 10
75.7083318678
 20
86.1034065628
 30
0.0
 11
75.7083318678
 21
86.1666666925
 31
0.0
  0
LINE
  5
CB
330
1F
100
AcDbEntity
  8
0
  6
HIDDEN
 62
     7
370
    18
100
AcDbLine
 10
64.8051753467
 20
78.7971849758
 30
0.0
 11
73.1385086697
 21
82.2548741124
 31
0.0
  0
ARC
  5
CC
330
1F
100
AcDbEntity
  8
0
  6
HIDDEN
 62
     7
370
    18
100
AcDbCircle
 10
102.7916674958
 20
51.5225835875
 30
0.0
 40
4.166666661492656
100
AcDbArc
 50
0.0
 51
67.4653284678
  0
ARC
  5
CD
330
1F
100
AcDbEntity
  8
0
  6
HIDDEN
 62
     7
370
    18
100
AcDbCircle
 10
63.2083318833
 20
82.6457174262
 30
0.0
 40
4.166666661492698
100
AcDbArc
 50
180.0
 51
292.5346715322
  0
LINE
  5
CE
330
1F
100
AcDbEntity
  8
0
  6
HIDDEN
 62
     7
370
    18
100
AcDbLine
 10
59.0416652218
 20
87.3530093729
 30
0.0
 11
59.0416652218
 21
82.6457174262
 31
0.0
  0
LINE
  5
CF
330
1F
100
AcDbEntity
  8
0
  6
HIDDEN
 62
     7
370
    18
100
AcDbLine
 10
75.7083318678
 20
48.8452265757
 30
0.0
 11
75.7083318678
 21
68.7478751463
 31
0.0
  0
ARC
  5
D0
330
1F
100
AcDbEntity
  8
0
  6
HIDDEN
 62
     7
370
    18
100
AcDbCircle
 10
71.5416652063
 20
68.7478751463
 30
0.0
 40
4.166666661492656
100
AcDbArc
 50
0.0
 51
112.5346715322
  0
LINE
  5
D1
330
1F
100
AcDbEntity
  8
0
  6
HIDDEN
 62
     7
370
    18
100
AcDbLine
 10
69.9448217429
 20
72.5964075967
 30
0.0
 11
61.6114884199
 21
69.1387184601
 31
0.0
  0
ARC
  5
D2
330
1F
100
AcDbEntity
  8
0
  6
HIDDEN
 62
     7
370
    18
100
AcDbCircle
 10
63.2083318833
 20
65.2901860097
 30
0.0
 40
4.166666661492663
100
AcDbArc
 50
112.5346715322
 51
180.0
  0
ARC
  5
D3
330
1F
100
AcDbEntity
  8
0
  6
HIDDEN
 62
     7
370
    18
100
AcDbCircle
 10
71.5416652063
 20
48.8452265757
 30
0.0
 40
4.166666661492684
100
AcDbArc
 50
288.8765027806
 51
0.0
  0
ARC
  5
D4
330
1F
100
AcDbEntity
  8
0
  6
HIDDEN
 62
     7
370
    18
100
AcDbCircle
 10
82.9999985254
 20
15.3333334472
 30
0.0
 40
31.2500014978741
100
AcDbArc
 50
108.8765027806
 51
123.9744742751
  0
ARC
  5
D5
330
1F
100
AcDbEntity
  8
0
  6
HIDDEN
 62
     7
370
    18
100
AcDbCircle
 10
63.2083318833
 20
44.7039023051
 30
0.0
 40
4.166666661492718
100
AcDbArc
 50
180.0
 51
303.9744742751
  0
LINE
  5
D6
330
1F
100
AcDbEntity
  8
0
  6
HIDDEN
 62
     7
370
    18
100
AcDbLine
 10
59.0416652218
 20
65.2901860097
 30
0.0
 11
59.0416652218
 21
44.7039023051
 31
0.0
  0
ARC
  5
D7
330
1F
100
AcDbEntity
  8
0
  6
HIDDEN
 62
     7
370
    18
100
AcDbCircle
 10
104.8750008265
 20
87.3530093729
 30
0.0
 40
2.083333330746314
100
AcDbArc
 50
0.0
 51
112.4708559847
  0
ARC
  5
D8
330
1F
100
AcDbEntity
  8
0
  6
HIDDEN
 62
     7
370
    18
100
AcDbCircle
 10
98.9029157837
 20
101.7916666731
 30
0.0
 40
13.54166664985124
100
AcDbArc
 50
270.0
 51
292.4708559847
  0
LINE
  5
D9
330
1F
100
AcDbEntity
  8
0
  6
HIDDEN
 62
     7
370
    18
100
AcDbLine
 10
98.9029157837
 20
88.2500000233
 30
0.0
 11
92.3750008421
 21
88.2500000233
 31
0.0
  0
ARC
  5
DA
330
1F
100
AcDbEntity
  8
0
  6
HIDDEN
 62
     7
370
    18
100
AcDbCircle
 10
92.3750008421
 20
86.1666666925
 30
0.0
 40
2.083333330746328
100
AcDbArc
 50
90.0
 51
180.0
  0
ARC
  5
DB
330
1F
100
AcDbEntity
  8
0
  6
HIDDEN
 62
     7
370
    18
100
AcDbCircle
 10
102.7916674958
 20
68.8781150039
 30
0.0
 40
4.166666661492682
100
AcDbArc
 50
247.4653284678
 51
0.0
  0
LINE
  5
DC
330
1F
100
AcDbEntity
  8
0
  6
HIDDEN
 62
     7
370
    18
100
AcDbLine
 10
106.9583341573
 20
68.8781150039
 30
0.0
 11
106.9583341573
 21
87.3530093729
 31
0.0
  0
ARC
  5
DD
330
1F
100
AcDbEntity
  8
0
  6
HIDDEN
 62
     7
370
    18
100
AcDbCircle
 10
94.4583341728
 20
72.3358041405
 30
0.0
 40
4.166666661492656
100
AcDbArc
 50
180.0
 51
247.4653284678
  0
LINE
  5
DE
330
1F
100
AcDbEntity
  8
0
  6
HIDDEN
 62
     7
370
    18
100
AcDbLine
 10
90.2916675113
 20
86.1666666925
 30
0.0
 11
90.2916675113
 21
72.3358041405
 31
0.0
  0
LINE
  5
DF
330
1F
100
AcDbEntity
  8
0
  6
HIDDEN
 62
     7
370
    18
100
AcDbLine
 10
92.8614907094
 20
68.4872716901
 30
0.0
 11
101.1948240324
 21
65.0295825536
 31
0.0
  0
ARC
  5
E0
330
1F
100
AcDbEntity
  8
0
  6
HIDDEN
 62
     7
370
    18
100
AcDbCircle
 10
73.6249985371
 20
86.1666666925
 30
0.0
 40
2.083333330746328
100
AcDbArc
 50
0.0
 51
90.0
  0
ARC
  5
E1
330
1F
100
AcDbEntity
  8
0
  6
HIDDEN
 62
     7
370
    18
100
AcDbCircle
 10
71.5416652063
 20
86.1034065628
 30
0.0
 40
4.166666661492703
100
AcDbArc
 50
292.5346715322
 51
0.0
  0
LINE
  5
E2
330
1F
100
AcDbEntity
  8
0
  6
HIDDEN
 62
     7
370
    18
100
AcDbLine
 10
73.7291663677
 20
68.979168918
 30
0.0
 11
63.312499714
 21
68.979168918
 31
0.0
  0
LINE
  5
E3
330
1F
100
AcDbEntity
  8
0
  6
HIDDEN
 62
     7
370
    18
100
AcDbLine
 10
63.312499714
 20
58.5625022643
 30
0.0
 11
73.7291663677
 21
58.5625022643
 31
0.0
  0
LINE
  5
E4
330
1F
100
AcDbEntity
  8
0
  6
HIDDEN
 62
     7
370
    18
100
AcDbLine
 10
86.6458330184
 20
68.979168918
 30
0.0
 11
79.3541663608
 21
68.979168918
 31
0.0
  0
LINE
  5
E5
330
1F
100
AcDbEntity
  8
0
  6
HIDDEN
 62
     7
370
    18
100
AcDbLine
 10
79.3541663608
 20
58.5625022643
 30
0.0
 11
86.6458330184
 21
58.5625022643
 31
0.0
  0
LINE
  5
E6
330
1F
100
AcDbEntity
  8
0
  6
HIDDEN
 62
     7
370
    18
100
AcDbLine
 10
98.5208330036
 20
68.979168918
 30
0.0
 11
92.2708330114
 21
68.979168918
 31
0.0
  0
LINE
  5
E7
330
1F
100
AcDbEntity
  8
0
  6
HIDDEN
 62
     7
370
    18
100
AcDbLine
 10
92.2708330114
 20
58.5625022643
 30
0.0
 11
98.5208330036
 21
58.5625022643
 31
0.0
  0
INSERT
  5
F3
330
1F
100
AcDbEntity
  8
10
100
AcDbBlockReference
  2
SW_CENTERMARKSYMBOL_0
 10
49.6666659009
 20
15.3333334472
 30
0.0
  0
INSERT
  5
FF
330
1F
100
AcDbEntity
  8
10
100
AcDbBlockReference
  2
SW_CENTERMARKSYMBOL_1
 10
49.6666663976
 20
98.666666677
 30
0.0
  0
INSERT
  5
10B
330
1F
100
AcDbEntity
  8
10
100
AcDbBlockReference
  2
SW_CENTERMARKSYMBOL_2
 10
116.3333329815
 20
98.666666677
 30
0.0
  0
INSERT
  5
117
330
1F
100
AcDbEntity
  8
10
100
AcDbBlockReference
  2
SW_CENTERMARKSYMBOL_3
 10
116.3333334782
 20
15.3333334472
 30
0.0
  0
ARC
  5
118
330
1F
100
AcDbEntity
  8
0
  6
Continuous
 62
     7
370
    25
100
AcDbCircle
 10
102.8958329982
 20
140.5520830446
 30
0.0
 40
4.16666666149267
100
AcDbArc
 50
270.0
 51
0.0
  0
ARC
  5
119
330
1F
100
AcDbEntity
  8
0
  6
Continuous
 62
     7
370
    25
100
AcDbCircle
 10
67.4791663755
 20
140.5520830446
 30
0.0
 40
4.166666661492656
100
AcDbArc
 50
180.0
 51
270.0
  0
LINE
  5
11A
330
1F
100
AcDbEntity
  8
0
  6
Continuous
 62
     7
370
    25
100
AcDbLine
 10
92.2708330114
 20
136.3854163831
 30
0.0
 11
102.8958329982
 21
136.3854163831
 31
0.0
  0
LINE
  5
11B
330
1F
100
AcDbEntity
  8
0
  6
Continuous
 62
     7
370
    25
100
AcDbLine
 10
79.3541663608
 20
136.3854163831
 30
0.0
 11
86.6458330184
 21
136.3854163831
 31
0.0
  0
LINE
  5
11C
330
1F
100
AcDbEntity
  8
0
  6
Continuous
 62
     7
370
    25
100
AcDbLine
 10
67.4791663755
 20
136.3854163831
 30
0.0
 11
73.7291663677
 21
136.3854163831
 31
0.0
  0
LINE
  5
11D
330
1F
100
AcDbEntity
  8
0
  6
Continuous
 62
     7
370
    25
100
AcDbLine
 10
124.6666663045
 20
171.2812502939
 30
0.0
 11
124.6666663045
 21
179.6145836169
 31
0.0
  0
LINE
  5
11E
330
1F
100
AcDbEntity
  8
0
  6
Continuous
 62
     7
370
    25
100
AcDbLine
 10
116.3333334782
 20
179.6145836169
 30
0.0
 11
124.6666663045
 21
179.6145836169
 31
0.0
  0
LINE
  5
11F
330
1F
100
AcDbEntity
  8
0
  6
Continuous
 62
     7
370
    25
100
AcDbLine
 10
41.3333330746
 20
171.2812502939
 30
0.0
 11
41.3333330746
 21
179.6145836169
 31
0.0
  0
LINE
  5
120
330
1F
100
AcDbEntity
  8
0
  6
Continuous
 62
     7
370
    25
100
AcDbLine
 10
41.3333330746
 20
179.6145836169
 30
0.0
 11
49.6666662288
 21
179.6145836169
 31
0.0
  0
LINE
  5
121
330
1F
100
AcDbEntity
  8
0
  6
Continuous
 62
     7
370
    25
100
AcDbLine
 10
116.3333334782
 20
169.1979169632
 30
0.0
 11
122.5833329737
 21
169.1979169632
 31
0.0
  0
ARC
  5
122
330
1F
100
AcDbEntity
  8
0
  6
Continuous
 62
     7
370
    25
100
AcDbCircle
 10
122.5833329737
 20
171.2812502939
 30
0.0
 40
2.083333330746342
100
AcDbArc
 50
270.0
 51
0.0
  0
LINE
  5
123
330
1F
100
AcDbEntity
  8
0
  6
Continuous
 62
     7
370
    25
100
AcDbLine
 10
43.4166664054
 20
169.1979169632
 30
0.0
 11
49.666666271
 21
169.1979169632
 31
0.0
  0
ARC
  5
124
330
1F
100
AcDbEntity
  8
0
  6
Continuous
 62
     7
370
    25
100
AcDbCircle
 10
43.4166664054
 20
171.2812502939
 30
0.0
 40
2.083333330746335
100
AcDbArc
 50
180.0
 51
270.0
  0
LINE
  5
125
330
1F
100
AcDbEntity
  8
0
  6
Continuous
 62
     7
370
    25
100
AcDbLine
 10
49.6666662288
 20
179.6145836169
 30
0.0
 11
62.1666663821
 21
179.6145836169
 31
0.0
  0
LINE
  5
126
330
1F
100
AcDbEntity
  8
0
  6
Continuous
 62
     7
370
    25
100
AcDbLine
 10
103.833332997
 20
179.6145836169
 30
0.0
 11
116.3333334782
 21
179.6145836169
 31
0.0
  0
LINE
  5
127
330
1F
100
AcDbEntity
  8
0
  6
Continuous
 62
     7
370
    25
100
AcDbLine
 10
65.7751055601
 20
179.6145836169
 30
0.0
 11
62.1666663821
 21
179.6145836169
 31
0.0
  0
LINE
  5
128
330
1F
100
AcDbEntity
  8
0
  6
Continuous
 62
     7
370
    25
100
AcDbLine
 10
103.833332997
 20
179.6145836169
 30
0.0
 11
100.2248938191
 21
179.6145836169
 31
0.0
  0
LINE
  5
129
330
1F
100
AcDbEntity
  8
0
  6
Continuous
 62
     7
370
    25
100
AcDbLine
 10
102.029113408
 20
169.1979169632
 30
0.0
 11
103.833332997
 21
169.1979169632
 31
0.0
  0
LINE
  5
12A
330
1F
100
AcDbEntity
  8
0
  6
Continuous
 62
     7
370
    25
100
AcDbLine
 10
49.666666271
 20
169.1979169632
 30
0.0
 11
62.1666663821
 21
169.1979169632
 31
0.0
  0
LINE
  5
12B
330
1F
100
AcDbEntity
  8
0
  6
Continuous
 62
     7
370
    25
100
AcDbLine
 10
62.1666663821
 20
169.1979169632
 30
0.0
 11
63.9708859711
 21
169.1979169632
 31
0.0
  0
LINE
  5
12C
330
1F
100
AcDbEntity
  8
0
  6
Continuous
 62
     7
370
    25
100
AcDbLine
 10
103.833332997
 20
169.1979169632
 30
0.0
 11
116.3333334782
 21
169.1979169632
 31
0.0
  0
LINE
  5
12D
330
1F
100
AcDbEntity
  8
0
  6
Continuous
 62
     7
370
    25
100
AcDbLine
 10
69.383544738
 20
179.6145836169
 30
0.0
 11
65.7751055601
 21
179.6145836169
 31
0.0
  0
LINE
  5
12E
330
1F
100
AcDbEntity
  8
0
  6
Continuous
 62
     7
370
    25
100
AcDbLine
 10
100.2248938191
 20
179.6145836169
 30
0.0
 11
96.6164546411
 21
179.6145836169
 31
0.0
  0
SPLINE
  5
12F
330
1F
100
AcDbEntity
  8
0
  6
Continuous
 62
     7
370
    25
100
AcDbSpline
210
0.0
220
0.0
230
1.0
 70
     8
 71
     3
 72
    14
 73
    10
 74
     0
 42
0.00000001
 43
0.00000001
 40
0.0
 40
0.0
 40
0.0
 40
0.0
 40
0.2500000000000003
 40
0.2500000000000003
 40
0.3750000000000005
 40
0.3750000000000005
 40
0.5000000000000007
 40
0.5000000000000007
 40
1.0
 40
1.0
 40
1.0
 40
1.0
 10
101.2749295884535
 20
169.1979169632023
 30
0.0
 10
100.8360243387461
 20
169.1979169632023
 30
0.0
 10
100.4099748657576
 20
169.2725825780872
 30
0.0
 10
99.78357988472334
 20
169.458221233055
 30
0.0
 10
99.57779360302695
 20
169.5326322318496
 30
0.0
 10
99.17848799998546
 20
169.6983333515409
 30
0.0
 10
98.98369547839387
 20
169.7900116354499
 30
0.0
 10
98.02823751256615
 20
170.2820130274655
 30
0.0
 10
97.32279179628082
 20
170.7817969989783
 30
0.0
 10
96.61645464111373
 20
171.2812502939487
 30
0.0
  0
LINE
  5
130
330
1F
100
AcDbEntity
  8
0
  6
Continuous
 62
     7
370
    25
100
AcDbLine
 10
101.2749295885
 20
169.1979169632
 30
0.0
 11
102.029113408
 21
169.1979169632
 31
0.0
  0
SPLINE
  5
131
330
1F
100
AcDbEntity
  8
0
  6
Continuous
 62
     7
370
    25
100
AcDbSpline
210
0.0
220
0.0
230
1.0
 70
     8
 71
     3
 72
    14
 73
    10
 74
     0
 42
0.00000001
 43
0.00000001
 40
0.0
 40
0.0
 40
0.0
 40
0.0
 40
0.2500000000000009
 40
0.2500000000000009
 40
0.3750000000000005
 40
0.3750000000000005
 40
0.5000000000000001
 40
0.5000000000000001
 40
1.0
 40
1.0
 40
1.0
 40
1.0
 10
64.72506979066469
 20
169.1979169632023
 30
0.0
 10
65.16397504037215
 20
169.1979169632023
 30
0.0
 10
65.59002451336062
 20
169.2725825780872
 30
0.0
 10
66.21641949439493
 20
169.458221233055
 30
0.0
 10
66.4222057760913
 20
169.5326322318496
 30
0.0
 10
66.82151137913279
 20
169.698333351541
 30
0.0
 10
67.01630390072438
 20
169.7900116354499
 30
0.0
 10
67.97176186655207
 20
170.2820130274655
 30
0.0
 10
68.67720758275668
 20
170.7817969990925
 30
0.0
 10
69.38354473800452
 20
171.2812502939487
 30
0.0
  0
LINE
  5
132
330
1F
100
AcDbEntity
  8
0
  6
Continuous
 62
     7
370
    25
100
AcDbLine
 10
63.9708859711
 20
169.1979169632
 30
0.0
 11
64.7250697907
 21
169.1979169632
 31
0.0
  0
LINE
  5
133
330
1F
100
AcDbEntity
  8
0
  6
Continuous
 62
     7
370
    25
100
AcDbLine
 10
92.2708330114
 20
147.7771477834
 30
0.0
 11
92.2708330114
 21
154.1968401529
 31
0.0
  0
LINE
  5
134
330
1F
100
AcDbEntity
  8
0
  6
Continuous
 62
     7
370
    25
100
AcDbLine
 10
92.2708330114
 20
154.1968401529
 30
0.0
 11
86.6458330184
 21
154.1968401529
 31
0.0
  0
LINE
  5
135
330
1F
100
AcDbEntity
  8
0
  6
Continuous
 62
     7
370
    25
100
AcDbLine
 10
86.6458330184
 20
154.1968401529
 30
0.0
 11
86.6458330184
 21
147.7771477834
 31
0.0
  0
LINE
  5
136
330
1F
100
AcDbEntity
  8
0
  6
Continuous
 62
     7
370
    25
100
AcDbLine
 10
79.3541663608
 20
147.7771477834
 30
0.0
 11
79.3541663608
 21
154.1968401529
 31
0.0
  0
LINE
  5
137
330
1F
100
AcDbEntity
  8
0
  6
Continuous
 62
     7
370
    25
100
AcDbLine
 10
79.3541663608
 20
154.1968401529
 30
0.0
 11
73.7291663677
 21
154.1968401529
 31
0.0
  0
LINE
  5
138
330
1F
100
AcDbEntity
  8
0
  6
Continuous
 62
     7
370
    25
100
AcDbLine
 10
73.7291663677
 20
154.1968401529
 30
0.0
 11
73.7291663677
 21
147.7771477834
 31
0.0
  0
LINE
  5
139
330
1F
100
AcDbEntity
  8
0
  6
Continuous
 62
     7
370
    25
100
AcDbLine
 10
64.7250697907
 20
169.1979169632
 30
0.0
 11
101.2749295885
 21
169.1979169632
 31
0.0
  0
SPLINE
  5
13A
330
1F
100
AcDbEntity
  8
0
  6
Continuous
 62
     7
370
    25
100
AcDbSpline
210
0.0
220
0.0
230
1.0
 70
     8
 71
     3
 72
    13
 73
     9
 74
     0
 42
0.00000001
 43
0.00000001
 40
0.27605865755836
 40
0.27605865755836
 40
0.27605865755836
 40
0.27605865755836
 40
0.6248561228682502
 40
0.9736535881781481
 40
1.148052320833096
 40
1.322451053488043
 40
1.409650419815516
 40
1.49684978614299
 40
1.49684978614299
 40
1.49684978614299
 40
1.49684978614299
 10
107.0624996596792
 20
162.9479169709631
 30
0.0
 10
107.0624996596791
 20
164.002391317712
 30
0.0
 10
107.5847642132585
 20
165.883099941983
 30
0.0
 10
108.9352910957369
 20
167.5362565619538
 30
0.0
 10
110.3014580955121
 20
168.4701967397428
 30
0.0
 10
111.2977552320964
 20
168.8944535486085
 30
0.0
 10
112.2813545338655
 20
169.1318081933798
 30
0.0
 10
112.9491682569766
 20
169.1979169632023
 30
0.0
 10
113.3124996519182
 20
169.1979169632023
 30
0.0
  0
SPLINE
  5
13B
330
1F
100
AcDbEntity
  8
0
  6
Continuous
 62
     7
370
    25
100
AcDbSpline
210
0.0
220
0.0
230
1.0
 70
     8
 71
     3
 72
    13
 73
     9
 74
     0
 42
0.00000001
 43
0.00000001
 40
0.0
 40
0.0
 40
0.0
 40
0.0
 40
0.1112275877740099
 40
0.22245517554802
 40
0.4449103510960399
 40
0.667365526644066
 40
1.112275877740113
 40
1.55718622883616
 40
1.55718622883616
 40
1.55718622883616
 40
1.55718622883616
 10
52.8958330602747
 20
169.1979169632023
 30
0.0
 10
53.44759204546413
 20
169.1979169632023
 30
0.0
 10
54.47989148938559
 20
169.1054284247907
 30
0.0
 10
56.05167385567506
 20
168.7564720343151
 30
0.0
 10
57.71417929543355
 20
168.0919943498758
 30
0.0
 10
60.01644733431571
 20
166.5927650773479
 30
0.0
 10
62.38207679561687
 20
163.8334684417662
 30
0.0
 10
63.31249971400634
 20
160.5937526513731
 30
0.0
 10
63.31249971400634
 20
158.7812503094707
 30
0.0
  0
LINE
  5
13C
330
1F
100
AcDbEntity
  8
0
  6
Continuous
 62
     7
370
    25
100
AcDbLine
 10
69.383544738
 20
179.6145836169
 30
0.0
 11
96.6164546411
 21
179.6145836169
 31
0.0
  0
LINE
  5
13D
330
1F
100
AcDbEntity
  8
0
  6
Continuous
 62
     7
370
    25
100
AcDbLine
 10
107.0624996597
 20
149.0040127932
 30
0.0
 11
107.0624996597
 21
162.947916971
 31
0.0
  0
LINE
  5
13E
330
1F
100
AcDbEntity
  8
0
  6
Continuous
 62
     7
370
    25
100
AcDbLine
 10
63.312499714
 20
158.7812503095
 30
0.0
 11
63.312499714
 21
149.0040127932
 31
0.0
  0
LINE
  5
13F
330
1F
100
AcDbEntity
  8
0
  6
Continuous
 62
     7
370
    25
100
AcDbLine
 10
107.0624996597
 20
140.5520830446
 30
0.0
 11
107.0624996597
 21
149.0040127932
 31
0.0
  0
LINE
  5
140
330
1F
100
AcDbEntity
  8
0
  6
Continuous
 62
     7
370
    25
100
AcDbLine
 10
63.312499714
 20
149.0040127932
 30
0.0
 11
63.312499714
 21
140.5520830446
 31
0.0
  0
LINE
  5
141
330
1F
100
AcDbEntity
  8
0
  6
Continuous
 62
     7
370
    25
100
AcDbLine
 10
92.2708330114
 20
136.3854163831
 30
0.0
 11
92.2708330114
 21
147.7771477834
 31
0.0
  0
LINE
  5
142
330
1F
100
AcDbEntity
  8
0
  6
Continuous
 62
     7
370
    25
100
AcDbLine
 10
86.6458330184
 20
147.7771477834
 30
0.0
 11
86.6458330184
 21
136.3854163831
 31
0.0
  0
LINE
  5
143
330
1F
100
AcDbEntity
  8
0
  6
Continuous
 62
     7
370
    25
100
AcDbLine
 10
79.3541663608
 20
136.3854163831
 30
0.0
 11
79.3541663608
 21
147.7771477834
 31
0.0
  0
LINE
  5
144
330
1F
100
AcDbEntity
  8
0
  6
Continuous
 62
     7
370
    25
100
AcDbLine
 10
73.7291663677
 20
147.7771477834
 30
0.0
 11
73.7291663677
 21
136.3854163831
 31
0.0
  0
LINE
  5
145
330
1F
100
AcDbEntity
  8
0
  6
HIDDEN
 62
     7
370
    18
100
AcDbLine
 10
106.9583341573
 20
179.6145836169
 30
0.0
 11
106.9583341573
 21
177.5312502862
 31
0.0
  0
LINE
  5
146
330
1F
100
AcDbEntity
  8
0
  6
HIDDEN
 62
     7
370
    18
100
AcDbLine
 10
106.9583341573
 20
177.5312502862
 30
0.0
 11
104.0787228208
 21
177.5312502862
 31
0.0
  0
LINE
  5
147
330
1F
100
AcDbEntity
  8
0
  6
HIDDEN
 62
     7
370
    18
100
AcDbLine
 10
59.0416652218
 20
177.5312502862
 30
0.0
 11
59.0416652218
 21
179.6145836169
 31
0.0
  0
LINE
  5
148
330
1F
100
AcDbEntity
  8
0
  6
HIDDEN
 62
     7
370
    18
100
AcDbLine
 10
61.9212765583
 20
177.5312502862
 30
0.0
 11
59.0416652218
 21
177.5312502862
 31
0.0
  0
LINE
  5
149
330
1F
100
AcDbEntity
  8
0
  6
HIDDEN
 62
     7
370
    18
100
AcDbLine
 10
67.0970835954
 20
177.5312502862
 30
0.0
 11
61.9212765583
 21
177.5312502862
 31
0.0
  0
LINE
  5
14A
330
1F
100
AcDbEntity
  8
0
  6
HIDDEN
 62
     7
370
    18
100
AcDbLine
 10
104.0787228208
 20
177.5312502862
 30
0.0
 11
98.9029157837
 21
177.5312502862
 31
0.0
  0
LINE
  5
14B
330
1F
100
AcDbEntity
  8
0
  6
HIDDEN
 62
     7
370
    18
100
AcDbLine
 10
73.6249985371
 20
177.5312502862
 30
0.0
 11
67.0970835954
 21
177.5312502862
 31
0.0
  0
LINE
  5
14C
330
1F
100
AcDbEntity
  8
0
  6
HIDDEN
 62
     7
370
    18
100
AcDbLine
 10
98.9029157837
 20
177.5312502862
 30
0.0
 11
92.3750008421
 21
177.5312502862
 31
0.0
  0
LINE
  5
14D
330
1F
100
AcDbEntity
  8
0
  6
HIDDEN
 62
     7
370
    18
100
AcDbLine
 10
75.7083318678
 20
179.6145836169
 30
0.0
 11
75.7083318678
 21
177.5312502862
 31
0.0
  0
LINE
  5
14E
330
1F
100
AcDbEntity
  8
0
  6
HIDDEN
 62
     7
370
    18
100
AcDbLine
 10
75.7083318678
 20
177.5312502862
 30
0.0
 11
73.6249985371
 21
177.5312502862
 31
0.0
  0
LINE
  5
14F
330
1F
100
AcDbEntity
  8
0
  6
HIDDEN
 62
     7
370
    18
100
AcDbLine
 10
90.2916675113
 20
177.5312502862
 30
0.0
 11
90.2916675113
 21
179.6145836169
 31
0.0
  0
LINE
  5
150
330
1F
100
AcDbEntity
  8
0
  6
HIDDEN
 62
     7
370
    18
100
AcDbLine
 10
92.3750008421
 20
177.5312502862
 30
0.0
 11
90.2916675113
 21
177.5312502862
 31
0.0
  0
ARC
  5
151
330
1F
100
AcDbEntity
  8
0
  6
HIDDEN
 62
     7
370
    18
100
AcDbCircle
 10
117.3749996469
 20
171.2812502939
 30
0.0
 40
2.083333330746328
100
AcDbArc
 50
270.0
 51
0.0
  0
ARC
  5
152
330
1F
100
AcDbEntity
  8
0
  6
HIDDEN
 62
     7
370
    18
100
AcDbCircle
 10
48.6249997322
 20
171.2812502939
 30
0.0
 40
2.083333330746335
100
AcDbArc
 50
180.0
 51
270.0
  0
LINE
  5
153
330
1F
100
AcDbEntity
  8
0
  6
HIDDEN
 62
     7
370
    18
100
AcDbLine
 10
73.7291663677
 20
169.1979169632
 30
0.0
 11
73.7291663677
 21
165.0312503017
 31
0.0
  0
LINE
  5
154
330
1F
100
AcDbEntity
  8
0
  6
HIDDEN
 62
     7
370
    18
100
AcDbLine
 10
79.3541663608
 20
165.0312503017
 30
0.0
 11
79.3541663608
 21
169.1979169632
 31
0.0
  0
LINE
  5
155
330
1F
100
AcDbEntity
  8
0
  6
HIDDEN
 62
     7
370
    18
100
AcDbLine
 10
92.2708330114
 20
165.0312503017
 30
0.0
 11
92.2708330114
 21
169.1979169632
 31
0.0
  0
LINE
  5
156
330
1F
100
AcDbEntity
  8
0
  6
HIDDEN
 62
     7
370
    18
100
AcDbLine
 10
86.6458330184
 20
169.1979169632
 30
0.0
 11
86.6458330184
 21
165.0312503017
 31
0.0
  0
LINE
  5
157
330
1F
100
AcDbEntity
  8
0
  6
HIDDEN
 62
     7
370
    18
100
AcDbLine
 10
92.2708330114
 20
154.1968401529
 30
0.0
 11
92.2708330114
 21
165.0312503017
 31
0.0
  0
LINE
  5
158
330
1F
100
AcDbEntity
  8
0
  6
HIDDEN
 62
     7
370
    18
100
AcDbLine
 10
86.6458330184
 20
165.0312503017
 30
0.0
 11
86.6458330184
 21
154.1968401529
 31
0.0
  0
LINE
  5
159
330
1F
100
AcDbEntity
  8
0
  6
HIDDEN
 62
     7
370
    18
100
AcDbLine
 10
73.7291663677
 20
165.0312503017
 30
0.0
 11
73.7291663677
 21
154.1968401529
 31
0.0
  0
LINE
  5
15A
330
1F
100
AcDbEntity
  8
0
  6
HIDDEN
 62
     7
370
    18
100
AcDbLine
 10
79.3541663608
 20
154.1968401529
 30
0.0
 11
79.3541663608
 21
165.0312503017
 31
0.0
  0
LINE
  5
15B
330
1F
100
AcDbEntity
  8
0
  6
HIDDEN
 62
     7
370
    18
100
AcDbLine
 10
98.5208330036
 20
162.1537541709
 30
0.0
 11
98.5208330036
 21
157.3425019336
 31
0.0
  0
LINE
  5
15C
330
1F
100
AcDbEntity
  8
0
  6
HIDDEN
 62
     7
370
    18
100
AcDbLine
 10
98.5208330036
 20
157.3425019336
 30
0.0
 11
107.0624996597
 21
157.3425019336
 31
0.0
  0
LINE
  5
15D
330
1F
100
AcDbEntity
  8
0
  6
HIDDEN
 62
     7
370
    18
100
AcDbLine
 10
98.5208330036
 20
157.3425019336
 30
0.0
 11
98.5208330036
 21
147.7199974591
 31
0.0
  0
LINE
  5
15E
330
1F
100
AcDbEntity
  8
0
  6
HIDDEN
 62
     7
370
    18
100
AcDbLine
 10
98.5208330036
 20
147.7199974591
 30
0.0
 11
107.0624996597
 21
147.7199974591
 31
0.0
  0
LINE
  5
15F
330
1F
100
AcDbEntity
  8
0
  6
HIDDEN
 62
     7
370
    18
100
AcDbLine
 10
98.5208330036
 20
147.7199974591
 30
0.0
 11
98.5208330036
 21
142.9087452218
 31
0.0
  0
LINE
  5
160
330
1F
100
AcDbEntity
  8
0
  6
HIDDEN
 62
     7
370
    18
100
AcDbLine
 10
98.5208330036
 20
162.1537541709
 30
0.0
 11
107.0624996597
 21
162.1537541709
 31
0.0
  0
LINE
  5
161
330
1F
100
AcDbEntity
  8
0
  6
HIDDEN
 62
     7
370
    18
100
AcDbLine
 10
107.0624996597
 20
142.9087452218
 30
0.0
 11
98.5208330036
 21
142.9087452218
 31
0.0
  0
SPLINE
  5
162
330
1F
100
AcDbEntity
  8
0
  6
HIDDEN
 62
     7
370
    18
100
AcDbSpline
210
0.0
220
0.0
230
1.0
 70
     8
 71
     3
 72
     8
 73
     4
 74
     0
 42
0.00000001
 43
0.00000001
 40
0.0
 40
0.0
 40
0.0
 40
0.0
 40
0.0001782191200852
 40
0.0001782191200852
 40
0.0001782191200852
 40
0.0001782191200852
 10
60.02206741981627
 20
169.1979566786799
 30
0.0
 10
60.08145606282009
 20
169.1965053764512
 30
0.0
 10
60.14086584403505
 20
169.195749483555
 30
0.0
 10
60.20027219271798
 20
169.1956953341695
 30
0.0
  0
SPLINE
  5
163
330
1F
100
AcDbEntity
  8
0
  6
HIDDEN
 62
     7
370
    18
100
AcDbSpline
210
0.0
220
0.0
230
1.0
 70
     8
 71
     3
 72
     8
 73
     4
 74
     0
 42
0.00000001
 43
0.00000001
 40
0.0000000001017461
 40
0.0000000001017461
 40
0.0000000001017461
 40
0.0000000001017461
 40
0.0001560842418805
 40
0.0001560842418805
 40
0.0001560842418805
 40
0.0001560842418805
 10
107.2275973987736
 20
169.1956899232232
 30
0.0
 10
107.2796252519522
 20
169.1958437651574
 30
0.0
 10
107.3316560451256
 20
169.1966979290108
 30
0.0
 10
107.3836602487623
 20
169.1982739930409
 30
0.0
  0
LINE
  5
164
330
1F
100
AcDbEntity
  8
0
  6
HIDDEN
 62
     7
370
    18
100
AcDbLine
 10
79.3541663608
 20
179.6145836169
 30
0.0
 11
79.3541663608
 21
169.1979169632
 31
0.0
  0
LINE
  5
165
330
1F
100
AcDbEntity
  8
0
  6
HIDDEN
 62
     7
370
    18
100
AcDbLine
 10
86.6458330184
 20
169.1979169632
 30
0.0
 11
86.6458330184
 21
179.6145836169
 31
0.0
  0
ELLIPSE
  5
166
330
1F
100
AcDbEntity
  8
0
  6
HIDDEN
 62
     7
370
    18
100
AcDbEllipse
 10
71.645833037
 20
165.8592655501
 30
0.0
 11
0.0
 21
3.336433346602262
 31
0.0
210
0.0
220
0.0
230
1.0
 40
0.6244192868
 41
4.712388980384699
 42
6.283185307179586
  0
ELLIPSE
  5
167
330
1F
100
AcDbEntity
  8
0
  6
HIDDEN
 62
     7
370
    18
100
AcDbEllipse
 10
94.3541663421
 20
165.8592690463
 30
0.0
 11
0.0
 21
3.336433346602291
 31
0.0
210
0.0
220
0.0
230
1.0
 40
0.6244192868
 41
0.0
 42
1.570796326794897
  0
ELLIPSE
  5
168
330
1F
100
AcDbEntity
  8
0
  6
HIDDEN
 62
     7
370
    18
100
AcDbEllipse
 10
80.3958330261
 20
167.5270451202
 30
0.0
 11
0.0
 21
1.668216673301145
 31
0.0
210
0.0
220
0.0
230
1.0
 40
0.6244192868
 41
0.0
 42
1.570796326794897
  0
ELLIPSE
  5
169
330
1F
100
AcDbEntity
  8
0
  6
HIDDEN
 62
     7
370
    18
100
AcDbEllipse
 10
85.604166353
 20
167.5270451202
 30
0.0
 11
0.0
 21
1.668216673301145
 31
0.0
210
0.0
220
0.0
230
1.0
 40
0.6244192868
 41
4.712388980384699
 42
6.283185307179586
  0
LINE
  5
16A
330
1F
100
AcDbEntity
  8
0
  6
HIDDEN
 62
     7
370
    18
100
AcDbLine
 10
107.2275973767
 20
169.1957023929
 30
0.0
 11
94.3541663421
 21
169.1957023929
 31
0.0
  0
LINE
  5
16B
330
1F
100
AcDbEntity
  8
0
  6
HIDDEN
 62
     7
370
    18
100
AcDbLine
 10
60.2017457777
 20
169.1956988967
 30
0.0
 11
71.645833037
 21
169.1956988967
 31
0.0
  0
LINE
  5
16C
330
1F
100
AcDbEntity
  8
0
  6
HIDDEN
 62
     7
370
    18
100
AcDbLine
 10
85.604166353
 20
169.1952617935
 30
0.0
 11
80.3958330261
 21
169.1952617935
 31
0.0
  0
LINE
  5
16D
330
1F
100
AcDbEntity
  8
0
  6
HIDDEN
 62
     7
370
    18
100
AcDbLine
 10
57.9999970198
 20
171.2812502939
 30
0.0
 11
57.9999970198
 21
179.6145836169
 31
0.0
  0
LINE
  5
16E
330
1F
100
AcDbEntity
  8
0
  6
HIDDEN
 62
     7
370
    18
100
AcDbLine
 10
66.7483306682
 20
171.2812502939
 30
0.0
 11
66.7483281163
 21
179.6145836169
 31
0.0
  0
ARC
  5
16F
330
1F
100
AcDbEntity
  8
0
  6
HIDDEN
 62
     7
370
    18
100
AcDbCircle
 10
55.916663689
 20
171.2812502939
 30
0.0
 40
2.083333330746335
100
AcDbArc
 50
270.0
 51
0.0
  0
SPLINE
  5
170
330
1F
100
AcDbEntity
  8
0
  6
HIDDEN
 62
     7
370
    18
100
AcDbSpline
210
0.0
220
0.0
230
1.0
 70
     8
 71
     3
 72
    16
 73
    12
 74
     0
 42
0.00000001
 43
0.00000001
 40
0.0
 40
0.0
 40
0.0
 40
0.0
 40
0.1250000000000006
 40
0.1250000000000006
 40
0.2500000000000012
 40
0.2500000000000012
 40
0.5000000000000008
 40
0.5000000000000008
 40
0.7500000000000003
 40
0.7500000000000003
 40
1.0
 40
1.0
 40
1.0
 40
1.0
 10
66.74833066816988
 20
171.2812502939487
 30
0.0
 10
66.74833066816988
 20
171.1097579584139
 30
0.0
 10
66.71625615598805
 20
170.9445552494599
 30
0.0
 10
66.59609538911491
 20
170.6251334107414
 30
0.0
 10
66.5105651446169
 20
170.4780929393472
 30
0.0
 10
66.19975252387614
 20
170.0727455795951
 30
0.0
 10
65.93004113245307
 20
169.8594932630599
 30
0.0
 10
65.34314557925919
 20
169.5240067377242
 30
0.0
 10
65.02975439474737
 20
169.4035266385195
 30
0.0
 10
64.37078115290944
 20
169.2388544291206
 30
0.0
 10
64.03615311307136
 20
169.1979169632023
 30
0.0
 10
63.69653617484052
 20
169.1979169632023
 30
0.0
  0
LINE
  5
171
330
1F
100
AcDbEntity
  8
0
  6
HIDDEN
 62
     7
370
    18
100
AcDbLine
 10
108.000000031
 20
171.2812502939
 30
0.0
 11
108.000000031
 21
179.6145836169
 31
0.0
  0
LINE
  5
172
330
1F
100
AcDbEntity
  8
0
  6
HIDDEN
 62
     7
370
    18
100
AcDbLine
 10
99.2516689346
 20
179.6145836169
 30
0.0
 11
99.2516689346
 21
171.2812502939
 31
0.0
  0
ARC
  5
173
330
1F
100
AcDbEntity
  8
0
  6
HIDDEN
 62
     7
370
    18
100
AcDbCircle
 10
110.0833333618
 20
171.2812502939
 30
0.0
 40
2.083333330746328
100
AcDbArc
 50
180.0
 51
270.0
  0
SPLINE
  5
174
330
1F
100
AcDbEntity
  8
0
  6
HIDDEN
 62
     7
370
    18
100
AcDbSpline
210
0.0
220
0.0
230
1.0
 70
     8
 71
     3
 72
    16
 73
    12
 74
     0
 42
0.00000001
 43
0.00000001
 40
0.0
 40
0.0
 40
0.0
 40
0.0
 40
0.25
 40
0.25
 40
0.5
 40
0.5
 40
0.75
 40
0.75
 40
0.875
 40
0.875
 40
1.0
 40
1.0
 40
1.0
 40
1.0
 10
102.3034630244441
 20
169.1979169632023
 30
0.0
 10
101.9636453576865
 20
169.1979169632023
 30
0.0
 10
101.6308163684557
 20
169.2389059678648
 30
0.0
 10
100.9788085082844
 20
169.4009427236537
 30
0.0
 10
100.6581035349639
 20
169.523625222278
 30
0.0
 10
100.0734997545703
 20
169.8571387513733
 30
0.0
 10
99.8020632474588
 20
170.0712071623995
 30
0.0
 10
99.49122034662922
 20
170.4753540708527
 30
0.0
 10
99.40504593668716
 20
170.6231229040772
 30
0.0
 10
99.2848746664835
 20
170.9405427990813
 30
0.0
 10
99.25166893456124
 20
171.1097763284592
 30
0.0
 10
99.25166893456124
 20
171.2812502939487
 30
0.0
  0
LINE
  5
175
330
1F
100
AcDbEntity
  8
0
  6
HIDDEN
 62
     7
370
    18
100
AcDbLine
 10
52.7916663937
 20
169.1979169632
 30
0.0
 11
52.7916663937
 21
179.6145836169
 31
0.0
  0
LINE
  5
176
330
1F
100
AcDbEntity
  8
0
  6
HIDDEN
 62
     7
370
    18
100
AcDbLine
 10
46.5416664015
 20
179.6145836169
 30
0.0
 11
46.5416664015
 21
169.1979169632
 31
0.0
  0
LINE
  5
177
330
1F
100
AcDbEntity
  8
0
  6
HIDDEN
 62
     7
370
    18
100
AcDbLine
 10
119.4583329776
 20
169.1979169632
 30
0.0
 11
119.4583329776
 21
179.6145836169
 31
0.0
  0
LINE
  5
178
330
1F
100
AcDbEntity
  8
0
  6
HIDDEN
 62
     7
370
    18
100
AcDbLine
 10
113.2083329854
 20
179.6145836169
 30
0.0
 11
113.2083329854
 21
169.1973673348
 31
0.0
  0
LINE
  5
179
330
1F
100
AcDbEntity
  8
0
  6
HIDDEN
 62
     7
370
    18
100
AcDbLine
 10
73.7291663677
 20
157.7395830232
 30
0.0
 11
63.312499714
 21
157.7395830232
 31
0.0
  0
LINE
  5
17A
330
1F
100
AcDbEntity
  8
0
  6
HIDDEN
 62
     7
370
    18
100
AcDbLine
 10
63.312499714
 20
147.3229163695
 30
0.0
 11
73.7291663677
 21
147.3229163695
 31
0.0
  0
LINE
  5
17B
330
1F
100
AcDbEntity
  8
0
  6
HIDDEN
 62
     7
370
    18
100
AcDbLine
 10
98.5208330036
 20
157.7395830232
 30
0.0
 11
92.2708330114
 21
157.7395830232
 31
0.0
  0
LINE
  5
17C
330
1F
100
AcDbEntity
  8
0
  6
HIDDEN
 62
     7
370
    18
100
AcDbLine
 10
92.2708330114
 20
147.3229163695
 30
0.0
 11
98.5208330036
 21
147.3229163695
 31
0.0
  0
LINE
  5
17D
330
1F
100
AcDbEntity
  8
0
  6
HIDDEN
 62
     7
370
    18
100
AcDbLine
 10
86.6458330184
 20
157.7395830232
 30
0.0
 11
79.3541663608
 21
157.7395830232
 31
0.0
  0
LINE
  5
17E
330
1F
100
AcDbEntity
  8
0
  6
HIDDEN
 62
     7
370
    18
100
AcDbLine
 10
79.3541663608
 20
147.3229163695
 30
0.0
 11
86.6458330184
 21
147.3229163695
 31
0.0
  0
LINE
  5
17F
330
1F
100
AcDbEntity
  8
0
  6
Continuous
 62
     7
370
    25
100
AcDbLine
 10
236.2812502939
 20
7.0
 30
0.0
 11
244.6145836169
 21
7.0
 31
0.0
  0
ARC
  5
180
330
1F
100
AcDbEntity
  8
0
  6
Continuous
 62
     7
370
    25
100
AcDbCircle
 10
236.2812502939
 20
9.0833333307
 30
0.0
 40
2.083333330746326
100
AcDbArc
 50
180.0
 51
270.0
  0
LINE
  5
181
330
1F
100
AcDbEntity
  8
0
  6
Continuous
 62
     7
370
    25
100
AcDbLine
 10
244.6145836169
 20
15.3333337513
 30
0.0
 11
244.6145836169
 21
7.0
 31
0.0
  0
LINE
  5
182
330
1F
100
AcDbEntity
  8
0
  6
Continuous
 62
     7
370
    25
100
AcDbLine
 10
234.1979169632
 20
15.333333065
 30
0.0
 11
234.1979169632
 21
9.0833333307
 31
0.0
  0
LINE
  5
183
330
1F
100
AcDbEntity
  8
0
  6
Continuous
 62
     7
370
    25
100
AcDbLine
 10
234.1979169632
 20
22.4006364675
 30
0.0
 11
234.1979169632
 21
15.333333065
 31
0.0
  0
LINE
  5
184
330
1F
100
AcDbEntity
  8
0
  6
Continuous
 62
     7
370
    25
100
AcDbLine
 10
244.6145836169
 20
22.4006364675
 30
0.0
 11
244.6145836169
 21
15.3333337513
 31
0.0
  0
LINE
  5
185
330
1F
100
AcDbEntity
  8
0
  6
Continuous
 62
     7
370
    25
100
AcDbLine
 10
236.2812502939
 20
107.0
 30
0.0
 11
244.6145836169
 21
107.0
 31
0.0
  0
LINE
  5
186
330
1F
100
AcDbEntity
  8
0
  6
Continuous
 62
     7
370
    25
100
AcDbLine
 10
244.6145836169
 20
107.0
 30
0.0
 11
244.6145836169
 21
98.666666677
 31
0.0
  0
LINE
  5
187
330
1F
100
AcDbEntity
  8
0
  6
Continuous
 62
     7
370
    25
100
AcDbLine
 10
244.6145836169
 20
98.666666677
 30
0.0
 11
244.6145836169
 21
91.5993649245
 31
0.0
  0
LINE
  5
188
330
1F
100
AcDbEntity
  8
0
  6
Continuous
 62
     7
370
    25
100
AcDbLine
 10
244.6145836169
 20
91.5993649245
 30
0.0
 11
244.6145836169
 21
85.3493649323
 31
0.0
  0
LINE
  5
189
330
1F
100
AcDbEntity
  8
0
  6
Continuous
 62
     7
370
    25
100
AcDbLine
 10
234.1979169632
 20
104.9166666693
 30
0.0
 11
234.1979169632
 21
98.666666677
 31
0.0
  0
ARC
  5
18A
330
1F
100
AcDbEntity
  8
0
  6
Continuous
 62
     7
370
    25
100
AcDbCircle
 10
236.2812502939
 20
104.9166666693
 30
0.0
 40
2.083333330746328
100
AcDbArc
 50
90.0
 51
180.0
  0
LINE
  5
18B
330
1F
100
AcDbEntity
  8
0
  6
Continuous
 62
     7
370
    25
100
AcDbLine
 10
234.1979169632
 20
91.5993649245
 30
0.0
 11
234.1979169632
 21
86.3910315976
 31
0.0
  0
LINE
  5
18C
330
1F
100
AcDbEntity
  8
0
  6
Continuous
 62
     7
370
    25
100
AcDbLine
 10
234.1979169632
 20
98.666666677
 30
0.0
 11
234.1979169632
 21
91.5993649245
 31
0.0
  0
LINE
  5
18D
330
1F
100
AcDbEntity
  8
0
  6
Continuous
 62
     7
370
    25
100
AcDbLine
 10
244.6145836169
 20
28.6506344109
 30
0.0
 11
244.6145836169
 21
22.4006364675
 31
0.0
  0
LINE
  5
18E
330
1F
100
AcDbEntity
  8
0
  6
Continuous
 62
     7
370
    25
100
AcDbLine
 10
234.1979169632
 20
27.608968087
 30
0.0
 11
234.1979169632
 21
22.4006364675
 31
0.0
  0
LINE
  5
18F
330
1F
100
AcDbEntity
  8
0
  6
Continuous
 62
     7
370
    25
100
AcDbLine
 10
234.1979169632
 20
86.3910315976
 30
0.0
 11
234.1979169632
 21
83.1712038348
 31
0.0
  0
LINE
  5
190
330
1F
100
AcDbEntity
  8
0
  6
Continuous
 62
     7
370
    25
100
AcDbLine
 10
244.6145836169
 20
85.3493649323
 30
0.0
 11
244.6145836169
 21
82.1295371694
 31
0.0
  0
LINE
  5
191
330
1F
100
AcDbEntity
  8
0
  6
Continuous
 62
     7
370
    25
100
AcDbLine
 10
244.6145836169
 20
31.8704647216
 30
0.0
 11
244.6145836169
 21
28.6506344109
 31
0.0
  0
LINE
  5
192
330
1F
100
AcDbEntity
  8
0
  6
Continuous
 62
     7
370
    25
100
AcDbLine
 10
234.1979169632
 20
30.8287983977
 30
0.0
 11
234.1979169632
 21
27.608968087
 31
0.0
  0
LINE
  5
193
330
1F
100
AcDbEntity
  8
0
  6
Continuous
 62
     7
370
    25
100
AcDbLine
 10
244.6145836169
 20
82.1295371694
 30
0.0
 11
244.6145836169
 21
75.8795371772
 31
0.0
  0
LINE
  5
194
330
1F
100
AcDbEntity
  8
0
  6
Continuous
 62
     7
370
    25
100
AcDbLine
 10
234.1979169632
 20
83.1712038348
 30
0.0
 11
234.1979169632
 21
75.8795371772
 31
0.0
  0
LINE
  5
195
330
1F
100
AcDbEntity
  8
0
  6
Continuous
 62
     7
370
    25
100
AcDbLine
 10
244.6145836169
 20
38.1204626649
 30
0.0
 11
244.6145836169
 21
31.8704647216
 31
0.0
  0
LINE
  5
196
330
1F
100
AcDbEntity
  8
0
  6
Continuous
 62
     7
370
    25
100
AcDbLine
 10
234.1979169632
 20
38.1204626649
 30
0.0
 11
234.1979169632
 21
30.8287983977
 31
0.0
  0
SPLINE
  5
197
330
1F
100
AcDbEntity
  8
0
  6
Continuous
 62
     7
370
    25
100
AcDbSpline
210
0.0
220
0.0
230
1.0
 70
     8
 71
     3
 72
    10
 73
     6
 74
     0
 42
0.00000001
 43
0.00000001
 40
0.0
 40
0.0
 40
0.0
 40
0.0
 40
0.5
 40
0.5
 40
1.0
 40
1.0
 40
1.0
 40
1.0
 10
234.1979169632023
 20
99.4667860247574
 30
0.0
 10
234.1979169632023
 20
99.20418936713921
 30
0.0
 10
234.1970529926167
 20
98.93840935370801
 30
0.0
 10
234.1970447461893
 20
98.40067407628908
 30
0.0
 10
234.1979169632023
 20
98.12914459928463
 30
0.0
 10
234.1979169632023
 20
97.8665473292718
 30
0.0
  0
LINE
  5
198
330
1F
100
AcDbEntity
  8
0
  6
Continuous
 62
     7
370
    25
100
AcDbLine
 10
244.6145836169
 20
75.8795371772
 30
0.0
 11
244.6145836169
 21
38.1204626649
 31
0.0
  0
LINE
  5
199
330
1F
100
AcDbEntity
  8
0
  6
Continuous
 62
     7
370
    25
100
AcDbLine
 10
234.1979169632
 20
75.8795371772
 30
0.0
 11
234.1979169632
 21
38.1204626649
 31
0.0
  0
SPLINE
  5
19A
330
1F
100
AcDbEntity
  8
0
  6
Continuous
 62
     7
370
    25
100
AcDbSpline
210
0.0
220
0.0
230
1.0
 70
     8
 71
     3
 72
    23
 73
    19
 74
     0
 42
0.00000001
 43
0.00000001
 40
0.0
 40
0.0
 40
0.0
 40
0.0
 40
0.0276869219225189
 40
0.0585267405944551
 40
0.0925110877847056
 40
0.1296275664978395
 40
0.1942698835510733
 40
0.2587402196129562
 40
0.3848753603860579
 40
0.5134840295561928
 40
0.6383466546254384
 40
0.7057937564915925
 40
0.761175308414786
 40
0.8089247096238075
 40
0.8817420233889725
 40
0.9266639291966609
 40
0.9660501398061682
 40
1.0
 40
1.0
 40
1.0
 40
1.0
 10
225.7410641218011
 20
39.60950092971595
 30
0.0
 10
225.8287925556974
 20
39.55472160181235
 30
0.0
 10
226.0142396526257
 20
39.43892485405092
 30
0.0
 10
226.307228450372
 20
39.25597662957718
 30
0.0
 10
226.6297156551143
 20
39.05460838013354
 30
0.0
 10
227.0582788523789
 20
38.78700283582025
 30
0.0
 10
227.5810590658054
 20
38.46056459196021
 30
0.0
 10
228.3775724826967
 20
37.9631981018584
 30
0.0
 10
229.3589364158098
 20
37.35040896554518
 30
0.0
 10
230.4885660770155
 20
36.64505099482171
 30
0.0
 10
231.400336517587
 20
36.07573310806414
 30
0.0
 10
232.0705892312843
 20
35.65721899378687
 30
0.0
 10
232.515520448098
 20
35.37939669173684
 30
0.0
 10
232.958631821769
 20
35.1027085786709
 30
0.0
 10
233.3566243122158
 20
34.85419304818947
 30
0.0
 10
233.7143838986731
 20
34.63079964881189
 30
0.0
 10
233.9730432966625
 20
34.46928688890429
 30
0.0
 10
234.1252400975838
 20
34.37425204273266
 30
0.0
 10
234.1956973781093
 20
34.33025705219492
 30
0.0
  0
SPLINE
  5
19B
330
1F
100
AcDbEntity
  8
0
  6
Continuous
 62
     7
370
    25
100
AcDbSpline
210
0.0
220
0.0
230
1.0
 70
     8
 71
     3
 72
    13
 73
     9
 74
     0
 42
0.00000001
 43
0.00000001
 40
0.3440285888013208
 40
0.3440285888013208
 40
0.3440285888013208
 40
0.3440285888013208
 40
0.363258023885834
 40
0.450457390213307
 40
0.624856122868254
 40
0.7992548555232021
 40
1.1480523208331
 40
1.49684978614299
 40
1.49684978614299
 40
1.49684978614299
 40
1.49684978614299
 10
234.1970343618709
 20
102.8286323608454
 30
0.0
 10
234.1842466726992
 20
102.7658155081597
 30
0.0
 10
234.1065309988673
 20
102.3894379126835
 30
0.0
 10
233.8254993779589
 20
101.1462637258994
 30
0.0
 10
233.2015923060975
 20
98.99242348856372
 30
0.0
 10
231.8281508681727
 20
95.4749219016631
 30
0.0
 10
229.3970381917451
 20
91.10341860568937
 30
0.0
 10
226.6312902148762
 20
87.86247528853885
 30
0.0
 10
225.0805926461277
 20
86.39171726394456
 30
0.0
  0
ARC
  5
19C
330
1F
100
AcDbEntity
  8
0
  6
Continuous
 62
     7
370
    25
100
AcDbCircle
 10
203.5756602099
 20
109.065499006
 30
0.0
 40
31.24999996119497
100
AcDbArc
 50
287.124416177
 51
313.4844621713
  0
LINE
  5
19D
330
1F
100
AcDbEntity
  8
0
  6
Continuous
 62
     7
370
    25
100
AcDbLine
 10
208.9796949059
 20
50.0756231414
 30
0.0
 11
225.7410641218
 21
39.6095009297
 31
0.0
  0
LINE
  5
19E
330
1F
100
AcDbEntity
  8
0
  6
Continuous
 62
     7
370
    25
100
AcDbLine
 10
207.9087452218
 20
63.7708355911
 30
0.0
 11
212.7199974591
 21
55.4375022682
 31
0.0
  0
LINE
  5
19F
330
1F
100
AcDbEntity
  8
0
  6
Continuous
 62
     7
370
    25
100
AcDbLine
 10
212.7199974591
 20
55.4375022682
 30
0.0
 11
222.3425019336
 21
55.4375022682
 31
0.0
  0
LINE
  5
1A0
330
1F
100
AcDbEntity
  8
0
  6
Continuous
 62
     7
370
    25
100
AcDbLine
 10
222.3425019336
 20
55.4375022682
 30
0.0
 11
227.1537541709
 21
63.7708355911
 31
0.0
  0
LINE
  5
1A1
330
1F
100
AcDbEntity
  8
0
  6
Continuous
 62
     7
370
    25
100
AcDbLine
 10
227.1537541709
 20
63.7708355911
 30
0.0
 11
222.3425019336
 21
72.1041689141
 31
0.0
  0
LINE
  5
1A2
330
1F
100
AcDbEntity
  8
0
  6
Continuous
 62
     7
370
    25
100
AcDbLine
 10
222.3425019336
 20
72.1041689141
 30
0.0
 11
212.7199974591
 21
72.1041689141
 31
0.0
  0
LINE
  5
1A3
330
1F
100
AcDbEntity
  8
0
  6
Continuous
 62
     7
370
    25
100
AcDbLine
 10
212.7199974591
 20
72.1041689141
 30
0.0
 11
207.9087452218
 21
63.7708355911
 31
0.0
  0
ARC
  5
1A4
330
1F
100
AcDbEntity
  8
0
  6
Continuous
 62
     7
370
    25
100
AcDbCircle
 10
217.5312496964
 20
63.7708355911
 30
0.0
 40
16.14583331326384
100
AcDbArc
 50
107.124416177
 51
238.0185492681
  0
CIRCLE
  5
1A5
330
1F
100
AcDbEntity
  8
0
  6
Continuous
 62
     7
370
    25
100
AcDbCircle
 10
217.5312496964
 20
63.7708355911
 30
0.0
 40
5.208333326865819
  0
SPLINE
  5
1A6
330
1F
100
AcDbEntity
  8
0
  6
HIDDEN
 62
     7
370
    18
100
AcDbSpline
210
0.0
220
0.0
230
1.0
 70
    24
 71
     3
 72
    13
 73
     9
 74
     0
 42
0.00000001
 43
0.00000001
 40
0.0
 40
0.0
 40
0.0
 40
0.0
 40
0.0026963632419406
 40
0.2127440294537267
 40
0.5167421242334863
 40
0.7227602072751189
 40
0.8813299498788536
 40
1.0
 40
1.0
 40
1.0
 40
1.0
 10
234.2540739117055
 20
34.33026173028237
 30
0.0
 10
234.2543216882531
 20
34.33026173028237
 30
0.0
 10
234.2738713469607
 20
34.33026173028237
 30
0.0
 10
234.4500281094744
 20
34.33026173028235
 30
0.0
 10
234.80765226103
 20
34.33026173028237
 30
0.0
 10
235.3443363445757
 20
34.33026173028237
 30
0.0
 10
235.8356245349985
 20
34.33026173028237
 30
0.0
 10
236.1476783908867
 20
34.33026173028237
 30
0.0
 10
236.2812502939487
 20
34.33026173028237
 30
0.0
  0
LINE
  5
1A7
330
1F
100
AcDbEntity
  8
0
  6
HIDDEN
 62
     7
370
    18
100
AcDbLine
 10
244.6145836169
 20
34.3302617303
 30
0.0
 11
236.2812502939
 21
34.3302617303
 31
0.0
  0
LINE
  5
1A8
330
1F
100
AcDbEntity
  8
0
  6
HIDDEN
 62
     7
370
    18
100
AcDbLine
 10
242.5312502862
 20
64.7114483424
 30
0.0
 11
242.5312502862
 21
68.8781150039
 31
0.0
  0
LINE
  5
1A9
330
1F
100
AcDbEntity
  8
0
  6
HIDDEN
 62
     7
370
    18
100
AcDbLine
 10
242.5312502862
 20
40.5372356436
 30
0.0
 11
242.5312502862
 21
44.7039023051
 31
0.0
  0
LINE
  5
1AA
330
1F
100
AcDbEntity
  8
0
  6
HIDDEN
 62
     7
370
    18
100
AcDbLine
 10
242.5312502862
 20
51.5225835875
 30
0.0
 11
242.5312502862
 21
55.3711160378
 31
0.0
  0
LINE
  5
1AB
330
1F
100
AcDbEntity
  8
0
  6
HIDDEN
 62
     7
370
    18
100
AcDbLine
 10
242.5312502862
 20
44.7039023051
 30
0.0
 11
242.5312502862
 21
51.5225835875
 31
0.0
  0
LINE
  5
1AC
330
1F
100
AcDbEntity
  8
0
  6
HIDDEN
 62
     7
370
    18
100
AcDbLine
 10
242.5312502862
 20
68.8781150039
 30
0.0
 11
242.5312502862
 21
87.3530093729
 31
0.0
  0
LINE
  5
1AD
330
1F
100
AcDbEntity
  8
0
  6
HIDDEN
 62
     7
370
    18
100
AcDbLine
 10
242.5312502862
 20
87.3530093729
 30
0.0
 11
242.5312502862
 21
89.4363427036
 31
0.0
  0
LINE
  5
1AE
330
1F
100
AcDbEntity
  8
0
  6
HIDDEN
 62
     7
370
    18
100
AcDbLine
 10
242.5312502862
 20
55.3711160378
 30
0.0
 11
242.5312502862
 21
58.8288051744
 31
0.0
  0
LINE
  5
1AF
330
1F
100
AcDbEntity
  8
0
  6
HIDDEN
 62
     7
370
    18
100
AcDbLine
 10
244.6145836169
 20
88.2500000233
 30
0.0
 11
242.5312502862
 21
88.2500000233
 31
0.0
  0
SPLINE
  5
1B0
330
1F
100
AcDbEntity
  8
0
  6
HIDDEN
 62
     7
370
    18
100
AcDbSpline
210
0.0
220
0.0
230
1.0
 70
    24
 71
     3
 72
    14
 73
    10
 74
     0
 42
0.00000001
 43
0.00000001
 40
0.0
 40
0.0
 40
0.0
 40
0.0
 40
0.2500000000000003
 40
0.2500000000000003
 40
0.3750000000000005
 40
0.3750000000000005
 40
0.5000000000000007
 40
0.5000000000000007
 40
1.0
 40
1.0
 40
1.0
 40
1.0
 10
234.1979169632023
 20
102.8333333385071
 30
0.0
 10
234.1979169632023
 20
102.8333333385071
 30
0.0
 10
234.2725825780872
 20
102.8333333385071
 30
0.0
 10
234.458221233055
 20
102.8333333385071
 30
0.0
 10
234.5326322318496
 20
102.8333333385071
 30
0.0
 10
234.6983333515409
 20
102.8333333385071
 30
0.0
 10
234.7900116354499
 20
102.8333333385071
 30
0.0
 10
235.2820130274655
 20
102.8333333385071
 30
0.0
 10
235.7817969989783
 20
102.8333333385071
 30
0.0
 10
236.2812502939487
 20
102.8333333385071
 30
0.0
  0
LINE
  5
1B1
330
1F
100
AcDbEntity
  8
0
  6
HIDDEN
 62
     7
370
    18
100
AcDbLine
 10
244.6145836169
 20
102.8333333385
 30
0.0
 11
236.2812502939
 21
102.8333333385
 31
0.0
  0
LINE
  5
1B2
330
1F
100
AcDbEntity
  8
0
  6
HIDDEN
 62
     7
370
    18
100
AcDbLine
 10
242.5312502862
 20
58.8288051744
 30
0.0
 11
242.5312502862
 21
59.1469393856
 31
0.0
  0
ARC
  5
1B3
330
1F
100
AcDbEntity
  8
0
  6
HIDDEN
 62
     7
370
    18
100
AcDbCircle
 10
230.0312503017
 20
77.8333333696
 30
0.0
 40
4.166666661492656
100
AcDbArc
 50
0.0
 51
90.0
  0
LINE
  5
1B4
330
1F
100
AcDbEntity
  8
0
  6
HIDDEN
 62
     7
370
    18
100
AcDbLine
 10
219.1968401529
 20
82.000000031
 30
0.0
 11
230.0312503017
 21
82.000000031
 31
0.0
  0
LINE
  5
1B5
330
1F
100
AcDbEntity
  8
0
  6
HIDDEN
 62
     7
370
    18
100
AcDbLine
 10
234.2104769981
 20
34.330536849
 30
0.0
 11
244.6145836169
 21
34.330536849
 31
0.0
  0
LINE
  5
1B6
330
1F
100
AcDbEntity
  8
0
  6
HIDDEN
 62
     7
370
    18
100
AcDbLine
 10
234.1979169632
 20
40.0660641118
 30
0.0
 11
244.6145836169
 21
40.0660641118
 31
0.0
  0
LINE
  5
1B7
330
1F
100
AcDbEntity
  8
0
  6
HIDDEN
 62
     7
370
    18
100
AcDbLine
 10
242.5312502862
 20
59.1469393856
 30
0.0
 11
242.5312502862
 21
64.7114483424
 31
0.0
  0
LINE
  5
1B8
330
1F
100
AcDbEntity
  8
0
  6
HIDDEN
 62
     7
370
    18
100
AcDbLine
 10
236.2812502939
 20
34.3302639134
 30
0.0
 11
244.6145836169
 21
34.3302617303
 31
0.0
  0
LINE
  5
1B9
330
1F
100
AcDbEntity
  8
0
  6
HIDDEN
 62
     7
370
    18
100
AcDbLine
 10
234.1979169632
 20
12.208333451
 30
0.0
 11
244.6145836169
 21
12.208333451
 31
0.0
  0
LINE
  5
1BA
330
1F
100
AcDbEntity
  8
0
  6
HIDDEN
 62
     7
370
    18
100
AcDbLine
 10
244.6145836169
 20
18.4583334433
 30
0.0
 11
234.1979169632
 21
18.4583334433
 31
0.0
  0
LINE
  5
1BB
330
1F
100
AcDbEntity
  8
0
  6
HIDDEN
 62
     7
370
    18
100
AcDbLine
 10
234.1979169632
 20
95.5416666809
 30
0.0
 11
244.6145836169
 21
95.5416666809
 31
0.0
  0
LINE
  5
1BC
330
1F
100
AcDbEntity
  8
0
  6
HIDDEN
 62
     7
370
    18
100
AcDbLine
 10
244.6145836169
 20
101.7916666731
 30
0.0
 11
234.1979169632
 21
101.7916666731
 31
0.0
  0
LINE
  5
1BD
330
1F
100
AcDbEntity
  8
0
  6
HIDDEN
 62
     7
370
    18
100
AcDbLine
 10
242.5312502862
 20
64.7114483424
 30
0.0
 11
244.6145836169
 21
64.7114483424
 31
0.0
  0
LINE
  5
1BE
330
1F
100
AcDbEntity
  8
0
  6
HIDDEN
 62
     7
370
    18
100
AcDbLine
 10
242.5312502862
 20
40.5372356436
 30
0.0
 11
244.6145836169
 21
40.5372356436
 31
0.0
  0
LINE
  5
1BF
330
1F
100
AcDbEntity
  8
0
  6
HIDDEN
 62
     7
370
    18
100
AcDbLine
 10
244.6145836169
 20
89.4363427036
 30
0.0
 11
242.5312502862
 21
89.4363427036
 31
0.0
  0
LINE
  5
1C0
330
1F
100
AcDbEntity
  8
0
  6
HIDDEN
 62
     7
370
    18
100
AcDbLine
 10
244.6145836169
 20
59.1469393856
 30
0.0
 11
242.5312502862
 21
59.1469393856
 31
0.0
  0
LINE
  5
1C1
330
1F
100
AcDbEntity
  8
0
  6
HIDDEN
 62
     7
370
    18
100
AcDbLine
 10
244.6145836169
 20
72.9145418078
 30
0.0
 11
242.5312502862
 21
72.9145418078
 31
0.0
  0
LINE
  5
1C2
330
1F
100
AcDbEntity
  8
0
  6
HIDDEN
 62
     7
370
    18
100
AcDbLine
 10
242.5312502862
 20
78.4790507647
 30
0.0
 11
244.6145836169
 21
78.4790507647
 31
0.0
  0
INSERT
  5
1CE
330
1F
100
AcDbEntity
  8
10
100
AcDbBlockReference
  2
SW_CENTERMARKSYMBOL_4
 10
217.5312496964
 20
63.7708355911
 30
0.0
  0
ENDSEC
  0
SECTION
  2
OBJECTS
  0
DICTIONARY
  5
C
330
0
100
AcDbDictionary
281
     1
  3
ACAD_GROUP
350
D
  3
ACAD_LAYOUT
350
1A
  3
ACAD_MLINESTYLE
350
17
  3
ACAD_PLOTSETTINGS
350
19
  3
ACAD_PLOTSTYLENAME
350
E
  3
ACAD_SCALELIST
350
47
  3
DWGPROPS
350
1CF
  0
DICTIONARY
  5
D
102
{ACAD_REACTORS
330
C
102
}
330
C
100
AcDbDictionary
281
     1
  0
DICTIONARY
  5
1A
102
{ACAD_REACTORS
330
C
102
}
330
C
100
AcDbDictionary
281
     1
  3
Layout1
350
1E
  3
Layout2
350
26
  3
Model
350
22
  0
DICTIONARY
  5
17
102
{ACAD_REACTORS
330
C
102
}
330
C
100
AcDbDictionary
281
     1
  3
Standard
350
18
  0
DICTIONARY
  5
19
102
{ACAD_REACTORS
330
C
102
}
330
C
100
AcDbDictionary
281
     1
  0
ACDBDICTIONARYWDFLT
  5
E
102
{ACAD_REACTORS
330
C
102
}
330
C
100
AcDbDictionary
281
     1
  3
Normal
350
F
100
AcDbDictionaryWithDefault
340
F
  0
DICTIONARY
  5
47
102
{ACAD_REACTORS
330
C
102
}
330
C
100
AcDbDictionary
281
     1
  3
A0
350
48
  3
A1
350
49
  3
A2
350
4A
  3
A3
350
4B
  3
A4
350
4C
  3
A5
350
4D
  3
A6
350
4E
  3
A7
350
4F
  3
A8
350
50
  3
A9
350
51
  3
B0
350
52
  3
B1
350
53
  3
B2
350
54
  3
B3
350
55
  3
B4
350
56
  3
B5
350
57
  3
B6
350
58
  0
XRECORD
  5
1CF
102
{ACAD_REACTORS
330
C
102
}
330
C
100
AcDbXrecord
280
     1
  1
DWGPROPS COOKIE
  2

  3

  4

  6

  7

  8

  9

300
=
301
=
302
=
303
=
304
=
305
=
306
=
307
=
308
=
309
=
 40
0.0
 41
2461215.473699421
 42
2461215.473699757
  1

 90
        0
  0
LAYOUT
  5
1E
102
{ACAD_REACTORS
330
1A
102
}
330
1A
100
AcDbPlotSettings
  1

  2
none_device
  4

  6

 40
0.0
 41
0.0
 42
0.0
 43
0.0
 44
0.0
 45
0.0
 46
0.0
 47
0.0
 48
0.0
 49
0.0
140
0.0
141
0.0
142
1.0
143
1.0
 70
   688
 72
     1
 73
     0
 74
     5
  7

 75
    16
147
1.0
148
0.0
149
0.0
100
AcDbLayout
  1
Layout1
 70
     1
 71
     1
 10
0.0
 20
0.0
 11
420.0
 21
297.0
 12
0.0
 22
0.0
 32
0.0
 14
1.0000000000E+20
 24
1.0000000000E+20
 34
1.0000000000E+20
 15
-1.0000000000E+20
 25
-1.0000000000E+20
 35
-1.0000000000E+20
146
0.0
 13
0.0
 23
0.0
 33
0.0
 16
1.0
 26
0.0
 36
0.0
 17
0.0
 27
1.0
 37
0.0
 76
     0
330
1B
  0
LAYOUT
  5
26
102
{ACAD_REACTORS
330
1A
102
}
330
1A
100
AcDbPlotSettings
  1

  2
none_device
  4

  6

 40
0.0
 41
0.0
 42
0.0
 43
0.0
 44
0.0
 45
0.0
 46
0.0
 47
0.0
 48
0.0
 49
0.0
140
0.0
141
0.0
142
1.0
143
1.0
 70
   688
 72
     1
 73
     0
 74
     5
  7

 75
    16
147
1.0
148
0.0
149
0.0
100
AcDbLayout
  1
Layout2
 70
     1
 71
     2
 10
0.0
 20
0.0
 11
0.0
 21
0.0
 12
0.0
 22
0.0
 32
0.0
 14
0.0
 24
0.0
 34
0.0
 15
0.0
 25
0.0
 35
0.0
146
0.0
 13
0.0
 23
0.0
 33
0.0
 16
1.0
 26
0.0
 36
0.0
 17
0.0
 27
1.0
 37
0.0
 76
     0
330
23
  0
LAYOUT
  5
22
102
{ACAD_REACTORS
330
1A
102
}
330
1A
100
AcDbPlotSettings
  1

  2
none_device
  4
Letter_(8.50_x_11.00_Inches)
  6

 40
6.35
 41
6.35
 42
6.35000508
 43
6.35000508
 44
215.9
 45
279.4
 46
0.0
 47
0.0
 48
0.0
 49
0.0
140
0.0
141
0.0
142
1.0
143
1.0
 70
  1712
 72
     1
 73
     0
 74
     0
  7

 75
     0
147
1.0
148
0.0
149
0.0
100
AcDbLayout
  1
Model
 70
     1
 71
     0
 10
0.0
 20
0.0
 11
297.0
 21
210.0
 12
0.0
 22
0.0
 32
0.0
 14
0.0
 24
0.0
 34
0.0
 15
297.0
 25
210.0
 35
0.0
146
0.0
 13
0.0
 23
0.0
 33
0.0
 16
1.0
 26
0.0
 36
0.0
 17
0.0
 27
1.0
 37
0.0
 76
     0
330
1F
331
29
  0
MLINESTYLE
  5
18
102
{ACAD_REACTORS
330
17
102
}
330
17
100
AcDbMlineStyle
  2
Standard
 70
     0
  3

 62
   256
 51
90.0
 52
90.0
 71
     2
 49
0.5
 62
   256
  6
BYLAYER
 49
-0.5
 62
   256
  6
BYLAYER
  0
ACDBPLACEHOLDER
  5
F
102
{ACAD_REACTORS
330
E
102
}
330
E
  0
SCALE
  5
48
102
{ACAD_REACTORS
330
47
102
}
330
47
100
AcDbScale
 70
     0
300
1:1
140
1.0
141
1.0
290
     1
  0
SCALE
  5
49
102
{ACAD_REACTORS
330
47
102
}
330
47
100
AcDbScale
 70
     0
300
1:2
140
1.0
141
2.0
290
     0
  0
SCALE
  5
4A
102
{ACAD_REACTORS
330
47
102
}
330
47
100
AcDbScale
 70
     0
300
1:4
140
1.0
141
4.0
290
     0
  0
SCALE
  5
4B
102
{ACAD_REACTORS
330
47
102
}
330
47
100
AcDbScale
 70
     0
300
1:5
140
1.0
141
5.0
290
     0
  0
SCALE
  5
4C
102
{ACAD_REACTORS
330
47
102
}
330
47
100
AcDbScale
 70
     0
300
1:8
140
1.0
141
8.0
290
     0
  0
SCALE
  5
4D
102
{ACAD_REACTORS
330
47
102
}
330
47
100
AcDbScale
 70
     0
300
1:10
140
1.0
141
10.0
290
     0
  0
SCALE
  5
4E
102
{ACAD_REACTORS
330
47
102
}
330
47
100
AcDbScale
 70
     0
300
1:16
140
1.0
141
16.0
290
     0
  0
SCALE
  5
4F
102
{ACAD_REACTORS
330
47
102
}
330
47
100
AcDbScale
 70
     0
300
1:20
140
1.0
141
20.0
290
     0
  0
SCALE
  5
50
102
{ACAD_REACTORS
330
47
102
}
330
47
100
AcDbScale
 70
     0
300
1:30
140
1.0
141
30.0
290
     0
  0
SCALE
  5
51
102
{ACAD_REACTORS
330
47
102
}
330
47
100
AcDbScale
 70
     0
300
1:40
140
1.0
141
40.0
290
     0
  0
SCALE
  5
52
102
{ACAD_REACTORS
330
47
102
}
330
47
100
AcDbScale
 70
     0
300
1:50
140
1.0
141
50.0
290
     0
  0
SCALE
  5
53
102
{ACAD_REACTORS
330
47
102
}
330
47
100
AcDbScale
 70
     0
300
1:100
140
1.0
141
100.0
290
     0
  0
SCALE
  5
54
102
{ACAD_REACTORS
330
47
102
}
330
47
100
AcDbScale
 70
     0
300
2:1
140
2.0
141
1.0
290
     0
  0
SCALE
  5
55
102
{ACAD_REACTORS
330
47
102
}
330
47
100
AcDbScale
 70
     0
300
4:1
140
4.0
141
1.0
290
     0
  0
SCALE
  5
56
102
{ACAD_REACTORS
330
47
102
}
330
47
100
AcDbScale
 70
     0
300
8:1
140
8.0
141
1.0
290
     0
  0
SCALE
  5
57
102
{ACAD_REACTORS
330
47
102
}
330
47
100
AcDbScale
 70
     0
300
10:1
140
10.0
141
1.0
290
     0
  0
SCALE
  5
58
102
{ACAD_REACTORS
330
47
102
}
330
47
100
AcDbScale
 70
     0
300
100:1
140
100.0
141
1.0
290
     0
  0
ENDSEC
  0
EOF
