  0
SECTION
  2
HEADER
  9
$ACADVER
  1
AC1015
  9
$ACADMAINTVER
 70
     6
  9
$DWGCODEPAGE
  3
ANSI_936
  9
$INSBASE
 10
0.0
 20
0.0
 30
0.0
  9
$EXTMIN
 10
0.0
 20
0.0
 30
0.0
  9
$EXTMAX
 10
297.0
 20
210.0
 30
0.0
  9
$LIMMIN
 10
0.0
 20
0.0
  9
$LIMMAX
 10
297.0
 20
210.0
  9
$ORTHOMODE
 70
     0
  9
$REGENMODE
 70
     1
  9
$FILLMODE
 70
     1
  9
$QTEXTMODE
 70
     0
  9
$MIRRTEXT
 70
     1
  9
$LTSCALE
 40
1.0
  9
$ATTMODE
 70
     1
  9
$TEXTSIZE
 40
3.5
  9
$TRACEWID
 40
1.0
  9
$TEXTSTYLE
  7
Standard
  9
$CLAYER
  8
0
  9
$CELTYPE
  6
ByLayer
  9
$CECOLOR
 62
   256
  9
$CELTSCALE
 40
1.0
  9
$DISPSILH
 70
     0
  9
$DIMSCALE
 40
1.0
  9
$DIMASZ
 40
4.08
  9
$DIMEXO
 40
0.0
  9
$DIMDLI
 40
3.75
  9
$DIMRND
 40
0.0
  9
$DIMDLE
 40
0.0
  9
$DIMEXE
 40
2.0
  9
$DIMTP
 40
0.0
  9
$DIMTM
 40
0.0
  9
$DIMTXT
 40
3.5
  9
$DIMCEN
 40
2.5
  9
$DIMTSZ
 40
0.0
  9
$DIMTOL
 70
     0
  9
$DIMLIM
 70
     0
  9
$DIMTIH
 70
     1
  9
$DIMTOH
 70
     1
  9
$DIMSE1
 70
     0
  9
$DIMSE2
 70
     0
  9
$DIMTAD
 70
     1
  9
$DIMZIN
 70
     0
  9
$DIMBLK
  1

  9
$DIMASO
 70
     1
  9
$DIMSHO
 70
     1
  9
$DIMPOST
  1

  9
$DIMAPOST
  1

  9
$DIMALT
 70
     0
  9
$DIMALTD
 70
     3
  9
$DIMALTF
 40
0.0393700787
  9
$DIMLFAC
 40
2.0
  9
$DIMTOFL
 70
     1
  9
$DIMTVP
 40
0.0
  9
$DIMTIX
 70
     0
  9
$DIMSOXD
 70
     0
  9
$DIMSAH
 70
     0
  9
$DIMBLK1
  1

  9
$DIMBLK2
  1

  9
$DIMSTYLE
  2
ISO-25
  9
$DIMCLRD
 70
     0
  9
$DIMCLRE
 70
     0
  9
$DIMCLRT
 70
     0
  9
$DIMTFAC
 40
1.0
  9
$DIMGAP
 40
1.524
  9
$DIMJUST
 70
     0
  9
$DIMSD1
 70
     0
  9
$DIMSD2
 70
     0
  9
$DIMTOLJ
 70
     0
  9
$DIMTZIN
 70
     0
  9
$DIMALTZ
 70
     0
  9
$DIMALTTZ
 70
     0
  9
$DIMUPT
 70
     0
  9
$DIMDEC
 70
     2
  9
$DIMTDEC
 70
     2
  9
$DIMALTU
 70
     2
  9
$DIMALTTD
 70
     3
  9
$DIMTXSTY
  7
Standard
  9
$DIMAUNIT
 70
     0
  9
$DIMADEC
 70
     2
  9
$DIMALTRND
 40
0.0
  9
$DIMAZIN
 70
     0
  9
$DIMDSEP
 70
    44
  9
$DIMATFIT
 70
     3
  9
$DIMFRAC
 70
     0
  9
$DIMLDRBLK
  1

  9
$DIMLUNIT
 70
     2
  9
$DIMLWD
 70
    -2
  9
$DIMLWE
 70
    -2
  9
$DIMTMOVE
 70
     0
  9
$LUNITS
 70
     2
  9
$LUPREC
 70
     2
  9
$SKETCHINC
 40
1.0
  9
$FILLETRAD
 40
0.0
  9
$AUNITS
 70
     0
  9
$AUPREC
 70
     2
  9
$MENU
  1
.
  9
$ELEVATION
 40
0.0
  9
$PELEVATION
 40
0.0
  9
$THICKNESS
 40
0.0
  9
$LIMCHECK
 70
     0
  9
$CHAMFERA
 40
0.0
  9
$CHAMFERB
 40
0.0
  9
$CHAMFERC
 40
0.0
  9
$CHAMFERD
 40
0.0
  9
$SKPOLY
 70
     0
  9
$TDCREATE
 40
2461214.48405603
  9
$TDUCREATE
 40
2461214.150722697
  9
$TDUPDATE
 40
2461214.484056343
  9
$TDUUPDATE
 40
2461214.15072301
  9
$TDINDWG
 40
0.0000000116
  9
$TDUSRTIMER
 40
0.0000000116
  9
$USRTIMER
 70
     1
  9
$ANGBASE
 50
0.0
  9
$ANGDIR
 70
     0
  9
$PDMODE
 70
     0
  9
$PDSIZE
 40
-1.0
  9
$PLINEWID
 40
0.0
  9
$SPLFRAME
 70
     0
  9
$SPLINETYPE
 70
     6
  9
$SPLINESEGS
 70
     8
  9
$HANDSEED
  5
181
  9
$SURFTAB1
 70
     6
  9
$SURFTAB2
 70
     6
  9
$SURFTYPE
 70
     6
  9
$SURFU
 70
     6
  9
$SURFV
 70
     6
  9
$UCSBASE
  2

  9
$UCSNAME
  2

  9
$UCSORG
 10
0.0
 20
0.0
 30
0.0
  9
$UCSXDIR
 10
1.0
 20
0.0
 30
0.0
  9
$UCSYDIR
 10
0.0
 20
1.0
 30
0.0
  9
$UCSORTHOREF
  2

  9
$UCSORTHOVIEW
 70
     0
  9
$UCSORGTOP
 10
0.0
 20
0.0
 30
0.0
  9
$UCSORGBOTTOM
 10
0.0
 20
0.0
 30
0.0
  9
$UCSORGLEFT
 10
0.0
 20
0.0
 30
0.0
  9
$UCSORGRIGHT
 10
0.0
 20
0.0
 30
0.0
  9
$UCSORGFRONT
 10
0.0
 20
0.0
 30
0.0
  9
$UCSORGBACK
 10
0.0
 20
0.0
 30
0.0
  9
$PUCSBASE
  2

  9
$PUCSNAME
  2

  9
$PUCSORG
 10
0.0
 20
0.0
 30
0.0
  9
$PUCSXDIR
 10
1.0
 20
0.0
 30
0.0
  9
$PUCSYDIR
 10
0.0
 20
1.0
 30
0.0
  9
$PUCSORTHOREF
  2

  9
$PUCSORTHOVIEW
 70
     0
  9
$PUCSORGTOP
 10
0.0
 20
0.0
 30
0.0
  9
$PUCSORGBOTTOM
 10
0.0
 20
0.0
 30
0.0
  9
$PUCSORGLEFT
 10
0.0
 20
0.0
 30
0.0
  9
$PUCSORGRIGHT
 10
0.0
 20
0.0
 30
0.0
  9
$PUCSORGFRONT
 10
0.0
 20
0.0
 30
0.0
  9
$PUCSORGBACK
 10
0.0
 20
0.0
 30
0.0
  9
$USERI1
 70
     0
  9
$USERI2
 70
     0
  9
$USERI3
 70
     0
  9
$USERI4
 70
     0
  9
$USERI5
 70
     0
  9
$USERR1
 40
0.0
  9
$USERR2
 40
0.0
  9
$USERR3
 40
0.0
  9
$USERR4
 40
0.0
  9
$USERR5
 40
0.0
  9
$WORLDVIEW
 70
     1
  9
$SHADEDGE
 70
     3
  9
$SHADEDIF
 70
    70
  9
$TILEMODE
 70
     1
  9
$MAXACTVP
 70
    64
  9
$PINSBASE
 10
0.0
 20
0.0
 30
0.0
  9
$PLIMCHECK
 70
     0
  9
$PEXTMIN
 10
1.0000000000E+20
 20
1.0000000000E+20
 30
1.0000000000E+20
  9
$PEXTMAX
 10
-1.0000000000E+20
 20
-1.0000000000E+20
 30
-1.0000000000E+20
  9
$PLIMMIN
 10
0.0
 20
0.0
  9
$PLIMMAX
 10
420.0
 20
297.0
  9
$UNITMODE
 70
     0
  9
$VISRETAIN
 70
     1
  9
$PLINEGEN
 70
     0
  9
$PSLTSCALE
 70
     1
  9
$TREEDEPTH
 70
  3020
  9
$CMLSTYLE
  2
Standard
  9
$CMLJUST
 70
     0
  9
$CMLSCALE
 40
20.0
  9
$PROXYGRAPHICS
 70
     1
  9
$MEASUREMENT
 70
     1
  9
$CELWEIGHT
370
    -1
  9
$ENDCAPS
280
     0
  9
$JOINSTYLE
280
     0
  9
$LWDISPLAY
290
     1
  9
$INSUNITS
 70
     4
  9
$HYPERLINKBASE
  1

  9
$STYLESHEET
  1

  9
$XEDIT
290
     1
  9
$CEPSNTYPE
380
     0
  9
$PSTYLEMODE
290
     1
  9
$FINGERPRINTGUID
  2
{f47bcfe7-d549-457b-aa2d-5feab5246ce7}
  9
$VERSIONGUID
  2
{FAEB1C32-E019-11D5-929B-00C0DF256EC4}
  9
$EXTNAMES
290
     1
  9
$PSVPSCALE
 40
0.0
  9
$OLESTARTUP
290
     0
  0
ENDSEC
  0
SECTION
  2
CLASSES
  0
CLASS
  1
ACDBDICTIONARYWDFLT
  2
AcDbDictionaryWithDefault
  3
ObjectDBX Classes
 90
        0
280
     0
281
     0
  0
CLASS
  1
VISUALSTYLE
  2
AcDbVisualStyle
  3
ObjectDBX Classes
 90
     4095
280
     0
281
     0
  0
CLASS
  1
MATERIAL
  2
AcDbMaterial
  3
ObjectDBX Classes
 90
     1153
280
     0
281
     0
  0
CLASS
  1
SCALE
  2
AcDbScale
  3
ObjectDBX Classes
 90
     1153
280
     0
281
     0
  0
CLASS
  1
TABLESTYLE
  2
AcDbTableStyle
  3
ObjectDBX Classes
 90
     4095
280
     0
281
     0
  0
CLASS
  1
MLEADERSTYLE
  2
AcDbMLeaderStyle
  3
ACDB_MLEADERSTYLE_CLASS
 90
     4095
280
     0
281
     0
  0
CLASS
  1
SUN
  2
AcDbSun
  3
SCENEOE
 90
     1153
280
     0
281
     0
  0
CLASS
  1
ACDBPLACEHOLDER
  2
AcDbPlaceHolder
  3
ObjectDBX Classes
 90
        0
280
     0
281
     0
  0
CLASS
  1
LAYOUT
  2
AcDbLayout
  3
ObjectDBX Classes
 90
        0
280
     0
281
     0
  0
ENDSEC
  0
SECTION
  2
TABLES
  0
TABLE
  2
VPORT
  5
8
330
0
100
AcDbSymbolTable
 70
     1
  0
VPORT
  5
29
330
8
100
AcDbSymbolTableRecord
100
AcDbViewportTableRecord
  2
*Active
 70
     0
 10
0.0
 20
0.0
 11
1.0
 21
1.0
 12
148.5
 22
105.0
 13
0.0
 23
0.0
 14
10.0
 24
10.0
 15
10.0
 25
10.0
 16
0.0
 26
0.0
 36
1.0
 17
0.0
 27
0.0
 37
0.0
 40
210.0
 41
1.4142857143
 42
50.0
 43
0.0
 44
0.0
 50
0.0
 51
0.0
 71
     0
 72
  2000
 73
     1
 74
     3
 75
     0
 76
     0
 77
     0
 78
     0
281
     0
 65
     1
110
0.0
120
0.0
130
0.0
111
1.0
121
0.0
131
0.0
112
0.0
122
1.0
132
0.0
 79
     0
146
0.0
  0
ENDTAB
  0
TABLE
  2
LTYPE
  5
5
330
0
100
AcDbSymbolTable
 70
     6
  0
LTYPE
  5
14
330
5
100
AcDbSymbolTableRecord
100
AcDbLinetypeTableRecord
  2
ByBlock
 70
     0
  3

 72
    65
 73
     0
 40
0.0
  0
LTYPE
  5
15
330
5
100
AcDbSymbolTableRecord
100
AcDbLinetypeTableRecord
  2
ByLayer
 70
     0
  3

 72
    65
 73
     0
 40
0.0
  0
LTYPE
  5
16
330
5
100
AcDbSymbolTableRecord
100
AcDbLinetypeTableRecord
  2
Continuous
 70
     0
  3
Solid line
 72
    65
 73
     0
 40
0.0
  0
LTYPE
  5
5E
330
5
100
AcDbSymbolTableRecord
100
AcDbLinetypeTableRecord
  2
HIDDEN
 70
     0
  3
Hidden __ __ __ __ __ __ __ __ __ __ __ __ __ __
 72
    65
 73
     2
 40
1.905
 49
1.27
 74
     0
 49
-0.635
 74
     0
  0
LTYPE
  5
5F
330
5
100
AcDbSymbolTableRecord
100
AcDbLinetypeTableRecord
  2
PHANTOM
 70
     0
  3
Phantom ______  __  __  ______  __  __  ______
 72
    65
 73
     6
 40
12.7
 49
6.35
 74
     0
 49
-1.27
 74
     0
 49
1.27
 74
     0
 49
-1.27
 74
     0
 49
1.27
 74
     0
 49
-1.27
 74
     0
  0
LTYPE
  5
60
330
5
100
AcDbSymbolTableRecord
100
AcDbLinetypeTableRecord
  2
CENTER
 70
     0
  3
Center ____ _ ____ _ ____ _ ____ _ ____ _ ____
 72
    65
 73
     4
 40
10.16
 49
6.35
 74
     0
 49
-1.27
 74
     0
 49
1.27
 74
     0
 49
-1.27
 74
     0
  0
LTYPE
  5
61
330
5
100
AcDbSymbolTableRecord
100
AcDbLinetypeTableRecord
  2
CENTERX2
 70
     0
  3
Center (2x) ________  __  ________  __  _____
 72
    65
 73
     4
 40
20.32
 49
12.7
 74
     0
 49
-2.54
 74
     0
 49
2.54
 74
     0
 49
-2.54
 74
     0
  0
LTYPE
  5
62
330
5
100
AcDbSymbolTableRecord
100
AcDbLinetypeTableRecord
  2
DOT2
 70
     0
  3
Dot (.5x) ........................................
 72
    65
 73
     2
 40
0.635
 49
0.0
 74
     0
 49
-0.635
 74
     0
  0
ENDTAB
  0
TABLE
  2
LAYER
  5
2
330
0
100
AcDbSymbolTable
 70
    14
  0
LAYER
  5
10
330
2
100
AcDbSymbolTableRecord
100
AcDbLayerTableRecord
  2
0
 70
     0
 62
     7
  6
Continuous
370
    -3
390
F
  0
LAYER
  5
63
330
2
100
AcDbSymbolTableRecord
100
AcDbLayerTableRecord
  2
SLD-0
 70
     0
 62
     7
  6
Continuous
370
    -3
390
F
  0
LAYER
  5
64
330
2
100
AcDbSymbolTableRecord
100
AcDbLayerTableRecord
  2
5
 70
     0
 62
     7
  6
Continuous
370
    -3
390
F
  0
LAYER
  5
65
330
2
100
AcDbSymbolTableRecord
100
AcDbLayerTableRecord
  2
9
 70
     0
 62
     7
  6
Continuous
370
    -3
390
F
  0
LAYER
  5
66
330
2
100
AcDbSymbolTableRecord
100
AcDbLayerTableRecord
  2
10
 70
     0
 62
     7
  6
Continuous
370
    -3
390
F
  0
LAYER
  5
67
330
2
100
AcDbSymbolTableRecord
100
AcDbLayerTableRecord
  2
轮廓实线层
 70
     0
 62
     7
  6
Continuous
370
    50
390
F
  0
LAYER
  5
68
330
2
100
AcDbSymbolTableRecord
100
AcDbLayerTableRecord
  2
细线层
 70
     0
 62
     4
  6
Continuous
370
    25
390
F
  0
LAYER
  5
69
330
2
100
AcDbSymbolTableRecord
100
AcDbLayerTableRecord
  2
中心线层
 70
     0
 62
     1
  6
CENTERX2
370
    25
390
F
  0
LAYER
  5
6A
330
2
100
AcDbSymbolTableRecord
100
AcDbLayerTableRecord
  2
虚线层
 70
     0
 62
     6
  6
HIDDEN
370
    25
390
F
  0
LAYER
  5
6B
330
2
100
AcDbSymbolTableRecord
100
AcDbLayerTableRecord
  2
剖面线层
 70
     0
 62
     2
  6
Continuous
370
    25
390
F
  0
LAYER
  5
6C
330
2
100
AcDbSymbolTableRecord
100
AcDbLayerTableRecord
  2
文字层
 70
     0
 62
     3
  6
Continuous
370
    25
390
F
  0
LAYER
  5
6D
330
2
100
AcDbSymbolTableRecord
100
AcDbLayerTableRecord
  2
标注层
 70
     0
 62
     4
  6
Continuous
370
    25
390
F
  0
LAYER
  5
6E
330
2
100
AcDbSymbolTableRecord
100
AcDbLayerTableRecord
  2
符号标注层
 70
     0
 62
    31
  6
Continuous
370
    25
390
F
  0
LAYER
  5
6F
330
2
100
AcDbSymbolTableRecord
100
AcDbLayerTableRecord
  2
双点划线层
 70
     0
 62
     6
  6
PHANTOM
370
    25
390
F
  0
ENDTAB
  0
TABLE
  2
STYLE
  5
3
330
0
100
AcDbSymbolTable
 70
     1
  0
STYLE
  5
11
330
3
100
AcDbSymbolTableRecord
100
AcDbTextStyleTableRecord
  2
Standard
 70
     0
 40
0.0
 41
1.0
 50
0.0
 71
     0
 42
3.5
  3
txt
  4

  0
ENDTAB
  0
TABLE
  2
VIEW
  5
6
330
0
100
AcDbSymbolTable
 70
     0
  0
ENDTAB
  0
TABLE
  2
UCS
  5
7
330
0
100
AcDbSymbolTable
 70
     0
  0
ENDTAB
  0
TABLE
  2
APPID
  5
9
330
0
100
AcDbSymbolTable
 70
     1
  0
APPID
  5
12
330
9
100
AcDbSymbolTableRecord
100
AcDbRegAppTableRecord
  2
ACAD
 70
     0
  0
ENDTAB
  0
TABLE
  2
DIMSTYLE
  5
A
330
0
100
AcDbSymbolTable
 70
     1
100
AcDbDimStyleTable
  0
DIMSTYLE
105
27
330
A
100
AcDbSymbolTableRecord
100
AcDbDimStyleTableRecord
  2
ISO-25
 70
     0
 41
2.5
 42
0.625
 43
3.75
 44
1.25
 73
     0
 74
     0
 77
     1
 78
     8
140
2.5
141
2.5
143
0.0393700787
147
0.625
171
     3
172
     1
178
     0
271
     2
272
     2
274
     3
278
    44
283
     0
284
     8
340
11
  0
ENDTAB
  0
TABLE
  2
BLOCK_RECORD
  5
1
330
0
100
AcDbSymbolTable
 70
     4
  0
BLOCK_RECORD
  5
1F
330
1
100
AcDbSymbolTableRecord
100
AcDbBlockTableRecord
  2
*Model_Space
340
22
  0
BLOCK_RECORD
  5
1B
330
1
100
AcDbSymbolTableRecord
100
AcDbBlockTableRecord
  2
*Paper_Space
340
1E
  0
BLOCK_RECORD
  5
23
330
1
100
AcDbSymbolTableRecord
100
AcDbBlockTableRecord
  2
*Paper_Space0
340
26
  0
BLOCK_RECORD
  5
B7
330
1
100
AcDbSymbolTableRecord
100
AcDbBlockTableRecord
  2
SW_CENTERMARKSYMBOL_0
340
0
102
{BLKREFS
331
C2
102
}
  0
BLOCK_RECORD
  5
C3
330
1
100
AcDbSymbolTableRecord
100
AcDbBlockTableRecord
  2
SW_CENTERMARKSYMBOL_1
340
0
102
{BLKREFS
331
CE
102
}
  0
BLOCK_RECORD
  5
CF
330
1
100
AcDbSymbolTableRecord
100
AcDbBlockTableRecord
  2
SW_CENTERMARKSYMBOL_2
340
0
102
{BLKREFS
331
DA
102
}
  0
ENDTAB
  0
ENDSEC
  0
SECTION
  2
BLOCKS
  0
BLOCK
  5
20
330
1F
100
AcDbEntity
  8
0
100
AcDbBlockBegin
  2
*Model_Space
 70
     0
 10
0.0
 20
0.0
 30
0.0
  3
*Model_Space
  1

  0
ENDBLK
  5
21
330
1F
100
AcDbEntity
  8
0
100
AcDbBlockEnd
  0
BLOCK
  5
1C
330
1B
100
AcDbEntity
 67
     1
  8
0
100
AcDbBlockBegin
  2
*Paper_Space
 70
     0
 10
0.0
 20
0.0
 30
0.0
  3
*Paper_Space
  1

  0
ENDBLK
  5
1D
330
1B
100
AcDbEntity
 67
     1
  8
0
100
AcDbBlockEnd
  0
BLOCK
  5
24
330
23
100
AcDbEntity
  8
0
100
AcDbBlockBegin
  2
*Paper_Space0
 70
     0
 10
0.0
 20
0.0
 30
0.0
  3
*Paper_Space0
  1

  0
ENDBLK
  5
25
330
23
100
AcDbEntity
  8
0
100
AcDbBlockEnd
  0
BLOCK
  5
B8
330
B7
100
AcDbEntity
  8
0
100
AcDbBlockBegin
  2
SW_CENTERMARKSYMBOL_0
 70
     0
 10
0.0
 20
0.0
 30
0.0
  3
SW_CENTERMARKSYMBOL_0
  1

  0
LINE
  5
BA
330
B7
100
AcDbEntity
  8
10
 62
     0
100
AcDbLine
 10
0.0
 20
0.0
 30
0.0
 11
0.0
 21
2.5
 31
0.0
  0
LINE
  5
BB
330
B7
100
AcDbEntity
  8
10
 62
     0
100
AcDbLine
 10
0.0
 20
0.0
 30
0.0
 11
-2.5
 21
0.0
 31
0.0
  0
LINE
  5
BC
330
B7
100
AcDbEntity
  8
10
 62
     0
100
AcDbLine
 10
0.0
 20
0.0
 30
0.0
 11
0.0
 21
-2.5
 31
0.0
  0
LINE
  5
BD
330
B7
100
AcDbEntity
  8
10
 62
     0
100
AcDbLine
 10
0.0
 20
0.0
 30
0.0
 11
2.5
 21
0.0
 31
0.0
  0
LINE
  5
BE
330
B7
100
AcDbEntity
  8
10
 62
     0
100
AcDbLine
 10
0.0
 20
5.0
 30
0.0
 11
0.0
 21
40.7911392405
 31
0.0
  0
LINE
  5
BF
330
B7
100
AcDbEntity
  8
10
 62
     0
100
AcDbLine
 10
-5.0
 20
0.0
 30
0.0
 11
-40.7911392405
 21
0.0
 31
0.0
  0
LINE
  5
C0
330
B7
100
AcDbEntity
  8
10
 62
     0
100
AcDbLine
 10
0.0
 20
-5.0
 30
0.0
 11
0.0
 21
-40.7911392405
 31
0.0
  0
LINE
  5
C1
330
B7
100
AcDbEntity
  8
10
 62
     0
100
AcDbLine
 10
5.0
 20
0.0
 30
0.0
 11
40.7911392405
 21
0.0
 31
0.0
  0
ENDBLK
  5
B9
330
B7
100
AcDbEntity
  8
0
100
AcDbBlockEnd
  0
BLOCK
  5
C4
330
C3
100
AcDbEntity
  8
0
100
AcDbBlockBegin
  2
SW_CENTERMARKSYMBOL_1
 70
     0
 10
0.0
 20
0.0
 30
0.0
  3
SW_CENTERMARKSYMBOL_1
  1

  0
LINE
  5
C6
330
C3
100
AcDbEntity
  8
10
 62
     0
100
AcDbLine
 10
0.0
 20
0.0
 30
0.0
 11
0.0
 21
2.5
 31
0.0
  0
LINE
  5
C7
330
C3
100
AcDbEntity
  8
10
 62
     0
100
AcDbLine
 10
0.0
 20
0.0
 30
0.0
 11
-2.5
 21
0.0
 31
0.0
  0
LINE
  5
C8
330
C3
100
AcDbEntity
  8
10
 62
     0
100
AcDbLine
 10
0.0
 20
0.0
 30
0.0
 11
0.0
 21
-2.5
 31
0.0
  0
LINE
  5
C9
330
C3
100
AcDbEntity
  8
10
 62
     0
100
AcDbLine
 10
0.0
 20
0.0
 30
0.0
 11
2.5
 21
0.0
 31
0.0
  0
LINE
  5
CA
330
C3
100
AcDbEntity
  8
10
 62
     0
100
AcDbLine
 10
0.0
 20
5.0
 30
0.0
 11
0.0
 21
6.7721518987
 31
0.0
  0
LINE
  5
CB
330
C3
100
AcDbEntity
  8
10
 62
     0
100
AcDbLine
 10
-5.0
 20
0.0
 30
0.0
 11
-6.7721518987
 21
0.0
 31
0.0
  0
LINE
  5
CC
330
C3
100
AcDbEntity
  8
10
 62
     0
100
AcDbLine
 10
0.0
 20
-5.0
 30
0.0
 11
0.0
 21
-6.7721518987
 31
0.0
  0
LINE
  5
CD
330
C3
100
AcDbEntity
  8
10
 62
     0
100
AcDbLine
 10
5.0
 20
0.0
 30
0.0
 11
6.7721518987
 21
0.0
 31
0.0
  0
ENDBLK
  5
C5
330
C3
100
AcDbEntity
  8
0
100
AcDbBlockEnd
  0
BLOCK
  5
D0
330
CF
100
AcDbEntity
  8
0
100
AcDbBlockBegin
  2
SW_CENTERMARKSYMBOL_2
 70
     0
 10
0.0
 20
0.0
 30
0.0
  3
SW_CENTERMARKSYMBOL_2
  1

  0
LINE
  5
D2
330
CF
100
AcDbEntity
  8
10
 62
     0
100
AcDbLine
 10
0.0
 20
0.0
 30
0.0
 11
0.0
 21
2.5
 31
0.0
  0
LINE
  5
D3
330
CF
100
AcDbEntity
  8
10
 62
     0
100
AcDbLine
 10
0.0
 20
0.0
 30
0.0
 11
-2.5
 21
0.0
 31
0.0
  0
LINE
  5
D4
330
CF
100
AcDbEntity
  8
10
 62
     0
100
AcDbLine
 10
0.0
 20
0.0
 30
0.0
 11
0.0
 21
-2.5
 31
0.0
  0
LINE
  5
D5
330
CF
100
AcDbEntity
  8
10
 62
     0
100
AcDbLine
 10
0.0
 20
0.0
 30
0.0
 11
2.5
 21
0.0
 31
0.0
  0
LINE
  5
D6
330
CF
100
AcDbEntity
  8
10
 62
     0
100
AcDbLine
 10
0.0
 20
5.0
 30
0.0
 11
0.0
 21
6.7721518987
 31
0.0
  0
LINE
  5
D7
330
CF
100
AcDbEntity
  8
10
 62
     0
100
AcDbLine
 10
-5.0
 20
0.0
 30
0.0
 11
-6.7721518987
 21
0.0
 31
0.0
  0
LINE
  5
D8
330
CF
100
AcDbEntity
  8
10
 62
     0
100
AcDbLine
 10
0.0
 20
-5.0
 30
0.0
 11
0.0
 21
-6.7721518987
 31
0.0
  0
LINE
  5
D9
330
CF
100
AcDbEntity
  8
10
 62
     0
100
AcDbLine
 10
5.0
 20
0.0
 30
0.0
 11
6.7721518987
 21
0.0
 31
0.0
  0
ENDBLK
  5
D1
330
CF
100
AcDbEntity
  8
0
100
AcDbBlockEnd
  0
ENDSEC
  0
SECTION
  2
ENTITIES
  0
SPLINE
  5
70
330
1F
100
AcDbEntity
  8
0
  6
Continuous
 62
     7
370
    25
100
AcDbSpline
210
0.0
220
0.0
230
1.0
 70
     8
 71
     3
 72
    28
 73
    24
 74
     0
 42
0.00000001
 43
0.00000001
 40
0.0
 40
0.0
 40
0.0
 40
0.0
 40
0.125
 40
0.125
 40
0.2499999999999999
 40
0.2499999999999999
 40
0.4999999999999987
 40
0.4999999999999987
 40
0.749999999999997
 40
0.749999999999997
 40
0.8749999999999967
 40
0.8749999999999967
 40
0.9374999999999967
 40
0.9374999999999967
 40
0.945312499999997
 40
0.945312499999997
 40
0.9492187499999972
 40
0.9492187499999972
 40
0.9531249999999974
 40
0.9531249999999974
 40
0.9687499999999982
 40
0.9687499999999982
 40
1.0
 40
1.0
 40
1.0
 40
1.0
 10
126.7260791564968
 20
68.65671068609811
 30
0.0
 10
126.6498094414599
 20
68.94280988568329
 30
0.0
 10
126.5722313350025
 20
69.222259380527
 30
0.0
 10
126.4220871029012
 20
69.74540213691233
 30
0.0
 10
126.3496011290703
 20
69.98900443275127
 30
0.0
 10
126.1475577469192
 20
70.65101110426345
 30
0.0
 10
126.0340332038556
 20
70.99994009778379
 30
0.0
 10
125.8584510620203
 20
71.52858753728641
 30
0.0
 10
125.7955908553851
 20
71.71054338575789
 30
0.0
 10
125.737881868276
 20
71.87702310296811
 30
0.0
 10
125.7247406532827
 20
71.91462017657808
 30
0.0
 10
125.7141255709691
 20
71.94498191591356
 30
0.0
 10
125.7121055594067
 20
71.9507504849451
 30
0.0
 10
125.7115519076812
 20
71.95233211828455
 30
0.0
 10
125.7115142753079
 20
71.95243962174513
 30
0.0
 10
125.7114936960619
 20
71.95249840942883
 30
0.0
 10
125.711494583166
 20
71.95249587499326
 30
0.0
 10
125.7114948984999
 20
71.95249497424801
 30
0.0
 10
125.7114947762058
 20
71.95249532357832
 30
0.0
 10
125.7114947997371
 20
71.9524952563602
 30
0.0
 10
125.7114948042394
 20
71.95249524349998
 30
0.0
 10
125.7114947653101
 20
71.95249535470101
 30
0.0
 10
125.7114947899586
 20
71.95249528404993
 30
0.0
 10
125.7114947899747
 20
71.95249528424368
 30
0.0
  0
LINE
  5
71
330
1F
100
AcDbEntity
  8
0
  6
Continuous
 62
     7
370
    25
100
AcDbLine
 10
125.71149479
 20
71.9524952842
 30
0.0
 11
127.1474167738
 21
75.2864334178
 31
0.0
  0
SPLINE
  5
72
330
1F
100
AcDbEntity
  8
0
  6
Continuous
 62
     7
370
    25
100
AcDbSpline
210
0.0
220
0.0
230
1.0
 70
     8
 71
     3
 72
    20
 73
    16
 74
     0
 42
0.00000001
 43
0.00000001
 40
0.0
 40
0.0
 40
0.0
 40
0.0
 40
0.1249999999999999
 40
0.1249999999999999
 40
0.2499999999999998
 40
0.2499999999999998
 40
0.3749999999999993
 40
0.3749999999999993
 40
0.4999999999999988
 40
0.4999999999999988
 40
0.7499999999999993
 40
0.7499999999999993
 40
0.8749999999999997
 40
0.8749999999999997
 40
1.0
 40
1.0
 40
1.0
 40
1.0
 10
129.1722933750412
 20
69.30883436084177
 30
0.0
 10
129.0377265876637
 20
69.81361466766568
 30
0.0
 10
128.8961737858752
 20
70.3103853601548
 30
0.0
 10
128.6160129825826
 20
71.24055700769104
 30
0.0
 10
128.4776729439608
 20
71.6736434911086
 30
0.0
 10
128.2172819409796
 20
72.4557630702622
 30
0.0
 10
128.0951449313293
 20
72.80543447056661
 30
0.0
 10
127.8723843346686
 20
73.42484307000471
 30
0.0
 10
127.77172965651
 20
73.69472174892688
 30
0.0
 10
127.5041261225307
 20
74.39880199929864
 30
0.0
 10
127.3712137442896
 20
74.73012929823135
 30
0.0
 10
127.2377482752931
 20
75.06293747520259
 30
0.0
 10
127.2042135066672
 20
75.1460640370382
 30
0.0
 10
127.1591021001833
 20
75.25786983531806
 30
0.0
 10
127.1474167779056
 20
75.28643342208052
 30
0.0
 10
127.1474167737722
 20
75.28643341775316
 30
0.0
  0
SPLINE
  5
73
330
1F
100
AcDbEntity
  8
0
  6
Continuous
 62
     7
370
    25
100
AcDbSpline
210
0.0
220
0.0
230
1.0
 70
     8
 71
     3
 72
    16
 73
    12
 74
     0
 42
0.00000001
 43
0.00000001
 40
0.0
 40
0.0
 40
0.0
 40
0.0
 40
0.2500000000000002
 40
0.2500000000000002
 40
0.5000000000000004
 40
0.5000000000000004
 40
0.7500000000000007
 40
0.7500000000000007
 40
0.8750000000000003
 40
0.8750000000000003
 40
1.0
 40
1.0
 40
1.0
 40
1.0
 10
68.04748380352216
 20
14.28851253101266
 30
0.0
 10
68.04748380352216
 20
14.28851253101265
 30
0.0
 10
68.11493967823704
 20
14.26469960040996
 30
0.0
 10
68.39498467887897
 20
14.168185371529
 30
0.0
 10
68.60701829974639
 20
14.0956964595484
 30
0.0
 10
69.1713757384205
 20
13.91048591020727
 30
0.0
 10
69.52414315813544
 20
13.79769655475005
 30
0.0
 10
70.14809706591437
 20
13.60962474729655
 30
0.0
 10
70.37199616303869
 20
13.54378581081689
 30
0.0
 10
70.84381627580186
 20
13.40944697376493
 30
0.0
 10
71.09152889835127
 20
13.34103649080696
 30
0.0
 10
71.34326787971519
 20
13.27392655756329
 30
0.0
  0
SPLINE
  5
74
330
1F
100
AcDbEntity
  8
0
  6
Continuous
 62
     7
370
    25
100
AcDbSpline
210
0.0
220
0.0
230
1.0
 70
     8
 71
     3
 72
    16
 73
    12
 74
     0
 42
0.00000001
 43
0.00000001
 40
0.0
 40
0.0
 40
0.0
 40
0.0
 40
0.2500000000000001
 40
0.2500000000000001
 40
0.5000000000000002
 40
0.5000000000000002
 40
0.7500000000000003
 40
0.7500000000000003
 40
0.8750000000000001
 40
0.8750000000000001
 40
1.0
 40
1.0
 40
1.0
 40
1.0
 10
64.71354484584494
 20
12.85259195911392
 30
0.0
 10
64.71354484584494
 20
12.85259195911392
 30
0.0
 10
64.82236206559458
 20
12.8069683734837
 30
0.0
 10
65.28668668507126
 20
12.61884742975414
 30
0.0
 10
65.64215246401302
 20
12.47619581419816
 30
0.0
 10
66.63044956422365
 20
12.10341910425098
 30
0.0
 10
67.26638037740558
 20
11.87233981822149
 30
0.0
 10
68.4278311974702
 20
11.48949384464754
 30
0.0
 10
68.84920979926892
 20
11.35615842820271
 30
0.0
 10
69.7420838644674
 20
11.0888584379713
 30
0.0
 10
70.21321281683544
 20
10.95512186208859
 30
0.0
 10
70.69114300585444
 20
10.82771265867089
 30
0.0
  0
LINE
  5
75
330
1F
100
AcDbEntity
  8
0
  6
Continuous
 62
     7
370
    25
100
AcDbLine
 10
68.0474838035
 20
14.288512531
 30
0.0
 11
64.7135448458
 21
12.8525919591
 31
0.0
  0
LINE
  5
76
330
1F
100
AcDbEntity
  8
0
  6
Continuous
 62
     7
370
    25
100
AcDbLine
 10
129.193986005
 20
76.1341489743
 30
0.0
 11
127.1474167738
 21
75.2864334178
 31
0.0
  0
SPLINE
  5
77
330
1F
100
AcDbEntity
  8
0
  6
Continuous
 62
     7
370
    25
100
AcDbSpline
210
0.0
220
0.0
230
1.0
 70
     8
 71
     3
 72
    18
 73
    14
 74
     0
 42
0.00000001
 43
0.00000001
 40
0.0
 40
0.0
 40
0.0
 40
0.0
 40
0.2499999999999991
 40
0.2499999999999991
 40
0.4999999999999982
 40
0.4999999999999982
 40
0.6249999999999982
 40
0.6249999999999982
 40
0.7499999999999982
 40
0.7499999999999982
 40
0.8749999999999991
 40
0.8749999999999991
 40
1.0
 40
1.0
 40
1.0
 40
1.0
 10
129.1939860049842
 20
76.13414897431963
 30
0.0
 10
129.1939860049842
 20
76.13414897431963
 30
0.0
 10
129.2419802679107
 20
76.01956566708503
 30
0.0
 10
129.4329763108139
 20
75.54840504253144
 30
0.0
 10
129.5762218226039
 20
75.19163569861333
 30
0.0
 10
129.8571770115727
 20
74.4492115448109
 30
0.0
 10
129.9617477633738
 20
74.16706956910713
 30
0.0
 10
130.1893389022242
 20
73.53119272161152
 30
0.0
 10
130.3123837932869
 20
73.17729678888507
 30
0.0
 10
130.5701783158166
 20
72.40275081715589
 30
0.0
 10
130.7050307104784
 20
71.98147278803891
 30
0.0
 10
130.9743496609859
 20
71.09525627349721
 30
0.0
 10
131.108729787169
 20
70.63026176458497
 30
0.0
 10
131.2360620571772
 20
70.16367415337025
 30
0.0
  0
ARC
  5
78
330
1F
100
AcDbEntity
  8
0
  6
Continuous
 62
     7
370
    25
100
AcDbCircle
 10
83.0
 20
57.0
 30
0.0
 40
47.78481012658231
100
AcDbArc
 50
255.072930825
 51
14.927041089
  0
ARC
  5
79
330
1F
100
AcDbEntity
  8
0
  6
Continuous
 62
     7
370
    25
100
AcDbCircle
 10
83.0
 20
57.0
 30
0.0
 40
49.99999999999962
100
AcDbArc
 50
254.7355838268
 51
15.2643880872
  0
LINE
  5
7A
330
1F
100
AcDbEntity
  8
0
  6
Continuous
 62
     7
370
    25
100
AcDbLine
 10
64.7135448458
 20
12.8525919591
 30
0.0
 11
63.8658283818
 21
10.8060233745
 31
0.0
  0
SPLINE
  5
7B
330
1F
100
AcDbEntity
  8
0
  6
Continuous
 62
     7
370
    25
100
AcDbSpline
210
0.0
220
0.0
230
1.0
 70
     8
 71
     3
 72
    18
 73
    14
 74
     0
 42
0.00000001
 43
0.00000001
 40
0.0
 40
0.0
 40
0.0
 40
0.0
 40
0.2500000000000004
 40
0.2500000000000004
 40
0.5000000000000008
 40
0.5000000000000008
 40
0.6250000000000008
 40
0.6250000000000008
 40
0.7500000000000007
 40
0.7500000000000007
 40
0.8750000000000003
 40
0.8750000000000003
 40
1.0
 40
1.0
 40
1.0
 40
1.0
 10
63.86582838174684
 20
10.80602337446203
 30
0.0
 10
63.86582838174684
 20
10.80602337446204
 30
0.0
 10
63.98043710838666
 20
10.75801824601842
 30
0.0
 10
64.45169900511038
 20
10.56698182280114
 30
0.0
 10
64.80863294515268
 20
10.42367294962263
 30
0.0
 10
65.55108431410413
 20
10.14271283842746
 30
0.0
 10
65.83324450237907
 20
10.03813726761935
 30
0.0
 10
66.46915518604192
 20
9.810539148624509
 30
0.0
 10
66.82306756426608
 20
9.687492157803874
 30
0.0
 10
67.5974918473118
 20
9.429743699978108
 30
0.0
 10
68.01865422076386
 20
9.294929671209637
 30
0.0
 10
68.90482153025835
 20
9.025627708676119
 30
0.0
 10
69.36974952139265
 20
8.891267378631898
 30
0.0
 10
69.83630220168355
 20
8.763944395569622
 30
0.0
  0
ARC
  5
7C
330
1F
100
AcDbEntity
  8
0
  6
Continuous
 62
     7
370
    25
100
AcDbCircle
 10
83.0
 20
57.0
 30
0.0
 40
45.25316455696095
100
AcDbArc
 50
75.072930825
 51
194.927069175
  0
ARC
  5
7D
330
1F
100
AcDbEntity
  8
0
  6
Continuous
 62
     7
370
    25
100
AcDbCircle
 10
83.0
 20
57.0
 30
0.0
 40
47.78481012658229
100
AcDbArc
 50
75.072930825
 51
194.927069175
  0
LINE
  5
7E
330
1F
100
AcDbEntity
  8
0
  6
Continuous
 62
     7
370
    25
100
AcDbLine
 10
101.2864551542
 20
101.1474080409
 30
0.0
 11
102.1341716183
 21
103.1939766256
 31
0.0
  0
SPLINE
  5
7F
330
1F
100
AcDbEntity
  8
0
  6
Continuous
 62
     7
370
    25
100
AcDbSpline
210
0.0
220
0.0
230
1.0
 70
     8
 71
     3
 72
    16
 73
    12
 74
     0
 42
0.00000001
 43
0.00000001
 40
0.0
 40
0.0
 40
0.0
 40
0.0
 40
0.2499999999999999
 40
0.2499999999999999
 40
0.4999999999999999
 40
0.4999999999999999
 40
0.7500000000000001
 40
0.7500000000000001
 40
0.8750000000000001
 40
0.8750000000000001
 40
1.0
 40
1.0
 40
1.0
 40
1.0
 10
101.2864551541551
 20
101.1474080408861
 30
0.0
 10
101.2864551541482
 20
101.1474080408689
 30
0.0
 10
101.1776101186671
 20
101.1930383202799
 30
0.0
 10
100.7134922201401
 20
101.3810862456215
 30
0.0
 10
100.3580284132166
 20
101.5237321784053
 30
0.0
 10
99.36996947092236
 20
101.8964296770913
 30
0.0
 10
98.73403305759295
 20
102.1275165845668
 30
0.0
 10
97.57249129179263
 20
102.5104021609478
 30
0.0
 10
97.1509421055406
 20
102.6437940870078
 30
0.0
 10
96.25791472789159
 20
102.9111442287229
 30
0.0
 10
95.78684335727783
 20
103.0448631627391
 30
0.0
 10
95.30885699414557
 20
103.1722873413386
 30
0.0
  0
SPLINE
  5
80
330
1F
100
AcDbEntity
  8
0
  6
Continuous
 62
     7
370
    25
100
AcDbSpline
210
0.0
220
0.0
230
1.0
 70
     8
 71
     3
 72
    18
 73
    14
 74
     0
 42
0.00000001
 43
0.00000001
 40
0.0
 40
0.0
 40
0.0
 40
0.0
 40
0.25
 40
0.25
 40
0.5
 40
0.5
 40
0.6250000000000004
 40
0.6250000000000004
 40
0.7500000000000009
 40
0.7500000000000009
 40
0.8750000000000004
 40
0.8750000000000004
 40
1.0
 40
1.0
 40
1.0
 40
1.0
 10
102.1341716182532
 20
103.1939766255633
 30
0.0
 10
102.1341716182532
 20
103.1939766255633
 30
0.0
 10
102.0195883345485
 20
103.2419709446602
 30
0.0
 10
101.5484278036192
 20
103.4329672185236
 30
0.0
 10
101.1916585299172
 20
103.5762129051976
 30
0.0
 10
100.4492345138367
 20
103.8571684580989
 30
0.0
 10
100.1670925893909
 20
103.9617393482032
 30
0.0
 10
99.53121585345751
 20
104.1893307987566
 30
0.0
 10
99.17731998104468
 20
104.312375863295
 30
0.0
 10
98.40277413568295
 20
104.5701707655019
 30
0.0
 10
97.98149617267018
 20
104.705023366672
 30
0.0
 10
97.09527979014916
 20
104.9743427515957
 30
0.0
 10
96.63028534711461
 20
105.1087231057132
 30
0.0
 10
96.16369779831646
 20
105.2360556044399
 30
0.0
  0
SPLINE
  5
81
330
1F
100
AcDbEntity
  8
0
  6
Continuous
 62
     7
370
    25
100
AcDbSpline
210
0.0
220
0.0
230
1.0
 70
     8
 71
     3
 72
    16
 73
    12
 74
     0
 42
0.00000001
 43
0.00000001
 40
0.0
 40
0.0
 40
0.0
 40
0.0
 40
0.2500000000000001
 40
0.2500000000000001
 40
0.5000000000000001
 40
0.5000000000000001
 40
0.7500000000000002
 40
0.7500000000000002
 40
0.8750000000000001
 40
0.8750000000000001
 40
1.0
 40
1.0
 40
1.0
 40
1.0
 10
97.95251619647784
 20
99.71148746898734
 30
0.0
 10
97.952516196471
 20
99.71148746897363
 30
0.0
 10
97.8849934035193
 20
99.73532104340057
 30
0.0
 10
97.60514811263613
 20
99.83177074372819
 30
0.0
 10
97.39308239749958
 20
99.90426803409865
 30
0.0
 10
96.82887864823553
 20
100.0894333282227
 30
0.0
 10
96.47612556410765
 20
100.2022202055408
 30
0.0
 10
95.85206203281443
 20
100.3903287929427
 30
0.0
 10
95.62806670539877
 20
100.4561957828195
 30
0.0
 10
95.15617523271735
 20
100.5905557624306
 30
0.0
 10
94.90850152056487
 20
100.6589553999781
 30
0.0
 10
94.65673212028481
 20
100.7260734424589
 30
0.0
  0
LINE
  5
82
330
1F
100
AcDbEntity
  8
0
  6
Continuous
 62
     7
370
    25
100
AcDbLine
 10
97.9525161965
 20
99.711487469
 30
0.0
 11
101.2864551542
 21
101.1474080409
 31
0.0
  0
ARC
  5
83
330
1F
100
AcDbEntity
  8
0
  6
Continuous
 62
     7
370
    25
100
AcDbCircle
 10
83.0
 20
57.0
 30
0.0
 40
45.25316455696354
100
AcDbArc
 50
255.072930825
 51
14.927041089
  0
ARC
  5
84
330
1F
100
AcDbEntity
  8
0
  6
Continuous
 62
     7
370
    25
100
AcDbCircle
 10
83.0
 20
57.0
 30
0.0
 40
50.00000000000018
100
AcDbArc
 50
74.7355838268
 51
195.2644161732
  0
SPLINE
  5
85
330
1F
100
AcDbEntity
  8
0
  6
Continuous
 62
     7
370
    25
100
AcDbSpline
210
0.0
220
0.0
230
1.0
 70
     8
 71
     3
 72
    16
 73
    12
 74
     0
 42
0.00000001
 43
0.00000001
 40
0.0
 40
0.0
 40
0.0
 40
0.0
 40
0.1250000000000002
 40
0.1250000000000002
 40
0.2500000000000004
 40
0.2500000000000004
 40
0.5000000000000003
 40
0.5000000000000003
 40
0.7500000000000002
 40
0.7500000000000002
 40
1.0
 40
1.0
 40
1.0
 40
1.0
 10
39.27392655756329
 20
45.3432678797152
 30
0.0
 10
39.34103649080695
 20
45.09152889835126
 30
0.0
 10
39.40944099184932
 20
44.84384053372266
 30
0.0
 10
39.54374747001092
 20
44.37213011619385
 30
0.0
 10
39.60957799605009
 20
44.14825230726634
 30
0.0
 10
39.79770639571121
 20
43.52410863055846
 30
0.0
 10
39.91050992047469
 20
43.17130097276905
 30
0.0
 10
40.09568079783535
 20
42.60706733471334
 30
0.0
 10
40.16818964875782
 20
42.39497144980739
 30
0.0
 10
40.26469438564229
 20
42.1149557407069
 30
0.0
 10
40.28851253101266
 20
42.04748380352215
 30
0.0
 10
40.28851253101266
 20
42.04748380352216
 30
0.0
  0
LINE
  5
86
330
1F
100
AcDbEntity
  8
0
  6
Continuous
 62
     7
370
    25
100
AcDbLine
 10
40.288512531
 20
42.0474838035
 30
0.0
 11
38.8525919591
 21
38.7135448458
 31
0.0
  0
SPLINE
  5
87
330
1F
100
AcDbEntity
  8
0
  6
Continuous
 62
     7
370
    25
100
AcDbSpline
210
0.0
220
0.0
230
1.0
 70
     8
 71
     3
 72
    16
 73
    12
 74
     0
 42
0.00000001
 43
0.00000001
 40
0.0
 40
0.0
 40
0.0
 40
0.0
 40
0.1250000000000001
 40
0.1250000000000001
 40
0.2500000000000002
 40
0.2500000000000002
 40
0.5000000000000001
 40
0.5000000000000001
 40
0.75
 40
0.75
 40
1.0
 40
1.0
 40
1.0
 40
1.0
 10
36.8277126586709
 20
44.69114300585443
 30
0.0
 10
36.95512186208861
 20
44.21321281683545
 30
0.0
 10
37.08882658920879
 20
43.74218867113697
 30
0.0
 10
37.35611549755492
 20
42.84934858198464
 30
0.0
 10
37.48949713352558
 20
42.42783231078248
 30
0.0
 10
37.8723990863547
 20
41.26622826318687
 30
0.0
 10
38.10341358519175
 20
40.63047017880628
 30
0.0
 10
38.47619756064017
 20
39.64213970316883
 30
0.0
 10
38.61884477005927
 20
39.28669546529645
 30
0.0
 10
38.8069709104046
 20
38.82235078123173
 30
0.0
 10
38.85259195911392
 20
38.71354484584494
 30
0.0
 10
38.85259195911392
 20
38.71354484584494
 30
0.0
  0
SPLINE
  5
88
330
1F
100
AcDbEntity
  8
0
  6
Continuous
 62
     7
370
    25
100
AcDbSpline
210
0.0
220
0.0
230
1.0
 70
     8
 71
     3
 72
    18
 73
    14
 74
     0
 42
0.00000001
 43
0.00000001
 40
0.0
 40
0.0
 40
0.0
 40
0.0
 40
0.2500000000000006
 40
0.2500000000000006
 40
0.5000000000000011
 40
0.5000000000000011
 40
0.625000000000001
 40
0.625000000000001
 40
0.750000000000001
 40
0.750000000000001
 40
0.8750000000000004
 40
0.8750000000000004
 40
1.0
 40
1.0
 40
1.0
 40
1.0
 10
36.80602337446203
 20
37.86582838174683
 30
0.0
 10
36.80602337446203
 20
37.86582838174683
 30
0.0
 10
36.75801824601842
 20
37.98043710838547
 30
0.0
 10
36.56698182280113
 20
38.45169900510989
 30
0.0
 10
36.42367294962262
 20
38.80863294514864
 30
0.0
 10
36.14271283842746
 20
39.55108431410344
 30
0.0
 10
36.03813726761934
 20
39.83324450237956
 30
0.0
 10
35.81053914862452
 20
40.46915518604208
 30
0.0
 10
35.68749215780388
 20
40.82306756426608
 30
0.0
 10
35.42974369997811
 20
41.5974918473118
 30
0.0
 10
35.29492967120965
 20
42.01865422076387
 30
0.0
 10
35.02562770867612
 20
42.90482153025834
 30
0.0
 10
34.8912673786319
 20
43.36974952139264
 30
0.0
 10
34.76394439556962
 20
43.83630220168354
 30
0.0
  0
LINE
  5
89
330
1F
100
AcDbEntity
  8
0
  6
Continuous
 62
     7
370
    25
100
AcDbLine
 10
38.8525919591
 20
38.7135448458
 30
0.0
 11
36.8060233745
 21
37.8658283818
 31
0.0
  0
LINE
  5
8A
330
1F
100
AcDbEntity
  8
0
  6
Continuous
 62
     7
370
    25
100
AcDbLine
 10
36.3227848101
 20
24.0497254439
 30
0.0
 11
36.3227848101
 21
14.0009074675
 31
0.0
  0
LINE
  5
8B
330
1F
100
AcDbEntity
  8
0
  6
Continuous
 62
     7
370
    25
100
AcDbLine
 10
35.3734177215
 20
13.4527901234
 30
0.0
 11
36.3227848101
 21
14.0009074675
 31
0.0
  0
LINE
  5
8C
330
1F
100
AcDbEntity
  8
0
  6
Continuous
 62
     7
370
    25
100
AcDbLine
 10
35.3734177215
 20
24.5978427881
 30
0.0
 11
35.3734177215
 21
13.4527901234
 31
0.0
  0
LINE
  5
8D
330
1F
100
AcDbEntity
  8
0
  6
Continuous
 62
     7
370
    25
100
AcDbLine
 10
35.3734177215
 20
24.5978427881
 30
0.0
 11
36.3227848101
 21
24.0497254439
 31
0.0
  0
LINE
  5
8E
330
1F
100
AcDbEntity
  8
0
  6
Continuous
 62
     7
370
    25
100
AcDbLine
 10
45.0253164557
 20
8.9764984793
 30
0.0
 11
53.7278481013
 21
14.0009074675
 31
0.0
  0
LINE
  5
8F
330
1F
100
AcDbEntity
  8
0
  6
Continuous
 62
     7
370
    25
100
AcDbLine
 10
54.6772151899
 20
13.4527901234
 30
0.0
 11
53.7278481013
 21
14.0009074675
 31
0.0
  0
LINE
  5
90
330
1F
100
AcDbEntity
  8
0
  6
Continuous
 62
     7
370
    25
100
AcDbLine
 10
45.0253164557
 20
7.880263791
 30
0.0
 11
54.6772151899
 21
13.4527901234
 31
0.0
  0
LINE
  5
91
330
1F
100
AcDbEntity
  8
0
  6
Continuous
 62
     7
370
    25
100
AcDbLine
 10
45.0253164557
 20
7.880263791
 30
0.0
 11
45.0253164557
 21
8.9764984793
 31
0.0
  0
LINE
  5
92
330
1F
100
AcDbEntity
  8
0
  6
Continuous
 62
     7
370
    25
100
AcDbLine
 10
45.0253164557
 20
29.0741344321
 30
0.0
 11
36.3227848101
 21
24.0497254439
 31
0.0
  0
LINE
  5
93
330
1F
100
AcDbEntity
  8
0
  6
Continuous
 62
     7
370
    25
100
AcDbLine
 10
45.0253164557
 20
30.1703691204
 30
0.0
 11
35.3734177215
 21
24.5978427881
 31
0.0
  0
LINE
  5
94
330
1F
100
AcDbEntity
  8
0
  6
Continuous
 62
     7
370
    25
100
AcDbLine
 10
45.0253164557
 20
30.1703691204
 30
0.0
 11
45.0253164557
 21
29.0741344321
 31
0.0
  0
LINE
  5
95
330
1F
100
AcDbEntity
  8
0
  6
Continuous
 62
     7
370
    25
100
AcDbLine
 10
120.9746835443
 20
105.0235015207
 30
0.0
 11
112.2721518987
 21
99.9990925325
 31
0.0
  0
LINE
  5
96
330
1F
100
AcDbEntity
  8
0
  6
Continuous
 62
     7
370
    25
100
AcDbLine
 10
111.3227848101
 20
100.5472098767
 30
0.0
 11
112.2721518987
 21
99.9990925325
 31
0.0
  0
LINE
  5
97
330
1F
100
AcDbEntity
  8
0
  6
Continuous
 62
     7
370
    25
100
AcDbLine
 10
120.9746835443
 20
106.119736209
 30
0.0
 11
111.3227848101
 21
100.5472098767
 31
0.0
  0
LINE
  5
98
330
1F
100
AcDbEntity
  8
0
  6
Continuous
 62
     7
370
    25
100
AcDbLine
 10
120.9746835443
 20
106.119736209
 30
0.0
 11
120.9746835443
 21
105.0235015207
 31
0.0
  0
LINE
  5
99
330
1F
100
AcDbEntity
  8
0
  6
Continuous
 62
     7
370
    25
100
AcDbLine
 10
36.3227848101
 20
14.0009074675
 30
0.0
 11
45.0253164557
 21
8.9764984793
 31
0.0
  0
LINE
  5
9A
330
1F
100
AcDbEntity
  8
0
  6
Continuous
 62
     7
370
    25
100
AcDbLine
 10
35.3734177215
 20
13.4527901234
 30
0.0
 11
45.0253164557
 21
7.880263791
 31
0.0
  0
LINE
  5
9B
330
1F
100
AcDbEntity
  8
0
  6
Continuous
 62
     7
370
    25
100
AcDbLine
 10
53.7278481013
 20
14.0009074675
 30
0.0
 11
53.7278481013
 21
24.0497254439
 31
0.0
  0
LINE
  5
9C
330
1F
100
AcDbEntity
  8
0
  6
Continuous
 62
     7
370
    25
100
AcDbLine
 10
54.6772151899
 20
24.5978427881
 30
0.0
 11
53.7278481013
 21
24.0497254439
 31
0.0
  0
LINE
  5
9D
330
1F
100
AcDbEntity
  8
0
  6
Continuous
 62
     7
370
    25
100
AcDbLine
 10
54.6772151899
 20
13.4527901234
 30
0.0
 11
54.6772151899
 21
24.5978427881
 31
0.0
  0
LINE
  5
9E
330
1F
100
AcDbEntity
  8
0
  6
Continuous
 62
     7
370
    25
100
AcDbLine
 10
83.0
 20
7.0
 30
0.0
 11
45.0253164557
 21
7.0
 31
0.0
  0
ARC
  5
9F
330
1F
100
AcDbEntity
  8
0
  6
Continuous
 62
     7
370
    25
100
AcDbCircle
 10
45.0253164557
 20
19.0253164557
 30
0.0
 40
12.0253164556962
100
AcDbArc
 50
179.9997819761
 51
270.0
  0
LINE
  5
A0
330
1F
100
AcDbEntity
  8
0
  6
Continuous
 62
     7
370
    25
100
AcDbLine
 10
54.6772151899
 20
24.5978427881
 30
0.0
 11
45.0253164557
 21
30.1703691204
 31
0.0
  0
CIRCLE
  5
A1
330
1F
100
AcDbEntity
  8
0
  6
Continuous
 62
     7
370
    25
100
AcDbCircle
 10
83.0
 20
57.0
 30
0.0
 40
38.29113924050633
  0
LINE
  5
A2
330
1F
100
AcDbEntity
  8
0
  6
Continuous
 62
     7
370
    25
100
AcDbLine
 10
120.9746835443
 20
83.8296308796
 30
0.0
 11
130.6265822785
 21
89.4021572119
 31
0.0
  0
LINE
  5
A3
330
1F
100
AcDbEntity
  8
0
  6
Continuous
 62
     7
370
    25
100
AcDbLine
 10
130.6265822785
 20
89.4021572119
 30
0.0
 11
130.6265822785
 21
100.5472098767
 31
0.0
  0
LINE
  5
A4
330
1F
100
AcDbEntity
  8
0
  6
Continuous
 62
     7
370
    25
100
AcDbLine
 10
130.6265822785
 20
100.5472098767
 30
0.0
 11
120.9746835443
 21
106.119736209
 31
0.0
  0
LINE
  5
A5
330
1F
100
AcDbEntity
  8
0
  6
Continuous
 62
     7
370
    25
100
AcDbLine
 10
111.3227848101
 20
100.5472098767
 30
0.0
 11
111.3227848101
 21
89.4021572119
 31
0.0
  0
LINE
  5
A6
330
1F
100
AcDbEntity
  8
0
  6
Continuous
 62
     7
370
    25
100
AcDbLine
 10
111.3227848101
 20
89.4021572119
 30
0.0
 11
120.9746835443
 21
83.8296308796
 31
0.0
  0
LINE
  5
A7
330
1F
100
AcDbEntity
  8
0
  6
Continuous
 62
     7
370
    25
100
AcDbLine
 10
33.0000000001
 20
57.0
 30
0.0
 11
33.0000000001
 21
19.0253622148
 31
0.0
  0
ARC
  5
A8
330
1F
100
AcDbEntity
  8
0
  6
Continuous
 62
     7
370
    25
100
AcDbCircle
 10
120.9746835443
 20
94.9746835443
 30
0.0
 40
12.02531645569621
100
AcDbArc
 50
0.0
 51
90.0
  0
LINE
  5
A9
330
1F
100
AcDbEntity
  8
0
  6
Continuous
 62
     7
370
    25
100
AcDbLine
 10
133.0
 20
57.0
 30
0.0
 11
133.0
 21
94.9746835443
 31
0.0
  0
LINE
  5
AA
330
1F
100
AcDbEntity
  8
0
  6
Continuous
 62
     7
370
    25
100
AcDbLine
 10
83.0
 20
107.0
 30
0.0
 11
120.9746835443
 21
107.0
 31
0.0
  0
LINE
  5
AB
330
1F
100
AcDbEntity
  8
0
  6
Continuous
 62
     7
370
    25
100
AcDbLine
 10
120.9746835443
 20
84.9258655679
 30
0.0
 11
129.6772151899
 21
89.9502745561
 31
0.0
  0
LINE
  5
AC
330
1F
100
AcDbEntity
  8
0
  6
Continuous
 62
     7
370
    25
100
AcDbLine
 10
130.6265822785
 20
89.4021572119
 30
0.0
 11
129.6772151899
 21
89.9502745561
 31
0.0
  0
LINE
  5
AD
330
1F
100
AcDbEntity
  8
0
  6
Continuous
 62
     7
370
    25
100
AcDbLine
 10
120.9746835443
 20
83.8296308796
 30
0.0
 11
120.9746835443
 21
84.9258655679
 31
0.0
  0
LINE
  5
AE
330
1F
100
AcDbEntity
  8
0
  6
Continuous
 62
     7
370
    25
100
AcDbLine
 10
112.2721518987
 20
99.9990925325
 30
0.0
 11
112.2721518987
 21
89.9502745561
 31
0.0
  0
LINE
  5
AF
330
1F
100
AcDbEntity
  8
0
  6
Continuous
 62
     7
370
    25
100
AcDbLine
 10
111.3227848101
 20
89.4021572119
 30
0.0
 11
112.2721518987
 21
89.9502745561
 31
0.0
  0
LINE
  5
B0
330
1F
100
AcDbEntity
  8
0
  6
Continuous
 62
     7
370
    25
100
AcDbLine
 10
53.7278481013
 20
24.0497254439
 30
0.0
 11
45.0253164557
 21
29.0741344321
 31
0.0
  0
LINE
  5
B1
330
1F
100
AcDbEntity
  8
0
  6
Continuous
 62
     7
370
    25
100
AcDbLine
 10
129.6772151899
 20
99.9990925325
 30
0.0
 11
120.9746835443
 21
105.0235015207
 31
0.0
  0
LINE
  5
B2
330
1F
100
AcDbEntity
  8
0
  6
Continuous
 62
     7
370
    25
100
AcDbLine
 10
130.6265822785
 20
100.5472098767
 30
0.0
 11
129.6772151899
 21
99.9990925325
 31
0.0
  0
LINE
  5
B3
330
1F
100
AcDbEntity
  8
0
  6
Continuous
 62
     7
370
    25
100
AcDbLine
 10
129.6772151899
 20
89.9502745561
 30
0.0
 11
129.6772151899
 21
99.9990925325
 31
0.0
  0
LINE
  5
B4
330
1F
100
AcDbEntity
  8
0
  6
Continuous
 62
     7
370
    25
100
AcDbLine
 10
112.2721518987
 20
89.9502745561
 30
0.0
 11
120.9746835443
 21
84.9258655679
 31
0.0
  0
CIRCLE
  5
B5
330
1F
100
AcDbEntity
  8
0
  6
Continuous
 62
     7
370
    25
100
AcDbCircle
 10
45.0253164557
 20
19.0253164557
 30
0.0
 40
4.27215189873418
  0
CIRCLE
  5
B6
330
1F
100
AcDbEntity
  8
0
  6
Continuous
 62
     7
370
    25
100
AcDbCircle
 10
120.9746835443
 20
94.9746835443
 30
0.0
 40
4.272151898734194
  0
INSERT
  5
C2
330
1F
100
AcDbEntity
  8
10
100
AcDbBlockReference
  2
SW_CENTERMARKSYMBOL_0
 10
83.0
 20
57.0
 30
0.0
  0
INSERT
  5
CE
330
1F
100
AcDbEntity
  8
10
100
AcDbBlockReference
  2
SW_CENTERMARKSYMBOL_1
 10
120.9746835443
 20
94.9746835443
 30
0.0
  0
INSERT
  5
DA
330
1F
100
AcDbEntity
  8
10
100
AcDbBlockReference
  2
SW_CENTERMARKSYMBOL_2
 10
45.0253164557
 20
19.0253164557
 30
0.0
  0
LINE
  5
DB
330
1F
100
AcDbEntity
  8
0
  6
Continuous
 62
     7
370
    25
100
AcDbLine
 10
33.0
 20
153.254414557
 30
0.0
 11
33.0
 21
146.9253006329
 31
0.0
  0
LINE
  5
DC
330
1F
100
AcDbEntity
  8
0
  6
Continuous
 62
     7
370
    25
100
AcDbLine
 10
133.0
 20
146.9253006329
 30
0.0
 11
133.0
 21
153.254414557
 31
0.0
  0
SPLINE
  5
DD
330
1F
100
AcDbEntity
  8
0
  6
Continuous
 62
     7
370
    25
100
AcDbSpline
210
0.0
220
0.0
230
1.0
 70
     8
 71
     3
 72
     9
 73
     5
 74
     0
 42
0.00000001
 43
0.00000001
 40
0.0
 40
0.0
 40
0.0
 40
0.0
 40
0.5000262362633323
 40
1.0
 40
1.0
 40
1.0
 40
1.0
 10
126.3704587741502
 20
149.6974827650317
 30
0.0
 10
126.7272199752204
 20
149.3104008746895
 30
0.0
 10
127.4407049390021
 20
148.5362777142033
 30
0.0
 10
128.1521493387384
 20
147.7647340738057
 30
0.0
 10
128.5078528729639
 20
147.378982496029
 30
0.0
  0
LINE
  5
DE
330
1F
100
AcDbEntity
  8
0
  6
Continuous
 62
     7
370
    25
100
AcDbLine
 10
102.1341716183
 20
153.254414557
 30
0.0
 11
102.1341716183
 21
153.2227689873
 31
0.0
  0
SPLINE
  5
DF
330
1F
100
AcDbEntity
  8
0
  6
Continuous
 62
     7
370
    25
100
AcDbSpline
210
0.0
220
0.0
230
1.0
 70
     8
 71
     3
 72
    18
 73
    14
 74
     0
 42
0.00000001
 43
0.00000001
 40
0.0
 40
0.0
 40
0.0
 40
0.0
 40
0.25
 40
0.25
 40
0.5
 40
0.5
 40
0.6250000000000004
 40
0.6250000000000004
 40
0.7500000000000009
 40
0.7500000000000009
 40
0.8750000000000004
 40
0.8750000000000004
 40
1.0
 40
1.0
 40
1.0
 40
1.0
 10
102.1341716182532
 20
153.2227689873418
 30
0.0
 10
102.1341716182532
 20
152.4974515758557
 30
0.0
 10
102.0195883345485
 20
151.7724245881536
 30
0.0
 10
101.5484278036192
 20
150.3728866270331
 30
0.0
 10
101.1916585299172
 20
149.6978851703383
 30
0.0
 10
100.4492345138367
 20
148.785724231812
 30
0.0
 10
100.1670925893909
 20
148.4989484866156
 30
0.0
 10
99.53121585345751
 20
147.9780232951288
 30
0.0
 10
99.17731998104468
 20
147.7439859567592
 30
0.0
 10
98.40277413568295
 20
147.3521840112487
 30
0.0
 10
97.98149617267018
 20
147.1947009348009
 30
0.0
 10
97.09527979014916
 20
146.9810722848631
 30
0.0
 10
96.63028534711461
 20
146.9253006329114
 30
0.0
 10
96.16369779831646
 20
146.9253006329114
 30
0.0
  0
LINE
  5
E0
330
1F
100
AcDbEntity
  8
0
  6
Continuous
 62
     7
370
    25
100
AcDbLine
 10
96.1636977983
 20
146.9253006329
 30
0.0
 11
33.0
 21
146.9253006329
 31
0.0
  0
LINE
  5
E1
330
1F
100
AcDbEntity
  8
0
  6
Continuous
 62
     7
370
    25
100
AcDbLine
 10
33.0000000001
 20
169.0771993671
 30
0.0
 11
33.0000000001
 21
153.254414557
 31
0.0
  0
LINE
  5
E2
330
1F
100
AcDbEntity
  8
0
  6
Continuous
 62
     7
370
    25
100
AcDbLine
 10
83.0
 20
169.0771993671
 30
0.0
 11
33.0000000001
 21
169.0771993671
 31
0.0
  0
LINE
  5
E3
330
1F
100
AcDbEntity
  8
0
  6
Continuous
 62
     7
370
    25
100
AcDbLine
 10
83.0
 20
153.254414557
 30
0.0
 11
120.9746835443
 21
153.254414557
 31
0.0
  0
LINE
  5
E4
330
1F
100
AcDbEntity
  8
0
  6
Continuous
 62
     7
370
    25
100
AcDbLine
 10
83.0
 20
169.0771993671
 30
0.0
 11
120.9746835443
 21
169.0771993671
 31
0.0
  0
LINE
  5
E5
330
1F
100
AcDbEntity
  8
0
  6
Continuous
 62
     7
370
    25
100
AcDbLine
 10
133.0
 20
169.0771993671
 30
0.0
 11
133.0
 21
153.254414557
 31
0.0
  0
LINE
  5
E6
330
1F
100
AcDbEntity
  8
0
  6
Continuous
 62
     7
370
    25
100
AcDbLine
 10
133.0
 20
153.254414557
 30
0.0
 11
120.9746835443
 21
153.254414557
 31
0.0
  0
LINE
  5
E7
330
1F
100
AcDbEntity
  8
0
  6
Continuous
 62
     7
370
    25
100
AcDbLine
 10
133.0
 20
169.0771993671
 30
0.0
 11
120.9746835443
 21
169.0771993671
 31
0.0
  0
SPLINE
  5
E8
330
1F
100
AcDbEntity
  8
0
  6
Continuous
 62
     7
370
    25
100
AcDbSpline
210
0.0
220
0.0
230
1.0
 70
     8
 71
     3
 72
    18
 73
    14
 74
     0
 42
0.00000001
 43
0.00000001
 40
0.0
 40
0.0
 40
0.0
 40
0.0
 40
0.2499999999999991
 40
0.2499999999999991
 40
0.4999999999999982
 40
0.4999999999999982
 40
0.6249999999999982
 40
0.6249999999999982
 40
0.7499999999999982
 40
0.7499999999999982
 40
0.8749999999999991
 40
0.8749999999999991
 40
1.0
 40
1.0
 40
1.0
 40
1.0
 10
129.1939860049842
 20
153.2227689873418
 30
0.0
 10
129.1939860049842
 20
152.4974515758557
 30
0.0
 10
129.2419802679107
 20
151.7724245881533
 30
0.0
 10
129.4329763108139
 20
150.372886627032
 30
0.0
 10
129.5762218226039
 20
149.6978851703378
 30
0.0
 10
129.8571770115727
 20
148.7857242318134
 30
0.0
 10
129.9617477633738
 20
148.4989484866181
 30
0.0
 10
130.1893389022242
 20
147.9780232951328
 30
0.0
 10
130.3123837932869
 20
147.7439859567638
 30
0.0
 10
130.5701783158166
 20
147.3521840112523
 30
0.0
 10
130.7050307104784
 20
147.194700934803
 30
0.0
 10
130.9743496609859
 20
146.9810722848636
 30
0.0
 10
131.108729787169
 20
146.9253006329114
 30
0.0
 10
131.2360620571772
 20
146.9253006329114
 30
0.0
  0
LINE
  5
E9
330
1F
100
AcDbEntity
  8
0
  6
Continuous
 62
     7
370
    25
100
AcDbLine
 10
131.2360620572
 20
146.9253006329
 30
0.0
 11
129.172293375
 21
146.9253006329
 31
0.0
  0
SPLINE
  5
EA
330
1F
100
AcDbEntity
  8
0
  6
Continuous
 62
     7
370
    25
100
AcDbSpline
210
0.0
220
0.0
230
1.0
 70
     8
 71
     3
 72
    20
 73
    16
 74
     0
 42
0.00000001
 43
0.00000001
 40
0.0
 40
0.0
 40
0.0
 40
0.0
 40
0.1249999999999999
 40
0.1249999999999999
 40
0.2499999999999998
 40
0.2499999999999998
 40
0.3749999999999993
 40
0.3749999999999993
 40
0.4999999999999988
 40
0.4999999999999988
 40
0.7499999999999993
 40
0.7499999999999993
 40
0.8749999999999997
 40
0.8749999999999997
 40
1.0
 40
1.0
 40
1.0
 40
1.0
 10
129.1722933750412
 20
146.9253006329114
 30
0.0
 10
129.0377265876637
 20
146.9253006329078
 30
0.0
 10
128.8961737858752
 20
146.9903365350896
 30
0.0
 10
128.6160129825826
 20
147.2297974544807
 30
0.0
 10
128.4776729439608
 20
147.4033559642826
 30
0.0
 10
128.2172819409796
 20
147.822797062234
 30
0.0
 10
128.0951449313293
 20
148.0683056914988
 30
0.0
 10
127.8723843346686
 20
148.602562935164
 30
0.0
 10
127.77172965651
 20
148.8912486810847
 30
0.0
 10
127.5041261225307
 20
149.7952087766241
 30
0.0
 10
127.3712137442896
 20
150.4467864873022
 30
0.0
 10
127.2377482752931
 20
151.460286923286
 30
0.0
 10
127.2042135066672
 20
151.8047997586407
 30
0.0
 10
127.1591021001833
 20
152.5056886486096
 30
0.0
 10
127.1474167779056
 20
152.8639140441457
 30
0.0
 10
127.1474167737722
 20
153.2227689873418
 30
0.0
  0
LINE
  5
EB
330
1F
100
AcDbEntity
  8
0
  6
Continuous
 62
     7
370
    25
100
AcDbLine
 10
127.1474167738
 20
153.2227689873
 30
0.0
 11
127.1474167733
 21
153.254414557
 31
0.0
  0
LINE
  5
EC
330
1F
100
AcDbEntity
  8
0
  6
Continuous
 62
     7
370
    25
100
AcDbLine
 10
129.193986005
 20
153.254414557
 30
0.0
 11
129.193986005
 21
153.2227689873
 31
0.0
  0
LINE
  5
ED
330
1F
100
AcDbEntity
  8
0
  6
Continuous
 62
     7
370
    25
100
AcDbLine
 10
133.0
 20
146.9253006329
 30
0.0
 11
131.2360620572
 21
146.9253006329
 31
0.0
  0
SPLINE
  5
EE
330
1F
100
AcDbEntity
  8
0
  6
Continuous
 62
     7
370
    25
100
AcDbSpline
210
0.0
220
0.0
230
1.0
 70
     8
 71
     3
 72
    16
 73
    12
 74
     0
 42
0.00000001
 43
0.00000001
 40
0.0
 40
0.0
 40
0.0
 40
0.0
 40
0.188268444686755
 40
0.3965705954609855
 40
0.5417541631906913
 40
0.6811316375230504
 40
0.818002267749605
 40
0.8869017217056517
 40
0.9089052352927505
 40
0.939265747648399
 40
1.0
 40
1.0
 40
1.0
 40
1.0
 10
126.3723051631309
 20
149.7181162577793
 30
0.0
 10
126.2980928820014
 20
149.8273576755582
 30
0.0
 10
126.1417713669062
 20
150.0574649257118
 30
0.0
 10
125.9582754859902
 20
150.6268147979852
 30
0.0
 10
125.8288630620567
 20
151.2339725382829
 30
0.0
 10
125.7514561609455
 20
151.8140241782848
 30
0.0
 10
125.718110968011
 20
152.3164936246319
 30
0.0
 10
125.711416282782
 20
152.6526217824766
 30
0.0
 10
125.7115105569249
 20
152.8316521338005
 30
0.0
 10
125.7114849803437
 20
152.9986198352649
 30
0.0
 10
125.7114908659514
 20
153.1331054208487
 30
0.0
 10
125.7114947899747
 20
153.2227689873418
 30
0.0
  0
LINE
  5
EF
330
1F
100
AcDbEntity
  8
0
  6
Continuous
 62
     7
370
    25
100
AcDbLine
 10
125.71149479
 20
153.2227689873
 30
0.0
 11
125.7114947899
 21
153.254414557
 31
0.0
  0
LINE
  5
F0
330
1F
100
AcDbEntity
  8
0
  6
Continuous
 62
     7
370
    25
100
AcDbLine
 10
100.9646198704
 20
149.4569462025
 30
0.0
 11
126.647618707
 21
149.4569462025
 31
0.0
  0
LINE
  5
F1
330
1F
100
AcDbEntity
  8
0
  6
Continuous
 62
     7
370
    25
100
AcDbLine
 10
96.1636977983
 20
146.9253006329
 30
0.0
 11
129.172293375
 21
146.9253006329
 31
0.0
  0
SPLINE
  5
F2
330
1F
100
AcDbEntity
  8
0
  6
HIDDEN
 62
     7
370
    18
100
AcDbSpline
210
0.0
220
0.0
230
1.0
 70
     8
 71
     3
 72
    18
 73
    14
 74
     0
 42
0.00000001
 43
0.00000001
 40
0.0
 40
0.0
 40
0.0
 40
0.0
 40
0.2500000000000006
 40
0.2500000000000006
 40
0.5000000000000011
 40
0.5000000000000011
 40
0.625000000000001
 40
0.625000000000001
 40
0.750000000000001
 40
0.750000000000001
 40
0.8750000000000004
 40
0.8750000000000004
 40
1.0
 40
1.0
 40
1.0
 40
1.0
 10
36.80602337446203
 20
153.2227689873418
 30
0.0
 10
36.80602337446203
 20
152.4973839179858
 30
0.0
 10
36.75801824601842
 20
151.7722642764124
 30
0.0
 10
36.56698182280113
 20
150.3725937924089
 30
0.0
 10
36.42367294962262
 20
149.6974264468807
 30
0.0
 10
36.14271283842746
 20
148.7853830697178
 30
0.0
 10
36.03813726761934
 20
148.4986307636977
 30
0.0
 10
35.81053914862452
 20
147.9777610319247
 30
0.0
 10
35.68749215780388
 20
147.7437588895158
 30
0.0
 10
35.42974369997811
 20
147.3520805400178
 30
0.0
 10
35.29492967120965
 20
147.1946541194012
 30
0.0
 10
35.02562770867612
 20
146.9810584640403
 30
0.0
 10
34.8912673786319
 20
146.9253006329114
 30
0.0
 10
34.76394439556962
 20
146.9253006329114
 30
0.0
  0
LINE
  5
F3
330
1F
100
AcDbEntity
  8
0
  6
HIDDEN
 62
     7
370
    18
100
AcDbLine
 10
36.8060233745
 20
153.254414557
 30
0.0
 11
36.8060233745
 21
153.2227689873
 31
0.0
  0
LINE
  5
F4
330
1F
100
AcDbEntity
  8
0
  6
HIDDEN
 62
     7
370
    18
100
AcDbLine
 10
33.0000000001
 20
153.254414557
 30
0.0
 11
36.8060233745
 21
153.254414557
 31
0.0
  0
LINE
  5
F5
330
1F
100
AcDbEntity
  8
0
  6
HIDDEN
 62
     7
370
    18
100
AcDbLine
 10
120.9746835443
 20
153.254414557
 30
0.0
 11
120.9746835443
 21
154.2037816456
 31
0.0
  0
SPLINE
  5
F6
330
1F
100
AcDbEntity
  8
0
  6
HIDDEN
 62
     7
370
    18
100
AcDbSpline
210
0.0
220
0.0
230
1.0
 70
     8
 71
     3
 72
    16
 73
    12
 74
     0
 42
0.00000001
 43
0.00000001
 40
0.0
 40
0.0
 40
0.0
 40
0.0
 40
0.2499999999999999
 40
0.2499999999999999
 40
0.4999999999999999
 40
0.4999999999999999
 40
0.7500000000000001
 40
0.7500000000000001
 40
0.8750000000000001
 40
0.8750000000000001
 40
1.0
 40
1.0
 40
1.0
 40
1.0
 10
101.2864551541551
 20
153.2227689873418
 30
0.0
 10
101.2864551541482
 20
152.5180944654314
 30
0.0
 10
101.1776101186671
 20
151.7999610546953
 30
0.0
 10
100.7134922201401
 20
150.4009187391461
 30
0.0
 10
100.3580284132166
 20
149.7204348839287
 30
0.0
 10
99.36996947092236
 20
148.4971680564192
 30
0.0
 10
98.73403305759295
 20
147.9529031513002
 30
0.0
 10
97.57249129179263
 20
147.3605941837459
 30
0.0
 10
97.1509421055406
 20
147.2012060350159
 30
0.0
 10
96.25791472789159
 20
146.983280778612
 30
0.0
 10
95.78684335727783
 20
146.9253006329079
 30
0.0
 10
95.30885699414557
 20
146.9253006329114
 30
0.0
  0
LINE
  5
F7
330
1F
100
AcDbEntity
  8
0
  6
HIDDEN
 62
     7
370
    18
100
AcDbLine
 10
120.9746835443
 20
162.748085443
 30
0.0
 11
112.2721518987
 21
162.748085443
 31
0.0
  0
LINE
  5
F8
330
1F
100
AcDbEntity
  8
0
  6
HIDDEN
 62
     7
370
    18
100
AcDbLine
 10
120.9746835443
 20
154.2037816456
 30
0.0
 11
112.2721518987
 21
154.2037816456
 31
0.0
  0
LINE
  5
F9
330
1F
100
AcDbEntity
  8
0
  6
HIDDEN
 62
     7
370
    18
100
AcDbLine
 10
120.9746835443
 20
154.2037816456
 30
0.0
 11
120.9746835443
 21
162.748085443
 31
0.0
  0
LINE
  5
FA
330
1F
100
AcDbEntity
  8
0
  6
HIDDEN
 62
     7
370
    18
100
AcDbLine
 10
129.6772151899
 20
162.748085443
 30
0.0
 11
120.9746835443
 21
162.748085443
 31
0.0
  0
LINE
  5
FB
330
1F
100
AcDbEntity
  8
0
  6
HIDDEN
 62
     7
370
    18
100
AcDbLine
 10
129.6772151899
 20
154.2037816456
 30
0.0
 11
120.9746835443
 21
154.2037816456
 31
0.0
  0
LINE
  5
FC
330
1F
100
AcDbEntity
  8
0
  6
HIDDEN
 62
     7
370
    18
100
AcDbLine
 10
94.6567321203
 20
149.4569462025
 30
0.0
 11
37.746835443
 21
149.4569462025
 31
0.0
  0
LINE
  5
FD
330
1F
100
AcDbEntity
  8
0
  6
HIDDEN
 62
     7
370
    18
100
AcDbLine
 10
40.288512531
 20
153.2227689873
 30
0.0
 11
40.288512531
 21
153.254414557
 31
0.0
  0
SPLINE
  5
FE
330
1F
100
AcDbEntity
  8
0
  6
HIDDEN
 62
     7
370
    18
100
AcDbSpline
210
0.0
220
0.0
230
1.0
 70
     8
 71
     3
 72
    16
 73
    12
 74
     0
 42
0.00000001
 43
0.00000001
 40
0.0
 40
0.0
 40
0.0
 40
0.0
 40
0.1250000000000002
 40
0.1250000000000002
 40
0.2500000000000004
 40
0.2500000000000004
 40
0.5000000000000003
 40
0.5000000000000003
 40
0.7500000000000002
 40
0.7500000000000002
 40
1.0
 40
1.0
 40
1.0
 40
1.0
 10
39.27392655756329
 20
149.4569462025316
 30
0.0
 10
39.34103649080695
 20
149.4569462025316
 30
0.0
 10
39.40944099184932
 20
149.4893327482312
 30
0.0
 10
39.54374747001092
 20
149.6111914823364
 30
0.0
 10
39.60957799605009
 20
149.7003978844558
 30
0.0
 10
39.79770639571121
 20
150.0360414606538
 30
0.0
 10
39.91050992047469
 20
150.3497800900682
 30
0.0
 10
40.09568079783535
 20
151.0788374055863
 30
0.0
 10
40.16818964875782
 20
151.495132530666
 30
0.0
 10
40.26469438564229
 20
152.3566707788673
 30
0.0
 10
40.28851253101266
 20
152.801214445674
 30
0.0
 10
40.28851253101266
 20
153.2227689873418
 30
0.0
  0
LINE
  5
FF
330
1F
100
AcDbEntity
  8
0
  6
HIDDEN
 62
     7
370
    18
100
AcDbLine
 10
97.9525161965
 20
153.254414557
 30
0.0
 11
97.9525161965
 21
153.2227689873
 31
0.0
  0
SPLINE
  5
100
330
1F
100
AcDbEntity
  8
0
  6
HIDDEN
 62
     7
370
    18
100
AcDbSpline
210
0.0
220
0.0
230
1.0
 70
     8
 71
     3
 72
    16
 73
    12
 74
     0
 42
0.00000001
 43
0.00000001
 40
0.0
 40
0.0
 40
0.0
 40
0.0
 40
0.2500000000000001
 40
0.2500000000000001
 40
0.5000000000000001
 40
0.5000000000000001
 40
0.7500000000000002
 40
0.7500000000000002
 40
0.8750000000000001
 40
0.8750000000000001
 40
1.0
 40
1.0
 40
1.0
 40
1.0
 10
97.95251619647784
 20
153.2227689873418
 30
0.0
 10
97.952516196471
 20
152.8012721754111
 30
0.0
 10
97.8849934035193
 20
152.356683316967
 30
0.0
 10
97.60514811263613
 20
151.4952718908015
 30
0.0
 10
97.39308239749958
 20
151.0791016222515
 30
0.0
 10
96.82887864823553
 20
150.3498810611274
 30
0.0
 10
96.47612556410765
 20
150.0361331746292
 30
0.0
 10
95.85206203281443
 20
149.7005128494436
 30
0.0
 10
95.62806670539877
 20
149.6112524681958
 30
0.0
 10
95.15617523271735
 20
149.4893253013043
 30
0.0
 10
94.90850152056487
 20
149.4569462025282
 30
0.0
 10
94.65673212028481
 20
149.4569462025316
 30
0.0
  0
LINE
  5
101
330
1F
100
AcDbEntity
  8
0
  6
HIDDEN
 62
     7
370
    18
100
AcDbLine
 10
83.0
 20
153.254414557
 30
0.0
 11
37.746835443
 21
153.254414557
 31
0.0
  0
LINE
  5
102
330
1F
100
AcDbEntity
  8
0
  6
HIDDEN
 62
     7
370
    18
100
AcDbLine
 10
101.2864551542
 20
153.254414557
 30
0.0
 11
101.2864551542
 21
153.2227689873
 31
0.0
  0
LINE
  5
103
330
1F
100
AcDbEntity
  8
0
  6
HIDDEN
 62
     7
370
    18
100
AcDbLine
 10
130.6265822785
 20
153.254414557
 30
0.0
 11
129.6772151899
 21
154.2037816456
 31
0.0
  0
LINE
  5
104
330
1F
100
AcDbEntity
  8
0
  6
HIDDEN
 62
     7
370
    18
100
AcDbLine
 10
111.3227848101
 20
153.254414557
 30
0.0
 11
112.2721518987
 21
154.2037816456
 31
0.0
  0
LINE
  5
105
330
1F
100
AcDbEntity
  8
0
  6
HIDDEN
 62
     7
370
    18
100
AcDbLine
 10
129.6772151899
 20
154.2037816456
 30
0.0
 11
129.6772151899
 21
162.748085443
 31
0.0
  0
LINE
  5
106
330
1F
100
AcDbEntity
  8
0
  6
HIDDEN
 62
     7
370
    18
100
AcDbLine
 10
112.2721518987
 20
154.2037816456
 30
0.0
 11
112.2721518987
 21
162.748085443
 31
0.0
  0
LINE
  5
107
330
1F
100
AcDbEntity
  8
0
  6
HIDDEN
 62
     7
370
    18
100
AcDbLine
 10
63.8658283817
 20
153.254414557
 30
0.0
 11
63.8658283817
 21
153.2227689873
 31
0.0
  0
SPLINE
  5
108
330
1F
100
AcDbEntity
  8
0
  6
HIDDEN
 62
     7
370
    18
100
AcDbSpline
210
0.0
220
0.0
230
1.0
 70
     8
 71
     3
 72
    18
 73
    14
 74
     0
 42
0.00000001
 43
0.00000001
 40
0.0
 40
0.0
 40
0.0
 40
0.0
 40
0.2500000000000004
 40
0.2500000000000004
 40
0.5000000000000008
 40
0.5000000000000008
 40
0.6250000000000008
 40
0.6250000000000008
 40
0.7500000000000007
 40
0.7500000000000007
 40
0.8750000000000003
 40
0.8750000000000003
 40
1.0
 40
1.0
 40
1.0
 40
1.0
 10
63.86582838174684
 20
153.2227689873418
 30
0.0
 10
63.86582838174684
 20
152.4973839179858
 30
0.0
 10
63.98043710838666
 20
151.7722642764124
 30
0.0
 10
64.45169900511038
 20
150.3725937924089
 30
0.0
 10
64.80863294515268
 20
149.6974264468795
 30
0.0
 10
65.55108431410413
 20
148.7853830697189
 30
0.0
 10
65.83324450237907
 20
148.4986307636986
 30
0.0
 10
66.46915518604192
 20
147.9777610319248
 30
0.0
 10
66.82306756426608
 20
147.7437588895158
 30
0.0
 10
67.5974918473118
 20
147.3520805400178
 30
0.0
 10
68.01865422076386
 20
147.1946541194012
 30
0.0
 10
68.90482153025835
 20
146.9810584640403
 30
0.0
 10
69.36974952139265
 20
146.9253006329114
 30
0.0
 10
69.83630220168355
 20
146.9253006329114
 30
0.0
  0
SPLINE
  5
109
330
1F
100
AcDbEntity
  8
0
  6
HIDDEN
 62
     7
370
    18
100
AcDbSpline
210
0.0
220
0.0
230
1.0
 70
     8
 71
     3
 72
     9
 73
     5
 74
     0
 42
0.00000001
 43
0.00000001
 40
0.0
 40
0.0
 40
0.0
 40
0.0
 40
0.8541514324981025
 40
1.0
 40
1.0
 40
1.0
 40
1.0
 10
126.7260791564968
 20
149.4569462025316
 30
0.0
 10
126.6242007287685
 20
149.4683663821817
 30
0.0
 10
126.5049262958609
 20
149.4817365870605
 30
0.0
 10
126.3891857551897
 20
149.6880288297031
 30
0.0
 10
126.3723051631309
 20
149.7181162577793
 30
0.0
  0
LINE
  5
10A
330
1F
100
AcDbEntity
  8
0
  6
HIDDEN
 62
     7
370
    18
100
AcDbLine
 10
94.6567321203
 20
149.4569462025
 30
0.0
 11
100.9646198704
 21
149.4569462025
 31
0.0
  0
LINE
  5
10B
330
1F
100
AcDbEntity
  8
0
  6
HIDDEN
 62
     7
370
    18
100
AcDbLine
 10
126.647618707
 20
149.4569462025
 30
0.0
 11
126.7260791565
 21
149.4569462025
 31
0.0
  0
LINE
  5
10C
330
1F
100
AcDbEntity
  8
0
  6
HIDDEN
 62
     7
370
    18
100
AcDbLine
 10
128.253164557
 20
149.4569462025
 30
0.0
 11
126.7260791565
 21
149.4569462025
 31
0.0
  0
SPLINE
  5
10D
330
1F
100
AcDbEntity
  8
0
  6
HIDDEN
 62
     7
370
    18
100
AcDbSpline
210
0.0
220
0.0
230
1.0
 70
     8
 71
     3
 72
    16
 73
    12
 74
     0
 42
0.00000001
 43
0.00000001
 40
0.0
 40
0.0
 40
0.0
 40
0.0
 40
0.2500000000000002
 40
0.2500000000000002
 40
0.5000000000000004
 40
0.5000000000000004
 40
0.7500000000000007
 40
0.7500000000000007
 40
0.8750000000000003
 40
0.8750000000000003
 40
1.0
 40
1.0
 40
1.0
 40
1.0
 10
68.04748380352216
 20
153.2227689873418
 30
0.0
 10
68.04748380352216
 20
152.801214445674
 30
0.0
 10
68.11493967823704
 20
152.3566927582132
 30
0.0
 10
68.39498467887897
 20
151.495118214655
 30
0.0
 10
68.60701829974639
 20
151.0788992280142
 30
0.0
 10
69.1713757384205
 20
150.3496947127958
 30
0.0
 10
69.52414315813544
 20
150.0359336552363
 30
0.0
 10
70.14809706591437
 20
149.7004510711075
 30
0.0
 10
70.37199616303869
 20
149.611227253948
 30
0.0
 10
70.84381627580186
 20
149.4893285193801
 30
0.0
 10
71.09152889835127
 20
149.4569462025316
 30
0.0
 10
71.34326787971519
 20
149.4569462025316
 30
0.0
  0
LINE
  5
10E
330
1F
100
AcDbEntity
  8
0
  6
HIDDEN
 62
     7
370
    18
100
AcDbLine
 10
68.0474838035
 20
153.254414557
 30
0.0
 11
68.0474838035
 21
153.2227689873
 31
0.0
  0
SPLINE
  5
10F
330
1F
100
AcDbEntity
  8
0
  6
HIDDEN
 62
     7
370
    18
100
AcDbSpline
210
0.0
220
0.0
230
1.0
 70
     8
 71
     3
 72
    16
 73
    12
 74
     0
 42
0.00000001
 43
0.00000001
 40
0.0
 40
0.0
 40
0.0
 40
0.0
 40
0.1250000000000001
 40
0.1250000000000001
 40
0.2500000000000002
 40
0.2500000000000002
 40
0.5000000000000001
 40
0.5000000000000001
 40
0.75
 40
0.75
 40
1.0
 40
1.0
 40
1.0
 40
1.0
 10
36.8277126586709
 20
146.9253006329114
 30
0.0
 10
36.95512186208861
 20
146.9253006329114
 30
0.0
 10
37.08882658920879
 20
146.9832732334054
 30
0.0
 10
37.35611549755492
 20
147.2011080476122
 30
0.0
 10
37.48949713352558
 20
147.3604717453971
 30
0.0
 10
37.8723990863547
 20
147.952710735155
 30
0.0
 10
38.10341358519175
 20
148.4967741581035
 30
0.0
 10
38.47619756064017
 20
149.7200910471653
 30
0.0
 10
38.61884477005927
 20
150.4005724868257
 30
0.0
 10
38.8069709104046
 20
151.7998330524231
 30
0.0
 10
38.85259195911392
 20
152.5180344455665
 30
0.0
 10
38.85259195911392
 20
153.2227689873418
 30
0.0
  0
LINE
  5
110
330
1F
100
AcDbEntity
  8
0
  6
HIDDEN
 62
     7
370
    18
100
AcDbLine
 10
38.8525919591
 20
153.2227689873
 30
0.0
 11
38.8525919591
 21
153.254414557
 31
0.0
  0
LINE
  5
111
330
1F
100
AcDbEntity
  8
0
  6
HIDDEN
 62
     7
370
    18
100
AcDbLine
 10
37.746835443
 20
153.254414557
 30
0.0
 11
36.8060233745
 21
153.254414557
 31
0.0
  0
LINE
  5
112
330
1F
100
AcDbEntity
  8
0
  6
HIDDEN
 62
     7
370
    18
100
AcDbLine
 10
45.0253164557
 20
153.254414557
 30
0.0
 11
45.0253164557
 21
154.2037816456
 31
0.0
  0
LINE
  5
113
330
1F
100
AcDbEntity
  8
0
  6
HIDDEN
 62
     7
370
    18
100
AcDbLine
 10
45.0253164557
 20
154.2037816456
 30
0.0
 11
36.3227848101
 21
154.2037816456
 31
0.0
  0
LINE
  5
114
330
1F
100
AcDbEntity
  8
0
  6
HIDDEN
 62
     7
370
    18
100
AcDbLine
 10
45.0253164557
 20
162.748085443
 30
0.0
 11
36.3227848101
 21
162.748085443
 31
0.0
  0
LINE
  5
115
330
1F
100
AcDbEntity
  8
0
  6
HIDDEN
 62
     7
370
    18
100
AcDbLine
 10
53.7278481013
 20
162.748085443
 30
0.0
 11
45.0253164557
 21
162.748085443
 31
0.0
  0
LINE
  5
116
330
1F
100
AcDbEntity
  8
0
  6
HIDDEN
 62
     7
370
    18
100
AcDbLine
 10
45.0253164557
 20
154.2037816456
 30
0.0
 11
45.0253164557
 21
162.748085443
 31
0.0
  0
LINE
  5
117
330
1F
100
AcDbEntity
  8
0
  6
HIDDEN
 62
     7
370
    18
100
AcDbLine
 10
53.7278481013
 20
154.2037816456
 30
0.0
 11
45.0253164557
 21
154.2037816456
 31
0.0
  0
LINE
  5
118
330
1F
100
AcDbEntity
  8
0
  6
HIDDEN
 62
     7
370
    18
100
AcDbLine
 10
35.3734177215
 20
153.254414557
 30
0.0
 11
36.3227848101
 21
154.2037816456
 31
0.0
  0
LINE
  5
119
330
1F
100
AcDbEntity
  8
0
  6
HIDDEN
 62
     7
370
    18
100
AcDbLine
 10
54.6772151899
 20
153.254414557
 30
0.0
 11
53.7278481013
 21
154.2037816456
 31
0.0
  0
LINE
  5
11A
330
1F
100
AcDbEntity
  8
0
  6
HIDDEN
 62
     7
370
    18
100
AcDbLine
 10
53.7278481013
 20
154.2037816456
 30
0.0
 11
53.7278481013
 21
162.748085443
 31
0.0
  0
LINE
  5
11B
330
1F
100
AcDbEntity
  8
0
  6
HIDDEN
 62
     7
370
    18
100
AcDbLine
 10
36.3227848101
 20
154.2037816456
 30
0.0
 11
36.3227848101
 21
162.748085443
 31
0.0
  0
LINE
  5
11C
330
1F
100
AcDbEntity
  8
0
  6
HIDDEN
 62
     7
370
    18
100
AcDbLine
 10
64.7135448458
 20
153.254414557
 30
0.0
 11
64.7135448458
 21
153.2227689873
 31
0.0
  0
SPLINE
  5
11D
330
1F
100
AcDbEntity
  8
0
  6
HIDDEN
 62
     7
370
    18
100
AcDbSpline
210
0.0
220
0.0
230
1.0
 70
     8
 71
     3
 72
    16
 73
    12
 74
     0
 42
0.00000001
 43
0.00000001
 40
0.0
 40
0.0
 40
0.0
 40
0.0
 40
0.2500000000000001
 40
0.2500000000000001
 40
0.5000000000000002
 40
0.5000000000000002
 40
0.7500000000000003
 40
0.7500000000000003
 40
0.8750000000000001
 40
0.8750000000000001
 40
1.0
 40
1.0
 40
1.0
 40
1.0
 10
64.71354484584494
 20
153.2227689873418
 30
0.0
 10
64.71354484584494
 20
152.5180344455665
 30
0.0
 10
64.82236206559458
 20
151.7998324038383
 30
0.0
 10
65.28668668507126
 20
150.4005758290946
 30
0.0
 10
65.64215246401302
 20
149.7200920392127
 30
0.0
 10
66.63044956422365
 20
148.4967829587891
 30
0.0
 10
67.26638037740558
 20
147.9526322826076
 30
0.0
 10
68.4278311974702
 20
147.3604675381729
 30
0.0
 10
68.84920979926892
 20
147.2011556476214
 30
0.0
 10
69.7420838644674
 20
146.9832977525952
 30
0.0
 10
70.21321281683544
 20
146.9253006329114
 30
0.0
 10
70.69114300585444
 20
146.9253006329114
 30
0.0
  0
LINE
  5
11E
330
1F
100
AcDbEntity
  8
0
  6
HIDDEN
 62
     7
370
    18
100
AcDbLine
 10
37.746835443
 20
149.4569462025
 30
0.0
 11
35.2151898734
 21
146.9253006329
 31
0.0
  0
LINE
  5
11F
330
1F
100
AcDbEntity
  8
0
  6
HIDDEN
 62
     7
370
    18
100
AcDbLine
 10
37.746835443
 20
153.254414557
 30
0.0
 11
37.746835443
 21
149.4569462025
 31
0.0
  0
LINE
  5
120
330
1F
100
AcDbEntity
  8
0
  6
HIDDEN
 62
     7
370
    18
100
AcDbLine
 10
116.7025316456
 20
169.0771993671
 30
0.0
 11
116.7025316456
 21
162.748085443
 31
0.0
  0
LINE
  5
121
330
1F
100
AcDbEntity
  8
0
  6
HIDDEN
 62
     7
370
    18
100
AcDbLine
 10
125.246835443
 20
162.748085443
 30
0.0
 11
125.246835443
 21
169.0771993671
 31
0.0
  0
LINE
  5
122
330
1F
100
AcDbEntity
  8
0
  6
HIDDEN
 62
     7
370
    18
100
AcDbLine
 10
44.7088607595
 20
169.0771993671
 30
0.0
 11
44.7088607595
 21
153.254414557
 31
0.0
  0
LINE
  5
123
330
1F
100
AcDbEntity
  8
0
  6
HIDDEN
 62
     7
370
    18
100
AcDbLine
 10
121.2911392405
 20
153.254414557
 30
0.0
 11
121.2911392405
 21
169.0771993671
 31
0.0
  0
LINE
  5
124
330
1F
100
AcDbEntity
  8
0
  6
HIDDEN
 62
     7
370
    18
100
AcDbLine
 10
128.253164557
 20
149.4569462025
 30
0.0
 11
128.253164557
 21
153.254414557
 31
0.0
  0
LINE
  5
125
330
1F
100
AcDbEntity
  8
0
  6
HIDDEN
 62
     7
370
    18
100
AcDbLine
 10
130.7848101266
 20
146.9253006329
 30
0.0
 11
128.253164557
 21
149.4569462025
 31
0.0
  0
LINE
  5
126
330
1F
100
AcDbEntity
  8
0
  6
HIDDEN
 62
     7
370
    18
100
AcDbLine
 10
37.4783387993
 20
147.3613269868
 30
0.0
 11
39.5879010154
 21
149.6782900653
 31
0.0
  0
LINE
  5
127
330
1F
100
AcDbEntity
  8
0
  6
HIDDEN
 62
     7
370
    18
100
AcDbLine
 10
40.753164557
 20
169.0771993671
 30
0.0
 11
40.753164557
 21
162.748085443
 31
0.0
  0
LINE
  5
128
330
1F
100
AcDbEntity
  8
0
  6
HIDDEN
 62
     7
370
    18
100
AcDbLine
 10
49.2974683544
 20
162.748085443
 30
0.0
 11
49.2974683544
 21
169.0771993671
 31
0.0
  0
LINE
  5
129
330
1F
100
AcDbEntity
  8
0
  6
Continuous
 62
     7
370
    25
100
AcDbLine
 10
211.9253006329
 20
7.0
 30
0.0
 11
218.254414557
 21
7.0
 31
0.0
  0
LINE
  5
12A
330
1F
100
AcDbEntity
  8
0
  6
Continuous
 62
     7
370
    25
100
AcDbLine
 10
218.254414557
 20
107.0
 30
0.0
 11
211.9253006329
 21
107.0
 31
0.0
  0
LINE
  5
12B
330
1F
100
AcDbEntity
  8
0
  6
Continuous
 62
     7
370
    25
100
AcDbLine
 10
212.3613836333
 20
102.5216148547
 30
0.0
 11
214.6783774986
 21
100.4120246597
 31
0.0
  0
LINE
  5
12C
330
1F
100
AcDbEntity
  8
0
  6
Continuous
 62
     7
370
    25
100
AcDbLine
 10
211.9253006329
 20
7.0
 30
0.0
 11
211.9253006329
 21
70.1636741534
 31
0.0
  0
SPLINE
  5
12D
330
1F
100
AcDbEntity
  8
0
  6
Continuous
 62
     7
370
    25
100
AcDbSpline
210
0.0
220
0.0
230
1.0
 70
     8
 71
     3
 72
    18
 73
    14
 74
     0
 42
0.00000001
 43
0.00000001
 40
0.0
 40
0.0
 40
0.0
 40
0.0
 40
0.2499999999999991
 40
0.2499999999999991
 40
0.4999999999999982
 40
0.4999999999999982
 40
0.6249999999999982
 40
0.6249999999999982
 40
0.7499999999999982
 40
0.7499999999999982
 40
0.8749999999999991
 40
0.8749999999999991
 40
1.0
 40
1.0
 40
1.0
 40
1.0
 10
218.2227689873418
 20
76.13414897431963
 30
0.0
 10
217.4974515758557
 20
76.13414897431963
 30
0.0
 10
216.7724245881533
 20
76.01956566708503
 30
0.0
 10
215.372886627032
 20
75.54840504253144
 30
0.0
 10
214.6978851703378
 20
75.19163569861333
 30
0.0
 10
213.7857242318134
 20
74.4492115448109
 30
0.0
 10
213.4989484866181
 20
74.16706956910713
 30
0.0
 10
212.9780232951328
 20
73.53119272161152
 30
0.0
 10
212.7439859567638
 20
73.17729678888507
 30
0.0
 10
212.3521840112523
 20
72.40275081715589
 30
0.0
 10
212.194700934803
 20
71.98147278803891
 30
0.0
 10
211.9810722848636
 20
71.09525627349721
 30
0.0
 10
211.9253006329114
 20
70.63026176458497
 30
0.0
 10
211.9253006329114
 20
70.16367415337025
 30
0.0
  0
LINE
  5
12E
330
1F
100
AcDbEntity
  8
0
  6
Continuous
 62
     7
370
    25
100
AcDbLine
 10
218.254414557
 20
76.1341489743
 30
0.0
 11
218.2227689873
 21
76.1341489743
 31
0.0
  0
LINE
  5
12F
330
1F
100
AcDbEntity
  8
0
  6
Continuous
 62
     7
370
    25
100
AcDbLine
 10
234.0771993671
 20
7.0
 30
0.0
 11
234.0771993671
 21
57.0
 31
0.0
  0
LINE
  5
130
330
1F
100
AcDbEntity
  8
0
  6
Continuous
 62
     7
370
    25
100
AcDbLine
 10
234.0771993671
 20
7.0
 30
0.0
 11
218.254414557
 21
7.0
 31
0.0
  0
LINE
  5
131
330
1F
100
AcDbEntity
  8
0
  6
Continuous
 62
     7
370
    25
100
AcDbLine
 10
218.254414557
 20
94.9746835443
 30
0.0
 11
218.254414557
 21
107.0
 31
0.0
  0
LINE
  5
132
330
1F
100
AcDbEntity
  8
0
  6
Continuous
 62
     7
370
    25
100
AcDbLine
 10
234.0771993671
 20
107.0
 30
0.0
 11
218.254414557
 21
107.0
 31
0.0
  0
LINE
  5
133
330
1F
100
AcDbEntity
  8
0
  6
Continuous
 62
     7
370
    25
100
AcDbLine
 10
234.0771993671
 20
94.9746835443
 30
0.0
 11
234.0771993671
 21
107.0
 31
0.0
  0
LINE
  5
134
330
1F
100
AcDbEntity
  8
0
  6
Continuous
 62
     7
370
    25
100
AcDbLine
 10
218.254414557
 20
57.0
 30
0.0
 11
218.254414557
 21
94.9746835443
 31
0.0
  0
LINE
  5
135
330
1F
100
AcDbEntity
  8
0
  6
Continuous
 62
     7
370
    25
100
AcDbLine
 10
234.0771993671
 20
57.0
 30
0.0
 11
234.0771993671
 21
94.9746835443
 31
0.0
  0
SPLINE
  5
136
330
1F
100
AcDbEntity
  8
0
  6
Continuous
 62
     7
370
    25
100
AcDbSpline
210
0.0
220
0.0
230
1.0
 70
     8
 71
     3
 72
    16
 73
    12
 74
     0
 42
0.00000001
 43
0.00000001
 40
0.0
 40
0.0
 40
0.0
 40
0.0
 40
0.2499999999999999
 40
0.2499999999999999
 40
0.4999999999999999
 40
0.4999999999999999
 40
0.7500000000000001
 40
0.7500000000000001
 40
0.8750000000000001
 40
0.8750000000000001
 40
1.0
 40
1.0
 40
1.0
 40
1.0
 10
218.2227689873418
 20
101.1474080408861
 30
0.0
 10
217.5180944654314
 20
101.1474080408689
 30
0.0
 10
216.7999610546954
 20
101.1930383202799
 30
0.0
 10
215.4009187391461
 20
101.3810862456215
 30
0.0
 10
214.7204348839287
 20
101.5237321784053
 30
0.0
 10
213.4971680564192
 20
101.8964296770913
 30
0.0
 10
212.9529031513002
 20
102.1275165845668
 30
0.0
 10
212.3605941837459
 20
102.5104021609478
 30
0.0
 10
212.2012060350159
 20
102.6437940870078
 30
0.0
 10
211.983280778612
 20
102.9111442287229
 30
0.0
 10
211.9253006329079
 20
103.0448631627391
 30
0.0
 10
211.9253006329114
 20
103.1722873413386
 30
0.0
  0
LINE
  5
137
330
1F
100
AcDbEntity
  8
0
  6
Continuous
 62
     7
370
    25
100
AcDbLine
 10
211.9253006329
 20
103.1722873413
 30
0.0
 11
211.9253006329
 21
105.2360556044
 31
0.0
  0
SPLINE
  5
138
330
1F
100
AcDbEntity
  8
0
  6
Continuous
 62
     7
370
    25
100
AcDbSpline
210
0.0
220
0.0
230
1.0
 70
     8
 71
     3
 72
    18
 73
    14
 74
     0
 42
0.00000001
 43
0.00000001
 40
0.0
 40
0.0
 40
0.0
 40
0.0
 40
0.25
 40
0.25
 40
0.5
 40
0.5
 40
0.6250000000000004
 40
0.6250000000000004
 40
0.7500000000000009
 40
0.7500000000000009
 40
0.8750000000000004
 40
0.8750000000000004
 40
1.0
 40
1.0
 40
1.0
 40
1.0
 10
218.2227689873418
 20
103.1939766255633
 30
0.0
 10
217.4974515758557
 20
103.1939766255633
 30
0.0
 10
216.7724245881536
 20
103.2419709446602
 30
0.0
 10
215.3728866270331
 20
103.4329672185236
 30
0.0
 10
214.6978851703383
 20
103.5762129051976
 30
0.0
 10
213.785724231812
 20
103.8571684580989
 30
0.0
 10
213.4989484866156
 20
103.9617393482032
 30
0.0
 10
212.9780232951288
 20
104.1893307987566
 30
0.0
 10
212.7439859567592
 20
104.312375863295
 30
0.0
 10
212.3521840112487
 20
104.5701707655019
 30
0.0
 10
212.1947009348009
 20
104.705023366672
 30
0.0
 10
211.9810722848631
 20
104.9743427515957
 30
0.0
 10
211.9253006329114
 20
105.1087231057132
 30
0.0
 10
211.9253006329114
 20
105.2360556044399
 30
0.0
  0
LINE
  5
139
330
1F
100
AcDbEntity
  8
0
  6
Continuous
 62
     7
370
    25
100
AcDbLine
 10
218.254414557
 20
103.1939766256
 30
0.0
 11
218.2227689873
 21
103.1939766256
 31
0.0
  0
LINE
  5
13A
330
1F
100
AcDbEntity
  8
0
  6
Continuous
 62
     7
370
    25
100
AcDbLine
 10
218.254414557
 20
101.1474080409
 30
0.0
 11
218.2227689873
 21
101.1474080409
 31
0.0
  0
LINE
  5
13B
330
1F
100
AcDbEntity
  8
0
  6
Continuous
 62
     7
370
    25
100
AcDbLine
 10
211.9253006329
 20
105.2360556044
 30
0.0
 11
211.9253006329
 21
107.0
 31
0.0
  0
SPLINE
  5
13C
330
1F
100
AcDbEntity
  8
0
  6
Continuous
 62
     7
370
    25
100
AcDbSpline
210
0.0
220
0.0
230
1.0
 70
     8
 71
     3
 72
    12
 73
     8
 74
     0
 42
0.00000001
 43
0.00000001
 40
0.0
 40
0.0
 40
0.0
 40
0.0
 40
0.208905381667215
 40
0.4279016438872648
 40
0.6521286980583545
 40
0.8320081998086416
 40
1.0
 40
1.0
 40
1.0
 40
1.0
 10
218.2227689873418
 20
99.71148746898734
 30
0.0
 10
217.8971995895005
 20
99.71956095100322
 30
0.0
 10
217.2303346220982
 20
99.73609789322516
 30
0.0
 10
216.2740244935485
 20
99.86248081186193
 30
0.0
 10
215.4861260446141
 20
100.0444087567107
 30
0.0
 10
214.9066730957432
 20
100.2551560382382
 30
0.0
 10
214.7115827177858
 20
100.398397189004
 30
0.0
 10
214.6173709112637
 20
100.4675702959673
 30
0.0
  0
LINE
  5
13D
330
1F
100
AcDbEntity
  8
0
  6
Continuous
 62
     7
370
    25
100
AcDbLine
 10
218.254414557
 20
99.711487469
 30
0.0
 11
218.2227689873
 21
99.711487469
 31
0.0
  0
LINE
  5
13E
330
1F
100
AcDbEntity
  8
0
  6
Continuous
 62
     7
370
    25
100
AcDbLine
 10
214.4569462025
 20
100.6506551598
 30
0.0
 11
214.4569462025
 21
74.9481416487
 31
0.0
  0
LINE
  5
13F
330
1F
100
AcDbEntity
  8
0
  6
Continuous
 62
     7
370
    25
100
AcDbLine
 10
211.9253006329
 20
103.1722873413
 30
0.0
 11
211.9253006329
 21
70.176140974
 31
0.0
  0
LINE
  5
140
330
1F
100
AcDbEntity
  8
0
  6
HIDDEN
 62
     7
370
    18
100
AcDbLine
 10
218.254414557
 20
10.8060233745
 30
0.0
 11
218.2227689873
 21
10.8060233745
 31
0.0
  0
SPLINE
  5
141
330
1F
100
AcDbEntity
  8
0
  6
HIDDEN
 62
     7
370
    18
100
AcDbSpline
210
0.0
220
0.0
230
1.0
 70
     8
 71
     3
 72
    18
 73
    14
 74
     0
 42
0.00000001
 43
0.00000001
 40
0.0
 40
0.0
 40
0.0
 40
0.0
 40
0.2500000000000004
 40
0.2500000000000004
 40
0.5000000000000008
 40
0.5000000000000008
 40
0.6250000000000008
 40
0.6250000000000008
 40
0.7500000000000007
 40
0.7500000000000007
 40
0.8750000000000003
 40
0.8750000000000003
 40
1.0
 40
1.0
 40
1.0
 40
1.0
 10
218.2227689873418
 20
10.80602337446203
 30
0.0
 10
217.4973839179858
 20
10.80602337446204
 30
0.0
 10
216.7722642764124
 20
10.75801824601842
 30
0.0
 10
215.3725937924089
 20
10.56698182280114
 30
0.0
 10
214.6974264468795
 20
10.42367294962263
 30
0.0
 10
213.785383069719
 20
10.14271283842746
 30
0.0
 10
213.4986307636986
 20
10.03813726761935
 30
0.0
 10
212.9777610319248
 20
9.810539148624509
 30
0.0
 10
212.7437588895158
 20
9.687492157803874
 30
0.0
 10
212.3520805400178
 20
9.429743699978108
 30
0.0
 10
212.1946541194012
 20
9.294929671209637
 30
0.0
 10
211.9810584640403
 20
9.025627708676119
 30
0.0
 10
211.9253006329114
 20
8.891267378631898
 30
0.0
 10
211.9253006329114
 20
8.763944395569622
 30
0.0
  0
LINE
  5
142
330
1F
100
AcDbEntity
  8
0
  6
HIDDEN
 62
     7
370
    18
100
AcDbLine
 10
218.254414557
 20
10.8060233745
 30
0.0
 11
218.254414557
 21
7.0
 31
0.0
  0
SPLINE
  5
143
330
1F
100
AcDbEntity
  8
0
  6
HIDDEN
 62
     7
370
    18
100
AcDbSpline
210
0.0
220
0.0
230
1.0
 70
     8
 71
     3
 72
    20
 73
    16
 74
     0
 42
0.00000001
 43
0.00000001
 40
0.0
 40
0.0
 40
0.0
 40
0.0
 40
0.1249999999999999
 40
0.1249999999999999
 40
0.2499999999999998
 40
0.2499999999999998
 40
0.3749999999999993
 40
0.3749999999999993
 40
0.4999999999999988
 40
0.4999999999999988
 40
0.7499999999999993
 40
0.7499999999999993
 40
0.8749999999999997
 40
0.8749999999999997
 40
1.0
 40
1.0
 40
1.0
 40
1.0
 10
211.9253006329114
 20
69.30883436084177
 30
0.0
 10
211.9253006329078
 20
69.81361466766568
 30
0.0
 10
211.9903365350897
 20
70.3103853601548
 30
0.0
 10
212.2297974544807
 20
71.24055700769104
 30
0.0
 10
212.4033559642826
 20
71.6736434911086
 30
0.0
 10
212.822797062234
 20
72.4557630702622
 30
0.0
 10
213.0683056914988
 20
72.80543447056661
 30
0.0
 10
213.602562935164
 20
73.42484307000471
 30
0.0
 10
213.8912486810847
 20
73.69472174892688
 30
0.0
 10
214.7952087766241
 20
74.39880199929864
 30
0.0
 10
215.4467864873022
 20
74.73012929823135
 30
0.0
 10
216.460286923286
 20
75.06293747520259
 30
0.0
 10
216.8047997586407
 20
75.1460640370382
 30
0.0
 10
217.5056886486096
 20
75.25786983531806
 30
0.0
 10
217.8639140441457
 20
75.28643342208052
 30
0.0
 10
218.2227689873418
 20
75.28643341775316
 30
0.0
  0
LINE
  5
144
330
1F
100
AcDbEntity
  8
0
  6
HIDDEN
 62
     7
370
    18
100
AcDbLine
 10
214.4569462025
 20
11.746835443
 30
0.0
 11
214.4569462025
 21
68.6567106861
 31
0.0
  0
LINE
  5
145
330
1F
100
AcDbEntity
  8
0
  6
HIDDEN
 62
     7
370
    18
100
AcDbLine
 10
218.254414557
 20
100.5472098767
 30
0.0
 11
219.2037816456
 21
99.9990925325
 31
0.0
  0
LINE
  5
146
330
1F
100
AcDbEntity
  8
0
  6
HIDDEN
 62
     7
370
    18
100
AcDbLine
 10
218.254414557
 20
89.4021572119
 30
0.0
 11
219.2037816456
 21
89.9502745561
 31
0.0
  0
LINE
  5
147
330
1F
100
AcDbEntity
  8
0
  6
HIDDEN
 62
     7
370
    18
100
AcDbLine
 10
227.748085443
 20
99.9990925325
 30
0.0
 11
227.748085443
 21
105.0235015207
 31
0.0
  0
LINE
  5
148
330
1F
100
AcDbEntity
  8
0
  6
HIDDEN
 62
     7
370
    18
100
AcDbLine
 10
219.2037816456
 20
99.9990925325
 30
0.0
 11
219.2037816456
 21
105.0235015207
 31
0.0
  0
LINE
  5
149
330
1F
100
AcDbEntity
  8
0
  6
HIDDEN
 62
     7
370
    18
100
AcDbLine
 10
219.2037816456
 20
99.9990925325
 30
0.0
 11
227.748085443
 21
99.9990925325
 31
0.0
  0
LINE
  5
14A
330
1F
100
AcDbEntity
  8
0
  6
HIDDEN
 62
     7
370
    18
100
AcDbLine
 10
227.748085443
 20
89.9502745561
 30
0.0
 11
227.748085443
 21
99.9990925325
 31
0.0
  0
LINE
  5
14B
330
1F
100
AcDbEntity
  8
0
  6
HIDDEN
 62
     7
370
    18
100
AcDbLine
 10
219.2037816456
 20
89.9502745561
 30
0.0
 11
219.2037816456
 21
99.9990925325
 31
0.0
  0
LINE
  5
14C
330
1F
100
AcDbEntity
  8
0
  6
HIDDEN
 62
     7
370
    18
100
AcDbLine
 10
219.2037816456
 20
89.9502745561
 30
0.0
 11
227.748085443
 21
89.9502745561
 31
0.0
  0
LINE
  5
14D
330
1F
100
AcDbEntity
  8
0
  6
HIDDEN
 62
     7
370
    18
100
AcDbLine
 10
227.748085443
 20
84.9258655679
 30
0.0
 11
227.748085443
 21
89.9502745561
 31
0.0
  0
LINE
  5
14E
330
1F
100
AcDbEntity
  8
0
  6
HIDDEN
 62
     7
370
    18
100
AcDbLine
 10
219.2037816456
 20
84.9258655679
 30
0.0
 11
219.2037816456
 21
89.9502745561
 31
0.0
  0
LINE
  5
14F
330
1F
100
AcDbEntity
  8
0
  6
HIDDEN
 62
     7
370
    18
100
AcDbLine
 10
218.2227689873
 20
71.9524952842
 30
0.0
 11
218.254414557
 21
71.9524952843
 31
0.0
  0
SPLINE
  5
150
330
1F
100
AcDbEntity
  8
0
  6
HIDDEN
 62
     7
370
    18
100
AcDbSpline
210
0.0
220
0.0
230
1.0
 70
     8
 71
     3
 72
    16
 73
    12
 74
     0
 42
0.00000001
 43
0.00000001
 40
0.0
 40
0.0
 40
0.0
 40
0.0
 40
0.2500000000000002
 40
0.2500000000000002
 40
0.5000000000000004
 40
0.5000000000000004
 40
0.7500000000000007
 40
0.7500000000000007
 40
0.8750000000000003
 40
0.8750000000000003
 40
1.0
 40
1.0
 40
1.0
 40
1.0
 10
218.2227689873418
 20
14.28851253101266
 30
0.0
 10
217.801214445674
 20
14.28851253101265
 30
0.0
 10
217.3566927582132
 20
14.26469960040996
 30
0.0
 10
216.495118214655
 20
14.168185371529
 30
0.0
 10
216.0788992280142
 20
14.0956964595484
 30
0.0
 10
215.3496947127958
 20
13.91048591020727
 30
0.0
 10
215.0359336552363
 20
13.79769655475005
 30
0.0
 10
214.7004510711075
 20
13.60962474729655
 30
0.0
 10
214.611227253948
 20
13.54378581081689
 30
0.0
 10
214.4893285193801
 20
13.40944697376493
 30
0.0
 10
214.4569462025316
 20
13.34103649080696
 30
0.0
 10
214.4569462025316
 20
13.27392655756329
 30
0.0
  0
LINE
  5
151
330
1F
100
AcDbEntity
  8
0
  6
HIDDEN
 62
     7
370
    18
100
AcDbLine
 10
218.254414557
 20
14.288512531
 30
0.0
 11
218.2227689873
 21
14.288512531
 31
0.0
  0
SPLINE
  5
152
330
1F
100
AcDbEntity
  8
0
  6
HIDDEN
 62
     7
370
    18
100
AcDbSpline
210
0.0
220
0.0
230
1.0
 70
     8
 71
     3
 72
    28
 73
    24
 74
     0
 42
0.00000001
 43
0.00000001
 40
0.0
 40
0.0
 40
0.0
 40
0.0
 40
0.125
 40
0.125
 40
0.2499999999999999
 40
0.2499999999999999
 40
0.4999999999999987
 40
0.4999999999999987
 40
0.749999999999997
 40
0.749999999999997
 40
0.8749999999999967
 40
0.8749999999999967
 40
0.9374999999999967
 40
0.9374999999999967
 40
0.945312499999997
 40
0.945312499999997
 40
0.9492187499999972
 40
0.9492187499999972
 40
0.9531249999999974
 40
0.9531249999999974
 40
0.9687499999999982
 40
0.9687499999999982
 40
1.0
 40
1.0
 40
1.0
 40
1.0
 10
214.4569462025316
 20
68.65671068609811
 30
0.0
 10
214.4569462025281
 20
68.94280988568329
 30
0.0
 10
214.4922927488734
 20
69.222259380527
 30
0.0
 10
214.6224910157737
 20
69.74540213691233
 30
0.0
 10
214.7169653116308
 20
69.98900443275127
 30
0.0
 10
215.0625911824143
 20
70.65101110426345
 30
0.0
 10
215.3729484373721
 20
70.99994009778379
 30
0.0
 10
216.0577739880769
 20
71.52858753728641
 30
0.0
 10
216.4335519441236
 20
71.71054338575789
 30
0.0
 10
217.0178139512813
 20
71.87702310296811
 30
0.0
 10
217.2160216104202
 20
71.91462017657808
 30
0.0
 10
217.5178771017737
 20
71.94498191591356
 30
0.0
 10
217.6193116264554
 20
71.9507504849451
 30
0.0
 10
217.7346800105853
 20
71.95233211828455
 30
0.0
 10
217.7475164450737
 20
71.95243962174513
 30
0.0
 10
217.7667989477498
 20
71.95249840942883
 30
0.0
 10
217.7741091622783
 20
71.95249587499326
 30
0.0
 10
217.7970459631125
 20
71.95249497424801
 30
0.0
 10
217.8081484954903
 20
71.95249532357832
 30
0.0
 10
217.8639732047161
 20
71.9524952563602
 30
0.0
 10
217.9090663200749
 20
71.95249524349998
 30
0.0
 10
218.0432046371033
 20
71.95249535470101
 30
0.0
 10
218.1330550593333
 20
71.95249528404993
 30
0.0
 10
218.2227689873418
 20
71.95249528424368
 30
0.0
  0
LINE
  5
153
330
1F
100
AcDbEntity
  8
0
  6
HIDDEN
 62
     7
370
    18
100
AcDbLine
 10
218.254414557
 20
11.746835443
 30
0.0
 11
218.254414557
 21
57.0
 31
0.0
  0
LINE
  5
154
330
1F
100
AcDbEntity
  8
0
  6
HIDDEN
 62
     7
370
    18
100
AcDbLine
 10
218.2227689873
 20
75.2864334179
 30
0.0
 11
218.254414557
 21
75.2864334177
 31
0.0
  0
LINE
  5
155
330
1F
100
AcDbEntity
  8
0
  6
HIDDEN
 62
     7
370
    18
100
AcDbLine
 10
219.2037816456
 20
105.0235015207
 30
0.0
 11
227.748085443
 21
105.0235015207
 31
0.0
  0
LINE
  5
156
330
1F
100
AcDbEntity
  8
0
  6
HIDDEN
 62
     7
370
    18
100
AcDbLine
 10
219.2037816456
 20
84.9258655679
 30
0.0
 11
227.748085443
 21
84.9258655679
 31
0.0
  0
LINE
  5
157
330
1F
100
AcDbEntity
  8
0
  6
HIDDEN
 62
     7
370
    18
100
AcDbLine
 10
218.254414557
 20
83.8296308796
 30
0.0
 11
219.2037816456
 21
84.9258655679
 31
0.0
  0
LINE
  5
158
330
1F
100
AcDbEntity
  8
0
  6
HIDDEN
 62
     7
370
    18
100
AcDbLine
 10
218.254414557
 20
106.119736209
 30
0.0
 11
219.2037816456
 21
105.0235015207
 31
0.0
  0
SPLINE
  5
159
330
1F
100
AcDbEntity
  8
0
  6
HIDDEN
 62
     7
370
    18
100
AcDbSpline
210
0.0
220
0.0
230
1.0
 70
     8
 71
     3
 72
    18
 73
    14
 74
     0
 42
0.00000001
 43
0.00000001
 40
0.0
 40
0.0
 40
0.0
 40
0.0
 40
0.2500000000000006
 40
0.2500000000000006
 40
0.5000000000000011
 40
0.5000000000000011
 40
0.625000000000001
 40
0.625000000000001
 40
0.750000000000001
 40
0.750000000000001
 40
0.8750000000000004
 40
0.8750000000000004
 40
1.0
 40
1.0
 40
1.0
 40
1.0
 10
218.2227689873418
 20
37.86582838174683
 30
0.0
 10
217.4973839179858
 20
37.86582838174683
 30
0.0
 10
216.7722642764124
 20
37.98043710838547
 30
0.0
 10
215.3725937924089
 20
38.45169900510989
 30
0.0
 10
214.6974264468807
 20
38.80863294514864
 30
0.0
 10
213.7853830697179
 20
39.55108431410344
 30
0.0
 10
213.4986307636977
 20
39.83324450237956
 30
0.0
 10
212.9777610319247
 20
40.46915518604208
 30
0.0
 10
212.7437588895158
 20
40.82306756426608
 30
0.0
 10
212.3520805400178
 20
41.5974918473118
 30
0.0
 10
212.1946541194012
 20
42.01865422076387
 30
0.0
 10
211.9810584640403
 20
42.90482153025834
 30
0.0
 10
211.9253006329114
 20
43.36974952139264
 30
0.0
 10
211.9253006329114
 20
43.83630220168354
 30
0.0
  0
LINE
  5
15A
330
1F
100
AcDbEntity
  8
0
  6
HIDDEN
 62
     7
370
    18
100
AcDbLine
 10
218.254414557
 20
37.8658283817
 30
0.0
 11
218.2227689873
 21
37.8658283817
 31
0.0
  0
LINE
  5
15B
330
1F
100
AcDbEntity
  8
0
  6
HIDDEN
 62
     7
370
    18
100
AcDbLine
 10
214.5751303443
 20
100.5060297357
 30
0.0
 11
214.4569462025
 21
100.7260734425
 31
0.0
  0
LINE
  5
15C
330
1F
100
AcDbEntity
  8
0
  6
HIDDEN
 62
     7
370
    18
100
AcDbLine
 10
218.2227689873
 20
42.0474838035
 30
0.0
 11
218.254414557
 21
42.0474838035
 31
0.0
  0
SPLINE
  5
15D
330
1F
100
AcDbEntity
  8
0
  6
HIDDEN
 62
     7
370
    18
100
AcDbSpline
210
0.0
220
0.0
230
1.0
 70
     8
 71
     3
 72
    16
 73
    12
 74
     0
 42
0.00000001
 43
0.00000001
 40
0.0
 40
0.0
 40
0.0
 40
0.0
 40
0.1250000000000002
 40
0.1250000000000002
 40
0.2500000000000004
 40
0.2500000000000004
 40
0.5000000000000003
 40
0.5000000000000003
 40
0.7500000000000002
 40
0.7500000000000002
 40
1.0
 40
1.0
 40
1.0
 40
1.0
 10
214.4569462025316
 20
45.3432678797152
 30
0.0
 10
214.4569462025316
 20
45.09152889835126
 30
0.0
 10
214.4893327482312
 20
44.84384053372266
 30
0.0
 10
214.6111914823364
 20
44.37213011619385
 30
0.0
 10
214.7003978844558
 20
44.14825230726634
 30
0.0
 10
215.0360414606538
 20
43.52410863055846
 30
0.0
 10
215.3497800900682
 20
43.17130097276905
 30
0.0
 10
216.0788374055863
 20
42.60706733471334
 30
0.0
 10
216.495132530666
 20
42.39497144980739
 30
0.0
 10
217.3566707788673
 20
42.1149557407069
 30
0.0
 10
217.801214445674
 20
42.04748380352215
 30
0.0
 10
218.2227689873418
 20
42.04748380352216
 30
0.0
  0
LINE
  5
15E
330
1F
100
AcDbEntity
  8
0
  6
HIDDEN
 62
     7
370
    18
100
AcDbLine
 10
214.4569462025
 20
100.7260734425
 30
0.0
 11
214.4569462025
 21
102.253164557
 31
0.0
  0
LINE
  5
15F
330
1F
100
AcDbEntity
  8
0
  6
HIDDEN
 62
     7
370
    18
100
AcDbLine
 10
214.4569462025
 20
100.7260734425
 30
0.0
 11
214.4569462025
 21
100.6506551598
 31
0.0
  0
LINE
  5
160
330
1F
100
AcDbEntity
  8
0
  6
HIDDEN
 62
     7
370
    18
100
AcDbLine
 10
214.4569462025
 20
74.9481416487
 30
0.0
 11
214.4569462025
 21
68.6567106861
 31
0.0
  0
SPLINE
  5
161
330
1F
100
AcDbEntity
  8
0
  6
HIDDEN
 62
     7
370
    18
100
AcDbSpline
210
0.0
220
0.0
230
1.0
 70
     8
 71
     3
 72
    16
 73
    12
 74
     0
 42
0.00000001
 43
0.00000001
 40
0.0
 40
0.0
 40
0.0
 40
0.0
 40
0.2500000000000001
 40
0.2500000000000001
 40
0.5000000000000002
 40
0.5000000000000002
 40
0.7500000000000003
 40
0.7500000000000003
 40
0.8750000000000001
 40
0.8750000000000001
 40
1.0
 40
1.0
 40
1.0
 40
1.0
 10
218.2227689873418
 20
12.85259195911392
 30
0.0
 10
217.5180344455665
 20
12.85259195911392
 30
0.0
 10
216.7998324038383
 20
12.8069683734837
 30
0.0
 10
215.4005758290946
 20
12.61884742975414
 30
0.0
 10
214.7200920392127
 20
12.47619581419816
 30
0.0
 10
213.4967829587891
 20
12.10341910425098
 30
0.0
 10
212.9526322826076
 20
11.87233981822149
 30
0.0
 10
212.3604675381729
 20
11.48949384464754
 30
0.0
 10
212.2011556476214
 20
11.35615842820271
 30
0.0
 10
211.9832977525952
 20
11.0888584379713
 30
0.0
 10
211.9253006329114
 20
10.95512186208859
 30
0.0
 10
211.9253006329114
 20
10.82771265867089
 30
0.0
  0
LINE
  5
162
330
1F
100
AcDbEntity
  8
0
  6
HIDDEN
 62
     7
370
    18
100
AcDbLine
 10
218.254414557
 20
12.8525919591
 30
0.0
 11
218.2227689873
 21
12.8525919591
 31
0.0
  0
LINE
  5
163
330
1F
100
AcDbEntity
  8
0
  6
HIDDEN
 62
     7
370
    18
100
AcDbLine
 10
218.254414557
 20
11.746835443
 30
0.0
 11
218.254414557
 21
10.8060233745
 31
0.0
  0
LINE
  5
164
330
1F
100
AcDbEntity
  8
0
  6
HIDDEN
 62
     7
370
    18
100
AcDbLine
 10
218.254414557
 20
13.4527901234
 30
0.0
 11
219.2037816456
 21
14.0009074675
 31
0.0
  0
LINE
  5
165
330
1F
100
AcDbEntity
  8
0
  6
HIDDEN
 62
     7
370
    18
100
AcDbLine
 10
218.254414557
 20
24.5978427881
 30
0.0
 11
219.2037816456
 21
24.0497254439
 31
0.0
  0
LINE
  5
166
330
1F
100
AcDbEntity
  8
0
  6
HIDDEN
 62
     7
370
    18
100
AcDbLine
 10
219.2037816456
 20
14.0009074675
 30
0.0
 11
219.2037816456
 21
24.0497254439
 31
0.0
  0
LINE
  5
167
330
1F
100
AcDbEntity
  8
0
  6
HIDDEN
 62
     7
370
    18
100
AcDbLine
 10
219.2037816456
 20
24.0497254439
 30
0.0
 11
227.748085443
 21
24.0497254439
 31
0.0
  0
LINE
  5
168
330
1F
100
AcDbEntity
  8
0
  6
HIDDEN
 62
     7
370
    18
100
AcDbLine
 10
219.2037816456
 20
24.0497254439
 30
0.0
 11
219.2037816456
 21
29.0741344321
 31
0.0
  0
LINE
  5
169
330
1F
100
AcDbEntity
  8
0
  6
HIDDEN
 62
     7
370
    18
100
AcDbLine
 10
219.2037816456
 20
14.0009074675
 30
0.0
 11
227.748085443
 21
14.0009074675
 31
0.0
  0
LINE
  5
16A
330
1F
100
AcDbEntity
  8
0
  6
HIDDEN
 62
     7
370
    18
100
AcDbLine
 10
219.2037816456
 20
8.9764984793
 30
0.0
 11
219.2037816456
 21
14.0009074675
 31
0.0
  0
LINE
  5
16B
330
1F
100
AcDbEntity
  8
0
  6
HIDDEN
 62
     7
370
    18
100
AcDbLine
 10
227.748085443
 20
8.9764984793
 30
0.0
 11
227.748085443
 21
14.0009074675
 31
0.0
  0
LINE
  5
16C
330
1F
100
AcDbEntity
  8
0
  6
HIDDEN
 62
     7
370
    18
100
AcDbLine
 10
227.748085443
 20
24.0497254439
 30
0.0
 11
227.748085443
 21
29.0741344321
 31
0.0
  0
LINE
  5
16D
330
1F
100
AcDbEntity
  8
0
  6
HIDDEN
 62
     7
370
    18
100
AcDbLine
 10
227.748085443
 20
14.0009074675
 30
0.0
 11
227.748085443
 21
24.0497254439
 31
0.0
  0
LINE
  5
16E
330
1F
100
AcDbEntity
  8
0
  6
HIDDEN
 62
     7
370
    18
100
AcDbLine
 10
219.2037816456
 20
8.9764984793
 30
0.0
 11
227.748085443
 21
8.9764984793
 31
0.0
  0
LINE
  5
16F
330
1F
100
AcDbEntity
  8
0
  6
HIDDEN
 62
     7
370
    18
100
AcDbLine
 10
219.2037816456
 20
29.0741344321
 30
0.0
 11
227.748085443
 21
29.0741344321
 31
0.0
  0
LINE
  5
170
330
1F
100
AcDbEntity
  8
0
  6
HIDDEN
 62
     7
370
    18
100
AcDbLine
 10
218.254414557
 20
7.880263791
 30
0.0
 11
219.2037816456
 21
8.9764984793
 31
0.0
  0
LINE
  5
171
330
1F
100
AcDbEntity
  8
0
  6
HIDDEN
 62
     7
370
    18
100
AcDbLine
 10
218.254414557
 20
30.1703691204
 30
0.0
 11
219.2037816456
 21
29.0741344321
 31
0.0
  0
SPLINE
  5
172
330
1F
100
AcDbEntity
  8
0
  6
HIDDEN
 62
     7
370
    18
100
AcDbSpline
210
0.0
220
0.0
230
1.0
 70
     8
 71
     3
 72
    16
 73
    12
 74
     0
 42
0.00000001
 43
0.00000001
 40
0.0
 40
0.0
 40
0.0
 40
0.0
 40
0.1250000000000001
 40
0.1250000000000001
 40
0.2500000000000002
 40
0.2500000000000002
 40
0.5000000000000001
 40
0.5000000000000001
 40
0.75
 40
0.75
 40
1.0
 40
1.0
 40
1.0
 40
1.0
 10
211.9253006329114
 20
44.69114300585443
 30
0.0
 10
211.9253006329114
 20
44.21321281683545
 30
0.0
 10
211.9832732334054
 20
43.74218867113697
 30
0.0
 10
212.2011080476122
 20
42.84934858198464
 30
0.0
 10
212.3604717453971
 20
42.42783231078248
 30
0.0
 10
212.9527107351551
 20
41.26622826318687
 30
0.0
 10
213.4967741581035
 20
40.63047017880628
 30
0.0
 10
214.7200910471653
 20
39.64213970316883
 30
0.0
 10
215.4005724868257
 20
39.28669546529645
 30
0.0
 10
216.7998330524231
 20
38.82235078123173
 30
0.0
 10
217.5180344455665
 20
38.71354484584494
 30
0.0
 10
218.2227689873418
 20
38.71354484584494
 30
0.0
  0
LINE
  5
173
330
1F
100
AcDbEntity
  8
0
  6
HIDDEN
 62
     7
370
    18
100
AcDbLine
 10
218.2227689873
 20
38.7135448458
 30
0.0
 11
218.254414557
 21
38.7135448458
 31
0.0
  0
LINE
  5
174
330
1F
100
AcDbEntity
  8
0
  6
HIDDEN
 62
     7
370
    18
100
AcDbLine
 10
211.9253006329
 20
9.2151898734
 30
0.0
 11
214.4569462025
 21
11.746835443
 31
0.0
  0
LINE
  5
175
330
1F
100
AcDbEntity
  8
0
  6
HIDDEN
 62
     7
370
    18
100
AcDbLine
 10
214.4569462025
 20
11.746835443
 30
0.0
 11
218.254414557
 21
11.746835443
 31
0.0
  0
LINE
  5
176
330
1F
100
AcDbEntity
  8
0
  6
HIDDEN
 62
     7
370
    18
100
AcDbLine
 10
234.0771993671
 20
99.246835443
 30
0.0
 11
227.748085443
 21
99.246835443
 31
0.0
  0
LINE
  5
177
330
1F
100
AcDbEntity
  8
0
  6
HIDDEN
 62
     7
370
    18
100
AcDbLine
 10
227.748085443
 20
90.7025316456
 30
0.0
 11
234.0771993671
 21
90.7025316456
 31
0.0
  0
LINE
  5
178
330
1F
100
AcDbEntity
  8
0
  6
HIDDEN
 62
     7
370
    18
100
AcDbLine
 10
234.0771993671
 20
95.2911392405
 30
0.0
 11
218.254414557
 21
95.2911392405
 31
0.0
  0
LINE
  5
179
330
1F
100
AcDbEntity
  8
0
  6
HIDDEN
 62
     7
370
    18
100
AcDbLine
 10
218.254414557
 20
18.7088607595
 30
0.0
 11
234.0771993671
 21
18.7088607595
 31
0.0
  0
LINE
  5
17A
330
1F
100
AcDbEntity
  8
0
  6
HIDDEN
 62
     7
370
    18
100
AcDbLine
 10
218.254414557
 20
102.253164557
 30
0.0
 11
214.4569462025
 21
102.253164557
 31
0.0
  0
LINE
  5
17B
330
1F
100
AcDbEntity
  8
0
  6
HIDDEN
 62
     7
370
    18
100
AcDbLine
 10
214.4569462025
 20
102.253164557
 30
0.0
 11
211.9253006329
 21
104.7848101266
 31
0.0
  0
LINE
  5
17C
330
1F
100
AcDbEntity
  8
0
  6
HIDDEN
 62
     7
370
    18
100
AcDbLine
 10
214.6783588643
 20
13.5879618111
 30
0.0
 11
214.6173597668
 21
13.5324231165
 31
0.0
  0
LINE
  5
17D
330
1F
100
AcDbEntity
  8
0
  6
HIDDEN
 62
     7
370
    18
100
AcDbLine
 10
214.5751125674
 20
13.4939577228
 30
0.0
 11
212.3613167786
 21
11.4783323574
 31
0.0
  0
LINE
  5
17E
330
1F
100
AcDbEntity
  8
0
  6
HIDDEN
 62
     7
370
    18
100
AcDbLine
 10
234.0771993671
 20
23.2974683544
 30
0.0
 11
227.748085443
 21
23.2974683544
 31
0.0
  0
LINE
  5
17F
330
1F
100
AcDbEntity
  8
0
  6
HIDDEN
 62
     7
370
    18
100
AcDbLine
 10
227.748085443
 20
14.753164557
 30
0.0
 11
234.0771993671
 21
14.753164557
 31
0.0
  0
ENDSEC
  0
SECTION
  2
OBJECTS
  0
DICTIONARY
  5
C
330
0
100
AcDbDictionary
281
     1
  3
ACAD_GROUP
350
D
  3
ACAD_LAYOUT
350
1A
  3
ACAD_MLINESTYLE
350
17
  3
ACAD_PLOTSETTINGS
350
19
  3
ACAD_PLOTSTYLENAME
350
E
  3
ACAD_SCALELIST
350
47
  3
DWGPROPS
350
180
  0
DICTIONARY
  5
D
102
{ACAD_REACTORS
330
C
102
}
330
C
100
AcDbDictionary
281
     1
  0
DICTIONARY
  5
1A
102
{ACAD_REACTORS
330
C
102
}
330
C
100
AcDbDictionary
281
     1
  3
Layout1
350
1E
  3
Layout2
350
26
  3
Model
350
22
  0
DICTIONARY
  5
17
102
{ACAD_REACTORS
330
C
102
}
330
C
100
AcDbDictionary
281
     1
  3
Standard
350
18
  0
DICTIONARY
  5
19
102
{ACAD_REACTORS
330
C
102
}
330
C
100
AcDbDictionary
281
     1
  0
ACDBDICTIONARYWDFLT
  5
E
102
{ACAD_REACTORS
330
C
102
}
330
C
100
AcDbDictionary
281
     1
  3
Normal
350
F
100
AcDbDictionaryWithDefault
340
F
  0
DICTIONARY
  5
47
102
{ACAD_REACTORS
330
C
102
}
330
C
100
AcDbDictionary
281
     1
  3
A0
350
48
  3
A1
350
49
  3
A2
350
4A
  3
A3
350
4B
  3
A4
350
4C
  3
A5
350
4D
  3
A6
350
4E
  3
A7
350
4F
  3
A8
350
50
  3
A9
350
51
  3
B0
350
52
  3
B1
350
53
  3
B2
350
54
  3
B3
350
55
  3
B4
350
56
  3
B5
350
57
  3
B6
350
58
  0
XRECORD
  5
180
102
{ACAD_REACTORS
330
C
102
}
330
C
100
AcDbXrecord
280
     1
  1
DWGPROPS COOKIE
  2

  3

  4

  6

  7

  8

  9

300
=
301
=
302
=
303
=
304
=
305
=
306
=
307
=
308
=
309
=
 40
0.0
 41
2461214.150722697
 42
2461214.15072301
  1

 90
        0
  0
LAYOUT
  5
1E
102
{ACAD_REACTORS
330
1A
102
}
330
1A
100
AcDbPlotSettings
  1

  2
none_device
  4

  6

 40
0.0
 41
0.0
 42
0.0
 43
0.0
 44
0.0
 45
0.0
 46
0.0
 47
0.0
 48
0.0
 49
0.0
140
0.0
141
0.0
142
1.0
143
1.0
 70
   688
 72
     1
 73
     0
 74
     5
  7

 75
    16
147
1.0
148
0.0
149
0.0
100
AcDbLayout
  1
Layout1
 70
     1
 71
     1
 10
0.0
 20
0.0
 11
420.0
 21
297.0
 12
0.0
 22
0.0
 32
0.0
 14
1.0000000000E+20
 24
1.0000000000E+20
 34
1.0000000000E+20
 15
-1.0000000000E+20
 25
-1.0000000000E+20
 35
-1.0000000000E+20
146
0.0
 13
0.0
 23
0.0
 33
0.0
 16
1.0
 26
0.0
 36
0.0
 17
0.0
 27
1.0
 37
0.0
 76
     0
330
1B
  0
LAYOUT
  5
26
102
{ACAD_REACTORS
330
1A
102
}
330
1A
100
AcDbPlotSettings
  1

  2
none_device
  4

  6

 40
0.0
 41
0.0
 42
0.0
 43
0.0
 44
0.0
 45
0.0
 46
0.0
 47
0.0
 48
0.0
 49
0.0
140
0.0
141
0.0
142
1.0
143
1.0
 70
   688
 72
     1
 73
     0
 74
     5
  7

 75
    16
147
1.0
148
0.0
149
0.0
100
AcDbLayout
  1
Layout2
 70
     1
 71
     2
 10
0.0
 20
0.0
 11
0.0
 21
0.0
 12
0.0
 22
0.0
 32
0.0
 14
0.0
 24
0.0
 34
0.0
 15
0.0
 25
0.0
 35
0.0
146
0.0
 13
0.0
 23
0.0
 33
0.0
 16
1.0
 26
0.0
 36
0.0
 17
0.0
 27
1.0
 37
0.0
 76
     0
330
23
  0
LAYOUT
  5
22
102
{ACAD_REACTORS
330
1A
102
}
330
1A
100
AcDbPlotSettings
  1

  2
none_device
  4
Letter_(8.50_x_11.00_Inches)
  6

 40
6.35
 41
6.35
 42
6.35000508
 43
6.35000508
 44
215.9
 45
279.4
 46
0.0
 47
0.0
 48
0.0
 49
0.0
140
0.0
141
0.0
142
1.0
143
1.0
 70
  1712
 72
     1
 73
     0
 74
     0
  7

 75
     0
147
1.0
148
0.0
149
0.0
100
AcDbLayout
  1
Model
 70
     1
 71
     0
 10
0.0
 20
0.0
 11
297.0
 21
210.0
 12
0.0
 22
0.0
 32
0.0
 14
0.0
 24
0.0
 34
0.0
 15
297.0
 25
210.0
 35
0.0
146
0.0
 13
0.0
 23
0.0
 33
0.0
 16
1.0
 26
0.0
 36
0.0
 17
0.0
 27
1.0
 37
0.0
 76
     0
330
1F
331
29
  0
MLINESTYLE
  5
18
102
{ACAD_REACTORS
330
17
102
}
330
17
100
AcDbMlineStyle
  2
Standard
 70
     0
  3

 62
   256
 51
90.0
 52
90.0
 71
     2
 49
0.5
 62
   256
  6
BYLAYER
 49
-0.5
 62
   256
  6
BYLAYER
  0
ACDBPLACEHOLDER
  5
F
102
{ACAD_REACTORS
330
E
102
}
330
E
  0
SCALE
  5
48
102
{ACAD_REACTORS
330
47
102
}
330
47
100
AcDbScale
 70
     0
300
1:1
140
1.0
141
1.0
290
     1
  0
SCALE
  5
49
102
{ACAD_REACTORS
330
47
102
}
330
47
100
AcDbScale
 70
     0
300
1:2
140
1.0
141
2.0
290
     0
  0
SCALE
  5
4A
102
{ACAD_REACTORS
330
47
102
}
330
47
100
AcDbScale
 70
     0
300
1:4
140
1.0
141
4.0
290
     0
  0
SCALE
  5
4B
102
{ACAD_REACTORS
330
47
102
}
330
47
100
AcDbScale
 70
     0
300
1:5
140
1.0
141
5.0
290
     0
  0
SCALE
  5
4C
102
{ACAD_REACTORS
330
47
102
}
330
47
100
AcDbScale
 70
     0
300
1:8
140
1.0
141
8.0
290
     0
  0
SCALE
  5
4D
102
{ACAD_REACTORS
330
47
102
}
330
47
100
AcDbScale
 70
     0
300
1:10
140
1.0
141
10.0
290
     0
  0
SCALE
  5
4E
102
{ACAD_REACTORS
330
47
102
}
330
47
100
AcDbScale
 70
     0
300
1:16
140
1.0
141
16.0
290
     0
  0
SCALE
  5
4F
102
{ACAD_REACTORS
330
47
102
}
330
47
100
AcDbScale
 70
     0
300
1:20
140
1.0
141
20.0
290
     0
  0
SCALE
  5
50
102
{ACAD_REACTORS
330
47
102
}
330
47
100
AcDbScale
 70
     0
300
1:30
140
1.0
141
30.0
290
     0
  0
SCALE
  5
51
102
{ACAD_REACTORS
330
47
102
}
330
47
100
AcDbScale
 70
     0
300
1:40
140
1.0
141
40.0
290
     0
  0
SCALE
  5
52
102
{ACAD_REACTORS
330
47
102
}
330
47
100
AcDbScale
 70
     0
300
1:50
140
1.0
141
50.0
290
     0
  0
SCALE
  5
53
102
{ACAD_REACTORS
330
47
102
}
330
47
100
AcDbScale
 70
     0
300
1:100
140
1.0
141
100.0
290
     0
  0
SCALE
  5
54
102
{ACAD_REACTORS
330
47
102
}
330
47
100
AcDbScale
 70
     0
300
2:1
140
2.0
141
1.0
290
     0
  0
SCALE
  5
55
102
{ACAD_REACTORS
330
47
102
}
330
47
100
AcDbScale
 70
     0
300
4:1
140
4.0
141
1.0
290
     0
  0
SCALE
  5
56
102
{ACAD_REACTORS
330
47
102
}
330
47
100
AcDbScale
 70
     0
300
8:1
140
8.0
141
1.0
290
     0
  0
SCALE
  5
57
102
{ACAD_REACTORS
330
47
102
}
330
47
100
AcDbScale
 70
     0
300
10:1
140
10.0
141
1.0
290
     0
  0
SCALE
  5
58
102
{ACAD_REACTORS
330
47
102
}
330
47
100
AcDbScale
 70
     0
300
100:1
140
100.0
141
1.0
290
     0
  0
ENDSEC
  0
EOF
