  0
SECTION
  2
HEADER
  9
$ACADVER
  1
AC1015
  9
$ACADMAINTVER
 70
     6
  9
$DWGCODEPAGE
  3
ANSI_936
  9
$INSBASE
 10
0.0
 20
0.0
 30
0.0
  9
$EXTMIN
 10
0.0
 20
0.0
 30
0.0
  9
$EXTMAX
 10
297.0
 20
210.0
 30
0.0
  9
$LIMMIN
 10
0.0
 20
0.0
  9
$LIMMAX
 10
297.0
 20
210.0
  9
$ORTHOMODE
 70
     0
  9
$REGENMODE
 70
     1
  9
$FILLMODE
 70
     1
  9
$QTEXTMODE
 70
     0
  9
$MIRRTEXT
 70
     1
  9
$LTSCALE
 40
1.0
  9
$ATTMODE
 70
     1
  9
$TEXTSIZE
 40
3.5
  9
$TRACEWID
 40
1.0
  9
$TEXTSTYLE
  7
Standard
  9
$CLAYER
  8
0
  9
$CELTYPE
  6
ByLayer
  9
$CECOLOR
 62
   256
  9
$CELTSCALE
 40
1.0
  9
$DISPSILH
 70
     0
  9
$DIMSCALE
 40
1.0
  9
$DIMASZ
 40
4.08
  9
$DIMEXO
 40
0.0
  9
$DIMDLI
 40
3.75
  9
$DIMRND
 40
0.0
  9
$DIMDLE
 40
0.0
  9
$DIMEXE
 40
2.0
  9
$DIMTP
 40
0.0
  9
$DIMTM
 40
0.0
  9
$DIMTXT
 40
3.5
  9
$DIMCEN
 40
2.5
  9
$DIMTSZ
 40
0.0
  9
$DIMTOL
 70
     0
  9
$DIMLIM
 70
     0
  9
$DIMTIH
 70
     1
  9
$DIMTOH
 70
     1
  9
$DIMSE1
 70
     0
  9
$DIMSE2
 70
     0
  9
$DIMTAD
 70
     1
  9
$DIMZIN
 70
     0
  9
$DIMBLK
  1

  9
$DIMASO
 70
     1
  9
$DIMSHO
 70
     1
  9
$DIMPOST
  1

  9
$DIMAPOST
  1

  9
$DIMALT
 70
     0
  9
$DIMALTD
 70
     3
  9
$DIMALTF
 40
0.0393700787
  9
$DIMLFAC
 40
2.0
  9
$DIMTOFL
 70
     1
  9
$DIMTVP
 40
0.0
  9
$DIMTIX
 70
     0
  9
$DIMSOXD
 70
     0
  9
$DIMSAH
 70
     0
  9
$DIMBLK1
  1

  9
$DIMBLK2
  1

  9
$DIMSTYLE
  2
ISO-25
  9
$DIMCLRD
 70
     0
  9
$DIMCLRE
 70
     0
  9
$DIMCLRT
 70
     0
  9
$DIMTFAC
 40
1.0
  9
$DIMGAP
 40
1.524
  9
$DIMJUST
 70
     0
  9
$DIMSD1
 70
     0
  9
$DIMSD2
 70
     0
  9
$DIMTOLJ
 70
     0
  9
$DIMTZIN
 70
     0
  9
$DIMALTZ
 70
     0
  9
$DIMALTTZ
 70
     0
  9
$DIMUPT
 70
     0
  9
$DIMDEC
 70
     2
  9
$DIMTDEC
 70
     2
  9
$DIMALTU
 70
     2
  9
$DIMALTTD
 70
     3
  9
$DIMTXSTY
  7
Standard
  9
$DIMAUNIT
 70
     0
  9
$DIMADEC
 70
     2
  9
$DIMALTRND
 40
0.0
  9
$DIMAZIN
 70
     0
  9
$DIMDSEP
 70
    44
  9
$DIMATFIT
 70
     3
  9
$DIMFRAC
 70
     0
  9
$DIMLDRBLK
  1

  9
$DIMLUNIT
 70
     2
  9
$DIMLWD
 70
    -2
  9
$DIMLWE
 70
    -2
  9
$DIMTMOVE
 70
     0
  9
$LUNITS
 70
     2
  9
$LUPREC
 70
     2
  9
$SKETCHINC
 40
1.0
  9
$FILLETRAD
 40
0.0
  9
$AUNITS
 70
     0
  9
$AUPREC
 70
     2
  9
$MENU
  1
.
  9
$ELEVATION
 40
0.0
  9
$PELEVATION
 40
0.0
  9
$THICKNESS
 40
0.0
  9
$LIMCHECK
 70
     0
  9
$CHAMFERA
 40
0.0
  9
$CHAMFERB
 40
0.0
  9
$CHAMFERC
 40
0.0
  9
$CHAMFERD
 40
0.0
  9
$SKPOLY
 70
     0
  9
$TDCREATE
 40
2461214.809294954
  9
$TDUCREATE
 40
2461214.475961621
  9
$TDUPDATE
 40
2461214.809295348
  9
$TDUUPDATE
 40
2461214.475962014
  9
$TDINDWG
 40
0.0000000116
  9
$TDUSRTIMER
 40
0.0000000116
  9
$USRTIMER
 70
     1
  9
$ANGBASE
 50
0.0
  9
$ANGDIR
 70
     0
  9
$PDMODE
 70
     0
  9
$PDSIZE
 40
-1.0
  9
$PLINEWID
 40
0.0
  9
$SPLFRAME
 70
     0
  9
$SPLINETYPE
 70
     6
  9
$SPLINESEGS
 70
     8
  9
$HANDSEED
  5
1A6
  9
$SURFTAB1
 70
     6
  9
$SURFTAB2
 70
     6
  9
$SURFTYPE
 70
     6
  9
$SURFU
 70
     6
  9
$SURFV
 70
     6
  9
$UCSBASE
  2

  9
$UCSNAME
  2

  9
$UCSORG
 10
0.0
 20
0.0
 30
0.0
  9
$UCSXDIR
 10
1.0
 20
0.0
 30
0.0
  9
$UCSYDIR
 10
0.0
 20
1.0
 30
0.0
  9
$UCSORTHOREF
  2

  9
$UCSORTHOVIEW
 70
     0
  9
$UCSORGTOP
 10
0.0
 20
0.0
 30
0.0
  9
$UCSORGBOTTOM
 10
0.0
 20
0.0
 30
0.0
  9
$UCSORGLEFT
 10
0.0
 20
0.0
 30
0.0
  9
$UCSORGRIGHT
 10
0.0
 20
0.0
 30
0.0
  9
$UCSORGFRONT
 10
0.0
 20
0.0
 30
0.0
  9
$UCSORGBACK
 10
0.0
 20
0.0
 30
0.0
  9
$PUCSBASE
  2

  9
$PUCSNAME
  2

  9
$PUCSORG
 10
0.0
 20
0.0
 30
0.0
  9
$PUCSXDIR
 10
1.0
 20
0.0
 30
0.0
  9
$PUCSYDIR
 10
0.0
 20
1.0
 30
0.0
  9
$PUCSORTHOREF
  2

  9
$PUCSORTHOVIEW
 70
     0
  9
$PUCSORGTOP
 10
0.0
 20
0.0
 30
0.0
  9
$PUCSORGBOTTOM
 10
0.0
 20
0.0
 30
0.0
  9
$PUCSORGLEFT
 10
0.0
 20
0.0
 30
0.0
  9
$PUCSORGRIGHT
 10
0.0
 20
0.0
 30
0.0
  9
$PUCSORGFRONT
 10
0.0
 20
0.0
 30
0.0
  9
$PUCSORGBACK
 10
0.0
 20
0.0
 30
0.0
  9
$USERI1
 70
     0
  9
$USERI2
 70
     0
  9
$USERI3
 70
     0
  9
$USERI4
 70
     0
  9
$USERI5
 70
     0
  9
$USERR1
 40
0.0
  9
$USERR2
 40
0.0
  9
$USERR3
 40
0.0
  9
$USERR4
 40
0.0
  9
$USERR5
 40
0.0
  9
$WORLDVIEW
 70
     1
  9
$SHADEDGE
 70
     3
  9
$SHADEDIF
 70
    70
  9
$TILEMODE
 70
     1
  9
$MAXACTVP
 70
    64
  9
$PINSBASE
 10
0.0
 20
0.0
 30
0.0
  9
$PLIMCHECK
 70
     0
  9
$PEXTMIN
 10
1.0000000000E+20
 20
1.0000000000E+20
 30
1.0000000000E+20
  9
$PEXTMAX
 10
-1.0000000000E+20
 20
-1.0000000000E+20
 30
-1.0000000000E+20
  9
$PLIMMIN
 10
0.0
 20
0.0
  9
$PLIMMAX
 10
420.0
 20
297.0
  9
$UNITMODE
 70
     0
  9
$VISRETAIN
 70
     1
  9
$PLINEGEN
 70
     0
  9
$PSLTSCALE
 70
     1
  9
$TREEDEPTH
 70
  3020
  9
$CMLSTYLE
  2
Standard
  9
$CMLJUST
 70
     0
  9
$CMLSCALE
 40
20.0
  9
$PROXYGRAPHICS
 70
     1
  9
$MEASUREMENT
 70
     1
  9
$CELWEIGHT
370
    -1
  9
$ENDCAPS
280
     0
  9
$JOINSTYLE
280
     0
  9
$LWDISPLAY
290
     1
  9
$INSUNITS
 70
     4
  9
$HYPERLINKBASE
  1

  9
$STYLESHEET
  1

  9
$XEDIT
290
     1
  9
$CEPSNTYPE
380
     0
  9
$PSTYLEMODE
290
     1
  9
$FINGERPRINTGUID
  2
{5bbd14a6-23ca-4d8a-a3a4-c9eee26ae4eb}
  9
$VERSIONGUID
  2
{FAEB1C32-E019-11D5-929B-00C0DF256EC4}
  9
$EXTNAMES
290
     1
  9
$PSVPSCALE
 40
0.0
  9
$OLESTARTUP
290
     0
  0
ENDSEC
  0
SECTION
  2
CLASSES
  0
CLASS
  1
ACDBDICTIONARYWDFLT
  2
AcDbDictionaryWithDefault
  3
ObjectDBX Classes
 90
        0
280
     0
281
     0
  0
CLASS
  1
VISUALSTYLE
  2
AcDbVisualStyle
  3
ObjectDBX Classes
 90
     4095
280
     0
281
     0
  0
CLASS
  1
MATERIAL
  2
AcDbMaterial
  3
ObjectDBX Classes
 90
     1153
280
     0
281
     0
  0
CLASS
  1
SCALE
  2
AcDbScale
  3
ObjectDBX Classes
 90
     1153
280
     0
281
     0
  0
CLASS
  1
TABLESTYLE
  2
AcDbTableStyle
  3
ObjectDBX Classes
 90
     4095
280
     0
281
     0
  0
CLASS
  1
MLEADERSTYLE
  2
AcDbMLeaderStyle
  3
ACDB_MLEADERSTYLE_CLASS
 90
     4095
280
     0
281
     0
  0
CLASS
  1
SUN
  2
AcDbSun
  3
SCENEOE
 90
     1153
280
     0
281
     0
  0
CLASS
  1
ACDBPLACEHOLDER
  2
AcDbPlaceHolder
  3
ObjectDBX Classes
 90
        0
280
     0
281
     0
  0
CLASS
  1
LAYOUT
  2
AcDbLayout
  3
ObjectDBX Classes
 90
        0
280
     0
281
     0
  0
ENDSEC
  0
SECTION
  2
TABLES
  0
TABLE
  2
VPORT
  5
8
330
0
100
AcDbSymbolTable
 70
     1
  0
VPORT
  5
29
330
8
100
AcDbSymbolTableRecord
100
AcDbViewportTableRecord
  2
*Active
 70
     0
 10
0.0
 20
0.0
 11
1.0
 21
1.0
 12
148.5
 22
105.0
 13
0.0
 23
0.0
 14
10.0
 24
10.0
 15
10.0
 25
10.0
 16
0.0
 26
0.0
 36
1.0
 17
0.0
 27
0.0
 37
0.0
 40
210.0
 41
1.4142857143
 42
50.0
 43
0.0
 44
0.0
 50
0.0
 51
0.0
 71
     0
 72
  2000
 73
     1
 74
     3
 75
     0
 76
     0
 77
     0
 78
     0
281
     0
 65
     1
110
0.0
120
0.0
130
0.0
111
1.0
121
0.0
131
0.0
112
0.0
122
1.0
132
0.0
 79
     0
146
0.0
  0
ENDTAB
  0
TABLE
  2
LTYPE
  5
5
330
0
100
AcDbSymbolTable
 70
     6
  0
LTYPE
  5
14
330
5
100
AcDbSymbolTableRecord
100
AcDbLinetypeTableRecord
  2
ByBlock
 70
     0
  3

 72
    65
 73
     0
 40
0.0
  0
LTYPE
  5
15
330
5
100
AcDbSymbolTableRecord
100
AcDbLinetypeTableRecord
  2
ByLayer
 70
     0
  3

 72
    65
 73
     0
 40
0.0
  0
LTYPE
  5
16
330
5
100
AcDbSymbolTableRecord
100
AcDbLinetypeTableRecord
  2
Continuous
 70
     0
  3
Solid line
 72
    65
 73
     0
 40
0.0
  0
LTYPE
  5
5E
330
5
100
AcDbSymbolTableRecord
100
AcDbLinetypeTableRecord
  2
HIDDEN
 70
     0
  3
Hidden __ __ __ __ __ __ __ __ __ __ __ __ __ __
 72
    65
 73
     2
 40
1.905
 49
1.27
 74
     0
 49
-0.635
 74
     0
  0
LTYPE
  5
5F
330
5
100
AcDbSymbolTableRecord
100
AcDbLinetypeTableRecord
  2
PHANTOM
 70
     0
  3
Phantom ______  __  __  ______  __  __  ______
 72
    65
 73
     6
 40
12.7
 49
6.35
 74
     0
 49
-1.27
 74
     0
 49
1.27
 74
     0
 49
-1.27
 74
     0
 49
1.27
 74
     0
 49
-1.27
 74
     0
  0
LTYPE
  5
60
330
5
100
AcDbSymbolTableRecord
100
AcDbLinetypeTableRecord
  2
CENTER
 70
     0
  3
Center ____ _ ____ _ ____ _ ____ _ ____ _ ____
 72
    65
 73
     4
 40
10.16
 49
6.35
 74
     0
 49
-1.27
 74
     0
 49
1.27
 74
     0
 49
-1.27
 74
     0
  0
LTYPE
  5
61
330
5
100
AcDbSymbolTableRecord
100
AcDbLinetypeTableRecord
  2
CENTERX2
 70
     0
  3
Center (2x) ________  __  ________  __  _____
 72
    65
 73
     4
 40
20.32
 49
12.7
 74
     0
 49
-2.54
 74
     0
 49
2.54
 74
     0
 49
-2.54
 74
     0
  0
LTYPE
  5
62
330
5
100
AcDbSymbolTableRecord
100
AcDbLinetypeTableRecord
  2
DOT2
 70
     0
  3
Dot (.5x) ........................................
 72
    65
 73
     2
 40
0.635
 49
0.0
 74
     0
 49
-0.635
 74
     0
  0
ENDTAB
  0
TABLE
  2
LAYER
  5
2
330
0
100
AcDbSymbolTable
 70
    14
  0
LAYER
  5
10
330
2
100
AcDbSymbolTableRecord
100
AcDbLayerTableRecord
  2
0
 70
     0
 62
     7
  6
Continuous
370
    -3
390
F
  0
LAYER
  5
63
330
2
100
AcDbSymbolTableRecord
100
AcDbLayerTableRecord
  2
SLD-0
 70
     0
 62
     7
  6
Continuous
370
    -3
390
F
  0
LAYER
  5
64
330
2
100
AcDbSymbolTableRecord
100
AcDbLayerTableRecord
  2
5
 70
     0
 62
     7
  6
Continuous
370
    -3
390
F
  0
LAYER
  5
65
330
2
100
AcDbSymbolTableRecord
100
AcDbLayerTableRecord
  2
9
 70
     0
 62
     7
  6
Continuous
370
    -3
390
F
  0
LAYER
  5
66
330
2
100
AcDbSymbolTableRecord
100
AcDbLayerTableRecord
  2
10
 70
     0
 62
     7
  6
Continuous
370
    -3
390
F
  0
LAYER
  5
67
330
2
100
AcDbSymbolTableRecord
100
AcDbLayerTableRecord
  2
轮廓实线层
 70
     0
 62
     7
  6
Continuous
370
    50
390
F
  0
LAYER
  5
68
330
2
100
AcDbSymbolTableRecord
100
AcDbLayerTableRecord
  2
细线层
 70
     0
 62
     4
  6
Continuous
370
    25
390
F
  0
LAYER
  5
69
330
2
100
AcDbSymbolTableRecord
100
AcDbLayerTableRecord
  2
中心线层
 70
     0
 62
     1
  6
CENTERX2
370
    25
390
F
  0
LAYER
  5
6A
330
2
100
AcDbSymbolTableRecord
100
AcDbLayerTableRecord
  2
虚线层
 70
     0
 62
     6
  6
HIDDEN
370
    25
390
F
  0
LAYER
  5
6B
330
2
100
AcDbSymbolTableRecord
100
AcDbLayerTableRecord
  2
剖面线层
 70
     0
 62
     2
  6
Continuous
370
    25
390
F
  0
LAYER
  5
6C
330
2
100
AcDbSymbolTableRecord
100
AcDbLayerTableRecord
  2
文字层
 70
     0
 62
     3
  6
Continuous
370
    25
390
F
  0
LAYER
  5
6D
330
2
100
AcDbSymbolTableRecord
100
AcDbLayerTableRecord
  2
标注层
 70
     0
 62
     4
  6
Continuous
370
    25
390
F
  0
LAYER
  5
6E
330
2
100
AcDbSymbolTableRecord
100
AcDbLayerTableRecord
  2
符号标注层
 70
     0
 62
    31
  6
Continuous
370
    25
390
F
  0
LAYER
  5
6F
330
2
100
AcDbSymbolTableRecord
100
AcDbLayerTableRecord
  2
双点划线层
 70
     0
 62
     6
  6
PHANTOM
370
    25
390
F
  0
ENDTAB
  0
TABLE
  2
STYLE
  5
3
330
0
100
AcDbSymbolTable
 70
     1
  0
STYLE
  5
11
330
3
100
AcDbSymbolTableRecord
100
AcDbTextStyleTableRecord
  2
Standard
 70
     0
 40
0.0
 41
1.0
 50
0.0
 71
     0
 42
3.5
  3
txt
  4

  0
ENDTAB
  0
TABLE
  2
VIEW
  5
6
330
0
100
AcDbSymbolTable
 70
     0
  0
ENDTAB
  0
TABLE
  2
UCS
  5
7
330
0
100
AcDbSymbolTable
 70
     0
  0
ENDTAB
  0
TABLE
  2
APPID
  5
9
330
0
100
AcDbSymbolTable
 70
     1
  0
APPID
  5
12
330
9
100
AcDbSymbolTableRecord
100
AcDbRegAppTableRecord
  2
ACAD
 70
     0
  0
ENDTAB
  0
TABLE
  2
DIMSTYLE
  5
A
330
0
100
AcDbSymbolTable
 70
     1
100
AcDbDimStyleTable
  0
DIMSTYLE
105
27
330
A
100
AcDbSymbolTableRecord
100
AcDbDimStyleTableRecord
  2
ISO-25
 70
     0
 41
2.5
 42
0.625
 43
3.75
 44
1.25
 73
     0
 74
     0
 77
     1
 78
     8
140
2.5
141
2.5
143
0.0393700787
147
0.625
171
     3
172
     1
178
     0
271
     2
272
     2
274
     3
278
    44
283
     0
284
     8
340
11
  0
ENDTAB
  0
TABLE
  2
BLOCK_RECORD
  5
1
330
0
100
AcDbSymbolTable
 70
     4
  0
BLOCK_RECORD
  5
1F
330
1
100
AcDbSymbolTableRecord
100
AcDbBlockTableRecord
  2
*Model_Space
340
22
  0
BLOCK_RECORD
  5
1B
330
1
100
AcDbSymbolTableRecord
100
AcDbBlockTableRecord
  2
*Paper_Space
340
1E
  0
BLOCK_RECORD
  5
23
330
1
100
AcDbSymbolTableRecord
100
AcDbBlockTableRecord
  2
*Paper_Space0
340
26
  0
BLOCK_RECORD
  5
E5
330
1
100
AcDbSymbolTableRecord
100
AcDbBlockTableRecord
  2
SW_CENTERMARKSYMBOL_0
340
0
102
{BLKREFS
331
F0
102
}
  0
BLOCK_RECORD
  5
F1
330
1
100
AcDbSymbolTableRecord
100
AcDbBlockTableRecord
  2
SW_CENTERMARKSYMBOL_1
340
0
102
{BLKREFS
331
FC
102
}
  0
BLOCK_RECORD
  5
199
330
1
100
AcDbSymbolTableRecord
100
AcDbBlockTableRecord
  2
SW_CENTERMARKSYMBOL_2
340
0
102
{BLKREFS
331
1A4
102
}
  0
ENDTAB
  0
ENDSEC
  0
SECTION
  2
BLOCKS
  0
BLOCK
  5
20
330
1F
100
AcDbEntity
  8
0
100
AcDbBlockBegin
  2
*Model_Space
 70
     0
 10
0.0
 20
0.0
 30
0.0
  3
*Model_Space
  1

  0
ENDBLK
  5
21
330
1F
100
AcDbEntity
  8
0
100
AcDbBlockEnd
  0
BLOCK
  5
1C
330
1B
100
AcDbEntity
 67
     1
  8
0
100
AcDbBlockBegin
  2
*Paper_Space
 70
     0
 10
0.0
 20
0.0
 30
0.0
  3
*Paper_Space
  1

  0
ENDBLK
  5
1D
330
1B
100
AcDbEntity
 67
     1
  8
0
100
AcDbBlockEnd
  0
BLOCK
  5
24
330
23
100
AcDbEntity
  8
0
100
AcDbBlockBegin
  2
*Paper_Space0
 70
     0
 10
0.0
 20
0.0
 30
0.0
  3
*Paper_Space0
  1

  0
ENDBLK
  5
25
330
23
100
AcDbEntity
  8
0
100
AcDbBlockEnd
  0
BLOCK
  5
E6
330
E5
100
AcDbEntity
  8
0
100
AcDbBlockBegin
  2
SW_CENTERMARKSYMBOL_0
 70
     0
 10
0.0
 20
0.0
 30
0.0
  3
SW_CENTERMARKSYMBOL_0
  1

  0
LINE
  5
E8
330
E5
100
AcDbEntity
  8
10
 62
     0
100
AcDbLine
 10
0.0
 20
0.0
 30
0.0
 11
0.0
 21
2.5
 31
0.0
  0
LINE
  5
E9
330
E5
100
AcDbEntity
  8
10
 62
     0
100
AcDbLine
 10
0.0
 20
0.0
 30
0.0
 11
-2.5
 21
0.0
 31
0.0
  0
LINE
  5
EA
330
E5
100
AcDbEntity
  8
10
 62
     0
100
AcDbLine
 10
0.0
 20
0.0
 30
0.0
 11
0.0
 21
-2.5
 31
0.0
  0
LINE
  5
EB
330
E5
100
AcDbEntity
  8
10
 62
     0
100
AcDbLine
 10
0.0
 20
0.0
 30
0.0
 11
2.5
 21
0.0
 31
0.0
  0
LINE
  5
EC
330
E5
100
AcDbEntity
  8
10
 62
     0
100
AcDbLine
 10
0.0
 20
5.0
 30
0.0
 11
0.0
 21
7.172208823
 31
0.0
  0
LINE
  5
ED
330
E5
100
AcDbEntity
  8
10
 62
     0
100
AcDbLine
 10
-5.0
 20
0.0
 30
0.0
 11
-7.172208823
 21
0.0
 31
0.0
  0
LINE
  5
EE
330
E5
100
AcDbEntity
  8
10
 62
     0
100
AcDbLine
 10
0.0
 20
-5.0
 30
0.0
 11
0.0
 21
-7.172208823
 31
0.0
  0
LINE
  5
EF
330
E5
100
AcDbEntity
  8
10
 62
     0
100
AcDbLine
 10
5.0
 20
0.0
 30
0.0
 11
7.172208823
 21
0.0
 31
0.0
  0
ENDBLK
  5
E7
330
E5
100
AcDbEntity
  8
0
100
AcDbBlockEnd
  0
BLOCK
  5
F2
330
F1
100
AcDbEntity
  8
0
100
AcDbBlockBegin
  2
SW_CENTERMARKSYMBOL_1
 70
     0
 10
0.0
 20
0.0
 30
0.0
  3
SW_CENTERMARKSYMBOL_1
  1

  0
LINE
  5
F4
330
F1
100
AcDbEntity
  8
10
 62
     0
100
AcDbLine
 10
0.0
 20
0.0
 30
0.0
 11
0.0
 21
2.5
 31
0.0
  0
LINE
  5
F5
330
F1
100
AcDbEntity
  8
10
 62
     0
100
AcDbLine
 10
0.0
 20
0.0
 30
0.0
 11
-2.5
 21
0.0
 31
0.0
  0
LINE
  5
F6
330
F1
100
AcDbEntity
  8
10
 62
     0
100
AcDbLine
 10
0.0
 20
0.0
 30
0.0
 11
0.0
 21
-2.5
 31
0.0
  0
LINE
  5
F7
330
F1
100
AcDbEntity
  8
10
 62
     0
100
AcDbLine
 10
0.0
 20
0.0
 30
0.0
 11
2.5
 21
0.0
 31
0.0
  0
LINE
  5
F8
330
F1
100
AcDbEntity
  8
10
 62
     0
100
AcDbLine
 10
0.0
 20
5.0
 30
0.0
 11
0.0
 21
7.172208823
 31
0.0
  0
LINE
  5
F9
330
F1
100
AcDbEntity
  8
10
 62
     0
100
AcDbLine
 10
-5.0
 20
0.0
 30
0.0
 11
-7.172208823
 21
0.0
 31
0.0
  0
LINE
  5
FA
330
F1
100
AcDbEntity
  8
10
 62
     0
100
AcDbLine
 10
0.0
 20
-5.0
 30
0.0
 11
0.0
 21
-7.172208823
 31
0.0
  0
LINE
  5
FB
330
F1
100
AcDbEntity
  8
10
 62
     0
100
AcDbLine
 10
5.0
 20
0.0
 30
0.0
 11
7.172208823
 21
0.0
 31
0.0
  0
ENDBLK
  5
F3
330
F1
100
AcDbEntity
  8
0
100
AcDbBlockEnd
  0
BLOCK
  5
19A
330
199
100
AcDbEntity
  8
0
100
AcDbBlockBegin
  2
SW_CENTERMARKSYMBOL_2
 70
     0
 10
0.0
 20
0.0
 30
0.0
  3
SW_CENTERMARKSYMBOL_2
  1

  0
LINE
  5
19C
330
199
100
AcDbEntity
  8
10
 62
     0
100
AcDbLine
 10
0.0
 20
0.0
 30
0.0
 11
0.0
 21
2.5
 31
0.0
  0
LINE
  5
19D
330
199
100
AcDbEntity
  8
10
 62
     0
100
AcDbLine
 10
0.0
 20
0.0
 30
0.0
 11
-2.5
 21
0.0
 31
0.0
  0
LINE
  5
19E
330
199
100
AcDbEntity
  8
10
 62
     0
100
AcDbLine
 10
0.0
 20
0.0
 30
0.0
 11
0.0
 21
-2.5
 31
0.0
  0
LINE
  5
19F
330
199
100
AcDbEntity
  8
10
 62
     0
100
AcDbLine
 10
0.0
 20
0.0
 30
0.0
 11
2.5
 21
0.0
 31
0.0
  0
LINE
  5
1A0
330
199
100
AcDbEntity
  8
10
 62
     0
100
AcDbLine
 10
0.0
 20
2.5
 30
0.0
 11
0.0
 21
4.6564040721
 31
0.0
  0
LINE
  5
1A1
330
199
100
AcDbEntity
  8
10
 62
     0
100
AcDbLine
 10
-2.5
 20
0.0
 30
0.0
 11
-4.6564040721
 21
0.0
 31
0.0
  0
LINE
  5
1A2
330
199
100
AcDbEntity
  8
10
 62
     0
100
AcDbLine
 10
0.0
 20
-2.5
 30
0.0
 11
0.0
 21
-4.6564040721
 31
0.0
  0
LINE
  5
1A3
330
199
100
AcDbEntity
  8
10
 62
     0
100
AcDbLine
 10
2.5
 20
0.0
 30
0.0
 11
4.6564040721
 21
0.0
 31
0.0
  0
ENDBLK
  5
19B
330
199
100
AcDbEntity
  8
0
100
AcDbBlockEnd
  0
ENDSEC
  0
SECTION
  2
ENTITIES
  0
LINE
  5
70
330
1F
100
AcDbEntity
  8
0
  6
Continuous
 62
     7
370
    25
100
AcDbLine
 10
78.3996689768
 20
68.788329761
 30
0.0
 11
43.1784024652
 21
68.788329761
 31
0.0
  0
LINE
  5
71
330
1F
100
AcDbEntity
  8
0
  6
Continuous
 62
     7
370
    25
100
AcDbLine
 10
122.821592863
 20
68.788329761
 30
0.0
 11
87.6003263513
 21
68.788329761
 31
0.0
  0
ARC
  5
72
330
1F
100
AcDbEntity
  8
0
  6
Continuous
 62
     7
370
    25
100
AcDbCircle
 10
87.6003263513
 20
67.0632065033
 30
0.0
 40
1.725123257714088
100
AcDbArc
 50
90.0
 51
180.0
  0
ARC
  5
73
330
1F
100
AcDbEntity
  8
0
  6
Continuous
 62
     7
370
    25
100
AcDbCircle
 10
78.3996689768
 20
67.0632065033
 30
0.0
 40
1.725123257714088
100
AcDbArc
 50
0.0
 51
90.0
  0
ARC
  5
74
330
1F
100
AcDbEntity
  8
0
  6
Continuous
 62
     7
370
    25
100
AcDbCircle
 10
123.5403942203
 20
58.3587215183
 30
0.0
 40
0.7188013573808689
100
AcDbArc
 50
180.0
 51
270.0
  0
ARC
  5
75
330
1F
100
AcDbEntity
  8
0
  6
Continuous
 62
     7
370
    25
100
AcDbCircle
 10
42.4596011078
 20
58.3587215183
 30
0.0
 40
0.7188013573808689
100
AcDbArc
 50
270.0
 51
0.0
  0
SPLINE
  5
76
330
1F
100
AcDbEntity
  8
0
  6
Continuous
 62
     7
370
    25
100
AcDbSpline
210
0.0
220
0.0
230
1.0
 70
     8
 71
     3
 72
    15
 73
    11
 74
     0
 42
0.00000001
 43
0.00000001
 40
0.0
 40
0.0
 40
0.0
 40
0.0
 40
0.1334024785907284
 40
0.286092015370244
 40
0.4288025964346661
 40
0.559678061173484
 40
0.6793286815037363
 40
0.791484329431405
 40
0.9020204387949274
 40
0.9999999999999999
 40
0.9999999999999999
 40
0.9999999999999999
 40
0.9999999999999999
 10
82.33557815747857
 20
62.5582865676564
 30
0.0
 10
82.19991356760167
 20
62.53411346151064
 30
0.0
 10
81.90897027822449
 20
62.48227235085018
 30
0.0
 10
81.46294056120885
 20
62.51541373186557
 30
0.0
 10
81.052459310021
 20
62.6195764223311
 30
0.0
 10
80.72010693589326
 20
62.79134053027625
 30
0.0
 10
80.46629682502352
 20
63.01947352564522
 30
0.0
 10
80.28661030983075
 20
63.30272952284744
 30
0.0
 10
80.17679473538264
 20
63.61701281250556
 30
0.0
 10
80.1516860728685
 20
63.83105519636158
 30
0.0
 10
80.13988774745309
 20
63.93163170839212
 30
0.0
  0
SPLINE
  5
77
330
1F
100
AcDbEntity
  8
0
  6
Continuous
 62
     7
370
    25
100
AcDbSpline
210
0.0
220
0.0
230
1.0
 70
     8
 71
     3
 72
    14
 73
    10
 74
     0
 42
0.00000001
 43
0.00000001
 40
0.0
 40
0.0
 40
0.0
 40
0.0
 40
0.1716545501829729
 40
0.2713845541247525
 40
0.3838278939116251
 40
0.514213551160716
 40
0.6656048225337187
 40
0.8375595143420885
 40
0.9999999999999999
 40
0.9999999999999999
 40
0.9999999999999999
 40
0.9999999999999999
 10
85.86754245122549
 20
63.98045999766055
 30
0.0
 10
85.84323373269412
 20
63.79998335425052
 30
0.0
 10
85.80480183133787
 20
63.51465113701794
 30
0.0
 10
85.63345800771936
 20
63.15955220760963
 30
0.0
 10
85.42175850289486
 20
62.90235766812535
 30
0.0
 10
85.11100756311447
 20
62.68791007390159
 30
0.0
 10
84.68838173347504
 20
62.53963008502117
 30
0.0
 10
84.18115557027885
 20
62.47403023713105
 30
0.0
 10
83.83466309335654
 20
62.53170990838775
 30
0.0
 10
83.66634605405429
 20
62.55972919348188
 30
0.0
  0
SPLINE
  5
78
330
1F
100
AcDbEntity
  8
0
  6
Continuous
 62
     7
370
    25
100
AcDbSpline
210
0.0
220
0.0
230
1.0
 70
     8
 71
     3
 72
    12
 73
     8
 74
     0
 42
0.00000001
 43
0.00000001
 40
0.0
 40
0.0
 40
0.0
 40
0.0
 40
0.1941176028433147
 40
0.3852274381250685
 40
0.6210804372383635
 40
0.788171579414951
 40
1.0
 40
1.0
 40
1.0
 40
1.0
 10
132.867955965194
 20
56.37659304384765
 30
0.0
 10
132.8381907887918
 20
56.50584392481263
 30
0.0
 10
132.7791216344092
 20
56.76234300073485
 30
0.0
 10
132.5642838083581
 20
57.11623726149061
 30
0.0
 10
132.2667392203609
 20
57.3925915413355
 30
0.0
 10
131.8753470051116
 20
57.585956997729
 30
0.0
 10
131.6007293799038
 20
57.6114369651966
 30
0.0
 10
131.4472091515243
 20
57.62568109982476
 30
0.0
  0
LINE
  5
79
330
1F
100
AcDbEntity
  8
0
  6
Continuous
 62
     7
370
    25
100
AcDbLine
 10
33.1562305579
 20
56.4493132936
 30
0.0
 11
33.1320391807
 21
56.3765918413
 31
0.0
  0
SPLINE
  5
7A
330
1F
100
AcDbEntity
  8
0
  6
Continuous
 62
     7
370
    25
100
AcDbSpline
210
0.0
220
0.0
230
1.0
 70
     8
 71
     3
 72
    12
 73
     8
 74
     0
 42
0.00000001
 43
0.00000001
 40
0.0
 40
0.0
 40
0.0
 40
0.0
 40
0.1586500103089637
 40
0.3338146263063094
 40
0.6482670987289495
 40
0.9342711210770712
 40
1.0
 40
1.0
 40
1.0
 40
1.0
 10
34.55278617658303
 20
57.62568109982476
 30
0.0
 10
34.46173296973567
 20
57.62067176899843
 30
0.0
 10
34.27014841100445
 20
57.61013166317317
 30
0.0
 10
33.91750797820136
 20
57.50307756197337
 30
0.0
 10
33.57062624834312
 20
57.26209965638856
 30
0.0
 10
33.32903787032976
 20
56.98759169869057
 30
0.0
 10
33.27340738845797
 20
56.8045180534675
 30
0.0
 10
33.26301163305902
 20
56.77030679424961
 30
0.0
  0
LINE
  5
7B
330
1F
100
AcDbEntity
  8
0
  6
Continuous
 62
     7
370
    25
100
AcDbLine
 10
42.4596011078
 20
57.6399201609
 30
0.0
 11
34.5527861766
 21
57.6399201609
 31
0.0
  0
LINE
  5
7C
330
1F
100
AcDbEntity
  8
0
  6
Continuous
 62
     7
370
    25
100
AcDbLine
 10
131.4472091515
 20
57.6399201609
 30
0.0
 11
123.5403942203
 21
57.6399201609
 31
0.0
  0
LINE
  5
7D
330
1F
100
AcDbEntity
  8
0
  6
Continuous
 62
     7
370
    25
100
AcDbLine
 10
85.8355311077
 20
66.3436612995
 30
0.0
 11
85.7117709371
 21
66.0979576727
 31
0.0
  0
LINE
  5
7E
330
1F
100
AcDbEntity
  8
0
  6
Continuous
 62
     7
370
    25
100
AcDbLine
 10
80.288224391
 20
66.0979576727
 30
0.0
 11
80.1644642204
 21
66.3436612995
 31
0.0
  0
SPLINE
  5
7F
330
1F
100
AcDbEntity
  8
0
  6
Continuous
 62
     7
370
    25
100
AcDbSpline
210
0.0
220
0.0
230
1.0
 70
     8
 71
     3
 72
    11
 73
     7
 74
     0
 42
0.00000001
 43
0.00000001
 40
0.0
 40
0.0
 40
0.0
 40
0.0
 40
0.2453176881006666
 40
0.4934889564268193
 40
0.7448954136822952
 40
0.9999999999999999
 40
0.9999999999999999
 40
0.9999999999999999
 40
0.9999999999999999
 10
85.7117684091761
 20
66.09795465724433
 30
0.0
 10
85.6276631357436
 20
65.9869337455886
 30
0.0
 10
85.45847426095214
 20
65.76360050672302
 30
0.0
 10
85.08207149794171
 20
65.51585688108976
 30
0.0
 10
84.6397614934782
 20
65.34865746108419
 30
0.0
 10
84.31409962719952
 20
65.32780284740886
 30
0.0
 10
84.15007983586308
 20
65.3172994089114
 30
0.0
  0
SPLINE
  5
80
330
1F
100
AcDbEntity
  8
0
  6
Continuous
 62
     7
370
    25
100
AcDbSpline
210
0.0
220
0.0
230
1.0
 70
     8
 71
     3
 72
    11
 73
     7
 74
     0
 42
0.00000001
 43
0.00000001
 40
0.0
 40
0.0
 40
0.0
 40
0.0
 40
0.2551045863176997
 40
0.5065110435731791
 40
0.7546823118993254
 40
0.9999999999999999
 40
0.9999999999999999
 40
0.9999999999999999
 40
0.9999999999999999
 10
81.84991549224429
 20
65.31729940891138
 30
0.0
 10
81.68589570090784
 20
65.32780284740883
 30
0.0
 10
81.36023383462911
 20
65.3486574610841
 30
0.0
 10
80.91792383016578
 20
65.51585688108976
 30
0.0
 10
80.54152106715502
 20
65.763600506723
 30
0.0
 10
80.37233219236373
 20
65.98693374558854
 30
0.0
 10
80.28822691893131
 20
66.09795465724426
 30
0.0
  0
LINE
  5
81
330
1F
100
AcDbEntity
  8
0
  6
Continuous
 62
     7
370
    25
100
AcDbLine
 10
84.1500798359
 20
65.317644533
 30
0.0
 11
81.8499154922
 21
65.317644533
 31
0.0
  0
ARC
  5
82
330
1F
100
AcDbEntity
  8
0
  6
Continuous
 62
     7
370
    25
100
AcDbCircle
 10
123.5403942203
 20
62.0792328755
 30
0.0
 40
0.7188013573808689
100
AcDbArc
 50
180.0
 51
270.0
  0
ARC
  5
83
330
1F
100
AcDbEntity
  8
0
  6
Continuous
 62
     7
370
    25
100
AcDbCircle
 10
42.4596011078
 20
62.0792328755
 30
0.0
 40
0.7188013573808689
100
AcDbArc
 50
270.0
 51
0.0
  0
LINE
  5
84
330
1F
100
AcDbEntity
  8
0
  6
Continuous
 62
     7
370
    25
100
AcDbLine
 10
131.4472091515
 20
61.3604315181
 30
0.0
 11
123.5403942203
 21
61.3604315181
 31
0.0
  0
LINE
  5
85
330
1F
100
AcDbEntity
  8
0
  6
Continuous
 62
     7
370
    25
100
AcDbLine
 10
42.4596011078
 20
61.3604315181
 30
0.0
 11
34.5527861766
 21
61.3604315181
 31
0.0
  0
SPLINE
  5
86
330
1F
100
AcDbEntity
  8
0
  6
Continuous
 62
     7
370
    25
100
AcDbSpline
210
0.0
220
0.0
230
1.0
 70
     8
 71
     3
 72
    14
 73
    10
 74
     0
 42
0.00000001
 43
0.00000001
 40
0.0
 40
0.0
 40
0.0
 40
0.0
 40
0.1676836731385577
 40
0.3399865824726706
 40
0.4412320061169187
 40
0.5695308842977269
 40
0.7511714145611894
 40
0.8700466067910276
 40
1.0
 40
1.0
 40
1.0
 40
1.0
 10
132.8848118662861
 20
59.60761413106071
 30
0.0
 10
132.8775569763332
 20
59.7485948949619
 30
0.0
 10
132.8628473436353
 20
60.03444006531159
 30
0.0
 10
132.7556270201393
 20
60.39374374208261
 30
0.0
 10
132.604968671443
 20
60.69677648223594
 30
0.0
 10
132.3968475241731
 20
60.97597721286327
 30
0.0
 10
132.1063001961113
 20
61.19979520004945
 30
0.0
 10
131.7663804136919
 20
61.33660752174172
 30
0.0
 10
131.5567111628965
 20
61.35225792305268
 30
0.0
 10
131.4472091515243
 20
61.36043151272226
 30
0.0
  0
SPLINE
  5
87
330
1F
100
AcDbEntity
  8
0
  6
Continuous
 62
     7
370
    25
100
AcDbSpline
210
0.0
220
0.0
230
1.0
 70
     8
 71
     3
 72
    13
 73
     9
 74
     0
 42
0.00000001
 43
0.00000001
 40
0.0
 40
0.0
 40
0.0
 40
0.0
 40
0.1370672240435168
 40
0.2535926535906155
 40
0.4184606200128586
 40
0.6047731345376093
 40
0.7507901868031072
 40
1.0
 40
1.0
 40
1.0
 40
1.0
 10
34.55278617658306
 20
61.36043151272226
 30
0.0
 10
34.43732622302034
 20
61.35140044038025
 30
0.0
 10
34.22370990291361
 20
61.33469175151637
 30
0.0
 10
33.89520771353467
 20
61.19786884945892
 30
0.0
 10
33.5774100377173
 20
60.9576117869213
 30
0.0
 10
33.33616756813429
 20
60.60920086547407
 30
0.0
 10
33.15490193705805
 20
60.1511777496022
 30
0.0
 10
33.13054297521028
 20
59.81781536932539
 30
0.0
 10
33.11518346182131
 20
59.60761413106071
 30
0.0
  0
LINE
  5
88
330
1F
100
AcDbEntity
  8
0
  6
Continuous
 62
     7
370
    25
100
AcDbLine
 10
43.1784024652
 20
61.125552713
 30
0.0
 11
43.1784024652
 21
68.788329761
 31
0.0
  0
LINE
  5
89
330
1F
100
AcDbEntity
  8
0
  6
Continuous
 62
     7
370
    25
100
AcDbLine
 10
122.821592863
 20
68.788329761
 30
0.0
 11
122.821592863
 21
61.125552713
 31
0.0
  0
LINE
  5
8A
330
1F
100
AcDbEntity
  8
0
  6
Continuous
 62
     7
370
    25
100
AcDbLine
 10
85.8752030936
 20
63.6487807146
 30
0.0
 11
85.8752030936
 21
67.0632065033
 31
0.0
  0
LINE
  5
8B
330
1F
100
AcDbEntity
  8
0
  6
Continuous
 62
     7
370
    25
100
AcDbLine
 10
80.1247922345
 20
67.0632065033
 30
0.0
 11
80.1247922345
 21
63.6487807146
 31
0.0
  0
SPLINE
  5
8C
330
1F
100
AcDbEntity
  8
0
  6
Continuous
 62
     7
370
    25
100
AcDbSpline
210
0.0
220
0.0
230
1.0
 70
     8
 71
     3
 72
    10
 73
     6
 74
     0
 42
0.00000001
 43
0.00000001
 40
0.0
 40
0.0
 40
0.0
 40
0.0
 40
0.5
 40
0.5
 40
1.0
 40
1.0
 40
1.0
 40
1.0
 10
122.8215928629539
 20
57.26814388627573
 30
0.0
 10
122.8215928629539
 20
57.01787336210791
 30
0.0
 10
122.9217139501121
 20
56.77940092827976
 30
0.0
 10
123.1930769008844
 20
56.35038060493957
 30
0.0
 10
123.3681707985564
 20
56.15380150097862
 30
0.0
 10
123.5403942203347
 20
55.96040738323695
 30
0.0
  0
SPLINE
  5
8D
330
1F
100
AcDbEntity
  8
0
  6
Continuous
 62
     7
370
    25
100
AcDbSpline
210
0.0
220
0.0
230
1.0
 70
     8
 71
     3
 72
    14
 73
    10
 74
     0
 42
0.00000001
 43
0.00000001
 40
0.0
 40
0.0
 40
0.0
 40
0.0
 40
0.2500000000000002
 40
0.2500000000000002
 40
0.5000000000000001
 40
0.5000000000000001
 40
0.75
 40
0.75
 40
1.0
 40
1.0
 40
1.0
 40
1.0
 10
121.4558702839302
 20
52.04025813407202
 30
0.0
 10
121.4558702839302
 20
52.41205175218461
 30
0.0
 10
121.5008867879444
 20
52.7954739108887
 30
0.0
 10
121.6898188480481
 20
53.5512530052919
 30
0.0
 10
121.8338298474422
 20
53.92324046006878
 30
0.0
 10
122.2117894109542
 20
54.6187992254264
 30
0.0
 10
122.4455470884629
 20
54.94201924749125
 30
0.0
 10
122.976879092585
 20
55.51174169243053
 30
0.0
 10
123.2740914831034
 20
55.75812316969968
 30
0.0
 10
123.5860395419575
 20
55.96040738323695
 30
0.0
  0
SPLINE
  5
8E
330
1F
100
AcDbEntity
  8
0
  6
Continuous
 62
     7
370
    25
100
AcDbSpline
210
0.0
220
0.0
230
1.0
 70
     8
 71
     3
 72
    34
 73
    30
 74
     0
 42
0.00000001
 43
0.00000001
 40
0.0
 40
0.0
 40
0.0
 40
0.0
 40
0.1249999999999999
 40
0.1249999999999999
 40
0.1874999999999999
 40
0.1874999999999999
 40
0.2499999999999999
 40
0.2499999999999999
 40
0.3124999999999999
 40
0.3124999999999999
 40
0.3749999999999998
 40
0.3749999999999998
 40
0.4374999999999998
 40
0.4374999999999998
 40
0.4999999999999998
 40
0.4999999999999998
 40
0.5624999999999998
 40
0.5624999999999998
 40
0.6249999999999998
 40
0.6249999999999998
 40
0.6874999999999997
 40
0.6874999999999997
 40
0.7499999999999997
 40
0.7499999999999997
 40
0.8124999999999998
 40
0.8124999999999998
 40
0.8749999999999998
 40
0.8749999999999998
 40
1.0
 40
1.0
 40
1.0
 40
1.0
 10
130.8002879298815
 20
52.04025813407202
 30
0.0
 10
130.8002879298815
 20
51.65090739882404
 30
0.0
 10
130.7529428804754
 20
51.21047384711153
 30
0.0
 10
130.5436279252061
 20
50.49282257190248
 30
0.0
 10
130.4505063578547
 20
50.24455543743284
 30
0.0
 10
130.2051283916436
 20
49.74121601956398
 30
0.0
 10
130.0527345182054
 20
49.48611731084532
 30
0.0
 10
129.6789578123674
 20
48.98774836972792
 30
0.0
 10
129.4573968595386
 20
48.74454918951103
 30
0.0
 10
128.9430359707892
 20
48.29565241387516
 30
0.0
 10
128.6501018625606
 20
48.09016693771543
 30
0.0
 10
128.0034293611107
 20
47.74527493694214
 30
0.0
 10
127.6497262880691
 20
47.60617529923381
 30
0.0
 10
126.9065962693615
 20
47.41744386591125
 30
0.0
 10
126.5174298421539
 20
47.36804931109636
 30
0.0
 10
125.7387283716579
 20
47.36804931109635
 30
0.0
 10
125.3495619444503
 20
47.41744386591125
 30
0.0
 10
124.6064319257427
 20
47.60617529923382
 30
0.0
 10
124.2527288527011
 20
47.74527493694214
 30
0.0
 10
123.6060563512512
 20
48.09016693771543
 30
0.0
 10
123.3131222430226
 20
48.29565241387517
 30
0.0
 10
122.7987613542732
 20
48.74454918951103
 30
0.0
 10
122.5772004014444
 20
48.98774836972791
 30
0.0
 10
122.2034236956063
 20
49.48611731084532
 30
0.0
 10
122.0510298221681
 20
49.74121601956398
 30
0.0
 10
121.8056518559571
 20
50.24455543743284
 30
0.0
 10
121.7125302886057
 20
50.49282257190247
 30
0.0
 10
121.5032153333364
 20
51.21047384711153
 30
0.0
 10
121.4558702839302
 20
51.65090739882404
 30
0.0
 10
121.4558702839302
 20
52.04025813407202
 30
0.0
  0
SPLINE
  5
8F
330
1F
100
AcDbEntity
  8
0
  6
Continuous
 62
     7
370
    25
100
AcDbSpline
210
0.0
220
0.0
230
1.0
 70
     8
 71
     3
 72
    14
 73
    10
 74
     0
 42
0.00000001
 43
0.00000001
 40
0.0
 40
0.0
 40
0.0
 40
0.0
 40
0.2499999999999999
 40
0.2499999999999999
 40
0.4999999999999999
 40
0.4999999999999999
 40
0.7499999999999998
 40
0.7499999999999998
 40
1.0
 40
1.0
 40
1.0
 40
1.0
 10
128.6701186718543
 20
55.96040738323696
 30
0.0
 10
128.9820667307084
 20
55.75812316969969
 30
0.0
 10
129.2792791212268
 20
55.51174169243054
 30
0.0
 10
129.8106111253488
 20
54.94201924749125
 30
0.0
 10
130.0443688028576
 20
54.6187992254264
 30
0.0
 10
130.4223283663696
 20
53.92324046006878
 30
0.0
 10
130.5663393657637
 20
53.5512530052919
 30
0.0
 10
130.7552714258674
 20
52.7954739108887
 30
0.0
 10
130.8002879298815
 20
52.41205175218461
 30
0.0
 10
130.8002879298815
 20
52.04025813407201
 30
0.0
  0
SPLINE
  5
90
330
1F
100
AcDbEntity
  8
0
  6
Continuous
 62
     7
370
    25
100
AcDbSpline
210
0.0
220
0.0
230
1.0
 70
     8
 71
     3
 72
    14
 73
    10
 74
     0
 42
0.00000001
 43
0.00000001
 40
0.0
 40
0.0
 40
0.0
 40
0.0
 40
0.25
 40
0.25
 40
0.5
 40
0.5
 40
0.75
 40
0.75
 40
1.0
 40
1.0
 40
1.0
 40
1.0
 10
35.19970739822583
 20
52.040258134072
 30
0.0
 10
35.19970739822584
 20
52.4120517521846
 30
0.0
 10
35.24472390223997
 20
52.79547391088869
 30
0.0
 10
35.43365596234369
 20
53.5512530052919
 30
0.0
 10
35.57766696173781
 20
53.92324046006877
 30
0.0
 10
35.95562652524981
 20
54.61879922542639
 30
0.0
 10
36.18938420275855
 20
54.94201924749124
 30
0.0
 10
36.72071620688061
 20
55.51174169243053
 30
0.0
 10
37.01792859739897
 20
55.75812316969968
 30
0.0
 10
37.3298766562531
 20
55.96040738323695
 30
0.0
  0
SPLINE
  5
91
330
1F
100
AcDbEntity
  8
0
  6
Continuous
 62
     7
370
    25
100
AcDbSpline
210
0.0
220
0.0
230
1.0
 70
     8
 71
     3
 72
    34
 73
    30
 74
     0
 42
0.00000001
 43
0.00000001
 40
0.0
 40
0.0
 40
0.0
 40
0.0
 40
0.1250000000000004
 40
0.1250000000000004
 40
0.1875000000000004
 40
0.1875000000000004
 40
0.2500000000000006
 40
0.2500000000000006
 40
0.3125000000000005
 40
0.3125000000000005
 40
0.3750000000000004
 40
0.3750000000000004
 40
0.4375000000000004
 40
0.4375000000000004
 40
0.5000000000000003
 40
0.5000000000000003
 40
0.5625000000000004
 40
0.5625000000000004
 40
0.6250000000000003
 40
0.6250000000000003
 40
0.6875000000000003
 40
0.6875000000000003
 40
0.7500000000000002
 40
0.7500000000000002
 40
0.8125000000000002
 40
0.8125000000000002
 40
0.8750000000000002
 40
0.8750000000000002
 40
1.0
 40
1.0
 40
1.0
 40
1.0
 10
44.54412504417714
 20
52.040258134072
 30
0.0
 10
44.54412504417714
 20
51.65090739882402
 30
0.0
 10
44.49677999477097
 20
51.21047384711152
 30
0.0
 10
44.28746503950165
 20
50.49282257190246
 30
0.0
 10
44.19434347215031
 20
50.24455543743282
 30
0.0
 10
43.94896550593923
 20
49.74121601956396
 30
0.0
 10
43.79657163250104
 20
49.4861173108453
 30
0.0
 10
43.42279492666296
 20
48.9877483697279
 30
0.0
 10
43.20123397383414
 20
48.74454918951101
 30
0.0
 10
42.68687308508473
 20
48.29565241387514
 30
0.0
 10
42.39393897685615
 20
48.09016693771541
 30
0.0
 10
41.74726647540625
 20
47.74527493694212
 30
0.0
 10
41.39356340236469
 20
47.60617529923379
 30
0.0
 10
40.6504333836571
 20
47.41744386591123
 30
0.0
 10
40.26126695644949
 20
47.36804931109634
 30
0.0
 10
39.48256548595352
 20
47.36804931109634
 30
0.0
 10
39.09339905874589
 20
47.41744386591123
 30
0.0
 10
38.35026904003831
 20
47.60617529923379
 30
0.0
 10
37.99656596699672
 20
47.74527493694212
 30
0.0
 10
37.34989346554681
 20
48.09016693771541
 30
0.0
 10
37.05695935731823
 20
48.29565241387515
 30
0.0
 10
36.54259846856882
 20
48.74454918951101
 30
0.0
 10
36.32103751573999
 20
48.9877483697279
 30
0.0
 10
35.94726080990192
 20
49.48611731084529
 30
0.0
 10
35.79486693646373
 20
49.74121601956396
 30
0.0
 10
35.54948897025267
 20
50.24455543743282
 30
0.0
 10
35.45636740290131
 20
50.49282257190246
 30
0.0
 10
35.24705244763198
 20
51.21047384711152
 30
0.0
 10
35.19970739822584
 20
51.65090739882402
 30
0.0
 10
35.19970739822583
 20
52.040258134072
 30
0.0
  0
SPLINE
  5
92
330
1F
100
AcDbEntity
  8
0
  6
Continuous
 62
     7
370
    25
100
AcDbSpline
210
0.0
220
0.0
230
1.0
 70
     8
 71
     3
 72
    14
 73
    10
 74
     0
 42
0.00000001
 43
0.00000001
 40
0.0
 40
0.0
 40
0.0
 40
0.0
 40
0.2499999999999999
 40
0.2499999999999999
 40
0.4999999999999999
 40
0.4999999999999999
 40
0.7499999999999998
 40
0.7499999999999998
 40
1.0
 40
1.0
 40
1.0
 40
1.0
 10
42.41395578614987
 20
55.96040738323695
 30
0.0
 10
42.72590384500402
 20
55.75812316969968
 30
0.0
 10
43.02311623552237
 20
55.51174169243053
 30
0.0
 10
43.55444823964442
 20
54.94201924749125
 30
0.0
 10
43.78820591715319
 20
54.6187992254264
 30
0.0
 10
44.16616548066517
 20
53.92324046006878
 30
0.0
 10
44.31017648005931
 20
53.5512530052919
 30
0.0
 10
44.49910854016303
 20
52.7954739108887
 30
0.0
 10
44.54412504417716
 20
52.4120517521846
 30
0.0
 10
44.54412504417714
 20
52.040258134072
 30
0.0
  0
SPLINE
  5
93
330
1F
100
AcDbEntity
  8
0
  6
Continuous
 62
     7
370
    25
100
AcDbSpline
210
0.0
220
0.0
230
1.0
 70
     8
 71
     3
 72
     8
 73
     4
 74
     0
 42
0.00000001
 43
0.00000001
 40
0.0
 40
0.0
 40
0.0
 40
0.0
 40
1.0
 40
1.0
 40
1.0
 40
1.0
 10
42.89310190188899
 20
56.4898379890987
 30
0.0
 10
42.76578883353957
 20
56.30421364946484
 30
0.0
 10
42.61154043356358
 20
56.13102396700594
 30
0.0
 10
42.45960110777262
 20
55.96040738323695
 30
0.0
  0
SPLINE
  5
94
330
1F
100
AcDbEntity
  8
0
  6
Continuous
 62
     7
370
    25
100
AcDbSpline
210
0.0
220
0.0
230
1.0
 70
     8
 71
     3
 72
    10
 73
     6
 74
     0
 42
0.00000001
 43
0.00000001
 40
0.0
 40
0.0
 40
0.0
 40
0.0
 40
0.5
 40
0.5
 40
1.0
 40
1.0
 40
1.0
 40
1.0
 10
43.17840246515349
 20
57.26814388627573
 30
0.0
 10
43.17840246515349
 20
57.1286727081524
 30
0.0
 10
43.14736866655272
 20
56.99368587151601
 30
0.0
 10
43.04464404496762
 20
56.73139383944281
 30
0.0
 10
42.97434496601859
 20
56.60829158011162
 30
0.0
 10
42.89310190188912
 20
56.48983798909865
 30
0.0
  0
LINE
  5
95
330
1F
100
AcDbEntity
  8
0
  6
Continuous
 62
     7
370
    25
100
AcDbLine
 10
43.1784024652
 20
57.2681438863
 30
0.0
 11
43.1784024652
 21
61.125552713
 31
0.0
  0
LINE
  5
96
330
1F
100
AcDbEntity
  8
0
  6
Continuous
 62
     7
370
    25
100
AcDbLine
 10
122.821592863
 20
61.125552713
 30
0.0
 11
122.821592863
 21
57.2681438863
 31
0.0
  0
SPLINE
  5
97
330
1F
100
AcDbEntity
  8
0
  6
Continuous
 62
     7
370
    25
100
AcDbSpline
210
0.0
220
0.0
230
1.0
 70
     8
 71
     3
 72
    11
 73
     7
 74
     0
 42
0.00000001
 43
0.00000001
 40
0.0
 40
0.0
 40
0.0
 40
0.0
 40
0.2338339097765315
 40
0.4782511419021235
 40
0.7335520024148229
 40
1.0
 40
1.0
 40
1.0
 40
1.0
 10
82.4068152460377
 20
62.56639955209517
 30
0.0
 10
82.3619559792938
 20
62.55652100918596
 30
0.0
 10
82.27020711547132
 20
62.53631682053268
 30
0.0
 10
82.13286953816554
 20
62.5022770056319
 30
0.0
 10
81.99172400675107
 20
62.46487210134771
 30
0.0
 10
81.8978535098327
 20
62.43771690190442
 30
0.0
 10
81.84991549224429
 20
62.42384921747465
 30
0.0
  0
SPLINE
  5
98
330
1F
100
AcDbEntity
  8
0
  6
Continuous
 62
     7
370
    25
100
AcDbSpline
210
0.0
220
0.0
230
1.0
 70
     8
 71
     3
 72
     8
 73
     4
 74
     0
 42
0.00000001
 43
0.00000001
 40
0.0
 40
0.0
 40
0.0
 40
0.0
 40
1.0
 40
1.0
 40
1.0
 40
1.0
 10
82.4068152460377
 20
62.56639955209517
 30
0.0
 10
82.59877508537541
 20
62.54111839719437
 30
0.0
 10
82.8003351444853
 20
62.52810670120643
 30
0.0
 10
82.9999976640537
 20
62.52810670120644
 30
0.0
  0
SPLINE
  5
99
330
1F
100
AcDbEntity
  8
0
  6
Continuous
 62
     7
370
    25
100
AcDbSpline
210
0.0
220
0.0
230
1.0
 70
     8
 71
     3
 72
     8
 73
     4
 74
     0
 42
0.00000001
 43
0.00000001
 40
0.0
 40
0.0
 40
0.0
 40
0.0
 40
1.0
 40
1.0
 40
1.0
 40
1.0
 10
82.9999976640537
 20
62.52810670120644
 30
0.0
 10
83.19966018362207
 20
62.52810670120643
 30
0.0
 10
83.40122024273195
 20
62.54111839719437
 30
0.0
 10
83.59318008206968
 20
62.56639955209517
 30
0.0
  0
SPLINE
  5
9A
330
1F
100
AcDbEntity
  8
0
  6
Continuous
 62
     7
370
    25
100
AcDbSpline
210
0.0
220
0.0
230
1.0
 70
     8
 71
     3
 72
     9
 73
     5
 74
     0
 42
0.00000001
 43
0.00000001
 40
0.0
 40
0.0
 40
0.0
 40
0.0
 40
0.5217611553558961
 40
1.0
 40
1.0
 40
1.0
 40
1.0
 10
84.15007983586308
 20
62.42384921747465
 30
0.0
 10
84.05591194880651
 20
62.45083968475006
 30
0.0
 10
83.87543111751057
 20
62.50256922996125
 30
0.0
 10
83.68449374871965
 20
62.54574920887006
 30
0.0
 10
83.5931800820697
 20
62.56639955209517
 30
0.0
  0
SPLINE
  5
9B
330
1F
100
AcDbEntity
  8
0
  6
Continuous
 62
     7
370
    25
100
AcDbSpline
210
0.0
220
0.0
230
1.0
 70
     8
 71
     3
 72
    24
 73
    20
 74
     0
 42
0.00000001
 43
0.00000001
 40
0.0
 40
0.0
 40
0.0
 40
0.0
 40
0.0237783585328853
 40
0.0476408584476168
 40
0.0716071251819494
 40
0.0956965305602824
 40
0.1199281510806566
 40
0.14432072957961
 40
0.1688926405715392
 40
0.1936618594713657
 40
0.2186459358226164
 40
0.3386457565794859
 40
0.4690714484049734
 40
0.5948476323064129
 40
0.7390586243280876
 40
0.8017927580741582
 40
0.8726055393459468
 40
0.9256361091668255
 40
1.0
 40
1.0
 40
1.0
 40
1.0
 10
52.09153929667627
 20
55.99366559966678
 30
0.0
 10
52.03196261949275
 20
55.9929523735334
 30
0.0
 10
51.91259844889394
 20
55.99152339746615
 30
0.0
 10
51.73364491366066
 20
55.97994995854462
 30
0.0
 10
51.55483068124195
 20
55.96142557425281
 30
0.0
 10
51.37647282684161
 20
55.93524281060201
 30
0.0
 10
51.19889200124393
 20
55.90157124163308
 30
0.0
 10
51.02241066480207
 20
55.86036041989171
 30
0.0
 10
50.84735717700428
 20
55.81163985997323
 30
0.0
 10
50.67404751071854
 20
55.75542487975984
 30
0.0
 10
50.2864081559546
 20
55.61134282986262
 30
0.0
 10
49.69819997674266
 20
55.3050588534461
 30
0.0
 10
49.02459959313717
 20
54.75411025691535
 30
0.0
 10
48.46232789995494
 20
54.0662223900321
 30
0.0
 10
48.13112610569508
 20
53.43146470143834
 30
0.0
 10
47.9417536667669
 20
52.88043251452473
 30
0.0
 10
47.85232036541415
 20
52.50248380224856
 30
0.0
 10
47.79126149495622
 20
52.09689756476774
 30
0.0
 10
47.78334957348613
 20
51.83420110162252
 30
0.0
 10
47.77873115239105
 20
51.68085745538156
 30
0.0
  0
SPLINE
  5
9C
330
1F
100
AcDbEntity
  8
0
  6
Continuous
 62
     7
370
    25
100
AcDbSpline
210
0.0
220
0.0
230
1.0
 70
     8
 71
     3
 72
    23
 73
    19
 74
     0
 42
0.00000001
 43
0.00000001
 40
0.0
 40
0.0
 40
0.0
 40
0.0
 40
0.0323122782330296
 40
0.0612109636789703
 40
0.0866959752615021
 40
0.10876726141964
 40
0.1274248118085631
 40
0.198231204545782
 40
0.2609748306641835
 40
0.405181147763943
 40
0.5309682803848988
 40
0.6613894446659735
 40
0.7813996094455288
 40
0.8262043100327661
 40
0.8703594524577984
 40
0.9139703576420829
 40
0.957146329458709
 40
1.0
 40
1.0
 40
1.0
 40
1.0
 10
118.2212641757163
 20
51.68085745538156
 30
0.0
 10
118.2203814462286
 20
51.74745427304219
 30
0.0
 10
118.218709242176
 20
51.87361236556546
 30
0.0
 10
118.2062776932603
 20
52.05207139046736
 30
0.0
 10
118.1896644263031
 20
52.20903361246673
 30
0.0
 10
118.1705150905681
 20
52.3445349291655
 30
0.0
 10
118.1315773101632
 20
52.57206858969317
 30
0.0
 10
118.0581216299771
 20
52.88042599607603
 30
0.0
 10
117.8689630278727
 20
53.43142714641911
 30
0.0
 10
117.5376492204067
 20
54.066210586533
 30
0.0
 10
116.9754379762448
 20
54.75408141459309
 30
0.0
 10
116.3017678247533
 20
55.30506226896212
 30
0.0
 10
115.6713778212181
 20
55.63334404955327
 30
0.0
 10
115.1897420400213
 20
55.80326277148749
 30
0.0
 10
114.8736913826457
 20
55.88856780876956
 30
0.0
 10
114.5536360109983
 20
55.94896009449322
 30
0.0
 10
114.2314411566276
 20
55.98668695901421
 30
0.0
 10
114.0158485078778
 20
55.99134520332824
 30
0.0
 10
113.9084560314311
 20
55.99366559966678
 30
0.0
  0
LINE
  5
9D
330
1F
100
AcDbEntity
  8
0
  6
Continuous
 62
     7
370
    25
100
AcDbLine
 10
113.9084560314
 20
55.9936655997
 30
0.0
 11
52.0915392967
 21
55.9936655997
 31
0.0
  0
LINE
  5
9E
330
1F
100
AcDbEntity
  8
0
  6
Continuous
 62
     7
370
    25
100
AcDbLine
 10
132.8459310502
 20
56.4335888976
 30
0.0
 11
132.8848118663
 21
56.1517053872
 31
0.0
  0
SPLINE
  5
9F
330
1F
100
AcDbEntity
  8
0
  6
Continuous
 62
     7
370
    25
100
AcDbSpline
210
0.0
220
0.0
230
1.0
 70
     8
 71
     3
 72
    13
 73
     9
 74
     0
 42
0.00000001
 43
0.00000001
 40
0.0
 40
0.0
 40
0.0
 40
0.0
 40
0.7217987454774872
 40
0.9107181448190731
 40
0.9622212958577896
 40
0.977247078286971
 40
0.985125665126077
 40
1.0
 40
1.0
 40
1.0
 40
1.0
 10
33.1151834618213
 20
56.15170538719136
 30
0.0
 10
33.1250918630512
 20
56.28879238995126
 30
0.0
 10
33.13759363150503
 20
56.46175974631554
 30
0.0
 10
33.19507767408345
 20
56.63628475011907
 30
0.0
 10
33.21173753354225
 20
56.68206671256629
 30
0.0
 10
33.21700474548967
 20
56.69523701243738
 30
0.0
 10
33.21936508902478
 20
56.70207544167335
 30
0.0
 10
33.22195949997294
 20
56.70566183286129
 30
0.0
 10
33.22365555192313
 20
56.70800637499048
 30
0.0
  0
SPLINE
  5
A0
330
1F
100
AcDbEntity
  8
0
  6
Continuous
 62
     7
370
    25
100
AcDbSpline
210
0.0
220
0.0
230
1.0
 70
     8
 71
     3
 72
    20
 73
    16
 74
     0
 42
0.00000001
 43
0.00000001
 40
0.0
 40
0.0
 40
0.0
 40
0.0
 40
0.125
 40
0.125
 40
0.25
 40
0.25
 40
0.5
 40
0.5
 40
0.625
 40
0.625
 40
0.75
 40
0.75
 40
0.875
 40
0.875
 40
1.0
 40
1.0
 40
1.0
 40
1.0
 10
42.41395578614987
 20
55.96040738323696
 30
0.0
 10
42.23018004278585
 20
56.07957764462653
 30
0.0
 10
42.03567734563781
 20
56.18730725529406
 30
0.0
 10
41.62832965714628
 20
56.37556555794441
 30
0.0
 10
41.41460255878115
 20
56.4562066120647
 30
0.0
 10
40.76531445079493
 20
56.64842068900086
 30
0.0
 10
40.32347957266684
 20
56.71243589945896
 30
0.0
 10
39.64661673431491
 20
56.71248246925413
 30
0.0
 10
39.42063146832469
 20
56.69602539175312
 30
0.0
 10
38.97679679163578
 20
56.63140046389456
 30
0.0
 10
38.75758306591468
 20
56.58325600731482
 30
0.0
 10
38.32449186724527
 20
56.45455829673011
 30
0.0
 10
38.11299503597744
 20
56.37446642384398
 30
0.0
 10
37.70858947803539
 20
56.18744786173826
 30
0.0
 10
37.51448270557019
 20
56.08011606050042
 30
0.0
 10
37.3298766562531
 20
55.96040738323696
 30
0.0
  0
SPLINE
  5
A1
330
1F
100
AcDbEntity
  8
0
  6
Continuous
 62
     7
370
    25
100
AcDbSpline
210
0.0
220
0.0
230
1.0
 70
     8
 71
     3
 72
    22
 73
    18
 74
     0
 42
0.00000001
 43
0.00000001
 40
0.0
 40
0.0
 40
0.0
 40
0.0
 40
0.125
 40
0.125
 40
0.25
 40
0.25
 40
0.375
 40
0.375
 40
0.5
 40
0.5
 40
0.625
 40
0.625
 40
0.75
 40
0.75
 40
0.875
 40
0.875
 40
1.0
 40
1.0
 40
1.0
 40
1.0
 10
128.6701186718543
 20
55.96040738323697
 30
0.0
 10
128.486193336465
 20
56.07967464829215
 30
0.0
 10
128.2915237690331
 20
56.18748248599724
 30
0.0
 10
127.8838142346849
 20
56.37584999590254
 30
0.0
 10
127.6706617446964
 20
56.4561566999061
 30
0.0
 10
127.2410907229889
 20
56.58348677465489
 30
0.0
 10
127.0228107443454
 20
56.63147193014147
 30
0.0
 10
126.5791388885526
 20
56.69604312670585
 30
0.0
 10
126.3520285143635
 20
56.71249642667902
 30
0.0
 10
125.9029017454375
 20
56.71243740673333
 30
0.0
 10
125.6800662505561
 20
56.69630314223347
 30
0.0
 10
125.2377495038417
 20
56.63229295922169
 30
0.0
 10
125.0172521339936
 20
56.58411136845015
 30
0.0
 10
124.5841842731666
 20
56.45579066386629
 30
0.0
 10
124.374167218986
 20
56.37654553422875
 30
0.0
 10
123.967834194708
 20
56.18910583514131
 30
0.0
 10
123.7697005992384
 20
56.07950327588638
 30
0.0
 10
123.5860395419575
 20
55.96040738323697
 30
0.0
  0
SPLINE
  5
A2
330
1F
100
AcDbEntity
  8
0
  6
Continuous
 62
     7
370
    25
100
AcDbSpline
210
0.0
220
0.0
230
1.0
 70
     8
 71
     3
 72
     8
 73
     4
 74
     0
 42
0.00000001
 43
0.00000001
 40
0.0
 40
0.0
 40
0.0
 40
0.0
 40
1.0
 40
1.0
 40
1.0
 40
1.0
 10
84.23139803521764
 20
63.85599191036476
 30
0.0
 10
84.21522367326328
 20
63.92043970913412
 30
0.0
 10
84.18708061487733
 20
63.98130894558827
 30
0.0
 10
84.15007983586308
 20
64.0373235825299
 30
0.0
  0
SPLINE
  5
A3
330
1F
100
AcDbEntity
  8
0
  6
Continuous
 62
     7
370
    25
100
AcDbSpline
210
0.0
220
0.0
230
1.0
 70
     8
 71
     3
 72
    10
 73
     6
 74
     0
 42
0.00000001
 43
0.00000001
 40
0.0
 40
0.0
 40
0.0
 40
0.0
 40
0.3091200765249932
 40
0.6421260302528402
 40
1.0
 40
1.0
 40
1.0
 40
1.0
 10
84.23143856941046
 20
63.85599644241535
 30
0.0
 10
84.24043225818379
 20
63.82304626875644
 30
0.0
 10
84.25911458297571
 20
63.75459984351748
 30
0.0
 10
84.29613920759925
 20
63.6493358347255
 30
0.0
 10
84.32576972739713
 20
63.57802083372303
 30
0.0
 10
84.34111825814092
 20
63.54107985216592
 30
0.0
  0
SPLINE
  5
A4
330
1F
100
AcDbEntity
  8
0
  6
Continuous
 62
     7
370
    25
100
AcDbSpline
210
0.0
220
0.0
230
1.0
 70
     8
 71
     3
 72
     9
 73
     5
 74
     0
 42
0.00000001
 43
0.00000001
 40
0.0
 40
0.0
 40
0.0
 40
0.0
 40
0.6633751390769937
 40
1.0
 40
1.0
 40
1.0
 40
1.0
 10
84.34111825814094
 20
63.54107985216592
 30
0.0
 10
84.45549356718185
 20
63.31787240113051
 30
0.0
 10
84.62790779000012
 20
62.98139996210307
 30
0.0
 10
84.78291398183245
 20
62.70296010495224
 30
0.0
 10
84.8350929196002
 20
62.60923032676341
 30
0.0
  0
SPLINE
  5
A5
330
1F
100
AcDbEntity
  8
0
  6
Continuous
 62
     7
370
    25
100
AcDbSpline
210
0.0
220
0.0
230
1.0
 70
     8
 71
     3
 72
    10
 73
     6
 74
     0
 42
0.00000001
 43
0.00000001
 40
0.0
 40
0.0
 40
0.0
 40
0.0
 40
0.4223310738267143
 40
0.766519390329306
 40
1.0
 40
1.0
 40
1.0
 40
1.0
 10
81.1597157390687
 20
62.60792040971099
 30
0.0
 10
81.25166139162084
 20
62.76961270178927
 30
0.0
 10
81.4185402454525
 20
63.0630798057411
 30
0.0
 10
81.65114240596861
 20
63.48821671473233
 30
0.0
 10
81.73476030878518
 20
63.75013503061714
 30
0.0
 10
81.76855675869693
 20
63.85599644241545
 30
0.0
  0
SPLINE
  5
A6
330
1F
100
AcDbEntity
  8
0
  6
Continuous
 62
     7
370
    25
100
AcDbSpline
210
0.0
220
0.0
230
1.0
 70
     8
 71
     3
 72
     8
 73
     4
 74
     0
 42
0.00000001
 43
0.00000001
 40
0.0
 40
0.0
 40
0.0
 40
0.0
 40
1.0
 40
1.0
 40
1.0
 40
1.0
 10
81.8499154922443
 20
64.03732358252964
 30
0.0
 10
81.81296313666093
 20
63.98138223878369
 30
0.0
 10
81.78475302602567
 20
63.92036917592824
 30
0.0
 10
81.76859626434232
 20
63.85599202524278
 30
0.0
  0
SPLINE
  5
A7
330
1F
100
AcDbEntity
  8
0
  6
Continuous
 62
     7
370
    25
100
AcDbSpline
210
0.0
220
0.0
230
1.0
 70
     8
 71
     3
 72
     8
 73
     4
 74
     0
 42
0.00000001
 43
0.00000001
 40
0.0
 40
0.0
 40
0.0
 40
0.0
 40
1.0
 40
1.0
 40
1.0
 40
1.0
 10
81.98997179632208
 20
64.19270912624349
 30
0.0
 10
81.93644772288937
 20
64.14783239376686
 30
0.0
 10
81.88919582995992
 20
64.09679244667494
 30
0.0
 10
81.84991549224421
 20
64.03732358252967
 30
0.0
  0
SPLINE
  5
A8
330
1F
100
AcDbEntity
  8
0
  6
Continuous
 62
     7
370
    25
100
AcDbSpline
210
0.0
220
0.0
230
1.0
 70
     8
 71
     3
 72
     8
 73
     4
 74
     0
 42
0.00000001
 43
0.00000001
 40
0.0
 40
0.0
 40
0.0
 40
0.0
 40
1.0
 40
1.0
 40
1.0
 40
1.0
 10
84.1500798358631
 20
64.03732358252974
 30
0.0
 10
84.11079949814739
 20
64.09679244667497
 30
0.0
 10
84.063547605218
 20
64.14783239376686
 30
0.0
 10
84.0100235317853
 20
64.19270912624347
 30
0.0
  0
LINE
  5
A9
330
1F
100
AcDbEntity
  8
0
  6
Continuous
 62
     7
370
    25
100
AcDbLine
 10
33.1151834618
 20
47.4250624112
 30
0.0
 11
33.1151834618
 21
56.1517053872
 31
0.0
  0
LINE
  5
AA
330
1F
100
AcDbEntity
  8
0
  6
Continuous
 62
     7
370
    25
100
AcDbLine
 10
132.8848118663
 20
56.1517053872
 30
0.0
 11
132.8848118663
 21
47.4250624112
 31
0.0
  0
LINE
  5
AB
330
1F
100
AcDbEntity
  8
0
  6
Continuous
 62
     7
370
    25
100
AcDbLine
 10
132.853981011
 20
59.7868176001
 30
0.0
 11
132.8848118663
 21
59.6076141311
 31
0.0
  0
LINE
  5
AC
330
1F
100
AcDbEntity
  8
0
  6
Continuous
 62
     7
370
    25
100
AcDbLine
 10
132.8848118663
 20
59.6076141311
 30
0.0
 11
132.8848118663
 21
56.1517053872
 31
0.0
  0
LINE
  5
AD
330
1F
100
AcDbEntity
  8
0
  6
Continuous
 62
     7
370
    25
100
AcDbLine
 10
33.1151834618
 20
56.1517053872
 30
0.0
 11
33.1151834618
 21
59.6076141311
 31
0.0
  0
LINE
  5
AE
330
1F
100
AcDbEntity
  8
0
  6
Continuous
 62
     7
370
    25
100
AcDbLine
 10
33.1151834618
 20
59.6076141311
 30
0.0
 11
33.1306078122
 21
59.6972691911
 31
0.0
  0
LINE
  5
AF
330
1F
100
AcDbEntity
  8
0
  6
Continuous
 62
     7
370
    25
100
AcDbLine
 10
118.2212641757
 20
47.4250624112
 30
0.0
 11
118.2212641757
 21
51.6808574554
 31
0.0
  0
LINE
  5
B0
330
1F
100
AcDbEntity
  8
0
  6
Continuous
 62
     7
370
    25
100
AcDbLine
 10
47.7787311524
 20
51.6808574554
 30
0.0
 11
47.7787311524
 21
47.4250624112
 31
0.0
  0
LINE
  5
B1
330
1F
100
AcDbEntity
  8
0
  6
Continuous
 62
     7
370
    25
100
AcDbLine
 10
84.0100235318
 20
64.1927091262
 30
0.0
 11
81.9899717963
 21
64.1927091262
 31
0.0
  0
LINE
  5
B2
330
1F
100
AcDbEntity
  8
0
  6
Continuous
 62
     7
370
    25
100
AcDbLine
 10
84.1500798359
 20
65.317644533
 30
0.0
 11
84.1500798359
 21
65.3171125117
 31
0.0
  0
LINE
  5
B3
330
1F
100
AcDbEntity
  8
0
  6
Continuous
 62
     7
370
    25
100
AcDbLine
 10
81.8499154922
 20
65.317644533
 30
0.0
 11
81.8499154922
 21
65.3171125117
 31
0.0
  0
ARC
  5
B4
330
1F
100
AcDbEntity
  8
0
  6
Continuous
 62
     7
370
    25
100
AcDbCircle
 10
34.5527861766
 20
46.6492479537
 30
0.0
 40
1.437602714761738
100
AcDbArc
 50
180.0
 51
270.0
  0
LINE
  5
B5
330
1F
100
AcDbEntity
  8
0
  6
Continuous
 62
     7
370
    25
100
AcDbLine
 10
33.1151834618
 20
46.6492479537
 30
0.0
 11
33.1151834618
 21
47.4250624112
 31
0.0
  0
ARC
  5
B6
330
1F
100
AcDbEntity
  8
0
  6
Continuous
 62
     7
370
    25
100
AcDbCircle
 10
46.3411284376
 20
46.6492479537
 30
0.0
 40
1.437602714761738
100
AcDbArc
 50
270.0
 51
0.0
  0
LINE
  5
B7
330
1F
100
AcDbEntity
  8
0
  6
Continuous
 62
     7
370
    25
100
AcDbLine
 10
47.7787311524
 20
47.4250624112
 30
0.0
 11
47.7787311524
 21
46.6492479537
 31
0.0
  0
ARC
  5
B8
330
1F
100
AcDbEntity
  8
0
  6
Continuous
 62
     7
370
    25
100
AcDbCircle
 10
131.4472091515
 20
46.6492479537
 30
0.0
 40
1.437602714761766
100
AcDbArc
 50
270.0
 51
0.0
  0
LINE
  5
B9
330
1F
100
AcDbEntity
  8
0
  6
Continuous
 62
     7
370
    25
100
AcDbLine
 10
132.8848118663
 20
47.4250624112
 30
0.0
 11
132.8848118663
 21
46.6492479537
 31
0.0
  0
ARC
  5
BA
330
1F
100
AcDbEntity
  8
0
  6
Continuous
 62
     7
370
    25
100
AcDbCircle
 10
119.6588668905
 20
46.6492479537
 30
0.0
 40
1.437602714761738
100
AcDbArc
 50
180.0
 51
270.0
  0
LINE
  5
BB
330
1F
100
AcDbEntity
  8
0
  6
Continuous
 62
     7
370
    25
100
AcDbLine
 10
118.2212641757
 20
46.6492479537
 30
0.0
 11
118.2212641757
 21
47.4250624112
 31
0.0
  0
LINE
  5
BC
330
1F
100
AcDbEntity
  8
0
  6
Continuous
 62
     7
370
    25
100
AcDbLine
 10
131.4472091515
 20
45.211645239
 30
0.0
 11
119.6588668905
 21
45.211645239
 31
0.0
  0
LINE
  5
BD
330
1F
100
AcDbEntity
  8
0
  6
Continuous
 62
     7
370
    25
100
AcDbLine
 10
46.3411284376
 20
45.211645239
 30
0.0
 11
34.5527861766
 21
45.211645239
 31
0.0
  0
CIRCLE
  5
BE
330
1F
100
AcDbEntity
  8
0
  6
Continuous
 62
     7
370
    25
100
AcDbCircle
 10
39.8719162212
 20
52.0402581341
 30
0.0
 40
2.515804750833048
  0
CIRCLE
  5
BF
330
1F
100
AcDbEntity
  8
0
  6
Continuous
 62
     7
370
    25
100
AcDbCircle
 10
126.1280791069
 20
52.0402581341
 30
0.0
 40
2.515804750833041
  0
SPLINE
  5
C0
330
1F
100
AcDbEntity
  8
0
  6
HIDDEN
 62
     7
370
    18
100
AcDbSpline
210
0.0
220
0.0
230
1.0
 70
     8
 71
     3
 72
    12
 73
     8
 74
     0
 42
0.00000001
 43
0.00000001
 40
0.0
 40
0.0
 40
0.0
 40
0.0
 40
0.2500000000000002
 40
0.2500000000000002
 40
0.5000000000000003
 40
0.5000000000000003
 40
1.0
 40
1.0
 40
1.0
 40
1.0
 10
81.60197402606615
 20
62.29302397862079
 30
0.0
 10
81.63996204070224
 20
62.35025254109632
 30
0.0
 10
81.691072470361
 20
62.39012985625125
 30
0.0
 10
81.81153151869493
 20
62.44854751960061
 30
0.0
 10
81.87840165135637
 20
62.46635693338531
 30
0.0
 10
82.09196544193543
 20
62.51010501047411
 30
0.0
 10
82.24852844442957
 20
62.52790121185918
 30
0.0
 10
82.40681480343878
 20
62.56640083503356
 30
0.0
  0
SPLINE
  5
C1
330
1F
100
AcDbEntity
  8
0
  6
HIDDEN
 62
     7
370
    18
100
AcDbSpline
210
0.0
220
0.0
230
1.0
 70
     8
 71
     3
 72
    12
 73
     8
 74
     0
 42
0.00000001
 43
0.00000001
 40
0.0
 40
0.0
 40
0.0
 40
0.0
 40
0.5
 40
0.5
 40
0.75
 40
0.75
 40
1.0
 40
1.0
 40
1.0
 40
1.0
 10
83.59318052466863
 20
62.56640083503362
 30
0.0
 10
83.7511479244539
 20
62.52797879157025
 30
0.0
 10
83.9060277578119
 20
62.51028043458962
 30
0.0
 10
84.1183398133434
 20
62.46713732662722
 30
0.0
 10
84.18653667848558
 20
62.44920046192752
 30
0.0
 10
84.30751298405433
 20
62.39108754296969
 30
0.0
 10
84.35990508628696
 20
62.35044567479309
 30
0.0
 10
84.39802130204123
 20
62.29302397862079
 30
0.0
  0
LINE
  5
C2
330
1F
100
AcDbEntity
  8
0
  6
HIDDEN
 62
     7
370
    18
100
AcDbLine
 10
117.0711820039
 20
63.5410798522
 30
0.0
 11
117.0711820039
 21
65.6974839243
 31
0.0
  0
LINE
  5
C3
330
1F
100
AcDbEntity
  8
0
  6
HIDDEN
 62
     7
370
    18
100
AcDbLine
 10
117.0711820039
 20
61.38467578
 30
0.0
 11
117.0711820039
 21
63.5410798522
 31
0.0
  0
LINE
  5
C4
330
1F
100
AcDbEntity
  8
0
  6
HIDDEN
 62
     7
370
    18
100
AcDbLine
 10
48.9288133242
 20
63.5410798522
 30
0.0
 11
48.9288133242
 21
65.6974839243
 31
0.0
  0
LINE
  5
C5
330
1F
100
AcDbEntity
  8
0
  6
HIDDEN
 62
     7
370
    18
100
AcDbLine
 10
48.9288133242
 20
61.38467578
 30
0.0
 11
48.9288133242
 21
63.5410798522
 31
0.0
  0
SPLINE
  5
C6
330
1F
100
AcDbEntity
  8
0
  6
HIDDEN
 62
     7
370
    18
100
AcDbSpline
210
0.0
220
0.0
230
1.0
 70
     8
 71
     3
 72
    14
 73
    10
 74
     0
 42
0.00000001
 43
0.00000001
 40
0.0
 40
0.0
 40
0.0
 40
0.0
 40
0.1043987905781468
 40
0.253420777861541
 40
0.4031325897836824
 40
0.5384901155358641
 40
0.6798176341244268
 40
0.8874017170416453
 40
1.0
 40
1.0
 40
1.0
 40
1.0
 10
84.8350929196002
 20
62.60923032676341
 30
0.0
 10
84.88942127175478
 20
62.51326270456982
 30
0.0
 10
85.021299554891
 20
62.28030799952832
 30
0.0
 10
85.14305031209673
 20
61.99468460624871
 30
0.0
 10
85.17191184760989
 20
61.78737207461617
 30
0.0
 10
85.08163228424105
 20
61.72378814658863
 30
0.0
 10
84.88486172690219
 20
61.79368292715326
 30
0.0
 10
84.62533186854746
 20
61.99081359723207
 30
0.0
 10
84.45718466226623
 20
62.21442293786988
 30
0.0
 10
84.39805246533923
 20
62.29305946034174
 30
0.0
  0
SPLINE
  5
C7
330
1F
100
AcDbEntity
  8
0
  6
HIDDEN
 62
     7
370
    18
100
AcDbSpline
210
0.0
220
0.0
230
1.0
 70
     8
 71
     3
 72
    15
 73
    11
 74
     0
 42
0.00000001
 43
0.00000001
 40
0.0
 40
0.0
 40
0.0
 40
0.0
 40
0.2157583329980455
 40
0.3224833782381626
 40
0.4332987028038785
 40
0.5752636460409488
 40
0.7176668708322624
 40
0.8516515144094129
 40
0.9974801843209417
 40
1.0
 40
1.0
 40
1.0
 40
1.0
 10
81.60194286276815
 20
62.29305946034174
 30
0.0
 10
81.48396843864467
 20
62.14897433726743
 30
0.0
 10
81.3076378640226
 20
61.93361738397057
 30
0.0
 10
81.08474537753095
 20
61.78690137321544
 30
0.0
 10
80.93472251584025
 20
61.7277313404588
 30
0.0
 10
80.83579265873176
 20
61.76746006526229
 30
0.0
 10
80.84213712114615
 20
61.94392418544003
 30
0.0
 10
80.95888751447991
 20
62.23611345124048
 30
0.0
 10
81.07883735907443
 20
62.46465503972845
 30
0.0
 10
81.15836490123006
 20
62.60552757886109
 30
0.0
 10
81.1597157390687
 20
62.60792040971099
 30
0.0
  0
ARC
  5
C8
330
1F
100
AcDbEntity
  8
0
  6
HIDDEN
 62
     7
370
    18
100
AcDbCircle
 10
82.9999976641
 20
58.3527888694
 30
0.0
 40
5.926619682428689
100
AcDbArc
 50
80.1876490944
 51
99.8123509056
  0
SPLINE
  5
C9
330
1F
100
AcDbEntity
  8
0
  6
HIDDEN
 62
     7
370
    18
100
AcDbSpline
210
0.0
220
0.0
230
1.0
 70
     8
 71
     3
 72
    10
 73
     6
 74
     0
 42
0.00000001
 43
0.00000001
 40
0.0
 40
0.0
 40
0.0
 40
0.0
 40
0.5
 40
0.5
 40
1.0
 40
1.0
 40
1.0
 40
1.0
 10
122.8215928629539
 20
62.04464314491821
 30
0.0
 10
122.8215928629539
 20
61.7933167735176
 30
0.0
 10
122.9217139501121
 20
61.55383826652047
 30
0.0
 10
123.1930769008844
 20
61.12300798204836
 30
0.0
 10
123.368170798585
 20
60.92559954551385
 30
0.0
 10
123.5403942203347
 20
60.73138953205381
 30
0.0
  0
SPLINE
  5
CA
330
1F
100
AcDbEntity
  8
0
  6
HIDDEN
 62
     7
370
    18
100
AcDbSpline
210
0.0
220
0.0
230
1.0
 70
     8
 71
     3
 72
    10
 73
     6
 74
     0
 42
0.00000001
 43
0.00000001
 40
0.0
 40
0.0
 40
0.0
 40
0.0
 40
0.5
 40
0.5
 40
1.0
 40
1.0
 40
1.0
 40
1.0
 10
43.17840246515349
 20
62.04464314491821
 30
0.0
 10
43.17840246515349
 20
61.7933167735176
 30
0.0
 10
43.07828137799527
 20
61.55383826652047
 30
0.0
 10
42.80691842722297
 20
61.12300798204836
 30
0.0
 10
42.63182452952238
 20
60.92559954551385
 30
0.0
 10
42.45960110777262
 20
60.73138953205381
 30
0.0
  0
SPLINE
  5
CB
330
1F
100
AcDbEntity
  8
0
  6
HIDDEN
 62
     7
370
    18
100
AcDbSpline
210
0.0
220
0.0
230
1.0
 70
     8
 71
     3
 72
    14
 73
    10
 74
     0
 42
0.00000001
 43
0.00000001
 40
0.0
 40
0.0
 40
0.0
 40
0.0
 40
0.25
 40
0.25
 40
0.5
 40
0.5
 40
0.75
 40
0.75
 40
1.0
 40
1.0
 40
1.0
 40
1.0
 10
33.11518346182131
 20
54.97687632200217
 30
0.0
 10
33.11518346182132
 20
55.35084074461296
 30
0.0
 10
33.14606135504925
 20
55.75430158214344
 30
0.0
 10
33.28617862659475
 20
56.53552243082281
 30
0.0
 10
33.39589285282231
 20
56.91086058628609
 30
0.0
 10
33.67660224382331
 20
57.53046512904774
 30
0.0
 10
33.8466477127767
 20
57.7726352706799
 30
0.0
 10
34.20057673287821
 20
58.08191348064417
 30
0.0
 10
34.383363071873
 20
58.15006967180939
 30
0.0
 10
34.55278617658305
 20
58.15006967180939
 30
0.0
  0
SPLINE
  5
CC
330
1F
100
AcDbEntity
  8
0
  6
HIDDEN
 62
     7
370
    18
100
AcDbSpline
210
0.0
220
0.0
230
1.0
 70
     8
 71
     3
 72
    14
 73
    10
 74
     0
 42
0.00000001
 43
0.00000001
 40
0.0
 40
0.0
 40
0.0
 40
0.0
 40
0.2500000000000001
 40
0.2500000000000001
 40
0.5000000000000001
 40
0.5000000000000001
 40
0.7500000000000001
 40
0.7500000000000001
 40
1.0
 40
1.0
 40
1.0
 40
1.0
 10
131.4472091515243
 20
58.15006967180939
 30
0.0
 10
131.6166322562344
 20
58.15006967180939
 30
0.0
 10
131.7994185952292
 20
58.08191348064417
 30
0.0
 10
132.1533476153307
 20
57.77263527067989
 30
0.0
 10
132.323393084284
 20
57.53046512904774
 30
0.0
 10
132.604102475285
 20
56.91086058628609
 30
0.0
 10
132.7138167015126
 20
56.53552243082281
 30
0.0
 10
132.8539339730581
 20
55.75430158214344
 30
0.0
 10
132.8848118662861
 20
55.35084074461296
 30
0.0
 10
132.8848118662861
 20
54.97687632200217
 30
0.0
  0
LINE
  5
CD
330
1F
100
AcDbEntity
  8
0
  6
HIDDEN
 62
     7
370
    18
100
AcDbLine
 10
131.4472091515
 20
58.1500696718
 30
0.0
 11
34.5527861766
 21
58.1500696718
 31
0.0
  0
LINE
  5
CE
330
1F
100
AcDbEntity
  8
0
  6
HIDDEN
 62
     7
370
    18
100
AcDbLine
 10
80.1398877475
 20
63.9316317084
 30
0.0
 11
80.1324528769
 21
63.9804599977
 31
0.0
  0
ARC
  5
CF
330
1F
100
AcDbEntity
  8
0
  6
HIDDEN
 62
     7
370
    18
100
AcDbCircle
 10
86.594004451
 20
66.056884603
 30
0.0
 40
0.7188013573808689
100
AcDbArc
 50
180.0
 51
270.0
  0
ARC
  5
D0
330
1F
100
AcDbEntity
  8
0
  6
HIDDEN
 62
     7
370
    18
100
AcDbCircle
 10
79.4059908771
 20
66.056884603
 30
0.0
 40
0.7188013573808689
100
AcDbArc
 50
270.0
 51
0.0
  0
LINE
  5
D1
330
1F
100
AcDbEntity
  8
0
  6
HIDDEN
 62
     7
370
    18
100
AcDbLine
 10
33.2630116331
 20
56.7703067942
 30
0.0
 11
33.1562305579
 21
56.4493132936
 31
0.0
  0
LINE
  5
D2
330
1F
100
AcDbEntity
  8
0
  6
HIDDEN
 62
     7
370
    18
100
AcDbLine
 10
122.821592863
 20
65.6974839243
 30
0.0
 11
117.0711820039
 21
65.6974839243
 31
0.0
  0
LINE
  5
D3
330
1F
100
AcDbEntity
  8
0
  6
HIDDEN
 62
     7
370
    18
100
AcDbLine
 10
117.0711820039
 20
61.38467578
 30
0.0
 11
122.821592863
 21
61.38467578
 31
0.0
  0
LINE
  5
D4
330
1F
100
AcDbEntity
  8
0
  6
HIDDEN
 62
     7
370
    18
100
AcDbLine
 10
43.1784024652
 20
61.38467578
 30
0.0
 11
48.9288133242
 21
61.38467578
 31
0.0
  0
LINE
  5
D5
330
1F
100
AcDbEntity
  8
0
  6
HIDDEN
 62
     7
370
    18
100
AcDbLine
 10
48.9288133242
 20
65.6974839243
 30
0.0
 11
43.1784024652
 21
65.6974839243
 31
0.0
  0
LINE
  5
D6
330
1F
100
AcDbEntity
  8
0
  6
HIDDEN
 62
     7
370
    18
100
AcDbLine
 10
80.8435935919
 20
61.8683615699
 30
0.0
 11
80.8435935919
 21
55.9936655997
 31
0.0
  0
LINE
  5
D7
330
1F
100
AcDbEntity
  8
0
  6
HIDDEN
 62
     7
370
    18
100
AcDbLine
 10
85.1564017362
 20
55.9936655997
 30
0.0
 11
85.1564017362
 21
61.8670862041
 31
0.0
  0
LINE
  5
D8
330
1F
100
AcDbEntity
  8
0
  6
HIDDEN
 62
     7
370
    18
100
AcDbLine
 10
48.9288133242
 20
61.7440764587
 30
0.0
 11
80.9397862426
 21
61.7440764587
 31
0.0
  0
LINE
  5
D9
330
1F
100
AcDbEntity
  8
0
  6
HIDDEN
 62
     7
370
    18
100
AcDbLine
 10
79.4059908771
 20
65.3380832456
 30
0.0
 11
48.9288133242
 21
65.3380832456
 31
0.0
  0
LINE
  5
DA
330
1F
100
AcDbEntity
  8
0
  6
HIDDEN
 62
     7
370
    18
100
AcDbLine
 10
85.066046034
 20
61.7440764587
 30
0.0
 11
117.0711820039
 21
61.7440764587
 31
0.0
  0
LINE
  5
DB
330
1F
100
AcDbEntity
  8
0
  6
HIDDEN
 62
     7
370
    18
100
AcDbLine
 10
117.0711820039
 20
65.3380832456
 30
0.0
 11
86.594004451
 21
65.3380832456
 31
0.0
  0
ARC
  5
DC
330
1F
100
AcDbEntity
  8
0
  6
HIDDEN
 62
     7
370
    18
100
AcDbCircle
 10
131.4472091515
 20
56.1374258711
 30
0.0
 40
1.437602714761745
100
AcDbArc
 50
19.830836019
 51
90.0
  0
LWPOLYLINE
  5
DD
330
1F
100
AcDbEntity
  8
0
  6
HIDDEN
 62
     7
370
    18
100
AcDbPolyline
 90
        3
 70
   128
 43
0.0
 10
132.8138721493
 20
56.5834458437
 10
132.8571887332
 20
56.4178882477
 10
132.8848118663
 20
56.1374258711
  0
ARC
  5
DE
330
1F
100
AcDbEntity
  8
0
  6
HIDDEN
 62
     7
370
    18
100
AcDbCircle
 10
34.5527861766
 20
56.1374258711
 30
0.0
 40
1.437602714761745
100
AcDbArc
 50
90.0
 51
180.0
  0
LINE
  5
DF
330
1F
100
AcDbEntity
  8
0
  6
HIDDEN
 62
     7
370
    18
100
AcDbLine
 10
123.5403942203
 20
57.5750285859
 30
0.0
 11
131.4472091515
 21
57.5750285859
 31
0.0
  0
LINE
  5
E0
330
1F
100
AcDbEntity
  8
0
  6
HIDDEN
 62
     7
370
    18
100
AcDbLine
 10
34.5527861766
 20
57.5750285859
 30
0.0
 11
42.4596011078
 21
57.5750285859
 31
0.0
  0
ARC
  5
E1
330
1F
100
AcDbEntity
  8
0
  6
HIDDEN
 62
     7
370
    18
100
AcDbCircle
 10
123.5403942203
 20
58.2938299433
 30
0.0
 40
0.7188013573808689
100
AcDbArc
 50
180.0
 51
270.0
  0
ARC
  5
E2
330
1F
100
AcDbEntity
  8
0
  6
HIDDEN
 62
     7
370
    18
100
AcDbCircle
 10
42.4596011078
 20
58.2938299433
 30
0.0
 40
0.7188013573808689
100
AcDbArc
 50
270.0
 51
0.0
  0
LINE
  5
E3
330
1F
100
AcDbEntity
  8
0
  6
HIDDEN
 62
     7
370
    18
100
AcDbLine
 10
85.8720333744
 20
66.4202740969
 30
0.0
 11
85.8684869629
 21
66.4128307098
 31
0.0
  0
LINE
  5
E4
330
1F
100
AcDbEntity
  8
0
  6
HIDDEN
 62
     7
370
    18
100
AcDbLine
 10
80.1315083652
 20
66.4128307098
 30
0.0
 11
80.1279619538
 21
66.4202740969
 31
0.0
  0
INSERT
  5
F0
330
1F
100
AcDbEntity
  8
10
100
AcDbBlockReference
  2
SW_CENTERMARKSYMBOL_0
 10
126.1280791069
 20
52.0402581341
 30
0.0
  0
INSERT
  5
FC
330
1F
100
AcDbEntity
  8
10
100
AcDbBlockReference
  2
SW_CENTERMARKSYMBOL_1
 10
39.8719162212
 20
52.0402581341
 30
0.0
  0
LINE
  5
FD
330
1F
100
AcDbEntity
  8
0
  6
Continuous
 62
     7
370
    25
100
AcDbLine
 10
43.1784024652
 20
151.0705958701
 30
0.0
 11
78.4009787791
 21
151.0705958701
 31
0.0
  0
LINE
  5
FE
330
1F
100
AcDbEntity
  8
0
  6
Continuous
 62
     7
370
    25
100
AcDbLine
 10
87.599016549
 20
151.0705958701
 30
0.0
 11
122.821592863
 21
151.0705958701
 31
0.0
  0
SPLINE
  5
FF
330
1F
100
AcDbEntity
  8
0
  6
Continuous
 62
     7
370
    25
100
AcDbSpline
210
0.0
220
0.0
230
1.0
 70
     8
 71
     3
 72
    13
 73
     9
 74
     0
 42
0.00000001
 43
0.00000001
 40
0.0
 40
0.0
 40
0.0
 40
0.0
 40
0.2915763370678293
 40
0.4238716441408718
 40
0.5461139424234444
 40
0.7677796566287186
 40
0.8790823343415978
 40
1.0
 40
1.0
 40
1.0
 40
1.0
 10
84.15007983586308
 20
158.077111465179
 30
0.0
 10
84.41732501103736
 20
158.0748693828627
 30
0.0
 10
84.80582585074539
 20
158.0716100130275
 30
0.0
 10
85.22509506196677
 20
158.0269280951711
 30
0.0
 10
85.52754947307172
 20
157.9643922789985
 30
0.0
 10
85.68874500871209
 20
157.8886285910236
 30
0.0
 10
85.79160068232531
 20
157.76958324734
 30
0.0
 10
85.83120705434706
 20
157.6474007484881
 30
0.0
 10
85.85183018314164
 20
157.5837800409694
 30
0.0
  0
SPLINE
  5
100
330
1F
100
AcDbEntity
  8
0
  6
Continuous
 62
     7
370
    25
100
AcDbSpline
210
0.0
220
0.0
230
1.0
 70
     8
 71
     3
 72
    13
 73
     9
 74
     0
 42
0.00000001
 43
0.00000001
 40
0.0
 40
0.0
 40
0.0
 40
0.0
 40
0.1658212745132656
 40
0.3620389318856246
 40
0.4827422562656305
 40
0.6269498737314899
 40
0.7986106897639829
 40
1.0
 40
1.0
 40
1.0
 40
1.0
 10
80.14781308811637
 20
157.581185914482
 30
0.0
 10
80.17562520290791
 20
157.661817499919
 30
0.0
 10
80.23634761842528
 20
157.8378610935626
 30
0.0
 10
80.38305407734481
 20
157.936796125888
 30
0.0
 10
80.61964208640498
 20
158.0102280910508
 30
0.0
 10
80.91671071553117
 20
158.0536306914191
 30
0.0
 10
81.3354246390346
 20
158.0777658206471
 30
0.0
 10
81.66954319976882
 20
158.0773407914718
 30
0.0
 10
81.84991549224429
 20
158.0771113415229
 30
0.0
  0
SPLINE
  5
101
330
1F
100
AcDbEntity
  8
0
  6
Continuous
 62
     7
370
    25
100
AcDbSpline
210
0.0
220
0.0
230
1.0
 70
     8
 71
     3
 72
    11
 73
     7
 74
     0
 42
0.00000001
 43
0.00000001
 40
0.0
 40
0.0
 40
0.0
 40
0.0
 40
0.2884060244315936
 40
0.5456436244009848
 40
0.7746749751047816
 40
1.0
 40
1.0
 40
1.0
 40
1.0
 10
78.40871166983406
 20
151.0768523122754
 30
0.0
 10
78.60316675069024
 20
151.1020002719234
 30
0.0
 10
78.97106189196083
 20
151.1495784176144
 30
0.0
 10
79.39434939399126
 20
151.3971016196682
 30
0.0
 10
79.70355942876024
 20
151.6494913617473
 30
0.0
 10
79.85978661493672
 20
151.7804597439081
 30
0.0
 10
79.93726301123054
 20
151.8454097601414
 30
0.0
  0
SPLINE
  5
102
330
1F
100
AcDbEntity
  8
0
  6
Continuous
 62
     7
370
    25
100
AcDbSpline
210
0.0
220
0.0
230
1.0
 70
     8
 71
     3
 72
    11
 73
     7
 74
     0
 42
0.00000001
 43
0.00000001
 40
0.0
 40
0.0
 40
0.0
 40
0.0
 40
0.2253250248952344
 40
0.4543563755989832
 40
0.71159397556829
 40
1.0
 40
1.0
 40
1.0
 40
1.0
 10
86.06273231687773
 20
151.8454097601407
 30
0.0
 10
86.14020871317122
 20
151.7804597439077
 30
0.0
 10
86.29643589934707
 20
151.6494913617476
 30
0.0
 10
86.60564593411603
 20
151.3971016196682
 30
0.0
 10
87.02893343614627
 20
151.1495784176145
 30
0.0
 10
87.39682857741698
 20
151.1020002719234
 30
0.0
 10
87.59128365827328
 20
151.0768523122754
 30
0.0
  0
SPLINE
  5
103
330
1F
100
AcDbEntity
  8
0
  6
Continuous
 62
     7
370
    25
100
AcDbSpline
210
0.0
220
0.0
230
1.0
 70
     8
 71
     3
 72
    11
 73
     7
 74
     0
 42
0.00000001
 43
0.00000001
 40
0.0
 40
0.0
 40
0.0
 40
0.0
 40
0.1944485474306523
 40
0.4237123593819092
 40
0.6913738489956479
 40
1.0
 40
1.0
 40
1.0
 40
1.0
 10
79.93734787448248
 20
151.8454778628561
 30
0.0
 10
79.98783220074134
 20
151.8795116434452
 30
0.0
 10
80.09783987770057
 20
151.9536728221356
 30
0.0
 10
80.4808143886379
 20
152.0987006288416
 30
0.0
 10
81.07147546774259
 20
152.2304605071203
 30
0.0
 10
81.57842356746683
 20
152.2521389769138
 30
0.0
 10
81.84991549224429
 20
152.2637487048004
 30
0.0
  0
SPLINE
  5
104
330
1F
100
AcDbEntity
  8
0
  6
Continuous
 62
     7
370
    25
100
AcDbSpline
210
0.0
220
0.0
230
1.0
 70
     8
 71
     3
 72
    11
 73
     7
 74
     0
 42
0.00000001
 43
0.00000001
 40
0.0
 40
0.0
 40
0.0
 40
0.0
 40
0.3086261510043288
 40
0.5762876406179954
 40
0.8055514525692741
 40
1.0
 40
1.0
 40
1.0
 40
1.0
 10
84.15007983586308
 20
152.2637487048004
 30
0.0
 10
84.42157176064049
 20
152.2521389769136
 30
0.0
 10
84.9285198603646
 20
152.2304605071199
 30
0.0
 10
85.51918093946931
 20
152.0987006288418
 30
0.0
 10
85.90215545040705
 20
151.9536728221353
 30
0.0
 10
86.01216312736642
 20
151.8795116434449
 30
0.0
 10
86.06264745362533
 20
151.8454778628558
 30
0.0
  0
LINE
  5
105
330
1F
100
AcDbEntity
  8
0
  6
Continuous
 62
     7
370
    25
100
AcDbLine
 10
81.8499154922
 20
152.2633920332
 30
0.0
 11
84.1500798359
 21
152.2633920332
 31
0.0
  0
ARC
  5
106
330
1F
100
AcDbEntity
  8
0
  6
Continuous
 62
     7
370
    25
100
AcDbCircle
 10
123.5403942203
 20
153.4901383365
 30
0.0
 40
0.7188013573808826
100
AcDbArc
 50
90.0
 51
125.420790195
  0
ARC
  5
107
330
1F
100
AcDbEntity
  8
0
  6
Continuous
 62
     7
370
    25
100
AcDbCircle
 10
42.4596011078
 20
153.4901383365
 30
0.0
 40
0.718801357380882
100
AcDbArc
 50
52.8193709391
 51
90.0
  0
SPLINE
  5
108
330
1F
100
AcDbEntity
  8
0
  6
Continuous
 62
     7
370
    25
100
AcDbSpline
210
0.0
220
0.0
230
1.0
 70
     8
 71
     3
 72
    12
 73
     8
 74
     0
 42
0.00000001
 43
0.00000001
 40
0.0
 40
0.0
 40
0.0
 40
0.0
 40
0.1466506227444531
 40
0.3025101186694755
 40
0.5712384542190336
 40
0.7917873195430742
 40
0.9999999999999999
 40
0.9999999999999999
 40
0.9999999999999999
 40
0.9999999999999999
 10
131.4472091515243
 20
154.2089572456438
 30
0.0
 10
131.5489923936423
 20
154.2159354054026
 30
0.0
 10
131.7589503200081
 20
154.2303299159558
 30
0.0
 10
132.1325522676742
 20
154.3732936461791
 30
0.0
 10
132.4833200030196
 20
154.6583265718115
 30
0.0
 10
132.7411884755531
 20
155.0688995835818
 30
0.0
 10
132.8143948685878
 20
155.3518427491905
 30
0.0
 10
132.8499449300855
 20
155.4892439585761
 30
0.0
  0
SPLINE
  5
109
330
1F
100
AcDbEntity
  8
0
  6
Continuous
 62
     7
370
    25
100
AcDbSpline
210
0.0
220
0.0
230
1.0
 70
     8
 71
     3
 72
    10
 73
     6
 74
     0
 42
0.00000001
 43
0.00000001
 40
0.0
 40
0.0
 40
0.0
 40
0.0
 40
0.5415553151363083
 40
0.7755631253723257
 40
1.0
 40
1.0
 40
1.0
 40
1.0
 10
132.8251655890691
 20
155.3799789843285
 30
0.0
 10
132.844113859765
 20
155.4687924336633
 30
0.0
 10
132.8712497397583
 20
155.5959824628551
 30
0.0
 10
132.8831621457248
 20
155.7589686000782
 30
0.0
 10
132.8842696666592
 20
155.825613448326
 30
0.0
 10
132.8848118662861
 20
155.8582402012248
 30
0.0
  0
SPLINE
  5
10A
330
1F
100
AcDbEntity
  8
0
  6
Continuous
 62
     7
370
    25
100
AcDbSpline
210
0.0
220
0.0
230
1.0
 70
     8
 71
     3
 72
     9
 73
     5
 74
     0
 42
0.00000001
 43
0.00000001
 40
0.0
 40
0.0
 40
0.0
 40
0.0
 40
0.6884575584736818
 40
1.0
 40
1.0
 40
1.0
 40
1.0
 10
132.8603118717721
 20
155.5498656378437
 30
0.0
 10
132.8611711877109
 20
155.5589576117359
 30
0.0
 10
132.8624193633293
 20
155.5721639071427
 30
0.0
 10
132.8647150094702
 20
155.5953788944509
 30
0.0
 10
132.8654302006738
 20
155.6026113482769
 30
0.0
  0
SPLINE
  5
10B
330
1F
100
AcDbEntity
  8
0
  6
Continuous
 62
     7
370
    25
100
AcDbSpline
210
0.0
220
0.0
230
1.0
 70
     8
 71
     3
 72
     9
 73
     5
 74
     0
 42
0.00000001
 43
0.00000001
 40
0.0
 40
0.0
 40
0.0
 40
0.0
 40
0.3115418590978097
 40
1.0
 40
1.0
 40
1.0
 40
1.0
 10
33.13456511351942
 20
155.6026114128917
 30
0.0
 10
33.1352803027484
 20
155.5953789775704
 30
0.0
 10
33.13757594684271
 20
155.5721640062585
 30
0.0
 10
33.13882412260041
 20
155.5589577165877
 30
0.0
 10
33.13968343936209
 20
155.5498657389527
 30
0.0
  0
SPLINE
  5
10C
330
1F
100
AcDbEntity
  8
0
  6
Continuous
 62
     7
370
    25
100
AcDbSpline
210
0.0
220
0.0
230
1.0
 70
     8
 71
     3
 72
    12
 73
     8
 74
     0
 42
0.00000001
 43
0.00000001
 40
0.0
 40
0.0
 40
0.0
 40
0.0
 40
0.2082126804558994
 40
0.4287615457782316
 40
0.6974898813243976
 40
0.8533493772472416
 40
1.0
 40
1.0
 40
1.0
 40
1.0
 10
33.15005039802167
 20
155.4892439585773
 30
0.0
 10
33.18560045951909
 20
155.3518427491923
 30
0.0
 10
33.25880685255319
 20
155.0688995835852
 30
0.0
 10
33.51667532508314
 20
154.6583265718176
 30
0.0
 10
33.86744306042272
 20
154.3732936461861
 30
0.0
 10
34.24104500808897
 20
154.2303299159576
 30
0.0
 10
34.45100293445918
 20
154.2159354054034
 30
0.0
 10
34.55278617658303
 20
154.2089572456438
 30
0.0
  0
SPLINE
  5
10D
330
1F
100
AcDbEntity
  8
0
  6
Continuous
 62
     7
370
    25
100
AcDbSpline
210
0.0
220
0.0
230
1.0
 70
     8
 71
     3
 72
    10
 73
     6
 74
     0
 42
0.00000001
 43
0.00000001
 40
0.0
 40
0.0
 40
0.0
 40
0.0
 40
0.224436874186328
 40
0.4584446844903529
 40
1.0
 40
1.0
 40
1.0
 40
1.0
 10
33.11518346182131
 20
155.8582402012248
 30
0.0
 10
33.11572565928133
 20
155.8256134482941
 30
0.0
 10
33.11683317579077
 20
155.7589685999043
 30
0.0
 10
33.1287455880633
 20
155.5959824628476
 30
0.0
 10
33.15588146822326
 20
155.4687924336678
 30
0.0
 10
33.17482973903773
 20
155.3799789843307
 30
0.0
  0
LINE
  5
10E
330
1F
100
AcDbEntity
  8
0
  6
Continuous
 62
     7
370
    25
100
AcDbLine
 10
41.2969686411
 20
154.2089396939
 30
0.0
 11
42.4596011078
 21
154.2089396939
 31
0.0
  0
LINE
  5
10F
330
1F
100
AcDbEntity
  8
0
  6
Continuous
 62
     7
370
    25
100
AcDbLine
 10
34.5527861766
 20
154.2089396939
 30
0.0
 11
38.4468638013
 21
154.2089396939
 31
0.0
  0
LINE
  5
110
330
1F
100
AcDbEntity
  8
0
  6
Continuous
 62
     7
370
    25
100
AcDbLine
 10
127.5040211907
 20
154.2089396939
 30
0.0
 11
131.4472091515
 21
154.2089396939
 31
0.0
  0
LINE
  5
111
330
1F
100
AcDbEntity
  8
0
  6
Continuous
 62
     7
370
    25
100
AcDbLine
 10
123.5403942203
 20
154.2089396939
 30
0.0
 11
124.7270907254
 21
154.2089396939
 31
0.0
  0
LINE
  5
112
330
1F
100
AcDbEntity
  8
0
  6
Continuous
 62
     7
370
    25
100
AcDbLine
 10
43.1784024652
 20
151.0705958701
 30
0.0
 11
43.1784024652
 21
160.9957014615
 31
0.0
  0
LINE
  5
113
330
1F
100
AcDbEntity
  8
0
  6
Continuous
 62
     7
370
    25
100
AcDbLine
 10
122.821592863
 20
160.9957014615
 30
0.0
 11
122.821592863
 21
151.0705958701
 31
0.0
  0
LINE
  5
114
330
1F
100
AcDbEntity
  8
0
  6
Continuous
 62
     7
370
    25
100
AcDbLine
 10
80.1247922345
 20
158.2822580933
 30
0.0
 11
80.1247922345
 21
152.7973661709
 31
0.0
  0
ARC
  5
115
330
1F
100
AcDbEntity
  8
0
  6
Continuous
 62
     7
370
    25
100
AcDbCircle
 10
78.40007224
 20
152.7977696227
 30
0.0
 40
1.724720041728787
100
AcDbArc
 50
269.9866034617
 51
359.9865971942
  0
ARC
  5
116
330
1F
100
AcDbEntity
  8
0
  6
Continuous
 62
     7
370
    25
100
AcDbCircle
 10
87.5999230881
 20
152.7977696227
 30
0.0
 40
1.724720041728774
100
AcDbArc
 50
180.0134028058
 51
270.0133965383
  0
LINE
  5
117
330
1F
100
AcDbEntity
  8
0
  6
Continuous
 62
     7
370
    25
100
AcDbLine
 10
85.8752030936
 20
152.7973661709
 30
0.0
 11
85.8752030936
 21
158.2822580933
 31
0.0
  0
SPLINE
  5
118
330
1F
100
AcDbEntity
  8
0
  6
Continuous
 62
     7
370
    25
100
AcDbSpline
210
0.0
220
0.0
230
1.0
 70
     8
 71
     3
 72
    10
 73
     6
 74
     0
 42
0.00000001
 43
0.00000001
 40
0.0
 40
0.0
 40
0.0
 40
0.0
 40
0.5
 40
0.5
 40
1.0
 40
1.0
 40
1.0
 40
1.0
 10
43.17840246515349
 20
162.9642734724158
 30
0.0
 10
43.17840246515349
 20
163.091995363238
 30
0.0
 10
43.07828137799527
 20
163.21369627172
 30
0.0
 10
42.80691842722297
 20
163.4326405004915
 30
0.0
 10
42.63182452952238
 20
163.5329617625936
 30
0.0
 10
42.45960110777262
 20
163.6316576137193
 30
0.0
  0
LINE
  5
119
330
1F
100
AcDbEntity
  8
0
  6
Continuous
 62
     7
370
    25
100
AcDbLine
 10
131.4472091515
 20
164.9434620675
 30
0.0
 11
34.5527861766
 21
164.9434620675
 31
0.0
  0
SPLINE
  5
11A
330
1F
100
AcDbEntity
  8
0
  6
Continuous
 62
     7
370
    25
100
AcDbSpline
210
0.0
220
0.0
230
1.0
 70
     8
 71
     3
 72
    10
 73
     6
 74
     0
 42
0.00000001
 43
0.00000001
 40
0.0
 40
0.0
 40
0.0
 40
0.0
 40
0.5
 40
0.5
 40
1.0
 40
1.0
 40
1.0
 40
1.0
 10
122.8215928629539
 20
162.9642734724158
 30
0.0
 10
122.8215928629539
 20
163.091995363238
 30
0.0
 10
122.9217139501121
 20
163.21369627172
 30
0.0
 10
123.1930769008844
 20
163.4326405004915
 30
0.0
 10
123.368170798585
 20
163.5329617625936
 30
0.0
 10
123.5403942203347
 20
163.6316576137193
 30
0.0
  0
LINE
  5
11B
330
1F
100
AcDbEntity
  8
0
  6
Continuous
 62
     7
370
    25
100
AcDbLine
 10
122.821592863
 20
162.9642734724
 30
0.0
 11
122.821592863
 21
160.9957014615
 31
0.0
  0
LINE
  5
11C
330
1F
100
AcDbEntity
  8
0
  6
Continuous
 62
     7
370
    25
100
AcDbLine
 10
43.1784024652
 20
160.9957014615
 30
0.0
 11
43.1784024652
 21
162.9642734724
 31
0.0
  0
SPLINE
  5
11D
330
1F
100
AcDbEntity
  8
0
  6
Continuous
 62
     7
370
    25
100
AcDbSpline
210
0.0
220
0.0
230
1.0
 70
     8
 71
     3
 72
    10
 73
     6
 74
     0
 42
0.00000001
 43
0.00000001
 40
0.0
 40
0.0
 40
0.0
 40
0.0
 40
0.4338599637960144
 40
0.8701449974798637
 40
1.0
 40
1.0
 40
1.0
 40
1.0
 10
81.84991549224429
 20
158.078408715709
 30
0.0
 10
81.84273905458808
 20
158.0776857166465
 30
0.0
 10
81.82834606641825
 20
158.0762356773023
 30
0.0
 10
81.81339757691093
 20
158.0757498205501
 30
0.0
 10
81.80632256166822
 20
158.0765454888306
 30
0.0
 10
81.80469977214017
 20
158.0767279905086
 30
0.0
  0
SPLINE
  5
11E
330
1F
100
AcDbEntity
  8
0
  6
Continuous
 62
     7
370
    25
100
AcDbSpline
210
0.0
220
0.0
230
1.0
 70
     8
 71
     3
 72
    15
 73
    11
 74
     0
 42
0.00000001
 43
0.00000001
 40
0.0
 40
0.0
 40
0.0
 40
0.0
 40
0.1044294918729434
 40
0.2759369415199633
 40
0.3964161400271228
 40
0.5174530382476051
 40
0.6268849852496451
 40
0.7411434680208854
 40
0.9089681252317015
 40
1.0
 40
1.0
 40
1.0
 40
1.0
 10
84.47249587166822
 20
158.0680915377832
 30
0.0
 10
84.54037808218334
 20
158.0514874909074
 30
0.0
 10
84.71974512895544
 20
158.0076141575261
 30
0.0
 10
84.98185042900873
 20
157.7156611332484
 30
0.0
 10
85.14463383342888
 20
157.2791185304965
 30
0.0
 10
85.17153276402148
 20
156.8071024514828
 30
0.0
 10
85.08173316839463
 20
156.3179238381231
 30
0.0
 10
84.88481908060501
 20
155.7921884556843
 30
0.0
 10
84.62533793431075
 20
155.3532384443559
 30
0.0
 10
84.45718624042027
 20
155.1103372907536
 30
0.0
 10
84.39805246533923
 20
155.0249164314585
 30
0.0
  0
SPLINE
  5
11F
330
1F
100
AcDbEntity
  8
0
  6
Continuous
 62
     7
370
    25
100
AcDbSpline
210
0.0
220
0.0
230
1.0
 70
     8
 71
     3
 72
    16
 73
    12
 74
     0
 42
0.00000001
 43
0.00000001
 40
0.0
 40
0.0
 40
0.0
 40
0.0
 40
0.1784412144816828
 40
0.2667073149081797
 40
0.3583562483418066
 40
0.4757672263237114
 40
0.5935406815816378
 40
0.7043516161563812
 40
0.8249580585759069
 40
0.9708413910010699
 40
1.0
 40
1.0
 40
1.0
 40
1.0
 10
81.60194286276815
 20
155.0249164314585
 30
0.0
 10
81.48396981065994
 20
155.1958940640853
 30
0.0
 10
81.3076412867217
 20
155.4514459299461
 30
0.0
 10
81.08473920067739
 20
155.8831790228379
 30
0.0
 10
80.93475016322154
 20
156.2704872882089
 30
0.0
 10
80.83565642422124
 20
156.7260616069596
 30
0.0
 10
80.84263049492162
 20
157.1891805189419
 30
0.0
 10
80.95710423733598
 20
157.5805094811257
 30
0.0
 10
81.16069039346914
 20
157.8827612617563
 30
0.0
 10
81.3668897755697
 20
158.0474111303036
 30
0.0
 10
81.47561028517065
 20
158.0702816431651
 30
0.0
 10
81.4937210236818
 20
158.0740914291895
 30
0.0
  0
SPLINE
  5
120
330
1F
100
AcDbEntity
  8
0
  6
Continuous
 62
     7
370
    25
100
AcDbSpline
210
0.0
220
0.0
230
1.0
 70
     8
 71
     3
 72
     8
 73
     4
 74
     0
 42
0.00000001
 43
0.00000001
 40
0.0
 40
0.0
 40
0.0
 40
0.0
 40
1.0
 40
1.0
 40
1.0
 40
1.0
 10
81.98997179632208
 20
158.1081824953587
 30
0.0
 10
81.93644772288937
 20
158.0943204626587
 30
0.0
 10
81.88919582995992
 20
158.0831190271397
 30
0.0
 10
81.84991549224421
 20
158.0784087157089
 30
0.0
  0
SPLINE
  5
121
330
1F
100
AcDbEntity
  8
0
  6
Continuous
 62
     7
370
    25
100
AcDbSpline
210
0.0
220
0.0
230
1.0
 70
     8
 71
     3
 72
     8
 73
     4
 74
     0
 42
0.00000001
 43
0.00000001
 40
0.0
 40
0.0
 40
0.0
 40
0.0
 40
1.0
 40
1.0
 40
1.0
 40
1.0
 10
84.1500798358631
 20
158.078408715709
 30
0.0
 10
84.11079949814739
 20
158.0831190271398
 30
0.0
 10
84.063547605218
 20
158.0943204626587
 30
0.0
 10
84.0100235317853
 20
158.1081824953587
 30
0.0
  0
LINE
  5
122
330
1F
100
AcDbEntity
  8
0
  6
Continuous
 62
     7
370
    25
100
AcDbLine
 10
84.0100235318
 20
158.1081824954
 30
0.0
 11
81.9899717963
 21
158.1081824954
 31
0.0
  0
SPLINE
  5
123
330
1F
100
AcDbEntity
  8
0
  6
Continuous
 62
     7
370
    25
100
AcDbSpline
210
0.0
220
0.0
230
1.0
 70
     8
 71
     3
 72
    12
 73
     8
 74
     0
 42
0.00000001
 43
0.00000001
 40
0.0
 40
0.0
 40
0.0
 40
0.0
 40
0.1769784158094734
 40
0.3862250703416348
 40
0.6324748466464789
 40
0.9177779280215725
 40
1.0
 40
1.0
 40
1.0
 40
1.0
 10
82.9999976640537
 20
156.7700826305105
 30
0.0
 10
83.13032163688213
 20
156.7775191611807
 30
0.0
 10
83.41473137884216
 20
156.7937481152487
 30
0.0
 10
83.86400242018883
 20
156.9397284625176
 30
0.0
 10
84.32599415050123
 20
157.2295303339952
 30
0.0
 10
84.66680836697479
 20
157.5492112802996
 30
0.0
 10
84.78052407941188
 20
157.7954238010796
 30
0.0
 10
84.80596435583314
 20
157.8505060272098
 30
0.0
  0
SPLINE
  5
124
330
1F
100
AcDbEntity
  8
0
  6
Continuous
 62
     7
370
    25
100
AcDbSpline
210
0.0
220
0.0
230
1.0
 70
     8
 71
     3
 72
    12
 73
     8
 74
     0
 42
0.00000001
 43
0.00000001
 40
0.0
 40
0.0
 40
0.0
 40
0.0
 40
0.0913756103132956
 40
0.3738331964844976
 40
0.6176269791349525
 40
0.8247866938800219
 40
1.0
 40
1.0
 40
1.0
 40
1.0
 10
81.18412582468508
 20
157.8704164987938
 30
0.0
 10
81.21253262812529
 20
157.8084942134879
 30
0.0
 10
81.32874970285175
 20
157.5551595898374
 30
0.0
 10
81.67362824038923
 20
157.2293042106804
 30
0.0
 10
82.13607102074099
 20
156.9397758247265
 30
0.0
 10
82.58524901156157
 20
156.7937390580591
 30
0.0
 10
82.86966899727148
 20
156.777516315092
 30
0.0
 10
82.9999976640537
 20
156.7700826305105
 30
0.0
  0
SPLINE
  5
125
330
1F
100
AcDbEntity
  8
0
  6
Continuous
 62
     7
370
    25
100
AcDbSpline
210
0.0
220
0.0
230
1.0
 70
     8
 71
     3
 72
    12
 73
     8
 74
     0
 42
0.00000001
 43
0.00000001
 40
0.0
 40
0.0
 40
0.0
 40
0.0
 40
0.5
 40
0.5
 40
0.75
 40
0.75
 40
1.0
 40
1.0
 40
1.0
 40
1.0
 10
83.59318052466863
 20
154.4663326156085
 30
0.0
 10
83.7511479244539
 20
154.5284150162324
 30
0.0
 10
83.9060277578119
 20
154.6034918615727
 30
0.0
 10
84.1183398133434
 20
154.7447672749405
 30
0.0
 10
84.18653667848558
 20
154.797462321686
 30
0.0
 10
84.30751298405433
 20
154.9098693870055
 30
0.0
 10
84.35990508628696
 20
154.9694622935174
 30
0.0
 10
84.39802130204123
 20
155.0249011065703
 30
0.0
  0
SPLINE
  5
126
330
1F
100
AcDbEntity
  8
0
  6
Continuous
 62
     7
370
    25
100
AcDbSpline
210
0.0
220
0.0
230
1.0
 70
     8
 71
     3
 72
     8
 73
     4
 74
     0
 42
0.00000001
 43
0.00000001
 40
0.0
 40
0.0
 40
0.0
 40
0.0
 40
1.0
 40
1.0
 40
1.0
 40
1.0
 10
82.9999976640537
 20
154.3917405719845
 30
0.0
 10
83.19966018362207
 20
154.3917405719845
 30
0.0
 10
83.40122024273195
 20
154.4170866429761
 30
0.0
 10
83.59318008206968
 20
154.4663329477975
 30
0.0
  0
SPLINE
  5
127
330
1F
100
AcDbEntity
  8
0
  6
Continuous
 62
     7
370
    25
100
AcDbSpline
210
0.0
220
0.0
230
1.0
 70
     8
 71
     3
 72
     8
 73
     4
 74
     0
 42
0.00000001
 43
0.00000001
 40
0.0
 40
0.0
 40
0.0
 40
0.0
 40
1.0
 40
1.0
 40
1.0
 40
1.0
 10
82.4068152460377
 20
154.4663329477975
 30
0.0
 10
82.59877508537541
 20
154.4170866429761
 30
0.0
 10
82.8003351444853
 20
154.3917405719845
 30
0.0
 10
82.9999976640537
 20
154.3917405719845
 30
0.0
  0
SPLINE
  5
128
330
1F
100
AcDbEntity
  8
0
  6
Continuous
 62
     7
370
    25
100
AcDbSpline
210
0.0
220
0.0
230
1.0
 70
     8
 71
     3
 72
    12
 73
     8
 74
     0
 42
0.00000001
 43
0.00000001
 40
0.0
 40
0.0
 40
0.0
 40
0.0
 40
0.2500000000000002
 40
0.2500000000000002
 40
0.5000000000000003
 40
0.5000000000000003
 40
1.0
 40
1.0
 40
1.0
 40
1.0
 10
81.60197402606615
 20
155.0249011065703
 30
0.0
 10
81.63996204070224
 20
154.9696487579311
 30
0.0
 10
81.691072470361
 20
154.9113741516294
 30
0.0
 10
81.81153151869493
 20
154.7990635025464
 30
0.0
 10
81.87840165135637
 20
154.7471282130043
 30
0.0
 10
82.09196544193543
 20
154.6044440208135
 30
0.0
 10
82.24852844442957
 20
154.5285403696558
 30
0.0
 10
82.40681480343878
 20
154.4663326156085
 30
0.0
  0
SPLINE
  5
129
330
1F
100
AcDbEntity
  8
0
  6
Continuous
 62
     7
370
    25
100
AcDbSpline
210
0.0
220
0.0
230
1.0
 70
     8
 71
     3
 72
    11
 73
     7
 74
     0
 42
0.00000001
 43
0.00000001
 40
0.0
 40
0.0
 40
0.0
 40
0.0
 40
0.2338339097765315
 40
0.4782511419021235
 40
0.7335520024148229
 40
1.0
 40
1.0
 40
1.0
 40
1.0
 10
82.4068152460377
 20
154.4663329477975
 30
0.0
 10
82.3619559792938
 20
154.4470900873662
 30
0.0
 10
82.27020711547132
 20
154.407733434674
 30
0.0
 10
82.13286953816554
 20
154.3414257399803
 30
0.0
 10
81.99172400675107
 20
154.2685630355104
 30
0.0
 10
81.8978535098327
 20
154.2156661945821
 30
0.0
 10
81.84991549224429
 20
154.1886527049977
 30
0.0
  0
SPLINE
  5
12A
330
1F
100
AcDbEntity
  8
0
  6
Continuous
 62
     7
370
    25
100
AcDbSpline
210
0.0
220
0.0
230
1.0
 70
     8
 71
     3
 72
     9
 73
     5
 74
     0
 42
0.00000001
 43
0.00000001
 40
0.0
 40
0.0
 40
0.0
 40
0.0
 40
0.5217611553558961
 40
1.0
 40
1.0
 40
1.0
 40
1.0
 10
84.15007983586308
 20
154.1886527049977
 30
0.0
 10
84.05591194880651
 20
154.2412286566871
 30
0.0
 10
83.87543111751057
 20
154.3419949769655
 30
0.0
 10
83.68449374871965
 20
154.4261072104401
 30
0.0
 10
83.5931800820697
 20
154.4663329477975
 30
0.0
  0
LINE
  5
12B
330
1F
100
AcDbEntity
  8
0
  6
Continuous
 62
     7
370
    25
100
AcDbLine
 10
132.8848118663
 20
162.5901611164
 30
0.0
 11
132.8848118663
 21
155.8582402012
 31
0.0
  0
LINE
  5
12C
330
1F
100
AcDbEntity
  8
0
  6
Continuous
 62
     7
370
    25
100
AcDbLine
 10
33.1151834618
 20
155.8582402012
 30
0.0
 11
33.1151834618
 21
162.5901611164
 31
0.0
  0
LINE
  5
12D
330
1F
100
AcDbEntity
  8
0
  6
Continuous
 62
     7
370
    25
100
AcDbLine
 10
33.1151834618
 20
162.5901611164
 30
0.0
 11
33.1151834618
 21
164.9434620675
 31
0.0
  0
SPLINE
  5
12E
330
1F
100
AcDbEntity
  8
0
  6
Continuous
 62
     7
370
    25
100
AcDbSpline
210
0.0
220
0.0
230
1.0
 70
    24
 71
     3
 72
    14
 73
    10
 74
     0
 42
0.00000001
 43
0.00000001
 40
0.0
 40
0.0
 40
0.0
 40
0.0
 40
0.25
 40
0.25
 40
0.5
 40
0.5
 40
0.75
 40
0.75
 40
1.0
 40
1.0
 40
1.0
 40
1.0
 10
33.11518346182131
 20
164.9434620675455
 30
0.0
 10
33.11518346182132
 20
164.9434620675455
 30
0.0
 10
33.14606135504925
 20
164.9434620675455
 30
0.0
 10
33.28617862659475
 20
164.9434620675455
 30
0.0
 10
33.39589285282231
 20
164.9434620675455
 30
0.0
 10
33.67660224382331
 20
164.9434620675455
 30
0.0
 10
33.8466477127767
 20
164.9434620675455
 30
0.0
 10
34.20057673287821
 20
164.9434620675455
 30
0.0
 10
34.383363071873
 20
164.9434620675455
 30
0.0
 10
34.55278617658305
 20
164.9434620675455
 30
0.0
  0
LINE
  5
12F
330
1F
100
AcDbEntity
  8
0
  6
Continuous
 62
     7
370
    25
100
AcDbLine
 10
132.8848118663
 20
164.9434620675
 30
0.0
 11
132.8848118663
 21
162.5901611164
 31
0.0
  0
SPLINE
  5
130
330
1F
100
AcDbEntity
  8
0
  6
Continuous
 62
     7
370
    25
100
AcDbSpline
210
0.0
220
0.0
230
1.0
 70
    24
 71
     3
 72
    14
 73
    10
 74
     0
 42
0.00000001
 43
0.00000001
 40
0.0
 40
0.0
 40
0.0
 40
0.0
 40
0.2500000000000001
 40
0.2500000000000001
 40
0.5000000000000001
 40
0.5000000000000001
 40
0.7500000000000001
 40
0.7500000000000001
 40
1.0
 40
1.0
 40
1.0
 40
1.0
 10
131.4472091515243
 20
164.9434620675455
 30
0.0
 10
131.6166322562344
 20
164.9434620675455
 30
0.0
 10
131.7994185952292
 20
164.9434620675455
 30
0.0
 10
132.1533476153307
 20
164.9434620675455
 30
0.0
 10
132.323393084284
 20
164.9434620675455
 30
0.0
 10
132.604102475285
 20
164.9434620675455
 30
0.0
 10
132.7138167015126
 20
164.9434620675455
 30
0.0
 10
132.8539339730581
 20
164.9434620675455
 30
0.0
 10
132.8848118662861
 20
164.9434620675455
 30
0.0
 10
132.8848118662861
 20
164.9434620675455
 30
0.0
  0
SPLINE
  5
131
330
1F
100
AcDbEntity
  8
0
  6
Continuous
 62
     7
370
    25
100
AcDbSpline
210
0.0
220
0.0
230
1.0
 70
     8
 71
     3
 72
     9
 73
     5
 74
     0
 42
0.00000001
 43
0.00000001
 40
0.0
 40
0.0
 40
0.0
 40
0.0
 40
0.5236989453317649
 40
1.0
 40
1.0
 40
1.0
 40
1.0
 10
123.1319389001764
 20
154.0635805027017
 30
0.0
 10
123.0413339321397
 20
153.9989057653639
 30
0.0
 10
122.8683242882511
 20
153.8754097417145
 30
0.0
 10
122.8366698874434
 20
153.7294400810243
 30
0.0
 10
122.8215928629539
 20
153.659914577688
 30
0.0
  0
SPLINE
  5
132
330
1F
100
AcDbEntity
  8
0
  6
Continuous
 62
     7
370
    25
100
AcDbSpline
210
0.0
220
0.0
230
1.0
 70
     8
 71
     3
 72
    10
 73
     6
 74
     0
 42
0.00000001
 43
0.00000001
 40
0.0
 40
0.0
 40
0.0
 40
0.0
 40
0.5
 40
0.5
 40
1.0
 40
1.0
 40
1.0
 40
1.0
 10
43.17840246515349
 20
153.659914577688
 30
0.0
 10
43.17840246515349
 20
153.7322378269392
 30
0.0
 10
43.14736866655272
 20
153.802235705806
 30
0.0
 10
43.04464404496762
 20
153.9382481226184
 30
0.0
 10
42.97434496601859
 20
154.0020832138881
 30
0.0
 10
42.89310190188912
 20
154.0635077225415
 30
0.0
  0
SPLINE
  5
133
330
1F
100
AcDbEntity
  8
0
  6
Continuous
 62
     7
370
    25
100
AcDbSpline
210
0.0
220
0.0
230
1.0
 70
     8
 71
     3
 72
    14
 73
    10
 74
     0
 42
0.00000001
 43
0.00000001
 40
0.0
 40
0.0
 40
0.0
 40
0.0
 40
0.25
 40
0.25
 40
0.5
 40
0.5
 40
0.75
 40
0.75
 40
1.0
 40
1.0
 40
1.0
 40
1.0
 10
41.29696864107122
 20
154.2089396938604
 30
0.0
 10
41.0651821898328
 20
154.2089396938604
 30
0.0
 10
40.83076969972944
 20
154.2156366017979
 30
0.0
 10
40.35670776501986
 20
154.2264849749771
 30
0.0
 10
40.11705780756301
 20
154.2306649817131
 30
0.0
 10
39.63227704587955
 20
154.23072130535
 30
0.0
 10
39.38962529186146
 20
154.2265383664858
 30
0.0
 10
38.91359097950956
 20
154.2156524978837
 30
0.0
 10
38.67868551733802
 20
154.2089396938604
 30
0.0
 10
38.4468638013323
 20
154.2089396938604
 30
0.0
  0
SPLINE
  5
134
330
1F
100
AcDbEntity
  8
0
  6
Continuous
 62
     7
370
    25
100
AcDbSpline
210
0.0
220
0.0
230
1.0
 70
     8
 71
     3
 72
    12
 73
     8
 74
     0
 42
0.00000001
 43
0.00000001
 40
0.0
 40
0.0
 40
0.0
 40
0.0
 40
0.1252178906304468
 40
0.3952131406252274
 40
0.664229247420429
 40
0.9408181693935358
 40
0.9999999999999999
 40
0.9999999999999999
 40
0.9999999999999999
 40
0.9999999999999999
 10
127.5040211906786
 20
154.2142902618198
 30
0.0
 10
127.3922204797353
 20
154.2136064767294
 30
0.0
 10
127.0393546881656
 20
154.2114483118559
 30
0.0
 10
126.4126906423241
 20
154.2341485878074
 30
0.0
 10
125.6451488084368
 20
154.2309089638623
 30
0.0
 10
125.0775563163669
 20
154.2067949600918
 30
0.0
 10
124.7796063845104
 20
154.2112312391031
 30
0.0
 10
124.7270907253565
 20
154.2120131628143
 30
0.0
  0
LINE
  5
135
330
1F
100
AcDbEntity
  8
0
  6
HIDDEN
 62
     7
370
    18
100
AcDbLine
 10
78.4152168847
 20
151.0872788315
 30
0.0
 11
78.4009787791
 21
151.0705958701
 31
0.0
  0
LINE
  5
136
330
1F
100
AcDbEntity
  8
0
  6
HIDDEN
 62
     7
370
    18
100
AcDbLine
 10
87.599016549
 20
151.0705958701
 30
0.0
 11
87.5847784434
 21
151.0872788315
 31
0.0
  0
SPLINE
  5
137
330
1F
100
AcDbEntity
  8
0
  6
HIDDEN
 62
     7
370
    18
100
AcDbSpline
210
0.0
220
0.0
230
1.0
 70
     8
 71
     3
 72
     8
 73
     4
 74
     0
 42
0.00000001
 43
0.00000001
 40
0.0
 40
0.0
 40
0.0
 40
0.0
 40
1.0
 40
1.0
 40
1.0
 40
1.0
 10
84.23139803521764
 20
158.0870718101692
 30
0.0
 10
84.21522367326328
 20
158.0755879154867
 30
0.0
 10
84.18708061487733
 20
158.0739706420914
 30
0.0
 10
84.15007983586308
 20
158.078408715709
 30
0.0
  0
SPLINE
  5
138
330
1F
100
AcDbEntity
  8
0
  6
HIDDEN
 62
     7
370
    18
100
AcDbSpline
210
0.0
220
0.0
230
1.0
 70
     8
 71
     3
 72
    10
 73
     6
 74
     0
 42
0.00000001
 43
0.00000001
 40
0.0
 40
0.0
 40
0.0
 40
0.0
 40
0.2732615477586162
 40
0.6621653248177172
 40
0.9999999999999999
 40
0.9999999999999999
 40
0.9999999999999999
 40
0.9999999999999999
 10
81.80469977214017
 20
158.0767279905086
 30
0.0
 10
81.80059469683839
 20
158.077041211266
 30
0.0
 10
81.79064730927907
 20
158.0778002054467
 30
0.0
 10
81.7785149360512
 20
158.0811817471552
 30
0.0
 10
81.77174388393615
 20
158.0852020924469
 30
0.0
 10
81.76859626434225
 20
158.087071006967
 30
0.0
  0
LINE
  5
139
330
1F
100
AcDbEntity
  8
0
  6
HIDDEN
 62
     7
370
    18
100
AcDbLine
 10
48.9288133242
 20
154.1614417068
 30
0.0
 11
48.9288133242
 21
158.4742498511
 31
0.0
  0
LINE
  5
13A
330
1F
100
AcDbEntity
  8
0
  6
HIDDEN
 62
     7
370
    18
100
AcDbLine
 10
117.0711820039
 20
154.1614417068
 30
0.0
 11
117.0711820039
 21
158.4742498511
 31
0.0
  0
LINE
  5
13B
330
1F
100
AcDbEntity
  8
0
  6
HIDDEN
 62
     7
370
    18
100
AcDbLine
 10
84.3411182581
 20
158.1148491724
 30
0.0
 11
84.4724958717
 21
158.0680915378
 31
0.0
  0
SPLINE
  5
13C
330
1F
100
AcDbEntity
  8
0
  6
HIDDEN
 62
     7
370
    18
100
AcDbSpline
210
0.0
220
0.0
230
1.0
 70
     8
 71
     3
 72
    10
 73
     6
 74
     0
 42
0.00000001
 43
0.00000001
 40
0.0
 40
0.0
 40
0.0
 40
0.0
 40
0.3091200765249932
 40
0.6421260302528402
 40
1.0
 40
1.0
 40
1.0
 40
1.0
 10
84.23143856941046
 20
158.0870401541821
 30
0.0
 10
84.24043225818379
 20
158.0923316358953
 30
0.0
 10
84.25911458297571
 20
158.1033234750047
 30
0.0
 10
84.29613920759925
 20
158.112873067613
 30
0.0
 10
84.32576972739713
 20
158.1141748517128
 30
0.0
 10
84.34111825814092
 20
158.1148491724272
 30
0.0
  0
SPLINE
  5
13D
330
1F
100
AcDbEntity
  8
0
  6
HIDDEN
 62
     7
370
    18
100
AcDbSpline
210
0.0
220
0.0
230
1.0
 70
     8
 71
     3
 72
     9
 73
     5
 74
     0
 42
0.00000001
 43
0.00000001
 40
0.0
 40
0.0
 40
0.0
 40
0.0
 40
0.5254764212632156
 40
1.0
 40
1.0
 40
1.0
 40
1.0
 10
81.4937210236818
 20
158.0740914291895
 30
0.0
 10
81.55260019766351
 20
158.0939438956729
 30
0.0
 10
81.6646493241308
 20
158.1317238334209
 30
0.0
 10
81.73511780362107
 20
158.1014200255448
 30
0.0
 10
81.76855675869693
 20
158.0870401541821
 30
0.0
  0
SPLINE
  5
13E
330
1F
100
AcDbEntity
  8
0
  6
HIDDEN
 62
     7
370
    18
100
AcDbSpline
210
0.0
220
0.0
230
1.0
 70
     8
 71
     3
 72
    15
 73
    11
 74
     0
 42
0.00000001
 43
0.00000001
 40
0.0
 40
0.0
 40
0.0
 40
0.0
 40
0.1102109757661276
 40
0.2683312841577516
 40
0.4264515925493758
 40
0.5747591319737656
 40
0.7069507289497745
 40
0.8210474678557429
 40
0.9179992753552477
 40
1.0
 40
1.0
 40
1.0
 40
1.0
 10
84.80596435583314
 20
157.8505060272098
 30
0.0
 10
84.8927056341478
 20
158.0037656874109
 30
0.0
 10
85.10389511357907
 20
158.3769078463066
 30
0.0
 10
85.19130363095616
 20
159.0673097718938
 30
0.0
 10
85.08144126424598
 20
159.8051103939461
 30
0.0
 10
84.76654377653192
 20
160.4396048131233
 30
0.0
 10
84.33302712607046
 20
160.903937747475
 30
0.0
 10
83.86252934229002
 20
161.1892546571526
 30
0.0
 10
83.41501307908547
 20
161.3361602411327
 30
0.0
 10
83.13041015704228
 20
161.3522873377063
 30
0.0
 10
82.9999976640537
 20
161.3596771946119
 30
0.0
  0
SPLINE
  5
13F
330
1F
100
AcDbEntity
  8
0
  6
HIDDEN
 62
     7
370
    18
100
AcDbSpline
210
0.0
220
0.0
230
1.0
 70
     8
 71
     3
 72
    15
 73
    11
 74
     0
 42
0.00000001
 43
0.00000001
 40
0.0
 40
0.0
 40
0.0
 40
0.0
 40
0.0823852735591551
 40
0.1797917442641966
 40
0.2944235488939528
 40
0.4272350688685759
 40
0.5762381082843436
 40
0.7350999344271877
 40
0.8939617605700323
 40
1.0
 40
1.0
 40
1.0
 40
1.0
 10
82.9999976640537
 20
161.3596771946119
 30
0.0
 10
82.86958512671228
 20
161.3522873203072
 30
0.0
 10
82.58498210787668
 20
161.3361601857632
 30
0.0
 10
82.1374667238995
 20
161.1892549466933
 30
0.0
 10
81.66696467818143
 20
160.9039363651096
 30
0.0
 10
81.23346775759572
 20
160.4396111705471
 30
0.0
 10
80.91848377364835
 20
159.8050828199543
 30
0.0
 10
80.80897218579116
 20
159.0674198041604
 30
0.0
 10
80.89424606858071
 20
158.3841125341603
 30
0.0
 10
81.10125937878523
 20
158.017264161755
 30
0.0
 10
81.18412582468508
 20
157.8704164987938
 30
0.0
  0
ARC
  5
140
330
1F
100
AcDbEntity
  8
0
  6
HIDDEN
 62
     7
370
    18
100
AcDbCircle
 10
82.9999976641
 20
156.0676834394
 30
0.0
 40
2.276793502036014
100
AcDbArc
 50
63.665067336
 51
116.334932664
  0
SPLINE
  5
141
330
1F
100
AcDbEntity
  8
0
  6
HIDDEN
 62
     7
370
    18
100
AcDbSpline
210
0.0
220
0.0
230
1.0
 70
     8
 71
     3
 72
    10
 73
     6
 74
     0
 42
0.00000001
 43
0.00000001
 40
0.0
 40
0.0
 40
0.0
 40
0.0
 40
0.0112217631459968
 40
0.6837958610363295
 40
1.0
 40
1.0
 40
1.0
 40
1.0
 10
123.5403942203347
 20
154.3380457466994
 30
0.0
 10
123.5387139039015
 20
154.3370666062573
 30
0.0
 10
123.4363241628809
 20
154.2774028820317
 30
0.0
 10
123.2732092622898
 20
154.1937190114128
 30
0.0
 10
123.1661694568804
 20
154.0951137523881
 30
0.0
 10
123.1319389001764
 20
154.0635805027017
 30
0.0
  0
SPLINE
  5
142
330
1F
100
AcDbEntity
  8
0
  6
HIDDEN
 62
     7
370
    18
100
AcDbSpline
210
0.0
220
0.0
230
1.0
 70
     8
 71
     3
 72
     8
 73
     4
 74
     0
 42
0.00000001
 43
0.00000001
 40
0.0
 40
0.0
 40
0.0
 40
0.0
 40
1.0
 40
1.0
 40
1.0
 40
1.0
 10
42.89310190188899
 20
154.0635077225415
 30
0.0
 10
42.76578883353957
 20
154.1597638491697
 30
0.0
 10
42.61154043356358
 20
154.2495719424314
 30
0.0
 10
42.45960110777262
 20
154.3380457466994
 30
0.0
  0
SPLINE
  5
143
330
1F
100
AcDbEntity
  8
0
  6
HIDDEN
 62
     7
370
    18
100
AcDbSpline
210
0.0
220
0.0
230
1.0
 70
     8
 71
     3
 72
     9
 73
     5
 74
     0
 42
0.00000001
 43
0.00000001
 40
0.0
 40
0.0
 40
0.0
 40
0.0
 40
0.1054595958904216
 40
1.0
 40
1.0
 40
1.0
 40
1.0
 10
132.8285325637253
 20
155.4479699350468
 30
0.0
 10
132.8329783637023
 20
155.4618937634055
 30
0.0
 10
132.8751347928016
 20
155.5939237436192
 30
0.0
 10
132.8802426667026
 20
155.733438560528
 30
0.0
 10
132.8848118662861
 20
155.8582402012248
 30
0.0
  0
SPLINE
  5
144
330
1F
100
AcDbEntity
  8
0
  6
HIDDEN
 62
     7
370
    18
100
AcDbSpline
210
0.0
220
0.0
230
1.0
 70
     8
 71
     3
 72
     9
 73
     5
 74
     0
 42
0.00000001
 43
0.00000001
 40
0.0
 40
0.0
 40
0.0
 40
0.0
 40
0.8946400061195713
 40
1.0
 40
1.0
 40
1.0
 40
1.0
 10
33.11518346182131
 20
155.8582402012248
 30
0.0
 10
33.11975369053653
 20
155.7334245310091
 30
0.0
 10
33.12486214609849
 20
155.5939095648084
 30
0.0
 10
33.16701905629831
 20
155.461879934557
 30
0.0
 10
33.17146070809898
 20
155.4479692935217
 30
0.0
  0
SPLINE
  5
145
330
1F
100
AcDbEntity
  8
0
  6
HIDDEN
 62
     7
370
    18
100
AcDbSpline
210
0.0
220
0.0
230
1.0
 70
     8
 71
     3
 72
    10
 73
     6
 74
     0
 42
0.00000001
 43
0.00000001
 40
0.0
 40
0.0
 40
0.0
 40
0.0
 40
0.5
 40
0.5
 40
1.0
 40
1.0
 40
1.0
 40
1.0
 10
42.41395578614987
 20
154.3380457466994
 30
0.0
 10
42.24418414411954
 20
154.2809586031498
 30
0.0
 10
42.06524298038357
 20
154.250351957028
 30
0.0
 10
41.69156182782884
 20
154.2140566596549
 30
0.0
 10
41.49626350191668
 20
154.2089396938604
 30
0.0
 10
41.29696864107122
 20
154.2089396938604
 30
0.0
  0
SPLINE
  5
146
330
1F
100
AcDbEntity
  8
0
  6
HIDDEN
 62
     7
370
    18
100
AcDbSpline
210
0.0
220
0.0
230
1.0
 70
     8
 71
     3
 72
    10
 73
     6
 74
     0
 42
0.00000001
 43
0.00000001
 40
0.0
 40
0.0
 40
0.0
 40
0.0
 40
0.5
 40
0.5
 40
1.0
 40
1.0
 40
1.0
 40
1.0
 10
38.4468638013323
 20
154.2089396938604
 30
0.0
 10
38.24676404684315
 20
154.2089396938604
 30
0.0
 10
38.05328659729481
 20
154.2140304736548
 30
0.0
 10
37.68046364633264
 20
154.2500979838862
 30
0.0
 10
37.50107804183859
 20
154.2804778398456
 30
0.0
 10
37.3298766562531
 20
154.3380457466994
 30
0.0
  0
SPLINE
  5
147
330
1F
100
AcDbEntity
  8
0
  6
HIDDEN
 62
     7
370
    18
100
AcDbSpline
210
0.0
220
0.0
230
1.0
 70
     8
 71
     3
 72
    10
 73
     6
 74
     0
 42
0.00000001
 43
0.00000001
 40
0.0
 40
0.0
 40
0.0
 40
0.0
 40
0.3457061574868168
 40
0.7002514607403457
 40
1.0
 40
1.0
 40
1.0
 40
1.0
 10
128.6701186718543
 20
154.3380457466994
 30
0.0
 10
128.5453790238048
 20
154.3052530894921
 30
0.0
 10
128.2927103372131
 20
154.238829320017
 30
0.0
 10
127.9007438301619
 20
154.2099900805064
 30
0.0
 10
127.6286666298627
 20
154.2129391970329
 30
0.0
 10
127.5040211906786
 20
154.2142902618198
 30
0.0
  0
SPLINE
  5
148
330
1F
100
AcDbEntity
  8
0
  6
HIDDEN
 62
     7
370
    18
100
AcDbSpline
210
0.0
220
0.0
230
1.0
 70
     8
 71
     3
 72
    10
 73
     6
 74
     0
 42
0.00000001
 43
0.00000001
 40
0.0
 40
0.0
 40
0.0
 40
0.0
 40
0.3157177172487856
 40
0.7724302526948248
 40
1.0
 40
1.0
 40
1.0
 40
1.0
 10
124.7270907253565
 20
154.2120131628143
 30
0.0
 10
124.5995236506098
 20
154.2119341113487
 30
0.0
 10
124.287419950378
 20
154.2117407052133
 30
0.0
 10
123.9053613800504
 20
154.2466982223883
 30
0.0
 10
123.6657322855261
 20
154.3152482616479
 30
0.0
 10
123.5860395419575
 20
154.3380457466994
 30
0.0
  0
LINE
  5
149
330
1F
100
AcDbEntity
  8
0
  6
HIDDEN
 62
     7
370
    18
100
AcDbLine
 10
121.4558702839
 20
160.6306539233
 30
0.0
 11
130.8002879299
 21
160.6306539233
 31
0.0
  0
SPLINE
  5
14A
330
1F
100
AcDbEntity
  8
0
  6
HIDDEN
 62
     7
370
    18
100
AcDbSpline
210
0.0
220
0.0
230
1.0
 70
     8
 71
     3
 72
    14
 73
    10
 74
     0
 42
0.00000001
 43
0.00000001
 40
0.0
 40
0.0
 40
0.0
 40
0.0
 40
0.2500000000000002
 40
0.2500000000000002
 40
0.5000000000000001
 40
0.5000000000000001
 40
0.75
 40
0.75
 40
1.0
 40
1.0
 40
1.0
 40
1.0
 10
121.4558702839302
 20
156.3708523456267
 30
0.0
 10
121.4558702839302
 20
156.1780575124965
 30
0.0
 10
121.5008867879444
 20
155.9792326604696
 30
0.0
 10
121.6898188480481
 20
155.5873208650803
 30
0.0
 10
121.8338298474422
 20
155.3944255172948
 30
0.0
 10
122.2117894109542
 20
155.0337411763958
 30
0.0
 10
122.4455470884629
 20
154.8661343451256
 30
0.0
 10
122.976879092585
 20
154.5707028520833
 30
0.0
 10
123.2740914831034
 20
154.4429409070622
 30
0.0
 10
123.5860395419575
 20
154.3380457466994
 30
0.0
  0
SPLINE
  5
14B
330
1F
100
AcDbEntity
  8
0
  6
HIDDEN
 62
     7
370
    18
100
AcDbSpline
210
0.0
220
0.0
230
1.0
 70
     8
 71
     3
 72
    34
 73
    30
 74
     0
 42
0.00000001
 43
0.00000001
 40
0.0
 40
0.0
 40
0.0
 40
0.0
 40
0.1249999999999999
 40
0.1249999999999999
 40
0.1874999999999999
 40
0.1874999999999999
 40
0.2499999999999999
 40
0.2499999999999999
 40
0.3124999999999999
 40
0.3124999999999999
 40
0.3749999999999998
 40
0.3749999999999998
 40
0.4374999999999998
 40
0.4374999999999998
 40
0.4999999999999998
 40
0.4999999999999998
 40
0.5624999999999998
 40
0.5624999999999998
 40
0.6249999999999998
 40
0.6249999999999998
 40
0.6874999999999997
 40
0.6874999999999997
 40
0.7499999999999997
 40
0.7499999999999997
 40
0.8124999999999998
 40
0.8124999999999998
 40
0.8749999999999998
 40
0.8749999999999998
 40
1.0
 40
1.0
 40
1.0
 40
1.0
 10
130.8002879298815
 20
156.3708523456267
 30
0.0
 10
130.8002879298815
 20
156.572751480992
 30
0.0
 10
130.7529428804754
 20
156.8011397829172
 30
0.0
 10
130.5436279252061
 20
157.1732802692225
 30
0.0
 10
130.4505063578547
 20
157.3020200281371
 30
0.0
 10
130.2051283916436
 20
157.5630283788681
 30
0.0
 10
130.0527345182054
 20
157.695310673623
 30
0.0
 10
129.6789578123674
 20
157.9537415668906
 30
0.0
 10
129.4573968595386
 20
158.079853321055
 30
0.0
 10
128.9430359707892
 20
158.3126302562557
 30
0.0
 10
128.6501018625606
 20
158.4191854421354
 30
0.0
 10
128.0034293611107
 20
158.5980303509711
 30
0.0
 10
127.6497262880691
 20
158.6701609366885
 30
0.0
 10
126.9065962693615
 20
158.7680282572159
 30
0.0
 10
126.5174298421539
 20
158.7936419700101
 30
0.0
 10
125.7387283716579
 20
158.7936419700101
 30
0.0
 10
125.3495619444503
 20
158.7680282572159
 30
0.0
 10
124.6064319257427
 20
158.6701609366885
 30
0.0
 10
124.2527288527011
 20
158.5980303509711
 30
0.0
 10
123.6060563512512
 20
158.4191854421354
 30
0.0
 10
123.3131222430226
 20
158.3126302562557
 30
0.0
 10
122.7987613542732
 20
158.079853321055
 30
0.0
 10
122.5772004014444
 20
157.9537415668906
 30
0.0
 10
122.2034236956063
 20
157.695310673623
 30
0.0
 10
122.0510298221681
 20
157.5630283788681
 30
0.0
 10
121.8056518559571
 20
157.3020200281371
 30
0.0
 10
121.7125302886057
 20
157.1732802692225
 30
0.0
 10
121.5032153333364
 20
156.8011397829172
 30
0.0
 10
121.4558702839302
 20
156.572751480992
 30
0.0
 10
121.4558702839302
 20
156.3708523456267
 30
0.0
  0
SPLINE
  5
14C
330
1F
100
AcDbEntity
  8
0
  6
HIDDEN
 62
     7
370
    18
100
AcDbSpline
210
0.0
220
0.0
230
1.0
 70
     8
 71
     3
 72
    14
 73
    10
 74
     0
 42
0.00000001
 43
0.00000001
 40
0.0
 40
0.0
 40
0.0
 40
0.0
 40
0.2499999999999999
 40
0.2499999999999999
 40
0.4999999999999999
 40
0.4999999999999999
 40
0.7499999999999998
 40
0.7499999999999998
 40
1.0
 40
1.0
 40
1.0
 40
1.0
 10
128.6701186718543
 20
154.3380457466994
 30
0.0
 10
128.9820667307084
 20
154.4429409070622
 30
0.0
 10
129.2792791212268
 20
154.5707028520833
 30
0.0
 10
129.8106111253488
 20
154.8661343451256
 30
0.0
 10
130.0443688028576
 20
155.0337411763958
 30
0.0
 10
130.4223283663696
 20
155.3944255172948
 30
0.0
 10
130.5663393657637
 20
155.5873208650803
 30
0.0
 10
130.7552714258674
 20
155.9792326604696
 30
0.0
 10
130.8002879298815
 20
156.1780575124965
 30
0.0
 10
130.8002879298815
 20
156.3708523456267
 30
0.0
  0
LINE
  5
14D
330
1F
100
AcDbEntity
  8
0
  6
HIDDEN
 62
     7
370
    18
100
AcDbLine
 10
35.1997073982
 20
160.6306539233
 30
0.0
 11
44.5441250442
 21
160.6306539233
 31
0.0
  0
SPLINE
  5
14E
330
1F
100
AcDbEntity
  8
0
  6
HIDDEN
 62
     7
370
    18
100
AcDbSpline
210
0.0
220
0.0
230
1.0
 70
     8
 71
     3
 72
    14
 73
    10
 74
     0
 42
0.00000001
 43
0.00000001
 40
0.0
 40
0.0
 40
0.0
 40
0.0
 40
0.25
 40
0.25
 40
0.5
 40
0.5
 40
0.75
 40
0.75
 40
1.0
 40
1.0
 40
1.0
 40
1.0
 10
35.19970739822583
 20
156.3708523456267
 30
0.0
 10
35.19970739822584
 20
156.1780575124965
 30
0.0
 10
35.24472390223997
 20
155.9792326604696
 30
0.0
 10
35.43365596234369
 20
155.5873208650803
 30
0.0
 10
35.57766696173781
 20
155.3944255172948
 30
0.0
 10
35.95562652524981
 20
155.0337411763958
 30
0.0
 10
36.18938420275855
 20
154.8661343451256
 30
0.0
 10
36.72071620688061
 20
154.5707028520833
 30
0.0
 10
37.01792859739897
 20
154.4429409070622
 30
0.0
 10
37.3298766562531
 20
154.3380457466994
 30
0.0
  0
SPLINE
  5
14F
330
1F
100
AcDbEntity
  8
0
  6
HIDDEN
 62
     7
370
    18
100
AcDbSpline
210
0.0
220
0.0
230
1.0
 70
     8
 71
     3
 72
    34
 73
    30
 74
     0
 42
0.00000001
 43
0.00000001
 40
0.0
 40
0.0
 40
0.0
 40
0.0
 40
0.1250000000000004
 40
0.1250000000000004
 40
0.1875000000000004
 40
0.1875000000000004
 40
0.2500000000000006
 40
0.2500000000000006
 40
0.3125000000000005
 40
0.3125000000000005
 40
0.3750000000000004
 40
0.3750000000000004
 40
0.4375000000000004
 40
0.4375000000000004
 40
0.5000000000000003
 40
0.5000000000000003
 40
0.5625000000000004
 40
0.5625000000000004
 40
0.6250000000000003
 40
0.6250000000000003
 40
0.6875000000000003
 40
0.6875000000000003
 40
0.7500000000000002
 40
0.7500000000000002
 40
0.8125000000000002
 40
0.8125000000000002
 40
0.8750000000000002
 40
0.8750000000000002
 40
1.0
 40
1.0
 40
1.0
 40
1.0
 10
44.54412504417714
 20
156.3708523456267
 30
0.0
 10
44.54412504417714
 20
156.572751480992
 30
0.0
 10
44.49677999477097
 20
156.8011397829172
 30
0.0
 10
44.28746503950165
 20
157.1732802692225
 30
0.0
 10
44.19434347215031
 20
157.3020200281371
 30
0.0
 10
43.94896550593923
 20
157.5630283788681
 30
0.0
 10
43.79657163250104
 20
157.695310673623
 30
0.0
 10
43.42279492666296
 20
157.9537415668906
 30
0.0
 10
43.20123397383414
 20
158.079853321055
 30
0.0
 10
42.68687308508473
 20
158.3126302562557
 30
0.0
 10
42.39393897685615
 20
158.4191854421354
 30
0.0
 10
41.74726647540625
 20
158.5980303509711
 30
0.0
 10
41.39356340236469
 20
158.6701609366885
 30
0.0
 10
40.6504333836571
 20
158.7680282572159
 30
0.0
 10
40.26126695644949
 20
158.7936419700101
 30
0.0
 10
39.48256548595352
 20
158.7936419700101
 30
0.0
 10
39.09339905874589
 20
158.7680282572159
 30
0.0
 10
38.35026904003831
 20
158.6701609366885
 30
0.0
 10
37.99656596699672
 20
158.5980303509711
 30
0.0
 10
37.34989346554681
 20
158.4191854421354
 30
0.0
 10
37.05695935731823
 20
158.3126302562557
 30
0.0
 10
36.54259846856882
 20
158.079853321055
 30
0.0
 10
36.32103751573999
 20
157.9537415668906
 30
0.0
 10
35.94726080990192
 20
157.695310673623
 30
0.0
 10
35.79486693646373
 20
157.5630283788681
 30
0.0
 10
35.54948897025267
 20
157.3020200281371
 30
0.0
 10
35.45636740290131
 20
157.1732802692225
 30
0.0
 10
35.24705244763198
 20
156.8011397829172
 30
0.0
 10
35.19970739822584
 20
156.572751480992
 30
0.0
 10
35.19970739822583
 20
156.3708523456267
 30
0.0
  0
SPLINE
  5
150
330
1F
100
AcDbEntity
  8
0
  6
HIDDEN
 62
     7
370
    18
100
AcDbSpline
210
0.0
220
0.0
230
1.0
 70
     8
 71
     3
 72
    14
 73
    10
 74
     0
 42
0.00000001
 43
0.00000001
 40
0.0
 40
0.0
 40
0.0
 40
0.0
 40
0.2499999999999999
 40
0.2499999999999999
 40
0.4999999999999999
 40
0.4999999999999999
 40
0.7499999999999998
 40
0.7499999999999998
 40
1.0
 40
1.0
 40
1.0
 40
1.0
 10
42.41395578614987
 20
154.3380457466994
 30
0.0
 10
42.72590384500402
 20
154.4429409070622
 30
0.0
 10
43.02311623552237
 20
154.5707028520833
 30
0.0
 10
43.55444823964442
 20
154.8661343451256
 30
0.0
 10
43.78820591715319
 20
155.0337411763958
 30
0.0
 10
44.16616548066517
 20
155.3944255172948
 30
0.0
 10
44.31017648005931
 20
155.5873208650803
 30
0.0
 10
44.49910854016303
 20
155.9792326604696
 30
0.0
 10
44.54412504417716
 20
156.1780575124965
 30
0.0
 10
44.54412504417714
 20
156.3708523456267
 30
0.0
  0
LINE
  5
151
330
1F
100
AcDbEntity
  8
0
  6
HIDDEN
 62
     7
370
    18
100
AcDbLine
 10
118.2212641757
 20
158.1766134572
 30
0.0
 11
118.2212641757
 21
164.9434620675
 31
0.0
  0
LINE
  5
152
330
1F
100
AcDbEntity
  8
0
  6
HIDDEN
 62
     7
370
    18
100
AcDbLine
 10
47.7787311524
 20
158.1766134572
 30
0.0
 11
47.7787311524
 21
164.9434620675
 31
0.0
  0
LINE
  5
153
330
1F
100
AcDbEntity
  8
0
  6
HIDDEN
 62
     7
370
    18
100
AcDbLine
 10
43.1784024652
 20
154.1614417068
 30
0.0
 11
48.9288133242
 21
154.1614417068
 31
0.0
  0
LINE
  5
154
330
1F
100
AcDbEntity
  8
0
  6
HIDDEN
 62
     7
370
    18
100
AcDbLine
 10
48.9288133242
 20
158.4742498511
 30
0.0
 11
43.1784024652
 21
158.4742498511
 31
0.0
  0
LINE
  5
155
330
1F
100
AcDbEntity
  8
0
  6
HIDDEN
 62
     7
370
    18
100
AcDbLine
 10
122.821592863
 20
158.4742498511
 30
0.0
 11
117.0711820039
 21
158.4742498511
 31
0.0
  0
LINE
  5
156
330
1F
100
AcDbEntity
  8
0
  6
HIDDEN
 62
     7
370
    18
100
AcDbLine
 10
117.0711820039
 20
154.1614417068
 30
0.0
 11
122.821592863
 21
154.1614417068
 31
0.0
  0
LINE
  5
157
330
1F
100
AcDbEntity
  8
0
  6
HIDDEN
 62
     7
370
    18
100
AcDbLine
 10
86.5302343864
 20
154.5208423855
 30
0.0
 11
117.0711820039
 21
154.5208423855
 31
0.0
  0
LINE
  5
158
330
1F
100
AcDbEntity
  8
0
  6
HIDDEN
 62
     7
370
    18
100
AcDbLine
 10
117.0711820039
 20
158.1148491724
 30
0.0
 11
84.3411182581
 21
158.1148491724
 31
0.0
  0
LINE
  5
159
330
1F
100
AcDbEntity
  8
0
  6
HIDDEN
 62
     7
370
    18
100
AcDbLine
 10
48.9288133242
 20
154.5208423855
 30
0.0
 11
79.4697609417
 21
154.5208423855
 31
0.0
  0
LINE
  5
15A
330
1F
100
AcDbEntity
  8
0
  6
HIDDEN
 62
     7
370
    18
100
AcDbLine
 10
81.65887707
 20
158.1148491724
 30
0.0
 11
48.9288133242
 21
158.1148491724
 31
0.0
  0
LINE
  5
15B
330
1F
100
AcDbEntity
  8
0
  6
HIDDEN
 62
     7
370
    18
100
AcDbLine
 10
85.1564017362
 20
156.9271296392
 30
0.0
 11
85.1564017362
 21
159.0648799126
 31
0.0
  0
LINE
  5
15C
330
1F
100
AcDbEntity
  8
0
  6
HIDDEN
 62
     7
370
    18
100
AcDbLine
 10
80.8435935919
 20
159.0648799126
 30
0.0
 11
80.8435935919
 21
156.926665444
 31
0.0
  0
SPLINE
  5
15D
330
1F
100
AcDbEntity
  8
0
  6
HIDDEN
 62
     7
370
    18
100
AcDbSpline
210
0.0
220
0.0
230
1.0
 70
     8
 71
     3
 72
    13
 73
     9
 74
     0
 42
0.00000001
 43
0.00000001
 40
0.0
 40
0.0
 40
0.0
 40
0.0
 40
0.2428629041804756
 40
0.3732712424674571
 40
0.5058472314615294
 40
0.6375202577084597
 40
0.7653695688851411
 40
1.0
 40
1.0
 40
1.0
 40
1.0
 10
79.46508227786357
 20
154.5209227897868
 30
0.0
 10
79.55307891814604
 20
154.5112512796986
 30
0.0
 10
79.68832647833659
 20
154.4963865287424
 30
0.0
 10
79.8527405955262
 20
154.4021845348138
 30
0.0
 10
79.96339590261876
 20
154.3051685218737
 30
0.0
 10
80.04910929862558
 20
154.1866244000031
 30
0.0
 10
80.12617312543776
 20
154.0181242533655
 30
0.0
 10
80.12998529074075
 20
153.8855587810659
 30
0.0
 10
80.13245287688189
 20
153.7997501405058
 30
0.0
  0
SPLINE
  5
15E
330
1F
100
AcDbEntity
  8
0
  6
HIDDEN
 62
     7
370
    18
100
AcDbSpline
210
0.0
220
0.0
230
1.0
 70
     8
 71
     3
 72
    13
 73
     9
 74
     0
 42
0.00000001
 43
0.00000001
 40
0.0
 40
0.0
 40
0.0
 40
0.0
 40
0.234630431114879
 40
0.3624797422915707
 40
0.4941527685385027
 40
0.6267287575325697
 40
0.7571370958195401
 40
1.0
 40
1.0
 40
1.0
 40
1.0
 10
85.86754245122549
 20
153.7997501405057
 30
0.0
 10
85.87001003736663
 20
153.8855587810658
 30
0.0
 10
85.8738222026696
 20
154.0181242533654
 30
0.0
 10
85.9508860294818
 20
154.186624400003
 30
0.0
 10
86.03659942548863
 20
154.3051685218737
 30
0.0
 10
86.14725473258119
 20
154.4021845348138
 30
0.0
 10
86.31166884977078
 20
154.4963865287424
 30
0.0
 10
86.44691640996133
 20
154.5112512796986
 30
0.0
 10
86.5349130502438
 20
154.5209227897867
 30
0.0
  0
SPLINE
  5
15F
330
1F
100
AcDbEntity
  8
0
  6
HIDDEN
 62
     7
370
    18
100
AcDbSpline
210
0.0
220
0.0
230
1.0
 70
     8
 71
     3
 72
     9
 73
     5
 74
     0
 42
0.00000001
 43
0.00000001
 40
0.0
 40
0.0
 40
0.0
 40
0.0
 40
0.004802621765919
 40
1.0
 40
1.0
 40
1.0
 40
1.0
 10
132.8654302006738
 20
155.6026113482769
 30
0.0
 10
132.8654334673054
 20
155.6026444787578
 30
0.0
 10
132.8661136440269
 20
155.6095428943641
 30
0.0
 10
132.8670371815238
 20
155.618167160276
 30
0.0
 10
132.8679562836193
 20
155.6267500071008
 30
0.0
  0
SPLINE
  5
160
330
1F
100
AcDbEntity
  8
0
  6
HIDDEN
 62
     7
370
    18
100
AcDbSpline
210
0.0
220
0.0
230
1.0
 70
     8
 71
     3
 72
     9
 73
     5
 74
     0
 42
0.00000001
 43
0.00000001
 40
0.0
 40
0.0
 40
0.0
 40
0.0
 40
0.9951945678783702
 40
1.0
 40
1.0
 40
1.0
 40
1.0
 10
33.1320390251834
 20
155.6267501381978
 30
0.0
 10
33.13295812675898
 20
155.6181672905745
 30
0.0
 10
33.13388166634134
 20
155.6095429995058
 30
0.0
 10
33.13456184496721
 20
155.6026445628608
 30
0.0
 10
33.13456511351942
 20
155.6026114128917
 30
0.0
  0
LINE
  5
161
330
1F
100
AcDbEntity
  8
0
  6
HIDDEN
 62
     7
370
    18
100
AcDbLine
 10
121.4558702839
 20
160.6306539233
 30
0.0
 11
121.4558702839
 21
156.3708523456
 31
0.0
  0
LINE
  5
162
330
1F
100
AcDbEntity
  8
0
  6
HIDDEN
 62
     7
370
    18
100
AcDbLine
 10
130.8002879299
 20
156.3708523456
 30
0.0
 11
130.8002879299
 21
160.6306539233
 31
0.0
  0
LINE
  5
163
330
1F
100
AcDbEntity
  8
0
  6
HIDDEN
 62
     7
370
    18
100
AcDbLine
 10
35.1997073982
 20
160.6306539233
 30
0.0
 11
35.1997073982
 21
156.3708523456
 31
0.0
  0
LINE
  5
164
330
1F
100
AcDbEntity
  8
0
  6
HIDDEN
 62
     7
370
    18
100
AcDbLine
 10
44.5441250442
 20
156.3708523456
 30
0.0
 11
44.5441250442
 21
160.6306539233
 31
0.0
  0
LINE
  5
165
330
1F
100
AcDbEntity
  8
0
  6
HIDDEN
 62
     7
370
    18
100
AcDbLine
 10
123.6122743561
 20
164.9434620675
 30
0.0
 11
123.6122743561
 21
160.6306539233
 31
0.0
  0
LINE
  5
166
330
1F
100
AcDbEntity
  8
0
  6
HIDDEN
 62
     7
370
    18
100
AcDbLine
 10
128.6438838577
 20
160.6306539233
 30
0.0
 11
128.6438838577
 21
164.9434620675
 31
0.0
  0
LINE
  5
167
330
1F
100
AcDbEntity
  8
0
  6
HIDDEN
 62
     7
370
    18
100
AcDbLine
 10
37.3561114704
 20
164.9434620675
 30
0.0
 11
37.3561114704
 21
160.6306539233
 31
0.0
  0
LINE
  5
168
330
1F
100
AcDbEntity
  8
0
  6
HIDDEN
 62
     7
370
    18
100
AcDbLine
 10
42.387720972
 20
160.6306539233
 30
0.0
 11
42.387720972
 21
164.9434620675
 31
0.0
  0
ARC
  5
169
330
1F
100
AcDbEntity
  8
0
  6
Continuous
 62
     7
370
    25
100
AcDbCircle
 10
227.6063741764
 20
60.2103493463
 30
0.0
 40
1.150082171809399
100
AcDbArc
 50
26.9392839938
 51
152.0919869605
  0
ARC
  5
16A
330
1F
100
AcDbEntity
  8
0
  6
Continuous
 62
     7
370
    25
100
AcDbCircle
 10
220.3590218657
 20
56.4898379891
 30
0.0
 40
1.150082171809401
100
AcDbArc
 50
82.2564461175
 51
207.4091490843
  0
LINE
  5
16B
330
1F
100
AcDbEntity
  8
0
  6
Continuous
 62
     7
370
    25
100
AcDbLine
 10
229.9434620675
 20
46.6492479537
 30
0.0
 11
229.9434620675
 21
54.976876322
 31
0.0
  0
LINE
  5
16C
330
1F
100
AcDbEntity
  8
0
  6
Continuous
 62
     7
370
    25
100
AcDbLine
 10
228.6316576137
 20
60.7313895321
 30
0.0
 11
229.9434620675
 21
58.1500696718
 31
0.0
  0
SPLINE
  5
16D
330
1F
100
AcDbEntity
  8
0
  6
Continuous
 62
     7
370
    25
100
AcDbSpline
210
0.0
220
0.0
230
1.0
 70
    24
 71
     3
 72
    14
 73
    10
 74
     0
 42
0.00000001
 43
0.00000001
 40
0.0
 40
0.0
 40
0.0
 40
0.0
 40
0.2500000000000001
 40
0.2500000000000001
 40
0.5000000000000001
 40
0.5000000000000001
 40
0.7500000000000001
 40
0.7500000000000001
 40
1.0
 40
1.0
 40
1.0
 40
1.0
 10
229.9434620675455
 20
58.15006967180939
 30
0.0
 10
229.9434620675455
 20
58.15006967180939
 30
0.0
 10
229.9434620675455
 20
58.08191348064417
 30
0.0
 10
229.9434620675455
 20
57.77263527067989
 30
0.0
 10
229.9434620675455
 20
57.53046512904774
 30
0.0
 10
229.9434620675455
 20
56.91086058628609
 30
0.0
 10
229.9434620675455
 20
56.53552243082281
 30
0.0
 10
229.9434620675455
 20
55.75430158214344
 30
0.0
 10
229.9434620675455
 20
55.35084074461296
 30
0.0
 10
229.9434620675455
 20
54.97687632200217
 30
0.0
  0
ARC
  5
16E
330
1F
100
AcDbEntity
  8
0
  6
Continuous
 62
     7
370
    25
100
AcDbCircle
 10
221.317845779
 20
63.5410798522
 30
0.0
 40
5.966051266261239
100
AcDbArc
 50
262.2564461175
 51
332.0919869605
  0
LINE
  5
16F
330
1F
100
AcDbEntity
  8
0
  6
Continuous
 62
     7
370
    25
100
AcDbLine
 10
224.1072501651
 20
46.7632741539
 30
0.0
 11
219.3380457467
 21
55.9604073832
 31
0.0
  0
LINE
  5
170
330
1F
100
AcDbEntity
  8
0
  6
Continuous
 62
     7
370
    25
100
AcDbLine
 10
229.9434620675
 20
45.211645239
 30
0.0
 11
226.6596904625
 21
45.211645239
 31
0.0
  0
LINE
  5
171
330
1F
100
AcDbEntity
  8
0
  6
Continuous
 62
     7
370
    25
100
AcDbLine
 10
229.9434620675
 20
46.6492479537
 30
0.0
 11
229.9434620675
 21
45.211645239
 31
0.0
  0
ARC
  5
172
330
1F
100
AcDbEntity
  8
0
  6
Continuous
 62
     7
370
    25
100
AcDbCircle
 10
226.6596904625
 20
48.0868506685
 30
0.0
 40
2.875205429523476
100
AcDbArc
 50
207.4091490843
 51
270.0
  0
SPLINE
  5
173
330
1F
100
AcDbEntity
  8
0
  6
Continuous
 62
     7
370
    25
100
AcDbSpline
210
0.0
220
0.0
230
1.0
 70
    24
 71
     3
 72
    10
 73
     6
 74
     0
 42
0.00000001
 43
0.00000001
 40
0.0
 40
0.0
 40
0.0
 40
0.0
 40
0.5
 40
0.5
 40
1.0
 40
1.0
 40
1.0
 40
1.0
 10
227.9642734724158
 20
62.04464314491821
 30
0.0
 10
228.091995363238
 20
61.7933167735176
 30
0.0
 10
228.21369627172
 20
61.55383826652047
 30
0.0
 10
228.4326405004915
 20
61.12300798204836
 30
0.0
 10
228.5329617625936
 20
60.92559954551385
 30
0.0
 10
228.6316576137193
 20
60.73138953205381
 30
0.0
  0
SPLINE
  5
174
330
1F
100
AcDbEntity
  8
0
  6
Continuous
 62
     7
370
    25
100
AcDbSpline
210
0.0
220
0.0
230
1.0
 70
    24
 71
     3
 72
    10
 73
     6
 74
     0
 42
0.00000001
 43
0.00000001
 40
0.0
 40
0.0
 40
0.0
 40
0.0
 40
0.5
 40
0.5
 40
1.0
 40
1.0
 40
1.0
 40
1.0
 10
218.659914577688
 20
57.26814388627573
 30
0.0
 10
218.7896932010794
 20
57.01787336210791
 30
0.0
 10
218.913353884981
 20
56.77940092827976
 30
0.0
 10
219.1358238188861
 20
56.35038060493957
 30
0.0
 10
219.2377605754594
 20
56.15380150097862
 30
0.0
 10
219.3380457466994
 20
55.96040738323695
 30
0.0
  0
CIRCLE
  5
175
330
1F
100
AcDbEntity
  8
0
  6
Continuous
 62
     7
370
    25
100
AcDbCircle
 10
221.317845779
 20
63.5410798522
 30
0.0
 40
2.156404072142578
  0
ARC
  5
176
330
1F
100
AcDbEntity
  8
0
  6
Continuous
 62
     7
370
    25
100
AcDbCircle
 10
221.317845779
 20
63.5410798522
 30
0.0
 40
5.247249908880358
100
AcDbArc
 50
26.9392839938
 51
207.4091490843
  0
LINE
  5
177
330
1F
100
AcDbEntity
  8
0
  6
Continuous
 62
     7
370
    25
100
AcDbLine
 10
216.6596422362
 20
61.125552713
 30
0.0
 11
218.6599145777
 21
57.2681438863
 31
0.0
  0
LINE
  5
178
330
1F
100
AcDbEntity
  8
0
  6
Continuous
 62
     7
370
    25
100
AcDbLine
 10
227.9642734724
 20
62.0446431449
 30
0.0
 11
225.9957014615
 21
65.9183256996
 31
0.0
  0
CIRCLE
  5
179
330
1F
100
AcDbEntity
  8
0
  6
Continuous
 62
     7
370
    25
100
AcDbCircle
 10
221.317845779
 20
63.5410798522
 30
0.0
 40
1.797003393452201
  0
LINE
  5
17A
330
1F
100
AcDbEntity
  8
0
  6
Continuous
 62
     7
370
    25
100
AcDbLine
 10
223.0736395798
 20
63.9183479287
 30
0.0
 11
223.0870401542
 21
63.8559964424
 31
0.0
  0
SPLINE
  5
17B
330
1F
100
AcDbEntity
  8
0
  6
Continuous
 62
     7
370
    25
100
AcDbSpline
210
0.0
220
0.0
230
1.0
 70
     8
 71
     3
 72
    12
 73
     8
 74
     0
 42
0.00000001
 43
0.00000001
 40
0.0
 40
0.0
 40
0.0
 40
0.0
 40
0.2124239678182922
 40
0.4180261710842901
 40
0.6173882172587895
 40
0.8111479458386481
 40
1.0
 40
1.0
 40
1.0
 40
1.0
 10
219.5857639877348
 20
64.01973825283656
 30
0.0
 10
219.5770767220055
 20
63.98612011438563
 30
0.0
 10
219.5599811726316
 20
63.91996344741459
 30
0.0
 10
219.5418919853497
 20
63.82086628938593
 30
0.0
 10
219.529431546556
 20
63.72461531400934
 30
0.0
 10
219.5221327433224
 20
63.63126804196207
 30
0.0
 10
219.5212688109681
 20
63.57088440637256
 30
0.0
 10
219.5208423855229
 20
63.54107985216592
 30
0.0
  0
SPLINE
  5
17C
330
1F
100
AcDbEntity
  8
0
  6
Continuous
 62
     7
370
    25
100
AcDbSpline
210
0.0
220
0.0
230
1.0
 70
     8
 71
     3
 72
     9
 73
     5
 74
     0
 42
0.00000001
 43
0.00000001
 40
0.0
 40
0.0
 40
0.0
 40
0.0
 40
0.2891419660836804
 40
0.9999999999999999
 40
0.9999999999999999
 40
0.9999999999999999
 40
0.9999999999999999
 10
219.8816719684656
 20
62.4686123194786
 30
0.0
 10
219.9039363268915
 20
62.4375208104016
 30
0.0
 10
219.980937803804
 20
62.32999055632563
 30
0.0
 10
220.0066434011023
 20
62.30840425562051
 30
0.0
 10
220.0249164314585
 20
62.29305946034174
 30
0.0
  0
LINE
  5
17D
330
1F
100
AcDbEntity
  8
0
  6
HIDDEN
 62
     7
370
    18
100
AcDbLine
 10
225.6306539233
 20
56.712466957
 30
0.0
 11
225.6306539233
 21
47.3680493111
 31
0.0
  0
ARC
  5
17E
330
1F
100
AcDbEntity
  8
0
  6
HIDDEN
 62
     7
370
    18
100
AcDbCircle
 10
220.1947185349
 20
57.4312683144
 30
0.0
 40
1.437602714761752
100
AcDbArc
 50
207.4091490843
 51
270.0
  0
LINE
  5
17F
330
1F
100
AcDbEntity
  8
0
  6
HIDDEN
 62
     7
370
    18
100
AcDbLine
 10
220.1947185349
 20
55.9936655997
 30
0.0
 11
229.9434620675
 21
55.9936655997
 31
0.0
  0
ARC
  5
180
330
1F
100
AcDbEntity
  8
0
  6
HIDDEN
 62
     7
370
    18
100
AcDbCircle
 10
225.2425478403
 20
63.5925212753
 30
0.0
 40
1.72512325771408
100
AcDbArc
 50
26.9392839938
 51
117.174216539
  0
ARC
  5
181
330
1F
100
AcDbEntity
  8
0
  6
HIDDEN
 62
     7
370
    18
100
AcDbCircle
 10
218.988515291
 20
60.3819420002
 30
0.0
 40
1.725123257714093
100
AcDbArc
 50
117.174216539
 51
207.4091490843
  0
ARC
  5
182
330
1F
100
AcDbEntity
  8
0
  6
HIDDEN
 62
     7
370
    18
100
AcDbCircle
 10
223.7949658747
 20
63.9805677083
 30
0.0
 40
0.7188013573808826
100
AcDbArc
 50
117.174216539
 51
175.4712654284
  0
SPLINE
  5
183
330
1F
100
AcDbEntity
  8
0
  6
HIDDEN
 62
     7
370
    18
100
AcDbSpline
210
0.0
220
0.0
230
1.0
 70
     8
 71
     3
 72
     8
 73
     4
 74
     0
 42
0.00000001
 43
0.00000001
 40
0.0
 40
0.0
 40
0.0
 40
0.0
 40
1.0
 40
1.0
 40
1.0
 40
1.0
 10
223.0870718101692
 20
63.85599191036476
 30
0.0
 10
223.0755879154867
 20
63.92043970913412
 30
0.0
 10
223.0739706420914
 20
63.98130894558827
 30
0.0
 10
223.078408715709
 20
64.0373235825299
 30
0.0
  0
SPLINE
  5
184
330
1F
100
AcDbEntity
  8
0
  6
HIDDEN
 62
     7
370
    18
100
AcDbSpline
210
0.0
220
0.0
230
1.0
 70
     8
 71
     3
 72
    12
 73
     8
 74
     0
 42
0.00000001
 43
0.00000001
 40
0.0
 40
0.0
 40
0.0
 40
0.0
 40
0.5
 40
0.5
 40
0.75
 40
0.75
 40
1.0
 40
1.0
 40
1.0
 40
1.0
 10
219.4663326156085
 20
62.56640083503362
 30
0.0
 10
219.5284150162324
 20
62.52797879157025
 30
0.0
 10
219.6034918615727
 20
62.51028043458962
 30
0.0
 10
219.7447672749405
 20
62.46713732662722
 30
0.0
 10
219.797462321686
 20
62.44920046192752
 30
0.0
 10
219.9098693870055
 20
62.39108754296969
 30
0.0
 10
219.9694622935174
 20
62.35044567479309
 30
0.0
 10
220.0249011065703
 20
62.29302397862079
 30
0.0
  0
LINE
  5
185
330
1F
100
AcDbEntity
  8
0
  6
HIDDEN
 62
     7
370
    18
100
AcDbLine
 10
219.1782608978
 20
62.4318807905
 30
0.0
 11
219.188652705
 21
62.4238492175
 31
0.0
  0
SPLINE
  5
186
330
1F
100
AcDbEntity
  8
0
  6
HIDDEN
 62
     7
370
    18
100
AcDbSpline
210
0.0
220
0.0
230
1.0
 70
    24
 71
     3
 72
     9
 73
     5
 74
     0
 42
0.00000001
 43
0.00000001
 40
0.0
 40
0.0
 40
0.0
 40
0.0
 40
0.5217611553558961
 40
1.0
 40
1.0
 40
1.0
 40
1.0
 10
219.1886527049977
 20
62.42384921747465
 30
0.0
 10
219.2412286566871
 20
62.45083968475006
 30
0.0
 10
219.3419949769655
 20
62.50256922996125
 30
0.0
 10
219.4261072104401
 20
62.54574920887006
 30
0.0
 10
219.4663329477975
 20
62.56639955209517
 30
0.0
  0
LINE
  5
187
330
1F
100
AcDbEntity
  8
0
  6
HIDDEN
 62
     7
370
    18
100
AcDbLine
 10
223.4666909927
 20
64.6200291952
 30
0.0
 11
224.4546881235
 21
65.1272288439
 31
0.0
  0
LINE
  5
188
330
1F
100
AcDbEntity
  8
0
  6
HIDDEN
 62
     7
370
    18
100
AcDbLine
 10
218.2006555742
 20
61.9166495688
 30
0.0
 11
219.188652705
 21
62.4238492175
 31
0.0
  0
LINE
  5
189
330
1F
100
AcDbEntity
  8
0
  6
HIDDEN
 62
     7
370
    18
100
AcDbLine
 10
220.0249164315
 20
62.2930594603
 30
0.0
 11
220.1005279003
 21
62.2394242129
 31
0.0
  0
SPLINE
  5
18A
330
1F
100
AcDbEntity
  8
0
  6
HIDDEN
 62
     7
370
    18
100
AcDbSpline
210
0.0
220
0.0
230
1.0
 70
     8
 71
     3
 72
     8
 73
     4
 74
     0
 42
0.00000001
 43
0.00000001
 40
0.0
 40
0.0
 40
0.0
 40
0.0
 40
1.0
 40
1.0
 40
1.0
 40
1.0
 10
223.1148491724273
 20
63.54107985216592
 30
0.0
 10
223.1148491724273
 20
63.6441454202994
 30
0.0
 10
223.1061636559502
 20
63.74856103631134
 30
0.0
 10
223.0870401541821
 20
63.85599644241545
 30
0.0
  0
LINE
  5
18B
330
1F
100
AcDbEntity
  8
0
  6
HIDDEN
 62
     7
370
    18
100
AcDbLine
 10
223.1081824954
 20
64.1927091262
 30
0.0
 11
223.344202773
 21
64.278613482
 31
0.0
  0
SPLINE
  5
18C
330
1F
100
AcDbEntity
  8
0
  6
HIDDEN
 62
     7
370
    18
100
AcDbSpline
210
0.0
220
0.0
230
1.0
 70
     8
 71
     3
 72
     9
 73
     5
 74
     0
 42
0.00000001
 43
0.00000001
 40
0.0
 40
0.0
 40
0.0
 40
0.0
 40
0.4979684397440942
 40
0.9999999999999999
 40
0.9999999999999999
 40
0.9999999999999999
 40
0.9999999999999999
 10
216.0705958700947
 20
63.54107985216592
 30
0.0
 10
216.0706972781086
 20
63.56771656876204
 30
0.0
 10
216.0709009215643
 20
63.62120734140979
 30
0.0
 10
216.0723314551269
 20
63.67468479029992
 30
0.0
 10
216.0730496281234
 20
63.70153215740472
 30
0.0
  0
LINE
  5
18D
330
1F
100
AcDbEntity
  8
0
  6
HIDDEN
 62
     7
370
    18
100
AcDbLine
 10
225.6306539233
 20
56.712466957
 30
0.0
 11
219.2089396939
 21
56.712466957
 31
0.0
  0
LINE
  5
18E
330
1F
100
AcDbEntity
  8
0
  6
HIDDEN
 62
     7
370
    18
100
AcDbLine
 10
223.79364197
 20
47.3680493111
 30
0.0
 11
225.6306539233
 21
47.3680493111
 31
0.0
  0
LINE
  5
18F
330
1F
100
AcDbEntity
  8
0
  6
HIDDEN
 62
     7
370
    18
100
AcDbLine
 10
229.9434620675
 20
54.5560628849
 30
0.0
 11
225.6306539233
 21
54.5560628849
 31
0.0
  0
LINE
  5
190
330
1F
100
AcDbEntity
  8
0
  6
HIDDEN
 62
     7
370
    18
100
AcDbLine
 10
225.6306539233
 20
49.5244533832
 30
0.0
 11
229.9434620675
 21
49.5244533832
 31
0.0
  0
SPLINE
  5
191
330
1F
100
AcDbEntity
  8
0
  6
HIDDEN
 62
     7
370
    18
100
AcDbSpline
210
0.0
220
0.0
230
1.0
 70
     8
 71
     3
 72
    13
 73
     9
 74
     0
 42
0.00000001
 43
0.00000001
 40
0.0
 40
0.0
 40
0.0
 40
0.0
 40
0.14066147375346
 40
0.2851468260690991
 40
0.4371916260817116
 40
0.6025124805910061
 40
0.7880136646559829
 40
1.0
 40
1.0
 40
1.0
 40
1.0
 10
219.1848083249973
 20
62.42692039576466
 30
0.0
 10
219.2257092909288
 20
62.44544184139612
 30
0.0
 10
219.3086231145033
 20
62.48298823768427
 30
0.0
 10
219.4396105663039
 20
62.51011707100884
 30
0.0
 10
219.5662168798407
 20
62.5172236643277
 30
0.0
 10
219.6799615277689
 20
62.50722866068958
 30
0.0
 10
219.7751246157664
 20
62.48789386447035
 30
0.0
 10
219.8132168669437
 20
62.47669333786426
 30
0.0
 10
219.833532062611
 20
62.47071992115755
 30
0.0
  0
LINE
  5
192
330
1F
100
AcDbEntity
  8
0
  6
HIDDEN
 62
     7
370
    18
100
AcDbLine
 10
219.869502396
 20
62.4646777037
 30
0.0
 11
219.8802418885
 21
62.4628737074
 31
0.0
  0
LINE
  5
193
330
1F
100
AcDbEntity
  8
0
  6
HIDDEN
 62
     7
370
    18
100
AcDbLine
 10
219.391740572
 20
62.5281067012
 30
0.0
 11
221.7700826305
 21
55.9936655997
 31
0.0
  0
LINE
  5
194
330
1F
100
AcDbEntity
  8
0
  6
HIDDEN
 62
     7
370
    18
100
AcDbLine
 10
226.3596771946
 20
55.9936655997
 30
0.0
 11
223.344202773
 21
64.278613482
 31
0.0
  0
SPLINE
  5
195
330
1F
100
AcDbEntity
  8
0
  6
HIDDEN
 62
     7
370
    18
100
AcDbSpline
210
0.0
220
0.0
230
1.0
 70
     8
 71
     3
 72
     9
 73
     5
 74
     0
 42
0.00000001
 43
0.00000001
 40
0.0
 40
0.0
 40
0.0
 40
0.0
 40
0.8472485191611161
 40
1.0
 40
1.0
 40
1.0
 40
1.0
 10
217.2721014036225
 20
60.20881308393217
 30
0.0
 10
217.2587850401403
 20
60.38831652604288
 30
0.0
 10
217.2430678530564
 20
60.60018286519971
 30
0.0
 10
217.3205107416645
 20
60.79457852280924
 30
0.0
 10
217.3323402575799
 20
60.82427274737775
 30
0.0
  0
SPLINE
  5
196
330
1F
100
AcDbEntity
  8
0
  6
HIDDEN
 62
     7
370
    18
100
AcDbSpline
210
0.0
220
0.0
230
1.0
 70
     8
 71
     3
 72
     9
 73
     5
 74
     0
 42
0.00000001
 43
0.00000001
 40
0.0
 40
0.0
 40
0.0
 40
0.0
 40
0.2497287990911913
 40
1.0
 40
1.0
 40
1.0
 40
1.0
 10
217.7056693958314
 20
61.52076334581296
 30
0.0
 10
217.737103225458
 20
61.564425773217
 30
0.0
 10
217.8629750902213
 20
61.73926514922385
 30
0.0
 10
218.0519261433955
 20
61.84820947462973
 30
0.0
 10
218.1936906769735
 20
61.9299472644842
 30
0.0
  0
SPLINE
  5
197
330
1F
100
AcDbEntity
  8
0
  6
HIDDEN
 62
     7
370
    18
100
AcDbSpline
210
0.0
220
0.0
230
1.0
 70
     8
 71
     3
 72
     9
 73
     5
 74
     0
 42
0.00000001
 43
0.00000001
 40
0.0
 40
0.0
 40
0.0
 40
0.0
 40
0.7940369142800896
 40
1.0
 40
1.0
 40
1.0
 40
1.0
 10
224.4479422502307
 20
65.1406389780158
 30
0.0
 10
224.5968049096903
 20
65.20917367282367
 30
0.0
 10
224.7842806514128
 20
65.29548539659285
 30
0.0
 10
224.9876103601025
 20
65.29707531738168
 30
0.0
 10
225.0294887743228
 20
65.2974027823734
 30
0.0
  0
SPLINE
  5
198
330
1F
100
AcDbEntity
  8
0
  6
HIDDEN
 62
     7
370
    18
100
AcDbSpline
210
0.0
220
0.0
230
1.0
 70
     8
 71
     3
 72
    13
 73
     9
 74
     0
 42
0.00000001
 43
0.00000001
 40
0.0
 40
0.0
 40
0.0
 40
0.0
 40
0.1056286739962142
 40
0.2117949078738934
 40
0.3231315842547751
 40
0.4432712186383106
 40
0.70962187706322
 40
1.0
 40
1.0
 40
1.0
 40
1.0
 10
221.9422424019202
 20
65.23782002532279
 30
0.0
 10
222.0474150017723
 20
65.19275881132411
 30
0.0
 10
222.2582954403293
 20
65.10240706017102
 30
0.0
 10
222.5270712687004
 20
64.89961114249951
 30
0.0
 10
222.7384501513485
 20
64.67589114587899
 30
0.0
 10
222.9445014332412
 20
64.36914789200387
 30
0.0
 10
223.0612517142274
 20
64.03996571359369
 30
0.0
 10
223.0712682422418
 20
63.98665603892495
 30
0.0
 10
223.0764926543802
 20
63.95885082428018
 30
0.0
  0
INSERT
  5
1A4
330
1F
100
AcDbEntity
  8
10
100
AcDbBlockReference
  2
SW_CENTERMARKSYMBOL_2
 10
221.317845779
 20
63.5410798522
 30
0.0
  0
ENDSEC
  0
SECTION
  2
OBJECTS
  0
DICTIONARY
  5
C
330
0
100
AcDbDictionary
281
     1
  3
ACAD_GROUP
350
D
  3
ACAD_LAYOUT
350
1A
  3
ACAD_MLINESTYLE
350
17
  3
ACAD_PLOTSETTINGS
350
19
  3
ACAD_PLOTSTYLENAME
350
E
  3
ACAD_SCALELIST
350
47
  3
DWGPROPS
350
1A5
  0
DICTIONARY
  5
D
102
{ACAD_REACTORS
330
C
102
}
330
C
100
AcDbDictionary
281
     1
  0
DICTIONARY
  5
1A
102
{ACAD_REACTORS
330
C
102
}
330
C
100
AcDbDictionary
281
     1
  3
Layout1
350
1E
  3
Layout2
350
26
  3
Model
350
22
  0
DICTIONARY
  5
17
102
{ACAD_REACTORS
330
C
102
}
330
C
100
AcDbDictionary
281
     1
  3
Standard
350
18
  0
DICTIONARY
  5
19
102
{ACAD_REACTORS
330
C
102
}
330
C
100
AcDbDictionary
281
     1
  0
ACDBDICTIONARYWDFLT
  5
E
102
{ACAD_REACTORS
330
C
102
}
330
C
100
AcDbDictionary
281
     1
  3
Normal
350
F
100
AcDbDictionaryWithDefault
340
F
  0
DICTIONARY
  5
47
102
{ACAD_REACTORS
330
C
102
}
330
C
100
AcDbDictionary
281
     1
  3
A0
350
48
  3
A1
350
49
  3
A2
350
4A
  3
A3
350
4B
  3
A4
350
4C
  3
A5
350
4D
  3
A6
350
4E
  3
A7
350
4F
  3
A8
350
50
  3
A9
350
51
  3
B0
350
52
  3
B1
350
53
  3
B2
350
54
  3
B3
350
55
  3
B4
350
56
  3
B5
350
57
  3
B6
350
58
  0
XRECORD
  5
1A5
102
{ACAD_REACTORS
330
C
102
}
330
C
100
AcDbXrecord
280
     1
  1
DWGPROPS COOKIE
  2

  3

  4

  6

  7

  8

  9

300
=
301
=
302
=
303
=
304
=
305
=
306
=
307
=
308
=
309
=
 40
0.0
 41
2461214.475961621
 42
2461214.475962014
  1

 90
        0
  0
LAYOUT
  5
1E
102
{ACAD_REACTORS
330
1A
102
}
330
1A
100
AcDbPlotSettings
  1

  2
none_device
  4

  6

 40
0.0
 41
0.0
 42
0.0
 43
0.0
 44
0.0
 45
0.0
 46
0.0
 47
0.0
 48
0.0
 49
0.0
140
0.0
141
0.0
142
1.0
143
1.0
 70
   688
 72
     1
 73
     0
 74
     5
  7

 75
    16
147
1.0
148
0.0
149
0.0
100
AcDbLayout
  1
Layout1
 70
     1
 71
     1
 10
0.0
 20
0.0
 11
420.0
 21
297.0
 12
0.0
 22
0.0
 32
0.0
 14
1.0000000000E+20
 24
1.0000000000E+20
 34
1.0000000000E+20
 15
-1.0000000000E+20
 25
-1.0000000000E+20
 35
-1.0000000000E+20
146
0.0
 13
0.0
 23
0.0
 33
0.0
 16
1.0
 26
0.0
 36
0.0
 17
0.0
 27
1.0
 37
0.0
 76
     0
330
1B
  0
LAYOUT
  5
26
102
{ACAD_REACTORS
330
1A
102
}
330
1A
100
AcDbPlotSettings
  1

  2
none_device
  4

  6

 40
0.0
 41
0.0
 42
0.0
 43
0.0
 44
0.0
 45
0.0
 46
0.0
 47
0.0
 48
0.0
 49
0.0
140
0.0
141
0.0
142
1.0
143
1.0
 70
   688
 72
     1
 73
     0
 74
     5
  7

 75
    16
147
1.0
148
0.0
149
0.0
100
AcDbLayout
  1
Layout2
 70
     1
 71
     2
 10
0.0
 20
0.0
 11
0.0
 21
0.0
 12
0.0
 22
0.0
 32
0.0
 14
0.0
 24
0.0
 34
0.0
 15
0.0
 25
0.0
 35
0.0
146
0.0
 13
0.0
 23
0.0
 33
0.0
 16
1.0
 26
0.0
 36
0.0
 17
0.0
 27
1.0
 37
0.0
 76
     0
330
23
  0
LAYOUT
  5
22
102
{ACAD_REACTORS
330
1A
102
}
330
1A
100
AcDbPlotSettings
  1

  2
none_device
  4
Letter_(8.50_x_11.00_Inches)
  6

 40
6.35
 41
6.35
 42
6.35000508
 43
6.35000508
 44
215.9
 45
279.4
 46
0.0
 47
0.0
 48
0.0
 49
0.0
140
0.0
141
0.0
142
1.0
143
1.0
 70
  1712
 72
     1
 73
     0
 74
     0
  7

 75
     0
147
1.0
148
0.0
149
0.0
100
AcDbLayout
  1
Model
 70
     1
 71
     0
 10
0.0
 20
0.0
 11
297.0
 21
210.0
 12
0.0
 22
0.0
 32
0.0
 14
0.0
 24
0.0
 34
0.0
 15
297.0
 25
210.0
 35
0.0
146
0.0
 13
0.0
 23
0.0
 33
0.0
 16
1.0
 26
0.0
 36
0.0
 17
0.0
 27
1.0
 37
0.0
 76
     0
330
1F
331
29
  0
MLINESTYLE
  5
18
102
{ACAD_REACTORS
330
17
102
}
330
17
100
AcDbMlineStyle
  2
Standard
 70
     0
  3

 62
   256
 51
90.0
 52
90.0
 71
     2
 49
0.5
 62
   256
  6
BYLAYER
 49
-0.5
 62
   256
  6
BYLAYER
  0
ACDBPLACEHOLDER
  5
F
102
{ACAD_REACTORS
330
E
102
}
330
E
  0
SCALE
  5
48
102
{ACAD_REACTORS
330
47
102
}
330
47
100
AcDbScale
 70
     0
300
1:1
140
1.0
141
1.0
290
     1
  0
SCALE
  5
49
102
{ACAD_REACTORS
330
47
102
}
330
47
100
AcDbScale
 70
     0
300
1:2
140
1.0
141
2.0
290
     0
  0
SCALE
  5
4A
102
{ACAD_REACTORS
330
47
102
}
330
47
100
AcDbScale
 70
     0
300
1:4
140
1.0
141
4.0
290
     0
  0
SCALE
  5
4B
102
{ACAD_REACTORS
330
47
102
}
330
47
100
AcDbScale
 70
     0
300
1:5
140
1.0
141
5.0
290
     0
  0
SCALE
  5
4C
102
{ACAD_REACTORS
330
47
102
}
330
47
100
AcDbScale
 70
     0
300
1:8
140
1.0
141
8.0
290
     0
  0
SCALE
  5
4D
102
{ACAD_REACTORS
330
47
102
}
330
47
100
AcDbScale
 70
     0
300
1:10
140
1.0
141
10.0
290
     0
  0
SCALE
  5
4E
102
{ACAD_REACTORS
330
47
102
}
330
47
100
AcDbScale
 70
     0
300
1:16
140
1.0
141
16.0
290
     0
  0
SCALE
  5
4F
102
{ACAD_REACTORS
330
47
102
}
330
47
100
AcDbScale
 70
     0
300
1:20
140
1.0
141
20.0
290
     0
  0
SCALE
  5
50
102
{ACAD_REACTORS
330
47
102
}
330
47
100
AcDbScale
 70
     0
300
1:30
140
1.0
141
30.0
290
     0
  0
SCALE
  5
51
102
{ACAD_REACTORS
330
47
102
}
330
47
100
AcDbScale
 70
     0
300
1:40
140
1.0
141
40.0
290
     0
  0
SCALE
  5
52
102
{ACAD_REACTORS
330
47
102
}
330
47
100
AcDbScale
 70
     0
300
1:50
140
1.0
141
50.0
290
     0
  0
SCALE
  5
53
102
{ACAD_REACTORS
330
47
102
}
330
47
100
AcDbScale
 70
     0
300
1:100
140
1.0
141
100.0
290
     0
  0
SCALE
  5
54
102
{ACAD_REACTORS
330
47
102
}
330
47
100
AcDbScale
 70
     0
300
2:1
140
2.0
141
1.0
290
     0
  0
SCALE
  5
55
102
{ACAD_REACTORS
330
47
102
}
330
47
100
AcDbScale
 70
     0
300
4:1
140
4.0
141
1.0
290
     0
  0
SCALE
  5
56
102
{ACAD_REACTORS
330
47
102
}
330
47
100
AcDbScale
 70
     0
300
8:1
140
8.0
141
1.0
290
     0
  0
SCALE
  5
57
102
{ACAD_REACTORS
330
47
102
}
330
47
100
AcDbScale
 70
     0
300
10:1
140
10.0
141
1.0
290
     0
  0
SCALE
  5
58
102
{ACAD_REACTORS
330
47
102
}
330
47
100
AcDbScale
 70
     0
300
100:1
140
100.0
141
1.0
290
     0
  0
ENDSEC
  0
EOF
