  0
SECTION
  2
HEADER
  9
$ACADVER
  1
AC1015
  9
$ACADMAINTVER
 70
     6
  9
$DWGCODEPAGE
  3
ANSI_936
  9
$INSBASE
 10
0.0
 20
0.0
 30
0.0
  9
$EXTMIN
 10
0.0
 20
0.0
 30
0.0
  9
$EXTMAX
 10
297.0
 20
210.0
 30
0.0
  9
$LIMMIN
 10
0.0
 20
0.0
  9
$LIMMAX
 10
297.0
 20
210.0
  9
$ORTHOMODE
 70
     0
  9
$REGENMODE
 70
     1
  9
$FILLMODE
 70
     1
  9
$QTEXTMODE
 70
     0
  9
$MIRRTEXT
 70
     1
  9
$LTSCALE
 40
1.0
  9
$ATTMODE
 70
     1
  9
$TEXTSIZE
 40
3.5
  9
$TRACEWID
 40
1.0
  9
$TEXTSTYLE
  7
Standard
  9
$CLAYER
  8
0
  9
$CELTYPE
  6
ByLayer
  9
$CECOLOR
 62
   256
  9
$CELTSCALE
 40
1.0
  9
$DISPSILH
 70
     0
  9
$DIMSCALE
 40
1.0
  9
$DIMASZ
 40
4.08
  9
$DIMEXO
 40
0.0
  9
$DIMDLI
 40
3.75
  9
$DIMRND
 40
0.0
  9
$DIMDLE
 40
0.0
  9
$DIMEXE
 40
2.0
  9
$DIMTP
 40
0.0
  9
$DIMTM
 40
0.0
  9
$DIMTXT
 40
3.5
  9
$DIMCEN
 40
2.5
  9
$DIMTSZ
 40
0.0
  9
$DIMTOL
 70
     0
  9
$DIMLIM
 70
     0
  9
$DIMTIH
 70
     1
  9
$DIMTOH
 70
     1
  9
$DIMSE1
 70
     0
  9
$DIMSE2
 70
     0
  9
$DIMTAD
 70
     1
  9
$DIMZIN
 70
     0
  9
$DIMBLK
  1

  9
$DIMASO
 70
     1
  9
$DIMSHO
 70
     1
  9
$DIMPOST
  1

  9
$DIMAPOST
  1

  9
$DIMALT
 70
     0
  9
$DIMALTD
 70
     3
  9
$DIMALTF
 40
0.0393700787
  9
$DIMLFAC
 40
2.0
  9
$DIMTOFL
 70
     1
  9
$DIMTVP
 40
0.0
  9
$DIMTIX
 70
     0
  9
$DIMSOXD
 70
     0
  9
$DIMSAH
 70
     0
  9
$DIMBLK1
  1

  9
$DIMBLK2
  1

  9
$DIMSTYLE
  2
ISO-25
  9
$DIMCLRD
 70
     0
  9
$DIMCLRE
 70
     0
  9
$DIMCLRT
 70
     0
  9
$DIMTFAC
 40
1.0
  9
$DIMGAP
 40
1.524
  9
$DIMJUST
 70
     0
  9
$DIMSD1
 70
     0
  9
$DIMSD2
 70
     0
  9
$DIMTOLJ
 70
     0
  9
$DIMTZIN
 70
     0
  9
$DIMALTZ
 70
     0
  9
$DIMALTTZ
 70
     0
  9
$DIMUPT
 70
     0
  9
$DIMDEC
 70
     2
  9
$DIMTDEC
 70
     2
  9
$DIMALTU
 70
     2
  9
$DIMALTTD
 70
     3
  9
$DIMTXSTY
  7
Standard
  9
$DIMAUNIT
 70
     0
  9
$DIMADEC
 70
     2
  9
$DIMALTRND
 40
0.0
  9
$DIMAZIN
 70
     0
  9
$DIMDSEP
 70
    44
  9
$DIMATFIT
 70
     3
  9
$DIMFRAC
 70
     0
  9
$DIMLDRBLK
  1

  9
$DIMLUNIT
 70
     2
  9
$DIMLWD
 70
    -2
  9
$DIMLWE
 70
    -2
  9
$DIMTMOVE
 70
     0
  9
$LUNITS
 70
     2
  9
$LUPREC
 70
     2
  9
$SKETCHINC
 40
1.0
  9
$FILLETRAD
 40
0.0
  9
$AUNITS
 70
     0
  9
$AUPREC
 70
     2
  9
$MENU
  1
.
  9
$ELEVATION
 40
0.0
  9
$PELEVATION
 40
0.0
  9
$THICKNESS
 40
0.0
  9
$LIMCHECK
 70
     0
  9
$CHAMFERA
 40
0.0
  9
$CHAMFERB
 40
0.0
  9
$CHAMFERC
 40
0.0
  9
$CHAMFERD
 40
0.0
  9
$SKPOLY
 70
     0
  9
$TDCREATE
 40
2461214.754538773
  9
$TDUCREATE
 40
2461214.42120544
  9
$TDUPDATE
 40
2461214.754539028
  9
$TDUUPDATE
 40
2461214.421205695
  9
$TDINDWG
 40
0.0000000116
  9
$TDUSRTIMER
 40
0.0000000116
  9
$USRTIMER
 70
     1
  9
$ANGBASE
 50
0.0
  9
$ANGDIR
 70
     0
  9
$PDMODE
 70
     0
  9
$PDSIZE
 40
-1.0
  9
$PLINEWID
 40
0.0
  9
$SPLFRAME
 70
     0
  9
$SPLINETYPE
 70
     6
  9
$SPLINESEGS
 70
     8
  9
$HANDSEED
  5
120
  9
$SURFTAB1
 70
     6
  9
$SURFTAB2
 70
     6
  9
$SURFTYPE
 70
     6
  9
$SURFU
 70
     6
  9
$SURFV
 70
     6
  9
$UCSBASE
  2

  9
$UCSNAME
  2

  9
$UCSORG
 10
0.0
 20
0.0
 30
0.0
  9
$UCSXDIR
 10
1.0
 20
0.0
 30
0.0
  9
$UCSYDIR
 10
0.0
 20
1.0
 30
0.0
  9
$UCSORTHOREF
  2

  9
$UCSORTHOVIEW
 70
     0
  9
$UCSORGTOP
 10
0.0
 20
0.0
 30
0.0
  9
$UCSORGBOTTOM
 10
0.0
 20
0.0
 30
0.0
  9
$UCSORGLEFT
 10
0.0
 20
0.0
 30
0.0
  9
$UCSORGRIGHT
 10
0.0
 20
0.0
 30
0.0
  9
$UCSORGFRONT
 10
0.0
 20
0.0
 30
0.0
  9
$UCSORGBACK
 10
0.0
 20
0.0
 30
0.0
  9
$PUCSBASE
  2

  9
$PUCSNAME
  2

  9
$PUCSORG
 10
0.0
 20
0.0
 30
0.0
  9
$PUCSXDIR
 10
1.0
 20
0.0
 30
0.0
  9
$PUCSYDIR
 10
0.0
 20
1.0
 30
0.0
  9
$PUCSORTHOREF
  2

  9
$PUCSORTHOVIEW
 70
     0
  9
$PUCSORGTOP
 10
0.0
 20
0.0
 30
0.0
  9
$PUCSORGBOTTOM
 10
0.0
 20
0.0
 30
0.0
  9
$PUCSORGLEFT
 10
0.0
 20
0.0
 30
0.0
  9
$PUCSORGRIGHT
 10
0.0
 20
0.0
 30
0.0
  9
$PUCSORGFRONT
 10
0.0
 20
0.0
 30
0.0
  9
$PUCSORGBACK
 10
0.0
 20
0.0
 30
0.0
  9
$USERI1
 70
     0
  9
$USERI2
 70
     0
  9
$USERI3
 70
     0
  9
$USERI4
 70
     0
  9
$USERI5
 70
     0
  9
$USERR1
 40
0.0
  9
$USERR2
 40
0.0
  9
$USERR3
 40
0.0
  9
$USERR4
 40
0.0
  9
$USERR5
 40
0.0
  9
$WORLDVIEW
 70
     1
  9
$SHADEDGE
 70
     3
  9
$SHADEDIF
 70
    70
  9
$TILEMODE
 70
     1
  9
$MAXACTVP
 70
    64
  9
$PINSBASE
 10
0.0
 20
0.0
 30
0.0
  9
$PLIMCHECK
 70
     0
  9
$PEXTMIN
 10
1.0000000000E+20
 20
1.0000000000E+20
 30
1.0000000000E+20
  9
$PEXTMAX
 10
-1.0000000000E+20
 20
-1.0000000000E+20
 30
-1.0000000000E+20
  9
$PLIMMIN
 10
0.0
 20
0.0
  9
$PLIMMAX
 10
420.0
 20
297.0
  9
$UNITMODE
 70
     0
  9
$VISRETAIN
 70
     1
  9
$PLINEGEN
 70
     0
  9
$PSLTSCALE
 70
     1
  9
$TREEDEPTH
 70
  3020
  9
$CMLSTYLE
  2
Standard
  9
$CMLJUST
 70
     0
  9
$CMLSCALE
 40
20.0
  9
$PROXYGRAPHICS
 70
     1
  9
$MEASUREMENT
 70
     1
  9
$CELWEIGHT
370
    -1
  9
$ENDCAPS
280
     0
  9
$JOINSTYLE
280
     0
  9
$LWDISPLAY
290
     1
  9
$INSUNITS
 70
     4
  9
$HYPERLINKBASE
  1

  9
$STYLESHEET
  1

  9
$XEDIT
290
     1
  9
$CEPSNTYPE
380
     0
  9
$PSTYLEMODE
290
     1
  9
$FINGERPRINTGUID
  2
{1118b6f7-d0bf-4521-84a8-049a11753c6e}
  9
$VERSIONGUID
  2
{FAEB1C32-E019-11D5-929B-00C0DF256EC4}
  9
$EXTNAMES
290
     1
  9
$PSVPSCALE
 40
0.0
  9
$OLESTARTUP
290
     0
  0
ENDSEC
  0
SECTION
  2
CLASSES
  0
CLASS
  1
ACDBDICTIONARYWDFLT
  2
AcDbDictionaryWithDefault
  3
ObjectDBX Classes
 90
        0
280
     0
281
     0
  0
CLASS
  1
VISUALSTYLE
  2
AcDbVisualStyle
  3
ObjectDBX Classes
 90
     4095
280
     0
281
     0
  0
CLASS
  1
MATERIAL
  2
AcDbMaterial
  3
ObjectDBX Classes
 90
     1153
280
     0
281
     0
  0
CLASS
  1
SCALE
  2
AcDbScale
  3
ObjectDBX Classes
 90
     1153
280
     0
281
     0
  0
CLASS
  1
TABLESTYLE
  2
AcDbTableStyle
  3
ObjectDBX Classes
 90
     4095
280
     0
281
     0
  0
CLASS
  1
MLEADERSTYLE
  2
AcDbMLeaderStyle
  3
ACDB_MLEADERSTYLE_CLASS
 90
     4095
280
     0
281
     0
  0
CLASS
  1
SUN
  2
AcDbSun
  3
SCENEOE
 90
     1153
280
     0
281
     0
  0
CLASS
  1
ACDBPLACEHOLDER
  2
AcDbPlaceHolder
  3
ObjectDBX Classes
 90
        0
280
     0
281
     0
  0
CLASS
  1
LAYOUT
  2
AcDbLayout
  3
ObjectDBX Classes
 90
        0
280
     0
281
     0
  0
ENDSEC
  0
SECTION
  2
TABLES
  0
TABLE
  2
VPORT
  5
8
330
0
100
AcDbSymbolTable
 70
     1
  0
VPORT
  5
29
330
8
100
AcDbSymbolTableRecord
100
AcDbViewportTableRecord
  2
*Active
 70
     0
 10
0.0
 20
0.0
 11
1.0
 21
1.0
 12
148.5
 22
105.0
 13
0.0
 23
0.0
 14
10.0
 24
10.0
 15
10.0
 25
10.0
 16
0.0
 26
0.0
 36
1.0
 17
0.0
 27
0.0
 37
0.0
 40
210.0
 41
1.4142857143
 42
50.0
 43
0.0
 44
0.0
 50
0.0
 51
0.0
 71
     0
 72
  2000
 73
     1
 74
     3
 75
     0
 76
     0
 77
     0
 78
     0
281
     0
 65
     1
110
0.0
120
0.0
130
0.0
111
1.0
121
0.0
131
0.0
112
0.0
122
1.0
132
0.0
 79
     0
146
0.0
  0
ENDTAB
  0
TABLE
  2
LTYPE
  5
5
330
0
100
AcDbSymbolTable
 70
     6
  0
LTYPE
  5
14
330
5
100
AcDbSymbolTableRecord
100
AcDbLinetypeTableRecord
  2
ByBlock
 70
     0
  3

 72
    65
 73
     0
 40
0.0
  0
LTYPE
  5
15
330
5
100
AcDbSymbolTableRecord
100
AcDbLinetypeTableRecord
  2
ByLayer
 70
     0
  3

 72
    65
 73
     0
 40
0.0
  0
LTYPE
  5
16
330
5
100
AcDbSymbolTableRecord
100
AcDbLinetypeTableRecord
  2
Continuous
 70
     0
  3
Solid line
 72
    65
 73
     0
 40
0.0
  0
LTYPE
  5
5E
330
5
100
AcDbSymbolTableRecord
100
AcDbLinetypeTableRecord
  2
HIDDEN
 70
     0
  3
Hidden __ __ __ __ __ __ __ __ __ __ __ __ __ __
 72
    65
 73
     2
 40
1.905
 49
1.27
 74
     0
 49
-0.635
 74
     0
  0
LTYPE
  5
5F
330
5
100
AcDbSymbolTableRecord
100
AcDbLinetypeTableRecord
  2
PHANTOM
 70
     0
  3
Phantom ______  __  __  ______  __  __  ______
 72
    65
 73
     6
 40
12.7
 49
6.35
 74
     0
 49
-1.27
 74
     0
 49
1.27
 74
     0
 49
-1.27
 74
     0
 49
1.27
 74
     0
 49
-1.27
 74
     0
  0
LTYPE
  5
60
330
5
100
AcDbSymbolTableRecord
100
AcDbLinetypeTableRecord
  2
CENTER
 70
     0
  3
Center ____ _ ____ _ ____ _ ____ _ ____ _ ____
 72
    65
 73
     4
 40
10.16
 49
6.35
 74
     0
 49
-1.27
 74
     0
 49
1.27
 74
     0
 49
-1.27
 74
     0
  0
LTYPE
  5
61
330
5
100
AcDbSymbolTableRecord
100
AcDbLinetypeTableRecord
  2
CENTERX2
 70
     0
  3
Center (2x) ________  __  ________  __  _____
 72
    65
 73
     4
 40
20.32
 49
12.7
 74
     0
 49
-2.54
 74
     0
 49
2.54
 74
     0
 49
-2.54
 74
     0
  0
LTYPE
  5
62
330
5
100
AcDbSymbolTableRecord
100
AcDbLinetypeTableRecord
  2
DOT2
 70
     0
  3
Dot (.5x) ........................................
 72
    65
 73
     2
 40
0.635
 49
0.0
 74
     0
 49
-0.635
 74
     0
  0
ENDTAB
  0
TABLE
  2
LAYER
  5
2
330
0
100
AcDbSymbolTable
 70
    14
  0
LAYER
  5
10
330
2
100
AcDbSymbolTableRecord
100
AcDbLayerTableRecord
  2
0
 70
     0
 62
     7
  6
Continuous
370
    -3
390
F
  0
LAYER
  5
63
330
2
100
AcDbSymbolTableRecord
100
AcDbLayerTableRecord
  2
SLD-0
 70
     0
 62
     7
  6
Continuous
370
    -3
390
F
  0
LAYER
  5
64
330
2
100
AcDbSymbolTableRecord
100
AcDbLayerTableRecord
  2
5
 70
     0
 62
     7
  6
Continuous
370
    -3
390
F
  0
LAYER
  5
65
330
2
100
AcDbSymbolTableRecord
100
AcDbLayerTableRecord
  2
9
 70
     0
 62
     7
  6
Continuous
370
    -3
390
F
  0
LAYER
  5
66
330
2
100
AcDbSymbolTableRecord
100
AcDbLayerTableRecord
  2
10
 70
     0
 62
     7
  6
Continuous
370
    -3
390
F
  0
LAYER
  5
67
330
2
100
AcDbSymbolTableRecord
100
AcDbLayerTableRecord
  2
轮廓实线层
 70
     0
 62
     7
  6
Continuous
370
    50
390
F
  0
LAYER
  5
68
330
2
100
AcDbSymbolTableRecord
100
AcDbLayerTableRecord
  2
细线层
 70
     0
 62
     4
  6
Continuous
370
    25
390
F
  0
LAYER
  5
69
330
2
100
AcDbSymbolTableRecord
100
AcDbLayerTableRecord
  2
中心线层
 70
     0
 62
     1
  6
CENTERX2
370
    25
390
F
  0
LAYER
  5
6A
330
2
100
AcDbSymbolTableRecord
100
AcDbLayerTableRecord
  2
虚线层
 70
     0
 62
     6
  6
HIDDEN
370
    25
390
F
  0
LAYER
  5
6B
330
2
100
AcDbSymbolTableRecord
100
AcDbLayerTableRecord
  2
剖面线层
 70
     0
 62
     2
  6
Continuous
370
    25
390
F
  0
LAYER
  5
6C
330
2
100
AcDbSymbolTableRecord
100
AcDbLayerTableRecord
  2
文字层
 70
     0
 62
     3
  6
Continuous
370
    25
390
F
  0
LAYER
  5
6D
330
2
100
AcDbSymbolTableRecord
100
AcDbLayerTableRecord
  2
标注层
 70
     0
 62
     4
  6
Continuous
370
    25
390
F
  0
LAYER
  5
6E
330
2
100
AcDbSymbolTableRecord
100
AcDbLayerTableRecord
  2
符号标注层
 70
     0
 62
    31
  6
Continuous
370
    25
390
F
  0
LAYER
  5
6F
330
2
100
AcDbSymbolTableRecord
100
AcDbLayerTableRecord
  2
双点划线层
 70
     0
 62
     6
  6
PHANTOM
370
    25
390
F
  0
ENDTAB
  0
TABLE
  2
STYLE
  5
3
330
0
100
AcDbSymbolTable
 70
     1
  0
STYLE
  5
11
330
3
100
AcDbSymbolTableRecord
100
AcDbTextStyleTableRecord
  2
Standard
 70
     0
 40
0.0
 41
1.0
 50
0.0
 71
     0
 42
3.5
  3
txt
  4

  0
ENDTAB
  0
TABLE
  2
VIEW
  5
6
330
0
100
AcDbSymbolTable
 70
     0
  0
ENDTAB
  0
TABLE
  2
UCS
  5
7
330
0
100
AcDbSymbolTable
 70
     0
  0
ENDTAB
  0
TABLE
  2
APPID
  5
9
330
0
100
AcDbSymbolTable
 70
     1
  0
APPID
  5
12
330
9
100
AcDbSymbolTableRecord
100
AcDbRegAppTableRecord
  2
ACAD
 70
     0
  0
ENDTAB
  0
TABLE
  2
DIMSTYLE
  5
A
330
0
100
AcDbSymbolTable
 70
     1
100
AcDbDimStyleTable
  0
DIMSTYLE
105
27
330
A
100
AcDbSymbolTableRecord
100
AcDbDimStyleTableRecord
  2
ISO-25
 70
     0
 41
2.5
 42
0.625
 43
3.75
 44
1.25
 73
     0
 74
     0
 77
     1
 78
     8
140
2.5
141
2.5
143
0.0393700787
147
0.625
171
     3
172
     1
178
     0
271
     2
272
     2
274
     3
278
    44
283
     0
284
     8
340
11
  0
ENDTAB
  0
TABLE
  2
BLOCK_RECORD
  5
1
330
0
100
AcDbSymbolTable
 70
     3
  0
BLOCK_RECORD
  5
1F
330
1
100
AcDbSymbolTableRecord
100
AcDbBlockTableRecord
  2
*Model_Space
340
22
  0
BLOCK_RECORD
  5
1B
330
1
100
AcDbSymbolTableRecord
100
AcDbBlockTableRecord
  2
*Paper_Space
340
1E
  0
BLOCK_RECORD
  5
23
330
1
100
AcDbSymbolTableRecord
100
AcDbBlockTableRecord
  2
*Paper_Space0
340
26
  0
BLOCK_RECORD
  5
A0
330
1
100
AcDbSymbolTableRecord
100
AcDbBlockTableRecord
  2
SW_CENTERMARKSYMBOL_0
340
0
102
{BLKREFS
331
AB
102
}
  0
BLOCK_RECORD
  5
AC
330
1
100
AcDbSymbolTableRecord
100
AcDbBlockTableRecord
  2
SW_CENTERMARKSYMBOL_1
340
0
102
{BLKREFS
331
B7
102
}
  0
ENDTAB
  0
ENDSEC
  0
SECTION
  2
BLOCKS
  0
BLOCK
  5
20
330
1F
100
AcDbEntity
  8
0
100
AcDbBlockBegin
  2
*Model_Space
 70
     0
 10
0.0
 20
0.0
 30
0.0
  3
*Model_Space
  1

  0
ENDBLK
  5
21
330
1F
100
AcDbEntity
  8
0
100
AcDbBlockEnd
  0
BLOCK
  5
1C
330
1B
100
AcDbEntity
 67
     1
  8
0
100
AcDbBlockBegin
  2
*Paper_Space
 70
     0
 10
0.0
 20
0.0
 30
0.0
  3
*Paper_Space
  1

  0
ENDBLK
  5
1D
330
1B
100
AcDbEntity
 67
     1
  8
0
100
AcDbBlockEnd
  0
BLOCK
  5
24
330
23
100
AcDbEntity
  8
0
100
AcDbBlockBegin
  2
*Paper_Space0
 70
     0
 10
0.0
 20
0.0
 30
0.0
  3
*Paper_Space0
  1

  0
ENDBLK
  5
25
330
23
100
AcDbEntity
  8
0
100
AcDbBlockEnd
  0
BLOCK
  5
A1
330
A0
100
AcDbEntity
  8
0
100
AcDbBlockBegin
  2
SW_CENTERMARKSYMBOL_0
 70
     0
 10
0.0
 20
0.0
 30
0.0
  3
SW_CENTERMARKSYMBOL_0
  1

  0
LINE
  5
A3
330
A0
100
AcDbEntity
  8
10
 62
     0
100
AcDbLine
 10
0.0
 20
0.0
 30
0.0
 11
0.0
 21
2.5
 31
0.0
  0
LINE
  5
A4
330
A0
100
AcDbEntity
  8
10
 62
     0
100
AcDbLine
 10
0.0
 20
0.0
 30
0.0
 11
-2.5
 21
0.0
 31
0.0
  0
LINE
  5
A5
330
A0
100
AcDbEntity
  8
10
 62
     0
100
AcDbLine
 10
0.0
 20
0.0
 30
0.0
 11
0.0
 21
-2.5
 31
0.0
  0
LINE
  5
A6
330
A0
100
AcDbEntity
  8
10
 62
     0
100
AcDbLine
 10
0.0
 20
0.0
 30
0.0
 11
2.5
 21
0.0
 31
0.0
  0
LINE
  5
A7
330
A0
100
AcDbEntity
  8
10
 62
     0
100
AcDbLine
 10
0.0
 20
2.5
 30
0.0
 11
0.0
 21
3.6764705882
 31
0.0
  0
LINE
  5
A8
330
A0
100
AcDbEntity
  8
10
 62
     0
100
AcDbLine
 10
-2.5
 20
0.0
 30
0.0
 11
-3.6764705882
 21
0.0
 31
0.0
  0
LINE
  5
A9
330
A0
100
AcDbEntity
  8
10
 62
     0
100
AcDbLine
 10
0.0
 20
-2.5
 30
0.0
 11
0.0
 21
-3.6764705882
 31
0.0
  0
LINE
  5
AA
330
A0
100
AcDbEntity
  8
10
 62
     0
100
AcDbLine
 10
2.5
 20
0.0
 30
0.0
 11
3.6764705882
 21
0.0
 31
0.0
  0
ENDBLK
  5
A2
330
A0
100
AcDbEntity
  8
0
100
AcDbBlockEnd
  0
BLOCK
  5
AD
330
AC
100
AcDbEntity
  8
0
100
AcDbBlockBegin
  2
SW_CENTERMARKSYMBOL_1
 70
     0
 10
0.0
 20
0.0
 30
0.0
  3
SW_CENTERMARKSYMBOL_1
  1

  0
LINE
  5
AF
330
AC
100
AcDbEntity
  8
10
 62
     0
100
AcDbLine
 10
0.0
 20
0.0
 30
0.0
 11
0.0
 21
2.5
 31
0.0
  0
LINE
  5
B0
330
AC
100
AcDbEntity
  8
10
 62
     0
100
AcDbLine
 10
0.0
 20
0.0
 30
0.0
 11
-2.5
 21
0.0
 31
0.0
  0
LINE
  5
B1
330
AC
100
AcDbEntity
  8
10
 62
     0
100
AcDbLine
 10
0.0
 20
0.0
 30
0.0
 11
0.0
 21
-2.5
 31
0.0
  0
LINE
  5
B2
330
AC
100
AcDbEntity
  8
10
 62
     0
100
AcDbLine
 10
0.0
 20
0.0
 30
0.0
 11
2.5
 21
0.0
 31
0.0
  0
LINE
  5
B3
330
AC
100
AcDbEntity
  8
10
 62
     0
100
AcDbLine
 10
0.0
 20
2.5
 30
0.0
 11
0.0
 21
3.6764705882
 31
0.0
  0
LINE
  5
B4
330
AC
100
AcDbEntity
  8
10
 62
     0
100
AcDbLine
 10
-2.5
 20
0.0
 30
0.0
 11
-3.6764705882
 21
0.0
 31
0.0
  0
LINE
  5
B5
330
AC
100
AcDbEntity
  8
10
 62
     0
100
AcDbLine
 10
0.0
 20
-2.5
 30
0.0
 11
0.0
 21
-3.6764705882
 31
0.0
  0
LINE
  5
B6
330
AC
100
AcDbEntity
  8
10
 62
     0
100
AcDbLine
 10
2.5
 20
0.0
 30
0.0
 11
3.6764705882
 21
0.0
 31
0.0
  0
ENDBLK
  5
AE
330
AC
100
AcDbEntity
  8
0
100
AcDbBlockEnd
  0
ENDSEC
  0
SECTION
  2
ENTITIES
  0
LINE
  5
70
330
1F
100
AcDbEntity
  8
0
  6
Continuous
 62
     7
370
    25
100
AcDbLine
 10
33.0
 20
75.8235294118
 30
0.0
 11
35.9411764706
 21
75.8235294118
 31
0.0
  0
LINE
  5
71
330
1F
100
AcDbEntity
  8
0
  6
Continuous
 62
     7
370
    25
100
AcDbLine
 10
35.9411764706
 20
75.8235294118
 30
0.0
 11
35.9411764706
 21
72.8823529412
 31
0.0
  0
LINE
  5
72
330
1F
100
AcDbEntity
  8
0
  6
Continuous
 62
     7
370
    25
100
AcDbLine
 10
33.0
 20
72.8823529412
 30
0.0
 11
33.0
 21
75.8235294118
 31
0.0
  0
LINE
  5
73
330
1F
100
AcDbEntity
  8
0
  6
Continuous
 62
     7
370
    25
100
AcDbLine
 10
130.0588235294
 20
72.8823529412
 30
0.0
 11
130.0588235294
 21
75.8235294118
 31
0.0
  0
LINE
  5
74
330
1F
100
AcDbEntity
  8
0
  6
Continuous
 62
     7
370
    25
100
AcDbLine
 10
130.0588235294
 20
75.8235294118
 30
0.0
 11
133.0
 21
75.8235294118
 31
0.0
  0
LINE
  5
75
330
1F
100
AcDbEntity
  8
0
  6
Continuous
 62
     7
370
    25
100
AcDbLine
 10
133.0
 20
75.8235294118
 30
0.0
 11
133.0
 21
72.8823529412
 31
0.0
  0
LINE
  5
76
330
1F
100
AcDbEntity
  8
0
  6
Continuous
 62
     7
370
    25
100
AcDbLine
 10
33.0
 20
70.9844133482
 30
0.0
 11
33.0
 21
65.8901462671
 31
0.0
  0
LINE
  5
77
330
1F
100
AcDbEntity
  8
0
  6
Continuous
 62
     7
370
    25
100
AcDbLine
 10
35.9411764706
 20
70.9844133482
 30
0.0
 11
35.9411764706
 21
65.8901462671
 31
0.0
  0
LINE
  5
78
330
1F
100
AcDbEntity
  8
0
  6
Continuous
 62
     7
370
    25
100
AcDbLine
 10
130.0588235294
 20
70.9844133482
 30
0.0
 11
130.0588235294
 21
65.8901462671
 31
0.0
  0
LINE
  5
79
330
1F
100
AcDbEntity
  8
0
  6
Continuous
 62
     7
370
    25
100
AcDbLine
 10
133.0
 20
70.9844133482
 30
0.0
 11
133.0
 21
65.8901462671
 31
0.0
  0
LINE
  5
7A
330
1F
100
AcDbEntity
  8
0
  6
Continuous
 62
     7
370
    25
100
AcDbLine
 10
130.0588235294
 20
72.8823529412
 30
0.0
 11
130.0588235294
 21
70.9844133482
 31
0.0
  0
LINE
  5
7B
330
1F
100
AcDbEntity
  8
0
  6
Continuous
 62
     7
370
    25
100
AcDbLine
 10
133.0
 20
72.8823529412
 30
0.0
 11
133.0
 21
70.9844133482
 31
0.0
  0
LINE
  5
7C
330
1F
100
AcDbEntity
  8
0
  6
Continuous
 62
     7
370
    25
100
AcDbLine
 10
33.0
 20
72.8823529412
 30
0.0
 11
33.0
 21
70.9844133482
 31
0.0
  0
LINE
  5
7D
330
1F
100
AcDbEntity
  8
0
  6
Continuous
 62
     7
370
    25
100
AcDbLine
 10
35.9411764706
 20
72.8823529412
 30
0.0
 11
35.9411764706
 21
70.9844133482
 31
0.0
  0
LINE
  5
7E
330
1F
100
AcDbEntity
  8
0
  6
Continuous
 62
     7
370
    25
100
AcDbLine
 10
133.0
 20
61.7058823529
 30
0.0
 11
130.0588235294
 21
61.7058823529
 31
0.0
  0
LINE
  5
7F
330
1F
100
AcDbEntity
  8
0
  6
Continuous
 62
     7
370
    25
100
AcDbLine
 10
130.0588235294
 20
65.8901462671
 30
0.0
 11
130.0588235294
 21
61.7058823529
 31
0.0
  0
LINE
  5
80
330
1F
100
AcDbEntity
  8
0
  6
Continuous
 62
     7
370
    25
100
AcDbLine
 10
133.0
 20
65.8901462671
 30
0.0
 11
133.0
 21
61.7058823529
 31
0.0
  0
LINE
  5
81
330
1F
100
AcDbEntity
  8
0
  6
Continuous
 62
     7
370
    25
100
AcDbLine
 10
33.0
 20
61.7058823529
 30
0.0
 11
35.9411764706
 21
61.7058823529
 31
0.0
  0
LINE
  5
82
330
1F
100
AcDbEntity
  8
0
  6
Continuous
 62
     7
370
    25
100
AcDbLine
 10
33.0
 20
65.8901462671
 30
0.0
 11
33.0
 21
61.7058823529
 31
0.0
  0
LINE
  5
83
330
1F
100
AcDbEntity
  8
0
  6
Continuous
 62
     7
370
    25
100
AcDbLine
 10
35.9411764706
 20
65.8901462671
 30
0.0
 11
35.9411764706
 21
61.7058823529
 31
0.0
  0
LINE
  5
84
330
1F
100
AcDbEntity
  8
0
  6
Continuous
 62
     7
370
    25
100
AcDbLine
 10
130.0588235294
 20
67.5882352941
 30
0.0
 11
100.6470588235
 21
67.5882352941
 31
0.0
  0
LINE
  5
85
330
1F
100
AcDbEntity
  8
0
  6
Continuous
 62
     7
370
    25
100
AcDbLine
 10
100.6470588235
 20
67.5882352941
 30
0.0
 11
88.8823529412
 21
67.5882352941
 31
0.0
  0
LINE
  5
86
330
1F
100
AcDbEntity
  8
0
  6
Continuous
 62
     7
370
    25
100
AcDbLine
 10
88.8823529412
 20
67.5882352941
 30
0.0
 11
77.1176470588
 21
67.5882352941
 31
0.0
  0
LINE
  5
87
330
1F
100
AcDbEntity
  8
0
  6
Continuous
 62
     7
370
    25
100
AcDbLine
 10
77.1176470588
 20
67.5882352941
 30
0.0
 11
65.3529411765
 21
67.5882352941
 31
0.0
  0
LINE
  5
88
330
1F
100
AcDbEntity
  8
0
  6
Continuous
 62
     7
370
    25
100
AcDbLine
 10
65.3529411765
 20
67.5882352941
 30
0.0
 11
35.9411764706
 21
67.5882352941
 31
0.0
  0
LINE
  5
89
330
1F
100
AcDbEntity
  8
0
  6
Continuous
 62
     7
370
    25
100
AcDbLine
 10
35.9411764706
 20
72.0
 30
0.0
 11
130.0588235294
 21
72.0
 31
0.0
  0
LINE
  5
8A
330
1F
100
AcDbEntity
  8
0
  6
Continuous
 62
     7
370
    25
100
AcDbLine
 10
97.7058823529
 20
64.6470588235
 30
0.0
 11
97.7058823529
 21
38.1764705882
 31
0.0
  0
LINE
  5
8B
330
1F
100
AcDbEntity
  8
0
  6
Continuous
 62
     7
370
    25
100
AcDbLine
 10
97.7058823529
 20
38.1764705882
 30
0.0
 11
91.8235294118
 21
38.1764705882
 31
0.0
  0
LINE
  5
8C
330
1F
100
AcDbEntity
  8
0
  6
Continuous
 62
     7
370
    25
100
AcDbLine
 10
91.8235294118
 20
38.1764705882
 30
0.0
 11
91.8235294118
 21
64.6470588235
 31
0.0
  0
SPLINE
  5
8D
330
1F
100
AcDbEntity
  8
0
  6
Continuous
 62
     7
370
    25
100
AcDbSpline
210
0.0
220
0.0
230
1.0
 70
     8
 71
     3
 72
    14
 73
    10
 74
     0
 42
0.00000001
 43
0.00000001
 40
0.0
 40
0.0
 40
0.0
 40
0.0
 40
0.25
 40
0.25
 40
0.5
 40
0.5
 40
0.75
 40
0.75
 40
1.0
 40
1.0
 40
1.0
 40
1.0
 10
88.88235294117646
 20
67.58823529411764
 30
0.0
 10
89.22897391234635
 20
67.58823529411764
 30
0.0
 10
89.60293458581762
 20
67.5250625329015
 30
0.0
 10
90.32703429395809
 20
67.2383980615834
 30
0.0
 10
90.67492855367273
 20
67.01393486507166
 30
0.0
 10
91.24922898271873
 20
66.43963443602568
 30
0.0
 10
91.47369217923045
 20
66.09174017631105
 30
0.0
 10
91.76035665054854
 20
65.36764046817056
 30
0.0
 10
91.82352941176471
 20
64.99367979469929
 30
0.0
 10
91.82352941176471
 20
64.64705882352942
 30
0.0
  0
SPLINE
  5
8E
330
1F
100
AcDbEntity
  8
0
  6
Continuous
 62
     7
370
    25
100
AcDbSpline
210
0.0
220
0.0
230
1.0
 70
     8
 71
     3
 72
    26
 73
    22
 74
     0
 42
0.00000001
 43
0.00000001
 40
0.0
 40
0.0
 40
0.0
 40
0.0
 40
0.1249999999999997
 40
0.1249999999999997
 40
0.2499999999999993
 40
0.2499999999999993
 40
0.374999999999999
 40
0.374999999999999
 40
0.4374999999999992
 40
0.4374999999999992
 40
0.4999999999999993
 40
0.4999999999999993
 40
0.5624999999999994
 40
0.5624999999999994
 40
0.6249999999999997
 40
0.6249999999999997
 40
0.7499999999999998
 40
0.7499999999999998
 40
0.8749999999999999
 40
0.8749999999999999
 40
1.0
 40
1.0
 40
1.0
 40
1.0
 10
92.6764705882353
 20
41.24296684099718
 30
0.0
 10
92.67647058823529
 20
41.41698644884031
 30
0.0
 10
92.69763137254903
 20
41.61383742923247
 30
0.0
 10
92.82236862745098
 20
42.04150801746777
 30
0.0
 10
92.92705882352942
 20
42.27316291942856
 30
0.0
 10
93.26117647058824
 20
42.71865311550699
 30
0.0
 10
93.49297781396295
 20
42.93137853785586
 30
0.0
 10
93.92652147364136
 20
43.16260182301767
 30
0.0
 10
94.08460842325096
 20
43.2247721548387
 30
0.0
 10
94.4167490428124
 20
43.30912532806065
 30
0.0
 10
94.5906862745098
 20
43.33120213511484
 30
0.0
 10
94.93872549019608
 20
43.33120213511484
 30
0.0
 10
95.11266272189349
 20
43.30912532806065
 30
0.0
 10
95.44480334145493
 20
43.2247721548387
 30
0.0
 10
95.60289029106453
 20
43.16260182301767
 30
0.0
 10
96.03643395074293
 20
42.93137853785586
 30
0.0
 10
96.26823529411766
 20
42.718653115507
 30
0.0
 10
96.60235294117648
 20
42.27316291942856
 30
0.0
 10
96.70704313725491
 20
42.04150801746778
 30
0.0
 10
96.83178039215687
 20
41.61383742923248
 30
0.0
 10
96.85294117647058
 20
41.41698644884032
 30
0.0
 10
96.8529411764706
 20
41.24296684099718
 30
0.0
  0
SPLINE
  5
8F
330
1F
100
AcDbEntity
  8
0
  6
Continuous
 62
     7
370
    25
100
AcDbSpline
210
0.0
220
0.0
230
1.0
 70
     8
 71
     3
 72
    26
 73
    22
 74
     0
 42
0.00000001
 43
0.00000001
 40
0.0
 40
0.0
 40
0.0
 40
0.0
 40
0.1250000000000001
 40
0.1250000000000001
 40
0.2500000000000003
 40
0.2500000000000003
 40
0.3750000000000004
 40
0.3750000000000004
 40
0.4375000000000003
 40
0.4375000000000003
 40
0.5000000000000002
 40
0.5000000000000002
 40
0.5625000000000002
 40
0.5625000000000002
 40
0.625
 40
0.625
 40
0.75
 40
0.75
 40
0.8750000000000001
 40
0.8750000000000001
 40
1.0
 40
1.0
 40
1.0
 40
1.0
 10
96.8529411764706
 20
41.24296684099718
 30
0.0
 10
96.8529411764706
 20
41.06894723315405
 30
0.0
 10
96.83178039215687
 20
40.87209625276189
 30
0.0
 10
96.70704313725491
 20
40.44442566452659
 30
0.0
 10
96.60235294117648
 20
40.2127707625658
 30
0.0
 10
96.26823529411766
 20
39.76728056648736
 30
0.0
 10
96.03643395074293
 20
39.5545551441385
 30
0.0
 10
95.60289029106453
 20
39.32333185897669
 30
0.0
 10
95.44480334145493
 20
39.26116152715566
 30
0.0
 10
95.1126627218935
 20
39.17680835393371
 30
0.0
 10
94.93872549019608
 20
39.15473154687952
 30
0.0
 10
94.5906862745098
 20
39.15473154687952
 30
0.0
 10
94.4167490428124
 20
39.17680835393371
 30
0.0
 10
94.08460842325096
 20
39.26116152715566
 30
0.0
 10
93.92652147364136
 20
39.32333185897668
 30
0.0
 10
93.49297781396295
 20
39.5545551441385
 30
0.0
 10
93.26117647058825
 20
39.76728056648736
 30
0.0
 10
92.92705882352942
 20
40.2127707625658
 30
0.0
 10
92.82236862745098
 20
40.44442566452658
 30
0.0
 10
92.69763137254904
 20
40.87209625276188
 30
0.0
 10
92.6764705882353
 20
41.06894723315404
 30
0.0
 10
92.6764705882353
 20
41.24296684099718
 30
0.0
  0
SPLINE
  5
90
330
1F
100
AcDbEntity
  8
0
  6
Continuous
 62
     7
370
    25
100
AcDbSpline
210
0.0
220
0.0
230
1.0
 70
     8
 71
     3
 72
    14
 73
    10
 74
     0
 42
0.00000001
 43
0.00000001
 40
0.0
 40
0.0
 40
0.0
 40
0.0
 40
0.2500000000000003
 40
0.2500000000000003
 40
0.5000000000000006
 40
0.5000000000000006
 40
0.7500000000000002
 40
0.7500000000000002
 40
1.0
 40
1.0
 40
1.0
 40
1.0
 10
97.70588235294119
 20
64.64705882352942
 30
0.0
 10
97.70588235294119
 20
64.99367979469929
 30
0.0
 10
97.76905511415735
 20
65.36764046817056
 30
0.0
 10
98.05571958547543
 20
66.09174017631105
 30
0.0
 10
98.28018278198718
 20
66.43963443602568
 30
0.0
 10
98.85448321103316
 20
67.01393486507166
 30
0.0
 10
99.20237747074778
 20
67.23839806158341
 30
0.0
 10
99.92647717888828
 20
67.5250625329015
 30
0.0
 10
100.3004378523595
 20
67.58823529411764
 30
0.0
 10
100.6470588235294
 20
67.58823529411764
 30
0.0
  0
SPLINE
  5
91
330
1F
100
AcDbEntity
  8
0
  6
Continuous
 62
     7
370
    25
100
AcDbSpline
210
0.0
220
0.0
230
1.0
 70
     8
 71
     3
 72
    14
 73
    10
 74
     0
 42
0.00000001
 43
0.00000001
 40
0.0
 40
0.0
 40
0.0
 40
0.0
 40
0.2499999999999997
 40
0.2499999999999997
 40
0.4999999999999993
 40
0.4999999999999993
 40
0.7499999999999997
 40
0.7499999999999997
 40
1.0
 40
1.0
 40
1.0
 40
1.0
 10
74.1764705882353
 20
64.64705882352942
 30
0.0
 10
74.1764705882353
 20
64.99367979469929
 30
0.0
 10
74.23964334945146
 20
65.36764046817056
 30
0.0
 10
74.52630782076955
 20
66.09174017631105
 30
0.0
 10
74.7507710172813
 20
66.43963443602568
 30
0.0
 10
75.32507144632727
 20
67.01393486507166
 30
0.0
 10
75.67296570604191
 20
67.23839806158341
 30
0.0
 10
76.39706541418238
 20
67.52506253290149
 30
0.0
 10
76.77102608765365
 20
67.58823529411764
 30
0.0
 10
77.11764705882354
 20
67.58823529411764
 30
0.0
  0
LINE
  5
92
330
1F
100
AcDbEntity
  8
0
  6
Continuous
 62
     7
370
    25
100
AcDbLine
 10
74.1764705882
 20
64.6470588235
 30
0.0
 11
74.1764705882
 21
38.1764705882
 31
0.0
  0
LINE
  5
93
330
1F
100
AcDbEntity
  8
0
  6
Continuous
 62
     7
370
    25
100
AcDbLine
 10
74.1764705882
 20
38.1764705882
 30
0.0
 11
68.2941176471
 21
38.1764705882
 31
0.0
  0
LINE
  5
94
330
1F
100
AcDbEntity
  8
0
  6
Continuous
 62
     7
370
    25
100
AcDbLine
 10
68.2941176471
 20
64.6470588235
 30
0.0
 11
68.2941176471
 21
38.1764705882
 31
0.0
  0
SPLINE
  5
95
330
1F
100
AcDbEntity
  8
0
  6
Continuous
 62
     7
370
    25
100
AcDbSpline
210
0.0
220
0.0
230
1.0
 70
     8
 71
     3
 72
    26
 73
    22
 74
     0
 42
0.00000001
 43
0.00000001
 40
0.0
 40
0.0
 40
0.0
 40
0.0
 40
0.1250000000000002
 40
0.1250000000000002
 40
0.2500000000000004
 40
0.2500000000000004
 40
0.3750000000000007
 40
0.3750000000000007
 40
0.4375000000000007
 40
0.4375000000000007
 40
0.5000000000000007
 40
0.5000000000000007
 40
0.5625000000000007
 40
0.5625000000000007
 40
0.6250000000000007
 40
0.6250000000000007
 40
0.7500000000000004
 40
0.7500000000000004
 40
0.8750000000000002
 40
0.8750000000000002
 40
1.0
 40
1.0
 40
1.0
 40
1.0
 10
69.1470588235294
 20
41.24296684099718
 30
0.0
 10
69.1470588235294
 20
41.41698644884031
 30
0.0
 10
69.16821960784314
 20
41.61383742923247
 30
0.0
 10
69.2929568627451
 20
42.04150801746777
 30
0.0
 10
69.39764705882354
 20
42.27316291942856
 30
0.0
 10
69.73176470588236
 20
42.71865311550699
 30
0.0
 10
69.96356604925708
 20
42.93137853785586
 30
0.0
 10
70.39710970893547
 20
43.16260182301767
 30
0.0
 10
70.55519665854509
 20
43.2247721548387
 30
0.0
 10
70.88733727810651
 20
43.30912532806065
 30
0.0
 10
71.06127450980392
 20
43.33120213511484
 30
0.0
 10
71.4093137254902
 20
43.33120213511484
 30
0.0
 10
71.58325095718762
 20
43.30912532806065
 30
0.0
 10
71.91539157674906
 20
43.2247721548387
 30
0.0
 10
72.07347852635864
 20
43.16260182301767
 30
0.0
 10
72.50702218603705
 20
42.93137853785586
 30
0.0
 10
72.73882352941177
 20
42.718653115507
 30
0.0
 10
73.0729411764706
 20
42.27316291942856
 30
0.0
 10
73.17763137254903
 20
42.04150801746777
 30
0.0
 10
73.30236862745099
 20
41.61383742923248
 30
0.0
 10
73.32352941176472
 20
41.41698644884032
 30
0.0
 10
73.32352941176471
 20
41.24296684099718
 30
0.0
  0
SPLINE
  5
96
330
1F
100
AcDbEntity
  8
0
  6
Continuous
 62
     7
370
    25
100
AcDbSpline
210
0.0
220
0.0
230
1.0
 70
     8
 71
     3
 72
    26
 73
    22
 74
     0
 42
0.00000001
 43
0.00000001
 40
0.0
 40
0.0
 40
0.0
 40
0.0
 40
0.1249999999999999
 40
0.1249999999999999
 40
0.2499999999999999
 40
0.2499999999999999
 40
0.3749999999999998
 40
0.3749999999999998
 40
0.4374999999999998
 40
0.4374999999999998
 40
0.4999999999999998
 40
0.4999999999999998
 40
0.5624999999999998
 40
0.5624999999999998
 40
0.6249999999999998
 40
0.6249999999999998
 40
0.7499999999999998
 40
0.7499999999999998
 40
0.8749999999999998
 40
0.8749999999999998
 40
1.0
 40
1.0
 40
1.0
 40
1.0
 10
73.32352941176471
 20
41.24296684099718
 30
0.0
 10
73.32352941176471
 20
41.06894723315405
 30
0.0
 10
73.30236862745099
 20
40.87209625276189
 30
0.0
 10
73.17763137254903
 20
40.44442566452659
 30
0.0
 10
73.0729411764706
 20
40.2127707625658
 30
0.0
 10
72.73882352941177
 20
39.76728056648737
 30
0.0
 10
72.50702218603705
 20
39.5545551441385
 30
0.0
 10
72.07347852635864
 20
39.32333185897669
 30
0.0
 10
71.91539157674904
 20
39.26116152715566
 30
0.0
 10
71.58325095718762
 20
39.17680835393371
 30
0.0
 10
71.4093137254902
 20
39.15473154687952
 30
0.0
 10
71.06127450980392
 20
39.15473154687952
 30
0.0
 10
70.88733727810651
 20
39.17680835393371
 30
0.0
 10
70.55519665854509
 20
39.26116152715566
 30
0.0
 10
70.39710970893547
 20
39.32333185897669
 30
0.0
 10
69.96356604925708
 20
39.5545551441385
 30
0.0
 10
69.73176470588236
 20
39.76728056648736
 30
0.0
 10
69.39764705882354
 20
40.21277076256581
 30
0.0
 10
69.2929568627451
 20
40.44442566452658
 30
0.0
 10
69.16821960784314
 20
40.87209625276188
 30
0.0
 10
69.1470588235294
 20
41.06894723315405
 30
0.0
 10
69.1470588235294
 20
41.24296684099718
 30
0.0
  0
SPLINE
  5
97
330
1F
100
AcDbEntity
  8
0
  6
Continuous
 62
     7
370
    25
100
AcDbSpline
210
0.0
220
0.0
230
1.0
 70
     8
 71
     3
 72
    14
 73
    10
 74
     0
 42
0.00000001
 43
0.00000001
 40
0.0
 40
0.0
 40
0.0
 40
0.0
 40
0.25
 40
0.25
 40
0.5
 40
0.5
 40
0.75
 40
0.75
 40
1.0
 40
1.0
 40
1.0
 40
1.0
 10
65.35294117647058
 20
67.58823529411764
 30
0.0
 10
65.69956214764048
 20
67.58823529411764
 30
0.0
 10
66.07352282111172
 20
67.5250625329015
 30
0.0
 10
66.79762252925222
 20
67.2383980615834
 30
0.0
 10
67.14551678896686
 20
67.01393486507166
 30
0.0
 10
67.71981721801285
 20
66.43963443602568
 30
0.0
 10
67.94428041452457
 20
66.09174017631105
 30
0.0
 10
68.23094488584266
 20
65.36764046817056
 30
0.0
 10
68.29411764705884
 20
64.99367979469929
 30
0.0
 10
68.29411764705883
 20
64.64705882352942
 30
0.0
  0
CIRCLE
  5
98
330
1F
100
AcDbEntity
  8
0
  6
Continuous
 62
     7
370
    25
100
AcDbCircle
 10
71.2352941176
 20
41.242966841
 30
0.0
 40
1.176470588235304
  0
CIRCLE
  5
99
330
1F
100
AcDbEntity
  8
0
  6
Continuous
 62
     7
370
    25
100
AcDbCircle
 10
94.7647058824
 20
41.242966841
 30
0.0
 40
1.17647058823529
  0
LINE
  5
9A
330
1F
100
AcDbEntity
  8
0
  6
HIDDEN
 62
     7
370
    18
100
AcDbLine
 10
35.9411764706
 20
70.5294117647
 30
0.0
 11
130.0588235294
 21
70.5294117647
 31
0.0
  0
SPLINE
  5
9B
330
1F
100
AcDbEntity
  8
0
  6
HIDDEN
 62
     7
370
    18
100
AcDbSpline
210
0.0
220
0.0
230
1.0
 70
     8
 71
     3
 72
    14
 73
    10
 74
     0
 42
0.00000001
 43
0.00000001
 40
0.0
 40
0.0
 40
0.0
 40
0.0
 40
0.25
 40
0.25
 40
0.5
 40
0.5
 40
0.75
 40
0.75
 40
1.0
 40
1.0
 40
1.0
 40
1.0
 10
100.6471086547266
 20
70.52941155508965
 30
0.0
 10
100.6471045021268
 20
70.52955694390077
 30
0.0
 10
100.6471003495271
 20
70.4531140742731
 30
0.0
 10
100.6470920443275
 20
70.15857919150632
 30
0.0
 10
100.6470878917278
 20
69.94060317631104
 30
0.0
 10
100.6470795865282
 20
69.39610417865832
 30
0.0
 10
100.6470754339285
 20
69.06979563859068
 30
0.0
 10
100.6470671287289
 20
68.35826690153279
 30
0.0
 10
100.6470629761292
 20
67.97332692897534
 30
0.0
 10
100.6470588235294
 20
67.58823529411764
 30
0.0
  0
SPLINE
  5
9C
330
1F
100
AcDbEntity
  8
0
  6
HIDDEN
 62
     7
370
    18
100
AcDbSpline
210
0.0
220
0.0
230
1.0
 70
     8
 71
     3
 72
    22
 73
    18
 74
     0
 42
0.00000001
 43
0.00000001
 40
0.0
 40
0.0
 40
0.0
 40
0.0
 40
0.0353232120189915
 40
0.0707849115535482
 40
0.1063861073651649
 40
0.1421277963976547
 40
0.1780109638784499
 40
0.2140365834211497
 40
0.2502056171292059
 40
0.3721575582167151
 40
0.4998153099915524
 40
0.618264473793965
 40
0.7493167259173289
 40
0.7957546202921055
 40
0.8530171929088115
 40
0.9211005631990823
 40
0.9999999999999999
 40
0.9999999999999999
 40
0.9999999999999999
 40
0.9999999999999999
 10
125.3529411764706
 20
67.58823529411764
 30
0.0
 10
125.3530262383801
 20
67.64271209010592
 30
0.0
 10
125.3531966956913
 20
67.75187926277633
 30
0.0
 10
125.3545691788103
 20
67.91544001593091
 30
0.0
 10
125.3567580693412
 20
68.07861155232992
 30
0.0
 10
125.3598445333361
 20
68.24086842621693
 30
0.0
 10
125.3638064322646
 20
68.40167358440644
 30
0.0
 10
125.3686507113403
 20
68.560501665802
 30
0.0
 10
125.3788871338519
 20
68.8400845976769
 30
0.0
 10
125.3989294966805
 20
69.23131910046494
 30
0.0
 10
125.4334434764785
 20
69.67263861767759
 30
0.0
 10
125.4765681550453
 20
70.04458707527418
 30
0.0
 10
125.5149204023013
 20
70.26246762627929
 30
0.0
 10
125.5473431605228
 20
70.38841877566698
 30
0.0
 10
125.5716881730317
 20
70.4597732998641
 30
0.0
 10
125.6010609416613
 20
70.51715177724583
 30
0.0
 10
125.6224965024105
 20
70.52512941789935
 30
0.0
 10
125.6340029752021
 20
70.52941176470588
 30
0.0
  0
SPLINE
  5
9D
330
1F
100
AcDbEntity
  8
0
  6
HIDDEN
 62
     7
370
    18
100
AcDbSpline
210
0.0
220
0.0
230
1.0
 70
     8
 71
     3
 72
    25
 73
    21
 74
     0
 42
0.00000001
 43
0.00000001
 40
0.0
 40
0.0
 40
0.0
 40
0.0
 40
0.0367140979279984
 40
0.0712145787288308
 40
0.1035013505742464
 40
0.1335743303429959
 40
0.161433444316783
 40
0.1870786291765109
 40
0.2105098334690834
 40
0.2317270198394097
 40
0.2507301685625313
 40
0.3818831834439688
 40
0.5001616355703924
 40
0.5752162244592014
 40
0.6490373110178677
 40
0.7216346505255427
 40
0.7930185040187128
 40
0.8631996688489535
 40
0.9321895111084184
 40
1.0
 40
1.0
 40
1.0
 40
1.0
 10
40.28791510565412
 20
70.52941176470588
 30
0.0
 10
40.29473304198947
 20
70.52848249705632
 30
0.0
 10
40.307957838221
 20
70.52667999044642
 30
0.0
 10
40.32708042280566
 20
70.51278628248689
 30
0.0
 10
40.34489587419768
 20
70.49266209827323
 30
0.0
 10
40.36139848476933
 20
70.46710938106172
 30
0.0
 10
40.37658960246076
 20
70.43778511404263
 30
0.0
 10
40.39046964802403
 20
70.40599535997029
 30
0.0
 10
40.40303694025864
 20
70.37298369431164
 30
0.0
 10
40.41429817621394
 20
70.33985383079727
 30
0.0
 10
40.44416396924778
 20
70.24292968267311
 30
0.0
 10
40.48862293347915
 20
70.0455040933807
 30
0.0
 10
40.53614486075461
 20
69.72562472010945
 30
0.0
 10
40.56960268145664
 20
69.41789610945087
 30
0.0
 10
40.59345765834044
 20
69.13771807114277
 30
0.0
 10
40.61297943720252
 20
68.8416450276515
 30
0.0
 10
40.62819397579094
 20
68.53440603248625
 30
0.0
 10
40.63898847359049
 20
68.2205654492922
 30
0.0
 10
40.64577789688975
 20
67.9044363151662
 30
0.0
 10
40.64663430902108
 20
67.69302811895875
 30
0.0
 10
40.64705882352941
 20
67.58823529411765
 30
0.0
  0
LINE
  5
9E
330
1F
100
AcDbEntity
  8
0
  6
HIDDEN
 62
     7
370
    18
100
AcDbLine
 10
97.7058823529
 20
44.0588235294
 30
0.0
 11
91.8235294118
 21
44.0588235294
 31
0.0
  0
LINE
  5
9F
330
1F
100
AcDbEntity
  8
0
  6
HIDDEN
 62
     7
370
    18
100
AcDbLine
 10
74.1764705882
 20
44.0588235294
 30
0.0
 11
68.2941176471
 21
44.0588235294
 31
0.0
  0
INSERT
  5
AB
330
1F
100
AcDbEntity
  8
10
100
AcDbBlockReference
  2
SW_CENTERMARKSYMBOL_0
 10
94.7647058824
 20
41.242966841
 30
0.0
  0
INSERT
  5
B7
330
1F
100
AcDbEntity
  8
10
100
AcDbBlockReference
  2
SW_CENTERMARKSYMBOL_1
 10
71.2352941176
 20
41.242966841
 30
0.0
  0
LINE
  5
B8
330
1F
100
AcDbEntity
  8
0
  6
Continuous
 62
     7
370
    25
100
AcDbLine
 10
33.0
 20
159.8702893672
 30
0.0
 11
35.9411764706
 21
159.8702893672
 31
0.0
  0
LINE
  5
B9
330
1F
100
AcDbEntity
  8
0
  6
Continuous
 62
     7
370
    25
100
AcDbLine
 10
33.0
 20
167.1176470588
 30
0.0
 11
33.0
 21
159.8702893672
 31
0.0
  0
LINE
  5
BA
330
1F
100
AcDbEntity
  8
0
  6
Continuous
 62
     7
370
    25
100
AcDbLine
 10
35.9411764706
 20
167.1176470588
 30
0.0
 11
35.9411764706
 21
159.8702893672
 31
0.0
  0
LINE
  5
BB
330
1F
100
AcDbEntity
  8
0
  6
Continuous
 62
     7
370
    25
100
AcDbLine
 10
133.0
 20
159.8702893672
 30
0.0
 11
130.0588235294
 21
159.8702893672
 31
0.0
  0
LINE
  5
BC
330
1F
100
AcDbEntity
  8
0
  6
Continuous
 62
     7
370
    25
100
AcDbLine
 10
130.0588235294
 20
167.1176470588
 30
0.0
 11
130.0588235294
 21
159.8702893672
 31
0.0
  0
LINE
  5
BD
330
1F
100
AcDbEntity
  8
0
  6
Continuous
 62
     7
370
    25
100
AcDbLine
 10
133.0
 20
167.1176470588
 30
0.0
 11
133.0
 21
159.8702893672
 31
0.0
  0
LINE
  5
BE
330
1F
100
AcDbEntity
  8
0
  6
Continuous
 62
     7
370
    25
100
AcDbLine
 10
130.0588235294
 20
159.8702893672
 30
0.0
 11
130.0588235294
 21
141.2352941176
 31
0.0
  0
LINE
  5
BF
330
1F
100
AcDbEntity
  8
0
  6
Continuous
 62
     7
370
    25
100
AcDbLine
 10
133.0
 20
159.8702893672
 30
0.0
 11
133.0
 21
141.2352941176
 31
0.0
  0
LINE
  5
C0
330
1F
100
AcDbEntity
  8
0
  6
Continuous
 62
     7
370
    25
100
AcDbLine
 10
33.0
 20
159.8702893672
 30
0.0
 11
33.0
 21
141.2352941176
 31
0.0
  0
LINE
  5
C1
330
1F
100
AcDbEntity
  8
0
  6
Continuous
 62
     7
370
    25
100
AcDbLine
 10
35.9411764706
 20
159.8702893672
 30
0.0
 11
35.9411764706
 21
141.2352941176
 31
0.0
  0
LINE
  5
C2
330
1F
100
AcDbEntity
  8
0
  6
Continuous
 62
     7
370
    25
100
AcDbLine
 10
133.0
 20
138.2941176471
 30
0.0
 11
130.0588235294
 21
138.2941176471
 31
0.0
  0
LINE
  5
C3
330
1F
100
AcDbEntity
  8
0
  6
Continuous
 62
     7
370
    25
100
AcDbLine
 10
130.0588235294
 20
138.2941176471
 30
0.0
 11
130.0588235294
 21
141.2352941176
 31
0.0
  0
LINE
  5
C4
330
1F
100
AcDbEntity
  8
0
  6
Continuous
 62
     7
370
    25
100
AcDbLine
 10
133.0
 20
141.2352941176
 30
0.0
 11
133.0
 21
138.2941176471
 31
0.0
  0
LINE
  5
C5
330
1F
100
AcDbEntity
  8
0
  6
Continuous
 62
     7
370
    25
100
AcDbLine
 10
35.9411764706
 20
138.2941176471
 30
0.0
 11
33.0
 21
138.2941176471
 31
0.0
  0
LINE
  5
C6
330
1F
100
AcDbEntity
  8
0
  6
Continuous
 62
     7
370
    25
100
AcDbLine
 10
33.0
 20
138.2941176471
 30
0.0
 11
33.0
 21
141.2352941176
 31
0.0
  0
LINE
  5
C7
330
1F
100
AcDbEntity
  8
0
  6
Continuous
 62
     7
370
    25
100
AcDbLine
 10
35.9411764706
 20
141.2352941176
 30
0.0
 11
35.9411764706
 21
138.2941176471
 31
0.0
  0
LINE
  5
C8
330
1F
100
AcDbEntity
  8
0
  6
Continuous
 62
     7
370
    25
100
AcDbLine
 10
35.9411764706
 20
148.2941176471
 30
0.0
 11
130.0588235294
 21
148.2941176471
 31
0.0
  0
LINE
  5
C9
330
1F
100
AcDbEntity
  8
0
  6
Continuous
 62
     7
370
    25
100
AcDbLine
 10
130.0588235294
 20
145.3529411765
 30
0.0
 11
35.9411764706
 21
145.3529411765
 31
0.0
  0
LINE
  5
CA
330
1F
100
AcDbEntity
  8
0
  6
Continuous
 62
     7
370
    25
100
AcDbLine
 10
133.0
 20
170.0588235294
 30
0.0
 11
130.0588235294
 21
170.0588235294
 31
0.0
  0
LINE
  5
CB
330
1F
100
AcDbEntity
  8
0
  6
Continuous
 62
     7
370
    25
100
AcDbLine
 10
130.0588235294
 20
170.0588235294
 30
0.0
 11
130.0588235294
 21
167.1176470588
 31
0.0
  0
LINE
  5
CC
330
1F
100
AcDbEntity
  8
0
  6
Continuous
 62
     7
370
    25
100
AcDbLine
 10
133.0
 20
170.0588235294
 30
0.0
 11
133.0
 21
167.1176470588
 31
0.0
  0
LINE
  5
CD
330
1F
100
AcDbEntity
  8
0
  6
Continuous
 62
     7
370
    25
100
AcDbLine
 10
33.0
 20
170.0588235294
 30
0.0
 11
35.9411764706
 21
170.0588235294
 31
0.0
  0
LINE
  5
CE
330
1F
100
AcDbEntity
  8
0
  6
Continuous
 62
     7
370
    25
100
AcDbLine
 10
33.0
 20
170.0588235294
 30
0.0
 11
33.0
 21
167.1176470588
 31
0.0
  0
LINE
  5
CF
330
1F
100
AcDbEntity
  8
0
  6
Continuous
 62
     7
370
    25
100
AcDbLine
 10
35.9411764706
 20
170.0588235294
 30
0.0
 11
35.9411764706
 21
167.1176470588
 31
0.0
  0
SPLINE
  5
D0
330
1F
100
AcDbEntity
  8
0
  6
Continuous
 62
     7
370
    25
100
AcDbSpline
210
0.0
220
0.0
230
1.0
 70
     8
 71
     3
 72
    14
 73
    10
 74
     0
 42
0.00000001
 43
0.00000001
 40
0.0
 40
0.0
 40
0.0
 40
0.0
 40
0.25
 40
0.25
 40
0.5
 40
0.5
 40
0.75
 40
0.75
 40
1.0
 40
1.0
 40
1.0
 40
1.0
 10
100.6471086547266
 20
157.1165366370132
 30
0.0
 10
100.6471045021268
 20
157.5016282444256
 30
0.0
 10
100.6471003495271
 20
157.8865971049216
 30
0.0
 10
100.6470920443275
 20
158.5982370924034
 30
0.0
 10
100.6470878917278
 20
158.924627951142
 30
0.0
 10
100.6470795865282
 20
159.4693325596269
 30
0.0
 10
100.6470754339285
 20
159.6874317860068
 30
0.0
 10
100.6470671287289
 20
159.9822353227737
 30
0.0
 10
100.6470629761292
 20
160.0588235294117
 30
0.0
 10
100.6470588235294
 20
160.0588235294117
 30
0.0
  0
ARC
  5
D1
330
1F
100
AcDbEntity
  8
0
  6
Continuous
 62
     7
370
    25
100
AcDbCircle
 10
92.8554244286
 20
330.7438465647
 30
0.0
 40
170.8627714135386
100
AcDbArc
 50
272.6136918722
 51
280.9642572766
  0
SPLINE
  5
D2
330
1F
100
AcDbEntity
  8
0
  6
Continuous
 62
     7
370
    25
100
AcDbSpline
210
0.0
220
0.0
230
1.0
 70
     8
 71
     3
 72
    22
 73
    18
 74
     0
 42
0.00000001
 43
0.00000001
 40
0.0
 40
0.0
 40
0.0
 40
0.0
 40
0.0353232120189915
 40
0.0707849115535482
 40
0.1063861073651649
 40
0.1421277963976547
 40
0.1780109638784499
 40
0.2140365834211497
 40
0.2502056171292059
 40
0.3721575582167151
 40
0.4998153099915524
 40
0.618264473793965
 40
0.7493167259173289
 40
0.7957546202921055
 40
0.8530171929088115
 40
0.9211005631990823
 40
0.9999999999999999
 40
0.9999999999999999
 40
0.9999999999999999
 40
0.9999999999999999
 10
125.3529411764706
 20
163.0
 30
0.0
 10
125.3530262383801
 20
162.9991256630518
 30
0.0
 10
125.3531966956913
 20
162.9973735612465
 30
0.0
 10
125.3545691788103
 20
162.9831740605604
 30
0.0
 10
125.3567580693412
 20
162.9604272965974
 30
0.0
 10
125.3598445333361
 20
162.9282650061345
 30
0.0
 10
125.3638064322646
 20
162.8869105211409
 30
0.0
 10
125.3686507113403
 20
162.8363215894347
 30
0.0
 10
125.3788871338519
 20
162.7294796896367
 30
0.0
 10
125.3989294966805
 20
162.52112423914
 30
0.0
 10
125.4334434764785
 20
162.1598193519571
 30
0.0
 10
125.4765681550453
 20
161.7106626800241
 30
0.0
 10
125.5149204023013
 20
161.3073783520857
 30
0.0
 10
125.5473431605228
 20
160.9692929962513
 30
0.0
 10
125.5716881730317
 20
160.7150761589106
 30
0.0
 10
125.6010609416613
 20
160.4058164242016
 30
0.0
 10
125.6224965024105
 20
160.1800262565545
 30
0.0
 10
125.6340029752021
 20
160.0588235294117
 30
0.0
  0
LINE
  5
D3
330
1F
100
AcDbEntity
  8
0
  6
Continuous
 62
     7
370
    25
100
AcDbLine
 10
65.3529411765
 20
160.0588235294
 30
0.0
 11
77.1176470588
 21
160.0588235294
 31
0.0
  0
LINE
  5
D4
330
1F
100
AcDbEntity
  8
0
  6
Continuous
 62
     7
370
    25
100
AcDbLine
 10
77.1176470588
 20
160.0588235294
 30
0.0
 11
88.8823529412
 21
160.0588235294
 31
0.0
  0
LINE
  5
D5
330
1F
100
AcDbEntity
  8
0
  6
Continuous
 62
     7
370
    25
100
AcDbLine
 10
88.8823529412
 20
160.0588235294
 30
0.0
 11
100.6470588235
 21
160.0588235294
 31
0.0
  0
SPLINE
  5
D6
330
1F
100
AcDbEntity
  8
0
  6
Continuous
 62
     7
370
    25
100
AcDbSpline
210
0.0
220
0.0
230
1.0
 70
     8
 71
     3
 72
    25
 73
    21
 74
     0
 42
0.00000001
 43
0.00000001
 40
0.0
 40
0.0
 40
0.0
 40
0.0
 40
0.0367140979279984
 40
0.0712145787288308
 40
0.1035013505742464
 40
0.1335743303429959
 40
0.161433444316783
 40
0.1870786291765109
 40
0.2105098334690834
 40
0.2317270198394097
 40
0.2507301685625313
 40
0.3818831834439688
 40
0.5001616355703924
 40
0.5752162244592014
 40
0.6490373110178677
 40
0.7216346505255427
 40
0.7930185040187128
 40
0.8631996688489535
 40
0.9321895111084184
 40
1.0
 40
1.0
 40
1.0
 40
1.0
 10
40.28791510565412
 20
160.0588235294117
 30
0.0
 10
40.29473304198947
 20
160.1151301143884
 30
0.0
 10
40.307957838221
 20
160.2243483699108
 30
0.0
 10
40.32708042280566
 20
160.3825841434767
 30
0.0
 10
40.34489587419768
 20
160.5298112477432
 30
0.0
 10
40.36139848476933
 20
160.6658638847105
 30
0.0
 10
40.37658960246076
 20
160.7907046978077
 30
0.0
 10
40.39046964802403
 20
160.9044007530624
 30
0.0
 10
40.40303694025864
 20
161.0070964028631
 30
0.0
 10
40.41429817621394
 20
161.0990014296138
 30
0.0
 10
40.44416396924778
 20
161.3435068612368
 30
0.0
 10
40.48862293347915
 20
161.7092708400898
 30
0.0
 10
40.53614486075461
 20
162.0959511093746
 30
0.0
 10
40.56960268145664
 20
162.3701884915631
 30
0.0
 10
40.59345765834044
 20
162.5664135298107
 30
0.0
 10
40.61297943720252
 20
162.726487151357
 30
0.0
 10
40.62819397579094
 20
162.8502113048042
 30
0.0
 10
40.63898847359049
 20
162.9368430997642
 30
0.0
 10
40.64577789688975
 20
162.9902204792464
 30
0.0
 10
40.64663430902108
 20
162.9967589490952
 30
0.0
 10
40.64705882352941
 20
163.0
 30
0.0
  0
ARC
  5
D7
330
1F
100
AcDbEntity
  8
0
  6
Continuous
 62
     7
370
    25
100
AcDbCircle
 10
64.5788485241
 20
258.7917393674
 30
0.0
 40
98.73595033875573
100
AcDbArc
 50
255.972845712
 51
270.4492051391
  0
LINE
  5
D8
330
1F
100
AcDbEntity
  8
0
  6
Continuous
 62
     7
370
    25
100
AcDbLine
 10
40.6470588235
 20
163.0
 30
0.0
 11
35.9411764706
 21
163.0
 31
0.0
  0
LINE
  5
D9
330
1F
100
AcDbEntity
  8
0
  6
Continuous
 62
     7
370
    25
100
AcDbLine
 10
130.0588235294
 20
163.0
 30
0.0
 11
125.3529411765
 21
163.0
 31
0.0
  0
LINE
  5
DA
330
1F
100
AcDbEntity
  8
0
  6
Continuous
 62
     7
370
    25
100
AcDbLine
 10
97.7058823529
 20
177.7058823529
 30
0.0
 11
97.7058823529
 21
162.2647058824
 31
0.0
  0
SPLINE
  5
DB
330
1F
100
AcDbEntity
  8
0
  6
Continuous
 62
     7
370
    25
100
AcDbSpline
210
0.0
220
0.0
230
1.0
 70
     8
 71
     3
 72
    14
 73
    10
 74
     0
 42
0.00000001
 43
0.00000001
 40
0.0
 40
0.0
 40
0.0
 40
0.0
 40
0.2499999999999997
 40
0.2499999999999997
 40
0.4999999999999993
 40
0.4999999999999993
 40
0.7499999999999997
 40
0.7499999999999997
 40
1.0
 40
1.0
 40
1.0
 40
1.0
 10
100.6470588235294
 20
160.0588235294117
 30
0.0
 10
100.3004378523595
 20
160.0588235294117
 30
0.0
 10
99.92647717888826
 20
160.1062031003239
 30
0.0
 10
99.20237747074778
 20
160.3212014538124
 30
0.0
 10
98.85448321103316
 20
160.4895488511962
 30
0.0
 10
98.28018278198716
 20
160.9202741729807
 30
0.0
 10
98.05571958547542
 20
161.1811948677667
 30
0.0
 10
97.76905511415734
 20
161.7242696488721
 30
0.0
 10
97.70588235294119
 20
162.0047401539755
 30
0.0
 10
97.70588235294119
 20
162.2647058823529
 30
0.0
  0
SPLINE
  5
DC
330
1F
100
AcDbEntity
  8
0
  6
Continuous
 62
     7
370
    25
100
AcDbSpline
210
0.0
220
0.0
230
1.0
 70
     8
 71
     3
 72
    14
 73
    10
 74
     0
 42
0.00000001
 43
0.00000001
 40
0.0
 40
0.0
 40
0.0
 40
0.0
 40
0.25
 40
0.25
 40
0.5
 40
0.5
 40
0.75
 40
0.75
 40
1.0
 40
1.0
 40
1.0
 40
1.0
 10
91.82352941176471
 20
162.2647058823529
 30
0.0
 10
91.82352941176471
 20
162.0047401539755
 30
0.0
 10
91.76035665054856
 20
161.7242696488721
 30
0.0
 10
91.47369217923045
 20
161.1811948677667
 30
0.0
 10
91.24922898271873
 20
160.9202741729807
 30
0.0
 10
90.67492855367273
 20
160.4895488511962
 30
0.0
 10
90.32703429395809
 20
160.3212014538124
 30
0.0
 10
89.60293458581762
 20
160.1062031003239
 30
0.0
 10
89.22897391234635
 20
160.0588235294117
 30
0.0
 10
88.88235294117646
 20
160.0588235294117
 30
0.0
  0
LINE
  5
DD
330
1F
100
AcDbEntity
  8
0
  6
Continuous
 62
     7
370
    25
100
AcDbLine
 10
91.8235294118
 20
162.2647058824
 30
0.0
 11
91.8235294118
 21
177.7058823529
 31
0.0
  0
LINE
  5
DE
330
1F
100
AcDbEntity
  8
0
  6
Continuous
 62
     7
370
    25
100
AcDbLine
 10
97.7058823529
 20
177.7058823529
 30
0.0
 11
91.8235294118
 21
177.7058823529
 31
0.0
  0
LINE
  5
DF
330
1F
100
AcDbEntity
  8
0
  6
Continuous
 62
     7
370
    25
100
AcDbLine
 10
74.1764705882
 20
177.7058823529
 30
0.0
 11
74.1764705882
 21
162.2647058824
 31
0.0
  0
SPLINE
  5
E0
330
1F
100
AcDbEntity
  8
0
  6
Continuous
 62
     7
370
    25
100
AcDbSpline
210
0.0
220
0.0
230
1.0
 70
     8
 71
     3
 72
    14
 73
    10
 74
     0
 42
0.00000001
 43
0.00000001
 40
0.0
 40
0.0
 40
0.0
 40
0.0
 40
0.25
 40
0.25
 40
0.5
 40
0.5
 40
0.75
 40
0.75
 40
1.0
 40
1.0
 40
1.0
 40
1.0
 10
77.11764705882354
 20
160.0588235294117
 30
0.0
 10
76.77102608765365
 20
160.0588235294117
 30
0.0
 10
76.39706541418238
 20
160.1062031003239
 30
0.0
 10
75.67296570604191
 20
160.3212014538124
 30
0.0
 10
75.32507144632727
 20
160.4895488511962
 30
0.0
 10
74.7507710172813
 20
160.9202741729807
 30
0.0
 10
74.52630782076955
 20
161.1811948677667
 30
0.0
 10
74.23964334945146
 20
161.7242696488721
 30
0.0
 10
74.1764705882353
 20
162.0047401539755
 30
0.0
 10
74.1764705882353
 20
162.2647058823529
 30
0.0
  0
SPLINE
  5
E1
330
1F
100
AcDbEntity
  8
0
  6
Continuous
 62
     7
370
    25
100
AcDbSpline
210
0.0
220
0.0
230
1.0
 70
     8
 71
     3
 72
    14
 73
    10
 74
     0
 42
0.00000001
 43
0.00000001
 40
0.0
 40
0.0
 40
0.0
 40
0.0
 40
0.25
 40
0.25
 40
0.5
 40
0.5
 40
0.75
 40
0.75
 40
1.0
 40
1.0
 40
1.0
 40
1.0
 10
68.29411764705883
 20
162.2647058823529
 30
0.0
 10
68.29411764705884
 20
162.0047401539755
 30
0.0
 10
68.23094488584266
 20
161.7242696488721
 30
0.0
 10
67.94428041452458
 20
161.1811948677667
 30
0.0
 10
67.71981721801285
 20
160.9202741729808
 30
0.0
 10
67.14551678896686
 20
160.4895488511962
 30
0.0
 10
66.79762252925222
 20
160.3212014538124
 30
0.0
 10
66.07352282111174
 20
160.1062031003239
 30
0.0
 10
65.69956214764048
 20
160.0588235294117
 30
0.0
 10
65.35294117647058
 20
160.0588235294117
 30
0.0
  0
LINE
  5
E2
330
1F
100
AcDbEntity
  8
0
  6
Continuous
 62
     7
370
    25
100
AcDbLine
 10
68.2941176471
 20
177.7058823529
 30
0.0
 11
68.2941176471
 21
162.2647058824
 31
0.0
  0
LINE
  5
E3
330
1F
100
AcDbEntity
  8
0
  6
Continuous
 62
     7
370
    25
100
AcDbLine
 10
74.1764705882
 20
177.7058823529
 30
0.0
 11
68.2941176471
 21
177.7058823529
 31
0.0
  0
LINE
  5
E4
330
1F
100
AcDbEntity
  8
0
  6
HIDDEN
 62
     7
370
    18
100
AcDbLine
 10
97.7058823529
 20
162.2647058824
 30
0.0
 11
97.7058823529
 21
150.5
 31
0.0
  0
SPLINE
  5
E5
330
1F
100
AcDbEntity
  8
0
  6
HIDDEN
 62
     7
370
    18
100
AcDbSpline
210
0.0
220
0.0
230
1.0
 70
     8
 71
     3
 72
    14
 73
    10
 74
     0
 42
0.00000001
 43
0.00000001
 40
0.0
 40
0.0
 40
0.0
 40
0.0
 40
0.2500000000000003
 40
0.2500000000000003
 40
0.5000000000000006
 40
0.5000000000000006
 40
0.7500000000000002
 40
0.7500000000000002
 40
1.0
 40
1.0
 40
1.0
 40
1.0
 10
97.70588235294119
 20
150.5
 30
0.0
 10
97.70588235294119
 20
150.2400342716226
 30
0.0
 10
97.76905511415735
 20
149.9595637665191
 30
0.0
 10
98.05571958547543
 20
149.4164889854138
 30
0.0
 10
98.28018278198718
 20
149.1555682906278
 30
0.0
 10
98.85448321103316
 20
148.7248429688433
 30
0.0
 10
99.20237747074778
 20
148.5564955714595
 30
0.0
 10
99.92647717888828
 20
148.3414972179709
 30
0.0
 10
100.3004378523595
 20
148.2941176470588
 30
0.0
 10
100.6470588235294
 20
148.2941176470588
 30
0.0
  0
LINE
  5
E6
330
1F
100
AcDbEntity
  8
0
  6
HIDDEN
 62
     7
370
    18
100
AcDbLine
 10
68.2941176471
 20
150.5
 30
0.0
 11
68.2941176471
 21
162.2647058824
 31
0.0
  0
SPLINE
  5
E7
330
1F
100
AcDbEntity
  8
0
  6
HIDDEN
 62
     7
370
    18
100
AcDbSpline
210
0.0
220
0.0
230
1.0
 70
     8
 71
     3
 72
    14
 73
    10
 74
     0
 42
0.00000001
 43
0.00000001
 40
0.0
 40
0.0
 40
0.0
 40
0.0
 40
0.25
 40
0.25
 40
0.5
 40
0.5
 40
0.75
 40
0.75
 40
1.0
 40
1.0
 40
1.0
 40
1.0
 10
65.35294117647058
 20
148.2941176470588
 30
0.0
 10
65.69956214764048
 20
148.2941176470588
 30
0.0
 10
66.07352282111172
 20
148.341497217971
 30
0.0
 10
66.79762252925222
 20
148.5564955714595
 30
0.0
 10
67.14551678896686
 20
148.7248429688433
 30
0.0
 10
67.71981721801285
 20
149.1555682906278
 30
0.0
 10
67.94428041452457
 20
149.4164889854138
 30
0.0
 10
68.23094488584266
 20
149.9595637665191
 30
0.0
 10
68.29411764705884
 20
150.2400342716226
 30
0.0
 10
68.29411764705883
 20
150.5
 30
0.0
  0
LINE
  5
E8
330
1F
100
AcDbEntity
  8
0
  6
HIDDEN
 62
     7
370
    18
100
AcDbLine
 10
74.1764705882
 20
162.2647058824
 30
0.0
 11
74.1764705882
 21
150.5
 31
0.0
  0
SPLINE
  5
E9
330
1F
100
AcDbEntity
  8
0
  6
HIDDEN
 62
     7
370
    18
100
AcDbSpline
210
0.0
220
0.0
230
1.0
 70
     8
 71
     3
 72
    14
 73
    10
 74
     0
 42
0.00000001
 43
0.00000001
 40
0.0
 40
0.0
 40
0.0
 40
0.0
 40
0.2499999999999997
 40
0.2499999999999997
 40
0.4999999999999993
 40
0.4999999999999993
 40
0.7499999999999997
 40
0.7499999999999997
 40
1.0
 40
1.0
 40
1.0
 40
1.0
 10
74.1764705882353
 20
150.5
 30
0.0
 10
74.1764705882353
 20
150.2400342716226
 30
0.0
 10
74.23964334945146
 20
149.9595637665191
 30
0.0
 10
74.52630782076955
 20
149.4164889854138
 30
0.0
 10
74.7507710172813
 20
149.1555682906278
 30
0.0
 10
75.32507144632727
 20
148.7248429688433
 30
0.0
 10
75.67296570604191
 20
148.5564955714595
 30
0.0
 10
76.39706541418238
 20
148.3414972179709
 30
0.0
 10
76.77102608765365
 20
148.2941176470588
 30
0.0
 10
77.11764705882354
 20
148.2941176470588
 30
0.0
  0
LINE
  5
EA
330
1F
100
AcDbEntity
  8
0
  6
HIDDEN
 62
     7
370
    18
100
AcDbLine
 10
91.8235294118
 20
150.5
 30
0.0
 11
91.8235294118
 21
162.2647058824
 31
0.0
  0
SPLINE
  5
EB
330
1F
100
AcDbEntity
  8
0
  6
HIDDEN
 62
     7
370
    18
100
AcDbSpline
210
0.0
220
0.0
230
1.0
 70
     8
 71
     3
 72
    14
 73
    10
 74
     0
 42
0.00000001
 43
0.00000001
 40
0.0
 40
0.0
 40
0.0
 40
0.0
 40
0.25
 40
0.25
 40
0.5
 40
0.5
 40
0.75
 40
0.75
 40
1.0
 40
1.0
 40
1.0
 40
1.0
 10
88.88235294117646
 20
148.2941176470588
 30
0.0
 10
89.22897391234635
 20
148.2941176470588
 30
0.0
 10
89.60293458581762
 20
148.3414972179709
 30
0.0
 10
90.32703429395809
 20
148.5564955714595
 30
0.0
 10
90.67492855367273
 20
148.7248429688433
 30
0.0
 10
91.24922898271873
 20
149.1555682906278
 30
0.0
 10
91.47369217923045
 20
149.4164889854138
 30
0.0
 10
91.76035665054854
 20
149.9595637665191
 30
0.0
 10
91.82352941176471
 20
150.2400342716226
 30
0.0
 10
91.82352941176471
 20
150.5
 30
0.0
  0
LINE
  5
EC
330
1F
100
AcDbEntity
  8
0
  6
HIDDEN
 62
     7
370
    18
100
AcDbLine
 10
133.0
 20
148.4826518092
 30
0.0
 11
130.0588235294
 21
148.4826518092
 31
0.0
  0
LINE
  5
ED
330
1F
100
AcDbEntity
  8
0
  6
HIDDEN
 62
     7
370
    18
100
AcDbLine
 10
33.0
 20
148.4826518092
 30
0.0
 11
35.9411764706
 21
148.4826518092
 31
0.0
  0
LINE
  5
EE
330
1F
100
AcDbEntity
  8
0
  6
HIDDEN
 62
     7
370
    18
100
AcDbLine
 10
96.8529411765
 20
171.8235294118
 30
0.0
 11
92.6764705882
 21
171.8235294118
 31
0.0
  0
SPLINE
  5
EF
330
1F
100
AcDbEntity
  8
0
  6
HIDDEN
 62
     7
370
    18
100
AcDbSpline
210
0.0
220
0.0
230
1.0
 70
     8
 71
     3
 72
    26
 73
    22
 74
     0
 42
0.00000001
 43
0.00000001
 40
0.0
 40
0.0
 40
0.0
 40
0.0
 40
0.1249999999999997
 40
0.1249999999999997
 40
0.2499999999999993
 40
0.2499999999999993
 40
0.374999999999999
 40
0.374999999999999
 40
0.4374999999999992
 40
0.4374999999999992
 40
0.4999999999999993
 40
0.4999999999999993
 40
0.5624999999999994
 40
0.5624999999999994
 40
0.6249999999999997
 40
0.6249999999999997
 40
0.7499999999999998
 40
0.7499999999999998
 40
0.8749999999999999
 40
0.8749999999999999
 40
1.0
 40
1.0
 40
1.0
 40
1.0
 10
92.6764705882353
 20
168.0530689868992
 30
0.0
 10
92.67647058823529
 20
167.9225542810168
 30
0.0
 10
92.69763137254903
 20
167.7749160457227
 30
0.0
 10
92.82236862745098
 20
167.4541631045462
 30
0.0
 10
92.92705882352942
 20
167.2804219280757
 30
0.0
 10
93.26117647058824
 20
166.9463042810168
 30
0.0
 10
93.49297781396295
 20
166.7867602142552
 30
0.0
 10
93.92652147364136
 20
166.6133427503838
 30
0.0
 10
94.08460842325096
 20
166.566715001518
 30
0.0
 10
94.4167490428124
 20
166.5034501216016
 30
0.0
 10
94.5906862745098
 20
166.4868925163109
 30
0.0
 10
94.93872549019608
 20
166.4868925163109
 30
0.0
 10
95.11266272189349
 20
166.5034501216016
 30
0.0
 10
95.44480334145493
 20
166.566715001518
 30
0.0
 10
95.60289029106453
 20
166.6133427503838
 30
0.0
 10
96.03643395074293
 20
166.7867602142552
 30
0.0
 10
96.26823529411766
 20
166.9463042810168
 30
0.0
 10
96.60235294117648
 20
167.2804219280757
 30
0.0
 10
96.70704313725491
 20
167.4541631045462
 30
0.0
 10
96.83178039215687
 20
167.7749160457227
 30
0.0
 10
96.85294117647058
 20
167.9225542810168
 30
0.0
 10
96.8529411764706
 20
168.0530689868992
 30
0.0
  0
SPLINE
  5
F0
330
1F
100
AcDbEntity
  8
0
  6
HIDDEN
 62
     7
370
    18
100
AcDbSpline
210
0.0
220
0.0
230
1.0
 70
     8
 71
     3
 72
    26
 73
    22
 74
     0
 42
0.00000001
 43
0.00000001
 40
0.0
 40
0.0
 40
0.0
 40
0.0
 40
0.1250000000000001
 40
0.1250000000000001
 40
0.2500000000000003
 40
0.2500000000000003
 40
0.3750000000000004
 40
0.3750000000000004
 40
0.4375000000000003
 40
0.4375000000000003
 40
0.5000000000000002
 40
0.5000000000000002
 40
0.5625000000000002
 40
0.5625000000000002
 40
0.625
 40
0.625
 40
0.75
 40
0.75
 40
0.8750000000000001
 40
0.8750000000000001
 40
1.0
 40
1.0
 40
1.0
 40
1.0
 10
96.8529411764706
 20
168.0530689868992
 30
0.0
 10
96.8529411764706
 20
168.1835836927815
 30
0.0
 10
96.83178039215687
 20
168.3312219280756
 30
0.0
 10
96.70704313725491
 20
168.6519748692521
 30
0.0
 10
96.60235294117648
 20
168.8257160457227
 30
0.0
 10
96.26823529411766
 20
169.1598336927815
 30
0.0
 10
96.03643395074293
 20
169.3193777595432
 30
0.0
 10
95.60289029106453
 20
169.4927952234146
 30
0.0
 10
95.44480334145493
 20
169.5394229722803
 30
0.0
 10
95.1126627218935
 20
169.6026878521968
 30
0.0
 10
94.93872549019608
 20
169.6192454574874
 30
0.0
 10
94.5906862745098
 20
169.6192454574874
 30
0.0
 10
94.4167490428124
 20
169.6026878521968
 30
0.0
 10
94.08460842325096
 20
169.5394229722803
 30
0.0
 10
93.92652147364136
 20
169.4927952234146
 30
0.0
 10
93.49297781396295
 20
169.3193777595432
 30
0.0
 10
93.26117647058825
 20
169.1598336927815
 30
0.0
 10
92.92705882352942
 20
168.8257160457227
 30
0.0
 10
92.82236862745098
 20
168.6519748692521
 30
0.0
 10
92.69763137254904
 20
168.3312219280756
 30
0.0
 10
92.6764705882353
 20
168.1835836927815
 30
0.0
 10
92.6764705882353
 20
168.0530689868992
 30
0.0
  0
LINE
  5
F1
330
1F
100
AcDbEntity
  8
0
  6
HIDDEN
 62
     7
370
    18
100
AcDbLine
 10
73.3235294118
 20
171.8235294118
 30
0.0
 11
69.1470588235
 21
171.8235294118
 31
0.0
  0
SPLINE
  5
F2
330
1F
100
AcDbEntity
  8
0
  6
HIDDEN
 62
     7
370
    18
100
AcDbSpline
210
0.0
220
0.0
230
1.0
 70
     8
 71
     3
 72
    26
 73
    22
 74
     0
 42
0.00000001
 43
0.00000001
 40
0.0
 40
0.0
 40
0.0
 40
0.0
 40
0.1250000000000002
 40
0.1250000000000002
 40
0.2500000000000004
 40
0.2500000000000004
 40
0.3750000000000007
 40
0.3750000000000007
 40
0.4375000000000007
 40
0.4375000000000007
 40
0.5000000000000007
 40
0.5000000000000007
 40
0.5625000000000007
 40
0.5625000000000007
 40
0.6250000000000007
 40
0.6250000000000007
 40
0.7500000000000004
 40
0.7500000000000004
 40
0.8750000000000002
 40
0.8750000000000002
 40
1.0
 40
1.0
 40
1.0
 40
1.0
 10
69.1470588235294
 20
168.0530689868992
 30
0.0
 10
69.1470588235294
 20
167.9225542810169
 30
0.0
 10
69.16821960784314
 20
167.7749160457227
 30
0.0
 10
69.2929568627451
 20
167.4541631045463
 30
0.0
 10
69.39764705882354
 20
167.2804219280757
 30
0.0
 10
69.73176470588236
 20
166.9463042810168
 30
0.0
 10
69.96356604925708
 20
166.7867602142552
 30
0.0
 10
70.39710970893547
 20
166.6133427503838
 30
0.0
 10
70.55519665854509
 20
166.5667150015181
 30
0.0
 10
70.88733727810651
 20
166.5034501216016
 30
0.0
 10
71.06127450980392
 20
166.486892516311
 30
0.0
 10
71.4093137254902
 20
166.486892516311
 30
0.0
 10
71.58325095718762
 20
166.5034501216016
 30
0.0
 10
71.91539157674906
 20
166.5667150015181
 30
0.0
 10
72.07347852635864
 20
166.6133427503838
 30
0.0
 10
72.50702218603705
 20
166.7867602142552
 30
0.0
 10
72.73882352941177
 20
166.9463042810168
 30
0.0
 10
73.0729411764706
 20
167.2804219280757
 30
0.0
 10
73.17763137254903
 20
167.4541631045463
 30
0.0
 10
73.30236862745099
 20
167.7749160457227
 30
0.0
 10
73.32352941176472
 20
167.9225542810169
 30
0.0
 10
73.32352941176471
 20
168.0530689868992
 30
0.0
  0
SPLINE
  5
F3
330
1F
100
AcDbEntity
  8
0
  6
HIDDEN
 62
     7
370
    18
100
AcDbSpline
210
0.0
220
0.0
230
1.0
 70
     8
 71
     3
 72
    26
 73
    22
 74
     0
 42
0.00000001
 43
0.00000001
 40
0.0
 40
0.0
 40
0.0
 40
0.0
 40
0.1249999999999999
 40
0.1249999999999999
 40
0.2499999999999999
 40
0.2499999999999999
 40
0.3749999999999998
 40
0.3749999999999998
 40
0.4374999999999998
 40
0.4374999999999998
 40
0.4999999999999998
 40
0.4999999999999998
 40
0.5624999999999998
 40
0.5624999999999998
 40
0.6249999999999998
 40
0.6249999999999998
 40
0.7499999999999998
 40
0.7499999999999998
 40
0.8749999999999998
 40
0.8749999999999998
 40
1.0
 40
1.0
 40
1.0
 40
1.0
 10
73.32352941176471
 20
168.0530689868992
 30
0.0
 10
73.32352941176471
 20
168.1835836927816
 30
0.0
 10
73.30236862745099
 20
168.3312219280757
 30
0.0
 10
73.17763137254903
 20
168.6519748692521
 30
0.0
 10
73.0729411764706
 20
168.8257160457227
 30
0.0
 10
72.73882352941177
 20
169.1598336927816
 30
0.0
 10
72.50702218603705
 20
169.3193777595432
 30
0.0
 10
72.07347852635864
 20
169.4927952234146
 30
0.0
 10
71.91539157674904
 20
169.5394229722803
 30
0.0
 10
71.58325095718762
 20
169.6026878521968
 30
0.0
 10
71.4093137254902
 20
169.6192454574874
 30
0.0
 10
71.06127450980392
 20
169.6192454574874
 30
0.0
 10
70.88733727810651
 20
169.6026878521968
 30
0.0
 10
70.55519665854509
 20
169.5394229722803
 30
0.0
 10
70.39710970893547
 20
169.4927952234146
 30
0.0
 10
69.96356604925708
 20
169.3193777595432
 30
0.0
 10
69.73176470588236
 20
169.1598336927816
 30
0.0
 10
69.39764705882354
 20
168.8257160457227
 30
0.0
 10
69.2929568627451
 20
168.6519748692521
 30
0.0
 10
69.16821960784314
 20
168.3312219280757
 30
0.0
 10
69.1470588235294
 20
168.1835836927816
 30
0.0
 10
69.1470588235294
 20
168.0530689868992
 30
0.0
  0
LINE
  5
F4
330
1F
100
AcDbEntity
  8
0
  6
HIDDEN
 62
     7
370
    18
100
AcDbLine
 10
74.1764705882
 20
170.3529411765
 30
0.0
 11
68.2941176471
 21
170.3529411765
 31
0.0
  0
LINE
  5
F5
330
1F
100
AcDbEntity
  8
0
  6
HIDDEN
 62
     7
370
    18
100
AcDbLine
 10
97.7058823529
 20
170.3529411765
 30
0.0
 11
91.8235294118
 21
170.3529411765
 31
0.0
  0
LINE
  5
F6
330
1F
100
AcDbEntity
  8
0
  6
HIDDEN
 62
     7
370
    18
100
AcDbLine
 10
96.8529411765
 20
168.0530689869
 30
0.0
 11
96.8529411765
 21
171.8235294118
 31
0.0
  0
LINE
  5
F7
330
1F
100
AcDbEntity
  8
0
  6
HIDDEN
 62
     7
370
    18
100
AcDbLine
 10
92.6764705882
 20
171.8235294118
 30
0.0
 11
92.6764705882
 21
168.0530689869
 31
0.0
  0
LINE
  5
F8
330
1F
100
AcDbEntity
  8
0
  6
HIDDEN
 62
     7
370
    18
100
AcDbLine
 10
73.3235294118
 20
168.0530689869
 30
0.0
 11
73.3235294118
 21
171.8235294118
 31
0.0
  0
LINE
  5
F9
330
1F
100
AcDbEntity
  8
0
  6
HIDDEN
 62
     7
370
    18
100
AcDbLine
 10
69.1470588235
 20
171.8235294118
 30
0.0
 11
69.1470588235
 21
168.0530689869
 31
0.0
  0
LINE
  5
FA
330
1F
100
AcDbEntity
  8
0
  6
HIDDEN
 62
     7
370
    18
100
AcDbLine
 10
93.5882352941
 20
177.7058823529
 30
0.0
 11
93.5882352941
 21
171.8235294118
 31
0.0
  0
LINE
  5
FB
330
1F
100
AcDbEntity
  8
0
  6
HIDDEN
 62
     7
370
    18
100
AcDbLine
 10
95.9411764706
 20
171.8235294118
 30
0.0
 11
95.9411764706
 21
177.7058823529
 31
0.0
  0
LINE
  5
FC
330
1F
100
AcDbEntity
  8
0
  6
HIDDEN
 62
     7
370
    18
100
AcDbLine
 10
70.0588235294
 20
177.7058823529
 30
0.0
 11
70.0588235294
 21
171.8235294118
 31
0.0
  0
LINE
  5
FD
330
1F
100
AcDbEntity
  8
0
  6
HIDDEN
 62
     7
370
    18
100
AcDbLine
 10
72.4117647059
 20
171.8235294118
 30
0.0
 11
72.4117647059
 21
177.7058823529
 31
0.0
  0
LINE
  5
FE
330
1F
100
AcDbEntity
  8
0
  6
Continuous
 62
     7
370
    25
100
AcDbLine
 10
206.2352941176
 20
65.8901462671
 30
0.0
 11
213.4826518092
 21
61.7058823529
 31
0.0
  0
ARC
  5
FF
330
1F
100
AcDbEntity
  8
0
  6
Continuous
 62
     7
370
    25
100
AcDbCircle
 10
209.1764705882
 20
70.9844133482
 30
0.0
 40
5.882352941176492
100
AcDbArc
 50
180.0
 51
240.0
  0
LINE
  5
100
330
1F
100
AcDbEntity
  8
0
  6
Continuous
 62
     7
370
    25
100
AcDbLine
 10
203.2941176471
 20
72.8823529412
 30
0.0
 11
203.2941176471
 21
70.9844133482
 31
0.0
  0
ARC
  5
101
330
1F
100
AcDbEntity
  8
0
  6
Continuous
 62
     7
370
    25
100
AcDbCircle
 10
206.2352941176
 20
72.8823529412
 30
0.0
 40
2.94117647058826
100
AcDbArc
 50
90.0
 51
180.0
  0
LINE
  5
102
330
1F
100
AcDbEntity
  8
0
  6
Continuous
 62
     7
370
    25
100
AcDbLine
 10
224.8702893672
 20
75.8235294118
 30
0.0
 11
206.2352941176
 21
75.8235294118
 31
0.0
  0
LINE
  5
103
330
1F
100
AcDbEntity
  8
0
  6
Continuous
 62
     7
370
    25
100
AcDbLine
 10
232.1176470588
 20
71.6392654976
 30
0.0
 11
224.8702893672
 21
75.8235294118
 31
0.0
  0
ARC
  5
104
330
1F
100
AcDbEntity
  8
0
  6
Continuous
 62
     7
370
    25
100
AcDbCircle
 10
229.1764705882
 20
66.5449984165
 30
0.0
 40
5.882352941176492
100
AcDbArc
 50
0.0
 51
60.0
  0
LINE
  5
105
330
1F
100
AcDbEntity
  8
0
  6
Continuous
 62
     7
370
    25
100
AcDbLine
 10
235.0588235294
 20
64.6470588235
 30
0.0
 11
235.0588235294
 21
66.5449984165
 31
0.0
  0
ARC
  5
106
330
1F
100
AcDbEntity
  8
0
  6
Continuous
 62
     7
370
    25
100
AcDbCircle
 10
232.1176470588
 20
64.6470588235
 30
0.0
 40
2.941176470588239
100
AcDbArc
 50
270.0
 51
0.0
  0
LINE
  5
107
330
1F
100
AcDbEntity
  8
0
  6
Continuous
 62
     7
370
    25
100
AcDbLine
 10
213.4826518092
 20
61.7058823529
 30
0.0
 11
232.1176470588
 21
61.7058823529
 31
0.0
  0
LINE
  5
108
330
1F
100
AcDbEntity
  8
0
  6
Continuous
 62
     7
370
    25
100
AcDbLine
 10
242.7058823529
 20
38.1764705882
 30
0.0
 11
242.7058823529
 21
44.0588235294
 31
0.0
  0
LINE
  5
109
330
1F
100
AcDbEntity
  8
0
  6
Continuous
 62
     7
370
    25
100
AcDbLine
 10
242.7058823529
 20
38.1764705882
 30
0.0
 11
235.3529411765
 21
38.1764705882
 31
0.0
  0
LINE
  5
10A
330
1F
100
AcDbEntity
  8
0
  6
Continuous
 62
     7
370
    25
100
AcDbLine
 10
217.7058823529
 20
61.7058823529
 30
0.0
 11
235.3529411765
 21
38.1764705882
 31
0.0
  0
LINE
  5
10B
330
1F
100
AcDbEntity
  8
0
  6
Continuous
 62
     7
370
    25
100
AcDbLine
 10
242.7058823529
 20
44.0588235294
 30
0.0
 11
229.4705882353
 21
61.7058823529
 31
0.0
  0
LINE
  5
10C
330
1F
100
AcDbEntity
  8
0
  6
HIDDEN
 62
     7
370
    18
100
AcDbLine
 10
215.8412511876
 20
70.5294117647
 30
0.0
 11
225.0588235294
 21
70.5294117647
 31
0.0
  0
ARC
  5
10D
330
1F
100
AcDbEntity
  8
0
  6
HIDDEN
 62
     7
370
    18
100
AcDbCircle
 10
225.0588235294
 20
67.5882352941
 30
0.0
 40
2.941176470588246
100
AcDbArc
 50
0.0
 51
90.0
  0
LINE
  5
10E
330
1F
100
AcDbEntity
  8
0
  6
HIDDEN
 62
     7
370
    18
100
AcDbLine
 10
213.2941176471
 20
67.5882352941
 30
0.0
 11
228.0
 21
67.5882352941
 31
0.0
  0
ARC
  5
10F
330
1F
100
AcDbEntity
  8
0
  6
HIDDEN
 62
     7
370
    18
100
AcDbCircle
 10
215.8412511876
 20
73.4705882353
 30
0.0
 40
2.941176470588232
100
AcDbArc
 50
210.0
 51
270.0
  0
LINE
  5
110
330
1F
100
AcDbEntity
  8
0
  6
HIDDEN
 62
     7
370
    18
100
AcDbLine
 10
211.5294117647
 20
72.0
 30
0.0
 11
213.2941176471
 21
72.0
 31
0.0
  0
ARC
  5
111
330
1F
100
AcDbEntity
  8
0
  6
HIDDEN
 62
     7
370
    18
100
AcDbCircle
 10
213.2941176471
 20
70.5294117647
 30
0.0
 40
2.941176470588246
100
AcDbArc
 50
180.0
 51
270.0
  0
ARC
  5
112
330
1F
100
AcDbEntity
  8
0
  6
HIDDEN
 62
     7
370
    18
100
AcDbCircle
 10
211.5294117647
 20
70.8235294118
 30
0.0
 40
1.176470588235318
100
AcDbArc
 50
90.0
 51
180.0
  0
LINE
  5
113
330
1F
100
AcDbEntity
  8
0
  6
HIDDEN
 62
     7
370
    18
100
AcDbLine
 10
210.3529411765
 20
70.5294117647
 30
0.0
 11
210.3529411765
 21
70.8235294118
 31
0.0
  0
SPLINE
  5
114
330
1F
100
AcDbEntity
  8
0
  6
HIDDEN
 62
     7
370
    18
100
AcDbSpline
210
0.0
220
0.0
230
1.0
 70
     8
 71
     3
 72
    14
 73
    10
 74
     0
 42
0.00000001
 43
0.00000001
 40
0.0
 40
0.0
 40
0.0
 40
0.0
 40
0.25
 40
0.25
 40
0.5
 40
0.5
 40
0.75
 40
0.75
 40
1.0
 40
1.0
 40
1.0
 40
1.0
 10
222.1165366370132
 20
70.52941155508965
 30
0.0
 10
222.5016282444256
 20
70.52955694390077
 30
0.0
 10
222.8865971049216
 20
70.4531140742731
 30
0.0
 10
223.5982370924034
 20
70.15857919150632
 30
0.0
 10
223.924627951142
 20
69.94060317631104
 30
0.0
 10
224.4693325596269
 20
69.39610417865832
 30
0.0
 10
224.6874317860068
 20
69.06979563859068
 30
0.0
 10
224.9822353227737
 20
68.35826690153279
 30
0.0
 10
225.0588235294118
 20
67.97332692897534
 30
0.0
 10
225.0588235294118
 20
67.58823529411764
 30
0.0
  0
SPLINE
  5
115
330
1F
100
AcDbEntity
  8
0
  6
HIDDEN
 62
     7
370
    18
100
AcDbSpline
210
0.0
220
0.0
230
1.0
 70
    24
 71
     3
 72
    14
 73
    10
 74
     0
 42
0.00000001
 43
0.00000001
 40
0.0
 40
0.0
 40
0.0
 40
0.0
 40
0.2500000000000003
 40
0.2500000000000003
 40
0.5000000000000006
 40
0.5000000000000006
 40
0.7500000000000002
 40
0.7500000000000002
 40
1.0
 40
1.0
 40
1.0
 40
1.0
 10
215.5
 20
64.64705882352942
 30
0.0
 10
215.2400342716226
 20
64.99367979469929
 30
0.0
 10
214.9595637665191
 20
65.36764046817056
 30
0.0
 10
214.4164889854138
 20
66.09174017631105
 30
0.0
 10
214.1555682906278
 20
66.43963443602568
 30
0.0
 10
213.7248429688433
 20
67.01393486507166
 30
0.0
 10
213.5564955714595
 20
67.23839806158341
 30
0.0
 10
213.3414972179709
 20
67.5250625329015
 30
0.0
 10
213.2941176470588
 20
67.58823529411764
 30
0.0
 10
213.2941176470588
 20
67.58823529411764
 30
0.0
  0
SPLINE
  5
116
330
1F
100
AcDbEntity
  8
0
  6
HIDDEN
 62
     7
370
    18
100
AcDbSpline
210
0.0
220
0.0
230
1.0
 70
    24
 71
     3
 72
    14
 73
    10
 74
     0
 42
0.00000001
 43
0.00000001
 40
0.0
 40
0.0
 40
0.0
 40
0.0
 40
0.2499999999999997
 40
0.2499999999999997
 40
0.4999999999999993
 40
0.4999999999999993
 40
0.7499999999999997
 40
0.7499999999999997
 40
1.0
 40
1.0
 40
1.0
 40
1.0
 10
225.0588235294118
 20
67.58823529411764
 30
0.0
 10
225.0588235294118
 20
67.58823529411764
 30
0.0
 10
225.1062031003239
 20
67.52506253290149
 30
0.0
 10
225.3212014538124
 20
67.23839806158341
 30
0.0
 10
225.4895488511962
 20
67.01393486507166
 30
0.0
 10
225.9202741729807
 20
66.43963443602568
 30
0.0
 10
226.1811948677667
 20
66.09174017631105
 30
0.0
 10
226.7242696488721
 20
65.36764046817058
 30
0.0
 10
227.0047401539755
 20
64.99367979469929
 30
0.0
 10
227.2647058823529
 20
64.64705882352942
 30
0.0
  0
LINE
  5
117
330
1F
100
AcDbEntity
  8
0
  6
HIDDEN
 62
     7
370
    18
100
AcDbLine
 10
215.5
 20
64.6470588235
 30
0.0
 11
217.7058823529
 21
61.7058823529
 31
0.0
  0
LINE
  5
118
330
1F
100
AcDbEntity
  8
0
  6
HIDDEN
 62
     7
370
    18
100
AcDbLine
 10
229.4705882353
 20
61.7058823529
 30
0.0
 11
227.2647058824
 21
64.6470588235
 31
0.0
  0
LINE
  5
119
330
1F
100
AcDbEntity
  8
0
  6
HIDDEN
 62
     7
370
    18
100
AcDbLine
 10
236.8235294118
 20
41.242966841
 30
0.0
 11
236.8235294118
 21
43.3312021351
 31
0.0
  0
LINE
  5
11A
330
1F
100
AcDbEntity
  8
0
  6
HIDDEN
 62
     7
370
    18
100
AcDbLine
 10
236.8235294118
 20
39.1547315469
 30
0.0
 11
236.8235294118
 21
41.242966841
 31
0.0
  0
LINE
  5
11B
330
1F
100
AcDbEntity
  8
0
  6
HIDDEN
 62
     7
370
    18
100
AcDbLine
 10
234.6192454575
 20
39.1547315469
 30
0.0
 11
236.8235294118
 21
39.1547315469
 31
0.0
  0
LINE
  5
11C
330
1F
100
AcDbEntity
  8
0
  6
HIDDEN
 62
     7
370
    18
100
AcDbLine
 10
236.8235294118
 20
43.3312021351
 30
0.0
 11
231.4868925163
 21
43.3312021351
 31
0.0
  0
LINE
  5
11D
330
1F
100
AcDbEntity
  8
0
  6
HIDDEN
 62
     7
370
    18
100
AcDbLine
 10
242.7058823529
 20
42.4194374292
 30
0.0
 11
236.8235294118
 21
42.4194374292
 31
0.0
  0
LINE
  5
11E
330
1F
100
AcDbEntity
  8
0
  6
HIDDEN
 62
     7
370
    18
100
AcDbLine
 10
236.8235294118
 20
40.0664962528
 30
0.0
 11
242.7058823529
 21
40.0664962528
 31
0.0
  0
ENDSEC
  0
SECTION
  2
OBJECTS
  0
DICTIONARY
  5
C
330
0
100
AcDbDictionary
281
     1
  3
ACAD_GROUP
350
D
  3
ACAD_LAYOUT
350
1A
  3
ACAD_MLINESTYLE
350
17
  3
ACAD_PLOTSETTINGS
350
19
  3
ACAD_PLOTSTYLENAME
350
E
  3
ACAD_SCALELIST
350
47
  3
DWGPROPS
350
11F
  0
DICTIONARY
  5
D
102
{ACAD_REACTORS
330
C
102
}
330
C
100
AcDbDictionary
281
     1
  0
DICTIONARY
  5
1A
102
{ACAD_REACTORS
330
C
102
}
330
C
100
AcDbDictionary
281
     1
  3
Layout1
350
1E
  3
Layout2
350
26
  3
Model
350
22
  0
DICTIONARY
  5
17
102
{ACAD_REACTORS
330
C
102
}
330
C
100
AcDbDictionary
281
     1
  3
Standard
350
18
  0
DICTIONARY
  5
19
102
{ACAD_REACTORS
330
C
102
}
330
C
100
AcDbDictionary
281
     1
  0
ACDBDICTIONARYWDFLT
  5
E
102
{ACAD_REACTORS
330
C
102
}
330
C
100
AcDbDictionary
281
     1
  3
Normal
350
F
100
AcDbDictionaryWithDefault
340
F
  0
DICTIONARY
  5
47
102
{ACAD_REACTORS
330
C
102
}
330
C
100
AcDbDictionary
281
     1
  3
A0
350
48
  3
A1
350
49
  3
A2
350
4A
  3
A3
350
4B
  3
A4
350
4C
  3
A5
350
4D
  3
A6
350
4E
  3
A7
350
4F
  3
A8
350
50
  3
A9
350
51
  3
B0
350
52
  3
B1
350
53
  3
B2
350
54
  3
B3
350
55
  3
B4
350
56
  3
B5
350
57
  3
B6
350
58
  0
XRECORD
  5
11F
102
{ACAD_REACTORS
330
C
102
}
330
C
100
AcDbXrecord
280
     1
  1
DWGPROPS COOKIE
  2

  3

  4

  6

  7

  8

  9

300
=
301
=
302
=
303
=
304
=
305
=
306
=
307
=
308
=
309
=
 40
0.0
 41
2461214.42120544
 42
2461214.421205695
  1

 90
        0
  0
LAYOUT
  5
1E
102
{ACAD_REACTORS
330
1A
102
}
330
1A
100
AcDbPlotSettings
  1

  2
none_device
  4

  6

 40
0.0
 41
0.0
 42
0.0
 43
0.0
 44
0.0
 45
0.0
 46
0.0
 47
0.0
 48
0.0
 49
0.0
140
0.0
141
0.0
142
1.0
143
1.0
 70
   688
 72
     1
 73
     0
 74
     5
  7

 75
    16
147
1.0
148
0.0
149
0.0
100
AcDbLayout
  1
Layout1
 70
     1
 71
     1
 10
0.0
 20
0.0
 11
420.0
 21
297.0
 12
0.0
 22
0.0
 32
0.0
 14
1.0000000000E+20
 24
1.0000000000E+20
 34
1.0000000000E+20
 15
-1.0000000000E+20
 25
-1.0000000000E+20
 35
-1.0000000000E+20
146
0.0
 13
0.0
 23
0.0
 33
0.0
 16
1.0
 26
0.0
 36
0.0
 17
0.0
 27
1.0
 37
0.0
 76
     0
330
1B
  0
LAYOUT
  5
26
102
{ACAD_REACTORS
330
1A
102
}
330
1A
100
AcDbPlotSettings
  1

  2
none_device
  4

  6

 40
0.0
 41
0.0
 42
0.0
 43
0.0
 44
0.0
 45
0.0
 46
0.0
 47
0.0
 48
0.0
 49
0.0
140
0.0
141
0.0
142
1.0
143
1.0
 70
   688
 72
     1
 73
     0
 74
     5
  7

 75
    16
147
1.0
148
0.0
149
0.0
100
AcDbLayout
  1
Layout2
 70
     1
 71
     2
 10
0.0
 20
0.0
 11
0.0
 21
0.0
 12
0.0
 22
0.0
 32
0.0
 14
0.0
 24
0.0
 34
0.0
 15
0.0
 25
0.0
 35
0.0
146
0.0
 13
0.0
 23
0.0
 33
0.0
 16
1.0
 26
0.0
 36
0.0
 17
0.0
 27
1.0
 37
0.0
 76
     0
330
23
  0
LAYOUT
  5
22
102
{ACAD_REACTORS
330
1A
102
}
330
1A
100
AcDbPlotSettings
  1

  2
none_device
  4
Letter_(8.50_x_11.00_Inches)
  6

 40
6.35
 41
6.35
 42
6.35000508
 43
6.35000508
 44
215.9
 45
279.4
 46
0.0
 47
0.0
 48
0.0
 49
0.0
140
0.0
141
0.0
142
1.0
143
1.0
 70
  1712
 72
     1
 73
     0
 74
     0
  7

 75
     0
147
1.0
148
0.0
149
0.0
100
AcDbLayout
  1
Model
 70
     1
 71
     0
 10
0.0
 20
0.0
 11
297.0
 21
210.0
 12
0.0
 22
0.0
 32
0.0
 14
0.0
 24
0.0
 34
0.0
 15
297.0
 25
210.0
 35
0.0
146
0.0
 13
0.0
 23
0.0
 33
0.0
 16
1.0
 26
0.0
 36
0.0
 17
0.0
 27
1.0
 37
0.0
 76
     0
330
1F
331
29
  0
MLINESTYLE
  5
18
102
{ACAD_REACTORS
330
17
102
}
330
17
100
AcDbMlineStyle
  2
Standard
 70
     0
  3

 62
   256
 51
90.0
 52
90.0
 71
     2
 49
0.5
 62
   256
  6
BYLAYER
 49
-0.5
 62
   256
  6
BYLAYER
  0
ACDBPLACEHOLDER
  5
F
102
{ACAD_REACTORS
330
E
102
}
330
E
  0
SCALE
  5
48
102
{ACAD_REACTORS
330
47
102
}
330
47
100
AcDbScale
 70
     0
300
1:1
140
1.0
141
1.0
290
     1
  0
SCALE
  5
49
102
{ACAD_REACTORS
330
47
102
}
330
47
100
AcDbScale
 70
     0
300
1:2
140
1.0
141
2.0
290
     0
  0
SCALE
  5
4A
102
{ACAD_REACTORS
330
47
102
}
330
47
100
AcDbScale
 70
     0
300
1:4
140
1.0
141
4.0
290
     0
  0
SCALE
  5
4B
102
{ACAD_REACTORS
330
47
102
}
330
47
100
AcDbScale
 70
     0
300
1:5
140
1.0
141
5.0
290
     0
  0
SCALE
  5
4C
102
{ACAD_REACTORS
330
47
102
}
330
47
100
AcDbScale
 70
     0
300
1:8
140
1.0
141
8.0
290
     0
  0
SCALE
  5
4D
102
{ACAD_REACTORS
330
47
102
}
330
47
100
AcDbScale
 70
     0
300
1:10
140
1.0
141
10.0
290
     0
  0
SCALE
  5
4E
102
{ACAD_REACTORS
330
47
102
}
330
47
100
AcDbScale
 70
     0
300
1:16
140
1.0
141
16.0
290
     0
  0
SCALE
  5
4F
102
{ACAD_REACTORS
330
47
102
}
330
47
100
AcDbScale
 70
     0
300
1:20
140
1.0
141
20.0
290
     0
  0
SCALE
  5
50
102
{ACAD_REACTORS
330
47
102
}
330
47
100
AcDbScale
 70
     0
300
1:30
140
1.0
141
30.0
290
     0
  0
SCALE
  5
51
102
{ACAD_REACTORS
330
47
102
}
330
47
100
AcDbScale
 70
     0
300
1:40
140
1.0
141
40.0
290
     0
  0
SCALE
  5
52
102
{ACAD_REACTORS
330
47
102
}
330
47
100
AcDbScale
 70
     0
300
1:50
140
1.0
141
50.0
290
     0
  0
SCALE
  5
53
102
{ACAD_REACTORS
330
47
102
}
330
47
100
AcDbScale
 70
     0
300
1:100
140
1.0
141
100.0
290
     0
  0
SCALE
  5
54
102
{ACAD_REACTORS
330
47
102
}
330
47
100
AcDbScale
 70
     0
300
2:1
140
2.0
141
1.0
290
     0
  0
SCALE
  5
55
102
{ACAD_REACTORS
330
47
102
}
330
47
100
AcDbScale
 70
     0
300
4:1
140
4.0
141
1.0
290
     0
  0
SCALE
  5
56
102
{ACAD_REACTORS
330
47
102
}
330
47
100
AcDbScale
 70
     0
300
8:1
140
8.0
141
1.0
290
     0
  0
SCALE
  5
57
102
{ACAD_REACTORS
330
47
102
}
330
47
100
AcDbScale
 70
     0
300
10:1
140
10.0
141
1.0
290
     0
  0
SCALE
  5
58
102
{ACAD_REACTORS
330
47
102
}
330
47
100
AcDbScale
 70
     0
300
100:1
140
100.0
141
1.0
290
     0
  0
ENDSEC
  0
EOF
