  0
SECTION
  2
HEADER
  9
$ACADVER
  1
AC1015
  9
$ACADMAINTVER
 70
     6
  9
$DWGCODEPAGE
  3
ANSI_936
  9
$INSBASE
 10
0.0
 20
0.0
 30
0.0
  9
$EXTMIN
 10
0.0
 20
0.0
 30
0.0
  9
$EXTMAX
 10
297.0
 20
210.0
 30
0.0
  9
$LIMMIN
 10
0.0
 20
0.0
  9
$LIMMAX
 10
297.0
 20
210.0
  9
$ORTHOMODE
 70
     0
  9
$REGENMODE
 70
     1
  9
$FILLMODE
 70
     1
  9
$QTEXTMODE
 70
     0
  9
$MIRRTEXT
 70
     1
  9
$LTSCALE
 40
1.0
  9
$ATTMODE
 70
     1
  9
$TEXTSIZE
 40
3.5
  9
$TRACEWID
 40
1.0
  9
$TEXTSTYLE
  7
Standard
  9
$CLAYER
  8
0
  9
$CELTYPE
  6
ByLayer
  9
$CECOLOR
 62
   256
  9
$CELTSCALE
 40
1.0
  9
$DISPSILH
 70
     0
  9
$DIMSCALE
 40
1.0
  9
$DIMASZ
 40
4.08
  9
$DIMEXO
 40
0.0
  9
$DIMDLI
 40
3.75
  9
$DIMRND
 40
0.0
  9
$DIMDLE
 40
0.0
  9
$DIMEXE
 40
2.0
  9
$DIMTP
 40
0.0
  9
$DIMTM
 40
0.0
  9
$DIMTXT
 40
3.5
  9
$DIMCEN
 40
2.5
  9
$DIMTSZ
 40
0.0
  9
$DIMTOL
 70
     0
  9
$DIMLIM
 70
     0
  9
$DIMTIH
 70
     1
  9
$DIMTOH
 70
     1
  9
$DIMSE1
 70
     0
  9
$DIMSE2
 70
     0
  9
$DIMTAD
 70
     1
  9
$DIMZIN
 70
     0
  9
$DIMBLK
  1

  9
$DIMASO
 70
     1
  9
$DIMSHO
 70
     1
  9
$DIMPOST
  1

  9
$DIMAPOST
  1

  9
$DIMALT
 70
     0
  9
$DIMALTD
 70
     3
  9
$DIMALTF
 40
0.0393700787
  9
$DIMLFAC
 40
2.0
  9
$DIMTOFL
 70
     1
  9
$DIMTVP
 40
0.0
  9
$DIMTIX
 70
     0
  9
$DIMSOXD
 70
     0
  9
$DIMSAH
 70
     0
  9
$DIMBLK1
  1

  9
$DIMBLK2
  1

  9
$DIMSTYLE
  2
ISO-25
  9
$DIMCLRD
 70
     0
  9
$DIMCLRE
 70
     0
  9
$DIMCLRT
 70
     0
  9
$DIMTFAC
 40
1.0
  9
$DIMGAP
 40
1.524
  9
$DIMJUST
 70
     0
  9
$DIMSD1
 70
     0
  9
$DIMSD2
 70
     0
  9
$DIMTOLJ
 70
     0
  9
$DIMTZIN
 70
     0
  9
$DIMALTZ
 70
     0
  9
$DIMALTTZ
 70
     0
  9
$DIMUPT
 70
     0
  9
$DIMDEC
 70
     2
  9
$DIMTDEC
 70
     2
  9
$DIMALTU
 70
     2
  9
$DIMALTTD
 70
     3
  9
$DIMTXSTY
  7
Standard
  9
$DIMAUNIT
 70
     0
  9
$DIMADEC
 70
     2
  9
$DIMALTRND
 40
0.0
  9
$DIMAZIN
 70
     0
  9
$DIMDSEP
 70
    44
  9
$DIMATFIT
 70
     3
  9
$DIMFRAC
 70
     0
  9
$DIMLDRBLK
  1

  9
$DIMLUNIT
 70
     2
  9
$DIMLWD
 70
    -2
  9
$DIMLWE
 70
    -2
  9
$DIMTMOVE
 70
     0
  9
$LUNITS
 70
     2
  9
$LUPREC
 70
     2
  9
$SKETCHINC
 40
1.0
  9
$FILLETRAD
 40
0.0
  9
$AUNITS
 70
     0
  9
$AUPREC
 70
     2
  9
$MENU
  1
.
  9
$ELEVATION
 40
0.0
  9
$PELEVATION
 40
0.0
  9
$THICKNESS
 40
0.0
  9
$LIMCHECK
 70
     0
  9
$CHAMFERA
 40
0.0
  9
$CHAMFERB
 40
0.0
  9
$CHAMFERC
 40
0.0
  9
$CHAMFERD
 40
0.0
  9
$SKPOLY
 70
     0
  9
$TDCREATE
 40
2461215.826603137
  9
$TDUCREATE
 40
2461215.493269804
  9
$TDUPDATE
 40
2461215.826603322
  9
$TDUUPDATE
 40
2461215.493269989
  9
$TDINDWG
 40
0.0000000116
  9
$TDUSRTIMER
 40
0.0000000116
  9
$USRTIMER
 70
     1
  9
$ANGBASE
 50
0.0
  9
$ANGDIR
 70
     0
  9
$PDMODE
 70
     0
  9
$PDSIZE
 40
-1.0
  9
$PLINEWID
 40
0.0
  9
$SPLFRAME
 70
     0
  9
$SPLINETYPE
 70
     6
  9
$SPLINESEGS
 70
     8
  9
$HANDSEED
  5
98
  9
$SURFTAB1
 70
     6
  9
$SURFTAB2
 70
     6
  9
$SURFTYPE
 70
     6
  9
$SURFU
 70
     6
  9
$SURFV
 70
     6
  9
$UCSBASE
  2

  9
$UCSNAME
  2

  9
$UCSORG
 10
0.0
 20
0.0
 30
0.0
  9
$UCSXDIR
 10
1.0
 20
0.0
 30
0.0
  9
$UCSYDIR
 10
0.0
 20
1.0
 30
0.0
  9
$UCSORTHOREF
  2

  9
$UCSORTHOVIEW
 70
     0
  9
$UCSORGTOP
 10
0.0
 20
0.0
 30
0.0
  9
$UCSORGBOTTOM
 10
0.0
 20
0.0
 30
0.0
  9
$UCSORGLEFT
 10
0.0
 20
0.0
 30
0.0
  9
$UCSORGRIGHT
 10
0.0
 20
0.0
 30
0.0
  9
$UCSORGFRONT
 10
0.0
 20
0.0
 30
0.0
  9
$UCSORGBACK
 10
0.0
 20
0.0
 30
0.0
  9
$PUCSBASE
  2

  9
$PUCSNAME
  2

  9
$PUCSORG
 10
0.0
 20
0.0
 30
0.0
  9
$PUCSXDIR
 10
1.0
 20
0.0
 30
0.0
  9
$PUCSYDIR
 10
0.0
 20
1.0
 30
0.0
  9
$PUCSORTHOREF
  2

  9
$PUCSORTHOVIEW
 70
     0
  9
$PUCSORGTOP
 10
0.0
 20
0.0
 30
0.0
  9
$PUCSORGBOTTOM
 10
0.0
 20
0.0
 30
0.0
  9
$PUCSORGLEFT
 10
0.0
 20
0.0
 30
0.0
  9
$PUCSORGRIGHT
 10
0.0
 20
0.0
 30
0.0
  9
$PUCSORGFRONT
 10
0.0
 20
0.0
 30
0.0
  9
$PUCSORGBACK
 10
0.0
 20
0.0
 30
0.0
  9
$USERI1
 70
     0
  9
$USERI2
 70
     0
  9
$USERI3
 70
     0
  9
$USERI4
 70
     0
  9
$USERI5
 70
     0
  9
$USERR1
 40
0.0
  9
$USERR2
 40
0.0
  9
$USERR3
 40
0.0
  9
$USERR4
 40
0.0
  9
$USERR5
 40
0.0
  9
$WORLDVIEW
 70
     1
  9
$SHADEDGE
 70
     3
  9
$SHADEDIF
 70
    70
  9
$TILEMODE
 70
     1
  9
$MAXACTVP
 70
    64
  9
$PINSBASE
 10
0.0
 20
0.0
 30
0.0
  9
$PLIMCHECK
 70
     0
  9
$PEXTMIN
 10
1.0000000000E+20
 20
1.0000000000E+20
 30
1.0000000000E+20
  9
$PEXTMAX
 10
-1.0000000000E+20
 20
-1.0000000000E+20
 30
-1.0000000000E+20
  9
$PLIMMIN
 10
0.0
 20
0.0
  9
$PLIMMAX
 10
420.0
 20
297.0
  9
$UNITMODE
 70
     0
  9
$VISRETAIN
 70
     1
  9
$PLINEGEN
 70
     0
  9
$PSLTSCALE
 70
     1
  9
$TREEDEPTH
 70
  3020
  9
$CMLSTYLE
  2
Standard
  9
$CMLJUST
 70
     0
  9
$CMLSCALE
 40
20.0
  9
$PROXYGRAPHICS
 70
     1
  9
$MEASUREMENT
 70
     1
  9
$CELWEIGHT
370
    -1
  9
$ENDCAPS
280
     0
  9
$JOINSTYLE
280
     0
  9
$LWDISPLAY
290
     1
  9
$INSUNITS
 70
     4
  9
$HYPERLINKBASE
  1

  9
$STYLESHEET
  1

  9
$XEDIT
290
     1
  9
$CEPSNTYPE
380
     0
  9
$PSTYLEMODE
290
     1
  9
$FINGERPRINTGUID
  2
{7405879b-e58a-4548-9c97-d2c1ba793dcf}
  9
$VERSIONGUID
  2
{FAEB1C32-E019-11D5-929B-00C0DF256EC4}
  9
$EXTNAMES
290
     1
  9
$PSVPSCALE
 40
0.0
  9
$OLESTARTUP
290
     0
  0
ENDSEC
  0
SECTION
  2
CLASSES
  0
CLASS
  1
ACDBDICTIONARYWDFLT
  2
AcDbDictionaryWithDefault
  3
ObjectDBX Classes
 90
        0
280
     0
281
     0
  0
CLASS
  1
VISUALSTYLE
  2
AcDbVisualStyle
  3
ObjectDBX Classes
 90
     4095
280
     0
281
     0
  0
CLASS
  1
MATERIAL
  2
AcDbMaterial
  3
ObjectDBX Classes
 90
     1153
280
     0
281
     0
  0
CLASS
  1
SCALE
  2
AcDbScale
  3
ObjectDBX Classes
 90
     1153
280
     0
281
     0
  0
CLASS
  1
TABLESTYLE
  2
AcDbTableStyle
  3
ObjectDBX Classes
 90
     4095
280
     0
281
     0
  0
CLASS
  1
MLEADERSTYLE
  2
AcDbMLeaderStyle
  3
ACDB_MLEADERSTYLE_CLASS
 90
     4095
280
     0
281
     0
  0
CLASS
  1
SUN
  2
AcDbSun
  3
SCENEOE
 90
     1153
280
     0
281
     0
  0
CLASS
  1
ACDBPLACEHOLDER
  2
AcDbPlaceHolder
  3
ObjectDBX Classes
 90
        0
280
     0
281
     0
  0
CLASS
  1
LAYOUT
  2
AcDbLayout
  3
ObjectDBX Classes
 90
        0
280
     0
281
     0
  0
ENDSEC
  0
SECTION
  2
TABLES
  0
TABLE
  2
VPORT
  5
8
330
0
100
AcDbSymbolTable
 70
     1
  0
VPORT
  5
29
330
8
100
AcDbSymbolTableRecord
100
AcDbViewportTableRecord
  2
*Active
 70
     0
 10
0.0
 20
0.0
 11
1.0
 21
1.0
 12
148.5
 22
105.0
 13
0.0
 23
0.0
 14
10.0
 24
10.0
 15
10.0
 25
10.0
 16
0.0
 26
0.0
 36
1.0
 17
0.0
 27
0.0
 37
0.0
 40
210.0
 41
1.4142857143
 42
50.0
 43
0.0
 44
0.0
 50
0.0
 51
0.0
 71
     0
 72
  2000
 73
     1
 74
     3
 75
     0
 76
     0
 77
     0
 78
     0
281
     0
 65
     1
110
0.0
120
0.0
130
0.0
111
1.0
121
0.0
131
0.0
112
0.0
122
1.0
132
0.0
 79
     0
146
0.0
  0
ENDTAB
  0
TABLE
  2
LTYPE
  5
5
330
0
100
AcDbSymbolTable
 70
     6
  0
LTYPE
  5
14
330
5
100
AcDbSymbolTableRecord
100
AcDbLinetypeTableRecord
  2
ByBlock
 70
     0
  3

 72
    65
 73
     0
 40
0.0
  0
LTYPE
  5
15
330
5
100
AcDbSymbolTableRecord
100
AcDbLinetypeTableRecord
  2
ByLayer
 70
     0
  3

 72
    65
 73
     0
 40
0.0
  0
LTYPE
  5
16
330
5
100
AcDbSymbolTableRecord
100
AcDbLinetypeTableRecord
  2
Continuous
 70
     0
  3
Solid line
 72
    65
 73
     0
 40
0.0
  0
LTYPE
  5
5E
330
5
100
AcDbSymbolTableRecord
100
AcDbLinetypeTableRecord
  2
HIDDEN
 70
     0
  3
Hidden __ __ __ __ __ __ __ __ __ __ __ __ __ __
 72
    65
 73
     2
 40
1.905
 49
1.27
 74
     0
 49
-0.635
 74
     0
  0
LTYPE
  5
5F
330
5
100
AcDbSymbolTableRecord
100
AcDbLinetypeTableRecord
  2
PHANTOM
 70
     0
  3
Phantom ______  __  __  ______  __  __  ______
 72
    65
 73
     6
 40
12.7
 49
6.35
 74
     0
 49
-1.27
 74
     0
 49
1.27
 74
     0
 49
-1.27
 74
     0
 49
1.27
 74
     0
 49
-1.27
 74
     0
  0
LTYPE
  5
60
330
5
100
AcDbSymbolTableRecord
100
AcDbLinetypeTableRecord
  2
CENTER
 70
     0
  3
Center ____ _ ____ _ ____ _ ____ _ ____ _ ____
 72
    65
 73
     4
 40
10.16
 49
6.35
 74
     0
 49
-1.27
 74
     0
 49
1.27
 74
     0
 49
-1.27
 74
     0
  0
LTYPE
  5
61
330
5
100
AcDbSymbolTableRecord
100
AcDbLinetypeTableRecord
  2
CENTERX2
 70
     0
  3
Center (2x) ________  __  ________  __  _____
 72
    65
 73
     4
 40
20.32
 49
12.7
 74
     0
 49
-2.54
 74
     0
 49
2.54
 74
     0
 49
-2.54
 74
     0
  0
LTYPE
  5
62
330
5
100
AcDbSymbolTableRecord
100
AcDbLinetypeTableRecord
  2
DOT2
 70
     0
  3
Dot (.5x) ........................................
 72
    65
 73
     2
 40
0.635
 49
0.0
 74
     0
 49
-0.635
 74
     0
  0
ENDTAB
  0
TABLE
  2
LAYER
  5
2
330
0
100
AcDbSymbolTable
 70
    14
  0
LAYER
  5
10
330
2
100
AcDbSymbolTableRecord
100
AcDbLayerTableRecord
  2
0
 70
     0
 62
     7
  6
Continuous
370
    -3
390
F
  0
LAYER
  5
63
330
2
100
AcDbSymbolTableRecord
100
AcDbLayerTableRecord
  2
SLD-0
 70
     0
 62
     7
  6
Continuous
370
    -3
390
F
  0
LAYER
  5
64
330
2
100
AcDbSymbolTableRecord
100
AcDbLayerTableRecord
  2
5
 70
     0
 62
     7
  6
Continuous
370
    -3
390
F
  0
LAYER
  5
65
330
2
100
AcDbSymbolTableRecord
100
AcDbLayerTableRecord
  2
9
 70
     0
 62
     7
  6
Continuous
370
    -3
390
F
  0
LAYER
  5
66
330
2
100
AcDbSymbolTableRecord
100
AcDbLayerTableRecord
  2
10
 70
     0
 62
     7
  6
Continuous
370
    -3
390
F
  0
LAYER
  5
67
330
2
100
AcDbSymbolTableRecord
100
AcDbLayerTableRecord
  2
轮廓实线层
 70
     0
 62
     7
  6
Continuous
370
    50
390
F
  0
LAYER
  5
68
330
2
100
AcDbSymbolTableRecord
100
AcDbLayerTableRecord
  2
细线层
 70
     0
 62
     4
  6
Continuous
370
    25
390
F
  0
LAYER
  5
69
330
2
100
AcDbSymbolTableRecord
100
AcDbLayerTableRecord
  2
中心线层
 70
     0
 62
     1
  6
CENTERX2
370
    25
390
F
  0
LAYER
  5
6A
330
2
100
AcDbSymbolTableRecord
100
AcDbLayerTableRecord
  2
虚线层
 70
     0
 62
     6
  6
HIDDEN
370
    25
390
F
  0
LAYER
  5
6B
330
2
100
AcDbSymbolTableRecord
100
AcDbLayerTableRecord
  2
剖面线层
 70
     0
 62
     2
  6
Continuous
370
    25
390
F
  0
LAYER
  5
6C
330
2
100
AcDbSymbolTableRecord
100
AcDbLayerTableRecord
  2
文字层
 70
     0
 62
     3
  6
Continuous
370
    25
390
F
  0
LAYER
  5
6D
330
2
100
AcDbSymbolTableRecord
100
AcDbLayerTableRecord
  2
标注层
 70
     0
 62
     4
  6
Continuous
370
    25
390
F
  0
LAYER
  5
6E
330
2
100
AcDbSymbolTableRecord
100
AcDbLayerTableRecord
  2
符号标注层
 70
     0
 62
    31
  6
Continuous
370
    25
390
F
  0
LAYER
  5
6F
330
2
100
AcDbSymbolTableRecord
100
AcDbLayerTableRecord
  2
双点划线层
 70
     0
 62
     6
  6
PHANTOM
370
    25
390
F
  0
ENDTAB
  0
TABLE
  2
STYLE
  5
3
330
0
100
AcDbSymbolTable
 70
     1
  0
STYLE
  5
11
330
3
100
AcDbSymbolTableRecord
100
AcDbTextStyleTableRecord
  2
Standard
 70
     0
 40
0.0
 41
1.0
 50
0.0
 71
     0
 42
3.5
  3
txt
  4

  0
ENDTAB
  0
TABLE
  2
VIEW
  5
6
330
0
100
AcDbSymbolTable
 70
     0
  0
ENDTAB
  0
TABLE
  2
UCS
  5
7
330
0
100
AcDbSymbolTable
 70
     0
  0
ENDTAB
  0
TABLE
  2
APPID
  5
9
330
0
100
AcDbSymbolTable
 70
     1
  0
APPID
  5
12
330
9
100
AcDbSymbolTableRecord
100
AcDbRegAppTableRecord
  2
ACAD
 70
     0
  0
ENDTAB
  0
TABLE
  2
DIMSTYLE
  5
A
330
0
100
AcDbSymbolTable
 70
     1
100
AcDbDimStyleTable
  0
DIMSTYLE
105
27
330
A
100
AcDbSymbolTableRecord
100
AcDbDimStyleTableRecord
  2
ISO-25
 70
     0
 41
2.5
 42
0.625
 43
3.75
 44
1.25
 73
     0
 74
     0
 77
     1
 78
     8
140
2.5
141
2.5
143
0.0393700787
147
0.625
171
     3
172
     1
178
     0
271
     2
272
     2
274
     3
278
    44
283
     0
284
     8
340
11
  0
ENDTAB
  0
TABLE
  2
BLOCK_RECORD
  5
1
330
0
100
AcDbSymbolTable
 70
     1
  0
BLOCK_RECORD
  5
1F
330
1
100
AcDbSymbolTableRecord
100
AcDbBlockTableRecord
  2
*Model_Space
340
22
  0
BLOCK_RECORD
  5
1B
330
1
100
AcDbSymbolTableRecord
100
AcDbBlockTableRecord
  2
*Paper_Space
340
1E
  0
BLOCK_RECORD
  5
23
330
1
100
AcDbSymbolTableRecord
100
AcDbBlockTableRecord
  2
*Paper_Space0
340
26
  0
ENDTAB
  0
ENDSEC
  0
SECTION
  2
BLOCKS
  0
BLOCK
  5
20
330
1F
100
AcDbEntity
  8
0
100
AcDbBlockBegin
  2
*Model_Space
 70
     0
 10
0.0
 20
0.0
 30
0.0
  3
*Model_Space
  1

  0
ENDBLK
  5
21
330
1F
100
AcDbEntity
  8
0
100
AcDbBlockEnd
  0
BLOCK
  5
1C
330
1B
100
AcDbEntity
 67
     1
  8
0
100
AcDbBlockBegin
  2
*Paper_Space
 70
     0
 10
0.0
 20
0.0
 30
0.0
  3
*Paper_Space
  1

  0
ENDBLK
  5
1D
330
1B
100
AcDbEntity
 67
     1
  8
0
100
AcDbBlockEnd
  0
BLOCK
  5
24
330
23
100
AcDbEntity
  8
0
100
AcDbBlockBegin
  2
*Paper_Space0
 70
     0
 10
0.0
 20
0.0
 30
0.0
  3
*Paper_Space0
  1

  0
ENDBLK
  5
25
330
23
100
AcDbEntity
  8
0
100
AcDbBlockEnd
  0
ENDSEC
  0
SECTION
  2
ENTITIES
  0
SPLINE
  5
70
330
1F
100
AcDbEntity
  8
0
  6
Continuous
 62
     7
370
    25
100
AcDbSpline
210
0.0
220
0.0
230
1.0
 70
     8
 71
     3
 72
     9
 73
     5
 74
     0
 42
0.00000001
 43
0.00000001
 40
0.0
 40
0.0
 40
0.0
 40
0.0
 40
0.5
 40
1.0
 40
1.0
 40
1.0
 40
1.0
 10
38.73188418971331
 20
105.1755986365903
 30
0.0
 10
51.08597190265608
 20
73.012675211675
 30
0.0
 10
83.00000000108771
 20
30.02187767029505
 30
0.0
 10
114.914028099519
 20
73.012675211675
 30
0.0
 10
127.2681158124621
 20
105.1755986365903
 30
0.0
  0
SPLINE
  5
71
330
1F
100
AcDbEntity
  8
0
  6
Continuous
 62
     7
370
    25
100
AcDbSpline
210
0.0
220
0.0
230
1.0
 70
     8
 71
     3
 72
    22
 73
    18
 74
     0
 42
0.00000001
 43
0.00000001
 40
0.0
 40
0.0
 40
0.0
 40
0.0
 40
0.125
 40
0.125
 40
0.25
 40
0.25
 40
0.375
 40
0.375
 40
0.5
 40
0.5
 40
0.625
 40
0.625
 40
0.75
 40
0.75
 40
0.875
 40
0.875
 40
1.0
 40
1.0
 40
1.0
 40
1.0
 10
127.2681158124622
 20
105.1755986365902
 30
0.0
 10
127.3940422555044
 20
105.5034385094202
 30
0.0
 10
127.5851048991915
 20
105.8061109198054
 30
0.0
 10
128.0687044014503
 20
106.3155000898049
 30
0.0
 10
128.3610509842687
 20
106.5220164265327
 30
0.0
 10
129.0027734623233
 20
106.8075651373638
 30
0.0
 10
129.3518968671673
 20
106.8864851602427
 30
0.0
 10
130.0540458909626
 20
106.9047212091866
 30
0.0
 10
130.4067952442562
 20
106.8440300601451
 30
0.0
 10
131.0624749899161
 20
106.5921771740606
 30
0.0
 10
131.3651474003013
 20
106.4011145303735
 30
0.0
 10
131.8745365703008
 20
105.9175150281147
 30
0.0
 10
132.0810529070287
 20
105.6251684452963
 30
0.0
 10
132.3666016178597
 20
104.9834459672417
 30
0.0
 10
132.4455216407386
 20
104.6343225623977
 30
0.0
 10
132.4637576896826
 20
103.9321735386024
 30
0.0
 10
132.403066540641
 20
103.5794241853088
 30
0.0
 10
132.2771400975987
 20
103.2515843124788
 30
0.0
  0
SPLINE
  5
72
330
1F
100
AcDbEntity
  8
0
  6
Continuous
 62
     7
370
    25
100
AcDbSpline
210
0.0
220
0.0
230
1.0
 70
     8
 71
     3
 72
    22
 73
    18
 74
     0
 42
0.00000001
 43
0.00000001
 40
0.0
 40
0.0
 40
0.0
 40
0.0
 40
0.125
 40
0.125
 40
0.25
 40
0.25
 40
0.375
 40
0.375
 40
0.5
 40
0.5
 40
0.625
 40
0.625
 40
0.75
 40
0.75
 40
0.875
 40
0.875
 40
1.0
 40
1.0
 40
1.0
 40
1.0
 10
33.72285990457663
 20
103.2515843124788
 30
0.0
 10
33.59693346153434
 20
103.5794241853088
 30
0.0
 10
33.53624231249281
 20
103.9321735386024
 30
0.0
 10
33.55447836143677
 20
104.6343225623977
 30
0.0
 10
33.63339838431569
 20
104.9834459672417
 30
0.0
 10
33.91894709514667
 20
105.6251684452963
 30
0.0
 10
34.12546343187452
 20
105.9175150281147
 30
0.0
 10
34.63485260187402
 20
106.4011145303735
 30
0.0
 10
34.93752501225922
 20
106.5921771740606
 30
0.0
 10
35.59320475791914
 20
106.8440300601451
 30
0.0
 10
35.9459541112128
 20
106.9047212091867
 30
0.0
 10
36.6481031350081
 20
106.8864851602427
 30
0.0
 10
36.99722653985208
 20
106.8075651373638
 30
0.0
 10
37.6389490179067
 20
106.5220164265327
 30
0.0
 10
37.93129560072506
 20
106.3155000898049
 30
0.0
 10
38.41489510298391
 20
105.8061109198054
 30
0.0
 10
38.60595774667093
 20
105.5034385094202
 30
0.0
 10
38.73188418971321
 20
105.1755986365902
 30
0.0
  0
LINE
  5
73
330
1F
100
AcDbEntity
  8
0
  6
Continuous
 62
     7
370
    25
100
AcDbLine
 10
132.2771400976
 20
103.2515843125
 30
0.0
 11
104.3014082617
 21
30.4189040126
 31
0.0
  0
SPLINE
  5
74
330
1F
100
AcDbEntity
  8
0
  6
Continuous
 62
     7
370
    25
100
AcDbSpline
210
0.0
220
0.0
230
1.0
 70
     8
 71
     3
 72
     8
 73
     4
 74
     0
 42
0.00000001
 43
0.00000001
 40
0.0
 40
0.0
 40
0.0
 40
0.0
 40
1.0
 40
1.0
 40
1.0
 40
1.0
 10
104.301408261732
 20
30.41890401263973
 30
0.0
 10
104.5514640235667
 20
31.06990508263525
 30
0.0
 10
103.7184824609472
 20
31.39540561763302
 30
0.0
 10
101.8024635738733
 20
31.39540561763302
 30
0.0
  0
SPLINE
  5
75
330
1F
100
AcDbEntity
  8
0
  6
Continuous
 62
     7
370
    25
100
AcDbSpline
210
0.0
220
0.0
230
1.0
 70
     8
 71
     3
 72
     8
 73
     4
 74
     0
 42
0.00000001
 43
0.00000001
 40
0.0
 40
0.0
 40
0.0
 40
0.0
 40
1.0
 40
1.0
 40
1.0
 40
1.0
 10
64.19753642830361
 20
31.39540561763302
 30
0.0
 10
62.28151754122297
 20
31.39540561763302
 30
0.0
 10
61.44853597860286
 20
31.06990508263525
 30
0.0
 10
61.69859174044329
 20
30.41890401263973
 30
0.0
  0
LINE
  5
76
330
1F
100
AcDbEntity
  8
0
  6
Continuous
 62
     7
370
    25
100
AcDbLine
 10
61.6985917404
 20
30.4189040126
 30
0.0
 11
33.7228599046
 21
103.2515843125
 31
0.0
  0
LINE
  5
77
330
1F
100
AcDbEntity
  8
0
  6
Continuous
 62
     7
370
    25
100
AcDbLine
 10
104.3014082617
 20
30.4189040126
 30
0.0
 11
95.6744844783
 21
7.9593670978
 31
0.0
  0
SPLINE
  5
78
330
1F
100
AcDbEntity
  8
0
  6
Continuous
 62
     7
370
    25
100
AcDbSpline
210
0.0
220
0.0
230
1.0
 70
     8
 71
     3
 72
     8
 73
     4
 74
     0
 42
0.00000001
 43
0.00000001
 40
0.0
 40
0.0
 40
0.0
 40
0.0
 40
1.0
 40
1.0
 40
1.0
 40
1.0
 10
92.42537250495772
 20
6.982865492800632
 30
0.0
 10
94.34139139203671
 20
6.982865492800632
 30
0.0
 10
95.42442871649472
 20
7.308366027798482
 30
0.0
 10
95.67448447833173
 20
7.959367097793907
 30
0.0
  0
LINE
  5
79
330
1F
100
AcDbEntity
  8
0
  6
Continuous
 62
     7
370
    25
100
AcDbLine
 10
92.425372505
 20
6.9828654928
 30
0.0
 11
73.5746274972
 21
6.9828654928
 31
0.0
  0
SPLINE
  5
7A
330
1F
100
AcDbEntity
  8
0
  6
Continuous
 62
     7
370
    25
100
AcDbSpline
210
0.0
220
0.0
230
1.0
 70
     8
 71
     3
 72
     8
 73
     4
 74
     0
 42
0.00000001
 43
0.00000001
 40
0.0
 40
0.0
 40
0.0
 40
0.0
 40
1.0
 40
1.0
 40
1.0
 40
1.0
 10
70.32551552384355
 20
7.959367097793907
 30
0.0
 10
70.57557128568948
 20
7.308366027798482
 30
0.0
 10
71.65860861015096
 20
6.982865492800632
 30
0.0
 10
73.57462749722798
 20
6.982865492800632
 30
0.0
  0
LINE
  5
7B
330
1F
100
AcDbEntity
  8
0
  6
Continuous
 62
     7
370
    25
100
AcDbLine
 10
70.3255155238
 20
7.9593670978
 30
0.0
 11
61.6985917404
 21
30.4189040126
 31
0.0
  0
LINE
  5
7C
330
1F
100
AcDbEntity
  8
0
  6
Continuous
 62
     7
370
    25
100
AcDbLine
 10
101.8024635739
 20
31.3954056176
 30
0.0
 11
64.1975364283
 21
31.3954056176
 31
0.0
  0
LINE
  5
7D
330
1F
100
AcDbEntity
  8
0
  6
Continuous
 62
     7
370
    25
100
AcDbLine
 10
33.5444559374
 20
188.847928765
 30
0.0
 11
33.5444559374
 21
127.14085824
 31
0.0
  0
LINE
  5
7E
330
1F
100
AcDbEntity
  8
0
  6
Continuous
 62
     7
370
    25
100
AcDbLine
 10
132.4555440648
 20
127.14085824
 30
0.0
 11
132.4555440648
 21
188.847928765
 31
0.0
  0
SPLINE
  5
7F
330
1F
100
AcDbEntity
  8
0
  6
Continuous
 62
     7
370
    25
100
AcDbSpline
210
0.0
220
0.0
230
1.0
 70
     8
 71
     3
 72
    13
 73
     9
 74
     0
 42
0.00000001
 43
0.00000001
 40
0.0
 40
0.0
 40
0.0
 40
0.0
 40
0.2732963216010194
 40
0.3900341440190547
 40
0.5001694146273686
 40
0.6102793934667511
 40
0.7269458047704898
 40
1.0
 40
1.0
 40
1.0
 40
1.0
 10
33.54690309587911
 20
127.1408582400397
 30
0.0
 10
33.56985847687962
 20
126.7414931582572
 30
0.0
 10
33.60261918996468
 20
126.1715403066724
 30
0.0
 10
33.902651580083
 20
125.5041672525944
 30
0.0
 10
34.20251531751791
 20
125.1139923144429
 30
0.0
 10
34.59235433038499
 20
124.813876151185
 30
0.0
 10
35.25906904561778
 20
124.5136441617409
 30
0.0
 10
35.82844439311054
 20
124.4808906088956
 30
0.0
 10
36.2273720471449
 20
124.4579421302594
 30
0.0
  0
SPLINE
  5
80
330
1F
100
AcDbEntity
  8
0
  6
Continuous
 62
     7
370
    25
100
AcDbSpline
210
0.0
220
0.0
230
1.0
 70
     8
 71
     3
 72
    13
 73
     9
 74
     0
 42
0.00000001
 43
0.00000001
 40
0.0
 40
0.0
 40
0.0
 40
0.0
 40
0.2730541952294902
 40
0.3897206065332265
 40
0.4998305853726072
 40
0.6099658559809283
 40
0.72670367839897
 40
1.0
 40
1.0
 40
1.0
 40
1.0
 10
129.7726279550305
 20
124.4579421302594
 30
0.0
 10
130.1715556090648
 20
124.4808906088956
 30
0.0
 10
130.7409309565575
 20
124.513644161741
 30
0.0
 10
131.4076456717902
 20
124.813876151185
 30
0.0
 10
131.7974846846573
 20
125.1139923144429
 30
0.0
 10
132.0973484220922
 20
125.5041672525944
 30
0.0
 10
132.3973808122106
 20
126.1715403066725
 30
0.0
 10
132.4301415252957
 20
126.7414931582572
 30
0.0
 10
132.4530969062963
 20
127.1408582400397
 30
0.0
  0
SPLINE
  5
81
330
1F
100
AcDbEntity
  8
0
  6
Continuous
 62
     7
370
    25
100
AcDbSpline
210
0.0
220
0.0
230
1.0
 70
     8
 71
     3
 72
    13
 73
     9
 74
     0
 42
0.00000001
 43
0.00000001
 40
0.0
 40
0.0
 40
0.0
 40
0.0
 40
0.2733379829973505
 40
0.3900986718905907
 40
0.5002519876561226
 40
0.6103697935779752
 40
0.7270282019585533
 40
1.0
 40
1.0
 40
1.0
 40
1.0
 10
36.2273720471449
 20
191.530844874766
 30
0.0
 10
35.82826702440599
 20
191.5079040690663
 30
0.0
 10
35.25867791129389
 20
191.4751637314907
 30
0.0
 10
34.59018164789416
 20
191.174962362257
 30
0.0
 10
34.19897761918803
 20
190.8748906124114
 30
0.0
 10
33.89775934053532
 20
190.4847337627693
 30
0.0
 10
33.59611820405936
 20
189.8174644107314
 30
0.0
 10
33.56293235106404
 20
189.2473478532192
 30
0.0
 10
33.53968260858422
 20
188.8479287649858
 30
0.0
  0
SPLINE
  5
82
330
1F
100
AcDbEntity
  8
0
  6
Continuous
 62
     7
370
    25
100
AcDbSpline
210
0.0
220
0.0
230
1.0
 70
     8
 71
     3
 72
    13
 73
     9
 74
     0
 42
0.00000001
 43
0.00000001
 40
0.0
 40
0.0
 40
0.0
 40
0.0
 40
0.2729716093445593
 40
0.3896299223870149
 40
0.4997476646383369
 40
0.6099009720991582
 40
0.7266617191851277
 40
1.0
 40
1.0
 40
1.0
 40
1.0
 10
132.4603173934531
 20
188.8479287649858
 30
0.0
 10
132.4370684386477
 20
189.2473478316026
 30
0.0
 10
132.4038837112025
 20
189.8174643367568
 30
0.0
 10
132.1022431759174
 20
190.4847338180983
 30
0.0
 10
131.8010249434096
 20
190.8748907015811
 30
0.0
 10
131.4098206301366
 20
191.1749624387123
 30
0.0
 10
130.7413234563294
 20
191.4751638006713
 30
0.0
 10
130.1717335818616
 20
191.5079040951821
 30
0.0
 10
129.7726279550305
 20
191.530844874766
 30
0.0
  0
SPLINE
  5
83
330
1F
100
AcDbEntity
  8
0
  6
Continuous
 62
     7
370
    25
100
AcDbSpline
210
0.0
220
0.0
230
1.0
 70
    24
 71
     3
 72
    66
 73
    62
 74
     0
 42
0.00000001
 43
0.00000001
 40
0.0
 40
0.0
 40
0.0
 40
0.0
 40
0.0625
 40
0.125
 40
0.15625
 40
0.1875
 40
0.203125
 40
0.21875
 40
0.234375
 40
0.2421875
 40
0.24609375
 40
0.25
 40
0.25390625
 40
0.2578125
 40
0.265625
 40
0.28125
 40
0.3125
 40
0.34375
 40
0.359375
 40
0.3671875
 40
0.37109375
 40
0.375
 40
0.37890625
 40
0.3828125
 40
0.390625
 40
0.40625
 40
0.421875
 40
0.4375
 40
0.46875
 40
0.484375
 40
0.5
 40
0.515625
 40
0.53125
 40
0.546875
 40
0.5625
 40
0.5703125
 40
0.578125
 40
0.59375
 40
0.609375
 40
0.6171875
 40
0.625
 40
0.6328125
 40
0.640625
 40
0.65625
 40
0.6875
 40
0.703125
 40
0.71875
 40
0.734375
 40
0.7421875
 40
0.74609375
 40
0.75
 40
0.75390625
 40
0.7578125
 40
0.765625
 40
0.78125
 40
0.796875
 40
0.8125
 40
0.84375
 40
0.875
 40
0.9375
 40
1.0
 40
1.0
 40
1.0
 40
1.0
 10
36.2273720471449
 20
191.530844874766
 30
0.0
 10
37.5366790043629
 20
191.530844874766
 30
0.0
 10
40.20911096415937
 20
191.530844874766
 30
0.0
 10
43.68411645101504
 20
191.530844874766
 30
0.0
 10
46.54494340009226
 20
191.530844874766
 30
0.0
 10
48.36633789866531
 20
191.530844874766
 30
0.0
 10
49.84420821384068
 20
191.530844874766
 30
0.0
 10
50.96112025491284
 20
191.530844874766
 30
0.0
 10
51.90531261219402
 20
191.530844874766
 30
0.0
 10
52.56079991008148
 20
191.530844874766
 30
0.0
 10
52.95202270732008
 20
191.530844874766
 30
0.0
 10
53.20269531347289
 20
191.530844874766
 30
0.0
 10
53.61979990850908
 20
191.530844874766
 30
0.0
 10
54.11865924304271
 20
191.530844874766
 30
0.0
 10
55.02019884262779
 20
191.530844874766
 30
0.0
 10
56.81038875296645
 20
191.530844874766
 30
0.0
 10
59.39756165407346
 20
191.530844874766
 30
0.0
 10
62.00003812008442
 20
191.530844874766
 30
0.0
 10
63.8456542982937
 20
191.530844874766
 30
0.0
 10
64.75744044563471
 20
191.530844874766
 30
0.0
 10
65.3021781145744
 20
191.530844874766
 30
0.0
 10
65.64684648426653
 20
191.530844874766
 30
0.0
 10
66.2379405631632
 20
191.530844874766
 30
0.0
 10
66.94018515541828
 20
191.530844874766
 30
0.0
 10
68.20930214602099
 20
191.530844874766
 30
0.0
 10
70.00189580727667
 20
191.530844874766
 30
0.0
 10
72.16240341166511
 20
191.530844874766
 30
0.0
 10
75.04222660890751
 20
191.530844874766
 30
0.0
 10
77.91688435487097
 20
191.530844874766
 30
0.0
 10
80.81405615025139
 20
191.530844874766
 30
0.0
 10
82.93093578893817
 20
191.530844874766
 30
0.0
 10
85.26480689372625
 20
191.530844874766
 30
0.0
 10
87.54230268550913
 20
191.530844874766
 30
0.0
 10
89.8499693904092
 20
191.530844874766
 30
0.0
 10
91.73748563427097
 20
191.530844874766
 30
0.0
 10
93.32853816093264
 20
191.530844874766
 30
0.0
 10
94.63469459974807
 20
191.530844874766
 30
0.0
 10
96.29659439335954
 20
191.530844874766
 30
0.0
 10
97.95524904165116
 20
191.530844874766
 30
0.0
 10
99.25082611968763
 20
191.530844874766
 30
0.0
 10
100.3066672422293
 20
191.530844874766
 30
0.0
 10
101.0336626323668
 20
191.530844874766
 30
0.0
 10
102.1146763137828
 20
191.530844874766
 30
0.0
 10
103.9468466801122
 20
191.530844874766
 30
0.0
 10
106.0495113716039
 20
191.530844874766
 30
0.0
 10
108.1291322802848
 20
191.530844874766
 30
0.0
 10
109.6843285574777
 20
191.530844874766
 30
0.0
 10
110.9689389060636
 20
191.530844874766
 30
0.0
 10
111.8751274192098
 20
191.530844874766
 30
0.0
 10
112.3763199057925
 20
191.530844874766
 30
0.0
 10
112.7960579587689
 20
191.530844874766
 30
0.0
 10
113.0460320595804
 20
191.530844874766
 30
0.0
 10
113.4374871247302
 20
191.530844874766
 30
0.0
 10
114.0928421312527
 20
191.530844874766
 30
0.0
 10
115.0371368916146
 20
191.530844874766
 30
0.0
 10
116.1540637566579
 20
191.530844874766
 30
0.0
 10
117.6320137024186
 20
191.530844874766
 30
0.0
 10
119.4535261119956
 20
191.530844874766
 30
0.0
 10
122.3146199433847
 20
191.530844874766
 30
0.0
 10
125.7900877093135
 20
191.530844874766
 30
0.0
 10
128.4630305859276
 20
191.530844874766
 30
0.0
 10
129.7726279550302
 20
191.530844874766
 30
0.0
  0
SPLINE
  5
84
330
1F
100
AcDbEntity
  8
0
  6
Continuous
 62
     7
370
    25
100
AcDbSpline
210
0.0
220
0.0
230
1.0
 70
    24
 71
     3
 72
    66
 73
    62
 74
     0
 42
0.00000001
 43
0.00000001
 40
0.0
 40
0.0
 40
0.0
 40
0.0
 40
0.0625
 40
0.125
 40
0.15625
 40
0.1875
 40
0.203125
 40
0.21875
 40
0.234375
 40
0.2421875
 40
0.24609375
 40
0.25
 40
0.25390625
 40
0.2578125
 40
0.265625
 40
0.28125
 40
0.3125
 40
0.34375
 40
0.359375
 40
0.3671875
 40
0.37109375
 40
0.375
 40
0.37890625
 40
0.3828125
 40
0.390625
 40
0.40625
 40
0.421875
 40
0.4375
 40
0.46875
 40
0.484375
 40
0.5
 40
0.515625
 40
0.53125
 40
0.546875
 40
0.5625
 40
0.5703125
 40
0.578125
 40
0.59375
 40
0.609375
 40
0.6171875
 40
0.625
 40
0.6328125
 40
0.640625
 40
0.65625
 40
0.6875
 40
0.703125
 40
0.71875
 40
0.734375
 40
0.7421875
 40
0.74609375
 40
0.75
 40
0.75390625
 40
0.7578125
 40
0.765625
 40
0.78125
 40
0.796875
 40
0.8125
 40
0.84375
 40
0.875
 40
0.9375
 40
1.0
 40
1.0
 40
1.0
 40
1.0
 10
129.7726279550302
 20
124.4579421302594
 30
0.0
 10
128.4633209977328
 20
124.4579421302594
 30
0.0
 10
125.7908890378167
 20
124.4579421302594
 30
0.0
 10
122.3158835509111
 20
124.4579421302594
 30
0.0
 10
119.455056601854
 20
124.4579421302594
 30
0.0
 10
117.6336621033182
 20
124.4579421302594
 30
0.0
 10
116.1557917881879
 20
124.4579421302594
 30
0.0
 10
115.0388797471568
 20
124.4579421302594
 30
0.0
 10
114.0946873899154
 20
124.4579421302594
 30
0.0
 10
113.4392000920606
 20
124.4579421302594
 30
0.0
 10
113.0479772948395
 20
124.4579421302594
 30
0.0
 10
112.7973046887065
 20
124.4579421302594
 30
0.0
 10
112.3802000936668
 20
124.4579421302594
 30
0.0
 10
111.8813407591364
 20
124.4579421302594
 30
0.0
 10
110.9798011595535
 20
124.4579421302594
 30
0.0
 10
109.1896112492198
 20
124.4579421302594
 30
0.0
 10
106.6024383481149
 20
124.4579421302594
 30
0.0
 10
103.9999618821015
 20
124.4579421302594
 30
0.0
 10
102.1543457038878
 20
124.4579421302594
 30
0.0
 10
101.242559556544
 20
124.4579421302594
 30
0.0
 10
100.6978218876023
 20
124.4579421302594
 30
0.0
 10
100.3531535179091
 20
124.4579421302594
 30
0.0
 10
99.76205943900958
 20
124.4579421302594
 30
0.0
 10
99.05981484675156
 20
124.4579421302594
 30
0.0
 10
97.7906978561439
 20
124.4579421302594
 30
0.0
 10
95.99810419488294
 20
124.4579421302594
 30
0.0
 10
93.8375965904907
 20
124.4579421302594
 30
0.0
 10
90.95777339324636
 20
124.4579421302594
 30
0.0
 10
88.08311564728771
 20
124.4579421302594
 30
0.0
 10
85.18594385191255
 20
124.4579421302594
 30
0.0
 10
83.06906421324453
 20
124.4579421302594
 30
0.0
 10
80.73519310843109
 20
124.4579421302594
 30
0.0
 10
78.45769731664483
 20
124.4579421302594
 30
0.0
 10
76.15003061174691
 20
124.4579421302594
 30
0.0
 10
74.26251436789104
 20
124.4579421302594
 30
0.0
 10
72.67146184124626
 20
124.4579421302594
 30
0.0
 10
71.36530540242025
 20
124.4579421302594
 30
0.0
 10
69.70340560880425
 20
124.4579421302594
 30
0.0
 10
68.04475096051377
 20
124.4579421302594
 30
0.0
 10
66.74917388248133
 20
124.4579421302594
 30
0.0
 10
65.69333275994767
 20
124.4579421302594
 30
0.0
 10
64.96633736980868
 20
124.4579421302594
 30
0.0
 10
63.88532368839392
 20
124.4579421302594
 30
0.0
 10
62.05315332206499
 20
124.4579421302594
 30
0.0
 10
59.95048863057385
 20
124.4579421302594
 30
0.0
 10
57.87086772189274
 20
124.4579421302594
 30
0.0
 10
56.31567144469943
 20
124.4579421302594
 30
0.0
 10
55.03106109611281
 20
124.4579421302594
 30
0.0
 10
54.12487258296641
 20
124.4579421302594
 30
0.0
 10
53.62368009638257
 20
124.4579421302594
 30
0.0
 10
53.20394204340749
 20
124.4579421302594
 30
0.0
 10
52.9539679425904
 20
124.4579421302594
 30
0.0
 10
52.5625128774352
 20
124.4579421302594
 30
0.0
 10
51.90715787090336
 20
124.4579421302594
 30
0.0
 10
50.96286311052992
 20
124.4579421302594
 30
0.0
 10
49.84593624547457
 20
124.4579421302594
 30
0.0
 10
48.36798629970068
 20
124.4579421302594
 30
0.0
 10
46.54647389011299
 20
124.4579421302594
 30
0.0
 10
43.68538005871798
 20
124.4579421302594
 30
0.0
 10
40.20991229280367
 20
124.4579421302594
 30
0.0
 10
37.53696941622441
 20
124.4579421302594
 30
0.0
 10
36.2273720471449
 20
124.4579421302594
 30
0.0
  0
LINE
  5
85
330
1F
100
AcDbEntity
  8
0
  6
HIDDEN
 62
     7
370
    18
100
AcDbLine
 10
104.3014082617
 20
127.14085824
 30
0.0
 11
95.6744844783
 21
188.847928765
 31
0.0
  0
LINE
  5
86
330
1F
100
AcDbEntity
  8
0
  6
HIDDEN
 62
     7
370
    18
100
AcDbLine
 10
70.3255155238
 20
188.847928765
 30
0.0
 11
61.6985917404
 21
127.14085824
 31
0.0
  0
SPLINE
  5
87
330
1F
100
AcDbEntity
  8
0
  6
HIDDEN
 62
     7
370
    18
100
AcDbSpline
210
0.0
220
0.0
230
1.0
 70
     8
 71
     3
 72
     8
 73
     4
 74
     0
 42
0.00000001
 43
0.00000001
 40
0.0
 40
0.0
 40
0.0
 40
0.0
 40
1.0
 40
1.0
 40
1.0
 40
1.0
 10
104.301408261732
 20
127.1408582400397
 30
0.0
 10
104.5514640235667
 20
125.3522475001861
 30
0.0
 10
103.7184824609472
 20
124.4579421302594
 30
0.0
 10
101.8024635738733
 20
124.4579421302594
 30
0.0
  0
SPLINE
  5
88
330
1F
100
AcDbEntity
  8
0
  6
HIDDEN
 62
     7
370
    18
100
AcDbSpline
210
0.0
220
0.0
230
1.0
 70
     8
 71
     3
 72
     8
 73
     4
 74
     0
 42
0.00000001
 43
0.00000001
 40
0.0
 40
0.0
 40
0.0
 40
0.0
 40
1.0
 40
1.0
 40
1.0
 40
1.0
 10
64.19753642830361
 20
124.4579421302594
 30
0.0
 10
62.28151754122297
 20
124.4579421302594
 30
0.0
 10
61.44853597860286
 20
125.3522475001861
 30
0.0
 10
61.69859174044329
 20
127.1408582400397
 30
0.0
  0
SPLINE
  5
89
330
1F
100
AcDbEntity
  8
0
  6
HIDDEN
 62
     7
370
    18
100
AcDbSpline
210
0.0
220
0.0
230
1.0
 70
     8
 71
     3
 72
     8
 73
     4
 74
     0
 42
0.00000001
 43
0.00000001
 40
0.0
 40
0.0
 40
0.0
 40
0.0
 40
1.0
 40
1.0
 40
1.0
 40
1.0
 10
92.42537250495772
 20
191.5308448747661
 30
0.0
 10
94.34139139203671
 20
191.5308448747661
 30
0.0
 10
95.42442871649472
 20
190.6365395048393
 30
0.0
 10
95.67448447833173
 20
188.8479287649858
 30
0.0
  0
SPLINE
  5
8A
330
1F
100
AcDbEntity
  8
0
  6
HIDDEN
 62
     7
370
    18
100
AcDbSpline
210
0.0
220
0.0
230
1.0
 70
     8
 71
     3
 72
     8
 73
     4
 74
     0
 42
0.00000001
 43
0.00000001
 40
0.0
 40
0.0
 40
0.0
 40
0.0
 40
1.0
 40
1.0
 40
1.0
 40
1.0
 10
70.32551552384355
 20
188.8479287649858
 30
0.0
 10
70.57557128568948
 20
190.6365395048393
 30
0.0
 10
71.65860861015096
 20
191.530844874766
 30
0.0
 10
73.57462749722798
 20
191.530844874766
 30
0.0
  0
LINE
  5
8B
330
1F
100
AcDbEntity
  8
0
  6
Continuous
 62
     7
370
    25
100
AcDbLine
 10
253.847928765
 20
106.8965075843
 30
0.0
 11
192.14085824
 21
106.8965075843
 31
0.0
  0
SPLINE
  5
8C
330
1F
100
AcDbEntity
  8
0
  6
Continuous
 62
     7
370
    25
100
AcDbSpline
210
0.0
220
0.0
230
1.0
 70
     8
 71
     3
 72
    14
 73
    10
 74
     0
 42
0.00000001
 43
0.00000001
 40
0.0
 40
0.0
 40
0.0
 40
0.0
 40
0.2265773517644546
 40
0.3363153714448696
 40
0.4452509794810486
 40
0.5578680789657263
 40
0.6815485244479068
 40
0.8256350036664165
 40
1.0
 40
1.0
 40
1.0
 40
1.0
 10
256.530844874766
 20
104.2135914745346
 30
0.0
 10
256.5147318617977
 20
104.5430592678311
 30
0.0
 10
256.490814846706
 20
105.0320979224836
 30
0.0
 10
256.2772616722898
 20
105.6463954412068
 30
0.0
 10
256.030376930175
 20
106.0622484087871
 30
0.0
 10
255.6712486362196
 20
106.4187860209324
 30
0.0
 10
255.186008929268
 20
106.691226122001
 30
0.0
 10
254.5632734515548
 20
106.8667397764391
 30
0.0
 10
254.1010271916142
 20
106.8848774665078
 30
0.0
 10
253.8479287649857
 20
106.8948085816231
 30
0.0
  0
SPLINE
  5
8D
330
1F
100
AcDbEntity
  8
0
  6
Continuous
 62
     7
370
    25
100
AcDbSpline
210
0.0
220
0.0
230
1.0
 70
     8
 71
     3
 72
    13
 73
     9
 74
     0
 42
0.00000001
 43
0.00000001
 40
0.0
 40
0.0
 40
0.0
 40
0.0
 40
0.273315442413481
 40
0.3900609301127062
 40
0.5002003394463261
 40
0.610309610177569
 40
0.7269702096589815
 40
1.0
 40
1.0
 40
1.0
 40
1.0
 10
192.1408582400397
 20
106.8938986031751
 30
0.0
 10
191.7414930803781
 20
106.8709714144383
 30
0.0
 10
191.1715408513471
 20
106.8382509779911
 30
0.0
 10
190.5041736118831
 20
106.5382458278219
 30
0.0
 10
190.1140000631104
 20
106.2383909463304
 30
0.0
 10
189.8138818151056
 20
105.8485524977435
 30
0.0
 10
189.513648645644
 20
105.1818439038777
 30
0.0
 10
189.4808922963647
 20
104.6124955153253
 30
0.0
 10
189.4579421302594
 20
104.2135914745346
 30
0.0
  0
SPLINE
  5
8E
330
1F
100
AcDbEntity
  8
0
  6
Continuous
 62
     7
370
    25
100
AcDbSpline
210
0.0
220
0.0
230
1.0
 70
     8
 71
     3
 72
    13
 73
     9
 74
     0
 42
0.00000001
 43
0.00000001
 40
0.0
 40
0.0
 40
0.0
 40
0.0
 40
0.2733155022533773
 40
0.3900610079560914
 40
0.5002004240168256
 40
0.6103096889021882
 40
0.7269702708386272
 40
1.0
 40
1.0
 40
1.0
 40
1.0
 10
192.1408582400397
 20
106.8938974105405
 30
0.0
 10
191.7414930866622
 20
106.8709702322268
 30
0.0
 10
191.1715408776414
 20
106.8382498112887
 30
0.0
 10
190.5041736324883
 20
106.5382447902612
 30
0.0
 10
190.1140000830515
 20
106.2383900439015
 30
0.0
 10
189.8138818275113
 20
105.8485517661879
 30
0.0
 10
189.5136486534755
 20
105.1818434774816
 30
0.0
 10
189.4808922992935
 20
104.612495334483
 30
0.0
 10
189.4579421302594
 20
104.2135914745346
 30
0.0
  0
LINE
  5
8F
330
1F
100
AcDbEntity
  8
0
  6
Continuous
 62
     7
370
    25
100
AcDbLine
 10
256.5308448748
 20
104.2135914745
 30
0.0
 11
256.5308448748
 21
6.9828654928
 31
0.0
  0
SPLINE
  5
90
330
1F
100
AcDbEntity
  8
0
  6
Continuous
 62
     7
370
    25
100
AcDbSpline
210
0.0
220
0.0
230
1.0
 70
    24
 71
     3
 72
     8
 73
     4
 74
     0
 42
0.00000001
 43
0.00000001
 40
0.0
 40
0.0
 40
0.0
 40
0.0
 40
1.0
 40
1.0
 40
1.0
 40
1.0
 10
256.530844874766
 20
6.982865492800632
 30
0.0
 10
256.530844874766
 20
6.982865492800632
 30
0.0
 10
255.6365395048393
 20
7.308366027798482
 30
0.0
 10
253.8479287649858
 20
7.959367097793907
 30
0.0
  0
LINE
  5
91
330
1F
100
AcDbEntity
  8
0
  6
Continuous
 62
     7
370
    25
100
AcDbLine
 10
192.14085824
 20
30.4189040126
 30
0.0
 11
253.847928765
 21
7.9593670978
 31
0.0
  0
LINE
  5
92
330
1F
100
AcDbEntity
  8
0
  6
Continuous
 62
     7
370
    25
100
AcDbLine
 10
189.4579421303
 20
31.3954056176
 30
0.0
 11
189.4579421303
 21
104.2135914745
 31
0.0
  0
SPLINE
  5
93
330
1F
100
AcDbEntity
  8
0
  6
Continuous
 62
     7
370
    25
100
AcDbSpline
210
0.0
220
0.0
230
1.0
 70
    24
 71
     3
 72
     8
 73
     4
 74
     0
 42
0.00000001
 43
0.00000001
 40
0.0
 40
0.0
 40
0.0
 40
0.0
 40
1.0
 40
1.0
 40
1.0
 40
1.0
 10
192.1408582400397
 20
30.41890401263973
 30
0.0
 10
190.3522475001861
 20
31.06990508263525
 30
0.0
 10
189.4579421302594
 20
31.39540561763302
 30
0.0
 10
189.4579421302594
 20
31.39540561763302
 30
0.0
  0
SPLINE
  5
94
330
1F
100
AcDbEntity
  8
0
  6
HIDDEN
 62
     7
370
    18
100
AcDbSpline
210
0.0
220
0.0
230
1.0
 70
     8
 71
     3
 72
    13
 73
     9
 74
     0
 42
0.00000001
 43
0.00000001
 40
0.0
 40
0.0
 40
0.0
 40
0.0
 40
0.2731754916300585
 40
0.3898770876705322
 40
0.4999990667835241
 40
0.6101211825877408
 40
0.7268231670210509
 40
1.0
 40
1.0
 40
1.0
 40
1.0
 10
253.8479287649857
 20
51.51727771750453
 30
0.0
 10
254.2473066405097
 20
51.49433465333394
 30
0.0
 10
254.8173002444755
 20
51.46159022597814
 30
0.0
 10
255.4846617424604
 20
51.16136984080185
 30
0.0
 10
255.8748350132632
 20
50.86127153456373
 30
0.0
 10
256.1749356159813
 20
50.47110178238029
 30
0.0
 10
256.475158023565
 20
49.80374661602511
 30
0.0
 10
256.5079020680187
 20
49.23375997571912
 30
0.0
 10
256.530844874766
 20
48.83438679029558
 30
0.0
  0
SPLINE
  5
95
330
1F
100
AcDbEntity
  8
0
  6
HIDDEN
 62
     7
370
    18
100
AcDbSpline
210
0.0
220
0.0
230
1.0
 70
     8
 71
     3
 72
    13
 73
     9
 74
     0
 42
0.00000001
 43
0.00000001
 40
0.0
 40
0.0
 40
0.0
 40
0.0
 40
0.2731768329789495
 40
0.3898788174122573
 40
0.5000009332164725
 40
0.6101229123294639
 40
0.7268245083699382
 40
1.0
 40
1.0
 40
1.0
 40
1.0
 10
189.4579421302594
 20
48.83438679029556
 30
0.0
 10
189.4808849370068
 20
49.2337599757191
 30
0.0
 10
189.5136289814605
 20
49.80374661602509
 30
0.0
 10
189.8138513890441
 20
50.47110178238029
 30
0.0
 10
190.1139519917622
 20
50.86127153456373
 30
0.0
 10
190.5041252625651
 20
51.16136984080185
 30
0.0
 10
191.17148676055
 20
51.46159022597814
 30
0.0
 10
191.7414803645157
 20
51.49433465333394
 30
0.0
 10
192.1408582400397
 20
51.51727771750453
 30
0.0
  0
LINE
  5
96
330
1F
100
AcDbEntity
  8
0
  6
HIDDEN
 62
     7
370
    18
100
AcDbLine
 10
192.14085824
 20
51.517276441
 30
0.0
 11
253.847928765
 21
51.517276441
 31
0.0
  0
ENDSEC
  0
SECTION
  2
OBJECTS
  0
DICTIONARY
  5
C
330
0
100
AcDbDictionary
281
     1
  3
ACAD_GROUP
350
D
  3
ACAD_LAYOUT
350
1A
  3
ACAD_MLINESTYLE
350
17
  3
ACAD_PLOTSETTINGS
350
19
  3
ACAD_PLOTSTYLENAME
350
E
  3
ACAD_SCALELIST
350
47
  3
DWGPROPS
350
97
  0
DICTIONARY
  5
D
102
{ACAD_REACTORS
330
C
102
}
330
C
100
AcDbDictionary
281
     1
  0
DICTIONARY
  5
1A
102
{ACAD_REACTORS
330
C
102
}
330
C
100
AcDbDictionary
281
     1
  3
Layout1
350
1E
  3
Layout2
350
26
  3
Model
350
22
  0
DICTIONARY
  5
17
102
{ACAD_REACTORS
330
C
102
}
330
C
100
AcDbDictionary
281
     1
  3
Standard
350
18
  0
DICTIONARY
  5
19
102
{ACAD_REACTORS
330
C
102
}
330
C
100
AcDbDictionary
281
     1
  0
ACDBDICTIONARYWDFLT
  5
E
102
{ACAD_REACTORS
330
C
102
}
330
C
100
AcDbDictionary
281
     1
  3
Normal
350
F
100
AcDbDictionaryWithDefault
340
F
  0
DICTIONARY
  5
47
102
{ACAD_REACTORS
330
C
102
}
330
C
100
AcDbDictionary
281
     1
  3
A0
350
48
  3
A1
350
49
  3
A2
350
4A
  3
A3
350
4B
  3
A4
350
4C
  3
A5
350
4D
  3
A6
350
4E
  3
A7
350
4F
  3
A8
350
50
  3
A9
350
51
  3
B0
350
52
  3
B1
350
53
  3
B2
350
54
  3
B3
350
55
  3
B4
350
56
  3
B5
350
57
  3
B6
350
58
  0
XRECORD
  5
97
102
{ACAD_REACTORS
330
C
102
}
330
C
100
AcDbXrecord
280
     1
  1
DWGPROPS COOKIE
  2

  3

  4

  6

  7

  8

  9

300
=
301
=
302
=
303
=
304
=
305
=
306
=
307
=
308
=
309
=
 40
0.0
 41
2461215.493269804
 42
2461215.493269989
  1

 90
        0
  0
LAYOUT
  5
1E
102
{ACAD_REACTORS
330
1A
102
}
330
1A
100
AcDbPlotSettings
  1

  2
none_device
  4

  6

 40
0.0
 41
0.0
 42
0.0
 43
0.0
 44
0.0
 45
0.0
 46
0.0
 47
0.0
 48
0.0
 49
0.0
140
0.0
141
0.0
142
1.0
143
1.0
 70
   688
 72
     1
 73
     0
 74
     5
  7

 75
    16
147
1.0
148
0.0
149
0.0
100
AcDbLayout
  1
Layout1
 70
     1
 71
     1
 10
0.0
 20
0.0
 11
420.0
 21
297.0
 12
0.0
 22
0.0
 32
0.0
 14
1.0000000000E+20
 24
1.0000000000E+20
 34
1.0000000000E+20
 15
-1.0000000000E+20
 25
-1.0000000000E+20
 35
-1.0000000000E+20
146
0.0
 13
0.0
 23
0.0
 33
0.0
 16
1.0
 26
0.0
 36
0.0
 17
0.0
 27
1.0
 37
0.0
 76
     0
330
1B
  0
LAYOUT
  5
26
102
{ACAD_REACTORS
330
1A
102
}
330
1A
100
AcDbPlotSettings
  1

  2
none_device
  4

  6

 40
0.0
 41
0.0
 42
0.0
 43
0.0
 44
0.0
 45
0.0
 46
0.0
 47
0.0
 48
0.0
 49
0.0
140
0.0
141
0.0
142
1.0
143
1.0
 70
   688
 72
     1
 73
     0
 74
     5
  7

 75
    16
147
1.0
148
0.0
149
0.0
100
AcDbLayout
  1
Layout2
 70
     1
 71
     2
 10
0.0
 20
0.0
 11
0.0
 21
0.0
 12
0.0
 22
0.0
 32
0.0
 14
0.0
 24
0.0
 34
0.0
 15
0.0
 25
0.0
 35
0.0
146
0.0
 13
0.0
 23
0.0
 33
0.0
 16
1.0
 26
0.0
 36
0.0
 17
0.0
 27
1.0
 37
0.0
 76
     0
330
23
  0
LAYOUT
  5
22
102
{ACAD_REACTORS
330
1A
102
}
330
1A
100
AcDbPlotSettings
  1

  2
none_device
  4
Letter_(8.50_x_11.00_Inches)
  6

 40
6.35
 41
6.35
 42
6.35000508
 43
6.35000508
 44
215.9
 45
279.4
 46
0.0
 47
0.0
 48
0.0
 49
0.0
140
0.0
141
0.0
142
1.0
143
1.0
 70
  1712
 72
     1
 73
     0
 74
     0
  7

 75
     0
147
1.0
148
0.0
149
0.0
100
AcDbLayout
  1
Model
 70
     1
 71
     0
 10
0.0
 20
0.0
 11
297.0
 21
210.0
 12
0.0
 22
0.0
 32
0.0
 14
0.0
 24
0.0
 34
0.0
 15
297.0
 25
210.0
 35
0.0
146
0.0
 13
0.0
 23
0.0
 33
0.0
 16
1.0
 26
0.0
 36
0.0
 17
0.0
 27
1.0
 37
0.0
 76
     0
330
1F
331
29
  0
MLINESTYLE
  5
18
102
{ACAD_REACTORS
330
17
102
}
330
17
100
AcDbMlineStyle
  2
Standard
 70
     0
  3

 62
   256
 51
90.0
 52
90.0
 71
     2
 49
0.5
 62
   256
  6
BYLAYER
 49
-0.5
 62
   256
  6
BYLAYER
  0
ACDBPLACEHOLDER
  5
F
102
{ACAD_REACTORS
330
E
102
}
330
E
  0
SCALE
  5
48
102
{ACAD_REACTORS
330
47
102
}
330
47
100
AcDbScale
 70
     0
300
1:1
140
1.0
141
1.0
290
     1
  0
SCALE
  5
49
102
{ACAD_REACTORS
330
47
102
}
330
47
100
AcDbScale
 70
     0
300
1:2
140
1.0
141
2.0
290
     0
  0
SCALE
  5
4A
102
{ACAD_REACTORS
330
47
102
}
330
47
100
AcDbScale
 70
     0
300
1:4
140
1.0
141
4.0
290
     0
  0
SCALE
  5
4B
102
{ACAD_REACTORS
330
47
102
}
330
47
100
AcDbScale
 70
     0
300
1:5
140
1.0
141
5.0
290
     0
  0
SCALE
  5
4C
102
{ACAD_REACTORS
330
47
102
}
330
47
100
AcDbScale
 70
     0
300
1:8
140
1.0
141
8.0
290
     0
  0
SCALE
  5
4D
102
{ACAD_REACTORS
330
47
102
}
330
47
100
AcDbScale
 70
     0
300
1:10
140
1.0
141
10.0
290
     0
  0
SCALE
  5
4E
102
{ACAD_REACTORS
330
47
102
}
330
47
100
AcDbScale
 70
     0
300
1:16
140
1.0
141
16.0
290
     0
  0
SCALE
  5
4F
102
{ACAD_REACTORS
330
47
102
}
330
47
100
AcDbScale
 70
     0
300
1:20
140
1.0
141
20.0
290
     0
  0
SCALE
  5
50
102
{ACAD_REACTORS
330
47
102
}
330
47
100
AcDbScale
 70
     0
300
1:30
140
1.0
141
30.0
290
     0
  0
SCALE
  5
51
102
{ACAD_REACTORS
330
47
102
}
330
47
100
AcDbScale
 70
     0
300
1:40
140
1.0
141
40.0
290
     0
  0
SCALE
  5
52
102
{ACAD_REACTORS
330
47
102
}
330
47
100
AcDbScale
 70
     0
300
1:50
140
1.0
141
50.0
290
     0
  0
SCALE
  5
53
102
{ACAD_REACTORS
330
47
102
}
330
47
100
AcDbScale
 70
     0
300
1:100
140
1.0
141
100.0
290
     0
  0
SCALE
  5
54
102
{ACAD_REACTORS
330
47
102
}
330
47
100
AcDbScale
 70
     0
300
2:1
140
2.0
141
1.0
290
     0
  0
SCALE
  5
55
102
{ACAD_REACTORS
330
47
102
}
330
47
100
AcDbScale
 70
     0
300
4:1
140
4.0
141
1.0
290
     0
  0
SCALE
  5
56
102
{ACAD_REACTORS
330
47
102
}
330
47
100
AcDbScale
 70
     0
300
8:1
140
8.0
141
1.0
290
     0
  0
SCALE
  5
57
102
{ACAD_REACTORS
330
47
102
}
330
47
100
AcDbScale
 70
     0
300
10:1
140
10.0
141
1.0
290
     0
  0
SCALE
  5
58
102
{ACAD_REACTORS
330
47
102
}
330
47
100
AcDbScale
 70
     0
300
100:1
140
100.0
141
1.0
290
     0
  0
ENDSEC
  0
EOF
